0, 0, Header, 1, 6, 1000
1, 0, Start_track
1, 0, Title_t, "prelude1"
1, 0, Time_signature, 4, 2, 24, 8
1, 0, Tempo, 833333
1, 0, End_track
2, 0, Start_track
2, 0, Title_t, "Prelude1 [chan 1]\000\000\000\002\000_9__"
2, 0, Text_t, "color green"
2, 0, Text_t, "elevationOffset 4"
2, 0, Text_t, "elevationInvert 0"
2, 0, Text_t, "headingInvert 0"
2, 0, Text_t, "headingOffset 0"
2, 0, Program_c, 0, 5
2, 0, Note_on_c, 0, 60, 64
2, 1000, Note_on_c, 0, 76, 64
2, 1250, Note_off_c, 0, 76, 0
2, 1958, Note_off_c, 0, 60, 0
2, 2000, Note_on_c, 0, 60, 64
2, 3000, Note_on_c, 0, 76, 64
2, 3250, Note_off_c, 0, 76, 0
2, 3958, Note_off_c, 0, 60, 0
2, 4000, Note_on_c, 0, 60, 64
2, 5000, Note_on_c, 0, 77, 64
2, 5250, Note_off_c, 0, 77, 0
2, 5958, Note_off_c, 0, 60, 0
2, 6000, Note_on_c, 0, 60, 64
2, 7000, Note_on_c, 0, 77, 64
2, 7250, Note_off_c, 0, 77, 0
2, 7958, Note_off_c, 0, 60, 0
2, 7958, End_track
3, 0, Start_track
3, 0, Title_t, "Prelude1 [chan 2]\000\000\000\002\000_\001co"
3, 0, Text_t, "headingOffset 180"
3, 0, Text_t, "headingInvert 0"
3, 0, Text_t, "elevationInvert 0"
3, 0, Text_t, "elevationOffset 4"
3, 0, Text_t, "color red"
3, 0, Program_c, 0, 2
3, 250, Note_on_c, 1, 64, 64
3, 1250, Note_on_c, 1, 67, 64
3, 1500, Note_off_c, 1, 67, 0
3, 1812, Note_off_c, 1, 64, 0
3, 2250, Note_on_c, 1, 64, 64
3, 3250, Note_on_c, 1, 67, 64
3, 3500, Note_off_c, 1, 67, 0
3, 3908, Note_off_c, 1, 64, 0
3, 4250, Note_on_c, 1, 62, 64
3, 5250, Note_on_c, 1, 69, 64
3, 5500, Note_off_c, 1, 69, 0
3, 5871, Note_off_c, 1, 62, 0
3, 6250, Note_on_c, 1, 62, 64
3, 7250, Note_on_c, 1, 69, 64
3, 7500, Note_off_c, 1, 69, 0
3, 7771, Note_off_c, 1, 62, 0
3, 7771, End_track
4, 0, Start_track
4, 0, Title_t, "Prelude1 [chan 3]\000\000\000\002\000\001\000\000\000"
4, 0, Text_t, "headingOffset 90"
4, 0, Text_t, "headingInvert 0"
4, 0, Text_t, "elevationInvert 0"
4, 0, Text_t, "elevationOffset 4"
4, 0, Text_t, "color blue"
4, 0, Program_c, 0, 5
4, 500, Note_on_c, 2, 67, 64
4, 750, Note_off_c, 2, 67, 0
4, 1500, Note_on_c, 2, 72, 64
4, 1750, Note_off_c, 2, 72, 0
4, 2500, Note_on_c, 2, 67, 64
4, 2750, Note_off_c, 2, 67, 0
4, 3500, Note_on_c, 2, 72, 64
4, 3750, Note_off_c, 2, 72, 0
4, 4500, Note_on_c, 2, 69, 64
4, 4750, Note_off_c, 2, 69, 0
4, 5500, Note_on_c, 2, 74, 64
4, 5750, Note_off_c, 2, 74, 0
4, 6500, Note_on_c, 2, 69, 64
4, 6750, Note_off_c, 2, 69, 0
4, 7500, Note_on_c, 2, 74, 64
4, 7750, Note_off_c, 2, 74, 0
4, 7750, End_track
5, 0, Start_track
5, 0, Title_t, "Prelude1 [chan 4]\000\000\000\002\000 N_r"
5, 0, Text_t, "headingOffset 90"
5, 0, Text_t, "headingInvert 1"
5, 0, Text_t, "elevationInvert 0"
5, 0, Text_t, "elevationOffset 4"
5, 0, Text_t, "color yellow"
5, 0, Program_c, 0, 2
5, 750, Note_on_c, 3, 72, 64
5, 1000, Note_off_c, 3, 72, 0
5, 1750, Note_on_c, 3, 76, 64
5, 2000, Note_off_c, 3, 76, 0
5, 2750, Note_on_c, 3, 72, 64
5, 3000, Note_off_c, 3, 72, 0
5, 3750, Note_on_c, 3, 76, 64
5, 4000, Note_off_c, 3, 76, 0
5, 4750, Note_on_c, 3, 74, 64
5, 5000, Note_off_c, 3, 74, 0
5, 5750, Note_on_c, 3, 77, 64
5, 6000, Note_off_c, 3, 77, 0
5, 6750, Note_on_c, 3, 74, 64
5, 7000, Note_off_c, 3, 74, 0
5, 7750, Note_on_c, 3, 77, 64
5, 8000, Note_off_c, 3, 77, 0
5, 8000, End_track
6, 0, Start_track
6, 0, Title_t, "PARAMS\000\000_r_\177\000\000\000"
6, 0, Text_t, "force 31"
6, 0, Text_t, "count 24"
6, 0, End_track
0, 0, End_of_file
