0, 0, Header, 1, 5, 120
1, 0, Start_track
1, 0, Time_signature, 7, 3, 12, 8
1, 0, Key_signature, 2, "major"
1, 0, Tempo, 600000
1, 420, Time_signature, 6, 3, 12, 8
1, 780, Time_signature, 7, 3, 12, 8
1, 1200, Time_signature, 6, 3, 12, 8
1, 1560, Time_signature, 7, 3, 12, 8
1, 1980, Time_signature, 6, 3, 12, 8
1, 2340, Time_signature, 7, 3, 12, 8
1, 2760, Time_signature, 6, 3, 12, 8
1, 3120, Time_signature, 7, 3, 12, 8
1, 3540, Time_signature, 6, 3, 12, 8
1, 3900, Time_signature, 7, 3, 12, 8
1, 4320, Time_signature, 6, 3, 12, 8
1, 4680, Time_signature, 7, 3, 12, 8
1, 5100, Time_signature, 6, 3, 12, 8
1, 6180, Time_signature, 7, 3, 12, 8
1, 6600, Time_signature, 6, 3, 12, 8
1, 10560, Time_signature, 6, 2, 24, 8
1, 10560, End_track
2, 0, Start_track
2, 0, MIDI_port, 0
2, 0, Title_t, "Grand Piano"
2, 0, Program_c, 0, 0
2, 0, Control_c, 0, 7, 127
2, 0, Control_c, 0, 10, 64
2, 0, Note_on_c, 0, 54, 64
2, 30, Note_on_c, 0, 54, 0
2, 30, Note_on_c, 0, 55, 64
2, 60, Note_on_c, 0, 55, 0
2, 60, Note_on_c, 0, 55, 64
2, 90, Note_on_c, 0, 55, 0
2, 90, Note_on_c, 0, 54, 64
2, 120, Note_on_c, 0, 54, 0
2, 120, Note_on_c, 0, 55, 64
2, 150, Note_on_c, 0, 55, 0
2, 150, Note_on_c, 0, 54, 64
2, 180, Note_on_c, 0, 54, 0
2, 180, Note_on_c, 0, 55, 64
2, 191, Note_on_c, 0, 55, 0
2, 210, Note_on_c, 0, 54, 64
2, 240, Note_on_c, 0, 54, 0
2, 240, Note_on_c, 0, 55, 64
2, 270, Note_on_c, 0, 55, 0
2, 270, Note_on_c, 0, 55, 64
2, 300, Note_on_c, 0, 55, 0
2, 300, Note_on_c, 0, 54, 64
2, 330, Note_on_c, 0, 54, 0
2, 330, Note_on_c, 0, 55, 64
2, 360, Note_on_c, 0, 55, 0
2, 360, Note_on_c, 0, 54, 64
2, 390, Note_on_c, 0, 54, 0
2, 390, Note_on_c, 0, 55, 64
2, 401, Note_on_c, 0, 55, 0
2, 420, Note_on_c, 0, 57, 64
2, 480, Note_on_c, 0, 57, 0
2, 480, Note_on_c, 0, 61, 64
2, 540, Note_on_c, 0, 61, 0
2, 540, Note_on_c, 0, 57, 64
2, 600, Note_on_c, 0, 57, 0
2, 600, Note_on_c, 0, 55, 64
2, 660, Note_on_c, 0, 55, 0
2, 660, Note_on_c, 0, 54, 64
2, 720, Note_on_c, 0, 54, 0
2, 720, Note_on_c, 0, 55, 64
2, 735, Note_on_c, 0, 55, 0
2, 735, Note_on_c, 0, 54, 64
2, 750, Note_on_c, 0, 54, 0
2, 750, Note_on_c, 0, 52, 64
2, 765, Note_on_c, 0, 52, 0
2, 780, Note_on_c, 0, 54, 64
2, 810, Note_on_c, 0, 54, 0
2, 810, Note_on_c, 0, 55, 64
2, 840, Note_on_c, 0, 55, 0
2, 840, Note_on_c, 0, 55, 64
2, 870, Note_on_c, 0, 55, 0
2, 870, Note_on_c, 0, 54, 64
2, 900, Note_on_c, 0, 54, 0
2, 900, Note_on_c, 0, 55, 64
2, 930, Note_on_c, 0, 55, 0
2, 930, Note_on_c, 0, 54, 64
2, 960, Note_on_c, 0, 54, 0
2, 960, Note_on_c, 0, 55, 64
2, 971, Note_on_c, 0, 55, 0
2, 990, Note_on_c, 0, 54, 64
2, 1020, Note_on_c, 0, 54, 0
2, 1020, Note_on_c, 0, 55, 64
2, 1050, Note_on_c, 0, 55, 0
2, 1050, Note_on_c, 0, 55, 64
2, 1080, Note_on_c, 0, 55, 0
2, 1080, Note_on_c, 0, 54, 64
2, 1110, Note_on_c, 0, 54, 0
2, 1110, Note_on_c, 0, 55, 64
2, 1140, Note_on_c, 0, 55, 0
2, 1140, Note_on_c, 0, 54, 64
2, 1170, Note_on_c, 0, 54, 0
2, 1170, Note_on_c, 0, 55, 64
2, 1181, Note_on_c, 0, 55, 0
2, 1200, Note_on_c, 0, 57, 64
2, 1260, Note_on_c, 0, 57, 0
2, 1260, Note_on_c, 0, 61, 64
2, 1320, Note_on_c, 0, 61, 0
2, 1320, Note_on_c, 0, 57, 64
2, 1380, Note_on_c, 0, 57, 0
2, 1380, Note_on_c, 0, 64, 64
2, 1560, Note_on_c, 0, 64, 0
2, 1560, Note_on_c, 0, 54, 64
2, 1590, Note_on_c, 0, 54, 0
2, 1590, Note_on_c, 0, 55, 64
2, 1620, Note_on_c, 0, 55, 0
2, 1620, Note_on_c, 0, 55, 64
2, 1650, Note_on_c, 0, 55, 0
2, 1650, Note_on_c, 0, 54, 64
2, 1680, Note_on_c, 0, 54, 0
2, 1680, Note_on_c, 0, 55, 64
2, 1710, Note_on_c, 0, 55, 0
2, 1710, Note_on_c, 0, 54, 64
2, 1740, Note_on_c, 0, 54, 0
2, 1740, Note_on_c, 0, 55, 64
2, 1751, Note_on_c, 0, 55, 0
2, 1770, Note_on_c, 0, 54, 64
2, 1800, Note_on_c, 0, 54, 0
2, 1800, Note_on_c, 0, 55, 64
2, 1830, Note_on_c, 0, 55, 0
2, 1830, Note_on_c, 0, 55, 64
2, 1860, Note_on_c, 0, 55, 0
2, 1860, Note_on_c, 0, 54, 64
2, 1890, Note_on_c, 0, 54, 0
2, 1890, Note_on_c, 0, 55, 64
2, 1920, Note_on_c, 0, 55, 0
2, 1920, Note_on_c, 0, 54, 64
2, 1950, Note_on_c, 0, 54, 0
2, 1950, Note_on_c, 0, 55, 64
2, 1961, Note_on_c, 0, 55, 0
2, 1980, Note_on_c, 0, 57, 64
2, 2040, Note_on_c, 0, 57, 0
2, 2040, Note_on_c, 0, 61, 64
2, 2100, Note_on_c, 0, 61, 0
2, 2100, Note_on_c, 0, 57, 64
2, 2160, Note_on_c, 0, 57, 0
2, 2160, Note_on_c, 0, 55, 64
2, 2220, Note_on_c, 0, 55, 0
2, 2220, Note_on_c, 0, 54, 64
2, 2280, Note_on_c, 0, 54, 0
2, 2280, Note_on_c, 0, 55, 64
2, 2295, Note_on_c, 0, 55, 0
2, 2295, Note_on_c, 0, 54, 64
2, 2310, Note_on_c, 0, 54, 0
2, 2310, Note_on_c, 0, 52, 64
2, 2325, Note_on_c, 0, 52, 0
2, 2340, Note_on_c, 0, 54, 64
2, 2370, Note_on_c, 0, 54, 0
2, 2370, Note_on_c, 0, 55, 64
2, 2400, Note_on_c, 0, 55, 0
2, 2400, Note_on_c, 0, 55, 64
2, 2430, Note_on_c, 0, 55, 0
2, 2430, Note_on_c, 0, 54, 64
2, 2460, Note_on_c, 0, 54, 0
2, 2460, Note_on_c, 0, 55, 64
2, 2490, Note_on_c, 0, 55, 0
2, 2490, Note_on_c, 0, 54, 64
2, 2520, Note_on_c, 0, 54, 0
2, 2520, Note_on_c, 0, 55, 64
2, 2531, Note_on_c, 0, 55, 0
2, 2550, Note_on_c, 0, 54, 64
2, 2580, Note_on_c, 0, 54, 0
2, 2580, Note_on_c, 0, 55, 64
2, 2610, Note_on_c, 0, 55, 0
2, 2610, Note_on_c, 0, 55, 64
2, 2640, Note_on_c, 0, 55, 0
2, 2640, Note_on_c, 0, 54, 64
2, 2670, Note_on_c, 0, 54, 0
2, 2670, Note_on_c, 0, 55, 64
2, 2700, Note_on_c, 0, 55, 0
2, 2700, Note_on_c, 0, 54, 64
2, 2730, Note_on_c, 0, 54, 0
2, 2730, Note_on_c, 0, 55, 64
2, 2741, Note_on_c, 0, 55, 0
2, 2760, Note_on_c, 0, 57, 64
2, 2820, Note_on_c, 0, 57, 0
2, 2820, Note_on_c, 0, 61, 64
2, 2880, Note_on_c, 0, 61, 0
2, 2880, Note_on_c, 0, 57, 64
2, 2940, Note_on_c, 0, 57, 0
2, 2940, Note_on_c, 0, 64, 64
2, 3120, Note_on_c, 0, 64, 0
2, 3120, Note_on_c, 0, 52, 64
2, 3150, Note_on_c, 0, 52, 0
2, 3150, Note_on_c, 0, 50, 64
2, 3180, Note_on_c, 0, 50, 0
2, 3180, Note_on_c, 0, 50, 64
2, 3210, Note_on_c, 0, 50, 0
2, 3210, Note_on_c, 0, 49, 64
2, 3240, Note_on_c, 0, 49, 0
2, 3240, Note_on_c, 0, 50, 64
2, 3270, Note_on_c, 0, 50, 0
2, 3270, Note_on_c, 0, 49, 64
2, 3300, Note_on_c, 0, 49, 0
2, 3300, Note_on_c, 0, 47, 64
2, 3330, Note_on_c, 0, 47, 0
2, 3330, Note_on_c, 0, 52, 64
2, 3360, Note_on_c, 0, 52, 0
2, 3360, Note_on_c, 0, 50, 64
2, 3390, Note_on_c, 0, 50, 0
2, 3390, Note_on_c, 0, 50, 64
2, 3420, Note_on_c, 0, 50, 0
2, 3420, Note_on_c, 0, 49, 64
2, 3450, Note_on_c, 0, 49, 0
2, 3450, Note_on_c, 0, 50, 64
2, 3480, Note_on_c, 0, 50, 0
2, 3480, Note_on_c, 0, 49, 64
2, 3510, Note_on_c, 0, 49, 0
2, 3510, Note_on_c, 0, 47, 64
2, 3540, Note_on_c, 0, 47, 0
2, 3540, Note_on_c, 0, 45, 64
2, 3600, Note_on_c, 0, 45, 0
2, 3600, Note_on_c, 0, 47, 64
2, 3660, Note_on_c, 0, 47, 0
2, 3660, Note_on_c, 0, 45, 64
2, 3720, Note_on_c, 0, 45, 0
2, 3720, Note_on_c, 0, 43, 64
2, 3840, Note_on_c, 0, 43, 0
2, 3900, Note_on_c, 0, 52, 64
2, 3930, Note_on_c, 0, 52, 0
2, 3930, Note_on_c, 0, 50, 64
2, 3960, Note_on_c, 0, 50, 0
2, 3960, Note_on_c, 0, 50, 64
2, 3990, Note_on_c, 0, 50, 0
2, 3990, Note_on_c, 0, 49, 64
2, 4020, Note_on_c, 0, 49, 0
2, 4020, Note_on_c, 0, 50, 64
2, 4050, Note_on_c, 0, 50, 0
2, 4050, Note_on_c, 0, 49, 64
2, 4080, Note_on_c, 0, 49, 0
2, 4080, Note_on_c, 0, 47, 64
2, 4110, Note_on_c, 0, 47, 0
2, 4110, Note_on_c, 0, 52, 64
2, 4140, Note_on_c, 0, 52, 0
2, 4140, Note_on_c, 0, 50, 64
2, 4170, Note_on_c, 0, 50, 0
2, 4170, Note_on_c, 0, 50, 64
2, 4200, Note_on_c, 0, 50, 0
2, 4200, Note_on_c, 0, 49, 64
2, 4230, Note_on_c, 0, 49, 0
2, 4230, Note_on_c, 0, 50, 64
2, 4260, Note_on_c, 0, 50, 0
2, 4260, Note_on_c, 0, 49, 64
2, 4290, Note_on_c, 0, 49, 0
2, 4290, Note_on_c, 0, 47, 64
2, 4320, Note_on_c, 0, 47, 0
2, 4320, Note_on_c, 0, 45, 64
2, 4380, Note_on_c, 0, 45, 0
2, 4380, Note_on_c, 0, 47, 64
2, 4440, Note_on_c, 0, 47, 0
2, 4440, Note_on_c, 0, 45, 64
2, 4500, Note_on_c, 0, 45, 0
2, 4500, Note_on_c, 0, 43, 64
2, 4560, Note_on_c, 0, 62, 64
2, 4590, Note_on_c, 0, 62, 0
2, 4590, Note_on_c, 0, 61, 64
2, 4620, Note_on_c, 0, 61, 0
2, 4620, Note_on_c, 0, 43, 0
2, 4620, Note_on_c, 0, 59, 64
2, 4650, Note_on_c, 0, 59, 0
2, 4650, Note_on_c, 0, 57, 64
2, 4680, Note_on_c, 0, 57, 0
2, 4680, Note_on_c, 0, 55, 64
2, 4710, Note_on_c, 0, 55, 0
2, 4710, Note_on_c, 0, 57, 64
2, 4740, Note_on_c, 0, 57, 0
2, 4740, Note_on_c, 0, 59, 64
2, 4770, Note_on_c, 0, 59, 0
2, 4770, Note_on_c, 0, 57, 64
2, 4800, Note_on_c, 0, 57, 0
2, 4800, Note_on_c, 0, 55, 64
2, 4830, Note_on_c, 0, 55, 0
2, 4830, Note_on_c, 0, 54, 64
2, 4860, Note_on_c, 0, 54, 0
2, 4860, Note_on_c, 0, 55, 64
2, 4890, Note_on_c, 0, 55, 0
2, 4890, Note_on_c, 0, 54, 64
2, 4920, Note_on_c, 0, 54, 0
2, 4920, Note_on_c, 0, 52, 64
2, 4950, Note_on_c, 0, 52, 0
2, 4950, Note_on_c, 0, 50, 64
2, 4980, Note_on_c, 0, 50, 0
2, 4980, Note_on_c, 0, 49, 64
2, 5010, Note_on_c, 0, 49, 0
2, 5010, Note_on_c, 0, 50, 64
2, 5040, Note_on_c, 0, 50, 0
2, 5040, Note_on_c, 0, 49, 64
2, 5070, Note_on_c, 0, 49, 0
2, 5070, Note_on_c, 0, 47, 64
2, 5100, Note_on_c, 0, 47, 0
2, 5100, Note_on_c, 0, 45, 64
2, 5130, Note_on_c, 0, 45, 0
2, 5130, Note_on_c, 0, 43, 64
2, 5160, Note_on_c, 0, 43, 0
2, 5160, Note_on_c, 0, 42, 64
2, 5190, Note_on_c, 0, 43, 64
2, 5205, Note_on_c, 0, 43, 0
2, 5205, Note_on_c, 0, 42, 64
2, 5220, Note_on_c, 0, 42, 0
2, 5220, Note_on_c, 0, 42, 0
2, 5220, Note_on_c, 0, 40, 64
2, 5280, Note_on_c, 0, 40, 0
2, 5280, Note_on_c, 0, 45, 64
2, 5340, Note_on_c, 0, 45, 0
2, 5340, Note_on_c, 0, 47, 64
2, 5400, Note_on_c, 0, 47, 0
2, 5400, Note_on_c, 0, 48, 64
2, 5460, Note_on_c, 0, 48, 0
2, 5460, Note_on_c, 0, 41, 64
2, 5640, Note_on_c, 0, 41, 0
2, 5640, Note_on_c, 0, 48, 64
2, 5820, Note_on_c, 0, 48, 0
2, 5820, Note_on_c, 0, 55, 64
2, 6000, Note_on_c, 0, 55, 0
2, 6000, Note_on_c, 0, 62, 64
2, 6180, Note_on_c, 0, 62, 0
2, 6180, Note_on_c, 0, 55, 64
2, 6210, Note_on_c, 0, 55, 0
2, 6210, Note_on_c, 0, 57, 64
2, 6240, Note_on_c, 0, 57, 0
2, 6240, Note_on_c, 0, 59, 64
2, 6270, Note_on_c, 0, 59, 0
2, 6270, Note_on_c, 0, 57, 64
2, 6300, Note_on_c, 0, 57, 0
2, 6300, Note_on_c, 0, 55, 64
2, 6330, Note_on_c, 0, 55, 0
2, 6330, Note_on_c, 0, 54, 64
2, 6360, Note_on_c, 0, 54, 0
2, 6360, Note_on_c, 0, 55, 64
2, 6390, Note_on_c, 0, 55, 0
2, 6390, Note_on_c, 0, 54, 64
2, 6420, Note_on_c, 0, 54, 0
2, 6420, Note_on_c, 0, 52, 64
2, 6450, Note_on_c, 0, 52, 0
2, 6450, Note_on_c, 0, 50, 64
2, 6480, Note_on_c, 0, 50, 0
2, 6480, Note_on_c, 0, 49, 64
2, 6510, Note_on_c, 0, 49, 0
2, 6510, Note_on_c, 0, 50, 64
2, 6540, Note_on_c, 0, 50, 0
2, 6540, Note_on_c, 0, 49, 64
2, 6570, Note_on_c, 0, 49, 0
2, 6570, Note_on_c, 0, 47, 64
2, 6600, Note_on_c, 0, 47, 0
2, 6600, Note_on_c, 0, 45, 64
2, 6630, Note_on_c, 0, 45, 0
2, 6630, Note_on_c, 0, 43, 64
2, 6660, Note_on_c, 0, 43, 0
2, 6660, Note_on_c, 0, 42, 64
2, 6690, Note_on_c, 0, 43, 64
2, 6705, Note_on_c, 0, 43, 0
2, 6705, Note_on_c, 0, 42, 64
2, 6720, Note_on_c, 0, 42, 0
2, 6720, Note_on_c, 0, 42, 0
2, 6720, Note_on_c, 0, 40, 64
2, 6780, Note_on_c, 0, 40, 0
2, 6780, Note_on_c, 0, 45, 64
2, 6840, Note_on_c, 0, 45, 0
2, 6840, Note_on_c, 0, 47, 64
2, 6900, Note_on_c, 0, 47, 0
2, 6900, Note_on_c, 0, 48, 64
2, 6960, Note_on_c, 0, 48, 0
2, 6960, Note_on_c, 0, 41, 64
2, 7140, Note_on_c, 0, 41, 0
2, 7140, Note_on_c, 0, 48, 64
2, 7320, Note_on_c, 0, 48, 0
2, 7320, Note_on_c, 0, 55, 64
2, 7500, Note_on_c, 0, 55, 0
2, 7500, Note_on_c, 0, 62, 64
2, 7680, Note_on_c, 0, 62, 0
2, 9120, Note_on_c, 0, 55, 64
2, 9150, Note_on_c, 0, 55, 0
2, 9150, Note_on_c, 0, 57, 64
2, 9180, Note_on_c, 0, 57, 0
2, 9180, Note_on_c, 0, 59, 64
2, 9210, Note_on_c, 0, 59, 0
2, 9210, Note_on_c, 0, 59, 64
2, 9240, Note_on_c, 0, 59, 0
2, 9240, Note_on_c, 0, 57, 64
2, 9270, Note_on_c, 0, 57, 0
2, 9270, Note_on_c, 0, 55, 64
2, 9300, Note_on_c, 0, 55, 0
2, 9300, Note_on_c, 0, 55, 64
2, 9330, Note_on_c, 0, 55, 0
2, 9330, Note_on_c, 0, 57, 64
2, 9360, Note_on_c, 0, 57, 0
2, 9360, Note_on_c, 0, 59, 64
2, 9390, Note_on_c, 0, 59, 0
2, 9390, Note_on_c, 0, 59, 64
2, 9420, Note_on_c, 0, 59, 0
2, 9420, Note_on_c, 0, 57, 64
2, 9450, Note_on_c, 0, 57, 0
2, 9450, Note_on_c, 0, 55, 64
2, 9480, Note_on_c, 0, 55, 0
2, 9480, Note_on_c, 0, 54, 64
2, 9510, Note_on_c, 0, 54, 0
2, 9510, Note_on_c, 0, 53, 64
2, 9540, Note_on_c, 0, 53, 0
2, 9540, Note_on_c, 0, 54, 64
2, 9570, Note_on_c, 0, 54, 0
2, 9570, Note_on_c, 0, 53, 64
2, 9600, Note_on_c, 0, 53, 0
2, 9600, Note_on_c, 0, 51, 64
2, 9630, Note_on_c, 0, 51, 0
2, 9630, Note_on_c, 0, 51, 64
2, 9660, Note_on_c, 0, 51, 0
2, 9660, Note_on_c, 0, 53, 64
2, 9690, Note_on_c, 0, 53, 0
2, 9690, Note_on_c, 0, 54, 64
2, 9720, Note_on_c, 0, 54, 0
2, 9720, Note_on_c, 0, 54, 64
2, 9750, Note_on_c, 0, 54, 0
2, 9750, Note_on_c, 0, 53, 64
2, 9780, Note_on_c, 0, 53, 0
2, 9780, Note_on_c, 0, 51, 64
2, 9840, Note_on_c, 0, 51, 0
2, 9840, Note_on_c, 0, 56, 64
2, 9870, Note_on_c, 0, 56, 0
2, 9870, Note_on_c, 0, 58, 64
2, 9900, Note_on_c, 0, 58, 0
2, 9900, Note_on_c, 0, 60, 64
2, 9930, Note_on_c, 0, 60, 0
2, 9930, Note_on_c, 0, 60, 64
2, 9960, Note_on_c, 0, 60, 0
2, 9960, Note_on_c, 0, 58, 64
2, 9990, Note_on_c, 0, 58, 0
2, 9990, Note_on_c, 0, 56, 64
2, 10020, Note_on_c, 0, 56, 0
2, 10020, Note_on_c, 0, 56, 64
2, 10050, Note_on_c, 0, 56, 0
2, 10050, Note_on_c, 0, 58, 64
2, 10080, Note_on_c, 0, 58, 0
2, 10080, Note_on_c, 0, 60, 64
2, 10110, Note_on_c, 0, 60, 0
2, 10110, Note_on_c, 0, 60, 64
2, 10140, Note_on_c, 0, 60, 0
2, 10140, Note_on_c, 0, 58, 64
2, 10170, Note_on_c, 0, 58, 0
2, 10170, Note_on_c, 0, 56, 64
2, 10200, Note_on_c, 0, 56, 0
2, 10200, Note_on_c, 0, 55, 64
2, 10230, Note_on_c, 0, 55, 0
2, 10230, Note_on_c, 0, 54, 64
2, 10260, Note_on_c, 0, 54, 0
2, 10260, Note_on_c, 0, 55, 64
2, 10290, Note_on_c, 0, 55, 0
2, 10290, Note_on_c, 0, 54, 64
2, 10320, Note_on_c, 0, 54, 0
2, 10320, Note_on_c, 0, 52, 64
2, 10350, Note_on_c, 0, 52, 0
2, 10350, Note_on_c, 0, 52, 64
2, 10380, Note_on_c, 0, 52, 0
2, 10380, Note_on_c, 0, 54, 64
2, 10410, Note_on_c, 0, 54, 0
2, 10410, Note_on_c, 0, 55, 64
2, 10440, Note_on_c, 0, 55, 0
2, 10440, Note_on_c, 0, 55, 64
2, 10470, Note_on_c, 0, 55, 0
2, 10470, Note_on_c, 0, 54, 64
2, 10500, Note_on_c, 0, 54, 0
2, 10500, Note_on_c, 0, 52, 64
2, 10560, Note_on_c, 0, 52, 0
2, 10560, Note_on_c, 0, 71, 64
2, 10620, Note_on_c, 0, 71, 0
2, 10620, Note_on_c, 0, 69, 64
2, 10650, Note_on_c, 0, 69, 0
2, 10650, Note_on_c, 0, 67, 64
2, 10710, Note_on_c, 0, 67, 0
2, 10710, Note_on_c, 0, 59, 64
2, 10745, Note_on_c, 0, 59, 0
2, 10800, Note_on_c, 0, 57, 64
2, 11280, Note_on_c, 0, 57, 0
2, 11280, Note_on_c, 0, 71, 64
2, 11340, Note_on_c, 0, 71, 0
2, 11340, Note_on_c, 0, 69, 64
2, 11370, Note_on_c, 0, 69, 0
2, 11370, Note_on_c, 0, 67, 64
2, 11430, Note_on_c, 0, 67, 0
2, 11430, Note_on_c, 0, 59, 64
2, 11465, Note_on_c, 0, 59, 0
2, 11520, Note_on_c, 0, 57, 64
2, 11640, Note_on_c, 0, 57, 0
2, 11640, Note_on_c, 0, 62, 64
2, 11700, Note_on_c, 0, 62, 0
2, 11700, Note_on_c, 0, 60, 64
2, 11724, Note_on_c, 0, 60, 0
2, 11790, Note_on_c, 0, 55, 64
2, 11850, Note_on_c, 0, 55, 0
2, 11880, Note_on_c, 0, 67, 64
2, 12000, Note_on_c, 0, 67, 0
2, 12000, Note_on_c, 0, 71, 64
2, 12060, Note_on_c, 0, 71, 0
2, 12060, Note_on_c, 0, 69, 64
2, 12090, Note_on_c, 0, 69, 0
2, 12090, Note_on_c, 0, 67, 64
2, 12150, Note_on_c, 0, 67, 0
2, 12150, Note_on_c, 0, 59, 64
2, 12185, Note_on_c, 0, 59, 0
2, 12240, Note_on_c, 0, 57, 64
2, 12360, Note_on_c, 0, 57, 0
2, 12360, Note_on_c, 0, 62, 64
2, 12420, Note_on_c, 0, 62, 0
2, 12420, Note_on_c, 0, 60, 64
2, 12444, Note_on_c, 0, 60, 0
2, 12510, Note_on_c, 0, 53, 64
2, 12600, Note_on_c, 0, 53, 0
2, 12600, Note_on_c, 0, 53, 64
2, 12720, Note_on_c, 0, 53, 0
2, 12720, Note_on_c, 0, 71, 64
2, 12780, Note_on_c, 0, 71, 0
2, 12780, Note_on_c, 0, 69, 64
2, 12810, Note_on_c, 0, 69, 0
2, 12810, Note_on_c, 0, 67, 64
2, 12870, Note_on_c, 0, 67, 0
2, 12870, Note_on_c, 0, 59, 64
2, 12905, Note_on_c, 0, 59, 0
2, 12960, Note_on_c, 0, 57, 64
2, 13080, Note_on_c, 0, 57, 0
2, 13080, Note_on_c, 0, 62, 64
2, 13140, Note_on_c, 0, 62, 0
2, 13140, Note_on_c, 0, 60, 64
2, 13164, Note_on_c, 0, 60, 0
2, 13230, Note_on_c, 0, 55, 64
2, 13290, Note_on_c, 0, 55, 0
2, 13320, Note_on_c, 0, 67, 64
2, 13440, Note_on_c, 0, 67, 0
2, 13440, Note_on_c, 0, 71, 64
2, 13500, Note_on_c, 0, 71, 0
2, 13500, Note_on_c, 0, 69, 64
2, 13530, Note_on_c, 0, 69, 0
2, 13530, Note_on_c, 0, 67, 64
2, 13590, Note_on_c, 0, 67, 0
2, 13590, Note_on_c, 0, 59, 64
2, 13625, Note_on_c, 0, 59, 0
2, 13680, Note_on_c, 0, 57, 64
2, 13800, Note_on_c, 0, 57, 0
2, 13800, Note_on_c, 0, 62, 64
2, 13860, Note_on_c, 0, 62, 0
2, 13860, Note_on_c, 0, 60, 64
2, 13884, Note_on_c, 0, 60, 0
2, 13950, Note_on_c, 0, 53, 64
2, 14160, Note_on_c, 0, 53, 0
2, 14160, Note_on_c, 0, 59, 64
2, 14160, Note_on_c, 0, 64, 64
2, 14160, Note_on_c, 0, 68, 64
2, 14220, Note_on_c, 0, 68, 0
2, 14220, Note_on_c, 0, 64, 0
2, 14220, Note_on_c, 0, 59, 0
2, 14220, Note_on_c, 0, 60, 64
2, 14220, Note_on_c, 0, 65, 64
2, 14220, Note_on_c, 0, 69, 64
2, 14280, Note_on_c, 0, 69, 0
2, 14280, Note_on_c, 0, 65, 0
2, 14280, Note_on_c, 0, 60, 0
2, 14280, Note_on_c, 0, 60, 64
2, 14280, Note_on_c, 0, 65, 64
2, 14280, Note_on_c, 0, 69, 64
2, 14340, Note_on_c, 0, 69, 0
2, 14340, Note_on_c, 0, 65, 0
2, 14340, Note_on_c, 0, 60, 0
2, 14340, Note_on_c, 0, 59, 64
2, 14340, Note_on_c, 0, 64, 64
2, 14340, Note_on_c, 0, 68, 64
2, 14370, Note_on_c, 0, 68, 0
2, 14370, Note_on_c, 0, 64, 0
2, 14370, Note_on_c, 0, 59, 0
2, 14370, Note_on_c, 0, 60, 64
2, 14370, Note_on_c, 0, 65, 64
2, 14370, Note_on_c, 0, 69, 64
2, 14400, Note_on_c, 0, 69, 0
2, 14400, Note_on_c, 0, 65, 0
2, 14400, Note_on_c, 0, 60, 0
2, 14400, Note_on_c, 0, 59, 64
2, 14400, Note_on_c, 0, 64, 64
2, 14400, Note_on_c, 0, 68, 64
2, 14430, Note_on_c, 0, 68, 0
2, 14430, Note_on_c, 0, 64, 0
2, 14430, Note_on_c, 0, 59, 0
2, 14430, Note_on_c, 0, 60, 64
2, 14430, Note_on_c, 0, 65, 64
2, 14430, Note_on_c, 0, 69, 64
2, 14460, Note_on_c, 0, 69, 0
2, 14460, Note_on_c, 0, 65, 0
2, 14460, Note_on_c, 0, 60, 0
2, 14460, Note_on_c, 0, 59, 64
2, 14460, Note_on_c, 0, 64, 64
2, 14460, Note_on_c, 0, 68, 64
2, 14880, Note_on_c, 0, 68, 0
2, 14880, Note_on_c, 0, 64, 0
2, 14880, Note_on_c, 0, 59, 0
2, 14880, End_track
3, 0, Start_track
3, 0, MIDI_port, 0
3, 0, Title_t, "Acoustic Bass"
3, 0, Program_c, 1, 32
3, 0, Control_c, 1, 7, 127
3, 0, Control_c, 1, 10, 64
3, 5460, Note_on_c, 1, 41, 64
3, 6180, Note_on_c, 1, 41, 0
3, 6960, Note_on_c, 1, 41, 64
3, 7680, Note_on_c, 1, 41, 0
3, 8400, Note_on_c, 1, 55, 64
3, 8439, Note_on_c, 1, 55, 0
3, 8439, Note_on_c, 1, 55, 64
3, 8460, Note_on_c, 1, 55, 0
3, 8460, Note_on_c, 1, 55, 64
3, 8480, Note_on_c, 1, 55, 0
3, 8480, Note_on_c, 1, 55, 64
3, 8499, Note_on_c, 1, 55, 0
3, 8499, Note_on_c, 1, 57, 64
3, 8520, Note_on_c, 1, 57, 0
3, 8520, Note_on_c, 1, 59, 64
3, 8559, Note_on_c, 1, 59, 0
3, 8559, Note_on_c, 1, 59, 64
3, 8580, Note_on_c, 1, 59, 0
3, 8580, Note_on_c, 1, 59, 64
3, 8600, Note_on_c, 1, 59, 0
3, 8600, Note_on_c, 1, 57, 64
3, 8619, Note_on_c, 1, 57, 0
3, 8619, Note_on_c, 1, 55, 64
3, 8640, Note_on_c, 1, 55, 0
3, 8640, Note_on_c, 1, 57, 64
3, 8679, Note_on_c, 1, 57, 0
3, 8679, Note_on_c, 1, 55, 64
3, 8720, Note_on_c, 1, 55, 0
3, 8760, Note_on_c, 1, 55, 64
3, 8799, Note_on_c, 1, 55, 0
3, 8799, Note_on_c, 1, 55, 64
3, 8820, Note_on_c, 1, 55, 0
3, 8820, Note_on_c, 1, 55, 64
3, 8840, Note_on_c, 1, 55, 0
3, 8840, Note_on_c, 1, 55, 64
3, 8859, Note_on_c, 1, 55, 0
3, 8859, Note_on_c, 1, 57, 64
3, 8880, Note_on_c, 1, 57, 0
3, 8880, Note_on_c, 1, 59, 64
3, 8919, Note_on_c, 1, 59, 0
3, 8919, Note_on_c, 1, 59, 64
3, 8940, Note_on_c, 1, 59, 0
3, 8940, Note_on_c, 1, 59, 64
3, 8960, Note_on_c, 1, 59, 0
3, 8960, Note_on_c, 1, 57, 64
3, 8979, Note_on_c, 1, 57, 0
3, 8979, Note_on_c, 1, 55, 64
3, 9000, Note_on_c, 1, 55, 0
3, 9000, Note_on_c, 1, 57, 64
3, 9039, Note_on_c, 1, 57, 0
3, 9480, Note_on_c, 1, 54, 64
3, 9510, Note_on_c, 1, 54, 0
3, 9510, Note_on_c, 1, 53, 64
3, 9540, Note_on_c, 1, 53, 0
3, 9540, Note_on_c, 1, 54, 64
3, 9570, Note_on_c, 1, 54, 0
3, 9570, Note_on_c, 1, 53, 64
3, 9600, Note_on_c, 1, 53, 0
3, 9600, Note_on_c, 1, 51, 64
3, 9630, Note_on_c, 1, 51, 0
3, 9630, Note_on_c, 1, 51, 64
3, 9660, Note_on_c, 1, 51, 0
3, 9660, Note_on_c, 1, 53, 64
3, 9690, Note_on_c, 1, 53, 0
3, 9690, Note_on_c, 1, 54, 64
3, 9720, Note_on_c, 1, 54, 0
3, 9720, Note_on_c, 1, 54, 64
3, 9750, Note_on_c, 1, 54, 0
3, 9750, Note_on_c, 1, 53, 64
3, 9780, Note_on_c, 1, 53, 0
3, 9780, Note_on_c, 1, 51, 64
3, 9840, Note_on_c, 1, 51, 0
3, 10200, Note_on_c, 1, 55, 64
3, 10230, Note_on_c, 1, 55, 0
3, 10230, Note_on_c, 1, 54, 64
3, 10260, Note_on_c, 1, 54, 0
3, 10260, Note_on_c, 1, 55, 64
3, 10290, Note_on_c, 1, 55, 0
3, 10290, Note_on_c, 1, 54, 64
3, 10320, Note_on_c, 1, 54, 0
3, 10320, Note_on_c, 1, 52, 64
3, 10350, Note_on_c, 1, 52, 0
3, 10350, Note_on_c, 1, 52, 64
3, 10380, Note_on_c, 1, 52, 0
3, 10380, Note_on_c, 1, 54, 64
3, 10410, Note_on_c, 1, 54, 0
3, 10410, Note_on_c, 1, 55, 64
3, 10440, Note_on_c, 1, 55, 0
3, 10440, Note_on_c, 1, 55, 64
3, 10470, Note_on_c, 1, 55, 0
3, 10470, Note_on_c, 1, 54, 64
3, 10500, Note_on_c, 1, 54, 0
3, 10500, Note_on_c, 1, 52, 64
3, 10560, Note_on_c, 1, 52, 0
3, 10560, End_track
4, 0, Start_track
4, 0, MIDI_port, 0
4, 0, Title_t, "Tenor Sax"
4, 0, Program_c, 6, 66
4, 0, Control_c, 6, 7, 127
4, 0, Control_c, 6, 10, 64
4, 0, Note_on_c, 6, 59, 64
4, 30, Note_on_c, 6, 59, 0
4, 30, Note_on_c, 6, 60, 64
4, 60, Note_on_c, 6, 60, 0
4, 60, Note_on_c, 6, 60, 64
4, 90, Note_on_c, 6, 60, 0
4, 90, Note_on_c, 6, 59, 64
4, 120, Note_on_c, 6, 59, 0
4, 120, Note_on_c, 6, 60, 64
4, 150, Note_on_c, 6, 60, 0
4, 150, Note_on_c, 6, 59, 64
4, 180, Note_on_c, 6, 59, 0
4, 180, Note_on_c, 6, 60, 64
4, 191, Note_on_c, 6, 60, 0
4, 210, Note_on_c, 6, 59, 64
4, 240, Note_on_c, 6, 59, 0
4, 240, Note_on_c, 6, 60, 64
4, 270, Note_on_c, 6, 60, 0
4, 270, Note_on_c, 6, 60, 64
4, 300, Note_on_c, 6, 60, 0
4, 300, Note_on_c, 6, 59, 64
4, 330, Note_on_c, 6, 59, 0
4, 330, Note_on_c, 6, 60, 64
4, 360, Note_on_c, 6, 60, 0
4, 360, Note_on_c, 6, 59, 64
4, 390, Note_on_c, 6, 59, 0
4, 390, Note_on_c, 6, 60, 64
4, 401, Note_on_c, 6, 60, 0
4, 420, Note_on_c, 6, 62, 64
4, 480, Note_on_c, 6, 62, 0
4, 480, Note_on_c, 6, 66, 64
4, 540, Note_on_c, 6, 66, 0
4, 540, Note_on_c, 6, 62, 64
4, 600, Note_on_c, 6, 62, 0
4, 600, Note_on_c, 6, 60, 64
4, 660, Note_on_c, 6, 60, 0
4, 660, Note_on_c, 6, 59, 64
4, 720, Note_on_c, 6, 59, 0
4, 720, Note_on_c, 6, 60, 64
4, 735, Note_on_c, 6, 60, 0
4, 735, Note_on_c, 6, 59, 64
4, 750, Note_on_c, 6, 59, 0
4, 750, Note_on_c, 6, 57, 64
4, 765, Note_on_c, 6, 57, 0
4, 780, Note_on_c, 6, 59, 64
4, 810, Note_on_c, 6, 59, 0
4, 810, Note_on_c, 6, 60, 64
4, 840, Note_on_c, 6, 60, 0
4, 840, Note_on_c, 6, 60, 64
4, 870, Note_on_c, 6, 60, 0
4, 870, Note_on_c, 6, 59, 64
4, 900, Note_on_c, 6, 59, 0
4, 900, Note_on_c, 6, 60, 64
4, 930, Note_on_c, 6, 60, 0
4, 930, Note_on_c, 6, 59, 64
4, 960, Note_on_c, 6, 59, 0
4, 960, Note_on_c, 6, 60, 64
4, 971, Note_on_c, 6, 60, 0
4, 990, Note_on_c, 6, 59, 64
4, 1020, Note_on_c, 6, 59, 0
4, 1020, Note_on_c, 6, 60, 64
4, 1050, Note_on_c, 6, 60, 0
4, 1050, Note_on_c, 6, 60, 64
4, 1080, Note_on_c, 6, 60, 0
4, 1080, Note_on_c, 6, 59, 64
4, 1110, Note_on_c, 6, 59, 0
4, 1110, Note_on_c, 6, 60, 64
4, 1140, Note_on_c, 6, 60, 0
4, 1140, Note_on_c, 6, 59, 64
4, 1170, Note_on_c, 6, 59, 0
4, 1170, Note_on_c, 6, 60, 64
4, 1181, Note_on_c, 6, 60, 0
4, 1200, Note_on_c, 6, 62, 64
4, 1260, Note_on_c, 6, 62, 0
4, 1260, Note_on_c, 6, 66, 64
4, 1320, Note_on_c, 6, 66, 0
4, 1320, Note_on_c, 6, 62, 64
4, 1380, Note_on_c, 6, 62, 0
4, 1380, Note_on_c, 6, 69, 64
4, 1560, Note_on_c, 6, 69, 0
4, 1560, Note_on_c, 6, 71, 64
4, 1560, Note_on_c, 6, 59, 64
4, 1590, Note_on_c, 6, 59, 0
4, 1590, Note_on_c, 6, 71, 0
4, 1590, Note_on_c, 6, 72, 64
4, 1590, Note_on_c, 6, 60, 64
4, 1620, Note_on_c, 6, 60, 0
4, 1620, Note_on_c, 6, 72, 0
4, 1620, Note_on_c, 6, 72, 64
4, 1620, Note_on_c, 6, 60, 64
4, 1650, Note_on_c, 6, 60, 0
4, 1650, Note_on_c, 6, 72, 0
4, 1650, Note_on_c, 6, 71, 64
4, 1650, Note_on_c, 6, 59, 64
4, 1680, Note_on_c, 6, 59, 0
4, 1680, Note_on_c, 6, 71, 0
4, 1680, Note_on_c, 6, 72, 64
4, 1680, Note_on_c, 6, 60, 64
4, 1710, Note_on_c, 6, 60, 0
4, 1710, Note_on_c, 6, 72, 0
4, 1710, Note_on_c, 6, 71, 64
4, 1710, Note_on_c, 6, 59, 64
4, 1740, Note_on_c, 6, 59, 0
4, 1740, Note_on_c, 6, 71, 0
4, 1740, Note_on_c, 6, 72, 64
4, 1740, Note_on_c, 6, 60, 64
4, 1751, Note_on_c, 6, 60, 0
4, 1751, Note_on_c, 6, 72, 0
4, 1770, Note_on_c, 6, 71, 64
4, 1770, Note_on_c, 6, 59, 64
4, 1800, Note_on_c, 6, 59, 0
4, 1800, Note_on_c, 6, 71, 0
4, 1800, Note_on_c, 6, 72, 64
4, 1800, Note_on_c, 6, 60, 64
4, 1830, Note_on_c, 6, 60, 0
4, 1830, Note_on_c, 6, 72, 0
4, 1830, Note_on_c, 6, 72, 64
4, 1830, Note_on_c, 6, 60, 64
4, 1860, Note_on_c, 6, 60, 0
4, 1860, Note_on_c, 6, 72, 0
4, 1860, Note_on_c, 6, 71, 64
4, 1860, Note_on_c, 6, 59, 64
4, 1890, Note_on_c, 6, 59, 0
4, 1890, Note_on_c, 6, 71, 0
4, 1890, Note_on_c, 6, 72, 64
4, 1890, Note_on_c, 6, 60, 64
4, 1920, Note_on_c, 6, 60, 0
4, 1920, Note_on_c, 6, 72, 0
4, 1920, Note_on_c, 6, 71, 64
4, 1920, Note_on_c, 6, 59, 64
4, 1950, Note_on_c, 6, 59, 0
4, 1950, Note_on_c, 6, 71, 0
4, 1950, Note_on_c, 6, 72, 64
4, 1950, Note_on_c, 6, 60, 64
4, 1961, Note_on_c, 6, 60, 0
4, 1961, Note_on_c, 6, 72, 0
4, 1980, Note_on_c, 6, 74, 64
4, 1980, Note_on_c, 6, 62, 64
4, 2040, Note_on_c, 6, 62, 0
4, 2040, Note_on_c, 6, 74, 0
4, 2040, Note_on_c, 6, 78, 64
4, 2040, Note_on_c, 6, 66, 64
4, 2100, Note_on_c, 6, 66, 0
4, 2100, Note_on_c, 6, 78, 0
4, 2100, Note_on_c, 6, 74, 64
4, 2100, Note_on_c, 6, 62, 64
4, 2160, Note_on_c, 6, 62, 0
4, 2160, Note_on_c, 6, 74, 0
4, 2160, Note_on_c, 6, 72, 64
4, 2160, Note_on_c, 6, 60, 64
4, 2220, Note_on_c, 6, 60, 0
4, 2220, Note_on_c, 6, 72, 0
4, 2220, Note_on_c, 6, 71, 64
4, 2220, Note_on_c, 6, 59, 64
4, 2280, Note_on_c, 6, 59, 0
4, 2280, Note_on_c, 6, 71, 0
4, 2280, Note_on_c, 6, 72, 64
4, 2280, Note_on_c, 6, 60, 64
4, 2295, Note_on_c, 6, 60, 0
4, 2295, Note_on_c, 6, 72, 0
4, 2295, Note_on_c, 6, 71, 64
4, 2295, Note_on_c, 6, 59, 64
4, 2310, Note_on_c, 6, 59, 0
4, 2310, Note_on_c, 6, 71, 0
4, 2310, Note_on_c, 6, 69, 64
4, 2310, Note_on_c, 6, 57, 64
4, 2325, Note_on_c, 6, 57, 0
4, 2325, Note_on_c, 6, 69, 0
4, 2340, Note_on_c, 6, 71, 64
4, 2340, Note_on_c, 6, 59, 64
4, 2370, Note_on_c, 6, 59, 0
4, 2370, Note_on_c, 6, 71, 0
4, 2370, Note_on_c, 6, 72, 64
4, 2370, Note_on_c, 6, 60, 64
4, 2400, Note_on_c, 6, 60, 0
4, 2400, Note_on_c, 6, 72, 0
4, 2400, Note_on_c, 6, 72, 64
4, 2400, Note_on_c, 6, 60, 64
4, 2430, Note_on_c, 6, 60, 0
4, 2430, Note_on_c, 6, 72, 0
4, 2430, Note_on_c, 6, 71, 64
4, 2430, Note_on_c, 6, 59, 64
4, 2460, Note_on_c, 6, 59, 0
4, 2460, Note_on_c, 6, 71, 0
4, 2460, Note_on_c, 6, 72, 64
4, 2460, Note_on_c, 6, 60, 64
4, 2490, Note_on_c, 6, 60, 0
4, 2490, Note_on_c, 6, 72, 0
4, 2490, Note_on_c, 6, 71, 64
4, 2490, Note_on_c, 6, 59, 64
4, 2520, Note_on_c, 6, 59, 0
4, 2520, Note_on_c, 6, 71, 0
4, 2520, Note_on_c, 6, 72, 64
4, 2520, Note_on_c, 6, 60, 64
4, 2531, Note_on_c, 6, 60, 0
4, 2531, Note_on_c, 6, 72, 0
4, 2550, Note_on_c, 6, 71, 64
4, 2550, Note_on_c, 6, 59, 64
4, 2580, Note_on_c, 6, 59, 0
4, 2580, Note_on_c, 6, 71, 0
4, 2580, Note_on_c, 6, 72, 64
4, 2580, Note_on_c, 6, 60, 64
4, 2610, Note_on_c, 6, 60, 0
4, 2610, Note_on_c, 6, 72, 0
4, 2610, Note_on_c, 6, 72, 64
4, 2610, Note_on_c, 6, 60, 64
4, 2640, Note_on_c, 6, 60, 0
4, 2640, Note_on_c, 6, 72, 0
4, 2640, Note_on_c, 6, 71, 64
4, 2640, Note_on_c, 6, 59, 64
4, 2670, Note_on_c, 6, 59, 0
4, 2670, Note_on_c, 6, 71, 0
4, 2670, Note_on_c, 6, 72, 64
4, 2670, Note_on_c, 6, 60, 64
4, 2700, Note_on_c, 6, 60, 0
4, 2700, Note_on_c, 6, 72, 0
4, 2700, Note_on_c, 6, 71, 64
4, 2700, Note_on_c, 6, 59, 64
4, 2730, Note_on_c, 6, 59, 0
4, 2730, Note_on_c, 6, 71, 0
4, 2730, Note_on_c, 6, 72, 64
4, 2730, Note_on_c, 6, 60, 64
4, 2741, Note_on_c, 6, 60, 0
4, 2741, Note_on_c, 6, 72, 0
4, 2760, Note_on_c, 6, 74, 64
4, 2760, Note_on_c, 6, 62, 64
4, 2820, Note_on_c, 6, 62, 0
4, 2820, Note_on_c, 6, 74, 0
4, 2820, Note_on_c, 6, 78, 64
4, 2820, Note_on_c, 6, 66, 64
4, 2880, Note_on_c, 6, 66, 0
4, 2880, Note_on_c, 6, 78, 0
4, 2880, Note_on_c, 6, 74, 64
4, 2880, Note_on_c, 6, 62, 64
4, 2940, Note_on_c, 6, 62, 0
4, 2940, Note_on_c, 6, 74, 0
4, 2940, Note_on_c, 6, 81, 64
4, 2940, Note_on_c, 6, 69, 64
4, 3120, Note_on_c, 6, 69, 0
4, 3120, Note_on_c, 6, 81, 0
4, 3120, Note_on_c, 6, 64, 64
4, 3120, Note_on_c, 6, 57, 64
4, 3150, Note_on_c, 6, 57, 0
4, 3150, Note_on_c, 6, 64, 0
4, 3150, Note_on_c, 6, 62, 64
4, 3150, Note_on_c, 6, 55, 64
4, 3180, Note_on_c, 6, 55, 0
4, 3180, Note_on_c, 6, 62, 0
4, 3180, Note_on_c, 6, 62, 64
4, 3180, Note_on_c, 6, 55, 64
4, 3210, Note_on_c, 6, 55, 0
4, 3210, Note_on_c, 6, 62, 0
4, 3210, Note_on_c, 6, 61, 64
4, 3210, Note_on_c, 6, 54, 64
4, 3240, Note_on_c, 6, 54, 0
4, 3240, Note_on_c, 6, 61, 0
4, 3240, Note_on_c, 6, 62, 64
4, 3240, Note_on_c, 6, 55, 64
4, 3270, Note_on_c, 6, 55, 0
4, 3270, Note_on_c, 6, 62, 0
4, 3270, Note_on_c, 6, 61, 64
4, 3270, Note_on_c, 6, 54, 64
4, 3300, Note_on_c, 6, 54, 0
4, 3300, Note_on_c, 6, 61, 0
4, 3300, Note_on_c, 6, 59, 64
4, 3300, Note_on_c, 6, 52, 64
4, 3330, Note_on_c, 6, 52, 0
4, 3330, Note_on_c, 6, 59, 0
4, 3330, Note_on_c, 6, 64, 64
4, 3330, Note_on_c, 6, 57, 64
4, 3360, Note_on_c, 6, 57, 0
4, 3360, Note_on_c, 6, 64, 0
4, 3360, Note_on_c, 6, 62, 64
4, 3360, Note_on_c, 6, 55, 64
4, 3390, Note_on_c, 6, 55, 0
4, 3390, Note_on_c, 6, 62, 0
4, 3390, Note_on_c, 6, 62, 64
4, 3390, Note_on_c, 6, 55, 64
4, 3420, Note_on_c, 6, 55, 0
4, 3420, Note_on_c, 6, 62, 0
4, 3420, Note_on_c, 6, 61, 64
4, 3420, Note_on_c, 6, 54, 64
4, 3450, Note_on_c, 6, 54, 0
4, 3450, Note_on_c, 6, 61, 0
4, 3450, Note_on_c, 6, 62, 64
4, 3450, Note_on_c, 6, 55, 64
4, 3480, Note_on_c, 6, 55, 0
4, 3480, Note_on_c, 6, 62, 0
4, 3480, Note_on_c, 6, 61, 64
4, 3480, Note_on_c, 6, 54, 64
4, 3510, Note_on_c, 6, 54, 0
4, 3510, Note_on_c, 6, 61, 0
4, 3510, Note_on_c, 6, 59, 64
4, 3510, Note_on_c, 6, 52, 64
4, 3540, Note_on_c, 6, 52, 0
4, 3540, Note_on_c, 6, 59, 0
4, 3540, Note_on_c, 6, 57, 64
4, 3540, Note_on_c, 6, 52, 64
4, 3600, Note_on_c, 6, 52, 0
4, 3600, Note_on_c, 6, 57, 0
4, 3600, Note_on_c, 6, 59, 64
4, 3600, Note_on_c, 6, 54, 64
4, 3660, Note_on_c, 6, 54, 0
4, 3660, Note_on_c, 6, 59, 0
4, 3660, Note_on_c, 6, 64, 64
4, 3660, Note_on_c, 6, 52, 64
4, 3720, Note_on_c, 6, 52, 0
4, 3720, Note_on_c, 6, 64, 0
4, 3720, Note_on_c, 6, 62, 64
4, 3720, Note_on_c, 6, 50, 64
4, 3840, Note_on_c, 6, 50, 0
4, 3840, Note_on_c, 6, 62, 0
4, 3900, Note_on_c, 6, 64, 64
4, 3900, Note_on_c, 6, 57, 64
4, 3930, Note_on_c, 6, 57, 0
4, 3930, Note_on_c, 6, 64, 0
4, 3930, Note_on_c, 6, 62, 64
4, 3930, Note_on_c, 6, 55, 64
4, 3960, Note_on_c, 6, 55, 0
4, 3960, Note_on_c, 6, 62, 0
4, 3960, Note_on_c, 6, 62, 64
4, 3960, Note_on_c, 6, 55, 64
4, 3990, Note_on_c, 6, 55, 0
4, 3990, Note_on_c, 6, 62, 0
4, 3990, Note_on_c, 6, 61, 64
4, 3990, Note_on_c, 6, 54, 64
4, 4020, Note_on_c, 6, 54, 0
4, 4020, Note_on_c, 6, 61, 0
4, 4020, Note_on_c, 6, 62, 64
4, 4020, Note_on_c, 6, 55, 64
4, 4050, Note_on_c, 6, 55, 0
4, 4050, Note_on_c, 6, 62, 0
4, 4050, Note_on_c, 6, 61, 64
4, 4050, Note_on_c, 6, 54, 64
4, 4080, Note_on_c, 6, 54, 0
4, 4080, Note_on_c, 6, 61, 0
4, 4080, Note_on_c, 6, 59, 64
4, 4080, Note_on_c, 6, 52, 64
4, 4110, Note_on_c, 6, 52, 0
4, 4110, Note_on_c, 6, 59, 0
4, 4110, Note_on_c, 6, 64, 64
4, 4110, Note_on_c, 6, 57, 64
4, 4140, Note_on_c, 6, 57, 0
4, 4140, Note_on_c, 6, 64, 0
4, 4140, Note_on_c, 6, 62, 64
4, 4140, Note_on_c, 6, 55, 64
4, 4170, Note_on_c, 6, 55, 0
4, 4170, Note_on_c, 6, 62, 0
4, 4170, Note_on_c, 6, 62, 64
4, 4170, Note_on_c, 6, 55, 64
4, 4200, Note_on_c, 6, 55, 0
4, 4200, Note_on_c, 6, 62, 0
4, 4200, Note_on_c, 6, 61, 64
4, 4200, Note_on_c, 6, 54, 64
4, 4230, Note_on_c, 6, 54, 0
4, 4230, Note_on_c, 6, 61, 0
4, 4230, Note_on_c, 6, 62, 64
4, 4230, Note_on_c, 6, 55, 64
4, 4260, Note_on_c, 6, 55, 0
4, 4260, Note_on_c, 6, 62, 0
4, 4260, Note_on_c, 6, 61, 64
4, 4260, Note_on_c, 6, 54, 64
4, 4290, Note_on_c, 6, 54, 0
4, 4290, Note_on_c, 6, 61, 0
4, 4290, Note_on_c, 6, 59, 64
4, 4290, Note_on_c, 6, 52, 64
4, 4320, Note_on_c, 6, 52, 0
4, 4320, Note_on_c, 6, 59, 0
4, 4320, Note_on_c, 6, 57, 64
4, 4320, Note_on_c, 6, 52, 64
4, 4380, Note_on_c, 6, 52, 0
4, 4380, Note_on_c, 6, 57, 0
4, 4380, Note_on_c, 6, 59, 64
4, 4380, Note_on_c, 6, 54, 64
4, 4440, Note_on_c, 6, 54, 0
4, 4440, Note_on_c, 6, 59, 0
4, 4440, Note_on_c, 6, 57, 64
4, 4440, Note_on_c, 6, 52, 64
4, 4500, Note_on_c, 6, 52, 0
4, 4500, Note_on_c, 6, 57, 0
4, 4500, Note_on_c, 6, 55, 64
4, 4500, Note_on_c, 6, 50, 64
4, 4620, Note_on_c, 6, 50, 0
4, 4620, Note_on_c, 6, 55, 0
4, 5460, Note_on_c, 6, 53, 64
4, 5460, Note_on_c, 6, 53, 64
4, 5640, Note_on_c, 6, 53, 0
4, 5640, Note_on_c, 6, 53, 0
4, 5640, Note_on_c, 6, 60, 64
4, 5640, Note_on_c, 6, 60, 64
4, 5820, Note_on_c, 6, 60, 0
4, 5820, Note_on_c, 6, 60, 0
4, 5820, Note_on_c, 6, 67, 64
4, 5820, Note_on_c, 6, 67, 64
4, 6000, Note_on_c, 6, 67, 0
4, 6000, Note_on_c, 6, 67, 0
4, 6000, Note_on_c, 6, 74, 64
4, 6000, Note_on_c, 6, 74, 64
4, 6180, Note_on_c, 6, 74, 0
4, 6180, Note_on_c, 6, 74, 0
4, 6180, Note_on_c, 6, 67, 64
4, 6180, Note_on_c, 6, 67, 64
4, 6210, Note_on_c, 6, 67, 0
4, 6210, Note_on_c, 6, 67, 0
4, 6210, Note_on_c, 6, 69, 64
4, 6210, Note_on_c, 6, 69, 64
4, 6240, Note_on_c, 6, 69, 0
4, 6240, Note_on_c, 6, 69, 0
4, 6240, Note_on_c, 6, 71, 64
4, 6240, Note_on_c, 6, 71, 64
4, 6270, Note_on_c, 6, 71, 0
4, 6270, Note_on_c, 6, 71, 0
4, 6270, Note_on_c, 6, 69, 64
4, 6270, Note_on_c, 6, 69, 64
4, 6300, Note_on_c, 6, 69, 0
4, 6300, Note_on_c, 6, 69, 0
4, 6300, Note_on_c, 6, 67, 64
4, 6300, Note_on_c, 6, 67, 64
4, 6330, Note_on_c, 6, 67, 0
4, 6330, Note_on_c, 6, 67, 0
4, 6330, Note_on_c, 6, 66, 64
4, 6330, Note_on_c, 6, 66, 64
4, 6360, Note_on_c, 6, 66, 0
4, 6360, Note_on_c, 6, 66, 0
4, 6360, Note_on_c, 6, 67, 64
4, 6360, Note_on_c, 6, 67, 64
4, 6390, Note_on_c, 6, 67, 0
4, 6390, Note_on_c, 6, 67, 0
4, 6390, Note_on_c, 6, 66, 64
4, 6390, Note_on_c, 6, 66, 64
4, 6420, Note_on_c, 6, 66, 0
4, 6420, Note_on_c, 6, 66, 0
4, 6420, Note_on_c, 6, 64, 64
4, 6420, Note_on_c, 6, 64, 64
4, 6450, Note_on_c, 6, 64, 0
4, 6450, Note_on_c, 6, 64, 0
4, 6450, Note_on_c, 6, 62, 64
4, 6450, Note_on_c, 6, 62, 64
4, 6480, Note_on_c, 6, 62, 0
4, 6480, Note_on_c, 6, 62, 0
4, 6480, Note_on_c, 6, 61, 64
4, 6480, Note_on_c, 6, 61, 64
4, 6510, Note_on_c, 6, 61, 0
4, 6510, Note_on_c, 6, 61, 0
4, 6510, Note_on_c, 6, 62, 64
4, 6510, Note_on_c, 6, 62, 64
4, 6540, Note_on_c, 6, 62, 0
4, 6540, Note_on_c, 6, 62, 0
4, 6540, Note_on_c, 6, 61, 64
4, 6540, Note_on_c, 6, 61, 64
4, 6570, Note_on_c, 6, 61, 0
4, 6570, Note_on_c, 6, 61, 0
4, 6570, Note_on_c, 6, 59, 64
4, 6570, Note_on_c, 6, 59, 64
4, 6600, Note_on_c, 6, 59, 0
4, 6600, Note_on_c, 6, 59, 0
4, 6600, Note_on_c, 6, 57, 64
4, 6600, Note_on_c, 6, 57, 64
4, 6630, Note_on_c, 6, 57, 0
4, 6630, Note_on_c, 6, 57, 0
4, 6630, Note_on_c, 6, 55, 64
4, 6630, Note_on_c, 6, 55, 64
4, 6660, Note_on_c, 6, 55, 0
4, 6660, Note_on_c, 6, 55, 0
4, 6660, Note_on_c, 6, 54, 64
4, 6660, Note_on_c, 6, 54, 64
4, 6690, Note_on_c, 6, 55, 64
4, 6690, Note_on_c, 6, 55, 64
4, 6705, Note_on_c, 6, 55, 0
4, 6705, Note_on_c, 6, 55, 0
4, 6705, Note_on_c, 6, 54, 64
4, 6705, Note_on_c, 6, 54, 64
4, 6720, Note_on_c, 6, 54, 0
4, 6720, Note_on_c, 6, 54, 0
4, 6720, Note_on_c, 6, 54, 0
4, 6720, Note_on_c, 6, 54, 0
4, 6720, Note_on_c, 6, 52, 64
4, 6720, Note_on_c, 6, 52, 64
4, 6780, Note_on_c, 6, 52, 0
4, 6780, Note_on_c, 6, 52, 0
4, 6780, Note_on_c, 6, 57, 64
4, 6780, Note_on_c, 6, 57, 64
4, 6840, Note_on_c, 6, 57, 0
4, 6840, Note_on_c, 6, 57, 0
4, 6840, Note_on_c, 6, 59, 64
4, 6840, Note_on_c, 6, 59, 64
4, 6900, Note_on_c, 6, 59, 0
4, 6900, Note_on_c, 6, 59, 0
4, 6900, Note_on_c, 6, 60, 64
4, 6900, Note_on_c, 6, 60, 64
4, 6960, Note_on_c, 6, 60, 0
4, 6960, Note_on_c, 6, 60, 0
4, 6960, Note_on_c, 6, 53, 64
4, 6960, Note_on_c, 6, 53, 64
4, 7140, Note_on_c, 6, 53, 0
4, 7140, Note_on_c, 6, 53, 0
4, 7140, Note_on_c, 6, 60, 64
4, 7140, Note_on_c, 6, 60, 64
4, 7320, Note_on_c, 6, 60, 0
4, 7320, Note_on_c, 6, 60, 0
4, 7320, Note_on_c, 6, 67, 64
4, 7320, Note_on_c, 6, 67, 64
4, 7500, Note_on_c, 6, 67, 0
4, 7500, Note_on_c, 6, 67, 0
4, 7500, Note_on_c, 6, 74, 64
4, 7500, Note_on_c, 6, 74, 64
4, 7680, Note_on_c, 6, 74, 0
4, 7680, Note_on_c, 6, 74, 0
4, 7680, Note_on_c, 6, 59, 64
4, 7719, Note_on_c, 6, 59, 0
4, 7719, Note_on_c, 6, 59, 64
4, 7740, Note_on_c, 6, 59, 0
4, 7740, Note_on_c, 6, 59, 64
4, 7760, Note_on_c, 6, 59, 0
4, 7760, Note_on_c, 6, 59, 64
4, 7779, Note_on_c, 6, 59, 0
4, 7779, Note_on_c, 6, 61, 64
4, 7800, Note_on_c, 6, 61, 0
4, 7800, Note_on_c, 6, 62, 64
4, 7839, Note_on_c, 6, 62, 0
4, 7839, Note_on_c, 6, 62, 64
4, 7860, Note_on_c, 6, 62, 0
4, 7860, Note_on_c, 6, 62, 64
4, 7880, Note_on_c, 6, 62, 0
4, 7880, Note_on_c, 6, 61, 64
4, 7899, Note_on_c, 6, 61, 0
4, 7899, Note_on_c, 6, 59, 64
4, 7920, Note_on_c, 6, 59, 0
4, 7920, Note_on_c, 6, 61, 64
4, 7959, Note_on_c, 6, 61, 0
4, 7959, Note_on_c, 6, 59, 64
4, 8000, Note_on_c, 6, 59, 0
4, 8040, Note_on_c, 6, 59, 64
4, 8079, Note_on_c, 6, 59, 0
4, 8079, Note_on_c, 6, 59, 64
4, 8100, Note_on_c, 6, 59, 0
4, 8100, Note_on_c, 6, 59, 64
4, 8120, Note_on_c, 6, 59, 0
4, 8120, Note_on_c, 6, 59, 64
4, 8139, Note_on_c, 6, 59, 0
4, 8139, Note_on_c, 6, 61, 64
4, 8160, Note_on_c, 6, 61, 0
4, 8160, Note_on_c, 6, 62, 64
4, 8199, Note_on_c, 6, 62, 0
4, 8199, Note_on_c, 6, 62, 64
4, 8220, Note_on_c, 6, 62, 0
4, 8220, Note_on_c, 6, 62, 64
4, 8240, Note_on_c, 6, 62, 0
4, 8240, Note_on_c, 6, 61, 64
4, 8259, Note_on_c, 6, 61, 0
4, 8259, Note_on_c, 6, 59, 64
4, 8280, Note_on_c, 6, 59, 0
4, 8280, Note_on_c, 6, 61, 64
4, 8319, Note_on_c, 6, 61, 0
4, 8400, Note_on_c, 6, 62, 64
4, 8439, Note_on_c, 6, 62, 0
4, 8439, Note_on_c, 6, 62, 64
4, 8460, Note_on_c, 6, 62, 0
4, 8460, Note_on_c, 6, 62, 64
4, 8480, Note_on_c, 6, 62, 0
4, 8480, Note_on_c, 6, 62, 64
4, 8499, Note_on_c, 6, 62, 0
4, 8499, Note_on_c, 6, 64, 64
4, 8520, Note_on_c, 6, 64, 0
4, 8520, Note_on_c, 6, 66, 64
4, 8559, Note_on_c, 6, 66, 0
4, 8559, Note_on_c, 6, 66, 64
4, 8580, Note_on_c, 6, 66, 0
4, 8580, Note_on_c, 6, 66, 64
4, 8600, Note_on_c, 6, 66, 0
4, 8600, Note_on_c, 6, 64, 64
4, 8619, Note_on_c, 6, 64, 0
4, 8619, Note_on_c, 6, 62, 64
4, 8640, Note_on_c, 6, 62, 0
4, 8640, Note_on_c, 6, 64, 64
4, 8679, Note_on_c, 6, 64, 0
4, 8679, Note_on_c, 6, 62, 64
4, 8720, Note_on_c, 6, 62, 0
4, 8760, Note_on_c, 6, 62, 64
4, 8799, Note_on_c, 6, 62, 0
4, 8799, Note_on_c, 6, 62, 64
4, 8820, Note_on_c, 6, 62, 0
4, 8820, Note_on_c, 6, 62, 64
4, 8840, Note_on_c, 6, 62, 0
4, 8840, Note_on_c, 6, 62, 64
4, 8859, Note_on_c, 6, 62, 0
4, 8859, Note_on_c, 6, 64, 64
4, 8880, Note_on_c, 6, 64, 0
4, 8880, Note_on_c, 6, 66, 64
4, 8919, Note_on_c, 6, 66, 0
4, 8919, Note_on_c, 6, 66, 64
4, 8940, Note_on_c, 6, 66, 0
4, 8940, Note_on_c, 6, 66, 64
4, 8960, Note_on_c, 6, 66, 0
4, 8960, Note_on_c, 6, 64, 64
4, 8979, Note_on_c, 6, 64, 0
4, 8979, Note_on_c, 6, 62, 64
4, 9000, Note_on_c, 6, 62, 0
4, 9000, Note_on_c, 6, 64, 64
4, 9039, Note_on_c, 6, 64, 0
4, 9120, Note_on_c, 6, 74, 64
4, 9120, Note_on_c, 6, 62, 64
4, 9150, Note_on_c, 6, 62, 0
4, 9150, Note_on_c, 6, 74, 0
4, 9150, Note_on_c, 6, 76, 64
4, 9150, Note_on_c, 6, 64, 64
4, 9180, Note_on_c, 6, 64, 0
4, 9180, Note_on_c, 6, 76, 0
4, 9180, Note_on_c, 6, 78, 64
4, 9180, Note_on_c, 6, 66, 64
4, 9210, Note_on_c, 6, 66, 0
4, 9210, Note_on_c, 6, 78, 0
4, 9210, Note_on_c, 6, 78, 64
4, 9210, Note_on_c, 6, 66, 64
4, 9240, Note_on_c, 6, 66, 0
4, 9240, Note_on_c, 6, 78, 0
4, 9240, Note_on_c, 6, 76, 64
4, 9240, Note_on_c, 6, 64, 64
4, 9270, Note_on_c, 6, 64, 0
4, 9270, Note_on_c, 6, 76, 0
4, 9270, Note_on_c, 6, 74, 64
4, 9270, Note_on_c, 6, 62, 64
4, 9300, Note_on_c, 6, 62, 0
4, 9300, Note_on_c, 6, 74, 0
4, 9300, Note_on_c, 6, 74, 64
4, 9300, Note_on_c, 6, 62, 64
4, 9330, Note_on_c, 6, 62, 0
4, 9330, Note_on_c, 6, 74, 0
4, 9330, Note_on_c, 6, 76, 64
4, 9330, Note_on_c, 6, 64, 64
4, 9360, Note_on_c, 6, 64, 0
4, 9360, Note_on_c, 6, 76, 0
4, 9360, Note_on_c, 6, 78, 64
4, 9360, Note_on_c, 6, 66, 64
4, 9390, Note_on_c, 6, 66, 0
4, 9390, Note_on_c, 6, 78, 0
4, 9390, Note_on_c, 6, 78, 64
4, 9390, Note_on_c, 6, 66, 64
4, 9420, Note_on_c, 6, 66, 0
4, 9420, Note_on_c, 6, 78, 0
4, 9420, Note_on_c, 6, 76, 64
4, 9420, Note_on_c, 6, 64, 64
4, 9450, Note_on_c, 6, 64, 0
4, 9450, Note_on_c, 6, 76, 0
4, 9450, Note_on_c, 6, 74, 64
4, 9450, Note_on_c, 6, 62, 64
4, 9480, Note_on_c, 6, 62, 0
4, 9480, Note_on_c, 6, 74, 0
4, 9480, Note_on_c, 6, 73, 64
4, 9480, Note_on_c, 6, 61, 64
4, 9510, Note_on_c, 6, 61, 0
4, 9510, Note_on_c, 6, 73, 0
4, 9510, Note_on_c, 6, 72, 64
4, 9510, Note_on_c, 6, 60, 64
4, 9540, Note_on_c, 6, 60, 0
4, 9540, Note_on_c, 6, 72, 0
4, 9540, Note_on_c, 6, 73, 64
4, 9540, Note_on_c, 6, 61, 64
4, 9570, Note_on_c, 6, 61, 0
4, 9570, Note_on_c, 6, 73, 0
4, 9570, Note_on_c, 6, 72, 64
4, 9570, Note_on_c, 6, 60, 64
4, 9600, Note_on_c, 6, 60, 0
4, 9600, Note_on_c, 6, 72, 0
4, 9600, Note_on_c, 6, 70, 64
4, 9600, Note_on_c, 6, 58, 64
4, 9630, Note_on_c, 6, 58, 0
4, 9630, Note_on_c, 6, 70, 0
4, 9630, Note_on_c, 6, 70, 64
4, 9630, Note_on_c, 6, 58, 64
4, 9660, Note_on_c, 6, 58, 0
4, 9660, Note_on_c, 6, 70, 0
4, 9660, Note_on_c, 6, 72, 64
4, 9660, Note_on_c, 6, 60, 64
4, 9690, Note_on_c, 6, 60, 0
4, 9690, Note_on_c, 6, 72, 0
4, 9690, Note_on_c, 6, 73, 64
4, 9690, Note_on_c, 6, 61, 64
4, 9720, Note_on_c, 6, 61, 0
4, 9720, Note_on_c, 6, 73, 0
4, 9720, Note_on_c, 6, 73, 64
4, 9720, Note_on_c, 6, 61, 64
4, 9750, Note_on_c, 6, 61, 0
4, 9750, Note_on_c, 6, 73, 0
4, 9750, Note_on_c, 6, 72, 64
4, 9750, Note_on_c, 6, 60, 64
4, 9780, Note_on_c, 6, 60, 0
4, 9780, Note_on_c, 6, 72, 0
4, 9780, Note_on_c, 6, 70, 64
4, 9780, Note_on_c, 6, 58, 64
4, 9840, Note_on_c, 6, 58, 0
4, 9840, Note_on_c, 6, 70, 0
4, 9840, Note_on_c, 6, 75, 64
4, 9840, Note_on_c, 6, 63, 64
4, 9870, Note_on_c, 6, 63, 0
4, 9870, Note_on_c, 6, 75, 0
4, 9870, Note_on_c, 6, 77, 64
4, 9870, Note_on_c, 6, 65, 64
4, 9900, Note_on_c, 6, 65, 0
4, 9900, Note_on_c, 6, 77, 0
4, 9900, Note_on_c, 6, 79, 64
4, 9900, Note_on_c, 6, 67, 64
4, 9930, Note_on_c, 6, 67, 0
4, 9930, Note_on_c, 6, 79, 0
4, 9930, Note_on_c, 6, 79, 64
4, 9930, Note_on_c, 6, 67, 64
4, 9960, Note_on_c, 6, 67, 0
4, 9960, Note_on_c, 6, 79, 0
4, 9960, Note_on_c, 6, 77, 64
4, 9960, Note_on_c, 6, 65, 64
4, 9990, Note_on_c, 6, 65, 0
4, 9990, Note_on_c, 6, 77, 0
4, 9990, Note_on_c, 6, 75, 64
4, 9990, Note_on_c, 6, 63, 64
4, 10020, Note_on_c, 6, 63, 0
4, 10020, Note_on_c, 6, 75, 0
4, 10020, Note_on_c, 6, 75, 64
4, 10020, Note_on_c, 6, 63, 64
4, 10050, Note_on_c, 6, 63, 0
4, 10050, Note_on_c, 6, 75, 0
4, 10050, Note_on_c, 6, 77, 64
4, 10050, Note_on_c, 6, 65, 64
4, 10080, Note_on_c, 6, 65, 0
4, 10080, Note_on_c, 6, 77, 0
4, 10080, Note_on_c, 6, 79, 64
4, 10080, Note_on_c, 6, 67, 64
4, 10110, Note_on_c, 6, 67, 0
4, 10110, Note_on_c, 6, 79, 0
4, 10110, Note_on_c, 6, 79, 64
4, 10110, Note_on_c, 6, 67, 64
4, 10140, Note_on_c, 6, 67, 0
4, 10140, Note_on_c, 6, 79, 0
4, 10140, Note_on_c, 6, 77, 64
4, 10140, Note_on_c, 6, 65, 64
4, 10170, Note_on_c, 6, 65, 0
4, 10170, Note_on_c, 6, 77, 0
4, 10170, Note_on_c, 6, 75, 64
4, 10170, Note_on_c, 6, 63, 64
4, 10200, Note_on_c, 6, 63, 0
4, 10200, Note_on_c, 6, 75, 0
4, 10200, Note_on_c, 6, 74, 64
4, 10200, Note_on_c, 6, 62, 64
4, 10230, Note_on_c, 6, 62, 0
4, 10230, Note_on_c, 6, 74, 0
4, 10230, Note_on_c, 6, 73, 64
4, 10230, Note_on_c, 6, 61, 64
4, 10260, Note_on_c, 6, 61, 0
4, 10260, Note_on_c, 6, 73, 0
4, 10260, Note_on_c, 6, 74, 64
4, 10260, Note_on_c, 6, 62, 64
4, 10290, Note_on_c, 6, 62, 0
4, 10290, Note_on_c, 6, 74, 0
4, 10290, Note_on_c, 6, 73, 64
4, 10290, Note_on_c, 6, 61, 64
4, 10320, Note_on_c, 6, 61, 0
4, 10320, Note_on_c, 6, 73, 0
4, 10320, Note_on_c, 6, 71, 64
4, 10320, Note_on_c, 6, 59, 64
4, 10350, Note_on_c, 6, 59, 0
4, 10350, Note_on_c, 6, 71, 0
4, 10350, Note_on_c, 6, 71, 64
4, 10350, Note_on_c, 6, 59, 64
4, 10380, Note_on_c, 6, 59, 0
4, 10380, Note_on_c, 6, 71, 0
4, 10380, Note_on_c, 6, 73, 64
4, 10380, Note_on_c, 6, 61, 64
4, 10410, Note_on_c, 6, 61, 0
4, 10410, Note_on_c, 6, 73, 0
4, 10410, Note_on_c, 6, 74, 64
4, 10410, Note_on_c, 6, 62, 64
4, 10440, Note_on_c, 6, 62, 0
4, 10440, Note_on_c, 6, 74, 0
4, 10440, Note_on_c, 6, 74, 64
4, 10440, Note_on_c, 6, 62, 64
4, 10470, Note_on_c, 6, 62, 0
4, 10470, Note_on_c, 6, 74, 0
4, 10470, Note_on_c, 6, 73, 64
4, 10470, Note_on_c, 6, 61, 64
4, 10500, Note_on_c, 6, 61, 0
4, 10500, Note_on_c, 6, 73, 0
4, 10500, Note_on_c, 6, 71, 64
4, 10500, Note_on_c, 6, 59, 64
4, 10560, Note_on_c, 6, 59, 0
4, 10560, Note_on_c, 6, 71, 0
4, 10560, Note_on_c, 6, 71, 64
4, 10560, Note_on_c, 6, 71, 64
4, 10620, Note_on_c, 6, 71, 0
4, 10620, Note_on_c, 6, 71, 0
4, 10620, Note_on_c, 6, 69, 64
4, 10620, Note_on_c, 6, 69, 64
4, 10650, Note_on_c, 6, 69, 0
4, 10650, Note_on_c, 6, 69, 0
4, 10650, Note_on_c, 6, 67, 64
4, 10650, Note_on_c, 6, 67, 64
4, 10710, Note_on_c, 6, 67, 0
4, 10710, Note_on_c, 6, 67, 0
4, 10710, Note_on_c, 6, 59, 64
4, 10710, Note_on_c, 6, 59, 64
4, 10745, Note_on_c, 6, 59, 0
4, 10745, Note_on_c, 6, 59, 0
4, 10800, Note_on_c, 6, 57, 64
4, 10800, Note_on_c, 6, 57, 64
4, 11280, Note_on_c, 6, 57, 0
4, 11280, Note_on_c, 6, 57, 0
4, 11280, Note_on_c, 6, 71, 64
4, 11280, Note_on_c, 6, 71, 64
4, 11340, Note_on_c, 6, 71, 0
4, 11340, Note_on_c, 6, 71, 0
4, 11340, Note_on_c, 6, 69, 64
4, 11340, Note_on_c, 6, 69, 64
4, 11370, Note_on_c, 6, 69, 0
4, 11370, Note_on_c, 6, 69, 0
4, 11370, Note_on_c, 6, 67, 64
4, 11370, Note_on_c, 6, 67, 64
4, 11430, Note_on_c, 6, 67, 0
4, 11430, Note_on_c, 6, 67, 0
4, 11430, Note_on_c, 6, 59, 64
4, 11430, Note_on_c, 6, 59, 64
4, 11465, Note_on_c, 6, 59, 0
4, 11465, Note_on_c, 6, 59, 0
4, 11520, Note_on_c, 6, 57, 64
4, 11520, Note_on_c, 6, 57, 64
4, 11640, Note_on_c, 6, 57, 0
4, 11640, Note_on_c, 6, 57, 0
4, 11640, Note_on_c, 6, 62, 64
4, 11640, Note_on_c, 6, 62, 64
4, 11700, Note_on_c, 6, 62, 0
4, 11700, Note_on_c, 6, 62, 0
4, 11700, Note_on_c, 6, 60, 64
4, 11700, Note_on_c, 6, 60, 64
4, 11724, Note_on_c, 6, 60, 0
4, 11724, Note_on_c, 6, 60, 0
4, 11790, Note_on_c, 6, 55, 64
4, 11790, Note_on_c, 6, 55, 64
4, 11850, Note_on_c, 6, 55, 0
4, 11850, Note_on_c, 6, 55, 0
4, 11880, Note_on_c, 6, 67, 64
4, 11880, Note_on_c, 6, 67, 64
4, 12000, Note_on_c, 6, 67, 0
4, 12000, Note_on_c, 6, 67, 0
4, 12000, Note_on_c, 6, 71, 64
4, 12000, Note_on_c, 6, 71, 64
4, 12060, Note_on_c, 6, 71, 0
4, 12060, Note_on_c, 6, 71, 0
4, 12060, Note_on_c, 6, 69, 64
4, 12060, Note_on_c, 6, 69, 64
4, 12090, Note_on_c, 6, 69, 0
4, 12090, Note_on_c, 6, 69, 0
4, 12090, Note_on_c, 6, 67, 64
4, 12090, Note_on_c, 6, 67, 64
4, 12150, Note_on_c, 6, 67, 0
4, 12150, Note_on_c, 6, 67, 0
4, 12150, Note_on_c, 6, 59, 64
4, 12150, Note_on_c, 6, 59, 64
4, 12185, Note_on_c, 6, 59, 0
4, 12185, Note_on_c, 6, 59, 0
4, 12240, Note_on_c, 6, 57, 64
4, 12240, Note_on_c, 6, 57, 64
4, 12360, Note_on_c, 6, 57, 0
4, 12360, Note_on_c, 6, 57, 0
4, 12360, Note_on_c, 6, 62, 64
4, 12360, Note_on_c, 6, 62, 64
4, 12420, Note_on_c, 6, 62, 0
4, 12420, Note_on_c, 6, 62, 0
4, 12420, Note_on_c, 6, 60, 64
4, 12420, Note_on_c, 6, 60, 64
4, 12444, Note_on_c, 6, 60, 0
4, 12444, Note_on_c, 6, 60, 0
4, 12510, Note_on_c, 6, 53, 64
4, 12510, Note_on_c, 6, 53, 64
4, 12600, Note_on_c, 6, 53, 0
4, 12600, Note_on_c, 6, 53, 0
4, 12600, Note_on_c, 6, 53, 64
4, 12600, Note_on_c, 6, 53, 64
4, 12720, Note_on_c, 6, 53, 0
4, 12720, Note_on_c, 6, 53, 0
4, 12720, Note_on_c, 6, 71, 64
4, 12720, Note_on_c, 6, 71, 64
4, 12780, Note_on_c, 6, 71, 0
4, 12780, Note_on_c, 6, 71, 0
4, 12780, Note_on_c, 6, 69, 64
4, 12780, Note_on_c, 6, 69, 64
4, 12810, Note_on_c, 6, 69, 0
4, 12810, Note_on_c, 6, 69, 0
4, 12810, Note_on_c, 6, 67, 64
4, 12810, Note_on_c, 6, 67, 64
4, 12870, Note_on_c, 6, 67, 0
4, 12870, Note_on_c, 6, 67, 0
4, 12870, Note_on_c, 6, 59, 64
4, 12870, Note_on_c, 6, 59, 64
4, 12905, Note_on_c, 6, 59, 0
4, 12905, Note_on_c, 6, 59, 0
4, 12960, Note_on_c, 6, 57, 64
4, 12960, Note_on_c, 6, 57, 64
4, 13080, Note_on_c, 6, 57, 0
4, 13080, Note_on_c, 6, 57, 0
4, 13080, Note_on_c, 6, 62, 64
4, 13080, Note_on_c, 6, 62, 64
4, 13140, Note_on_c, 6, 62, 0
4, 13140, Note_on_c, 6, 62, 0
4, 13140, Note_on_c, 6, 60, 64
4, 13140, Note_on_c, 6, 60, 64
4, 13164, Note_on_c, 6, 60, 0
4, 13164, Note_on_c, 6, 60, 0
4, 13230, Note_on_c, 6, 55, 64
4, 13230, Note_on_c, 6, 55, 64
4, 13290, Note_on_c, 6, 55, 0
4, 13290, Note_on_c, 6, 55, 0
4, 13320, Note_on_c, 6, 67, 64
4, 13320, Note_on_c, 6, 67, 64
4, 13440, Note_on_c, 6, 67, 0
4, 13440, Note_on_c, 6, 67, 0
4, 13440, Note_on_c, 6, 71, 64
4, 13440, Note_on_c, 6, 71, 64
4, 13500, Note_on_c, 6, 71, 0
4, 13500, Note_on_c, 6, 71, 0
4, 13500, Note_on_c, 6, 69, 64
4, 13500, Note_on_c, 6, 69, 64
4, 13530, Note_on_c, 6, 69, 0
4, 13530, Note_on_c, 6, 69, 0
4, 13530, Note_on_c, 6, 67, 64
4, 13530, Note_on_c, 6, 67, 64
4, 13590, Note_on_c, 6, 67, 0
4, 13590, Note_on_c, 6, 67, 0
4, 13590, Note_on_c, 6, 59, 64
4, 13590, Note_on_c, 6, 59, 64
4, 13625, Note_on_c, 6, 59, 0
4, 13625, Note_on_c, 6, 59, 0
4, 13680, Note_on_c, 6, 57, 64
4, 13680, Note_on_c, 6, 57, 64
4, 13800, Note_on_c, 6, 57, 0
4, 13800, Note_on_c, 6, 57, 0
4, 13800, Note_on_c, 6, 62, 64
4, 13800, Note_on_c, 6, 62, 64
4, 13860, Note_on_c, 6, 62, 0
4, 13860, Note_on_c, 6, 62, 0
4, 13860, Note_on_c, 6, 60, 64
4, 13860, Note_on_c, 6, 60, 64
4, 13884, Note_on_c, 6, 60, 0
4, 13884, Note_on_c, 6, 60, 0
4, 13950, Note_on_c, 6, 53, 64
4, 13950, Note_on_c, 6, 53, 64
4, 14160, Note_on_c, 6, 53, 0
4, 14160, Note_on_c, 6, 53, 0
4, 14160, Note_on_c, 6, 64, 64
4, 14160, Note_on_c, 6, 59, 64
4, 14220, Note_on_c, 6, 59, 0
4, 14220, Note_on_c, 6, 64, 0
4, 14220, Note_on_c, 6, 65, 64
4, 14220, Note_on_c, 6, 60, 64
4, 14244, Note_on_c, 6, 60, 0
4, 14244, Note_on_c, 6, 65, 0
4, 14280, Note_on_c, 6, 65, 64
4, 14280, Note_on_c, 6, 60, 64
4, 14304, Note_on_c, 6, 60, 0
4, 14304, Note_on_c, 6, 65, 0
4, 14340, Note_on_c, 6, 64, 64
4, 14340, Note_on_c, 6, 59, 64
4, 14370, Note_on_c, 6, 59, 0
4, 14370, Note_on_c, 6, 64, 0
4, 14370, Note_on_c, 6, 65, 64
4, 14370, Note_on_c, 6, 60, 64
4, 14400, Note_on_c, 6, 60, 0
4, 14400, Note_on_c, 6, 65, 0
4, 14400, Note_on_c, 6, 64, 64
4, 14400, Note_on_c, 6, 59, 64
4, 14430, Note_on_c, 6, 59, 0
4, 14430, Note_on_c, 6, 64, 0
4, 14430, Note_on_c, 6, 65, 64
4, 14430, Note_on_c, 6, 60, 64
4, 14460, Note_on_c, 6, 60, 0
4, 14460, Note_on_c, 6, 65, 0
4, 14460, Note_on_c, 6, 64, 64
4, 14460, Note_on_c, 6, 59, 64
4, 14880, Note_on_c, 6, 59, 0
4, 14880, Note_on_c, 6, 64, 0
4, 14880, End_track
5, 0, Start_track
5, 0, MIDI_port, 0
5, 0, Title_t, "Trumpet"
5, 0, Program_c, 15, 56
5, 0, Control_c, 15, 7, 127
5, 0, Control_c, 15, 10, 64
5, 0, Note_on_c, 15, 66, 64
5, 30, Note_on_c, 15, 66, 0
5, 30, Note_on_c, 15, 67, 64
5, 60, Note_on_c, 15, 67, 0
5, 60, Note_on_c, 15, 67, 64
5, 90, Note_on_c, 15, 67, 0
5, 90, Note_on_c, 15, 66, 64
5, 120, Note_on_c, 15, 66, 0
5, 120, Note_on_c, 15, 67, 64
5, 150, Note_on_c, 15, 67, 0
5, 150, Note_on_c, 15, 66, 64
5, 180, Note_on_c, 15, 66, 0
5, 180, Note_on_c, 15, 67, 64
5, 191, Note_on_c, 15, 67, 0
5, 210, Note_on_c, 15, 66, 64
5, 240, Note_on_c, 15, 66, 0
5, 240, Note_on_c, 15, 67, 64
5, 270, Note_on_c, 15, 67, 0
5, 270, Note_on_c, 15, 67, 64
5, 300, Note_on_c, 15, 67, 0
5, 300, Note_on_c, 15, 66, 64
5, 330, Note_on_c, 15, 66, 0
5, 330, Note_on_c, 15, 67, 64
5, 360, Note_on_c, 15, 67, 0
5, 360, Note_on_c, 15, 66, 64
5, 390, Note_on_c, 15, 66, 0
5, 390, Note_on_c, 15, 67, 64
5, 401, Note_on_c, 15, 67, 0
5, 420, Note_on_c, 15, 69, 64
5, 480, Note_on_c, 15, 69, 0
5, 480, Note_on_c, 15, 73, 64
5, 540, Note_on_c, 15, 73, 0
5, 540, Note_on_c, 15, 69, 64
5, 600, Note_on_c, 15, 69, 0
5, 600, Note_on_c, 15, 67, 64
5, 660, Note_on_c, 15, 67, 0
5, 660, Note_on_c, 15, 66, 64
5, 720, Note_on_c, 15, 66, 0
5, 720, Note_on_c, 15, 67, 64
5, 735, Note_on_c, 15, 67, 0
5, 735, Note_on_c, 15, 66, 64
5, 750, Note_on_c, 15, 66, 0
5, 750, Note_on_c, 15, 64, 64
5, 765, Note_on_c, 15, 64, 0
5, 780, Note_on_c, 15, 66, 64
5, 810, Note_on_c, 15, 66, 0
5, 810, Note_on_c, 15, 67, 64
5, 840, Note_on_c, 15, 67, 0
5, 840, Note_on_c, 15, 67, 64
5, 870, Note_on_c, 15, 67, 0
5, 870, Note_on_c, 15, 66, 64
5, 900, Note_on_c, 15, 66, 0
5, 900, Note_on_c, 15, 67, 64
5, 930, Note_on_c, 15, 67, 0
5, 930, Note_on_c, 15, 66, 64
5, 960, Note_on_c, 15, 66, 0
5, 960, Note_on_c, 15, 67, 64
5, 971, Note_on_c, 15, 67, 0
5, 990, Note_on_c, 15, 66, 64
5, 1020, Note_on_c, 15, 66, 0
5, 1020, Note_on_c, 15, 67, 64
5, 1050, Note_on_c, 15, 67, 0
5, 1050, Note_on_c, 15, 67, 64
5, 1080, Note_on_c, 15, 67, 0
5, 1080, Note_on_c, 15, 66, 64
5, 1110, Note_on_c, 15, 66, 0
5, 1110, Note_on_c, 15, 67, 64
5, 1140, Note_on_c, 15, 67, 0
5, 1140, Note_on_c, 15, 66, 64
5, 1170, Note_on_c, 15, 66, 0
5, 1170, Note_on_c, 15, 67, 64
5, 1181, Note_on_c, 15, 67, 0
5, 1200, Note_on_c, 15, 69, 64
5, 1260, Note_on_c, 15, 69, 0
5, 1260, Note_on_c, 15, 73, 64
5, 1320, Note_on_c, 15, 73, 0
5, 1320, Note_on_c, 15, 69, 64
5, 1380, Note_on_c, 15, 69, 0
5, 1380, Note_on_c, 15, 76, 64
5, 1560, Note_on_c, 15, 76, 0
5, 1560, Note_on_c, 15, 66, 64
5, 1590, Note_on_c, 15, 66, 0
5, 1590, Note_on_c, 15, 67, 64
5, 1620, Note_on_c, 15, 67, 0
5, 1620, Note_on_c, 15, 67, 64
5, 1650, Note_on_c, 15, 67, 0
5, 1650, Note_on_c, 15, 66, 64
5, 1680, Note_on_c, 15, 66, 0
5, 1680, Note_on_c, 15, 67, 64
5, 1710, Note_on_c, 15, 67, 0
5, 1710, Note_on_c, 15, 66, 64
5, 1740, Note_on_c, 15, 66, 0
5, 1740, Note_on_c, 15, 67, 64
5, 1751, Note_on_c, 15, 67, 0
5, 1770, Note_on_c, 15, 66, 64
5, 1800, Note_on_c, 15, 66, 0
5, 1800, Note_on_c, 15, 67, 64
5, 1830, Note_on_c, 15, 67, 0
5, 1830, Note_on_c, 15, 67, 64
5, 1860, Note_on_c, 15, 67, 0
5, 1860, Note_on_c, 15, 66, 64
5, 1890, Note_on_c, 15, 66, 0
5, 1890, Note_on_c, 15, 67, 64
5, 1920, Note_on_c, 15, 67, 0
5, 1920, Note_on_c, 15, 66, 64
5, 1950, Note_on_c, 15, 66, 0
5, 1950, Note_on_c, 15, 67, 64
5, 1961, Note_on_c, 15, 67, 0
5, 1980, Note_on_c, 15, 69, 64
5, 2040, Note_on_c, 15, 69, 0
5, 2040, Note_on_c, 15, 73, 64
5, 2100, Note_on_c, 15, 73, 0
5, 2100, Note_on_c, 15, 69, 64
5, 2160, Note_on_c, 15, 69, 0
5, 2160, Note_on_c, 15, 67, 64
5, 2220, Note_on_c, 15, 67, 0
5, 2220, Note_on_c, 15, 66, 64
5, 2280, Note_on_c, 15, 66, 0
5, 2280, Note_on_c, 15, 67, 64
5, 2295, Note_on_c, 15, 67, 0
5, 2295, Note_on_c, 15, 66, 64
5, 2310, Note_on_c, 15, 66, 0
5, 2310, Note_on_c, 15, 64, 64
5, 2325, Note_on_c, 15, 64, 0
5, 2340, Note_on_c, 15, 66, 64
5, 2370, Note_on_c, 15, 66, 0
5, 2370, Note_on_c, 15, 67, 64
5, 2400, Note_on_c, 15, 67, 0
5, 2400, Note_on_c, 15, 67, 64
5, 2430, Note_on_c, 15, 67, 0
5, 2430, Note_on_c, 15, 66, 64
5, 2460, Note_on_c, 15, 66, 0
5, 2460, Note_on_c, 15, 67, 64
5, 2490, Note_on_c, 15, 67, 0
5, 2490, Note_on_c, 15, 66, 64
5, 2520, Note_on_c, 15, 66, 0
5, 2520, Note_on_c, 15, 67, 64
5, 2531, Note_on_c, 15, 67, 0
5, 2550, Note_on_c, 15, 66, 64
5, 2580, Note_on_c, 15, 66, 0
5, 2580, Note_on_c, 15, 67, 64
5, 2610, Note_on_c, 15, 67, 0
5, 2610, Note_on_c, 15, 67, 64
5, 2640, Note_on_c, 15, 67, 0
5, 2640, Note_on_c, 15, 66, 64
5, 2670, Note_on_c, 15, 66, 0
5, 2670, Note_on_c, 15, 67, 64
5, 2700, Note_on_c, 15, 67, 0
5, 2700, Note_on_c, 15, 66, 64
5, 2730, Note_on_c, 15, 66, 0
5, 2730, Note_on_c, 15, 67, 64
5, 2741, Note_on_c, 15, 67, 0
5, 2760, Note_on_c, 15, 69, 64
5, 2820, Note_on_c, 15, 69, 0
5, 2820, Note_on_c, 15, 73, 64
5, 2880, Note_on_c, 15, 73, 0
5, 2880, Note_on_c, 15, 69, 64
5, 2940, Note_on_c, 15, 69, 0
5, 2940, Note_on_c, 15, 76, 64
5, 3120, Note_on_c, 15, 76, 0
5, 3900, Note_on_c, 15, 76, 64
5, 3930, Note_on_c, 15, 76, 0
5, 3930, Note_on_c, 15, 74, 64
5, 3960, Note_on_c, 15, 74, 0
5, 3960, Note_on_c, 15, 74, 64
5, 3990, Note_on_c, 15, 74, 0
5, 3990, Note_on_c, 15, 73, 64
5, 4020, Note_on_c, 15, 73, 0
5, 4020, Note_on_c, 15, 74, 64
5, 4050, Note_on_c, 15, 74, 0
5, 4050, Note_on_c, 15, 73, 64
5, 4080, Note_on_c, 15, 73, 0
5, 4080, Note_on_c, 15, 71, 64
5, 4110, Note_on_c, 15, 71, 0
5, 4110, Note_on_c, 15, 76, 64
5, 4140, Note_on_c, 15, 76, 0
5, 4140, Note_on_c, 15, 74, 64
5, 4170, Note_on_c, 15, 74, 0
5, 4170, Note_on_c, 15, 74, 64
5, 4200, Note_on_c, 15, 74, 0
5, 4200, Note_on_c, 15, 73, 64
5, 4230, Note_on_c, 15, 73, 0
5, 4230, Note_on_c, 15, 74, 64
5, 4260, Note_on_c, 15, 74, 0
5, 4260, Note_on_c, 15, 73, 64
5, 4290, Note_on_c, 15, 73, 0
5, 4290, Note_on_c, 15, 71, 64
5, 4320, Note_on_c, 15, 71, 0
5, 4320, Note_on_c, 15, 69, 64
5, 4380, Note_on_c, 15, 69, 0
5, 4380, Note_on_c, 15, 71, 64
5, 4440, Note_on_c, 15, 71, 0
5, 4440, Note_on_c, 15, 69, 64
5, 4440, Note_on_c, 15, 76, 64
5, 4500, Note_on_c, 15, 76, 0
5, 4500, Note_on_c, 15, 69, 0
5, 4500, Note_on_c, 15, 67, 64
5, 4500, Note_on_c, 15, 74, 64
5, 4620, Note_on_c, 15, 74, 0
5, 4620, Note_on_c, 15, 67, 0
5, 6180, Note_on_c, 15, 79, 64
5, 6210, Note_on_c, 15, 79, 0
5, 6210, Note_on_c, 15, 81, 64
5, 6240, Note_on_c, 15, 81, 0
5, 6240, Note_on_c, 15, 83, 64
5, 6270, Note_on_c, 15, 83, 0
5, 6270, Note_on_c, 15, 81, 64
5, 6300, Note_on_c, 15, 81, 0
5, 6300, Note_on_c, 15, 79, 64
5, 6330, Note_on_c, 15, 79, 0
5, 6330, Note_on_c, 15, 78, 64
5, 6360, Note_on_c, 15, 78, 0
5, 6360, Note_on_c, 15, 79, 64
5, 6390, Note_on_c, 15, 79, 0
5, 6390, Note_on_c, 15, 78, 64
5, 6420, Note_on_c, 15, 78, 0
5, 6420, Note_on_c, 15, 76, 64
5, 6450, Note_on_c, 15, 76, 0
5, 6450, Note_on_c, 15, 74, 64
5, 6480, Note_on_c, 15, 74, 0
5, 6480, Note_on_c, 15, 73, 64
5, 6510, Note_on_c, 15, 73, 0
5, 6510, Note_on_c, 15, 74, 64
5, 6540, Note_on_c, 15, 74, 0
5, 6540, Note_on_c, 15, 73, 64
5, 6570, Note_on_c, 15, 73, 0
5, 6570, Note_on_c, 15, 71, 64
5, 6600, Note_on_c, 15, 71, 0
5, 6600, Note_on_c, 15, 69, 64
5, 6630, Note_on_c, 15, 69, 0
5, 6630, Note_on_c, 15, 67, 64
5, 6660, Note_on_c, 15, 67, 0
5, 6660, Note_on_c, 15, 66, 64
5, 6690, Note_on_c, 15, 67, 64
5, 6705, Note_on_c, 15, 67, 0
5, 6705, Note_on_c, 15, 66, 64
5, 6720, Note_on_c, 15, 66, 0
5, 6720, Note_on_c, 15, 66, 0
5, 6720, Note_on_c, 15, 64, 64
5, 6780, Note_on_c, 15, 64, 0
5, 6780, Note_on_c, 15, 69, 64
5, 6840, Note_on_c, 15, 69, 0
5, 6840, Note_on_c, 15, 71, 64
5, 6900, Note_on_c, 15, 71, 0
5, 6900, Note_on_c, 15, 72, 64
5, 6960, Note_on_c, 15, 72, 0
5, 6960, Note_on_c, 15, 65, 64
5, 7140, Note_on_c, 15, 65, 0
5, 7140, Note_on_c, 15, 72, 64
5, 7320, Note_on_c, 15, 72, 0
5, 7320, Note_on_c, 15, 79, 64
5, 7500, Note_on_c, 15, 79, 0
5, 7500, Note_on_c, 15, 86, 64
5, 7680, Note_on_c, 15, 86, 0
5, 7680, Note_on_c, 15, 64, 64
5, 7719, Note_on_c, 15, 64, 0
5, 7719, Note_on_c, 15, 64, 64
5, 7740, Note_on_c, 15, 64, 0
5, 7740, Note_on_c, 15, 64, 64
5, 7760, Note_on_c, 15, 64, 0
5, 7760, Note_on_c, 15, 64, 64
5, 7779, Note_on_c, 15, 64, 0
5, 7779, Note_on_c, 15, 66, 64
5, 7800, Note_on_c, 15, 66, 0
5, 7800, Note_on_c, 15, 67, 64
5, 7839, Note_on_c, 15, 67, 0
5, 7839, Note_on_c, 15, 67, 64
5, 7860, Note_on_c, 15, 67, 0
5, 7860, Note_on_c, 15, 67, 64
5, 7880, Note_on_c, 15, 67, 0
5, 7880, Note_on_c, 15, 66, 64
5, 7899, Note_on_c, 15, 66, 0
5, 7899, Note_on_c, 15, 64, 64
5, 7920, Note_on_c, 15, 64, 0
5, 7920, Note_on_c, 15, 66, 64
5, 7959, Note_on_c, 15, 66, 0
5, 7959, Note_on_c, 15, 64, 64
5, 8000, Note_on_c, 15, 64, 0
5, 8040, Note_on_c, 15, 64, 64
5, 8079, Note_on_c, 15, 64, 0
5, 8079, Note_on_c, 15, 64, 64
5, 8100, Note_on_c, 15, 64, 0
5, 8100, Note_on_c, 15, 64, 64
5, 8120, Note_on_c, 15, 64, 0
5, 8120, Note_on_c, 15, 64, 64
5, 8139, Note_on_c, 15, 64, 0
5, 8139, Note_on_c, 15, 66, 64
5, 8160, Note_on_c, 15, 66, 0
5, 8160, Note_on_c, 15, 67, 64
5, 8199, Note_on_c, 15, 67, 0
5, 8199, Note_on_c, 15, 67, 64
5, 8220, Note_on_c, 15, 67, 0
5, 8220, Note_on_c, 15, 67, 64
5, 8240, Note_on_c, 15, 67, 0
5, 8240, Note_on_c, 15, 66, 64
5, 8259, Note_on_c, 15, 66, 0
5, 8259, Note_on_c, 15, 64, 64
5, 8280, Note_on_c, 15, 64, 0
5, 8280, Note_on_c, 15, 66, 64
5, 8319, Note_on_c, 15, 66, 0
5, 8400, Note_on_c, 15, 67, 64
5, 8439, Note_on_c, 15, 67, 0
5, 8439, Note_on_c, 15, 67, 64
5, 8460, Note_on_c, 15, 67, 0
5, 8460, Note_on_c, 15, 67, 64
5, 8480, Note_on_c, 15, 67, 0
5, 8480, Note_on_c, 15, 67, 64
5, 8499, Note_on_c, 15, 67, 0
5, 8499, Note_on_c, 15, 69, 64
5, 8520, Note_on_c, 15, 69, 0
5, 8520, Note_on_c, 15, 71, 64
5, 8559, Note_on_c, 15, 71, 0
5, 8559, Note_on_c, 15, 71, 64
5, 8580, Note_on_c, 15, 71, 0
5, 8580, Note_on_c, 15, 71, 64
5, 8600, Note_on_c, 15, 71, 0
5, 8600, Note_on_c, 15, 69, 64
5, 8619, Note_on_c, 15, 69, 0
5, 8619, Note_on_c, 15, 67, 64
5, 8640, Note_on_c, 15, 67, 0
5, 8640, Note_on_c, 15, 69, 64
5, 8679, Note_on_c, 15, 69, 0
5, 8679, Note_on_c, 15, 67, 64
5, 8720, Note_on_c, 15, 67, 0
5, 8760, Note_on_c, 15, 67, 64
5, 8799, Note_on_c, 15, 67, 0
5, 8799, Note_on_c, 15, 67, 64
5, 8820, Note_on_c, 15, 67, 0
5, 8820, Note_on_c, 15, 67, 64
5, 8840, Note_on_c, 15, 67, 0
5, 8840, Note_on_c, 15, 67, 64
5, 8859, Note_on_c, 15, 67, 0
5, 8859, Note_on_c, 15, 69, 64
5, 8880, Note_on_c, 15, 69, 0
5, 8880, Note_on_c, 15, 71, 64
5, 8919, Note_on_c, 15, 71, 0
5, 8919, Note_on_c, 15, 71, 64
5, 8940, Note_on_c, 15, 71, 0
5, 8940, Note_on_c, 15, 71, 64
5, 8960, Note_on_c, 15, 71, 0
5, 8960, Note_on_c, 15, 69, 64
5, 8979, Note_on_c, 15, 69, 0
5, 8979, Note_on_c, 15, 67, 64
5, 9000, Note_on_c, 15, 67, 0
5, 9000, Note_on_c, 15, 69, 64
5, 9039, Note_on_c, 15, 69, 0
5, 9120, Note_on_c, 15, 67, 64
5, 9150, Note_on_c, 15, 67, 0
5, 9150, Note_on_c, 15, 69, 64
5, 9180, Note_on_c, 15, 69, 0
5, 9180, Note_on_c, 15, 71, 64
5, 9210, Note_on_c, 15, 71, 0
5, 9210, Note_on_c, 15, 71, 64
5, 9240, Note_on_c, 15, 71, 0
5, 9240, Note_on_c, 15, 69, 64
5, 9270, Note_on_c, 15, 69, 0
5, 9270, Note_on_c, 15, 67, 64
5, 9300, Note_on_c, 15, 67, 0
5, 9300, Note_on_c, 15, 67, 64
5, 9330, Note_on_c, 15, 67, 0
5, 9330, Note_on_c, 15, 69, 64
5, 9360, Note_on_c, 15, 69, 0
5, 9360, Note_on_c, 15, 71, 64
5, 9390, Note_on_c, 15, 71, 0
5, 9390, Note_on_c, 15, 71, 64
5, 9420, Note_on_c, 15, 71, 0
5, 9420, Note_on_c, 15, 69, 64
5, 9450, Note_on_c, 15, 69, 0
5, 9450, Note_on_c, 15, 67, 64
5, 9480, Note_on_c, 15, 67, 0
5, 9480, Note_on_c, 15, 66, 64
5, 9510, Note_on_c, 15, 66, 0
5, 9510, Note_on_c, 15, 65, 64
5, 9540, Note_on_c, 15, 65, 0
5, 9540, Note_on_c, 15, 66, 64
5, 9570, Note_on_c, 15, 66, 0
5, 9570, Note_on_c, 15, 65, 64
5, 9600, Note_on_c, 15, 65, 0
5, 9600, Note_on_c, 15, 63, 64
5, 9630, Note_on_c, 15, 63, 0
5, 9630, Note_on_c, 15, 63, 64
5, 9660, Note_on_c, 15, 63, 0
5, 9660, Note_on_c, 15, 65, 64
5, 9690, Note_on_c, 15, 65, 0
5, 9690, Note_on_c, 15, 66, 64
5, 9720, Note_on_c, 15, 66, 0
5, 9720, Note_on_c, 15, 66, 64
5, 9750, Note_on_c, 15, 66, 0
5, 9750, Note_on_c, 15, 65, 64
5, 9780, Note_on_c, 15, 65, 0
5, 9780, Note_on_c, 15, 63, 64
5, 9840, Note_on_c, 15, 63, 0
5, 9840, Note_on_c, 15, 68, 64
5, 9870, Note_on_c, 15, 68, 0
5, 9870, Note_on_c, 15, 70, 64
5, 9900, Note_on_c, 15, 70, 0
5, 9900, Note_on_c, 15, 72, 64
5, 9930, Note_on_c, 15, 72, 0
5, 9930, Note_on_c, 15, 72, 64
5, 9960, Note_on_c, 15, 72, 0
5, 9960, Note_on_c, 15, 70, 64
5, 9990, Note_on_c, 15, 70, 0
5, 9990, Note_on_c, 15, 68, 64
5, 10020, Note_on_c, 15, 68, 0
5, 10020, Note_on_c, 15, 68, 64
5, 10050, Note_on_c, 15, 68, 0
5, 10050, Note_on_c, 15, 70, 64
5, 10080, Note_on_c, 15, 70, 0
5, 10080, Note_on_c, 15, 72, 64
5, 10110, Note_on_c, 15, 72, 0
5, 10110, Note_on_c, 15, 72, 64
5, 10140, Note_on_c, 15, 72, 0
5, 10140, Note_on_c, 15, 70, 64
5, 10170, Note_on_c, 15, 70, 0
5, 10170, Note_on_c, 15, 68, 64
5, 10200, Note_on_c, 15, 68, 0
5, 10200, Note_on_c, 15, 67, 64
5, 10230, Note_on_c, 15, 67, 0
5, 10230, Note_on_c, 15, 66, 64
5, 10260, Note_on_c, 15, 66, 0
5, 10260, Note_on_c, 15, 67, 64
5, 10290, Note_on_c, 15, 67, 0
5, 10290, Note_on_c, 15, 66, 64
5, 10320, Note_on_c, 15, 66, 0
5, 10320, Note_on_c, 15, 64, 64
5, 10350, Note_on_c, 15, 64, 0
5, 10350, Note_on_c, 15, 64, 64
5, 10380, Note_on_c, 15, 64, 0
5, 10380, Note_on_c, 15, 66, 64
5, 10410, Note_on_c, 15, 66, 0
5, 10410, Note_on_c, 15, 67, 64
5, 10440, Note_on_c, 15, 67, 0
5, 10440, Note_on_c, 15, 67, 64
5, 10470, Note_on_c, 15, 67, 0
5, 10470, Note_on_c, 15, 66, 64
5, 10500, Note_on_c, 15, 66, 0
5, 10500, Note_on_c, 15, 64, 64
5, 10560, Note_on_c, 15, 64, 0
5, 10560, Note_on_c, 15, 71, 64
5, 10620, Note_on_c, 15, 71, 0
5, 10620, Note_on_c, 15, 69, 64
5, 10650, Note_on_c, 15, 69, 0
5, 10650, Note_on_c, 15, 67, 64
5, 10710, Note_on_c, 15, 67, 0
5, 10710, Note_on_c, 15, 59, 64
5, 10745, Note_on_c, 15, 59, 0
5, 10800, Note_on_c, 15, 57, 64
5, 11280, Note_on_c, 15, 57, 0
5, 11280, Note_on_c, 15, 71, 64
5, 11340, Note_on_c, 15, 71, 0
5, 11340, Note_on_c, 15, 69, 64
5, 11370, Note_on_c, 15, 69, 0
5, 11370, Note_on_c, 15, 67, 64
5, 11430, Note_on_c, 15, 67, 0
5, 11430, Note_on_c, 15, 59, 64
5, 11465, Note_on_c, 15, 59, 0
5, 11520, Note_on_c, 15, 57, 64
5, 11640, Note_on_c, 15, 57, 0
5, 11640, Note_on_c, 15, 62, 64
5, 11700, Note_on_c, 15, 62, 0
5, 11700, Note_on_c, 15, 60, 64
5, 11724, Note_on_c, 15, 60, 0
5, 11790, Note_on_c, 15, 55, 64
5, 11850, Note_on_c, 15, 55, 0
5, 11880, Note_on_c, 15, 67, 64
5, 12000, Note_on_c, 15, 67, 0
5, 12000, Note_on_c, 15, 71, 64
5, 12060, Note_on_c, 15, 71, 0
5, 12060, Note_on_c, 15, 69, 64
5, 12090, Note_on_c, 15, 69, 0
5, 12090, Note_on_c, 15, 67, 64
5, 12150, Note_on_c, 15, 67, 0
5, 12150, Note_on_c, 15, 59, 64
5, 12185, Note_on_c, 15, 59, 0
5, 12240, Note_on_c, 15, 57, 64
5, 12360, Note_on_c, 15, 57, 0
5, 12360, Note_on_c, 15, 62, 64
5, 12420, Note_on_c, 15, 62, 0
5, 12420, Note_on_c, 15, 60, 64
5, 12444, Note_on_c, 15, 60, 0
5, 12510, Note_on_c, 15, 53, 64
5, 12600, Note_on_c, 15, 53, 0
5, 12600, Note_on_c, 15, 53, 64
5, 12720, Note_on_c, 15, 53, 0
5, 12720, Note_on_c, 15, 71, 64
5, 12780, Note_on_c, 15, 71, 0
5, 12780, Note_on_c, 15, 69, 64
5, 12810, Note_on_c, 15, 69, 0
5, 12810, Note_on_c, 15, 67, 64
5, 12870, Note_on_c, 15, 67, 0
5, 12870, Note_on_c, 15, 59, 64
5, 12905, Note_on_c, 15, 59, 0
5, 12960, Note_on_c, 15, 57, 64
5, 13080, Note_on_c, 15, 57, 0
5, 13080, Note_on_c, 15, 62, 64
5, 13140, Note_on_c, 15, 62, 0
5, 13140, Note_on_c, 15, 60, 64
5, 13164, Note_on_c, 15, 60, 0
5, 13230, Note_on_c, 15, 55, 64
5, 13290, Note_on_c, 15, 55, 0
5, 13320, Note_on_c, 15, 67, 64
5, 13440, Note_on_c, 15, 67, 0
5, 13440, Note_on_c, 15, 71, 64
5, 13500, Note_on_c, 15, 71, 0
5, 13500, Note_on_c, 15, 69, 64
5, 13530, Note_on_c, 15, 69, 0
5, 13530, Note_on_c, 15, 67, 64
5, 13590, Note_on_c, 15, 67, 0
5, 13590, Note_on_c, 15, 59, 64
5, 13625, Note_on_c, 15, 59, 0
5, 13680, Note_on_c, 15, 57, 64
5, 13800, Note_on_c, 15, 57, 0
5, 13800, Note_on_c, 15, 62, 64
5, 13860, Note_on_c, 15, 62, 0
5, 13860, Note_on_c, 15, 60, 64
5, 13884, Note_on_c, 15, 60, 0
5, 13950, Note_on_c, 15, 53, 64
5, 14160, Note_on_c, 15, 53, 0
5, 14160, Note_on_c, 15, 68, 64
5, 14220, Note_on_c, 15, 68, 0
5, 14220, Note_on_c, 15, 69, 64
5, 14244, Note_on_c, 15, 69, 0
5, 14280, Note_on_c, 15, 69, 64
5, 14304, Note_on_c, 15, 69, 0
5, 14340, Note_on_c, 15, 68, 64
5, 14370, Note_on_c, 15, 68, 0
5, 14370, Note_on_c, 15, 69, 64
5, 14400, Note_on_c, 15, 69, 0
5, 14400, Note_on_c, 15, 68, 64
5, 14430, Note_on_c, 15, 68, 0
5, 14430, Note_on_c, 15, 69, 64
5, 14460, Note_on_c, 15, 69, 0
5, 14460, Note_on_c, 15, 68, 64
5, 14880, Note_on_c, 15, 68, 0
5, 14880, End_track
0, 0, End_of_file
