0, 0, Header, 0, 1, 960
1, 0, Start_track
1, 3840, Title_t, "Clarinets"
1, 3840, Title_t, "Voice 12"
1, 3840, Title_t, "Piano 1"
1, 3840, Title_t, "Piano 2"
1, 3840, Title_t, "Piano 3"
1, 3840, Title_t, "Piano 4"
1, 3840, Title_t, "Violin"
1, 3840, Title_t, "Cello"
1, 3840, Title_t, "Vibes"
1, 3840, Title_t, "Mar3"
1, 3840, Title_t, "Xyl2"
1, 3840, Title_t, "Mar1"
1, 3840, Title_t, "Mar2"
1, 3840, Control_c, 0, 0, 121
1, 3840, Control_c, 0, 32, 0
1, 3840, Control_c, 0, 0, 121
1, 3840, Control_c, 0, 32, 0
1, 3840, Control_c, 6, 0, 121
1, 3840, Control_c, 6, 32, 0
1, 3840, Control_c, 7, 0, 121
1, 3840, Control_c, 7, 32, 0
1, 3840, Control_c, 12, 0, 121
1, 3840, Control_c, 12, 32, 0
1, 3840, Control_c, 14, 0, 121
1, 3840, Control_c, 14, 32, 0
1, 3840, Program_c, 0, 71
1, 3840, Program_c, 0, 11
1, 3840, Program_c, 6, 11
1, 3840, Program_c, 7, 12
1, 3840, Program_c, 12, 53
1, 3840, Program_c, 14, 11
1, 3840, Note_on_c, 1, 59, 74
1, 3840, Note_on_c, 3, 71, 100
1, 3840, Note_on_c, 3, 76, 100
1, 3840, Note_on_c, 7, 64, 66
1, 3840, Note_on_c, 7, 69, 70
1, 3840, Note_on_c, 7, 76, 75
1, 3840, Note_on_c, 14, 64, 66
1, 3840, Note_on_c, 14, 76, 77
1, 4090, Note_off_c, 7, 69, 0
1, 4104, Note_off_c, 7, 64, 0
1, 4130, Note_off_c, 7, 76, 0
1, 4312, Note_off_c, 3, 71, 64
1, 4312, Note_off_c, 3, 76, 64
1, 4320, Note_on_c, 1, 69, 75
1, 4320, Note_on_c, 3, 66, 100
1, 4320, Note_on_c, 3, 69, 100
1, 4320, Note_on_c, 6, 64, 69
1, 4320, Note_on_c, 6, 69, 69
1, 4320, Note_on_c, 6, 76, 73
1, 4328, Note_off_c, 1, 59, 0
1, 4586, Note_off_c, 6, 64, 0
1, 4624, Note_off_c, 6, 69, 0
1, 4624, Note_off_c, 6, 76, 0
1, 4788, Control_c, 1, 0, 121
1, 4788, Control_c, 1, 32, 0
1, 4788, Program_c, 1, 12
1, 4792, Note_off_c, 3, 66, 64
1, 4792, Note_off_c, 3, 69, 64
1, 4800, Note_on_c, 1, 64, 73
1, 4800, Note_on_c, 3, 73, 100
1, 4800, Note_on_c, 3, 76, 100
1, 4800, Note_on_c, 7, 64, 66
1, 4800, Note_on_c, 7, 69, 70
1, 4800, Note_on_c, 7, 76, 75
1, 4926, Note_off_c, 1, 69, 0
1, 5050, Note_off_c, 7, 69, 0
1, 5064, Note_off_c, 7, 64, 0
1, 5090, Note_off_c, 7, 76, 0
1, 5272, Note_off_c, 3, 73, 64
1, 5272, Note_off_c, 3, 76, 64
1, 5280, Control_c, 10, 0, 121
1, 5280, Control_c, 10, 32, 0
1, 5280, Program_c, 10, 12
1, 5280, Note_on_c, 6, 64, 67
1, 5280, Note_on_c, 6, 69, 63
1, 5280, Note_on_c, 6, 76, 74
1, 5484, Note_off_c, 6, 69, 0
1, 5506, Note_off_c, 1, 64, 0
1, 5546, Note_off_c, 6, 64, 0
1, 5546, Note_off_c, 6, 76, 0
1, 5760, Note_on_c, 1, 66, 68
1, 5760, Note_on_c, 3, 71, 100
1, 5760, Note_on_c, 3, 76, 100
1, 5760, Note_on_c, 7, 64, 72
1, 5760, Note_on_c, 7, 69, 80
1, 5760, Note_on_c, 7, 76, 77
1, 6000, Note_off_c, 7, 76, 0
1, 6010, Note_off_c, 7, 64, 0
1, 6010, Note_off_c, 7, 69, 0
1, 6042, Note_on_c, 10, 64, 69
1, 6042, Note_on_c, 10, 69, 69
1, 6042, Note_on_c, 10, 76, 73
1, 6232, Note_off_c, 3, 71, 64
1, 6232, Note_off_c, 3, 76, 64
1, 6240, Control_c, 4, 0, 121
1, 6240, Control_c, 4, 32, 0
1, 6240, Program_c, 4, 40
1, 6240, Note_on_c, 1, 61, 68
1, 6240, Note_on_c, 3, 64, 100
1, 6240, Note_on_c, 3, 69, 100
1, 6240, Note_on_c, 6, 64, 66
1, 6240, Note_on_c, 6, 69, 63
1, 6240, Note_on_c, 6, 76, 74
1, 6276, Note_off_c, 1, 66, 0
1, 6308, Note_off_c, 10, 64, 0
1, 6346, Note_off_c, 10, 69, 0
1, 6346, Note_off_c, 10, 76, 0
1, 6470, Note_off_c, 6, 69, 0
1, 6476, Note_off_c, 6, 64, 0
1, 6514, Note_off_c, 6, 76, 0
1, 6712, Note_off_c, 3, 64, 64
1, 6712, Note_off_c, 3, 69, 64
1, 6720, Note_on_c, 7, 64, 70
1, 6720, Note_on_c, 7, 69, 77
1, 6720, Note_on_c, 7, 76, 77
1, 6974, Note_off_c, 7, 64, 0
1, 7002, Note_off_c, 7, 69, 0
1, 7002, Note_on_c, 10, 64, 67
1, 7002, Note_on_c, 10, 69, 63
1, 7002, Note_on_c, 10, 76, 74
1, 7010, Note_off_c, 1, 61, 0
1, 7010, Note_off_c, 7, 76, 0
1, 7200, Note_on_c, 1, 69, 77
1, 7200, Note_on_c, 3, 71, 100
1, 7200, Note_on_c, 3, 76, 100
1, 7200, Note_on_c, 6, 64, 68
1, 7200, Note_on_c, 6, 69, 74
1, 7200, Note_on_c, 6, 76, 74
1, 7206, Note_off_c, 10, 69, 0
1, 7268, Note_off_c, 10, 64, 0
1, 7268, Note_off_c, 10, 76, 0
1, 7460, Note_off_c, 6, 69, 0
1, 7490, Note_off_c, 6, 76, 0
1, 7494, Note_off_c, 6, 64, 0
1, 7672, Note_off_c, 3, 71, 64
1, 7672, Note_off_c, 3, 76, 64
1, 7680, Note_on_c, 7, 64, 70
1, 7680, Note_on_c, 7, 69, 73
1, 7680, Note_on_c, 7, 76, 74
1, 7824, Note_off_c, 1, 69, 0
1, 7920, Note_off_c, 7, 64, 0
1, 7926, Note_off_c, 7, 69, 0
1, 7940, Note_off_c, 7, 76, 0
1, 7962, Note_on_c, 10, 64, 66
1, 7962, Note_on_c, 10, 69, 63
1, 7962, Note_on_c, 10, 76, 74
1, 8160, Note_on_c, 1, 64, 70
1, 8160, Note_on_c, 3, 73, 100
1, 8160, Note_on_c, 3, 76, 100
1, 8160, Note_on_c, 6, 64, 73
1, 8160, Note_on_c, 6, 69, 82
1, 8160, Note_on_c, 6, 76, 77
1, 8192, Note_off_c, 10, 69, 0
1, 8198, Note_off_c, 10, 64, 0
1, 8236, Note_off_c, 10, 76, 0
1, 8438, Note_off_c, 6, 69, 0
1, 8450, Note_off_c, 6, 64, 0
1, 8458, Note_off_c, 6, 76, 0
1, 8632, Note_off_c, 3, 73, 64
1, 8632, Note_off_c, 3, 76, 64
1, 8640, Note_on_c, 1, 66, 77
1, 8640, Note_on_c, 3, 64, 100
1, 8640, Note_on_c, 3, 69, 100
1, 8640, Note_on_c, 7, 64, 72
1, 8640, Note_on_c, 7, 69, 77
1, 8640, Note_on_c, 7, 76, 75
1, 8792, Note_off_c, 1, 64, 0
1, 8848, Note_off_c, 7, 69, 0
1, 8862, Note_off_c, 7, 64, 0
1, 8882, Note_off_c, 7, 76, 0
1, 8922, Note_on_c, 10, 64, 68
1, 8922, Note_on_c, 10, 69, 74
1, 8922, Note_on_c, 10, 76, 74
1, 9112, Note_off_c, 3, 64, 64
1, 9112, Note_off_c, 3, 69, 64
1, 9120, Note_on_c, 6, 64, 72
1, 9120, Note_on_c, 6, 69, 75
1, 9120, Note_on_c, 6, 76, 73
1, 9182, Note_off_c, 10, 69, 0
1, 9212, Note_off_c, 10, 76, 0
1, 9216, Note_off_c, 10, 64, 0
1, 9284, Note_off_c, 1, 66, 0
1, 9408, Note_off_c, 6, 76, 0
1, 9410, Note_off_c, 6, 69, 0
1, 9418, Note_off_c, 6, 64, 0
1, 9600, Note_on_c, 1, 59, 65
1, 9600, Note_on_c, 3, 71, 100
1, 9600, Note_on_c, 3, 76, 100
1, 9600, Note_on_c, 7, 64, 70
1, 9600, Note_on_c, 7, 69, 78
1, 9600, Note_on_c, 7, 76, 77
1, 9842, Note_off_c, 7, 64, 0
1, 9864, Note_off_c, 7, 76, 0
1, 9882, Note_on_c, 10, 64, 73
1, 9882, Note_on_c, 10, 69, 82
1, 9882, Note_on_c, 10, 76, 77
1, 9888, Note_off_c, 7, 69, 0
1, 10072, Note_off_c, 3, 71, 64
1, 10072, Note_off_c, 3, 76, 64
1, 10080, Note_on_c, 1, 69, 74
1, 10080, Note_on_c, 3, 66, 100
1, 10080, Note_on_c, 3, 69, 100
1, 10080, Note_on_c, 6, 64, 69
1, 10080, Note_on_c, 6, 69, 70
1, 10080, Note_on_c, 6, 76, 72
1, 10160, Note_off_c, 10, 69, 0
1, 10172, Note_off_c, 10, 64, 0
1, 10174, Note_off_c, 1, 59, 0
1, 10180, Note_off_c, 10, 76, 0
1, 10344, Note_off_c, 6, 69, 0
1, 10368, Note_off_c, 6, 64, 0
1, 10384, Note_off_c, 6, 76, 0
1, 10552, Note_off_c, 3, 66, 64
1, 10552, Note_off_c, 3, 69, 64
1, 10560, Note_on_c, 1, 64, 68
1, 10560, Note_on_c, 3, 73, 100
1, 10560, Note_on_c, 3, 76, 100
1, 10560, Note_on_c, 7, 64, 70
1, 10560, Note_on_c, 7, 69, 72
1, 10560, Note_on_c, 7, 76, 77
1, 10772, Note_off_c, 1, 69, 0
1, 10814, Note_off_c, 7, 64, 0
1, 10826, Note_off_c, 7, 69, 0
1, 10842, Note_on_c, 10, 64, 72
1, 10842, Note_on_c, 10, 69, 75
1, 10842, Note_on_c, 10, 76, 73
1, 10882, Note_off_c, 7, 76, 0
1, 11032, Note_off_c, 3, 73, 64
1, 11032, Note_off_c, 3, 76, 64
1, 11040, Note_on_c, 6, 64, 68
1, 11040, Note_on_c, 6, 69, 77
1, 11040, Note_on_c, 6, 76, 73
1, 11130, Note_off_c, 10, 76, 0
1, 11132, Note_off_c, 10, 69, 0
1, 11140, Note_off_c, 10, 64, 0
1, 11174, Note_off_c, 1, 64, 0
1, 11306, Note_off_c, 6, 64, 0
1, 11324, Note_off_c, 6, 69, 0
1, 11324, Note_off_c, 6, 76, 0
1, 11520, Note_on_c, 1, 66, 77
1, 11520, Note_on_c, 3, 71, 100
1, 11520, Note_on_c, 3, 76, 100
1, 11520, Note_on_c, 7, 64, 73
1, 11520, Note_on_c, 7, 69, 77
1, 11520, Note_on_c, 7, 76, 74
1, 11802, Note_on_c, 10, 64, 69
1, 11802, Note_on_c, 10, 69, 70
1, 11802, Note_on_c, 10, 76, 72
1, 11804, Note_off_c, 7, 69, 0
1, 11836, Note_off_c, 7, 76, 0
1, 11842, Note_off_c, 7, 64, 0
1, 11992, Note_off_c, 3, 71, 64
1, 11992, Note_off_c, 3, 76, 64
1, 12000, Note_on_c, 1, 61, 70
1, 12000, Note_on_c, 3, 64, 100
1, 12000, Note_on_c, 3, 69, 100
1, 12000, Note_on_c, 6, 64, 72
1, 12000, Note_on_c, 6, 69, 52
1, 12000, Note_on_c, 6, 76, 72
1, 12066, Note_off_c, 10, 69, 0
1, 12090, Note_off_c, 10, 64, 0
1, 12106, Note_off_c, 10, 76, 0
1, 12152, Note_off_c, 6, 69, 0
1, 12162, Note_off_c, 1, 66, 0
1, 12240, Note_off_c, 6, 64, 0
1, 12246, Note_off_c, 6, 76, 0
1, 12472, Note_off_c, 3, 64, 64
1, 12472, Note_off_c, 3, 69, 64
1, 12480, Note_on_c, 7, 64, 68
1, 12480, Note_on_c, 7, 69, 70
1, 12480, Note_on_c, 7, 76, 72
1, 12628, Note_off_c, 1, 61, 0
1, 12762, Note_on_c, 10, 64, 68
1, 12762, Note_on_c, 10, 69, 77
1, 12762, Note_on_c, 10, 76, 73
1, 12770, Note_off_c, 7, 69, 0
1, 12788, Note_off_c, 7, 76, 0
1, 12794, Note_off_c, 7, 64, 0
1, 12960, Note_on_c, 1, 69, 77
1, 12960, Note_on_c, 3, 71, 100
1, 12960, Note_on_c, 3, 76, 100
1, 12960, Note_on_c, 6, 64, 68
1, 12960, Note_on_c, 6, 69, 70
1, 12960, Note_on_c, 6, 76, 74
1, 13028, Note_off_c, 10, 64, 0
1, 13046, Note_off_c, 10, 69, 0
1, 13046, Note_off_c, 10, 76, 0
1, 13192, Note_off_c, 6, 69, 0
1, 13202, Note_off_c, 6, 64, 0
1, 13210, Note_off_c, 6, 76, 0
1, 13432, Note_off_c, 3, 71, 64
1, 13432, Note_off_c, 3, 76, 64
1, 13440, Note_on_c, 7, 64, 68
1, 13440, Note_on_c, 7, 69, 70
1, 13440, Note_on_c, 7, 76, 73
1, 13608, Note_off_c, 1, 69, 0
1, 13688, Note_off_c, 7, 64, 0
1, 13702, Note_off_c, 7, 69, 0
1, 13702, Note_off_c, 7, 76, 0
1, 13722, Note_on_c, 10, 64, 72
1, 13722, Note_on_c, 10, 69, 52
1, 13722, Note_on_c, 10, 76, 72
1, 13874, Note_off_c, 10, 69, 0
1, 13920, Note_on_c, 1, 64, 68
1, 13920, Note_on_c, 3, 73, 100
1, 13920, Note_on_c, 3, 76, 100
1, 13920, Note_on_c, 6, 64, 68
1, 13920, Note_on_c, 6, 69, 69
1, 13920, Note_on_c, 6, 76, 72
1, 13962, Note_off_c, 10, 64, 0
1, 13968, Note_off_c, 10, 76, 0
1, 14136, Note_off_c, 6, 76, 0
1, 14138, Note_off_c, 6, 69, 0
1, 14152, Note_off_c, 6, 64, 0
1, 14364, Note_off_c, 1, 64, 0
1, 14392, Note_off_c, 3, 73, 64
1, 14392, Note_off_c, 3, 76, 64
1, 14400, Note_on_c, 1, 66, 78
1, 14400, Note_on_c, 3, 64, 100
1, 14400, Note_on_c, 3, 69, 100
1, 14400, Note_on_c, 7, 64, 70
1, 14400, Note_on_c, 7, 69, 83
1, 14400, Note_on_c, 7, 76, 74
1, 14640, Note_off_c, 7, 64, 0
1, 14640, Note_off_c, 7, 76, 0
1, 14650, Note_off_c, 7, 69, 0
1, 14682, Note_on_c, 10, 64, 68
1, 14682, Note_on_c, 10, 69, 70
1, 14682, Note_on_c, 10, 76, 74
1, 14872, Note_off_c, 3, 64, 64
1, 14872, Note_off_c, 3, 69, 64
1, 14880, Note_on_c, 6, 64, 67
1, 14880, Note_on_c, 6, 69, 67
1, 14880, Note_on_c, 6, 76, 72
1, 14914, Note_off_c, 10, 69, 0
1, 14924, Note_off_c, 10, 64, 0
1, 14932, Note_off_c, 10, 76, 0
1, 15068, Note_off_c, 1, 66, 0
1, 15120, Control_c, 5, 0, 121
1, 15120, Control_c, 5, 32, 0
1, 15120, Program_c, 5, 42
1, 15126, Note_off_c, 6, 64, 0
1, 15130, Note_off_c, 6, 69, 0
1, 15146, Note_off_c, 6, 76, 0
1, 15360, Note_on_c, 1, 59, 74
1, 15360, Note_on_c, 3, 71, 100
1, 15360, Note_on_c, 3, 76, 100
1, 15360, Note_on_c, 7, 64, 67
1, 15360, Note_on_c, 7, 69, 78
1, 15360, Note_on_c, 7, 76, 73
1, 15610, Note_off_c, 7, 76, 0
1, 15616, Note_off_c, 7, 69, 0
1, 15624, Note_off_c, 7, 64, 0
1, 15642, Note_on_c, 10, 64, 68
1, 15642, Note_on_c, 10, 69, 69
1, 15642, Note_on_c, 10, 76, 72
1, 15832, Note_off_c, 3, 71, 64
1, 15832, Note_off_c, 3, 76, 64
1, 15840, Note_on_c, 1, 69, 75
1, 15840, Note_on_c, 3, 66, 100
1, 15840, Note_on_c, 3, 69, 100
1, 15840, Note_on_c, 6, 64, 67
1, 15840, Note_on_c, 6, 69, 63
1, 15840, Note_on_c, 6, 76, 72
1, 15848, Note_off_c, 1, 59, 0
1, 15858, Note_off_c, 10, 76, 0
1, 15860, Note_off_c, 10, 69, 0
1, 15874, Note_off_c, 10, 64, 0
1, 16088, Note_off_c, 6, 69, 0
1, 16116, Note_off_c, 6, 64, 0
1, 16132, Note_off_c, 6, 76, 0
1, 16312, Note_off_c, 3, 66, 64
1, 16312, Note_off_c, 3, 69, 64
1, 16320, Note_on_c, 1, 64, 73
1, 16320, Note_on_c, 3, 73, 100
1, 16320, Note_on_c, 3, 76, 100
1, 16320, Note_on_c, 7, 64, 69
1, 16320, Note_on_c, 7, 69, 70
1, 16320, Note_on_c, 7, 76, 73
1, 16446, Note_off_c, 1, 69, 0
1, 16540, Note_off_c, 7, 69, 0
1, 16562, Note_off_c, 7, 76, 0
1, 16572, Note_off_c, 7, 64, 0
1, 16602, Note_on_c, 10, 64, 67
1, 16602, Note_on_c, 10, 69, 67
1, 16602, Note_on_c, 10, 76, 72
1, 16792, Note_off_c, 3, 73, 64
1, 16792, Note_off_c, 3, 76, 64
1, 16800, Note_on_c, 6, 64, 68
1, 16800, Note_on_c, 6, 69, 66
1, 16800, Note_on_c, 6, 76, 70
1, 16848, Note_off_c, 10, 64, 0
1, 16852, Note_off_c, 10, 69, 0
1, 16868, Note_off_c, 10, 76, 0
1, 16996, Note_off_c, 6, 69, 0
1, 17020, Note_off_c, 6, 64, 0
1, 17026, Note_off_c, 1, 64, 0
1, 17038, Note_off_c, 6, 76, 0
1, 17280, Note_on_c, 1, 66, 68
1, 17280, Note_on_c, 3, 71, 100
1, 17280, Note_on_c, 3, 76, 100
1, 17280, Note_on_c, 7, 64, 69
1, 17280, Note_on_c, 7, 69, 75
1, 17280, Note_on_c, 7, 76, 73
1, 17494, Note_off_c, 7, 69, 0
1, 17510, Note_off_c, 7, 64, 0
1, 17524, Note_off_c, 7, 76, 0
1, 17562, Note_on_c, 10, 64, 67
1, 17562, Note_on_c, 10, 69, 63
1, 17562, Note_on_c, 10, 76, 72
1, 17752, Note_off_c, 3, 71, 64
1, 17752, Note_off_c, 3, 76, 64
1, 17760, Note_on_c, 1, 61, 68
1, 17760, Note_on_c, 3, 64, 100
1, 17760, Note_on_c, 3, 69, 100
1, 17760, Note_on_c, 6, 64, 68
1, 17760, Note_on_c, 6, 69, 63
1, 17760, Note_on_c, 6, 76, 72
1, 17796, Note_off_c, 1, 66, 0
1, 17810, Note_off_c, 10, 69, 0
1, 17838, Note_off_c, 10, 64, 0
1, 17854, Note_off_c, 10, 76, 0
1, 17970, Note_off_c, 6, 64, 0
1, 18004, Note_off_c, 6, 76, 0
1, 18022, Note_off_c, 6, 69, 0
1, 18232, Note_off_c, 3, 64, 64
1, 18232, Note_off_c, 3, 69, 64
1, 18240, Note_on_c, 7, 64, 68
1, 18240, Note_on_c, 7, 69, 74
1, 18240, Note_on_c, 7, 76, 74
1, 18464, Note_off_c, 7, 69, 0
1, 18504, Note_off_c, 7, 64, 0
1, 18514, Note_off_c, 7, 76, 0
1, 18522, Note_on_c, 10, 64, 68
1, 18522, Note_on_c, 10, 69, 66
1, 18522, Note_on_c, 10, 76, 70
1, 18530, Note_off_c, 1, 61, 0
1, 18718, Note_off_c, 10, 69, 0
1, 18720, Note_on_c, 1, 69, 77
1, 18720, Note_on_c, 3, 71, 100
1, 18720, Note_on_c, 3, 76, 100
1, 18720, Note_on_c, 6, 64, 70
1, 18720, Note_on_c, 6, 69, 69
1, 18720, Note_on_c, 6, 76, 72
1, 18742, Note_off_c, 10, 64, 0
1, 18760, Note_off_c, 10, 76, 0
1, 18954, Note_off_c, 6, 69, 0
1, 18982, Note_off_c, 6, 64, 0
1, 18982, Note_off_c, 6, 76, 0
1, 19192, Note_off_c, 3, 71, 64
1, 19192, Note_off_c, 3, 76, 64
1, 19200, Note_on_c, 7, 64, 68
1, 19200, Note_on_c, 7, 69, 73
1, 19200, Note_on_c, 7, 76, 73
1, 19344, Note_off_c, 1, 69, 0
1, 19424, Note_off_c, 7, 64, 0
1, 19448, Note_off_c, 7, 69, 0
1, 19448, Note_off_c, 7, 76, 0
1, 19482, Note_on_c, 10, 64, 68
1, 19482, Note_on_c, 10, 69, 63
1, 19482, Note_on_c, 10, 76, 72
1, 19680, Note_on_c, 1, 64, 70
1, 19680, Note_on_c, 3, 73, 100
1, 19680, Note_on_c, 3, 76, 100
1, 19680, Note_on_c, 6, 64, 68
1, 19680, Note_on_c, 6, 69, 70
1, 19680, Note_on_c, 6, 76, 70
1, 19692, Note_off_c, 10, 64, 0
1, 19726, Note_off_c, 10, 76, 0
1, 19744, Note_off_c, 10, 69, 0
1, 19888, Note_off_c, 6, 64, 0
1, 19916, Note_off_c, 6, 69, 0
1, 19920, Note_off_c, 6, 76, 0
1, 19948, Note_off_c, 14, 64, 0
1, 19996, Note_off_c, 14, 76, 0
1, 20152, Note_off_c, 3, 73, 64
1, 20152, Note_off_c, 3, 76, 64
1, 20160, Note_on_c, 1, 66, 77
1, 20160, Note_on_c, 3, 64, 100
1, 20160, Note_on_c, 3, 69, 100
1, 20160, Note_on_c, 7, 64, 66
1, 20160, Note_on_c, 7, 69, 74
1, 20160, Note_on_c, 7, 76, 73
1, 20312, Note_off_c, 1, 64, 0
1, 20394, Note_off_c, 7, 64, 0
1, 20414, Note_off_c, 7, 76, 0
1, 20442, Note_off_c, 7, 69, 0
1, 20442, Note_on_c, 10, 64, 70
1, 20442, Note_on_c, 10, 69, 69
1, 20442, Note_on_c, 10, 76, 72
1, 20632, Note_off_c, 3, 64, 64
1, 20632, Note_off_c, 3, 69, 64
1, 20640, Note_on_c, 6, 64, 67
1, 20640, Note_on_c, 6, 69, 73
1, 20640, Note_on_c, 6, 76, 74
1, 20676, Note_off_c, 10, 69, 0
1, 20704, Note_off_c, 10, 64, 0
1, 20704, Note_off_c, 10, 76, 0
1, 20804, Note_off_c, 1, 66, 0
1, 20856, Note_off_c, 6, 64, 0
1, 20876, Note_off_c, 6, 76, 0
1, 20886, Note_off_c, 6, 69, 0
1, 21120, Note_on_c, 1, 59, 65
1, 21120, Note_on_c, 3, 71, 100
1, 21120, Note_on_c, 3, 76, 100
1, 21120, Note_on_c, 7, 64, 66
1, 21120, Note_on_c, 7, 69, 77
1, 21120, Note_on_c, 7, 76, 70
1, 21348, Note_off_c, 7, 64, 0
1, 21402, Note_on_c, 10, 64, 68
1, 21402, Note_on_c, 10, 69, 70
1, 21402, Note_on_c, 10, 76, 70
1, 21406, Note_off_c, 7, 69, 0
1, 21430, Note_off_c, 7, 76, 0
1, 21592, Note_off_c, 3, 71, 64
1, 21592, Note_off_c, 3, 76, 64
1, 21600, Note_on_c, 1, 69, 74
1, 21600, Note_on_c, 3, 66, 100
1, 21600, Note_on_c, 3, 69, 100
1, 21600, Note_on_c, 6, 64, 68
1, 21600, Note_on_c, 6, 69, 74
1, 21600, Note_on_c, 6, 76, 75
1, 21610, Note_off_c, 10, 64, 0
1, 21638, Note_off_c, 10, 69, 0
1, 21642, Note_off_c, 10, 76, 0
1, 21694, Note_off_c, 1, 59, 0
1, 21872, Note_off_c, 6, 69, 0
1, 21876, Note_off_c, 6, 64, 0
1, 21890, Note_off_c, 6, 76, 0
1, 22072, Note_off_c, 3, 66, 64
1, 22072, Note_off_c, 3, 69, 64
1, 22080, Note_on_c, 1, 64, 68
1, 22080, Note_on_c, 3, 73, 100
1, 22080, Note_on_c, 3, 76, 100
1, 22080, Note_on_c, 7, 64, 65
1, 22080, Note_on_c, 7, 69, 72
1, 22080, Note_on_c, 7, 76, 72
1, 22292, Note_off_c, 1, 69, 0
1, 22356, Note_off_c, 7, 64, 0
1, 22362, Note_on_c, 10, 64, 67
1, 22362, Note_on_c, 10, 69, 73
1, 22362, Note_on_c, 10, 76, 74
1, 22370, Note_off_c, 7, 69, 0
1, 22372, Note_off_c, 7, 76, 0
1, 22552, Note_off_c, 3, 73, 64
1, 22552, Note_off_c, 3, 76, 64
1, 22560, Note_on_c, 6, 64, 73
1, 22560, Note_on_c, 6, 69, 80
1, 22560, Note_on_c, 6, 76, 77
1, 22578, Note_off_c, 10, 64, 0
1, 22598, Note_off_c, 10, 76, 0
1, 22608, Note_off_c, 10, 69, 0
1, 22694, Note_off_c, 1, 64, 0
1, 22822, Note_off_c, 6, 64, 0
1, 22838, Note_off_c, 6, 69, 0
1, 22848, Note_off_c, 6, 76, 0
1, 23040, Note_on_c, 1, 66, 77
1, 23040, Note_on_c, 3, 71, 100
1, 23040, Note_on_c, 3, 76, 100
1, 23040, Note_on_c, 7, 64, 67
1, 23040, Note_on_c, 7, 69, 75
1, 23040, Note_on_c, 7, 76, 70
1, 23270, Note_off_c, 7, 69, 0
1, 23288, Note_off_c, 7, 64, 0
1, 23298, Note_off_c, 7, 76, 0
1, 23322, Note_on_c, 10, 64, 68
1, 23322, Note_on_c, 10, 69, 74
1, 23322, Note_on_c, 10, 76, 75
1, 23512, Note_off_c, 3, 71, 64
1, 23512, Note_off_c, 3, 76, 64
1, 23520, Note_on_c, 1, 61, 70
1, 23520, Note_on_c, 3, 64, 100
1, 23520, Note_on_c, 3, 69, 100
1, 23520, Note_on_c, 6, 64, 68
1, 23520, Note_on_c, 6, 69, 70
1, 23520, Note_on_c, 6, 76, 74
1, 23594, Note_off_c, 10, 69, 0
1, 23598, Note_off_c, 10, 64, 0
1, 23612, Note_off_c, 10, 76, 0
1, 23682, Note_off_c, 1, 66, 0
1, 23806, Note_off_c, 6, 64, 0
1, 23818, Note_off_c, 6, 69, 0
1, 23818, Note_off_c, 6, 76, 0
1, 23992, Note_off_c, 3, 64, 64
1, 23992, Note_off_c, 3, 69, 64
1, 24000, Note_on_c, 7, 64, 66
1, 24000, Note_on_c, 7, 69, 68
1, 24000, Note_on_c, 7, 76, 72
1, 24148, Note_off_c, 1, 61, 0
1, 24260, Note_off_c, 7, 69, 0
1, 24270, Note_off_c, 7, 64, 0
1, 24274, Note_off_c, 7, 76, 0
1, 24282, Note_on_c, 10, 64, 73
1, 24282, Note_on_c, 10, 69, 80
1, 24282, Note_on_c, 10, 76, 77
1, 24480, Note_on_c, 1, 69, 77
1, 24480, Note_on_c, 3, 71, 100
1, 24480, Note_on_c, 3, 76, 100
1, 24480, Note_on_c, 6, 64, 70
1, 24480, Note_on_c, 6, 69, 74
1, 24480, Note_on_c, 6, 76, 74
1, 24544, Note_off_c, 10, 64, 0
1, 24560, Note_off_c, 10, 69, 0
1, 24570, Note_off_c, 10, 76, 0
1, 24684, Note_off_c, 6, 64, 0
1, 24714, Note_off_c, 6, 76, 0
1, 24752, Note_off_c, 6, 69, 0
1, 24952, Note_off_c, 3, 71, 64
1, 24952, Note_off_c, 3, 76, 64
1, 24960, Note_on_c, 7, 64, 62
1, 24960, Note_on_c, 7, 69, 60
1, 24960, Note_on_c, 7, 76, 70
1, 25128, Note_off_c, 1, 69, 0
1, 25220, Note_off_c, 7, 69, 0
1, 25238, Note_off_c, 7, 64, 0
1, 25242, Note_on_c, 10, 64, 68
1, 25242, Note_on_c, 10, 69, 70
1, 25242, Note_on_c, 10, 76, 74
1, 25298, Note_off_c, 7, 76, 0
1, 25440, Note_on_c, 1, 64, 68
1, 25440, Note_on_c, 3, 73, 100
1, 25440, Note_on_c, 3, 76, 100
1, 25440, Note_on_c, 6, 64, 68
1, 25440, Note_on_c, 6, 69, 68
1, 25440, Note_on_c, 6, 76, 72
1, 25528, Note_off_c, 10, 64, 0
1, 25540, Note_off_c, 10, 69, 0
1, 25540, Note_off_c, 10, 76, 0
1, 25646, Note_off_c, 6, 69, 0
1, 25654, Note_off_c, 6, 64, 0
1, 25664, Note_off_c, 6, 76, 0
1, 25884, Note_off_c, 1, 64, 0
1, 25912, Note_off_c, 3, 73, 64
1, 25912, Note_off_c, 3, 76, 64
1, 25920, Note_on_c, 1, 66, 78
1, 25920, Note_on_c, 3, 64, 100
1, 25920, Note_on_c, 3, 69, 100
1, 25920, Note_on_c, 7, 64, 56
1, 25920, Note_on_c, 7, 69, 69
1, 25920, Note_on_c, 7, 76, 73
1, 26186, Note_off_c, 7, 64, 0
1, 26202, Note_on_c, 10, 64, 70
1, 26202, Note_on_c, 10, 69, 74
1, 26202, Note_on_c, 10, 76, 74
1, 26214, Note_off_c, 7, 69, 0
1, 26222, Note_off_c, 7, 76, 0
1, 26392, Note_off_c, 3, 64, 64
1, 26392, Note_off_c, 3, 69, 64
1, 26400, Note_on_c, 6, 64, 70
1, 26400, Note_on_c, 6, 69, 70
1, 26400, Note_on_c, 6, 76, 75
1, 26406, Note_off_c, 10, 64, 0
1, 26436, Note_off_c, 10, 76, 0
1, 26474, Note_off_c, 10, 69, 0
1, 26588, Note_off_c, 1, 66, 0
1, 26628, Note_off_c, 6, 69, 0
1, 26670, Note_off_c, 6, 64, 0
1, 26708, Note_off_c, 6, 76, 0
1, 26880, Note_on_c, 1, 59, 74
1, 26880, Note_on_c, 3, 71, 100
1, 26880, Note_on_c, 3, 76, 100
1, 26880, Note_on_c, 7, 64, 66
1, 26880, Note_on_c, 7, 69, 70
1, 26880, Note_on_c, 7, 76, 75
1, 27130, Note_off_c, 7, 69, 0
1, 27144, Note_off_c, 7, 64, 0
1, 27162, Note_on_c, 10, 64, 68
1, 27162, Note_on_c, 10, 69, 68
1, 27162, Note_on_c, 10, 76, 72
1, 27170, Note_off_c, 7, 76, 0
1, 27352, Note_off_c, 3, 71, 64
1, 27352, Note_off_c, 3, 76, 64
1, 27360, Note_on_c, 1, 69, 75
1, 27360, Note_on_c, 3, 66, 100
1, 27360, Note_on_c, 3, 69, 100
1, 27360, Note_on_c, 6, 64, 69
1, 27360, Note_on_c, 6, 69, 69
1, 27360, Note_on_c, 6, 76, 73
1, 27368, Note_off_c, 1, 59, 0
1, 27368, Note_off_c, 10, 69, 0
1, 27376, Note_off_c, 10, 64, 0
1, 27386, Note_off_c, 10, 76, 0
1, 27626, Note_off_c, 6, 64, 0
1, 27664, Note_off_c, 6, 69, 0
1, 27664, Note_off_c, 6, 76, 0
1, 27832, Note_off_c, 3, 66, 64
1, 27832, Note_off_c, 3, 69, 64
1, 27840, Note_on_c, 1, 64, 73
1, 27840, Note_on_c, 3, 73, 100
1, 27840, Note_on_c, 3, 76, 100
1, 27840, Note_on_c, 7, 64, 66
1, 27840, Note_on_c, 7, 69, 70
1, 27840, Note_on_c, 7, 76, 75
1, 27966, Note_off_c, 1, 69, 0
1, 28090, Note_off_c, 7, 69, 0
1, 28104, Note_off_c, 7, 64, 0
1, 28122, Note_on_c, 10, 64, 70
1, 28122, Note_on_c, 10, 69, 70
1, 28122, Note_on_c, 10, 76, 75
1, 28130, Note_off_c, 7, 76, 0
1, 28312, Note_off_c, 3, 73, 64
1, 28312, Note_off_c, 3, 76, 64
1, 28320, Note_on_c, 6, 64, 67
1, 28320, Note_on_c, 6, 69, 63
1, 28320, Note_on_c, 6, 76, 74
1, 28350, Note_off_c, 10, 69, 0
1, 28392, Note_off_c, 10, 64, 0
1, 28430, Note_off_c, 10, 76, 0
1, 28524, Note_off_c, 6, 69, 0
1, 28546, Note_off_c, 1, 64, 0
1, 28586, Note_off_c, 6, 64, 0
1, 28586, Note_off_c, 6, 76, 0
1, 28800, Note_on_c, 1, 66, 68
1, 28800, Note_on_c, 3, 71, 100
1, 28800, Note_on_c, 3, 76, 100
1, 28800, Note_on_c, 7, 64, 72
1, 28800, Note_on_c, 7, 69, 80
1, 28800, Note_on_c, 7, 76, 77
1, 29040, Note_off_c, 7, 76, 0
1, 29050, Note_off_c, 7, 64, 0
1, 29050, Note_off_c, 7, 69, 0
1, 29082, Note_on_c, 10, 64, 69
1, 29082, Note_on_c, 10, 69, 69
1, 29082, Note_on_c, 10, 76, 73
1, 29272, Note_off_c, 3, 71, 64
1, 29272, Note_off_c, 3, 76, 64
1, 29280, Note_on_c, 1, 61, 68
1, 29280, Note_on_c, 3, 64, 100
1, 29280, Note_on_c, 3, 69, 100
1, 29280, Note_on_c, 6, 64, 66
1, 29280, Note_on_c, 6, 69, 63
1, 29280, Note_on_c, 6, 76, 74
1, 29316, Note_off_c, 1, 66, 0
1, 29348, Note_off_c, 10, 64, 0
1, 29386, Note_off_c, 10, 69, 0
1, 29386, Note_off_c, 10, 76, 0
1, 29510, Note_off_c, 6, 69, 0
1, 29516, Note_off_c, 6, 64, 0
1, 29554, Note_off_c, 6, 76, 0
1, 29752, Note_off_c, 3, 64, 64
1, 29752, Note_off_c, 3, 69, 64
1, 29760, Note_on_c, 7, 64, 70
1, 29760, Note_on_c, 7, 69, 77
1, 29760, Note_on_c, 7, 76, 77
1, 30014, Note_off_c, 7, 64, 0
1, 30042, Note_off_c, 7, 69, 0
1, 30042, Note_on_c, 10, 64, 67
1, 30042, Note_on_c, 10, 69, 63
1, 30042, Note_on_c, 10, 76, 74
1, 30050, Note_off_c, 1, 61, 0
1, 30050, Note_off_c, 7, 76, 0
1, 30240, Note_on_c, 1, 69, 77
1, 30240, Note_on_c, 3, 71, 100
1, 30240, Note_on_c, 3, 76, 100
1, 30240, Note_on_c, 6, 64, 68
1, 30240, Note_on_c, 6, 69, 74
1, 30240, Note_on_c, 6, 76, 74
1, 30246, Note_off_c, 10, 69, 0
1, 30308, Note_off_c, 10, 64, 0
1, 30308, Note_off_c, 10, 76, 0
1, 30500, Note_off_c, 6, 69, 0
1, 30530, Note_off_c, 6, 76, 0
1, 30534, Note_off_c, 6, 64, 0
1, 30712, Note_off_c, 3, 71, 64
1, 30712, Note_off_c, 3, 76, 64
1, 30720, Note_on_c, 7, 64, 70
1, 30720, Note_on_c, 7, 69, 73
1, 30720, Note_on_c, 7, 76, 74
1, 30864, Note_off_c, 1, 69, 0
1, 30960, Note_off_c, 7, 64, 0
1, 30966, Note_off_c, 7, 69, 0
1, 30980, Note_off_c, 7, 76, 0
1, 31002, Note_on_c, 10, 64, 66
1, 31002, Note_on_c, 10, 69, 63
1, 31002, Note_on_c, 10, 76, 74
1, 31200, Note_on_c, 1, 64, 70
1, 31200, Note_on_c, 3, 73, 100
1, 31200, Note_on_c, 3, 76, 100
1, 31200, Note_on_c, 6, 64, 73
1, 31200, Note_on_c, 6, 69, 82
1, 31200, Note_on_c, 6, 76, 77
1, 31232, Note_off_c, 10, 69, 0
1, 31238, Note_off_c, 10, 64, 0
1, 31276, Note_off_c, 10, 76, 0
1, 31478, Note_off_c, 6, 69, 0
1, 31490, Note_off_c, 6, 64, 0
1, 31498, Note_off_c, 6, 76, 0
1, 31672, Note_off_c, 3, 73, 64
1, 31672, Note_off_c, 3, 76, 64
1, 31680, Note_on_c, 1, 66, 77
1, 31680, Note_on_c, 3, 64, 100
1, 31680, Note_on_c, 3, 69, 100
1, 31680, Note_on_c, 7, 64, 72
1, 31680, Note_on_c, 7, 69, 77
1, 31680, Note_on_c, 7, 76, 75
1, 31832, Note_off_c, 1, 64, 0
1, 31888, Note_off_c, 7, 69, 0
1, 31902, Note_off_c, 7, 64, 0
1, 31922, Note_off_c, 7, 76, 0
1, 31962, Note_on_c, 10, 64, 68
1, 31962, Note_on_c, 10, 69, 74
1, 31962, Note_on_c, 10, 76, 74
1, 32152, Note_off_c, 3, 64, 64
1, 32152, Note_off_c, 3, 69, 64
1, 32160, Note_on_c, 6, 64, 72
1, 32160, Note_on_c, 6, 69, 75
1, 32160, Note_on_c, 6, 76, 73
1, 32222, Note_off_c, 10, 69, 0
1, 32252, Note_off_c, 10, 76, 0
1, 32256, Note_off_c, 10, 64, 0
1, 32324, Note_off_c, 1, 66, 0
1, 32448, Note_off_c, 6, 76, 0
1, 32450, Note_off_c, 6, 69, 0
1, 32458, Note_off_c, 6, 64, 0
1, 32640, Note_on_c, 1, 59, 65
1, 32640, Note_on_c, 3, 71, 100
1, 32640, Note_on_c, 3, 76, 100
1, 32640, Note_on_c, 7, 64, 70
1, 32640, Note_on_c, 7, 69, 78
1, 32640, Note_on_c, 7, 76, 77
1, 32882, Note_off_c, 7, 64, 0
1, 32904, Note_off_c, 7, 76, 0
1, 32922, Note_on_c, 10, 64, 73
1, 32922, Note_on_c, 10, 69, 82
1, 32922, Note_on_c, 10, 76, 77
1, 32928, Note_off_c, 7, 69, 0
1, 33112, Note_off_c, 3, 71, 64
1, 33112, Note_off_c, 3, 76, 64
1, 33120, Note_on_c, 1, 69, 74
1, 33120, Note_on_c, 3, 66, 100
1, 33120, Note_on_c, 3, 69, 100
1, 33120, Note_on_c, 6, 64, 69
1, 33120, Note_on_c, 6, 69, 70
1, 33120, Note_on_c, 6, 76, 72
1, 33200, Note_off_c, 10, 69, 0
1, 33212, Note_off_c, 10, 64, 0
1, 33214, Note_off_c, 1, 59, 0
1, 33220, Note_off_c, 10, 76, 0
1, 33384, Note_off_c, 6, 69, 0
1, 33408, Note_off_c, 6, 64, 0
1, 33424, Note_off_c, 6, 76, 0
1, 33592, Note_off_c, 3, 66, 64
1, 33592, Note_off_c, 3, 69, 64
1, 33600, Note_on_c, 1, 64, 68
1, 33600, Note_on_c, 3, 73, 100
1, 33600, Note_on_c, 3, 76, 100
1, 33600, Note_on_c, 7, 64, 70
1, 33600, Note_on_c, 7, 69, 72
1, 33600, Note_on_c, 7, 76, 77
1, 33812, Note_off_c, 1, 69, 0
1, 33854, Note_off_c, 7, 64, 0
1, 33866, Note_off_c, 7, 69, 0
1, 33882, Note_on_c, 10, 64, 72
1, 33882, Note_on_c, 10, 69, 75
1, 33882, Note_on_c, 10, 76, 73
1, 33922, Note_off_c, 7, 76, 0
1, 34072, Note_off_c, 3, 73, 64
1, 34072, Note_off_c, 3, 76, 64
1, 34080, Note_on_c, 6, 64, 68
1, 34080, Note_on_c, 6, 69, 77
1, 34080, Note_on_c, 6, 76, 73
1, 34170, Note_off_c, 10, 76, 0
1, 34172, Note_off_c, 10, 69, 0
1, 34180, Note_off_c, 10, 64, 0
1, 34214, Note_off_c, 1, 64, 0
1, 34346, Note_off_c, 6, 64, 0
1, 34364, Note_off_c, 6, 69, 0
1, 34364, Note_off_c, 6, 76, 0
1, 34560, Note_on_c, 1, 66, 77
1, 34560, Note_on_c, 3, 71, 100
1, 34560, Note_on_c, 3, 76, 100
1, 34560, Note_on_c, 7, 64, 73
1, 34560, Note_on_c, 7, 69, 77
1, 34560, Note_on_c, 7, 76, 74
1, 34842, Note_on_c, 10, 64, 69
1, 34842, Note_on_c, 10, 69, 70
1, 34842, Note_on_c, 10, 76, 72
1, 34844, Note_off_c, 7, 69, 0
1, 34876, Note_off_c, 7, 76, 0
1, 34882, Note_off_c, 7, 64, 0
1, 35032, Note_off_c, 3, 71, 64
1, 35032, Note_off_c, 3, 76, 64
1, 35040, Note_on_c, 1, 61, 70
1, 35040, Note_on_c, 3, 64, 100
1, 35040, Note_on_c, 3, 69, 100
1, 35040, Note_on_c, 6, 64, 72
1, 35040, Note_on_c, 6, 69, 52
1, 35040, Note_on_c, 6, 76, 72
1, 35106, Note_off_c, 10, 69, 0
1, 35130, Note_off_c, 10, 64, 0
1, 35146, Note_off_c, 10, 76, 0
1, 35192, Note_off_c, 6, 69, 0
1, 35202, Note_off_c, 1, 66, 0
1, 35280, Note_off_c, 6, 64, 0
1, 35286, Note_off_c, 6, 76, 0
1, 35512, Note_off_c, 3, 64, 64
1, 35512, Note_off_c, 3, 69, 64
1, 35520, Note_on_c, 7, 64, 68
1, 35520, Note_on_c, 7, 69, 70
1, 35520, Note_on_c, 7, 76, 72
1, 35668, Note_off_c, 1, 61, 0
1, 35802, Note_on_c, 10, 64, 68
1, 35802, Note_on_c, 10, 69, 77
1, 35802, Note_on_c, 10, 76, 73
1, 35810, Note_off_c, 7, 69, 0
1, 35828, Note_off_c, 7, 76, 0
1, 35834, Note_off_c, 7, 64, 0
1, 36000, Note_on_c, 1, 69, 77
1, 36000, Note_on_c, 3, 71, 100
1, 36000, Note_on_c, 3, 76, 100
1, 36000, Note_on_c, 6, 64, 68
1, 36000, Note_on_c, 6, 69, 70
1, 36000, Note_on_c, 6, 76, 74
1, 36068, Note_off_c, 10, 64, 0
1, 36086, Note_off_c, 10, 69, 0
1, 36086, Note_off_c, 10, 76, 0
1, 36232, Note_off_c, 6, 69, 0
1, 36242, Note_off_c, 6, 64, 0
1, 36250, Note_off_c, 6, 76, 0
1, 36472, Note_off_c, 3, 71, 64
1, 36472, Note_off_c, 3, 76, 64
1, 36480, Note_on_c, 7, 64, 68
1, 36480, Note_on_c, 7, 69, 70
1, 36480, Note_on_c, 7, 76, 73
1, 36648, Note_off_c, 1, 69, 0
1, 36728, Note_off_c, 7, 64, 0
1, 36742, Note_off_c, 7, 69, 0
1, 36742, Note_off_c, 7, 76, 0
1, 36762, Note_on_c, 10, 64, 72
1, 36762, Note_on_c, 10, 69, 52
1, 36762, Note_on_c, 10, 76, 72
1, 36914, Note_off_c, 10, 69, 0
1, 36960, Note_on_c, 1, 64, 68
1, 36960, Note_on_c, 3, 73, 100
1, 36960, Note_on_c, 3, 76, 100
1, 36960, Note_on_c, 6, 64, 68
1, 36960, Note_on_c, 6, 69, 69
1, 36960, Note_on_c, 6, 76, 72
1, 37002, Note_off_c, 10, 64, 0
1, 37008, Note_off_c, 10, 76, 0
1, 37176, Note_off_c, 6, 76, 0
1, 37178, Note_off_c, 6, 69, 0
1, 37192, Note_off_c, 6, 64, 0
1, 37404, Note_off_c, 1, 64, 0
1, 37432, Note_off_c, 3, 73, 64
1, 37432, Note_off_c, 3, 76, 64
1, 37440, Note_on_c, 0, 54, 5
1, 37440, Note_on_c, 0, 57, 5
1, 37440, Note_on_c, 1, 66, 78
1, 37440, Note_on_c, 2, 66, 5
1, 37440, Note_on_c, 2, 69, 5
1, 37440, Note_on_c, 3, 64, 100
1, 37440, Note_on_c, 3, 69, 100
1, 37440, Note_on_c, 4, 69, 5
1, 37440, Note_on_c, 5, 66, 5
1, 37440, Note_on_c, 7, 64, 70
1, 37440, Note_on_c, 7, 69, 83
1, 37440, Note_on_c, 7, 76, 74
1, 37440, Note_on_c, 8, 57, 14
1, 37440, Note_on_c, 8, 61, 14
1, 37440, Note_on_c, 13, 49, 23
1, 37440, Note_on_c, 13, 54, 23
1, 37672, Note_off_c, 8, 57, 0
1, 37672, Note_off_c, 8, 61, 0
1, 37672, Note_off_c, 13, 49, 0
1, 37672, Note_off_c, 13, 54, 0
1, 37680, Note_off_c, 7, 64, 0
1, 37680, Note_off_c, 7, 76, 0
1, 37690, Note_off_c, 7, 69, 0
1, 37722, Note_on_c, 10, 64, 68
1, 37722, Note_on_c, 10, 69, 70
1, 37722, Note_on_c, 10, 76, 74
1, 37912, Note_off_c, 0, 54, 64
1, 37912, Note_off_c, 0, 57, 64
1, 37912, Note_off_c, 2, 66, 64
1, 37912, Note_off_c, 2, 69, 64
1, 37912, Note_off_c, 3, 64, 64
1, 37912, Note_off_c, 3, 69, 64
1, 37912, Note_off_c, 4, 69, 0
1, 37912, Note_off_c, 5, 66, 0
1, 37920, Note_on_c, 6, 64, 67
1, 37920, Note_on_c, 6, 69, 67
1, 37920, Note_on_c, 6, 76, 72
1, 37920, Note_on_c, 8, 49, 23
1, 37920, Note_on_c, 8, 54, 23
1, 37920, Note_on_c, 13, 57, 14
1, 37920, Note_on_c, 13, 61, 14
1, 37954, Note_off_c, 10, 69, 0
1, 37964, Note_off_c, 10, 64, 0
1, 37972, Note_off_c, 10, 76, 0
1, 38108, Note_off_c, 1, 66, 0
1, 38152, Note_off_c, 8, 49, 0
1, 38152, Note_off_c, 8, 54, 0
1, 38152, Note_off_c, 13, 57, 0
1, 38152, Note_off_c, 13, 61, 0
1, 38166, Note_off_c, 6, 64, 0
1, 38170, Note_off_c, 6, 69, 0
1, 38186, Note_off_c, 6, 76, 0
1, 38400, Note_on_c, 0, 56, 5
1, 38400, Note_on_c, 0, 59, 5
1, 38400, Note_on_c, 1, 59, 74
1, 38400, Note_on_c, 2, 68, 5
1, 38400, Note_on_c, 2, 71, 5
1, 38400, Note_on_c, 3, 71, 100
1, 38400, Note_on_c, 3, 76, 100
1, 38400, Note_on_c, 4, 71, 5
1, 38400, Note_on_c, 5, 68, 5
1, 38400, Note_on_c, 7, 64, 67
1, 38400, Note_on_c, 7, 69, 78
1, 38400, Note_on_c, 7, 76, 73
1, 38400, Note_on_c, 8, 57, 32
1, 38400, Note_on_c, 8, 61, 32
1, 38400, Note_on_c, 13, 49, 41
1, 38400, Note_on_c, 13, 54, 41
1, 38632, Note_off_c, 8, 57, 0
1, 38632, Note_off_c, 8, 61, 0
1, 38632, Note_off_c, 13, 49, 0
1, 38632, Note_off_c, 13, 54, 0
1, 38650, Note_off_c, 7, 76, 0
1, 38656, Note_off_c, 7, 69, 0
1, 38664, Note_off_c, 7, 64, 0
1, 38682, Note_on_c, 10, 64, 68
1, 38682, Note_on_c, 10, 69, 69
1, 38682, Note_on_c, 10, 76, 72
1, 38872, Note_off_c, 0, 56, 64
1, 38872, Note_off_c, 0, 59, 64
1, 38872, Note_off_c, 2, 68, 64
1, 38872, Note_off_c, 2, 71, 64
1, 38872, Note_off_c, 3, 71, 64
1, 38872, Note_off_c, 3, 76, 64
1, 38872, Note_off_c, 4, 71, 0
1, 38872, Note_off_c, 5, 68, 0
1, 38880, Note_on_c, 0, 54, 8
1, 38880, Note_on_c, 0, 57, 8
1, 38880, Note_on_c, 1, 69, 75
1, 38880, Note_on_c, 2, 66, 8
1, 38880, Note_on_c, 2, 69, 8
1, 38880, Note_on_c, 3, 66, 100
1, 38880, Note_on_c, 3, 69, 100
1, 38880, Note_on_c, 4, 69, 8
1, 38880, Note_on_c, 5, 66, 8
1, 38880, Note_on_c, 6, 64, 67
1, 38880, Note_on_c, 6, 69, 63
1, 38880, Note_on_c, 6, 76, 72
1, 38880, Note_on_c, 8, 49, 41
1, 38880, Note_on_c, 8, 54, 41
1, 38880, Note_on_c, 13, 57, 32
1, 38880, Note_on_c, 13, 61, 32
1, 38888, Note_off_c, 1, 59, 0
1, 38898, Note_off_c, 10, 76, 0
1, 38900, Note_off_c, 10, 69, 0
1, 38914, Note_off_c, 10, 64, 0
1, 39112, Note_off_c, 8, 49, 0
1, 39112, Note_off_c, 8, 54, 0
1, 39112, Note_off_c, 13, 57, 0
1, 39112, Note_off_c, 13, 61, 0
1, 39128, Note_off_c, 6, 69, 0
1, 39156, Note_off_c, 6, 64, 0
1, 39172, Note_off_c, 6, 76, 0
1, 39352, Note_off_c, 0, 54, 64
1, 39352, Note_off_c, 0, 57, 64
1, 39352, Note_off_c, 2, 66, 64
1, 39352, Note_off_c, 2, 69, 64
1, 39352, Note_off_c, 3, 66, 64
1, 39352, Note_off_c, 3, 69, 64
1, 39352, Note_off_c, 4, 69, 0
1, 39352, Note_off_c, 5, 66, 0
1, 39360, Note_on_c, 0, 57, 11
1, 39360, Note_on_c, 0, 61, 11
1, 39360, Note_on_c, 1, 64, 73
1, 39360, Note_on_c, 2, 69, 11
1, 39360, Note_on_c, 2, 73, 11
1, 39360, Note_on_c, 3, 73, 100
1, 39360, Note_on_c, 3, 76, 100
1, 39360, Note_on_c, 4, 73, 11
1, 39360, Note_on_c, 5, 69, 11
1, 39360, Note_on_c, 7, 64, 69
1, 39360, Note_on_c, 7, 69, 70
1, 39360, Note_on_c, 7, 76, 73
1, 39360, Note_on_c, 8, 59, 50
1, 39360, Note_on_c, 8, 61, 50
1, 39360, Note_on_c, 13, 49, 59
1, 39360, Note_on_c, 13, 56, 59
1, 39486, Note_off_c, 1, 69, 0
1, 39580, Note_off_c, 7, 69, 0
1, 39592, Note_off_c, 8, 59, 0
1, 39592, Note_off_c, 8, 61, 0
1, 39592, Note_off_c, 13, 49, 0
1, 39592, Note_off_c, 13, 56, 0
1, 39602, Note_off_c, 7, 76, 0
1, 39612, Note_off_c, 7, 64, 0
1, 39642, Note_on_c, 10, 64, 67
1, 39642, Note_on_c, 10, 69, 67
1, 39642, Note_on_c, 10, 76, 72
1, 39832, Note_off_c, 0, 57, 64
1, 39832, Note_off_c, 0, 61, 64
1, 39832, Note_off_c, 2, 69, 64
1, 39832, Note_off_c, 2, 73, 64
1, 39832, Note_off_c, 3, 73, 64
1, 39832, Note_off_c, 3, 76, 64
1, 39832, Note_off_c, 4, 73, 0
1, 39832, Note_off_c, 5, 69, 0
1, 39840, Note_on_c, 6, 64, 68
1, 39840, Note_on_c, 6, 69, 66
1, 39840, Note_on_c, 6, 76, 70
1, 39840, Note_on_c, 8, 49, 59
1, 39840, Note_on_c, 8, 56, 59
1, 39840, Note_on_c, 13, 59, 50
1, 39840, Note_on_c, 13, 61, 50
1, 39888, Note_off_c, 10, 64, 0
1, 39892, Note_off_c, 10, 69, 0
1, 39908, Note_off_c, 10, 76, 0
1, 40036, Note_off_c, 6, 69, 0
1, 40060, Note_off_c, 6, 64, 0
1, 40066, Note_off_c, 1, 64, 0
1, 40072, Note_off_c, 8, 49, 0
1, 40072, Note_off_c, 8, 56, 0
1, 40072, Note_off_c, 13, 59, 0
1, 40072, Note_off_c, 13, 61, 0
1, 40078, Note_off_c, 6, 76, 0
1, 40320, Note_on_c, 1, 66, 68
1, 40320, Note_on_c, 3, 71, 100
1, 40320, Note_on_c, 3, 76, 100
1, 40320, Note_on_c, 7, 64, 69
1, 40320, Note_on_c, 7, 69, 75
1, 40320, Note_on_c, 7, 76, 73
1, 40320, Note_on_c, 8, 59, 68
1, 40320, Note_on_c, 8, 61, 68
1, 40320, Note_on_c, 13, 49, 76
1, 40320, Note_on_c, 13, 56, 76
1, 40534, Note_off_c, 7, 69, 0
1, 40550, Note_off_c, 7, 64, 0
1, 40552, Note_off_c, 8, 59, 0
1, 40552, Note_off_c, 8, 61, 0
1, 40552, Note_off_c, 13, 49, 0
1, 40552, Note_off_c, 13, 56, 0
1, 40564, Note_off_c, 7, 76, 0
1, 40602, Note_on_c, 10, 64, 67
1, 40602, Note_on_c, 10, 69, 63
1, 40602, Note_on_c, 10, 76, 72
1, 40792, Note_off_c, 3, 71, 64
1, 40792, Note_off_c, 3, 76, 64
1, 40800, Note_on_c, 1, 61, 68
1, 40800, Note_on_c, 3, 64, 100
1, 40800, Note_on_c, 3, 69, 100
1, 40800, Note_on_c, 6, 64, 68
1, 40800, Note_on_c, 6, 69, 63
1, 40800, Note_on_c, 6, 76, 72
1, 40800, Note_on_c, 8, 49, 76
1, 40800, Note_on_c, 8, 56, 76
1, 40800, Note_on_c, 13, 59, 68
1, 40800, Note_on_c, 13, 61, 68
1, 40836, Note_off_c, 1, 66, 0
1, 40850, Note_off_c, 10, 69, 0
1, 40878, Note_off_c, 10, 64, 0
1, 40894, Note_off_c, 10, 76, 0
1, 41010, Note_off_c, 6, 64, 0
1, 41032, Note_off_c, 8, 49, 0
1, 41032, Note_off_c, 8, 56, 0
1, 41032, Note_off_c, 13, 59, 0
1, 41032, Note_off_c, 13, 61, 0
1, 41044, Note_off_c, 6, 76, 0
1, 41062, Note_off_c, 6, 69, 0
1, 41272, Note_off_c, 3, 64, 64
1, 41272, Note_off_c, 3, 69, 64
1, 41280, Note_on_c, 7, 64, 68
1, 41280, Note_on_c, 7, 69, 74
1, 41280, Note_on_c, 7, 76, 74
1, 41280, Note_on_c, 8, 59, 86
1, 41280, Note_on_c, 8, 61, 86
1, 41280, Note_on_c, 13, 49, 95
1, 41280, Note_on_c, 13, 56, 95
1, 41504, Note_off_c, 7, 69, 0
1, 41512, Note_off_c, 8, 59, 0
1, 41512, Note_off_c, 8, 61, 0
1, 41512, Note_off_c, 13, 49, 0
1, 41512, Note_off_c, 13, 56, 0
1, 41544, Note_off_c, 7, 64, 0
1, 41554, Note_off_c, 7, 76, 0
1, 41562, Note_on_c, 10, 64, 68
1, 41562, Note_on_c, 10, 69, 66
1, 41562, Note_on_c, 10, 76, 70
1, 41570, Note_off_c, 1, 61, 0
1, 41758, Note_off_c, 10, 69, 0
1, 41760, Note_on_c, 1, 69, 77
1, 41760, Note_on_c, 3, 71, 100
1, 41760, Note_on_c, 3, 76, 100
1, 41760, Note_on_c, 6, 64, 70
1, 41760, Note_on_c, 6, 69, 69
1, 41760, Note_on_c, 6, 76, 72
1, 41760, Note_on_c, 8, 49, 95
1, 41760, Note_on_c, 8, 56, 95
1, 41760, Note_on_c, 13, 59, 86
1, 41760, Note_on_c, 13, 61, 86
1, 41782, Note_off_c, 10, 64, 0
1, 41800, Note_off_c, 10, 76, 0
1, 41992, Note_off_c, 8, 49, 0
1, 41992, Note_off_c, 8, 56, 0
1, 41992, Note_off_c, 13, 59, 0
1, 41992, Note_off_c, 13, 61, 0
1, 41994, Note_off_c, 6, 69, 0
1, 42022, Note_off_c, 6, 64, 0
1, 42022, Note_off_c, 6, 76, 0
1, 42232, Note_off_c, 3, 71, 64
1, 42232, Note_off_c, 3, 76, 64
1, 42240, Note_on_c, 7, 64, 68
1, 42240, Note_on_c, 7, 69, 73
1, 42240, Note_on_c, 7, 76, 73
1, 42240, Note_on_c, 8, 59, 100
1, 42240, Note_on_c, 8, 61, 100
1, 42240, Note_on_c, 13, 49, 100
1, 42240, Note_on_c, 13, 56, 100
1, 42384, Note_off_c, 1, 69, 0
1, 42464, Note_off_c, 7, 64, 0
1, 42472, Note_off_c, 8, 59, 0
1, 42472, Note_off_c, 8, 61, 0
1, 42472, Note_off_c, 13, 49, 0
1, 42472, Note_off_c, 13, 56, 0
1, 42488, Note_off_c, 7, 69, 0
1, 42488, Note_off_c, 7, 76, 0
1, 42522, Note_on_c, 10, 64, 68
1, 42522, Note_on_c, 10, 69, 63
1, 42522, Note_on_c, 10, 76, 72
1, 42720, Note_on_c, 1, 64, 70
1, 42720, Note_on_c, 3, 73, 100
1, 42720, Note_on_c, 3, 76, 100
1, 42720, Note_on_c, 6, 64, 68
1, 42720, Note_on_c, 6, 69, 70
1, 42720, Note_on_c, 6, 76, 70
1, 42720, Note_on_c, 8, 49, 100
1, 42720, Note_on_c, 8, 56, 100
1, 42720, Note_on_c, 13, 59, 100
1, 42720, Note_on_c, 13, 61, 100
1, 42732, Note_off_c, 10, 64, 0
1, 42766, Note_off_c, 10, 76, 0
1, 42784, Note_off_c, 10, 69, 0
1, 42928, Note_off_c, 6, 64, 0
1, 42952, Note_off_c, 8, 49, 0
1, 42952, Note_off_c, 8, 56, 0
1, 42952, Note_off_c, 13, 59, 0
1, 42952, Note_off_c, 13, 61, 0
1, 42956, Note_off_c, 6, 69, 0
1, 42960, Note_off_c, 6, 76, 0
1, 43192, Note_off_c, 3, 73, 64
1, 43192, Note_off_c, 3, 76, 64
1, 43200, Note_on_c, 0, 54, 35
1, 43200, Note_on_c, 0, 57, 35
1, 43200, Note_on_c, 1, 66, 77
1, 43200, Note_on_c, 2, 66, 35
1, 43200, Note_on_c, 2, 69, 35
1, 43200, Note_on_c, 3, 64, 100
1, 43200, Note_on_c, 3, 69, 100
1, 43200, Note_on_c, 4, 69, 35
1, 43200, Note_on_c, 5, 66, 35
1, 43200, Note_on_c, 7, 64, 66
1, 43200, Note_on_c, 7, 69, 74
1, 43200, Note_on_c, 7, 76, 73
1, 43200, Note_on_c, 8, 57, 100
1, 43200, Note_on_c, 8, 61, 100
1, 43200, Note_on_c, 13, 49, 100
1, 43200, Note_on_c, 13, 54, 100
1, 43352, Note_off_c, 1, 64, 0
1, 43432, Note_off_c, 8, 57, 0
1, 43432, Note_off_c, 8, 61, 0
1, 43432, Note_off_c, 13, 49, 0
1, 43432, Note_off_c, 13, 54, 0
1, 43434, Note_off_c, 7, 64, 0
1, 43454, Note_off_c, 7, 76, 0
1, 43482, Note_off_c, 7, 69, 0
1, 43482, Note_on_c, 10, 64, 70
1, 43482, Note_on_c, 10, 69, 69
1, 43482, Note_on_c, 10, 76, 72
1, 43672, Note_off_c, 0, 54, 64
1, 43672, Note_off_c, 0, 57, 64
1, 43672, Note_off_c, 2, 66, 64
1, 43672, Note_off_c, 2, 69, 64
1, 43672, Note_off_c, 3, 64, 64
1, 43672, Note_off_c, 3, 69, 64
1, 43672, Note_off_c, 4, 69, 0
1, 43672, Note_off_c, 5, 66, 0
1, 43680, Note_on_c, 6, 64, 67
1, 43680, Note_on_c, 6, 69, 73
1, 43680, Note_on_c, 6, 76, 74
1, 43680, Note_on_c, 8, 49, 100
1, 43680, Note_on_c, 8, 54, 100
1, 43680, Note_on_c, 13, 57, 100
1, 43680, Note_on_c, 13, 61, 100
1, 43716, Note_off_c, 10, 69, 0
1, 43744, Note_off_c, 10, 64, 0
1, 43744, Note_off_c, 10, 76, 0
1, 43844, Note_off_c, 1, 66, 0
1, 43896, Note_off_c, 6, 64, 0
1, 43912, Note_off_c, 8, 49, 0
1, 43912, Note_off_c, 8, 54, 0
1, 43912, Note_off_c, 13, 57, 0
1, 43912, Note_off_c, 13, 61, 0
1, 43916, Note_off_c, 6, 76, 0
1, 43926, Note_off_c, 6, 69, 0
1, 44160, Note_on_c, 0, 56, 41
1, 44160, Note_on_c, 0, 59, 41
1, 44160, Note_on_c, 1, 59, 65
1, 44160, Note_on_c, 2, 68, 41
1, 44160, Note_on_c, 2, 71, 41
1, 44160, Note_on_c, 3, 71, 100
1, 44160, Note_on_c, 3, 76, 100
1, 44160, Note_on_c, 4, 71, 41
1, 44160, Note_on_c, 5, 68, 30
1, 44160, Note_on_c, 7, 64, 66
1, 44160, Note_on_c, 7, 69, 77
1, 44160, Note_on_c, 7, 76, 70
1, 44160, Note_on_c, 8, 57, 100
1, 44160, Note_on_c, 8, 61, 100
1, 44160, Note_on_c, 13, 49, 100
1, 44160, Note_on_c, 13, 54, 100
1, 44388, Note_off_c, 7, 64, 0
1, 44392, Note_off_c, 8, 57, 0
1, 44392, Note_off_c, 8, 61, 0
1, 44392, Note_off_c, 13, 49, 0
1, 44392, Note_off_c, 13, 54, 0
1, 44442, Note_on_c, 10, 64, 68
1, 44442, Note_on_c, 10, 69, 70
1, 44442, Note_on_c, 10, 76, 70
1, 44446, Note_off_c, 7, 69, 0
1, 44470, Note_off_c, 7, 76, 0
1, 44632, Note_off_c, 0, 56, 64
1, 44632, Note_off_c, 0, 59, 64
1, 44632, Note_off_c, 2, 68, 64
1, 44632, Note_off_c, 2, 71, 64
1, 44632, Note_off_c, 3, 71, 64
1, 44632, Note_off_c, 3, 76, 64
1, 44632, Note_off_c, 4, 71, 0
1, 44632, Note_off_c, 5, 68, 0
1, 44640, Note_on_c, 0, 54, 42
1, 44640, Note_on_c, 0, 57, 42
1, 44640, Note_on_c, 1, 69, 74
1, 44640, Note_on_c, 2, 66, 42
1, 44640, Note_on_c, 2, 69, 42
1, 44640, Note_on_c, 3, 66, 100
1, 44640, Note_on_c, 3, 69, 100
1, 44640, Note_on_c, 4, 69, 42
1, 44640, Note_on_c, 5, 66, 33
1, 44640, Note_on_c, 6, 64, 68
1, 44640, Note_on_c, 6, 69, 74
1, 44640, Note_on_c, 6, 76, 75
1, 44640, Note_on_c, 8, 49, 100
1, 44640, Note_on_c, 8, 54, 100
1, 44640, Note_on_c, 13, 57, 100
1, 44640, Note_on_c, 13, 61, 100
1, 44650, Note_off_c, 10, 64, 0
1, 44678, Note_off_c, 10, 69, 0
1, 44682, Note_off_c, 10, 76, 0
1, 44734, Note_off_c, 1, 59, 0
1, 44872, Note_off_c, 8, 49, 0
1, 44872, Note_off_c, 8, 54, 0
1, 44872, Note_off_c, 13, 57, 0
1, 44872, Note_off_c, 13, 61, 0
1, 44912, Note_off_c, 6, 69, 0
1, 44916, Note_off_c, 6, 64, 0
1, 44930, Note_off_c, 6, 76, 0
1, 45112, Note_off_c, 0, 54, 64
1, 45112, Note_off_c, 0, 57, 64
1, 45112, Note_off_c, 2, 66, 64
1, 45112, Note_off_c, 2, 69, 64
1, 45112, Note_off_c, 3, 66, 64
1, 45112, Note_off_c, 3, 69, 64
1, 45112, Note_off_c, 4, 69, 0
1, 45112, Note_off_c, 5, 66, 0
1, 45120, Note_on_c, 0, 57, 45
1, 45120, Note_on_c, 0, 61, 45
1, 45120, Note_on_c, 1, 64, 68
1, 45120, Note_on_c, 2, 69, 45
1, 45120, Note_on_c, 2, 73, 45
1, 45120, Note_on_c, 3, 73, 100
1, 45120, Note_on_c, 3, 76, 100
1, 45120, Note_on_c, 4, 73, 45
1, 45120, Note_on_c, 5, 69, 38
1, 45120, Note_on_c, 7, 64, 65
1, 45120, Note_on_c, 7, 69, 72
1, 45120, Note_on_c, 7, 76, 72
1, 45120, Note_on_c, 8, 59, 100
1, 45120, Note_on_c, 8, 61, 100
1, 45120, Note_on_c, 13, 49, 100
1, 45120, Note_on_c, 13, 56, 100
1, 45332, Note_off_c, 1, 69, 0
1, 45352, Note_off_c, 8, 59, 0
1, 45352, Note_off_c, 8, 61, 0
1, 45352, Note_off_c, 13, 49, 0
1, 45352, Note_off_c, 13, 56, 0
1, 45396, Note_off_c, 7, 64, 0
1, 45402, Note_on_c, 10, 64, 67
1, 45402, Note_on_c, 10, 69, 73
1, 45402, Note_on_c, 10, 76, 74
1, 45410, Note_off_c, 7, 69, 0
1, 45412, Note_off_c, 7, 76, 0
1, 45592, Note_off_c, 0, 57, 64
1, 45592, Note_off_c, 0, 61, 64
1, 45592, Note_off_c, 2, 69, 64
1, 45592, Note_off_c, 2, 73, 64
1, 45592, Note_off_c, 3, 73, 64
1, 45592, Note_off_c, 3, 76, 64
1, 45592, Note_off_c, 4, 73, 0
1, 45592, Note_off_c, 5, 69, 0
1, 45600, Note_on_c, 6, 64, 73
1, 45600, Note_on_c, 6, 69, 80
1, 45600, Note_on_c, 6, 76, 77
1, 45600, Note_on_c, 8, 49, 100
1, 45600, Note_on_c, 8, 56, 100
1, 45600, Note_on_c, 13, 59, 100
1, 45600, Note_on_c, 13, 61, 100
1, 45618, Note_off_c, 10, 64, 0
1, 45638, Note_off_c, 10, 76, 0
1, 45648, Note_off_c, 10, 69, 0
1, 45734, Note_off_c, 1, 64, 0
1, 45832, Note_off_c, 8, 49, 0
1, 45832, Note_off_c, 8, 56, 0
1, 45832, Note_off_c, 13, 59, 0
1, 45832, Note_off_c, 13, 61, 0
1, 45862, Note_off_c, 6, 64, 0
1, 45878, Note_off_c, 6, 69, 0
1, 45888, Note_off_c, 6, 76, 0
1, 46080, Note_on_c, 1, 66, 77
1, 46080, Note_on_c, 3, 71, 100
1, 46080, Note_on_c, 3, 76, 100
1, 46080, Note_on_c, 7, 64, 67
1, 46080, Note_on_c, 7, 69, 75
1, 46080, Note_on_c, 7, 76, 70
1, 46080, Note_on_c, 8, 59, 100
1, 46080, Note_on_c, 8, 61, 100
1, 46080, Note_on_c, 13, 49, 100
1, 46080, Note_on_c, 13, 56, 100
1, 46310, Note_off_c, 7, 69, 0
1, 46312, Note_off_c, 8, 59, 0
1, 46312, Note_off_c, 8, 61, 0
1, 46312, Note_off_c, 13, 49, 0
1, 46312, Note_off_c, 13, 56, 0
1, 46328, Note_off_c, 7, 64, 0
1, 46338, Note_off_c, 7, 76, 0
1, 46362, Note_on_c, 10, 64, 68
1, 46362, Note_on_c, 10, 69, 74
1, 46362, Note_on_c, 10, 76, 75
1, 46552, Note_off_c, 3, 71, 64
1, 46552, Note_off_c, 3, 76, 64
1, 46560, Note_on_c, 1, 61, 70
1, 46560, Note_on_c, 3, 64, 100
1, 46560, Note_on_c, 3, 69, 100
1, 46560, Note_on_c, 6, 64, 68
1, 46560, Note_on_c, 6, 69, 70
1, 46560, Note_on_c, 6, 76, 74
1, 46560, Note_on_c, 8, 49, 100
1, 46560, Note_on_c, 8, 56, 100
1, 46560, Note_on_c, 13, 59, 100
1, 46560, Note_on_c, 13, 61, 100
1, 46634, Note_off_c, 10, 69, 0
1, 46638, Note_off_c, 10, 64, 0
1, 46652, Note_off_c, 10, 76, 0
1, 46722, Note_off_c, 1, 66, 0
1, 46792, Note_off_c, 8, 49, 0
1, 46792, Note_off_c, 8, 56, 0
1, 46792, Note_off_c, 13, 59, 0
1, 46792, Note_off_c, 13, 61, 0
1, 46846, Note_off_c, 6, 64, 0
1, 46858, Note_off_c, 6, 69, 0
1, 46858, Note_off_c, 6, 76, 0
1, 47032, Note_off_c, 3, 64, 64
1, 47032, Note_off_c, 3, 69, 64
1, 47040, Note_on_c, 7, 64, 66
1, 47040, Note_on_c, 7, 69, 68
1, 47040, Note_on_c, 7, 76, 72
1, 47040, Note_on_c, 8, 59, 100
1, 47040, Note_on_c, 8, 61, 100
1, 47040, Note_on_c, 13, 49, 100
1, 47040, Note_on_c, 13, 56, 100
1, 47188, Note_off_c, 1, 61, 0
1, 47272, Note_off_c, 8, 59, 0
1, 47272, Note_off_c, 8, 61, 0
1, 47272, Note_off_c, 13, 49, 0
1, 47272, Note_off_c, 13, 56, 0
1, 47300, Note_off_c, 7, 69, 0
1, 47310, Note_off_c, 7, 64, 0
1, 47314, Note_off_c, 7, 76, 0
1, 47322, Note_on_c, 10, 64, 73
1, 47322, Note_on_c, 10, 69, 80
1, 47322, Note_on_c, 10, 76, 77
1, 47520, Note_on_c, 1, 69, 77
1, 47520, Note_on_c, 3, 71, 100
1, 47520, Note_on_c, 3, 76, 100
1, 47520, Note_on_c, 6, 64, 70
1, 47520, Note_on_c, 6, 69, 74
1, 47520, Note_on_c, 6, 76, 74
1, 47520, Note_on_c, 8, 49, 100
1, 47520, Note_on_c, 8, 56, 100
1, 47520, Note_on_c, 13, 59, 100
1, 47520, Note_on_c, 13, 61, 100
1, 47584, Note_off_c, 10, 64, 0
1, 47600, Note_off_c, 10, 69, 0
1, 47610, Note_off_c, 10, 76, 0
1, 47724, Note_off_c, 6, 64, 0
1, 47752, Note_off_c, 8, 49, 0
1, 47752, Note_off_c, 8, 56, 0
1, 47752, Note_off_c, 13, 59, 0
1, 47752, Note_off_c, 13, 61, 0
1, 47754, Note_off_c, 6, 76, 0
1, 47792, Note_off_c, 6, 69, 0
1, 47992, Note_off_c, 3, 71, 64
1, 47992, Note_off_c, 3, 76, 64
1, 48000, Note_on_c, 7, 64, 62
1, 48000, Note_on_c, 7, 69, 60
1, 48000, Note_on_c, 7, 76, 70
1, 48000, Note_on_c, 8, 59, 100
1, 48000, Note_on_c, 8, 61, 100
1, 48000, Note_on_c, 13, 49, 100
1, 48000, Note_on_c, 13, 56, 100
1, 48168, Note_off_c, 1, 69, 0
1, 48232, Note_off_c, 8, 59, 0
1, 48232, Note_off_c, 8, 61, 0
1, 48232, Note_off_c, 13, 49, 0
1, 48232, Note_off_c, 13, 56, 0
1, 48260, Note_off_c, 7, 69, 0
1, 48278, Note_off_c, 7, 64, 0
1, 48282, Note_on_c, 10, 64, 68
1, 48282, Note_on_c, 10, 69, 70
1, 48282, Note_on_c, 10, 76, 74
1, 48338, Note_off_c, 7, 76, 0
1, 48480, Note_on_c, 1, 64, 68
1, 48480, Note_on_c, 3, 73, 100
1, 48480, Note_on_c, 3, 76, 100
1, 48480, Note_on_c, 6, 64, 68
1, 48480, Note_on_c, 6, 69, 68
1, 48480, Note_on_c, 6, 76, 72
1, 48480, Note_on_c, 8, 49, 100
1, 48480, Note_on_c, 8, 56, 100
1, 48480, Note_on_c, 13, 59, 100
1, 48480, Note_on_c, 13, 61, 100
1, 48568, Note_off_c, 10, 64, 0
1, 48580, Note_off_c, 10, 69, 0
1, 48580, Note_off_c, 10, 76, 0
1, 48686, Note_off_c, 6, 69, 0
1, 48694, Note_off_c, 6, 64, 0
1, 48704, Note_off_c, 6, 76, 0
1, 48712, Note_off_c, 8, 49, 0
1, 48712, Note_off_c, 8, 56, 0
1, 48712, Note_off_c, 13, 59, 0
1, 48712, Note_off_c, 13, 61, 0
1, 48924, Note_off_c, 1, 64, 0
1, 48952, Note_off_c, 3, 73, 64
1, 48952, Note_off_c, 3, 76, 64
1, 48960, Note_on_c, 0, 54, 64
1, 48960, Note_on_c, 0, 57, 64
1, 48960, Note_on_c, 1, 66, 78
1, 48960, Note_on_c, 2, 66, 64
1, 48960, Note_on_c, 2, 69, 64
1, 48960, Note_on_c, 3, 64, 100
1, 48960, Note_on_c, 3, 69, 100
1, 48960, Note_on_c, 4, 69, 64
1, 48960, Note_on_c, 5, 66, 63
1, 48960, Note_on_c, 7, 64, 56
1, 48960, Note_on_c, 7, 69, 69
1, 48960, Note_on_c, 7, 76, 73
1, 48960, Note_on_c, 8, 57, 100
1, 48960, Note_on_c, 8, 61, 100
1, 48960, Note_on_c, 13, 49, 100
1, 48960, Note_on_c, 13, 54, 100
1, 49192, Note_off_c, 8, 57, 0
1, 49192, Note_off_c, 8, 61, 0
1, 49192, Note_off_c, 13, 49, 0
1, 49192, Note_off_c, 13, 54, 0
1, 49226, Note_off_c, 7, 64, 0
1, 49242, Note_on_c, 10, 64, 70
1, 49242, Note_on_c, 10, 69, 74
1, 49242, Note_on_c, 10, 76, 74
1, 49254, Note_off_c, 7, 69, 0
1, 49262, Note_off_c, 7, 76, 0
1, 49432, Note_off_c, 0, 54, 64
1, 49432, Note_off_c, 0, 57, 64
1, 49432, Note_off_c, 2, 66, 64
1, 49432, Note_off_c, 2, 69, 64
1, 49432, Note_off_c, 3, 64, 64
1, 49432, Note_off_c, 3, 69, 64
1, 49432, Note_off_c, 4, 69, 0
1, 49432, Note_off_c, 5, 66, 0
1, 49440, Note_on_c, 6, 64, 70
1, 49440, Note_on_c, 6, 69, 70
1, 49440, Note_on_c, 6, 76, 75
1, 49440, Note_on_c, 8, 49, 100
1, 49440, Note_on_c, 8, 54, 100
1, 49440, Note_on_c, 13, 57, 100
1, 49440, Note_on_c, 13, 61, 100
1, 49446, Note_off_c, 10, 64, 0
1, 49476, Note_off_c, 10, 76, 0
1, 49514, Note_off_c, 10, 69, 0
1, 49628, Note_off_c, 1, 66, 0
1, 49668, Note_off_c, 6, 69, 0
1, 49672, Note_off_c, 8, 49, 0
1, 49672, Note_off_c, 8, 54, 0
1, 49672, Note_off_c, 13, 57, 0
1, 49672, Note_off_c, 13, 61, 0
1, 49710, Note_off_c, 6, 64, 0
1, 49748, Note_off_c, 6, 76, 0
1, 49920, Note_on_c, 0, 56, 86
1, 49920, Note_on_c, 0, 59, 86
1, 49920, Note_on_c, 1, 59, 74
1, 49920, Note_on_c, 2, 68, 86
1, 49920, Note_on_c, 2, 71, 86
1, 49920, Note_on_c, 3, 71, 100
1, 49920, Note_on_c, 3, 76, 100
1, 49920, Note_on_c, 4, 71, 86
1, 49920, Note_on_c, 5, 68, 96
1, 49920, Note_on_c, 7, 64, 66
1, 49920, Note_on_c, 7, 69, 70
1, 49920, Note_on_c, 7, 76, 75
1, 49920, Note_on_c, 8, 57, 100
1, 49920, Note_on_c, 8, 61, 100
1, 49920, Note_on_c, 13, 49, 100
1, 49920, Note_on_c, 13, 54, 100
1, 50152, Note_off_c, 8, 57, 0
1, 50152, Note_off_c, 8, 61, 0
1, 50152, Note_off_c, 13, 49, 0
1, 50152, Note_off_c, 13, 54, 0
1, 50170, Note_off_c, 7, 69, 0
1, 50184, Note_off_c, 7, 64, 0
1, 50202, Note_on_c, 10, 64, 68
1, 50202, Note_on_c, 10, 69, 68
1, 50202, Note_on_c, 10, 76, 72
1, 50210, Note_off_c, 7, 76, 0
1, 50392, Note_off_c, 0, 56, 64
1, 50392, Note_off_c, 0, 59, 64
1, 50392, Note_off_c, 2, 68, 64
1, 50392, Note_off_c, 2, 71, 64
1, 50392, Note_off_c, 3, 71, 64
1, 50392, Note_off_c, 3, 76, 64
1, 50392, Note_off_c, 4, 71, 0
1, 50392, Note_off_c, 5, 68, 0
1, 50400, Note_on_c, 0, 54, 86
1, 50400, Note_on_c, 0, 57, 86
1, 50400, Note_on_c, 1, 69, 75
1, 50400, Note_on_c, 2, 66, 86
1, 50400, Note_on_c, 2, 69, 86
1, 50400, Note_on_c, 3, 66, 100
1, 50400, Note_on_c, 3, 69, 100
1, 50400, Note_on_c, 4, 69, 86
1, 50400, Note_on_c, 5, 66, 96
1, 50400, Note_on_c, 6, 64, 69
1, 50400, Note_on_c, 6, 69, 69
1, 50400, Note_on_c, 6, 76, 73
1, 50400, Note_on_c, 8, 49, 100
1, 50400, Note_on_c, 8, 54, 100
1, 50400, Note_on_c, 13, 57, 100
1, 50400, Note_on_c, 13, 61, 100
1, 50408, Note_off_c, 1, 59, 0
1, 50408, Note_off_c, 10, 69, 0
1, 50416, Note_off_c, 10, 64, 0
1, 50426, Note_off_c, 10, 76, 0
1, 50632, Note_off_c, 8, 49, 0
1, 50632, Note_off_c, 8, 54, 0
1, 50632, Note_off_c, 13, 57, 0
1, 50632, Note_off_c, 13, 61, 0
1, 50666, Note_off_c, 6, 64, 0
1, 50704, Note_off_c, 6, 69, 0
1, 50704, Note_off_c, 6, 76, 0
1, 50872, Note_off_c, 0, 54, 64
1, 50872, Note_off_c, 0, 57, 64
1, 50872, Note_off_c, 2, 66, 64
1, 50872, Note_off_c, 2, 69, 64
1, 50872, Note_off_c, 3, 66, 64
1, 50872, Note_off_c, 3, 69, 64
1, 50872, Note_off_c, 4, 69, 0
1, 50872, Note_off_c, 5, 66, 0
1, 50880, Note_on_c, 0, 57, 86
1, 50880, Note_on_c, 0, 61, 86
1, 50880, Note_on_c, 1, 64, 73
1, 50880, Note_on_c, 2, 69, 86
1, 50880, Note_on_c, 2, 73, 86
1, 50880, Note_on_c, 3, 73, 100
1, 50880, Note_on_c, 3, 76, 100
1, 50880, Note_on_c, 4, 73, 86
1, 50880, Note_on_c, 5, 69, 96
1, 50880, Note_on_c, 7, 64, 66
1, 50880, Note_on_c, 7, 69, 70
1, 50880, Note_on_c, 7, 76, 75
1, 50880, Note_on_c, 8, 59, 100
1, 50880, Note_on_c, 8, 61, 100
1, 50880, Note_on_c, 13, 49, 100
1, 50880, Note_on_c, 13, 56, 100
1, 51006, Note_off_c, 1, 69, 0
1, 51112, Note_off_c, 8, 59, 0
1, 51112, Note_off_c, 8, 61, 0
1, 51112, Note_off_c, 13, 49, 0
1, 51112, Note_off_c, 13, 56, 0
1, 51130, Note_off_c, 7, 69, 0
1, 51144, Note_off_c, 7, 64, 0
1, 51162, Note_on_c, 10, 64, 70
1, 51162, Note_on_c, 10, 69, 70
1, 51162, Note_on_c, 10, 76, 75
1, 51170, Note_off_c, 7, 76, 0
1, 51352, Note_off_c, 0, 57, 64
1, 51352, Note_off_c, 0, 61, 64
1, 51352, Note_off_c, 2, 69, 64
1, 51352, Note_off_c, 2, 73, 64
1, 51352, Note_off_c, 3, 73, 64
1, 51352, Note_off_c, 3, 76, 64
1, 51352, Note_off_c, 4, 73, 0
1, 51352, Note_off_c, 5, 69, 0
1, 51360, Note_on_c, 6, 64, 67
1, 51360, Note_on_c, 6, 69, 63
1, 51360, Note_on_c, 6, 76, 74
1, 51360, Note_on_c, 8, 49, 100
1, 51360, Note_on_c, 8, 56, 100
1, 51360, Note_on_c, 13, 59, 100
1, 51360, Note_on_c, 13, 61, 100
1, 51390, Note_off_c, 10, 69, 0
1, 51432, Note_off_c, 10, 64, 0
1, 51470, Note_off_c, 10, 76, 0
1, 51564, Note_off_c, 6, 69, 0
1, 51586, Note_off_c, 1, 64, 0
1, 51592, Note_off_c, 8, 49, 0
1, 51592, Note_off_c, 8, 56, 0
1, 51592, Note_off_c, 13, 59, 0
1, 51592, Note_off_c, 13, 61, 0
1, 51626, Note_off_c, 6, 64, 0
1, 51626, Note_off_c, 6, 76, 0
1, 51840, Note_on_c, 1, 66, 68
1, 51840, Note_on_c, 3, 71, 100
1, 51840, Note_on_c, 3, 76, 100
1, 51840, Note_on_c, 7, 64, 72
1, 51840, Note_on_c, 7, 69, 80
1, 51840, Note_on_c, 7, 76, 77
1, 51840, Note_on_c, 8, 59, 100
1, 51840, Note_on_c, 8, 61, 100
1, 51840, Note_on_c, 13, 49, 100
1, 51840, Note_on_c, 13, 56, 100
1, 52072, Note_off_c, 8, 59, 0
1, 52072, Note_off_c, 8, 61, 0
1, 52072, Note_off_c, 13, 49, 0
1, 52072, Note_off_c, 13, 56, 0
1, 52080, Note_off_c, 7, 76, 0
1, 52090, Note_off_c, 7, 64, 0
1, 52090, Note_off_c, 7, 69, 0
1, 52122, Note_on_c, 10, 64, 69
1, 52122, Note_on_c, 10, 69, 69
1, 52122, Note_on_c, 10, 76, 73
1, 52312, Note_off_c, 3, 71, 64
1, 52312, Note_off_c, 3, 76, 64
1, 52320, Note_on_c, 1, 61, 68
1, 52320, Note_on_c, 3, 64, 100
1, 52320, Note_on_c, 3, 69, 100
1, 52320, Note_on_c, 6, 64, 66
1, 52320, Note_on_c, 6, 69, 63
1, 52320, Note_on_c, 6, 76, 74
1, 52320, Note_on_c, 8, 49, 100
1, 52320, Note_on_c, 8, 56, 100
1, 52320, Note_on_c, 13, 59, 100
1, 52320, Note_on_c, 13, 61, 100
1, 52356, Note_off_c, 1, 66, 0
1, 52388, Note_off_c, 10, 64, 0
1, 52426, Note_off_c, 10, 69, 0
1, 52426, Note_off_c, 10, 76, 0
1, 52550, Note_off_c, 6, 69, 0
1, 52552, Note_off_c, 8, 49, 0
1, 52552, Note_off_c, 8, 56, 0
1, 52552, Note_off_c, 13, 59, 0
1, 52552, Note_off_c, 13, 61, 0
1, 52556, Note_off_c, 6, 64, 0
1, 52594, Note_off_c, 6, 76, 0
1, 52792, Note_off_c, 3, 64, 64
1, 52792, Note_off_c, 3, 69, 64
1, 52800, Note_on_c, 7, 64, 70
1, 52800, Note_on_c, 7, 69, 77
1, 52800, Note_on_c, 7, 76, 77
1, 52800, Note_on_c, 8, 59, 100
1, 52800, Note_on_c, 8, 61, 100
1, 52800, Note_on_c, 13, 49, 100
1, 52800, Note_on_c, 13, 56, 100
1, 53032, Note_off_c, 8, 59, 0
1, 53032, Note_off_c, 8, 61, 0
1, 53032, Note_off_c, 13, 49, 0
1, 53032, Note_off_c, 13, 56, 0
1, 53054, Note_off_c, 7, 64, 0
1, 53082, Note_off_c, 7, 69, 0
1, 53082, Note_on_c, 10, 64, 67
1, 53082, Note_on_c, 10, 69, 63
1, 53082, Note_on_c, 10, 76, 74
1, 53090, Note_off_c, 1, 61, 0
1, 53090, Note_off_c, 7, 76, 0
1, 53280, Note_on_c, 1, 69, 77
1, 53280, Note_on_c, 3, 71, 100
1, 53280, Note_on_c, 3, 76, 100
1, 53280, Note_on_c, 6, 64, 68
1, 53280, Note_on_c, 6, 69, 74
1, 53280, Note_on_c, 6, 76, 74
1, 53280, Note_on_c, 8, 49, 100
1, 53280, Note_on_c, 8, 56, 100
1, 53280, Note_on_c, 13, 59, 100
1, 53280, Note_on_c, 13, 61, 100
1, 53286, Note_off_c, 10, 69, 0
1, 53348, Note_off_c, 10, 64, 0
1, 53348, Note_off_c, 10, 76, 0
1, 53512, Note_off_c, 8, 49, 0
1, 53512, Note_off_c, 8, 56, 0
1, 53512, Note_off_c, 13, 59, 0
1, 53512, Note_off_c, 13, 61, 0
1, 53540, Note_off_c, 6, 69, 0
1, 53570, Note_off_c, 6, 76, 0
1, 53574, Note_off_c, 6, 64, 0
1, 53752, Note_off_c, 3, 71, 64
1, 53752, Note_off_c, 3, 76, 64
1, 53760, Note_on_c, 7, 64, 70
1, 53760, Note_on_c, 7, 69, 73
1, 53760, Note_on_c, 7, 76, 74
1, 53760, Note_on_c, 8, 59, 100
1, 53760, Note_on_c, 8, 61, 100
1, 53760, Note_on_c, 13, 49, 100
1, 53760, Note_on_c, 13, 56, 100
1, 53904, Note_off_c, 1, 69, 0
1, 53992, Note_off_c, 8, 59, 0
1, 53992, Note_off_c, 8, 61, 0
1, 53992, Note_off_c, 13, 49, 0
1, 53992, Note_off_c, 13, 56, 0
1, 54000, Note_off_c, 7, 64, 0
1, 54006, Note_off_c, 7, 69, 0
1, 54020, Note_off_c, 7, 76, 0
1, 54042, Note_on_c, 10, 64, 66
1, 54042, Note_on_c, 10, 69, 63
1, 54042, Note_on_c, 10, 76, 74
1, 54240, Note_on_c, 1, 64, 70
1, 54240, Note_on_c, 3, 73, 100
1, 54240, Note_on_c, 3, 76, 100
1, 54240, Note_on_c, 6, 64, 73
1, 54240, Note_on_c, 6, 69, 82
1, 54240, Note_on_c, 6, 76, 77
1, 54240, Note_on_c, 8, 49, 100
1, 54240, Note_on_c, 8, 56, 100
1, 54240, Note_on_c, 13, 59, 100
1, 54240, Note_on_c, 13, 61, 100
1, 54272, Note_off_c, 10, 69, 0
1, 54278, Note_off_c, 10, 64, 0
1, 54316, Note_off_c, 10, 76, 0
1, 54472, Note_off_c, 8, 49, 0
1, 54472, Note_off_c, 8, 56, 0
1, 54472, Note_off_c, 13, 59, 0
1, 54472, Note_off_c, 13, 61, 0
1, 54518, Note_off_c, 6, 69, 0
1, 54530, Note_off_c, 6, 64, 0
1, 54538, Note_off_c, 6, 76, 0
1, 54712, Note_off_c, 3, 73, 64
1, 54712, Note_off_c, 3, 76, 64
1, 54720, Note_on_c, 0, 54, 86
1, 54720, Note_on_c, 0, 57, 86
1, 54720, Note_on_c, 1, 66, 77
1, 54720, Note_on_c, 2, 66, 86
1, 54720, Note_on_c, 2, 69, 86
1, 54720, Note_on_c, 3, 64, 100
1, 54720, Note_on_c, 3, 69, 100
1, 54720, Note_on_c, 4, 69, 86
1, 54720, Note_on_c, 5, 66, 96
1, 54720, Note_on_c, 7, 64, 72
1, 54720, Note_on_c, 7, 69, 77
1, 54720, Note_on_c, 7, 76, 75
1, 54720, Note_on_c, 8, 57, 100
1, 54720, Note_on_c, 8, 61, 100
1, 54720, Note_on_c, 13, 49, 100
1, 54720, Note_on_c, 13, 54, 100
1, 54872, Note_off_c, 1, 64, 0
1, 54928, Note_off_c, 7, 69, 0
1, 54942, Note_off_c, 7, 64, 0
1, 54952, Note_off_c, 8, 57, 0
1, 54952, Note_off_c, 8, 61, 0
1, 54952, Note_off_c, 13, 49, 0
1, 54952, Note_off_c, 13, 54, 0
1, 54962, Note_off_c, 7, 76, 0
1, 55002, Note_on_c, 10, 64, 68
1, 55002, Note_on_c, 10, 69, 74
1, 55002, Note_on_c, 10, 76, 74
1, 55192, Note_off_c, 0, 54, 64
1, 55192, Note_off_c, 0, 57, 64
1, 55192, Note_off_c, 2, 66, 64
1, 55192, Note_off_c, 2, 69, 64
1, 55192, Note_off_c, 3, 64, 64
1, 55192, Note_off_c, 3, 69, 64
1, 55192, Note_off_c, 4, 69, 0
1, 55192, Note_off_c, 5, 66, 0
1, 55200, Note_on_c, 6, 64, 72
1, 55200, Note_on_c, 6, 69, 75
1, 55200, Note_on_c, 6, 76, 73
1, 55200, Note_on_c, 8, 49, 100
1, 55200, Note_on_c, 8, 54, 100
1, 55200, Note_on_c, 13, 57, 100
1, 55200, Note_on_c, 13, 61, 100
1, 55262, Note_off_c, 10, 69, 0
1, 55292, Note_off_c, 10, 76, 0
1, 55296, Note_off_c, 10, 64, 0
1, 55364, Note_off_c, 1, 66, 0
1, 55432, Note_off_c, 8, 49, 0
1, 55432, Note_off_c, 8, 54, 0
1, 55432, Note_off_c, 13, 57, 0
1, 55432, Note_off_c, 13, 61, 0
1, 55488, Note_off_c, 6, 76, 0
1, 55490, Note_off_c, 6, 69, 0
1, 55498, Note_off_c, 6, 64, 0
1, 55680, Note_on_c, 0, 56, 86
1, 55680, Note_on_c, 0, 59, 86
1, 55680, Note_on_c, 1, 59, 65
1, 55680, Note_on_c, 2, 68, 86
1, 55680, Note_on_c, 2, 71, 86
1, 55680, Note_on_c, 3, 71, 100
1, 55680, Note_on_c, 3, 76, 100
1, 55680, Note_on_c, 4, 71, 86
1, 55680, Note_on_c, 5, 68, 96
1, 55680, Note_on_c, 7, 64, 70
1, 55680, Note_on_c, 7, 69, 78
1, 55680, Note_on_c, 7, 76, 77
1, 55680, Note_on_c, 8, 57, 100
1, 55680, Note_on_c, 8, 61, 100
1, 55680, Note_on_c, 13, 49, 100
1, 55680, Note_on_c, 13, 54, 100
1, 55912, Note_off_c, 8, 57, 0
1, 55912, Note_off_c, 8, 61, 0
1, 55912, Note_off_c, 13, 49, 0
1, 55912, Note_off_c, 13, 54, 0
1, 55922, Note_off_c, 7, 64, 0
1, 55944, Note_off_c, 7, 76, 0
1, 55962, Note_on_c, 10, 64, 73
1, 55962, Note_on_c, 10, 69, 82
1, 55962, Note_on_c, 10, 76, 77
1, 55968, Note_off_c, 7, 69, 0
1, 56152, Note_off_c, 0, 56, 64
1, 56152, Note_off_c, 0, 59, 64
1, 56152, Note_off_c, 2, 68, 64
1, 56152, Note_off_c, 2, 71, 64
1, 56152, Note_off_c, 3, 71, 64
1, 56152, Note_off_c, 3, 76, 64
1, 56152, Note_off_c, 4, 71, 0
1, 56152, Note_off_c, 5, 68, 0
1, 56160, Note_on_c, 0, 54, 86
1, 56160, Note_on_c, 0, 57, 86
1, 56160, Note_on_c, 1, 69, 74
1, 56160, Note_on_c, 2, 66, 86
1, 56160, Note_on_c, 2, 69, 86
1, 56160, Note_on_c, 3, 66, 100
1, 56160, Note_on_c, 3, 69, 100
1, 56160, Note_on_c, 4, 69, 86
1, 56160, Note_on_c, 5, 66, 96
1, 56160, Note_on_c, 6, 64, 69
1, 56160, Note_on_c, 6, 69, 70
1, 56160, Note_on_c, 6, 76, 72
1, 56160, Note_on_c, 8, 49, 100
1, 56160, Note_on_c, 8, 54, 100
1, 56160, Note_on_c, 13, 57, 100
1, 56160, Note_on_c, 13, 61, 100
1, 56240, Note_off_c, 10, 69, 0
1, 56252, Note_off_c, 10, 64, 0
1, 56254, Note_off_c, 1, 59, 0
1, 56260, Note_off_c, 10, 76, 0
1, 56392, Note_off_c, 8, 49, 0
1, 56392, Note_off_c, 8, 54, 0
1, 56392, Note_off_c, 13, 57, 0
1, 56392, Note_off_c, 13, 61, 0
1, 56424, Note_off_c, 6, 69, 0
1, 56448, Note_off_c, 6, 64, 0
1, 56464, Note_off_c, 6, 76, 0
1, 56632, Note_off_c, 0, 54, 64
1, 56632, Note_off_c, 0, 57, 64
1, 56632, Note_off_c, 2, 66, 64
1, 56632, Note_off_c, 2, 69, 64
1, 56632, Note_off_c, 3, 66, 64
1, 56632, Note_off_c, 3, 69, 64
1, 56632, Note_off_c, 4, 69, 0
1, 56632, Note_off_c, 5, 66, 0
1, 56640, Note_on_c, 0, 57, 86
1, 56640, Note_on_c, 0, 61, 86
1, 56640, Note_on_c, 1, 64, 68
1, 56640, Note_on_c, 2, 69, 86
1, 56640, Note_on_c, 2, 73, 86
1, 56640, Note_on_c, 3, 73, 100
1, 56640, Note_on_c, 3, 76, 100
1, 56640, Note_on_c, 4, 73, 86
1, 56640, Note_on_c, 5, 69, 96
1, 56640, Note_on_c, 7, 64, 70
1, 56640, Note_on_c, 7, 69, 72
1, 56640, Note_on_c, 7, 76, 77
1, 56640, Note_on_c, 8, 59, 100
1, 56640, Note_on_c, 8, 61, 100
1, 56640, Note_on_c, 13, 49, 100
1, 56640, Note_on_c, 13, 56, 100
1, 56852, Note_off_c, 1, 69, 0
1, 56872, Note_off_c, 8, 59, 0
1, 56872, Note_off_c, 8, 61, 0
1, 56872, Note_off_c, 13, 49, 0
1, 56872, Note_off_c, 13, 56, 0
1, 56894, Note_off_c, 7, 64, 0
1, 56906, Note_off_c, 7, 69, 0
1, 56922, Note_on_c, 10, 64, 72
1, 56922, Note_on_c, 10, 69, 75
1, 56922, Note_on_c, 10, 76, 73
1, 56962, Note_off_c, 7, 76, 0
1, 57112, Note_off_c, 0, 57, 64
1, 57112, Note_off_c, 0, 61, 64
1, 57112, Note_off_c, 2, 69, 64
1, 57112, Note_off_c, 2, 73, 64
1, 57112, Note_off_c, 3, 73, 64
1, 57112, Note_off_c, 3, 76, 64
1, 57112, Note_off_c, 4, 73, 0
1, 57112, Note_off_c, 5, 69, 0
1, 57120, Note_on_c, 6, 64, 68
1, 57120, Note_on_c, 6, 69, 77
1, 57120, Note_on_c, 6, 76, 73
1, 57120, Note_on_c, 8, 49, 100
1, 57120, Note_on_c, 8, 56, 100
1, 57120, Note_on_c, 13, 59, 100
1, 57120, Note_on_c, 13, 61, 100
1, 57210, Note_off_c, 10, 76, 0
1, 57212, Note_off_c, 10, 69, 0
1, 57220, Note_off_c, 10, 64, 0
1, 57254, Note_off_c, 1, 64, 0
1, 57352, Note_off_c, 8, 49, 0
1, 57352, Note_off_c, 8, 56, 0
1, 57352, Note_off_c, 13, 59, 0
1, 57352, Note_off_c, 13, 61, 0
1, 57386, Note_off_c, 6, 64, 0
1, 57404, Note_off_c, 6, 69, 0
1, 57404, Note_off_c, 6, 76, 0
1, 57600, Note_on_c, 1, 66, 77
1, 57600, Note_on_c, 3, 71, 100
1, 57600, Note_on_c, 3, 76, 100
1, 57600, Note_on_c, 7, 64, 73
1, 57600, Note_on_c, 7, 69, 77
1, 57600, Note_on_c, 7, 76, 74
1, 57600, Note_on_c, 8, 59, 100
1, 57600, Note_on_c, 8, 61, 100
1, 57600, Note_on_c, 13, 49, 100
1, 57600, Note_on_c, 13, 56, 100
1, 57832, Note_off_c, 8, 59, 0
1, 57832, Note_off_c, 8, 61, 0
1, 57832, Note_off_c, 13, 49, 0
1, 57832, Note_off_c, 13, 56, 0
1, 57882, Note_on_c, 10, 64, 69
1, 57882, Note_on_c, 10, 69, 70
1, 57882, Note_on_c, 10, 76, 72
1, 57884, Note_off_c, 7, 69, 0
1, 57916, Note_off_c, 7, 76, 0
1, 57922, Note_off_c, 7, 64, 0
1, 58072, Note_off_c, 3, 71, 64
1, 58072, Note_off_c, 3, 76, 64
1, 58080, Note_on_c, 1, 61, 70
1, 58080, Note_on_c, 3, 64, 100
1, 58080, Note_on_c, 3, 69, 100
1, 58080, Note_on_c, 6, 64, 72
1, 58080, Note_on_c, 6, 69, 52
1, 58080, Note_on_c, 6, 76, 72
1, 58080, Note_on_c, 8, 49, 100
1, 58080, Note_on_c, 8, 56, 100
1, 58080, Note_on_c, 13, 59, 100
1, 58080, Note_on_c, 13, 61, 100
1, 58146, Note_off_c, 10, 69, 0
1, 58170, Note_off_c, 10, 64, 0
1, 58186, Note_off_c, 10, 76, 0
1, 58232, Note_off_c, 6, 69, 0
1, 58242, Note_off_c, 1, 66, 0
1, 58312, Note_off_c, 8, 49, 0
1, 58312, Note_off_c, 8, 56, 0
1, 58312, Note_off_c, 13, 59, 0
1, 58312, Note_off_c, 13, 61, 0
1, 58320, Note_off_c, 6, 64, 0
1, 58326, Note_off_c, 6, 76, 0
1, 58552, Note_off_c, 3, 64, 64
1, 58552, Note_off_c, 3, 69, 64
1, 58560, Note_on_c, 7, 64, 68
1, 58560, Note_on_c, 7, 69, 70
1, 58560, Note_on_c, 7, 76, 72
1, 58560, Note_on_c, 8, 59, 100
1, 58560, Note_on_c, 8, 61, 100
1, 58560, Note_on_c, 13, 49, 100
1, 58560, Note_on_c, 13, 56, 100
1, 58708, Note_off_c, 1, 61, 0
1, 58792, Note_off_c, 8, 59, 0
1, 58792, Note_off_c, 8, 61, 0
1, 58792, Note_off_c, 13, 49, 0
1, 58792, Note_off_c, 13, 56, 0
1, 58842, Note_on_c, 10, 64, 68
1, 58842, Note_on_c, 10, 69, 77
1, 58842, Note_on_c, 10, 76, 73
1, 58850, Note_off_c, 7, 69, 0
1, 58868, Note_off_c, 7, 76, 0
1, 58874, Note_off_c, 7, 64, 0
1, 59040, Note_on_c, 1, 69, 77
1, 59040, Note_on_c, 3, 71, 100
1, 59040, Note_on_c, 3, 76, 100
1, 59040, Note_on_c, 6, 64, 68
1, 59040, Note_on_c, 6, 69, 70
1, 59040, Note_on_c, 6, 76, 74
1, 59040, Note_on_c, 8, 49, 100
1, 59040, Note_on_c, 8, 56, 100
1, 59040, Note_on_c, 13, 59, 100
1, 59040, Note_on_c, 13, 61, 100
1, 59108, Note_off_c, 10, 64, 0
1, 59126, Note_off_c, 10, 69, 0
1, 59126, Note_off_c, 10, 76, 0
1, 59272, Note_off_c, 6, 69, 0
1, 59272, Note_off_c, 8, 49, 0
1, 59272, Note_off_c, 8, 56, 0
1, 59272, Note_off_c, 13, 59, 0
1, 59272, Note_off_c, 13, 61, 0
1, 59282, Note_off_c, 6, 64, 0
1, 59290, Note_off_c, 6, 76, 0
1, 59512, Note_off_c, 3, 71, 64
1, 59512, Note_off_c, 3, 76, 64
1, 59520, Note_on_c, 7, 64, 68
1, 59520, Note_on_c, 7, 69, 70
1, 59520, Note_on_c, 7, 76, 73
1, 59520, Note_on_c, 8, 59, 100
1, 59520, Note_on_c, 8, 61, 100
1, 59520, Note_on_c, 13, 49, 100
1, 59520, Note_on_c, 13, 56, 100
1, 59688, Note_off_c, 1, 69, 0
1, 59752, Note_off_c, 8, 59, 0
1, 59752, Note_off_c, 8, 61, 0
1, 59752, Note_off_c, 13, 49, 0
1, 59752, Note_off_c, 13, 56, 0
1, 59768, Note_off_c, 7, 64, 0
1, 59782, Note_off_c, 7, 69, 0
1, 59782, Note_off_c, 7, 76, 0
1, 59802, Note_on_c, 10, 64, 72
1, 59802, Note_on_c, 10, 69, 52
1, 59802, Note_on_c, 10, 76, 72
1, 59954, Note_off_c, 10, 69, 0
1, 60000, Note_on_c, 1, 64, 68
1, 60000, Note_on_c, 3, 73, 100
1, 60000, Note_on_c, 3, 76, 100
1, 60000, Note_on_c, 6, 64, 68
1, 60000, Note_on_c, 6, 69, 69
1, 60000, Note_on_c, 6, 76, 72
1, 60000, Note_on_c, 8, 49, 100
1, 60000, Note_on_c, 8, 56, 100
1, 60000, Note_on_c, 13, 59, 100
1, 60000, Note_on_c, 13, 61, 100
1, 60042, Note_off_c, 10, 64, 0
1, 60048, Note_off_c, 10, 76, 0
1, 60216, Note_off_c, 6, 76, 0
1, 60218, Note_off_c, 6, 69, 0
1, 60232, Note_off_c, 6, 64, 0
1, 60232, Note_off_c, 8, 49, 0
1, 60232, Note_off_c, 8, 56, 0
1, 60232, Note_off_c, 13, 59, 0
1, 60232, Note_off_c, 13, 61, 0
1, 60444, Note_off_c, 1, 64, 0
1, 60472, Note_off_c, 3, 73, 64
1, 60472, Note_off_c, 3, 76, 64
1, 60480, Note_on_c, 0, 54, 86
1, 60480, Note_on_c, 0, 57, 86
1, 60480, Note_on_c, 1, 66, 78
1, 60480, Note_on_c, 2, 66, 86
1, 60480, Note_on_c, 2, 69, 86
1, 60480, Note_on_c, 3, 64, 100
1, 60480, Note_on_c, 3, 69, 100
1, 60480, Note_on_c, 4, 69, 86
1, 60480, Note_on_c, 5, 66, 96
1, 60480, Note_on_c, 7, 64, 70
1, 60480, Note_on_c, 7, 69, 83
1, 60480, Note_on_c, 7, 76, 74
1, 60480, Note_on_c, 8, 57, 100
1, 60480, Note_on_c, 8, 61, 100
1, 60480, Note_on_c, 13, 49, 100
1, 60480, Note_on_c, 13, 54, 100
1, 60712, Note_off_c, 8, 57, 0
1, 60712, Note_off_c, 8, 61, 0
1, 60712, Note_off_c, 13, 49, 0
1, 60712, Note_off_c, 13, 54, 0
1, 60720, Note_off_c, 7, 64, 0
1, 60720, Note_off_c, 7, 76, 0
1, 60730, Note_off_c, 7, 69, 0
1, 60762, Note_on_c, 10, 64, 68
1, 60762, Note_on_c, 10, 69, 70
1, 60762, Note_on_c, 10, 76, 74
1, 60952, Note_off_c, 0, 54, 64
1, 60952, Note_off_c, 0, 57, 64
1, 60952, Note_off_c, 2, 66, 64
1, 60952, Note_off_c, 2, 69, 64
1, 60952, Note_off_c, 3, 64, 64
1, 60952, Note_off_c, 3, 69, 64
1, 60952, Note_off_c, 4, 69, 0
1, 60952, Note_off_c, 5, 66, 0
1, 60960, Note_on_c, 6, 64, 67
1, 60960, Note_on_c, 6, 69, 67
1, 60960, Note_on_c, 6, 76, 72
1, 60960, Note_on_c, 8, 49, 100
1, 60960, Note_on_c, 8, 54, 100
1, 60960, Note_on_c, 13, 57, 100
1, 60960, Note_on_c, 13, 61, 100
1, 60994, Note_off_c, 10, 69, 0
1, 61004, Note_off_c, 10, 64, 0
1, 61012, Note_off_c, 10, 76, 0
1, 61148, Note_off_c, 1, 66, 0
1, 61192, Note_off_c, 8, 49, 0
1, 61192, Note_off_c, 8, 54, 0
1, 61192, Note_off_c, 13, 57, 0
1, 61192, Note_off_c, 13, 61, 0
1, 61206, Note_off_c, 6, 64, 0
1, 61210, Note_off_c, 6, 69, 0
1, 61226, Note_off_c, 6, 76, 0
1, 61440, Note_on_c, 0, 56, 86
1, 61440, Note_on_c, 0, 59, 86
1, 61440, Note_on_c, 1, 59, 74
1, 61440, Note_on_c, 2, 68, 86
1, 61440, Note_on_c, 2, 71, 86
1, 61440, Note_on_c, 3, 71, 100
1, 61440, Note_on_c, 3, 76, 100
1, 61440, Note_on_c, 4, 71, 99
1, 61440, Note_on_c, 5, 68, 96
1, 61440, Note_on_c, 7, 64, 67
1, 61440, Note_on_c, 7, 69, 78
1, 61440, Note_on_c, 7, 76, 73
1, 61440, Note_on_c, 8, 57, 100
1, 61440, Note_on_c, 8, 61, 100
1, 61440, Note_on_c, 13, 49, 100
1, 61440, Note_on_c, 13, 54, 100
1, 61672, Note_off_c, 8, 57, 0
1, 61672, Note_off_c, 8, 61, 0
1, 61672, Note_off_c, 13, 49, 0
1, 61672, Note_off_c, 13, 54, 0
1, 61690, Note_off_c, 7, 76, 0
1, 61696, Note_off_c, 7, 69, 0
1, 61704, Note_off_c, 7, 64, 0
1, 61722, Note_on_c, 10, 64, 68
1, 61722, Note_on_c, 10, 69, 69
1, 61722, Note_on_c, 10, 76, 72
1, 61912, Note_off_c, 0, 56, 64
1, 61912, Note_off_c, 0, 59, 64
1, 61912, Note_off_c, 2, 68, 64
1, 61912, Note_off_c, 2, 71, 64
1, 61912, Note_off_c, 3, 71, 64
1, 61912, Note_off_c, 3, 76, 64
1, 61912, Note_off_c, 4, 71, 0
1, 61912, Note_off_c, 5, 68, 0
1, 61920, Note_on_c, 0, 54, 86
1, 61920, Note_on_c, 0, 57, 86
1, 61920, Note_on_c, 1, 69, 75
1, 61920, Note_on_c, 2, 66, 86
1, 61920, Note_on_c, 2, 69, 86
1, 61920, Note_on_c, 3, 66, 100
1, 61920, Note_on_c, 3, 69, 100
1, 61920, Note_on_c, 4, 69, 99
1, 61920, Note_on_c, 5, 66, 96
1, 61920, Note_on_c, 6, 64, 67
1, 61920, Note_on_c, 6, 69, 63
1, 61920, Note_on_c, 6, 76, 72
1, 61920, Note_on_c, 8, 49, 100
1, 61920, Note_on_c, 8, 54, 100
1, 61920, Note_on_c, 13, 57, 100
1, 61920, Note_on_c, 13, 61, 100
1, 61928, Note_off_c, 1, 59, 0
1, 61938, Note_off_c, 10, 76, 0
1, 61940, Note_off_c, 10, 69, 0
1, 61954, Note_off_c, 10, 64, 0
1, 62152, Note_off_c, 8, 49, 0
1, 62152, Note_off_c, 8, 54, 0
1, 62152, Note_off_c, 13, 57, 0
1, 62152, Note_off_c, 13, 61, 0
1, 62168, Note_off_c, 6, 69, 0
1, 62196, Note_off_c, 6, 64, 0
1, 62212, Note_off_c, 6, 76, 0
1, 62392, Note_off_c, 0, 54, 64
1, 62392, Note_off_c, 0, 57, 64
1, 62392, Note_off_c, 2, 66, 64
1, 62392, Note_off_c, 2, 69, 64
1, 62392, Note_off_c, 3, 66, 64
1, 62392, Note_off_c, 3, 69, 64
1, 62392, Note_off_c, 4, 69, 0
1, 62392, Note_off_c, 5, 66, 0
1, 62400, Note_on_c, 0, 57, 86
1, 62400, Note_on_c, 0, 61, 86
1, 62400, Note_on_c, 1, 64, 73
1, 62400, Note_on_c, 2, 69, 86
1, 62400, Note_on_c, 2, 73, 86
1, 62400, Note_on_c, 3, 73, 100
1, 62400, Note_on_c, 3, 76, 100
1, 62400, Note_on_c, 4, 73, 99
1, 62400, Note_on_c, 5, 69, 96
1, 62400, Note_on_c, 7, 64, 69
1, 62400, Note_on_c, 7, 69, 70
1, 62400, Note_on_c, 7, 76, 73
1, 62400, Note_on_c, 8, 59, 100
1, 62400, Note_on_c, 8, 61, 100
1, 62400, Note_on_c, 13, 49, 100
1, 62400, Note_on_c, 13, 56, 100
1, 62526, Note_off_c, 1, 69, 0
1, 62620, Note_off_c, 7, 69, 0
1, 62632, Note_off_c, 8, 59, 0
1, 62632, Note_off_c, 8, 61, 0
1, 62632, Note_off_c, 13, 49, 0
1, 62632, Note_off_c, 13, 56, 0
1, 62642, Note_off_c, 7, 76, 0
1, 62652, Note_off_c, 7, 64, 0
1, 62682, Note_on_c, 10, 64, 67
1, 62682, Note_on_c, 10, 69, 67
1, 62682, Note_on_c, 10, 76, 72
1, 62872, Note_off_c, 0, 57, 64
1, 62872, Note_off_c, 0, 61, 64
1, 62872, Note_off_c, 2, 69, 64
1, 62872, Note_off_c, 2, 73, 64
1, 62872, Note_off_c, 3, 73, 64
1, 62872, Note_off_c, 3, 76, 64
1, 62872, Note_off_c, 4, 73, 0
1, 62872, Note_off_c, 5, 69, 0
1, 62880, Note_on_c, 6, 64, 68
1, 62880, Note_on_c, 6, 69, 66
1, 62880, Note_on_c, 6, 76, 70
1, 62880, Note_on_c, 8, 49, 100
1, 62880, Note_on_c, 8, 56, 100
1, 62880, Note_on_c, 13, 59, 100
1, 62880, Note_on_c, 13, 61, 100
1, 62928, Note_off_c, 10, 64, 0
1, 62932, Note_off_c, 10, 69, 0
1, 62948, Note_off_c, 10, 76, 0
1, 63076, Note_off_c, 6, 69, 0
1, 63100, Note_off_c, 6, 64, 0
1, 63106, Note_off_c, 1, 64, 0
1, 63112, Note_off_c, 8, 49, 0
1, 63112, Note_off_c, 8, 56, 0
1, 63112, Note_off_c, 13, 59, 0
1, 63112, Note_off_c, 13, 61, 0
1, 63118, Note_off_c, 6, 76, 0
1, 63360, Note_on_c, 1, 66, 68
1, 63360, Note_on_c, 3, 71, 100
1, 63360, Note_on_c, 3, 76, 100
1, 63360, Note_on_c, 7, 64, 69
1, 63360, Note_on_c, 7, 69, 75
1, 63360, Note_on_c, 7, 76, 73
1, 63360, Note_on_c, 8, 59, 100
1, 63360, Note_on_c, 8, 61, 100
1, 63360, Note_on_c, 13, 49, 100
1, 63360, Note_on_c, 13, 56, 100
1, 63574, Note_off_c, 7, 69, 0
1, 63590, Note_off_c, 7, 64, 0
1, 63592, Note_off_c, 8, 59, 0
1, 63592, Note_off_c, 8, 61, 0
1, 63592, Note_off_c, 13, 49, 0
1, 63592, Note_off_c, 13, 56, 0
1, 63604, Note_off_c, 7, 76, 0
1, 63642, Note_on_c, 10, 64, 67
1, 63642, Note_on_c, 10, 69, 63
1, 63642, Note_on_c, 10, 76, 72
1, 63832, Note_off_c, 3, 71, 64
1, 63832, Note_off_c, 3, 76, 64
1, 63840, Note_on_c, 1, 61, 68
1, 63840, Note_on_c, 3, 64, 100
1, 63840, Note_on_c, 3, 69, 100
1, 63840, Note_on_c, 6, 64, 68
1, 63840, Note_on_c, 6, 69, 63
1, 63840, Note_on_c, 6, 76, 72
1, 63840, Note_on_c, 8, 49, 100
1, 63840, Note_on_c, 8, 56, 100
1, 63840, Note_on_c, 13, 59, 100
1, 63840, Note_on_c, 13, 61, 100
1, 63876, Note_off_c, 1, 66, 0
1, 63890, Note_off_c, 10, 69, 0
1, 63918, Note_off_c, 10, 64, 0
1, 63934, Note_off_c, 10, 76, 0
1, 64050, Note_off_c, 6, 64, 0
1, 64072, Note_off_c, 8, 49, 0
1, 64072, Note_off_c, 8, 56, 0
1, 64072, Note_off_c, 13, 59, 0
1, 64072, Note_off_c, 13, 61, 0
1, 64084, Note_off_c, 6, 76, 0
1, 64102, Note_off_c, 6, 69, 0
1, 64312, Note_off_c, 3, 64, 64
1, 64312, Note_off_c, 3, 69, 64
1, 64320, Note_on_c, 7, 64, 68
1, 64320, Note_on_c, 7, 69, 74
1, 64320, Note_on_c, 7, 76, 74
1, 64320, Note_on_c, 8, 59, 100
1, 64320, Note_on_c, 8, 61, 100
1, 64320, Note_on_c, 13, 49, 100
1, 64320, Note_on_c, 13, 56, 100
1, 64544, Note_off_c, 7, 69, 0
1, 64552, Note_off_c, 8, 59, 0
1, 64552, Note_off_c, 8, 61, 0
1, 64552, Note_off_c, 13, 49, 0
1, 64552, Note_off_c, 13, 56, 0
1, 64584, Note_off_c, 7, 64, 0
1, 64594, Note_off_c, 7, 76, 0
1, 64602, Note_on_c, 10, 64, 68
1, 64602, Note_on_c, 10, 69, 66
1, 64602, Note_on_c, 10, 76, 70
1, 64610, Note_off_c, 1, 61, 0
1, 64798, Note_off_c, 10, 69, 0
1, 64800, Note_on_c, 1, 69, 77
1, 64800, Note_on_c, 3, 71, 100
1, 64800, Note_on_c, 3, 76, 100
1, 64800, Note_on_c, 6, 64, 70
1, 64800, Note_on_c, 6, 69, 69
1, 64800, Note_on_c, 6, 76, 72
1, 64800, Note_on_c, 8, 49, 100
1, 64800, Note_on_c, 8, 56, 100
1, 64800, Note_on_c, 13, 59, 100
1, 64800, Note_on_c, 13, 61, 100
1, 64822, Note_off_c, 10, 64, 0
1, 64840, Note_off_c, 10, 76, 0
1, 65032, Note_off_c, 8, 49, 0
1, 65032, Note_off_c, 8, 56, 0
1, 65032, Note_off_c, 13, 59, 0
1, 65032, Note_off_c, 13, 61, 0
1, 65034, Note_off_c, 6, 69, 0
1, 65062, Note_off_c, 6, 64, 0
1, 65062, Note_off_c, 6, 76, 0
1, 65272, Note_off_c, 3, 71, 64
1, 65272, Note_off_c, 3, 76, 64
1, 65280, Note_on_c, 7, 64, 68
1, 65280, Note_on_c, 7, 69, 73
1, 65280, Note_on_c, 7, 76, 73
1, 65280, Note_on_c, 8, 59, 100
1, 65280, Note_on_c, 8, 61, 100
1, 65280, Note_on_c, 13, 49, 100
1, 65280, Note_on_c, 13, 56, 100
1, 65424, Note_off_c, 1, 69, 0
1, 65504, Note_off_c, 7, 64, 0
1, 65512, Note_off_c, 8, 59, 0
1, 65512, Note_off_c, 8, 61, 0
1, 65512, Note_off_c, 13, 49, 0
1, 65512, Note_off_c, 13, 56, 0
1, 65528, Note_off_c, 7, 69, 0
1, 65528, Note_off_c, 7, 76, 0
1, 65562, Note_on_c, 10, 64, 68
1, 65562, Note_on_c, 10, 69, 63
1, 65562, Note_on_c, 10, 76, 72
1, 65760, Note_on_c, 1, 64, 70
1, 65760, Note_on_c, 3, 73, 100
1, 65760, Note_on_c, 3, 76, 100
1, 65760, Note_on_c, 6, 64, 68
1, 65760, Note_on_c, 6, 69, 70
1, 65760, Note_on_c, 6, 76, 70
1, 65760, Note_on_c, 8, 49, 100
1, 65760, Note_on_c, 8, 56, 100
1, 65760, Note_on_c, 13, 59, 100
1, 65760, Note_on_c, 13, 61, 100
1, 65772, Note_off_c, 10, 64, 0
1, 65806, Note_off_c, 10, 76, 0
1, 65824, Note_off_c, 10, 69, 0
1, 65968, Note_off_c, 6, 64, 0
1, 65992, Note_off_c, 8, 49, 0
1, 65992, Note_off_c, 8, 56, 0
1, 65992, Note_off_c, 13, 59, 0
1, 65992, Note_off_c, 13, 61, 0
1, 65996, Note_off_c, 6, 69, 0
1, 66000, Note_off_c, 6, 76, 0
1, 66232, Note_off_c, 3, 73, 64
1, 66232, Note_off_c, 3, 76, 64
1, 66240, Note_on_c, 0, 54, 86
1, 66240, Note_on_c, 0, 57, 86
1, 66240, Note_on_c, 1, 66, 77
1, 66240, Note_on_c, 2, 66, 86
1, 66240, Note_on_c, 2, 69, 86
1, 66240, Note_on_c, 3, 64, 100
1, 66240, Note_on_c, 3, 69, 100
1, 66240, Note_on_c, 4, 69, 99
1, 66240, Note_on_c, 5, 66, 96
1, 66240, Note_on_c, 7, 64, 66
1, 66240, Note_on_c, 7, 69, 74
1, 66240, Note_on_c, 7, 76, 73
1, 66240, Note_on_c, 8, 57, 100
1, 66240, Note_on_c, 8, 61, 100
1, 66240, Note_on_c, 13, 49, 100
1, 66240, Note_on_c, 13, 54, 100
1, 66392, Note_off_c, 1, 64, 0
1, 66472, Note_off_c, 8, 57, 0
1, 66472, Note_off_c, 8, 61, 0
1, 66472, Note_off_c, 13, 49, 0
1, 66472, Note_off_c, 13, 54, 0
1, 66474, Note_off_c, 7, 64, 0
1, 66494, Note_off_c, 7, 76, 0
1, 66522, Note_off_c, 7, 69, 0
1, 66522, Note_on_c, 10, 64, 70
1, 66522, Note_on_c, 10, 69, 69
1, 66522, Note_on_c, 10, 76, 72
1, 66712, Note_off_c, 0, 54, 64
1, 66712, Note_off_c, 0, 57, 64
1, 66712, Note_off_c, 2, 66, 64
1, 66712, Note_off_c, 2, 69, 64
1, 66712, Note_off_c, 3, 64, 64
1, 66712, Note_off_c, 3, 69, 64
1, 66712, Note_off_c, 4, 69, 0
1, 66712, Note_off_c, 5, 66, 0
1, 66720, Note_on_c, 6, 64, 67
1, 66720, Note_on_c, 6, 69, 73
1, 66720, Note_on_c, 6, 76, 74
1, 66720, Note_on_c, 8, 49, 100
1, 66720, Note_on_c, 8, 54, 100
1, 66720, Note_on_c, 13, 57, 100
1, 66720, Note_on_c, 13, 61, 100
1, 66756, Note_off_c, 10, 69, 0
1, 66784, Note_off_c, 10, 64, 0
1, 66784, Note_off_c, 10, 76, 0
1, 66884, Note_off_c, 1, 66, 0
1, 66936, Note_off_c, 6, 64, 0
1, 66952, Note_off_c, 8, 49, 0
1, 66952, Note_off_c, 8, 54, 0
1, 66952, Note_off_c, 13, 57, 0
1, 66952, Note_off_c, 13, 61, 0
1, 66956, Note_off_c, 6, 76, 0
1, 66966, Note_off_c, 6, 69, 0
1, 67200, Note_on_c, 0, 56, 86
1, 67200, Note_on_c, 0, 59, 86
1, 67200, Note_on_c, 1, 59, 65
1, 67200, Note_on_c, 2, 68, 86
1, 67200, Note_on_c, 2, 71, 86
1, 67200, Note_on_c, 3, 71, 100
1, 67200, Note_on_c, 3, 76, 100
1, 67200, Note_on_c, 4, 71, 99
1, 67200, Note_on_c, 5, 68, 96
1, 67200, Note_on_c, 7, 64, 66
1, 67200, Note_on_c, 7, 69, 77
1, 67200, Note_on_c, 7, 76, 70
1, 67200, Note_on_c, 8, 57, 100
1, 67200, Note_on_c, 8, 61, 100
1, 67200, Note_on_c, 13, 49, 100
1, 67200, Note_on_c, 13, 54, 100
1, 67428, Note_off_c, 7, 64, 0
1, 67432, Note_off_c, 8, 57, 0
1, 67432, Note_off_c, 8, 61, 0
1, 67432, Note_off_c, 13, 49, 0
1, 67432, Note_off_c, 13, 54, 0
1, 67482, Note_on_c, 10, 64, 68
1, 67482, Note_on_c, 10, 69, 70
1, 67482, Note_on_c, 10, 76, 70
1, 67486, Note_off_c, 7, 69, 0
1, 67510, Note_off_c, 7, 76, 0
1, 67672, Note_off_c, 0, 56, 64
1, 67672, Note_off_c, 0, 59, 64
1, 67672, Note_off_c, 2, 68, 64
1, 67672, Note_off_c, 2, 71, 64
1, 67672, Note_off_c, 3, 71, 64
1, 67672, Note_off_c, 3, 76, 64
1, 67672, Note_off_c, 4, 71, 0
1, 67672, Note_off_c, 5, 68, 0
1, 67680, Note_on_c, 0, 54, 86
1, 67680, Note_on_c, 0, 57, 86
1, 67680, Note_on_c, 1, 69, 74
1, 67680, Note_on_c, 2, 66, 86
1, 67680, Note_on_c, 2, 69, 86
1, 67680, Note_on_c, 3, 66, 100
1, 67680, Note_on_c, 3, 69, 100
1, 67680, Note_on_c, 4, 69, 99
1, 67680, Note_on_c, 5, 66, 96
1, 67680, Note_on_c, 6, 64, 68
1, 67680, Note_on_c, 6, 69, 74
1, 67680, Note_on_c, 6, 76, 75
1, 67680, Note_on_c, 8, 49, 100
1, 67680, Note_on_c, 8, 54, 100
1, 67680, Note_on_c, 13, 57, 100
1, 67680, Note_on_c, 13, 61, 100
1, 67690, Note_off_c, 10, 64, 0
1, 67718, Note_off_c, 10, 69, 0
1, 67722, Note_off_c, 10, 76, 0
1, 67774, Note_off_c, 1, 59, 0
1, 67912, Note_off_c, 8, 49, 0
1, 67912, Note_off_c, 8, 54, 0
1, 67912, Note_off_c, 13, 57, 0
1, 67912, Note_off_c, 13, 61, 0
1, 67952, Note_off_c, 6, 69, 0
1, 67956, Note_off_c, 6, 64, 0
1, 67970, Note_off_c, 6, 76, 0
1, 68152, Note_off_c, 0, 54, 64
1, 68152, Note_off_c, 0, 57, 64
1, 68152, Note_off_c, 2, 66, 64
1, 68152, Note_off_c, 2, 69, 64
1, 68152, Note_off_c, 3, 66, 64
1, 68152, Note_off_c, 3, 69, 64
1, 68152, Note_off_c, 4, 69, 0
1, 68152, Note_off_c, 5, 66, 0
1, 68160, Note_on_c, 0, 57, 86
1, 68160, Note_on_c, 0, 61, 86
1, 68160, Note_on_c, 1, 64, 68
1, 68160, Note_on_c, 2, 69, 86
1, 68160, Note_on_c, 2, 73, 86
1, 68160, Note_on_c, 3, 73, 100
1, 68160, Note_on_c, 3, 76, 100
1, 68160, Note_on_c, 4, 73, 99
1, 68160, Note_on_c, 5, 69, 96
1, 68160, Note_on_c, 7, 64, 65
1, 68160, Note_on_c, 7, 69, 72
1, 68160, Note_on_c, 7, 76, 72
1, 68160, Note_on_c, 8, 59, 100
1, 68160, Note_on_c, 8, 61, 100
1, 68160, Note_on_c, 13, 49, 100
1, 68160, Note_on_c, 13, 56, 100
1, 68372, Note_off_c, 1, 69, 0
1, 68392, Note_off_c, 8, 59, 0
1, 68392, Note_off_c, 8, 61, 0
1, 68392, Note_off_c, 13, 49, 0
1, 68392, Note_off_c, 13, 56, 0
1, 68436, Note_off_c, 7, 64, 0
1, 68442, Note_on_c, 10, 64, 67
1, 68442, Note_on_c, 10, 69, 73
1, 68442, Note_on_c, 10, 76, 74
1, 68450, Note_off_c, 7, 69, 0
1, 68452, Note_off_c, 7, 76, 0
1, 68632, Note_off_c, 0, 57, 64
1, 68632, Note_off_c, 0, 61, 64
1, 68632, Note_off_c, 2, 69, 64
1, 68632, Note_off_c, 2, 73, 64
1, 68632, Note_off_c, 3, 73, 64
1, 68632, Note_off_c, 3, 76, 64
1, 68632, Note_off_c, 4, 73, 0
1, 68632, Note_off_c, 5, 69, 0
1, 68640, Note_on_c, 6, 64, 73
1, 68640, Note_on_c, 6, 69, 80
1, 68640, Note_on_c, 6, 76, 77
1, 68640, Note_on_c, 8, 49, 100
1, 68640, Note_on_c, 8, 56, 100
1, 68640, Note_on_c, 13, 59, 100
1, 68640, Note_on_c, 13, 61, 100
1, 68658, Note_off_c, 10, 64, 0
1, 68678, Note_off_c, 10, 76, 0
1, 68688, Note_off_c, 10, 69, 0
1, 68774, Note_off_c, 1, 64, 0
1, 68872, Note_off_c, 8, 49, 0
1, 68872, Note_off_c, 8, 56, 0
1, 68872, Note_off_c, 13, 59, 0
1, 68872, Note_off_c, 13, 61, 0
1, 68902, Note_off_c, 6, 64, 0
1, 68918, Note_off_c, 6, 69, 0
1, 68928, Note_off_c, 6, 76, 0
1, 69120, Note_on_c, 1, 66, 77
1, 69120, Note_on_c, 3, 71, 100
1, 69120, Note_on_c, 3, 76, 100
1, 69120, Note_on_c, 7, 64, 67
1, 69120, Note_on_c, 7, 69, 75
1, 69120, Note_on_c, 7, 76, 70
1, 69120, Note_on_c, 8, 59, 100
1, 69120, Note_on_c, 8, 61, 100
1, 69120, Note_on_c, 13, 49, 100
1, 69120, Note_on_c, 13, 56, 100
1, 69350, Note_off_c, 7, 69, 0
1, 69352, Note_off_c, 8, 59, 0
1, 69352, Note_off_c, 8, 61, 0
1, 69352, Note_off_c, 13, 49, 0
1, 69352, Note_off_c, 13, 56, 0
1, 69368, Note_off_c, 7, 64, 0
1, 69378, Note_off_c, 7, 76, 0
1, 69402, Note_on_c, 10, 64, 68
1, 69402, Note_on_c, 10, 69, 74
1, 69402, Note_on_c, 10, 76, 75
1, 69592, Note_off_c, 3, 71, 64
1, 69592, Note_off_c, 3, 76, 64
1, 69600, Note_on_c, 1, 61, 70
1, 69600, Note_on_c, 3, 64, 100
1, 69600, Note_on_c, 3, 69, 100
1, 69600, Note_on_c, 6, 64, 68
1, 69600, Note_on_c, 6, 69, 70
1, 69600, Note_on_c, 6, 76, 74
1, 69600, Note_on_c, 8, 49, 100
1, 69600, Note_on_c, 8, 56, 100
1, 69600, Note_on_c, 13, 59, 100
1, 69600, Note_on_c, 13, 61, 100
1, 69674, Note_off_c, 10, 69, 0
1, 69678, Note_off_c, 10, 64, 0
1, 69692, Note_off_c, 10, 76, 0
1, 69762, Note_off_c, 1, 66, 0
1, 69832, Note_off_c, 8, 49, 0
1, 69832, Note_off_c, 8, 56, 0
1, 69832, Note_off_c, 13, 59, 0
1, 69832, Note_off_c, 13, 61, 0
1, 69886, Note_off_c, 6, 64, 0
1, 69898, Note_off_c, 6, 69, 0
1, 69898, Note_off_c, 6, 76, 0
1, 70072, Note_off_c, 3, 64, 64
1, 70072, Note_off_c, 3, 69, 64
1, 70080, Note_on_c, 7, 64, 66
1, 70080, Note_on_c, 7, 69, 68
1, 70080, Note_on_c, 7, 76, 72
1, 70080, Note_on_c, 8, 59, 100
1, 70080, Note_on_c, 8, 61, 100
1, 70080, Note_on_c, 13, 49, 100
1, 70080, Note_on_c, 13, 56, 100
1, 70228, Note_off_c, 1, 61, 0
1, 70312, Note_off_c, 8, 59, 0
1, 70312, Note_off_c, 8, 61, 0
1, 70312, Note_off_c, 13, 49, 0
1, 70312, Note_off_c, 13, 56, 0
1, 70340, Note_off_c, 7, 69, 0
1, 70350, Note_off_c, 7, 64, 0
1, 70354, Note_off_c, 7, 76, 0
1, 70362, Note_on_c, 10, 64, 73
1, 70362, Note_on_c, 10, 69, 80
1, 70362, Note_on_c, 10, 76, 77
1, 70560, Note_on_c, 1, 69, 77
1, 70560, Note_on_c, 3, 71, 100
1, 70560, Note_on_c, 3, 76, 100
1, 70560, Note_on_c, 6, 64, 70
1, 70560, Note_on_c, 6, 69, 74
1, 70560, Note_on_c, 6, 76, 74
1, 70560, Note_on_c, 8, 49, 100
1, 70560, Note_on_c, 8, 56, 100
1, 70560, Note_on_c, 13, 59, 100
1, 70560, Note_on_c, 13, 61, 100
1, 70624, Note_off_c, 10, 64, 0
1, 70640, Note_off_c, 10, 69, 0
1, 70650, Note_off_c, 10, 76, 0
1, 70764, Note_off_c, 6, 64, 0
1, 70792, Note_off_c, 8, 49, 0
1, 70792, Note_off_c, 8, 56, 0
1, 70792, Note_off_c, 13, 59, 0
1, 70792, Note_off_c, 13, 61, 0
1, 70794, Note_off_c, 6, 76, 0
1, 70832, Note_off_c, 6, 69, 0
1, 71032, Note_off_c, 3, 71, 64
1, 71032, Note_off_c, 3, 76, 64
1, 71040, Note_on_c, 7, 64, 62
1, 71040, Note_on_c, 7, 69, 60
1, 71040, Note_on_c, 7, 76, 70
1, 71040, Note_on_c, 8, 59, 100
1, 71040, Note_on_c, 8, 61, 100
1, 71040, Note_on_c, 13, 49, 100
1, 71040, Note_on_c, 13, 56, 100
1, 71208, Note_off_c, 1, 69, 0
1, 71272, Note_off_c, 8, 59, 0
1, 71272, Note_off_c, 8, 61, 0
1, 71272, Note_off_c, 13, 49, 0
1, 71272, Note_off_c, 13, 56, 0
1, 71300, Note_off_c, 7, 69, 0
1, 71318, Note_off_c, 7, 64, 0
1, 71322, Note_on_c, 10, 64, 68
1, 71322, Note_on_c, 10, 69, 70
1, 71322, Note_on_c, 10, 76, 74
1, 71378, Note_off_c, 7, 76, 0
1, 71520, Note_on_c, 1, 64, 68
1, 71520, Note_on_c, 3, 73, 100
1, 71520, Note_on_c, 3, 76, 100
1, 71520, Note_on_c, 6, 64, 68
1, 71520, Note_on_c, 6, 69, 68
1, 71520, Note_on_c, 6, 76, 72
1, 71520, Note_on_c, 8, 49, 100
1, 71520, Note_on_c, 8, 56, 100
1, 71520, Note_on_c, 13, 59, 100
1, 71520, Note_on_c, 13, 61, 100
1, 71608, Note_off_c, 10, 64, 0
1, 71620, Note_off_c, 10, 69, 0
1, 71620, Note_off_c, 10, 76, 0
1, 71726, Note_off_c, 6, 69, 0
1, 71734, Note_off_c, 6, 64, 0
1, 71744, Note_off_c, 6, 76, 0
1, 71752, Note_off_c, 8, 49, 0
1, 71752, Note_off_c, 8, 56, 0
1, 71752, Note_off_c, 13, 59, 0
1, 71752, Note_off_c, 13, 61, 0
1, 71964, Note_off_c, 1, 64, 0
1, 71992, Note_off_c, 3, 73, 64
1, 71992, Note_off_c, 3, 76, 64
1, 72000, Note_on_c, 0, 54, 86
1, 72000, Note_on_c, 0, 57, 86
1, 72000, Note_on_c, 1, 66, 78
1, 72000, Note_on_c, 2, 66, 86
1, 72000, Note_on_c, 2, 69, 86
1, 72000, Note_on_c, 3, 64, 100
1, 72000, Note_on_c, 3, 69, 100
1, 72000, Note_on_c, 4, 69, 99
1, 72000, Note_on_c, 5, 66, 96
1, 72000, Note_on_c, 7, 64, 56
1, 72000, Note_on_c, 7, 69, 69
1, 72000, Note_on_c, 7, 76, 73
1, 72000, Note_on_c, 8, 57, 100
1, 72000, Note_on_c, 8, 61, 100
1, 72000, Note_on_c, 13, 49, 100
1, 72000, Note_on_c, 13, 54, 100
1, 72232, Note_off_c, 8, 57, 0
1, 72232, Note_off_c, 8, 61, 0
1, 72232, Note_off_c, 13, 49, 0
1, 72232, Note_off_c, 13, 54, 0
1, 72266, Note_off_c, 7, 64, 0
1, 72282, Note_on_c, 10, 64, 70
1, 72282, Note_on_c, 10, 69, 74
1, 72282, Note_on_c, 10, 76, 74
1, 72294, Note_off_c, 7, 69, 0
1, 72302, Note_off_c, 7, 76, 0
1, 72472, Note_off_c, 0, 54, 64
1, 72472, Note_off_c, 0, 57, 64
1, 72472, Note_off_c, 2, 66, 64
1, 72472, Note_off_c, 2, 69, 64
1, 72472, Note_off_c, 3, 64, 64
1, 72472, Note_off_c, 3, 69, 64
1, 72472, Note_off_c, 4, 69, 0
1, 72472, Note_off_c, 5, 66, 0
1, 72480, Note_on_c, 6, 64, 70
1, 72480, Note_on_c, 6, 69, 70
1, 72480, Note_on_c, 6, 76, 75
1, 72480, Note_on_c, 8, 49, 100
1, 72480, Note_on_c, 8, 54, 100
1, 72480, Note_on_c, 13, 57, 100
1, 72480, Note_on_c, 13, 61, 100
1, 72486, Note_off_c, 10, 64, 0
1, 72516, Note_off_c, 10, 76, 0
1, 72554, Note_off_c, 10, 69, 0
1, 72668, Note_off_c, 1, 66, 0
1, 72708, Note_off_c, 6, 69, 0
1, 72712, Note_off_c, 8, 49, 0
1, 72712, Note_off_c, 8, 54, 0
1, 72712, Note_off_c, 13, 57, 0
1, 72712, Note_off_c, 13, 61, 0
1, 72750, Note_off_c, 6, 64, 0
1, 72788, Note_off_c, 6, 76, 0
1, 72960, Note_on_c, 0, 56, 86
1, 72960, Note_on_c, 0, 59, 86
1, 72960, Note_on_c, 1, 59, 74
1, 72960, Note_on_c, 2, 68, 86
1, 72960, Note_on_c, 2, 71, 86
1, 72960, Note_on_c, 3, 71, 100
1, 72960, Note_on_c, 3, 76, 100
1, 72960, Note_on_c, 4, 71, 99
1, 72960, Note_on_c, 5, 68, 96
1, 72960, Note_on_c, 7, 64, 66
1, 72960, Note_on_c, 7, 69, 70
1, 72960, Note_on_c, 7, 76, 75
1, 72960, Note_on_c, 8, 57, 100
1, 72960, Note_on_c, 8, 61, 100
1, 72960, Note_on_c, 13, 49, 100
1, 72960, Note_on_c, 13, 54, 100
1, 73192, Note_off_c, 8, 57, 0
1, 73192, Note_off_c, 8, 61, 0
1, 73192, Note_off_c, 13, 49, 0
1, 73192, Note_off_c, 13, 54, 0
1, 73210, Note_off_c, 7, 69, 0
1, 73224, Note_off_c, 7, 64, 0
1, 73242, Note_on_c, 10, 64, 68
1, 73242, Note_on_c, 10, 69, 68
1, 73242, Note_on_c, 10, 76, 72
1, 73250, Note_off_c, 7, 76, 0
1, 73432, Note_off_c, 0, 56, 64
1, 73432, Note_off_c, 0, 59, 64
1, 73432, Note_off_c, 2, 68, 64
1, 73432, Note_off_c, 2, 71, 64
1, 73432, Note_off_c, 3, 71, 64
1, 73432, Note_off_c, 3, 76, 64
1, 73432, Note_off_c, 4, 71, 0
1, 73432, Note_off_c, 5, 68, 0
1, 73440, Note_on_c, 0, 54, 86
1, 73440, Note_on_c, 0, 57, 86
1, 73440, Note_on_c, 1, 69, 75
1, 73440, Note_on_c, 2, 66, 86
1, 73440, Note_on_c, 2, 69, 86
1, 73440, Note_on_c, 3, 66, 100
1, 73440, Note_on_c, 3, 69, 100
1, 73440, Note_on_c, 4, 69, 99
1, 73440, Note_on_c, 5, 66, 96
1, 73440, Note_on_c, 6, 64, 69
1, 73440, Note_on_c, 6, 69, 69
1, 73440, Note_on_c, 6, 76, 73
1, 73440, Note_on_c, 8, 49, 100
1, 73440, Note_on_c, 8, 54, 100
1, 73440, Note_on_c, 13, 57, 100
1, 73440, Note_on_c, 13, 61, 100
1, 73448, Note_off_c, 1, 59, 0
1, 73448, Note_off_c, 10, 69, 0
1, 73456, Note_off_c, 10, 64, 0
1, 73466, Note_off_c, 10, 76, 0
1, 73672, Note_off_c, 8, 49, 0
1, 73672, Note_off_c, 8, 54, 0
1, 73672, Note_off_c, 13, 57, 0
1, 73672, Note_off_c, 13, 61, 0
1, 73706, Note_off_c, 6, 64, 0
1, 73744, Note_off_c, 6, 69, 0
1, 73744, Note_off_c, 6, 76, 0
1, 73912, Note_off_c, 0, 54, 64
1, 73912, Note_off_c, 0, 57, 64
1, 73912, Note_off_c, 2, 66, 64
1, 73912, Note_off_c, 2, 69, 64
1, 73912, Note_off_c, 3, 66, 64
1, 73912, Note_off_c, 3, 69, 64
1, 73912, Note_off_c, 4, 69, 0
1, 73912, Note_off_c, 5, 66, 0
1, 73920, Note_on_c, 0, 57, 86
1, 73920, Note_on_c, 0, 61, 86
1, 73920, Note_on_c, 1, 64, 73
1, 73920, Note_on_c, 2, 69, 86
1, 73920, Note_on_c, 2, 73, 86
1, 73920, Note_on_c, 3, 73, 100
1, 73920, Note_on_c, 3, 76, 100
1, 73920, Note_on_c, 4, 73, 99
1, 73920, Note_on_c, 5, 69, 96
1, 73920, Note_on_c, 7, 64, 66
1, 73920, Note_on_c, 7, 69, 70
1, 73920, Note_on_c, 7, 76, 75
1, 73920, Note_on_c, 8, 59, 100
1, 73920, Note_on_c, 8, 61, 100
1, 73920, Note_on_c, 13, 49, 100
1, 73920, Note_on_c, 13, 56, 100
1, 74046, Note_off_c, 1, 69, 0
1, 74152, Note_off_c, 8, 59, 0
1, 74152, Note_off_c, 8, 61, 0
1, 74152, Note_off_c, 13, 49, 0
1, 74152, Note_off_c, 13, 56, 0
1, 74170, Note_off_c, 7, 69, 0
1, 74184, Note_off_c, 7, 64, 0
1, 74202, Note_on_c, 10, 64, 70
1, 74202, Note_on_c, 10, 69, 70
1, 74202, Note_on_c, 10, 76, 75
1, 74210, Note_off_c, 7, 76, 0
1, 74392, Note_off_c, 0, 57, 64
1, 74392, Note_off_c, 0, 61, 64
1, 74392, Note_off_c, 2, 69, 64
1, 74392, Note_off_c, 2, 73, 64
1, 74392, Note_off_c, 3, 73, 64
1, 74392, Note_off_c, 3, 76, 64
1, 74392, Note_off_c, 4, 73, 0
1, 74392, Note_off_c, 5, 69, 0
1, 74400, Note_on_c, 6, 64, 67
1, 74400, Note_on_c, 6, 69, 63
1, 74400, Note_on_c, 6, 76, 74
1, 74400, Note_on_c, 8, 49, 100
1, 74400, Note_on_c, 8, 56, 100
1, 74400, Note_on_c, 13, 59, 100
1, 74400, Note_on_c, 13, 61, 100
1, 74430, Note_off_c, 10, 69, 0
1, 74472, Note_off_c, 10, 64, 0
1, 74510, Note_off_c, 10, 76, 0
1, 74604, Note_off_c, 6, 69, 0
1, 74626, Note_off_c, 1, 64, 0
1, 74632, Note_off_c, 8, 49, 0
1, 74632, Note_off_c, 8, 56, 0
1, 74632, Note_off_c, 13, 59, 0
1, 74632, Note_off_c, 13, 61, 0
1, 74666, Note_off_c, 6, 64, 0
1, 74666, Note_off_c, 6, 76, 0
1, 74880, Note_on_c, 1, 66, 68
1, 74880, Note_on_c, 3, 71, 100
1, 74880, Note_on_c, 3, 76, 100
1, 74880, Note_on_c, 7, 64, 72
1, 74880, Note_on_c, 7, 69, 80
1, 74880, Note_on_c, 7, 76, 77
1, 74880, Note_on_c, 8, 59, 100
1, 74880, Note_on_c, 8, 61, 100
1, 74880, Note_on_c, 13, 49, 100
1, 74880, Note_on_c, 13, 56, 100
1, 75112, Note_off_c, 8, 59, 0
1, 75112, Note_off_c, 8, 61, 0
1, 75112, Note_off_c, 13, 49, 0
1, 75112, Note_off_c, 13, 56, 0
1, 75120, Note_off_c, 7, 76, 0
1, 75130, Note_off_c, 7, 64, 0
1, 75130, Note_off_c, 7, 69, 0
1, 75162, Note_on_c, 10, 64, 69
1, 75162, Note_on_c, 10, 69, 69
1, 75162, Note_on_c, 10, 76, 73
1, 75352, Note_off_c, 3, 71, 64
1, 75352, Note_off_c, 3, 76, 64
1, 75360, Note_on_c, 1, 61, 68
1, 75360, Note_on_c, 3, 64, 100
1, 75360, Note_on_c, 3, 69, 100
1, 75360, Note_on_c, 6, 64, 66
1, 75360, Note_on_c, 6, 69, 63
1, 75360, Note_on_c, 6, 76, 74
1, 75360, Note_on_c, 8, 49, 100
1, 75360, Note_on_c, 8, 56, 100
1, 75360, Note_on_c, 13, 59, 100
1, 75360, Note_on_c, 13, 61, 100
1, 75396, Note_off_c, 1, 66, 0
1, 75428, Note_off_c, 10, 64, 0
1, 75466, Note_off_c, 10, 69, 0
1, 75466, Note_off_c, 10, 76, 0
1, 75590, Note_off_c, 6, 69, 0
1, 75592, Note_off_c, 8, 49, 0
1, 75592, Note_off_c, 8, 56, 0
1, 75592, Note_off_c, 13, 59, 0
1, 75592, Note_off_c, 13, 61, 0
1, 75596, Note_off_c, 6, 64, 0
1, 75634, Note_off_c, 6, 76, 0
1, 75832, Note_off_c, 3, 64, 64
1, 75832, Note_off_c, 3, 69, 64
1, 75840, Note_on_c, 7, 64, 70
1, 75840, Note_on_c, 7, 69, 77
1, 75840, Note_on_c, 7, 76, 77
1, 75840, Note_on_c, 8, 59, 100
1, 75840, Note_on_c, 8, 61, 100
1, 75840, Note_on_c, 13, 49, 100
1, 75840, Note_on_c, 13, 56, 100
1, 76072, Note_off_c, 8, 59, 0
1, 76072, Note_off_c, 8, 61, 0
1, 76072, Note_off_c, 13, 49, 0
1, 76072, Note_off_c, 13, 56, 0
1, 76094, Note_off_c, 7, 64, 0
1, 76122, Note_off_c, 7, 69, 0
1, 76122, Note_on_c, 10, 64, 67
1, 76122, Note_on_c, 10, 69, 63
1, 76122, Note_on_c, 10, 76, 74
1, 76130, Note_off_c, 1, 61, 0
1, 76130, Note_off_c, 7, 76, 0
1, 76320, Note_on_c, 1, 69, 77
1, 76320, Note_on_c, 3, 71, 100
1, 76320, Note_on_c, 3, 76, 100
1, 76320, Note_on_c, 6, 64, 68
1, 76320, Note_on_c, 6, 69, 74
1, 76320, Note_on_c, 6, 76, 74
1, 76320, Note_on_c, 8, 49, 100
1, 76320, Note_on_c, 8, 56, 100
1, 76320, Note_on_c, 13, 59, 100
1, 76320, Note_on_c, 13, 61, 100
1, 76326, Note_off_c, 10, 69, 0
1, 76388, Note_off_c, 10, 64, 0
1, 76388, Note_off_c, 10, 76, 0
1, 76552, Note_off_c, 8, 49, 0
1, 76552, Note_off_c, 8, 56, 0
1, 76552, Note_off_c, 13, 59, 0
1, 76552, Note_off_c, 13, 61, 0
1, 76580, Note_off_c, 6, 69, 0
1, 76610, Note_off_c, 6, 76, 0
1, 76614, Note_off_c, 6, 64, 0
1, 76792, Note_off_c, 3, 71, 64
1, 76792, Note_off_c, 3, 76, 64
1, 76800, Note_on_c, 7, 64, 70
1, 76800, Note_on_c, 7, 69, 73
1, 76800, Note_on_c, 7, 76, 74
1, 76800, Note_on_c, 8, 59, 100
1, 76800, Note_on_c, 8, 61, 100
1, 76800, Note_on_c, 13, 49, 100
1, 76800, Note_on_c, 13, 56, 100
1, 76944, Note_off_c, 1, 69, 0
1, 77032, Note_off_c, 8, 59, 0
1, 77032, Note_off_c, 8, 61, 0
1, 77032, Note_off_c, 13, 49, 0
1, 77032, Note_off_c, 13, 56, 0
1, 77040, Note_off_c, 7, 64, 0
1, 77046, Note_off_c, 7, 69, 0
1, 77060, Note_off_c, 7, 76, 0
1, 77082, Note_on_c, 10, 64, 66
1, 77082, Note_on_c, 10, 69, 63
1, 77082, Note_on_c, 10, 76, 74
1, 77280, Note_on_c, 1, 64, 70
1, 77280, Note_on_c, 3, 73, 100
1, 77280, Note_on_c, 3, 76, 100
1, 77280, Note_on_c, 6, 64, 73
1, 77280, Note_on_c, 6, 69, 82
1, 77280, Note_on_c, 6, 76, 77
1, 77280, Note_on_c, 8, 49, 100
1, 77280, Note_on_c, 8, 56, 100
1, 77280, Note_on_c, 13, 59, 100
1, 77280, Note_on_c, 13, 61, 100
1, 77312, Note_off_c, 10, 69, 0
1, 77318, Note_off_c, 10, 64, 0
1, 77356, Note_off_c, 10, 76, 0
1, 77512, Note_off_c, 8, 49, 0
1, 77512, Note_off_c, 8, 56, 0
1, 77512, Note_off_c, 13, 59, 0
1, 77512, Note_off_c, 13, 61, 0
1, 77558, Note_off_c, 6, 69, 0
1, 77570, Note_off_c, 6, 64, 0
1, 77578, Note_off_c, 6, 76, 0
1, 77752, Note_off_c, 3, 73, 64
1, 77752, Note_off_c, 3, 76, 64
1, 77760, Note_on_c, 0, 54, 86
1, 77760, Note_on_c, 0, 57, 86
1, 77760, Note_on_c, 1, 66, 77
1, 77760, Note_on_c, 2, 66, 86
1, 77760, Note_on_c, 2, 69, 86
1, 77760, Note_on_c, 3, 64, 100
1, 77760, Note_on_c, 3, 69, 100
1, 77760, Note_on_c, 4, 69, 99
1, 77760, Note_on_c, 5, 66, 96
1, 77760, Note_on_c, 7, 64, 72
1, 77760, Note_on_c, 7, 69, 77
1, 77760, Note_on_c, 7, 76, 75
1, 77760, Note_on_c, 8, 57, 100
1, 77760, Note_on_c, 8, 61, 100
1, 77760, Note_on_c, 13, 49, 100
1, 77760, Note_on_c, 13, 54, 100
1, 77912, Note_off_c, 1, 64, 0
1, 77968, Note_off_c, 7, 69, 0
1, 77982, Note_off_c, 7, 64, 0
1, 77992, Note_off_c, 8, 57, 0
1, 77992, Note_off_c, 8, 61, 0
1, 77992, Note_off_c, 13, 49, 0
1, 77992, Note_off_c, 13, 54, 0
1, 78002, Note_off_c, 7, 76, 0
1, 78042, Note_on_c, 10, 64, 68
1, 78042, Note_on_c, 10, 69, 74
1, 78042, Note_on_c, 10, 76, 74
1, 78232, Note_off_c, 0, 54, 64
1, 78232, Note_off_c, 0, 57, 64
1, 78232, Note_off_c, 2, 66, 64
1, 78232, Note_off_c, 2, 69, 64
1, 78232, Note_off_c, 3, 64, 64
1, 78232, Note_off_c, 3, 69, 64
1, 78232, Note_off_c, 4, 69, 0
1, 78232, Note_off_c, 5, 66, 0
1, 78240, Note_on_c, 6, 64, 72
1, 78240, Note_on_c, 6, 69, 75
1, 78240, Note_on_c, 6, 76, 73
1, 78240, Note_on_c, 8, 49, 100
1, 78240, Note_on_c, 8, 54, 100
1, 78240, Note_on_c, 13, 57, 100
1, 78240, Note_on_c, 13, 61, 100
1, 78302, Note_off_c, 10, 69, 0
1, 78332, Note_off_c, 10, 76, 0
1, 78336, Note_off_c, 10, 64, 0
1, 78404, Note_off_c, 1, 66, 0
1, 78472, Note_off_c, 8, 49, 0
1, 78472, Note_off_c, 8, 54, 0
1, 78472, Note_off_c, 13, 57, 0
1, 78472, Note_off_c, 13, 61, 0
1, 78528, Note_off_c, 6, 76, 0
1, 78530, Note_off_c, 6, 69, 0
1, 78538, Note_off_c, 6, 64, 0
1, 78720, Note_on_c, 0, 56, 86
1, 78720, Note_on_c, 0, 59, 86
1, 78720, Note_on_c, 1, 59, 65
1, 78720, Note_on_c, 2, 68, 86
1, 78720, Note_on_c, 2, 71, 86
1, 78720, Note_on_c, 3, 71, 100
1, 78720, Note_on_c, 3, 76, 100
1, 78720, Note_on_c, 4, 71, 99
1, 78720, Note_on_c, 5, 68, 96
1, 78720, Note_on_c, 7, 64, 70
1, 78720, Note_on_c, 7, 69, 78
1, 78720, Note_on_c, 7, 76, 77
1, 78720, Note_on_c, 8, 57, 100
1, 78720, Note_on_c, 8, 61, 100
1, 78720, Note_on_c, 13, 49, 100
1, 78720, Note_on_c, 13, 54, 100
1, 78952, Note_off_c, 8, 57, 0
1, 78952, Note_off_c, 8, 61, 0
1, 78952, Note_off_c, 13, 49, 0
1, 78952, Note_off_c, 13, 54, 0
1, 78962, Note_off_c, 7, 64, 0
1, 78984, Note_off_c, 7, 76, 0
1, 79002, Note_on_c, 10, 64, 73
1, 79002, Note_on_c, 10, 69, 82
1, 79002, Note_on_c, 10, 76, 77
1, 79008, Note_off_c, 7, 69, 0
1, 79192, Note_off_c, 0, 56, 64
1, 79192, Note_off_c, 0, 59, 64
1, 79192, Note_off_c, 2, 68, 64
1, 79192, Note_off_c, 2, 71, 64
1, 79192, Note_off_c, 3, 71, 64
1, 79192, Note_off_c, 3, 76, 64
1, 79192, Note_off_c, 4, 71, 0
1, 79192, Note_off_c, 5, 68, 0
1, 79200, Note_on_c, 0, 54, 86
1, 79200, Note_on_c, 0, 57, 86
1, 79200, Note_on_c, 1, 69, 74
1, 79200, Note_on_c, 2, 66, 86
1, 79200, Note_on_c, 2, 69, 86
1, 79200, Note_on_c, 3, 66, 100
1, 79200, Note_on_c, 3, 69, 100
1, 79200, Note_on_c, 4, 69, 99
1, 79200, Note_on_c, 5, 66, 96
1, 79200, Note_on_c, 6, 64, 69
1, 79200, Note_on_c, 6, 69, 70
1, 79200, Note_on_c, 6, 76, 72
1, 79200, Note_on_c, 8, 49, 100
1, 79200, Note_on_c, 8, 54, 100
1, 79200, Note_on_c, 13, 57, 100
1, 79200, Note_on_c, 13, 61, 100
1, 79280, Note_off_c, 10, 69, 0
1, 79292, Note_off_c, 10, 64, 0
1, 79294, Note_off_c, 1, 59, 0
1, 79300, Note_off_c, 10, 76, 0
1, 79432, Note_off_c, 8, 49, 0
1, 79432, Note_off_c, 8, 54, 0
1, 79432, Note_off_c, 13, 57, 0
1, 79432, Note_off_c, 13, 61, 0
1, 79464, Note_off_c, 6, 69, 0
1, 79488, Note_off_c, 6, 64, 0
1, 79504, Note_off_c, 6, 76, 0
1, 79672, Note_off_c, 0, 54, 64
1, 79672, Note_off_c, 0, 57, 64
1, 79672, Note_off_c, 2, 66, 64
1, 79672, Note_off_c, 2, 69, 64
1, 79672, Note_off_c, 3, 66, 64
1, 79672, Note_off_c, 3, 69, 64
1, 79672, Note_off_c, 4, 69, 0
1, 79672, Note_off_c, 5, 66, 0
1, 79680, Note_on_c, 0, 57, 86
1, 79680, Note_on_c, 0, 61, 86
1, 79680, Note_on_c, 1, 64, 68
1, 79680, Note_on_c, 2, 69, 86
1, 79680, Note_on_c, 2, 73, 86
1, 79680, Note_on_c, 3, 73, 100
1, 79680, Note_on_c, 3, 76, 100
1, 79680, Note_on_c, 4, 73, 99
1, 79680, Note_on_c, 5, 69, 96
1, 79680, Note_on_c, 7, 64, 70
1, 79680, Note_on_c, 7, 69, 72
1, 79680, Note_on_c, 7, 76, 77
1, 79680, Note_on_c, 8, 59, 100
1, 79680, Note_on_c, 8, 61, 100
1, 79680, Note_on_c, 13, 49, 100
1, 79680, Note_on_c, 13, 56, 100
1, 79892, Note_off_c, 1, 69, 0
1, 79912, Note_off_c, 8, 59, 0
1, 79912, Note_off_c, 8, 61, 0
1, 79912, Note_off_c, 13, 49, 0
1, 79912, Note_off_c, 13, 56, 0
1, 79934, Note_off_c, 7, 64, 0
1, 79946, Note_off_c, 7, 69, 0
1, 79962, Note_on_c, 10, 64, 72
1, 79962, Note_on_c, 10, 69, 75
1, 79962, Note_on_c, 10, 76, 73
1, 80002, Note_off_c, 7, 76, 0
1, 80152, Note_off_c, 0, 57, 64
1, 80152, Note_off_c, 0, 61, 64
1, 80152, Note_off_c, 2, 69, 64
1, 80152, Note_off_c, 2, 73, 64
1, 80152, Note_off_c, 3, 73, 64
1, 80152, Note_off_c, 3, 76, 64
1, 80152, Note_off_c, 4, 73, 0
1, 80152, Note_off_c, 5, 69, 0
1, 80160, Note_on_c, 6, 64, 68
1, 80160, Note_on_c, 6, 69, 77
1, 80160, Note_on_c, 6, 76, 73
1, 80160, Note_on_c, 8, 49, 100
1, 80160, Note_on_c, 8, 56, 100
1, 80160, Note_on_c, 13, 59, 100
1, 80160, Note_on_c, 13, 61, 100
1, 80250, Note_off_c, 10, 76, 0
1, 80252, Note_off_c, 10, 69, 0
1, 80260, Note_off_c, 10, 64, 0
1, 80294, Note_off_c, 1, 64, 0
1, 80392, Note_off_c, 8, 49, 0
1, 80392, Note_off_c, 8, 56, 0
1, 80392, Note_off_c, 13, 59, 0
1, 80392, Note_off_c, 13, 61, 0
1, 80426, Note_off_c, 6, 64, 0
1, 80444, Note_off_c, 6, 69, 0
1, 80444, Note_off_c, 6, 76, 0
1, 80640, Note_on_c, 1, 66, 77
1, 80640, Note_on_c, 3, 71, 100
1, 80640, Note_on_c, 3, 76, 100
1, 80640, Note_on_c, 7, 64, 73
1, 80640, Note_on_c, 7, 69, 77
1, 80640, Note_on_c, 7, 76, 74
1, 80640, Note_on_c, 8, 59, 100
1, 80640, Note_on_c, 8, 61, 100
1, 80640, Note_on_c, 13, 49, 100
1, 80640, Note_on_c, 13, 56, 100
1, 80872, Note_off_c, 8, 59, 0
1, 80872, Note_off_c, 8, 61, 0
1, 80872, Note_off_c, 13, 49, 0
1, 80872, Note_off_c, 13, 56, 0
1, 80922, Note_on_c, 10, 64, 69
1, 80922, Note_on_c, 10, 69, 70
1, 80922, Note_on_c, 10, 76, 72
1, 80924, Note_off_c, 7, 69, 0
1, 80956, Note_off_c, 7, 76, 0
1, 80962, Note_off_c, 7, 64, 0
1, 81112, Note_off_c, 3, 71, 64
1, 81112, Note_off_c, 3, 76, 64
1, 81120, Note_on_c, 1, 61, 70
1, 81120, Note_on_c, 3, 64, 100
1, 81120, Note_on_c, 3, 69, 100
1, 81120, Note_on_c, 6, 64, 72
1, 81120, Note_on_c, 6, 69, 52
1, 81120, Note_on_c, 6, 76, 72
1, 81120, Note_on_c, 8, 49, 100
1, 81120, Note_on_c, 8, 56, 100
1, 81120, Note_on_c, 13, 59, 100
1, 81120, Note_on_c, 13, 61, 100
1, 81186, Note_off_c, 10, 69, 0
1, 81210, Note_off_c, 10, 64, 0
1, 81226, Note_off_c, 10, 76, 0
1, 81272, Note_off_c, 6, 69, 0
1, 81282, Note_off_c, 1, 66, 0
1, 81352, Note_off_c, 8, 49, 0
1, 81352, Note_off_c, 8, 56, 0
1, 81352, Note_off_c, 13, 59, 0
1, 81352, Note_off_c, 13, 61, 0
1, 81360, Note_off_c, 6, 64, 0
1, 81366, Note_off_c, 6, 76, 0
1, 81592, Note_off_c, 3, 64, 64
1, 81592, Note_off_c, 3, 69, 64
1, 81600, Note_on_c, 7, 64, 68
1, 81600, Note_on_c, 7, 69, 70
1, 81600, Note_on_c, 7, 76, 72
1, 81600, Note_on_c, 8, 59, 100
1, 81600, Note_on_c, 8, 61, 100
1, 81600, Note_on_c, 13, 49, 100
1, 81600, Note_on_c, 13, 56, 100
1, 81748, Note_off_c, 1, 61, 0
1, 81832, Note_off_c, 8, 59, 0
1, 81832, Note_off_c, 8, 61, 0
1, 81832, Note_off_c, 13, 49, 0
1, 81832, Note_off_c, 13, 56, 0
1, 81882, Note_on_c, 10, 64, 68
1, 81882, Note_on_c, 10, 69, 77
1, 81882, Note_on_c, 10, 76, 73
1, 81890, Note_off_c, 7, 69, 0
1, 81908, Note_off_c, 7, 76, 0
1, 81914, Note_off_c, 7, 64, 0
1, 82080, Note_on_c, 1, 69, 77
1, 82080, Note_on_c, 3, 71, 100
1, 82080, Note_on_c, 3, 76, 100
1, 82080, Note_on_c, 6, 64, 68
1, 82080, Note_on_c, 6, 69, 70
1, 82080, Note_on_c, 6, 76, 74
1, 82080, Note_on_c, 8, 49, 100
1, 82080, Note_on_c, 8, 56, 100
1, 82080, Note_on_c, 13, 59, 100
1, 82080, Note_on_c, 13, 61, 100
1, 82148, Note_off_c, 10, 64, 0
1, 82166, Note_off_c, 10, 69, 0
1, 82166, Note_off_c, 10, 76, 0
1, 82312, Note_off_c, 6, 69, 0
1, 82312, Note_off_c, 8, 49, 0
1, 82312, Note_off_c, 8, 56, 0
1, 82312, Note_off_c, 13, 59, 0
1, 82312, Note_off_c, 13, 61, 0
1, 82322, Note_off_c, 6, 64, 0
1, 82330, Note_off_c, 6, 76, 0
1, 82552, Note_off_c, 3, 71, 64
1, 82552, Note_off_c, 3, 76, 64
1, 82560, Note_on_c, 7, 64, 68
1, 82560, Note_on_c, 7, 69, 70
1, 82560, Note_on_c, 7, 76, 73
1, 82560, Note_on_c, 8, 59, 100
1, 82560, Note_on_c, 8, 61, 100
1, 82560, Note_on_c, 13, 49, 100
1, 82560, Note_on_c, 13, 56, 100
1, 82728, Note_off_c, 1, 69, 0
1, 82792, Note_off_c, 8, 59, 0
1, 82792, Note_off_c, 8, 61, 0
1, 82792, Note_off_c, 13, 49, 0
1, 82792, Note_off_c, 13, 56, 0
1, 82808, Note_off_c, 7, 64, 0
1, 82822, Note_off_c, 7, 69, 0
1, 82822, Note_off_c, 7, 76, 0
1, 82842, Note_on_c, 10, 64, 72
1, 82842, Note_on_c, 10, 69, 52
1, 82842, Note_on_c, 10, 76, 72
1, 82994, Note_off_c, 10, 69, 0
1, 83040, Note_on_c, 1, 64, 68
1, 83040, Note_on_c, 3, 73, 100
1, 83040, Note_on_c, 3, 76, 100
1, 83040, Note_on_c, 6, 64, 68
1, 83040, Note_on_c, 6, 69, 69
1, 83040, Note_on_c, 6, 76, 72
1, 83040, Note_on_c, 8, 49, 100
1, 83040, Note_on_c, 8, 56, 100
1, 83040, Note_on_c, 13, 59, 100
1, 83040, Note_on_c, 13, 61, 100
1, 83082, Note_off_c, 10, 64, 0
1, 83088, Note_off_c, 10, 76, 0
1, 83256, Note_off_c, 6, 76, 0
1, 83258, Note_off_c, 6, 69, 0
1, 83272, Note_off_c, 6, 64, 0
1, 83272, Note_off_c, 8, 49, 0
1, 83272, Note_off_c, 8, 56, 0
1, 83272, Note_off_c, 13, 59, 0
1, 83272, Note_off_c, 13, 61, 0
1, 83484, Note_off_c, 1, 64, 0
1, 83512, Note_off_c, 3, 73, 64
1, 83512, Note_off_c, 3, 76, 64
1, 83520, Note_on_c, 0, 54, 86
1, 83520, Note_on_c, 0, 57, 86
1, 83520, Note_on_c, 1, 66, 78
1, 83520, Note_on_c, 2, 66, 86
1, 83520, Note_on_c, 2, 69, 86
1, 83520, Note_on_c, 3, 64, 100
1, 83520, Note_on_c, 3, 69, 100
1, 83520, Note_on_c, 4, 69, 99
1, 83520, Note_on_c, 5, 66, 96
1, 83520, Note_on_c, 7, 64, 70
1, 83520, Note_on_c, 7, 69, 83
1, 83520, Note_on_c, 7, 76, 74
1, 83520, Note_on_c, 8, 57, 100
1, 83520, Note_on_c, 8, 61, 100
1, 83520, Note_on_c, 13, 49, 100
1, 83520, Note_on_c, 13, 54, 100
1, 83520, Note_on_c, 14, 81, 66
1, 83520, Note_on_c, 14, 88, 77
1, 83752, Note_off_c, 8, 57, 0
1, 83752, Note_off_c, 8, 61, 0
1, 83752, Note_off_c, 13, 49, 0
1, 83752, Note_off_c, 13, 54, 0
1, 83760, Note_off_c, 7, 64, 0
1, 83760, Note_off_c, 7, 76, 0
1, 83770, Note_off_c, 7, 69, 0
1, 83802, Note_on_c, 10, 64, 68
1, 83802, Note_on_c, 10, 69, 70
1, 83802, Note_on_c, 10, 76, 74
1, 83992, Note_off_c, 0, 54, 64
1, 83992, Note_off_c, 0, 57, 64
1, 83992, Note_off_c, 2, 66, 64
1, 83992, Note_off_c, 2, 69, 64
1, 83992, Note_off_c, 3, 64, 64
1, 83992, Note_off_c, 3, 69, 64
1, 83992, Note_off_c, 4, 69, 0
1, 83992, Note_off_c, 5, 66, 0
1, 84000, Note_on_c, 6, 64, 67
1, 84000, Note_on_c, 6, 69, 67
1, 84000, Note_on_c, 6, 76, 72
1, 84000, Note_on_c, 8, 49, 100
1, 84000, Note_on_c, 8, 54, 100
1, 84000, Note_on_c, 13, 57, 100
1, 84000, Note_on_c, 13, 61, 100
1, 84034, Note_off_c, 10, 69, 0
1, 84044, Note_off_c, 10, 64, 0
1, 84052, Note_off_c, 10, 76, 0
1, 84188, Note_off_c, 1, 66, 0
1, 84232, Note_off_c, 8, 49, 0
1, 84232, Note_off_c, 8, 54, 0
1, 84232, Note_off_c, 13, 57, 0
1, 84232, Note_off_c, 13, 61, 0
1, 84246, Note_off_c, 6, 64, 0
1, 84250, Note_off_c, 6, 69, 0
1, 84266, Note_off_c, 6, 76, 0
1, 84480, Note_on_c, 0, 56, 86
1, 84480, Note_on_c, 0, 59, 86
1, 84480, Note_on_c, 1, 59, 74
1, 84480, Note_on_c, 2, 68, 86
1, 84480, Note_on_c, 2, 71, 86
1, 84480, Note_on_c, 3, 71, 100
1, 84480, Note_on_c, 3, 76, 100
1, 84480, Note_on_c, 4, 71, 99
1, 84480, Note_on_c, 5, 68, 96
1, 84480, Note_on_c, 7, 64, 67
1, 84480, Note_on_c, 7, 69, 78
1, 84480, Note_on_c, 7, 76, 73
1, 84480, Note_on_c, 8, 57, 100
1, 84480, Note_on_c, 8, 61, 100
1, 84480, Note_on_c, 13, 49, 100
1, 84480, Note_on_c, 13, 54, 100
1, 84712, Note_off_c, 8, 57, 0
1, 84712, Note_off_c, 8, 61, 0
1, 84712, Note_off_c, 13, 49, 0
1, 84712, Note_off_c, 13, 54, 0
1, 84730, Note_off_c, 7, 76, 0
1, 84736, Note_off_c, 7, 69, 0
1, 84744, Note_off_c, 7, 64, 0
1, 84762, Note_on_c, 10, 64, 68
1, 84762, Note_on_c, 10, 69, 69
1, 84762, Note_on_c, 10, 76, 72
1, 84952, Note_off_c, 0, 56, 64
1, 84952, Note_off_c, 0, 59, 64
1, 84952, Note_off_c, 2, 68, 64
1, 84952, Note_off_c, 2, 71, 64
1, 84952, Note_off_c, 3, 71, 64
1, 84952, Note_off_c, 3, 76, 64
1, 84952, Note_off_c, 4, 71, 0
1, 84952, Note_off_c, 5, 68, 0
1, 84960, Note_on_c, 0, 54, 86
1, 84960, Note_on_c, 0, 57, 86
1, 84960, Note_on_c, 1, 69, 75
1, 84960, Note_on_c, 2, 66, 86
1, 84960, Note_on_c, 2, 69, 86
1, 84960, Note_on_c, 3, 66, 100
1, 84960, Note_on_c, 3, 69, 100
1, 84960, Note_on_c, 4, 69, 99
1, 84960, Note_on_c, 5, 66, 96
1, 84960, Note_on_c, 6, 64, 67
1, 84960, Note_on_c, 6, 69, 63
1, 84960, Note_on_c, 6, 76, 72
1, 84960, Note_on_c, 8, 49, 100
1, 84960, Note_on_c, 8, 54, 100
1, 84960, Note_on_c, 13, 57, 100
1, 84960, Note_on_c, 13, 61, 100
1, 84968, Note_off_c, 1, 59, 0
1, 84978, Note_off_c, 10, 76, 0
1, 84980, Note_off_c, 10, 69, 0
1, 84994, Note_off_c, 10, 64, 0
1, 85192, Note_off_c, 8, 49, 0
1, 85192, Note_off_c, 8, 54, 0
1, 85192, Note_off_c, 13, 57, 0
1, 85192, Note_off_c, 13, 61, 0
1, 85208, Note_off_c, 6, 69, 0
1, 85236, Note_off_c, 6, 64, 0
1, 85252, Note_off_c, 6, 76, 0
1, 85384, Note_off_c, 14, 81, 0
1, 85432, Note_off_c, 0, 54, 64
1, 85432, Note_off_c, 0, 57, 64
1, 85432, Note_off_c, 2, 66, 64
1, 85432, Note_off_c, 2, 69, 64
1, 85432, Note_off_c, 3, 66, 64
1, 85432, Note_off_c, 3, 69, 64
1, 85432, Note_off_c, 4, 69, 0
1, 85432, Note_off_c, 5, 66, 0
1, 85432, Note_off_c, 14, 88, 0
1, 85440, Note_on_c, 0, 57, 86
1, 85440, Note_on_c, 0, 61, 86
1, 85440, Note_on_c, 1, 64, 73
1, 85440, Note_on_c, 2, 69, 86
1, 85440, Note_on_c, 2, 73, 86
1, 85440, Note_on_c, 3, 73, 100
1, 85440, Note_on_c, 3, 76, 100
1, 85440, Note_on_c, 4, 73, 99
1, 85440, Note_on_c, 5, 69, 96
1, 85440, Note_on_c, 7, 64, 69
1, 85440, Note_on_c, 7, 69, 70
1, 85440, Note_on_c, 7, 76, 73
1, 85440, Note_on_c, 8, 59, 100
1, 85440, Note_on_c, 8, 61, 100
1, 85440, Note_on_c, 13, 49, 100
1, 85440, Note_on_c, 13, 56, 100
1, 85440, Note_on_c, 14, 78, 100
1, 85440, Note_on_c, 14, 85, 100
1, 85566, Note_off_c, 1, 69, 0
1, 85660, Note_off_c, 7, 69, 0
1, 85672, Note_off_c, 8, 59, 0
1, 85672, Note_off_c, 8, 61, 0
1, 85672, Note_off_c, 13, 49, 0
1, 85672, Note_off_c, 13, 56, 0
1, 85682, Note_off_c, 7, 76, 0
1, 85692, Note_off_c, 7, 64, 0
1, 85722, Note_on_c, 10, 64, 67
1, 85722, Note_on_c, 10, 69, 67
1, 85722, Note_on_c, 10, 76, 72
1, 85912, Note_off_c, 0, 57, 64
1, 85912, Note_off_c, 0, 61, 64
1, 85912, Note_off_c, 2, 69, 64
1, 85912, Note_off_c, 2, 73, 64
1, 85912, Note_off_c, 3, 73, 64
1, 85912, Note_off_c, 3, 76, 64
1, 85912, Note_off_c, 4, 73, 0
1, 85912, Note_off_c, 5, 69, 0
1, 85920, Note_on_c, 6, 64, 68
1, 85920, Note_on_c, 6, 69, 66
1, 85920, Note_on_c, 6, 76, 70
1, 85920, Note_on_c, 8, 49, 100
1, 85920, Note_on_c, 8, 56, 100
1, 85920, Note_on_c, 13, 59, 100
1, 85920, Note_on_c, 13, 61, 100
1, 85968, Note_off_c, 10, 64, 0
1, 85972, Note_off_c, 10, 69, 0
1, 85988, Note_off_c, 10, 76, 0
1, 86116, Note_off_c, 6, 69, 0
1, 86140, Note_off_c, 6, 64, 0
1, 86146, Note_off_c, 1, 64, 0
1, 86152, Note_off_c, 8, 49, 0
1, 86152, Note_off_c, 8, 56, 0
1, 86152, Note_off_c, 13, 59, 0
1, 86152, Note_off_c, 13, 61, 0
1, 86158, Note_off_c, 6, 76, 0
1, 86400, Note_on_c, 1, 66, 68
1, 86400, Note_on_c, 3, 71, 100
1, 86400, Note_on_c, 3, 76, 100
1, 86400, Note_on_c, 7, 64, 69
1, 86400, Note_on_c, 7, 69, 75
1, 86400, Note_on_c, 7, 76, 73
1, 86400, Note_on_c, 8, 59, 100
1, 86400, Note_on_c, 8, 61, 100
1, 86400, Note_on_c, 13, 49, 100
1, 86400, Note_on_c, 13, 56, 100
1, 86614, Note_off_c, 7, 69, 0
1, 86630, Note_off_c, 7, 64, 0
1, 86632, Note_off_c, 8, 59, 0
1, 86632, Note_off_c, 8, 61, 0
1, 86632, Note_off_c, 13, 49, 0
1, 86632, Note_off_c, 13, 56, 0
1, 86644, Note_off_c, 7, 76, 0
1, 86682, Note_on_c, 10, 64, 67
1, 86682, Note_on_c, 10, 69, 63
1, 86682, Note_on_c, 10, 76, 72
1, 86872, Note_off_c, 3, 71, 64
1, 86872, Note_off_c, 3, 76, 64
1, 86880, Note_on_c, 1, 61, 68
1, 86880, Note_on_c, 3, 64, 100
1, 86880, Note_on_c, 3, 69, 100
1, 86880, Note_on_c, 6, 64, 68
1, 86880, Note_on_c, 6, 69, 63
1, 86880, Note_on_c, 6, 76, 72
1, 86880, Note_on_c, 8, 49, 100
1, 86880, Note_on_c, 8, 56, 100
1, 86880, Note_on_c, 13, 59, 100
1, 86880, Note_on_c, 13, 61, 100
1, 86916, Note_off_c, 1, 66, 0
1, 86930, Note_off_c, 10, 69, 0
1, 86958, Note_off_c, 10, 64, 0
1, 86974, Note_off_c, 10, 76, 0
1, 87090, Note_off_c, 6, 64, 0
1, 87112, Note_off_c, 8, 49, 0
1, 87112, Note_off_c, 8, 56, 0
1, 87112, Note_off_c, 13, 59, 0
1, 87112, Note_off_c, 13, 61, 0
1, 87124, Note_off_c, 6, 76, 0
1, 87142, Note_off_c, 6, 69, 0
1, 87352, Note_off_c, 3, 64, 64
1, 87352, Note_off_c, 3, 69, 64
1, 87360, Note_on_c, 7, 64, 68
1, 87360, Note_on_c, 7, 69, 74
1, 87360, Note_on_c, 7, 76, 74
1, 87360, Note_on_c, 8, 59, 100
1, 87360, Note_on_c, 8, 61, 100
1, 87360, Note_on_c, 13, 49, 100
1, 87360, Note_on_c, 13, 56, 100
1, 87584, Note_off_c, 7, 69, 0
1, 87592, Note_off_c, 8, 59, 0
1, 87592, Note_off_c, 8, 61, 0
1, 87592, Note_off_c, 13, 49, 0
1, 87592, Note_off_c, 13, 56, 0
1, 87624, Note_off_c, 7, 64, 0
1, 87634, Note_off_c, 7, 76, 0
1, 87642, Note_on_c, 10, 64, 68
1, 87642, Note_on_c, 10, 69, 66
1, 87642, Note_on_c, 10, 76, 70
1, 87650, Note_off_c, 1, 61, 0
1, 87838, Note_off_c, 10, 69, 0
1, 87840, Note_on_c, 1, 69, 77
1, 87840, Note_on_c, 3, 71, 100
1, 87840, Note_on_c, 3, 76, 100
1, 87840, Note_on_c, 6, 64, 70
1, 87840, Note_on_c, 6, 69, 69
1, 87840, Note_on_c, 6, 76, 72
1, 87840, Note_on_c, 8, 49, 100
1, 87840, Note_on_c, 8, 56, 100
1, 87840, Note_on_c, 13, 59, 100
1, 87840, Note_on_c, 13, 61, 100
1, 87862, Note_off_c, 10, 64, 0
1, 87880, Note_off_c, 10, 76, 0
1, 88072, Note_off_c, 8, 49, 0
1, 88072, Note_off_c, 8, 56, 0
1, 88072, Note_off_c, 13, 59, 0
1, 88072, Note_off_c, 13, 61, 0
1, 88074, Note_off_c, 6, 69, 0
1, 88102, Note_off_c, 6, 64, 0
1, 88102, Note_off_c, 6, 76, 0
1, 88312, Note_off_c, 3, 71, 64
1, 88312, Note_off_c, 3, 76, 64
1, 88320, Note_on_c, 7, 64, 68
1, 88320, Note_on_c, 7, 69, 73
1, 88320, Note_on_c, 7, 76, 73
1, 88320, Note_on_c, 8, 59, 100
1, 88320, Note_on_c, 8, 61, 100
1, 88320, Note_on_c, 13, 49, 100
1, 88320, Note_on_c, 13, 56, 100
1, 88464, Note_off_c, 1, 69, 0
1, 88544, Note_off_c, 7, 64, 0
1, 88552, Note_off_c, 8, 59, 0
1, 88552, Note_off_c, 8, 61, 0
1, 88552, Note_off_c, 13, 49, 0
1, 88552, Note_off_c, 13, 56, 0
1, 88568, Note_off_c, 7, 69, 0
1, 88568, Note_off_c, 7, 76, 0
1, 88602, Note_on_c, 10, 64, 68
1, 88602, Note_on_c, 10, 69, 63
1, 88602, Note_on_c, 10, 76, 72
1, 88800, Note_on_c, 1, 64, 70
1, 88800, Note_on_c, 3, 73, 100
1, 88800, Note_on_c, 3, 76, 100
1, 88800, Note_on_c, 6, 64, 68
1, 88800, Note_on_c, 6, 69, 70
1, 88800, Note_on_c, 6, 76, 70
1, 88800, Note_on_c, 8, 49, 100
1, 88800, Note_on_c, 8, 56, 100
1, 88800, Note_on_c, 13, 59, 100
1, 88800, Note_on_c, 13, 61, 100
1, 88812, Note_off_c, 10, 64, 0
1, 88846, Note_off_c, 10, 76, 0
1, 88864, Note_off_c, 10, 69, 0
1, 89008, Note_off_c, 6, 64, 0
1, 89032, Note_off_c, 8, 49, 0
1, 89032, Note_off_c, 8, 56, 0
1, 89032, Note_off_c, 13, 59, 0
1, 89032, Note_off_c, 13, 61, 0
1, 89036, Note_off_c, 6, 69, 0
1, 89040, Note_off_c, 6, 76, 0
1, 89272, Note_off_c, 3, 73, 64
1, 89272, Note_off_c, 3, 76, 64
1, 89272, Note_off_c, 14, 78, 0
1, 89272, Note_off_c, 14, 85, 0
1, 89280, Note_on_c, 0, 54, 86
1, 89280, Note_on_c, 0, 57, 86
1, 89280, Note_on_c, 1, 66, 77
1, 89280, Note_on_c, 2, 66, 86
1, 89280, Note_on_c, 2, 69, 86
1, 89280, Note_on_c, 3, 64, 100
1, 89280, Note_on_c, 3, 69, 100
1, 89280, Note_on_c, 4, 69, 99
1, 89280, Note_on_c, 5, 66, 96
1, 89280, Note_on_c, 7, 64, 66
1, 89280, Note_on_c, 7, 69, 74
1, 89280, Note_on_c, 7, 76, 73
1, 89280, Note_on_c, 8, 57, 100
1, 89280, Note_on_c, 8, 61, 100
1, 89280, Note_on_c, 13, 49, 100
1, 89280, Note_on_c, 13, 54, 100
1, 89280, Note_on_c, 14, 76, 100
1, 89280, Note_on_c, 14, 83, 100
1, 89432, Note_off_c, 1, 64, 0
1, 89512, Note_off_c, 8, 57, 0
1, 89512, Note_off_c, 8, 61, 0
1, 89512, Note_off_c, 13, 49, 0
1, 89512, Note_off_c, 13, 54, 0
1, 89514, Note_off_c, 7, 64, 0
1, 89534, Note_off_c, 7, 76, 0
1, 89562, Note_off_c, 7, 69, 0
1, 89562, Note_on_c, 10, 64, 70
1, 89562, Note_on_c, 10, 69, 69
1, 89562, Note_on_c, 10, 76, 72
1, 89752, Note_off_c, 0, 54, 64
1, 89752, Note_off_c, 0, 57, 64
1, 89752, Note_off_c, 2, 66, 64
1, 89752, Note_off_c, 2, 69, 64
1, 89752, Note_off_c, 3, 64, 64
1, 89752, Note_off_c, 3, 69, 64
1, 89752, Note_off_c, 4, 69, 0
1, 89752, Note_off_c, 5, 66, 0
1, 89760, Note_on_c, 6, 64, 67
1, 89760, Note_on_c, 6, 69, 73
1, 89760, Note_on_c, 6, 76, 74
1, 89760, Note_on_c, 8, 49, 100
1, 89760, Note_on_c, 8, 54, 100
1, 89760, Note_on_c, 13, 57, 100
1, 89760, Note_on_c, 13, 61, 100
1, 89796, Note_off_c, 10, 69, 0
1, 89824, Note_off_c, 10, 64, 0
1, 89824, Note_off_c, 10, 76, 0
1, 89924, Note_off_c, 1, 66, 0
1, 89976, Note_off_c, 6, 64, 0
1, 89992, Note_off_c, 8, 49, 0
1, 89992, Note_off_c, 8, 54, 0
1, 89992, Note_off_c, 13, 57, 0
1, 89992, Note_off_c, 13, 61, 0
1, 89996, Note_off_c, 6, 76, 0
1, 90006, Note_off_c, 6, 69, 0
1, 90240, Note_on_c, 0, 56, 86
1, 90240, Note_on_c, 0, 59, 86
1, 90240, Note_on_c, 1, 59, 65
1, 90240, Note_on_c, 2, 68, 86
1, 90240, Note_on_c, 2, 71, 86
1, 90240, Note_on_c, 3, 71, 100
1, 90240, Note_on_c, 3, 76, 100
1, 90240, Note_on_c, 4, 71, 99
1, 90240, Note_on_c, 5, 68, 96
1, 90240, Note_on_c, 7, 64, 66
1, 90240, Note_on_c, 7, 69, 77
1, 90240, Note_on_c, 7, 76, 70
1, 90240, Note_on_c, 8, 57, 100
1, 90240, Note_on_c, 8, 61, 100
1, 90240, Note_on_c, 13, 49, 100
1, 90240, Note_on_c, 13, 54, 100
1, 90468, Note_off_c, 7, 64, 0
1, 90472, Note_off_c, 8, 57, 0
1, 90472, Note_off_c, 8, 61, 0
1, 90472, Note_off_c, 13, 49, 0
1, 90472, Note_off_c, 13, 54, 0
1, 90522, Note_on_c, 10, 64, 68
1, 90522, Note_on_c, 10, 69, 70
1, 90522, Note_on_c, 10, 76, 70
1, 90526, Note_off_c, 7, 69, 0
1, 90550, Note_off_c, 7, 76, 0
1, 90712, Note_off_c, 0, 56, 64
1, 90712, Note_off_c, 0, 59, 64
1, 90712, Note_off_c, 2, 68, 64
1, 90712, Note_off_c, 2, 71, 64
1, 90712, Note_off_c, 3, 71, 64
1, 90712, Note_off_c, 3, 76, 64
1, 90712, Note_off_c, 4, 71, 0
1, 90712, Note_off_c, 5, 68, 0
1, 90720, Note_on_c, 0, 54, 86
1, 90720, Note_on_c, 0, 57, 86
1, 90720, Note_on_c, 1, 69, 74
1, 90720, Note_on_c, 2, 66, 86
1, 90720, Note_on_c, 2, 69, 86
1, 90720, Note_on_c, 3, 66, 100
1, 90720, Note_on_c, 3, 69, 100
1, 90720, Note_on_c, 4, 69, 99
1, 90720, Note_on_c, 5, 66, 96
1, 90720, Note_on_c, 6, 64, 68
1, 90720, Note_on_c, 6, 69, 74
1, 90720, Note_on_c, 6, 76, 75
1, 90720, Note_on_c, 8, 49, 100
1, 90720, Note_on_c, 8, 54, 100
1, 90720, Note_on_c, 13, 57, 100
1, 90720, Note_on_c, 13, 61, 100
1, 90730, Note_off_c, 10, 64, 0
1, 90758, Note_off_c, 10, 69, 0
1, 90762, Note_off_c, 10, 76, 0
1, 90814, Note_off_c, 1, 59, 0
1, 90952, Note_off_c, 8, 49, 0
1, 90952, Note_off_c, 8, 54, 0
1, 90952, Note_off_c, 13, 57, 0
1, 90952, Note_off_c, 13, 61, 0
1, 90992, Note_off_c, 6, 69, 0
1, 90996, Note_off_c, 6, 64, 0
1, 91010, Note_off_c, 6, 76, 0
1, 91192, Note_off_c, 0, 54, 64
1, 91192, Note_off_c, 0, 57, 64
1, 91192, Note_off_c, 2, 66, 64
1, 91192, Note_off_c, 2, 69, 64
1, 91192, Note_off_c, 3, 66, 64
1, 91192, Note_off_c, 3, 69, 64
1, 91192, Note_off_c, 4, 69, 0
1, 91192, Note_off_c, 5, 66, 0
1, 91192, Note_off_c, 14, 76, 0
1, 91192, Note_off_c, 14, 83, 0
1, 91200, Note_on_c, 0, 57, 86
1, 91200, Note_on_c, 0, 61, 86
1, 91200, Note_on_c, 1, 64, 68
1, 91200, Note_on_c, 2, 69, 86
1, 91200, Note_on_c, 2, 73, 86
1, 91200, Note_on_c, 3, 73, 100
1, 91200, Note_on_c, 3, 76, 100
1, 91200, Note_on_c, 4, 73, 99
1, 91200, Note_on_c, 5, 69, 96
1, 91200, Note_on_c, 7, 64, 65
1, 91200, Note_on_c, 7, 69, 72
1, 91200, Note_on_c, 7, 76, 72
1, 91200, Note_on_c, 8, 59, 100
1, 91200, Note_on_c, 8, 61, 100
1, 91200, Note_on_c, 13, 49, 100
1, 91200, Note_on_c, 13, 56, 100
1, 91200, Note_on_c, 14, 73, 100
1, 91200, Note_on_c, 14, 81, 100
1, 91412, Note_off_c, 1, 69, 0
1, 91432, Note_off_c, 8, 59, 0
1, 91432, Note_off_c, 8, 61, 0
1, 91432, Note_off_c, 13, 49, 0
1, 91432, Note_off_c, 13, 56, 0
1, 91476, Note_off_c, 7, 64, 0
1, 91482, Note_on_c, 10, 64, 67
1, 91482, Note_on_c, 10, 69, 73
1, 91482, Note_on_c, 10, 76, 74
1, 91490, Note_off_c, 7, 69, 0
1, 91492, Note_off_c, 7, 76, 0
1, 91672, Note_off_c, 0, 57, 64
1, 91672, Note_off_c, 0, 61, 64
1, 91672, Note_off_c, 2, 69, 64
1, 91672, Note_off_c, 2, 73, 64
1, 91672, Note_off_c, 3, 73, 64
1, 91672, Note_off_c, 3, 76, 64
1, 91672, Note_off_c, 4, 73, 0
1, 91672, Note_off_c, 5, 69, 0
1, 91680, Note_on_c, 6, 64, 73
1, 91680, Note_on_c, 6, 69, 80
1, 91680, Note_on_c, 6, 76, 77
1, 91680, Note_on_c, 8, 49, 100
1, 91680, Note_on_c, 8, 56, 100
1, 91680, Note_on_c, 13, 59, 100
1, 91680, Note_on_c, 13, 61, 100
1, 91698, Note_off_c, 10, 64, 0
1, 91718, Note_off_c, 10, 76, 0
1, 91728, Note_off_c, 10, 69, 0
1, 91814, Note_off_c, 1, 64, 0
1, 91912, Note_off_c, 8, 49, 0
1, 91912, Note_off_c, 8, 56, 0
1, 91912, Note_off_c, 13, 59, 0
1, 91912, Note_off_c, 13, 61, 0
1, 91942, Note_off_c, 6, 64, 0
1, 91958, Note_off_c, 6, 69, 0
1, 91968, Note_off_c, 6, 76, 0
1, 92160, Note_on_c, 1, 66, 77
1, 92160, Note_on_c, 3, 71, 100
1, 92160, Note_on_c, 3, 76, 100
1, 92160, Note_on_c, 7, 64, 67
1, 92160, Note_on_c, 7, 69, 75
1, 92160, Note_on_c, 7, 76, 70
1, 92160, Note_on_c, 8, 59, 100
1, 92160, Note_on_c, 8, 61, 100
1, 92160, Note_on_c, 13, 49, 100
1, 92160, Note_on_c, 13, 56, 100
1, 92390, Note_off_c, 7, 69, 0
1, 92392, Note_off_c, 8, 59, 0
1, 92392, Note_off_c, 8, 61, 0
1, 92392, Note_off_c, 13, 49, 0
1, 92392, Note_off_c, 13, 56, 0
1, 92408, Note_off_c, 7, 64, 0
1, 92418, Note_off_c, 7, 76, 0
1, 92442, Note_on_c, 10, 64, 68
1, 92442, Note_on_c, 10, 69, 74
1, 92442, Note_on_c, 10, 76, 75
1, 92632, Note_off_c, 3, 71, 64
1, 92632, Note_off_c, 3, 76, 64
1, 92640, Note_on_c, 1, 61, 70
1, 92640, Note_on_c, 3, 64, 100
1, 92640, Note_on_c, 3, 69, 100
1, 92640, Note_on_c, 6, 64, 68
1, 92640, Note_on_c, 6, 69, 70
1, 92640, Note_on_c, 6, 76, 74
1, 92640, Note_on_c, 8, 49, 100
1, 92640, Note_on_c, 8, 56, 100
1, 92640, Note_on_c, 13, 59, 100
1, 92640, Note_on_c, 13, 61, 100
1, 92714, Note_off_c, 10, 69, 0
1, 92718, Note_off_c, 10, 64, 0
1, 92732, Note_off_c, 10, 76, 0
1, 92802, Note_off_c, 1, 66, 0
1, 92872, Note_off_c, 8, 49, 0
1, 92872, Note_off_c, 8, 56, 0
1, 92872, Note_off_c, 13, 59, 0
1, 92872, Note_off_c, 13, 61, 0
1, 92926, Note_off_c, 6, 64, 0
1, 92938, Note_off_c, 6, 69, 0
1, 92938, Note_off_c, 6, 76, 0
1, 93112, Note_off_c, 3, 64, 64
1, 93112, Note_off_c, 3, 69, 64
1, 93120, Note_on_c, 7, 64, 66
1, 93120, Note_on_c, 7, 69, 68
1, 93120, Note_on_c, 7, 76, 72
1, 93120, Note_on_c, 8, 59, 100
1, 93120, Note_on_c, 8, 61, 100
1, 93120, Note_on_c, 13, 49, 100
1, 93120, Note_on_c, 13, 56, 100
1, 93268, Note_off_c, 1, 61, 0
1, 93352, Note_off_c, 8, 59, 0
1, 93352, Note_off_c, 8, 61, 0
1, 93352, Note_off_c, 13, 49, 0
1, 93352, Note_off_c, 13, 56, 0
1, 93380, Note_off_c, 7, 69, 0
1, 93390, Note_off_c, 7, 64, 0
1, 93394, Note_off_c, 7, 76, 0
1, 93402, Note_on_c, 10, 64, 73
1, 93402, Note_on_c, 10, 69, 80
1, 93402, Note_on_c, 10, 76, 77
1, 93600, Note_on_c, 1, 69, 77
1, 93600, Note_on_c, 3, 71, 100
1, 93600, Note_on_c, 3, 76, 100
1, 93600, Note_on_c, 6, 64, 70
1, 93600, Note_on_c, 6, 69, 74
1, 93600, Note_on_c, 6, 76, 74
1, 93600, Note_on_c, 8, 49, 100
1, 93600, Note_on_c, 8, 56, 100
1, 93600, Note_on_c, 13, 59, 100
1, 93600, Note_on_c, 13, 61, 100
1, 93664, Note_off_c, 10, 64, 0
1, 93680, Note_off_c, 10, 69, 0
1, 93690, Note_off_c, 10, 76, 0
1, 93804, Note_off_c, 6, 64, 0
1, 93832, Note_off_c, 8, 49, 0
1, 93832, Note_off_c, 8, 56, 0
1, 93832, Note_off_c, 13, 59, 0
1, 93832, Note_off_c, 13, 61, 0
1, 93834, Note_off_c, 6, 76, 0
1, 93872, Note_off_c, 6, 69, 0
1, 94072, Note_off_c, 3, 71, 64
1, 94072, Note_off_c, 3, 76, 64
1, 94080, Note_on_c, 7, 64, 62
1, 94080, Note_on_c, 7, 69, 60
1, 94080, Note_on_c, 7, 76, 70
1, 94080, Note_on_c, 8, 59, 100
1, 94080, Note_on_c, 8, 61, 100
1, 94080, Note_on_c, 13, 49, 100
1, 94080, Note_on_c, 13, 56, 100
1, 94248, Note_off_c, 1, 69, 0
1, 94312, Note_off_c, 8, 59, 0
1, 94312, Note_off_c, 8, 61, 0
1, 94312, Note_off_c, 13, 49, 0
1, 94312, Note_off_c, 13, 56, 0
1, 94340, Note_off_c, 7, 69, 0
1, 94358, Note_off_c, 7, 64, 0
1, 94362, Note_on_c, 10, 64, 68
1, 94362, Note_on_c, 10, 69, 70
1, 94362, Note_on_c, 10, 76, 74
1, 94418, Note_off_c, 7, 76, 0
1, 94560, Note_on_c, 1, 64, 68
1, 94560, Note_on_c, 3, 73, 100
1, 94560, Note_on_c, 3, 76, 100
1, 94560, Note_on_c, 6, 64, 68
1, 94560, Note_on_c, 6, 69, 68
1, 94560, Note_on_c, 6, 76, 72
1, 94560, Note_on_c, 8, 49, 100
1, 94560, Note_on_c, 8, 56, 100
1, 94560, Note_on_c, 13, 59, 100
1, 94560, Note_on_c, 13, 61, 100
1, 94648, Note_off_c, 10, 64, 0
1, 94660, Note_off_c, 10, 69, 0
1, 94660, Note_off_c, 10, 76, 0
1, 94766, Note_off_c, 6, 69, 0
1, 94774, Note_off_c, 6, 64, 0
1, 94784, Note_off_c, 6, 76, 0
1, 94792, Note_off_c, 8, 49, 0
1, 94792, Note_off_c, 8, 56, 0
1, 94792, Note_off_c, 13, 59, 0
1, 94792, Note_off_c, 13, 61, 0
1, 95004, Note_off_c, 1, 64, 0
1, 95032, Note_off_c, 3, 73, 64
1, 95032, Note_off_c, 3, 76, 64
1, 95032, Note_off_c, 14, 73, 0
1, 95032, Note_off_c, 14, 81, 0
1, 95040, Note_on_c, 0, 54, 86
1, 95040, Note_on_c, 0, 57, 86
1, 95040, Note_on_c, 1, 66, 78
1, 95040, Note_on_c, 2, 66, 86
1, 95040, Note_on_c, 2, 69, 86
1, 95040, Note_on_c, 3, 64, 100
1, 95040, Note_on_c, 3, 69, 100
1, 95040, Note_on_c, 4, 69, 99
1, 95040, Note_on_c, 5, 66, 96
1, 95040, Note_on_c, 7, 64, 56
1, 95040, Note_on_c, 7, 69, 69
1, 95040, Note_on_c, 7, 76, 73
1, 95040, Note_on_c, 8, 57, 100
1, 95040, Note_on_c, 8, 61, 100
1, 95040, Note_on_c, 13, 42, 100
1, 95040, Note_on_c, 13, 49, 100
1, 95040, Note_on_c, 14, 66, 100
1, 95040, Note_on_c, 14, 78, 100
1, 95272, Note_off_c, 8, 57, 0
1, 95272, Note_off_c, 8, 61, 0
1, 95272, Note_off_c, 13, 42, 0
1, 95272, Note_off_c, 13, 49, 0
1, 95306, Note_off_c, 7, 64, 0
1, 95322, Note_on_c, 10, 64, 70
1, 95322, Note_on_c, 10, 69, 74
1, 95322, Note_on_c, 10, 76, 74
1, 95334, Note_off_c, 7, 69, 0
1, 95342, Note_off_c, 7, 76, 0
1, 95512, Note_off_c, 0, 54, 64
1, 95512, Note_off_c, 0, 57, 64
1, 95512, Note_off_c, 2, 66, 64
1, 95512, Note_off_c, 2, 69, 64
1, 95512, Note_off_c, 3, 64, 64
1, 95512, Note_off_c, 3, 69, 64
1, 95512, Note_off_c, 4, 69, 0
1, 95512, Note_off_c, 5, 66, 0
1, 95520, Note_on_c, 6, 64, 70
1, 95520, Note_on_c, 6, 69, 70
1, 95520, Note_on_c, 6, 76, 75
1, 95520, Note_on_c, 8, 42, 100
1, 95520, Note_on_c, 8, 49, 100
1, 95520, Note_on_c, 13, 57, 100
1, 95520, Note_on_c, 13, 61, 100
1, 95526, Note_off_c, 10, 64, 0
1, 95556, Note_off_c, 10, 76, 0
1, 95594, Note_off_c, 10, 69, 0
1, 95708, Note_off_c, 1, 66, 0
1, 95748, Note_off_c, 6, 69, 0
1, 95752, Note_off_c, 8, 42, 0
1, 95752, Note_off_c, 8, 49, 0
1, 95752, Note_off_c, 13, 57, 0
1, 95752, Note_off_c, 13, 61, 0
1, 95790, Note_off_c, 6, 64, 0
1, 95828, Note_off_c, 6, 76, 0
1, 96000, Note_on_c, 0, 56, 100
1, 96000, Note_on_c, 0, 61, 100
1, 96000, Note_on_c, 1, 59, 74
1, 96000, Note_on_c, 2, 68, 100
1, 96000, Note_on_c, 2, 73, 100
1, 96000, Note_on_c, 3, 71, 100
1, 96000, Note_on_c, 3, 76, 100
1, 96000, Note_on_c, 4, 73, 100
1, 96000, Note_on_c, 5, 68, 100
1, 96000, Note_on_c, 7, 64, 66
1, 96000, Note_on_c, 7, 69, 70
1, 96000, Note_on_c, 7, 76, 75
1, 96000, Note_on_c, 8, 57, 100
1, 96000, Note_on_c, 8, 61, 100
1, 96000, Note_on_c, 13, 42, 100
1, 96000, Note_on_c, 13, 49, 100
1, 96250, Note_off_c, 7, 69, 0
1, 96264, Note_off_c, 7, 64, 0
1, 96282, Note_on_c, 10, 64, 68
1, 96282, Note_on_c, 10, 69, 68
1, 96282, Note_on_c, 10, 76, 72
1, 96290, Note_off_c, 7, 76, 0
1, 96292, Note_off_c, 8, 57, 0
1, 96292, Note_off_c, 8, 61, 0
1, 96292, Note_off_c, 13, 42, 0
1, 96292, Note_off_c, 13, 49, 0
1, 96472, Note_off_c, 0, 56, 64
1, 96472, Note_off_c, 0, 61, 64
1, 96472, Note_off_c, 2, 68, 64
1, 96472, Note_off_c, 2, 73, 64
1, 96472, Note_off_c, 3, 71, 64
1, 96472, Note_off_c, 3, 76, 64
1, 96472, Note_off_c, 4, 73, 0
1, 96472, Note_off_c, 5, 68, 0
1, 96480, Note_on_c, 0, 57, 100
1, 96480, Note_on_c, 0, 64, 100
1, 96480, Note_on_c, 1, 69, 75
1, 96480, Note_on_c, 2, 69, 100
1, 96480, Note_on_c, 2, 76, 100
1, 96480, Note_on_c, 3, 66, 100
1, 96480, Note_on_c, 3, 69, 100
1, 96480, Note_on_c, 4, 76, 100
1, 96480, Note_on_c, 5, 69, 100
1, 96480, Note_on_c, 6, 64, 69
1, 96480, Note_on_c, 6, 69, 69
1, 96480, Note_on_c, 6, 76, 73
1, 96480, Note_on_c, 8, 42, 100
1, 96480, Note_on_c, 8, 49, 100
1, 96480, Note_on_c, 13, 57, 100
1, 96480, Note_on_c, 13, 61, 100
1, 96488, Note_off_c, 1, 59, 0
1, 96488, Note_off_c, 10, 69, 0
1, 96496, Note_off_c, 10, 64, 0
1, 96506, Note_off_c, 10, 76, 0
1, 96746, Note_off_c, 6, 64, 0
1, 96772, Note_off_c, 8, 42, 0
1, 96772, Note_off_c, 8, 49, 0
1, 96772, Note_off_c, 13, 57, 0
1, 96772, Note_off_c, 13, 61, 0
1, 96784, Note_off_c, 6, 69, 0
1, 96784, Note_off_c, 6, 76, 0
1, 96952, Note_off_c, 0, 57, 64
1, 96952, Note_off_c, 0, 64, 64
1, 96952, Note_off_c, 2, 69, 64
1, 96952, Note_off_c, 2, 76, 64
1, 96952, Note_off_c, 3, 66, 64
1, 96952, Note_off_c, 3, 69, 64
1, 96952, Note_off_c, 4, 76, 0
1, 96952, Note_off_c, 5, 69, 0
1, 96960, Note_on_c, 0, 61, 100
1, 96960, Note_on_c, 0, 68, 100
1, 96960, Note_on_c, 1, 64, 73
1, 96960, Note_on_c, 2, 73, 100
1, 96960, Note_on_c, 2, 80, 100
1, 96960, Note_on_c, 3, 73, 100
1, 96960, Note_on_c, 3, 76, 100
1, 96960, Note_on_c, 4, 80, 100
1, 96960, Note_on_c, 5, 73, 100
1, 96960, Note_on_c, 7, 64, 66
1, 96960, Note_on_c, 7, 69, 70
1, 96960, Note_on_c, 7, 76, 75
1, 96960, Note_on_c, 8, 57, 100
1, 96960, Note_on_c, 8, 61, 100
1, 96960, Note_on_c, 13, 42, 100
1, 96960, Note_on_c, 13, 49, 100
1, 97086, Note_off_c, 1, 69, 0
1, 97210, Note_off_c, 7, 69, 0
1, 97224, Note_off_c, 7, 64, 0
1, 97242, Note_on_c, 10, 64, 70
1, 97242, Note_on_c, 10, 69, 70
1, 97242, Note_on_c, 10, 76, 75
1, 97250, Note_off_c, 7, 76, 0
1, 97252, Note_off_c, 8, 57, 0
1, 97252, Note_off_c, 8, 61, 0
1, 97252, Note_off_c, 13, 42, 0
1, 97252, Note_off_c, 13, 49, 0
1, 97432, Note_off_c, 0, 61, 64
1, 97432, Note_off_c, 0, 68, 64
1, 97432, Note_off_c, 2, 73, 64
1, 97432, Note_off_c, 2, 80, 64
1, 97432, Note_off_c, 3, 73, 64
1, 97432, Note_off_c, 3, 76, 64
1, 97432, Note_off_c, 4, 80, 0
1, 97432, Note_off_c, 5, 73, 0
1, 97440, Note_on_c, 6, 64, 67
1, 97440, Note_on_c, 6, 69, 63
1, 97440, Note_on_c, 6, 76, 74
1, 97440, Note_on_c, 8, 42, 100
1, 97440, Note_on_c, 8, 49, 100
1, 97440, Note_on_c, 13, 57, 100
1, 97440, Note_on_c, 13, 61, 100
1, 97470, Note_off_c, 10, 69, 0
1, 97512, Note_off_c, 10, 64, 0
1, 97550, Note_off_c, 10, 76, 0
1, 97644, Note_off_c, 6, 69, 0
1, 97666, Note_off_c, 1, 64, 0
1, 97706, Note_off_c, 6, 64, 0
1, 97706, Note_off_c, 6, 76, 0
1, 97732, Note_off_c, 8, 42, 0
1, 97732, Note_off_c, 8, 49, 0
1, 97732, Note_off_c, 13, 57, 0
1, 97732, Note_off_c, 13, 61, 0
1, 97920, Note_on_c, 0, 59, 100
1, 97920, Note_on_c, 0, 66, 100
1, 97920, Note_on_c, 1, 66, 68
1, 97920, Note_on_c, 2, 71, 100
1, 97920, Note_on_c, 2, 78, 100
1, 97920, Note_on_c, 3, 71, 100
1, 97920, Note_on_c, 3, 76, 100
1, 97920, Note_on_c, 4, 78, 100
1, 97920, Note_on_c, 5, 71, 100
1, 97920, Note_on_c, 7, 64, 72
1, 97920, Note_on_c, 7, 69, 80
1, 97920, Note_on_c, 7, 76, 77
1, 97920, Note_on_c, 8, 59, 100
1, 97920, Note_on_c, 8, 61, 100
1, 97920, Note_on_c, 13, 44, 100
1, 97920, Note_on_c, 13, 49, 100
1, 98160, Note_off_c, 7, 76, 0
1, 98170, Note_off_c, 7, 64, 0
1, 98170, Note_off_c, 7, 69, 0
1, 98202, Note_on_c, 10, 64, 69
1, 98202, Note_on_c, 10, 69, 69
1, 98202, Note_on_c, 10, 76, 73
1, 98212, Note_off_c, 8, 59, 0
1, 98212, Note_off_c, 8, 61, 0
1, 98212, Note_off_c, 13, 44, 0
1, 98212, Note_off_c, 13, 49, 0
1, 98392, Note_off_c, 0, 59, 64
1, 98392, Note_off_c, 0, 66, 64
1, 98392, Note_off_c, 2, 71, 64
1, 98392, Note_off_c, 2, 78, 64
1, 98392, Note_off_c, 3, 71, 64
1, 98392, Note_off_c, 3, 76, 64
1, 98392, Note_off_c, 4, 78, 0
1, 98392, Note_off_c, 5, 71, 0
1, 98400, Note_on_c, 0, 56, 100
1, 98400, Note_on_c, 0, 61, 100
1, 98400, Note_on_c, 1, 61, 68
1, 98400, Note_on_c, 2, 68, 100
1, 98400, Note_on_c, 2, 73, 100
1, 98400, Note_on_c, 3, 64, 100
1, 98400, Note_on_c, 3, 69, 100
1, 98400, Note_on_c, 4, 73, 100
1, 98400, Note_on_c, 5, 68, 100
1, 98400, Note_on_c, 6, 64, 66
1, 98400, Note_on_c, 6, 69, 63
1, 98400, Note_on_c, 6, 76, 74
1, 98400, Note_on_c, 8, 44, 100
1, 98400, Note_on_c, 8, 49, 100
1, 98400, Note_on_c, 13, 59, 100
1, 98400, Note_on_c, 13, 61, 100
1, 98436, Note_off_c, 1, 66, 0
1, 98468, Note_off_c, 10, 64, 0
1, 98506, Note_off_c, 10, 69, 0
1, 98506, Note_off_c, 10, 76, 0
1, 98630, Note_off_c, 6, 69, 0
1, 98636, Note_off_c, 6, 64, 0
1, 98674, Note_off_c, 6, 76, 0
1, 98692, Note_off_c, 8, 44, 0
1, 98692, Note_off_c, 8, 49, 0
1, 98692, Note_off_c, 13, 59, 0
1, 98692, Note_off_c, 13, 61, 0
1, 98872, Note_off_c, 0, 56, 64
1, 98872, Note_off_c, 0, 61, 64
1, 98872, Note_off_c, 2, 68, 64
1, 98872, Note_off_c, 2, 73, 64
1, 98872, Note_off_c, 3, 64, 64
1, 98872, Note_off_c, 3, 69, 64
1, 98872, Note_off_c, 4, 73, 0
1, 98872, Note_off_c, 5, 68, 0
1, 98880, Note_on_c, 7, 64, 70
1, 98880, Note_on_c, 7, 69, 77
1, 98880, Note_on_c, 7, 76, 77
1, 98880, Note_on_c, 8, 59, 100
1, 98880, Note_on_c, 8, 61, 100
1, 98880, Note_on_c, 13, 44, 100
1, 98880, Note_on_c, 13, 49, 100
1, 99134, Note_off_c, 7, 64, 0
1, 99162, Note_off_c, 7, 69, 0
1, 99162, Note_on_c, 10, 64, 67
1, 99162, Note_on_c, 10, 69, 63
1, 99162, Note_on_c, 10, 76, 74
1, 99170, Note_off_c, 1, 61, 0
1, 99170, Note_off_c, 7, 76, 0
1, 99172, Note_off_c, 8, 59, 0
1, 99172, Note_off_c, 8, 61, 0
1, 99172, Note_off_c, 13, 44, 0
1, 99172, Note_off_c, 13, 49, 0
1, 99360, Note_on_c, 0, 57, 100
1, 99360, Note_on_c, 0, 64, 100
1, 99360, Note_on_c, 1, 69, 77
1, 99360, Note_on_c, 2, 69, 100
1, 99360, Note_on_c, 2, 76, 100
1, 99360, Note_on_c, 3, 71, 100
1, 99360, Note_on_c, 3, 76, 100
1, 99360, Note_on_c, 4, 76, 100
1, 99360, Note_on_c, 5, 69, 100
1, 99360, Note_on_c, 6, 64, 68
1, 99360, Note_on_c, 6, 69, 74
1, 99360, Note_on_c, 6, 76, 74
1, 99360, Note_on_c, 8, 44, 100
1, 99360, Note_on_c, 8, 49, 100
1, 99360, Note_on_c, 13, 59, 100
1, 99360, Note_on_c, 13, 61, 100
1, 99366, Note_off_c, 10, 69, 0
1, 99428, Note_off_c, 10, 64, 0
1, 99428, Note_off_c, 10, 76, 0
1, 99620, Note_off_c, 6, 69, 0
1, 99650, Note_off_c, 6, 76, 0
1, 99652, Note_off_c, 8, 44, 0
1, 99652, Note_off_c, 8, 49, 0
1, 99652, Note_off_c, 13, 59, 0
1, 99652, Note_off_c, 13, 61, 0
1, 99654, Note_off_c, 6, 64, 0
1, 99832, Note_off_c, 0, 57, 64
1, 99832, Note_off_c, 0, 64, 64
1, 99832, Note_off_c, 2, 69, 64
1, 99832, Note_off_c, 2, 76, 64
1, 99832, Note_off_c, 3, 71, 64
1, 99832, Note_off_c, 3, 76, 64
1, 99832, Note_off_c, 4, 76, 0
1, 99832, Note_off_c, 5, 69, 0
1, 99840, Note_on_c, 7, 64, 70
1, 99840, Note_on_c, 7, 69, 73
1, 99840, Note_on_c, 7, 76, 74
1, 99840, Note_on_c, 8, 59, 100
1, 99840, Note_on_c, 8, 61, 100
1, 99840, Note_on_c, 13, 44, 100
1, 99840, Note_on_c, 13, 49, 100
1, 99984, Note_off_c, 1, 69, 0
1, 100080, Note_off_c, 7, 64, 0
1, 100086, Note_off_c, 7, 69, 0
1, 100100, Note_off_c, 7, 76, 0
1, 100122, Note_on_c, 10, 64, 66
1, 100122, Note_on_c, 10, 69, 63
1, 100122, Note_on_c, 10, 76, 74
1, 100132, Note_off_c, 8, 59, 0
1, 100132, Note_off_c, 8, 61, 0
1, 100132, Note_off_c, 13, 44, 0
1, 100132, Note_off_c, 13, 49, 0
1, 100320, Note_on_c, 0, 59, 100
1, 100320, Note_on_c, 0, 66, 100
1, 100320, Note_on_c, 1, 64, 70
1, 100320, Note_on_c, 2, 71, 100
1, 100320, Note_on_c, 2, 78, 100
1, 100320, Note_on_c, 3, 73, 100
1, 100320, Note_on_c, 3, 76, 100
1, 100320, Note_on_c, 4, 78, 100
1, 100320, Note_on_c, 5, 71, 100
1, 100320, Note_on_c, 6, 64, 73
1, 100320, Note_on_c, 6, 69, 82
1, 100320, Note_on_c, 6, 76, 77
1, 100320, Note_on_c, 8, 44, 100
1, 100320, Note_on_c, 8, 49, 100
1, 100320, Note_on_c, 13, 59, 100
1, 100320, Note_on_c, 13, 61, 100
1, 100352, Note_off_c, 10, 69, 0
1, 100358, Note_off_c, 10, 64, 0
1, 100396, Note_off_c, 10, 76, 0
1, 100598, Note_off_c, 6, 69, 0
1, 100610, Note_off_c, 6, 64, 0
1, 100612, Note_off_c, 8, 44, 0
1, 100612, Note_off_c, 8, 49, 0
1, 100612, Note_off_c, 13, 59, 0
1, 100612, Note_off_c, 13, 61, 0
1, 100618, Note_off_c, 6, 76, 0
1, 100792, Note_off_c, 0, 59, 64
1, 100792, Note_off_c, 0, 66, 64
1, 100792, Note_off_c, 2, 71, 64
1, 100792, Note_off_c, 2, 78, 64
1, 100792, Note_off_c, 3, 73, 64
1, 100792, Note_off_c, 3, 76, 64
1, 100792, Note_off_c, 4, 78, 0
1, 100792, Note_off_c, 5, 71, 0
1, 100800, Note_on_c, 0, 56, 100
1, 100800, Note_on_c, 0, 61, 100
1, 100800, Note_on_c, 1, 66, 77
1, 100800, Note_on_c, 2, 68, 100
1, 100800, Note_on_c, 2, 73, 100
1, 100800, Note_on_c, 3, 64, 100
1, 100800, Note_on_c, 3, 69, 100
1, 100800, Note_on_c, 4, 73, 100
1, 100800, Note_on_c, 5, 68, 100
1, 100800, Note_on_c, 7, 64, 72
1, 100800, Note_on_c, 7, 69, 77
1, 100800, Note_on_c, 7, 76, 75
1, 100800, Note_on_c, 8, 57, 100
1, 100800, Note_on_c, 8, 61, 100
1, 100800, Note_on_c, 13, 42, 100
1, 100800, Note_on_c, 13, 49, 100
1, 100952, Note_off_c, 1, 64, 0
1, 101008, Note_off_c, 7, 69, 0
1, 101022, Note_off_c, 7, 64, 0
1, 101042, Note_off_c, 7, 76, 0
1, 101082, Note_on_c, 10, 64, 68
1, 101082, Note_on_c, 10, 69, 74
1, 101082, Note_on_c, 10, 76, 74
1, 101092, Note_off_c, 8, 57, 0
1, 101092, Note_off_c, 8, 61, 0
1, 101092, Note_off_c, 13, 42, 0
1, 101092, Note_off_c, 13, 49, 0
1, 101272, Note_off_c, 0, 56, 64
1, 101272, Note_off_c, 0, 61, 64
1, 101272, Note_off_c, 2, 68, 64
1, 101272, Note_off_c, 2, 73, 64
1, 101272, Note_off_c, 3, 64, 64
1, 101272, Note_off_c, 3, 69, 64
1, 101272, Note_off_c, 4, 73, 0
1, 101272, Note_off_c, 5, 68, 0
1, 101280, Note_on_c, 6, 64, 72
1, 101280, Note_on_c, 6, 69, 75
1, 101280, Note_on_c, 6, 76, 73
1, 101280, Note_on_c, 8, 42, 100
1, 101280, Note_on_c, 8, 49, 100
1, 101280, Note_on_c, 13, 57, 100
1, 101280, Note_on_c, 13, 61, 100
1, 101342, Note_off_c, 10, 69, 0
1, 101372, Note_off_c, 10, 76, 0
1, 101376, Note_off_c, 10, 64, 0
1, 101444, Note_off_c, 1, 66, 0
1, 101568, Note_off_c, 6, 76, 0
1, 101570, Note_off_c, 6, 69, 0
1, 101572, Note_off_c, 8, 42, 0
1, 101572, Note_off_c, 8, 49, 0
1, 101572, Note_off_c, 13, 57, 0
1, 101572, Note_off_c, 13, 61, 0
1, 101578, Note_off_c, 6, 64, 0
1, 101752, Note_off_c, 14, 66, 0
1, 101752, Note_off_c, 14, 78, 0
1, 101760, Note_on_c, 0, 56, 100
1, 101760, Note_on_c, 0, 61, 100
1, 101760, Note_on_c, 1, 59, 65
1, 101760, Note_on_c, 2, 68, 100
1, 101760, Note_on_c, 2, 73, 100
1, 101760, Note_on_c, 3, 71, 100
1, 101760, Note_on_c, 3, 76, 100
1, 101760, Note_on_c, 4, 73, 100
1, 101760, Note_on_c, 5, 68, 100
1, 101760, Note_on_c, 7, 64, 70
1, 101760, Note_on_c, 7, 69, 78
1, 101760, Note_on_c, 7, 76, 77
1, 101760, Note_on_c, 8, 57, 100
1, 101760, Note_on_c, 8, 61, 100
1, 101760, Note_on_c, 13, 42, 100
1, 101760, Note_on_c, 13, 49, 100
1, 102002, Note_off_c, 7, 64, 0
1, 102024, Note_off_c, 7, 76, 0
1, 102042, Note_on_c, 10, 64, 73
1, 102042, Note_on_c, 10, 69, 82
1, 102042, Note_on_c, 10, 76, 77
1, 102048, Note_off_c, 7, 69, 0
1, 102052, Note_off_c, 8, 57, 0
1, 102052, Note_off_c, 8, 61, 0
1, 102052, Note_off_c, 13, 42, 0
1, 102052, Note_off_c, 13, 49, 0
1, 102232, Note_off_c, 0, 56, 64
1, 102232, Note_off_c, 0, 61, 64
1, 102232, Note_off_c, 2, 68, 64
1, 102232, Note_off_c, 2, 73, 64
1, 102232, Note_off_c, 3, 71, 64
1, 102232, Note_off_c, 3, 76, 64
1, 102232, Note_off_c, 4, 73, 0
1, 102232, Note_off_c, 5, 68, 0
1, 102240, Note_on_c, 0, 57, 100
1, 102240, Note_on_c, 0, 64, 100
1, 102240, Note_on_c, 1, 69, 74
1, 102240, Note_on_c, 2, 69, 100
1, 102240, Note_on_c, 2, 76, 100
1, 102240, Note_on_c, 3, 66, 100
1, 102240, Note_on_c, 3, 69, 100
1, 102240, Note_on_c, 4, 76, 100
1, 102240, Note_on_c, 5, 69, 100
1, 102240, Note_on_c, 6, 64, 69
1, 102240, Note_on_c, 6, 69, 70
1, 102240, Note_on_c, 6, 76, 72
1, 102240, Note_on_c, 8, 42, 100
1, 102240, Note_on_c, 8, 49, 100
1, 102240, Note_on_c, 13, 57, 100
1, 102240, Note_on_c, 13, 61, 100
1, 102320, Note_off_c, 10, 69, 0
1, 102332, Note_off_c, 10, 64, 0
1, 102334, Note_off_c, 1, 59, 0
1, 102340, Note_off_c, 10, 76, 0
1, 102504, Note_off_c, 6, 69, 0
1, 102528, Note_off_c, 6, 64, 0
1, 102532, Note_off_c, 8, 42, 0
1, 102532, Note_off_c, 8, 49, 0
1, 102532, Note_off_c, 13, 57, 0
1, 102532, Note_off_c, 13, 61, 0
1, 102544, Note_off_c, 6, 76, 0
1, 102712, Note_off_c, 0, 57, 64
1, 102712, Note_off_c, 0, 64, 64
1, 102712, Note_off_c, 2, 69, 64
1, 102712, Note_off_c, 2, 76, 64
1, 102712, Note_off_c, 3, 66, 64
1, 102712, Note_off_c, 3, 69, 64
1, 102712, Note_off_c, 4, 76, 0
1, 102712, Note_off_c, 5, 69, 0
1, 102720, Note_on_c, 0, 61, 100
1, 102720, Note_on_c, 0, 68, 100
1, 102720, Note_on_c, 1, 64, 68
1, 102720, Note_on_c, 2, 73, 100
1, 102720, Note_on_c, 2, 80, 100
1, 102720, Note_on_c, 3, 73, 100
1, 102720, Note_on_c, 3, 76, 100
1, 102720, Note_on_c, 4, 80, 100
1, 102720, Note_on_c, 5, 73, 100
1, 102720, Note_on_c, 7, 64, 70
1, 102720, Note_on_c, 7, 69, 72
1, 102720, Note_on_c, 7, 76, 77
1, 102720, Note_on_c, 8, 59, 100
1, 102720, Note_on_c, 8, 61, 100
1, 102720, Note_on_c, 13, 44, 100
1, 102720, Note_on_c, 13, 49, 100
1, 102932, Note_off_c, 1, 69, 0
1, 102974, Note_off_c, 7, 64, 0
1, 102986, Note_off_c, 7, 69, 0
1, 103002, Note_on_c, 10, 64, 72
1, 103002, Note_on_c, 10, 69, 75
1, 103002, Note_on_c, 10, 76, 73
1, 103012, Note_off_c, 8, 59, 0
1, 103012, Note_off_c, 8, 61, 0
1, 103012, Note_off_c, 13, 44, 0
1, 103012, Note_off_c, 13, 49, 0
1, 103042, Note_off_c, 7, 76, 0
1, 103192, Note_off_c, 0, 61, 64
1, 103192, Note_off_c, 0, 68, 64
1, 103192, Note_off_c, 2, 73, 64
1, 103192, Note_off_c, 2, 80, 64
1, 103192, Note_off_c, 3, 73, 64
1, 103192, Note_off_c, 3, 76, 64
1, 103192, Note_off_c, 4, 80, 0
1, 103192, Note_off_c, 5, 73, 0
1, 103200, Note_on_c, 6, 64, 68
1, 103200, Note_on_c, 6, 69, 77
1, 103200, Note_on_c, 6, 76, 73
1, 103200, Note_on_c, 8, 44, 100
1, 103200, Note_on_c, 8, 49, 100
1, 103200, Note_on_c, 13, 59, 100
1, 103200, Note_on_c, 13, 61, 100
1, 103290, Note_off_c, 10, 76, 0
1, 103292, Note_off_c, 10, 69, 0
1, 103300, Note_off_c, 10, 64, 0
1, 103334, Note_off_c, 1, 64, 0
1, 103466, Note_off_c, 6, 64, 0
1, 103484, Note_off_c, 6, 69, 0
1, 103484, Note_off_c, 6, 76, 0
1, 103492, Note_off_c, 8, 44, 0
1, 103492, Note_off_c, 8, 49, 0
1, 103492, Note_off_c, 13, 59, 0
1, 103492, Note_off_c, 13, 61, 0
1, 103680, Note_on_c, 1, 66, 77
1, 103680, Note_on_c, 3, 71, 100
1, 103680, Note_on_c, 3, 76, 100
1, 103680, Note_on_c, 7, 64, 73
1, 103680, Note_on_c, 7, 69, 77
1, 103680, Note_on_c, 7, 76, 74
1, 103680, Note_on_c, 8, 59, 100
1, 103680, Note_on_c, 8, 61, 100
1, 103680, Note_on_c, 13, 44, 100
1, 103680, Note_on_c, 13, 49, 100
1, 103962, Note_on_c, 10, 64, 69
1, 103962, Note_on_c, 10, 69, 70
1, 103962, Note_on_c, 10, 76, 72
1, 103964, Note_off_c, 7, 69, 0
1, 103972, Note_off_c, 8, 59, 0
1, 103972, Note_off_c, 8, 61, 0
1, 103972, Note_off_c, 13, 44, 0
1, 103972, Note_off_c, 13, 49, 0
1, 103996, Note_off_c, 7, 76, 0
1, 104002, Note_off_c, 7, 64, 0
1, 104152, Note_off_c, 3, 71, 64
1, 104152, Note_off_c, 3, 76, 64
1, 104160, Note_on_c, 1, 61, 70
1, 104160, Note_on_c, 3, 64, 100
1, 104160, Note_on_c, 3, 69, 100
1, 104160, Note_on_c, 6, 64, 72
1, 104160, Note_on_c, 6, 69, 52
1, 104160, Note_on_c, 6, 76, 72
1, 104160, Note_on_c, 8, 44, 100
1, 104160, Note_on_c, 8, 49, 100
1, 104160, Note_on_c, 13, 59, 100
1, 104160, Note_on_c, 13, 61, 100
1, 104226, Note_off_c, 10, 69, 0
1, 104250, Note_off_c, 10, 64, 0
1, 104266, Note_off_c, 10, 76, 0
1, 104312, Note_off_c, 6, 69, 0
1, 104322, Note_off_c, 1, 66, 0
1, 104400, Note_off_c, 6, 64, 0
1, 104406, Note_off_c, 6, 76, 0
1, 104452, Note_off_c, 8, 44, 0
1, 104452, Note_off_c, 8, 49, 0
1, 104452, Note_off_c, 13, 59, 0
1, 104452, Note_off_c, 13, 61, 0
1, 104632, Note_off_c, 3, 64, 64
1, 104632, Note_off_c, 3, 69, 64
1, 104640, Note_on_c, 7, 64, 68
1, 104640, Note_on_c, 7, 69, 70
1, 104640, Note_on_c, 7, 76, 72
1, 104640, Note_on_c, 8, 59, 100
1, 104640, Note_on_c, 8, 61, 100
1, 104640, Note_on_c, 13, 44, 100
1, 104640, Note_on_c, 13, 49, 100
1, 104788, Note_off_c, 1, 61, 0
1, 104922, Note_on_c, 10, 64, 68
1, 104922, Note_on_c, 10, 69, 77
1, 104922, Note_on_c, 10, 76, 73
1, 104930, Note_off_c, 7, 69, 0
1, 104932, Note_off_c, 8, 59, 0
1, 104932, Note_off_c, 8, 61, 0
1, 104932, Note_off_c, 13, 44, 0
1, 104932, Note_off_c, 13, 49, 0
1, 104948, Note_off_c, 7, 76, 0
1, 104954, Note_off_c, 7, 64, 0
1, 105120, Note_on_c, 1, 69, 77
1, 105120, Note_on_c, 3, 71, 100
1, 105120, Note_on_c, 3, 76, 100
1, 105120, Note_on_c, 6, 64, 68
1, 105120, Note_on_c, 6, 69, 70
1, 105120, Note_on_c, 6, 76, 74
1, 105120, Note_on_c, 8, 44, 100
1, 105120, Note_on_c, 8, 49, 100
1, 105120, Note_on_c, 13, 59, 100
1, 105120, Note_on_c, 13, 61, 100
1, 105188, Note_off_c, 10, 64, 0
1, 105206, Note_off_c, 10, 69, 0
1, 105206, Note_off_c, 10, 76, 0
1, 105352, Note_off_c, 6, 69, 0
1, 105362, Note_off_c, 6, 64, 0
1, 105370, Note_off_c, 6, 76, 0
1, 105412, Note_off_c, 8, 44, 0
1, 105412, Note_off_c, 8, 49, 0
1, 105412, Note_off_c, 13, 59, 0
1, 105412, Note_off_c, 13, 61, 0
1, 105592, Note_off_c, 3, 71, 64
1, 105592, Note_off_c, 3, 76, 64
1, 105600, Note_on_c, 7, 64, 68
1, 105600, Note_on_c, 7, 69, 70
1, 105600, Note_on_c, 7, 76, 73
1, 105600, Note_on_c, 8, 59, 100
1, 105600, Note_on_c, 8, 61, 100
1, 105600, Note_on_c, 13, 44, 100
1, 105600, Note_on_c, 13, 49, 100
1, 105768, Note_off_c, 1, 69, 0
1, 105848, Note_off_c, 7, 64, 0
1, 105862, Note_off_c, 7, 69, 0
1, 105862, Note_off_c, 7, 76, 0
1, 105882, Note_on_c, 10, 64, 72
1, 105882, Note_on_c, 10, 69, 52
1, 105882, Note_on_c, 10, 76, 72
1, 105892, Note_off_c, 8, 59, 0
1, 105892, Note_off_c, 8, 61, 0
1, 105892, Note_off_c, 13, 44, 0
1, 105892, Note_off_c, 13, 49, 0
1, 106034, Note_off_c, 10, 69, 0
1, 106080, Note_on_c, 1, 64, 68
1, 106080, Note_on_c, 3, 73, 100
1, 106080, Note_on_c, 3, 76, 100
1, 106080, Note_on_c, 6, 64, 68
1, 106080, Note_on_c, 6, 69, 69
1, 106080, Note_on_c, 6, 76, 72
1, 106080, Note_on_c, 8, 44, 100
1, 106080, Note_on_c, 8, 49, 100
1, 106080, Note_on_c, 13, 59, 100
1, 106080, Note_on_c, 13, 61, 100
1, 106122, Note_off_c, 10, 64, 0
1, 106128, Note_off_c, 10, 76, 0
1, 106296, Note_off_c, 6, 76, 0
1, 106298, Note_off_c, 6, 69, 0
1, 106312, Note_off_c, 6, 64, 0
1, 106372, Note_off_c, 8, 44, 0
1, 106372, Note_off_c, 8, 49, 0
1, 106372, Note_off_c, 13, 59, 0
1, 106372, Note_off_c, 13, 61, 0
1, 106524, Note_off_c, 1, 64, 0
1, 106552, Note_off_c, 3, 73, 64
1, 106552, Note_off_c, 3, 76, 64
1, 106560, Note_on_c, 0, 54, 100
1, 106560, Note_on_c, 0, 59, 100
1, 106560, Note_on_c, 1, 66, 78
1, 106560, Note_on_c, 2, 66, 100
1, 106560, Note_on_c, 2, 71, 100
1, 106560, Note_on_c, 3, 64, 100
1, 106560, Note_on_c, 3, 69, 100
1, 106560, Note_on_c, 4, 71, 100
1, 106560, Note_on_c, 5, 66, 100
1, 106560, Note_on_c, 7, 64, 70
1, 106560, Note_on_c, 7, 69, 83
1, 106560, Note_on_c, 7, 76, 74
1, 106560, Note_on_c, 8, 57, 100
1, 106560, Note_on_c, 8, 61, 100
1, 106560, Note_on_c, 13, 42, 100
1, 106560, Note_on_c, 13, 49, 100
1, 106612, Note_off_c, 4, 71, 0
1, 106800, Note_off_c, 7, 64, 0
1, 106800, Note_off_c, 7, 76, 0
1, 106810, Note_off_c, 7, 69, 0
1, 106842, Note_on_c, 10, 64, 68
1, 106842, Note_on_c, 10, 69, 70
1, 106842, Note_on_c, 10, 76, 74
1, 106852, Note_off_c, 8, 57, 0
1, 106852, Note_off_c, 8, 61, 0
1, 106852, Note_off_c, 13, 42, 0
1, 106852, Note_off_c, 13, 49, 0
1, 106912, Note_off_c, 5, 66, 0
1, 107032, Note_off_c, 0, 54, 64
1, 107032, Note_off_c, 0, 59, 64
1, 107032, Note_off_c, 2, 66, 64
1, 107032, Note_off_c, 2, 71, 64
1, 107032, Note_off_c, 3, 64, 64
1, 107032, Note_off_c, 3, 69, 64
1, 107040, Note_on_c, 6, 64, 67
1, 107040, Note_on_c, 6, 69, 67
1, 107040, Note_on_c, 6, 76, 72
1, 107040, Note_on_c, 8, 42, 100
1, 107040, Note_on_c, 8, 49, 100
1, 107040, Note_on_c, 13, 57, 100
1, 107040, Note_on_c, 13, 61, 100
1, 107074, Note_off_c, 10, 69, 0
1, 107084, Note_off_c, 10, 64, 0
1, 107092, Note_off_c, 10, 76, 0
1, 107228, Note_off_c, 1, 66, 0
1, 107286, Note_off_c, 6, 64, 0
1, 107290, Note_off_c, 6, 69, 0
1, 107306, Note_off_c, 6, 76, 0
1, 107332, Note_off_c, 8, 42, 0
1, 107332, Note_off_c, 8, 49, 0
1, 107332, Note_off_c, 13, 57, 0
1, 107332, Note_off_c, 13, 61, 0
1, 107520, Note_on_c, 0, 56, 100
1, 107520, Note_on_c, 0, 61, 100
1, 107520, Note_on_c, 1, 59, 74
1, 107520, Note_on_c, 2, 68, 100
1, 107520, Note_on_c, 2, 73, 100
1, 107520, Note_on_c, 3, 71, 100
1, 107520, Note_on_c, 3, 76, 100
1, 107520, Note_on_c, 4, 73, 100
1, 107520, Note_on_c, 5, 68, 100
1, 107520, Note_on_c, 7, 64, 67
1, 107520, Note_on_c, 7, 69, 78
1, 107520, Note_on_c, 7, 76, 73
1, 107520, Note_on_c, 8, 57, 100
1, 107520, Note_on_c, 8, 61, 100
1, 107520, Note_on_c, 13, 42, 100
1, 107520, Note_on_c, 13, 49, 100
1, 107770, Note_off_c, 7, 76, 0
1, 107776, Note_off_c, 7, 69, 0
1, 107784, Note_off_c, 7, 64, 0
1, 107802, Note_on_c, 10, 64, 68
1, 107802, Note_on_c, 10, 69, 69
1, 107802, Note_on_c, 10, 76, 72
1, 107812, Note_off_c, 8, 57, 0
1, 107812, Note_off_c, 8, 61, 0
1, 107812, Note_off_c, 13, 42, 0
1, 107812, Note_off_c, 13, 49, 0
1, 107992, Note_off_c, 0, 56, 64
1, 107992, Note_off_c, 0, 61, 64
1, 107992, Note_off_c, 2, 68, 64
1, 107992, Note_off_c, 2, 73, 64
1, 107992, Note_off_c, 3, 71, 64
1, 107992, Note_off_c, 3, 76, 64
1, 107992, Note_off_c, 4, 73, 0
1, 107992, Note_off_c, 5, 68, 0
1, 108000, Note_on_c, 0, 57, 100
1, 108000, Note_on_c, 0, 64, 100
1, 108000, Note_on_c, 1, 69, 75
1, 108000, Note_on_c, 2, 69, 100
1, 108000, Note_on_c, 2, 76, 100
1, 108000, Note_on_c, 3, 66, 100
1, 108000, Note_on_c, 3, 69, 100
1, 108000, Note_on_c, 4, 76, 100
1, 108000, Note_on_c, 5, 69, 100
1, 108000, Note_on_c, 6, 64, 67
1, 108000, Note_on_c, 6, 69, 63
1, 108000, Note_on_c, 6, 76, 72
1, 108000, Note_on_c, 8, 42, 100
1, 108000, Note_on_c, 8, 49, 100
1, 108000, Note_on_c, 13, 57, 100
1, 108000, Note_on_c, 13, 61, 100
1, 108008, Note_off_c, 1, 59, 0
1, 108018, Note_off_c, 10, 76, 0
1, 108020, Note_off_c, 10, 69, 0
1, 108034, Note_off_c, 10, 64, 0
1, 108248, Note_off_c, 6, 69, 0
1, 108276, Note_off_c, 6, 64, 0
1, 108292, Note_off_c, 6, 76, 0
1, 108292, Note_off_c, 8, 42, 0
1, 108292, Note_off_c, 8, 49, 0
1, 108292, Note_off_c, 13, 57, 0
1, 108292, Note_off_c, 13, 61, 0
1, 108472, Note_off_c, 0, 57, 64
1, 108472, Note_off_c, 0, 64, 64
1, 108472, Note_off_c, 2, 69, 64
1, 108472, Note_off_c, 2, 76, 64
1, 108472, Note_off_c, 3, 66, 64
1, 108472, Note_off_c, 3, 69, 64
1, 108472, Note_off_c, 4, 76, 0
1, 108472, Note_off_c, 5, 69, 0
1, 108480, Note_on_c, 0, 61, 100
1, 108480, Note_on_c, 0, 68, 100
1, 108480, Note_on_c, 1, 64, 73
1, 108480, Note_on_c, 2, 73, 100
1, 108480, Note_on_c, 2, 80, 100
1, 108480, Note_on_c, 3, 73, 100
1, 108480, Note_on_c, 3, 76, 100
1, 108480, Note_on_c, 4, 80, 100
1, 108480, Note_on_c, 5, 73, 100
1, 108480, Note_on_c, 7, 64, 69
1, 108480, Note_on_c, 7, 69, 70
1, 108480, Note_on_c, 7, 76, 73
1, 108480, Note_on_c, 8, 57, 100
1, 108480, Note_on_c, 8, 61, 100
1, 108480, Note_on_c, 13, 42, 100
1, 108480, Note_on_c, 13, 49, 100
1, 108606, Note_off_c, 1, 69, 0
1, 108700, Note_off_c, 7, 69, 0
1, 108722, Note_off_c, 7, 76, 0
1, 108732, Note_off_c, 7, 64, 0
1, 108762, Note_on_c, 10, 64, 67
1, 108762, Note_on_c, 10, 69, 67
1, 108762, Note_on_c, 10, 76, 72
1, 108772, Note_off_c, 8, 57, 0
1, 108772, Note_off_c, 8, 61, 0
1, 108772, Note_off_c, 13, 42, 0
1, 108772, Note_off_c, 13, 49, 0
1, 108952, Note_off_c, 0, 61, 64
1, 108952, Note_off_c, 0, 68, 64
1, 108952, Note_off_c, 2, 73, 64
1, 108952, Note_off_c, 2, 80, 64
1, 108952, Note_off_c, 3, 73, 64
1, 108952, Note_off_c, 3, 76, 64
1, 108952, Note_off_c, 4, 80, 0
1, 108952, Note_off_c, 5, 73, 0
1, 108960, Note_on_c, 6, 64, 68
1, 108960, Note_on_c, 6, 69, 66
1, 108960, Note_on_c, 6, 76, 70
1, 108960, Note_on_c, 8, 42, 100
1, 108960, Note_on_c, 8, 49, 100
1, 108960, Note_on_c, 13, 57, 100
1, 108960, Note_on_c, 13, 61, 100
1, 109008, Note_off_c, 10, 64, 0
1, 109012, Note_off_c, 10, 69, 0
1, 109028, Note_off_c, 10, 76, 0
1, 109156, Note_off_c, 6, 69, 0
1, 109180, Note_off_c, 6, 64, 0
1, 109186, Note_off_c, 1, 64, 0
1, 109198, Note_off_c, 6, 76, 0
1, 109252, Note_off_c, 8, 42, 0
1, 109252, Note_off_c, 8, 49, 0
1, 109252, Note_off_c, 13, 57, 0
1, 109252, Note_off_c, 13, 61, 0
1, 109440, Note_on_c, 0, 59, 100
1, 109440, Note_on_c, 0, 66, 100
1, 109440, Note_on_c, 1, 66, 68
1, 109440, Note_on_c, 2, 71, 100
1, 109440, Note_on_c, 2, 78, 100
1, 109440, Note_on_c, 3, 71, 100
1, 109440, Note_on_c, 3, 76, 100
1, 109440, Note_on_c, 4, 78, 100
1, 109440, Note_on_c, 5, 71, 100
1, 109440, Note_on_c, 7, 64, 69
1, 109440, Note_on_c, 7, 69, 75
1, 109440, Note_on_c, 7, 76, 73
1, 109440, Note_on_c, 8, 59, 100
1, 109440, Note_on_c, 8, 61, 100
1, 109440, Note_on_c, 13, 44, 100
1, 109440, Note_on_c, 13, 49, 100
1, 109654, Note_off_c, 7, 69, 0
1, 109670, Note_off_c, 7, 64, 0
1, 109684, Note_off_c, 7, 76, 0
1, 109722, Note_on_c, 10, 64, 67
1, 109722, Note_on_c, 10, 69, 63
1, 109722, Note_on_c, 10, 76, 72
1, 109732, Note_off_c, 8, 59, 0
1, 109732, Note_off_c, 8, 61, 0
1, 109732, Note_off_c, 13, 44, 0
1, 109732, Note_off_c, 13, 49, 0
1, 109912, Note_off_c, 0, 59, 64
1, 109912, Note_off_c, 0, 66, 64
1, 109912, Note_off_c, 2, 71, 64
1, 109912, Note_off_c, 2, 78, 64
1, 109912, Note_off_c, 3, 71, 64
1, 109912, Note_off_c, 3, 76, 64
1, 109912, Note_off_c, 4, 78, 0
1, 109912, Note_off_c, 5, 71, 0
1, 109920, Note_on_c, 0, 56, 100
1, 109920, Note_on_c, 0, 61, 100
1, 109920, Note_on_c, 1, 61, 68
1, 109920, Note_on_c, 2, 68, 100
1, 109920, Note_on_c, 2, 73, 100
1, 109920, Note_on_c, 3, 64, 100
1, 109920, Note_on_c, 3, 69, 100
1, 109920, Note_on_c, 4, 73, 100
1, 109920, Note_on_c, 5, 68, 100
1, 109920, Note_on_c, 6, 64, 68
1, 109920, Note_on_c, 6, 69, 63
1, 109920, Note_on_c, 6, 76, 72
1, 109920, Note_on_c, 8, 44, 100
1, 109920, Note_on_c, 8, 49, 100
1, 109920, Note_on_c, 13, 59, 100
1, 109920, Note_on_c, 13, 61, 100
1, 109956, Note_off_c, 1, 66, 0
1, 109970, Note_off_c, 10, 69, 0
1, 109998, Note_off_c, 10, 64, 0
1, 110014, Note_off_c, 10, 76, 0
1, 110130, Note_off_c, 6, 64, 0
1, 110164, Note_off_c, 6, 76, 0
1, 110182, Note_off_c, 6, 69, 0
1, 110212, Note_off_c, 8, 44, 0
1, 110212, Note_off_c, 8, 49, 0
1, 110212, Note_off_c, 13, 59, 0
1, 110212, Note_off_c, 13, 61, 0
1, 110392, Note_off_c, 0, 56, 64
1, 110392, Note_off_c, 0, 61, 64
1, 110392, Note_off_c, 2, 68, 64
1, 110392, Note_off_c, 2, 73, 64
1, 110392, Note_off_c, 3, 64, 64
1, 110392, Note_off_c, 3, 69, 64
1, 110392, Note_off_c, 4, 73, 0
1, 110392, Note_off_c, 5, 68, 0
1, 110400, Note_on_c, 7, 64, 68
1, 110400, Note_on_c, 7, 69, 74
1, 110400, Note_on_c, 7, 76, 74
1, 110400, Note_on_c, 8, 59, 100
1, 110400, Note_on_c, 8, 61, 100
1, 110400, Note_on_c, 13, 44, 100
1, 110400, Note_on_c, 13, 49, 100
1, 110624, Note_off_c, 7, 69, 0
1, 110664, Note_off_c, 7, 64, 0
1, 110674, Note_off_c, 7, 76, 0
1, 110682, Note_on_c, 10, 64, 68
1, 110682, Note_on_c, 10, 69, 66
1, 110682, Note_on_c, 10, 76, 70
1, 110690, Note_off_c, 1, 61, 0
1, 110692, Note_off_c, 8, 59, 0
1, 110692, Note_off_c, 8, 61, 0
1, 110692, Note_off_c, 13, 44, 0
1, 110692, Note_off_c, 13, 49, 0
1, 110878, Note_off_c, 10, 69, 0
1, 110880, Note_on_c, 0, 57, 100
1, 110880, Note_on_c, 0, 64, 100
1, 110880, Note_on_c, 1, 69, 77
1, 110880, Note_on_c, 2, 69, 100
1, 110880, Note_on_c, 2, 76, 100
1, 110880, Note_on_c, 3, 71, 100
1, 110880, Note_on_c, 3, 76, 100
1, 110880, Note_on_c, 4, 76, 100
1, 110880, Note_on_c, 5, 69, 100
1, 110880, Note_on_c, 6, 64, 70
1, 110880, Note_on_c, 6, 69, 69
1, 110880, Note_on_c, 6, 76, 72
1, 110880, Note_on_c, 8, 44, 100
1, 110880, Note_on_c, 8, 49, 100
1, 110880, Note_on_c, 13, 59, 100
1, 110880, Note_on_c, 13, 61, 100
1, 110902, Note_off_c, 10, 64, 0
1, 110920, Note_off_c, 10, 76, 0
1, 111114, Note_off_c, 6, 69, 0
1, 111142, Note_off_c, 6, 64, 0
1, 111142, Note_off_c, 6, 76, 0
1, 111172, Note_off_c, 8, 44, 0
1, 111172, Note_off_c, 8, 49, 0
1, 111172, Note_off_c, 13, 59, 0
1, 111172, Note_off_c, 13, 61, 0
1, 111352, Note_off_c, 0, 57, 64
1, 111352, Note_off_c, 0, 64, 64
1, 111352, Note_off_c, 2, 69, 64
1, 111352, Note_off_c, 2, 76, 64
1, 111352, Note_off_c, 3, 71, 64
1, 111352, Note_off_c, 3, 76, 64
1, 111352, Note_off_c, 4, 76, 0
1, 111352, Note_off_c, 5, 69, 0
1, 111360, Note_on_c, 7, 64, 68
1, 111360, Note_on_c, 7, 69, 73
1, 111360, Note_on_c, 7, 76, 73
1, 111360, Note_on_c, 8, 59, 100
1, 111360, Note_on_c, 8, 61, 100
1, 111360, Note_on_c, 13, 44, 100
1, 111360, Note_on_c, 13, 49, 100
1, 111504, Note_off_c, 1, 69, 0
1, 111584, Note_off_c, 7, 64, 0
1, 111608, Note_off_c, 7, 69, 0
1, 111608, Note_off_c, 7, 76, 0
1, 111642, Note_on_c, 10, 64, 68
1, 111642, Note_on_c, 10, 69, 63
1, 111642, Note_on_c, 10, 76, 72
1, 111652, Note_off_c, 8, 59, 0
1, 111652, Note_off_c, 8, 61, 0
1, 111652, Note_off_c, 13, 44, 0
1, 111652, Note_off_c, 13, 49, 0
1, 111840, Note_on_c, 0, 59, 100
1, 111840, Note_on_c, 0, 66, 100
1, 111840, Note_on_c, 1, 64, 70
1, 111840, Note_on_c, 2, 71, 100
1, 111840, Note_on_c, 2, 78, 100
1, 111840, Note_on_c, 3, 73, 100
1, 111840, Note_on_c, 3, 76, 100
1, 111840, Note_on_c, 4, 78, 100
1, 111840, Note_on_c, 5, 71, 100
1, 111840, Note_on_c, 6, 64, 68
1, 111840, Note_on_c, 6, 69, 70
1, 111840, Note_on_c, 6, 76, 70
1, 111840, Note_on_c, 8, 44, 100
1, 111840, Note_on_c, 8, 49, 100
1, 111840, Note_on_c, 13, 59, 100
1, 111840, Note_on_c, 13, 61, 100
1, 111852, Note_off_c, 10, 64, 0
1, 111886, Note_off_c, 10, 76, 0
1, 111904, Note_off_c, 10, 69, 0
1, 112048, Note_off_c, 6, 64, 0
1, 112076, Note_off_c, 6, 69, 0
1, 112080, Note_off_c, 6, 76, 0
1, 112132, Note_off_c, 8, 44, 0
1, 112132, Note_off_c, 8, 49, 0
1, 112132, Note_off_c, 13, 59, 0
1, 112132, Note_off_c, 13, 61, 0
1, 112312, Note_off_c, 0, 59, 64
1, 112312, Note_off_c, 0, 66, 64
1, 112312, Note_off_c, 2, 71, 64
1, 112312, Note_off_c, 2, 78, 64
1, 112312, Note_off_c, 3, 73, 64
1, 112312, Note_off_c, 3, 76, 64
1, 112312, Note_off_c, 4, 78, 0
1, 112312, Note_off_c, 5, 71, 0
1, 112320, Note_on_c, 0, 56, 100
1, 112320, Note_on_c, 0, 61, 100
1, 112320, Note_on_c, 1, 66, 77
1, 112320, Note_on_c, 2, 68, 100
1, 112320, Note_on_c, 2, 73, 100
1, 112320, Note_on_c, 3, 64, 100
1, 112320, Note_on_c, 3, 69, 100
1, 112320, Note_on_c, 4, 73, 100
1, 112320, Note_on_c, 5, 68, 100
1, 112320, Note_on_c, 7, 64, 66
1, 112320, Note_on_c, 7, 69, 74
1, 112320, Note_on_c, 7, 76, 73
1, 112320, Note_on_c, 8, 57, 100
1, 112320, Note_on_c, 8, 61, 100
1, 112320, Note_on_c, 13, 42, 100
1, 112320, Note_on_c, 13, 49, 100
1, 112472, Note_off_c, 1, 64, 0
1, 112554, Note_off_c, 7, 64, 0
1, 112574, Note_off_c, 7, 76, 0
1, 112602, Note_off_c, 7, 69, 0
1, 112602, Note_on_c, 10, 64, 70
1, 112602, Note_on_c, 10, 69, 69
1, 112602, Note_on_c, 10, 76, 72
1, 112612, Note_off_c, 8, 57, 0
1, 112612, Note_off_c, 8, 61, 0
1, 112612, Note_off_c, 13, 42, 0
1, 112612, Note_off_c, 13, 49, 0
1, 112792, Note_off_c, 0, 56, 64
1, 112792, Note_off_c, 0, 61, 64
1, 112792, Note_off_c, 2, 68, 64
1, 112792, Note_off_c, 2, 73, 64
1, 112792, Note_off_c, 3, 64, 64
1, 112792, Note_off_c, 3, 69, 64
1, 112792, Note_off_c, 4, 73, 0
1, 112792, Note_off_c, 5, 68, 0
1, 112800, Note_on_c, 6, 64, 67
1, 112800, Note_on_c, 6, 69, 73
1, 112800, Note_on_c, 6, 76, 74
1, 112800, Note_on_c, 8, 42, 100
1, 112800, Note_on_c, 8, 49, 100
1, 112800, Note_on_c, 13, 57, 100
1, 112800, Note_on_c, 13, 61, 100
1, 112836, Note_off_c, 10, 69, 0
1, 112864, Note_off_c, 10, 64, 0
1, 112864, Note_off_c, 10, 76, 0
1, 112964, Note_off_c, 1, 66, 0
1, 113016, Note_off_c, 6, 64, 0
1, 113036, Note_off_c, 6, 76, 0
1, 113046, Note_off_c, 6, 69, 0
1, 113092, Note_off_c, 8, 42, 0
1, 113092, Note_off_c, 8, 49, 0
1, 113092, Note_off_c, 13, 57, 0
1, 113092, Note_off_c, 13, 61, 0
1, 113280, Note_on_c, 0, 56, 100
1, 113280, Note_on_c, 0, 61, 100
1, 113280, Note_on_c, 1, 59, 65
1, 113280, Note_on_c, 2, 68, 100
1, 113280, Note_on_c, 2, 73, 100
1, 113280, Note_on_c, 3, 71, 100
1, 113280, Note_on_c, 3, 76, 100
1, 113280, Note_on_c, 4, 73, 100
1, 113280, Note_on_c, 5, 68, 100
1, 113280, Note_on_c, 7, 64, 66
1, 113280, Note_on_c, 7, 69, 77
1, 113280, Note_on_c, 7, 76, 70
1, 113280, Note_on_c, 8, 57, 100
1, 113280, Note_on_c, 8, 61, 100
1, 113280, Note_on_c, 13, 42, 100
1, 113280, Note_on_c, 13, 49, 100
1, 113508, Note_off_c, 7, 64, 0
1, 113562, Note_on_c, 10, 64, 68
1, 113562, Note_on_c, 10, 69, 70
1, 113562, Note_on_c, 10, 76, 70
1, 113566, Note_off_c, 7, 69, 0
1, 113572, Note_off_c, 8, 57, 0
1, 113572, Note_off_c, 8, 61, 0
1, 113572, Note_off_c, 13, 42, 0
1, 113572, Note_off_c, 13, 49, 0
1, 113590, Note_off_c, 7, 76, 0
1, 113752, Note_off_c, 0, 56, 64
1, 113752, Note_off_c, 0, 61, 64
1, 113752, Note_off_c, 2, 68, 64
1, 113752, Note_off_c, 2, 73, 64
1, 113752, Note_off_c, 3, 71, 64
1, 113752, Note_off_c, 3, 76, 64
1, 113752, Note_off_c, 4, 73, 0
1, 113752, Note_off_c, 5, 68, 0
1, 113760, Note_on_c, 0, 57, 100
1, 113760, Note_on_c, 0, 64, 100
1, 113760, Note_on_c, 1, 69, 74
1, 113760, Note_on_c, 2, 69, 100
1, 113760, Note_on_c, 2, 76, 100
1, 113760, Note_on_c, 3, 66, 100
1, 113760, Note_on_c, 3, 69, 100
1, 113760, Note_on_c, 4, 76, 100
1, 113760, Note_on_c, 5, 69, 100
1, 113760, Note_on_c, 6, 64, 68
1, 113760, Note_on_c, 6, 69, 74
1, 113760, Note_on_c, 6, 76, 75
1, 113760, Note_on_c, 8, 42, 100
1, 113760, Note_on_c, 8, 49, 100
1, 113760, Note_on_c, 13, 57, 100
1, 113760, Note_on_c, 13, 61, 100
1, 113770, Note_off_c, 10, 64, 0
1, 113798, Note_off_c, 10, 69, 0
1, 113802, Note_off_c, 10, 76, 0
1, 113854, Note_off_c, 1, 59, 0
1, 114032, Note_off_c, 6, 69, 0
1, 114036, Note_off_c, 6, 64, 0
1, 114050, Note_off_c, 6, 76, 0
1, 114052, Note_off_c, 8, 42, 0
1, 114052, Note_off_c, 8, 49, 0
1, 114052, Note_off_c, 13, 57, 0
1, 114052, Note_off_c, 13, 61, 0
1, 114232, Note_off_c, 0, 57, 64
1, 114232, Note_off_c, 0, 64, 64
1, 114232, Note_off_c, 2, 69, 64
1, 114232, Note_off_c, 2, 76, 64
1, 114232, Note_off_c, 3, 66, 64
1, 114232, Note_off_c, 3, 69, 64
1, 114232, Note_off_c, 4, 76, 0
1, 114232, Note_off_c, 5, 69, 0
1, 114240, Note_on_c, 0, 61, 100
1, 114240, Note_on_c, 0, 68, 100
1, 114240, Note_on_c, 1, 64, 68
1, 114240, Note_on_c, 2, 73, 100
1, 114240, Note_on_c, 2, 80, 100
1, 114240, Note_on_c, 3, 73, 100
1, 114240, Note_on_c, 3, 76, 100
1, 114240, Note_on_c, 4, 80, 100
1, 114240, Note_on_c, 5, 73, 100
1, 114240, Note_on_c, 7, 64, 65
1, 114240, Note_on_c, 7, 69, 72
1, 114240, Note_on_c, 7, 76, 72
1, 114240, Note_on_c, 8, 59, 100
1, 114240, Note_on_c, 8, 61, 100
1, 114240, Note_on_c, 13, 44, 100
1, 114240, Note_on_c, 13, 49, 100
1, 114452, Note_off_c, 1, 69, 0
1, 114516, Note_off_c, 7, 64, 0
1, 114522, Note_on_c, 10, 64, 67
1, 114522, Note_on_c, 10, 69, 73
1, 114522, Note_on_c, 10, 76, 74
1, 114530, Note_off_c, 7, 69, 0
1, 114532, Note_off_c, 7, 76, 0
1, 114532, Note_off_c, 8, 59, 0
1, 114532, Note_off_c, 8, 61, 0
1, 114532, Note_off_c, 13, 44, 0
1, 114532, Note_off_c, 13, 49, 0
1, 114712, Note_off_c, 0, 61, 64
1, 114712, Note_off_c, 0, 68, 64
1, 114712, Note_off_c, 2, 73, 64
1, 114712, Note_off_c, 2, 80, 64
1, 114712, Note_off_c, 3, 73, 64
1, 114712, Note_off_c, 3, 76, 64
1, 114712, Note_off_c, 4, 80, 0
1, 114712, Note_off_c, 5, 73, 0
1, 114720, Note_on_c, 6, 64, 73
1, 114720, Note_on_c, 6, 69, 80
1, 114720, Note_on_c, 6, 76, 77
1, 114720, Note_on_c, 8, 44, 100
1, 114720, Note_on_c, 8, 49, 100
1, 114720, Note_on_c, 13, 59, 100
1, 114720, Note_on_c, 13, 61, 100
1, 114738, Note_off_c, 10, 64, 0
1, 114758, Note_off_c, 10, 76, 0
1, 114768, Note_off_c, 10, 69, 0
1, 114854, Note_off_c, 1, 64, 0
1, 114982, Note_off_c, 6, 64, 0
1, 114998, Note_off_c, 6, 69, 0
1, 115008, Note_off_c, 6, 76, 0
1, 115012, Note_off_c, 8, 44, 0
1, 115012, Note_off_c, 8, 49, 0
1, 115012, Note_off_c, 13, 59, 0
1, 115012, Note_off_c, 13, 61, 0
1, 115200, Note_on_c, 1, 66, 77
1, 115200, Note_on_c, 3, 71, 100
1, 115200, Note_on_c, 3, 76, 100
1, 115200, Note_on_c, 7, 64, 67
1, 115200, Note_on_c, 7, 69, 75
1, 115200, Note_on_c, 7, 76, 70
1, 115200, Note_on_c, 8, 59, 100
1, 115200, Note_on_c, 8, 61, 100
1, 115200, Note_on_c, 13, 44, 100
1, 115200, Note_on_c, 13, 49, 100
1, 115430, Note_off_c, 7, 69, 0
1, 115448, Note_off_c, 7, 64, 0
1, 115458, Note_off_c, 7, 76, 0
1, 115482, Note_on_c, 10, 64, 68
1, 115482, Note_on_c, 10, 69, 74
1, 115482, Note_on_c, 10, 76, 75
1, 115492, Note_off_c, 8, 59, 0
1, 115492, Note_off_c, 8, 61, 0
1, 115492, Note_off_c, 13, 44, 0
1, 115492, Note_off_c, 13, 49, 0
1, 115672, Note_off_c, 3, 71, 64
1, 115672, Note_off_c, 3, 76, 64
1, 115680, Note_on_c, 1, 61, 70
1, 115680, Note_on_c, 3, 64, 100
1, 115680, Note_on_c, 3, 69, 100
1, 115680, Note_on_c, 6, 64, 68
1, 115680, Note_on_c, 6, 69, 70
1, 115680, Note_on_c, 6, 76, 74
1, 115680, Note_on_c, 8, 44, 100
1, 115680, Note_on_c, 8, 49, 100
1, 115680, Note_on_c, 13, 59, 100
1, 115680, Note_on_c, 13, 61, 100
1, 115754, Note_off_c, 10, 69, 0
1, 115758, Note_off_c, 10, 64, 0
1, 115772, Note_off_c, 10, 76, 0
1, 115842, Note_off_c, 1, 66, 0
1, 115966, Note_off_c, 6, 64, 0
1, 115972, Note_off_c, 8, 44, 0
1, 115972, Note_off_c, 8, 49, 0
1, 115972, Note_off_c, 13, 59, 0
1, 115972, Note_off_c, 13, 61, 0
1, 115978, Note_off_c, 6, 69, 0
1, 115978, Note_off_c, 6, 76, 0
1, 116152, Note_off_c, 3, 64, 64
1, 116152, Note_off_c, 3, 69, 64
1, 116160, Note_on_c, 7, 64, 66
1, 116160, Note_on_c, 7, 69, 68
1, 116160, Note_on_c, 7, 76, 72
1, 116160, Note_on_c, 8, 59, 100
1, 116160, Note_on_c, 8, 61, 100
1, 116160, Note_on_c, 13, 44, 100
1, 116160, Note_on_c, 13, 49, 100
1, 116308, Note_off_c, 1, 61, 0
1, 116420, Note_off_c, 7, 69, 0
1, 116430, Note_off_c, 7, 64, 0
1, 116434, Note_off_c, 7, 76, 0
1, 116442, Note_on_c, 10, 64, 73
1, 116442, Note_on_c, 10, 69, 80
1, 116442, Note_on_c, 10, 76, 77
1, 116452, Note_off_c, 8, 59, 0
1, 116452, Note_off_c, 8, 61, 0
1, 116452, Note_off_c, 13, 44, 0
1, 116452, Note_off_c, 13, 49, 0
1, 116640, Note_on_c, 1, 69, 77
1, 116640, Note_on_c, 3, 71, 100
1, 116640, Note_on_c, 3, 76, 100
1, 116640, Note_on_c, 6, 64, 70
1, 116640, Note_on_c, 6, 69, 74
1, 116640, Note_on_c, 6, 76, 74
1, 116640, Note_on_c, 8, 44, 100
1, 116640, Note_on_c, 8, 49, 100
1, 116640, Note_on_c, 13, 59, 100
1, 116640, Note_on_c, 13, 61, 100
1, 116704, Note_off_c, 10, 64, 0
1, 116720, Note_off_c, 10, 69, 0
1, 116730, Note_off_c, 10, 76, 0
1, 116844, Note_off_c, 6, 64, 0
1, 116874, Note_off_c, 6, 76, 0
1, 116912, Note_off_c, 6, 69, 0
1, 116932, Note_off_c, 8, 44, 0
1, 116932, Note_off_c, 8, 49, 0
1, 116932, Note_off_c, 13, 59, 0
1, 116932, Note_off_c, 13, 61, 0
1, 117112, Note_off_c, 3, 71, 64
1, 117112, Note_off_c, 3, 76, 64
1, 117120, Note_on_c, 7, 64, 62
1, 117120, Note_on_c, 7, 69, 60
1, 117120, Note_on_c, 7, 76, 70
1, 117120, Note_on_c, 8, 59, 100
1, 117120, Note_on_c, 8, 61, 100
1, 117120, Note_on_c, 13, 44, 100
1, 117120, Note_on_c, 13, 49, 100
1, 117288, Note_off_c, 1, 69, 0
1, 117380, Note_off_c, 7, 69, 0
1, 117398, Note_off_c, 7, 64, 0
1, 117402, Note_on_c, 10, 64, 68
1, 117402, Note_on_c, 10, 69, 70
1, 117402, Note_on_c, 10, 76, 74
1, 117412, Note_off_c, 8, 59, 0
1, 117412, Note_off_c, 8, 61, 0
1, 117412, Note_off_c, 13, 44, 0
1, 117412, Note_off_c, 13, 49, 0
1, 117458, Note_off_c, 7, 76, 0
1, 117600, Note_on_c, 1, 64, 68
1, 117600, Note_on_c, 3, 73, 100
1, 117600, Note_on_c, 3, 76, 100
1, 117600, Note_on_c, 6, 64, 68
1, 117600, Note_on_c, 6, 69, 68
1, 117600, Note_on_c, 6, 76, 72
1, 117600, Note_on_c, 8, 44, 100
1, 117600, Note_on_c, 8, 49, 100
1, 117600, Note_on_c, 13, 59, 100
1, 117600, Note_on_c, 13, 61, 100
1, 117688, Note_off_c, 10, 64, 0
1, 117700, Note_off_c, 10, 69, 0
1, 117700, Note_off_c, 10, 76, 0
1, 117806, Note_off_c, 6, 69, 0
1, 117814, Note_off_c, 6, 64, 0
1, 117824, Note_off_c, 6, 76, 0
1, 117892, Note_off_c, 8, 44, 0
1, 117892, Note_off_c, 8, 49, 0
1, 117892, Note_off_c, 13, 59, 0
1, 117892, Note_off_c, 13, 61, 0
1, 118044, Note_off_c, 1, 64, 0
1, 118072, Note_off_c, 3, 73, 64
1, 118072, Note_off_c, 3, 76, 64
1, 118080, Note_on_c, 0, 54, 100
1, 118080, Note_on_c, 0, 59, 100
1, 118080, Note_on_c, 1, 66, 78
1, 118080, Note_on_c, 2, 66, 100
1, 118080, Note_on_c, 2, 71, 100
1, 118080, Note_on_c, 3, 64, 100
1, 118080, Note_on_c, 3, 69, 100
1, 118080, Note_on_c, 4, 71, 100
1, 118080, Note_on_c, 5, 66, 100
1, 118080, Note_on_c, 7, 64, 56
1, 118080, Note_on_c, 7, 69, 69
1, 118080, Note_on_c, 7, 76, 73
1, 118080, Note_on_c, 8, 57, 100
1, 118080, Note_on_c, 8, 61, 100
1, 118080, Note_on_c, 13, 42, 100
1, 118080, Note_on_c, 13, 49, 100
1, 118132, Note_off_c, 4, 71, 0
1, 118346, Note_off_c, 7, 64, 0
1, 118362, Note_on_c, 10, 64, 70
1, 118362, Note_on_c, 10, 69, 74
1, 118362, Note_on_c, 10, 76, 74
1, 118372, Note_off_c, 8, 57, 0
1, 118372, Note_off_c, 8, 61, 0
1, 118372, Note_off_c, 13, 42, 0
1, 118372, Note_off_c, 13, 49, 0
1, 118374, Note_off_c, 7, 69, 0
1, 118382, Note_off_c, 7, 76, 0
1, 118432, Note_off_c, 5, 66, 0
1, 118552, Note_off_c, 0, 54, 64
1, 118552, Note_off_c, 0, 59, 64
1, 118552, Note_off_c, 2, 66, 64
1, 118552, Note_off_c, 2, 71, 64
1, 118552, Note_off_c, 3, 64, 64
1, 118552, Note_off_c, 3, 69, 64
1, 118560, Note_on_c, 6, 64, 70
1, 118560, Note_on_c, 6, 69, 70
1, 118560, Note_on_c, 6, 76, 75
1, 118560, Note_on_c, 8, 42, 100
1, 118560, Note_on_c, 8, 49, 100
1, 118560, Note_on_c, 13, 57, 100
1, 118560, Note_on_c, 13, 61, 100
1, 118566, Note_off_c, 10, 64, 0
1, 118596, Note_off_c, 10, 76, 0
1, 118634, Note_off_c, 10, 69, 0
1, 118748, Note_off_c, 1, 66, 0
1, 118788, Note_off_c, 6, 69, 0
1, 118830, Note_off_c, 6, 64, 0
1, 118852, Note_off_c, 8, 42, 0
1, 118852, Note_off_c, 8, 49, 0
1, 118852, Note_off_c, 13, 57, 0
1, 118852, Note_off_c, 13, 61, 0
1, 118868, Note_off_c, 6, 76, 0
1, 119040, Note_on_c, 0, 56, 100
1, 119040, Note_on_c, 0, 61, 100
1, 119040, Note_on_c, 1, 59, 74
1, 119040, Note_on_c, 2, 68, 100
1, 119040, Note_on_c, 2, 73, 100
1, 119040, Note_on_c, 3, 71, 100
1, 119040, Note_on_c, 3, 76, 100
1, 119040, Note_on_c, 4, 73, 100
1, 119040, Note_on_c, 5, 68, 100
1, 119040, Note_on_c, 7, 64, 66
1, 119040, Note_on_c, 7, 69, 70
1, 119040, Note_on_c, 7, 76, 75
1, 119040, Note_on_c, 8, 57, 100
1, 119040, Note_on_c, 8, 61, 100
1, 119040, Note_on_c, 13, 42, 100
1, 119040, Note_on_c, 13, 49, 100
1, 119290, Note_off_c, 7, 69, 0
1, 119304, Note_off_c, 7, 64, 0
1, 119322, Note_on_c, 10, 64, 68
1, 119322, Note_on_c, 10, 69, 68
1, 119322, Note_on_c, 10, 76, 72
1, 119330, Note_off_c, 7, 76, 0
1, 119332, Note_off_c, 8, 57, 0
1, 119332, Note_off_c, 8, 61, 0
1, 119332, Note_off_c, 13, 42, 0
1, 119332, Note_off_c, 13, 49, 0
1, 119512, Note_off_c, 0, 56, 64
1, 119512, Note_off_c, 0, 61, 64
1, 119512, Note_off_c, 2, 68, 64
1, 119512, Note_off_c, 2, 73, 64
1, 119512, Note_off_c, 3, 71, 64
1, 119512, Note_off_c, 3, 76, 64
1, 119512, Note_off_c, 4, 73, 0
1, 119512, Note_off_c, 5, 68, 0
1, 119520, Note_on_c, 0, 57, 100
1, 119520, Note_on_c, 0, 64, 100
1, 119520, Note_on_c, 1, 69, 75
1, 119520, Note_on_c, 2, 69, 100
1, 119520, Note_on_c, 2, 76, 100
1, 119520, Note_on_c, 3, 66, 100
1, 119520, Note_on_c, 3, 69, 100
1, 119520, Note_on_c, 4, 76, 100
1, 119520, Note_on_c, 5, 69, 100
1, 119520, Note_on_c, 6, 64, 69
1, 119520, Note_on_c, 6, 69, 69
1, 119520, Note_on_c, 6, 76, 73
1, 119520, Note_on_c, 8, 42, 100
1, 119520, Note_on_c, 8, 49, 100
1, 119520, Note_on_c, 13, 57, 100
1, 119520, Note_on_c, 13, 61, 100
1, 119528, Note_off_c, 1, 59, 0
1, 119528, Note_off_c, 10, 69, 0
1, 119536, Note_off_c, 10, 64, 0
1, 119546, Note_off_c, 10, 76, 0
1, 119786, Note_off_c, 6, 64, 0
1, 119812, Note_off_c, 8, 42, 0
1, 119812, Note_off_c, 8, 49, 0
1, 119812, Note_off_c, 13, 57, 0
1, 119812, Note_off_c, 13, 61, 0
1, 119824, Note_off_c, 6, 69, 0
1, 119824, Note_off_c, 6, 76, 0
1, 119992, Note_off_c, 0, 57, 64
1, 119992, Note_off_c, 0, 64, 64
1, 119992, Note_off_c, 2, 69, 64
1, 119992, Note_off_c, 2, 76, 64
1, 119992, Note_off_c, 3, 66, 64
1, 119992, Note_off_c, 3, 69, 64
1, 119992, Note_off_c, 4, 76, 0
1, 119992, Note_off_c, 5, 69, 0
1, 120000, Note_on_c, 0, 61, 100
1, 120000, Note_on_c, 0, 68, 100
1, 120000, Note_on_c, 1, 64, 73
1, 120000, Note_on_c, 2, 73, 100
1, 120000, Note_on_c, 2, 80, 100
1, 120000, Note_on_c, 3, 73, 100
1, 120000, Note_on_c, 3, 76, 100
1, 120000, Note_on_c, 4, 80, 100
1, 120000, Note_on_c, 5, 73, 100
1, 120000, Note_on_c, 7, 64, 66
1, 120000, Note_on_c, 7, 69, 70
1, 120000, Note_on_c, 7, 76, 75
1, 120000, Note_on_c, 8, 57, 100
1, 120000, Note_on_c, 8, 61, 100
1, 120000, Note_on_c, 13, 42, 100
1, 120000, Note_on_c, 13, 49, 100
1, 120126, Note_off_c, 1, 69, 0
1, 120250, Note_off_c, 7, 69, 0
1, 120264, Note_off_c, 7, 64, 0
1, 120282, Note_on_c, 10, 64, 70
1, 120282, Note_on_c, 10, 69, 70
1, 120282, Note_on_c, 10, 76, 75
1, 120290, Note_off_c, 7, 76, 0
1, 120292, Note_off_c, 8, 57, 0
1, 120292, Note_off_c, 8, 61, 0
1, 120292, Note_off_c, 13, 42, 0
1, 120292, Note_off_c, 13, 49, 0
1, 120472, Note_off_c, 0, 61, 64
1, 120472, Note_off_c, 0, 68, 64
1, 120472, Note_off_c, 2, 73, 64
1, 120472, Note_off_c, 2, 80, 64
1, 120472, Note_off_c, 3, 73, 64
1, 120472, Note_off_c, 3, 76, 64
1, 120472, Note_off_c, 4, 80, 0
1, 120472, Note_off_c, 5, 73, 0
1, 120480, Note_on_c, 6, 64, 67
1, 120480, Note_on_c, 6, 69, 63
1, 120480, Note_on_c, 6, 76, 74
1, 120480, Note_on_c, 8, 42, 100
1, 120480, Note_on_c, 8, 49, 100
1, 120480, Note_on_c, 13, 57, 100
1, 120480, Note_on_c, 13, 61, 100
1, 120510, Note_off_c, 10, 69, 0
1, 120552, Note_off_c, 10, 64, 0
1, 120590, Note_off_c, 10, 76, 0
1, 120684, Note_off_c, 6, 69, 0
1, 120706, Note_off_c, 1, 64, 0
1, 120746, Note_off_c, 6, 64, 0
1, 120746, Note_off_c, 6, 76, 0
1, 120772, Note_off_c, 8, 42, 0
1, 120772, Note_off_c, 8, 49, 0
1, 120772, Note_off_c, 13, 57, 0
1, 120772, Note_off_c, 13, 61, 0
1, 120960, Note_on_c, 0, 59, 100
1, 120960, Note_on_c, 0, 66, 100
1, 120960, Note_on_c, 1, 66, 68
1, 120960, Note_on_c, 2, 71, 100
1, 120960, Note_on_c, 2, 78, 100
1, 120960, Note_on_c, 3, 71, 100
1, 120960, Note_on_c, 3, 76, 100
1, 120960, Note_on_c, 4, 78, 100
1, 120960, Note_on_c, 5, 71, 100
1, 120960, Note_on_c, 7, 64, 72
1, 120960, Note_on_c, 7, 69, 80
1, 120960, Note_on_c, 7, 76, 77
1, 120960, Note_on_c, 8, 59, 100
1, 120960, Note_on_c, 8, 61, 100
1, 120960, Note_on_c, 13, 44, 100
1, 120960, Note_on_c, 13, 49, 100
1, 121200, Note_off_c, 7, 76, 0
1, 121210, Note_off_c, 7, 64, 0
1, 121210, Note_off_c, 7, 69, 0
1, 121242, Note_on_c, 10, 64, 69
1, 121242, Note_on_c, 10, 69, 69
1, 121242, Note_on_c, 10, 76, 73
1, 121252, Note_off_c, 8, 59, 0
1, 121252, Note_off_c, 8, 61, 0
1, 121252, Note_off_c, 13, 44, 0
1, 121252, Note_off_c, 13, 49, 0
1, 121432, Note_off_c, 0, 59, 64
1, 121432, Note_off_c, 0, 66, 64
1, 121432, Note_off_c, 2, 71, 64
1, 121432, Note_off_c, 2, 78, 64
1, 121432, Note_off_c, 3, 71, 64
1, 121432, Note_off_c, 3, 76, 64
1, 121432, Note_off_c, 4, 78, 0
1, 121432, Note_off_c, 5, 71, 0
1, 121440, Note_on_c, 0, 56, 100
1, 121440, Note_on_c, 0, 61, 100
1, 121440, Note_on_c, 1, 61, 68
1, 121440, Note_on_c, 2, 68, 100
1, 121440, Note_on_c, 2, 73, 100
1, 121440, Note_on_c, 3, 64, 100
1, 121440, Note_on_c, 3, 69, 100
1, 121440, Note_on_c, 4, 73, 100
1, 121440, Note_on_c, 5, 68, 100
1, 121440, Note_on_c, 6, 64, 66
1, 121440, Note_on_c, 6, 69, 63
1, 121440, Note_on_c, 6, 76, 74
1, 121440, Note_on_c, 8, 44, 100
1, 121440, Note_on_c, 8, 49, 100
1, 121440, Note_on_c, 13, 59, 100
1, 121440, Note_on_c, 13, 61, 100
1, 121476, Note_off_c, 1, 66, 0
1, 121508, Note_off_c, 10, 64, 0
1, 121546, Note_off_c, 10, 69, 0
1, 121546, Note_off_c, 10, 76, 0
1, 121670, Note_off_c, 6, 69, 0
1, 121676, Note_off_c, 6, 64, 0
1, 121714, Note_off_c, 6, 76, 0
1, 121732, Note_off_c, 8, 44, 0
1, 121732, Note_off_c, 8, 49, 0
1, 121732, Note_off_c, 13, 59, 0
1, 121732, Note_off_c, 13, 61, 0
1, 121912, Note_off_c, 0, 56, 64
1, 121912, Note_off_c, 0, 61, 64
1, 121912, Note_off_c, 2, 68, 64
1, 121912, Note_off_c, 2, 73, 64
1, 121912, Note_off_c, 3, 64, 64
1, 121912, Note_off_c, 3, 69, 64
1, 121912, Note_off_c, 4, 73, 0
1, 121912, Note_off_c, 5, 68, 0
1, 121920, Note_on_c, 7, 64, 70
1, 121920, Note_on_c, 7, 69, 77
1, 121920, Note_on_c, 7, 76, 77
1, 121920, Note_on_c, 8, 59, 100
1, 121920, Note_on_c, 8, 61, 100
1, 121920, Note_on_c, 13, 44, 100
1, 121920, Note_on_c, 13, 49, 100
1, 122174, Note_off_c, 7, 64, 0
1, 122202, Note_off_c, 7, 69, 0
1, 122202, Note_on_c, 10, 64, 67
1, 122202, Note_on_c, 10, 69, 63
1, 122202, Note_on_c, 10, 76, 74
1, 122210, Note_off_c, 1, 61, 0
1, 122210, Note_off_c, 7, 76, 0
1, 122212, Note_off_c, 8, 59, 0
1, 122212, Note_off_c, 8, 61, 0
1, 122212, Note_off_c, 13, 44, 0
1, 122212, Note_off_c, 13, 49, 0
1, 122400, Note_on_c, 0, 57, 100
1, 122400, Note_on_c, 0, 64, 100
1, 122400, Note_on_c, 1, 69, 77
1, 122400, Note_on_c, 2, 69, 100
1, 122400, Note_on_c, 2, 76, 100
1, 122400, Note_on_c, 3, 71, 100
1, 122400, Note_on_c, 3, 76, 100
1, 122400, Note_on_c, 4, 76, 100
1, 122400, Note_on_c, 5, 69, 100
1, 122400, Note_on_c, 6, 64, 68
1, 122400, Note_on_c, 6, 69, 74
1, 122400, Note_on_c, 6, 76, 74
1, 122400, Note_on_c, 8, 44, 100
1, 122400, Note_on_c, 8, 49, 100
1, 122400, Note_on_c, 13, 59, 100
1, 122400, Note_on_c, 13, 61, 100
1, 122406, Note_off_c, 10, 69, 0
1, 122468, Note_off_c, 10, 64, 0
1, 122468, Note_off_c, 10, 76, 0
1, 122660, Note_off_c, 6, 69, 0
1, 122690, Note_off_c, 6, 76, 0
1, 122692, Note_off_c, 8, 44, 0
1, 122692, Note_off_c, 8, 49, 0
1, 122692, Note_off_c, 13, 59, 0
1, 122692, Note_off_c, 13, 61, 0
1, 122694, Note_off_c, 6, 64, 0
1, 122872, Note_off_c, 0, 57, 64
1, 122872, Note_off_c, 0, 64, 64
1, 122872, Note_off_c, 2, 69, 64
1, 122872, Note_off_c, 2, 76, 64
1, 122872, Note_off_c, 3, 71, 64
1, 122872, Note_off_c, 3, 76, 64
1, 122872, Note_off_c, 4, 76, 0
1, 122872, Note_off_c, 5, 69, 0
1, 122880, Note_on_c, 7, 64, 70
1, 122880, Note_on_c, 7, 69, 73
1, 122880, Note_on_c, 7, 76, 74
1, 122880, Note_on_c, 8, 59, 100
1, 122880, Note_on_c, 8, 61, 100
1, 122880, Note_on_c, 13, 44, 100
1, 122880, Note_on_c, 13, 49, 100
1, 123024, Note_off_c, 1, 69, 0
1, 123120, Note_off_c, 7, 64, 0
1, 123126, Note_off_c, 7, 69, 0
1, 123140, Note_off_c, 7, 76, 0
1, 123162, Note_on_c, 10, 64, 66
1, 123162, Note_on_c, 10, 69, 63
1, 123162, Note_on_c, 10, 76, 74
1, 123172, Note_off_c, 8, 59, 0
1, 123172, Note_off_c, 8, 61, 0
1, 123172, Note_off_c, 13, 44, 0
1, 123172, Note_off_c, 13, 49, 0
1, 123360, Note_on_c, 0, 59, 100
1, 123360, Note_on_c, 0, 66, 100
1, 123360, Note_on_c, 1, 64, 70
1, 123360, Note_on_c, 2, 71, 100
1, 123360, Note_on_c, 2, 78, 100
1, 123360, Note_on_c, 3, 73, 100
1, 123360, Note_on_c, 3, 76, 100
1, 123360, Note_on_c, 4, 78, 100
1, 123360, Note_on_c, 5, 71, 100
1, 123360, Note_on_c, 6, 64, 73
1, 123360, Note_on_c, 6, 69, 82
1, 123360, Note_on_c, 6, 76, 77
1, 123360, Note_on_c, 8, 44, 100
1, 123360, Note_on_c, 8, 49, 100
1, 123360, Note_on_c, 13, 59, 100
1, 123360, Note_on_c, 13, 61, 100
1, 123392, Note_off_c, 10, 69, 0
1, 123398, Note_off_c, 10, 64, 0
1, 123436, Note_off_c, 10, 76, 0
1, 123638, Note_off_c, 6, 69, 0
1, 123650, Note_off_c, 6, 64, 0
1, 123652, Note_off_c, 8, 44, 0
1, 123652, Note_off_c, 8, 49, 0
1, 123652, Note_off_c, 13, 59, 0
1, 123652, Note_off_c, 13, 61, 0
1, 123658, Note_off_c, 6, 76, 0
1, 123832, Note_off_c, 0, 59, 64
1, 123832, Note_off_c, 0, 66, 64
1, 123832, Note_off_c, 2, 71, 64
1, 123832, Note_off_c, 2, 78, 64
1, 123832, Note_off_c, 3, 73, 64
1, 123832, Note_off_c, 3, 76, 64
1, 123832, Note_off_c, 4, 78, 0
1, 123832, Note_off_c, 5, 71, 0
1, 123840, Note_on_c, 0, 56, 100
1, 123840, Note_on_c, 0, 61, 100
1, 123840, Note_on_c, 1, 66, 77
1, 123840, Note_on_c, 2, 68, 100
1, 123840, Note_on_c, 2, 73, 100
1, 123840, Note_on_c, 3, 64, 100
1, 123840, Note_on_c, 3, 69, 100
1, 123840, Note_on_c, 4, 73, 100
1, 123840, Note_on_c, 5, 68, 100
1, 123840, Note_on_c, 7, 64, 72
1, 123840, Note_on_c, 7, 69, 77
1, 123840, Note_on_c, 7, 76, 75
1, 123840, Note_on_c, 8, 57, 100
1, 123840, Note_on_c, 8, 61, 100
1, 123840, Note_on_c, 13, 42, 100
1, 123840, Note_on_c, 13, 49, 100
1, 123992, Note_off_c, 1, 64, 0
1, 124048, Note_off_c, 7, 69, 0
1, 124062, Note_off_c, 7, 64, 0
1, 124082, Note_off_c, 7, 76, 0
1, 124122, Note_on_c, 10, 64, 68
1, 124122, Note_on_c, 10, 69, 74
1, 124122, Note_on_c, 10, 76, 74
1, 124132, Note_off_c, 8, 57, 0
1, 124132, Note_off_c, 8, 61, 0
1, 124132, Note_off_c, 13, 42, 0
1, 124132, Note_off_c, 13, 49, 0
1, 124312, Note_off_c, 0, 56, 64
1, 124312, Note_off_c, 0, 61, 64
1, 124312, Note_off_c, 2, 68, 64
1, 124312, Note_off_c, 2, 73, 64
1, 124312, Note_off_c, 3, 64, 64
1, 124312, Note_off_c, 3, 69, 64
1, 124312, Note_off_c, 4, 73, 0
1, 124312, Note_off_c, 5, 68, 0
1, 124320, Note_on_c, 6, 64, 72
1, 124320, Note_on_c, 6, 69, 75
1, 124320, Note_on_c, 6, 76, 73
1, 124320, Note_on_c, 8, 42, 100
1, 124320, Note_on_c, 8, 49, 100
1, 124320, Note_on_c, 13, 57, 100
1, 124320, Note_on_c, 13, 61, 100
1, 124382, Note_off_c, 10, 69, 0
1, 124412, Note_off_c, 10, 76, 0
1, 124416, Note_off_c, 10, 64, 0
1, 124484, Note_off_c, 1, 66, 0
1, 124608, Note_off_c, 6, 76, 0
1, 124610, Note_off_c, 6, 69, 0
1, 124612, Note_off_c, 8, 42, 0
1, 124612, Note_off_c, 8, 49, 0
1, 124612, Note_off_c, 13, 57, 0
1, 124612, Note_off_c, 13, 61, 0
1, 124618, Note_off_c, 6, 64, 0
1, 124800, Note_on_c, 0, 56, 100
1, 124800, Note_on_c, 0, 61, 100
1, 124800, Note_on_c, 1, 59, 65
1, 124800, Note_on_c, 2, 68, 100
1, 124800, Note_on_c, 2, 73, 100
1, 124800, Note_on_c, 3, 71, 100
1, 124800, Note_on_c, 3, 76, 100
1, 124800, Note_on_c, 4, 73, 100
1, 124800, Note_on_c, 5, 68, 100
1, 124800, Note_on_c, 7, 64, 70
1, 124800, Note_on_c, 7, 69, 78
1, 124800, Note_on_c, 7, 76, 77
1, 124800, Note_on_c, 8, 57, 100
1, 124800, Note_on_c, 8, 61, 100
1, 124800, Note_on_c, 13, 42, 100
1, 124800, Note_on_c, 13, 49, 100
1, 125042, Note_off_c, 7, 64, 0
1, 125064, Note_off_c, 7, 76, 0
1, 125082, Note_on_c, 10, 64, 73
1, 125082, Note_on_c, 10, 69, 82
1, 125082, Note_on_c, 10, 76, 77
1, 125088, Note_off_c, 7, 69, 0
1, 125092, Note_off_c, 8, 57, 0
1, 125092, Note_off_c, 8, 61, 0
1, 125092, Note_off_c, 13, 42, 0
1, 125092, Note_off_c, 13, 49, 0
1, 125272, Note_off_c, 0, 56, 64
1, 125272, Note_off_c, 0, 61, 64
1, 125272, Note_off_c, 2, 68, 64
1, 125272, Note_off_c, 2, 73, 64
1, 125272, Note_off_c, 3, 71, 64
1, 125272, Note_off_c, 3, 76, 64
1, 125272, Note_off_c, 4, 73, 0
1, 125272, Note_off_c, 5, 68, 0
1, 125280, Note_on_c, 0, 57, 100
1, 125280, Note_on_c, 0, 64, 100
1, 125280, Note_on_c, 1, 69, 74
1, 125280, Note_on_c, 2, 69, 100
1, 125280, Note_on_c, 2, 76, 100
1, 125280, Note_on_c, 3, 66, 100
1, 125280, Note_on_c, 3, 69, 100
1, 125280, Note_on_c, 4, 76, 100
1, 125280, Note_on_c, 5, 69, 100
1, 125280, Note_on_c, 6, 64, 69
1, 125280, Note_on_c, 6, 69, 70
1, 125280, Note_on_c, 6, 76, 72
1, 125280, Note_on_c, 8, 42, 100
1, 125280, Note_on_c, 8, 49, 100
1, 125280, Note_on_c, 13, 57, 100
1, 125280, Note_on_c, 13, 61, 100
1, 125360, Note_off_c, 10, 69, 0
1, 125372, Note_off_c, 10, 64, 0
1, 125374, Note_off_c, 1, 59, 0
1, 125380, Note_off_c, 10, 76, 0
1, 125544, Note_off_c, 6, 69, 0
1, 125568, Note_off_c, 6, 64, 0
1, 125572, Note_off_c, 8, 42, 0
1, 125572, Note_off_c, 8, 49, 0
1, 125572, Note_off_c, 13, 57, 0
1, 125572, Note_off_c, 13, 61, 0
1, 125584, Note_off_c, 6, 76, 0
1, 125752, Note_off_c, 0, 57, 64
1, 125752, Note_off_c, 0, 64, 64
1, 125752, Note_off_c, 2, 69, 64
1, 125752, Note_off_c, 2, 76, 64
1, 125752, Note_off_c, 3, 66, 64
1, 125752, Note_off_c, 3, 69, 64
1, 125752, Note_off_c, 4, 76, 0
1, 125752, Note_off_c, 5, 69, 0
1, 125760, Note_on_c, 0, 61, 100
1, 125760, Note_on_c, 0, 68, 100
1, 125760, Note_on_c, 1, 64, 68
1, 125760, Note_on_c, 2, 73, 100
1, 125760, Note_on_c, 2, 80, 100
1, 125760, Note_on_c, 3, 73, 100
1, 125760, Note_on_c, 3, 76, 100
1, 125760, Note_on_c, 4, 80, 100
1, 125760, Note_on_c, 5, 73, 100
1, 125760, Note_on_c, 7, 64, 70
1, 125760, Note_on_c, 7, 69, 72
1, 125760, Note_on_c, 7, 76, 77
1, 125760, Note_on_c, 8, 59, 100
1, 125760, Note_on_c, 8, 61, 100
1, 125760, Note_on_c, 13, 44, 100
1, 125760, Note_on_c, 13, 49, 100
1, 125972, Note_off_c, 1, 69, 0
1, 126014, Note_off_c, 7, 64, 0
1, 126026, Note_off_c, 7, 69, 0
1, 126042, Note_on_c, 10, 64, 72
1, 126042, Note_on_c, 10, 69, 75
1, 126042, Note_on_c, 10, 76, 73
1, 126052, Note_off_c, 8, 59, 0
1, 126052, Note_off_c, 8, 61, 0
1, 126052, Note_off_c, 13, 44, 0
1, 126052, Note_off_c, 13, 49, 0
1, 126082, Note_off_c, 7, 76, 0
1, 126232, Note_off_c, 0, 61, 64
1, 126232, Note_off_c, 0, 68, 64
1, 126232, Note_off_c, 2, 73, 64
1, 126232, Note_off_c, 2, 80, 64
1, 126232, Note_off_c, 3, 73, 64
1, 126232, Note_off_c, 3, 76, 64
1, 126232, Note_off_c, 4, 80, 0
1, 126232, Note_off_c, 5, 73, 0
1, 126240, Note_on_c, 6, 64, 68
1, 126240, Note_on_c, 6, 69, 77
1, 126240, Note_on_c, 6, 76, 73
1, 126240, Note_on_c, 8, 44, 100
1, 126240, Note_on_c, 8, 49, 100
1, 126240, Note_on_c, 13, 59, 100
1, 126240, Note_on_c, 13, 61, 100
1, 126330, Note_off_c, 10, 76, 0
1, 126332, Note_off_c, 10, 69, 0
1, 126340, Note_off_c, 10, 64, 0
1, 126374, Note_off_c, 1, 64, 0
1, 126506, Note_off_c, 6, 64, 0
1, 126524, Note_off_c, 6, 69, 0
1, 126524, Note_off_c, 6, 76, 0
1, 126532, Note_off_c, 8, 44, 0
1, 126532, Note_off_c, 8, 49, 0
1, 126532, Note_off_c, 13, 59, 0
1, 126532, Note_off_c, 13, 61, 0
1, 126720, Note_on_c, 1, 66, 77
1, 126720, Note_on_c, 3, 71, 100
1, 126720, Note_on_c, 3, 76, 100
1, 126720, Note_on_c, 7, 64, 73
1, 126720, Note_on_c, 7, 69, 77
1, 126720, Note_on_c, 7, 76, 74
1, 126720, Note_on_c, 8, 59, 100
1, 126720, Note_on_c, 8, 61, 100
1, 126720, Note_on_c, 13, 44, 100
1, 126720, Note_on_c, 13, 49, 100
1, 127002, Note_on_c, 10, 64, 69
1, 127002, Note_on_c, 10, 69, 70
1, 127002, Note_on_c, 10, 76, 72
1, 127004, Note_off_c, 7, 69, 0
1, 127012, Note_off_c, 8, 59, 0
1, 127012, Note_off_c, 8, 61, 0
1, 127012, Note_off_c, 13, 44, 0
1, 127012, Note_off_c, 13, 49, 0
1, 127036, Note_off_c, 7, 76, 0
1, 127042, Note_off_c, 7, 64, 0
1, 127192, Note_off_c, 3, 71, 64
1, 127192, Note_off_c, 3, 76, 64
1, 127200, Note_on_c, 1, 61, 70
1, 127200, Note_on_c, 3, 64, 100
1, 127200, Note_on_c, 3, 69, 100
1, 127200, Note_on_c, 6, 64, 72
1, 127200, Note_on_c, 6, 69, 52
1, 127200, Note_on_c, 6, 76, 72
1, 127200, Note_on_c, 8, 44, 100
1, 127200, Note_on_c, 8, 49, 100
1, 127200, Note_on_c, 13, 59, 100
1, 127200, Note_on_c, 13, 61, 100
1, 127266, Note_off_c, 10, 69, 0
1, 127290, Note_off_c, 10, 64, 0
1, 127306, Note_off_c, 10, 76, 0
1, 127352, Note_off_c, 6, 69, 0
1, 127362, Note_off_c, 1, 66, 0
1, 127440, Note_off_c, 6, 64, 0
1, 127446, Note_off_c, 6, 76, 0
1, 127492, Note_off_c, 8, 44, 0
1, 127492, Note_off_c, 8, 49, 0
1, 127492, Note_off_c, 13, 59, 0
1, 127492, Note_off_c, 13, 61, 0
1, 127672, Note_off_c, 3, 64, 64
1, 127672, Note_off_c, 3, 69, 64
1, 127680, Note_on_c, 7, 64, 68
1, 127680, Note_on_c, 7, 69, 70
1, 127680, Note_on_c, 7, 76, 72
1, 127680, Note_on_c, 8, 59, 100
1, 127680, Note_on_c, 8, 61, 100
1, 127680, Note_on_c, 13, 44, 100
1, 127680, Note_on_c, 13, 49, 100
1, 127828, Note_off_c, 1, 61, 0
1, 127962, Note_on_c, 10, 64, 68
1, 127962, Note_on_c, 10, 69, 77
1, 127962, Note_on_c, 10, 76, 73
1, 127970, Note_off_c, 7, 69, 0
1, 127972, Note_off_c, 8, 59, 0
1, 127972, Note_off_c, 8, 61, 0
1, 127972, Note_off_c, 13, 44, 0
1, 127972, Note_off_c, 13, 49, 0
1, 127988, Note_off_c, 7, 76, 0
1, 127994, Note_off_c, 7, 64, 0
1, 128160, Note_on_c, 1, 69, 77
1, 128160, Note_on_c, 3, 71, 100
1, 128160, Note_on_c, 3, 76, 100
1, 128160, Note_on_c, 6, 64, 68
1, 128160, Note_on_c, 6, 69, 70
1, 128160, Note_on_c, 6, 76, 74
1, 128160, Note_on_c, 8, 44, 100
1, 128160, Note_on_c, 8, 49, 100
1, 128160, Note_on_c, 13, 59, 100
1, 128160, Note_on_c, 13, 61, 100
1, 128228, Note_off_c, 10, 64, 0
1, 128246, Note_off_c, 10, 69, 0
1, 128246, Note_off_c, 10, 76, 0
1, 128392, Note_off_c, 6, 69, 0
1, 128402, Note_off_c, 6, 64, 0
1, 128410, Note_off_c, 6, 76, 0
1, 128452, Note_off_c, 8, 44, 0
1, 128452, Note_off_c, 8, 49, 0
1, 128452, Note_off_c, 13, 59, 0
1, 128452, Note_off_c, 13, 61, 0
1, 128632, Note_off_c, 3, 71, 64
1, 128632, Note_off_c, 3, 76, 64
1, 128640, Note_on_c, 7, 64, 68
1, 128640, Note_on_c, 7, 69, 70
1, 128640, Note_on_c, 7, 76, 73
1, 128640, Note_on_c, 8, 59, 100
1, 128640, Note_on_c, 8, 61, 100
1, 128640, Note_on_c, 13, 44, 100
1, 128640, Note_on_c, 13, 49, 100
1, 128808, Note_off_c, 1, 69, 0
1, 128888, Note_off_c, 7, 64, 0
1, 128902, Note_off_c, 7, 69, 0
1, 128902, Note_off_c, 7, 76, 0
1, 128922, Note_on_c, 10, 64, 72
1, 128922, Note_on_c, 10, 69, 52
1, 128922, Note_on_c, 10, 76, 72
1, 128932, Note_off_c, 8, 59, 0
1, 128932, Note_off_c, 8, 61, 0
1, 128932, Note_off_c, 13, 44, 0
1, 128932, Note_off_c, 13, 49, 0
1, 129074, Note_off_c, 10, 69, 0
1, 129120, Note_on_c, 1, 64, 68
1, 129120, Note_on_c, 3, 73, 100
1, 129120, Note_on_c, 3, 76, 100
1, 129120, Note_on_c, 6, 64, 68
1, 129120, Note_on_c, 6, 69, 69
1, 129120, Note_on_c, 6, 76, 72
1, 129120, Note_on_c, 8, 44, 100
1, 129120, Note_on_c, 8, 49, 100
1, 129120, Note_on_c, 13, 59, 100
1, 129120, Note_on_c, 13, 61, 100
1, 129162, Note_off_c, 10, 64, 0
1, 129168, Note_off_c, 10, 76, 0
1, 129336, Note_off_c, 6, 76, 0
1, 129338, Note_off_c, 6, 69, 0
1, 129352, Note_off_c, 6, 64, 0
1, 129412, Note_off_c, 8, 44, 0
1, 129412, Note_off_c, 8, 49, 0
1, 129412, Note_off_c, 13, 59, 0
1, 129412, Note_off_c, 13, 61, 0
1, 129564, Note_off_c, 1, 64, 0
1, 129592, Note_off_c, 3, 73, 64
1, 129592, Note_off_c, 3, 76, 64
1, 129600, Note_on_c, 0, 54, 100
1, 129600, Note_on_c, 0, 59, 100
1, 129600, Note_on_c, 1, 66, 78
1, 129600, Note_on_c, 2, 66, 100
1, 129600, Note_on_c, 2, 71, 100
1, 129600, Note_on_c, 3, 64, 100
1, 129600, Note_on_c, 3, 69, 100
1, 129600, Note_on_c, 4, 71, 100
1, 129600, Note_on_c, 5, 66, 100
1, 129600, Note_on_c, 7, 64, 70
1, 129600, Note_on_c, 7, 69, 83
1, 129600, Note_on_c, 7, 76, 74
1, 129600, Note_on_c, 8, 57, 100
1, 129600, Note_on_c, 8, 61, 100
1, 129600, Note_on_c, 13, 42, 100
1, 129600, Note_on_c, 13, 49, 100
1, 129652, Note_off_c, 4, 71, 0
1, 129840, Note_off_c, 7, 64, 0
1, 129840, Note_off_c, 7, 76, 0
1, 129850, Note_off_c, 7, 69, 0
1, 129882, Note_on_c, 10, 64, 68
1, 129882, Note_on_c, 10, 69, 70
1, 129882, Note_on_c, 10, 76, 74
1, 129892, Note_off_c, 8, 57, 0
1, 129892, Note_off_c, 8, 61, 0
1, 129892, Note_off_c, 13, 42, 0
1, 129892, Note_off_c, 13, 49, 0
1, 129952, Note_off_c, 5, 66, 0
1, 130072, Note_off_c, 0, 54, 64
1, 130072, Note_off_c, 0, 59, 64
1, 130072, Note_off_c, 2, 66, 64
1, 130072, Note_off_c, 2, 71, 64
1, 130072, Note_off_c, 3, 64, 64
1, 130072, Note_off_c, 3, 69, 64
1, 130080, Note_on_c, 6, 64, 67
1, 130080, Note_on_c, 6, 69, 67
1, 130080, Note_on_c, 6, 76, 72
1, 130080, Note_on_c, 8, 42, 100
1, 130080, Note_on_c, 8, 49, 100
1, 130080, Note_on_c, 13, 57, 100
1, 130080, Note_on_c, 13, 61, 100
1, 130114, Note_off_c, 10, 69, 0
1, 130124, Note_off_c, 10, 64, 0
1, 130132, Note_off_c, 10, 76, 0
1, 130268, Note_off_c, 1, 66, 0
1, 130326, Note_off_c, 6, 64, 0
1, 130330, Note_off_c, 6, 69, 0
1, 130346, Note_off_c, 6, 76, 0
1, 130372, Note_off_c, 8, 42, 0
1, 130372, Note_off_c, 8, 49, 0
1, 130372, Note_off_c, 13, 57, 0
1, 130372, Note_off_c, 13, 61, 0
1, 130560, Note_on_c, 0, 56, 100
1, 130560, Note_on_c, 0, 61, 100
1, 130560, Note_on_c, 1, 59, 74
1, 130560, Note_on_c, 2, 68, 100
1, 130560, Note_on_c, 2, 73, 100
1, 130560, Note_on_c, 3, 71, 100
1, 130560, Note_on_c, 3, 76, 100
1, 130560, Note_on_c, 4, 73, 100
1, 130560, Note_on_c, 5, 68, 100
1, 130560, Note_on_c, 7, 64, 67
1, 130560, Note_on_c, 7, 69, 78
1, 130560, Note_on_c, 7, 76, 73
1, 130560, Note_on_c, 8, 57, 100
1, 130560, Note_on_c, 8, 61, 100
1, 130560, Note_on_c, 13, 42, 100
1, 130560, Note_on_c, 13, 49, 100
1, 130810, Note_off_c, 7, 76, 0
1, 130816, Note_off_c, 7, 69, 0
1, 130824, Note_off_c, 7, 64, 0
1, 130842, Note_on_c, 10, 64, 68
1, 130842, Note_on_c, 10, 69, 69
1, 130842, Note_on_c, 10, 76, 72
1, 130852, Note_off_c, 8, 57, 0
1, 130852, Note_off_c, 8, 61, 0
1, 130852, Note_off_c, 13, 42, 0
1, 130852, Note_off_c, 13, 49, 0
1, 131032, Note_off_c, 0, 56, 64
1, 131032, Note_off_c, 0, 61, 64
1, 131032, Note_off_c, 2, 68, 64
1, 131032, Note_off_c, 2, 73, 64
1, 131032, Note_off_c, 3, 71, 64
1, 131032, Note_off_c, 3, 76, 64
1, 131032, Note_off_c, 4, 73, 0
1, 131032, Note_off_c, 5, 68, 0
1, 131040, Note_on_c, 0, 57, 100
1, 131040, Note_on_c, 0, 64, 100
1, 131040, Note_on_c, 1, 69, 75
1, 131040, Note_on_c, 2, 69, 100
1, 131040, Note_on_c, 2, 76, 100
1, 131040, Note_on_c, 3, 66, 100
1, 131040, Note_on_c, 3, 69, 100
1, 131040, Note_on_c, 4, 76, 100
1, 131040, Note_on_c, 5, 69, 100
1, 131040, Note_on_c, 6, 64, 67
1, 131040, Note_on_c, 6, 69, 63
1, 131040, Note_on_c, 6, 76, 72
1, 131040, Note_on_c, 8, 42, 100
1, 131040, Note_on_c, 8, 49, 100
1, 131040, Note_on_c, 13, 57, 100
1, 131040, Note_on_c, 13, 61, 100
1, 131048, Note_off_c, 1, 59, 0
1, 131058, Note_off_c, 10, 76, 0
1, 131060, Note_off_c, 10, 69, 0
1, 131074, Note_off_c, 10, 64, 0
1, 131288, Note_off_c, 6, 69, 0
1, 131316, Note_off_c, 6, 64, 0
1, 131332, Note_off_c, 6, 76, 0
1, 131332, Note_off_c, 8, 42, 0
1, 131332, Note_off_c, 8, 49, 0
1, 131332, Note_off_c, 13, 57, 0
1, 131332, Note_off_c, 13, 61, 0
1, 131512, Note_off_c, 0, 57, 64
1, 131512, Note_off_c, 0, 64, 64
1, 131512, Note_off_c, 2, 69, 64
1, 131512, Note_off_c, 2, 76, 64
1, 131512, Note_off_c, 3, 66, 64
1, 131512, Note_off_c, 3, 69, 64
1, 131512, Note_off_c, 4, 76, 0
1, 131512, Note_off_c, 5, 69, 0
1, 131520, Note_on_c, 0, 61, 100
1, 131520, Note_on_c, 0, 68, 100
1, 131520, Note_on_c, 1, 64, 73
1, 131520, Note_on_c, 2, 73, 100
1, 131520, Note_on_c, 2, 80, 100
1, 131520, Note_on_c, 3, 73, 100
1, 131520, Note_on_c, 3, 76, 100
1, 131520, Note_on_c, 4, 80, 100
1, 131520, Note_on_c, 5, 73, 100
1, 131520, Note_on_c, 7, 64, 69
1, 131520, Note_on_c, 7, 69, 70
1, 131520, Note_on_c, 7, 76, 73
1, 131520, Note_on_c, 8, 57, 100
1, 131520, Note_on_c, 8, 61, 100
1, 131520, Note_on_c, 13, 42, 100
1, 131520, Note_on_c, 13, 49, 100
1, 131646, Note_off_c, 1, 69, 0
1, 131740, Note_off_c, 7, 69, 0
1, 131762, Note_off_c, 7, 76, 0
1, 131772, Note_off_c, 7, 64, 0
1, 131802, Note_on_c, 10, 64, 67
1, 131802, Note_on_c, 10, 69, 67
1, 131802, Note_on_c, 10, 76, 72
1, 131812, Note_off_c, 8, 57, 0
1, 131812, Note_off_c, 8, 61, 0
1, 131812, Note_off_c, 13, 42, 0
1, 131812, Note_off_c, 13, 49, 0
1, 131992, Note_off_c, 0, 61, 64
1, 131992, Note_off_c, 0, 68, 64
1, 131992, Note_off_c, 2, 73, 64
1, 131992, Note_off_c, 2, 80, 64
1, 131992, Note_off_c, 3, 73, 64
1, 131992, Note_off_c, 3, 76, 64
1, 131992, Note_off_c, 4, 80, 0
1, 131992, Note_off_c, 5, 73, 0
1, 132000, Note_on_c, 6, 64, 68
1, 132000, Note_on_c, 6, 69, 66
1, 132000, Note_on_c, 6, 76, 70
1, 132000, Note_on_c, 8, 42, 100
1, 132000, Note_on_c, 8, 49, 100
1, 132000, Note_on_c, 13, 57, 100
1, 132000, Note_on_c, 13, 61, 100
1, 132048, Note_off_c, 10, 64, 0
1, 132052, Note_off_c, 10, 69, 0
1, 132068, Note_off_c, 10, 76, 0
1, 132196, Note_off_c, 6, 69, 0
1, 132220, Note_off_c, 6, 64, 0
1, 132226, Note_off_c, 1, 64, 0
1, 132238, Note_off_c, 6, 76, 0
1, 132292, Note_off_c, 8, 42, 0
1, 132292, Note_off_c, 8, 49, 0
1, 132292, Note_off_c, 13, 57, 0
1, 132292, Note_off_c, 13, 61, 0
1, 132480, Note_on_c, 0, 59, 100
1, 132480, Note_on_c, 0, 66, 100
1, 132480, Note_on_c, 1, 66, 68
1, 132480, Note_on_c, 2, 71, 100
1, 132480, Note_on_c, 2, 78, 100
1, 132480, Note_on_c, 3, 71, 100
1, 132480, Note_on_c, 3, 76, 100
1, 132480, Note_on_c, 4, 78, 100
1, 132480, Note_on_c, 5, 71, 100
1, 132480, Note_on_c, 7, 64, 69
1, 132480, Note_on_c, 7, 69, 75
1, 132480, Note_on_c, 7, 76, 73
1, 132480, Note_on_c, 8, 59, 100
1, 132480, Note_on_c, 8, 61, 100
1, 132480, Note_on_c, 13, 44, 100
1, 132480, Note_on_c, 13, 49, 100
1, 132694, Note_off_c, 7, 69, 0
1, 132710, Note_off_c, 7, 64, 0
1, 132724, Note_off_c, 7, 76, 0
1, 132762, Note_on_c, 10, 64, 67
1, 132762, Note_on_c, 10, 69, 63
1, 132762, Note_on_c, 10, 76, 72
1, 132772, Note_off_c, 8, 59, 0
1, 132772, Note_off_c, 8, 61, 0
1, 132772, Note_off_c, 13, 44, 0
1, 132772, Note_off_c, 13, 49, 0
1, 132952, Note_off_c, 0, 59, 64
1, 132952, Note_off_c, 0, 66, 64
1, 132952, Note_off_c, 2, 71, 64
1, 132952, Note_off_c, 2, 78, 64
1, 132952, Note_off_c, 3, 71, 64
1, 132952, Note_off_c, 3, 76, 64
1, 132952, Note_off_c, 4, 78, 0
1, 132952, Note_off_c, 5, 71, 0
1, 132960, Note_on_c, 0, 56, 100
1, 132960, Note_on_c, 0, 61, 100
1, 132960, Note_on_c, 1, 61, 68
1, 132960, Note_on_c, 2, 68, 100
1, 132960, Note_on_c, 2, 73, 100
1, 132960, Note_on_c, 3, 64, 100
1, 132960, Note_on_c, 3, 69, 100
1, 132960, Note_on_c, 4, 73, 100
1, 132960, Note_on_c, 5, 68, 100
1, 132960, Note_on_c, 6, 64, 68
1, 132960, Note_on_c, 6, 69, 63
1, 132960, Note_on_c, 6, 76, 72
1, 132960, Note_on_c, 8, 44, 100
1, 132960, Note_on_c, 8, 49, 100
1, 132960, Note_on_c, 13, 59, 100
1, 132960, Note_on_c, 13, 61, 100
1, 132996, Note_off_c, 1, 66, 0
1, 133010, Note_off_c, 10, 69, 0
1, 133038, Note_off_c, 10, 64, 0
1, 133054, Note_off_c, 10, 76, 0
1, 133170, Note_off_c, 6, 64, 0
1, 133204, Note_off_c, 6, 76, 0
1, 133222, Note_off_c, 6, 69, 0
1, 133252, Note_off_c, 8, 44, 0
1, 133252, Note_off_c, 8, 49, 0
1, 133252, Note_off_c, 13, 59, 0
1, 133252, Note_off_c, 13, 61, 0
1, 133432, Note_off_c, 0, 56, 64
1, 133432, Note_off_c, 0, 61, 64
1, 133432, Note_off_c, 2, 68, 64
1, 133432, Note_off_c, 2, 73, 64
1, 133432, Note_off_c, 3, 64, 64
1, 133432, Note_off_c, 3, 69, 64
1, 133432, Note_off_c, 4, 73, 0
1, 133432, Note_off_c, 5, 68, 0
1, 133440, Note_on_c, 7, 64, 68
1, 133440, Note_on_c, 7, 69, 74
1, 133440, Note_on_c, 7, 76, 74
1, 133440, Note_on_c, 8, 59, 100
1, 133440, Note_on_c, 8, 61, 100
1, 133440, Note_on_c, 13, 44, 100
1, 133440, Note_on_c, 13, 49, 100
1, 133664, Note_off_c, 7, 69, 0
1, 133704, Note_off_c, 7, 64, 0
1, 133714, Note_off_c, 7, 76, 0
1, 133722, Note_on_c, 10, 64, 68
1, 133722, Note_on_c, 10, 69, 66
1, 133722, Note_on_c, 10, 76, 70
1, 133730, Note_off_c, 1, 61, 0
1, 133732, Note_off_c, 8, 59, 0
1, 133732, Note_off_c, 8, 61, 0
1, 133732, Note_off_c, 13, 44, 0
1, 133732, Note_off_c, 13, 49, 0
1, 133918, Note_off_c, 10, 69, 0
1, 133920, Note_on_c, 0, 57, 100
1, 133920, Note_on_c, 0, 64, 100
1, 133920, Note_on_c, 1, 69, 77
1, 133920, Note_on_c, 2, 69, 100
1, 133920, Note_on_c, 2, 76, 100
1, 133920, Note_on_c, 3, 71, 100
1, 133920, Note_on_c, 3, 76, 100
1, 133920, Note_on_c, 4, 76, 100
1, 133920, Note_on_c, 5, 69, 100
1, 133920, Note_on_c, 6, 64, 70
1, 133920, Note_on_c, 6, 69, 69
1, 133920, Note_on_c, 6, 76, 72
1, 133920, Note_on_c, 8, 44, 100
1, 133920, Note_on_c, 8, 49, 100
1, 133920, Note_on_c, 13, 59, 100
1, 133920, Note_on_c, 13, 61, 100
1, 133942, Note_off_c, 10, 64, 0
1, 133960, Note_off_c, 10, 76, 0
1, 134154, Note_off_c, 6, 69, 0
1, 134182, Note_off_c, 6, 64, 0
1, 134182, Note_off_c, 6, 76, 0
1, 134212, Note_off_c, 8, 44, 0
1, 134212, Note_off_c, 8, 49, 0
1, 134212, Note_off_c, 13, 59, 0
1, 134212, Note_off_c, 13, 61, 0
1, 134392, Note_off_c, 0, 57, 64
1, 134392, Note_off_c, 0, 64, 64
1, 134392, Note_off_c, 2, 69, 64
1, 134392, Note_off_c, 2, 76, 64
1, 134392, Note_off_c, 3, 71, 64
1, 134392, Note_off_c, 3, 76, 64
1, 134392, Note_off_c, 4, 76, 0
1, 134392, Note_off_c, 5, 69, 0
1, 134400, Note_on_c, 7, 64, 68
1, 134400, Note_on_c, 7, 69, 73
1, 134400, Note_on_c, 7, 76, 73
1, 134400, Note_on_c, 8, 59, 100
1, 134400, Note_on_c, 8, 61, 100
1, 134400, Note_on_c, 13, 44, 100
1, 134400, Note_on_c, 13, 49, 100
1, 134544, Note_off_c, 1, 69, 0
1, 134624, Note_off_c, 7, 64, 0
1, 134648, Note_off_c, 7, 69, 0
1, 134648, Note_off_c, 7, 76, 0
1, 134682, Note_on_c, 10, 64, 68
1, 134682, Note_on_c, 10, 69, 63
1, 134682, Note_on_c, 10, 76, 72
1, 134692, Note_off_c, 8, 59, 0
1, 134692, Note_off_c, 8, 61, 0
1, 134692, Note_off_c, 13, 44, 0
1, 134692, Note_off_c, 13, 49, 0
1, 134880, Note_on_c, 0, 59, 100
1, 134880, Note_on_c, 0, 66, 100
1, 134880, Note_on_c, 1, 64, 70
1, 134880, Note_on_c, 2, 71, 100
1, 134880, Note_on_c, 2, 78, 100
1, 134880, Note_on_c, 3, 73, 100
1, 134880, Note_on_c, 3, 76, 100
1, 134880, Note_on_c, 4, 78, 100
1, 134880, Note_on_c, 5, 71, 100
1, 134880, Note_on_c, 6, 64, 68
1, 134880, Note_on_c, 6, 69, 70
1, 134880, Note_on_c, 6, 76, 70
1, 134880, Note_on_c, 8, 44, 100
1, 134880, Note_on_c, 8, 49, 100
1, 134880, Note_on_c, 13, 59, 100
1, 134880, Note_on_c, 13, 61, 100
1, 134892, Note_off_c, 10, 64, 0
1, 134926, Note_off_c, 10, 76, 0
1, 134944, Note_off_c, 10, 69, 0
1, 135088, Note_off_c, 6, 64, 0
1, 135116, Note_off_c, 6, 69, 0
1, 135120, Note_off_c, 6, 76, 0
1, 135172, Note_off_c, 8, 44, 0
1, 135172, Note_off_c, 8, 49, 0
1, 135172, Note_off_c, 13, 59, 0
1, 135172, Note_off_c, 13, 61, 0
1, 135352, Note_off_c, 0, 59, 64
1, 135352, Note_off_c, 0, 66, 64
1, 135352, Note_off_c, 2, 71, 64
1, 135352, Note_off_c, 2, 78, 64
1, 135352, Note_off_c, 3, 73, 64
1, 135352, Note_off_c, 3, 76, 64
1, 135352, Note_off_c, 4, 78, 0
1, 135352, Note_off_c, 5, 71, 0
1, 135360, Note_on_c, 0, 56, 100
1, 135360, Note_on_c, 0, 61, 100
1, 135360, Note_on_c, 1, 66, 77
1, 135360, Note_on_c, 2, 68, 100
1, 135360, Note_on_c, 2, 73, 100
1, 135360, Note_on_c, 3, 64, 100
1, 135360, Note_on_c, 3, 69, 100
1, 135360, Note_on_c, 4, 73, 100
1, 135360, Note_on_c, 5, 68, 100
1, 135360, Note_on_c, 7, 64, 66
1, 135360, Note_on_c, 7, 69, 74
1, 135360, Note_on_c, 7, 76, 73
1, 135360, Note_on_c, 8, 57, 100
1, 135360, Note_on_c, 8, 61, 100
1, 135360, Note_on_c, 13, 42, 100
1, 135360, Note_on_c, 13, 49, 100
1, 135512, Note_off_c, 1, 64, 0
1, 135594, Note_off_c, 7, 64, 0
1, 135614, Note_off_c, 7, 76, 0
1, 135642, Note_off_c, 7, 69, 0
1, 135642, Note_on_c, 10, 64, 70
1, 135642, Note_on_c, 10, 69, 69
1, 135642, Note_on_c, 10, 76, 72
1, 135652, Note_off_c, 8, 57, 0
1, 135652, Note_off_c, 8, 61, 0
1, 135652, Note_off_c, 13, 42, 0
1, 135652, Note_off_c, 13, 49, 0
1, 135832, Note_off_c, 0, 56, 64
1, 135832, Note_off_c, 0, 61, 64
1, 135832, Note_off_c, 2, 68, 64
1, 135832, Note_off_c, 2, 73, 64
1, 135832, Note_off_c, 3, 64, 64
1, 135832, Note_off_c, 3, 69, 64
1, 135832, Note_off_c, 4, 73, 0
1, 135832, Note_off_c, 5, 68, 0
1, 135840, Note_on_c, 6, 64, 67
1, 135840, Note_on_c, 6, 69, 73
1, 135840, Note_on_c, 6, 76, 74
1, 135840, Note_on_c, 8, 42, 100
1, 135840, Note_on_c, 8, 49, 100
1, 135840, Note_on_c, 13, 57, 100
1, 135840, Note_on_c, 13, 61, 100
1, 135876, Note_off_c, 10, 69, 0
1, 135904, Note_off_c, 10, 64, 0
1, 135904, Note_off_c, 10, 76, 0
1, 136004, Note_off_c, 1, 66, 0
1, 136056, Note_off_c, 6, 64, 0
1, 136076, Note_off_c, 6, 76, 0
1, 136086, Note_off_c, 6, 69, 0
1, 136132, Note_off_c, 8, 42, 0
1, 136132, Note_off_c, 8, 49, 0
1, 136132, Note_off_c, 13, 57, 0
1, 136132, Note_off_c, 13, 61, 0
1, 136320, Note_on_c, 0, 56, 100
1, 136320, Note_on_c, 0, 61, 100
1, 136320, Note_on_c, 1, 59, 65
1, 136320, Note_on_c, 2, 68, 100
1, 136320, Note_on_c, 2, 73, 100
1, 136320, Note_on_c, 3, 71, 100
1, 136320, Note_on_c, 3, 76, 100
1, 136320, Note_on_c, 4, 73, 100
1, 136320, Note_on_c, 5, 68, 100
1, 136320, Note_on_c, 7, 64, 66
1, 136320, Note_on_c, 7, 69, 77
1, 136320, Note_on_c, 7, 76, 70
1, 136320, Note_on_c, 8, 57, 100
1, 136320, Note_on_c, 8, 61, 100
1, 136320, Note_on_c, 13, 42, 100
1, 136320, Note_on_c, 13, 49, 100
1, 136548, Note_off_c, 7, 64, 0
1, 136602, Note_on_c, 10, 64, 68
1, 136602, Note_on_c, 10, 69, 70
1, 136602, Note_on_c, 10, 76, 70
1, 136606, Note_off_c, 7, 69, 0
1, 136612, Note_off_c, 8, 57, 0
1, 136612, Note_off_c, 8, 61, 0
1, 136612, Note_off_c, 13, 42, 0
1, 136612, Note_off_c, 13, 49, 0
1, 136630, Note_off_c, 7, 76, 0
1, 136792, Note_off_c, 0, 56, 64
1, 136792, Note_off_c, 0, 61, 64
1, 136792, Note_off_c, 2, 68, 64
1, 136792, Note_off_c, 2, 73, 64
1, 136792, Note_off_c, 3, 71, 64
1, 136792, Note_off_c, 3, 76, 64
1, 136792, Note_off_c, 4, 73, 0
1, 136792, Note_off_c, 5, 68, 0
1, 136800, Note_on_c, 0, 57, 100
1, 136800, Note_on_c, 0, 64, 100
1, 136800, Note_on_c, 1, 69, 74
1, 136800, Note_on_c, 2, 69, 100
1, 136800, Note_on_c, 2, 76, 100
1, 136800, Note_on_c, 3, 66, 100
1, 136800, Note_on_c, 3, 69, 100
1, 136800, Note_on_c, 4, 76, 100
1, 136800, Note_on_c, 5, 69, 100
1, 136800, Note_on_c, 6, 64, 68
1, 136800, Note_on_c, 6, 69, 74
1, 136800, Note_on_c, 6, 76, 75
1, 136800, Note_on_c, 8, 42, 100
1, 136800, Note_on_c, 8, 49, 100
1, 136800, Note_on_c, 13, 57, 100
1, 136800, Note_on_c, 13, 61, 100
1, 136810, Note_off_c, 10, 64, 0
1, 136838, Note_off_c, 10, 69, 0
1, 136842, Note_off_c, 10, 76, 0
1, 136894, Note_off_c, 1, 59, 0
1, 137072, Note_off_c, 6, 69, 0
1, 137076, Note_off_c, 6, 64, 0
1, 137090, Note_off_c, 6, 76, 0
1, 137092, Note_off_c, 8, 42, 0
1, 137092, Note_off_c, 8, 49, 0
1, 137092, Note_off_c, 13, 57, 0
1, 137092, Note_off_c, 13, 61, 0
1, 137272, Note_off_c, 0, 57, 64
1, 137272, Note_off_c, 0, 64, 64
1, 137272, Note_off_c, 2, 69, 64
1, 137272, Note_off_c, 2, 76, 64
1, 137272, Note_off_c, 3, 66, 64
1, 137272, Note_off_c, 3, 69, 64
1, 137272, Note_off_c, 4, 76, 0
1, 137272, Note_off_c, 5, 69, 0
1, 137280, Note_on_c, 0, 61, 100
1, 137280, Note_on_c, 0, 68, 100
1, 137280, Note_on_c, 1, 64, 68
1, 137280, Note_on_c, 2, 73, 100
1, 137280, Note_on_c, 2, 80, 100
1, 137280, Note_on_c, 3, 73, 100
1, 137280, Note_on_c, 3, 76, 100
1, 137280, Note_on_c, 4, 80, 100
1, 137280, Note_on_c, 5, 73, 100
1, 137280, Note_on_c, 7, 64, 65
1, 137280, Note_on_c, 7, 69, 72
1, 137280, Note_on_c, 7, 76, 72
1, 137280, Note_on_c, 8, 59, 100
1, 137280, Note_on_c, 8, 61, 100
1, 137280, Note_on_c, 13, 44, 100
1, 137280, Note_on_c, 13, 49, 100
1, 137492, Note_off_c, 1, 69, 0
1, 137556, Note_off_c, 7, 64, 0
1, 137562, Note_on_c, 10, 64, 67
1, 137562, Note_on_c, 10, 69, 73
1, 137562, Note_on_c, 10, 76, 74
1, 137570, Note_off_c, 7, 69, 0
1, 137572, Note_off_c, 7, 76, 0
1, 137572, Note_off_c, 8, 59, 0
1, 137572, Note_off_c, 8, 61, 0
1, 137572, Note_off_c, 13, 44, 0
1, 137572, Note_off_c, 13, 49, 0
1, 137752, Note_off_c, 0, 61, 64
1, 137752, Note_off_c, 0, 68, 64
1, 137752, Note_off_c, 2, 73, 64
1, 137752, Note_off_c, 2, 80, 64
1, 137752, Note_off_c, 3, 73, 64
1, 137752, Note_off_c, 3, 76, 64
1, 137752, Note_off_c, 4, 80, 0
1, 137752, Note_off_c, 5, 73, 0
1, 137760, Note_on_c, 6, 64, 73
1, 137760, Note_on_c, 6, 69, 80
1, 137760, Note_on_c, 6, 76, 77
1, 137760, Note_on_c, 8, 44, 100
1, 137760, Note_on_c, 8, 49, 100
1, 137760, Note_on_c, 13, 59, 100
1, 137760, Note_on_c, 13, 61, 100
1, 137778, Note_off_c, 10, 64, 0
1, 137798, Note_off_c, 10, 76, 0
1, 137808, Note_off_c, 10, 69, 0
1, 137894, Note_off_c, 1, 64, 0
1, 138022, Note_off_c, 6, 64, 0
1, 138038, Note_off_c, 6, 69, 0
1, 138048, Note_off_c, 6, 76, 0
1, 138052, Note_off_c, 8, 44, 0
1, 138052, Note_off_c, 8, 49, 0
1, 138052, Note_off_c, 13, 59, 0
1, 138052, Note_off_c, 13, 61, 0
1, 138240, Note_on_c, 1, 66, 77
1, 138240, Note_on_c, 3, 71, 100
1, 138240, Note_on_c, 3, 76, 100
1, 138240, Note_on_c, 7, 64, 67
1, 138240, Note_on_c, 7, 69, 75
1, 138240, Note_on_c, 7, 76, 70
1, 138240, Note_on_c, 8, 59, 100
1, 138240, Note_on_c, 8, 61, 100
1, 138240, Note_on_c, 13, 44, 100
1, 138240, Note_on_c, 13, 49, 100
1, 138470, Note_off_c, 7, 69, 0
1, 138488, Note_off_c, 7, 64, 0
1, 138498, Note_off_c, 7, 76, 0
1, 138522, Note_on_c, 10, 64, 68
1, 138522, Note_on_c, 10, 69, 74
1, 138522, Note_on_c, 10, 76, 75
1, 138532, Note_off_c, 8, 59, 0
1, 138532, Note_off_c, 8, 61, 0
1, 138532, Note_off_c, 13, 44, 0
1, 138532, Note_off_c, 13, 49, 0
1, 138712, Note_off_c, 3, 71, 64
1, 138712, Note_off_c, 3, 76, 64
1, 138720, Note_on_c, 1, 61, 70
1, 138720, Note_on_c, 3, 64, 100
1, 138720, Note_on_c, 3, 69, 100
1, 138720, Note_on_c, 6, 64, 68
1, 138720, Note_on_c, 6, 69, 70
1, 138720, Note_on_c, 6, 76, 74
1, 138720, Note_on_c, 8, 44, 100
1, 138720, Note_on_c, 8, 49, 100
1, 138720, Note_on_c, 13, 59, 100
1, 138720, Note_on_c, 13, 61, 100
1, 138794, Note_off_c, 10, 69, 0
1, 138798, Note_off_c, 10, 64, 0
1, 138812, Note_off_c, 10, 76, 0
1, 138882, Note_off_c, 1, 66, 0
1, 139006, Note_off_c, 6, 64, 0
1, 139012, Note_off_c, 8, 44, 0
1, 139012, Note_off_c, 8, 49, 0
1, 139012, Note_off_c, 13, 59, 0
1, 139012, Note_off_c, 13, 61, 0
1, 139018, Note_off_c, 6, 69, 0
1, 139018, Note_off_c, 6, 76, 0
1, 139192, Note_off_c, 3, 64, 64
1, 139192, Note_off_c, 3, 69, 64
1, 139200, Note_on_c, 7, 64, 66
1, 139200, Note_on_c, 7, 69, 68
1, 139200, Note_on_c, 7, 76, 72
1, 139200, Note_on_c, 8, 59, 100
1, 139200, Note_on_c, 8, 61, 100
1, 139200, Note_on_c, 13, 44, 100
1, 139200, Note_on_c, 13, 49, 100
1, 139348, Note_off_c, 1, 61, 0
1, 139460, Note_off_c, 7, 69, 0
1, 139470, Note_off_c, 7, 64, 0
1, 139474, Note_off_c, 7, 76, 0
1, 139482, Note_on_c, 10, 64, 73
1, 139482, Note_on_c, 10, 69, 80
1, 139482, Note_on_c, 10, 76, 77
1, 139492, Note_off_c, 8, 59, 0
1, 139492, Note_off_c, 8, 61, 0
1, 139492, Note_off_c, 13, 44, 0
1, 139492, Note_off_c, 13, 49, 0
1, 139680, Note_on_c, 1, 69, 77
1, 139680, Note_on_c, 3, 71, 100
1, 139680, Note_on_c, 3, 76, 100
1, 139680, Note_on_c, 6, 64, 70
1, 139680, Note_on_c, 6, 69, 74
1, 139680, Note_on_c, 6, 76, 74
1, 139680, Note_on_c, 8, 44, 100
1, 139680, Note_on_c, 8, 49, 100
1, 139680, Note_on_c, 13, 59, 100
1, 139680, Note_on_c, 13, 61, 100
1, 139744, Note_off_c, 10, 64, 0
1, 139760, Note_off_c, 10, 69, 0
1, 139770, Note_off_c, 10, 76, 0
1, 139884, Note_off_c, 6, 64, 0
1, 139914, Note_off_c, 6, 76, 0
1, 139952, Note_off_c, 6, 69, 0
1, 139972, Note_off_c, 8, 44, 0
1, 139972, Note_off_c, 8, 49, 0
1, 139972, Note_off_c, 13, 59, 0
1, 139972, Note_off_c, 13, 61, 0
1, 140152, Note_off_c, 3, 71, 64
1, 140152, Note_off_c, 3, 76, 64
1, 140160, Note_on_c, 7, 64, 62
1, 140160, Note_on_c, 7, 69, 60
1, 140160, Note_on_c, 7, 76, 70
1, 140160, Note_on_c, 8, 59, 100
1, 140160, Note_on_c, 8, 61, 100
1, 140160, Note_on_c, 13, 44, 100
1, 140160, Note_on_c, 13, 49, 100
1, 140328, Note_off_c, 1, 69, 0
1, 140420, Note_off_c, 7, 69, 0
1, 140438, Note_off_c, 7, 64, 0
1, 140442, Note_on_c, 10, 64, 68
1, 140442, Note_on_c, 10, 69, 70
1, 140442, Note_on_c, 10, 76, 74
1, 140452, Note_off_c, 8, 59, 0
1, 140452, Note_off_c, 8, 61, 0
1, 140452, Note_off_c, 13, 44, 0
1, 140452, Note_off_c, 13, 49, 0
1, 140498, Note_off_c, 7, 76, 0
1, 140640, Note_on_c, 1, 64, 68
1, 140640, Note_on_c, 3, 73, 100
1, 140640, Note_on_c, 3, 76, 100
1, 140640, Note_on_c, 6, 64, 68
1, 140640, Note_on_c, 6, 69, 68
1, 140640, Note_on_c, 6, 76, 72
1, 140640, Note_on_c, 8, 44, 100
1, 140640, Note_on_c, 8, 49, 100
1, 140640, Note_on_c, 13, 59, 100
1, 140640, Note_on_c, 13, 61, 100
1, 140728, Note_off_c, 10, 64, 0
1, 140740, Note_off_c, 10, 69, 0
1, 140740, Note_off_c, 10, 76, 0
1, 140846, Note_off_c, 6, 69, 0
1, 140854, Note_off_c, 6, 64, 0
1, 140864, Note_off_c, 6, 76, 0
1, 140932, Note_off_c, 8, 44, 0
1, 140932, Note_off_c, 8, 49, 0
1, 140932, Note_off_c, 13, 59, 0
1, 140932, Note_off_c, 13, 61, 0
1, 141084, Note_off_c, 1, 64, 0
1, 141112, Note_off_c, 3, 73, 64
1, 141112, Note_off_c, 3, 76, 64
1, 141120, Note_on_c, 0, 54, 100
1, 141120, Note_on_c, 0, 59, 100
1, 141120, Note_on_c, 1, 66, 78
1, 141120, Note_on_c, 2, 66, 100
1, 141120, Note_on_c, 2, 71, 100
1, 141120, Note_on_c, 3, 64, 100
1, 141120, Note_on_c, 3, 69, 100
1, 141120, Note_on_c, 4, 71, 100
1, 141120, Note_on_c, 5, 66, 100
1, 141120, Note_on_c, 7, 64, 56
1, 141120, Note_on_c, 7, 69, 69
1, 141120, Note_on_c, 7, 76, 73
1, 141120, Note_on_c, 8, 57, 100
1, 141120, Note_on_c, 8, 61, 100
1, 141120, Note_on_c, 13, 42, 100
1, 141120, Note_on_c, 13, 49, 100
1, 141120, Note_on_c, 14, 68, 100
1, 141120, Note_on_c, 14, 88, 100
1, 141172, Note_off_c, 4, 71, 0
1, 141386, Note_off_c, 7, 64, 0
1, 141402, Note_on_c, 10, 64, 70
1, 141402, Note_on_c, 10, 69, 74
1, 141402, Note_on_c, 10, 76, 74
1, 141412, Note_off_c, 8, 57, 0
1, 141412, Note_off_c, 8, 61, 0
1, 141412, Note_off_c, 13, 42, 0
1, 141412, Note_off_c, 13, 49, 0
1, 141414, Note_off_c, 7, 69, 0
1, 141422, Note_off_c, 7, 76, 0
1, 141472, Note_off_c, 5, 66, 0
1, 141592, Note_off_c, 0, 54, 64
1, 141592, Note_off_c, 0, 59, 64
1, 141592, Note_off_c, 2, 66, 64
1, 141592, Note_off_c, 2, 71, 64
1, 141592, Note_off_c, 3, 64, 64
1, 141592, Note_off_c, 3, 69, 64
1, 141600, Note_on_c, 6, 64, 70
1, 141600, Note_on_c, 6, 69, 70
1, 141600, Note_on_c, 6, 76, 75
1, 141600, Note_on_c, 8, 42, 100
1, 141600, Note_on_c, 8, 49, 100
1, 141600, Note_on_c, 13, 57, 100
1, 141600, Note_on_c, 13, 61, 100
1, 141606, Note_off_c, 10, 64, 0
1, 141636, Note_off_c, 10, 76, 0
1, 141674, Note_off_c, 10, 69, 0
1, 141788, Note_off_c, 1, 66, 0
1, 141828, Note_off_c, 6, 69, 0
1, 141870, Note_off_c, 6, 64, 0
1, 141892, Note_off_c, 8, 42, 0
1, 141892, Note_off_c, 8, 49, 0
1, 141892, Note_off_c, 13, 57, 0
1, 141892, Note_off_c, 13, 61, 0
1, 141908, Note_off_c, 6, 76, 0
1, 142080, Note_on_c, 0, 56, 100
1, 142080, Note_on_c, 0, 61, 100
1, 142080, Note_on_c, 1, 59, 74
1, 142080, Note_on_c, 2, 68, 100
1, 142080, Note_on_c, 2, 73, 100
1, 142080, Note_on_c, 3, 71, 100
1, 142080, Note_on_c, 3, 76, 100
1, 142080, Note_on_c, 4, 73, 100
1, 142080, Note_on_c, 5, 68, 100
1, 142080, Note_on_c, 7, 64, 66
1, 142080, Note_on_c, 7, 69, 70
1, 142080, Note_on_c, 7, 76, 75
1, 142080, Note_on_c, 8, 57, 100
1, 142080, Note_on_c, 8, 61, 100
1, 142080, Note_on_c, 13, 42, 100
1, 142080, Note_on_c, 13, 49, 100
1, 142330, Note_off_c, 7, 69, 0
1, 142344, Note_off_c, 7, 64, 0
1, 142362, Note_on_c, 10, 64, 68
1, 142362, Note_on_c, 10, 69, 68
1, 142362, Note_on_c, 10, 76, 72
1, 142370, Note_off_c, 7, 76, 0
1, 142372, Note_off_c, 8, 57, 0
1, 142372, Note_off_c, 8, 61, 0
1, 142372, Note_off_c, 13, 42, 0
1, 142372, Note_off_c, 13, 49, 0
1, 142552, Note_off_c, 0, 56, 64
1, 142552, Note_off_c, 0, 61, 64
1, 142552, Note_off_c, 2, 68, 64
1, 142552, Note_off_c, 2, 73, 64
1, 142552, Note_off_c, 3, 71, 64
1, 142552, Note_off_c, 3, 76, 64
1, 142552, Note_off_c, 4, 73, 0
1, 142552, Note_off_c, 5, 68, 0
1, 142560, Note_on_c, 0, 57, 100
1, 142560, Note_on_c, 0, 64, 100
1, 142560, Note_on_c, 1, 69, 75
1, 142560, Note_on_c, 2, 69, 100
1, 142560, Note_on_c, 2, 76, 100
1, 142560, Note_on_c, 3, 66, 100
1, 142560, Note_on_c, 3, 69, 100
1, 142560, Note_on_c, 4, 76, 100
1, 142560, Note_on_c, 5, 69, 100
1, 142560, Note_on_c, 6, 64, 69
1, 142560, Note_on_c, 6, 69, 69
1, 142560, Note_on_c, 6, 76, 73
1, 142560, Note_on_c, 8, 42, 100
1, 142560, Note_on_c, 8, 49, 100
1, 142560, Note_on_c, 13, 57, 100
1, 142560, Note_on_c, 13, 61, 100
1, 142568, Note_off_c, 1, 59, 0
1, 142568, Note_off_c, 10, 69, 0
1, 142576, Note_off_c, 10, 64, 0
1, 142586, Note_off_c, 10, 76, 0
1, 142826, Note_off_c, 6, 64, 0
1, 142852, Note_off_c, 8, 42, 0
1, 142852, Note_off_c, 8, 49, 0
1, 142852, Note_off_c, 13, 57, 0
1, 142852, Note_off_c, 13, 61, 0
1, 142864, Note_off_c, 6, 69, 0
1, 142864, Note_off_c, 6, 76, 0
1, 143032, Note_off_c, 0, 57, 64
1, 143032, Note_off_c, 0, 64, 64
1, 143032, Note_off_c, 2, 69, 64
1, 143032, Note_off_c, 2, 76, 64
1, 143032, Note_off_c, 3, 66, 64
1, 143032, Note_off_c, 3, 69, 64
1, 143032, Note_off_c, 4, 76, 0
1, 143032, Note_off_c, 5, 69, 0
1, 143040, Note_on_c, 0, 61, 100
1, 143040, Note_on_c, 0, 68, 100
1, 143040, Note_on_c, 1, 64, 73
1, 143040, Note_on_c, 2, 73, 100
1, 143040, Note_on_c, 2, 80, 100
1, 143040, Note_on_c, 3, 73, 100
1, 143040, Note_on_c, 3, 76, 100
1, 143040, Note_on_c, 4, 80, 100
1, 143040, Note_on_c, 5, 73, 100
1, 143040, Note_on_c, 7, 64, 66
1, 143040, Note_on_c, 7, 69, 70
1, 143040, Note_on_c, 7, 76, 75
1, 143040, Note_on_c, 8, 57, 100
1, 143040, Note_on_c, 8, 61, 100
1, 143040, Note_on_c, 13, 42, 100
1, 143040, Note_on_c, 13, 49, 100
1, 143166, Note_off_c, 1, 69, 0
1, 143290, Note_off_c, 7, 69, 0
1, 143304, Note_off_c, 7, 64, 0
1, 143322, Note_on_c, 10, 64, 70
1, 143322, Note_on_c, 10, 69, 70
1, 143322, Note_on_c, 10, 76, 75
1, 143330, Note_off_c, 7, 76, 0
1, 143332, Note_off_c, 8, 57, 0
1, 143332, Note_off_c, 8, 61, 0
1, 143332, Note_off_c, 13, 42, 0
1, 143332, Note_off_c, 13, 49, 0
1, 143512, Note_off_c, 0, 61, 64
1, 143512, Note_off_c, 0, 68, 64
1, 143512, Note_off_c, 2, 73, 64
1, 143512, Note_off_c, 2, 80, 64
1, 143512, Note_off_c, 3, 73, 64
1, 143512, Note_off_c, 3, 76, 64
1, 143512, Note_off_c, 4, 80, 0
1, 143512, Note_off_c, 5, 73, 0
1, 143520, Note_on_c, 6, 64, 67
1, 143520, Note_on_c, 6, 69, 63
1, 143520, Note_on_c, 6, 76, 74
1, 143520, Note_on_c, 8, 42, 100
1, 143520, Note_on_c, 8, 49, 100
1, 143520, Note_on_c, 13, 57, 100
1, 143520, Note_on_c, 13, 61, 100
1, 143550, Note_off_c, 10, 69, 0
1, 143592, Note_off_c, 10, 64, 0
1, 143630, Note_off_c, 10, 76, 0
1, 143724, Note_off_c, 6, 69, 0
1, 143746, Note_off_c, 1, 64, 0
1, 143786, Note_off_c, 6, 64, 0
1, 143786, Note_off_c, 6, 76, 0
1, 143812, Note_off_c, 8, 42, 0
1, 143812, Note_off_c, 8, 49, 0
1, 143812, Note_off_c, 13, 57, 0
1, 143812, Note_off_c, 13, 61, 0
1, 143992, Note_off_c, 14, 68, 0
1, 143992, Note_off_c, 14, 88, 0
1, 144000, Note_on_c, 0, 59, 100
1, 144000, Note_on_c, 0, 66, 100
1, 144000, Note_on_c, 1, 66, 68
1, 144000, Note_on_c, 2, 71, 100
1, 144000, Note_on_c, 2, 78, 100
1, 144000, Note_on_c, 3, 71, 100
1, 144000, Note_on_c, 3, 76, 100
1, 144000, Note_on_c, 4, 78, 100
1, 144000, Note_on_c, 5, 71, 100
1, 144000, Note_on_c, 7, 64, 72
1, 144000, Note_on_c, 7, 69, 80
1, 144000, Note_on_c, 7, 76, 77
1, 144000, Note_on_c, 8, 59, 100
1, 144000, Note_on_c, 8, 61, 100
1, 144000, Note_on_c, 13, 44, 100
1, 144000, Note_on_c, 13, 49, 100
1, 144000, Note_on_c, 14, 69, 100
1, 144000, Note_on_c, 14, 85, 100
1, 144240, Note_off_c, 7, 76, 0
1, 144250, Note_off_c, 7, 64, 0
1, 144250, Note_off_c, 7, 69, 0
1, 144282, Note_on_c, 10, 64, 69
1, 144282, Note_on_c, 10, 69, 69
1, 144282, Note_on_c, 10, 76, 73
1, 144292, Note_off_c, 8, 59, 0
1, 144292, Note_off_c, 8, 61, 0
1, 144292, Note_off_c, 13, 44, 0
1, 144292, Note_off_c, 13, 49, 0
1, 144472, Note_off_c, 0, 59, 64
1, 144472, Note_off_c, 0, 66, 64
1, 144472, Note_off_c, 2, 71, 64
1, 144472, Note_off_c, 2, 78, 64
1, 144472, Note_off_c, 3, 71, 64
1, 144472, Note_off_c, 3, 76, 64
1, 144472, Note_off_c, 4, 78, 0
1, 144472, Note_off_c, 5, 71, 0
1, 144480, Note_on_c, 0, 56, 100
1, 144480, Note_on_c, 0, 61, 100
1, 144480, Note_on_c, 1, 61, 68
1, 144480, Note_on_c, 2, 68, 100
1, 144480, Note_on_c, 2, 73, 100
1, 144480, Note_on_c, 3, 64, 100
1, 144480, Note_on_c, 3, 69, 100
1, 144480, Note_on_c, 4, 73, 100
1, 144480, Note_on_c, 5, 68, 100
1, 144480, Note_on_c, 6, 64, 66
1, 144480, Note_on_c, 6, 69, 63
1, 144480, Note_on_c, 6, 76, 74
1, 144480, Note_on_c, 8, 44, 100
1, 144480, Note_on_c, 8, 49, 100
1, 144480, Note_on_c, 13, 59, 100
1, 144480, Note_on_c, 13, 61, 100
1, 144516, Note_off_c, 1, 66, 0
1, 144548, Note_off_c, 10, 64, 0
1, 144586, Note_off_c, 10, 69, 0
1, 144586, Note_off_c, 10, 76, 0
1, 144710, Note_off_c, 6, 69, 0
1, 144716, Note_off_c, 6, 64, 0
1, 144754, Note_off_c, 6, 76, 0
1, 144772, Note_off_c, 8, 44, 0
1, 144772, Note_off_c, 8, 49, 0
1, 144772, Note_off_c, 13, 59, 0
1, 144772, Note_off_c, 13, 61, 0
1, 144952, Note_off_c, 0, 56, 64
1, 144952, Note_off_c, 0, 61, 64
1, 144952, Note_off_c, 2, 68, 64
1, 144952, Note_off_c, 2, 73, 64
1, 144952, Note_off_c, 3, 64, 64
1, 144952, Note_off_c, 3, 69, 64
1, 144952, Note_off_c, 4, 73, 0
1, 144952, Note_off_c, 5, 68, 0
1, 144960, Note_on_c, 7, 64, 70
1, 144960, Note_on_c, 7, 69, 77
1, 144960, Note_on_c, 7, 76, 77
1, 144960, Note_on_c, 8, 59, 100
1, 144960, Note_on_c, 8, 61, 100
1, 144960, Note_on_c, 13, 44, 100
1, 144960, Note_on_c, 13, 49, 100
1, 145214, Note_off_c, 7, 64, 0
1, 145242, Note_off_c, 7, 69, 0
1, 145242, Note_on_c, 10, 64, 67
1, 145242, Note_on_c, 10, 69, 63
1, 145242, Note_on_c, 10, 76, 74
1, 145250, Note_off_c, 1, 61, 0
1, 145250, Note_off_c, 7, 76, 0
1, 145252, Note_off_c, 8, 59, 0
1, 145252, Note_off_c, 8, 61, 0
1, 145252, Note_off_c, 13, 44, 0
1, 145252, Note_off_c, 13, 49, 0
1, 145440, Note_on_c, 0, 57, 100
1, 145440, Note_on_c, 0, 64, 100
1, 145440, Note_on_c, 1, 69, 77
1, 145440, Note_on_c, 2, 69, 100
1, 145440, Note_on_c, 2, 76, 100
1, 145440, Note_on_c, 3, 71, 100
1, 145440, Note_on_c, 3, 76, 100
1, 145440, Note_on_c, 4, 76, 100
1, 145440, Note_on_c, 5, 69, 100
1, 145440, Note_on_c, 6, 64, 68
1, 145440, Note_on_c, 6, 69, 74
1, 145440, Note_on_c, 6, 76, 74
1, 145440, Note_on_c, 8, 44, 100
1, 145440, Note_on_c, 8, 49, 100
1, 145440, Note_on_c, 13, 59, 100
1, 145440, Note_on_c, 13, 61, 100
1, 145446, Note_off_c, 10, 69, 0
1, 145508, Note_off_c, 10, 64, 0
1, 145508, Note_off_c, 10, 76, 0
1, 145700, Note_off_c, 6, 69, 0
1, 145730, Note_off_c, 6, 76, 0
1, 145732, Note_off_c, 8, 44, 0
1, 145732, Note_off_c, 8, 49, 0
1, 145732, Note_off_c, 13, 59, 0
1, 145732, Note_off_c, 13, 61, 0
1, 145734, Note_off_c, 6, 64, 0
1, 145912, Note_off_c, 0, 57, 64
1, 145912, Note_off_c, 0, 64, 64
1, 145912, Note_off_c, 2, 69, 64
1, 145912, Note_off_c, 2, 76, 64
1, 145912, Note_off_c, 3, 71, 64
1, 145912, Note_off_c, 3, 76, 64
1, 145912, Note_off_c, 4, 76, 0
1, 145912, Note_off_c, 5, 69, 0
1, 145920, Note_on_c, 7, 64, 70
1, 145920, Note_on_c, 7, 69, 73
1, 145920, Note_on_c, 7, 76, 74
1, 145920, Note_on_c, 8, 59, 100
1, 145920, Note_on_c, 8, 61, 100
1, 145920, Note_on_c, 13, 44, 100
1, 145920, Note_on_c, 13, 49, 100
1, 146064, Note_off_c, 1, 69, 0
1, 146160, Note_off_c, 7, 64, 0
1, 146166, Note_off_c, 7, 69, 0
1, 146180, Note_off_c, 7, 76, 0
1, 146202, Note_on_c, 10, 64, 66
1, 146202, Note_on_c, 10, 69, 63
1, 146202, Note_on_c, 10, 76, 74
1, 146212, Note_off_c, 8, 59, 0
1, 146212, Note_off_c, 8, 61, 0
1, 146212, Note_off_c, 13, 44, 0
1, 146212, Note_off_c, 13, 49, 0
1, 146400, Note_on_c, 0, 59, 100
1, 146400, Note_on_c, 0, 66, 100
1, 146400, Note_on_c, 1, 64, 70
1, 146400, Note_on_c, 2, 71, 100
1, 146400, Note_on_c, 2, 78, 100
1, 146400, Note_on_c, 3, 73, 100
1, 146400, Note_on_c, 3, 76, 100
1, 146400, Note_on_c, 4, 78, 100
1, 146400, Note_on_c, 5, 71, 100
1, 146400, Note_on_c, 6, 64, 73
1, 146400, Note_on_c, 6, 69, 82
1, 146400, Note_on_c, 6, 76, 77
1, 146400, Note_on_c, 8, 44, 100
1, 146400, Note_on_c, 8, 49, 100
1, 146400, Note_on_c, 13, 59, 100
1, 146400, Note_on_c, 13, 61, 100
1, 146432, Note_off_c, 10, 69, 0
1, 146438, Note_off_c, 10, 64, 0
1, 146476, Note_off_c, 10, 76, 0
1, 146678, Note_off_c, 6, 69, 0
1, 146690, Note_off_c, 6, 64, 0
1, 146692, Note_off_c, 8, 44, 0
1, 146692, Note_off_c, 8, 49, 0
1, 146692, Note_off_c, 13, 59, 0
1, 146692, Note_off_c, 13, 61, 0
1, 146698, Note_off_c, 6, 76, 0
1, 146872, Note_off_c, 0, 59, 64
1, 146872, Note_off_c, 0, 66, 64
1, 146872, Note_off_c, 2, 71, 64
1, 146872, Note_off_c, 2, 78, 64
1, 146872, Note_off_c, 3, 73, 64
1, 146872, Note_off_c, 3, 76, 64
1, 146872, Note_off_c, 4, 78, 0
1, 146872, Note_off_c, 5, 71, 0
1, 146872, Note_off_c, 14, 69, 0
1, 146872, Note_off_c, 14, 85, 0
1, 146880, Note_on_c, 0, 56, 100
1, 146880, Note_on_c, 0, 61, 100
1, 146880, Note_on_c, 1, 66, 77
1, 146880, Note_on_c, 2, 68, 100
1, 146880, Note_on_c, 2, 73, 100
1, 146880, Note_on_c, 3, 64, 100
1, 146880, Note_on_c, 3, 69, 100
1, 146880, Note_on_c, 4, 73, 100
1, 146880, Note_on_c, 5, 68, 100
1, 146880, Note_on_c, 7, 64, 72
1, 146880, Note_on_c, 7, 69, 77
1, 146880, Note_on_c, 7, 76, 75
1, 146880, Note_on_c, 8, 57, 100
1, 146880, Note_on_c, 8, 61, 100
1, 146880, Note_on_c, 13, 42, 100
1, 146880, Note_on_c, 13, 49, 100
1, 146880, Note_on_c, 14, 68, 100
1, 146880, Note_on_c, 14, 83, 100
1, 147032, Note_off_c, 1, 64, 0
1, 147088, Note_off_c, 7, 69, 0
1, 147102, Note_off_c, 7, 64, 0
1, 147122, Note_off_c, 7, 76, 0
1, 147162, Note_on_c, 10, 64, 68
1, 147162, Note_on_c, 10, 69, 74
1, 147162, Note_on_c, 10, 76, 74
1, 147172, Note_off_c, 8, 57, 0
1, 147172, Note_off_c, 8, 61, 0
1, 147172, Note_off_c, 13, 42, 0
1, 147172, Note_off_c, 13, 49, 0
1, 147352, Note_off_c, 0, 56, 64
1, 147352, Note_off_c, 0, 61, 64
1, 147352, Note_off_c, 2, 68, 64
1, 147352, Note_off_c, 2, 73, 64
1, 147352, Note_off_c, 3, 64, 64
1, 147352, Note_off_c, 3, 69, 64
1, 147352, Note_off_c, 4, 73, 0
1, 147352, Note_off_c, 5, 68, 0
1, 147360, Note_on_c, 6, 64, 72
1, 147360, Note_on_c, 6, 69, 75
1, 147360, Note_on_c, 6, 76, 73
1, 147360, Note_on_c, 8, 42, 100
1, 147360, Note_on_c, 8, 49, 100
1, 147360, Note_on_c, 13, 57, 100
1, 147360, Note_on_c, 13, 61, 100
1, 147422, Note_off_c, 10, 69, 0
1, 147452, Note_off_c, 10, 76, 0
1, 147456, Note_off_c, 10, 64, 0
1, 147524, Note_off_c, 1, 66, 0
1, 147648, Note_off_c, 6, 76, 0
1, 147650, Note_off_c, 6, 69, 0
1, 147652, Note_off_c, 8, 42, 0
1, 147652, Note_off_c, 8, 49, 0
1, 147652, Note_off_c, 13, 57, 0
1, 147652, Note_off_c, 13, 61, 0
1, 147658, Note_off_c, 6, 64, 0
1, 147840, Note_on_c, 0, 56, 100
1, 147840, Note_on_c, 0, 61, 100
1, 147840, Note_on_c, 1, 59, 65
1, 147840, Note_on_c, 2, 68, 100
1, 147840, Note_on_c, 2, 73, 100
1, 147840, Note_on_c, 3, 71, 100
1, 147840, Note_on_c, 3, 76, 100
1, 147840, Note_on_c, 4, 73, 100
1, 147840, Note_on_c, 5, 68, 100
1, 147840, Note_on_c, 7, 64, 70
1, 147840, Note_on_c, 7, 69, 78
1, 147840, Note_on_c, 7, 76, 77
1, 147840, Note_on_c, 8, 57, 100
1, 147840, Note_on_c, 8, 61, 100
1, 147840, Note_on_c, 13, 42, 100
1, 147840, Note_on_c, 13, 49, 100
1, 148082, Note_off_c, 7, 64, 0
1, 148104, Note_off_c, 7, 76, 0
1, 148122, Note_on_c, 10, 64, 73
1, 148122, Note_on_c, 10, 69, 82
1, 148122, Note_on_c, 10, 76, 77
1, 148128, Note_off_c, 7, 69, 0
1, 148132, Note_off_c, 8, 57, 0
1, 148132, Note_off_c, 8, 61, 0
1, 148132, Note_off_c, 13, 42, 0
1, 148132, Note_off_c, 13, 49, 0
1, 148312, Note_off_c, 0, 56, 64
1, 148312, Note_off_c, 0, 61, 64
1, 148312, Note_off_c, 2, 68, 64
1, 148312, Note_off_c, 2, 73, 64
1, 148312, Note_off_c, 3, 71, 64
1, 148312, Note_off_c, 3, 76, 64
1, 148312, Note_off_c, 4, 73, 0
1, 148312, Note_off_c, 5, 68, 0
1, 148320, Note_on_c, 0, 57, 100
1, 148320, Note_on_c, 0, 64, 100
1, 148320, Note_on_c, 1, 69, 74
1, 148320, Note_on_c, 2, 69, 100
1, 148320, Note_on_c, 2, 76, 100
1, 148320, Note_on_c, 3, 66, 100
1, 148320, Note_on_c, 3, 69, 100
1, 148320, Note_on_c, 4, 76, 100
1, 148320, Note_on_c, 5, 69, 100
1, 148320, Note_on_c, 6, 64, 69
1, 148320, Note_on_c, 6, 69, 70
1, 148320, Note_on_c, 6, 76, 72
1, 148320, Note_on_c, 8, 42, 100
1, 148320, Note_on_c, 8, 49, 100
1, 148320, Note_on_c, 13, 57, 100
1, 148320, Note_on_c, 13, 61, 100
1, 148400, Note_off_c, 10, 69, 0
1, 148412, Note_off_c, 10, 64, 0
1, 148414, Note_off_c, 1, 59, 0
1, 148420, Note_off_c, 10, 76, 0
1, 148584, Note_off_c, 6, 69, 0
1, 148608, Note_off_c, 6, 64, 0
1, 148612, Note_off_c, 8, 42, 0
1, 148612, Note_off_c, 8, 49, 0
1, 148612, Note_off_c, 13, 57, 0
1, 148612, Note_off_c, 13, 61, 0
1, 148624, Note_off_c, 6, 76, 0
1, 148792, Note_off_c, 0, 57, 64
1, 148792, Note_off_c, 0, 64, 64
1, 148792, Note_off_c, 2, 69, 64
1, 148792, Note_off_c, 2, 76, 64
1, 148792, Note_off_c, 3, 66, 64
1, 148792, Note_off_c, 3, 69, 64
1, 148792, Note_off_c, 4, 76, 0
1, 148792, Note_off_c, 5, 69, 0
1, 148792, Note_off_c, 14, 68, 0
1, 148792, Note_off_c, 14, 83, 0
1, 148800, Note_on_c, 0, 61, 100
1, 148800, Note_on_c, 0, 68, 100
1, 148800, Note_on_c, 1, 64, 68
1, 148800, Note_on_c, 2, 73, 100
1, 148800, Note_on_c, 2, 80, 100
1, 148800, Note_on_c, 3, 73, 100
1, 148800, Note_on_c, 3, 76, 100
1, 148800, Note_on_c, 4, 80, 100
1, 148800, Note_on_c, 5, 73, 100
1, 148800, Note_on_c, 7, 64, 70
1, 148800, Note_on_c, 7, 69, 72
1, 148800, Note_on_c, 7, 76, 77
1, 148800, Note_on_c, 8, 59, 100
1, 148800, Note_on_c, 8, 61, 100
1, 148800, Note_on_c, 13, 44, 100
1, 148800, Note_on_c, 13, 49, 100
1, 148800, Note_on_c, 14, 66, 100
1, 148800, Note_on_c, 14, 81, 100
1, 149012, Note_off_c, 1, 69, 0
1, 149054, Note_off_c, 7, 64, 0
1, 149066, Note_off_c, 7, 69, 0
1, 149082, Note_on_c, 10, 64, 72
1, 149082, Note_on_c, 10, 69, 75
1, 149082, Note_on_c, 10, 76, 73
1, 149092, Note_off_c, 8, 59, 0
1, 149092, Note_off_c, 8, 61, 0
1, 149092, Note_off_c, 13, 44, 0
1, 149092, Note_off_c, 13, 49, 0
1, 149122, Note_off_c, 7, 76, 0
1, 149272, Note_off_c, 0, 61, 64
1, 149272, Note_off_c, 0, 68, 64
1, 149272, Note_off_c, 2, 73, 64
1, 149272, Note_off_c, 2, 80, 64
1, 149272, Note_off_c, 3, 73, 64
1, 149272, Note_off_c, 3, 76, 64
1, 149272, Note_off_c, 4, 80, 0
1, 149272, Note_off_c, 5, 73, 0
1, 149280, Note_on_c, 6, 64, 68
1, 149280, Note_on_c, 6, 69, 77
1, 149280, Note_on_c, 6, 76, 73
1, 149280, Note_on_c, 8, 44, 100
1, 149280, Note_on_c, 8, 49, 100
1, 149280, Note_on_c, 13, 59, 100
1, 149280, Note_on_c, 13, 61, 100
1, 149370, Note_off_c, 10, 76, 0
1, 149372, Note_off_c, 10, 69, 0
1, 149380, Note_off_c, 10, 64, 0
1, 149414, Note_off_c, 1, 64, 0
1, 149546, Note_off_c, 6, 64, 0
1, 149564, Note_off_c, 6, 69, 0
1, 149564, Note_off_c, 6, 76, 0
1, 149572, Note_off_c, 8, 44, 0
1, 149572, Note_off_c, 8, 49, 0
1, 149572, Note_off_c, 13, 59, 0
1, 149572, Note_off_c, 13, 61, 0
1, 149760, Note_on_c, 1, 66, 77
1, 149760, Note_on_c, 3, 71, 100
1, 149760, Note_on_c, 3, 76, 100
1, 149760, Note_on_c, 7, 64, 73
1, 149760, Note_on_c, 7, 69, 77
1, 149760, Note_on_c, 7, 76, 74
1, 149760, Note_on_c, 8, 59, 100
1, 149760, Note_on_c, 8, 61, 100
1, 149760, Note_on_c, 13, 44, 100
1, 149760, Note_on_c, 13, 49, 100
1, 150042, Note_on_c, 10, 64, 69
1, 150042, Note_on_c, 10, 69, 70
1, 150042, Note_on_c, 10, 76, 72
1, 150044, Note_off_c, 7, 69, 0
1, 150052, Note_off_c, 8, 59, 0
1, 150052, Note_off_c, 8, 61, 0
1, 150052, Note_off_c, 13, 44, 0
1, 150052, Note_off_c, 13, 49, 0
1, 150076, Note_off_c, 7, 76, 0
1, 150082, Note_off_c, 7, 64, 0
1, 150232, Note_off_c, 3, 71, 64
1, 150232, Note_off_c, 3, 76, 64
1, 150240, Note_on_c, 1, 61, 70
1, 150240, Note_on_c, 3, 64, 100
1, 150240, Note_on_c, 3, 69, 100
1, 150240, Note_on_c, 6, 64, 72
1, 150240, Note_on_c, 6, 69, 52
1, 150240, Note_on_c, 6, 76, 72
1, 150240, Note_on_c, 8, 44, 100
1, 150240, Note_on_c, 8, 49, 100
1, 150240, Note_on_c, 13, 59, 100
1, 150240, Note_on_c, 13, 61, 100
1, 150306, Note_off_c, 10, 69, 0
1, 150330, Note_off_c, 10, 64, 0
1, 150346, Note_off_c, 10, 76, 0
1, 150392, Note_off_c, 6, 69, 0
1, 150402, Note_off_c, 1, 66, 0
1, 150480, Note_off_c, 6, 64, 0
1, 150486, Note_off_c, 6, 76, 0
1, 150532, Note_off_c, 8, 44, 0
1, 150532, Note_off_c, 8, 49, 0
1, 150532, Note_off_c, 13, 59, 0
1, 150532, Note_off_c, 13, 61, 0
1, 150712, Note_off_c, 3, 64, 64
1, 150712, Note_off_c, 3, 69, 64
1, 150720, Note_on_c, 7, 64, 68
1, 150720, Note_on_c, 7, 69, 70
1, 150720, Note_on_c, 7, 76, 72
1, 150720, Note_on_c, 8, 59, 100
1, 150720, Note_on_c, 8, 61, 100
1, 150720, Note_on_c, 13, 44, 100
1, 150720, Note_on_c, 13, 49, 100
1, 150868, Note_off_c, 1, 61, 0
1, 151002, Note_on_c, 10, 64, 68
1, 151002, Note_on_c, 10, 69, 77
1, 151002, Note_on_c, 10, 76, 73
1, 151010, Note_off_c, 7, 69, 0
1, 151012, Note_off_c, 8, 59, 0
1, 151012, Note_off_c, 8, 61, 0
1, 151012, Note_off_c, 13, 44, 0
1, 151012, Note_off_c, 13, 49, 0
1, 151028, Note_off_c, 7, 76, 0
1, 151034, Note_off_c, 7, 64, 0
1, 151200, Note_on_c, 1, 69, 77
1, 151200, Note_on_c, 3, 71, 100
1, 151200, Note_on_c, 3, 76, 100
1, 151200, Note_on_c, 6, 64, 68
1, 151200, Note_on_c, 6, 69, 70
1, 151200, Note_on_c, 6, 76, 74
1, 151200, Note_on_c, 8, 44, 100
1, 151200, Note_on_c, 8, 49, 100
1, 151200, Note_on_c, 13, 59, 100
1, 151200, Note_on_c, 13, 61, 100
1, 151268, Note_off_c, 10, 64, 0
1, 151286, Note_off_c, 10, 69, 0
1, 151286, Note_off_c, 10, 76, 0
1, 151432, Note_off_c, 6, 69, 0
1, 151442, Note_off_c, 6, 64, 0
1, 151450, Note_off_c, 6, 76, 0
1, 151492, Note_off_c, 8, 44, 0
1, 151492, Note_off_c, 8, 49, 0
1, 151492, Note_off_c, 13, 59, 0
1, 151492, Note_off_c, 13, 61, 0
1, 151672, Note_off_c, 3, 71, 64
1, 151672, Note_off_c, 3, 76, 64
1, 151680, Note_on_c, 7, 64, 68
1, 151680, Note_on_c, 7, 69, 70
1, 151680, Note_on_c, 7, 76, 73
1, 151680, Note_on_c, 8, 59, 100
1, 151680, Note_on_c, 8, 61, 100
1, 151680, Note_on_c, 13, 44, 100
1, 151680, Note_on_c, 13, 49, 100
1, 151848, Note_off_c, 1, 69, 0
1, 151928, Note_off_c, 7, 64, 0
1, 151942, Note_off_c, 7, 69, 0
1, 151942, Note_off_c, 7, 76, 0
1, 151962, Note_on_c, 10, 64, 72
1, 151962, Note_on_c, 10, 69, 52
1, 151962, Note_on_c, 10, 76, 72
1, 151972, Note_off_c, 8, 59, 0
1, 151972, Note_off_c, 8, 61, 0
1, 151972, Note_off_c, 13, 44, 0
1, 151972, Note_off_c, 13, 49, 0
1, 152114, Note_off_c, 10, 69, 0
1, 152160, Note_on_c, 1, 64, 68
1, 152160, Note_on_c, 3, 73, 100
1, 152160, Note_on_c, 3, 76, 100
1, 152160, Note_on_c, 6, 64, 68
1, 152160, Note_on_c, 6, 69, 69
1, 152160, Note_on_c, 6, 76, 72
1, 152160, Note_on_c, 8, 44, 100
1, 152160, Note_on_c, 8, 49, 100
1, 152160, Note_on_c, 13, 59, 100
1, 152160, Note_on_c, 13, 61, 100
1, 152202, Note_off_c, 10, 64, 0
1, 152208, Note_off_c, 10, 76, 0
1, 152376, Note_off_c, 6, 76, 0
1, 152378, Note_off_c, 6, 69, 0
1, 152392, Note_off_c, 6, 64, 0
1, 152452, Note_off_c, 8, 44, 0
1, 152452, Note_off_c, 8, 49, 0
1, 152452, Note_off_c, 13, 59, 0
1, 152452, Note_off_c, 13, 61, 0
1, 152604, Note_off_c, 1, 64, 0
1, 152632, Note_off_c, 3, 73, 64
1, 152632, Note_off_c, 3, 76, 64
1, 152632, Note_off_c, 14, 66, 0
1, 152632, Note_off_c, 14, 81, 0
1, 152640, Note_on_c, 0, 54, 100
1, 152640, Note_on_c, 0, 59, 100
1, 152640, Note_on_c, 1, 66, 78
1, 152640, Note_on_c, 2, 66, 100
1, 152640, Note_on_c, 2, 71, 100
1, 152640, Note_on_c, 3, 64, 100
1, 152640, Note_on_c, 3, 69, 100
1, 152640, Note_on_c, 4, 71, 100
1, 152640, Note_on_c, 5, 66, 100
1, 152640, Note_on_c, 7, 64, 70
1, 152640, Note_on_c, 7, 69, 83
1, 152640, Note_on_c, 7, 76, 74
1, 152640, Note_on_c, 8, 57, 100
1, 152640, Note_on_c, 8, 61, 100
1, 152640, Note_on_c, 13, 30, 100
1, 152640, Note_on_c, 13, 42, 100
1, 152640, Note_on_c, 14, 54, 100
1, 152640, Note_on_c, 14, 78, 100
1, 152692, Note_off_c, 4, 71, 0
1, 152880, Note_off_c, 7, 64, 0
1, 152880, Note_off_c, 7, 76, 0
1, 152890, Note_off_c, 7, 69, 0
1, 152922, Note_on_c, 10, 64, 68
1, 152922, Note_on_c, 10, 69, 70
1, 152922, Note_on_c, 10, 76, 74
1, 152932, Note_off_c, 8, 57, 0
1, 152932, Note_off_c, 8, 61, 0
1, 152932, Note_off_c, 13, 30, 0
1, 152932, Note_off_c, 13, 42, 0
1, 152992, Note_off_c, 5, 66, 0
1, 153112, Note_off_c, 0, 54, 64
1, 153112, Note_off_c, 0, 59, 64
1, 153112, Note_off_c, 2, 66, 64
1, 153112, Note_off_c, 2, 71, 64
1, 153112, Note_off_c, 3, 64, 64
1, 153112, Note_off_c, 3, 69, 64
1, 153120, Note_on_c, 6, 64, 67
1, 153120, Note_on_c, 6, 69, 67
1, 153120, Note_on_c, 6, 76, 72
1, 153120, Note_on_c, 8, 30, 100
1, 153120, Note_on_c, 8, 42, 100
1, 153120, Note_on_c, 13, 57, 100
1, 153120, Note_on_c, 13, 61, 100
1, 153154, Note_off_c, 10, 69, 0
1, 153164, Note_off_c, 10, 64, 0
1, 153172, Note_off_c, 10, 76, 0
1, 153308, Note_off_c, 1, 66, 0
1, 153366, Note_off_c, 6, 64, 0
1, 153370, Note_off_c, 6, 69, 0
1, 153386, Note_off_c, 6, 76, 0
1, 153412, Note_off_c, 8, 30, 0
1, 153412, Note_off_c, 8, 42, 0
1, 153412, Note_off_c, 13, 57, 0
1, 153412, Note_off_c, 13, 61, 0
1, 153600, Note_on_c, 0, 59, 100
1, 153600, Note_on_c, 0, 68, 100
1, 153600, Note_on_c, 1, 59, 74
1, 153600, Note_on_c, 2, 71, 100
1, 153600, Note_on_c, 2, 80, 100
1, 153600, Note_on_c, 3, 71, 100
1, 153600, Note_on_c, 3, 76, 100
1, 153600, Note_on_c, 4, 80, 100
1, 153600, Note_on_c, 5, 71, 100
1, 153600, Note_on_c, 7, 64, 67
1, 153600, Note_on_c, 7, 69, 78
1, 153600, Note_on_c, 7, 76, 73
1, 153600, Note_on_c, 8, 57, 100
1, 153600, Note_on_c, 8, 61, 100
1, 153600, Note_on_c, 13, 30, 100
1, 153600, Note_on_c, 13, 42, 100
1, 153850, Note_off_c, 7, 76, 0
1, 153856, Note_off_c, 7, 69, 0
1, 153864, Note_off_c, 7, 64, 0
1, 153882, Note_on_c, 10, 64, 68
1, 153882, Note_on_c, 10, 69, 69
1, 153882, Note_on_c, 10, 76, 72
1, 153892, Note_off_c, 8, 57, 0
1, 153892, Note_off_c, 8, 61, 0
1, 153892, Note_off_c, 13, 30, 0
1, 153892, Note_off_c, 13, 42, 0
1, 154072, Note_off_c, 0, 59, 64
1, 154072, Note_off_c, 0, 68, 64
1, 154072, Note_off_c, 2, 71, 64
1, 154072, Note_off_c, 2, 80, 64
1, 154072, Note_off_c, 3, 71, 64
1, 154072, Note_off_c, 3, 76, 64
1, 154072, Note_off_c, 4, 80, 0
1, 154072, Note_off_c, 5, 71, 0
1, 154080, Note_on_c, 0, 57, 100
1, 154080, Note_on_c, 0, 66, 100
1, 154080, Note_on_c, 1, 69, 75
1, 154080, Note_on_c, 2, 69, 100
1, 154080, Note_on_c, 2, 78, 100
1, 154080, Note_on_c, 3, 66, 100
1, 154080, Note_on_c, 3, 69, 100
1, 154080, Note_on_c, 4, 78, 100
1, 154080, Note_on_c, 5, 69, 100
1, 154080, Note_on_c, 6, 64, 67
1, 154080, Note_on_c, 6, 69, 63
1, 154080, Note_on_c, 6, 76, 72
1, 154080, Note_on_c, 8, 30, 100
1, 154080, Note_on_c, 8, 42, 100
1, 154080, Note_on_c, 13, 57, 100
1, 154080, Note_on_c, 13, 61, 100
1, 154088, Note_off_c, 1, 59, 0
1, 154098, Note_off_c, 10, 76, 0
1, 154100, Note_off_c, 10, 69, 0
1, 154114, Note_off_c, 10, 64, 0
1, 154328, Note_off_c, 6, 69, 0
1, 154356, Note_off_c, 6, 64, 0
1, 154372, Note_off_c, 6, 76, 0
1, 154372, Note_off_c, 8, 30, 0
1, 154372, Note_off_c, 8, 42, 0
1, 154372, Note_off_c, 13, 57, 0
1, 154372, Note_off_c, 13, 61, 0
1, 154552, Note_off_c, 0, 57, 64
1, 154552, Note_off_c, 0, 66, 64
1, 154552, Note_off_c, 2, 69, 64
1, 154552, Note_off_c, 2, 78, 64
1, 154552, Note_off_c, 3, 66, 64
1, 154552, Note_off_c, 3, 69, 64
1, 154552, Note_off_c, 4, 78, 0
1, 154552, Note_off_c, 5, 69, 0
1, 154560, Note_on_c, 0, 61, 100
1, 154560, Note_on_c, 0, 69, 100
1, 154560, Note_on_c, 1, 64, 73
1, 154560, Note_on_c, 2, 73, 100
1, 154560, Note_on_c, 2, 81, 100
1, 154560, Note_on_c, 3, 73, 100
1, 154560, Note_on_c, 3, 76, 100
1, 154560, Note_on_c, 4, 81, 100
1, 154560, Note_on_c, 5, 73, 100
1, 154560, Note_on_c, 7, 64, 69
1, 154560, Note_on_c, 7, 69, 70
1, 154560, Note_on_c, 7, 76, 73
1, 154560, Note_on_c, 8, 57, 100
1, 154560, Note_on_c, 8, 61, 100
1, 154560, Note_on_c, 13, 30, 100
1, 154560, Note_on_c, 13, 42, 100
1, 154686, Note_off_c, 1, 69, 0
1, 154780, Note_off_c, 7, 69, 0
1, 154802, Note_off_c, 7, 76, 0
1, 154812, Note_off_c, 7, 64, 0
1, 154842, Note_on_c, 10, 64, 67
1, 154842, Note_on_c, 10, 69, 67
1, 154842, Note_on_c, 10, 76, 72
1, 154852, Note_off_c, 8, 57, 0
1, 154852, Note_off_c, 8, 61, 0
1, 154852, Note_off_c, 13, 30, 0
1, 154852, Note_off_c, 13, 42, 0
1, 155032, Note_off_c, 0, 61, 64
1, 155032, Note_off_c, 0, 69, 64
1, 155032, Note_off_c, 2, 73, 64
1, 155032, Note_off_c, 2, 81, 64
1, 155032, Note_off_c, 3, 73, 64
1, 155032, Note_off_c, 3, 76, 64
1, 155032, Note_off_c, 4, 81, 0
1, 155032, Note_off_c, 5, 73, 0
1, 155040, Note_on_c, 6, 64, 68
1, 155040, Note_on_c, 6, 69, 66
1, 155040, Note_on_c, 6, 76, 70
1, 155040, Note_on_c, 8, 30, 100
1, 155040, Note_on_c, 8, 42, 100
1, 155040, Note_on_c, 13, 57, 100
1, 155040, Note_on_c, 13, 61, 100
1, 155088, Note_off_c, 10, 64, 0
1, 155092, Note_off_c, 10, 69, 0
1, 155108, Note_off_c, 10, 76, 0
1, 155236, Note_off_c, 6, 69, 0
1, 155260, Note_off_c, 6, 64, 0
1, 155266, Note_off_c, 1, 64, 0
1, 155278, Note_off_c, 6, 76, 0
1, 155332, Note_off_c, 8, 30, 0
1, 155332, Note_off_c, 8, 42, 0
1, 155332, Note_off_c, 13, 57, 0
1, 155332, Note_off_c, 13, 61, 0
1, 155520, Note_on_c, 0, 59, 100
1, 155520, Note_on_c, 0, 68, 100
1, 155520, Note_on_c, 1, 66, 68
1, 155520, Note_on_c, 2, 71, 100
1, 155520, Note_on_c, 2, 80, 100
1, 155520, Note_on_c, 3, 71, 100
1, 155520, Note_on_c, 3, 76, 100
1, 155520, Note_on_c, 4, 80, 100
1, 155520, Note_on_c, 5, 71, 100
1, 155520, Note_on_c, 7, 64, 69
1, 155520, Note_on_c, 7, 69, 75
1, 155520, Note_on_c, 7, 76, 73
1, 155520, Note_on_c, 8, 56, 100
1, 155520, Note_on_c, 8, 61, 100
1, 155520, Note_on_c, 13, 37, 100
1, 155520, Note_on_c, 13, 49, 100
1, 155734, Note_off_c, 7, 69, 0
1, 155750, Note_off_c, 7, 64, 0
1, 155764, Note_off_c, 7, 76, 0
1, 155802, Note_on_c, 10, 64, 67
1, 155802, Note_on_c, 10, 69, 63
1, 155802, Note_on_c, 10, 76, 72
1, 155812, Note_off_c, 8, 56, 0
1, 155812, Note_off_c, 8, 61, 0
1, 155812, Note_off_c, 13, 37, 0
1, 155812, Note_off_c, 13, 49, 0
1, 155992, Note_off_c, 0, 59, 64
1, 155992, Note_off_c, 0, 68, 64
1, 155992, Note_off_c, 2, 71, 64
1, 155992, Note_off_c, 2, 80, 64
1, 155992, Note_off_c, 3, 71, 64
1, 155992, Note_off_c, 3, 76, 64
1, 155992, Note_off_c, 4, 80, 0
1, 155992, Note_off_c, 5, 71, 0
1, 156000, Note_on_c, 0, 57, 100
1, 156000, Note_on_c, 0, 66, 100
1, 156000, Note_on_c, 1, 61, 68
1, 156000, Note_on_c, 2, 69, 100
1, 156000, Note_on_c, 2, 78, 100
1, 156000, Note_on_c, 3, 64, 100
1, 156000, Note_on_c, 3, 69, 100
1, 156000, Note_on_c, 4, 78, 100
1, 156000, Note_on_c, 5, 69, 100
1, 156000, Note_on_c, 6, 64, 68
1, 156000, Note_on_c, 6, 69, 63
1, 156000, Note_on_c, 6, 76, 72
1, 156000, Note_on_c, 8, 37, 100
1, 156000, Note_on_c, 8, 49, 100
1, 156000, Note_on_c, 13, 56, 100
1, 156000, Note_on_c, 13, 61, 100
1, 156036, Note_off_c, 1, 66, 0
1, 156050, Note_off_c, 10, 69, 0
1, 156078, Note_off_c, 10, 64, 0
1, 156094, Note_off_c, 10, 76, 0
1, 156210, Note_off_c, 6, 64, 0
1, 156244, Note_off_c, 6, 76, 0
1, 156262, Note_off_c, 6, 69, 0
1, 156292, Note_off_c, 8, 37, 0
1, 156292, Note_off_c, 8, 49, 0
1, 156292, Note_off_c, 13, 56, 0
1, 156292, Note_off_c, 13, 61, 0
1, 156472, Note_off_c, 0, 57, 64
1, 156472, Note_off_c, 0, 66, 64
1, 156472, Note_off_c, 2, 69, 64
1, 156472, Note_off_c, 2, 78, 64
1, 156472, Note_off_c, 3, 64, 64
1, 156472, Note_off_c, 3, 69, 64
1, 156472, Note_off_c, 4, 78, 0
1, 156472, Note_off_c, 5, 69, 0
1, 156480, Note_on_c, 7, 64, 68
1, 156480, Note_on_c, 7, 69, 74
1, 156480, Note_on_c, 7, 76, 74
1, 156480, Note_on_c, 8, 56, 100
1, 156480, Note_on_c, 8, 61, 100
1, 156480, Note_on_c, 13, 37, 100
1, 156480, Note_on_c, 13, 49, 100
1, 156704, Note_off_c, 7, 69, 0
1, 156744, Note_off_c, 7, 64, 0
1, 156754, Note_off_c, 7, 76, 0
1, 156762, Note_on_c, 10, 64, 68
1, 156762, Note_on_c, 10, 69, 66
1, 156762, Note_on_c, 10, 76, 70
1, 156770, Note_off_c, 1, 61, 0
1, 156772, Note_off_c, 8, 56, 0
1, 156772, Note_off_c, 8, 61, 0
1, 156772, Note_off_c, 13, 37, 0
1, 156772, Note_off_c, 13, 49, 0
1, 156958, Note_off_c, 10, 69, 0
1, 156960, Note_on_c, 0, 59, 100
1, 156960, Note_on_c, 0, 68, 100
1, 156960, Note_on_c, 1, 69, 77
1, 156960, Note_on_c, 2, 71, 100
1, 156960, Note_on_c, 2, 80, 100
1, 156960, Note_on_c, 3, 71, 100
1, 156960, Note_on_c, 3, 76, 100
1, 156960, Note_on_c, 4, 80, 100
1, 156960, Note_on_c, 5, 71, 100
1, 156960, Note_on_c, 6, 64, 70
1, 156960, Note_on_c, 6, 69, 69
1, 156960, Note_on_c, 6, 76, 72
1, 156960, Note_on_c, 8, 37, 100
1, 156960, Note_on_c, 8, 49, 100
1, 156960, Note_on_c, 13, 56, 100
1, 156960, Note_on_c, 13, 61, 100
1, 156982, Note_off_c, 10, 64, 0
1, 157000, Note_off_c, 10, 76, 0
1, 157194, Note_off_c, 6, 69, 0
1, 157222, Note_off_c, 6, 64, 0
1, 157222, Note_off_c, 6, 76, 0
1, 157252, Note_off_c, 8, 37, 0
1, 157252, Note_off_c, 8, 49, 0
1, 157252, Note_off_c, 13, 56, 0
1, 157252, Note_off_c, 13, 61, 0
1, 157432, Note_off_c, 0, 59, 64
1, 157432, Note_off_c, 0, 68, 64
1, 157432, Note_off_c, 2, 71, 64
1, 157432, Note_off_c, 2, 80, 64
1, 157432, Note_off_c, 3, 71, 64
1, 157432, Note_off_c, 3, 76, 64
1, 157432, Note_off_c, 4, 80, 0
1, 157432, Note_off_c, 5, 71, 0
1, 157440, Note_on_c, 7, 64, 68
1, 157440, Note_on_c, 7, 69, 73
1, 157440, Note_on_c, 7, 76, 73
1, 157440, Note_on_c, 8, 56, 100
1, 157440, Note_on_c, 8, 61, 100
1, 157440, Note_on_c, 13, 37, 100
1, 157440, Note_on_c, 13, 49, 100
1, 157584, Note_off_c, 1, 69, 0
1, 157664, Note_off_c, 7, 64, 0
1, 157688, Note_off_c, 7, 69, 0
1, 157688, Note_off_c, 7, 76, 0
1, 157722, Note_on_c, 10, 64, 68
1, 157722, Note_on_c, 10, 69, 63
1, 157722, Note_on_c, 10, 76, 72
1, 157732, Note_off_c, 8, 56, 0
1, 157732, Note_off_c, 8, 61, 0
1, 157732, Note_off_c, 13, 37, 0
1, 157732, Note_off_c, 13, 49, 0
1, 157920, Note_on_c, 0, 61, 100
1, 157920, Note_on_c, 0, 69, 100
1, 157920, Note_on_c, 1, 64, 70
1, 157920, Note_on_c, 2, 73, 100
1, 157920, Note_on_c, 2, 81, 100
1, 157920, Note_on_c, 3, 73, 100
1, 157920, Note_on_c, 3, 76, 100
1, 157920, Note_on_c, 4, 81, 100
1, 157920, Note_on_c, 5, 73, 100
1, 157920, Note_on_c, 6, 64, 68
1, 157920, Note_on_c, 6, 69, 70
1, 157920, Note_on_c, 6, 76, 70
1, 157920, Note_on_c, 8, 37, 100
1, 157920, Note_on_c, 8, 49, 100
1, 157920, Note_on_c, 13, 56, 100
1, 157920, Note_on_c, 13, 61, 100
1, 157932, Note_off_c, 10, 64, 0
1, 157966, Note_off_c, 10, 76, 0
1, 157984, Note_off_c, 10, 69, 0
1, 158128, Note_off_c, 6, 64, 0
1, 158156, Note_off_c, 6, 69, 0
1, 158160, Note_off_c, 6, 76, 0
1, 158212, Note_off_c, 8, 37, 0
1, 158212, Note_off_c, 8, 49, 0
1, 158212, Note_off_c, 13, 56, 0
1, 158212, Note_off_c, 13, 61, 0
1, 158392, Note_off_c, 0, 61, 64
1, 158392, Note_off_c, 0, 69, 64
1, 158392, Note_off_c, 2, 73, 64
1, 158392, Note_off_c, 2, 81, 64
1, 158392, Note_off_c, 3, 73, 64
1, 158392, Note_off_c, 3, 76, 64
1, 158392, Note_off_c, 4, 81, 0
1, 158392, Note_off_c, 5, 73, 0
1, 158400, Note_on_c, 0, 57, 100
1, 158400, Note_on_c, 0, 66, 100
1, 158400, Note_on_c, 1, 66, 77
1, 158400, Note_on_c, 2, 69, 100
1, 158400, Note_on_c, 2, 78, 100
1, 158400, Note_on_c, 3, 64, 100
1, 158400, Note_on_c, 3, 69, 100
1, 158400, Note_on_c, 4, 78, 100
1, 158400, Note_on_c, 5, 69, 100
1, 158400, Note_on_c, 7, 64, 66
1, 158400, Note_on_c, 7, 69, 74
1, 158400, Note_on_c, 7, 76, 73
1, 158400, Note_on_c, 8, 57, 100
1, 158400, Note_on_c, 8, 61, 100
1, 158400, Note_on_c, 13, 30, 100
1, 158400, Note_on_c, 13, 42, 100
1, 158552, Note_off_c, 1, 64, 0
1, 158634, Note_off_c, 7, 64, 0
1, 158654, Note_off_c, 7, 76, 0
1, 158682, Note_off_c, 7, 69, 0
1, 158682, Note_on_c, 10, 64, 70
1, 158682, Note_on_c, 10, 69, 69
1, 158682, Note_on_c, 10, 76, 72
1, 158692, Note_off_c, 8, 57, 0
1, 158692, Note_off_c, 8, 61, 0
1, 158692, Note_off_c, 13, 30, 0
1, 158692, Note_off_c, 13, 42, 0
1, 158872, Note_off_c, 0, 57, 64
1, 158872, Note_off_c, 0, 66, 64
1, 158872, Note_off_c, 2, 69, 64
1, 158872, Note_off_c, 2, 78, 64
1, 158872, Note_off_c, 3, 64, 64
1, 158872, Note_off_c, 3, 69, 64
1, 158872, Note_off_c, 4, 78, 0
1, 158872, Note_off_c, 5, 69, 0
1, 158880, Note_on_c, 6, 64, 67
1, 158880, Note_on_c, 6, 69, 73
1, 158880, Note_on_c, 6, 76, 74
1, 158880, Note_on_c, 8, 30, 100
1, 158880, Note_on_c, 8, 42, 100
1, 158880, Note_on_c, 13, 57, 100
1, 158880, Note_on_c, 13, 61, 100
1, 158916, Note_off_c, 10, 69, 0
1, 158944, Note_off_c, 10, 64, 0
1, 158944, Note_off_c, 10, 76, 0
1, 159044, Note_off_c, 1, 66, 0
1, 159096, Note_off_c, 6, 64, 0
1, 159116, Note_off_c, 6, 76, 0
1, 159126, Note_off_c, 6, 69, 0
1, 159172, Note_off_c, 8, 30, 0
1, 159172, Note_off_c, 8, 42, 0
1, 159172, Note_off_c, 13, 57, 0
1, 159172, Note_off_c, 13, 61, 0
1, 159352, Note_off_c, 14, 54, 0
1, 159352, Note_off_c, 14, 78, 0
1, 159360, Note_on_c, 0, 59, 100
1, 159360, Note_on_c, 0, 68, 100
1, 159360, Note_on_c, 1, 59, 65
1, 159360, Note_on_c, 2, 71, 100
1, 159360, Note_on_c, 2, 80, 100
1, 159360, Note_on_c, 3, 71, 100
1, 159360, Note_on_c, 3, 76, 100
1, 159360, Note_on_c, 4, 80, 100
1, 159360, Note_on_c, 5, 71, 100
1, 159360, Note_on_c, 7, 64, 66
1, 159360, Note_on_c, 7, 69, 77
1, 159360, Note_on_c, 7, 76, 70
1, 159360, Note_on_c, 8, 57, 100
1, 159360, Note_on_c, 8, 61, 100
1, 159360, Note_on_c, 13, 30, 100
1, 159360, Note_on_c, 13, 42, 100
1, 159588, Note_off_c, 7, 64, 0
1, 159642, Note_on_c, 10, 64, 68
1, 159642, Note_on_c, 10, 69, 70
1, 159642, Note_on_c, 10, 76, 70
1, 159646, Note_off_c, 7, 69, 0
1, 159652, Note_off_c, 8, 57, 0
1, 159652, Note_off_c, 8, 61, 0
1, 159652, Note_off_c, 13, 30, 0
1, 159652, Note_off_c, 13, 42, 0
1, 159670, Note_off_c, 7, 76, 0
1, 159832, Note_off_c, 0, 59, 64
1, 159832, Note_off_c, 0, 68, 64
1, 159832, Note_off_c, 2, 71, 64
1, 159832, Note_off_c, 2, 80, 64
1, 159832, Note_off_c, 3, 71, 64
1, 159832, Note_off_c, 3, 76, 64
1, 159832, Note_off_c, 4, 80, 0
1, 159832, Note_off_c, 5, 71, 0
1, 159840, Note_on_c, 0, 57, 100
1, 159840, Note_on_c, 0, 66, 100
1, 159840, Note_on_c, 1, 69, 74
1, 159840, Note_on_c, 2, 69, 100
1, 159840, Note_on_c, 2, 78, 100
1, 159840, Note_on_c, 3, 66, 100
1, 159840, Note_on_c, 3, 69, 100
1, 159840, Note_on_c, 4, 78, 100
1, 159840, Note_on_c, 5, 69, 100
1, 159840, Note_on_c, 6, 64, 68
1, 159840, Note_on_c, 6, 69, 74
1, 159840, Note_on_c, 6, 76, 75
1, 159840, Note_on_c, 8, 30, 100
1, 159840, Note_on_c, 8, 42, 100
1, 159840, Note_on_c, 13, 57, 100
1, 159840, Note_on_c, 13, 61, 100
1, 159850, Note_off_c, 10, 64, 0
1, 159878, Note_off_c, 10, 69, 0
1, 159882, Note_off_c, 10, 76, 0
1, 159934, Note_off_c, 1, 59, 0
1, 160112, Note_off_c, 6, 69, 0
1, 160116, Note_off_c, 6, 64, 0
1, 160130, Note_off_c, 6, 76, 0
1, 160132, Note_off_c, 8, 30, 0
1, 160132, Note_off_c, 8, 42, 0
1, 160132, Note_off_c, 13, 57, 0
1, 160132, Note_off_c, 13, 61, 0
1, 160312, Note_off_c, 0, 57, 64
1, 160312, Note_off_c, 0, 66, 64
1, 160312, Note_off_c, 2, 69, 64
1, 160312, Note_off_c, 2, 78, 64
1, 160312, Note_off_c, 3, 66, 64
1, 160312, Note_off_c, 3, 69, 64
1, 160312, Note_off_c, 4, 78, 0
1, 160312, Note_off_c, 5, 69, 0
1, 160320, Note_on_c, 0, 61, 100
1, 160320, Note_on_c, 0, 69, 100
1, 160320, Note_on_c, 1, 64, 68
1, 160320, Note_on_c, 2, 73, 100
1, 160320, Note_on_c, 2, 81, 100
1, 160320, Note_on_c, 3, 73, 100
1, 160320, Note_on_c, 3, 76, 100
1, 160320, Note_on_c, 4, 81, 100
1, 160320, Note_on_c, 5, 73, 100
1, 160320, Note_on_c, 7, 64, 65
1, 160320, Note_on_c, 7, 69, 72
1, 160320, Note_on_c, 7, 76, 72
1, 160320, Note_on_c, 8, 57, 100
1, 160320, Note_on_c, 8, 61, 100
1, 160320, Note_on_c, 13, 30, 100
1, 160320, Note_on_c, 13, 42, 100
1, 160532, Note_off_c, 1, 69, 0
1, 160596, Note_off_c, 7, 64, 0
1, 160602, Note_on_c, 10, 64, 67
1, 160602, Note_on_c, 10, 69, 73
1, 160602, Note_on_c, 10, 76, 74
1, 160610, Note_off_c, 7, 69, 0
1, 160612, Note_off_c, 7, 76, 0
1, 160612, Note_off_c, 8, 57, 0
1, 160612, Note_off_c, 8, 61, 0
1, 160612, Note_off_c, 13, 30, 0
1, 160612, Note_off_c, 13, 42, 0
1, 160792, Note_off_c, 0, 61, 64
1, 160792, Note_off_c, 0, 69, 64
1, 160792, Note_off_c, 2, 73, 64
1, 160792, Note_off_c, 2, 81, 64
1, 160792, Note_off_c, 3, 73, 64
1, 160792, Note_off_c, 3, 76, 64
1, 160792, Note_off_c, 4, 81, 0
1, 160792, Note_off_c, 5, 73, 0
1, 160800, Note_on_c, 6, 64, 73
1, 160800, Note_on_c, 6, 69, 80
1, 160800, Note_on_c, 6, 76, 77
1, 160800, Note_on_c, 8, 30, 100
1, 160800, Note_on_c, 8, 42, 100
1, 160800, Note_on_c, 13, 57, 100
1, 160800, Note_on_c, 13, 61, 100
1, 160818, Note_off_c, 10, 64, 0
1, 160838, Note_off_c, 10, 76, 0
1, 160848, Note_off_c, 10, 69, 0
1, 160934, Note_off_c, 1, 64, 0
1, 161062, Note_off_c, 6, 64, 0
1, 161078, Note_off_c, 6, 69, 0
1, 161088, Note_off_c, 6, 76, 0
1, 161092, Note_off_c, 8, 30, 0
1, 161092, Note_off_c, 8, 42, 0
1, 161092, Note_off_c, 13, 57, 0
1, 161092, Note_off_c, 13, 61, 0
1, 161280, Note_on_c, 0, 59, 100
1, 161280, Note_on_c, 0, 68, 100
1, 161280, Note_on_c, 1, 66, 77
1, 161280, Note_on_c, 2, 71, 100
1, 161280, Note_on_c, 2, 80, 100
1, 161280, Note_on_c, 3, 71, 100
1, 161280, Note_on_c, 3, 76, 100
1, 161280, Note_on_c, 4, 80, 100
1, 161280, Note_on_c, 5, 71, 100
1, 161280, Note_on_c, 7, 64, 67
1, 161280, Note_on_c, 7, 69, 75
1, 161280, Note_on_c, 7, 76, 70
1, 161280, Note_on_c, 8, 57, 100
1, 161280, Note_on_c, 8, 61, 100
1, 161280, Note_on_c, 13, 30, 100
1, 161280, Note_on_c, 13, 42, 100
1, 161510, Note_off_c, 7, 69, 0
1, 161528, Note_off_c, 7, 64, 0
1, 161538, Note_off_c, 7, 76, 0
1, 161562, Note_on_c, 10, 64, 68
1, 161562, Note_on_c, 10, 69, 74
1, 161562, Note_on_c, 10, 76, 75
1, 161572, Note_off_c, 8, 57, 0
1, 161572, Note_off_c, 8, 61, 0
1, 161572, Note_off_c, 13, 30, 0
1, 161572, Note_off_c, 13, 42, 0
1, 161752, Note_off_c, 0, 59, 64
1, 161752, Note_off_c, 0, 68, 64
1, 161752, Note_off_c, 2, 71, 64
1, 161752, Note_off_c, 2, 80, 64
1, 161752, Note_off_c, 3, 71, 64
1, 161752, Note_off_c, 3, 76, 64
1, 161752, Note_off_c, 4, 80, 0
1, 161752, Note_off_c, 5, 71, 0
1, 161760, Note_on_c, 0, 57, 100
1, 161760, Note_on_c, 0, 66, 100
1, 161760, Note_on_c, 1, 61, 70
1, 161760, Note_on_c, 2, 69, 100
1, 161760, Note_on_c, 2, 78, 100
1, 161760, Note_on_c, 3, 64, 100
1, 161760, Note_on_c, 3, 69, 100
1, 161760, Note_on_c, 4, 78, 100
1, 161760, Note_on_c, 5, 69, 100
1, 161760, Note_on_c, 6, 64, 68
1, 161760, Note_on_c, 6, 69, 70
1, 161760, Note_on_c, 6, 76, 74
1, 161760, Note_on_c, 8, 30, 100
1, 161760, Note_on_c, 8, 42, 100
1, 161760, Note_on_c, 13, 57, 100
1, 161760, Note_on_c, 13, 61, 100
1, 161834, Note_off_c, 10, 69, 0
1, 161838, Note_off_c, 10, 64, 0
1, 161852, Note_off_c, 10, 76, 0
1, 161922, Note_off_c, 1, 66, 0
1, 162046, Note_off_c, 6, 64, 0
1, 162052, Note_off_c, 8, 30, 0
1, 162052, Note_off_c, 8, 42, 0
1, 162052, Note_off_c, 13, 57, 0
1, 162052, Note_off_c, 13, 61, 0
1, 162058, Note_off_c, 6, 69, 0
1, 162058, Note_off_c, 6, 76, 0
1, 162232, Note_off_c, 0, 57, 64
1, 162232, Note_off_c, 0, 66, 64
1, 162232, Note_off_c, 2, 69, 64
1, 162232, Note_off_c, 2, 78, 64
1, 162232, Note_off_c, 3, 64, 64
1, 162232, Note_off_c, 3, 69, 64
1, 162232, Note_off_c, 4, 78, 0
1, 162232, Note_off_c, 5, 69, 0
1, 162240, Note_on_c, 7, 64, 66
1, 162240, Note_on_c, 7, 69, 68
1, 162240, Note_on_c, 7, 76, 72
1, 162240, Note_on_c, 8, 56, 100
1, 162240, Note_on_c, 8, 61, 100
1, 162240, Note_on_c, 13, 37, 100
1, 162240, Note_on_c, 13, 49, 100
1, 162388, Note_off_c, 1, 61, 0
1, 162500, Note_off_c, 7, 69, 0
1, 162510, Note_off_c, 7, 64, 0
1, 162514, Note_off_c, 7, 76, 0
1, 162522, Note_on_c, 10, 64, 73
1, 162522, Note_on_c, 10, 69, 80
1, 162522, Note_on_c, 10, 76, 77
1, 162532, Note_off_c, 8, 56, 0
1, 162532, Note_off_c, 8, 61, 0
1, 162532, Note_off_c, 13, 37, 0
1, 162532, Note_off_c, 13, 49, 0
1, 162720, Note_on_c, 0, 59, 100
1, 162720, Note_on_c, 0, 68, 100
1, 162720, Note_on_c, 1, 69, 77
1, 162720, Note_on_c, 2, 71, 100
1, 162720, Note_on_c, 2, 80, 100
1, 162720, Note_on_c, 3, 71, 100
1, 162720, Note_on_c, 3, 76, 100
1, 162720, Note_on_c, 4, 80, 100
1, 162720, Note_on_c, 5, 71, 100
1, 162720, Note_on_c, 6, 64, 70
1, 162720, Note_on_c, 6, 69, 74
1, 162720, Note_on_c, 6, 76, 74
1, 162720, Note_on_c, 8, 37, 100
1, 162720, Note_on_c, 8, 49, 100
1, 162720, Note_on_c, 13, 56, 100
1, 162720, Note_on_c, 13, 61, 100
1, 162784, Note_off_c, 10, 64, 0
1, 162800, Note_off_c, 10, 69, 0
1, 162810, Note_off_c, 10, 76, 0
1, 162924, Note_off_c, 6, 64, 0
1, 162954, Note_off_c, 6, 76, 0
1, 162992, Note_off_c, 6, 69, 0
1, 163012, Note_off_c, 8, 37, 0
1, 163012, Note_off_c, 8, 49, 0
1, 163012, Note_off_c, 13, 56, 0
1, 163012, Note_off_c, 13, 61, 0
1, 163192, Note_off_c, 0, 59, 64
1, 163192, Note_off_c, 0, 68, 64
1, 163192, Note_off_c, 2, 71, 64
1, 163192, Note_off_c, 2, 80, 64
1, 163192, Note_off_c, 3, 71, 64
1, 163192, Note_off_c, 3, 76, 64
1, 163192, Note_off_c, 4, 80, 0
1, 163192, Note_off_c, 5, 71, 0
1, 163200, Note_on_c, 7, 64, 62
1, 163200, Note_on_c, 7, 69, 60
1, 163200, Note_on_c, 7, 76, 70
1, 163200, Note_on_c, 8, 56, 100
1, 163200, Note_on_c, 8, 61, 100
1, 163200, Note_on_c, 13, 37, 100
1, 163200, Note_on_c, 13, 49, 100
1, 163368, Note_off_c, 1, 69, 0
1, 163460, Note_off_c, 7, 69, 0
1, 163478, Note_off_c, 7, 64, 0
1, 163482, Note_on_c, 10, 64, 68
1, 163482, Note_on_c, 10, 69, 70
1, 163482, Note_on_c, 10, 76, 74
1, 163492, Note_off_c, 8, 56, 0
1, 163492, Note_off_c, 8, 61, 0
1, 163492, Note_off_c, 13, 37, 0
1, 163492, Note_off_c, 13, 49, 0
1, 163538, Note_off_c, 7, 76, 0
1, 163680, Note_on_c, 0, 61, 100
1, 163680, Note_on_c, 0, 69, 100
1, 163680, Note_on_c, 1, 64, 68
1, 163680, Note_on_c, 2, 73, 100
1, 163680, Note_on_c, 2, 81, 100
1, 163680, Note_on_c, 3, 73, 100
1, 163680, Note_on_c, 3, 76, 100
1, 163680, Note_on_c, 4, 81, 100
1, 163680, Note_on_c, 5, 73, 100
1, 163680, Note_on_c, 6, 64, 68
1, 163680, Note_on_c, 6, 69, 68
1, 163680, Note_on_c, 6, 76, 72
1, 163680, Note_on_c, 8, 37, 100
1, 163680, Note_on_c, 8, 49, 100
1, 163680, Note_on_c, 13, 56, 100
1, 163680, Note_on_c, 13, 61, 100
1, 163768, Note_off_c, 10, 64, 0
1, 163780, Note_off_c, 10, 69, 0
1, 163780, Note_off_c, 10, 76, 0
1, 163886, Note_off_c, 6, 69, 0
1, 163894, Note_off_c, 6, 64, 0
1, 163904, Note_off_c, 6, 76, 0
1, 163972, Note_off_c, 8, 37, 0
1, 163972, Note_off_c, 8, 49, 0
1, 163972, Note_off_c, 13, 56, 0
1, 163972, Note_off_c, 13, 61, 0
1, 164124, Note_off_c, 1, 64, 0
1, 164152, Note_off_c, 0, 61, 64
1, 164152, Note_off_c, 0, 69, 64
1, 164152, Note_off_c, 2, 73, 64
1, 164152, Note_off_c, 2, 81, 64
1, 164152, Note_off_c, 3, 73, 64
1, 164152, Note_off_c, 3, 76, 64
1, 164152, Note_off_c, 4, 81, 0
1, 164152, Note_off_c, 5, 73, 0
1, 164160, Note_on_c, 0, 57, 100
1, 164160, Note_on_c, 0, 66, 100
1, 164160, Note_on_c, 1, 66, 78
1, 164160, Note_on_c, 2, 69, 100
1, 164160, Note_on_c, 2, 78, 100
1, 164160, Note_on_c, 3, 64, 100
1, 164160, Note_on_c, 3, 69, 100
1, 164160, Note_on_c, 4, 78, 100
1, 164160, Note_on_c, 5, 69, 100
1, 164160, Note_on_c, 7, 64, 56
1, 164160, Note_on_c, 7, 69, 69
1, 164160, Note_on_c, 7, 76, 73
1, 164160, Note_on_c, 8, 57, 100
1, 164160, Note_on_c, 8, 61, 100
1, 164160, Note_on_c, 13, 30, 100
1, 164160, Note_on_c, 13, 42, 100
1, 164426, Note_off_c, 7, 64, 0
1, 164442, Note_on_c, 10, 64, 70
1, 164442, Note_on_c, 10, 69, 74
1, 164442, Note_on_c, 10, 76, 74
1, 164452, Note_off_c, 8, 57, 0
1, 164452, Note_off_c, 8, 61, 0
1, 164452, Note_off_c, 13, 30, 0
1, 164452, Note_off_c, 13, 42, 0
1, 164454, Note_off_c, 7, 69, 0
1, 164462, Note_off_c, 7, 76, 0
1, 164632, Note_off_c, 0, 57, 64
1, 164632, Note_off_c, 0, 66, 64
1, 164632, Note_off_c, 2, 69, 64
1, 164632, Note_off_c, 2, 78, 64
1, 164632, Note_off_c, 3, 64, 64
1, 164632, Note_off_c, 3, 69, 64
1, 164632, Note_off_c, 4, 78, 0
1, 164632, Note_off_c, 5, 69, 0
1, 164640, Note_on_c, 6, 64, 70
1, 164640, Note_on_c, 6, 69, 70
1, 164640, Note_on_c, 6, 76, 75
1, 164640, Note_on_c, 8, 30, 100
1, 164640, Note_on_c, 8, 42, 100
1, 164640, Note_on_c, 13, 57, 100
1, 164640, Note_on_c, 13, 61, 100
1, 164646, Note_off_c, 10, 64, 0
1, 164676, Note_off_c, 10, 76, 0
1, 164714, Note_off_c, 10, 69, 0
1, 164828, Note_off_c, 1, 66, 0
1, 164868, Note_off_c, 6, 69, 0
1, 164910, Note_off_c, 6, 64, 0
1, 164932, Note_off_c, 8, 30, 0
1, 164932, Note_off_c, 8, 42, 0
1, 164932, Note_off_c, 13, 57, 0
1, 164932, Note_off_c, 13, 61, 0
1, 164948, Note_off_c, 6, 76, 0
1, 165120, Note_on_c, 0, 59, 100
1, 165120, Note_on_c, 0, 68, 100
1, 165120, Note_on_c, 1, 59, 74
1, 165120, Note_on_c, 2, 71, 100
1, 165120, Note_on_c, 2, 80, 100
1, 165120, Note_on_c, 3, 71, 100
1, 165120, Note_on_c, 3, 76, 100
1, 165120, Note_on_c, 4, 80, 100
1, 165120, Note_on_c, 5, 71, 100
1, 165120, Note_on_c, 7, 64, 66
1, 165120, Note_on_c, 7, 69, 70
1, 165120, Note_on_c, 7, 76, 75
1, 165120, Note_on_c, 8, 57, 100
1, 165120, Note_on_c, 8, 61, 100
1, 165120, Note_on_c, 13, 30, 100
1, 165120, Note_on_c, 13, 42, 100
1, 165370, Note_off_c, 7, 69, 0
1, 165384, Note_off_c, 7, 64, 0
1, 165402, Note_on_c, 10, 64, 68
1, 165402, Note_on_c, 10, 69, 68
1, 165402, Note_on_c, 10, 76, 72
1, 165410, Note_off_c, 7, 76, 0
1, 165412, Note_off_c, 8, 57, 0
1, 165412, Note_off_c, 8, 61, 0
1, 165412, Note_off_c, 13, 30, 0
1, 165412, Note_off_c, 13, 42, 0
1, 165592, Note_off_c, 0, 59, 64
1, 165592, Note_off_c, 0, 68, 64
1, 165592, Note_off_c, 2, 71, 64
1, 165592, Note_off_c, 2, 80, 64
1, 165592, Note_off_c, 3, 71, 64
1, 165592, Note_off_c, 3, 76, 64
1, 165592, Note_off_c, 4, 80, 0
1, 165592, Note_off_c, 5, 71, 0
1, 165600, Note_on_c, 0, 57, 100
1, 165600, Note_on_c, 0, 66, 100
1, 165600, Note_on_c, 1, 69, 75
1, 165600, Note_on_c, 2, 69, 100
1, 165600, Note_on_c, 2, 78, 100
1, 165600, Note_on_c, 3, 66, 100
1, 165600, Note_on_c, 3, 69, 100
1, 165600, Note_on_c, 4, 78, 100
1, 165600, Note_on_c, 5, 69, 100
1, 165600, Note_on_c, 6, 64, 69
1, 165600, Note_on_c, 6, 69, 69
1, 165600, Note_on_c, 6, 76, 73
1, 165600, Note_on_c, 8, 30, 100
1, 165600, Note_on_c, 8, 42, 100
1, 165600, Note_on_c, 13, 57, 100
1, 165600, Note_on_c, 13, 61, 100
1, 165608, Note_off_c, 1, 59, 0
1, 165608, Note_off_c, 10, 69, 0
1, 165616, Note_off_c, 10, 64, 0
1, 165626, Note_off_c, 10, 76, 0
1, 165866, Note_off_c, 6, 64, 0
1, 165892, Note_off_c, 8, 30, 0
1, 165892, Note_off_c, 8, 42, 0
1, 165892, Note_off_c, 13, 57, 0
1, 165892, Note_off_c, 13, 61, 0
1, 165904, Note_off_c, 6, 69, 0
1, 165904, Note_off_c, 6, 76, 0
1, 166072, Note_off_c, 0, 57, 64
1, 166072, Note_off_c, 0, 66, 64
1, 166072, Note_off_c, 2, 69, 64
1, 166072, Note_off_c, 2, 78, 64
1, 166072, Note_off_c, 3, 66, 64
1, 166072, Note_off_c, 3, 69, 64
1, 166072, Note_off_c, 4, 78, 0
1, 166072, Note_off_c, 5, 69, 0
1, 166080, Note_on_c, 0, 61, 100
1, 166080, Note_on_c, 0, 69, 100
1, 166080, Note_on_c, 1, 64, 73
1, 166080, Note_on_c, 2, 73, 100
1, 166080, Note_on_c, 2, 81, 100
1, 166080, Note_on_c, 3, 73, 100
1, 166080, Note_on_c, 3, 76, 100
1, 166080, Note_on_c, 4, 81, 100
1, 166080, Note_on_c, 5, 73, 100
1, 166080, Note_on_c, 7, 64, 66
1, 166080, Note_on_c, 7, 69, 70
1, 166080, Note_on_c, 7, 76, 75
1, 166080, Note_on_c, 8, 57, 100
1, 166080, Note_on_c, 8, 61, 100
1, 166080, Note_on_c, 13, 30, 100
1, 166080, Note_on_c, 13, 42, 100
1, 166206, Note_off_c, 1, 69, 0
1, 166330, Note_off_c, 7, 69, 0
1, 166344, Note_off_c, 7, 64, 0
1, 166362, Note_on_c, 10, 64, 70
1, 166362, Note_on_c, 10, 69, 70
1, 166362, Note_on_c, 10, 76, 75
1, 166370, Note_off_c, 7, 76, 0
1, 166372, Note_off_c, 8, 57, 0
1, 166372, Note_off_c, 8, 61, 0
1, 166372, Note_off_c, 13, 30, 0
1, 166372, Note_off_c, 13, 42, 0
1, 166552, Note_off_c, 0, 61, 64
1, 166552, Note_off_c, 0, 69, 64
1, 166552, Note_off_c, 2, 73, 64
1, 166552, Note_off_c, 2, 81, 64
1, 166552, Note_off_c, 3, 73, 64
1, 166552, Note_off_c, 3, 76, 64
1, 166552, Note_off_c, 4, 81, 0
1, 166552, Note_off_c, 5, 73, 0
1, 166560, Note_on_c, 6, 64, 67
1, 166560, Note_on_c, 6, 69, 63
1, 166560, Note_on_c, 6, 76, 74
1, 166560, Note_on_c, 8, 30, 100
1, 166560, Note_on_c, 8, 42, 100
1, 166560, Note_on_c, 13, 57, 100
1, 166560, Note_on_c, 13, 61, 100
1, 166590, Note_off_c, 10, 69, 0
1, 166632, Note_off_c, 10, 64, 0
1, 166670, Note_off_c, 10, 76, 0
1, 166764, Note_off_c, 6, 69, 0
1, 166786, Note_off_c, 1, 64, 0
1, 166826, Note_off_c, 6, 64, 0
1, 166826, Note_off_c, 6, 76, 0
1, 166852, Note_off_c, 8, 30, 0
1, 166852, Note_off_c, 8, 42, 0
1, 166852, Note_off_c, 13, 57, 0
1, 166852, Note_off_c, 13, 61, 0
1, 167040, Note_on_c, 0, 59, 100
1, 167040, Note_on_c, 0, 68, 100
1, 167040, Note_on_c, 1, 66, 68
1, 167040, Note_on_c, 2, 71, 100
1, 167040, Note_on_c, 2, 80, 100
1, 167040, Note_on_c, 3, 71, 100
1, 167040, Note_on_c, 3, 76, 100
1, 167040, Note_on_c, 4, 80, 100
1, 167040, Note_on_c, 5, 71, 100
1, 167040, Note_on_c, 7, 64, 72
1, 167040, Note_on_c, 7, 69, 80
1, 167040, Note_on_c, 7, 76, 77
1, 167040, Note_on_c, 8, 56, 100
1, 167040, Note_on_c, 8, 61, 100
1, 167040, Note_on_c, 13, 37, 100
1, 167040, Note_on_c, 13, 49, 100
1, 167280, Note_off_c, 7, 76, 0
1, 167290, Note_off_c, 7, 64, 0
1, 167290, Note_off_c, 7, 69, 0
1, 167322, Note_on_c, 10, 64, 69
1, 167322, Note_on_c, 10, 69, 69
1, 167322, Note_on_c, 10, 76, 73
1, 167332, Note_off_c, 8, 56, 0
1, 167332, Note_off_c, 8, 61, 0
1, 167332, Note_off_c, 13, 37, 0
1, 167332, Note_off_c, 13, 49, 0
1, 167512, Note_off_c, 0, 59, 64
1, 167512, Note_off_c, 0, 68, 64
1, 167512, Note_off_c, 2, 71, 64
1, 167512, Note_off_c, 2, 80, 64
1, 167512, Note_off_c, 3, 71, 64
1, 167512, Note_off_c, 3, 76, 64
1, 167512, Note_off_c, 4, 80, 0
1, 167512, Note_off_c, 5, 71, 0
1, 167520, Note_on_c, 0, 57, 100
1, 167520, Note_on_c, 0, 66, 100
1, 167520, Note_on_c, 1, 61, 68
1, 167520, Note_on_c, 2, 69, 100
1, 167520, Note_on_c, 2, 78, 100
1, 167520, Note_on_c, 3, 64, 100
1, 167520, Note_on_c, 3, 69, 100
1, 167520, Note_on_c, 4, 78, 100
1, 167520, Note_on_c, 5, 69, 100
1, 167520, Note_on_c, 6, 64, 66
1, 167520, Note_on_c, 6, 69, 63
1, 167520, Note_on_c, 6, 76, 74
1, 167520, Note_on_c, 8, 37, 100
1, 167520, Note_on_c, 8, 49, 100
1, 167520, Note_on_c, 13, 56, 100
1, 167520, Note_on_c, 13, 61, 100
1, 167556, Note_off_c, 1, 66, 0
1, 167588, Note_off_c, 10, 64, 0
1, 167626, Note_off_c, 10, 69, 0
1, 167626, Note_off_c, 10, 76, 0
1, 167750, Note_off_c, 6, 69, 0
1, 167756, Note_off_c, 6, 64, 0
1, 167794, Note_off_c, 6, 76, 0
1, 167812, Note_off_c, 8, 37, 0
1, 167812, Note_off_c, 8, 49, 0
1, 167812, Note_off_c, 13, 56, 0
1, 167812, Note_off_c, 13, 61, 0
1, 167992, Note_off_c, 0, 57, 64
1, 167992, Note_off_c, 0, 66, 64
1, 167992, Note_off_c, 2, 69, 64
1, 167992, Note_off_c, 2, 78, 64
1, 167992, Note_off_c, 3, 64, 64
1, 167992, Note_off_c, 3, 69, 64
1, 167992, Note_off_c, 4, 78, 0
1, 167992, Note_off_c, 5, 69, 0
1, 168000, Note_on_c, 7, 64, 70
1, 168000, Note_on_c, 7, 69, 77
1, 168000, Note_on_c, 7, 76, 77
1, 168000, Note_on_c, 8, 56, 100
1, 168000, Note_on_c, 8, 61, 100
1, 168000, Note_on_c, 13, 37, 100
1, 168000, Note_on_c, 13, 49, 100
1, 168254, Note_off_c, 7, 64, 0
1, 168282, Note_off_c, 7, 69, 0
1, 168282, Note_on_c, 10, 64, 67
1, 168282, Note_on_c, 10, 69, 63
1, 168282, Note_on_c, 10, 76, 74
1, 168290, Note_off_c, 1, 61, 0
1, 168290, Note_off_c, 7, 76, 0
1, 168292, Note_off_c, 8, 56, 0
1, 168292, Note_off_c, 8, 61, 0
1, 168292, Note_off_c, 13, 37, 0
1, 168292, Note_off_c, 13, 49, 0
1, 168480, Note_on_c, 0, 59, 100
1, 168480, Note_on_c, 0, 68, 100
1, 168480, Note_on_c, 1, 69, 77
1, 168480, Note_on_c, 2, 71, 100
1, 168480, Note_on_c, 2, 80, 100
1, 168480, Note_on_c, 3, 71, 100
1, 168480, Note_on_c, 3, 76, 100
1, 168480, Note_on_c, 4, 80, 100
1, 168480, Note_on_c, 5, 71, 100
1, 168480, Note_on_c, 6, 64, 68
1, 168480, Note_on_c, 6, 69, 74
1, 168480, Note_on_c, 6, 76, 74
1, 168480, Note_on_c, 8, 37, 100
1, 168480, Note_on_c, 8, 49, 100
1, 168480, Note_on_c, 13, 56, 100
1, 168480, Note_on_c, 13, 61, 100
1, 168486, Note_off_c, 10, 69, 0
1, 168548, Note_off_c, 10, 64, 0
1, 168548, Note_off_c, 10, 76, 0
1, 168740, Note_off_c, 6, 69, 0
1, 168770, Note_off_c, 6, 76, 0
1, 168772, Note_off_c, 8, 37, 0
1, 168772, Note_off_c, 8, 49, 0
1, 168772, Note_off_c, 13, 56, 0
1, 168772, Note_off_c, 13, 61, 0
1, 168774, Note_off_c, 6, 64, 0
1, 168952, Note_off_c, 0, 59, 64
1, 168952, Note_off_c, 0, 68, 64
1, 168952, Note_off_c, 2, 71, 64
1, 168952, Note_off_c, 2, 80, 64
1, 168952, Note_off_c, 3, 71, 64
1, 168952, Note_off_c, 3, 76, 64
1, 168952, Note_off_c, 4, 80, 0
1, 168952, Note_off_c, 5, 71, 0
1, 168960, Note_on_c, 7, 64, 70
1, 168960, Note_on_c, 7, 69, 73
1, 168960, Note_on_c, 7, 76, 74
1, 168960, Note_on_c, 8, 56, 100
1, 168960, Note_on_c, 8, 61, 100
1, 168960, Note_on_c, 13, 37, 100
1, 168960, Note_on_c, 13, 49, 100
1, 169104, Note_off_c, 1, 69, 0
1, 169200, Note_off_c, 7, 64, 0
1, 169206, Note_off_c, 7, 69, 0
1, 169220, Note_off_c, 7, 76, 0
1, 169242, Note_on_c, 10, 64, 66
1, 169242, Note_on_c, 10, 69, 63
1, 169242, Note_on_c, 10, 76, 74
1, 169252, Note_off_c, 8, 56, 0
1, 169252, Note_off_c, 8, 61, 0
1, 169252, Note_off_c, 13, 37, 0
1, 169252, Note_off_c, 13, 49, 0
1, 169440, Note_on_c, 0, 61, 100
1, 169440, Note_on_c, 0, 69, 100
1, 169440, Note_on_c, 1, 64, 70
1, 169440, Note_on_c, 2, 73, 100
1, 169440, Note_on_c, 2, 81, 100
1, 169440, Note_on_c, 3, 73, 100
1, 169440, Note_on_c, 3, 76, 100
1, 169440, Note_on_c, 4, 81, 100
1, 169440, Note_on_c, 5, 73, 100
1, 169440, Note_on_c, 6, 64, 73
1, 169440, Note_on_c, 6, 69, 82
1, 169440, Note_on_c, 6, 76, 77
1, 169440, Note_on_c, 8, 37, 100
1, 169440, Note_on_c, 8, 49, 100
1, 169440, Note_on_c, 13, 56, 100
1, 169440, Note_on_c, 13, 61, 100
1, 169472, Note_off_c, 10, 69, 0
1, 169478, Note_off_c, 10, 64, 0
1, 169516, Note_off_c, 10, 76, 0
1, 169718, Note_off_c, 6, 69, 0
1, 169730, Note_off_c, 6, 64, 0
1, 169732, Note_off_c, 8, 37, 0
1, 169732, Note_off_c, 8, 49, 0
1, 169732, Note_off_c, 13, 56, 0
1, 169732, Note_off_c, 13, 61, 0
1, 169738, Note_off_c, 6, 76, 0
1, 169912, Note_off_c, 0, 61, 64
1, 169912, Note_off_c, 0, 69, 64
1, 169912, Note_off_c, 2, 73, 64
1, 169912, Note_off_c, 2, 81, 64
1, 169912, Note_off_c, 3, 73, 64
1, 169912, Note_off_c, 3, 76, 64
1, 169912, Note_off_c, 4, 81, 0
1, 169912, Note_off_c, 5, 73, 0
1, 169920, Note_on_c, 0, 57, 100
1, 169920, Note_on_c, 0, 66, 100
1, 169920, Note_on_c, 1, 66, 77
1, 169920, Note_on_c, 2, 69, 100
1, 169920, Note_on_c, 2, 78, 100
1, 169920, Note_on_c, 3, 64, 100
1, 169920, Note_on_c, 3, 69, 100
1, 169920, Note_on_c, 4, 78, 100
1, 169920, Note_on_c, 5, 69, 100
1, 169920, Note_on_c, 7, 64, 72
1, 169920, Note_on_c, 7, 69, 77
1, 169920, Note_on_c, 7, 76, 75
1, 169920, Note_on_c, 8, 57, 100
1, 169920, Note_on_c, 8, 61, 100
1, 169920, Note_on_c, 13, 30, 100
1, 169920, Note_on_c, 13, 42, 100
1, 170072, Note_off_c, 1, 64, 0
1, 170128, Note_off_c, 7, 69, 0
1, 170142, Note_off_c, 7, 64, 0
1, 170162, Note_off_c, 7, 76, 0
1, 170202, Note_on_c, 10, 64, 68
1, 170202, Note_on_c, 10, 69, 74
1, 170202, Note_on_c, 10, 76, 74
1, 170212, Note_off_c, 8, 57, 0
1, 170212, Note_off_c, 8, 61, 0
1, 170212, Note_off_c, 13, 30, 0
1, 170212, Note_off_c, 13, 42, 0
1, 170392, Note_off_c, 0, 57, 64
1, 170392, Note_off_c, 0, 66, 64
1, 170392, Note_off_c, 2, 69, 64
1, 170392, Note_off_c, 2, 78, 64
1, 170392, Note_off_c, 3, 64, 64
1, 170392, Note_off_c, 3, 69, 64
1, 170392, Note_off_c, 4, 78, 0
1, 170392, Note_off_c, 5, 69, 0
1, 170400, Note_on_c, 6, 64, 72
1, 170400, Note_on_c, 6, 69, 75
1, 170400, Note_on_c, 6, 76, 73
1, 170400, Note_on_c, 8, 30, 100
1, 170400, Note_on_c, 8, 42, 100
1, 170400, Note_on_c, 13, 57, 100
1, 170400, Note_on_c, 13, 61, 100
1, 170462, Note_off_c, 10, 69, 0
1, 170492, Note_off_c, 10, 76, 0
1, 170496, Note_off_c, 10, 64, 0
1, 170564, Note_off_c, 1, 66, 0
1, 170688, Note_off_c, 6, 76, 0
1, 170690, Note_off_c, 6, 69, 0
1, 170692, Note_off_c, 8, 30, 0
1, 170692, Note_off_c, 8, 42, 0
1, 170692, Note_off_c, 13, 57, 0
1, 170692, Note_off_c, 13, 61, 0
1, 170698, Note_off_c, 6, 64, 0
1, 170880, Note_on_c, 0, 59, 100
1, 170880, Note_on_c, 0, 68, 100
1, 170880, Note_on_c, 1, 59, 65
1, 170880, Note_on_c, 2, 71, 100
1, 170880, Note_on_c, 2, 80, 100
1, 170880, Note_on_c, 3, 71, 100
1, 170880, Note_on_c, 3, 76, 100
1, 170880, Note_on_c, 4, 80, 100
1, 170880, Note_on_c, 5, 71, 100
1, 170880, Note_on_c, 7, 64, 70
1, 170880, Note_on_c, 7, 69, 78
1, 170880, Note_on_c, 7, 76, 77
1, 170880, Note_on_c, 8, 57, 100
1, 170880, Note_on_c, 8, 61, 100
1, 170880, Note_on_c, 13, 30, 100
1, 170880, Note_on_c, 13, 42, 100
1, 171122, Note_off_c, 7, 64, 0
1, 171144, Note_off_c, 7, 76, 0
1, 171162, Note_on_c, 10, 64, 73
1, 171162, Note_on_c, 10, 69, 82
1, 171162, Note_on_c, 10, 76, 77
1, 171168, Note_off_c, 7, 69, 0
1, 171172, Note_off_c, 8, 57, 0
1, 171172, Note_off_c, 8, 61, 0
1, 171172, Note_off_c, 13, 30, 0
1, 171172, Note_off_c, 13, 42, 0
1, 171352, Note_off_c, 0, 59, 64
1, 171352, Note_off_c, 0, 68, 64
1, 171352, Note_off_c, 2, 71, 64
1, 171352, Note_off_c, 2, 80, 64
1, 171352, Note_off_c, 3, 71, 64
1, 171352, Note_off_c, 3, 76, 64
1, 171352, Note_off_c, 4, 80, 0
1, 171352, Note_off_c, 5, 71, 0
1, 171360, Note_on_c, 0, 57, 100
1, 171360, Note_on_c, 0, 66, 100
1, 171360, Note_on_c, 1, 69, 74
1, 171360, Note_on_c, 2, 69, 100
1, 171360, Note_on_c, 2, 78, 100
1, 171360, Note_on_c, 3, 66, 100
1, 171360, Note_on_c, 3, 69, 100
1, 171360, Note_on_c, 4, 78, 100
1, 171360, Note_on_c, 5, 69, 100
1, 171360, Note_on_c, 6, 64, 69
1, 171360, Note_on_c, 6, 69, 70
1, 171360, Note_on_c, 6, 76, 72
1, 171360, Note_on_c, 8, 30, 100
1, 171360, Note_on_c, 8, 42, 100
1, 171360, Note_on_c, 13, 57, 100
1, 171360, Note_on_c, 13, 61, 100
1, 171440, Note_off_c, 10, 69, 0
1, 171452, Note_off_c, 10, 64, 0
1, 171454, Note_off_c, 1, 59, 0
1, 171460, Note_off_c, 10, 76, 0
1, 171624, Note_off_c, 6, 69, 0
1, 171648, Note_off_c, 6, 64, 0
1, 171652, Note_off_c, 8, 30, 0
1, 171652, Note_off_c, 8, 42, 0
1, 171652, Note_off_c, 13, 57, 0
1, 171652, Note_off_c, 13, 61, 0
1, 171664, Note_off_c, 6, 76, 0
1, 171832, Note_off_c, 0, 57, 64
1, 171832, Note_off_c, 0, 66, 64
1, 171832, Note_off_c, 2, 69, 64
1, 171832, Note_off_c, 2, 78, 64
1, 171832, Note_off_c, 3, 66, 64
1, 171832, Note_off_c, 3, 69, 64
1, 171832, Note_off_c, 4, 78, 0
1, 171832, Note_off_c, 5, 69, 0
1, 171840, Note_on_c, 0, 61, 100
1, 171840, Note_on_c, 0, 69, 100
1, 171840, Note_on_c, 1, 64, 68
1, 171840, Note_on_c, 2, 73, 100
1, 171840, Note_on_c, 2, 81, 100
1, 171840, Note_on_c, 3, 73, 100
1, 171840, Note_on_c, 3, 76, 100
1, 171840, Note_on_c, 4, 81, 100
1, 171840, Note_on_c, 5, 73, 100
1, 171840, Note_on_c, 7, 64, 70
1, 171840, Note_on_c, 7, 69, 72
1, 171840, Note_on_c, 7, 76, 77
1, 171840, Note_on_c, 8, 56, 100
1, 171840, Note_on_c, 8, 61, 100
1, 171840, Note_on_c, 13, 37, 100
1, 171840, Note_on_c, 13, 49, 100
1, 172052, Note_off_c, 1, 69, 0
1, 172094, Note_off_c, 7, 64, 0
1, 172106, Note_off_c, 7, 69, 0
1, 172122, Note_on_c, 10, 64, 72
1, 172122, Note_on_c, 10, 69, 75
1, 172122, Note_on_c, 10, 76, 73
1, 172132, Note_off_c, 8, 56, 0
1, 172132, Note_off_c, 8, 61, 0
1, 172132, Note_off_c, 13, 37, 0
1, 172132, Note_off_c, 13, 49, 0
1, 172162, Note_off_c, 7, 76, 0
1, 172312, Note_off_c, 0, 61, 64
1, 172312, Note_off_c, 0, 69, 64
1, 172312, Note_off_c, 2, 73, 64
1, 172312, Note_off_c, 2, 81, 64
1, 172312, Note_off_c, 3, 73, 64
1, 172312, Note_off_c, 3, 76, 64
1, 172312, Note_off_c, 4, 81, 0
1, 172312, Note_off_c, 5, 73, 0
1, 172320, Note_on_c, 6, 64, 68
1, 172320, Note_on_c, 6, 69, 77
1, 172320, Note_on_c, 6, 76, 73
1, 172320, Note_on_c, 8, 37, 100
1, 172320, Note_on_c, 8, 49, 100
1, 172320, Note_on_c, 13, 56, 100
1, 172320, Note_on_c, 13, 61, 100
1, 172410, Note_off_c, 10, 76, 0
1, 172412, Note_off_c, 10, 69, 0
1, 172420, Note_off_c, 10, 64, 0
1, 172454, Note_off_c, 1, 64, 0
1, 172586, Note_off_c, 6, 64, 0
1, 172604, Note_off_c, 6, 69, 0
1, 172604, Note_off_c, 6, 76, 0
1, 172612, Note_off_c, 8, 37, 0
1, 172612, Note_off_c, 8, 49, 0
1, 172612, Note_off_c, 13, 56, 0
1, 172612, Note_off_c, 13, 61, 0
1, 172800, Note_on_c, 1, 66, 77
1, 172800, Note_on_c, 3, 71, 100
1, 172800, Note_on_c, 3, 76, 100
1, 172800, Note_on_c, 7, 64, 73
1, 172800, Note_on_c, 7, 69, 77
1, 172800, Note_on_c, 7, 76, 74
1, 172800, Note_on_c, 8, 56, 100
1, 172800, Note_on_c, 8, 61, 100
1, 172800, Note_on_c, 13, 37, 100
1, 172800, Note_on_c, 13, 49, 100
1, 173082, Note_on_c, 10, 64, 69
1, 173082, Note_on_c, 10, 69, 70
1, 173082, Note_on_c, 10, 76, 72
1, 173084, Note_off_c, 7, 69, 0
1, 173092, Note_off_c, 8, 56, 0
1, 173092, Note_off_c, 8, 61, 0
1, 173092, Note_off_c, 13, 37, 0
1, 173092, Note_off_c, 13, 49, 0
1, 173116, Note_off_c, 7, 76, 0
1, 173122, Note_off_c, 7, 64, 0
1, 173272, Note_off_c, 3, 71, 64
1, 173272, Note_off_c, 3, 76, 64
1, 173280, Note_on_c, 1, 61, 70
1, 173280, Note_on_c, 3, 64, 100
1, 173280, Note_on_c, 3, 69, 100
1, 173280, Note_on_c, 6, 64, 72
1, 173280, Note_on_c, 6, 69, 52
1, 173280, Note_on_c, 6, 76, 72
1, 173280, Note_on_c, 8, 37, 100
1, 173280, Note_on_c, 8, 49, 100
1, 173280, Note_on_c, 13, 56, 100
1, 173280, Note_on_c, 13, 61, 100
1, 173346, Note_off_c, 10, 69, 0
1, 173370, Note_off_c, 10, 64, 0
1, 173386, Note_off_c, 10, 76, 0
1, 173432, Note_off_c, 6, 69, 0
1, 173442, Note_off_c, 1, 66, 0
1, 173520, Note_off_c, 6, 64, 0
1, 173526, Note_off_c, 6, 76, 0
1, 173572, Note_off_c, 8, 37, 0
1, 173572, Note_off_c, 8, 49, 0
1, 173572, Note_off_c, 13, 56, 0
1, 173572, Note_off_c, 13, 61, 0
1, 173752, Note_off_c, 3, 64, 64
1, 173752, Note_off_c, 3, 69, 64
1, 173760, Note_on_c, 7, 64, 68
1, 173760, Note_on_c, 7, 69, 70
1, 173760, Note_on_c, 7, 76, 72
1, 173760, Note_on_c, 8, 56, 100
1, 173760, Note_on_c, 8, 61, 100
1, 173760, Note_on_c, 13, 37, 100
1, 173760, Note_on_c, 13, 49, 100
1, 173908, Note_off_c, 1, 61, 0
1, 174042, Note_on_c, 10, 64, 68
1, 174042, Note_on_c, 10, 69, 77
1, 174042, Note_on_c, 10, 76, 73
1, 174050, Note_off_c, 7, 69, 0
1, 174052, Note_off_c, 8, 56, 0
1, 174052, Note_off_c, 8, 61, 0
1, 174052, Note_off_c, 13, 37, 0
1, 174052, Note_off_c, 13, 49, 0
1, 174068, Note_off_c, 7, 76, 0
1, 174074, Note_off_c, 7, 64, 0
1, 174240, Note_on_c, 1, 69, 77
1, 174240, Note_on_c, 3, 71, 100
1, 174240, Note_on_c, 3, 76, 100
1, 174240, Note_on_c, 6, 64, 68
1, 174240, Note_on_c, 6, 69, 70
1, 174240, Note_on_c, 6, 76, 74
1, 174240, Note_on_c, 8, 37, 100
1, 174240, Note_on_c, 8, 49, 100
1, 174240, Note_on_c, 13, 56, 100
1, 174240, Note_on_c, 13, 61, 100
1, 174308, Note_off_c, 10, 64, 0
1, 174326, Note_off_c, 10, 69, 0
1, 174326, Note_off_c, 10, 76, 0
1, 174472, Note_off_c, 6, 69, 0
1, 174482, Note_off_c, 6, 64, 0
1, 174490, Note_off_c, 6, 76, 0
1, 174532, Note_off_c, 8, 37, 0
1, 174532, Note_off_c, 8, 49, 0
1, 174532, Note_off_c, 13, 56, 0
1, 174532, Note_off_c, 13, 61, 0
1, 174712, Note_off_c, 3, 71, 64
1, 174712, Note_off_c, 3, 76, 64
1, 174720, Note_on_c, 7, 64, 68
1, 174720, Note_on_c, 7, 69, 70
1, 174720, Note_on_c, 7, 76, 73
1, 174720, Note_on_c, 8, 56, 100
1, 174720, Note_on_c, 8, 61, 100
1, 174720, Note_on_c, 13, 37, 100
1, 174720, Note_on_c, 13, 49, 100
1, 174888, Note_off_c, 1, 69, 0
1, 174968, Note_off_c, 7, 64, 0
1, 174982, Note_off_c, 7, 69, 0
1, 174982, Note_off_c, 7, 76, 0
1, 175002, Note_on_c, 10, 64, 72
1, 175002, Note_on_c, 10, 69, 52
1, 175002, Note_on_c, 10, 76, 72
1, 175012, Note_off_c, 8, 56, 0
1, 175012, Note_off_c, 8, 61, 0
1, 175012, Note_off_c, 13, 37, 0
1, 175012, Note_off_c, 13, 49, 0
1, 175154, Note_off_c, 10, 69, 0
1, 175200, Note_on_c, 1, 64, 68
1, 175200, Note_on_c, 3, 73, 100
1, 175200, Note_on_c, 3, 76, 100
1, 175200, Note_on_c, 6, 64, 68
1, 175200, Note_on_c, 6, 69, 69
1, 175200, Note_on_c, 6, 76, 72
1, 175200, Note_on_c, 8, 37, 100
1, 175200, Note_on_c, 8, 49, 100
1, 175200, Note_on_c, 13, 56, 100
1, 175200, Note_on_c, 13, 61, 100
1, 175242, Note_off_c, 10, 64, 0
1, 175248, Note_off_c, 10, 76, 0
1, 175416, Note_off_c, 6, 76, 0
1, 175418, Note_off_c, 6, 69, 0
1, 175432, Note_off_c, 6, 64, 0
1, 175492, Note_off_c, 8, 37, 0
1, 175492, Note_off_c, 8, 49, 0
1, 175492, Note_off_c, 13, 56, 0
1, 175492, Note_off_c, 13, 61, 0
1, 175644, Note_off_c, 1, 64, 0
1, 175672, Note_off_c, 3, 73, 64
1, 175672, Note_off_c, 3, 76, 64
1, 175680, Note_on_c, 0, 57, 100
1, 175680, Note_on_c, 0, 66, 100
1, 175680, Note_on_c, 1, 66, 78
1, 175680, Note_on_c, 2, 69, 100
1, 175680, Note_on_c, 2, 78, 100
1, 175680, Note_on_c, 3, 64, 100
1, 175680, Note_on_c, 3, 69, 100
1, 175680, Note_on_c, 4, 78, 100
1, 175680, Note_on_c, 5, 69, 100
1, 175680, Note_on_c, 7, 64, 70
1, 175680, Note_on_c, 7, 69, 83
1, 175680, Note_on_c, 7, 76, 74
1, 175680, Note_on_c, 8, 57, 100
1, 175680, Note_on_c, 8, 61, 100
1, 175680, Note_on_c, 13, 30, 100
1, 175680, Note_on_c, 13, 42, 100
1, 175920, Note_off_c, 7, 64, 0
1, 175920, Note_off_c, 7, 76, 0
1, 175930, Note_off_c, 7, 69, 0
1, 175962, Note_on_c, 10, 64, 68
1, 175962, Note_on_c, 10, 69, 70
1, 175962, Note_on_c, 10, 76, 74
1, 175972, Note_off_c, 8, 57, 0
1, 175972, Note_off_c, 8, 61, 0
1, 175972, Note_off_c, 13, 30, 0
1, 175972, Note_off_c, 13, 42, 0
1, 176152, Note_off_c, 0, 57, 64
1, 176152, Note_off_c, 0, 66, 64
1, 176152, Note_off_c, 2, 69, 64
1, 176152, Note_off_c, 2, 78, 64
1, 176152, Note_off_c, 3, 64, 64
1, 176152, Note_off_c, 3, 69, 64
1, 176152, Note_off_c, 4, 78, 0
1, 176152, Note_off_c, 5, 69, 0
1, 176160, Note_on_c, 6, 64, 67
1, 176160, Note_on_c, 6, 69, 67
1, 176160, Note_on_c, 6, 76, 72
1, 176160, Note_on_c, 8, 30, 100
1, 176160, Note_on_c, 8, 42, 100
1, 176160, Note_on_c, 13, 57, 100
1, 176160, Note_on_c, 13, 61, 100
1, 176194, Note_off_c, 10, 69, 0
1, 176204, Note_off_c, 10, 64, 0
1, 176212, Note_off_c, 10, 76, 0
1, 176348, Note_off_c, 1, 66, 0
1, 176406, Note_off_c, 6, 64, 0
1, 176410, Note_off_c, 6, 69, 0
1, 176426, Note_off_c, 6, 76, 0
1, 176452, Note_off_c, 8, 30, 0
1, 176452, Note_off_c, 8, 42, 0
1, 176452, Note_off_c, 13, 57, 0
1, 176452, Note_off_c, 13, 61, 0
1, 176640, Note_on_c, 0, 59, 100
1, 176640, Note_on_c, 0, 68, 100
1, 176640, Note_on_c, 1, 59, 74
1, 176640, Note_on_c, 2, 71, 100
1, 176640, Note_on_c, 2, 80, 100
1, 176640, Note_on_c, 3, 71, 100
1, 176640, Note_on_c, 3, 76, 100
1, 176640, Note_on_c, 4, 80, 100
1, 176640, Note_on_c, 5, 71, 100
1, 176640, Note_on_c, 7, 64, 67
1, 176640, Note_on_c, 7, 69, 78
1, 176640, Note_on_c, 7, 76, 73
1, 176640, Note_on_c, 8, 57, 100
1, 176640, Note_on_c, 8, 61, 100
1, 176640, Note_on_c, 13, 30, 100
1, 176640, Note_on_c, 13, 42, 100
1, 176890, Note_off_c, 7, 76, 0
1, 176896, Note_off_c, 7, 69, 0
1, 176904, Note_off_c, 7, 64, 0
1, 176922, Note_on_c, 10, 64, 68
1, 176922, Note_on_c, 10, 69, 69
1, 176922, Note_on_c, 10, 76, 72
1, 176932, Note_off_c, 8, 57, 0
1, 176932, Note_off_c, 8, 61, 0
1, 176932, Note_off_c, 13, 30, 0
1, 176932, Note_off_c, 13, 42, 0
1, 177112, Note_off_c, 0, 59, 64
1, 177112, Note_off_c, 0, 68, 64
1, 177112, Note_off_c, 2, 71, 64
1, 177112, Note_off_c, 2, 80, 64
1, 177112, Note_off_c, 3, 71, 64
1, 177112, Note_off_c, 3, 76, 64
1, 177112, Note_off_c, 4, 80, 0
1, 177112, Note_off_c, 5, 71, 0
1, 177120, Note_on_c, 0, 57, 100
1, 177120, Note_on_c, 0, 66, 100
1, 177120, Note_on_c, 1, 69, 75
1, 177120, Note_on_c, 2, 69, 100
1, 177120, Note_on_c, 2, 78, 100
1, 177120, Note_on_c, 3, 66, 100
1, 177120, Note_on_c, 3, 69, 100
1, 177120, Note_on_c, 4, 78, 100
1, 177120, Note_on_c, 5, 69, 100
1, 177120, Note_on_c, 6, 64, 67
1, 177120, Note_on_c, 6, 69, 63
1, 177120, Note_on_c, 6, 76, 72
1, 177120, Note_on_c, 8, 30, 100
1, 177120, Note_on_c, 8, 42, 100
1, 177120, Note_on_c, 13, 57, 100
1, 177120, Note_on_c, 13, 61, 100
1, 177128, Note_off_c, 1, 59, 0
1, 177138, Note_off_c, 10, 76, 0
1, 177140, Note_off_c, 10, 69, 0
1, 177154, Note_off_c, 10, 64, 0
1, 177368, Note_off_c, 6, 69, 0
1, 177396, Note_off_c, 6, 64, 0
1, 177412, Note_off_c, 6, 76, 0
1, 177412, Note_off_c, 8, 30, 0
1, 177412, Note_off_c, 8, 42, 0
1, 177412, Note_off_c, 13, 57, 0
1, 177412, Note_off_c, 13, 61, 0
1, 177592, Note_off_c, 0, 57, 64
1, 177592, Note_off_c, 0, 66, 64
1, 177592, Note_off_c, 2, 69, 64
1, 177592, Note_off_c, 2, 78, 64
1, 177592, Note_off_c, 3, 66, 64
1, 177592, Note_off_c, 3, 69, 64
1, 177592, Note_off_c, 4, 78, 0
1, 177592, Note_off_c, 5, 69, 0
1, 177600, Note_on_c, 0, 61, 100
1, 177600, Note_on_c, 0, 69, 100
1, 177600, Note_on_c, 1, 64, 73
1, 177600, Note_on_c, 2, 73, 100
1, 177600, Note_on_c, 2, 81, 100
1, 177600, Note_on_c, 3, 73, 100
1, 177600, Note_on_c, 3, 76, 100
1, 177600, Note_on_c, 4, 81, 100
1, 177600, Note_on_c, 5, 73, 100
1, 177600, Note_on_c, 7, 64, 69
1, 177600, Note_on_c, 7, 69, 70
1, 177600, Note_on_c, 7, 76, 73
1, 177600, Note_on_c, 8, 57, 100
1, 177600, Note_on_c, 8, 61, 100
1, 177600, Note_on_c, 13, 30, 100
1, 177600, Note_on_c, 13, 42, 100
1, 177726, Note_off_c, 1, 69, 0
1, 177820, Note_off_c, 7, 69, 0
1, 177842, Note_off_c, 7, 76, 0
1, 177852, Note_off_c, 7, 64, 0
1, 177882, Note_on_c, 10, 64, 67
1, 177882, Note_on_c, 10, 69, 67
1, 177882, Note_on_c, 10, 76, 72
1, 177892, Note_off_c, 8, 57, 0
1, 177892, Note_off_c, 8, 61, 0
1, 177892, Note_off_c, 13, 30, 0
1, 177892, Note_off_c, 13, 42, 0
1, 178072, Note_off_c, 0, 61, 64
1, 178072, Note_off_c, 0, 69, 64
1, 178072, Note_off_c, 2, 73, 64
1, 178072, Note_off_c, 2, 81, 64
1, 178072, Note_off_c, 3, 73, 64
1, 178072, Note_off_c, 3, 76, 64
1, 178072, Note_off_c, 4, 81, 0
1, 178072, Note_off_c, 5, 73, 0
1, 178080, Note_on_c, 6, 64, 68
1, 178080, Note_on_c, 6, 69, 66
1, 178080, Note_on_c, 6, 76, 70
1, 178080, Note_on_c, 8, 30, 100
1, 178080, Note_on_c, 8, 42, 100
1, 178080, Note_on_c, 13, 57, 100
1, 178080, Note_on_c, 13, 61, 100
1, 178128, Note_off_c, 10, 64, 0
1, 178132, Note_off_c, 10, 69, 0
1, 178148, Note_off_c, 10, 76, 0
1, 178276, Note_off_c, 6, 69, 0
1, 178300, Note_off_c, 6, 64, 0
1, 178306, Note_off_c, 1, 64, 0
1, 178318, Note_off_c, 6, 76, 0
1, 178372, Note_off_c, 8, 30, 0
1, 178372, Note_off_c, 8, 42, 0
1, 178372, Note_off_c, 13, 57, 0
1, 178372, Note_off_c, 13, 61, 0
1, 178560, Note_on_c, 0, 59, 100
1, 178560, Note_on_c, 0, 68, 100
1, 178560, Note_on_c, 1, 66, 68
1, 178560, Note_on_c, 2, 71, 100
1, 178560, Note_on_c, 2, 80, 100
1, 178560, Note_on_c, 3, 71, 100
1, 178560, Note_on_c, 3, 76, 100
1, 178560, Note_on_c, 4, 80, 100
1, 178560, Note_on_c, 5, 71, 100
1, 178560, Note_on_c, 7, 64, 69
1, 178560, Note_on_c, 7, 69, 75
1, 178560, Note_on_c, 7, 76, 73
1, 178560, Note_on_c, 8, 56, 100
1, 178560, Note_on_c, 8, 61, 100
1, 178560, Note_on_c, 13, 37, 100
1, 178560, Note_on_c, 13, 49, 100
1, 178774, Note_off_c, 7, 69, 0
1, 178790, Note_off_c, 7, 64, 0
1, 178804, Note_off_c, 7, 76, 0
1, 178842, Note_on_c, 10, 64, 67
1, 178842, Note_on_c, 10, 69, 63
1, 178842, Note_on_c, 10, 76, 72
1, 178852, Note_off_c, 8, 56, 0
1, 178852, Note_off_c, 8, 61, 0
1, 178852, Note_off_c, 13, 37, 0
1, 178852, Note_off_c, 13, 49, 0
1, 179032, Note_off_c, 0, 59, 64
1, 179032, Note_off_c, 0, 68, 64
1, 179032, Note_off_c, 2, 71, 64
1, 179032, Note_off_c, 2, 80, 64
1, 179032, Note_off_c, 3, 71, 64
1, 179032, Note_off_c, 3, 76, 64
1, 179032, Note_off_c, 4, 80, 0
1, 179032, Note_off_c, 5, 71, 0
1, 179040, Note_on_c, 0, 57, 100
1, 179040, Note_on_c, 0, 66, 100
1, 179040, Note_on_c, 1, 61, 68
1, 179040, Note_on_c, 2, 69, 100
1, 179040, Note_on_c, 2, 78, 100
1, 179040, Note_on_c, 3, 64, 100
1, 179040, Note_on_c, 3, 69, 100
1, 179040, Note_on_c, 4, 78, 100
1, 179040, Note_on_c, 5, 69, 100
1, 179040, Note_on_c, 6, 64, 68
1, 179040, Note_on_c, 6, 69, 63
1, 179040, Note_on_c, 6, 76, 72
1, 179040, Note_on_c, 8, 37, 100
1, 179040, Note_on_c, 8, 49, 100
1, 179040, Note_on_c, 13, 56, 100
1, 179040, Note_on_c, 13, 61, 100
1, 179076, Note_off_c, 1, 66, 0
1, 179090, Note_off_c, 10, 69, 0
1, 179118, Note_off_c, 10, 64, 0
1, 179134, Note_off_c, 10, 76, 0
1, 179250, Note_off_c, 6, 64, 0
1, 179284, Note_off_c, 6, 76, 0
1, 179302, Note_off_c, 6, 69, 0
1, 179332, Note_off_c, 8, 37, 0
1, 179332, Note_off_c, 8, 49, 0
1, 179332, Note_off_c, 13, 56, 0
1, 179332, Note_off_c, 13, 61, 0
1, 179512, Note_off_c, 0, 57, 64
1, 179512, Note_off_c, 0, 66, 64
1, 179512, Note_off_c, 2, 69, 64
1, 179512, Note_off_c, 2, 78, 64
1, 179512, Note_off_c, 3, 64, 64
1, 179512, Note_off_c, 3, 69, 64
1, 179512, Note_off_c, 4, 78, 0
1, 179512, Note_off_c, 5, 69, 0
1, 179520, Note_on_c, 7, 64, 68
1, 179520, Note_on_c, 7, 69, 74
1, 179520, Note_on_c, 7, 76, 74
1, 179520, Note_on_c, 8, 56, 100
1, 179520, Note_on_c, 8, 61, 100
1, 179520, Note_on_c, 13, 37, 100
1, 179520, Note_on_c, 13, 49, 100
1, 179744, Note_off_c, 7, 69, 0
1, 179784, Note_off_c, 7, 64, 0
1, 179794, Note_off_c, 7, 76, 0
1, 179802, Note_on_c, 10, 64, 68
1, 179802, Note_on_c, 10, 69, 66
1, 179802, Note_on_c, 10, 76, 70
1, 179810, Note_off_c, 1, 61, 0
1, 179812, Note_off_c, 8, 56, 0
1, 179812, Note_off_c, 8, 61, 0
1, 179812, Note_off_c, 13, 37, 0
1, 179812, Note_off_c, 13, 49, 0
1, 179998, Note_off_c, 10, 69, 0
1, 180000, Note_on_c, 0, 59, 100
1, 180000, Note_on_c, 0, 68, 100
1, 180000, Note_on_c, 1, 69, 77
1, 180000, Note_on_c, 2, 71, 100
1, 180000, Note_on_c, 2, 80, 100
1, 180000, Note_on_c, 3, 71, 100
1, 180000, Note_on_c, 3, 76, 100
1, 180000, Note_on_c, 4, 80, 100
1, 180000, Note_on_c, 5, 71, 100
1, 180000, Note_on_c, 6, 64, 70
1, 180000, Note_on_c, 6, 69, 69
1, 180000, Note_on_c, 6, 76, 72
1, 180000, Note_on_c, 8, 37, 100
1, 180000, Note_on_c, 8, 49, 100
1, 180000, Note_on_c, 13, 56, 100
1, 180000, Note_on_c, 13, 61, 100
1, 180022, Note_off_c, 10, 64, 0
1, 180040, Note_off_c, 10, 76, 0
1, 180234, Note_off_c, 6, 69, 0
1, 180262, Note_off_c, 6, 64, 0
1, 180262, Note_off_c, 6, 76, 0
1, 180292, Note_off_c, 8, 37, 0
1, 180292, Note_off_c, 8, 49, 0
1, 180292, Note_off_c, 13, 56, 0
1, 180292, Note_off_c, 13, 61, 0
1, 180472, Note_off_c, 0, 59, 64
1, 180472, Note_off_c, 0, 68, 64
1, 180472, Note_off_c, 2, 71, 64
1, 180472, Note_off_c, 2, 80, 64
1, 180472, Note_off_c, 3, 71, 64
1, 180472, Note_off_c, 3, 76, 64
1, 180472, Note_off_c, 4, 80, 0
1, 180472, Note_off_c, 5, 71, 0
1, 180480, Note_on_c, 7, 64, 68
1, 180480, Note_on_c, 7, 69, 73
1, 180480, Note_on_c, 7, 76, 73
1, 180480, Note_on_c, 8, 56, 100
1, 180480, Note_on_c, 8, 61, 100
1, 180480, Note_on_c, 13, 37, 100
1, 180480, Note_on_c, 13, 49, 100
1, 180624, Note_off_c, 1, 69, 0
1, 180704, Note_off_c, 7, 64, 0
1, 180728, Note_off_c, 7, 69, 0
1, 180728, Note_off_c, 7, 76, 0
1, 180762, Note_on_c, 10, 64, 68
1, 180762, Note_on_c, 10, 69, 63
1, 180762, Note_on_c, 10, 76, 72
1, 180772, Note_off_c, 8, 56, 0
1, 180772, Note_off_c, 8, 61, 0
1, 180772, Note_off_c, 13, 37, 0
1, 180772, Note_off_c, 13, 49, 0
1, 180960, Note_on_c, 0, 61, 100
1, 180960, Note_on_c, 0, 69, 100
1, 180960, Note_on_c, 1, 64, 70
1, 180960, Note_on_c, 2, 73, 100
1, 180960, Note_on_c, 2, 81, 100
1, 180960, Note_on_c, 3, 73, 100
1, 180960, Note_on_c, 3, 76, 100
1, 180960, Note_on_c, 4, 81, 100
1, 180960, Note_on_c, 5, 73, 100
1, 180960, Note_on_c, 6, 64, 68
1, 180960, Note_on_c, 6, 69, 70
1, 180960, Note_on_c, 6, 76, 70
1, 180960, Note_on_c, 8, 37, 100
1, 180960, Note_on_c, 8, 49, 100
1, 180960, Note_on_c, 13, 56, 100
1, 180960, Note_on_c, 13, 61, 100
1, 180972, Note_off_c, 10, 64, 0
1, 181006, Note_off_c, 10, 76, 0
1, 181024, Note_off_c, 10, 69, 0
1, 181168, Note_off_c, 6, 64, 0
1, 181196, Note_off_c, 6, 69, 0
1, 181200, Note_off_c, 6, 76, 0
1, 181252, Note_off_c, 8, 37, 0
1, 181252, Note_off_c, 8, 49, 0
1, 181252, Note_off_c, 13, 56, 0
1, 181252, Note_off_c, 13, 61, 0
1, 181432, Note_off_c, 0, 61, 64
1, 181432, Note_off_c, 0, 69, 64
1, 181432, Note_off_c, 2, 73, 64
1, 181432, Note_off_c, 2, 81, 64
1, 181432, Note_off_c, 3, 73, 64
1, 181432, Note_off_c, 3, 76, 64
1, 181432, Note_off_c, 4, 81, 0
1, 181432, Note_off_c, 5, 73, 0
1, 181440, Note_on_c, 0, 57, 100
1, 181440, Note_on_c, 0, 66, 100
1, 181440, Note_on_c, 1, 66, 77
1, 181440, Note_on_c, 2, 69, 100
1, 181440, Note_on_c, 2, 78, 100
1, 181440, Note_on_c, 3, 64, 100
1, 181440, Note_on_c, 3, 69, 100
1, 181440, Note_on_c, 4, 78, 100
1, 181440, Note_on_c, 5, 69, 100
1, 181440, Note_on_c, 7, 64, 66
1, 181440, Note_on_c, 7, 69, 74
1, 181440, Note_on_c, 7, 76, 73
1, 181440, Note_on_c, 8, 57, 100
1, 181440, Note_on_c, 8, 61, 100
1, 181440, Note_on_c, 13, 30, 100
1, 181440, Note_on_c, 13, 42, 100
1, 181592, Note_off_c, 1, 64, 0
1, 181674, Note_off_c, 7, 64, 0
1, 181694, Note_off_c, 7, 76, 0
1, 181722, Note_off_c, 7, 69, 0
1, 181722, Note_on_c, 10, 64, 70
1, 181722, Note_on_c, 10, 69, 69
1, 181722, Note_on_c, 10, 76, 72
1, 181732, Note_off_c, 8, 57, 0
1, 181732, Note_off_c, 8, 61, 0
1, 181732, Note_off_c, 13, 30, 0
1, 181732, Note_off_c, 13, 42, 0
1, 181912, Note_off_c, 0, 57, 64
1, 181912, Note_off_c, 0, 66, 64
1, 181912, Note_off_c, 2, 69, 64
1, 181912, Note_off_c, 2, 78, 64
1, 181912, Note_off_c, 3, 64, 64
1, 181912, Note_off_c, 3, 69, 64
1, 181912, Note_off_c, 4, 78, 0
1, 181912, Note_off_c, 5, 69, 0
1, 181920, Note_on_c, 6, 64, 67
1, 181920, Note_on_c, 6, 69, 73
1, 181920, Note_on_c, 6, 76, 74
1, 181920, Note_on_c, 8, 30, 100
1, 181920, Note_on_c, 8, 42, 100
1, 181920, Note_on_c, 13, 57, 100
1, 181920, Note_on_c, 13, 61, 100
1, 181956, Note_off_c, 10, 69, 0
1, 181984, Note_off_c, 10, 64, 0
1, 181984, Note_off_c, 10, 76, 0
1, 182084, Note_off_c, 1, 66, 0
1, 182136, Note_off_c, 6, 64, 0
1, 182156, Note_off_c, 6, 76, 0
1, 182166, Note_off_c, 6, 69, 0
1, 182212, Note_off_c, 8, 30, 0
1, 182212, Note_off_c, 8, 42, 0
1, 182212, Note_off_c, 13, 57, 0
1, 182212, Note_off_c, 13, 61, 0
1, 182400, Note_on_c, 0, 59, 100
1, 182400, Note_on_c, 0, 68, 100
1, 182400, Note_on_c, 1, 59, 65
1, 182400, Note_on_c, 2, 71, 100
1, 182400, Note_on_c, 2, 80, 100
1, 182400, Note_on_c, 3, 71, 100
1, 182400, Note_on_c, 3, 76, 100
1, 182400, Note_on_c, 4, 80, 100
1, 182400, Note_on_c, 5, 71, 100
1, 182400, Note_on_c, 7, 64, 66
1, 182400, Note_on_c, 7, 69, 77
1, 182400, Note_on_c, 7, 76, 70
1, 182400, Note_on_c, 8, 57, 100
1, 182400, Note_on_c, 8, 61, 100
1, 182400, Note_on_c, 13, 30, 100
1, 182400, Note_on_c, 13, 42, 100
1, 182628, Note_off_c, 7, 64, 0
1, 182682, Note_on_c, 10, 64, 68
1, 182682, Note_on_c, 10, 69, 70
1, 182682, Note_on_c, 10, 76, 70
1, 182686, Note_off_c, 7, 69, 0
1, 182692, Note_off_c, 8, 57, 0
1, 182692, Note_off_c, 8, 61, 0
1, 182692, Note_off_c, 13, 30, 0
1, 182692, Note_off_c, 13, 42, 0
1, 182710, Note_off_c, 7, 76, 0
1, 182872, Note_off_c, 0, 59, 64
1, 182872, Note_off_c, 0, 68, 64
1, 182872, Note_off_c, 2, 71, 64
1, 182872, Note_off_c, 2, 80, 64
1, 182872, Note_off_c, 3, 71, 64
1, 182872, Note_off_c, 3, 76, 64
1, 182872, Note_off_c, 4, 80, 0
1, 182872, Note_off_c, 5, 71, 0
1, 182880, Note_on_c, 0, 57, 100
1, 182880, Note_on_c, 0, 66, 100
1, 182880, Note_on_c, 1, 69, 74
1, 182880, Note_on_c, 2, 69, 100
1, 182880, Note_on_c, 2, 78, 100
1, 182880, Note_on_c, 3, 66, 100
1, 182880, Note_on_c, 3, 69, 100
1, 182880, Note_on_c, 4, 78, 100
1, 182880, Note_on_c, 5, 69, 100
1, 182880, Note_on_c, 6, 64, 68
1, 182880, Note_on_c, 6, 69, 74
1, 182880, Note_on_c, 6, 76, 75
1, 182880, Note_on_c, 8, 30, 100
1, 182880, Note_on_c, 8, 42, 100
1, 182880, Note_on_c, 13, 57, 100
1, 182880, Note_on_c, 13, 61, 100
1, 182890, Note_off_c, 10, 64, 0
1, 182918, Note_off_c, 10, 69, 0
1, 182922, Note_off_c, 10, 76, 0
1, 182974, Note_off_c, 1, 59, 0
1, 183152, Note_off_c, 6, 69, 0
1, 183156, Note_off_c, 6, 64, 0
1, 183170, Note_off_c, 6, 76, 0
1, 183172, Note_off_c, 8, 30, 0
1, 183172, Note_off_c, 8, 42, 0
1, 183172, Note_off_c, 13, 57, 0
1, 183172, Note_off_c, 13, 61, 0
1, 183352, Note_off_c, 0, 57, 64
1, 183352, Note_off_c, 0, 66, 64
1, 183352, Note_off_c, 2, 69, 64
1, 183352, Note_off_c, 2, 78, 64
1, 183352, Note_off_c, 3, 66, 64
1, 183352, Note_off_c, 3, 69, 64
1, 183352, Note_off_c, 4, 78, 0
1, 183352, Note_off_c, 5, 69, 0
1, 183360, Note_on_c, 0, 61, 100
1, 183360, Note_on_c, 0, 69, 100
1, 183360, Note_on_c, 1, 64, 68
1, 183360, Note_on_c, 2, 73, 100
1, 183360, Note_on_c, 2, 81, 100
1, 183360, Note_on_c, 3, 73, 100
1, 183360, Note_on_c, 3, 76, 100
1, 183360, Note_on_c, 4, 81, 100
1, 183360, Note_on_c, 5, 73, 100
1, 183360, Note_on_c, 7, 64, 65
1, 183360, Note_on_c, 7, 69, 72
1, 183360, Note_on_c, 7, 76, 72
1, 183360, Note_on_c, 8, 57, 100
1, 183360, Note_on_c, 8, 61, 100
1, 183360, Note_on_c, 13, 30, 100
1, 183360, Note_on_c, 13, 42, 100
1, 183572, Note_off_c, 1, 69, 0
1, 183636, Note_off_c, 7, 64, 0
1, 183642, Note_on_c, 10, 64, 67
1, 183642, Note_on_c, 10, 69, 73
1, 183642, Note_on_c, 10, 76, 74
1, 183650, Note_off_c, 7, 69, 0
1, 183652, Note_off_c, 7, 76, 0
1, 183652, Note_off_c, 8, 57, 0
1, 183652, Note_off_c, 8, 61, 0
1, 183652, Note_off_c, 13, 30, 0
1, 183652, Note_off_c, 13, 42, 0
1, 183832, Note_off_c, 0, 61, 64
1, 183832, Note_off_c, 0, 69, 64
1, 183832, Note_off_c, 2, 73, 64
1, 183832, Note_off_c, 2, 81, 64
1, 183832, Note_off_c, 3, 73, 64
1, 183832, Note_off_c, 3, 76, 64
1, 183832, Note_off_c, 4, 81, 0
1, 183832, Note_off_c, 5, 73, 0
1, 183840, Note_on_c, 6, 64, 73
1, 183840, Note_on_c, 6, 69, 80
1, 183840, Note_on_c, 6, 76, 77
1, 183840, Note_on_c, 8, 30, 100
1, 183840, Note_on_c, 8, 42, 100
1, 183840, Note_on_c, 13, 57, 100
1, 183840, Note_on_c, 13, 61, 100
1, 183858, Note_off_c, 10, 64, 0
1, 183878, Note_off_c, 10, 76, 0
1, 183888, Note_off_c, 10, 69, 0
1, 183974, Note_off_c, 1, 64, 0
1, 184102, Note_off_c, 6, 64, 0
1, 184118, Note_off_c, 6, 69, 0
1, 184128, Note_off_c, 6, 76, 0
1, 184132, Note_off_c, 8, 30, 0
1, 184132, Note_off_c, 8, 42, 0
1, 184132, Note_off_c, 13, 57, 0
1, 184132, Note_off_c, 13, 61, 0
1, 184320, Note_on_c, 0, 59, 100
1, 184320, Note_on_c, 0, 68, 100
1, 184320, Note_on_c, 1, 66, 77
1, 184320, Note_on_c, 2, 71, 100
1, 184320, Note_on_c, 2, 80, 100
1, 184320, Note_on_c, 3, 71, 100
1, 184320, Note_on_c, 3, 76, 100
1, 184320, Note_on_c, 4, 80, 100
1, 184320, Note_on_c, 5, 71, 100
1, 184320, Note_on_c, 7, 64, 67
1, 184320, Note_on_c, 7, 69, 75
1, 184320, Note_on_c, 7, 76, 70
1, 184320, Note_on_c, 8, 57, 100
1, 184320, Note_on_c, 8, 61, 100
1, 184320, Note_on_c, 13, 30, 100
1, 184320, Note_on_c, 13, 42, 100
1, 184550, Note_off_c, 7, 69, 0
1, 184568, Note_off_c, 7, 64, 0
1, 184578, Note_off_c, 7, 76, 0
1, 184602, Note_on_c, 10, 64, 68
1, 184602, Note_on_c, 10, 69, 74
1, 184602, Note_on_c, 10, 76, 75
1, 184612, Note_off_c, 8, 57, 0
1, 184612, Note_off_c, 8, 61, 0
1, 184612, Note_off_c, 13, 30, 0
1, 184612, Note_off_c, 13, 42, 0
1, 184792, Note_off_c, 0, 59, 64
1, 184792, Note_off_c, 0, 68, 64
1, 184792, Note_off_c, 2, 71, 64
1, 184792, Note_off_c, 2, 80, 64
1, 184792, Note_off_c, 3, 71, 64
1, 184792, Note_off_c, 3, 76, 64
1, 184792, Note_off_c, 4, 80, 0
1, 184792, Note_off_c, 5, 71, 0
1, 184800, Note_on_c, 0, 57, 100
1, 184800, Note_on_c, 0, 66, 100
1, 184800, Note_on_c, 1, 61, 70
1, 184800, Note_on_c, 2, 69, 100
1, 184800, Note_on_c, 2, 78, 100
1, 184800, Note_on_c, 3, 64, 100
1, 184800, Note_on_c, 3, 69, 100
1, 184800, Note_on_c, 4, 78, 100
1, 184800, Note_on_c, 5, 69, 100
1, 184800, Note_on_c, 6, 64, 68
1, 184800, Note_on_c, 6, 69, 70
1, 184800, Note_on_c, 6, 76, 74
1, 184800, Note_on_c, 8, 30, 100
1, 184800, Note_on_c, 8, 42, 100
1, 184800, Note_on_c, 13, 57, 100
1, 184800, Note_on_c, 13, 61, 100
1, 184874, Note_off_c, 10, 69, 0
1, 184878, Note_off_c, 10, 64, 0
1, 184892, Note_off_c, 10, 76, 0
1, 184962, Note_off_c, 1, 66, 0
1, 185086, Note_off_c, 6, 64, 0
1, 185092, Note_off_c, 8, 30, 0
1, 185092, Note_off_c, 8, 42, 0
1, 185092, Note_off_c, 13, 57, 0
1, 185092, Note_off_c, 13, 61, 0
1, 185098, Note_off_c, 6, 69, 0
1, 185098, Note_off_c, 6, 76, 0
1, 185272, Note_off_c, 0, 57, 64
1, 185272, Note_off_c, 0, 66, 64
1, 185272, Note_off_c, 2, 69, 64
1, 185272, Note_off_c, 2, 78, 64
1, 185272, Note_off_c, 3, 64, 64
1, 185272, Note_off_c, 3, 69, 64
1, 185272, Note_off_c, 4, 78, 0
1, 185272, Note_off_c, 5, 69, 0
1, 185280, Note_on_c, 7, 64, 66
1, 185280, Note_on_c, 7, 69, 68
1, 185280, Note_on_c, 7, 76, 72
1, 185280, Note_on_c, 8, 56, 100
1, 185280, Note_on_c, 8, 61, 100
1, 185280, Note_on_c, 13, 37, 100
1, 185280, Note_on_c, 13, 49, 100
1, 185428, Note_off_c, 1, 61, 0
1, 185540, Note_off_c, 7, 69, 0
1, 185550, Note_off_c, 7, 64, 0
1, 185554, Note_off_c, 7, 76, 0
1, 185562, Note_on_c, 10, 64, 73
1, 185562, Note_on_c, 10, 69, 80
1, 185562, Note_on_c, 10, 76, 77
1, 185572, Note_off_c, 8, 56, 0
1, 185572, Note_off_c, 8, 61, 0
1, 185572, Note_off_c, 13, 37, 0
1, 185572, Note_off_c, 13, 49, 0
1, 185760, Note_on_c, 0, 59, 100
1, 185760, Note_on_c, 0, 68, 100
1, 185760, Note_on_c, 1, 69, 77
1, 185760, Note_on_c, 2, 71, 100
1, 185760, Note_on_c, 2, 80, 100
1, 185760, Note_on_c, 3, 71, 100
1, 185760, Note_on_c, 3, 76, 100
1, 185760, Note_on_c, 4, 80, 100
1, 185760, Note_on_c, 5, 71, 100
1, 185760, Note_on_c, 6, 64, 70
1, 185760, Note_on_c, 6, 69, 74
1, 185760, Note_on_c, 6, 76, 74
1, 185760, Note_on_c, 8, 37, 100
1, 185760, Note_on_c, 8, 49, 100
1, 185760, Note_on_c, 13, 56, 100
1, 185760, Note_on_c, 13, 61, 100
1, 185824, Note_off_c, 10, 64, 0
1, 185840, Note_off_c, 10, 69, 0
1, 185850, Note_off_c, 10, 76, 0
1, 185964, Note_off_c, 6, 64, 0
1, 185994, Note_off_c, 6, 76, 0
1, 186032, Note_off_c, 6, 69, 0
1, 186052, Note_off_c, 8, 37, 0
1, 186052, Note_off_c, 8, 49, 0
1, 186052, Note_off_c, 13, 56, 0
1, 186052, Note_off_c, 13, 61, 0
1, 186232, Note_off_c, 0, 59, 64
1, 186232, Note_off_c, 0, 68, 64
1, 186232, Note_off_c, 2, 71, 64
1, 186232, Note_off_c, 2, 80, 64
1, 186232, Note_off_c, 3, 71, 64
1, 186232, Note_off_c, 3, 76, 64
1, 186232, Note_off_c, 4, 80, 0
1, 186232, Note_off_c, 5, 71, 0
1, 186240, Note_on_c, 7, 64, 62
1, 186240, Note_on_c, 7, 69, 60
1, 186240, Note_on_c, 7, 76, 70
1, 186240, Note_on_c, 8, 56, 100
1, 186240, Note_on_c, 8, 61, 100
1, 186240, Note_on_c, 13, 37, 100
1, 186240, Note_on_c, 13, 49, 100
1, 186408, Note_off_c, 1, 69, 0
1, 186500, Note_off_c, 7, 69, 0
1, 186518, Note_off_c, 7, 64, 0
1, 186522, Note_on_c, 10, 64, 68
1, 186522, Note_on_c, 10, 69, 70
1, 186522, Note_on_c, 10, 76, 74
1, 186532, Note_off_c, 8, 56, 0
1, 186532, Note_off_c, 8, 61, 0
1, 186532, Note_off_c, 13, 37, 0
1, 186532, Note_off_c, 13, 49, 0
1, 186578, Note_off_c, 7, 76, 0
1, 186720, Note_on_c, 0, 61, 100
1, 186720, Note_on_c, 0, 69, 100
1, 186720, Note_on_c, 1, 64, 68
1, 186720, Note_on_c, 2, 73, 100
1, 186720, Note_on_c, 2, 81, 100
1, 186720, Note_on_c, 3, 73, 100
1, 186720, Note_on_c, 3, 76, 100
1, 186720, Note_on_c, 4, 81, 100
1, 186720, Note_on_c, 5, 73, 100
1, 186720, Note_on_c, 6, 64, 68
1, 186720, Note_on_c, 6, 69, 68
1, 186720, Note_on_c, 6, 76, 72
1, 186720, Note_on_c, 8, 37, 100
1, 186720, Note_on_c, 8, 49, 100
1, 186720, Note_on_c, 13, 56, 100
1, 186720, Note_on_c, 13, 61, 100
1, 186808, Note_off_c, 10, 64, 0
1, 186820, Note_off_c, 10, 69, 0
1, 186820, Note_off_c, 10, 76, 0
1, 186926, Note_off_c, 6, 69, 0
1, 186934, Note_off_c, 6, 64, 0
1, 186944, Note_off_c, 6, 76, 0
1, 187012, Note_off_c, 8, 37, 0
1, 187012, Note_off_c, 8, 49, 0
1, 187012, Note_off_c, 13, 56, 0
1, 187012, Note_off_c, 13, 61, 0
1, 187164, Note_off_c, 1, 64, 0
1, 187192, Note_off_c, 0, 61, 64
1, 187192, Note_off_c, 0, 69, 64
1, 187192, Note_off_c, 2, 73, 64
1, 187192, Note_off_c, 2, 81, 64
1, 187192, Note_off_c, 3, 73, 64
1, 187192, Note_off_c, 3, 76, 64
1, 187192, Note_off_c, 4, 81, 0
1, 187192, Note_off_c, 5, 73, 0
1, 187200, Note_on_c, 0, 57, 100
1, 187200, Note_on_c, 0, 66, 100
1, 187200, Note_on_c, 1, 66, 78
1, 187200, Note_on_c, 2, 69, 100
1, 187200, Note_on_c, 2, 78, 100
1, 187200, Note_on_c, 3, 64, 100
1, 187200, Note_on_c, 3, 69, 100
1, 187200, Note_on_c, 4, 78, 100
1, 187200, Note_on_c, 5, 69, 100
1, 187200, Note_on_c, 7, 64, 56
1, 187200, Note_on_c, 7, 69, 69
1, 187200, Note_on_c, 7, 76, 73
1, 187200, Note_on_c, 8, 57, 100
1, 187200, Note_on_c, 8, 61, 100
1, 187200, Note_on_c, 13, 30, 100
1, 187200, Note_on_c, 13, 42, 100
1, 187466, Note_off_c, 7, 64, 0
1, 187482, Note_on_c, 10, 64, 70
1, 187482, Note_on_c, 10, 69, 74
1, 187482, Note_on_c, 10, 76, 74
1, 187492, Note_off_c, 8, 57, 0
1, 187492, Note_off_c, 8, 61, 0
1, 187492, Note_off_c, 13, 30, 0
1, 187492, Note_off_c, 13, 42, 0
1, 187494, Note_off_c, 7, 69, 0
1, 187502, Note_off_c, 7, 76, 0
1, 187672, Note_off_c, 0, 57, 64
1, 187672, Note_off_c, 0, 66, 64
1, 187672, Note_off_c, 2, 69, 64
1, 187672, Note_off_c, 2, 78, 64
1, 187672, Note_off_c, 3, 64, 64
1, 187672, Note_off_c, 3, 69, 64
1, 187672, Note_off_c, 4, 78, 0
1, 187672, Note_off_c, 5, 69, 0
1, 187680, Note_on_c, 6, 64, 70
1, 187680, Note_on_c, 6, 69, 70
1, 187680, Note_on_c, 6, 76, 75
1, 187680, Note_on_c, 8, 30, 100
1, 187680, Note_on_c, 8, 42, 100
1, 187680, Note_on_c, 13, 57, 100
1, 187680, Note_on_c, 13, 61, 100
1, 187686, Note_off_c, 10, 64, 0
1, 187716, Note_off_c, 10, 76, 0
1, 187754, Note_off_c, 10, 69, 0
1, 187868, Note_off_c, 1, 66, 0
1, 187908, Note_off_c, 6, 69, 0
1, 187950, Note_off_c, 6, 64, 0
1, 187972, Note_off_c, 8, 30, 0
1, 187972, Note_off_c, 8, 42, 0
1, 187972, Note_off_c, 13, 57, 0
1, 187972, Note_off_c, 13, 61, 0
1, 187988, Note_off_c, 6, 76, 0
1, 188160, Note_on_c, 0, 59, 100
1, 188160, Note_on_c, 0, 68, 100
1, 188160, Note_on_c, 1, 59, 74
1, 188160, Note_on_c, 2, 71, 100
1, 188160, Note_on_c, 2, 80, 100
1, 188160, Note_on_c, 3, 71, 100
1, 188160, Note_on_c, 3, 76, 100
1, 188160, Note_on_c, 4, 80, 100
1, 188160, Note_on_c, 5, 71, 100
1, 188160, Note_on_c, 7, 64, 66
1, 188160, Note_on_c, 7, 69, 70
1, 188160, Note_on_c, 7, 76, 75
1, 188160, Note_on_c, 8, 57, 100
1, 188160, Note_on_c, 8, 61, 100
1, 188160, Note_on_c, 13, 30, 100
1, 188160, Note_on_c, 13, 42, 100
1, 188410, Note_off_c, 7, 69, 0
1, 188424, Note_off_c, 7, 64, 0
1, 188442, Note_on_c, 10, 64, 68
1, 188442, Note_on_c, 10, 69, 68
1, 188442, Note_on_c, 10, 76, 72
1, 188450, Note_off_c, 7, 76, 0
1, 188452, Note_off_c, 8, 57, 0
1, 188452, Note_off_c, 8, 61, 0
1, 188452, Note_off_c, 13, 30, 0
1, 188452, Note_off_c, 13, 42, 0
1, 188632, Note_off_c, 0, 59, 64
1, 188632, Note_off_c, 0, 68, 64
1, 188632, Note_off_c, 2, 71, 64
1, 188632, Note_off_c, 2, 80, 64
1, 188632, Note_off_c, 3, 71, 64
1, 188632, Note_off_c, 3, 76, 64
1, 188632, Note_off_c, 4, 80, 0
1, 188632, Note_off_c, 5, 71, 0
1, 188640, Note_on_c, 0, 57, 100
1, 188640, Note_on_c, 0, 66, 100
1, 188640, Note_on_c, 1, 69, 75
1, 188640, Note_on_c, 2, 69, 100
1, 188640, Note_on_c, 2, 78, 100
1, 188640, Note_on_c, 3, 66, 100
1, 188640, Note_on_c, 3, 69, 100
1, 188640, Note_on_c, 4, 78, 100
1, 188640, Note_on_c, 5, 69, 100
1, 188640, Note_on_c, 6, 64, 69
1, 188640, Note_on_c, 6, 69, 69
1, 188640, Note_on_c, 6, 76, 73
1, 188640, Note_on_c, 8, 30, 100
1, 188640, Note_on_c, 8, 42, 100
1, 188640, Note_on_c, 13, 57, 100
1, 188640, Note_on_c, 13, 61, 100
1, 188648, Note_off_c, 1, 59, 0
1, 188648, Note_off_c, 10, 69, 0
1, 188656, Note_off_c, 10, 64, 0
1, 188666, Note_off_c, 10, 76, 0
1, 188906, Note_off_c, 6, 64, 0
1, 188932, Note_off_c, 8, 30, 0
1, 188932, Note_off_c, 8, 42, 0
1, 188932, Note_off_c, 13, 57, 0
1, 188932, Note_off_c, 13, 61, 0
1, 188944, Note_off_c, 6, 69, 0
1, 188944, Note_off_c, 6, 76, 0
1, 189112, Note_off_c, 0, 57, 64
1, 189112, Note_off_c, 0, 66, 64
1, 189112, Note_off_c, 2, 69, 64
1, 189112, Note_off_c, 2, 78, 64
1, 189112, Note_off_c, 3, 66, 64
1, 189112, Note_off_c, 3, 69, 64
1, 189112, Note_off_c, 4, 78, 0
1, 189112, Note_off_c, 5, 69, 0
1, 189120, Note_on_c, 0, 61, 100
1, 189120, Note_on_c, 0, 69, 100
1, 189120, Note_on_c, 1, 64, 73
1, 189120, Note_on_c, 2, 73, 100
1, 189120, Note_on_c, 2, 81, 100
1, 189120, Note_on_c, 3, 73, 100
1, 189120, Note_on_c, 3, 76, 100
1, 189120, Note_on_c, 4, 81, 100
1, 189120, Note_on_c, 5, 73, 100
1, 189120, Note_on_c, 7, 64, 66
1, 189120, Note_on_c, 7, 69, 70
1, 189120, Note_on_c, 7, 76, 75
1, 189120, Note_on_c, 8, 57, 100
1, 189120, Note_on_c, 8, 61, 100
1, 189120, Note_on_c, 13, 30, 100
1, 189120, Note_on_c, 13, 42, 100
1, 189246, Note_off_c, 1, 69, 0
1, 189370, Note_off_c, 7, 69, 0
1, 189384, Note_off_c, 7, 64, 0
1, 189402, Note_on_c, 10, 64, 70
1, 189402, Note_on_c, 10, 69, 70
1, 189402, Note_on_c, 10, 76, 75
1, 189410, Note_off_c, 7, 76, 0
1, 189412, Note_off_c, 8, 57, 0
1, 189412, Note_off_c, 8, 61, 0
1, 189412, Note_off_c, 13, 30, 0
1, 189412, Note_off_c, 13, 42, 0
1, 189592, Note_off_c, 0, 61, 64
1, 189592, Note_off_c, 0, 69, 64
1, 189592, Note_off_c, 2, 73, 64
1, 189592, Note_off_c, 2, 81, 64
1, 189592, Note_off_c, 3, 73, 64
1, 189592, Note_off_c, 3, 76, 64
1, 189592, Note_off_c, 4, 81, 0
1, 189592, Note_off_c, 5, 73, 0
1, 189600, Note_on_c, 6, 64, 67
1, 189600, Note_on_c, 6, 69, 63
1, 189600, Note_on_c, 6, 76, 74
1, 189600, Note_on_c, 8, 30, 100
1, 189600, Note_on_c, 8, 42, 100
1, 189600, Note_on_c, 13, 57, 100
1, 189600, Note_on_c, 13, 61, 100
1, 189630, Note_off_c, 10, 69, 0
1, 189672, Note_off_c, 10, 64, 0
1, 189710, Note_off_c, 10, 76, 0
1, 189804, Note_off_c, 6, 69, 0
1, 189826, Note_off_c, 1, 64, 0
1, 189866, Note_off_c, 6, 64, 0
1, 189866, Note_off_c, 6, 76, 0
1, 189892, Note_off_c, 8, 30, 0
1, 189892, Note_off_c, 8, 42, 0
1, 189892, Note_off_c, 13, 57, 0
1, 189892, Note_off_c, 13, 61, 0
1, 190080, Note_on_c, 0, 59, 100
1, 190080, Note_on_c, 0, 68, 100
1, 190080, Note_on_c, 1, 66, 68
1, 190080, Note_on_c, 2, 71, 100
1, 190080, Note_on_c, 2, 80, 100
1, 190080, Note_on_c, 3, 71, 100
1, 190080, Note_on_c, 3, 76, 100
1, 190080, Note_on_c, 4, 80, 100
1, 190080, Note_on_c, 5, 71, 100
1, 190080, Note_on_c, 7, 64, 72
1, 190080, Note_on_c, 7, 69, 80
1, 190080, Note_on_c, 7, 76, 77
1, 190080, Note_on_c, 8, 56, 100
1, 190080, Note_on_c, 8, 61, 100
1, 190080, Note_on_c, 13, 37, 100
1, 190080, Note_on_c, 13, 49, 100
1, 190320, Note_off_c, 7, 76, 0
1, 190330, Note_off_c, 7, 64, 0
1, 190330, Note_off_c, 7, 69, 0
1, 190362, Note_on_c, 10, 64, 69
1, 190362, Note_on_c, 10, 69, 69
1, 190362, Note_on_c, 10, 76, 73
1, 190372, Note_off_c, 8, 56, 0
1, 190372, Note_off_c, 8, 61, 0
1, 190372, Note_off_c, 13, 37, 0
1, 190372, Note_off_c, 13, 49, 0
1, 190552, Note_off_c, 0, 59, 64
1, 190552, Note_off_c, 0, 68, 64
1, 190552, Note_off_c, 2, 71, 64
1, 190552, Note_off_c, 2, 80, 64
1, 190552, Note_off_c, 3, 71, 64
1, 190552, Note_off_c, 3, 76, 64
1, 190552, Note_off_c, 4, 80, 0
1, 190552, Note_off_c, 5, 71, 0
1, 190560, Note_on_c, 0, 57, 100
1, 190560, Note_on_c, 0, 66, 100
1, 190560, Note_on_c, 1, 61, 68
1, 190560, Note_on_c, 2, 69, 100
1, 190560, Note_on_c, 2, 78, 100
1, 190560, Note_on_c, 3, 64, 100
1, 190560, Note_on_c, 3, 69, 100
1, 190560, Note_on_c, 4, 78, 100
1, 190560, Note_on_c, 5, 69, 100
1, 190560, Note_on_c, 6, 64, 66
1, 190560, Note_on_c, 6, 69, 63
1, 190560, Note_on_c, 6, 76, 74
1, 190560, Note_on_c, 8, 37, 100
1, 190560, Note_on_c, 8, 49, 100
1, 190560, Note_on_c, 13, 56, 100
1, 190560, Note_on_c, 13, 61, 100
1, 190596, Note_off_c, 1, 66, 0
1, 190628, Note_off_c, 10, 64, 0
1, 190666, Note_off_c, 10, 69, 0
1, 190666, Note_off_c, 10, 76, 0
1, 190790, Note_off_c, 6, 69, 0
1, 190796, Note_off_c, 6, 64, 0
1, 190834, Note_off_c, 6, 76, 0
1, 190852, Note_off_c, 8, 37, 0
1, 190852, Note_off_c, 8, 49, 0
1, 190852, Note_off_c, 13, 56, 0
1, 190852, Note_off_c, 13, 61, 0
1, 191032, Note_off_c, 0, 57, 64
1, 191032, Note_off_c, 0, 66, 64
1, 191032, Note_off_c, 2, 69, 64
1, 191032, Note_off_c, 2, 78, 64
1, 191032, Note_off_c, 3, 64, 64
1, 191032, Note_off_c, 3, 69, 64
1, 191032, Note_off_c, 4, 78, 0
1, 191032, Note_off_c, 5, 69, 0
1, 191040, Note_on_c, 7, 64, 70
1, 191040, Note_on_c, 7, 69, 77
1, 191040, Note_on_c, 7, 76, 77
1, 191040, Note_on_c, 8, 56, 100
1, 191040, Note_on_c, 8, 61, 100
1, 191040, Note_on_c, 13, 37, 100
1, 191040, Note_on_c, 13, 49, 100
1, 191294, Note_off_c, 7, 64, 0
1, 191322, Note_off_c, 7, 69, 0
1, 191322, Note_on_c, 10, 64, 67
1, 191322, Note_on_c, 10, 69, 63
1, 191322, Note_on_c, 10, 76, 74
1, 191330, Note_off_c, 1, 61, 0
1, 191330, Note_off_c, 7, 76, 0
1, 191332, Note_off_c, 8, 56, 0
1, 191332, Note_off_c, 8, 61, 0
1, 191332, Note_off_c, 13, 37, 0
1, 191332, Note_off_c, 13, 49, 0
1, 191520, Note_on_c, 0, 59, 100
1, 191520, Note_on_c, 0, 68, 100
1, 191520, Note_on_c, 1, 69, 77
1, 191520, Note_on_c, 2, 71, 100
1, 191520, Note_on_c, 2, 80, 100
1, 191520, Note_on_c, 3, 71, 100
1, 191520, Note_on_c, 3, 76, 100
1, 191520, Note_on_c, 4, 80, 100
1, 191520, Note_on_c, 5, 71, 100
1, 191520, Note_on_c, 6, 64, 68
1, 191520, Note_on_c, 6, 69, 74
1, 191520, Note_on_c, 6, 76, 74
1, 191520, Note_on_c, 8, 37, 100
1, 191520, Note_on_c, 8, 49, 100
1, 191520, Note_on_c, 13, 56, 100
1, 191520, Note_on_c, 13, 61, 100
1, 191526, Note_off_c, 10, 69, 0
1, 191588, Note_off_c, 10, 64, 0
1, 191588, Note_off_c, 10, 76, 0
1, 191780, Note_off_c, 6, 69, 0
1, 191810, Note_off_c, 6, 76, 0
1, 191812, Note_off_c, 8, 37, 0
1, 191812, Note_off_c, 8, 49, 0
1, 191812, Note_off_c, 13, 56, 0
1, 191812, Note_off_c, 13, 61, 0
1, 191814, Note_off_c, 6, 64, 0
1, 191992, Note_off_c, 0, 59, 64
1, 191992, Note_off_c, 0, 68, 64
1, 191992, Note_off_c, 2, 71, 64
1, 191992, Note_off_c, 2, 80, 64
1, 191992, Note_off_c, 3, 71, 64
1, 191992, Note_off_c, 3, 76, 64
1, 191992, Note_off_c, 4, 80, 0
1, 191992, Note_off_c, 5, 71, 0
1, 192000, Note_on_c, 7, 64, 70
1, 192000, Note_on_c, 7, 69, 73
1, 192000, Note_on_c, 7, 76, 74
1, 192000, Note_on_c, 8, 56, 100
1, 192000, Note_on_c, 8, 61, 100
1, 192000, Note_on_c, 13, 37, 100
1, 192000, Note_on_c, 13, 49, 100
1, 192144, Note_off_c, 1, 69, 0
1, 192240, Note_off_c, 7, 64, 0
1, 192246, Note_off_c, 7, 69, 0
1, 192260, Note_off_c, 7, 76, 0
1, 192282, Note_on_c, 10, 64, 66
1, 192282, Note_on_c, 10, 69, 63
1, 192282, Note_on_c, 10, 76, 74
1, 192292, Note_off_c, 8, 56, 0
1, 192292, Note_off_c, 8, 61, 0
1, 192292, Note_off_c, 13, 37, 0
1, 192292, Note_off_c, 13, 49, 0
1, 192480, Note_on_c, 0, 61, 100
1, 192480, Note_on_c, 0, 69, 100
1, 192480, Note_on_c, 1, 64, 70
1, 192480, Note_on_c, 2, 73, 100
1, 192480, Note_on_c, 2, 81, 100
1, 192480, Note_on_c, 3, 73, 100
1, 192480, Note_on_c, 3, 76, 100
1, 192480, Note_on_c, 4, 81, 100
1, 192480, Note_on_c, 5, 73, 100
1, 192480, Note_on_c, 6, 64, 73
1, 192480, Note_on_c, 6, 69, 82
1, 192480, Note_on_c, 6, 76, 77
1, 192480, Note_on_c, 8, 37, 100
1, 192480, Note_on_c, 8, 49, 100
1, 192480, Note_on_c, 13, 56, 100
1, 192480, Note_on_c, 13, 61, 100
1, 192512, Note_off_c, 10, 69, 0
1, 192518, Note_off_c, 10, 64, 0
1, 192556, Note_off_c, 10, 76, 0
1, 192758, Note_off_c, 6, 69, 0
1, 192770, Note_off_c, 6, 64, 0
1, 192772, Note_off_c, 8, 37, 0
1, 192772, Note_off_c, 8, 49, 0
1, 192772, Note_off_c, 13, 56, 0
1, 192772, Note_off_c, 13, 61, 0
1, 192778, Note_off_c, 6, 76, 0
1, 192952, Note_off_c, 0, 61, 64
1, 192952, Note_off_c, 0, 69, 64
1, 192952, Note_off_c, 2, 73, 64
1, 192952, Note_off_c, 2, 81, 64
1, 192952, Note_off_c, 3, 73, 64
1, 192952, Note_off_c, 3, 76, 64
1, 192952, Note_off_c, 4, 81, 0
1, 192952, Note_off_c, 5, 73, 0
1, 192960, Note_on_c, 0, 57, 100
1, 192960, Note_on_c, 0, 66, 100
1, 192960, Note_on_c, 1, 66, 77
1, 192960, Note_on_c, 2, 69, 100
1, 192960, Note_on_c, 2, 78, 100
1, 192960, Note_on_c, 3, 64, 100
1, 192960, Note_on_c, 3, 69, 100
1, 192960, Note_on_c, 4, 78, 100
1, 192960, Note_on_c, 5, 69, 100
1, 192960, Note_on_c, 7, 64, 72
1, 192960, Note_on_c, 7, 69, 77
1, 192960, Note_on_c, 7, 76, 75
1, 192960, Note_on_c, 8, 57, 100
1, 192960, Note_on_c, 8, 61, 100
1, 192960, Note_on_c, 13, 30, 100
1, 192960, Note_on_c, 13, 42, 100
1, 193112, Note_off_c, 1, 64, 0
1, 193168, Note_off_c, 7, 69, 0
1, 193182, Note_off_c, 7, 64, 0
1, 193202, Note_off_c, 7, 76, 0
1, 193242, Note_on_c, 10, 64, 68
1, 193242, Note_on_c, 10, 69, 74
1, 193242, Note_on_c, 10, 76, 74
1, 193252, Note_off_c, 8, 57, 0
1, 193252, Note_off_c, 8, 61, 0
1, 193252, Note_off_c, 13, 30, 0
1, 193252, Note_off_c, 13, 42, 0
1, 193432, Note_off_c, 0, 57, 64
1, 193432, Note_off_c, 0, 66, 64
1, 193432, Note_off_c, 2, 69, 64
1, 193432, Note_off_c, 2, 78, 64
1, 193432, Note_off_c, 3, 64, 64
1, 193432, Note_off_c, 3, 69, 64
1, 193432, Note_off_c, 4, 78, 0
1, 193432, Note_off_c, 5, 69, 0
1, 193440, Note_on_c, 6, 64, 72
1, 193440, Note_on_c, 6, 69, 75
1, 193440, Note_on_c, 6, 76, 73
1, 193440, Note_on_c, 8, 30, 100
1, 193440, Note_on_c, 8, 42, 100
1, 193440, Note_on_c, 13, 57, 100
1, 193440, Note_on_c, 13, 61, 100
1, 193502, Note_off_c, 10, 69, 0
1, 193532, Note_off_c, 10, 76, 0
1, 193536, Note_off_c, 10, 64, 0
1, 193604, Note_off_c, 1, 66, 0
1, 193728, Note_off_c, 6, 76, 0
1, 193730, Note_off_c, 6, 69, 0
1, 193732, Note_off_c, 8, 30, 0
1, 193732, Note_off_c, 8, 42, 0
1, 193732, Note_off_c, 13, 57, 0
1, 193732, Note_off_c, 13, 61, 0
1, 193738, Note_off_c, 6, 64, 0
1, 193920, Note_on_c, 0, 59, 100
1, 193920, Note_on_c, 0, 68, 100
1, 193920, Note_on_c, 1, 59, 65
1, 193920, Note_on_c, 2, 71, 100
1, 193920, Note_on_c, 2, 80, 100
1, 193920, Note_on_c, 3, 71, 100
1, 193920, Note_on_c, 3, 76, 100
1, 193920, Note_on_c, 4, 80, 100
1, 193920, Note_on_c, 5, 71, 100
1, 193920, Note_on_c, 7, 64, 70
1, 193920, Note_on_c, 7, 69, 78
1, 193920, Note_on_c, 7, 76, 77
1, 193920, Note_on_c, 8, 57, 100
1, 193920, Note_on_c, 8, 61, 100
1, 193920, Note_on_c, 13, 30, 100
1, 193920, Note_on_c, 13, 42, 100
1, 194162, Note_off_c, 7, 64, 0
1, 194184, Note_off_c, 7, 76, 0
1, 194202, Note_on_c, 10, 64, 73
1, 194202, Note_on_c, 10, 69, 82
1, 194202, Note_on_c, 10, 76, 77
1, 194208, Note_off_c, 7, 69, 0
1, 194212, Note_off_c, 8, 57, 0
1, 194212, Note_off_c, 8, 61, 0
1, 194212, Note_off_c, 13, 30, 0
1, 194212, Note_off_c, 13, 42, 0
1, 194392, Note_off_c, 0, 59, 64
1, 194392, Note_off_c, 0, 68, 64
1, 194392, Note_off_c, 2, 71, 64
1, 194392, Note_off_c, 2, 80, 64
1, 194392, Note_off_c, 3, 71, 64
1, 194392, Note_off_c, 3, 76, 64
1, 194392, Note_off_c, 4, 80, 0
1, 194392, Note_off_c, 5, 71, 0
1, 194400, Note_on_c, 0, 57, 100
1, 194400, Note_on_c, 0, 66, 100
1, 194400, Note_on_c, 1, 69, 74
1, 194400, Note_on_c, 2, 69, 100
1, 194400, Note_on_c, 2, 78, 100
1, 194400, Note_on_c, 3, 66, 100
1, 194400, Note_on_c, 3, 69, 100
1, 194400, Note_on_c, 4, 78, 100
1, 194400, Note_on_c, 5, 69, 100
1, 194400, Note_on_c, 6, 64, 69
1, 194400, Note_on_c, 6, 69, 70
1, 194400, Note_on_c, 6, 76, 72
1, 194400, Note_on_c, 8, 30, 100
1, 194400, Note_on_c, 8, 42, 100
1, 194400, Note_on_c, 13, 57, 100
1, 194400, Note_on_c, 13, 61, 100
1, 194480, Note_off_c, 10, 69, 0
1, 194492, Note_off_c, 10, 64, 0
1, 194494, Note_off_c, 1, 59, 0
1, 194500, Note_off_c, 10, 76, 0
1, 194664, Note_off_c, 6, 69, 0
1, 194688, Note_off_c, 6, 64, 0
1, 194692, Note_off_c, 8, 30, 0
1, 194692, Note_off_c, 8, 42, 0
1, 194692, Note_off_c, 13, 57, 0
1, 194692, Note_off_c, 13, 61, 0
1, 194704, Note_off_c, 6, 76, 0
1, 194872, Note_off_c, 0, 57, 64
1, 194872, Note_off_c, 0, 66, 64
1, 194872, Note_off_c, 2, 69, 64
1, 194872, Note_off_c, 2, 78, 64
1, 194872, Note_off_c, 3, 66, 64
1, 194872, Note_off_c, 3, 69, 64
1, 194872, Note_off_c, 4, 78, 0
1, 194872, Note_off_c, 5, 69, 0
1, 194880, Note_on_c, 0, 61, 100
1, 194880, Note_on_c, 0, 69, 100
1, 194880, Note_on_c, 1, 64, 68
1, 194880, Note_on_c, 2, 73, 100
1, 194880, Note_on_c, 2, 81, 100
1, 194880, Note_on_c, 3, 73, 100
1, 194880, Note_on_c, 3, 76, 100
1, 194880, Note_on_c, 4, 81, 100
1, 194880, Note_on_c, 5, 73, 100
1, 194880, Note_on_c, 7, 64, 70
1, 194880, Note_on_c, 7, 69, 72
1, 194880, Note_on_c, 7, 76, 77
1, 194880, Note_on_c, 8, 56, 100
1, 194880, Note_on_c, 8, 61, 100
1, 194880, Note_on_c, 13, 37, 100
1, 194880, Note_on_c, 13, 49, 100
1, 195092, Note_off_c, 1, 69, 0
1, 195134, Note_off_c, 7, 64, 0
1, 195146, Note_off_c, 7, 69, 0
1, 195162, Note_on_c, 10, 64, 72
1, 195162, Note_on_c, 10, 69, 75
1, 195162, Note_on_c, 10, 76, 73
1, 195172, Note_off_c, 8, 56, 0
1, 195172, Note_off_c, 8, 61, 0
1, 195172, Note_off_c, 13, 37, 0
1, 195172, Note_off_c, 13, 49, 0
1, 195202, Note_off_c, 7, 76, 0
1, 195352, Note_off_c, 0, 61, 64
1, 195352, Note_off_c, 0, 69, 64
1, 195352, Note_off_c, 2, 73, 64
1, 195352, Note_off_c, 2, 81, 64
1, 195352, Note_off_c, 3, 73, 64
1, 195352, Note_off_c, 3, 76, 64
1, 195352, Note_off_c, 4, 81, 0
1, 195352, Note_off_c, 5, 73, 0
1, 195360, Note_on_c, 6, 64, 68
1, 195360, Note_on_c, 6, 69, 77
1, 195360, Note_on_c, 6, 76, 73
1, 195360, Note_on_c, 8, 37, 100
1, 195360, Note_on_c, 8, 49, 100
1, 195360, Note_on_c, 13, 56, 100
1, 195360, Note_on_c, 13, 61, 100
1, 195450, Note_off_c, 10, 76, 0
1, 195452, Note_off_c, 10, 69, 0
1, 195460, Note_off_c, 10, 64, 0
1, 195494, Note_off_c, 1, 64, 0
1, 195626, Note_off_c, 6, 64, 0
1, 195644, Note_off_c, 6, 69, 0
1, 195644, Note_off_c, 6, 76, 0
1, 195652, Note_off_c, 8, 37, 0
1, 195652, Note_off_c, 8, 49, 0
1, 195652, Note_off_c, 13, 56, 0
1, 195652, Note_off_c, 13, 61, 0
1, 195840, Note_on_c, 1, 66, 77
1, 195840, Note_on_c, 3, 71, 100
1, 195840, Note_on_c, 3, 76, 100
1, 195840, Note_on_c, 7, 64, 73
1, 195840, Note_on_c, 7, 69, 77
1, 195840, Note_on_c, 7, 76, 74
1, 195840, Note_on_c, 8, 56, 100
1, 195840, Note_on_c, 8, 61, 100
1, 195840, Note_on_c, 13, 37, 100
1, 195840, Note_on_c, 13, 49, 100
1, 196122, Note_on_c, 10, 64, 69
1, 196122, Note_on_c, 10, 69, 70
1, 196122, Note_on_c, 10, 76, 72
1, 196124, Note_off_c, 7, 69, 0
1, 196132, Note_off_c, 8, 56, 0
1, 196132, Note_off_c, 8, 61, 0
1, 196132, Note_off_c, 13, 37, 0
1, 196132, Note_off_c, 13, 49, 0
1, 196156, Note_off_c, 7, 76, 0
1, 196162, Note_off_c, 7, 64, 0
1, 196312, Note_off_c, 3, 71, 64
1, 196312, Note_off_c, 3, 76, 64
1, 196320, Note_on_c, 1, 61, 70
1, 196320, Note_on_c, 3, 64, 100
1, 196320, Note_on_c, 3, 69, 100
1, 196320, Note_on_c, 6, 64, 72
1, 196320, Note_on_c, 6, 69, 52
1, 196320, Note_on_c, 6, 76, 72
1, 196320, Note_on_c, 8, 37, 100
1, 196320, Note_on_c, 8, 49, 100
1, 196320, Note_on_c, 13, 56, 100
1, 196320, Note_on_c, 13, 61, 100
1, 196386, Note_off_c, 10, 69, 0
1, 196410, Note_off_c, 10, 64, 0
1, 196426, Note_off_c, 10, 76, 0
1, 196472, Note_off_c, 6, 69, 0
1, 196482, Note_off_c, 1, 66, 0
1, 196560, Note_off_c, 6, 64, 0
1, 196566, Note_off_c, 6, 76, 0
1, 196612, Note_off_c, 8, 37, 0
1, 196612, Note_off_c, 8, 49, 0
1, 196612, Note_off_c, 13, 56, 0
1, 196612, Note_off_c, 13, 61, 0
1, 196792, Note_off_c, 3, 64, 64
1, 196792, Note_off_c, 3, 69, 64
1, 196800, Note_on_c, 7, 64, 68
1, 196800, Note_on_c, 7, 69, 70
1, 196800, Note_on_c, 7, 76, 72
1, 196800, Note_on_c, 8, 56, 100
1, 196800, Note_on_c, 8, 61, 100
1, 196800, Note_on_c, 13, 37, 100
1, 196800, Note_on_c, 13, 49, 100
1, 196948, Note_off_c, 1, 61, 0
1, 197082, Note_on_c, 10, 64, 68
1, 197082, Note_on_c, 10, 69, 77
1, 197082, Note_on_c, 10, 76, 73
1, 197090, Note_off_c, 7, 69, 0
1, 197092, Note_off_c, 8, 56, 0
1, 197092, Note_off_c, 8, 61, 0
1, 197092, Note_off_c, 13, 37, 0
1, 197092, Note_off_c, 13, 49, 0
1, 197108, Note_off_c, 7, 76, 0
1, 197114, Note_off_c, 7, 64, 0
1, 197280, Note_on_c, 1, 69, 77
1, 197280, Note_on_c, 3, 71, 100
1, 197280, Note_on_c, 3, 76, 100
1, 197280, Note_on_c, 6, 64, 68
1, 197280, Note_on_c, 6, 69, 70
1, 197280, Note_on_c, 6, 76, 74
1, 197280, Note_on_c, 8, 37, 100
1, 197280, Note_on_c, 8, 49, 100
1, 197280, Note_on_c, 13, 56, 100
1, 197280, Note_on_c, 13, 61, 100
1, 197348, Note_off_c, 10, 64, 0
1, 197366, Note_off_c, 10, 69, 0
1, 197366, Note_off_c, 10, 76, 0
1, 197512, Note_off_c, 6, 69, 0
1, 197522, Note_off_c, 6, 64, 0
1, 197530, Note_off_c, 6, 76, 0
1, 197572, Note_off_c, 8, 37, 0
1, 197572, Note_off_c, 8, 49, 0
1, 197572, Note_off_c, 13, 56, 0
1, 197572, Note_off_c, 13, 61, 0
1, 197752, Note_off_c, 3, 71, 64
1, 197752, Note_off_c, 3, 76, 64
1, 197760, Note_on_c, 7, 64, 68
1, 197760, Note_on_c, 7, 69, 70
1, 197760, Note_on_c, 7, 76, 73
1, 197760, Note_on_c, 8, 56, 100
1, 197760, Note_on_c, 8, 61, 100
1, 197760, Note_on_c, 13, 37, 100
1, 197760, Note_on_c, 13, 49, 100
1, 197928, Note_off_c, 1, 69, 0
1, 198008, Note_off_c, 7, 64, 0
1, 198022, Note_off_c, 7, 69, 0
1, 198022, Note_off_c, 7, 76, 0
1, 198042, Note_on_c, 10, 64, 72
1, 198042, Note_on_c, 10, 69, 52
1, 198042, Note_on_c, 10, 76, 72
1, 198052, Note_off_c, 8, 56, 0
1, 198052, Note_off_c, 8, 61, 0
1, 198052, Note_off_c, 13, 37, 0
1, 198052, Note_off_c, 13, 49, 0
1, 198194, Note_off_c, 10, 69, 0
1, 198240, Note_on_c, 1, 64, 68
1, 198240, Note_on_c, 3, 73, 100
1, 198240, Note_on_c, 3, 76, 100
1, 198240, Note_on_c, 6, 64, 68
1, 198240, Note_on_c, 6, 69, 69
1, 198240, Note_on_c, 6, 76, 72
1, 198240, Note_on_c, 8, 37, 100
1, 198240, Note_on_c, 8, 49, 100
1, 198240, Note_on_c, 13, 56, 100
1, 198240, Note_on_c, 13, 61, 100
1, 198282, Note_off_c, 10, 64, 0
1, 198288, Note_off_c, 10, 76, 0
1, 198456, Note_off_c, 6, 76, 0
1, 198458, Note_off_c, 6, 69, 0
1, 198472, Note_off_c, 6, 64, 0
1, 198532, Note_off_c, 8, 37, 0
1, 198532, Note_off_c, 8, 49, 0
1, 198532, Note_off_c, 13, 56, 0
1, 198532, Note_off_c, 13, 61, 0
1, 198684, Note_off_c, 1, 64, 0
1, 198712, Note_off_c, 3, 73, 64
1, 198712, Note_off_c, 3, 76, 64
1, 198720, Note_on_c, 0, 57, 100
1, 198720, Note_on_c, 0, 66, 100
1, 198720, Note_on_c, 1, 66, 78
1, 198720, Note_on_c, 2, 69, 100
1, 198720, Note_on_c, 2, 78, 100
1, 198720, Note_on_c, 3, 64, 100
1, 198720, Note_on_c, 3, 69, 100
1, 198720, Note_on_c, 4, 78, 100
1, 198720, Note_on_c, 5, 69, 100
1, 198720, Note_on_c, 7, 64, 70
1, 198720, Note_on_c, 7, 69, 83
1, 198720, Note_on_c, 7, 76, 74
1, 198720, Note_on_c, 8, 57, 100
1, 198720, Note_on_c, 8, 61, 100
1, 198720, Note_on_c, 13, 30, 100
1, 198720, Note_on_c, 13, 42, 100
1, 198960, Note_off_c, 7, 64, 0
1, 198960, Note_off_c, 7, 76, 0
1, 198970, Note_off_c, 7, 69, 0
1, 199002, Note_on_c, 10, 64, 68
1, 199002, Note_on_c, 10, 69, 70
1, 199002, Note_on_c, 10, 76, 74
1, 199012, Note_off_c, 8, 57, 0
1, 199012, Note_off_c, 8, 61, 0
1, 199012, Note_off_c, 13, 30, 0
1, 199012, Note_off_c, 13, 42, 0
1, 199192, Note_off_c, 0, 57, 64
1, 199192, Note_off_c, 0, 66, 64
1, 199192, Note_off_c, 2, 69, 64
1, 199192, Note_off_c, 2, 78, 64
1, 199192, Note_off_c, 3, 64, 64
1, 199192, Note_off_c, 3, 69, 64
1, 199192, Note_off_c, 4, 78, 0
1, 199192, Note_off_c, 5, 69, 0
1, 199200, Note_on_c, 6, 64, 67
1, 199200, Note_on_c, 6, 69, 67
1, 199200, Note_on_c, 6, 76, 72
1, 199200, Note_on_c, 8, 30, 100
1, 199200, Note_on_c, 8, 42, 100
1, 199200, Note_on_c, 13, 57, 100
1, 199200, Note_on_c, 13, 61, 100
1, 199234, Note_off_c, 10, 69, 0
1, 199244, Note_off_c, 10, 64, 0
1, 199252, Note_off_c, 10, 76, 0
1, 199388, Note_off_c, 1, 66, 0
1, 199446, Note_off_c, 6, 64, 0
1, 199450, Note_off_c, 6, 69, 0
1, 199466, Note_off_c, 6, 76, 0
1, 199492, Note_off_c, 8, 30, 0
1, 199492, Note_off_c, 8, 42, 0
1, 199492, Note_off_c, 13, 57, 0
1, 199492, Note_off_c, 13, 61, 0
1, 199680, Note_on_c, 0, 59, 100
1, 199680, Note_on_c, 0, 68, 100
1, 199680, Note_on_c, 1, 59, 74
1, 199680, Note_on_c, 2, 71, 100
1, 199680, Note_on_c, 2, 80, 100
1, 199680, Note_on_c, 3, 71, 100
1, 199680, Note_on_c, 3, 76, 100
1, 199680, Note_on_c, 4, 80, 100
1, 199680, Note_on_c, 5, 71, 100
1, 199680, Note_on_c, 7, 64, 67
1, 199680, Note_on_c, 7, 69, 78
1, 199680, Note_on_c, 7, 76, 73
1, 199680, Note_on_c, 8, 57, 100
1, 199680, Note_on_c, 8, 61, 100
1, 199680, Note_on_c, 13, 30, 100
1, 199680, Note_on_c, 13, 42, 100
1, 199930, Note_off_c, 7, 76, 0
1, 199936, Note_off_c, 7, 69, 0
1, 199944, Note_off_c, 7, 64, 0
1, 199962, Note_on_c, 10, 64, 68
1, 199962, Note_on_c, 10, 69, 69
1, 199962, Note_on_c, 10, 76, 72
1, 199972, Note_off_c, 8, 57, 0
1, 199972, Note_off_c, 8, 61, 0
1, 199972, Note_off_c, 13, 30, 0
1, 199972, Note_off_c, 13, 42, 0
1, 200152, Note_off_c, 0, 59, 64
1, 200152, Note_off_c, 0, 68, 64
1, 200152, Note_off_c, 2, 71, 64
1, 200152, Note_off_c, 2, 80, 64
1, 200152, Note_off_c, 3, 71, 64
1, 200152, Note_off_c, 3, 76, 64
1, 200152, Note_off_c, 4, 80, 0
1, 200152, Note_off_c, 5, 71, 0
1, 200160, Note_on_c, 0, 57, 100
1, 200160, Note_on_c, 0, 66, 100
1, 200160, Note_on_c, 1, 69, 75
1, 200160, Note_on_c, 2, 69, 100
1, 200160, Note_on_c, 2, 78, 100
1, 200160, Note_on_c, 3, 66, 100
1, 200160, Note_on_c, 3, 69, 100
1, 200160, Note_on_c, 4, 78, 100
1, 200160, Note_on_c, 5, 69, 100
1, 200160, Note_on_c, 6, 64, 67
1, 200160, Note_on_c, 6, 69, 63
1, 200160, Note_on_c, 6, 76, 72
1, 200160, Note_on_c, 8, 30, 100
1, 200160, Note_on_c, 8, 42, 100
1, 200160, Note_on_c, 13, 57, 100
1, 200160, Note_on_c, 13, 61, 100
1, 200168, Note_off_c, 1, 59, 0
1, 200178, Note_off_c, 10, 76, 0
1, 200180, Note_off_c, 10, 69, 0
1, 200194, Note_off_c, 10, 64, 0
1, 200408, Note_off_c, 6, 69, 0
1, 200436, Note_off_c, 6, 64, 0
1, 200452, Note_off_c, 6, 76, 0
1, 200452, Note_off_c, 8, 30, 0
1, 200452, Note_off_c, 8, 42, 0
1, 200452, Note_off_c, 13, 57, 0
1, 200452, Note_off_c, 13, 61, 0
1, 200632, Note_off_c, 0, 57, 64
1, 200632, Note_off_c, 0, 66, 64
1, 200632, Note_off_c, 2, 69, 64
1, 200632, Note_off_c, 2, 78, 64
1, 200632, Note_off_c, 3, 66, 64
1, 200632, Note_off_c, 3, 69, 64
1, 200632, Note_off_c, 4, 78, 0
1, 200632, Note_off_c, 5, 69, 0
1, 200640, Note_on_c, 0, 61, 100
1, 200640, Note_on_c, 0, 69, 100
1, 200640, Note_on_c, 1, 64, 73
1, 200640, Note_on_c, 2, 73, 100
1, 200640, Note_on_c, 2, 81, 100
1, 200640, Note_on_c, 3, 73, 100
1, 200640, Note_on_c, 3, 76, 100
1, 200640, Note_on_c, 4, 81, 100
1, 200640, Note_on_c, 5, 73, 100
1, 200640, Note_on_c, 7, 64, 69
1, 200640, Note_on_c, 7, 69, 70
1, 200640, Note_on_c, 7, 76, 73
1, 200640, Note_on_c, 8, 57, 100
1, 200640, Note_on_c, 8, 61, 100
1, 200640, Note_on_c, 13, 30, 100
1, 200640, Note_on_c, 13, 42, 100
1, 200766, Note_off_c, 1, 69, 0
1, 200860, Note_off_c, 7, 69, 0
1, 200882, Note_off_c, 7, 76, 0
1, 200892, Note_off_c, 7, 64, 0
1, 200922, Note_on_c, 10, 64, 67
1, 200922, Note_on_c, 10, 69, 67
1, 200922, Note_on_c, 10, 76, 72
1, 200932, Note_off_c, 8, 57, 0
1, 200932, Note_off_c, 8, 61, 0
1, 200932, Note_off_c, 13, 30, 0
1, 200932, Note_off_c, 13, 42, 0
1, 201112, Note_off_c, 0, 61, 64
1, 201112, Note_off_c, 0, 69, 64
1, 201112, Note_off_c, 2, 73, 64
1, 201112, Note_off_c, 2, 81, 64
1, 201112, Note_off_c, 3, 73, 64
1, 201112, Note_off_c, 3, 76, 64
1, 201112, Note_off_c, 4, 81, 0
1, 201112, Note_off_c, 5, 73, 0
1, 201120, Note_on_c, 6, 64, 68
1, 201120, Note_on_c, 6, 69, 66
1, 201120, Note_on_c, 6, 76, 70
1, 201120, Note_on_c, 8, 30, 100
1, 201120, Note_on_c, 8, 42, 100
1, 201120, Note_on_c, 13, 57, 100
1, 201120, Note_on_c, 13, 61, 100
1, 201168, Note_off_c, 10, 64, 0
1, 201172, Note_off_c, 10, 69, 0
1, 201188, Note_off_c, 10, 76, 0
1, 201316, Note_off_c, 6, 69, 0
1, 201340, Note_off_c, 6, 64, 0
1, 201346, Note_off_c, 1, 64, 0
1, 201358, Note_off_c, 6, 76, 0
1, 201412, Note_off_c, 8, 30, 0
1, 201412, Note_off_c, 8, 42, 0
1, 201412, Note_off_c, 13, 57, 0
1, 201412, Note_off_c, 13, 61, 0
1, 201600, Note_on_c, 0, 59, 100
1, 201600, Note_on_c, 0, 68, 100
1, 201600, Note_on_c, 1, 66, 68
1, 201600, Note_on_c, 2, 71, 100
1, 201600, Note_on_c, 2, 80, 100
1, 201600, Note_on_c, 3, 71, 100
1, 201600, Note_on_c, 3, 76, 100
1, 201600, Note_on_c, 4, 80, 100
1, 201600, Note_on_c, 5, 71, 100
1, 201600, Note_on_c, 7, 64, 69
1, 201600, Note_on_c, 7, 69, 75
1, 201600, Note_on_c, 7, 76, 73
1, 201600, Note_on_c, 8, 56, 100
1, 201600, Note_on_c, 8, 61, 100
1, 201600, Note_on_c, 13, 37, 100
1, 201600, Note_on_c, 13, 49, 100
1, 201814, Note_off_c, 7, 69, 0
1, 201830, Note_off_c, 7, 64, 0
1, 201844, Note_off_c, 7, 76, 0
1, 201882, Note_on_c, 10, 64, 67
1, 201882, Note_on_c, 10, 69, 63
1, 201882, Note_on_c, 10, 76, 72
1, 201892, Note_off_c, 8, 56, 0
1, 201892, Note_off_c, 8, 61, 0
1, 201892, Note_off_c, 13, 37, 0
1, 201892, Note_off_c, 13, 49, 0
1, 202072, Note_off_c, 0, 59, 64
1, 202072, Note_off_c, 0, 68, 64
1, 202072, Note_off_c, 2, 71, 64
1, 202072, Note_off_c, 2, 80, 64
1, 202072, Note_off_c, 3, 71, 64
1, 202072, Note_off_c, 3, 76, 64
1, 202072, Note_off_c, 4, 80, 0
1, 202072, Note_off_c, 5, 71, 0
1, 202080, Note_on_c, 0, 57, 100
1, 202080, Note_on_c, 0, 66, 100
1, 202080, Note_on_c, 1, 61, 68
1, 202080, Note_on_c, 2, 69, 100
1, 202080, Note_on_c, 2, 78, 100
1, 202080, Note_on_c, 3, 64, 100
1, 202080, Note_on_c, 3, 69, 100
1, 202080, Note_on_c, 4, 78, 100
1, 202080, Note_on_c, 5, 69, 100
1, 202080, Note_on_c, 6, 64, 68
1, 202080, Note_on_c, 6, 69, 63
1, 202080, Note_on_c, 6, 76, 72
1, 202080, Note_on_c, 8, 37, 100
1, 202080, Note_on_c, 8, 49, 100
1, 202080, Note_on_c, 13, 56, 100
1, 202080, Note_on_c, 13, 61, 100
1, 202116, Note_off_c, 1, 66, 0
1, 202130, Note_off_c, 10, 69, 0
1, 202158, Note_off_c, 10, 64, 0
1, 202174, Note_off_c, 10, 76, 0
1, 202290, Note_off_c, 6, 64, 0
1, 202324, Note_off_c, 6, 76, 0
1, 202342, Note_off_c, 6, 69, 0
1, 202372, Note_off_c, 8, 37, 0
1, 202372, Note_off_c, 8, 49, 0
1, 202372, Note_off_c, 13, 56, 0
1, 202372, Note_off_c, 13, 61, 0
1, 202552, Note_off_c, 0, 57, 64
1, 202552, Note_off_c, 0, 66, 64
1, 202552, Note_off_c, 2, 69, 64
1, 202552, Note_off_c, 2, 78, 64
1, 202552, Note_off_c, 3, 64, 64
1, 202552, Note_off_c, 3, 69, 64
1, 202552, Note_off_c, 4, 78, 0
1, 202552, Note_off_c, 5, 69, 0
1, 202560, Note_on_c, 7, 64, 68
1, 202560, Note_on_c, 7, 69, 74
1, 202560, Note_on_c, 7, 76, 74
1, 202560, Note_on_c, 8, 56, 100
1, 202560, Note_on_c, 8, 61, 100
1, 202560, Note_on_c, 13, 37, 100
1, 202560, Note_on_c, 13, 49, 100
1, 202784, Note_off_c, 7, 69, 0
1, 202824, Note_off_c, 7, 64, 0
1, 202834, Note_off_c, 7, 76, 0
1, 202842, Note_on_c, 10, 64, 68
1, 202842, Note_on_c, 10, 69, 66
1, 202842, Note_on_c, 10, 76, 70
1, 202850, Note_off_c, 1, 61, 0
1, 202852, Note_off_c, 8, 56, 0
1, 202852, Note_off_c, 8, 61, 0
1, 202852, Note_off_c, 13, 37, 0
1, 202852, Note_off_c, 13, 49, 0
1, 203038, Note_off_c, 10, 69, 0
1, 203040, Note_on_c, 0, 59, 100
1, 203040, Note_on_c, 0, 68, 100
1, 203040, Note_on_c, 1, 69, 77
1, 203040, Note_on_c, 2, 71, 100
1, 203040, Note_on_c, 2, 80, 100
1, 203040, Note_on_c, 3, 71, 100
1, 203040, Note_on_c, 3, 76, 100
1, 203040, Note_on_c, 4, 80, 100
1, 203040, Note_on_c, 5, 71, 100
1, 203040, Note_on_c, 6, 64, 70
1, 203040, Note_on_c, 6, 69, 69
1, 203040, Note_on_c, 6, 76, 72
1, 203040, Note_on_c, 8, 37, 100
1, 203040, Note_on_c, 8, 49, 100
1, 203040, Note_on_c, 13, 56, 100
1, 203040, Note_on_c, 13, 61, 100
1, 203062, Note_off_c, 10, 64, 0
1, 203080, Note_off_c, 10, 76, 0
1, 203274, Note_off_c, 6, 69, 0
1, 203302, Note_off_c, 6, 64, 0
1, 203302, Note_off_c, 6, 76, 0
1, 203332, Note_off_c, 8, 37, 0
1, 203332, Note_off_c, 8, 49, 0
1, 203332, Note_off_c, 13, 56, 0
1, 203332, Note_off_c, 13, 61, 0
1, 203512, Note_off_c, 0, 59, 64
1, 203512, Note_off_c, 0, 68, 64
1, 203512, Note_off_c, 2, 71, 64
1, 203512, Note_off_c, 2, 80, 64
1, 203512, Note_off_c, 3, 71, 64
1, 203512, Note_off_c, 3, 76, 64
1, 203512, Note_off_c, 4, 80, 0
1, 203512, Note_off_c, 5, 71, 0
1, 203520, Note_on_c, 7, 64, 68
1, 203520, Note_on_c, 7, 69, 73
1, 203520, Note_on_c, 7, 76, 73
1, 203520, Note_on_c, 8, 56, 100
1, 203520, Note_on_c, 8, 61, 100
1, 203520, Note_on_c, 13, 37, 100
1, 203520, Note_on_c, 13, 49, 100
1, 203664, Note_off_c, 1, 69, 0
1, 203744, Note_off_c, 7, 64, 0
1, 203768, Note_off_c, 7, 69, 0
1, 203768, Note_off_c, 7, 76, 0
1, 203802, Note_on_c, 10, 64, 68
1, 203802, Note_on_c, 10, 69, 63
1, 203802, Note_on_c, 10, 76, 72
1, 203812, Note_off_c, 8, 56, 0
1, 203812, Note_off_c, 8, 61, 0
1, 203812, Note_off_c, 13, 37, 0
1, 203812, Note_off_c, 13, 49, 0
1, 204000, Note_on_c, 0, 61, 100
1, 204000, Note_on_c, 0, 69, 100
1, 204000, Note_on_c, 1, 64, 70
1, 204000, Note_on_c, 2, 73, 100
1, 204000, Note_on_c, 2, 81, 100
1, 204000, Note_on_c, 3, 73, 100
1, 204000, Note_on_c, 3, 76, 100
1, 204000, Note_on_c, 4, 81, 100
1, 204000, Note_on_c, 5, 73, 100
1, 204000, Note_on_c, 6, 64, 68
1, 204000, Note_on_c, 6, 69, 70
1, 204000, Note_on_c, 6, 76, 70
1, 204000, Note_on_c, 8, 37, 100
1, 204000, Note_on_c, 8, 49, 100
1, 204000, Note_on_c, 13, 56, 100
1, 204000, Note_on_c, 13, 61, 100
1, 204012, Note_off_c, 10, 64, 0
1, 204046, Note_off_c, 10, 76, 0
1, 204064, Note_off_c, 10, 69, 0
1, 204208, Note_off_c, 6, 64, 0
1, 204236, Note_off_c, 6, 69, 0
1, 204240, Note_off_c, 6, 76, 0
1, 204292, Note_off_c, 8, 37, 0
1, 204292, Note_off_c, 8, 49, 0
1, 204292, Note_off_c, 13, 56, 0
1, 204292, Note_off_c, 13, 61, 0
1, 204472, Note_off_c, 0, 61, 64
1, 204472, Note_off_c, 0, 69, 64
1, 204472, Note_off_c, 2, 73, 64
1, 204472, Note_off_c, 2, 81, 64
1, 204472, Note_off_c, 3, 73, 64
1, 204472, Note_off_c, 3, 76, 64
1, 204472, Note_off_c, 4, 81, 0
1, 204472, Note_off_c, 5, 73, 0
1, 204480, Note_on_c, 0, 57, 100
1, 204480, Note_on_c, 0, 66, 100
1, 204480, Note_on_c, 1, 66, 77
1, 204480, Note_on_c, 2, 69, 100
1, 204480, Note_on_c, 2, 78, 100
1, 204480, Note_on_c, 3, 64, 100
1, 204480, Note_on_c, 3, 69, 100
1, 204480, Note_on_c, 4, 78, 100
1, 204480, Note_on_c, 5, 69, 100
1, 204480, Note_on_c, 7, 64, 66
1, 204480, Note_on_c, 7, 69, 74
1, 204480, Note_on_c, 7, 76, 73
1, 204480, Note_on_c, 8, 57, 100
1, 204480, Note_on_c, 8, 61, 100
1, 204480, Note_on_c, 13, 30, 100
1, 204480, Note_on_c, 13, 42, 100
1, 204632, Note_off_c, 1, 64, 0
1, 204714, Note_off_c, 7, 64, 0
1, 204734, Note_off_c, 7, 76, 0
1, 204762, Note_off_c, 7, 69, 0
1, 204762, Note_on_c, 10, 64, 70
1, 204762, Note_on_c, 10, 69, 69
1, 204762, Note_on_c, 10, 76, 72
1, 204772, Note_off_c, 8, 57, 0
1, 204772, Note_off_c, 8, 61, 0
1, 204772, Note_off_c, 13, 30, 0
1, 204772, Note_off_c, 13, 42, 0
1, 204952, Note_off_c, 0, 57, 64
1, 204952, Note_off_c, 0, 66, 64
1, 204952, Note_off_c, 2, 69, 64
1, 204952, Note_off_c, 2, 78, 64
1, 204952, Note_off_c, 3, 64, 64
1, 204952, Note_off_c, 3, 69, 64
1, 204952, Note_off_c, 4, 78, 0
1, 204952, Note_off_c, 5, 69, 0
1, 204960, Note_on_c, 6, 64, 67
1, 204960, Note_on_c, 6, 69, 73
1, 204960, Note_on_c, 6, 76, 74
1, 204960, Note_on_c, 8, 30, 100
1, 204960, Note_on_c, 8, 42, 100
1, 204960, Note_on_c, 13, 57, 100
1, 204960, Note_on_c, 13, 61, 100
1, 204996, Note_off_c, 10, 69, 0
1, 205024, Note_off_c, 10, 64, 0
1, 205024, Note_off_c, 10, 76, 0
1, 205124, Note_off_c, 1, 66, 0
1, 205176, Note_off_c, 6, 64, 0
1, 205196, Note_off_c, 6, 76, 0
1, 205206, Note_off_c, 6, 69, 0
1, 205252, Note_off_c, 8, 30, 0
1, 205252, Note_off_c, 8, 42, 0
1, 205252, Note_off_c, 13, 57, 0
1, 205252, Note_off_c, 13, 61, 0
1, 205440, Note_on_c, 0, 59, 100
1, 205440, Note_on_c, 0, 68, 100
1, 205440, Note_on_c, 1, 59, 65
1, 205440, Note_on_c, 2, 71, 100
1, 205440, Note_on_c, 2, 80, 100
1, 205440, Note_on_c, 3, 71, 100
1, 205440, Note_on_c, 3, 76, 100
1, 205440, Note_on_c, 4, 80, 100
1, 205440, Note_on_c, 5, 71, 100
1, 205440, Note_on_c, 7, 64, 66
1, 205440, Note_on_c, 7, 69, 77
1, 205440, Note_on_c, 7, 76, 70
1, 205440, Note_on_c, 8, 57, 100
1, 205440, Note_on_c, 8, 61, 100
1, 205440, Note_on_c, 13, 30, 100
1, 205440, Note_on_c, 13, 42, 100
1, 205668, Note_off_c, 7, 64, 0
1, 205722, Note_on_c, 10, 64, 68
1, 205722, Note_on_c, 10, 69, 70
1, 205722, Note_on_c, 10, 76, 70
1, 205726, Note_off_c, 7, 69, 0
1, 205732, Note_off_c, 8, 57, 0
1, 205732, Note_off_c, 8, 61, 0
1, 205732, Note_off_c, 13, 30, 0
1, 205732, Note_off_c, 13, 42, 0
1, 205750, Note_off_c, 7, 76, 0
1, 205912, Note_off_c, 0, 59, 64
1, 205912, Note_off_c, 0, 68, 64
1, 205912, Note_off_c, 2, 71, 64
1, 205912, Note_off_c, 2, 80, 64
1, 205912, Note_off_c, 3, 71, 64
1, 205912, Note_off_c, 3, 76, 64
1, 205912, Note_off_c, 4, 80, 0
1, 205912, Note_off_c, 5, 71, 0
1, 205920, Note_on_c, 0, 57, 100
1, 205920, Note_on_c, 0, 66, 100
1, 205920, Note_on_c, 1, 69, 74
1, 205920, Note_on_c, 2, 69, 100
1, 205920, Note_on_c, 2, 78, 100
1, 205920, Note_on_c, 3, 66, 100
1, 205920, Note_on_c, 3, 69, 100
1, 205920, Note_on_c, 4, 78, 100
1, 205920, Note_on_c, 5, 69, 100
1, 205920, Note_on_c, 6, 64, 68
1, 205920, Note_on_c, 6, 69, 74
1, 205920, Note_on_c, 6, 76, 75
1, 205920, Note_on_c, 8, 30, 100
1, 205920, Note_on_c, 8, 42, 100
1, 205920, Note_on_c, 13, 57, 100
1, 205920, Note_on_c, 13, 61, 100
1, 205930, Note_off_c, 10, 64, 0
1, 205958, Note_off_c, 10, 69, 0
1, 205962, Note_off_c, 10, 76, 0
1, 206014, Note_off_c, 1, 59, 0
1, 206192, Note_off_c, 6, 69, 0
1, 206196, Note_off_c, 6, 64, 0
1, 206210, Note_off_c, 6, 76, 0
1, 206212, Note_off_c, 8, 30, 0
1, 206212, Note_off_c, 8, 42, 0
1, 206212, Note_off_c, 13, 57, 0
1, 206212, Note_off_c, 13, 61, 0
1, 206392, Note_off_c, 0, 57, 64
1, 206392, Note_off_c, 0, 66, 64
1, 206392, Note_off_c, 2, 69, 64
1, 206392, Note_off_c, 2, 78, 64
1, 206392, Note_off_c, 3, 66, 64
1, 206392, Note_off_c, 3, 69, 64
1, 206392, Note_off_c, 4, 78, 0
1, 206392, Note_off_c, 5, 69, 0
1, 206400, Note_on_c, 0, 61, 100
1, 206400, Note_on_c, 0, 69, 100
1, 206400, Note_on_c, 1, 64, 68
1, 206400, Note_on_c, 2, 73, 100
1, 206400, Note_on_c, 2, 81, 100
1, 206400, Note_on_c, 3, 73, 100
1, 206400, Note_on_c, 3, 76, 100
1, 206400, Note_on_c, 4, 81, 100
1, 206400, Note_on_c, 5, 73, 100
1, 206400, Note_on_c, 7, 64, 65
1, 206400, Note_on_c, 7, 69, 72
1, 206400, Note_on_c, 7, 76, 72
1, 206400, Note_on_c, 8, 57, 100
1, 206400, Note_on_c, 8, 61, 100
1, 206400, Note_on_c, 13, 30, 100
1, 206400, Note_on_c, 13, 42, 100
1, 206612, Note_off_c, 1, 69, 0
1, 206676, Note_off_c, 7, 64, 0
1, 206682, Note_on_c, 10, 64, 67
1, 206682, Note_on_c, 10, 69, 73
1, 206682, Note_on_c, 10, 76, 74
1, 206690, Note_off_c, 7, 69, 0
1, 206692, Note_off_c, 7, 76, 0
1, 206692, Note_off_c, 8, 57, 0
1, 206692, Note_off_c, 8, 61, 0
1, 206692, Note_off_c, 13, 30, 0
1, 206692, Note_off_c, 13, 42, 0
1, 206872, Note_off_c, 0, 61, 64
1, 206872, Note_off_c, 0, 69, 64
1, 206872, Note_off_c, 2, 73, 64
1, 206872, Note_off_c, 2, 81, 64
1, 206872, Note_off_c, 3, 73, 64
1, 206872, Note_off_c, 3, 76, 64
1, 206872, Note_off_c, 4, 81, 0
1, 206872, Note_off_c, 5, 73, 0
1, 206880, Note_on_c, 6, 64, 73
1, 206880, Note_on_c, 6, 69, 80
1, 206880, Note_on_c, 6, 76, 77
1, 206880, Note_on_c, 8, 30, 100
1, 206880, Note_on_c, 8, 42, 100
1, 206880, Note_on_c, 13, 57, 100
1, 206880, Note_on_c, 13, 61, 100
1, 206898, Note_off_c, 10, 64, 0
1, 206918, Note_off_c, 10, 76, 0
1, 206928, Note_off_c, 10, 69, 0
1, 207014, Note_off_c, 1, 64, 0
1, 207142, Note_off_c, 6, 64, 0
1, 207158, Note_off_c, 6, 69, 0
1, 207168, Note_off_c, 6, 76, 0
1, 207172, Note_off_c, 8, 30, 0
1, 207172, Note_off_c, 8, 42, 0
1, 207172, Note_off_c, 13, 57, 0
1, 207172, Note_off_c, 13, 61, 0
1, 207360, Note_on_c, 0, 59, 100
1, 207360, Note_on_c, 0, 68, 100
1, 207360, Note_on_c, 1, 66, 77
1, 207360, Note_on_c, 2, 71, 100
1, 207360, Note_on_c, 2, 80, 100
1, 207360, Note_on_c, 3, 71, 100
1, 207360, Note_on_c, 3, 76, 100
1, 207360, Note_on_c, 4, 80, 100
1, 207360, Note_on_c, 5, 71, 100
1, 207360, Note_on_c, 7, 64, 67
1, 207360, Note_on_c, 7, 69, 75
1, 207360, Note_on_c, 7, 76, 70
1, 207360, Note_on_c, 8, 57, 100
1, 207360, Note_on_c, 8, 61, 100
1, 207360, Note_on_c, 13, 30, 100
1, 207360, Note_on_c, 13, 42, 100
1, 207590, Note_off_c, 7, 69, 0
1, 207608, Note_off_c, 7, 64, 0
1, 207618, Note_off_c, 7, 76, 0
1, 207642, Note_on_c, 10, 64, 68
1, 207642, Note_on_c, 10, 69, 74
1, 207642, Note_on_c, 10, 76, 75
1, 207652, Note_off_c, 8, 57, 0
1, 207652, Note_off_c, 8, 61, 0
1, 207652, Note_off_c, 13, 30, 0
1, 207652, Note_off_c, 13, 42, 0
1, 207832, Note_off_c, 0, 59, 64
1, 207832, Note_off_c, 0, 68, 64
1, 207832, Note_off_c, 2, 71, 64
1, 207832, Note_off_c, 2, 80, 64
1, 207832, Note_off_c, 3, 71, 64
1, 207832, Note_off_c, 3, 76, 64
1, 207832, Note_off_c, 4, 80, 0
1, 207832, Note_off_c, 5, 71, 0
1, 207840, Note_on_c, 0, 57, 100
1, 207840, Note_on_c, 0, 66, 100
1, 207840, Note_on_c, 1, 61, 70
1, 207840, Note_on_c, 2, 69, 100
1, 207840, Note_on_c, 2, 78, 100
1, 207840, Note_on_c, 3, 64, 100
1, 207840, Note_on_c, 3, 69, 100
1, 207840, Note_on_c, 4, 78, 100
1, 207840, Note_on_c, 5, 69, 100
1, 207840, Note_on_c, 6, 64, 68
1, 207840, Note_on_c, 6, 69, 70
1, 207840, Note_on_c, 6, 76, 74
1, 207840, Note_on_c, 8, 30, 100
1, 207840, Note_on_c, 8, 42, 100
1, 207840, Note_on_c, 13, 57, 100
1, 207840, Note_on_c, 13, 61, 100
1, 207914, Note_off_c, 10, 69, 0
1, 207918, Note_off_c, 10, 64, 0
1, 207932, Note_off_c, 10, 76, 0
1, 208002, Note_off_c, 1, 66, 0
1, 208126, Note_off_c, 6, 64, 0
1, 208132, Note_off_c, 8, 30, 0
1, 208132, Note_off_c, 8, 42, 0
1, 208132, Note_off_c, 13, 57, 0
1, 208132, Note_off_c, 13, 61, 0
1, 208138, Note_off_c, 6, 69, 0
1, 208138, Note_off_c, 6, 76, 0
1, 208312, Note_off_c, 0, 57, 64
1, 208312, Note_off_c, 0, 66, 64
1, 208312, Note_off_c, 2, 69, 64
1, 208312, Note_off_c, 2, 78, 64
1, 208312, Note_off_c, 3, 64, 64
1, 208312, Note_off_c, 3, 69, 64
1, 208312, Note_off_c, 4, 78, 0
1, 208312, Note_off_c, 5, 69, 0
1, 208320, Note_on_c, 7, 64, 66
1, 208320, Note_on_c, 7, 69, 68
1, 208320, Note_on_c, 7, 76, 72
1, 208320, Note_on_c, 8, 56, 100
1, 208320, Note_on_c, 8, 61, 100
1, 208320, Note_on_c, 13, 37, 100
1, 208320, Note_on_c, 13, 49, 100
1, 208468, Note_off_c, 1, 61, 0
1, 208580, Note_off_c, 7, 69, 0
1, 208590, Note_off_c, 7, 64, 0
1, 208594, Note_off_c, 7, 76, 0
1, 208602, Note_on_c, 10, 64, 73
1, 208602, Note_on_c, 10, 69, 80
1, 208602, Note_on_c, 10, 76, 77
1, 208612, Note_off_c, 8, 56, 0
1, 208612, Note_off_c, 8, 61, 0
1, 208612, Note_off_c, 13, 37, 0
1, 208612, Note_off_c, 13, 49, 0
1, 208800, Note_on_c, 0, 59, 100
1, 208800, Note_on_c, 0, 68, 100
1, 208800, Note_on_c, 1, 69, 77
1, 208800, Note_on_c, 2, 71, 100
1, 208800, Note_on_c, 2, 80, 100
1, 208800, Note_on_c, 3, 71, 100
1, 208800, Note_on_c, 3, 76, 100
1, 208800, Note_on_c, 4, 80, 100
1, 208800, Note_on_c, 5, 71, 100
1, 208800, Note_on_c, 6, 64, 70
1, 208800, Note_on_c, 6, 69, 74
1, 208800, Note_on_c, 6, 76, 74
1, 208800, Note_on_c, 8, 37, 100
1, 208800, Note_on_c, 8, 49, 100
1, 208800, Note_on_c, 13, 56, 100
1, 208800, Note_on_c, 13, 61, 100
1, 208864, Note_off_c, 10, 64, 0
1, 208880, Note_off_c, 10, 69, 0
1, 208890, Note_off_c, 10, 76, 0
1, 209004, Note_off_c, 6, 64, 0
1, 209034, Note_off_c, 6, 76, 0
1, 209072, Note_off_c, 6, 69, 0
1, 209092, Note_off_c, 8, 37, 0
1, 209092, Note_off_c, 8, 49, 0
1, 209092, Note_off_c, 13, 56, 0
1, 209092, Note_off_c, 13, 61, 0
1, 209272, Note_off_c, 0, 59, 64
1, 209272, Note_off_c, 0, 68, 64
1, 209272, Note_off_c, 2, 71, 64
1, 209272, Note_off_c, 2, 80, 64
1, 209272, Note_off_c, 3, 71, 64
1, 209272, Note_off_c, 3, 76, 64
1, 209272, Note_off_c, 4, 80, 0
1, 209272, Note_off_c, 5, 71, 0
1, 209280, Note_on_c, 7, 64, 62
1, 209280, Note_on_c, 7, 69, 60
1, 209280, Note_on_c, 7, 76, 70
1, 209280, Note_on_c, 8, 56, 100
1, 209280, Note_on_c, 8, 61, 100
1, 209280, Note_on_c, 13, 37, 100
1, 209280, Note_on_c, 13, 49, 100
1, 209448, Note_off_c, 1, 69, 0
1, 209540, Note_off_c, 7, 69, 0
1, 209558, Note_off_c, 7, 64, 0
1, 209562, Note_on_c, 10, 64, 68
1, 209562, Note_on_c, 10, 69, 70
1, 209562, Note_on_c, 10, 76, 74
1, 209572, Note_off_c, 8, 56, 0
1, 209572, Note_off_c, 8, 61, 0
1, 209572, Note_off_c, 13, 37, 0
1, 209572, Note_off_c, 13, 49, 0
1, 209618, Note_off_c, 7, 76, 0
1, 209760, Note_on_c, 0, 61, 100
1, 209760, Note_on_c, 0, 69, 100
1, 209760, Note_on_c, 1, 64, 68
1, 209760, Note_on_c, 2, 73, 100
1, 209760, Note_on_c, 2, 81, 100
1, 209760, Note_on_c, 3, 73, 100
1, 209760, Note_on_c, 3, 76, 100
1, 209760, Note_on_c, 4, 81, 100
1, 209760, Note_on_c, 5, 73, 100
1, 209760, Note_on_c, 6, 64, 68
1, 209760, Note_on_c, 6, 69, 68
1, 209760, Note_on_c, 6, 76, 72
1, 209760, Note_on_c, 8, 37, 100
1, 209760, Note_on_c, 8, 49, 100
1, 209760, Note_on_c, 13, 56, 100
1, 209760, Note_on_c, 13, 61, 100
1, 209848, Note_off_c, 10, 64, 0
1, 209860, Note_off_c, 10, 69, 0
1, 209860, Note_off_c, 10, 76, 0
1, 209966, Note_off_c, 6, 69, 0
1, 209974, Note_off_c, 6, 64, 0
1, 209984, Note_off_c, 6, 76, 0
1, 210052, Note_off_c, 8, 37, 0
1, 210052, Note_off_c, 8, 49, 0
1, 210052, Note_off_c, 13, 56, 0
1, 210052, Note_off_c, 13, 61, 0
1, 210204, Note_off_c, 1, 64, 0
1, 210232, Note_off_c, 0, 61, 64
1, 210232, Note_off_c, 0, 69, 64
1, 210232, Note_off_c, 2, 73, 64
1, 210232, Note_off_c, 2, 81, 64
1, 210232, Note_off_c, 3, 73, 64
1, 210232, Note_off_c, 3, 76, 64
1, 210232, Note_off_c, 4, 81, 0
1, 210232, Note_off_c, 5, 73, 0
1, 210240, Note_on_c, 0, 57, 100
1, 210240, Note_on_c, 0, 66, 100
1, 210240, Note_on_c, 1, 66, 78
1, 210240, Note_on_c, 2, 69, 100
1, 210240, Note_on_c, 2, 78, 100
1, 210240, Note_on_c, 3, 64, 100
1, 210240, Note_on_c, 3, 69, 100
1, 210240, Note_on_c, 4, 78, 100
1, 210240, Note_on_c, 5, 69, 100
1, 210240, Note_on_c, 7, 64, 56
1, 210240, Note_on_c, 7, 69, 69
1, 210240, Note_on_c, 7, 76, 73
1, 210240, Note_on_c, 8, 57, 100
1, 210240, Note_on_c, 8, 61, 100
1, 210240, Note_on_c, 13, 30, 100
1, 210240, Note_on_c, 13, 42, 100
1, 210506, Note_off_c, 7, 64, 0
1, 210522, Note_on_c, 10, 64, 70
1, 210522, Note_on_c, 10, 69, 74
1, 210522, Note_on_c, 10, 76, 74
1, 210532, Note_off_c, 8, 57, 0
1, 210532, Note_off_c, 8, 61, 0
1, 210532, Note_off_c, 13, 30, 0
1, 210532, Note_off_c, 13, 42, 0
1, 210534, Note_off_c, 7, 69, 0
1, 210542, Note_off_c, 7, 76, 0
1, 210712, Note_off_c, 0, 57, 64
1, 210712, Note_off_c, 0, 66, 64
1, 210712, Note_off_c, 2, 69, 64
1, 210712, Note_off_c, 2, 78, 64
1, 210712, Note_off_c, 3, 64, 64
1, 210712, Note_off_c, 3, 69, 64
1, 210712, Note_off_c, 4, 78, 0
1, 210712, Note_off_c, 5, 69, 0
1, 210720, Note_on_c, 6, 64, 70
1, 210720, Note_on_c, 6, 69, 70
1, 210720, Note_on_c, 6, 76, 75
1, 210720, Note_on_c, 8, 30, 100
1, 210720, Note_on_c, 8, 42, 100
1, 210720, Note_on_c, 13, 57, 100
1, 210720, Note_on_c, 13, 61, 100
1, 210726, Note_off_c, 10, 64, 0
1, 210756, Note_off_c, 10, 76, 0
1, 210794, Note_off_c, 10, 69, 0
1, 210908, Note_off_c, 1, 66, 0
1, 210948, Note_off_c, 6, 69, 0
1, 210990, Note_off_c, 6, 64, 0
1, 211012, Note_off_c, 8, 30, 0
1, 211012, Note_off_c, 8, 42, 0
1, 211012, Note_off_c, 13, 57, 0
1, 211012, Note_off_c, 13, 61, 0
1, 211028, Note_off_c, 6, 76, 0
1, 211200, Note_on_c, 0, 59, 100
1, 211200, Note_on_c, 0, 68, 100
1, 211200, Note_on_c, 1, 59, 74
1, 211200, Note_on_c, 2, 71, 100
1, 211200, Note_on_c, 2, 80, 100
1, 211200, Note_on_c, 3, 71, 100
1, 211200, Note_on_c, 3, 76, 100
1, 211200, Note_on_c, 4, 80, 100
1, 211200, Note_on_c, 5, 71, 100
1, 211200, Note_on_c, 7, 64, 66
1, 211200, Note_on_c, 7, 69, 70
1, 211200, Note_on_c, 7, 76, 75
1, 211200, Note_on_c, 8, 57, 100
1, 211200, Note_on_c, 8, 61, 100
1, 211200, Note_on_c, 13, 30, 100
1, 211200, Note_on_c, 13, 42, 100
1, 211450, Note_off_c, 7, 69, 0
1, 211464, Note_off_c, 7, 64, 0
1, 211482, Note_on_c, 10, 64, 68
1, 211482, Note_on_c, 10, 69, 68
1, 211482, Note_on_c, 10, 76, 72
1, 211490, Note_off_c, 7, 76, 0
1, 211492, Note_off_c, 8, 57, 0
1, 211492, Note_off_c, 8, 61, 0
1, 211492, Note_off_c, 13, 30, 0
1, 211492, Note_off_c, 13, 42, 0
1, 211672, Note_off_c, 0, 59, 64
1, 211672, Note_off_c, 0, 68, 64
1, 211672, Note_off_c, 2, 71, 64
1, 211672, Note_off_c, 2, 80, 64
1, 211672, Note_off_c, 3, 71, 64
1, 211672, Note_off_c, 3, 76, 64
1, 211672, Note_off_c, 4, 80, 0
1, 211672, Note_off_c, 5, 71, 0
1, 211680, Note_on_c, 0, 57, 100
1, 211680, Note_on_c, 0, 66, 100
1, 211680, Note_on_c, 1, 69, 75
1, 211680, Note_on_c, 2, 69, 100
1, 211680, Note_on_c, 2, 78, 100
1, 211680, Note_on_c, 3, 66, 100
1, 211680, Note_on_c, 3, 69, 100
1, 211680, Note_on_c, 4, 78, 100
1, 211680, Note_on_c, 5, 69, 100
1, 211680, Note_on_c, 6, 64, 69
1, 211680, Note_on_c, 6, 69, 69
1, 211680, Note_on_c, 6, 76, 73
1, 211680, Note_on_c, 8, 30, 100
1, 211680, Note_on_c, 8, 42, 100
1, 211680, Note_on_c, 13, 57, 100
1, 211680, Note_on_c, 13, 61, 100
1, 211688, Note_off_c, 1, 59, 0
1, 211688, Note_off_c, 10, 69, 0
1, 211696, Note_off_c, 10, 64, 0
1, 211706, Note_off_c, 10, 76, 0
1, 211946, Note_off_c, 6, 64, 0
1, 211972, Note_off_c, 8, 30, 0
1, 211972, Note_off_c, 8, 42, 0
1, 211972, Note_off_c, 13, 57, 0
1, 211972, Note_off_c, 13, 61, 0
1, 211984, Note_off_c, 6, 69, 0
1, 211984, Note_off_c, 6, 76, 0
1, 212152, Note_off_c, 0, 57, 64
1, 212152, Note_off_c, 0, 66, 64
1, 212152, Note_off_c, 2, 69, 64
1, 212152, Note_off_c, 2, 78, 64
1, 212152, Note_off_c, 3, 66, 64
1, 212152, Note_off_c, 3, 69, 64
1, 212152, Note_off_c, 4, 78, 0
1, 212152, Note_off_c, 5, 69, 0
1, 212160, Note_on_c, 0, 61, 100
1, 212160, Note_on_c, 0, 69, 100
1, 212160, Note_on_c, 1, 64, 73
1, 212160, Note_on_c, 2, 73, 100
1, 212160, Note_on_c, 2, 81, 100
1, 212160, Note_on_c, 3, 73, 100
1, 212160, Note_on_c, 3, 76, 100
1, 212160, Note_on_c, 4, 81, 100
1, 212160, Note_on_c, 5, 73, 100
1, 212160, Note_on_c, 7, 64, 66
1, 212160, Note_on_c, 7, 69, 70
1, 212160, Note_on_c, 7, 76, 75
1, 212160, Note_on_c, 8, 57, 100
1, 212160, Note_on_c, 8, 61, 100
1, 212160, Note_on_c, 13, 30, 100
1, 212160, Note_on_c, 13, 42, 100
1, 212286, Note_off_c, 1, 69, 0
1, 212410, Note_off_c, 7, 69, 0
1, 212424, Note_off_c, 7, 64, 0
1, 212442, Note_on_c, 10, 64, 70
1, 212442, Note_on_c, 10, 69, 70
1, 212442, Note_on_c, 10, 76, 75
1, 212450, Note_off_c, 7, 76, 0
1, 212452, Note_off_c, 8, 57, 0
1, 212452, Note_off_c, 8, 61, 0
1, 212452, Note_off_c, 13, 30, 0
1, 212452, Note_off_c, 13, 42, 0
1, 212632, Note_off_c, 0, 61, 64
1, 212632, Note_off_c, 0, 69, 64
1, 212632, Note_off_c, 2, 73, 64
1, 212632, Note_off_c, 2, 81, 64
1, 212632, Note_off_c, 3, 73, 64
1, 212632, Note_off_c, 3, 76, 64
1, 212632, Note_off_c, 4, 81, 0
1, 212632, Note_off_c, 5, 73, 0
1, 212640, Note_on_c, 6, 64, 67
1, 212640, Note_on_c, 6, 69, 63
1, 212640, Note_on_c, 6, 76, 74
1, 212640, Note_on_c, 8, 30, 100
1, 212640, Note_on_c, 8, 42, 100
1, 212640, Note_on_c, 13, 57, 100
1, 212640, Note_on_c, 13, 61, 100
1, 212670, Note_off_c, 10, 69, 0
1, 212712, Note_off_c, 10, 64, 0
1, 212750, Note_off_c, 10, 76, 0
1, 212844, Note_off_c, 6, 69, 0
1, 212866, Note_off_c, 1, 64, 0
1, 212906, Note_off_c, 6, 64, 0
1, 212906, Note_off_c, 6, 76, 0
1, 212932, Note_off_c, 8, 30, 0
1, 212932, Note_off_c, 8, 42, 0
1, 212932, Note_off_c, 13, 57, 0
1, 212932, Note_off_c, 13, 61, 0
1, 213120, Note_on_c, 0, 59, 100
1, 213120, Note_on_c, 0, 68, 100
1, 213120, Note_on_c, 1, 66, 68
1, 213120, Note_on_c, 2, 71, 100
1, 213120, Note_on_c, 2, 80, 100
1, 213120, Note_on_c, 3, 71, 100
1, 213120, Note_on_c, 3, 76, 100
1, 213120, Note_on_c, 4, 80, 100
1, 213120, Note_on_c, 5, 71, 100
1, 213120, Note_on_c, 7, 64, 72
1, 213120, Note_on_c, 7, 69, 80
1, 213120, Note_on_c, 7, 76, 77
1, 213120, Note_on_c, 8, 56, 100
1, 213120, Note_on_c, 8, 61, 100
1, 213120, Note_on_c, 13, 37, 100
1, 213120, Note_on_c, 13, 49, 100
1, 213360, Note_off_c, 7, 76, 0
1, 213370, Note_off_c, 7, 64, 0
1, 213370, Note_off_c, 7, 69, 0
1, 213402, Note_on_c, 10, 64, 69
1, 213402, Note_on_c, 10, 69, 69
1, 213402, Note_on_c, 10, 76, 73
1, 213412, Note_off_c, 8, 56, 0
1, 213412, Note_off_c, 8, 61, 0
1, 213412, Note_off_c, 13, 37, 0
1, 213412, Note_off_c, 13, 49, 0
1, 213592, Note_off_c, 0, 59, 64
1, 213592, Note_off_c, 0, 68, 64
1, 213592, Note_off_c, 2, 71, 64
1, 213592, Note_off_c, 2, 80, 64
1, 213592, Note_off_c, 3, 71, 64
1, 213592, Note_off_c, 3, 76, 64
1, 213592, Note_off_c, 4, 80, 0
1, 213592, Note_off_c, 5, 71, 0
1, 213600, Note_on_c, 0, 57, 100
1, 213600, Note_on_c, 0, 66, 100
1, 213600, Note_on_c, 1, 61, 68
1, 213600, Note_on_c, 2, 69, 100
1, 213600, Note_on_c, 2, 78, 100
1, 213600, Note_on_c, 3, 64, 100
1, 213600, Note_on_c, 3, 69, 100
1, 213600, Note_on_c, 4, 78, 100
1, 213600, Note_on_c, 5, 69, 100
1, 213600, Note_on_c, 6, 64, 66
1, 213600, Note_on_c, 6, 69, 63
1, 213600, Note_on_c, 6, 76, 74
1, 213600, Note_on_c, 8, 37, 100
1, 213600, Note_on_c, 8, 49, 100
1, 213600, Note_on_c, 13, 56, 100
1, 213600, Note_on_c, 13, 61, 100
1, 213636, Note_off_c, 1, 66, 0
1, 213668, Note_off_c, 10, 64, 0
1, 213706, Note_off_c, 10, 69, 0
1, 213706, Note_off_c, 10, 76, 0
1, 213830, Note_off_c, 6, 69, 0
1, 213836, Note_off_c, 6, 64, 0
1, 213874, Note_off_c, 6, 76, 0
1, 213892, Note_off_c, 8, 37, 0
1, 213892, Note_off_c, 8, 49, 0
1, 213892, Note_off_c, 13, 56, 0
1, 213892, Note_off_c, 13, 61, 0
1, 214072, Note_off_c, 0, 57, 64
1, 214072, Note_off_c, 0, 66, 64
1, 214072, Note_off_c, 2, 69, 64
1, 214072, Note_off_c, 2, 78, 64
1, 214072, Note_off_c, 3, 64, 64
1, 214072, Note_off_c, 3, 69, 64
1, 214072, Note_off_c, 4, 78, 0
1, 214072, Note_off_c, 5, 69, 0
1, 214080, Note_on_c, 7, 64, 70
1, 214080, Note_on_c, 7, 69, 77
1, 214080, Note_on_c, 7, 76, 77
1, 214080, Note_on_c, 8, 56, 100
1, 214080, Note_on_c, 8, 61, 100
1, 214080, Note_on_c, 13, 37, 100
1, 214080, Note_on_c, 13, 49, 100
1, 214334, Note_off_c, 7, 64, 0
1, 214362, Note_off_c, 7, 69, 0
1, 214362, Note_on_c, 10, 64, 67
1, 214362, Note_on_c, 10, 69, 63
1, 214362, Note_on_c, 10, 76, 74
1, 214370, Note_off_c, 1, 61, 0
1, 214370, Note_off_c, 7, 76, 0
1, 214372, Note_off_c, 8, 56, 0
1, 214372, Note_off_c, 8, 61, 0
1, 214372, Note_off_c, 13, 37, 0
1, 214372, Note_off_c, 13, 49, 0
1, 214560, Note_on_c, 0, 59, 100
1, 214560, Note_on_c, 0, 68, 100
1, 214560, Note_on_c, 1, 69, 77
1, 214560, Note_on_c, 2, 71, 100
1, 214560, Note_on_c, 2, 80, 100
1, 214560, Note_on_c, 3, 71, 100
1, 214560, Note_on_c, 3, 76, 100
1, 214560, Note_on_c, 4, 80, 100
1, 214560, Note_on_c, 5, 71, 100
1, 214560, Note_on_c, 6, 64, 68
1, 214560, Note_on_c, 6, 69, 74
1, 214560, Note_on_c, 6, 76, 74
1, 214560, Note_on_c, 8, 37, 100
1, 214560, Note_on_c, 8, 49, 100
1, 214560, Note_on_c, 13, 56, 100
1, 214560, Note_on_c, 13, 61, 100
1, 214566, Note_off_c, 10, 69, 0
1, 214628, Note_off_c, 10, 64, 0
1, 214628, Note_off_c, 10, 76, 0
1, 214820, Note_off_c, 6, 69, 0
1, 214850, Note_off_c, 6, 76, 0
1, 214852, Note_off_c, 8, 37, 0
1, 214852, Note_off_c, 8, 49, 0
1, 214852, Note_off_c, 13, 56, 0
1, 214852, Note_off_c, 13, 61, 0
1, 214854, Note_off_c, 6, 64, 0
1, 215032, Note_off_c, 0, 59, 64
1, 215032, Note_off_c, 0, 68, 64
1, 215032, Note_off_c, 2, 71, 64
1, 215032, Note_off_c, 2, 80, 64
1, 215032, Note_off_c, 3, 71, 64
1, 215032, Note_off_c, 3, 76, 64
1, 215032, Note_off_c, 4, 80, 0
1, 215032, Note_off_c, 5, 71, 0
1, 215040, Note_on_c, 7, 64, 70
1, 215040, Note_on_c, 7, 69, 73
1, 215040, Note_on_c, 7, 76, 74
1, 215040, Note_on_c, 8, 56, 100
1, 215040, Note_on_c, 8, 61, 100
1, 215040, Note_on_c, 13, 37, 100
1, 215040, Note_on_c, 13, 49, 100
1, 215184, Note_off_c, 1, 69, 0
1, 215280, Note_off_c, 7, 64, 0
1, 215286, Note_off_c, 7, 69, 0
1, 215300, Note_off_c, 7, 76, 0
1, 215322, Note_on_c, 10, 64, 66
1, 215322, Note_on_c, 10, 69, 63
1, 215322, Note_on_c, 10, 76, 74
1, 215332, Note_off_c, 8, 56, 0
1, 215332, Note_off_c, 8, 61, 0
1, 215332, Note_off_c, 13, 37, 0
1, 215332, Note_off_c, 13, 49, 0
1, 215520, Note_on_c, 0, 61, 100
1, 215520, Note_on_c, 0, 69, 100
1, 215520, Note_on_c, 1, 64, 70
1, 215520, Note_on_c, 2, 73, 100
1, 215520, Note_on_c, 2, 81, 100
1, 215520, Note_on_c, 3, 73, 100
1, 215520, Note_on_c, 3, 76, 100
1, 215520, Note_on_c, 4, 81, 100
1, 215520, Note_on_c, 5, 73, 100
1, 215520, Note_on_c, 6, 64, 73
1, 215520, Note_on_c, 6, 69, 82
1, 215520, Note_on_c, 6, 76, 77
1, 215520, Note_on_c, 8, 37, 100
1, 215520, Note_on_c, 8, 49, 100
1, 215520, Note_on_c, 13, 56, 100
1, 215520, Note_on_c, 13, 61, 100
1, 215552, Note_off_c, 10, 69, 0
1, 215558, Note_off_c, 10, 64, 0
1, 215596, Note_off_c, 10, 76, 0
1, 215798, Note_off_c, 6, 69, 0
1, 215810, Note_off_c, 6, 64, 0
1, 215812, Note_off_c, 8, 37, 0
1, 215812, Note_off_c, 8, 49, 0
1, 215812, Note_off_c, 13, 56, 0
1, 215812, Note_off_c, 13, 61, 0
1, 215818, Note_off_c, 6, 76, 0
1, 215992, Note_off_c, 0, 61, 64
1, 215992, Note_off_c, 0, 69, 64
1, 215992, Note_off_c, 2, 73, 64
1, 215992, Note_off_c, 2, 81, 64
1, 215992, Note_off_c, 3, 73, 64
1, 215992, Note_off_c, 3, 76, 64
1, 215992, Note_off_c, 4, 81, 0
1, 215992, Note_off_c, 5, 73, 0
1, 216000, Note_on_c, 0, 57, 100
1, 216000, Note_on_c, 0, 66, 100
1, 216000, Note_on_c, 1, 66, 77
1, 216000, Note_on_c, 2, 69, 100
1, 216000, Note_on_c, 2, 78, 100
1, 216000, Note_on_c, 3, 64, 100
1, 216000, Note_on_c, 3, 69, 100
1, 216000, Note_on_c, 4, 78, 100
1, 216000, Note_on_c, 5, 69, 100
1, 216000, Note_on_c, 7, 64, 72
1, 216000, Note_on_c, 7, 69, 77
1, 216000, Note_on_c, 7, 76, 75
1, 216000, Note_on_c, 8, 57, 100
1, 216000, Note_on_c, 8, 61, 100
1, 216000, Note_on_c, 13, 30, 100
1, 216000, Note_on_c, 13, 42, 100
1, 216152, Note_off_c, 1, 64, 0
1, 216208, Note_off_c, 7, 69, 0
1, 216222, Note_off_c, 7, 64, 0
1, 216242, Note_off_c, 7, 76, 0
1, 216282, Note_on_c, 10, 64, 68
1, 216282, Note_on_c, 10, 69, 74
1, 216282, Note_on_c, 10, 76, 74
1, 216292, Note_off_c, 8, 57, 0
1, 216292, Note_off_c, 8, 61, 0
1, 216292, Note_off_c, 13, 30, 0
1, 216292, Note_off_c, 13, 42, 0
1, 216472, Note_off_c, 0, 57, 64
1, 216472, Note_off_c, 0, 66, 64
1, 216472, Note_off_c, 2, 69, 64
1, 216472, Note_off_c, 2, 78, 64
1, 216472, Note_off_c, 3, 64, 64
1, 216472, Note_off_c, 3, 69, 64
1, 216472, Note_off_c, 4, 78, 0
1, 216472, Note_off_c, 5, 69, 0
1, 216480, Note_on_c, 6, 64, 72
1, 216480, Note_on_c, 6, 69, 75
1, 216480, Note_on_c, 6, 76, 73
1, 216480, Note_on_c, 8, 30, 100
1, 216480, Note_on_c, 8, 42, 100
1, 216480, Note_on_c, 13, 57, 100
1, 216480, Note_on_c, 13, 61, 100
1, 216542, Note_off_c, 10, 69, 0
1, 216572, Note_off_c, 10, 76, 0
1, 216576, Note_off_c, 10, 64, 0
1, 216644, Note_off_c, 1, 66, 0
1, 216768, Note_off_c, 6, 76, 0
1, 216770, Note_off_c, 6, 69, 0
1, 216772, Note_off_c, 8, 30, 0
1, 216772, Note_off_c, 8, 42, 0
1, 216772, Note_off_c, 13, 57, 0
1, 216772, Note_off_c, 13, 61, 0
1, 216778, Note_off_c, 6, 64, 0
1, 216960, Note_on_c, 0, 59, 100
1, 216960, Note_on_c, 0, 68, 100
1, 216960, Note_on_c, 1, 59, 65
1, 216960, Note_on_c, 2, 71, 100
1, 216960, Note_on_c, 2, 80, 100
1, 216960, Note_on_c, 3, 71, 100
1, 216960, Note_on_c, 3, 76, 100
1, 216960, Note_on_c, 4, 80, 100
1, 216960, Note_on_c, 5, 71, 100
1, 216960, Note_on_c, 7, 64, 70
1, 216960, Note_on_c, 7, 69, 78
1, 216960, Note_on_c, 7, 76, 77
1, 216960, Note_on_c, 8, 57, 100
1, 216960, Note_on_c, 8, 61, 100
1, 216960, Note_on_c, 13, 30, 100
1, 216960, Note_on_c, 13, 42, 100
1, 217202, Note_off_c, 7, 64, 0
1, 217224, Note_off_c, 7, 76, 0
1, 217242, Note_on_c, 10, 64, 73
1, 217242, Note_on_c, 10, 69, 82
1, 217242, Note_on_c, 10, 76, 77
1, 217248, Note_off_c, 7, 69, 0
1, 217252, Note_off_c, 8, 57, 0
1, 217252, Note_off_c, 8, 61, 0
1, 217252, Note_off_c, 13, 30, 0
1, 217252, Note_off_c, 13, 42, 0
1, 217432, Note_off_c, 0, 59, 64
1, 217432, Note_off_c, 0, 68, 64
1, 217432, Note_off_c, 2, 71, 64
1, 217432, Note_off_c, 2, 80, 64
1, 217432, Note_off_c, 3, 71, 64
1, 217432, Note_off_c, 3, 76, 64
1, 217432, Note_off_c, 4, 80, 0
1, 217432, Note_off_c, 5, 71, 0
1, 217440, Note_on_c, 0, 57, 100
1, 217440, Note_on_c, 0, 66, 100
1, 217440, Note_on_c, 1, 69, 74
1, 217440, Note_on_c, 2, 69, 100
1, 217440, Note_on_c, 2, 78, 100
1, 217440, Note_on_c, 3, 66, 100
1, 217440, Note_on_c, 3, 69, 100
1, 217440, Note_on_c, 4, 78, 100
1, 217440, Note_on_c, 5, 69, 100
1, 217440, Note_on_c, 6, 64, 69
1, 217440, Note_on_c, 6, 69, 70
1, 217440, Note_on_c, 6, 76, 72
1, 217440, Note_on_c, 8, 30, 100
1, 217440, Note_on_c, 8, 42, 100
1, 217440, Note_on_c, 13, 57, 100
1, 217440, Note_on_c, 13, 61, 100
1, 217520, Note_off_c, 10, 69, 0
1, 217532, Note_off_c, 10, 64, 0
1, 217534, Note_off_c, 1, 59, 0
1, 217540, Note_off_c, 10, 76, 0
1, 217704, Note_off_c, 6, 69, 0
1, 217728, Note_off_c, 6, 64, 0
1, 217732, Note_off_c, 8, 30, 0
1, 217732, Note_off_c, 8, 42, 0
1, 217732, Note_off_c, 13, 57, 0
1, 217732, Note_off_c, 13, 61, 0
1, 217744, Note_off_c, 6, 76, 0
1, 217912, Note_off_c, 0, 57, 64
1, 217912, Note_off_c, 0, 66, 64
1, 217912, Note_off_c, 2, 69, 64
1, 217912, Note_off_c, 2, 78, 64
1, 217912, Note_off_c, 3, 66, 64
1, 217912, Note_off_c, 3, 69, 64
1, 217912, Note_off_c, 4, 78, 0
1, 217912, Note_off_c, 5, 69, 0
1, 217920, Note_on_c, 0, 61, 100
1, 217920, Note_on_c, 0, 69, 100
1, 217920, Note_on_c, 1, 64, 68
1, 217920, Note_on_c, 2, 73, 100
1, 217920, Note_on_c, 2, 81, 100
1, 217920, Note_on_c, 3, 73, 100
1, 217920, Note_on_c, 3, 76, 100
1, 217920, Note_on_c, 4, 81, 100
1, 217920, Note_on_c, 5, 73, 100
1, 217920, Note_on_c, 7, 64, 70
1, 217920, Note_on_c, 7, 69, 72
1, 217920, Note_on_c, 7, 76, 77
1, 217920, Note_on_c, 8, 56, 100
1, 217920, Note_on_c, 8, 61, 100
1, 217920, Note_on_c, 13, 37, 100
1, 217920, Note_on_c, 13, 49, 100
1, 218132, Note_off_c, 1, 69, 0
1, 218174, Note_off_c, 7, 64, 0
1, 218186, Note_off_c, 7, 69, 0
1, 218202, Note_on_c, 10, 64, 72
1, 218202, Note_on_c, 10, 69, 75
1, 218202, Note_on_c, 10, 76, 73
1, 218212, Note_off_c, 8, 56, 0
1, 218212, Note_off_c, 8, 61, 0
1, 218212, Note_off_c, 13, 37, 0
1, 218212, Note_off_c, 13, 49, 0
1, 218242, Note_off_c, 7, 76, 0
1, 218392, Note_off_c, 0, 61, 64
1, 218392, Note_off_c, 0, 69, 64
1, 218392, Note_off_c, 2, 73, 64
1, 218392, Note_off_c, 2, 81, 64
1, 218392, Note_off_c, 3, 73, 64
1, 218392, Note_off_c, 3, 76, 64
1, 218392, Note_off_c, 4, 81, 0
1, 218392, Note_off_c, 5, 73, 0
1, 218400, Note_on_c, 6, 64, 68
1, 218400, Note_on_c, 6, 69, 77
1, 218400, Note_on_c, 6, 76, 73
1, 218400, Note_on_c, 8, 37, 100
1, 218400, Note_on_c, 8, 49, 100
1, 218400, Note_on_c, 13, 56, 100
1, 218400, Note_on_c, 13, 61, 100
1, 218490, Note_off_c, 10, 76, 0
1, 218492, Note_off_c, 10, 69, 0
1, 218500, Note_off_c, 10, 64, 0
1, 218534, Note_off_c, 1, 64, 0
1, 218666, Note_off_c, 6, 64, 0
1, 218684, Note_off_c, 6, 69, 0
1, 218684, Note_off_c, 6, 76, 0
1, 218692, Note_off_c, 8, 37, 0
1, 218692, Note_off_c, 8, 49, 0
1, 218692, Note_off_c, 13, 56, 0
1, 218692, Note_off_c, 13, 61, 0
1, 218880, Note_on_c, 1, 66, 77
1, 218880, Note_on_c, 3, 71, 100
1, 218880, Note_on_c, 3, 76, 100
1, 218880, Note_on_c, 7, 64, 73
1, 218880, Note_on_c, 7, 69, 77
1, 218880, Note_on_c, 7, 76, 74
1, 218880, Note_on_c, 8, 56, 100
1, 218880, Note_on_c, 8, 61, 100
1, 218880, Note_on_c, 13, 37, 100
1, 218880, Note_on_c, 13, 49, 100
1, 219162, Note_on_c, 10, 64, 69
1, 219162, Note_on_c, 10, 69, 70
1, 219162, Note_on_c, 10, 76, 72
1, 219164, Note_off_c, 7, 69, 0
1, 219172, Note_off_c, 8, 56, 0
1, 219172, Note_off_c, 8, 61, 0
1, 219172, Note_off_c, 13, 37, 0
1, 219172, Note_off_c, 13, 49, 0
1, 219196, Note_off_c, 7, 76, 0
1, 219202, Note_off_c, 7, 64, 0
1, 219352, Note_off_c, 3, 71, 64
1, 219352, Note_off_c, 3, 76, 64
1, 219360, Note_on_c, 1, 61, 70
1, 219360, Note_on_c, 3, 64, 100
1, 219360, Note_on_c, 3, 69, 100
1, 219360, Note_on_c, 6, 64, 72
1, 219360, Note_on_c, 6, 69, 52
1, 219360, Note_on_c, 6, 76, 72
1, 219360, Note_on_c, 8, 37, 100
1, 219360, Note_on_c, 8, 49, 100
1, 219360, Note_on_c, 13, 56, 100
1, 219360, Note_on_c, 13, 61, 100
1, 219426, Note_off_c, 10, 69, 0
1, 219450, Note_off_c, 10, 64, 0
1, 219466, Note_off_c, 10, 76, 0
1, 219512, Note_off_c, 6, 69, 0
1, 219522, Note_off_c, 1, 66, 0
1, 219600, Note_off_c, 6, 64, 0
1, 219606, Note_off_c, 6, 76, 0
1, 219652, Note_off_c, 8, 37, 0
1, 219652, Note_off_c, 8, 49, 0
1, 219652, Note_off_c, 13, 56, 0
1, 219652, Note_off_c, 13, 61, 0
1, 219832, Note_off_c, 3, 64, 64
1, 219832, Note_off_c, 3, 69, 64
1, 219840, Note_on_c, 7, 64, 68
1, 219840, Note_on_c, 7, 69, 70
1, 219840, Note_on_c, 7, 76, 72
1, 219840, Note_on_c, 8, 56, 100
1, 219840, Note_on_c, 8, 61, 100
1, 219840, Note_on_c, 13, 37, 100
1, 219840, Note_on_c, 13, 49, 100
1, 219988, Note_off_c, 1, 61, 0
1, 220122, Note_on_c, 10, 64, 68
1, 220122, Note_on_c, 10, 69, 77
1, 220122, Note_on_c, 10, 76, 73
1, 220130, Note_off_c, 7, 69, 0
1, 220132, Note_off_c, 8, 56, 0
1, 220132, Note_off_c, 8, 61, 0
1, 220132, Note_off_c, 13, 37, 0
1, 220132, Note_off_c, 13, 49, 0
1, 220148, Note_off_c, 7, 76, 0
1, 220154, Note_off_c, 7, 64, 0
1, 220320, Note_on_c, 1, 69, 77
1, 220320, Note_on_c, 3, 71, 100
1, 220320, Note_on_c, 3, 76, 100
1, 220320, Note_on_c, 6, 64, 68
1, 220320, Note_on_c, 6, 69, 70
1, 220320, Note_on_c, 6, 76, 74
1, 220320, Note_on_c, 8, 37, 100
1, 220320, Note_on_c, 8, 49, 100
1, 220320, Note_on_c, 13, 56, 100
1, 220320, Note_on_c, 13, 61, 100
1, 220388, Note_off_c, 10, 64, 0
1, 220406, Note_off_c, 10, 69, 0
1, 220406, Note_off_c, 10, 76, 0
1, 220552, Note_off_c, 6, 69, 0
1, 220562, Note_off_c, 6, 64, 0
1, 220570, Note_off_c, 6, 76, 0
1, 220612, Note_off_c, 8, 37, 0
1, 220612, Note_off_c, 8, 49, 0
1, 220612, Note_off_c, 13, 56, 0
1, 220612, Note_off_c, 13, 61, 0
1, 220792, Note_off_c, 3, 71, 64
1, 220792, Note_off_c, 3, 76, 64
1, 220800, Note_on_c, 7, 64, 68
1, 220800, Note_on_c, 7, 69, 70
1, 220800, Note_on_c, 7, 76, 73
1, 220800, Note_on_c, 8, 56, 100
1, 220800, Note_on_c, 8, 61, 100
1, 220800, Note_on_c, 13, 37, 100
1, 220800, Note_on_c, 13, 49, 100
1, 220968, Note_off_c, 1, 69, 0
1, 221048, Note_off_c, 7, 64, 0
1, 221062, Note_off_c, 7, 69, 0
1, 221062, Note_off_c, 7, 76, 0
1, 221082, Note_on_c, 10, 64, 72
1, 221082, Note_on_c, 10, 69, 52
1, 221082, Note_on_c, 10, 76, 72
1, 221092, Note_off_c, 8, 56, 0
1, 221092, Note_off_c, 8, 61, 0
1, 221092, Note_off_c, 13, 37, 0
1, 221092, Note_off_c, 13, 49, 0
1, 221234, Note_off_c, 10, 69, 0
1, 221280, Note_on_c, 1, 64, 68
1, 221280, Note_on_c, 3, 73, 100
1, 221280, Note_on_c, 3, 76, 100
1, 221280, Note_on_c, 6, 64, 68
1, 221280, Note_on_c, 6, 69, 69
1, 221280, Note_on_c, 6, 76, 72
1, 221280, Note_on_c, 8, 37, 100
1, 221280, Note_on_c, 8, 49, 100
1, 221280, Note_on_c, 13, 56, 100
1, 221280, Note_on_c, 13, 61, 100
1, 221322, Note_off_c, 10, 64, 0
1, 221328, Note_off_c, 10, 76, 0
1, 221496, Note_off_c, 6, 76, 0
1, 221498, Note_off_c, 6, 69, 0
1, 221512, Note_off_c, 6, 64, 0
1, 221572, Note_off_c, 8, 37, 0
1, 221572, Note_off_c, 8, 49, 0
1, 221572, Note_off_c, 13, 56, 0
1, 221572, Note_off_c, 13, 61, 0
1, 221724, Note_off_c, 1, 64, 0
1, 221752, Note_off_c, 3, 73, 64
1, 221752, Note_off_c, 3, 76, 64
1, 221760, Note_on_c, 0, 57, 100
1, 221760, Note_on_c, 0, 66, 100
1, 221760, Note_on_c, 1, 66, 78
1, 221760, Note_on_c, 2, 69, 100
1, 221760, Note_on_c, 2, 78, 100
1, 221760, Note_on_c, 3, 64, 100
1, 221760, Note_on_c, 3, 69, 100
1, 221760, Note_on_c, 4, 78, 100
1, 221760, Note_on_c, 5, 69, 100
1, 221760, Note_on_c, 7, 64, 70
1, 221760, Note_on_c, 7, 69, 83
1, 221760, Note_on_c, 7, 76, 74
1, 221760, Note_on_c, 8, 57, 100
1, 221760, Note_on_c, 8, 61, 100
1, 221760, Note_on_c, 13, 30, 100
1, 221760, Note_on_c, 13, 42, 100
1, 221760, Note_on_c, 14, 68, 100
1, 221760, Note_on_c, 14, 88, 100
1, 222000, Note_off_c, 7, 64, 0
1, 222000, Note_off_c, 7, 76, 0
1, 222010, Note_off_c, 7, 69, 0
1, 222042, Note_on_c, 10, 64, 68
1, 222042, Note_on_c, 10, 69, 70
1, 222042, Note_on_c, 10, 76, 74
1, 222052, Note_off_c, 8, 57, 0
1, 222052, Note_off_c, 8, 61, 0
1, 222052, Note_off_c, 13, 30, 0
1, 222052, Note_off_c, 13, 42, 0
1, 222232, Note_off_c, 0, 57, 64
1, 222232, Note_off_c, 0, 66, 64
1, 222232, Note_off_c, 2, 69, 64
1, 222232, Note_off_c, 2, 78, 64
1, 222232, Note_off_c, 3, 64, 64
1, 222232, Note_off_c, 3, 69, 64
1, 222232, Note_off_c, 4, 78, 0
1, 222232, Note_off_c, 5, 69, 0
1, 222240, Note_on_c, 6, 64, 67
1, 222240, Note_on_c, 6, 69, 67
1, 222240, Note_on_c, 6, 76, 72
1, 222240, Note_on_c, 8, 30, 100
1, 222240, Note_on_c, 8, 42, 100
1, 222240, Note_on_c, 13, 57, 100
1, 222240, Note_on_c, 13, 61, 100
1, 222274, Note_off_c, 10, 69, 0
1, 222284, Note_off_c, 10, 64, 0
1, 222292, Note_off_c, 10, 76, 0
1, 222428, Note_off_c, 1, 66, 0
1, 222486, Note_off_c, 6, 64, 0
1, 222490, Note_off_c, 6, 69, 0
1, 222506, Note_off_c, 6, 76, 0
1, 222532, Note_off_c, 8, 30, 0
1, 222532, Note_off_c, 8, 42, 0
1, 222532, Note_off_c, 13, 57, 0
1, 222532, Note_off_c, 13, 61, 0
1, 222720, Note_on_c, 0, 59, 100
1, 222720, Note_on_c, 0, 68, 100
1, 222720, Note_on_c, 1, 59, 74
1, 222720, Note_on_c, 2, 71, 100
1, 222720, Note_on_c, 2, 80, 100
1, 222720, Note_on_c, 3, 71, 100
1, 222720, Note_on_c, 3, 76, 100
1, 222720, Note_on_c, 4, 80, 100
1, 222720, Note_on_c, 5, 71, 100
1, 222720, Note_on_c, 7, 64, 67
1, 222720, Note_on_c, 7, 69, 78
1, 222720, Note_on_c, 7, 76, 73
1, 222720, Note_on_c, 8, 57, 100
1, 222720, Note_on_c, 8, 61, 100
1, 222720, Note_on_c, 13, 30, 100
1, 222720, Note_on_c, 13, 42, 100
1, 222970, Note_off_c, 7, 76, 0
1, 222976, Note_off_c, 7, 69, 0
1, 222984, Note_off_c, 7, 64, 0
1, 223002, Note_on_c, 10, 64, 68
1, 223002, Note_on_c, 10, 69, 69
1, 223002, Note_on_c, 10, 76, 72
1, 223012, Note_off_c, 8, 57, 0
1, 223012, Note_off_c, 8, 61, 0
1, 223012, Note_off_c, 13, 30, 0
1, 223012, Note_off_c, 13, 42, 0
1, 223192, Note_off_c, 0, 59, 64
1, 223192, Note_off_c, 0, 68, 64
1, 223192, Note_off_c, 2, 71, 64
1, 223192, Note_off_c, 2, 80, 64
1, 223192, Note_off_c, 3, 71, 64
1, 223192, Note_off_c, 3, 76, 64
1, 223192, Note_off_c, 4, 80, 0
1, 223192, Note_off_c, 5, 71, 0
1, 223200, Note_on_c, 0, 57, 100
1, 223200, Note_on_c, 0, 66, 100
1, 223200, Note_on_c, 1, 69, 75
1, 223200, Note_on_c, 2, 69, 100
1, 223200, Note_on_c, 2, 78, 100
1, 223200, Note_on_c, 3, 66, 100
1, 223200, Note_on_c, 3, 69, 100
1, 223200, Note_on_c, 4, 78, 100
1, 223200, Note_on_c, 5, 69, 100
1, 223200, Note_on_c, 6, 64, 67
1, 223200, Note_on_c, 6, 69, 63
1, 223200, Note_on_c, 6, 76, 72
1, 223200, Note_on_c, 8, 30, 100
1, 223200, Note_on_c, 8, 42, 100
1, 223200, Note_on_c, 13, 57, 100
1, 223200, Note_on_c, 13, 61, 100
1, 223208, Note_off_c, 1, 59, 0
1, 223218, Note_off_c, 10, 76, 0
1, 223220, Note_off_c, 10, 69, 0
1, 223234, Note_off_c, 10, 64, 0
1, 223448, Note_off_c, 6, 69, 0
1, 223476, Note_off_c, 6, 64, 0
1, 223492, Note_off_c, 6, 76, 0
1, 223492, Note_off_c, 8, 30, 0
1, 223492, Note_off_c, 8, 42, 0
1, 223492, Note_off_c, 13, 57, 0
1, 223492, Note_off_c, 13, 61, 0
1, 223672, Note_off_c, 0, 57, 64
1, 223672, Note_off_c, 0, 66, 64
1, 223672, Note_off_c, 2, 69, 64
1, 223672, Note_off_c, 2, 78, 64
1, 223672, Note_off_c, 3, 66, 64
1, 223672, Note_off_c, 3, 69, 64
1, 223672, Note_off_c, 4, 78, 0
1, 223672, Note_off_c, 5, 69, 0
1, 223680, Note_on_c, 0, 61, 100
1, 223680, Note_on_c, 0, 69, 100
1, 223680, Note_on_c, 1, 64, 73
1, 223680, Note_on_c, 2, 73, 100
1, 223680, Note_on_c, 2, 81, 100
1, 223680, Note_on_c, 3, 73, 100
1, 223680, Note_on_c, 3, 76, 100
1, 223680, Note_on_c, 4, 81, 100
1, 223680, Note_on_c, 5, 73, 100
1, 223680, Note_on_c, 7, 64, 69
1, 223680, Note_on_c, 7, 69, 70
1, 223680, Note_on_c, 7, 76, 73
1, 223680, Note_on_c, 8, 57, 100
1, 223680, Note_on_c, 8, 61, 100
1, 223680, Note_on_c, 13, 30, 100
1, 223680, Note_on_c, 13, 42, 100
1, 223806, Note_off_c, 1, 69, 0
1, 223900, Note_off_c, 7, 69, 0
1, 223922, Note_off_c, 7, 76, 0
1, 223932, Note_off_c, 7, 64, 0
1, 223962, Note_on_c, 10, 64, 67
1, 223962, Note_on_c, 10, 69, 67
1, 223962, Note_on_c, 10, 76, 72
1, 223972, Note_off_c, 8, 57, 0
1, 223972, Note_off_c, 8, 61, 0
1, 223972, Note_off_c, 13, 30, 0
1, 223972, Note_off_c, 13, 42, 0
1, 224152, Note_off_c, 0, 61, 64
1, 224152, Note_off_c, 0, 69, 64
1, 224152, Note_off_c, 2, 73, 64
1, 224152, Note_off_c, 2, 81, 64
1, 224152, Note_off_c, 3, 73, 64
1, 224152, Note_off_c, 3, 76, 64
1, 224152, Note_off_c, 4, 81, 0
1, 224152, Note_off_c, 5, 73, 0
1, 224160, Note_on_c, 6, 64, 68
1, 224160, Note_on_c, 6, 69, 66
1, 224160, Note_on_c, 6, 76, 70
1, 224160, Note_on_c, 8, 30, 100
1, 224160, Note_on_c, 8, 42, 100
1, 224160, Note_on_c, 13, 57, 100
1, 224160, Note_on_c, 13, 61, 100
1, 224208, Note_off_c, 10, 64, 0
1, 224212, Note_off_c, 10, 69, 0
1, 224228, Note_off_c, 10, 76, 0
1, 224356, Note_off_c, 6, 69, 0
1, 224380, Note_off_c, 6, 64, 0
1, 224386, Note_off_c, 1, 64, 0
1, 224398, Note_off_c, 6, 76, 0
1, 224452, Note_off_c, 8, 30, 0
1, 224452, Note_off_c, 8, 42, 0
1, 224452, Note_off_c, 13, 57, 0
1, 224452, Note_off_c, 13, 61, 0
1, 224632, Note_off_c, 14, 68, 0
1, 224632, Note_off_c, 14, 88, 0
1, 224640, Note_on_c, 0, 59, 100
1, 224640, Note_on_c, 0, 68, 100
1, 224640, Note_on_c, 1, 66, 68
1, 224640, Note_on_c, 2, 71, 100
1, 224640, Note_on_c, 2, 80, 100
1, 224640, Note_on_c, 3, 71, 100
1, 224640, Note_on_c, 3, 76, 100
1, 224640, Note_on_c, 4, 80, 100
1, 224640, Note_on_c, 5, 71, 100
1, 224640, Note_on_c, 7, 64, 69
1, 224640, Note_on_c, 7, 69, 75
1, 224640, Note_on_c, 7, 76, 73
1, 224640, Note_on_c, 8, 56, 100
1, 224640, Note_on_c, 8, 61, 100
1, 224640, Note_on_c, 13, 37, 100
1, 224640, Note_on_c, 13, 49, 100
1, 224640, Note_on_c, 14, 64, 100
1, 224640, Note_on_c, 14, 85, 100
1, 224854, Note_off_c, 7, 69, 0
1, 224870, Note_off_c, 7, 64, 0
1, 224884, Note_off_c, 7, 76, 0
1, 224922, Note_on_c, 10, 64, 67
1, 224922, Note_on_c, 10, 69, 63
1, 224922, Note_on_c, 10, 76, 72
1, 224932, Note_off_c, 8, 56, 0
1, 224932, Note_off_c, 8, 61, 0
1, 224932, Note_off_c, 13, 37, 0
1, 224932, Note_off_c, 13, 49, 0
1, 225112, Note_off_c, 0, 59, 64
1, 225112, Note_off_c, 0, 68, 64
1, 225112, Note_off_c, 2, 71, 64
1, 225112, Note_off_c, 2, 80, 64
1, 225112, Note_off_c, 3, 71, 64
1, 225112, Note_off_c, 3, 76, 64
1, 225112, Note_off_c, 4, 80, 0
1, 225112, Note_off_c, 5, 71, 0
1, 225120, Note_on_c, 0, 57, 100
1, 225120, Note_on_c, 0, 66, 100
1, 225120, Note_on_c, 1, 61, 68
1, 225120, Note_on_c, 2, 69, 100
1, 225120, Note_on_c, 2, 78, 100
1, 225120, Note_on_c, 3, 64, 100
1, 225120, Note_on_c, 3, 69, 100
1, 225120, Note_on_c, 4, 78, 100
1, 225120, Note_on_c, 5, 69, 100
1, 225120, Note_on_c, 6, 64, 68
1, 225120, Note_on_c, 6, 69, 63
1, 225120, Note_on_c, 6, 76, 72
1, 225120, Note_on_c, 8, 37, 100
1, 225120, Note_on_c, 8, 49, 100
1, 225120, Note_on_c, 13, 56, 100
1, 225120, Note_on_c, 13, 61, 100
1, 225156, Note_off_c, 1, 66, 0
1, 225170, Note_off_c, 10, 69, 0
1, 225198, Note_off_c, 10, 64, 0
1, 225214, Note_off_c, 10, 76, 0
1, 225330, Note_off_c, 6, 64, 0
1, 225364, Note_off_c, 6, 76, 0
1, 225382, Note_off_c, 6, 69, 0
1, 225412, Note_off_c, 8, 37, 0
1, 225412, Note_off_c, 8, 49, 0
1, 225412, Note_off_c, 13, 56, 0
1, 225412, Note_off_c, 13, 61, 0
1, 225592, Note_off_c, 0, 57, 64
1, 225592, Note_off_c, 0, 66, 64
1, 225592, Note_off_c, 2, 69, 64
1, 225592, Note_off_c, 2, 78, 64
1, 225592, Note_off_c, 3, 64, 64
1, 225592, Note_off_c, 3, 69, 64
1, 225592, Note_off_c, 4, 78, 0
1, 225592, Note_off_c, 5, 69, 0
1, 225600, Note_on_c, 7, 64, 68
1, 225600, Note_on_c, 7, 69, 74
1, 225600, Note_on_c, 7, 76, 74
1, 225600, Note_on_c, 8, 56, 100
1, 225600, Note_on_c, 8, 61, 100
1, 225600, Note_on_c, 13, 37, 100
1, 225600, Note_on_c, 13, 49, 100
1, 225824, Note_off_c, 7, 69, 0
1, 225864, Note_off_c, 7, 64, 0
1, 225874, Note_off_c, 7, 76, 0
1, 225882, Note_on_c, 10, 64, 68
1, 225882, Note_on_c, 10, 69, 66
1, 225882, Note_on_c, 10, 76, 70
1, 225890, Note_off_c, 1, 61, 0
1, 225892, Note_off_c, 8, 56, 0
1, 225892, Note_off_c, 8, 61, 0
1, 225892, Note_off_c, 13, 37, 0
1, 225892, Note_off_c, 13, 49, 0
1, 226078, Note_off_c, 10, 69, 0
1, 226080, Note_on_c, 0, 59, 100
1, 226080, Note_on_c, 0, 68, 100
1, 226080, Note_on_c, 1, 69, 77
1, 226080, Note_on_c, 2, 71, 100
1, 226080, Note_on_c, 2, 80, 100
1, 226080, Note_on_c, 3, 71, 100
1, 226080, Note_on_c, 3, 76, 100
1, 226080, Note_on_c, 4, 80, 100
1, 226080, Note_on_c, 5, 71, 100
1, 226080, Note_on_c, 6, 64, 70
1, 226080, Note_on_c, 6, 69, 69
1, 226080, Note_on_c, 6, 76, 72
1, 226080, Note_on_c, 8, 37, 100
1, 226080, Note_on_c, 8, 49, 100
1, 226080, Note_on_c, 13, 56, 100
1, 226080, Note_on_c, 13, 61, 100
1, 226102, Note_off_c, 10, 64, 0
1, 226120, Note_off_c, 10, 76, 0
1, 226314, Note_off_c, 6, 69, 0
1, 226342, Note_off_c, 6, 64, 0
1, 226342, Note_off_c, 6, 76, 0
1, 226372, Note_off_c, 8, 37, 0
1, 226372, Note_off_c, 8, 49, 0
1, 226372, Note_off_c, 13, 56, 0
1, 226372, Note_off_c, 13, 61, 0
1, 226552, Note_off_c, 0, 59, 64
1, 226552, Note_off_c, 0, 68, 64
1, 226552, Note_off_c, 2, 71, 64
1, 226552, Note_off_c, 2, 80, 64
1, 226552, Note_off_c, 3, 71, 64
1, 226552, Note_off_c, 3, 76, 64
1, 226552, Note_off_c, 4, 80, 0
1, 226552, Note_off_c, 5, 71, 0
1, 226560, Note_on_c, 7, 64, 68
1, 226560, Note_on_c, 7, 69, 73
1, 226560, Note_on_c, 7, 76, 73
1, 226560, Note_on_c, 8, 56, 100
1, 226560, Note_on_c, 8, 61, 100
1, 226560, Note_on_c, 13, 37, 100
1, 226560, Note_on_c, 13, 49, 100
1, 226704, Note_off_c, 1, 69, 0
1, 226784, Note_off_c, 7, 64, 0
1, 226808, Note_off_c, 7, 69, 0
1, 226808, Note_off_c, 7, 76, 0
1, 226842, Note_on_c, 10, 64, 68
1, 226842, Note_on_c, 10, 69, 63
1, 226842, Note_on_c, 10, 76, 72
1, 226852, Note_off_c, 8, 56, 0
1, 226852, Note_off_c, 8, 61, 0
1, 226852, Note_off_c, 13, 37, 0
1, 226852, Note_off_c, 13, 49, 0
1, 227040, Note_on_c, 0, 61, 100
1, 227040, Note_on_c, 0, 69, 100
1, 227040, Note_on_c, 1, 64, 70
1, 227040, Note_on_c, 2, 73, 100
1, 227040, Note_on_c, 2, 81, 100
1, 227040, Note_on_c, 3, 73, 100
1, 227040, Note_on_c, 3, 76, 100
1, 227040, Note_on_c, 4, 81, 100
1, 227040, Note_on_c, 5, 73, 100
1, 227040, Note_on_c, 6, 64, 68
1, 227040, Note_on_c, 6, 69, 70
1, 227040, Note_on_c, 6, 76, 70
1, 227040, Note_on_c, 8, 37, 100
1, 227040, Note_on_c, 8, 49, 100
1, 227040, Note_on_c, 13, 56, 100
1, 227040, Note_on_c, 13, 61, 100
1, 227052, Note_off_c, 10, 64, 0
1, 227086, Note_off_c, 10, 76, 0
1, 227104, Note_off_c, 10, 69, 0
1, 227248, Note_off_c, 6, 64, 0
1, 227276, Note_off_c, 6, 69, 0
1, 227280, Note_off_c, 6, 76, 0
1, 227332, Note_off_c, 8, 37, 0
1, 227332, Note_off_c, 8, 49, 0
1, 227332, Note_off_c, 13, 56, 0
1, 227332, Note_off_c, 13, 61, 0
1, 227512, Note_off_c, 0, 61, 64
1, 227512, Note_off_c, 0, 69, 64
1, 227512, Note_off_c, 2, 73, 64
1, 227512, Note_off_c, 2, 81, 64
1, 227512, Note_off_c, 3, 73, 64
1, 227512, Note_off_c, 3, 76, 64
1, 227512, Note_off_c, 4, 81, 0
1, 227512, Note_off_c, 5, 73, 0
1, 227512, Note_off_c, 14, 64, 0
1, 227512, Note_off_c, 14, 85, 0
1, 227520, Note_on_c, 0, 57, 100
1, 227520, Note_on_c, 0, 66, 100
1, 227520, Note_on_c, 1, 66, 77
1, 227520, Note_on_c, 2, 69, 100
1, 227520, Note_on_c, 2, 78, 100
1, 227520, Note_on_c, 3, 64, 100
1, 227520, Note_on_c, 3, 69, 100
1, 227520, Note_on_c, 4, 78, 100
1, 227520, Note_on_c, 5, 69, 100
1, 227520, Note_on_c, 7, 64, 66
1, 227520, Note_on_c, 7, 69, 74
1, 227520, Note_on_c, 7, 76, 73
1, 227520, Note_on_c, 8, 57, 100
1, 227520, Note_on_c, 8, 61, 100
1, 227520, Note_on_c, 13, 30, 100
1, 227520, Note_on_c, 13, 42, 100
1, 227520, Note_on_c, 14, 68, 100
1, 227520, Note_on_c, 14, 88, 100
1, 227672, Note_off_c, 1, 64, 0
1, 227754, Note_off_c, 7, 64, 0
1, 227774, Note_off_c, 7, 76, 0
1, 227802, Note_off_c, 7, 69, 0
1, 227802, Note_on_c, 10, 64, 70
1, 227802, Note_on_c, 10, 69, 69
1, 227802, Note_on_c, 10, 76, 72
1, 227812, Note_off_c, 8, 57, 0
1, 227812, Note_off_c, 8, 61, 0
1, 227812, Note_off_c, 13, 30, 0
1, 227812, Note_off_c, 13, 42, 0
1, 227992, Note_off_c, 0, 57, 64
1, 227992, Note_off_c, 0, 66, 64
1, 227992, Note_off_c, 2, 69, 64
1, 227992, Note_off_c, 2, 78, 64
1, 227992, Note_off_c, 3, 64, 64
1, 227992, Note_off_c, 3, 69, 64
1, 227992, Note_off_c, 4, 78, 0
1, 227992, Note_off_c, 5, 69, 0
1, 228000, Note_on_c, 6, 64, 67
1, 228000, Note_on_c, 6, 69, 73
1, 228000, Note_on_c, 6, 76, 74
1, 228000, Note_on_c, 8, 30, 100
1, 228000, Note_on_c, 8, 42, 100
1, 228000, Note_on_c, 13, 57, 100
1, 228000, Note_on_c, 13, 61, 100
1, 228036, Note_off_c, 10, 69, 0
1, 228064, Note_off_c, 10, 64, 0
1, 228064, Note_off_c, 10, 76, 0
1, 228164, Note_off_c, 1, 66, 0
1, 228216, Note_off_c, 6, 64, 0
1, 228236, Note_off_c, 6, 76, 0
1, 228246, Note_off_c, 6, 69, 0
1, 228292, Note_off_c, 8, 30, 0
1, 228292, Note_off_c, 8, 42, 0
1, 228292, Note_off_c, 13, 57, 0
1, 228292, Note_off_c, 13, 61, 0
1, 228480, Note_on_c, 0, 59, 100
1, 228480, Note_on_c, 0, 68, 100
1, 228480, Note_on_c, 1, 59, 65
1, 228480, Note_on_c, 2, 71, 100
1, 228480, Note_on_c, 2, 80, 100
1, 228480, Note_on_c, 3, 71, 100
1, 228480, Note_on_c, 3, 76, 100
1, 228480, Note_on_c, 4, 80, 100
1, 228480, Note_on_c, 5, 71, 100
1, 228480, Note_on_c, 7, 64, 66
1, 228480, Note_on_c, 7, 69, 77
1, 228480, Note_on_c, 7, 76, 70
1, 228480, Note_on_c, 8, 57, 100
1, 228480, Note_on_c, 8, 61, 100
1, 228480, Note_on_c, 13, 30, 100
1, 228480, Note_on_c, 13, 42, 100
1, 228708, Note_off_c, 7, 64, 0
1, 228762, Note_on_c, 10, 64, 68
1, 228762, Note_on_c, 10, 69, 70
1, 228762, Note_on_c, 10, 76, 70
1, 228766, Note_off_c, 7, 69, 0
1, 228772, Note_off_c, 8, 57, 0
1, 228772, Note_off_c, 8, 61, 0
1, 228772, Note_off_c, 13, 30, 0
1, 228772, Note_off_c, 13, 42, 0
1, 228790, Note_off_c, 7, 76, 0
1, 228952, Note_off_c, 0, 59, 64
1, 228952, Note_off_c, 0, 68, 64
1, 228952, Note_off_c, 2, 71, 64
1, 228952, Note_off_c, 2, 80, 64
1, 228952, Note_off_c, 3, 71, 64
1, 228952, Note_off_c, 3, 76, 64
1, 228952, Note_off_c, 4, 80, 0
1, 228952, Note_off_c, 5, 71, 0
1, 228960, Note_on_c, 0, 57, 100
1, 228960, Note_on_c, 0, 66, 100
1, 228960, Note_on_c, 1, 69, 74
1, 228960, Note_on_c, 2, 69, 100
1, 228960, Note_on_c, 2, 78, 100
1, 228960, Note_on_c, 3, 66, 100
1, 228960, Note_on_c, 3, 69, 100
1, 228960, Note_on_c, 4, 78, 100
1, 228960, Note_on_c, 5, 69, 100
1, 228960, Note_on_c, 6, 64, 68
1, 228960, Note_on_c, 6, 69, 74
1, 228960, Note_on_c, 6, 76, 75
1, 228960, Note_on_c, 8, 30, 100
1, 228960, Note_on_c, 8, 42, 100
1, 228960, Note_on_c, 13, 57, 100
1, 228960, Note_on_c, 13, 61, 100
1, 228970, Note_off_c, 10, 64, 0
1, 228998, Note_off_c, 10, 69, 0
1, 229002, Note_off_c, 10, 76, 0
1, 229054, Note_off_c, 1, 59, 0
1, 229232, Note_off_c, 6, 69, 0
1, 229236, Note_off_c, 6, 64, 0
1, 229250, Note_off_c, 6, 76, 0
1, 229252, Note_off_c, 8, 30, 0
1, 229252, Note_off_c, 8, 42, 0
1, 229252, Note_off_c, 13, 57, 0
1, 229252, Note_off_c, 13, 61, 0
1, 229432, Note_off_c, 0, 57, 64
1, 229432, Note_off_c, 0, 66, 64
1, 229432, Note_off_c, 2, 69, 64
1, 229432, Note_off_c, 2, 78, 64
1, 229432, Note_off_c, 3, 66, 64
1, 229432, Note_off_c, 3, 69, 64
1, 229432, Note_off_c, 4, 78, 0
1, 229432, Note_off_c, 5, 69, 0
1, 229440, Note_on_c, 0, 61, 100
1, 229440, Note_on_c, 0, 69, 100
1, 229440, Note_on_c, 1, 64, 68
1, 229440, Note_on_c, 2, 73, 100
1, 229440, Note_on_c, 2, 81, 100
1, 229440, Note_on_c, 3, 73, 100
1, 229440, Note_on_c, 3, 76, 100
1, 229440, Note_on_c, 4, 81, 100
1, 229440, Note_on_c, 5, 73, 100
1, 229440, Note_on_c, 7, 64, 65
1, 229440, Note_on_c, 7, 69, 72
1, 229440, Note_on_c, 7, 76, 72
1, 229440, Note_on_c, 8, 57, 100
1, 229440, Note_on_c, 8, 61, 100
1, 229440, Note_on_c, 13, 30, 100
1, 229440, Note_on_c, 13, 42, 100
1, 229652, Note_off_c, 1, 69, 0
1, 229716, Note_off_c, 7, 64, 0
1, 229722, Note_on_c, 10, 64, 67
1, 229722, Note_on_c, 10, 69, 73
1, 229722, Note_on_c, 10, 76, 74
1, 229730, Note_off_c, 7, 69, 0
1, 229732, Note_off_c, 7, 76, 0
1, 229732, Note_off_c, 8, 57, 0
1, 229732, Note_off_c, 8, 61, 0
1, 229732, Note_off_c, 13, 30, 0
1, 229732, Note_off_c, 13, 42, 0
1, 229912, Note_off_c, 0, 61, 64
1, 229912, Note_off_c, 0, 69, 64
1, 229912, Note_off_c, 2, 73, 64
1, 229912, Note_off_c, 2, 81, 64
1, 229912, Note_off_c, 3, 73, 64
1, 229912, Note_off_c, 3, 76, 64
1, 229912, Note_off_c, 4, 81, 0
1, 229912, Note_off_c, 5, 73, 0
1, 229920, Note_on_c, 6, 64, 73
1, 229920, Note_on_c, 6, 69, 80
1, 229920, Note_on_c, 6, 76, 77
1, 229920, Note_on_c, 8, 30, 100
1, 229920, Note_on_c, 8, 42, 100
1, 229920, Note_on_c, 13, 57, 100
1, 229920, Note_on_c, 13, 61, 100
1, 229938, Note_off_c, 10, 64, 0
1, 229958, Note_off_c, 10, 76, 0
1, 229968, Note_off_c, 10, 69, 0
1, 230054, Note_off_c, 1, 64, 0
1, 230182, Note_off_c, 6, 64, 0
1, 230198, Note_off_c, 6, 69, 0
1, 230208, Note_off_c, 6, 76, 0
1, 230212, Note_off_c, 8, 30, 0
1, 230212, Note_off_c, 8, 42, 0
1, 230212, Note_off_c, 13, 57, 0
1, 230212, Note_off_c, 13, 61, 0
1, 230400, Note_on_c, 0, 59, 100
1, 230400, Note_on_c, 0, 68, 100
1, 230400, Note_on_c, 1, 66, 77
1, 230400, Note_on_c, 2, 71, 100
1, 230400, Note_on_c, 2, 80, 100
1, 230400, Note_on_c, 3, 71, 100
1, 230400, Note_on_c, 3, 76, 100
1, 230400, Note_on_c, 4, 80, 100
1, 230400, Note_on_c, 5, 71, 100
1, 230400, Note_on_c, 7, 64, 67
1, 230400, Note_on_c, 7, 69, 75
1, 230400, Note_on_c, 7, 76, 70
1, 230400, Note_on_c, 8, 57, 100
1, 230400, Note_on_c, 8, 61, 100
1, 230400, Note_on_c, 13, 30, 100
1, 230400, Note_on_c, 13, 42, 100
1, 230630, Note_off_c, 7, 69, 0
1, 230648, Note_off_c, 7, 64, 0
1, 230658, Note_off_c, 7, 76, 0
1, 230682, Note_on_c, 10, 64, 68
1, 230682, Note_on_c, 10, 69, 74
1, 230682, Note_on_c, 10, 76, 75
1, 230692, Note_off_c, 8, 57, 0
1, 230692, Note_off_c, 8, 61, 0
1, 230692, Note_off_c, 13, 30, 0
1, 230692, Note_off_c, 13, 42, 0
1, 230872, Note_off_c, 0, 59, 64
1, 230872, Note_off_c, 0, 68, 64
1, 230872, Note_off_c, 2, 71, 64
1, 230872, Note_off_c, 2, 80, 64
1, 230872, Note_off_c, 3, 71, 64
1, 230872, Note_off_c, 3, 76, 64
1, 230872, Note_off_c, 4, 80, 0
1, 230872, Note_off_c, 5, 71, 0
1, 230880, Note_on_c, 0, 57, 100
1, 230880, Note_on_c, 0, 66, 100
1, 230880, Note_on_c, 1, 61, 70
1, 230880, Note_on_c, 2, 69, 100
1, 230880, Note_on_c, 2, 78, 100
1, 230880, Note_on_c, 3, 64, 100
1, 230880, Note_on_c, 3, 69, 100
1, 230880, Note_on_c, 4, 78, 100
1, 230880, Note_on_c, 5, 69, 100
1, 230880, Note_on_c, 6, 64, 68
1, 230880, Note_on_c, 6, 69, 70
1, 230880, Note_on_c, 6, 76, 74
1, 230880, Note_on_c, 8, 30, 100
1, 230880, Note_on_c, 8, 42, 100
1, 230880, Note_on_c, 13, 57, 100
1, 230880, Note_on_c, 13, 61, 100
1, 230954, Note_off_c, 10, 69, 0
1, 230958, Note_off_c, 10, 64, 0
1, 230972, Note_off_c, 10, 76, 0
1, 231042, Note_off_c, 1, 66, 0
1, 231166, Note_off_c, 6, 64, 0
1, 231172, Note_off_c, 8, 30, 0
1, 231172, Note_off_c, 8, 42, 0
1, 231172, Note_off_c, 13, 57, 0
1, 231172, Note_off_c, 13, 61, 0
1, 231178, Note_off_c, 6, 69, 0
1, 231178, Note_off_c, 6, 76, 0
1, 231352, Note_off_c, 0, 57, 64
1, 231352, Note_off_c, 0, 66, 64
1, 231352, Note_off_c, 2, 69, 64
1, 231352, Note_off_c, 2, 78, 64
1, 231352, Note_off_c, 3, 64, 64
1, 231352, Note_off_c, 3, 69, 64
1, 231352, Note_off_c, 4, 78, 0
1, 231352, Note_off_c, 5, 69, 0
1, 231352, Note_off_c, 14, 68, 0
1, 231352, Note_off_c, 14, 88, 0
1, 231360, Note_on_c, 7, 64, 66
1, 231360, Note_on_c, 7, 69, 68
1, 231360, Note_on_c, 7, 76, 72
1, 231360, Note_on_c, 8, 56, 100
1, 231360, Note_on_c, 8, 61, 100
1, 231360, Note_on_c, 13, 37, 100
1, 231360, Note_on_c, 13, 49, 100
1, 231360, Note_on_c, 14, 64, 100
1, 231360, Note_on_c, 14, 85, 100
1, 231508, Note_off_c, 1, 61, 0
1, 231620, Note_off_c, 7, 69, 0
1, 231630, Note_off_c, 7, 64, 0
1, 231634, Note_off_c, 7, 76, 0
1, 231642, Note_on_c, 10, 64, 73
1, 231642, Note_on_c, 10, 69, 80
1, 231642, Note_on_c, 10, 76, 77
1, 231652, Note_off_c, 8, 56, 0
1, 231652, Note_off_c, 8, 61, 0
1, 231652, Note_off_c, 13, 37, 0
1, 231652, Note_off_c, 13, 49, 0
1, 231840, Note_on_c, 0, 59, 100
1, 231840, Note_on_c, 0, 68, 100
1, 231840, Note_on_c, 1, 69, 77
1, 231840, Note_on_c, 2, 71, 100
1, 231840, Note_on_c, 2, 80, 100
1, 231840, Note_on_c, 3, 71, 100
1, 231840, Note_on_c, 3, 76, 100
1, 231840, Note_on_c, 4, 80, 100
1, 231840, Note_on_c, 5, 71, 100
1, 231840, Note_on_c, 6, 64, 70
1, 231840, Note_on_c, 6, 69, 74
1, 231840, Note_on_c, 6, 76, 74
1, 231840, Note_on_c, 8, 37, 100
1, 231840, Note_on_c, 8, 49, 100
1, 231840, Note_on_c, 13, 56, 100
1, 231840, Note_on_c, 13, 61, 100
1, 231904, Note_off_c, 10, 64, 0
1, 231920, Note_off_c, 10, 69, 0
1, 231930, Note_off_c, 10, 76, 0
1, 232044, Note_off_c, 6, 64, 0
1, 232074, Note_off_c, 6, 76, 0
1, 232112, Note_off_c, 6, 69, 0
1, 232132, Note_off_c, 8, 37, 0
1, 232132, Note_off_c, 8, 49, 0
1, 232132, Note_off_c, 13, 56, 0
1, 232132, Note_off_c, 13, 61, 0
1, 232312, Note_off_c, 0, 59, 64
1, 232312, Note_off_c, 0, 68, 64
1, 232312, Note_off_c, 2, 71, 64
1, 232312, Note_off_c, 2, 80, 64
1, 232312, Note_off_c, 3, 71, 64
1, 232312, Note_off_c, 3, 76, 64
1, 232312, Note_off_c, 4, 80, 0
1, 232312, Note_off_c, 5, 71, 0
1, 232320, Note_on_c, 7, 64, 62
1, 232320, Note_on_c, 7, 69, 60
1, 232320, Note_on_c, 7, 76, 70
1, 232320, Note_on_c, 8, 56, 100
1, 232320, Note_on_c, 8, 61, 100
1, 232320, Note_on_c, 13, 37, 100
1, 232320, Note_on_c, 13, 49, 100
1, 232488, Note_off_c, 1, 69, 0
1, 232580, Note_off_c, 7, 69, 0
1, 232598, Note_off_c, 7, 64, 0
1, 232602, Note_on_c, 10, 64, 68
1, 232602, Note_on_c, 10, 69, 70
1, 232602, Note_on_c, 10, 76, 74
1, 232612, Note_off_c, 8, 56, 0
1, 232612, Note_off_c, 8, 61, 0
1, 232612, Note_off_c, 13, 37, 0
1, 232612, Note_off_c, 13, 49, 0
1, 232658, Note_off_c, 7, 76, 0
1, 232800, Note_on_c, 0, 61, 100
1, 232800, Note_on_c, 0, 69, 100
1, 232800, Note_on_c, 1, 64, 68
1, 232800, Note_on_c, 2, 73, 100
1, 232800, Note_on_c, 2, 81, 100
1, 232800, Note_on_c, 3, 73, 100
1, 232800, Note_on_c, 3, 76, 100
1, 232800, Note_on_c, 4, 81, 100
1, 232800, Note_on_c, 5, 73, 100
1, 232800, Note_on_c, 6, 64, 68
1, 232800, Note_on_c, 6, 69, 68
1, 232800, Note_on_c, 6, 76, 72
1, 232800, Note_on_c, 8, 37, 100
1, 232800, Note_on_c, 8, 49, 100
1, 232800, Note_on_c, 13, 56, 100
1, 232800, Note_on_c, 13, 61, 100
1, 232888, Note_off_c, 10, 64, 0
1, 232900, Note_off_c, 10, 69, 0
1, 232900, Note_off_c, 10, 76, 0
1, 233006, Note_off_c, 6, 69, 0
1, 233014, Note_off_c, 6, 64, 0
1, 233024, Note_off_c, 6, 76, 0
1, 233092, Note_off_c, 8, 37, 0
1, 233092, Note_off_c, 8, 49, 0
1, 233092, Note_off_c, 13, 56, 0
1, 233092, Note_off_c, 13, 61, 0
1, 233244, Note_off_c, 1, 64, 0
1, 233272, Note_off_c, 0, 61, 64
1, 233272, Note_off_c, 0, 69, 64
1, 233272, Note_off_c, 2, 73, 64
1, 233272, Note_off_c, 2, 81, 64
1, 233272, Note_off_c, 3, 73, 64
1, 233272, Note_off_c, 3, 76, 64
1, 233272, Note_off_c, 4, 81, 0
1, 233272, Note_off_c, 5, 73, 0
1, 233272, Note_off_c, 14, 64, 0
1, 233272, Note_off_c, 14, 85, 0
1, 233280, Note_on_c, 0, 57, 100
1, 233280, Note_on_c, 0, 66, 100
1, 233280, Note_on_c, 1, 66, 78
1, 233280, Note_on_c, 2, 69, 100
1, 233280, Note_on_c, 2, 78, 100
1, 233280, Note_on_c, 3, 64, 100
1, 233280, Note_on_c, 3, 69, 100
1, 233280, Note_on_c, 4, 78, 100
1, 233280, Note_on_c, 5, 69, 100
1, 233280, Note_on_c, 7, 64, 56
1, 233280, Note_on_c, 7, 69, 69
1, 233280, Note_on_c, 7, 76, 73
1, 233280, Note_on_c, 8, 57, 100
1, 233280, Note_on_c, 8, 61, 100
1, 233280, Note_on_c, 13, 30, 100
1, 233280, Note_on_c, 13, 42, 100
1, 233280, Note_on_c, 14, 68, 100
1, 233280, Note_on_c, 14, 88, 100
1, 233546, Note_off_c, 7, 64, 0
1, 233562, Note_on_c, 10, 64, 70
1, 233562, Note_on_c, 10, 69, 74
1, 233562, Note_on_c, 10, 76, 74
1, 233572, Note_off_c, 8, 57, 0
1, 233572, Note_off_c, 8, 61, 0
1, 233572, Note_off_c, 13, 30, 0
1, 233572, Note_off_c, 13, 42, 0
1, 233574, Note_off_c, 7, 69, 0
1, 233582, Note_off_c, 7, 76, 0
1, 233752, Note_off_c, 0, 57, 64
1, 233752, Note_off_c, 0, 66, 64
1, 233752, Note_off_c, 2, 69, 64
1, 233752, Note_off_c, 2, 78, 64
1, 233752, Note_off_c, 3, 64, 64
1, 233752, Note_off_c, 3, 69, 64
1, 233752, Note_off_c, 4, 78, 0
1, 233752, Note_off_c, 5, 69, 0
1, 233760, Note_on_c, 6, 64, 70
1, 233760, Note_on_c, 6, 69, 70
1, 233760, Note_on_c, 6, 76, 75
1, 233760, Note_on_c, 8, 30, 100
1, 233760, Note_on_c, 8, 42, 100
1, 233760, Note_on_c, 13, 57, 100
1, 233760, Note_on_c, 13, 61, 100
1, 233766, Note_off_c, 10, 64, 0
1, 233796, Note_off_c, 10, 76, 0
1, 233834, Note_off_c, 10, 69, 0
1, 233948, Note_off_c, 1, 66, 0
1, 233988, Note_off_c, 6, 69, 0
1, 234030, Note_off_c, 6, 64, 0
1, 234052, Note_off_c, 8, 30, 0
1, 234052, Note_off_c, 8, 42, 0
1, 234052, Note_off_c, 13, 57, 0
1, 234052, Note_off_c, 13, 61, 0
1, 234068, Note_off_c, 6, 76, 0
1, 234240, Note_on_c, 0, 59, 100
1, 234240, Note_on_c, 0, 68, 100
1, 234240, Note_on_c, 1, 59, 74
1, 234240, Note_on_c, 2, 71, 100
1, 234240, Note_on_c, 2, 80, 100
1, 234240, Note_on_c, 3, 71, 100
1, 234240, Note_on_c, 3, 76, 100
1, 234240, Note_on_c, 4, 80, 100
1, 234240, Note_on_c, 5, 71, 100
1, 234240, Note_on_c, 7, 64, 66
1, 234240, Note_on_c, 7, 69, 70
1, 234240, Note_on_c, 7, 76, 75
1, 234240, Note_on_c, 8, 57, 100
1, 234240, Note_on_c, 8, 61, 100
1, 234240, Note_on_c, 13, 30, 100
1, 234240, Note_on_c, 13, 42, 100
1, 234490, Note_off_c, 7, 69, 0
1, 234504, Note_off_c, 7, 64, 0
1, 234522, Note_on_c, 10, 64, 68
1, 234522, Note_on_c, 10, 69, 68
1, 234522, Note_on_c, 10, 76, 72
1, 234530, Note_off_c, 7, 76, 0
1, 234532, Note_off_c, 8, 57, 0
1, 234532, Note_off_c, 8, 61, 0
1, 234532, Note_off_c, 13, 30, 0
1, 234532, Note_off_c, 13, 42, 0
1, 234712, Note_off_c, 0, 59, 64
1, 234712, Note_off_c, 0, 68, 64
1, 234712, Note_off_c, 2, 71, 64
1, 234712, Note_off_c, 2, 80, 64
1, 234712, Note_off_c, 3, 71, 64
1, 234712, Note_off_c, 3, 76, 64
1, 234712, Note_off_c, 4, 80, 0
1, 234712, Note_off_c, 5, 71, 0
1, 234720, Note_on_c, 0, 57, 100
1, 234720, Note_on_c, 0, 66, 100
1, 234720, Note_on_c, 1, 69, 75
1, 234720, Note_on_c, 2, 69, 100
1, 234720, Note_on_c, 2, 78, 100
1, 234720, Note_on_c, 3, 66, 100
1, 234720, Note_on_c, 3, 69, 100
1, 234720, Note_on_c, 4, 78, 100
1, 234720, Note_on_c, 5, 69, 100
1, 234720, Note_on_c, 6, 64, 69
1, 234720, Note_on_c, 6, 69, 69
1, 234720, Note_on_c, 6, 76, 73
1, 234720, Note_on_c, 8, 30, 100
1, 234720, Note_on_c, 8, 42, 100
1, 234720, Note_on_c, 13, 57, 100
1, 234720, Note_on_c, 13, 61, 100
1, 234728, Note_off_c, 1, 59, 0
1, 234728, Note_off_c, 10, 69, 0
1, 234736, Note_off_c, 10, 64, 0
1, 234746, Note_off_c, 10, 76, 0
1, 234986, Note_off_c, 6, 64, 0
1, 235012, Note_off_c, 8, 30, 0
1, 235012, Note_off_c, 8, 42, 0
1, 235012, Note_off_c, 13, 57, 0
1, 235012, Note_off_c, 13, 61, 0
1, 235024, Note_off_c, 6, 69, 0
1, 235024, Note_off_c, 6, 76, 0
1, 235192, Note_off_c, 0, 57, 64
1, 235192, Note_off_c, 0, 66, 64
1, 235192, Note_off_c, 2, 69, 64
1, 235192, Note_off_c, 2, 78, 64
1, 235192, Note_off_c, 3, 66, 64
1, 235192, Note_off_c, 3, 69, 64
1, 235192, Note_off_c, 4, 78, 0
1, 235192, Note_off_c, 5, 69, 0
1, 235200, Note_on_c, 0, 61, 100
1, 235200, Note_on_c, 0, 69, 100
1, 235200, Note_on_c, 1, 64, 73
1, 235200, Note_on_c, 2, 73, 100
1, 235200, Note_on_c, 2, 81, 100
1, 235200, Note_on_c, 3, 73, 100
1, 235200, Note_on_c, 3, 76, 100
1, 235200, Note_on_c, 4, 81, 100
1, 235200, Note_on_c, 5, 73, 100
1, 235200, Note_on_c, 7, 64, 66
1, 235200, Note_on_c, 7, 69, 70
1, 235200, Note_on_c, 7, 76, 75
1, 235200, Note_on_c, 8, 57, 100
1, 235200, Note_on_c, 8, 61, 100
1, 235200, Note_on_c, 13, 30, 100
1, 235200, Note_on_c, 13, 42, 100
1, 235326, Note_off_c, 1, 69, 0
1, 235450, Note_off_c, 7, 69, 0
1, 235464, Note_off_c, 7, 64, 0
1, 235482, Note_on_c, 10, 64, 70
1, 235482, Note_on_c, 10, 69, 70
1, 235482, Note_on_c, 10, 76, 75
1, 235490, Note_off_c, 7, 76, 0
1, 235492, Note_off_c, 8, 57, 0
1, 235492, Note_off_c, 8, 61, 0
1, 235492, Note_off_c, 13, 30, 0
1, 235492, Note_off_c, 13, 42, 0
1, 235672, Note_off_c, 0, 61, 64
1, 235672, Note_off_c, 0, 69, 64
1, 235672, Note_off_c, 2, 73, 64
1, 235672, Note_off_c, 2, 81, 64
1, 235672, Note_off_c, 3, 73, 64
1, 235672, Note_off_c, 3, 76, 64
1, 235672, Note_off_c, 4, 81, 0
1, 235672, Note_off_c, 5, 73, 0
1, 235680, Note_on_c, 6, 64, 67
1, 235680, Note_on_c, 6, 69, 63
1, 235680, Note_on_c, 6, 76, 74
1, 235680, Note_on_c, 8, 30, 100
1, 235680, Note_on_c, 8, 42, 100
1, 235680, Note_on_c, 13, 57, 100
1, 235680, Note_on_c, 13, 61, 100
1, 235710, Note_off_c, 10, 69, 0
1, 235752, Note_off_c, 10, 64, 0
1, 235790, Note_off_c, 10, 76, 0
1, 235884, Note_off_c, 6, 69, 0
1, 235906, Note_off_c, 1, 64, 0
1, 235946, Note_off_c, 6, 64, 0
1, 235946, Note_off_c, 6, 76, 0
1, 235972, Note_off_c, 8, 30, 0
1, 235972, Note_off_c, 8, 42, 0
1, 235972, Note_off_c, 13, 57, 0
1, 235972, Note_off_c, 13, 61, 0
1, 236152, Note_off_c, 14, 68, 0
1, 236152, Note_off_c, 14, 88, 0
1, 236160, Note_on_c, 0, 59, 100
1, 236160, Note_on_c, 0, 68, 100
1, 236160, Note_on_c, 1, 66, 68
1, 236160, Note_on_c, 2, 71, 100
1, 236160, Note_on_c, 2, 80, 100
1, 236160, Note_on_c, 3, 71, 100
1, 236160, Note_on_c, 3, 76, 100
1, 236160, Note_on_c, 4, 80, 100
1, 236160, Note_on_c, 5, 71, 100
1, 236160, Note_on_c, 7, 64, 72
1, 236160, Note_on_c, 7, 69, 80
1, 236160, Note_on_c, 7, 76, 77
1, 236160, Note_on_c, 8, 56, 100
1, 236160, Note_on_c, 8, 61, 100
1, 236160, Note_on_c, 13, 37, 100
1, 236160, Note_on_c, 13, 49, 100
1, 236160, Note_on_c, 14, 64, 100
1, 236160, Note_on_c, 14, 85, 100
1, 236400, Note_off_c, 7, 76, 0
1, 236410, Note_off_c, 7, 64, 0
1, 236410, Note_off_c, 7, 69, 0
1, 236442, Note_on_c, 10, 64, 69
1, 236442, Note_on_c, 10, 69, 69
1, 236442, Note_on_c, 10, 76, 73
1, 236452, Note_off_c, 8, 56, 0
1, 236452, Note_off_c, 8, 61, 0
1, 236452, Note_off_c, 13, 37, 0
1, 236452, Note_off_c, 13, 49, 0
1, 236632, Note_off_c, 0, 59, 64
1, 236632, Note_off_c, 0, 68, 64
1, 236632, Note_off_c, 2, 71, 64
1, 236632, Note_off_c, 2, 80, 64
1, 236632, Note_off_c, 3, 71, 64
1, 236632, Note_off_c, 3, 76, 64
1, 236632, Note_off_c, 4, 80, 0
1, 236632, Note_off_c, 5, 71, 0
1, 236640, Note_on_c, 0, 57, 100
1, 236640, Note_on_c, 0, 66, 100
1, 236640, Note_on_c, 1, 61, 68
1, 236640, Note_on_c, 2, 69, 100
1, 236640, Note_on_c, 2, 78, 100
1, 236640, Note_on_c, 3, 64, 100
1, 236640, Note_on_c, 3, 69, 100
1, 236640, Note_on_c, 4, 78, 100
1, 236640, Note_on_c, 5, 69, 100
1, 236640, Note_on_c, 6, 64, 66
1, 236640, Note_on_c, 6, 69, 63
1, 236640, Note_on_c, 6, 76, 74
1, 236640, Note_on_c, 8, 37, 100
1, 236640, Note_on_c, 8, 49, 100
1, 236640, Note_on_c, 13, 56, 100
1, 236640, Note_on_c, 13, 61, 100
1, 236676, Note_off_c, 1, 66, 0
1, 236708, Note_off_c, 10, 64, 0
1, 236746, Note_off_c, 10, 69, 0
1, 236746, Note_off_c, 10, 76, 0
1, 236870, Note_off_c, 6, 69, 0
1, 236876, Note_off_c, 6, 64, 0
1, 236914, Note_off_c, 6, 76, 0
1, 236932, Note_off_c, 8, 37, 0
1, 236932, Note_off_c, 8, 49, 0
1, 236932, Note_off_c, 13, 56, 0
1, 236932, Note_off_c, 13, 61, 0
1, 237112, Note_off_c, 0, 57, 64
1, 237112, Note_off_c, 0, 66, 64
1, 237112, Note_off_c, 2, 69, 64
1, 237112, Note_off_c, 2, 78, 64
1, 237112, Note_off_c, 3, 64, 64
1, 237112, Note_off_c, 3, 69, 64
1, 237112, Note_off_c, 4, 78, 0
1, 237112, Note_off_c, 5, 69, 0
1, 237120, Note_on_c, 7, 64, 70
1, 237120, Note_on_c, 7, 69, 77
1, 237120, Note_on_c, 7, 76, 77
1, 237120, Note_on_c, 8, 56, 100
1, 237120, Note_on_c, 8, 61, 100
1, 237120, Note_on_c, 13, 37, 100
1, 237120, Note_on_c, 13, 49, 100
1, 237374, Note_off_c, 7, 64, 0
1, 237402, Note_off_c, 7, 69, 0
1, 237402, Note_on_c, 10, 64, 67
1, 237402, Note_on_c, 10, 69, 63
1, 237402, Note_on_c, 10, 76, 74
1, 237410, Note_off_c, 1, 61, 0
1, 237410, Note_off_c, 7, 76, 0
1, 237412, Note_off_c, 8, 56, 0
1, 237412, Note_off_c, 8, 61, 0
1, 237412, Note_off_c, 13, 37, 0
1, 237412, Note_off_c, 13, 49, 0
1, 237600, Note_on_c, 0, 59, 100
1, 237600, Note_on_c, 0, 68, 100
1, 237600, Note_on_c, 1, 69, 77
1, 237600, Note_on_c, 2, 71, 100
1, 237600, Note_on_c, 2, 80, 100
1, 237600, Note_on_c, 3, 71, 100
1, 237600, Note_on_c, 3, 76, 100
1, 237600, Note_on_c, 4, 80, 100
1, 237600, Note_on_c, 5, 71, 100
1, 237600, Note_on_c, 6, 64, 68
1, 237600, Note_on_c, 6, 69, 74
1, 237600, Note_on_c, 6, 76, 74
1, 237600, Note_on_c, 8, 37, 100
1, 237600, Note_on_c, 8, 49, 100
1, 237600, Note_on_c, 13, 56, 100
1, 237600, Note_on_c, 13, 61, 100
1, 237606, Note_off_c, 10, 69, 0
1, 237668, Note_off_c, 10, 64, 0
1, 237668, Note_off_c, 10, 76, 0
1, 237860, Note_off_c, 6, 69, 0
1, 237890, Note_off_c, 6, 76, 0
1, 237892, Note_off_c, 8, 37, 0
1, 237892, Note_off_c, 8, 49, 0
1, 237892, Note_off_c, 13, 56, 0
1, 237892, Note_off_c, 13, 61, 0
1, 237894, Note_off_c, 6, 64, 0
1, 238072, Note_off_c, 0, 59, 64
1, 238072, Note_off_c, 0, 68, 64
1, 238072, Note_off_c, 2, 71, 64
1, 238072, Note_off_c, 2, 80, 64
1, 238072, Note_off_c, 3, 71, 64
1, 238072, Note_off_c, 3, 76, 64
1, 238072, Note_off_c, 4, 80, 0
1, 238072, Note_off_c, 5, 71, 0
1, 238080, Note_on_c, 7, 64, 70
1, 238080, Note_on_c, 7, 69, 73
1, 238080, Note_on_c, 7, 76, 74
1, 238080, Note_on_c, 8, 56, 100
1, 238080, Note_on_c, 8, 61, 100
1, 238080, Note_on_c, 13, 37, 100
1, 238080, Note_on_c, 13, 49, 100
1, 238224, Note_off_c, 1, 69, 0
1, 238320, Note_off_c, 7, 64, 0
1, 238326, Note_off_c, 7, 69, 0
1, 238340, Note_off_c, 7, 76, 0
1, 238362, Note_on_c, 10, 64, 66
1, 238362, Note_on_c, 10, 69, 63
1, 238362, Note_on_c, 10, 76, 74
1, 238372, Note_off_c, 8, 56, 0
1, 238372, Note_off_c, 8, 61, 0
1, 238372, Note_off_c, 13, 37, 0
1, 238372, Note_off_c, 13, 49, 0
1, 238560, Note_on_c, 0, 61, 100
1, 238560, Note_on_c, 0, 69, 100
1, 238560, Note_on_c, 1, 64, 70
1, 238560, Note_on_c, 2, 73, 100
1, 238560, Note_on_c, 2, 81, 100
1, 238560, Note_on_c, 3, 73, 100
1, 238560, Note_on_c, 3, 76, 100
1, 238560, Note_on_c, 4, 81, 100
1, 238560, Note_on_c, 5, 73, 100
1, 238560, Note_on_c, 6, 64, 73
1, 238560, Note_on_c, 6, 69, 82
1, 238560, Note_on_c, 6, 76, 77
1, 238560, Note_on_c, 8, 37, 100
1, 238560, Note_on_c, 8, 49, 100
1, 238560, Note_on_c, 13, 56, 100
1, 238560, Note_on_c, 13, 61, 100
1, 238592, Note_off_c, 10, 69, 0
1, 238598, Note_off_c, 10, 64, 0
1, 238636, Note_off_c, 10, 76, 0
1, 238838, Note_off_c, 6, 69, 0
1, 238850, Note_off_c, 6, 64, 0
1, 238852, Note_off_c, 8, 37, 0
1, 238852, Note_off_c, 8, 49, 0
1, 238852, Note_off_c, 13, 56, 0
1, 238852, Note_off_c, 13, 61, 0
1, 238858, Note_off_c, 6, 76, 0
1, 239032, Note_off_c, 0, 61, 64
1, 239032, Note_off_c, 0, 69, 64
1, 239032, Note_off_c, 2, 73, 64
1, 239032, Note_off_c, 2, 81, 64
1, 239032, Note_off_c, 3, 73, 64
1, 239032, Note_off_c, 3, 76, 64
1, 239032, Note_off_c, 4, 81, 0
1, 239032, Note_off_c, 5, 73, 0
1, 239032, Note_off_c, 14, 64, 0
1, 239032, Note_off_c, 14, 85, 0
1, 239040, Note_on_c, 0, 57, 100
1, 239040, Note_on_c, 0, 66, 100
1, 239040, Note_on_c, 1, 66, 77
1, 239040, Note_on_c, 2, 69, 100
1, 239040, Note_on_c, 2, 78, 100
1, 239040, Note_on_c, 3, 64, 100
1, 239040, Note_on_c, 3, 69, 100
1, 239040, Note_on_c, 4, 78, 100
1, 239040, Note_on_c, 5, 69, 100
1, 239040, Note_on_c, 7, 64, 72
1, 239040, Note_on_c, 7, 69, 77
1, 239040, Note_on_c, 7, 76, 75
1, 239040, Note_on_c, 8, 57, 100
1, 239040, Note_on_c, 8, 61, 100
1, 239040, Note_on_c, 13, 30, 100
1, 239040, Note_on_c, 13, 42, 100
1, 239040, Note_on_c, 14, 68, 100
1, 239040, Note_on_c, 14, 83, 100
1, 239192, Note_off_c, 1, 64, 0
1, 239248, Note_off_c, 7, 69, 0
1, 239262, Note_off_c, 7, 64, 0
1, 239282, Note_off_c, 7, 76, 0
1, 239322, Note_on_c, 10, 64, 68
1, 239322, Note_on_c, 10, 69, 74
1, 239322, Note_on_c, 10, 76, 74
1, 239332, Note_off_c, 8, 57, 0
1, 239332, Note_off_c, 8, 61, 0
1, 239332, Note_off_c, 13, 30, 0
1, 239332, Note_off_c, 13, 42, 0
1, 239512, Note_off_c, 0, 57, 64
1, 239512, Note_off_c, 0, 66, 64
1, 239512, Note_off_c, 2, 69, 64
1, 239512, Note_off_c, 2, 78, 64
1, 239512, Note_off_c, 3, 64, 64
1, 239512, Note_off_c, 3, 69, 64
1, 239512, Note_off_c, 4, 78, 0
1, 239512, Note_off_c, 5, 69, 0
1, 239520, Note_on_c, 6, 64, 72
1, 239520, Note_on_c, 6, 69, 75
1, 239520, Note_on_c, 6, 76, 73
1, 239520, Note_on_c, 8, 30, 100
1, 239520, Note_on_c, 8, 42, 100
1, 239520, Note_on_c, 13, 57, 100
1, 239520, Note_on_c, 13, 61, 100
1, 239582, Note_off_c, 10, 69, 0
1, 239612, Note_off_c, 10, 76, 0
1, 239616, Note_off_c, 10, 64, 0
1, 239684, Note_off_c, 1, 66, 0
1, 239808, Note_off_c, 6, 76, 0
1, 239810, Note_off_c, 6, 69, 0
1, 239812, Note_off_c, 8, 30, 0
1, 239812, Note_off_c, 8, 42, 0
1, 239812, Note_off_c, 13, 57, 0
1, 239812, Note_off_c, 13, 61, 0
1, 239818, Note_off_c, 6, 64, 0
1, 240000, Note_on_c, 0, 59, 100
1, 240000, Note_on_c, 0, 68, 100
1, 240000, Note_on_c, 1, 59, 65
1, 240000, Note_on_c, 2, 71, 100
1, 240000, Note_on_c, 2, 80, 100
1, 240000, Note_on_c, 3, 71, 100
1, 240000, Note_on_c, 3, 76, 100
1, 240000, Note_on_c, 4, 80, 100
1, 240000, Note_on_c, 5, 71, 100
1, 240000, Note_on_c, 7, 64, 70
1, 240000, Note_on_c, 7, 69, 78
1, 240000, Note_on_c, 7, 76, 77
1, 240000, Note_on_c, 8, 57, 100
1, 240000, Note_on_c, 8, 61, 100
1, 240000, Note_on_c, 13, 30, 100
1, 240000, Note_on_c, 13, 42, 100
1, 240242, Note_off_c, 7, 64, 0
1, 240264, Note_off_c, 7, 76, 0
1, 240282, Note_on_c, 10, 64, 73
1, 240282, Note_on_c, 10, 69, 82
1, 240282, Note_on_c, 10, 76, 77
1, 240288, Note_off_c, 7, 69, 0
1, 240292, Note_off_c, 8, 57, 0
1, 240292, Note_off_c, 8, 61, 0
1, 240292, Note_off_c, 13, 30, 0
1, 240292, Note_off_c, 13, 42, 0
1, 240472, Note_off_c, 0, 59, 64
1, 240472, Note_off_c, 0, 68, 64
1, 240472, Note_off_c, 2, 71, 64
1, 240472, Note_off_c, 2, 80, 64
1, 240472, Note_off_c, 3, 71, 64
1, 240472, Note_off_c, 3, 76, 64
1, 240472, Note_off_c, 4, 80, 0
1, 240472, Note_off_c, 5, 71, 0
1, 240480, Note_on_c, 0, 57, 100
1, 240480, Note_on_c, 0, 66, 100
1, 240480, Note_on_c, 1, 69, 74
1, 240480, Note_on_c, 2, 69, 100
1, 240480, Note_on_c, 2, 78, 100
1, 240480, Note_on_c, 3, 66, 100
1, 240480, Note_on_c, 3, 69, 100
1, 240480, Note_on_c, 4, 78, 100
1, 240480, Note_on_c, 5, 69, 100
1, 240480, Note_on_c, 6, 64, 69
1, 240480, Note_on_c, 6, 69, 70
1, 240480, Note_on_c, 6, 76, 72
1, 240480, Note_on_c, 8, 30, 100
1, 240480, Note_on_c, 8, 42, 100
1, 240480, Note_on_c, 13, 57, 100
1, 240480, Note_on_c, 13, 61, 100
1, 240560, Note_off_c, 10, 69, 0
1, 240572, Note_off_c, 10, 64, 0
1, 240574, Note_off_c, 1, 59, 0
1, 240580, Note_off_c, 10, 76, 0
1, 240744, Note_off_c, 6, 69, 0
1, 240768, Note_off_c, 6, 64, 0
1, 240772, Note_off_c, 8, 30, 0
1, 240772, Note_off_c, 8, 42, 0
1, 240772, Note_off_c, 13, 57, 0
1, 240772, Note_off_c, 13, 61, 0
1, 240784, Note_off_c, 6, 76, 0
1, 240952, Note_off_c, 0, 57, 64
1, 240952, Note_off_c, 0, 66, 64
1, 240952, Note_off_c, 2, 69, 64
1, 240952, Note_off_c, 2, 78, 64
1, 240952, Note_off_c, 3, 66, 64
1, 240952, Note_off_c, 3, 69, 64
1, 240952, Note_off_c, 4, 78, 0
1, 240952, Note_off_c, 5, 69, 0
1, 240952, Note_off_c, 14, 68, 0
1, 240952, Note_off_c, 14, 83, 0
1, 240960, Note_on_c, 0, 61, 100
1, 240960, Note_on_c, 0, 69, 100
1, 240960, Note_on_c, 1, 64, 68
1, 240960, Note_on_c, 2, 73, 100
1, 240960, Note_on_c, 2, 81, 100
1, 240960, Note_on_c, 3, 73, 100
1, 240960, Note_on_c, 3, 76, 100
1, 240960, Note_on_c, 4, 81, 100
1, 240960, Note_on_c, 5, 73, 100
1, 240960, Note_on_c, 7, 64, 70
1, 240960, Note_on_c, 7, 69, 72
1, 240960, Note_on_c, 7, 76, 77
1, 240960, Note_on_c, 8, 56, 100
1, 240960, Note_on_c, 8, 61, 100
1, 240960, Note_on_c, 13, 37, 100
1, 240960, Note_on_c, 13, 49, 100
1, 240960, Note_on_c, 14, 66, 100
1, 240960, Note_on_c, 14, 81, 100
1, 241172, Note_off_c, 1, 69, 0
1, 241214, Note_off_c, 7, 64, 0
1, 241226, Note_off_c, 7, 69, 0
1, 241242, Note_on_c, 10, 64, 72
1, 241242, Note_on_c, 10, 69, 75
1, 241242, Note_on_c, 10, 76, 73
1, 241252, Note_off_c, 8, 56, 0
1, 241252, Note_off_c, 8, 61, 0
1, 241252, Note_off_c, 13, 37, 0
1, 241252, Note_off_c, 13, 49, 0
1, 241282, Note_off_c, 7, 76, 0
1, 241432, Note_off_c, 0, 61, 64
1, 241432, Note_off_c, 0, 69, 64
1, 241432, Note_off_c, 2, 73, 64
1, 241432, Note_off_c, 2, 81, 64
1, 241432, Note_off_c, 3, 73, 64
1, 241432, Note_off_c, 3, 76, 64
1, 241432, Note_off_c, 4, 81, 0
1, 241432, Note_off_c, 5, 73, 0
1, 241440, Note_on_c, 6, 64, 68
1, 241440, Note_on_c, 6, 69, 77
1, 241440, Note_on_c, 6, 76, 73
1, 241440, Note_on_c, 8, 37, 100
1, 241440, Note_on_c, 8, 49, 100
1, 241440, Note_on_c, 13, 56, 100
1, 241440, Note_on_c, 13, 61, 100
1, 241530, Note_off_c, 10, 76, 0
1, 241532, Note_off_c, 10, 69, 0
1, 241540, Note_off_c, 10, 64, 0
1, 241574, Note_off_c, 1, 64, 0
1, 241706, Note_off_c, 6, 64, 0
1, 241724, Note_off_c, 6, 69, 0
1, 241724, Note_off_c, 6, 76, 0
1, 241732, Note_off_c, 8, 37, 0
1, 241732, Note_off_c, 8, 49, 0
1, 241732, Note_off_c, 13, 56, 0
1, 241732, Note_off_c, 13, 61, 0
1, 241920, Note_on_c, 1, 66, 77
1, 241920, Note_on_c, 3, 71, 100
1, 241920, Note_on_c, 3, 76, 100
1, 241920, Note_on_c, 7, 64, 73
1, 241920, Note_on_c, 7, 69, 77
1, 241920, Note_on_c, 7, 76, 74
1, 241920, Note_on_c, 8, 56, 100
1, 241920, Note_on_c, 8, 61, 100
1, 241920, Note_on_c, 13, 37, 100
1, 241920, Note_on_c, 13, 49, 100
1, 242202, Note_on_c, 10, 64, 69
1, 242202, Note_on_c, 10, 69, 70
1, 242202, Note_on_c, 10, 76, 72
1, 242204, Note_off_c, 7, 69, 0
1, 242212, Note_off_c, 8, 56, 0
1, 242212, Note_off_c, 8, 61, 0
1, 242212, Note_off_c, 13, 37, 0
1, 242212, Note_off_c, 13, 49, 0
1, 242236, Note_off_c, 7, 76, 0
1, 242242, Note_off_c, 7, 64, 0
1, 242392, Note_off_c, 3, 71, 64
1, 242392, Note_off_c, 3, 76, 64
1, 242400, Note_on_c, 1, 61, 70
1, 242400, Note_on_c, 3, 64, 100
1, 242400, Note_on_c, 3, 69, 100
1, 242400, Note_on_c, 6, 64, 72
1, 242400, Note_on_c, 6, 69, 52
1, 242400, Note_on_c, 6, 76, 72
1, 242400, Note_on_c, 8, 37, 100
1, 242400, Note_on_c, 8, 49, 100
1, 242400, Note_on_c, 13, 56, 100
1, 242400, Note_on_c, 13, 61, 100
1, 242466, Note_off_c, 10, 69, 0
1, 242490, Note_off_c, 10, 64, 0
1, 242506, Note_off_c, 10, 76, 0
1, 242552, Note_off_c, 6, 69, 0
1, 242562, Note_off_c, 1, 66, 0
1, 242640, Note_off_c, 6, 64, 0
1, 242646, Note_off_c, 6, 76, 0
1, 242692, Note_off_c, 8, 37, 0
1, 242692, Note_off_c, 8, 49, 0
1, 242692, Note_off_c, 13, 56, 0
1, 242692, Note_off_c, 13, 61, 0
1, 242872, Note_off_c, 3, 64, 64
1, 242872, Note_off_c, 3, 69, 64
1, 242880, Note_on_c, 7, 64, 68
1, 242880, Note_on_c, 7, 69, 70
1, 242880, Note_on_c, 7, 76, 72
1, 242880, Note_on_c, 8, 56, 100
1, 242880, Note_on_c, 8, 61, 100
1, 242880, Note_on_c, 13, 37, 100
1, 242880, Note_on_c, 13, 49, 100
1, 243028, Note_off_c, 1, 61, 0
1, 243162, Note_on_c, 10, 64, 68
1, 243162, Note_on_c, 10, 69, 77
1, 243162, Note_on_c, 10, 76, 73
1, 243170, Note_off_c, 7, 69, 0
1, 243172, Note_off_c, 8, 56, 0
1, 243172, Note_off_c, 8, 61, 0
1, 243172, Note_off_c, 13, 37, 0
1, 243172, Note_off_c, 13, 49, 0
1, 243188, Note_off_c, 7, 76, 0
1, 243194, Note_off_c, 7, 64, 0
1, 243360, Note_on_c, 1, 69, 77
1, 243360, Note_on_c, 3, 71, 100
1, 243360, Note_on_c, 3, 76, 100
1, 243360, Note_on_c, 6, 64, 68
1, 243360, Note_on_c, 6, 69, 70
1, 243360, Note_on_c, 6, 76, 74
1, 243360, Note_on_c, 8, 37, 100
1, 243360, Note_on_c, 8, 49, 100
1, 243360, Note_on_c, 13, 56, 100
1, 243360, Note_on_c, 13, 61, 100
1, 243428, Note_off_c, 10, 64, 0
1, 243446, Note_off_c, 10, 69, 0
1, 243446, Note_off_c, 10, 76, 0
1, 243592, Note_off_c, 6, 69, 0
1, 243602, Note_off_c, 6, 64, 0
1, 243610, Note_off_c, 6, 76, 0
1, 243652, Note_off_c, 8, 37, 0
1, 243652, Note_off_c, 8, 49, 0
1, 243652, Note_off_c, 13, 56, 0
1, 243652, Note_off_c, 13, 61, 0
1, 243832, Note_off_c, 3, 71, 64
1, 243832, Note_off_c, 3, 76, 64
1, 243840, Note_on_c, 7, 64, 68
1, 243840, Note_on_c, 7, 69, 70
1, 243840, Note_on_c, 7, 76, 73
1, 243840, Note_on_c, 8, 56, 100
1, 243840, Note_on_c, 8, 61, 100
1, 243840, Note_on_c, 13, 37, 100
1, 243840, Note_on_c, 13, 49, 100
1, 244008, Note_off_c, 1, 69, 0
1, 244088, Note_off_c, 7, 64, 0
1, 244102, Note_off_c, 7, 69, 0
1, 244102, Note_off_c, 7, 76, 0
1, 244122, Note_on_c, 10, 64, 72
1, 244122, Note_on_c, 10, 69, 52
1, 244122, Note_on_c, 10, 76, 72
1, 244132, Note_off_c, 8, 56, 0
1, 244132, Note_off_c, 8, 61, 0
1, 244132, Note_off_c, 13, 37, 0
1, 244132, Note_off_c, 13, 49, 0
1, 244274, Note_off_c, 10, 69, 0
1, 244320, Note_on_c, 1, 64, 68
1, 244320, Note_on_c, 3, 73, 100
1, 244320, Note_on_c, 3, 76, 100
1, 244320, Note_on_c, 6, 64, 68
1, 244320, Note_on_c, 6, 69, 69
1, 244320, Note_on_c, 6, 76, 72
1, 244320, Note_on_c, 8, 37, 100
1, 244320, Note_on_c, 8, 49, 100
1, 244320, Note_on_c, 13, 56, 100
1, 244320, Note_on_c, 13, 61, 100
1, 244362, Note_off_c, 10, 64, 0
1, 244368, Note_off_c, 10, 76, 0
1, 244536, Note_off_c, 6, 76, 0
1, 244538, Note_off_c, 6, 69, 0
1, 244552, Note_off_c, 6, 64, 0
1, 244612, Note_off_c, 8, 37, 0
1, 244612, Note_off_c, 8, 49, 0
1, 244612, Note_off_c, 13, 56, 0
1, 244612, Note_off_c, 13, 61, 0
1, 244764, Note_off_c, 1, 64, 0
1, 244792, Note_off_c, 3, 73, 64
1, 244792, Note_off_c, 3, 76, 64
1, 244792, Note_off_c, 14, 66, 0
1, 244792, Note_off_c, 14, 81, 0
1, 244800, Note_on_c, 0, 57, 100
1, 244800, Note_on_c, 0, 66, 100
1, 244800, Note_on_c, 1, 66, 78
1, 244800, Note_on_c, 2, 69, 100
1, 244800, Note_on_c, 2, 78, 100
1, 244800, Note_on_c, 3, 64, 100
1, 244800, Note_on_c, 3, 69, 100
1, 244800, Note_on_c, 4, 78, 100
1, 244800, Note_on_c, 5, 50, 100
1, 244800, Note_on_c, 5, 57, 100
1, 244800, Note_on_c, 7, 64, 70
1, 244800, Note_on_c, 7, 69, 83
1, 244800, Note_on_c, 7, 76, 74
1, 244800, Note_on_c, 8, 57, 100
1, 244800, Note_on_c, 8, 61, 100
1, 244800, Note_on_c, 13, 38, 100
1, 244800, Note_on_c, 13, 45, 100
1, 244800, Note_on_c, 14, 56, 100
1, 244800, Note_on_c, 14, 80, 100
1, 245040, Note_off_c, 7, 64, 0
1, 245040, Note_off_c, 7, 76, 0
1, 245050, Note_off_c, 7, 69, 0
1, 245082, Note_on_c, 10, 64, 68
1, 245082, Note_on_c, 10, 69, 70
1, 245082, Note_on_c, 10, 76, 74
1, 245092, Note_off_c, 8, 57, 0
1, 245092, Note_off_c, 8, 61, 0
1, 245092, Note_off_c, 13, 38, 0
1, 245092, Note_off_c, 13, 45, 0
1, 245272, Note_off_c, 0, 57, 64
1, 245272, Note_off_c, 0, 66, 64
1, 245272, Note_off_c, 2, 69, 64
1, 245272, Note_off_c, 2, 78, 64
1, 245272, Note_off_c, 3, 64, 64
1, 245272, Note_off_c, 3, 69, 64
1, 245272, Note_off_c, 4, 78, 0
1, 245280, Note_on_c, 6, 64, 67
1, 245280, Note_on_c, 6, 69, 67
1, 245280, Note_on_c, 6, 76, 72
1, 245280, Note_on_c, 8, 38, 100
1, 245280, Note_on_c, 8, 45, 100
1, 245280, Note_on_c, 13, 57, 100
1, 245280, Note_on_c, 13, 61, 100
1, 245314, Note_off_c, 10, 69, 0
1, 245324, Note_off_c, 10, 64, 0
1, 245332, Note_off_c, 10, 76, 0
1, 245468, Note_off_c, 1, 66, 0
1, 245526, Note_off_c, 6, 64, 0
1, 245530, Note_off_c, 6, 69, 0
1, 245546, Note_off_c, 6, 76, 0
1, 245572, Note_off_c, 8, 38, 0
1, 245572, Note_off_c, 8, 45, 0
1, 245572, Note_off_c, 13, 57, 0
1, 245572, Note_off_c, 13, 61, 0
1, 245760, Note_on_c, 0, 61, 100
1, 245760, Note_on_c, 0, 68, 100
1, 245760, Note_on_c, 1, 59, 74
1, 245760, Note_on_c, 2, 71, 100
1, 245760, Note_on_c, 2, 80, 100
1, 245760, Note_on_c, 3, 71, 100
1, 245760, Note_on_c, 3, 76, 100
1, 245760, Note_on_c, 4, 80, 100
1, 245760, Note_on_c, 7, 64, 66
1, 245760, Note_on_c, 7, 69, 70
1, 245760, Note_on_c, 7, 76, 75
1, 245760, Note_on_c, 8, 57, 100
1, 245760, Note_on_c, 8, 61, 100
1, 245760, Note_on_c, 13, 38, 100
1, 245760, Note_on_c, 13, 45, 100
1, 246010, Note_off_c, 7, 69, 0
1, 246024, Note_off_c, 7, 64, 0
1, 246042, Note_on_c, 10, 64, 68
1, 246042, Note_on_c, 10, 69, 69
1, 246042, Note_on_c, 10, 76, 72
1, 246050, Note_off_c, 7, 76, 0
1, 246052, Note_off_c, 8, 57, 0
1, 246052, Note_off_c, 8, 61, 0
1, 246052, Note_off_c, 13, 38, 0
1, 246052, Note_off_c, 13, 45, 0
1, 246232, Note_off_c, 0, 61, 64
1, 246232, Note_off_c, 0, 68, 64
1, 246232, Note_off_c, 2, 71, 64
1, 246232, Note_off_c, 2, 80, 64
1, 246232, Note_off_c, 3, 71, 64
1, 246232, Note_off_c, 3, 76, 64
1, 246232, Note_off_c, 4, 80, 0
1, 246240, Note_on_c, 0, 64, 100
1, 246240, Note_on_c, 0, 69, 100
1, 246240, Note_on_c, 1, 69, 75
1, 246240, Note_on_c, 2, 69, 100
1, 246240, Note_on_c, 2, 78, 100
1, 246240, Note_on_c, 3, 66, 100
1, 246240, Note_on_c, 3, 69, 100
1, 246240, Note_on_c, 4, 81, 100
1, 246240, Note_on_c, 6, 64, 69
1, 246240, Note_on_c, 6, 69, 69
1, 246240, Note_on_c, 6, 76, 73
1, 246240, Note_on_c, 8, 38, 100
1, 246240, Note_on_c, 8, 45, 100
1, 246240, Note_on_c, 13, 57, 100
1, 246240, Note_on_c, 13, 61, 100
1, 246248, Note_off_c, 1, 59, 0
1, 246258, Note_off_c, 10, 76, 0
1, 246260, Note_off_c, 10, 69, 0
1, 246274, Note_off_c, 10, 64, 0
1, 246506, Note_off_c, 6, 64, 0
1, 246532, Note_off_c, 8, 38, 0
1, 246532, Note_off_c, 8, 45, 0
1, 246532, Note_off_c, 13, 57, 0
1, 246532, Note_off_c, 13, 61, 0
1, 246544, Note_off_c, 6, 69, 0
1, 246544, Note_off_c, 6, 76, 0
1, 246712, Note_off_c, 0, 64, 64
1, 246712, Note_off_c, 0, 69, 64
1, 246712, Note_off_c, 2, 69, 64
1, 246712, Note_off_c, 2, 78, 64
1, 246712, Note_off_c, 3, 66, 64
1, 246712, Note_off_c, 3, 69, 64
1, 246712, Note_off_c, 4, 81, 0
1, 246720, Note_on_c, 0, 68, 100
1, 246720, Note_on_c, 0, 73, 100
1, 246720, Note_on_c, 1, 64, 73
1, 246720, Note_on_c, 2, 73, 100
1, 246720, Note_on_c, 2, 81, 100
1, 246720, Note_on_c, 3, 73, 100
1, 246720, Note_on_c, 3, 76, 100
1, 246720, Note_on_c, 4, 85, 100
1, 246720, Note_on_c, 7, 64, 66
1, 246720, Note_on_c, 7, 69, 70
1, 246720, Note_on_c, 7, 76, 75
1, 246720, Note_on_c, 8, 57, 100
1, 246720, Note_on_c, 8, 61, 100
1, 246720, Note_on_c, 13, 38, 100
1, 246720, Note_on_c, 13, 45, 100
1, 246846, Note_off_c, 1, 69, 0
1, 246970, Note_off_c, 7, 69, 0
1, 246984, Note_off_c, 7, 64, 0
1, 247002, Note_on_c, 10, 64, 67
1, 247002, Note_on_c, 10, 69, 67
1, 247002, Note_on_c, 10, 76, 72
1, 247010, Note_off_c, 7, 76, 0
1, 247012, Note_off_c, 8, 57, 0
1, 247012, Note_off_c, 8, 61, 0
1, 247012, Note_off_c, 13, 38, 0
1, 247012, Note_off_c, 13, 45, 0
1, 247192, Note_off_c, 0, 68, 64
1, 247192, Note_off_c, 0, 73, 64
1, 247192, Note_off_c, 2, 73, 64
1, 247192, Note_off_c, 2, 81, 64
1, 247192, Note_off_c, 3, 73, 64
1, 247192, Note_off_c, 3, 76, 64
1, 247192, Note_off_c, 4, 85, 0
1, 247200, Note_on_c, 6, 64, 67
1, 247200, Note_on_c, 6, 69, 63
1, 247200, Note_on_c, 6, 76, 74
1, 247200, Note_on_c, 8, 38, 100
1, 247200, Note_on_c, 8, 45, 100
1, 247200, Note_on_c, 13, 57, 100
1, 247200, Note_on_c, 13, 61, 100
1, 247248, Note_off_c, 10, 64, 0
1, 247252, Note_off_c, 10, 69, 0
1, 247268, Note_off_c, 10, 76, 0
1, 247404, Note_off_c, 6, 69, 0
1, 247426, Note_off_c, 1, 64, 0
1, 247466, Note_off_c, 6, 64, 0
1, 247466, Note_off_c, 6, 76, 0
1, 247492, Note_off_c, 8, 38, 0
1, 247492, Note_off_c, 8, 45, 0
1, 247492, Note_off_c, 13, 57, 0
1, 247492, Note_off_c, 13, 61, 0
1, 247680, Note_on_c, 0, 66, 100
1, 247680, Note_on_c, 0, 71, 100
1, 247680, Note_on_c, 1, 66, 68
1, 247680, Note_on_c, 2, 71, 100
1, 247680, Note_on_c, 2, 80, 100
1, 247680, Note_on_c, 3, 71, 100
1, 247680, Note_on_c, 3, 76, 100
1, 247680, Note_on_c, 4, 83, 100
1, 247680, Note_on_c, 7, 64, 72
1, 247680, Note_on_c, 7, 69, 80
1, 247680, Note_on_c, 7, 76, 77
1, 247680, Note_on_c, 8, 57, 100
1, 247680, Note_on_c, 8, 61, 100
1, 247680, Note_on_c, 13, 38, 100
1, 247680, Note_on_c, 13, 45, 100
1, 247920, Note_off_c, 7, 76, 0
1, 247930, Note_off_c, 7, 64, 0
1, 247930, Note_off_c, 7, 69, 0
1, 247962, Note_on_c, 10, 64, 69
1, 247962, Note_on_c, 10, 69, 69
1, 247962, Note_on_c, 10, 76, 73
1, 247972, Note_off_c, 8, 57, 0
1, 247972, Note_off_c, 8, 61, 0
1, 247972, Note_off_c, 13, 38, 0
1, 247972, Note_off_c, 13, 45, 0
1, 248152, Note_off_c, 0, 66, 64
1, 248152, Note_off_c, 0, 71, 64
1, 248152, Note_off_c, 2, 71, 64
1, 248152, Note_off_c, 2, 80, 64
1, 248152, Note_off_c, 3, 71, 64
1, 248152, Note_off_c, 3, 76, 64
1, 248152, Note_off_c, 4, 83, 0
1, 248160, Note_on_c, 0, 61, 100
1, 248160, Note_on_c, 0, 68, 100
1, 248160, Note_on_c, 1, 61, 68
1, 248160, Note_on_c, 2, 69, 100
1, 248160, Note_on_c, 2, 78, 100
1, 248160, Note_on_c, 3, 64, 100
1, 248160, Note_on_c, 3, 69, 100
1, 248160, Note_on_c, 4, 80, 100
1, 248160, Note_on_c, 6, 64, 66
1, 248160, Note_on_c, 6, 69, 63
1, 248160, Note_on_c, 6, 76, 74
1, 248160, Note_on_c, 8, 38, 100
1, 248160, Note_on_c, 8, 45, 100
1, 248160, Note_on_c, 13, 57, 100
1, 248160, Note_on_c, 13, 61, 100
1, 248196, Note_off_c, 1, 66, 0
1, 248228, Note_off_c, 10, 64, 0
1, 248266, Note_off_c, 10, 69, 0
1, 248266, Note_off_c, 10, 76, 0
1, 248390, Note_off_c, 6, 69, 0
1, 248396, Note_off_c, 6, 64, 0
1, 248434, Note_off_c, 6, 76, 0
1, 248452, Note_off_c, 8, 38, 0
1, 248452, Note_off_c, 8, 45, 0
1, 248452, Note_off_c, 13, 57, 0
1, 248452, Note_off_c, 13, 61, 0
1, 248632, Note_off_c, 0, 61, 64
1, 248632, Note_off_c, 0, 68, 64
1, 248632, Note_off_c, 2, 69, 64
1, 248632, Note_off_c, 2, 78, 64
1, 248632, Note_off_c, 3, 64, 64
1, 248632, Note_off_c, 3, 69, 64
1, 248632, Note_off_c, 4, 80, 0
1, 248640, Note_on_c, 7, 64, 70
1, 248640, Note_on_c, 7, 69, 77
1, 248640, Note_on_c, 7, 76, 77
1, 248640, Note_on_c, 8, 57, 100
1, 248640, Note_on_c, 8, 61, 100
1, 248640, Note_on_c, 13, 38, 100
1, 248640, Note_on_c, 13, 45, 100
1, 248894, Note_off_c, 7, 64, 0
1, 248922, Note_off_c, 7, 69, 0
1, 248922, Note_on_c, 10, 64, 67
1, 248922, Note_on_c, 10, 69, 63
1, 248922, Note_on_c, 10, 76, 74
1, 248930, Note_off_c, 1, 61, 0
1, 248930, Note_off_c, 7, 76, 0
1, 248932, Note_off_c, 8, 57, 0
1, 248932, Note_off_c, 8, 61, 0
1, 248932, Note_off_c, 13, 38, 0
1, 248932, Note_off_c, 13, 45, 0
1, 249120, Note_on_c, 0, 64, 100
1, 249120, Note_on_c, 0, 69, 100
1, 249120, Note_on_c, 1, 69, 77
1, 249120, Note_on_c, 2, 71, 100
1, 249120, Note_on_c, 2, 80, 100
1, 249120, Note_on_c, 3, 71, 100
1, 249120, Note_on_c, 3, 76, 100
1, 249120, Note_on_c, 4, 81, 100
1, 249120, Note_on_c, 6, 64, 68
1, 249120, Note_on_c, 6, 69, 74
1, 249120, Note_on_c, 6, 76, 74
1, 249120, Note_on_c, 8, 38, 100
1, 249120, Note_on_c, 8, 45, 100
1, 249120, Note_on_c, 13, 57, 100
1, 249120, Note_on_c, 13, 61, 100
1, 249126, Note_off_c, 10, 69, 0
1, 249188, Note_off_c, 10, 64, 0
1, 249188, Note_off_c, 10, 76, 0
1, 249380, Note_off_c, 6, 69, 0
1, 249410, Note_off_c, 6, 76, 0
1, 249412, Note_off_c, 8, 38, 0
1, 249412, Note_off_c, 8, 45, 0
1, 249412, Note_off_c, 13, 57, 0
1, 249412, Note_off_c, 13, 61, 0
1, 249414, Note_off_c, 6, 64, 0
1, 249592, Note_off_c, 0, 64, 64
1, 249592, Note_off_c, 0, 69, 64
1, 249592, Note_off_c, 2, 71, 64
1, 249592, Note_off_c, 2, 80, 64
1, 249592, Note_off_c, 3, 71, 64
1, 249592, Note_off_c, 3, 76, 64
1, 249592, Note_off_c, 4, 81, 0
1, 249600, Note_on_c, 7, 64, 70
1, 249600, Note_on_c, 7, 69, 73
1, 249600, Note_on_c, 7, 76, 74
1, 249600, Note_on_c, 8, 57, 100
1, 249600, Note_on_c, 8, 61, 100
1, 249600, Note_on_c, 13, 38, 100
1, 249600, Note_on_c, 13, 45, 100
1, 249744, Note_off_c, 1, 69, 0
1, 249840, Note_off_c, 7, 64, 0
1, 249846, Note_off_c, 7, 69, 0
1, 249860, Note_off_c, 7, 76, 0
1, 249882, Note_on_c, 10, 64, 66
1, 249882, Note_on_c, 10, 69, 63
1, 249882, Note_on_c, 10, 76, 74
1, 249892, Note_off_c, 8, 57, 0
1, 249892, Note_off_c, 8, 61, 0
1, 249892, Note_off_c, 13, 38, 0
1, 249892, Note_off_c, 13, 45, 0
1, 250080, Note_on_c, 0, 66, 100
1, 250080, Note_on_c, 0, 71, 100
1, 250080, Note_on_c, 1, 64, 70
1, 250080, Note_on_c, 2, 73, 100
1, 250080, Note_on_c, 2, 81, 100
1, 250080, Note_on_c, 3, 73, 100
1, 250080, Note_on_c, 3, 76, 100
1, 250080, Note_on_c, 4, 83, 100
1, 250080, Note_on_c, 6, 64, 73
1, 250080, Note_on_c, 6, 69, 82
1, 250080, Note_on_c, 6, 76, 77
1, 250080, Note_on_c, 8, 38, 100
1, 250080, Note_on_c, 8, 45, 100
1, 250080, Note_on_c, 13, 57, 100
1, 250080, Note_on_c, 13, 61, 100
1, 250112, Note_off_c, 10, 69, 0
1, 250118, Note_off_c, 10, 64, 0
1, 250156, Note_off_c, 10, 76, 0
1, 250358, Note_off_c, 6, 69, 0
1, 250370, Note_off_c, 6, 64, 0
1, 250372, Note_off_c, 8, 38, 0
1, 250372, Note_off_c, 8, 45, 0
1, 250372, Note_off_c, 13, 57, 0
1, 250372, Note_off_c, 13, 61, 0
1, 250378, Note_off_c, 6, 76, 0
1, 250552, Note_off_c, 0, 66, 64
1, 250552, Note_off_c, 0, 71, 64
1, 250552, Note_off_c, 2, 73, 64
1, 250552, Note_off_c, 2, 81, 64
1, 250552, Note_off_c, 3, 73, 64
1, 250552, Note_off_c, 3, 76, 64
1, 250552, Note_off_c, 4, 83, 0
1, 250552, Note_off_c, 5, 50, 0
1, 250552, Note_off_c, 5, 57, 0
1, 250560, Note_on_c, 0, 61, 100
1, 250560, Note_on_c, 0, 68, 100
1, 250560, Note_on_c, 1, 66, 77
1, 250560, Note_on_c, 2, 69, 100
1, 250560, Note_on_c, 2, 78, 100
1, 250560, Note_on_c, 3, 64, 100
1, 250560, Note_on_c, 3, 69, 100
1, 250560, Note_on_c, 4, 80, 100
1, 250560, Note_on_c, 5, 52, 100
1, 250560, Note_on_c, 5, 57, 100
1, 250560, Note_on_c, 7, 64, 72
1, 250560, Note_on_c, 7, 69, 77
1, 250560, Note_on_c, 7, 76, 75
1, 250560, Note_on_c, 8, 59, 100
1, 250560, Note_on_c, 8, 61, 100
1, 250560, Note_on_c, 13, 40, 100
1, 250560, Note_on_c, 13, 45, 100
1, 250712, Note_off_c, 1, 64, 0
1, 250768, Note_off_c, 7, 69, 0
1, 250782, Note_off_c, 7, 64, 0
1, 250802, Note_off_c, 7, 76, 0
1, 250842, Note_on_c, 10, 64, 68
1, 250842, Note_on_c, 10, 69, 74
1, 250842, Note_on_c, 10, 76, 74
1, 250852, Note_off_c, 8, 59, 0
1, 250852, Note_off_c, 8, 61, 0
1, 250852, Note_off_c, 13, 40, 0
1, 250852, Note_off_c, 13, 45, 0
1, 251032, Note_off_c, 0, 61, 64
1, 251032, Note_off_c, 0, 68, 64
1, 251032, Note_off_c, 2, 69, 64
1, 251032, Note_off_c, 2, 78, 64
1, 251032, Note_off_c, 3, 64, 64
1, 251032, Note_off_c, 3, 69, 64
1, 251032, Note_off_c, 4, 80, 0
1, 251040, Note_on_c, 6, 64, 72
1, 251040, Note_on_c, 6, 69, 75
1, 251040, Note_on_c, 6, 76, 73
1, 251040, Note_on_c, 8, 40, 100
1, 251040, Note_on_c, 8, 45, 100
1, 251040, Note_on_c, 13, 59, 100
1, 251040, Note_on_c, 13, 61, 100
1, 251102, Note_off_c, 10, 69, 0
1, 251132, Note_off_c, 10, 76, 0
1, 251136, Note_off_c, 10, 64, 0
1, 251204, Note_off_c, 1, 66, 0
1, 251328, Note_off_c, 6, 76, 0
1, 251330, Note_off_c, 6, 69, 0
1, 251332, Note_off_c, 8, 40, 0
1, 251332, Note_off_c, 8, 45, 0
1, 251332, Note_off_c, 13, 59, 0
1, 251332, Note_off_c, 13, 61, 0
1, 251338, Note_off_c, 6, 64, 0
1, 251520, Note_on_c, 0, 61, 100
1, 251520, Note_on_c, 0, 68, 100
1, 251520, Note_on_c, 1, 59, 65
1, 251520, Note_on_c, 2, 71, 100
1, 251520, Note_on_c, 2, 80, 100
1, 251520, Note_on_c, 3, 71, 100
1, 251520, Note_on_c, 3, 76, 100
1, 251520, Note_on_c, 4, 80, 100
1, 251520, Note_on_c, 7, 64, 70
1, 251520, Note_on_c, 7, 69, 78
1, 251520, Note_on_c, 7, 76, 77
1, 251520, Note_on_c, 8, 59, 100
1, 251520, Note_on_c, 8, 61, 100
1, 251520, Note_on_c, 13, 40, 100
1, 251520, Note_on_c, 13, 45, 100
1, 251762, Note_off_c, 7, 64, 0
1, 251784, Note_off_c, 7, 76, 0
1, 251802, Note_on_c, 10, 64, 73
1, 251802, Note_on_c, 10, 69, 82
1, 251802, Note_on_c, 10, 76, 77
1, 251808, Note_off_c, 7, 69, 0
1, 251812, Note_off_c, 8, 59, 0
1, 251812, Note_off_c, 8, 61, 0
1, 251812, Note_off_c, 13, 40, 0
1, 251812, Note_off_c, 13, 45, 0
1, 251992, Note_off_c, 0, 61, 64
1, 251992, Note_off_c, 0, 68, 64
1, 251992, Note_off_c, 2, 71, 64
1, 251992, Note_off_c, 2, 80, 64
1, 251992, Note_off_c, 3, 71, 64
1, 251992, Note_off_c, 3, 76, 64
1, 251992, Note_off_c, 4, 80, 0
1, 252000, Note_on_c, 0, 64, 100
1, 252000, Note_on_c, 0, 69, 100
1, 252000, Note_on_c, 1, 69, 74
1, 252000, Note_on_c, 2, 69, 100
1, 252000, Note_on_c, 2, 78, 100
1, 252000, Note_on_c, 3, 66, 100
1, 252000, Note_on_c, 3, 69, 100
1, 252000, Note_on_c, 4, 81, 100
1, 252000, Note_on_c, 6, 64, 69
1, 252000, Note_on_c, 6, 69, 70
1, 252000, Note_on_c, 6, 76, 72
1, 252000, Note_on_c, 8, 40, 100
1, 252000, Note_on_c, 8, 45, 100
1, 252000, Note_on_c, 13, 59, 100
1, 252000, Note_on_c, 13, 61, 100
1, 252080, Note_off_c, 10, 69, 0
1, 252092, Note_off_c, 10, 64, 0
1, 252094, Note_off_c, 1, 59, 0
1, 252100, Note_off_c, 10, 76, 0
1, 252264, Note_off_c, 6, 69, 0
1, 252288, Note_off_c, 6, 64, 0
1, 252292, Note_off_c, 8, 40, 0
1, 252292, Note_off_c, 8, 45, 0
1, 252292, Note_off_c, 13, 59, 0
1, 252292, Note_off_c, 13, 61, 0
1, 252304, Note_off_c, 6, 76, 0
1, 252472, Note_off_c, 0, 64, 64
1, 252472, Note_off_c, 0, 69, 64
1, 252472, Note_off_c, 2, 69, 64
1, 252472, Note_off_c, 2, 78, 64
1, 252472, Note_off_c, 3, 66, 64
1, 252472, Note_off_c, 3, 69, 64
1, 252472, Note_off_c, 4, 81, 0
1, 252480, Note_on_c, 0, 68, 100
1, 252480, Note_on_c, 0, 73, 100
1, 252480, Note_on_c, 1, 64, 68
1, 252480, Note_on_c, 2, 73, 100
1, 252480, Note_on_c, 2, 81, 100
1, 252480, Note_on_c, 3, 73, 100
1, 252480, Note_on_c, 3, 76, 100
1, 252480, Note_on_c, 4, 85, 100
1, 252480, Note_on_c, 7, 64, 70
1, 252480, Note_on_c, 7, 69, 72
1, 252480, Note_on_c, 7, 76, 77
1, 252480, Note_on_c, 8, 59, 100
1, 252480, Note_on_c, 8, 61, 100
1, 252480, Note_on_c, 13, 40, 100
1, 252480, Note_on_c, 13, 45, 100
1, 252692, Note_off_c, 1, 69, 0
1, 252734, Note_off_c, 7, 64, 0
1, 252746, Note_off_c, 7, 69, 0
1, 252762, Note_on_c, 10, 64, 72
1, 252762, Note_on_c, 10, 69, 75
1, 252762, Note_on_c, 10, 76, 73
1, 252772, Note_off_c, 8, 59, 0
1, 252772, Note_off_c, 8, 61, 0
1, 252772, Note_off_c, 13, 40, 0
1, 252772, Note_off_c, 13, 45, 0
1, 252802, Note_off_c, 7, 76, 0
1, 252952, Note_off_c, 0, 68, 64
1, 252952, Note_off_c, 0, 73, 64
1, 252952, Note_off_c, 2, 73, 64
1, 252952, Note_off_c, 2, 81, 64
1, 252952, Note_off_c, 3, 73, 64
1, 252952, Note_off_c, 3, 76, 64
1, 252952, Note_off_c, 4, 85, 0
1, 252960, Note_on_c, 6, 64, 68
1, 252960, Note_on_c, 6, 69, 77
1, 252960, Note_on_c, 6, 76, 73
1, 252960, Note_on_c, 8, 40, 100
1, 252960, Note_on_c, 8, 45, 100
1, 252960, Note_on_c, 13, 59, 100
1, 252960, Note_on_c, 13, 61, 100
1, 253050, Note_off_c, 10, 76, 0
1, 253052, Note_off_c, 10, 69, 0
1, 253060, Note_off_c, 10, 64, 0
1, 253094, Note_off_c, 1, 64, 0
1, 253226, Note_off_c, 6, 64, 0
1, 253244, Note_off_c, 6, 69, 0
1, 253244, Note_off_c, 6, 76, 0
1, 253252, Note_off_c, 8, 40, 0
1, 253252, Note_off_c, 8, 45, 0
1, 253252, Note_off_c, 13, 59, 0
1, 253252, Note_off_c, 13, 61, 0
1, 253432, Note_off_c, 14, 56, 0
1, 253432, Note_off_c, 14, 80, 0
1, 253440, Note_on_c, 0, 66, 100
1, 253440, Note_on_c, 0, 71, 100
1, 253440, Note_on_c, 1, 66, 77
1, 253440, Note_on_c, 2, 71, 100
1, 253440, Note_on_c, 2, 80, 100
1, 253440, Note_on_c, 3, 71, 100
1, 253440, Note_on_c, 3, 76, 100
1, 253440, Note_on_c, 4, 83, 100
1, 253440, Note_on_c, 7, 64, 73
1, 253440, Note_on_c, 7, 69, 77
1, 253440, Note_on_c, 7, 76, 74
1, 253440, Note_on_c, 8, 59, 100
1, 253440, Note_on_c, 8, 61, 100
1, 253440, Note_on_c, 13, 40, 100
1, 253440, Note_on_c, 13, 45, 100
1, 253722, Note_on_c, 10, 64, 69
1, 253722, Note_on_c, 10, 69, 70
1, 253722, Note_on_c, 10, 76, 72
1, 253724, Note_off_c, 7, 69, 0
1, 253732, Note_off_c, 8, 59, 0
1, 253732, Note_off_c, 8, 61, 0
1, 253732, Note_off_c, 13, 40, 0
1, 253732, Note_off_c, 13, 45, 0
1, 253756, Note_off_c, 7, 76, 0
1, 253762, Note_off_c, 7, 64, 0
1, 253912, Note_off_c, 0, 66, 64
1, 253912, Note_off_c, 0, 71, 64
1, 253912, Note_off_c, 2, 71, 64
1, 253912, Note_off_c, 2, 80, 64
1, 253912, Note_off_c, 3, 71, 64
1, 253912, Note_off_c, 3, 76, 64
1, 253912, Note_off_c, 4, 83, 0
1, 253920, Note_on_c, 0, 61, 100
1, 253920, Note_on_c, 0, 68, 100
1, 253920, Note_on_c, 1, 61, 70
1, 253920, Note_on_c, 2, 69, 100
1, 253920, Note_on_c, 2, 78, 100
1, 253920, Note_on_c, 3, 64, 100
1, 253920, Note_on_c, 3, 69, 100
1, 253920, Note_on_c, 4, 80, 100
1, 253920, Note_on_c, 6, 64, 72
1, 253920, Note_on_c, 6, 69, 52
1, 253920, Note_on_c, 6, 76, 72
1, 253920, Note_on_c, 8, 40, 100
1, 253920, Note_on_c, 8, 45, 100
1, 253920, Note_on_c, 13, 59, 100
1, 253920, Note_on_c, 13, 61, 100
1, 253986, Note_off_c, 10, 69, 0
1, 254010, Note_off_c, 10, 64, 0
1, 254026, Note_off_c, 10, 76, 0
1, 254072, Note_off_c, 6, 69, 0
1, 254082, Note_off_c, 1, 66, 0
1, 254160, Note_off_c, 6, 64, 0
1, 254166, Note_off_c, 6, 76, 0
1, 254212, Note_off_c, 8, 40, 0
1, 254212, Note_off_c, 8, 45, 0
1, 254212, Note_off_c, 13, 59, 0
1, 254212, Note_off_c, 13, 61, 0
1, 254392, Note_off_c, 0, 61, 64
1, 254392, Note_off_c, 0, 68, 64
1, 254392, Note_off_c, 2, 69, 64
1, 254392, Note_off_c, 2, 78, 64
1, 254392, Note_off_c, 3, 64, 64
1, 254392, Note_off_c, 3, 69, 64
1, 254392, Note_off_c, 4, 80, 0
1, 254400, Note_on_c, 7, 64, 68
1, 254400, Note_on_c, 7, 69, 70
1, 254400, Note_on_c, 7, 76, 72
1, 254400, Note_on_c, 8, 59, 100
1, 254400, Note_on_c, 8, 61, 100
1, 254400, Note_on_c, 13, 40, 100
1, 254400, Note_on_c, 13, 45, 100
1, 254548, Note_off_c, 1, 61, 0
1, 254682, Note_on_c, 10, 64, 68
1, 254682, Note_on_c, 10, 69, 77
1, 254682, Note_on_c, 10, 76, 73
1, 254690, Note_off_c, 7, 69, 0
1, 254692, Note_off_c, 8, 59, 0
1, 254692, Note_off_c, 8, 61, 0
1, 254692, Note_off_c, 13, 40, 0
1, 254692, Note_off_c, 13, 45, 0
1, 254708, Note_off_c, 7, 76, 0
1, 254714, Note_off_c, 7, 64, 0
1, 254880, Note_on_c, 0, 64, 100
1, 254880, Note_on_c, 0, 69, 100
1, 254880, Note_on_c, 1, 69, 77
1, 254880, Note_on_c, 2, 71, 100
1, 254880, Note_on_c, 2, 80, 100
1, 254880, Note_on_c, 3, 71, 100
1, 254880, Note_on_c, 3, 76, 100
1, 254880, Note_on_c, 4, 81, 100
1, 254880, Note_on_c, 6, 64, 68
1, 254880, Note_on_c, 6, 69, 70
1, 254880, Note_on_c, 6, 76, 74
1, 254880, Note_on_c, 8, 40, 100
1, 254880, Note_on_c, 8, 45, 100
1, 254880, Note_on_c, 13, 59, 100
1, 254880, Note_on_c, 13, 61, 100
1, 254948, Note_off_c, 10, 64, 0
1, 254966, Note_off_c, 10, 69, 0
1, 254966, Note_off_c, 10, 76, 0
1, 255112, Note_off_c, 6, 69, 0
1, 255122, Note_off_c, 6, 64, 0
1, 255130, Note_off_c, 6, 76, 0
1, 255172, Note_off_c, 8, 40, 0
1, 255172, Note_off_c, 8, 45, 0
1, 255172, Note_off_c, 13, 59, 0
1, 255172, Note_off_c, 13, 61, 0
1, 255352, Note_off_c, 0, 64, 64
1, 255352, Note_off_c, 0, 69, 64
1, 255352, Note_off_c, 2, 71, 64
1, 255352, Note_off_c, 2, 80, 64
1, 255352, Note_off_c, 3, 71, 64
1, 255352, Note_off_c, 3, 76, 64
1, 255352, Note_off_c, 4, 81, 0
1, 255360, Note_on_c, 7, 64, 68
1, 255360, Note_on_c, 7, 69, 70
1, 255360, Note_on_c, 7, 76, 73
1, 255360, Note_on_c, 8, 59, 100
1, 255360, Note_on_c, 8, 61, 100
1, 255360, Note_on_c, 13, 40, 100
1, 255360, Note_on_c, 13, 45, 100
1, 255528, Note_off_c, 1, 69, 0
1, 255608, Note_off_c, 7, 64, 0
1, 255622, Note_off_c, 7, 69, 0
1, 255622, Note_off_c, 7, 76, 0
1, 255642, Note_on_c, 10, 64, 72
1, 255642, Note_on_c, 10, 69, 52
1, 255642, Note_on_c, 10, 76, 72
1, 255652, Note_off_c, 8, 59, 0
1, 255652, Note_off_c, 8, 61, 0
1, 255652, Note_off_c, 13, 40, 0
1, 255652, Note_off_c, 13, 45, 0
1, 255794, Note_off_c, 10, 69, 0
1, 255840, Note_on_c, 0, 66, 100
1, 255840, Note_on_c, 0, 71, 100
1, 255840, Note_on_c, 1, 64, 68
1, 255840, Note_on_c, 2, 73, 100
1, 255840, Note_on_c, 2, 81, 100
1, 255840, Note_on_c, 3, 73, 100
1, 255840, Note_on_c, 3, 76, 100
1, 255840, Note_on_c, 4, 83, 100
1, 255840, Note_on_c, 6, 64, 68
1, 255840, Note_on_c, 6, 69, 69
1, 255840, Note_on_c, 6, 76, 72
1, 255840, Note_on_c, 8, 40, 100
1, 255840, Note_on_c, 8, 45, 100
1, 255840, Note_on_c, 13, 59, 100
1, 255840, Note_on_c, 13, 61, 100
1, 255882, Note_off_c, 10, 64, 0
1, 255888, Note_off_c, 10, 76, 0
1, 256056, Note_off_c, 6, 76, 0
1, 256058, Note_off_c, 6, 69, 0
1, 256072, Note_off_c, 6, 64, 0
1, 256132, Note_off_c, 8, 40, 0
1, 256132, Note_off_c, 8, 45, 0
1, 256132, Note_off_c, 13, 59, 0
1, 256132, Note_off_c, 13, 61, 0
1, 256284, Note_off_c, 1, 64, 0
1, 256312, Note_off_c, 0, 66, 64
1, 256312, Note_off_c, 0, 71, 64
1, 256312, Note_off_c, 2, 73, 64
1, 256312, Note_off_c, 2, 81, 64
1, 256312, Note_off_c, 3, 73, 64
1, 256312, Note_off_c, 3, 76, 64
1, 256312, Note_off_c, 4, 83, 0
1, 256312, Note_off_c, 5, 52, 0
1, 256312, Note_off_c, 5, 57, 0
1, 256320, Note_on_c, 0, 61, 100
1, 256320, Note_on_c, 0, 68, 100
1, 256320, Note_on_c, 1, 66, 78
1, 256320, Note_on_c, 2, 69, 100
1, 256320, Note_on_c, 2, 78, 100
1, 256320, Note_on_c, 3, 64, 100
1, 256320, Note_on_c, 3, 69, 100
1, 256320, Note_on_c, 4, 80, 100
1, 256320, Note_on_c, 5, 50, 100
1, 256320, Note_on_c, 5, 57, 100
1, 256320, Note_on_c, 7, 64, 70
1, 256320, Note_on_c, 7, 69, 83
1, 256320, Note_on_c, 7, 76, 74
1, 256320, Note_on_c, 8, 57, 100
1, 256320, Note_on_c, 8, 61, 100
1, 256320, Note_on_c, 13, 38, 100
1, 256320, Note_on_c, 13, 45, 100
1, 256560, Note_off_c, 7, 64, 0
1, 256560, Note_off_c, 7, 76, 0
1, 256570, Note_off_c, 7, 69, 0
1, 256602, Note_on_c, 10, 64, 68
1, 256602, Note_on_c, 10, 69, 70
1, 256602, Note_on_c, 10, 76, 74
1, 256612, Note_off_c, 8, 57, 0
1, 256612, Note_off_c, 8, 61, 0
1, 256612, Note_off_c, 13, 38, 0
1, 256612, Note_off_c, 13, 45, 0
1, 256792, Note_off_c, 0, 61, 64
1, 256792, Note_off_c, 0, 68, 64
1, 256792, Note_off_c, 2, 69, 64
1, 256792, Note_off_c, 2, 78, 64
1, 256792, Note_off_c, 3, 64, 64
1, 256792, Note_off_c, 3, 69, 64
1, 256792, Note_off_c, 4, 80, 0
1, 256800, Note_on_c, 6, 64, 67
1, 256800, Note_on_c, 6, 69, 67
1, 256800, Note_on_c, 6, 76, 72
1, 256800, Note_on_c, 8, 38, 100
1, 256800, Note_on_c, 8, 45, 100
1, 256800, Note_on_c, 13, 57, 100
1, 256800, Note_on_c, 13, 61, 100
1, 256834, Note_off_c, 10, 69, 0
1, 256844, Note_off_c, 10, 64, 0
1, 256852, Note_off_c, 10, 76, 0
1, 256988, Note_off_c, 1, 66, 0
1, 257046, Note_off_c, 6, 64, 0
1, 257050, Note_off_c, 6, 69, 0
1, 257066, Note_off_c, 6, 76, 0
1, 257092, Note_off_c, 8, 38, 0
1, 257092, Note_off_c, 8, 45, 0
1, 257092, Note_off_c, 13, 57, 0
1, 257092, Note_off_c, 13, 61, 0
1, 257280, Note_on_c, 0, 61, 100
1, 257280, Note_on_c, 0, 68, 100
1, 257280, Note_on_c, 1, 59, 74
1, 257280, Note_on_c, 2, 71, 100
1, 257280, Note_on_c, 2, 80, 100
1, 257280, Note_on_c, 3, 71, 100
1, 257280, Note_on_c, 3, 76, 100
1, 257280, Note_on_c, 4, 80, 100
1, 257280, Note_on_c, 7, 64, 67
1, 257280, Note_on_c, 7, 69, 78
1, 257280, Note_on_c, 7, 76, 73
1, 257280, Note_on_c, 8, 57, 100
1, 257280, Note_on_c, 8, 61, 100
1, 257280, Note_on_c, 13, 38, 100
1, 257280, Note_on_c, 13, 45, 100
1, 257530, Note_off_c, 7, 76, 0
1, 257536, Note_off_c, 7, 69, 0
1, 257544, Note_off_c, 7, 64, 0
1, 257562, Note_on_c, 10, 64, 68
1, 257562, Note_on_c, 10, 69, 69
1, 257562, Note_on_c, 10, 76, 72
1, 257572, Note_off_c, 8, 57, 0
1, 257572, Note_off_c, 8, 61, 0
1, 257572, Note_off_c, 13, 38, 0
1, 257572, Note_off_c, 13, 45, 0
1, 257752, Note_off_c, 0, 61, 64
1, 257752, Note_off_c, 0, 68, 64
1, 257752, Note_off_c, 2, 71, 64
1, 257752, Note_off_c, 2, 80, 64
1, 257752, Note_off_c, 3, 71, 64
1, 257752, Note_off_c, 3, 76, 64
1, 257752, Note_off_c, 4, 80, 0
1, 257760, Note_on_c, 0, 64, 100
1, 257760, Note_on_c, 0, 69, 100
1, 257760, Note_on_c, 1, 69, 75
1, 257760, Note_on_c, 2, 69, 100
1, 257760, Note_on_c, 2, 78, 100
1, 257760, Note_on_c, 3, 66, 100
1, 257760, Note_on_c, 3, 69, 100
1, 257760, Note_on_c, 4, 81, 100
1, 257760, Note_on_c, 6, 64, 67
1, 257760, Note_on_c, 6, 69, 63
1, 257760, Note_on_c, 6, 76, 72
1, 257760, Note_on_c, 8, 38, 100
1, 257760, Note_on_c, 8, 45, 100
1, 257760, Note_on_c, 13, 57, 100
1, 257760, Note_on_c, 13, 61, 100
1, 257768, Note_off_c, 1, 59, 0
1, 257778, Note_off_c, 10, 76, 0
1, 257780, Note_off_c, 10, 69, 0
1, 257794, Note_off_c, 10, 64, 0
1, 258008, Note_off_c, 6, 69, 0
1, 258036, Note_off_c, 6, 64, 0
1, 258052, Note_off_c, 6, 76, 0
1, 258052, Note_off_c, 8, 38, 0
1, 258052, Note_off_c, 8, 45, 0
1, 258052, Note_off_c, 13, 57, 0
1, 258052, Note_off_c, 13, 61, 0
1, 258232, Note_off_c, 0, 64, 64
1, 258232, Note_off_c, 0, 69, 64
1, 258232, Note_off_c, 2, 69, 64
1, 258232, Note_off_c, 2, 78, 64
1, 258232, Note_off_c, 3, 66, 64
1, 258232, Note_off_c, 3, 69, 64
1, 258232, Note_off_c, 4, 81, 0
1, 258240, Note_on_c, 0, 68, 100
1, 258240, Note_on_c, 0, 73, 100
1, 258240, Note_on_c, 1, 64, 73
1, 258240, Note_on_c, 2, 73, 100
1, 258240, Note_on_c, 2, 81, 100
1, 258240, Note_on_c, 3, 73, 100
1, 258240, Note_on_c, 3, 76, 100
1, 258240, Note_on_c, 4, 85, 100
1, 258240, Note_on_c, 7, 64, 69
1, 258240, Note_on_c, 7, 69, 70
1, 258240, Note_on_c, 7, 76, 73
1, 258240, Note_on_c, 8, 57, 100
1, 258240, Note_on_c, 8, 61, 100
1, 258240, Note_on_c, 13, 38, 100
1, 258240, Note_on_c, 13, 45, 100
1, 258366, Note_off_c, 1, 69, 0
1, 258460, Note_off_c, 7, 69, 0
1, 258482, Note_off_c, 7, 76, 0
1, 258492, Note_off_c, 7, 64, 0
1, 258522, Note_on_c, 10, 64, 67
1, 258522, Note_on_c, 10, 69, 67
1, 258522, Note_on_c, 10, 76, 72
1, 258532, Note_off_c, 8, 57, 0
1, 258532, Note_off_c, 8, 61, 0
1, 258532, Note_off_c, 13, 38, 0
1, 258532, Note_off_c, 13, 45, 0
1, 258712, Note_off_c, 0, 68, 64
1, 258712, Note_off_c, 0, 73, 64
1, 258712, Note_off_c, 2, 73, 64
1, 258712, Note_off_c, 2, 81, 64
1, 258712, Note_off_c, 3, 73, 64
1, 258712, Note_off_c, 3, 76, 64
1, 258712, Note_off_c, 4, 85, 0
1, 258720, Note_on_c, 6, 64, 68
1, 258720, Note_on_c, 6, 69, 66
1, 258720, Note_on_c, 6, 76, 70
1, 258720, Note_on_c, 8, 38, 100
1, 258720, Note_on_c, 8, 45, 100
1, 258720, Note_on_c, 13, 57, 100
1, 258720, Note_on_c, 13, 61, 100
1, 258768, Note_off_c, 10, 64, 0
1, 258772, Note_off_c, 10, 69, 0
1, 258788, Note_off_c, 10, 76, 0
1, 258916, Note_off_c, 6, 69, 0
1, 258940, Note_off_c, 6, 64, 0
1, 258946, Note_off_c, 1, 64, 0
1, 258958, Note_off_c, 6, 76, 0
1, 259012, Note_off_c, 8, 38, 0
1, 259012, Note_off_c, 8, 45, 0
1, 259012, Note_off_c, 13, 57, 0
1, 259012, Note_off_c, 13, 61, 0
1, 259192, Note_off_c, 5, 50, 0
1, 259192, Note_off_c, 5, 57, 0
1, 259200, Note_on_c, 0, 66, 100
1, 259200, Note_on_c, 0, 71, 100
1, 259200, Note_on_c, 1, 66, 68
1, 259200, Note_on_c, 2, 71, 100
1, 259200, Note_on_c, 2, 80, 100
1, 259200, Note_on_c, 3, 71, 100
1, 259200, Note_on_c, 3, 76, 100
1, 259200, Note_on_c, 4, 83, 100
1, 259200, Note_on_c, 5, 52, 100
1, 259200, Note_on_c, 5, 57, 100
1, 259200, Note_on_c, 7, 64, 69
1, 259200, Note_on_c, 7, 69, 75
1, 259200, Note_on_c, 7, 76, 73
1, 259200, Note_on_c, 8, 59, 100
1, 259200, Note_on_c, 8, 61, 100
1, 259200, Note_on_c, 13, 40, 100
1, 259200, Note_on_c, 13, 45, 100
1, 259414, Note_off_c, 7, 69, 0
1, 259430, Note_off_c, 7, 64, 0
1, 259444, Note_off_c, 7, 76, 0
1, 259482, Note_on_c, 10, 64, 67
1, 259482, Note_on_c, 10, 69, 63
1, 259482, Note_on_c, 10, 76, 72
1, 259492, Note_off_c, 8, 59, 0
1, 259492, Note_off_c, 8, 61, 0
1, 259492, Note_off_c, 13, 40, 0
1, 259492, Note_off_c, 13, 45, 0
1, 259672, Note_off_c, 0, 66, 64
1, 259672, Note_off_c, 0, 71, 64
1, 259672, Note_off_c, 2, 71, 64
1, 259672, Note_off_c, 2, 80, 64
1, 259672, Note_off_c, 3, 71, 64
1, 259672, Note_off_c, 3, 76, 64
1, 259672, Note_off_c, 4, 83, 0
1, 259680, Note_on_c, 0, 61, 100
1, 259680, Note_on_c, 0, 68, 100
1, 259680, Note_on_c, 1, 61, 68
1, 259680, Note_on_c, 2, 69, 100
1, 259680, Note_on_c, 2, 78, 100
1, 259680, Note_on_c, 3, 64, 100
1, 259680, Note_on_c, 3, 69, 100
1, 259680, Note_on_c, 4, 80, 100
1, 259680, Note_on_c, 6, 64, 68
1, 259680, Note_on_c, 6, 69, 63
1, 259680, Note_on_c, 6, 76, 72
1, 259680, Note_on_c, 8, 40, 100
1, 259680, Note_on_c, 8, 45, 100
1, 259680, Note_on_c, 13, 59, 100
1, 259680, Note_on_c, 13, 61, 100
1, 259716, Note_off_c, 1, 66, 0
1, 259730, Note_off_c, 10, 69, 0
1, 259758, Note_off_c, 10, 64, 0
1, 259774, Note_off_c, 10, 76, 0
1, 259890, Note_off_c, 6, 64, 0
1, 259924, Note_off_c, 6, 76, 0
1, 259942, Note_off_c, 6, 69, 0
1, 259972, Note_off_c, 8, 40, 0
1, 259972, Note_off_c, 8, 45, 0
1, 259972, Note_off_c, 13, 59, 0
1, 259972, Note_off_c, 13, 61, 0
1, 260152, Note_off_c, 0, 61, 64
1, 260152, Note_off_c, 0, 68, 64
1, 260152, Note_off_c, 2, 69, 64
1, 260152, Note_off_c, 2, 78, 64
1, 260152, Note_off_c, 3, 64, 64
1, 260152, Note_off_c, 3, 69, 64
1, 260152, Note_off_c, 4, 80, 0
1, 260160, Note_on_c, 7, 64, 68
1, 260160, Note_on_c, 7, 69, 74
1, 260160, Note_on_c, 7, 76, 74
1, 260160, Note_on_c, 8, 59, 100
1, 260160, Note_on_c, 8, 61, 100
1, 260160, Note_on_c, 13, 40, 100
1, 260160, Note_on_c, 13, 45, 100
1, 260384, Note_off_c, 7, 69, 0
1, 260424, Note_off_c, 7, 64, 0
1, 260434, Note_off_c, 7, 76, 0
1, 260442, Note_on_c, 10, 64, 68
1, 260442, Note_on_c, 10, 69, 66
1, 260442, Note_on_c, 10, 76, 70
1, 260450, Note_off_c, 1, 61, 0
1, 260452, Note_off_c, 8, 59, 0
1, 260452, Note_off_c, 8, 61, 0
1, 260452, Note_off_c, 13, 40, 0
1, 260452, Note_off_c, 13, 45, 0
1, 260638, Note_off_c, 10, 69, 0
1, 260640, Note_on_c, 0, 64, 100
1, 260640, Note_on_c, 0, 69, 100
1, 260640, Note_on_c, 1, 69, 77
1, 260640, Note_on_c, 2, 71, 100
1, 260640, Note_on_c, 2, 80, 100
1, 260640, Note_on_c, 3, 71, 100
1, 260640, Note_on_c, 3, 76, 100
1, 260640, Note_on_c, 4, 81, 100
1, 260640, Note_on_c, 6, 64, 70
1, 260640, Note_on_c, 6, 69, 69
1, 260640, Note_on_c, 6, 76, 72
1, 260640, Note_on_c, 8, 40, 100
1, 260640, Note_on_c, 8, 45, 100
1, 260640, Note_on_c, 13, 59, 100
1, 260640, Note_on_c, 13, 61, 100
1, 260662, Note_off_c, 10, 64, 0
1, 260680, Note_off_c, 10, 76, 0
1, 260874, Note_off_c, 6, 69, 0
1, 260902, Note_off_c, 6, 64, 0
1, 260902, Note_off_c, 6, 76, 0
1, 260932, Note_off_c, 8, 40, 0
1, 260932, Note_off_c, 8, 45, 0
1, 260932, Note_off_c, 13, 59, 0
1, 260932, Note_off_c, 13, 61, 0
1, 261112, Note_off_c, 0, 64, 64
1, 261112, Note_off_c, 0, 69, 64
1, 261112, Note_off_c, 2, 71, 64
1, 261112, Note_off_c, 2, 80, 64
1, 261112, Note_off_c, 3, 71, 64
1, 261112, Note_off_c, 3, 76, 64
1, 261112, Note_off_c, 4, 81, 0
1, 261120, Note_on_c, 7, 64, 68
1, 261120, Note_on_c, 7, 69, 73
1, 261120, Note_on_c, 7, 76, 73
1, 261120, Note_on_c, 8, 59, 100
1, 261120, Note_on_c, 8, 61, 100
1, 261120, Note_on_c, 13, 40, 100
1, 261120, Note_on_c, 13, 45, 100
1, 261264, Note_off_c, 1, 69, 0
1, 261344, Note_off_c, 7, 64, 0
1, 261368, Note_off_c, 7, 69, 0
1, 261368, Note_off_c, 7, 76, 0
1, 261402, Note_on_c, 10, 64, 68
1, 261402, Note_on_c, 10, 69, 63
1, 261402, Note_on_c, 10, 76, 72
1, 261412, Note_off_c, 8, 59, 0
1, 261412, Note_off_c, 8, 61, 0
1, 261412, Note_off_c, 13, 40, 0
1, 261412, Note_off_c, 13, 45, 0
1, 261600, Note_on_c, 0, 66, 100
1, 261600, Note_on_c, 0, 71, 100
1, 261600, Note_on_c, 1, 64, 70
1, 261600, Note_on_c, 2, 73, 100
1, 261600, Note_on_c, 2, 81, 100
1, 261600, Note_on_c, 3, 73, 100
1, 261600, Note_on_c, 3, 76, 100
1, 261600, Note_on_c, 4, 83, 100
1, 261600, Note_on_c, 6, 64, 68
1, 261600, Note_on_c, 6, 69, 70
1, 261600, Note_on_c, 6, 76, 70
1, 261600, Note_on_c, 8, 40, 100
1, 261600, Note_on_c, 8, 45, 100
1, 261600, Note_on_c, 13, 59, 100
1, 261600, Note_on_c, 13, 61, 100
1, 261612, Note_off_c, 10, 64, 0
1, 261646, Note_off_c, 10, 76, 0
1, 261664, Note_off_c, 10, 69, 0
1, 261808, Note_off_c, 6, 64, 0
1, 261836, Note_off_c, 6, 69, 0
1, 261840, Note_off_c, 6, 76, 0
1, 261892, Note_off_c, 8, 40, 0
1, 261892, Note_off_c, 8, 45, 0
1, 261892, Note_off_c, 13, 59, 0
1, 261892, Note_off_c, 13, 61, 0
1, 262072, Note_off_c, 0, 66, 64
1, 262072, Note_off_c, 0, 71, 64
1, 262072, Note_off_c, 2, 73, 64
1, 262072, Note_off_c, 2, 81, 64
1, 262072, Note_off_c, 3, 73, 64
1, 262072, Note_off_c, 3, 76, 64
1, 262072, Note_off_c, 4, 83, 0
1, 262072, Note_off_c, 5, 52, 0
1, 262072, Note_off_c, 5, 57, 0
1, 262080, Note_on_c, 0, 61, 100
1, 262080, Note_on_c, 0, 68, 100
1, 262080, Note_on_c, 1, 66, 77
1, 262080, Note_on_c, 2, 69, 100
1, 262080, Note_on_c, 2, 78, 100
1, 262080, Note_on_c, 3, 64, 100
1, 262080, Note_on_c, 3, 69, 100
1, 262080, Note_on_c, 4, 80, 100
1, 262080, Note_on_c, 5, 50, 100
1, 262080, Note_on_c, 5, 57, 100
1, 262080, Note_on_c, 7, 64, 66
1, 262080, Note_on_c, 7, 69, 74
1, 262080, Note_on_c, 7, 76, 73
1, 262080, Note_on_c, 8, 57, 100
1, 262080, Note_on_c, 8, 61, 100
1, 262080, Note_on_c, 13, 38, 100
1, 262080, Note_on_c, 13, 45, 100
1, 262232, Note_off_c, 1, 64, 0
1, 262314, Note_off_c, 7, 64, 0
1, 262334, Note_off_c, 7, 76, 0
1, 262362, Note_off_c, 7, 69, 0
1, 262362, Note_on_c, 10, 64, 70
1, 262362, Note_on_c, 10, 69, 69
1, 262362, Note_on_c, 10, 76, 72
1, 262372, Note_off_c, 8, 57, 0
1, 262372, Note_off_c, 8, 61, 0
1, 262372, Note_off_c, 13, 38, 0
1, 262372, Note_off_c, 13, 45, 0
1, 262552, Note_off_c, 0, 61, 64
1, 262552, Note_off_c, 0, 68, 64
1, 262552, Note_off_c, 2, 69, 64
1, 262552, Note_off_c, 2, 78, 64
1, 262552, Note_off_c, 3, 64, 64
1, 262552, Note_off_c, 3, 69, 64
1, 262552, Note_off_c, 4, 80, 0
1, 262560, Note_on_c, 6, 64, 67
1, 262560, Note_on_c, 6, 69, 73
1, 262560, Note_on_c, 6, 76, 74
1, 262560, Note_on_c, 8, 38, 100
1, 262560, Note_on_c, 8, 45, 100
1, 262560, Note_on_c, 13, 57, 100
1, 262560, Note_on_c, 13, 61, 100
1, 262596, Note_off_c, 10, 69, 0
1, 262624, Note_off_c, 10, 64, 0
1, 262624, Note_off_c, 10, 76, 0
1, 262724, Note_off_c, 1, 66, 0
1, 262776, Note_off_c, 6, 64, 0
1, 262796, Note_off_c, 6, 76, 0
1, 262806, Note_off_c, 6, 69, 0
1, 262852, Note_off_c, 8, 38, 0
1, 262852, Note_off_c, 8, 45, 0
1, 262852, Note_off_c, 13, 57, 0
1, 262852, Note_off_c, 13, 61, 0
1, 263040, Note_on_c, 0, 61, 100
1, 263040, Note_on_c, 0, 68, 100
1, 263040, Note_on_c, 1, 59, 65
1, 263040, Note_on_c, 2, 71, 100
1, 263040, Note_on_c, 2, 80, 100
1, 263040, Note_on_c, 3, 71, 100
1, 263040, Note_on_c, 3, 76, 100
1, 263040, Note_on_c, 4, 80, 100
1, 263040, Note_on_c, 7, 64, 66
1, 263040, Note_on_c, 7, 69, 77
1, 263040, Note_on_c, 7, 76, 70
1, 263040, Note_on_c, 8, 57, 100
1, 263040, Note_on_c, 8, 61, 100
1, 263040, Note_on_c, 13, 38, 100
1, 263040, Note_on_c, 13, 45, 100
1, 263268, Note_off_c, 7, 64, 0
1, 263322, Note_on_c, 10, 64, 68
1, 263322, Note_on_c, 10, 69, 70
1, 263322, Note_on_c, 10, 76, 70
1, 263326, Note_off_c, 7, 69, 0
1, 263332, Note_off_c, 8, 57, 0
1, 263332, Note_off_c, 8, 61, 0
1, 263332, Note_off_c, 13, 38, 0
1, 263332, Note_off_c, 13, 45, 0
1, 263350, Note_off_c, 7, 76, 0
1, 263512, Note_off_c, 0, 61, 64
1, 263512, Note_off_c, 0, 68, 64
1, 263512, Note_off_c, 2, 71, 64
1, 263512, Note_off_c, 2, 80, 64
1, 263512, Note_off_c, 3, 71, 64
1, 263512, Note_off_c, 3, 76, 64
1, 263512, Note_off_c, 4, 80, 0
1, 263520, Note_on_c, 0, 64, 100
1, 263520, Note_on_c, 0, 69, 100
1, 263520, Note_on_c, 1, 69, 74
1, 263520, Note_on_c, 2, 69, 100
1, 263520, Note_on_c, 2, 78, 100
1, 263520, Note_on_c, 3, 66, 100
1, 263520, Note_on_c, 3, 69, 100
1, 263520, Note_on_c, 4, 81, 100
1, 263520, Note_on_c, 6, 64, 68
1, 263520, Note_on_c, 6, 69, 74
1, 263520, Note_on_c, 6, 76, 75
1, 263520, Note_on_c, 8, 38, 100
1, 263520, Note_on_c, 8, 45, 100
1, 263520, Note_on_c, 13, 57, 100
1, 263520, Note_on_c, 13, 61, 100
1, 263530, Note_off_c, 10, 64, 0
1, 263558, Note_off_c, 10, 69, 0
1, 263562, Note_off_c, 10, 76, 0
1, 263614, Note_off_c, 1, 59, 0
1, 263792, Note_off_c, 6, 69, 0
1, 263796, Note_off_c, 6, 64, 0
1, 263810, Note_off_c, 6, 76, 0
1, 263812, Note_off_c, 8, 38, 0
1, 263812, Note_off_c, 8, 45, 0
1, 263812, Note_off_c, 13, 57, 0
1, 263812, Note_off_c, 13, 61, 0
1, 263992, Note_off_c, 0, 64, 64
1, 263992, Note_off_c, 0, 69, 64
1, 263992, Note_off_c, 2, 69, 64
1, 263992, Note_off_c, 2, 78, 64
1, 263992, Note_off_c, 3, 66, 64
1, 263992, Note_off_c, 3, 69, 64
1, 263992, Note_off_c, 4, 81, 0
1, 263992, Note_off_c, 5, 50, 0
1, 263992, Note_off_c, 5, 57, 0
1, 264000, Note_on_c, 0, 68, 100
1, 264000, Note_on_c, 0, 73, 100
1, 264000, Note_on_c, 1, 64, 68
1, 264000, Note_on_c, 2, 73, 100
1, 264000, Note_on_c, 2, 81, 100
1, 264000, Note_on_c, 3, 73, 100
1, 264000, Note_on_c, 3, 76, 100
1, 264000, Note_on_c, 4, 85, 100
1, 264000, Note_on_c, 5, 52, 100
1, 264000, Note_on_c, 5, 57, 100
1, 264000, Note_on_c, 7, 64, 65
1, 264000, Note_on_c, 7, 69, 72
1, 264000, Note_on_c, 7, 76, 72
1, 264000, Note_on_c, 8, 59, 100
1, 264000, Note_on_c, 8, 61, 100
1, 264000, Note_on_c, 13, 40, 100
1, 264000, Note_on_c, 13, 45, 100
1, 264212, Note_off_c, 1, 69, 0
1, 264276, Note_off_c, 7, 64, 0
1, 264282, Note_on_c, 10, 64, 67
1, 264282, Note_on_c, 10, 69, 73
1, 264282, Note_on_c, 10, 76, 74
1, 264290, Note_off_c, 7, 69, 0
1, 264292, Note_off_c, 7, 76, 0
1, 264292, Note_off_c, 8, 59, 0
1, 264292, Note_off_c, 8, 61, 0
1, 264292, Note_off_c, 13, 40, 0
1, 264292, Note_off_c, 13, 45, 0
1, 264472, Note_off_c, 0, 68, 64
1, 264472, Note_off_c, 0, 73, 64
1, 264472, Note_off_c, 2, 73, 64
1, 264472, Note_off_c, 2, 81, 64
1, 264472, Note_off_c, 3, 73, 64
1, 264472, Note_off_c, 3, 76, 64
1, 264472, Note_off_c, 4, 85, 0
1, 264480, Note_on_c, 6, 64, 73
1, 264480, Note_on_c, 6, 69, 80
1, 264480, Note_on_c, 6, 76, 77
1, 264480, Note_on_c, 8, 40, 100
1, 264480, Note_on_c, 8, 45, 100
1, 264480, Note_on_c, 13, 59, 100
1, 264480, Note_on_c, 13, 61, 100
1, 264498, Note_off_c, 10, 64, 0
1, 264518, Note_off_c, 10, 76, 0
1, 264528, Note_off_c, 10, 69, 0
1, 264614, Note_off_c, 1, 64, 0
1, 264742, Note_off_c, 6, 64, 0
1, 264758, Note_off_c, 6, 69, 0
1, 264768, Note_off_c, 6, 76, 0
1, 264772, Note_off_c, 8, 40, 0
1, 264772, Note_off_c, 8, 45, 0
1, 264772, Note_off_c, 13, 59, 0
1, 264772, Note_off_c, 13, 61, 0
1, 264960, Note_on_c, 1, 66, 77
1, 264960, Note_on_c, 3, 71, 100
1, 264960, Note_on_c, 3, 76, 100
1, 264960, Note_on_c, 7, 64, 67
1, 264960, Note_on_c, 7, 69, 75
1, 264960, Note_on_c, 7, 76, 70
1, 264960, Note_on_c, 8, 59, 100
1, 264960, Note_on_c, 8, 61, 100
1, 264960, Note_on_c, 13, 40, 100
1, 264960, Note_on_c, 13, 45, 100
1, 265190, Note_off_c, 7, 69, 0
1, 265208, Note_off_c, 7, 64, 0
1, 265218, Note_off_c, 7, 76, 0
1, 265242, Note_on_c, 10, 64, 68
1, 265242, Note_on_c, 10, 69, 74
1, 265242, Note_on_c, 10, 76, 75
1, 265252, Note_off_c, 8, 59, 0
1, 265252, Note_off_c, 8, 61, 0
1, 265252, Note_off_c, 13, 40, 0
1, 265252, Note_off_c, 13, 45, 0
1, 265432, Note_off_c, 3, 71, 64
1, 265432, Note_off_c, 3, 76, 64
1, 265440, Note_on_c, 1, 61, 70
1, 265440, Note_on_c, 3, 64, 100
1, 265440, Note_on_c, 3, 69, 100
1, 265440, Note_on_c, 6, 64, 68
1, 265440, Note_on_c, 6, 69, 70
1, 265440, Note_on_c, 6, 76, 74
1, 265440, Note_on_c, 8, 40, 100
1, 265440, Note_on_c, 8, 45, 100
1, 265440, Note_on_c, 13, 59, 100
1, 265440, Note_on_c, 13, 61, 100
1, 265514, Note_off_c, 10, 69, 0
1, 265518, Note_off_c, 10, 64, 0
1, 265532, Note_off_c, 10, 76, 0
1, 265602, Note_off_c, 1, 66, 0
1, 265726, Note_off_c, 6, 64, 0
1, 265732, Note_off_c, 8, 40, 0
1, 265732, Note_off_c, 8, 45, 0
1, 265732, Note_off_c, 13, 59, 0
1, 265732, Note_off_c, 13, 61, 0
1, 265738, Note_off_c, 6, 69, 0
1, 265738, Note_off_c, 6, 76, 0
1, 265912, Note_off_c, 3, 64, 64
1, 265912, Note_off_c, 3, 69, 64
1, 265920, Note_on_c, 7, 64, 66
1, 265920, Note_on_c, 7, 69, 68
1, 265920, Note_on_c, 7, 76, 72
1, 265920, Note_on_c, 8, 59, 100
1, 265920, Note_on_c, 8, 61, 100
1, 265920, Note_on_c, 13, 40, 100
1, 265920, Note_on_c, 13, 45, 100
1, 266068, Note_off_c, 1, 61, 0
1, 266180, Note_off_c, 7, 69, 0
1, 266190, Note_off_c, 7, 64, 0
1, 266194, Note_off_c, 7, 76, 0
1, 266202, Note_on_c, 10, 64, 73
1, 266202, Note_on_c, 10, 69, 80
1, 266202, Note_on_c, 10, 76, 77
1, 266212, Note_off_c, 8, 59, 0
1, 266212, Note_off_c, 8, 61, 0
1, 266212, Note_off_c, 13, 40, 0
1, 266212, Note_off_c, 13, 45, 0
1, 266400, Note_on_c, 1, 69, 77
1, 266400, Note_on_c, 3, 71, 100
1, 266400, Note_on_c, 3, 76, 100
1, 266400, Note_on_c, 6, 64, 70
1, 266400, Note_on_c, 6, 69, 74
1, 266400, Note_on_c, 6, 76, 74
1, 266400, Note_on_c, 8, 40, 100
1, 266400, Note_on_c, 8, 45, 100
1, 266400, Note_on_c, 13, 59, 100
1, 266400, Note_on_c, 13, 61, 100
1, 266464, Note_off_c, 10, 64, 0
1, 266480, Note_off_c, 10, 69, 0
1, 266490, Note_off_c, 10, 76, 0
1, 266604, Note_off_c, 6, 64, 0
1, 266634, Note_off_c, 6, 76, 0
1, 266672, Note_off_c, 6, 69, 0
1, 266692, Note_off_c, 8, 40, 0
1, 266692, Note_off_c, 8, 45, 0
1, 266692, Note_off_c, 13, 59, 0
1, 266692, Note_off_c, 13, 61, 0
1, 266872, Note_off_c, 3, 71, 64
1, 266872, Note_off_c, 3, 76, 64
1, 266880, Note_on_c, 7, 64, 62
1, 266880, Note_on_c, 7, 69, 60
1, 266880, Note_on_c, 7, 76, 70
1, 266880, Note_on_c, 8, 59, 100
1, 266880, Note_on_c, 8, 61, 100
1, 266880, Note_on_c, 13, 40, 100
1, 266880, Note_on_c, 13, 45, 100
1, 267048, Note_off_c, 1, 69, 0
1, 267140, Note_off_c, 7, 69, 0
1, 267158, Note_off_c, 7, 64, 0
1, 267162, Note_on_c, 10, 64, 68
1, 267162, Note_on_c, 10, 69, 70
1, 267162, Note_on_c, 10, 76, 74
1, 267172, Note_off_c, 8, 59, 0
1, 267172, Note_off_c, 8, 61, 0
1, 267172, Note_off_c, 13, 40, 0
1, 267172, Note_off_c, 13, 45, 0
1, 267218, Note_off_c, 7, 76, 0
1, 267360, Note_on_c, 1, 64, 68
1, 267360, Note_on_c, 3, 73, 100
1, 267360, Note_on_c, 3, 76, 100
1, 267360, Note_on_c, 6, 64, 68
1, 267360, Note_on_c, 6, 69, 68
1, 267360, Note_on_c, 6, 76, 72
1, 267360, Note_on_c, 8, 40, 100
1, 267360, Note_on_c, 8, 45, 100
1, 267360, Note_on_c, 13, 59, 100
1, 267360, Note_on_c, 13, 61, 100
1, 267448, Note_off_c, 10, 64, 0
1, 267460, Note_off_c, 10, 69, 0
1, 267460, Note_off_c, 10, 76, 0
1, 267566, Note_off_c, 6, 69, 0
1, 267574, Note_off_c, 6, 64, 0
1, 267584, Note_off_c, 6, 76, 0
1, 267652, Note_off_c, 8, 40, 0
1, 267652, Note_off_c, 8, 45, 0
1, 267652, Note_off_c, 13, 59, 0
1, 267652, Note_off_c, 13, 61, 0
1, 267804, Note_off_c, 1, 64, 0
1, 267832, Note_off_c, 3, 73, 64
1, 267832, Note_off_c, 3, 76, 64
1, 267832, Note_off_c, 5, 52, 0
1, 267832, Note_off_c, 5, 57, 0
1, 267840, Note_on_c, 0, 59, 100
1, 267840, Note_on_c, 0, 66, 100
1, 267840, Note_on_c, 1, 66, 78
1, 267840, Note_on_c, 2, 69, 100
1, 267840, Note_on_c, 2, 78, 100
1, 267840, Note_on_c, 3, 64, 100
1, 267840, Note_on_c, 3, 69, 100
1, 267840, Note_on_c, 4, 78, 100
1, 267840, Note_on_c, 5, 50, 100
1, 267840, Note_on_c, 5, 57, 100
1, 267840, Note_on_c, 7, 64, 56
1, 267840, Note_on_c, 7, 69, 69
1, 267840, Note_on_c, 7, 76, 73
1, 267840, Note_on_c, 8, 57, 100
1, 267840, Note_on_c, 8, 61, 100
1, 267840, Note_on_c, 13, 38, 100
1, 267840, Note_on_c, 13, 45, 100
1, 268106, Note_off_c, 7, 64, 0
1, 268122, Note_on_c, 10, 64, 70
1, 268122, Note_on_c, 10, 69, 74
1, 268122, Note_on_c, 10, 76, 74
1, 268132, Note_off_c, 8, 57, 0
1, 268132, Note_off_c, 8, 61, 0
1, 268132, Note_off_c, 13, 38, 0
1, 268132, Note_off_c, 13, 45, 0
1, 268134, Note_off_c, 7, 69, 0
1, 268142, Note_off_c, 7, 76, 0
1, 268312, Note_off_c, 0, 59, 64
1, 268312, Note_off_c, 0, 66, 64
1, 268312, Note_off_c, 2, 69, 64
1, 268312, Note_off_c, 2, 78, 64
1, 268312, Note_off_c, 3, 64, 64
1, 268312, Note_off_c, 3, 69, 64
1, 268312, Note_off_c, 4, 78, 0
1, 268320, Note_on_c, 6, 64, 70
1, 268320, Note_on_c, 6, 69, 70
1, 268320, Note_on_c, 6, 76, 75
1, 268320, Note_on_c, 8, 38, 100
1, 268320, Note_on_c, 8, 45, 100
1, 268320, Note_on_c, 13, 57, 100
1, 268320, Note_on_c, 13, 61, 100
1, 268326, Note_off_c, 10, 64, 0
1, 268356, Note_off_c, 10, 76, 0
1, 268394, Note_off_c, 10, 69, 0
1, 268508, Note_off_c, 1, 66, 0
1, 268548, Note_off_c, 6, 69, 0
1, 268590, Note_off_c, 6, 64, 0
1, 268612, Note_off_c, 8, 38, 0
1, 268612, Note_off_c, 8, 45, 0
1, 268612, Note_off_c, 13, 57, 0
1, 268612, Note_off_c, 13, 61, 0
1, 268628, Note_off_c, 6, 76, 0
1, 268800, Note_on_c, 0, 61, 100
1, 268800, Note_on_c, 0, 68, 100
1, 268800, Note_on_c, 1, 59, 74
1, 268800, Note_on_c, 2, 71, 100
1, 268800, Note_on_c, 2, 80, 100
1, 268800, Note_on_c, 3, 71, 100
1, 268800, Note_on_c, 3, 76, 100
1, 268800, Note_on_c, 4, 80, 100
1, 268800, Note_on_c, 7, 64, 66
1, 268800, Note_on_c, 7, 69, 70
1, 268800, Note_on_c, 7, 76, 75
1, 268800, Note_on_c, 8, 57, 100
1, 268800, Note_on_c, 8, 61, 100
1, 268800, Note_on_c, 13, 38, 100
1, 268800, Note_on_c, 13, 45, 100
1, 269050, Note_off_c, 7, 69, 0
1, 269064, Note_off_c, 7, 64, 0
1, 269082, Note_on_c, 10, 64, 68
1, 269082, Note_on_c, 10, 69, 68
1, 269082, Note_on_c, 10, 76, 72
1, 269090, Note_off_c, 7, 76, 0
1, 269092, Note_off_c, 8, 57, 0
1, 269092, Note_off_c, 8, 61, 0
1, 269092, Note_off_c, 13, 38, 0
1, 269092, Note_off_c, 13, 45, 0
1, 269272, Note_off_c, 0, 61, 64
1, 269272, Note_off_c, 0, 68, 64
1, 269272, Note_off_c, 2, 71, 64
1, 269272, Note_off_c, 2, 80, 64
1, 269272, Note_off_c, 3, 71, 64
1, 269272, Note_off_c, 3, 76, 64
1, 269272, Note_off_c, 4, 80, 0
1, 269280, Note_on_c, 0, 64, 100
1, 269280, Note_on_c, 0, 69, 100
1, 269280, Note_on_c, 1, 69, 75
1, 269280, Note_on_c, 2, 69, 100
1, 269280, Note_on_c, 2, 78, 100
1, 269280, Note_on_c, 3, 66, 100
1, 269280, Note_on_c, 3, 69, 100
1, 269280, Note_on_c, 4, 81, 100
1, 269280, Note_on_c, 6, 64, 69
1, 269280, Note_on_c, 6, 69, 69
1, 269280, Note_on_c, 6, 76, 73
1, 269280, Note_on_c, 8, 38, 100
1, 269280, Note_on_c, 8, 45, 100
1, 269280, Note_on_c, 13, 57, 100
1, 269280, Note_on_c, 13, 61, 100
1, 269288, Note_off_c, 1, 59, 0
1, 269288, Note_off_c, 10, 69, 0
1, 269296, Note_off_c, 10, 64, 0
1, 269306, Note_off_c, 10, 76, 0
1, 269546, Note_off_c, 6, 64, 0
1, 269572, Note_off_c, 8, 38, 0
1, 269572, Note_off_c, 8, 45, 0
1, 269572, Note_off_c, 13, 57, 0
1, 269572, Note_off_c, 13, 61, 0
1, 269584, Note_off_c, 6, 69, 0
1, 269584, Note_off_c, 6, 76, 0
1, 269752, Note_off_c, 0, 64, 64
1, 269752, Note_off_c, 0, 69, 64
1, 269752, Note_off_c, 2, 69, 64
1, 269752, Note_off_c, 2, 78, 64
1, 269752, Note_off_c, 3, 66, 64
1, 269752, Note_off_c, 3, 69, 64
1, 269752, Note_off_c, 4, 81, 0
1, 269760, Note_on_c, 0, 68, 100
1, 269760, Note_on_c, 0, 73, 100
1, 269760, Note_on_c, 1, 64, 73
1, 269760, Note_on_c, 2, 73, 100
1, 269760, Note_on_c, 2, 81, 100
1, 269760, Note_on_c, 3, 73, 100
1, 269760, Note_on_c, 3, 76, 100
1, 269760, Note_on_c, 4, 85, 100
1, 269760, Note_on_c, 7, 64, 66
1, 269760, Note_on_c, 7, 69, 70
1, 269760, Note_on_c, 7, 76, 75
1, 269760, Note_on_c, 8, 57, 100
1, 269760, Note_on_c, 8, 61, 100
1, 269760, Note_on_c, 13, 38, 100
1, 269760, Note_on_c, 13, 45, 100
1, 269886, Note_off_c, 1, 69, 0
1, 270010, Note_off_c, 7, 69, 0
1, 270024, Note_off_c, 7, 64, 0
1, 270042, Note_on_c, 10, 64, 70
1, 270042, Note_on_c, 10, 69, 70
1, 270042, Note_on_c, 10, 76, 75
1, 270050, Note_off_c, 7, 76, 0
1, 270052, Note_off_c, 8, 57, 0
1, 270052, Note_off_c, 8, 61, 0
1, 270052, Note_off_c, 13, 38, 0
1, 270052, Note_off_c, 13, 45, 0
1, 270232, Note_off_c, 0, 68, 64
1, 270232, Note_off_c, 0, 73, 64
1, 270232, Note_off_c, 2, 73, 64
1, 270232, Note_off_c, 2, 81, 64
1, 270232, Note_off_c, 3, 73, 64
1, 270232, Note_off_c, 3, 76, 64
1, 270232, Note_off_c, 4, 85, 0
1, 270240, Note_on_c, 6, 64, 67
1, 270240, Note_on_c, 6, 69, 63
1, 270240, Note_on_c, 6, 76, 74
1, 270240, Note_on_c, 8, 38, 100
1, 270240, Note_on_c, 8, 45, 100
1, 270240, Note_on_c, 13, 57, 100
1, 270240, Note_on_c, 13, 61, 100
1, 270270, Note_off_c, 10, 69, 0
1, 270312, Note_off_c, 10, 64, 0
1, 270350, Note_off_c, 10, 76, 0
1, 270444, Note_off_c, 6, 69, 0
1, 270466, Note_off_c, 1, 64, 0
1, 270506, Note_off_c, 6, 64, 0
1, 270506, Note_off_c, 6, 76, 0
1, 270532, Note_off_c, 8, 38, 0
1, 270532, Note_off_c, 8, 45, 0
1, 270532, Note_off_c, 13, 57, 0
1, 270532, Note_off_c, 13, 61, 0
1, 270720, Note_on_c, 0, 66, 100
1, 270720, Note_on_c, 0, 71, 100
1, 270720, Note_on_c, 1, 66, 68
1, 270720, Note_on_c, 2, 71, 100
1, 270720, Note_on_c, 2, 80, 100
1, 270720, Note_on_c, 3, 71, 100
1, 270720, Note_on_c, 3, 76, 100
1, 270720, Note_on_c, 4, 83, 100
1, 270720, Note_on_c, 7, 64, 72
1, 270720, Note_on_c, 7, 69, 80
1, 270720, Note_on_c, 7, 76, 77
1, 270720, Note_on_c, 8, 57, 100
1, 270720, Note_on_c, 8, 61, 100
1, 270720, Note_on_c, 13, 38, 100
1, 270720, Note_on_c, 13, 45, 100
1, 270960, Note_off_c, 7, 76, 0
1, 270970, Note_off_c, 7, 64, 0
1, 270970, Note_off_c, 7, 69, 0
1, 271002, Note_on_c, 10, 64, 69
1, 271002, Note_on_c, 10, 69, 69
1, 271002, Note_on_c, 10, 76, 73
1, 271012, Note_off_c, 8, 57, 0
1, 271012, Note_off_c, 8, 61, 0
1, 271012, Note_off_c, 13, 38, 0
1, 271012, Note_off_c, 13, 45, 0
1, 271192, Note_off_c, 0, 66, 64
1, 271192, Note_off_c, 0, 71, 64
1, 271192, Note_off_c, 2, 71, 64
1, 271192, Note_off_c, 2, 80, 64
1, 271192, Note_off_c, 3, 71, 64
1, 271192, Note_off_c, 3, 76, 64
1, 271192, Note_off_c, 4, 83, 0
1, 271200, Note_on_c, 0, 61, 100
1, 271200, Note_on_c, 0, 68, 100
1, 271200, Note_on_c, 1, 61, 68
1, 271200, Note_on_c, 2, 69, 100
1, 271200, Note_on_c, 2, 78, 100
1, 271200, Note_on_c, 3, 64, 100
1, 271200, Note_on_c, 3, 69, 100
1, 271200, Note_on_c, 4, 80, 100
1, 271200, Note_on_c, 6, 64, 66
1, 271200, Note_on_c, 6, 69, 63
1, 271200, Note_on_c, 6, 76, 74
1, 271200, Note_on_c, 8, 38, 100
1, 271200, Note_on_c, 8, 45, 100
1, 271200, Note_on_c, 13, 57, 100
1, 271200, Note_on_c, 13, 61, 100
1, 271236, Note_off_c, 1, 66, 0
1, 271268, Note_off_c, 10, 64, 0
1, 271306, Note_off_c, 10, 69, 0
1, 271306, Note_off_c, 10, 76, 0
1, 271430, Note_off_c, 6, 69, 0
1, 271436, Note_off_c, 6, 64, 0
1, 271474, Note_off_c, 6, 76, 0
1, 271492, Note_off_c, 8, 38, 0
1, 271492, Note_off_c, 8, 45, 0
1, 271492, Note_off_c, 13, 57, 0
1, 271492, Note_off_c, 13, 61, 0
1, 271672, Note_off_c, 0, 61, 64
1, 271672, Note_off_c, 0, 68, 64
1, 271672, Note_off_c, 2, 69, 64
1, 271672, Note_off_c, 2, 78, 64
1, 271672, Note_off_c, 3, 64, 64
1, 271672, Note_off_c, 3, 69, 64
1, 271672, Note_off_c, 4, 80, 0
1, 271680, Note_on_c, 7, 64, 70
1, 271680, Note_on_c, 7, 69, 77
1, 271680, Note_on_c, 7, 76, 77
1, 271680, Note_on_c, 8, 57, 100
1, 271680, Note_on_c, 8, 61, 100
1, 271680, Note_on_c, 13, 38, 100
1, 271680, Note_on_c, 13, 45, 100
1, 271934, Note_off_c, 7, 64, 0
1, 271962, Note_off_c, 7, 69, 0
1, 271962, Note_on_c, 10, 64, 67
1, 271962, Note_on_c, 10, 69, 63
1, 271962, Note_on_c, 10, 76, 74
1, 271970, Note_off_c, 1, 61, 0
1, 271970, Note_off_c, 7, 76, 0
1, 271972, Note_off_c, 8, 57, 0
1, 271972, Note_off_c, 8, 61, 0
1, 271972, Note_off_c, 13, 38, 0
1, 271972, Note_off_c, 13, 45, 0
1, 272160, Note_on_c, 0, 64, 100
1, 272160, Note_on_c, 0, 69, 100
1, 272160, Note_on_c, 1, 69, 77
1, 272160, Note_on_c, 2, 71, 100
1, 272160, Note_on_c, 2, 80, 100
1, 272160, Note_on_c, 3, 71, 100
1, 272160, Note_on_c, 3, 76, 100
1, 272160, Note_on_c, 4, 81, 100
1, 272160, Note_on_c, 6, 64, 68
1, 272160, Note_on_c, 6, 69, 74
1, 272160, Note_on_c, 6, 76, 74
1, 272160, Note_on_c, 8, 38, 100
1, 272160, Note_on_c, 8, 45, 100
1, 272160, Note_on_c, 13, 57, 100
1, 272160, Note_on_c, 13, 61, 100
1, 272166, Note_off_c, 10, 69, 0
1, 272228, Note_off_c, 10, 64, 0
1, 272228, Note_off_c, 10, 76, 0
1, 272420, Note_off_c, 6, 69, 0
1, 272450, Note_off_c, 6, 76, 0
1, 272452, Note_off_c, 8, 38, 0
1, 272452, Note_off_c, 8, 45, 0
1, 272452, Note_off_c, 13, 57, 0
1, 272452, Note_off_c, 13, 61, 0
1, 272454, Note_off_c, 6, 64, 0
1, 272632, Note_off_c, 0, 64, 64
1, 272632, Note_off_c, 0, 69, 64
1, 272632, Note_off_c, 2, 71, 64
1, 272632, Note_off_c, 2, 80, 64
1, 272632, Note_off_c, 3, 71, 64
1, 272632, Note_off_c, 3, 76, 64
1, 272632, Note_off_c, 4, 81, 0
1, 272640, Note_on_c, 7, 64, 70
1, 272640, Note_on_c, 7, 69, 73
1, 272640, Note_on_c, 7, 76, 74
1, 272640, Note_on_c, 8, 57, 100
1, 272640, Note_on_c, 8, 61, 100
1, 272640, Note_on_c, 13, 38, 100
1, 272640, Note_on_c, 13, 45, 100
1, 272784, Note_off_c, 1, 69, 0
1, 272880, Note_off_c, 7, 64, 0
1, 272886, Note_off_c, 7, 69, 0
1, 272900, Note_off_c, 7, 76, 0
1, 272922, Note_on_c, 10, 64, 66
1, 272922, Note_on_c, 10, 69, 63
1, 272922, Note_on_c, 10, 76, 74
1, 272932, Note_off_c, 8, 57, 0
1, 272932, Note_off_c, 8, 61, 0
1, 272932, Note_off_c, 13, 38, 0
1, 272932, Note_off_c, 13, 45, 0
1, 273120, Note_on_c, 0, 66, 100
1, 273120, Note_on_c, 0, 71, 100
1, 273120, Note_on_c, 1, 64, 70
1, 273120, Note_on_c, 2, 73, 100
1, 273120, Note_on_c, 2, 81, 100
1, 273120, Note_on_c, 3, 73, 100
1, 273120, Note_on_c, 3, 76, 100
1, 273120, Note_on_c, 4, 83, 100
1, 273120, Note_on_c, 6, 64, 73
1, 273120, Note_on_c, 6, 69, 82
1, 273120, Note_on_c, 6, 76, 77
1, 273120, Note_on_c, 8, 38, 100
1, 273120, Note_on_c, 8, 45, 100
1, 273120, Note_on_c, 13, 57, 100
1, 273120, Note_on_c, 13, 61, 100
1, 273152, Note_off_c, 10, 69, 0
1, 273158, Note_off_c, 10, 64, 0
1, 273196, Note_off_c, 10, 76, 0
1, 273398, Note_off_c, 6, 69, 0
1, 273410, Note_off_c, 6, 64, 0
1, 273412, Note_off_c, 8, 38, 0
1, 273412, Note_off_c, 8, 45, 0
1, 273412, Note_off_c, 13, 57, 0
1, 273412, Note_off_c, 13, 61, 0
1, 273418, Note_off_c, 6, 76, 0
1, 273592, Note_off_c, 0, 66, 64
1, 273592, Note_off_c, 0, 71, 64
1, 273592, Note_off_c, 2, 73, 64
1, 273592, Note_off_c, 2, 81, 64
1, 273592, Note_off_c, 3, 73, 64
1, 273592, Note_off_c, 3, 76, 64
1, 273592, Note_off_c, 4, 83, 0
1, 273592, Note_off_c, 5, 50, 0
1, 273592, Note_off_c, 5, 57, 0
1, 273600, Note_on_c, 0, 61, 100
1, 273600, Note_on_c, 0, 68, 100
1, 273600, Note_on_c, 1, 66, 77
1, 273600, Note_on_c, 2, 69, 100
1, 273600, Note_on_c, 2, 78, 100
1, 273600, Note_on_c, 3, 64, 100
1, 273600, Note_on_c, 3, 69, 100
1, 273600, Note_on_c, 4, 80, 100
1, 273600, Note_on_c, 5, 52, 100
1, 273600, Note_on_c, 5, 57, 100
1, 273600, Note_on_c, 7, 64, 72
1, 273600, Note_on_c, 7, 69, 77
1, 273600, Note_on_c, 7, 76, 75
1, 273600, Note_on_c, 8, 59, 100
1, 273600, Note_on_c, 8, 61, 100
1, 273600, Note_on_c, 13, 40, 100
1, 273600, Note_on_c, 13, 45, 100
1, 273752, Note_off_c, 1, 64, 0
1, 273808, Note_off_c, 7, 69, 0
1, 273822, Note_off_c, 7, 64, 0
1, 273842, Note_off_c, 7, 76, 0
1, 273882, Note_on_c, 10, 64, 68
1, 273882, Note_on_c, 10, 69, 74
1, 273882, Note_on_c, 10, 76, 74
1, 273892, Note_off_c, 8, 59, 0
1, 273892, Note_off_c, 8, 61, 0
1, 273892, Note_off_c, 13, 40, 0
1, 273892, Note_off_c, 13, 45, 0
1, 274072, Note_off_c, 0, 61, 64
1, 274072, Note_off_c, 0, 68, 64
1, 274072, Note_off_c, 2, 69, 64
1, 274072, Note_off_c, 2, 78, 64
1, 274072, Note_off_c, 3, 64, 64
1, 274072, Note_off_c, 3, 69, 64
1, 274072, Note_off_c, 4, 80, 0
1, 274080, Note_on_c, 6, 64, 72
1, 274080, Note_on_c, 6, 69, 75
1, 274080, Note_on_c, 6, 76, 73
1, 274080, Note_on_c, 8, 40, 100
1, 274080, Note_on_c, 8, 45, 100
1, 274080, Note_on_c, 13, 59, 100
1, 274080, Note_on_c, 13, 61, 100
1, 274142, Note_off_c, 10, 69, 0
1, 274172, Note_off_c, 10, 76, 0
1, 274176, Note_off_c, 10, 64, 0
1, 274244, Note_off_c, 1, 66, 0
1, 274368, Note_off_c, 6, 76, 0
1, 274370, Note_off_c, 6, 69, 0
1, 274372, Note_off_c, 8, 40, 0
1, 274372, Note_off_c, 8, 45, 0
1, 274372, Note_off_c, 13, 59, 0
1, 274372, Note_off_c, 13, 61, 0
1, 274378, Note_off_c, 6, 64, 0
1, 274560, Note_on_c, 0, 61, 100
1, 274560, Note_on_c, 0, 68, 100
1, 274560, Note_on_c, 1, 59, 65
1, 274560, Note_on_c, 2, 71, 100
1, 274560, Note_on_c, 2, 80, 100
1, 274560, Note_on_c, 3, 71, 100
1, 274560, Note_on_c, 3, 76, 100
1, 274560, Note_on_c, 4, 80, 100
1, 274560, Note_on_c, 7, 64, 70
1, 274560, Note_on_c, 7, 69, 78
1, 274560, Note_on_c, 7, 76, 77
1, 274560, Note_on_c, 8, 59, 100
1, 274560, Note_on_c, 8, 61, 100
1, 274560, Note_on_c, 13, 40, 100
1, 274560, Note_on_c, 13, 45, 100
1, 274802, Note_off_c, 7, 64, 0
1, 274824, Note_off_c, 7, 76, 0
1, 274842, Note_on_c, 10, 64, 73
1, 274842, Note_on_c, 10, 69, 82
1, 274842, Note_on_c, 10, 76, 77
1, 274848, Note_off_c, 7, 69, 0
1, 274852, Note_off_c, 8, 59, 0
1, 274852, Note_off_c, 8, 61, 0
1, 274852, Note_off_c, 13, 40, 0
1, 274852, Note_off_c, 13, 45, 0
1, 275032, Note_off_c, 0, 61, 64
1, 275032, Note_off_c, 0, 68, 64
1, 275032, Note_off_c, 2, 71, 64
1, 275032, Note_off_c, 2, 80, 64
1, 275032, Note_off_c, 3, 71, 64
1, 275032, Note_off_c, 3, 76, 64
1, 275032, Note_off_c, 4, 80, 0
1, 275040, Note_on_c, 0, 64, 100
1, 275040, Note_on_c, 0, 69, 100
1, 275040, Note_on_c, 1, 69, 74
1, 275040, Note_on_c, 2, 69, 100
1, 275040, Note_on_c, 2, 78, 100
1, 275040, Note_on_c, 3, 66, 100
1, 275040, Note_on_c, 3, 69, 100
1, 275040, Note_on_c, 4, 81, 100
1, 275040, Note_on_c, 6, 64, 69
1, 275040, Note_on_c, 6, 69, 70
1, 275040, Note_on_c, 6, 76, 72
1, 275040, Note_on_c, 8, 40, 100
1, 275040, Note_on_c, 8, 45, 100
1, 275040, Note_on_c, 13, 59, 100
1, 275040, Note_on_c, 13, 61, 100
1, 275120, Note_off_c, 10, 69, 0
1, 275132, Note_off_c, 10, 64, 0
1, 275134, Note_off_c, 1, 59, 0
1, 275140, Note_off_c, 10, 76, 0
1, 275304, Note_off_c, 6, 69, 0
1, 275328, Note_off_c, 6, 64, 0
1, 275332, Note_off_c, 8, 40, 0
1, 275332, Note_off_c, 8, 45, 0
1, 275332, Note_off_c, 13, 59, 0
1, 275332, Note_off_c, 13, 61, 0
1, 275344, Note_off_c, 6, 76, 0
1, 275512, Note_off_c, 0, 64, 64
1, 275512, Note_off_c, 0, 69, 64
1, 275512, Note_off_c, 2, 69, 64
1, 275512, Note_off_c, 2, 78, 64
1, 275512, Note_off_c, 3, 66, 64
1, 275512, Note_off_c, 3, 69, 64
1, 275512, Note_off_c, 4, 81, 0
1, 275520, Note_on_c, 0, 68, 100
1, 275520, Note_on_c, 0, 73, 100
1, 275520, Note_on_c, 1, 64, 68
1, 275520, Note_on_c, 2, 73, 100
1, 275520, Note_on_c, 2, 81, 100
1, 275520, Note_on_c, 3, 73, 100
1, 275520, Note_on_c, 3, 76, 100
1, 275520, Note_on_c, 4, 85, 100
1, 275520, Note_on_c, 7, 64, 70
1, 275520, Note_on_c, 7, 69, 72
1, 275520, Note_on_c, 7, 76, 77
1, 275520, Note_on_c, 8, 59, 100
1, 275520, Note_on_c, 8, 61, 100
1, 275520, Note_on_c, 13, 40, 100
1, 275520, Note_on_c, 13, 45, 100
1, 275732, Note_off_c, 1, 69, 0
1, 275774, Note_off_c, 7, 64, 0
1, 275786, Note_off_c, 7, 69, 0
1, 275802, Note_on_c, 10, 64, 72
1, 275802, Note_on_c, 10, 69, 75
1, 275802, Note_on_c, 10, 76, 73
1, 275812, Note_off_c, 8, 59, 0
1, 275812, Note_off_c, 8, 61, 0
1, 275812, Note_off_c, 13, 40, 0
1, 275812, Note_off_c, 13, 45, 0
1, 275842, Note_off_c, 7, 76, 0
1, 275992, Note_off_c, 0, 68, 64
1, 275992, Note_off_c, 0, 73, 64
1, 275992, Note_off_c, 2, 73, 64
1, 275992, Note_off_c, 2, 81, 64
1, 275992, Note_off_c, 3, 73, 64
1, 275992, Note_off_c, 3, 76, 64
1, 275992, Note_off_c, 4, 85, 0
1, 276000, Note_on_c, 6, 64, 68
1, 276000, Note_on_c, 6, 69, 77
1, 276000, Note_on_c, 6, 76, 73
1, 276000, Note_on_c, 8, 40, 100
1, 276000, Note_on_c, 8, 45, 100
1, 276000, Note_on_c, 13, 59, 100
1, 276000, Note_on_c, 13, 61, 100
1, 276090, Note_off_c, 10, 76, 0
1, 276092, Note_off_c, 10, 69, 0
1, 276100, Note_off_c, 10, 64, 0
1, 276134, Note_off_c, 1, 64, 0
1, 276266, Note_off_c, 6, 64, 0
1, 276284, Note_off_c, 6, 69, 0
1, 276284, Note_off_c, 6, 76, 0
1, 276292, Note_off_c, 8, 40, 0
1, 276292, Note_off_c, 8, 45, 0
1, 276292, Note_off_c, 13, 59, 0
1, 276292, Note_off_c, 13, 61, 0
1, 276480, Note_on_c, 0, 66, 100
1, 276480, Note_on_c, 0, 71, 100
1, 276480, Note_on_c, 1, 66, 77
1, 276480, Note_on_c, 2, 71, 100
1, 276480, Note_on_c, 2, 80, 100
1, 276480, Note_on_c, 3, 71, 100
1, 276480, Note_on_c, 3, 76, 100
1, 276480, Note_on_c, 4, 83, 100
1, 276480, Note_on_c, 7, 64, 73
1, 276480, Note_on_c, 7, 69, 77
1, 276480, Note_on_c, 7, 76, 74
1, 276480, Note_on_c, 8, 59, 100
1, 276480, Note_on_c, 8, 61, 100
1, 276480, Note_on_c, 13, 40, 100
1, 276480, Note_on_c, 13, 45, 100
1, 276762, Note_on_c, 10, 64, 69
1, 276762, Note_on_c, 10, 69, 70
1, 276762, Note_on_c, 10, 76, 72
1, 276764, Note_off_c, 7, 69, 0
1, 276772, Note_off_c, 8, 59, 0
1, 276772, Note_off_c, 8, 61, 0
1, 276772, Note_off_c, 13, 40, 0
1, 276772, Note_off_c, 13, 45, 0
1, 276796, Note_off_c, 7, 76, 0
1, 276802, Note_off_c, 7, 64, 0
1, 276952, Note_off_c, 0, 66, 64
1, 276952, Note_off_c, 0, 71, 64
1, 276952, Note_off_c, 2, 71, 64
1, 276952, Note_off_c, 2, 80, 64
1, 276952, Note_off_c, 3, 71, 64
1, 276952, Note_off_c, 3, 76, 64
1, 276952, Note_off_c, 4, 83, 0
1, 276960, Note_on_c, 0, 61, 100
1, 276960, Note_on_c, 0, 68, 100
1, 276960, Note_on_c, 1, 61, 70
1, 276960, Note_on_c, 2, 69, 100
1, 276960, Note_on_c, 2, 78, 100
1, 276960, Note_on_c, 3, 64, 100
1, 276960, Note_on_c, 3, 69, 100
1, 276960, Note_on_c, 4, 80, 100
1, 276960, Note_on_c, 6, 64, 72
1, 276960, Note_on_c, 6, 69, 52
1, 276960, Note_on_c, 6, 76, 72
1, 276960, Note_on_c, 8, 40, 100
1, 276960, Note_on_c, 8, 45, 100
1, 276960, Note_on_c, 13, 59, 100
1, 276960, Note_on_c, 13, 61, 100
1, 277026, Note_off_c, 10, 69, 0
1, 277050, Note_off_c, 10, 64, 0
1, 277066, Note_off_c, 10, 76, 0
1, 277112, Note_off_c, 6, 69, 0
1, 277122, Note_off_c, 1, 66, 0
1, 277200, Note_off_c, 6, 64, 0
1, 277206, Note_off_c, 6, 76, 0
1, 277252, Note_off_c, 8, 40, 0
1, 277252, Note_off_c, 8, 45, 0
1, 277252, Note_off_c, 13, 59, 0
1, 277252, Note_off_c, 13, 61, 0
1, 277432, Note_off_c, 0, 61, 64
1, 277432, Note_off_c, 0, 68, 64
1, 277432, Note_off_c, 2, 69, 64
1, 277432, Note_off_c, 2, 78, 64
1, 277432, Note_off_c, 3, 64, 64
1, 277432, Note_off_c, 3, 69, 64
1, 277432, Note_off_c, 4, 80, 0
1, 277440, Note_on_c, 7, 64, 68
1, 277440, Note_on_c, 7, 69, 70
1, 277440, Note_on_c, 7, 76, 72
1, 277440, Note_on_c, 8, 59, 100
1, 277440, Note_on_c, 8, 61, 100
1, 277440, Note_on_c, 13, 40, 100
1, 277440, Note_on_c, 13, 45, 100
1, 277588, Note_off_c, 1, 61, 0
1, 277722, Note_on_c, 10, 64, 68
1, 277722, Note_on_c, 10, 69, 77
1, 277722, Note_on_c, 10, 76, 73
1, 277730, Note_off_c, 7, 69, 0
1, 277732, Note_off_c, 8, 59, 0
1, 277732, Note_off_c, 8, 61, 0
1, 277732, Note_off_c, 13, 40, 0
1, 277732, Note_off_c, 13, 45, 0
1, 277748, Note_off_c, 7, 76, 0
1, 277754, Note_off_c, 7, 64, 0
1, 277920, Note_on_c, 0, 64, 100
1, 277920, Note_on_c, 0, 69, 100
1, 277920, Note_on_c, 1, 69, 77
1, 277920, Note_on_c, 2, 71, 100
1, 277920, Note_on_c, 2, 80, 100
1, 277920, Note_on_c, 3, 71, 100
1, 277920, Note_on_c, 3, 76, 100
1, 277920, Note_on_c, 4, 81, 100
1, 277920, Note_on_c, 6, 64, 68
1, 277920, Note_on_c, 6, 69, 70
1, 277920, Note_on_c, 6, 76, 74
1, 277920, Note_on_c, 8, 40, 100
1, 277920, Note_on_c, 8, 45, 100
1, 277920, Note_on_c, 13, 59, 100
1, 277920, Note_on_c, 13, 61, 100
1, 277988, Note_off_c, 10, 64, 0
1, 278006, Note_off_c, 10, 69, 0
1, 278006, Note_off_c, 10, 76, 0
1, 278152, Note_off_c, 6, 69, 0
1, 278162, Note_off_c, 6, 64, 0
1, 278170, Note_off_c, 6, 76, 0
1, 278212, Note_off_c, 8, 40, 0
1, 278212, Note_off_c, 8, 45, 0
1, 278212, Note_off_c, 13, 59, 0
1, 278212, Note_off_c, 13, 61, 0
1, 278392, Note_off_c, 0, 64, 64
1, 278392, Note_off_c, 0, 69, 64
1, 278392, Note_off_c, 2, 71, 64
1, 278392, Note_off_c, 2, 80, 64
1, 278392, Note_off_c, 3, 71, 64
1, 278392, Note_off_c, 3, 76, 64
1, 278392, Note_off_c, 4, 81, 0
1, 278400, Note_on_c, 7, 64, 68
1, 278400, Note_on_c, 7, 69, 70
1, 278400, Note_on_c, 7, 76, 73
1, 278400, Note_on_c, 8, 59, 100
1, 278400, Note_on_c, 8, 61, 100
1, 278400, Note_on_c, 13, 40, 100
1, 278400, Note_on_c, 13, 45, 100
1, 278568, Note_off_c, 1, 69, 0
1, 278648, Note_off_c, 7, 64, 0
1, 278662, Note_off_c, 7, 69, 0
1, 278662, Note_off_c, 7, 76, 0
1, 278682, Note_on_c, 10, 64, 72
1, 278682, Note_on_c, 10, 69, 52
1, 278682, Note_on_c, 10, 76, 72
1, 278692, Note_off_c, 8, 59, 0
1, 278692, Note_off_c, 8, 61, 0
1, 278692, Note_off_c, 13, 40, 0
1, 278692, Note_off_c, 13, 45, 0
1, 278834, Note_off_c, 10, 69, 0
1, 278880, Note_on_c, 0, 66, 100
1, 278880, Note_on_c, 0, 71, 100
1, 278880, Note_on_c, 1, 64, 68
1, 278880, Note_on_c, 2, 73, 100
1, 278880, Note_on_c, 2, 81, 100
1, 278880, Note_on_c, 3, 73, 100
1, 278880, Note_on_c, 3, 76, 100
1, 278880, Note_on_c, 4, 83, 100
1, 278880, Note_on_c, 6, 64, 68
1, 278880, Note_on_c, 6, 69, 69
1, 278880, Note_on_c, 6, 76, 72
1, 278880, Note_on_c, 8, 40, 100
1, 278880, Note_on_c, 8, 45, 100
1, 278880, Note_on_c, 13, 59, 100
1, 278880, Note_on_c, 13, 61, 100
1, 278922, Note_off_c, 10, 64, 0
1, 278928, Note_off_c, 10, 76, 0
1, 279096, Note_off_c, 6, 76, 0
1, 279098, Note_off_c, 6, 69, 0
1, 279112, Note_off_c, 6, 64, 0
1, 279172, Note_off_c, 8, 40, 0
1, 279172, Note_off_c, 8, 45, 0
1, 279172, Note_off_c, 13, 59, 0
1, 279172, Note_off_c, 13, 61, 0
1, 279324, Note_off_c, 1, 64, 0
1, 279352, Note_off_c, 0, 66, 64
1, 279352, Note_off_c, 0, 71, 64
1, 279352, Note_off_c, 2, 73, 64
1, 279352, Note_off_c, 2, 81, 64
1, 279352, Note_off_c, 3, 73, 64
1, 279352, Note_off_c, 3, 76, 64
1, 279352, Note_off_c, 4, 83, 0
1, 279352, Note_off_c, 5, 52, 0
1, 279352, Note_off_c, 5, 57, 0
1, 279360, Note_on_c, 0, 61, 100
1, 279360, Note_on_c, 0, 68, 100
1, 279360, Note_on_c, 1, 66, 78
1, 279360, Note_on_c, 2, 69, 100
1, 279360, Note_on_c, 2, 78, 100
1, 279360, Note_on_c, 3, 64, 100
1, 279360, Note_on_c, 3, 69, 100
1, 279360, Note_on_c, 4, 80, 100
1, 279360, Note_on_c, 5, 50, 100
1, 279360, Note_on_c, 5, 57, 100
1, 279360, Note_on_c, 7, 64, 70
1, 279360, Note_on_c, 7, 69, 83
1, 279360, Note_on_c, 7, 76, 74
1, 279360, Note_on_c, 8, 57, 100
1, 279360, Note_on_c, 8, 61, 100
1, 279360, Note_on_c, 13, 38, 100
1, 279360, Note_on_c, 13, 45, 100
1, 279600, Note_off_c, 7, 64, 0
1, 279600, Note_off_c, 7, 76, 0
1, 279610, Note_off_c, 7, 69, 0
1, 279642, Note_on_c, 10, 64, 68
1, 279642, Note_on_c, 10, 69, 70
1, 279642, Note_on_c, 10, 76, 74
1, 279652, Note_off_c, 8, 57, 0
1, 279652, Note_off_c, 8, 61, 0
1, 279652, Note_off_c, 13, 38, 0
1, 279652, Note_off_c, 13, 45, 0
1, 279832, Note_off_c, 0, 61, 64
1, 279832, Note_off_c, 0, 68, 64
1, 279832, Note_off_c, 2, 69, 64
1, 279832, Note_off_c, 2, 78, 64
1, 279832, Note_off_c, 3, 64, 64
1, 279832, Note_off_c, 3, 69, 64
1, 279832, Note_off_c, 4, 80, 0
1, 279840, Note_on_c, 6, 64, 67
1, 279840, Note_on_c, 6, 69, 67
1, 279840, Note_on_c, 6, 76, 72
1, 279840, Note_on_c, 8, 38, 100
1, 279840, Note_on_c, 8, 45, 100
1, 279840, Note_on_c, 13, 57, 100
1, 279840, Note_on_c, 13, 61, 100
1, 279874, Note_off_c, 10, 69, 0
1, 279884, Note_off_c, 10, 64, 0
1, 279892, Note_off_c, 10, 76, 0
1, 280028, Note_off_c, 1, 66, 0
1, 280086, Note_off_c, 6, 64, 0
1, 280090, Note_off_c, 6, 69, 0
1, 280106, Note_off_c, 6, 76, 0
1, 280132, Note_off_c, 8, 38, 0
1, 280132, Note_off_c, 8, 45, 0
1, 280132, Note_off_c, 13, 57, 0
1, 280132, Note_off_c, 13, 61, 0
1, 280320, Note_on_c, 0, 61, 100
1, 280320, Note_on_c, 0, 68, 100
1, 280320, Note_on_c, 1, 59, 74
1, 280320, Note_on_c, 2, 71, 100
1, 280320, Note_on_c, 2, 80, 100
1, 280320, Note_on_c, 3, 71, 100
1, 280320, Note_on_c, 3, 76, 100
1, 280320, Note_on_c, 4, 80, 100
1, 280320, Note_on_c, 7, 64, 67
1, 280320, Note_on_c, 7, 69, 78
1, 280320, Note_on_c, 7, 76, 73
1, 280320, Note_on_c, 8, 57, 100
1, 280320, Note_on_c, 8, 61, 100
1, 280320, Note_on_c, 13, 38, 100
1, 280320, Note_on_c, 13, 45, 100
1, 280570, Note_off_c, 7, 76, 0
1, 280576, Note_off_c, 7, 69, 0
1, 280584, Note_off_c, 7, 64, 0
1, 280602, Note_on_c, 10, 64, 68
1, 280602, Note_on_c, 10, 69, 69
1, 280602, Note_on_c, 10, 76, 72
1, 280612, Note_off_c, 8, 57, 0
1, 280612, Note_off_c, 8, 61, 0
1, 280612, Note_off_c, 13, 38, 0
1, 280612, Note_off_c, 13, 45, 0
1, 280792, Note_off_c, 0, 61, 64
1, 280792, Note_off_c, 0, 68, 64
1, 280792, Note_off_c, 2, 71, 64
1, 280792, Note_off_c, 2, 80, 64
1, 280792, Note_off_c, 3, 71, 64
1, 280792, Note_off_c, 3, 76, 64
1, 280792, Note_off_c, 4, 80, 0
1, 280800, Note_on_c, 0, 64, 100
1, 280800, Note_on_c, 0, 69, 100
1, 280800, Note_on_c, 1, 69, 75
1, 280800, Note_on_c, 2, 69, 100
1, 280800, Note_on_c, 2, 78, 100
1, 280800, Note_on_c, 3, 66, 100
1, 280800, Note_on_c, 3, 69, 100
1, 280800, Note_on_c, 4, 81, 100
1, 280800, Note_on_c, 6, 64, 67
1, 280800, Note_on_c, 6, 69, 63
1, 280800, Note_on_c, 6, 76, 72
1, 280800, Note_on_c, 8, 38, 100
1, 280800, Note_on_c, 8, 45, 100
1, 280800, Note_on_c, 13, 57, 100
1, 280800, Note_on_c, 13, 61, 100
1, 280808, Note_off_c, 1, 59, 0
1, 280818, Note_off_c, 10, 76, 0
1, 280820, Note_off_c, 10, 69, 0
1, 280834, Note_off_c, 10, 64, 0
1, 281048, Note_off_c, 6, 69, 0
1, 281076, Note_off_c, 6, 64, 0
1, 281092, Note_off_c, 6, 76, 0
1, 281092, Note_off_c, 8, 38, 0
1, 281092, Note_off_c, 8, 45, 0
1, 281092, Note_off_c, 13, 57, 0
1, 281092, Note_off_c, 13, 61, 0
1, 281272, Note_off_c, 0, 64, 64
1, 281272, Note_off_c, 0, 69, 64
1, 281272, Note_off_c, 2, 69, 64
1, 281272, Note_off_c, 2, 78, 64
1, 281272, Note_off_c, 3, 66, 64
1, 281272, Note_off_c, 3, 69, 64
1, 281272, Note_off_c, 4, 81, 0
1, 281280, Note_on_c, 0, 68, 100
1, 281280, Note_on_c, 0, 73, 100
1, 281280, Note_on_c, 1, 64, 73
1, 281280, Note_on_c, 2, 73, 100
1, 281280, Note_on_c, 2, 81, 100
1, 281280, Note_on_c, 3, 73, 100
1, 281280, Note_on_c, 3, 76, 100
1, 281280, Note_on_c, 4, 85, 100
1, 281280, Note_on_c, 7, 64, 69
1, 281280, Note_on_c, 7, 69, 70
1, 281280, Note_on_c, 7, 76, 73
1, 281280, Note_on_c, 8, 57, 100
1, 281280, Note_on_c, 8, 61, 100
1, 281280, Note_on_c, 13, 38, 100
1, 281280, Note_on_c, 13, 45, 100
1, 281406, Note_off_c, 1, 69, 0
1, 281500, Note_off_c, 7, 69, 0
1, 281522, Note_off_c, 7, 76, 0
1, 281532, Note_off_c, 7, 64, 0
1, 281562, Note_on_c, 10, 64, 67
1, 281562, Note_on_c, 10, 69, 67
1, 281562, Note_on_c, 10, 76, 72
1, 281572, Note_off_c, 8, 57, 0
1, 281572, Note_off_c, 8, 61, 0
1, 281572, Note_off_c, 13, 38, 0
1, 281572, Note_off_c, 13, 45, 0
1, 281752, Note_off_c, 0, 68, 64
1, 281752, Note_off_c, 0, 73, 64
1, 281752, Note_off_c, 2, 73, 64
1, 281752, Note_off_c, 2, 81, 64
1, 281752, Note_off_c, 3, 73, 64
1, 281752, Note_off_c, 3, 76, 64
1, 281752, Note_off_c, 4, 85, 0
1, 281760, Note_on_c, 6, 64, 68
1, 281760, Note_on_c, 6, 69, 66
1, 281760, Note_on_c, 6, 76, 70
1, 281760, Note_on_c, 8, 38, 100
1, 281760, Note_on_c, 8, 45, 100
1, 281760, Note_on_c, 13, 57, 100
1, 281760, Note_on_c, 13, 61, 100
1, 281808, Note_off_c, 10, 64, 0
1, 281812, Note_off_c, 10, 69, 0
1, 281828, Note_off_c, 10, 76, 0
1, 281956, Note_off_c, 6, 69, 0
1, 281980, Note_off_c, 6, 64, 0
1, 281986, Note_off_c, 1, 64, 0
1, 281998, Note_off_c, 6, 76, 0
1, 282052, Note_off_c, 8, 38, 0
1, 282052, Note_off_c, 8, 45, 0
1, 282052, Note_off_c, 13, 57, 0
1, 282052, Note_off_c, 13, 61, 0
1, 282232, Note_off_c, 5, 50, 0
1, 282232, Note_off_c, 5, 57, 0
1, 282240, Note_on_c, 0, 66, 100
1, 282240, Note_on_c, 0, 71, 100
1, 282240, Note_on_c, 1, 66, 68
1, 282240, Note_on_c, 2, 71, 100
1, 282240, Note_on_c, 2, 80, 100
1, 282240, Note_on_c, 3, 71, 100
1, 282240, Note_on_c, 3, 76, 100
1, 282240, Note_on_c, 4, 83, 100
1, 282240, Note_on_c, 5, 52, 100
1, 282240, Note_on_c, 5, 57, 100
1, 282240, Note_on_c, 7, 64, 69
1, 282240, Note_on_c, 7, 69, 75
1, 282240, Note_on_c, 7, 76, 73
1, 282240, Note_on_c, 8, 59, 100
1, 282240, Note_on_c, 8, 61, 100
1, 282240, Note_on_c, 13, 40, 100
1, 282240, Note_on_c, 13, 45, 100
1, 282454, Note_off_c, 7, 69, 0
1, 282470, Note_off_c, 7, 64, 0
1, 282484, Note_off_c, 7, 76, 0
1, 282522, Note_on_c, 10, 64, 67
1, 282522, Note_on_c, 10, 69, 63
1, 282522, Note_on_c, 10, 76, 72
1, 282532, Note_off_c, 8, 59, 0
1, 282532, Note_off_c, 8, 61, 0
1, 282532, Note_off_c, 13, 40, 0
1, 282532, Note_off_c, 13, 45, 0
1, 282712, Note_off_c, 0, 66, 64
1, 282712, Note_off_c, 0, 71, 64
1, 282712, Note_off_c, 2, 71, 64
1, 282712, Note_off_c, 2, 80, 64
1, 282712, Note_off_c, 3, 71, 64
1, 282712, Note_off_c, 3, 76, 64
1, 282712, Note_off_c, 4, 83, 0
1, 282720, Note_on_c, 0, 61, 100
1, 282720, Note_on_c, 0, 68, 100
1, 282720, Note_on_c, 1, 61, 68
1, 282720, Note_on_c, 2, 69, 100
1, 282720, Note_on_c, 2, 78, 100
1, 282720, Note_on_c, 3, 64, 100
1, 282720, Note_on_c, 3, 69, 100
1, 282720, Note_on_c, 4, 80, 100
1, 282720, Note_on_c, 6, 64, 68
1, 282720, Note_on_c, 6, 69, 63
1, 282720, Note_on_c, 6, 76, 72
1, 282720, Note_on_c, 8, 40, 100
1, 282720, Note_on_c, 8, 45, 100
1, 282720, Note_on_c, 13, 59, 100
1, 282720, Note_on_c, 13, 61, 100
1, 282756, Note_off_c, 1, 66, 0
1, 282770, Note_off_c, 10, 69, 0
1, 282798, Note_off_c, 10, 64, 0
1, 282810, Note_on_c, 0, 61, 100
1, 282810, Note_on_c, 0, 68, 100
1, 282810, Note_on_c, 1, 59, 65
1, 282810, Note_on_c, 2, 71, 100
1, 282810, Note_on_c, 2, 80, 100
1, 282810, Note_on_c, 3, 71, 100
1, 282810, Note_on_c, 3, 76, 100
1, 282810, Note_on_c, 4, 80, 100
1, 282810, Note_on_c, 7, 64, 66
1, 282810, Note_on_c, 7, 69, 77
1, 282810, Note_on_c, 7, 76, 70
1, 282810, Note_on_c, 8, 57, 100
1, 282810, Note_on_c, 8, 61, 100
1, 282810, Note_on_c, 13, 38, 100
1, 282810, Note_on_c, 13, 45, 100
1, 286308, Note_off_c, 7, 64, 0
1, 286362, Note_on_c, 10, 64, 68
1, 286362, Note_on_c, 10, 69, 70
1, 286362, Note_on_c, 10, 76, 70
1, 286366, Note_off_c, 7, 69, 0
1, 286372, Note_off_c, 8, 57, 0
1, 286372, Note_off_c, 8, 61, 0
1, 286372, Note_off_c, 13, 38, 0
1, 286372, Note_off_c, 13, 45, 0
1, 286390, Note_off_c, 7, 76, 0
1, 286552, Note_off_c, 0, 61, 64
1, 286552, Note_off_c, 0, 68, 64
1, 286552, Note_off_c, 2, 71, 64
1, 286552, Note_off_c, 2, 80, 64
1, 286552, Note_off_c, 3, 71, 64
1, 286552, Note_off_c, 3, 76, 64
1, 286552, Note_off_c, 4, 80, 0
1, 286560, Note_on_c, 0, 64, 100
1, 286560, Note_on_c, 0, 69, 100
1, 286560, Note_on_c, 1, 69, 74
1, 286560, Note_on_c, 2, 69, 100
1, 286560, Note_on_c, 2, 78, 100
1, 286560, Note_on_c, 3, 66, 100
1, 286560, Note_on_c, 3, 69, 100
1, 286560, Note_on_c, 4, 81, 100
1, 286560, Note_on_c, 6, 64, 68
1, 286560, Note_on_c, 6, 69, 74
1, 286560, Note_on_c, 6, 76, 75
1, 286560, Note_on_c, 8, 38, 100
1, 286560, Note_on_c, 8, 45, 100
1, 286560, Note_on_c, 13, 57, 100
1, 286560, Note_on_c, 13, 61, 100
1, 286570, Note_off_c, 10, 64, 0
1, 286598, Note_off_c, 10, 69, 0
1, 286602, Note_off_c, 10, 76, 0
1, 286654, Note_off_c, 1, 59, 0
1, 286832, Note_off_c, 6, 69, 0
1, 286836, Note_off_c, 6, 64, 0
1, 286850, Note_off_c, 6, 76, 0
1, 286852, Note_off_c, 8, 38, 0
1, 286852, Note_off_c, 8, 45, 0
1, 286852, Note_off_c, 13, 57, 0
1, 286852, Note_off_c, 13, 61, 0
1, 287032, Note_off_c, 0, 64, 64
1, 287032, Note_off_c, 0, 69, 64
1, 287032, Note_off_c, 2, 69, 64
1, 287032, Note_off_c, 2, 78, 64
1, 287032, Note_off_c, 3, 66, 64
1, 287032, Note_off_c, 3, 69, 64
1, 287032, Note_off_c, 4, 81, 0
1, 287032, Note_off_c, 5, 50, 0
1, 287032, Note_off_c, 5, 57, 0
1, 287040, Note_on_c, 0, 68, 100
1, 287040, Note_on_c, 0, 73, 100
1, 287040, Note_on_c, 1, 64, 68
1, 287040, Note_on_c, 2, 73, 100
1, 287040, Note_on_c, 2, 81, 100
1, 287040, Note_on_c, 3, 73, 100
1, 287040, Note_on_c, 3, 76, 100
1, 287040, Note_on_c, 4, 85, 100
1, 287040, Note_on_c, 5, 52, 100
1, 287040, Note_on_c, 5, 57, 100
1, 287040, Note_on_c, 7, 64, 65
1, 287040, Note_on_c, 7, 69, 72
1, 287040, Note_on_c, 7, 76, 72
1, 287040, Note_on_c, 8, 59, 100
1, 287040, Note_on_c, 8, 61, 100
1, 287040, Note_on_c, 13, 40, 100
1, 287040, Note_on_c, 13, 45, 100
1, 287252, Note_off_c, 1, 69, 0
1, 287316, Note_off_c, 7, 64, 0
1, 287322, Note_on_c, 10, 64, 67
1, 287322, Note_on_c, 10, 69, 73
1, 287322, Note_on_c, 10, 76, 74
1, 287330, Note_off_c, 7, 69, 0
1, 287332, Note_off_c, 7, 76, 0
1, 287332, Note_off_c, 8, 59, 0
1, 287332, Note_off_c, 8, 61, 0
1, 287332, Note_off_c, 13, 40, 0
1, 287332, Note_off_c, 13, 45, 0
1, 287512, Note_off_c, 0, 68, 64
1, 287512, Note_off_c, 0, 73, 64
1, 287512, Note_off_c, 2, 73, 64
1, 287512, Note_off_c, 2, 81, 64
1, 287512, Note_off_c, 3, 73, 64
1, 287512, Note_off_c, 3, 76, 64
1, 287512, Note_off_c, 4, 85, 0
1, 287520, Note_on_c, 6, 64, 73
1, 287520, Note_on_c, 6, 69, 80
1, 287520, Note_on_c, 6, 76, 77
1, 287520, Note_on_c, 8, 40, 100
1, 287520, Note_on_c, 8, 45, 100
1, 287520, Note_on_c, 13, 59, 100
1, 287520, Note_on_c, 13, 61, 100
1, 287538, Note_off_c, 10, 64, 0
1, 287558, Note_off_c, 10, 76, 0
1, 287568, Note_off_c, 10, 69, 0
1, 287654, Note_off_c, 1, 64, 0
1, 287782, Note_off_c, 6, 64, 0
1, 287798, Note_off_c, 6, 69, 0
1, 287808, Note_off_c, 6, 76, 0
1, 287812, Note_off_c, 8, 40, 0
1, 287812, Note_off_c, 8, 45, 0
1, 287812, Note_off_c, 13, 59, 0
1, 287812, Note_off_c, 13, 61, 0
1, 288000, Note_on_c, 1, 66, 77
1, 288000, Note_on_c, 3, 71, 100
1, 288000, Note_on_c, 3, 76, 100
1, 288000, Note_on_c, 7, 64, 67
1, 288000, Note_on_c, 7, 69, 75
1, 288000, Note_on_c, 7, 76, 70
1, 288000, Note_on_c, 8, 59, 100
1, 288000, Note_on_c, 8, 61, 100
1, 288000, Note_on_c, 13, 40, 100
1, 288000, Note_on_c, 13, 45, 100
1, 288230, Note_off_c, 7, 69, 0
1, 288248, Note_off_c, 7, 64, 0
1, 288258, Note_off_c, 7, 76, 0
1, 288282, Note_on_c, 10, 64, 68
1, 288282, Note_on_c, 10, 69, 74
1, 288282, Note_on_c, 10, 76, 75
1, 288292, Note_off_c, 8, 59, 0
1, 288292, Note_off_c, 8, 61, 0
1, 288292, Note_off_c, 13, 40, 0
1, 288292, Note_off_c, 13, 45, 0
1, 288472, Note_off_c, 3, 71, 64
1, 288472, Note_off_c, 3, 76, 64
1, 288480, Note_on_c, 1, 61, 70
1, 288480, Note_on_c, 3, 64, 100
1, 288480, Note_on_c, 3, 69, 100
1, 288480, Note_on_c, 6, 64, 68
1, 288480, Note_on_c, 6, 69, 70
1, 288480, Note_on_c, 6, 76, 74
1, 288480, Note_on_c, 8, 40, 100
1, 288480, Note_on_c, 8, 45, 100
1, 288480, Note_on_c, 13, 59, 100
1, 288480, Note_on_c, 13, 61, 100
1, 288554, Note_off_c, 10, 69, 0
1, 288558, Note_off_c, 10, 64, 0
1, 288572, Note_off_c, 10, 76, 0
1, 288642, Note_off_c, 1, 66, 0
1, 288766, Note_off_c, 6, 64, 0
1, 288772, Note_off_c, 8, 40, 0
1, 288772, Note_off_c, 8, 45, 0
1, 288772, Note_off_c, 13, 59, 0
1, 288772, Note_off_c, 13, 61, 0
1, 288778, Note_off_c, 6, 69, 0
1, 288778, Note_off_c, 6, 76, 0
1, 288952, Note_off_c, 3, 64, 64
1, 288952, Note_off_c, 3, 69, 64
1, 288960, Note_on_c, 7, 64, 66
1, 288960, Note_on_c, 7, 69, 68
1, 288960, Note_on_c, 7, 76, 72
1, 288960, Note_on_c, 8, 59, 100
1, 288960, Note_on_c, 8, 61, 100
1, 288960, Note_on_c, 13, 40, 100
1, 288960, Note_on_c, 13, 45, 100
1, 289108, Note_off_c, 1, 61, 0
1, 289220, Note_off_c, 7, 69, 0
1, 289230, Note_off_c, 7, 64, 0
1, 289234, Note_off_c, 7, 76, 0
1, 289242, Note_on_c, 10, 64, 73
1, 289242, Note_on_c, 10, 69, 80
1, 289242, Note_on_c, 10, 76, 77
1, 289252, Note_off_c, 8, 59, 0
1, 289252, Note_off_c, 8, 61, 0
1, 289252, Note_off_c, 13, 40, 0
1, 289252, Note_off_c, 13, 45, 0
1, 289440, Note_on_c, 1, 69, 77
1, 289440, Note_on_c, 3, 71, 100
1, 289440, Note_on_c, 3, 76, 100
1, 289440, Note_on_c, 6, 64, 70
1, 289440, Note_on_c, 6, 69, 74
1, 289440, Note_on_c, 6, 76, 74
1, 289440, Note_on_c, 8, 40, 100
1, 289440, Note_on_c, 8, 45, 100
1, 289440, Note_on_c, 13, 59, 100
1, 289440, Note_on_c, 13, 61, 100
1, 289504, Note_off_c, 10, 64, 0
1, 289520, Note_off_c, 10, 69, 0
1, 289530, Note_off_c, 10, 76, 0
1, 289644, Note_off_c, 6, 64, 0
1, 289674, Note_off_c, 6, 76, 0
1, 289712, Note_off_c, 6, 69, 0
1, 289732, Note_off_c, 8, 40, 0
1, 289732, Note_off_c, 8, 45, 0
1, 289732, Note_off_c, 13, 59, 0
1, 289732, Note_off_c, 13, 61, 0
1, 289912, Note_off_c, 3, 71, 64
1, 289912, Note_off_c, 3, 76, 64
1, 289920, Note_on_c, 7, 64, 62
1, 289920, Note_on_c, 7, 69, 60
1, 289920, Note_on_c, 7, 76, 70
1, 289920, Note_on_c, 8, 59, 100
1, 289920, Note_on_c, 8, 61, 100
1, 289920, Note_on_c, 13, 40, 100
1, 289920, Note_on_c, 13, 45, 100
1, 290088, Note_off_c, 1, 69, 0
1, 290180, Note_off_c, 7, 69, 0
1, 290198, Note_off_c, 7, 64, 0
1, 290202, Note_on_c, 10, 64, 68
1, 290202, Note_on_c, 10, 69, 70
1, 290202, Note_on_c, 10, 76, 74
1, 290212, Note_off_c, 8, 59, 0
1, 290212, Note_off_c, 8, 61, 0
1, 290212, Note_off_c, 13, 40, 0
1, 290212, Note_off_c, 13, 45, 0
1, 290258, Note_off_c, 7, 76, 0
1, 290400, Note_on_c, 1, 64, 68
1, 290400, Note_on_c, 3, 73, 100
1, 290400, Note_on_c, 3, 76, 100
1, 290400, Note_on_c, 6, 64, 68
1, 290400, Note_on_c, 6, 69, 68
1, 290400, Note_on_c, 6, 76, 72
1, 290400, Note_on_c, 8, 40, 100
1, 290400, Note_on_c, 8, 45, 100
1, 290400, Note_on_c, 13, 59, 100
1, 290400, Note_on_c, 13, 61, 100
1, 290488, Note_off_c, 10, 64, 0
1, 290500, Note_off_c, 10, 69, 0
1, 290500, Note_off_c, 10, 76, 0
1, 290606, Note_off_c, 6, 69, 0
1, 290614, Note_off_c, 6, 64, 0
1, 290624, Note_off_c, 6, 76, 0
1, 290692, Note_off_c, 8, 40, 0
1, 290692, Note_off_c, 8, 45, 0
1, 290692, Note_off_c, 13, 59, 0
1, 290692, Note_off_c, 13, 61, 0
1, 290844, Note_off_c, 1, 64, 0
1, 290872, Note_off_c, 3, 73, 64
1, 290872, Note_off_c, 3, 76, 64
1, 290872, Note_off_c, 5, 52, 0
1, 290872, Note_off_c, 5, 57, 0
1, 290880, Note_on_c, 0, 59, 100
1, 290880, Note_on_c, 0, 66, 100
1, 290880, Note_on_c, 1, 66, 78
1, 290880, Note_on_c, 2, 69, 100
1, 290880, Note_on_c, 2, 78, 100
1, 290880, Note_on_c, 3, 64, 100
1, 290880, Note_on_c, 3, 69, 100
1, 290880, Note_on_c, 4, 78, 100
1, 290880, Note_on_c, 5, 50, 100
1, 290880, Note_on_c, 5, 57, 100
1, 290880, Note_on_c, 7, 64, 56
1, 290880, Note_on_c, 7, 69, 69
1, 290880, Note_on_c, 7, 76, 73
1, 290880, Note_on_c, 8, 57, 100
1, 290880, Note_on_c, 8, 61, 100
1, 290880, Note_on_c, 13, 38, 100
1, 290880, Note_on_c, 13, 45, 100
1, 291146, Note_off_c, 7, 64, 0
1, 291162, Note_on_c, 10, 64, 70
1, 291162, Note_on_c, 10, 69, 74
1, 291162, Note_on_c, 10, 76, 74
1, 291172, Note_off_c, 8, 57, 0
1, 291172, Note_off_c, 8, 61, 0
1, 291172, Note_off_c, 13, 38, 0
1, 291172, Note_off_c, 13, 45, 0
1, 291174, Note_off_c, 7, 69, 0
1, 291182, Note_off_c, 7, 76, 0
1, 291352, Note_off_c, 0, 59, 64
1, 291352, Note_off_c, 0, 66, 64
1, 291352, Note_off_c, 2, 69, 64
1, 291352, Note_off_c, 2, 78, 64
1, 291352, Note_off_c, 3, 64, 64
1, 291352, Note_off_c, 3, 69, 64
1, 291352, Note_off_c, 4, 78, 0
1, 291360, Note_on_c, 6, 64, 70
1, 291360, Note_on_c, 6, 69, 70
1, 291360, Note_on_c, 6, 76, 75
1, 291360, Note_on_c, 8, 38, 100
1, 291360, Note_on_c, 8, 45, 100
1, 291360, Note_on_c, 13, 57, 100
1, 291360, Note_on_c, 13, 61, 100
1, 291366, Note_off_c, 10, 64, 0
1, 291396, Note_off_c, 10, 76, 0
1, 291434, Note_off_c, 10, 69, 0
1, 291548, Note_off_c, 1, 66, 0
1, 291588, Note_off_c, 6, 69, 0
1, 291630, Note_off_c, 6, 64, 0
1, 291652, Note_off_c, 8, 38, 0
1, 291652, Note_off_c, 8, 45, 0
1, 291652, Note_off_c, 13, 57, 0
1, 291652, Note_off_c, 13, 61, 0
1, 291668, Note_off_c, 6, 76, 0
1, 291840, Note_on_c, 0, 61, 102
1, 291840, Note_on_c, 0, 68, 102
1, 291840, Note_on_c, 1, 59, 74
1, 291840, Note_on_c, 2, 71, 100
1, 291840, Note_on_c, 2, 80, 100
1, 291840, Note_on_c, 3, 71, 100
1, 291840, Note_on_c, 3, 76, 100
1, 291840, Note_on_c, 4, 80, 100
1, 291840, Note_on_c, 7, 64, 66
1, 291840, Note_on_c, 7, 69, 70
1, 291840, Note_on_c, 7, 76, 75
1, 291840, Note_on_c, 8, 57, 100
1, 291840, Note_on_c, 8, 61, 100
1, 291840, Note_on_c, 13, 38, 100
1, 291840, Note_on_c, 13, 45, 100
1, 292090, Note_off_c, 7, 69, 0
1, 292104, Note_off_c, 7, 64, 0
1, 292122, Note_on_c, 10, 64, 68
1, 292122, Note_on_c, 10, 69, 68
1, 292122, Note_on_c, 10, 76, 72
1, 292130, Note_off_c, 7, 76, 0
1, 292132, Note_off_c, 8, 57, 0
1, 292132, Note_off_c, 8, 61, 0
1, 292132, Note_off_c, 13, 38, 0
1, 292132, Note_off_c, 13, 45, 0
1, 292312, Note_off_c, 0, 61, 64
1, 292312, Note_off_c, 0, 68, 64
1, 292312, Note_off_c, 2, 71, 64
1, 292312, Note_off_c, 2, 80, 64
1, 292312, Note_off_c, 3, 71, 64
1, 292312, Note_off_c, 3, 76, 64
1, 292312, Note_off_c, 4, 80, 0
1, 292320, Note_on_c, 0, 64, 101
1, 292320, Note_on_c, 0, 69, 101
1, 292320, Note_on_c, 1, 69, 75
1, 292320, Note_on_c, 2, 69, 100
1, 292320, Note_on_c, 2, 78, 100
1, 292320, Note_on_c, 3, 66, 100
1, 292320, Note_on_c, 3, 69, 100
1, 292320, Note_on_c, 4, 81, 100
1, 292320, Note_on_c, 6, 64, 69
1, 292320, Note_on_c, 6, 69, 69
1, 292320, Note_on_c, 6, 76, 73
1, 292320, Note_on_c, 8, 38, 100
1, 292320, Note_on_c, 8, 45, 100
1, 292320, Note_on_c, 13, 57, 100
1, 292320, Note_on_c, 13, 61, 100
1, 292328, Note_off_c, 1, 59, 0
1, 292328, Note_off_c, 10, 69, 0
1, 292336, Note_off_c, 10, 64, 0
1, 292346, Note_off_c, 10, 76, 0
1, 292586, Note_off_c, 6, 64, 0
1, 292612, Note_off_c, 8, 38, 0
1, 292612, Note_off_c, 8, 45, 0
1, 292612, Note_off_c, 13, 57, 0
1, 292612, Note_off_c, 13, 61, 0
1, 292624, Note_off_c, 6, 69, 0
1, 292624, Note_off_c, 6, 76, 0
1, 292792, Note_off_c, 0, 64, 64
1, 292792, Note_off_c, 0, 69, 64
1, 292792, Note_off_c, 2, 69, 64
1, 292792, Note_off_c, 2, 78, 64
1, 292792, Note_off_c, 3, 66, 64
1, 292792, Note_off_c, 3, 69, 64
1, 292792, Note_off_c, 4, 81, 0
1, 292800, Note_on_c, 0, 68, 99
1, 292800, Note_on_c, 0, 73, 99
1, 292800, Note_on_c, 1, 64, 73
1, 292800, Note_on_c, 2, 73, 100
1, 292800, Note_on_c, 2, 81, 100
1, 292800, Note_on_c, 3, 73, 100
1, 292800, Note_on_c, 3, 76, 100
1, 292800, Note_on_c, 4, 85, 100
1, 292800, Note_on_c, 7, 64, 66
1, 292800, Note_on_c, 7, 69, 70
1, 292800, Note_on_c, 7, 76, 75
1, 292800, Note_on_c, 8, 57, 100
1, 292800, Note_on_c, 8, 61, 100
1, 292800, Note_on_c, 13, 38, 100
1, 292800, Note_on_c, 13, 45, 100
1, 292926, Note_off_c, 1, 69, 0
1, 293050, Note_off_c, 7, 69, 0
1, 293064, Note_off_c, 7, 64, 0
1, 293082, Note_on_c, 10, 64, 70
1, 293082, Note_on_c, 10, 69, 70
1, 293082, Note_on_c, 10, 76, 75
1, 293090, Note_off_c, 7, 76, 0
1, 293092, Note_off_c, 8, 57, 0
1, 293092, Note_off_c, 8, 61, 0
1, 293092, Note_off_c, 13, 38, 0
1, 293092, Note_off_c, 13, 45, 0
1, 293272, Note_off_c, 0, 68, 64
1, 293272, Note_off_c, 0, 73, 64
1, 293272, Note_off_c, 2, 73, 64
1, 293272, Note_off_c, 2, 81, 64
1, 293272, Note_off_c, 3, 73, 64
1, 293272, Note_off_c, 3, 76, 64
1, 293272, Note_off_c, 4, 85, 0
1, 293280, Note_on_c, 6, 64, 67
1, 293280, Note_on_c, 6, 69, 63
1, 293280, Note_on_c, 6, 76, 74
1, 293280, Note_on_c, 8, 38, 100
1, 293280, Note_on_c, 8, 45, 100
1, 293280, Note_on_c, 13, 57, 100
1, 293280, Note_on_c, 13, 61, 100
1, 293310, Note_off_c, 10, 69, 0
1, 293352, Note_off_c, 10, 64, 0
1, 293390, Note_off_c, 10, 76, 0
1, 293484, Note_off_c, 6, 69, 0
1, 293506, Note_off_c, 1, 64, 0
1, 293546, Note_off_c, 6, 64, 0
1, 293546, Note_off_c, 6, 76, 0
1, 293572, Note_off_c, 8, 38, 0
1, 293572, Note_off_c, 8, 45, 0
1, 293572, Note_off_c, 13, 57, 0
1, 293572, Note_off_c, 13, 61, 0
1, 293760, Note_on_c, 0, 66, 94
1, 293760, Note_on_c, 0, 71, 94
1, 293760, Note_on_c, 1, 66, 68
1, 293760, Note_on_c, 2, 71, 100
1, 293760, Note_on_c, 2, 80, 100
1, 293760, Note_on_c, 3, 71, 100
1, 293760, Note_on_c, 3, 76, 100
1, 293760, Note_on_c, 4, 83, 100
1, 293760, Note_on_c, 7, 64, 72
1, 293760, Note_on_c, 7, 69, 80
1, 293760, Note_on_c, 7, 76, 77
1, 293760, Note_on_c, 8, 57, 100
1, 293760, Note_on_c, 8, 61, 100
1, 293760, Note_on_c, 13, 38, 100
1, 293760, Note_on_c, 13, 45, 100
1, 294000, Note_off_c, 7, 76, 0
1, 294010, Note_off_c, 7, 64, 0
1, 294010, Note_off_c, 7, 69, 0
1, 294042, Note_on_c, 10, 64, 69
1, 294042, Note_on_c, 10, 69, 69
1, 294042, Note_on_c, 10, 76, 73
1, 294052, Note_off_c, 8, 57, 0
1, 294052, Note_off_c, 8, 61, 0
1, 294052, Note_off_c, 13, 38, 0
1, 294052, Note_off_c, 13, 45, 0
1, 294232, Note_off_c, 0, 66, 64
1, 294232, Note_off_c, 0, 71, 64
1, 294232, Note_off_c, 2, 71, 64
1, 294232, Note_off_c, 2, 80, 64
1, 294232, Note_off_c, 3, 71, 64
1, 294232, Note_off_c, 3, 76, 64
1, 294232, Note_off_c, 4, 83, 0
1, 294240, Note_on_c, 0, 61, 92
1, 294240, Note_on_c, 0, 68, 92
1, 294240, Note_on_c, 1, 61, 68
1, 294240, Note_on_c, 2, 69, 100
1, 294240, Note_on_c, 2, 78, 100
1, 294240, Note_on_c, 3, 64, 100
1, 294240, Note_on_c, 3, 69, 100
1, 294240, Note_on_c, 4, 80, 100
1, 294240, Note_on_c, 6, 64, 66
1, 294240, Note_on_c, 6, 69, 63
1, 294240, Note_on_c, 6, 76, 74
1, 294240, Note_on_c, 8, 38, 100
1, 294240, Note_on_c, 8, 45, 100
1, 294240, Note_on_c, 13, 57, 100
1, 294240, Note_on_c, 13, 61, 100
1, 294276, Note_off_c, 1, 66, 0
1, 294308, Note_off_c, 10, 64, 0
1, 294346, Note_off_c, 10, 69, 0
1, 294346, Note_off_c, 10, 76, 0
1, 294470, Note_off_c, 6, 69, 0
1, 294476, Note_off_c, 6, 64, 0
1, 294514, Note_off_c, 6, 76, 0
1, 294532, Note_off_c, 8, 38, 0
1, 294532, Note_off_c, 8, 45, 0
1, 294532, Note_off_c, 13, 57, 0
1, 294532, Note_off_c, 13, 61, 0
1, 294712, Note_off_c, 0, 61, 64
1, 294712, Note_off_c, 0, 68, 64
1, 294712, Note_off_c, 2, 69, 64
1, 294712, Note_off_c, 2, 78, 64
1, 294712, Note_off_c, 3, 64, 64
1, 294712, Note_off_c, 3, 69, 64
1, 294712, Note_off_c, 4, 80, 0
1, 294720, Note_on_c, 7, 64, 70
1, 294720, Note_on_c, 7, 69, 77
1, 294720, Note_on_c, 7, 76, 77
1, 294720, Note_on_c, 8, 57, 100
1, 294720, Note_on_c, 8, 61, 100
1, 294720, Note_on_c, 13, 38, 100
1, 294720, Note_on_c, 13, 45, 100
1, 294974, Note_off_c, 7, 64, 0
1, 295002, Note_off_c, 7, 69, 0
1, 295002, Note_on_c, 10, 64, 67
1, 295002, Note_on_c, 10, 69, 63
1, 295002, Note_on_c, 10, 76, 74
1, 295010, Note_off_c, 1, 61, 0
1, 295010, Note_off_c, 7, 76, 0
1, 295012, Note_off_c, 8, 57, 0
1, 295012, Note_off_c, 8, 61, 0
1, 295012, Note_off_c, 13, 38, 0
1, 295012, Note_off_c, 13, 45, 0
1, 295200, Note_on_c, 0, 64, 87
1, 295200, Note_on_c, 0, 69, 87
1, 295200, Note_on_c, 1, 69, 77
1, 295200, Note_on_c, 2, 71, 100
1, 295200, Note_on_c, 2, 80, 100
1, 295200, Note_on_c, 3, 71, 100
1, 295200, Note_on_c, 3, 76, 100
1, 295200, Note_on_c, 4, 81, 100
1, 295200, Note_on_c, 6, 64, 68
1, 295200, Note_on_c, 6, 69, 74
1, 295200, Note_on_c, 6, 76, 74
1, 295200, Note_on_c, 8, 38, 100
1, 295200, Note_on_c, 8, 45, 100
1, 295200, Note_on_c, 13, 57, 100
1, 295200, Note_on_c, 13, 61, 100
1, 295206, Note_off_c, 10, 69, 0
1, 295268, Note_off_c, 10, 64, 0
1, 295268, Note_off_c, 10, 76, 0
1, 295460, Note_off_c, 6, 69, 0
1, 295490, Note_off_c, 6, 76, 0
1, 295492, Note_off_c, 8, 38, 0
1, 295492, Note_off_c, 8, 45, 0
1, 295492, Note_off_c, 13, 57, 0
1, 295492, Note_off_c, 13, 61, 0
1, 295494, Note_off_c, 6, 64, 0
1, 295672, Note_off_c, 0, 64, 64
1, 295672, Note_off_c, 0, 69, 64
1, 295672, Note_off_c, 2, 71, 64
1, 295672, Note_off_c, 2, 80, 64
1, 295672, Note_off_c, 3, 71, 64
1, 295672, Note_off_c, 3, 76, 64
1, 295672, Note_off_c, 4, 81, 0
1, 295680, Note_on_c, 7, 64, 70
1, 295680, Note_on_c, 7, 69, 73
1, 295680, Note_on_c, 7, 76, 74
1, 295680, Note_on_c, 8, 57, 100
1, 295680, Note_on_c, 8, 61, 100
1, 295680, Note_on_c, 13, 38, 100
1, 295680, Note_on_c, 13, 45, 100
1, 295824, Note_off_c, 1, 69, 0
1, 295920, Note_off_c, 7, 64, 0
1, 295926, Note_off_c, 7, 69, 0
1, 295940, Note_off_c, 7, 76, 0
1, 295962, Note_on_c, 10, 64, 66
1, 295962, Note_on_c, 10, 69, 63
1, 295962, Note_on_c, 10, 76, 74
1, 295972, Note_off_c, 8, 57, 0
1, 295972, Note_off_c, 8, 61, 0
1, 295972, Note_off_c, 13, 38, 0
1, 295972, Note_off_c, 13, 45, 0
1, 296160, Note_on_c, 0, 66, 84
1, 296160, Note_on_c, 0, 71, 84
1, 296160, Note_on_c, 1, 64, 70
1, 296160, Note_on_c, 2, 73, 100
1, 296160, Note_on_c, 2, 81, 100
1, 296160, Note_on_c, 3, 73, 100
1, 296160, Note_on_c, 3, 76, 100
1, 296160, Note_on_c, 4, 83, 100
1, 296160, Note_on_c, 6, 64, 73
1, 296160, Note_on_c, 6, 69, 82
1, 296160, Note_on_c, 6, 76, 77
1, 296160, Note_on_c, 8, 38, 100
1, 296160, Note_on_c, 8, 45, 100
1, 296160, Note_on_c, 13, 57, 100
1, 296160, Note_on_c, 13, 61, 100
1, 296192, Note_off_c, 10, 69, 0
1, 296198, Note_off_c, 10, 64, 0
1, 296236, Note_off_c, 10, 76, 0
1, 296438, Note_off_c, 6, 69, 0
1, 296450, Note_off_c, 6, 64, 0
1, 296452, Note_off_c, 8, 38, 0
1, 296452, Note_off_c, 8, 45, 0
1, 296452, Note_off_c, 13, 57, 0
1, 296452, Note_off_c, 13, 61, 0
1, 296458, Note_off_c, 6, 76, 0
1, 296632, Note_off_c, 0, 66, 64
1, 296632, Note_off_c, 0, 71, 64
1, 296632, Note_off_c, 2, 73, 64
1, 296632, Note_off_c, 2, 81, 64
1, 296632, Note_off_c, 3, 73, 64
1, 296632, Note_off_c, 3, 76, 64
1, 296632, Note_off_c, 4, 83, 0
1, 296632, Note_off_c, 5, 50, 0
1, 296632, Note_off_c, 5, 57, 0
1, 296640, Note_on_c, 0, 61, 82
1, 296640, Note_on_c, 0, 68, 82
1, 296640, Note_on_c, 1, 66, 77
1, 296640, Note_on_c, 2, 69, 100
1, 296640, Note_on_c, 2, 78, 100
1, 296640, Note_on_c, 3, 64, 100
1, 296640, Note_on_c, 3, 69, 100
1, 296640, Note_on_c, 4, 80, 100
1, 296640, Note_on_c, 5, 52, 100
1, 296640, Note_on_c, 5, 57, 100
1, 296640, Note_on_c, 7, 64, 72
1, 296640, Note_on_c, 7, 69, 77
1, 296640, Note_on_c, 7, 76, 75
1, 296640, Note_on_c, 8, 59, 100
1, 296640, Note_on_c, 8, 61, 100
1, 296640, Note_on_c, 13, 40, 100
1, 296640, Note_on_c, 13, 45, 100
1, 296792, Note_off_c, 1, 64, 0
1, 296848, Note_off_c, 7, 69, 0
1, 296862, Note_off_c, 7, 64, 0
1, 296882, Note_off_c, 7, 76, 0
1, 296922, Note_on_c, 10, 64, 68
1, 296922, Note_on_c, 10, 69, 74
1, 296922, Note_on_c, 10, 76, 74
1, 296932, Note_off_c, 8, 59, 0
1, 296932, Note_off_c, 8, 61, 0
1, 296932, Note_off_c, 13, 40, 0
1, 296932, Note_off_c, 13, 45, 0
1, 297112, Note_off_c, 0, 61, 64
1, 297112, Note_off_c, 0, 68, 64
1, 297112, Note_off_c, 2, 69, 64
1, 297112, Note_off_c, 2, 78, 64
1, 297112, Note_off_c, 3, 64, 64
1, 297112, Note_off_c, 3, 69, 64
1, 297112, Note_off_c, 4, 80, 0
1, 297120, Note_on_c, 6, 64, 72
1, 297120, Note_on_c, 6, 69, 75
1, 297120, Note_on_c, 6, 76, 73
1, 297120, Note_on_c, 8, 40, 100
1, 297120, Note_on_c, 8, 45, 100
1, 297120, Note_on_c, 13, 59, 100
1, 297120, Note_on_c, 13, 61, 100
1, 297182, Note_off_c, 10, 69, 0
1, 297212, Note_off_c, 10, 76, 0
1, 297216, Note_off_c, 10, 64, 0
1, 297284, Note_off_c, 1, 66, 0
1, 297408, Note_off_c, 6, 76, 0
1, 297410, Note_off_c, 6, 69, 0
1, 297412, Note_off_c, 8, 40, 0
1, 297412, Note_off_c, 8, 45, 0
1, 297412, Note_off_c, 13, 59, 0
1, 297412, Note_off_c, 13, 61, 0
1, 297418, Note_off_c, 6, 64, 0
1, 297600, Note_on_c, 0, 61, 77
1, 297600, Note_on_c, 0, 68, 77
1, 297600, Note_on_c, 1, 59, 65
1, 297600, Note_on_c, 2, 71, 100
1, 297600, Note_on_c, 2, 80, 100
1, 297600, Note_on_c, 3, 71, 100
1, 297600, Note_on_c, 3, 76, 100
1, 297600, Note_on_c, 4, 80, 100
1, 297600, Note_on_c, 7, 64, 70
1, 297600, Note_on_c, 7, 69, 78
1, 297600, Note_on_c, 7, 76, 77
1, 297600, Note_on_c, 8, 59, 100
1, 297600, Note_on_c, 8, 61, 100
1, 297600, Note_on_c, 13, 40, 100
1, 297600, Note_on_c, 13, 45, 100
1, 297842, Note_off_c, 7, 64, 0
1, 297864, Note_off_c, 7, 76, 0
1, 297882, Note_on_c, 10, 64, 73
1, 297882, Note_on_c, 10, 69, 82
1, 297882, Note_on_c, 10, 76, 77
1, 297888, Note_off_c, 7, 69, 0
1, 297892, Note_off_c, 8, 59, 0
1, 297892, Note_off_c, 8, 61, 0
1, 297892, Note_off_c, 13, 40, 0
1, 297892, Note_off_c, 13, 45, 0
1, 298072, Note_off_c, 0, 61, 64
1, 298072, Note_off_c, 0, 68, 64
1, 298072, Note_off_c, 2, 71, 64
1, 298072, Note_off_c, 2, 80, 64
1, 298072, Note_off_c, 3, 71, 64
1, 298072, Note_off_c, 3, 76, 64
1, 298072, Note_off_c, 4, 80, 0
1, 298080, Note_on_c, 0, 64, 75
1, 298080, Note_on_c, 0, 69, 75
1, 298080, Note_on_c, 1, 69, 74
1, 298080, Note_on_c, 2, 69, 100
1, 298080, Note_on_c, 2, 78, 100
1, 298080, Note_on_c, 3, 66, 100
1, 298080, Note_on_c, 3, 69, 100
1, 298080, Note_on_c, 4, 81, 100
1, 298080, Note_on_c, 6, 64, 69
1, 298080, Note_on_c, 6, 69, 70
1, 298080, Note_on_c, 6, 76, 72
1, 298080, Note_on_c, 8, 40, 100
1, 298080, Note_on_c, 8, 45, 100
1, 298080, Note_on_c, 13, 59, 100
1, 298080, Note_on_c, 13, 61, 100
1, 298160, Note_off_c, 10, 69, 0
1, 298172, Note_off_c, 10, 64, 0
1, 298174, Note_off_c, 1, 59, 0
1, 298180, Note_off_c, 10, 76, 0
1, 298344, Note_off_c, 6, 69, 0
1, 298368, Note_off_c, 6, 64, 0
1, 298372, Note_off_c, 8, 40, 0
1, 298372, Note_off_c, 8, 45, 0
1, 298372, Note_off_c, 13, 59, 0
1, 298372, Note_off_c, 13, 61, 0
1, 298384, Note_off_c, 6, 76, 0
1, 298552, Note_off_c, 0, 64, 64
1, 298552, Note_off_c, 0, 69, 64
1, 298552, Note_off_c, 2, 69, 64
1, 298552, Note_off_c, 2, 78, 64
1, 298552, Note_off_c, 3, 66, 64
1, 298552, Note_off_c, 3, 69, 64
1, 298552, Note_off_c, 4, 81, 0
1, 298560, Note_on_c, 0, 68, 73
1, 298560, Note_on_c, 0, 73, 73
1, 298560, Note_on_c, 1, 64, 68
1, 298560, Note_on_c, 2, 73, 100
1, 298560, Note_on_c, 2, 81, 100
1, 298560, Note_on_c, 3, 73, 100
1, 298560, Note_on_c, 3, 76, 100
1, 298560, Note_on_c, 4, 85, 100
1, 298560, Note_on_c, 7, 64, 70
1, 298560, Note_on_c, 7, 69, 72
1, 298560, Note_on_c, 7, 76, 77
1, 298560, Note_on_c, 8, 59, 100
1, 298560, Note_on_c, 8, 61, 100
1, 298560, Note_on_c, 13, 40, 100
1, 298560, Note_on_c, 13, 45, 100
1, 298772, Note_off_c, 1, 69, 0
1, 298814, Note_off_c, 7, 64, 0
1, 298826, Note_off_c, 7, 69, 0
1, 298842, Note_on_c, 10, 64, 72
1, 298842, Note_on_c, 10, 69, 75
1, 298842, Note_on_c, 10, 76, 73
1, 298852, Note_off_c, 8, 59, 0
1, 298852, Note_off_c, 8, 61, 0
1, 298852, Note_off_c, 13, 40, 0
1, 298852, Note_off_c, 13, 45, 0
1, 298882, Note_off_c, 7, 76, 0
1, 299032, Note_off_c, 0, 68, 64
1, 299032, Note_off_c, 0, 73, 64
1, 299032, Note_off_c, 2, 73, 64
1, 299032, Note_off_c, 2, 81, 64
1, 299032, Note_off_c, 3, 73, 64
1, 299032, Note_off_c, 3, 76, 64
1, 299032, Note_off_c, 4, 85, 0
1, 299040, Note_on_c, 6, 64, 68
1, 299040, Note_on_c, 6, 69, 77
1, 299040, Note_on_c, 6, 76, 73
1, 299040, Note_on_c, 8, 40, 100
1, 299040, Note_on_c, 8, 45, 100
1, 299040, Note_on_c, 13, 59, 100
1, 299040, Note_on_c, 13, 61, 100
1, 299130, Note_off_c, 10, 76, 0
1, 299132, Note_off_c, 10, 69, 0
1, 299140, Note_off_c, 10, 64, 0
1, 299174, Note_off_c, 1, 64, 0
1, 299306, Note_off_c, 6, 64, 0
1, 299324, Note_off_c, 6, 69, 0
1, 299324, Note_off_c, 6, 76, 0
1, 299332, Note_off_c, 8, 40, 0
1, 299332, Note_off_c, 8, 45, 0
1, 299332, Note_off_c, 13, 59, 0
1, 299332, Note_off_c, 13, 61, 0
1, 299520, Note_on_c, 0, 66, 68
1, 299520, Note_on_c, 0, 71, 68
1, 299520, Note_on_c, 1, 66, 77
1, 299520, Note_on_c, 2, 71, 100
1, 299520, Note_on_c, 2, 80, 100
1, 299520, Note_on_c, 3, 71, 100
1, 299520, Note_on_c, 3, 76, 100
1, 299520, Note_on_c, 4, 83, 100
1, 299520, Note_on_c, 7, 64, 73
1, 299520, Note_on_c, 7, 69, 77
1, 299520, Note_on_c, 7, 76, 74
1, 299520, Note_on_c, 8, 59, 100
1, 299520, Note_on_c, 8, 61, 100
1, 299520, Note_on_c, 13, 40, 100
1, 299520, Note_on_c, 13, 45, 100
1, 299802, Note_on_c, 10, 64, 69
1, 299802, Note_on_c, 10, 69, 70
1, 299802, Note_on_c, 10, 76, 72
1, 299804, Note_off_c, 7, 69, 0
1, 299812, Note_off_c, 8, 59, 0
1, 299812, Note_off_c, 8, 61, 0
1, 299812, Note_off_c, 13, 40, 0
1, 299812, Note_off_c, 13, 45, 0
1, 299836, Note_off_c, 7, 76, 0
1, 299842, Note_off_c, 7, 64, 0
1, 299992, Note_off_c, 0, 66, 64
1, 299992, Note_off_c, 0, 71, 64
1, 299992, Note_off_c, 2, 71, 64
1, 299992, Note_off_c, 2, 80, 64
1, 299992, Note_off_c, 3, 71, 64
1, 299992, Note_off_c, 3, 76, 64
1, 299992, Note_off_c, 4, 83, 0
1, 300000, Note_on_c, 0, 61, 66
1, 300000, Note_on_c, 0, 68, 66
1, 300000, Note_on_c, 1, 61, 70
1, 300000, Note_on_c, 2, 69, 100
1, 300000, Note_on_c, 2, 78, 100
1, 300000, Note_on_c, 3, 64, 100
1, 300000, Note_on_c, 3, 69, 100
1, 300000, Note_on_c, 4, 80, 100
1, 300000, Note_on_c, 6, 64, 72
1, 300000, Note_on_c, 6, 69, 52
1, 300000, Note_on_c, 6, 76, 72
1, 300000, Note_on_c, 8, 40, 100
1, 300000, Note_on_c, 8, 45, 100
1, 300000, Note_on_c, 13, 59, 100
1, 300000, Note_on_c, 13, 61, 100
1, 300066, Note_off_c, 10, 69, 0
1, 300090, Note_off_c, 10, 64, 0
1, 300106, Note_off_c, 10, 76, 0
1, 300152, Note_off_c, 6, 69, 0
1, 300162, Note_off_c, 1, 66, 0
1, 300240, Note_off_c, 6, 64, 0
1, 300246, Note_off_c, 6, 76, 0
1, 300292, Note_off_c, 8, 40, 0
1, 300292, Note_off_c, 8, 45, 0
1, 300292, Note_off_c, 13, 59, 0
1, 300292, Note_off_c, 13, 61, 0
1, 300472, Note_off_c, 0, 61, 64
1, 300472, Note_off_c, 0, 68, 64
1, 300472, Note_off_c, 2, 69, 64
1, 300472, Note_off_c, 2, 78, 64
1, 300472, Note_off_c, 3, 64, 64
1, 300472, Note_off_c, 3, 69, 64
1, 300472, Note_off_c, 4, 80, 0
1, 300480, Note_on_c, 7, 64, 68
1, 300480, Note_on_c, 7, 69, 70
1, 300480, Note_on_c, 7, 76, 72
1, 300480, Note_on_c, 8, 59, 100
1, 300480, Note_on_c, 8, 61, 100
1, 300480, Note_on_c, 13, 40, 100
1, 300480, Note_on_c, 13, 45, 100
1, 300628, Note_off_c, 1, 61, 0
1, 300762, Note_on_c, 10, 64, 68
1, 300762, Note_on_c, 10, 69, 77
1, 300762, Note_on_c, 10, 76, 73
1, 300770, Note_off_c, 7, 69, 0
1, 300772, Note_off_c, 8, 59, 0
1, 300772, Note_off_c, 8, 61, 0
1, 300772, Note_off_c, 13, 40, 0
1, 300772, Note_off_c, 13, 45, 0
1, 300788, Note_off_c, 7, 76, 0
1, 300794, Note_off_c, 7, 64, 0
1, 300960, Note_on_c, 0, 64, 61
1, 300960, Note_on_c, 0, 69, 61
1, 300960, Note_on_c, 1, 69, 77
1, 300960, Note_on_c, 2, 71, 100
1, 300960, Note_on_c, 2, 80, 100
1, 300960, Note_on_c, 3, 71, 100
1, 300960, Note_on_c, 3, 76, 100
1, 300960, Note_on_c, 4, 81, 100
1, 300960, Note_on_c, 6, 64, 68
1, 300960, Note_on_c, 6, 69, 70
1, 300960, Note_on_c, 6, 76, 74
1, 300960, Note_on_c, 8, 40, 100
1, 300960, Note_on_c, 8, 45, 100
1, 300960, Note_on_c, 13, 59, 100
1, 300960, Note_on_c, 13, 61, 100
1, 301028, Note_off_c, 10, 64, 0
1, 301046, Note_off_c, 10, 69, 0
1, 301046, Note_off_c, 10, 76, 0
1, 301192, Note_off_c, 6, 69, 0
1, 301202, Note_off_c, 6, 64, 0
1, 301210, Note_off_c, 6, 76, 0
1, 301252, Note_off_c, 8, 40, 0
1, 301252, Note_off_c, 8, 45, 0
1, 301252, Note_off_c, 13, 59, 0
1, 301252, Note_off_c, 13, 61, 0
1, 301432, Note_off_c, 0, 64, 64
1, 301432, Note_off_c, 0, 69, 64
1, 301432, Note_off_c, 2, 71, 64
1, 301432, Note_off_c, 2, 80, 64
1, 301432, Note_off_c, 3, 71, 64
1, 301432, Note_off_c, 3, 76, 64
1, 301432, Note_off_c, 4, 81, 0
1, 301440, Note_on_c, 7, 64, 68
1, 301440, Note_on_c, 7, 69, 70
1, 301440, Note_on_c, 7, 76, 73
1, 301440, Note_on_c, 8, 59, 100
1, 301440, Note_on_c, 8, 61, 100
1, 301440, Note_on_c, 13, 40, 100
1, 301440, Note_on_c, 13, 45, 100
1, 301608, Note_off_c, 1, 69, 0
1, 301688, Note_off_c, 7, 64, 0
1, 301702, Note_off_c, 7, 69, 0
1, 301702, Note_off_c, 7, 76, 0
1, 301722, Note_on_c, 10, 64, 72
1, 301722, Note_on_c, 10, 69, 52
1, 301722, Note_on_c, 10, 76, 72
1, 301732, Note_off_c, 8, 59, 0
1, 301732, Note_off_c, 8, 61, 0
1, 301732, Note_off_c, 13, 40, 0
1, 301732, Note_off_c, 13, 45, 0
1, 301874, Note_off_c, 10, 69, 0
1, 301920, Note_on_c, 0, 66, 58
1, 301920, Note_on_c, 0, 71, 58
1, 301920, Note_on_c, 1, 64, 68
1, 301920, Note_on_c, 2, 73, 100
1, 301920, Note_on_c, 2, 81, 100
1, 301920, Note_on_c, 3, 73, 100
1, 301920, Note_on_c, 3, 76, 100
1, 301920, Note_on_c, 4, 83, 100
1, 301920, Note_on_c, 6, 64, 68
1, 301920, Note_on_c, 6, 69, 69
1, 301920, Note_on_c, 6, 76, 72
1, 301920, Note_on_c, 8, 40, 100
1, 301920, Note_on_c, 8, 45, 100
1, 301920, Note_on_c, 13, 59, 100
1, 301920, Note_on_c, 13, 61, 100
1, 301962, Note_off_c, 10, 64, 0
1, 301968, Note_off_c, 10, 76, 0
1, 302136, Note_off_c, 6, 76, 0
1, 302138, Note_off_c, 6, 69, 0
1, 302152, Note_off_c, 6, 64, 0
1, 302212, Note_off_c, 8, 40, 0
1, 302212, Note_off_c, 8, 45, 0
1, 302212, Note_off_c, 13, 59, 0
1, 302212, Note_off_c, 13, 61, 0
1, 302364, Note_off_c, 1, 64, 0
1, 302392, Note_off_c, 0, 66, 64
1, 302392, Note_off_c, 0, 71, 64
1, 302392, Note_off_c, 2, 73, 64
1, 302392, Note_off_c, 2, 81, 64
1, 302392, Note_off_c, 3, 73, 64
1, 302392, Note_off_c, 3, 76, 64
1, 302392, Note_off_c, 4, 83, 0
1, 302392, Note_off_c, 5, 52, 0
1, 302392, Note_off_c, 5, 57, 0
1, 302400, Note_on_c, 0, 61, 56
1, 302400, Note_on_c, 0, 68, 56
1, 302400, Note_on_c, 1, 66, 78
1, 302400, Note_on_c, 2, 69, 100
1, 302400, Note_on_c, 2, 78, 100
1, 302400, Note_on_c, 3, 64, 100
1, 302400, Note_on_c, 3, 69, 100
1, 302400, Note_on_c, 4, 80, 100
1, 302400, Note_on_c, 5, 50, 100
1, 302400, Note_on_c, 5, 57, 100
1, 302400, Note_on_c, 7, 64, 70
1, 302400, Note_on_c, 7, 69, 83
1, 302400, Note_on_c, 7, 76, 74
1, 302400, Note_on_c, 8, 57, 100
1, 302400, Note_on_c, 8, 61, 100
1, 302400, Note_on_c, 13, 38, 100
1, 302400, Note_on_c, 13, 45, 100
1, 302640, Note_off_c, 7, 64, 0
1, 302640, Note_off_c, 7, 76, 0
1, 302650, Note_off_c, 7, 69, 0
1, 302682, Note_on_c, 10, 64, 68
1, 302682, Note_on_c, 10, 69, 70
1, 302682, Note_on_c, 10, 76, 74
1, 302692, Note_off_c, 8, 57, 0
1, 302692, Note_off_c, 8, 61, 0
1, 302692, Note_off_c, 13, 38, 0
1, 302692, Note_off_c, 13, 45, 0
1, 302872, Note_off_c, 0, 61, 64
1, 302872, Note_off_c, 0, 68, 64
1, 302872, Note_off_c, 2, 69, 64
1, 302872, Note_off_c, 2, 78, 64
1, 302872, Note_off_c, 3, 64, 64
1, 302872, Note_off_c, 3, 69, 64
1, 302872, Note_off_c, 4, 80, 0
1, 302880, Note_on_c, 6, 64, 67
1, 302880, Note_on_c, 6, 69, 67
1, 302880, Note_on_c, 6, 76, 72
1, 302880, Note_on_c, 8, 38, 100
1, 302880, Note_on_c, 8, 45, 100
1, 302880, Note_on_c, 13, 57, 100
1, 302880, Note_on_c, 13, 61, 100
1, 302914, Note_off_c, 10, 69, 0
1, 302924, Note_off_c, 10, 64, 0
1, 302932, Note_off_c, 10, 76, 0
1, 303068, Note_off_c, 1, 66, 0
1, 303126, Note_off_c, 6, 64, 0
1, 303130, Note_off_c, 6, 69, 0
1, 303146, Note_off_c, 6, 76, 0
1, 303172, Note_off_c, 8, 38, 0
1, 303172, Note_off_c, 8, 45, 0
1, 303172, Note_off_c, 13, 57, 0
1, 303172, Note_off_c, 13, 61, 0
1, 303360, Note_on_c, 0, 61, 51
1, 303360, Note_on_c, 0, 68, 51
1, 303360, Note_on_c, 1, 59, 74
1, 303360, Note_on_c, 2, 71, 100
1, 303360, Note_on_c, 2, 80, 100
1, 303360, Note_on_c, 3, 71, 100
1, 303360, Note_on_c, 3, 76, 100
1, 303360, Note_on_c, 4, 80, 100
1, 303360, Note_on_c, 7, 64, 67
1, 303360, Note_on_c, 7, 69, 78
1, 303360, Note_on_c, 7, 76, 73
1, 303360, Note_on_c, 8, 57, 100
1, 303360, Note_on_c, 8, 61, 100
1, 303360, Note_on_c, 13, 38, 100
1, 303360, Note_on_c, 13, 45, 100
1, 303610, Note_off_c, 7, 76, 0
1, 303616, Note_off_c, 7, 69, 0
1, 303624, Note_off_c, 7, 64, 0
1, 303642, Note_on_c, 10, 64, 68
1, 303642, Note_on_c, 10, 69, 69
1, 303642, Note_on_c, 10, 76, 72
1, 303652, Note_off_c, 8, 57, 0
1, 303652, Note_off_c, 8, 61, 0
1, 303652, Note_off_c, 13, 38, 0
1, 303652, Note_off_c, 13, 45, 0
1, 303832, Note_off_c, 0, 61, 64
1, 303832, Note_off_c, 0, 68, 64
1, 303832, Note_off_c, 2, 71, 64
1, 303832, Note_off_c, 2, 80, 64
1, 303832, Note_off_c, 3, 71, 64
1, 303832, Note_off_c, 3, 76, 64
1, 303832, Note_off_c, 4, 80, 0
1, 303840, Note_on_c, 0, 64, 49
1, 303840, Note_on_c, 0, 69, 49
1, 303840, Note_on_c, 1, 69, 75
1, 303840, Note_on_c, 2, 69, 100
1, 303840, Note_on_c, 2, 78, 100
1, 303840, Note_on_c, 3, 66, 100
1, 303840, Note_on_c, 3, 69, 100
1, 303840, Note_on_c, 4, 81, 100
1, 303840, Note_on_c, 6, 64, 67
1, 303840, Note_on_c, 6, 69, 63
1, 303840, Note_on_c, 6, 76, 72
1, 303840, Note_on_c, 8, 38, 100
1, 303840, Note_on_c, 8, 45, 100
1, 303840, Note_on_c, 13, 57, 100
1, 303840, Note_on_c, 13, 61, 100
1, 303848, Note_off_c, 1, 59, 0
1, 303858, Note_off_c, 10, 76, 0
1, 303860, Note_off_c, 10, 69, 0
1, 303874, Note_off_c, 10, 64, 0
1, 304088, Note_off_c, 6, 69, 0
1, 304116, Note_off_c, 6, 64, 0
1, 304132, Note_off_c, 6, 76, 0
1, 304132, Note_off_c, 8, 38, 0
1, 304132, Note_off_c, 8, 45, 0
1, 304132, Note_off_c, 13, 57, 0
1, 304132, Note_off_c, 13, 61, 0
1, 304312, Note_off_c, 0, 64, 64
1, 304312, Note_off_c, 0, 69, 64
1, 304312, Note_off_c, 2, 69, 64
1, 304312, Note_off_c, 2, 78, 64
1, 304312, Note_off_c, 3, 66, 64
1, 304312, Note_off_c, 3, 69, 64
1, 304312, Note_off_c, 4, 81, 0
1, 304320, Note_on_c, 0, 68, 46
1, 304320, Note_on_c, 0, 73, 46
1, 304320, Note_on_c, 1, 64, 73
1, 304320, Note_on_c, 2, 73, 100
1, 304320, Note_on_c, 2, 81, 100
1, 304320, Note_on_c, 3, 73, 100
1, 304320, Note_on_c, 3, 76, 100
1, 304320, Note_on_c, 4, 85, 100
1, 304320, Note_on_c, 7, 64, 69
1, 304320, Note_on_c, 7, 69, 70
1, 304320, Note_on_c, 7, 76, 73
1, 304320, Note_on_c, 8, 57, 100
1, 304320, Note_on_c, 8, 61, 100
1, 304320, Note_on_c, 13, 38, 100
1, 304320, Note_on_c, 13, 45, 100
1, 304446, Note_off_c, 1, 69, 0
1, 304540, Note_off_c, 7, 69, 0
1, 304562, Note_off_c, 7, 76, 0
1, 304572, Note_off_c, 7, 64, 0
1, 304602, Note_on_c, 10, 64, 67
1, 304602, Note_on_c, 10, 69, 67
1, 304602, Note_on_c, 10, 76, 72
1, 304612, Note_off_c, 8, 57, 0
1, 304612, Note_off_c, 8, 61, 0
1, 304612, Note_off_c, 13, 38, 0
1, 304612, Note_off_c, 13, 45, 0
1, 304792, Note_off_c, 0, 68, 64
1, 304792, Note_off_c, 0, 73, 64
1, 304792, Note_off_c, 2, 73, 64
1, 304792, Note_off_c, 2, 81, 64
1, 304792, Note_off_c, 3, 73, 64
1, 304792, Note_off_c, 3, 76, 64
1, 304792, Note_off_c, 4, 85, 0
1, 304800, Note_on_c, 6, 64, 68
1, 304800, Note_on_c, 6, 69, 66
1, 304800, Note_on_c, 6, 76, 70
1, 304800, Note_on_c, 8, 38, 100
1, 304800, Note_on_c, 8, 45, 100
1, 304800, Note_on_c, 13, 57, 100
1, 304800, Note_on_c, 13, 61, 100
1, 304848, Note_off_c, 10, 64, 0
1, 304852, Note_off_c, 10, 69, 0
1, 304868, Note_off_c, 10, 76, 0
1, 304996, Note_off_c, 6, 69, 0
1, 305020, Note_off_c, 6, 64, 0
1, 305026, Note_off_c, 1, 64, 0
1, 305038, Note_off_c, 6, 76, 0
1, 305092, Note_off_c, 8, 38, 0
1, 305092, Note_off_c, 8, 45, 0
1, 305092, Note_off_c, 13, 57, 0
1, 305092, Note_off_c, 13, 61, 0
1, 305272, Note_off_c, 5, 50, 0
1, 305272, Note_off_c, 5, 57, 0
1, 305280, Note_on_c, 0, 66, 42
1, 305280, Note_on_c, 0, 71, 42
1, 305280, Note_on_c, 1, 66, 68
1, 305280, Note_on_c, 2, 71, 100
1, 305280, Note_on_c, 2, 80, 100
1, 305280, Note_on_c, 3, 71, 100
1, 305280, Note_on_c, 3, 76, 100
1, 305280, Note_on_c, 4, 83, 100
1, 305280, Note_on_c, 5, 52, 100
1, 305280, Note_on_c, 5, 57, 100
1, 305280, Note_on_c, 7, 64, 69
1, 305280, Note_on_c, 7, 69, 75
1, 305280, Note_on_c, 7, 76, 73
1, 305280, Note_on_c, 8, 59, 100
1, 305280, Note_on_c, 8, 61, 100
1, 305280, Note_on_c, 13, 40, 100
1, 305280, Note_on_c, 13, 45, 100
1, 305494, Note_off_c, 7, 69, 0
1, 305510, Note_off_c, 7, 64, 0
1, 305524, Note_off_c, 7, 76, 0
1, 305562, Note_on_c, 10, 64, 67
1, 305562, Note_on_c, 10, 69, 63
1, 305562, Note_on_c, 10, 76, 72
1, 305572, Note_off_c, 8, 59, 0
1, 305572, Note_off_c, 8, 61, 0
1, 305572, Note_off_c, 13, 40, 0
1, 305572, Note_off_c, 13, 45, 0
1, 305752, Note_off_c, 0, 66, 64
1, 305752, Note_off_c, 0, 71, 64
1, 305752, Note_off_c, 2, 71, 64
1, 305752, Note_off_c, 2, 80, 64
1, 305752, Note_off_c, 3, 71, 64
1, 305752, Note_off_c, 3, 76, 64
1, 305752, Note_off_c, 4, 83, 0
1, 305760, Note_on_c, 0, 61, 41
1, 305760, Note_on_c, 0, 68, 41
1, 305760, Note_on_c, 1, 61, 68
1, 305760, Note_on_c, 2, 69, 100
1, 305760, Note_on_c, 2, 78, 100
1, 305760, Note_on_c, 3, 64, 100
1, 305760, Note_on_c, 3, 69, 100
1, 305760, Note_on_c, 4, 80, 100
1, 305760, Note_on_c, 6, 64, 68
1, 305760, Note_on_c, 6, 69, 63
1, 305760, Note_on_c, 6, 76, 72
1, 305760, Note_on_c, 8, 40, 100
1, 305760, Note_on_c, 8, 45, 100
1, 305760, Note_on_c, 13, 59, 100
1, 305760, Note_on_c, 13, 61, 100
1, 305796, Note_off_c, 1, 66, 0
1, 305810, Note_off_c, 10, 69, 0
1, 305838, Note_off_c, 10, 64, 0
1, 305854, Note_off_c, 10, 76, 0
1, 305970, Note_off_c, 6, 64, 0
1, 306004, Note_off_c, 6, 76, 0
1, 306022, Note_off_c, 6, 69, 0
1, 306052, Note_off_c, 8, 40, 0
1, 306052, Note_off_c, 8, 45, 0
1, 306052, Note_off_c, 13, 59, 0
1, 306052, Note_off_c, 13, 61, 0
1, 306232, Note_off_c, 0, 61, 64
1, 306232, Note_off_c, 0, 68, 64
1, 306232, Note_off_c, 2, 69, 64
1, 306232, Note_off_c, 2, 78, 64
1, 306232, Note_off_c, 3, 64, 64
1, 306232, Note_off_c, 3, 69, 64
1, 306232, Note_off_c, 4, 80, 0
1, 306240, Note_on_c, 7, 64, 68
1, 306240, Note_on_c, 7, 69, 74
1, 306240, Note_on_c, 7, 76, 74
1, 306240, Note_on_c, 8, 59, 100
1, 306240, Note_on_c, 8, 61, 100
1, 306240, Note_on_c, 13, 40, 100
1, 306240, Note_on_c, 13, 45, 100
1, 306464, Note_off_c, 7, 69, 0
1, 306504, Note_off_c, 7, 64, 0
1, 306514, Note_off_c, 7, 76, 0
1, 306522, Note_on_c, 10, 64, 68
1, 306522, Note_on_c, 10, 69, 66
1, 306522, Note_on_c, 10, 76, 70
1, 306530, Note_off_c, 1, 61, 0
1, 306532, Note_off_c, 8, 59, 0
1, 306532, Note_off_c, 8, 61, 0
1, 306532, Note_off_c, 13, 40, 0
1, 306532, Note_off_c, 13, 45, 0
1, 306718, Note_off_c, 10, 69, 0
1, 306720, Note_on_c, 0, 64, 36
1, 306720, Note_on_c, 0, 69, 36
1, 306720, Note_on_c, 1, 69, 77
1, 306720, Note_on_c, 2, 71, 100
1, 306720, Note_on_c, 2, 80, 100
1, 306720, Note_on_c, 3, 71, 100
1, 306720, Note_on_c, 3, 76, 100
1, 306720, Note_on_c, 4, 81, 100
1, 306720, Note_on_c, 6, 64, 70
1, 306720, Note_on_c, 6, 69, 69
1, 306720, Note_on_c, 6, 76, 72
1, 306720, Note_on_c, 8, 40, 100
1, 306720, Note_on_c, 8, 45, 100
1, 306720, Note_on_c, 13, 59, 100
1, 306720, Note_on_c, 13, 61, 100
1, 306742, Note_off_c, 10, 64, 0
1, 306760, Note_off_c, 10, 76, 0
1, 306954, Note_off_c, 6, 69, 0
1, 306982, Note_off_c, 6, 64, 0
1, 306982, Note_off_c, 6, 76, 0
1, 307012, Note_off_c, 8, 40, 0
1, 307012, Note_off_c, 8, 45, 0
1, 307012, Note_off_c, 13, 59, 0
1, 307012, Note_off_c, 13, 61, 0
1, 307192, Note_off_c, 0, 64, 64
1, 307192, Note_off_c, 0, 69, 64
1, 307192, Note_off_c, 2, 71, 64
1, 307192, Note_off_c, 2, 80, 64
1, 307192, Note_off_c, 3, 71, 64
1, 307192, Note_off_c, 3, 76, 64
1, 307192, Note_off_c, 4, 81, 0
1, 307200, Note_on_c, 7, 64, 68
1, 307200, Note_on_c, 7, 69, 73
1, 307200, Note_on_c, 7, 76, 73
1, 307200, Note_on_c, 8, 59, 100
1, 307200, Note_on_c, 8, 61, 100
1, 307200, Note_on_c, 13, 40, 100
1, 307200, Note_on_c, 13, 45, 100
1, 307344, Note_off_c, 1, 69, 0
1, 307424, Note_off_c, 7, 64, 0
1, 307448, Note_off_c, 7, 69, 0
1, 307448, Note_off_c, 7, 76, 0
1, 307482, Note_on_c, 10, 64, 68
1, 307482, Note_on_c, 10, 69, 63
1, 307482, Note_on_c, 10, 76, 72
1, 307492, Note_off_c, 8, 59, 0
1, 307492, Note_off_c, 8, 61, 0
1, 307492, Note_off_c, 13, 40, 0
1, 307492, Note_off_c, 13, 45, 0
1, 307680, Note_on_c, 0, 66, 32
1, 307680, Note_on_c, 0, 71, 32
1, 307680, Note_on_c, 1, 64, 70
1, 307680, Note_on_c, 2, 73, 100
1, 307680, Note_on_c, 2, 81, 100
1, 307680, Note_on_c, 3, 73, 100
1, 307680, Note_on_c, 3, 76, 100
1, 307680, Note_on_c, 4, 83, 100
1, 307680, Note_on_c, 6, 64, 68
1, 307680, Note_on_c, 6, 69, 70
1, 307680, Note_on_c, 6, 76, 70
1, 307680, Note_on_c, 8, 40, 100
1, 307680, Note_on_c, 8, 45, 100
1, 307680, Note_on_c, 13, 59, 100
1, 307680, Note_on_c, 13, 61, 100
1, 307692, Note_off_c, 10, 64, 0
1, 307726, Note_off_c, 10, 76, 0
1, 307744, Note_off_c, 10, 69, 0
1, 307888, Note_off_c, 6, 64, 0
1, 307916, Note_off_c, 6, 69, 0
1, 307920, Note_off_c, 6, 76, 0
1, 307972, Note_off_c, 8, 40, 0
1, 307972, Note_off_c, 8, 45, 0
1, 307972, Note_off_c, 13, 59, 0
1, 307972, Note_off_c, 13, 61, 0
1, 308152, Note_off_c, 0, 66, 64
1, 308152, Note_off_c, 0, 71, 64
1, 308152, Note_off_c, 2, 73, 64
1, 308152, Note_off_c, 2, 81, 64
1, 308152, Note_off_c, 3, 73, 64
1, 308152, Note_off_c, 3, 76, 64
1, 308152, Note_off_c, 4, 83, 0
1, 308152, Note_off_c, 5, 52, 0
1, 308152, Note_off_c, 5, 57, 0
1, 308160, Note_on_c, 0, 61, 29
1, 308160, Note_on_c, 0, 68, 29
1, 308160, Note_on_c, 1, 66, 77
1, 308160, Note_on_c, 2, 69, 100
1, 308160, Note_on_c, 2, 78, 100
1, 308160, Note_on_c, 3, 64, 100
1, 308160, Note_on_c, 3, 69, 100
1, 308160, Note_on_c, 4, 80, 100
1, 308160, Note_on_c, 5, 50, 100
1, 308160, Note_on_c, 5, 57, 100
1, 308160, Note_on_c, 7, 64, 66
1, 308160, Note_on_c, 7, 69, 74
1, 308160, Note_on_c, 7, 76, 73
1, 308160, Note_on_c, 8, 57, 100
1, 308160, Note_on_c, 8, 61, 100
1, 308160, Note_on_c, 13, 38, 100
1, 308160, Note_on_c, 13, 45, 100
1, 308312, Note_off_c, 1, 64, 0
1, 308394, Note_off_c, 7, 64, 0
1, 308414, Note_off_c, 7, 76, 0
1, 308442, Note_off_c, 7, 69, 0
1, 308442, Note_on_c, 10, 64, 70
1, 308442, Note_on_c, 10, 69, 69
1, 308442, Note_on_c, 10, 76, 72
1, 308452, Note_off_c, 8, 57, 0
1, 308452, Note_off_c, 8, 61, 0
1, 308452, Note_off_c, 13, 38, 0
1, 308452, Note_off_c, 13, 45, 0
1, 308632, Note_off_c, 0, 61, 64
1, 308632, Note_off_c, 0, 68, 64
1, 308632, Note_off_c, 2, 69, 64
1, 308632, Note_off_c, 2, 78, 64
1, 308632, Note_off_c, 3, 64, 64
1, 308632, Note_off_c, 3, 69, 64
1, 308632, Note_off_c, 4, 80, 0
1, 308640, Note_on_c, 6, 64, 67
1, 308640, Note_on_c, 6, 69, 73
1, 308640, Note_on_c, 6, 76, 74
1, 308640, Note_on_c, 8, 38, 100
1, 308640, Note_on_c, 8, 45, 100
1, 308640, Note_on_c, 13, 57, 100
1, 308640, Note_on_c, 13, 61, 100
1, 308676, Note_off_c, 10, 69, 0
1, 308704, Note_off_c, 10, 64, 0
1, 308704, Note_off_c, 10, 76, 0
1, 308804, Note_off_c, 1, 66, 0
1, 308856, Note_off_c, 6, 64, 0
1, 308876, Note_off_c, 6, 76, 0
1, 308886, Note_off_c, 6, 69, 0
1, 308932, Note_off_c, 8, 38, 0
1, 308932, Note_off_c, 8, 45, 0
1, 308932, Note_off_c, 13, 57, 0
1, 308932, Note_off_c, 13, 61, 0
1, 309120, Note_on_c, 0, 61, 25
1, 309120, Note_on_c, 0, 68, 25
1, 309120, Note_on_c, 1, 59, 65
1, 309120, Note_on_c, 2, 71, 100
1, 309120, Note_on_c, 2, 80, 100
1, 309120, Note_on_c, 3, 71, 100
1, 309120, Note_on_c, 3, 76, 100
1, 309120, Note_on_c, 4, 80, 100
1, 309120, Note_on_c, 7, 64, 66
1, 309120, Note_on_c, 7, 69, 77
1, 309120, Note_on_c, 7, 76, 70
1, 309120, Note_on_c, 8, 57, 100
1, 309120, Note_on_c, 8, 61, 100
1, 309120, Note_on_c, 13, 38, 100
1, 309120, Note_on_c, 13, 45, 100
1, 309348, Note_off_c, 7, 64, 0
1, 309402, Note_on_c, 10, 64, 68
1, 309402, Note_on_c, 10, 69, 70
1, 309402, Note_on_c, 10, 76, 70
1, 309406, Note_off_c, 7, 69, 0
1, 309412, Note_off_c, 8, 57, 0
1, 309412, Note_off_c, 8, 61, 0
1, 309412, Note_off_c, 13, 38, 0
1, 309412, Note_off_c, 13, 45, 0
1, 309430, Note_off_c, 7, 76, 0
1, 309592, Note_off_c, 0, 61, 64
1, 309592, Note_off_c, 0, 68, 64
1, 309592, Note_off_c, 2, 71, 64
1, 309592, Note_off_c, 2, 80, 64
1, 309592, Note_off_c, 3, 71, 64
1, 309592, Note_off_c, 3, 76, 64
1, 309592, Note_off_c, 4, 80, 0
1, 309600, Note_on_c, 0, 64, 24
1, 309600, Note_on_c, 0, 69, 24
1, 309600, Note_on_c, 1, 69, 74
1, 309600, Note_on_c, 2, 69, 100
1, 309600, Note_on_c, 2, 78, 100
1, 309600, Note_on_c, 3, 66, 100
1, 309600, Note_on_c, 3, 69, 100
1, 309600, Note_on_c, 4, 81, 100
1, 309600, Note_on_c, 6, 64, 68
1, 309600, Note_on_c, 6, 69, 74
1, 309600, Note_on_c, 6, 76, 75
1, 309600, Note_on_c, 8, 38, 100
1, 309600, Note_on_c, 8, 45, 100
1, 309600, Note_on_c, 13, 57, 100
1, 309600, Note_on_c, 13, 61, 100
1, 309610, Note_off_c, 10, 64, 0
1, 309638, Note_off_c, 10, 69, 0
1, 309642, Note_off_c, 10, 76, 0
1, 309694, Note_off_c, 1, 59, 0
1, 309872, Note_off_c, 6, 69, 0
1, 309876, Note_off_c, 6, 64, 0
1, 309890, Note_off_c, 6, 76, 0
1, 309892, Note_off_c, 8, 38, 0
1, 309892, Note_off_c, 8, 45, 0
1, 309892, Note_off_c, 13, 57, 0
1, 309892, Note_off_c, 13, 61, 0
1, 310072, Note_off_c, 0, 64, 64
1, 310072, Note_off_c, 0, 69, 64
1, 310072, Note_off_c, 2, 69, 64
1, 310072, Note_off_c, 2, 78, 64
1, 310072, Note_off_c, 3, 66, 64
1, 310072, Note_off_c, 3, 69, 64
1, 310072, Note_off_c, 4, 81, 0
1, 310072, Note_off_c, 5, 50, 0
1, 310072, Note_off_c, 5, 57, 0
1, 310080, Note_on_c, 0, 68, 20
1, 310080, Note_on_c, 0, 73, 20
1, 310080, Note_on_c, 1, 64, 68
1, 310080, Note_on_c, 2, 73, 100
1, 310080, Note_on_c, 2, 81, 100
1, 310080, Note_on_c, 3, 73, 100
1, 310080, Note_on_c, 3, 76, 100
1, 310080, Note_on_c, 4, 85, 100
1, 310080, Note_on_c, 5, 52, 100
1, 310080, Note_on_c, 5, 57, 100
1, 310080, Note_on_c, 7, 64, 65
1, 310080, Note_on_c, 7, 69, 72
1, 310080, Note_on_c, 7, 76, 72
1, 310080, Note_on_c, 8, 59, 100
1, 310080, Note_on_c, 8, 61, 100
1, 310080, Note_on_c, 13, 40, 100
1, 310080, Note_on_c, 13, 45, 100
1, 310292, Note_off_c, 1, 69, 0
1, 310356, Note_off_c, 7, 64, 0
1, 310362, Note_on_c, 10, 64, 67
1, 310362, Note_on_c, 10, 69, 73
1, 310362, Note_on_c, 10, 76, 74
1, 310370, Note_off_c, 7, 69, 0
1, 310372, Note_off_c, 7, 76, 0
1, 310372, Note_off_c, 8, 59, 0
1, 310372, Note_off_c, 8, 61, 0
1, 310372, Note_off_c, 13, 40, 0
1, 310372, Note_off_c, 13, 45, 0
1, 310552, Note_off_c, 0, 68, 64
1, 310552, Note_off_c, 0, 73, 64
1, 310552, Note_off_c, 2, 73, 64
1, 310552, Note_off_c, 2, 81, 64
1, 310552, Note_off_c, 3, 73, 64
1, 310552, Note_off_c, 3, 76, 64
1, 310552, Note_off_c, 4, 85, 0
1, 310560, Note_on_c, 6, 64, 73
1, 310560, Note_on_c, 6, 69, 80
1, 310560, Note_on_c, 6, 76, 77
1, 310560, Note_on_c, 8, 40, 100
1, 310560, Note_on_c, 8, 45, 100
1, 310560, Note_on_c, 13, 59, 100
1, 310560, Note_on_c, 13, 61, 100
1, 310578, Note_off_c, 10, 64, 0
1, 310598, Note_off_c, 10, 76, 0
1, 310608, Note_off_c, 10, 69, 0
1, 310694, Note_off_c, 1, 64, 0
1, 310822, Note_off_c, 6, 64, 0
1, 310838, Note_off_c, 6, 69, 0
1, 310848, Note_off_c, 6, 76, 0
1, 310852, Note_off_c, 8, 40, 0
1, 310852, Note_off_c, 8, 45, 0
1, 310852, Note_off_c, 13, 59, 0
1, 310852, Note_off_c, 13, 61, 0
1, 311040, Note_on_c, 1, 66, 77
1, 311040, Note_on_c, 3, 71, 100
1, 311040, Note_on_c, 3, 76, 100
1, 311040, Note_on_c, 7, 64, 67
1, 311040, Note_on_c, 7, 69, 75
1, 311040, Note_on_c, 7, 76, 70
1, 311040, Note_on_c, 8, 59, 100
1, 311040, Note_on_c, 8, 61, 100
1, 311040, Note_on_c, 13, 40, 100
1, 311040, Note_on_c, 13, 45, 100
1, 311270, Note_off_c, 7, 69, 0
1, 311288, Note_off_c, 7, 64, 0
1, 311298, Note_off_c, 7, 76, 0
1, 311322, Note_on_c, 10, 64, 68
1, 311322, Note_on_c, 10, 69, 74
1, 311322, Note_on_c, 10, 76, 75
1, 311332, Note_off_c, 8, 59, 0
1, 311332, Note_off_c, 8, 61, 0
1, 311332, Note_off_c, 13, 40, 0
1, 311332, Note_off_c, 13, 45, 0
1, 311512, Note_off_c, 3, 71, 64
1, 311512, Note_off_c, 3, 76, 64
1, 311520, Note_on_c, 1, 61, 70
1, 311520, Note_on_c, 3, 64, 100
1, 311520, Note_on_c, 3, 69, 100
1, 311520, Note_on_c, 6, 64, 68
1, 311520, Note_on_c, 6, 69, 70
1, 311520, Note_on_c, 6, 76, 74
1, 311520, Note_on_c, 8, 40, 100
1, 311520, Note_on_c, 8, 45, 100
1, 311520, Note_on_c, 13, 59, 100
1, 311520, Note_on_c, 13, 61, 100
1, 311594, Note_off_c, 10, 69, 0
1, 311598, Note_off_c, 10, 64, 0
1, 311612, Note_off_c, 10, 76, 0
1, 311682, Note_off_c, 1, 66, 0
1, 311806, Note_off_c, 6, 64, 0
1, 311812, Note_off_c, 8, 40, 0
1, 311812, Note_off_c, 8, 45, 0
1, 311812, Note_off_c, 13, 59, 0
1, 311812, Note_off_c, 13, 61, 0
1, 311818, Note_off_c, 6, 69, 0
1, 311818, Note_off_c, 6, 76, 0
1, 311992, Note_off_c, 3, 64, 64
1, 311992, Note_off_c, 3, 69, 64
1, 312000, Note_on_c, 7, 64, 66
1, 312000, Note_on_c, 7, 69, 68
1, 312000, Note_on_c, 7, 76, 72
1, 312000, Note_on_c, 8, 59, 100
1, 312000, Note_on_c, 8, 61, 100
1, 312000, Note_on_c, 13, 40, 100
1, 312000, Note_on_c, 13, 45, 100
1, 312148, Note_off_c, 1, 61, 0
1, 312260, Note_off_c, 7, 69, 0
1, 312270, Note_off_c, 7, 64, 0
1, 312274, Note_off_c, 7, 76, 0
1, 312282, Note_on_c, 10, 64, 73
1, 312282, Note_on_c, 10, 69, 80
1, 312282, Note_on_c, 10, 76, 77
1, 312292, Note_off_c, 8, 59, 0
1, 312292, Note_off_c, 8, 61, 0
1, 312292, Note_off_c, 13, 40, 0
1, 312292, Note_off_c, 13, 45, 0
1, 312480, Note_on_c, 1, 69, 77
1, 312480, Note_on_c, 3, 71, 100
1, 312480, Note_on_c, 3, 76, 100
1, 312480, Note_on_c, 6, 64, 70
1, 312480, Note_on_c, 6, 69, 74
1, 312480, Note_on_c, 6, 76, 74
1, 312480, Note_on_c, 8, 40, 100
1, 312480, Note_on_c, 8, 45, 100
1, 312480, Note_on_c, 13, 59, 100
1, 312480, Note_on_c, 13, 61, 100
1, 312544, Note_off_c, 10, 64, 0
1, 312560, Note_off_c, 10, 69, 0
1, 312570, Note_off_c, 10, 76, 0
1, 312684, Note_off_c, 6, 64, 0
1, 312714, Note_off_c, 6, 76, 0
1, 312752, Note_off_c, 6, 69, 0
1, 312772, Note_off_c, 8, 40, 0
1, 312772, Note_off_c, 8, 45, 0
1, 312772, Note_off_c, 13, 59, 0
1, 312772, Note_off_c, 13, 61, 0
1, 312952, Note_off_c, 3, 71, 64
1, 312952, Note_off_c, 3, 76, 64
1, 312960, Note_on_c, 7, 64, 62
1, 312960, Note_on_c, 7, 69, 60
1, 312960, Note_on_c, 7, 76, 70
1, 312960, Note_on_c, 8, 59, 100
1, 312960, Note_on_c, 8, 61, 100
1, 312960, Note_on_c, 13, 40, 100
1, 312960, Note_on_c, 13, 45, 100
1, 313128, Note_off_c, 1, 69, 0
1, 313220, Note_off_c, 7, 69, 0
1, 313238, Note_off_c, 7, 64, 0
1, 313242, Note_on_c, 10, 64, 68
1, 313242, Note_on_c, 10, 69, 70
1, 313242, Note_on_c, 10, 76, 74
1, 313252, Note_off_c, 8, 59, 0
1, 313252, Note_off_c, 8, 61, 0
1, 313252, Note_off_c, 13, 40, 0
1, 313252, Note_off_c, 13, 45, 0
1, 313298, Note_off_c, 7, 76, 0
1, 313440, Note_on_c, 1, 64, 68
1, 313440, Note_on_c, 3, 73, 100
1, 313440, Note_on_c, 3, 76, 100
1, 313440, Note_on_c, 6, 64, 68
1, 313440, Note_on_c, 6, 69, 68
1, 313440, Note_on_c, 6, 76, 72
1, 313440, Note_on_c, 8, 40, 100
1, 313440, Note_on_c, 8, 45, 100
1, 313440, Note_on_c, 13, 59, 100
1, 313440, Note_on_c, 13, 61, 100
1, 313528, Note_off_c, 10, 64, 0
1, 313540, Note_off_c, 10, 69, 0
1, 313540, Note_off_c, 10, 76, 0
1, 313646, Note_off_c, 6, 69, 0
1, 313654, Note_off_c, 6, 64, 0
1, 313664, Note_off_c, 6, 76, 0
1, 313732, Note_off_c, 8, 40, 0
1, 313732, Note_off_c, 8, 45, 0
1, 313732, Note_off_c, 13, 59, 0
1, 313732, Note_off_c, 13, 61, 0
1, 313884, Note_off_c, 1, 64, 0
1, 313912, Note_off_c, 3, 73, 64
1, 313912, Note_off_c, 3, 76, 64
1, 313912, Note_off_c, 5, 52, 0
1, 313912, Note_off_c, 5, 57, 0
1, 313920, Note_on_c, 1, 66, 78
1, 313920, Note_on_c, 2, 69, 100
1, 313920, Note_on_c, 2, 78, 100
1, 313920, Note_on_c, 3, 64, 100
1, 313920, Note_on_c, 3, 69, 100
1, 313920, Note_on_c, 4, 78, 100
1, 313920, Note_on_c, 5, 50, 100
1, 313920, Note_on_c, 5, 57, 100
1, 313920, Note_on_c, 7, 64, 56
1, 313920, Note_on_c, 7, 69, 69
1, 313920, Note_on_c, 7, 76, 73
1, 313920, Note_on_c, 8, 57, 100
1, 313920, Note_on_c, 8, 61, 100
1, 313920, Note_on_c, 13, 38, 100
1, 313920, Note_on_c, 13, 45, 100
1, 314186, Note_off_c, 7, 64, 0
1, 314202, Note_on_c, 10, 64, 70
1, 314202, Note_on_c, 10, 69, 74
1, 314202, Note_on_c, 10, 76, 74
1, 314212, Note_off_c, 8, 57, 0
1, 314212, Note_off_c, 8, 61, 0
1, 314212, Note_off_c, 13, 38, 0
1, 314212, Note_off_c, 13, 45, 0
1, 314214, Note_off_c, 7, 69, 0
1, 314222, Note_off_c, 7, 76, 0
1, 314392, Note_off_c, 2, 69, 64
1, 314392, Note_off_c, 2, 78, 64
1, 314392, Note_off_c, 3, 64, 64
1, 314392, Note_off_c, 3, 69, 64
1, 314392, Note_off_c, 4, 78, 0
1, 314400, Note_on_c, 6, 64, 70
1, 314400, Note_on_c, 6, 69, 70
1, 314400, Note_on_c, 6, 76, 75
1, 314400, Note_on_c, 8, 38, 100
1, 314400, Note_on_c, 8, 45, 100
1, 314400, Note_on_c, 13, 57, 100
1, 314400, Note_on_c, 13, 61, 100
1, 314406, Note_off_c, 10, 64, 0
1, 314436, Note_off_c, 10, 76, 0
1, 314474, Note_off_c, 10, 69, 0
1, 314588, Note_off_c, 1, 66, 0
1, 314628, Note_off_c, 6, 69, 0
1, 314670, Note_off_c, 6, 64, 0
1, 314692, Note_off_c, 8, 38, 0
1, 314692, Note_off_c, 8, 45, 0
1, 314692, Note_off_c, 13, 57, 0
1, 314692, Note_off_c, 13, 61, 0
1, 314708, Note_off_c, 6, 76, 0
1, 314880, Note_on_c, 0, 52, 8
1, 314880, Note_on_c, 0, 61, 8
1, 314880, Note_on_c, 1, 59, 74
1, 314880, Note_on_c, 2, 71, 100
1, 314880, Note_on_c, 2, 80, 100
1, 314880, Note_on_c, 3, 71, 100
1, 314880, Note_on_c, 3, 76, 100
1, 314880, Note_on_c, 4, 80, 100
1, 314880, Note_on_c, 7, 64, 66
1, 314880, Note_on_c, 7, 69, 70
1, 314880, Note_on_c, 7, 76, 75
1, 314880, Note_on_c, 8, 57, 100
1, 314880, Note_on_c, 8, 61, 100
1, 314880, Note_on_c, 12, 64, 8
1, 314880, Note_on_c, 12, 73, 8
1, 314880, Note_on_c, 13, 38, 100
1, 314880, Note_on_c, 13, 45, 100
1, 315112, Note_off_c, 0, 52, 64
1, 315112, Note_off_c, 0, 61, 64
1, 315130, Note_off_c, 7, 69, 0
1, 315144, Note_off_c, 7, 64, 0
1, 315162, Note_on_c, 10, 64, 68
1, 315162, Note_on_c, 10, 69, 68
1, 315162, Note_on_c, 10, 76, 72
1, 315170, Note_off_c, 7, 76, 0
1, 315172, Note_off_c, 8, 57, 0
1, 315172, Note_off_c, 8, 61, 0
1, 315172, Note_off_c, 13, 38, 0
1, 315172, Note_off_c, 13, 45, 0
1, 315352, Note_off_c, 2, 71, 64
1, 315352, Note_off_c, 2, 80, 64
1, 315352, Note_off_c, 3, 71, 64
1, 315352, Note_off_c, 3, 76, 64
1, 315352, Note_off_c, 4, 80, 0
1, 315352, Note_off_c, 12, 64, 0
1, 315352, Note_off_c, 12, 73, 0
1, 315360, Note_on_c, 0, 52, 13
1, 315360, Note_on_c, 0, 61, 13
1, 315360, Note_on_c, 1, 69, 75
1, 315360, Note_on_c, 2, 69, 100
1, 315360, Note_on_c, 2, 78, 100
1, 315360, Note_on_c, 3, 66, 100
1, 315360, Note_on_c, 3, 69, 100
1, 315360, Note_on_c, 4, 81, 100
1, 315360, Note_on_c, 6, 64, 69
1, 315360, Note_on_c, 6, 69, 69
1, 315360, Note_on_c, 6, 76, 73
1, 315360, Note_on_c, 8, 38, 100
1, 315360, Note_on_c, 8, 45, 100
1, 315360, Note_on_c, 12, 64, 13
1, 315360, Note_on_c, 12, 73, 13
1, 315360, Note_on_c, 13, 57, 100
1, 315360, Note_on_c, 13, 61, 100
1, 315368, Note_off_c, 1, 59, 0
1, 315368, Note_off_c, 10, 69, 0
1, 315376, Note_off_c, 10, 64, 0
1, 315386, Note_off_c, 10, 76, 0
1, 315592, Note_off_c, 0, 52, 64
1, 315592, Note_off_c, 0, 61, 64
1, 315626, Note_off_c, 6, 64, 0
1, 315652, Note_off_c, 8, 38, 0
1, 315652, Note_off_c, 8, 45, 0
1, 315652, Note_off_c, 13, 57, 0
1, 315652, Note_off_c, 13, 61, 0
1, 315664, Note_off_c, 6, 69, 0
1, 315664, Note_off_c, 6, 76, 0
1, 315832, Note_off_c, 2, 69, 64
1, 315832, Note_off_c, 2, 78, 64
1, 315832, Note_off_c, 3, 66, 64
1, 315832, Note_off_c, 3, 69, 64
1, 315832, Note_off_c, 4, 81, 0
1, 315832, Note_off_c, 12, 64, 0
1, 315832, Note_off_c, 12, 73, 0
1, 315840, Note_on_c, 0, 52, 19
1, 315840, Note_on_c, 0, 61, 19
1, 315840, Note_on_c, 1, 64, 73
1, 315840, Note_on_c, 2, 73, 100
1, 315840, Note_on_c, 2, 81, 100
1, 315840, Note_on_c, 3, 73, 100
1, 315840, Note_on_c, 3, 76, 100
1, 315840, Note_on_c, 4, 85, 100
1, 315840, Note_on_c, 7, 64, 66
1, 315840, Note_on_c, 7, 69, 70
1, 315840, Note_on_c, 7, 76, 75
1, 315840, Note_on_c, 8, 57, 100
1, 315840, Note_on_c, 8, 61, 100
1, 315840, Note_on_c, 12, 64, 19
1, 315840, Note_on_c, 12, 73, 19
1, 315840, Note_on_c, 13, 38, 100
1, 315840, Note_on_c, 13, 45, 100
1, 315966, Note_off_c, 1, 69, 0
1, 316072, Note_off_c, 0, 52, 64
1, 316072, Note_off_c, 0, 61, 64
1, 316090, Note_off_c, 7, 69, 0
1, 316104, Note_off_c, 7, 64, 0
1, 316122, Note_on_c, 10, 64, 70
1, 316122, Note_on_c, 10, 69, 70
1, 316122, Note_on_c, 10, 76, 75
1, 316130, Note_off_c, 7, 76, 0
1, 316132, Note_off_c, 8, 57, 0
1, 316132, Note_off_c, 8, 61, 0
1, 316132, Note_off_c, 13, 38, 0
1, 316132, Note_off_c, 13, 45, 0
1, 316312, Note_off_c, 2, 73, 64
1, 316312, Note_off_c, 2, 81, 64
1, 316312, Note_off_c, 3, 73, 64
1, 316312, Note_off_c, 3, 76, 64
1, 316312, Note_off_c, 4, 85, 0
1, 316312, Note_off_c, 12, 64, 0
1, 316312, Note_off_c, 12, 73, 0
1, 316320, Note_on_c, 0, 52, 22
1, 316320, Note_on_c, 0, 61, 22
1, 316320, Note_on_c, 6, 64, 67
1, 316320, Note_on_c, 6, 69, 63
1, 316320, Note_on_c, 6, 76, 74
1, 316320, Note_on_c, 8, 38, 100
1, 316320, Note_on_c, 8, 45, 100
1, 316320, Note_on_c, 12, 64, 22
1, 316320, Note_on_c, 12, 73, 22
1, 316320, Note_on_c, 13, 57, 100
1, 316320, Note_on_c, 13, 61, 100
1, 316350, Note_off_c, 10, 69, 0
1, 316392, Note_off_c, 10, 64, 0
1, 316430, Note_off_c, 10, 76, 0
1, 316524, Note_off_c, 6, 69, 0
1, 316546, Note_off_c, 1, 64, 0
1, 316552, Note_off_c, 0, 52, 64
1, 316552, Note_off_c, 0, 61, 64
1, 316586, Note_off_c, 6, 64, 0
1, 316586, Note_off_c, 6, 76, 0
1, 316612, Note_off_c, 8, 38, 0
1, 316612, Note_off_c, 8, 45, 0
1, 316612, Note_off_c, 13, 57, 0
1, 316612, Note_off_c, 13, 61, 0
1, 316792, Note_off_c, 12, 64, 0
1, 316792, Note_off_c, 12, 73, 0
1, 316800, Note_on_c, 0, 52, 27
1, 316800, Note_on_c, 0, 61, 27
1, 316800, Note_on_c, 1, 66, 68
1, 316800, Note_on_c, 2, 71, 100
1, 316800, Note_on_c, 2, 80, 100
1, 316800, Note_on_c, 3, 71, 100
1, 316800, Note_on_c, 3, 76, 100
1, 316800, Note_on_c, 4, 83, 100
1, 316800, Note_on_c, 7, 64, 72
1, 316800, Note_on_c, 7, 69, 80
1, 316800, Note_on_c, 7, 76, 77
1, 316800, Note_on_c, 8, 57, 100
1, 316800, Note_on_c, 8, 61, 100
1, 316800, Note_on_c, 12, 64, 27
1, 316800, Note_on_c, 12, 73, 27
1, 316800, Note_on_c, 13, 38, 100
1, 316800, Note_on_c, 13, 45, 100
1, 317032, Note_off_c, 0, 52, 64
1, 317032, Note_off_c, 0, 61, 64
1, 317040, Note_off_c, 7, 76, 0
1, 317050, Note_off_c, 7, 64, 0
1, 317050, Note_off_c, 7, 69, 0
1, 317082, Note_on_c, 10, 64, 69
1, 317082, Note_on_c, 10, 69, 69
1, 317082, Note_on_c, 10, 76, 73
1, 317092, Note_off_c, 8, 57, 0
1, 317092, Note_off_c, 8, 61, 0
1, 317092, Note_off_c, 13, 38, 0
1, 317092, Note_off_c, 13, 45, 0
1, 317272, Note_off_c, 2, 71, 64
1, 317272, Note_off_c, 2, 80, 64
1, 317272, Note_off_c, 3, 71, 64
1, 317272, Note_off_c, 3, 76, 64
1, 317272, Note_off_c, 4, 83, 0
1, 317272, Note_off_c, 12, 64, 0
1, 317272, Note_off_c, 12, 73, 0
1, 317280, Note_on_c, 0, 52, 33
1, 317280, Note_on_c, 0, 61, 33
1, 317280, Note_on_c, 1, 61, 68
1, 317280, Note_on_c, 2, 69, 100
1, 317280, Note_on_c, 2, 78, 100
1, 317280, Note_on_c, 3, 64, 100
1, 317280, Note_on_c, 3, 69, 100
1, 317280, Note_on_c, 4, 80, 100
1, 317280, Note_on_c, 6, 64, 66
1, 317280, Note_on_c, 6, 69, 63
1, 317280, Note_on_c, 6, 76, 74
1, 317280, Note_on_c, 8, 38, 100
1, 317280, Note_on_c, 8, 45, 100
1, 317280, Note_on_c, 12, 64, 33
1, 317280, Note_on_c, 12, 73, 33
1, 317280, Note_on_c, 13, 57, 100
1, 317280, Note_on_c, 13, 61, 100
1, 317316, Note_off_c, 1, 66, 0
1, 317348, Note_off_c, 10, 64, 0
1, 317386, Note_off_c, 10, 69, 0
1, 317386, Note_off_c, 10, 76, 0
1, 317510, Note_off_c, 6, 69, 0
1, 317512, Note_off_c, 0, 52, 64
1, 317512, Note_off_c, 0, 61, 64
1, 317516, Note_off_c, 6, 64, 0
1, 317554, Note_off_c, 6, 76, 0
1, 317572, Note_off_c, 8, 38, 0
1, 317572, Note_off_c, 8, 45, 0
1, 317572, Note_off_c, 13, 57, 0
1, 317572, Note_off_c, 13, 61, 0
1, 317752, Note_off_c, 2, 69, 64
1, 317752, Note_off_c, 2, 78, 64
1, 317752, Note_off_c, 3, 64, 64
1, 317752, Note_off_c, 3, 69, 64
1, 317752, Note_off_c, 4, 80, 0
1, 317752, Note_off_c, 12, 64, 0
1, 317752, Note_off_c, 12, 73, 0
1, 317760, Note_on_c, 0, 52, 38
1, 317760, Note_on_c, 0, 61, 38
1, 317760, Note_on_c, 7, 64, 70
1, 317760, Note_on_c, 7, 69, 77
1, 317760, Note_on_c, 7, 76, 77
1, 317760, Note_on_c, 8, 57, 100
1, 317760, Note_on_c, 8, 61, 100
1, 317760, Note_on_c, 12, 64, 38
1, 317760, Note_on_c, 12, 73, 38
1, 317760, Note_on_c, 13, 38, 100
1, 317760, Note_on_c, 13, 45, 100
1, 317992, Note_off_c, 0, 52, 64
1, 317992, Note_off_c, 0, 61, 64
1, 318014, Note_off_c, 7, 64, 0
1, 318042, Note_off_c, 7, 69, 0
1, 318042, Note_on_c, 10, 64, 67
1, 318042, Note_on_c, 10, 69, 63
1, 318042, Note_on_c, 10, 76, 74
1, 318050, Note_off_c, 1, 61, 0
1, 318050, Note_off_c, 7, 76, 0
1, 318052, Note_off_c, 8, 57, 0
1, 318052, Note_off_c, 8, 61, 0
1, 318052, Note_off_c, 13, 38, 0
1, 318052, Note_off_c, 13, 45, 0
1, 318232, Note_off_c, 12, 64, 0
1, 318232, Note_off_c, 12, 73, 0
1, 318240, Note_on_c, 0, 52, 41
1, 318240, Note_on_c, 0, 61, 41
1, 318240, Note_on_c, 1, 69, 77
1, 318240, Note_on_c, 2, 71, 100
1, 318240, Note_on_c, 2, 80, 100
1, 318240, Note_on_c, 3, 71, 100
1, 318240, Note_on_c, 3, 76, 100
1, 318240, Note_on_c, 4, 81, 100
1, 318240, Note_on_c, 6, 64, 68
1, 318240, Note_on_c, 6, 69, 74
1, 318240, Note_on_c, 6, 76, 74
1, 318240, Note_on_c, 8, 38, 100
1, 318240, Note_on_c, 8, 45, 100
1, 318240, Note_on_c, 12, 64, 41
1, 318240, Note_on_c, 12, 73, 41
1, 318240, Note_on_c, 13, 57, 100
1, 318240, Note_on_c, 13, 61, 100
1, 318246, Note_off_c, 10, 69, 0
1, 318308, Note_off_c, 10, 64, 0
1, 318308, Note_off_c, 10, 76, 0
1, 318472, Note_off_c, 0, 52, 64
1, 318472, Note_off_c, 0, 61, 64
1, 318500, Note_off_c, 6, 69, 0
1, 318530, Note_off_c, 6, 76, 0
1, 318532, Note_off_c, 8, 38, 0
1, 318532, Note_off_c, 8, 45, 0
1, 318532, Note_off_c, 13, 57, 0
1, 318532, Note_off_c, 13, 61, 0
1, 318534, Note_off_c, 6, 64, 0
1, 318712, Note_off_c, 2, 71, 64
1, 318712, Note_off_c, 2, 80, 64
1, 318712, Note_off_c, 3, 71, 64
1, 318712, Note_off_c, 3, 76, 64
1, 318712, Note_off_c, 4, 81, 0
1, 318712, Note_off_c, 12, 64, 0
1, 318712, Note_off_c, 12, 73, 0
1, 318720, Note_on_c, 0, 52, 46
1, 318720, Note_on_c, 0, 61, 46
1, 318720, Note_on_c, 7, 64, 70
1, 318720, Note_on_c, 7, 69, 73
1, 318720, Note_on_c, 7, 76, 74
1, 318720, Note_on_c, 8, 57, 100
1, 318720, Note_on_c, 8, 61, 100
1, 318720, Note_on_c, 12, 64, 46
1, 318720, Note_on_c, 12, 73, 46
1, 318720, Note_on_c, 13, 38, 100
1, 318720, Note_on_c, 13, 45, 100
1, 318864, Note_off_c, 1, 69, 0
1, 318952, Note_off_c, 0, 52, 64
1, 318952, Note_off_c, 0, 61, 64
1, 318960, Note_off_c, 7, 64, 0
1, 318966, Note_off_c, 7, 69, 0
1, 318980, Note_off_c, 7, 76, 0
1, 319002, Note_on_c, 10, 64, 66
1, 319002, Note_on_c, 10, 69, 63
1, 319002, Note_on_c, 10, 76, 74
1, 319012, Note_off_c, 8, 57, 0
1, 319012, Note_off_c, 8, 61, 0
1, 319012, Note_off_c, 13, 38, 0
1, 319012, Note_off_c, 13, 45, 0
1, 319192, Note_off_c, 12, 64, 0
1, 319192, Note_off_c, 12, 73, 0
1, 319200, Note_on_c, 0, 52, 52
1, 319200, Note_on_c, 0, 61, 52
1, 319200, Note_on_c, 1, 64, 70
1, 319200, Note_on_c, 2, 73, 100
1, 319200, Note_on_c, 2, 81, 100
1, 319200, Note_on_c, 3, 73, 100
1, 319200, Note_on_c, 3, 76, 100
1, 319200, Note_on_c, 4, 83, 100
1, 319200, Note_on_c, 6, 64, 73
1, 319200, Note_on_c, 6, 69, 82
1, 319200, Note_on_c, 6, 76, 77
1, 319200, Note_on_c, 8, 38, 100
1, 319200, Note_on_c, 8, 45, 100
1, 319200, Note_on_c, 12, 64, 52
1, 319200, Note_on_c, 12, 73, 52
1, 319200, Note_on_c, 13, 57, 100
1, 319200, Note_on_c, 13, 61, 100
1, 319232, Note_off_c, 10, 69, 0
1, 319238, Note_off_c, 10, 64, 0
1, 319276, Note_off_c, 10, 76, 0
1, 319432, Note_off_c, 0, 52, 64
1, 319432, Note_off_c, 0, 61, 64
1, 319478, Note_off_c, 6, 69, 0
1, 319490, Note_off_c, 6, 64, 0
1, 319492, Note_off_c, 8, 38, 0
1, 319492, Note_off_c, 8, 45, 0
1, 319492, Note_off_c, 13, 57, 0
1, 319492, Note_off_c, 13, 61, 0
1, 319498, Note_off_c, 6, 76, 0
1, 319672, Note_off_c, 2, 73, 64
1, 319672, Note_off_c, 2, 81, 64
1, 319672, Note_off_c, 3, 73, 64
1, 319672, Note_off_c, 3, 76, 64
1, 319672, Note_off_c, 4, 83, 0
1, 319672, Note_off_c, 5, 50, 0
1, 319672, Note_off_c, 5, 57, 0
1, 319672, Note_off_c, 12, 64, 0
1, 319672, Note_off_c, 12, 73, 0
1, 319680, Note_on_c, 0, 52, 57
1, 319680, Note_on_c, 0, 61, 57
1, 319680, Note_on_c, 1, 66, 77
1, 319680, Note_on_c, 2, 69, 100
1, 319680, Note_on_c, 2, 78, 100
1, 319680, Note_on_c, 3, 64, 100
1, 319680, Note_on_c, 3, 69, 100
1, 319680, Note_on_c, 4, 80, 100
1, 319680, Note_on_c, 5, 52, 100
1, 319680, Note_on_c, 5, 57, 100
1, 319680, Note_on_c, 7, 64, 72
1, 319680, Note_on_c, 7, 69, 77
1, 319680, Note_on_c, 7, 76, 75
1, 319680, Note_on_c, 8, 59, 100
1, 319680, Note_on_c, 8, 61, 100
1, 319680, Note_on_c, 12, 64, 57
1, 319680, Note_on_c, 12, 73, 57
1, 319680, Note_on_c, 13, 40, 100
1, 319680, Note_on_c, 13, 45, 100
1, 319832, Note_off_c, 1, 64, 0
1, 319888, Note_off_c, 7, 69, 0
1, 319902, Note_off_c, 7, 64, 0
1, 319912, Note_off_c, 0, 52, 64
1, 319912, Note_off_c, 0, 61, 64
1, 319922, Note_off_c, 7, 76, 0
1, 319962, Note_on_c, 10, 64, 68
1, 319962, Note_on_c, 10, 69, 74
1, 319962, Note_on_c, 10, 76, 74
1, 319972, Note_off_c, 8, 59, 0
1, 319972, Note_off_c, 8, 61, 0
1, 319972, Note_off_c, 13, 40, 0
1, 319972, Note_off_c, 13, 45, 0
1, 320152, Note_off_c, 2, 69, 64
1, 320152, Note_off_c, 2, 78, 64
1, 320152, Note_off_c, 3, 64, 64
1, 320152, Note_off_c, 3, 69, 64
1, 320152, Note_off_c, 4, 80, 0
1, 320152, Note_off_c, 12, 64, 0
1, 320152, Note_off_c, 12, 73, 0
1, 320160, Note_on_c, 0, 52, 60
1, 320160, Note_on_c, 0, 61, 60
1, 320160, Note_on_c, 6, 64, 72
1, 320160, Note_on_c, 6, 69, 75
1, 320160, Note_on_c, 6, 76, 73
1, 320160, Note_on_c, 8, 40, 100
1, 320160, Note_on_c, 8, 45, 100
1, 320160, Note_on_c, 12, 64, 60
1, 320160, Note_on_c, 12, 73, 60
1, 320160, Note_on_c, 13, 59, 100
1, 320160, Note_on_c, 13, 61, 100
1, 320222, Note_off_c, 10, 69, 0
1, 320252, Note_off_c, 10, 76, 0
1, 320256, Note_off_c, 10, 64, 0
1, 320324, Note_off_c, 1, 66, 0
1, 320392, Note_off_c, 0, 52, 64
1, 320392, Note_off_c, 0, 61, 64
1, 320448, Note_off_c, 6, 76, 0
1, 320450, Note_off_c, 6, 69, 0
1, 320452, Note_off_c, 8, 40, 0
1, 320452, Note_off_c, 8, 45, 0
1, 320452, Note_off_c, 13, 59, 0
1, 320452, Note_off_c, 13, 61, 0
1, 320458, Note_off_c, 6, 64, 0
1, 320632, Note_off_c, 12, 64, 0
1, 320632, Note_off_c, 12, 73, 0
1, 320640, Note_on_c, 0, 52, 66
1, 320640, Note_on_c, 0, 61, 66
1, 320640, Note_on_c, 1, 59, 65
1, 320640, Note_on_c, 2, 71, 100
1, 320640, Note_on_c, 2, 80, 100
1, 320640, Note_on_c, 3, 71, 100
1, 320640, Note_on_c, 3, 76, 100
1, 320640, Note_on_c, 4, 80, 100
1, 320640, Note_on_c, 7, 64, 70
1, 320640, Note_on_c, 7, 69, 78
1, 320640, Note_on_c, 7, 76, 77
1, 320640, Note_on_c, 8, 59, 100
1, 320640, Note_on_c, 8, 61, 100
1, 320640, Note_on_c, 12, 64, 66
1, 320640, Note_on_c, 12, 73, 66
1, 320640, Note_on_c, 13, 40, 100
1, 320640, Note_on_c, 13, 45, 100
1, 320872, Note_off_c, 0, 52, 64
1, 320872, Note_off_c, 0, 61, 64
1, 320882, Note_off_c, 7, 64, 0
1, 320904, Note_off_c, 7, 76, 0
1, 320922, Note_on_c, 10, 64, 73
1, 320922, Note_on_c, 10, 69, 82
1, 320922, Note_on_c, 10, 76, 77
1, 320928, Note_off_c, 7, 69, 0
1, 320932, Note_off_c, 8, 59, 0
1, 320932, Note_off_c, 8, 61, 0
1, 320932, Note_off_c, 13, 40, 0
1, 320932, Note_off_c, 13, 45, 0
1, 321112, Note_off_c, 2, 71, 64
1, 321112, Note_off_c, 2, 80, 64
1, 321112, Note_off_c, 3, 71, 64
1, 321112, Note_off_c, 3, 76, 64
1, 321112, Note_off_c, 4, 80, 0
1, 321112, Note_off_c, 12, 64, 0
1, 321112, Note_off_c, 12, 73, 0
1, 321120, Note_on_c, 0, 52, 71
1, 321120, Note_on_c, 0, 61, 71
1, 321120, Note_on_c, 1, 69, 74
1, 321120, Note_on_c, 2, 69, 100
1, 321120, Note_on_c, 2, 78, 100
1, 321120, Note_on_c, 3, 66, 100
1, 321120, Note_on_c, 3, 69, 100
1, 321120, Note_on_c, 4, 81, 100
1, 321120, Note_on_c, 6, 64, 69
1, 321120, Note_on_c, 6, 69, 70
1, 321120, Note_on_c, 6, 76, 72
1, 321120, Note_on_c, 8, 40, 100
1, 321120, Note_on_c, 8, 45, 100
1, 321120, Note_on_c, 12, 64, 71
1, 321120, Note_on_c, 12, 73, 71
1, 321120, Note_on_c, 13, 59, 100
1, 321120, Note_on_c, 13, 61, 100
1, 321200, Note_off_c, 10, 69, 0
1, 321212, Note_off_c, 10, 64, 0
1, 321214, Note_off_c, 1, 59, 0
1, 321220, Note_off_c, 10, 76, 0
1, 321352, Note_off_c, 0, 52, 64
1, 321352, Note_off_c, 0, 61, 64
1, 321384, Note_off_c, 6, 69, 0
1, 321408, Note_off_c, 6, 64, 0
1, 321412, Note_off_c, 8, 40, 0
1, 321412, Note_off_c, 8, 45, 0
1, 321412, Note_off_c, 13, 59, 0
1, 321412, Note_off_c, 13, 61, 0
1, 321424, Note_off_c, 6, 76, 0
1, 321592, Note_off_c, 2, 69, 64
1, 321592, Note_off_c, 2, 78, 64
1, 321592, Note_off_c, 3, 66, 64
1, 321592, Note_off_c, 3, 69, 64
1, 321592, Note_off_c, 4, 81, 0
1, 321592, Note_off_c, 12, 64, 0
1, 321592, Note_off_c, 12, 73, 0
1, 321600, Note_on_c, 0, 52, 74
1, 321600, Note_on_c, 0, 61, 74
1, 321600, Note_on_c, 1, 64, 68
1, 321600, Note_on_c, 2, 73, 100
1, 321600, Note_on_c, 2, 81, 100
1, 321600, Note_on_c, 3, 73, 100
1, 321600, Note_on_c, 3, 76, 100
1, 321600, Note_on_c, 4, 85, 100
1, 321600, Note_on_c, 7, 64, 70
1, 321600, Note_on_c, 7, 69, 72
1, 321600, Note_on_c, 7, 76, 77
1, 321600, Note_on_c, 8, 59, 100
1, 321600, Note_on_c, 8, 61, 100
1, 321600, Note_on_c, 12, 64, 74
1, 321600, Note_on_c, 12, 73, 74
1, 321600, Note_on_c, 13, 40, 100
1, 321600, Note_on_c, 13, 45, 100
1, 321812, Note_off_c, 1, 69, 0
1, 321832, Note_off_c, 0, 52, 64
1, 321832, Note_off_c, 0, 61, 64
1, 321854, Note_off_c, 7, 64, 0
1, 321866, Note_off_c, 7, 69, 0
1, 321882, Note_on_c, 10, 64, 72
1, 321882, Note_on_c, 10, 69, 75
1, 321882, Note_on_c, 10, 76, 73
1, 321892, Note_off_c, 8, 59, 0
1, 321892, Note_off_c, 8, 61, 0
1, 321892, Note_off_c, 13, 40, 0
1, 321892, Note_off_c, 13, 45, 0
1, 321922, Note_off_c, 7, 76, 0
1, 322072, Note_off_c, 2, 73, 64
1, 322072, Note_off_c, 2, 81, 64
1, 322072, Note_off_c, 3, 73, 64
1, 322072, Note_off_c, 3, 76, 64
1, 322072, Note_off_c, 4, 85, 0
1, 322072, Note_off_c, 12, 64, 0
1, 322072, Note_off_c, 12, 73, 0
1, 322080, Note_on_c, 0, 52, 80
1, 322080, Note_on_c, 0, 61, 80
1, 322080, Note_on_c, 6, 64, 68
1, 322080, Note_on_c, 6, 69, 77
1, 322080, Note_on_c, 6, 76, 73
1, 322080, Note_on_c, 8, 40, 100
1, 322080, Note_on_c, 8, 45, 100
1, 322080, Note_on_c, 12, 64, 80
1, 322080, Note_on_c, 12, 73, 80
1, 322080, Note_on_c, 13, 59, 100
1, 322080, Note_on_c, 13, 61, 100
1, 322170, Note_off_c, 10, 76, 0
1, 322172, Note_off_c, 10, 69, 0
1, 322180, Note_off_c, 10, 64, 0
1, 322214, Note_off_c, 1, 64, 0
1, 322312, Note_off_c, 0, 52, 64
1, 322312, Note_off_c, 0, 61, 64
1, 322346, Note_off_c, 6, 64, 0
1, 322364, Note_off_c, 6, 69, 0
1, 322364, Note_off_c, 6, 76, 0
1, 322372, Note_off_c, 8, 40, 0
1, 322372, Note_off_c, 8, 45, 0
1, 322372, Note_off_c, 13, 59, 0
1, 322372, Note_off_c, 13, 61, 0
1, 322552, Note_off_c, 12, 64, 0
1, 322552, Note_off_c, 12, 73, 0
1, 322560, Note_on_c, 0, 52, 85
1, 322560, Note_on_c, 0, 61, 85
1, 322560, Note_on_c, 1, 66, 77
1, 322560, Note_on_c, 2, 71, 100
1, 322560, Note_on_c, 2, 80, 100
1, 322560, Note_on_c, 3, 71, 100
1, 322560, Note_on_c, 3, 76, 100
1, 322560, Note_on_c, 4, 83, 100
1, 322560, Note_on_c, 7, 64, 73
1, 322560, Note_on_c, 7, 69, 77
1, 322560, Note_on_c, 7, 76, 74
1, 322560, Note_on_c, 8, 59, 100
1, 322560, Note_on_c, 8, 61, 100
1, 322560, Note_on_c, 12, 64, 85
1, 322560, Note_on_c, 12, 73, 85
1, 322560, Note_on_c, 13, 40, 100
1, 322560, Note_on_c, 13, 45, 100
1, 322792, Note_off_c, 0, 52, 64
1, 322792, Note_off_c, 0, 61, 64
1, 322842, Note_on_c, 10, 64, 69
1, 322842, Note_on_c, 10, 69, 70
1, 322842, Note_on_c, 10, 76, 72
1, 322844, Note_off_c, 7, 69, 0
1, 322852, Note_off_c, 8, 59, 0
1, 322852, Note_off_c, 8, 61, 0
1, 322852, Note_off_c, 13, 40, 0
1, 322852, Note_off_c, 13, 45, 0
1, 322876, Note_off_c, 7, 76, 0
1, 322882, Note_off_c, 7, 64, 0
1, 323032, Note_off_c, 2, 71, 64
1, 323032, Note_off_c, 2, 80, 64
1, 323032, Note_off_c, 3, 71, 64
1, 323032, Note_off_c, 3, 76, 64
1, 323032, Note_off_c, 4, 83, 0
1, 323032, Note_off_c, 12, 64, 0
1, 323032, Note_off_c, 12, 73, 0
1, 323040, Note_on_c, 0, 52, 91
1, 323040, Note_on_c, 0, 61, 91
1, 323040, Note_on_c, 1, 61, 70
1, 323040, Note_on_c, 2, 69, 100
1, 323040, Note_on_c, 2, 78, 100
1, 323040, Note_on_c, 3, 64, 100
1, 323040, Note_on_c, 3, 69, 100
1, 323040, Note_on_c, 4, 80, 100
1, 323040, Note_on_c, 6, 64, 72
1, 323040, Note_on_c, 6, 69, 52
1, 323040, Note_on_c, 6, 76, 72
1, 323040, Note_on_c, 8, 40, 100
1, 323040, Note_on_c, 8, 45, 100
1, 323040, Note_on_c, 12, 64, 91
1, 323040, Note_on_c, 12, 73, 91
1, 323040, Note_on_c, 13, 59, 100
1, 323040, Note_on_c, 13, 61, 100
1, 323106, Note_off_c, 10, 69, 0
1, 323130, Note_off_c, 10, 64, 0
1, 323146, Note_off_c, 10, 76, 0
1, 323192, Note_off_c, 6, 69, 0
1, 323202, Note_off_c, 1, 66, 0
1, 323272, Note_off_c, 0, 52, 64
1, 323272, Note_off_c, 0, 61, 64
1, 323280, Note_off_c, 6, 64, 0
1, 323286, Note_off_c, 6, 76, 0
1, 323332, Note_off_c, 8, 40, 0
1, 323332, Note_off_c, 8, 45, 0
1, 323332, Note_off_c, 13, 59, 0
1, 323332, Note_off_c, 13, 61, 0
1, 323512, Note_off_c, 2, 69, 64
1, 323512, Note_off_c, 2, 78, 64
1, 323512, Note_off_c, 3, 64, 64
1, 323512, Note_off_c, 3, 69, 64
1, 323512, Note_off_c, 4, 80, 0
1, 323512, Note_off_c, 12, 64, 0
1, 323512, Note_off_c, 12, 73, 0
1, 323520, Note_on_c, 0, 52, 93
1, 323520, Note_on_c, 0, 61, 93
1, 323520, Note_on_c, 7, 64, 68
1, 323520, Note_on_c, 7, 69, 70
1, 323520, Note_on_c, 7, 76, 72
1, 323520, Note_on_c, 8, 59, 100
1, 323520, Note_on_c, 8, 61, 100
1, 323520, Note_on_c, 12, 64, 93
1, 323520, Note_on_c, 12, 73, 93
1, 323520, Note_on_c, 13, 40, 100
1, 323520, Note_on_c, 13, 45, 100
1, 323668, Note_off_c, 1, 61, 0
1, 323752, Note_off_c, 0, 52, 64
1, 323752, Note_off_c, 0, 61, 64
1, 323802, Note_on_c, 10, 64, 68
1, 323802, Note_on_c, 10, 69, 77
1, 323802, Note_on_c, 10, 76, 73
1, 323810, Note_off_c, 7, 69, 0
1, 323812, Note_off_c, 8, 59, 0
1, 323812, Note_off_c, 8, 61, 0
1, 323812, Note_off_c, 13, 40, 0
1, 323812, Note_off_c, 13, 45, 0
1, 323828, Note_off_c, 7, 76, 0
1, 323834, Note_off_c, 7, 64, 0
1, 323992, Note_off_c, 12, 64, 0
1, 323992, Note_off_c, 12, 73, 0
1, 324000, Note_on_c, 0, 52, 99
1, 324000, Note_on_c, 0, 61, 99
1, 324000, Note_on_c, 1, 69, 77
1, 324000, Note_on_c, 2, 71, 100
1, 324000, Note_on_c, 2, 80, 100
1, 324000, Note_on_c, 3, 71, 100
1, 324000, Note_on_c, 3, 76, 100
1, 324000, Note_on_c, 4, 81, 100
1, 324000, Note_on_c, 6, 64, 68
1, 324000, Note_on_c, 6, 69, 70
1, 324000, Note_on_c, 6, 76, 74
1, 324000, Note_on_c, 8, 40, 100
1, 324000, Note_on_c, 8, 45, 100
1, 324000, Note_on_c, 12, 64, 99
1, 324000, Note_on_c, 12, 73, 99
1, 324000, Note_on_c, 13, 59, 100
1, 324000, Note_on_c, 13, 61, 100
1, 324068, Note_off_c, 10, 64, 0
1, 324086, Note_off_c, 10, 69, 0
1, 324086, Note_off_c, 10, 76, 0
1, 324232, Note_off_c, 0, 52, 64
1, 324232, Note_off_c, 0, 61, 64
1, 324232, Note_off_c, 6, 69, 0
1, 324242, Note_off_c, 6, 64, 0
1, 324250, Note_off_c, 6, 76, 0
1, 324292, Note_off_c, 8, 40, 0
1, 324292, Note_off_c, 8, 45, 0
1, 324292, Note_off_c, 13, 59, 0
1, 324292, Note_off_c, 13, 61, 0
1, 324472, Note_off_c, 2, 71, 64
1, 324472, Note_off_c, 2, 80, 64
1, 324472, Note_off_c, 3, 71, 64
1, 324472, Note_off_c, 3, 76, 64
1, 324472, Note_off_c, 4, 81, 0
1, 324472, Note_off_c, 12, 64, 0
1, 324472, Note_off_c, 12, 73, 0
1, 324480, Note_on_c, 0, 52, 104
1, 324480, Note_on_c, 0, 61, 104
1, 324480, Note_on_c, 7, 64, 68
1, 324480, Note_on_c, 7, 69, 70
1, 324480, Note_on_c, 7, 76, 73
1, 324480, Note_on_c, 8, 59, 100
1, 324480, Note_on_c, 8, 61, 100
1, 324480, Note_on_c, 12, 64, 104
1, 324480, Note_on_c, 12, 73, 104
1, 324480, Note_on_c, 13, 40, 100
1, 324480, Note_on_c, 13, 45, 100
1, 324648, Note_off_c, 1, 69, 0
1, 324712, Note_off_c, 0, 52, 64
1, 324712, Note_off_c, 0, 61, 64
1, 324728, Note_off_c, 7, 64, 0
1, 324742, Note_off_c, 7, 69, 0
1, 324742, Note_off_c, 7, 76, 0
1, 324762, Note_on_c, 10, 64, 72
1, 324762, Note_on_c, 10, 69, 52
1, 324762, Note_on_c, 10, 76, 72
1, 324772, Note_off_c, 8, 59, 0
1, 324772, Note_off_c, 8, 61, 0
1, 324772, Note_off_c, 13, 40, 0
1, 324772, Note_off_c, 13, 45, 0
1, 324914, Note_off_c, 10, 69, 0
1, 324952, Note_off_c, 12, 64, 0
1, 324952, Note_off_c, 12, 73, 0
1, 324960, Note_on_c, 0, 52, 110
1, 324960, Note_on_c, 0, 61, 110
1, 324960, Note_on_c, 1, 64, 68
1, 324960, Note_on_c, 2, 73, 100
1, 324960, Note_on_c, 2, 81, 100
1, 324960, Note_on_c, 3, 73, 100
1, 324960, Note_on_c, 3, 76, 100
1, 324960, Note_on_c, 4, 83, 100
1, 324960, Note_on_c, 6, 64, 68
1, 324960, Note_on_c, 6, 69, 69
1, 324960, Note_on_c, 6, 76, 72
1, 324960, Note_on_c, 8, 40, 100
1, 324960, Note_on_c, 8, 45, 100
1, 324960, Note_on_c, 12, 64, 110
1, 324960, Note_on_c, 12, 73, 110
1, 324960, Note_on_c, 13, 59, 100
1, 324960, Note_on_c, 13, 61, 100
1, 325002, Note_off_c, 10, 64, 0
1, 325008, Note_off_c, 10, 76, 0
1, 325176, Note_off_c, 6, 76, 0
1, 325178, Note_off_c, 6, 69, 0
1, 325192, Note_off_c, 0, 52, 64
1, 325192, Note_off_c, 0, 61, 64
1, 325192, Note_off_c, 6, 64, 0
1, 325252, Note_off_c, 8, 40, 0
1, 325252, Note_off_c, 8, 45, 0
1, 325252, Note_off_c, 13, 59, 0
1, 325252, Note_off_c, 13, 61, 0
1, 325404, Note_off_c, 1, 64, 0
1, 325432, Note_off_c, 2, 73, 64
1, 325432, Note_off_c, 2, 81, 64
1, 325432, Note_off_c, 3, 73, 64
1, 325432, Note_off_c, 3, 76, 64
1, 325432, Note_off_c, 4, 83, 0
1, 325432, Note_off_c, 5, 52, 0
1, 325432, Note_off_c, 5, 57, 0
1, 325432, Note_off_c, 12, 64, 0
1, 325432, Note_off_c, 12, 73, 0
1, 325440, Note_on_c, 0, 52, 113
1, 325440, Note_on_c, 0, 61, 113
1, 325440, Note_on_c, 1, 66, 78
1, 325440, Note_on_c, 2, 69, 100
1, 325440, Note_on_c, 2, 78, 100
1, 325440, Note_on_c, 3, 64, 100
1, 325440, Note_on_c, 3, 69, 100
1, 325440, Note_on_c, 4, 80, 100
1, 325440, Note_on_c, 5, 50, 100
1, 325440, Note_on_c, 5, 57, 100
1, 325440, Note_on_c, 7, 64, 70
1, 325440, Note_on_c, 7, 69, 83
1, 325440, Note_on_c, 7, 76, 74
1, 325440, Note_on_c, 8, 57, 100
1, 325440, Note_on_c, 8, 61, 100
1, 325440, Note_on_c, 12, 64, 113
1, 325440, Note_on_c, 12, 73, 113
1, 325440, Note_on_c, 13, 38, 100
1, 325440, Note_on_c, 13, 45, 100
1, 325672, Note_off_c, 0, 52, 64
1, 325672, Note_off_c, 0, 61, 64
1, 325680, Note_off_c, 7, 64, 0
1, 325680, Note_off_c, 7, 76, 0
1, 325690, Note_off_c, 7, 69, 0
1, 325722, Note_on_c, 10, 64, 68
1, 325722, Note_on_c, 10, 69, 70
1, 325722, Note_on_c, 10, 76, 74
1, 325732, Note_off_c, 8, 57, 0
1, 325732, Note_off_c, 8, 61, 0
1, 325732, Note_off_c, 13, 38, 0
1, 325732, Note_off_c, 13, 45, 0
1, 325912, Note_off_c, 2, 69, 64
1, 325912, Note_off_c, 2, 78, 64
1, 325912, Note_off_c, 3, 64, 64
1, 325912, Note_off_c, 3, 69, 64
1, 325912, Note_off_c, 4, 80, 0
1, 325912, Note_off_c, 12, 64, 0
1, 325912, Note_off_c, 12, 73, 0
1, 325920, Note_on_c, 0, 52, 118
1, 325920, Note_on_c, 0, 61, 118
1, 325920, Note_on_c, 6, 64, 67
1, 325920, Note_on_c, 6, 69, 67
1, 325920, Note_on_c, 6, 76, 72
1, 325920, Note_on_c, 8, 38, 100
1, 325920, Note_on_c, 8, 45, 100
1, 325920, Note_on_c, 12, 64, 118
1, 325920, Note_on_c, 12, 73, 118
1, 325920, Note_on_c, 13, 57, 100
1, 325920, Note_on_c, 13, 61, 100
1, 325954, Note_off_c, 10, 69, 0
1, 325964, Note_off_c, 10, 64, 0
1, 325972, Note_off_c, 10, 76, 0
1, 326108, Note_off_c, 1, 66, 0
1, 326152, Note_off_c, 0, 52, 64
1, 326152, Note_off_c, 0, 61, 64
1, 326166, Note_off_c, 6, 64, 0
1, 326170, Note_off_c, 6, 69, 0
1, 326186, Note_off_c, 6, 76, 0
1, 326212, Note_off_c, 8, 38, 0
1, 326212, Note_off_c, 8, 45, 0
1, 326212, Note_off_c, 13, 57, 0
1, 326212, Note_off_c, 13, 61, 0
1, 326392, Note_off_c, 12, 64, 0
1, 326392, Note_off_c, 12, 73, 0
1, 326400, Note_on_c, 0, 52, 127
1, 326400, Note_on_c, 0, 61, 127
1, 326400, Note_on_c, 1, 59, 74
1, 326400, Note_on_c, 2, 71, 100
1, 326400, Note_on_c, 2, 80, 100
1, 326400, Note_on_c, 3, 71, 100
1, 326400, Note_on_c, 3, 76, 100
1, 326400, Note_on_c, 4, 80, 100
1, 326400, Note_on_c, 7, 64, 67
1, 326400, Note_on_c, 7, 69, 78
1, 326400, Note_on_c, 7, 76, 73
1, 326400, Note_on_c, 8, 57, 100
1, 326400, Note_on_c, 8, 61, 100
1, 326400, Note_on_c, 12, 64, 127
1, 326400, Note_on_c, 12, 73, 127
1, 326400, Note_on_c, 13, 38, 100
1, 326400, Note_on_c, 13, 45, 100
1, 326632, Note_off_c, 0, 52, 64
1, 326632, Note_off_c, 0, 61, 64
1, 326650, Note_off_c, 7, 76, 0
1, 326656, Note_off_c, 7, 69, 0
1, 326664, Note_off_c, 7, 64, 0
1, 326682, Note_on_c, 10, 64, 68
1, 326682, Note_on_c, 10, 69, 69
1, 326682, Note_on_c, 10, 76, 72
1, 326692, Note_off_c, 8, 57, 0
1, 326692, Note_off_c, 8, 61, 0
1, 326692, Note_off_c, 13, 38, 0
1, 326692, Note_off_c, 13, 45, 0
1, 326872, Note_off_c, 2, 71, 64
1, 326872, Note_off_c, 2, 80, 64
1, 326872, Note_off_c, 3, 71, 64
1, 326872, Note_off_c, 3, 76, 64
1, 326872, Note_off_c, 4, 80, 0
1, 326872, Note_off_c, 12, 64, 0
1, 326872, Note_off_c, 12, 73, 0
1, 326880, Note_on_c, 0, 52, 124
1, 326880, Note_on_c, 0, 61, 124
1, 326880, Note_on_c, 1, 69, 75
1, 326880, Note_on_c, 2, 69, 100
1, 326880, Note_on_c, 2, 78, 100
1, 326880, Note_on_c, 3, 66, 100
1, 326880, Note_on_c, 3, 69, 100
1, 326880, Note_on_c, 4, 81, 100
1, 326880, Note_on_c, 6, 64, 67
1, 326880, Note_on_c, 6, 69, 63
1, 326880, Note_on_c, 6, 76, 72
1, 326880, Note_on_c, 8, 38, 100
1, 326880, Note_on_c, 8, 45, 100
1, 326880, Note_on_c, 12, 64, 124
1, 326880, Note_on_c, 12, 73, 124
1, 326880, Note_on_c, 13, 57, 100
1, 326880, Note_on_c, 13, 61, 100
1, 326888, Note_off_c, 1, 59, 0
1, 326898, Note_off_c, 10, 76, 0
1, 326900, Note_off_c, 10, 69, 0
1, 326914, Note_off_c, 10, 64, 0
1, 327112, Note_off_c, 0, 52, 64
1, 327112, Note_off_c, 0, 61, 64
1, 327128, Note_off_c, 6, 69, 0
1, 327156, Note_off_c, 6, 64, 0
1, 327172, Note_off_c, 6, 76, 0
1, 327172, Note_off_c, 8, 38, 0
1, 327172, Note_off_c, 8, 45, 0
1, 327172, Note_off_c, 13, 57, 0
1, 327172, Note_off_c, 13, 61, 0
1, 327352, Note_off_c, 2, 69, 64
1, 327352, Note_off_c, 2, 78, 64
1, 327352, Note_off_c, 3, 66, 64
1, 327352, Note_off_c, 3, 69, 64
1, 327352, Note_off_c, 4, 81, 0
1, 327352, Note_off_c, 12, 64, 0
1, 327352, Note_off_c, 12, 73, 0
1, 327360, Note_on_c, 0, 52, 118
1, 327360, Note_on_c, 0, 61, 118
1, 327360, Note_on_c, 1, 64, 73
1, 327360, Note_on_c, 2, 73, 100
1, 327360, Note_on_c, 2, 81, 100
1, 327360, Note_on_c, 3, 73, 100
1, 327360, Note_on_c, 3, 76, 100
1, 327360, Note_on_c, 4, 85, 100
1, 327360, Note_on_c, 7, 64, 69
1, 327360, Note_on_c, 7, 69, 70
1, 327360, Note_on_c, 7, 76, 73
1, 327360, Note_on_c, 8, 57, 100
1, 327360, Note_on_c, 8, 61, 100
1, 327360, Note_on_c, 12, 64, 118
1, 327360, Note_on_c, 12, 73, 118
1, 327360, Note_on_c, 13, 38, 100
1, 327360, Note_on_c, 13, 45, 100
1, 327486, Note_off_c, 1, 69, 0
1, 327580, Note_off_c, 7, 69, 0
1, 327592, Note_off_c, 0, 52, 64
1, 327592, Note_off_c, 0, 61, 64
1, 327602, Note_off_c, 7, 76, 0
1, 327612, Note_off_c, 7, 64, 0
1, 327642, Note_on_c, 10, 64, 67
1, 327642, Note_on_c, 10, 69, 67
1, 327642, Note_on_c, 10, 76, 72
1, 327652, Note_off_c, 8, 57, 0
1, 327652, Note_off_c, 8, 61, 0
1, 327652, Note_off_c, 13, 38, 0
1, 327652, Note_off_c, 13, 45, 0
1, 327832, Note_off_c, 2, 73, 64
1, 327832, Note_off_c, 2, 81, 64
1, 327832, Note_off_c, 3, 73, 64
1, 327832, Note_off_c, 3, 76, 64
1, 327832, Note_off_c, 4, 85, 0
1, 327832, Note_off_c, 12, 64, 0
1, 327832, Note_off_c, 12, 73, 0
1, 327840, Note_on_c, 0, 52, 113
1, 327840, Note_on_c, 0, 61, 113
1, 327840, Note_on_c, 6, 64, 68
1, 327840, Note_on_c, 6, 69, 66
1, 327840, Note_on_c, 6, 76, 70
1, 327840, Note_on_c, 8, 38, 100
1, 327840, Note_on_c, 8, 45, 100
1, 327840, Note_on_c, 12, 64, 113
1, 327840, Note_on_c, 12, 73, 113
1, 327840, Note_on_c, 13, 57, 100
1, 327840, Note_on_c, 13, 61, 100
1, 327888, Note_off_c, 10, 64, 0
1, 327892, Note_off_c, 10, 69, 0
1, 327908, Note_off_c, 10, 76, 0
1, 328036, Note_off_c, 6, 69, 0
1, 328060, Note_off_c, 6, 64, 0
1, 328066, Note_off_c, 1, 64, 0
1, 328072, Note_off_c, 0, 52, 64
1, 328072, Note_off_c, 0, 61, 64
1, 328078, Note_off_c, 6, 76, 0
1, 328132, Note_off_c, 8, 38, 0
1, 328132, Note_off_c, 8, 45, 0
1, 328132, Note_off_c, 13, 57, 0
1, 328132, Note_off_c, 13, 61, 0
1, 328312, Note_off_c, 5, 50, 0
1, 328312, Note_off_c, 5, 57, 0
1, 328312, Note_off_c, 12, 64, 0
1, 328312, Note_off_c, 12, 73, 0
1, 328320, Note_on_c, 0, 52, 107
1, 328320, Note_on_c, 0, 61, 107
1, 328320, Note_on_c, 1, 66, 68
1, 328320, Note_on_c, 2, 71, 100
1, 328320, Note_on_c, 2, 80, 100
1, 328320, Note_on_c, 3, 71, 100
1, 328320, Note_on_c, 3, 76, 100
1, 328320, Note_on_c, 4, 83, 100
1, 328320, Note_on_c, 5, 52, 100
1, 328320, Note_on_c, 5, 57, 100
1, 328320, Note_on_c, 7, 64, 69
1, 328320, Note_on_c, 7, 69, 75
1, 328320, Note_on_c, 7, 76, 73
1, 328320, Note_on_c, 8, 59, 100
1, 328320, Note_on_c, 8, 61, 100
1, 328320, Note_on_c, 12, 64, 107
1, 328320, Note_on_c, 12, 73, 107
1, 328320, Note_on_c, 13, 40, 100
1, 328320, Note_on_c, 13, 45, 100
1, 328534, Note_off_c, 7, 69, 0
1, 328550, Note_off_c, 7, 64, 0
1, 328552, Note_off_c, 0, 52, 64
1, 328552, Note_off_c, 0, 61, 64
1, 328564, Note_off_c, 7, 76, 0
1, 328602, Note_on_c, 10, 64, 67
1, 328602, Note_on_c, 10, 69, 63
1, 328602, Note_on_c, 10, 76, 72
1, 328612, Note_off_c, 8, 59, 0
1, 328612, Note_off_c, 8, 61, 0
1, 328612, Note_off_c, 13, 40, 0
1, 328612, Note_off_c, 13, 45, 0
1, 328792, Note_off_c, 2, 71, 64
1, 328792, Note_off_c, 2, 80, 64
1, 328792, Note_off_c, 3, 71, 64
1, 328792, Note_off_c, 3, 76, 64
1, 328792, Note_off_c, 4, 83, 0
1, 328792, Note_off_c, 12, 64, 0
1, 328792, Note_off_c, 12, 73, 0
1, 328800, Note_on_c, 0, 52, 102
1, 328800, Note_on_c, 0, 61, 102
1, 328800, Note_on_c, 1, 61, 68
1, 328800, Note_on_c, 2, 69, 100
1, 328800, Note_on_c, 2, 78, 100
1, 328800, Note_on_c, 3, 64, 100
1, 328800, Note_on_c, 3, 69, 100
1, 328800, Note_on_c, 4, 80, 100
1, 328800, Note_on_c, 6, 64, 68
1, 328800, Note_on_c, 6, 69, 63
1, 328800, Note_on_c, 6, 76, 72
1, 328800, Note_on_c, 8, 40, 100
1, 328800, Note_on_c, 8, 45, 100
1, 328800, Note_on_c, 12, 64, 102
1, 328800, Note_on_c, 12, 73, 102
1, 328800, Note_on_c, 13, 59, 100
1, 328800, Note_on_c, 13, 61, 100
1, 328836, Note_off_c, 1, 66, 0
1, 328850, Note_off_c, 10, 69, 0
1, 328878, Note_off_c, 10, 64, 0
1, 328894, Note_off_c, 10, 76, 0
1, 329010, Note_off_c, 6, 64, 0
1, 329032, Note_off_c, 0, 52, 64
1, 329032, Note_off_c, 0, 61, 64
1, 329044, Note_off_c, 6, 76, 0
1, 329062, Note_off_c, 6, 69, 0
1, 329092, Note_off_c, 8, 40, 0
1, 329092, Note_off_c, 8, 45, 0
1, 329092, Note_off_c, 13, 59, 0
1, 329092, Note_off_c, 13, 61, 0
1, 329272, Note_off_c, 2, 69, 64
1, 329272, Note_off_c, 2, 78, 64
1, 329272, Note_off_c, 3, 64, 64
1, 329272, Note_off_c, 3, 69, 64
1, 329272, Note_off_c, 4, 80, 0
1, 329272, Note_off_c, 12, 64, 0
1, 329272, Note_off_c, 12, 73, 0
1, 329280, Note_on_c, 0, 52, 96
1, 329280, Note_on_c, 0, 61, 96
1, 329280, Note_on_c, 7, 64, 68
1, 329280, Note_on_c, 7, 69, 74
1, 329280, Note_on_c, 7, 76, 74
1, 329280, Note_on_c, 8, 59, 100
1, 329280, Note_on_c, 8, 61, 100
1, 329280, Note_on_c, 12, 64, 96
1, 329280, Note_on_c, 12, 73, 96
1, 329280, Note_on_c, 13, 40, 100
1, 329280, Note_on_c, 13, 45, 100
1, 329504, Note_off_c, 7, 69, 0
1, 329512, Note_off_c, 0, 52, 64
1, 329512, Note_off_c, 0, 61, 64
1, 329544, Note_off_c, 7, 64, 0
1, 329554, Note_off_c, 7, 76, 0
1, 329562, Note_on_c, 10, 64, 68
1, 329562, Note_on_c, 10, 69, 66
1, 329562, Note_on_c, 10, 76, 70
1, 329570, Note_off_c, 1, 61, 0
1, 329572, Note_off_c, 8, 59, 0
1, 329572, Note_off_c, 8, 61, 0
1, 329572, Note_off_c, 13, 40, 0
1, 329572, Note_off_c, 13, 45, 0
1, 329752, Note_off_c, 12, 64, 0
1, 329752, Note_off_c, 12, 73, 0
1, 329758, Note_off_c, 10, 69, 0
1, 329760, Note_on_c, 0, 52, 91
1, 329760, Note_on_c, 0, 61, 91
1, 329760, Note_on_c, 1, 69, 77
1, 329760, Note_on_c, 2, 71, 100
1, 329760, Note_on_c, 2, 80, 100
1, 329760, Note_on_c, 3, 71, 100
1, 329760, Note_on_c, 3, 76, 100
1, 329760, Note_on_c, 4, 81, 100
1, 329760, Note_on_c, 6, 64, 70
1, 329760, Note_on_c, 6, 69, 69
1, 329760, Note_on_c, 6, 76, 72
1, 329760, Note_on_c, 8, 40, 100
1, 329760, Note_on_c, 8, 45, 100
1, 329760, Note_on_c, 12, 64, 91
1, 329760, Note_on_c, 12, 73, 91
1, 329760, Note_on_c, 13, 59, 100
1, 329760, Note_on_c, 13, 61, 100
1, 329782, Note_off_c, 10, 64, 0
1, 329800, Note_off_c, 10, 76, 0
1, 329992, Note_off_c, 0, 52, 64
1, 329992, Note_off_c, 0, 61, 64
1, 329994, Note_off_c, 6, 69, 0
1, 330022, Note_off_c, 6, 64, 0
1, 330022, Note_off_c, 6, 76, 0
1, 330052, Note_off_c, 8, 40, 0
1, 330052, Note_off_c, 8, 45, 0
1, 330052, Note_off_c, 13, 59, 0
1, 330052, Note_off_c, 13, 61, 0
1, 330232, Note_off_c, 2, 71, 64
1, 330232, Note_off_c, 2, 80, 64
1, 330232, Note_off_c, 3, 71, 64
1, 330232, Note_off_c, 3, 76, 64
1, 330232, Note_off_c, 4, 81, 0
1, 330232, Note_off_c, 12, 64, 0
1, 330232, Note_off_c, 12, 73, 0
1, 330240, Note_on_c, 0, 52, 85
1, 330240, Note_on_c, 0, 61, 85
1, 330240, Note_on_c, 7, 64, 68
1, 330240, Note_on_c, 7, 69, 73
1, 330240, Note_on_c, 7, 76, 73
1, 330240, Note_on_c, 8, 59, 100
1, 330240, Note_on_c, 8, 61, 100
1, 330240, Note_on_c, 12, 64, 85
1, 330240, Note_on_c, 12, 73, 85
1, 330240, Note_on_c, 13, 40, 100
1, 330240, Note_on_c, 13, 45, 100
1, 330384, Note_off_c, 1, 69, 0
1, 330464, Note_off_c, 7, 64, 0
1, 330472, Note_off_c, 0, 52, 64
1, 330472, Note_off_c, 0, 61, 64
1, 330488, Note_off_c, 7, 69, 0
1, 330488, Note_off_c, 7, 76, 0
1, 330522, Note_on_c, 10, 64, 68
1, 330522, Note_on_c, 10, 69, 63
1, 330522, Note_on_c, 10, 76, 72
1, 330532, Note_off_c, 8, 59, 0
1, 330532, Note_off_c, 8, 61, 0
1, 330532, Note_off_c, 13, 40, 0
1, 330532, Note_off_c, 13, 45, 0
1, 330712, Note_off_c, 12, 64, 0
1, 330712, Note_off_c, 12, 73, 0
1, 330720, Note_on_c, 0, 52, 80
1, 330720, Note_on_c, 0, 61, 80
1, 330720, Note_on_c, 1, 64, 70
1, 330720, Note_on_c, 2, 73, 100
1, 330720, Note_on_c, 2, 81, 100
1, 330720, Note_on_c, 3, 73, 100
1, 330720, Note_on_c, 3, 76, 100
1, 330720, Note_on_c, 4, 83, 100
1, 330720, Note_on_c, 6, 64, 68
1, 330720, Note_on_c, 6, 69, 70
1, 330720, Note_on_c, 6, 76, 70
1, 330720, Note_on_c, 8, 40, 100
1, 330720, Note_on_c, 8, 45, 100
1, 330720, Note_on_c, 12, 64, 80
1, 330720, Note_on_c, 12, 73, 80
1, 330720, Note_on_c, 13, 59, 100
1, 330720, Note_on_c, 13, 61, 100
1, 330732, Note_off_c, 10, 64, 0
1, 330766, Note_off_c, 10, 76, 0
1, 330784, Note_off_c, 10, 69, 0
1, 330928, Note_off_c, 6, 64, 0
1, 330952, Note_off_c, 0, 52, 64
1, 330952, Note_off_c, 0, 61, 64
1, 330956, Note_off_c, 6, 69, 0
1, 330960, Note_off_c, 6, 76, 0
1, 331012, Note_off_c, 8, 40, 0
1, 331012, Note_off_c, 8, 45, 0
1, 331012, Note_off_c, 13, 59, 0
1, 331012, Note_off_c, 13, 61, 0
1, 331192, Note_off_c, 2, 73, 64
1, 331192, Note_off_c, 2, 81, 64
1, 331192, Note_off_c, 3, 73, 64
1, 331192, Note_off_c, 3, 76, 64
1, 331192, Note_off_c, 4, 83, 0
1, 331192, Note_off_c, 5, 52, 0
1, 331192, Note_off_c, 5, 57, 0
1, 331192, Note_off_c, 12, 64, 0
1, 331192, Note_off_c, 12, 73, 0
1, 331200, Note_on_c, 0, 52, 74
1, 331200, Note_on_c, 0, 61, 74
1, 331200, Note_on_c, 1, 66, 77
1, 331200, Note_on_c, 2, 69, 100
1, 331200, Note_on_c, 2, 78, 100
1, 331200, Note_on_c, 3, 64, 100
1, 331200, Note_on_c, 3, 69, 100
1, 331200, Note_on_c, 4, 80, 100
1, 331200, Note_on_c, 5, 50, 100
1, 331200, Note_on_c, 5, 57, 100
1, 331200, Note_on_c, 7, 64, 66
1, 331200, Note_on_c, 7, 69, 74
1, 331200, Note_on_c, 7, 76, 73
1, 331200, Note_on_c, 8, 57, 100
1, 331200, Note_on_c, 8, 61, 100
1, 331200, Note_on_c, 12, 64, 74
1, 331200, Note_on_c, 12, 73, 74
1, 331200, Note_on_c, 13, 38, 100
1, 331200, Note_on_c, 13, 45, 100
1, 331352, Note_off_c, 1, 64, 0
1, 331432, Note_off_c, 0, 52, 64
1, 331432, Note_off_c, 0, 61, 64
1, 331434, Note_off_c, 7, 64, 0
1, 331454, Note_off_c, 7, 76, 0
1, 331482, Note_off_c, 7, 69, 0
1, 331482, Note_on_c, 10, 64, 70
1, 331482, Note_on_c, 10, 69, 69
1, 331482, Note_on_c, 10, 76, 72
1, 331492, Note_off_c, 8, 57, 0
1, 331492, Note_off_c, 8, 61, 0
1, 331492, Note_off_c, 13, 38, 0
1, 331492, Note_off_c, 13, 45, 0
1, 331672, Note_off_c, 2, 69, 64
1, 331672, Note_off_c, 2, 78, 64
1, 331672, Note_off_c, 3, 64, 64
1, 331672, Note_off_c, 3, 69, 64
1, 331672, Note_off_c, 4, 80, 0
1, 331672, Note_off_c, 12, 64, 0
1, 331672, Note_off_c, 12, 73, 0
1, 331680, Note_on_c, 0, 52, 69
1, 331680, Note_on_c, 0, 61, 69
1, 331680, Note_on_c, 6, 64, 67
1, 331680, Note_on_c, 6, 69, 73
1, 331680, Note_on_c, 6, 76, 74
1, 331680, Note_on_c, 8, 38, 100
1, 331680, Note_on_c, 8, 45, 100
1, 331680, Note_on_c, 12, 64, 69
1, 331680, Note_on_c, 12, 73, 69
1, 331680, Note_on_c, 13, 57, 100
1, 331680, Note_on_c, 13, 61, 100
1, 331716, Note_off_c, 10, 69, 0
1, 331744, Note_off_c, 10, 64, 0
1, 331744, Note_off_c, 10, 76, 0
1, 331844, Note_off_c, 1, 66, 0
1, 331896, Note_off_c, 6, 64, 0
1, 331912, Note_off_c, 0, 52, 64
1, 331912, Note_off_c, 0, 61, 64
1, 331916, Note_off_c, 6, 76, 0
1, 331926, Note_off_c, 6, 69, 0
1, 331972, Note_off_c, 8, 38, 0
1, 331972, Note_off_c, 8, 45, 0
1, 331972, Note_off_c, 13, 57, 0
1, 331972, Note_off_c, 13, 61, 0
1, 332152, Note_off_c, 12, 64, 0
1, 332152, Note_off_c, 12, 73, 0
1, 332160, Note_on_c, 0, 52, 63
1, 332160, Note_on_c, 0, 61, 63
1, 332160, Note_on_c, 1, 59, 65
1, 332160, Note_on_c, 2, 71, 100
1, 332160, Note_on_c, 2, 80, 100
1, 332160, Note_on_c, 3, 71, 100
1, 332160, Note_on_c, 3, 76, 100
1, 332160, Note_on_c, 4, 80, 100
1, 332160, Note_on_c, 7, 64, 66
1, 332160, Note_on_c, 7, 69, 77
1, 332160, Note_on_c, 7, 76, 70
1, 332160, Note_on_c, 8, 57, 100
1, 332160, Note_on_c, 8, 61, 100
1, 332160, Note_on_c, 12, 64, 63
1, 332160, Note_on_c, 12, 73, 63
1, 332160, Note_on_c, 13, 38, 100
1, 332160, Note_on_c, 13, 45, 100
1, 332388, Note_off_c, 7, 64, 0
1, 332392, Note_off_c, 0, 52, 64
1, 332392, Note_off_c, 0, 61, 64
1, 332442, Note_on_c, 10, 64, 68
1, 332442, Note_on_c, 10, 69, 70
1, 332442, Note_on_c, 10, 76, 70
1, 332446, Note_off_c, 7, 69, 0
1, 332452, Note_off_c, 8, 57, 0
1, 332452, Note_off_c, 8, 61, 0
1, 332452, Note_off_c, 13, 38, 0
1, 332452, Note_off_c, 13, 45, 0
1, 332470, Note_off_c, 7, 76, 0
1, 332632, Note_off_c, 2, 71, 64
1, 332632, Note_off_c, 2, 80, 64
1, 332632, Note_off_c, 3, 71, 64
1, 332632, Note_off_c, 3, 76, 64
1, 332632, Note_off_c, 4, 80, 0
1, 332632, Note_off_c, 12, 64, 0
1, 332632, Note_off_c, 12, 73, 0
1, 332640, Note_on_c, 0, 52, 60
1, 332640, Note_on_c, 0, 61, 60
1, 332640, Note_on_c, 1, 69, 74
1, 332640, Note_on_c, 2, 69, 100
1, 332640, Note_on_c, 2, 78, 100
1, 332640, Note_on_c, 3, 66, 100
1, 332640, Note_on_c, 3, 69, 100
1, 332640, Note_on_c, 4, 81, 100
1, 332640, Note_on_c, 6, 64, 68
1, 332640, Note_on_c, 6, 69, 74
1, 332640, Note_on_c, 6, 76, 75
1, 332640, Note_on_c, 8, 38, 100
1, 332640, Note_on_c, 8, 45, 100
1, 332640, Note_on_c, 12, 64, 60
1, 332640, Note_on_c, 12, 73, 60
1, 332640, Note_on_c, 13, 57, 100
1, 332640, Note_on_c, 13, 61, 100
1, 332650, Note_off_c, 10, 64, 0
1, 332678, Note_off_c, 10, 69, 0
1, 332682, Note_off_c, 10, 76, 0
1, 332734, Note_off_c, 1, 59, 0
1, 332872, Note_off_c, 0, 52, 64
1, 332872, Note_off_c, 0, 61, 64
1, 332912, Note_off_c, 6, 69, 0
1, 332916, Note_off_c, 6, 64, 0
1, 332930, Note_off_c, 6, 76, 0
1, 332932, Note_off_c, 8, 38, 0
1, 332932, Note_off_c, 8, 45, 0
1, 332932, Note_off_c, 13, 57, 0
1, 332932, Note_off_c, 13, 61, 0
1, 333112, Note_off_c, 2, 69, 64
1, 333112, Note_off_c, 2, 78, 64
1, 333112, Note_off_c, 3, 66, 64
1, 333112, Note_off_c, 3, 69, 64
1, 333112, Note_off_c, 4, 81, 0
1, 333112, Note_off_c, 5, 50, 0
1, 333112, Note_off_c, 5, 57, 0
1, 333112, Note_off_c, 12, 64, 0
1, 333112, Note_off_c, 12, 73, 0
1, 333120, Note_on_c, 0, 52, 55
1, 333120, Note_on_c, 0, 61, 55
1, 333120, Note_on_c, 1, 64, 68
1, 333120, Note_on_c, 2, 73, 100
1, 333120, Note_on_c, 2, 81, 100
1, 333120, Note_on_c, 3, 73, 100
1, 333120, Note_on_c, 3, 76, 100
1, 333120, Note_on_c, 4, 85, 100
1, 333120, Note_on_c, 5, 52, 100
1, 333120, Note_on_c, 5, 57, 100
1, 333120, Note_on_c, 7, 64, 65
1, 333120, Note_on_c, 7, 69, 72
1, 333120, Note_on_c, 7, 76, 72
1, 333120, Note_on_c, 8, 59, 100
1, 333120, Note_on_c, 8, 61, 100
1, 333120, Note_on_c, 12, 64, 55
1, 333120, Note_on_c, 12, 73, 55
1, 333120, Note_on_c, 13, 40, 100
1, 333120, Note_on_c, 13, 45, 100
1, 333332, Note_off_c, 1, 69, 0
1, 333352, Note_off_c, 0, 52, 64
1, 333352, Note_off_c, 0, 61, 64
1, 333396, Note_off_c, 7, 64, 0
1, 333402, Note_on_c, 10, 64, 67
1, 333402, Note_on_c, 10, 69, 73
1, 333402, Note_on_c, 10, 76, 74
1, 333410, Note_off_c, 7, 69, 0
1, 333412, Note_off_c, 7, 76, 0
1, 333412, Note_off_c, 8, 59, 0
1, 333412, Note_off_c, 8, 61, 0
1, 333412, Note_off_c, 13, 40, 0
1, 333412, Note_off_c, 13, 45, 0
1, 333592, Note_off_c, 2, 73, 64
1, 333592, Note_off_c, 2, 81, 64
1, 333592, Note_off_c, 3, 73, 64
1, 333592, Note_off_c, 3, 76, 64
1, 333592, Note_off_c, 4, 85, 0
1, 333592, Note_off_c, 12, 64, 0
1, 333592, Note_off_c, 12, 73, 0
1, 333600, Note_on_c, 0, 52, 49
1, 333600, Note_on_c, 0, 61, 49
1, 333600, Note_on_c, 6, 64, 73
1, 333600, Note_on_c, 6, 69, 80
1, 333600, Note_on_c, 6, 76, 77
1, 333600, Note_on_c, 8, 40, 100
1, 333600, Note_on_c, 8, 45, 100
1, 333600, Note_on_c, 12, 64, 49
1, 333600, Note_on_c, 12, 73, 49
1, 333600, Note_on_c, 13, 59, 100
1, 333600, Note_on_c, 13, 61, 100
1, 333618, Note_off_c, 10, 64, 0
1, 333638, Note_off_c, 10, 76, 0
1, 333648, Note_off_c, 10, 69, 0
1, 333734, Note_off_c, 1, 64, 0
1, 333832, Note_off_c, 0, 52, 64
1, 333832, Note_off_c, 0, 61, 64
1, 333862, Note_off_c, 6, 64, 0
1, 333878, Note_off_c, 6, 69, 0
1, 333888, Note_off_c, 6, 76, 0
1, 333892, Note_off_c, 8, 40, 0
1, 333892, Note_off_c, 8, 45, 0
1, 333892, Note_off_c, 13, 59, 0
1, 333892, Note_off_c, 13, 61, 0
1, 334072, Note_off_c, 12, 64, 0
1, 334072, Note_off_c, 12, 73, 0
1, 334080, Note_on_c, 0, 52, 44
1, 334080, Note_on_c, 0, 61, 44
1, 334080, Note_on_c, 1, 66, 77
1, 334080, Note_on_c, 3, 71, 100
1, 334080, Note_on_c, 3, 76, 100
1, 334080, Note_on_c, 7, 64, 67
1, 334080, Note_on_c, 7, 69, 75
1, 334080, Note_on_c, 7, 76, 70
1, 334080, Note_on_c, 8, 59, 100
1, 334080, Note_on_c, 8, 61, 100
1, 334080, Note_on_c, 12, 64, 44
1, 334080, Note_on_c, 12, 73, 44
1, 334080, Note_on_c, 13, 40, 100
1, 334080, Note_on_c, 13, 45, 100
1, 334310, Note_off_c, 7, 69, 0
1, 334312, Note_off_c, 0, 52, 64
1, 334312, Note_off_c, 0, 61, 64
1, 334328, Note_off_c, 7, 64, 0
1, 334338, Note_off_c, 7, 76, 0
1, 334362, Note_on_c, 10, 64, 68
1, 334362, Note_on_c, 10, 69, 74
1, 334362, Note_on_c, 10, 76, 75
1, 334372, Note_off_c, 8, 59, 0
1, 334372, Note_off_c, 8, 61, 0
1, 334372, Note_off_c, 13, 40, 0
1, 334372, Note_off_c, 13, 45, 0
1, 334552, Note_off_c, 3, 71, 64
1, 334552, Note_off_c, 3, 76, 64
1, 334552, Note_off_c, 12, 64, 0
1, 334552, Note_off_c, 12, 73, 0
1, 334560, Note_on_c, 0, 52, 38
1, 334560, Note_on_c, 0, 61, 38
1, 334560, Note_on_c, 1, 61, 70
1, 334560, Note_on_c, 3, 64, 100
1, 334560, Note_on_c, 3, 69, 100
1, 334560, Note_on_c, 6, 64, 68
1, 334560, Note_on_c, 6, 69, 70
1, 334560, Note_on_c, 6, 76, 74
1, 334560, Note_on_c, 8, 40, 100
1, 334560, Note_on_c, 8, 45, 100
1, 334560, Note_on_c, 12, 64, 38
1, 334560, Note_on_c, 12, 73, 38
1, 334560, Note_on_c, 13, 59, 100
1, 334560, Note_on_c, 13, 61, 100
1, 334634, Note_off_c, 10, 69, 0
1, 334638, Note_off_c, 10, 64, 0
1, 334652, Note_off_c, 10, 76, 0
1, 334722, Note_off_c, 1, 66, 0
1, 334792, Note_off_c, 0, 52, 64
1, 334792, Note_off_c, 0, 61, 64
1, 334846, Note_off_c, 6, 64, 0
1, 334852, Note_off_c, 8, 40, 0
1, 334852, Note_off_c, 8, 45, 0
1, 334852, Note_off_c, 13, 59, 0
1, 334852, Note_off_c, 13, 61, 0
1, 334858, Note_off_c, 6, 69, 0
1, 334858, Note_off_c, 6, 76, 0
1, 335032, Note_off_c, 3, 64, 64
1, 335032, Note_off_c, 3, 69, 64
1, 335032, Note_off_c, 12, 64, 0
1, 335032, Note_off_c, 12, 73, 0
1, 335040, Note_on_c, 0, 52, 33
1, 335040, Note_on_c, 0, 61, 33
1, 335040, Note_on_c, 7, 64, 66
1, 335040, Note_on_c, 7, 69, 68
1, 335040, Note_on_c, 7, 76, 72
1, 335040, Note_on_c, 8, 59, 100
1, 335040, Note_on_c, 8, 61, 100
1, 335040, Note_on_c, 12, 64, 33
1, 335040, Note_on_c, 12, 73, 33
1, 335040, Note_on_c, 13, 40, 100
1, 335040, Note_on_c, 13, 45, 100
1, 335188, Note_off_c, 1, 61, 0
1, 335272, Note_off_c, 0, 52, 64
1, 335272, Note_off_c, 0, 61, 64
1, 335300, Note_off_c, 7, 69, 0
1, 335310, Note_off_c, 7, 64, 0
1, 335314, Note_off_c, 7, 76, 0
1, 335322, Note_on_c, 10, 64, 73
1, 335322, Note_on_c, 10, 69, 80
1, 335322, Note_on_c, 10, 76, 77
1, 335332, Note_off_c, 8, 59, 0
1, 335332, Note_off_c, 8, 61, 0
1, 335332, Note_off_c, 13, 40, 0
1, 335332, Note_off_c, 13, 45, 0
1, 335512, Note_off_c, 12, 64, 0
1, 335512, Note_off_c, 12, 73, 0
1, 335520, Note_on_c, 0, 52, 27
1, 335520, Note_on_c, 0, 61, 27
1, 335520, Note_on_c, 1, 69, 77
1, 335520, Note_on_c, 3, 71, 100
1, 335520, Note_on_c, 3, 76, 100
1, 335520, Note_on_c, 6, 64, 70
1, 335520, Note_on_c, 6, 69, 74
1, 335520, Note_on_c, 6, 76, 74
1, 335520, Note_on_c, 8, 40, 100
1, 335520, Note_on_c, 8, 45, 100
1, 335520, Note_on_c, 12, 64, 27
1, 335520, Note_on_c, 12, 73, 27
1, 335520, Note_on_c, 13, 59, 100
1, 335520, Note_on_c, 13, 61, 100
1, 335584, Note_off_c, 10, 64, 0
1, 335600, Note_off_c, 10, 69, 0
1, 335610, Note_off_c, 10, 76, 0
1, 335724, Note_off_c, 6, 64, 0
1, 335752, Note_off_c, 0, 52, 64
1, 335752, Note_off_c, 0, 61, 64
1, 335754, Note_off_c, 6, 76, 0
1, 335792, Note_off_c, 6, 69, 0
1, 335812, Note_off_c, 8, 40, 0
1, 335812, Note_off_c, 8, 45, 0
1, 335812, Note_off_c, 13, 59, 0
1, 335812, Note_off_c, 13, 61, 0
1, 335992, Note_off_c, 3, 71, 64
1, 335992, Note_off_c, 3, 76, 64
1, 335992, Note_off_c, 12, 64, 0
1, 335992, Note_off_c, 12, 73, 0
1, 336000, Note_on_c, 0, 52, 22
1, 336000, Note_on_c, 0, 61, 22
1, 336000, Note_on_c, 7, 64, 62
1, 336000, Note_on_c, 7, 69, 60
1, 336000, Note_on_c, 7, 76, 70
1, 336000, Note_on_c, 8, 59, 100
1, 336000, Note_on_c, 8, 61, 100
1, 336000, Note_on_c, 12, 64, 22
1, 336000, Note_on_c, 12, 73, 22
1, 336000, Note_on_c, 13, 40, 100
1, 336000, Note_on_c, 13, 45, 100
1, 336168, Note_off_c, 1, 69, 0
1, 336232, Note_off_c, 0, 52, 64
1, 336232, Note_off_c, 0, 61, 64
1, 336260, Note_off_c, 7, 69, 0
1, 336278, Note_off_c, 7, 64, 0
1, 336282, Note_on_c, 10, 64, 68
1, 336282, Note_on_c, 10, 69, 70
1, 336282, Note_on_c, 10, 76, 74
1, 336292, Note_off_c, 8, 59, 0
1, 336292, Note_off_c, 8, 61, 0
1, 336292, Note_off_c, 13, 40, 0
1, 336292, Note_off_c, 13, 45, 0
1, 336338, Note_off_c, 7, 76, 0
1, 336472, Note_off_c, 12, 64, 0
1, 336472, Note_off_c, 12, 73, 0
1, 336480, Note_on_c, 0, 52, 16
1, 336480, Note_on_c, 0, 61, 16
1, 336480, Note_on_c, 1, 64, 68
1, 336480, Note_on_c, 3, 73, 100
1, 336480, Note_on_c, 3, 76, 100
1, 336480, Note_on_c, 6, 64, 68
1, 336480, Note_on_c, 6, 69, 68
1, 336480, Note_on_c, 6, 76, 72
1, 336480, Note_on_c, 8, 40, 100
1, 336480, Note_on_c, 8, 45, 100
1, 336480, Note_on_c, 12, 64, 16
1, 336480, Note_on_c, 12, 73, 16
1, 336480, Note_on_c, 13, 59, 100
1, 336480, Note_on_c, 13, 61, 100
1, 336568, Note_off_c, 10, 64, 0
1, 336580, Note_off_c, 10, 69, 0
1, 336580, Note_off_c, 10, 76, 0
1, 336686, Note_off_c, 6, 69, 0
1, 336694, Note_off_c, 6, 64, 0
1, 336704, Note_off_c, 6, 76, 0
1, 336712, Note_off_c, 0, 52, 64
1, 336712, Note_off_c, 0, 61, 64
1, 336772, Note_off_c, 8, 40, 0
1, 336772, Note_off_c, 8, 45, 0
1, 336772, Note_off_c, 13, 59, 0
1, 336772, Note_off_c, 13, 61, 0
1, 336924, Note_off_c, 1, 64, 0
1, 336952, Note_off_c, 3, 73, 64
1, 336952, Note_off_c, 3, 76, 64
1, 336952, Note_off_c, 5, 52, 0
1, 336952, Note_off_c, 5, 57, 0
1, 336952, Note_off_c, 12, 64, 0
1, 336952, Note_off_c, 12, 73, 0
1, 336960, Note_on_c, 0, 52, 11
1, 336960, Note_on_c, 0, 61, 11
1, 336960, Note_on_c, 1, 66, 78
1, 336960, Note_on_c, 2, 69, 100
1, 336960, Note_on_c, 2, 78, 100
1, 336960, Note_on_c, 3, 64, 100
1, 336960, Note_on_c, 3, 69, 100
1, 336960, Note_on_c, 4, 78, 100
1, 336960, Note_on_c, 5, 50, 100
1, 336960, Note_on_c, 5, 57, 100
1, 336960, Note_on_c, 7, 64, 56
1, 336960, Note_on_c, 7, 69, 69
1, 336960, Note_on_c, 7, 76, 73
1, 336960, Note_on_c, 8, 57, 100
1, 336960, Note_on_c, 8, 61, 100
1, 336960, Note_on_c, 12, 64, 11
1, 336960, Note_on_c, 12, 73, 11
1, 336960, Note_on_c, 13, 38, 100
1, 336960, Note_on_c, 13, 45, 100
1, 337192, Note_off_c, 0, 52, 64
1, 337192, Note_off_c, 0, 61, 64
1, 337226, Note_off_c, 7, 64, 0
1, 337242, Note_on_c, 10, 64, 70
1, 337242, Note_on_c, 10, 69, 74
1, 337242, Note_on_c, 10, 76, 74
1, 337252, Note_off_c, 8, 57, 0
1, 337252, Note_off_c, 8, 61, 0
1, 337252, Note_off_c, 13, 38, 0
1, 337252, Note_off_c, 13, 45, 0
1, 337254, Note_off_c, 7, 69, 0
1, 337262, Note_off_c, 7, 76, 0
1, 337432, Note_off_c, 2, 69, 64
1, 337432, Note_off_c, 2, 78, 64
1, 337432, Note_off_c, 3, 64, 64
1, 337432, Note_off_c, 3, 69, 64
1, 337432, Note_off_c, 4, 78, 0
1, 337432, Note_off_c, 12, 64, 0
1, 337432, Note_off_c, 12, 73, 0
1, 337440, Note_on_c, 0, 52, 5
1, 337440, Note_on_c, 0, 61, 5
1, 337440, Note_on_c, 6, 64, 70
1, 337440, Note_on_c, 6, 69, 70
1, 337440, Note_on_c, 6, 76, 75
1, 337440, Note_on_c, 8, 38, 100
1, 337440, Note_on_c, 8, 45, 100
1, 337440, Note_on_c, 12, 64, 5
1, 337440, Note_on_c, 12, 73, 5
1, 337440, Note_on_c, 13, 57, 100
1, 337440, Note_on_c, 13, 61, 100
1, 337446, Note_off_c, 10, 64, 0
1, 337476, Note_off_c, 10, 76, 0
1, 337514, Note_off_c, 10, 69, 0
1, 337628, Note_off_c, 1, 66, 0
1, 337668, Note_off_c, 6, 69, 0
1, 337672, Note_off_c, 0, 52, 64
1, 337672, Note_off_c, 0, 61, 64
1, 337710, Note_off_c, 6, 64, 0
1, 337732, Note_off_c, 8, 38, 0
1, 337732, Note_off_c, 8, 45, 0
1, 337732, Note_off_c, 13, 57, 0
1, 337732, Note_off_c, 13, 61, 0
1, 337748, Note_off_c, 6, 76, 0
1, 337912, Note_off_c, 12, 64, 0
1, 337912, Note_off_c, 12, 73, 0
1, 337920, Note_on_c, 1, 59, 74
1, 337920, Note_on_c, 2, 71, 100
1, 337920, Note_on_c, 2, 80, 100
1, 337920, Note_on_c, 3, 71, 100
1, 337920, Note_on_c, 3, 76, 100
1, 337920, Note_on_c, 4, 80, 100
1, 337920, Note_on_c, 7, 64, 66
1, 337920, Note_on_c, 7, 69, 70
1, 337920, Note_on_c, 7, 76, 75
1, 337920, Note_on_c, 8, 57, 100
1, 337920, Note_on_c, 8, 61, 100
1, 337920, Note_on_c, 13, 38, 100
1, 337920, Note_on_c, 13, 45, 100
1, 338170, Note_off_c, 7, 69, 0
1, 338184, Note_off_c, 7, 64, 0
1, 338202, Note_on_c, 10, 64, 68
1, 338202, Note_on_c, 10, 69, 68
1, 338202, Note_on_c, 10, 76, 72
1, 338210, Note_off_c, 7, 76, 0
1, 338212, Note_off_c, 8, 57, 0
1, 338212, Note_off_c, 8, 61, 0
1, 338212, Note_off_c, 13, 38, 0
1, 338212, Note_off_c, 13, 45, 0
1, 338392, Note_off_c, 2, 71, 64
1, 338392, Note_off_c, 2, 80, 64
1, 338392, Note_off_c, 3, 71, 64
1, 338392, Note_off_c, 3, 76, 64
1, 338392, Note_off_c, 4, 80, 0
1, 338400, Note_on_c, 1, 69, 75
1, 338400, Note_on_c, 2, 69, 100
1, 338400, Note_on_c, 2, 78, 100
1, 338400, Note_on_c, 3, 66, 100
1, 338400, Note_on_c, 3, 69, 100
1, 338400, Note_on_c, 4, 81, 100
1, 338400, Note_on_c, 6, 64, 69
1, 338400, Note_on_c, 6, 69, 69
1, 338400, Note_on_c, 6, 76, 73
1, 338400, Note_on_c, 8, 38, 100
1, 338400, Note_on_c, 8, 45, 100
1, 338400, Note_on_c, 13, 57, 100
1, 338400, Note_on_c, 13, 61, 100
1, 338408, Note_off_c, 1, 59, 0
1, 338408, Note_off_c, 10, 69, 0
1, 338416, Note_off_c, 10, 64, 0
1, 338426, Note_off_c, 10, 76, 0
1, 338666, Note_off_c, 6, 64, 0
1, 338692, Note_off_c, 8, 38, 0
1, 338692, Note_off_c, 8, 45, 0
1, 338692, Note_off_c, 13, 57, 0
1, 338692, Note_off_c, 13, 61, 0
1, 338704, Note_off_c, 6, 69, 0
1, 338704, Note_off_c, 6, 76, 0
1, 338872, Note_off_c, 2, 69, 64
1, 338872, Note_off_c, 2, 78, 64
1, 338872, Note_off_c, 3, 66, 64
1, 338872, Note_off_c, 3, 69, 64
1, 338872, Note_off_c, 4, 81, 0
1, 338880, Note_on_c, 1, 64, 73
1, 338880, Note_on_c, 2, 73, 100
1, 338880, Note_on_c, 2, 81, 100
1, 338880, Note_on_c, 3, 73, 100
1, 338880, Note_on_c, 3, 76, 100
1, 338880, Note_on_c, 4, 85, 100
1, 338880, Note_on_c, 7, 64, 66
1, 338880, Note_on_c, 7, 69, 70
1, 338880, Note_on_c, 7, 76, 75
1, 338880, Note_on_c, 8, 57, 100
1, 338880, Note_on_c, 8, 61, 100
1, 338880, Note_on_c, 13, 38, 100
1, 338880, Note_on_c, 13, 45, 100
1, 339006, Note_off_c, 1, 69, 0
1, 339130, Note_off_c, 7, 69, 0
1, 339144, Note_off_c, 7, 64, 0
1, 339162, Note_on_c, 10, 64, 70
1, 339162, Note_on_c, 10, 69, 70
1, 339162, Note_on_c, 10, 76, 75
1, 339170, Note_off_c, 7, 76, 0
1, 339172, Note_off_c, 8, 57, 0
1, 339172, Note_off_c, 8, 61, 0
1, 339172, Note_off_c, 13, 38, 0
1, 339172, Note_off_c, 13, 45, 0
1, 339352, Note_off_c, 2, 73, 64
1, 339352, Note_off_c, 2, 81, 64
1, 339352, Note_off_c, 3, 73, 64
1, 339352, Note_off_c, 3, 76, 64
1, 339352, Note_off_c, 4, 85, 0
1, 339360, Note_on_c, 6, 64, 67
1, 339360, Note_on_c, 6, 69, 63
1, 339360, Note_on_c, 6, 76, 74
1, 339360, Note_on_c, 8, 38, 100
1, 339360, Note_on_c, 8, 45, 100
1, 339360, Note_on_c, 13, 57, 100
1, 339360, Note_on_c, 13, 61, 100
1, 339390, Note_off_c, 10, 69, 0
1, 339432, Note_off_c, 10, 64, 0
1, 339470, Note_off_c, 10, 76, 0
1, 339564, Note_off_c, 6, 69, 0
1, 339586, Note_off_c, 1, 64, 0
1, 339626, Note_off_c, 6, 64, 0
1, 339626, Note_off_c, 6, 76, 0
1, 339652, Note_off_c, 8, 38, 0
1, 339652, Note_off_c, 8, 45, 0
1, 339652, Note_off_c, 13, 57, 0
1, 339652, Note_off_c, 13, 61, 0
1, 339840, Note_on_c, 1, 66, 68
1, 339840, Note_on_c, 2, 71, 100
1, 339840, Note_on_c, 2, 80, 100
1, 339840, Note_on_c, 3, 71, 100
1, 339840, Note_on_c, 3, 76, 100
1, 339840, Note_on_c, 4, 83, 100
1, 339840, Note_on_c, 7, 64, 72
1, 339840, Note_on_c, 7, 69, 80
1, 339840, Note_on_c, 7, 76, 77
1, 339840, Note_on_c, 8, 57, 100
1, 339840, Note_on_c, 8, 61, 100
1, 339840, Note_on_c, 13, 38, 100
1, 339840, Note_on_c, 13, 45, 100
1, 340080, Note_off_c, 7, 76, 0
1, 340090, Note_off_c, 7, 64, 0
1, 340090, Note_off_c, 7, 69, 0
1, 340122, Note_on_c, 10, 64, 69
1, 340122, Note_on_c, 10, 69, 69
1, 340122, Note_on_c, 10, 76, 73
1, 340132, Note_off_c, 8, 57, 0
1, 340132, Note_off_c, 8, 61, 0
1, 340132, Note_off_c, 13, 38, 0
1, 340132, Note_off_c, 13, 45, 0
1, 340312, Note_off_c, 2, 71, 64
1, 340312, Note_off_c, 2, 80, 64
1, 340312, Note_off_c, 3, 71, 64
1, 340312, Note_off_c, 3, 76, 64
1, 340312, Note_off_c, 4, 83, 0
1, 340320, Note_on_c, 1, 61, 68
1, 340320, Note_on_c, 2, 69, 100
1, 340320, Note_on_c, 2, 78, 100
1, 340320, Note_on_c, 3, 64, 100
1, 340320, Note_on_c, 3, 69, 100
1, 340320, Note_on_c, 4, 80, 100
1, 340320, Note_on_c, 6, 64, 66
1, 340320, Note_on_c, 6, 69, 63
1, 340320, Note_on_c, 6, 76, 74
1, 340320, Note_on_c, 8, 38, 100
1, 340320, Note_on_c, 8, 45, 100
1, 340320, Note_on_c, 13, 57, 100
1, 340320, Note_on_c, 13, 61, 100
1, 340356, Note_off_c, 1, 66, 0
1, 340388, Note_off_c, 10, 64, 0
1, 340426, Note_off_c, 10, 69, 0
1, 340426, Note_off_c, 10, 76, 0
1, 340550, Note_off_c, 6, 69, 0
1, 340556, Note_off_c, 6, 64, 0
1, 340594, Note_off_c, 6, 76, 0
1, 340612, Note_off_c, 8, 38, 0
1, 340612, Note_off_c, 8, 45, 0
1, 340612, Note_off_c, 13, 57, 0
1, 340612, Note_off_c, 13, 61, 0
1, 340792, Note_off_c, 2, 69, 64
1, 340792, Note_off_c, 2, 78, 64
1, 340792, Note_off_c, 3, 64, 64
1, 340792, Note_off_c, 3, 69, 64
1, 340792, Note_off_c, 4, 80, 0
1, 340800, Note_on_c, 0, 57, 8
1, 340800, Note_on_c, 0, 64, 8
1, 340800, Note_on_c, 7, 64, 70
1, 340800, Note_on_c, 7, 69, 77
1, 340800, Note_on_c, 7, 76, 77
1, 340800, Note_on_c, 8, 57, 100
1, 340800, Note_on_c, 8, 61, 100
1, 340800, Note_on_c, 12, 69, 8
1, 340800, Note_on_c, 12, 76, 8
1, 340800, Note_on_c, 13, 38, 100
1, 340800, Note_on_c, 13, 45, 100
1, 341054, Note_off_c, 7, 64, 0
1, 341082, Note_off_c, 7, 69, 0
1, 341082, Note_on_c, 10, 64, 67
1, 341082, Note_on_c, 10, 69, 63
1, 341082, Note_on_c, 10, 76, 74
1, 341090, Note_off_c, 1, 61, 0
1, 341090, Note_off_c, 7, 76, 0
1, 341092, Note_off_c, 8, 57, 0
1, 341092, Note_off_c, 8, 61, 0
1, 341092, Note_off_c, 13, 38, 0
1, 341092, Note_off_c, 13, 45, 0
1, 341272, Note_off_c, 0, 57, 64
1, 341272, Note_off_c, 0, 64, 64
1, 341272, Note_off_c, 12, 69, 0
1, 341272, Note_off_c, 12, 76, 0
1, 341280, Note_on_c, 0, 57, 13
1, 341280, Note_on_c, 0, 64, 13
1, 341280, Note_on_c, 1, 69, 77
1, 341280, Note_on_c, 2, 71, 100
1, 341280, Note_on_c, 2, 80, 100
1, 341280, Note_on_c, 3, 71, 100
1, 341280, Note_on_c, 3, 76, 100
1, 341280, Note_on_c, 4, 81, 100
1, 341280, Note_on_c, 6, 64, 68
1, 341280, Note_on_c, 6, 69, 74
1, 341280, Note_on_c, 6, 76, 74
1, 341280, Note_on_c, 8, 38, 100
1, 341280, Note_on_c, 8, 45, 100
1, 341280, Note_on_c, 12, 69, 13
1, 341280, Note_on_c, 12, 76, 13
1, 341280, Note_on_c, 13, 57, 100
1, 341280, Note_on_c, 13, 61, 100
1, 341286, Note_off_c, 10, 69, 0
1, 341348, Note_off_c, 10, 64, 0
1, 341348, Note_off_c, 10, 76, 0
1, 341540, Note_off_c, 6, 69, 0
1, 341570, Note_off_c, 6, 76, 0
1, 341572, Note_off_c, 8, 38, 0
1, 341572, Note_off_c, 8, 45, 0
1, 341572, Note_off_c, 13, 57, 0
1, 341572, Note_off_c, 13, 61, 0
1, 341574, Note_off_c, 6, 64, 0
1, 341752, Note_off_c, 0, 57, 64
1, 341752, Note_off_c, 0, 64, 64
1, 341752, Note_off_c, 2, 71, 64
1, 341752, Note_off_c, 2, 80, 64
1, 341752, Note_off_c, 3, 71, 64
1, 341752, Note_off_c, 3, 76, 64
1, 341752, Note_off_c, 4, 81, 0
1, 341752, Note_off_c, 12, 69, 0
1, 341752, Note_off_c, 12, 76, 0
1, 341760, Note_on_c, 0, 57, 19
1, 341760, Note_on_c, 0, 64, 19
1, 341760, Note_on_c, 7, 64, 70
1, 341760, Note_on_c, 7, 69, 73
1, 341760, Note_on_c, 7, 76, 74
1, 341760, Note_on_c, 8, 57, 100
1, 341760, Note_on_c, 8, 61, 100
1, 341760, Note_on_c, 12, 69, 19
1, 341760, Note_on_c, 12, 76, 19
1, 341760, Note_on_c, 13, 38, 100
1, 341760, Note_on_c, 13, 45, 100
1, 341904, Note_off_c, 1, 69, 0
1, 342000, Note_off_c, 7, 64, 0
1, 342006, Note_off_c, 7, 69, 0
1, 342020, Note_off_c, 7, 76, 0
1, 342042, Note_on_c, 10, 64, 66
1, 342042, Note_on_c, 10, 69, 63
1, 342042, Note_on_c, 10, 76, 74
1, 342052, Note_off_c, 8, 57, 0
1, 342052, Note_off_c, 8, 61, 0
1, 342052, Note_off_c, 13, 38, 0
1, 342052, Note_off_c, 13, 45, 0
1, 342232, Note_off_c, 0, 57, 64
1, 342232, Note_off_c, 0, 64, 64
1, 342232, Note_off_c, 12, 69, 0
1, 342232, Note_off_c, 12, 76, 0
1, 342240, Note_on_c, 0, 57, 22
1, 342240, Note_on_c, 0, 64, 22
1, 342240, Note_on_c, 1, 64, 70
1, 342240, Note_on_c, 2, 73, 100
1, 342240, Note_on_c, 2, 81, 100
1, 342240, Note_on_c, 3, 73, 100
1, 342240, Note_on_c, 3, 76, 100
1, 342240, Note_on_c, 4, 83, 100
1, 342240, Note_on_c, 6, 64, 73
1, 342240, Note_on_c, 6, 69, 82
1, 342240, Note_on_c, 6, 76, 77
1, 342240, Note_on_c, 8, 38, 100
1, 342240, Note_on_c, 8, 45, 100
1, 342240, Note_on_c, 12, 69, 22
1, 342240, Note_on_c, 12, 76, 22
1, 342240, Note_on_c, 13, 57, 100
1, 342240, Note_on_c, 13, 61, 100
1, 342272, Note_off_c, 10, 69, 0
1, 342278, Note_off_c, 10, 64, 0
1, 342316, Note_off_c, 10, 76, 0
1, 342518, Note_off_c, 6, 69, 0
1, 342530, Note_off_c, 6, 64, 0
1, 342532, Note_off_c, 8, 38, 0
1, 342532, Note_off_c, 8, 45, 0
1, 342532, Note_off_c, 13, 57, 0
1, 342532, Note_off_c, 13, 61, 0
1, 342538, Note_off_c, 6, 76, 0
1, 342712, Note_off_c, 0, 57, 64
1, 342712, Note_off_c, 0, 64, 64
1, 342712, Note_off_c, 2, 73, 64
1, 342712, Note_off_c, 2, 81, 64
1, 342712, Note_off_c, 3, 73, 64
1, 342712, Note_off_c, 3, 76, 64
1, 342712, Note_off_c, 4, 83, 0
1, 342712, Note_off_c, 5, 50, 0
1, 342712, Note_off_c, 5, 57, 0
1, 342712, Note_off_c, 12, 69, 0
1, 342712, Note_off_c, 12, 76, 0
1, 342720, Note_on_c, 0, 57, 27
1, 342720, Note_on_c, 0, 64, 27
1, 342720, Note_on_c, 1, 66, 77
1, 342720, Note_on_c, 2, 69, 100
1, 342720, Note_on_c, 2, 78, 100
1, 342720, Note_on_c, 3, 64, 100
1, 342720, Note_on_c, 3, 69, 100
1, 342720, Note_on_c, 4, 80, 100
1, 342720, Note_on_c, 5, 52, 100
1, 342720, Note_on_c, 5, 57, 100
1, 342720, Note_on_c, 7, 64, 72
1, 342720, Note_on_c, 7, 69, 77
1, 342720, Note_on_c, 7, 76, 75
1, 342720, Note_on_c, 8, 59, 100
1, 342720, Note_on_c, 8, 61, 100
1, 342720, Note_on_c, 12, 69, 27
1, 342720, Note_on_c, 12, 76, 27
1, 342720, Note_on_c, 13, 40, 100
1, 342720, Note_on_c, 13, 45, 100
1, 342872, Note_off_c, 1, 64, 0
1, 342928, Note_off_c, 7, 69, 0
1, 342942, Note_off_c, 7, 64, 0
1, 342962, Note_off_c, 7, 76, 0
1, 343002, Note_on_c, 10, 64, 68
1, 343002, Note_on_c, 10, 69, 74
1, 343002, Note_on_c, 10, 76, 74
1, 343012, Note_off_c, 8, 59, 0
1, 343012, Note_off_c, 8, 61, 0
1, 343012, Note_off_c, 13, 40, 0
1, 343012, Note_off_c, 13, 45, 0
1, 343192, Note_off_c, 0, 57, 64
1, 343192, Note_off_c, 0, 64, 64
1, 343192, Note_off_c, 2, 69, 64
1, 343192, Note_off_c, 2, 78, 64
1, 343192, Note_off_c, 3, 64, 64
1, 343192, Note_off_c, 3, 69, 64
1, 343192, Note_off_c, 4, 80, 0
1, 343192, Note_off_c, 12, 69, 0
1, 343192, Note_off_c, 12, 76, 0
1, 343200, Note_on_c, 0, 57, 33
1, 343200, Note_on_c, 0, 64, 33
1, 343200, Note_on_c, 6, 64, 72
1, 343200, Note_on_c, 6, 69, 75
1, 343200, Note_on_c, 6, 76, 73
1, 343200, Note_on_c, 8, 40, 100
1, 343200, Note_on_c, 8, 45, 100
1, 343200, Note_on_c, 12, 69, 33
1, 343200, Note_on_c, 12, 76, 33
1, 343200, Note_on_c, 13, 59, 100
1, 343200, Note_on_c, 13, 61, 100
1, 343262, Note_off_c, 10, 69, 0
1, 343292, Note_off_c, 10, 76, 0
1, 343296, Note_off_c, 10, 64, 0
1, 343364, Note_off_c, 1, 66, 0
1, 343488, Note_off_c, 6, 76, 0
1, 343490, Note_off_c, 6, 69, 0
1, 343492, Note_off_c, 8, 40, 0
1, 343492, Note_off_c, 8, 45, 0
1, 343492, Note_off_c, 13, 59, 0
1, 343492, Note_off_c, 13, 61, 0
1, 343498, Note_off_c, 6, 64, 0
1, 343672, Note_off_c, 0, 57, 64
1, 343672, Note_off_c, 0, 64, 64
1, 343672, Note_off_c, 12, 69, 0
1, 343672, Note_off_c, 12, 76, 0
1, 343680, Note_on_c, 0, 57, 38
1, 343680, Note_on_c, 0, 64, 38
1, 343680, Note_on_c, 1, 59, 65
1, 343680, Note_on_c, 2, 71, 100
1, 343680, Note_on_c, 2, 80, 100
1, 343680, Note_on_c, 3, 71, 100
1, 343680, Note_on_c, 3, 76, 100
1, 343680, Note_on_c, 4, 80, 100
1, 343680, Note_on_c, 7, 64, 70
1, 343680, Note_on_c, 7, 69, 78
1, 343680, Note_on_c, 7, 76, 77
1, 343680, Note_on_c, 8, 59, 100
1, 343680, Note_on_c, 8, 61, 100
1, 343680, Note_on_c, 12, 69, 38
1, 343680, Note_on_c, 12, 76, 38
1, 343680, Note_on_c, 13, 40, 100
1, 343680, Note_on_c, 13, 45, 100
1, 343922, Note_off_c, 7, 64, 0
1, 343944, Note_off_c, 7, 76, 0
1, 343962, Note_on_c, 10, 64, 73
1, 343962, Note_on_c, 10, 69, 82
1, 343962, Note_on_c, 10, 76, 77
1, 343968, Note_off_c, 7, 69, 0
1, 343972, Note_off_c, 8, 59, 0
1, 343972, Note_off_c, 8, 61, 0
1, 343972, Note_off_c, 13, 40, 0
1, 343972, Note_off_c, 13, 45, 0
1, 344152, Note_off_c, 0, 57, 64
1, 344152, Note_off_c, 0, 64, 64
1, 344152, Note_off_c, 2, 71, 64
1, 344152, Note_off_c, 2, 80, 64
1, 344152, Note_off_c, 3, 71, 64
1, 344152, Note_off_c, 3, 76, 64
1, 344152, Note_off_c, 4, 80, 0
1, 344152, Note_off_c, 12, 69, 0
1, 344152, Note_off_c, 12, 76, 0
1, 344160, Note_on_c, 0, 57, 41
1, 344160, Note_on_c, 0, 64, 41
1, 344160, Note_on_c, 1, 69, 74
1, 344160, Note_on_c, 2, 69, 100
1, 344160, Note_on_c, 2, 78, 100
1, 344160, Note_on_c, 3, 66, 100
1, 344160, Note_on_c, 3, 69, 100
1, 344160, Note_on_c, 4, 81, 100
1, 344160, Note_on_c, 6, 64, 69
1, 344160, Note_on_c, 6, 69, 70
1, 344160, Note_on_c, 6, 76, 72
1, 344160, Note_on_c, 8, 40, 100
1, 344160, Note_on_c, 8, 45, 100
1, 344160, Note_on_c, 12, 69, 41
1, 344160, Note_on_c, 12, 76, 41
1, 344160, Note_on_c, 13, 59, 100
1, 344160, Note_on_c, 13, 61, 100
1, 344240, Note_off_c, 10, 69, 0
1, 344252, Note_off_c, 10, 64, 0
1, 344254, Note_off_c, 1, 59, 0
1, 344260, Note_off_c, 10, 76, 0
1, 344424, Note_off_c, 6, 69, 0
1, 344448, Note_off_c, 6, 64, 0
1, 344452, Note_off_c, 8, 40, 0
1, 344452, Note_off_c, 8, 45, 0
1, 344452, Note_off_c, 13, 59, 0
1, 344452, Note_off_c, 13, 61, 0
1, 344464, Note_off_c, 6, 76, 0
1, 344632, Note_off_c, 0, 57, 64
1, 344632, Note_off_c, 0, 64, 64
1, 344632, Note_off_c, 2, 69, 64
1, 344632, Note_off_c, 2, 78, 64
1, 344632, Note_off_c, 3, 66, 64
1, 344632, Note_off_c, 3, 69, 64
1, 344632, Note_off_c, 4, 81, 0
1, 344632, Note_off_c, 12, 69, 0
1, 344632, Note_off_c, 12, 76, 0
1, 344640, Note_on_c, 0, 57, 46
1, 344640, Note_on_c, 0, 64, 46
1, 344640, Note_on_c, 1, 64, 68
1, 344640, Note_on_c, 2, 73, 100
1, 344640, Note_on_c, 2, 81, 100
1, 344640, Note_on_c, 3, 73, 100
1, 344640, Note_on_c, 3, 76, 100
1, 344640, Note_on_c, 4, 85, 100
1, 344640, Note_on_c, 7, 64, 70
1, 344640, Note_on_c, 7, 69, 72
1, 344640, Note_on_c, 7, 76, 77
1, 344640, Note_on_c, 8, 59, 100
1, 344640, Note_on_c, 8, 61, 100
1, 344640, Note_on_c, 12, 69, 46
1, 344640, Note_on_c, 12, 76, 46
1, 344640, Note_on_c, 13, 40, 100
1, 344640, Note_on_c, 13, 45, 100
1, 344852, Note_off_c, 1, 69, 0
1, 344894, Note_off_c, 7, 64, 0
1, 344906, Note_off_c, 7, 69, 0
1, 344922, Note_on_c, 10, 64, 72
1, 344922, Note_on_c, 10, 69, 75
1, 344922, Note_on_c, 10, 76, 73
1, 344932, Note_off_c, 8, 59, 0
1, 344932, Note_off_c, 8, 61, 0
1, 344932, Note_off_c, 13, 40, 0
1, 344932, Note_off_c, 13, 45, 0
1, 344962, Note_off_c, 7, 76, 0
1, 345112, Note_off_c, 0, 57, 64
1, 345112, Note_off_c, 0, 64, 64
1, 345112, Note_off_c, 2, 73, 64
1, 345112, Note_off_c, 2, 81, 64
1, 345112, Note_off_c, 3, 73, 64
1, 345112, Note_off_c, 3, 76, 64
1, 345112, Note_off_c, 4, 85, 0
1, 345112, Note_off_c, 12, 69, 0
1, 345112, Note_off_c, 12, 76, 0
1, 345120, Note_on_c, 0, 57, 52
1, 345120, Note_on_c, 0, 64, 52
1, 345120, Note_on_c, 6, 64, 68
1, 345120, Note_on_c, 6, 69, 77
1, 345120, Note_on_c, 6, 76, 73
1, 345120, Note_on_c, 8, 40, 100
1, 345120, Note_on_c, 8, 45, 100
1, 345120, Note_on_c, 12, 69, 52
1, 345120, Note_on_c, 12, 76, 52
1, 345120, Note_on_c, 13, 59, 100
1, 345120, Note_on_c, 13, 61, 100
1, 345210, Note_off_c, 10, 76, 0
1, 345212, Note_off_c, 10, 69, 0
1, 345220, Note_off_c, 10, 64, 0
1, 345254, Note_off_c, 1, 64, 0
1, 345386, Note_off_c, 6, 64, 0
1, 345404, Note_off_c, 6, 69, 0
1, 345404, Note_off_c, 6, 76, 0
1, 345412, Note_off_c, 8, 40, 0
1, 345412, Note_off_c, 8, 45, 0
1, 345412, Note_off_c, 13, 59, 0
1, 345412, Note_off_c, 13, 61, 0
1, 345592, Note_off_c, 0, 57, 64
1, 345592, Note_off_c, 0, 64, 64
1, 345592, Note_off_c, 12, 69, 0
1, 345592, Note_off_c, 12, 76, 0
1, 345600, Note_on_c, 0, 57, 57
1, 345600, Note_on_c, 0, 64, 57
1, 345600, Note_on_c, 1, 66, 77
1, 345600, Note_on_c, 2, 71, 100
1, 345600, Note_on_c, 2, 80, 100
1, 345600, Note_on_c, 3, 71, 100
1, 345600, Note_on_c, 3, 76, 100
1, 345600, Note_on_c, 4, 83, 100
1, 345600, Note_on_c, 7, 64, 73
1, 345600, Note_on_c, 7, 69, 77
1, 345600, Note_on_c, 7, 76, 74
1, 345600, Note_on_c, 8, 59, 100
1, 345600, Note_on_c, 8, 61, 100
1, 345600, Note_on_c, 12, 69, 57
1, 345600, Note_on_c, 12, 76, 57
1, 345600, Note_on_c, 13, 40, 100
1, 345600, Note_on_c, 13, 45, 100
1, 345882, Note_on_c, 10, 64, 69
1, 345882, Note_on_c, 10, 69, 70
1, 345882, Note_on_c, 10, 76, 72
1, 345884, Note_off_c, 7, 69, 0
1, 345892, Note_off_c, 8, 59, 0
1, 345892, Note_off_c, 8, 61, 0
1, 345892, Note_off_c, 13, 40, 0
1, 345892, Note_off_c, 13, 45, 0
1, 345916, Note_off_c, 7, 76, 0
1, 345922, Note_off_c, 7, 64, 0
1, 346072, Note_off_c, 0, 57, 64
1, 346072, Note_off_c, 0, 64, 64
1, 346072, Note_off_c, 2, 71, 64
1, 346072, Note_off_c, 2, 80, 64
1, 346072, Note_off_c, 3, 71, 64
1, 346072, Note_off_c, 3, 76, 64
1, 346072, Note_off_c, 4, 83, 0
1, 346072, Note_off_c, 12, 69, 0
1, 346072, Note_off_c, 12, 76, 0
1, 346080, Note_on_c, 0, 57, 60
1, 346080, Note_on_c, 0, 64, 60
1, 346080, Note_on_c, 1, 61, 70
1, 346080, Note_on_c, 2, 69, 100
1, 346080, Note_on_c, 2, 78, 100
1, 346080, Note_on_c, 3, 64, 100
1, 346080, Note_on_c, 3, 69, 100
1, 346080, Note_on_c, 4, 80, 100
1, 346080, Note_on_c, 6, 64, 72
1, 346080, Note_on_c, 6, 69, 52
1, 346080, Note_on_c, 6, 76, 72
1, 346080, Note_on_c, 8, 40, 100
1, 346080, Note_on_c, 8, 45, 100
1, 346080, Note_on_c, 12, 69, 60
1, 346080, Note_on_c, 12, 76, 60
1, 346080, Note_on_c, 13, 59, 100
1, 346080, Note_on_c, 13, 61, 100
1, 346146, Note_off_c, 10, 69, 0
1, 346170, Note_off_c, 10, 64, 0
1, 346186, Note_off_c, 10, 76, 0
1, 346232, Note_off_c, 6, 69, 0
1, 346242, Note_off_c, 1, 66, 0
1, 346320, Note_off_c, 6, 64, 0
1, 346326, Note_off_c, 6, 76, 0
1, 346372, Note_off_c, 8, 40, 0
1, 346372, Note_off_c, 8, 45, 0
1, 346372, Note_off_c, 13, 59, 0
1, 346372, Note_off_c, 13, 61, 0
1, 346552, Note_off_c, 0, 57, 64
1, 346552, Note_off_c, 0, 64, 64
1, 346552, Note_off_c, 2, 69, 64
1, 346552, Note_off_c, 2, 78, 64
1, 346552, Note_off_c, 3, 64, 64
1, 346552, Note_off_c, 3, 69, 64
1, 346552, Note_off_c, 4, 80, 0
1, 346552, Note_off_c, 12, 69, 0
1, 346552, Note_off_c, 12, 76, 0
1, 346560, Note_on_c, 0, 57, 66
1, 346560, Note_on_c, 0, 64, 66
1, 346560, Note_on_c, 7, 64, 68
1, 346560, Note_on_c, 7, 69, 70
1, 346560, Note_on_c, 7, 76, 72
1, 346560, Note_on_c, 8, 59, 100
1, 346560, Note_on_c, 8, 61, 100
1, 346560, Note_on_c, 12, 69, 66
1, 346560, Note_on_c, 12, 76, 66
1, 346560, Note_on_c, 13, 40, 100
1, 346560, Note_on_c, 13, 45, 100
1, 346708, Note_off_c, 1, 61, 0
1, 346842, Note_on_c, 10, 64, 68
1, 346842, Note_on_c, 10, 69, 77
1, 346842, Note_on_c, 10, 76, 73
1, 346850, Note_off_c, 7, 69, 0
1, 346852, Note_off_c, 8, 59, 0
1, 346852, Note_off_c, 8, 61, 0
1, 346852, Note_off_c, 13, 40, 0
1, 346852, Note_off_c, 13, 45, 0
1, 346868, Note_off_c, 7, 76, 0
1, 346874, Note_off_c, 7, 64, 0
1, 347032, Note_off_c, 0, 57, 64
1, 347032, Note_off_c, 0, 64, 64
1, 347032, Note_off_c, 12, 69, 0
1, 347032, Note_off_c, 12, 76, 0
1, 347040, Note_on_c, 0, 57, 71
1, 347040, Note_on_c, 0, 64, 71
1, 347040, Note_on_c, 1, 69, 77
1, 347040, Note_on_c, 2, 71, 100
1, 347040, Note_on_c, 2, 80, 100
1, 347040, Note_on_c, 3, 71, 100
1, 347040, Note_on_c, 3, 76, 100
1, 347040, Note_on_c, 4, 81, 100
1, 347040, Note_on_c, 6, 64, 68
1, 347040, Note_on_c, 6, 69, 70
1, 347040, Note_on_c, 6, 76, 74
1, 347040, Note_on_c, 8, 40, 100
1, 347040, Note_on_c, 8, 45, 100
1, 347040, Note_on_c, 12, 69, 71
1, 347040, Note_on_c, 12, 76, 71
1, 347040, Note_on_c, 13, 59, 100
1, 347040, Note_on_c, 13, 61, 100
1, 347108, Note_off_c, 10, 64, 0
1, 347126, Note_off_c, 10, 69, 0
1, 347126, Note_off_c, 10, 76, 0
1, 347272, Note_off_c, 6, 69, 0
1, 347282, Note_off_c, 6, 64, 0
1, 347290, Note_off_c, 6, 76, 0
1, 347332, Note_off_c, 8, 40, 0
1, 347332, Note_off_c, 8, 45, 0
1, 347332, Note_off_c, 13, 59, 0
1, 347332, Note_off_c, 13, 61, 0
1, 347512, Note_off_c, 0, 57, 64
1, 347512, Note_off_c, 0, 64, 64
1, 347512, Note_off_c, 2, 71, 64
1, 347512, Note_off_c, 2, 80, 64
1, 347512, Note_off_c, 3, 71, 64
1, 347512, Note_off_c, 3, 76, 64
1, 347512, Note_off_c, 4, 81, 0
1, 347512, Note_off_c, 12, 69, 0
1, 347512, Note_off_c, 12, 76, 0
1, 347520, Note_on_c, 0, 57, 74
1, 347520, Note_on_c, 0, 64, 74
1, 347520, Note_on_c, 7, 64, 68
1, 347520, Note_on_c, 7, 69, 70
1, 347520, Note_on_c, 7, 76, 73
1, 347520, Note_on_c, 8, 59, 100
1, 347520, Note_on_c, 8, 61, 100
1, 347520, Note_on_c, 12, 69, 74
1, 347520, Note_on_c, 12, 76, 74
1, 347520, Note_on_c, 13, 40, 100
1, 347520, Note_on_c, 13, 45, 100
1, 347688, Note_off_c, 1, 69, 0
1, 347768, Note_off_c, 7, 64, 0
1, 347782, Note_off_c, 7, 69, 0
1, 347782, Note_off_c, 7, 76, 0
1, 347802, Note_on_c, 10, 64, 72
1, 347802, Note_on_c, 10, 69, 52
1, 347802, Note_on_c, 10, 76, 72
1, 347812, Note_off_c, 8, 59, 0
1, 347812, Note_off_c, 8, 61, 0
1, 347812, Note_off_c, 13, 40, 0
1, 347812, Note_off_c, 13, 45, 0
1, 347954, Note_off_c, 10, 69, 0
1, 347992, Note_off_c, 0, 57, 64
1, 347992, Note_off_c, 0, 64, 64
1, 347992, Note_off_c, 12, 69, 0
1, 347992, Note_off_c, 12, 76, 0
1, 348000, Note_on_c, 0, 57, 80
1, 348000, Note_on_c, 0, 64, 80
1, 348000, Note_on_c, 1, 64, 68
1, 348000, Note_on_c, 2, 73, 100
1, 348000, Note_on_c, 2, 81, 100
1, 348000, Note_on_c, 3, 73, 100
1, 348000, Note_on_c, 3, 76, 100
1, 348000, Note_on_c, 4, 83, 100
1, 348000, Note_on_c, 6, 64, 68
1, 348000, Note_on_c, 6, 69, 69
1, 348000, Note_on_c, 6, 76, 72
1, 348000, Note_on_c, 8, 40, 100
1, 348000, Note_on_c, 8, 45, 100
1, 348000, Note_on_c, 12, 69, 80
1, 348000, Note_on_c, 12, 76, 80
1, 348000, Note_on_c, 13, 59, 100
1, 348000, Note_on_c, 13, 61, 100
1, 348042, Note_off_c, 10, 64, 0
1, 348048, Note_off_c, 10, 76, 0
1, 348216, Note_off_c, 6, 76, 0
1, 348218, Note_off_c, 6, 69, 0
1, 348232, Note_off_c, 6, 64, 0
1, 348292, Note_off_c, 8, 40, 0
1, 348292, Note_off_c, 8, 45, 0
1, 348292, Note_off_c, 13, 59, 0
1, 348292, Note_off_c, 13, 61, 0
1, 348444, Note_off_c, 1, 64, 0
1, 348472, Note_off_c, 0, 57, 64
1, 348472, Note_off_c, 0, 64, 64
1, 348472, Note_off_c, 2, 73, 64
1, 348472, Note_off_c, 2, 81, 64
1, 348472, Note_off_c, 3, 73, 64
1, 348472, Note_off_c, 3, 76, 64
1, 348472, Note_off_c, 4, 83, 0
1, 348472, Note_off_c, 5, 52, 0
1, 348472, Note_off_c, 5, 57, 0
1, 348472, Note_off_c, 12, 69, 0
1, 348472, Note_off_c, 12, 76, 0
1, 348480, Note_on_c, 0, 57, 85
1, 348480, Note_on_c, 0, 64, 85
1, 348480, Note_on_c, 1, 66, 78
1, 348480, Note_on_c, 2, 69, 100
1, 348480, Note_on_c, 2, 78, 100
1, 348480, Note_on_c, 3, 64, 100
1, 348480, Note_on_c, 3, 69, 100
1, 348480, Note_on_c, 4, 80, 100
1, 348480, Note_on_c, 5, 50, 100
1, 348480, Note_on_c, 5, 57, 100
1, 348480, Note_on_c, 7, 64, 70
1, 348480, Note_on_c, 7, 69, 83
1, 348480, Note_on_c, 7, 76, 74
1, 348480, Note_on_c, 8, 57, 100
1, 348480, Note_on_c, 8, 61, 100
1, 348480, Note_on_c, 12, 69, 85
1, 348480, Note_on_c, 12, 76, 85
1, 348480, Note_on_c, 13, 38, 100
1, 348480, Note_on_c, 13, 45, 100
1, 348720, Note_off_c, 7, 64, 0
1, 348720, Note_off_c, 7, 76, 0
1, 348730, Note_off_c, 7, 69, 0
1, 348762, Note_on_c, 10, 64, 68
1, 348762, Note_on_c, 10, 69, 70
1, 348762, Note_on_c, 10, 76, 74
1, 348772, Note_off_c, 8, 57, 0
1, 348772, Note_off_c, 8, 61, 0
1, 348772, Note_off_c, 13, 38, 0
1, 348772, Note_off_c, 13, 45, 0
1, 348952, Note_off_c, 0, 57, 64
1, 348952, Note_off_c, 0, 64, 64
1, 348952, Note_off_c, 2, 69, 64
1, 348952, Note_off_c, 2, 78, 64
1, 348952, Note_off_c, 3, 64, 64
1, 348952, Note_off_c, 3, 69, 64
1, 348952, Note_off_c, 4, 80, 0
1, 348952, Note_off_c, 12, 69, 0
1, 348952, Note_off_c, 12, 76, 0
1, 348960, Note_on_c, 0, 57, 91
1, 348960, Note_on_c, 0, 64, 91
1, 348960, Note_on_c, 6, 64, 67
1, 348960, Note_on_c, 6, 69, 67
1, 348960, Note_on_c, 6, 76, 72
1, 348960, Note_on_c, 8, 38, 100
1, 348960, Note_on_c, 8, 45, 100
1, 348960, Note_on_c, 12, 69, 91
1, 348960, Note_on_c, 12, 76, 91
1, 348960, Note_on_c, 13, 57, 100
1, 348960, Note_on_c, 13, 61, 100
1, 348994, Note_off_c, 10, 69, 0
1, 349004, Note_off_c, 10, 64, 0
1, 349012, Note_off_c, 10, 76, 0
1, 349148, Note_off_c, 1, 66, 0
1, 349206, Note_off_c, 6, 64, 0
1, 349210, Note_off_c, 6, 69, 0
1, 349226, Note_off_c, 6, 76, 0
1, 349252, Note_off_c, 8, 38, 0
1, 349252, Note_off_c, 8, 45, 0
1, 349252, Note_off_c, 13, 57, 0
1, 349252, Note_off_c, 13, 61, 0
1, 349432, Note_off_c, 0, 57, 64
1, 349432, Note_off_c, 0, 64, 64
1, 349432, Note_off_c, 12, 69, 0
1, 349432, Note_off_c, 12, 76, 0
1, 349440, Note_on_c, 0, 57, 93
1, 349440, Note_on_c, 0, 64, 93
1, 349440, Note_on_c, 1, 59, 74
1, 349440, Note_on_c, 2, 71, 100
1, 349440, Note_on_c, 2, 80, 100
1, 349440, Note_on_c, 3, 71, 100
1, 349440, Note_on_c, 3, 76, 100
1, 349440, Note_on_c, 4, 80, 100
1, 349440, Note_on_c, 7, 64, 67
1, 349440, Note_on_c, 7, 69, 78
1, 349440, Note_on_c, 7, 76, 73
1, 349440, Note_on_c, 8, 57, 100
1, 349440, Note_on_c, 8, 61, 100
1, 349440, Note_on_c, 12, 69, 93
1, 349440, Note_on_c, 12, 76, 93
1, 349440, Note_on_c, 13, 38, 100
1, 349440, Note_on_c, 13, 45, 100
1, 349690, Note_off_c, 7, 76, 0
1, 349696, Note_off_c, 7, 69, 0
1, 349704, Note_off_c, 7, 64, 0
1, 349722, Note_on_c, 10, 64, 68
1, 349722, Note_on_c, 10, 69, 69
1, 349722, Note_on_c, 10, 76, 72
1, 349732, Note_off_c, 8, 57, 0
1, 349732, Note_off_c, 8, 61, 0
1, 349732, Note_off_c, 13, 38, 0
1, 349732, Note_off_c, 13, 45, 0
1, 349912, Note_off_c, 0, 57, 64
1, 349912, Note_off_c, 0, 64, 64
1, 349912, Note_off_c, 2, 71, 64
1, 349912, Note_off_c, 2, 80, 64
1, 349912, Note_off_c, 3, 71, 64
1, 349912, Note_off_c, 3, 76, 64
1, 349912, Note_off_c, 4, 80, 0
1, 349912, Note_off_c, 12, 69, 0
1, 349912, Note_off_c, 12, 76, 0
1, 349920, Note_on_c, 0, 57, 99
1, 349920, Note_on_c, 0, 64, 99
1, 349920, Note_on_c, 1, 69, 75
1, 349920, Note_on_c, 2, 69, 100
1, 349920, Note_on_c, 2, 78, 100
1, 349920, Note_on_c, 3, 66, 100
1, 349920, Note_on_c, 3, 69, 100
1, 349920, Note_on_c, 4, 81, 100
1, 349920, Note_on_c, 6, 64, 67
1, 349920, Note_on_c, 6, 69, 63
1, 349920, Note_on_c, 6, 76, 72
1, 349920, Note_on_c, 8, 38, 100
1, 349920, Note_on_c, 8, 45, 100
1, 349920, Note_on_c, 12, 69, 99
1, 349920, Note_on_c, 12, 76, 99
1, 349920, Note_on_c, 13, 57, 100
1, 349920, Note_on_c, 13, 61, 100
1, 349928, Note_off_c, 1, 59, 0
1, 349938, Note_off_c, 10, 76, 0
1, 349940, Note_off_c, 10, 69, 0
1, 349954, Note_off_c, 10, 64, 0
1, 350168, Note_off_c, 6, 69, 0
1, 350196, Note_off_c, 6, 64, 0
1, 350212, Note_off_c, 6, 76, 0
1, 350212, Note_off_c, 8, 38, 0
1, 350212, Note_off_c, 8, 45, 0
1, 350212, Note_off_c, 13, 57, 0
1, 350212, Note_off_c, 13, 61, 0
1, 350392, Note_off_c, 0, 57, 64
1, 350392, Note_off_c, 0, 64, 64
1, 350392, Note_off_c, 2, 69, 64
1, 350392, Note_off_c, 2, 78, 64
1, 350392, Note_off_c, 3, 66, 64
1, 350392, Note_off_c, 3, 69, 64
1, 350392, Note_off_c, 4, 81, 0
1, 350392, Note_off_c, 12, 69, 0
1, 350392, Note_off_c, 12, 76, 0
1, 350400, Note_on_c, 0, 57, 104
1, 350400, Note_on_c, 0, 64, 104
1, 350400, Note_on_c, 1, 64, 73
1, 350400, Note_on_c, 2, 73, 100
1, 350400, Note_on_c, 2, 81, 100
1, 350400, Note_on_c, 3, 73, 100
1, 350400, Note_on_c, 3, 76, 100
1, 350400, Note_on_c, 4, 85, 100
1, 350400, Note_on_c, 7, 64, 69
1, 350400, Note_on_c, 7, 69, 70
1, 350400, Note_on_c, 7, 76, 73
1, 350400, Note_on_c, 8, 57, 100
1, 350400, Note_on_c, 8, 61, 100
1, 350400, Note_on_c, 12, 69, 104
1, 350400, Note_on_c, 12, 76, 104
1, 350400, Note_on_c, 13, 38, 100
1, 350400, Note_on_c, 13, 45, 100
1, 350526, Note_off_c, 1, 69, 0
1, 350620, Note_off_c, 7, 69, 0
1, 350642, Note_off_c, 7, 76, 0
1, 350652, Note_off_c, 7, 64, 0
1, 350682, Note_on_c, 10, 64, 67
1, 350682, Note_on_c, 10, 69, 67
1, 350682, Note_on_c, 10, 76, 72
1, 350692, Note_off_c, 8, 57, 0
1, 350692, Note_off_c, 8, 61, 0
1, 350692, Note_off_c, 13, 38, 0
1, 350692, Note_off_c, 13, 45, 0
1, 350872, Note_off_c, 0, 57, 64
1, 350872, Note_off_c, 0, 64, 64
1, 350872, Note_off_c, 2, 73, 64
1, 350872, Note_off_c, 2, 81, 64
1, 350872, Note_off_c, 3, 73, 64
1, 350872, Note_off_c, 3, 76, 64
1, 350872, Note_off_c, 4, 85, 0
1, 350872, Note_off_c, 12, 69, 0
1, 350872, Note_off_c, 12, 76, 0
1, 350880, Note_on_c, 0, 57, 110
1, 350880, Note_on_c, 0, 64, 110
1, 350880, Note_on_c, 6, 64, 68
1, 350880, Note_on_c, 6, 69, 66
1, 350880, Note_on_c, 6, 76, 70
1, 350880, Note_on_c, 8, 38, 100
1, 350880, Note_on_c, 8, 45, 100
1, 350880, Note_on_c, 12, 69, 110
1, 350880, Note_on_c, 12, 76, 110
1, 350880, Note_on_c, 13, 57, 100
1, 350880, Note_on_c, 13, 61, 100
1, 350928, Note_off_c, 10, 64, 0
1, 350932, Note_off_c, 10, 69, 0
1, 350948, Note_off_c, 10, 76, 0
1, 351076, Note_off_c, 6, 69, 0
1, 351100, Note_off_c, 6, 64, 0
1, 351106, Note_off_c, 1, 64, 0
1, 351118, Note_off_c, 6, 76, 0
1, 351172, Note_off_c, 8, 38, 0
1, 351172, Note_off_c, 8, 45, 0
1, 351172, Note_off_c, 13, 57, 0
1, 351172, Note_off_c, 13, 61, 0
1, 351352, Note_off_c, 0, 57, 64
1, 351352, Note_off_c, 0, 64, 64
1, 351352, Note_off_c, 5, 50, 0
1, 351352, Note_off_c, 5, 57, 0
1, 351352, Note_off_c, 12, 69, 0
1, 351352, Note_off_c, 12, 76, 0
1, 351360, Note_on_c, 0, 57, 113
1, 351360, Note_on_c, 0, 64, 113
1, 351360, Note_on_c, 1, 66, 68
1, 351360, Note_on_c, 2, 71, 100
1, 351360, Note_on_c, 2, 80, 100
1, 351360, Note_on_c, 3, 71, 100
1, 351360, Note_on_c, 3, 76, 100
1, 351360, Note_on_c, 4, 83, 100
1, 351360, Note_on_c, 5, 52, 100
1, 351360, Note_on_c, 5, 57, 100
1, 351360, Note_on_c, 7, 64, 69
1, 351360, Note_on_c, 7, 69, 75
1, 351360, Note_on_c, 7, 76, 73
1, 351360, Note_on_c, 8, 59, 100
1, 351360, Note_on_c, 8, 61, 100
1, 351360, Note_on_c, 12, 69, 113
1, 351360, Note_on_c, 12, 76, 113
1, 351360, Note_on_c, 13, 40, 100
1, 351360, Note_on_c, 13, 45, 100
1, 351574, Note_off_c, 7, 69, 0
1, 351590, Note_off_c, 7, 64, 0
1, 351604, Note_off_c, 7, 76, 0
1, 351642, Note_on_c, 10, 64, 67
1, 351642, Note_on_c, 10, 69, 63
1, 351642, Note_on_c, 10, 76, 72
1, 351652, Note_off_c, 8, 59, 0
1, 351652, Note_off_c, 8, 61, 0
1, 351652, Note_off_c, 13, 40, 0
1, 351652, Note_off_c, 13, 45, 0
1, 351832, Note_off_c, 0, 57, 64
1, 351832, Note_off_c, 0, 64, 64
1, 351832, Note_off_c, 2, 71, 64
1, 351832, Note_off_c, 2, 80, 64
1, 351832, Note_off_c, 3, 71, 64
1, 351832, Note_off_c, 3, 76, 64
1, 351832, Note_off_c, 4, 83, 0
1, 351832, Note_off_c, 12, 69, 0
1, 351832, Note_off_c, 12, 76, 0
1, 351840, Note_on_c, 0, 57, 118
1, 351840, Note_on_c, 0, 64, 118
1, 351840, Note_on_c, 1, 61, 68
1, 351840, Note_on_c, 2, 69, 100
1, 351840, Note_on_c, 2, 78, 100
1, 351840, Note_on_c, 3, 64, 100
1, 351840, Note_on_c, 3, 69, 100
1, 351840, Note_on_c, 4, 80, 100
1, 351840, Note_on_c, 6, 64, 68
1, 351840, Note_on_c, 6, 69, 63
1, 351840, Note_on_c, 6, 76, 72
1, 351840, Note_on_c, 8, 40, 100
1, 351840, Note_on_c, 8, 45, 100
1, 351840, Note_on_c, 12, 69, 118
1, 351840, Note_on_c, 12, 76, 118
1, 351840, Note_on_c, 13, 59, 100
1, 351840, Note_on_c, 13, 61, 100
1, 351876, Note_off_c, 1, 66, 0
1, 351890, Note_off_c, 10, 69, 0
1, 351918, Note_off_c, 10, 64, 0
1, 351934, Note_off_c, 10, 76, 0
1, 352050, Note_off_c, 6, 64, 0
1, 352084, Note_off_c, 6, 76, 0
1, 352102, Note_off_c, 6, 69, 0
1, 352132, Note_off_c, 8, 40, 0
1, 352132, Note_off_c, 8, 45, 0
1, 352132, Note_off_c, 13, 59, 0
1, 352132, Note_off_c, 13, 61, 0
1, 352312, Note_off_c, 0, 57, 64
1, 352312, Note_off_c, 0, 64, 64
1, 352312, Note_off_c, 2, 69, 64
1, 352312, Note_off_c, 2, 78, 64
1, 352312, Note_off_c, 3, 64, 64
1, 352312, Note_off_c, 3, 69, 64
1, 352312, Note_off_c, 4, 80, 0
1, 352312, Note_off_c, 12, 69, 0
1, 352312, Note_off_c, 12, 76, 0
1, 352320, Note_on_c, 0, 57, 127
1, 352320, Note_on_c, 0, 64, 127
1, 352320, Note_on_c, 7, 64, 68
1, 352320, Note_on_c, 7, 69, 74
1, 352320, Note_on_c, 7, 76, 74
1, 352320, Note_on_c, 8, 59, 100
1, 352320, Note_on_c, 8, 61, 100
1, 352320, Note_on_c, 12, 69, 127
1, 352320, Note_on_c, 12, 76, 127
1, 352320, Note_on_c, 13, 40, 100
1, 352320, Note_on_c, 13, 45, 100
1, 352544, Note_off_c, 7, 69, 0
1, 352584, Note_off_c, 7, 64, 0
1, 352594, Note_off_c, 7, 76, 0
1, 352602, Note_on_c, 10, 64, 68
1, 352602, Note_on_c, 10, 69, 66
1, 352602, Note_on_c, 10, 76, 70
1, 352610, Note_off_c, 1, 61, 0
1, 352612, Note_off_c, 8, 59, 0
1, 352612, Note_off_c, 8, 61, 0
1, 352612, Note_off_c, 13, 40, 0
1, 352612, Note_off_c, 13, 45, 0
1, 352792, Note_off_c, 0, 57, 64
1, 352792, Note_off_c, 0, 64, 64
1, 352792, Note_off_c, 12, 69, 0
1, 352792, Note_off_c, 12, 76, 0
1, 352798, Note_off_c, 10, 69, 0
1, 352800, Note_on_c, 0, 57, 124
1, 352800, Note_on_c, 0, 64, 124
1, 352800, Note_on_c, 1, 69, 77
1, 352800, Note_on_c, 2, 71, 100
1, 352800, Note_on_c, 2, 80, 100
1, 352800, Note_on_c, 3, 71, 100
1, 352800, Note_on_c, 3, 76, 100
1, 352800, Note_on_c, 4, 81, 100
1, 352800, Note_on_c, 6, 64, 70
1, 352800, Note_on_c, 6, 69, 69
1, 352800, Note_on_c, 6, 76, 72
1, 352800, Note_on_c, 8, 40, 100
1, 352800, Note_on_c, 8, 45, 100
1, 352800, Note_on_c, 12, 69, 124
1, 352800, Note_on_c, 12, 76, 124
1, 352800, Note_on_c, 13, 59, 100
1, 352800, Note_on_c, 13, 61, 100
1, 352822, Note_off_c, 10, 64, 0
1, 352840, Note_off_c, 10, 76, 0
1, 353034, Note_off_c, 6, 69, 0
1, 353062, Note_off_c, 6, 64, 0
1, 353062, Note_off_c, 6, 76, 0
1, 353092, Note_off_c, 8, 40, 0
1, 353092, Note_off_c, 8, 45, 0
1, 353092, Note_off_c, 13, 59, 0
1, 353092, Note_off_c, 13, 61, 0
1, 353272, Note_off_c, 0, 57, 64
1, 353272, Note_off_c, 0, 64, 64
1, 353272, Note_off_c, 2, 71, 64
1, 353272, Note_off_c, 2, 80, 64
1, 353272, Note_off_c, 3, 71, 64
1, 353272, Note_off_c, 3, 76, 64
1, 353272, Note_off_c, 4, 81, 0
1, 353272, Note_off_c, 12, 69, 0
1, 353272, Note_off_c, 12, 76, 0
1, 353280, Note_on_c, 0, 57, 118
1, 353280, Note_on_c, 0, 64, 118
1, 353280, Note_on_c, 7, 64, 68
1, 353280, Note_on_c, 7, 69, 73
1, 353280, Note_on_c, 7, 76, 73
1, 353280, Note_on_c, 8, 59, 100
1, 353280, Note_on_c, 8, 61, 100
1, 353280, Note_on_c, 12, 69, 118
1, 353280, Note_on_c, 12, 76, 118
1, 353280, Note_on_c, 13, 40, 100
1, 353280, Note_on_c, 13, 45, 100
1, 353424, Note_off_c, 1, 69, 0
1, 353504, Note_off_c, 7, 64, 0
1, 353528, Note_off_c, 7, 69, 0
1, 353528, Note_off_c, 7, 76, 0
1, 353562, Note_on_c, 10, 64, 68
1, 353562, Note_on_c, 10, 69, 63
1, 353562, Note_on_c, 10, 76, 72
1, 353572, Note_off_c, 8, 59, 0
1, 353572, Note_off_c, 8, 61, 0
1, 353572, Note_off_c, 13, 40, 0
1, 353572, Note_off_c, 13, 45, 0
1, 353752, Note_off_c, 0, 57, 64
1, 353752, Note_off_c, 0, 64, 64
1, 353752, Note_off_c, 12, 69, 0
1, 353752, Note_off_c, 12, 76, 0
1, 353760, Note_on_c, 0, 57, 113
1, 353760, Note_on_c, 0, 64, 113
1, 353760, Note_on_c, 1, 64, 70
1, 353760, Note_on_c, 2, 73, 100
1, 353760, Note_on_c, 2, 81, 100
1, 353760, Note_on_c, 3, 73, 100
1, 353760, Note_on_c, 3, 76, 100
1, 353760, Note_on_c, 4, 83, 100
1, 353760, Note_on_c, 6, 64, 68
1, 353760, Note_on_c, 6, 69, 70
1, 353760, Note_on_c, 6, 76, 70
1, 353760, Note_on_c, 8, 40, 100
1, 353760, Note_on_c, 8, 45, 100
1, 353760, Note_on_c, 12, 69, 113
1, 353760, Note_on_c, 12, 76, 113
1, 353760, Note_on_c, 13, 59, 100
1, 353760, Note_on_c, 13, 61, 100
1, 353772, Note_off_c, 10, 64, 0
1, 353806, Note_off_c, 10, 76, 0
1, 353824, Note_off_c, 10, 69, 0
1, 353968, Note_off_c, 6, 64, 0
1, 353996, Note_off_c, 6, 69, 0
1, 354000, Note_off_c, 6, 76, 0
1, 354052, Note_off_c, 8, 40, 0
1, 354052, Note_off_c, 8, 45, 0
1, 354052, Note_off_c, 13, 59, 0
1, 354052, Note_off_c, 13, 61, 0
1, 354232, Note_off_c, 0, 57, 64
1, 354232, Note_off_c, 0, 64, 64
1, 354232, Note_off_c, 2, 73, 64
1, 354232, Note_off_c, 2, 81, 64
1, 354232, Note_off_c, 3, 73, 64
1, 354232, Note_off_c, 3, 76, 64
1, 354232, Note_off_c, 4, 83, 0
1, 354232, Note_off_c, 5, 52, 0
1, 354232, Note_off_c, 5, 57, 0
1, 354232, Note_off_c, 12, 69, 0
1, 354232, Note_off_c, 12, 76, 0
1, 354240, Note_on_c, 0, 57, 107
1, 354240, Note_on_c, 0, 64, 107
1, 354240, Note_on_c, 1, 66, 77
1, 354240, Note_on_c, 2, 69, 100
1, 354240, Note_on_c, 2, 78, 100
1, 354240, Note_on_c, 3, 64, 100
1, 354240, Note_on_c, 3, 69, 100
1, 354240, Note_on_c, 4, 80, 100
1, 354240, Note_on_c, 5, 50, 100
1, 354240, Note_on_c, 5, 57, 100
1, 354240, Note_on_c, 7, 64, 66
1, 354240, Note_on_c, 7, 69, 74
1, 354240, Note_on_c, 7, 76, 73
1, 354240, Note_on_c, 8, 57, 100
1, 354240, Note_on_c, 8, 61, 100
1, 354240, Note_on_c, 12, 69, 107
1, 354240, Note_on_c, 12, 76, 107
1, 354240, Note_on_c, 13, 38, 100
1, 354240, Note_on_c, 13, 45, 100
1, 354392, Note_off_c, 1, 64, 0
1, 354474, Note_off_c, 7, 64, 0
1, 354494, Note_off_c, 7, 76, 0
1, 354522, Note_off_c, 7, 69, 0
1, 354522, Note_on_c, 10, 64, 70
1, 354522, Note_on_c, 10, 69, 69
1, 354522, Note_on_c, 10, 76, 72
1, 354532, Note_off_c, 8, 57, 0
1, 354532, Note_off_c, 8, 61, 0
1, 354532, Note_off_c, 13, 38, 0
1, 354532, Note_off_c, 13, 45, 0
1, 354712, Note_off_c, 0, 57, 64
1, 354712, Note_off_c, 0, 64, 64
1, 354712, Note_off_c, 2, 69, 64
1, 354712, Note_off_c, 2, 78, 64
1, 354712, Note_off_c, 3, 64, 64
1, 354712, Note_off_c, 3, 69, 64
1, 354712, Note_off_c, 4, 80, 0
1, 354712, Note_off_c, 12, 69, 0
1, 354712, Note_off_c, 12, 76, 0
1, 354720, Note_on_c, 0, 57, 102
1, 354720, Note_on_c, 0, 64, 102
1, 354720, Note_on_c, 6, 64, 67
1, 354720, Note_on_c, 6, 69, 73
1, 354720, Note_on_c, 6, 76, 74
1, 354720, Note_on_c, 8, 38, 100
1, 354720, Note_on_c, 8, 45, 100
1, 354720, Note_on_c, 12, 69, 102
1, 354720, Note_on_c, 12, 76, 102
1, 354720, Note_on_c, 13, 57, 100
1, 354720, Note_on_c, 13, 61, 100
1, 354756, Note_off_c, 10, 69, 0
1, 354784, Note_off_c, 10, 64, 0
1, 354784, Note_off_c, 10, 76, 0
1, 354884, Note_off_c, 1, 66, 0
1, 354936, Note_off_c, 6, 64, 0
1, 354956, Note_off_c, 6, 76, 0
1, 354966, Note_off_c, 6, 69, 0
1, 355012, Note_off_c, 8, 38, 0
1, 355012, Note_off_c, 8, 45, 0
1, 355012, Note_off_c, 13, 57, 0
1, 355012, Note_off_c, 13, 61, 0
1, 355192, Note_off_c, 0, 57, 64
1, 355192, Note_off_c, 0, 64, 64
1, 355192, Note_off_c, 12, 69, 0
1, 355192, Note_off_c, 12, 76, 0
1, 355200, Note_on_c, 0, 57, 96
1, 355200, Note_on_c, 0, 64, 96
1, 355200, Note_on_c, 1, 59, 65
1, 355200, Note_on_c, 2, 71, 100
1, 355200, Note_on_c, 2, 80, 100
1, 355200, Note_on_c, 3, 71, 100
1, 355200, Note_on_c, 3, 76, 100
1, 355200, Note_on_c, 4, 80, 100
1, 355200, Note_on_c, 7, 64, 66
1, 355200, Note_on_c, 7, 69, 77
1, 355200, Note_on_c, 7, 76, 70
1, 355200, Note_on_c, 8, 57, 100
1, 355200, Note_on_c, 8, 61, 100
1, 355200, Note_on_c, 12, 69, 96
1, 355200, Note_on_c, 12, 76, 96
1, 355200, Note_on_c, 13, 38, 100
1, 355200, Note_on_c, 13, 45, 100
1, 355428, Note_off_c, 7, 64, 0
1, 355482, Note_on_c, 10, 64, 68
1, 355482, Note_on_c, 10, 69, 70
1, 355482, Note_on_c, 10, 76, 70
1, 355486, Note_off_c, 7, 69, 0
1, 355492, Note_off_c, 8, 57, 0
1, 355492, Note_off_c, 8, 61, 0
1, 355492, Note_off_c, 13, 38, 0
1, 355492, Note_off_c, 13, 45, 0
1, 355510, Note_off_c, 7, 76, 0
1, 355672, Note_off_c, 0, 57, 64
1, 355672, Note_off_c, 0, 64, 64
1, 355672, Note_off_c, 2, 71, 64
1, 355672, Note_off_c, 2, 80, 64
1, 355672, Note_off_c, 3, 71, 64
1, 355672, Note_off_c, 3, 76, 64
1, 355672, Note_off_c, 4, 80, 0
1, 355672, Note_off_c, 12, 69, 0
1, 355672, Note_off_c, 12, 76, 0
1, 355680, Note_on_c, 0, 57, 91
1, 355680, Note_on_c, 0, 64, 91
1, 355680, Note_on_c, 1, 69, 74
1, 355680, Note_on_c, 2, 69, 100
1, 355680, Note_on_c, 2, 78, 100
1, 355680, Note_on_c, 3, 66, 100
1, 355680, Note_on_c, 3, 69, 100
1, 355680, Note_on_c, 4, 81, 100
1, 355680, Note_on_c, 6, 64, 68
1, 355680, Note_on_c, 6, 69, 74
1, 355680, Note_on_c, 6, 76, 75
1, 355680, Note_on_c, 8, 38, 100
1, 355680, Note_on_c, 8, 45, 100
1, 355680, Note_on_c, 12, 69, 91
1, 355680, Note_on_c, 12, 76, 91
1, 355680, Note_on_c, 13, 57, 100
1, 355680, Note_on_c, 13, 61, 100
1, 355690, Note_off_c, 10, 64, 0
1, 355718, Note_off_c, 10, 69, 0
1, 355722, Note_off_c, 10, 76, 0
1, 355774, Note_off_c, 1, 59, 0
1, 355952, Note_off_c, 6, 69, 0
1, 355956, Note_off_c, 6, 64, 0
1, 355970, Note_off_c, 6, 76, 0
1, 355972, Note_off_c, 8, 38, 0
1, 355972, Note_off_c, 8, 45, 0
1, 355972, Note_off_c, 13, 57, 0
1, 355972, Note_off_c, 13, 61, 0
1, 356152, Note_off_c, 0, 57, 64
1, 356152, Note_off_c, 0, 64, 64
1, 356152, Note_off_c, 2, 69, 64
1, 356152, Note_off_c, 2, 78, 64
1, 356152, Note_off_c, 3, 66, 64
1, 356152, Note_off_c, 3, 69, 64
1, 356152, Note_off_c, 4, 81, 0
1, 356152, Note_off_c, 5, 50, 0
1, 356152, Note_off_c, 5, 57, 0
1, 356152, Note_off_c, 12, 69, 0
1, 356152, Note_off_c, 12, 76, 0
1, 356160, Note_on_c, 0, 57, 85
1, 356160, Note_on_c, 0, 64, 85
1, 356160, Note_on_c, 1, 64, 68
1, 356160, Note_on_c, 2, 73, 100
1, 356160, Note_on_c, 2, 81, 100
1, 356160, Note_on_c, 3, 73, 100
1, 356160, Note_on_c, 3, 76, 100
1, 356160, Note_on_c, 4, 85, 100
1, 356160, Note_on_c, 5, 52, 100
1, 356160, Note_on_c, 5, 57, 100
1, 356160, Note_on_c, 7, 64, 65
1, 356160, Note_on_c, 7, 69, 72
1, 356160, Note_on_c, 7, 76, 72
1, 356160, Note_on_c, 8, 59, 100
1, 356160, Note_on_c, 8, 61, 100
1, 356160, Note_on_c, 12, 69, 85
1, 356160, Note_on_c, 12, 76, 85
1, 356160, Note_on_c, 13, 40, 100
1, 356160, Note_on_c, 13, 45, 100
1, 356372, Note_off_c, 1, 69, 0
1, 356436, Note_off_c, 7, 64, 0
1, 356442, Note_on_c, 10, 64, 67
1, 356442, Note_on_c, 10, 69, 73
1, 356442, Note_on_c, 10, 76, 74
1, 356450, Note_off_c, 7, 69, 0
1, 356452, Note_off_c, 7, 76, 0
1, 356452, Note_off_c, 8, 59, 0
1, 356452, Note_off_c, 8, 61, 0
1, 356452, Note_off_c, 13, 40, 0
1, 356452, Note_off_c, 13, 45, 0
1, 356632, Note_off_c, 0, 57, 64
1, 356632, Note_off_c, 0, 64, 64
1, 356632, Note_off_c, 2, 73, 64
1, 356632, Note_off_c, 2, 81, 64
1, 356632, Note_off_c, 3, 73, 64
1, 356632, Note_off_c, 3, 76, 64
1, 356632, Note_off_c, 4, 85, 0
1, 356632, Note_off_c, 12, 69, 0
1, 356632, Note_off_c, 12, 76, 0
1, 356640, Note_on_c, 0, 57, 80
1, 356640, Note_on_c, 0, 64, 80
1, 356640, Note_on_c, 6, 64, 73
1, 356640, Note_on_c, 6, 69, 80
1, 356640, Note_on_c, 6, 76, 77
1, 356640, Note_on_c, 8, 40, 100
1, 356640, Note_on_c, 8, 45, 100
1, 356640, Note_on_c, 12, 69, 80
1, 356640, Note_on_c, 12, 76, 80
1, 356640, Note_on_c, 13, 59, 100
1, 356640, Note_on_c, 13, 61, 100
1, 356658, Note_off_c, 10, 64, 0
1, 356678, Note_off_c, 10, 76, 0
1, 356688, Note_off_c, 10, 69, 0
1, 356774, Note_off_c, 1, 64, 0
1, 356902, Note_off_c, 6, 64, 0
1, 356918, Note_off_c, 6, 69, 0
1, 356928, Note_off_c, 6, 76, 0
1, 356932, Note_off_c, 8, 40, 0
1, 356932, Note_off_c, 8, 45, 0
1, 356932, Note_off_c, 13, 59, 0
1, 356932, Note_off_c, 13, 61, 0
1, 357112, Note_off_c, 0, 57, 64
1, 357112, Note_off_c, 0, 64, 64
1, 357112, Note_off_c, 12, 69, 0
1, 357112, Note_off_c, 12, 76, 0
1, 357120, Note_on_c, 0, 57, 74
1, 357120, Note_on_c, 0, 64, 74
1, 357120, Note_on_c, 1, 66, 77
1, 357120, Note_on_c, 3, 71, 100
1, 357120, Note_on_c, 3, 76, 100
1, 357120, Note_on_c, 7, 64, 67
1, 357120, Note_on_c, 7, 69, 75
1, 357120, Note_on_c, 7, 76, 70
1, 357120, Note_on_c, 8, 59, 100
1, 357120, Note_on_c, 8, 61, 100
1, 357120, Note_on_c, 12, 69, 74
1, 357120, Note_on_c, 12, 76, 74
1, 357120, Note_on_c, 13, 40, 100
1, 357120, Note_on_c, 13, 45, 100
1, 357350, Note_off_c, 7, 69, 0
1, 357368, Note_off_c, 7, 64, 0
1, 357378, Note_off_c, 7, 76, 0
1, 357402, Note_on_c, 10, 64, 68
1, 357402, Note_on_c, 10, 69, 74
1, 357402, Note_on_c, 10, 76, 75
1, 357412, Note_off_c, 8, 59, 0
1, 357412, Note_off_c, 8, 61, 0
1, 357412, Note_off_c, 13, 40, 0
1, 357412, Note_off_c, 13, 45, 0
1, 357592, Note_off_c, 0, 57, 64
1, 357592, Note_off_c, 0, 64, 64
1, 357592, Note_off_c, 3, 71, 64
1, 357592, Note_off_c, 3, 76, 64
1, 357592, Note_off_c, 12, 69, 0
1, 357592, Note_off_c, 12, 76, 0
1, 357600, Note_on_c, 0, 57, 69
1, 357600, Note_on_c, 0, 64, 69
1, 357600, Note_on_c, 1, 61, 70
1, 357600, Note_on_c, 3, 64, 100
1, 357600, Note_on_c, 3, 69, 100
1, 357600, Note_on_c, 6, 64, 68
1, 357600, Note_on_c, 6, 69, 70
1, 357600, Note_on_c, 6, 76, 74
1, 357600, Note_on_c, 8, 40, 100
1, 357600, Note_on_c, 8, 45, 100
1, 357600, Note_on_c, 12, 69, 69
1, 357600, Note_on_c, 12, 76, 69
1, 357600, Note_on_c, 13, 59, 100
1, 357600, Note_on_c, 13, 61, 100
1, 357674, Note_off_c, 10, 69, 0
1, 357678, Note_off_c, 10, 64, 0
1, 357692, Note_off_c, 10, 76, 0
1, 357762, Note_off_c, 1, 66, 0
1, 357886, Note_off_c, 6, 64, 0
1, 357892, Note_off_c, 8, 40, 0
1, 357892, Note_off_c, 8, 45, 0
1, 357892, Note_off_c, 13, 59, 0
1, 357892, Note_off_c, 13, 61, 0
1, 357898, Note_off_c, 6, 69, 0
1, 357898, Note_off_c, 6, 76, 0
1, 358072, Note_off_c, 0, 57, 64
1, 358072, Note_off_c, 0, 64, 64
1, 358072, Note_off_c, 3, 64, 64
1, 358072, Note_off_c, 3, 69, 64
1, 358072, Note_off_c, 12, 69, 0
1, 358072, Note_off_c, 12, 76, 0
1, 358080, Note_on_c, 0, 57, 63
1, 358080, Note_on_c, 0, 64, 63
1, 358080, Note_on_c, 7, 64, 66
1, 358080, Note_on_c, 7, 69, 68
1, 358080, Note_on_c, 7, 76, 72
1, 358080, Note_on_c, 8, 59, 100
1, 358080, Note_on_c, 8, 61, 100
1, 358080, Note_on_c, 12, 69, 63
1, 358080, Note_on_c, 12, 76, 63
1, 358080, Note_on_c, 13, 40, 100
1, 358080, Note_on_c, 13, 45, 100
1, 358228, Note_off_c, 1, 61, 0
1, 358340, Note_off_c, 7, 69, 0
1, 358350, Note_off_c, 7, 64, 0
1, 358354, Note_off_c, 7, 76, 0
1, 358362, Note_on_c, 10, 64, 73
1, 358362, Note_on_c, 10, 69, 80
1, 358362, Note_on_c, 10, 76, 77
1, 358372, Note_off_c, 8, 59, 0
1, 358372, Note_off_c, 8, 61, 0
1, 358372, Note_off_c, 13, 40, 0
1, 358372, Note_off_c, 13, 45, 0
1, 358552, Note_off_c, 0, 57, 64
1, 358552, Note_off_c, 0, 64, 64
1, 358552, Note_off_c, 12, 69, 0
1, 358552, Note_off_c, 12, 76, 0
1, 358560, Note_on_c, 0, 57, 60
1, 358560, Note_on_c, 0, 64, 60
1, 358560, Note_on_c, 1, 69, 77
1, 358560, Note_on_c, 3, 71, 100
1, 358560, Note_on_c, 3, 76, 100
1, 358560, Note_on_c, 6, 64, 70
1, 358560, Note_on_c, 6, 69, 74
1, 358560, Note_on_c, 6, 76, 74
1, 358560, Note_on_c, 8, 40, 100
1, 358560, Note_on_c, 8, 45, 100
1, 358560, Note_on_c, 12, 69, 60
1, 358560, Note_on_c, 12, 76, 60
1, 358560, Note_on_c, 13, 59, 100
1, 358560, Note_on_c, 13, 61, 100
1, 358624, Note_off_c, 10, 64, 0
1, 358640, Note_off_c, 10, 69, 0
1, 358650, Note_off_c, 10, 76, 0
1, 358764, Note_off_c, 6, 64, 0
1, 358794, Note_off_c, 6, 76, 0
1, 358832, Note_off_c, 6, 69, 0
1, 358852, Note_off_c, 8, 40, 0
1, 358852, Note_off_c, 8, 45, 0
1, 358852, Note_off_c, 13, 59, 0
1, 358852, Note_off_c, 13, 61, 0
1, 359032, Note_off_c, 0, 57, 64
1, 359032, Note_off_c, 0, 64, 64
1, 359032, Note_off_c, 3, 71, 64
1, 359032, Note_off_c, 3, 76, 64
1, 359032, Note_off_c, 12, 69, 0
1, 359032, Note_off_c, 12, 76, 0
1, 359040, Note_on_c, 0, 57, 55
1, 359040, Note_on_c, 0, 64, 55
1, 359040, Note_on_c, 7, 64, 62
1, 359040, Note_on_c, 7, 69, 60
1, 359040, Note_on_c, 7, 76, 70
1, 359040, Note_on_c, 8, 59, 100
1, 359040, Note_on_c, 8, 61, 100
1, 359040, Note_on_c, 12, 69, 55
1, 359040, Note_on_c, 12, 76, 55
1, 359040, Note_on_c, 13, 40, 100
1, 359040, Note_on_c, 13, 45, 100
1, 359208, Note_off_c, 1, 69, 0
1, 359300, Note_off_c, 7, 69, 0
1, 359318, Note_off_c, 7, 64, 0
1, 359322, Note_on_c, 10, 64, 68
1, 359322, Note_on_c, 10, 69, 70
1, 359322, Note_on_c, 10, 76, 74
1, 359332, Note_off_c, 8, 59, 0
1, 359332, Note_off_c, 8, 61, 0
1, 359332, Note_off_c, 13, 40, 0
1, 359332, Note_off_c, 13, 45, 0
1, 359378, Note_off_c, 7, 76, 0
1, 359512, Note_off_c, 0, 57, 64
1, 359512, Note_off_c, 0, 64, 64
1, 359512, Note_off_c, 12, 69, 0
1, 359512, Note_off_c, 12, 76, 0
1, 359520, Note_on_c, 0, 57, 49
1, 359520, Note_on_c, 0, 64, 49
1, 359520, Note_on_c, 1, 64, 68
1, 359520, Note_on_c, 3, 73, 100
1, 359520, Note_on_c, 3, 76, 100
1, 359520, Note_on_c, 6, 64, 68
1, 359520, Note_on_c, 6, 69, 68
1, 359520, Note_on_c, 6, 76, 72
1, 359520, Note_on_c, 8, 40, 100
1, 359520, Note_on_c, 8, 45, 100
1, 359520, Note_on_c, 12, 69, 49
1, 359520, Note_on_c, 12, 76, 49
1, 359520, Note_on_c, 13, 59, 100
1, 359520, Note_on_c, 13, 61, 100
1, 359608, Note_off_c, 10, 64, 0
1, 359620, Note_off_c, 10, 69, 0
1, 359620, Note_off_c, 10, 76, 0
1, 359726, Note_off_c, 6, 69, 0
1, 359734, Note_off_c, 6, 64, 0
1, 359744, Note_off_c, 6, 76, 0
1, 359812, Note_off_c, 8, 40, 0
1, 359812, Note_off_c, 8, 45, 0
1, 359812, Note_off_c, 13, 59, 0
1, 359812, Note_off_c, 13, 61, 0
1, 359964, Note_off_c, 1, 64, 0
1, 359992, Note_off_c, 0, 57, 64
1, 359992, Note_off_c, 0, 64, 64
1, 359992, Note_off_c, 3, 73, 64
1, 359992, Note_off_c, 3, 76, 64
1, 359992, Note_off_c, 5, 52, 0
1, 359992, Note_off_c, 5, 57, 0
1, 359992, Note_off_c, 12, 69, 0
1, 359992, Note_off_c, 12, 76, 0
1, 360000, Note_on_c, 0, 57, 44
1, 360000, Note_on_c, 0, 64, 44
1, 360000, Note_on_c, 1, 66, 78
1, 360000, Note_on_c, 2, 69, 100
1, 360000, Note_on_c, 2, 78, 100
1, 360000, Note_on_c, 3, 64, 100
1, 360000, Note_on_c, 3, 69, 100
1, 360000, Note_on_c, 4, 78, 100
1, 360000, Note_on_c, 5, 50, 100
1, 360000, Note_on_c, 5, 57, 100
1, 360000, Note_on_c, 7, 64, 56
1, 360000, Note_on_c, 7, 69, 69
1, 360000, Note_on_c, 7, 76, 73
1, 360000, Note_on_c, 8, 57, 100
1, 360000, Note_on_c, 8, 61, 100
1, 360000, Note_on_c, 12, 69, 44
1, 360000, Note_on_c, 12, 76, 44
1, 360000, Note_on_c, 13, 38, 100
1, 360000, Note_on_c, 13, 45, 100
1, 360266, Note_off_c, 7, 64, 0
1, 360282, Note_on_c, 10, 64, 70
1, 360282, Note_on_c, 10, 69, 74
1, 360282, Note_on_c, 10, 76, 74
1, 360292, Note_off_c, 8, 57, 0
1, 360292, Note_off_c, 8, 61, 0
1, 360292, Note_off_c, 13, 38, 0
1, 360292, Note_off_c, 13, 45, 0
1, 360294, Note_off_c, 7, 69, 0
1, 360302, Note_off_c, 7, 76, 0
1, 360472, Note_off_c, 0, 57, 64
1, 360472, Note_off_c, 0, 64, 64
1, 360472, Note_off_c, 2, 69, 64
1, 360472, Note_off_c, 2, 78, 64
1, 360472, Note_off_c, 3, 64, 64
1, 360472, Note_off_c, 3, 69, 64
1, 360472, Note_off_c, 4, 78, 0
1, 360472, Note_off_c, 12, 69, 0
1, 360472, Note_off_c, 12, 76, 0
1, 360480, Note_on_c, 0, 57, 38
1, 360480, Note_on_c, 0, 64, 38
1, 360480, Note_on_c, 6, 64, 70
1, 360480, Note_on_c, 6, 69, 70
1, 360480, Note_on_c, 6, 76, 75
1, 360480, Note_on_c, 8, 38, 100
1, 360480, Note_on_c, 8, 45, 100
1, 360480, Note_on_c, 12, 69, 38
1, 360480, Note_on_c, 12, 76, 38
1, 360480, Note_on_c, 13, 57, 100
1, 360480, Note_on_c, 13, 61, 100
1, 360486, Note_off_c, 10, 64, 0
1, 360516, Note_off_c, 10, 76, 0
1, 360554, Note_off_c, 10, 69, 0
1, 360668, Note_off_c, 1, 66, 0
1, 360708, Note_off_c, 6, 69, 0
1, 360750, Note_off_c, 6, 64, 0
1, 360772, Note_off_c, 8, 38, 0
1, 360772, Note_off_c, 8, 45, 0
1, 360772, Note_off_c, 13, 57, 0
1, 360772, Note_off_c, 13, 61, 0
1, 360788, Note_off_c, 6, 76, 0
1, 360952, Note_off_c, 0, 57, 64
1, 360952, Note_off_c, 0, 64, 64
1, 360952, Note_off_c, 12, 69, 0
1, 360952, Note_off_c, 12, 76, 0
1, 360960, Note_on_c, 0, 57, 33
1, 360960, Note_on_c, 0, 64, 33
1, 360960, Note_on_c, 1, 59, 74
1, 360960, Note_on_c, 2, 71, 100
1, 360960, Note_on_c, 2, 80, 100
1, 360960, Note_on_c, 3, 71, 100
1, 360960, Note_on_c, 3, 76, 100
1, 360960, Note_on_c, 4, 80, 100
1, 360960, Note_on_c, 7, 64, 66
1, 360960, Note_on_c, 7, 69, 70
1, 360960, Note_on_c, 7, 76, 75
1, 360960, Note_on_c, 8, 57, 100
1, 360960, Note_on_c, 8, 61, 100
1, 360960, Note_on_c, 12, 69, 33
1, 360960, Note_on_c, 12, 76, 33
1, 360960, Note_on_c, 13, 38, 100
1, 360960, Note_on_c, 13, 45, 100
1, 361210, Note_off_c, 7, 69, 0
1, 361224, Note_off_c, 7, 64, 0
1, 361242, Note_on_c, 10, 64, 68
1, 361242, Note_on_c, 10, 69, 68
1, 361242, Note_on_c, 10, 76, 72
1, 361250, Note_off_c, 7, 76, 0
1, 361252, Note_off_c, 8, 57, 0
1, 361252, Note_off_c, 8, 61, 0
1, 361252, Note_off_c, 13, 38, 0
1, 361252, Note_off_c, 13, 45, 0
1, 361432, Note_off_c, 0, 57, 64
1, 361432, Note_off_c, 0, 64, 64
1, 361432, Note_off_c, 2, 71, 64
1, 361432, Note_off_c, 2, 80, 64
1, 361432, Note_off_c, 3, 71, 64
1, 361432, Note_off_c, 3, 76, 64
1, 361432, Note_off_c, 4, 80, 0
1, 361432, Note_off_c, 12, 69, 0
1, 361432, Note_off_c, 12, 76, 0
1, 361440, Note_on_c, 0, 57, 27
1, 361440, Note_on_c, 0, 64, 27
1, 361440, Note_on_c, 1, 69, 75
1, 361440, Note_on_c, 2, 69, 100
1, 361440, Note_on_c, 2, 78, 100
1, 361440, Note_on_c, 3, 66, 100
1, 361440, Note_on_c, 3, 69, 100
1, 361440, Note_on_c, 4, 81, 100
1, 361440, Note_on_c, 6, 64, 69
1, 361440, Note_on_c, 6, 69, 69
1, 361440, Note_on_c, 6, 76, 73
1, 361440, Note_on_c, 8, 38, 100
1, 361440, Note_on_c, 8, 45, 100
1, 361440, Note_on_c, 12, 69, 27
1, 361440, Note_on_c, 12, 76, 27
1, 361440, Note_on_c, 13, 57, 100
1, 361440, Note_on_c, 13, 61, 100
1, 361448, Note_off_c, 1, 59, 0
1, 361448, Note_off_c, 10, 69, 0
1, 361456, Note_off_c, 10, 64, 0
1, 361466, Note_off_c, 10, 76, 0
1, 361706, Note_off_c, 6, 64, 0
1, 361732, Note_off_c, 8, 38, 0
1, 361732, Note_off_c, 8, 45, 0
1, 361732, Note_off_c, 13, 57, 0
1, 361732, Note_off_c, 13, 61, 0
1, 361744, Note_off_c, 6, 69, 0
1, 361744, Note_off_c, 6, 76, 0
1, 361912, Note_off_c, 0, 57, 64
1, 361912, Note_off_c, 0, 64, 64
1, 361912, Note_off_c, 2, 69, 64
1, 361912, Note_off_c, 2, 78, 64
1, 361912, Note_off_c, 3, 66, 64
1, 361912, Note_off_c, 3, 69, 64
1, 361912, Note_off_c, 4, 81, 0
1, 361912, Note_off_c, 12, 69, 0
1, 361912, Note_off_c, 12, 76, 0
1, 361920, Note_on_c, 0, 57, 22
1, 361920, Note_on_c, 0, 64, 22
1, 361920, Note_on_c, 1, 64, 73
1, 361920, Note_on_c, 2, 73, 100
1, 361920, Note_on_c, 2, 81, 100
1, 361920, Note_on_c, 3, 73, 100
1, 361920, Note_on_c, 3, 76, 100
1, 361920, Note_on_c, 4, 85, 100
1, 361920, Note_on_c, 7, 64, 66
1, 361920, Note_on_c, 7, 69, 70
1, 361920, Note_on_c, 7, 76, 75
1, 361920, Note_on_c, 8, 57, 100
1, 361920, Note_on_c, 8, 61, 100
1, 361920, Note_on_c, 12, 69, 22
1, 361920, Note_on_c, 12, 76, 22
1, 361920, Note_on_c, 13, 38, 100
1, 361920, Note_on_c, 13, 45, 100
1, 362046, Note_off_c, 1, 69, 0
1, 362170, Note_off_c, 7, 69, 0
1, 362184, Note_off_c, 7, 64, 0
1, 362202, Note_on_c, 10, 64, 70
1, 362202, Note_on_c, 10, 69, 70
1, 362202, Note_on_c, 10, 76, 75
1, 362210, Note_off_c, 7, 76, 0
1, 362212, Note_off_c, 8, 57, 0
1, 362212, Note_off_c, 8, 61, 0
1, 362212, Note_off_c, 13, 38, 0
1, 362212, Note_off_c, 13, 45, 0
1, 362392, Note_off_c, 0, 57, 64
1, 362392, Note_off_c, 0, 64, 64
1, 362392, Note_off_c, 2, 73, 64
1, 362392, Note_off_c, 2, 81, 64
1, 362392, Note_off_c, 3, 73, 64
1, 362392, Note_off_c, 3, 76, 64
1, 362392, Note_off_c, 4, 85, 0
1, 362392, Note_off_c, 12, 69, 0
1, 362392, Note_off_c, 12, 76, 0
1, 362400, Note_on_c, 0, 57, 16
1, 362400, Note_on_c, 0, 64, 16
1, 362400, Note_on_c, 6, 64, 67
1, 362400, Note_on_c, 6, 69, 63
1, 362400, Note_on_c, 6, 76, 74
1, 362400, Note_on_c, 8, 38, 100
1, 362400, Note_on_c, 8, 45, 100
1, 362400, Note_on_c, 12, 69, 16
1, 362400, Note_on_c, 12, 76, 16
1, 362400, Note_on_c, 13, 57, 100
1, 362400, Note_on_c, 13, 61, 100
1, 362430, Note_off_c, 10, 69, 0
1, 362472, Note_off_c, 10, 64, 0
1, 362510, Note_off_c, 10, 76, 0
1, 362604, Note_off_c, 6, 69, 0
1, 362626, Note_off_c, 1, 64, 0
1, 362666, Note_off_c, 6, 64, 0
1, 362666, Note_off_c, 6, 76, 0
1, 362692, Note_off_c, 8, 38, 0
1, 362692, Note_off_c, 8, 45, 0
1, 362692, Note_off_c, 13, 57, 0
1, 362692, Note_off_c, 13, 61, 0
1, 362872, Note_off_c, 0, 57, 64
1, 362872, Note_off_c, 0, 64, 64
1, 362872, Note_off_c, 12, 69, 0
1, 362872, Note_off_c, 12, 76, 0
1, 362880, Note_on_c, 0, 57, 11
1, 362880, Note_on_c, 0, 64, 11
1, 362880, Note_on_c, 1, 66, 68
1, 362880, Note_on_c, 2, 71, 100
1, 362880, Note_on_c, 2, 80, 100
1, 362880, Note_on_c, 3, 71, 100
1, 362880, Note_on_c, 3, 76, 100
1, 362880, Note_on_c, 4, 83, 100
1, 362880, Note_on_c, 7, 64, 72
1, 362880, Note_on_c, 7, 69, 80
1, 362880, Note_on_c, 7, 76, 77
1, 362880, Note_on_c, 8, 57, 100
1, 362880, Note_on_c, 8, 61, 100
1, 362880, Note_on_c, 12, 69, 11
1, 362880, Note_on_c, 12, 76, 11
1, 362880, Note_on_c, 13, 38, 100
1, 362880, Note_on_c, 13, 45, 100
1, 363120, Note_off_c, 7, 76, 0
1, 363130, Note_off_c, 7, 64, 0
1, 363130, Note_off_c, 7, 69, 0
1, 363162, Note_on_c, 10, 64, 69
1, 363162, Note_on_c, 10, 69, 69
1, 363162, Note_on_c, 10, 76, 73
1, 363172, Note_off_c, 8, 57, 0
1, 363172, Note_off_c, 8, 61, 0
1, 363172, Note_off_c, 13, 38, 0
1, 363172, Note_off_c, 13, 45, 0
1, 363352, Note_off_c, 0, 57, 64
1, 363352, Note_off_c, 0, 64, 64
1, 363352, Note_off_c, 2, 71, 64
1, 363352, Note_off_c, 2, 80, 64
1, 363352, Note_off_c, 3, 71, 64
1, 363352, Note_off_c, 3, 76, 64
1, 363352, Note_off_c, 4, 83, 0
1, 363352, Note_off_c, 12, 69, 0
1, 363352, Note_off_c, 12, 76, 0
1, 363360, Note_on_c, 0, 57, 5
1, 363360, Note_on_c, 0, 64, 5
1, 363360, Note_on_c, 1, 61, 68
1, 363360, Note_on_c, 2, 69, 100
1, 363360, Note_on_c, 2, 78, 100
1, 363360, Note_on_c, 3, 64, 100
1, 363360, Note_on_c, 3, 69, 100
1, 363360, Note_on_c, 4, 80, 100
1, 363360, Note_on_c, 6, 64, 66
1, 363360, Note_on_c, 6, 69, 63
1, 363360, Note_on_c, 6, 76, 74
1, 363360, Note_on_c, 8, 38, 100
1, 363360, Note_on_c, 8, 45, 100
1, 363360, Note_on_c, 12, 69, 5
1, 363360, Note_on_c, 12, 76, 5
1, 363360, Note_on_c, 13, 57, 100
1, 363360, Note_on_c, 13, 61, 100
1, 363396, Note_off_c, 1, 66, 0
1, 363428, Note_off_c, 10, 64, 0
1, 363466, Note_off_c, 10, 69, 0
1, 363466, Note_off_c, 10, 76, 0
1, 363590, Note_off_c, 6, 69, 0
1, 363596, Note_off_c, 6, 64, 0
1, 363634, Note_off_c, 6, 76, 0
1, 363652, Note_off_c, 8, 38, 0
1, 363652, Note_off_c, 8, 45, 0
1, 363652, Note_off_c, 13, 57, 0
1, 363652, Note_off_c, 13, 61, 0
1, 363832, Note_off_c, 0, 57, 64
1, 363832, Note_off_c, 0, 64, 64
1, 363832, Note_off_c, 2, 69, 64
1, 363832, Note_off_c, 2, 78, 64
1, 363832, Note_off_c, 3, 64, 64
1, 363832, Note_off_c, 3, 69, 64
1, 363832, Note_off_c, 4, 80, 0
1, 363832, Note_off_c, 12, 69, 0
1, 363832, Note_off_c, 12, 76, 0
1, 363840, Note_on_c, 7, 64, 70
1, 363840, Note_on_c, 7, 69, 77
1, 363840, Note_on_c, 7, 76, 77
1, 363840, Note_on_c, 8, 57, 100
1, 363840, Note_on_c, 8, 61, 100
1, 363840, Note_on_c, 13, 38, 100
1, 363840, Note_on_c, 13, 45, 100
1, 364094, Note_off_c, 7, 64, 0
1, 364122, Note_off_c, 7, 69, 0
1, 364122, Note_on_c, 10, 64, 67
1, 364122, Note_on_c, 10, 69, 63
1, 364122, Note_on_c, 10, 76, 74
1, 364130, Note_off_c, 1, 61, 0
1, 364130, Note_off_c, 7, 76, 0
1, 364132, Note_off_c, 8, 57, 0
1, 364132, Note_off_c, 8, 61, 0
1, 364132, Note_off_c, 13, 38, 0
1, 364132, Note_off_c, 13, 45, 0
1, 364320, Note_on_c, 1, 69, 77
1, 364320, Note_on_c, 2, 71, 100
1, 364320, Note_on_c, 2, 80, 100
1, 364320, Note_on_c, 3, 71, 100
1, 364320, Note_on_c, 3, 76, 100
1, 364320, Note_on_c, 4, 81, 100
1, 364320, Note_on_c, 6, 64, 68
1, 364320, Note_on_c, 6, 69, 74
1, 364320, Note_on_c, 6, 76, 74
1, 364320, Note_on_c, 8, 38, 100
1, 364320, Note_on_c, 8, 45, 100
1, 364320, Note_on_c, 13, 57, 100
1, 364320, Note_on_c, 13, 61, 100
1, 364326, Note_off_c, 10, 69, 0
1, 364388, Note_off_c, 10, 64, 0
1, 364388, Note_off_c, 10, 76, 0
1, 364580, Note_off_c, 6, 69, 0
1, 364610, Note_off_c, 6, 76, 0
1, 364612, Note_off_c, 8, 38, 0
1, 364612, Note_off_c, 8, 45, 0
1, 364612, Note_off_c, 13, 57, 0
1, 364612, Note_off_c, 13, 61, 0
1, 364614, Note_off_c, 6, 64, 0
1, 364792, Note_off_c, 2, 71, 64
1, 364792, Note_off_c, 2, 80, 64
1, 364792, Note_off_c, 3, 71, 64
1, 364792, Note_off_c, 3, 76, 64
1, 364792, Note_off_c, 4, 81, 0
1, 364800, Note_on_c, 7, 64, 70
1, 364800, Note_on_c, 7, 69, 73
1, 364800, Note_on_c, 7, 76, 74
1, 364800, Note_on_c, 8, 57, 100
1, 364800, Note_on_c, 8, 61, 100
1, 364800, Note_on_c, 13, 38, 100
1, 364800, Note_on_c, 13, 45, 100
1, 364944, Note_off_c, 1, 69, 0
1, 365040, Note_off_c, 7, 64, 0
1, 365046, Note_off_c, 7, 69, 0
1, 365060, Note_off_c, 7, 76, 0
1, 365082, Note_on_c, 10, 64, 66
1, 365082, Note_on_c, 10, 69, 63
1, 365082, Note_on_c, 10, 76, 74
1, 365092, Note_off_c, 8, 57, 0
1, 365092, Note_off_c, 8, 61, 0
1, 365092, Note_off_c, 13, 38, 0
1, 365092, Note_off_c, 13, 45, 0
1, 365280, Note_on_c, 1, 64, 70
1, 365280, Note_on_c, 2, 73, 100
1, 365280, Note_on_c, 2, 81, 100
1, 365280, Note_on_c, 3, 73, 100
1, 365280, Note_on_c, 3, 76, 100
1, 365280, Note_on_c, 4, 83, 100
1, 365280, Note_on_c, 6, 64, 73
1, 365280, Note_on_c, 6, 69, 82
1, 365280, Note_on_c, 6, 76, 77
1, 365280, Note_on_c, 8, 38, 100
1, 365280, Note_on_c, 8, 45, 100
1, 365280, Note_on_c, 13, 57, 100
1, 365280, Note_on_c, 13, 61, 100
1, 365312, Note_off_c, 10, 69, 0
1, 365318, Note_off_c, 10, 64, 0
1, 365356, Note_off_c, 10, 76, 0
1, 365558, Note_off_c, 6, 69, 0
1, 365570, Note_off_c, 6, 64, 0
1, 365572, Note_off_c, 8, 38, 0
1, 365572, Note_off_c, 8, 45, 0
1, 365572, Note_off_c, 13, 57, 0
1, 365572, Note_off_c, 13, 61, 0
1, 365578, Note_off_c, 6, 76, 0
1, 365752, Note_off_c, 2, 73, 64
1, 365752, Note_off_c, 2, 81, 64
1, 365752, Note_off_c, 3, 73, 64
1, 365752, Note_off_c, 3, 76, 64
1, 365752, Note_off_c, 4, 83, 0
1, 365752, Note_off_c, 5, 50, 0
1, 365752, Note_off_c, 5, 57, 0
1, 365760, Note_on_c, 1, 66, 77
1, 365760, Note_on_c, 2, 69, 100
1, 365760, Note_on_c, 2, 78, 100
1, 365760, Note_on_c, 3, 64, 100
1, 365760, Note_on_c, 3, 69, 100
1, 365760, Note_on_c, 4, 80, 100
1, 365760, Note_on_c, 5, 52, 100
1, 365760, Note_on_c, 5, 57, 100
1, 365760, Note_on_c, 7, 64, 72
1, 365760, Note_on_c, 7, 69, 77
1, 365760, Note_on_c, 7, 76, 75
1, 365760, Note_on_c, 8, 59, 100
1, 365760, Note_on_c, 8, 61, 100
1, 365760, Note_on_c, 13, 40, 100
1, 365760, Note_on_c, 13, 45, 100
1, 365912, Note_off_c, 1, 64, 0
1, 365968, Note_off_c, 7, 69, 0
1, 365982, Note_off_c, 7, 64, 0
1, 366002, Note_off_c, 7, 76, 0
1, 366042, Note_on_c, 10, 64, 68
1, 366042, Note_on_c, 10, 69, 74
1, 366042, Note_on_c, 10, 76, 74
1, 366052, Note_off_c, 8, 59, 0
1, 366052, Note_off_c, 8, 61, 0
1, 366052, Note_off_c, 13, 40, 0
1, 366052, Note_off_c, 13, 45, 0
1, 366232, Note_off_c, 2, 69, 64
1, 366232, Note_off_c, 2, 78, 64
1, 366232, Note_off_c, 3, 64, 64
1, 366232, Note_off_c, 3, 69, 64
1, 366232, Note_off_c, 4, 80, 0
1, 366240, Note_on_c, 6, 64, 72
1, 366240, Note_on_c, 6, 69, 75
1, 366240, Note_on_c, 6, 76, 73
1, 366240, Note_on_c, 8, 40, 100
1, 366240, Note_on_c, 8, 45, 100
1, 366240, Note_on_c, 13, 59, 100
1, 366240, Note_on_c, 13, 61, 100
1, 366302, Note_off_c, 10, 69, 0
1, 366332, Note_off_c, 10, 76, 0
1, 366336, Note_off_c, 10, 64, 0
1, 366404, Note_off_c, 1, 66, 0
1, 366528, Note_off_c, 6, 76, 0
1, 366530, Note_off_c, 6, 69, 0
1, 366532, Note_off_c, 8, 40, 0
1, 366532, Note_off_c, 8, 45, 0
1, 366532, Note_off_c, 13, 59, 0
1, 366532, Note_off_c, 13, 61, 0
1, 366538, Note_off_c, 6, 64, 0
1, 366720, Note_on_c, 0, 52, 8
1, 366720, Note_on_c, 0, 61, 8
1, 366720, Note_on_c, 1, 59, 65
1, 366720, Note_on_c, 2, 71, 100
1, 366720, Note_on_c, 2, 80, 100
1, 366720, Note_on_c, 3, 71, 100
1, 366720, Note_on_c, 3, 76, 100
1, 366720, Note_on_c, 4, 80, 100
1, 366720, Note_on_c, 7, 64, 70
1, 366720, Note_on_c, 7, 69, 78
1, 366720, Note_on_c, 7, 76, 77
1, 366720, Note_on_c, 8, 59, 100
1, 366720, Note_on_c, 8, 61, 100
1, 366720, Note_on_c, 12, 64, 8
1, 366720, Note_on_c, 12, 73, 8
1, 366720, Note_on_c, 13, 40, 100
1, 366720, Note_on_c, 13, 45, 100
1, 366962, Note_off_c, 7, 64, 0
1, 366984, Note_off_c, 7, 76, 0
1, 367002, Note_on_c, 10, 64, 73
1, 367002, Note_on_c, 10, 69, 82
1, 367002, Note_on_c, 10, 76, 77
1, 367008, Note_off_c, 7, 69, 0
1, 367012, Note_off_c, 8, 59, 0
1, 367012, Note_off_c, 8, 61, 0
1, 367012, Note_off_c, 13, 40, 0
1, 367012, Note_off_c, 13, 45, 0
1, 367192, Note_off_c, 0, 52, 64
1, 367192, Note_off_c, 0, 61, 64
1, 367192, Note_off_c, 2, 71, 64
1, 367192, Note_off_c, 2, 80, 64
1, 367192, Note_off_c, 3, 71, 64
1, 367192, Note_off_c, 3, 76, 64
1, 367192, Note_off_c, 4, 80, 0
1, 367192, Note_off_c, 12, 64, 0
1, 367192, Note_off_c, 12, 73, 0
1, 367200, Note_on_c, 0, 52, 13
1, 367200, Note_on_c, 0, 61, 13
1, 367200, Note_on_c, 1, 69, 74
1, 367200, Note_on_c, 2, 69, 100
1, 367200, Note_on_c, 2, 78, 100
1, 367200, Note_on_c, 3, 66, 100
1, 367200, Note_on_c, 3, 69, 100
1, 367200, Note_on_c, 4, 81, 100
1, 367200, Note_on_c, 6, 64, 69
1, 367200, Note_on_c, 6, 69, 70
1, 367200, Note_on_c, 6, 76, 72
1, 367200, Note_on_c, 8, 40, 100
1, 367200, Note_on_c, 8, 45, 100
1, 367200, Note_on_c, 12, 64, 13
1, 367200, Note_on_c, 12, 73, 13
1, 367200, Note_on_c, 13, 59, 100
1, 367200, Note_on_c, 13, 61, 100
1, 367280, Note_off_c, 10, 69, 0
1, 367292, Note_off_c, 10, 64, 0
1, 367294, Note_off_c, 1, 59, 0
1, 367300, Note_off_c, 10, 76, 0
1, 367464, Note_off_c, 6, 69, 0
1, 367488, Note_off_c, 6, 64, 0
1, 367492, Note_off_c, 8, 40, 0
1, 367492, Note_off_c, 8, 45, 0
1, 367492, Note_off_c, 13, 59, 0
1, 367492, Note_off_c, 13, 61, 0
1, 367504, Note_off_c, 6, 76, 0
1, 367672, Note_off_c, 0, 52, 64
1, 367672, Note_off_c, 0, 61, 64
1, 367672, Note_off_c, 2, 69, 64
1, 367672, Note_off_c, 2, 78, 64
1, 367672, Note_off_c, 3, 66, 64
1, 367672, Note_off_c, 3, 69, 64
1, 367672, Note_off_c, 4, 81, 0
1, 367672, Note_off_c, 12, 64, 0
1, 367672, Note_off_c, 12, 73, 0
1, 367680, Note_on_c, 0, 52, 19
1, 367680, Note_on_c, 0, 61, 19
1, 367680, Note_on_c, 1, 64, 68
1, 367680, Note_on_c, 2, 73, 100
1, 367680, Note_on_c, 2, 81, 100
1, 367680, Note_on_c, 3, 73, 100
1, 367680, Note_on_c, 3, 76, 100
1, 367680, Note_on_c, 4, 85, 100
1, 367680, Note_on_c, 7, 64, 70
1, 367680, Note_on_c, 7, 69, 72
1, 367680, Note_on_c, 7, 76, 77
1, 367680, Note_on_c, 8, 59, 100
1, 367680, Note_on_c, 8, 61, 100
1, 367680, Note_on_c, 12, 64, 19
1, 367680, Note_on_c, 12, 73, 19
1, 367680, Note_on_c, 13, 40, 100
1, 367680, Note_on_c, 13, 45, 100
1, 367892, Note_off_c, 1, 69, 0
1, 367934, Note_off_c, 7, 64, 0
1, 367946, Note_off_c, 7, 69, 0
1, 367962, Note_on_c, 10, 64, 72
1, 367962, Note_on_c, 10, 69, 75
1, 367962, Note_on_c, 10, 76, 73
1, 367972, Note_off_c, 8, 59, 0
1, 367972, Note_off_c, 8, 61, 0
1, 367972, Note_off_c, 13, 40, 0
1, 367972, Note_off_c, 13, 45, 0
1, 368002, Note_off_c, 7, 76, 0
1, 368152, Note_off_c, 0, 52, 64
1, 368152, Note_off_c, 0, 61, 64
1, 368152, Note_off_c, 2, 73, 64
1, 368152, Note_off_c, 2, 81, 64
1, 368152, Note_off_c, 3, 73, 64
1, 368152, Note_off_c, 3, 76, 64
1, 368152, Note_off_c, 4, 85, 0
1, 368152, Note_off_c, 12, 64, 0
1, 368152, Note_off_c, 12, 73, 0
1, 368160, Note_on_c, 0, 52, 22
1, 368160, Note_on_c, 0, 61, 22
1, 368160, Note_on_c, 6, 64, 68
1, 368160, Note_on_c, 6, 69, 77
1, 368160, Note_on_c, 6, 76, 73
1, 368160, Note_on_c, 8, 40, 100
1, 368160, Note_on_c, 8, 45, 100
1, 368160, Note_on_c, 12, 64, 22
1, 368160, Note_on_c, 12, 73, 22
1, 368160, Note_on_c, 13, 59, 100
1, 368160, Note_on_c, 13, 61, 100
1, 368250, Note_off_c, 10, 76, 0
1, 368252, Note_off_c, 10, 69, 0
1, 368260, Note_off_c, 10, 64, 0
1, 368294, Note_off_c, 1, 64, 0
1, 368426, Note_off_c, 6, 64, 0
1, 368444, Note_off_c, 6, 69, 0
1, 368444, Note_off_c, 6, 76, 0
1, 368452, Note_off_c, 8, 40, 0
1, 368452, Note_off_c, 8, 45, 0
1, 368452, Note_off_c, 13, 59, 0
1, 368452, Note_off_c, 13, 61, 0
1, 368632, Note_off_c, 0, 52, 64
1, 368632, Note_off_c, 0, 61, 64
1, 368632, Note_off_c, 12, 64, 0
1, 368632, Note_off_c, 12, 73, 0
1, 368640, Note_on_c, 0, 52, 27
1, 368640, Note_on_c, 0, 61, 27
1, 368640, Note_on_c, 1, 66, 77
1, 368640, Note_on_c, 2, 71, 100
1, 368640, Note_on_c, 2, 80, 100
1, 368640, Note_on_c, 3, 71, 100
1, 368640, Note_on_c, 3, 76, 100
1, 368640, Note_on_c, 4, 83, 100
1, 368640, Note_on_c, 7, 64, 73
1, 368640, Note_on_c, 7, 69, 77
1, 368640, Note_on_c, 7, 76, 74
1, 368640, Note_on_c, 8, 59, 100
1, 368640, Note_on_c, 8, 61, 100
1, 368640, Note_on_c, 12, 64, 27
1, 368640, Note_on_c, 12, 73, 27
1, 368640, Note_on_c, 13, 40, 100
1, 368640, Note_on_c, 13, 45, 100
1, 368922, Note_on_c, 10, 64, 69
1, 368922, Note_on_c, 10, 69, 70
1, 368922, Note_on_c, 10, 76, 72
1, 368924, Note_off_c, 7, 69, 0
1, 368932, Note_off_c, 8, 59, 0
1, 368932, Note_off_c, 8, 61, 0
1, 368932, Note_off_c, 13, 40, 0
1, 368932, Note_off_c, 13, 45, 0
1, 368956, Note_off_c, 7, 76, 0
1, 368962, Note_off_c, 7, 64, 0
1, 369112, Note_off_c, 0, 52, 64
1, 369112, Note_off_c, 0, 61, 64
1, 369112, Note_off_c, 2, 71, 64
1, 369112, Note_off_c, 2, 80, 64
1, 369112, Note_off_c, 3, 71, 64
1, 369112, Note_off_c, 3, 76, 64
1, 369112, Note_off_c, 4, 83, 0
1, 369112, Note_off_c, 12, 64, 0
1, 369112, Note_off_c, 12, 73, 0
1, 369120, Note_on_c, 0, 52, 33
1, 369120, Note_on_c, 0, 61, 33
1, 369120, Note_on_c, 1, 61, 70
1, 369120, Note_on_c, 2, 69, 100
1, 369120, Note_on_c, 2, 78, 100
1, 369120, Note_on_c, 3, 64, 100
1, 369120, Note_on_c, 3, 69, 100
1, 369120, Note_on_c, 4, 80, 100
1, 369120, Note_on_c, 6, 64, 72
1, 369120, Note_on_c, 6, 69, 52
1, 369120, Note_on_c, 6, 76, 72
1, 369120, Note_on_c, 8, 40, 100
1, 369120, Note_on_c, 8, 45, 100
1, 369120, Note_on_c, 12, 64, 33
1, 369120, Note_on_c, 12, 73, 33
1, 369120, Note_on_c, 13, 59, 100
1, 369120, Note_on_c, 13, 61, 100
1, 369186, Note_off_c, 10, 69, 0
1, 369210, Note_off_c, 10, 64, 0
1, 369226, Note_off_c, 10, 76, 0
1, 369272, Note_off_c, 6, 69, 0
1, 369282, Note_off_c, 1, 66, 0
1, 369360, Note_off_c, 6, 64, 0
1, 369366, Note_off_c, 6, 76, 0
1, 369412, Note_off_c, 8, 40, 0
1, 369412, Note_off_c, 8, 45, 0
1, 369412, Note_off_c, 13, 59, 0
1, 369412, Note_off_c, 13, 61, 0
1, 369592, Note_off_c, 0, 52, 64
1, 369592, Note_off_c, 0, 61, 64
1, 369592, Note_off_c, 2, 69, 64
1, 369592, Note_off_c, 2, 78, 64
1, 369592, Note_off_c, 3, 64, 64
1, 369592, Note_off_c, 3, 69, 64
1, 369592, Note_off_c, 4, 80, 0
1, 369592, Note_off_c, 12, 64, 0
1, 369592, Note_off_c, 12, 73, 0
1, 369600, Note_on_c, 0, 52, 38
1, 369600, Note_on_c, 0, 61, 38
1, 369600, Note_on_c, 7, 64, 68
1, 369600, Note_on_c, 7, 69, 70
1, 369600, Note_on_c, 7, 76, 72
1, 369600, Note_on_c, 8, 59, 100
1, 369600, Note_on_c, 8, 61, 100
1, 369600, Note_on_c, 12, 64, 38
1, 369600, Note_on_c, 12, 73, 38
1, 369600, Note_on_c, 13, 40, 100
1, 369600, Note_on_c, 13, 45, 100
1, 369748, Note_off_c, 1, 61, 0
1, 369882, Note_on_c, 10, 64, 68
1, 369882, Note_on_c, 10, 69, 77
1, 369882, Note_on_c, 10, 76, 73
1, 369890, Note_off_c, 7, 69, 0
1, 369892, Note_off_c, 8, 59, 0
1, 369892, Note_off_c, 8, 61, 0
1, 369892, Note_off_c, 13, 40, 0
1, 369892, Note_off_c, 13, 45, 0
1, 369908, Note_off_c, 7, 76, 0
1, 369914, Note_off_c, 7, 64, 0
1, 370072, Note_off_c, 0, 52, 64
1, 370072, Note_off_c, 0, 61, 64
1, 370072, Note_off_c, 12, 64, 0
1, 370072, Note_off_c, 12, 73, 0
1, 370080, Note_on_c, 0, 52, 41
1, 370080, Note_on_c, 0, 61, 41
1, 370080, Note_on_c, 1, 69, 77
1, 370080, Note_on_c, 2, 71, 100
1, 370080, Note_on_c, 2, 80, 100
1, 370080, Note_on_c, 3, 71, 100
1, 370080, Note_on_c, 3, 76, 100
1, 370080, Note_on_c, 4, 81, 100
1, 370080, Note_on_c, 6, 64, 68
1, 370080, Note_on_c, 6, 69, 70
1, 370080, Note_on_c, 6, 76, 74
1, 370080, Note_on_c, 8, 40, 100
1, 370080, Note_on_c, 8, 45, 100
1, 370080, Note_on_c, 12, 64, 41
1, 370080, Note_on_c, 12, 73, 41
1, 370080, Note_on_c, 13, 59, 100
1, 370080, Note_on_c, 13, 61, 100
1, 370148, Note_off_c, 10, 64, 0
1, 370166, Note_off_c, 10, 69, 0
1, 370166, Note_off_c, 10, 76, 0
1, 370312, Note_off_c, 6, 69, 0
1, 370322, Note_off_c, 6, 64, 0
1, 370330, Note_off_c, 6, 76, 0
1, 370372, Note_off_c, 8, 40, 0
1, 370372, Note_off_c, 8, 45, 0
1, 370372, Note_off_c, 13, 59, 0
1, 370372, Note_off_c, 13, 61, 0
1, 370552, Note_off_c, 0, 52, 64
1, 370552, Note_off_c, 0, 61, 64
1, 370552, Note_off_c, 2, 71, 64
1, 370552, Note_off_c, 2, 80, 64
1, 370552, Note_off_c, 3, 71, 64
1, 370552, Note_off_c, 3, 76, 64
1, 370552, Note_off_c, 4, 81, 0
1, 370552, Note_off_c, 12, 64, 0
1, 370552, Note_off_c, 12, 73, 0
1, 370560, Note_on_c, 0, 52, 46
1, 370560, Note_on_c, 0, 61, 46
1, 370560, Note_on_c, 7, 64, 68
1, 370560, Note_on_c, 7, 69, 70
1, 370560, Note_on_c, 7, 76, 73
1, 370560, Note_on_c, 8, 59, 100
1, 370560, Note_on_c, 8, 61, 100
1, 370560, Note_on_c, 12, 64, 46
1, 370560, Note_on_c, 12, 73, 46
1, 370560, Note_on_c, 13, 40, 100
1, 370560, Note_on_c, 13, 45, 100
1, 370728, Note_off_c, 1, 69, 0
1, 370808, Note_off_c, 7, 64, 0
1, 370822, Note_off_c, 7, 69, 0
1, 370822, Note_off_c, 7, 76, 0
1, 370842, Note_on_c, 10, 64, 72
1, 370842, Note_on_c, 10, 69, 52
1, 370842, Note_on_c, 10, 76, 72
1, 370852, Note_off_c, 8, 59, 0
1, 370852, Note_off_c, 8, 61, 0
1, 370852, Note_off_c, 13, 40, 0
1, 370852, Note_off_c, 13, 45, 0
1, 370994, Note_off_c, 10, 69, 0
1, 371032, Note_off_c, 0, 52, 64
1, 371032, Note_off_c, 0, 61, 64
1, 371032, Note_off_c, 12, 64, 0
1, 371032, Note_off_c, 12, 73, 0
1, 371040, Note_on_c, 0, 52, 52
1, 371040, Note_on_c, 0, 61, 52
1, 371040, Note_on_c, 1, 64, 68
1, 371040, Note_on_c, 2, 73, 100
1, 371040, Note_on_c, 2, 81, 100
1, 371040, Note_on_c, 3, 73, 100
1, 371040, Note_on_c, 3, 76, 100
1, 371040, Note_on_c, 4, 83, 100
1, 371040, Note_on_c, 6, 64, 68
1, 371040, Note_on_c, 6, 69, 69
1, 371040, Note_on_c, 6, 76, 72
1, 371040, Note_on_c, 8, 40, 100
1, 371040, Note_on_c, 8, 45, 100
1, 371040, Note_on_c, 12, 64, 52
1, 371040, Note_on_c, 12, 73, 52
1, 371040, Note_on_c, 13, 59, 100
1, 371040, Note_on_c, 13, 61, 100
1, 371082, Note_off_c, 10, 64, 0
1, 371088, Note_off_c, 10, 76, 0
1, 371256, Note_off_c, 6, 76, 0
1, 371258, Note_off_c, 6, 69, 0
1, 371272, Note_off_c, 6, 64, 0
1, 371332, Note_off_c, 8, 40, 0
1, 371332, Note_off_c, 8, 45, 0
1, 371332, Note_off_c, 13, 59, 0
1, 371332, Note_off_c, 13, 61, 0
1, 371484, Note_off_c, 1, 64, 0
1, 371512, Note_off_c, 0, 52, 64
1, 371512, Note_off_c, 0, 61, 64
1, 371512, Note_off_c, 2, 73, 64
1, 371512, Note_off_c, 2, 81, 64
1, 371512, Note_off_c, 3, 73, 64
1, 371512, Note_off_c, 3, 76, 64
1, 371512, Note_off_c, 4, 83, 0
1, 371512, Note_off_c, 5, 52, 0
1, 371512, Note_off_c, 5, 57, 0
1, 371512, Note_off_c, 12, 64, 0
1, 371512, Note_off_c, 12, 73, 0
1, 371520, Note_on_c, 0, 52, 57
1, 371520, Note_on_c, 0, 61, 57
1, 371520, Note_on_c, 1, 66, 78
1, 371520, Note_on_c, 2, 69, 100
1, 371520, Note_on_c, 2, 78, 100
1, 371520, Note_on_c, 3, 64, 100
1, 371520, Note_on_c, 3, 69, 100
1, 371520, Note_on_c, 4, 80, 100
1, 371520, Note_on_c, 5, 50, 100
1, 371520, Note_on_c, 5, 57, 100
1, 371520, Note_on_c, 7, 64, 70
1, 371520, Note_on_c, 7, 69, 83
1, 371520, Note_on_c, 7, 76, 74
1, 371520, Note_on_c, 8, 57, 100
1, 371520, Note_on_c, 8, 61, 100
1, 371520, Note_on_c, 12, 64, 57
1, 371520, Note_on_c, 12, 73, 57
1, 371520, Note_on_c, 13, 38, 100
1, 371520, Note_on_c, 13, 45, 100
1, 371760, Note_off_c, 7, 64, 0
1, 371760, Note_off_c, 7, 76, 0
1, 371770, Note_off_c, 7, 69, 0
1, 371802, Note_on_c, 10, 64, 68
1, 371802, Note_on_c, 10, 69, 70
1, 371802, Note_on_c, 10, 76, 74
1, 371812, Note_off_c, 8, 57, 0
1, 371812, Note_off_c, 8, 61, 0
1, 371812, Note_off_c, 13, 38, 0
1, 371812, Note_off_c, 13, 45, 0
1, 371992, Note_off_c, 0, 52, 64
1, 371992, Note_off_c, 0, 61, 64
1, 371992, Note_off_c, 2, 69, 64
1, 371992, Note_off_c, 2, 78, 64
1, 371992, Note_off_c, 3, 64, 64
1, 371992, Note_off_c, 3, 69, 64
1, 371992, Note_off_c, 4, 80, 0
1, 371992, Note_off_c, 12, 64, 0
1, 371992, Note_off_c, 12, 73, 0
1, 372000, Note_on_c, 0, 52, 60
1, 372000, Note_on_c, 0, 61, 60
1, 372000, Note_on_c, 6, 64, 67
1, 372000, Note_on_c, 6, 69, 67
1, 372000, Note_on_c, 6, 76, 72
1, 372000, Note_on_c, 8, 38, 100
1, 372000, Note_on_c, 8, 45, 100
1, 372000, Note_on_c, 12, 64, 60
1, 372000, Note_on_c, 12, 73, 60
1, 372000, Note_on_c, 13, 57, 100
1, 372000, Note_on_c, 13, 61, 100
1, 372034, Note_off_c, 10, 69, 0
1, 372044, Note_off_c, 10, 64, 0
1, 372052, Note_off_c, 10, 76, 0
1, 372188, Note_off_c, 1, 66, 0
1, 372246, Note_off_c, 6, 64, 0
1, 372250, Note_off_c, 6, 69, 0
1, 372266, Note_off_c, 6, 76, 0
1, 372292, Note_off_c, 8, 38, 0
1, 372292, Note_off_c, 8, 45, 0
1, 372292, Note_off_c, 13, 57, 0
1, 372292, Note_off_c, 13, 61, 0
1, 372472, Note_off_c, 0, 52, 64
1, 372472, Note_off_c, 0, 61, 64
1, 372472, Note_off_c, 12, 64, 0
1, 372472, Note_off_c, 12, 73, 0
1, 372480, Note_on_c, 0, 52, 66
1, 372480, Note_on_c, 0, 61, 66
1, 372480, Note_on_c, 1, 59, 74
1, 372480, Note_on_c, 2, 71, 100
1, 372480, Note_on_c, 2, 80, 100
1, 372480, Note_on_c, 3, 71, 100
1, 372480, Note_on_c, 3, 76, 100
1, 372480, Note_on_c, 4, 80, 100
1, 372480, Note_on_c, 7, 64, 67
1, 372480, Note_on_c, 7, 69, 78
1, 372480, Note_on_c, 7, 76, 73
1, 372480, Note_on_c, 8, 57, 100
1, 372480, Note_on_c, 8, 61, 100
1, 372480, Note_on_c, 12, 64, 66
1, 372480, Note_on_c, 12, 73, 66
1, 372480, Note_on_c, 13, 38, 100
1, 372480, Note_on_c, 13, 45, 100
1, 372730, Note_off_c, 7, 76, 0
1, 372736, Note_off_c, 7, 69, 0
1, 372744, Note_off_c, 7, 64, 0
1, 372762, Note_on_c, 10, 64, 68
1, 372762, Note_on_c, 10, 69, 69
1, 372762, Note_on_c, 10, 76, 72
1, 372772, Note_off_c, 8, 57, 0
1, 372772, Note_off_c, 8, 61, 0
1, 372772, Note_off_c, 13, 38, 0
1, 372772, Note_off_c, 13, 45, 0
1, 372952, Note_off_c, 0, 52, 64
1, 372952, Note_off_c, 0, 61, 64
1, 372952, Note_off_c, 2, 71, 64
1, 372952, Note_off_c, 2, 80, 64
1, 372952, Note_off_c, 3, 71, 64
1, 372952, Note_off_c, 3, 76, 64
1, 372952, Note_off_c, 4, 80, 0
1, 372952, Note_off_c, 12, 64, 0
1, 372952, Note_off_c, 12, 73, 0
1, 372960, Note_on_c, 0, 52, 71
1, 372960, Note_on_c, 0, 61, 71
1, 372960, Note_on_c, 1, 69, 75
1, 372960, Note_on_c, 2, 69, 100
1, 372960, Note_on_c, 2, 78, 100
1, 372960, Note_on_c, 3, 66, 100
1, 372960, Note_on_c, 3, 69, 100
1, 372960, Note_on_c, 4, 81, 100
1, 372960, Note_on_c, 6, 64, 67
1, 372960, Note_on_c, 6, 69, 63
1, 372960, Note_on_c, 6, 76, 72
1, 372960, Note_on_c, 8, 38, 100
1, 372960, Note_on_c, 8, 45, 100
1, 372960, Note_on_c, 12, 64, 71
1, 372960, Note_on_c, 12, 73, 71
1, 372960, Note_on_c, 13, 57, 100
1, 372960, Note_on_c, 13, 61, 100
1, 372968, Note_off_c, 1, 59, 0
1, 372978, Note_off_c, 10, 76, 0
1, 372980, Note_off_c, 10, 69, 0
1, 372994, Note_off_c, 10, 64, 0
1, 373208, Note_off_c, 6, 69, 0
1, 373236, Note_off_c, 6, 64, 0
1, 373252, Note_off_c, 6, 76, 0
1, 373252, Note_off_c, 8, 38, 0
1, 373252, Note_off_c, 8, 45, 0
1, 373252, Note_off_c, 13, 57, 0
1, 373252, Note_off_c, 13, 61, 0
1, 373432, Note_off_c, 0, 52, 64
1, 373432, Note_off_c, 0, 61, 64
1, 373432, Note_off_c, 2, 69, 64
1, 373432, Note_off_c, 2, 78, 64
1, 373432, Note_off_c, 3, 66, 64
1, 373432, Note_off_c, 3, 69, 64
1, 373432, Note_off_c, 4, 81, 0
1, 373432, Note_off_c, 12, 64, 0
1, 373432, Note_off_c, 12, 73, 0
1, 373440, Note_on_c, 0, 52, 74
1, 373440, Note_on_c, 0, 61, 74
1, 373440, Note_on_c, 1, 64, 73
1, 373440, Note_on_c, 2, 73, 100
1, 373440, Note_on_c, 2, 81, 100
1, 373440, Note_on_c, 3, 73, 100
1, 373440, Note_on_c, 3, 76, 100
1, 373440, Note_on_c, 4, 85, 100
1, 373440, Note_on_c, 7, 64, 69
1, 373440, Note_on_c, 7, 69, 70
1, 373440, Note_on_c, 7, 76, 73
1, 373440, Note_on_c, 8, 57, 100
1, 373440, Note_on_c, 8, 61, 100
1, 373440, Note_on_c, 12, 64, 74
1, 373440, Note_on_c, 12, 73, 74
1, 373440, Note_on_c, 13, 38, 100
1, 373440, Note_on_c, 13, 45, 100
1, 373566, Note_off_c, 1, 69, 0
1, 373660, Note_off_c, 7, 69, 0
1, 373682, Note_off_c, 7, 76, 0
1, 373692, Note_off_c, 7, 64, 0
1, 373722, Note_on_c, 10, 64, 67
1, 373722, Note_on_c, 10, 69, 67
1, 373722, Note_on_c, 10, 76, 72
1, 373732, Note_off_c, 8, 57, 0
1, 373732, Note_off_c, 8, 61, 0
1, 373732, Note_off_c, 13, 38, 0
1, 373732, Note_off_c, 13, 45, 0
1, 373912, Note_off_c, 0, 52, 64
1, 373912, Note_off_c, 0, 61, 64
1, 373912, Note_off_c, 2, 73, 64
1, 373912, Note_off_c, 2, 81, 64
1, 373912, Note_off_c, 3, 73, 64
1, 373912, Note_off_c, 3, 76, 64
1, 373912, Note_off_c, 4, 85, 0
1, 373912, Note_off_c, 12, 64, 0
1, 373912, Note_off_c, 12, 73, 0
1, 373920, Note_on_c, 0, 52, 80
1, 373920, Note_on_c, 0, 61, 80
1, 373920, Note_on_c, 6, 64, 68
1, 373920, Note_on_c, 6, 69, 66
1, 373920, Note_on_c, 6, 76, 70
1, 373920, Note_on_c, 8, 38, 100
1, 373920, Note_on_c, 8, 45, 100
1, 373920, Note_on_c, 12, 64, 80
1, 373920, Note_on_c, 12, 73, 80
1, 373920, Note_on_c, 13, 57, 100
1, 373920, Note_on_c, 13, 61, 100
1, 373968, Note_off_c, 10, 64, 0
1, 373972, Note_off_c, 10, 69, 0
1, 373988, Note_off_c, 10, 76, 0
1, 374116, Note_off_c, 6, 69, 0
1, 374140, Note_off_c, 6, 64, 0
1, 374146, Note_off_c, 1, 64, 0
1, 374158, Note_off_c, 6, 76, 0
1, 374212, Note_off_c, 8, 38, 0
1, 374212, Note_off_c, 8, 45, 0
1, 374212, Note_off_c, 13, 57, 0
1, 374212, Note_off_c, 13, 61, 0
1, 374392, Note_off_c, 0, 52, 64
1, 374392, Note_off_c, 0, 61, 64
1, 374392, Note_off_c, 5, 50, 0
1, 374392, Note_off_c, 5, 57, 0
1, 374392, Note_off_c, 12, 64, 0
1, 374392, Note_off_c, 12, 73, 0
1, 374400, Note_on_c, 0, 52, 85
1, 374400, Note_on_c, 0, 61, 85
1, 374400, Note_on_c, 1, 66, 68
1, 374400, Note_on_c, 2, 71, 100
1, 374400, Note_on_c, 2, 80, 100
1, 374400, Note_on_c, 3, 71, 100
1, 374400, Note_on_c, 3, 76, 100
1, 374400, Note_on_c, 4, 83, 100
1, 374400, Note_on_c, 5, 52, 100
1, 374400, Note_on_c, 5, 57, 100
1, 374400, Note_on_c, 7, 64, 69
1, 374400, Note_on_c, 7, 69, 75
1, 374400, Note_on_c, 7, 76, 73
1, 374400, Note_on_c, 8, 59, 100
1, 374400, Note_on_c, 8, 61, 100
1, 374400, Note_on_c, 12, 64, 85
1, 374400, Note_on_c, 12, 73, 85
1, 374400, Note_on_c, 13, 40, 100
1, 374400, Note_on_c, 13, 45, 100
1, 374614, Note_off_c, 7, 69, 0
1, 374630, Note_off_c, 7, 64, 0
1, 374644, Note_off_c, 7, 76, 0
1, 374682, Note_on_c, 10, 64, 67
1, 374682, Note_on_c, 10, 69, 63
1, 374682, Note_on_c, 10, 76, 72
1, 374692, Note_off_c, 8, 59, 0
1, 374692, Note_off_c, 8, 61, 0
1, 374692, Note_off_c, 13, 40, 0
1, 374692, Note_off_c, 13, 45, 0
1, 374872, Note_off_c, 0, 52, 64
1, 374872, Note_off_c, 0, 61, 64
1, 374872, Note_off_c, 2, 71, 64
1, 374872, Note_off_c, 2, 80, 64
1, 374872, Note_off_c, 3, 71, 64
1, 374872, Note_off_c, 3, 76, 64
1, 374872, Note_off_c, 4, 83, 0
1, 374872, Note_off_c, 12, 64, 0
1, 374872, Note_off_c, 12, 73, 0
1, 374880, Note_on_c, 0, 52, 91
1, 374880, Note_on_c, 0, 61, 91
1, 374880, Note_on_c, 1, 61, 68
1, 374880, Note_on_c, 2, 69, 100
1, 374880, Note_on_c, 2, 78, 100
1, 374880, Note_on_c, 3, 64, 100
1, 374880, Note_on_c, 3, 69, 100
1, 374880, Note_on_c, 4, 80, 100
1, 374880, Note_on_c, 6, 64, 68
1, 374880, Note_on_c, 6, 69, 63
1, 374880, Note_on_c, 6, 76, 72
1, 374880, Note_on_c, 8, 40, 100
1, 374880, Note_on_c, 8, 45, 100
1, 374880, Note_on_c, 12, 64, 91
1, 374880, Note_on_c, 12, 73, 91
1, 374880, Note_on_c, 13, 59, 100
1, 374880, Note_on_c, 13, 61, 100
1, 374916, Note_off_c, 1, 66, 0
1, 374930, Note_off_c, 10, 69, 0
1, 374958, Note_off_c, 10, 64, 0
1, 374974, Note_off_c, 10, 76, 0
1, 375090, Note_off_c, 6, 64, 0
1, 375124, Note_off_c, 6, 76, 0
1, 375142, Note_off_c, 6, 69, 0
1, 375172, Note_off_c, 8, 40, 0
1, 375172, Note_off_c, 8, 45, 0
1, 375172, Note_off_c, 13, 59, 0
1, 375172, Note_off_c, 13, 61, 0
1, 375352, Note_off_c, 0, 52, 64
1, 375352, Note_off_c, 0, 61, 64
1, 375352, Note_off_c, 2, 69, 64
1, 375352, Note_off_c, 2, 78, 64
1, 375352, Note_off_c, 3, 64, 64
1, 375352, Note_off_c, 3, 69, 64
1, 375352, Note_off_c, 4, 80, 0
1, 375352, Note_off_c, 12, 64, 0
1, 375352, Note_off_c, 12, 73, 0
1, 375360, Note_on_c, 0, 52, 93
1, 375360, Note_on_c, 0, 61, 93
1, 375360, Note_on_c, 7, 64, 68
1, 375360, Note_on_c, 7, 69, 74
1, 375360, Note_on_c, 7, 76, 74
1, 375360, Note_on_c, 8, 59, 100
1, 375360, Note_on_c, 8, 61, 100
1, 375360, Note_on_c, 12, 64, 93
1, 375360, Note_on_c, 12, 73, 93
1, 375360, Note_on_c, 13, 40, 100
1, 375360, Note_on_c, 13, 45, 100
1, 375584, Note_off_c, 7, 69, 0
1, 375624, Note_off_c, 7, 64, 0
1, 375634, Note_off_c, 7, 76, 0
1, 375642, Note_on_c, 10, 64, 68
1, 375642, Note_on_c, 10, 69, 66
1, 375642, Note_on_c, 10, 76, 70
1, 375650, Note_off_c, 1, 61, 0
1, 375652, Note_off_c, 8, 59, 0
1, 375652, Note_off_c, 8, 61, 0
1, 375652, Note_off_c, 13, 40, 0
1, 375652, Note_off_c, 13, 45, 0
1, 375832, Note_off_c, 0, 52, 64
1, 375832, Note_off_c, 0, 61, 64
1, 375832, Note_off_c, 12, 64, 0
1, 375832, Note_off_c, 12, 73, 0
1, 375838, Note_off_c, 10, 69, 0
1, 375840, Note_on_c, 0, 52, 99
1, 375840, Note_on_c, 0, 61, 99
1, 375840, Note_on_c, 1, 69, 77
1, 375840, Note_on_c, 2, 71, 100
1, 375840, Note_on_c, 2, 80, 100
1, 375840, Note_on_c, 3, 71, 100
1, 375840, Note_on_c, 3, 76, 100
1, 375840, Note_on_c, 4, 81, 100
1, 375840, Note_on_c, 6, 64, 70
1, 375840, Note_on_c, 6, 69, 69
1, 375840, Note_on_c, 6, 76, 72
1, 375840, Note_on_c, 8, 40, 100
1, 375840, Note_on_c, 8, 45, 100
1, 375840, Note_on_c, 12, 64, 99
1, 375840, Note_on_c, 12, 73, 99
1, 375840, Note_on_c, 13, 59, 100
1, 375840, Note_on_c, 13, 61, 100
1, 375862, Note_off_c, 10, 64, 0
1, 375880, Note_off_c, 10, 76, 0
1, 376074, Note_off_c, 6, 69, 0
1, 376102, Note_off_c, 6, 64, 0
1, 376102, Note_off_c, 6, 76, 0
1, 376132, Note_off_c, 8, 40, 0
1, 376132, Note_off_c, 8, 45, 0
1, 376132, Note_off_c, 13, 59, 0
1, 376132, Note_off_c, 13, 61, 0
1, 376312, Note_off_c, 0, 52, 64
1, 376312, Note_off_c, 0, 61, 64
1, 376312, Note_off_c, 2, 71, 64
1, 376312, Note_off_c, 2, 80, 64
1, 376312, Note_off_c, 3, 71, 64
1, 376312, Note_off_c, 3, 76, 64
1, 376312, Note_off_c, 4, 81, 0
1, 376312, Note_off_c, 12, 64, 0
1, 376312, Note_off_c, 12, 73, 0
1, 376320, Note_on_c, 0, 52, 104
1, 376320, Note_on_c, 0, 61, 104
1, 376320, Note_on_c, 7, 64, 68
1, 376320, Note_on_c, 7, 69, 73
1, 376320, Note_on_c, 7, 76, 73
1, 376320, Note_on_c, 8, 59, 100
1, 376320, Note_on_c, 8, 61, 100
1, 376320, Note_on_c, 12, 64, 104
1, 376320, Note_on_c, 12, 73, 104
1, 376320, Note_on_c, 13, 40, 100
1, 376320, Note_on_c, 13, 45, 100
1, 376464, Note_off_c, 1, 69, 0
1, 376544, Note_off_c, 7, 64, 0
1, 376568, Note_off_c, 7, 69, 0
1, 376568, Note_off_c, 7, 76, 0
1, 376602, Note_on_c, 10, 64, 68
1, 376602, Note_on_c, 10, 69, 63
1, 376602, Note_on_c, 10, 76, 72
1, 376612, Note_off_c, 8, 59, 0
1, 376612, Note_off_c, 8, 61, 0
1, 376612, Note_off_c, 13, 40, 0
1, 376612, Note_off_c, 13, 45, 0
1, 376792, Note_off_c, 0, 52, 64
1, 376792, Note_off_c, 0, 61, 64
1, 376792, Note_off_c, 12, 64, 0
1, 376792, Note_off_c, 12, 73, 0
1, 376800, Note_on_c, 0, 52, 110
1, 376800, Note_on_c, 0, 61, 110
1, 376800, Note_on_c, 1, 64, 70
1, 376800, Note_on_c, 2, 73, 100
1, 376800, Note_on_c, 2, 81, 100
1, 376800, Note_on_c, 3, 73, 100
1, 376800, Note_on_c, 3, 76, 100
1, 376800, Note_on_c, 4, 83, 100
1, 376800, Note_on_c, 6, 64, 68
1, 376800, Note_on_c, 6, 69, 70
1, 376800, Note_on_c, 6, 76, 70
1, 376800, Note_on_c, 8, 40, 100
1, 376800, Note_on_c, 8, 45, 100
1, 376800, Note_on_c, 12, 64, 110
1, 376800, Note_on_c, 12, 73, 110
1, 376800, Note_on_c, 13, 59, 100
1, 376800, Note_on_c, 13, 61, 100
1, 376812, Note_off_c, 10, 64, 0
1, 376846, Note_off_c, 10, 76, 0
1, 376864, Note_off_c, 10, 69, 0
1, 377008, Note_off_c, 6, 64, 0
1, 377036, Note_off_c, 6, 69, 0
1, 377040, Note_off_c, 6, 76, 0
1, 377092, Note_off_c, 8, 40, 0
1, 377092, Note_off_c, 8, 45, 0
1, 377092, Note_off_c, 13, 59, 0
1, 377092, Note_off_c, 13, 61, 0
1, 377272, Note_off_c, 0, 52, 64
1, 377272, Note_off_c, 0, 61, 64
1, 377272, Note_off_c, 2, 73, 64
1, 377272, Note_off_c, 2, 81, 64
1, 377272, Note_off_c, 3, 73, 64
1, 377272, Note_off_c, 3, 76, 64
1, 377272, Note_off_c, 4, 83, 0
1, 377272, Note_off_c, 5, 52, 0
1, 377272, Note_off_c, 5, 57, 0
1, 377272, Note_off_c, 12, 64, 0
1, 377272, Note_off_c, 12, 73, 0
1, 377280, Note_on_c, 0, 52, 113
1, 377280, Note_on_c, 0, 61, 113
1, 377280, Note_on_c, 1, 66, 77
1, 377280, Note_on_c, 2, 69, 100
1, 377280, Note_on_c, 2, 78, 100
1, 377280, Note_on_c, 3, 64, 100
1, 377280, Note_on_c, 3, 69, 100
1, 377280, Note_on_c, 4, 80, 100
1, 377280, Note_on_c, 5, 50, 100
1, 377280, Note_on_c, 5, 57, 100
1, 377280, Note_on_c, 7, 64, 66
1, 377280, Note_on_c, 7, 69, 74
1, 377280, Note_on_c, 7, 76, 73
1, 377280, Note_on_c, 8, 57, 100
1, 377280, Note_on_c, 8, 61, 100
1, 377280, Note_on_c, 12, 64, 113
1, 377280, Note_on_c, 12, 73, 113
1, 377280, Note_on_c, 13, 38, 100
1, 377280, Note_on_c, 13, 45, 100
1, 377432, Note_off_c, 1, 64, 0
1, 377514, Note_off_c, 7, 64, 0
1, 377534, Note_off_c, 7, 76, 0
1, 377562, Note_off_c, 7, 69, 0
1, 377562, Note_on_c, 10, 64, 70
1, 377562, Note_on_c, 10, 69, 69
1, 377562, Note_on_c, 10, 76, 72
1, 377572, Note_off_c, 8, 57, 0
1, 377572, Note_off_c, 8, 61, 0
1, 377572, Note_off_c, 13, 38, 0
1, 377572, Note_off_c, 13, 45, 0
1, 377752, Note_off_c, 0, 52, 64
1, 377752, Note_off_c, 0, 61, 64
1, 377752, Note_off_c, 2, 69, 64
1, 377752, Note_off_c, 2, 78, 64
1, 377752, Note_off_c, 3, 64, 64
1, 377752, Note_off_c, 3, 69, 64
1, 377752, Note_off_c, 4, 80, 0
1, 377752, Note_off_c, 12, 64, 0
1, 377752, Note_off_c, 12, 73, 0
1, 377760, Note_on_c, 0, 52, 118
1, 377760, Note_on_c, 0, 61, 118
1, 377760, Note_on_c, 6, 64, 67
1, 377760, Note_on_c, 6, 69, 73
1, 377760, Note_on_c, 6, 76, 74
1, 377760, Note_on_c, 8, 38, 100
1, 377760, Note_on_c, 8, 45, 100
1, 377760, Note_on_c, 12, 64, 118
1, 377760, Note_on_c, 12, 73, 118
1, 377760, Note_on_c, 13, 57, 100
1, 377760, Note_on_c, 13, 61, 100
1, 377796, Note_off_c, 10, 69, 0
1, 377824, Note_off_c, 10, 64, 0
1, 377824, Note_off_c, 10, 76, 0
1, 377924, Note_off_c, 1, 66, 0
1, 377976, Note_off_c, 6, 64, 0
1, 377996, Note_off_c, 6, 76, 0
1, 378006, Note_off_c, 6, 69, 0
1, 378052, Note_off_c, 8, 38, 0
1, 378052, Note_off_c, 8, 45, 0
1, 378052, Note_off_c, 13, 57, 0
1, 378052, Note_off_c, 13, 61, 0
1, 378232, Note_off_c, 0, 52, 64
1, 378232, Note_off_c, 0, 61, 64
1, 378232, Note_off_c, 12, 64, 0
1, 378232, Note_off_c, 12, 73, 0
1, 378240, Note_on_c, 0, 52, 127
1, 378240, Note_on_c, 0, 61, 127
1, 378240, Note_on_c, 1, 59, 65
1, 378240, Note_on_c, 2, 71, 100
1, 378240, Note_on_c, 2, 80, 100
1, 378240, Note_on_c, 3, 71, 100
1, 378240, Note_on_c, 3, 76, 100
1, 378240, Note_on_c, 4, 80, 100
1, 378240, Note_on_c, 7, 64, 66
1, 378240, Note_on_c, 7, 69, 77
1, 378240, Note_on_c, 7, 76, 70
1, 378240, Note_on_c, 8, 57, 100
1, 378240, Note_on_c, 8, 61, 100
1, 378240, Note_on_c, 12, 64, 127
1, 378240, Note_on_c, 12, 73, 127
1, 378240, Note_on_c, 13, 38, 100
1, 378240, Note_on_c, 13, 45, 100
1, 378468, Note_off_c, 7, 64, 0
1, 378522, Note_on_c, 10, 64, 68
1, 378522, Note_on_c, 10, 69, 70
1, 378522, Note_on_c, 10, 76, 70
1, 378526, Note_off_c, 7, 69, 0
1, 378532, Note_off_c, 8, 57, 0
1, 378532, Note_off_c, 8, 61, 0
1, 378532, Note_off_c, 13, 38, 0
1, 378532, Note_off_c, 13, 45, 0
1, 378550, Note_off_c, 7, 76, 0
1, 378712, Note_off_c, 0, 52, 64
1, 378712, Note_off_c, 0, 61, 64
1, 378712, Note_off_c, 2, 71, 64
1, 378712, Note_off_c, 2, 80, 64
1, 378712, Note_off_c, 3, 71, 64
1, 378712, Note_off_c, 3, 76, 64
1, 378712, Note_off_c, 4, 80, 0
1, 378712, Note_off_c, 12, 64, 0
1, 378712, Note_off_c, 12, 73, 0
1, 378720, Note_on_c, 0, 52, 124
1, 378720, Note_on_c, 0, 61, 124
1, 378720, Note_on_c, 1, 69, 74
1, 378720, Note_on_c, 2, 69, 100
1, 378720, Note_on_c, 2, 78, 100
1, 378720, Note_on_c, 3, 66, 100
1, 378720, Note_on_c, 3, 69, 100
1, 378720, Note_on_c, 4, 81, 100
1, 378720, Note_on_c, 6, 64, 68
1, 378720, Note_on_c, 6, 69, 74
1, 378720, Note_on_c, 6, 76, 75
1, 378720, Note_on_c, 8, 38, 100
1, 378720, Note_on_c, 8, 45, 100
1, 378720, Note_on_c, 12, 64, 124
1, 378720, Note_on_c, 12, 73, 124
1, 378720, Note_on_c, 13, 57, 100
1, 378720, Note_on_c, 13, 61, 100
1, 378730, Note_off_c, 10, 64, 0
1, 378758, Note_off_c, 10, 69, 0
1, 378762, Note_off_c, 10, 76, 0
1, 378814, Note_off_c, 1, 59, 0
1, 378992, Note_off_c, 6, 69, 0
1, 378996, Note_off_c, 6, 64, 0
1, 379010, Note_off_c, 6, 76, 0
1, 379012, Note_off_c, 8, 38, 0
1, 379012, Note_off_c, 8, 45, 0
1, 379012, Note_off_c, 13, 57, 0
1, 379012, Note_off_c, 13, 61, 0
1, 379192, Note_off_c, 0, 52, 64
1, 379192, Note_off_c, 0, 61, 64
1, 379192, Note_off_c, 2, 69, 64
1, 379192, Note_off_c, 2, 78, 64
1, 379192, Note_off_c, 3, 66, 64
1, 379192, Note_off_c, 3, 69, 64
1, 379192, Note_off_c, 4, 81, 0
1, 379192, Note_off_c, 5, 50, 0
1, 379192, Note_off_c, 5, 57, 0
1, 379192, Note_off_c, 12, 64, 0
1, 379192, Note_off_c, 12, 73, 0
1, 379200, Note_on_c, 0, 52, 118
1, 379200, Note_on_c, 0, 61, 118
1, 379200, Note_on_c, 1, 64, 68
1, 379200, Note_on_c, 2, 73, 100
1, 379200, Note_on_c, 2, 81, 100
1, 379200, Note_on_c, 3, 73, 100
1, 379200, Note_on_c, 3, 76, 100
1, 379200, Note_on_c, 4, 85, 100
1, 379200, Note_on_c, 5, 52, 100
1, 379200, Note_on_c, 5, 57, 100
1, 379200, Note_on_c, 7, 64, 65
1, 379200, Note_on_c, 7, 69, 72
1, 379200, Note_on_c, 7, 76, 72
1, 379200, Note_on_c, 8, 59, 100
1, 379200, Note_on_c, 8, 61, 100
1, 379200, Note_on_c, 12, 64, 118
1, 379200, Note_on_c, 12, 73, 118
1, 379200, Note_on_c, 13, 40, 100
1, 379200, Note_on_c, 13, 45, 100
1, 379412, Note_off_c, 1, 69, 0
1, 379476, Note_off_c, 7, 64, 0
1, 379482, Note_on_c, 10, 64, 67
1, 379482, Note_on_c, 10, 69, 73
1, 379482, Note_on_c, 10, 76, 74
1, 379490, Note_off_c, 7, 69, 0
1, 379492, Note_off_c, 7, 76, 0
1, 379492, Note_off_c, 8, 59, 0
1, 379492, Note_off_c, 8, 61, 0
1, 379492, Note_off_c, 13, 40, 0
1, 379492, Note_off_c, 13, 45, 0
1, 379672, Note_off_c, 0, 52, 64
1, 379672, Note_off_c, 0, 61, 64
1, 379672, Note_off_c, 2, 73, 64
1, 379672, Note_off_c, 2, 81, 64
1, 379672, Note_off_c, 3, 73, 64
1, 379672, Note_off_c, 3, 76, 64
1, 379672, Note_off_c, 4, 85, 0
1, 379672, Note_off_c, 12, 64, 0
1, 379672, Note_off_c, 12, 73, 0
1, 379680, Note_on_c, 0, 52, 113
1, 379680, Note_on_c, 0, 61, 113
1, 379680, Note_on_c, 6, 64, 73
1, 379680, Note_on_c, 6, 69, 80
1, 379680, Note_on_c, 6, 76, 77
1, 379680, Note_on_c, 8, 40, 100
1, 379680, Note_on_c, 8, 45, 100
1, 379680, Note_on_c, 12, 64, 113
1, 379680, Note_on_c, 12, 73, 113
1, 379680, Note_on_c, 13, 59, 100
1, 379680, Note_on_c, 13, 61, 100
1, 379698, Note_off_c, 10, 64, 0
1, 379718, Note_off_c, 10, 76, 0
1, 379728, Note_off_c, 10, 69, 0
1, 379814, Note_off_c, 1, 64, 0
1, 379942, Note_off_c, 6, 64, 0
1, 379958, Note_off_c, 6, 69, 0
1, 379968, Note_off_c, 6, 76, 0
1, 379972, Note_off_c, 8, 40, 0
1, 379972, Note_off_c, 8, 45, 0
1, 379972, Note_off_c, 13, 59, 0
1, 379972, Note_off_c, 13, 61, 0
1, 380152, Note_off_c, 0, 52, 64
1, 380152, Note_off_c, 0, 61, 64
1, 380152, Note_off_c, 12, 64, 0
1, 380152, Note_off_c, 12, 73, 0
1, 380160, Note_on_c, 0, 52, 107
1, 380160, Note_on_c, 0, 61, 107
1, 380160, Note_on_c, 1, 66, 77
1, 380160, Note_on_c, 3, 71, 100
1, 380160, Note_on_c, 3, 76, 100
1, 380160, Note_on_c, 7, 64, 67
1, 380160, Note_on_c, 7, 69, 75
1, 380160, Note_on_c, 7, 76, 70
1, 380160, Note_on_c, 8, 59, 100
1, 380160, Note_on_c, 8, 61, 100
1, 380160, Note_on_c, 12, 64, 107
1, 380160, Note_on_c, 12, 73, 107
1, 380160, Note_on_c, 13, 40, 100
1, 380160, Note_on_c, 13, 45, 100
1, 380390, Note_off_c, 7, 69, 0
1, 380408, Note_off_c, 7, 64, 0
1, 380418, Note_off_c, 7, 76, 0
1, 380442, Note_on_c, 10, 64, 68
1, 380442, Note_on_c, 10, 69, 74
1, 380442, Note_on_c, 10, 76, 75
1, 380452, Note_off_c, 8, 59, 0
1, 380452, Note_off_c, 8, 61, 0
1, 380452, Note_off_c, 13, 40, 0
1, 380452, Note_off_c, 13, 45, 0
1, 380632, Note_off_c, 0, 52, 64
1, 380632, Note_off_c, 0, 61, 64
1, 380632, Note_off_c, 3, 71, 64
1, 380632, Note_off_c, 3, 76, 64
1, 380632, Note_off_c, 12, 64, 0
1, 380632, Note_off_c, 12, 73, 0
1, 380640, Note_on_c, 0, 52, 102
1, 380640, Note_on_c, 0, 61, 102
1, 380640, Note_on_c, 1, 61, 70
1, 380640, Note_on_c, 3, 64, 100
1, 380640, Note_on_c, 3, 69, 100
1, 380640, Note_on_c, 6, 64, 68
1, 380640, Note_on_c, 6, 69, 70
1, 380640, Note_on_c, 6, 76, 74
1, 380640, Note_on_c, 8, 40, 100
1, 380640, Note_on_c, 8, 45, 100
1, 380640, Note_on_c, 12, 64, 102
1, 380640, Note_on_c, 12, 73, 102
1, 380640, Note_on_c, 13, 59, 100
1, 380640, Note_on_c, 13, 61, 100
1, 380714, Note_off_c, 10, 69, 0
1, 380718, Note_off_c, 10, 64, 0
1, 380732, Note_off_c, 10, 76, 0
1, 380802, Note_off_c, 1, 66, 0
1, 380926, Note_off_c, 6, 64, 0
1, 380932, Note_off_c, 8, 40, 0
1, 380932, Note_off_c, 8, 45, 0
1, 380932, Note_off_c, 13, 59, 0
1, 380932, Note_off_c, 13, 61, 0
1, 380938, Note_off_c, 6, 69, 0
1, 380938, Note_off_c, 6, 76, 0
1, 381112, Note_off_c, 0, 52, 64
1, 381112, Note_off_c, 0, 61, 64
1, 381112, Note_off_c, 3, 64, 64
1, 381112, Note_off_c, 3, 69, 64
1, 381112, Note_off_c, 12, 64, 0
1, 381112, Note_off_c, 12, 73, 0
1, 381120, Note_on_c, 0, 52, 96
1, 381120, Note_on_c, 0, 61, 96
1, 381120, Note_on_c, 7, 64, 66
1, 381120, Note_on_c, 7, 69, 68
1, 381120, Note_on_c, 7, 76, 72
1, 381120, Note_on_c, 8, 59, 100
1, 381120, Note_on_c, 8, 61, 100
1, 381120, Note_on_c, 12, 64, 96
1, 381120, Note_on_c, 12, 73, 96
1, 381120, Note_on_c, 13, 40, 100
1, 381120, Note_on_c, 13, 45, 100
1, 381268, Note_off_c, 1, 61, 0
1, 381380, Note_off_c, 7, 69, 0
1, 381390, Note_off_c, 7, 64, 0
1, 381394, Note_off_c, 7, 76, 0
1, 381402, Note_on_c, 10, 64, 73
1, 381402, Note_on_c, 10, 69, 80
1, 381402, Note_on_c, 10, 76, 77
1, 381412, Note_off_c, 8, 59, 0
1, 381412, Note_off_c, 8, 61, 0
1, 381412, Note_off_c, 13, 40, 0
1, 381412, Note_off_c, 13, 45, 0
1, 381592, Note_off_c, 0, 52, 64
1, 381592, Note_off_c, 0, 61, 64
1, 381592, Note_off_c, 12, 64, 0
1, 381592, Note_off_c, 12, 73, 0
1, 381600, Note_on_c, 0, 52, 91
1, 381600, Note_on_c, 0, 61, 91
1, 381600, Note_on_c, 1, 69, 77
1, 381600, Note_on_c, 3, 71, 100
1, 381600, Note_on_c, 3, 76, 100
1, 381600, Note_on_c, 6, 64, 70
1, 381600, Note_on_c, 6, 69, 74
1, 381600, Note_on_c, 6, 76, 74
1, 381600, Note_on_c, 8, 40, 100
1, 381600, Note_on_c, 8, 45, 100
1, 381600, Note_on_c, 12, 64, 91
1, 381600, Note_on_c, 12, 73, 91
1, 381600, Note_on_c, 13, 59, 100
1, 381600, Note_on_c, 13, 61, 100
1, 381664, Note_off_c, 10, 64, 0
1, 381680, Note_off_c, 10, 69, 0
1, 381690, Note_off_c, 10, 76, 0
1, 381804, Note_off_c, 6, 64, 0
1, 381834, Note_off_c, 6, 76, 0
1, 381872, Note_off_c, 6, 69, 0
1, 381892, Note_off_c, 8, 40, 0
1, 381892, Note_off_c, 8, 45, 0
1, 381892, Note_off_c, 13, 59, 0
1, 381892, Note_off_c, 13, 61, 0
1, 382072, Note_off_c, 0, 52, 64
1, 382072, Note_off_c, 0, 61, 64
1, 382072, Note_off_c, 3, 71, 64
1, 382072, Note_off_c, 3, 76, 64
1, 382072, Note_off_c, 12, 64, 0
1, 382072, Note_off_c, 12, 73, 0
1, 382080, Note_on_c, 0, 52, 85
1, 382080, Note_on_c, 0, 61, 85
1, 382080, Note_on_c, 7, 64, 62
1, 382080, Note_on_c, 7, 69, 60
1, 382080, Note_on_c, 7, 76, 70
1, 382080, Note_on_c, 8, 59, 100
1, 382080, Note_on_c, 8, 61, 100
1, 382080, Note_on_c, 12, 64, 85
1, 382080, Note_on_c, 12, 73, 85
1, 382080, Note_on_c, 13, 40, 100
1, 382080, Note_on_c, 13, 45, 100
1, 382248, Note_off_c, 1, 69, 0
1, 382340, Note_off_c, 7, 69, 0
1, 382358, Note_off_c, 7, 64, 0
1, 382362, Note_on_c, 10, 64, 68
1, 382362, Note_on_c, 10, 69, 70
1, 382362, Note_on_c, 10, 76, 74
1, 382372, Note_off_c, 8, 59, 0
1, 382372, Note_off_c, 8, 61, 0
1, 382372, Note_off_c, 13, 40, 0
1, 382372, Note_off_c, 13, 45, 0
1, 382418, Note_off_c, 7, 76, 0
1, 382552, Note_off_c, 0, 52, 64
1, 382552, Note_off_c, 0, 61, 64
1, 382552, Note_off_c, 12, 64, 0
1, 382552, Note_off_c, 12, 73, 0
1, 382560, Note_on_c, 0, 52, 80
1, 382560, Note_on_c, 0, 61, 80
1, 382560, Note_on_c, 1, 64, 68
1, 382560, Note_on_c, 3, 73, 100
1, 382560, Note_on_c, 3, 76, 100
1, 382560, Note_on_c, 6, 64, 68
1, 382560, Note_on_c, 6, 69, 68
1, 382560, Note_on_c, 6, 76, 72
1, 382560, Note_on_c, 8, 40, 100
1, 382560, Note_on_c, 8, 45, 100
1, 382560, Note_on_c, 12, 64, 80
1, 382560, Note_on_c, 12, 73, 80
1, 382560, Note_on_c, 13, 59, 100
1, 382560, Note_on_c, 13, 61, 100
1, 382648, Note_off_c, 10, 64, 0
1, 382660, Note_off_c, 10, 69, 0
1, 382660, Note_off_c, 10, 76, 0
1, 382766, Note_off_c, 6, 69, 0
1, 382774, Note_off_c, 6, 64, 0
1, 382784, Note_off_c, 6, 76, 0
1, 382852, Note_off_c, 8, 40, 0
1, 382852, Note_off_c, 8, 45, 0
1, 382852, Note_off_c, 13, 59, 0
1, 382852, Note_off_c, 13, 61, 0
1, 383004, Note_off_c, 1, 64, 0
1, 383032, Note_off_c, 0, 52, 64
1, 383032, Note_off_c, 0, 61, 64
1, 383032, Note_off_c, 3, 73, 64
1, 383032, Note_off_c, 3, 76, 64
1, 383032, Note_off_c, 5, 52, 0
1, 383032, Note_off_c, 5, 57, 0
1, 383032, Note_off_c, 12, 64, 0
1, 383032, Note_off_c, 12, 73, 0
1, 383040, Note_on_c, 0, 52, 74
1, 383040, Note_on_c, 0, 61, 74
1, 383040, Note_on_c, 1, 66, 78
1, 383040, Note_on_c, 2, 69, 100
1, 383040, Note_on_c, 2, 78, 100
1, 383040, Note_on_c, 3, 64, 100
1, 383040, Note_on_c, 3, 69, 100
1, 383040, Note_on_c, 4, 78, 100
1, 383040, Note_on_c, 5, 50, 100
1, 383040, Note_on_c, 5, 57, 100
1, 383040, Note_on_c, 7, 64, 56
1, 383040, Note_on_c, 7, 69, 69
1, 383040, Note_on_c, 7, 76, 73
1, 383040, Note_on_c, 8, 57, 100
1, 383040, Note_on_c, 8, 61, 100
1, 383040, Note_on_c, 12, 64, 74
1, 383040, Note_on_c, 12, 73, 74
1, 383040, Note_on_c, 13, 38, 100
1, 383040, Note_on_c, 13, 45, 100
1, 383306, Note_off_c, 7, 64, 0
1, 383322, Note_on_c, 10, 64, 70
1, 383322, Note_on_c, 10, 69, 74
1, 383322, Note_on_c, 10, 76, 74
1, 383332, Note_off_c, 8, 57, 0
1, 383332, Note_off_c, 8, 61, 0
1, 383332, Note_off_c, 13, 38, 0
1, 383332, Note_off_c, 13, 45, 0
1, 383334, Note_off_c, 7, 69, 0
1, 383342, Note_off_c, 7, 76, 0
1, 383512, Note_off_c, 0, 52, 64
1, 383512, Note_off_c, 0, 61, 64
1, 383512, Note_off_c, 2, 69, 64
1, 383512, Note_off_c, 2, 78, 64
1, 383512, Note_off_c, 3, 64, 64
1, 383512, Note_off_c, 3, 69, 64
1, 383512, Note_off_c, 4, 78, 0
1, 383512, Note_off_c, 12, 64, 0
1, 383512, Note_off_c, 12, 73, 0
1, 383520, Note_on_c, 0, 52, 69
1, 383520, Note_on_c, 0, 61, 69
1, 383520, Note_on_c, 6, 64, 70
1, 383520, Note_on_c, 6, 69, 70
1, 383520, Note_on_c, 6, 76, 75
1, 383520, Note_on_c, 8, 38, 100
1, 383520, Note_on_c, 8, 45, 100
1, 383520, Note_on_c, 12, 64, 69
1, 383520, Note_on_c, 12, 73, 69
1, 383520, Note_on_c, 13, 57, 100
1, 383520, Note_on_c, 13, 61, 100
1, 383526, Note_off_c, 10, 64, 0
1, 383556, Note_off_c, 10, 76, 0
1, 383594, Note_off_c, 10, 69, 0
1, 383708, Note_off_c, 1, 66, 0
1, 383748, Note_off_c, 6, 69, 0
1, 383790, Note_off_c, 6, 64, 0
1, 383812, Note_off_c, 8, 38, 0
1, 383812, Note_off_c, 8, 45, 0
1, 383812, Note_off_c, 13, 57, 0
1, 383812, Note_off_c, 13, 61, 0
1, 383828, Note_off_c, 6, 76, 0
1, 383992, Note_off_c, 0, 52, 64
1, 383992, Note_off_c, 0, 61, 64
1, 383992, Note_off_c, 12, 64, 0
1, 383992, Note_off_c, 12, 73, 0
1, 384000, Note_on_c, 0, 52, 63
1, 384000, Note_on_c, 0, 61, 63
1, 384000, Note_on_c, 1, 59, 74
1, 384000, Note_on_c, 2, 71, 100
1, 384000, Note_on_c, 2, 80, 100
1, 384000, Note_on_c, 3, 71, 100
1, 384000, Note_on_c, 3, 76, 100
1, 384000, Note_on_c, 4, 80, 100
1, 384000, Note_on_c, 7, 64, 66
1, 384000, Note_on_c, 7, 69, 70
1, 384000, Note_on_c, 7, 76, 75
1, 384000, Note_on_c, 8, 57, 100
1, 384000, Note_on_c, 8, 61, 100
1, 384000, Note_on_c, 12, 64, 63
1, 384000, Note_on_c, 12, 73, 63
1, 384000, Note_on_c, 13, 38, 100
1, 384000, Note_on_c, 13, 45, 100
1, 384250, Note_off_c, 7, 69, 0
1, 384264, Note_off_c, 7, 64, 0
1, 384282, Note_on_c, 10, 64, 68
1, 384282, Note_on_c, 10, 69, 68
1, 384282, Note_on_c, 10, 76, 72
1, 384290, Note_off_c, 7, 76, 0
1, 384292, Note_off_c, 8, 57, 0
1, 384292, Note_off_c, 8, 61, 0
1, 384292, Note_off_c, 13, 38, 0
1, 384292, Note_off_c, 13, 45, 0
1, 384472, Note_off_c, 0, 52, 64
1, 384472, Note_off_c, 0, 61, 64
1, 384472, Note_off_c, 2, 71, 64
1, 384472, Note_off_c, 2, 80, 64
1, 384472, Note_off_c, 3, 71, 64
1, 384472, Note_off_c, 3, 76, 64
1, 384472, Note_off_c, 4, 80, 0
1, 384472, Note_off_c, 12, 64, 0
1, 384472, Note_off_c, 12, 73, 0
1, 384480, Note_on_c, 0, 52, 60
1, 384480, Note_on_c, 0, 61, 60
1, 384480, Note_on_c, 1, 69, 75
1, 384480, Note_on_c, 2, 69, 100
1, 384480, Note_on_c, 2, 78, 100
1, 384480, Note_on_c, 3, 66, 100
1, 384480, Note_on_c, 3, 69, 100
1, 384480, Note_on_c, 4, 81, 100
1, 384480, Note_on_c, 6, 64, 69
1, 384480, Note_on_c, 6, 69, 69
1, 384480, Note_on_c, 6, 76, 73
1, 384480, Note_on_c, 8, 38, 100
1, 384480, Note_on_c, 8, 45, 100
1, 384480, Note_on_c, 12, 64, 60
1, 384480, Note_on_c, 12, 73, 60
1, 384480, Note_on_c, 13, 57, 100
1, 384480, Note_on_c, 13, 61, 100
1, 384488, Note_off_c, 1, 59, 0
1, 384488, Note_off_c, 10, 69, 0
1, 384496, Note_off_c, 10, 64, 0
1, 384506, Note_off_c, 10, 76, 0
1, 384746, Note_off_c, 6, 64, 0
1, 384772, Note_off_c, 8, 38, 0
1, 384772, Note_off_c, 8, 45, 0
1, 384772, Note_off_c, 13, 57, 0
1, 384772, Note_off_c, 13, 61, 0
1, 384784, Note_off_c, 6, 69, 0
1, 384784, Note_off_c, 6, 76, 0
1, 384952, Note_off_c, 0, 52, 64
1, 384952, Note_off_c, 0, 61, 64
1, 384952, Note_off_c, 2, 69, 64
1, 384952, Note_off_c, 2, 78, 64
1, 384952, Note_off_c, 3, 66, 64
1, 384952, Note_off_c, 3, 69, 64
1, 384952, Note_off_c, 4, 81, 0
1, 384952, Note_off_c, 12, 64, 0
1, 384952, Note_off_c, 12, 73, 0
1, 384960, Note_on_c, 0, 52, 55
1, 384960, Note_on_c, 0, 61, 55
1, 384960, Note_on_c, 1, 64, 73
1, 384960, Note_on_c, 2, 73, 100
1, 384960, Note_on_c, 2, 81, 100
1, 384960, Note_on_c, 3, 73, 100
1, 384960, Note_on_c, 3, 76, 100
1, 384960, Note_on_c, 4, 85, 100
1, 384960, Note_on_c, 7, 64, 66
1, 384960, Note_on_c, 7, 69, 70
1, 384960, Note_on_c, 7, 76, 75
1, 384960, Note_on_c, 8, 57, 100
1, 384960, Note_on_c, 8, 61, 100
1, 384960, Note_on_c, 12, 64, 55
1, 384960, Note_on_c, 12, 73, 55
1, 384960, Note_on_c, 13, 38, 100
1, 384960, Note_on_c, 13, 45, 100
1, 385086, Note_off_c, 1, 69, 0
1, 385210, Note_off_c, 7, 69, 0
1, 385224, Note_off_c, 7, 64, 0
1, 385242, Note_on_c, 10, 64, 70
1, 385242, Note_on_c, 10, 69, 70
1, 385242, Note_on_c, 10, 76, 75
1, 385250, Note_off_c, 7, 76, 0
1, 385252, Note_off_c, 8, 57, 0
1, 385252, Note_off_c, 8, 61, 0
1, 385252, Note_off_c, 13, 38, 0
1, 385252, Note_off_c, 13, 45, 0
1, 385432, Note_off_c, 0, 52, 64
1, 385432, Note_off_c, 0, 61, 64
1, 385432, Note_off_c, 2, 73, 64
1, 385432, Note_off_c, 2, 81, 64
1, 385432, Note_off_c, 3, 73, 64
1, 385432, Note_off_c, 3, 76, 64
1, 385432, Note_off_c, 4, 85, 0
1, 385432, Note_off_c, 12, 64, 0
1, 385432, Note_off_c, 12, 73, 0
1, 385440, Note_on_c, 0, 52, 49
1, 385440, Note_on_c, 0, 61, 49
1, 385440, Note_on_c, 6, 64, 67
1, 385440, Note_on_c, 6, 69, 63
1, 385440, Note_on_c, 6, 76, 74
1, 385440, Note_on_c, 8, 38, 100
1, 385440, Note_on_c, 8, 45, 100
1, 385440, Note_on_c, 12, 64, 49
1, 385440, Note_on_c, 12, 73, 49
1, 385440, Note_on_c, 13, 57, 100
1, 385440, Note_on_c, 13, 61, 100
1, 385470, Note_off_c, 10, 69, 0
1, 385512, Note_off_c, 10, 64, 0
1, 385550, Note_off_c, 10, 76, 0
1, 385644, Note_off_c, 6, 69, 0
1, 385666, Note_off_c, 1, 64, 0
1, 385706, Note_off_c, 6, 64, 0
1, 385706, Note_off_c, 6, 76, 0
1, 385732, Note_off_c, 8, 38, 0
1, 385732, Note_off_c, 8, 45, 0
1, 385732, Note_off_c, 13, 57, 0
1, 385732, Note_off_c, 13, 61, 0
1, 385912, Note_off_c, 0, 52, 64
1, 385912, Note_off_c, 0, 61, 64
1, 385912, Note_off_c, 12, 64, 0
1, 385912, Note_off_c, 12, 73, 0
1, 385920, Note_on_c, 0, 52, 44
1, 385920, Note_on_c, 0, 61, 44
1, 385920, Note_on_c, 1, 66, 68
1, 385920, Note_on_c, 2, 71, 100
1, 385920, Note_on_c, 2, 80, 100
1, 385920, Note_on_c, 3, 71, 100
1, 385920, Note_on_c, 3, 76, 100
1, 385920, Note_on_c, 4, 83, 100
1, 385920, Note_on_c, 7, 64, 72
1, 385920, Note_on_c, 7, 69, 80
1, 385920, Note_on_c, 7, 76, 77
1, 385920, Note_on_c, 8, 57, 100
1, 385920, Note_on_c, 8, 61, 100
1, 385920, Note_on_c, 12, 64, 44
1, 385920, Note_on_c, 12, 73, 44
1, 385920, Note_on_c, 13, 38, 100
1, 385920, Note_on_c, 13, 45, 100
1, 386160, Note_off_c, 7, 76, 0
1, 386170, Note_off_c, 7, 64, 0
1, 386170, Note_off_c, 7, 69, 0
1, 386202, Note_on_c, 10, 64, 69
1, 386202, Note_on_c, 10, 69, 69
1, 386202, Note_on_c, 10, 76, 73
1, 386212, Note_off_c, 8, 57, 0
1, 386212, Note_off_c, 8, 61, 0
1, 386212, Note_off_c, 13, 38, 0
1, 386212, Note_off_c, 13, 45, 0
1, 386392, Note_off_c, 0, 52, 64
1, 386392, Note_off_c, 0, 61, 64
1, 386392, Note_off_c, 2, 71, 64
1, 386392, Note_off_c, 2, 80, 64
1, 386392, Note_off_c, 3, 71, 64
1, 386392, Note_off_c, 3, 76, 64
1, 386392, Note_off_c, 4, 83, 0
1, 386392, Note_off_c, 12, 64, 0
1, 386392, Note_off_c, 12, 73, 0
1, 386400, Note_on_c, 0, 52, 38
1, 386400, Note_on_c, 0, 61, 38
1, 386400, Note_on_c, 1, 61, 68
1, 386400, Note_on_c, 2, 69, 100
1, 386400, Note_on_c, 2, 78, 100
1, 386400, Note_on_c, 3, 64, 100
1, 386400, Note_on_c, 3, 69, 100
1, 386400, Note_on_c, 4, 80, 100
1, 386400, Note_on_c, 6, 64, 66
1, 386400, Note_on_c, 6, 69, 63
1, 386400, Note_on_c, 6, 76, 74
1, 386400, Note_on_c, 8, 38, 100
1, 386400, Note_on_c, 8, 45, 100
1, 386400, Note_on_c, 12, 64, 38
1, 386400, Note_on_c, 12, 73, 38
1, 386400, Note_on_c, 13, 57, 100
1, 386400, Note_on_c, 13, 61, 100
1, 386436, Note_off_c, 1, 66, 0
1, 386468, Note_off_c, 10, 64, 0
1, 386506, Note_off_c, 10, 69, 0
1, 386506, Note_off_c, 10, 76, 0
1, 386630, Note_off_c, 6, 69, 0
1, 386636, Note_off_c, 6, 64, 0
1, 386674, Note_off_c, 6, 76, 0
1, 386692, Note_off_c, 8, 38, 0
1, 386692, Note_off_c, 8, 45, 0
1, 386692, Note_off_c, 13, 57, 0
1, 386692, Note_off_c, 13, 61, 0
1, 386872, Note_off_c, 0, 52, 64
1, 386872, Note_off_c, 0, 61, 64
1, 386872, Note_off_c, 2, 69, 64
1, 386872, Note_off_c, 2, 78, 64
1, 386872, Note_off_c, 3, 64, 64
1, 386872, Note_off_c, 3, 69, 64
1, 386872, Note_off_c, 4, 80, 0
1, 386872, Note_off_c, 12, 64, 0
1, 386872, Note_off_c, 12, 73, 0
1, 386880, Note_on_c, 0, 52, 33
1, 386880, Note_on_c, 0, 61, 33
1, 386880, Note_on_c, 7, 64, 70
1, 386880, Note_on_c, 7, 69, 77
1, 386880, Note_on_c, 7, 76, 77
1, 386880, Note_on_c, 8, 57, 100
1, 386880, Note_on_c, 8, 61, 100
1, 386880, Note_on_c, 12, 64, 33
1, 386880, Note_on_c, 12, 73, 33
1, 386880, Note_on_c, 13, 38, 100
1, 386880, Note_on_c, 13, 45, 100
1, 387134, Note_off_c, 7, 64, 0
1, 387162, Note_off_c, 7, 69, 0
1, 387162, Note_on_c, 10, 64, 67
1, 387162, Note_on_c, 10, 69, 63
1, 387162, Note_on_c, 10, 76, 74
1, 387170, Note_off_c, 1, 61, 0
1, 387170, Note_off_c, 7, 76, 0
1, 387172, Note_off_c, 8, 57, 0
1, 387172, Note_off_c, 8, 61, 0
1, 387172, Note_off_c, 13, 38, 0
1, 387172, Note_off_c, 13, 45, 0
1, 387352, Note_off_c, 0, 52, 64
1, 387352, Note_off_c, 0, 61, 64
1, 387352, Note_off_c, 12, 64, 0
1, 387352, Note_off_c, 12, 73, 0
1, 387360, Note_on_c, 0, 52, 27
1, 387360, Note_on_c, 0, 61, 27
1, 387360, Note_on_c, 1, 69, 77
1, 387360, Note_on_c, 2, 71, 100
1, 387360, Note_on_c, 2, 80, 100
1, 387360, Note_on_c, 3, 71, 100
1, 387360, Note_on_c, 3, 76, 100
1, 387360, Note_on_c, 4, 81, 100
1, 387360, Note_on_c, 6, 64, 68
1, 387360, Note_on_c, 6, 69, 74
1, 387360, Note_on_c, 6, 76, 74
1, 387360, Note_on_c, 8, 38, 100
1, 387360, Note_on_c, 8, 45, 100
1, 387360, Note_on_c, 12, 64, 27
1, 387360, Note_on_c, 12, 73, 27
1, 387360, Note_on_c, 13, 57, 100
1, 387360, Note_on_c, 13, 61, 100
1, 387366, Note_off_c, 10, 69, 0
1, 387428, Note_off_c, 10, 64, 0
1, 387428, Note_off_c, 10, 76, 0
1, 387620, Note_off_c, 6, 69, 0
1, 387650, Note_off_c, 6, 76, 0
1, 387652, Note_off_c, 8, 38, 0
1, 387652, Note_off_c, 8, 45, 0
1, 387652, Note_off_c, 13, 57, 0
1, 387652, Note_off_c, 13, 61, 0
1, 387654, Note_off_c, 6, 64, 0
1, 387832, Note_off_c, 0, 52, 64
1, 387832, Note_off_c, 0, 61, 64
1, 387832, Note_off_c, 2, 71, 64
1, 387832, Note_off_c, 2, 80, 64
1, 387832, Note_off_c, 3, 71, 64
1, 387832, Note_off_c, 3, 76, 64
1, 387832, Note_off_c, 4, 81, 0
1, 387832, Note_off_c, 12, 64, 0
1, 387832, Note_off_c, 12, 73, 0
1, 387840, Note_on_c, 0, 52, 22
1, 387840, Note_on_c, 0, 61, 22
1, 387840, Note_on_c, 7, 64, 70
1, 387840, Note_on_c, 7, 69, 73
1, 387840, Note_on_c, 7, 76, 74
1, 387840, Note_on_c, 8, 57, 100
1, 387840, Note_on_c, 8, 61, 100
1, 387840, Note_on_c, 12, 64, 22
1, 387840, Note_on_c, 12, 73, 22
1, 387840, Note_on_c, 13, 38, 100
1, 387840, Note_on_c, 13, 45, 100
1, 387984, Note_off_c, 1, 69, 0
1, 388080, Note_off_c, 7, 64, 0
1, 388086, Note_off_c, 7, 69, 0
1, 388100, Note_off_c, 7, 76, 0
1, 388122, Note_on_c, 10, 64, 66
1, 388122, Note_on_c, 10, 69, 63
1, 388122, Note_on_c, 10, 76, 74
1, 388132, Note_off_c, 8, 57, 0
1, 388132, Note_off_c, 8, 61, 0
1, 388132, Note_off_c, 13, 38, 0
1, 388132, Note_off_c, 13, 45, 0
1, 388312, Note_off_c, 0, 52, 64
1, 388312, Note_off_c, 0, 61, 64
1, 388312, Note_off_c, 12, 64, 0
1, 388312, Note_off_c, 12, 73, 0
1, 388320, Note_on_c, 0, 52, 16
1, 388320, Note_on_c, 0, 61, 16
1, 388320, Note_on_c, 1, 64, 70
1, 388320, Note_on_c, 2, 73, 100
1, 388320, Note_on_c, 2, 81, 100
1, 388320, Note_on_c, 3, 73, 100
1, 388320, Note_on_c, 3, 76, 100
1, 388320, Note_on_c, 4, 83, 100
1, 388320, Note_on_c, 6, 64, 73
1, 388320, Note_on_c, 6, 69, 82
1, 388320, Note_on_c, 6, 76, 77
1, 388320, Note_on_c, 8, 38, 100
1, 388320, Note_on_c, 8, 45, 100
1, 388320, Note_on_c, 12, 64, 16
1, 388320, Note_on_c, 12, 73, 16
1, 388320, Note_on_c, 13, 57, 100
1, 388320, Note_on_c, 13, 61, 100
1, 388352, Note_off_c, 10, 69, 0
1, 388358, Note_off_c, 10, 64, 0
1, 388396, Note_off_c, 10, 76, 0
1, 388598, Note_off_c, 6, 69, 0
1, 388610, Note_off_c, 6, 64, 0
1, 388612, Note_off_c, 8, 38, 0
1, 388612, Note_off_c, 8, 45, 0
1, 388612, Note_off_c, 13, 57, 0
1, 388612, Note_off_c, 13, 61, 0
1, 388618, Note_off_c, 6, 76, 0
1, 388792, Note_off_c, 0, 52, 64
1, 388792, Note_off_c, 0, 61, 64
1, 388792, Note_off_c, 2, 73, 64
1, 388792, Note_off_c, 2, 81, 64
1, 388792, Note_off_c, 3, 73, 64
1, 388792, Note_off_c, 3, 76, 64
1, 388792, Note_off_c, 4, 83, 0
1, 388792, Note_off_c, 5, 50, 0
1, 388792, Note_off_c, 5, 57, 0
1, 388792, Note_off_c, 12, 64, 0
1, 388792, Note_off_c, 12, 73, 0
1, 388800, Note_on_c, 0, 52, 11
1, 388800, Note_on_c, 0, 61, 11
1, 388800, Note_on_c, 1, 66, 77
1, 388800, Note_on_c, 2, 69, 100
1, 388800, Note_on_c, 2, 78, 100
1, 388800, Note_on_c, 3, 64, 100
1, 388800, Note_on_c, 3, 69, 100
1, 388800, Note_on_c, 4, 80, 100
1, 388800, Note_on_c, 5, 52, 100
1, 388800, Note_on_c, 5, 57, 100
1, 388800, Note_on_c, 7, 64, 72
1, 388800, Note_on_c, 7, 69, 77
1, 388800, Note_on_c, 7, 76, 75
1, 388800, Note_on_c, 8, 59, 100
1, 388800, Note_on_c, 8, 61, 100
1, 388800, Note_on_c, 12, 64, 11
1, 388800, Note_on_c, 12, 73, 11
1, 388800, Note_on_c, 13, 40, 100
1, 388800, Note_on_c, 13, 45, 100
1, 388952, Note_off_c, 1, 64, 0
1, 389008, Note_off_c, 7, 69, 0
1, 389022, Note_off_c, 7, 64, 0
1, 389042, Note_off_c, 7, 76, 0
1, 389082, Note_on_c, 10, 64, 68
1, 389082, Note_on_c, 10, 69, 74
1, 389082, Note_on_c, 10, 76, 74
1, 389092, Note_off_c, 8, 59, 0
1, 389092, Note_off_c, 8, 61, 0
1, 389092, Note_off_c, 13, 40, 0
1, 389092, Note_off_c, 13, 45, 0
1, 389272, Note_off_c, 0, 52, 64
1, 389272, Note_off_c, 0, 61, 64
1, 389272, Note_off_c, 2, 69, 64
1, 389272, Note_off_c, 2, 78, 64
1, 389272, Note_off_c, 3, 64, 64
1, 389272, Note_off_c, 3, 69, 64
1, 389272, Note_off_c, 4, 80, 0
1, 389272, Note_off_c, 12, 64, 0
1, 389272, Note_off_c, 12, 73, 0
1, 389280, Note_on_c, 0, 52, 5
1, 389280, Note_on_c, 0, 61, 5
1, 389280, Note_on_c, 6, 64, 72
1, 389280, Note_on_c, 6, 69, 75
1, 389280, Note_on_c, 6, 76, 73
1, 389280, Note_on_c, 8, 40, 100
1, 389280, Note_on_c, 8, 45, 100
1, 389280, Note_on_c, 12, 64, 5
1, 389280, Note_on_c, 12, 73, 5
1, 389280, Note_on_c, 13, 59, 100
1, 389280, Note_on_c, 13, 61, 100
1, 389342, Note_off_c, 10, 69, 0
1, 389372, Note_off_c, 10, 76, 0
1, 389376, Note_off_c, 10, 64, 0
1, 389444, Note_off_c, 1, 66, 0
1, 389568, Note_off_c, 6, 76, 0
1, 389570, Note_off_c, 6, 69, 0
1, 389572, Note_off_c, 8, 40, 0
1, 389572, Note_off_c, 8, 45, 0
1, 389572, Note_off_c, 13, 59, 0
1, 389572, Note_off_c, 13, 61, 0
1, 389578, Note_off_c, 6, 64, 0
1, 389752, Note_off_c, 0, 52, 64
1, 389752, Note_off_c, 0, 61, 64
1, 389752, Note_off_c, 12, 64, 0
1, 389752, Note_off_c, 12, 73, 0
1, 389760, Note_on_c, 1, 59, 65
1, 389760, Note_on_c, 2, 71, 100
1, 389760, Note_on_c, 2, 80, 100
1, 389760, Note_on_c, 3, 71, 100
1, 389760, Note_on_c, 3, 76, 100
1, 389760, Note_on_c, 4, 80, 100
1, 389760, Note_on_c, 7, 64, 70
1, 389760, Note_on_c, 7, 69, 78
1, 389760, Note_on_c, 7, 76, 77
1, 389760, Note_on_c, 8, 59, 100
1, 389760, Note_on_c, 8, 61, 100
1, 389760, Note_on_c, 13, 40, 100
1, 389760, Note_on_c, 13, 45, 100
1, 390002, Note_off_c, 7, 64, 0
1, 390024, Note_off_c, 7, 76, 0
1, 390042, Note_on_c, 10, 64, 73
1, 390042, Note_on_c, 10, 69, 82
1, 390042, Note_on_c, 10, 76, 77
1, 390048, Note_off_c, 7, 69, 0
1, 390052, Note_off_c, 8, 59, 0
1, 390052, Note_off_c, 8, 61, 0
1, 390052, Note_off_c, 13, 40, 0
1, 390052, Note_off_c, 13, 45, 0
1, 390232, Note_off_c, 2, 71, 64
1, 390232, Note_off_c, 2, 80, 64
1, 390232, Note_off_c, 3, 71, 64
1, 390232, Note_off_c, 3, 76, 64
1, 390232, Note_off_c, 4, 80, 0
1, 390240, Note_on_c, 1, 69, 74
1, 390240, Note_on_c, 2, 69, 100
1, 390240, Note_on_c, 2, 78, 100
1, 390240, Note_on_c, 3, 66, 100
1, 390240, Note_on_c, 3, 69, 100
1, 390240, Note_on_c, 4, 81, 100
1, 390240, Note_on_c, 6, 64, 69
1, 390240, Note_on_c, 6, 69, 70
1, 390240, Note_on_c, 6, 76, 72
1, 390240, Note_on_c, 8, 40, 100
1, 390240, Note_on_c, 8, 45, 100
1, 390240, Note_on_c, 13, 59, 100
1, 390240, Note_on_c, 13, 61, 100
1, 390320, Note_off_c, 10, 69, 0
1, 390332, Note_off_c, 10, 64, 0
1, 390334, Note_off_c, 1, 59, 0
1, 390340, Note_off_c, 10, 76, 0
1, 390504, Note_off_c, 6, 69, 0
1, 390528, Note_off_c, 6, 64, 0
1, 390532, Note_off_c, 8, 40, 0
1, 390532, Note_off_c, 8, 45, 0
1, 390532, Note_off_c, 13, 59, 0
1, 390532, Note_off_c, 13, 61, 0
1, 390544, Note_off_c, 6, 76, 0
1, 390712, Note_off_c, 2, 69, 64
1, 390712, Note_off_c, 2, 78, 64
1, 390712, Note_off_c, 3, 66, 64
1, 390712, Note_off_c, 3, 69, 64
1, 390712, Note_off_c, 4, 81, 0
1, 390720, Note_on_c, 1, 64, 68
1, 390720, Note_on_c, 2, 73, 100
1, 390720, Note_on_c, 2, 81, 100
1, 390720, Note_on_c, 3, 73, 100
1, 390720, Note_on_c, 3, 76, 100
1, 390720, Note_on_c, 4, 85, 100
1, 390720, Note_on_c, 7, 64, 70
1, 390720, Note_on_c, 7, 69, 72
1, 390720, Note_on_c, 7, 76, 77
1, 390720, Note_on_c, 8, 59, 100
1, 390720, Note_on_c, 8, 61, 100
1, 390720, Note_on_c, 13, 40, 100
1, 390720, Note_on_c, 13, 45, 100
1, 390932, Note_off_c, 1, 69, 0
1, 390974, Note_off_c, 7, 64, 0
1, 390986, Note_off_c, 7, 69, 0
1, 391002, Note_on_c, 10, 64, 72
1, 391002, Note_on_c, 10, 69, 75
1, 391002, Note_on_c, 10, 76, 73
1, 391012, Note_off_c, 8, 59, 0
1, 391012, Note_off_c, 8, 61, 0
1, 391012, Note_off_c, 13, 40, 0
1, 391012, Note_off_c, 13, 45, 0
1, 391042, Note_off_c, 7, 76, 0
1, 391192, Note_off_c, 2, 73, 64
1, 391192, Note_off_c, 2, 81, 64
1, 391192, Note_off_c, 3, 73, 64
1, 391192, Note_off_c, 3, 76, 64
1, 391192, Note_off_c, 4, 85, 0
1, 391200, Note_on_c, 6, 64, 68
1, 391200, Note_on_c, 6, 69, 77
1, 391200, Note_on_c, 6, 76, 73
1, 391200, Note_on_c, 8, 40, 100
1, 391200, Note_on_c, 8, 45, 100
1, 391200, Note_on_c, 13, 59, 100
1, 391200, Note_on_c, 13, 61, 100
1, 391290, Note_off_c, 10, 76, 0
1, 391292, Note_off_c, 10, 69, 0
1, 391300, Note_off_c, 10, 64, 0
1, 391334, Note_off_c, 1, 64, 0
1, 391466, Note_off_c, 6, 64, 0
1, 391484, Note_off_c, 6, 69, 0
1, 391484, Note_off_c, 6, 76, 0
1, 391492, Note_off_c, 8, 40, 0
1, 391492, Note_off_c, 8, 45, 0
1, 391492, Note_off_c, 13, 59, 0
1, 391492, Note_off_c, 13, 61, 0
1, 391680, Note_on_c, 1, 66, 77
1, 391680, Note_on_c, 2, 71, 100
1, 391680, Note_on_c, 2, 80, 100
1, 391680, Note_on_c, 3, 71, 100
1, 391680, Note_on_c, 3, 76, 100
1, 391680, Note_on_c, 4, 83, 100
1, 391680, Note_on_c, 7, 64, 73
1, 391680, Note_on_c, 7, 69, 77
1, 391680, Note_on_c, 7, 76, 74
1, 391680, Note_on_c, 8, 59, 100
1, 391680, Note_on_c, 8, 61, 100
1, 391680, Note_on_c, 13, 40, 100
1, 391680, Note_on_c, 13, 45, 100
1, 391962, Note_on_c, 10, 64, 69
1, 391962, Note_on_c, 10, 69, 70
1, 391962, Note_on_c, 10, 76, 72
1, 391964, Note_off_c, 7, 69, 0
1, 391972, Note_off_c, 8, 59, 0
1, 391972, Note_off_c, 8, 61, 0
1, 391972, Note_off_c, 13, 40, 0
1, 391972, Note_off_c, 13, 45, 0
1, 391996, Note_off_c, 7, 76, 0
1, 392002, Note_off_c, 7, 64, 0
1, 392152, Note_off_c, 2, 71, 64
1, 392152, Note_off_c, 2, 80, 64
1, 392152, Note_off_c, 3, 71, 64
1, 392152, Note_off_c, 3, 76, 64
1, 392152, Note_off_c, 4, 83, 0
1, 392160, Note_on_c, 1, 61, 70
1, 392160, Note_on_c, 2, 69, 100
1, 392160, Note_on_c, 2, 78, 100
1, 392160, Note_on_c, 3, 64, 100
1, 392160, Note_on_c, 3, 69, 100
1, 392160, Note_on_c, 4, 80, 100
1, 392160, Note_on_c, 6, 64, 72
1, 392160, Note_on_c, 6, 69, 52
1, 392160, Note_on_c, 6, 76, 72
1, 392160, Note_on_c, 8, 40, 100
1, 392160, Note_on_c, 8, 45, 100
1, 392160, Note_on_c, 13, 59, 100
1, 392160, Note_on_c, 13, 61, 100
1, 392226, Note_off_c, 10, 69, 0
1, 392250, Note_off_c, 10, 64, 0
1, 392266, Note_off_c, 10, 76, 0
1, 392312, Note_off_c, 6, 69, 0
1, 392322, Note_off_c, 1, 66, 0
1, 392400, Note_off_c, 6, 64, 0
1, 392406, Note_off_c, 6, 76, 0
1, 392452, Note_off_c, 8, 40, 0
1, 392452, Note_off_c, 8, 45, 0
1, 392452, Note_off_c, 13, 59, 0
1, 392452, Note_off_c, 13, 61, 0
1, 392632, Note_off_c, 2, 69, 64
1, 392632, Note_off_c, 2, 78, 64
1, 392632, Note_off_c, 3, 64, 64
1, 392632, Note_off_c, 3, 69, 64
1, 392632, Note_off_c, 4, 80, 0
1, 392640, Note_on_c, 0, 57, 8
1, 392640, Note_on_c, 0, 64, 8
1, 392640, Note_on_c, 7, 64, 68
1, 392640, Note_on_c, 7, 69, 70
1, 392640, Note_on_c, 7, 76, 72
1, 392640, Note_on_c, 8, 59, 100
1, 392640, Note_on_c, 8, 61, 100
1, 392640, Note_on_c, 12, 69, 8
1, 392640, Note_on_c, 12, 76, 8
1, 392640, Note_on_c, 13, 40, 100
1, 392640, Note_on_c, 13, 45, 100
1, 392788, Note_off_c, 1, 61, 0
1, 392922, Note_on_c, 10, 64, 68
1, 392922, Note_on_c, 10, 69, 77
1, 392922, Note_on_c, 10, 76, 73
1, 392930, Note_off_c, 7, 69, 0
1, 392932, Note_off_c, 8, 59, 0
1, 392932, Note_off_c, 8, 61, 0
1, 392932, Note_off_c, 13, 40, 0
1, 392932, Note_off_c, 13, 45, 0
1, 392948, Note_off_c, 7, 76, 0
1, 392954, Note_off_c, 7, 64, 0
1, 393112, Note_off_c, 0, 57, 64
1, 393112, Note_off_c, 0, 64, 64
1, 393112, Note_off_c, 12, 69, 0
1, 393112, Note_off_c, 12, 76, 0
1, 393120, Note_on_c, 0, 57, 13
1, 393120, Note_on_c, 0, 64, 13
1, 393120, Note_on_c, 1, 69, 77
1, 393120, Note_on_c, 2, 71, 100
1, 393120, Note_on_c, 2, 80, 100
1, 393120, Note_on_c, 3, 71, 100
1, 393120, Note_on_c, 3, 76, 100
1, 393120, Note_on_c, 4, 81, 100
1, 393120, Note_on_c, 6, 64, 68
1, 393120, Note_on_c, 6, 69, 70
1, 393120, Note_on_c, 6, 76, 74
1, 393120, Note_on_c, 8, 40, 100
1, 393120, Note_on_c, 8, 45, 100
1, 393120, Note_on_c, 12, 69, 13
1, 393120, Note_on_c, 12, 76, 13
1, 393120, Note_on_c, 13, 59, 100
1, 393120, Note_on_c, 13, 61, 100
1, 393188, Note_off_c, 10, 64, 0
1, 393206, Note_off_c, 10, 69, 0
1, 393206, Note_off_c, 10, 76, 0
1, 393352, Note_off_c, 6, 69, 0
1, 393362, Note_off_c, 6, 64, 0
1, 393370, Note_off_c, 6, 76, 0
1, 393412, Note_off_c, 8, 40, 0
1, 393412, Note_off_c, 8, 45, 0
1, 393412, Note_off_c, 13, 59, 0
1, 393412, Note_off_c, 13, 61, 0
1, 393592, Note_off_c, 0, 57, 64
1, 393592, Note_off_c, 0, 64, 64
1, 393592, Note_off_c, 2, 71, 64
1, 393592, Note_off_c, 2, 80, 64
1, 393592, Note_off_c, 3, 71, 64
1, 393592, Note_off_c, 3, 76, 64
1, 393592, Note_off_c, 4, 81, 0
1, 393592, Note_off_c, 12, 69, 0
1, 393592, Note_off_c, 12, 76, 0
1, 393600, Note_on_c, 0, 57, 19
1, 393600, Note_on_c, 0, 64, 19
1, 393600, Note_on_c, 7, 64, 68
1, 393600, Note_on_c, 7, 69, 70
1, 393600, Note_on_c, 7, 76, 73
1, 393600, Note_on_c, 8, 59, 100
1, 393600, Note_on_c, 8, 61, 100
1, 393600, Note_on_c, 12, 69, 19
1, 393600, Note_on_c, 12, 76, 19
1, 393600, Note_on_c, 13, 40, 100
1, 393600, Note_on_c, 13, 45, 100
1, 393768, Note_off_c, 1, 69, 0
1, 393848, Note_off_c, 7, 64, 0
1, 393862, Note_off_c, 7, 69, 0
1, 393862, Note_off_c, 7, 76, 0
1, 393882, Note_on_c, 10, 64, 72
1, 393882, Note_on_c, 10, 69, 52
1, 393882, Note_on_c, 10, 76, 72
1, 393892, Note_off_c, 8, 59, 0
1, 393892, Note_off_c, 8, 61, 0
1, 393892, Note_off_c, 13, 40, 0
1, 393892, Note_off_c, 13, 45, 0
1, 394034, Note_off_c, 10, 69, 0
1, 394072, Note_off_c, 0, 57, 64
1, 394072, Note_off_c, 0, 64, 64
1, 394072, Note_off_c, 12, 69, 0
1, 394072, Note_off_c, 12, 76, 0
1, 394080, Note_on_c, 0, 57, 22
1, 394080, Note_on_c, 0, 64, 22
1, 394080, Note_on_c, 1, 64, 68
1, 394080, Note_on_c, 2, 73, 100
1, 394080, Note_on_c, 2, 81, 100
1, 394080, Note_on_c, 3, 73, 100
1, 394080, Note_on_c, 3, 76, 100
1, 394080, Note_on_c, 4, 83, 100
1, 394080, Note_on_c, 6, 64, 68
1, 394080, Note_on_c, 6, 69, 69
1, 394080, Note_on_c, 6, 76, 72
1, 394080, Note_on_c, 8, 40, 100
1, 394080, Note_on_c, 8, 45, 100
1, 394080, Note_on_c, 12, 69, 22
1, 394080, Note_on_c, 12, 76, 22
1, 394080, Note_on_c, 13, 59, 100
1, 394080, Note_on_c, 13, 61, 100
1, 394122, Note_off_c, 10, 64, 0
1, 394128, Note_off_c, 10, 76, 0
1, 394296, Note_off_c, 6, 76, 0
1, 394298, Note_off_c, 6, 69, 0
1, 394312, Note_off_c, 6, 64, 0
1, 394372, Note_off_c, 8, 40, 0
1, 394372, Note_off_c, 8, 45, 0
1, 394372, Note_off_c, 13, 59, 0
1, 394372, Note_off_c, 13, 61, 0
1, 394524, Note_off_c, 1, 64, 0
1, 394552, Note_off_c, 0, 57, 64
1, 394552, Note_off_c, 0, 64, 64
1, 394552, Note_off_c, 2, 73, 64
1, 394552, Note_off_c, 2, 81, 64
1, 394552, Note_off_c, 3, 73, 64
1, 394552, Note_off_c, 3, 76, 64
1, 394552, Note_off_c, 4, 83, 0
1, 394552, Note_off_c, 5, 52, 0
1, 394552, Note_off_c, 5, 57, 0
1, 394552, Note_off_c, 12, 69, 0
1, 394552, Note_off_c, 12, 76, 0
1, 394560, Note_on_c, 0, 57, 27
1, 394560, Note_on_c, 0, 64, 27
1, 394560, Note_on_c, 1, 66, 78
1, 394560, Note_on_c, 2, 69, 100
1, 394560, Note_on_c, 2, 78, 100
1, 394560, Note_on_c, 3, 64, 100
1, 394560, Note_on_c, 3, 69, 100
1, 394560, Note_on_c, 4, 80, 100
1, 394560, Note_on_c, 5, 50, 100
1, 394560, Note_on_c, 5, 57, 100
1, 394560, Note_on_c, 7, 64, 70
1, 394560, Note_on_c, 7, 69, 83
1, 394560, Note_on_c, 7, 76, 74
1, 394560, Note_on_c, 8, 57, 100
1, 394560, Note_on_c, 8, 61, 100
1, 394560, Note_on_c, 12, 69, 27
1, 394560, Note_on_c, 12, 76, 27
1, 394560, Note_on_c, 13, 38, 100
1, 394560, Note_on_c, 13, 45, 100
1, 394800, Note_off_c, 7, 64, 0
1, 394800, Note_off_c, 7, 76, 0
1, 394810, Note_off_c, 7, 69, 0
1, 394842, Note_on_c, 10, 64, 68
1, 394842, Note_on_c, 10, 69, 70
1, 394842, Note_on_c, 10, 76, 74
1, 394852, Note_off_c, 8, 57, 0
1, 394852, Note_off_c, 8, 61, 0
1, 394852, Note_off_c, 13, 38, 0
1, 394852, Note_off_c, 13, 45, 0
1, 395032, Note_off_c, 0, 57, 64
1, 395032, Note_off_c, 0, 64, 64
1, 395032, Note_off_c, 2, 69, 64
1, 395032, Note_off_c, 2, 78, 64
1, 395032, Note_off_c, 3, 64, 64
1, 395032, Note_off_c, 3, 69, 64
1, 395032, Note_off_c, 4, 80, 0
1, 395032, Note_off_c, 12, 69, 0
1, 395032, Note_off_c, 12, 76, 0
1, 395040, Note_on_c, 0, 57, 33
1, 395040, Note_on_c, 0, 64, 33
1, 395040, Note_on_c, 6, 64, 67
1, 395040, Note_on_c, 6, 69, 67
1, 395040, Note_on_c, 6, 76, 72
1, 395040, Note_on_c, 8, 38, 100
1, 395040, Note_on_c, 8, 45, 100
1, 395040, Note_on_c, 12, 69, 33
1, 395040, Note_on_c, 12, 76, 33
1, 395040, Note_on_c, 13, 57, 100
1, 395040, Note_on_c, 13, 61, 100
1, 395074, Note_off_c, 10, 69, 0
1, 395084, Note_off_c, 10, 64, 0
1, 395092, Note_off_c, 10, 76, 0
1, 395228, Note_off_c, 1, 66, 0
1, 395286, Note_off_c, 6, 64, 0
1, 395290, Note_off_c, 6, 69, 0
1, 395306, Note_off_c, 6, 76, 0
1, 395332, Note_off_c, 8, 38, 0
1, 395332, Note_off_c, 8, 45, 0
1, 395332, Note_off_c, 13, 57, 0
1, 395332, Note_off_c, 13, 61, 0
1, 395512, Note_off_c, 0, 57, 64
1, 395512, Note_off_c, 0, 64, 64
1, 395512, Note_off_c, 12, 69, 0
1, 395512, Note_off_c, 12, 76, 0
1, 395520, Note_on_c, 0, 57, 38
1, 395520, Note_on_c, 0, 64, 38
1, 395520, Note_on_c, 1, 59, 74
1, 395520, Note_on_c, 2, 71, 100
1, 395520, Note_on_c, 2, 80, 100
1, 395520, Note_on_c, 3, 71, 100
1, 395520, Note_on_c, 3, 76, 100
1, 395520, Note_on_c, 4, 80, 100
1, 395520, Note_on_c, 7, 64, 67
1, 395520, Note_on_c, 7, 69, 78
1, 395520, Note_on_c, 7, 76, 73
1, 395520, Note_on_c, 8, 57, 100
1, 395520, Note_on_c, 8, 61, 100
1, 395520, Note_on_c, 12, 69, 38
1, 395520, Note_on_c, 12, 76, 38
1, 395520, Note_on_c, 13, 38, 100
1, 395520, Note_on_c, 13, 45, 100
1, 395770, Note_off_c, 7, 76, 0
1, 395776, Note_off_c, 7, 69, 0
1, 395784, Note_off_c, 7, 64, 0
1, 395802, Note_on_c, 10, 64, 68
1, 395802, Note_on_c, 10, 69, 69
1, 395802, Note_on_c, 10, 76, 72
1, 395812, Note_off_c, 8, 57, 0
1, 395812, Note_off_c, 8, 61, 0
1, 395812, Note_off_c, 13, 38, 0
1, 395812, Note_off_c, 13, 45, 0
1, 395992, Note_off_c, 0, 57, 64
1, 395992, Note_off_c, 0, 64, 64
1, 395992, Note_off_c, 2, 71, 64
1, 395992, Note_off_c, 2, 80, 64
1, 395992, Note_off_c, 3, 71, 64
1, 395992, Note_off_c, 3, 76, 64
1, 395992, Note_off_c, 4, 80, 0
1, 395992, Note_off_c, 12, 69, 0
1, 395992, Note_off_c, 12, 76, 0
1, 396000, Note_on_c, 0, 57, 41
1, 396000, Note_on_c, 0, 64, 41
1, 396000, Note_on_c, 1, 69, 75
1, 396000, Note_on_c, 2, 69, 100
1, 396000, Note_on_c, 2, 78, 100
1, 396000, Note_on_c, 3, 66, 100
1, 396000, Note_on_c, 3, 69, 100
1, 396000, Note_on_c, 4, 81, 100
1, 396000, Note_on_c, 6, 64, 67
1, 396000, Note_on_c, 6, 69, 63
1, 396000, Note_on_c, 6, 76, 72
1, 396000, Note_on_c, 8, 38, 100
1, 396000, Note_on_c, 8, 45, 100
1, 396000, Note_on_c, 12, 69, 41
1, 396000, Note_on_c, 12, 76, 41
1, 396000, Note_on_c, 13, 57, 100
1, 396000, Note_on_c, 13, 61, 100
1, 396008, Note_off_c, 1, 59, 0
1, 396018, Note_off_c, 10, 76, 0
1, 396020, Note_off_c, 10, 69, 0
1, 396034, Note_off_c, 10, 64, 0
1, 396248, Note_off_c, 6, 69, 0
1, 396276, Note_off_c, 6, 64, 0
1, 396292, Note_off_c, 6, 76, 0
1, 396292, Note_off_c, 8, 38, 0
1, 396292, Note_off_c, 8, 45, 0
1, 396292, Note_off_c, 13, 57, 0
1, 396292, Note_off_c, 13, 61, 0
1, 396472, Note_off_c, 0, 57, 64
1, 396472, Note_off_c, 0, 64, 64
1, 396472, Note_off_c, 2, 69, 64
1, 396472, Note_off_c, 2, 78, 64
1, 396472, Note_off_c, 3, 66, 64
1, 396472, Note_off_c, 3, 69, 64
1, 396472, Note_off_c, 4, 81, 0
1, 396472, Note_off_c, 12, 69, 0
1, 396472, Note_off_c, 12, 76, 0
1, 396480, Note_on_c, 0, 57, 46
1, 396480, Note_on_c, 0, 64, 46
1, 396480, Note_on_c, 1, 64, 73
1, 396480, Note_on_c, 2, 73, 100
1, 396480, Note_on_c, 2, 81, 100
1, 396480, Note_on_c, 3, 73, 100
1, 396480, Note_on_c, 3, 76, 100
1, 396480, Note_on_c, 4, 85, 100
1, 396480, Note_on_c, 7, 64, 69
1, 396480, Note_on_c, 7, 69, 70
1, 396480, Note_on_c, 7, 76, 73
1, 396480, Note_on_c, 8, 57, 100
1, 396480, Note_on_c, 8, 61, 100
1, 396480, Note_on_c, 12, 69, 46
1, 396480, Note_on_c, 12, 76, 46
1, 396480, Note_on_c, 13, 38, 100
1, 396480, Note_on_c, 13, 45, 100
1, 396606, Note_off_c, 1, 69, 0
1, 396700, Note_off_c, 7, 69, 0
1, 396722, Note_off_c, 7, 76, 0
1, 396732, Note_off_c, 7, 64, 0
1, 396762, Note_on_c, 10, 64, 67
1, 396762, Note_on_c, 10, 69, 67
1, 396762, Note_on_c, 10, 76, 72
1, 396772, Note_off_c, 8, 57, 0
1, 396772, Note_off_c, 8, 61, 0
1, 396772, Note_off_c, 13, 38, 0
1, 396772, Note_off_c, 13, 45, 0
1, 396952, Note_off_c, 0, 57, 64
1, 396952, Note_off_c, 0, 64, 64
1, 396952, Note_off_c, 2, 73, 64
1, 396952, Note_off_c, 2, 81, 64
1, 396952, Note_off_c, 3, 73, 64
1, 396952, Note_off_c, 3, 76, 64
1, 396952, Note_off_c, 4, 85, 0
1, 396952, Note_off_c, 12, 69, 0
1, 396952, Note_off_c, 12, 76, 0
1, 396960, Note_on_c, 0, 57, 52
1, 396960, Note_on_c, 0, 64, 52
1, 396960, Note_on_c, 6, 64, 68
1, 396960, Note_on_c, 6, 69, 66
1, 396960, Note_on_c, 6, 76, 70
1, 396960, Note_on_c, 8, 38, 100
1, 396960, Note_on_c, 8, 45, 100
1, 396960, Note_on_c, 12, 69, 52
1, 396960, Note_on_c, 12, 76, 52
1, 396960, Note_on_c, 13, 57, 100
1, 396960, Note_on_c, 13, 61, 100
1, 397008, Note_off_c, 10, 64, 0
1, 397012, Note_off_c, 10, 69, 0
1, 397028, Note_off_c, 10, 76, 0
1, 397156, Note_off_c, 6, 69, 0
1, 397180, Note_off_c, 6, 64, 0
1, 397186, Note_off_c, 1, 64, 0
1, 397198, Note_off_c, 6, 76, 0
1, 397252, Note_off_c, 8, 38, 0
1, 397252, Note_off_c, 8, 45, 0
1, 397252, Note_off_c, 13, 57, 0
1, 397252, Note_off_c, 13, 61, 0
1, 397432, Note_off_c, 0, 57, 64
1, 397432, Note_off_c, 0, 64, 64
1, 397432, Note_off_c, 5, 50, 0
1, 397432, Note_off_c, 5, 57, 0
1, 397432, Note_off_c, 12, 69, 0
1, 397432, Note_off_c, 12, 76, 0
1, 397440, Note_on_c, 0, 57, 57
1, 397440, Note_on_c, 0, 64, 57
1, 397440, Note_on_c, 1, 66, 68
1, 397440, Note_on_c, 2, 71, 100
1, 397440, Note_on_c, 2, 80, 100
1, 397440, Note_on_c, 3, 71, 100
1, 397440, Note_on_c, 3, 76, 100
1, 397440, Note_on_c, 4, 83, 100
1, 397440, Note_on_c, 5, 52, 100
1, 397440, Note_on_c, 5, 57, 100
1, 397440, Note_on_c, 7, 64, 69
1, 397440, Note_on_c, 7, 69, 75
1, 397440, Note_on_c, 7, 76, 73
1, 397440, Note_on_c, 8, 59, 100
1, 397440, Note_on_c, 8, 61, 100
1, 397440, Note_on_c, 12, 69, 57
1, 397440, Note_on_c, 12, 76, 57
1, 397440, Note_on_c, 13, 40, 100
1, 397440, Note_on_c, 13, 45, 100
1, 397654, Note_off_c, 7, 69, 0
1, 397670, Note_off_c, 7, 64, 0
1, 397684, Note_off_c, 7, 76, 0
1, 397722, Note_on_c, 10, 64, 67
1, 397722, Note_on_c, 10, 69, 63
1, 397722, Note_on_c, 10, 76, 72
1, 397732, Note_off_c, 8, 59, 0
1, 397732, Note_off_c, 8, 61, 0
1, 397732, Note_off_c, 13, 40, 0
1, 397732, Note_off_c, 13, 45, 0
1, 397912, Note_off_c, 0, 57, 64
1, 397912, Note_off_c, 0, 64, 64
1, 397912, Note_off_c, 2, 71, 64
1, 397912, Note_off_c, 2, 80, 64
1, 397912, Note_off_c, 3, 71, 64
1, 397912, Note_off_c, 3, 76, 64
1, 397912, Note_off_c, 4, 83, 0
1, 397912, Note_off_c, 12, 69, 0
1, 397912, Note_off_c, 12, 76, 0
1, 397920, Note_on_c, 0, 57, 60
1, 397920, Note_on_c, 0, 64, 60
1, 397920, Note_on_c, 1, 61, 68
1, 397920, Note_on_c, 2, 69, 100
1, 397920, Note_on_c, 2, 78, 100
1, 397920, Note_on_c, 3, 64, 100
1, 397920, Note_on_c, 3, 69, 100
1, 397920, Note_on_c, 4, 80, 100
1, 397920, Note_on_c, 6, 64, 68
1, 397920, Note_on_c, 6, 69, 63
1, 397920, Note_on_c, 6, 76, 72
1, 397920, Note_on_c, 8, 40, 100
1, 397920, Note_on_c, 8, 45, 100
1, 397920, Note_on_c, 12, 69, 60
1, 397920, Note_on_c, 12, 76, 60
1, 397920, Note_on_c, 13, 59, 100
1, 397920, Note_on_c, 13, 61, 100
1, 397956, Note_off_c, 1, 66, 0
1, 397970, Note_off_c, 10, 69, 0
1, 397998, Note_off_c, 10, 64, 0
1, 398014, Note_off_c, 10, 76, 0
1, 398130, Note_off_c, 6, 64, 0
1, 398164, Note_off_c, 6, 76, 0
1, 398182, Note_off_c, 6, 69, 0
1, 398212, Note_off_c, 8, 40, 0
1, 398212, Note_off_c, 8, 45, 0
1, 398212, Note_off_c, 13, 59, 0
1, 398212, Note_off_c, 13, 61, 0
1, 398392, Note_off_c, 0, 57, 64
1, 398392, Note_off_c, 0, 64, 64
1, 398392, Note_off_c, 2, 69, 64
1, 398392, Note_off_c, 2, 78, 64
1, 398392, Note_off_c, 3, 64, 64
1, 398392, Note_off_c, 3, 69, 64
1, 398392, Note_off_c, 4, 80, 0
1, 398392, Note_off_c, 12, 69, 0
1, 398392, Note_off_c, 12, 76, 0
1, 398400, Note_on_c, 0, 57, 66
1, 398400, Note_on_c, 0, 64, 66
1, 398400, Note_on_c, 7, 64, 68
1, 398400, Note_on_c, 7, 69, 74
1, 398400, Note_on_c, 7, 76, 74
1, 398400, Note_on_c, 8, 59, 100
1, 398400, Note_on_c, 8, 61, 100
1, 398400, Note_on_c, 12, 69, 66
1, 398400, Note_on_c, 12, 76, 66
1, 398400, Note_on_c, 13, 40, 100
1, 398400, Note_on_c, 13, 45, 100
1, 398624, Note_off_c, 7, 69, 0
1, 398664, Note_off_c, 7, 64, 0
1, 398674, Note_off_c, 7, 76, 0
1, 398682, Note_on_c, 10, 64, 68
1, 398682, Note_on_c, 10, 69, 66
1, 398682, Note_on_c, 10, 76, 70
1, 398690, Note_off_c, 1, 61, 0
1, 398692, Note_off_c, 8, 59, 0
1, 398692, Note_off_c, 8, 61, 0
1, 398692, Note_off_c, 13, 40, 0
1, 398692, Note_off_c, 13, 45, 0
1, 398872, Note_off_c, 0, 57, 64
1, 398872, Note_off_c, 0, 64, 64
1, 398872, Note_off_c, 12, 69, 0
1, 398872, Note_off_c, 12, 76, 0
1, 398878, Note_off_c, 10, 69, 0
1, 398880, Note_on_c, 0, 57, 71
1, 398880, Note_on_c, 0, 64, 71
1, 398880, Note_on_c, 1, 69, 77
1, 398880, Note_on_c, 2, 71, 100
1, 398880, Note_on_c, 2, 80, 100
1, 398880, Note_on_c, 3, 71, 100
1, 398880, Note_on_c, 3, 76, 100
1, 398880, Note_on_c, 4, 81, 100
1, 398880, Note_on_c, 6, 64, 70
1, 398880, Note_on_c, 6, 69, 69
1, 398880, Note_on_c, 6, 76, 72
1, 398880, Note_on_c, 8, 40, 100
1, 398880, Note_on_c, 8, 45, 100
1, 398880, Note_on_c, 12, 69, 71
1, 398880, Note_on_c, 12, 76, 71
1, 398880, Note_on_c, 13, 59, 100
1, 398880, Note_on_c, 13, 61, 100
1, 398902, Note_off_c, 10, 64, 0
1, 398920, Note_off_c, 10, 76, 0
1, 399114, Note_off_c, 6, 69, 0
1, 399142, Note_off_c, 6, 64, 0
1, 399142, Note_off_c, 6, 76, 0
1, 399172, Note_off_c, 8, 40, 0
1, 399172, Note_off_c, 8, 45, 0
1, 399172, Note_off_c, 13, 59, 0
1, 399172, Note_off_c, 13, 61, 0
1, 399352, Note_off_c, 0, 57, 64
1, 399352, Note_off_c, 0, 64, 64
1, 399352, Note_off_c, 2, 71, 64
1, 399352, Note_off_c, 2, 80, 64
1, 399352, Note_off_c, 3, 71, 64
1, 399352, Note_off_c, 3, 76, 64
1, 399352, Note_off_c, 4, 81, 0
1, 399352, Note_off_c, 12, 69, 0
1, 399352, Note_off_c, 12, 76, 0
1, 399360, Note_on_c, 0, 57, 74
1, 399360, Note_on_c, 0, 64, 74
1, 399360, Note_on_c, 7, 64, 68
1, 399360, Note_on_c, 7, 69, 73
1, 399360, Note_on_c, 7, 76, 73
1, 399360, Note_on_c, 8, 59, 100
1, 399360, Note_on_c, 8, 61, 100
1, 399360, Note_on_c, 12, 69, 74
1, 399360, Note_on_c, 12, 76, 74
1, 399360, Note_on_c, 13, 40, 100
1, 399360, Note_on_c, 13, 45, 100
1, 399504, Note_off_c, 1, 69, 0
1, 399584, Note_off_c, 7, 64, 0
1, 399608, Note_off_c, 7, 69, 0
1, 399608, Note_off_c, 7, 76, 0
1, 399642, Note_on_c, 10, 64, 68
1, 399642, Note_on_c, 10, 69, 63
1, 399642, Note_on_c, 10, 76, 72
1, 399652, Note_off_c, 8, 59, 0
1, 399652, Note_off_c, 8, 61, 0
1, 399652, Note_off_c, 13, 40, 0
1, 399652, Note_off_c, 13, 45, 0
1, 399832, Note_off_c, 0, 57, 64
1, 399832, Note_off_c, 0, 64, 64
1, 399832, Note_off_c, 12, 69, 0
1, 399832, Note_off_c, 12, 76, 0
1, 399840, Note_on_c, 0, 57, 80
1, 399840, Note_on_c, 0, 64, 80
1, 399840, Note_on_c, 1, 64, 70
1, 399840, Note_on_c, 2, 73, 100
1, 399840, Note_on_c, 2, 81, 100
1, 399840, Note_on_c, 3, 73, 100
1, 399840, Note_on_c, 3, 76, 100
1, 399840, Note_on_c, 4, 83, 100
1, 399840, Note_on_c, 6, 64, 68
1, 399840, Note_on_c, 6, 69, 70
1, 399840, Note_on_c, 6, 76, 70
1, 399840, Note_on_c, 8, 40, 100
1, 399840, Note_on_c, 8, 45, 100
1, 399840, Note_on_c, 12, 69, 80
1, 399840, Note_on_c, 12, 76, 80
1, 399840, Note_on_c, 13, 59, 100
1, 399840, Note_on_c, 13, 61, 100
1, 399852, Note_off_c, 10, 64, 0
1, 399886, Note_off_c, 10, 76, 0
1, 399904, Note_off_c, 10, 69, 0
1, 400048, Note_off_c, 6, 64, 0
1, 400076, Note_off_c, 6, 69, 0
1, 400080, Note_off_c, 6, 76, 0
1, 400132, Note_off_c, 8, 40, 0
1, 400132, Note_off_c, 8, 45, 0
1, 400132, Note_off_c, 13, 59, 0
1, 400132, Note_off_c, 13, 61, 0
1, 400312, Note_off_c, 0, 57, 64
1, 400312, Note_off_c, 0, 64, 64
1, 400312, Note_off_c, 2, 73, 64
1, 400312, Note_off_c, 2, 81, 64
1, 400312, Note_off_c, 3, 73, 64
1, 400312, Note_off_c, 3, 76, 64
1, 400312, Note_off_c, 4, 83, 0
1, 400312, Note_off_c, 5, 52, 0
1, 400312, Note_off_c, 5, 57, 0
1, 400312, Note_off_c, 12, 69, 0
1, 400312, Note_off_c, 12, 76, 0
1, 400320, Note_on_c, 0, 57, 85
1, 400320, Note_on_c, 0, 64, 85
1, 400320, Note_on_c, 1, 66, 77
1, 400320, Note_on_c, 2, 69, 100
1, 400320, Note_on_c, 2, 78, 100
1, 400320, Note_on_c, 3, 64, 100
1, 400320, Note_on_c, 3, 69, 100
1, 400320, Note_on_c, 4, 80, 100
1, 400320, Note_on_c, 5, 50, 100
1, 400320, Note_on_c, 5, 57, 100
1, 400320, Note_on_c, 7, 64, 66
1, 400320, Note_on_c, 7, 69, 74
1, 400320, Note_on_c, 7, 76, 73
1, 400320, Note_on_c, 8, 57, 100
1, 400320, Note_on_c, 8, 61, 100
1, 400320, Note_on_c, 12, 69, 85
1, 400320, Note_on_c, 12, 76, 85
1, 400320, Note_on_c, 13, 38, 100
1, 400320, Note_on_c, 13, 45, 100
1, 400472, Note_off_c, 1, 64, 0
1, 400554, Note_off_c, 7, 64, 0
1, 400574, Note_off_c, 7, 76, 0
1, 400602, Note_off_c, 7, 69, 0
1, 400602, Note_on_c, 10, 64, 70
1, 400602, Note_on_c, 10, 69, 69
1, 400602, Note_on_c, 10, 76, 72
1, 400612, Note_off_c, 8, 57, 0
1, 400612, Note_off_c, 8, 61, 0
1, 400612, Note_off_c, 13, 38, 0
1, 400612, Note_off_c, 13, 45, 0
1, 400792, Note_off_c, 0, 57, 64
1, 400792, Note_off_c, 0, 64, 64
1, 400792, Note_off_c, 2, 69, 64
1, 400792, Note_off_c, 2, 78, 64
1, 400792, Note_off_c, 3, 64, 64
1, 400792, Note_off_c, 3, 69, 64
1, 400792, Note_off_c, 4, 80, 0
1, 400792, Note_off_c, 12, 69, 0
1, 400792, Note_off_c, 12, 76, 0
1, 400800, Note_on_c, 0, 57, 91
1, 400800, Note_on_c, 0, 64, 91
1, 400800, Note_on_c, 6, 64, 67
1, 400800, Note_on_c, 6, 69, 73
1, 400800, Note_on_c, 6, 76, 74
1, 400800, Note_on_c, 8, 38, 100
1, 400800, Note_on_c, 8, 45, 100
1, 400800, Note_on_c, 12, 69, 91
1, 400800, Note_on_c, 12, 76, 91
1, 400800, Note_on_c, 13, 57, 100
1, 400800, Note_on_c, 13, 61, 100
1, 400836, Note_off_c, 10, 69, 0
1, 400864, Note_off_c, 10, 64, 0
1, 400864, Note_off_c, 10, 76, 0
1, 400964, Note_off_c, 1, 66, 0
1, 401016, Note_off_c, 6, 64, 0
1, 401036, Note_off_c, 6, 76, 0
1, 401046, Note_off_c, 6, 69, 0
1, 401092, Note_off_c, 8, 38, 0
1, 401092, Note_off_c, 8, 45, 0
1, 401092, Note_off_c, 13, 57, 0
1, 401092, Note_off_c, 13, 61, 0
1, 401272, Note_off_c, 0, 57, 64
1, 401272, Note_off_c, 0, 64, 64
1, 401272, Note_off_c, 12, 69, 0
1, 401272, Note_off_c, 12, 76, 0
1, 401280, Note_on_c, 0, 57, 93
1, 401280, Note_on_c, 0, 64, 93
1, 401280, Note_on_c, 1, 59, 65
1, 401280, Note_on_c, 2, 71, 100
1, 401280, Note_on_c, 2, 80, 100
1, 401280, Note_on_c, 3, 71, 100
1, 401280, Note_on_c, 3, 76, 100
1, 401280, Note_on_c, 4, 80, 100
1, 401280, Note_on_c, 7, 64, 66
1, 401280, Note_on_c, 7, 69, 77
1, 401280, Note_on_c, 7, 76, 70
1, 401280, Note_on_c, 8, 57, 100
1, 401280, Note_on_c, 8, 61, 100
1, 401280, Note_on_c, 12, 69, 93
1, 401280, Note_on_c, 12, 76, 93
1, 401280, Note_on_c, 13, 38, 100
1, 401280, Note_on_c, 13, 45, 100
1, 401508, Note_off_c, 7, 64, 0
1, 401562, Note_on_c, 10, 64, 68
1, 401562, Note_on_c, 10, 69, 70
1, 401562, Note_on_c, 10, 76, 70
1, 401566, Note_off_c, 7, 69, 0
1, 401572, Note_off_c, 8, 57, 0
1, 401572, Note_off_c, 8, 61, 0
1, 401572, Note_off_c, 13, 38, 0
1, 401572, Note_off_c, 13, 45, 0
1, 401590, Note_off_c, 7, 76, 0
1, 401752, Note_off_c, 0, 57, 64
1, 401752, Note_off_c, 0, 64, 64
1, 401752, Note_off_c, 2, 71, 64
1, 401752, Note_off_c, 2, 80, 64
1, 401752, Note_off_c, 3, 71, 64
1, 401752, Note_off_c, 3, 76, 64
1, 401752, Note_off_c, 4, 80, 0
1, 401752, Note_off_c, 12, 69, 0
1, 401752, Note_off_c, 12, 76, 0
1, 401760, Note_on_c, 0, 57, 99
1, 401760, Note_on_c, 0, 64, 99
1, 401760, Note_on_c, 1, 69, 74
1, 401760, Note_on_c, 2, 69, 100
1, 401760, Note_on_c, 2, 78, 100
1, 401760, Note_on_c, 3, 66, 100
1, 401760, Note_on_c, 3, 69, 100
1, 401760, Note_on_c, 4, 81, 100
1, 401760, Note_on_c, 6, 64, 68
1, 401760, Note_on_c, 6, 69, 74
1, 401760, Note_on_c, 6, 76, 75
1, 401760, Note_on_c, 8, 38, 100
1, 401760, Note_on_c, 8, 45, 100
1, 401760, Note_on_c, 12, 69, 99
1, 401760, Note_on_c, 12, 76, 99
1, 401760, Note_on_c, 13, 57, 100
1, 401760, Note_on_c, 13, 61, 100
1, 401770, Note_off_c, 10, 64, 0
1, 401798, Note_off_c, 10, 69, 0
1, 401802, Note_off_c, 10, 76, 0
1, 401854, Note_off_c, 1, 59, 0
1, 402032, Note_off_c, 6, 69, 0
1, 402036, Note_off_c, 6, 64, 0
1, 402050, Note_off_c, 6, 76, 0
1, 402052, Note_off_c, 8, 38, 0
1, 402052, Note_off_c, 8, 45, 0
1, 402052, Note_off_c, 13, 57, 0
1, 402052, Note_off_c, 13, 61, 0
1, 402232, Note_off_c, 0, 57, 64
1, 402232, Note_off_c, 0, 64, 64
1, 402232, Note_off_c, 2, 69, 64
1, 402232, Note_off_c, 2, 78, 64
1, 402232, Note_off_c, 3, 66, 64
1, 402232, Note_off_c, 3, 69, 64
1, 402232, Note_off_c, 4, 81, 0
1, 402232, Note_off_c, 5, 50, 0
1, 402232, Note_off_c, 5, 57, 0
1, 402232, Note_off_c, 12, 69, 0
1, 402232, Note_off_c, 12, 76, 0
1, 402240, Note_on_c, 0, 57, 104
1, 402240, Note_on_c, 0, 64, 104
1, 402240, Note_on_c, 1, 64, 68
1, 402240, Note_on_c, 2, 73, 100
1, 402240, Note_on_c, 2, 81, 100
1, 402240, Note_on_c, 3, 73, 100
1, 402240, Note_on_c, 3, 76, 100
1, 402240, Note_on_c, 4, 85, 100
1, 402240, Note_on_c, 5, 52, 100
1, 402240, Note_on_c, 5, 57, 100
1, 402240, Note_on_c, 7, 64, 65
1, 402240, Note_on_c, 7, 69, 72
1, 402240, Note_on_c, 7, 76, 72
1, 402240, Note_on_c, 8, 59, 100
1, 402240, Note_on_c, 8, 61, 100
1, 402240, Note_on_c, 12, 69, 104
1, 402240, Note_on_c, 12, 76, 104
1, 402240, Note_on_c, 13, 40, 100
1, 402240, Note_on_c, 13, 45, 100
1, 402452, Note_off_c, 1, 69, 0
1, 402516, Note_off_c, 7, 64, 0
1, 402522, Note_on_c, 10, 64, 67
1, 402522, Note_on_c, 10, 69, 73
1, 402522, Note_on_c, 10, 76, 74
1, 402530, Note_off_c, 7, 69, 0
1, 402532, Note_off_c, 7, 76, 0
1, 402532, Note_off_c, 8, 59, 0
1, 402532, Note_off_c, 8, 61, 0
1, 402532, Note_off_c, 13, 40, 0
1, 402532, Note_off_c, 13, 45, 0
1, 402712, Note_off_c, 0, 57, 64
1, 402712, Note_off_c, 0, 64, 64
1, 402712, Note_off_c, 2, 73, 64
1, 402712, Note_off_c, 2, 81, 64
1, 402712, Note_off_c, 3, 73, 64
1, 402712, Note_off_c, 3, 76, 64
1, 402712, Note_off_c, 4, 85, 0
1, 402712, Note_off_c, 12, 69, 0
1, 402712, Note_off_c, 12, 76, 0
1, 402720, Note_on_c, 0, 57, 110
1, 402720, Note_on_c, 0, 64, 110
1, 402720, Note_on_c, 6, 64, 73
1, 402720, Note_on_c, 6, 69, 80
1, 402720, Note_on_c, 6, 76, 77
1, 402720, Note_on_c, 8, 40, 100
1, 402720, Note_on_c, 8, 45, 100
1, 402720, Note_on_c, 12, 69, 110
1, 402720, Note_on_c, 12, 76, 110
1, 402720, Note_on_c, 13, 59, 100
1, 402720, Note_on_c, 13, 61, 100
1, 402738, Note_off_c, 10, 64, 0
1, 402758, Note_off_c, 10, 76, 0
1, 402768, Note_off_c, 10, 69, 0
1, 402854, Note_off_c, 1, 64, 0
1, 402982, Note_off_c, 6, 64, 0
1, 402998, Note_off_c, 6, 69, 0
1, 403008, Note_off_c, 6, 76, 0
1, 403012, Note_off_c, 8, 40, 0
1, 403012, Note_off_c, 8, 45, 0
1, 403012, Note_off_c, 13, 59, 0
1, 403012, Note_off_c, 13, 61, 0
1, 403192, Note_off_c, 0, 57, 64
1, 403192, Note_off_c, 0, 64, 64
1, 403192, Note_off_c, 12, 69, 0
1, 403192, Note_off_c, 12, 76, 0
1, 403200, Note_on_c, 0, 57, 113
1, 403200, Note_on_c, 0, 64, 113
1, 403200, Note_on_c, 1, 66, 77
1, 403200, Note_on_c, 3, 71, 100
1, 403200, Note_on_c, 3, 76, 100
1, 403200, Note_on_c, 7, 64, 67
1, 403200, Note_on_c, 7, 69, 75
1, 403200, Note_on_c, 7, 76, 70
1, 403200, Note_on_c, 8, 59, 100
1, 403200, Note_on_c, 8, 61, 100
1, 403200, Note_on_c, 12, 69, 113
1, 403200, Note_on_c, 12, 76, 113
1, 403200, Note_on_c, 13, 40, 100
1, 403200, Note_on_c, 13, 45, 100
1, 403430, Note_off_c, 7, 69, 0
1, 403448, Note_off_c, 7, 64, 0
1, 403458, Note_off_c, 7, 76, 0
1, 403482, Note_on_c, 10, 64, 68
1, 403482, Note_on_c, 10, 69, 74
1, 403482, Note_on_c, 10, 76, 75
1, 403492, Note_off_c, 8, 59, 0
1, 403492, Note_off_c, 8, 61, 0
1, 403492, Note_off_c, 13, 40, 0
1, 403492, Note_off_c, 13, 45, 0
1, 403672, Note_off_c, 0, 57, 64
1, 403672, Note_off_c, 0, 64, 64
1, 403672, Note_off_c, 3, 71, 64
1, 403672, Note_off_c, 3, 76, 64
1, 403672, Note_off_c, 12, 69, 0
1, 403672, Note_off_c, 12, 76, 0
1, 403680, Note_on_c, 0, 57, 118
1, 403680, Note_on_c, 0, 64, 118
1, 403680, Note_on_c, 1, 61, 70
1, 403680, Note_on_c, 3, 64, 100
1, 403680, Note_on_c, 3, 69, 100
1, 403680, Note_on_c, 6, 64, 68
1, 403680, Note_on_c, 6, 69, 70
1, 403680, Note_on_c, 6, 76, 74
1, 403680, Note_on_c, 8, 40, 100
1, 403680, Note_on_c, 8, 45, 100
1, 403680, Note_on_c, 12, 69, 118
1, 403680, Note_on_c, 12, 76, 118
1, 403680, Note_on_c, 13, 59, 100
1, 403680, Note_on_c, 13, 61, 100
1, 403754, Note_off_c, 10, 69, 0
1, 403758, Note_off_c, 10, 64, 0
1, 403772, Note_off_c, 10, 76, 0
1, 403842, Note_off_c, 1, 66, 0
1, 403966, Note_off_c, 6, 64, 0
1, 403972, Note_off_c, 8, 40, 0
1, 403972, Note_off_c, 8, 45, 0
1, 403972, Note_off_c, 13, 59, 0
1, 403972, Note_off_c, 13, 61, 0
1, 403978, Note_off_c, 6, 69, 0
1, 403978, Note_off_c, 6, 76, 0
1, 404152, Note_off_c, 0, 57, 64
1, 404152, Note_off_c, 0, 64, 64
1, 404152, Note_off_c, 3, 64, 64
1, 404152, Note_off_c, 3, 69, 64
1, 404152, Note_off_c, 12, 69, 0
1, 404152, Note_off_c, 12, 76, 0
1, 404160, Note_on_c, 0, 57, 127
1, 404160, Note_on_c, 0, 64, 127
1, 404160, Note_on_c, 7, 64, 66
1, 404160, Note_on_c, 7, 69, 68
1, 404160, Note_on_c, 7, 76, 72
1, 404160, Note_on_c, 8, 59, 100
1, 404160, Note_on_c, 8, 61, 100
1, 404160, Note_on_c, 12, 69, 127
1, 404160, Note_on_c, 12, 76, 127
1, 404160, Note_on_c, 13, 40, 100
1, 404160, Note_on_c, 13, 45, 100
1, 404308, Note_off_c, 1, 61, 0
1, 404420, Note_off_c, 7, 69, 0
1, 404430, Note_off_c, 7, 64, 0
1, 404434, Note_off_c, 7, 76, 0
1, 404442, Note_on_c, 10, 64, 73
1, 404442, Note_on_c, 10, 69, 80
1, 404442, Note_on_c, 10, 76, 77
1, 404452, Note_off_c, 8, 59, 0
1, 404452, Note_off_c, 8, 61, 0
1, 404452, Note_off_c, 13, 40, 0
1, 404452, Note_off_c, 13, 45, 0
1, 404632, Note_off_c, 0, 57, 64
1, 404632, Note_off_c, 0, 64, 64
1, 404632, Note_off_c, 12, 69, 0
1, 404632, Note_off_c, 12, 76, 0
1, 404640, Note_on_c, 0, 57, 124
1, 404640, Note_on_c, 0, 64, 124
1, 404640, Note_on_c, 1, 69, 77
1, 404640, Note_on_c, 3, 71, 100
1, 404640, Note_on_c, 3, 76, 100
1, 404640, Note_on_c, 6, 64, 70
1, 404640, Note_on_c, 6, 69, 74
1, 404640, Note_on_c, 6, 76, 74
1, 404640, Note_on_c, 8, 40, 100
1, 404640, Note_on_c, 8, 45, 100
1, 404640, Note_on_c, 12, 69, 124
1, 404640, Note_on_c, 12, 76, 124
1, 404640, Note_on_c, 13, 59, 100
1, 404640, Note_on_c, 13, 61, 100
1, 404704, Note_off_c, 10, 64, 0
1, 404720, Note_off_c, 10, 69, 0
1, 404730, Note_off_c, 10, 76, 0
1, 404844, Note_off_c, 6, 64, 0
1, 404874, Note_off_c, 6, 76, 0
1, 404912, Note_off_c, 6, 69, 0
1, 404932, Note_off_c, 8, 40, 0
1, 404932, Note_off_c, 8, 45, 0
1, 404932, Note_off_c, 13, 59, 0
1, 404932, Note_off_c, 13, 61, 0
1, 405112, Note_off_c, 0, 57, 64
1, 405112, Note_off_c, 0, 64, 64
1, 405112, Note_off_c, 3, 71, 64
1, 405112, Note_off_c, 3, 76, 64
1, 405112, Note_off_c, 12, 69, 0
1, 405112, Note_off_c, 12, 76, 0
1, 405120, Note_on_c, 0, 57, 118
1, 405120, Note_on_c, 0, 64, 118
1, 405120, Note_on_c, 7, 64, 62
1, 405120, Note_on_c, 7, 69, 60
1, 405120, Note_on_c, 7, 76, 70
1, 405120, Note_on_c, 8, 59, 100
1, 405120, Note_on_c, 8, 61, 100
1, 405120, Note_on_c, 12, 69, 118
1, 405120, Note_on_c, 12, 76, 118
1, 405120, Note_on_c, 13, 40, 100
1, 405120, Note_on_c, 13, 45, 100
1, 405288, Note_off_c, 1, 69, 0
1, 405380, Note_off_c, 7, 69, 0
1, 405398, Note_off_c, 7, 64, 0
1, 405402, Note_on_c, 10, 64, 68
1, 405402, Note_on_c, 10, 69, 70
1, 405402, Note_on_c, 10, 76, 74
1, 405412, Note_off_c, 8, 59, 0
1, 405412, Note_off_c, 8, 61, 0
1, 405412, Note_off_c, 13, 40, 0
1, 405412, Note_off_c, 13, 45, 0
1, 405458, Note_off_c, 7, 76, 0
1, 405592, Note_off_c, 0, 57, 64
1, 405592, Note_off_c, 0, 64, 64
1, 405592, Note_off_c, 12, 69, 0
1, 405592, Note_off_c, 12, 76, 0
1, 405600, Note_on_c, 0, 57, 113
1, 405600, Note_on_c, 0, 64, 113
1, 405600, Note_on_c, 1, 64, 68
1, 405600, Note_on_c, 3, 73, 100
1, 405600, Note_on_c, 3, 76, 100
1, 405600, Note_on_c, 6, 64, 68
1, 405600, Note_on_c, 6, 69, 68
1, 405600, Note_on_c, 6, 76, 72
1, 405600, Note_on_c, 8, 40, 100
1, 405600, Note_on_c, 8, 45, 100
1, 405600, Note_on_c, 12, 69, 113
1, 405600, Note_on_c, 12, 76, 113
1, 405600, Note_on_c, 13, 59, 100
1, 405600, Note_on_c, 13, 61, 100
1, 405688, Note_off_c, 10, 64, 0
1, 405700, Note_off_c, 10, 69, 0
1, 405700, Note_off_c, 10, 76, 0
1, 405806, Note_off_c, 6, 69, 0
1, 405814, Note_off_c, 6, 64, 0
1, 405824, Note_off_c, 6, 76, 0
1, 405892, Note_off_c, 8, 40, 0
1, 405892, Note_off_c, 8, 45, 0
1, 405892, Note_off_c, 13, 59, 0
1, 405892, Note_off_c, 13, 61, 0
1, 406044, Note_off_c, 1, 64, 0
1, 406072, Note_off_c, 0, 57, 64
1, 406072, Note_off_c, 0, 64, 64
1, 406072, Note_off_c, 3, 73, 64
1, 406072, Note_off_c, 3, 76, 64
1, 406072, Note_off_c, 5, 52, 0
1, 406072, Note_off_c, 5, 57, 0
1, 406072, Note_off_c, 12, 69, 0
1, 406072, Note_off_c, 12, 76, 0
1, 406080, Note_on_c, 0, 57, 107
1, 406080, Note_on_c, 0, 64, 107
1, 406080, Note_on_c, 1, 66, 78
1, 406080, Note_on_c, 2, 69, 100
1, 406080, Note_on_c, 2, 78, 100
1, 406080, Note_on_c, 3, 64, 100
1, 406080, Note_on_c, 3, 69, 100
1, 406080, Note_on_c, 4, 78, 100
1, 406080, Note_on_c, 5, 50, 100
1, 406080, Note_on_c, 5, 57, 100
1, 406080, Note_on_c, 7, 64, 56
1, 406080, Note_on_c, 7, 69, 69
1, 406080, Note_on_c, 7, 76, 73
1, 406080, Note_on_c, 8, 57, 100
1, 406080, Note_on_c, 8, 61, 100
1, 406080, Note_on_c, 12, 69, 107
1, 406080, Note_on_c, 12, 76, 107
1, 406080, Note_on_c, 13, 38, 100
1, 406080, Note_on_c, 13, 45, 100
1, 406346, Note_off_c, 7, 64, 0
1, 406362, Note_on_c, 10, 64, 70
1, 406362, Note_on_c, 10, 69, 74
1, 406362, Note_on_c, 10, 76, 74
1, 406372, Note_off_c, 8, 57, 0
1, 406372, Note_off_c, 8, 61, 0
1, 406372, Note_off_c, 13, 38, 0
1, 406372, Note_off_c, 13, 45, 0
1, 406374, Note_off_c, 7, 69, 0
1, 406382, Note_off_c, 7, 76, 0
1, 406552, Note_off_c, 0, 57, 64
1, 406552, Note_off_c, 0, 64, 64
1, 406552, Note_off_c, 2, 69, 64
1, 406552, Note_off_c, 2, 78, 64
1, 406552, Note_off_c, 3, 64, 64
1, 406552, Note_off_c, 3, 69, 64
1, 406552, Note_off_c, 4, 78, 0
1, 406552, Note_off_c, 12, 69, 0
1, 406552, Note_off_c, 12, 76, 0
1, 406560, Note_on_c, 0, 57, 102
1, 406560, Note_on_c, 0, 64, 102
1, 406560, Note_on_c, 6, 64, 70
1, 406560, Note_on_c, 6, 69, 70
1, 406560, Note_on_c, 6, 76, 75
1, 406560, Note_on_c, 8, 38, 100
1, 406560, Note_on_c, 8, 45, 100
1, 406560, Note_on_c, 12, 69, 102
1, 406560, Note_on_c, 12, 76, 102
1, 406560, Note_on_c, 13, 57, 100
1, 406560, Note_on_c, 13, 61, 100
1, 406566, Note_off_c, 10, 64, 0
1, 406596, Note_off_c, 10, 76, 0
1, 406634, Note_off_c, 10, 69, 0
1, 406748, Note_off_c, 1, 66, 0
1, 406788, Note_off_c, 6, 69, 0
1, 406830, Note_off_c, 6, 64, 0
1, 406852, Note_off_c, 8, 38, 0
1, 406852, Note_off_c, 8, 45, 0
1, 406852, Note_off_c, 13, 57, 0
1, 406852, Note_off_c, 13, 61, 0
1, 406868, Note_off_c, 6, 76, 0
1, 407032, Note_off_c, 0, 57, 64
1, 407032, Note_off_c, 0, 64, 64
1, 407032, Note_off_c, 12, 69, 0
1, 407032, Note_off_c, 12, 76, 0
1, 407040, Note_on_c, 0, 57, 96
1, 407040, Note_on_c, 0, 64, 96
1, 407040, Note_on_c, 1, 59, 74
1, 407040, Note_on_c, 2, 71, 100
1, 407040, Note_on_c, 2, 80, 100
1, 407040, Note_on_c, 3, 71, 100
1, 407040, Note_on_c, 3, 76, 100
1, 407040, Note_on_c, 4, 80, 100
1, 407040, Note_on_c, 7, 64, 66
1, 407040, Note_on_c, 7, 69, 70
1, 407040, Note_on_c, 7, 76, 75
1, 407040, Note_on_c, 8, 57, 100
1, 407040, Note_on_c, 8, 61, 100
1, 407040, Note_on_c, 12, 69, 96
1, 407040, Note_on_c, 12, 76, 96
1, 407040, Note_on_c, 13, 38, 100
1, 407040, Note_on_c, 13, 45, 100
1, 407290, Note_off_c, 7, 69, 0
1, 407304, Note_off_c, 7, 64, 0
1, 407322, Note_on_c, 10, 64, 68
1, 407322, Note_on_c, 10, 69, 68
1, 407322, Note_on_c, 10, 76, 72
1, 407330, Note_off_c, 7, 76, 0
1, 407332, Note_off_c, 8, 57, 0
1, 407332, Note_off_c, 8, 61, 0
1, 407332, Note_off_c, 13, 38, 0
1, 407332, Note_off_c, 13, 45, 0
1, 407512, Note_off_c, 0, 57, 64
1, 407512, Note_off_c, 0, 64, 64
1, 407512, Note_off_c, 2, 71, 64
1, 407512, Note_off_c, 2, 80, 64
1, 407512, Note_off_c, 3, 71, 64
1, 407512, Note_off_c, 3, 76, 64
1, 407512, Note_off_c, 4, 80, 0
1, 407512, Note_off_c, 12, 69, 0
1, 407512, Note_off_c, 12, 76, 0
1, 407520, Note_on_c, 0, 57, 91
1, 407520, Note_on_c, 0, 64, 91
1, 407520, Note_on_c, 1, 69, 75
1, 407520, Note_on_c, 2, 69, 100
1, 407520, Note_on_c, 2, 78, 100
1, 407520, Note_on_c, 3, 66, 100
1, 407520, Note_on_c, 3, 69, 100
1, 407520, Note_on_c, 4, 81, 100
1, 407520, Note_on_c, 6, 64, 69
1, 407520, Note_on_c, 6, 69, 69
1, 407520, Note_on_c, 6, 76, 73
1, 407520, Note_on_c, 8, 38, 100
1, 407520, Note_on_c, 8, 45, 100
1, 407520, Note_on_c, 12, 69, 91
1, 407520, Note_on_c, 12, 76, 91
1, 407520, Note_on_c, 13, 57, 100
1, 407520, Note_on_c, 13, 61, 100
1, 407528, Note_off_c, 1, 59, 0
1, 407528, Note_off_c, 10, 69, 0
1, 407536, Note_off_c, 10, 64, 0
1, 407546, Note_off_c, 10, 76, 0
1, 407786, Note_off_c, 6, 64, 0
1, 407812, Note_off_c, 8, 38, 0
1, 407812, Note_off_c, 8, 45, 0
1, 407812, Note_off_c, 13, 57, 0
1, 407812, Note_off_c, 13, 61, 0
1, 407824, Note_off_c, 6, 69, 0
1, 407824, Note_off_c, 6, 76, 0
1, 407992, Note_off_c, 0, 57, 64
1, 407992, Note_off_c, 0, 64, 64
1, 407992, Note_off_c, 2, 69, 64
1, 407992, Note_off_c, 2, 78, 64
1, 407992, Note_off_c, 3, 66, 64
1, 407992, Note_off_c, 3, 69, 64
1, 407992, Note_off_c, 4, 81, 0
1, 407992, Note_off_c, 12, 69, 0
1, 407992, Note_off_c, 12, 76, 0
1, 408000, Note_on_c, 0, 57, 85
1, 408000, Note_on_c, 0, 64, 85
1, 408000, Note_on_c, 1, 64, 73
1, 408000, Note_on_c, 2, 73, 100
1, 408000, Note_on_c, 2, 81, 100
1, 408000, Note_on_c, 3, 73, 100
1, 408000, Note_on_c, 3, 76, 100
1, 408000, Note_on_c, 4, 85, 100
1, 408000, Note_on_c, 7, 64, 66
1, 408000, Note_on_c, 7, 69, 70
1, 408000, Note_on_c, 7, 76, 75
1, 408000, Note_on_c, 8, 57, 100
1, 408000, Note_on_c, 8, 61, 100
1, 408000, Note_on_c, 12, 69, 85
1, 408000, Note_on_c, 12, 76, 85
1, 408000, Note_on_c, 13, 38, 100
1, 408000, Note_on_c, 13, 45, 100
1, 408126, Note_off_c, 1, 69, 0
1, 408250, Note_off_c, 7, 69, 0
1, 408264, Note_off_c, 7, 64, 0
1, 408282, Note_on_c, 10, 64, 70
1, 408282, Note_on_c, 10, 69, 70
1, 408282, Note_on_c, 10, 76, 75
1, 408290, Note_off_c, 7, 76, 0
1, 408292, Note_off_c, 8, 57, 0
1, 408292, Note_off_c, 8, 61, 0
1, 408292, Note_off_c, 13, 38, 0
1, 408292, Note_off_c, 13, 45, 0
1, 408472, Note_off_c, 0, 57, 64
1, 408472, Note_off_c, 0, 64, 64
1, 408472, Note_off_c, 2, 73, 64
1, 408472, Note_off_c, 2, 81, 64
1, 408472, Note_off_c, 3, 73, 64
1, 408472, Note_off_c, 3, 76, 64
1, 408472, Note_off_c, 4, 85, 0
1, 408472, Note_off_c, 12, 69, 0
1, 408472, Note_off_c, 12, 76, 0
1, 408480, Note_on_c, 0, 57, 80
1, 408480, Note_on_c, 0, 64, 80
1, 408480, Note_on_c, 6, 64, 67
1, 408480, Note_on_c, 6, 69, 63
1, 408480, Note_on_c, 6, 76, 74
1, 408480, Note_on_c, 8, 38, 100
1, 408480, Note_on_c, 8, 45, 100
1, 408480, Note_on_c, 12, 69, 80
1, 408480, Note_on_c, 12, 76, 80
1, 408480, Note_on_c, 13, 57, 100
1, 408480, Note_on_c, 13, 61, 100
1, 408510, Note_off_c, 10, 69, 0
1, 408552, Note_off_c, 10, 64, 0
1, 408590, Note_off_c, 10, 76, 0
1, 408684, Note_off_c, 6, 69, 0
1, 408706, Note_off_c, 1, 64, 0
1, 408746, Note_off_c, 6, 64, 0
1, 408746, Note_off_c, 6, 76, 0
1, 408772, Note_off_c, 8, 38, 0
1, 408772, Note_off_c, 8, 45, 0
1, 408772, Note_off_c, 13, 57, 0
1, 408772, Note_off_c, 13, 61, 0
1, 408952, Note_off_c, 0, 57, 64
1, 408952, Note_off_c, 0, 64, 64
1, 408952, Note_off_c, 12, 69, 0
1, 408952, Note_off_c, 12, 76, 0
1, 408960, Note_on_c, 0, 57, 74
1, 408960, Note_on_c, 0, 64, 74
1, 408960, Note_on_c, 1, 66, 68
1, 408960, Note_on_c, 2, 71, 100
1, 408960, Note_on_c, 2, 80, 100
1, 408960, Note_on_c, 3, 71, 100
1, 408960, Note_on_c, 3, 76, 100
1, 408960, Note_on_c, 4, 83, 100
1, 408960, Note_on_c, 7, 64, 72
1, 408960, Note_on_c, 7, 69, 80
1, 408960, Note_on_c, 7, 76, 77
1, 408960, Note_on_c, 8, 57, 100
1, 408960, Note_on_c, 8, 61, 100
1, 408960, Note_on_c, 12, 69, 74
1, 408960, Note_on_c, 12, 76, 74
1, 408960, Note_on_c, 13, 38, 100
1, 408960, Note_on_c, 13, 45, 100
1, 409200, Note_off_c, 7, 76, 0
1, 409210, Note_off_c, 7, 64, 0
1, 409210, Note_off_c, 7, 69, 0
1, 409242, Note_on_c, 10, 64, 69
1, 409242, Note_on_c, 10, 69, 69
1, 409242, Note_on_c, 10, 76, 73
1, 409252, Note_off_c, 8, 57, 0
1, 409252, Note_off_c, 8, 61, 0
1, 409252, Note_off_c, 13, 38, 0
1, 409252, Note_off_c, 13, 45, 0
1, 409432, Note_off_c, 0, 57, 64
1, 409432, Note_off_c, 0, 64, 64
1, 409432, Note_off_c, 2, 71, 64
1, 409432, Note_off_c, 2, 80, 64
1, 409432, Note_off_c, 3, 71, 64
1, 409432, Note_off_c, 3, 76, 64
1, 409432, Note_off_c, 4, 83, 0
1, 409432, Note_off_c, 12, 69, 0
1, 409432, Note_off_c, 12, 76, 0
1, 409440, Note_on_c, 0, 57, 69
1, 409440, Note_on_c, 0, 64, 69
1, 409440, Note_on_c, 1, 61, 68
1, 409440, Note_on_c, 2, 69, 100
1, 409440, Note_on_c, 2, 78, 100
1, 409440, Note_on_c, 3, 64, 100
1, 409440, Note_on_c, 3, 69, 100
1, 409440, Note_on_c, 4, 80, 100
1, 409440, Note_on_c, 6, 64, 66
1, 409440, Note_on_c, 6, 69, 63
1, 409440, Note_on_c, 6, 76, 74
1, 409440, Note_on_c, 8, 38, 100
1, 409440, Note_on_c, 8, 45, 100
1, 409440, Note_on_c, 12, 69, 69
1, 409440, Note_on_c, 12, 76, 69
1, 409440, Note_on_c, 13, 57, 100
1, 409440, Note_on_c, 13, 61, 100
1, 409476, Note_off_c, 1, 66, 0
1, 409508, Note_off_c, 10, 64, 0
1, 409546, Note_off_c, 10, 69, 0
1, 409546, Note_off_c, 10, 76, 0
1, 409670, Note_off_c, 6, 69, 0
1, 409676, Note_off_c, 6, 64, 0
1, 409714, Note_off_c, 6, 76, 0
1, 409732, Note_off_c, 8, 38, 0
1, 409732, Note_off_c, 8, 45, 0
1, 409732, Note_off_c, 13, 57, 0
1, 409732, Note_off_c, 13, 61, 0
1, 409912, Note_off_c, 0, 57, 64
1, 409912, Note_off_c, 0, 64, 64
1, 409912, Note_off_c, 2, 69, 64
1, 409912, Note_off_c, 2, 78, 64
1, 409912, Note_off_c, 3, 64, 64
1, 409912, Note_off_c, 3, 69, 64
1, 409912, Note_off_c, 4, 80, 0
1, 409912, Note_off_c, 12, 69, 0
1, 409912, Note_off_c, 12, 76, 0
1, 409920, Note_on_c, 0, 57, 63
1, 409920, Note_on_c, 0, 64, 63
1, 409920, Note_on_c, 7, 64, 70
1, 409920, Note_on_c, 7, 69, 77
1, 409920, Note_on_c, 7, 76, 77
1, 409920, Note_on_c, 8, 57, 100
1, 409920, Note_on_c, 8, 61, 100
1, 409920, Note_on_c, 12, 69, 63
1, 409920, Note_on_c, 12, 76, 63
1, 409920, Note_on_c, 13, 38, 100
1, 409920, Note_on_c, 13, 45, 100
1, 410174, Note_off_c, 7, 64, 0
1, 410202, Note_off_c, 7, 69, 0
1, 410202, Note_on_c, 10, 64, 67
1, 410202, Note_on_c, 10, 69, 63
1, 410202, Note_on_c, 10, 76, 74
1, 410210, Note_off_c, 1, 61, 0
1, 410210, Note_off_c, 7, 76, 0
1, 410212, Note_off_c, 8, 57, 0
1, 410212, Note_off_c, 8, 61, 0
1, 410212, Note_off_c, 13, 38, 0
1, 410212, Note_off_c, 13, 45, 0
1, 410392, Note_off_c, 0, 57, 64
1, 410392, Note_off_c, 0, 64, 64
1, 410392, Note_off_c, 12, 69, 0
1, 410392, Note_off_c, 12, 76, 0
1, 410400, Note_on_c, 0, 57, 60
1, 410400, Note_on_c, 0, 64, 60
1, 410400, Note_on_c, 1, 69, 77
1, 410400, Note_on_c, 2, 71, 100
1, 410400, Note_on_c, 2, 80, 100
1, 410400, Note_on_c, 3, 71, 100
1, 410400, Note_on_c, 3, 76, 100
1, 410400, Note_on_c, 4, 81, 100
1, 410400, Note_on_c, 6, 64, 68
1, 410400, Note_on_c, 6, 69, 74
1, 410400, Note_on_c, 6, 76, 74
1, 410400, Note_on_c, 8, 38, 100
1, 410400, Note_on_c, 8, 45, 100
1, 410400, Note_on_c, 12, 69, 60
1, 410400, Note_on_c, 12, 76, 60
1, 410400, Note_on_c, 13, 57, 100
1, 410400, Note_on_c, 13, 61, 100
1, 410406, Note_off_c, 10, 69, 0
1, 410468, Note_off_c, 10, 64, 0
1, 410468, Note_off_c, 10, 76, 0
1, 410660, Note_off_c, 6, 69, 0
1, 410690, Note_off_c, 6, 76, 0
1, 410692, Note_off_c, 8, 38, 0
1, 410692, Note_off_c, 8, 45, 0
1, 410692, Note_off_c, 13, 57, 0
1, 410692, Note_off_c, 13, 61, 0
1, 410694, Note_off_c, 6, 64, 0
1, 410872, Note_off_c, 0, 57, 64
1, 410872, Note_off_c, 0, 64, 64
1, 410872, Note_off_c, 2, 71, 64
1, 410872, Note_off_c, 2, 80, 64
1, 410872, Note_off_c, 3, 71, 64
1, 410872, Note_off_c, 3, 76, 64
1, 410872, Note_off_c, 4, 81, 0
1, 410872, Note_off_c, 12, 69, 0
1, 410872, Note_off_c, 12, 76, 0
1, 410880, Note_on_c, 0, 57, 55
1, 410880, Note_on_c, 0, 64, 55
1, 410880, Note_on_c, 7, 64, 70
1, 410880, Note_on_c, 7, 69, 73
1, 410880, Note_on_c, 7, 76, 74
1, 410880, Note_on_c, 8, 57, 100
1, 410880, Note_on_c, 8, 61, 100
1, 410880, Note_on_c, 12, 69, 55
1, 410880, Note_on_c, 12, 76, 55
1, 410880, Note_on_c, 13, 38, 100
1, 410880, Note_on_c, 13, 45, 100
1, 411024, Note_off_c, 1, 69, 0
1, 411120, Note_off_c, 7, 64, 0
1, 411126, Note_off_c, 7, 69, 0
1, 411140, Note_off_c, 7, 76, 0
1, 411162, Note_on_c, 10, 64, 66
1, 411162, Note_on_c, 10, 69, 63
1, 411162, Note_on_c, 10, 76, 74
1, 411172, Note_off_c, 8, 57, 0
1, 411172, Note_off_c, 8, 61, 0
1, 411172, Note_off_c, 13, 38, 0
1, 411172, Note_off_c, 13, 45, 0
1, 411352, Note_off_c, 0, 57, 64
1, 411352, Note_off_c, 0, 64, 64
1, 411352, Note_off_c, 12, 69, 0
1, 411352, Note_off_c, 12, 76, 0
1, 411360, Note_on_c, 0, 57, 49
1, 411360, Note_on_c, 0, 64, 49
1, 411360, Note_on_c, 1, 64, 70
1, 411360, Note_on_c, 2, 73, 100
1, 411360, Note_on_c, 2, 81, 100
1, 411360, Note_on_c, 3, 73, 100
1, 411360, Note_on_c, 3, 76, 100
1, 411360, Note_on_c, 4, 83, 100
1, 411360, Note_on_c, 6, 64, 73
1, 411360, Note_on_c, 6, 69, 82
1, 411360, Note_on_c, 6, 76, 77
1, 411360, Note_on_c, 8, 38, 100
1, 411360, Note_on_c, 8, 45, 100
1, 411360, Note_on_c, 12, 69, 49
1, 411360, Note_on_c, 12, 76, 49
1, 411360, Note_on_c, 13, 57, 100
1, 411360, Note_on_c, 13, 61, 100
1, 411392, Note_off_c, 10, 69, 0
1, 411398, Note_off_c, 10, 64, 0
1, 411436, Note_off_c, 10, 76, 0
1, 411638, Note_off_c, 6, 69, 0
1, 411650, Note_off_c, 6, 64, 0
1, 411652, Note_off_c, 8, 38, 0
1, 411652, Note_off_c, 8, 45, 0
1, 411652, Note_off_c, 13, 57, 0
1, 411652, Note_off_c, 13, 61, 0
1, 411658, Note_off_c, 6, 76, 0
1, 411832, Note_off_c, 0, 57, 64
1, 411832, Note_off_c, 0, 64, 64
1, 411832, Note_off_c, 2, 73, 64
1, 411832, Note_off_c, 2, 81, 64
1, 411832, Note_off_c, 3, 73, 64
1, 411832, Note_off_c, 3, 76, 64
1, 411832, Note_off_c, 4, 83, 0
1, 411832, Note_off_c, 5, 50, 0
1, 411832, Note_off_c, 5, 57, 0
1, 411832, Note_off_c, 12, 69, 0
1, 411832, Note_off_c, 12, 76, 0
1, 411840, Note_on_c, 0, 57, 44
1, 411840, Note_on_c, 0, 64, 44
1, 411840, Note_on_c, 1, 66, 77
1, 411840, Note_on_c, 2, 69, 100
1, 411840, Note_on_c, 2, 78, 100
1, 411840, Note_on_c, 3, 64, 100
1, 411840, Note_on_c, 3, 69, 100
1, 411840, Note_on_c, 4, 80, 100
1, 411840, Note_on_c, 5, 52, 100
1, 411840, Note_on_c, 5, 57, 100
1, 411840, Note_on_c, 7, 64, 72
1, 411840, Note_on_c, 7, 69, 77
1, 411840, Note_on_c, 7, 76, 75
1, 411840, Note_on_c, 8, 59, 100
1, 411840, Note_on_c, 8, 61, 100
1, 411840, Note_on_c, 12, 69, 44
1, 411840, Note_on_c, 12, 76, 44
1, 411840, Note_on_c, 13, 40, 100
1, 411840, Note_on_c, 13, 45, 100
1, 411992, Note_off_c, 1, 64, 0
1, 412048, Note_off_c, 7, 69, 0
1, 412062, Note_off_c, 7, 64, 0
1, 412082, Note_off_c, 7, 76, 0
1, 412122, Note_on_c, 10, 64, 68
1, 412122, Note_on_c, 10, 69, 74
1, 412122, Note_on_c, 10, 76, 74
1, 412132, Note_off_c, 8, 59, 0
1, 412132, Note_off_c, 8, 61, 0
1, 412132, Note_off_c, 13, 40, 0
1, 412132, Note_off_c, 13, 45, 0
1, 412312, Note_off_c, 0, 57, 64
1, 412312, Note_off_c, 0, 64, 64
1, 412312, Note_off_c, 2, 69, 64
1, 412312, Note_off_c, 2, 78, 64
1, 412312, Note_off_c, 3, 64, 64
1, 412312, Note_off_c, 3, 69, 64
1, 412312, Note_off_c, 4, 80, 0
1, 412312, Note_off_c, 12, 69, 0
1, 412312, Note_off_c, 12, 76, 0
1, 412320, Note_on_c, 0, 57, 38
1, 412320, Note_on_c, 0, 64, 38
1, 412320, Note_on_c, 6, 64, 72
1, 412320, Note_on_c, 6, 69, 75
1, 412320, Note_on_c, 6, 76, 73
1, 412320, Note_on_c, 8, 40, 100
1, 412320, Note_on_c, 8, 45, 100
1, 412320, Note_on_c, 12, 69, 38
1, 412320, Note_on_c, 12, 76, 38
1, 412320, Note_on_c, 13, 59, 100
1, 412320, Note_on_c, 13, 61, 100
1, 412382, Note_off_c, 10, 69, 0
1, 412412, Note_off_c, 10, 76, 0
1, 412416, Note_off_c, 10, 64, 0
1, 412484, Note_off_c, 1, 66, 0
1, 412608, Note_off_c, 6, 76, 0
1, 412610, Note_off_c, 6, 69, 0
1, 412612, Note_off_c, 8, 40, 0
1, 412612, Note_off_c, 8, 45, 0
1, 412612, Note_off_c, 13, 59, 0
1, 412612, Note_off_c, 13, 61, 0
1, 412618, Note_off_c, 6, 64, 0
1, 412792, Note_off_c, 0, 57, 64
1, 412792, Note_off_c, 0, 64, 64
1, 412792, Note_off_c, 12, 69, 0
1, 412792, Note_off_c, 12, 76, 0
1, 412800, Note_on_c, 0, 57, 33
1, 412800, Note_on_c, 0, 64, 33
1, 412800, Note_on_c, 1, 59, 65
1, 412800, Note_on_c, 2, 71, 100
1, 412800, Note_on_c, 2, 80, 100
1, 412800, Note_on_c, 3, 71, 100
1, 412800, Note_on_c, 3, 76, 100
1, 412800, Note_on_c, 4, 80, 100
1, 412800, Note_on_c, 7, 64, 70
1, 412800, Note_on_c, 7, 69, 78
1, 412800, Note_on_c, 7, 76, 77
1, 412800, Note_on_c, 8, 59, 100
1, 412800, Note_on_c, 8, 61, 100
1, 412800, Note_on_c, 12, 69, 33
1, 412800, Note_on_c, 12, 76, 33
1, 412800, Note_on_c, 13, 40, 100
1, 412800, Note_on_c, 13, 45, 100
1, 413042, Note_off_c, 7, 64, 0
1, 413064, Note_off_c, 7, 76, 0
1, 413082, Note_on_c, 10, 64, 73
1, 413082, Note_on_c, 10, 69, 82
1, 413082, Note_on_c, 10, 76, 77
1, 413088, Note_off_c, 7, 69, 0
1, 413092, Note_off_c, 8, 59, 0
1, 413092, Note_off_c, 8, 61, 0
1, 413092, Note_off_c, 13, 40, 0
1, 413092, Note_off_c, 13, 45, 0
1, 413272, Note_off_c, 0, 57, 64
1, 413272, Note_off_c, 0, 64, 64
1, 413272, Note_off_c, 2, 71, 64
1, 413272, Note_off_c, 2, 80, 64
1, 413272, Note_off_c, 3, 71, 64
1, 413272, Note_off_c, 3, 76, 64
1, 413272, Note_off_c, 4, 80, 0
1, 413272, Note_off_c, 12, 69, 0
1, 413272, Note_off_c, 12, 76, 0
1, 413280, Note_on_c, 0, 57, 27
1, 413280, Note_on_c, 0, 64, 27
1, 413280, Note_on_c, 1, 69, 74
1, 413280, Note_on_c, 2, 69, 100
1, 413280, Note_on_c, 2, 78, 100
1, 413280, Note_on_c, 3, 66, 100
1, 413280, Note_on_c, 3, 69, 100
1, 413280, Note_on_c, 4, 81, 100
1, 413280, Note_on_c, 6, 64, 69
1, 413280, Note_on_c, 6, 69, 70
1, 413280, Note_on_c, 6, 76, 72
1, 413280, Note_on_c, 8, 40, 100
1, 413280, Note_on_c, 8, 45, 100
1, 413280, Note_on_c, 12, 69, 27
1, 413280, Note_on_c, 12, 76, 27
1, 413280, Note_on_c, 13, 59, 100
1, 413280, Note_on_c, 13, 61, 100
1, 413360, Note_off_c, 10, 69, 0
1, 413372, Note_off_c, 10, 64, 0
1, 413374, Note_off_c, 1, 59, 0
1, 413380, Note_off_c, 10, 76, 0
1, 413544, Note_off_c, 6, 69, 0
1, 413568, Note_off_c, 6, 64, 0
1, 413572, Note_off_c, 8, 40, 0
1, 413572, Note_off_c, 8, 45, 0
1, 413572, Note_off_c, 13, 59, 0
1, 413572, Note_off_c, 13, 61, 0
1, 413584, Note_off_c, 6, 76, 0
1, 413752, Note_off_c, 0, 57, 64
1, 413752, Note_off_c, 0, 64, 64
1, 413752, Note_off_c, 2, 69, 64
1, 413752, Note_off_c, 2, 78, 64
1, 413752, Note_off_c, 3, 66, 64
1, 413752, Note_off_c, 3, 69, 64
1, 413752, Note_off_c, 4, 81, 0
1, 413752, Note_off_c, 12, 69, 0
1, 413752, Note_off_c, 12, 76, 0
1, 413760, Note_on_c, 0, 57, 22
1, 413760, Note_on_c, 0, 64, 22
1, 413760, Note_on_c, 1, 64, 68
1, 413760, Note_on_c, 2, 73, 100
1, 413760, Note_on_c, 2, 81, 100
1, 413760, Note_on_c, 3, 73, 100
1, 413760, Note_on_c, 3, 76, 100
1, 413760, Note_on_c, 4, 85, 100
1, 413760, Note_on_c, 7, 64, 70
1, 413760, Note_on_c, 7, 69, 72
1, 413760, Note_on_c, 7, 76, 77
1, 413760, Note_on_c, 8, 59, 100
1, 413760, Note_on_c, 8, 61, 100
1, 413760, Note_on_c, 12, 69, 22
1, 413760, Note_on_c, 12, 76, 22
1, 413760, Note_on_c, 13, 40, 100
1, 413760, Note_on_c, 13, 45, 100
1, 413972, Note_off_c, 1, 69, 0
1, 414014, Note_off_c, 7, 64, 0
1, 414026, Note_off_c, 7, 69, 0
1, 414042, Note_on_c, 10, 64, 72
1, 414042, Note_on_c, 10, 69, 75
1, 414042, Note_on_c, 10, 76, 73
1, 414052, Note_off_c, 8, 59, 0
1, 414052, Note_off_c, 8, 61, 0
1, 414052, Note_off_c, 13, 40, 0
1, 414052, Note_off_c, 13, 45, 0
1, 414082, Note_off_c, 7, 76, 0
1, 414232, Note_off_c, 0, 57, 64
1, 414232, Note_off_c, 0, 64, 64
1, 414232, Note_off_c, 2, 73, 64
1, 414232, Note_off_c, 2, 81, 64
1, 414232, Note_off_c, 3, 73, 64
1, 414232, Note_off_c, 3, 76, 64
1, 414232, Note_off_c, 4, 85, 0
1, 414232, Note_off_c, 12, 69, 0
1, 414232, Note_off_c, 12, 76, 0
1, 414240, Note_on_c, 0, 57, 16
1, 414240, Note_on_c, 0, 64, 16
1, 414240, Note_on_c, 6, 64, 68
1, 414240, Note_on_c, 6, 69, 77
1, 414240, Note_on_c, 6, 76, 73
1, 414240, Note_on_c, 8, 40, 100
1, 414240, Note_on_c, 8, 45, 100
1, 414240, Note_on_c, 12, 69, 16
1, 414240, Note_on_c, 12, 76, 16
1, 414240, Note_on_c, 13, 59, 100
1, 414240, Note_on_c, 13, 61, 100
1, 414330, Note_off_c, 10, 76, 0
1, 414332, Note_off_c, 10, 69, 0
1, 414340, Note_off_c, 10, 64, 0
1, 414374, Note_off_c, 1, 64, 0
1, 414506, Note_off_c, 6, 64, 0
1, 414524, Note_off_c, 6, 69, 0
1, 414524, Note_off_c, 6, 76, 0
1, 414532, Note_off_c, 8, 40, 0
1, 414532, Note_off_c, 8, 45, 0
1, 414532, Note_off_c, 13, 59, 0
1, 414532, Note_off_c, 13, 61, 0
1, 414712, Note_off_c, 0, 57, 64
1, 414712, Note_off_c, 0, 64, 64
1, 414712, Note_off_c, 12, 69, 0
1, 414712, Note_off_c, 12, 76, 0
1, 414720, Note_on_c, 0, 57, 11
1, 414720, Note_on_c, 0, 64, 11
1, 414720, Note_on_c, 1, 66, 77
1, 414720, Note_on_c, 2, 71, 100
1, 414720, Note_on_c, 2, 80, 100
1, 414720, Note_on_c, 3, 71, 100
1, 414720, Note_on_c, 3, 76, 100
1, 414720, Note_on_c, 4, 83, 100
1, 414720, Note_on_c, 7, 64, 73
1, 414720, Note_on_c, 7, 69, 77
1, 414720, Note_on_c, 7, 76, 74
1, 414720, Note_on_c, 8, 59, 100
1, 414720, Note_on_c, 8, 61, 100
1, 414720, Note_on_c, 12, 69, 11
1, 414720, Note_on_c, 12, 76, 11
1, 414720, Note_on_c, 13, 40, 100
1, 414720, Note_on_c, 13, 45, 100
1, 415002, Note_on_c, 10, 64, 69
1, 415002, Note_on_c, 10, 69, 70
1, 415002, Note_on_c, 10, 76, 72
1, 415004, Note_off_c, 7, 69, 0
1, 415012, Note_off_c, 8, 59, 0
1, 415012, Note_off_c, 8, 61, 0
1, 415012, Note_off_c, 13, 40, 0
1, 415012, Note_off_c, 13, 45, 0
1, 415036, Note_off_c, 7, 76, 0
1, 415042, Note_off_c, 7, 64, 0
1, 415192, Note_off_c, 0, 57, 64
1, 415192, Note_off_c, 0, 64, 64
1, 415192, Note_off_c, 2, 71, 64
1, 415192, Note_off_c, 2, 80, 64
1, 415192, Note_off_c, 3, 71, 64
1, 415192, Note_off_c, 3, 76, 64
1, 415192, Note_off_c, 4, 83, 0
1, 415192, Note_off_c, 12, 69, 0
1, 415192, Note_off_c, 12, 76, 0
1, 415200, Note_on_c, 0, 57, 5
1, 415200, Note_on_c, 0, 64, 5
1, 415200, Note_on_c, 1, 61, 70
1, 415200, Note_on_c, 2, 69, 100
1, 415200, Note_on_c, 2, 78, 100
1, 415200, Note_on_c, 3, 64, 100
1, 415200, Note_on_c, 3, 69, 100
1, 415200, Note_on_c, 4, 80, 100
1, 415200, Note_on_c, 6, 64, 72
1, 415200, Note_on_c, 6, 69, 52
1, 415200, Note_on_c, 6, 76, 72
1, 415200, Note_on_c, 8, 40, 100
1, 415200, Note_on_c, 8, 45, 100
1, 415200, Note_on_c, 12, 69, 5
1, 415200, Note_on_c, 12, 76, 5
1, 415200, Note_on_c, 13, 59, 100
1, 415200, Note_on_c, 13, 61, 100
1, 415266, Note_off_c, 10, 69, 0
1, 415290, Note_off_c, 10, 64, 0
1, 415306, Note_off_c, 10, 76, 0
1, 415352, Note_off_c, 6, 69, 0
1, 415362, Note_off_c, 1, 66, 0
1, 415440, Note_off_c, 6, 64, 0
1, 415446, Note_off_c, 6, 76, 0
1, 415492, Note_off_c, 8, 40, 0
1, 415492, Note_off_c, 8, 45, 0
1, 415492, Note_off_c, 13, 59, 0
1, 415492, Note_off_c, 13, 61, 0
1, 415672, Note_off_c, 0, 57, 64
1, 415672, Note_off_c, 0, 64, 64
1, 415672, Note_off_c, 2, 69, 64
1, 415672, Note_off_c, 2, 78, 64
1, 415672, Note_off_c, 3, 64, 64
1, 415672, Note_off_c, 3, 69, 64
1, 415672, Note_off_c, 4, 80, 0
1, 415672, Note_off_c, 12, 69, 0
1, 415672, Note_off_c, 12, 76, 0
1, 415680, Note_on_c, 7, 64, 68
1, 415680, Note_on_c, 7, 69, 70
1, 415680, Note_on_c, 7, 76, 72
1, 415680, Note_on_c, 8, 59, 100
1, 415680, Note_on_c, 8, 61, 100
1, 415680, Note_on_c, 13, 40, 100
1, 415680, Note_on_c, 13, 45, 100
1, 415828, Note_off_c, 1, 61, 0
1, 415962, Note_on_c, 10, 64, 68
1, 415962, Note_on_c, 10, 69, 77
1, 415962, Note_on_c, 10, 76, 73
1, 415970, Note_off_c, 7, 69, 0
1, 415972, Note_off_c, 8, 59, 0
1, 415972, Note_off_c, 8, 61, 0
1, 415972, Note_off_c, 13, 40, 0
1, 415972, Note_off_c, 13, 45, 0
1, 415988, Note_off_c, 7, 76, 0
1, 415994, Note_off_c, 7, 64, 0
1, 416160, Note_on_c, 1, 69, 77
1, 416160, Note_on_c, 2, 71, 100
1, 416160, Note_on_c, 2, 80, 100
1, 416160, Note_on_c, 3, 71, 100
1, 416160, Note_on_c, 3, 76, 100
1, 416160, Note_on_c, 4, 81, 100
1, 416160, Note_on_c, 6, 64, 68
1, 416160, Note_on_c, 6, 69, 70
1, 416160, Note_on_c, 6, 76, 74
1, 416160, Note_on_c, 8, 40, 100
1, 416160, Note_on_c, 8, 45, 100
1, 416160, Note_on_c, 13, 59, 100
1, 416160, Note_on_c, 13, 61, 100
1, 416228, Note_off_c, 10, 64, 0
1, 416246, Note_off_c, 10, 69, 0
1, 416246, Note_off_c, 10, 76, 0
1, 416392, Note_off_c, 6, 69, 0
1, 416402, Note_off_c, 6, 64, 0
1, 416410, Note_off_c, 6, 76, 0
1, 416452, Note_off_c, 8, 40, 0
1, 416452, Note_off_c, 8, 45, 0
1, 416452, Note_off_c, 13, 59, 0
1, 416452, Note_off_c, 13, 61, 0
1, 416632, Note_off_c, 2, 71, 64
1, 416632, Note_off_c, 2, 80, 64
1, 416632, Note_off_c, 3, 71, 64
1, 416632, Note_off_c, 3, 76, 64
1, 416632, Note_off_c, 4, 81, 0
1, 416640, Note_on_c, 7, 64, 68
1, 416640, Note_on_c, 7, 69, 70
1, 416640, Note_on_c, 7, 76, 73
1, 416640, Note_on_c, 8, 59, 100
1, 416640, Note_on_c, 8, 61, 100
1, 416640, Note_on_c, 13, 40, 100
1, 416640, Note_on_c, 13, 45, 100
1, 416808, Note_off_c, 1, 69, 0
1, 416888, Note_off_c, 7, 64, 0
1, 416902, Note_off_c, 7, 69, 0
1, 416902, Note_off_c, 7, 76, 0
1, 416922, Note_on_c, 10, 64, 72
1, 416922, Note_on_c, 10, 69, 52
1, 416922, Note_on_c, 10, 76, 72
1, 416932, Note_off_c, 8, 59, 0
1, 416932, Note_off_c, 8, 61, 0
1, 416932, Note_off_c, 13, 40, 0
1, 416932, Note_off_c, 13, 45, 0
1, 417074, Note_off_c, 10, 69, 0
1, 417120, Note_on_c, 1, 64, 68
1, 417120, Note_on_c, 2, 73, 100
1, 417120, Note_on_c, 2, 81, 100
1, 417120, Note_on_c, 3, 73, 100
1, 417120, Note_on_c, 3, 76, 100
1, 417120, Note_on_c, 4, 83, 100
1, 417120, Note_on_c, 6, 64, 68
1, 417120, Note_on_c, 6, 69, 69
1, 417120, Note_on_c, 6, 76, 72
1, 417120, Note_on_c, 8, 40, 100
1, 417120, Note_on_c, 8, 45, 100
1, 417120, Note_on_c, 13, 59, 100
1, 417120, Note_on_c, 13, 61, 100
1, 417162, Note_off_c, 10, 64, 0
1, 417168, Note_off_c, 10, 76, 0
1, 417336, Note_off_c, 6, 76, 0
1, 417338, Note_off_c, 6, 69, 0
1, 417352, Note_off_c, 6, 64, 0
1, 417412, Note_off_c, 8, 40, 0
1, 417412, Note_off_c, 8, 45, 0
1, 417412, Note_off_c, 13, 59, 0
1, 417412, Note_off_c, 13, 61, 0
1, 417564, Note_off_c, 1, 64, 0
1, 417592, Note_off_c, 2, 73, 64
1, 417592, Note_off_c, 2, 81, 64
1, 417592, Note_off_c, 3, 73, 64
1, 417592, Note_off_c, 3, 76, 64
1, 417592, Note_off_c, 4, 83, 0
1, 417592, Note_off_c, 5, 52, 0
1, 417592, Note_off_c, 5, 57, 0
1, 417600, Note_on_c, 1, 66, 78
1, 417600, Note_on_c, 2, 69, 100
1, 417600, Note_on_c, 2, 78, 100
1, 417600, Note_on_c, 3, 64, 100
1, 417600, Note_on_c, 3, 69, 100
1, 417600, Note_on_c, 4, 80, 100
1, 417600, Note_on_c, 5, 50, 100
1, 417600, Note_on_c, 5, 57, 100
1, 417600, Note_on_c, 7, 64, 70
1, 417600, Note_on_c, 7, 69, 83
1, 417600, Note_on_c, 7, 76, 74
1, 417600, Note_on_c, 8, 57, 100
1, 417600, Note_on_c, 8, 61, 100
1, 417600, Note_on_c, 13, 38, 100
1, 417600, Note_on_c, 13, 45, 100
1, 417840, Note_off_c, 7, 64, 0
1, 417840, Note_off_c, 7, 76, 0
1, 417850, Note_off_c, 7, 69, 0
1, 417882, Note_on_c, 10, 64, 68
1, 417882, Note_on_c, 10, 69, 70
1, 417882, Note_on_c, 10, 76, 74
1, 417892, Note_off_c, 8, 57, 0
1, 417892, Note_off_c, 8, 61, 0
1, 417892, Note_off_c, 13, 38, 0
1, 417892, Note_off_c, 13, 45, 0
1, 418072, Note_off_c, 2, 69, 64
1, 418072, Note_off_c, 2, 78, 64
1, 418072, Note_off_c, 3, 64, 64
1, 418072, Note_off_c, 3, 69, 64
1, 418072, Note_off_c, 4, 80, 0
1, 418080, Note_on_c, 6, 64, 67
1, 418080, Note_on_c, 6, 69, 67
1, 418080, Note_on_c, 6, 76, 72
1, 418080, Note_on_c, 8, 38, 100
1, 418080, Note_on_c, 8, 45, 100
1, 418080, Note_on_c, 13, 57, 100
1, 418080, Note_on_c, 13, 61, 100
1, 418114, Note_off_c, 10, 69, 0
1, 418124, Note_off_c, 10, 64, 0
1, 418132, Note_off_c, 10, 76, 0
1, 418268, Note_off_c, 1, 66, 0
1, 418326, Note_off_c, 6, 64, 0
1, 418330, Note_off_c, 6, 69, 0
1, 418346, Note_off_c, 6, 76, 0
1, 418372, Note_off_c, 8, 38, 0
1, 418372, Note_off_c, 8, 45, 0
1, 418372, Note_off_c, 13, 57, 0
1, 418372, Note_off_c, 13, 61, 0
1, 418560, Note_on_c, 1, 59, 74
1, 418560, Note_on_c, 2, 71, 100
1, 418560, Note_on_c, 2, 80, 100
1, 418560, Note_on_c, 3, 71, 100
1, 418560, Note_on_c, 3, 76, 100
1, 418560, Note_on_c, 4, 80, 100
1, 418560, Note_on_c, 7, 64, 67
1, 418560, Note_on_c, 7, 69, 78
1, 418560, Note_on_c, 7, 76, 73
1, 418560, Note_on_c, 8, 57, 100
1, 418560, Note_on_c, 8, 61, 100
1, 418560, Note_on_c, 13, 38, 100
1, 418560, Note_on_c, 13, 45, 100
1, 418810, Note_off_c, 7, 76, 0
1, 418816, Note_off_c, 7, 69, 0
1, 418824, Note_off_c, 7, 64, 0
1, 418842, Note_on_c, 10, 64, 68
1, 418842, Note_on_c, 10, 69, 69
1, 418842, Note_on_c, 10, 76, 72
1, 418852, Note_off_c, 8, 57, 0
1, 418852, Note_off_c, 8, 61, 0
1, 418852, Note_off_c, 13, 38, 0
1, 418852, Note_off_c, 13, 45, 0
1, 419032, Note_off_c, 2, 71, 64
1, 419032, Note_off_c, 2, 80, 64
1, 419032, Note_off_c, 3, 71, 64
1, 419032, Note_off_c, 3, 76, 64
1, 419032, Note_off_c, 4, 80, 0
1, 419040, Note_on_c, 1, 69, 75
1, 419040, Note_on_c, 2, 69, 100
1, 419040, Note_on_c, 2, 78, 100
1, 419040, Note_on_c, 3, 66, 100
1, 419040, Note_on_c, 3, 69, 100
1, 419040, Note_on_c, 4, 81, 100
1, 419040, Note_on_c, 6, 64, 67
1, 419040, Note_on_c, 6, 69, 63
1, 419040, Note_on_c, 6, 76, 72
1, 419040, Note_on_c, 8, 38, 100
1, 419040, Note_on_c, 8, 45, 100
1, 419040, Note_on_c, 13, 57, 100
1, 419040, Note_on_c, 13, 61, 100
1, 419048, Note_off_c, 1, 59, 0
1, 419058, Note_off_c, 10, 76, 0
1, 419060, Note_off_c, 10, 69, 0
1, 419074, Note_off_c, 10, 64, 0
1, 419288, Note_off_c, 6, 69, 0
1, 419316, Note_off_c, 6, 64, 0
1, 419332, Note_off_c, 6, 76, 0
1, 419332, Note_off_c, 8, 38, 0
1, 419332, Note_off_c, 8, 45, 0
1, 419332, Note_off_c, 13, 57, 0
1, 419332, Note_off_c, 13, 61, 0
1, 419512, Note_off_c, 2, 69, 64
1, 419512, Note_off_c, 2, 78, 64
1, 419512, Note_off_c, 3, 66, 64
1, 419512, Note_off_c, 3, 69, 64
1, 419512, Note_off_c, 4, 81, 0
1, 419520, Note_on_c, 1, 64, 73
1, 419520, Note_on_c, 2, 73, 100
1, 419520, Note_on_c, 2, 81, 100
1, 419520, Note_on_c, 3, 73, 100
1, 419520, Note_on_c, 3, 76, 100
1, 419520, Note_on_c, 4, 85, 100
1, 419520, Note_on_c, 7, 64, 69
1, 419520, Note_on_c, 7, 69, 70
1, 419520, Note_on_c, 7, 76, 73
1, 419520, Note_on_c, 8, 57, 100
1, 419520, Note_on_c, 8, 61, 100
1, 419520, Note_on_c, 13, 38, 100
1, 419520, Note_on_c, 13, 45, 100
1, 419646, Note_off_c, 1, 69, 0
1, 419740, Note_off_c, 7, 69, 0
1, 419762, Note_off_c, 7, 76, 0
1, 419772, Note_off_c, 7, 64, 0
1, 419802, Note_on_c, 10, 64, 67
1, 419802, Note_on_c, 10, 69, 67
1, 419802, Note_on_c, 10, 76, 72
1, 419812, Note_off_c, 8, 57, 0
1, 419812, Note_off_c, 8, 61, 0
1, 419812, Note_off_c, 13, 38, 0
1, 419812, Note_off_c, 13, 45, 0
1, 419992, Note_off_c, 2, 73, 64
1, 419992, Note_off_c, 2, 81, 64
1, 419992, Note_off_c, 3, 73, 64
1, 419992, Note_off_c, 3, 76, 64
1, 419992, Note_off_c, 4, 85, 0
1, 420000, Note_on_c, 6, 64, 68
1, 420000, Note_on_c, 6, 69, 66
1, 420000, Note_on_c, 6, 76, 70
1, 420000, Note_on_c, 8, 38, 100
1, 420000, Note_on_c, 8, 45, 100
1, 420000, Note_on_c, 13, 57, 100
1, 420000, Note_on_c, 13, 61, 100
1, 420048, Note_off_c, 10, 64, 0
1, 420052, Note_off_c, 10, 69, 0
1, 420068, Note_off_c, 10, 76, 0
1, 420196, Note_off_c, 6, 69, 0
1, 420220, Note_off_c, 6, 64, 0
1, 420226, Note_off_c, 1, 64, 0
1, 420238, Note_off_c, 6, 76, 0
1, 420292, Note_off_c, 8, 38, 0
1, 420292, Note_off_c, 8, 45, 0
1, 420292, Note_off_c, 13, 57, 0
1, 420292, Note_off_c, 13, 61, 0
1, 420472, Note_off_c, 5, 50, 0
1, 420472, Note_off_c, 5, 57, 0
1, 420480, Note_on_c, 1, 66, 68
1, 420480, Note_on_c, 2, 71, 100
1, 420480, Note_on_c, 2, 80, 100
1, 420480, Note_on_c, 3, 71, 100
1, 420480, Note_on_c, 3, 76, 100
1, 420480, Note_on_c, 4, 83, 100
1, 420480, Note_on_c, 5, 52, 100
1, 420480, Note_on_c, 5, 57, 100
1, 420480, Note_on_c, 7, 64, 69
1, 420480, Note_on_c, 7, 69, 75
1, 420480, Note_on_c, 7, 76, 73
1, 420480, Note_on_c, 8, 59, 100
1, 420480, Note_on_c, 8, 61, 100
1, 420480, Note_on_c, 13, 40, 100
1, 420480, Note_on_c, 13, 45, 100
1, 420694, Note_off_c, 7, 69, 0
1, 420710, Note_off_c, 7, 64, 0
1, 420724, Note_off_c, 7, 76, 0
1, 420762, Note_on_c, 10, 64, 67
1, 420762, Note_on_c, 10, 69, 63
1, 420762, Note_on_c, 10, 76, 72
1, 420772, Note_off_c, 8, 59, 0
1, 420772, Note_off_c, 8, 61, 0
1, 420772, Note_off_c, 13, 40, 0
1, 420772, Note_off_c, 13, 45, 0
1, 420952, Note_off_c, 2, 71, 64
1, 420952, Note_off_c, 2, 80, 64
1, 420952, Note_off_c, 3, 71, 64
1, 420952, Note_off_c, 3, 76, 64
1, 420952, Note_off_c, 4, 83, 0
1, 420960, Note_on_c, 1, 61, 68
1, 420960, Note_on_c, 2, 69, 100
1, 420960, Note_on_c, 2, 78, 100
1, 420960, Note_on_c, 3, 64, 100
1, 420960, Note_on_c, 3, 69, 100
1, 420960, Note_on_c, 4, 80, 100
1, 420960, Note_on_c, 6, 64, 68
1, 420960, Note_on_c, 6, 69, 63
1, 420960, Note_on_c, 6, 76, 72
1, 420960, Note_on_c, 8, 40, 100
1, 420960, Note_on_c, 8, 45, 100
1, 420960, Note_on_c, 13, 59, 100
1, 420960, Note_on_c, 13, 61, 100
1, 420996, Note_off_c, 1, 66, 0
1, 421010, Note_off_c, 10, 69, 0
1, 421038, Note_off_c, 10, 64, 0
1, 421054, Note_off_c, 10, 76, 0
1, 421170, Note_off_c, 6, 64, 0
1, 421204, Note_off_c, 6, 76, 0
1, 421222, Note_off_c, 6, 69, 0
1, 421252, Note_off_c, 8, 40, 0
1, 421252, Note_off_c, 8, 45, 0
1, 421252, Note_off_c, 13, 59, 0
1, 421252, Note_off_c, 13, 61, 0
1, 421432, Note_off_c, 2, 69, 64
1, 421432, Note_off_c, 2, 78, 64
1, 421432, Note_off_c, 3, 64, 64
1, 421432, Note_off_c, 3, 69, 64
1, 421432, Note_off_c, 4, 80, 0
1, 421440, Note_on_c, 7, 64, 68
1, 421440, Note_on_c, 7, 69, 74
1, 421440, Note_on_c, 7, 76, 74
1, 421440, Note_on_c, 8, 59, 100
1, 421440, Note_on_c, 8, 61, 100
1, 421440, Note_on_c, 13, 40, 100
1, 421440, Note_on_c, 13, 45, 100
1, 421664, Note_off_c, 7, 69, 0
1, 421704, Note_off_c, 7, 64, 0
1, 421714, Note_off_c, 7, 76, 0
1, 421722, Note_on_c, 10, 64, 68
1, 421722, Note_on_c, 10, 69, 66
1, 421722, Note_on_c, 10, 76, 70
1, 421730, Note_off_c, 1, 61, 0
1, 421732, Note_off_c, 8, 59, 0
1, 421732, Note_off_c, 8, 61, 0
1, 421732, Note_off_c, 13, 40, 0
1, 421732, Note_off_c, 13, 45, 0
1, 421918, Note_off_c, 10, 69, 0
1, 421920, Note_on_c, 1, 69, 77
1, 421920, Note_on_c, 2, 71, 100
1, 421920, Note_on_c, 2, 80, 100
1, 421920, Note_on_c, 3, 71, 100
1, 421920, Note_on_c, 3, 76, 100
1, 421920, Note_on_c, 4, 81, 100
1, 421920, Note_on_c, 6, 64, 70
1, 421920, Note_on_c, 6, 69, 69
1, 421920, Note_on_c, 6, 76, 72
1, 421920, Note_on_c, 8, 40, 100
1, 421920, Note_on_c, 8, 45, 100
1, 421920, Note_on_c, 13, 59, 100
1, 421920, Note_on_c, 13, 61, 100
1, 421942, Note_off_c, 10, 64, 0
1, 421960, Note_off_c, 10, 76, 0
1, 422154, Note_off_c, 6, 69, 0
1, 422182, Note_off_c, 6, 64, 0
1, 422182, Note_off_c, 6, 76, 0
1, 422212, Note_off_c, 8, 40, 0
1, 422212, Note_off_c, 8, 45, 0
1, 422212, Note_off_c, 13, 59, 0
1, 422212, Note_off_c, 13, 61, 0
1, 422392, Note_off_c, 2, 71, 64
1, 422392, Note_off_c, 2, 80, 64
1, 422392, Note_off_c, 3, 71, 64
1, 422392, Note_off_c, 3, 76, 64
1, 422392, Note_off_c, 4, 81, 0
1, 422400, Note_on_c, 7, 64, 68
1, 422400, Note_on_c, 7, 69, 73
1, 422400, Note_on_c, 7, 76, 73
1, 422400, Note_on_c, 8, 59, 100
1, 422400, Note_on_c, 8, 61, 100
1, 422400, Note_on_c, 13, 40, 100
1, 422400, Note_on_c, 13, 45, 100
1, 422544, Note_off_c, 1, 69, 0
1, 422624, Note_off_c, 7, 64, 0
1, 422648, Note_off_c, 7, 69, 0
1, 422648, Note_off_c, 7, 76, 0
1, 422682, Note_on_c, 10, 64, 68
1, 422682, Note_on_c, 10, 69, 63
1, 422682, Note_on_c, 10, 76, 72
1, 422692, Note_off_c, 8, 59, 0
1, 422692, Note_off_c, 8, 61, 0
1, 422692, Note_off_c, 13, 40, 0
1, 422692, Note_off_c, 13, 45, 0
1, 422880, Note_on_c, 1, 64, 70
1, 422880, Note_on_c, 2, 73, 100
1, 422880, Note_on_c, 2, 81, 100
1, 422880, Note_on_c, 3, 73, 100
1, 422880, Note_on_c, 3, 76, 100
1, 422880, Note_on_c, 4, 83, 100
1, 422880, Note_on_c, 6, 64, 68
1, 422880, Note_on_c, 6, 69, 70
1, 422880, Note_on_c, 6, 76, 70
1, 422880, Note_on_c, 8, 40, 100
1, 422880, Note_on_c, 8, 45, 100
1, 422880, Note_on_c, 13, 59, 100
1, 422880, Note_on_c, 13, 61, 100
1, 422892, Note_off_c, 10, 64, 0
1, 422926, Note_off_c, 10, 76, 0
1, 422944, Note_off_c, 10, 69, 0
1, 423088, Note_off_c, 6, 64, 0
1, 423116, Note_off_c, 6, 69, 0
1, 423120, Note_off_c, 6, 76, 0
1, 423172, Note_off_c, 8, 40, 0
1, 423172, Note_off_c, 8, 45, 0
1, 423172, Note_off_c, 13, 59, 0
1, 423172, Note_off_c, 13, 61, 0
1, 423352, Note_off_c, 2, 73, 64
1, 423352, Note_off_c, 2, 81, 64
1, 423352, Note_off_c, 3, 73, 64
1, 423352, Note_off_c, 3, 76, 64
1, 423352, Note_off_c, 4, 83, 0
1, 423352, Note_off_c, 5, 52, 0
1, 423352, Note_off_c, 5, 57, 0
1, 423360, Note_on_c, 1, 66, 77
1, 423360, Note_on_c, 2, 69, 100
1, 423360, Note_on_c, 2, 78, 100
1, 423360, Note_on_c, 3, 64, 100
1, 423360, Note_on_c, 3, 69, 100
1, 423360, Note_on_c, 4, 80, 100
1, 423360, Note_on_c, 5, 50, 100
1, 423360, Note_on_c, 5, 57, 100
1, 423360, Note_on_c, 7, 64, 66
1, 423360, Note_on_c, 7, 69, 74
1, 423360, Note_on_c, 7, 76, 73
1, 423360, Note_on_c, 8, 57, 100
1, 423360, Note_on_c, 8, 61, 100
1, 423360, Note_on_c, 13, 38, 100
1, 423360, Note_on_c, 13, 45, 100
1, 423512, Note_off_c, 1, 64, 0
1, 423594, Note_off_c, 7, 64, 0
1, 423614, Note_off_c, 7, 76, 0
1, 423642, Note_off_c, 7, 69, 0
1, 423642, Note_on_c, 10, 64, 70
1, 423642, Note_on_c, 10, 69, 69
1, 423642, Note_on_c, 10, 76, 72
1, 423652, Note_off_c, 8, 57, 0
1, 423652, Note_off_c, 8, 61, 0
1, 423652, Note_off_c, 13, 38, 0
1, 423652, Note_off_c, 13, 45, 0
1, 423832, Note_off_c, 2, 69, 64
1, 423832, Note_off_c, 2, 78, 64
1, 423832, Note_off_c, 3, 64, 64
1, 423832, Note_off_c, 3, 69, 64
1, 423832, Note_off_c, 4, 80, 0
1, 423840, Note_on_c, 6, 64, 67
1, 423840, Note_on_c, 6, 69, 73
1, 423840, Note_on_c, 6, 76, 74
1, 423840, Note_on_c, 8, 38, 100
1, 423840, Note_on_c, 8, 45, 100
1, 423840, Note_on_c, 13, 57, 100
1, 423840, Note_on_c, 13, 61, 100
1, 423876, Note_off_c, 10, 69, 0
1, 423904, Note_off_c, 10, 64, 0
1, 423904, Note_off_c, 10, 76, 0
1, 424004, Note_off_c, 1, 66, 0
1, 424056, Note_off_c, 6, 64, 0
1, 424076, Note_off_c, 6, 76, 0
1, 424086, Note_off_c, 6, 69, 0
1, 424132, Note_off_c, 8, 38, 0
1, 424132, Note_off_c, 8, 45, 0
1, 424132, Note_off_c, 13, 57, 0
1, 424132, Note_off_c, 13, 61, 0
1, 424320, Note_on_c, 1, 59, 65
1, 424320, Note_on_c, 2, 71, 100
1, 424320, Note_on_c, 2, 80, 100
1, 424320, Note_on_c, 3, 71, 100
1, 424320, Note_on_c, 3, 76, 100
1, 424320, Note_on_c, 4, 80, 100
1, 424320, Note_on_c, 7, 64, 66
1, 424320, Note_on_c, 7, 69, 77
1, 424320, Note_on_c, 7, 76, 70
1, 424320, Note_on_c, 8, 57, 100
1, 424320, Note_on_c, 8, 61, 100
1, 424320, Note_on_c, 13, 38, 100
1, 424320, Note_on_c, 13, 45, 100
1, 424548, Note_off_c, 7, 64, 0
1, 424602, Note_on_c, 10, 64, 68
1, 424602, Note_on_c, 10, 69, 70
1, 424602, Note_on_c, 10, 76, 70
1, 424606, Note_off_c, 7, 69, 0
1, 424612, Note_off_c, 8, 57, 0
1, 424612, Note_off_c, 8, 61, 0
1, 424612, Note_off_c, 13, 38, 0
1, 424612, Note_off_c, 13, 45, 0
1, 424630, Note_off_c, 7, 76, 0
1, 424792, Note_off_c, 2, 71, 64
1, 424792, Note_off_c, 2, 80, 64
1, 424792, Note_off_c, 3, 71, 64
1, 424792, Note_off_c, 3, 76, 64
1, 424792, Note_off_c, 4, 80, 0
1, 424800, Note_on_c, 1, 69, 74
1, 424800, Note_on_c, 2, 69, 100
1, 424800, Note_on_c, 2, 78, 100
1, 424800, Note_on_c, 3, 66, 100
1, 424800, Note_on_c, 3, 69, 100
1, 424800, Note_on_c, 4, 81, 100
1, 424800, Note_on_c, 6, 64, 68
1, 424800, Note_on_c, 6, 69, 74
1, 424800, Note_on_c, 6, 76, 75
1, 424800, Note_on_c, 8, 38, 100
1, 424800, Note_on_c, 8, 45, 100
1, 424800, Note_on_c, 13, 57, 100
1, 424800, Note_on_c, 13, 61, 100
1, 424810, Note_off_c, 10, 64, 0
1, 424838, Note_off_c, 10, 69, 0
1, 424842, Note_off_c, 10, 76, 0
1, 424894, Note_off_c, 1, 59, 0
1, 425072, Note_off_c, 6, 69, 0
1, 425076, Note_off_c, 6, 64, 0
1, 425090, Note_off_c, 6, 76, 0
1, 425092, Note_off_c, 8, 38, 0
1, 425092, Note_off_c, 8, 45, 0
1, 425092, Note_off_c, 13, 57, 0
1, 425092, Note_off_c, 13, 61, 0
1, 425272, Note_off_c, 2, 69, 64
1, 425272, Note_off_c, 2, 78, 64
1, 425272, Note_off_c, 3, 66, 64
1, 425272, Note_off_c, 3, 69, 64
1, 425272, Note_off_c, 4, 81, 0
1, 425272, Note_off_c, 5, 50, 0
1, 425272, Note_off_c, 5, 57, 0
1, 425280, Note_on_c, 1, 64, 68
1, 425280, Note_on_c, 2, 73, 100
1, 425280, Note_on_c, 2, 81, 100
1, 425280, Note_on_c, 3, 73, 100
1, 425280, Note_on_c, 3, 76, 100
1, 425280, Note_on_c, 4, 85, 100
1, 425280, Note_on_c, 5, 52, 100
1, 425280, Note_on_c, 5, 57, 100
1, 425280, Note_on_c, 7, 64, 65
1, 425280, Note_on_c, 7, 69, 72
1, 425280, Note_on_c, 7, 76, 72
1, 425280, Note_on_c, 8, 59, 100
1, 425280, Note_on_c, 8, 61, 100
1, 425280, Note_on_c, 13, 40, 100
1, 425280, Note_on_c, 13, 45, 100
1, 425492, Note_off_c, 1, 69, 0
1, 425556, Note_off_c, 7, 64, 0
1, 425562, Note_on_c, 10, 64, 67
1, 425562, Note_on_c, 10, 69, 73
1, 425562, Note_on_c, 10, 76, 74
1, 425570, Note_off_c, 7, 69, 0
1, 425572, Note_off_c, 7, 76, 0
1, 425572, Note_off_c, 8, 59, 0
1, 425572, Note_off_c, 8, 61, 0
1, 425572, Note_off_c, 13, 40, 0
1, 425572, Note_off_c, 13, 45, 0
1, 425752, Note_off_c, 2, 73, 64
1, 425752, Note_off_c, 2, 81, 64
1, 425752, Note_off_c, 3, 73, 64
1, 425752, Note_off_c, 3, 76, 64
1, 425752, Note_off_c, 4, 85, 0
1, 425760, Note_on_c, 6, 64, 73
1, 425760, Note_on_c, 6, 69, 80
1, 425760, Note_on_c, 6, 76, 77
1, 425760, Note_on_c, 8, 40, 100
1, 425760, Note_on_c, 8, 45, 100
1, 425760, Note_on_c, 13, 59, 100
1, 425760, Note_on_c, 13, 61, 100
1, 425778, Note_off_c, 10, 64, 0
1, 425798, Note_off_c, 10, 76, 0
1, 425808, Note_off_c, 10, 69, 0
1, 425894, Note_off_c, 1, 64, 0
1, 426022, Note_off_c, 6, 64, 0
1, 426038, Note_off_c, 6, 69, 0
1, 426048, Note_off_c, 6, 76, 0
1, 426052, Note_off_c, 8, 40, 0
1, 426052, Note_off_c, 8, 45, 0
1, 426052, Note_off_c, 13, 59, 0
1, 426052, Note_off_c, 13, 61, 0
1, 426240, Note_on_c, 1, 66, 77
1, 426240, Note_on_c, 3, 71, 100
1, 426240, Note_on_c, 3, 76, 100
1, 426240, Note_on_c, 7, 64, 67
1, 426240, Note_on_c, 7, 69, 75
1, 426240, Note_on_c, 7, 76, 70
1, 426240, Note_on_c, 8, 59, 100
1, 426240, Note_on_c, 8, 61, 100
1, 426240, Note_on_c, 13, 40, 100
1, 426240, Note_on_c, 13, 45, 100
1, 426470, Note_off_c, 7, 69, 0
1, 426488, Note_off_c, 7, 64, 0
1, 426498, Note_off_c, 7, 76, 0
1, 426522, Note_on_c, 10, 64, 68
1, 426522, Note_on_c, 10, 69, 74
1, 426522, Note_on_c, 10, 76, 75
1, 426532, Note_off_c, 8, 59, 0
1, 426532, Note_off_c, 8, 61, 0
1, 426532, Note_off_c, 13, 40, 0
1, 426532, Note_off_c, 13, 45, 0
1, 426712, Note_off_c, 3, 71, 64
1, 426712, Note_off_c, 3, 76, 64
1, 426720, Note_on_c, 1, 61, 70
1, 426720, Note_on_c, 3, 64, 100
1, 426720, Note_on_c, 3, 69, 100
1, 426720, Note_on_c, 6, 64, 68
1, 426720, Note_on_c, 6, 69, 70
1, 426720, Note_on_c, 6, 76, 74
1, 426720, Note_on_c, 8, 40, 100
1, 426720, Note_on_c, 8, 45, 100
1, 426720, Note_on_c, 13, 59, 100
1, 426720, Note_on_c, 13, 61, 100
1, 426794, Note_off_c, 10, 69, 0
1, 426798, Note_off_c, 10, 64, 0
1, 426812, Note_off_c, 10, 76, 0
1, 426882, Note_off_c, 1, 66, 0
1, 427006, Note_off_c, 6, 64, 0
1, 427012, Note_off_c, 8, 40, 0
1, 427012, Note_off_c, 8, 45, 0
1, 427012, Note_off_c, 13, 59, 0
1, 427012, Note_off_c, 13, 61, 0
1, 427018, Note_off_c, 6, 69, 0
1, 427018, Note_off_c, 6, 76, 0
1, 427192, Note_off_c, 3, 64, 64
1, 427192, Note_off_c, 3, 69, 64
1, 427200, Note_on_c, 7, 64, 66
1, 427200, Note_on_c, 7, 69, 68
1, 427200, Note_on_c, 7, 76, 72
1, 427200, Note_on_c, 8, 59, 100
1, 427200, Note_on_c, 8, 61, 100
1, 427200, Note_on_c, 13, 40, 100
1, 427200, Note_on_c, 13, 45, 100
1, 427348, Note_off_c, 1, 61, 0
1, 427460, Note_off_c, 7, 69, 0
1, 427470, Note_off_c, 7, 64, 0
1, 427474, Note_off_c, 7, 76, 0
1, 427482, Note_on_c, 10, 64, 73
1, 427482, Note_on_c, 10, 69, 80
1, 427482, Note_on_c, 10, 76, 77
1, 427492, Note_off_c, 8, 59, 0
1, 427492, Note_off_c, 8, 61, 0
1, 427492, Note_off_c, 13, 40, 0
1, 427492, Note_off_c, 13, 45, 0
1, 427680, Note_on_c, 1, 69, 77
1, 427680, Note_on_c, 3, 71, 100
1, 427680, Note_on_c, 3, 76, 100
1, 427680, Note_on_c, 6, 64, 70
1, 427680, Note_on_c, 6, 69, 74
1, 427680, Note_on_c, 6, 76, 74
1, 427680, Note_on_c, 8, 40, 100
1, 427680, Note_on_c, 8, 45, 100
1, 427680, Note_on_c, 13, 59, 100
1, 427680, Note_on_c, 13, 61, 100
1, 427744, Note_off_c, 10, 64, 0
1, 427760, Note_off_c, 10, 69, 0
1, 427770, Note_off_c, 10, 76, 0
1, 427884, Note_off_c, 6, 64, 0
1, 427914, Note_off_c, 6, 76, 0
1, 427952, Note_off_c, 6, 69, 0
1, 427972, Note_off_c, 8, 40, 0
1, 427972, Note_off_c, 8, 45, 0
1, 427972, Note_off_c, 13, 59, 0
1, 427972, Note_off_c, 13, 61, 0
1, 428152, Note_off_c, 3, 71, 64
1, 428152, Note_off_c, 3, 76, 64
1, 428160, Note_on_c, 7, 64, 62
1, 428160, Note_on_c, 7, 69, 60
1, 428160, Note_on_c, 7, 76, 70
1, 428160, Note_on_c, 8, 59, 100
1, 428160, Note_on_c, 8, 61, 100
1, 428160, Note_on_c, 13, 40, 100
1, 428160, Note_on_c, 13, 45, 100
1, 428328, Note_off_c, 1, 69, 0
1, 428420, Note_off_c, 7, 69, 0
1, 428438, Note_off_c, 7, 64, 0
1, 428442, Note_on_c, 10, 64, 68
1, 428442, Note_on_c, 10, 69, 70
1, 428442, Note_on_c, 10, 76, 74
1, 428452, Note_off_c, 8, 59, 0
1, 428452, Note_off_c, 8, 61, 0
1, 428452, Note_off_c, 13, 40, 0
1, 428452, Note_off_c, 13, 45, 0
1, 428498, Note_off_c, 7, 76, 0
1, 428640, Note_on_c, 1, 64, 68
1, 428640, Note_on_c, 3, 73, 100
1, 428640, Note_on_c, 3, 76, 100
1, 428640, Note_on_c, 6, 64, 68
1, 428640, Note_on_c, 6, 69, 68
1, 428640, Note_on_c, 6, 76, 72
1, 428640, Note_on_c, 8, 40, 100
1, 428640, Note_on_c, 8, 45, 100
1, 428640, Note_on_c, 13, 59, 100
1, 428640, Note_on_c, 13, 61, 100
1, 428728, Note_off_c, 10, 64, 0
1, 428740, Note_off_c, 10, 69, 0
1, 428740, Note_off_c, 10, 76, 0
1, 428846, Note_off_c, 6, 69, 0
1, 428854, Note_off_c, 6, 64, 0
1, 428864, Note_off_c, 6, 76, 0
1, 428932, Note_off_c, 8, 40, 0
1, 428932, Note_off_c, 8, 45, 0
1, 428932, Note_off_c, 13, 59, 0
1, 428932, Note_off_c, 13, 61, 0
1, 429084, Note_off_c, 1, 64, 0
1, 429112, Note_off_c, 3, 73, 64
1, 429112, Note_off_c, 3, 76, 64
1, 429112, Note_off_c, 5, 52, 0
1, 429112, Note_off_c, 5, 57, 0
1, 429120, Note_on_c, 0, 61, 16
1, 429120, Note_on_c, 0, 68, 16
1, 429120, Note_on_c, 1, 66, 78
1, 429120, Note_on_c, 2, 69, 100
1, 429120, Note_on_c, 2, 78, 100
1, 429120, Note_on_c, 3, 64, 100
1, 429120, Note_on_c, 3, 69, 100
1, 429120, Note_on_c, 4, 78, 100
1, 429120, Note_on_c, 5, 50, 100
1, 429120, Note_on_c, 5, 57, 100
1, 429120, Note_on_c, 7, 64, 56
1, 429120, Note_on_c, 7, 69, 69
1, 429120, Note_on_c, 7, 76, 73
1, 429120, Note_on_c, 8, 57, 100
1, 429120, Note_on_c, 8, 61, 100
1, 429120, Note_on_c, 13, 38, 100
1, 429120, Note_on_c, 13, 45, 100
1, 429386, Note_off_c, 7, 64, 0
1, 429402, Note_on_c, 10, 64, 70
1, 429402, Note_on_c, 10, 69, 74
1, 429402, Note_on_c, 10, 76, 74
1, 429412, Note_off_c, 8, 57, 0
1, 429412, Note_off_c, 8, 61, 0
1, 429412, Note_off_c, 13, 38, 0
1, 429412, Note_off_c, 13, 45, 0
1, 429414, Note_off_c, 7, 69, 0
1, 429422, Note_off_c, 7, 76, 0
1, 429592, Note_off_c, 0, 61, 64
1, 429592, Note_off_c, 0, 68, 64
1, 429592, Note_off_c, 2, 69, 64
1, 429592, Note_off_c, 2, 78, 64
1, 429592, Note_off_c, 3, 64, 64
1, 429592, Note_off_c, 3, 69, 64
1, 429592, Note_off_c, 4, 78, 0
1, 429600, Note_on_c, 6, 64, 70
1, 429600, Note_on_c, 6, 69, 70
1, 429600, Note_on_c, 6, 76, 75
1, 429600, Note_on_c, 8, 38, 100
1, 429600, Note_on_c, 8, 45, 100
1, 429600, Note_on_c, 13, 57, 100
1, 429600, Note_on_c, 13, 61, 100
1, 429606, Note_off_c, 10, 64, 0
1, 429636, Note_off_c, 10, 76, 0
1, 429674, Note_off_c, 10, 69, 0
1, 429788, Note_off_c, 1, 66, 0
1, 429828, Note_off_c, 6, 69, 0
1, 429870, Note_off_c, 6, 64, 0
1, 429892, Note_off_c, 8, 38, 0
1, 429892, Note_off_c, 8, 45, 0
1, 429892, Note_off_c, 13, 57, 0
1, 429892, Note_off_c, 13, 61, 0
1, 429908, Note_off_c, 6, 76, 0
1, 430080, Note_on_c, 0, 61, 22
1, 430080, Note_on_c, 0, 68, 22
1, 430080, Note_on_c, 1, 59, 74
1, 430080, Note_on_c, 2, 71, 100
1, 430080, Note_on_c, 2, 80, 100
1, 430080, Note_on_c, 3, 71, 100
1, 430080, Note_on_c, 3, 76, 100
1, 430080, Note_on_c, 4, 80, 100
1, 430080, Note_on_c, 7, 64, 66
1, 430080, Note_on_c, 7, 69, 70
1, 430080, Note_on_c, 7, 76, 75
1, 430080, Note_on_c, 8, 57, 100
1, 430080, Note_on_c, 8, 61, 100
1, 430080, Note_on_c, 13, 38, 100
1, 430080, Note_on_c, 13, 45, 100
1, 430330, Note_off_c, 7, 69, 0
1, 430344, Note_off_c, 7, 64, 0
1, 430362, Note_on_c, 10, 64, 68
1, 430362, Note_on_c, 10, 69, 68
1, 430362, Note_on_c, 10, 76, 72
1, 430370, Note_off_c, 7, 76, 0
1, 430372, Note_off_c, 8, 57, 0
1, 430372, Note_off_c, 8, 61, 0
1, 430372, Note_off_c, 13, 38, 0
1, 430372, Note_off_c, 13, 45, 0
1, 430552, Note_off_c, 0, 61, 64
1, 430552, Note_off_c, 0, 68, 64
1, 430552, Note_off_c, 2, 71, 64
1, 430552, Note_off_c, 2, 80, 64
1, 430552, Note_off_c, 3, 71, 64
1, 430552, Note_off_c, 3, 76, 64
1, 430552, Note_off_c, 4, 80, 0
1, 430560, Note_on_c, 0, 64, 27
1, 430560, Note_on_c, 0, 69, 27
1, 430560, Note_on_c, 1, 69, 75
1, 430560, Note_on_c, 2, 69, 100
1, 430560, Note_on_c, 2, 78, 100
1, 430560, Note_on_c, 3, 66, 100
1, 430560, Note_on_c, 3, 69, 100
1, 430560, Note_on_c, 4, 81, 100
1, 430560, Note_on_c, 6, 64, 69
1, 430560, Note_on_c, 6, 69, 69
1, 430560, Note_on_c, 6, 76, 73
1, 430560, Note_on_c, 8, 38, 100
1, 430560, Note_on_c, 8, 45, 100
1, 430560, Note_on_c, 13, 57, 100
1, 430560, Note_on_c, 13, 61, 100
1, 430568, Note_off_c, 1, 59, 0
1, 430568, Note_off_c, 10, 69, 0
1, 430576, Note_off_c, 10, 64, 0
1, 430586, Note_off_c, 10, 76, 0
1, 430826, Note_off_c, 6, 64, 0
1, 430852, Note_off_c, 8, 38, 0
1, 430852, Note_off_c, 8, 45, 0
1, 430852, Note_off_c, 13, 57, 0
1, 430852, Note_off_c, 13, 61, 0
1, 430864, Note_off_c, 6, 69, 0
1, 430864, Note_off_c, 6, 76, 0
1, 431032, Note_off_c, 0, 64, 64
1, 431032, Note_off_c, 0, 69, 64
1, 431032, Note_off_c, 2, 69, 64
1, 431032, Note_off_c, 2, 78, 64
1, 431032, Note_off_c, 3, 66, 64
1, 431032, Note_off_c, 3, 69, 64
1, 431032, Note_off_c, 4, 81, 0
1, 431040, Note_on_c, 0, 68, 33
1, 431040, Note_on_c, 0, 73, 33
1, 431040, Note_on_c, 1, 64, 73
1, 431040, Note_on_c, 2, 73, 100
1, 431040, Note_on_c, 2, 81, 100
1, 431040, Note_on_c, 3, 73, 100
1, 431040, Note_on_c, 3, 76, 100
1, 431040, Note_on_c, 4, 85, 100
1, 431040, Note_on_c, 7, 64, 66
1, 431040, Note_on_c, 7, 69, 70
1, 431040, Note_on_c, 7, 76, 75
1, 431040, Note_on_c, 8, 57, 100
1, 431040, Note_on_c, 8, 61, 100
1, 431040, Note_on_c, 13, 38, 100
1, 431040, Note_on_c, 13, 45, 100
1, 431166, Note_off_c, 1, 69, 0
1, 431290, Note_off_c, 7, 69, 0
1, 431304, Note_off_c, 7, 64, 0
1, 431322, Note_on_c, 10, 64, 70
1, 431322, Note_on_c, 10, 69, 70
1, 431322, Note_on_c, 10, 76, 75
1, 431330, Note_off_c, 7, 76, 0
1, 431332, Note_off_c, 8, 57, 0
1, 431332, Note_off_c, 8, 61, 0
1, 431332, Note_off_c, 13, 38, 0
1, 431332, Note_off_c, 13, 45, 0
1, 431512, Note_off_c, 0, 68, 64
1, 431512, Note_off_c, 0, 73, 64
1, 431512, Note_off_c, 2, 73, 64
1, 431512, Note_off_c, 2, 81, 64
1, 431512, Note_off_c, 3, 73, 64
1, 431512, Note_off_c, 3, 76, 64
1, 431512, Note_off_c, 4, 85, 0
1, 431520, Note_on_c, 6, 64, 67
1, 431520, Note_on_c, 6, 69, 63
1, 431520, Note_on_c, 6, 76, 74
1, 431520, Note_on_c, 8, 38, 100
1, 431520, Note_on_c, 8, 45, 100
1, 431520, Note_on_c, 13, 57, 100
1, 431520, Note_on_c, 13, 61, 100
1, 431550, Note_off_c, 10, 69, 0
1, 431592, Note_off_c, 10, 64, 0
1, 431630, Note_off_c, 10, 76, 0
1, 431724, Note_off_c, 6, 69, 0
1, 431746, Note_off_c, 1, 64, 0
1, 431786, Note_off_c, 6, 64, 0
1, 431786, Note_off_c, 6, 76, 0
1, 431812, Note_off_c, 8, 38, 0
1, 431812, Note_off_c, 8, 45, 0
1, 431812, Note_off_c, 13, 57, 0
1, 431812, Note_off_c, 13, 61, 0
1, 432000, Note_on_c, 0, 66, 40
1, 432000, Note_on_c, 0, 71, 40
1, 432000, Note_on_c, 1, 66, 68
1, 432000, Note_on_c, 2, 71, 100
1, 432000, Note_on_c, 2, 80, 100
1, 432000, Note_on_c, 3, 71, 100
1, 432000, Note_on_c, 3, 76, 100
1, 432000, Note_on_c, 4, 83, 100
1, 432000, Note_on_c, 7, 64, 72
1, 432000, Note_on_c, 7, 69, 80
1, 432000, Note_on_c, 7, 76, 77
1, 432000, Note_on_c, 8, 57, 100
1, 432000, Note_on_c, 8, 61, 100
1, 432000, Note_on_c, 13, 38, 100
1, 432000, Note_on_c, 13, 45, 100
1, 432240, Note_off_c, 7, 76, 0
1, 432250, Note_off_c, 7, 64, 0
1, 432250, Note_off_c, 7, 69, 0
1, 432282, Note_on_c, 10, 64, 69
1, 432282, Note_on_c, 10, 69, 69
1, 432282, Note_on_c, 10, 76, 73
1, 432292, Note_off_c, 8, 57, 0
1, 432292, Note_off_c, 8, 61, 0
1, 432292, Note_off_c, 13, 38, 0
1, 432292, Note_off_c, 13, 45, 0
1, 432472, Note_off_c, 0, 66, 64
1, 432472, Note_off_c, 0, 71, 64
1, 432472, Note_off_c, 2, 71, 64
1, 432472, Note_off_c, 2, 80, 64
1, 432472, Note_off_c, 3, 71, 64
1, 432472, Note_off_c, 3, 76, 64
1, 432472, Note_off_c, 4, 83, 0
1, 432480, Note_on_c, 0, 61, 44
1, 432480, Note_on_c, 0, 68, 44
1, 432480, Note_on_c, 1, 61, 68
1, 432480, Note_on_c, 2, 69, 100
1, 432480, Note_on_c, 2, 78, 100
1, 432480, Note_on_c, 3, 64, 100
1, 432480, Note_on_c, 3, 69, 100
1, 432480, Note_on_c, 4, 80, 100
1, 432480, Note_on_c, 6, 64, 66
1, 432480, Note_on_c, 6, 69, 63
1, 432480, Note_on_c, 6, 76, 74
1, 432480, Note_on_c, 8, 38, 100
1, 432480, Note_on_c, 8, 45, 100
1, 432480, Note_on_c, 13, 57, 100
1, 432480, Note_on_c, 13, 61, 100
1, 432516, Note_off_c, 1, 66, 0
1, 432548, Note_off_c, 10, 64, 0
1, 432586, Note_off_c, 10, 69, 0
1, 432586, Note_off_c, 10, 76, 0
1, 432710, Note_off_c, 6, 69, 0
1, 432716, Note_off_c, 6, 64, 0
1, 432754, Note_off_c, 6, 76, 0
1, 432772, Note_off_c, 8, 38, 0
1, 432772, Note_off_c, 8, 45, 0
1, 432772, Note_off_c, 13, 57, 0
1, 432772, Note_off_c, 13, 61, 0
1, 432952, Note_off_c, 0, 61, 64
1, 432952, Note_off_c, 0, 68, 64
1, 432952, Note_off_c, 2, 69, 64
1, 432952, Note_off_c, 2, 78, 64
1, 432952, Note_off_c, 3, 64, 64
1, 432952, Note_off_c, 3, 69, 64
1, 432952, Note_off_c, 4, 80, 0
1, 432960, Note_on_c, 7, 64, 70
1, 432960, Note_on_c, 7, 69, 77
1, 432960, Note_on_c, 7, 76, 77
1, 432960, Note_on_c, 8, 57, 100
1, 432960, Note_on_c, 8, 61, 100
1, 432960, Note_on_c, 13, 38, 100
1, 432960, Note_on_c, 13, 45, 100
1, 433214, Note_off_c, 7, 64, 0
1, 433242, Note_off_c, 7, 69, 0
1, 433242, Note_on_c, 10, 64, 67
1, 433242, Note_on_c, 10, 69, 63
1, 433242, Note_on_c, 10, 76, 74
1, 433250, Note_off_c, 1, 61, 0
1, 433250, Note_off_c, 7, 76, 0
1, 433252, Note_off_c, 8, 57, 0
1, 433252, Note_off_c, 8, 61, 0
1, 433252, Note_off_c, 13, 38, 0
1, 433252, Note_off_c, 13, 45, 0
1, 433440, Note_on_c, 0, 64, 51
1, 433440, Note_on_c, 0, 69, 51
1, 433440, Note_on_c, 1, 69, 77
1, 433440, Note_on_c, 2, 71, 100
1, 433440, Note_on_c, 2, 80, 100
1, 433440, Note_on_c, 3, 71, 100
1, 433440, Note_on_c, 3, 76, 100
1, 433440, Note_on_c, 4, 81, 100
1, 433440, Note_on_c, 6, 64, 68
1, 433440, Note_on_c, 6, 69, 74
1, 433440, Note_on_c, 6, 76, 74
1, 433440, Note_on_c, 8, 38, 100
1, 433440, Note_on_c, 8, 45, 100
1, 433440, Note_on_c, 13, 57, 100
1, 433440, Note_on_c, 13, 61, 100
1, 433446, Note_off_c, 10, 69, 0
1, 433508, Note_off_c, 10, 64, 0
1, 433508, Note_off_c, 10, 76, 0
1, 433700, Note_off_c, 6, 69, 0
1, 433730, Note_off_c, 6, 76, 0
1, 433732, Note_off_c, 8, 38, 0
1, 433732, Note_off_c, 8, 45, 0
1, 433732, Note_off_c, 13, 57, 0
1, 433732, Note_off_c, 13, 61, 0
1, 433734, Note_off_c, 6, 64, 0
1, 433912, Note_off_c, 0, 64, 64
1, 433912, Note_off_c, 0, 69, 64
1, 433912, Note_off_c, 2, 71, 64
1, 433912, Note_off_c, 2, 80, 64
1, 433912, Note_off_c, 3, 71, 64
1, 433912, Note_off_c, 3, 76, 64
1, 433912, Note_off_c, 4, 81, 0
1, 433920, Note_on_c, 7, 64, 70
1, 433920, Note_on_c, 7, 69, 73
1, 433920, Note_on_c, 7, 76, 74
1, 433920, Note_on_c, 8, 57, 100
1, 433920, Note_on_c, 8, 61, 100
1, 433920, Note_on_c, 13, 38, 100
1, 433920, Note_on_c, 13, 45, 100
1, 434064, Note_off_c, 1, 69, 0
1, 434160, Note_off_c, 7, 64, 0
1, 434166, Note_off_c, 7, 69, 0
1, 434180, Note_off_c, 7, 76, 0
1, 434202, Note_on_c, 10, 64, 66
1, 434202, Note_on_c, 10, 69, 63
1, 434202, Note_on_c, 10, 76, 74
1, 434212, Note_off_c, 8, 57, 0
1, 434212, Note_off_c, 8, 61, 0
1, 434212, Note_off_c, 13, 38, 0
1, 434212, Note_off_c, 13, 45, 0
1, 434400, Note_on_c, 0, 66, 58
1, 434400, Note_on_c, 0, 71, 58
1, 434400, Note_on_c, 1, 64, 70
1, 434400, Note_on_c, 2, 73, 100
1, 434400, Note_on_c, 2, 81, 100
1, 434400, Note_on_c, 3, 73, 100
1, 434400, Note_on_c, 3, 76, 100
1, 434400, Note_on_c, 4, 83, 100
1, 434400, Note_on_c, 6, 64, 73
1, 434400, Note_on_c, 6, 69, 82
1, 434400, Note_on_c, 6, 76, 77
1, 434400, Note_on_c, 8, 38, 100
1, 434400, Note_on_c, 8, 45, 100
1, 434400, Note_on_c, 13, 57, 100
1, 434400, Note_on_c, 13, 61, 100
1, 434432, Note_off_c, 10, 69, 0
1, 434438, Note_off_c, 10, 64, 0
1, 434476, Note_off_c, 10, 76, 0
1, 434678, Note_off_c, 6, 69, 0
1, 434690, Note_off_c, 6, 64, 0
1, 434692, Note_off_c, 8, 38, 0
1, 434692, Note_off_c, 8, 45, 0
1, 434692, Note_off_c, 13, 57, 0
1, 434692, Note_off_c, 13, 61, 0
1, 434698, Note_off_c, 6, 76, 0
1, 434872, Note_off_c, 0, 66, 64
1, 434872, Note_off_c, 0, 71, 64
1, 434872, Note_off_c, 2, 73, 64
1, 434872, Note_off_c, 2, 81, 64
1, 434872, Note_off_c, 3, 73, 64
1, 434872, Note_off_c, 3, 76, 64
1, 434872, Note_off_c, 4, 83, 0
1, 434872, Note_off_c, 5, 50, 0
1, 434872, Note_off_c, 5, 57, 0
1, 434880, Note_on_c, 0, 61, 62
1, 434880, Note_on_c, 0, 68, 62
1, 434880, Note_on_c, 1, 66, 77
1, 434880, Note_on_c, 2, 69, 100
1, 434880, Note_on_c, 2, 78, 100
1, 434880, Note_on_c, 3, 64, 100
1, 434880, Note_on_c, 3, 69, 100
1, 434880, Note_on_c, 4, 80, 100
1, 434880, Note_on_c, 5, 52, 100
1, 434880, Note_on_c, 5, 57, 100
1, 434880, Note_on_c, 7, 64, 72
1, 434880, Note_on_c, 7, 69, 77
1, 434880, Note_on_c, 7, 76, 75
1, 434880, Note_on_c, 8, 59, 100
1, 434880, Note_on_c, 8, 61, 100
1, 434880, Note_on_c, 13, 40, 100
1, 434880, Note_on_c, 13, 45, 100
1, 435032, Note_off_c, 1, 64, 0
1, 435088, Note_off_c, 7, 69, 0
1, 435102, Note_off_c, 7, 64, 0
1, 435122, Note_off_c, 7, 76, 0
1, 435162, Note_on_c, 10, 64, 68
1, 435162, Note_on_c, 10, 69, 74
1, 435162, Note_on_c, 10, 76, 74
1, 435172, Note_off_c, 8, 59, 0
1, 435172, Note_off_c, 8, 61, 0
1, 435172, Note_off_c, 13, 40, 0
1, 435172, Note_off_c, 13, 45, 0
1, 435352, Note_off_c, 0, 61, 64
1, 435352, Note_off_c, 0, 68, 64
1, 435352, Note_off_c, 2, 69, 64
1, 435352, Note_off_c, 2, 78, 64
1, 435352, Note_off_c, 3, 64, 64
1, 435352, Note_off_c, 3, 69, 64
1, 435352, Note_off_c, 4, 80, 0
1, 435360, Note_on_c, 6, 64, 72
1, 435360, Note_on_c, 6, 69, 75
1, 435360, Note_on_c, 6, 76, 73
1, 435360, Note_on_c, 8, 40, 100
1, 435360, Note_on_c, 8, 45, 100
1, 435360, Note_on_c, 13, 59, 100
1, 435360, Note_on_c, 13, 61, 100
1, 435422, Note_off_c, 10, 69, 0
1, 435452, Note_off_c, 10, 76, 0
1, 435456, Note_off_c, 10, 64, 0
1, 435524, Note_off_c, 1, 66, 0
1, 435648, Note_off_c, 6, 76, 0
1, 435650, Note_off_c, 6, 69, 0
1, 435652, Note_off_c, 8, 40, 0
1, 435652, Note_off_c, 8, 45, 0
1, 435652, Note_off_c, 13, 59, 0
1, 435652, Note_off_c, 13, 61, 0
1, 435658, Note_off_c, 6, 64, 0
1, 435840, Note_on_c, 0, 61, 68
1, 435840, Note_on_c, 0, 68, 68
1, 435840, Note_on_c, 1, 59, 65
1, 435840, Note_on_c, 2, 71, 100
1, 435840, Note_on_c, 2, 80, 100
1, 435840, Note_on_c, 3, 71, 100
1, 435840, Note_on_c, 3, 76, 100
1, 435840, Note_on_c, 4, 80, 100
1, 435840, Note_on_c, 7, 64, 70
1, 435840, Note_on_c, 7, 69, 78
1, 435840, Note_on_c, 7, 76, 77
1, 435840, Note_on_c, 8, 59, 100
1, 435840, Note_on_c, 8, 61, 100
1, 435840, Note_on_c, 13, 40, 100
1, 435840, Note_on_c, 13, 45, 100
1, 436082, Note_off_c, 7, 64, 0
1, 436104, Note_off_c, 7, 76, 0
1, 436122, Note_on_c, 10, 64, 73
1, 436122, Note_on_c, 10, 69, 82
1, 436122, Note_on_c, 10, 76, 77
1, 436128, Note_off_c, 7, 69, 0
1, 436132, Note_off_c, 8, 59, 0
1, 436132, Note_off_c, 8, 61, 0
1, 436132, Note_off_c, 13, 40, 0
1, 436132, Note_off_c, 13, 45, 0
1, 436312, Note_off_c, 0, 61, 64
1, 436312, Note_off_c, 0, 68, 64
1, 436312, Note_off_c, 2, 71, 64
1, 436312, Note_off_c, 2, 80, 64
1, 436312, Note_off_c, 3, 71, 64
1, 436312, Note_off_c, 3, 76, 64
1, 436312, Note_off_c, 4, 80, 0
1, 436320, Note_on_c, 0, 64, 69
1, 436320, Note_on_c, 0, 69, 69
1, 436320, Note_on_c, 1, 69, 74
1, 436320, Note_on_c, 2, 69, 100
1, 436320, Note_on_c, 2, 78, 100
1, 436320, Note_on_c, 3, 66, 100
1, 436320, Note_on_c, 3, 69, 100
1, 436320, Note_on_c, 4, 81, 100
1, 436320, Note_on_c, 6, 64, 69
1, 436320, Note_on_c, 6, 69, 70
1, 436320, Note_on_c, 6, 76, 72
1, 436320, Note_on_c, 8, 40, 100
1, 436320, Note_on_c, 8, 45, 100
1, 436320, Note_on_c, 13, 59, 100
1, 436320, Note_on_c, 13, 61, 100
1, 436400, Note_off_c, 10, 69, 0
1, 436412, Note_off_c, 10, 64, 0
1, 436414, Note_off_c, 1, 59, 0
1, 436420, Note_off_c, 10, 76, 0
1, 436584, Note_off_c, 6, 69, 0
1, 436608, Note_off_c, 6, 64, 0
1, 436612, Note_off_c, 8, 40, 0
1, 436612, Note_off_c, 8, 45, 0
1, 436612, Note_off_c, 13, 59, 0
1, 436612, Note_off_c, 13, 61, 0
1, 436624, Note_off_c, 6, 76, 0
1, 436792, Note_off_c, 0, 64, 64
1, 436792, Note_off_c, 0, 69, 64
1, 436792, Note_off_c, 2, 69, 64
1, 436792, Note_off_c, 2, 78, 64
1, 436792, Note_off_c, 3, 66, 64
1, 436792, Note_off_c, 3, 69, 64
1, 436792, Note_off_c, 4, 81, 0
1, 436800, Note_on_c, 0, 68, 71
1, 436800, Note_on_c, 0, 73, 71
1, 436800, Note_on_c, 1, 64, 68
1, 436800, Note_on_c, 2, 73, 100
1, 436800, Note_on_c, 2, 81, 100
1, 436800, Note_on_c, 3, 73, 100
1, 436800, Note_on_c, 3, 76, 100
1, 436800, Note_on_c, 4, 85, 100
1, 436800, Note_on_c, 7, 64, 70
1, 436800, Note_on_c, 7, 69, 72
1, 436800, Note_on_c, 7, 76, 77
1, 436800, Note_on_c, 8, 59, 100
1, 436800, Note_on_c, 8, 61, 100
1, 436800, Note_on_c, 13, 40, 100
1, 436800, Note_on_c, 13, 45, 100
1, 437012, Note_off_c, 1, 69, 0
1, 437054, Note_off_c, 7, 64, 0
1, 437066, Note_off_c, 7, 69, 0
1, 437082, Note_on_c, 10, 64, 72
1, 437082, Note_on_c, 10, 69, 75
1, 437082, Note_on_c, 10, 76, 73
1, 437092, Note_off_c, 8, 59, 0
1, 437092, Note_off_c, 8, 61, 0
1, 437092, Note_off_c, 13, 40, 0
1, 437092, Note_off_c, 13, 45, 0
1, 437122, Note_off_c, 7, 76, 0
1, 437272, Note_off_c, 0, 68, 64
1, 437272, Note_off_c, 0, 73, 64
1, 437272, Note_off_c, 2, 73, 64
1, 437272, Note_off_c, 2, 81, 64
1, 437272, Note_off_c, 3, 73, 64
1, 437272, Note_off_c, 3, 76, 64
1, 437272, Note_off_c, 4, 85, 0
1, 437280, Note_on_c, 6, 64, 68
1, 437280, Note_on_c, 6, 69, 77
1, 437280, Note_on_c, 6, 76, 73
1, 437280, Note_on_c, 8, 40, 100
1, 437280, Note_on_c, 8, 45, 100
1, 437280, Note_on_c, 13, 59, 100
1, 437280, Note_on_c, 13, 61, 100
1, 437370, Note_off_c, 10, 76, 0
1, 437372, Note_off_c, 10, 69, 0
1, 437380, Note_off_c, 10, 64, 0
1, 437414, Note_off_c, 1, 64, 0
1, 437546, Note_off_c, 6, 64, 0
1, 437564, Note_off_c, 6, 69, 0
1, 437564, Note_off_c, 6, 76, 0
1, 437572, Note_off_c, 8, 40, 0
1, 437572, Note_off_c, 8, 45, 0
1, 437572, Note_off_c, 13, 59, 0
1, 437572, Note_off_c, 13, 61, 0
1, 437760, Note_on_c, 0, 66, 75
1, 437760, Note_on_c, 0, 71, 75
1, 437760, Note_on_c, 1, 66, 77
1, 437760, Note_on_c, 2, 71, 100
1, 437760, Note_on_c, 2, 80, 100
1, 437760, Note_on_c, 3, 71, 100
1, 437760, Note_on_c, 3, 76, 100
1, 437760, Note_on_c, 4, 83, 100
1, 437760, Note_on_c, 7, 64, 73
1, 437760, Note_on_c, 7, 69, 77
1, 437760, Note_on_c, 7, 76, 74
1, 437760, Note_on_c, 8, 59, 100
1, 437760, Note_on_c, 8, 61, 100
1, 437760, Note_on_c, 13, 40, 100
1, 437760, Note_on_c, 13, 45, 100
1, 438042, Note_on_c, 10, 64, 69
1, 438042, Note_on_c, 10, 69, 70
1, 438042, Note_on_c, 10, 76, 72
1, 438044, Note_off_c, 7, 69, 0
1, 438052, Note_off_c, 8, 59, 0
1, 438052, Note_off_c, 8, 61, 0
1, 438052, Note_off_c, 13, 40, 0
1, 438052, Note_off_c, 13, 45, 0
1, 438076, Note_off_c, 7, 76, 0
1, 438082, Note_off_c, 7, 64, 0
1, 438232, Note_off_c, 0, 66, 64
1, 438232, Note_off_c, 0, 71, 64
1, 438232, Note_off_c, 2, 71, 64
1, 438232, Note_off_c, 2, 80, 64
1, 438232, Note_off_c, 3, 71, 64
1, 438232, Note_off_c, 3, 76, 64
1, 438232, Note_off_c, 4, 83, 0
1, 438240, Note_on_c, 0, 61, 77
1, 438240, Note_on_c, 0, 68, 77
1, 438240, Note_on_c, 1, 61, 70
1, 438240, Note_on_c, 2, 69, 100
1, 438240, Note_on_c, 2, 78, 100
1, 438240, Note_on_c, 3, 64, 100
1, 438240, Note_on_c, 3, 69, 100
1, 438240, Note_on_c, 4, 80, 100
1, 438240, Note_on_c, 6, 64, 72
1, 438240, Note_on_c, 6, 69, 52
1, 438240, Note_on_c, 6, 76, 72
1, 438240, Note_on_c, 8, 40, 100
1, 438240, Note_on_c, 8, 45, 100
1, 438240, Note_on_c, 13, 59, 100
1, 438240, Note_on_c, 13, 61, 100
1, 438306, Note_off_c, 10, 69, 0
1, 438330, Note_off_c, 10, 64, 0
1, 438346, Note_off_c, 10, 76, 0
1, 438392, Note_off_c, 6, 69, 0
1, 438402, Note_off_c, 1, 66, 0
1, 438480, Note_off_c, 6, 64, 0
1, 438486, Note_off_c, 6, 76, 0
1, 438532, Note_off_c, 8, 40, 0
1, 438532, Note_off_c, 8, 45, 0
1, 438532, Note_off_c, 13, 59, 0
1, 438532, Note_off_c, 13, 61, 0
1, 438712, Note_off_c, 0, 61, 64
1, 438712, Note_off_c, 0, 68, 64
1, 438712, Note_off_c, 2, 69, 64
1, 438712, Note_off_c, 2, 78, 64
1, 438712, Note_off_c, 3, 64, 64
1, 438712, Note_off_c, 3, 69, 64
1, 438712, Note_off_c, 4, 80, 0
1, 438720, Note_on_c, 7, 64, 68
1, 438720, Note_on_c, 7, 69, 70
1, 438720, Note_on_c, 7, 76, 72
1, 438720, Note_on_c, 8, 59, 100
1, 438720, Note_on_c, 8, 61, 100
1, 438720, Note_on_c, 13, 40, 100
1, 438720, Note_on_c, 13, 45, 100
1, 438868, Note_off_c, 1, 61, 0
1, 439002, Note_on_c, 10, 64, 68
1, 439002, Note_on_c, 10, 69, 77
1, 439002, Note_on_c, 10, 76, 73
1, 439010, Note_off_c, 7, 69, 0
1, 439012, Note_off_c, 8, 59, 0
1, 439012, Note_off_c, 8, 61, 0
1, 439012, Note_off_c, 13, 40, 0
1, 439012, Note_off_c, 13, 45, 0
1, 439028, Note_off_c, 7, 76, 0
1, 439034, Note_off_c, 7, 64, 0
1, 439200, Note_on_c, 0, 64, 79
1, 439200, Note_on_c, 0, 69, 79
1, 439200, Note_on_c, 1, 69, 77
1, 439200, Note_on_c, 2, 71, 100
1, 439200, Note_on_c, 2, 80, 100
1, 439200, Note_on_c, 3, 71, 100
1, 439200, Note_on_c, 3, 76, 100
1, 439200, Note_on_c, 4, 81, 100
1, 439200, Note_on_c, 6, 64, 68
1, 439200, Note_on_c, 6, 69, 70
1, 439200, Note_on_c, 6, 76, 74
1, 439200, Note_on_c, 8, 40, 100
1, 439200, Note_on_c, 8, 45, 100
1, 439200, Note_on_c, 13, 59, 100
1, 439200, Note_on_c, 13, 61, 100
1, 439268, Note_off_c, 10, 64, 0
1, 439286, Note_off_c, 10, 69, 0
1, 439286, Note_off_c, 10, 76, 0
1, 439432, Note_off_c, 6, 69, 0
1, 439442, Note_off_c, 6, 64, 0
1, 439450, Note_off_c, 6, 76, 0
1, 439492, Note_off_c, 8, 40, 0
1, 439492, Note_off_c, 8, 45, 0
1, 439492, Note_off_c, 13, 59, 0
1, 439492, Note_off_c, 13, 61, 0
1, 439672, Note_off_c, 0, 64, 64
1, 439672, Note_off_c, 0, 69, 64
1, 439672, Note_off_c, 2, 71, 64
1, 439672, Note_off_c, 2, 80, 64
1, 439672, Note_off_c, 3, 71, 64
1, 439672, Note_off_c, 3, 76, 64
1, 439672, Note_off_c, 4, 81, 0
1, 439680, Note_on_c, 7, 64, 68
1, 439680, Note_on_c, 7, 69, 70
1, 439680, Note_on_c, 7, 76, 73
1, 439680, Note_on_c, 8, 59, 100
1, 439680, Note_on_c, 8, 61, 100
1, 439680, Note_on_c, 13, 40, 100
1, 439680, Note_on_c, 13, 45, 100
1, 439848, Note_off_c, 1, 69, 0
1, 439928, Note_off_c, 7, 64, 0
1, 439942, Note_off_c, 7, 69, 0
1, 439942, Note_off_c, 7, 76, 0
1, 439962, Note_on_c, 10, 64, 72
1, 439962, Note_on_c, 10, 69, 52
1, 439962, Note_on_c, 10, 76, 72
1, 439972, Note_off_c, 8, 59, 0
1, 439972, Note_off_c, 8, 61, 0
1, 439972, Note_off_c, 13, 40, 0
1, 439972, Note_off_c, 13, 45, 0
1, 440114, Note_off_c, 10, 69, 0
1, 440160, Note_on_c, 0, 66, 80
1, 440160, Note_on_c, 0, 71, 80
1, 440160, Note_on_c, 1, 64, 68
1, 440160, Note_on_c, 2, 73, 100
1, 440160, Note_on_c, 2, 81, 100
1, 440160, Note_on_c, 3, 73, 100
1, 440160, Note_on_c, 3, 76, 100
1, 440160, Note_on_c, 4, 83, 100
1, 440160, Note_on_c, 6, 64, 68
1, 440160, Note_on_c, 6, 69, 69
1, 440160, Note_on_c, 6, 76, 72
1, 440160, Note_on_c, 8, 40, 100
1, 440160, Note_on_c, 8, 45, 100
1, 440160, Note_on_c, 13, 59, 100
1, 440160, Note_on_c, 13, 61, 100
1, 440202, Note_off_c, 10, 64, 0
1, 440208, Note_off_c, 10, 76, 0
1, 440376, Note_off_c, 6, 76, 0
1, 440378, Note_off_c, 6, 69, 0
1, 440392, Note_off_c, 6, 64, 0
1, 440452, Note_off_c, 8, 40, 0
1, 440452, Note_off_c, 8, 45, 0
1, 440452, Note_off_c, 13, 59, 0
1, 440452, Note_off_c, 13, 61, 0
1, 440604, Note_off_c, 1, 64, 0
1, 440632, Note_off_c, 0, 66, 64
1, 440632, Note_off_c, 0, 71, 64
1, 440632, Note_off_c, 2, 73, 64
1, 440632, Note_off_c, 2, 81, 64
1, 440632, Note_off_c, 3, 73, 64
1, 440632, Note_off_c, 3, 76, 64
1, 440632, Note_off_c, 4, 83, 0
1, 440632, Note_off_c, 5, 52, 0
1, 440632, Note_off_c, 5, 57, 0
1, 440640, Note_on_c, 0, 61, 82
1, 440640, Note_on_c, 0, 68, 82
1, 440640, Note_on_c, 1, 66, 78
1, 440640, Note_on_c, 2, 69, 100
1, 440640, Note_on_c, 2, 78, 100
1, 440640, Note_on_c, 3, 64, 100
1, 440640, Note_on_c, 3, 69, 100
1, 440640, Note_on_c, 4, 80, 100
1, 440640, Note_on_c, 5, 50, 100
1, 440640, Note_on_c, 5, 57, 100
1, 440640, Note_on_c, 7, 64, 70
1, 440640, Note_on_c, 7, 69, 83
1, 440640, Note_on_c, 7, 76, 74
1, 440640, Note_on_c, 8, 57, 100
1, 440640, Note_on_c, 8, 61, 100
1, 440640, Note_on_c, 13, 38, 100
1, 440640, Note_on_c, 13, 45, 100
1, 440880, Note_off_c, 7, 64, 0
1, 440880, Note_off_c, 7, 76, 0
1, 440890, Note_off_c, 7, 69, 0
1, 440922, Note_on_c, 10, 64, 68
1, 440922, Note_on_c, 10, 69, 70
1, 440922, Note_on_c, 10, 76, 74
1, 440932, Note_off_c, 8, 57, 0
1, 440932, Note_off_c, 8, 61, 0
1, 440932, Note_off_c, 13, 38, 0
1, 440932, Note_off_c, 13, 45, 0
1, 441112, Note_off_c, 0, 61, 64
1, 441112, Note_off_c, 0, 68, 64
1, 441112, Note_off_c, 2, 69, 64
1, 441112, Note_off_c, 2, 78, 64
1, 441112, Note_off_c, 3, 64, 64
1, 441112, Note_off_c, 3, 69, 64
1, 441112, Note_off_c, 4, 80, 0
1, 441120, Note_on_c, 6, 64, 67
1, 441120, Note_on_c, 6, 69, 67
1, 441120, Note_on_c, 6, 76, 72
1, 441120, Note_on_c, 8, 38, 100
1, 441120, Note_on_c, 8, 45, 100
1, 441120, Note_on_c, 13, 57, 100
1, 441120, Note_on_c, 13, 61, 100
1, 441154, Note_off_c, 10, 69, 0
1, 441164, Note_off_c, 10, 64, 0
1, 441172, Note_off_c, 10, 76, 0
1, 441308, Note_off_c, 1, 66, 0
1, 441366, Note_off_c, 6, 64, 0
1, 441370, Note_off_c, 6, 69, 0
1, 441386, Note_off_c, 6, 76, 0
1, 441412, Note_off_c, 8, 38, 0
1, 441412, Note_off_c, 8, 45, 0
1, 441412, Note_off_c, 13, 57, 0
1, 441412, Note_off_c, 13, 61, 0
1, 441600, Note_on_c, 0, 61, 84
1, 441600, Note_on_c, 0, 68, 84
1, 441600, Note_on_c, 1, 59, 74
1, 441600, Note_on_c, 2, 71, 100
1, 441600, Note_on_c, 2, 80, 100
1, 441600, Note_on_c, 3, 71, 100
1, 441600, Note_on_c, 3, 76, 100
1, 441600, Note_on_c, 4, 80, 100
1, 441600, Note_on_c, 7, 64, 67
1, 441600, Note_on_c, 7, 69, 78
1, 441600, Note_on_c, 7, 76, 73
1, 441600, Note_on_c, 8, 57, 100
1, 441600, Note_on_c, 8, 61, 100
1, 441600, Note_on_c, 13, 38, 100
1, 441600, Note_on_c, 13, 45, 100
1, 441850, Note_off_c, 7, 76, 0
1, 441856, Note_off_c, 7, 69, 0
1, 441864, Note_off_c, 7, 64, 0
1, 441882, Note_on_c, 10, 64, 68
1, 441882, Note_on_c, 10, 69, 69
1, 441882, Note_on_c, 10, 76, 72
1, 441892, Note_off_c, 8, 57, 0
1, 441892, Note_off_c, 8, 61, 0
1, 441892, Note_off_c, 13, 38, 0
1, 441892, Note_off_c, 13, 45, 0
1, 442072, Note_off_c, 0, 61, 64
1, 442072, Note_off_c, 0, 68, 64
1, 442072, Note_off_c, 2, 71, 64
1, 442072, Note_off_c, 2, 80, 64
1, 442072, Note_off_c, 3, 71, 64
1, 442072, Note_off_c, 3, 76, 64
1, 442072, Note_off_c, 4, 80, 0
1, 442080, Note_on_c, 0, 64, 97
1, 442080, Note_on_c, 0, 69, 97
1, 442080, Note_on_c, 1, 69, 75
1, 442080, Note_on_c, 2, 69, 100
1, 442080, Note_on_c, 2, 78, 100
1, 442080, Note_on_c, 3, 66, 100
1, 442080, Note_on_c, 3, 69, 100
1, 442080, Note_on_c, 4, 81, 100
1, 442080, Note_on_c, 6, 64, 67
1, 442080, Note_on_c, 6, 69, 63
1, 442080, Note_on_c, 6, 76, 72
1, 442080, Note_on_c, 8, 38, 100
1, 442080, Note_on_c, 8, 45, 100
1, 442080, Note_on_c, 13, 57, 100
1, 442080, Note_on_c, 13, 61, 100
1, 442088, Note_off_c, 1, 59, 0
1, 442098, Note_off_c, 10, 76, 0
1, 442100, Note_off_c, 10, 69, 0
1, 442114, Note_off_c, 10, 64, 0
1, 442328, Note_off_c, 6, 69, 0
1, 442356, Note_off_c, 6, 64, 0
1, 442372, Note_off_c, 6, 76, 0
1, 442372, Note_off_c, 8, 38, 0
1, 442372, Note_off_c, 8, 45, 0
1, 442372, Note_off_c, 13, 57, 0
1, 442372, Note_off_c, 13, 61, 0
1, 442552, Note_off_c, 0, 64, 64
1, 442552, Note_off_c, 0, 69, 64
1, 442552, Note_off_c, 2, 69, 64
1, 442552, Note_off_c, 2, 78, 64
1, 442552, Note_off_c, 3, 66, 64
1, 442552, Note_off_c, 3, 69, 64
1, 442552, Note_off_c, 4, 81, 0
1, 442560, Note_on_c, 0, 68, 100
1, 442560, Note_on_c, 0, 73, 100
1, 442560, Note_on_c, 1, 64, 73
1, 442560, Note_on_c, 2, 73, 100
1, 442560, Note_on_c, 2, 81, 100
1, 442560, Note_on_c, 3, 73, 100
1, 442560, Note_on_c, 3, 76, 100
1, 442560, Note_on_c, 4, 85, 100
1, 442560, Note_on_c, 7, 64, 69
1, 442560, Note_on_c, 7, 69, 70
1, 442560, Note_on_c, 7, 76, 73
1, 442560, Note_on_c, 8, 57, 100
1, 442560, Note_on_c, 8, 61, 100
1, 442560, Note_on_c, 13, 38, 100
1, 442560, Note_on_c, 13, 45, 100
1, 442686, Note_off_c, 1, 69, 0
1, 442780, Note_off_c, 7, 69, 0
1, 442802, Note_off_c, 7, 76, 0
1, 442812, Note_off_c, 7, 64, 0
1, 442842, Note_on_c, 10, 64, 67
1, 442842, Note_on_c, 10, 69, 67
1, 442842, Note_on_c, 10, 76, 72
1, 442852, Note_off_c, 8, 57, 0
1, 442852, Note_off_c, 8, 61, 0
1, 442852, Note_off_c, 13, 38, 0
1, 442852, Note_off_c, 13, 45, 0
1, 443032, Note_off_c, 0, 68, 64
1, 443032, Note_off_c, 0, 73, 64
1, 443032, Note_off_c, 2, 73, 64
1, 443032, Note_off_c, 2, 81, 64
1, 443032, Note_off_c, 3, 73, 64
1, 443032, Note_off_c, 3, 76, 64
1, 443032, Note_off_c, 4, 85, 0
1, 443040, Note_on_c, 6, 64, 68
1, 443040, Note_on_c, 6, 69, 66
1, 443040, Note_on_c, 6, 76, 70
1, 443040, Note_on_c, 8, 38, 100
1, 443040, Note_on_c, 8, 45, 100
1, 443040, Note_on_c, 13, 57, 100
1, 443040, Note_on_c, 13, 61, 100
1, 443088, Note_off_c, 10, 64, 0
1, 443092, Note_off_c, 10, 69, 0
1, 443108, Note_off_c, 10, 76, 0
1, 443236, Note_off_c, 6, 69, 0
1, 443260, Note_off_c, 6, 64, 0
1, 443266, Note_off_c, 1, 64, 0
1, 443278, Note_off_c, 6, 76, 0
1, 443332, Note_off_c, 8, 38, 0
1, 443332, Note_off_c, 8, 45, 0
1, 443332, Note_off_c, 13, 57, 0
1, 443332, Note_off_c, 13, 61, 0
1, 443512, Note_off_c, 5, 50, 0
1, 443512, Note_off_c, 5, 57, 0
1, 443520, Note_on_c, 0, 66, 100
1, 443520, Note_on_c, 0, 71, 100
1, 443520, Note_on_c, 1, 66, 68
1, 443520, Note_on_c, 2, 71, 100
1, 443520, Note_on_c, 2, 80, 100
1, 443520, Note_on_c, 3, 71, 100
1, 443520, Note_on_c, 3, 76, 100
1, 443520, Note_on_c, 4, 83, 100
1, 443520, Note_on_c, 5, 52, 100
1, 443520, Note_on_c, 5, 57, 100
1, 443520, Note_on_c, 7, 64, 69
1, 443520, Note_on_c, 7, 69, 75
1, 443520, Note_on_c, 7, 76, 73
1, 443520, Note_on_c, 8, 59, 100
1, 443520, Note_on_c, 8, 61, 100
1, 443520, Note_on_c, 13, 40, 100
1, 443520, Note_on_c, 13, 45, 100
1, 443734, Note_off_c, 7, 69, 0
1, 443750, Note_off_c, 7, 64, 0
1, 443764, Note_off_c, 7, 76, 0
1, 443802, Note_on_c, 10, 64, 67
1, 443802, Note_on_c, 10, 69, 63
1, 443802, Note_on_c, 10, 76, 72
1, 443812, Note_off_c, 8, 59, 0
1, 443812, Note_off_c, 8, 61, 0
1, 443812, Note_off_c, 13, 40, 0
1, 443812, Note_off_c, 13, 45, 0
1, 443992, Note_off_c, 0, 66, 64
1, 443992, Note_off_c, 0, 71, 64
1, 443992, Note_off_c, 2, 71, 64
1, 443992, Note_off_c, 2, 80, 64
1, 443992, Note_off_c, 3, 71, 64
1, 443992, Note_off_c, 3, 76, 64
1, 443992, Note_off_c, 4, 83, 0
1, 444000, Note_on_c, 0, 61, 100
1, 444000, Note_on_c, 0, 68, 100
1, 444000, Note_on_c, 1, 61, 68
1, 444000, Note_on_c, 2, 69, 100
1, 444000, Note_on_c, 2, 78, 100
1, 444000, Note_on_c, 3, 64, 100
1, 444000, Note_on_c, 3, 69, 100
1, 444000, Note_on_c, 4, 80, 100
1, 444000, Note_on_c, 6, 64, 68
1, 444000, Note_on_c, 6, 69, 63
1, 444000, Note_on_c, 6, 76, 72
1, 444000, Note_on_c, 8, 40, 100
1, 444000, Note_on_c, 8, 45, 100
1, 444000, Note_on_c, 13, 59, 100
1, 444000, Note_on_c, 13, 61, 100
1, 444036, Note_off_c, 1, 66, 0
1, 444050, Note_off_c, 10, 69, 0
1, 444078, Note_off_c, 10, 64, 0
1, 444094, Note_off_c, 10, 76, 0
1, 444210, Note_off_c, 6, 64, 0
1, 444244, Note_off_c, 6, 76, 0
1, 444262, Note_off_c, 6, 69, 0
1, 444292, Note_off_c, 8, 40, 0
1, 444292, Note_off_c, 8, 45, 0
1, 444292, Note_off_c, 13, 59, 0
1, 444292, Note_off_c, 13, 61, 0
1, 444472, Note_off_c, 0, 61, 64
1, 444472, Note_off_c, 0, 68, 64
1, 444472, Note_off_c, 2, 69, 64
1, 444472, Note_off_c, 2, 78, 64
1, 444472, Note_off_c, 3, 64, 64
1, 444472, Note_off_c, 3, 69, 64
1, 444472, Note_off_c, 4, 80, 0
1, 444480, Note_on_c, 7, 64, 68
1, 444480, Note_on_c, 7, 69, 74
1, 444480, Note_on_c, 7, 76, 74
1, 444480, Note_on_c, 8, 59, 100
1, 444480, Note_on_c, 8, 61, 100
1, 444480, Note_on_c, 13, 40, 100
1, 444480, Note_on_c, 13, 45, 100
1, 444704, Note_off_c, 7, 69, 0
1, 444744, Note_off_c, 7, 64, 0
1, 444754, Note_off_c, 7, 76, 0
1, 444762, Note_on_c, 10, 64, 68
1, 444762, Note_on_c, 10, 69, 66
1, 444762, Note_on_c, 10, 76, 70
1, 444770, Note_off_c, 1, 61, 0
1, 444772, Note_off_c, 8, 59, 0
1, 444772, Note_off_c, 8, 61, 0
1, 444772, Note_off_c, 13, 40, 0
1, 444772, Note_off_c, 13, 45, 0
1, 444958, Note_off_c, 10, 69, 0
1, 444960, Note_on_c, 0, 64, 100
1, 444960, Note_on_c, 0, 69, 100
1, 444960, Note_on_c, 1, 69, 77
1, 444960, Note_on_c, 2, 71, 100
1, 444960, Note_on_c, 2, 80, 100
1, 444960, Note_on_c, 3, 71, 100
1, 444960, Note_on_c, 3, 76, 100
1, 444960, Note_on_c, 4, 81, 100
1, 444960, Note_on_c, 6, 64, 70
1, 444960, Note_on_c, 6, 69, 69
1, 444960, Note_on_c, 6, 76, 72
1, 444960, Note_on_c, 8, 40, 100
1, 444960, Note_on_c, 8, 45, 100
1, 444960, Note_on_c, 13, 59, 100
1, 444960, Note_on_c, 13, 61, 100
1, 444982, Note_off_c, 10, 64, 0
1, 445000, Note_off_c, 10, 76, 0
1, 445194, Note_off_c, 6, 69, 0
1, 445222, Note_off_c, 6, 64, 0
1, 445222, Note_off_c, 6, 76, 0
1, 445252, Note_off_c, 8, 40, 0
1, 445252, Note_off_c, 8, 45, 0
1, 445252, Note_off_c, 13, 59, 0
1, 445252, Note_off_c, 13, 61, 0
1, 445432, Note_off_c, 0, 64, 64
1, 445432, Note_off_c, 0, 69, 64
1, 445432, Note_off_c, 2, 71, 64
1, 445432, Note_off_c, 2, 80, 64
1, 445432, Note_off_c, 3, 71, 64
1, 445432, Note_off_c, 3, 76, 64
1, 445432, Note_off_c, 4, 81, 0
1, 445440, Note_on_c, 7, 64, 68
1, 445440, Note_on_c, 7, 69, 73
1, 445440, Note_on_c, 7, 76, 73
1, 445440, Note_on_c, 8, 59, 100
1, 445440, Note_on_c, 8, 61, 100
1, 445440, Note_on_c, 13, 40, 100
1, 445440, Note_on_c, 13, 45, 100
1, 445584, Note_off_c, 1, 69, 0
1, 445664, Note_off_c, 7, 64, 0
1, 445688, Note_off_c, 7, 69, 0
1, 445688, Note_off_c, 7, 76, 0
1, 445722, Note_on_c, 10, 64, 68
1, 445722, Note_on_c, 10, 69, 63
1, 445722, Note_on_c, 10, 76, 72
1, 445732, Note_off_c, 8, 59, 0
1, 445732, Note_off_c, 8, 61, 0
1, 445732, Note_off_c, 13, 40, 0
1, 445732, Note_off_c, 13, 45, 0
1, 445920, Note_on_c, 0, 66, 100
1, 445920, Note_on_c, 0, 71, 100
1, 445920, Note_on_c, 1, 64, 70
1, 445920, Note_on_c, 2, 73, 100
1, 445920, Note_on_c, 2, 81, 100
1, 445920, Note_on_c, 3, 73, 100
1, 445920, Note_on_c, 3, 76, 100
1, 445920, Note_on_c, 4, 83, 100
1, 445920, Note_on_c, 6, 64, 68
1, 445920, Note_on_c, 6, 69, 70
1, 445920, Note_on_c, 6, 76, 70
1, 445920, Note_on_c, 8, 40, 100
1, 445920, Note_on_c, 8, 45, 100
1, 445920, Note_on_c, 13, 59, 100
1, 445920, Note_on_c, 13, 61, 100
1, 445932, Note_off_c, 10, 64, 0
1, 445966, Note_off_c, 10, 76, 0
1, 445984, Note_off_c, 10, 69, 0
1, 446128, Note_off_c, 6, 64, 0
1, 446156, Note_off_c, 6, 69, 0
1, 446160, Note_off_c, 6, 76, 0
1, 446212, Note_off_c, 8, 40, 0
1, 446212, Note_off_c, 8, 45, 0
1, 446212, Note_off_c, 13, 59, 0
1, 446212, Note_off_c, 13, 61, 0
1, 446392, Note_off_c, 0, 66, 64
1, 446392, Note_off_c, 0, 71, 64
1, 446392, Note_off_c, 2, 73, 64
1, 446392, Note_off_c, 2, 81, 64
1, 446392, Note_off_c, 3, 73, 64
1, 446392, Note_off_c, 3, 76, 64
1, 446392, Note_off_c, 4, 83, 0
1, 446392, Note_off_c, 5, 52, 0
1, 446392, Note_off_c, 5, 57, 0
1, 446400, Note_on_c, 0, 61, 100
1, 446400, Note_on_c, 0, 68, 100
1, 446400, Note_on_c, 1, 66, 77
1, 446400, Note_on_c, 2, 69, 100
1, 446400, Note_on_c, 2, 78, 100
1, 446400, Note_on_c, 3, 64, 100
1, 446400, Note_on_c, 3, 69, 100
1, 446400, Note_on_c, 4, 80, 100
1, 446400, Note_on_c, 5, 50, 100
1, 446400, Note_on_c, 5, 57, 100
1, 446400, Note_on_c, 7, 64, 66
1, 446400, Note_on_c, 7, 69, 74
1, 446400, Note_on_c, 7, 76, 73
1, 446400, Note_on_c, 8, 57, 100
1, 446400, Note_on_c, 8, 61, 100
1, 446400, Note_on_c, 13, 38, 100
1, 446400, Note_on_c, 13, 45, 100
1, 446552, Note_off_c, 1, 64, 0
1, 446634, Note_off_c, 7, 64, 0
1, 446654, Note_off_c, 7, 76, 0
1, 446682, Note_off_c, 7, 69, 0
1, 446682, Note_on_c, 10, 64, 70
1, 446682, Note_on_c, 10, 69, 69
1, 446682, Note_on_c, 10, 76, 72
1, 446692, Note_off_c, 8, 57, 0
1, 446692, Note_off_c, 8, 61, 0
1, 446692, Note_off_c, 13, 38, 0
1, 446692, Note_off_c, 13, 45, 0
1, 446872, Note_off_c, 0, 61, 64
1, 446872, Note_off_c, 0, 68, 64
1, 446872, Note_off_c, 2, 69, 64
1, 446872, Note_off_c, 2, 78, 64
1, 446872, Note_off_c, 3, 64, 64
1, 446872, Note_off_c, 3, 69, 64
1, 446872, Note_off_c, 4, 80, 0
1, 446880, Note_on_c, 6, 64, 67
1, 446880, Note_on_c, 6, 69, 73
1, 446880, Note_on_c, 6, 76, 74
1, 446880, Note_on_c, 8, 38, 100
1, 446880, Note_on_c, 8, 45, 100
1, 446880, Note_on_c, 13, 57, 100
1, 446880, Note_on_c, 13, 61, 100
1, 446916, Note_off_c, 10, 69, 0
1, 446944, Note_off_c, 10, 64, 0
1, 446944, Note_off_c, 10, 76, 0
1, 447044, Note_off_c, 1, 66, 0
1, 447096, Note_off_c, 6, 64, 0
1, 447116, Note_off_c, 6, 76, 0
1, 447126, Note_off_c, 6, 69, 0
1, 447172, Note_off_c, 8, 38, 0
1, 447172, Note_off_c, 8, 45, 0
1, 447172, Note_off_c, 13, 57, 0
1, 447172, Note_off_c, 13, 61, 0
1, 447360, Note_on_c, 0, 61, 100
1, 447360, Note_on_c, 0, 68, 100
1, 447360, Note_on_c, 1, 59, 65
1, 447360, Note_on_c, 2, 71, 100
1, 447360, Note_on_c, 2, 80, 100
1, 447360, Note_on_c, 3, 71, 100
1, 447360, Note_on_c, 3, 76, 100
1, 447360, Note_on_c, 4, 80, 100
1, 447360, Note_on_c, 7, 64, 66
1, 447360, Note_on_c, 7, 69, 77
1, 447360, Note_on_c, 7, 76, 70
1, 447360, Note_on_c, 8, 57, 100
1, 447360, Note_on_c, 8, 61, 100
1, 447360, Note_on_c, 13, 38, 100
1, 447360, Note_on_c, 13, 45, 100
1, 447588, Note_off_c, 7, 64, 0
1, 447642, Note_on_c, 10, 64, 68
1, 447642, Note_on_c, 10, 69, 70
1, 447642, Note_on_c, 10, 76, 70
1, 447646, Note_off_c, 7, 69, 0
1, 447652, Note_off_c, 8, 57, 0
1, 447652, Note_off_c, 8, 61, 0
1, 447652, Note_off_c, 13, 38, 0
1, 447652, Note_off_c, 13, 45, 0
1, 447670, Note_off_c, 7, 76, 0
1, 447832, Note_off_c, 0, 61, 64
1, 447832, Note_off_c, 0, 68, 64
1, 447832, Note_off_c, 2, 71, 64
1, 447832, Note_off_c, 2, 80, 64
1, 447832, Note_off_c, 3, 71, 64
1, 447832, Note_off_c, 3, 76, 64
1, 447832, Note_off_c, 4, 80, 0
1, 447840, Note_on_c, 0, 64, 100
1, 447840, Note_on_c, 0, 69, 100
1, 447840, Note_on_c, 1, 69, 74
1, 447840, Note_on_c, 2, 69, 100
1, 447840, Note_on_c, 2, 78, 100
1, 447840, Note_on_c, 3, 66, 100
1, 447840, Note_on_c, 3, 69, 100
1, 447840, Note_on_c, 4, 81, 100
1, 447840, Note_on_c, 6, 64, 68
1, 447840, Note_on_c, 6, 69, 74
1, 447840, Note_on_c, 6, 76, 75
1, 447840, Note_on_c, 8, 38, 100
1, 447840, Note_on_c, 8, 45, 100
1, 447840, Note_on_c, 13, 57, 100
1, 447840, Note_on_c, 13, 61, 100
1, 447850, Note_off_c, 10, 64, 0
1, 447878, Note_off_c, 10, 69, 0
1, 447882, Note_off_c, 10, 76, 0
1, 447934, Note_off_c, 1, 59, 0
1, 448112, Note_off_c, 6, 69, 0
1, 448116, Note_off_c, 6, 64, 0
1, 448130, Note_off_c, 6, 76, 0
1, 448132, Note_off_c, 8, 38, 0
1, 448132, Note_off_c, 8, 45, 0
1, 448132, Note_off_c, 13, 57, 0
1, 448132, Note_off_c, 13, 61, 0
1, 448312, Note_off_c, 0, 64, 64
1, 448312, Note_off_c, 0, 69, 64
1, 448312, Note_off_c, 2, 69, 64
1, 448312, Note_off_c, 2, 78, 64
1, 448312, Note_off_c, 3, 66, 64
1, 448312, Note_off_c, 3, 69, 64
1, 448312, Note_off_c, 4, 81, 0
1, 448312, Note_off_c, 5, 50, 0
1, 448312, Note_off_c, 5, 57, 0
1, 448320, Note_on_c, 0, 68, 100
1, 448320, Note_on_c, 0, 73, 100
1, 448320, Note_on_c, 1, 64, 68
1, 448320, Note_on_c, 2, 73, 100
1, 448320, Note_on_c, 2, 81, 100
1, 448320, Note_on_c, 3, 73, 100
1, 448320, Note_on_c, 3, 76, 100
1, 448320, Note_on_c, 4, 85, 100
1, 448320, Note_on_c, 5, 52, 100
1, 448320, Note_on_c, 5, 57, 100
1, 448320, Note_on_c, 7, 64, 65
1, 448320, Note_on_c, 7, 69, 72
1, 448320, Note_on_c, 7, 76, 72
1, 448320, Note_on_c, 8, 59, 100
1, 448320, Note_on_c, 8, 61, 100
1, 448320, Note_on_c, 13, 40, 100
1, 448320, Note_on_c, 13, 45, 100
1, 448532, Note_off_c, 1, 69, 0
1, 448596, Note_off_c, 7, 64, 0
1, 448602, Note_on_c, 10, 64, 67
1, 448602, Note_on_c, 10, 69, 73
1, 448602, Note_on_c, 10, 76, 74
1, 448610, Note_off_c, 7, 69, 0
1, 448612, Note_off_c, 7, 76, 0
1, 448612, Note_off_c, 8, 59, 0
1, 448612, Note_off_c, 8, 61, 0
1, 448612, Note_off_c, 13, 40, 0
1, 448612, Note_off_c, 13, 45, 0
1, 448792, Note_off_c, 0, 68, 64
1, 448792, Note_off_c, 0, 73, 64
1, 448792, Note_off_c, 2, 73, 64
1, 448792, Note_off_c, 2, 81, 64
1, 448792, Note_off_c, 3, 73, 64
1, 448792, Note_off_c, 3, 76, 64
1, 448792, Note_off_c, 4, 85, 0
1, 448800, Note_on_c, 6, 64, 73
1, 448800, Note_on_c, 6, 69, 80
1, 448800, Note_on_c, 6, 76, 77
1, 448800, Note_on_c, 8, 40, 100
1, 448800, Note_on_c, 8, 45, 100
1, 448800, Note_on_c, 13, 59, 100
1, 448800, Note_on_c, 13, 61, 100
1, 448818, Note_off_c, 10, 64, 0
1, 448838, Note_off_c, 10, 76, 0
1, 448848, Note_off_c, 10, 69, 0
1, 448934, Note_off_c, 1, 64, 0
1, 449062, Note_off_c, 6, 64, 0
1, 449078, Note_off_c, 6, 69, 0
1, 449088, Note_off_c, 6, 76, 0
1, 449092, Note_off_c, 8, 40, 0
1, 449092, Note_off_c, 8, 45, 0
1, 449092, Note_off_c, 13, 59, 0
1, 449092, Note_off_c, 13, 61, 0
1, 449280, Note_on_c, 1, 66, 77
1, 449280, Note_on_c, 3, 71, 100
1, 449280, Note_on_c, 3, 76, 100
1, 449280, Note_on_c, 7, 64, 67
1, 449280, Note_on_c, 7, 69, 75
1, 449280, Note_on_c, 7, 76, 70
1, 449280, Note_on_c, 8, 59, 100
1, 449280, Note_on_c, 8, 61, 100
1, 449280, Note_on_c, 13, 40, 100
1, 449280, Note_on_c, 13, 45, 100
1, 449510, Note_off_c, 7, 69, 0
1, 449528, Note_off_c, 7, 64, 0
1, 449538, Note_off_c, 7, 76, 0
1, 449562, Note_on_c, 10, 64, 68
1, 449562, Note_on_c, 10, 69, 74
1, 449562, Note_on_c, 10, 76, 75
1, 449572, Note_off_c, 8, 59, 0
1, 449572, Note_off_c, 8, 61, 0
1, 449572, Note_off_c, 13, 40, 0
1, 449572, Note_off_c, 13, 45, 0
1, 449752, Note_off_c, 3, 71, 64
1, 449752, Note_off_c, 3, 76, 64
1, 449760, Note_on_c, 1, 61, 70
1, 449760, Note_on_c, 3, 64, 100
1, 449760, Note_on_c, 3, 69, 100
1, 449760, Note_on_c, 6, 64, 68
1, 449760, Note_on_c, 6, 69, 70
1, 449760, Note_on_c, 6, 76, 74
1, 449760, Note_on_c, 8, 40, 100
1, 449760, Note_on_c, 8, 45, 100
1, 449760, Note_on_c, 13, 59, 100
1, 449760, Note_on_c, 13, 61, 100
1, 449834, Note_off_c, 10, 69, 0
1, 449838, Note_off_c, 10, 64, 0
1, 449852, Note_off_c, 10, 76, 0
1, 449922, Note_off_c, 1, 66, 0
1, 450046, Note_off_c, 6, 64, 0
1, 450052, Note_off_c, 8, 40, 0
1, 450052, Note_off_c, 8, 45, 0
1, 450052, Note_off_c, 13, 59, 0
1, 450052, Note_off_c, 13, 61, 0
1, 450058, Note_off_c, 6, 69, 0
1, 450058, Note_off_c, 6, 76, 0
1, 450232, Note_off_c, 3, 64, 64
1, 450232, Note_off_c, 3, 69, 64
1, 450240, Note_on_c, 7, 64, 66
1, 450240, Note_on_c, 7, 69, 68
1, 450240, Note_on_c, 7, 76, 72
1, 450240, Note_on_c, 8, 59, 100
1, 450240, Note_on_c, 8, 61, 100
1, 450240, Note_on_c, 13, 40, 100
1, 450240, Note_on_c, 13, 45, 100
1, 450388, Note_off_c, 1, 61, 0
1, 450500, Note_off_c, 7, 69, 0
1, 450510, Note_off_c, 7, 64, 0
1, 450514, Note_off_c, 7, 76, 0
1, 450522, Note_on_c, 10, 64, 73
1, 450522, Note_on_c, 10, 69, 80
1, 450522, Note_on_c, 10, 76, 77
1, 450532, Note_off_c, 8, 59, 0
1, 450532, Note_off_c, 8, 61, 0
1, 450532, Note_off_c, 13, 40, 0
1, 450532, Note_off_c, 13, 45, 0
1, 450720, Note_on_c, 1, 69, 77
1, 450720, Note_on_c, 3, 71, 100
1, 450720, Note_on_c, 3, 76, 100
1, 450720, Note_on_c, 6, 64, 70
1, 450720, Note_on_c, 6, 69, 74
1, 450720, Note_on_c, 6, 76, 74
1, 450720, Note_on_c, 8, 40, 100
1, 450720, Note_on_c, 8, 45, 100
1, 450720, Note_on_c, 13, 59, 100
1, 450720, Note_on_c, 13, 61, 100
1, 450784, Note_off_c, 10, 64, 0
1, 450800, Note_off_c, 10, 69, 0
1, 450810, Note_off_c, 10, 76, 0
1, 450924, Note_off_c, 6, 64, 0
1, 450954, Note_off_c, 6, 76, 0
1, 450992, Note_off_c, 6, 69, 0
1, 451012, Note_off_c, 8, 40, 0
1, 451012, Note_off_c, 8, 45, 0
1, 451012, Note_off_c, 13, 59, 0
1, 451012, Note_off_c, 13, 61, 0
1, 451192, Note_off_c, 3, 71, 64
1, 451192, Note_off_c, 3, 76, 64
1, 451200, Note_on_c, 7, 64, 62
1, 451200, Note_on_c, 7, 69, 60
1, 451200, Note_on_c, 7, 76, 70
1, 451200, Note_on_c, 8, 59, 100
1, 451200, Note_on_c, 8, 61, 100
1, 451200, Note_on_c, 13, 40, 100
1, 451200, Note_on_c, 13, 45, 100
1, 451368, Note_off_c, 1, 69, 0
1, 451460, Note_off_c, 7, 69, 0
1, 451478, Note_off_c, 7, 64, 0
1, 451482, Note_on_c, 10, 64, 68
1, 451482, Note_on_c, 10, 69, 70
1, 451482, Note_on_c, 10, 76, 74
1, 451492, Note_off_c, 8, 59, 0
1, 451492, Note_off_c, 8, 61, 0
1, 451492, Note_off_c, 13, 40, 0
1, 451492, Note_off_c, 13, 45, 0
1, 451538, Note_off_c, 7, 76, 0
1, 451680, Note_on_c, 1, 64, 68
1, 451680, Note_on_c, 3, 73, 100
1, 451680, Note_on_c, 3, 76, 100
1, 451680, Note_on_c, 6, 64, 68
1, 451680, Note_on_c, 6, 69, 68
1, 451680, Note_on_c, 6, 76, 72
1, 451680, Note_on_c, 8, 40, 100
1, 451680, Note_on_c, 8, 45, 100
1, 451680, Note_on_c, 13, 59, 100
1, 451680, Note_on_c, 13, 61, 100
1, 451768, Note_off_c, 10, 64, 0
1, 451780, Note_off_c, 10, 69, 0
1, 451780, Note_off_c, 10, 76, 0
1, 451886, Note_off_c, 6, 69, 0
1, 451894, Note_off_c, 6, 64, 0
1, 451904, Note_off_c, 6, 76, 0
1, 451972, Note_off_c, 8, 40, 0
1, 451972, Note_off_c, 8, 45, 0
1, 451972, Note_off_c, 13, 59, 0
1, 451972, Note_off_c, 13, 61, 0
1, 452124, Note_off_c, 1, 64, 0
1, 452152, Note_off_c, 3, 73, 64
1, 452152, Note_off_c, 3, 76, 64
1, 452152, Note_off_c, 5, 52, 0
1, 452152, Note_off_c, 5, 57, 0
1, 452160, Note_on_c, 0, 59, 100
1, 452160, Note_on_c, 0, 66, 100
1, 452160, Note_on_c, 1, 66, 78
1, 452160, Note_on_c, 2, 69, 100
1, 452160, Note_on_c, 2, 78, 100
1, 452160, Note_on_c, 3, 64, 100
1, 452160, Note_on_c, 3, 69, 100
1, 452160, Note_on_c, 4, 78, 100
1, 452160, Note_on_c, 5, 50, 100
1, 452160, Note_on_c, 5, 57, 100
1, 452160, Note_on_c, 7, 64, 56
1, 452160, Note_on_c, 7, 69, 69
1, 452160, Note_on_c, 7, 76, 73
1, 452160, Note_on_c, 8, 57, 100
1, 452160, Note_on_c, 8, 61, 100
1, 452160, Note_on_c, 13, 38, 100
1, 452160, Note_on_c, 13, 45, 100
1, 452426, Note_off_c, 7, 64, 0
1, 452442, Note_on_c, 10, 64, 70
1, 452442, Note_on_c, 10, 69, 74
1, 452442, Note_on_c, 10, 76, 74
1, 452452, Note_off_c, 8, 57, 0
1, 452452, Note_off_c, 8, 61, 0
1, 452452, Note_off_c, 13, 38, 0
1, 452452, Note_off_c, 13, 45, 0
1, 452454, Note_off_c, 7, 69, 0
1, 452462, Note_off_c, 7, 76, 0
1, 452632, Note_off_c, 0, 59, 64
1, 452632, Note_off_c, 0, 66, 64
1, 452632, Note_off_c, 2, 69, 64
1, 452632, Note_off_c, 2, 78, 64
1, 452632, Note_off_c, 3, 64, 64
1, 452632, Note_off_c, 3, 69, 64
1, 452632, Note_off_c, 4, 78, 0
1, 452640, Note_on_c, 6, 64, 70
1, 452640, Note_on_c, 6, 69, 70
1, 452640, Note_on_c, 6, 76, 75
1, 452640, Note_on_c, 8, 38, 100
1, 452640, Note_on_c, 8, 45, 100
1, 452640, Note_on_c, 13, 57, 100
1, 452640, Note_on_c, 13, 61, 100
1, 452646, Note_off_c, 10, 64, 0
1, 452676, Note_off_c, 10, 76, 0
1, 452714, Note_off_c, 10, 69, 0
1, 452828, Note_off_c, 1, 66, 0
1, 452868, Note_off_c, 6, 69, 0
1, 452910, Note_off_c, 6, 64, 0
1, 452932, Note_off_c, 8, 38, 0
1, 452932, Note_off_c, 8, 45, 0
1, 452932, Note_off_c, 13, 57, 0
1, 452932, Note_off_c, 13, 61, 0
1, 452948, Note_off_c, 6, 76, 0
1, 453120, Note_on_c, 0, 61, 84
1, 453120, Note_on_c, 0, 68, 84
1, 453120, Note_on_c, 1, 59, 74
1, 453120, Note_on_c, 2, 71, 100
1, 453120, Note_on_c, 2, 80, 100
1, 453120, Note_on_c, 3, 71, 100
1, 453120, Note_on_c, 3, 76, 100
1, 453120, Note_on_c, 4, 80, 100
1, 453120, Note_on_c, 7, 64, 66
1, 453120, Note_on_c, 7, 69, 70
1, 453120, Note_on_c, 7, 76, 75
1, 453120, Note_on_c, 8, 57, 100
1, 453120, Note_on_c, 8, 61, 100
1, 453120, Note_on_c, 13, 38, 100
1, 453120, Note_on_c, 13, 45, 100
1, 453370, Note_off_c, 7, 69, 0
1, 453384, Note_off_c, 7, 64, 0
1, 453402, Note_on_c, 10, 64, 68
1, 453402, Note_on_c, 10, 69, 68
1, 453402, Note_on_c, 10, 76, 72
1, 453410, Note_off_c, 7, 76, 0
1, 453412, Note_off_c, 8, 57, 0
1, 453412, Note_off_c, 8, 61, 0
1, 453412, Note_off_c, 13, 38, 0
1, 453412, Note_off_c, 13, 45, 0
1, 453592, Note_off_c, 0, 61, 64
1, 453592, Note_off_c, 0, 68, 64
1, 453592, Note_off_c, 2, 71, 64
1, 453592, Note_off_c, 2, 80, 64
1, 453592, Note_off_c, 3, 71, 64
1, 453592, Note_off_c, 3, 76, 64
1, 453592, Note_off_c, 4, 80, 0
1, 453600, Note_on_c, 0, 64, 82
1, 453600, Note_on_c, 0, 69, 82
1, 453600, Note_on_c, 1, 69, 75
1, 453600, Note_on_c, 2, 69, 100
1, 453600, Note_on_c, 2, 78, 100
1, 453600, Note_on_c, 3, 66, 100
1, 453600, Note_on_c, 3, 69, 100
1, 453600, Note_on_c, 4, 81, 100
1, 453600, Note_on_c, 6, 64, 69
1, 453600, Note_on_c, 6, 69, 69
1, 453600, Note_on_c, 6, 76, 73
1, 453600, Note_on_c, 8, 38, 100
1, 453600, Note_on_c, 8, 45, 100
1, 453600, Note_on_c, 13, 57, 100
1, 453600, Note_on_c, 13, 61, 100
1, 453608, Note_off_c, 1, 59, 0
1, 453608, Note_off_c, 10, 69, 0
1, 453616, Note_off_c, 10, 64, 0
1, 453626, Note_off_c, 10, 76, 0
1, 453866, Note_off_c, 6, 64, 0
1, 453892, Note_off_c, 8, 38, 0
1, 453892, Note_off_c, 8, 45, 0
1, 453892, Note_off_c, 13, 57, 0
1, 453892, Note_off_c, 13, 61, 0
1, 453904, Note_off_c, 6, 69, 0
1, 453904, Note_off_c, 6, 76, 0
1, 454072, Note_off_c, 0, 64, 64
1, 454072, Note_off_c, 0, 69, 64
1, 454072, Note_off_c, 2, 69, 64
1, 454072, Note_off_c, 2, 78, 64
1, 454072, Note_off_c, 3, 66, 64
1, 454072, Note_off_c, 3, 69, 64
1, 454072, Note_off_c, 4, 81, 0
1, 454080, Note_on_c, 0, 68, 78
1, 454080, Note_on_c, 0, 73, 78
1, 454080, Note_on_c, 1, 64, 73
1, 454080, Note_on_c, 2, 73, 100
1, 454080, Note_on_c, 2, 81, 100
1, 454080, Note_on_c, 3, 73, 100
1, 454080, Note_on_c, 3, 76, 100
1, 454080, Note_on_c, 4, 85, 100
1, 454080, Note_on_c, 7, 64, 66
1, 454080, Note_on_c, 7, 69, 70
1, 454080, Note_on_c, 7, 76, 75
1, 454080, Note_on_c, 8, 57, 100
1, 454080, Note_on_c, 8, 61, 100
1, 454080, Note_on_c, 13, 38, 100
1, 454080, Note_on_c, 13, 45, 100
1, 454206, Note_off_c, 1, 69, 0
1, 454330, Note_off_c, 7, 69, 0
1, 454344, Note_off_c, 7, 64, 0
1, 454362, Note_on_c, 10, 64, 70
1, 454362, Note_on_c, 10, 69, 70
1, 454362, Note_on_c, 10, 76, 75
1, 454370, Note_off_c, 7, 76, 0
1, 454372, Note_off_c, 8, 57, 0
1, 454372, Note_off_c, 8, 61, 0
1, 454372, Note_off_c, 13, 38, 0
1, 454372, Note_off_c, 13, 45, 0
1, 454552, Note_off_c, 0, 68, 64
1, 454552, Note_off_c, 0, 73, 64
1, 454552, Note_off_c, 2, 73, 64
1, 454552, Note_off_c, 2, 81, 64
1, 454552, Note_off_c, 3, 73, 64
1, 454552, Note_off_c, 3, 76, 64
1, 454552, Note_off_c, 4, 85, 0
1, 454560, Note_on_c, 6, 64, 67
1, 454560, Note_on_c, 6, 69, 63
1, 454560, Note_on_c, 6, 76, 74
1, 454560, Note_on_c, 8, 38, 100
1, 454560, Note_on_c, 8, 45, 100
1, 454560, Note_on_c, 13, 57, 100
1, 454560, Note_on_c, 13, 61, 100
1, 454590, Note_off_c, 10, 69, 0
1, 454632, Note_off_c, 10, 64, 0
1, 454670, Note_off_c, 10, 76, 0
1, 454764, Note_off_c, 6, 69, 0
1, 454786, Note_off_c, 1, 64, 0
1, 454826, Note_off_c, 6, 64, 0
1, 454826, Note_off_c, 6, 76, 0
1, 454852, Note_off_c, 8, 38, 0
1, 454852, Note_off_c, 8, 45, 0
1, 454852, Note_off_c, 13, 57, 0
1, 454852, Note_off_c, 13, 61, 0
1, 455040, Note_on_c, 0, 66, 78
1, 455040, Note_on_c, 0, 71, 78
1, 455040, Note_on_c, 1, 66, 68
1, 455040, Note_on_c, 2, 71, 100
1, 455040, Note_on_c, 2, 80, 100
1, 455040, Note_on_c, 3, 71, 100
1, 455040, Note_on_c, 3, 76, 100
1, 455040, Note_on_c, 4, 83, 100
1, 455040, Note_on_c, 7, 64, 72
1, 455040, Note_on_c, 7, 69, 80
1, 455040, Note_on_c, 7, 76, 77
1, 455040, Note_on_c, 8, 57, 100
1, 455040, Note_on_c, 8, 61, 100
1, 455040, Note_on_c, 13, 38, 100
1, 455040, Note_on_c, 13, 45, 100
1, 455280, Note_off_c, 7, 76, 0
1, 455290, Note_off_c, 7, 64, 0
1, 455290, Note_off_c, 7, 69, 0
1, 455322, Note_on_c, 10, 64, 69
1, 455322, Note_on_c, 10, 69, 69
1, 455322, Note_on_c, 10, 76, 73
1, 455332, Note_off_c, 8, 57, 0
1, 455332, Note_off_c, 8, 61, 0
1, 455332, Note_off_c, 13, 38, 0
1, 455332, Note_off_c, 13, 45, 0
1, 455512, Note_off_c, 0, 66, 64
1, 455512, Note_off_c, 0, 71, 64
1, 455512, Note_off_c, 2, 71, 64
1, 455512, Note_off_c, 2, 80, 64
1, 455512, Note_off_c, 3, 71, 64
1, 455512, Note_off_c, 3, 76, 64
1, 455512, Note_off_c, 4, 83, 0
1, 455520, Note_on_c, 0, 61, 82
1, 455520, Note_on_c, 0, 68, 82
1, 455520, Note_on_c, 1, 61, 68
1, 455520, Note_on_c, 2, 69, 100
1, 455520, Note_on_c, 2, 78, 100
1, 455520, Note_on_c, 3, 64, 100
1, 455520, Note_on_c, 3, 69, 100
1, 455520, Note_on_c, 4, 80, 100
1, 455520, Note_on_c, 6, 64, 66
1, 455520, Note_on_c, 6, 69, 63
1, 455520, Note_on_c, 6, 76, 74
1, 455520, Note_on_c, 8, 38, 100
1, 455520, Note_on_c, 8, 45, 100
1, 455520, Note_on_c, 13, 57, 100
1, 455520, Note_on_c, 13, 61, 100
1, 455556, Note_off_c, 1, 66, 0
1, 455588, Note_off_c, 10, 64, 0
1, 455626, Note_off_c, 10, 69, 0
1, 455626, Note_off_c, 10, 76, 0
1, 455750, Note_off_c, 6, 69, 0
1, 455756, Note_off_c, 6, 64, 0
1, 455794, Note_off_c, 6, 76, 0
1, 455812, Note_off_c, 8, 38, 0
1, 455812, Note_off_c, 8, 45, 0
1, 455812, Note_off_c, 13, 57, 0
1, 455812, Note_off_c, 13, 61, 0
1, 455992, Note_off_c, 0, 61, 64
1, 455992, Note_off_c, 0, 68, 64
1, 455992, Note_off_c, 2, 69, 64
1, 455992, Note_off_c, 2, 78, 64
1, 455992, Note_off_c, 3, 64, 64
1, 455992, Note_off_c, 3, 69, 64
1, 455992, Note_off_c, 4, 80, 0
1, 456000, Note_on_c, 7, 64, 70
1, 456000, Note_on_c, 7, 69, 77
1, 456000, Note_on_c, 7, 76, 77
1, 456000, Note_on_c, 8, 57, 100
1, 456000, Note_on_c, 8, 61, 100
1, 456000, Note_on_c, 13, 38, 100
1, 456000, Note_on_c, 13, 45, 100
1, 456254, Note_off_c, 7, 64, 0
1, 456282, Note_off_c, 7, 69, 0
1, 456282, Note_on_c, 10, 64, 67
1, 456282, Note_on_c, 10, 69, 63
1, 456282, Note_on_c, 10, 76, 74
1, 456290, Note_off_c, 1, 61, 0
1, 456290, Note_off_c, 7, 76, 0
1, 456292, Note_off_c, 8, 57, 0
1, 456292, Note_off_c, 8, 61, 0
1, 456292, Note_off_c, 13, 38, 0
1, 456292, Note_off_c, 13, 45, 0
1, 456480, Note_on_c, 0, 64, 85
1, 456480, Note_on_c, 0, 69, 85
1, 456480, Note_on_c, 1, 69, 77
1, 456480, Note_on_c, 2, 71, 100
1, 456480, Note_on_c, 2, 80, 100
1, 456480, Note_on_c, 3, 71, 100
1, 456480, Note_on_c, 3, 76, 100
1, 456480, Note_on_c, 4, 81, 100
1, 456480, Note_on_c, 6, 64, 68
1, 456480, Note_on_c, 6, 69, 74
1, 456480, Note_on_c, 6, 76, 74
1, 456480, Note_on_c, 8, 38, 100
1, 456480, Note_on_c, 8, 45, 100
1, 456480, Note_on_c, 13, 57, 100
1, 456480, Note_on_c, 13, 61, 100
1, 456486, Note_off_c, 10, 69, 0
1, 456548, Note_off_c, 10, 64, 0
1, 456548, Note_off_c, 10, 76, 0
1, 456740, Note_off_c, 6, 69, 0
1, 456770, Note_off_c, 6, 76, 0
1, 456772, Note_off_c, 8, 38, 0
1, 456772, Note_off_c, 8, 45, 0
1, 456772, Note_off_c, 13, 57, 0
1, 456772, Note_off_c, 13, 61, 0
1, 456774, Note_off_c, 6, 64, 0
1, 456952, Note_off_c, 0, 64, 64
1, 456952, Note_off_c, 0, 69, 64
1, 456952, Note_off_c, 2, 71, 64
1, 456952, Note_off_c, 2, 80, 64
1, 456952, Note_off_c, 3, 71, 64
1, 456952, Note_off_c, 3, 76, 64
1, 456952, Note_off_c, 4, 81, 0
1, 456960, Note_on_c, 7, 64, 70
1, 456960, Note_on_c, 7, 69, 73
1, 456960, Note_on_c, 7, 76, 74
1, 456960, Note_on_c, 8, 57, 100
1, 456960, Note_on_c, 8, 61, 100
1, 456960, Note_on_c, 13, 38, 100
1, 456960, Note_on_c, 13, 45, 100
1, 457104, Note_off_c, 1, 69, 0
1, 457200, Note_off_c, 7, 64, 0
1, 457206, Note_off_c, 7, 69, 0
1, 457220, Note_off_c, 7, 76, 0
1, 457242, Note_on_c, 10, 64, 66
1, 457242, Note_on_c, 10, 69, 63
1, 457242, Note_on_c, 10, 76, 74
1, 457252, Note_off_c, 8, 57, 0
1, 457252, Note_off_c, 8, 61, 0
1, 457252, Note_off_c, 13, 38, 0
1, 457252, Note_off_c, 13, 45, 0
1, 457440, Note_on_c, 0, 66, 93
1, 457440, Note_on_c, 0, 71, 93
1, 457440, Note_on_c, 1, 64, 70
1, 457440, Note_on_c, 2, 73, 100
1, 457440, Note_on_c, 2, 81, 100
1, 457440, Note_on_c, 3, 73, 100
1, 457440, Note_on_c, 3, 76, 100
1, 457440, Note_on_c, 4, 83, 100
1, 457440, Note_on_c, 6, 64, 73
1, 457440, Note_on_c, 6, 69, 82
1, 457440, Note_on_c, 6, 76, 77
1, 457440, Note_on_c, 8, 38, 100
1, 457440, Note_on_c, 8, 45, 100
1, 457440, Note_on_c, 13, 57, 100
1, 457440, Note_on_c, 13, 61, 100
1, 457472, Note_off_c, 10, 69, 0
1, 457478, Note_off_c, 10, 64, 0
1, 457516, Note_off_c, 10, 76, 0
1, 457718, Note_off_c, 6, 69, 0
1, 457730, Note_off_c, 6, 64, 0
1, 457732, Note_off_c, 8, 38, 0
1, 457732, Note_off_c, 8, 45, 0
1, 457732, Note_off_c, 13, 57, 0
1, 457732, Note_off_c, 13, 61, 0
1, 457738, Note_off_c, 6, 76, 0
1, 457912, Note_off_c, 0, 66, 64
1, 457912, Note_off_c, 0, 71, 64
1, 457912, Note_off_c, 2, 73, 64
1, 457912, Note_off_c, 2, 81, 64
1, 457912, Note_off_c, 3, 73, 64
1, 457912, Note_off_c, 3, 76, 64
1, 457912, Note_off_c, 4, 83, 0
1, 457912, Note_off_c, 5, 50, 0
1, 457912, Note_off_c, 5, 57, 0
1, 457920, Note_on_c, 0, 61, 93
1, 457920, Note_on_c, 0, 68, 93
1, 457920, Note_on_c, 1, 66, 77
1, 457920, Note_on_c, 2, 69, 100
1, 457920, Note_on_c, 2, 78, 100
1, 457920, Note_on_c, 3, 64, 100
1, 457920, Note_on_c, 3, 69, 100
1, 457920, Note_on_c, 4, 80, 100
1, 457920, Note_on_c, 5, 52, 100
1, 457920, Note_on_c, 5, 57, 100
1, 457920, Note_on_c, 7, 64, 72
1, 457920, Note_on_c, 7, 69, 77
1, 457920, Note_on_c, 7, 76, 75
1, 457920, Note_on_c, 8, 59, 100
1, 457920, Note_on_c, 8, 61, 100
1, 457920, Note_on_c, 13, 40, 100
1, 457920, Note_on_c, 13, 45, 100
1, 458072, Note_off_c, 1, 64, 0
1, 458128, Note_off_c, 7, 69, 0
1, 458142, Note_off_c, 7, 64, 0
1, 458162, Note_off_c, 7, 76, 0
1, 458202, Note_on_c, 10, 64, 68
1, 458202, Note_on_c, 10, 69, 74
1, 458202, Note_on_c, 10, 76, 74
1, 458212, Note_off_c, 8, 59, 0
1, 458212, Note_off_c, 8, 61, 0
1, 458212, Note_off_c, 13, 40, 0
1, 458212, Note_off_c, 13, 45, 0
1, 458392, Note_off_c, 0, 61, 64
1, 458392, Note_off_c, 0, 68, 64
1, 458392, Note_off_c, 2, 69, 64
1, 458392, Note_off_c, 2, 78, 64
1, 458392, Note_off_c, 3, 64, 64
1, 458392, Note_off_c, 3, 69, 64
1, 458392, Note_off_c, 4, 80, 0
1, 458400, Note_on_c, 6, 64, 72
1, 458400, Note_on_c, 6, 69, 75
1, 458400, Note_on_c, 6, 76, 73
1, 458400, Note_on_c, 8, 40, 100
1, 458400, Note_on_c, 8, 45, 100
1, 458400, Note_on_c, 13, 59, 100
1, 458400, Note_on_c, 13, 61, 100
1, 458462, Note_off_c, 10, 69, 0
1, 458492, Note_off_c, 10, 76, 0
1, 458496, Note_off_c, 10, 64, 0
1, 458564, Note_off_c, 1, 66, 0
1, 458688, Note_off_c, 6, 76, 0
1, 458690, Note_off_c, 6, 69, 0
1, 458692, Note_off_c, 8, 40, 0
1, 458692, Note_off_c, 8, 45, 0
1, 458692, Note_off_c, 13, 59, 0
1, 458692, Note_off_c, 13, 61, 0
1, 458698, Note_off_c, 6, 64, 0
1, 458880, Note_on_c, 0, 61, 98
1, 458880, Note_on_c, 0, 68, 98
1, 458880, Note_on_c, 1, 59, 65
1, 458880, Note_on_c, 2, 71, 100
1, 458880, Note_on_c, 2, 80, 100
1, 458880, Note_on_c, 3, 71, 100
1, 458880, Note_on_c, 3, 76, 100
1, 458880, Note_on_c, 4, 80, 100
1, 458880, Note_on_c, 7, 64, 70
1, 458880, Note_on_c, 7, 69, 78
1, 458880, Note_on_c, 7, 76, 77
1, 458880, Note_on_c, 8, 59, 100
1, 458880, Note_on_c, 8, 61, 100
1, 458880, Note_on_c, 13, 40, 100
1, 458880, Note_on_c, 13, 45, 100
1, 459122, Note_off_c, 7, 64, 0
1, 459144, Note_off_c, 7, 76, 0
1, 459162, Note_on_c, 10, 64, 73
1, 459162, Note_on_c, 10, 69, 82
1, 459162, Note_on_c, 10, 76, 77
1, 459168, Note_off_c, 7, 69, 0
1, 459172, Note_off_c, 8, 59, 0
1, 459172, Note_off_c, 8, 61, 0
1, 459172, Note_off_c, 13, 40, 0
1, 459172, Note_off_c, 13, 45, 0
1, 459352, Note_off_c, 0, 61, 64
1, 459352, Note_off_c, 0, 68, 64
1, 459352, Note_off_c, 2, 71, 64
1, 459352, Note_off_c, 2, 80, 64
1, 459352, Note_off_c, 3, 71, 64
1, 459352, Note_off_c, 3, 76, 64
1, 459352, Note_off_c, 4, 80, 0
1, 459360, Note_on_c, 0, 64, 98
1, 459360, Note_on_c, 0, 69, 98
1, 459360, Note_on_c, 1, 69, 74
1, 459360, Note_on_c, 2, 69, 100
1, 459360, Note_on_c, 2, 78, 100
1, 459360, Note_on_c, 3, 66, 100
1, 459360, Note_on_c, 3, 69, 100
1, 459360, Note_on_c, 4, 81, 100
1, 459360, Note_on_c, 6, 64, 69
1, 459360, Note_on_c, 6, 69, 70
1, 459360, Note_on_c, 6, 76, 72
1, 459360, Note_on_c, 8, 40, 100
1, 459360, Note_on_c, 8, 45, 100
1, 459360, Note_on_c, 13, 59, 100
1, 459360, Note_on_c, 13, 61, 100
1, 459440, Note_off_c, 10, 69, 0
1, 459452, Note_off_c, 10, 64, 0
1, 459454, Note_off_c, 1, 59, 0
1, 459460, Note_off_c, 10, 76, 0
1, 459624, Note_off_c, 6, 69, 0
1, 459648, Note_off_c, 6, 64, 0
1, 459652, Note_off_c, 8, 40, 0
1, 459652, Note_off_c, 8, 45, 0
1, 459652, Note_off_c, 13, 59, 0
1, 459652, Note_off_c, 13, 61, 0
1, 459664, Note_off_c, 6, 76, 0
1, 459832, Note_off_c, 0, 64, 64
1, 459832, Note_off_c, 0, 69, 64
1, 459832, Note_off_c, 2, 69, 64
1, 459832, Note_off_c, 2, 78, 64
1, 459832, Note_off_c, 3, 66, 64
1, 459832, Note_off_c, 3, 69, 64
1, 459832, Note_off_c, 4, 81, 0
1, 459840, Note_on_c, 0, 68, 100
1, 459840, Note_on_c, 0, 73, 100
1, 459840, Note_on_c, 1, 64, 68
1, 459840, Note_on_c, 2, 73, 100
1, 459840, Note_on_c, 2, 81, 100
1, 459840, Note_on_c, 3, 73, 100
1, 459840, Note_on_c, 3, 76, 100
1, 459840, Note_on_c, 4, 85, 100
1, 459840, Note_on_c, 7, 64, 70
1, 459840, Note_on_c, 7, 69, 72
1, 459840, Note_on_c, 7, 76, 77
1, 459840, Note_on_c, 8, 59, 100
1, 459840, Note_on_c, 8, 61, 100
1, 459840, Note_on_c, 13, 40, 100
1, 459840, Note_on_c, 13, 45, 100
1, 460052, Note_off_c, 1, 69, 0
1, 460094, Note_off_c, 7, 64, 0
1, 460106, Note_off_c, 7, 69, 0
1, 460122, Note_on_c, 10, 64, 72
1, 460122, Note_on_c, 10, 69, 75
1, 460122, Note_on_c, 10, 76, 73
1, 460132, Note_off_c, 8, 59, 0
1, 460132, Note_off_c, 8, 61, 0
1, 460132, Note_off_c, 13, 40, 0
1, 460132, Note_off_c, 13, 45, 0
1, 460162, Note_off_c, 7, 76, 0
1, 460312, Note_off_c, 0, 68, 64
1, 460312, Note_off_c, 0, 73, 64
1, 460312, Note_off_c, 2, 73, 64
1, 460312, Note_off_c, 2, 81, 64
1, 460312, Note_off_c, 3, 73, 64
1, 460312, Note_off_c, 3, 76, 64
1, 460312, Note_off_c, 4, 85, 0
1, 460320, Note_on_c, 6, 64, 68
1, 460320, Note_on_c, 6, 69, 77
1, 460320, Note_on_c, 6, 76, 73
1, 460320, Note_on_c, 8, 40, 100
1, 460320, Note_on_c, 8, 45, 100
1, 460320, Note_on_c, 13, 59, 100
1, 460320, Note_on_c, 13, 61, 100
1, 460410, Note_off_c, 10, 76, 0
1, 460412, Note_off_c, 10, 69, 0
1, 460420, Note_off_c, 10, 64, 0
1, 460454, Note_off_c, 1, 64, 0
1, 460586, Note_off_c, 6, 64, 0
1, 460604, Note_off_c, 6, 69, 0
1, 460604, Note_off_c, 6, 76, 0
1, 460612, Note_off_c, 8, 40, 0
1, 460612, Note_off_c, 8, 45, 0
1, 460612, Note_off_c, 13, 59, 0
1, 460612, Note_off_c, 13, 61, 0
1, 460800, Note_on_c, 0, 66, 106
1, 460800, Note_on_c, 0, 71, 106
1, 460800, Note_on_c, 1, 66, 77
1, 460800, Note_on_c, 2, 71, 100
1, 460800, Note_on_c, 2, 80, 100
1, 460800, Note_on_c, 3, 71, 100
1, 460800, Note_on_c, 3, 76, 100
1, 460800, Note_on_c, 4, 83, 100
1, 460800, Note_on_c, 7, 64, 73
1, 460800, Note_on_c, 7, 69, 77
1, 460800, Note_on_c, 7, 76, 74
1, 460800, Note_on_c, 8, 59, 100
1, 460800, Note_on_c, 8, 61, 100
1, 460800, Note_on_c, 13, 40, 100
1, 460800, Note_on_c, 13, 45, 100
1, 461082, Note_on_c, 10, 64, 69
1, 461082, Note_on_c, 10, 69, 70
1, 461082, Note_on_c, 10, 76, 72
1, 461084, Note_off_c, 7, 69, 0
1, 461092, Note_off_c, 8, 59, 0
1, 461092, Note_off_c, 8, 61, 0
1, 461092, Note_off_c, 13, 40, 0
1, 461092, Note_off_c, 13, 45, 0
1, 461116, Note_off_c, 7, 76, 0
1, 461122, Note_off_c, 7, 64, 0
1, 461272, Note_off_c, 0, 66, 64
1, 461272, Note_off_c, 0, 71, 64
1, 461272, Note_off_c, 2, 71, 64
1, 461272, Note_off_c, 2, 80, 64
1, 461272, Note_off_c, 3, 71, 64
1, 461272, Note_off_c, 3, 76, 64
1, 461272, Note_off_c, 4, 83, 0
1, 461280, Note_on_c, 0, 61, 106
1, 461280, Note_on_c, 0, 68, 106
1, 461280, Note_on_c, 1, 61, 70
1, 461280, Note_on_c, 2, 69, 100
1, 461280, Note_on_c, 2, 78, 100
1, 461280, Note_on_c, 3, 64, 100
1, 461280, Note_on_c, 3, 69, 100
1, 461280, Note_on_c, 4, 80, 100
1, 461280, Note_on_c, 6, 64, 72
1, 461280, Note_on_c, 6, 69, 52
1, 461280, Note_on_c, 6, 76, 72
1, 461280, Note_on_c, 8, 40, 100
1, 461280, Note_on_c, 8, 45, 100
1, 461280, Note_on_c, 13, 59, 100
1, 461280, Note_on_c, 13, 61, 100
1, 461346, Note_off_c, 10, 69, 0
1, 461370, Note_off_c, 10, 64, 0
1, 461386, Note_off_c, 10, 76, 0
1, 461432, Note_off_c, 6, 69, 0
1, 461442, Note_off_c, 1, 66, 0
1, 461520, Note_off_c, 6, 64, 0
1, 461526, Note_off_c, 6, 76, 0
1, 461572, Note_off_c, 8, 40, 0
1, 461572, Note_off_c, 8, 45, 0
1, 461572, Note_off_c, 13, 59, 0
1, 461572, Note_off_c, 13, 61, 0
1, 461752, Note_off_c, 0, 61, 64
1, 461752, Note_off_c, 0, 68, 64
1, 461752, Note_off_c, 2, 69, 64
1, 461752, Note_off_c, 2, 78, 64
1, 461752, Note_off_c, 3, 64, 64
1, 461752, Note_off_c, 3, 69, 64
1, 461752, Note_off_c, 4, 80, 0
1, 461760, Note_on_c, 7, 64, 68
1, 461760, Note_on_c, 7, 69, 70
1, 461760, Note_on_c, 7, 76, 72
1, 461760, Note_on_c, 8, 59, 100
1, 461760, Note_on_c, 8, 61, 100
1, 461760, Note_on_c, 13, 40, 100
1, 461760, Note_on_c, 13, 45, 100
1, 461908, Note_off_c, 1, 61, 0
1, 462042, Note_on_c, 10, 64, 68
1, 462042, Note_on_c, 10, 69, 77
1, 462042, Note_on_c, 10, 76, 73
1, 462050, Note_off_c, 7, 69, 0
1, 462052, Note_off_c, 8, 59, 0
1, 462052, Note_off_c, 8, 61, 0
1, 462052, Note_off_c, 13, 40, 0
1, 462052, Note_off_c, 13, 45, 0
1, 462068, Note_off_c, 7, 76, 0
1, 462074, Note_off_c, 7, 64, 0
1, 462240, Note_on_c, 0, 64, 104
1, 462240, Note_on_c, 0, 69, 104
1, 462240, Note_on_c, 1, 69, 77
1, 462240, Note_on_c, 2, 71, 100
1, 462240, Note_on_c, 2, 80, 100
1, 462240, Note_on_c, 3, 71, 100
1, 462240, Note_on_c, 3, 76, 100
1, 462240, Note_on_c, 4, 81, 100
1, 462240, Note_on_c, 6, 64, 68
1, 462240, Note_on_c, 6, 69, 70
1, 462240, Note_on_c, 6, 76, 74
1, 462240, Note_on_c, 8, 40, 100
1, 462240, Note_on_c, 8, 45, 100
1, 462240, Note_on_c, 13, 59, 100
1, 462240, Note_on_c, 13, 61, 100
1, 462308, Note_off_c, 10, 64, 0
1, 462326, Note_off_c, 10, 69, 0
1, 462326, Note_off_c, 10, 76, 0
1, 462472, Note_off_c, 6, 69, 0
1, 462482, Note_off_c, 6, 64, 0
1, 462490, Note_off_c, 6, 76, 0
1, 462532, Note_off_c, 8, 40, 0
1, 462532, Note_off_c, 8, 45, 0
1, 462532, Note_off_c, 13, 59, 0
1, 462532, Note_off_c, 13, 61, 0
1, 462712, Note_off_c, 0, 64, 64
1, 462712, Note_off_c, 0, 69, 64
1, 462712, Note_off_c, 2, 71, 64
1, 462712, Note_off_c, 2, 80, 64
1, 462712, Note_off_c, 3, 71, 64
1, 462712, Note_off_c, 3, 76, 64
1, 462712, Note_off_c, 4, 81, 0
1, 462720, Note_on_c, 7, 64, 68
1, 462720, Note_on_c, 7, 69, 70
1, 462720, Note_on_c, 7, 76, 73
1, 462720, Note_on_c, 8, 59, 100
1, 462720, Note_on_c, 8, 61, 100
1, 462720, Note_on_c, 13, 40, 100
1, 462720, Note_on_c, 13, 45, 100
1, 462888, Note_off_c, 1, 69, 0
1, 462968, Note_off_c, 7, 64, 0
1, 462982, Note_off_c, 7, 69, 0
1, 462982, Note_off_c, 7, 76, 0
1, 463002, Note_on_c, 10, 64, 72
1, 463002, Note_on_c, 10, 69, 52
1, 463002, Note_on_c, 10, 76, 72
1, 463012, Note_off_c, 8, 59, 0
1, 463012, Note_off_c, 8, 61, 0
1, 463012, Note_off_c, 13, 40, 0
1, 463012, Note_off_c, 13, 45, 0
1, 463154, Note_off_c, 10, 69, 0
1, 463200, Note_on_c, 0, 66, 100
1, 463200, Note_on_c, 0, 71, 100
1, 463200, Note_on_c, 1, 64, 68
1, 463200, Note_on_c, 2, 73, 100
1, 463200, Note_on_c, 2, 81, 100
1, 463200, Note_on_c, 3, 73, 100
1, 463200, Note_on_c, 3, 76, 100
1, 463200, Note_on_c, 4, 83, 100
1, 463200, Note_on_c, 6, 64, 68
1, 463200, Note_on_c, 6, 69, 69
1, 463200, Note_on_c, 6, 76, 72
1, 463200, Note_on_c, 8, 40, 100
1, 463200, Note_on_c, 8, 45, 100
1, 463200, Note_on_c, 13, 59, 100
1, 463200, Note_on_c, 13, 61, 100
1, 463242, Note_off_c, 10, 64, 0
1, 463248, Note_off_c, 10, 76, 0
1, 463416, Note_off_c, 6, 76, 0
1, 463418, Note_off_c, 6, 69, 0
1, 463432, Note_off_c, 6, 64, 0
1, 463492, Note_off_c, 8, 40, 0
1, 463492, Note_off_c, 8, 45, 0
1, 463492, Note_off_c, 13, 59, 0
1, 463492, Note_off_c, 13, 61, 0
1, 463644, Note_off_c, 1, 64, 0
1, 463672, Note_off_c, 0, 66, 64
1, 463672, Note_off_c, 0, 71, 64
1, 463672, Note_off_c, 2, 73, 64
1, 463672, Note_off_c, 2, 81, 64
1, 463672, Note_off_c, 3, 73, 64
1, 463672, Note_off_c, 3, 76, 64
1, 463672, Note_off_c, 4, 83, 0
1, 463672, Note_off_c, 5, 52, 0
1, 463672, Note_off_c, 5, 57, 0
1, 463680, Note_on_c, 0, 61, 98
1, 463680, Note_on_c, 0, 68, 98
1, 463680, Note_on_c, 1, 66, 78
1, 463680, Note_on_c, 2, 69, 100
1, 463680, Note_on_c, 2, 78, 100
1, 463680, Note_on_c, 3, 64, 100
1, 463680, Note_on_c, 3, 69, 100
1, 463680, Note_on_c, 4, 80, 100
1, 463680, Note_on_c, 5, 50, 100
1, 463680, Note_on_c, 5, 57, 100
1, 463680, Note_on_c, 7, 64, 70
1, 463680, Note_on_c, 7, 69, 83
1, 463680, Note_on_c, 7, 76, 74
1, 463680, Note_on_c, 8, 57, 100
1, 463680, Note_on_c, 8, 61, 100
1, 463680, Note_on_c, 13, 38, 100
1, 463680, Note_on_c, 13, 45, 100
1, 463920, Note_off_c, 7, 64, 0
1, 463920, Note_off_c, 7, 76, 0
1, 463930, Note_off_c, 7, 69, 0
1, 463962, Note_on_c, 10, 64, 68
1, 463962, Note_on_c, 10, 69, 70
1, 463962, Note_on_c, 10, 76, 74
1, 463972, Note_off_c, 8, 57, 0
1, 463972, Note_off_c, 8, 61, 0
1, 463972, Note_off_c, 13, 38, 0
1, 463972, Note_off_c, 13, 45, 0
1, 464152, Note_off_c, 0, 61, 64
1, 464152, Note_off_c, 0, 68, 64
1, 464152, Note_off_c, 2, 69, 64
1, 464152, Note_off_c, 2, 78, 64
1, 464152, Note_off_c, 3, 64, 64
1, 464152, Note_off_c, 3, 69, 64
1, 464152, Note_off_c, 4, 80, 0
1, 464160, Note_on_c, 6, 64, 67
1, 464160, Note_on_c, 6, 69, 67
1, 464160, Note_on_c, 6, 76, 72
1, 464160, Note_on_c, 8, 38, 100
1, 464160, Note_on_c, 8, 45, 100
1, 464160, Note_on_c, 13, 57, 100
1, 464160, Note_on_c, 13, 61, 100
1, 464194, Note_off_c, 10, 69, 0
1, 464204, Note_off_c, 10, 64, 0
1, 464212, Note_off_c, 10, 76, 0
1, 464348, Note_off_c, 1, 66, 0
1, 464406, Note_off_c, 6, 64, 0
1, 464410, Note_off_c, 6, 69, 0
1, 464426, Note_off_c, 6, 76, 0
1, 464452, Note_off_c, 8, 38, 0
1, 464452, Note_off_c, 8, 45, 0
1, 464452, Note_off_c, 13, 57, 0
1, 464452, Note_off_c, 13, 61, 0
1, 464640, Note_on_c, 0, 61, 95
1, 464640, Note_on_c, 0, 68, 95
1, 464640, Note_on_c, 1, 59, 74
1, 464640, Note_on_c, 2, 71, 100
1, 464640, Note_on_c, 2, 80, 100
1, 464640, Note_on_c, 3, 71, 100
1, 464640, Note_on_c, 3, 76, 100
1, 464640, Note_on_c, 4, 80, 100
1, 464640, Note_on_c, 7, 64, 67
1, 464640, Note_on_c, 7, 69, 78
1, 464640, Note_on_c, 7, 76, 73
1, 464640, Note_on_c, 8, 57, 100
1, 464640, Note_on_c, 8, 61, 100
1, 464640, Note_on_c, 13, 38, 100
1, 464640, Note_on_c, 13, 45, 100
1, 464890, Note_off_c, 7, 76, 0
1, 464896, Note_off_c, 7, 69, 0
1, 464904, Note_off_c, 7, 64, 0
1, 464922, Note_on_c, 10, 64, 68
1, 464922, Note_on_c, 10, 69, 69
1, 464922, Note_on_c, 10, 76, 72
1, 464932, Note_off_c, 8, 57, 0
1, 464932, Note_off_c, 8, 61, 0
1, 464932, Note_off_c, 13, 38, 0
1, 464932, Note_off_c, 13, 45, 0
1, 465112, Note_off_c, 0, 61, 64
1, 465112, Note_off_c, 0, 68, 64
1, 465112, Note_off_c, 2, 71, 64
1, 465112, Note_off_c, 2, 80, 64
1, 465112, Note_off_c, 3, 71, 64
1, 465112, Note_off_c, 3, 76, 64
1, 465112, Note_off_c, 4, 80, 0
1, 465120, Note_on_c, 0, 64, 102
1, 465120, Note_on_c, 0, 69, 102
1, 465120, Note_on_c, 1, 69, 75
1, 465120, Note_on_c, 2, 69, 100
1, 465120, Note_on_c, 2, 78, 100
1, 465120, Note_on_c, 3, 66, 100
1, 465120, Note_on_c, 3, 69, 100
1, 465120, Note_on_c, 4, 81, 100
1, 465120, Note_on_c, 6, 64, 67
1, 465120, Note_on_c, 6, 69, 63
1, 465120, Note_on_c, 6, 76, 72
1, 465120, Note_on_c, 8, 38, 100
1, 465120, Note_on_c, 8, 45, 100
1, 465120, Note_on_c, 13, 57, 100
1, 465120, Note_on_c, 13, 61, 100
1, 465128, Note_off_c, 1, 59, 0
1, 465138, Note_off_c, 10, 76, 0
1, 465140, Note_off_c, 10, 69, 0
1, 465154, Note_off_c, 10, 64, 0
1, 465368, Note_off_c, 6, 69, 0
1, 465396, Note_off_c, 6, 64, 0
1, 465412, Note_off_c, 6, 76, 0
1, 465412, Note_off_c, 8, 38, 0
1, 465412, Note_off_c, 8, 45, 0
1, 465412, Note_off_c, 13, 57, 0
1, 465412, Note_off_c, 13, 61, 0
1, 465592, Note_off_c, 0, 64, 64
1, 465592, Note_off_c, 0, 69, 64
1, 465592, Note_off_c, 2, 69, 64
1, 465592, Note_off_c, 2, 78, 64
1, 465592, Note_off_c, 3, 66, 64
1, 465592, Note_off_c, 3, 69, 64
1, 465592, Note_off_c, 4, 81, 0
1, 465600, Note_on_c, 0, 68, 100
1, 465600, Note_on_c, 0, 73, 100
1, 465600, Note_on_c, 1, 64, 73
1, 465600, Note_on_c, 2, 73, 100
1, 465600, Note_on_c, 2, 81, 100
1, 465600, Note_on_c, 3, 73, 100
1, 465600, Note_on_c, 3, 76, 100
1, 465600, Note_on_c, 4, 85, 100
1, 465600, Note_on_c, 7, 64, 69
1, 465600, Note_on_c, 7, 69, 70
1, 465600, Note_on_c, 7, 76, 73
1, 465600, Note_on_c, 8, 57, 100
1, 465600, Note_on_c, 8, 61, 100
1, 465600, Note_on_c, 13, 38, 100
1, 465600, Note_on_c, 13, 45, 100
1, 465726, Note_off_c, 1, 69, 0
1, 465820, Note_off_c, 7, 69, 0
1, 465842, Note_off_c, 7, 76, 0
1, 465852, Note_off_c, 7, 64, 0
1, 465882, Note_on_c, 10, 64, 67
1, 465882, Note_on_c, 10, 69, 67
1, 465882, Note_on_c, 10, 76, 72
1, 465892, Note_off_c, 8, 57, 0
1, 465892, Note_off_c, 8, 61, 0
1, 465892, Note_off_c, 13, 38, 0
1, 465892, Note_off_c, 13, 45, 0
1, 466072, Note_off_c, 0, 68, 64
1, 466072, Note_off_c, 0, 73, 64
1, 466072, Note_off_c, 2, 73, 64
1, 466072, Note_off_c, 2, 81, 64
1, 466072, Note_off_c, 3, 73, 64
1, 466072, Note_off_c, 3, 76, 64
1, 466072, Note_off_c, 4, 85, 0
1, 466080, Note_on_c, 6, 64, 68
1, 466080, Note_on_c, 6, 69, 66
1, 466080, Note_on_c, 6, 76, 70
1, 466080, Note_on_c, 8, 38, 100
1, 466080, Note_on_c, 8, 45, 100
1, 466080, Note_on_c, 13, 57, 100
1, 466080, Note_on_c, 13, 61, 100
1, 466128, Note_off_c, 10, 64, 0
1, 466132, Note_off_c, 10, 69, 0
1, 466148, Note_off_c, 10, 76, 0
1, 466276, Note_off_c, 6, 69, 0
1, 466300, Note_off_c, 6, 64, 0
1, 466306, Note_off_c, 1, 64, 0
1, 466318, Note_off_c, 6, 76, 0
1, 466372, Note_off_c, 8, 38, 0
1, 466372, Note_off_c, 8, 45, 0
1, 466372, Note_off_c, 13, 57, 0
1, 466372, Note_off_c, 13, 61, 0
1, 466552, Note_off_c, 5, 50, 0
1, 466552, Note_off_c, 5, 57, 0
1, 466560, Note_on_c, 0, 66, 100
1, 466560, Note_on_c, 0, 71, 100
1, 466560, Note_on_c, 1, 66, 68
1, 466560, Note_on_c, 2, 71, 100
1, 466560, Note_on_c, 2, 80, 100
1, 466560, Note_on_c, 3, 71, 100
1, 466560, Note_on_c, 3, 76, 100
1, 466560, Note_on_c, 4, 83, 100
1, 466560, Note_on_c, 5, 52, 100
1, 466560, Note_on_c, 5, 57, 100
1, 466560, Note_on_c, 7, 64, 69
1, 466560, Note_on_c, 7, 69, 75
1, 466560, Note_on_c, 7, 76, 73
1, 466560, Note_on_c, 8, 59, 100
1, 466560, Note_on_c, 8, 61, 100
1, 466560, Note_on_c, 13, 40, 100
1, 466560, Note_on_c, 13, 45, 100
1, 466774, Note_off_c, 7, 69, 0
1, 466790, Note_off_c, 7, 64, 0
1, 466804, Note_off_c, 7, 76, 0
1, 466842, Note_on_c, 10, 64, 67
1, 466842, Note_on_c, 10, 69, 63
1, 466842, Note_on_c, 10, 76, 72
1, 466852, Note_off_c, 8, 59, 0
1, 466852, Note_off_c, 8, 61, 0
1, 466852, Note_off_c, 13, 40, 0
1, 466852, Note_off_c, 13, 45, 0
1, 467032, Note_off_c, 0, 66, 64
1, 467032, Note_off_c, 0, 71, 64
1, 467032, Note_off_c, 2, 71, 64
1, 467032, Note_off_c, 2, 80, 64
1, 467032, Note_off_c, 3, 71, 64
1, 467032, Note_off_c, 3, 76, 64
1, 467032, Note_off_c, 4, 83, 0
1, 467040, Note_on_c, 0, 61, 100
1, 467040, Note_on_c, 0, 68, 100
1, 467040, Note_on_c, 1, 61, 68
1, 467040, Note_on_c, 2, 69, 100
1, 467040, Note_on_c, 2, 78, 100
1, 467040, Note_on_c, 3, 64, 100
1, 467040, Note_on_c, 3, 69, 100
1, 467040, Note_on_c, 4, 80, 100
1, 467040, Note_on_c, 6, 64, 68
1, 467040, Note_on_c, 6, 69, 63
1, 467040, Note_on_c, 6, 76, 72
1, 467040, Note_on_c, 8, 40, 100
1, 467040, Note_on_c, 8, 45, 100
1, 467040, Note_on_c, 13, 59, 100
1, 467040, Note_on_c, 13, 61, 100
1, 467076, Note_off_c, 1, 66, 0
1, 467090, Note_off_c, 10, 69, 0
1, 467118, Note_off_c, 10, 64, 0
1, 467134, Note_off_c, 10, 76, 0
1, 467250, Note_off_c, 6, 64, 0
1, 467284, Note_off_c, 6, 76, 0
1, 467302, Note_off_c, 6, 69, 0
1, 467332, Note_off_c, 8, 40, 0
1, 467332, Note_off_c, 8, 45, 0
1, 467332, Note_off_c, 13, 59, 0
1, 467332, Note_off_c, 13, 61, 0
1, 467512, Note_off_c, 0, 61, 64
1, 467512, Note_off_c, 0, 68, 64
1, 467512, Note_off_c, 2, 69, 64
1, 467512, Note_off_c, 2, 78, 64
1, 467512, Note_off_c, 3, 64, 64
1, 467512, Note_off_c, 3, 69, 64
1, 467512, Note_off_c, 4, 80, 0
1, 467520, Note_on_c, 7, 64, 68
1, 467520, Note_on_c, 7, 69, 74
1, 467520, Note_on_c, 7, 76, 74
1, 467520, Note_on_c, 8, 59, 100
1, 467520, Note_on_c, 8, 61, 100
1, 467520, Note_on_c, 13, 40, 100
1, 467520, Note_on_c, 13, 45, 100
1, 467744, Note_off_c, 7, 69, 0
1, 467784, Note_off_c, 7, 64, 0
1, 467794, Note_off_c, 7, 76, 0
1, 467802, Note_on_c, 10, 64, 68
1, 467802, Note_on_c, 10, 69, 66
1, 467802, Note_on_c, 10, 76, 70
1, 467810, Note_off_c, 1, 61, 0
1, 467812, Note_off_c, 8, 59, 0
1, 467812, Note_off_c, 8, 61, 0
1, 467812, Note_off_c, 13, 40, 0
1, 467812, Note_off_c, 13, 45, 0
1, 467998, Note_off_c, 10, 69, 0
1, 468000, Note_on_c, 0, 64, 100
1, 468000, Note_on_c, 0, 69, 100
1, 468000, Note_on_c, 1, 69, 77
1, 468000, Note_on_c, 2, 71, 100
1, 468000, Note_on_c, 2, 80, 100
1, 468000, Note_on_c, 3, 71, 100
1, 468000, Note_on_c, 3, 76, 100
1, 468000, Note_on_c, 4, 81, 100
1, 468000, Note_on_c, 6, 64, 70
1, 468000, Note_on_c, 6, 69, 69
1, 468000, Note_on_c, 6, 76, 72
1, 468000, Note_on_c, 8, 40, 100
1, 468000, Note_on_c, 8, 45, 100
1, 468000, Note_on_c, 13, 59, 100
1, 468000, Note_on_c, 13, 61, 100
1, 468022, Note_off_c, 10, 64, 0
1, 468040, Note_off_c, 10, 76, 0
1, 468234, Note_off_c, 6, 69, 0
1, 468262, Note_off_c, 6, 64, 0
1, 468262, Note_off_c, 6, 76, 0
1, 468292, Note_off_c, 8, 40, 0
1, 468292, Note_off_c, 8, 45, 0
1, 468292, Note_off_c, 13, 59, 0
1, 468292, Note_off_c, 13, 61, 0
1, 468472, Note_off_c, 0, 64, 64
1, 468472, Note_off_c, 0, 69, 64
1, 468472, Note_off_c, 2, 71, 64
1, 468472, Note_off_c, 2, 80, 64
1, 468472, Note_off_c, 3, 71, 64
1, 468472, Note_off_c, 3, 76, 64
1, 468472, Note_off_c, 4, 81, 0
1, 468480, Note_on_c, 7, 64, 68
1, 468480, Note_on_c, 7, 69, 73
1, 468480, Note_on_c, 7, 76, 73
1, 468480, Note_on_c, 8, 59, 100
1, 468480, Note_on_c, 8, 61, 100
1, 468480, Note_on_c, 13, 40, 100
1, 468480, Note_on_c, 13, 45, 100
1, 468624, Note_off_c, 1, 69, 0
1, 468704, Note_off_c, 7, 64, 0
1, 468728, Note_off_c, 7, 69, 0
1, 468728, Note_off_c, 7, 76, 0
1, 468762, Note_on_c, 10, 64, 68
1, 468762, Note_on_c, 10, 69, 63
1, 468762, Note_on_c, 10, 76, 72
1, 468772, Note_off_c, 8, 59, 0
1, 468772, Note_off_c, 8, 61, 0
1, 468772, Note_off_c, 13, 40, 0
1, 468772, Note_off_c, 13, 45, 0
1, 468960, Note_on_c, 0, 66, 100
1, 468960, Note_on_c, 0, 71, 100
1, 468960, Note_on_c, 1, 64, 70
1, 468960, Note_on_c, 2, 73, 100
1, 468960, Note_on_c, 2, 81, 100
1, 468960, Note_on_c, 3, 73, 100
1, 468960, Note_on_c, 3, 76, 100
1, 468960, Note_on_c, 4, 83, 100
1, 468960, Note_on_c, 6, 64, 68
1, 468960, Note_on_c, 6, 69, 70
1, 468960, Note_on_c, 6, 76, 70
1, 468960, Note_on_c, 8, 40, 100
1, 468960, Note_on_c, 8, 45, 100
1, 468960, Note_on_c, 13, 59, 100
1, 468960, Note_on_c, 13, 61, 100
1, 468972, Note_off_c, 10, 64, 0
1, 469006, Note_off_c, 10, 76, 0
1, 469024, Note_off_c, 10, 69, 0
1, 469168, Note_off_c, 6, 64, 0
1, 469196, Note_off_c, 6, 69, 0
1, 469200, Note_off_c, 6, 76, 0
1, 469252, Note_off_c, 8, 40, 0
1, 469252, Note_off_c, 8, 45, 0
1, 469252, Note_off_c, 13, 59, 0
1, 469252, Note_off_c, 13, 61, 0
1, 469432, Note_off_c, 0, 66, 64
1, 469432, Note_off_c, 0, 71, 64
1, 469432, Note_off_c, 2, 73, 64
1, 469432, Note_off_c, 2, 81, 64
1, 469432, Note_off_c, 3, 73, 64
1, 469432, Note_off_c, 3, 76, 64
1, 469432, Note_off_c, 4, 83, 0
1, 469432, Note_off_c, 5, 52, 0
1, 469432, Note_off_c, 5, 57, 0
1, 469440, Note_on_c, 0, 61, 100
1, 469440, Note_on_c, 0, 68, 100
1, 469440, Note_on_c, 1, 66, 77
1, 469440, Note_on_c, 2, 69, 100
1, 469440, Note_on_c, 2, 78, 100
1, 469440, Note_on_c, 3, 64, 100
1, 469440, Note_on_c, 3, 69, 100
1, 469440, Note_on_c, 4, 80, 100
1, 469440, Note_on_c, 5, 50, 100
1, 469440, Note_on_c, 5, 57, 100
1, 469440, Note_on_c, 7, 64, 66
1, 469440, Note_on_c, 7, 69, 74
1, 469440, Note_on_c, 7, 76, 73
1, 469440, Note_on_c, 8, 57, 100
1, 469440, Note_on_c, 8, 61, 100
1, 469440, Note_on_c, 13, 38, 100
1, 469440, Note_on_c, 13, 45, 100
1, 469592, Note_off_c, 1, 64, 0
1, 469674, Note_off_c, 7, 64, 0
1, 469694, Note_off_c, 7, 76, 0
1, 469722, Note_off_c, 7, 69, 0
1, 469722, Note_on_c, 10, 64, 70
1, 469722, Note_on_c, 10, 69, 69
1, 469722, Note_on_c, 10, 76, 72
1, 469732, Note_off_c, 8, 57, 0
1, 469732, Note_off_c, 8, 61, 0
1, 469732, Note_off_c, 13, 38, 0
1, 469732, Note_off_c, 13, 45, 0
1, 469912, Note_off_c, 0, 61, 64
1, 469912, Note_off_c, 0, 68, 64
1, 469912, Note_off_c, 2, 69, 64
1, 469912, Note_off_c, 2, 78, 64
1, 469912, Note_off_c, 3, 64, 64
1, 469912, Note_off_c, 3, 69, 64
1, 469912, Note_off_c, 4, 80, 0
1, 469920, Note_on_c, 6, 64, 67
1, 469920, Note_on_c, 6, 69, 73
1, 469920, Note_on_c, 6, 76, 74
1, 469920, Note_on_c, 8, 38, 100
1, 469920, Note_on_c, 8, 45, 100
1, 469920, Note_on_c, 13, 57, 100
1, 469920, Note_on_c, 13, 61, 100
1, 469956, Note_off_c, 10, 69, 0
1, 469984, Note_off_c, 10, 64, 0
1, 469984, Note_off_c, 10, 76, 0
1, 470084, Note_off_c, 1, 66, 0
1, 470136, Note_off_c, 6, 64, 0
1, 470156, Note_off_c, 6, 76, 0
1, 470166, Note_off_c, 6, 69, 0
1, 470212, Note_off_c, 8, 38, 0
1, 470212, Note_off_c, 8, 45, 0
1, 470212, Note_off_c, 13, 57, 0
1, 470212, Note_off_c, 13, 61, 0
1, 470400, Note_on_c, 0, 61, 100
1, 470400, Note_on_c, 0, 68, 100
1, 470400, Note_on_c, 1, 59, 65
1, 470400, Note_on_c, 2, 71, 100
1, 470400, Note_on_c, 2, 80, 100
1, 470400, Note_on_c, 3, 71, 100
1, 470400, Note_on_c, 3, 76, 100
1, 470400, Note_on_c, 4, 80, 100
1, 470400, Note_on_c, 7, 64, 66
1, 470400, Note_on_c, 7, 69, 77
1, 470400, Note_on_c, 7, 76, 70
1, 470400, Note_on_c, 8, 57, 100
1, 470400, Note_on_c, 8, 61, 100
1, 470400, Note_on_c, 13, 38, 100
1, 470400, Note_on_c, 13, 45, 100
1, 470628, Note_off_c, 7, 64, 0
1, 470682, Note_on_c, 10, 64, 68
1, 470682, Note_on_c, 10, 69, 70
1, 470682, Note_on_c, 10, 76, 70
1, 470686, Note_off_c, 7, 69, 0
1, 470692, Note_off_c, 8, 57, 0
1, 470692, Note_off_c, 8, 61, 0
1, 470692, Note_off_c, 13, 38, 0
1, 470692, Note_off_c, 13, 45, 0
1, 470710, Note_off_c, 7, 76, 0
1, 470872, Note_off_c, 0, 61, 64
1, 470872, Note_off_c, 0, 68, 64
1, 470872, Note_off_c, 2, 71, 64
1, 470872, Note_off_c, 2, 80, 64
1, 470872, Note_off_c, 3, 71, 64
1, 470872, Note_off_c, 3, 76, 64
1, 470872, Note_off_c, 4, 80, 0
1, 470880, Note_on_c, 0, 64, 100
1, 470880, Note_on_c, 0, 69, 100
1, 470880, Note_on_c, 1, 69, 74
1, 470880, Note_on_c, 2, 69, 100
1, 470880, Note_on_c, 2, 78, 100
1, 470880, Note_on_c, 3, 66, 100
1, 470880, Note_on_c, 3, 69, 100
1, 470880, Note_on_c, 4, 81, 100
1, 470880, Note_on_c, 6, 64, 68
1, 470880, Note_on_c, 6, 69, 74
1, 470880, Note_on_c, 6, 76, 75
1, 470880, Note_on_c, 8, 38, 100
1, 470880, Note_on_c, 8, 45, 100
1, 470880, Note_on_c, 13, 57, 100
1, 470880, Note_on_c, 13, 61, 100
1, 470890, Note_off_c, 10, 64, 0
1, 470918, Note_off_c, 10, 69, 0
1, 470922, Note_off_c, 10, 76, 0
1, 470974, Note_off_c, 1, 59, 0
1, 471152, Note_off_c, 6, 69, 0
1, 471156, Note_off_c, 6, 64, 0
1, 471170, Note_off_c, 6, 76, 0
1, 471172, Note_off_c, 8, 38, 0
1, 471172, Note_off_c, 8, 45, 0
1, 471172, Note_off_c, 13, 57, 0
1, 471172, Note_off_c, 13, 61, 0
1, 471352, Note_off_c, 0, 64, 64
1, 471352, Note_off_c, 0, 69, 64
1, 471352, Note_off_c, 2, 69, 64
1, 471352, Note_off_c, 2, 78, 64
1, 471352, Note_off_c, 3, 66, 64
1, 471352, Note_off_c, 3, 69, 64
1, 471352, Note_off_c, 4, 81, 0
1, 471352, Note_off_c, 5, 50, 0
1, 471352, Note_off_c, 5, 57, 0
1, 471360, Note_on_c, 0, 68, 100
1, 471360, Note_on_c, 0, 73, 100
1, 471360, Note_on_c, 1, 64, 68
1, 471360, Note_on_c, 2, 73, 100
1, 471360, Note_on_c, 2, 81, 100
1, 471360, Note_on_c, 3, 73, 100
1, 471360, Note_on_c, 3, 76, 100
1, 471360, Note_on_c, 4, 85, 100
1, 471360, Note_on_c, 5, 52, 100
1, 471360, Note_on_c, 5, 57, 100
1, 471360, Note_on_c, 7, 64, 65
1, 471360, Note_on_c, 7, 69, 72
1, 471360, Note_on_c, 7, 76, 72
1, 471360, Note_on_c, 8, 59, 100
1, 471360, Note_on_c, 8, 61, 100
1, 471360, Note_on_c, 13, 40, 100
1, 471360, Note_on_c, 13, 45, 100
1, 471572, Note_off_c, 1, 69, 0
1, 471636, Note_off_c, 7, 64, 0
1, 471642, Note_on_c, 10, 64, 67
1, 471642, Note_on_c, 10, 69, 73
1, 471642, Note_on_c, 10, 76, 74
1, 471650, Note_off_c, 7, 69, 0
1, 471652, Note_off_c, 7, 76, 0
1, 471652, Note_off_c, 8, 59, 0
1, 471652, Note_off_c, 8, 61, 0
1, 471652, Note_off_c, 13, 40, 0
1, 471652, Note_off_c, 13, 45, 0
1, 471832, Note_off_c, 0, 68, 64
1, 471832, Note_off_c, 0, 73, 64
1, 471832, Note_off_c, 2, 73, 64
1, 471832, Note_off_c, 2, 81, 64
1, 471832, Note_off_c, 3, 73, 64
1, 471832, Note_off_c, 3, 76, 64
1, 471832, Note_off_c, 4, 85, 0
1, 471840, Note_on_c, 6, 64, 73
1, 471840, Note_on_c, 6, 69, 80
1, 471840, Note_on_c, 6, 76, 77
1, 471840, Note_on_c, 8, 40, 100
1, 471840, Note_on_c, 8, 45, 100
1, 471840, Note_on_c, 13, 59, 100
1, 471840, Note_on_c, 13, 61, 100
1, 471858, Note_off_c, 10, 64, 0
1, 471878, Note_off_c, 10, 76, 0
1, 471888, Note_off_c, 10, 69, 0
1, 471974, Note_off_c, 1, 64, 0
1, 472102, Note_off_c, 6, 64, 0
1, 472118, Note_off_c, 6, 69, 0
1, 472128, Note_off_c, 6, 76, 0
1, 472132, Note_off_c, 8, 40, 0
1, 472132, Note_off_c, 8, 45, 0
1, 472132, Note_off_c, 13, 59, 0
1, 472132, Note_off_c, 13, 61, 0
1, 472320, Note_on_c, 1, 66, 77
1, 472320, Note_on_c, 3, 71, 100
1, 472320, Note_on_c, 3, 76, 100
1, 472320, Note_on_c, 7, 64, 67
1, 472320, Note_on_c, 7, 69, 75
1, 472320, Note_on_c, 7, 76, 70
1, 472320, Note_on_c, 8, 59, 100
1, 472320, Note_on_c, 8, 61, 100
1, 472320, Note_on_c, 13, 40, 100
1, 472320, Note_on_c, 13, 45, 100
1, 472550, Note_off_c, 7, 69, 0
1, 472568, Note_off_c, 7, 64, 0
1, 472578, Note_off_c, 7, 76, 0
1, 472602, Note_on_c, 10, 64, 68
1, 472602, Note_on_c, 10, 69, 74
1, 472602, Note_on_c, 10, 76, 75
1, 472612, Note_off_c, 8, 59, 0
1, 472612, Note_off_c, 8, 61, 0
1, 472612, Note_off_c, 13, 40, 0
1, 472612, Note_off_c, 13, 45, 0
1, 472792, Note_off_c, 3, 71, 64
1, 472792, Note_off_c, 3, 76, 64
1, 472800, Note_on_c, 1, 61, 70
1, 472800, Note_on_c, 3, 64, 100
1, 472800, Note_on_c, 3, 69, 100
1, 472800, Note_on_c, 6, 64, 68
1, 472800, Note_on_c, 6, 69, 70
1, 472800, Note_on_c, 6, 76, 74
1, 472800, Note_on_c, 8, 40, 100
1, 472800, Note_on_c, 8, 45, 100
1, 472800, Note_on_c, 13, 59, 100
1, 472800, Note_on_c, 13, 61, 100
1, 472874, Note_off_c, 10, 69, 0
1, 472878, Note_off_c, 10, 64, 0
1, 472892, Note_off_c, 10, 76, 0
1, 472962, Note_off_c, 1, 66, 0
1, 473086, Note_off_c, 6, 64, 0
1, 473092, Note_off_c, 8, 40, 0
1, 473092, Note_off_c, 8, 45, 0
1, 473092, Note_off_c, 13, 59, 0
1, 473092, Note_off_c, 13, 61, 0
1, 473098, Note_off_c, 6, 69, 0
1, 473098, Note_off_c, 6, 76, 0
1, 473272, Note_off_c, 3, 64, 64
1, 473272, Note_off_c, 3, 69, 64
1, 473280, Note_on_c, 7, 64, 66
1, 473280, Note_on_c, 7, 69, 68
1, 473280, Note_on_c, 7, 76, 72
1, 473280, Note_on_c, 8, 59, 100
1, 473280, Note_on_c, 8, 61, 100
1, 473280, Note_on_c, 13, 40, 100
1, 473280, Note_on_c, 13, 45, 100
1, 473428, Note_off_c, 1, 61, 0
1, 473540, Note_off_c, 7, 69, 0
1, 473550, Note_off_c, 7, 64, 0
1, 473554, Note_off_c, 7, 76, 0
1, 473562, Note_on_c, 10, 64, 73
1, 473562, Note_on_c, 10, 69, 80
1, 473562, Note_on_c, 10, 76, 77
1, 473572, Note_off_c, 8, 59, 0
1, 473572, Note_off_c, 8, 61, 0
1, 473572, Note_off_c, 13, 40, 0
1, 473572, Note_off_c, 13, 45, 0
1, 473760, Note_on_c, 1, 69, 77
1, 473760, Note_on_c, 3, 71, 100
1, 473760, Note_on_c, 3, 76, 100
1, 473760, Note_on_c, 6, 64, 70
1, 473760, Note_on_c, 6, 69, 74
1, 473760, Note_on_c, 6, 76, 74
1, 473760, Note_on_c, 8, 40, 100
1, 473760, Note_on_c, 8, 45, 100
1, 473760, Note_on_c, 13, 59, 100
1, 473760, Note_on_c, 13, 61, 100
1, 473824, Note_off_c, 10, 64, 0
1, 473840, Note_off_c, 10, 69, 0
1, 473850, Note_off_c, 10, 76, 0
1, 473964, Note_off_c, 6, 64, 0
1, 473994, Note_off_c, 6, 76, 0
1, 474032, Note_off_c, 6, 69, 0
1, 474052, Note_off_c, 8, 40, 0
1, 474052, Note_off_c, 8, 45, 0
1, 474052, Note_off_c, 13, 59, 0
1, 474052, Note_off_c, 13, 61, 0
1, 474232, Note_off_c, 3, 71, 64
1, 474232, Note_off_c, 3, 76, 64
1, 474240, Note_on_c, 7, 64, 62
1, 474240, Note_on_c, 7, 69, 60
1, 474240, Note_on_c, 7, 76, 70
1, 474240, Note_on_c, 8, 59, 100
1, 474240, Note_on_c, 8, 61, 100
1, 474240, Note_on_c, 13, 40, 100
1, 474240, Note_on_c, 13, 45, 100
1, 474408, Note_off_c, 1, 69, 0
1, 474500, Note_off_c, 7, 69, 0
1, 474518, Note_off_c, 7, 64, 0
1, 474522, Note_on_c, 10, 64, 68
1, 474522, Note_on_c, 10, 69, 70
1, 474522, Note_on_c, 10, 76, 74
1, 474532, Note_off_c, 8, 59, 0
1, 474532, Note_off_c, 8, 61, 0
1, 474532, Note_off_c, 13, 40, 0
1, 474532, Note_off_c, 13, 45, 0
1, 474578, Note_off_c, 7, 76, 0
1, 474720, Note_on_c, 1, 64, 68
1, 474720, Note_on_c, 3, 73, 100
1, 474720, Note_on_c, 3, 76, 100
1, 474720, Note_on_c, 6, 64, 68
1, 474720, Note_on_c, 6, 69, 68
1, 474720, Note_on_c, 6, 76, 72
1, 474720, Note_on_c, 8, 40, 100
1, 474720, Note_on_c, 8, 45, 100
1, 474720, Note_on_c, 13, 59, 100
1, 474720, Note_on_c, 13, 61, 100
1, 474808, Note_off_c, 10, 64, 0
1, 474820, Note_off_c, 10, 69, 0
1, 474820, Note_off_c, 10, 76, 0
1, 474926, Note_off_c, 6, 69, 0
1, 474934, Note_off_c, 6, 64, 0
1, 474944, Note_off_c, 6, 76, 0
1, 475012, Note_off_c, 8, 40, 0
1, 475012, Note_off_c, 8, 45, 0
1, 475012, Note_off_c, 13, 59, 0
1, 475012, Note_off_c, 13, 61, 0
1, 475164, Note_off_c, 1, 64, 0
1, 475192, Note_off_c, 3, 73, 64
1, 475192, Note_off_c, 3, 76, 64
1, 475192, Note_off_c, 5, 52, 0
1, 475192, Note_off_c, 5, 57, 0
1, 475200, Note_on_c, 0, 59, 100
1, 475200, Note_on_c, 0, 66, 100
1, 475200, Note_on_c, 1, 66, 78
1, 475200, Note_on_c, 2, 69, 100
1, 475200, Note_on_c, 2, 78, 100
1, 475200, Note_on_c, 3, 64, 100
1, 475200, Note_on_c, 3, 69, 100
1, 475200, Note_on_c, 4, 78, 100
1, 475200, Note_on_c, 5, 50, 100
1, 475200, Note_on_c, 5, 57, 100
1, 475200, Note_on_c, 7, 64, 56
1, 475200, Note_on_c, 7, 69, 69
1, 475200, Note_on_c, 7, 76, 73
1, 475200, Note_on_c, 8, 57, 100
1, 475200, Note_on_c, 8, 61, 100
1, 475200, Note_on_c, 13, 38, 100
1, 475200, Note_on_c, 13, 45, 100
1, 475466, Note_off_c, 7, 64, 0
1, 475482, Note_on_c, 10, 64, 70
1, 475482, Note_on_c, 10, 69, 74
1, 475482, Note_on_c, 10, 76, 74
1, 475492, Note_off_c, 8, 57, 0
1, 475492, Note_off_c, 8, 61, 0
1, 475492, Note_off_c, 13, 38, 0
1, 475492, Note_off_c, 13, 45, 0
1, 475494, Note_off_c, 7, 69, 0
1, 475502, Note_off_c, 7, 76, 0
1, 475672, Note_off_c, 0, 59, 64
1, 475672, Note_off_c, 0, 66, 64
1, 475672, Note_off_c, 2, 69, 64
1, 475672, Note_off_c, 2, 78, 64
1, 475672, Note_off_c, 3, 64, 64
1, 475672, Note_off_c, 3, 69, 64
1, 475672, Note_off_c, 4, 78, 0
1, 475680, Note_on_c, 6, 64, 70
1, 475680, Note_on_c, 6, 69, 70
1, 475680, Note_on_c, 6, 76, 75
1, 475680, Note_on_c, 8, 38, 100
1, 475680, Note_on_c, 8, 45, 100
1, 475680, Note_on_c, 13, 57, 100
1, 475680, Note_on_c, 13, 61, 100
1, 475686, Note_off_c, 10, 64, 0
1, 475716, Note_off_c, 10, 76, 0
1, 475754, Note_off_c, 10, 69, 0
1, 475868, Note_off_c, 1, 66, 0
1, 475908, Note_off_c, 6, 69, 0
1, 475950, Note_off_c, 6, 64, 0
1, 475972, Note_off_c, 8, 38, 0
1, 475972, Note_off_c, 8, 45, 0
1, 475972, Note_off_c, 13, 57, 0
1, 475972, Note_off_c, 13, 61, 0
1, 475988, Note_off_c, 6, 76, 0
1, 476160, Note_on_c, 0, 61, 84
1, 476160, Note_on_c, 0, 68, 84
1, 476160, Note_on_c, 1, 59, 74
1, 476160, Note_on_c, 2, 71, 100
1, 476160, Note_on_c, 2, 80, 100
1, 476160, Note_on_c, 3, 71, 100
1, 476160, Note_on_c, 3, 76, 100
1, 476160, Note_on_c, 4, 80, 100
1, 476160, Note_on_c, 7, 64, 66
1, 476160, Note_on_c, 7, 69, 70
1, 476160, Note_on_c, 7, 76, 75
1, 476160, Note_on_c, 8, 57, 100
1, 476160, Note_on_c, 8, 61, 100
1, 476160, Note_on_c, 13, 38, 100
1, 476160, Note_on_c, 13, 45, 100
1, 476410, Note_off_c, 7, 69, 0
1, 476424, Note_off_c, 7, 64, 0
1, 476442, Note_on_c, 10, 64, 68
1, 476442, Note_on_c, 10, 69, 68
1, 476442, Note_on_c, 10, 76, 72
1, 476450, Note_off_c, 7, 76, 0
1, 476452, Note_off_c, 8, 57, 0
1, 476452, Note_off_c, 8, 61, 0
1, 476452, Note_off_c, 13, 38, 0
1, 476452, Note_off_c, 13, 45, 0
1, 476632, Note_off_c, 0, 61, 64
1, 476632, Note_off_c, 0, 68, 64
1, 476632, Note_off_c, 2, 71, 64
1, 476632, Note_off_c, 2, 80, 64
1, 476632, Note_off_c, 3, 71, 64
1, 476632, Note_off_c, 3, 76, 64
1, 476632, Note_off_c, 4, 80, 0
1, 476640, Note_on_c, 0, 64, 82
1, 476640, Note_on_c, 0, 69, 82
1, 476640, Note_on_c, 1, 69, 75
1, 476640, Note_on_c, 2, 69, 100
1, 476640, Note_on_c, 2, 78, 100
1, 476640, Note_on_c, 3, 66, 100
1, 476640, Note_on_c, 3, 69, 100
1, 476640, Note_on_c, 4, 81, 100
1, 476640, Note_on_c, 6, 64, 69
1, 476640, Note_on_c, 6, 69, 69
1, 476640, Note_on_c, 6, 76, 73
1, 476640, Note_on_c, 8, 38, 100
1, 476640, Note_on_c, 8, 45, 100
1, 476640, Note_on_c, 13, 57, 100
1, 476640, Note_on_c, 13, 61, 100
1, 476648, Note_off_c, 1, 59, 0
1, 476648, Note_off_c, 10, 69, 0
1, 476656, Note_off_c, 10, 64, 0
1, 476666, Note_off_c, 10, 76, 0
1, 476906, Note_off_c, 6, 64, 0
1, 476932, Note_off_c, 8, 38, 0
1, 476932, Note_off_c, 8, 45, 0
1, 476932, Note_off_c, 13, 57, 0
1, 476932, Note_off_c, 13, 61, 0
1, 476944, Note_off_c, 6, 69, 0
1, 476944, Note_off_c, 6, 76, 0
1, 477112, Note_off_c, 0, 64, 64
1, 477112, Note_off_c, 0, 69, 64
1, 477112, Note_off_c, 2, 69, 64
1, 477112, Note_off_c, 2, 78, 64
1, 477112, Note_off_c, 3, 66, 64
1, 477112, Note_off_c, 3, 69, 64
1, 477112, Note_off_c, 4, 81, 0
1, 477120, Note_on_c, 0, 68, 78
1, 477120, Note_on_c, 0, 73, 78
1, 477120, Note_on_c, 1, 64, 73
1, 477120, Note_on_c, 2, 73, 100
1, 477120, Note_on_c, 2, 81, 100
1, 477120, Note_on_c, 3, 73, 100
1, 477120, Note_on_c, 3, 76, 100
1, 477120, Note_on_c, 4, 85, 100
1, 477120, Note_on_c, 7, 64, 66
1, 477120, Note_on_c, 7, 69, 70
1, 477120, Note_on_c, 7, 76, 75
1, 477120, Note_on_c, 8, 57, 100
1, 477120, Note_on_c, 8, 61, 100
1, 477120, Note_on_c, 13, 38, 100
1, 477120, Note_on_c, 13, 45, 100
1, 477246, Note_off_c, 1, 69, 0
1, 477370, Note_off_c, 7, 69, 0
1, 477384, Note_off_c, 7, 64, 0
1, 477402, Note_on_c, 10, 64, 70
1, 477402, Note_on_c, 10, 69, 70
1, 477402, Note_on_c, 10, 76, 75
1, 477410, Note_off_c, 7, 76, 0
1, 477412, Note_off_c, 8, 57, 0
1, 477412, Note_off_c, 8, 61, 0
1, 477412, Note_off_c, 13, 38, 0
1, 477412, Note_off_c, 13, 45, 0
1, 477592, Note_off_c, 0, 68, 64
1, 477592, Note_off_c, 0, 73, 64
1, 477592, Note_off_c, 2, 73, 64
1, 477592, Note_off_c, 2, 81, 64
1, 477592, Note_off_c, 3, 73, 64
1, 477592, Note_off_c, 3, 76, 64
1, 477592, Note_off_c, 4, 85, 0
1, 477600, Note_on_c, 6, 64, 67
1, 477600, Note_on_c, 6, 69, 63
1, 477600, Note_on_c, 6, 76, 74
1, 477600, Note_on_c, 8, 38, 100
1, 477600, Note_on_c, 8, 45, 100
1, 477600, Note_on_c, 13, 57, 100
1, 477600, Note_on_c, 13, 61, 100
1, 477630, Note_off_c, 10, 69, 0
1, 477672, Note_off_c, 10, 64, 0
1, 477710, Note_off_c, 10, 76, 0
1, 477804, Note_off_c, 6, 69, 0
1, 477826, Note_off_c, 1, 64, 0
1, 477866, Note_off_c, 6, 64, 0
1, 477866, Note_off_c, 6, 76, 0
1, 477892, Note_off_c, 8, 38, 0
1, 477892, Note_off_c, 8, 45, 0
1, 477892, Note_off_c, 13, 57, 0
1, 477892, Note_off_c, 13, 61, 0
1, 478080, Note_on_c, 0, 66, 78
1, 478080, Note_on_c, 0, 71, 78
1, 478080, Note_on_c, 1, 66, 68
1, 478080, Note_on_c, 2, 71, 100
1, 478080, Note_on_c, 2, 80, 100
1, 478080, Note_on_c, 3, 71, 100
1, 478080, Note_on_c, 3, 76, 100
1, 478080, Note_on_c, 4, 83, 100
1, 478080, Note_on_c, 7, 64, 72
1, 478080, Note_on_c, 7, 69, 80
1, 478080, Note_on_c, 7, 76, 77
1, 478080, Note_on_c, 8, 57, 100
1, 478080, Note_on_c, 8, 61, 100
1, 478080, Note_on_c, 13, 38, 100
1, 478080, Note_on_c, 13, 45, 100
1, 478320, Note_off_c, 7, 76, 0
1, 478330, Note_off_c, 7, 64, 0
1, 478330, Note_off_c, 7, 69, 0
1, 478362, Note_on_c, 10, 64, 69
1, 478362, Note_on_c, 10, 69, 69
1, 478362, Note_on_c, 10, 76, 73
1, 478372, Note_off_c, 8, 57, 0
1, 478372, Note_off_c, 8, 61, 0
1, 478372, Note_off_c, 13, 38, 0
1, 478372, Note_off_c, 13, 45, 0
1, 478552, Note_off_c, 0, 66, 64
1, 478552, Note_off_c, 0, 71, 64
1, 478552, Note_off_c, 2, 71, 64
1, 478552, Note_off_c, 2, 80, 64
1, 478552, Note_off_c, 3, 71, 64
1, 478552, Note_off_c, 3, 76, 64
1, 478552, Note_off_c, 4, 83, 0
1, 478560, Note_on_c, 0, 61, 82
1, 478560, Note_on_c, 0, 68, 82
1, 478560, Note_on_c, 1, 61, 68
1, 478560, Note_on_c, 2, 69, 100
1, 478560, Note_on_c, 2, 78, 100
1, 478560, Note_on_c, 3, 64, 100
1, 478560, Note_on_c, 3, 69, 100
1, 478560, Note_on_c, 4, 80, 100
1, 478560, Note_on_c, 6, 64, 66
1, 478560, Note_on_c, 6, 69, 63
1, 478560, Note_on_c, 6, 76, 74
1, 478560, Note_on_c, 8, 38, 100
1, 478560, Note_on_c, 8, 45, 100
1, 478560, Note_on_c, 13, 57, 100
1, 478560, Note_on_c, 13, 61, 100
1, 478596, Note_off_c, 1, 66, 0
1, 478628, Note_off_c, 10, 64, 0
1, 478666, Note_off_c, 10, 69, 0
1, 478666, Note_off_c, 10, 76, 0
1, 478790, Note_off_c, 6, 69, 0
1, 478796, Note_off_c, 6, 64, 0
1, 478834, Note_off_c, 6, 76, 0
1, 478852, Note_off_c, 8, 38, 0
1, 478852, Note_off_c, 8, 45, 0
1, 478852, Note_off_c, 13, 57, 0
1, 478852, Note_off_c, 13, 61, 0
1, 479032, Note_off_c, 0, 61, 64
1, 479032, Note_off_c, 0, 68, 64
1, 479032, Note_off_c, 2, 69, 64
1, 479032, Note_off_c, 2, 78, 64
1, 479032, Note_off_c, 3, 64, 64
1, 479032, Note_off_c, 3, 69, 64
1, 479032, Note_off_c, 4, 80, 0
1, 479040, Note_on_c, 7, 64, 70
1, 479040, Note_on_c, 7, 69, 77
1, 479040, Note_on_c, 7, 76, 77
1, 479040, Note_on_c, 8, 57, 100
1, 479040, Note_on_c, 8, 61, 100
1, 479040, Note_on_c, 13, 38, 100
1, 479040, Note_on_c, 13, 45, 100
1, 479294, Note_off_c, 7, 64, 0
1, 479322, Note_off_c, 7, 69, 0
1, 479322, Note_on_c, 10, 64, 67
1, 479322, Note_on_c, 10, 69, 63
1, 479322, Note_on_c, 10, 76, 74
1, 479330, Note_off_c, 1, 61, 0
1, 479330, Note_off_c, 7, 76, 0
1, 479332, Note_off_c, 8, 57, 0
1, 479332, Note_off_c, 8, 61, 0
1, 479332, Note_off_c, 13, 38, 0
1, 479332, Note_off_c, 13, 45, 0
1, 479520, Note_on_c, 0, 64, 85
1, 479520, Note_on_c, 0, 69, 85
1, 479520, Note_on_c, 1, 69, 77
1, 479520, Note_on_c, 2, 71, 100
1, 479520, Note_on_c, 2, 80, 100
1, 479520, Note_on_c, 3, 71, 100
1, 479520, Note_on_c, 3, 76, 100
1, 479520, Note_on_c, 4, 81, 100
1, 479520, Note_on_c, 6, 64, 68
1, 479520, Note_on_c, 6, 69, 74
1, 479520, Note_on_c, 6, 76, 74
1, 479520, Note_on_c, 8, 38, 100
1, 479520, Note_on_c, 8, 45, 100
1, 479520, Note_on_c, 13, 57, 100
1, 479520, Note_on_c, 13, 61, 100
1, 479526, Note_off_c, 10, 69, 0
1, 479588, Note_off_c, 10, 64, 0
1, 479588, Note_off_c, 10, 76, 0
1, 479780, Note_off_c, 6, 69, 0
1, 479810, Note_off_c, 6, 76, 0
1, 479812, Note_off_c, 8, 38, 0
1, 479812, Note_off_c, 8, 45, 0
1, 479812, Note_off_c, 13, 57, 0
1, 479812, Note_off_c, 13, 61, 0
1, 479814, Note_off_c, 6, 64, 0
1, 479992, Note_off_c, 0, 64, 64
1, 479992, Note_off_c, 0, 69, 64
1, 479992, Note_off_c, 2, 71, 64
1, 479992, Note_off_c, 2, 80, 64
1, 479992, Note_off_c, 3, 71, 64
1, 479992, Note_off_c, 3, 76, 64
1, 479992, Note_off_c, 4, 81, 0
1, 480000, Note_on_c, 7, 64, 70
1, 480000, Note_on_c, 7, 69, 73
1, 480000, Note_on_c, 7, 76, 74
1, 480000, Note_on_c, 8, 57, 100
1, 480000, Note_on_c, 8, 61, 100
1, 480000, Note_on_c, 13, 38, 100
1, 480000, Note_on_c, 13, 45, 100
1, 480144, Note_off_c, 1, 69, 0
1, 480240, Note_off_c, 7, 64, 0
1, 480246, Note_off_c, 7, 69, 0
1, 480260, Note_off_c, 7, 76, 0
1, 480282, Note_on_c, 10, 64, 66
1, 480282, Note_on_c, 10, 69, 63
1, 480282, Note_on_c, 10, 76, 74
1, 480292, Note_off_c, 8, 57, 0
1, 480292, Note_off_c, 8, 61, 0
1, 480292, Note_off_c, 13, 38, 0
1, 480292, Note_off_c, 13, 45, 0
1, 480480, Note_on_c, 0, 66, 93
1, 480480, Note_on_c, 0, 71, 93
1, 480480, Note_on_c, 1, 64, 70
1, 480480, Note_on_c, 2, 73, 100
1, 480480, Note_on_c, 2, 81, 100
1, 480480, Note_on_c, 3, 73, 100
1, 480480, Note_on_c, 3, 76, 100
1, 480480, Note_on_c, 4, 83, 100
1, 480480, Note_on_c, 6, 64, 73
1, 480480, Note_on_c, 6, 69, 82
1, 480480, Note_on_c, 6, 76, 77
1, 480480, Note_on_c, 8, 38, 100
1, 480480, Note_on_c, 8, 45, 100
1, 480480, Note_on_c, 13, 57, 100
1, 480480, Note_on_c, 13, 61, 100
1, 480512, Note_off_c, 10, 69, 0
1, 480518, Note_off_c, 10, 64, 0
1, 480556, Note_off_c, 10, 76, 0
1, 480758, Note_off_c, 6, 69, 0
1, 480770, Note_off_c, 6, 64, 0
1, 480772, Note_off_c, 8, 38, 0
1, 480772, Note_off_c, 8, 45, 0
1, 480772, Note_off_c, 13, 57, 0
1, 480772, Note_off_c, 13, 61, 0
1, 480778, Note_off_c, 6, 76, 0
1, 480952, Note_off_c, 0, 66, 64
1, 480952, Note_off_c, 0, 71, 64
1, 480952, Note_off_c, 2, 73, 64
1, 480952, Note_off_c, 2, 81, 64
1, 480952, Note_off_c, 3, 73, 64
1, 480952, Note_off_c, 3, 76, 64
1, 480952, Note_off_c, 4, 83, 0
1, 480952, Note_off_c, 5, 50, 0
1, 480952, Note_off_c, 5, 57, 0
1, 480960, Note_on_c, 0, 61, 93
1, 480960, Note_on_c, 0, 68, 93
1, 480960, Note_on_c, 1, 66, 77
1, 480960, Note_on_c, 2, 69, 100
1, 480960, Note_on_c, 2, 78, 100
1, 480960, Note_on_c, 3, 64, 100
1, 480960, Note_on_c, 3, 69, 100
1, 480960, Note_on_c, 4, 80, 100
1, 480960, Note_on_c, 5, 52, 100
1, 480960, Note_on_c, 5, 57, 100
1, 480960, Note_on_c, 7, 64, 72
1, 480960, Note_on_c, 7, 69, 77
1, 480960, Note_on_c, 7, 76, 75
1, 480960, Note_on_c, 8, 59, 100
1, 480960, Note_on_c, 8, 61, 100
1, 480960, Note_on_c, 13, 40, 100
1, 480960, Note_on_c, 13, 45, 100
1, 481112, Note_off_c, 1, 64, 0
1, 481168, Note_off_c, 7, 69, 0
1, 481182, Note_off_c, 7, 64, 0
1, 481202, Note_off_c, 7, 76, 0
1, 481242, Note_on_c, 10, 64, 68
1, 481242, Note_on_c, 10, 69, 74
1, 481242, Note_on_c, 10, 76, 74
1, 481252, Note_off_c, 8, 59, 0
1, 481252, Note_off_c, 8, 61, 0
1, 481252, Note_off_c, 13, 40, 0
1, 481252, Note_off_c, 13, 45, 0
1, 481432, Note_off_c, 0, 61, 64
1, 481432, Note_off_c, 0, 68, 64
1, 481432, Note_off_c, 2, 69, 64
1, 481432, Note_off_c, 2, 78, 64
1, 481432, Note_off_c, 3, 64, 64
1, 481432, Note_off_c, 3, 69, 64
1, 481432, Note_off_c, 4, 80, 0
1, 481440, Note_on_c, 6, 64, 72
1, 481440, Note_on_c, 6, 69, 75
1, 481440, Note_on_c, 6, 76, 73
1, 481440, Note_on_c, 8, 40, 100
1, 481440, Note_on_c, 8, 45, 100
1, 481440, Note_on_c, 13, 59, 100
1, 481440, Note_on_c, 13, 61, 100
1, 481502, Note_off_c, 10, 69, 0
1, 481532, Note_off_c, 10, 76, 0
1, 481536, Note_off_c, 10, 64, 0
1, 481604, Note_off_c, 1, 66, 0
1, 481728, Note_off_c, 6, 76, 0
1, 481730, Note_off_c, 6, 69, 0
1, 481732, Note_off_c, 8, 40, 0
1, 481732, Note_off_c, 8, 45, 0
1, 481732, Note_off_c, 13, 59, 0
1, 481732, Note_off_c, 13, 61, 0
1, 481738, Note_off_c, 6, 64, 0
1, 481920, Note_on_c, 0, 61, 98
1, 481920, Note_on_c, 0, 68, 98
1, 481920, Note_on_c, 1, 59, 65
1, 481920, Note_on_c, 2, 71, 100
1, 481920, Note_on_c, 2, 80, 100
1, 481920, Note_on_c, 3, 71, 100
1, 481920, Note_on_c, 3, 76, 100
1, 481920, Note_on_c, 4, 80, 100
1, 481920, Note_on_c, 7, 64, 70
1, 481920, Note_on_c, 7, 69, 78
1, 481920, Note_on_c, 7, 76, 77
1, 481920, Note_on_c, 8, 59, 100
1, 481920, Note_on_c, 8, 61, 100
1, 481920, Note_on_c, 13, 40, 100
1, 481920, Note_on_c, 13, 45, 100
1, 482162, Note_off_c, 7, 64, 0
1, 482184, Note_off_c, 7, 76, 0
1, 482202, Note_on_c, 10, 64, 73
1, 482202, Note_on_c, 10, 69, 82
1, 482202, Note_on_c, 10, 76, 77
1, 482208, Note_off_c, 7, 69, 0
1, 482212, Note_off_c, 8, 59, 0
1, 482212, Note_off_c, 8, 61, 0
1, 482212, Note_off_c, 13, 40, 0
1, 482212, Note_off_c, 13, 45, 0
1, 482392, Note_off_c, 0, 61, 64
1, 482392, Note_off_c, 0, 68, 64
1, 482392, Note_off_c, 2, 71, 64
1, 482392, Note_off_c, 2, 80, 64
1, 482392, Note_off_c, 3, 71, 64
1, 482392, Note_off_c, 3, 76, 64
1, 482392, Note_off_c, 4, 80, 0
1, 482400, Note_on_c, 0, 64, 98
1, 482400, Note_on_c, 0, 69, 98
1, 482400, Note_on_c, 1, 69, 74
1, 482400, Note_on_c, 2, 69, 100
1, 482400, Note_on_c, 2, 78, 100
1, 482400, Note_on_c, 3, 66, 100
1, 482400, Note_on_c, 3, 69, 100
1, 482400, Note_on_c, 4, 81, 100
1, 482400, Note_on_c, 6, 64, 69
1, 482400, Note_on_c, 6, 69, 70
1, 482400, Note_on_c, 6, 76, 72
1, 482400, Note_on_c, 8, 40, 100
1, 482400, Note_on_c, 8, 45, 100
1, 482400, Note_on_c, 13, 59, 100
1, 482400, Note_on_c, 13, 61, 100
1, 482480, Note_off_c, 10, 69, 0
1, 482492, Note_off_c, 10, 64, 0
1, 482494, Note_off_c, 1, 59, 0
1, 482500, Note_off_c, 10, 76, 0
1, 482664, Note_off_c, 6, 69, 0
1, 482688, Note_off_c, 6, 64, 0
1, 482692, Note_off_c, 8, 40, 0
1, 482692, Note_off_c, 8, 45, 0
1, 482692, Note_off_c, 13, 59, 0
1, 482692, Note_off_c, 13, 61, 0
1, 482704, Note_off_c, 6, 76, 0
1, 482872, Note_off_c, 0, 64, 64
1, 482872, Note_off_c, 0, 69, 64
1, 482872, Note_off_c, 2, 69, 64
1, 482872, Note_off_c, 2, 78, 64
1, 482872, Note_off_c, 3, 66, 64
1, 482872, Note_off_c, 3, 69, 64
1, 482872, Note_off_c, 4, 81, 0
1, 482880, Note_on_c, 0, 68, 100
1, 482880, Note_on_c, 0, 73, 100
1, 482880, Note_on_c, 1, 64, 68
1, 482880, Note_on_c, 2, 73, 100
1, 482880, Note_on_c, 2, 81, 100
1, 482880, Note_on_c, 3, 73, 100
1, 482880, Note_on_c, 3, 76, 100
1, 482880, Note_on_c, 4, 85, 100
1, 482880, Note_on_c, 7, 64, 70
1, 482880, Note_on_c, 7, 69, 72
1, 482880, Note_on_c, 7, 76, 77
1, 482880, Note_on_c, 8, 59, 100
1, 482880, Note_on_c, 8, 61, 100
1, 482880, Note_on_c, 13, 40, 100
1, 482880, Note_on_c, 13, 45, 100
1, 483092, Note_off_c, 1, 69, 0
1, 483134, Note_off_c, 7, 64, 0
1, 483146, Note_off_c, 7, 69, 0
1, 483162, Note_on_c, 10, 64, 72
1, 483162, Note_on_c, 10, 69, 75
1, 483162, Note_on_c, 10, 76, 73
1, 483172, Note_off_c, 8, 59, 0
1, 483172, Note_off_c, 8, 61, 0
1, 483172, Note_off_c, 13, 40, 0
1, 483172, Note_off_c, 13, 45, 0
1, 483202, Note_off_c, 7, 76, 0
1, 483352, Note_off_c, 0, 68, 64
1, 483352, Note_off_c, 0, 73, 64
1, 483352, Note_off_c, 2, 73, 64
1, 483352, Note_off_c, 2, 81, 64
1, 483352, Note_off_c, 3, 73, 64
1, 483352, Note_off_c, 3, 76, 64
1, 483352, Note_off_c, 4, 85, 0
1, 483360, Note_on_c, 6, 64, 68
1, 483360, Note_on_c, 6, 69, 77
1, 483360, Note_on_c, 6, 76, 73
1, 483360, Note_on_c, 8, 40, 100
1, 483360, Note_on_c, 8, 45, 100
1, 483360, Note_on_c, 13, 59, 100
1, 483360, Note_on_c, 13, 61, 100
1, 483450, Note_off_c, 10, 76, 0
1, 483452, Note_off_c, 10, 69, 0
1, 483460, Note_off_c, 10, 64, 0
1, 483494, Note_off_c, 1, 64, 0
1, 483626, Note_off_c, 6, 64, 0
1, 483644, Note_off_c, 6, 69, 0
1, 483644, Note_off_c, 6, 76, 0
1, 483652, Note_off_c, 8, 40, 0
1, 483652, Note_off_c, 8, 45, 0
1, 483652, Note_off_c, 13, 59, 0
1, 483652, Note_off_c, 13, 61, 0
1, 483840, Note_on_c, 0, 66, 106
1, 483840, Note_on_c, 0, 71, 106
1, 483840, Note_on_c, 1, 66, 77
1, 483840, Note_on_c, 2, 71, 100
1, 483840, Note_on_c, 2, 80, 100
1, 483840, Note_on_c, 3, 71, 100
1, 483840, Note_on_c, 3, 76, 100
1, 483840, Note_on_c, 4, 83, 100
1, 483840, Note_on_c, 7, 64, 73
1, 483840, Note_on_c, 7, 69, 77
1, 483840, Note_on_c, 7, 76, 74
1, 483840, Note_on_c, 8, 59, 100
1, 483840, Note_on_c, 8, 61, 100
1, 483840, Note_on_c, 13, 40, 100
1, 483840, Note_on_c, 13, 45, 100
1, 484122, Note_on_c, 10, 64, 69
1, 484122, Note_on_c, 10, 69, 70
1, 484122, Note_on_c, 10, 76, 72
1, 484124, Note_off_c, 7, 69, 0
1, 484132, Note_off_c, 8, 59, 0
1, 484132, Note_off_c, 8, 61, 0
1, 484132, Note_off_c, 13, 40, 0
1, 484132, Note_off_c, 13, 45, 0
1, 484156, Note_off_c, 7, 76, 0
1, 484162, Note_off_c, 7, 64, 0
1, 484312, Note_off_c, 0, 66, 64
1, 484312, Note_off_c, 0, 71, 64
1, 484312, Note_off_c, 2, 71, 64
1, 484312, Note_off_c, 2, 80, 64
1, 484312, Note_off_c, 3, 71, 64
1, 484312, Note_off_c, 3, 76, 64
1, 484312, Note_off_c, 4, 83, 0
1, 484320, Note_on_c, 0, 61, 106
1, 484320, Note_on_c, 0, 68, 106
1, 484320, Note_on_c, 1, 61, 70
1, 484320, Note_on_c, 2, 69, 100
1, 484320, Note_on_c, 2, 78, 100
1, 484320, Note_on_c, 3, 64, 100
1, 484320, Note_on_c, 3, 69, 100
1, 484320, Note_on_c, 4, 80, 100
1, 484320, Note_on_c, 6, 64, 72
1, 484320, Note_on_c, 6, 69, 52
1, 484320, Note_on_c, 6, 76, 72
1, 484320, Note_on_c, 8, 40, 100
1, 484320, Note_on_c, 8, 45, 100
1, 484320, Note_on_c, 13, 59, 100
1, 484320, Note_on_c, 13, 61, 100
1, 484386, Note_off_c, 10, 69, 0
1, 484410, Note_off_c, 10, 64, 0
1, 484426, Note_off_c, 10, 76, 0
1, 484472, Note_off_c, 6, 69, 0
1, 484482, Note_off_c, 1, 66, 0
1, 484560, Note_off_c, 6, 64, 0
1, 484566, Note_off_c, 6, 76, 0
1, 484612, Note_off_c, 8, 40, 0
1, 484612, Note_off_c, 8, 45, 0
1, 484612, Note_off_c, 13, 59, 0
1, 484612, Note_off_c, 13, 61, 0
1, 484792, Note_off_c, 0, 61, 64
1, 484792, Note_off_c, 0, 68, 64
1, 484792, Note_off_c, 2, 69, 64
1, 484792, Note_off_c, 2, 78, 64
1, 484792, Note_off_c, 3, 64, 64
1, 484792, Note_off_c, 3, 69, 64
1, 484792, Note_off_c, 4, 80, 0
1, 484800, Note_on_c, 7, 64, 68
1, 484800, Note_on_c, 7, 69, 70
1, 484800, Note_on_c, 7, 76, 72
1, 484800, Note_on_c, 8, 59, 100
1, 484800, Note_on_c, 8, 61, 100
1, 484800, Note_on_c, 13, 40, 100
1, 484800, Note_on_c, 13, 45, 100
1, 484948, Note_off_c, 1, 61, 0
1, 485082, Note_on_c, 10, 64, 68
1, 485082, Note_on_c, 10, 69, 77
1, 485082, Note_on_c, 10, 76, 73
1, 485090, Note_off_c, 7, 69, 0
1, 485092, Note_off_c, 8, 59, 0
1, 485092, Note_off_c, 8, 61, 0
1, 485092, Note_off_c, 13, 40, 0
1, 485092, Note_off_c, 13, 45, 0
1, 485108, Note_off_c, 7, 76, 0
1, 485114, Note_off_c, 7, 64, 0
1, 485280, Note_on_c, 0, 64, 104
1, 485280, Note_on_c, 0, 69, 104
1, 485280, Note_on_c, 1, 69, 77
1, 485280, Note_on_c, 2, 71, 100
1, 485280, Note_on_c, 2, 80, 100
1, 485280, Note_on_c, 3, 71, 100
1, 485280, Note_on_c, 3, 76, 100
1, 485280, Note_on_c, 4, 81, 100
1, 485280, Note_on_c, 6, 64, 68
1, 485280, Note_on_c, 6, 69, 70
1, 485280, Note_on_c, 6, 76, 74
1, 485280, Note_on_c, 8, 40, 100
1, 485280, Note_on_c, 8, 45, 100
1, 485280, Note_on_c, 13, 59, 100
1, 485280, Note_on_c, 13, 61, 100
1, 485348, Note_off_c, 10, 64, 0
1, 485366, Note_off_c, 10, 69, 0
1, 485366, Note_off_c, 10, 76, 0
1, 485512, Note_off_c, 6, 69, 0
1, 485522, Note_off_c, 6, 64, 0
1, 485530, Note_off_c, 6, 76, 0
1, 485572, Note_off_c, 8, 40, 0
1, 485572, Note_off_c, 8, 45, 0
1, 485572, Note_off_c, 13, 59, 0
1, 485572, Note_off_c, 13, 61, 0
1, 485752, Note_off_c, 0, 64, 64
1, 485752, Note_off_c, 0, 69, 64
1, 485752, Note_off_c, 2, 71, 64
1, 485752, Note_off_c, 2, 80, 64
1, 485752, Note_off_c, 3, 71, 64
1, 485752, Note_off_c, 3, 76, 64
1, 485752, Note_off_c, 4, 81, 0
1, 485760, Note_on_c, 7, 64, 68
1, 485760, Note_on_c, 7, 69, 70
1, 485760, Note_on_c, 7, 76, 73
1, 485760, Note_on_c, 8, 59, 100
1, 485760, Note_on_c, 8, 61, 100
1, 485760, Note_on_c, 13, 40, 100
1, 485760, Note_on_c, 13, 45, 100
1, 485928, Note_off_c, 1, 69, 0
1, 486008, Note_off_c, 7, 64, 0
1, 486022, Note_off_c, 7, 69, 0
1, 486022, Note_off_c, 7, 76, 0
1, 486042, Note_on_c, 10, 64, 72
1, 486042, Note_on_c, 10, 69, 52
1, 486042, Note_on_c, 10, 76, 72
1, 486052, Note_off_c, 8, 59, 0
1, 486052, Note_off_c, 8, 61, 0
1, 486052, Note_off_c, 13, 40, 0
1, 486052, Note_off_c, 13, 45, 0
1, 486194, Note_off_c, 10, 69, 0
1, 486240, Note_on_c, 0, 66, 100
1, 486240, Note_on_c, 0, 71, 100
1, 486240, Note_on_c, 1, 64, 68
1, 486240, Note_on_c, 2, 73, 100
1, 486240, Note_on_c, 2, 81, 100
1, 486240, Note_on_c, 3, 73, 100
1, 486240, Note_on_c, 3, 76, 100
1, 486240, Note_on_c, 4, 83, 100
1, 486240, Note_on_c, 6, 64, 68
1, 486240, Note_on_c, 6, 69, 69
1, 486240, Note_on_c, 6, 76, 72
1, 486240, Note_on_c, 8, 40, 100
1, 486240, Note_on_c, 8, 45, 100
1, 486240, Note_on_c, 13, 59, 100
1, 486240, Note_on_c, 13, 61, 100
1, 486282, Note_off_c, 10, 64, 0
1, 486288, Note_off_c, 10, 76, 0
1, 486456, Note_off_c, 6, 76, 0
1, 486458, Note_off_c, 6, 69, 0
1, 486472, Note_off_c, 6, 64, 0
1, 486532, Note_off_c, 8, 40, 0
1, 486532, Note_off_c, 8, 45, 0
1, 486532, Note_off_c, 13, 59, 0
1, 486532, Note_off_c, 13, 61, 0
1, 486684, Note_off_c, 1, 64, 0
1, 486712, Note_off_c, 0, 66, 64
1, 486712, Note_off_c, 0, 71, 64
1, 486712, Note_off_c, 2, 73, 64
1, 486712, Note_off_c, 2, 81, 64
1, 486712, Note_off_c, 3, 73, 64
1, 486712, Note_off_c, 3, 76, 64
1, 486712, Note_off_c, 4, 83, 0
1, 486712, Note_off_c, 5, 52, 0
1, 486712, Note_off_c, 5, 57, 0
1, 486720, Note_on_c, 0, 61, 98
1, 486720, Note_on_c, 0, 68, 98
1, 486720, Note_on_c, 1, 66, 78
1, 486720, Note_on_c, 2, 69, 100
1, 486720, Note_on_c, 2, 78, 100
1, 486720, Note_on_c, 3, 64, 100
1, 486720, Note_on_c, 3, 69, 100
1, 486720, Note_on_c, 4, 80, 100
1, 486720, Note_on_c, 5, 50, 100
1, 486720, Note_on_c, 5, 57, 100
1, 486720, Note_on_c, 7, 64, 70
1, 486720, Note_on_c, 7, 69, 83
1, 486720, Note_on_c, 7, 76, 74
1, 486720, Note_on_c, 8, 57, 100
1, 486720, Note_on_c, 8, 61, 100
1, 486720, Note_on_c, 13, 38, 100
1, 486720, Note_on_c, 13, 45, 100
1, 486960, Note_off_c, 7, 64, 0
1, 486960, Note_off_c, 7, 76, 0
1, 486970, Note_off_c, 7, 69, 0
1, 487002, Note_on_c, 10, 64, 68
1, 487002, Note_on_c, 10, 69, 70
1, 487002, Note_on_c, 10, 76, 74
1, 487012, Note_off_c, 8, 57, 0
1, 487012, Note_off_c, 8, 61, 0
1, 487012, Note_off_c, 13, 38, 0
1, 487012, Note_off_c, 13, 45, 0
1, 487192, Note_off_c, 0, 61, 64
1, 487192, Note_off_c, 0, 68, 64
1, 487192, Note_off_c, 2, 69, 64
1, 487192, Note_off_c, 2, 78, 64
1, 487192, Note_off_c, 3, 64, 64
1, 487192, Note_off_c, 3, 69, 64
1, 487192, Note_off_c, 4, 80, 0
1, 487200, Note_on_c, 6, 64, 67
1, 487200, Note_on_c, 6, 69, 67
1, 487200, Note_on_c, 6, 76, 72
1, 487200, Note_on_c, 8, 38, 100
1, 487200, Note_on_c, 8, 45, 100
1, 487200, Note_on_c, 13, 57, 100
1, 487200, Note_on_c, 13, 61, 100
1, 487234, Note_off_c, 10, 69, 0
1, 487244, Note_off_c, 10, 64, 0
1, 487252, Note_off_c, 10, 76, 0
1, 487388, Note_off_c, 1, 66, 0
1, 487446, Note_off_c, 6, 64, 0
1, 487450, Note_off_c, 6, 69, 0
1, 487466, Note_off_c, 6, 76, 0
1, 487492, Note_off_c, 8, 38, 0
1, 487492, Note_off_c, 8, 45, 0
1, 487492, Note_off_c, 13, 57, 0
1, 487492, Note_off_c, 13, 61, 0
1, 487680, Note_on_c, 0, 61, 95
1, 487680, Note_on_c, 0, 68, 95
1, 487680, Note_on_c, 1, 59, 74
1, 487680, Note_on_c, 2, 71, 100
1, 487680, Note_on_c, 2, 80, 100
1, 487680, Note_on_c, 3, 71, 100
1, 487680, Note_on_c, 3, 76, 100
1, 487680, Note_on_c, 4, 80, 100
1, 487680, Note_on_c, 7, 64, 67
1, 487680, Note_on_c, 7, 69, 78
1, 487680, Note_on_c, 7, 76, 73
1, 487680, Note_on_c, 8, 57, 100
1, 487680, Note_on_c, 8, 61, 100
1, 487680, Note_on_c, 13, 38, 100
1, 487680, Note_on_c, 13, 45, 100
1, 487930, Note_off_c, 7, 76, 0
1, 487936, Note_off_c, 7, 69, 0
1, 487944, Note_off_c, 7, 64, 0
1, 487962, Note_on_c, 10, 64, 68
1, 487962, Note_on_c, 10, 69, 69
1, 487962, Note_on_c, 10, 76, 72
1, 487972, Note_off_c, 8, 57, 0
1, 487972, Note_off_c, 8, 61, 0
1, 487972, Note_off_c, 13, 38, 0
1, 487972, Note_off_c, 13, 45, 0
1, 488152, Note_off_c, 0, 61, 64
1, 488152, Note_off_c, 0, 68, 64
1, 488152, Note_off_c, 2, 71, 64
1, 488152, Note_off_c, 2, 80, 64
1, 488152, Note_off_c, 3, 71, 64
1, 488152, Note_off_c, 3, 76, 64
1, 488152, Note_off_c, 4, 80, 0
1, 488160, Note_on_c, 0, 64, 102
1, 488160, Note_on_c, 0, 69, 102
1, 488160, Note_on_c, 1, 69, 75
1, 488160, Note_on_c, 2, 69, 100
1, 488160, Note_on_c, 2, 78, 100
1, 488160, Note_on_c, 3, 66, 100
1, 488160, Note_on_c, 3, 69, 100
1, 488160, Note_on_c, 4, 81, 100
1, 488160, Note_on_c, 6, 64, 67
1, 488160, Note_on_c, 6, 69, 63
1, 488160, Note_on_c, 6, 76, 72
1, 488160, Note_on_c, 8, 38, 100
1, 488160, Note_on_c, 8, 45, 100
1, 488160, Note_on_c, 13, 57, 100
1, 488160, Note_on_c, 13, 61, 100
1, 488168, Note_off_c, 1, 59, 0
1, 488178, Note_off_c, 10, 76, 0
1, 488180, Note_off_c, 10, 69, 0
1, 488194, Note_off_c, 10, 64, 0
1, 488408, Note_off_c, 6, 69, 0
1, 488436, Note_off_c, 6, 64, 0
1, 488452, Note_off_c, 6, 76, 0
1, 488452, Note_off_c, 8, 38, 0
1, 488452, Note_off_c, 8, 45, 0
1, 488452, Note_off_c, 13, 57, 0
1, 488452, Note_off_c, 13, 61, 0
1, 488632, Note_off_c, 0, 64, 64
1, 488632, Note_off_c, 0, 69, 64
1, 488632, Note_off_c, 2, 69, 64
1, 488632, Note_off_c, 2, 78, 64
1, 488632, Note_off_c, 3, 66, 64
1, 488632, Note_off_c, 3, 69, 64
1, 488632, Note_off_c, 4, 81, 0
1, 488640, Note_on_c, 0, 68, 100
1, 488640, Note_on_c, 0, 73, 100
1, 488640, Note_on_c, 1, 64, 73
1, 488640, Note_on_c, 2, 73, 100
1, 488640, Note_on_c, 2, 81, 100
1, 488640, Note_on_c, 3, 73, 100
1, 488640, Note_on_c, 3, 76, 100
1, 488640, Note_on_c, 4, 85, 100
1, 488640, Note_on_c, 7, 64, 69
1, 488640, Note_on_c, 7, 69, 70
1, 488640, Note_on_c, 7, 76, 73
1, 488640, Note_on_c, 8, 57, 100
1, 488640, Note_on_c, 8, 61, 100
1, 488640, Note_on_c, 13, 38, 100
1, 488640, Note_on_c, 13, 45, 100
1, 488766, Note_off_c, 1, 69, 0
1, 488860, Note_off_c, 7, 69, 0
1, 488882, Note_off_c, 7, 76, 0
1, 488892, Note_off_c, 7, 64, 0
1, 488922, Note_on_c, 10, 64, 67
1, 488922, Note_on_c, 10, 69, 67
1, 488922, Note_on_c, 10, 76, 72
1, 488932, Note_off_c, 8, 57, 0
1, 488932, Note_off_c, 8, 61, 0
1, 488932, Note_off_c, 13, 38, 0
1, 488932, Note_off_c, 13, 45, 0
1, 489112, Note_off_c, 0, 68, 64
1, 489112, Note_off_c, 0, 73, 64
1, 489112, Note_off_c, 2, 73, 64
1, 489112, Note_off_c, 2, 81, 64
1, 489112, Note_off_c, 3, 73, 64
1, 489112, Note_off_c, 3, 76, 64
1, 489112, Note_off_c, 4, 85, 0
1, 489120, Note_on_c, 6, 64, 68
1, 489120, Note_on_c, 6, 69, 66
1, 489120, Note_on_c, 6, 76, 70
1, 489120, Note_on_c, 8, 38, 100
1, 489120, Note_on_c, 8, 45, 100
1, 489120, Note_on_c, 13, 57, 100
1, 489120, Note_on_c, 13, 61, 100
1, 489168, Note_off_c, 10, 64, 0
1, 489172, Note_off_c, 10, 69, 0
1, 489188, Note_off_c, 10, 76, 0
1, 489316, Note_off_c, 6, 69, 0
1, 489340, Note_off_c, 6, 64, 0
1, 489346, Note_off_c, 1, 64, 0
1, 489358, Note_off_c, 6, 76, 0
1, 489412, Note_off_c, 8, 38, 0
1, 489412, Note_off_c, 8, 45, 0
1, 489412, Note_off_c, 13, 57, 0
1, 489412, Note_off_c, 13, 61, 0
1, 489592, Note_off_c, 5, 50, 0
1, 489592, Note_off_c, 5, 57, 0
1, 489600, Note_on_c, 0, 66, 100
1, 489600, Note_on_c, 0, 71, 100
1, 489600, Note_on_c, 1, 66, 68
1, 489600, Note_on_c, 2, 71, 100
1, 489600, Note_on_c, 2, 80, 100
1, 489600, Note_on_c, 3, 71, 100
1, 489600, Note_on_c, 3, 76, 100
1, 489600, Note_on_c, 4, 83, 100
1, 489600, Note_on_c, 5, 52, 100
1, 489600, Note_on_c, 5, 57, 100
1, 489600, Note_on_c, 7, 64, 69
1, 489600, Note_on_c, 7, 69, 75
1, 489600, Note_on_c, 7, 76, 73
1, 489600, Note_on_c, 8, 59, 100
1, 489600, Note_on_c, 8, 61, 100
1, 489600, Note_on_c, 13, 40, 100
1, 489600, Note_on_c, 13, 45, 100
1, 489814, Note_off_c, 7, 69, 0
1, 489830, Note_off_c, 7, 64, 0
1, 489844, Note_off_c, 7, 76, 0
1, 489882, Note_on_c, 10, 64, 67
1, 489882, Note_on_c, 10, 69, 63
1, 489882, Note_on_c, 10, 76, 72
1, 489892, Note_off_c, 8, 59, 0
1, 489892, Note_off_c, 8, 61, 0
1, 489892, Note_off_c, 13, 40, 0
1, 489892, Note_off_c, 13, 45, 0
1, 490072, Note_off_c, 0, 66, 64
1, 490072, Note_off_c, 0, 71, 64
1, 490072, Note_off_c, 2, 71, 64
1, 490072, Note_off_c, 2, 80, 64
1, 490072, Note_off_c, 3, 71, 64
1, 490072, Note_off_c, 3, 76, 64
1, 490072, Note_off_c, 4, 83, 0
1, 490080, Note_on_c, 0, 61, 100
1, 490080, Note_on_c, 0, 68, 100
1, 490080, Note_on_c, 1, 61, 68
1, 490080, Note_on_c, 2, 69, 100
1, 490080, Note_on_c, 2, 78, 100
1, 490080, Note_on_c, 3, 64, 100
1, 490080, Note_on_c, 3, 69, 100
1, 490080, Note_on_c, 4, 80, 100
1, 490080, Note_on_c, 6, 64, 68
1, 490080, Note_on_c, 6, 69, 63
1, 490080, Note_on_c, 6, 76, 72
1, 490080, Note_on_c, 8, 40, 100
1, 490080, Note_on_c, 8, 45, 100
1, 490080, Note_on_c, 13, 59, 100
1, 490080, Note_on_c, 13, 61, 100
1, 490116, Note_off_c, 1, 66, 0
1, 490130, Note_off_c, 10, 69, 0
1, 490158, Note_off_c, 10, 64, 0
1, 490174, Note_off_c, 10, 76, 0
1, 490290, Note_off_c, 6, 64, 0
1, 490324, Note_off_c, 6, 76, 0
1, 490342, Note_off_c, 6, 69, 0
1, 490372, Note_off_c, 8, 40, 0
1, 490372, Note_off_c, 8, 45, 0
1, 490372, Note_off_c, 13, 59, 0
1, 490372, Note_off_c, 13, 61, 0
1, 490552, Note_off_c, 0, 61, 64
1, 490552, Note_off_c, 0, 68, 64
1, 490552, Note_off_c, 2, 69, 64
1, 490552, Note_off_c, 2, 78, 64
1, 490552, Note_off_c, 3, 64, 64
1, 490552, Note_off_c, 3, 69, 64
1, 490552, Note_off_c, 4, 80, 0
1, 490560, Note_on_c, 7, 64, 68
1, 490560, Note_on_c, 7, 69, 74
1, 490560, Note_on_c, 7, 76, 74
1, 490560, Note_on_c, 8, 59, 100
1, 490560, Note_on_c, 8, 61, 100
1, 490560, Note_on_c, 13, 40, 100
1, 490560, Note_on_c, 13, 45, 100
1, 490784, Note_off_c, 7, 69, 0
1, 490824, Note_off_c, 7, 64, 0
1, 490834, Note_off_c, 7, 76, 0
1, 490842, Note_on_c, 10, 64, 68
1, 490842, Note_on_c, 10, 69, 66
1, 490842, Note_on_c, 10, 76, 70
1, 490850, Note_off_c, 1, 61, 0
1, 490852, Note_off_c, 8, 59, 0
1, 490852, Note_off_c, 8, 61, 0
1, 490852, Note_off_c, 13, 40, 0
1, 490852, Note_off_c, 13, 45, 0
1, 491038, Note_off_c, 10, 69, 0
1, 491040, Note_on_c, 0, 64, 100
1, 491040, Note_on_c, 0, 69, 100
1, 491040, Note_on_c, 1, 69, 77
1, 491040, Note_on_c, 2, 71, 100
1, 491040, Note_on_c, 2, 80, 100
1, 491040, Note_on_c, 3, 71, 100
1, 491040, Note_on_c, 3, 76, 100
1, 491040, Note_on_c, 4, 81, 100
1, 491040, Note_on_c, 6, 64, 70
1, 491040, Note_on_c, 6, 69, 69
1, 491040, Note_on_c, 6, 76, 72
1, 491040, Note_on_c, 8, 40, 100
1, 491040, Note_on_c, 8, 45, 100
1, 491040, Note_on_c, 13, 59, 100
1, 491040, Note_on_c, 13, 61, 100
1, 491062, Note_off_c, 10, 64, 0
1, 491080, Note_off_c, 10, 76, 0
1, 491274, Note_off_c, 6, 69, 0
1, 491302, Note_off_c, 6, 64, 0
1, 491302, Note_off_c, 6, 76, 0
1, 491332, Note_off_c, 8, 40, 0
1, 491332, Note_off_c, 8, 45, 0
1, 491332, Note_off_c, 13, 59, 0
1, 491332, Note_off_c, 13, 61, 0
1, 491512, Note_off_c, 0, 64, 64
1, 491512, Note_off_c, 0, 69, 64
1, 491512, Note_off_c, 2, 71, 64
1, 491512, Note_off_c, 2, 80, 64
1, 491512, Note_off_c, 3, 71, 64
1, 491512, Note_off_c, 3, 76, 64
1, 491512, Note_off_c, 4, 81, 0
1, 491520, Note_on_c, 7, 64, 68
1, 491520, Note_on_c, 7, 69, 73
1, 491520, Note_on_c, 7, 76, 73
1, 491520, Note_on_c, 8, 59, 100
1, 491520, Note_on_c, 8, 61, 100
1, 491520, Note_on_c, 13, 40, 100
1, 491520, Note_on_c, 13, 45, 100
1, 491664, Note_off_c, 1, 69, 0
1, 491744, Note_off_c, 7, 64, 0
1, 491768, Note_off_c, 7, 69, 0
1, 491768, Note_off_c, 7, 76, 0
1, 491802, Note_on_c, 10, 64, 68
1, 491802, Note_on_c, 10, 69, 63
1, 491802, Note_on_c, 10, 76, 72
1, 491812, Note_off_c, 8, 59, 0
1, 491812, Note_off_c, 8, 61, 0
1, 491812, Note_off_c, 13, 40, 0
1, 491812, Note_off_c, 13, 45, 0
1, 492000, Note_on_c, 0, 66, 100
1, 492000, Note_on_c, 0, 71, 100
1, 492000, Note_on_c, 1, 64, 70
1, 492000, Note_on_c, 2, 73, 100
1, 492000, Note_on_c, 2, 81, 100
1, 492000, Note_on_c, 3, 73, 100
1, 492000, Note_on_c, 3, 76, 100
1, 492000, Note_on_c, 4, 83, 100
1, 492000, Note_on_c, 6, 64, 68
1, 492000, Note_on_c, 6, 69, 70
1, 492000, Note_on_c, 6, 76, 70
1, 492000, Note_on_c, 8, 40, 100
1, 492000, Note_on_c, 8, 45, 100
1, 492000, Note_on_c, 13, 59, 100
1, 492000, Note_on_c, 13, 61, 100
1, 492012, Note_off_c, 10, 64, 0
1, 492046, Note_off_c, 10, 76, 0
1, 492064, Note_off_c, 10, 69, 0
1, 492208, Note_off_c, 6, 64, 0
1, 492236, Note_off_c, 6, 69, 0
1, 492240, Note_off_c, 6, 76, 0
1, 492292, Note_off_c, 8, 40, 0
1, 492292, Note_off_c, 8, 45, 0
1, 492292, Note_off_c, 13, 59, 0
1, 492292, Note_off_c, 13, 61, 0
1, 492472, Note_off_c, 0, 66, 64
1, 492472, Note_off_c, 0, 71, 64
1, 492472, Note_off_c, 2, 73, 64
1, 492472, Note_off_c, 2, 81, 64
1, 492472, Note_off_c, 3, 73, 64
1, 492472, Note_off_c, 3, 76, 64
1, 492472, Note_off_c, 4, 83, 0
1, 492472, Note_off_c, 5, 52, 0
1, 492472, Note_off_c, 5, 57, 0
1, 492480, Note_on_c, 0, 61, 100
1, 492480, Note_on_c, 0, 68, 100
1, 492480, Note_on_c, 1, 66, 77
1, 492480, Note_on_c, 2, 69, 100
1, 492480, Note_on_c, 2, 78, 100
1, 492480, Note_on_c, 3, 64, 100
1, 492480, Note_on_c, 3, 69, 100
1, 492480, Note_on_c, 4, 80, 100
1, 492480, Note_on_c, 5, 50, 100
1, 492480, Note_on_c, 5, 57, 100
1, 492480, Note_on_c, 7, 64, 66
1, 492480, Note_on_c, 7, 69, 74
1, 492480, Note_on_c, 7, 76, 73
1, 492480, Note_on_c, 8, 57, 100
1, 492480, Note_on_c, 8, 61, 100
1, 492480, Note_on_c, 13, 38, 100
1, 492480, Note_on_c, 13, 45, 100
1, 492632, Note_off_c, 1, 64, 0
1, 492714, Note_off_c, 7, 64, 0
1, 492734, Note_off_c, 7, 76, 0
1, 492762, Note_off_c, 7, 69, 0
1, 492762, Note_on_c, 10, 64, 70
1, 492762, Note_on_c, 10, 69, 69
1, 492762, Note_on_c, 10, 76, 72
1, 492772, Note_off_c, 8, 57, 0
1, 492772, Note_off_c, 8, 61, 0
1, 492772, Note_off_c, 13, 38, 0
1, 492772, Note_off_c, 13, 45, 0
1, 492952, Note_off_c, 0, 61, 64
1, 492952, Note_off_c, 0, 68, 64
1, 492952, Note_off_c, 2, 69, 64
1, 492952, Note_off_c, 2, 78, 64
1, 492952, Note_off_c, 3, 64, 64
1, 492952, Note_off_c, 3, 69, 64
1, 492952, Note_off_c, 4, 80, 0
1, 492960, Note_on_c, 6, 64, 67
1, 492960, Note_on_c, 6, 69, 73
1, 492960, Note_on_c, 6, 76, 74
1, 492960, Note_on_c, 8, 38, 100
1, 492960, Note_on_c, 8, 45, 100
1, 492960, Note_on_c, 13, 57, 100
1, 492960, Note_on_c, 13, 61, 100
1, 492996, Note_off_c, 10, 69, 0
1, 493024, Note_off_c, 10, 64, 0
1, 493024, Note_off_c, 10, 76, 0
1, 493124, Note_off_c, 1, 66, 0
1, 493176, Note_off_c, 6, 64, 0
1, 493196, Note_off_c, 6, 76, 0
1, 493206, Note_off_c, 6, 69, 0
1, 493252, Note_off_c, 8, 38, 0
1, 493252, Note_off_c, 8, 45, 0
1, 493252, Note_off_c, 13, 57, 0
1, 493252, Note_off_c, 13, 61, 0
1, 493440, Note_on_c, 0, 61, 100
1, 493440, Note_on_c, 0, 68, 100
1, 493440, Note_on_c, 1, 59, 65
1, 493440, Note_on_c, 2, 71, 100
1, 493440, Note_on_c, 2, 80, 100
1, 493440, Note_on_c, 3, 71, 100
1, 493440, Note_on_c, 3, 76, 100
1, 493440, Note_on_c, 4, 80, 100
1, 493440, Note_on_c, 7, 64, 66
1, 493440, Note_on_c, 7, 69, 77
1, 493440, Note_on_c, 7, 76, 70
1, 493440, Note_on_c, 8, 57, 100
1, 493440, Note_on_c, 8, 61, 100
1, 493440, Note_on_c, 13, 38, 100
1, 493440, Note_on_c, 13, 45, 100
1, 493668, Note_off_c, 7, 64, 0
1, 493722, Note_on_c, 10, 64, 68
1, 493722, Note_on_c, 10, 69, 70
1, 493722, Note_on_c, 10, 76, 70
1, 493726, Note_off_c, 7, 69, 0
1, 493732, Note_off_c, 8, 57, 0
1, 493732, Note_off_c, 8, 61, 0
1, 493732, Note_off_c, 13, 38, 0
1, 493732, Note_off_c, 13, 45, 0
1, 493750, Note_off_c, 7, 76, 0
1, 493912, Note_off_c, 0, 61, 64
1, 493912, Note_off_c, 0, 68, 64
1, 493912, Note_off_c, 2, 71, 64
1, 493912, Note_off_c, 2, 80, 64
1, 493912, Note_off_c, 3, 71, 64
1, 493912, Note_off_c, 3, 76, 64
1, 493912, Note_off_c, 4, 80, 0
1, 493920, Note_on_c, 0, 64, 100
1, 493920, Note_on_c, 0, 69, 100
1, 493920, Note_on_c, 1, 69, 74
1, 493920, Note_on_c, 2, 69, 100
1, 493920, Note_on_c, 2, 78, 100
1, 493920, Note_on_c, 3, 66, 100
1, 493920, Note_on_c, 3, 69, 100
1, 493920, Note_on_c, 4, 81, 100
1, 493920, Note_on_c, 6, 64, 68
1, 493920, Note_on_c, 6, 69, 74
1, 493920, Note_on_c, 6, 76, 75
1, 493920, Note_on_c, 8, 38, 100
1, 493920, Note_on_c, 8, 45, 100
1, 493920, Note_on_c, 13, 57, 100
1, 493920, Note_on_c, 13, 61, 100
1, 493930, Note_off_c, 10, 64, 0
1, 493958, Note_off_c, 10, 69, 0
1, 493962, Note_off_c, 10, 76, 0
1, 494014, Note_off_c, 1, 59, 0
1, 494192, Note_off_c, 6, 69, 0
1, 494196, Note_off_c, 6, 64, 0
1, 494210, Note_off_c, 6, 76, 0
1, 494212, Note_off_c, 8, 38, 0
1, 494212, Note_off_c, 8, 45, 0
1, 494212, Note_off_c, 13, 57, 0
1, 494212, Note_off_c, 13, 61, 0
1, 494392, Note_off_c, 0, 64, 64
1, 494392, Note_off_c, 0, 69, 64
1, 494392, Note_off_c, 2, 69, 64
1, 494392, Note_off_c, 2, 78, 64
1, 494392, Note_off_c, 3, 66, 64
1, 494392, Note_off_c, 3, 69, 64
1, 494392, Note_off_c, 4, 81, 0
1, 494392, Note_off_c, 5, 50, 0
1, 494392, Note_off_c, 5, 57, 0
1, 494400, Note_on_c, 0, 68, 100
1, 494400, Note_on_c, 0, 73, 100
1, 494400, Note_on_c, 1, 64, 68
1, 494400, Note_on_c, 2, 73, 100
1, 494400, Note_on_c, 2, 81, 100
1, 494400, Note_on_c, 3, 73, 100
1, 494400, Note_on_c, 3, 76, 100
1, 494400, Note_on_c, 4, 85, 100
1, 494400, Note_on_c, 5, 52, 100
1, 494400, Note_on_c, 5, 57, 100
1, 494400, Note_on_c, 7, 64, 65
1, 494400, Note_on_c, 7, 69, 72
1, 494400, Note_on_c, 7, 76, 72
1, 494400, Note_on_c, 8, 59, 100
1, 494400, Note_on_c, 8, 61, 100
1, 494400, Note_on_c, 13, 40, 100
1, 494400, Note_on_c, 13, 45, 100
1, 494612, Note_off_c, 1, 69, 0
1, 494676, Note_off_c, 7, 64, 0
1, 494682, Note_on_c, 10, 64, 67
1, 494682, Note_on_c, 10, 69, 73
1, 494682, Note_on_c, 10, 76, 74
1, 494690, Note_off_c, 7, 69, 0
1, 494692, Note_off_c, 7, 76, 0
1, 494692, Note_off_c, 8, 59, 0
1, 494692, Note_off_c, 8, 61, 0
1, 494692, Note_off_c, 13, 40, 0
1, 494692, Note_off_c, 13, 45, 0
1, 494872, Note_off_c, 0, 68, 64
1, 494872, Note_off_c, 0, 73, 64
1, 494872, Note_off_c, 2, 73, 64
1, 494872, Note_off_c, 2, 81, 64
1, 494872, Note_off_c, 3, 73, 64
1, 494872, Note_off_c, 3, 76, 64
1, 494872, Note_off_c, 4, 85, 0
1, 494880, Note_on_c, 6, 64, 73
1, 494880, Note_on_c, 6, 69, 80
1, 494880, Note_on_c, 6, 76, 77
1, 494880, Note_on_c, 8, 40, 100
1, 494880, Note_on_c, 8, 45, 100
1, 494880, Note_on_c, 13, 59, 100
1, 494880, Note_on_c, 13, 61, 100
1, 494898, Note_off_c, 10, 64, 0
1, 494918, Note_off_c, 10, 76, 0
1, 494928, Note_off_c, 10, 69, 0
1, 495014, Note_off_c, 1, 64, 0
1, 495142, Note_off_c, 6, 64, 0
1, 495158, Note_off_c, 6, 69, 0
1, 495168, Note_off_c, 6, 76, 0
1, 495172, Note_off_c, 8, 40, 0
1, 495172, Note_off_c, 8, 45, 0
1, 495172, Note_off_c, 13, 59, 0
1, 495172, Note_off_c, 13, 61, 0
1, 495360, Note_on_c, 1, 66, 77
1, 495360, Note_on_c, 3, 71, 100
1, 495360, Note_on_c, 3, 76, 100
1, 495360, Note_on_c, 7, 64, 67
1, 495360, Note_on_c, 7, 69, 75
1, 495360, Note_on_c, 7, 76, 70
1, 495360, Note_on_c, 8, 59, 100
1, 495360, Note_on_c, 8, 61, 100
1, 495360, Note_on_c, 13, 40, 100
1, 495360, Note_on_c, 13, 45, 100
1, 495590, Note_off_c, 7, 69, 0
1, 495608, Note_off_c, 7, 64, 0
1, 495618, Note_off_c, 7, 76, 0
1, 495642, Note_on_c, 10, 64, 68
1, 495642, Note_on_c, 10, 69, 74
1, 495642, Note_on_c, 10, 76, 75
1, 495652, Note_off_c, 8, 59, 0
1, 495652, Note_off_c, 8, 61, 0
1, 495652, Note_off_c, 13, 40, 0
1, 495652, Note_off_c, 13, 45, 0
1, 495832, Note_off_c, 3, 71, 64
1, 495832, Note_off_c, 3, 76, 64
1, 495840, Note_on_c, 1, 61, 70
1, 495840, Note_on_c, 3, 64, 100
1, 495840, Note_on_c, 3, 69, 100
1, 495840, Note_on_c, 6, 64, 68
1, 495840, Note_on_c, 6, 69, 70
1, 495840, Note_on_c, 6, 76, 74
1, 495840, Note_on_c, 8, 40, 100
1, 495840, Note_on_c, 8, 45, 100
1, 495840, Note_on_c, 13, 59, 100
1, 495840, Note_on_c, 13, 61, 100
1, 495914, Note_off_c, 10, 69, 0
1, 495918, Note_off_c, 10, 64, 0
1, 495932, Note_off_c, 10, 76, 0
1, 496002, Note_off_c, 1, 66, 0
1, 496126, Note_off_c, 6, 64, 0
1, 496132, Note_off_c, 8, 40, 0
1, 496132, Note_off_c, 8, 45, 0
1, 496132, Note_off_c, 13, 59, 0
1, 496132, Note_off_c, 13, 61, 0
1, 496138, Note_off_c, 6, 69, 0
1, 496138, Note_off_c, 6, 76, 0
1, 496312, Note_off_c, 3, 64, 64
1, 496312, Note_off_c, 3, 69, 64
1, 496320, Note_on_c, 7, 64, 66
1, 496320, Note_on_c, 7, 69, 68
1, 496320, Note_on_c, 7, 76, 72
1, 496320, Note_on_c, 8, 59, 100
1, 496320, Note_on_c, 8, 61, 100
1, 496320, Note_on_c, 13, 40, 100
1, 496320, Note_on_c, 13, 45, 100
1, 496468, Note_off_c, 1, 61, 0
1, 496580, Note_off_c, 7, 69, 0
1, 496590, Note_off_c, 7, 64, 0
1, 496594, Note_off_c, 7, 76, 0
1, 496602, Note_on_c, 10, 64, 73
1, 496602, Note_on_c, 10, 69, 80
1, 496602, Note_on_c, 10, 76, 77
1, 496612, Note_off_c, 8, 59, 0
1, 496612, Note_off_c, 8, 61, 0
1, 496612, Note_off_c, 13, 40, 0
1, 496612, Note_off_c, 13, 45, 0
1, 496800, Note_on_c, 1, 69, 77
1, 496800, Note_on_c, 3, 71, 100
1, 496800, Note_on_c, 3, 76, 100
1, 496800, Note_on_c, 6, 64, 70
1, 496800, Note_on_c, 6, 69, 74
1, 496800, Note_on_c, 6, 76, 74
1, 496800, Note_on_c, 8, 40, 100
1, 496800, Note_on_c, 8, 45, 100
1, 496800, Note_on_c, 13, 59, 100
1, 496800, Note_on_c, 13, 61, 100
1, 496864, Note_off_c, 10, 64, 0
1, 496880, Note_off_c, 10, 69, 0
1, 496890, Note_off_c, 10, 76, 0
1, 497004, Note_off_c, 6, 64, 0
1, 497034, Note_off_c, 6, 76, 0
1, 497072, Note_off_c, 6, 69, 0
1, 497092, Note_off_c, 8, 40, 0
1, 497092, Note_off_c, 8, 45, 0
1, 497092, Note_off_c, 13, 59, 0
1, 497092, Note_off_c, 13, 61, 0
1, 497272, Note_off_c, 3, 71, 64
1, 497272, Note_off_c, 3, 76, 64
1, 497280, Note_on_c, 7, 64, 62
1, 497280, Note_on_c, 7, 69, 60
1, 497280, Note_on_c, 7, 76, 70
1, 497280, Note_on_c, 8, 59, 100
1, 497280, Note_on_c, 8, 61, 100
1, 497280, Note_on_c, 13, 40, 100
1, 497280, Note_on_c, 13, 45, 100
1, 497448, Note_off_c, 1, 69, 0
1, 497540, Note_off_c, 7, 69, 0
1, 497558, Note_off_c, 7, 64, 0
1, 497562, Note_on_c, 10, 64, 68
1, 497562, Note_on_c, 10, 69, 70
1, 497562, Note_on_c, 10, 76, 74
1, 497572, Note_off_c, 8, 59, 0
1, 497572, Note_off_c, 8, 61, 0
1, 497572, Note_off_c, 13, 40, 0
1, 497572, Note_off_c, 13, 45, 0
1, 497618, Note_off_c, 7, 76, 0
1, 497760, Note_on_c, 1, 64, 68
1, 497760, Note_on_c, 3, 73, 100
1, 497760, Note_on_c, 3, 76, 100
1, 497760, Note_on_c, 6, 64, 68
1, 497760, Note_on_c, 6, 69, 68
1, 497760, Note_on_c, 6, 76, 72
1, 497760, Note_on_c, 8, 40, 100
1, 497760, Note_on_c, 8, 45, 100
1, 497760, Note_on_c, 13, 59, 100
1, 497760, Note_on_c, 13, 61, 100
1, 497848, Note_off_c, 10, 64, 0
1, 497860, Note_off_c, 10, 69, 0
1, 497860, Note_off_c, 10, 76, 0
1, 497966, Note_off_c, 6, 69, 0
1, 497974, Note_off_c, 6, 64, 0
1, 497984, Note_off_c, 6, 76, 0
1, 498052, Note_off_c, 8, 40, 0
1, 498052, Note_off_c, 8, 45, 0
1, 498052, Note_off_c, 13, 59, 0
1, 498052, Note_off_c, 13, 61, 0
1, 498204, Note_off_c, 1, 64, 0
1, 498232, Note_off_c, 3, 73, 64
1, 498232, Note_off_c, 3, 76, 64
1, 498232, Note_off_c, 5, 52, 0
1, 498232, Note_off_c, 5, 57, 0
1, 498240, Note_on_c, 0, 59, 100
1, 498240, Note_on_c, 0, 66, 100
1, 498240, Note_on_c, 1, 66, 78
1, 498240, Note_on_c, 2, 69, 100
1, 498240, Note_on_c, 2, 78, 100
1, 498240, Note_on_c, 3, 64, 100
1, 498240, Note_on_c, 3, 69, 100
1, 498240, Note_on_c, 4, 78, 100
1, 498240, Note_on_c, 5, 50, 100
1, 498240, Note_on_c, 5, 57, 100
1, 498240, Note_on_c, 7, 64, 56
1, 498240, Note_on_c, 7, 69, 69
1, 498240, Note_on_c, 7, 76, 73
1, 498240, Note_on_c, 8, 57, 100
1, 498240, Note_on_c, 8, 61, 100
1, 498240, Note_on_c, 13, 38, 100
1, 498240, Note_on_c, 13, 45, 100
1, 498240, Note_on_c, 14, 54, 100
1, 498240, Note_on_c, 14, 81, 100
1, 498506, Note_off_c, 7, 64, 0
1, 498522, Note_on_c, 10, 64, 70
1, 498522, Note_on_c, 10, 69, 74
1, 498522, Note_on_c, 10, 76, 74
1, 498532, Note_off_c, 8, 57, 0
1, 498532, Note_off_c, 8, 61, 0
1, 498532, Note_off_c, 13, 38, 0
1, 498532, Note_off_c, 13, 45, 0
1, 498534, Note_off_c, 7, 69, 0
1, 498542, Note_off_c, 7, 76, 0
1, 498712, Note_off_c, 0, 59, 64
1, 498712, Note_off_c, 0, 66, 64
1, 498712, Note_off_c, 2, 69, 64
1, 498712, Note_off_c, 2, 78, 64
1, 498712, Note_off_c, 3, 64, 64
1, 498712, Note_off_c, 3, 69, 64
1, 498712, Note_off_c, 4, 78, 0
1, 498720, Note_on_c, 6, 64, 70
1, 498720, Note_on_c, 6, 69, 70
1, 498720, Note_on_c, 6, 76, 75
1, 498720, Note_on_c, 8, 38, 100
1, 498720, Note_on_c, 8, 45, 100
1, 498720, Note_on_c, 13, 57, 100
1, 498720, Note_on_c, 13, 61, 100
1, 498726, Note_off_c, 10, 64, 0
1, 498756, Note_off_c, 10, 76, 0
1, 498794, Note_off_c, 10, 69, 0
1, 498908, Note_off_c, 1, 66, 0
1, 498948, Note_off_c, 6, 69, 0
1, 498990, Note_off_c, 6, 64, 0
1, 499012, Note_off_c, 8, 38, 0
1, 499012, Note_off_c, 8, 45, 0
1, 499012, Note_off_c, 13, 57, 0
1, 499012, Note_off_c, 13, 61, 0
1, 499028, Note_off_c, 6, 76, 0
1, 499200, Note_on_c, 0, 61, 84
1, 499200, Note_on_c, 0, 68, 84
1, 499200, Note_on_c, 1, 59, 74
1, 499200, Note_on_c, 2, 71, 100
1, 499200, Note_on_c, 2, 80, 100
1, 499200, Note_on_c, 3, 71, 100
1, 499200, Note_on_c, 3, 76, 100
1, 499200, Note_on_c, 4, 80, 100
1, 499200, Note_on_c, 7, 64, 66
1, 499200, Note_on_c, 7, 69, 70
1, 499200, Note_on_c, 7, 76, 75
1, 499200, Note_on_c, 8, 57, 100
1, 499200, Note_on_c, 8, 61, 100
1, 499200, Note_on_c, 13, 38, 100
1, 499200, Note_on_c, 13, 45, 100
1, 499450, Note_off_c, 7, 69, 0
1, 499464, Note_off_c, 7, 64, 0
1, 499482, Note_on_c, 10, 64, 68
1, 499482, Note_on_c, 10, 69, 68
1, 499482, Note_on_c, 10, 76, 72
1, 499490, Note_off_c, 7, 76, 0
1, 499492, Note_off_c, 8, 57, 0
1, 499492, Note_off_c, 8, 61, 0
1, 499492, Note_off_c, 13, 38, 0
1, 499492, Note_off_c, 13, 45, 0
1, 499672, Note_off_c, 0, 61, 64
1, 499672, Note_off_c, 0, 68, 64
1, 499672, Note_off_c, 2, 71, 64
1, 499672, Note_off_c, 2, 80, 64
1, 499672, Note_off_c, 3, 71, 64
1, 499672, Note_off_c, 3, 76, 64
1, 499672, Note_off_c, 4, 80, 0
1, 499680, Note_on_c, 0, 64, 82
1, 499680, Note_on_c, 0, 69, 82
1, 499680, Note_on_c, 1, 69, 75
1, 499680, Note_on_c, 2, 69, 100
1, 499680, Note_on_c, 2, 78, 100
1, 499680, Note_on_c, 3, 66, 100
1, 499680, Note_on_c, 3, 69, 100
1, 499680, Note_on_c, 4, 81, 100
1, 499680, Note_on_c, 6, 64, 69
1, 499680, Note_on_c, 6, 69, 69
1, 499680, Note_on_c, 6, 76, 73
1, 499680, Note_on_c, 8, 38, 100
1, 499680, Note_on_c, 8, 45, 100
1, 499680, Note_on_c, 13, 57, 100
1, 499680, Note_on_c, 13, 61, 100
1, 499688, Note_off_c, 1, 59, 0
1, 499688, Note_off_c, 10, 69, 0
1, 499696, Note_off_c, 10, 64, 0
1, 499706, Note_off_c, 10, 76, 0
1, 499946, Note_off_c, 6, 64, 0
1, 499972, Note_off_c, 8, 38, 0
1, 499972, Note_off_c, 8, 45, 0
1, 499972, Note_off_c, 13, 57, 0
1, 499972, Note_off_c, 13, 61, 0
1, 499984, Note_off_c, 6, 69, 0
1, 499984, Note_off_c, 6, 76, 0
1, 500152, Note_off_c, 0, 64, 64
1, 500152, Note_off_c, 0, 69, 64
1, 500152, Note_off_c, 2, 69, 64
1, 500152, Note_off_c, 2, 78, 64
1, 500152, Note_off_c, 3, 66, 64
1, 500152, Note_off_c, 3, 69, 64
1, 500152, Note_off_c, 4, 81, 0
1, 500160, Note_on_c, 0, 68, 78
1, 500160, Note_on_c, 0, 73, 78
1, 500160, Note_on_c, 1, 64, 73
1, 500160, Note_on_c, 2, 73, 100
1, 500160, Note_on_c, 2, 81, 100
1, 500160, Note_on_c, 3, 73, 100
1, 500160, Note_on_c, 3, 76, 100
1, 500160, Note_on_c, 4, 85, 100
1, 500160, Note_on_c, 7, 64, 66
1, 500160, Note_on_c, 7, 69, 70
1, 500160, Note_on_c, 7, 76, 75
1, 500160, Note_on_c, 8, 57, 100
1, 500160, Note_on_c, 8, 61, 100
1, 500160, Note_on_c, 13, 38, 100
1, 500160, Note_on_c, 13, 45, 100
1, 500286, Note_off_c, 1, 69, 0
1, 500410, Note_off_c, 7, 69, 0
1, 500424, Note_off_c, 7, 64, 0
1, 500442, Note_on_c, 10, 64, 70
1, 500442, Note_on_c, 10, 69, 70
1, 500442, Note_on_c, 10, 76, 75
1, 500450, Note_off_c, 7, 76, 0
1, 500452, Note_off_c, 8, 57, 0
1, 500452, Note_off_c, 8, 61, 0
1, 500452, Note_off_c, 13, 38, 0
1, 500452, Note_off_c, 13, 45, 0
1, 500632, Note_off_c, 0, 68, 64
1, 500632, Note_off_c, 0, 73, 64
1, 500632, Note_off_c, 2, 73, 64
1, 500632, Note_off_c, 2, 81, 64
1, 500632, Note_off_c, 3, 73, 64
1, 500632, Note_off_c, 3, 76, 64
1, 500632, Note_off_c, 4, 85, 0
1, 500640, Note_on_c, 6, 64, 67
1, 500640, Note_on_c, 6, 69, 63
1, 500640, Note_on_c, 6, 76, 74
1, 500640, Note_on_c, 8, 38, 100
1, 500640, Note_on_c, 8, 45, 100
1, 500640, Note_on_c, 13, 57, 100
1, 500640, Note_on_c, 13, 61, 100
1, 500670, Note_off_c, 10, 69, 0
1, 500712, Note_off_c, 10, 64, 0
1, 500750, Note_off_c, 10, 76, 0
1, 500844, Note_off_c, 6, 69, 0
1, 500866, Note_off_c, 1, 64, 0
1, 500906, Note_off_c, 6, 64, 0
1, 500906, Note_off_c, 6, 76, 0
1, 500932, Note_off_c, 8, 38, 0
1, 500932, Note_off_c, 8, 45, 0
1, 500932, Note_off_c, 13, 57, 0
1, 500932, Note_off_c, 13, 61, 0
1, 501120, Note_on_c, 0, 66, 78
1, 501120, Note_on_c, 0, 71, 78
1, 501120, Note_on_c, 1, 66, 68
1, 501120, Note_on_c, 2, 71, 100
1, 501120, Note_on_c, 2, 80, 100
1, 501120, Note_on_c, 3, 71, 100
1, 501120, Note_on_c, 3, 76, 100
1, 501120, Note_on_c, 4, 83, 100
1, 501120, Note_on_c, 7, 64, 72
1, 501120, Note_on_c, 7, 69, 80
1, 501120, Note_on_c, 7, 76, 77
1, 501120, Note_on_c, 8, 57, 100
1, 501120, Note_on_c, 8, 61, 100
1, 501120, Note_on_c, 13, 38, 100
1, 501120, Note_on_c, 13, 45, 100
1, 501360, Note_off_c, 7, 76, 0
1, 501370, Note_off_c, 7, 64, 0
1, 501370, Note_off_c, 7, 69, 0
1, 501402, Note_on_c, 10, 64, 69
1, 501402, Note_on_c, 10, 69, 69
1, 501402, Note_on_c, 10, 76, 73
1, 501412, Note_off_c, 8, 57, 0
1, 501412, Note_off_c, 8, 61, 0
1, 501412, Note_off_c, 13, 38, 0
1, 501412, Note_off_c, 13, 45, 0
1, 501592, Note_off_c, 0, 66, 64
1, 501592, Note_off_c, 0, 71, 64
1, 501592, Note_off_c, 2, 71, 64
1, 501592, Note_off_c, 2, 80, 64
1, 501592, Note_off_c, 3, 71, 64
1, 501592, Note_off_c, 3, 76, 64
1, 501592, Note_off_c, 4, 83, 0
1, 501600, Note_on_c, 0, 61, 82
1, 501600, Note_on_c, 0, 68, 82
1, 501600, Note_on_c, 1, 61, 68
1, 501600, Note_on_c, 2, 69, 100
1, 501600, Note_on_c, 2, 78, 100
1, 501600, Note_on_c, 3, 64, 100
1, 501600, Note_on_c, 3, 69, 100
1, 501600, Note_on_c, 4, 80, 100
1, 501600, Note_on_c, 6, 64, 66
1, 501600, Note_on_c, 6, 69, 63
1, 501600, Note_on_c, 6, 76, 74
1, 501600, Note_on_c, 8, 38, 100
1, 501600, Note_on_c, 8, 45, 100
1, 501600, Note_on_c, 13, 57, 100
1, 501600, Note_on_c, 13, 61, 100
1, 501636, Note_off_c, 1, 66, 0
1, 501668, Note_off_c, 10, 64, 0
1, 501706, Note_off_c, 10, 69, 0
1, 501706, Note_off_c, 10, 76, 0
1, 501830, Note_off_c, 6, 69, 0
1, 501836, Note_off_c, 6, 64, 0
1, 501874, Note_off_c, 6, 76, 0
1, 501892, Note_off_c, 8, 38, 0
1, 501892, Note_off_c, 8, 45, 0
1, 501892, Note_off_c, 13, 57, 0
1, 501892, Note_off_c, 13, 61, 0
1, 502072, Note_off_c, 0, 61, 64
1, 502072, Note_off_c, 0, 68, 64
1, 502072, Note_off_c, 2, 69, 64
1, 502072, Note_off_c, 2, 78, 64
1, 502072, Note_off_c, 3, 64, 64
1, 502072, Note_off_c, 3, 69, 64
1, 502072, Note_off_c, 4, 80, 0
1, 502080, Note_on_c, 7, 64, 70
1, 502080, Note_on_c, 7, 69, 77
1, 502080, Note_on_c, 7, 76, 77
1, 502080, Note_on_c, 8, 57, 100
1, 502080, Note_on_c, 8, 61, 100
1, 502080, Note_on_c, 13, 38, 100
1, 502080, Note_on_c, 13, 45, 100
1, 502334, Note_off_c, 7, 64, 0
1, 502362, Note_off_c, 7, 69, 0
1, 502362, Note_on_c, 10, 64, 67
1, 502362, Note_on_c, 10, 69, 63
1, 502362, Note_on_c, 10, 76, 74
1, 502370, Note_off_c, 1, 61, 0
1, 502370, Note_off_c, 7, 76, 0
1, 502372, Note_off_c, 8, 57, 0
1, 502372, Note_off_c, 8, 61, 0
1, 502372, Note_off_c, 13, 38, 0
1, 502372, Note_off_c, 13, 45, 0
1, 502560, Note_on_c, 0, 64, 85
1, 502560, Note_on_c, 0, 69, 85
1, 502560, Note_on_c, 1, 69, 77
1, 502560, Note_on_c, 2, 71, 100
1, 502560, Note_on_c, 2, 80, 100
1, 502560, Note_on_c, 3, 71, 100
1, 502560, Note_on_c, 3, 76, 100
1, 502560, Note_on_c, 4, 81, 100
1, 502560, Note_on_c, 6, 64, 68
1, 502560, Note_on_c, 6, 69, 74
1, 502560, Note_on_c, 6, 76, 74
1, 502560, Note_on_c, 8, 38, 100
1, 502560, Note_on_c, 8, 45, 100
1, 502560, Note_on_c, 13, 57, 100
1, 502560, Note_on_c, 13, 61, 100
1, 502566, Note_off_c, 10, 69, 0
1, 502628, Note_off_c, 10, 64, 0
1, 502628, Note_off_c, 10, 76, 0
1, 502820, Note_off_c, 6, 69, 0
1, 502850, Note_off_c, 6, 76, 0
1, 502852, Note_off_c, 8, 38, 0
1, 502852, Note_off_c, 8, 45, 0
1, 502852, Note_off_c, 13, 57, 0
1, 502852, Note_off_c, 13, 61, 0
1, 502854, Note_off_c, 6, 64, 0
1, 503032, Note_off_c, 0, 64, 64
1, 503032, Note_off_c, 0, 69, 64
1, 503032, Note_off_c, 2, 71, 64
1, 503032, Note_off_c, 2, 80, 64
1, 503032, Note_off_c, 3, 71, 64
1, 503032, Note_off_c, 3, 76, 64
1, 503032, Note_off_c, 4, 81, 0
1, 503040, Note_on_c, 7, 64, 70
1, 503040, Note_on_c, 7, 69, 73
1, 503040, Note_on_c, 7, 76, 74
1, 503040, Note_on_c, 8, 57, 100
1, 503040, Note_on_c, 8, 61, 100
1, 503040, Note_on_c, 13, 38, 100
1, 503040, Note_on_c, 13, 45, 100
1, 503184, Note_off_c, 1, 69, 0
1, 503280, Note_off_c, 7, 64, 0
1, 503286, Note_off_c, 7, 69, 0
1, 503300, Note_off_c, 7, 76, 0
1, 503322, Note_on_c, 10, 64, 66
1, 503322, Note_on_c, 10, 69, 63
1, 503322, Note_on_c, 10, 76, 74
1, 503332, Note_off_c, 8, 57, 0
1, 503332, Note_off_c, 8, 61, 0
1, 503332, Note_off_c, 13, 38, 0
1, 503332, Note_off_c, 13, 45, 0
1, 503520, Note_on_c, 0, 66, 93
1, 503520, Note_on_c, 0, 71, 93
1, 503520, Note_on_c, 1, 64, 70
1, 503520, Note_on_c, 2, 73, 100
1, 503520, Note_on_c, 2, 81, 100
1, 503520, Note_on_c, 3, 73, 100
1, 503520, Note_on_c, 3, 76, 100
1, 503520, Note_on_c, 4, 83, 100
1, 503520, Note_on_c, 6, 64, 73
1, 503520, Note_on_c, 6, 69, 82
1, 503520, Note_on_c, 6, 76, 77
1, 503520, Note_on_c, 8, 38, 100
1, 503520, Note_on_c, 8, 45, 100
1, 503520, Note_on_c, 13, 57, 100
1, 503520, Note_on_c, 13, 61, 100
1, 503552, Note_off_c, 10, 69, 0
1, 503558, Note_off_c, 10, 64, 0
1, 503596, Note_off_c, 10, 76, 0
1, 503798, Note_off_c, 6, 69, 0
1, 503810, Note_off_c, 6, 64, 0
1, 503812, Note_off_c, 8, 38, 0
1, 503812, Note_off_c, 8, 45, 0
1, 503812, Note_off_c, 13, 57, 0
1, 503812, Note_off_c, 13, 61, 0
1, 503818, Note_off_c, 6, 76, 0
1, 503992, Note_off_c, 0, 66, 64
1, 503992, Note_off_c, 0, 71, 64
1, 503992, Note_off_c, 2, 73, 64
1, 503992, Note_off_c, 2, 81, 64
1, 503992, Note_off_c, 3, 73, 64
1, 503992, Note_off_c, 3, 76, 64
1, 503992, Note_off_c, 4, 83, 0
1, 503992, Note_off_c, 5, 50, 0
1, 503992, Note_off_c, 5, 57, 0
1, 503992, Note_off_c, 14, 54, 0
1, 503992, Note_off_c, 14, 81, 0
1, 504000, Note_on_c, 0, 61, 93
1, 504000, Note_on_c, 0, 68, 93
1, 504000, Note_on_c, 1, 66, 77
1, 504000, Note_on_c, 2, 69, 100
1, 504000, Note_on_c, 2, 78, 100
1, 504000, Note_on_c, 3, 64, 100
1, 504000, Note_on_c, 3, 69, 100
1, 504000, Note_on_c, 4, 80, 100
1, 504000, Note_on_c, 5, 52, 100
1, 504000, Note_on_c, 5, 57, 100
1, 504000, Note_on_c, 7, 64, 72
1, 504000, Note_on_c, 7, 69, 77
1, 504000, Note_on_c, 7, 76, 75
1, 504000, Note_on_c, 8, 59, 100
1, 504000, Note_on_c, 8, 61, 100
1, 504000, Note_on_c, 13, 40, 100
1, 504000, Note_on_c, 13, 45, 100
1, 504000, Note_on_c, 14, 56, 100
1, 504000, Note_on_c, 14, 83, 100
1, 504152, Note_off_c, 1, 64, 0
1, 504208, Note_off_c, 7, 69, 0
1, 504222, Note_off_c, 7, 64, 0
1, 504242, Note_off_c, 7, 76, 0
1, 504282, Note_on_c, 10, 64, 68
1, 504282, Note_on_c, 10, 69, 74
1, 504282, Note_on_c, 10, 76, 74
1, 504292, Note_off_c, 8, 59, 0
1, 504292, Note_off_c, 8, 61, 0
1, 504292, Note_off_c, 13, 40, 0
1, 504292, Note_off_c, 13, 45, 0
1, 504472, Note_off_c, 0, 61, 64
1, 504472, Note_off_c, 0, 68, 64
1, 504472, Note_off_c, 2, 69, 64
1, 504472, Note_off_c, 2, 78, 64
1, 504472, Note_off_c, 3, 64, 64
1, 504472, Note_off_c, 3, 69, 64
1, 504472, Note_off_c, 4, 80, 0
1, 504480, Note_on_c, 6, 64, 72
1, 504480, Note_on_c, 6, 69, 75
1, 504480, Note_on_c, 6, 76, 73
1, 504480, Note_on_c, 8, 40, 100
1, 504480, Note_on_c, 8, 45, 100
1, 504480, Note_on_c, 13, 59, 100
1, 504480, Note_on_c, 13, 61, 100
1, 504542, Note_off_c, 10, 69, 0
1, 504572, Note_off_c, 10, 76, 0
1, 504576, Note_off_c, 10, 64, 0
1, 504644, Note_off_c, 1, 66, 0
1, 504768, Note_off_c, 6, 76, 0
1, 504770, Note_off_c, 6, 69, 0
1, 504772, Note_off_c, 8, 40, 0
1, 504772, Note_off_c, 8, 45, 0
1, 504772, Note_off_c, 13, 59, 0
1, 504772, Note_off_c, 13, 61, 0
1, 504778, Note_off_c, 6, 64, 0
1, 504960, Note_on_c, 0, 61, 98
1, 504960, Note_on_c, 0, 68, 98
1, 504960, Note_on_c, 1, 59, 65
1, 504960, Note_on_c, 2, 71, 100
1, 504960, Note_on_c, 2, 80, 100
1, 504960, Note_on_c, 3, 71, 100
1, 504960, Note_on_c, 3, 76, 100
1, 504960, Note_on_c, 4, 80, 100
1, 504960, Note_on_c, 7, 64, 70
1, 504960, Note_on_c, 7, 69, 78
1, 504960, Note_on_c, 7, 76, 77
1, 504960, Note_on_c, 8, 59, 100
1, 504960, Note_on_c, 8, 61, 100
1, 504960, Note_on_c, 13, 40, 100
1, 504960, Note_on_c, 13, 45, 100
1, 505202, Note_off_c, 7, 64, 0
1, 505224, Note_off_c, 7, 76, 0
1, 505242, Note_on_c, 10, 64, 73
1, 505242, Note_on_c, 10, 69, 82
1, 505242, Note_on_c, 10, 76, 77
1, 505248, Note_off_c, 7, 69, 0
1, 505252, Note_off_c, 8, 59, 0
1, 505252, Note_off_c, 8, 61, 0
1, 505252, Note_off_c, 13, 40, 0
1, 505252, Note_off_c, 13, 45, 0
1, 505432, Note_off_c, 0, 61, 64
1, 505432, Note_off_c, 0, 68, 64
1, 505432, Note_off_c, 2, 71, 64
1, 505432, Note_off_c, 2, 80, 64
1, 505432, Note_off_c, 3, 71, 64
1, 505432, Note_off_c, 3, 76, 64
1, 505432, Note_off_c, 4, 80, 0
1, 505440, Note_on_c, 0, 64, 98
1, 505440, Note_on_c, 0, 69, 98
1, 505440, Note_on_c, 1, 69, 74
1, 505440, Note_on_c, 2, 69, 100
1, 505440, Note_on_c, 2, 78, 100
1, 505440, Note_on_c, 3, 66, 100
1, 505440, Note_on_c, 3, 69, 100
1, 505440, Note_on_c, 4, 81, 100
1, 505440, Note_on_c, 6, 64, 69
1, 505440, Note_on_c, 6, 69, 70
1, 505440, Note_on_c, 6, 76, 72
1, 505440, Note_on_c, 8, 40, 100
1, 505440, Note_on_c, 8, 45, 100
1, 505440, Note_on_c, 13, 59, 100
1, 505440, Note_on_c, 13, 61, 100
1, 505520, Note_off_c, 10, 69, 0
1, 505532, Note_off_c, 10, 64, 0
1, 505534, Note_off_c, 1, 59, 0
1, 505540, Note_off_c, 10, 76, 0
1, 505704, Note_off_c, 6, 69, 0
1, 505728, Note_off_c, 6, 64, 0
1, 505732, Note_off_c, 8, 40, 0
1, 505732, Note_off_c, 8, 45, 0
1, 505732, Note_off_c, 13, 59, 0
1, 505732, Note_off_c, 13, 61, 0
1, 505744, Note_off_c, 6, 76, 0
1, 505912, Note_off_c, 0, 64, 64
1, 505912, Note_off_c, 0, 69, 64
1, 505912, Note_off_c, 2, 69, 64
1, 505912, Note_off_c, 2, 78, 64
1, 505912, Note_off_c, 3, 66, 64
1, 505912, Note_off_c, 3, 69, 64
1, 505912, Note_off_c, 4, 81, 0
1, 505920, Note_on_c, 0, 68, 100
1, 505920, Note_on_c, 0, 73, 100
1, 505920, Note_on_c, 1, 64, 68
1, 505920, Note_on_c, 2, 73, 100
1, 505920, Note_on_c, 2, 81, 100
1, 505920, Note_on_c, 3, 73, 100
1, 505920, Note_on_c, 3, 76, 100
1, 505920, Note_on_c, 4, 85, 100
1, 505920, Note_on_c, 7, 64, 70
1, 505920, Note_on_c, 7, 69, 72
1, 505920, Note_on_c, 7, 76, 77
1, 505920, Note_on_c, 8, 59, 100
1, 505920, Note_on_c, 8, 61, 100
1, 505920, Note_on_c, 13, 40, 100
1, 505920, Note_on_c, 13, 45, 100
1, 506132, Note_off_c, 1, 69, 0
1, 506174, Note_off_c, 7, 64, 0
1, 506186, Note_off_c, 7, 69, 0
1, 506202, Note_on_c, 10, 64, 72
1, 506202, Note_on_c, 10, 69, 75
1, 506202, Note_on_c, 10, 76, 73
1, 506212, Note_off_c, 8, 59, 0
1, 506212, Note_off_c, 8, 61, 0
1, 506212, Note_off_c, 13, 40, 0
1, 506212, Note_off_c, 13, 45, 0
1, 506242, Note_off_c, 7, 76, 0
1, 506392, Note_off_c, 0, 68, 64
1, 506392, Note_off_c, 0, 73, 64
1, 506392, Note_off_c, 2, 73, 64
1, 506392, Note_off_c, 2, 81, 64
1, 506392, Note_off_c, 3, 73, 64
1, 506392, Note_off_c, 3, 76, 64
1, 506392, Note_off_c, 4, 85, 0
1, 506400, Note_on_c, 6, 64, 68
1, 506400, Note_on_c, 6, 69, 77
1, 506400, Note_on_c, 6, 76, 73
1, 506400, Note_on_c, 8, 40, 100
1, 506400, Note_on_c, 8, 45, 100
1, 506400, Note_on_c, 13, 59, 100
1, 506400, Note_on_c, 13, 61, 100
1, 506490, Note_off_c, 10, 76, 0
1, 506492, Note_off_c, 10, 69, 0
1, 506500, Note_off_c, 10, 64, 0
1, 506534, Note_off_c, 1, 64, 0
1, 506666, Note_off_c, 6, 64, 0
1, 506684, Note_off_c, 6, 69, 0
1, 506684, Note_off_c, 6, 76, 0
1, 506692, Note_off_c, 8, 40, 0
1, 506692, Note_off_c, 8, 45, 0
1, 506692, Note_off_c, 13, 59, 0
1, 506692, Note_off_c, 13, 61, 0
1, 506880, Note_on_c, 0, 66, 106
1, 506880, Note_on_c, 0, 71, 106
1, 506880, Note_on_c, 1, 66, 77
1, 506880, Note_on_c, 2, 71, 100
1, 506880, Note_on_c, 2, 80, 100
1, 506880, Note_on_c, 3, 71, 100
1, 506880, Note_on_c, 3, 76, 100
1, 506880, Note_on_c, 4, 83, 100
1, 506880, Note_on_c, 7, 64, 73
1, 506880, Note_on_c, 7, 69, 77
1, 506880, Note_on_c, 7, 76, 74
1, 506880, Note_on_c, 8, 59, 100
1, 506880, Note_on_c, 8, 61, 100
1, 506880, Note_on_c, 13, 40, 100
1, 506880, Note_on_c, 13, 45, 100
1, 507162, Note_on_c, 10, 64, 69
1, 507162, Note_on_c, 10, 69, 70
1, 507162, Note_on_c, 10, 76, 72
1, 507164, Note_off_c, 7, 69, 0
1, 507172, Note_off_c, 8, 59, 0
1, 507172, Note_off_c, 8, 61, 0
1, 507172, Note_off_c, 13, 40, 0
1, 507172, Note_off_c, 13, 45, 0
1, 507196, Note_off_c, 7, 76, 0
1, 507202, Note_off_c, 7, 64, 0
1, 507352, Note_off_c, 0, 66, 64
1, 507352, Note_off_c, 0, 71, 64
1, 507352, Note_off_c, 2, 71, 64
1, 507352, Note_off_c, 2, 80, 64
1, 507352, Note_off_c, 3, 71, 64
1, 507352, Note_off_c, 3, 76, 64
1, 507352, Note_off_c, 4, 83, 0
1, 507360, Note_on_c, 0, 61, 106
1, 507360, Note_on_c, 0, 68, 106
1, 507360, Note_on_c, 1, 61, 70
1, 507360, Note_on_c, 2, 69, 100
1, 507360, Note_on_c, 2, 78, 100
1, 507360, Note_on_c, 3, 64, 100
1, 507360, Note_on_c, 3, 69, 100
1, 507360, Note_on_c, 4, 80, 100
1, 507360, Note_on_c, 6, 64, 72
1, 507360, Note_on_c, 6, 69, 52
1, 507360, Note_on_c, 6, 76, 72
1, 507360, Note_on_c, 8, 40, 100
1, 507360, Note_on_c, 8, 45, 100
1, 507360, Note_on_c, 13, 59, 100
1, 507360, Note_on_c, 13, 61, 100
1, 507426, Note_off_c, 10, 69, 0
1, 507450, Note_off_c, 10, 64, 0
1, 507466, Note_off_c, 10, 76, 0
1, 507512, Note_off_c, 6, 69, 0
1, 507522, Note_off_c, 1, 66, 0
1, 507600, Note_off_c, 6, 64, 0
1, 507606, Note_off_c, 6, 76, 0
1, 507652, Note_off_c, 8, 40, 0
1, 507652, Note_off_c, 8, 45, 0
1, 507652, Note_off_c, 13, 59, 0
1, 507652, Note_off_c, 13, 61, 0
1, 507832, Note_off_c, 0, 61, 64
1, 507832, Note_off_c, 0, 68, 64
1, 507832, Note_off_c, 2, 69, 64
1, 507832, Note_off_c, 2, 78, 64
1, 507832, Note_off_c, 3, 64, 64
1, 507832, Note_off_c, 3, 69, 64
1, 507832, Note_off_c, 4, 80, 0
1, 507840, Note_on_c, 7, 64, 68
1, 507840, Note_on_c, 7, 69, 70
1, 507840, Note_on_c, 7, 76, 72
1, 507840, Note_on_c, 8, 59, 100
1, 507840, Note_on_c, 8, 61, 100
1, 507840, Note_on_c, 13, 40, 100
1, 507840, Note_on_c, 13, 45, 100
1, 507988, Note_off_c, 1, 61, 0
1, 508122, Note_on_c, 10, 64, 68
1, 508122, Note_on_c, 10, 69, 77
1, 508122, Note_on_c, 10, 76, 73
1, 508130, Note_off_c, 7, 69, 0
1, 508132, Note_off_c, 8, 59, 0
1, 508132, Note_off_c, 8, 61, 0
1, 508132, Note_off_c, 13, 40, 0
1, 508132, Note_off_c, 13, 45, 0
1, 508148, Note_off_c, 7, 76, 0
1, 508154, Note_off_c, 7, 64, 0
1, 508320, Note_on_c, 0, 64, 104
1, 508320, Note_on_c, 0, 69, 104
1, 508320, Note_on_c, 1, 69, 77
1, 508320, Note_on_c, 2, 71, 100
1, 508320, Note_on_c, 2, 80, 100
1, 508320, Note_on_c, 3, 71, 100
1, 508320, Note_on_c, 3, 76, 100
1, 508320, Note_on_c, 4, 81, 100
1, 508320, Note_on_c, 6, 64, 68
1, 508320, Note_on_c, 6, 69, 70
1, 508320, Note_on_c, 6, 76, 74
1, 508320, Note_on_c, 8, 40, 100
1, 508320, Note_on_c, 8, 45, 100
1, 508320, Note_on_c, 13, 59, 100
1, 508320, Note_on_c, 13, 61, 100
1, 508388, Note_off_c, 10, 64, 0
1, 508406, Note_off_c, 10, 69, 0
1, 508406, Note_off_c, 10, 76, 0
1, 508552, Note_off_c, 6, 69, 0
1, 508562, Note_off_c, 6, 64, 0
1, 508570, Note_off_c, 6, 76, 0
1, 508612, Note_off_c, 8, 40, 0
1, 508612, Note_off_c, 8, 45, 0
1, 508612, Note_off_c, 13, 59, 0
1, 508612, Note_off_c, 13, 61, 0
1, 508792, Note_off_c, 0, 64, 64
1, 508792, Note_off_c, 0, 69, 64
1, 508792, Note_off_c, 2, 71, 64
1, 508792, Note_off_c, 2, 80, 64
1, 508792, Note_off_c, 3, 71, 64
1, 508792, Note_off_c, 3, 76, 64
1, 508792, Note_off_c, 4, 81, 0
1, 508800, Note_on_c, 7, 64, 68
1, 508800, Note_on_c, 7, 69, 70
1, 508800, Note_on_c, 7, 76, 73
1, 508800, Note_on_c, 8, 59, 100
1, 508800, Note_on_c, 8, 61, 100
1, 508800, Note_on_c, 13, 40, 100
1, 508800, Note_on_c, 13, 45, 100
1, 508968, Note_off_c, 1, 69, 0
1, 509048, Note_off_c, 7, 64, 0
1, 509062, Note_off_c, 7, 69, 0
1, 509062, Note_off_c, 7, 76, 0
1, 509082, Note_on_c, 10, 64, 72
1, 509082, Note_on_c, 10, 69, 52
1, 509082, Note_on_c, 10, 76, 72
1, 509092, Note_off_c, 8, 59, 0
1, 509092, Note_off_c, 8, 61, 0
1, 509092, Note_off_c, 13, 40, 0
1, 509092, Note_off_c, 13, 45, 0
1, 509234, Note_off_c, 10, 69, 0
1, 509280, Note_on_c, 0, 66, 100
1, 509280, Note_on_c, 0, 71, 100
1, 509280, Note_on_c, 1, 64, 68
1, 509280, Note_on_c, 2, 73, 100
1, 509280, Note_on_c, 2, 81, 100
1, 509280, Note_on_c, 3, 73, 100
1, 509280, Note_on_c, 3, 76, 100
1, 509280, Note_on_c, 4, 83, 100
1, 509280, Note_on_c, 6, 64, 68
1, 509280, Note_on_c, 6, 69, 69
1, 509280, Note_on_c, 6, 76, 72
1, 509280, Note_on_c, 8, 40, 100
1, 509280, Note_on_c, 8, 45, 100
1, 509280, Note_on_c, 13, 59, 100
1, 509280, Note_on_c, 13, 61, 100
1, 509322, Note_off_c, 10, 64, 0
1, 509328, Note_off_c, 10, 76, 0
1, 509496, Note_off_c, 6, 76, 0
1, 509498, Note_off_c, 6, 69, 0
1, 509512, Note_off_c, 6, 64, 0
1, 509572, Note_off_c, 8, 40, 0
1, 509572, Note_off_c, 8, 45, 0
1, 509572, Note_off_c, 13, 59, 0
1, 509572, Note_off_c, 13, 61, 0
1, 509724, Note_off_c, 1, 64, 0
1, 509752, Note_off_c, 0, 66, 64
1, 509752, Note_off_c, 0, 71, 64
1, 509752, Note_off_c, 2, 73, 64
1, 509752, Note_off_c, 2, 81, 64
1, 509752, Note_off_c, 3, 73, 64
1, 509752, Note_off_c, 3, 76, 64
1, 509752, Note_off_c, 4, 83, 0
1, 509752, Note_off_c, 5, 52, 0
1, 509752, Note_off_c, 5, 57, 0
1, 509752, Note_off_c, 14, 56, 0
1, 509752, Note_off_c, 14, 83, 0
1, 509760, Note_on_c, 0, 61, 98
1, 509760, Note_on_c, 0, 68, 98
1, 509760, Note_on_c, 1, 66, 78
1, 509760, Note_on_c, 2, 69, 100
1, 509760, Note_on_c, 2, 78, 100
1, 509760, Note_on_c, 3, 64, 100
1, 509760, Note_on_c, 3, 69, 100
1, 509760, Note_on_c, 4, 80, 100
1, 509760, Note_on_c, 5, 50, 100
1, 509760, Note_on_c, 5, 57, 100
1, 509760, Note_on_c, 7, 64, 70
1, 509760, Note_on_c, 7, 69, 83
1, 509760, Note_on_c, 7, 76, 74
1, 509760, Note_on_c, 8, 57, 100
1, 509760, Note_on_c, 8, 61, 100
1, 509760, Note_on_c, 13, 38, 100
1, 509760, Note_on_c, 13, 45, 100
1, 509760, Note_on_c, 14, 54, 100
1, 509760, Note_on_c, 14, 81, 100
1, 510000, Note_off_c, 7, 64, 0
1, 510000, Note_off_c, 7, 76, 0
1, 510010, Note_off_c, 7, 69, 0
1, 510042, Note_on_c, 10, 64, 68
1, 510042, Note_on_c, 10, 69, 70
1, 510042, Note_on_c, 10, 76, 74
1, 510052, Note_off_c, 8, 57, 0
1, 510052, Note_off_c, 8, 61, 0
1, 510052, Note_off_c, 13, 38, 0
1, 510052, Note_off_c, 13, 45, 0
1, 510232, Note_off_c, 0, 61, 64
1, 510232, Note_off_c, 0, 68, 64
1, 510232, Note_off_c, 2, 69, 64
1, 510232, Note_off_c, 2, 78, 64
1, 510232, Note_off_c, 3, 64, 64
1, 510232, Note_off_c, 3, 69, 64
1, 510232, Note_off_c, 4, 80, 0
1, 510240, Note_on_c, 6, 64, 67
1, 510240, Note_on_c, 6, 69, 67
1, 510240, Note_on_c, 6, 76, 72
1, 510240, Note_on_c, 8, 38, 100
1, 510240, Note_on_c, 8, 45, 100
1, 510240, Note_on_c, 13, 57, 100
1, 510240, Note_on_c, 13, 61, 100
1, 510274, Note_off_c, 10, 69, 0
1, 510284, Note_off_c, 10, 64, 0
1, 510292, Note_off_c, 10, 76, 0
1, 510428, Note_off_c, 1, 66, 0
1, 510486, Note_off_c, 6, 64, 0
1, 510490, Note_off_c, 6, 69, 0
1, 510506, Note_off_c, 6, 76, 0
1, 510532, Note_off_c, 8, 38, 0
1, 510532, Note_off_c, 8, 45, 0
1, 510532, Note_off_c, 13, 57, 0
1, 510532, Note_off_c, 13, 61, 0
1, 510720, Note_on_c, 0, 61, 95
1, 510720, Note_on_c, 0, 68, 95
1, 510720, Note_on_c, 1, 59, 74
1, 510720, Note_on_c, 2, 71, 100
1, 510720, Note_on_c, 2, 80, 100
1, 510720, Note_on_c, 3, 71, 100
1, 510720, Note_on_c, 3, 76, 100
1, 510720, Note_on_c, 4, 80, 100
1, 510720, Note_on_c, 7, 64, 67
1, 510720, Note_on_c, 7, 69, 78
1, 510720, Note_on_c, 7, 76, 73
1, 510720, Note_on_c, 8, 57, 100
1, 510720, Note_on_c, 8, 61, 100
1, 510720, Note_on_c, 13, 38, 100
1, 510720, Note_on_c, 13, 45, 100
1, 510970, Note_off_c, 7, 76, 0
1, 510976, Note_off_c, 7, 69, 0
1, 510984, Note_off_c, 7, 64, 0
1, 511002, Note_on_c, 10, 64, 68
1, 511002, Note_on_c, 10, 69, 69
1, 511002, Note_on_c, 10, 76, 72
1, 511012, Note_off_c, 8, 57, 0
1, 511012, Note_off_c, 8, 61, 0
1, 511012, Note_off_c, 13, 38, 0
1, 511012, Note_off_c, 13, 45, 0
1, 511192, Note_off_c, 0, 61, 64
1, 511192, Note_off_c, 0, 68, 64
1, 511192, Note_off_c, 2, 71, 64
1, 511192, Note_off_c, 2, 80, 64
1, 511192, Note_off_c, 3, 71, 64
1, 511192, Note_off_c, 3, 76, 64
1, 511192, Note_off_c, 4, 80, 0
1, 511200, Note_on_c, 0, 64, 102
1, 511200, Note_on_c, 0, 69, 102
1, 511200, Note_on_c, 1, 69, 75
1, 511200, Note_on_c, 2, 69, 100
1, 511200, Note_on_c, 2, 78, 100
1, 511200, Note_on_c, 3, 66, 100
1, 511200, Note_on_c, 3, 69, 100
1, 511200, Note_on_c, 4, 81, 100
1, 511200, Note_on_c, 6, 64, 67
1, 511200, Note_on_c, 6, 69, 63
1, 511200, Note_on_c, 6, 76, 72
1, 511200, Note_on_c, 8, 38, 100
1, 511200, Note_on_c, 8, 45, 100
1, 511200, Note_on_c, 13, 57, 100
1, 511200, Note_on_c, 13, 61, 100
1, 511208, Note_off_c, 1, 59, 0
1, 511218, Note_off_c, 10, 76, 0
1, 511220, Note_off_c, 10, 69, 0
1, 511234, Note_off_c, 10, 64, 0
1, 511448, Note_off_c, 6, 69, 0
1, 511476, Note_off_c, 6, 64, 0
1, 511492, Note_off_c, 6, 76, 0
1, 511492, Note_off_c, 8, 38, 0
1, 511492, Note_off_c, 8, 45, 0
1, 511492, Note_off_c, 13, 57, 0
1, 511492, Note_off_c, 13, 61, 0
1, 511672, Note_off_c, 0, 64, 64
1, 511672, Note_off_c, 0, 69, 64
1, 511672, Note_off_c, 2, 69, 64
1, 511672, Note_off_c, 2, 78, 64
1, 511672, Note_off_c, 3, 66, 64
1, 511672, Note_off_c, 3, 69, 64
1, 511672, Note_off_c, 4, 81, 0
1, 511680, Note_on_c, 0, 68, 100
1, 511680, Note_on_c, 0, 73, 100
1, 511680, Note_on_c, 1, 64, 73
1, 511680, Note_on_c, 2, 73, 100
1, 511680, Note_on_c, 2, 81, 100
1, 511680, Note_on_c, 3, 73, 100
1, 511680, Note_on_c, 3, 76, 100
1, 511680, Note_on_c, 4, 85, 100
1, 511680, Note_on_c, 7, 64, 69
1, 511680, Note_on_c, 7, 69, 70
1, 511680, Note_on_c, 7, 76, 73
1, 511680, Note_on_c, 8, 57, 100
1, 511680, Note_on_c, 8, 61, 100
1, 511680, Note_on_c, 13, 38, 100
1, 511680, Note_on_c, 13, 45, 100
1, 511806, Note_off_c, 1, 69, 0
1, 511900, Note_off_c, 7, 69, 0
1, 511922, Note_off_c, 7, 76, 0
1, 511932, Note_off_c, 7, 64, 0
1, 511962, Note_on_c, 10, 64, 67
1, 511962, Note_on_c, 10, 69, 67
1, 511962, Note_on_c, 10, 76, 72
1, 511972, Note_off_c, 8, 57, 0
1, 511972, Note_off_c, 8, 61, 0
1, 511972, Note_off_c, 13, 38, 0
1, 511972, Note_off_c, 13, 45, 0
1, 512152, Note_off_c, 0, 68, 64
1, 512152, Note_off_c, 0, 73, 64
1, 512152, Note_off_c, 2, 73, 64
1, 512152, Note_off_c, 2, 81, 64
1, 512152, Note_off_c, 3, 73, 64
1, 512152, Note_off_c, 3, 76, 64
1, 512152, Note_off_c, 4, 85, 0
1, 512160, Note_on_c, 6, 64, 68
1, 512160, Note_on_c, 6, 69, 66
1, 512160, Note_on_c, 6, 76, 70
1, 512160, Note_on_c, 8, 38, 100
1, 512160, Note_on_c, 8, 45, 100
1, 512160, Note_on_c, 13, 57, 100
1, 512160, Note_on_c, 13, 61, 100
1, 512208, Note_off_c, 10, 64, 0
1, 512212, Note_off_c, 10, 69, 0
1, 512228, Note_off_c, 10, 76, 0
1, 512356, Note_off_c, 6, 69, 0
1, 512380, Note_off_c, 6, 64, 0
1, 512386, Note_off_c, 1, 64, 0
1, 512398, Note_off_c, 6, 76, 0
1, 512452, Note_off_c, 8, 38, 0
1, 512452, Note_off_c, 8, 45, 0
1, 512452, Note_off_c, 13, 57, 0
1, 512452, Note_off_c, 13, 61, 0
1, 512632, Note_off_c, 5, 50, 0
1, 512632, Note_off_c, 5, 57, 0
1, 512632, Note_off_c, 14, 54, 0
1, 512632, Note_off_c, 14, 81, 0
1, 512640, Note_on_c, 0, 66, 100
1, 512640, Note_on_c, 0, 71, 100
1, 512640, Note_on_c, 1, 66, 68
1, 512640, Note_on_c, 2, 71, 100
1, 512640, Note_on_c, 2, 80, 100
1, 512640, Note_on_c, 3, 71, 100
1, 512640, Note_on_c, 3, 76, 100
1, 512640, Note_on_c, 4, 83, 100
1, 512640, Note_on_c, 5, 52, 100
1, 512640, Note_on_c, 5, 57, 100
1, 512640, Note_on_c, 7, 64, 69
1, 512640, Note_on_c, 7, 69, 75
1, 512640, Note_on_c, 7, 76, 73
1, 512640, Note_on_c, 8, 59, 100
1, 512640, Note_on_c, 8, 61, 100
1, 512640, Note_on_c, 13, 40, 100
1, 512640, Note_on_c, 13, 45, 100
1, 512640, Note_on_c, 14, 56, 100
1, 512640, Note_on_c, 14, 83, 100
1, 512854, Note_off_c, 7, 69, 0
1, 512870, Note_off_c, 7, 64, 0
1, 512884, Note_off_c, 7, 76, 0
1, 512922, Note_on_c, 10, 64, 67
1, 512922, Note_on_c, 10, 69, 63
1, 512922, Note_on_c, 10, 76, 72
1, 512932, Note_off_c, 8, 59, 0
1, 512932, Note_off_c, 8, 61, 0
1, 512932, Note_off_c, 13, 40, 0
1, 512932, Note_off_c, 13, 45, 0
1, 513112, Note_off_c, 0, 66, 64
1, 513112, Note_off_c, 0, 71, 64
1, 513112, Note_off_c, 2, 71, 64
1, 513112, Note_off_c, 2, 80, 64
1, 513112, Note_off_c, 3, 71, 64
1, 513112, Note_off_c, 3, 76, 64
1, 513112, Note_off_c, 4, 83, 0
1, 513120, Note_on_c, 0, 61, 100
1, 513120, Note_on_c, 0, 68, 100
1, 513120, Note_on_c, 1, 61, 68
1, 513120, Note_on_c, 2, 69, 100
1, 513120, Note_on_c, 2, 78, 100
1, 513120, Note_on_c, 3, 64, 100
1, 513120, Note_on_c, 3, 69, 100
1, 513120, Note_on_c, 4, 80, 100
1, 513120, Note_on_c, 6, 64, 68
1, 513120, Note_on_c, 6, 69, 63
1, 513120, Note_on_c, 6, 76, 72
1, 513120, Note_on_c, 8, 40, 100
1, 513120, Note_on_c, 8, 45, 100
1, 513120, Note_on_c, 13, 59, 100
1, 513120, Note_on_c, 13, 61, 100
1, 513156, Note_off_c, 1, 66, 0
1, 513170, Note_off_c, 10, 69, 0
1, 513198, Note_off_c, 10, 64, 0
1, 513214, Note_off_c, 10, 76, 0
1, 513330, Note_off_c, 6, 64, 0
1, 513364, Note_off_c, 6, 76, 0
1, 513382, Note_off_c, 6, 69, 0
1, 513412, Note_off_c, 8, 40, 0
1, 513412, Note_off_c, 8, 45, 0
1, 513412, Note_off_c, 13, 59, 0
1, 513412, Note_off_c, 13, 61, 0
1, 513592, Note_off_c, 0, 61, 64
1, 513592, Note_off_c, 0, 68, 64
1, 513592, Note_off_c, 2, 69, 64
1, 513592, Note_off_c, 2, 78, 64
1, 513592, Note_off_c, 3, 64, 64
1, 513592, Note_off_c, 3, 69, 64
1, 513592, Note_off_c, 4, 80, 0
1, 513600, Note_on_c, 7, 64, 68
1, 513600, Note_on_c, 7, 69, 74
1, 513600, Note_on_c, 7, 76, 74
1, 513600, Note_on_c, 8, 59, 100
1, 513600, Note_on_c, 8, 61, 100
1, 513600, Note_on_c, 13, 40, 100
1, 513600, Note_on_c, 13, 45, 100
1, 513824, Note_off_c, 7, 69, 0
1, 513864, Note_off_c, 7, 64, 0
1, 513874, Note_off_c, 7, 76, 0
1, 513882, Note_on_c, 10, 64, 68
1, 513882, Note_on_c, 10, 69, 66
1, 513882, Note_on_c, 10, 76, 70
1, 513890, Note_off_c, 1, 61, 0
1, 513892, Note_off_c, 8, 59, 0
1, 513892, Note_off_c, 8, 61, 0
1, 513892, Note_off_c, 13, 40, 0
1, 513892, Note_off_c, 13, 45, 0
1, 514078, Note_off_c, 10, 69, 0
1, 514080, Note_on_c, 0, 64, 100
1, 514080, Note_on_c, 0, 69, 100
1, 514080, Note_on_c, 1, 69, 77
1, 514080, Note_on_c, 2, 71, 100
1, 514080, Note_on_c, 2, 80, 100
1, 514080, Note_on_c, 3, 71, 100
1, 514080, Note_on_c, 3, 76, 100
1, 514080, Note_on_c, 4, 81, 100
1, 514080, Note_on_c, 6, 64, 70
1, 514080, Note_on_c, 6, 69, 69
1, 514080, Note_on_c, 6, 76, 72
1, 514080, Note_on_c, 8, 40, 100
1, 514080, Note_on_c, 8, 45, 100
1, 514080, Note_on_c, 13, 59, 100
1, 514080, Note_on_c, 13, 61, 100
1, 514102, Note_off_c, 10, 64, 0
1, 514120, Note_off_c, 10, 76, 0
1, 514314, Note_off_c, 6, 69, 0
1, 514342, Note_off_c, 6, 64, 0
1, 514342, Note_off_c, 6, 76, 0
1, 514372, Note_off_c, 8, 40, 0
1, 514372, Note_off_c, 8, 45, 0
1, 514372, Note_off_c, 13, 59, 0
1, 514372, Note_off_c, 13, 61, 0
1, 514552, Note_off_c, 0, 64, 64
1, 514552, Note_off_c, 0, 69, 64
1, 514552, Note_off_c, 2, 71, 64
1, 514552, Note_off_c, 2, 80, 64
1, 514552, Note_off_c, 3, 71, 64
1, 514552, Note_off_c, 3, 76, 64
1, 514552, Note_off_c, 4, 81, 0
1, 514560, Note_on_c, 7, 64, 68
1, 514560, Note_on_c, 7, 69, 73
1, 514560, Note_on_c, 7, 76, 73
1, 514560, Note_on_c, 8, 59, 100
1, 514560, Note_on_c, 8, 61, 100
1, 514560, Note_on_c, 13, 40, 100
1, 514560, Note_on_c, 13, 45, 100
1, 514704, Note_off_c, 1, 69, 0
1, 514784, Note_off_c, 7, 64, 0
1, 514808, Note_off_c, 7, 69, 0
1, 514808, Note_off_c, 7, 76, 0
1, 514842, Note_on_c, 10, 64, 68
1, 514842, Note_on_c, 10, 69, 63
1, 514842, Note_on_c, 10, 76, 72
1, 514852, Note_off_c, 8, 59, 0
1, 514852, Note_off_c, 8, 61, 0
1, 514852, Note_off_c, 13, 40, 0
1, 514852, Note_off_c, 13, 45, 0
1, 515040, Note_on_c, 0, 66, 100
1, 515040, Note_on_c, 0, 71, 100
1, 515040, Note_on_c, 1, 64, 70
1, 515040, Note_on_c, 2, 73, 100
1, 515040, Note_on_c, 2, 81, 100
1, 515040, Note_on_c, 3, 73, 100
1, 515040, Note_on_c, 3, 76, 100
1, 515040, Note_on_c, 4, 83, 100
1, 515040, Note_on_c, 6, 64, 68
1, 515040, Note_on_c, 6, 69, 70
1, 515040, Note_on_c, 6, 76, 70
1, 515040, Note_on_c, 8, 40, 100
1, 515040, Note_on_c, 8, 45, 100
1, 515040, Note_on_c, 13, 59, 100
1, 515040, Note_on_c, 13, 61, 100
1, 515052, Note_off_c, 10, 64, 0
1, 515086, Note_off_c, 10, 76, 0
1, 515104, Note_off_c, 10, 69, 0
1, 515248, Note_off_c, 6, 64, 0
1, 515276, Note_off_c, 6, 69, 0
1, 515280, Note_off_c, 6, 76, 0
1, 515332, Note_off_c, 8, 40, 0
1, 515332, Note_off_c, 8, 45, 0
1, 515332, Note_off_c, 13, 59, 0
1, 515332, Note_off_c, 13, 61, 0
1, 515512, Note_off_c, 0, 66, 64
1, 515512, Note_off_c, 0, 71, 64
1, 515512, Note_off_c, 2, 73, 64
1, 515512, Note_off_c, 2, 81, 64
1, 515512, Note_off_c, 3, 73, 64
1, 515512, Note_off_c, 3, 76, 64
1, 515512, Note_off_c, 4, 83, 0
1, 515512, Note_off_c, 5, 52, 0
1, 515512, Note_off_c, 5, 57, 0
1, 515512, Note_off_c, 14, 56, 0
1, 515512, Note_off_c, 14, 83, 0
1, 515520, Note_on_c, 0, 61, 100
1, 515520, Note_on_c, 0, 68, 100
1, 515520, Note_on_c, 1, 66, 77
1, 515520, Note_on_c, 2, 69, 100
1, 515520, Note_on_c, 2, 78, 100
1, 515520, Note_on_c, 3, 64, 100
1, 515520, Note_on_c, 3, 69, 100
1, 515520, Note_on_c, 4, 80, 100
1, 515520, Note_on_c, 5, 50, 100
1, 515520, Note_on_c, 5, 57, 100
1, 515520, Note_on_c, 7, 64, 66
1, 515520, Note_on_c, 7, 69, 74
1, 515520, Note_on_c, 7, 76, 73
1, 515520, Note_on_c, 8, 57, 100
1, 515520, Note_on_c, 8, 61, 100
1, 515520, Note_on_c, 13, 38, 100
1, 515520, Note_on_c, 13, 45, 100
1, 515520, Note_on_c, 14, 54, 100
1, 515520, Note_on_c, 14, 81, 100
1, 515672, Note_off_c, 1, 64, 0
1, 515754, Note_off_c, 7, 64, 0
1, 515774, Note_off_c, 7, 76, 0
1, 515802, Note_off_c, 7, 69, 0
1, 515802, Note_on_c, 10, 64, 70
1, 515802, Note_on_c, 10, 69, 69
1, 515802, Note_on_c, 10, 76, 72
1, 515812, Note_off_c, 8, 57, 0
1, 515812, Note_off_c, 8, 61, 0
1, 515812, Note_off_c, 13, 38, 0
1, 515812, Note_off_c, 13, 45, 0
1, 515992, Note_off_c, 0, 61, 64
1, 515992, Note_off_c, 0, 68, 64
1, 515992, Note_off_c, 2, 69, 64
1, 515992, Note_off_c, 2, 78, 64
1, 515992, Note_off_c, 3, 64, 64
1, 515992, Note_off_c, 3, 69, 64
1, 515992, Note_off_c, 4, 80, 0
1, 516000, Note_on_c, 6, 64, 67
1, 516000, Note_on_c, 6, 69, 73
1, 516000, Note_on_c, 6, 76, 74
1, 516000, Note_on_c, 8, 38, 100
1, 516000, Note_on_c, 8, 45, 100
1, 516000, Note_on_c, 13, 57, 100
1, 516000, Note_on_c, 13, 61, 100
1, 516036, Note_off_c, 10, 69, 0
1, 516064, Note_off_c, 10, 64, 0
1, 516064, Note_off_c, 10, 76, 0
1, 516164, Note_off_c, 1, 66, 0
1, 516216, Note_off_c, 6, 64, 0
1, 516236, Note_off_c, 6, 76, 0
1, 516246, Note_off_c, 6, 69, 0
1, 516292, Note_off_c, 8, 38, 0
1, 516292, Note_off_c, 8, 45, 0
1, 516292, Note_off_c, 13, 57, 0
1, 516292, Note_off_c, 13, 61, 0
1, 516480, Note_on_c, 0, 61, 100
1, 516480, Note_on_c, 0, 68, 100
1, 516480, Note_on_c, 1, 59, 65
1, 516480, Note_on_c, 2, 71, 100
1, 516480, Note_on_c, 2, 80, 100
1, 516480, Note_on_c, 3, 71, 100
1, 516480, Note_on_c, 3, 76, 100
1, 516480, Note_on_c, 4, 80, 100
1, 516480, Note_on_c, 7, 64, 66
1, 516480, Note_on_c, 7, 69, 77
1, 516480, Note_on_c, 7, 76, 70
1, 516480, Note_on_c, 8, 57, 100
1, 516480, Note_on_c, 8, 61, 100
1, 516480, Note_on_c, 13, 38, 100
1, 516480, Note_on_c, 13, 45, 100
1, 516708, Note_off_c, 7, 64, 0
1, 516762, Note_on_c, 10, 64, 68
1, 516762, Note_on_c, 10, 69, 70
1, 516762, Note_on_c, 10, 76, 70
1, 516766, Note_off_c, 7, 69, 0
1, 516772, Note_off_c, 8, 57, 0
1, 516772, Note_off_c, 8, 61, 0
1, 516772, Note_off_c, 13, 38, 0
1, 516772, Note_off_c, 13, 45, 0
1, 516790, Note_off_c, 7, 76, 0
1, 516952, Note_off_c, 0, 61, 64
1, 516952, Note_off_c, 0, 68, 64
1, 516952, Note_off_c, 2, 71, 64
1, 516952, Note_off_c, 2, 80, 64
1, 516952, Note_off_c, 3, 71, 64
1, 516952, Note_off_c, 3, 76, 64
1, 516952, Note_off_c, 4, 80, 0
1, 516960, Note_on_c, 0, 64, 100
1, 516960, Note_on_c, 0, 69, 100
1, 516960, Note_on_c, 1, 69, 74
1, 516960, Note_on_c, 2, 69, 100
1, 516960, Note_on_c, 2, 78, 100
1, 516960, Note_on_c, 3, 66, 100
1, 516960, Note_on_c, 3, 69, 100
1, 516960, Note_on_c, 4, 81, 100
1, 516960, Note_on_c, 6, 64, 68
1, 516960, Note_on_c, 6, 69, 74
1, 516960, Note_on_c, 6, 76, 75
1, 516960, Note_on_c, 8, 38, 100
1, 516960, Note_on_c, 8, 45, 100
1, 516960, Note_on_c, 13, 57, 100
1, 516960, Note_on_c, 13, 61, 100
1, 516970, Note_off_c, 10, 64, 0
1, 516998, Note_off_c, 10, 69, 0
1, 517002, Note_off_c, 10, 76, 0
1, 517054, Note_off_c, 1, 59, 0
1, 517232, Note_off_c, 6, 69, 0
1, 517236, Note_off_c, 6, 64, 0
1, 517250, Note_off_c, 6, 76, 0
1, 517252, Note_off_c, 8, 38, 0
1, 517252, Note_off_c, 8, 45, 0
1, 517252, Note_off_c, 13, 57, 0
1, 517252, Note_off_c, 13, 61, 0
1, 517432, Note_off_c, 0, 64, 64
1, 517432, Note_off_c, 0, 69, 64
1, 517432, Note_off_c, 2, 69, 64
1, 517432, Note_off_c, 2, 78, 64
1, 517432, Note_off_c, 3, 66, 64
1, 517432, Note_off_c, 3, 69, 64
1, 517432, Note_off_c, 4, 81, 0
1, 517432, Note_off_c, 5, 50, 0
1, 517432, Note_off_c, 5, 57, 0
1, 517432, Note_off_c, 14, 54, 0
1, 517432, Note_off_c, 14, 81, 0
1, 517440, Note_on_c, 0, 68, 100
1, 517440, Note_on_c, 0, 73, 100
1, 517440, Note_on_c, 1, 64, 68
1, 517440, Note_on_c, 2, 73, 100
1, 517440, Note_on_c, 2, 81, 100
1, 517440, Note_on_c, 3, 73, 100
1, 517440, Note_on_c, 3, 76, 100
1, 517440, Note_on_c, 4, 85, 100
1, 517440, Note_on_c, 5, 52, 100
1, 517440, Note_on_c, 5, 57, 100
1, 517440, Note_on_c, 7, 64, 65
1, 517440, Note_on_c, 7, 69, 72
1, 517440, Note_on_c, 7, 76, 72
1, 517440, Note_on_c, 8, 59, 100
1, 517440, Note_on_c, 8, 61, 100
1, 517440, Note_on_c, 13, 40, 100
1, 517440, Note_on_c, 13, 45, 100
1, 517440, Note_on_c, 14, 56, 100
1, 517440, Note_on_c, 14, 83, 100
1, 517652, Note_off_c, 1, 69, 0
1, 517716, Note_off_c, 7, 64, 0
1, 517722, Note_on_c, 10, 64, 67
1, 517722, Note_on_c, 10, 69, 73
1, 517722, Note_on_c, 10, 76, 74
1, 517730, Note_off_c, 7, 69, 0
1, 517732, Note_off_c, 7, 76, 0
1, 517732, Note_off_c, 8, 59, 0
1, 517732, Note_off_c, 8, 61, 0
1, 517732, Note_off_c, 13, 40, 0
1, 517732, Note_off_c, 13, 45, 0
1, 517912, Note_off_c, 0, 68, 64
1, 517912, Note_off_c, 0, 73, 64
1, 517912, Note_off_c, 2, 73, 64
1, 517912, Note_off_c, 2, 81, 64
1, 517912, Note_off_c, 3, 73, 64
1, 517912, Note_off_c, 3, 76, 64
1, 517912, Note_off_c, 4, 85, 0
1, 517920, Note_on_c, 6, 64, 73
1, 517920, Note_on_c, 6, 69, 80
1, 517920, Note_on_c, 6, 76, 77
1, 517920, Note_on_c, 8, 40, 100
1, 517920, Note_on_c, 8, 45, 100
1, 517920, Note_on_c, 13, 59, 100
1, 517920, Note_on_c, 13, 61, 100
1, 517938, Note_off_c, 10, 64, 0
1, 517958, Note_off_c, 10, 76, 0
1, 517968, Note_off_c, 10, 69, 0
1, 518054, Note_off_c, 1, 64, 0
1, 518182, Note_off_c, 6, 64, 0
1, 518198, Note_off_c, 6, 69, 0
1, 518208, Note_off_c, 6, 76, 0
1, 518212, Note_off_c, 8, 40, 0
1, 518212, Note_off_c, 8, 45, 0
1, 518212, Note_off_c, 13, 59, 0
1, 518212, Note_off_c, 13, 61, 0
1, 518400, Note_on_c, 1, 66, 77
1, 518400, Note_on_c, 3, 71, 100
1, 518400, Note_on_c, 3, 76, 100
1, 518400, Note_on_c, 7, 64, 67
1, 518400, Note_on_c, 7, 69, 75
1, 518400, Note_on_c, 7, 76, 70
1, 518400, Note_on_c, 8, 59, 100
1, 518400, Note_on_c, 8, 61, 100
1, 518400, Note_on_c, 13, 40, 100
1, 518400, Note_on_c, 13, 45, 100
1, 518630, Note_off_c, 7, 69, 0
1, 518648, Note_off_c, 7, 64, 0
1, 518658, Note_off_c, 7, 76, 0
1, 518682, Note_on_c, 10, 64, 68
1, 518682, Note_on_c, 10, 69, 74
1, 518682, Note_on_c, 10, 76, 75
1, 518692, Note_off_c, 8, 59, 0
1, 518692, Note_off_c, 8, 61, 0
1, 518692, Note_off_c, 13, 40, 0
1, 518692, Note_off_c, 13, 45, 0
1, 518872, Note_off_c, 3, 71, 64
1, 518872, Note_off_c, 3, 76, 64
1, 518880, Note_on_c, 1, 61, 70
1, 518880, Note_on_c, 3, 64, 100
1, 518880, Note_on_c, 3, 69, 100
1, 518880, Note_on_c, 6, 64, 68
1, 518880, Note_on_c, 6, 69, 70
1, 518880, Note_on_c, 6, 76, 74
1, 518880, Note_on_c, 8, 40, 100
1, 518880, Note_on_c, 8, 45, 100
1, 518880, Note_on_c, 13, 59, 100
1, 518880, Note_on_c, 13, 61, 100
1, 518954, Note_off_c, 10, 69, 0
1, 518958, Note_off_c, 10, 64, 0
1, 518972, Note_off_c, 10, 76, 0
1, 519042, Note_off_c, 1, 66, 0
1, 519166, Note_off_c, 6, 64, 0
1, 519172, Note_off_c, 8, 40, 0
1, 519172, Note_off_c, 8, 45, 0
1, 519172, Note_off_c, 13, 59, 0
1, 519172, Note_off_c, 13, 61, 0
1, 519178, Note_off_c, 6, 69, 0
1, 519178, Note_off_c, 6, 76, 0
1, 519352, Note_off_c, 3, 64, 64
1, 519352, Note_off_c, 3, 69, 64
1, 519352, Note_off_c, 5, 52, 0
1, 519352, Note_off_c, 5, 57, 0
1, 519360, Note_on_c, 7, 64, 66
1, 519360, Note_on_c, 7, 69, 68
1, 519360, Note_on_c, 7, 76, 72
1, 519360, Note_on_c, 8, 59, 100
1, 519360, Note_on_c, 8, 61, 100
1, 519360, Note_on_c, 13, 40, 100
1, 519360, Note_on_c, 13, 45, 100
1, 519508, Note_off_c, 1, 61, 0
1, 519620, Note_off_c, 7, 69, 0
1, 519630, Note_off_c, 7, 64, 0
1, 519634, Note_off_c, 7, 76, 0
1, 519642, Note_on_c, 10, 64, 73
1, 519642, Note_on_c, 10, 69, 80
1, 519642, Note_on_c, 10, 76, 77
1, 519652, Note_off_c, 8, 59, 0
1, 519652, Note_off_c, 8, 61, 0
1, 519652, Note_off_c, 13, 40, 0
1, 519652, Note_off_c, 13, 45, 0
1, 519840, Note_on_c, 1, 69, 77
1, 519840, Note_on_c, 3, 71, 100
1, 519840, Note_on_c, 3, 76, 100
1, 519840, Note_on_c, 6, 64, 70
1, 519840, Note_on_c, 6, 69, 74
1, 519840, Note_on_c, 6, 76, 74
1, 519840, Note_on_c, 8, 40, 100
1, 519840, Note_on_c, 8, 45, 100
1, 519840, Note_on_c, 13, 59, 100
1, 519840, Note_on_c, 13, 61, 100
1, 519904, Note_off_c, 10, 64, 0
1, 519920, Note_off_c, 10, 69, 0
1, 519930, Note_off_c, 10, 76, 0
1, 520044, Note_off_c, 6, 64, 0
1, 520074, Note_off_c, 6, 76, 0
1, 520112, Note_off_c, 6, 69, 0
1, 520132, Note_off_c, 8, 40, 0
1, 520132, Note_off_c, 8, 45, 0
1, 520132, Note_off_c, 13, 59, 0
1, 520132, Note_off_c, 13, 61, 0
1, 520312, Note_off_c, 3, 71, 64
1, 520312, Note_off_c, 3, 76, 64
1, 520320, Note_on_c, 7, 64, 62
1, 520320, Note_on_c, 7, 69, 60
1, 520320, Note_on_c, 7, 76, 70
1, 520320, Note_on_c, 8, 59, 100
1, 520320, Note_on_c, 8, 61, 100
1, 520320, Note_on_c, 13, 40, 100
1, 520320, Note_on_c, 13, 45, 100
1, 520488, Note_off_c, 1, 69, 0
1, 520580, Note_off_c, 7, 69, 0
1, 520598, Note_off_c, 7, 64, 0
1, 520602, Note_on_c, 10, 64, 68
1, 520602, Note_on_c, 10, 69, 70
1, 520602, Note_on_c, 10, 76, 74
1, 520612, Note_off_c, 8, 59, 0
1, 520612, Note_off_c, 8, 61, 0
1, 520612, Note_off_c, 13, 40, 0
1, 520612, Note_off_c, 13, 45, 0
1, 520658, Note_off_c, 7, 76, 0
1, 520800, Note_on_c, 1, 64, 68
1, 520800, Note_on_c, 3, 73, 100
1, 520800, Note_on_c, 3, 76, 100
1, 520800, Note_on_c, 6, 64, 68
1, 520800, Note_on_c, 6, 69, 68
1, 520800, Note_on_c, 6, 76, 72
1, 520800, Note_on_c, 8, 40, 100
1, 520800, Note_on_c, 8, 45, 100
1, 520800, Note_on_c, 13, 59, 100
1, 520800, Note_on_c, 13, 61, 100
1, 520888, Note_off_c, 10, 64, 0
1, 520900, Note_off_c, 10, 69, 0
1, 520900, Note_off_c, 10, 76, 0
1, 521006, Note_off_c, 6, 69, 0
1, 521014, Note_off_c, 6, 64, 0
1, 521024, Note_off_c, 6, 76, 0
1, 521092, Note_off_c, 8, 40, 0
1, 521092, Note_off_c, 8, 45, 0
1, 521092, Note_off_c, 13, 59, 0
1, 521092, Note_off_c, 13, 61, 0
1, 521244, Note_off_c, 1, 64, 0
1, 521272, Note_off_c, 3, 73, 64
1, 521272, Note_off_c, 3, 76, 64
1, 521272, Note_off_c, 14, 56, 0
1, 521272, Note_off_c, 14, 83, 0
1, 521280, Note_on_c, 0, 59, 100
1, 521280, Note_on_c, 0, 66, 100
1, 521280, Note_on_c, 1, 66, 78
1, 521280, Note_on_c, 2, 69, 100
1, 521280, Note_on_c, 2, 78, 100
1, 521280, Note_on_c, 3, 64, 100
1, 521280, Note_on_c, 3, 69, 100
1, 521280, Note_on_c, 4, 78, 100
1, 521280, Note_on_c, 5, 57, 100
1, 521280, Note_on_c, 7, 64, 56
1, 521280, Note_on_c, 7, 69, 69
1, 521280, Note_on_c, 7, 76, 73
1, 521280, Note_on_c, 8, 57, 100
1, 521280, Note_on_c, 8, 61, 100
1, 521280, Note_on_c, 13, 30, 100
1, 521280, Note_on_c, 13, 42, 100
1, 521280, Note_on_c, 14, 57, 100
1, 521280, Note_on_c, 14, 78, 100
1, 521546, Note_off_c, 7, 64, 0
1, 521562, Note_on_c, 10, 64, 70
1, 521562, Note_on_c, 10, 69, 74
1, 521562, Note_on_c, 10, 76, 74
1, 521572, Note_off_c, 8, 57, 0
1, 521572, Note_off_c, 8, 61, 0
1, 521572, Note_off_c, 13, 30, 0
1, 521572, Note_off_c, 13, 42, 0
1, 521574, Note_off_c, 7, 69, 0
1, 521582, Note_off_c, 7, 76, 0
1, 521752, Note_off_c, 0, 59, 64
1, 521752, Note_off_c, 0, 66, 64
1, 521752, Note_off_c, 2, 69, 64
1, 521752, Note_off_c, 2, 78, 64
1, 521752, Note_off_c, 3, 64, 64
1, 521752, Note_off_c, 3, 69, 64
1, 521752, Note_off_c, 4, 78, 0
1, 521752, Note_off_c, 5, 57, 0
1, 521760, Note_on_c, 6, 64, 70
1, 521760, Note_on_c, 6, 69, 70
1, 521760, Note_on_c, 6, 76, 75
1, 521760, Note_on_c, 8, 30, 100
1, 521760, Note_on_c, 8, 42, 100
1, 521760, Note_on_c, 13, 57, 100
1, 521760, Note_on_c, 13, 61, 100
1, 521766, Note_off_c, 10, 64, 0
1, 521796, Note_off_c, 10, 76, 0
1, 521834, Note_off_c, 10, 69, 0
1, 521948, Note_off_c, 1, 66, 0
1, 521988, Note_off_c, 6, 69, 0
1, 522030, Note_off_c, 6, 64, 0
1, 522052, Note_off_c, 8, 30, 0
1, 522052, Note_off_c, 8, 42, 0
1, 522052, Note_off_c, 13, 57, 0
1, 522052, Note_off_c, 13, 61, 0
1, 522068, Note_off_c, 6, 76, 0
1, 522240, Note_on_c, 0, 59, 100
1, 522240, Note_on_c, 0, 68, 100
1, 522240, Note_on_c, 1, 59, 74
1, 522240, Note_on_c, 2, 71, 100
1, 522240, Note_on_c, 2, 80, 100
1, 522240, Note_on_c, 3, 71, 100
1, 522240, Note_on_c, 3, 76, 100
1, 522240, Note_on_c, 4, 80, 100
1, 522240, Note_on_c, 5, 71, 100
1, 522240, Note_on_c, 7, 64, 66
1, 522240, Note_on_c, 7, 69, 70
1, 522240, Note_on_c, 7, 76, 75
1, 522240, Note_on_c, 8, 57, 100
1, 522240, Note_on_c, 8, 61, 100
1, 522240, Note_on_c, 13, 30, 100
1, 522240, Note_on_c, 13, 42, 100
1, 522490, Note_off_c, 7, 69, 0
1, 522504, Note_off_c, 7, 64, 0
1, 522522, Note_on_c, 10, 64, 68
1, 522522, Note_on_c, 10, 69, 68
1, 522522, Note_on_c, 10, 76, 72
1, 522530, Note_off_c, 7, 76, 0
1, 522532, Note_off_c, 8, 57, 0
1, 522532, Note_off_c, 8, 61, 0
1, 522532, Note_off_c, 13, 30, 0
1, 522532, Note_off_c, 13, 42, 0
1, 522712, Note_off_c, 0, 59, 64
1, 522712, Note_off_c, 0, 68, 64
1, 522712, Note_off_c, 2, 71, 64
1, 522712, Note_off_c, 2, 80, 64
1, 522712, Note_off_c, 3, 71, 64
1, 522712, Note_off_c, 3, 76, 64
1, 522712, Note_off_c, 4, 80, 0
1, 522712, Note_off_c, 5, 71, 0
1, 522720, Note_on_c, 0, 57, 100
1, 522720, Note_on_c, 0, 66, 100
1, 522720, Note_on_c, 1, 69, 75
1, 522720, Note_on_c, 2, 69, 100
1, 522720, Note_on_c, 2, 78, 100
1, 522720, Note_on_c, 3, 66, 100
1, 522720, Note_on_c, 3, 69, 100
1, 522720, Note_on_c, 4, 78, 100
1, 522720, Note_on_c, 5, 69, 100
1, 522720, Note_on_c, 6, 64, 69
1, 522720, Note_on_c, 6, 69, 69
1, 522720, Note_on_c, 6, 76, 73
1, 522720, Note_on_c, 8, 30, 100
1, 522720, Note_on_c, 8, 42, 100
1, 522720, Note_on_c, 13, 57, 100
1, 522720, Note_on_c, 13, 61, 100
1, 522728, Note_off_c, 1, 59, 0
1, 522728, Note_off_c, 10, 69, 0
1, 522736, Note_off_c, 10, 64, 0
1, 522746, Note_off_c, 10, 76, 0
1, 522986, Note_off_c, 6, 64, 0
1, 523012, Note_off_c, 8, 30, 0
1, 523012, Note_off_c, 8, 42, 0
1, 523012, Note_off_c, 13, 57, 0
1, 523012, Note_off_c, 13, 61, 0
1, 523024, Note_off_c, 6, 69, 0
1, 523024, Note_off_c, 6, 76, 0
1, 523192, Note_off_c, 0, 57, 64
1, 523192, Note_off_c, 0, 66, 64
1, 523192, Note_off_c, 2, 69, 64
1, 523192, Note_off_c, 2, 78, 64
1, 523192, Note_off_c, 3, 66, 64
1, 523192, Note_off_c, 3, 69, 64
1, 523192, Note_off_c, 4, 78, 0
1, 523192, Note_off_c, 5, 69, 0
1, 523200, Note_on_c, 0, 61, 100
1, 523200, Note_on_c, 0, 69, 100
1, 523200, Note_on_c, 1, 64, 73
1, 523200, Note_on_c, 2, 73, 100
1, 523200, Note_on_c, 2, 81, 100
1, 523200, Note_on_c, 3, 73, 100
1, 523200, Note_on_c, 3, 76, 100
1, 523200, Note_on_c, 4, 81, 100
1, 523200, Note_on_c, 5, 73, 100
1, 523200, Note_on_c, 7, 64, 66
1, 523200, Note_on_c, 7, 69, 70
1, 523200, Note_on_c, 7, 76, 75
1, 523200, Note_on_c, 8, 57, 100
1, 523200, Note_on_c, 8, 61, 100
1, 523200, Note_on_c, 13, 30, 100
1, 523200, Note_on_c, 13, 42, 100
1, 523326, Note_off_c, 1, 69, 0
1, 523450, Note_off_c, 7, 69, 0
1, 523464, Note_off_c, 7, 64, 0
1, 523482, Note_on_c, 10, 64, 70
1, 523482, Note_on_c, 10, 69, 70
1, 523482, Note_on_c, 10, 76, 75
1, 523490, Note_off_c, 7, 76, 0
1, 523492, Note_off_c, 8, 57, 0
1, 523492, Note_off_c, 8, 61, 0
1, 523492, Note_off_c, 13, 30, 0
1, 523492, Note_off_c, 13, 42, 0
1, 523672, Note_off_c, 0, 61, 64
1, 523672, Note_off_c, 0, 69, 64
1, 523672, Note_off_c, 2, 73, 64
1, 523672, Note_off_c, 2, 81, 64
1, 523672, Note_off_c, 3, 73, 64
1, 523672, Note_off_c, 3, 76, 64
1, 523672, Note_off_c, 4, 81, 0
1, 523672, Note_off_c, 5, 73, 0
1, 523680, Note_on_c, 6, 64, 67
1, 523680, Note_on_c, 6, 69, 63
1, 523680, Note_on_c, 6, 76, 74
1, 523680, Note_on_c, 8, 30, 100
1, 523680, Note_on_c, 8, 42, 100
1, 523680, Note_on_c, 13, 57, 100
1, 523680, Note_on_c, 13, 61, 100
1, 523710, Note_off_c, 10, 69, 0
1, 523752, Note_off_c, 10, 64, 0
1, 523790, Note_off_c, 10, 76, 0
1, 523884, Note_off_c, 6, 69, 0
1, 523906, Note_off_c, 1, 64, 0
1, 523946, Note_off_c, 6, 64, 0
1, 523946, Note_off_c, 6, 76, 0
1, 523972, Note_off_c, 8, 30, 0
1, 523972, Note_off_c, 8, 42, 0
1, 523972, Note_off_c, 13, 57, 0
1, 523972, Note_off_c, 13, 61, 0
1, 524160, Note_on_c, 0, 59, 100
1, 524160, Note_on_c, 0, 68, 100
1, 524160, Note_on_c, 1, 66, 68
1, 524160, Note_on_c, 2, 71, 100
1, 524160, Note_on_c, 2, 80, 100
1, 524160, Note_on_c, 3, 71, 100
1, 524160, Note_on_c, 3, 76, 100
1, 524160, Note_on_c, 4, 80, 100
1, 524160, Note_on_c, 5, 71, 100
1, 524160, Note_on_c, 7, 64, 72
1, 524160, Note_on_c, 7, 69, 80
1, 524160, Note_on_c, 7, 76, 77
1, 524160, Note_on_c, 8, 56, 100
1, 524160, Note_on_c, 8, 61, 100
1, 524160, Note_on_c, 13, 37, 100
1, 524160, Note_on_c, 13, 49, 100
1, 524400, Note_off_c, 7, 76, 0
1, 524410, Note_off_c, 7, 64, 0
1, 524410, Note_off_c, 7, 69, 0
1, 524442, Note_on_c, 10, 64, 69
1, 524442, Note_on_c, 10, 69, 69
1, 524442, Note_on_c, 10, 76, 73
1, 524452, Note_off_c, 8, 56, 0
1, 524452, Note_off_c, 8, 61, 0
1, 524452, Note_off_c, 13, 37, 0
1, 524452, Note_off_c, 13, 49, 0
1, 524632, Note_off_c, 0, 59, 64
1, 524632, Note_off_c, 0, 68, 64
1, 524632, Note_off_c, 2, 71, 64
1, 524632, Note_off_c, 2, 80, 64
1, 524632, Note_off_c, 3, 71, 64
1, 524632, Note_off_c, 3, 76, 64
1, 524632, Note_off_c, 4, 80, 0
1, 524632, Note_off_c, 5, 71, 0
1, 524640, Note_on_c, 0, 57, 100
1, 524640, Note_on_c, 0, 66, 100
1, 524640, Note_on_c, 1, 61, 68
1, 524640, Note_on_c, 2, 69, 100
1, 524640, Note_on_c, 2, 78, 100
1, 524640, Note_on_c, 3, 64, 100
1, 524640, Note_on_c, 3, 69, 100
1, 524640, Note_on_c, 4, 78, 100
1, 524640, Note_on_c, 5, 69, 100
1, 524640, Note_on_c, 6, 64, 66
1, 524640, Note_on_c, 6, 69, 63
1, 524640, Note_on_c, 6, 76, 74
1, 524640, Note_on_c, 8, 37, 100
1, 524640, Note_on_c, 8, 49, 100
1, 524640, Note_on_c, 13, 56, 100
1, 524640, Note_on_c, 13, 61, 100
1, 524676, Note_off_c, 1, 66, 0
1, 524708, Note_off_c, 10, 64, 0
1, 524746, Note_off_c, 10, 69, 0
1, 524746, Note_off_c, 10, 76, 0
1, 524870, Note_off_c, 6, 69, 0
1, 524876, Note_off_c, 6, 64, 0
1, 524914, Note_off_c, 6, 76, 0
1, 524932, Note_off_c, 8, 37, 0
1, 524932, Note_off_c, 8, 49, 0
1, 524932, Note_off_c, 13, 56, 0
1, 524932, Note_off_c, 13, 61, 0
1, 525112, Note_off_c, 0, 57, 64
1, 525112, Note_off_c, 0, 66, 64
1, 525112, Note_off_c, 2, 69, 64
1, 525112, Note_off_c, 2, 78, 64
1, 525112, Note_off_c, 3, 64, 64
1, 525112, Note_off_c, 3, 69, 64
1, 525112, Note_off_c, 4, 78, 0
1, 525112, Note_off_c, 5, 69, 0
1, 525120, Note_on_c, 7, 64, 70
1, 525120, Note_on_c, 7, 69, 77
1, 525120, Note_on_c, 7, 76, 77
1, 525120, Note_on_c, 8, 56, 100
1, 525120, Note_on_c, 8, 61, 100
1, 525120, Note_on_c, 13, 37, 100
1, 525120, Note_on_c, 13, 49, 100
1, 525374, Note_off_c, 7, 64, 0
1, 525402, Note_off_c, 7, 69, 0
1, 525402, Note_on_c, 10, 64, 67
1, 525402, Note_on_c, 10, 69, 63
1, 525402, Note_on_c, 10, 76, 74
1, 525410, Note_off_c, 1, 61, 0
1, 525410, Note_off_c, 7, 76, 0
1, 525412, Note_off_c, 8, 56, 0
1, 525412, Note_off_c, 8, 61, 0
1, 525412, Note_off_c, 13, 37, 0
1, 525412, Note_off_c, 13, 49, 0
1, 525600, Note_on_c, 0, 59, 100
1, 525600, Note_on_c, 0, 68, 100
1, 525600, Note_on_c, 1, 69, 77
1, 525600, Note_on_c, 2, 71, 100
1, 525600, Note_on_c, 2, 80, 100
1, 525600, Note_on_c, 3, 71, 100
1, 525600, Note_on_c, 3, 76, 100
1, 525600, Note_on_c, 4, 80, 100
1, 525600, Note_on_c, 5, 71, 100
1, 525600, Note_on_c, 6, 64, 68
1, 525600, Note_on_c, 6, 69, 74
1, 525600, Note_on_c, 6, 76, 74
1, 525600, Note_on_c, 8, 37, 100
1, 525600, Note_on_c, 8, 49, 100
1, 525600, Note_on_c, 13, 56, 100
1, 525600, Note_on_c, 13, 61, 100
1, 525606, Note_off_c, 10, 69, 0
1, 525668, Note_off_c, 10, 64, 0
1, 525668, Note_off_c, 10, 76, 0
1, 525860, Note_off_c, 6, 69, 0
1, 525890, Note_off_c, 6, 76, 0
1, 525892, Note_off_c, 8, 37, 0
1, 525892, Note_off_c, 8, 49, 0
1, 525892, Note_off_c, 13, 56, 0
1, 525892, Note_off_c, 13, 61, 0
1, 525894, Note_off_c, 6, 64, 0
1, 526072, Note_off_c, 0, 59, 64
1, 526072, Note_off_c, 0, 68, 64
1, 526072, Note_off_c, 2, 71, 64
1, 526072, Note_off_c, 2, 80, 64
1, 526072, Note_off_c, 3, 71, 64
1, 526072, Note_off_c, 3, 76, 64
1, 526072, Note_off_c, 4, 80, 0
1, 526072, Note_off_c, 5, 71, 0
1, 526080, Note_on_c, 7, 64, 70
1, 526080, Note_on_c, 7, 69, 73
1, 526080, Note_on_c, 7, 76, 74
1, 526080, Note_on_c, 8, 56, 100
1, 526080, Note_on_c, 8, 61, 100
1, 526080, Note_on_c, 13, 37, 100
1, 526080, Note_on_c, 13, 49, 100
1, 526224, Note_off_c, 1, 69, 0
1, 526320, Note_off_c, 7, 64, 0
1, 526326, Note_off_c, 7, 69, 0
1, 526340, Note_off_c, 7, 76, 0
1, 526362, Note_on_c, 10, 64, 66
1, 526362, Note_on_c, 10, 69, 63
1, 526362, Note_on_c, 10, 76, 74
1, 526372, Note_off_c, 8, 56, 0
1, 526372, Note_off_c, 8, 61, 0
1, 526372, Note_off_c, 13, 37, 0
1, 526372, Note_off_c, 13, 49, 0
1, 526560, Note_on_c, 0, 61, 100
1, 526560, Note_on_c, 0, 69, 100
1, 526560, Note_on_c, 1, 64, 70
1, 526560, Note_on_c, 2, 73, 100
1, 526560, Note_on_c, 2, 81, 100
1, 526560, Note_on_c, 3, 73, 100
1, 526560, Note_on_c, 3, 76, 100
1, 526560, Note_on_c, 4, 81, 100
1, 526560, Note_on_c, 5, 73, 100
1, 526560, Note_on_c, 6, 64, 73
1, 526560, Note_on_c, 6, 69, 82
1, 526560, Note_on_c, 6, 76, 77
1, 526560, Note_on_c, 8, 37, 100
1, 526560, Note_on_c, 8, 49, 100
1, 526560, Note_on_c, 13, 56, 100
1, 526560, Note_on_c, 13, 61, 100
1, 526592, Note_off_c, 10, 69, 0
1, 526598, Note_off_c, 10, 64, 0
1, 526636, Note_off_c, 10, 76, 0
1, 526838, Note_off_c, 6, 69, 0
1, 526850, Note_off_c, 6, 64, 0
1, 526852, Note_off_c, 8, 37, 0
1, 526852, Note_off_c, 8, 49, 0
1, 526852, Note_off_c, 13, 56, 0
1, 526852, Note_off_c, 13, 61, 0
1, 526858, Note_off_c, 6, 76, 0
1, 527032, Note_off_c, 0, 61, 64
1, 527032, Note_off_c, 0, 69, 64
1, 527032, Note_off_c, 2, 73, 64
1, 527032, Note_off_c, 2, 81, 64
1, 527032, Note_off_c, 3, 73, 64
1, 527032, Note_off_c, 3, 76, 64
1, 527032, Note_off_c, 4, 81, 0
1, 527032, Note_off_c, 5, 73, 0
1, 527040, Note_on_c, 0, 57, 100
1, 527040, Note_on_c, 0, 66, 100
1, 527040, Note_on_c, 1, 66, 77
1, 527040, Note_on_c, 2, 69, 100
1, 527040, Note_on_c, 2, 78, 100
1, 527040, Note_on_c, 3, 64, 100
1, 527040, Note_on_c, 3, 69, 100
1, 527040, Note_on_c, 4, 78, 100
1, 527040, Note_on_c, 5, 69, 100
1, 527040, Note_on_c, 7, 64, 72
1, 527040, Note_on_c, 7, 69, 77
1, 527040, Note_on_c, 7, 76, 75
1, 527040, Note_on_c, 8, 57, 100
1, 527040, Note_on_c, 8, 61, 100
1, 527040, Note_on_c, 13, 30, 100
1, 527040, Note_on_c, 13, 42, 100
1, 527192, Note_off_c, 1, 64, 0
1, 527248, Note_off_c, 7, 69, 0
1, 527262, Note_off_c, 7, 64, 0
1, 527282, Note_off_c, 7, 76, 0
1, 527322, Note_on_c, 10, 64, 68
1, 527322, Note_on_c, 10, 69, 74
1, 527322, Note_on_c, 10, 76, 74
1, 527332, Note_off_c, 8, 57, 0
1, 527332, Note_off_c, 8, 61, 0
1, 527332, Note_off_c, 13, 30, 0
1, 527332, Note_off_c, 13, 42, 0
1, 527512, Note_off_c, 0, 57, 64
1, 527512, Note_off_c, 0, 66, 64
1, 527512, Note_off_c, 2, 69, 64
1, 527512, Note_off_c, 2, 78, 64
1, 527512, Note_off_c, 3, 64, 64
1, 527512, Note_off_c, 3, 69, 64
1, 527512, Note_off_c, 4, 78, 0
1, 527512, Note_off_c, 5, 69, 0
1, 527520, Note_on_c, 6, 64, 72
1, 527520, Note_on_c, 6, 69, 75
1, 527520, Note_on_c, 6, 76, 73
1, 527520, Note_on_c, 8, 30, 100
1, 527520, Note_on_c, 8, 42, 100
1, 527520, Note_on_c, 13, 57, 100
1, 527520, Note_on_c, 13, 61, 100
1, 527582, Note_off_c, 10, 69, 0
1, 527612, Note_off_c, 10, 76, 0
1, 527616, Note_off_c, 10, 64, 0
1, 527684, Note_off_c, 1, 66, 0
1, 527808, Note_off_c, 6, 76, 0
1, 527810, Note_off_c, 6, 69, 0
1, 527812, Note_off_c, 8, 30, 0
1, 527812, Note_off_c, 8, 42, 0
1, 527812, Note_off_c, 13, 57, 0
1, 527812, Note_off_c, 13, 61, 0
1, 527818, Note_off_c, 6, 64, 0
1, 528000, Note_on_c, 0, 59, 100
1, 528000, Note_on_c, 0, 68, 100
1, 528000, Note_on_c, 1, 59, 65
1, 528000, Note_on_c, 2, 71, 100
1, 528000, Note_on_c, 2, 80, 100
1, 528000, Note_on_c, 3, 71, 100
1, 528000, Note_on_c, 3, 76, 100
1, 528000, Note_on_c, 4, 80, 100
1, 528000, Note_on_c, 5, 71, 100
1, 528000, Note_on_c, 7, 64, 70
1, 528000, Note_on_c, 7, 69, 78
1, 528000, Note_on_c, 7, 76, 77
1, 528000, Note_on_c, 8, 57, 100
1, 528000, Note_on_c, 8, 61, 100
1, 528000, Note_on_c, 13, 30, 100
1, 528000, Note_on_c, 13, 42, 100
1, 528242, Note_off_c, 7, 64, 0
1, 528264, Note_off_c, 7, 76, 0
1, 528282, Note_on_c, 10, 64, 73
1, 528282, Note_on_c, 10, 69, 82
1, 528282, Note_on_c, 10, 76, 77
1, 528288, Note_off_c, 7, 69, 0
1, 528292, Note_off_c, 8, 57, 0
1, 528292, Note_off_c, 8, 61, 0
1, 528292, Note_off_c, 13, 30, 0
1, 528292, Note_off_c, 13, 42, 0
1, 528472, Note_off_c, 0, 59, 64
1, 528472, Note_off_c, 0, 68, 64
1, 528472, Note_off_c, 2, 71, 64
1, 528472, Note_off_c, 2, 80, 64
1, 528472, Note_off_c, 3, 71, 64
1, 528472, Note_off_c, 3, 76, 64
1, 528472, Note_off_c, 4, 80, 0
1, 528472, Note_off_c, 5, 71, 0
1, 528480, Note_on_c, 0, 57, 100
1, 528480, Note_on_c, 0, 66, 100
1, 528480, Note_on_c, 1, 69, 74
1, 528480, Note_on_c, 2, 69, 100
1, 528480, Note_on_c, 2, 78, 100
1, 528480, Note_on_c, 3, 66, 100
1, 528480, Note_on_c, 3, 69, 100
1, 528480, Note_on_c, 4, 78, 100
1, 528480, Note_on_c, 5, 69, 100
1, 528480, Note_on_c, 6, 64, 69
1, 528480, Note_on_c, 6, 69, 70
1, 528480, Note_on_c, 6, 76, 72
1, 528480, Note_on_c, 8, 30, 100
1, 528480, Note_on_c, 8, 42, 100
1, 528480, Note_on_c, 13, 57, 100
1, 528480, Note_on_c, 13, 61, 100
1, 528560, Note_off_c, 10, 69, 0
1, 528572, Note_off_c, 10, 64, 0
1, 528574, Note_off_c, 1, 59, 0
1, 528580, Note_off_c, 10, 76, 0
1, 528744, Note_off_c, 6, 69, 0
1, 528768, Note_off_c, 6, 64, 0
1, 528772, Note_off_c, 8, 30, 0
1, 528772, Note_off_c, 8, 42, 0
1, 528772, Note_off_c, 13, 57, 0
1, 528772, Note_off_c, 13, 61, 0
1, 528784, Note_off_c, 6, 76, 0
1, 528952, Note_off_c, 0, 57, 64
1, 528952, Note_off_c, 0, 66, 64
1, 528952, Note_off_c, 2, 69, 64
1, 528952, Note_off_c, 2, 78, 64
1, 528952, Note_off_c, 3, 66, 64
1, 528952, Note_off_c, 3, 69, 64
1, 528952, Note_off_c, 4, 78, 0
1, 528952, Note_off_c, 5, 69, 0
1, 528960, Note_on_c, 0, 61, 100
1, 528960, Note_on_c, 0, 69, 100
1, 528960, Note_on_c, 1, 64, 68
1, 528960, Note_on_c, 2, 73, 100
1, 528960, Note_on_c, 2, 81, 100
1, 528960, Note_on_c, 3, 73, 100
1, 528960, Note_on_c, 3, 76, 100
1, 528960, Note_on_c, 4, 81, 100
1, 528960, Note_on_c, 5, 73, 100
1, 528960, Note_on_c, 7, 64, 70
1, 528960, Note_on_c, 7, 69, 72
1, 528960, Note_on_c, 7, 76, 77
1, 528960, Note_on_c, 8, 57, 100
1, 528960, Note_on_c, 8, 61, 100
1, 528960, Note_on_c, 13, 30, 100
1, 528960, Note_on_c, 13, 42, 100
1, 529172, Note_off_c, 1, 69, 0
1, 529214, Note_off_c, 7, 64, 0
1, 529226, Note_off_c, 7, 69, 0
1, 529242, Note_on_c, 10, 64, 72
1, 529242, Note_on_c, 10, 69, 75
1, 529242, Note_on_c, 10, 76, 73
1, 529252, Note_off_c, 8, 57, 0
1, 529252, Note_off_c, 8, 61, 0
1, 529252, Note_off_c, 13, 30, 0
1, 529252, Note_off_c, 13, 42, 0
1, 529282, Note_off_c, 7, 76, 0
1, 529432, Note_off_c, 0, 61, 64
1, 529432, Note_off_c, 0, 69, 64
1, 529432, Note_off_c, 2, 73, 64
1, 529432, Note_off_c, 2, 81, 64
1, 529432, Note_off_c, 3, 73, 64
1, 529432, Note_off_c, 3, 76, 64
1, 529432, Note_off_c, 4, 81, 0
1, 529432, Note_off_c, 5, 73, 0
1, 529432, Note_off_c, 14, 57, 0
1, 529432, Note_off_c, 14, 78, 0
1, 529440, Note_on_c, 6, 64, 68
1, 529440, Note_on_c, 6, 69, 77
1, 529440, Note_on_c, 6, 76, 73
1, 529440, Note_on_c, 8, 30, 100
1, 529440, Note_on_c, 8, 42, 100
1, 529440, Note_on_c, 13, 57, 100
1, 529440, Note_on_c, 13, 61, 100
1, 529530, Note_off_c, 10, 76, 0
1, 529532, Note_off_c, 10, 69, 0
1, 529540, Note_off_c, 10, 64, 0
1, 529574, Note_off_c, 1, 64, 0
1, 529706, Note_off_c, 6, 64, 0
1, 529724, Note_off_c, 6, 69, 0
1, 529724, Note_off_c, 6, 76, 0
1, 529732, Note_off_c, 8, 30, 0
1, 529732, Note_off_c, 8, 42, 0
1, 529732, Note_off_c, 13, 57, 0
1, 529732, Note_off_c, 13, 61, 0
1, 529920, Note_on_c, 0, 59, 100
1, 529920, Note_on_c, 0, 68, 100
1, 529920, Note_on_c, 1, 66, 77
1, 529920, Note_on_c, 2, 71, 100
1, 529920, Note_on_c, 2, 80, 100
1, 529920, Note_on_c, 3, 71, 100
1, 529920, Note_on_c, 3, 76, 100
1, 529920, Note_on_c, 4, 80, 100
1, 529920, Note_on_c, 5, 71, 100
1, 529920, Note_on_c, 7, 64, 73
1, 529920, Note_on_c, 7, 69, 77
1, 529920, Note_on_c, 7, 76, 74
1, 529920, Note_on_c, 8, 57, 100
1, 529920, Note_on_c, 8, 61, 100
1, 529920, Note_on_c, 13, 30, 100
1, 529920, Note_on_c, 13, 42, 100
1, 530202, Note_on_c, 10, 64, 69
1, 530202, Note_on_c, 10, 69, 70
1, 530202, Note_on_c, 10, 76, 72
1, 530204, Note_off_c, 7, 69, 0
1, 530212, Note_off_c, 8, 57, 0
1, 530212, Note_off_c, 8, 61, 0
1, 530212, Note_off_c, 13, 30, 0
1, 530212, Note_off_c, 13, 42, 0
1, 530236, Note_off_c, 7, 76, 0
1, 530242, Note_off_c, 7, 64, 0
1, 530392, Note_off_c, 0, 59, 64
1, 530392, Note_off_c, 0, 68, 64
1, 530392, Note_off_c, 2, 71, 64
1, 530392, Note_off_c, 2, 80, 64
1, 530392, Note_off_c, 3, 71, 64
1, 530392, Note_off_c, 3, 76, 64
1, 530392, Note_off_c, 4, 80, 0
1, 530392, Note_off_c, 5, 71, 0
1, 530400, Note_on_c, 0, 57, 100
1, 530400, Note_on_c, 0, 66, 100
1, 530400, Note_on_c, 1, 61, 70
1, 530400, Note_on_c, 2, 69, 100
1, 530400, Note_on_c, 2, 78, 100
1, 530400, Note_on_c, 3, 64, 100
1, 530400, Note_on_c, 3, 69, 100
1, 530400, Note_on_c, 4, 78, 100
1, 530400, Note_on_c, 5, 69, 100
1, 530400, Note_on_c, 6, 64, 72
1, 530400, Note_on_c, 6, 69, 52
1, 530400, Note_on_c, 6, 76, 72
1, 530400, Note_on_c, 8, 30, 100
1, 530400, Note_on_c, 8, 42, 100
1, 530400, Note_on_c, 13, 57, 100
1, 530400, Note_on_c, 13, 61, 100
1, 530466, Note_off_c, 10, 69, 0
1, 530490, Note_off_c, 10, 64, 0
1, 530506, Note_off_c, 10, 76, 0
1, 530552, Note_off_c, 6, 69, 0
1, 530562, Note_off_c, 1, 66, 0
1, 530640, Note_off_c, 6, 64, 0
1, 530646, Note_off_c, 6, 76, 0
1, 530692, Note_off_c, 8, 30, 0
1, 530692, Note_off_c, 8, 42, 0
1, 530692, Note_off_c, 13, 57, 0
1, 530692, Note_off_c, 13, 61, 0
1, 530872, Note_off_c, 0, 57, 64
1, 530872, Note_off_c, 0, 66, 64
1, 530872, Note_off_c, 2, 69, 64
1, 530872, Note_off_c, 2, 78, 64
1, 530872, Note_off_c, 3, 64, 64
1, 530872, Note_off_c, 3, 69, 64
1, 530872, Note_off_c, 4, 78, 0
1, 530872, Note_off_c, 5, 69, 0
1, 530880, Note_on_c, 7, 64, 68
1, 530880, Note_on_c, 7, 69, 70
1, 530880, Note_on_c, 7, 76, 72
1, 530880, Note_on_c, 8, 56, 100
1, 530880, Note_on_c, 8, 61, 100
1, 530880, Note_on_c, 13, 37, 100
1, 530880, Note_on_c, 13, 49, 100
1, 531028, Note_off_c, 1, 61, 0
1, 531162, Note_on_c, 10, 64, 68
1, 531162, Note_on_c, 10, 69, 77
1, 531162, Note_on_c, 10, 76, 73
1, 531170, Note_off_c, 7, 69, 0
1, 531172, Note_off_c, 8, 56, 0
1, 531172, Note_off_c, 8, 61, 0
1, 531172, Note_off_c, 13, 37, 0
1, 531172, Note_off_c, 13, 49, 0
1, 531188, Note_off_c, 7, 76, 0
1, 531194, Note_off_c, 7, 64, 0
1, 531360, Note_on_c, 0, 59, 100
1, 531360, Note_on_c, 0, 68, 100
1, 531360, Note_on_c, 1, 69, 77
1, 531360, Note_on_c, 2, 71, 100
1, 531360, Note_on_c, 2, 80, 100
1, 531360, Note_on_c, 3, 71, 100
1, 531360, Note_on_c, 3, 76, 100
1, 531360, Note_on_c, 4, 80, 100
1, 531360, Note_on_c, 5, 71, 100
1, 531360, Note_on_c, 6, 64, 68
1, 531360, Note_on_c, 6, 69, 70
1, 531360, Note_on_c, 6, 76, 74
1, 531360, Note_on_c, 8, 37, 100
1, 531360, Note_on_c, 8, 49, 100
1, 531360, Note_on_c, 13, 56, 100
1, 531360, Note_on_c, 13, 61, 100
1, 531428, Note_off_c, 10, 64, 0
1, 531446, Note_off_c, 10, 69, 0
1, 531446, Note_off_c, 10, 76, 0
1, 531592, Note_off_c, 6, 69, 0
1, 531602, Note_off_c, 6, 64, 0
1, 531610, Note_off_c, 6, 76, 0
1, 531652, Note_off_c, 8, 37, 0
1, 531652, Note_off_c, 8, 49, 0
1, 531652, Note_off_c, 13, 56, 0
1, 531652, Note_off_c, 13, 61, 0
1, 531832, Note_off_c, 0, 59, 64
1, 531832, Note_off_c, 0, 68, 64
1, 531832, Note_off_c, 2, 71, 64
1, 531832, Note_off_c, 2, 80, 64
1, 531832, Note_off_c, 3, 71, 64
1, 531832, Note_off_c, 3, 76, 64
1, 531832, Note_off_c, 4, 80, 0
1, 531832, Note_off_c, 5, 71, 0
1, 531840, Note_on_c, 7, 64, 68
1, 531840, Note_on_c, 7, 69, 70
1, 531840, Note_on_c, 7, 76, 73
1, 531840, Note_on_c, 8, 56, 100
1, 531840, Note_on_c, 8, 61, 100
1, 531840, Note_on_c, 13, 37, 100
1, 531840, Note_on_c, 13, 49, 100
1, 532008, Note_off_c, 1, 69, 0
1, 532088, Note_off_c, 7, 64, 0
1, 532102, Note_off_c, 7, 69, 0
1, 532102, Note_off_c, 7, 76, 0
1, 532122, Note_on_c, 10, 64, 72
1, 532122, Note_on_c, 10, 69, 52
1, 532122, Note_on_c, 10, 76, 72
1, 532132, Note_off_c, 8, 56, 0
1, 532132, Note_off_c, 8, 61, 0
1, 532132, Note_off_c, 13, 37, 0
1, 532132, Note_off_c, 13, 49, 0
1, 532274, Note_off_c, 10, 69, 0
1, 532320, Note_on_c, 0, 61, 100
1, 532320, Note_on_c, 0, 69, 100
1, 532320, Note_on_c, 1, 64, 68
1, 532320, Note_on_c, 2, 73, 100
1, 532320, Note_on_c, 2, 81, 100
1, 532320, Note_on_c, 3, 73, 100
1, 532320, Note_on_c, 3, 76, 100
1, 532320, Note_on_c, 4, 81, 100
1, 532320, Note_on_c, 5, 73, 100
1, 532320, Note_on_c, 6, 64, 68
1, 532320, Note_on_c, 6, 69, 69
1, 532320, Note_on_c, 6, 76, 72
1, 532320, Note_on_c, 8, 37, 100
1, 532320, Note_on_c, 8, 49, 100
1, 532320, Note_on_c, 13, 56, 100
1, 532320, Note_on_c, 13, 61, 100
1, 532362, Note_off_c, 10, 64, 0
1, 532368, Note_off_c, 10, 76, 0
1, 532536, Note_off_c, 6, 76, 0
1, 532538, Note_off_c, 6, 69, 0
1, 532552, Note_off_c, 6, 64, 0
1, 532612, Note_off_c, 8, 37, 0
1, 532612, Note_off_c, 8, 49, 0
1, 532612, Note_off_c, 13, 56, 0
1, 532612, Note_off_c, 13, 61, 0
1, 532764, Note_off_c, 1, 64, 0
1, 532792, Note_off_c, 0, 61, 64
1, 532792, Note_off_c, 0, 69, 64
1, 532792, Note_off_c, 2, 73, 64
1, 532792, Note_off_c, 2, 81, 64
1, 532792, Note_off_c, 3, 73, 64
1, 532792, Note_off_c, 3, 76, 64
1, 532792, Note_off_c, 4, 81, 0
1, 532792, Note_off_c, 5, 73, 0
1, 532800, Note_on_c, 0, 57, 100
1, 532800, Note_on_c, 0, 66, 100
1, 532800, Note_on_c, 1, 66, 78
1, 532800, Note_on_c, 2, 69, 100
1, 532800, Note_on_c, 2, 78, 100
1, 532800, Note_on_c, 3, 64, 100
1, 532800, Note_on_c, 3, 69, 100
1, 532800, Note_on_c, 4, 78, 100
1, 532800, Note_on_c, 5, 69, 100
1, 532800, Note_on_c, 7, 64, 70
1, 532800, Note_on_c, 7, 69, 83
1, 532800, Note_on_c, 7, 76, 74
1, 532800, Note_on_c, 8, 57, 100
1, 532800, Note_on_c, 8, 61, 100
1, 532800, Note_on_c, 13, 30, 100
1, 532800, Note_on_c, 13, 42, 100
1, 533040, Note_off_c, 7, 64, 0
1, 533040, Note_off_c, 7, 76, 0
1, 533050, Note_off_c, 7, 69, 0
1, 533082, Note_on_c, 10, 64, 68
1, 533082, Note_on_c, 10, 69, 70
1, 533082, Note_on_c, 10, 76, 74
1, 533092, Note_off_c, 8, 57, 0
1, 533092, Note_off_c, 8, 61, 0
1, 533092, Note_off_c, 13, 30, 0
1, 533092, Note_off_c, 13, 42, 0
1, 533272, Note_off_c, 0, 57, 64
1, 533272, Note_off_c, 0, 66, 64
1, 533272, Note_off_c, 2, 69, 64
1, 533272, Note_off_c, 2, 78, 64
1, 533272, Note_off_c, 3, 64, 64
1, 533272, Note_off_c, 3, 69, 64
1, 533272, Note_off_c, 4, 78, 0
1, 533272, Note_off_c, 5, 69, 0
1, 533280, Note_on_c, 6, 64, 67
1, 533280, Note_on_c, 6, 69, 67
1, 533280, Note_on_c, 6, 76, 72
1, 533280, Note_on_c, 8, 30, 100
1, 533280, Note_on_c, 8, 42, 100
1, 533280, Note_on_c, 13, 57, 100
1, 533280, Note_on_c, 13, 61, 100
1, 533314, Note_off_c, 10, 69, 0
1, 533324, Note_off_c, 10, 64, 0
1, 533332, Note_off_c, 10, 76, 0
1, 533468, Note_off_c, 1, 66, 0
1, 533526, Note_off_c, 6, 64, 0
1, 533530, Note_off_c, 6, 69, 0
1, 533546, Note_off_c, 6, 76, 0
1, 533572, Note_off_c, 8, 30, 0
1, 533572, Note_off_c, 8, 42, 0
1, 533572, Note_off_c, 13, 57, 0
1, 533572, Note_off_c, 13, 61, 0
1, 533760, Note_on_c, 0, 59, 100
1, 533760, Note_on_c, 0, 68, 100
1, 533760, Note_on_c, 1, 59, 74
1, 533760, Note_on_c, 2, 71, 100
1, 533760, Note_on_c, 2, 80, 100
1, 533760, Note_on_c, 3, 71, 100
1, 533760, Note_on_c, 3, 76, 100
1, 533760, Note_on_c, 4, 80, 100
1, 533760, Note_on_c, 5, 71, 100
1, 533760, Note_on_c, 7, 64, 67
1, 533760, Note_on_c, 7, 69, 78
1, 533760, Note_on_c, 7, 76, 73
1, 533760, Note_on_c, 8, 57, 100
1, 533760, Note_on_c, 8, 61, 100
1, 533760, Note_on_c, 13, 30, 100
1, 533760, Note_on_c, 13, 42, 100
1, 534010, Note_off_c, 7, 76, 0
1, 534016, Note_off_c, 7, 69, 0
1, 534024, Note_off_c, 7, 64, 0
1, 534042, Note_on_c, 10, 64, 68
1, 534042, Note_on_c, 10, 69, 69
1, 534042, Note_on_c, 10, 76, 72
1, 534052, Note_off_c, 8, 57, 0
1, 534052, Note_off_c, 8, 61, 0
1, 534052, Note_off_c, 13, 30, 0
1, 534052, Note_off_c, 13, 42, 0
1, 534232, Note_off_c, 0, 59, 64
1, 534232, Note_off_c, 0, 68, 64
1, 534232, Note_off_c, 2, 71, 64
1, 534232, Note_off_c, 2, 80, 64
1, 534232, Note_off_c, 3, 71, 64
1, 534232, Note_off_c, 3, 76, 64
1, 534232, Note_off_c, 4, 80, 0
1, 534232, Note_off_c, 5, 71, 0
1, 534240, Note_on_c, 0, 57, 100
1, 534240, Note_on_c, 0, 66, 100
1, 534240, Note_on_c, 1, 69, 75
1, 534240, Note_on_c, 2, 69, 100
1, 534240, Note_on_c, 2, 78, 100
1, 534240, Note_on_c, 3, 66, 100
1, 534240, Note_on_c, 3, 69, 100
1, 534240, Note_on_c, 4, 78, 100
1, 534240, Note_on_c, 5, 69, 100
1, 534240, Note_on_c, 6, 64, 67
1, 534240, Note_on_c, 6, 69, 63
1, 534240, Note_on_c, 6, 76, 72
1, 534240, Note_on_c, 8, 30, 100
1, 534240, Note_on_c, 8, 42, 100
1, 534240, Note_on_c, 13, 57, 100
1, 534240, Note_on_c, 13, 61, 100
1, 534248, Note_off_c, 1, 59, 0
1, 534258, Note_off_c, 10, 76, 0
1, 534260, Note_off_c, 10, 69, 0
1, 534274, Note_off_c, 10, 64, 0
1, 534488, Note_off_c, 6, 69, 0
1, 534516, Note_off_c, 6, 64, 0
1, 534532, Note_off_c, 6, 76, 0
1, 534532, Note_off_c, 8, 30, 0
1, 534532, Note_off_c, 8, 42, 0
1, 534532, Note_off_c, 13, 57, 0
1, 534532, Note_off_c, 13, 61, 0
1, 534712, Note_off_c, 0, 57, 64
1, 534712, Note_off_c, 0, 66, 64
1, 534712, Note_off_c, 2, 69, 64
1, 534712, Note_off_c, 2, 78, 64
1, 534712, Note_off_c, 3, 66, 64
1, 534712, Note_off_c, 3, 69, 64
1, 534712, Note_off_c, 4, 78, 0
1, 534712, Note_off_c, 5, 69, 0
1, 534720, Note_on_c, 0, 61, 100
1, 534720, Note_on_c, 0, 69, 100
1, 534720, Note_on_c, 1, 64, 73
1, 534720, Note_on_c, 2, 73, 100
1, 534720, Note_on_c, 2, 81, 100
1, 534720, Note_on_c, 3, 73, 100
1, 534720, Note_on_c, 3, 76, 100
1, 534720, Note_on_c, 4, 81, 100
1, 534720, Note_on_c, 5, 73, 100
1, 534720, Note_on_c, 7, 64, 69
1, 534720, Note_on_c, 7, 69, 70
1, 534720, Note_on_c, 7, 76, 73
1, 534720, Note_on_c, 8, 57, 100
1, 534720, Note_on_c, 8, 61, 100
1, 534720, Note_on_c, 13, 30, 100
1, 534720, Note_on_c, 13, 42, 100
1, 534846, Note_off_c, 1, 69, 0
1, 534940, Note_off_c, 7, 69, 0
1, 534962, Note_off_c, 7, 76, 0
1, 534972, Note_off_c, 7, 64, 0
1, 535002, Note_on_c, 10, 64, 67
1, 535002, Note_on_c, 10, 69, 67
1, 535002, Note_on_c, 10, 76, 72
1, 535012, Note_off_c, 8, 57, 0
1, 535012, Note_off_c, 8, 61, 0
1, 535012, Note_off_c, 13, 30, 0
1, 535012, Note_off_c, 13, 42, 0
1, 535192, Note_off_c, 0, 61, 64
1, 535192, Note_off_c, 0, 69, 64
1, 535192, Note_off_c, 2, 73, 64
1, 535192, Note_off_c, 2, 81, 64
1, 535192, Note_off_c, 3, 73, 64
1, 535192, Note_off_c, 3, 76, 64
1, 535192, Note_off_c, 4, 81, 0
1, 535192, Note_off_c, 5, 73, 0
1, 535200, Note_on_c, 6, 64, 68
1, 535200, Note_on_c, 6, 69, 66
1, 535200, Note_on_c, 6, 76, 70
1, 535200, Note_on_c, 8, 30, 100
1, 535200, Note_on_c, 8, 42, 100
1, 535200, Note_on_c, 13, 57, 100
1, 535200, Note_on_c, 13, 61, 100
1, 535248, Note_off_c, 10, 64, 0
1, 535252, Note_off_c, 10, 69, 0
1, 535268, Note_off_c, 10, 76, 0
1, 535396, Note_off_c, 6, 69, 0
1, 535420, Note_off_c, 6, 64, 0
1, 535426, Note_off_c, 1, 64, 0
1, 535438, Note_off_c, 6, 76, 0
1, 535492, Note_off_c, 8, 30, 0
1, 535492, Note_off_c, 8, 42, 0
1, 535492, Note_off_c, 13, 57, 0
1, 535492, Note_off_c, 13, 61, 0
1, 535680, Note_on_c, 0, 59, 100
1, 535680, Note_on_c, 0, 68, 100
1, 535680, Note_on_c, 1, 66, 68
1, 535680, Note_on_c, 2, 71, 100
1, 535680, Note_on_c, 2, 80, 100
1, 535680, Note_on_c, 3, 71, 100
1, 535680, Note_on_c, 3, 76, 100
1, 535680, Note_on_c, 4, 80, 100
1, 535680, Note_on_c, 5, 71, 100
1, 535680, Note_on_c, 7, 64, 69
1, 535680, Note_on_c, 7, 69, 75
1, 535680, Note_on_c, 7, 76, 73
1, 535680, Note_on_c, 8, 56, 100
1, 535680, Note_on_c, 8, 61, 100
1, 535680, Note_on_c, 13, 37, 100
1, 535680, Note_on_c, 13, 49, 100
1, 535894, Note_off_c, 7, 69, 0
1, 535910, Note_off_c, 7, 64, 0
1, 535924, Note_off_c, 7, 76, 0
1, 535962, Note_on_c, 10, 64, 67
1, 535962, Note_on_c, 10, 69, 63
1, 535962, Note_on_c, 10, 76, 72
1, 535972, Note_off_c, 8, 56, 0
1, 535972, Note_off_c, 8, 61, 0
1, 535972, Note_off_c, 13, 37, 0
1, 535972, Note_off_c, 13, 49, 0
1, 536152, Note_off_c, 0, 59, 64
1, 536152, Note_off_c, 0, 68, 64
1, 536152, Note_off_c, 2, 71, 64
1, 536152, Note_off_c, 2, 80, 64
1, 536152, Note_off_c, 3, 71, 64
1, 536152, Note_off_c, 3, 76, 64
1, 536152, Note_off_c, 4, 80, 0
1, 536152, Note_off_c, 5, 71, 0
1, 536160, Note_on_c, 0, 57, 100
1, 536160, Note_on_c, 0, 66, 100
1, 536160, Note_on_c, 1, 61, 68
1, 536160, Note_on_c, 2, 69, 100
1, 536160, Note_on_c, 2, 78, 100
1, 536160, Note_on_c, 3, 64, 100
1, 536160, Note_on_c, 3, 69, 100
1, 536160, Note_on_c, 4, 78, 100
1, 536160, Note_on_c, 5, 69, 100
1, 536160, Note_on_c, 6, 64, 68
1, 536160, Note_on_c, 6, 69, 63
1, 536160, Note_on_c, 6, 76, 72
1, 536160, Note_on_c, 8, 37, 100
1, 536160, Note_on_c, 8, 49, 100
1, 536160, Note_on_c, 13, 56, 100
1, 536160, Note_on_c, 13, 61, 100
1, 536196, Note_off_c, 1, 66, 0
1, 536210, Note_off_c, 10, 69, 0
1, 536238, Note_off_c, 10, 64, 0
1, 536254, Note_off_c, 10, 76, 0
1, 536370, Note_off_c, 6, 64, 0
1, 536404, Note_off_c, 6, 76, 0
1, 536422, Note_off_c, 6, 69, 0
1, 536452, Note_off_c, 8, 37, 0
1, 536452, Note_off_c, 8, 49, 0
1, 536452, Note_off_c, 13, 56, 0
1, 536452, Note_off_c, 13, 61, 0
1, 536632, Note_off_c, 0, 57, 64
1, 536632, Note_off_c, 0, 66, 64
1, 536632, Note_off_c, 2, 69, 64
1, 536632, Note_off_c, 2, 78, 64
1, 536632, Note_off_c, 3, 64, 64
1, 536632, Note_off_c, 3, 69, 64
1, 536632, Note_off_c, 4, 78, 0
1, 536632, Note_off_c, 5, 69, 0
1, 536640, Note_on_c, 7, 64, 68
1, 536640, Note_on_c, 7, 69, 74
1, 536640, Note_on_c, 7, 76, 74
1, 536640, Note_on_c, 8, 56, 100
1, 536640, Note_on_c, 8, 61, 100
1, 536640, Note_on_c, 13, 37, 100
1, 536640, Note_on_c, 13, 49, 100
1, 536864, Note_off_c, 7, 69, 0
1, 536904, Note_off_c, 7, 64, 0
1, 536914, Note_off_c, 7, 76, 0
1, 536922, Note_on_c, 10, 64, 68
1, 536922, Note_on_c, 10, 69, 66
1, 536922, Note_on_c, 10, 76, 70
1, 536930, Note_off_c, 1, 61, 0
1, 536932, Note_off_c, 8, 56, 0
1, 536932, Note_off_c, 8, 61, 0
1, 536932, Note_off_c, 13, 37, 0
1, 536932, Note_off_c, 13, 49, 0
1, 537118, Note_off_c, 10, 69, 0
1, 537120, Note_on_c, 0, 59, 100
1, 537120, Note_on_c, 0, 68, 100
1, 537120, Note_on_c, 1, 69, 77
1, 537120, Note_on_c, 2, 71, 100
1, 537120, Note_on_c, 2, 80, 100
1, 537120, Note_on_c, 3, 71, 100
1, 537120, Note_on_c, 3, 76, 100
1, 537120, Note_on_c, 4, 80, 100
1, 537120, Note_on_c, 5, 71, 100
1, 537120, Note_on_c, 6, 64, 70
1, 537120, Note_on_c, 6, 69, 69
1, 537120, Note_on_c, 6, 76, 72
1, 537120, Note_on_c, 8, 37, 100
1, 537120, Note_on_c, 8, 49, 100
1, 537120, Note_on_c, 13, 56, 100
1, 537120, Note_on_c, 13, 61, 100
1, 537142, Note_off_c, 10, 64, 0
1, 537160, Note_off_c, 10, 76, 0
1, 537354, Note_off_c, 6, 69, 0
1, 537382, Note_off_c, 6, 64, 0
1, 537382, Note_off_c, 6, 76, 0
1, 537412, Note_off_c, 8, 37, 0
1, 537412, Note_off_c, 8, 49, 0
1, 537412, Note_off_c, 13, 56, 0
1, 537412, Note_off_c, 13, 61, 0
1, 537592, Note_off_c, 0, 59, 64
1, 537592, Note_off_c, 0, 68, 64
1, 537592, Note_off_c, 2, 71, 64
1, 537592, Note_off_c, 2, 80, 64
1, 537592, Note_off_c, 3, 71, 64
1, 537592, Note_off_c, 3, 76, 64
1, 537592, Note_off_c, 4, 80, 0
1, 537592, Note_off_c, 5, 71, 0
1, 537600, Note_on_c, 7, 64, 68
1, 537600, Note_on_c, 7, 69, 73
1, 537600, Note_on_c, 7, 76, 73
1, 537600, Note_on_c, 8, 56, 100
1, 537600, Note_on_c, 8, 61, 100
1, 537600, Note_on_c, 13, 37, 100
1, 537600, Note_on_c, 13, 49, 100
1, 537744, Note_off_c, 1, 69, 0
1, 537824, Note_off_c, 7, 64, 0
1, 537848, Note_off_c, 7, 69, 0
1, 537848, Note_off_c, 7, 76, 0
1, 537882, Note_on_c, 10, 64, 68
1, 537882, Note_on_c, 10, 69, 63
1, 537882, Note_on_c, 10, 76, 72
1, 537892, Note_off_c, 8, 56, 0
1, 537892, Note_off_c, 8, 61, 0
1, 537892, Note_off_c, 13, 37, 0
1, 537892, Note_off_c, 13, 49, 0
1, 538080, Note_on_c, 0, 61, 100
1, 538080, Note_on_c, 0, 69, 100
1, 538080, Note_on_c, 1, 64, 70
1, 538080, Note_on_c, 2, 73, 100
1, 538080, Note_on_c, 2, 81, 100
1, 538080, Note_on_c, 3, 73, 100
1, 538080, Note_on_c, 3, 76, 100
1, 538080, Note_on_c, 4, 81, 100
1, 538080, Note_on_c, 5, 73, 100
1, 538080, Note_on_c, 6, 64, 68
1, 538080, Note_on_c, 6, 69, 70
1, 538080, Note_on_c, 6, 76, 70
1, 538080, Note_on_c, 8, 37, 100
1, 538080, Note_on_c, 8, 49, 100
1, 538080, Note_on_c, 13, 56, 100
1, 538080, Note_on_c, 13, 61, 100
1, 538092, Note_off_c, 10, 64, 0
1, 538126, Note_off_c, 10, 76, 0
1, 538144, Note_off_c, 10, 69, 0
1, 538288, Note_off_c, 6, 64, 0
1, 538316, Note_off_c, 6, 69, 0
1, 538320, Note_off_c, 6, 76, 0
1, 538372, Note_off_c, 8, 37, 0
1, 538372, Note_off_c, 8, 49, 0
1, 538372, Note_off_c, 13, 56, 0
1, 538372, Note_off_c, 13, 61, 0
1, 538552, Note_off_c, 0, 61, 64
1, 538552, Note_off_c, 0, 69, 64
1, 538552, Note_off_c, 2, 73, 64
1, 538552, Note_off_c, 2, 81, 64
1, 538552, Note_off_c, 3, 73, 64
1, 538552, Note_off_c, 3, 76, 64
1, 538552, Note_off_c, 4, 81, 0
1, 538552, Note_off_c, 5, 73, 0
1, 538560, Note_on_c, 0, 57, 100
1, 538560, Note_on_c, 0, 66, 100
1, 538560, Note_on_c, 1, 66, 77
1, 538560, Note_on_c, 2, 69, 100
1, 538560, Note_on_c, 2, 78, 100
1, 538560, Note_on_c, 3, 64, 100
1, 538560, Note_on_c, 3, 69, 100
1, 538560, Note_on_c, 4, 78, 100
1, 538560, Note_on_c, 5, 69, 100
1, 538560, Note_on_c, 7, 64, 66
1, 538560, Note_on_c, 7, 69, 74
1, 538560, Note_on_c, 7, 76, 73
1, 538560, Note_on_c, 8, 57, 100
1, 538560, Note_on_c, 8, 61, 100
1, 538560, Note_on_c, 13, 30, 100
1, 538560, Note_on_c, 13, 42, 100
1, 538712, Note_off_c, 1, 64, 0
1, 538794, Note_off_c, 7, 64, 0
1, 538814, Note_off_c, 7, 76, 0
1, 538842, Note_off_c, 7, 69, 0
1, 538842, Note_on_c, 10, 64, 70
1, 538842, Note_on_c, 10, 69, 69
1, 538842, Note_on_c, 10, 76, 72
1, 538852, Note_off_c, 8, 57, 0
1, 538852, Note_off_c, 8, 61, 0
1, 538852, Note_off_c, 13, 30, 0
1, 538852, Note_off_c, 13, 42, 0
1, 539032, Note_off_c, 0, 57, 64
1, 539032, Note_off_c, 0, 66, 64
1, 539032, Note_off_c, 2, 69, 64
1, 539032, Note_off_c, 2, 78, 64
1, 539032, Note_off_c, 3, 64, 64
1, 539032, Note_off_c, 3, 69, 64
1, 539032, Note_off_c, 4, 78, 0
1, 539032, Note_off_c, 5, 69, 0
1, 539040, Note_on_c, 6, 64, 67
1, 539040, Note_on_c, 6, 69, 73
1, 539040, Note_on_c, 6, 76, 74
1, 539040, Note_on_c, 8, 30, 100
1, 539040, Note_on_c, 8, 42, 100
1, 539040, Note_on_c, 13, 57, 100
1, 539040, Note_on_c, 13, 61, 100
1, 539076, Note_off_c, 10, 69, 0
1, 539104, Note_off_c, 10, 64, 0
1, 539104, Note_off_c, 10, 76, 0
1, 539204, Note_off_c, 1, 66, 0
1, 539256, Note_off_c, 6, 64, 0
1, 539276, Note_off_c, 6, 76, 0
1, 539286, Note_off_c, 6, 69, 0
1, 539332, Note_off_c, 8, 30, 0
1, 539332, Note_off_c, 8, 42, 0
1, 539332, Note_off_c, 13, 57, 0
1, 539332, Note_off_c, 13, 61, 0
1, 539520, Note_on_c, 0, 59, 100
1, 539520, Note_on_c, 0, 68, 100
1, 539520, Note_on_c, 1, 59, 65
1, 539520, Note_on_c, 2, 71, 100
1, 539520, Note_on_c, 2, 80, 100
1, 539520, Note_on_c, 3, 71, 100
1, 539520, Note_on_c, 3, 76, 100
1, 539520, Note_on_c, 4, 80, 100
1, 539520, Note_on_c, 5, 71, 100
1, 539520, Note_on_c, 7, 64, 66
1, 539520, Note_on_c, 7, 69, 77
1, 539520, Note_on_c, 7, 76, 70
1, 539520, Note_on_c, 8, 57, 100
1, 539520, Note_on_c, 8, 61, 100
1, 539520, Note_on_c, 13, 30, 100
1, 539520, Note_on_c, 13, 42, 100
1, 539748, Note_off_c, 7, 64, 0
1, 539802, Note_on_c, 10, 64, 68
1, 539802, Note_on_c, 10, 69, 70
1, 539802, Note_on_c, 10, 76, 70
1, 539806, Note_off_c, 7, 69, 0
1, 539812, Note_off_c, 8, 57, 0
1, 539812, Note_off_c, 8, 61, 0
1, 539812, Note_off_c, 13, 30, 0
1, 539812, Note_off_c, 13, 42, 0
1, 539830, Note_off_c, 7, 76, 0
1, 539992, Note_off_c, 0, 59, 64
1, 539992, Note_off_c, 0, 68, 64
1, 539992, Note_off_c, 2, 71, 64
1, 539992, Note_off_c, 2, 80, 64
1, 539992, Note_off_c, 3, 71, 64
1, 539992, Note_off_c, 3, 76, 64
1, 539992, Note_off_c, 4, 80, 0
1, 539992, Note_off_c, 5, 71, 0
1, 540000, Note_on_c, 0, 57, 100
1, 540000, Note_on_c, 0, 66, 100
1, 540000, Note_on_c, 1, 69, 74
1, 540000, Note_on_c, 2, 69, 100
1, 540000, Note_on_c, 2, 78, 100
1, 540000, Note_on_c, 3, 66, 100
1, 540000, Note_on_c, 3, 69, 100
1, 540000, Note_on_c, 4, 78, 100
1, 540000, Note_on_c, 5, 69, 100
1, 540000, Note_on_c, 6, 64, 68
1, 540000, Note_on_c, 6, 69, 74
1, 540000, Note_on_c, 6, 76, 75
1, 540000, Note_on_c, 8, 30, 100
1, 540000, Note_on_c, 8, 42, 100
1, 540000, Note_on_c, 13, 57, 100
1, 540000, Note_on_c, 13, 61, 100
1, 540010, Note_off_c, 10, 64, 0
1, 540038, Note_off_c, 10, 69, 0
1, 540042, Note_off_c, 10, 76, 0
1, 540094, Note_off_c, 1, 59, 0
1, 540272, Note_off_c, 6, 69, 0
1, 540276, Note_off_c, 6, 64, 0
1, 540290, Note_off_c, 6, 76, 0
1, 540292, Note_off_c, 8, 30, 0
1, 540292, Note_off_c, 8, 42, 0
1, 540292, Note_off_c, 13, 57, 0
1, 540292, Note_off_c, 13, 61, 0
1, 540472, Note_off_c, 0, 57, 64
1, 540472, Note_off_c, 0, 66, 64
1, 540472, Note_off_c, 2, 69, 64
1, 540472, Note_off_c, 2, 78, 64
1, 540472, Note_off_c, 3, 66, 64
1, 540472, Note_off_c, 3, 69, 64
1, 540472, Note_off_c, 4, 78, 0
1, 540472, Note_off_c, 5, 69, 0
1, 540480, Note_on_c, 0, 61, 100
1, 540480, Note_on_c, 0, 69, 100
1, 540480, Note_on_c, 1, 64, 68
1, 540480, Note_on_c, 2, 73, 100
1, 540480, Note_on_c, 2, 81, 100
1, 540480, Note_on_c, 3, 73, 100
1, 540480, Note_on_c, 3, 76, 100
1, 540480, Note_on_c, 4, 81, 100
1, 540480, Note_on_c, 5, 73, 100
1, 540480, Note_on_c, 7, 64, 65
1, 540480, Note_on_c, 7, 69, 72
1, 540480, Note_on_c, 7, 76, 72
1, 540480, Note_on_c, 8, 56, 100
1, 540480, Note_on_c, 8, 61, 100
1, 540480, Note_on_c, 13, 37, 100
1, 540480, Note_on_c, 13, 49, 100
1, 540692, Note_off_c, 1, 69, 0
1, 540756, Note_off_c, 7, 64, 0
1, 540762, Note_on_c, 10, 64, 67
1, 540762, Note_on_c, 10, 69, 73
1, 540762, Note_on_c, 10, 76, 74
1, 540770, Note_off_c, 7, 69, 0
1, 540772, Note_off_c, 7, 76, 0
1, 540772, Note_off_c, 8, 56, 0
1, 540772, Note_off_c, 8, 61, 0
1, 540772, Note_off_c, 13, 37, 0
1, 540772, Note_off_c, 13, 49, 0
1, 540952, Note_off_c, 0, 61, 64
1, 540952, Note_off_c, 0, 69, 64
1, 540952, Note_off_c, 2, 73, 64
1, 540952, Note_off_c, 2, 81, 64
1, 540952, Note_off_c, 3, 73, 64
1, 540952, Note_off_c, 3, 76, 64
1, 540952, Note_off_c, 4, 81, 0
1, 540952, Note_off_c, 5, 73, 0
1, 540960, Note_on_c, 6, 64, 73
1, 540960, Note_on_c, 6, 69, 80
1, 540960, Note_on_c, 6, 76, 77
1, 540960, Note_on_c, 8, 37, 100
1, 540960, Note_on_c, 8, 49, 100
1, 540960, Note_on_c, 13, 56, 100
1, 540960, Note_on_c, 13, 61, 100
1, 540978, Note_off_c, 10, 64, 0
1, 540998, Note_off_c, 10, 76, 0
1, 541008, Note_off_c, 10, 69, 0
1, 541094, Note_off_c, 1, 64, 0
1, 541222, Note_off_c, 6, 64, 0
1, 541238, Note_off_c, 6, 69, 0
1, 541248, Note_off_c, 6, 76, 0
1, 541252, Note_off_c, 8, 37, 0
1, 541252, Note_off_c, 8, 49, 0
1, 541252, Note_off_c, 13, 56, 0
1, 541252, Note_off_c, 13, 61, 0
1, 541440, Note_on_c, 1, 66, 77
1, 541440, Note_on_c, 3, 71, 100
1, 541440, Note_on_c, 3, 76, 100
1, 541440, Note_on_c, 7, 64, 67
1, 541440, Note_on_c, 7, 69, 75
1, 541440, Note_on_c, 7, 76, 70
1, 541440, Note_on_c, 8, 56, 100
1, 541440, Note_on_c, 8, 61, 100
1, 541440, Note_on_c, 13, 37, 100
1, 541440, Note_on_c, 13, 49, 100
1, 541670, Note_off_c, 7, 69, 0
1, 541688, Note_off_c, 7, 64, 0
1, 541698, Note_off_c, 7, 76, 0
1, 541722, Note_on_c, 10, 64, 68
1, 541722, Note_on_c, 10, 69, 74
1, 541722, Note_on_c, 10, 76, 75
1, 541732, Note_off_c, 8, 56, 0
1, 541732, Note_off_c, 8, 61, 0
1, 541732, Note_off_c, 13, 37, 0
1, 541732, Note_off_c, 13, 49, 0
1, 541912, Note_off_c, 3, 71, 64
1, 541912, Note_off_c, 3, 76, 64
1, 541920, Note_on_c, 1, 61, 70
1, 541920, Note_on_c, 3, 64, 100
1, 541920, Note_on_c, 3, 69, 100
1, 541920, Note_on_c, 6, 64, 68
1, 541920, Note_on_c, 6, 69, 70
1, 541920, Note_on_c, 6, 76, 74
1, 541920, Note_on_c, 8, 37, 100
1, 541920, Note_on_c, 8, 49, 100
1, 541920, Note_on_c, 13, 56, 100
1, 541920, Note_on_c, 13, 61, 100
1, 541994, Note_off_c, 10, 69, 0
1, 541998, Note_off_c, 10, 64, 0
1, 542012, Note_off_c, 10, 76, 0
1, 542082, Note_off_c, 1, 66, 0
1, 542206, Note_off_c, 6, 64, 0
1, 542212, Note_off_c, 8, 37, 0
1, 542212, Note_off_c, 8, 49, 0
1, 542212, Note_off_c, 13, 56, 0
1, 542212, Note_off_c, 13, 61, 0
1, 542218, Note_off_c, 6, 69, 0
1, 542218, Note_off_c, 6, 76, 0
1, 542392, Note_off_c, 3, 64, 64
1, 542392, Note_off_c, 3, 69, 64
1, 542400, Note_on_c, 7, 64, 66
1, 542400, Note_on_c, 7, 69, 68
1, 542400, Note_on_c, 7, 76, 72
1, 542400, Note_on_c, 8, 56, 100
1, 542400, Note_on_c, 8, 61, 100
1, 542400, Note_on_c, 13, 37, 100
1, 542400, Note_on_c, 13, 49, 100
1, 542548, Note_off_c, 1, 61, 0
1, 542660, Note_off_c, 7, 69, 0
1, 542670, Note_off_c, 7, 64, 0
1, 542674, Note_off_c, 7, 76, 0
1, 542682, Note_on_c, 10, 64, 73
1, 542682, Note_on_c, 10, 69, 80
1, 542682, Note_on_c, 10, 76, 77
1, 542692, Note_off_c, 8, 56, 0
1, 542692, Note_off_c, 8, 61, 0
1, 542692, Note_off_c, 13, 37, 0
1, 542692, Note_off_c, 13, 49, 0
1, 542880, Note_on_c, 1, 69, 77
1, 542880, Note_on_c, 3, 71, 100
1, 542880, Note_on_c, 3, 76, 100
1, 542880, Note_on_c, 6, 64, 70
1, 542880, Note_on_c, 6, 69, 74
1, 542880, Note_on_c, 6, 76, 74
1, 542880, Note_on_c, 8, 37, 100
1, 542880, Note_on_c, 8, 49, 100
1, 542880, Note_on_c, 13, 56, 100
1, 542880, Note_on_c, 13, 61, 100
1, 542944, Note_off_c, 10, 64, 0
1, 542960, Note_off_c, 10, 69, 0
1, 542970, Note_off_c, 10, 76, 0
1, 543084, Note_off_c, 6, 64, 0
1, 543114, Note_off_c, 6, 76, 0
1, 543152, Note_off_c, 6, 69, 0
1, 543172, Note_off_c, 8, 37, 0
1, 543172, Note_off_c, 8, 49, 0
1, 543172, Note_off_c, 13, 56, 0
1, 543172, Note_off_c, 13, 61, 0
1, 543352, Note_off_c, 3, 71, 64
1, 543352, Note_off_c, 3, 76, 64
1, 543360, Note_on_c, 7, 64, 62
1, 543360, Note_on_c, 7, 69, 60
1, 543360, Note_on_c, 7, 76, 70
1, 543360, Note_on_c, 8, 56, 100
1, 543360, Note_on_c, 8, 61, 100
1, 543360, Note_on_c, 13, 37, 100
1, 543360, Note_on_c, 13, 49, 100
1, 543528, Note_off_c, 1, 69, 0
1, 543620, Note_off_c, 7, 69, 0
1, 543638, Note_off_c, 7, 64, 0
1, 543642, Note_on_c, 10, 64, 68
1, 543642, Note_on_c, 10, 69, 70
1, 543642, Note_on_c, 10, 76, 74
1, 543652, Note_off_c, 8, 56, 0
1, 543652, Note_off_c, 8, 61, 0
1, 543652, Note_off_c, 13, 37, 0
1, 543652, Note_off_c, 13, 49, 0
1, 543698, Note_off_c, 7, 76, 0
1, 543840, Note_on_c, 1, 64, 68
1, 543840, Note_on_c, 3, 73, 100
1, 543840, Note_on_c, 3, 76, 100
1, 543840, Note_on_c, 6, 64, 68
1, 543840, Note_on_c, 6, 69, 68
1, 543840, Note_on_c, 6, 76, 72
1, 543840, Note_on_c, 8, 37, 100
1, 543840, Note_on_c, 8, 49, 100
1, 543840, Note_on_c, 13, 56, 100
1, 543840, Note_on_c, 13, 61, 100
1, 543928, Note_off_c, 10, 64, 0
1, 543940, Note_off_c, 10, 69, 0
1, 543940, Note_off_c, 10, 76, 0
1, 544046, Note_off_c, 6, 69, 0
1, 544054, Note_off_c, 6, 64, 0
1, 544064, Note_off_c, 6, 76, 0
1, 544132, Note_off_c, 8, 37, 0
1, 544132, Note_off_c, 8, 49, 0
1, 544132, Note_off_c, 13, 56, 0
1, 544132, Note_off_c, 13, 61, 0
1, 544284, Note_off_c, 1, 64, 0
1, 544312, Note_off_c, 3, 73, 64
1, 544312, Note_off_c, 3, 76, 64
1, 544320, Note_on_c, 0, 57, 100
1, 544320, Note_on_c, 0, 66, 100
1, 544320, Note_on_c, 1, 66, 78
1, 544320, Note_on_c, 2, 69, 100
1, 544320, Note_on_c, 2, 78, 100
1, 544320, Note_on_c, 3, 64, 100
1, 544320, Note_on_c, 3, 69, 100
1, 544320, Note_on_c, 4, 78, 100
1, 544320, Note_on_c, 5, 69, 100
1, 544320, Note_on_c, 7, 64, 56
1, 544320, Note_on_c, 7, 69, 69
1, 544320, Note_on_c, 7, 76, 73
1, 544320, Note_on_c, 8, 57, 100
1, 544320, Note_on_c, 8, 61, 100
1, 544320, Note_on_c, 13, 30, 100
1, 544320, Note_on_c, 13, 42, 100
1, 544586, Note_off_c, 7, 64, 0
1, 544602, Note_on_c, 10, 64, 70
1, 544602, Note_on_c, 10, 69, 74
1, 544602, Note_on_c, 10, 76, 74
1, 544612, Note_off_c, 8, 57, 0
1, 544612, Note_off_c, 8, 61, 0
1, 544612, Note_off_c, 13, 30, 0
1, 544612, Note_off_c, 13, 42, 0
1, 544614, Note_off_c, 7, 69, 0
1, 544622, Note_off_c, 7, 76, 0
1, 544792, Note_off_c, 0, 57, 64
1, 544792, Note_off_c, 0, 66, 64
1, 544792, Note_off_c, 2, 69, 64
1, 544792, Note_off_c, 2, 78, 64
1, 544792, Note_off_c, 3, 64, 64
1, 544792, Note_off_c, 3, 69, 64
1, 544792, Note_off_c, 4, 78, 0
1, 544792, Note_off_c, 5, 69, 0
1, 544800, Note_on_c, 6, 64, 70
1, 544800, Note_on_c, 6, 69, 70
1, 544800, Note_on_c, 6, 76, 75
1, 544800, Note_on_c, 8, 30, 100
1, 544800, Note_on_c, 8, 42, 100
1, 544800, Note_on_c, 13, 57, 100
1, 544800, Note_on_c, 13, 61, 100
1, 544806, Note_off_c, 10, 64, 0
1, 544836, Note_off_c, 10, 76, 0
1, 544874, Note_off_c, 10, 69, 0
1, 544988, Note_off_c, 1, 66, 0
1, 545028, Note_off_c, 6, 69, 0
1, 545070, Note_off_c, 6, 64, 0
1, 545092, Note_off_c, 8, 30, 0
1, 545092, Note_off_c, 8, 42, 0
1, 545092, Note_off_c, 13, 57, 0
1, 545092, Note_off_c, 13, 61, 0
1, 545108, Note_off_c, 6, 76, 0
1, 545280, Note_on_c, 0, 59, 100
1, 545280, Note_on_c, 0, 68, 100
1, 545280, Note_on_c, 1, 59, 74
1, 545280, Note_on_c, 2, 71, 100
1, 545280, Note_on_c, 2, 80, 100
1, 545280, Note_on_c, 3, 71, 100
1, 545280, Note_on_c, 3, 76, 100
1, 545280, Note_on_c, 4, 80, 100
1, 545280, Note_on_c, 5, 71, 100
1, 545280, Note_on_c, 7, 64, 66
1, 545280, Note_on_c, 7, 69, 70
1, 545280, Note_on_c, 7, 76, 75
1, 545280, Note_on_c, 8, 57, 100
1, 545280, Note_on_c, 8, 61, 100
1, 545280, Note_on_c, 13, 30, 100
1, 545280, Note_on_c, 13, 42, 100
1, 545530, Note_off_c, 7, 69, 0
1, 545544, Note_off_c, 7, 64, 0
1, 545562, Note_on_c, 10, 64, 68
1, 545562, Note_on_c, 10, 69, 68
1, 545562, Note_on_c, 10, 76, 72
1, 545570, Note_off_c, 7, 76, 0
1, 545572, Note_off_c, 8, 57, 0
1, 545572, Note_off_c, 8, 61, 0
1, 545572, Note_off_c, 13, 30, 0
1, 545572, Note_off_c, 13, 42, 0
1, 545752, Note_off_c, 0, 59, 64
1, 545752, Note_off_c, 0, 68, 64
1, 545752, Note_off_c, 2, 71, 64
1, 545752, Note_off_c, 2, 80, 64
1, 545752, Note_off_c, 3, 71, 64
1, 545752, Note_off_c, 3, 76, 64
1, 545752, Note_off_c, 4, 80, 0
1, 545752, Note_off_c, 5, 71, 0
1, 545760, Note_on_c, 0, 57, 100
1, 545760, Note_on_c, 0, 66, 100
1, 545760, Note_on_c, 1, 69, 75
1, 545760, Note_on_c, 2, 69, 100
1, 545760, Note_on_c, 2, 78, 100
1, 545760, Note_on_c, 3, 66, 100
1, 545760, Note_on_c, 3, 69, 100
1, 545760, Note_on_c, 4, 78, 100
1, 545760, Note_on_c, 5, 69, 100
1, 545760, Note_on_c, 6, 64, 69
1, 545760, Note_on_c, 6, 69, 69
1, 545760, Note_on_c, 6, 76, 73
1, 545760, Note_on_c, 8, 30, 100
1, 545760, Note_on_c, 8, 42, 100
1, 545760, Note_on_c, 13, 57, 100
1, 545760, Note_on_c, 13, 61, 100
1, 545768, Note_off_c, 1, 59, 0
1, 545768, Note_off_c, 10, 69, 0
1, 545776, Note_off_c, 10, 64, 0
1, 545786, Note_off_c, 10, 76, 0
1, 546026, Note_off_c, 6, 64, 0
1, 546052, Note_off_c, 8, 30, 0
1, 546052, Note_off_c, 8, 42, 0
1, 546052, Note_off_c, 13, 57, 0
1, 546052, Note_off_c, 13, 61, 0
1, 546064, Note_off_c, 6, 69, 0
1, 546064, Note_off_c, 6, 76, 0
1, 546232, Note_off_c, 0, 57, 64
1, 546232, Note_off_c, 0, 66, 64
1, 546232, Note_off_c, 2, 69, 64
1, 546232, Note_off_c, 2, 78, 64
1, 546232, Note_off_c, 3, 66, 64
1, 546232, Note_off_c, 3, 69, 64
1, 546232, Note_off_c, 4, 78, 0
1, 546232, Note_off_c, 5, 69, 0
1, 546240, Note_on_c, 0, 61, 100
1, 546240, Note_on_c, 0, 69, 100
1, 546240, Note_on_c, 1, 64, 73
1, 546240, Note_on_c, 2, 73, 100
1, 546240, Note_on_c, 2, 81, 100
1, 546240, Note_on_c, 3, 73, 100
1, 546240, Note_on_c, 3, 76, 100
1, 546240, Note_on_c, 4, 81, 100
1, 546240, Note_on_c, 5, 73, 100
1, 546240, Note_on_c, 7, 64, 66
1, 546240, Note_on_c, 7, 69, 70
1, 546240, Note_on_c, 7, 76, 75
1, 546240, Note_on_c, 8, 57, 100
1, 546240, Note_on_c, 8, 61, 100
1, 546240, Note_on_c, 13, 30, 100
1, 546240, Note_on_c, 13, 42, 100
1, 546366, Note_off_c, 1, 69, 0
1, 546490, Note_off_c, 7, 69, 0
1, 546504, Note_off_c, 7, 64, 0
1, 546522, Note_on_c, 10, 64, 70
1, 546522, Note_on_c, 10, 69, 70
1, 546522, Note_on_c, 10, 76, 75
1, 546530, Note_off_c, 7, 76, 0
1, 546532, Note_off_c, 8, 57, 0
1, 546532, Note_off_c, 8, 61, 0
1, 546532, Note_off_c, 13, 30, 0
1, 546532, Note_off_c, 13, 42, 0
1, 546712, Note_off_c, 0, 61, 64
1, 546712, Note_off_c, 0, 69, 64
1, 546712, Note_off_c, 2, 73, 64
1, 546712, Note_off_c, 2, 81, 64
1, 546712, Note_off_c, 3, 73, 64
1, 546712, Note_off_c, 3, 76, 64
1, 546712, Note_off_c, 4, 81, 0
1, 546712, Note_off_c, 5, 73, 0
1, 546720, Note_on_c, 6, 64, 67
1, 546720, Note_on_c, 6, 69, 63
1, 546720, Note_on_c, 6, 76, 74
1, 546720, Note_on_c, 8, 30, 100
1, 546720, Note_on_c, 8, 42, 100
1, 546720, Note_on_c, 13, 57, 100
1, 546720, Note_on_c, 13, 61, 100
1, 546750, Note_off_c, 10, 69, 0
1, 546792, Note_off_c, 10, 64, 0
1, 546830, Note_off_c, 10, 76, 0
1, 546924, Note_off_c, 6, 69, 0
1, 546946, Note_off_c, 1, 64, 0
1, 546986, Note_off_c, 6, 64, 0
1, 546986, Note_off_c, 6, 76, 0
1, 547012, Note_off_c, 8, 30, 0
1, 547012, Note_off_c, 8, 42, 0
1, 547012, Note_off_c, 13, 57, 0
1, 547012, Note_off_c, 13, 61, 0
1, 547200, Note_on_c, 0, 59, 100
1, 547200, Note_on_c, 0, 68, 100
1, 547200, Note_on_c, 1, 66, 68
1, 547200, Note_on_c, 2, 71, 100
1, 547200, Note_on_c, 2, 80, 100
1, 547200, Note_on_c, 3, 71, 100
1, 547200, Note_on_c, 3, 76, 100
1, 547200, Note_on_c, 4, 80, 100
1, 547200, Note_on_c, 5, 71, 100
1, 547200, Note_on_c, 7, 64, 72
1, 547200, Note_on_c, 7, 69, 80
1, 547200, Note_on_c, 7, 76, 77
1, 547200, Note_on_c, 8, 56, 100
1, 547200, Note_on_c, 8, 61, 100
1, 547200, Note_on_c, 13, 37, 100
1, 547200, Note_on_c, 13, 49, 100
1, 547440, Note_off_c, 7, 76, 0
1, 547450, Note_off_c, 7, 64, 0
1, 547450, Note_off_c, 7, 69, 0
1, 547482, Note_on_c, 10, 64, 69
1, 547482, Note_on_c, 10, 69, 69
1, 547482, Note_on_c, 10, 76, 73
1, 547492, Note_off_c, 8, 56, 0
1, 547492, Note_off_c, 8, 61, 0
1, 547492, Note_off_c, 13, 37, 0
1, 547492, Note_off_c, 13, 49, 0
1, 547672, Note_off_c, 0, 59, 64
1, 547672, Note_off_c, 0, 68, 64
1, 547672, Note_off_c, 2, 71, 64
1, 547672, Note_off_c, 2, 80, 64
1, 547672, Note_off_c, 3, 71, 64
1, 547672, Note_off_c, 3, 76, 64
1, 547672, Note_off_c, 4, 80, 0
1, 547672, Note_off_c, 5, 71, 0
1, 547680, Note_on_c, 0, 57, 100
1, 547680, Note_on_c, 0, 66, 100
1, 547680, Note_on_c, 1, 61, 68
1, 547680, Note_on_c, 2, 69, 100
1, 547680, Note_on_c, 2, 78, 100
1, 547680, Note_on_c, 3, 64, 100
1, 547680, Note_on_c, 3, 69, 100
1, 547680, Note_on_c, 4, 78, 100
1, 547680, Note_on_c, 5, 69, 100
1, 547680, Note_on_c, 6, 64, 66
1, 547680, Note_on_c, 6, 69, 63
1, 547680, Note_on_c, 6, 76, 74
1, 547680, Note_on_c, 8, 37, 100
1, 547680, Note_on_c, 8, 49, 100
1, 547680, Note_on_c, 13, 56, 100
1, 547680, Note_on_c, 13, 61, 100
1, 547716, Note_off_c, 1, 66, 0
1, 547748, Note_off_c, 10, 64, 0
1, 547786, Note_off_c, 10, 69, 0
1, 547786, Note_off_c, 10, 76, 0
1, 547910, Note_off_c, 6, 69, 0
1, 547916, Note_off_c, 6, 64, 0
1, 547954, Note_off_c, 6, 76, 0
1, 547972, Note_off_c, 8, 37, 0
1, 547972, Note_off_c, 8, 49, 0
1, 547972, Note_off_c, 13, 56, 0
1, 547972, Note_off_c, 13, 61, 0
1, 548152, Note_off_c, 0, 57, 64
1, 548152, Note_off_c, 0, 66, 64
1, 548152, Note_off_c, 2, 69, 64
1, 548152, Note_off_c, 2, 78, 64
1, 548152, Note_off_c, 3, 64, 64
1, 548152, Note_off_c, 3, 69, 64
1, 548152, Note_off_c, 4, 78, 0
1, 548152, Note_off_c, 5, 69, 0
1, 548160, Note_on_c, 7, 64, 70
1, 548160, Note_on_c, 7, 69, 77
1, 548160, Note_on_c, 7, 76, 77
1, 548160, Note_on_c, 8, 56, 100
1, 548160, Note_on_c, 8, 61, 100
1, 548160, Note_on_c, 13, 37, 100
1, 548160, Note_on_c, 13, 49, 100
1, 548414, Note_off_c, 7, 64, 0
1, 548442, Note_off_c, 7, 69, 0
1, 548442, Note_on_c, 10, 64, 67
1, 548442, Note_on_c, 10, 69, 63
1, 548442, Note_on_c, 10, 76, 74
1, 548450, Note_off_c, 1, 61, 0
1, 548450, Note_off_c, 7, 76, 0
1, 548452, Note_off_c, 8, 56, 0
1, 548452, Note_off_c, 8, 61, 0
1, 548452, Note_off_c, 13, 37, 0
1, 548452, Note_off_c, 13, 49, 0
1, 548640, Note_on_c, 0, 59, 100
1, 548640, Note_on_c, 0, 68, 100
1, 548640, Note_on_c, 1, 69, 77
1, 548640, Note_on_c, 2, 71, 100
1, 548640, Note_on_c, 2, 80, 100
1, 548640, Note_on_c, 3, 71, 100
1, 548640, Note_on_c, 3, 76, 100
1, 548640, Note_on_c, 4, 80, 100
1, 548640, Note_on_c, 5, 71, 100
1, 548640, Note_on_c, 6, 64, 68
1, 548640, Note_on_c, 6, 69, 74
1, 548640, Note_on_c, 6, 76, 74
1, 548640, Note_on_c, 8, 37, 100
1, 548640, Note_on_c, 8, 49, 100
1, 548640, Note_on_c, 13, 56, 100
1, 548640, Note_on_c, 13, 61, 100
1, 548646, Note_off_c, 10, 69, 0
1, 548708, Note_off_c, 10, 64, 0
1, 548708, Note_off_c, 10, 76, 0
1, 548900, Note_off_c, 6, 69, 0
1, 548930, Note_off_c, 6, 76, 0
1, 548932, Note_off_c, 8, 37, 0
1, 548932, Note_off_c, 8, 49, 0
1, 548932, Note_off_c, 13, 56, 0
1, 548932, Note_off_c, 13, 61, 0
1, 548934, Note_off_c, 6, 64, 0
1, 549112, Note_off_c, 0, 59, 64
1, 549112, Note_off_c, 0, 68, 64
1, 549112, Note_off_c, 2, 71, 64
1, 549112, Note_off_c, 2, 80, 64
1, 549112, Note_off_c, 3, 71, 64
1, 549112, Note_off_c, 3, 76, 64
1, 549112, Note_off_c, 4, 80, 0
1, 549112, Note_off_c, 5, 71, 0
1, 549120, Note_on_c, 7, 64, 70
1, 549120, Note_on_c, 7, 69, 73
1, 549120, Note_on_c, 7, 76, 74
1, 549120, Note_on_c, 8, 56, 100
1, 549120, Note_on_c, 8, 61, 100
1, 549120, Note_on_c, 13, 37, 100
1, 549120, Note_on_c, 13, 49, 100
1, 549264, Note_off_c, 1, 69, 0
1, 549360, Note_off_c, 7, 64, 0
1, 549366, Note_off_c, 7, 69, 0
1, 549380, Note_off_c, 7, 76, 0
1, 549402, Note_on_c, 10, 64, 66
1, 549402, Note_on_c, 10, 69, 63
1, 549402, Note_on_c, 10, 76, 74
1, 549412, Note_off_c, 8, 56, 0
1, 549412, Note_off_c, 8, 61, 0
1, 549412, Note_off_c, 13, 37, 0
1, 549412, Note_off_c, 13, 49, 0
1, 549600, Note_on_c, 0, 61, 100
1, 549600, Note_on_c, 0, 69, 100
1, 549600, Note_on_c, 1, 64, 70
1, 549600, Note_on_c, 2, 73, 100
1, 549600, Note_on_c, 2, 81, 100
1, 549600, Note_on_c, 3, 73, 100
1, 549600, Note_on_c, 3, 76, 100
1, 549600, Note_on_c, 4, 81, 100
1, 549600, Note_on_c, 5, 73, 100
1, 549600, Note_on_c, 6, 64, 73
1, 549600, Note_on_c, 6, 69, 82
1, 549600, Note_on_c, 6, 76, 77
1, 549600, Note_on_c, 8, 37, 100
1, 549600, Note_on_c, 8, 49, 100
1, 549600, Note_on_c, 13, 56, 100
1, 549600, Note_on_c, 13, 61, 100
1, 549632, Note_off_c, 10, 69, 0
1, 549638, Note_off_c, 10, 64, 0
1, 549676, Note_off_c, 10, 76, 0
1, 549878, Note_off_c, 6, 69, 0
1, 549890, Note_off_c, 6, 64, 0
1, 549892, Note_off_c, 8, 37, 0
1, 549892, Note_off_c, 8, 49, 0
1, 549892, Note_off_c, 13, 56, 0
1, 549892, Note_off_c, 13, 61, 0
1, 549898, Note_off_c, 6, 76, 0
1, 550072, Note_off_c, 0, 61, 64
1, 550072, Note_off_c, 0, 69, 64
1, 550072, Note_off_c, 2, 73, 64
1, 550072, Note_off_c, 2, 81, 64
1, 550072, Note_off_c, 3, 73, 64
1, 550072, Note_off_c, 3, 76, 64
1, 550072, Note_off_c, 4, 81, 0
1, 550072, Note_off_c, 5, 73, 0
1, 550080, Note_on_c, 0, 57, 100
1, 550080, Note_on_c, 0, 66, 100
1, 550080, Note_on_c, 1, 66, 77
1, 550080, Note_on_c, 2, 69, 100
1, 550080, Note_on_c, 2, 78, 100
1, 550080, Note_on_c, 3, 64, 100
1, 550080, Note_on_c, 3, 69, 100
1, 550080, Note_on_c, 4, 78, 100
1, 550080, Note_on_c, 5, 69, 100
1, 550080, Note_on_c, 7, 64, 72
1, 550080, Note_on_c, 7, 69, 77
1, 550080, Note_on_c, 7, 76, 75
1, 550080, Note_on_c, 8, 57, 100
1, 550080, Note_on_c, 8, 61, 100
1, 550080, Note_on_c, 13, 30, 100
1, 550080, Note_on_c, 13, 42, 100
1, 550232, Note_off_c, 1, 64, 0
1, 550288, Note_off_c, 7, 69, 0
1, 550302, Note_off_c, 7, 64, 0
1, 550322, Note_off_c, 7, 76, 0
1, 550362, Note_on_c, 10, 64, 68
1, 550362, Note_on_c, 10, 69, 74
1, 550362, Note_on_c, 10, 76, 74
1, 550372, Note_off_c, 8, 57, 0
1, 550372, Note_off_c, 8, 61, 0
1, 550372, Note_off_c, 13, 30, 0
1, 550372, Note_off_c, 13, 42, 0
1, 550552, Note_off_c, 0, 57, 64
1, 550552, Note_off_c, 0, 66, 64
1, 550552, Note_off_c, 2, 69, 64
1, 550552, Note_off_c, 2, 78, 64
1, 550552, Note_off_c, 3, 64, 64
1, 550552, Note_off_c, 3, 69, 64
1, 550552, Note_off_c, 4, 78, 0
1, 550552, Note_off_c, 5, 69, 0
1, 550560, Note_on_c, 6, 64, 72
1, 550560, Note_on_c, 6, 69, 75
1, 550560, Note_on_c, 6, 76, 73
1, 550560, Note_on_c, 8, 30, 100
1, 550560, Note_on_c, 8, 42, 100
1, 550560, Note_on_c, 13, 57, 100
1, 550560, Note_on_c, 13, 61, 100
1, 550622, Note_off_c, 10, 69, 0
1, 550652, Note_off_c, 10, 76, 0
1, 550656, Note_off_c, 10, 64, 0
1, 550724, Note_off_c, 1, 66, 0
1, 550848, Note_off_c, 6, 76, 0
1, 550850, Note_off_c, 6, 69, 0
1, 550852, Note_off_c, 8, 30, 0
1, 550852, Note_off_c, 8, 42, 0
1, 550852, Note_off_c, 13, 57, 0
1, 550852, Note_off_c, 13, 61, 0
1, 550858, Note_off_c, 6, 64, 0
1, 551040, Note_on_c, 0, 59, 100
1, 551040, Note_on_c, 0, 68, 100
1, 551040, Note_on_c, 1, 59, 65
1, 551040, Note_on_c, 2, 71, 100
1, 551040, Note_on_c, 2, 80, 100
1, 551040, Note_on_c, 3, 71, 100
1, 551040, Note_on_c, 3, 76, 100
1, 551040, Note_on_c, 4, 80, 100
1, 551040, Note_on_c, 5, 71, 100
1, 551040, Note_on_c, 7, 64, 70
1, 551040, Note_on_c, 7, 69, 78
1, 551040, Note_on_c, 7, 76, 77
1, 551040, Note_on_c, 8, 57, 100
1, 551040, Note_on_c, 8, 61, 100
1, 551040, Note_on_c, 13, 30, 100
1, 551040, Note_on_c, 13, 42, 100
1, 551282, Note_off_c, 7, 64, 0
1, 551304, Note_off_c, 7, 76, 0
1, 551322, Note_on_c, 10, 64, 73
1, 551322, Note_on_c, 10, 69, 82
1, 551322, Note_on_c, 10, 76, 77
1, 551328, Note_off_c, 7, 69, 0
1, 551332, Note_off_c, 8, 57, 0
1, 551332, Note_off_c, 8, 61, 0
1, 551332, Note_off_c, 13, 30, 0
1, 551332, Note_off_c, 13, 42, 0
1, 551512, Note_off_c, 0, 59, 64
1, 551512, Note_off_c, 0, 68, 64
1, 551512, Note_off_c, 2, 71, 64
1, 551512, Note_off_c, 2, 80, 64
1, 551512, Note_off_c, 3, 71, 64
1, 551512, Note_off_c, 3, 76, 64
1, 551512, Note_off_c, 4, 80, 0
1, 551512, Note_off_c, 5, 71, 0
1, 551520, Note_on_c, 0, 57, 100
1, 551520, Note_on_c, 0, 66, 100
1, 551520, Note_on_c, 1, 69, 74
1, 551520, Note_on_c, 2, 69, 100
1, 551520, Note_on_c, 2, 78, 100
1, 551520, Note_on_c, 3, 66, 100
1, 551520, Note_on_c, 3, 69, 100
1, 551520, Note_on_c, 4, 78, 100
1, 551520, Note_on_c, 5, 69, 100
1, 551520, Note_on_c, 6, 64, 69
1, 551520, Note_on_c, 6, 69, 70
1, 551520, Note_on_c, 6, 76, 72
1, 551520, Note_on_c, 8, 30, 100
1, 551520, Note_on_c, 8, 42, 100
1, 551520, Note_on_c, 13, 57, 100
1, 551520, Note_on_c, 13, 61, 100
1, 551600, Note_off_c, 10, 69, 0
1, 551612, Note_off_c, 10, 64, 0
1, 551614, Note_off_c, 1, 59, 0
1, 551620, Note_off_c, 10, 76, 0
1, 551784, Note_off_c, 6, 69, 0
1, 551808, Note_off_c, 6, 64, 0
1, 551812, Note_off_c, 8, 30, 0
1, 551812, Note_off_c, 8, 42, 0
1, 551812, Note_off_c, 13, 57, 0
1, 551812, Note_off_c, 13, 61, 0
1, 551824, Note_off_c, 6, 76, 0
1, 551992, Note_off_c, 0, 57, 64
1, 551992, Note_off_c, 0, 66, 64
1, 551992, Note_off_c, 2, 69, 64
1, 551992, Note_off_c, 2, 78, 64
1, 551992, Note_off_c, 3, 66, 64
1, 551992, Note_off_c, 3, 69, 64
1, 551992, Note_off_c, 4, 78, 0
1, 551992, Note_off_c, 5, 69, 0
1, 552000, Note_on_c, 0, 61, 100
1, 552000, Note_on_c, 0, 69, 100
1, 552000, Note_on_c, 1, 64, 68
1, 552000, Note_on_c, 2, 73, 100
1, 552000, Note_on_c, 2, 81, 100
1, 552000, Note_on_c, 3, 73, 100
1, 552000, Note_on_c, 3, 76, 100
1, 552000, Note_on_c, 4, 81, 100
1, 552000, Note_on_c, 5, 73, 100
1, 552000, Note_on_c, 7, 64, 70
1, 552000, Note_on_c, 7, 69, 72
1, 552000, Note_on_c, 7, 76, 77
1, 552000, Note_on_c, 8, 57, 100
1, 552000, Note_on_c, 8, 61, 100
1, 552000, Note_on_c, 13, 30, 100
1, 552000, Note_on_c, 13, 42, 100
1, 552212, Note_off_c, 1, 69, 0
1, 552254, Note_off_c, 7, 64, 0
1, 552266, Note_off_c, 7, 69, 0
1, 552282, Note_on_c, 10, 64, 72
1, 552282, Note_on_c, 10, 69, 75
1, 552282, Note_on_c, 10, 76, 73
1, 552292, Note_off_c, 8, 57, 0
1, 552292, Note_off_c, 8, 61, 0
1, 552292, Note_off_c, 13, 30, 0
1, 552292, Note_off_c, 13, 42, 0
1, 552322, Note_off_c, 7, 76, 0
1, 552472, Note_off_c, 0, 61, 64
1, 552472, Note_off_c, 0, 69, 64
1, 552472, Note_off_c, 2, 73, 64
1, 552472, Note_off_c, 2, 81, 64
1, 552472, Note_off_c, 3, 73, 64
1, 552472, Note_off_c, 3, 76, 64
1, 552472, Note_off_c, 4, 81, 0
1, 552472, Note_off_c, 5, 73, 0
1, 552480, Note_on_c, 6, 64, 68
1, 552480, Note_on_c, 6, 69, 77
1, 552480, Note_on_c, 6, 76, 73
1, 552480, Note_on_c, 8, 30, 100
1, 552480, Note_on_c, 8, 42, 100
1, 552480, Note_on_c, 13, 57, 100
1, 552480, Note_on_c, 13, 61, 100
1, 552570, Note_off_c, 10, 76, 0
1, 552572, Note_off_c, 10, 69, 0
1, 552580, Note_off_c, 10, 64, 0
1, 552614, Note_off_c, 1, 64, 0
1, 552746, Note_off_c, 6, 64, 0
1, 552764, Note_off_c, 6, 69, 0
1, 552764, Note_off_c, 6, 76, 0
1, 552772, Note_off_c, 8, 30, 0
1, 552772, Note_off_c, 8, 42, 0
1, 552772, Note_off_c, 13, 57, 0
1, 552772, Note_off_c, 13, 61, 0
1, 552960, Note_on_c, 0, 59, 100
1, 552960, Note_on_c, 0, 68, 100
1, 552960, Note_on_c, 1, 66, 77
1, 552960, Note_on_c, 2, 71, 100
1, 552960, Note_on_c, 2, 80, 100
1, 552960, Note_on_c, 3, 71, 100
1, 552960, Note_on_c, 3, 76, 100
1, 552960, Note_on_c, 4, 80, 100
1, 552960, Note_on_c, 5, 71, 100
1, 552960, Note_on_c, 7, 64, 73
1, 552960, Note_on_c, 7, 69, 77
1, 552960, Note_on_c, 7, 76, 74
1, 552960, Note_on_c, 8, 57, 100
1, 552960, Note_on_c, 8, 61, 100
1, 552960, Note_on_c, 13, 30, 100
1, 552960, Note_on_c, 13, 42, 100
1, 553242, Note_on_c, 10, 64, 69
1, 553242, Note_on_c, 10, 69, 70
1, 553242, Note_on_c, 10, 76, 72
1, 553244, Note_off_c, 7, 69, 0
1, 553252, Note_off_c, 8, 57, 0
1, 553252, Note_off_c, 8, 61, 0
1, 553252, Note_off_c, 13, 30, 0
1, 553252, Note_off_c, 13, 42, 0
1, 553276, Note_off_c, 7, 76, 0
1, 553282, Note_off_c, 7, 64, 0
1, 553432, Note_off_c, 0, 59, 64
1, 553432, Note_off_c, 0, 68, 64
1, 553432, Note_off_c, 2, 71, 64
1, 553432, Note_off_c, 2, 80, 64
1, 553432, Note_off_c, 3, 71, 64
1, 553432, Note_off_c, 3, 76, 64
1, 553432, Note_off_c, 4, 80, 0
1, 553432, Note_off_c, 5, 71, 0
1, 553440, Note_on_c, 0, 57, 100
1, 553440, Note_on_c, 0, 66, 100
1, 553440, Note_on_c, 1, 61, 70
1, 553440, Note_on_c, 2, 69, 100
1, 553440, Note_on_c, 2, 78, 100
1, 553440, Note_on_c, 3, 64, 100
1, 553440, Note_on_c, 3, 69, 100
1, 553440, Note_on_c, 4, 78, 100
1, 553440, Note_on_c, 5, 69, 100
1, 553440, Note_on_c, 6, 64, 72
1, 553440, Note_on_c, 6, 69, 52
1, 553440, Note_on_c, 6, 76, 72
1, 553440, Note_on_c, 8, 30, 100
1, 553440, Note_on_c, 8, 42, 100
1, 553440, Note_on_c, 13, 57, 100
1, 553440, Note_on_c, 13, 61, 100
1, 553506, Note_off_c, 10, 69, 0
1, 553530, Note_off_c, 10, 64, 0
1, 553546, Note_off_c, 10, 76, 0
1, 553592, Note_off_c, 6, 69, 0
1, 553602, Note_off_c, 1, 66, 0
1, 553680, Note_off_c, 6, 64, 0
1, 553686, Note_off_c, 6, 76, 0
1, 553732, Note_off_c, 8, 30, 0
1, 553732, Note_off_c, 8, 42, 0
1, 553732, Note_off_c, 13, 57, 0
1, 553732, Note_off_c, 13, 61, 0
1, 553912, Note_off_c, 0, 57, 64
1, 553912, Note_off_c, 0, 66, 64
1, 553912, Note_off_c, 2, 69, 64
1, 553912, Note_off_c, 2, 78, 64
1, 553912, Note_off_c, 3, 64, 64
1, 553912, Note_off_c, 3, 69, 64
1, 553912, Note_off_c, 4, 78, 0
1, 553912, Note_off_c, 5, 69, 0
1, 553920, Note_on_c, 7, 64, 68
1, 553920, Note_on_c, 7, 69, 70
1, 553920, Note_on_c, 7, 76, 72
1, 553920, Note_on_c, 8, 56, 100
1, 553920, Note_on_c, 8, 61, 100
1, 553920, Note_on_c, 13, 37, 100
1, 553920, Note_on_c, 13, 49, 100
1, 554068, Note_off_c, 1, 61, 0
1, 554202, Note_on_c, 10, 64, 68
1, 554202, Note_on_c, 10, 69, 77
1, 554202, Note_on_c, 10, 76, 73
1, 554210, Note_off_c, 7, 69, 0
1, 554212, Note_off_c, 8, 56, 0
1, 554212, Note_off_c, 8, 61, 0
1, 554212, Note_off_c, 13, 37, 0
1, 554212, Note_off_c, 13, 49, 0
1, 554228, Note_off_c, 7, 76, 0
1, 554234, Note_off_c, 7, 64, 0
1, 554400, Note_on_c, 0, 59, 100
1, 554400, Note_on_c, 0, 68, 100
1, 554400, Note_on_c, 1, 69, 77
1, 554400, Note_on_c, 2, 71, 100
1, 554400, Note_on_c, 2, 80, 100
1, 554400, Note_on_c, 3, 71, 100
1, 554400, Note_on_c, 3, 76, 100
1, 554400, Note_on_c, 4, 80, 100
1, 554400, Note_on_c, 5, 71, 100
1, 554400, Note_on_c, 6, 64, 68
1, 554400, Note_on_c, 6, 69, 70
1, 554400, Note_on_c, 6, 76, 74
1, 554400, Note_on_c, 8, 37, 100
1, 554400, Note_on_c, 8, 49, 100
1, 554400, Note_on_c, 13, 56, 100
1, 554400, Note_on_c, 13, 61, 100
1, 554468, Note_off_c, 10, 64, 0
1, 554486, Note_off_c, 10, 69, 0
1, 554486, Note_off_c, 10, 76, 0
1, 554632, Note_off_c, 6, 69, 0
1, 554642, Note_off_c, 6, 64, 0
1, 554650, Note_off_c, 6, 76, 0
1, 554692, Note_off_c, 8, 37, 0
1, 554692, Note_off_c, 8, 49, 0
1, 554692, Note_off_c, 13, 56, 0
1, 554692, Note_off_c, 13, 61, 0
1, 554872, Note_off_c, 0, 59, 64
1, 554872, Note_off_c, 0, 68, 64
1, 554872, Note_off_c, 2, 71, 64
1, 554872, Note_off_c, 2, 80, 64
1, 554872, Note_off_c, 3, 71, 64
1, 554872, Note_off_c, 3, 76, 64
1, 554872, Note_off_c, 4, 80, 0
1, 554872, Note_off_c, 5, 71, 0
1, 554880, Note_on_c, 7, 64, 68
1, 554880, Note_on_c, 7, 69, 70
1, 554880, Note_on_c, 7, 76, 73
1, 554880, Note_on_c, 8, 56, 100
1, 554880, Note_on_c, 8, 61, 100
1, 554880, Note_on_c, 13, 37, 100
1, 554880, Note_on_c, 13, 49, 100
1, 555048, Note_off_c, 1, 69, 0
1, 555128, Note_off_c, 7, 64, 0
1, 555142, Note_off_c, 7, 69, 0
1, 555142, Note_off_c, 7, 76, 0
1, 555162, Note_on_c, 10, 64, 72
1, 555162, Note_on_c, 10, 69, 52
1, 555162, Note_on_c, 10, 76, 72
1, 555172, Note_off_c, 8, 56, 0
1, 555172, Note_off_c, 8, 61, 0
1, 555172, Note_off_c, 13, 37, 0
1, 555172, Note_off_c, 13, 49, 0
1, 555314, Note_off_c, 10, 69, 0
1, 555360, Note_on_c, 0, 61, 100
1, 555360, Note_on_c, 0, 69, 100
1, 555360, Note_on_c, 1, 64, 68
1, 555360, Note_on_c, 2, 73, 100
1, 555360, Note_on_c, 2, 81, 100
1, 555360, Note_on_c, 3, 73, 100
1, 555360, Note_on_c, 3, 76, 100
1, 555360, Note_on_c, 4, 81, 100
1, 555360, Note_on_c, 5, 73, 100
1, 555360, Note_on_c, 6, 64, 68
1, 555360, Note_on_c, 6, 69, 69
1, 555360, Note_on_c, 6, 76, 72
1, 555360, Note_on_c, 8, 37, 100
1, 555360, Note_on_c, 8, 49, 100
1, 555360, Note_on_c, 13, 56, 100
1, 555360, Note_on_c, 13, 61, 100
1, 555402, Note_off_c, 10, 64, 0
1, 555408, Note_off_c, 10, 76, 0
1, 555576, Note_off_c, 6, 76, 0
1, 555578, Note_off_c, 6, 69, 0
1, 555592, Note_off_c, 6, 64, 0
1, 555652, Note_off_c, 8, 37, 0
1, 555652, Note_off_c, 8, 49, 0
1, 555652, Note_off_c, 13, 56, 0
1, 555652, Note_off_c, 13, 61, 0
1, 555804, Note_off_c, 1, 64, 0
1, 555832, Note_off_c, 0, 61, 64
1, 555832, Note_off_c, 0, 69, 64
1, 555832, Note_off_c, 2, 73, 64
1, 555832, Note_off_c, 2, 81, 64
1, 555832, Note_off_c, 3, 73, 64
1, 555832, Note_off_c, 3, 76, 64
1, 555832, Note_off_c, 4, 81, 0
1, 555832, Note_off_c, 5, 73, 0
1, 555840, Note_on_c, 0, 57, 100
1, 555840, Note_on_c, 0, 66, 100
1, 555840, Note_on_c, 1, 66, 78
1, 555840, Note_on_c, 2, 69, 100
1, 555840, Note_on_c, 2, 78, 100
1, 555840, Note_on_c, 3, 64, 100
1, 555840, Note_on_c, 3, 69, 100
1, 555840, Note_on_c, 4, 78, 100
1, 555840, Note_on_c, 5, 69, 100
1, 555840, Note_on_c, 7, 64, 70
1, 555840, Note_on_c, 7, 69, 83
1, 555840, Note_on_c, 7, 76, 74
1, 555840, Note_on_c, 8, 57, 100
1, 555840, Note_on_c, 8, 61, 100
1, 555840, Note_on_c, 13, 30, 100
1, 555840, Note_on_c, 13, 42, 100
1, 556080, Note_off_c, 7, 64, 0
1, 556080, Note_off_c, 7, 76, 0
1, 556090, Note_off_c, 7, 69, 0
1, 556122, Note_on_c, 10, 64, 68
1, 556122, Note_on_c, 10, 69, 70
1, 556122, Note_on_c, 10, 76, 74
1, 556132, Note_off_c, 8, 57, 0
1, 556132, Note_off_c, 8, 61, 0
1, 556132, Note_off_c, 13, 30, 0
1, 556132, Note_off_c, 13, 42, 0
1, 556312, Note_off_c, 0, 57, 64
1, 556312, Note_off_c, 0, 66, 64
1, 556312, Note_off_c, 2, 69, 64
1, 556312, Note_off_c, 2, 78, 64
1, 556312, Note_off_c, 3, 64, 64
1, 556312, Note_off_c, 3, 69, 64
1, 556312, Note_off_c, 4, 78, 0
1, 556312, Note_off_c, 5, 69, 0
1, 556320, Note_on_c, 6, 64, 67
1, 556320, Note_on_c, 6, 69, 67
1, 556320, Note_on_c, 6, 76, 72
1, 556320, Note_on_c, 8, 30, 100
1, 556320, Note_on_c, 8, 42, 100
1, 556320, Note_on_c, 13, 57, 100
1, 556320, Note_on_c, 13, 61, 100
1, 556354, Note_off_c, 10, 69, 0
1, 556364, Note_off_c, 10, 64, 0
1, 556372, Note_off_c, 10, 76, 0
1, 556508, Note_off_c, 1, 66, 0
1, 556566, Note_off_c, 6, 64, 0
1, 556570, Note_off_c, 6, 69, 0
1, 556586, Note_off_c, 6, 76, 0
1, 556612, Note_off_c, 8, 30, 0
1, 556612, Note_off_c, 8, 42, 0
1, 556612, Note_off_c, 13, 57, 0
1, 556612, Note_off_c, 13, 61, 0
1, 556800, Note_on_c, 0, 59, 100
1, 556800, Note_on_c, 0, 68, 100
1, 556800, Note_on_c, 1, 59, 74
1, 556800, Note_on_c, 2, 71, 100
1, 556800, Note_on_c, 2, 80, 100
1, 556800, Note_on_c, 3, 71, 100
1, 556800, Note_on_c, 3, 76, 100
1, 556800, Note_on_c, 4, 80, 100
1, 556800, Note_on_c, 5, 71, 100
1, 556800, Note_on_c, 7, 64, 67
1, 556800, Note_on_c, 7, 69, 78
1, 556800, Note_on_c, 7, 76, 73
1, 556800, Note_on_c, 8, 57, 100
1, 556800, Note_on_c, 8, 61, 100
1, 556800, Note_on_c, 13, 30, 100
1, 556800, Note_on_c, 13, 42, 100
1, 557050, Note_off_c, 7, 76, 0
1, 557056, Note_off_c, 7, 69, 0
1, 557064, Note_off_c, 7, 64, 0
1, 557082, Note_on_c, 10, 64, 68
1, 557082, Note_on_c, 10, 69, 69
1, 557082, Note_on_c, 10, 76, 72
1, 557092, Note_off_c, 8, 57, 0
1, 557092, Note_off_c, 8, 61, 0
1, 557092, Note_off_c, 13, 30, 0
1, 557092, Note_off_c, 13, 42, 0
1, 557272, Note_off_c, 0, 59, 64
1, 557272, Note_off_c, 0, 68, 64
1, 557272, Note_off_c, 2, 71, 64
1, 557272, Note_off_c, 2, 80, 64
1, 557272, Note_off_c, 3, 71, 64
1, 557272, Note_off_c, 3, 76, 64
1, 557272, Note_off_c, 4, 80, 0
1, 557272, Note_off_c, 5, 71, 0
1, 557280, Note_on_c, 0, 57, 100
1, 557280, Note_on_c, 0, 66, 100
1, 557280, Note_on_c, 1, 69, 75
1, 557280, Note_on_c, 2, 69, 100
1, 557280, Note_on_c, 2, 78, 100
1, 557280, Note_on_c, 3, 66, 100
1, 557280, Note_on_c, 3, 69, 100
1, 557280, Note_on_c, 4, 78, 100
1, 557280, Note_on_c, 5, 69, 100
1, 557280, Note_on_c, 6, 64, 67
1, 557280, Note_on_c, 6, 69, 63
1, 557280, Note_on_c, 6, 76, 72
1, 557280, Note_on_c, 8, 30, 100
1, 557280, Note_on_c, 8, 42, 100
1, 557280, Note_on_c, 13, 57, 100
1, 557280, Note_on_c, 13, 61, 100
1, 557288, Note_off_c, 1, 59, 0
1, 557298, Note_off_c, 10, 76, 0
1, 557300, Note_off_c, 10, 69, 0
1, 557314, Note_off_c, 10, 64, 0
1, 557528, Note_off_c, 6, 69, 0
1, 557556, Note_off_c, 6, 64, 0
1, 557572, Note_off_c, 6, 76, 0
1, 557572, Note_off_c, 8, 30, 0
1, 557572, Note_off_c, 8, 42, 0
1, 557572, Note_off_c, 13, 57, 0
1, 557572, Note_off_c, 13, 61, 0
1, 557752, Note_off_c, 0, 57, 64
1, 557752, Note_off_c, 0, 66, 64
1, 557752, Note_off_c, 2, 69, 64
1, 557752, Note_off_c, 2, 78, 64
1, 557752, Note_off_c, 3, 66, 64
1, 557752, Note_off_c, 3, 69, 64
1, 557752, Note_off_c, 4, 78, 0
1, 557752, Note_off_c, 5, 69, 0
1, 557760, Note_on_c, 0, 61, 100
1, 557760, Note_on_c, 0, 69, 100
1, 557760, Note_on_c, 1, 64, 73
1, 557760, Note_on_c, 2, 73, 100
1, 557760, Note_on_c, 2, 81, 100
1, 557760, Note_on_c, 3, 73, 100
1, 557760, Note_on_c, 3, 76, 100
1, 557760, Note_on_c, 4, 81, 100
1, 557760, Note_on_c, 5, 73, 100
1, 557760, Note_on_c, 7, 64, 69
1, 557760, Note_on_c, 7, 69, 70
1, 557760, Note_on_c, 7, 76, 73
1, 557760, Note_on_c, 8, 57, 100
1, 557760, Note_on_c, 8, 61, 100
1, 557760, Note_on_c, 13, 30, 100
1, 557760, Note_on_c, 13, 42, 100
1, 557886, Note_off_c, 1, 69, 0
1, 557980, Note_off_c, 7, 69, 0
1, 558002, Note_off_c, 7, 76, 0
1, 558012, Note_off_c, 7, 64, 0
1, 558042, Note_on_c, 10, 64, 67
1, 558042, Note_on_c, 10, 69, 67
1, 558042, Note_on_c, 10, 76, 72
1, 558052, Note_off_c, 8, 57, 0
1, 558052, Note_off_c, 8, 61, 0
1, 558052, Note_off_c, 13, 30, 0
1, 558052, Note_off_c, 13, 42, 0
1, 558232, Note_off_c, 0, 61, 64
1, 558232, Note_off_c, 0, 69, 64
1, 558232, Note_off_c, 2, 73, 64
1, 558232, Note_off_c, 2, 81, 64
1, 558232, Note_off_c, 3, 73, 64
1, 558232, Note_off_c, 3, 76, 64
1, 558232, Note_off_c, 4, 81, 0
1, 558232, Note_off_c, 5, 73, 0
1, 558240, Note_on_c, 6, 64, 68
1, 558240, Note_on_c, 6, 69, 66
1, 558240, Note_on_c, 6, 76, 70
1, 558240, Note_on_c, 8, 30, 100
1, 558240, Note_on_c, 8, 42, 100
1, 558240, Note_on_c, 13, 57, 100
1, 558240, Note_on_c, 13, 61, 100
1, 558288, Note_off_c, 10, 64, 0
1, 558292, Note_off_c, 10, 69, 0
1, 558308, Note_off_c, 10, 76, 0
1, 558436, Note_off_c, 6, 69, 0
1, 558460, Note_off_c, 6, 64, 0
1, 558466, Note_off_c, 1, 64, 0
1, 558478, Note_off_c, 6, 76, 0
1, 558532, Note_off_c, 8, 30, 0
1, 558532, Note_off_c, 8, 42, 0
1, 558532, Note_off_c, 13, 57, 0
1, 558532, Note_off_c, 13, 61, 0
1, 558720, Note_on_c, 0, 59, 100
1, 558720, Note_on_c, 0, 68, 100
1, 558720, Note_on_c, 1, 66, 68
1, 558720, Note_on_c, 2, 71, 100
1, 558720, Note_on_c, 2, 80, 100
1, 558720, Note_on_c, 3, 71, 100
1, 558720, Note_on_c, 3, 76, 100
1, 558720, Note_on_c, 4, 80, 100
1, 558720, Note_on_c, 5, 71, 100
1, 558720, Note_on_c, 7, 64, 69
1, 558720, Note_on_c, 7, 69, 75
1, 558720, Note_on_c, 7, 76, 73
1, 558720, Note_on_c, 8, 56, 100
1, 558720, Note_on_c, 8, 61, 100
1, 558720, Note_on_c, 13, 37, 100
1, 558720, Note_on_c, 13, 49, 100
1, 558934, Note_off_c, 7, 69, 0
1, 558950, Note_off_c, 7, 64, 0
1, 558964, Note_off_c, 7, 76, 0
1, 559002, Note_on_c, 10, 64, 67
1, 559002, Note_on_c, 10, 69, 63
1, 559002, Note_on_c, 10, 76, 72
1, 559012, Note_off_c, 8, 56, 0
1, 559012, Note_off_c, 8, 61, 0
1, 559012, Note_off_c, 13, 37, 0
1, 559012, Note_off_c, 13, 49, 0
1, 559192, Note_off_c, 0, 59, 64
1, 559192, Note_off_c, 0, 68, 64
1, 559192, Note_off_c, 2, 71, 64
1, 559192, Note_off_c, 2, 80, 64
1, 559192, Note_off_c, 3, 71, 64
1, 559192, Note_off_c, 3, 76, 64
1, 559192, Note_off_c, 4, 80, 0
1, 559192, Note_off_c, 5, 71, 0
1, 559200, Note_on_c, 0, 57, 100
1, 559200, Note_on_c, 0, 66, 100
1, 559200, Note_on_c, 1, 61, 68
1, 559200, Note_on_c, 2, 69, 100
1, 559200, Note_on_c, 2, 78, 100
1, 559200, Note_on_c, 3, 64, 100
1, 559200, Note_on_c, 3, 69, 100
1, 559200, Note_on_c, 4, 78, 100
1, 559200, Note_on_c, 5, 69, 100
1, 559200, Note_on_c, 6, 64, 68
1, 559200, Note_on_c, 6, 69, 63
1, 559200, Note_on_c, 6, 76, 72
1, 559200, Note_on_c, 8, 37, 100
1, 559200, Note_on_c, 8, 49, 100
1, 559200, Note_on_c, 13, 56, 100
1, 559200, Note_on_c, 13, 61, 100
1, 559236, Note_off_c, 1, 66, 0
1, 559250, Note_off_c, 10, 69, 0
1, 559278, Note_off_c, 10, 64, 0
1, 559294, Note_off_c, 10, 76, 0
1, 559410, Note_off_c, 6, 64, 0
1, 559444, Note_off_c, 6, 76, 0
1, 559462, Note_off_c, 6, 69, 0
1, 559492, Note_off_c, 8, 37, 0
1, 559492, Note_off_c, 8, 49, 0
1, 559492, Note_off_c, 13, 56, 0
1, 559492, Note_off_c, 13, 61, 0
1, 559672, Note_off_c, 0, 57, 64
1, 559672, Note_off_c, 0, 66, 64
1, 559672, Note_off_c, 2, 69, 64
1, 559672, Note_off_c, 2, 78, 64
1, 559672, Note_off_c, 3, 64, 64
1, 559672, Note_off_c, 3, 69, 64
1, 559672, Note_off_c, 4, 78, 0
1, 559672, Note_off_c, 5, 69, 0
1, 559680, Note_on_c, 7, 64, 68
1, 559680, Note_on_c, 7, 69, 74
1, 559680, Note_on_c, 7, 76, 74
1, 559680, Note_on_c, 8, 56, 100
1, 559680, Note_on_c, 8, 61, 100
1, 559680, Note_on_c, 13, 37, 100
1, 559680, Note_on_c, 13, 49, 100
1, 559904, Note_off_c, 7, 69, 0
1, 559944, Note_off_c, 7, 64, 0
1, 559954, Note_off_c, 7, 76, 0
1, 559962, Note_on_c, 10, 64, 68
1, 559962, Note_on_c, 10, 69, 66
1, 559962, Note_on_c, 10, 76, 70
1, 559970, Note_off_c, 1, 61, 0
1, 559972, Note_off_c, 8, 56, 0
1, 559972, Note_off_c, 8, 61, 0
1, 559972, Note_off_c, 13, 37, 0
1, 559972, Note_off_c, 13, 49, 0
1, 560158, Note_off_c, 10, 69, 0
1, 560160, Note_on_c, 0, 59, 100
1, 560160, Note_on_c, 0, 68, 100
1, 560160, Note_on_c, 1, 69, 77
1, 560160, Note_on_c, 2, 71, 100
1, 560160, Note_on_c, 2, 80, 100
1, 560160, Note_on_c, 3, 71, 100
1, 560160, Note_on_c, 3, 76, 100
1, 560160, Note_on_c, 4, 80, 100
1, 560160, Note_on_c, 5, 71, 100
1, 560160, Note_on_c, 6, 64, 70
1, 560160, Note_on_c, 6, 69, 69
1, 560160, Note_on_c, 6, 76, 72
1, 560160, Note_on_c, 8, 37, 100
1, 560160, Note_on_c, 8, 49, 100
1, 560160, Note_on_c, 13, 56, 100
1, 560160, Note_on_c, 13, 61, 100
1, 560182, Note_off_c, 10, 64, 0
1, 560200, Note_off_c, 10, 76, 0
1, 560394, Note_off_c, 6, 69, 0
1, 560422, Note_off_c, 6, 64, 0
1, 560422, Note_off_c, 6, 76, 0
1, 560452, Note_off_c, 8, 37, 0
1, 560452, Note_off_c, 8, 49, 0
1, 560452, Note_off_c, 13, 56, 0
1, 560452, Note_off_c, 13, 61, 0
1, 560632, Note_off_c, 0, 59, 64
1, 560632, Note_off_c, 0, 68, 64
1, 560632, Note_off_c, 2, 71, 64
1, 560632, Note_off_c, 2, 80, 64
1, 560632, Note_off_c, 3, 71, 64
1, 560632, Note_off_c, 3, 76, 64
1, 560632, Note_off_c, 4, 80, 0
1, 560632, Note_off_c, 5, 71, 0
1, 560640, Note_on_c, 7, 64, 68
1, 560640, Note_on_c, 7, 69, 73
1, 560640, Note_on_c, 7, 76, 73
1, 560640, Note_on_c, 8, 56, 100
1, 560640, Note_on_c, 8, 61, 100
1, 560640, Note_on_c, 13, 37, 100
1, 560640, Note_on_c, 13, 49, 100
1, 560784, Note_off_c, 1, 69, 0
1, 560864, Note_off_c, 7, 64, 0
1, 560888, Note_off_c, 7, 69, 0
1, 560888, Note_off_c, 7, 76, 0
1, 560922, Note_on_c, 10, 64, 68
1, 560922, Note_on_c, 10, 69, 63
1, 560922, Note_on_c, 10, 76, 72
1, 560932, Note_off_c, 8, 56, 0
1, 560932, Note_off_c, 8, 61, 0
1, 560932, Note_off_c, 13, 37, 0
1, 560932, Note_off_c, 13, 49, 0
1, 561120, Note_on_c, 0, 61, 100
1, 561120, Note_on_c, 0, 69, 100
1, 561120, Note_on_c, 1, 64, 70
1, 561120, Note_on_c, 2, 73, 100
1, 561120, Note_on_c, 2, 81, 100
1, 561120, Note_on_c, 3, 73, 100
1, 561120, Note_on_c, 3, 76, 100
1, 561120, Note_on_c, 4, 81, 100
1, 561120, Note_on_c, 5, 73, 100
1, 561120, Note_on_c, 6, 64, 68
1, 561120, Note_on_c, 6, 69, 70
1, 561120, Note_on_c, 6, 76, 70
1, 561120, Note_on_c, 8, 37, 100
1, 561120, Note_on_c, 8, 49, 100
1, 561120, Note_on_c, 13, 56, 100
1, 561120, Note_on_c, 13, 61, 100
1, 561132, Note_off_c, 10, 64, 0
1, 561166, Note_off_c, 10, 76, 0
1, 561184, Note_off_c, 10, 69, 0
1, 561328, Note_off_c, 6, 64, 0
1, 561356, Note_off_c, 6, 69, 0
1, 561360, Note_off_c, 6, 76, 0
1, 561412, Note_off_c, 8, 37, 0
1, 561412, Note_off_c, 8, 49, 0
1, 561412, Note_off_c, 13, 56, 0
1, 561412, Note_off_c, 13, 61, 0
1, 561592, Note_off_c, 0, 61, 64
1, 561592, Note_off_c, 0, 69, 64
1, 561592, Note_off_c, 2, 73, 64
1, 561592, Note_off_c, 2, 81, 64
1, 561592, Note_off_c, 3, 73, 64
1, 561592, Note_off_c, 3, 76, 64
1, 561592, Note_off_c, 4, 81, 0
1, 561592, Note_off_c, 5, 73, 0
1, 561600, Note_on_c, 0, 57, 100
1, 561600, Note_on_c, 0, 66, 100
1, 561600, Note_on_c, 1, 66, 77
1, 561600, Note_on_c, 2, 69, 100
1, 561600, Note_on_c, 2, 78, 100
1, 561600, Note_on_c, 3, 64, 100
1, 561600, Note_on_c, 3, 69, 100
1, 561600, Note_on_c, 4, 78, 100
1, 561600, Note_on_c, 5, 69, 100
1, 561600, Note_on_c, 7, 64, 66
1, 561600, Note_on_c, 7, 69, 74
1, 561600, Note_on_c, 7, 76, 73
1, 561600, Note_on_c, 8, 57, 100
1, 561600, Note_on_c, 8, 61, 100
1, 561600, Note_on_c, 13, 30, 100
1, 561600, Note_on_c, 13, 42, 100
1, 561752, Note_off_c, 1, 64, 0
1, 561834, Note_off_c, 7, 64, 0
1, 561854, Note_off_c, 7, 76, 0
1, 561882, Note_off_c, 7, 69, 0
1, 561882, Note_on_c, 10, 64, 70
1, 561882, Note_on_c, 10, 69, 69
1, 561882, Note_on_c, 10, 76, 72
1, 561892, Note_off_c, 8, 57, 0
1, 561892, Note_off_c, 8, 61, 0
1, 561892, Note_off_c, 13, 30, 0
1, 561892, Note_off_c, 13, 42, 0
1, 562072, Note_off_c, 0, 57, 64
1, 562072, Note_off_c, 0, 66, 64
1, 562072, Note_off_c, 2, 69, 64
1, 562072, Note_off_c, 2, 78, 64
1, 562072, Note_off_c, 3, 64, 64
1, 562072, Note_off_c, 3, 69, 64
1, 562072, Note_off_c, 4, 78, 0
1, 562072, Note_off_c, 5, 69, 0
1, 562080, Note_on_c, 6, 64, 67
1, 562080, Note_on_c, 6, 69, 73
1, 562080, Note_on_c, 6, 76, 74
1, 562080, Note_on_c, 8, 30, 100
1, 562080, Note_on_c, 8, 42, 100
1, 562080, Note_on_c, 13, 57, 100
1, 562080, Note_on_c, 13, 61, 100
1, 562116, Note_off_c, 10, 69, 0
1, 562144, Note_off_c, 10, 64, 0
1, 562144, Note_off_c, 10, 76, 0
1, 562244, Note_off_c, 1, 66, 0
1, 562296, Note_off_c, 6, 64, 0
1, 562316, Note_off_c, 6, 76, 0
1, 562326, Note_off_c, 6, 69, 0
1, 562372, Note_off_c, 8, 30, 0
1, 562372, Note_off_c, 8, 42, 0
1, 562372, Note_off_c, 13, 57, 0
1, 562372, Note_off_c, 13, 61, 0
1, 562560, Note_on_c, 0, 59, 100
1, 562560, Note_on_c, 0, 68, 100
1, 562560, Note_on_c, 1, 59, 65
1, 562560, Note_on_c, 2, 71, 100
1, 562560, Note_on_c, 2, 80, 100
1, 562560, Note_on_c, 3, 71, 100
1, 562560, Note_on_c, 3, 76, 100
1, 562560, Note_on_c, 4, 80, 100
1, 562560, Note_on_c, 5, 71, 100
1, 562560, Note_on_c, 7, 64, 66
1, 562560, Note_on_c, 7, 69, 77
1, 562560, Note_on_c, 7, 76, 70
1, 562560, Note_on_c, 8, 57, 100
1, 562560, Note_on_c, 8, 61, 100
1, 562560, Note_on_c, 13, 30, 100
1, 562560, Note_on_c, 13, 42, 100
1, 562788, Note_off_c, 7, 64, 0
1, 562842, Note_on_c, 10, 64, 68
1, 562842, Note_on_c, 10, 69, 70
1, 562842, Note_on_c, 10, 76, 70
1, 562846, Note_off_c, 7, 69, 0
1, 562852, Note_off_c, 8, 57, 0
1, 562852, Note_off_c, 8, 61, 0
1, 562852, Note_off_c, 13, 30, 0
1, 562852, Note_off_c, 13, 42, 0
1, 562870, Note_off_c, 7, 76, 0
1, 563032, Note_off_c, 0, 59, 64
1, 563032, Note_off_c, 0, 68, 64
1, 563032, Note_off_c, 2, 71, 64
1, 563032, Note_off_c, 2, 80, 64
1, 563032, Note_off_c, 3, 71, 64
1, 563032, Note_off_c, 3, 76, 64
1, 563032, Note_off_c, 4, 80, 0
1, 563032, Note_off_c, 5, 71, 0
1, 563040, Note_on_c, 0, 57, 100
1, 563040, Note_on_c, 0, 66, 100
1, 563040, Note_on_c, 1, 69, 74
1, 563040, Note_on_c, 2, 69, 100
1, 563040, Note_on_c, 2, 78, 100
1, 563040, Note_on_c, 3, 66, 100
1, 563040, Note_on_c, 3, 69, 100
1, 563040, Note_on_c, 4, 78, 100
1, 563040, Note_on_c, 5, 69, 100
1, 563040, Note_on_c, 6, 64, 68
1, 563040, Note_on_c, 6, 69, 74
1, 563040, Note_on_c, 6, 76, 75
1, 563040, Note_on_c, 8, 30, 100
1, 563040, Note_on_c, 8, 42, 100
1, 563040, Note_on_c, 13, 57, 100
1, 563040, Note_on_c, 13, 61, 100
1, 563050, Note_off_c, 10, 64, 0
1, 563078, Note_off_c, 10, 69, 0
1, 563082, Note_off_c, 10, 76, 0
1, 563134, Note_off_c, 1, 59, 0
1, 563312, Note_off_c, 6, 69, 0
1, 563316, Note_off_c, 6, 64, 0
1, 563330, Note_off_c, 6, 76, 0
1, 563332, Note_off_c, 8, 30, 0
1, 563332, Note_off_c, 8, 42, 0
1, 563332, Note_off_c, 13, 57, 0
1, 563332, Note_off_c, 13, 61, 0
1, 563512, Note_off_c, 0, 57, 64
1, 563512, Note_off_c, 0, 66, 64
1, 563512, Note_off_c, 2, 69, 64
1, 563512, Note_off_c, 2, 78, 64
1, 563512, Note_off_c, 3, 66, 64
1, 563512, Note_off_c, 3, 69, 64
1, 563512, Note_off_c, 4, 78, 0
1, 563512, Note_off_c, 5, 69, 0
1, 563520, Note_on_c, 0, 61, 100
1, 563520, Note_on_c, 0, 69, 100
1, 563520, Note_on_c, 1, 64, 68
1, 563520, Note_on_c, 2, 73, 100
1, 563520, Note_on_c, 2, 81, 100
1, 563520, Note_on_c, 3, 73, 100
1, 563520, Note_on_c, 3, 76, 100
1, 563520, Note_on_c, 4, 81, 100
1, 563520, Note_on_c, 5, 73, 100
1, 563520, Note_on_c, 7, 64, 65
1, 563520, Note_on_c, 7, 69, 72
1, 563520, Note_on_c, 7, 76, 72
1, 563520, Note_on_c, 8, 56, 100
1, 563520, Note_on_c, 8, 61, 100
1, 563520, Note_on_c, 13, 37, 100
1, 563520, Note_on_c, 13, 49, 100
1, 563732, Note_off_c, 1, 69, 0
1, 563796, Note_off_c, 7, 64, 0
1, 563802, Note_on_c, 10, 64, 67
1, 563802, Note_on_c, 10, 69, 73
1, 563802, Note_on_c, 10, 76, 74
1, 563810, Note_off_c, 7, 69, 0
1, 563812, Note_off_c, 7, 76, 0
1, 563812, Note_off_c, 8, 56, 0
1, 563812, Note_off_c, 8, 61, 0
1, 563812, Note_off_c, 13, 37, 0
1, 563812, Note_off_c, 13, 49, 0
1, 563992, Note_off_c, 0, 61, 64
1, 563992, Note_off_c, 0, 69, 64
1, 563992, Note_off_c, 2, 73, 64
1, 563992, Note_off_c, 2, 81, 64
1, 563992, Note_off_c, 3, 73, 64
1, 563992, Note_off_c, 3, 76, 64
1, 563992, Note_off_c, 4, 81, 0
1, 563992, Note_off_c, 5, 73, 0
1, 564000, Note_on_c, 6, 64, 73
1, 564000, Note_on_c, 6, 69, 80
1, 564000, Note_on_c, 6, 76, 77
1, 564000, Note_on_c, 8, 37, 100
1, 564000, Note_on_c, 8, 49, 100
1, 564000, Note_on_c, 13, 56, 100
1, 564000, Note_on_c, 13, 61, 100
1, 564018, Note_off_c, 10, 64, 0
1, 564038, Note_off_c, 10, 76, 0
1, 564048, Note_off_c, 10, 69, 0
1, 564134, Note_off_c, 1, 64, 0
1, 564262, Note_off_c, 6, 64, 0
1, 564278, Note_off_c, 6, 69, 0
1, 564288, Note_off_c, 6, 76, 0
1, 564292, Note_off_c, 8, 37, 0
1, 564292, Note_off_c, 8, 49, 0
1, 564292, Note_off_c, 13, 56, 0
1, 564292, Note_off_c, 13, 61, 0
1, 564480, Note_on_c, 1, 66, 77
1, 564480, Note_on_c, 3, 71, 100
1, 564480, Note_on_c, 3, 76, 100
1, 564480, Note_on_c, 7, 64, 67
1, 564480, Note_on_c, 7, 69, 75
1, 564480, Note_on_c, 7, 76, 70
1, 564480, Note_on_c, 8, 56, 100
1, 564480, Note_on_c, 8, 61, 100
1, 564480, Note_on_c, 13, 37, 100
1, 564480, Note_on_c, 13, 49, 100
1, 564710, Note_off_c, 7, 69, 0
1, 564728, Note_off_c, 7, 64, 0
1, 564738, Note_off_c, 7, 76, 0
1, 564762, Note_on_c, 10, 64, 68
1, 564762, Note_on_c, 10, 69, 74
1, 564762, Note_on_c, 10, 76, 75
1, 564772, Note_off_c, 8, 56, 0
1, 564772, Note_off_c, 8, 61, 0
1, 564772, Note_off_c, 13, 37, 0
1, 564772, Note_off_c, 13, 49, 0
1, 564952, Note_off_c, 3, 71, 64
1, 564952, Note_off_c, 3, 76, 64
1, 564960, Note_on_c, 1, 61, 70
1, 564960, Note_on_c, 3, 64, 100
1, 564960, Note_on_c, 3, 69, 100
1, 564960, Note_on_c, 6, 64, 68
1, 564960, Note_on_c, 6, 69, 70
1, 564960, Note_on_c, 6, 76, 74
1, 564960, Note_on_c, 8, 37, 100
1, 564960, Note_on_c, 8, 49, 100
1, 564960, Note_on_c, 13, 56, 100
1, 564960, Note_on_c, 13, 61, 100
1, 565034, Note_off_c, 10, 69, 0
1, 565038, Note_off_c, 10, 64, 0
1, 565052, Note_off_c, 10, 76, 0
1, 565122, Note_off_c, 1, 66, 0
1, 565246, Note_off_c, 6, 64, 0
1, 565252, Note_off_c, 8, 37, 0
1, 565252, Note_off_c, 8, 49, 0
1, 565252, Note_off_c, 13, 56, 0
1, 565252, Note_off_c, 13, 61, 0
1, 565258, Note_off_c, 6, 69, 0
1, 565258, Note_off_c, 6, 76, 0
1, 565432, Note_off_c, 3, 64, 64
1, 565432, Note_off_c, 3, 69, 64
1, 565440, Note_on_c, 7, 64, 66
1, 565440, Note_on_c, 7, 69, 68
1, 565440, Note_on_c, 7, 76, 72
1, 565440, Note_on_c, 8, 56, 100
1, 565440, Note_on_c, 8, 61, 100
1, 565440, Note_on_c, 13, 37, 100
1, 565440, Note_on_c, 13, 49, 100
1, 565588, Note_off_c, 1, 61, 0
1, 565700, Note_off_c, 7, 69, 0
1, 565710, Note_off_c, 7, 64, 0
1, 565714, Note_off_c, 7, 76, 0
1, 565722, Note_on_c, 10, 64, 73
1, 565722, Note_on_c, 10, 69, 80
1, 565722, Note_on_c, 10, 76, 77
1, 565732, Note_off_c, 8, 56, 0
1, 565732, Note_off_c, 8, 61, 0
1, 565732, Note_off_c, 13, 37, 0
1, 565732, Note_off_c, 13, 49, 0
1, 565920, Note_on_c, 1, 69, 77
1, 565920, Note_on_c, 3, 71, 100
1, 565920, Note_on_c, 3, 76, 100
1, 565920, Note_on_c, 6, 64, 70
1, 565920, Note_on_c, 6, 69, 74
1, 565920, Note_on_c, 6, 76, 74
1, 565920, Note_on_c, 8, 37, 100
1, 565920, Note_on_c, 8, 49, 100
1, 565920, Note_on_c, 13, 56, 100
1, 565920, Note_on_c, 13, 61, 100
1, 565984, Note_off_c, 10, 64, 0
1, 566000, Note_off_c, 10, 69, 0
1, 566010, Note_off_c, 10, 76, 0
1, 566124, Note_off_c, 6, 64, 0
1, 566154, Note_off_c, 6, 76, 0
1, 566192, Note_off_c, 6, 69, 0
1, 566212, Note_off_c, 8, 37, 0
1, 566212, Note_off_c, 8, 49, 0
1, 566212, Note_off_c, 13, 56, 0
1, 566212, Note_off_c, 13, 61, 0
1, 566392, Note_off_c, 3, 71, 64
1, 566392, Note_off_c, 3, 76, 64
1, 566400, Note_on_c, 7, 64, 62
1, 566400, Note_on_c, 7, 69, 60
1, 566400, Note_on_c, 7, 76, 70
1, 566400, Note_on_c, 8, 56, 100
1, 566400, Note_on_c, 8, 61, 100
1, 566400, Note_on_c, 13, 37, 100
1, 566400, Note_on_c, 13, 49, 100
1, 566568, Note_off_c, 1, 69, 0
1, 566660, Note_off_c, 7, 69, 0
1, 566678, Note_off_c, 7, 64, 0
1, 566682, Note_on_c, 10, 64, 68
1, 566682, Note_on_c, 10, 69, 70
1, 566682, Note_on_c, 10, 76, 74
1, 566692, Note_off_c, 8, 56, 0
1, 566692, Note_off_c, 8, 61, 0
1, 566692, Note_off_c, 13, 37, 0
1, 566692, Note_off_c, 13, 49, 0
1, 566738, Note_off_c, 7, 76, 0
1, 566880, Note_on_c, 1, 64, 68
1, 566880, Note_on_c, 3, 73, 100
1, 566880, Note_on_c, 3, 76, 100
1, 566880, Note_on_c, 6, 64, 68
1, 566880, Note_on_c, 6, 69, 68
1, 566880, Note_on_c, 6, 76, 72
1, 566880, Note_on_c, 8, 37, 100
1, 566880, Note_on_c, 8, 49, 100
1, 566880, Note_on_c, 13, 56, 100
1, 566880, Note_on_c, 13, 61, 100
1, 566968, Note_off_c, 10, 64, 0
1, 566980, Note_off_c, 10, 69, 0
1, 566980, Note_off_c, 10, 76, 0
1, 567086, Note_off_c, 6, 69, 0
1, 567094, Note_off_c, 6, 64, 0
1, 567104, Note_off_c, 6, 76, 0
1, 567172, Note_off_c, 8, 37, 0
1, 567172, Note_off_c, 8, 49, 0
1, 567172, Note_off_c, 13, 56, 0
1, 567172, Note_off_c, 13, 61, 0
1, 567324, Note_off_c, 1, 64, 0
1, 567352, Note_off_c, 3, 73, 64
1, 567352, Note_off_c, 3, 76, 64
1, 567360, Note_on_c, 0, 57, 100
1, 567360, Note_on_c, 0, 66, 100
1, 567360, Note_on_c, 1, 66, 78
1, 567360, Note_on_c, 2, 69, 100
1, 567360, Note_on_c, 2, 78, 100
1, 567360, Note_on_c, 3, 64, 100
1, 567360, Note_on_c, 3, 69, 100
1, 567360, Note_on_c, 4, 78, 100
1, 567360, Note_on_c, 5, 69, 100
1, 567360, Note_on_c, 7, 64, 56
1, 567360, Note_on_c, 7, 69, 69
1, 567360, Note_on_c, 7, 76, 73
1, 567360, Note_on_c, 8, 57, 100
1, 567360, Note_on_c, 8, 61, 100
1, 567360, Note_on_c, 13, 30, 100
1, 567360, Note_on_c, 13, 42, 100
1, 567626, Note_off_c, 7, 64, 0
1, 567642, Note_on_c, 10, 64, 70
1, 567642, Note_on_c, 10, 69, 74
1, 567642, Note_on_c, 10, 76, 74
1, 567652, Note_off_c, 8, 57, 0
1, 567652, Note_off_c, 8, 61, 0
1, 567652, Note_off_c, 13, 30, 0
1, 567652, Note_off_c, 13, 42, 0
1, 567654, Note_off_c, 7, 69, 0
1, 567662, Note_off_c, 7, 76, 0
1, 567832, Note_off_c, 0, 57, 64
1, 567832, Note_off_c, 0, 66, 64
1, 567832, Note_off_c, 2, 69, 64
1, 567832, Note_off_c, 2, 78, 64
1, 567832, Note_off_c, 3, 64, 64
1, 567832, Note_off_c, 3, 69, 64
1, 567832, Note_off_c, 4, 78, 0
1, 567832, Note_off_c, 5, 69, 0
1, 567840, Note_on_c, 6, 64, 70
1, 567840, Note_on_c, 6, 69, 70
1, 567840, Note_on_c, 6, 76, 75
1, 567840, Note_on_c, 8, 30, 100
1, 567840, Note_on_c, 8, 42, 100
1, 567840, Note_on_c, 13, 57, 100
1, 567840, Note_on_c, 13, 61, 100
1, 567846, Note_off_c, 10, 64, 0
1, 567876, Note_off_c, 10, 76, 0
1, 567914, Note_off_c, 10, 69, 0
1, 568028, Note_off_c, 1, 66, 0
1, 568068, Note_off_c, 6, 69, 0
1, 568110, Note_off_c, 6, 64, 0
1, 568132, Note_off_c, 8, 30, 0
1, 568132, Note_off_c, 8, 42, 0
1, 568132, Note_off_c, 13, 57, 0
1, 568132, Note_off_c, 13, 61, 0
1, 568148, Note_off_c, 6, 76, 0
1, 568320, Note_on_c, 0, 59, 100
1, 568320, Note_on_c, 0, 68, 100
1, 568320, Note_on_c, 1, 59, 74
1, 568320, Note_on_c, 2, 71, 100
1, 568320, Note_on_c, 2, 80, 100
1, 568320, Note_on_c, 3, 71, 100
1, 568320, Note_on_c, 3, 76, 100
1, 568320, Note_on_c, 4, 80, 100
1, 568320, Note_on_c, 5, 71, 100
1, 568320, Note_on_c, 7, 64, 66
1, 568320, Note_on_c, 7, 69, 70
1, 568320, Note_on_c, 7, 76, 75
1, 568320, Note_on_c, 8, 57, 100
1, 568320, Note_on_c, 8, 61, 100
1, 568320, Note_on_c, 13, 30, 100
1, 568320, Note_on_c, 13, 42, 100
1, 568570, Note_off_c, 7, 69, 0
1, 568584, Note_off_c, 7, 64, 0
1, 568602, Note_on_c, 10, 64, 68
1, 568602, Note_on_c, 10, 69, 68
1, 568602, Note_on_c, 10, 76, 72
1, 568610, Note_off_c, 7, 76, 0
1, 568612, Note_off_c, 8, 57, 0
1, 568612, Note_off_c, 8, 61, 0
1, 568612, Note_off_c, 13, 30, 0
1, 568612, Note_off_c, 13, 42, 0
1, 568792, Note_off_c, 0, 59, 64
1, 568792, Note_off_c, 0, 68, 64
1, 568792, Note_off_c, 2, 71, 64
1, 568792, Note_off_c, 2, 80, 64
1, 568792, Note_off_c, 3, 71, 64
1, 568792, Note_off_c, 3, 76, 64
1, 568792, Note_off_c, 4, 80, 0
1, 568792, Note_off_c, 5, 71, 0
1, 568800, Note_on_c, 0, 57, 100
1, 568800, Note_on_c, 0, 66, 100
1, 568800, Note_on_c, 1, 69, 75
1, 568800, Note_on_c, 2, 69, 100
1, 568800, Note_on_c, 2, 78, 100
1, 568800, Note_on_c, 3, 66, 100
1, 568800, Note_on_c, 3, 69, 100
1, 568800, Note_on_c, 4, 78, 100
1, 568800, Note_on_c, 5, 69, 100
1, 568800, Note_on_c, 6, 64, 69
1, 568800, Note_on_c, 6, 69, 69
1, 568800, Note_on_c, 6, 76, 73
1, 568800, Note_on_c, 8, 30, 100
1, 568800, Note_on_c, 8, 42, 100
1, 568800, Note_on_c, 13, 57, 100
1, 568800, Note_on_c, 13, 61, 100
1, 568808, Note_off_c, 1, 59, 0
1, 568808, Note_off_c, 10, 69, 0
1, 568816, Note_off_c, 10, 64, 0
1, 568826, Note_off_c, 10, 76, 0
1, 569066, Note_off_c, 6, 64, 0
1, 569092, Note_off_c, 8, 30, 0
1, 569092, Note_off_c, 8, 42, 0
1, 569092, Note_off_c, 13, 57, 0
1, 569092, Note_off_c, 13, 61, 0
1, 569104, Note_off_c, 6, 69, 0
1, 569104, Note_off_c, 6, 76, 0
1, 569272, Note_off_c, 0, 57, 64
1, 569272, Note_off_c, 0, 66, 64
1, 569272, Note_off_c, 2, 69, 64
1, 569272, Note_off_c, 2, 78, 64
1, 569272, Note_off_c, 3, 66, 64
1, 569272, Note_off_c, 3, 69, 64
1, 569272, Note_off_c, 4, 78, 0
1, 569272, Note_off_c, 5, 69, 0
1, 569280, Note_on_c, 0, 61, 100
1, 569280, Note_on_c, 0, 69, 100
1, 569280, Note_on_c, 1, 64, 73
1, 569280, Note_on_c, 2, 73, 100
1, 569280, Note_on_c, 2, 81, 100
1, 569280, Note_on_c, 3, 73, 100
1, 569280, Note_on_c, 3, 76, 100
1, 569280, Note_on_c, 4, 81, 100
1, 569280, Note_on_c, 5, 73, 100
1, 569280, Note_on_c, 7, 64, 66
1, 569280, Note_on_c, 7, 69, 70
1, 569280, Note_on_c, 7, 76, 75
1, 569280, Note_on_c, 8, 57, 100
1, 569280, Note_on_c, 8, 61, 100
1, 569280, Note_on_c, 13, 30, 100
1, 569280, Note_on_c, 13, 42, 100
1, 569406, Note_off_c, 1, 69, 0
1, 569530, Note_off_c, 7, 69, 0
1, 569544, Note_off_c, 7, 64, 0
1, 569562, Note_on_c, 10, 64, 70
1, 569562, Note_on_c, 10, 69, 70
1, 569562, Note_on_c, 10, 76, 75
1, 569570, Note_off_c, 7, 76, 0
1, 569572, Note_off_c, 8, 57, 0
1, 569572, Note_off_c, 8, 61, 0
1, 569572, Note_off_c, 13, 30, 0
1, 569572, Note_off_c, 13, 42, 0
1, 569752, Note_off_c, 0, 61, 64
1, 569752, Note_off_c, 0, 69, 64
1, 569752, Note_off_c, 2, 73, 64
1, 569752, Note_off_c, 2, 81, 64
1, 569752, Note_off_c, 3, 73, 64
1, 569752, Note_off_c, 3, 76, 64
1, 569752, Note_off_c, 4, 81, 0
1, 569752, Note_off_c, 5, 73, 0
1, 569760, Note_on_c, 6, 64, 67
1, 569760, Note_on_c, 6, 69, 63
1, 569760, Note_on_c, 6, 76, 74
1, 569760, Note_on_c, 8, 30, 100
1, 569760, Note_on_c, 8, 42, 100
1, 569760, Note_on_c, 13, 57, 100
1, 569760, Note_on_c, 13, 61, 100
1, 569790, Note_off_c, 10, 69, 0
1, 569832, Note_off_c, 10, 64, 0
1, 569870, Note_off_c, 10, 76, 0
1, 569964, Note_off_c, 6, 69, 0
1, 569986, Note_off_c, 1, 64, 0
1, 570026, Note_off_c, 6, 64, 0
1, 570026, Note_off_c, 6, 76, 0
1, 570052, Note_off_c, 8, 30, 0
1, 570052, Note_off_c, 8, 42, 0
1, 570052, Note_off_c, 13, 57, 0
1, 570052, Note_off_c, 13, 61, 0
1, 570240, Note_on_c, 0, 59, 100
1, 570240, Note_on_c, 0, 68, 100
1, 570240, Note_on_c, 1, 66, 68
1, 570240, Note_on_c, 2, 71, 100
1, 570240, Note_on_c, 2, 80, 100
1, 570240, Note_on_c, 3, 71, 100
1, 570240, Note_on_c, 3, 76, 100
1, 570240, Note_on_c, 4, 80, 100
1, 570240, Note_on_c, 5, 71, 100
1, 570240, Note_on_c, 7, 64, 72
1, 570240, Note_on_c, 7, 69, 80
1, 570240, Note_on_c, 7, 76, 77
1, 570240, Note_on_c, 8, 56, 100
1, 570240, Note_on_c, 8, 61, 100
1, 570240, Note_on_c, 13, 37, 100
1, 570240, Note_on_c, 13, 49, 100
1, 570480, Note_off_c, 7, 76, 0
1, 570490, Note_off_c, 7, 64, 0
1, 570490, Note_off_c, 7, 69, 0
1, 570522, Note_on_c, 10, 64, 69
1, 570522, Note_on_c, 10, 69, 69
1, 570522, Note_on_c, 10, 76, 73
1, 570532, Note_off_c, 8, 56, 0
1, 570532, Note_off_c, 8, 61, 0
1, 570532, Note_off_c, 13, 37, 0
1, 570532, Note_off_c, 13, 49, 0
1, 570712, Note_off_c, 0, 59, 64
1, 570712, Note_off_c, 0, 68, 64
1, 570712, Note_off_c, 2, 71, 64
1, 570712, Note_off_c, 2, 80, 64
1, 570712, Note_off_c, 3, 71, 64
1, 570712, Note_off_c, 3, 76, 64
1, 570712, Note_off_c, 4, 80, 0
1, 570712, Note_off_c, 5, 71, 0
1, 570720, Note_on_c, 0, 57, 100
1, 570720, Note_on_c, 0, 66, 100
1, 570720, Note_on_c, 1, 61, 68
1, 570720, Note_on_c, 2, 69, 100
1, 570720, Note_on_c, 2, 78, 100
1, 570720, Note_on_c, 3, 64, 100
1, 570720, Note_on_c, 3, 69, 100
1, 570720, Note_on_c, 4, 78, 100
1, 570720, Note_on_c, 5, 69, 100
1, 570720, Note_on_c, 6, 64, 66
1, 570720, Note_on_c, 6, 69, 63
1, 570720, Note_on_c, 6, 76, 74
1, 570720, Note_on_c, 8, 37, 100
1, 570720, Note_on_c, 8, 49, 100
1, 570720, Note_on_c, 13, 56, 100
1, 570720, Note_on_c, 13, 61, 100
1, 570756, Note_off_c, 1, 66, 0
1, 570788, Note_off_c, 10, 64, 0
1, 570826, Note_off_c, 10, 69, 0
1, 570826, Note_off_c, 10, 76, 0
1, 570950, Note_off_c, 6, 69, 0
1, 570956, Note_off_c, 6, 64, 0
1, 570994, Note_off_c, 6, 76, 0
1, 571012, Note_off_c, 8, 37, 0
1, 571012, Note_off_c, 8, 49, 0
1, 571012, Note_off_c, 13, 56, 0
1, 571012, Note_off_c, 13, 61, 0
1, 571192, Note_off_c, 0, 57, 64
1, 571192, Note_off_c, 0, 66, 64
1, 571192, Note_off_c, 2, 69, 64
1, 571192, Note_off_c, 2, 78, 64
1, 571192, Note_off_c, 3, 64, 64
1, 571192, Note_off_c, 3, 69, 64
1, 571192, Note_off_c, 4, 78, 0
1, 571192, Note_off_c, 5, 69, 0
1, 571200, Note_on_c, 7, 64, 70
1, 571200, Note_on_c, 7, 69, 77
1, 571200, Note_on_c, 7, 76, 77
1, 571200, Note_on_c, 8, 56, 100
1, 571200, Note_on_c, 8, 61, 100
1, 571200, Note_on_c, 13, 37, 100
1, 571200, Note_on_c, 13, 49, 100
1, 571454, Note_off_c, 7, 64, 0
1, 571482, Note_off_c, 7, 69, 0
1, 571482, Note_on_c, 10, 64, 67
1, 571482, Note_on_c, 10, 69, 63
1, 571482, Note_on_c, 10, 76, 74
1, 571490, Note_off_c, 1, 61, 0
1, 571490, Note_off_c, 7, 76, 0
1, 571492, Note_off_c, 8, 56, 0
1, 571492, Note_off_c, 8, 61, 0
1, 571492, Note_off_c, 13, 37, 0
1, 571492, Note_off_c, 13, 49, 0
1, 571680, Note_on_c, 0, 59, 100
1, 571680, Note_on_c, 0, 68, 100
1, 571680, Note_on_c, 1, 69, 77
1, 571680, Note_on_c, 2, 71, 100
1, 571680, Note_on_c, 2, 80, 100
1, 571680, Note_on_c, 3, 71, 100
1, 571680, Note_on_c, 3, 76, 100
1, 571680, Note_on_c, 4, 80, 100
1, 571680, Note_on_c, 5, 71, 100
1, 571680, Note_on_c, 6, 64, 68
1, 571680, Note_on_c, 6, 69, 74
1, 571680, Note_on_c, 6, 76, 74
1, 571680, Note_on_c, 8, 37, 100
1, 571680, Note_on_c, 8, 49, 100
1, 571680, Note_on_c, 13, 56, 100
1, 571680, Note_on_c, 13, 61, 100
1, 571686, Note_off_c, 10, 69, 0
1, 571748, Note_off_c, 10, 64, 0
1, 571748, Note_off_c, 10, 76, 0
1, 571940, Note_off_c, 6, 69, 0
1, 571970, Note_off_c, 6, 76, 0
1, 571972, Note_off_c, 8, 37, 0
1, 571972, Note_off_c, 8, 49, 0
1, 571972, Note_off_c, 13, 56, 0
1, 571972, Note_off_c, 13, 61, 0
1, 571974, Note_off_c, 6, 64, 0
1, 572152, Note_off_c, 0, 59, 64
1, 572152, Note_off_c, 0, 68, 64
1, 572152, Note_off_c, 2, 71, 64
1, 572152, Note_off_c, 2, 80, 64
1, 572152, Note_off_c, 3, 71, 64
1, 572152, Note_off_c, 3, 76, 64
1, 572152, Note_off_c, 4, 80, 0
1, 572152, Note_off_c, 5, 71, 0
1, 572160, Note_on_c, 7, 64, 70
1, 572160, Note_on_c, 7, 69, 73
1, 572160, Note_on_c, 7, 76, 74
1, 572160, Note_on_c, 8, 56, 100
1, 572160, Note_on_c, 8, 61, 100
1, 572160, Note_on_c, 13, 37, 100
1, 572160, Note_on_c, 13, 49, 100
1, 572304, Note_off_c, 1, 69, 0
1, 572400, Note_off_c, 7, 64, 0
1, 572406, Note_off_c, 7, 69, 0
1, 572420, Note_off_c, 7, 76, 0
1, 572442, Note_on_c, 10, 64, 66
1, 572442, Note_on_c, 10, 69, 63
1, 572442, Note_on_c, 10, 76, 74
1, 572452, Note_off_c, 8, 56, 0
1, 572452, Note_off_c, 8, 61, 0
1, 572452, Note_off_c, 13, 37, 0
1, 572452, Note_off_c, 13, 49, 0
1, 572640, Note_on_c, 0, 61, 100
1, 572640, Note_on_c, 0, 69, 100
1, 572640, Note_on_c, 1, 64, 70
1, 572640, Note_on_c, 2, 73, 100
1, 572640, Note_on_c, 2, 81, 100
1, 572640, Note_on_c, 3, 73, 100
1, 572640, Note_on_c, 3, 76, 100
1, 572640, Note_on_c, 4, 81, 100
1, 572640, Note_on_c, 5, 73, 100
1, 572640, Note_on_c, 6, 64, 73
1, 572640, Note_on_c, 6, 69, 82
1, 572640, Note_on_c, 6, 76, 77
1, 572640, Note_on_c, 8, 37, 100
1, 572640, Note_on_c, 8, 49, 100
1, 572640, Note_on_c, 13, 56, 100
1, 572640, Note_on_c, 13, 61, 100
1, 572672, Note_off_c, 10, 69, 0
1, 572678, Note_off_c, 10, 64, 0
1, 572716, Note_off_c, 10, 76, 0
1, 572918, Note_off_c, 6, 69, 0
1, 572930, Note_off_c, 6, 64, 0
1, 572932, Note_off_c, 8, 37, 0
1, 572932, Note_off_c, 8, 49, 0
1, 572932, Note_off_c, 13, 56, 0
1, 572932, Note_off_c, 13, 61, 0
1, 572938, Note_off_c, 6, 76, 0
1, 573112, Note_off_c, 0, 61, 64
1, 573112, Note_off_c, 0, 69, 64
1, 573112, Note_off_c, 2, 73, 64
1, 573112, Note_off_c, 2, 81, 64
1, 573112, Note_off_c, 3, 73, 64
1, 573112, Note_off_c, 3, 76, 64
1, 573112, Note_off_c, 4, 81, 0
1, 573112, Note_off_c, 5, 73, 0
1, 573120, Note_on_c, 0, 57, 100
1, 573120, Note_on_c, 0, 66, 100
1, 573120, Note_on_c, 1, 66, 77
1, 573120, Note_on_c, 2, 69, 100
1, 573120, Note_on_c, 2, 78, 100
1, 573120, Note_on_c, 3, 64, 100
1, 573120, Note_on_c, 3, 69, 100
1, 573120, Note_on_c, 4, 78, 100
1, 573120, Note_on_c, 5, 69, 100
1, 573120, Note_on_c, 7, 64, 72
1, 573120, Note_on_c, 7, 69, 77
1, 573120, Note_on_c, 7, 76, 75
1, 573120, Note_on_c, 8, 57, 100
1, 573120, Note_on_c, 8, 61, 100
1, 573120, Note_on_c, 13, 30, 100
1, 573120, Note_on_c, 13, 42, 100
1, 573272, Note_off_c, 1, 64, 0
1, 573328, Note_off_c, 7, 69, 0
1, 573342, Note_off_c, 7, 64, 0
1, 573362, Note_off_c, 7, 76, 0
1, 573402, Note_on_c, 10, 64, 68
1, 573402, Note_on_c, 10, 69, 74
1, 573402, Note_on_c, 10, 76, 74
1, 573412, Note_off_c, 8, 57, 0
1, 573412, Note_off_c, 8, 61, 0
1, 573412, Note_off_c, 13, 30, 0
1, 573412, Note_off_c, 13, 42, 0
1, 573592, Note_off_c, 0, 57, 64
1, 573592, Note_off_c, 0, 66, 64
1, 573592, Note_off_c, 2, 69, 64
1, 573592, Note_off_c, 2, 78, 64
1, 573592, Note_off_c, 3, 64, 64
1, 573592, Note_off_c, 3, 69, 64
1, 573592, Note_off_c, 4, 78, 0
1, 573592, Note_off_c, 5, 69, 0
1, 573600, Note_on_c, 6, 64, 72
1, 573600, Note_on_c, 6, 69, 75
1, 573600, Note_on_c, 6, 76, 73
1, 573600, Note_on_c, 8, 30, 100
1, 573600, Note_on_c, 8, 42, 100
1, 573600, Note_on_c, 13, 57, 100
1, 573600, Note_on_c, 13, 61, 100
1, 573662, Note_off_c, 10, 69, 0
1, 573692, Note_off_c, 10, 76, 0
1, 573696, Note_off_c, 10, 64, 0
1, 573764, Note_off_c, 1, 66, 0
1, 573888, Note_off_c, 6, 76, 0
1, 573890, Note_off_c, 6, 69, 0
1, 573892, Note_off_c, 8, 30, 0
1, 573892, Note_off_c, 8, 42, 0
1, 573892, Note_off_c, 13, 57, 0
1, 573892, Note_off_c, 13, 61, 0
1, 573898, Note_off_c, 6, 64, 0
1, 574080, Note_on_c, 0, 59, 100
1, 574080, Note_on_c, 0, 68, 100
1, 574080, Note_on_c, 1, 59, 65
1, 574080, Note_on_c, 2, 71, 100
1, 574080, Note_on_c, 2, 80, 100
1, 574080, Note_on_c, 3, 71, 100
1, 574080, Note_on_c, 3, 76, 100
1, 574080, Note_on_c, 4, 80, 100
1, 574080, Note_on_c, 5, 71, 100
1, 574080, Note_on_c, 7, 64, 70
1, 574080, Note_on_c, 7, 69, 78
1, 574080, Note_on_c, 7, 76, 77
1, 574080, Note_on_c, 8, 57, 100
1, 574080, Note_on_c, 8, 61, 100
1, 574080, Note_on_c, 13, 30, 100
1, 574080, Note_on_c, 13, 42, 100
1, 574322, Note_off_c, 7, 64, 0
1, 574344, Note_off_c, 7, 76, 0
1, 574362, Note_on_c, 10, 64, 73
1, 574362, Note_on_c, 10, 69, 82
1, 574362, Note_on_c, 10, 76, 77
1, 574368, Note_off_c, 7, 69, 0
1, 574372, Note_off_c, 8, 57, 0
1, 574372, Note_off_c, 8, 61, 0
1, 574372, Note_off_c, 13, 30, 0
1, 574372, Note_off_c, 13, 42, 0
1, 574552, Note_off_c, 0, 59, 64
1, 574552, Note_off_c, 0, 68, 64
1, 574552, Note_off_c, 2, 71, 64
1, 574552, Note_off_c, 2, 80, 64
1, 574552, Note_off_c, 3, 71, 64
1, 574552, Note_off_c, 3, 76, 64
1, 574552, Note_off_c, 4, 80, 0
1, 574552, Note_off_c, 5, 71, 0
1, 574560, Note_on_c, 0, 57, 100
1, 574560, Note_on_c, 0, 66, 100
1, 574560, Note_on_c, 1, 69, 74
1, 574560, Note_on_c, 2, 69, 100
1, 574560, Note_on_c, 2, 78, 100
1, 574560, Note_on_c, 3, 66, 100
1, 574560, Note_on_c, 3, 69, 100
1, 574560, Note_on_c, 4, 78, 100
1, 574560, Note_on_c, 5, 69, 100
1, 574560, Note_on_c, 6, 64, 69
1, 574560, Note_on_c, 6, 69, 70
1, 574560, Note_on_c, 6, 76, 72
1, 574560, Note_on_c, 8, 30, 100
1, 574560, Note_on_c, 8, 42, 100
1, 574560, Note_on_c, 13, 57, 100
1, 574560, Note_on_c, 13, 61, 100
1, 574640, Note_off_c, 10, 69, 0
1, 574652, Note_off_c, 10, 64, 0
1, 574654, Note_off_c, 1, 59, 0
1, 574660, Note_off_c, 10, 76, 0
1, 574824, Note_off_c, 6, 69, 0
1, 574848, Note_off_c, 6, 64, 0
1, 574852, Note_off_c, 8, 30, 0
1, 574852, Note_off_c, 8, 42, 0
1, 574852, Note_off_c, 13, 57, 0
1, 574852, Note_off_c, 13, 61, 0
1, 574864, Note_off_c, 6, 76, 0
1, 575032, Note_off_c, 0, 57, 64
1, 575032, Note_off_c, 0, 66, 64
1, 575032, Note_off_c, 2, 69, 64
1, 575032, Note_off_c, 2, 78, 64
1, 575032, Note_off_c, 3, 66, 64
1, 575032, Note_off_c, 3, 69, 64
1, 575032, Note_off_c, 4, 78, 0
1, 575032, Note_off_c, 5, 69, 0
1, 575040, Note_on_c, 0, 61, 100
1, 575040, Note_on_c, 0, 69, 100
1, 575040, Note_on_c, 1, 64, 68
1, 575040, Note_on_c, 2, 73, 100
1, 575040, Note_on_c, 2, 81, 100
1, 575040, Note_on_c, 3, 73, 100
1, 575040, Note_on_c, 3, 76, 100
1, 575040, Note_on_c, 4, 81, 100
1, 575040, Note_on_c, 5, 73, 100
1, 575040, Note_on_c, 7, 64, 70
1, 575040, Note_on_c, 7, 69, 72
1, 575040, Note_on_c, 7, 76, 77
1, 575040, Note_on_c, 8, 57, 100
1, 575040, Note_on_c, 8, 61, 100
1, 575040, Note_on_c, 13, 30, 100
1, 575040, Note_on_c, 13, 42, 100
1, 575252, Note_off_c, 1, 69, 0
1, 575294, Note_off_c, 7, 64, 0
1, 575306, Note_off_c, 7, 69, 0
1, 575322, Note_on_c, 10, 64, 72
1, 575322, Note_on_c, 10, 69, 75
1, 575322, Note_on_c, 10, 76, 73
1, 575332, Note_off_c, 8, 57, 0
1, 575332, Note_off_c, 8, 61, 0
1, 575332, Note_off_c, 13, 30, 0
1, 575332, Note_off_c, 13, 42, 0
1, 575362, Note_off_c, 7, 76, 0
1, 575512, Note_off_c, 0, 61, 64
1, 575512, Note_off_c, 0, 69, 64
1, 575512, Note_off_c, 2, 73, 64
1, 575512, Note_off_c, 2, 81, 64
1, 575512, Note_off_c, 3, 73, 64
1, 575512, Note_off_c, 3, 76, 64
1, 575512, Note_off_c, 4, 81, 0
1, 575512, Note_off_c, 5, 73, 0
1, 575520, Note_on_c, 6, 64, 68
1, 575520, Note_on_c, 6, 69, 77
1, 575520, Note_on_c, 6, 76, 73
1, 575520, Note_on_c, 8, 30, 100
1, 575520, Note_on_c, 8, 42, 100
1, 575520, Note_on_c, 13, 57, 100
1, 575520, Note_on_c, 13, 61, 100
1, 575610, Note_off_c, 10, 76, 0
1, 575612, Note_off_c, 10, 69, 0
1, 575620, Note_off_c, 10, 64, 0
1, 575654, Note_off_c, 1, 64, 0
1, 575786, Note_off_c, 6, 64, 0
1, 575804, Note_off_c, 6, 69, 0
1, 575804, Note_off_c, 6, 76, 0
1, 575812, Note_off_c, 8, 30, 0
1, 575812, Note_off_c, 8, 42, 0
1, 575812, Note_off_c, 13, 57, 0
1, 575812, Note_off_c, 13, 61, 0
1, 576000, Note_on_c, 0, 59, 100
1, 576000, Note_on_c, 0, 68, 100
1, 576000, Note_on_c, 1, 66, 77
1, 576000, Note_on_c, 2, 71, 100
1, 576000, Note_on_c, 2, 80, 100
1, 576000, Note_on_c, 3, 71, 100
1, 576000, Note_on_c, 3, 76, 100
1, 576000, Note_on_c, 4, 80, 100
1, 576000, Note_on_c, 5, 71, 100
1, 576000, Note_on_c, 7, 64, 73
1, 576000, Note_on_c, 7, 69, 77
1, 576000, Note_on_c, 7, 76, 74
1, 576000, Note_on_c, 8, 57, 100
1, 576000, Note_on_c, 8, 61, 100
1, 576000, Note_on_c, 13, 30, 100
1, 576000, Note_on_c, 13, 42, 100
1, 576282, Note_on_c, 10, 64, 69
1, 576282, Note_on_c, 10, 69, 70
1, 576282, Note_on_c, 10, 76, 72
1, 576284, Note_off_c, 7, 69, 0
1, 576292, Note_off_c, 8, 57, 0
1, 576292, Note_off_c, 8, 61, 0
1, 576292, Note_off_c, 13, 30, 0
1, 576292, Note_off_c, 13, 42, 0
1, 576316, Note_off_c, 7, 76, 0
1, 576322, Note_off_c, 7, 64, 0
1, 576472, Note_off_c, 0, 59, 64
1, 576472, Note_off_c, 0, 68, 64
1, 576472, Note_off_c, 2, 71, 64
1, 576472, Note_off_c, 2, 80, 64
1, 576472, Note_off_c, 3, 71, 64
1, 576472, Note_off_c, 3, 76, 64
1, 576472, Note_off_c, 4, 80, 0
1, 576472, Note_off_c, 5, 71, 0
1, 576480, Note_on_c, 0, 57, 100
1, 576480, Note_on_c, 0, 66, 100
1, 576480, Note_on_c, 1, 61, 70
1, 576480, Note_on_c, 2, 69, 100
1, 576480, Note_on_c, 2, 78, 100
1, 576480, Note_on_c, 3, 64, 100
1, 576480, Note_on_c, 3, 69, 100
1, 576480, Note_on_c, 4, 78, 100
1, 576480, Note_on_c, 5, 69, 100
1, 576480, Note_on_c, 6, 64, 72
1, 576480, Note_on_c, 6, 69, 52
1, 576480, Note_on_c, 6, 76, 72
1, 576480, Note_on_c, 8, 30, 100
1, 576480, Note_on_c, 8, 42, 100
1, 576480, Note_on_c, 13, 57, 100
1, 576480, Note_on_c, 13, 61, 100
1, 576546, Note_off_c, 10, 69, 0
1, 576570, Note_off_c, 10, 64, 0
1, 576586, Note_off_c, 10, 76, 0
1, 576632, Note_off_c, 6, 69, 0
1, 576642, Note_off_c, 1, 66, 0
1, 576720, Note_off_c, 6, 64, 0
1, 576726, Note_off_c, 6, 76, 0
1, 576772, Note_off_c, 8, 30, 0
1, 576772, Note_off_c, 8, 42, 0
1, 576772, Note_off_c, 13, 57, 0
1, 576772, Note_off_c, 13, 61, 0
1, 576952, Note_off_c, 0, 57, 64
1, 576952, Note_off_c, 0, 66, 64
1, 576952, Note_off_c, 2, 69, 64
1, 576952, Note_off_c, 2, 78, 64
1, 576952, Note_off_c, 3, 64, 64
1, 576952, Note_off_c, 3, 69, 64
1, 576952, Note_off_c, 4, 78, 0
1, 576952, Note_off_c, 5, 69, 0
1, 576960, Note_on_c, 7, 64, 68
1, 576960, Note_on_c, 7, 69, 70
1, 576960, Note_on_c, 7, 76, 72
1, 576960, Note_on_c, 8, 56, 100
1, 576960, Note_on_c, 8, 61, 100
1, 576960, Note_on_c, 13, 37, 100
1, 576960, Note_on_c, 13, 49, 100
1, 577108, Note_off_c, 1, 61, 0
1, 577242, Note_on_c, 10, 64, 68
1, 577242, Note_on_c, 10, 69, 77
1, 577242, Note_on_c, 10, 76, 73
1, 577250, Note_off_c, 7, 69, 0
1, 577252, Note_off_c, 8, 56, 0
1, 577252, Note_off_c, 8, 61, 0
1, 577252, Note_off_c, 13, 37, 0
1, 577252, Note_off_c, 13, 49, 0
1, 577268, Note_off_c, 7, 76, 0
1, 577274, Note_off_c, 7, 64, 0
1, 577440, Note_on_c, 0, 59, 100
1, 577440, Note_on_c, 0, 68, 100
1, 577440, Note_on_c, 1, 69, 77
1, 577440, Note_on_c, 2, 71, 100
1, 577440, Note_on_c, 2, 80, 100
1, 577440, Note_on_c, 3, 71, 100
1, 577440, Note_on_c, 3, 76, 100
1, 577440, Note_on_c, 4, 80, 100
1, 577440, Note_on_c, 5, 71, 100
1, 577440, Note_on_c, 6, 64, 68
1, 577440, Note_on_c, 6, 69, 70
1, 577440, Note_on_c, 6, 76, 74
1, 577440, Note_on_c, 8, 37, 100
1, 577440, Note_on_c, 8, 49, 100
1, 577440, Note_on_c, 13, 56, 100
1, 577440, Note_on_c, 13, 61, 100
1, 577508, Note_off_c, 10, 64, 0
1, 577526, Note_off_c, 10, 69, 0
1, 577526, Note_off_c, 10, 76, 0
1, 577672, Note_off_c, 6, 69, 0
1, 577682, Note_off_c, 6, 64, 0
1, 577690, Note_off_c, 6, 76, 0
1, 577732, Note_off_c, 8, 37, 0
1, 577732, Note_off_c, 8, 49, 0
1, 577732, Note_off_c, 13, 56, 0
1, 577732, Note_off_c, 13, 61, 0
1, 577912, Note_off_c, 0, 59, 64
1, 577912, Note_off_c, 0, 68, 64
1, 577912, Note_off_c, 2, 71, 64
1, 577912, Note_off_c, 2, 80, 64
1, 577912, Note_off_c, 3, 71, 64
1, 577912, Note_off_c, 3, 76, 64
1, 577912, Note_off_c, 4, 80, 0
1, 577912, Note_off_c, 5, 71, 0
1, 577920, Note_on_c, 7, 64, 68
1, 577920, Note_on_c, 7, 69, 70
1, 577920, Note_on_c, 7, 76, 73
1, 577920, Note_on_c, 8, 56, 100
1, 577920, Note_on_c, 8, 61, 100
1, 577920, Note_on_c, 13, 37, 100
1, 577920, Note_on_c, 13, 49, 100
1, 578088, Note_off_c, 1, 69, 0
1, 578168, Note_off_c, 7, 64, 0
1, 578182, Note_off_c, 7, 69, 0
1, 578182, Note_off_c, 7, 76, 0
1, 578202, Note_on_c, 10, 64, 72
1, 578202, Note_on_c, 10, 69, 52
1, 578202, Note_on_c, 10, 76, 72
1, 578212, Note_off_c, 8, 56, 0
1, 578212, Note_off_c, 8, 61, 0
1, 578212, Note_off_c, 13, 37, 0
1, 578212, Note_off_c, 13, 49, 0
1, 578354, Note_off_c, 10, 69, 0
1, 578400, Note_on_c, 0, 61, 100
1, 578400, Note_on_c, 0, 69, 100
1, 578400, Note_on_c, 1, 64, 68
1, 578400, Note_on_c, 2, 73, 100
1, 578400, Note_on_c, 2, 81, 100
1, 578400, Note_on_c, 3, 73, 100
1, 578400, Note_on_c, 3, 76, 100
1, 578400, Note_on_c, 4, 81, 100
1, 578400, Note_on_c, 5, 73, 100
1, 578400, Note_on_c, 6, 64, 68
1, 578400, Note_on_c, 6, 69, 69
1, 578400, Note_on_c, 6, 76, 72
1, 578400, Note_on_c, 8, 37, 100
1, 578400, Note_on_c, 8, 49, 100
1, 578400, Note_on_c, 13, 56, 100
1, 578400, Note_on_c, 13, 61, 100
1, 578442, Note_off_c, 10, 64, 0
1, 578448, Note_off_c, 10, 76, 0
1, 578616, Note_off_c, 6, 76, 0
1, 578618, Note_off_c, 6, 69, 0
1, 578632, Note_off_c, 6, 64, 0
1, 578692, Note_off_c, 8, 37, 0
1, 578692, Note_off_c, 8, 49, 0
1, 578692, Note_off_c, 13, 56, 0
1, 578692, Note_off_c, 13, 61, 0
1, 578844, Note_off_c, 1, 64, 0
1, 578872, Note_off_c, 0, 61, 64
1, 578872, Note_off_c, 0, 69, 64
1, 578872, Note_off_c, 2, 73, 64
1, 578872, Note_off_c, 2, 81, 64
1, 578872, Note_off_c, 3, 73, 64
1, 578872, Note_off_c, 3, 76, 64
1, 578872, Note_off_c, 4, 81, 0
1, 578872, Note_off_c, 5, 73, 0
1, 578880, Note_on_c, 0, 57, 100
1, 578880, Note_on_c, 0, 66, 100
1, 578880, Note_on_c, 1, 66, 78
1, 578880, Note_on_c, 2, 69, 100
1, 578880, Note_on_c, 2, 78, 100
1, 578880, Note_on_c, 3, 64, 100
1, 578880, Note_on_c, 3, 69, 100
1, 578880, Note_on_c, 4, 78, 100
1, 578880, Note_on_c, 5, 69, 100
1, 578880, Note_on_c, 7, 64, 70
1, 578880, Note_on_c, 7, 69, 83
1, 578880, Note_on_c, 7, 76, 74
1, 578880, Note_on_c, 8, 57, 100
1, 578880, Note_on_c, 8, 61, 100
1, 578880, Note_on_c, 13, 30, 100
1, 578880, Note_on_c, 13, 42, 100
1, 579120, Note_off_c, 7, 64, 0
1, 579120, Note_off_c, 7, 76, 0
1, 579130, Note_off_c, 7, 69, 0
1, 579162, Note_on_c, 10, 64, 68
1, 579162, Note_on_c, 10, 69, 70
1, 579162, Note_on_c, 10, 76, 74
1, 579172, Note_off_c, 8, 57, 0
1, 579172, Note_off_c, 8, 61, 0
1, 579172, Note_off_c, 13, 30, 0
1, 579172, Note_off_c, 13, 42, 0
1, 579352, Note_off_c, 0, 57, 64
1, 579352, Note_off_c, 0, 66, 64
1, 579352, Note_off_c, 2, 69, 64
1, 579352, Note_off_c, 2, 78, 64
1, 579352, Note_off_c, 3, 64, 64
1, 579352, Note_off_c, 3, 69, 64
1, 579352, Note_off_c, 4, 78, 0
1, 579352, Note_off_c, 5, 69, 0
1, 579360, Note_on_c, 6, 64, 67
1, 579360, Note_on_c, 6, 69, 67
1, 579360, Note_on_c, 6, 76, 72
1, 579360, Note_on_c, 8, 30, 100
1, 579360, Note_on_c, 8, 42, 100
1, 579360, Note_on_c, 13, 57, 100
1, 579360, Note_on_c, 13, 61, 100
1, 579394, Note_off_c, 10, 69, 0
1, 579404, Note_off_c, 10, 64, 0
1, 579412, Note_off_c, 10, 76, 0
1, 579548, Note_off_c, 1, 66, 0
1, 579606, Note_off_c, 6, 64, 0
1, 579610, Note_off_c, 6, 69, 0
1, 579626, Note_off_c, 6, 76, 0
1, 579652, Note_off_c, 8, 30, 0
1, 579652, Note_off_c, 8, 42, 0
1, 579652, Note_off_c, 13, 57, 0
1, 579652, Note_off_c, 13, 61, 0
1, 579840, Note_on_c, 0, 59, 100
1, 579840, Note_on_c, 0, 68, 100
1, 579840, Note_on_c, 1, 59, 74
1, 579840, Note_on_c, 2, 71, 100
1, 579840, Note_on_c, 2, 80, 100
1, 579840, Note_on_c, 3, 71, 100
1, 579840, Note_on_c, 3, 76, 100
1, 579840, Note_on_c, 4, 80, 100
1, 579840, Note_on_c, 5, 71, 100
1, 579840, Note_on_c, 7, 64, 67
1, 579840, Note_on_c, 7, 69, 78
1, 579840, Note_on_c, 7, 76, 73
1, 579840, Note_on_c, 8, 57, 100
1, 579840, Note_on_c, 8, 61, 100
1, 579840, Note_on_c, 13, 30, 100
1, 579840, Note_on_c, 13, 42, 100
1, 580090, Note_off_c, 7, 76, 0
1, 580096, Note_off_c, 7, 69, 0
1, 580104, Note_off_c, 7, 64, 0
1, 580122, Note_on_c, 10, 64, 68
1, 580122, Note_on_c, 10, 69, 69
1, 580122, Note_on_c, 10, 76, 72
1, 580132, Note_off_c, 8, 57, 0
1, 580132, Note_off_c, 8, 61, 0
1, 580132, Note_off_c, 13, 30, 0
1, 580132, Note_off_c, 13, 42, 0
1, 580312, Note_off_c, 0, 59, 64
1, 580312, Note_off_c, 0, 68, 64
1, 580312, Note_off_c, 2, 71, 64
1, 580312, Note_off_c, 2, 80, 64
1, 580312, Note_off_c, 3, 71, 64
1, 580312, Note_off_c, 3, 76, 64
1, 580312, Note_off_c, 4, 80, 0
1, 580312, Note_off_c, 5, 71, 0
1, 580320, Note_on_c, 0, 57, 100
1, 580320, Note_on_c, 0, 66, 100
1, 580320, Note_on_c, 1, 69, 75
1, 580320, Note_on_c, 2, 69, 100
1, 580320, Note_on_c, 2, 78, 100
1, 580320, Note_on_c, 3, 66, 100
1, 580320, Note_on_c, 3, 69, 100
1, 580320, Note_on_c, 4, 78, 100
1, 580320, Note_on_c, 5, 69, 100
1, 580320, Note_on_c, 6, 64, 67
1, 580320, Note_on_c, 6, 69, 63
1, 580320, Note_on_c, 6, 76, 72
1, 580320, Note_on_c, 8, 30, 100
1, 580320, Note_on_c, 8, 42, 100
1, 580320, Note_on_c, 13, 57, 100
1, 580320, Note_on_c, 13, 61, 100
1, 580328, Note_off_c, 1, 59, 0
1, 580338, Note_off_c, 10, 76, 0
1, 580340, Note_off_c, 10, 69, 0
1, 580354, Note_off_c, 10, 64, 0
1, 580568, Note_off_c, 6, 69, 0
1, 580596, Note_off_c, 6, 64, 0
1, 580612, Note_off_c, 6, 76, 0
1, 580612, Note_off_c, 8, 30, 0
1, 580612, Note_off_c, 8, 42, 0
1, 580612, Note_off_c, 13, 57, 0
1, 580612, Note_off_c, 13, 61, 0
1, 580792, Note_off_c, 0, 57, 64
1, 580792, Note_off_c, 0, 66, 64
1, 580792, Note_off_c, 2, 69, 64
1, 580792, Note_off_c, 2, 78, 64
1, 580792, Note_off_c, 3, 66, 64
1, 580792, Note_off_c, 3, 69, 64
1, 580792, Note_off_c, 4, 78, 0
1, 580792, Note_off_c, 5, 69, 0
1, 580800, Note_on_c, 0, 61, 100
1, 580800, Note_on_c, 0, 69, 100
1, 580800, Note_on_c, 1, 64, 73
1, 580800, Note_on_c, 2, 73, 100
1, 580800, Note_on_c, 2, 81, 100
1, 580800, Note_on_c, 3, 73, 100
1, 580800, Note_on_c, 3, 76, 100
1, 580800, Note_on_c, 4, 81, 100
1, 580800, Note_on_c, 5, 73, 100
1, 580800, Note_on_c, 7, 64, 69
1, 580800, Note_on_c, 7, 69, 70
1, 580800, Note_on_c, 7, 76, 73
1, 580800, Note_on_c, 8, 57, 100
1, 580800, Note_on_c, 8, 61, 100
1, 580800, Note_on_c, 13, 30, 100
1, 580800, Note_on_c, 13, 42, 100
1, 580926, Note_off_c, 1, 69, 0
1, 581020, Note_off_c, 7, 69, 0
1, 581042, Note_off_c, 7, 76, 0
1, 581052, Note_off_c, 7, 64, 0
1, 581082, Note_on_c, 10, 64, 67
1, 581082, Note_on_c, 10, 69, 67
1, 581082, Note_on_c, 10, 76, 72
1, 581092, Note_off_c, 8, 57, 0
1, 581092, Note_off_c, 8, 61, 0
1, 581092, Note_off_c, 13, 30, 0
1, 581092, Note_off_c, 13, 42, 0
1, 581272, Note_off_c, 0, 61, 64
1, 581272, Note_off_c, 0, 69, 64
1, 581272, Note_off_c, 2, 73, 64
1, 581272, Note_off_c, 2, 81, 64
1, 581272, Note_off_c, 3, 73, 64
1, 581272, Note_off_c, 3, 76, 64
1, 581272, Note_off_c, 4, 81, 0
1, 581272, Note_off_c, 5, 73, 0
1, 581280, Note_on_c, 6, 64, 68
1, 581280, Note_on_c, 6, 69, 66
1, 581280, Note_on_c, 6, 76, 70
1, 581280, Note_on_c, 8, 30, 100
1, 581280, Note_on_c, 8, 42, 100
1, 581280, Note_on_c, 13, 57, 100
1, 581280, Note_on_c, 13, 61, 100
1, 581328, Note_off_c, 10, 64, 0
1, 581332, Note_off_c, 10, 69, 0
1, 581348, Note_off_c, 10, 76, 0
1, 581476, Note_off_c, 6, 69, 0
1, 581500, Note_off_c, 6, 64, 0
1, 581506, Note_off_c, 1, 64, 0
1, 581518, Note_off_c, 6, 76, 0
1, 581572, Note_off_c, 8, 30, 0
1, 581572, Note_off_c, 8, 42, 0
1, 581572, Note_off_c, 13, 57, 0
1, 581572, Note_off_c, 13, 61, 0
1, 581760, Note_on_c, 0, 59, 100
1, 581760, Note_on_c, 0, 68, 100
1, 581760, Note_on_c, 1, 66, 68
1, 581760, Note_on_c, 2, 71, 100
1, 581760, Note_on_c, 2, 80, 100
1, 581760, Note_on_c, 3, 71, 100
1, 581760, Note_on_c, 3, 76, 100
1, 581760, Note_on_c, 4, 80, 100
1, 581760, Note_on_c, 5, 71, 100
1, 581760, Note_on_c, 7, 64, 69
1, 581760, Note_on_c, 7, 69, 75
1, 581760, Note_on_c, 7, 76, 73
1, 581760, Note_on_c, 8, 56, 100
1, 581760, Note_on_c, 8, 61, 100
1, 581760, Note_on_c, 13, 37, 100
1, 581760, Note_on_c, 13, 49, 100
1, 581974, Note_off_c, 7, 69, 0
1, 581990, Note_off_c, 7, 64, 0
1, 582004, Note_off_c, 7, 76, 0
1, 582042, Note_on_c, 10, 64, 67
1, 582042, Note_on_c, 10, 69, 63
1, 582042, Note_on_c, 10, 76, 72
1, 582052, Note_off_c, 8, 56, 0
1, 582052, Note_off_c, 8, 61, 0
1, 582052, Note_off_c, 13, 37, 0
1, 582052, Note_off_c, 13, 49, 0
1, 582232, Note_off_c, 0, 59, 64
1, 582232, Note_off_c, 0, 68, 64
1, 582232, Note_off_c, 2, 71, 64
1, 582232, Note_off_c, 2, 80, 64
1, 582232, Note_off_c, 3, 71, 64
1, 582232, Note_off_c, 3, 76, 64
1, 582232, Note_off_c, 4, 80, 0
1, 582232, Note_off_c, 5, 71, 0
1, 582240, Note_on_c, 0, 57, 100
1, 582240, Note_on_c, 0, 66, 100
1, 582240, Note_on_c, 1, 61, 68
1, 582240, Note_on_c, 2, 69, 100
1, 582240, Note_on_c, 2, 78, 100
1, 582240, Note_on_c, 3, 64, 100
1, 582240, Note_on_c, 3, 69, 100
1, 582240, Note_on_c, 4, 78, 100
1, 582240, Note_on_c, 5, 69, 100
1, 582240, Note_on_c, 6, 64, 68
1, 582240, Note_on_c, 6, 69, 63
1, 582240, Note_on_c, 6, 76, 72
1, 582240, Note_on_c, 8, 37, 100
1, 582240, Note_on_c, 8, 49, 100
1, 582240, Note_on_c, 13, 56, 100
1, 582240, Note_on_c, 13, 61, 100
1, 582276, Note_off_c, 1, 66, 0
1, 582290, Note_off_c, 10, 69, 0
1, 582318, Note_off_c, 10, 64, 0
1, 582334, Note_off_c, 10, 76, 0
1, 582450, Note_off_c, 6, 64, 0
1, 582484, Note_off_c, 6, 76, 0
1, 582502, Note_off_c, 6, 69, 0
1, 582532, Note_off_c, 8, 37, 0
1, 582532, Note_off_c, 8, 49, 0
1, 582532, Note_off_c, 13, 56, 0
1, 582532, Note_off_c, 13, 61, 0
1, 582712, Note_off_c, 0, 57, 64
1, 582712, Note_off_c, 0, 66, 64
1, 582712, Note_off_c, 2, 69, 64
1, 582712, Note_off_c, 2, 78, 64
1, 582712, Note_off_c, 3, 64, 64
1, 582712, Note_off_c, 3, 69, 64
1, 582712, Note_off_c, 4, 78, 0
1, 582712, Note_off_c, 5, 69, 0
1, 582720, Note_on_c, 7, 64, 68
1, 582720, Note_on_c, 7, 69, 74
1, 582720, Note_on_c, 7, 76, 74
1, 582720, Note_on_c, 8, 56, 100
1, 582720, Note_on_c, 8, 61, 100
1, 582720, Note_on_c, 13, 37, 100
1, 582720, Note_on_c, 13, 49, 100
1, 582944, Note_off_c, 7, 69, 0
1, 582984, Note_off_c, 7, 64, 0
1, 582994, Note_off_c, 7, 76, 0
1, 583002, Note_on_c, 10, 64, 68
1, 583002, Note_on_c, 10, 69, 66
1, 583002, Note_on_c, 10, 76, 70
1, 583010, Note_off_c, 1, 61, 0
1, 583012, Note_off_c, 8, 56, 0
1, 583012, Note_off_c, 8, 61, 0
1, 583012, Note_off_c, 13, 37, 0
1, 583012, Note_off_c, 13, 49, 0
1, 583198, Note_off_c, 10, 69, 0
1, 583200, Note_on_c, 0, 59, 100
1, 583200, Note_on_c, 0, 68, 100
1, 583200, Note_on_c, 1, 69, 77
1, 583200, Note_on_c, 2, 71, 100
1, 583200, Note_on_c, 2, 80, 100
1, 583200, Note_on_c, 3, 71, 100
1, 583200, Note_on_c, 3, 76, 100
1, 583200, Note_on_c, 4, 80, 100
1, 583200, Note_on_c, 5, 71, 100
1, 583200, Note_on_c, 6, 64, 70
1, 583200, Note_on_c, 6, 69, 69
1, 583200, Note_on_c, 6, 76, 72
1, 583200, Note_on_c, 8, 37, 100
1, 583200, Note_on_c, 8, 49, 100
1, 583200, Note_on_c, 13, 56, 100
1, 583200, Note_on_c, 13, 61, 100
1, 583222, Note_off_c, 10, 64, 0
1, 583240, Note_off_c, 10, 76, 0
1, 583434, Note_off_c, 6, 69, 0
1, 583462, Note_off_c, 6, 64, 0
1, 583462, Note_off_c, 6, 76, 0
1, 583492, Note_off_c, 8, 37, 0
1, 583492, Note_off_c, 8, 49, 0
1, 583492, Note_off_c, 13, 56, 0
1, 583492, Note_off_c, 13, 61, 0
1, 583672, Note_off_c, 0, 59, 64
1, 583672, Note_off_c, 0, 68, 64
1, 583672, Note_off_c, 2, 71, 64
1, 583672, Note_off_c, 2, 80, 64
1, 583672, Note_off_c, 3, 71, 64
1, 583672, Note_off_c, 3, 76, 64
1, 583672, Note_off_c, 4, 80, 0
1, 583672, Note_off_c, 5, 71, 0
1, 583680, Note_on_c, 7, 64, 68
1, 583680, Note_on_c, 7, 69, 73
1, 583680, Note_on_c, 7, 76, 73
1, 583680, Note_on_c, 8, 56, 100
1, 583680, Note_on_c, 8, 61, 100
1, 583680, Note_on_c, 13, 37, 100
1, 583680, Note_on_c, 13, 49, 100
1, 583824, Note_off_c, 1, 69, 0
1, 583904, Note_off_c, 7, 64, 0
1, 583928, Note_off_c, 7, 69, 0
1, 583928, Note_off_c, 7, 76, 0
1, 583962, Note_on_c, 10, 64, 68
1, 583962, Note_on_c, 10, 69, 63
1, 583962, Note_on_c, 10, 76, 72
1, 583972, Note_off_c, 8, 56, 0
1, 583972, Note_off_c, 8, 61, 0
1, 583972, Note_off_c, 13, 37, 0
1, 583972, Note_off_c, 13, 49, 0
1, 584160, Note_on_c, 0, 61, 100
1, 584160, Note_on_c, 0, 69, 100
1, 584160, Note_on_c, 1, 64, 70
1, 584160, Note_on_c, 2, 73, 100
1, 584160, Note_on_c, 2, 81, 100
1, 584160, Note_on_c, 3, 73, 100
1, 584160, Note_on_c, 3, 76, 100
1, 584160, Note_on_c, 4, 81, 100
1, 584160, Note_on_c, 5, 73, 100
1, 584160, Note_on_c, 6, 64, 68
1, 584160, Note_on_c, 6, 69, 70
1, 584160, Note_on_c, 6, 76, 70
1, 584160, Note_on_c, 8, 37, 100
1, 584160, Note_on_c, 8, 49, 100
1, 584160, Note_on_c, 13, 56, 100
1, 584160, Note_on_c, 13, 61, 100
1, 584172, Note_off_c, 10, 64, 0
1, 584206, Note_off_c, 10, 76, 0
1, 584224, Note_off_c, 10, 69, 0
1, 584368, Note_off_c, 6, 64, 0
1, 584396, Note_off_c, 6, 69, 0
1, 584400, Note_off_c, 6, 76, 0
1, 584452, Note_off_c, 8, 37, 0
1, 584452, Note_off_c, 8, 49, 0
1, 584452, Note_off_c, 13, 56, 0
1, 584452, Note_off_c, 13, 61, 0
1, 584632, Note_off_c, 0, 61, 64
1, 584632, Note_off_c, 0, 69, 64
1, 584632, Note_off_c, 2, 73, 64
1, 584632, Note_off_c, 2, 81, 64
1, 584632, Note_off_c, 3, 73, 64
1, 584632, Note_off_c, 3, 76, 64
1, 584632, Note_off_c, 4, 81, 0
1, 584632, Note_off_c, 5, 73, 0
1, 584640, Note_on_c, 0, 57, 100
1, 584640, Note_on_c, 0, 66, 100
1, 584640, Note_on_c, 1, 66, 77
1, 584640, Note_on_c, 2, 69, 100
1, 584640, Note_on_c, 2, 78, 100
1, 584640, Note_on_c, 3, 64, 100
1, 584640, Note_on_c, 3, 69, 100
1, 584640, Note_on_c, 4, 78, 100
1, 584640, Note_on_c, 5, 69, 100
1, 584640, Note_on_c, 7, 64, 66
1, 584640, Note_on_c, 7, 69, 74
1, 584640, Note_on_c, 7, 76, 73
1, 584640, Note_on_c, 8, 57, 100
1, 584640, Note_on_c, 8, 61, 100
1, 584640, Note_on_c, 13, 30, 100
1, 584640, Note_on_c, 13, 42, 100
1, 584792, Note_off_c, 1, 64, 0
1, 584874, Note_off_c, 7, 64, 0
1, 584894, Note_off_c, 7, 76, 0
1, 584922, Note_off_c, 7, 69, 0
1, 584922, Note_on_c, 10, 64, 70
1, 584922, Note_on_c, 10, 69, 69
1, 584922, Note_on_c, 10, 76, 72
1, 584932, Note_off_c, 8, 57, 0
1, 584932, Note_off_c, 8, 61, 0
1, 584932, Note_off_c, 13, 30, 0
1, 584932, Note_off_c, 13, 42, 0
1, 585112, Note_off_c, 0, 57, 64
1, 585112, Note_off_c, 0, 66, 64
1, 585112, Note_off_c, 2, 69, 64
1, 585112, Note_off_c, 2, 78, 64
1, 585112, Note_off_c, 3, 64, 64
1, 585112, Note_off_c, 3, 69, 64
1, 585112, Note_off_c, 4, 78, 0
1, 585112, Note_off_c, 5, 69, 0
1, 585120, Note_on_c, 6, 64, 67
1, 585120, Note_on_c, 6, 69, 73
1, 585120, Note_on_c, 6, 76, 74
1, 585120, Note_on_c, 8, 30, 100
1, 585120, Note_on_c, 8, 42, 100
1, 585120, Note_on_c, 13, 57, 100
1, 585120, Note_on_c, 13, 61, 100
1, 585156, Note_off_c, 10, 69, 0
1, 585184, Note_off_c, 10, 64, 0
1, 585184, Note_off_c, 10, 76, 0
1, 585284, Note_off_c, 1, 66, 0
1, 585336, Note_off_c, 6, 64, 0
1, 585356, Note_off_c, 6, 76, 0
1, 585366, Note_off_c, 6, 69, 0
1, 585412, Note_off_c, 8, 30, 0
1, 585412, Note_off_c, 8, 42, 0
1, 585412, Note_off_c, 13, 57, 0
1, 585412, Note_off_c, 13, 61, 0
1, 585600, Note_on_c, 0, 59, 100
1, 585600, Note_on_c, 0, 68, 100
1, 585600, Note_on_c, 1, 59, 65
1, 585600, Note_on_c, 2, 71, 100
1, 585600, Note_on_c, 2, 80, 100
1, 585600, Note_on_c, 3, 71, 100
1, 585600, Note_on_c, 3, 76, 100
1, 585600, Note_on_c, 4, 80, 100
1, 585600, Note_on_c, 5, 71, 100
1, 585600, Note_on_c, 7, 64, 66
1, 585600, Note_on_c, 7, 69, 77
1, 585600, Note_on_c, 7, 76, 70
1, 585600, Note_on_c, 8, 57, 100
1, 585600, Note_on_c, 8, 61, 100
1, 585600, Note_on_c, 13, 30, 100
1, 585600, Note_on_c, 13, 42, 100
1, 585828, Note_off_c, 7, 64, 0
1, 585882, Note_on_c, 10, 64, 68
1, 585882, Note_on_c, 10, 69, 70
1, 585882, Note_on_c, 10, 76, 70
1, 585886, Note_off_c, 7, 69, 0
1, 585892, Note_off_c, 8, 57, 0
1, 585892, Note_off_c, 8, 61, 0
1, 585892, Note_off_c, 13, 30, 0
1, 585892, Note_off_c, 13, 42, 0
1, 585910, Note_off_c, 7, 76, 0
1, 586072, Note_off_c, 0, 59, 64
1, 586072, Note_off_c, 0, 68, 64
1, 586072, Note_off_c, 2, 71, 64
1, 586072, Note_off_c, 2, 80, 64
1, 586072, Note_off_c, 3, 71, 64
1, 586072, Note_off_c, 3, 76, 64
1, 586072, Note_off_c, 4, 80, 0
1, 586072, Note_off_c, 5, 71, 0
1, 586080, Note_on_c, 0, 57, 100
1, 586080, Note_on_c, 0, 66, 100
1, 586080, Note_on_c, 1, 69, 74
1, 586080, Note_on_c, 2, 69, 100
1, 586080, Note_on_c, 2, 78, 100
1, 586080, Note_on_c, 3, 66, 100
1, 586080, Note_on_c, 3, 69, 100
1, 586080, Note_on_c, 4, 78, 100
1, 586080, Note_on_c, 5, 69, 100
1, 586080, Note_on_c, 6, 64, 68
1, 586080, Note_on_c, 6, 69, 74
1, 586080, Note_on_c, 6, 76, 75
1, 586080, Note_on_c, 8, 30, 100
1, 586080, Note_on_c, 8, 42, 100
1, 586080, Note_on_c, 13, 57, 100
1, 586080, Note_on_c, 13, 61, 100
1, 586090, Note_off_c, 10, 64, 0
1, 586118, Note_off_c, 10, 69, 0
1, 586122, Note_off_c, 10, 76, 0
1, 586174, Note_off_c, 1, 59, 0
1, 586352, Note_off_c, 6, 69, 0
1, 586356, Note_off_c, 6, 64, 0
1, 586370, Note_off_c, 6, 76, 0
1, 586372, Note_off_c, 8, 30, 0
1, 586372, Note_off_c, 8, 42, 0
1, 586372, Note_off_c, 13, 57, 0
1, 586372, Note_off_c, 13, 61, 0
1, 586552, Note_off_c, 0, 57, 64
1, 586552, Note_off_c, 0, 66, 64
1, 586552, Note_off_c, 2, 69, 64
1, 586552, Note_off_c, 2, 78, 64
1, 586552, Note_off_c, 3, 66, 64
1, 586552, Note_off_c, 3, 69, 64
1, 586552, Note_off_c, 4, 78, 0
1, 586552, Note_off_c, 5, 69, 0
1, 586560, Note_on_c, 0, 61, 100
1, 586560, Note_on_c, 0, 69, 100
1, 586560, Note_on_c, 1, 64, 68
1, 586560, Note_on_c, 2, 73, 100
1, 586560, Note_on_c, 2, 81, 100
1, 586560, Note_on_c, 3, 73, 100
1, 586560, Note_on_c, 3, 76, 100
1, 586560, Note_on_c, 4, 81, 100
1, 586560, Note_on_c, 5, 73, 100
1, 586560, Note_on_c, 7, 64, 65
1, 586560, Note_on_c, 7, 69, 72
1, 586560, Note_on_c, 7, 76, 72
1, 586560, Note_on_c, 8, 56, 100
1, 586560, Note_on_c, 8, 61, 100
1, 586560, Note_on_c, 13, 37, 100
1, 586560, Note_on_c, 13, 49, 100
1, 586772, Note_off_c, 1, 69, 0
1, 586836, Note_off_c, 7, 64, 0
1, 586842, Note_on_c, 10, 64, 67
1, 586842, Note_on_c, 10, 69, 73
1, 586842, Note_on_c, 10, 76, 74
1, 586850, Note_off_c, 7, 69, 0
1, 586852, Note_off_c, 7, 76, 0
1, 586852, Note_off_c, 8, 56, 0
1, 586852, Note_off_c, 8, 61, 0
1, 586852, Note_off_c, 13, 37, 0
1, 586852, Note_off_c, 13, 49, 0
1, 587032, Note_off_c, 0, 61, 64
1, 587032, Note_off_c, 0, 69, 64
1, 587032, Note_off_c, 2, 73, 64
1, 587032, Note_off_c, 2, 81, 64
1, 587032, Note_off_c, 3, 73, 64
1, 587032, Note_off_c, 3, 76, 64
1, 587032, Note_off_c, 4, 81, 0
1, 587032, Note_off_c, 5, 73, 0
1, 587040, Note_on_c, 6, 64, 73
1, 587040, Note_on_c, 6, 69, 80
1, 587040, Note_on_c, 6, 76, 77
1, 587040, Note_on_c, 8, 37, 100
1, 587040, Note_on_c, 8, 49, 100
1, 587040, Note_on_c, 13, 56, 100
1, 587040, Note_on_c, 13, 61, 100
1, 587058, Note_off_c, 10, 64, 0
1, 587078, Note_off_c, 10, 76, 0
1, 587088, Note_off_c, 10, 69, 0
1, 587174, Note_off_c, 1, 64, 0
1, 587302, Note_off_c, 6, 64, 0
1, 587318, Note_off_c, 6, 69, 0
1, 587328, Note_off_c, 6, 76, 0
1, 587332, Note_off_c, 8, 37, 0
1, 587332, Note_off_c, 8, 49, 0
1, 587332, Note_off_c, 13, 56, 0
1, 587332, Note_off_c, 13, 61, 0
1, 587520, Note_on_c, 1, 66, 77
1, 587520, Note_on_c, 3, 71, 100
1, 587520, Note_on_c, 3, 76, 100
1, 587520, Note_on_c, 7, 64, 67
1, 587520, Note_on_c, 7, 69, 75
1, 587520, Note_on_c, 7, 76, 70
1, 587520, Note_on_c, 8, 56, 100
1, 587520, Note_on_c, 8, 61, 100
1, 587520, Note_on_c, 13, 37, 100
1, 587520, Note_on_c, 13, 49, 100
1, 587750, Note_off_c, 7, 69, 0
1, 587768, Note_off_c, 7, 64, 0
1, 587778, Note_off_c, 7, 76, 0
1, 587802, Note_on_c, 10, 64, 68
1, 587802, Note_on_c, 10, 69, 74
1, 587802, Note_on_c, 10, 76, 75
1, 587812, Note_off_c, 8, 56, 0
1, 587812, Note_off_c, 8, 61, 0
1, 587812, Note_off_c, 13, 37, 0
1, 587812, Note_off_c, 13, 49, 0
1, 587992, Note_off_c, 3, 71, 64
1, 587992, Note_off_c, 3, 76, 64
1, 588000, Note_on_c, 1, 61, 70
1, 588000, Note_on_c, 3, 64, 100
1, 588000, Note_on_c, 3, 69, 100
1, 588000, Note_on_c, 6, 64, 68
1, 588000, Note_on_c, 6, 69, 70
1, 588000, Note_on_c, 6, 76, 74
1, 588000, Note_on_c, 8, 37, 100
1, 588000, Note_on_c, 8, 49, 100
1, 588000, Note_on_c, 13, 56, 100
1, 588000, Note_on_c, 13, 61, 100
1, 588074, Note_off_c, 10, 69, 0
1, 588078, Note_off_c, 10, 64, 0
1, 588092, Note_off_c, 10, 76, 0
1, 588162, Note_off_c, 1, 66, 0
1, 588286, Note_off_c, 6, 64, 0
1, 588292, Note_off_c, 8, 37, 0
1, 588292, Note_off_c, 8, 49, 0
1, 588292, Note_off_c, 13, 56, 0
1, 588292, Note_off_c, 13, 61, 0
1, 588298, Note_off_c, 6, 69, 0
1, 588298, Note_off_c, 6, 76, 0
1, 588472, Note_off_c, 3, 64, 64
1, 588472, Note_off_c, 3, 69, 64
1, 588480, Note_on_c, 7, 64, 66
1, 588480, Note_on_c, 7, 69, 68
1, 588480, Note_on_c, 7, 76, 72
1, 588480, Note_on_c, 8, 56, 100
1, 588480, Note_on_c, 8, 61, 100
1, 588480, Note_on_c, 13, 37, 100
1, 588480, Note_on_c, 13, 49, 100
1, 588628, Note_off_c, 1, 61, 0
1, 588740, Note_off_c, 7, 69, 0
1, 588750, Note_off_c, 7, 64, 0
1, 588754, Note_off_c, 7, 76, 0
1, 588762, Note_on_c, 10, 64, 73
1, 588762, Note_on_c, 10, 69, 80
1, 588762, Note_on_c, 10, 76, 77
1, 588772, Note_off_c, 8, 56, 0
1, 588772, Note_off_c, 8, 61, 0
1, 588772, Note_off_c, 13, 37, 0
1, 588772, Note_off_c, 13, 49, 0
1, 588960, Note_on_c, 1, 69, 77
1, 588960, Note_on_c, 3, 71, 100
1, 588960, Note_on_c, 3, 76, 100
1, 588960, Note_on_c, 6, 64, 70
1, 588960, Note_on_c, 6, 69, 74
1, 588960, Note_on_c, 6, 76, 74
1, 588960, Note_on_c, 8, 37, 100
1, 588960, Note_on_c, 8, 49, 100
1, 588960, Note_on_c, 13, 56, 100
1, 588960, Note_on_c, 13, 61, 100
1, 589024, Note_off_c, 10, 64, 0
1, 589040, Note_off_c, 10, 69, 0
1, 589050, Note_off_c, 10, 76, 0
1, 589164, Note_off_c, 6, 64, 0
1, 589194, Note_off_c, 6, 76, 0
1, 589232, Note_off_c, 6, 69, 0
1, 589252, Note_off_c, 8, 37, 0
1, 589252, Note_off_c, 8, 49, 0
1, 589252, Note_off_c, 13, 56, 0
1, 589252, Note_off_c, 13, 61, 0
1, 589432, Note_off_c, 3, 71, 64
1, 589432, Note_off_c, 3, 76, 64
1, 589440, Note_on_c, 7, 64, 62
1, 589440, Note_on_c, 7, 69, 60
1, 589440, Note_on_c, 7, 76, 70
1, 589440, Note_on_c, 8, 56, 100
1, 589440, Note_on_c, 8, 61, 100
1, 589440, Note_on_c, 13, 37, 100
1, 589440, Note_on_c, 13, 49, 100
1, 589608, Note_off_c, 1, 69, 0
1, 589700, Note_off_c, 7, 69, 0
1, 589718, Note_off_c, 7, 64, 0
1, 589722, Note_on_c, 10, 64, 68
1, 589722, Note_on_c, 10, 69, 70
1, 589722, Note_on_c, 10, 76, 74
1, 589732, Note_off_c, 8, 56, 0
1, 589732, Note_off_c, 8, 61, 0
1, 589732, Note_off_c, 13, 37, 0
1, 589732, Note_off_c, 13, 49, 0
1, 589778, Note_off_c, 7, 76, 0
1, 589920, Note_on_c, 1, 64, 68
1, 589920, Note_on_c, 3, 73, 100
1, 589920, Note_on_c, 3, 76, 100
1, 589920, Note_on_c, 6, 64, 68
1, 589920, Note_on_c, 6, 69, 68
1, 589920, Note_on_c, 6, 76, 72
1, 589920, Note_on_c, 8, 37, 100
1, 589920, Note_on_c, 8, 49, 100
1, 589920, Note_on_c, 13, 56, 100
1, 589920, Note_on_c, 13, 61, 100
1, 590008, Note_off_c, 10, 64, 0
1, 590020, Note_off_c, 10, 69, 0
1, 590020, Note_off_c, 10, 76, 0
1, 590126, Note_off_c, 6, 69, 0
1, 590134, Note_off_c, 6, 64, 0
1, 590144, Note_off_c, 6, 76, 0
1, 590212, Note_off_c, 8, 37, 0
1, 590212, Note_off_c, 8, 49, 0
1, 590212, Note_off_c, 13, 56, 0
1, 590212, Note_off_c, 13, 61, 0
1, 590364, Note_off_c, 1, 64, 0
1, 590392, Note_off_c, 3, 73, 64
1, 590392, Note_off_c, 3, 76, 64
1, 590400, Note_on_c, 0, 57, 100
1, 590400, Note_on_c, 0, 66, 100
1, 590400, Note_on_c, 1, 66, 78
1, 590400, Note_on_c, 2, 69, 100
1, 590400, Note_on_c, 2, 78, 100
1, 590400, Note_on_c, 3, 64, 100
1, 590400, Note_on_c, 3, 69, 100
1, 590400, Note_on_c, 4, 78, 100
1, 590400, Note_on_c, 5, 69, 100
1, 590400, Note_on_c, 7, 64, 56
1, 590400, Note_on_c, 7, 69, 69
1, 590400, Note_on_c, 7, 76, 73
1, 590400, Note_on_c, 8, 57, 100
1, 590400, Note_on_c, 8, 61, 100
1, 590400, Note_on_c, 13, 30, 100
1, 590400, Note_on_c, 13, 42, 100
1, 590400, Note_on_c, 14, 68, 100
1, 590400, Note_on_c, 14, 88, 100
1, 590666, Note_off_c, 7, 64, 0
1, 590682, Note_on_c, 10, 64, 70
1, 590682, Note_on_c, 10, 69, 74
1, 590682, Note_on_c, 10, 76, 74
1, 590692, Note_off_c, 8, 57, 0
1, 590692, Note_off_c, 8, 61, 0
1, 590692, Note_off_c, 13, 30, 0
1, 590692, Note_off_c, 13, 42, 0
1, 590694, Note_off_c, 7, 69, 0
1, 590702, Note_off_c, 7, 76, 0
1, 590872, Note_off_c, 0, 57, 64
1, 590872, Note_off_c, 0, 66, 64
1, 590872, Note_off_c, 2, 69, 64
1, 590872, Note_off_c, 2, 78, 64
1, 590872, Note_off_c, 3, 64, 64
1, 590872, Note_off_c, 3, 69, 64
1, 590872, Note_off_c, 4, 78, 0
1, 590872, Note_off_c, 5, 69, 0
1, 590880, Note_on_c, 6, 64, 70
1, 590880, Note_on_c, 6, 69, 70
1, 590880, Note_on_c, 6, 76, 75
1, 590880, Note_on_c, 8, 30, 100
1, 590880, Note_on_c, 8, 42, 100
1, 590880, Note_on_c, 13, 57, 100
1, 590880, Note_on_c, 13, 61, 100
1, 590886, Note_off_c, 10, 64, 0
1, 590916, Note_off_c, 10, 76, 0
1, 590954, Note_off_c, 10, 69, 0
1, 591068, Note_off_c, 1, 66, 0
1, 591108, Note_off_c, 6, 69, 0
1, 591150, Note_off_c, 6, 64, 0
1, 591172, Note_off_c, 8, 30, 0
1, 591172, Note_off_c, 8, 42, 0
1, 591172, Note_off_c, 13, 57, 0
1, 591172, Note_off_c, 13, 61, 0
1, 591188, Note_off_c, 6, 76, 0
1, 591360, Note_on_c, 0, 59, 100
1, 591360, Note_on_c, 0, 68, 100
1, 591360, Note_on_c, 1, 59, 74
1, 591360, Note_on_c, 2, 71, 100
1, 591360, Note_on_c, 2, 80, 100
1, 591360, Note_on_c, 3, 71, 100
1, 591360, Note_on_c, 3, 76, 100
1, 591360, Note_on_c, 4, 80, 100
1, 591360, Note_on_c, 5, 71, 100
1, 591360, Note_on_c, 7, 64, 66
1, 591360, Note_on_c, 7, 69, 70
1, 591360, Note_on_c, 7, 76, 75
1, 591360, Note_on_c, 8, 57, 100
1, 591360, Note_on_c, 8, 61, 100
1, 591360, Note_on_c, 13, 30, 100
1, 591360, Note_on_c, 13, 42, 100
1, 591610, Note_off_c, 7, 69, 0
1, 591624, Note_off_c, 7, 64, 0
1, 591642, Note_on_c, 10, 64, 68
1, 591642, Note_on_c, 10, 69, 68
1, 591642, Note_on_c, 10, 76, 72
1, 591650, Note_off_c, 7, 76, 0
1, 591652, Note_off_c, 8, 57, 0
1, 591652, Note_off_c, 8, 61, 0
1, 591652, Note_off_c, 13, 30, 0
1, 591652, Note_off_c, 13, 42, 0
1, 591832, Note_off_c, 0, 59, 64
1, 591832, Note_off_c, 0, 68, 64
1, 591832, Note_off_c, 2, 71, 64
1, 591832, Note_off_c, 2, 80, 64
1, 591832, Note_off_c, 3, 71, 64
1, 591832, Note_off_c, 3, 76, 64
1, 591832, Note_off_c, 4, 80, 0
1, 591832, Note_off_c, 5, 71, 0
1, 591840, Note_on_c, 0, 57, 100
1, 591840, Note_on_c, 0, 66, 100
1, 591840, Note_on_c, 1, 69, 75
1, 591840, Note_on_c, 2, 69, 100
1, 591840, Note_on_c, 2, 78, 100
1, 591840, Note_on_c, 3, 66, 100
1, 591840, Note_on_c, 3, 69, 100
1, 591840, Note_on_c, 4, 78, 100
1, 591840, Note_on_c, 5, 69, 100
1, 591840, Note_on_c, 6, 64, 69
1, 591840, Note_on_c, 6, 69, 69
1, 591840, Note_on_c, 6, 76, 73
1, 591840, Note_on_c, 8, 30, 100
1, 591840, Note_on_c, 8, 42, 100
1, 591840, Note_on_c, 13, 57, 100
1, 591840, Note_on_c, 13, 61, 100
1, 591848, Note_off_c, 1, 59, 0
1, 591848, Note_off_c, 10, 69, 0
1, 591856, Note_off_c, 10, 64, 0
1, 591866, Note_off_c, 10, 76, 0
1, 592106, Note_off_c, 6, 64, 0
1, 592132, Note_off_c, 8, 30, 0
1, 592132, Note_off_c, 8, 42, 0
1, 592132, Note_off_c, 13, 57, 0
1, 592132, Note_off_c, 13, 61, 0
1, 592144, Note_off_c, 6, 69, 0
1, 592144, Note_off_c, 6, 76, 0
1, 592312, Note_off_c, 0, 57, 64
1, 592312, Note_off_c, 0, 66, 64
1, 592312, Note_off_c, 2, 69, 64
1, 592312, Note_off_c, 2, 78, 64
1, 592312, Note_off_c, 3, 66, 64
1, 592312, Note_off_c, 3, 69, 64
1, 592312, Note_off_c, 4, 78, 0
1, 592312, Note_off_c, 5, 69, 0
1, 592320, Note_on_c, 0, 61, 100
1, 592320, Note_on_c, 0, 69, 100
1, 592320, Note_on_c, 1, 64, 73
1, 592320, Note_on_c, 2, 73, 100
1, 592320, Note_on_c, 2, 81, 100
1, 592320, Note_on_c, 3, 73, 100
1, 592320, Note_on_c, 3, 76, 100
1, 592320, Note_on_c, 4, 81, 100
1, 592320, Note_on_c, 5, 73, 100
1, 592320, Note_on_c, 7, 64, 66
1, 592320, Note_on_c, 7, 69, 70
1, 592320, Note_on_c, 7, 76, 75
1, 592320, Note_on_c, 8, 57, 100
1, 592320, Note_on_c, 8, 61, 100
1, 592320, Note_on_c, 13, 30, 100
1, 592320, Note_on_c, 13, 42, 100
1, 592446, Note_off_c, 1, 69, 0
1, 592570, Note_off_c, 7, 69, 0
1, 592584, Note_off_c, 7, 64, 0
1, 592602, Note_on_c, 10, 64, 70
1, 592602, Note_on_c, 10, 69, 70
1, 592602, Note_on_c, 10, 76, 75
1, 592610, Note_off_c, 7, 76, 0
1, 592612, Note_off_c, 8, 57, 0
1, 592612, Note_off_c, 8, 61, 0
1, 592612, Note_off_c, 13, 30, 0
1, 592612, Note_off_c, 13, 42, 0
1, 592792, Note_off_c, 0, 61, 64
1, 592792, Note_off_c, 0, 69, 64
1, 592792, Note_off_c, 2, 73, 64
1, 592792, Note_off_c, 2, 81, 64
1, 592792, Note_off_c, 3, 73, 64
1, 592792, Note_off_c, 3, 76, 64
1, 592792, Note_off_c, 4, 81, 0
1, 592792, Note_off_c, 5, 73, 0
1, 592800, Note_on_c, 6, 64, 67
1, 592800, Note_on_c, 6, 69, 63
1, 592800, Note_on_c, 6, 76, 74
1, 592800, Note_on_c, 8, 30, 100
1, 592800, Note_on_c, 8, 42, 100
1, 592800, Note_on_c, 13, 57, 100
1, 592800, Note_on_c, 13, 61, 100
1, 592830, Note_off_c, 10, 69, 0
1, 592872, Note_off_c, 10, 64, 0
1, 592910, Note_off_c, 10, 76, 0
1, 593004, Note_off_c, 6, 69, 0
1, 593026, Note_off_c, 1, 64, 0
1, 593066, Note_off_c, 6, 64, 0
1, 593066, Note_off_c, 6, 76, 0
1, 593092, Note_off_c, 8, 30, 0
1, 593092, Note_off_c, 8, 42, 0
1, 593092, Note_off_c, 13, 57, 0
1, 593092, Note_off_c, 13, 61, 0
1, 593272, Note_off_c, 14, 68, 0
1, 593272, Note_off_c, 14, 88, 0
1, 593280, Note_on_c, 0, 59, 100
1, 593280, Note_on_c, 0, 68, 100
1, 593280, Note_on_c, 1, 66, 68
1, 593280, Note_on_c, 2, 71, 100
1, 593280, Note_on_c, 2, 80, 100
1, 593280, Note_on_c, 3, 71, 100
1, 593280, Note_on_c, 3, 76, 100
1, 593280, Note_on_c, 4, 80, 100
1, 593280, Note_on_c, 5, 71, 100
1, 593280, Note_on_c, 7, 64, 72
1, 593280, Note_on_c, 7, 69, 80
1, 593280, Note_on_c, 7, 76, 77
1, 593280, Note_on_c, 8, 56, 100
1, 593280, Note_on_c, 8, 61, 100
1, 593280, Note_on_c, 13, 37, 100
1, 593280, Note_on_c, 13, 49, 100
1, 593280, Note_on_c, 14, 64, 100
1, 593280, Note_on_c, 14, 85, 100
1, 593520, Note_off_c, 7, 76, 0
1, 593530, Note_off_c, 7, 64, 0
1, 593530, Note_off_c, 7, 69, 0
1, 593562, Note_on_c, 10, 64, 69
1, 593562, Note_on_c, 10, 69, 69
1, 593562, Note_on_c, 10, 76, 73
1, 593572, Note_off_c, 8, 56, 0
1, 593572, Note_off_c, 8, 61, 0
1, 593572, Note_off_c, 13, 37, 0
1, 593572, Note_off_c, 13, 49, 0
1, 593752, Note_off_c, 0, 59, 64
1, 593752, Note_off_c, 0, 68, 64
1, 593752, Note_off_c, 2, 71, 64
1, 593752, Note_off_c, 2, 80, 64
1, 593752, Note_off_c, 3, 71, 64
1, 593752, Note_off_c, 3, 76, 64
1, 593752, Note_off_c, 4, 80, 0
1, 593752, Note_off_c, 5, 71, 0
1, 593760, Note_on_c, 0, 57, 100
1, 593760, Note_on_c, 0, 66, 100
1, 593760, Note_on_c, 1, 61, 68
1, 593760, Note_on_c, 2, 69, 100
1, 593760, Note_on_c, 2, 78, 100
1, 593760, Note_on_c, 3, 64, 100
1, 593760, Note_on_c, 3, 69, 100
1, 593760, Note_on_c, 4, 78, 100
1, 593760, Note_on_c, 5, 69, 100
1, 593760, Note_on_c, 6, 64, 66
1, 593760, Note_on_c, 6, 69, 63
1, 593760, Note_on_c, 6, 76, 74
1, 593760, Note_on_c, 8, 37, 100
1, 593760, Note_on_c, 8, 49, 100
1, 593760, Note_on_c, 13, 56, 100
1, 593760, Note_on_c, 13, 61, 100
1, 593796, Note_off_c, 1, 66, 0
1, 593828, Note_off_c, 10, 64, 0
1, 593866, Note_off_c, 10, 69, 0
1, 593866, Note_off_c, 10, 76, 0
1, 593990, Note_off_c, 6, 69, 0
1, 593996, Note_off_c, 6, 64, 0
1, 594034, Note_off_c, 6, 76, 0
1, 594052, Note_off_c, 8, 37, 0
1, 594052, Note_off_c, 8, 49, 0
1, 594052, Note_off_c, 13, 56, 0
1, 594052, Note_off_c, 13, 61, 0
1, 594232, Note_off_c, 0, 57, 64
1, 594232, Note_off_c, 0, 66, 64
1, 594232, Note_off_c, 2, 69, 64
1, 594232, Note_off_c, 2, 78, 64
1, 594232, Note_off_c, 3, 64, 64
1, 594232, Note_off_c, 3, 69, 64
1, 594232, Note_off_c, 4, 78, 0
1, 594232, Note_off_c, 5, 69, 0
1, 594240, Note_on_c, 7, 64, 70
1, 594240, Note_on_c, 7, 69, 77
1, 594240, Note_on_c, 7, 76, 77
1, 594240, Note_on_c, 8, 56, 100
1, 594240, Note_on_c, 8, 61, 100
1, 594240, Note_on_c, 13, 37, 100
1, 594240, Note_on_c, 13, 49, 100
1, 594494, Note_off_c, 7, 64, 0
1, 594522, Note_off_c, 7, 69, 0
1, 594522, Note_on_c, 10, 64, 67
1, 594522, Note_on_c, 10, 69, 63
1, 594522, Note_on_c, 10, 76, 74
1, 594530, Note_off_c, 1, 61, 0
1, 594530, Note_off_c, 7, 76, 0
1, 594532, Note_off_c, 8, 56, 0
1, 594532, Note_off_c, 8, 61, 0
1, 594532, Note_off_c, 13, 37, 0
1, 594532, Note_off_c, 13, 49, 0
1, 594720, Note_on_c, 0, 59, 100
1, 594720, Note_on_c, 0, 68, 100
1, 594720, Note_on_c, 1, 69, 77
1, 594720, Note_on_c, 2, 71, 100
1, 594720, Note_on_c, 2, 80, 100
1, 594720, Note_on_c, 3, 71, 100
1, 594720, Note_on_c, 3, 76, 100
1, 594720, Note_on_c, 4, 80, 100
1, 594720, Note_on_c, 5, 71, 100
1, 594720, Note_on_c, 6, 64, 68
1, 594720, Note_on_c, 6, 69, 74
1, 594720, Note_on_c, 6, 76, 74
1, 594720, Note_on_c, 8, 37, 100
1, 594720, Note_on_c, 8, 49, 100
1, 594720, Note_on_c, 13, 56, 100
1, 594720, Note_on_c, 13, 61, 100
1, 594726, Note_off_c, 10, 69, 0
1, 594788, Note_off_c, 10, 64, 0
1, 594788, Note_off_c, 10, 76, 0
1, 594980, Note_off_c, 6, 69, 0
1, 595010, Note_off_c, 6, 76, 0
1, 595012, Note_off_c, 8, 37, 0
1, 595012, Note_off_c, 8, 49, 0
1, 595012, Note_off_c, 13, 56, 0
1, 595012, Note_off_c, 13, 61, 0
1, 595014, Note_off_c, 6, 64, 0
1, 595192, Note_off_c, 0, 59, 64
1, 595192, Note_off_c, 0, 68, 64
1, 595192, Note_off_c, 2, 71, 64
1, 595192, Note_off_c, 2, 80, 64
1, 595192, Note_off_c, 3, 71, 64
1, 595192, Note_off_c, 3, 76, 64
1, 595192, Note_off_c, 4, 80, 0
1, 595192, Note_off_c, 5, 71, 0
1, 595200, Note_on_c, 7, 64, 70
1, 595200, Note_on_c, 7, 69, 73
1, 595200, Note_on_c, 7, 76, 74
1, 595200, Note_on_c, 8, 56, 100
1, 595200, Note_on_c, 8, 61, 100
1, 595200, Note_on_c, 13, 37, 100
1, 595200, Note_on_c, 13, 49, 100
1, 595344, Note_off_c, 1, 69, 0
1, 595440, Note_off_c, 7, 64, 0
1, 595446, Note_off_c, 7, 69, 0
1, 595460, Note_off_c, 7, 76, 0
1, 595482, Note_on_c, 10, 64, 66
1, 595482, Note_on_c, 10, 69, 63
1, 595482, Note_on_c, 10, 76, 74
1, 595492, Note_off_c, 8, 56, 0
1, 595492, Note_off_c, 8, 61, 0
1, 595492, Note_off_c, 13, 37, 0
1, 595492, Note_off_c, 13, 49, 0
1, 595680, Note_on_c, 0, 61, 100
1, 595680, Note_on_c, 0, 69, 100
1, 595680, Note_on_c, 1, 64, 70
1, 595680, Note_on_c, 2, 73, 100
1, 595680, Note_on_c, 2, 81, 100
1, 595680, Note_on_c, 3, 73, 100
1, 595680, Note_on_c, 3, 76, 100
1, 595680, Note_on_c, 4, 81, 100
1, 595680, Note_on_c, 5, 73, 100
1, 595680, Note_on_c, 6, 64, 73
1, 595680, Note_on_c, 6, 69, 82
1, 595680, Note_on_c, 6, 76, 77
1, 595680, Note_on_c, 8, 37, 100
1, 595680, Note_on_c, 8, 49, 100
1, 595680, Note_on_c, 13, 56, 100
1, 595680, Note_on_c, 13, 61, 100
1, 595712, Note_off_c, 10, 69, 0
1, 595718, Note_off_c, 10, 64, 0
1, 595756, Note_off_c, 10, 76, 0
1, 595958, Note_off_c, 6, 69, 0
1, 595970, Note_off_c, 6, 64, 0
1, 595972, Note_off_c, 8, 37, 0
1, 595972, Note_off_c, 8, 49, 0
1, 595972, Note_off_c, 13, 56, 0
1, 595972, Note_off_c, 13, 61, 0
1, 595978, Note_off_c, 6, 76, 0
1, 596152, Note_off_c, 0, 61, 64
1, 596152, Note_off_c, 0, 69, 64
1, 596152, Note_off_c, 2, 73, 64
1, 596152, Note_off_c, 2, 81, 64
1, 596152, Note_off_c, 3, 73, 64
1, 596152, Note_off_c, 3, 76, 64
1, 596152, Note_off_c, 4, 81, 0
1, 596152, Note_off_c, 5, 73, 0
1, 596152, Note_off_c, 14, 64, 0
1, 596152, Note_off_c, 14, 85, 0
1, 596160, Note_on_c, 0, 57, 100
1, 596160, Note_on_c, 0, 66, 100
1, 596160, Note_on_c, 1, 66, 77
1, 596160, Note_on_c, 2, 69, 100
1, 596160, Note_on_c, 2, 78, 100
1, 596160, Note_on_c, 3, 64, 100
1, 596160, Note_on_c, 3, 69, 100
1, 596160, Note_on_c, 4, 78, 100
1, 596160, Note_on_c, 5, 69, 100
1, 596160, Note_on_c, 7, 64, 72
1, 596160, Note_on_c, 7, 69, 77
1, 596160, Note_on_c, 7, 76, 75
1, 596160, Note_on_c, 8, 57, 100
1, 596160, Note_on_c, 8, 61, 100
1, 596160, Note_on_c, 13, 30, 100
1, 596160, Note_on_c, 13, 42, 100
1, 596160, Note_on_c, 14, 68, 100
1, 596160, Note_on_c, 14, 88, 100
1, 596312, Note_off_c, 1, 64, 0
1, 596368, Note_off_c, 7, 69, 0
1, 596382, Note_off_c, 7, 64, 0
1, 596402, Note_off_c, 7, 76, 0
1, 596442, Note_on_c, 10, 64, 68
1, 596442, Note_on_c, 10, 69, 74
1, 596442, Note_on_c, 10, 76, 74
1, 596452, Note_off_c, 8, 57, 0
1, 596452, Note_off_c, 8, 61, 0
1, 596452, Note_off_c, 13, 30, 0
1, 596452, Note_off_c, 13, 42, 0
1, 596632, Note_off_c, 0, 57, 64
1, 596632, Note_off_c, 0, 66, 64
1, 596632, Note_off_c, 2, 69, 64
1, 596632, Note_off_c, 2, 78, 64
1, 596632, Note_off_c, 3, 64, 64
1, 596632, Note_off_c, 3, 69, 64
1, 596632, Note_off_c, 4, 78, 0
1, 596632, Note_off_c, 5, 69, 0
1, 596640, Note_on_c, 6, 64, 72
1, 596640, Note_on_c, 6, 69, 75
1, 596640, Note_on_c, 6, 76, 73
1, 596640, Note_on_c, 8, 30, 100
1, 596640, Note_on_c, 8, 42, 100
1, 596640, Note_on_c, 13, 57, 100
1, 596640, Note_on_c, 13, 61, 100
1, 596702, Note_off_c, 10, 69, 0
1, 596732, Note_off_c, 10, 76, 0
1, 596736, Note_off_c, 10, 64, 0
1, 596804, Note_off_c, 1, 66, 0
1, 596928, Note_off_c, 6, 76, 0
1, 596930, Note_off_c, 6, 69, 0
1, 596932, Note_off_c, 8, 30, 0
1, 596932, Note_off_c, 8, 42, 0
1, 596932, Note_off_c, 13, 57, 0
1, 596932, Note_off_c, 13, 61, 0
1, 596938, Note_off_c, 6, 64, 0
1, 597120, Note_on_c, 0, 59, 100
1, 597120, Note_on_c, 0, 68, 100
1, 597120, Note_on_c, 1, 59, 65
1, 597120, Note_on_c, 2, 71, 100
1, 597120, Note_on_c, 2, 80, 100
1, 597120, Note_on_c, 3, 71, 100
1, 597120, Note_on_c, 3, 76, 100
1, 597120, Note_on_c, 4, 80, 100
1, 597120, Note_on_c, 5, 71, 100
1, 597120, Note_on_c, 7, 64, 70
1, 597120, Note_on_c, 7, 69, 78
1, 597120, Note_on_c, 7, 76, 77
1, 597120, Note_on_c, 8, 57, 100
1, 597120, Note_on_c, 8, 61, 100
1, 597120, Note_on_c, 13, 30, 100
1, 597120, Note_on_c, 13, 42, 100
1, 597362, Note_off_c, 7, 64, 0
1, 597384, Note_off_c, 7, 76, 0
1, 597402, Note_on_c, 10, 64, 73
1, 597402, Note_on_c, 10, 69, 82
1, 597402, Note_on_c, 10, 76, 77
1, 597408, Note_off_c, 7, 69, 0
1, 597412, Note_off_c, 8, 57, 0
1, 597412, Note_off_c, 8, 61, 0
1, 597412, Note_off_c, 13, 30, 0
1, 597412, Note_off_c, 13, 42, 0
1, 597592, Note_off_c, 0, 59, 64
1, 597592, Note_off_c, 0, 68, 64
1, 597592, Note_off_c, 2, 71, 64
1, 597592, Note_off_c, 2, 80, 64
1, 597592, Note_off_c, 3, 71, 64
1, 597592, Note_off_c, 3, 76, 64
1, 597592, Note_off_c, 4, 80, 0
1, 597592, Note_off_c, 5, 71, 0
1, 597600, Note_on_c, 0, 57, 100
1, 597600, Note_on_c, 0, 66, 100
1, 597600, Note_on_c, 1, 69, 74
1, 597600, Note_on_c, 2, 69, 100
1, 597600, Note_on_c, 2, 78, 100
1, 597600, Note_on_c, 3, 66, 100
1, 597600, Note_on_c, 3, 69, 100
1, 597600, Note_on_c, 4, 78, 100
1, 597600, Note_on_c, 5, 69, 100
1, 597600, Note_on_c, 6, 64, 69
1, 597600, Note_on_c, 6, 69, 70
1, 597600, Note_on_c, 6, 76, 72
1, 597600, Note_on_c, 8, 30, 100
1, 597600, Note_on_c, 8, 42, 100
1, 597600, Note_on_c, 13, 57, 100
1, 597600, Note_on_c, 13, 61, 100
1, 597680, Note_off_c, 10, 69, 0
1, 597692, Note_off_c, 10, 64, 0
1, 597694, Note_off_c, 1, 59, 0
1, 597700, Note_off_c, 10, 76, 0
1, 597864, Note_off_c, 6, 69, 0
1, 597888, Note_off_c, 6, 64, 0
1, 597892, Note_off_c, 8, 30, 0
1, 597892, Note_off_c, 8, 42, 0
1, 597892, Note_off_c, 13, 57, 0
1, 597892, Note_off_c, 13, 61, 0
1, 597904, Note_off_c, 6, 76, 0
1, 598072, Note_off_c, 0, 57, 64
1, 598072, Note_off_c, 0, 66, 64
1, 598072, Note_off_c, 2, 69, 64
1, 598072, Note_off_c, 2, 78, 64
1, 598072, Note_off_c, 3, 66, 64
1, 598072, Note_off_c, 3, 69, 64
1, 598072, Note_off_c, 4, 78, 0
1, 598072, Note_off_c, 5, 69, 0
1, 598080, Note_on_c, 0, 61, 100
1, 598080, Note_on_c, 0, 69, 100
1, 598080, Note_on_c, 1, 64, 68
1, 598080, Note_on_c, 2, 73, 100
1, 598080, Note_on_c, 2, 81, 100
1, 598080, Note_on_c, 3, 73, 100
1, 598080, Note_on_c, 3, 76, 100
1, 598080, Note_on_c, 4, 81, 100
1, 598080, Note_on_c, 5, 73, 100
1, 598080, Note_on_c, 7, 64, 70
1, 598080, Note_on_c, 7, 69, 72
1, 598080, Note_on_c, 7, 76, 77
1, 598080, Note_on_c, 8, 57, 100
1, 598080, Note_on_c, 8, 61, 100
1, 598080, Note_on_c, 13, 30, 100
1, 598080, Note_on_c, 13, 42, 100
1, 598292, Note_off_c, 1, 69, 0
1, 598334, Note_off_c, 7, 64, 0
1, 598346, Note_off_c, 7, 69, 0
1, 598362, Note_on_c, 10, 64, 72
1, 598362, Note_on_c, 10, 69, 75
1, 598362, Note_on_c, 10, 76, 73
1, 598372, Note_off_c, 8, 57, 0
1, 598372, Note_off_c, 8, 61, 0
1, 598372, Note_off_c, 13, 30, 0
1, 598372, Note_off_c, 13, 42, 0
1, 598402, Note_off_c, 7, 76, 0
1, 598552, Note_off_c, 0, 61, 64
1, 598552, Note_off_c, 0, 69, 64
1, 598552, Note_off_c, 2, 73, 64
1, 598552, Note_off_c, 2, 81, 64
1, 598552, Note_off_c, 3, 73, 64
1, 598552, Note_off_c, 3, 76, 64
1, 598552, Note_off_c, 4, 81, 0
1, 598552, Note_off_c, 5, 73, 0
1, 598560, Note_on_c, 6, 64, 68
1, 598560, Note_on_c, 6, 69, 77
1, 598560, Note_on_c, 6, 76, 73
1, 598560, Note_on_c, 8, 30, 100
1, 598560, Note_on_c, 8, 42, 100
1, 598560, Note_on_c, 13, 57, 100
1, 598560, Note_on_c, 13, 61, 100
1, 598650, Note_off_c, 10, 76, 0
1, 598652, Note_off_c, 10, 69, 0
1, 598660, Note_off_c, 10, 64, 0
1, 598694, Note_off_c, 1, 64, 0
1, 598826, Note_off_c, 6, 64, 0
1, 598844, Note_off_c, 6, 69, 0
1, 598844, Note_off_c, 6, 76, 0
1, 598852, Note_off_c, 8, 30, 0
1, 598852, Note_off_c, 8, 42, 0
1, 598852, Note_off_c, 13, 57, 0
1, 598852, Note_off_c, 13, 61, 0
1, 599040, Note_on_c, 0, 59, 100
1, 599040, Note_on_c, 0, 68, 100
1, 599040, Note_on_c, 1, 66, 77
1, 599040, Note_on_c, 2, 71, 100
1, 599040, Note_on_c, 2, 80, 100
1, 599040, Note_on_c, 3, 71, 100
1, 599040, Note_on_c, 3, 76, 100
1, 599040, Note_on_c, 4, 80, 100
1, 599040, Note_on_c, 5, 71, 100
1, 599040, Note_on_c, 7, 64, 73
1, 599040, Note_on_c, 7, 69, 77
1, 599040, Note_on_c, 7, 76, 74
1, 599040, Note_on_c, 8, 57, 100
1, 599040, Note_on_c, 8, 61, 100
1, 599040, Note_on_c, 13, 30, 100
1, 599040, Note_on_c, 13, 42, 100
1, 599322, Note_on_c, 10, 64, 69
1, 599322, Note_on_c, 10, 69, 70
1, 599322, Note_on_c, 10, 76, 72
1, 599324, Note_off_c, 7, 69, 0
1, 599332, Note_off_c, 8, 57, 0
1, 599332, Note_off_c, 8, 61, 0
1, 599332, Note_off_c, 13, 30, 0
1, 599332, Note_off_c, 13, 42, 0
1, 599356, Note_off_c, 7, 76, 0
1, 599362, Note_off_c, 7, 64, 0
1, 599512, Note_off_c, 0, 59, 64
1, 599512, Note_off_c, 0, 68, 64
1, 599512, Note_off_c, 2, 71, 64
1, 599512, Note_off_c, 2, 80, 64
1, 599512, Note_off_c, 3, 71, 64
1, 599512, Note_off_c, 3, 76, 64
1, 599512, Note_off_c, 4, 80, 0
1, 599512, Note_off_c, 5, 71, 0
1, 599520, Note_on_c, 0, 57, 100
1, 599520, Note_on_c, 0, 66, 100
1, 599520, Note_on_c, 1, 61, 70
1, 599520, Note_on_c, 2, 69, 100
1, 599520, Note_on_c, 2, 78, 100
1, 599520, Note_on_c, 3, 64, 100
1, 599520, Note_on_c, 3, 69, 100
1, 599520, Note_on_c, 4, 78, 100
1, 599520, Note_on_c, 5, 69, 100
1, 599520, Note_on_c, 6, 64, 72
1, 599520, Note_on_c, 6, 69, 52
1, 599520, Note_on_c, 6, 76, 72
1, 599520, Note_on_c, 8, 30, 100
1, 599520, Note_on_c, 8, 42, 100
1, 599520, Note_on_c, 13, 57, 100
1, 599520, Note_on_c, 13, 61, 100
1, 599586, Note_off_c, 10, 69, 0
1, 599610, Note_off_c, 10, 64, 0
1, 599626, Note_off_c, 10, 76, 0
1, 599672, Note_off_c, 6, 69, 0
1, 599682, Note_off_c, 1, 66, 0
1, 599760, Note_off_c, 6, 64, 0
1, 599766, Note_off_c, 6, 76, 0
1, 599812, Note_off_c, 8, 30, 0
1, 599812, Note_off_c, 8, 42, 0
1, 599812, Note_off_c, 13, 57, 0
1, 599812, Note_off_c, 13, 61, 0
1, 599992, Note_off_c, 0, 57, 64
1, 599992, Note_off_c, 0, 66, 64
1, 599992, Note_off_c, 2, 69, 64
1, 599992, Note_off_c, 2, 78, 64
1, 599992, Note_off_c, 3, 64, 64
1, 599992, Note_off_c, 3, 69, 64
1, 599992, Note_off_c, 4, 78, 0
1, 599992, Note_off_c, 5, 69, 0
1, 599992, Note_off_c, 14, 68, 0
1, 599992, Note_off_c, 14, 88, 0
1, 600000, Note_on_c, 7, 64, 68
1, 600000, Note_on_c, 7, 69, 70
1, 600000, Note_on_c, 7, 76, 72
1, 600000, Note_on_c, 8, 56, 100
1, 600000, Note_on_c, 8, 61, 100
1, 600000, Note_on_c, 13, 37, 100
1, 600000, Note_on_c, 13, 49, 100
1, 600000, Note_on_c, 14, 64, 100
1, 600000, Note_on_c, 14, 85, 100
1, 600148, Note_off_c, 1, 61, 0
1, 600282, Note_on_c, 10, 64, 68
1, 600282, Note_on_c, 10, 69, 77
1, 600282, Note_on_c, 10, 76, 73
1, 600290, Note_off_c, 7, 69, 0
1, 600292, Note_off_c, 8, 56, 0
1, 600292, Note_off_c, 8, 61, 0
1, 600292, Note_off_c, 13, 37, 0
1, 600292, Note_off_c, 13, 49, 0
1, 600308, Note_off_c, 7, 76, 0
1, 600314, Note_off_c, 7, 64, 0
1, 600480, Note_on_c, 0, 59, 100
1, 600480, Note_on_c, 0, 68, 100
1, 600480, Note_on_c, 1, 69, 77
1, 600480, Note_on_c, 2, 71, 100
1, 600480, Note_on_c, 2, 80, 100
1, 600480, Note_on_c, 3, 71, 100
1, 600480, Note_on_c, 3, 76, 100
1, 600480, Note_on_c, 4, 80, 100
1, 600480, Note_on_c, 5, 71, 100
1, 600480, Note_on_c, 6, 64, 68
1, 600480, Note_on_c, 6, 69, 70
1, 600480, Note_on_c, 6, 76, 74
1, 600480, Note_on_c, 8, 37, 100
1, 600480, Note_on_c, 8, 49, 100
1, 600480, Note_on_c, 13, 56, 100
1, 600480, Note_on_c, 13, 61, 100
1, 600548, Note_off_c, 10, 64, 0
1, 600566, Note_off_c, 10, 69, 0
1, 600566, Note_off_c, 10, 76, 0
1, 600712, Note_off_c, 6, 69, 0
1, 600722, Note_off_c, 6, 64, 0
1, 600730, Note_off_c, 6, 76, 0
1, 600772, Note_off_c, 8, 37, 0
1, 600772, Note_off_c, 8, 49, 0
1, 600772, Note_off_c, 13, 56, 0
1, 600772, Note_off_c, 13, 61, 0
1, 600952, Note_off_c, 0, 59, 64
1, 600952, Note_off_c, 0, 68, 64
1, 600952, Note_off_c, 2, 71, 64
1, 600952, Note_off_c, 2, 80, 64
1, 600952, Note_off_c, 3, 71, 64
1, 600952, Note_off_c, 3, 76, 64
1, 600952, Note_off_c, 4, 80, 0
1, 600952, Note_off_c, 5, 71, 0
1, 600960, Note_on_c, 7, 64, 68
1, 600960, Note_on_c, 7, 69, 70
1, 600960, Note_on_c, 7, 76, 73
1, 600960, Note_on_c, 8, 56, 100
1, 600960, Note_on_c, 8, 61, 100
1, 600960, Note_on_c, 13, 37, 100
1, 600960, Note_on_c, 13, 49, 100
1, 601128, Note_off_c, 1, 69, 0
1, 601208, Note_off_c, 7, 64, 0
1, 601222, Note_off_c, 7, 69, 0
1, 601222, Note_off_c, 7, 76, 0
1, 601242, Note_on_c, 10, 64, 72
1, 601242, Note_on_c, 10, 69, 52
1, 601242, Note_on_c, 10, 76, 72
1, 601252, Note_off_c, 8, 56, 0
1, 601252, Note_off_c, 8, 61, 0
1, 601252, Note_off_c, 13, 37, 0
1, 601252, Note_off_c, 13, 49, 0
1, 601394, Note_off_c, 10, 69, 0
1, 601440, Note_on_c, 0, 61, 100
1, 601440, Note_on_c, 0, 69, 100
1, 601440, Note_on_c, 1, 64, 68
1, 601440, Note_on_c, 2, 73, 100
1, 601440, Note_on_c, 2, 81, 100
1, 601440, Note_on_c, 3, 73, 100
1, 601440, Note_on_c, 3, 76, 100
1, 601440, Note_on_c, 4, 81, 100
1, 601440, Note_on_c, 5, 73, 100
1, 601440, Note_on_c, 6, 64, 68
1, 601440, Note_on_c, 6, 69, 69
1, 601440, Note_on_c, 6, 76, 72
1, 601440, Note_on_c, 8, 37, 100
1, 601440, Note_on_c, 8, 49, 100
1, 601440, Note_on_c, 13, 56, 100
1, 601440, Note_on_c, 13, 61, 100
1, 601482, Note_off_c, 10, 64, 0
1, 601488, Note_off_c, 10, 76, 0
1, 601656, Note_off_c, 6, 76, 0
1, 601658, Note_off_c, 6, 69, 0
1, 601672, Note_off_c, 6, 64, 0
1, 601732, Note_off_c, 8, 37, 0
1, 601732, Note_off_c, 8, 49, 0
1, 601732, Note_off_c, 13, 56, 0
1, 601732, Note_off_c, 13, 61, 0
1, 601884, Note_off_c, 1, 64, 0
1, 601912, Note_off_c, 0, 61, 64
1, 601912, Note_off_c, 0, 69, 64
1, 601912, Note_off_c, 2, 73, 64
1, 601912, Note_off_c, 2, 81, 64
1, 601912, Note_off_c, 3, 73, 64
1, 601912, Note_off_c, 3, 76, 64
1, 601912, Note_off_c, 4, 81, 0
1, 601912, Note_off_c, 5, 73, 0
1, 601912, Note_off_c, 14, 64, 0
1, 601912, Note_off_c, 14, 85, 0
1, 601920, Note_on_c, 0, 57, 100
1, 601920, Note_on_c, 0, 66, 100
1, 601920, Note_on_c, 1, 66, 78
1, 601920, Note_on_c, 2, 69, 100
1, 601920, Note_on_c, 2, 78, 100
1, 601920, Note_on_c, 3, 64, 100
1, 601920, Note_on_c, 3, 69, 100
1, 601920, Note_on_c, 4, 78, 100
1, 601920, Note_on_c, 5, 69, 100
1, 601920, Note_on_c, 7, 64, 70
1, 601920, Note_on_c, 7, 69, 83
1, 601920, Note_on_c, 7, 76, 74
1, 601920, Note_on_c, 8, 57, 100
1, 601920, Note_on_c, 8, 61, 100
1, 601920, Note_on_c, 13, 30, 100
1, 601920, Note_on_c, 13, 42, 100
1, 601920, Note_on_c, 14, 68, 100
1, 601920, Note_on_c, 14, 88, 100
1, 602160, Note_off_c, 7, 64, 0
1, 602160, Note_off_c, 7, 76, 0
1, 602170, Note_off_c, 7, 69, 0
1, 602202, Note_on_c, 10, 64, 68
1, 602202, Note_on_c, 10, 69, 70
1, 602202, Note_on_c, 10, 76, 74
1, 602212, Note_off_c, 8, 57, 0
1, 602212, Note_off_c, 8, 61, 0
1, 602212, Note_off_c, 13, 30, 0
1, 602212, Note_off_c, 13, 42, 0
1, 602392, Note_off_c, 0, 57, 64
1, 602392, Note_off_c, 0, 66, 64
1, 602392, Note_off_c, 2, 69, 64
1, 602392, Note_off_c, 2, 78, 64
1, 602392, Note_off_c, 3, 64, 64
1, 602392, Note_off_c, 3, 69, 64
1, 602392, Note_off_c, 4, 78, 0
1, 602392, Note_off_c, 5, 69, 0
1, 602400, Note_on_c, 6, 64, 67
1, 602400, Note_on_c, 6, 69, 67
1, 602400, Note_on_c, 6, 76, 72
1, 602400, Note_on_c, 8, 30, 100
1, 602400, Note_on_c, 8, 42, 100
1, 602400, Note_on_c, 13, 57, 100
1, 602400, Note_on_c, 13, 61, 100
1, 602434, Note_off_c, 10, 69, 0
1, 602444, Note_off_c, 10, 64, 0
1, 602452, Note_off_c, 10, 76, 0
1, 602588, Note_off_c, 1, 66, 0
1, 602646, Note_off_c, 6, 64, 0
1, 602650, Note_off_c, 6, 69, 0
1, 602666, Note_off_c, 6, 76, 0
1, 602692, Note_off_c, 8, 30, 0
1, 602692, Note_off_c, 8, 42, 0
1, 602692, Note_off_c, 13, 57, 0
1, 602692, Note_off_c, 13, 61, 0
1, 602880, Note_on_c, 0, 59, 100
1, 602880, Note_on_c, 0, 68, 100
1, 602880, Note_on_c, 1, 59, 74
1, 602880, Note_on_c, 2, 71, 100
1, 602880, Note_on_c, 2, 80, 100
1, 602880, Note_on_c, 3, 71, 100
1, 602880, Note_on_c, 3, 76, 100
1, 602880, Note_on_c, 4, 80, 100
1, 602880, Note_on_c, 5, 71, 100
1, 602880, Note_on_c, 7, 64, 67
1, 602880, Note_on_c, 7, 69, 78
1, 602880, Note_on_c, 7, 76, 73
1, 602880, Note_on_c, 8, 57, 100
1, 602880, Note_on_c, 8, 61, 100
1, 602880, Note_on_c, 13, 30, 100
1, 602880, Note_on_c, 13, 42, 100
1, 603130, Note_off_c, 7, 76, 0
1, 603136, Note_off_c, 7, 69, 0
1, 603144, Note_off_c, 7, 64, 0
1, 603162, Note_on_c, 10, 64, 68
1, 603162, Note_on_c, 10, 69, 69
1, 603162, Note_on_c, 10, 76, 72
1, 603172, Note_off_c, 8, 57, 0
1, 603172, Note_off_c, 8, 61, 0
1, 603172, Note_off_c, 13, 30, 0
1, 603172, Note_off_c, 13, 42, 0
1, 603352, Note_off_c, 0, 59, 64
1, 603352, Note_off_c, 0, 68, 64
1, 603352, Note_off_c, 2, 71, 64
1, 603352, Note_off_c, 2, 80, 64
1, 603352, Note_off_c, 3, 71, 64
1, 603352, Note_off_c, 3, 76, 64
1, 603352, Note_off_c, 4, 80, 0
1, 603352, Note_off_c, 5, 71, 0
1, 603360, Note_on_c, 0, 57, 100
1, 603360, Note_on_c, 0, 66, 100
1, 603360, Note_on_c, 1, 69, 75
1, 603360, Note_on_c, 2, 69, 100
1, 603360, Note_on_c, 2, 78, 100
1, 603360, Note_on_c, 3, 66, 100
1, 603360, Note_on_c, 3, 69, 100
1, 603360, Note_on_c, 4, 78, 100
1, 603360, Note_on_c, 5, 69, 100
1, 603360, Note_on_c, 6, 64, 67
1, 603360, Note_on_c, 6, 69, 63
1, 603360, Note_on_c, 6, 76, 72
1, 603360, Note_on_c, 8, 30, 100
1, 603360, Note_on_c, 8, 42, 100
1, 603360, Note_on_c, 13, 57, 100
1, 603360, Note_on_c, 13, 61, 100
1, 603368, Note_off_c, 1, 59, 0
1, 603378, Note_off_c, 10, 76, 0
1, 603380, Note_off_c, 10, 69, 0
1, 603394, Note_off_c, 10, 64, 0
1, 603608, Note_off_c, 6, 69, 0
1, 603636, Note_off_c, 6, 64, 0
1, 603652, Note_off_c, 6, 76, 0
1, 603652, Note_off_c, 8, 30, 0
1, 603652, Note_off_c, 8, 42, 0
1, 603652, Note_off_c, 13, 57, 0
1, 603652, Note_off_c, 13, 61, 0
1, 603832, Note_off_c, 0, 57, 64
1, 603832, Note_off_c, 0, 66, 64
1, 603832, Note_off_c, 2, 69, 64
1, 603832, Note_off_c, 2, 78, 64
1, 603832, Note_off_c, 3, 66, 64
1, 603832, Note_off_c, 3, 69, 64
1, 603832, Note_off_c, 4, 78, 0
1, 603832, Note_off_c, 5, 69, 0
1, 603840, Note_on_c, 0, 61, 100
1, 603840, Note_on_c, 0, 69, 100
1, 603840, Note_on_c, 1, 64, 73
1, 603840, Note_on_c, 2, 73, 100
1, 603840, Note_on_c, 2, 81, 100
1, 603840, Note_on_c, 3, 73, 100
1, 603840, Note_on_c, 3, 76, 100
1, 603840, Note_on_c, 4, 81, 100
1, 603840, Note_on_c, 5, 73, 100
1, 603840, Note_on_c, 7, 64, 69
1, 603840, Note_on_c, 7, 69, 70
1, 603840, Note_on_c, 7, 76, 73
1, 603840, Note_on_c, 8, 57, 100
1, 603840, Note_on_c, 8, 61, 100
1, 603840, Note_on_c, 13, 30, 100
1, 603840, Note_on_c, 13, 42, 100
1, 603966, Note_off_c, 1, 69, 0
1, 604060, Note_off_c, 7, 69, 0
1, 604082, Note_off_c, 7, 76, 0
1, 604092, Note_off_c, 7, 64, 0
1, 604122, Note_on_c, 10, 64, 67
1, 604122, Note_on_c, 10, 69, 67
1, 604122, Note_on_c, 10, 76, 72
1, 604132, Note_off_c, 8, 57, 0
1, 604132, Note_off_c, 8, 61, 0
1, 604132, Note_off_c, 13, 30, 0
1, 604132, Note_off_c, 13, 42, 0
1, 604312, Note_off_c, 0, 61, 64
1, 604312, Note_off_c, 0, 69, 64
1, 604312, Note_off_c, 2, 73, 64
1, 604312, Note_off_c, 2, 81, 64
1, 604312, Note_off_c, 3, 73, 64
1, 604312, Note_off_c, 3, 76, 64
1, 604312, Note_off_c, 4, 81, 0
1, 604312, Note_off_c, 5, 73, 0
1, 604320, Note_on_c, 6, 64, 68
1, 604320, Note_on_c, 6, 69, 66
1, 604320, Note_on_c, 6, 76, 70
1, 604320, Note_on_c, 8, 30, 100
1, 604320, Note_on_c, 8, 42, 100
1, 604320, Note_on_c, 13, 57, 100
1, 604320, Note_on_c, 13, 61, 100
1, 604368, Note_off_c, 10, 64, 0
1, 604372, Note_off_c, 10, 69, 0
1, 604388, Note_off_c, 10, 76, 0
1, 604516, Note_off_c, 6, 69, 0
1, 604540, Note_off_c, 6, 64, 0
1, 604546, Note_off_c, 1, 64, 0
1, 604558, Note_off_c, 6, 76, 0
1, 604612, Note_off_c, 8, 30, 0
1, 604612, Note_off_c, 8, 42, 0
1, 604612, Note_off_c, 13, 57, 0
1, 604612, Note_off_c, 13, 61, 0
1, 604792, Note_off_c, 14, 68, 0
1, 604792, Note_off_c, 14, 88, 0
1, 604800, Note_on_c, 0, 59, 100
1, 604800, Note_on_c, 0, 68, 100
1, 604800, Note_on_c, 1, 66, 68
1, 604800, Note_on_c, 2, 71, 100
1, 604800, Note_on_c, 2, 80, 100
1, 604800, Note_on_c, 3, 71, 100
1, 604800, Note_on_c, 3, 76, 100
1, 604800, Note_on_c, 4, 80, 100
1, 604800, Note_on_c, 5, 71, 100
1, 604800, Note_on_c, 7, 64, 69
1, 604800, Note_on_c, 7, 69, 75
1, 604800, Note_on_c, 7, 76, 73
1, 604800, Note_on_c, 8, 56, 100
1, 604800, Note_on_c, 8, 61, 100
1, 604800, Note_on_c, 13, 37, 100
1, 604800, Note_on_c, 13, 49, 100
1, 604800, Note_on_c, 14, 64, 100
1, 604800, Note_on_c, 14, 85, 100
1, 605014, Note_off_c, 7, 69, 0
1, 605030, Note_off_c, 7, 64, 0
1, 605044, Note_off_c, 7, 76, 0
1, 605082, Note_on_c, 10, 64, 67
1, 605082, Note_on_c, 10, 69, 63
1, 605082, Note_on_c, 10, 76, 72
1, 605092, Note_off_c, 8, 56, 0
1, 605092, Note_off_c, 8, 61, 0
1, 605092, Note_off_c, 13, 37, 0
1, 605092, Note_off_c, 13, 49, 0
1, 605272, Note_off_c, 0, 59, 64
1, 605272, Note_off_c, 0, 68, 64
1, 605272, Note_off_c, 2, 71, 64
1, 605272, Note_off_c, 2, 80, 64
1, 605272, Note_off_c, 3, 71, 64
1, 605272, Note_off_c, 3, 76, 64
1, 605272, Note_off_c, 4, 80, 0
1, 605272, Note_off_c, 5, 71, 0
1, 605280, Note_on_c, 0, 57, 100
1, 605280, Note_on_c, 0, 66, 100
1, 605280, Note_on_c, 1, 61, 68
1, 605280, Note_on_c, 2, 69, 100
1, 605280, Note_on_c, 2, 78, 100
1, 605280, Note_on_c, 3, 64, 100
1, 605280, Note_on_c, 3, 69, 100
1, 605280, Note_on_c, 4, 78, 100
1, 605280, Note_on_c, 5, 69, 100
1, 605280, Note_on_c, 6, 64, 68
1, 605280, Note_on_c, 6, 69, 63
1, 605280, Note_on_c, 6, 76, 72
1, 605280, Note_on_c, 8, 37, 100
1, 605280, Note_on_c, 8, 49, 100
1, 605280, Note_on_c, 13, 56, 100
1, 605280, Note_on_c, 13, 61, 100
1, 605316, Note_off_c, 1, 66, 0
1, 605330, Note_off_c, 10, 69, 0
1, 605358, Note_off_c, 10, 64, 0
1, 605374, Note_off_c, 10, 76, 0
1, 605490, Note_off_c, 6, 64, 0
1, 605524, Note_off_c, 6, 76, 0
1, 605542, Note_off_c, 6, 69, 0
1, 605572, Note_off_c, 8, 37, 0
1, 605572, Note_off_c, 8, 49, 0
1, 605572, Note_off_c, 13, 56, 0
1, 605572, Note_off_c, 13, 61, 0
1, 605752, Note_off_c, 0, 57, 64
1, 605752, Note_off_c, 0, 66, 64
1, 605752, Note_off_c, 2, 69, 64
1, 605752, Note_off_c, 2, 78, 64
1, 605752, Note_off_c, 3, 64, 64
1, 605752, Note_off_c, 3, 69, 64
1, 605752, Note_off_c, 4, 78, 0
1, 605752, Note_off_c, 5, 69, 0
1, 605760, Note_on_c, 7, 64, 68
1, 605760, Note_on_c, 7, 69, 74
1, 605760, Note_on_c, 7, 76, 74
1, 605760, Note_on_c, 8, 56, 100
1, 605760, Note_on_c, 8, 61, 100
1, 605760, Note_on_c, 13, 37, 100
1, 605760, Note_on_c, 13, 49, 100
1, 605984, Note_off_c, 7, 69, 0
1, 606024, Note_off_c, 7, 64, 0
1, 606034, Note_off_c, 7, 76, 0
1, 606042, Note_on_c, 10, 64, 68
1, 606042, Note_on_c, 10, 69, 66
1, 606042, Note_on_c, 10, 76, 70
1, 606050, Note_off_c, 1, 61, 0
1, 606052, Note_off_c, 8, 56, 0
1, 606052, Note_off_c, 8, 61, 0
1, 606052, Note_off_c, 13, 37, 0
1, 606052, Note_off_c, 13, 49, 0
1, 606238, Note_off_c, 10, 69, 0
1, 606240, Note_on_c, 0, 59, 100
1, 606240, Note_on_c, 0, 68, 100
1, 606240, Note_on_c, 1, 69, 77
1, 606240, Note_on_c, 2, 71, 100
1, 606240, Note_on_c, 2, 80, 100
1, 606240, Note_on_c, 3, 71, 100
1, 606240, Note_on_c, 3, 76, 100
1, 606240, Note_on_c, 4, 80, 100
1, 606240, Note_on_c, 5, 71, 100
1, 606240, Note_on_c, 6, 64, 70
1, 606240, Note_on_c, 6, 69, 69
1, 606240, Note_on_c, 6, 76, 72
1, 606240, Note_on_c, 8, 37, 100
1, 606240, Note_on_c, 8, 49, 100
1, 606240, Note_on_c, 13, 56, 100
1, 606240, Note_on_c, 13, 61, 100
1, 606262, Note_off_c, 10, 64, 0
1, 606280, Note_off_c, 10, 76, 0
1, 606474, Note_off_c, 6, 69, 0
1, 606502, Note_off_c, 6, 64, 0
1, 606502, Note_off_c, 6, 76, 0
1, 606532, Note_off_c, 8, 37, 0
1, 606532, Note_off_c, 8, 49, 0
1, 606532, Note_off_c, 13, 56, 0
1, 606532, Note_off_c, 13, 61, 0
1, 606712, Note_off_c, 0, 59, 64
1, 606712, Note_off_c, 0, 68, 64
1, 606712, Note_off_c, 2, 71, 64
1, 606712, Note_off_c, 2, 80, 64
1, 606712, Note_off_c, 3, 71, 64
1, 606712, Note_off_c, 3, 76, 64
1, 606712, Note_off_c, 4, 80, 0
1, 606712, Note_off_c, 5, 71, 0
1, 606720, Note_on_c, 7, 64, 68
1, 606720, Note_on_c, 7, 69, 73
1, 606720, Note_on_c, 7, 76, 73
1, 606720, Note_on_c, 8, 56, 100
1, 606720, Note_on_c, 8, 61, 100
1, 606720, Note_on_c, 13, 37, 100
1, 606720, Note_on_c, 13, 49, 100
1, 606864, Note_off_c, 1, 69, 0
1, 606944, Note_off_c, 7, 64, 0
1, 606968, Note_off_c, 7, 69, 0
1, 606968, Note_off_c, 7, 76, 0
1, 607002, Note_on_c, 10, 64, 68
1, 607002, Note_on_c, 10, 69, 63
1, 607002, Note_on_c, 10, 76, 72
1, 607012, Note_off_c, 8, 56, 0
1, 607012, Note_off_c, 8, 61, 0
1, 607012, Note_off_c, 13, 37, 0
1, 607012, Note_off_c, 13, 49, 0
1, 607200, Note_on_c, 0, 61, 100
1, 607200, Note_on_c, 0, 69, 100
1, 607200, Note_on_c, 1, 64, 70
1, 607200, Note_on_c, 2, 73, 100
1, 607200, Note_on_c, 2, 81, 100
1, 607200, Note_on_c, 3, 73, 100
1, 607200, Note_on_c, 3, 76, 100
1, 607200, Note_on_c, 4, 81, 100
1, 607200, Note_on_c, 5, 73, 100
1, 607200, Note_on_c, 6, 64, 68
1, 607200, Note_on_c, 6, 69, 70
1, 607200, Note_on_c, 6, 76, 70
1, 607200, Note_on_c, 8, 37, 100
1, 607200, Note_on_c, 8, 49, 100
1, 607200, Note_on_c, 13, 56, 100
1, 607200, Note_on_c, 13, 61, 100
1, 607212, Note_off_c, 10, 64, 0
1, 607246, Note_off_c, 10, 76, 0
1, 607264, Note_off_c, 10, 69, 0
1, 607408, Note_off_c, 6, 64, 0
1, 607436, Note_off_c, 6, 69, 0
1, 607440, Note_off_c, 6, 76, 0
1, 607492, Note_off_c, 8, 37, 0
1, 607492, Note_off_c, 8, 49, 0
1, 607492, Note_off_c, 13, 56, 0
1, 607492, Note_off_c, 13, 61, 0
1, 607672, Note_off_c, 0, 61, 64
1, 607672, Note_off_c, 0, 69, 64
1, 607672, Note_off_c, 2, 73, 64
1, 607672, Note_off_c, 2, 81, 64
1, 607672, Note_off_c, 3, 73, 64
1, 607672, Note_off_c, 3, 76, 64
1, 607672, Note_off_c, 4, 81, 0
1, 607672, Note_off_c, 5, 73, 0
1, 607672, Note_off_c, 14, 64, 0
1, 607672, Note_off_c, 14, 85, 0
1, 607680, Note_on_c, 0, 57, 100
1, 607680, Note_on_c, 0, 66, 100
1, 607680, Note_on_c, 1, 66, 77
1, 607680, Note_on_c, 2, 69, 100
1, 607680, Note_on_c, 2, 78, 100
1, 607680, Note_on_c, 3, 64, 100
1, 607680, Note_on_c, 3, 69, 100
1, 607680, Note_on_c, 4, 78, 100
1, 607680, Note_on_c, 5, 69, 100
1, 607680, Note_on_c, 7, 64, 66
1, 607680, Note_on_c, 7, 69, 74
1, 607680, Note_on_c, 7, 76, 73
1, 607680, Note_on_c, 8, 57, 100
1, 607680, Note_on_c, 8, 61, 100
1, 607680, Note_on_c, 13, 30, 100
1, 607680, Note_on_c, 13, 42, 100
1, 607680, Note_on_c, 14, 68, 100
1, 607680, Note_on_c, 14, 83, 100
1, 607832, Note_off_c, 1, 64, 0
1, 607914, Note_off_c, 7, 64, 0
1, 607934, Note_off_c, 7, 76, 0
1, 607962, Note_off_c, 7, 69, 0
1, 607962, Note_on_c, 10, 64, 70
1, 607962, Note_on_c, 10, 69, 69
1, 607962, Note_on_c, 10, 76, 72
1, 607972, Note_off_c, 8, 57, 0
1, 607972, Note_off_c, 8, 61, 0
1, 607972, Note_off_c, 13, 30, 0
1, 607972, Note_off_c, 13, 42, 0
1, 608152, Note_off_c, 0, 57, 64
1, 608152, Note_off_c, 0, 66, 64
1, 608152, Note_off_c, 2, 69, 64
1, 608152, Note_off_c, 2, 78, 64
1, 608152, Note_off_c, 3, 64, 64
1, 608152, Note_off_c, 3, 69, 64
1, 608152, Note_off_c, 4, 78, 0
1, 608152, Note_off_c, 5, 69, 0
1, 608160, Note_on_c, 6, 64, 67
1, 608160, Note_on_c, 6, 69, 73
1, 608160, Note_on_c, 6, 76, 74
1, 608160, Note_on_c, 8, 30, 100
1, 608160, Note_on_c, 8, 42, 100
1, 608160, Note_on_c, 13, 57, 100
1, 608160, Note_on_c, 13, 61, 100
1, 608196, Note_off_c, 10, 69, 0
1, 608224, Note_off_c, 10, 64, 0
1, 608224, Note_off_c, 10, 76, 0
1, 608324, Note_off_c, 1, 66, 0
1, 608376, Note_off_c, 6, 64, 0
1, 608396, Note_off_c, 6, 76, 0
1, 608406, Note_off_c, 6, 69, 0
1, 608452, Note_off_c, 8, 30, 0
1, 608452, Note_off_c, 8, 42, 0
1, 608452, Note_off_c, 13, 57, 0
1, 608452, Note_off_c, 13, 61, 0
1, 608640, Note_on_c, 0, 59, 100
1, 608640, Note_on_c, 0, 68, 100
1, 608640, Note_on_c, 1, 59, 65
1, 608640, Note_on_c, 2, 71, 100
1, 608640, Note_on_c, 2, 80, 100
1, 608640, Note_on_c, 3, 71, 100
1, 608640, Note_on_c, 3, 76, 100
1, 608640, Note_on_c, 4, 80, 100
1, 608640, Note_on_c, 5, 71, 100
1, 608640, Note_on_c, 7, 64, 66
1, 608640, Note_on_c, 7, 69, 77
1, 608640, Note_on_c, 7, 76, 70
1, 608640, Note_on_c, 8, 57, 100
1, 608640, Note_on_c, 8, 61, 100
1, 608640, Note_on_c, 13, 30, 100
1, 608640, Note_on_c, 13, 42, 100
1, 608868, Note_off_c, 7, 64, 0
1, 608922, Note_on_c, 10, 64, 68
1, 608922, Note_on_c, 10, 69, 70
1, 608922, Note_on_c, 10, 76, 70
1, 608926, Note_off_c, 7, 69, 0
1, 608932, Note_off_c, 8, 57, 0
1, 608932, Note_off_c, 8, 61, 0
1, 608932, Note_off_c, 13, 30, 0
1, 608932, Note_off_c, 13, 42, 0
1, 608950, Note_off_c, 7, 76, 0
1, 609112, Note_off_c, 0, 59, 64
1, 609112, Note_off_c, 0, 68, 64
1, 609112, Note_off_c, 2, 71, 64
1, 609112, Note_off_c, 2, 80, 64
1, 609112, Note_off_c, 3, 71, 64
1, 609112, Note_off_c, 3, 76, 64
1, 609112, Note_off_c, 4, 80, 0
1, 609112, Note_off_c, 5, 71, 0
1, 609120, Note_on_c, 0, 57, 100
1, 609120, Note_on_c, 0, 66, 100
1, 609120, Note_on_c, 1, 69, 74
1, 609120, Note_on_c, 2, 69, 100
1, 609120, Note_on_c, 2, 78, 100
1, 609120, Note_on_c, 3, 66, 100
1, 609120, Note_on_c, 3, 69, 100
1, 609120, Note_on_c, 4, 78, 100
1, 609120, Note_on_c, 5, 69, 100
1, 609120, Note_on_c, 6, 64, 68
1, 609120, Note_on_c, 6, 69, 74
1, 609120, Note_on_c, 6, 76, 75
1, 609120, Note_on_c, 8, 30, 100
1, 609120, Note_on_c, 8, 42, 100
1, 609120, Note_on_c, 13, 57, 100
1, 609120, Note_on_c, 13, 61, 100
1, 609130, Note_off_c, 10, 64, 0
1, 609158, Note_off_c, 10, 69, 0
1, 609162, Note_off_c, 10, 76, 0
1, 609214, Note_off_c, 1, 59, 0
1, 609392, Note_off_c, 6, 69, 0
1, 609396, Note_off_c, 6, 64, 0
1, 609410, Note_off_c, 6, 76, 0
1, 609412, Note_off_c, 8, 30, 0
1, 609412, Note_off_c, 8, 42, 0
1, 609412, Note_off_c, 13, 57, 0
1, 609412, Note_off_c, 13, 61, 0
1, 609592, Note_off_c, 0, 57, 64
1, 609592, Note_off_c, 0, 66, 64
1, 609592, Note_off_c, 2, 69, 64
1, 609592, Note_off_c, 2, 78, 64
1, 609592, Note_off_c, 3, 66, 64
1, 609592, Note_off_c, 3, 69, 64
1, 609592, Note_off_c, 4, 78, 0
1, 609592, Note_off_c, 5, 69, 0
1, 609592, Note_off_c, 14, 68, 0
1, 609592, Note_off_c, 14, 83, 0
1, 609600, Note_on_c, 0, 61, 100
1, 609600, Note_on_c, 0, 69, 100
1, 609600, Note_on_c, 1, 64, 68
1, 609600, Note_on_c, 2, 73, 100
1, 609600, Note_on_c, 2, 81, 100
1, 609600, Note_on_c, 3, 73, 100
1, 609600, Note_on_c, 3, 76, 100
1, 609600, Note_on_c, 4, 81, 100
1, 609600, Note_on_c, 5, 73, 100
1, 609600, Note_on_c, 7, 64, 65
1, 609600, Note_on_c, 7, 69, 72
1, 609600, Note_on_c, 7, 76, 72
1, 609600, Note_on_c, 8, 56, 100
1, 609600, Note_on_c, 8, 61, 100
1, 609600, Note_on_c, 13, 37, 100
1, 609600, Note_on_c, 13, 49, 100
1, 609600, Note_on_c, 14, 66, 100
1, 609600, Note_on_c, 14, 81, 100
1, 609812, Note_off_c, 1, 69, 0
1, 609876, Note_off_c, 7, 64, 0
1, 609882, Note_on_c, 10, 64, 67
1, 609882, Note_on_c, 10, 69, 73
1, 609882, Note_on_c, 10, 76, 74
1, 609890, Note_off_c, 7, 69, 0
1, 609892, Note_off_c, 7, 76, 0
1, 609892, Note_off_c, 8, 56, 0
1, 609892, Note_off_c, 8, 61, 0
1, 609892, Note_off_c, 13, 37, 0
1, 609892, Note_off_c, 13, 49, 0
1, 610072, Note_off_c, 0, 61, 64
1, 610072, Note_off_c, 0, 69, 64
1, 610072, Note_off_c, 2, 73, 64
1, 610072, Note_off_c, 2, 81, 64
1, 610072, Note_off_c, 3, 73, 64
1, 610072, Note_off_c, 3, 76, 64
1, 610072, Note_off_c, 4, 81, 0
1, 610072, Note_off_c, 5, 73, 0
1, 610080, Note_on_c, 6, 64, 73
1, 610080, Note_on_c, 6, 69, 80
1, 610080, Note_on_c, 6, 76, 77
1, 610080, Note_on_c, 8, 37, 100
1, 610080, Note_on_c, 8, 49, 100
1, 610080, Note_on_c, 13, 56, 100
1, 610080, Note_on_c, 13, 61, 100
1, 610098, Note_off_c, 10, 64, 0
1, 610118, Note_off_c, 10, 76, 0
1, 610128, Note_off_c, 10, 69, 0
1, 610214, Note_off_c, 1, 64, 0
1, 610342, Note_off_c, 6, 64, 0
1, 610358, Note_off_c, 6, 69, 0
1, 610368, Note_off_c, 6, 76, 0
1, 610372, Note_off_c, 8, 37, 0
1, 610372, Note_off_c, 8, 49, 0
1, 610372, Note_off_c, 13, 56, 0
1, 610372, Note_off_c, 13, 61, 0
1, 610560, Note_on_c, 1, 66, 77
1, 610560, Note_on_c, 3, 71, 100
1, 610560, Note_on_c, 3, 76, 100
1, 610560, Note_on_c, 7, 64, 67
1, 610560, Note_on_c, 7, 69, 75
1, 610560, Note_on_c, 7, 76, 70
1, 610560, Note_on_c, 8, 56, 100
1, 610560, Note_on_c, 8, 61, 100
1, 610560, Note_on_c, 13, 37, 100
1, 610560, Note_on_c, 13, 49, 100
1, 610790, Note_off_c, 7, 69, 0
1, 610808, Note_off_c, 7, 64, 0
1, 610818, Note_off_c, 7, 76, 0
1, 610842, Note_on_c, 10, 64, 68
1, 610842, Note_on_c, 10, 69, 74
1, 610842, Note_on_c, 10, 76, 75
1, 610852, Note_off_c, 8, 56, 0
1, 610852, Note_off_c, 8, 61, 0
1, 610852, Note_off_c, 13, 37, 0
1, 610852, Note_off_c, 13, 49, 0
1, 611032, Note_off_c, 3, 71, 64
1, 611032, Note_off_c, 3, 76, 64
1, 611040, Note_on_c, 1, 61, 70
1, 611040, Note_on_c, 3, 64, 100
1, 611040, Note_on_c, 3, 69, 100
1, 611040, Note_on_c, 6, 64, 68
1, 611040, Note_on_c, 6, 69, 70
1, 611040, Note_on_c, 6, 76, 74
1, 611040, Note_on_c, 8, 37, 100
1, 611040, Note_on_c, 8, 49, 100
1, 611040, Note_on_c, 13, 56, 100
1, 611040, Note_on_c, 13, 61, 100
1, 611114, Note_off_c, 10, 69, 0
1, 611118, Note_off_c, 10, 64, 0
1, 611132, Note_off_c, 10, 76, 0
1, 611202, Note_off_c, 1, 66, 0
1, 611326, Note_off_c, 6, 64, 0
1, 611332, Note_off_c, 8, 37, 0
1, 611332, Note_off_c, 8, 49, 0
1, 611332, Note_off_c, 13, 56, 0
1, 611332, Note_off_c, 13, 61, 0
1, 611338, Note_off_c, 6, 69, 0
1, 611338, Note_off_c, 6, 76, 0
1, 611512, Note_off_c, 3, 64, 64
1, 611512, Note_off_c, 3, 69, 64
1, 611520, Note_on_c, 7, 64, 66
1, 611520, Note_on_c, 7, 69, 68
1, 611520, Note_on_c, 7, 76, 72
1, 611520, Note_on_c, 8, 56, 100
1, 611520, Note_on_c, 8, 61, 100
1, 611520, Note_on_c, 13, 37, 100
1, 611520, Note_on_c, 13, 49, 100
1, 611668, Note_off_c, 1, 61, 0
1, 611780, Note_off_c, 7, 69, 0
1, 611790, Note_off_c, 7, 64, 0
1, 611794, Note_off_c, 7, 76, 0
1, 611802, Note_on_c, 10, 64, 73
1, 611802, Note_on_c, 10, 69, 80
1, 611802, Note_on_c, 10, 76, 77
1, 611812, Note_off_c, 8, 56, 0
1, 611812, Note_off_c, 8, 61, 0
1, 611812, Note_off_c, 13, 37, 0
1, 611812, Note_off_c, 13, 49, 0
1, 612000, Note_on_c, 1, 69, 77
1, 612000, Note_on_c, 3, 71, 100
1, 612000, Note_on_c, 3, 76, 100
1, 612000, Note_on_c, 6, 64, 70
1, 612000, Note_on_c, 6, 69, 74
1, 612000, Note_on_c, 6, 76, 74
1, 612000, Note_on_c, 8, 37, 100
1, 612000, Note_on_c, 8, 49, 100
1, 612000, Note_on_c, 13, 56, 100
1, 612000, Note_on_c, 13, 61, 100
1, 612064, Note_off_c, 10, 64, 0
1, 612080, Note_off_c, 10, 69, 0
1, 612090, Note_off_c, 10, 76, 0
1, 612204, Note_off_c, 6, 64, 0
1, 612234, Note_off_c, 6, 76, 0
1, 612272, Note_off_c, 6, 69, 0
1, 612292, Note_off_c, 8, 37, 0
1, 612292, Note_off_c, 8, 49, 0
1, 612292, Note_off_c, 13, 56, 0
1, 612292, Note_off_c, 13, 61, 0
1, 612472, Note_off_c, 3, 71, 64
1, 612472, Note_off_c, 3, 76, 64
1, 612480, Note_on_c, 7, 64, 62
1, 612480, Note_on_c, 7, 69, 60
1, 612480, Note_on_c, 7, 76, 70
1, 612480, Note_on_c, 8, 56, 100
1, 612480, Note_on_c, 8, 61, 100
1, 612480, Note_on_c, 13, 37, 100
1, 612480, Note_on_c, 13, 49, 100
1, 612648, Note_off_c, 1, 69, 0
1, 612740, Note_off_c, 7, 69, 0
1, 612758, Note_off_c, 7, 64, 0
1, 612762, Note_on_c, 10, 64, 68
1, 612762, Note_on_c, 10, 69, 70
1, 612762, Note_on_c, 10, 76, 74
1, 612772, Note_off_c, 8, 56, 0
1, 612772, Note_off_c, 8, 61, 0
1, 612772, Note_off_c, 13, 37, 0
1, 612772, Note_off_c, 13, 49, 0
1, 612818, Note_off_c, 7, 76, 0
1, 612960, Note_on_c, 1, 64, 68
1, 612960, Note_on_c, 3, 73, 100
1, 612960, Note_on_c, 3, 76, 100
1, 612960, Note_on_c, 6, 64, 68
1, 612960, Note_on_c, 6, 69, 68
1, 612960, Note_on_c, 6, 76, 72
1, 612960, Note_on_c, 8, 37, 100
1, 612960, Note_on_c, 8, 49, 100
1, 612960, Note_on_c, 13, 56, 100
1, 612960, Note_on_c, 13, 61, 100
1, 613048, Note_off_c, 10, 64, 0
1, 613060, Note_off_c, 10, 69, 0
1, 613060, Note_off_c, 10, 76, 0
1, 613166, Note_off_c, 6, 69, 0
1, 613174, Note_off_c, 6, 64, 0
1, 613184, Note_off_c, 6, 76, 0
1, 613252, Note_off_c, 8, 37, 0
1, 613252, Note_off_c, 8, 49, 0
1, 613252, Note_off_c, 13, 56, 0
1, 613252, Note_off_c, 13, 61, 0
1, 613404, Note_off_c, 1, 64, 0
1, 613432, Note_off_c, 3, 73, 64
1, 613432, Note_off_c, 3, 76, 64
1, 613432, Note_off_c, 14, 66, 0
1, 613432, Note_off_c, 14, 81, 0
1, 613440, Note_on_c, 0, 57, 100
1, 613440, Note_on_c, 0, 66, 100
1, 613440, Note_on_c, 1, 66, 78
1, 613440, Note_on_c, 2, 69, 100
1, 613440, Note_on_c, 2, 78, 100
1, 613440, Note_on_c, 3, 64, 100
1, 613440, Note_on_c, 3, 69, 100
1, 613440, Note_on_c, 4, 78, 100
1, 613440, Note_on_c, 5, 69, 100
1, 613440, Note_on_c, 7, 64, 56
1, 613440, Note_on_c, 7, 69, 69
1, 613440, Note_on_c, 7, 76, 73
1, 613440, Note_on_c, 8, 57, 100
1, 613440, Note_on_c, 8, 61, 100
1, 613440, Note_on_c, 13, 42, 100
1, 613440, Note_on_c, 13, 49, 100
1, 613440, Note_on_c, 14, 68, 100
1, 613440, Note_on_c, 14, 80, 100
1, 613706, Note_off_c, 7, 64, 0
1, 613722, Note_on_c, 10, 64, 70
1, 613722, Note_on_c, 10, 69, 74
1, 613722, Note_on_c, 10, 76, 74
1, 613732, Note_off_c, 8, 57, 0
1, 613732, Note_off_c, 8, 61, 0
1, 613732, Note_off_c, 13, 42, 0
1, 613732, Note_off_c, 13, 49, 0
1, 613734, Note_off_c, 7, 69, 0
1, 613742, Note_off_c, 7, 76, 0
1, 613912, Note_off_c, 0, 57, 64
1, 613912, Note_off_c, 0, 66, 64
1, 613912, Note_off_c, 2, 69, 64
1, 613912, Note_off_c, 2, 78, 64
1, 613912, Note_off_c, 3, 64, 64
1, 613912, Note_off_c, 3, 69, 64
1, 613912, Note_off_c, 4, 78, 0
1, 613912, Note_off_c, 5, 69, 0
1, 613920, Note_on_c, 6, 64, 70
1, 613920, Note_on_c, 6, 69, 70
1, 613920, Note_on_c, 6, 76, 75
1, 613920, Note_on_c, 8, 42, 100
1, 613920, Note_on_c, 8, 49, 100
1, 613920, Note_on_c, 13, 57, 100
1, 613920, Note_on_c, 13, 61, 100
1, 613926, Note_off_c, 10, 64, 0
1, 613956, Note_off_c, 10, 76, 0
1, 613994, Note_off_c, 10, 69, 0
1, 614108, Note_off_c, 1, 66, 0
1, 614148, Note_off_c, 6, 69, 0
1, 614190, Note_off_c, 6, 64, 0
1, 614212, Note_off_c, 8, 42, 0
1, 614212, Note_off_c, 8, 49, 0
1, 614212, Note_off_c, 13, 57, 0
1, 614212, Note_off_c, 13, 61, 0
1, 614228, Note_off_c, 6, 76, 0
1, 614400, Note_on_c, 0, 56, 100
1, 614400, Note_on_c, 0, 61, 100
1, 614400, Note_on_c, 1, 59, 74
1, 614400, Note_on_c, 2, 68, 100
1, 614400, Note_on_c, 2, 73, 100
1, 614400, Note_on_c, 3, 71, 100
1, 614400, Note_on_c, 3, 76, 100
1, 614400, Note_on_c, 4, 73, 100
1, 614400, Note_on_c, 5, 68, 100
1, 614400, Note_on_c, 7, 64, 66
1, 614400, Note_on_c, 7, 69, 70
1, 614400, Note_on_c, 7, 76, 75
1, 614400, Note_on_c, 8, 57, 100
1, 614400, Note_on_c, 8, 61, 100
1, 614400, Note_on_c, 13, 42, 100
1, 614400, Note_on_c, 13, 49, 100
1, 614650, Note_off_c, 7, 69, 0
1, 614664, Note_off_c, 7, 64, 0
1, 614682, Note_on_c, 10, 64, 68
1, 614682, Note_on_c, 10, 69, 68
1, 614682, Note_on_c, 10, 76, 72
1, 614690, Note_off_c, 7, 76, 0
1, 614692, Note_off_c, 8, 57, 0
1, 614692, Note_off_c, 8, 61, 0
1, 614692, Note_off_c, 13, 42, 0
1, 614692, Note_off_c, 13, 49, 0
1, 614872, Note_off_c, 0, 56, 64
1, 614872, Note_off_c, 0, 61, 64
1, 614872, Note_off_c, 2, 68, 64
1, 614872, Note_off_c, 2, 73, 64
1, 614872, Note_off_c, 3, 71, 64
1, 614872, Note_off_c, 3, 76, 64
1, 614872, Note_off_c, 4, 73, 0
1, 614872, Note_off_c, 5, 68, 0
1, 614880, Note_on_c, 0, 57, 100
1, 614880, Note_on_c, 0, 64, 100
1, 614880, Note_on_c, 1, 69, 75
1, 614880, Note_on_c, 2, 69, 100
1, 614880, Note_on_c, 2, 76, 100
1, 614880, Note_on_c, 3, 66, 100
1, 614880, Note_on_c, 3, 69, 100
1, 614880, Note_on_c, 4, 76, 100
1, 614880, Note_on_c, 5, 69, 100
1, 614880, Note_on_c, 6, 64, 69
1, 614880, Note_on_c, 6, 69, 69
1, 614880, Note_on_c, 6, 76, 73
1, 614880, Note_on_c, 8, 42, 100
1, 614880, Note_on_c, 8, 49, 100
1, 614880, Note_on_c, 13, 57, 100
1, 614880, Note_on_c, 13, 61, 100
1, 614888, Note_off_c, 1, 59, 0
1, 614888, Note_off_c, 10, 69, 0
1, 614896, Note_off_c, 10, 64, 0
1, 614906, Note_off_c, 10, 76, 0
1, 615146, Note_off_c, 6, 64, 0
1, 615172, Note_off_c, 8, 42, 0
1, 615172, Note_off_c, 8, 49, 0
1, 615172, Note_off_c, 13, 57, 0
1, 615172, Note_off_c, 13, 61, 0
1, 615184, Note_off_c, 6, 69, 0
1, 615184, Note_off_c, 6, 76, 0
1, 615352, Note_off_c, 0, 57, 64
1, 615352, Note_off_c, 0, 64, 64
1, 615352, Note_off_c, 2, 69, 64
1, 615352, Note_off_c, 2, 76, 64
1, 615352, Note_off_c, 3, 66, 64
1, 615352, Note_off_c, 3, 69, 64
1, 615352, Note_off_c, 4, 76, 0
1, 615352, Note_off_c, 5, 69, 0
1, 615360, Note_on_c, 0, 61, 100
1, 615360, Note_on_c, 0, 68, 100
1, 615360, Note_on_c, 1, 64, 73
1, 615360, Note_on_c, 2, 73, 100
1, 615360, Note_on_c, 2, 80, 100
1, 615360, Note_on_c, 3, 73, 100
1, 615360, Note_on_c, 3, 76, 100
1, 615360, Note_on_c, 4, 80, 100
1, 615360, Note_on_c, 5, 73, 100
1, 615360, Note_on_c, 7, 64, 66
1, 615360, Note_on_c, 7, 69, 70
1, 615360, Note_on_c, 7, 76, 75
1, 615360, Note_on_c, 8, 57, 100
1, 615360, Note_on_c, 8, 61, 100
1, 615360, Note_on_c, 13, 42, 100
1, 615360, Note_on_c, 13, 49, 100
1, 615486, Note_off_c, 1, 69, 0
1, 615610, Note_off_c, 7, 69, 0
1, 615624, Note_off_c, 7, 64, 0
1, 615642, Note_on_c, 10, 64, 70
1, 615642, Note_on_c, 10, 69, 70
1, 615642, Note_on_c, 10, 76, 75
1, 615650, Note_off_c, 7, 76, 0
1, 615652, Note_off_c, 8, 57, 0
1, 615652, Note_off_c, 8, 61, 0
1, 615652, Note_off_c, 13, 42, 0
1, 615652, Note_off_c, 13, 49, 0
1, 615832, Note_off_c, 0, 61, 64
1, 615832, Note_off_c, 0, 68, 64
1, 615832, Note_off_c, 2, 73, 64
1, 615832, Note_off_c, 2, 80, 64
1, 615832, Note_off_c, 3, 73, 64
1, 615832, Note_off_c, 3, 76, 64
1, 615832, Note_off_c, 4, 80, 0
1, 615832, Note_off_c, 5, 73, 0
1, 615840, Note_on_c, 6, 64, 67
1, 615840, Note_on_c, 6, 69, 63
1, 615840, Note_on_c, 6, 76, 74
1, 615840, Note_on_c, 8, 42, 100
1, 615840, Note_on_c, 8, 49, 100
1, 615840, Note_on_c, 13, 57, 100
1, 615840, Note_on_c, 13, 61, 100
1, 615870, Note_off_c, 10, 69, 0
1, 615912, Note_off_c, 10, 64, 0
1, 615950, Note_off_c, 10, 76, 0
1, 616044, Note_off_c, 6, 69, 0
1, 616066, Note_off_c, 1, 64, 0
1, 616106, Note_off_c, 6, 64, 0
1, 616106, Note_off_c, 6, 76, 0
1, 616132, Note_off_c, 8, 42, 0
1, 616132, Note_off_c, 8, 49, 0
1, 616132, Note_off_c, 13, 57, 0
1, 616132, Note_off_c, 13, 61, 0
1, 616320, Note_on_c, 0, 59, 100
1, 616320, Note_on_c, 0, 66, 100
1, 616320, Note_on_c, 1, 66, 68
1, 616320, Note_on_c, 2, 71, 100
1, 616320, Note_on_c, 2, 78, 100
1, 616320, Note_on_c, 3, 71, 100
1, 616320, Note_on_c, 3, 76, 100
1, 616320, Note_on_c, 4, 78, 100
1, 616320, Note_on_c, 5, 71, 100
1, 616320, Note_on_c, 7, 64, 72
1, 616320, Note_on_c, 7, 69, 80
1, 616320, Note_on_c, 7, 76, 77
1, 616320, Note_on_c, 8, 59, 100
1, 616320, Note_on_c, 8, 61, 100
1, 616320, Note_on_c, 13, 44, 100
1, 616320, Note_on_c, 13, 49, 100
1, 616560, Note_off_c, 7, 76, 0
1, 616570, Note_off_c, 7, 64, 0
1, 616570, Note_off_c, 7, 69, 0
1, 616602, Note_on_c, 10, 64, 69
1, 616602, Note_on_c, 10, 69, 69
1, 616602, Note_on_c, 10, 76, 73
1, 616612, Note_off_c, 8, 59, 0
1, 616612, Note_off_c, 8, 61, 0
1, 616612, Note_off_c, 13, 44, 0
1, 616612, Note_off_c, 13, 49, 0
1, 616792, Note_off_c, 0, 59, 64
1, 616792, Note_off_c, 0, 66, 64
1, 616792, Note_off_c, 2, 71, 64
1, 616792, Note_off_c, 2, 78, 64
1, 616792, Note_off_c, 3, 71, 64
1, 616792, Note_off_c, 3, 76, 64
1, 616792, Note_off_c, 4, 78, 0
1, 616792, Note_off_c, 5, 71, 0
1, 616800, Note_on_c, 0, 56, 100
1, 616800, Note_on_c, 0, 61, 100
1, 616800, Note_on_c, 1, 61, 68
1, 616800, Note_on_c, 2, 68, 100
1, 616800, Note_on_c, 2, 73, 100
1, 616800, Note_on_c, 3, 64, 100
1, 616800, Note_on_c, 3, 69, 100
1, 616800, Note_on_c, 4, 73, 100
1, 616800, Note_on_c, 5, 68, 100
1, 616800, Note_on_c, 6, 64, 66
1, 616800, Note_on_c, 6, 69, 63
1, 616800, Note_on_c, 6, 76, 74
1, 616800, Note_on_c, 8, 44, 100
1, 616800, Note_on_c, 8, 49, 100
1, 616800, Note_on_c, 13, 59, 100
1, 616800, Note_on_c, 13, 61, 100
1, 616836, Note_off_c, 1, 66, 0
1, 616868, Note_off_c, 10, 64, 0
1, 616906, Note_off_c, 10, 69, 0
1, 616906, Note_off_c, 10, 76, 0
1, 617030, Note_off_c, 6, 69, 0
1, 617036, Note_off_c, 6, 64, 0
1, 617074, Note_off_c, 6, 76, 0
1, 617092, Note_off_c, 8, 44, 0
1, 617092, Note_off_c, 8, 49, 0
1, 617092, Note_off_c, 13, 59, 0
1, 617092, Note_off_c, 13, 61, 0
1, 617272, Note_off_c, 0, 56, 64
1, 617272, Note_off_c, 0, 61, 64
1, 617272, Note_off_c, 2, 68, 64
1, 617272, Note_off_c, 2, 73, 64
1, 617272, Note_off_c, 3, 64, 64
1, 617272, Note_off_c, 3, 69, 64
1, 617272, Note_off_c, 4, 73, 0
1, 617272, Note_off_c, 5, 68, 0
1, 617280, Note_on_c, 7, 64, 70
1, 617280, Note_on_c, 7, 69, 77
1, 617280, Note_on_c, 7, 76, 77
1, 617280, Note_on_c, 8, 59, 100
1, 617280, Note_on_c, 8, 61, 100
1, 617280, Note_on_c, 13, 44, 100
1, 617280, Note_on_c, 13, 49, 100
1, 617534, Note_off_c, 7, 64, 0
1, 617562, Note_off_c, 7, 69, 0
1, 617562, Note_on_c, 10, 64, 67
1, 617562, Note_on_c, 10, 69, 63
1, 617562, Note_on_c, 10, 76, 74
1, 617570, Note_off_c, 1, 61, 0
1, 617570, Note_off_c, 7, 76, 0
1, 617572, Note_off_c, 8, 59, 0
1, 617572, Note_off_c, 8, 61, 0
1, 617572, Note_off_c, 13, 44, 0
1, 617572, Note_off_c, 13, 49, 0
1, 617760, Note_on_c, 0, 57, 100
1, 617760, Note_on_c, 0, 64, 100
1, 617760, Note_on_c, 1, 69, 77
1, 617760, Note_on_c, 2, 69, 100
1, 617760, Note_on_c, 2, 76, 100
1, 617760, Note_on_c, 3, 71, 100
1, 617760, Note_on_c, 3, 76, 100
1, 617760, Note_on_c, 4, 76, 100
1, 617760, Note_on_c, 5, 69, 100
1, 617760, Note_on_c, 6, 64, 68
1, 617760, Note_on_c, 6, 69, 74
1, 617760, Note_on_c, 6, 76, 74
1, 617760, Note_on_c, 8, 44, 100
1, 617760, Note_on_c, 8, 49, 100
1, 617760, Note_on_c, 13, 59, 100
1, 617760, Note_on_c, 13, 61, 100
1, 617766, Note_off_c, 10, 69, 0
1, 617828, Note_off_c, 10, 64, 0
1, 617828, Note_off_c, 10, 76, 0
1, 618020, Note_off_c, 6, 69, 0
1, 618050, Note_off_c, 6, 76, 0
1, 618052, Note_off_c, 8, 44, 0
1, 618052, Note_off_c, 8, 49, 0
1, 618052, Note_off_c, 13, 59, 0
1, 618052, Note_off_c, 13, 61, 0
1, 618054, Note_off_c, 6, 64, 0
1, 618232, Note_off_c, 0, 57, 64
1, 618232, Note_off_c, 0, 64, 64
1, 618232, Note_off_c, 2, 69, 64
1, 618232, Note_off_c, 2, 76, 64
1, 618232, Note_off_c, 3, 71, 64
1, 618232, Note_off_c, 3, 76, 64
1, 618232, Note_off_c, 4, 76, 0
1, 618232, Note_off_c, 5, 69, 0
1, 618240, Note_on_c, 7, 64, 70
1, 618240, Note_on_c, 7, 69, 73
1, 618240, Note_on_c, 7, 76, 74
1, 618240, Note_on_c, 8, 59, 100
1, 618240, Note_on_c, 8, 61, 100
1, 618240, Note_on_c, 13, 44, 100
1, 618240, Note_on_c, 13, 49, 100
1, 618384, Note_off_c, 1, 69, 0
1, 618480, Note_off_c, 7, 64, 0
1, 618486, Note_off_c, 7, 69, 0
1, 618500, Note_off_c, 7, 76, 0
1, 618522, Note_on_c, 10, 64, 66
1, 618522, Note_on_c, 10, 69, 63
1, 618522, Note_on_c, 10, 76, 74
1, 618532, Note_off_c, 8, 59, 0
1, 618532, Note_off_c, 8, 61, 0
1, 618532, Note_off_c, 13, 44, 0
1, 618532, Note_off_c, 13, 49, 0
1, 618720, Note_on_c, 0, 59, 100
1, 618720, Note_on_c, 0, 66, 100
1, 618720, Note_on_c, 1, 64, 70
1, 618720, Note_on_c, 2, 71, 100
1, 618720, Note_on_c, 2, 78, 100
1, 618720, Note_on_c, 3, 73, 100
1, 618720, Note_on_c, 3, 76, 100
1, 618720, Note_on_c, 4, 78, 100
1, 618720, Note_on_c, 5, 71, 100
1, 618720, Note_on_c, 6, 64, 73
1, 618720, Note_on_c, 6, 69, 82
1, 618720, Note_on_c, 6, 76, 77
1, 618720, Note_on_c, 8, 44, 100
1, 618720, Note_on_c, 8, 49, 100
1, 618720, Note_on_c, 13, 59, 100
1, 618720, Note_on_c, 13, 61, 100
1, 618752, Note_off_c, 10, 69, 0
1, 618758, Note_off_c, 10, 64, 0
1, 618796, Note_off_c, 10, 76, 0
1, 618998, Note_off_c, 6, 69, 0
1, 619010, Note_off_c, 6, 64, 0
1, 619012, Note_off_c, 8, 44, 0
1, 619012, Note_off_c, 8, 49, 0
1, 619012, Note_off_c, 13, 59, 0
1, 619012, Note_off_c, 13, 61, 0
1, 619018, Note_off_c, 6, 76, 0
1, 619192, Note_off_c, 0, 59, 64
1, 619192, Note_off_c, 0, 66, 64
1, 619192, Note_off_c, 2, 71, 64
1, 619192, Note_off_c, 2, 78, 64
1, 619192, Note_off_c, 3, 73, 64
1, 619192, Note_off_c, 3, 76, 64
1, 619192, Note_off_c, 4, 78, 0
1, 619192, Note_off_c, 5, 71, 0
1, 619200, Note_on_c, 0, 56, 100
1, 619200, Note_on_c, 0, 61, 100
1, 619200, Note_on_c, 1, 66, 77
1, 619200, Note_on_c, 2, 68, 100
1, 619200, Note_on_c, 2, 73, 100
1, 619200, Note_on_c, 3, 64, 100
1, 619200, Note_on_c, 3, 69, 100
1, 619200, Note_on_c, 4, 73, 100
1, 619200, Note_on_c, 5, 68, 100
1, 619200, Note_on_c, 7, 64, 72
1, 619200, Note_on_c, 7, 69, 77
1, 619200, Note_on_c, 7, 76, 75
1, 619200, Note_on_c, 8, 57, 100
1, 619200, Note_on_c, 8, 61, 100
1, 619200, Note_on_c, 13, 42, 100
1, 619200, Note_on_c, 13, 49, 100
1, 619352, Note_off_c, 1, 64, 0
1, 619408, Note_off_c, 7, 69, 0
1, 619422, Note_off_c, 7, 64, 0
1, 619442, Note_off_c, 7, 76, 0
1, 619482, Note_on_c, 10, 64, 68
1, 619482, Note_on_c, 10, 69, 74
1, 619482, Note_on_c, 10, 76, 74
1, 619492, Note_off_c, 8, 57, 0
1, 619492, Note_off_c, 8, 61, 0
1, 619492, Note_off_c, 13, 42, 0
1, 619492, Note_off_c, 13, 49, 0
1, 619672, Note_off_c, 0, 56, 64
1, 619672, Note_off_c, 0, 61, 64
1, 619672, Note_off_c, 2, 68, 64
1, 619672, Note_off_c, 2, 73, 64
1, 619672, Note_off_c, 3, 64, 64
1, 619672, Note_off_c, 3, 69, 64
1, 619672, Note_off_c, 4, 73, 0
1, 619672, Note_off_c, 5, 68, 0
1, 619680, Note_on_c, 6, 64, 72
1, 619680, Note_on_c, 6, 69, 75
1, 619680, Note_on_c, 6, 76, 73
1, 619680, Note_on_c, 8, 42, 100
1, 619680, Note_on_c, 8, 49, 100
1, 619680, Note_on_c, 13, 57, 100
1, 619680, Note_on_c, 13, 61, 100
1, 619742, Note_off_c, 10, 69, 0
1, 619772, Note_off_c, 10, 76, 0
1, 619776, Note_off_c, 10, 64, 0
1, 619844, Note_off_c, 1, 66, 0
1, 619968, Note_off_c, 6, 76, 0
1, 619970, Note_off_c, 6, 69, 0
1, 619972, Note_off_c, 8, 42, 0
1, 619972, Note_off_c, 8, 49, 0
1, 619972, Note_off_c, 13, 57, 0
1, 619972, Note_off_c, 13, 61, 0
1, 619978, Note_off_c, 6, 64, 0
1, 620160, Note_on_c, 0, 56, 100
1, 620160, Note_on_c, 0, 61, 100
1, 620160, Note_on_c, 1, 59, 65
1, 620160, Note_on_c, 2, 68, 100
1, 620160, Note_on_c, 2, 73, 100
1, 620160, Note_on_c, 3, 71, 100
1, 620160, Note_on_c, 3, 76, 100
1, 620160, Note_on_c, 4, 73, 100
1, 620160, Note_on_c, 5, 68, 100
1, 620160, Note_on_c, 7, 64, 70
1, 620160, Note_on_c, 7, 69, 78
1, 620160, Note_on_c, 7, 76, 77
1, 620160, Note_on_c, 8, 57, 100
1, 620160, Note_on_c, 8, 61, 100
1, 620160, Note_on_c, 13, 42, 100
1, 620160, Note_on_c, 13, 49, 100
1, 620402, Note_off_c, 7, 64, 0
1, 620424, Note_off_c, 7, 76, 0
1, 620442, Note_on_c, 10, 64, 73
1, 620442, Note_on_c, 10, 69, 82
1, 620442, Note_on_c, 10, 76, 77
1, 620448, Note_off_c, 7, 69, 0
1, 620452, Note_off_c, 8, 57, 0
1, 620452, Note_off_c, 8, 61, 0
1, 620452, Note_off_c, 13, 42, 0
1, 620452, Note_off_c, 13, 49, 0
1, 620632, Note_off_c, 0, 56, 64
1, 620632, Note_off_c, 0, 61, 64
1, 620632, Note_off_c, 2, 68, 64
1, 620632, Note_off_c, 2, 73, 64
1, 620632, Note_off_c, 3, 71, 64
1, 620632, Note_off_c, 3, 76, 64
1, 620632, Note_off_c, 4, 73, 0
1, 620632, Note_off_c, 5, 68, 0
1, 620640, Note_on_c, 0, 57, 100
1, 620640, Note_on_c, 0, 64, 100
1, 620640, Note_on_c, 1, 69, 74
1, 620640, Note_on_c, 2, 69, 100
1, 620640, Note_on_c, 2, 76, 100
1, 620640, Note_on_c, 3, 66, 100
1, 620640, Note_on_c, 3, 69, 100
1, 620640, Note_on_c, 4, 76, 100
1, 620640, Note_on_c, 5, 69, 100
1, 620640, Note_on_c, 6, 64, 69
1, 620640, Note_on_c, 6, 69, 70
1, 620640, Note_on_c, 6, 76, 72
1, 620640, Note_on_c, 8, 42, 100
1, 620640, Note_on_c, 8, 49, 100
1, 620640, Note_on_c, 13, 57, 100
1, 620640, Note_on_c, 13, 61, 100
1, 620720, Note_off_c, 10, 69, 0
1, 620732, Note_off_c, 10, 64, 0
1, 620734, Note_off_c, 1, 59, 0
1, 620740, Note_off_c, 10, 76, 0
1, 620904, Note_off_c, 6, 69, 0
1, 620928, Note_off_c, 6, 64, 0
1, 620932, Note_off_c, 8, 42, 0
1, 620932, Note_off_c, 8, 49, 0
1, 620932, Note_off_c, 13, 57, 0
1, 620932, Note_off_c, 13, 61, 0
1, 620944, Note_off_c, 6, 76, 0
1, 621112, Note_off_c, 0, 57, 64
1, 621112, Note_off_c, 0, 64, 64
1, 621112, Note_off_c, 2, 69, 64
1, 621112, Note_off_c, 2, 76, 64
1, 621112, Note_off_c, 3, 66, 64
1, 621112, Note_off_c, 3, 69, 64
1, 621112, Note_off_c, 4, 76, 0
1, 621112, Note_off_c, 5, 69, 0
1, 621120, Note_on_c, 0, 61, 100
1, 621120, Note_on_c, 0, 68, 100
1, 621120, Note_on_c, 1, 64, 68
1, 621120, Note_on_c, 2, 73, 100
1, 621120, Note_on_c, 2, 80, 100
1, 621120, Note_on_c, 3, 73, 100
1, 621120, Note_on_c, 3, 76, 100
1, 621120, Note_on_c, 4, 80, 100
1, 621120, Note_on_c, 5, 73, 100
1, 621120, Note_on_c, 7, 64, 70
1, 621120, Note_on_c, 7, 69, 72
1, 621120, Note_on_c, 7, 76, 77
1, 621120, Note_on_c, 8, 59, 100
1, 621120, Note_on_c, 8, 61, 100
1, 621120, Note_on_c, 13, 44, 100
1, 621120, Note_on_c, 13, 49, 100
1, 621332, Note_off_c, 1, 69, 0
1, 621374, Note_off_c, 7, 64, 0
1, 621386, Note_off_c, 7, 69, 0
1, 621402, Note_on_c, 10, 64, 72
1, 621402, Note_on_c, 10, 69, 75
1, 621402, Note_on_c, 10, 76, 73
1, 621412, Note_off_c, 8, 59, 0
1, 621412, Note_off_c, 8, 61, 0
1, 621412, Note_off_c, 13, 44, 0
1, 621412, Note_off_c, 13, 49, 0
1, 621442, Note_off_c, 7, 76, 0
1, 621592, Note_off_c, 0, 61, 64
1, 621592, Note_off_c, 0, 68, 64
1, 621592, Note_off_c, 2, 73, 64
1, 621592, Note_off_c, 2, 80, 64
1, 621592, Note_off_c, 3, 73, 64
1, 621592, Note_off_c, 3, 76, 64
1, 621592, Note_off_c, 4, 80, 0
1, 621592, Note_off_c, 5, 73, 0
1, 621592, Note_off_c, 14, 68, 0
1, 621592, Note_off_c, 14, 80, 0
1, 621600, Note_on_c, 6, 64, 68
1, 621600, Note_on_c, 6, 69, 77
1, 621600, Note_on_c, 6, 76, 73
1, 621600, Note_on_c, 8, 44, 100
1, 621600, Note_on_c, 8, 49, 100
1, 621600, Note_on_c, 13, 59, 100
1, 621600, Note_on_c, 13, 61, 100
1, 621690, Note_off_c, 10, 76, 0
1, 621692, Note_off_c, 10, 69, 0
1, 621700, Note_off_c, 10, 64, 0
1, 621734, Note_off_c, 1, 64, 0
1, 621866, Note_off_c, 6, 64, 0
1, 621884, Note_off_c, 6, 69, 0
1, 621884, Note_off_c, 6, 76, 0
1, 621892, Note_off_c, 8, 44, 0
1, 621892, Note_off_c, 8, 49, 0
1, 621892, Note_off_c, 13, 59, 0
1, 621892, Note_off_c, 13, 61, 0
1, 622080, Note_on_c, 1, 66, 77
1, 622080, Note_on_c, 3, 71, 100
1, 622080, Note_on_c, 3, 76, 100
1, 622080, Note_on_c, 7, 64, 73
1, 622080, Note_on_c, 7, 69, 77
1, 622080, Note_on_c, 7, 76, 74
1, 622080, Note_on_c, 8, 59, 100
1, 622080, Note_on_c, 8, 61, 100
1, 622080, Note_on_c, 13, 44, 100
1, 622080, Note_on_c, 13, 49, 100
1, 622362, Note_on_c, 10, 64, 69
1, 622362, Note_on_c, 10, 69, 70
1, 622362, Note_on_c, 10, 76, 72
1, 622364, Note_off_c, 7, 69, 0
1, 622372, Note_off_c, 8, 59, 0
1, 622372, Note_off_c, 8, 61, 0
1, 622372, Note_off_c, 13, 44, 0
1, 622372, Note_off_c, 13, 49, 0
1, 622396, Note_off_c, 7, 76, 0
1, 622402, Note_off_c, 7, 64, 0
1, 622552, Note_off_c, 3, 71, 64
1, 622552, Note_off_c, 3, 76, 64
1, 622560, Note_on_c, 1, 61, 70
1, 622560, Note_on_c, 3, 64, 100
1, 622560, Note_on_c, 3, 69, 100
1, 622560, Note_on_c, 6, 64, 72
1, 622560, Note_on_c, 6, 69, 52
1, 622560, Note_on_c, 6, 76, 72
1, 622560, Note_on_c, 8, 44, 100
1, 622560, Note_on_c, 8, 49, 100
1, 622560, Note_on_c, 13, 59, 100
1, 622560, Note_on_c, 13, 61, 100
1, 622626, Note_off_c, 10, 69, 0
1, 622650, Note_off_c, 10, 64, 0
1, 622666, Note_off_c, 10, 76, 0
1, 622712, Note_off_c, 6, 69, 0
1, 622722, Note_off_c, 1, 66, 0
1, 622800, Note_off_c, 6, 64, 0
1, 622806, Note_off_c, 6, 76, 0
1, 622852, Note_off_c, 8, 44, 0
1, 622852, Note_off_c, 8, 49, 0
1, 622852, Note_off_c, 13, 59, 0
1, 622852, Note_off_c, 13, 61, 0
1, 623032, Note_off_c, 3, 64, 64
1, 623032, Note_off_c, 3, 69, 64
1, 623040, Note_on_c, 7, 64, 68
1, 623040, Note_on_c, 7, 69, 70
1, 623040, Note_on_c, 7, 76, 72
1, 623040, Note_on_c, 8, 59, 100
1, 623040, Note_on_c, 8, 61, 100
1, 623040, Note_on_c, 13, 44, 100
1, 623040, Note_on_c, 13, 49, 100
1, 623188, Note_off_c, 1, 61, 0
1, 623322, Note_on_c, 10, 64, 68
1, 623322, Note_on_c, 10, 69, 77
1, 623322, Note_on_c, 10, 76, 73
1, 623330, Note_off_c, 7, 69, 0
1, 623332, Note_off_c, 8, 59, 0
1, 623332, Note_off_c, 8, 61, 0
1, 623332, Note_off_c, 13, 44, 0
1, 623332, Note_off_c, 13, 49, 0
1, 623348, Note_off_c, 7, 76, 0
1, 623354, Note_off_c, 7, 64, 0
1, 623520, Note_on_c, 1, 69, 77
1, 623520, Note_on_c, 3, 71, 100
1, 623520, Note_on_c, 3, 76, 100
1, 623520, Note_on_c, 6, 64, 68
1, 623520, Note_on_c, 6, 69, 70
1, 623520, Note_on_c, 6, 76, 74
1, 623520, Note_on_c, 8, 44, 100
1, 623520, Note_on_c, 8, 49, 100
1, 623520, Note_on_c, 13, 59, 100
1, 623520, Note_on_c, 13, 61, 100
1, 623588, Note_off_c, 10, 64, 0
1, 623606, Note_off_c, 10, 69, 0
1, 623606, Note_off_c, 10, 76, 0
1, 623752, Note_off_c, 6, 69, 0
1, 623762, Note_off_c, 6, 64, 0
1, 623770, Note_off_c, 6, 76, 0
1, 623812, Note_off_c, 8, 44, 0
1, 623812, Note_off_c, 8, 49, 0
1, 623812, Note_off_c, 13, 59, 0
1, 623812, Note_off_c, 13, 61, 0
1, 623992, Note_off_c, 3, 71, 64
1, 623992, Note_off_c, 3, 76, 64
1, 624000, Note_on_c, 7, 64, 68
1, 624000, Note_on_c, 7, 69, 70
1, 624000, Note_on_c, 7, 76, 73
1, 624000, Note_on_c, 8, 59, 100
1, 624000, Note_on_c, 8, 61, 100
1, 624000, Note_on_c, 13, 44, 100
1, 624000, Note_on_c, 13, 49, 100
1, 624168, Note_off_c, 1, 69, 0
1, 624248, Note_off_c, 7, 64, 0
1, 624262, Note_off_c, 7, 69, 0
1, 624262, Note_off_c, 7, 76, 0
1, 624282, Note_on_c, 10, 64, 72
1, 624282, Note_on_c, 10, 69, 52
1, 624282, Note_on_c, 10, 76, 72
1, 624292, Note_off_c, 8, 59, 0
1, 624292, Note_off_c, 8, 61, 0
1, 624292, Note_off_c, 13, 44, 0
1, 624292, Note_off_c, 13, 49, 0
1, 624434, Note_off_c, 10, 69, 0
1, 624480, Note_on_c, 1, 64, 68
1, 624480, Note_on_c, 3, 73, 100
1, 624480, Note_on_c, 3, 76, 100
1, 624480, Note_on_c, 6, 64, 68
1, 624480, Note_on_c, 6, 69, 69
1, 624480, Note_on_c, 6, 76, 72
1, 624480, Note_on_c, 8, 44, 100
1, 624480, Note_on_c, 8, 49, 100
1, 624480, Note_on_c, 13, 59, 100
1, 624480, Note_on_c, 13, 61, 100
1, 624522, Note_off_c, 10, 64, 0
1, 624528, Note_off_c, 10, 76, 0
1, 624696, Note_off_c, 6, 76, 0
1, 624698, Note_off_c, 6, 69, 0
1, 624712, Note_off_c, 6, 64, 0
1, 624772, Note_off_c, 8, 44, 0
1, 624772, Note_off_c, 8, 49, 0
1, 624772, Note_off_c, 13, 59, 0
1, 624772, Note_off_c, 13, 61, 0
1, 624924, Note_off_c, 1, 64, 0
1, 624952, Note_off_c, 3, 73, 64
1, 624952, Note_off_c, 3, 76, 64
1, 624960, Note_on_c, 0, 54, 100
1, 624960, Note_on_c, 0, 59, 100
1, 624960, Note_on_c, 1, 66, 78
1, 624960, Note_on_c, 2, 66, 100
1, 624960, Note_on_c, 2, 71, 100
1, 624960, Note_on_c, 3, 64, 100
1, 624960, Note_on_c, 3, 69, 100
1, 624960, Note_on_c, 4, 71, 100
1, 624960, Note_on_c, 5, 66, 100
1, 624960, Note_on_c, 7, 64, 70
1, 624960, Note_on_c, 7, 69, 83
1, 624960, Note_on_c, 7, 76, 74
1, 624960, Note_on_c, 8, 57, 100
1, 624960, Note_on_c, 8, 61, 100
1, 624960, Note_on_c, 13, 42, 100
1, 624960, Note_on_c, 13, 49, 100
1, 625012, Note_off_c, 4, 71, 0
1, 625200, Note_off_c, 7, 64, 0
1, 625200, Note_off_c, 7, 76, 0
1, 625210, Note_off_c, 7, 69, 0
1, 625242, Note_on_c, 10, 64, 68
1, 625242, Note_on_c, 10, 69, 70
1, 625242, Note_on_c, 10, 76, 74
1, 625252, Note_off_c, 8, 57, 0
1, 625252, Note_off_c, 8, 61, 0
1, 625252, Note_off_c, 13, 42, 0
1, 625252, Note_off_c, 13, 49, 0
1, 625312, Note_off_c, 5, 66, 0
1, 625432, Note_off_c, 0, 54, 64
1, 625432, Note_off_c, 0, 59, 64
1, 625432, Note_off_c, 2, 66, 64
1, 625432, Note_off_c, 2, 71, 64
1, 625432, Note_off_c, 3, 64, 64
1, 625432, Note_off_c, 3, 69, 64
1, 625440, Note_on_c, 6, 64, 67
1, 625440, Note_on_c, 6, 69, 67
1, 625440, Note_on_c, 6, 76, 72
1, 625440, Note_on_c, 8, 42, 100
1, 625440, Note_on_c, 8, 49, 100
1, 625440, Note_on_c, 13, 57, 100
1, 625440, Note_on_c, 13, 61, 100
1, 625474, Note_off_c, 10, 69, 0
1, 625484, Note_off_c, 10, 64, 0
1, 625492, Note_off_c, 10, 76, 0
1, 625628, Note_off_c, 1, 66, 0
1, 625686, Note_off_c, 6, 64, 0
1, 625690, Note_off_c, 6, 69, 0
1, 625706, Note_off_c, 6, 76, 0
1, 625732, Note_off_c, 8, 42, 0
1, 625732, Note_off_c, 8, 49, 0
1, 625732, Note_off_c, 13, 57, 0
1, 625732, Note_off_c, 13, 61, 0
1, 625920, Note_on_c, 0, 56, 100
1, 625920, Note_on_c, 0, 61, 100
1, 625920, Note_on_c, 1, 59, 74
1, 625920, Note_on_c, 2, 68, 100
1, 625920, Note_on_c, 2, 73, 100
1, 625920, Note_on_c, 3, 71, 100
1, 625920, Note_on_c, 3, 76, 100
1, 625920, Note_on_c, 4, 73, 100
1, 625920, Note_on_c, 5, 68, 100
1, 625920, Note_on_c, 7, 64, 67
1, 625920, Note_on_c, 7, 69, 78
1, 625920, Note_on_c, 7, 76, 73
1, 625920, Note_on_c, 8, 57, 100
1, 625920, Note_on_c, 8, 61, 100
1, 625920, Note_on_c, 13, 42, 100
1, 625920, Note_on_c, 13, 49, 100
1, 626170, Note_off_c, 7, 76, 0
1, 626176, Note_off_c, 7, 69, 0
1, 626184, Note_off_c, 7, 64, 0
1, 626202, Note_on_c, 10, 64, 68
1, 626202, Note_on_c, 10, 69, 69
1, 626202, Note_on_c, 10, 76, 72
1, 626212, Note_off_c, 8, 57, 0
1, 626212, Note_off_c, 8, 61, 0
1, 626212, Note_off_c, 13, 42, 0
1, 626212, Note_off_c, 13, 49, 0
1, 626392, Note_off_c, 0, 56, 64
1, 626392, Note_off_c, 0, 61, 64
1, 626392, Note_off_c, 2, 68, 64
1, 626392, Note_off_c, 2, 73, 64
1, 626392, Note_off_c, 3, 71, 64
1, 626392, Note_off_c, 3, 76, 64
1, 626392, Note_off_c, 4, 73, 0
1, 626392, Note_off_c, 5, 68, 0
1, 626400, Note_on_c, 0, 57, 100
1, 626400, Note_on_c, 0, 64, 100
1, 626400, Note_on_c, 1, 69, 75
1, 626400, Note_on_c, 2, 69, 100
1, 626400, Note_on_c, 2, 76, 100
1, 626400, Note_on_c, 3, 66, 100
1, 626400, Note_on_c, 3, 69, 100
1, 626400, Note_on_c, 4, 76, 100
1, 626400, Note_on_c, 5, 69, 100
1, 626400, Note_on_c, 6, 64, 67
1, 626400, Note_on_c, 6, 69, 63
1, 626400, Note_on_c, 6, 76, 72
1, 626400, Note_on_c, 8, 42, 100
1, 626400, Note_on_c, 8, 49, 100
1, 626400, Note_on_c, 13, 57, 100
1, 626400, Note_on_c, 13, 61, 100
1, 626408, Note_off_c, 1, 59, 0
1, 626418, Note_off_c, 10, 76, 0
1, 626420, Note_off_c, 10, 69, 0
1, 626434, Note_off_c, 10, 64, 0
1, 626648, Note_off_c, 6, 69, 0
1, 626676, Note_off_c, 6, 64, 0
1, 626692, Note_off_c, 6, 76, 0
1, 626692, Note_off_c, 8, 42, 0
1, 626692, Note_off_c, 8, 49, 0
1, 626692, Note_off_c, 13, 57, 0
1, 626692, Note_off_c, 13, 61, 0
1, 626872, Note_off_c, 0, 57, 64
1, 626872, Note_off_c, 0, 64, 64
1, 626872, Note_off_c, 2, 69, 64
1, 626872, Note_off_c, 2, 76, 64
1, 626872, Note_off_c, 3, 66, 64
1, 626872, Note_off_c, 3, 69, 64
1, 626872, Note_off_c, 4, 76, 0
1, 626872, Note_off_c, 5, 69, 0
1, 626880, Note_on_c, 0, 61, 100
1, 626880, Note_on_c, 0, 68, 100
1, 626880, Note_on_c, 1, 64, 73
1, 626880, Note_on_c, 2, 73, 100
1, 626880, Note_on_c, 2, 80, 100
1, 626880, Note_on_c, 3, 73, 100
1, 626880, Note_on_c, 3, 76, 100
1, 626880, Note_on_c, 4, 80, 100
1, 626880, Note_on_c, 5, 73, 100
1, 626880, Note_on_c, 7, 64, 69
1, 626880, Note_on_c, 7, 69, 70
1, 626880, Note_on_c, 7, 76, 73
1, 626880, Note_on_c, 8, 57, 100
1, 626880, Note_on_c, 8, 61, 100
1, 626880, Note_on_c, 13, 42, 100
1, 626880, Note_on_c, 13, 49, 100
1, 627006, Note_off_c, 1, 69, 0
1, 627100, Note_off_c, 7, 69, 0
1, 627122, Note_off_c, 7, 76, 0
1, 627132, Note_off_c, 7, 64, 0
1, 627162, Note_on_c, 10, 64, 67
1, 627162, Note_on_c, 10, 69, 67
1, 627162, Note_on_c, 10, 76, 72
1, 627172, Note_off_c, 8, 57, 0
1, 627172, Note_off_c, 8, 61, 0
1, 627172, Note_off_c, 13, 42, 0
1, 627172, Note_off_c, 13, 49, 0
1, 627352, Note_off_c, 0, 61, 64
1, 627352, Note_off_c, 0, 68, 64
1, 627352, Note_off_c, 2, 73, 64
1, 627352, Note_off_c, 2, 80, 64
1, 627352, Note_off_c, 3, 73, 64
1, 627352, Note_off_c, 3, 76, 64
1, 627352, Note_off_c, 4, 80, 0
1, 627352, Note_off_c, 5, 73, 0
1, 627360, Note_on_c, 6, 64, 68
1, 627360, Note_on_c, 6, 69, 66
1, 627360, Note_on_c, 6, 76, 70
1, 627360, Note_on_c, 8, 42, 100
1, 627360, Note_on_c, 8, 49, 100
1, 627360, Note_on_c, 13, 57, 100
1, 627360, Note_on_c, 13, 61, 100
1, 627408, Note_off_c, 10, 64, 0
1, 627412, Note_off_c, 10, 69, 0
1, 627428, Note_off_c, 10, 76, 0
1, 627556, Note_off_c, 6, 69, 0
1, 627580, Note_off_c, 6, 64, 0
1, 627586, Note_off_c, 1, 64, 0
1, 627598, Note_off_c, 6, 76, 0
1, 627652, Note_off_c, 8, 42, 0
1, 627652, Note_off_c, 8, 49, 0
1, 627652, Note_off_c, 13, 57, 0
1, 627652, Note_off_c, 13, 61, 0
1, 627840, Note_on_c, 0, 59, 100
1, 627840, Note_on_c, 0, 66, 100
1, 627840, Note_on_c, 1, 66, 68
1, 627840, Note_on_c, 2, 71, 100
1, 627840, Note_on_c, 2, 78, 100
1, 627840, Note_on_c, 3, 71, 100
1, 627840, Note_on_c, 3, 76, 100
1, 627840, Note_on_c, 4, 78, 100
1, 627840, Note_on_c, 5, 71, 100
1, 627840, Note_on_c, 7, 64, 69
1, 627840, Note_on_c, 7, 69, 75
1, 627840, Note_on_c, 7, 76, 73
1, 627840, Note_on_c, 8, 59, 100
1, 627840, Note_on_c, 8, 61, 100
1, 627840, Note_on_c, 13, 44, 100
1, 627840, Note_on_c, 13, 49, 100
1, 628054, Note_off_c, 7, 69, 0
1, 628070, Note_off_c, 7, 64, 0
1, 628084, Note_off_c, 7, 76, 0
1, 628122, Note_on_c, 10, 64, 67
1, 628122, Note_on_c, 10, 69, 63
1, 628122, Note_on_c, 10, 76, 72
1, 628132, Note_off_c, 8, 59, 0
1, 628132, Note_off_c, 8, 61, 0
1, 628132, Note_off_c, 13, 44, 0
1, 628132, Note_off_c, 13, 49, 0
1, 628312, Note_off_c, 0, 59, 64
1, 628312, Note_off_c, 0, 66, 64
1, 628312, Note_off_c, 2, 71, 64
1, 628312, Note_off_c, 2, 78, 64
1, 628312, Note_off_c, 3, 71, 64
1, 628312, Note_off_c, 3, 76, 64
1, 628312, Note_off_c, 4, 78, 0
1, 628312, Note_off_c, 5, 71, 0
1, 628320, Note_on_c, 0, 56, 100
1, 628320, Note_on_c, 0, 61, 100
1, 628320, Note_on_c, 1, 61, 68
1, 628320, Note_on_c, 2, 68, 100
1, 628320, Note_on_c, 2, 73, 100
1, 628320, Note_on_c, 3, 64, 100
1, 628320, Note_on_c, 3, 69, 100
1, 628320, Note_on_c, 4, 73, 100
1, 628320, Note_on_c, 5, 68, 100
1, 628320, Note_on_c, 6, 64, 68
1, 628320, Note_on_c, 6, 69, 63
1, 628320, Note_on_c, 6, 76, 72
1, 628320, Note_on_c, 8, 44, 100
1, 628320, Note_on_c, 8, 49, 100
1, 628320, Note_on_c, 13, 59, 100
1, 628320, Note_on_c, 13, 61, 100
1, 628356, Note_off_c, 1, 66, 0
1, 628370, Note_off_c, 10, 69, 0
1, 628398, Note_off_c, 10, 64, 0
1, 628414, Note_off_c, 10, 76, 0
1, 628530, Note_off_c, 6, 64, 0
1, 628564, Note_off_c, 6, 76, 0
1, 628582, Note_off_c, 6, 69, 0
1, 628612, Note_off_c, 8, 44, 0
1, 628612, Note_off_c, 8, 49, 0
1, 628612, Note_off_c, 13, 59, 0
1, 628612, Note_off_c, 13, 61, 0
1, 628792, Note_off_c, 0, 56, 64
1, 628792, Note_off_c, 0, 61, 64
1, 628792, Note_off_c, 2, 68, 64
1, 628792, Note_off_c, 2, 73, 64
1, 628792, Note_off_c, 3, 64, 64
1, 628792, Note_off_c, 3, 69, 64
1, 628792, Note_off_c, 4, 73, 0
1, 628792, Note_off_c, 5, 68, 0
1, 628800, Note_on_c, 7, 64, 68
1, 628800, Note_on_c, 7, 69, 74
1, 628800, Note_on_c, 7, 76, 74
1, 628800, Note_on_c, 8, 59, 100
1, 628800, Note_on_c, 8, 61, 100
1, 628800, Note_on_c, 13, 44, 100
1, 628800, Note_on_c, 13, 49, 100
1, 629024, Note_off_c, 7, 69, 0
1, 629064, Note_off_c, 7, 64, 0
1, 629074, Note_off_c, 7, 76, 0
1, 629082, Note_on_c, 10, 64, 68
1, 629082, Note_on_c, 10, 69, 66
1, 629082, Note_on_c, 10, 76, 70
1, 629090, Note_off_c, 1, 61, 0
1, 629092, Note_off_c, 8, 59, 0
1, 629092, Note_off_c, 8, 61, 0
1, 629092, Note_off_c, 13, 44, 0
1, 629092, Note_off_c, 13, 49, 0
1, 629278, Note_off_c, 10, 69, 0
1, 629280, Note_on_c, 0, 57, 100
1, 629280, Note_on_c, 0, 64, 100
1, 629280, Note_on_c, 1, 69, 77
1, 629280, Note_on_c, 2, 69, 100
1, 629280, Note_on_c, 2, 76, 100
1, 629280, Note_on_c, 3, 71, 100
1, 629280, Note_on_c, 3, 76, 100
1, 629280, Note_on_c, 4, 76, 100
1, 629280, Note_on_c, 5, 69, 100
1, 629280, Note_on_c, 6, 64, 70
1, 629280, Note_on_c, 6, 69, 69
1, 629280, Note_on_c, 6, 76, 72
1, 629280, Note_on_c, 8, 44, 100
1, 629280, Note_on_c, 8, 49, 100
1, 629280, Note_on_c, 13, 59, 100
1, 629280, Note_on_c, 13, 61, 100
1, 629302, Note_off_c, 10, 64, 0
1, 629320, Note_off_c, 10, 76, 0
1, 629514, Note_off_c, 6, 69, 0
1, 629542, Note_off_c, 6, 64, 0
1, 629542, Note_off_c, 6, 76, 0
1, 629572, Note_off_c, 8, 44, 0
1, 629572, Note_off_c, 8, 49, 0
1, 629572, Note_off_c, 13, 59, 0
1, 629572, Note_off_c, 13, 61, 0
1, 629752, Note_off_c, 0, 57, 64
1, 629752, Note_off_c, 0, 64, 64
1, 629752, Note_off_c, 2, 69, 64
1, 629752, Note_off_c, 2, 76, 64
1, 629752, Note_off_c, 3, 71, 64
1, 629752, Note_off_c, 3, 76, 64
1, 629752, Note_off_c, 4, 76, 0
1, 629752, Note_off_c, 5, 69, 0
1, 629760, Note_on_c, 7, 64, 68
1, 629760, Note_on_c, 7, 69, 73
1, 629760, Note_on_c, 7, 76, 73
1, 629760, Note_on_c, 8, 59, 100
1, 629760, Note_on_c, 8, 61, 100
1, 629760, Note_on_c, 13, 44, 100
1, 629760, Note_on_c, 13, 49, 100
1, 629904, Note_off_c, 1, 69, 0
1, 629984, Note_off_c, 7, 64, 0
1, 630008, Note_off_c, 7, 69, 0
1, 630008, Note_off_c, 7, 76, 0
1, 630042, Note_on_c, 10, 64, 68
1, 630042, Note_on_c, 10, 69, 63
1, 630042, Note_on_c, 10, 76, 72
1, 630052, Note_off_c, 8, 59, 0
1, 630052, Note_off_c, 8, 61, 0
1, 630052, Note_off_c, 13, 44, 0
1, 630052, Note_off_c, 13, 49, 0
1, 630240, Note_on_c, 0, 59, 100
1, 630240, Note_on_c, 0, 66, 100
1, 630240, Note_on_c, 1, 64, 70
1, 630240, Note_on_c, 2, 71, 100
1, 630240, Note_on_c, 2, 78, 100
1, 630240, Note_on_c, 3, 73, 100
1, 630240, Note_on_c, 3, 76, 100
1, 630240, Note_on_c, 4, 78, 100
1, 630240, Note_on_c, 5, 71, 100
1, 630240, Note_on_c, 6, 64, 68
1, 630240, Note_on_c, 6, 69, 70
1, 630240, Note_on_c, 6, 76, 70
1, 630240, Note_on_c, 8, 44, 100
1, 630240, Note_on_c, 8, 49, 100
1, 630240, Note_on_c, 13, 59, 100
1, 630240, Note_on_c, 13, 61, 100
1, 630252, Note_off_c, 10, 64, 0
1, 630286, Note_off_c, 10, 76, 0
1, 630304, Note_off_c, 10, 69, 0
1, 630448, Note_off_c, 6, 64, 0
1, 630476, Note_off_c, 6, 69, 0
1, 630480, Note_off_c, 6, 76, 0
1, 630532, Note_off_c, 8, 44, 0
1, 630532, Note_off_c, 8, 49, 0
1, 630532, Note_off_c, 13, 59, 0
1, 630532, Note_off_c, 13, 61, 0
1, 630712, Note_off_c, 0, 59, 64
1, 630712, Note_off_c, 0, 66, 64
1, 630712, Note_off_c, 2, 71, 64
1, 630712, Note_off_c, 2, 78, 64
1, 630712, Note_off_c, 3, 73, 64
1, 630712, Note_off_c, 3, 76, 64
1, 630712, Note_off_c, 4, 78, 0
1, 630712, Note_off_c, 5, 71, 0
1, 630720, Note_on_c, 0, 56, 100
1, 630720, Note_on_c, 0, 61, 100
1, 630720, Note_on_c, 1, 66, 77
1, 630720, Note_on_c, 2, 68, 100
1, 630720, Note_on_c, 2, 73, 100
1, 630720, Note_on_c, 3, 64, 100
1, 630720, Note_on_c, 3, 69, 100
1, 630720, Note_on_c, 4, 73, 100
1, 630720, Note_on_c, 5, 68, 100
1, 630720, Note_on_c, 7, 64, 66
1, 630720, Note_on_c, 7, 69, 74
1, 630720, Note_on_c, 7, 76, 73
1, 630720, Note_on_c, 8, 57, 100
1, 630720, Note_on_c, 8, 61, 100
1, 630720, Note_on_c, 13, 42, 100
1, 630720, Note_on_c, 13, 49, 100
1, 630872, Note_off_c, 1, 64, 0
1, 630954, Note_off_c, 7, 64, 0
1, 630974, Note_off_c, 7, 76, 0
1, 631002, Note_off_c, 7, 69, 0
1, 631002, Note_on_c, 10, 64, 70
1, 631002, Note_on_c, 10, 69, 69
1, 631002, Note_on_c, 10, 76, 72
1, 631012, Note_off_c, 8, 57, 0
1, 631012, Note_off_c, 8, 61, 0
1, 631012, Note_off_c, 13, 42, 0
1, 631012, Note_off_c, 13, 49, 0
1, 631192, Note_off_c, 0, 56, 64
1, 631192, Note_off_c, 0, 61, 64
1, 631192, Note_off_c, 2, 68, 64
1, 631192, Note_off_c, 2, 73, 64
1, 631192, Note_off_c, 3, 64, 64
1, 631192, Note_off_c, 3, 69, 64
1, 631192, Note_off_c, 4, 73, 0
1, 631192, Note_off_c, 5, 68, 0
1, 631200, Note_on_c, 6, 64, 67
1, 631200, Note_on_c, 6, 69, 73
1, 631200, Note_on_c, 6, 76, 74
1, 631200, Note_on_c, 8, 42, 100
1, 631200, Note_on_c, 8, 49, 100
1, 631200, Note_on_c, 13, 57, 100
1, 631200, Note_on_c, 13, 61, 100
1, 631236, Note_off_c, 10, 69, 0
1, 631264, Note_off_c, 10, 64, 0
1, 631264, Note_off_c, 10, 76, 0
1, 631364, Note_off_c, 1, 66, 0
1, 631416, Note_off_c, 6, 64, 0
1, 631436, Note_off_c, 6, 76, 0
1, 631446, Note_off_c, 6, 69, 0
1, 631492, Note_off_c, 8, 42, 0
1, 631492, Note_off_c, 8, 49, 0
1, 631492, Note_off_c, 13, 57, 0
1, 631492, Note_off_c, 13, 61, 0
1, 631680, Note_on_c, 0, 56, 100
1, 631680, Note_on_c, 0, 61, 100
1, 631680, Note_on_c, 1, 59, 65
1, 631680, Note_on_c, 2, 68, 100
1, 631680, Note_on_c, 2, 73, 100
1, 631680, Note_on_c, 3, 71, 100
1, 631680, Note_on_c, 3, 76, 100
1, 631680, Note_on_c, 4, 73, 100
1, 631680, Note_on_c, 5, 68, 100
1, 631680, Note_on_c, 7, 64, 66
1, 631680, Note_on_c, 7, 69, 77
1, 631680, Note_on_c, 7, 76, 70
1, 631680, Note_on_c, 8, 57, 100
1, 631680, Note_on_c, 8, 61, 100
1, 631680, Note_on_c, 13, 42, 100
1, 631680, Note_on_c, 13, 49, 100
1, 631908, Note_off_c, 7, 64, 0
1, 631962, Note_on_c, 10, 64, 68
1, 631962, Note_on_c, 10, 69, 70
1, 631962, Note_on_c, 10, 76, 70
1, 631966, Note_off_c, 7, 69, 0
1, 631972, Note_off_c, 8, 57, 0
1, 631972, Note_off_c, 8, 61, 0
1, 631972, Note_off_c, 13, 42, 0
1, 631972, Note_off_c, 13, 49, 0
1, 631990, Note_off_c, 7, 76, 0
1, 632152, Note_off_c, 0, 56, 64
1, 632152, Note_off_c, 0, 61, 64
1, 632152, Note_off_c, 2, 68, 64
1, 632152, Note_off_c, 2, 73, 64
1, 632152, Note_off_c, 3, 71, 64
1, 632152, Note_off_c, 3, 76, 64
1, 632152, Note_off_c, 4, 73, 0
1, 632152, Note_off_c, 5, 68, 0
1, 632160, Note_on_c, 0, 57, 100
1, 632160, Note_on_c, 0, 64, 100
1, 632160, Note_on_c, 1, 69, 74
1, 632160, Note_on_c, 2, 69, 100
1, 632160, Note_on_c, 2, 76, 100
1, 632160, Note_on_c, 3, 66, 100
1, 632160, Note_on_c, 3, 69, 100
1, 632160, Note_on_c, 4, 76, 100
1, 632160, Note_on_c, 5, 69, 100
1, 632160, Note_on_c, 6, 64, 68
1, 632160, Note_on_c, 6, 69, 74
1, 632160, Note_on_c, 6, 76, 75
1, 632160, Note_on_c, 8, 42, 100
1, 632160, Note_on_c, 8, 49, 100
1, 632160, Note_on_c, 13, 57, 100
1, 632160, Note_on_c, 13, 61, 100
1, 632170, Note_off_c, 10, 64, 0
1, 632198, Note_off_c, 10, 69, 0
1, 632202, Note_off_c, 10, 76, 0
1, 632254, Note_off_c, 1, 59, 0
1, 632432, Note_off_c, 6, 69, 0
1, 632436, Note_off_c, 6, 64, 0
1, 632450, Note_off_c, 6, 76, 0
1, 632452, Note_off_c, 8, 42, 0
1, 632452, Note_off_c, 8, 49, 0
1, 632452, Note_off_c, 13, 57, 0
1, 632452, Note_off_c, 13, 61, 0
1, 632632, Note_off_c, 0, 57, 64
1, 632632, Note_off_c, 0, 64, 64
1, 632632, Note_off_c, 2, 69, 64
1, 632632, Note_off_c, 2, 76, 64
1, 632632, Note_off_c, 3, 66, 64
1, 632632, Note_off_c, 3, 69, 64
1, 632632, Note_off_c, 4, 76, 0
1, 632632, Note_off_c, 5, 69, 0
1, 632640, Note_on_c, 0, 61, 100
1, 632640, Note_on_c, 0, 68, 100
1, 632640, Note_on_c, 1, 64, 68
1, 632640, Note_on_c, 2, 73, 100
1, 632640, Note_on_c, 2, 80, 100
1, 632640, Note_on_c, 3, 73, 100
1, 632640, Note_on_c, 3, 76, 100
1, 632640, Note_on_c, 4, 80, 100
1, 632640, Note_on_c, 5, 73, 100
1, 632640, Note_on_c, 7, 64, 65
1, 632640, Note_on_c, 7, 69, 72
1, 632640, Note_on_c, 7, 76, 72
1, 632640, Note_on_c, 8, 59, 100
1, 632640, Note_on_c, 8, 61, 100
1, 632640, Note_on_c, 13, 44, 100
1, 632640, Note_on_c, 13, 49, 100
1, 632852, Note_off_c, 1, 69, 0
1, 632916, Note_off_c, 7, 64, 0
1, 632922, Note_on_c, 10, 64, 67
1, 632922, Note_on_c, 10, 69, 73
1, 632922, Note_on_c, 10, 76, 74
1, 632930, Note_off_c, 7, 69, 0
1, 632932, Note_off_c, 7, 76, 0
1, 632932, Note_off_c, 8, 59, 0
1, 632932, Note_off_c, 8, 61, 0
1, 632932, Note_off_c, 13, 44, 0
1, 632932, Note_off_c, 13, 49, 0
1, 633112, Note_off_c, 0, 61, 64
1, 633112, Note_off_c, 0, 68, 64
1, 633112, Note_off_c, 2, 73, 64
1, 633112, Note_off_c, 2, 80, 64
1, 633112, Note_off_c, 3, 73, 64
1, 633112, Note_off_c, 3, 76, 64
1, 633112, Note_off_c, 4, 80, 0
1, 633112, Note_off_c, 5, 73, 0
1, 633120, Note_on_c, 6, 64, 73
1, 633120, Note_on_c, 6, 69, 80
1, 633120, Note_on_c, 6, 76, 77
1, 633120, Note_on_c, 8, 44, 100
1, 633120, Note_on_c, 8, 49, 100
1, 633120, Note_on_c, 13, 59, 100
1, 633120, Note_on_c, 13, 61, 100
1, 633138, Note_off_c, 10, 64, 0
1, 633158, Note_off_c, 10, 76, 0
1, 633168, Note_off_c, 10, 69, 0
1, 633254, Note_off_c, 1, 64, 0
1, 633382, Note_off_c, 6, 64, 0
1, 633398, Note_off_c, 6, 69, 0
1, 633408, Note_off_c, 6, 76, 0
1, 633412, Note_off_c, 8, 44, 0
1, 633412, Note_off_c, 8, 49, 0
1, 633412, Note_off_c, 13, 59, 0
1, 633412, Note_off_c, 13, 61, 0
1, 633600, Note_on_c, 1, 66, 77
1, 633600, Note_on_c, 3, 71, 100
1, 633600, Note_on_c, 3, 76, 100
1, 633600, Note_on_c, 7, 64, 67
1, 633600, Note_on_c, 7, 69, 75
1, 633600, Note_on_c, 7, 76, 70
1, 633600, Note_on_c, 8, 59, 100
1, 633600, Note_on_c, 8, 61, 100
1, 633600, Note_on_c, 13, 44, 100
1, 633600, Note_on_c, 13, 49, 100
1, 633830, Note_off_c, 7, 69, 0
1, 633848, Note_off_c, 7, 64, 0
1, 633858, Note_off_c, 7, 76, 0
1, 633882, Note_on_c, 10, 64, 68
1, 633882, Note_on_c, 10, 69, 74
1, 633882, Note_on_c, 10, 76, 75
1, 633892, Note_off_c, 8, 59, 0
1, 633892, Note_off_c, 8, 61, 0
1, 633892, Note_off_c, 13, 44, 0
1, 633892, Note_off_c, 13, 49, 0
1, 634072, Note_off_c, 3, 71, 64
1, 634072, Note_off_c, 3, 76, 64
1, 634080, Note_on_c, 1, 61, 70
1, 634080, Note_on_c, 3, 64, 100
1, 634080, Note_on_c, 3, 69, 100
1, 634080, Note_on_c, 6, 64, 68
1, 634080, Note_on_c, 6, 69, 70
1, 634080, Note_on_c, 6, 76, 74
1, 634080, Note_on_c, 8, 44, 100
1, 634080, Note_on_c, 8, 49, 100
1, 634080, Note_on_c, 13, 59, 100
1, 634080, Note_on_c, 13, 61, 100
1, 634154, Note_off_c, 10, 69, 0
1, 634158, Note_off_c, 10, 64, 0
1, 634172, Note_off_c, 10, 76, 0
1, 634242, Note_off_c, 1, 66, 0
1, 634366, Note_off_c, 6, 64, 0
1, 634372, Note_off_c, 8, 44, 0
1, 634372, Note_off_c, 8, 49, 0
1, 634372, Note_off_c, 13, 59, 0
1, 634372, Note_off_c, 13, 61, 0
1, 634378, Note_off_c, 6, 69, 0
1, 634378, Note_off_c, 6, 76, 0
1, 634552, Note_off_c, 3, 64, 64
1, 634552, Note_off_c, 3, 69, 64
1, 634560, Note_on_c, 7, 64, 66
1, 634560, Note_on_c, 7, 69, 68
1, 634560, Note_on_c, 7, 76, 72
1, 634560, Note_on_c, 8, 59, 100
1, 634560, Note_on_c, 8, 61, 100
1, 634560, Note_on_c, 13, 44, 100
1, 634560, Note_on_c, 13, 49, 100
1, 634708, Note_off_c, 1, 61, 0
1, 634820, Note_off_c, 7, 69, 0
1, 634830, Note_off_c, 7, 64, 0
1, 634834, Note_off_c, 7, 76, 0
1, 634842, Note_on_c, 10, 64, 73
1, 634842, Note_on_c, 10, 69, 80
1, 634842, Note_on_c, 10, 76, 77
1, 634852, Note_off_c, 8, 59, 0
1, 634852, Note_off_c, 8, 61, 0
1, 634852, Note_off_c, 13, 44, 0
1, 634852, Note_off_c, 13, 49, 0
1, 635040, Note_on_c, 1, 69, 77
1, 635040, Note_on_c, 3, 71, 100
1, 635040, Note_on_c, 3, 76, 100
1, 635040, Note_on_c, 6, 64, 70
1, 635040, Note_on_c, 6, 69, 74
1, 635040, Note_on_c, 6, 76, 74
1, 635040, Note_on_c, 8, 44, 100
1, 635040, Note_on_c, 8, 49, 100
1, 635040, Note_on_c, 13, 59, 100
1, 635040, Note_on_c, 13, 61, 100
1, 635104, Note_off_c, 10, 64, 0
1, 635120, Note_off_c, 10, 69, 0
1, 635130, Note_off_c, 10, 76, 0
1, 635244, Note_off_c, 6, 64, 0
1, 635274, Note_off_c, 6, 76, 0
1, 635312, Note_off_c, 6, 69, 0
1, 635332, Note_off_c, 8, 44, 0
1, 635332, Note_off_c, 8, 49, 0
1, 635332, Note_off_c, 13, 59, 0
1, 635332, Note_off_c, 13, 61, 0
1, 635512, Note_off_c, 3, 71, 64
1, 635512, Note_off_c, 3, 76, 64
1, 635520, Note_on_c, 7, 64, 62
1, 635520, Note_on_c, 7, 69, 60
1, 635520, Note_on_c, 7, 76, 70
1, 635520, Note_on_c, 8, 59, 100
1, 635520, Note_on_c, 8, 61, 100
1, 635520, Note_on_c, 13, 44, 100
1, 635520, Note_on_c, 13, 49, 100
1, 635688, Note_off_c, 1, 69, 0
1, 635780, Note_off_c, 7, 69, 0
1, 635798, Note_off_c, 7, 64, 0
1, 635802, Note_on_c, 10, 64, 68
1, 635802, Note_on_c, 10, 69, 70
1, 635802, Note_on_c, 10, 76, 74
1, 635812, Note_off_c, 8, 59, 0
1, 635812, Note_off_c, 8, 61, 0
1, 635812, Note_off_c, 13, 44, 0
1, 635812, Note_off_c, 13, 49, 0
1, 635858, Note_off_c, 7, 76, 0
1, 636000, Note_on_c, 1, 64, 68
1, 636000, Note_on_c, 3, 73, 100
1, 636000, Note_on_c, 3, 76, 100
1, 636000, Note_on_c, 6, 64, 68
1, 636000, Note_on_c, 6, 69, 68
1, 636000, Note_on_c, 6, 76, 72
1, 636000, Note_on_c, 8, 44, 100
1, 636000, Note_on_c, 8, 49, 100
1, 636000, Note_on_c, 13, 59, 100
1, 636000, Note_on_c, 13, 61, 100
1, 636088, Note_off_c, 10, 64, 0
1, 636100, Note_off_c, 10, 69, 0
1, 636100, Note_off_c, 10, 76, 0
1, 636206, Note_off_c, 6, 69, 0
1, 636214, Note_off_c, 6, 64, 0
1, 636224, Note_off_c, 6, 76, 0
1, 636292, Note_off_c, 8, 44, 0
1, 636292, Note_off_c, 8, 49, 0
1, 636292, Note_off_c, 13, 59, 0
1, 636292, Note_off_c, 13, 61, 0
1, 636444, Note_off_c, 1, 64, 0
1, 636472, Note_off_c, 3, 73, 64
1, 636472, Note_off_c, 3, 76, 64
1, 636480, Note_on_c, 0, 54, 100
1, 636480, Note_on_c, 0, 59, 100
1, 636480, Note_on_c, 1, 66, 78
1, 636480, Note_on_c, 2, 66, 100
1, 636480, Note_on_c, 2, 71, 100
1, 636480, Note_on_c, 3, 64, 100
1, 636480, Note_on_c, 3, 69, 100
1, 636480, Note_on_c, 4, 71, 100
1, 636480, Note_on_c, 5, 66, 100
1, 636480, Note_on_c, 7, 64, 56
1, 636480, Note_on_c, 7, 69, 69
1, 636480, Note_on_c, 7, 76, 73
1, 636480, Note_on_c, 8, 57, 100
1, 636480, Note_on_c, 8, 61, 100
1, 636480, Note_on_c, 13, 42, 100
1, 636480, Note_on_c, 13, 49, 100
1, 636532, Note_off_c, 4, 71, 0
1, 636746, Note_off_c, 7, 64, 0
1, 636762, Note_on_c, 10, 64, 70
1, 636762, Note_on_c, 10, 69, 74
1, 636762, Note_on_c, 10, 76, 74
1, 636772, Note_off_c, 8, 57, 0
1, 636772, Note_off_c, 8, 61, 0
1, 636772, Note_off_c, 13, 42, 0
1, 636772, Note_off_c, 13, 49, 0
1, 636774, Note_off_c, 7, 69, 0
1, 636782, Note_off_c, 7, 76, 0
1, 636832, Note_off_c, 5, 66, 0
1, 636952, Note_off_c, 0, 54, 64
1, 636952, Note_off_c, 0, 59, 64
1, 636952, Note_off_c, 2, 66, 64
1, 636952, Note_off_c, 2, 71, 64
1, 636952, Note_off_c, 3, 64, 64
1, 636952, Note_off_c, 3, 69, 64
1, 636960, Note_on_c, 6, 64, 70
1, 636960, Note_on_c, 6, 69, 70
1, 636960, Note_on_c, 6, 76, 75
1, 636960, Note_on_c, 8, 42, 100
1, 636960, Note_on_c, 8, 49, 100
1, 636960, Note_on_c, 13, 57, 100
1, 636960, Note_on_c, 13, 61, 100
1, 636966, Note_off_c, 10, 64, 0
1, 636996, Note_off_c, 10, 76, 0
1, 637034, Note_off_c, 10, 69, 0
1, 637148, Note_off_c, 1, 66, 0
1, 637188, Note_off_c, 6, 69, 0
1, 637230, Note_off_c, 6, 64, 0
1, 637252, Note_off_c, 8, 42, 0
1, 637252, Note_off_c, 8, 49, 0
1, 637252, Note_off_c, 13, 57, 0
1, 637252, Note_off_c, 13, 61, 0
1, 637268, Note_off_c, 6, 76, 0
1, 637440, Note_on_c, 0, 56, 100
1, 637440, Note_on_c, 0, 61, 100
1, 637440, Note_on_c, 1, 59, 74
1, 637440, Note_on_c, 2, 68, 100
1, 637440, Note_on_c, 2, 73, 100
1, 637440, Note_on_c, 3, 71, 100
1, 637440, Note_on_c, 3, 76, 100
1, 637440, Note_on_c, 4, 73, 100
1, 637440, Note_on_c, 5, 68, 100
1, 637440, Note_on_c, 7, 64, 66
1, 637440, Note_on_c, 7, 69, 70
1, 637440, Note_on_c, 7, 76, 75
1, 637440, Note_on_c, 8, 57, 100
1, 637440, Note_on_c, 8, 61, 100
1, 637440, Note_on_c, 13, 42, 100
1, 637440, Note_on_c, 13, 49, 100
1, 637690, Note_off_c, 7, 69, 0
1, 637704, Note_off_c, 7, 64, 0
1, 637722, Note_on_c, 10, 64, 68
1, 637722, Note_on_c, 10, 69, 68
1, 637722, Note_on_c, 10, 76, 72
1, 637730, Note_off_c, 7, 76, 0
1, 637732, Note_off_c, 8, 57, 0
1, 637732, Note_off_c, 8, 61, 0
1, 637732, Note_off_c, 13, 42, 0
1, 637732, Note_off_c, 13, 49, 0
1, 637912, Note_off_c, 0, 56, 64
1, 637912, Note_off_c, 0, 61, 64
1, 637912, Note_off_c, 2, 68, 64
1, 637912, Note_off_c, 2, 73, 64
1, 637912, Note_off_c, 3, 71, 64
1, 637912, Note_off_c, 3, 76, 64
1, 637912, Note_off_c, 4, 73, 0
1, 637912, Note_off_c, 5, 68, 0
1, 637920, Note_on_c, 0, 57, 100
1, 637920, Note_on_c, 0, 64, 100
1, 637920, Note_on_c, 1, 69, 75
1, 637920, Note_on_c, 2, 69, 100
1, 637920, Note_on_c, 2, 76, 100
1, 637920, Note_on_c, 3, 66, 100
1, 637920, Note_on_c, 3, 69, 100
1, 637920, Note_on_c, 4, 76, 100
1, 637920, Note_on_c, 5, 69, 100
1, 637920, Note_on_c, 6, 64, 69
1, 637920, Note_on_c, 6, 69, 69
1, 637920, Note_on_c, 6, 76, 73
1, 637920, Note_on_c, 8, 42, 100
1, 637920, Note_on_c, 8, 49, 100
1, 637920, Note_on_c, 13, 57, 100
1, 637920, Note_on_c, 13, 61, 100
1, 637928, Note_off_c, 1, 59, 0
1, 637928, Note_off_c, 10, 69, 0
1, 637936, Note_off_c, 10, 64, 0
1, 637946, Note_off_c, 10, 76, 0
1, 638186, Note_off_c, 6, 64, 0
1, 638212, Note_off_c, 8, 42, 0
1, 638212, Note_off_c, 8, 49, 0
1, 638212, Note_off_c, 13, 57, 0
1, 638212, Note_off_c, 13, 61, 0
1, 638224, Note_off_c, 6, 69, 0
1, 638224, Note_off_c, 6, 76, 0
1, 638392, Note_off_c, 0, 57, 64
1, 638392, Note_off_c, 0, 64, 64
1, 638392, Note_off_c, 2, 69, 64
1, 638392, Note_off_c, 2, 76, 64
1, 638392, Note_off_c, 3, 66, 64
1, 638392, Note_off_c, 3, 69, 64
1, 638392, Note_off_c, 4, 76, 0
1, 638392, Note_off_c, 5, 69, 0
1, 638400, Note_on_c, 0, 61, 100
1, 638400, Note_on_c, 0, 68, 100
1, 638400, Note_on_c, 1, 64, 73
1, 638400, Note_on_c, 2, 73, 100
1, 638400, Note_on_c, 2, 80, 100
1, 638400, Note_on_c, 3, 73, 100
1, 638400, Note_on_c, 3, 76, 100
1, 638400, Note_on_c, 4, 80, 100
1, 638400, Note_on_c, 5, 73, 100
1, 638400, Note_on_c, 7, 64, 66
1, 638400, Note_on_c, 7, 69, 70
1, 638400, Note_on_c, 7, 76, 75
1, 638400, Note_on_c, 8, 57, 100
1, 638400, Note_on_c, 8, 61, 100
1, 638400, Note_on_c, 13, 42, 100
1, 638400, Note_on_c, 13, 49, 100
1, 638526, Note_off_c, 1, 69, 0
1, 638650, Note_off_c, 7, 69, 0
1, 638664, Note_off_c, 7, 64, 0
1, 638682, Note_on_c, 10, 64, 70
1, 638682, Note_on_c, 10, 69, 70
1, 638682, Note_on_c, 10, 76, 75
1, 638690, Note_off_c, 7, 76, 0
1, 638692, Note_off_c, 8, 57, 0
1, 638692, Note_off_c, 8, 61, 0
1, 638692, Note_off_c, 13, 42, 0
1, 638692, Note_off_c, 13, 49, 0
1, 638872, Note_off_c, 0, 61, 64
1, 638872, Note_off_c, 0, 68, 64
1, 638872, Note_off_c, 2, 73, 64
1, 638872, Note_off_c, 2, 80, 64
1, 638872, Note_off_c, 3, 73, 64
1, 638872, Note_off_c, 3, 76, 64
1, 638872, Note_off_c, 4, 80, 0
1, 638872, Note_off_c, 5, 73, 0
1, 638880, Note_on_c, 6, 64, 67
1, 638880, Note_on_c, 6, 69, 63
1, 638880, Note_on_c, 6, 76, 74
1, 638880, Note_on_c, 8, 42, 100
1, 638880, Note_on_c, 8, 49, 100
1, 638880, Note_on_c, 13, 57, 100
1, 638880, Note_on_c, 13, 61, 100
1, 638910, Note_off_c, 10, 69, 0
1, 638952, Note_off_c, 10, 64, 0
1, 638990, Note_off_c, 10, 76, 0
1, 639084, Note_off_c, 6, 69, 0
1, 639106, Note_off_c, 1, 64, 0
1, 639146, Note_off_c, 6, 64, 0
1, 639146, Note_off_c, 6, 76, 0
1, 639172, Note_off_c, 8, 42, 0
1, 639172, Note_off_c, 8, 49, 0
1, 639172, Note_off_c, 13, 57, 0
1, 639172, Note_off_c, 13, 61, 0
1, 639360, Note_on_c, 0, 59, 100
1, 639360, Note_on_c, 0, 66, 100
1, 639360, Note_on_c, 1, 66, 68
1, 639360, Note_on_c, 2, 71, 100
1, 639360, Note_on_c, 2, 78, 100
1, 639360, Note_on_c, 3, 71, 100
1, 639360, Note_on_c, 3, 76, 100
1, 639360, Note_on_c, 4, 78, 100
1, 639360, Note_on_c, 5, 71, 100
1, 639360, Note_on_c, 7, 64, 72
1, 639360, Note_on_c, 7, 69, 80
1, 639360, Note_on_c, 7, 76, 77
1, 639360, Note_on_c, 8, 59, 100
1, 639360, Note_on_c, 8, 61, 100
1, 639360, Note_on_c, 13, 44, 100
1, 639360, Note_on_c, 13, 49, 100
1, 639600, Note_off_c, 7, 76, 0
1, 639610, Note_off_c, 7, 64, 0
1, 639610, Note_off_c, 7, 69, 0
1, 639642, Note_on_c, 10, 64, 69
1, 639642, Note_on_c, 10, 69, 69
1, 639642, Note_on_c, 10, 76, 73
1, 639652, Note_off_c, 8, 59, 0
1, 639652, Note_off_c, 8, 61, 0
1, 639652, Note_off_c, 13, 44, 0
1, 639652, Note_off_c, 13, 49, 0
1, 639832, Note_off_c, 0, 59, 64
1, 639832, Note_off_c, 0, 66, 64
1, 639832, Note_off_c, 2, 71, 64
1, 639832, Note_off_c, 2, 78, 64
1, 639832, Note_off_c, 3, 71, 64
1, 639832, Note_off_c, 3, 76, 64
1, 639832, Note_off_c, 4, 78, 0
1, 639832, Note_off_c, 5, 71, 0
1, 639840, Note_on_c, 0, 56, 100
1, 639840, Note_on_c, 0, 61, 100
1, 639840, Note_on_c, 1, 61, 68
1, 639840, Note_on_c, 2, 68, 100
1, 639840, Note_on_c, 2, 73, 100
1, 639840, Note_on_c, 3, 64, 100
1, 639840, Note_on_c, 3, 69, 100
1, 639840, Note_on_c, 4, 73, 100
1, 639840, Note_on_c, 5, 68, 100
1, 639840, Note_on_c, 6, 64, 66
1, 639840, Note_on_c, 6, 69, 63
1, 639840, Note_on_c, 6, 76, 74
1, 639840, Note_on_c, 8, 44, 100
1, 639840, Note_on_c, 8, 49, 100
1, 639840, Note_on_c, 13, 59, 100
1, 639840, Note_on_c, 13, 61, 100
1, 639876, Note_off_c, 1, 66, 0
1, 639908, Note_off_c, 10, 64, 0
1, 639946, Note_off_c, 10, 69, 0
1, 639946, Note_off_c, 10, 76, 0
1, 640070, Note_off_c, 6, 69, 0
1, 640076, Note_off_c, 6, 64, 0
1, 640114, Note_off_c, 6, 76, 0
1, 640132, Note_off_c, 8, 44, 0
1, 640132, Note_off_c, 8, 49, 0
1, 640132, Note_off_c, 13, 59, 0
1, 640132, Note_off_c, 13, 61, 0
1, 640312, Note_off_c, 0, 56, 64
1, 640312, Note_off_c, 0, 61, 64
1, 640312, Note_off_c, 2, 68, 64
1, 640312, Note_off_c, 2, 73, 64
1, 640312, Note_off_c, 3, 64, 64
1, 640312, Note_off_c, 3, 69, 64
1, 640312, Note_off_c, 4, 73, 0
1, 640312, Note_off_c, 5, 68, 0
1, 640320, Note_on_c, 7, 64, 70
1, 640320, Note_on_c, 7, 69, 77
1, 640320, Note_on_c, 7, 76, 77
1, 640320, Note_on_c, 8, 59, 100
1, 640320, Note_on_c, 8, 61, 100
1, 640320, Note_on_c, 13, 44, 100
1, 640320, Note_on_c, 13, 49, 100
1, 640574, Note_off_c, 7, 64, 0
1, 640602, Note_off_c, 7, 69, 0
1, 640602, Note_on_c, 10, 64, 67
1, 640602, Note_on_c, 10, 69, 63
1, 640602, Note_on_c, 10, 76, 74
1, 640610, Note_off_c, 1, 61, 0
1, 640610, Note_off_c, 7, 76, 0
1, 640612, Note_off_c, 8, 59, 0
1, 640612, Note_off_c, 8, 61, 0
1, 640612, Note_off_c, 13, 44, 0
1, 640612, Note_off_c, 13, 49, 0
1, 640800, Note_on_c, 0, 57, 100
1, 640800, Note_on_c, 0, 64, 100
1, 640800, Note_on_c, 1, 69, 77
1, 640800, Note_on_c, 2, 69, 100
1, 640800, Note_on_c, 2, 76, 100
1, 640800, Note_on_c, 3, 71, 100
1, 640800, Note_on_c, 3, 76, 100
1, 640800, Note_on_c, 4, 76, 100
1, 640800, Note_on_c, 5, 69, 100
1, 640800, Note_on_c, 6, 64, 68
1, 640800, Note_on_c, 6, 69, 74
1, 640800, Note_on_c, 6, 76, 74
1, 640800, Note_on_c, 8, 44, 100
1, 640800, Note_on_c, 8, 49, 100
1, 640800, Note_on_c, 13, 59, 100
1, 640800, Note_on_c, 13, 61, 100
1, 640806, Note_off_c, 10, 69, 0
1, 640868, Note_off_c, 10, 64, 0
1, 640868, Note_off_c, 10, 76, 0
1, 641060, Note_off_c, 6, 69, 0
1, 641090, Note_off_c, 6, 76, 0
1, 641092, Note_off_c, 8, 44, 0
1, 641092, Note_off_c, 8, 49, 0
1, 641092, Note_off_c, 13, 59, 0
1, 641092, Note_off_c, 13, 61, 0
1, 641094, Note_off_c, 6, 64, 0
1, 641272, Note_off_c, 0, 57, 64
1, 641272, Note_off_c, 0, 64, 64
1, 641272, Note_off_c, 2, 69, 64
1, 641272, Note_off_c, 2, 76, 64
1, 641272, Note_off_c, 3, 71, 64
1, 641272, Note_off_c, 3, 76, 64
1, 641272, Note_off_c, 4, 76, 0
1, 641272, Note_off_c, 5, 69, 0
1, 641280, Note_on_c, 7, 64, 70
1, 641280, Note_on_c, 7, 69, 73
1, 641280, Note_on_c, 7, 76, 74
1, 641280, Note_on_c, 8, 59, 100
1, 641280, Note_on_c, 8, 61, 100
1, 641280, Note_on_c, 13, 44, 100
1, 641280, Note_on_c, 13, 49, 100
1, 641424, Note_off_c, 1, 69, 0
1, 641520, Note_off_c, 7, 64, 0
1, 641526, Note_off_c, 7, 69, 0
1, 641540, Note_off_c, 7, 76, 0
1, 641562, Note_on_c, 10, 64, 66
1, 641562, Note_on_c, 10, 69, 63
1, 641562, Note_on_c, 10, 76, 74
1, 641572, Note_off_c, 8, 59, 0
1, 641572, Note_off_c, 8, 61, 0
1, 641572, Note_off_c, 13, 44, 0
1, 641572, Note_off_c, 13, 49, 0
1, 641760, Note_on_c, 0, 59, 100
1, 641760, Note_on_c, 0, 66, 100
1, 641760, Note_on_c, 1, 64, 70
1, 641760, Note_on_c, 2, 71, 100
1, 641760, Note_on_c, 2, 78, 100
1, 641760, Note_on_c, 3, 73, 100
1, 641760, Note_on_c, 3, 76, 100
1, 641760, Note_on_c, 4, 78, 100
1, 641760, Note_on_c, 5, 71, 100
1, 641760, Note_on_c, 6, 64, 73
1, 641760, Note_on_c, 6, 69, 82
1, 641760, Note_on_c, 6, 76, 77
1, 641760, Note_on_c, 8, 44, 100
1, 641760, Note_on_c, 8, 49, 100
1, 641760, Note_on_c, 13, 59, 100
1, 641760, Note_on_c, 13, 61, 100
1, 641792, Note_off_c, 10, 69, 0
1, 641798, Note_off_c, 10, 64, 0
1, 641836, Note_off_c, 10, 76, 0
1, 642038, Note_off_c, 6, 69, 0
1, 642050, Note_off_c, 6, 64, 0
1, 642052, Note_off_c, 8, 44, 0
1, 642052, Note_off_c, 8, 49, 0
1, 642052, Note_off_c, 13, 59, 0
1, 642052, Note_off_c, 13, 61, 0
1, 642058, Note_off_c, 6, 76, 0
1, 642232, Note_off_c, 0, 59, 64
1, 642232, Note_off_c, 0, 66, 64
1, 642232, Note_off_c, 2, 71, 64
1, 642232, Note_off_c, 2, 78, 64
1, 642232, Note_off_c, 3, 73, 64
1, 642232, Note_off_c, 3, 76, 64
1, 642232, Note_off_c, 4, 78, 0
1, 642232, Note_off_c, 5, 71, 0
1, 642240, Note_on_c, 0, 56, 100
1, 642240, Note_on_c, 0, 61, 100
1, 642240, Note_on_c, 1, 66, 77
1, 642240, Note_on_c, 2, 68, 100
1, 642240, Note_on_c, 2, 73, 100
1, 642240, Note_on_c, 3, 64, 100
1, 642240, Note_on_c, 3, 69, 100
1, 642240, Note_on_c, 4, 73, 100
1, 642240, Note_on_c, 5, 68, 100
1, 642240, Note_on_c, 7, 64, 72
1, 642240, Note_on_c, 7, 69, 77
1, 642240, Note_on_c, 7, 76, 75
1, 642240, Note_on_c, 8, 57, 100
1, 642240, Note_on_c, 8, 61, 100
1, 642240, Note_on_c, 13, 42, 100
1, 642240, Note_on_c, 13, 49, 100
1, 642392, Note_off_c, 1, 64, 0
1, 642448, Note_off_c, 7, 69, 0
1, 642462, Note_off_c, 7, 64, 0
1, 642482, Note_off_c, 7, 76, 0
1, 642522, Note_on_c, 10, 64, 68
1, 642522, Note_on_c, 10, 69, 74
1, 642522, Note_on_c, 10, 76, 74
1, 642532, Note_off_c, 8, 57, 0
1, 642532, Note_off_c, 8, 61, 0
1, 642532, Note_off_c, 13, 42, 0
1, 642532, Note_off_c, 13, 49, 0
1, 642712, Note_off_c, 0, 56, 64
1, 642712, Note_off_c, 0, 61, 64
1, 642712, Note_off_c, 2, 68, 64
1, 642712, Note_off_c, 2, 73, 64
1, 642712, Note_off_c, 3, 64, 64
1, 642712, Note_off_c, 3, 69, 64
1, 642712, Note_off_c, 4, 73, 0
1, 642712, Note_off_c, 5, 68, 0
1, 642720, Note_on_c, 6, 64, 72
1, 642720, Note_on_c, 6, 69, 75
1, 642720, Note_on_c, 6, 76, 73
1, 642720, Note_on_c, 8, 42, 100
1, 642720, Note_on_c, 8, 49, 100
1, 642720, Note_on_c, 13, 57, 100
1, 642720, Note_on_c, 13, 61, 100
1, 642782, Note_off_c, 10, 69, 0
1, 642812, Note_off_c, 10, 76, 0
1, 642816, Note_off_c, 10, 64, 0
1, 642884, Note_off_c, 1, 66, 0
1, 643008, Note_off_c, 6, 76, 0
1, 643010, Note_off_c, 6, 69, 0
1, 643012, Note_off_c, 8, 42, 0
1, 643012, Note_off_c, 8, 49, 0
1, 643012, Note_off_c, 13, 57, 0
1, 643012, Note_off_c, 13, 61, 0
1, 643018, Note_off_c, 6, 64, 0
1, 643200, Note_on_c, 0, 56, 100
1, 643200, Note_on_c, 0, 61, 100
1, 643200, Note_on_c, 1, 59, 65
1, 643200, Note_on_c, 2, 68, 100
1, 643200, Note_on_c, 2, 73, 100
1, 643200, Note_on_c, 3, 71, 100
1, 643200, Note_on_c, 3, 76, 100
1, 643200, Note_on_c, 4, 73, 100
1, 643200, Note_on_c, 5, 68, 100
1, 643200, Note_on_c, 7, 64, 70
1, 643200, Note_on_c, 7, 69, 78
1, 643200, Note_on_c, 7, 76, 77
1, 643200, Note_on_c, 8, 57, 100
1, 643200, Note_on_c, 8, 61, 100
1, 643200, Note_on_c, 13, 42, 100
1, 643200, Note_on_c, 13, 49, 100
1, 643442, Note_off_c, 7, 64, 0
1, 643464, Note_off_c, 7, 76, 0
1, 643482, Note_on_c, 10, 64, 73
1, 643482, Note_on_c, 10, 69, 82
1, 643482, Note_on_c, 10, 76, 77
1, 643488, Note_off_c, 7, 69, 0
1, 643492, Note_off_c, 8, 57, 0
1, 643492, Note_off_c, 8, 61, 0
1, 643492, Note_off_c, 13, 42, 0
1, 643492, Note_off_c, 13, 49, 0
1, 643672, Note_off_c, 0, 56, 64
1, 643672, Note_off_c, 0, 61, 64
1, 643672, Note_off_c, 2, 68, 64
1, 643672, Note_off_c, 2, 73, 64
1, 643672, Note_off_c, 3, 71, 64
1, 643672, Note_off_c, 3, 76, 64
1, 643672, Note_off_c, 4, 73, 0
1, 643672, Note_off_c, 5, 68, 0
1, 643680, Note_on_c, 0, 57, 100
1, 643680, Note_on_c, 0, 64, 100
1, 643680, Note_on_c, 1, 69, 74
1, 643680, Note_on_c, 2, 69, 100
1, 643680, Note_on_c, 2, 76, 100
1, 643680, Note_on_c, 3, 66, 100
1, 643680, Note_on_c, 3, 69, 100
1, 643680, Note_on_c, 4, 76, 100
1, 643680, Note_on_c, 5, 69, 100
1, 643680, Note_on_c, 6, 64, 69
1, 643680, Note_on_c, 6, 69, 70
1, 643680, Note_on_c, 6, 76, 72
1, 643680, Note_on_c, 8, 42, 100
1, 643680, Note_on_c, 8, 49, 100
1, 643680, Note_on_c, 13, 57, 100
1, 643680, Note_on_c, 13, 61, 100
1, 643760, Note_off_c, 10, 69, 0
1, 643772, Note_off_c, 10, 64, 0
1, 643774, Note_off_c, 1, 59, 0
1, 643780, Note_off_c, 10, 76, 0
1, 643944, Note_off_c, 6, 69, 0
1, 643968, Note_off_c, 6, 64, 0
1, 643972, Note_off_c, 8, 42, 0
1, 643972, Note_off_c, 8, 49, 0
1, 643972, Note_off_c, 13, 57, 0
1, 643972, Note_off_c, 13, 61, 0
1, 643984, Note_off_c, 6, 76, 0
1, 644152, Note_off_c, 0, 57, 64
1, 644152, Note_off_c, 0, 64, 64
1, 644152, Note_off_c, 2, 69, 64
1, 644152, Note_off_c, 2, 76, 64
1, 644152, Note_off_c, 3, 66, 64
1, 644152, Note_off_c, 3, 69, 64
1, 644152, Note_off_c, 4, 76, 0
1, 644152, Note_off_c, 5, 69, 0
1, 644160, Note_on_c, 0, 61, 100
1, 644160, Note_on_c, 0, 68, 100
1, 644160, Note_on_c, 1, 64, 68
1, 644160, Note_on_c, 2, 73, 100
1, 644160, Note_on_c, 2, 80, 100
1, 644160, Note_on_c, 3, 73, 100
1, 644160, Note_on_c, 3, 76, 100
1, 644160, Note_on_c, 4, 80, 100
1, 644160, Note_on_c, 5, 73, 100
1, 644160, Note_on_c, 7, 64, 70
1, 644160, Note_on_c, 7, 69, 72
1, 644160, Note_on_c, 7, 76, 77
1, 644160, Note_on_c, 8, 59, 100
1, 644160, Note_on_c, 8, 61, 100
1, 644160, Note_on_c, 13, 44, 100
1, 644160, Note_on_c, 13, 49, 100
1, 644372, Note_off_c, 1, 69, 0
1, 644414, Note_off_c, 7, 64, 0
1, 644426, Note_off_c, 7, 69, 0
1, 644442, Note_on_c, 10, 64, 72
1, 644442, Note_on_c, 10, 69, 75
1, 644442, Note_on_c, 10, 76, 73
1, 644452, Note_off_c, 8, 59, 0
1, 644452, Note_off_c, 8, 61, 0
1, 644452, Note_off_c, 13, 44, 0
1, 644452, Note_off_c, 13, 49, 0
1, 644482, Note_off_c, 7, 76, 0
1, 644632, Note_off_c, 0, 61, 64
1, 644632, Note_off_c, 0, 68, 64
1, 644632, Note_off_c, 2, 73, 64
1, 644632, Note_off_c, 2, 80, 64
1, 644632, Note_off_c, 3, 73, 64
1, 644632, Note_off_c, 3, 76, 64
1, 644632, Note_off_c, 4, 80, 0
1, 644632, Note_off_c, 5, 73, 0
1, 644640, Note_on_c, 6, 64, 68
1, 644640, Note_on_c, 6, 69, 77
1, 644640, Note_on_c, 6, 76, 73
1, 644640, Note_on_c, 8, 44, 100
1, 644640, Note_on_c, 8, 49, 100
1, 644640, Note_on_c, 13, 59, 100
1, 644640, Note_on_c, 13, 61, 100
1, 644730, Note_off_c, 10, 76, 0
1, 644732, Note_off_c, 10, 69, 0
1, 644740, Note_off_c, 10, 64, 0
1, 644774, Note_off_c, 1, 64, 0
1, 644906, Note_off_c, 6, 64, 0
1, 644924, Note_off_c, 6, 69, 0
1, 644924, Note_off_c, 6, 76, 0
1, 644932, Note_off_c, 8, 44, 0
1, 644932, Note_off_c, 8, 49, 0
1, 644932, Note_off_c, 13, 59, 0
1, 644932, Note_off_c, 13, 61, 0
1, 645120, Note_on_c, 1, 66, 77
1, 645120, Note_on_c, 3, 71, 100
1, 645120, Note_on_c, 3, 76, 100
1, 645120, Note_on_c, 7, 64, 73
1, 645120, Note_on_c, 7, 69, 77
1, 645120, Note_on_c, 7, 76, 74
1, 645120, Note_on_c, 8, 59, 100
1, 645120, Note_on_c, 8, 61, 100
1, 645120, Note_on_c, 13, 44, 100
1, 645120, Note_on_c, 13, 49, 100
1, 645402, Note_on_c, 10, 64, 69
1, 645402, Note_on_c, 10, 69, 70
1, 645402, Note_on_c, 10, 76, 72
1, 645404, Note_off_c, 7, 69, 0
1, 645412, Note_off_c, 8, 59, 0
1, 645412, Note_off_c, 8, 61, 0
1, 645412, Note_off_c, 13, 44, 0
1, 645412, Note_off_c, 13, 49, 0
1, 645436, Note_off_c, 7, 76, 0
1, 645442, Note_off_c, 7, 64, 0
1, 645592, Note_off_c, 3, 71, 64
1, 645592, Note_off_c, 3, 76, 64
1, 645600, Note_on_c, 1, 61, 70
1, 645600, Note_on_c, 3, 64, 100
1, 645600, Note_on_c, 3, 69, 100
1, 645600, Note_on_c, 6, 64, 72
1, 645600, Note_on_c, 6, 69, 52
1, 645600, Note_on_c, 6, 76, 72
1, 645600, Note_on_c, 8, 44, 100
1, 645600, Note_on_c, 8, 49, 100
1, 645600, Note_on_c, 13, 59, 100
1, 645600, Note_on_c, 13, 61, 100
1, 645666, Note_off_c, 10, 69, 0
1, 645690, Note_off_c, 10, 64, 0
1, 645706, Note_off_c, 10, 76, 0
1, 645752, Note_off_c, 6, 69, 0
1, 645762, Note_off_c, 1, 66, 0
1, 645840, Note_off_c, 6, 64, 0
1, 645846, Note_off_c, 6, 76, 0
1, 645892, Note_off_c, 8, 44, 0
1, 645892, Note_off_c, 8, 49, 0
1, 645892, Note_off_c, 13, 59, 0
1, 645892, Note_off_c, 13, 61, 0
1, 646072, Note_off_c, 3, 64, 64
1, 646072, Note_off_c, 3, 69, 64
1, 646080, Note_on_c, 7, 64, 68
1, 646080, Note_on_c, 7, 69, 70
1, 646080, Note_on_c, 7, 76, 72
1, 646080, Note_on_c, 8, 59, 100
1, 646080, Note_on_c, 8, 61, 100
1, 646080, Note_on_c, 13, 44, 100
1, 646080, Note_on_c, 13, 49, 100
1, 646228, Note_off_c, 1, 61, 0
1, 646362, Note_on_c, 10, 64, 68
1, 646362, Note_on_c, 10, 69, 77
1, 646362, Note_on_c, 10, 76, 73
1, 646370, Note_off_c, 7, 69, 0
1, 646372, Note_off_c, 8, 59, 0
1, 646372, Note_off_c, 8, 61, 0
1, 646372, Note_off_c, 13, 44, 0
1, 646372, Note_off_c, 13, 49, 0
1, 646388, Note_off_c, 7, 76, 0
1, 646394, Note_off_c, 7, 64, 0
1, 646560, Note_on_c, 1, 69, 77
1, 646560, Note_on_c, 3, 71, 100
1, 646560, Note_on_c, 3, 76, 100
1, 646560, Note_on_c, 6, 64, 68
1, 646560, Note_on_c, 6, 69, 70
1, 646560, Note_on_c, 6, 76, 74
1, 646560, Note_on_c, 8, 44, 100
1, 646560, Note_on_c, 8, 49, 100
1, 646560, Note_on_c, 13, 59, 100
1, 646560, Note_on_c, 13, 61, 100
1, 646628, Note_off_c, 10, 64, 0
1, 646646, Note_off_c, 10, 69, 0
1, 646646, Note_off_c, 10, 76, 0
1, 646792, Note_off_c, 6, 69, 0
1, 646802, Note_off_c, 6, 64, 0
1, 646810, Note_off_c, 6, 76, 0
1, 646852, Note_off_c, 8, 44, 0
1, 646852, Note_off_c, 8, 49, 0
1, 646852, Note_off_c, 13, 59, 0
1, 646852, Note_off_c, 13, 61, 0
1, 647032, Note_off_c, 3, 71, 64
1, 647032, Note_off_c, 3, 76, 64
1, 647040, Note_on_c, 7, 64, 68
1, 647040, Note_on_c, 7, 69, 70
1, 647040, Note_on_c, 7, 76, 73
1, 647040, Note_on_c, 8, 59, 100
1, 647040, Note_on_c, 8, 61, 100
1, 647040, Note_on_c, 13, 44, 100
1, 647040, Note_on_c, 13, 49, 100
1, 647208, Note_off_c, 1, 69, 0
1, 647288, Note_off_c, 7, 64, 0
1, 647302, Note_off_c, 7, 69, 0
1, 647302, Note_off_c, 7, 76, 0
1, 647322, Note_on_c, 10, 64, 72
1, 647322, Note_on_c, 10, 69, 52
1, 647322, Note_on_c, 10, 76, 72
1, 647332, Note_off_c, 8, 59, 0
1, 647332, Note_off_c, 8, 61, 0
1, 647332, Note_off_c, 13, 44, 0
1, 647332, Note_off_c, 13, 49, 0
1, 647474, Note_off_c, 10, 69, 0
1, 647520, Note_on_c, 1, 64, 68
1, 647520, Note_on_c, 3, 73, 100
1, 647520, Note_on_c, 3, 76, 100
1, 647520, Note_on_c, 6, 64, 68
1, 647520, Note_on_c, 6, 69, 69
1, 647520, Note_on_c, 6, 76, 72
1, 647520, Note_on_c, 8, 44, 100
1, 647520, Note_on_c, 8, 49, 100
1, 647520, Note_on_c, 13, 59, 100
1, 647520, Note_on_c, 13, 61, 100
1, 647562, Note_off_c, 10, 64, 0
1, 647568, Note_off_c, 10, 76, 0
1, 647736, Note_off_c, 6, 76, 0
1, 647738, Note_off_c, 6, 69, 0
1, 647752, Note_off_c, 6, 64, 0
1, 647812, Note_off_c, 8, 44, 0
1, 647812, Note_off_c, 8, 49, 0
1, 647812, Note_off_c, 13, 59, 0
1, 647812, Note_off_c, 13, 61, 0
1, 647964, Note_off_c, 1, 64, 0
1, 647992, Note_off_c, 3, 73, 64
1, 647992, Note_off_c, 3, 76, 64
1, 648000, Note_on_c, 0, 54, 100
1, 648000, Note_on_c, 0, 59, 100
1, 648000, Note_on_c, 1, 66, 78
1, 648000, Note_on_c, 2, 66, 100
1, 648000, Note_on_c, 2, 71, 100
1, 648000, Note_on_c, 3, 64, 100
1, 648000, Note_on_c, 3, 69, 100
1, 648000, Note_on_c, 4, 71, 100
1, 648000, Note_on_c, 5, 66, 100
1, 648000, Note_on_c, 7, 64, 70
1, 648000, Note_on_c, 7, 69, 83
1, 648000, Note_on_c, 7, 76, 74
1, 648000, Note_on_c, 8, 57, 100
1, 648000, Note_on_c, 8, 61, 100
1, 648000, Note_on_c, 13, 42, 100
1, 648000, Note_on_c, 13, 49, 100
1, 648052, Note_off_c, 4, 71, 0
1, 648240, Note_off_c, 7, 64, 0
1, 648240, Note_off_c, 7, 76, 0
1, 648250, Note_off_c, 7, 69, 0
1, 648282, Note_on_c, 10, 64, 68
1, 648282, Note_on_c, 10, 69, 70
1, 648282, Note_on_c, 10, 76, 74
1, 648292, Note_off_c, 8, 57, 0
1, 648292, Note_off_c, 8, 61, 0
1, 648292, Note_off_c, 13, 42, 0
1, 648292, Note_off_c, 13, 49, 0
1, 648352, Note_off_c, 5, 66, 0
1, 648472, Note_off_c, 0, 54, 64
1, 648472, Note_off_c, 0, 59, 64
1, 648472, Note_off_c, 2, 66, 64
1, 648472, Note_off_c, 2, 71, 64
1, 648472, Note_off_c, 3, 64, 64
1, 648472, Note_off_c, 3, 69, 64
1, 648480, Note_on_c, 6, 64, 67
1, 648480, Note_on_c, 6, 69, 67
1, 648480, Note_on_c, 6, 76, 72
1, 648480, Note_on_c, 8, 42, 100
1, 648480, Note_on_c, 8, 49, 100
1, 648480, Note_on_c, 13, 57, 100
1, 648480, Note_on_c, 13, 61, 100
1, 648514, Note_off_c, 10, 69, 0
1, 648524, Note_off_c, 10, 64, 0
1, 648532, Note_off_c, 10, 76, 0
1, 648668, Note_off_c, 1, 66, 0
1, 648726, Note_off_c, 6, 64, 0
1, 648730, Note_off_c, 6, 69, 0
1, 648746, Note_off_c, 6, 76, 0
1, 648772, Note_off_c, 8, 42, 0
1, 648772, Note_off_c, 8, 49, 0
1, 648772, Note_off_c, 13, 57, 0
1, 648772, Note_off_c, 13, 61, 0
1, 648960, Note_on_c, 0, 56, 100
1, 648960, Note_on_c, 0, 61, 100
1, 648960, Note_on_c, 1, 59, 74
1, 648960, Note_on_c, 2, 68, 100
1, 648960, Note_on_c, 2, 73, 100
1, 648960, Note_on_c, 3, 71, 100
1, 648960, Note_on_c, 3, 76, 100
1, 648960, Note_on_c, 4, 73, 100
1, 648960, Note_on_c, 5, 68, 100
1, 648960, Note_on_c, 7, 64, 67
1, 648960, Note_on_c, 7, 69, 78
1, 648960, Note_on_c, 7, 76, 73
1, 648960, Note_on_c, 8, 57, 100
1, 648960, Note_on_c, 8, 61, 100
1, 648960, Note_on_c, 13, 42, 100
1, 648960, Note_on_c, 13, 49, 100
1, 649210, Note_off_c, 7, 76, 0
1, 649216, Note_off_c, 7, 69, 0
1, 649224, Note_off_c, 7, 64, 0
1, 649242, Note_on_c, 10, 64, 68
1, 649242, Note_on_c, 10, 69, 69
1, 649242, Note_on_c, 10, 76, 72
1, 649252, Note_off_c, 8, 57, 0
1, 649252, Note_off_c, 8, 61, 0
1, 649252, Note_off_c, 13, 42, 0
1, 649252, Note_off_c, 13, 49, 0
1, 649432, Note_off_c, 0, 56, 64
1, 649432, Note_off_c, 0, 61, 64
1, 649432, Note_off_c, 2, 68, 64
1, 649432, Note_off_c, 2, 73, 64
1, 649432, Note_off_c, 3, 71, 64
1, 649432, Note_off_c, 3, 76, 64
1, 649432, Note_off_c, 4, 73, 0
1, 649432, Note_off_c, 5, 68, 0
1, 649440, Note_on_c, 0, 57, 100
1, 649440, Note_on_c, 0, 64, 100
1, 649440, Note_on_c, 1, 69, 75
1, 649440, Note_on_c, 2, 69, 100
1, 649440, Note_on_c, 2, 76, 100
1, 649440, Note_on_c, 3, 66, 100
1, 649440, Note_on_c, 3, 69, 100
1, 649440, Note_on_c, 4, 76, 100
1, 649440, Note_on_c, 5, 69, 100
1, 649440, Note_on_c, 6, 64, 67
1, 649440, Note_on_c, 6, 69, 63
1, 649440, Note_on_c, 6, 76, 72
1, 649440, Note_on_c, 8, 42, 100
1, 649440, Note_on_c, 8, 49, 100
1, 649440, Note_on_c, 13, 57, 100
1, 649440, Note_on_c, 13, 61, 100
1, 649448, Note_off_c, 1, 59, 0
1, 649458, Note_off_c, 10, 76, 0
1, 649460, Note_off_c, 10, 69, 0
1, 649474, Note_off_c, 10, 64, 0
1, 649688, Note_off_c, 6, 69, 0
1, 649716, Note_off_c, 6, 64, 0
1, 649732, Note_off_c, 6, 76, 0
1, 649732, Note_off_c, 8, 42, 0
1, 649732, Note_off_c, 8, 49, 0
1, 649732, Note_off_c, 13, 57, 0
1, 649732, Note_off_c, 13, 61, 0
1, 649912, Note_off_c, 0, 57, 64
1, 649912, Note_off_c, 0, 64, 64
1, 649912, Note_off_c, 2, 69, 64
1, 649912, Note_off_c, 2, 76, 64
1, 649912, Note_off_c, 3, 66, 64
1, 649912, Note_off_c, 3, 69, 64
1, 649912, Note_off_c, 4, 76, 0
1, 649912, Note_off_c, 5, 69, 0
1, 649920, Note_on_c, 0, 61, 100
1, 649920, Note_on_c, 0, 68, 100
1, 649920, Note_on_c, 1, 64, 73
1, 649920, Note_on_c, 2, 73, 100
1, 649920, Note_on_c, 2, 80, 100
1, 649920, Note_on_c, 3, 73, 100
1, 649920, Note_on_c, 3, 76, 100
1, 649920, Note_on_c, 4, 80, 100
1, 649920, Note_on_c, 5, 73, 100
1, 649920, Note_on_c, 7, 64, 69
1, 649920, Note_on_c, 7, 69, 70
1, 649920, Note_on_c, 7, 76, 73
1, 649920, Note_on_c, 8, 57, 100
1, 649920, Note_on_c, 8, 61, 100
1, 649920, Note_on_c, 13, 42, 100
1, 649920, Note_on_c, 13, 49, 100
1, 650046, Note_off_c, 1, 69, 0
1, 650140, Note_off_c, 7, 69, 0
1, 650162, Note_off_c, 7, 76, 0
1, 650172, Note_off_c, 7, 64, 0
1, 650202, Note_on_c, 10, 64, 67
1, 650202, Note_on_c, 10, 69, 67
1, 650202, Note_on_c, 10, 76, 72
1, 650212, Note_off_c, 8, 57, 0
1, 650212, Note_off_c, 8, 61, 0
1, 650212, Note_off_c, 13, 42, 0
1, 650212, Note_off_c, 13, 49, 0
1, 650392, Note_off_c, 0, 61, 64
1, 650392, Note_off_c, 0, 68, 64
1, 650392, Note_off_c, 2, 73, 64
1, 650392, Note_off_c, 2, 80, 64
1, 650392, Note_off_c, 3, 73, 64
1, 650392, Note_off_c, 3, 76, 64
1, 650392, Note_off_c, 4, 80, 0
1, 650392, Note_off_c, 5, 73, 0
1, 650400, Note_on_c, 6, 64, 68
1, 650400, Note_on_c, 6, 69, 66
1, 650400, Note_on_c, 6, 76, 70
1, 650400, Note_on_c, 8, 42, 100
1, 650400, Note_on_c, 8, 49, 100
1, 650400, Note_on_c, 13, 57, 100
1, 650400, Note_on_c, 13, 61, 100
1, 650448, Note_off_c, 10, 64, 0
1, 650452, Note_off_c, 10, 69, 0
1, 650468, Note_off_c, 10, 76, 0
1, 650596, Note_off_c, 6, 69, 0
1, 650620, Note_off_c, 6, 64, 0
1, 650626, Note_off_c, 1, 64, 0
1, 650638, Note_off_c, 6, 76, 0
1, 650692, Note_off_c, 8, 42, 0
1, 650692, Note_off_c, 8, 49, 0
1, 650692, Note_off_c, 13, 57, 0
1, 650692, Note_off_c, 13, 61, 0
1, 650880, Note_on_c, 0, 59, 100
1, 650880, Note_on_c, 0, 66, 100
1, 650880, Note_on_c, 1, 66, 68
1, 650880, Note_on_c, 2, 71, 100
1, 650880, Note_on_c, 2, 78, 100
1, 650880, Note_on_c, 3, 71, 100
1, 650880, Note_on_c, 3, 76, 100
1, 650880, Note_on_c, 4, 78, 100
1, 650880, Note_on_c, 5, 71, 100
1, 650880, Note_on_c, 7, 64, 69
1, 650880, Note_on_c, 7, 69, 75
1, 650880, Note_on_c, 7, 76, 73
1, 650880, Note_on_c, 8, 59, 100
1, 650880, Note_on_c, 8, 61, 100
1, 650880, Note_on_c, 13, 44, 100
1, 650880, Note_on_c, 13, 49, 100
1, 651094, Note_off_c, 7, 69, 0
1, 651110, Note_off_c, 7, 64, 0
1, 651124, Note_off_c, 7, 76, 0
1, 651162, Note_on_c, 10, 64, 67
1, 651162, Note_on_c, 10, 69, 63
1, 651162, Note_on_c, 10, 76, 72
1, 651172, Note_off_c, 8, 59, 0
1, 651172, Note_off_c, 8, 61, 0
1, 651172, Note_off_c, 13, 44, 0
1, 651172, Note_off_c, 13, 49, 0
1, 651352, Note_off_c, 0, 59, 64
1, 651352, Note_off_c, 0, 66, 64
1, 651352, Note_off_c, 2, 71, 64
1, 651352, Note_off_c, 2, 78, 64
1, 651352, Note_off_c, 3, 71, 64
1, 651352, Note_off_c, 3, 76, 64
1, 651352, Note_off_c, 4, 78, 0
1, 651352, Note_off_c, 5, 71, 0
1, 651360, Note_on_c, 0, 56, 100
1, 651360, Note_on_c, 0, 61, 100
1, 651360, Note_on_c, 1, 61, 68
1, 651360, Note_on_c, 2, 68, 100
1, 651360, Note_on_c, 2, 73, 100
1, 651360, Note_on_c, 3, 64, 100
1, 651360, Note_on_c, 3, 69, 100
1, 651360, Note_on_c, 4, 73, 100
1, 651360, Note_on_c, 5, 68, 100
1, 651360, Note_on_c, 6, 64, 68
1, 651360, Note_on_c, 6, 69, 63
1, 651360, Note_on_c, 6, 76, 72
1, 651360, Note_on_c, 8, 44, 100
1, 651360, Note_on_c, 8, 49, 100
1, 651360, Note_on_c, 13, 59, 100
1, 651360, Note_on_c, 13, 61, 100
1, 651396, Note_off_c, 1, 66, 0
1, 651410, Note_off_c, 10, 69, 0
1, 651438, Note_off_c, 10, 64, 0
1, 651454, Note_off_c, 10, 76, 0
1, 651570, Note_off_c, 6, 64, 0
1, 651604, Note_off_c, 6, 76, 0
1, 651622, Note_off_c, 6, 69, 0
1, 651652, Note_off_c, 8, 44, 0
1, 651652, Note_off_c, 8, 49, 0
1, 651652, Note_off_c, 13, 59, 0
1, 651652, Note_off_c, 13, 61, 0
1, 651832, Note_off_c, 0, 56, 64
1, 651832, Note_off_c, 0, 61, 64
1, 651832, Note_off_c, 2, 68, 64
1, 651832, Note_off_c, 2, 73, 64
1, 651832, Note_off_c, 3, 64, 64
1, 651832, Note_off_c, 3, 69, 64
1, 651832, Note_off_c, 4, 73, 0
1, 651832, Note_off_c, 5, 68, 0
1, 651840, Note_on_c, 7, 64, 68
1, 651840, Note_on_c, 7, 69, 74
1, 651840, Note_on_c, 7, 76, 74
1, 651840, Note_on_c, 8, 59, 100
1, 651840, Note_on_c, 8, 61, 100
1, 651840, Note_on_c, 13, 44, 100
1, 651840, Note_on_c, 13, 49, 100
1, 652064, Note_off_c, 7, 69, 0
1, 652104, Note_off_c, 7, 64, 0
1, 652114, Note_off_c, 7, 76, 0
1, 652122, Note_on_c, 10, 64, 68
1, 652122, Note_on_c, 10, 69, 66
1, 652122, Note_on_c, 10, 76, 70
1, 652130, Note_off_c, 1, 61, 0
1, 652132, Note_off_c, 8, 59, 0
1, 652132, Note_off_c, 8, 61, 0
1, 652132, Note_off_c, 13, 44, 0
1, 652132, Note_off_c, 13, 49, 0
1, 652318, Note_off_c, 10, 69, 0
1, 652320, Note_on_c, 0, 57, 100
1, 652320, Note_on_c, 0, 64, 100
1, 652320, Note_on_c, 1, 69, 77
1, 652320, Note_on_c, 2, 69, 100
1, 652320, Note_on_c, 2, 76, 100
1, 652320, Note_on_c, 3, 71, 100
1, 652320, Note_on_c, 3, 76, 100
1, 652320, Note_on_c, 4, 76, 100
1, 652320, Note_on_c, 5, 69, 100
1, 652320, Note_on_c, 6, 64, 70
1, 652320, Note_on_c, 6, 69, 69
1, 652320, Note_on_c, 6, 76, 72
1, 652320, Note_on_c, 8, 44, 100
1, 652320, Note_on_c, 8, 49, 100
1, 652320, Note_on_c, 13, 59, 100
1, 652320, Note_on_c, 13, 61, 100
1, 652342, Note_off_c, 10, 64, 0
1, 652360, Note_off_c, 10, 76, 0
1, 652554, Note_off_c, 6, 69, 0
1, 652582, Note_off_c, 6, 64, 0
1, 652582, Note_off_c, 6, 76, 0
1, 652612, Note_off_c, 8, 44, 0
1, 652612, Note_off_c, 8, 49, 0
1, 652612, Note_off_c, 13, 59, 0
1, 652612, Note_off_c, 13, 61, 0
1, 652792, Note_off_c, 0, 57, 64
1, 652792, Note_off_c, 0, 64, 64
1, 652792, Note_off_c, 2, 69, 64
1, 652792, Note_off_c, 2, 76, 64
1, 652792, Note_off_c, 3, 71, 64
1, 652792, Note_off_c, 3, 76, 64
1, 652792, Note_off_c, 4, 76, 0
1, 652792, Note_off_c, 5, 69, 0
1, 652800, Note_on_c, 7, 64, 68
1, 652800, Note_on_c, 7, 69, 73
1, 652800, Note_on_c, 7, 76, 73
1, 652800, Note_on_c, 8, 59, 100
1, 652800, Note_on_c, 8, 61, 100
1, 652800, Note_on_c, 13, 44, 100
1, 652800, Note_on_c, 13, 49, 100
1, 652944, Note_off_c, 1, 69, 0
1, 653024, Note_off_c, 7, 64, 0
1, 653048, Note_off_c, 7, 69, 0
1, 653048, Note_off_c, 7, 76, 0
1, 653082, Note_on_c, 10, 64, 68
1, 653082, Note_on_c, 10, 69, 63
1, 653082, Note_on_c, 10, 76, 72
1, 653092, Note_off_c, 8, 59, 0
1, 653092, Note_off_c, 8, 61, 0
1, 653092, Note_off_c, 13, 44, 0
1, 653092, Note_off_c, 13, 49, 0
1, 653280, Note_on_c, 0, 59, 100
1, 653280, Note_on_c, 0, 66, 100
1, 653280, Note_on_c, 1, 64, 70
1, 653280, Note_on_c, 2, 71, 100
1, 653280, Note_on_c, 2, 78, 100
1, 653280, Note_on_c, 3, 73, 100
1, 653280, Note_on_c, 3, 76, 100
1, 653280, Note_on_c, 4, 78, 100
1, 653280, Note_on_c, 5, 71, 100
1, 653280, Note_on_c, 6, 64, 68
1, 653280, Note_on_c, 6, 69, 70
1, 653280, Note_on_c, 6, 76, 70
1, 653280, Note_on_c, 8, 44, 100
1, 653280, Note_on_c, 8, 49, 100
1, 653280, Note_on_c, 13, 59, 100
1, 653280, Note_on_c, 13, 61, 100
1, 653292, Note_off_c, 10, 64, 0
1, 653326, Note_off_c, 10, 76, 0
1, 653344, Note_off_c, 10, 69, 0
1, 653488, Note_off_c, 6, 64, 0
1, 653516, Note_off_c, 6, 69, 0
1, 653520, Note_off_c, 6, 76, 0
1, 653572, Note_off_c, 8, 44, 0
1, 653572, Note_off_c, 8, 49, 0
1, 653572, Note_off_c, 13, 59, 0
1, 653572, Note_off_c, 13, 61, 0
1, 653752, Note_off_c, 0, 59, 64
1, 653752, Note_off_c, 0, 66, 64
1, 653752, Note_off_c, 2, 71, 64
1, 653752, Note_off_c, 2, 78, 64
1, 653752, Note_off_c, 3, 73, 64
1, 653752, Note_off_c, 3, 76, 64
1, 653752, Note_off_c, 4, 78, 0
1, 653752, Note_off_c, 5, 71, 0
1, 653760, Note_on_c, 0, 56, 100
1, 653760, Note_on_c, 0, 61, 100
1, 653760, Note_on_c, 1, 66, 77
1, 653760, Note_on_c, 2, 68, 100
1, 653760, Note_on_c, 2, 73, 100
1, 653760, Note_on_c, 3, 64, 100
1, 653760, Note_on_c, 3, 69, 100
1, 653760, Note_on_c, 4, 73, 100
1, 653760, Note_on_c, 5, 68, 100
1, 653760, Note_on_c, 7, 64, 66
1, 653760, Note_on_c, 7, 69, 74
1, 653760, Note_on_c, 7, 76, 73
1, 653760, Note_on_c, 8, 57, 100
1, 653760, Note_on_c, 8, 61, 100
1, 653760, Note_on_c, 13, 42, 100
1, 653760, Note_on_c, 13, 49, 100
1, 653912, Note_off_c, 1, 64, 0
1, 653994, Note_off_c, 7, 64, 0
1, 654014, Note_off_c, 7, 76, 0
1, 654042, Note_off_c, 7, 69, 0
1, 654042, Note_on_c, 10, 64, 70
1, 654042, Note_on_c, 10, 69, 69
1, 654042, Note_on_c, 10, 76, 72
1, 654052, Note_off_c, 8, 57, 0
1, 654052, Note_off_c, 8, 61, 0
1, 654052, Note_off_c, 13, 42, 0
1, 654052, Note_off_c, 13, 49, 0
1, 654232, Note_off_c, 0, 56, 64
1, 654232, Note_off_c, 0, 61, 64
1, 654232, Note_off_c, 2, 68, 64
1, 654232, Note_off_c, 2, 73, 64
1, 654232, Note_off_c, 3, 64, 64
1, 654232, Note_off_c, 3, 69, 64
1, 654232, Note_off_c, 4, 73, 0
1, 654232, Note_off_c, 5, 68, 0
1, 654240, Note_on_c, 6, 64, 67
1, 654240, Note_on_c, 6, 69, 73
1, 654240, Note_on_c, 6, 76, 74
1, 654240, Note_on_c, 8, 42, 100
1, 654240, Note_on_c, 8, 49, 100
1, 654240, Note_on_c, 13, 57, 100
1, 654240, Note_on_c, 13, 61, 100
1, 654276, Note_off_c, 10, 69, 0
1, 654304, Note_off_c, 10, 64, 0
1, 654304, Note_off_c, 10, 76, 0
1, 654404, Note_off_c, 1, 66, 0
1, 654456, Note_off_c, 6, 64, 0
1, 654476, Note_off_c, 6, 76, 0
1, 654486, Note_off_c, 6, 69, 0
1, 654532, Note_off_c, 8, 42, 0
1, 654532, Note_off_c, 8, 49, 0
1, 654532, Note_off_c, 13, 57, 0
1, 654532, Note_off_c, 13, 61, 0
1, 654720, Note_on_c, 0, 56, 100
1, 654720, Note_on_c, 0, 61, 100
1, 654720, Note_on_c, 1, 59, 65
1, 654720, Note_on_c, 2, 68, 100
1, 654720, Note_on_c, 2, 73, 100
1, 654720, Note_on_c, 3, 71, 100
1, 654720, Note_on_c, 3, 76, 100
1, 654720, Note_on_c, 4, 73, 100
1, 654720, Note_on_c, 5, 68, 100
1, 654720, Note_on_c, 7, 64, 66
1, 654720, Note_on_c, 7, 69, 77
1, 654720, Note_on_c, 7, 76, 70
1, 654720, Note_on_c, 8, 57, 100
1, 654720, Note_on_c, 8, 61, 100
1, 654720, Note_on_c, 13, 42, 100
1, 654720, Note_on_c, 13, 49, 100
1, 654948, Note_off_c, 7, 64, 0
1, 655002, Note_on_c, 10, 64, 68
1, 655002, Note_on_c, 10, 69, 70
1, 655002, Note_on_c, 10, 76, 70
1, 655006, Note_off_c, 7, 69, 0
1, 655012, Note_off_c, 8, 57, 0
1, 655012, Note_off_c, 8, 61, 0
1, 655012, Note_off_c, 13, 42, 0
1, 655012, Note_off_c, 13, 49, 0
1, 655030, Note_off_c, 7, 76, 0
1, 655192, Note_off_c, 0, 56, 64
1, 655192, Note_off_c, 0, 61, 64
1, 655192, Note_off_c, 2, 68, 64
1, 655192, Note_off_c, 2, 73, 64
1, 655192, Note_off_c, 3, 71, 64
1, 655192, Note_off_c, 3, 76, 64
1, 655192, Note_off_c, 4, 73, 0
1, 655192, Note_off_c, 5, 68, 0
1, 655200, Note_on_c, 0, 57, 100
1, 655200, Note_on_c, 0, 64, 100
1, 655200, Note_on_c, 1, 69, 74
1, 655200, Note_on_c, 2, 69, 100
1, 655200, Note_on_c, 2, 76, 100
1, 655200, Note_on_c, 3, 66, 100
1, 655200, Note_on_c, 3, 69, 100
1, 655200, Note_on_c, 4, 76, 100
1, 655200, Note_on_c, 5, 69, 100
1, 655200, Note_on_c, 6, 64, 68
1, 655200, Note_on_c, 6, 69, 74
1, 655200, Note_on_c, 6, 76, 75
1, 655200, Note_on_c, 8, 42, 100
1, 655200, Note_on_c, 8, 49, 100
1, 655200, Note_on_c, 13, 57, 100
1, 655200, Note_on_c, 13, 61, 100
1, 655210, Note_off_c, 10, 64, 0
1, 655238, Note_off_c, 10, 69, 0
1, 655242, Note_off_c, 10, 76, 0
1, 655294, Note_off_c, 1, 59, 0
1, 655472, Note_off_c, 6, 69, 0
1, 655476, Note_off_c, 6, 64, 0
1, 655490, Note_off_c, 6, 76, 0
1, 655492, Note_off_c, 8, 42, 0
1, 655492, Note_off_c, 8, 49, 0
1, 655492, Note_off_c, 13, 57, 0
1, 655492, Note_off_c, 13, 61, 0
1, 655672, Note_off_c, 0, 57, 64
1, 655672, Note_off_c, 0, 64, 64
1, 655672, Note_off_c, 2, 69, 64
1, 655672, Note_off_c, 2, 76, 64
1, 655672, Note_off_c, 3, 66, 64
1, 655672, Note_off_c, 3, 69, 64
1, 655672, Note_off_c, 4, 76, 0
1, 655672, Note_off_c, 5, 69, 0
1, 655680, Note_on_c, 0, 61, 100
1, 655680, Note_on_c, 0, 68, 100
1, 655680, Note_on_c, 1, 64, 68
1, 655680, Note_on_c, 2, 73, 100
1, 655680, Note_on_c, 2, 80, 100
1, 655680, Note_on_c, 3, 73, 100
1, 655680, Note_on_c, 3, 76, 100
1, 655680, Note_on_c, 4, 80, 100
1, 655680, Note_on_c, 5, 73, 100
1, 655680, Note_on_c, 7, 64, 65
1, 655680, Note_on_c, 7, 69, 72
1, 655680, Note_on_c, 7, 76, 72
1, 655680, Note_on_c, 8, 59, 100
1, 655680, Note_on_c, 8, 61, 100
1, 655680, Note_on_c, 13, 44, 100
1, 655680, Note_on_c, 13, 49, 100
1, 655892, Note_off_c, 1, 69, 0
1, 655956, Note_off_c, 7, 64, 0
1, 655962, Note_on_c, 10, 64, 67
1, 655962, Note_on_c, 10, 69, 73
1, 655962, Note_on_c, 10, 76, 74
1, 655970, Note_off_c, 7, 69, 0
1, 655972, Note_off_c, 7, 76, 0
1, 655972, Note_off_c, 8, 59, 0
1, 655972, Note_off_c, 8, 61, 0
1, 655972, Note_off_c, 13, 44, 0
1, 655972, Note_off_c, 13, 49, 0
1, 656152, Note_off_c, 0, 61, 64
1, 656152, Note_off_c, 0, 68, 64
1, 656152, Note_off_c, 2, 73, 64
1, 656152, Note_off_c, 2, 80, 64
1, 656152, Note_off_c, 3, 73, 64
1, 656152, Note_off_c, 3, 76, 64
1, 656152, Note_off_c, 4, 80, 0
1, 656152, Note_off_c, 5, 73, 0
1, 656160, Note_on_c, 6, 64, 73
1, 656160, Note_on_c, 6, 69, 80
1, 656160, Note_on_c, 6, 76, 77
1, 656160, Note_on_c, 8, 44, 100
1, 656160, Note_on_c, 8, 49, 100
1, 656160, Note_on_c, 13, 59, 100
1, 656160, Note_on_c, 13, 61, 100
1, 656178, Note_off_c, 10, 64, 0
1, 656198, Note_off_c, 10, 76, 0
1, 656208, Note_off_c, 10, 69, 0
1, 656294, Note_off_c, 1, 64, 0
1, 656422, Note_off_c, 6, 64, 0
1, 656438, Note_off_c, 6, 69, 0
1, 656448, Note_off_c, 6, 76, 0
1, 656452, Note_off_c, 8, 44, 0
1, 656452, Note_off_c, 8, 49, 0
1, 656452, Note_off_c, 13, 59, 0
1, 656452, Note_off_c, 13, 61, 0
1, 656640, Note_on_c, 1, 66, 77
1, 656640, Note_on_c, 3, 71, 100
1, 656640, Note_on_c, 3, 76, 100
1, 656640, Note_on_c, 7, 64, 67
1, 656640, Note_on_c, 7, 69, 75
1, 656640, Note_on_c, 7, 76, 70
1, 656640, Note_on_c, 8, 59, 100
1, 656640, Note_on_c, 8, 61, 100
1, 656640, Note_on_c, 13, 44, 100
1, 656640, Note_on_c, 13, 49, 100
1, 656870, Note_off_c, 7, 69, 0
1, 656888, Note_off_c, 7, 64, 0
1, 656898, Note_off_c, 7, 76, 0
1, 656922, Note_on_c, 10, 64, 68
1, 656922, Note_on_c, 10, 69, 74
1, 656922, Note_on_c, 10, 76, 75
1, 656932, Note_off_c, 8, 59, 0
1, 656932, Note_off_c, 8, 61, 0
1, 656932, Note_off_c, 13, 44, 0
1, 656932, Note_off_c, 13, 49, 0
1, 657112, Note_off_c, 3, 71, 64
1, 657112, Note_off_c, 3, 76, 64
1, 657120, Note_on_c, 1, 61, 70
1, 657120, Note_on_c, 3, 64, 100
1, 657120, Note_on_c, 3, 69, 100
1, 657120, Note_on_c, 6, 64, 68
1, 657120, Note_on_c, 6, 69, 70
1, 657120, Note_on_c, 6, 76, 74
1, 657120, Note_on_c, 8, 44, 100
1, 657120, Note_on_c, 8, 49, 100
1, 657120, Note_on_c, 13, 59, 100
1, 657120, Note_on_c, 13, 61, 100
1, 657194, Note_off_c, 10, 69, 0
1, 657198, Note_off_c, 10, 64, 0
1, 657212, Note_off_c, 10, 76, 0
1, 657282, Note_off_c, 1, 66, 0
1, 657406, Note_off_c, 6, 64, 0
1, 657412, Note_off_c, 8, 44, 0
1, 657412, Note_off_c, 8, 49, 0
1, 657412, Note_off_c, 13, 59, 0
1, 657412, Note_off_c, 13, 61, 0
1, 657418, Note_off_c, 6, 69, 0
1, 657418, Note_off_c, 6, 76, 0
1, 657592, Note_off_c, 3, 64, 64
1, 657592, Note_off_c, 3, 69, 64
1, 657600, Note_on_c, 7, 64, 66
1, 657600, Note_on_c, 7, 69, 68
1, 657600, Note_on_c, 7, 76, 72
1, 657600, Note_on_c, 8, 59, 100
1, 657600, Note_on_c, 8, 61, 100
1, 657600, Note_on_c, 13, 44, 100
1, 657600, Note_on_c, 13, 49, 100
1, 657748, Note_off_c, 1, 61, 0
1, 657860, Note_off_c, 7, 69, 0
1, 657870, Note_off_c, 7, 64, 0
1, 657874, Note_off_c, 7, 76, 0
1, 657882, Note_on_c, 10, 64, 73
1, 657882, Note_on_c, 10, 69, 80
1, 657882, Note_on_c, 10, 76, 77
1, 657892, Note_off_c, 8, 59, 0
1, 657892, Note_off_c, 8, 61, 0
1, 657892, Note_off_c, 13, 44, 0
1, 657892, Note_off_c, 13, 49, 0
1, 658080, Note_on_c, 1, 69, 77
1, 658080, Note_on_c, 3, 71, 100
1, 658080, Note_on_c, 3, 76, 100
1, 658080, Note_on_c, 6, 64, 70
1, 658080, Note_on_c, 6, 69, 74
1, 658080, Note_on_c, 6, 76, 74
1, 658080, Note_on_c, 8, 44, 100
1, 658080, Note_on_c, 8, 49, 100
1, 658080, Note_on_c, 13, 59, 100
1, 658080, Note_on_c, 13, 61, 100
1, 658144, Note_off_c, 10, 64, 0
1, 658160, Note_off_c, 10, 69, 0
1, 658170, Note_off_c, 10, 76, 0
1, 658284, Note_off_c, 6, 64, 0
1, 658314, Note_off_c, 6, 76, 0
1, 658352, Note_off_c, 6, 69, 0
1, 658372, Note_off_c, 8, 44, 0
1, 658372, Note_off_c, 8, 49, 0
1, 658372, Note_off_c, 13, 59, 0
1, 658372, Note_off_c, 13, 61, 0
1, 658552, Note_off_c, 3, 71, 64
1, 658552, Note_off_c, 3, 76, 64
1, 658560, Note_on_c, 7, 64, 62
1, 658560, Note_on_c, 7, 69, 60
1, 658560, Note_on_c, 7, 76, 70
1, 658560, Note_on_c, 8, 59, 100
1, 658560, Note_on_c, 8, 61, 100
1, 658560, Note_on_c, 13, 44, 100
1, 658560, Note_on_c, 13, 49, 100
1, 658728, Note_off_c, 1, 69, 0
1, 658820, Note_off_c, 7, 69, 0
1, 658838, Note_off_c, 7, 64, 0
1, 658842, Note_on_c, 10, 64, 68
1, 658842, Note_on_c, 10, 69, 70
1, 658842, Note_on_c, 10, 76, 74
1, 658852, Note_off_c, 8, 59, 0
1, 658852, Note_off_c, 8, 61, 0
1, 658852, Note_off_c, 13, 44, 0
1, 658852, Note_off_c, 13, 49, 0
1, 658898, Note_off_c, 7, 76, 0
1, 659040, Note_on_c, 1, 64, 68
1, 659040, Note_on_c, 3, 73, 100
1, 659040, Note_on_c, 3, 76, 100
1, 659040, Note_on_c, 6, 64, 68
1, 659040, Note_on_c, 6, 69, 68
1, 659040, Note_on_c, 6, 76, 72
1, 659040, Note_on_c, 8, 44, 100
1, 659040, Note_on_c, 8, 49, 100
1, 659040, Note_on_c, 13, 59, 100
1, 659040, Note_on_c, 13, 61, 100
1, 659128, Note_off_c, 10, 64, 0
1, 659140, Note_off_c, 10, 69, 0
1, 659140, Note_off_c, 10, 76, 0
1, 659246, Note_off_c, 6, 69, 0
1, 659254, Note_off_c, 6, 64, 0
1, 659264, Note_off_c, 6, 76, 0
1, 659332, Note_off_c, 8, 44, 0
1, 659332, Note_off_c, 8, 49, 0
1, 659332, Note_off_c, 13, 59, 0
1, 659332, Note_off_c, 13, 61, 0
1, 659484, Note_off_c, 1, 64, 0
1, 659512, Note_off_c, 3, 73, 64
1, 659512, Note_off_c, 3, 76, 64
1, 659520, Note_on_c, 0, 54, 100
1, 659520, Note_on_c, 0, 59, 100
1, 659520, Note_on_c, 1, 66, 78
1, 659520, Note_on_c, 2, 66, 100
1, 659520, Note_on_c, 2, 71, 100
1, 659520, Note_on_c, 3, 64, 100
1, 659520, Note_on_c, 3, 69, 100
1, 659520, Note_on_c, 4, 71, 100
1, 659520, Note_on_c, 5, 66, 100
1, 659520, Note_on_c, 7, 64, 56
1, 659520, Note_on_c, 7, 69, 69
1, 659520, Note_on_c, 7, 76, 73
1, 659520, Note_on_c, 8, 57, 100
1, 659520, Note_on_c, 8, 61, 100
1, 659520, Note_on_c, 13, 42, 100
1, 659520, Note_on_c, 13, 49, 100
1, 659520, Note_on_c, 14, 68, 100
1, 659520, Note_on_c, 14, 88, 100
1, 659572, Note_off_c, 4, 71, 0
1, 659786, Note_off_c, 7, 64, 0
1, 659802, Note_on_c, 10, 64, 70
1, 659802, Note_on_c, 10, 69, 74
1, 659802, Note_on_c, 10, 76, 74
1, 659812, Note_off_c, 8, 57, 0
1, 659812, Note_off_c, 8, 61, 0
1, 659812, Note_off_c, 13, 42, 0
1, 659812, Note_off_c, 13, 49, 0
1, 659814, Note_off_c, 7, 69, 0
1, 659822, Note_off_c, 7, 76, 0
1, 659872, Note_off_c, 5, 66, 0
1, 659992, Note_off_c, 0, 54, 64
1, 659992, Note_off_c, 0, 59, 64
1, 659992, Note_off_c, 2, 66, 64
1, 659992, Note_off_c, 2, 71, 64
1, 659992, Note_off_c, 3, 64, 64
1, 659992, Note_off_c, 3, 69, 64
1, 660000, Note_on_c, 6, 64, 70
1, 660000, Note_on_c, 6, 69, 70
1, 660000, Note_on_c, 6, 76, 75
1, 660000, Note_on_c, 8, 42, 100
1, 660000, Note_on_c, 8, 49, 100
1, 660000, Note_on_c, 13, 57, 100
1, 660000, Note_on_c, 13, 61, 100
1, 660006, Note_off_c, 10, 64, 0
1, 660036, Note_off_c, 10, 76, 0
1, 660074, Note_off_c, 10, 69, 0
1, 660188, Note_off_c, 1, 66, 0
1, 660228, Note_off_c, 6, 69, 0
1, 660270, Note_off_c, 6, 64, 0
1, 660292, Note_off_c, 8, 42, 0
1, 660292, Note_off_c, 8, 49, 0
1, 660292, Note_off_c, 13, 57, 0
1, 660292, Note_off_c, 13, 61, 0
1, 660308, Note_off_c, 6, 76, 0
1, 660480, Note_on_c, 0, 56, 100
1, 660480, Note_on_c, 0, 61, 100
1, 660480, Note_on_c, 1, 59, 74
1, 660480, Note_on_c, 2, 68, 100
1, 660480, Note_on_c, 2, 73, 100
1, 660480, Note_on_c, 3, 71, 100
1, 660480, Note_on_c, 3, 76, 100
1, 660480, Note_on_c, 4, 73, 100
1, 660480, Note_on_c, 5, 68, 100
1, 660480, Note_on_c, 7, 64, 66
1, 660480, Note_on_c, 7, 69, 70
1, 660480, Note_on_c, 7, 76, 75
1, 660480, Note_on_c, 8, 57, 100
1, 660480, Note_on_c, 8, 61, 100
1, 660480, Note_on_c, 13, 42, 100
1, 660480, Note_on_c, 13, 49, 100
1, 660730, Note_off_c, 7, 69, 0
1, 660744, Note_off_c, 7, 64, 0
1, 660762, Note_on_c, 10, 64, 68
1, 660762, Note_on_c, 10, 69, 68
1, 660762, Note_on_c, 10, 76, 72
1, 660770, Note_off_c, 7, 76, 0
1, 660772, Note_off_c, 8, 57, 0
1, 660772, Note_off_c, 8, 61, 0
1, 660772, Note_off_c, 13, 42, 0
1, 660772, Note_off_c, 13, 49, 0
1, 660952, Note_off_c, 0, 56, 64
1, 660952, Note_off_c, 0, 61, 64
1, 660952, Note_off_c, 2, 68, 64
1, 660952, Note_off_c, 2, 73, 64
1, 660952, Note_off_c, 3, 71, 64
1, 660952, Note_off_c, 3, 76, 64
1, 660952, Note_off_c, 4, 73, 0
1, 660952, Note_off_c, 5, 68, 0
1, 660960, Note_on_c, 0, 57, 100
1, 660960, Note_on_c, 0, 64, 100
1, 660960, Note_on_c, 1, 69, 75
1, 660960, Note_on_c, 2, 69, 100
1, 660960, Note_on_c, 2, 76, 100
1, 660960, Note_on_c, 3, 66, 100
1, 660960, Note_on_c, 3, 69, 100
1, 660960, Note_on_c, 4, 76, 100
1, 660960, Note_on_c, 5, 69, 100
1, 660960, Note_on_c, 6, 64, 69
1, 660960, Note_on_c, 6, 69, 69
1, 660960, Note_on_c, 6, 76, 73
1, 660960, Note_on_c, 8, 42, 100
1, 660960, Note_on_c, 8, 49, 100
1, 660960, Note_on_c, 13, 57, 100
1, 660960, Note_on_c, 13, 61, 100
1, 660968, Note_off_c, 1, 59, 0
1, 660968, Note_off_c, 10, 69, 0
1, 660976, Note_off_c, 10, 64, 0
1, 660986, Note_off_c, 10, 76, 0
1, 661226, Note_off_c, 6, 64, 0
1, 661252, Note_off_c, 8, 42, 0
1, 661252, Note_off_c, 8, 49, 0
1, 661252, Note_off_c, 13, 57, 0
1, 661252, Note_off_c, 13, 61, 0
1, 661264, Note_off_c, 6, 69, 0
1, 661264, Note_off_c, 6, 76, 0
1, 661432, Note_off_c, 0, 57, 64
1, 661432, Note_off_c, 0, 64, 64
1, 661432, Note_off_c, 2, 69, 64
1, 661432, Note_off_c, 2, 76, 64
1, 661432, Note_off_c, 3, 66, 64
1, 661432, Note_off_c, 3, 69, 64
1, 661432, Note_off_c, 4, 76, 0
1, 661432, Note_off_c, 5, 69, 0
1, 661440, Note_on_c, 0, 61, 100
1, 661440, Note_on_c, 0, 68, 100
1, 661440, Note_on_c, 1, 64, 73
1, 661440, Note_on_c, 2, 73, 100
1, 661440, Note_on_c, 2, 80, 100
1, 661440, Note_on_c, 3, 73, 100
1, 661440, Note_on_c, 3, 76, 100
1, 661440, Note_on_c, 4, 80, 100
1, 661440, Note_on_c, 5, 73, 100
1, 661440, Note_on_c, 7, 64, 66
1, 661440, Note_on_c, 7, 69, 70
1, 661440, Note_on_c, 7, 76, 75
1, 661440, Note_on_c, 8, 57, 100
1, 661440, Note_on_c, 8, 61, 100
1, 661440, Note_on_c, 13, 42, 100
1, 661440, Note_on_c, 13, 49, 100
1, 661566, Note_off_c, 1, 69, 0
1, 661690, Note_off_c, 7, 69, 0
1, 661704, Note_off_c, 7, 64, 0
1, 661722, Note_on_c, 10, 64, 70
1, 661722, Note_on_c, 10, 69, 70
1, 661722, Note_on_c, 10, 76, 75
1, 661730, Note_off_c, 7, 76, 0
1, 661732, Note_off_c, 8, 57, 0
1, 661732, Note_off_c, 8, 61, 0
1, 661732, Note_off_c, 13, 42, 0
1, 661732, Note_off_c, 13, 49, 0
1, 661912, Note_off_c, 0, 61, 64
1, 661912, Note_off_c, 0, 68, 64
1, 661912, Note_off_c, 2, 73, 64
1, 661912, Note_off_c, 2, 80, 64
1, 661912, Note_off_c, 3, 73, 64
1, 661912, Note_off_c, 3, 76, 64
1, 661912, Note_off_c, 4, 80, 0
1, 661912, Note_off_c, 5, 73, 0
1, 661920, Note_on_c, 6, 64, 67
1, 661920, Note_on_c, 6, 69, 63
1, 661920, Note_on_c, 6, 76, 74
1, 661920, Note_on_c, 8, 42, 100
1, 661920, Note_on_c, 8, 49, 100
1, 661920, Note_on_c, 13, 57, 100
1, 661920, Note_on_c, 13, 61, 100
1, 661950, Note_off_c, 10, 69, 0
1, 661992, Note_off_c, 10, 64, 0
1, 662030, Note_off_c, 10, 76, 0
1, 662124, Note_off_c, 6, 69, 0
1, 662146, Note_off_c, 1, 64, 0
1, 662186, Note_off_c, 6, 64, 0
1, 662186, Note_off_c, 6, 76, 0
1, 662212, Note_off_c, 8, 42, 0
1, 662212, Note_off_c, 8, 49, 0
1, 662212, Note_off_c, 13, 57, 0
1, 662212, Note_off_c, 13, 61, 0
1, 662392, Note_off_c, 14, 68, 0
1, 662392, Note_off_c, 14, 88, 0
1, 662400, Note_on_c, 0, 59, 100
1, 662400, Note_on_c, 0, 66, 100
1, 662400, Note_on_c, 1, 66, 68
1, 662400, Note_on_c, 2, 71, 100
1, 662400, Note_on_c, 2, 78, 100
1, 662400, Note_on_c, 3, 71, 100
1, 662400, Note_on_c, 3, 76, 100
1, 662400, Note_on_c, 4, 78, 100
1, 662400, Note_on_c, 5, 71, 100
1, 662400, Note_on_c, 7, 64, 72
1, 662400, Note_on_c, 7, 69, 80
1, 662400, Note_on_c, 7, 76, 77
1, 662400, Note_on_c, 8, 59, 100
1, 662400, Note_on_c, 8, 61, 100
1, 662400, Note_on_c, 13, 44, 100
1, 662400, Note_on_c, 13, 49, 100
1, 662400, Note_on_c, 14, 69, 100
1, 662400, Note_on_c, 14, 85, 100
1, 662640, Note_off_c, 7, 76, 0
1, 662650, Note_off_c, 7, 64, 0
1, 662650, Note_off_c, 7, 69, 0
1, 662682, Note_on_c, 10, 64, 69
1, 662682, Note_on_c, 10, 69, 69
1, 662682, Note_on_c, 10, 76, 73
1, 662692, Note_off_c, 8, 59, 0
1, 662692, Note_off_c, 8, 61, 0
1, 662692, Note_off_c, 13, 44, 0
1, 662692, Note_off_c, 13, 49, 0
1, 662872, Note_off_c, 0, 59, 64
1, 662872, Note_off_c, 0, 66, 64
1, 662872, Note_off_c, 2, 71, 64
1, 662872, Note_off_c, 2, 78, 64
1, 662872, Note_off_c, 3, 71, 64
1, 662872, Note_off_c, 3, 76, 64
1, 662872, Note_off_c, 4, 78, 0
1, 662872, Note_off_c, 5, 71, 0
1, 662880, Note_on_c, 0, 56, 100
1, 662880, Note_on_c, 0, 61, 100
1, 662880, Note_on_c, 1, 61, 68
1, 662880, Note_on_c, 2, 68, 100
1, 662880, Note_on_c, 2, 73, 100
1, 662880, Note_on_c, 3, 64, 100
1, 662880, Note_on_c, 3, 69, 100
1, 662880, Note_on_c, 4, 73, 100
1, 662880, Note_on_c, 5, 68, 100
1, 662880, Note_on_c, 6, 64, 66
1, 662880, Note_on_c, 6, 69, 63
1, 662880, Note_on_c, 6, 76, 74
1, 662880, Note_on_c, 8, 44, 100
1, 662880, Note_on_c, 8, 49, 100
1, 662880, Note_on_c, 13, 59, 100
1, 662880, Note_on_c, 13, 61, 100
1, 662916, Note_off_c, 1, 66, 0
1, 662948, Note_off_c, 10, 64, 0
1, 662986, Note_off_c, 10, 69, 0
1, 662986, Note_off_c, 10, 76, 0
1, 663110, Note_off_c, 6, 69, 0
1, 663116, Note_off_c, 6, 64, 0
1, 663154, Note_off_c, 6, 76, 0
1, 663172, Note_off_c, 8, 44, 0
1, 663172, Note_off_c, 8, 49, 0
1, 663172, Note_off_c, 13, 59, 0
1, 663172, Note_off_c, 13, 61, 0
1, 663352, Note_off_c, 0, 56, 64
1, 663352, Note_off_c, 0, 61, 64
1, 663352, Note_off_c, 2, 68, 64
1, 663352, Note_off_c, 2, 73, 64
1, 663352, Note_off_c, 3, 64, 64
1, 663352, Note_off_c, 3, 69, 64
1, 663352, Note_off_c, 4, 73, 0
1, 663352, Note_off_c, 5, 68, 0
1, 663360, Note_on_c, 7, 64, 70
1, 663360, Note_on_c, 7, 69, 77
1, 663360, Note_on_c, 7, 76, 77
1, 663360, Note_on_c, 8, 59, 100
1, 663360, Note_on_c, 8, 61, 100
1, 663360, Note_on_c, 13, 44, 100
1, 663360, Note_on_c, 13, 49, 100
1, 663614, Note_off_c, 7, 64, 0
1, 663642, Note_off_c, 7, 69, 0
1, 663642, Note_on_c, 10, 64, 67
1, 663642, Note_on_c, 10, 69, 63
1, 663642, Note_on_c, 10, 76, 74
1, 663650, Note_off_c, 1, 61, 0
1, 663650, Note_off_c, 7, 76, 0
1, 663652, Note_off_c, 8, 59, 0
1, 663652, Note_off_c, 8, 61, 0
1, 663652, Note_off_c, 13, 44, 0
1, 663652, Note_off_c, 13, 49, 0
1, 663840, Note_on_c, 0, 57, 100
1, 663840, Note_on_c, 0, 64, 100
1, 663840, Note_on_c, 1, 69, 77
1, 663840, Note_on_c, 2, 69, 100
1, 663840, Note_on_c, 2, 76, 100
1, 663840, Note_on_c, 3, 71, 100
1, 663840, Note_on_c, 3, 76, 100
1, 663840, Note_on_c, 4, 76, 100
1, 663840, Note_on_c, 5, 69, 100
1, 663840, Note_on_c, 6, 64, 68
1, 663840, Note_on_c, 6, 69, 74
1, 663840, Note_on_c, 6, 76, 74
1, 663840, Note_on_c, 8, 44, 100
1, 663840, Note_on_c, 8, 49, 100
1, 663840, Note_on_c, 13, 59, 100
1, 663840, Note_on_c, 13, 61, 100
1, 663846, Note_off_c, 10, 69, 0
1, 663908, Note_off_c, 10, 64, 0
1, 663908, Note_off_c, 10, 76, 0
1, 664100, Note_off_c, 6, 69, 0
1, 664130, Note_off_c, 6, 76, 0
1, 664132, Note_off_c, 8, 44, 0
1, 664132, Note_off_c, 8, 49, 0
1, 664132, Note_off_c, 13, 59, 0
1, 664132, Note_off_c, 13, 61, 0
1, 664134, Note_off_c, 6, 64, 0
1, 664312, Note_off_c, 0, 57, 64
1, 664312, Note_off_c, 0, 64, 64
1, 664312, Note_off_c, 2, 69, 64
1, 664312, Note_off_c, 2, 76, 64
1, 664312, Note_off_c, 3, 71, 64
1, 664312, Note_off_c, 3, 76, 64
1, 664312, Note_off_c, 4, 76, 0
1, 664312, Note_off_c, 5, 69, 0
1, 664320, Note_on_c, 7, 64, 70
1, 664320, Note_on_c, 7, 69, 73
1, 664320, Note_on_c, 7, 76, 74
1, 664320, Note_on_c, 8, 59, 100
1, 664320, Note_on_c, 8, 61, 100
1, 664320, Note_on_c, 13, 44, 100
1, 664320, Note_on_c, 13, 49, 100
1, 664464, Note_off_c, 1, 69, 0
1, 664560, Note_off_c, 7, 64, 0
1, 664566, Note_off_c, 7, 69, 0
1, 664580, Note_off_c, 7, 76, 0
1, 664602, Note_on_c, 10, 64, 66
1, 664602, Note_on_c, 10, 69, 63
1, 664602, Note_on_c, 10, 76, 74
1, 664612, Note_off_c, 8, 59, 0
1, 664612, Note_off_c, 8, 61, 0
1, 664612, Note_off_c, 13, 44, 0
1, 664612, Note_off_c, 13, 49, 0
1, 664800, Note_on_c, 0, 59, 100
1, 664800, Note_on_c, 0, 66, 100
1, 664800, Note_on_c, 1, 64, 70
1, 664800, Note_on_c, 2, 71, 100
1, 664800, Note_on_c, 2, 78, 100
1, 664800, Note_on_c, 3, 73, 100
1, 664800, Note_on_c, 3, 76, 100
1, 664800, Note_on_c, 4, 78, 100
1, 664800, Note_on_c, 5, 71, 100
1, 664800, Note_on_c, 6, 64, 73
1, 664800, Note_on_c, 6, 69, 82
1, 664800, Note_on_c, 6, 76, 77
1, 664800, Note_on_c, 8, 44, 100
1, 664800, Note_on_c, 8, 49, 100
1, 664800, Note_on_c, 13, 59, 100
1, 664800, Note_on_c, 13, 61, 100
1, 664832, Note_off_c, 10, 69, 0
1, 664838, Note_off_c, 10, 64, 0
1, 664876, Note_off_c, 10, 76, 0
1, 665078, Note_off_c, 6, 69, 0
1, 665090, Note_off_c, 6, 64, 0
1, 665092, Note_off_c, 8, 44, 0
1, 665092, Note_off_c, 8, 49, 0
1, 665092, Note_off_c, 13, 59, 0
1, 665092, Note_off_c, 13, 61, 0
1, 665098, Note_off_c, 6, 76, 0
1, 665272, Note_off_c, 0, 59, 64
1, 665272, Note_off_c, 0, 66, 64
1, 665272, Note_off_c, 2, 71, 64
1, 665272, Note_off_c, 2, 78, 64
1, 665272, Note_off_c, 3, 73, 64
1, 665272, Note_off_c, 3, 76, 64
1, 665272, Note_off_c, 4, 78, 0
1, 665272, Note_off_c, 5, 71, 0
1, 665272, Note_off_c, 14, 69, 0
1, 665272, Note_off_c, 14, 85, 0
1, 665280, Note_on_c, 0, 56, 100
1, 665280, Note_on_c, 0, 61, 100
1, 665280, Note_on_c, 1, 66, 77
1, 665280, Note_on_c, 2, 68, 100
1, 665280, Note_on_c, 2, 73, 100
1, 665280, Note_on_c, 3, 64, 100
1, 665280, Note_on_c, 3, 69, 100
1, 665280, Note_on_c, 4, 73, 100
1, 665280, Note_on_c, 5, 68, 100
1, 665280, Note_on_c, 7, 64, 72
1, 665280, Note_on_c, 7, 69, 77
1, 665280, Note_on_c, 7, 76, 75
1, 665280, Note_on_c, 8, 57, 100
1, 665280, Note_on_c, 8, 61, 100
1, 665280, Note_on_c, 13, 42, 100
1, 665280, Note_on_c, 13, 49, 100
1, 665280, Note_on_c, 14, 68, 100
1, 665280, Note_on_c, 14, 83, 100
1, 665432, Note_off_c, 1, 64, 0
1, 665488, Note_off_c, 7, 69, 0
1, 665502, Note_off_c, 7, 64, 0
1, 665522, Note_off_c, 7, 76, 0
1, 665562, Note_on_c, 10, 64, 68
1, 665562, Note_on_c, 10, 69, 74
1, 665562, Note_on_c, 10, 76, 74
1, 665572, Note_off_c, 8, 57, 0
1, 665572, Note_off_c, 8, 61, 0
1, 665572, Note_off_c, 13, 42, 0
1, 665572, Note_off_c, 13, 49, 0
1, 665752, Note_off_c, 0, 56, 64
1, 665752, Note_off_c, 0, 61, 64
1, 665752, Note_off_c, 2, 68, 64
1, 665752, Note_off_c, 2, 73, 64
1, 665752, Note_off_c, 3, 64, 64
1, 665752, Note_off_c, 3, 69, 64
1, 665752, Note_off_c, 4, 73, 0
1, 665752, Note_off_c, 5, 68, 0
1, 665760, Note_on_c, 6, 64, 72
1, 665760, Note_on_c, 6, 69, 75
1, 665760, Note_on_c, 6, 76, 73
1, 665760, Note_on_c, 8, 42, 100
1, 665760, Note_on_c, 8, 49, 100
1, 665760, Note_on_c, 13, 57, 100
1, 665760, Note_on_c, 13, 61, 100
1, 665822, Note_off_c, 10, 69, 0
1, 665852, Note_off_c, 10, 76, 0
1, 665856, Note_off_c, 10, 64, 0
1, 665924, Note_off_c, 1, 66, 0
1, 666048, Note_off_c, 6, 76, 0
1, 666050, Note_off_c, 6, 69, 0
1, 666052, Note_off_c, 8, 42, 0
1, 666052, Note_off_c, 8, 49, 0
1, 666052, Note_off_c, 13, 57, 0
1, 666052, Note_off_c, 13, 61, 0
1, 666058, Note_off_c, 6, 64, 0
1, 666240, Note_on_c, 0, 56, 100
1, 666240, Note_on_c, 0, 61, 100
1, 666240, Note_on_c, 1, 59, 65
1, 666240, Note_on_c, 2, 68, 100
1, 666240, Note_on_c, 2, 73, 100
1, 666240, Note_on_c, 3, 71, 100
1, 666240, Note_on_c, 3, 76, 100
1, 666240, Note_on_c, 4, 73, 100
1, 666240, Note_on_c, 5, 68, 100
1, 666240, Note_on_c, 7, 64, 70
1, 666240, Note_on_c, 7, 69, 78
1, 666240, Note_on_c, 7, 76, 77
1, 666240, Note_on_c, 8, 57, 100
1, 666240, Note_on_c, 8, 61, 100
1, 666240, Note_on_c, 13, 42, 100
1, 666240, Note_on_c, 13, 49, 100
1, 666482, Note_off_c, 7, 64, 0
1, 666504, Note_off_c, 7, 76, 0
1, 666522, Note_on_c, 10, 64, 73
1, 666522, Note_on_c, 10, 69, 82
1, 666522, Note_on_c, 10, 76, 77
1, 666528, Note_off_c, 7, 69, 0
1, 666532, Note_off_c, 8, 57, 0
1, 666532, Note_off_c, 8, 61, 0
1, 666532, Note_off_c, 13, 42, 0
1, 666532, Note_off_c, 13, 49, 0
1, 666712, Note_off_c, 0, 56, 64
1, 666712, Note_off_c, 0, 61, 64
1, 666712, Note_off_c, 2, 68, 64
1, 666712, Note_off_c, 2, 73, 64
1, 666712, Note_off_c, 3, 71, 64
1, 666712, Note_off_c, 3, 76, 64
1, 666712, Note_off_c, 4, 73, 0
1, 666712, Note_off_c, 5, 68, 0
1, 666720, Note_on_c, 0, 57, 100
1, 666720, Note_on_c, 0, 64, 100
1, 666720, Note_on_c, 1, 69, 74
1, 666720, Note_on_c, 2, 69, 100
1, 666720, Note_on_c, 2, 76, 100
1, 666720, Note_on_c, 3, 66, 100
1, 666720, Note_on_c, 3, 69, 100
1, 666720, Note_on_c, 4, 76, 100
1, 666720, Note_on_c, 5, 69, 100
1, 666720, Note_on_c, 6, 64, 69
1, 666720, Note_on_c, 6, 69, 70
1, 666720, Note_on_c, 6, 76, 72
1, 666720, Note_on_c, 8, 42, 100
1, 666720, Note_on_c, 8, 49, 100
1, 666720, Note_on_c, 13, 57, 100
1, 666720, Note_on_c, 13, 61, 100
1, 666800, Note_off_c, 10, 69, 0
1, 666812, Note_off_c, 10, 64, 0
1, 666814, Note_off_c, 1, 59, 0
1, 666820, Note_off_c, 10, 76, 0
1, 666984, Note_off_c, 6, 69, 0
1, 667008, Note_off_c, 6, 64, 0
1, 667012, Note_off_c, 8, 42, 0
1, 667012, Note_off_c, 8, 49, 0
1, 667012, Note_off_c, 13, 57, 0
1, 667012, Note_off_c, 13, 61, 0
1, 667024, Note_off_c, 6, 76, 0
1, 667192, Note_off_c, 0, 57, 64
1, 667192, Note_off_c, 0, 64, 64
1, 667192, Note_off_c, 2, 69, 64
1, 667192, Note_off_c, 2, 76, 64
1, 667192, Note_off_c, 3, 66, 64
1, 667192, Note_off_c, 3, 69, 64
1, 667192, Note_off_c, 4, 76, 0
1, 667192, Note_off_c, 5, 69, 0
1, 667192, Note_off_c, 14, 68, 0
1, 667192, Note_off_c, 14, 83, 0
1, 667200, Note_on_c, 0, 61, 100
1, 667200, Note_on_c, 0, 68, 100
1, 667200, Note_on_c, 1, 64, 68
1, 667200, Note_on_c, 2, 73, 100
1, 667200, Note_on_c, 2, 80, 100
1, 667200, Note_on_c, 3, 73, 100
1, 667200, Note_on_c, 3, 76, 100
1, 667200, Note_on_c, 4, 80, 100
1, 667200, Note_on_c, 5, 73, 100
1, 667200, Note_on_c, 7, 64, 70
1, 667200, Note_on_c, 7, 69, 72
1, 667200, Note_on_c, 7, 76, 77
1, 667200, Note_on_c, 8, 59, 100
1, 667200, Note_on_c, 8, 61, 100
1, 667200, Note_on_c, 13, 44, 100
1, 667200, Note_on_c, 13, 49, 100
1, 667200, Note_on_c, 14, 66, 100
1, 667200, Note_on_c, 14, 81, 100
1, 667412, Note_off_c, 1, 69, 0
1, 667454, Note_off_c, 7, 64, 0
1, 667466, Note_off_c, 7, 69, 0
1, 667482, Note_on_c, 10, 64, 72
1, 667482, Note_on_c, 10, 69, 75
1, 667482, Note_on_c, 10, 76, 73
1, 667492, Note_off_c, 8, 59, 0
1, 667492, Note_off_c, 8, 61, 0
1, 667492, Note_off_c, 13, 44, 0
1, 667492, Note_off_c, 13, 49, 0
1, 667522, Note_off_c, 7, 76, 0
1, 667672, Note_off_c, 0, 61, 64
1, 667672, Note_off_c, 0, 68, 64
1, 667672, Note_off_c, 2, 73, 64
1, 667672, Note_off_c, 2, 80, 64
1, 667672, Note_off_c, 3, 73, 64
1, 667672, Note_off_c, 3, 76, 64
1, 667672, Note_off_c, 4, 80, 0
1, 667672, Note_off_c, 5, 73, 0
1, 667680, Note_on_c, 6, 64, 68
1, 667680, Note_on_c, 6, 69, 77
1, 667680, Note_on_c, 6, 76, 73
1, 667680, Note_on_c, 8, 44, 100
1, 667680, Note_on_c, 8, 49, 100
1, 667680, Note_on_c, 13, 59, 100
1, 667680, Note_on_c, 13, 61, 100
1, 667770, Note_off_c, 10, 76, 0
1, 667772, Note_off_c, 10, 69, 0
1, 667780, Note_off_c, 10, 64, 0
1, 667814, Note_off_c, 1, 64, 0
1, 667946, Note_off_c, 6, 64, 0
1, 667964, Note_off_c, 6, 69, 0
1, 667964, Note_off_c, 6, 76, 0
1, 667972, Note_off_c, 8, 44, 0
1, 667972, Note_off_c, 8, 49, 0
1, 667972, Note_off_c, 13, 59, 0
1, 667972, Note_off_c, 13, 61, 0
1, 668160, Note_on_c, 1, 66, 77
1, 668160, Note_on_c, 3, 71, 100
1, 668160, Note_on_c, 3, 76, 100
1, 668160, Note_on_c, 7, 64, 73
1, 668160, Note_on_c, 7, 69, 77
1, 668160, Note_on_c, 7, 76, 74
1, 668160, Note_on_c, 8, 59, 100
1, 668160, Note_on_c, 8, 61, 100
1, 668160, Note_on_c, 13, 44, 100
1, 668160, Note_on_c, 13, 49, 100
1, 668442, Note_on_c, 10, 64, 69
1, 668442, Note_on_c, 10, 69, 70
1, 668442, Note_on_c, 10, 76, 72
1, 668444, Note_off_c, 7, 69, 0
1, 668452, Note_off_c, 8, 59, 0
1, 668452, Note_off_c, 8, 61, 0
1, 668452, Note_off_c, 13, 44, 0
1, 668452, Note_off_c, 13, 49, 0
1, 668476, Note_off_c, 7, 76, 0
1, 668482, Note_off_c, 7, 64, 0
1, 668632, Note_off_c, 3, 71, 64
1, 668632, Note_off_c, 3, 76, 64
1, 668640, Note_on_c, 1, 61, 70
1, 668640, Note_on_c, 3, 64, 100
1, 668640, Note_on_c, 3, 69, 100
1, 668640, Note_on_c, 6, 64, 72
1, 668640, Note_on_c, 6, 69, 52
1, 668640, Note_on_c, 6, 76, 72
1, 668640, Note_on_c, 8, 44, 100
1, 668640, Note_on_c, 8, 49, 100
1, 668640, Note_on_c, 13, 59, 100
1, 668640, Note_on_c, 13, 61, 100
1, 668706, Note_off_c, 10, 69, 0
1, 668730, Note_off_c, 10, 64, 0
1, 668746, Note_off_c, 10, 76, 0
1, 668792, Note_off_c, 6, 69, 0
1, 668802, Note_off_c, 1, 66, 0
1, 668880, Note_off_c, 6, 64, 0
1, 668886, Note_off_c, 6, 76, 0
1, 668932, Note_off_c, 8, 44, 0
1, 668932, Note_off_c, 8, 49, 0
1, 668932, Note_off_c, 13, 59, 0
1, 668932, Note_off_c, 13, 61, 0
1, 669112, Note_off_c, 3, 64, 64
1, 669112, Note_off_c, 3, 69, 64
1, 669120, Note_on_c, 7, 64, 68
1, 669120, Note_on_c, 7, 69, 70
1, 669120, Note_on_c, 7, 76, 72
1, 669120, Note_on_c, 8, 59, 100
1, 669120, Note_on_c, 8, 61, 100
1, 669120, Note_on_c, 13, 44, 100
1, 669120, Note_on_c, 13, 49, 100
1, 669268, Note_off_c, 1, 61, 0
1, 669402, Note_on_c, 10, 64, 68
1, 669402, Note_on_c, 10, 69, 77
1, 669402, Note_on_c, 10, 76, 73
1, 669410, Note_off_c, 7, 69, 0
1, 669412, Note_off_c, 8, 59, 0
1, 669412, Note_off_c, 8, 61, 0
1, 669412, Note_off_c, 13, 44, 0
1, 669412, Note_off_c, 13, 49, 0
1, 669428, Note_off_c, 7, 76, 0
1, 669434, Note_off_c, 7, 64, 0
1, 669600, Note_on_c, 1, 69, 77
1, 669600, Note_on_c, 3, 71, 100
1, 669600, Note_on_c, 3, 76, 100
1, 669600, Note_on_c, 6, 64, 68
1, 669600, Note_on_c, 6, 69, 70
1, 669600, Note_on_c, 6, 76, 74
1, 669600, Note_on_c, 8, 44, 100
1, 669600, Note_on_c, 8, 49, 100
1, 669600, Note_on_c, 13, 59, 100
1, 669600, Note_on_c, 13, 61, 100
1, 669668, Note_off_c, 10, 64, 0
1, 669686, Note_off_c, 10, 69, 0
1, 669686, Note_off_c, 10, 76, 0
1, 669832, Note_off_c, 6, 69, 0
1, 669842, Note_off_c, 6, 64, 0
1, 669850, Note_off_c, 6, 76, 0
1, 669892, Note_off_c, 8, 44, 0
1, 669892, Note_off_c, 8, 49, 0
1, 669892, Note_off_c, 13, 59, 0
1, 669892, Note_off_c, 13, 61, 0
1, 670072, Note_off_c, 3, 71, 64
1, 670072, Note_off_c, 3, 76, 64
1, 670080, Note_on_c, 7, 64, 68
1, 670080, Note_on_c, 7, 69, 70
1, 670080, Note_on_c, 7, 76, 73
1, 670080, Note_on_c, 8, 59, 100
1, 670080, Note_on_c, 8, 61, 100
1, 670080, Note_on_c, 13, 44, 100
1, 670080, Note_on_c, 13, 49, 100
1, 670248, Note_off_c, 1, 69, 0
1, 670328, Note_off_c, 7, 64, 0
1, 670342, Note_off_c, 7, 69, 0
1, 670342, Note_off_c, 7, 76, 0
1, 670362, Note_on_c, 10, 64, 72
1, 670362, Note_on_c, 10, 69, 52
1, 670362, Note_on_c, 10, 76, 72
1, 670372, Note_off_c, 8, 59, 0
1, 670372, Note_off_c, 8, 61, 0
1, 670372, Note_off_c, 13, 44, 0
1, 670372, Note_off_c, 13, 49, 0
1, 670514, Note_off_c, 10, 69, 0
1, 670560, Note_on_c, 1, 64, 68
1, 670560, Note_on_c, 3, 73, 100
1, 670560, Note_on_c, 3, 76, 100
1, 670560, Note_on_c, 6, 64, 68
1, 670560, Note_on_c, 6, 69, 69
1, 670560, Note_on_c, 6, 76, 72
1, 670560, Note_on_c, 8, 44, 100
1, 670560, Note_on_c, 8, 49, 100
1, 670560, Note_on_c, 13, 59, 100
1, 670560, Note_on_c, 13, 61, 100
1, 670602, Note_off_c, 10, 64, 0
1, 670608, Note_off_c, 10, 76, 0
1, 670776, Note_off_c, 6, 76, 0
1, 670778, Note_off_c, 6, 69, 0
1, 670792, Note_off_c, 6, 64, 0
1, 670852, Note_off_c, 8, 44, 0
1, 670852, Note_off_c, 8, 49, 0
1, 670852, Note_off_c, 13, 59, 0
1, 670852, Note_off_c, 13, 61, 0
1, 671004, Note_off_c, 1, 64, 0
1, 671032, Note_off_c, 3, 73, 64
1, 671032, Note_off_c, 3, 76, 64
1, 671032, Note_off_c, 14, 66, 0
1, 671032, Note_off_c, 14, 81, 0
1, 671040, Note_on_c, 0, 54, 100
1, 671040, Note_on_c, 0, 59, 100
1, 671040, Note_on_c, 1, 66, 78
1, 671040, Note_on_c, 2, 66, 100
1, 671040, Note_on_c, 2, 71, 100
1, 671040, Note_on_c, 3, 64, 100
1, 671040, Note_on_c, 3, 69, 100
1, 671040, Note_on_c, 4, 71, 100
1, 671040, Note_on_c, 5, 66, 100
1, 671040, Note_on_c, 7, 64, 70
1, 671040, Note_on_c, 7, 69, 83
1, 671040, Note_on_c, 7, 76, 74
1, 671040, Note_on_c, 8, 57, 100
1, 671040, Note_on_c, 8, 61, 100
1, 671040, Note_on_c, 13, 49, 100
1, 671040, Note_on_c, 13, 54, 100
1, 671040, Note_on_c, 14, 69, 100
1, 671040, Note_on_c, 14, 78, 100
1, 671092, Note_off_c, 4, 71, 0
1, 671280, Note_off_c, 7, 64, 0
1, 671280, Note_off_c, 7, 76, 0
1, 671290, Note_off_c, 7, 69, 0
1, 671322, Note_on_c, 10, 64, 68
1, 671322, Note_on_c, 10, 69, 70
1, 671322, Note_on_c, 10, 76, 74
1, 671332, Note_off_c, 8, 57, 0
1, 671332, Note_off_c, 8, 61, 0
1, 671332, Note_off_c, 13, 49, 0
1, 671332, Note_off_c, 13, 54, 0
1, 671392, Note_off_c, 5, 66, 0
1, 671512, Note_off_c, 0, 54, 64
1, 671512, Note_off_c, 0, 59, 64
1, 671512, Note_off_c, 2, 66, 64
1, 671512, Note_off_c, 2, 71, 64
1, 671512, Note_off_c, 3, 64, 64
1, 671512, Note_off_c, 3, 69, 64
1, 671520, Note_on_c, 6, 64, 67
1, 671520, Note_on_c, 6, 69, 67
1, 671520, Note_on_c, 6, 76, 72
1, 671520, Note_on_c, 8, 49, 100
1, 671520, Note_on_c, 8, 54, 100
1, 671520, Note_on_c, 13, 57, 100
1, 671520, Note_on_c, 13, 61, 100
1, 671554, Note_off_c, 10, 69, 0
1, 671564, Note_off_c, 10, 64, 0
1, 671572, Note_off_c, 10, 76, 0
1, 671708, Note_off_c, 1, 66, 0
1, 671766, Note_off_c, 6, 64, 0
1, 671770, Note_off_c, 6, 69, 0
1, 671786, Note_off_c, 6, 76, 0
1, 671812, Note_off_c, 8, 49, 0
1, 671812, Note_off_c, 8, 54, 0
1, 671812, Note_off_c, 13, 57, 0
1, 671812, Note_off_c, 13, 61, 0
1, 672000, Note_on_c, 0, 56, 95
1, 672000, Note_on_c, 0, 59, 95
1, 672000, Note_on_c, 1, 59, 74
1, 672000, Note_on_c, 2, 68, 88
1, 672000, Note_on_c, 2, 71, 88
1, 672000, Note_on_c, 3, 71, 100
1, 672000, Note_on_c, 3, 76, 100
1, 672000, Note_on_c, 4, 71, 77
1, 672000, Note_on_c, 5, 68, 92
1, 672000, Note_on_c, 7, 64, 67
1, 672000, Note_on_c, 7, 69, 78
1, 672000, Note_on_c, 7, 76, 73
1, 672000, Note_on_c, 8, 57, 100
1, 672000, Note_on_c, 8, 61, 100
1, 672000, Note_on_c, 13, 49, 96
1, 672000, Note_on_c, 13, 54, 96
1, 672232, Note_off_c, 8, 57, 0
1, 672232, Note_off_c, 8, 61, 0
1, 672232, Note_off_c, 13, 49, 0
1, 672232, Note_off_c, 13, 54, 0
1, 672250, Note_off_c, 7, 76, 0
1, 672256, Note_off_c, 7, 69, 0
1, 672264, Note_off_c, 7, 64, 0
1, 672282, Note_on_c, 10, 64, 68
1, 672282, Note_on_c, 10, 69, 69
1, 672282, Note_on_c, 10, 76, 72
1, 672472, Note_off_c, 0, 56, 64
1, 672472, Note_off_c, 0, 59, 64
1, 672472, Note_off_c, 2, 68, 64
1, 672472, Note_off_c, 2, 71, 64
1, 672472, Note_off_c, 3, 71, 64
1, 672472, Note_off_c, 3, 76, 64
1, 672472, Note_off_c, 4, 71, 0
1, 672472, Note_off_c, 5, 68, 0
1, 672480, Note_on_c, 0, 54, 92
1, 672480, Note_on_c, 0, 57, 92
1, 672480, Note_on_c, 1, 69, 75
1, 672480, Note_on_c, 2, 66, 85
1, 672480, Note_on_c, 2, 69, 85
1, 672480, Note_on_c, 3, 66, 100
1, 672480, Note_on_c, 3, 69, 100
1, 672480, Note_on_c, 4, 69, 77
1, 672480, Note_on_c, 5, 66, 89
1, 672480, Note_on_c, 6, 64, 67
1, 672480, Note_on_c, 6, 69, 63
1, 672480, Note_on_c, 6, 76, 72
1, 672480, Note_on_c, 8, 49, 99
1, 672480, Note_on_c, 8, 54, 99
1, 672480, Note_on_c, 13, 57, 95
1, 672480, Note_on_c, 13, 61, 95
1, 672488, Note_off_c, 1, 59, 0
1, 672498, Note_off_c, 10, 76, 0
1, 672500, Note_off_c, 10, 69, 0
1, 672514, Note_off_c, 10, 64, 0
1, 672712, Note_off_c, 8, 49, 0
1, 672712, Note_off_c, 8, 54, 0
1, 672712, Note_off_c, 13, 57, 0
1, 672712, Note_off_c, 13, 61, 0
1, 672728, Note_off_c, 6, 69, 0
1, 672756, Note_off_c, 6, 64, 0
1, 672772, Note_off_c, 6, 76, 0
1, 672952, Note_off_c, 0, 54, 64
1, 672952, Note_off_c, 0, 57, 64
1, 672952, Note_off_c, 2, 66, 64
1, 672952, Note_off_c, 2, 69, 64
1, 672952, Note_off_c, 3, 66, 64
1, 672952, Note_off_c, 3, 69, 64
1, 672952, Note_off_c, 4, 69, 0
1, 672952, Note_off_c, 5, 66, 0
1, 672960, Note_on_c, 0, 57, 90
1, 672960, Note_on_c, 0, 61, 90
1, 672960, Note_on_c, 1, 64, 73
1, 672960, Note_on_c, 2, 69, 82
1, 672960, Note_on_c, 2, 73, 82
1, 672960, Note_on_c, 3, 73, 100
1, 672960, Note_on_c, 3, 76, 100
1, 672960, Note_on_c, 4, 73, 75
1, 672960, Note_on_c, 5, 69, 86
1, 672960, Note_on_c, 7, 64, 69
1, 672960, Note_on_c, 7, 69, 70
1, 672960, Note_on_c, 7, 76, 73
1, 672960, Note_on_c, 8, 59, 97
1, 672960, Note_on_c, 8, 61, 97
1, 672960, Note_on_c, 13, 49, 92
1, 672960, Note_on_c, 13, 56, 92
1, 673086, Note_off_c, 1, 69, 0
1, 673180, Note_off_c, 7, 69, 0
1, 673192, Note_off_c, 8, 59, 0
1, 673192, Note_off_c, 8, 61, 0
1, 673192, Note_off_c, 13, 49, 0
1, 673192, Note_off_c, 13, 56, 0
1, 673202, Note_off_c, 7, 76, 0
1, 673212, Note_off_c, 7, 64, 0
1, 673242, Note_on_c, 10, 64, 67
1, 673242, Note_on_c, 10, 69, 67
1, 673242, Note_on_c, 10, 76, 72
1, 673432, Note_off_c, 0, 57, 64
1, 673432, Note_off_c, 0, 61, 64
1, 673432, Note_off_c, 2, 69, 64
1, 673432, Note_off_c, 2, 73, 64
1, 673432, Note_off_c, 3, 73, 64
1, 673432, Note_off_c, 3, 76, 64
1, 673432, Note_off_c, 4, 73, 0
1, 673432, Note_off_c, 5, 69, 0
1, 673440, Note_on_c, 6, 64, 68
1, 673440, Note_on_c, 6, 69, 66
1, 673440, Note_on_c, 6, 76, 70
1, 673440, Note_on_c, 8, 49, 94
1, 673440, Note_on_c, 8, 56, 94
1, 673440, Note_on_c, 13, 59, 91
1, 673440, Note_on_c, 13, 61, 91
1, 673488, Note_off_c, 10, 64, 0
1, 673492, Note_off_c, 10, 69, 0
1, 673508, Note_off_c, 10, 76, 0
1, 673636, Note_off_c, 6, 69, 0
1, 673660, Note_off_c, 6, 64, 0
1, 673666, Note_off_c, 1, 64, 0
1, 673672, Note_off_c, 8, 49, 0
1, 673672, Note_off_c, 8, 56, 0
1, 673672, Note_off_c, 13, 59, 0
1, 673672, Note_off_c, 13, 61, 0
1, 673678, Note_off_c, 6, 76, 0
1, 673920, Note_on_c, 1, 66, 68
1, 673920, Note_on_c, 3, 71, 100
1, 673920, Note_on_c, 3, 76, 100
1, 673920, Note_on_c, 7, 64, 69
1, 673920, Note_on_c, 7, 69, 75
1, 673920, Note_on_c, 7, 76, 73
1, 673920, Note_on_c, 8, 59, 93
1, 673920, Note_on_c, 8, 61, 93
1, 673920, Note_on_c, 13, 49, 89
1, 673920, Note_on_c, 13, 56, 89
1, 674134, Note_off_c, 7, 69, 0
1, 674150, Note_off_c, 7, 64, 0
1, 674152, Note_off_c, 8, 59, 0
1, 674152, Note_off_c, 8, 61, 0
1, 674152, Note_off_c, 13, 49, 0
1, 674152, Note_off_c, 13, 56, 0
1, 674164, Note_off_c, 7, 76, 0
1, 674202, Note_on_c, 10, 64, 67
1, 674202, Note_on_c, 10, 69, 63
1, 674202, Note_on_c, 10, 76, 72
1, 674392, Note_off_c, 3, 71, 64
1, 674392, Note_off_c, 3, 76, 64
1, 674400, Note_on_c, 1, 61, 68
1, 674400, Note_on_c, 3, 64, 100
1, 674400, Note_on_c, 3, 69, 100
1, 674400, Note_on_c, 6, 64, 68
1, 674400, Note_on_c, 6, 69, 63
1, 674400, Note_on_c, 6, 76, 72
1, 674400, Note_on_c, 8, 49, 90
1, 674400, Note_on_c, 8, 56, 90
1, 674400, Note_on_c, 13, 59, 87
1, 674400, Note_on_c, 13, 61, 87
1, 674436, Note_off_c, 1, 66, 0
1, 674450, Note_off_c, 10, 69, 0
1, 674478, Note_off_c, 10, 64, 0
1, 674494, Note_off_c, 10, 76, 0
1, 674610, Note_off_c, 6, 64, 0
1, 674632, Note_off_c, 8, 49, 0
1, 674632, Note_off_c, 8, 56, 0
1, 674632, Note_off_c, 13, 59, 0
1, 674632, Note_off_c, 13, 61, 0
1, 674644, Note_off_c, 6, 76, 0
1, 674662, Note_off_c, 6, 69, 0
1, 674872, Note_off_c, 3, 64, 64
1, 674872, Note_off_c, 3, 69, 64
1, 674880, Note_on_c, 7, 64, 68
1, 674880, Note_on_c, 7, 69, 74
1, 674880, Note_on_c, 7, 76, 74
1, 674880, Note_on_c, 8, 59, 89
1, 674880, Note_on_c, 8, 61, 89
1, 674880, Note_on_c, 13, 49, 85
1, 674880, Note_on_c, 13, 56, 85
1, 675104, Note_off_c, 7, 69, 0
1, 675112, Note_off_c, 8, 59, 0
1, 675112, Note_off_c, 8, 61, 0
1, 675112, Note_off_c, 13, 49, 0
1, 675112, Note_off_c, 13, 56, 0
1, 675144, Note_off_c, 7, 64, 0
1, 675154, Note_off_c, 7, 76, 0
1, 675162, Note_on_c, 10, 64, 68
1, 675162, Note_on_c, 10, 69, 66
1, 675162, Note_on_c, 10, 76, 70
1, 675170, Note_off_c, 1, 61, 0
1, 675358, Note_off_c, 10, 69, 0
1, 675360, Note_on_c, 1, 69, 77
1, 675360, Note_on_c, 3, 71, 100
1, 675360, Note_on_c, 3, 76, 100
1, 675360, Note_on_c, 6, 64, 70
1, 675360, Note_on_c, 6, 69, 69
1, 675360, Note_on_c, 6, 76, 72
1, 675360, Note_on_c, 8, 49, 86
1, 675360, Note_on_c, 8, 56, 86
1, 675360, Note_on_c, 13, 59, 82
1, 675360, Note_on_c, 13, 61, 82
1, 675382, Note_off_c, 10, 64, 0
1, 675400, Note_off_c, 10, 76, 0
1, 675592, Note_off_c, 8, 49, 0
1, 675592, Note_off_c, 8, 56, 0
1, 675592, Note_off_c, 13, 59, 0
1, 675592, Note_off_c, 13, 61, 0
1, 675594, Note_off_c, 6, 69, 0
1, 675622, Note_off_c, 6, 64, 0
1, 675622, Note_off_c, 6, 76, 0
1, 675832, Note_off_c, 3, 71, 64
1, 675832, Note_off_c, 3, 76, 64
1, 675840, Note_on_c, 7, 64, 68
1, 675840, Note_on_c, 7, 69, 73
1, 675840, Note_on_c, 7, 76, 73
1, 675840, Note_on_c, 8, 59, 84
1, 675840, Note_on_c, 8, 61, 84
1, 675840, Note_on_c, 13, 49, 81
1, 675840, Note_on_c, 13, 56, 81
1, 675984, Note_off_c, 1, 69, 0
1, 676064, Note_off_c, 7, 64, 0
1, 676072, Note_off_c, 8, 59, 0
1, 676072, Note_off_c, 8, 61, 0
1, 676072, Note_off_c, 13, 49, 0
1, 676072, Note_off_c, 13, 56, 0
1, 676088, Note_off_c, 7, 69, 0
1, 676088, Note_off_c, 7, 76, 0
1, 676122, Note_on_c, 10, 64, 68
1, 676122, Note_on_c, 10, 69, 63
1, 676122, Note_on_c, 10, 76, 72
1, 676320, Note_on_c, 1, 64, 70
1, 676320, Note_on_c, 3, 73, 100
1, 676320, Note_on_c, 3, 76, 100
1, 676320, Note_on_c, 6, 64, 68
1, 676320, Note_on_c, 6, 69, 70
1, 676320, Note_on_c, 6, 76, 70
1, 676320, Note_on_c, 8, 49, 81
1, 676320, Note_on_c, 8, 56, 81
1, 676320, Note_on_c, 13, 59, 78
1, 676320, Note_on_c, 13, 61, 78
1, 676332, Note_off_c, 10, 64, 0
1, 676366, Note_off_c, 10, 76, 0
1, 676384, Note_off_c, 10, 69, 0
1, 676528, Note_off_c, 6, 64, 0
1, 676552, Note_off_c, 8, 49, 0
1, 676552, Note_off_c, 8, 56, 0
1, 676552, Note_off_c, 13, 59, 0
1, 676552, Note_off_c, 13, 61, 0
1, 676556, Note_off_c, 6, 69, 0
1, 676560, Note_off_c, 6, 76, 0
1, 676792, Note_off_c, 3, 73, 64
1, 676792, Note_off_c, 3, 76, 64
1, 676800, Note_on_c, 0, 54, 65
1, 676800, Note_on_c, 0, 57, 65
1, 676800, Note_on_c, 1, 66, 77
1, 676800, Note_on_c, 2, 66, 52
1, 676800, Note_on_c, 2, 69, 52
1, 676800, Note_on_c, 3, 64, 100
1, 676800, Note_on_c, 3, 69, 100
1, 676800, Note_on_c, 4, 69, 54
1, 676800, Note_on_c, 5, 66, 63
1, 676800, Note_on_c, 7, 64, 66
1, 676800, Note_on_c, 7, 69, 74
1, 676800, Note_on_c, 7, 76, 73
1, 676800, Note_on_c, 8, 57, 80
1, 676800, Note_on_c, 8, 61, 80
1, 676800, Note_on_c, 13, 49, 77
1, 676800, Note_on_c, 13, 54, 77
1, 676952, Note_off_c, 1, 64, 0
1, 677032, Note_off_c, 8, 57, 0
1, 677032, Note_off_c, 8, 61, 0
1, 677032, Note_off_c, 13, 49, 0
1, 677032, Note_off_c, 13, 54, 0
1, 677034, Note_off_c, 7, 64, 0
1, 677054, Note_off_c, 7, 76, 0
1, 677082, Note_off_c, 7, 69, 0
1, 677082, Note_on_c, 10, 64, 70
1, 677082, Note_on_c, 10, 69, 69
1, 677082, Note_on_c, 10, 76, 72
1, 677272, Note_off_c, 0, 54, 64
1, 677272, Note_off_c, 0, 57, 64
1, 677272, Note_off_c, 2, 66, 64
1, 677272, Note_off_c, 2, 69, 64
1, 677272, Note_off_c, 3, 64, 64
1, 677272, Note_off_c, 3, 69, 64
1, 677272, Note_off_c, 4, 69, 0
1, 677272, Note_off_c, 5, 66, 0
1, 677280, Note_on_c, 6, 64, 67
1, 677280, Note_on_c, 6, 69, 73
1, 677280, Note_on_c, 6, 76, 74
1, 677280, Note_on_c, 8, 49, 78
1, 677280, Note_on_c, 8, 54, 78
1, 677280, Note_on_c, 13, 57, 74
1, 677280, Note_on_c, 13, 61, 74
1, 677316, Note_off_c, 10, 69, 0
1, 677344, Note_off_c, 10, 64, 0
1, 677344, Note_off_c, 10, 76, 0
1, 677444, Note_off_c, 1, 66, 0
1, 677496, Note_off_c, 6, 64, 0
1, 677512, Note_off_c, 8, 49, 0
1, 677512, Note_off_c, 8, 54, 0
1, 677512, Note_off_c, 13, 57, 0
1, 677512, Note_off_c, 13, 61, 0
1, 677516, Note_off_c, 6, 76, 0
1, 677526, Note_off_c, 6, 69, 0
1, 677760, Note_on_c, 0, 56, 61
1, 677760, Note_on_c, 0, 59, 61
1, 677760, Note_on_c, 1, 59, 65
1, 677760, Note_on_c, 2, 68, 44
1, 677760, Note_on_c, 2, 71, 44
1, 677760, Note_on_c, 3, 71, 100
1, 677760, Note_on_c, 3, 76, 100
1, 677760, Note_on_c, 4, 71, 49
1, 677760, Note_on_c, 5, 68, 57
1, 677760, Note_on_c, 7, 64, 66
1, 677760, Note_on_c, 7, 69, 77
1, 677760, Note_on_c, 7, 76, 70
1, 677760, Note_on_c, 8, 57, 75
1, 677760, Note_on_c, 8, 61, 75
1, 677760, Note_on_c, 13, 49, 72
1, 677760, Note_on_c, 13, 54, 72
1, 677988, Note_off_c, 7, 64, 0
1, 677992, Note_off_c, 8, 57, 0
1, 677992, Note_off_c, 8, 61, 0
1, 677992, Note_off_c, 13, 49, 0
1, 677992, Note_off_c, 13, 54, 0
1, 678042, Note_on_c, 10, 64, 68
1, 678042, Note_on_c, 10, 69, 70
1, 678042, Note_on_c, 10, 76, 70
1, 678046, Note_off_c, 7, 69, 0
1, 678070, Note_off_c, 7, 76, 0
1, 678232, Note_off_c, 0, 56, 64
1, 678232, Note_off_c, 0, 59, 64
1, 678232, Note_off_c, 2, 68, 64
1, 678232, Note_off_c, 2, 71, 64
1, 678232, Note_off_c, 3, 71, 64
1, 678232, Note_off_c, 3, 76, 64
1, 678232, Note_off_c, 4, 71, 0
1, 678232, Note_off_c, 5, 68, 0
1, 678240, Note_on_c, 0, 54, 56
1, 678240, Note_on_c, 0, 57, 56
1, 678240, Note_on_c, 1, 69, 74
1, 678240, Note_on_c, 2, 66, 41
1, 678240, Note_on_c, 2, 69, 41
1, 678240, Note_on_c, 3, 66, 100
1, 678240, Note_on_c, 3, 69, 100
1, 678240, Note_on_c, 4, 69, 49
1, 678240, Note_on_c, 5, 66, 54
1, 678240, Note_on_c, 6, 64, 68
1, 678240, Note_on_c, 6, 69, 74
1, 678240, Note_on_c, 6, 76, 75
1, 678240, Note_on_c, 8, 49, 74
1, 678240, Note_on_c, 8, 54, 74
1, 678240, Note_on_c, 13, 57, 70
1, 678240, Note_on_c, 13, 61, 70
1, 678250, Note_off_c, 10, 64, 0
1, 678278, Note_off_c, 10, 69, 0
1, 678282, Note_off_c, 10, 76, 0
1, 678334, Note_off_c, 1, 59, 0
1, 678472, Note_off_c, 8, 49, 0
1, 678472, Note_off_c, 8, 54, 0
1, 678472, Note_off_c, 13, 57, 0
1, 678472, Note_off_c, 13, 61, 0
1, 678512, Note_off_c, 6, 69, 0
1, 678516, Note_off_c, 6, 64, 0
1, 678530, Note_off_c, 6, 76, 0
1, 678712, Note_off_c, 0, 54, 64
1, 678712, Note_off_c, 0, 57, 64
1, 678712, Note_off_c, 2, 66, 64
1, 678712, Note_off_c, 2, 69, 64
1, 678712, Note_off_c, 3, 66, 64
1, 678712, Note_off_c, 3, 69, 64
1, 678712, Note_off_c, 4, 69, 0
1, 678712, Note_off_c, 5, 66, 0
1, 678720, Note_on_c, 0, 57, 54
1, 678720, Note_on_c, 0, 61, 54
1, 678720, Note_on_c, 1, 64, 68
1, 678720, Note_on_c, 2, 69, 37
1, 678720, Note_on_c, 2, 73, 37
1, 678720, Note_on_c, 3, 73, 100
1, 678720, Note_on_c, 3, 76, 100
1, 678720, Note_on_c, 4, 73, 46
1, 678720, Note_on_c, 5, 69, 51
1, 678720, Note_on_c, 7, 64, 65
1, 678720, Note_on_c, 7, 69, 72
1, 678720, Note_on_c, 7, 76, 72
1, 678720, Note_on_c, 8, 59, 71
1, 678720, Note_on_c, 8, 61, 71
1, 678720, Note_on_c, 13, 49, 68
1, 678720, Note_on_c, 13, 56, 68
1, 678932, Note_off_c, 1, 69, 0
1, 678952, Note_off_c, 8, 59, 0
1, 678952, Note_off_c, 8, 61, 0
1, 678952, Note_off_c, 13, 49, 0
1, 678952, Note_off_c, 13, 56, 0
1, 678996, Note_off_c, 7, 64, 0
1, 679002, Note_on_c, 10, 64, 67
1, 679002, Note_on_c, 10, 69, 73
1, 679002, Note_on_c, 10, 76, 74
1, 679010, Note_off_c, 7, 69, 0
1, 679012, Note_off_c, 7, 76, 0
1, 679192, Note_off_c, 0, 57, 64
1, 679192, Note_off_c, 0, 61, 64
1, 679192, Note_off_c, 2, 69, 64
1, 679192, Note_off_c, 2, 73, 64
1, 679192, Note_off_c, 3, 73, 64
1, 679192, Note_off_c, 3, 76, 64
1, 679192, Note_off_c, 4, 73, 0
1, 679192, Note_off_c, 5, 69, 0
1, 679200, Note_on_c, 6, 64, 73
1, 679200, Note_on_c, 6, 69, 80
1, 679200, Note_on_c, 6, 76, 77
1, 679200, Note_on_c, 8, 49, 70
1, 679200, Note_on_c, 8, 56, 70
1, 679200, Note_on_c, 13, 59, 66
1, 679200, Note_on_c, 13, 61, 66
1, 679218, Note_off_c, 10, 64, 0
1, 679238, Note_off_c, 10, 76, 0
1, 679248, Note_off_c, 10, 69, 0
1, 679334, Note_off_c, 1, 64, 0
1, 679432, Note_off_c, 8, 49, 0
1, 679432, Note_off_c, 8, 56, 0
1, 679432, Note_off_c, 13, 59, 0
1, 679432, Note_off_c, 13, 61, 0
1, 679462, Note_off_c, 6, 64, 0
1, 679478, Note_off_c, 6, 69, 0
1, 679488, Note_off_c, 6, 76, 0
1, 679680, Note_on_c, 1, 66, 77
1, 679680, Note_on_c, 3, 71, 100
1, 679680, Note_on_c, 3, 76, 100
1, 679680, Note_on_c, 7, 64, 67
1, 679680, Note_on_c, 7, 69, 75
1, 679680, Note_on_c, 7, 76, 70
1, 679680, Note_on_c, 8, 59, 67
1, 679680, Note_on_c, 8, 61, 67
1, 679680, Note_on_c, 13, 49, 64
1, 679680, Note_on_c, 13, 56, 64
1, 679910, Note_off_c, 7, 69, 0
1, 679912, Note_off_c, 8, 59, 0
1, 679912, Note_off_c, 8, 61, 0
1, 679912, Note_off_c, 13, 49, 0
1, 679912, Note_off_c, 13, 56, 0
1, 679928, Note_off_c, 7, 64, 0
1, 679938, Note_off_c, 7, 76, 0
1, 679962, Note_on_c, 10, 64, 68
1, 679962, Note_on_c, 10, 69, 74
1, 679962, Note_on_c, 10, 76, 75
1, 680152, Note_off_c, 3, 71, 64
1, 680152, Note_off_c, 3, 76, 64
1, 680160, Note_on_c, 1, 61, 70
1, 680160, Note_on_c, 3, 64, 100
1, 680160, Note_on_c, 3, 69, 100
1, 680160, Note_on_c, 6, 64, 68
1, 680160, Note_on_c, 6, 69, 70
1, 680160, Note_on_c, 6, 76, 74
1, 680160, Note_on_c, 8, 49, 65
1, 680160, Note_on_c, 8, 56, 65
1, 680160, Note_on_c, 13, 59, 62
1, 680160, Note_on_c, 13, 61, 62
1, 680234, Note_off_c, 10, 69, 0
1, 680238, Note_off_c, 10, 64, 0
1, 680252, Note_off_c, 10, 76, 0
1, 680322, Note_off_c, 1, 66, 0
1, 680392, Note_off_c, 8, 49, 0
1, 680392, Note_off_c, 8, 56, 0
1, 680392, Note_off_c, 13, 59, 0
1, 680392, Note_off_c, 13, 61, 0
1, 680446, Note_off_c, 6, 64, 0
1, 680458, Note_off_c, 6, 69, 0
1, 680458, Note_off_c, 6, 76, 0
1, 680632, Note_off_c, 3, 64, 64
1, 680632, Note_off_c, 3, 69, 64
1, 680632, Note_off_c, 14, 69, 0
1, 680632, Note_off_c, 14, 78, 0
1, 680640, Note_on_c, 7, 64, 66
1, 680640, Note_on_c, 7, 69, 68
1, 680640, Note_on_c, 7, 76, 72
1, 680640, Note_on_c, 8, 59, 62
1, 680640, Note_on_c, 8, 61, 62
1, 680640, Note_on_c, 13, 49, 60
1, 680640, Note_on_c, 13, 56, 60
1, 680788, Note_off_c, 1, 61, 0
1, 680872, Note_off_c, 8, 59, 0
1, 680872, Note_off_c, 8, 61, 0
1, 680872, Note_off_c, 13, 49, 0
1, 680872, Note_off_c, 13, 56, 0
1, 680900, Note_off_c, 7, 69, 0
1, 680910, Note_off_c, 7, 64, 0
1, 680914, Note_off_c, 7, 76, 0
1, 680922, Note_on_c, 10, 64, 73
1, 680922, Note_on_c, 10, 69, 80
1, 680922, Note_on_c, 10, 76, 77
1, 681120, Note_on_c, 1, 69, 77
1, 681120, Note_on_c, 3, 71, 100
1, 681120, Note_on_c, 3, 76, 100
1, 681120, Note_on_c, 6, 64, 70
1, 681120, Note_on_c, 6, 69, 74
1, 681120, Note_on_c, 6, 76, 74
1, 681120, Note_on_c, 8, 49, 61
1, 681120, Note_on_c, 8, 56, 61
1, 681120, Note_on_c, 13, 59, 57
1, 681120, Note_on_c, 13, 61, 57
1, 681184, Note_off_c, 10, 64, 0
1, 681200, Note_off_c, 10, 69, 0
1, 681210, Note_off_c, 10, 76, 0
1, 681324, Note_off_c, 6, 64, 0
1, 681352, Note_off_c, 8, 49, 0
1, 681352, Note_off_c, 8, 56, 0
1, 681352, Note_off_c, 13, 59, 0
1, 681352, Note_off_c, 13, 61, 0
1, 681354, Note_off_c, 6, 76, 0
1, 681392, Note_off_c, 6, 69, 0
1, 681592, Note_off_c, 3, 71, 64
1, 681592, Note_off_c, 3, 76, 64
1, 681600, Note_on_c, 7, 64, 62
1, 681600, Note_on_c, 7, 69, 60
1, 681600, Note_on_c, 7, 76, 70
1, 681600, Note_on_c, 8, 59, 59
1, 681600, Note_on_c, 8, 61, 59
1, 681600, Note_on_c, 13, 49, 56
1, 681600, Note_on_c, 13, 56, 56
1, 681768, Note_off_c, 1, 69, 0
1, 681832, Note_off_c, 8, 59, 0
1, 681832, Note_off_c, 8, 61, 0
1, 681832, Note_off_c, 13, 49, 0
1, 681832, Note_off_c, 13, 56, 0
1, 681860, Note_off_c, 7, 69, 0
1, 681878, Note_off_c, 7, 64, 0
1, 681882, Note_on_c, 10, 64, 68
1, 681882, Note_on_c, 10, 69, 70
1, 681882, Note_on_c, 10, 76, 74
1, 681938, Note_off_c, 7, 76, 0
1, 682080, Note_on_c, 1, 64, 68
1, 682080, Note_on_c, 3, 73, 100
1, 682080, Note_on_c, 3, 76, 100
1, 682080, Note_on_c, 6, 64, 68
1, 682080, Note_on_c, 6, 69, 68
1, 682080, Note_on_c, 6, 76, 72
1, 682080, Note_on_c, 8, 49, 56
1, 682080, Note_on_c, 8, 56, 56
1, 682080, Note_on_c, 13, 59, 53
1, 682080, Note_on_c, 13, 61, 53
1, 682168, Note_off_c, 10, 64, 0
1, 682180, Note_off_c, 10, 69, 0
1, 682180, Note_off_c, 10, 76, 0
1, 682286, Note_off_c, 6, 69, 0
1, 682294, Note_off_c, 6, 64, 0
1, 682304, Note_off_c, 6, 76, 0
1, 682312, Note_off_c, 8, 49, 0
1, 682312, Note_off_c, 8, 56, 0
1, 682312, Note_off_c, 13, 59, 0
1, 682312, Note_off_c, 13, 61, 0
1, 682524, Note_off_c, 1, 64, 0
1, 682552, Note_off_c, 3, 73, 64
1, 682552, Note_off_c, 3, 76, 64
1, 682560, Note_on_c, 0, 54, 29
1, 682560, Note_on_c, 0, 57, 29
1, 682560, Note_on_c, 1, 66, 78
1, 682560, Note_on_c, 2, 66, 7
1, 682560, Note_on_c, 2, 69, 7
1, 682560, Note_on_c, 3, 64, 100
1, 682560, Note_on_c, 3, 69, 100
1, 682560, Note_on_c, 4, 69, 25
1, 682560, Note_on_c, 5, 66, 28
1, 682560, Note_on_c, 7, 64, 56
1, 682560, Note_on_c, 7, 69, 69
1, 682560, Note_on_c, 7, 76, 73
1, 682560, Note_on_c, 8, 57, 55
1, 682560, Note_on_c, 8, 61, 55
1, 682560, Note_on_c, 13, 49, 52
1, 682560, Note_on_c, 13, 54, 52
1, 682792, Note_off_c, 8, 57, 0
1, 682792, Note_off_c, 8, 61, 0
1, 682792, Note_off_c, 13, 49, 0
1, 682792, Note_off_c, 13, 54, 0
1, 682826, Note_off_c, 7, 64, 0
1, 682842, Note_on_c, 10, 64, 70
1, 682842, Note_on_c, 10, 69, 74
1, 682842, Note_on_c, 10, 76, 74
1, 682854, Note_off_c, 7, 69, 0
1, 682862, Note_off_c, 7, 76, 0
1, 683032, Note_off_c, 0, 54, 64
1, 683032, Note_off_c, 0, 57, 64
1, 683032, Note_off_c, 2, 66, 64
1, 683032, Note_off_c, 2, 69, 64
1, 683032, Note_off_c, 3, 64, 64
1, 683032, Note_off_c, 3, 69, 64
1, 683032, Note_off_c, 4, 69, 0
1, 683032, Note_off_c, 5, 66, 0
1, 683040, Note_on_c, 6, 64, 70
1, 683040, Note_on_c, 6, 69, 70
1, 683040, Note_on_c, 6, 76, 75
1, 683040, Note_on_c, 8, 49, 52
1, 683040, Note_on_c, 8, 54, 52
1, 683040, Note_on_c, 13, 57, 49
1, 683040, Note_on_c, 13, 61, 49
1, 683046, Note_off_c, 10, 64, 0
1, 683076, Note_off_c, 10, 76, 0
1, 683114, Note_off_c, 10, 69, 0
1, 683228, Note_off_c, 1, 66, 0
1, 683268, Note_off_c, 6, 69, 0
1, 683272, Note_off_c, 8, 49, 0
1, 683272, Note_off_c, 8, 54, 0
1, 683272, Note_off_c, 13, 57, 0
1, 683272, Note_off_c, 13, 61, 0
1, 683310, Note_off_c, 6, 64, 0
1, 683348, Note_off_c, 6, 76, 0
1, 683520, Note_on_c, 0, 56, 4
1, 683520, Note_on_c, 0, 59, 4
1, 683520, Note_on_c, 1, 59, 74
1, 683520, Note_on_c, 2, 68, 5
1, 683520, Note_on_c, 2, 71, 5
1, 683520, Note_on_c, 3, 71, 100
1, 683520, Note_on_c, 3, 76, 100
1, 683520, Note_on_c, 4, 71, 16
1, 683520, Note_on_c, 5, 68, 2
1, 683520, Note_on_c, 7, 64, 66
1, 683520, Note_on_c, 7, 69, 70
1, 683520, Note_on_c, 7, 76, 75
1, 683520, Note_on_c, 8, 57, 51
1, 683520, Note_on_c, 8, 61, 51
1, 683520, Note_on_c, 13, 49, 47
1, 683520, Note_on_c, 13, 54, 47
1, 683752, Note_off_c, 8, 57, 0
1, 683752, Note_off_c, 8, 61, 0
1, 683752, Note_off_c, 13, 49, 0
1, 683752, Note_off_c, 13, 54, 0
1, 683770, Note_off_c, 7, 69, 0
1, 683784, Note_off_c, 7, 64, 0
1, 683802, Note_on_c, 10, 64, 68
1, 683802, Note_on_c, 10, 69, 68
1, 683802, Note_on_c, 10, 76, 72
1, 683810, Note_off_c, 7, 76, 0
1, 683992, Note_off_c, 0, 56, 64
1, 683992, Note_off_c, 0, 59, 64
1, 683992, Note_off_c, 2, 68, 64
1, 683992, Note_off_c, 2, 71, 64
1, 683992, Note_off_c, 3, 71, 64
1, 683992, Note_off_c, 3, 76, 64
1, 683992, Note_off_c, 4, 71, 0
1, 683992, Note_off_c, 5, 68, 0
1, 684000, Note_on_c, 0, 54, 2
1, 684000, Note_on_c, 0, 57, 2
1, 684000, Note_on_c, 1, 69, 75
1, 684000, Note_on_c, 2, 66, 5
1, 684000, Note_on_c, 2, 69, 5
1, 684000, Note_on_c, 3, 66, 100
1, 684000, Note_on_c, 3, 69, 100
1, 684000, Note_on_c, 4, 69, 8
1, 684000, Note_on_c, 5, 66, 2
1, 684000, Note_on_c, 6, 64, 69
1, 684000, Note_on_c, 6, 69, 69
1, 684000, Note_on_c, 6, 76, 73
1, 684000, Note_on_c, 8, 49, 48
1, 684000, Note_on_c, 8, 54, 48
1, 684000, Note_on_c, 13, 57, 45
1, 684000, Note_on_c, 13, 61, 45
1, 684008, Note_off_c, 1, 59, 0
1, 684008, Note_off_c, 10, 69, 0
1, 684016, Note_off_c, 10, 64, 0
1, 684026, Note_off_c, 10, 76, 0
1, 684232, Note_off_c, 8, 49, 0
1, 684232, Note_off_c, 8, 54, 0
1, 684232, Note_off_c, 13, 57, 0
1, 684232, Note_off_c, 13, 61, 0
1, 684266, Note_off_c, 6, 64, 0
1, 684304, Note_off_c, 6, 69, 0
1, 684304, Note_off_c, 6, 76, 0
1, 684472, Note_off_c, 0, 54, 64
1, 684472, Note_off_c, 0, 57, 64
1, 684472, Note_off_c, 2, 66, 64
1, 684472, Note_off_c, 2, 69, 64
1, 684472, Note_off_c, 3, 66, 64
1, 684472, Note_off_c, 3, 69, 64
1, 684472, Note_off_c, 4, 69, 0
1, 684472, Note_off_c, 5, 66, 0
1, 684480, Note_on_c, 1, 64, 73
1, 684480, Note_on_c, 2, 69, 5
1, 684480, Note_on_c, 2, 73, 5
1, 684480, Note_on_c, 3, 73, 100
1, 684480, Note_on_c, 3, 76, 100
1, 684480, Note_on_c, 4, 73, 2
1, 684480, Note_on_c, 5, 69, 2
1, 684480, Note_on_c, 7, 64, 66
1, 684480, Note_on_c, 7, 69, 70
1, 684480, Note_on_c, 7, 76, 75
1, 684480, Note_on_c, 8, 59, 46
1, 684480, Note_on_c, 8, 61, 46
1, 684480, Note_on_c, 13, 49, 43
1, 684480, Note_on_c, 13, 56, 43
1, 684606, Note_off_c, 1, 69, 0
1, 684712, Note_off_c, 8, 59, 0
1, 684712, Note_off_c, 8, 61, 0
1, 684712, Note_off_c, 13, 49, 0
1, 684712, Note_off_c, 13, 56, 0
1, 684730, Note_off_c, 7, 69, 0
1, 684744, Note_off_c, 7, 64, 0
1, 684762, Note_on_c, 10, 64, 70
1, 684762, Note_on_c, 10, 69, 70
1, 684762, Note_on_c, 10, 76, 75
1, 684770, Note_off_c, 7, 76, 0
1, 684952, Note_off_c, 2, 69, 64
1, 684952, Note_off_c, 2, 73, 64
1, 684952, Note_off_c, 3, 73, 64
1, 684952, Note_off_c, 3, 76, 64
1, 684952, Note_off_c, 4, 73, 0
1, 684952, Note_off_c, 5, 69, 0
1, 684960, Note_on_c, 6, 64, 67
1, 684960, Note_on_c, 6, 69, 63
1, 684960, Note_on_c, 6, 76, 74
1, 684960, Note_on_c, 8, 49, 43
1, 684960, Note_on_c, 8, 56, 43
1, 684960, Note_on_c, 13, 59, 41
1, 684960, Note_on_c, 13, 61, 41
1, 684990, Note_off_c, 10, 69, 0
1, 685032, Note_off_c, 10, 64, 0
1, 685070, Note_off_c, 10, 76, 0
1, 685164, Note_off_c, 6, 69, 0
1, 685186, Note_off_c, 1, 64, 0
1, 685192, Note_off_c, 8, 49, 0
1, 685192, Note_off_c, 8, 56, 0
1, 685192, Note_off_c, 13, 59, 0
1, 685192, Note_off_c, 13, 61, 0
1, 685226, Note_off_c, 6, 64, 0
1, 685226, Note_off_c, 6, 76, 0
1, 685440, Note_on_c, 1, 66, 68
1, 685440, Note_on_c, 3, 71, 100
1, 685440, Note_on_c, 3, 76, 100
1, 685440, Note_on_c, 7, 64, 72
1, 685440, Note_on_c, 7, 69, 80
1, 685440, Note_on_c, 7, 76, 77
1, 685440, Note_on_c, 8, 59, 42
1, 685440, Note_on_c, 8, 61, 42
1, 685440, Note_on_c, 13, 49, 39
1, 685440, Note_on_c, 13, 56, 39
1, 685672, Note_off_c, 8, 59, 0
1, 685672, Note_off_c, 8, 61, 0
1, 685672, Note_off_c, 13, 49, 0
1, 685672, Note_off_c, 13, 56, 0
1, 685680, Note_off_c, 7, 76, 0
1, 685690, Note_off_c, 7, 64, 0
1, 685690, Note_off_c, 7, 69, 0
1, 685722, Note_on_c, 10, 64, 69
1, 685722, Note_on_c, 10, 69, 69
1, 685722, Note_on_c, 10, 76, 73
1, 685912, Note_off_c, 3, 71, 64
1, 685912, Note_off_c, 3, 76, 64
1, 685920, Note_on_c, 1, 61, 68
1, 685920, Note_on_c, 3, 64, 100
1, 685920, Note_on_c, 3, 69, 100
1, 685920, Note_on_c, 6, 64, 66
1, 685920, Note_on_c, 6, 69, 63
1, 685920, Note_on_c, 6, 76, 74
1, 685920, Note_on_c, 8, 49, 39
1, 685920, Note_on_c, 8, 56, 39
1, 685920, Note_on_c, 13, 59, 37
1, 685920, Note_on_c, 13, 61, 37
1, 685956, Note_off_c, 1, 66, 0
1, 685988, Note_off_c, 10, 64, 0
1, 686026, Note_off_c, 10, 69, 0
1, 686026, Note_off_c, 10, 76, 0
1, 686150, Note_off_c, 6, 69, 0
1, 686152, Note_off_c, 8, 49, 0
1, 686152, Note_off_c, 8, 56, 0
1, 686152, Note_off_c, 13, 59, 0
1, 686152, Note_off_c, 13, 61, 0
1, 686156, Note_off_c, 6, 64, 0
1, 686194, Note_off_c, 6, 76, 0
1, 686392, Note_off_c, 3, 64, 64
1, 686392, Note_off_c, 3, 69, 64
1, 686400, Note_on_c, 7, 64, 70
1, 686400, Note_on_c, 7, 69, 77
1, 686400, Note_on_c, 7, 76, 77
1, 686400, Note_on_c, 8, 59, 37
1, 686400, Note_on_c, 8, 61, 37
1, 686400, Note_on_c, 13, 49, 35
1, 686400, Note_on_c, 13, 56, 35
1, 686632, Note_off_c, 8, 59, 0
1, 686632, Note_off_c, 8, 61, 0
1, 686632, Note_off_c, 13, 49, 0
1, 686632, Note_off_c, 13, 56, 0
1, 686654, Note_off_c, 7, 64, 0
1, 686682, Note_off_c, 7, 69, 0
1, 686682, Note_on_c, 10, 64, 67
1, 686682, Note_on_c, 10, 69, 63
1, 686682, Note_on_c, 10, 76, 74
1, 686690, Note_off_c, 1, 61, 0
1, 686690, Note_off_c, 7, 76, 0
1, 686880, Note_on_c, 1, 69, 77
1, 686880, Note_on_c, 3, 71, 100
1, 686880, Note_on_c, 3, 76, 100
1, 686880, Note_on_c, 6, 64, 68
1, 686880, Note_on_c, 6, 69, 74
1, 686880, Note_on_c, 6, 76, 74
1, 686880, Note_on_c, 8, 49, 36
1, 686880, Note_on_c, 8, 56, 36
1, 686880, Note_on_c, 13, 59, 32
1, 686880, Note_on_c, 13, 61, 32
1, 686886, Note_off_c, 10, 69, 0
1, 686948, Note_off_c, 10, 64, 0
1, 686948, Note_off_c, 10, 76, 0
1, 687112, Note_off_c, 8, 49, 0
1, 687112, Note_off_c, 8, 56, 0
1, 687112, Note_off_c, 13, 59, 0
1, 687112, Note_off_c, 13, 61, 0
1, 687140, Note_off_c, 6, 69, 0
1, 687170, Note_off_c, 6, 76, 0
1, 687174, Note_off_c, 6, 64, 0
1, 687352, Note_off_c, 3, 71, 64
1, 687352, Note_off_c, 3, 76, 64
1, 687360, Note_on_c, 7, 64, 70
1, 687360, Note_on_c, 7, 69, 73
1, 687360, Note_on_c, 7, 76, 74
1, 687360, Note_on_c, 8, 59, 33
1, 687360, Note_on_c, 8, 61, 33
1, 687360, Note_on_c, 13, 49, 31
1, 687360, Note_on_c, 13, 56, 31
1, 687504, Note_off_c, 1, 69, 0
1, 687592, Note_off_c, 8, 59, 0
1, 687592, Note_off_c, 8, 61, 0
1, 687592, Note_off_c, 13, 49, 0
1, 687592, Note_off_c, 13, 56, 0
1, 687600, Note_off_c, 7, 64, 0
1, 687606, Note_off_c, 7, 69, 0
1, 687620, Note_off_c, 7, 76, 0
1, 687642, Note_on_c, 10, 64, 66
1, 687642, Note_on_c, 10, 69, 63
1, 687642, Note_on_c, 10, 76, 74
1, 687840, Note_on_c, 1, 64, 70
1, 687840, Note_on_c, 3, 73, 100
1, 687840, Note_on_c, 3, 76, 100
1, 687840, Note_on_c, 6, 64, 73
1, 687840, Note_on_c, 6, 69, 82
1, 687840, Note_on_c, 6, 76, 77
1, 687840, Note_on_c, 8, 49, 32
1, 687840, Note_on_c, 8, 56, 32
1, 687840, Note_on_c, 13, 59, 28
1, 687840, Note_on_c, 13, 61, 28
1, 687872, Note_off_c, 10, 69, 0
1, 687878, Note_off_c, 10, 64, 0
1, 687916, Note_off_c, 10, 76, 0
1, 688072, Note_off_c, 8, 49, 0
1, 688072, Note_off_c, 8, 56, 0
1, 688072, Note_off_c, 13, 59, 0
1, 688072, Note_off_c, 13, 61, 0
1, 688118, Note_off_c, 6, 69, 0
1, 688130, Note_off_c, 6, 64, 0
1, 688138, Note_off_c, 6, 76, 0
1, 688312, Note_off_c, 3, 73, 64
1, 688312, Note_off_c, 3, 76, 64
1, 688320, Note_on_c, 1, 66, 77
1, 688320, Note_on_c, 3, 64, 100
1, 688320, Note_on_c, 3, 69, 100
1, 688320, Note_on_c, 7, 64, 72
1, 688320, Note_on_c, 7, 69, 77
1, 688320, Note_on_c, 7, 76, 75
1, 688320, Note_on_c, 8, 57, 29
1, 688320, Note_on_c, 8, 61, 29
1, 688320, Note_on_c, 13, 49, 27
1, 688320, Note_on_c, 13, 54, 27
1, 688472, Note_off_c, 1, 64, 0
1, 688528, Note_off_c, 7, 69, 0
1, 688542, Note_off_c, 7, 64, 0
1, 688552, Note_off_c, 8, 57, 0
1, 688552, Note_off_c, 8, 61, 0
1, 688552, Note_off_c, 13, 49, 0
1, 688552, Note_off_c, 13, 54, 0
1, 688562, Note_off_c, 7, 76, 0
1, 688602, Note_on_c, 10, 64, 68
1, 688602, Note_on_c, 10, 69, 74
1, 688602, Note_on_c, 10, 76, 74
1, 688792, Note_off_c, 3, 64, 64
1, 688792, Note_off_c, 3, 69, 64
1, 688800, Note_on_c, 6, 64, 72
1, 688800, Note_on_c, 6, 69, 75
1, 688800, Note_on_c, 6, 76, 73
1, 688800, Note_on_c, 8, 49, 27
1, 688800, Note_on_c, 8, 54, 27
1, 688800, Note_on_c, 13, 57, 24
1, 688800, Note_on_c, 13, 61, 24
1, 688862, Note_off_c, 10, 69, 0
1, 688892, Note_off_c, 10, 76, 0
1, 688896, Note_off_c, 10, 64, 0
1, 688964, Note_off_c, 1, 66, 0
1, 689032, Note_off_c, 8, 49, 0
1, 689032, Note_off_c, 8, 54, 0
1, 689032, Note_off_c, 13, 57, 0
1, 689032, Note_off_c, 13, 61, 0
1, 689088, Note_off_c, 6, 76, 0
1, 689090, Note_off_c, 6, 69, 0
1, 689098, Note_off_c, 6, 64, 0
1, 689280, Note_on_c, 1, 59, 65
1, 689280, Note_on_c, 3, 71, 100
1, 689280, Note_on_c, 3, 76, 100
1, 689280, Note_on_c, 7, 64, 70
1, 689280, Note_on_c, 7, 69, 78
1, 689280, Note_on_c, 7, 76, 77
1, 689280, Note_on_c, 8, 57, 24
1, 689280, Note_on_c, 8, 61, 24
1, 689280, Note_on_c, 13, 49, 22
1, 689280, Note_on_c, 13, 54, 22
1, 689512, Note_off_c, 8, 57, 0
1, 689512, Note_off_c, 8, 61, 0
1, 689512, Note_off_c, 13, 49, 0
1, 689512, Note_off_c, 13, 54, 0
1, 689522, Note_off_c, 7, 64, 0
1, 689544, Note_off_c, 7, 76, 0
1, 689562, Note_on_c, 10, 64, 73
1, 689562, Note_on_c, 10, 69, 82
1, 689562, Note_on_c, 10, 76, 77
1, 689568, Note_off_c, 7, 69, 0
1, 689752, Note_off_c, 3, 71, 64
1, 689752, Note_off_c, 3, 76, 64
1, 689760, Note_on_c, 1, 69, 74
1, 689760, Note_on_c, 3, 66, 100
1, 689760, Note_on_c, 3, 69, 100
1, 689760, Note_on_c, 6, 64, 69
1, 689760, Note_on_c, 6, 69, 70
1, 689760, Note_on_c, 6, 76, 72
1, 689760, Note_on_c, 8, 49, 23
1, 689760, Note_on_c, 8, 54, 23
1, 689760, Note_on_c, 13, 57, 20
1, 689760, Note_on_c, 13, 61, 20
1, 689840, Note_off_c, 10, 69, 0
1, 689852, Note_off_c, 10, 64, 0
1, 689854, Note_off_c, 1, 59, 0
1, 689860, Note_off_c, 10, 76, 0
1, 689992, Note_off_c, 8, 49, 0
1, 689992, Note_off_c, 8, 54, 0
1, 689992, Note_off_c, 13, 57, 0
1, 689992, Note_off_c, 13, 61, 0
1, 690024, Note_off_c, 6, 69, 0
1, 690048, Note_off_c, 6, 64, 0
1, 690064, Note_off_c, 6, 76, 0
1, 690232, Note_off_c, 3, 66, 64
1, 690232, Note_off_c, 3, 69, 64
1, 690240, Note_on_c, 1, 64, 68
1, 690240, Note_on_c, 3, 73, 100
1, 690240, Note_on_c, 3, 76, 100
1, 690240, Note_on_c, 7, 64, 70
1, 690240, Note_on_c, 7, 69, 72
1, 690240, Note_on_c, 7, 76, 77
1, 690240, Note_on_c, 8, 59, 20
1, 690240, Note_on_c, 8, 61, 20
1, 690240, Note_on_c, 13, 49, 18
1, 690240, Note_on_c, 13, 56, 18
1, 690452, Note_off_c, 1, 69, 0
1, 690472, Note_off_c, 8, 59, 0
1, 690472, Note_off_c, 8, 61, 0
1, 690472, Note_off_c, 13, 49, 0
1, 690472, Note_off_c, 13, 56, 0
1, 690494, Note_off_c, 7, 64, 0
1, 690506, Note_off_c, 7, 69, 0
1, 690522, Note_on_c, 10, 64, 72
1, 690522, Note_on_c, 10, 69, 75
1, 690522, Note_on_c, 10, 76, 73
1, 690562, Note_off_c, 7, 76, 0
1, 690712, Note_off_c, 3, 73, 64
1, 690712, Note_off_c, 3, 76, 64
1, 690720, Note_on_c, 6, 64, 68
1, 690720, Note_on_c, 6, 69, 77
1, 690720, Note_on_c, 6, 76, 73
1, 690720, Note_on_c, 8, 49, 18
1, 690720, Note_on_c, 8, 56, 18
1, 690720, Note_on_c, 13, 59, 17
1, 690720, Note_on_c, 13, 61, 17
1, 690810, Note_off_c, 10, 76, 0
1, 690812, Note_off_c, 10, 69, 0
1, 690820, Note_off_c, 10, 64, 0
1, 690854, Note_off_c, 1, 64, 0
1, 690952, Note_off_c, 8, 49, 0
1, 690952, Note_off_c, 8, 56, 0
1, 690952, Note_off_c, 13, 59, 0
1, 690952, Note_off_c, 13, 61, 0
1, 690986, Note_off_c, 6, 64, 0
1, 691004, Note_off_c, 6, 69, 0
1, 691004, Note_off_c, 6, 76, 0
1, 691200, Note_on_c, 1, 66, 77
1, 691200, Note_on_c, 3, 71, 100
1, 691200, Note_on_c, 3, 76, 100
1, 691200, Note_on_c, 7, 64, 73
1, 691200, Note_on_c, 7, 69, 77
1, 691200, Note_on_c, 7, 76, 74
1, 691200, Note_on_c, 8, 59, 17
1, 691200, Note_on_c, 8, 61, 17
1, 691200, Note_on_c, 13, 49, 14
1, 691200, Note_on_c, 13, 56, 14
1, 691432, Note_off_c, 8, 59, 0
1, 691432, Note_off_c, 8, 61, 0
1, 691432, Note_off_c, 13, 49, 0
1, 691432, Note_off_c, 13, 56, 0
1, 691482, Note_on_c, 10, 64, 69
1, 691482, Note_on_c, 10, 69, 70
1, 691482, Note_on_c, 10, 76, 72
1, 691484, Note_off_c, 7, 69, 0
1, 691516, Note_off_c, 7, 76, 0
1, 691522, Note_off_c, 7, 64, 0
1, 691672, Note_off_c, 3, 71, 64
1, 691672, Note_off_c, 3, 76, 64
1, 691680, Note_on_c, 1, 61, 70
1, 691680, Note_on_c, 3, 64, 100
1, 691680, Note_on_c, 3, 69, 100
1, 691680, Note_on_c, 6, 64, 72
1, 691680, Note_on_c, 6, 69, 52
1, 691680, Note_on_c, 6, 76, 72
1, 691680, Note_on_c, 8, 49, 14
1, 691680, Note_on_c, 8, 56, 14
1, 691680, Note_on_c, 13, 59, 13
1, 691680, Note_on_c, 13, 61, 13
1, 691746, Note_off_c, 10, 69, 0
1, 691770, Note_off_c, 10, 64, 0
1, 691786, Note_off_c, 10, 76, 0
1, 691832, Note_off_c, 6, 69, 0
1, 691842, Note_off_c, 1, 66, 0
1, 691912, Note_off_c, 8, 49, 0
1, 691912, Note_off_c, 8, 56, 0
1, 691912, Note_off_c, 13, 59, 0
1, 691912, Note_off_c, 13, 61, 0
1, 691920, Note_off_c, 6, 64, 0
1, 691926, Note_off_c, 6, 76, 0
1, 692152, Note_off_c, 3, 64, 64
1, 692152, Note_off_c, 3, 69, 64
1, 692160, Note_on_c, 7, 64, 68
1, 692160, Note_on_c, 7, 69, 70
1, 692160, Note_on_c, 7, 76, 72
1, 692160, Note_on_c, 8, 59, 13
1, 692160, Note_on_c, 8, 61, 13
1, 692160, Note_on_c, 13, 49, 10
1, 692160, Note_on_c, 13, 56, 10
1, 692308, Note_off_c, 1, 61, 0
1, 692392, Note_off_c, 8, 59, 0
1, 692392, Note_off_c, 8, 61, 0
1, 692392, Note_off_c, 13, 49, 0
1, 692392, Note_off_c, 13, 56, 0
1, 692442, Note_on_c, 10, 64, 68
1, 692442, Note_on_c, 10, 69, 77
1, 692442, Note_on_c, 10, 76, 73
1, 692450, Note_off_c, 7, 69, 0
1, 692468, Note_off_c, 7, 76, 0
1, 692474, Note_off_c, 7, 64, 0
1, 692640, Note_on_c, 1, 69, 77
1, 692640, Note_on_c, 3, 71, 100
1, 692640, Note_on_c, 3, 76, 100
1, 692640, Note_on_c, 6, 64, 68
1, 692640, Note_on_c, 6, 69, 70
1, 692640, Note_on_c, 6, 76, 74
1, 692640, Note_on_c, 8, 49, 10
1, 692640, Note_on_c, 8, 56, 10
1, 692640, Note_on_c, 13, 59, 7
1, 692640, Note_on_c, 13, 61, 7
1, 692708, Note_off_c, 10, 64, 0
1, 692726, Note_off_c, 10, 69, 0
1, 692726, Note_off_c, 10, 76, 0
1, 692872, Note_off_c, 6, 69, 0
1, 692872, Note_off_c, 8, 49, 0
1, 692872, Note_off_c, 8, 56, 0
1, 692872, Note_off_c, 13, 59, 0
1, 692872, Note_off_c, 13, 61, 0
1, 692882, Note_off_c, 6, 64, 0
1, 692890, Note_off_c, 6, 76, 0
1, 693112, Note_off_c, 3, 71, 64
1, 693112, Note_off_c, 3, 76, 64
1, 693120, Note_on_c, 7, 64, 68
1, 693120, Note_on_c, 7, 69, 70
1, 693120, Note_on_c, 7, 76, 73
1, 693120, Note_on_c, 8, 59, 8
1, 693120, Note_on_c, 8, 61, 8
1, 693120, Note_on_c, 13, 49, 6
1, 693120, Note_on_c, 13, 56, 6
1, 693288, Note_off_c, 1, 69, 0
1, 693352, Note_off_c, 8, 59, 0
1, 693352, Note_off_c, 8, 61, 0
1, 693352, Note_off_c, 13, 49, 0
1, 693352, Note_off_c, 13, 56, 0
1, 693368, Note_off_c, 7, 64, 0
1, 693382, Note_off_c, 7, 69, 0
1, 693382, Note_off_c, 7, 76, 0
1, 693402, Note_on_c, 10, 64, 72
1, 693402, Note_on_c, 10, 69, 52
1, 693402, Note_on_c, 10, 76, 72
1, 693554, Note_off_c, 10, 69, 0
1, 693600, Note_on_c, 1, 64, 68
1, 693600, Note_on_c, 3, 73, 100
1, 693600, Note_on_c, 3, 76, 100
1, 693600, Note_on_c, 6, 64, 68
1, 693600, Note_on_c, 6, 69, 69
1, 693600, Note_on_c, 6, 76, 72
1, 693600, Note_on_c, 8, 49, 5
1, 693600, Note_on_c, 8, 56, 5
1, 693600, Note_on_c, 13, 59, 3
1, 693600, Note_on_c, 13, 61, 3
1, 693642, Note_off_c, 10, 64, 0
1, 693648, Note_off_c, 10, 76, 0
1, 693816, Note_off_c, 6, 76, 0
1, 693818, Note_off_c, 6, 69, 0
1, 693832, Note_off_c, 6, 64, 0
1, 693832, Note_off_c, 8, 49, 0
1, 693832, Note_off_c, 8, 56, 0
1, 693832, Note_off_c, 13, 59, 0
1, 693832, Note_off_c, 13, 61, 0
1, 694044, Note_off_c, 1, 64, 0
1, 694072, Note_off_c, 3, 73, 64
1, 694072, Note_off_c, 3, 76, 64
1, 694080, Note_on_c, 1, 66, 78
1, 694080, Note_on_c, 3, 64, 100
1, 694080, Note_on_c, 3, 69, 100
1, 694080, Note_on_c, 7, 64, 70
1, 694080, Note_on_c, 7, 69, 83
1, 694080, Note_on_c, 7, 76, 74
1, 694080, Note_on_c, 8, 57, 4
1, 694080, Note_on_c, 8, 61, 4
1, 694080, Note_on_c, 13, 49, 2
1, 694080, Note_on_c, 13, 54, 2
1, 694312, Note_off_c, 8, 57, 0
1, 694312, Note_off_c, 8, 61, 0
1, 694312, Note_off_c, 13, 49, 0
1, 694312, Note_off_c, 13, 54, 0
1, 694320, Note_off_c, 7, 64, 0
1, 694320, Note_off_c, 7, 76, 0
1, 694330, Note_off_c, 7, 69, 0
1, 694362, Note_on_c, 10, 64, 68
1, 694362, Note_on_c, 10, 69, 70
1, 694362, Note_on_c, 10, 76, 74
1, 694552, Note_off_c, 3, 64, 64
1, 694552, Note_off_c, 3, 69, 64
1, 694560, Note_on_c, 6, 64, 67
1, 694560, Note_on_c, 6, 69, 67
1, 694560, Note_on_c, 6, 76, 72
1, 694560, Note_on_c, 8, 49, 1
1, 694560, Note_on_c, 8, 54, 1
1, 694594, Note_off_c, 10, 69, 0
1, 694604, Note_off_c, 10, 64, 0
1, 694612, Note_off_c, 10, 76, 0
1, 694748, Note_off_c, 1, 66, 0
1, 694792, Note_off_c, 8, 49, 0
1, 694792, Note_off_c, 8, 54, 0
1, 694806, Note_off_c, 6, 64, 0
1, 694810, Note_off_c, 6, 69, 0
1, 694826, Note_off_c, 6, 76, 0
1, 695040, Note_on_c, 1, 59, 74
1, 695040, Note_on_c, 3, 71, 100
1, 695040, Note_on_c, 3, 76, 100
1, 695040, Note_on_c, 7, 64, 67
1, 695040, Note_on_c, 7, 69, 78
1, 695040, Note_on_c, 7, 76, 73
1, 695290, Note_off_c, 7, 76, 0
1, 695296, Note_off_c, 7, 69, 0
1, 695304, Note_off_c, 7, 64, 0
1, 695322, Note_on_c, 10, 64, 68
1, 695322, Note_on_c, 10, 69, 69
1, 695322, Note_on_c, 10, 76, 72
1, 695512, Note_off_c, 3, 71, 64
1, 695512, Note_off_c, 3, 76, 64
1, 695520, Note_on_c, 1, 69, 75
1, 695520, Note_on_c, 3, 66, 100
1, 695520, Note_on_c, 3, 69, 100
1, 695520, Note_on_c, 6, 64, 67
1, 695520, Note_on_c, 6, 69, 63
1, 695520, Note_on_c, 6, 76, 72
1, 695528, Note_off_c, 1, 59, 0
1, 695538, Note_off_c, 10, 76, 0
1, 695540, Note_off_c, 10, 69, 0
1, 695554, Note_off_c, 10, 64, 0
1, 695768, Note_off_c, 6, 69, 0
1, 695796, Note_off_c, 6, 64, 0
1, 695812, Note_off_c, 6, 76, 0
1, 695992, Note_off_c, 3, 66, 64
1, 695992, Note_off_c, 3, 69, 64
1, 696000, Note_on_c, 1, 64, 73
1, 696000, Note_on_c, 3, 73, 100
1, 696000, Note_on_c, 3, 76, 100
1, 696000, Note_on_c, 7, 64, 69
1, 696000, Note_on_c, 7, 69, 70
1, 696000, Note_on_c, 7, 76, 73
1, 696126, Note_off_c, 1, 69, 0
1, 696220, Note_off_c, 7, 69, 0
1, 696242, Note_off_c, 7, 76, 0
1, 696252, Note_off_c, 7, 64, 0
1, 696282, Note_on_c, 10, 64, 67
1, 696282, Note_on_c, 10, 69, 67
1, 696282, Note_on_c, 10, 76, 72
1, 696472, Note_off_c, 3, 73, 64
1, 696472, Note_off_c, 3, 76, 64
1, 696480, Note_on_c, 6, 64, 68
1, 696480, Note_on_c, 6, 69, 66
1, 696480, Note_on_c, 6, 76, 70
1, 696528, Note_off_c, 10, 64, 0
1, 696532, Note_off_c, 10, 69, 0
1, 696548, Note_off_c, 10, 76, 0
1, 696676, Note_off_c, 6, 69, 0
1, 696700, Note_off_c, 6, 64, 0
1, 696706, Note_off_c, 1, 64, 0
1, 696718, Note_off_c, 6, 76, 0
1, 696960, Note_on_c, 1, 66, 68
1, 696960, Note_on_c, 3, 71, 100
1, 696960, Note_on_c, 3, 76, 100
1, 696960, Note_on_c, 7, 64, 69
1, 696960, Note_on_c, 7, 69, 75
1, 696960, Note_on_c, 7, 76, 73
1, 697174, Note_off_c, 7, 69, 0
1, 697190, Note_off_c, 7, 64, 0
1, 697204, Note_off_c, 7, 76, 0
1, 697242, Note_on_c, 10, 64, 67
1, 697242, Note_on_c, 10, 69, 63
1, 697242, Note_on_c, 10, 76, 72
1, 697432, Note_off_c, 3, 71, 64
1, 697432, Note_off_c, 3, 76, 64
1, 697440, Note_on_c, 1, 61, 68
1, 697440, Note_on_c, 3, 64, 100
1, 697440, Note_on_c, 3, 69, 100
1, 697440, Note_on_c, 6, 64, 68
1, 697440, Note_on_c, 6, 69, 63
1, 697440, Note_on_c, 6, 76, 72
1, 697476, Note_off_c, 1, 66, 0
1, 697490, Note_off_c, 10, 69, 0
1, 697518, Note_off_c, 10, 64, 0
1, 697534, Note_off_c, 10, 76, 0
1, 697650, Note_off_c, 6, 64, 0
1, 697684, Note_off_c, 6, 76, 0
1, 697702, Note_off_c, 6, 69, 0
1, 697912, Note_off_c, 3, 64, 64
1, 697912, Note_off_c, 3, 69, 64
1, 697920, Note_on_c, 7, 64, 68
1, 697920, Note_on_c, 7, 69, 74
1, 697920, Note_on_c, 7, 76, 74
1, 698144, Note_off_c, 7, 69, 0
1, 698184, Note_off_c, 7, 64, 0
1, 698194, Note_off_c, 7, 76, 0
1, 698202, Note_on_c, 10, 64, 68
1, 698202, Note_on_c, 10, 69, 66
1, 698202, Note_on_c, 10, 76, 70
1, 698210, Note_off_c, 1, 61, 0
1, 698398, Note_off_c, 10, 69, 0
1, 698400, Note_on_c, 1, 69, 77
1, 698400, Note_on_c, 3, 71, 100
1, 698400, Note_on_c, 3, 76, 100
1, 698400, Note_on_c, 6, 64, 70
1, 698400, Note_on_c, 6, 69, 69
1, 698400, Note_on_c, 6, 76, 72
1, 698422, Note_off_c, 10, 64, 0
1, 698440, Note_off_c, 10, 76, 0
1, 698634, Note_off_c, 6, 69, 0
1, 698662, Note_off_c, 6, 64, 0
1, 698662, Note_off_c, 6, 76, 0
1, 698872, Note_off_c, 3, 71, 64
1, 698872, Note_off_c, 3, 76, 64
1, 698880, Note_on_c, 7, 64, 68
1, 698880, Note_on_c, 7, 69, 73
1, 698880, Note_on_c, 7, 76, 73
1, 699024, Note_off_c, 1, 69, 0
1, 699104, Note_off_c, 7, 64, 0
1, 699128, Note_off_c, 7, 69, 0
1, 699128, Note_off_c, 7, 76, 0
1, 699162, Note_on_c, 10, 64, 68
1, 699162, Note_on_c, 10, 69, 63
1, 699162, Note_on_c, 10, 76, 72
1, 699360, Note_on_c, 1, 64, 70
1, 699360, Note_on_c, 3, 73, 100
1, 699360, Note_on_c, 3, 76, 100
1, 699360, Note_on_c, 6, 64, 68
1, 699360, Note_on_c, 6, 69, 70
1, 699360, Note_on_c, 6, 76, 70
1, 699372, Note_off_c, 10, 64, 0
1, 699406, Note_off_c, 10, 76, 0
1, 699424, Note_off_c, 10, 69, 0
1, 699568, Note_off_c, 6, 64, 0
1, 699596, Note_off_c, 6, 69, 0
1, 699600, Note_off_c, 6, 76, 0
1, 699832, Note_off_c, 3, 73, 64
1, 699832, Note_off_c, 3, 76, 64
1, 699840, Note_on_c, 1, 66, 77
1, 699840, Note_on_c, 3, 64, 100
1, 699840, Note_on_c, 3, 69, 100
1, 699840, Note_on_c, 7, 64, 66
1, 699840, Note_on_c, 7, 69, 74
1, 699840, Note_on_c, 7, 76, 73
1, 699992, Note_off_c, 1, 64, 0
1, 700074, Note_off_c, 7, 64, 0
1, 700094, Note_off_c, 7, 76, 0
1, 700122, Note_off_c, 7, 69, 0
1, 700122, Note_on_c, 10, 64, 70
1, 700122, Note_on_c, 10, 69, 69
1, 700122, Note_on_c, 10, 76, 72
1, 700312, Note_off_c, 3, 64, 64
1, 700312, Note_off_c, 3, 69, 64
1, 700320, Note_on_c, 6, 64, 67
1, 700320, Note_on_c, 6, 69, 73
1, 700320, Note_on_c, 6, 76, 74
1, 700356, Note_off_c, 10, 69, 0
1, 700384, Note_off_c, 10, 64, 0
1, 700384, Note_off_c, 10, 76, 0
1, 700484, Note_off_c, 1, 66, 0
1, 700536, Note_off_c, 6, 64, 0
1, 700556, Note_off_c, 6, 76, 0
1, 700566, Note_off_c, 6, 69, 0
1, 700800, Note_on_c, 1, 59, 65
1, 700800, Note_on_c, 3, 71, 100
1, 700800, Note_on_c, 3, 76, 100
1, 700800, Note_on_c, 7, 64, 66
1, 700800, Note_on_c, 7, 69, 77
1, 700800, Note_on_c, 7, 76, 70
1, 701028, Note_off_c, 7, 64, 0
1, 701082, Note_on_c, 10, 64, 68
1, 701082, Note_on_c, 10, 69, 70
1, 701082, Note_on_c, 10, 76, 70
1, 701086, Note_off_c, 7, 69, 0
1, 701110, Note_off_c, 7, 76, 0
1, 701272, Note_off_c, 3, 71, 64
1, 701272, Note_off_c, 3, 76, 64
1, 701280, Note_on_c, 1, 69, 74
1, 701280, Note_on_c, 3, 66, 100
1, 701280, Note_on_c, 3, 69, 100
1, 701280, Note_on_c, 6, 64, 68
1, 701280, Note_on_c, 6, 69, 74
1, 701280, Note_on_c, 6, 76, 75
1, 701290, Note_off_c, 10, 64, 0
1, 701318, Note_off_c, 10, 69, 0
1, 701322, Note_off_c, 10, 76, 0
1, 701374, Note_off_c, 1, 59, 0
1, 701552, Note_off_c, 6, 69, 0
1, 701556, Note_off_c, 6, 64, 0
1, 701570, Note_off_c, 6, 76, 0
1, 701752, Note_off_c, 3, 66, 64
1, 701752, Note_off_c, 3, 69, 64
1, 701760, Note_on_c, 1, 64, 68
1, 701760, Note_on_c, 3, 73, 100
1, 701760, Note_on_c, 3, 76, 100
1, 701760, Note_on_c, 7, 64, 65
1, 701760, Note_on_c, 7, 69, 72
1, 701760, Note_on_c, 7, 76, 72
1, 701972, Note_off_c, 1, 69, 0
1, 702036, Note_off_c, 7, 64, 0
1, 702042, Note_on_c, 10, 64, 67
1, 702042, Note_on_c, 10, 69, 73
1, 702042, Note_on_c, 10, 76, 74
1, 702050, Note_off_c, 7, 69, 0
1, 702052, Note_off_c, 7, 76, 0
1, 702232, Note_off_c, 3, 73, 64
1, 702232, Note_off_c, 3, 76, 64
1, 702240, Note_on_c, 6, 64, 73
1, 702240, Note_on_c, 6, 69, 80
1, 702240, Note_on_c, 6, 76, 77
1, 702258, Note_off_c, 10, 64, 0
1, 702278, Note_off_c, 10, 76, 0
1, 702288, Note_off_c, 10, 69, 0
1, 702374, Note_off_c, 1, 64, 0
1, 702502, Note_off_c, 6, 64, 0
1, 702518, Note_off_c, 6, 69, 0
1, 702528, Note_off_c, 6, 76, 0
1, 702720, Note_on_c, 1, 66, 77
1, 702720, Note_on_c, 3, 71, 100
1, 702720, Note_on_c, 3, 76, 100
1, 702720, Note_on_c, 7, 64, 67
1, 702720, Note_on_c, 7, 69, 75
1, 702720, Note_on_c, 7, 76, 70
1, 702950, Note_off_c, 7, 69, 0
1, 702968, Note_off_c, 7, 64, 0
1, 702978, Note_off_c, 7, 76, 0
1, 703002, Note_on_c, 10, 64, 68
1, 703002, Note_on_c, 10, 69, 74
1, 703002, Note_on_c, 10, 76, 75
1, 703192, Note_off_c, 3, 71, 64
1, 703192, Note_off_c, 3, 76, 64
1, 703200, Note_on_c, 1, 61, 70
1, 703200, Note_on_c, 3, 64, 100
1, 703200, Note_on_c, 3, 69, 100
1, 703200, Note_on_c, 6, 64, 68
1, 703200, Note_on_c, 6, 69, 70
1, 703200, Note_on_c, 6, 76, 74
1, 703274, Note_off_c, 10, 69, 0
1, 703278, Note_off_c, 10, 64, 0
1, 703292, Note_off_c, 10, 76, 0
1, 703362, Note_off_c, 1, 66, 0
1, 703486, Note_off_c, 6, 64, 0
1, 703498, Note_off_c, 6, 69, 0
1, 703498, Note_off_c, 6, 76, 0
1, 703672, Note_off_c, 3, 64, 64
1, 703672, Note_off_c, 3, 69, 64
1, 703680, Note_on_c, 7, 64, 66
1, 703680, Note_on_c, 7, 69, 68
1, 703680, Note_on_c, 7, 76, 72
1, 703828, Note_off_c, 1, 61, 0
1, 703940, Note_off_c, 7, 69, 0
1, 703950, Note_off_c, 7, 64, 0
1, 703954, Note_off_c, 7, 76, 0
1, 703962, Note_on_c, 10, 64, 73
1, 703962, Note_on_c, 10, 69, 80
1, 703962, Note_on_c, 10, 76, 77
1, 704160, Note_on_c, 1, 69, 77
1, 704160, Note_on_c, 3, 71, 100
1, 704160, Note_on_c, 3, 76, 100
1, 704160, Note_on_c, 6, 64, 70
1, 704160, Note_on_c, 6, 69, 74
1, 704160, Note_on_c, 6, 76, 74
1, 704224, Note_off_c, 10, 64, 0
1, 704240, Note_off_c, 10, 69, 0
1, 704250, Note_off_c, 10, 76, 0
1, 704364, Note_off_c, 6, 64, 0
1, 704394, Note_off_c, 6, 76, 0
1, 704432, Note_off_c, 6, 69, 0
1, 704632, Note_off_c, 3, 71, 64
1, 704632, Note_off_c, 3, 76, 64
1, 704640, Note_on_c, 7, 64, 62
1, 704640, Note_on_c, 7, 69, 60
1, 704640, Note_on_c, 7, 76, 70
1, 704808, Note_off_c, 1, 69, 0
1, 704900, Note_off_c, 7, 69, 0
1, 704918, Note_off_c, 7, 64, 0
1, 704922, Note_on_c, 10, 64, 68
1, 704922, Note_on_c, 10, 69, 70
1, 704922, Note_on_c, 10, 76, 74
1, 704978, Note_off_c, 7, 76, 0
1, 705120, Note_on_c, 1, 64, 68
1, 705120, Note_on_c, 3, 73, 100
1, 705120, Note_on_c, 3, 76, 100
1, 705120, Note_on_c, 6, 64, 68
1, 705120, Note_on_c, 6, 69, 68
1, 705120, Note_on_c, 6, 76, 72
1, 705208, Note_off_c, 10, 64, 0
1, 705220, Note_off_c, 10, 69, 0
1, 705220, Note_off_c, 10, 76, 0
1, 705326, Note_off_c, 6, 69, 0
1, 705334, Note_off_c, 6, 64, 0
1, 705344, Note_off_c, 6, 76, 0
1, 705564, Note_off_c, 1, 64, 0
1, 705592, Note_off_c, 3, 73, 64
1, 705592, Note_off_c, 3, 76, 64
1, 705600, Note_on_c, 1, 66, 78
1, 705600, Note_on_c, 3, 64, 100
1, 705600, Note_on_c, 3, 69, 100
1, 705600, Note_on_c, 7, 64, 56
1, 705600, Note_on_c, 7, 69, 69
1, 705600, Note_on_c, 7, 76, 73
1, 705866, Note_off_c, 7, 64, 0
1, 705882, Note_on_c, 10, 64, 70
1, 705882, Note_on_c, 10, 69, 74
1, 705882, Note_on_c, 10, 76, 74
1, 705894, Note_off_c, 7, 69, 0
1, 705902, Note_off_c, 7, 76, 0
1, 706072, Note_off_c, 3, 64, 64
1, 706072, Note_off_c, 3, 69, 64
1, 706080, Note_on_c, 6, 64, 70
1, 706080, Note_on_c, 6, 69, 70
1, 706080, Note_on_c, 6, 76, 75
1, 706086, Note_off_c, 10, 64, 0
1, 706116, Note_off_c, 10, 76, 0
1, 706154, Note_off_c, 10, 69, 0
1, 706268, Note_off_c, 1, 66, 0
1, 706308, Note_off_c, 6, 69, 0
1, 706350, Note_off_c, 6, 64, 0
1, 706388, Note_off_c, 6, 76, 0
1, 706560, Note_on_c, 1, 59, 74
1, 706560, Note_on_c, 3, 71, 100
1, 706560, Note_on_c, 3, 76, 100
1, 706560, Note_on_c, 7, 64, 66
1, 706560, Note_on_c, 7, 69, 70
1, 706560, Note_on_c, 7, 76, 75
1, 706810, Note_off_c, 7, 69, 0
1, 706824, Note_off_c, 7, 64, 0
1, 706842, Note_on_c, 10, 64, 68
1, 706842, Note_on_c, 10, 69, 68
1, 706842, Note_on_c, 10, 76, 72
1, 706850, Note_off_c, 7, 76, 0
1, 707032, Note_off_c, 3, 71, 64
1, 707032, Note_off_c, 3, 76, 64
1, 707040, Note_on_c, 1, 69, 75
1, 707040, Note_on_c, 3, 66, 100
1, 707040, Note_on_c, 3, 69, 100
1, 707040, Note_on_c, 6, 64, 69
1, 707040, Note_on_c, 6, 69, 69
1, 707040, Note_on_c, 6, 76, 73
1, 707048, Note_off_c, 1, 59, 0
1, 707048, Note_off_c, 10, 69, 0
1, 707056, Note_off_c, 10, 64, 0
1, 707066, Note_off_c, 10, 76, 0
1, 707306, Note_off_c, 6, 64, 0
1, 707344, Note_off_c, 6, 69, 0
1, 707344, Note_off_c, 6, 76, 0
1, 707512, Note_off_c, 3, 66, 64
1, 707512, Note_off_c, 3, 69, 64
1, 707520, Note_on_c, 1, 64, 73
1, 707520, Note_on_c, 3, 73, 100
1, 707520, Note_on_c, 3, 76, 100
1, 707520, Note_on_c, 7, 64, 66
1, 707520, Note_on_c, 7, 69, 70
1, 707520, Note_on_c, 7, 76, 75
1, 707646, Note_off_c, 1, 69, 0
1, 707770, Note_off_c, 7, 69, 0
1, 707784, Note_off_c, 7, 64, 0
1, 707802, Note_on_c, 10, 64, 70
1, 707802, Note_on_c, 10, 69, 70
1, 707802, Note_on_c, 10, 76, 75
1, 707810, Note_off_c, 7, 76, 0
1, 707992, Note_off_c, 3, 73, 64
1, 707992, Note_off_c, 3, 76, 64
1, 708000, Note_on_c, 6, 64, 67
1, 708000, Note_on_c, 6, 69, 63
1, 708000, Note_on_c, 6, 76, 74
1, 708030, Note_off_c, 10, 69, 0
1, 708072, Note_off_c, 10, 64, 0
1, 708110, Note_off_c, 10, 76, 0
1, 708204, Note_off_c, 6, 69, 0
1, 708226, Note_off_c, 1, 64, 0
1, 708266, Note_off_c, 6, 64, 0
1, 708266, Note_off_c, 6, 76, 0
1, 708480, Note_on_c, 1, 66, 68
1, 708480, Note_on_c, 3, 71, 100
1, 708480, Note_on_c, 3, 76, 100
1, 708480, Note_on_c, 7, 64, 72
1, 708480, Note_on_c, 7, 69, 80
1, 708480, Note_on_c, 7, 76, 77
1, 708720, Note_off_c, 7, 76, 0
1, 708730, Note_off_c, 7, 64, 0
1, 708730, Note_off_c, 7, 69, 0
1, 708762, Note_on_c, 10, 64, 69
1, 708762, Note_on_c, 10, 69, 69
1, 708762, Note_on_c, 10, 76, 73
1, 708952, Note_off_c, 3, 71, 64
1, 708952, Note_off_c, 3, 76, 64
1, 708960, Note_on_c, 1, 61, 68
1, 708960, Note_on_c, 3, 64, 100
1, 708960, Note_on_c, 3, 69, 100
1, 708960, Note_on_c, 6, 64, 66
1, 708960, Note_on_c, 6, 69, 63
1, 708960, Note_on_c, 6, 76, 74
1, 708996, Note_off_c, 1, 66, 0
1, 709028, Note_off_c, 10, 64, 0
1, 709066, Note_off_c, 10, 69, 0
1, 709066, Note_off_c, 10, 76, 0
1, 709190, Note_off_c, 6, 69, 0
1, 709196, Note_off_c, 6, 64, 0
1, 709234, Note_off_c, 6, 76, 0
1, 709432, Note_off_c, 3, 64, 64
1, 709432, Note_off_c, 3, 69, 64
1, 709440, Note_on_c, 7, 64, 70
1, 709440, Note_on_c, 7, 69, 77
1, 709440, Note_on_c, 7, 76, 77
1, 709694, Note_off_c, 7, 64, 0
1, 709722, Note_off_c, 7, 69, 0
1, 709722, Note_on_c, 10, 64, 67
1, 709722, Note_on_c, 10, 69, 63
1, 709722, Note_on_c, 10, 76, 74
1, 709730, Note_off_c, 1, 61, 0
1, 709730, Note_off_c, 7, 76, 0
1, 709920, Note_on_c, 1, 69, 77
1, 709920, Note_on_c, 3, 71, 100
1, 709920, Note_on_c, 3, 76, 100
1, 709920, Note_on_c, 6, 64, 68
1, 709920, Note_on_c, 6, 69, 74
1, 709920, Note_on_c, 6, 76, 74
1, 709926, Note_off_c, 10, 69, 0
1, 709988, Note_off_c, 10, 64, 0
1, 709988, Note_off_c, 10, 76, 0
1, 710180, Note_off_c, 6, 69, 0
1, 710210, Note_off_c, 6, 76, 0
1, 710214, Note_off_c, 6, 64, 0
1, 710392, Note_off_c, 3, 71, 64
1, 710392, Note_off_c, 3, 76, 64
1, 710400, Note_on_c, 7, 64, 70
1, 710400, Note_on_c, 7, 69, 73
1, 710400, Note_on_c, 7, 76, 74
1, 710544, Note_off_c, 1, 69, 0
1, 710640, Note_off_c, 7, 64, 0
1, 710646, Note_off_c, 7, 69, 0
1, 710660, Note_off_c, 7, 76, 0
1, 710682, Note_on_c, 10, 64, 66
1, 710682, Note_on_c, 10, 69, 63
1, 710682, Note_on_c, 10, 76, 74
1, 710880, Note_on_c, 1, 64, 70
1, 710880, Note_on_c, 3, 73, 100
1, 710880, Note_on_c, 3, 76, 100
1, 710880, Note_on_c, 6, 64, 73
1, 710880, Note_on_c, 6, 69, 82
1, 710880, Note_on_c, 6, 76, 77
1, 710912, Note_off_c, 10, 69, 0
1, 710918, Note_off_c, 10, 64, 0
1, 710956, Note_off_c, 10, 76, 0
1, 711158, Note_off_c, 6, 69, 0
1, 711170, Note_off_c, 6, 64, 0
1, 711178, Note_off_c, 6, 76, 0
1, 711352, Note_off_c, 3, 73, 64
1, 711352, Note_off_c, 3, 76, 64
1, 711360, Note_on_c, 1, 66, 77
1, 711360, Note_on_c, 3, 64, 100
1, 711360, Note_on_c, 3, 69, 100
1, 711360, Note_on_c, 7, 64, 72
1, 711360, Note_on_c, 7, 69, 77
1, 711360, Note_on_c, 7, 76, 75
1, 711512, Note_off_c, 1, 64, 0
1, 711568, Note_off_c, 7, 69, 0
1, 711582, Note_off_c, 7, 64, 0
1, 711602, Note_off_c, 7, 76, 0
1, 711642, Note_on_c, 10, 64, 68
1, 711642, Note_on_c, 10, 69, 74
1, 711642, Note_on_c, 10, 76, 74
1, 711832, Note_off_c, 3, 64, 64
1, 711832, Note_off_c, 3, 69, 64
1, 711840, Note_on_c, 6, 64, 72
1, 711840, Note_on_c, 6, 69, 75
1, 711840, Note_on_c, 6, 76, 73
1, 711902, Note_off_c, 10, 69, 0
1, 711932, Note_off_c, 10, 76, 0
1, 711936, Note_off_c, 10, 64, 0
1, 712004, Note_off_c, 1, 66, 0
1, 712128, Note_off_c, 6, 76, 0
1, 712130, Note_off_c, 6, 69, 0
1, 712138, Note_off_c, 6, 64, 0
1, 712320, Note_on_c, 1, 59, 65
1, 712320, Note_on_c, 3, 71, 100
1, 712320, Note_on_c, 3, 76, 100
1, 712320, Note_on_c, 7, 64, 70
1, 712320, Note_on_c, 7, 69, 78
1, 712320, Note_on_c, 7, 76, 77
1, 712562, Note_off_c, 7, 64, 0
1, 712584, Note_off_c, 7, 76, 0
1, 712602, Note_on_c, 10, 64, 73
1, 712602, Note_on_c, 10, 69, 82
1, 712602, Note_on_c, 10, 76, 77
1, 712608, Note_off_c, 7, 69, 0
1, 712792, Note_off_c, 3, 71, 64
1, 712792, Note_off_c, 3, 76, 64
1, 712800, Note_on_c, 1, 69, 74
1, 712800, Note_on_c, 3, 66, 100
1, 712800, Note_on_c, 3, 69, 100
1, 712800, Note_on_c, 6, 64, 69
1, 712800, Note_on_c, 6, 69, 70
1, 712800, Note_on_c, 6, 76, 72
1, 712880, Note_off_c, 10, 69, 0
1, 712892, Note_off_c, 10, 64, 0
1, 712894, Note_off_c, 1, 59, 0
1, 712900, Note_off_c, 10, 76, 0
1, 713064, Note_off_c, 6, 69, 0
1, 713088, Note_off_c, 6, 64, 0
1, 713104, Note_off_c, 6, 76, 0
1, 713272, Note_off_c, 3, 66, 64
1, 713272, Note_off_c, 3, 69, 64
1, 713280, Note_on_c, 1, 64, 68
1, 713280, Note_on_c, 3, 73, 100
1, 713280, Note_on_c, 3, 76, 100
1, 713280, Note_on_c, 7, 64, 70
1, 713280, Note_on_c, 7, 69, 72
1, 713280, Note_on_c, 7, 76, 77
1, 713492, Note_off_c, 1, 69, 0
1, 713534, Note_off_c, 7, 64, 0
1, 713546, Note_off_c, 7, 69, 0
1, 713562, Note_on_c, 10, 64, 72
1, 713562, Note_on_c, 10, 69, 75
1, 713562, Note_on_c, 10, 76, 73
1, 713602, Note_off_c, 7, 76, 0
1, 713752, Note_off_c, 3, 73, 64
1, 713752, Note_off_c, 3, 76, 64
1, 713760, Note_on_c, 6, 64, 68
1, 713760, Note_on_c, 6, 69, 77
1, 713760, Note_on_c, 6, 76, 73
1, 713850, Note_off_c, 10, 76, 0
1, 713852, Note_off_c, 10, 69, 0
1, 713860, Note_off_c, 10, 64, 0
1, 713894, Note_off_c, 1, 64, 0
1, 714026, Note_off_c, 6, 64, 0
1, 714044, Note_off_c, 6, 69, 0
1, 714044, Note_off_c, 6, 76, 0
1, 714240, Note_on_c, 1, 66, 77
1, 714240, Note_on_c, 3, 71, 100
1, 714240, Note_on_c, 3, 76, 100
1, 714240, Note_on_c, 7, 64, 73
1, 714240, Note_on_c, 7, 69, 77
1, 714240, Note_on_c, 7, 76, 74
1, 714522, Note_on_c, 10, 64, 69
1, 714522, Note_on_c, 10, 69, 70
1, 714522, Note_on_c, 10, 76, 72
1, 714524, Note_off_c, 7, 69, 0
1, 714556, Note_off_c, 7, 76, 0
1, 714562, Note_off_c, 7, 64, 0
1, 714712, Note_off_c, 3, 71, 64
1, 714712, Note_off_c, 3, 76, 64
1, 714720, Note_on_c, 1, 61, 70
1, 714720, Note_on_c, 3, 64, 100
1, 714720, Note_on_c, 3, 69, 100
1, 714720, Note_on_c, 6, 64, 72
1, 714720, Note_on_c, 6, 69, 52
1, 714720, Note_on_c, 6, 76, 72
1, 714786, Note_off_c, 10, 69, 0
1, 714810, Note_off_c, 10, 64, 0
1, 714826, Note_off_c, 10, 76, 0
1, 714872, Note_off_c, 6, 69, 0
1, 714882, Note_off_c, 1, 66, 0
1, 714960, Note_off_c, 6, 64, 0
1, 714966, Note_off_c, 6, 76, 0
1, 715192, Note_off_c, 3, 64, 64
1, 715192, Note_off_c, 3, 69, 64
1, 715200, Note_on_c, 7, 64, 68
1, 715200, Note_on_c, 7, 69, 70
1, 715200, Note_on_c, 7, 76, 72
1, 715348, Note_off_c, 1, 61, 0
1, 715482, Note_on_c, 10, 64, 68
1, 715482, Note_on_c, 10, 69, 77
1, 715482, Note_on_c, 10, 76, 73
1, 715490, Note_off_c, 7, 69, 0
1, 715508, Note_off_c, 7, 76, 0
1, 715514, Note_off_c, 7, 64, 0
1, 715680, Note_on_c, 1, 69, 77
1, 715680, Note_on_c, 3, 71, 100
1, 715680, Note_on_c, 3, 76, 100
1, 715680, Note_on_c, 6, 64, 68
1, 715680, Note_on_c, 6, 69, 70
1, 715680, Note_on_c, 6, 76, 74
1, 715748, Note_off_c, 10, 64, 0
1, 715766, Note_off_c, 10, 69, 0
1, 715766, Note_off_c, 10, 76, 0
1, 715912, Note_off_c, 6, 69, 0
1, 715922, Note_off_c, 6, 64, 0
1, 715930, Note_off_c, 6, 76, 0
1, 716152, Note_off_c, 3, 71, 64
1, 716152, Note_off_c, 3, 76, 64
1, 716160, Note_on_c, 7, 64, 68
1, 716160, Note_on_c, 7, 69, 70
1, 716160, Note_on_c, 7, 76, 73
1, 716328, Note_off_c, 1, 69, 0
1, 716408, Note_off_c, 7, 64, 0
1, 716422, Note_off_c, 7, 69, 0
1, 716422, Note_off_c, 7, 76, 0
1, 716442, Note_on_c, 10, 64, 72
1, 716442, Note_on_c, 10, 69, 52
1, 716442, Note_on_c, 10, 76, 72
1, 716594, Note_off_c, 10, 69, 0
1, 716640, Note_on_c, 1, 64, 68
1, 716640, Note_on_c, 3, 73, 100
1, 716640, Note_on_c, 3, 76, 100
1, 716640, Note_on_c, 6, 64, 68
1, 716640, Note_on_c, 6, 69, 69
1, 716640, Note_on_c, 6, 76, 72
1, 716682, Note_off_c, 10, 64, 0
1, 716688, Note_off_c, 10, 76, 0
1, 716856, Note_off_c, 6, 76, 0
1, 716858, Note_off_c, 6, 69, 0
1, 716872, Note_off_c, 6, 64, 0
1, 717084, Note_off_c, 1, 64, 0
1, 717112, Note_off_c, 3, 73, 64
1, 717112, Note_off_c, 3, 76, 64
1, 717120, Note_on_c, 1, 66, 78
1, 717120, Note_on_c, 3, 64, 100
1, 717120, Note_on_c, 3, 69, 100
1, 717120, Note_on_c, 7, 64, 70
1, 717120, Note_on_c, 7, 69, 83
1, 717120, Note_on_c, 7, 76, 74
1, 717360, Note_off_c, 7, 64, 0
1, 717360, Note_off_c, 7, 76, 0
1, 717370, Note_off_c, 7, 69, 0
1, 717402, Note_on_c, 10, 64, 68
1, 717402, Note_on_c, 10, 69, 70
1, 717402, Note_on_c, 10, 76, 74
1, 717592, Note_off_c, 3, 64, 64
1, 717592, Note_off_c, 3, 69, 64
1, 717600, Note_on_c, 6, 64, 67
1, 717600, Note_on_c, 6, 69, 67
1, 717600, Note_on_c, 6, 76, 72
1, 717634, Note_off_c, 10, 69, 0
1, 717644, Note_off_c, 10, 64, 0
1, 717652, Note_off_c, 10, 76, 0
1, 717788, Note_off_c, 1, 66, 0
1, 717846, Note_off_c, 6, 64, 0
1, 717850, Note_off_c, 6, 69, 0
1, 717866, Note_off_c, 6, 76, 0
1, 718080, Note_on_c, 1, 59, 74
1, 718080, Note_on_c, 3, 71, 100
1, 718080, Note_on_c, 3, 76, 100
1, 718080, Note_on_c, 7, 64, 67
1, 718080, Note_on_c, 7, 69, 78
1, 718080, Note_on_c, 7, 76, 73
1, 718330, Note_off_c, 7, 76, 0
1, 718336, Note_off_c, 7, 69, 0
1, 718344, Note_off_c, 7, 64, 0
1, 718362, Note_on_c, 10, 64, 68
1, 718362, Note_on_c, 10, 69, 69
1, 718362, Note_on_c, 10, 76, 72
1, 718552, Note_off_c, 3, 71, 64
1, 718552, Note_off_c, 3, 76, 64
1, 718560, Note_on_c, 1, 69, 75
1, 718560, Note_on_c, 3, 66, 100
1, 718560, Note_on_c, 3, 69, 100
1, 718560, Note_on_c, 6, 64, 67
1, 718560, Note_on_c, 6, 69, 63
1, 718560, Note_on_c, 6, 76, 72
1, 718568, Note_off_c, 1, 59, 0
1, 718578, Note_off_c, 10, 76, 0
1, 718580, Note_off_c, 10, 69, 0
1, 718594, Note_off_c, 10, 64, 0
1, 718808, Note_off_c, 6, 69, 0
1, 718836, Note_off_c, 6, 64, 0
1, 718852, Note_off_c, 6, 76, 0
1, 719032, Note_off_c, 3, 66, 64
1, 719032, Note_off_c, 3, 69, 64
1, 719040, Note_on_c, 1, 64, 73
1, 719040, Note_on_c, 3, 73, 100
1, 719040, Note_on_c, 3, 76, 100
1, 719040, Note_on_c, 7, 64, 69
1, 719040, Note_on_c, 7, 69, 70
1, 719040, Note_on_c, 7, 76, 73
1, 719166, Note_off_c, 1, 69, 0
1, 719260, Note_off_c, 7, 69, 0
1, 719282, Note_off_c, 7, 76, 0
1, 719292, Note_off_c, 7, 64, 0
1, 719322, Note_on_c, 10, 64, 67
1, 719322, Note_on_c, 10, 69, 67
1, 719322, Note_on_c, 10, 76, 72
1, 719512, Note_off_c, 3, 73, 64
1, 719512, Note_off_c, 3, 76, 64
1, 719520, Note_on_c, 6, 64, 68
1, 719520, Note_on_c, 6, 69, 66
1, 719520, Note_on_c, 6, 76, 70
1, 719568, Note_off_c, 10, 64, 0
1, 719572, Note_off_c, 10, 69, 0
1, 719588, Note_off_c, 10, 76, 0
1, 719716, Note_off_c, 6, 69, 0
1, 719740, Note_off_c, 6, 64, 0
1, 719746, Note_off_c, 1, 64, 0
1, 719758, Note_off_c, 6, 76, 0
1, 720000, Note_on_c, 1, 66, 68
1, 720000, Note_on_c, 3, 71, 100
1, 720000, Note_on_c, 3, 76, 100
1, 720000, Note_on_c, 7, 64, 69
1, 720000, Note_on_c, 7, 69, 75
1, 720000, Note_on_c, 7, 76, 73
1, 720214, Note_off_c, 7, 69, 0
1, 720230, Note_off_c, 7, 64, 0
1, 720244, Note_off_c, 7, 76, 0
1, 720282, Note_on_c, 10, 64, 67
1, 720282, Note_on_c, 10, 69, 63
1, 720282, Note_on_c, 10, 76, 72
1, 720472, Note_off_c, 3, 71, 64
1, 720472, Note_off_c, 3, 76, 64
1, 720480, Note_on_c, 1, 61, 68
1, 720480, Note_on_c, 3, 64, 100
1, 720480, Note_on_c, 3, 69, 100
1, 720480, Note_on_c, 6, 64, 68
1, 720480, Note_on_c, 6, 69, 63
1, 720480, Note_on_c, 6, 76, 72
1, 720516, Note_off_c, 1, 66, 0
1, 720530, Note_off_c, 10, 69, 0
1, 720558, Note_off_c, 10, 64, 0
1, 720574, Note_off_c, 10, 76, 0
1, 720690, Note_off_c, 6, 64, 0
1, 720724, Note_off_c, 6, 76, 0
1, 720742, Note_off_c, 6, 69, 0
1, 720952, Note_off_c, 3, 64, 64
1, 720952, Note_off_c, 3, 69, 64
1, 720960, Note_on_c, 7, 64, 68
1, 720960, Note_on_c, 7, 69, 74
1, 720960, Note_on_c, 7, 76, 74
1, 721184, Note_off_c, 7, 69, 0
1, 721224, Note_off_c, 7, 64, 0
1, 721234, Note_off_c, 7, 76, 0
1, 721242, Note_on_c, 10, 64, 68
1, 721242, Note_on_c, 10, 69, 66
1, 721242, Note_on_c, 10, 76, 70
1, 721250, Note_off_c, 1, 61, 0
1, 721438, Note_off_c, 10, 69, 0
1, 721440, Note_on_c, 1, 69, 77
1, 721440, Note_on_c, 3, 71, 100
1, 721440, Note_on_c, 3, 76, 100
1, 721440, Note_on_c, 6, 64, 70
1, 721440, Note_on_c, 6, 69, 69
1, 721440, Note_on_c, 6, 76, 72
1, 721462, Note_off_c, 10, 64, 0
1, 721480, Note_off_c, 10, 76, 0
1, 721674, Note_off_c, 6, 69, 0
1, 721702, Note_off_c, 6, 64, 0
1, 721702, Note_off_c, 6, 76, 0
1, 721912, Note_off_c, 3, 71, 64
1, 721912, Note_off_c, 3, 76, 64
1, 721920, Note_on_c, 7, 64, 68
1, 721920, Note_on_c, 7, 69, 73
1, 721920, Note_on_c, 7, 76, 73
1, 722064, Note_off_c, 1, 69, 0
1, 722144, Note_off_c, 7, 64, 0
1, 722168, Note_off_c, 7, 69, 0
1, 722168, Note_off_c, 7, 76, 0
1, 722202, Note_on_c, 10, 64, 68
1, 722202, Note_on_c, 10, 69, 63
1, 722202, Note_on_c, 10, 76, 72
1, 722400, Note_on_c, 1, 64, 70
1, 722400, Note_on_c, 3, 73, 100
1, 722400, Note_on_c, 3, 76, 100
1, 722400, Note_on_c, 6, 64, 68
1, 722400, Note_on_c, 6, 69, 70
1, 722400, Note_on_c, 6, 76, 70
1, 722412, Note_off_c, 10, 64, 0
1, 722446, Note_off_c, 10, 76, 0
1, 722464, Note_off_c, 10, 69, 0
1, 722608, Note_off_c, 6, 64, 0
1, 722636, Note_off_c, 6, 69, 0
1, 722640, Note_off_c, 6, 76, 0
1, 722872, Note_off_c, 3, 73, 64
1, 722872, Note_off_c, 3, 76, 64
1, 722880, Note_on_c, 1, 66, 77
1, 722880, Note_on_c, 3, 64, 100
1, 722880, Note_on_c, 3, 69, 100
1, 722880, Note_on_c, 7, 64, 66
1, 722880, Note_on_c, 7, 69, 74
1, 722880, Note_on_c, 7, 76, 73
1, 723032, Note_off_c, 1, 64, 0
1, 723114, Note_off_c, 7, 64, 0
1, 723134, Note_off_c, 7, 76, 0
1, 723162, Note_off_c, 7, 69, 0
1, 723162, Note_on_c, 10, 64, 70
1, 723162, Note_on_c, 10, 69, 69
1, 723162, Note_on_c, 10, 76, 72
1, 723352, Note_off_c, 3, 64, 64
1, 723352, Note_off_c, 3, 69, 64
1, 723360, Note_on_c, 6, 64, 67
1, 723360, Note_on_c, 6, 69, 73
1, 723360, Note_on_c, 6, 76, 74
1, 723396, Note_off_c, 10, 69, 0
1, 723424, Note_off_c, 10, 64, 0
1, 723424, Note_off_c, 10, 76, 0
1, 723524, Note_off_c, 1, 66, 0
1, 723576, Note_off_c, 6, 64, 0
1, 723596, Note_off_c, 6, 76, 0
1, 723606, Note_off_c, 6, 69, 0
1, 723840, Note_on_c, 1, 59, 65
1, 723840, Note_on_c, 3, 71, 100
1, 723840, Note_on_c, 3, 76, 100
1, 723840, Note_on_c, 7, 64, 66
1, 723840, Note_on_c, 7, 69, 77
1, 723840, Note_on_c, 7, 76, 70
1, 724068, Note_off_c, 7, 64, 0
1, 724122, Note_on_c, 10, 64, 68
1, 724122, Note_on_c, 10, 69, 70
1, 724122, Note_on_c, 10, 76, 70
1, 724126, Note_off_c, 7, 69, 0
1, 724150, Note_off_c, 7, 76, 0
1, 724312, Note_off_c, 3, 71, 64
1, 724312, Note_off_c, 3, 76, 64
1, 724320, Note_on_c, 1, 69, 74
1, 724320, Note_on_c, 3, 66, 100
1, 724320, Note_on_c, 3, 69, 100
1, 724320, Note_on_c, 6, 64, 68
1, 724320, Note_on_c, 6, 69, 74
1, 724320, Note_on_c, 6, 76, 75
1, 724330, Note_off_c, 10, 64, 0
1, 724358, Note_off_c, 10, 69, 0
1, 724362, Note_off_c, 10, 76, 0
1, 724414, Note_off_c, 1, 59, 0
1, 724592, Note_off_c, 6, 69, 0
1, 724596, Note_off_c, 6, 64, 0
1, 724610, Note_off_c, 6, 76, 0
1, 724792, Note_off_c, 3, 66, 64
1, 724792, Note_off_c, 3, 69, 64
1, 724800, Note_on_c, 1, 64, 68
1, 724800, Note_on_c, 3, 73, 100
1, 724800, Note_on_c, 3, 76, 100
1, 724800, Note_on_c, 7, 64, 65
1, 724800, Note_on_c, 7, 69, 72
1, 724800, Note_on_c, 7, 76, 72
1, 725012, Note_off_c, 1, 69, 0
1, 725076, Note_off_c, 7, 64, 0
1, 725082, Note_on_c, 10, 64, 67
1, 725082, Note_on_c, 10, 69, 73
1, 725082, Note_on_c, 10, 76, 74
1, 725090, Note_off_c, 7, 69, 0
1, 725092, Note_off_c, 7, 76, 0
1, 725272, Note_off_c, 3, 73, 64
1, 725272, Note_off_c, 3, 76, 64
1, 725280, Note_on_c, 6, 64, 73
1, 725280, Note_on_c, 6, 69, 80
1, 725280, Note_on_c, 6, 76, 77
1, 725298, Note_off_c, 10, 64, 0
1, 725318, Note_off_c, 10, 76, 0
1, 725328, Note_off_c, 10, 69, 0
1, 725414, Note_off_c, 1, 64, 0
1, 725542, Note_off_c, 6, 64, 0
1, 725558, Note_off_c, 6, 69, 0
1, 725568, Note_off_c, 6, 76, 0
1, 725760, Note_on_c, 1, 66, 77
1, 725760, Note_on_c, 3, 71, 100
1, 725760, Note_on_c, 3, 76, 100
1, 725760, Note_on_c, 7, 64, 67
1, 725760, Note_on_c, 7, 69, 75
1, 725760, Note_on_c, 7, 76, 70
1, 725990, Note_off_c, 7, 69, 0
1, 726008, Note_off_c, 7, 64, 0
1, 726018, Note_off_c, 7, 76, 0
1, 726042, Note_on_c, 10, 64, 68
1, 726042, Note_on_c, 10, 69, 74
1, 726042, Note_on_c, 10, 76, 75
1, 726232, Note_off_c, 3, 71, 64
1, 726232, Note_off_c, 3, 76, 64
1, 726240, Note_on_c, 1, 61, 70
1, 726240, Note_on_c, 3, 64, 100
1, 726240, Note_on_c, 3, 69, 100
1, 726240, Note_on_c, 6, 64, 68
1, 726240, Note_on_c, 6, 69, 70
1, 726240, Note_on_c, 6, 76, 74
1, 726314, Note_off_c, 10, 69, 0
1, 726318, Note_off_c, 10, 64, 0
1, 726332, Note_off_c, 10, 76, 0
1, 726402, Note_off_c, 1, 66, 0
1, 726526, Note_off_c, 6, 64, 0
1, 726538, Note_off_c, 6, 69, 0
1, 726538, Note_off_c, 6, 76, 0
1, 726712, Note_off_c, 3, 64, 64
1, 726712, Note_off_c, 3, 69, 64
1, 726720, Note_on_c, 7, 64, 66
1, 726720, Note_on_c, 7, 69, 68
1, 726720, Note_on_c, 7, 76, 72
1, 726868, Note_off_c, 1, 61, 0
1, 726980, Note_off_c, 7, 69, 0
1, 726990, Note_off_c, 7, 64, 0
1, 726994, Note_off_c, 7, 76, 0
1, 727002, Note_on_c, 10, 64, 73
1, 727002, Note_on_c, 10, 69, 80
1, 727002, Note_on_c, 10, 76, 77
1, 727200, Note_on_c, 1, 69, 77
1, 727200, Note_on_c, 3, 71, 100
1, 727200, Note_on_c, 3, 76, 100
1, 727200, Note_on_c, 6, 64, 70
1, 727200, Note_on_c, 6, 69, 74
1, 727200, Note_on_c, 6, 76, 74
1, 727264, Note_off_c, 10, 64, 0
1, 727280, Note_off_c, 10, 69, 0
1, 727290, Note_off_c, 10, 76, 0
1, 727404, Note_off_c, 6, 64, 0
1, 727434, Note_off_c, 6, 76, 0
1, 727472, Note_off_c, 6, 69, 0
1, 727672, Note_off_c, 3, 71, 64
1, 727672, Note_off_c, 3, 76, 64
1, 727680, Note_on_c, 7, 64, 62
1, 727680, Note_on_c, 7, 69, 60
1, 727680, Note_on_c, 7, 76, 70
1, 727848, Note_off_c, 1, 69, 0
1, 727940, Note_off_c, 7, 69, 0
1, 727958, Note_off_c, 7, 64, 0
1, 727962, Note_on_c, 10, 64, 68
1, 727962, Note_on_c, 10, 69, 70
1, 727962, Note_on_c, 10, 76, 74
1, 728018, Note_off_c, 7, 76, 0
1, 728160, Note_on_c, 1, 64, 68
1, 728160, Note_on_c, 3, 73, 100
1, 728160, Note_on_c, 3, 76, 100
1, 728160, Note_on_c, 6, 64, 68
1, 728160, Note_on_c, 6, 69, 68
1, 728160, Note_on_c, 6, 76, 72
1, 728248, Note_off_c, 10, 64, 0
1, 728260, Note_off_c, 10, 69, 0
1, 728260, Note_off_c, 10, 76, 0
1, 728366, Note_off_c, 6, 69, 0
1, 728374, Note_off_c, 6, 64, 0
1, 728384, Note_off_c, 6, 76, 0
1, 728604, Note_off_c, 1, 64, 0
1, 728632, Note_off_c, 3, 73, 64
1, 728632, Note_off_c, 3, 76, 64
1, 728640, Note_on_c, 1, 66, 78
1, 728640, Note_on_c, 3, 64, 100
1, 728640, Note_on_c, 3, 69, 100
1, 728640, Note_on_c, 7, 64, 56
1, 728640, Note_on_c, 7, 69, 69
1, 728640, Note_on_c, 7, 76, 73
1, 728906, Note_off_c, 7, 64, 0
1, 728922, Note_on_c, 10, 64, 70
1, 728922, Note_on_c, 10, 69, 74
1, 728922, Note_on_c, 10, 76, 74
1, 728934, Note_off_c, 7, 69, 0
1, 728942, Note_off_c, 7, 76, 0
1, 729112, Note_off_c, 3, 64, 64
1, 729112, Note_off_c, 3, 69, 64
1, 729120, Note_on_c, 6, 64, 70
1, 729120, Note_on_c, 6, 69, 70
1, 729120, Note_on_c, 6, 76, 75
1, 729126, Note_off_c, 10, 64, 0
1, 729156, Note_off_c, 10, 76, 0
1, 729194, Note_off_c, 10, 69, 0
1, 729308, Note_off_c, 1, 66, 0
1, 729348, Note_off_c, 6, 69, 0
1, 729390, Note_off_c, 6, 64, 0
1, 729428, Note_off_c, 6, 76, 0
1, 729600, Note_on_c, 1, 59, 74
1, 729600, Note_on_c, 3, 71, 100
1, 729600, Note_on_c, 3, 76, 100
1, 729600, Note_on_c, 7, 64, 66
1, 729600, Note_on_c, 7, 69, 70
1, 729600, Note_on_c, 7, 76, 75
1, 729850, Note_off_c, 7, 69, 0
1, 729864, Note_off_c, 7, 64, 0
1, 729882, Note_on_c, 10, 64, 68
1, 729882, Note_on_c, 10, 69, 68
1, 729882, Note_on_c, 10, 76, 72
1, 729890, Note_off_c, 7, 76, 0
1, 730072, Note_off_c, 3, 71, 64
1, 730072, Note_off_c, 3, 76, 64
1, 730080, Note_on_c, 1, 69, 75
1, 730080, Note_on_c, 3, 66, 100
1, 730080, Note_on_c, 3, 69, 100
1, 730080, Note_on_c, 6, 64, 69
1, 730080, Note_on_c, 6, 69, 69
1, 730080, Note_on_c, 6, 76, 73
1, 730088, Note_off_c, 1, 59, 0
1, 730088, Note_off_c, 10, 69, 0
1, 730096, Note_off_c, 10, 64, 0
1, 730106, Note_off_c, 10, 76, 0
1, 730346, Note_off_c, 6, 64, 0
1, 730384, Note_off_c, 6, 69, 0
1, 730384, Note_off_c, 6, 76, 0
1, 730552, Note_off_c, 3, 66, 64
1, 730552, Note_off_c, 3, 69, 64
1, 730560, Note_on_c, 1, 64, 73
1, 730560, Note_on_c, 3, 73, 100
1, 730560, Note_on_c, 3, 76, 100
1, 730560, Note_on_c, 7, 64, 66
1, 730560, Note_on_c, 7, 69, 70
1, 730560, Note_on_c, 7, 76, 75
1, 730686, Note_off_c, 1, 69, 0
1, 730810, Note_off_c, 7, 69, 0
1, 730824, Note_off_c, 7, 64, 0
1, 730842, Note_on_c, 10, 64, 70
1, 730842, Note_on_c, 10, 69, 70
1, 730842, Note_on_c, 10, 76, 75
1, 730850, Note_off_c, 7, 76, 0
1, 731032, Note_off_c, 3, 73, 64
1, 731032, Note_off_c, 3, 76, 64
1, 731040, Note_on_c, 6, 64, 67
1, 731040, Note_on_c, 6, 69, 63
1, 731040, Note_on_c, 6, 76, 74
1, 731070, Note_off_c, 10, 69, 0
1, 731112, Note_off_c, 10, 64, 0
1, 731150, Note_off_c, 10, 76, 0
1, 731244, Note_off_c, 6, 69, 0
1, 731266, Note_off_c, 1, 64, 0
1, 731306, Note_off_c, 6, 64, 0
1, 731306, Note_off_c, 6, 76, 0
1, 731520, Note_on_c, 1, 66, 68
1, 731520, Note_on_c, 3, 71, 100
1, 731520, Note_on_c, 3, 76, 100
1, 731520, Note_on_c, 7, 64, 72
1, 731520, Note_on_c, 7, 69, 80
1, 731520, Note_on_c, 7, 76, 77
1, 731760, Note_off_c, 7, 76, 0
1, 731770, Note_off_c, 7, 64, 0
1, 731770, Note_off_c, 7, 69, 0
1, 731802, Note_on_c, 10, 64, 69
1, 731802, Note_on_c, 10, 69, 69
1, 731802, Note_on_c, 10, 76, 73
1, 731992, Note_off_c, 3, 71, 64
1, 731992, Note_off_c, 3, 76, 64
1, 732000, Note_on_c, 1, 61, 68
1, 732000, Note_on_c, 3, 64, 100
1, 732000, Note_on_c, 3, 69, 100
1, 732000, Note_on_c, 6, 64, 66
1, 732000, Note_on_c, 6, 69, 63
1, 732000, Note_on_c, 6, 76, 74
1, 732036, Note_off_c, 1, 66, 0
1, 732068, Note_off_c, 10, 64, 0
1, 732106, Note_off_c, 10, 69, 0
1, 732106, Note_off_c, 10, 76, 0
1, 732230, Note_off_c, 6, 69, 0
1, 732236, Note_off_c, 6, 64, 0
1, 732274, Note_off_c, 6, 76, 0
1, 732472, Note_off_c, 3, 64, 64
1, 732472, Note_off_c, 3, 69, 64
1, 732480, Note_on_c, 7, 64, 70
1, 732480, Note_on_c, 7, 69, 77
1, 732480, Note_on_c, 7, 76, 77
1, 732734, Note_off_c, 7, 64, 0
1, 732762, Note_off_c, 7, 69, 0
1, 732762, Note_on_c, 10, 64, 67
1, 732762, Note_on_c, 10, 69, 63
1, 732762, Note_on_c, 10, 76, 74
1, 732770, Note_off_c, 1, 61, 0
1, 732770, Note_off_c, 7, 76, 0
1, 732960, Note_on_c, 1, 69, 77
1, 732960, Note_on_c, 3, 71, 100
1, 732960, Note_on_c, 3, 76, 100
1, 732960, Note_on_c, 6, 64, 68
1, 732960, Note_on_c, 6, 69, 74
1, 732960, Note_on_c, 6, 76, 74
1, 732966, Note_off_c, 10, 69, 0
1, 733028, Note_off_c, 10, 64, 0
1, 733028, Note_off_c, 10, 76, 0
1, 733220, Note_off_c, 6, 69, 0
1, 733250, Note_off_c, 6, 76, 0
1, 733254, Note_off_c, 6, 64, 0
1, 733432, Note_off_c, 3, 71, 64
1, 733432, Note_off_c, 3, 76, 64
1, 733440, Note_on_c, 7, 64, 70
1, 733440, Note_on_c, 7, 69, 73
1, 733440, Note_on_c, 7, 76, 74
1, 733584, Note_off_c, 1, 69, 0
1, 733680, Note_off_c, 7, 64, 0
1, 733686, Note_off_c, 7, 69, 0
1, 733700, Note_off_c, 7, 76, 0
1, 733722, Note_on_c, 10, 64, 66
1, 733722, Note_on_c, 10, 69, 63
1, 733722, Note_on_c, 10, 76, 74
1, 733920, Note_on_c, 1, 64, 70
1, 733920, Note_on_c, 3, 73, 100
1, 733920, Note_on_c, 3, 76, 100
1, 733920, Note_on_c, 6, 64, 73
1, 733920, Note_on_c, 6, 69, 82
1, 733920, Note_on_c, 6, 76, 77
1, 733952, Note_off_c, 10, 69, 0
1, 733958, Note_off_c, 10, 64, 0
1, 733996, Note_off_c, 10, 76, 0
1, 734198, Note_off_c, 6, 69, 0
1, 734210, Note_off_c, 6, 64, 0
1, 734218, Note_off_c, 6, 76, 0
1, 734392, Note_off_c, 3, 73, 64
1, 734392, Note_off_c, 3, 76, 64
1, 734400, Note_on_c, 1, 66, 77
1, 734400, Note_on_c, 3, 64, 100
1, 734400, Note_on_c, 3, 69, 100
1, 734400, Note_on_c, 7, 64, 72
1, 734400, Note_on_c, 7, 69, 77
1, 734400, Note_on_c, 7, 76, 75
1, 734552, Note_off_c, 1, 64, 0
1, 734608, Note_off_c, 7, 69, 0
1, 734622, Note_off_c, 7, 64, 0
1, 734642, Note_off_c, 7, 76, 0
1, 734682, Note_on_c, 10, 64, 68
1, 734682, Note_on_c, 10, 69, 74
1, 734682, Note_on_c, 10, 76, 74
1, 734872, Note_off_c, 3, 64, 64
1, 734872, Note_off_c, 3, 69, 64
1, 734880, Note_on_c, 6, 64, 72
1, 734880, Note_on_c, 6, 69, 75
1, 734880, Note_on_c, 6, 76, 73
1, 734942, Note_off_c, 10, 69, 0
1, 734972, Note_off_c, 10, 76, 0
1, 734976, Note_off_c, 10, 64, 0
1, 735044, Note_off_c, 1, 66, 0
1, 735168, Note_off_c, 6, 76, 0
1, 735170, Note_off_c, 6, 69, 0
1, 735178, Note_off_c, 6, 64, 0
1, 735360, Note_on_c, 1, 59, 65
1, 735360, Note_on_c, 3, 71, 100
1, 735360, Note_on_c, 3, 76, 100
1, 735360, Note_on_c, 7, 64, 70
1, 735360, Note_on_c, 7, 69, 78
1, 735360, Note_on_c, 7, 76, 77
1, 735602, Note_off_c, 7, 64, 0
1, 735624, Note_off_c, 7, 76, 0
1, 735642, Note_on_c, 10, 64, 73
1, 735642, Note_on_c, 10, 69, 82
1, 735642, Note_on_c, 10, 76, 77
1, 735648, Note_off_c, 7, 69, 0
1, 735832, Note_off_c, 3, 71, 64
1, 735832, Note_off_c, 3, 76, 64
1, 735840, Note_on_c, 1, 69, 74
1, 735840, Note_on_c, 3, 66, 100
1, 735840, Note_on_c, 3, 69, 100
1, 735840, Note_on_c, 6, 64, 69
1, 735840, Note_on_c, 6, 69, 70
1, 735840, Note_on_c, 6, 76, 72
1, 735920, Note_off_c, 10, 69, 0
1, 735932, Note_off_c, 10, 64, 0
1, 735934, Note_off_c, 1, 59, 0
1, 735940, Note_off_c, 10, 76, 0
1, 736104, Note_off_c, 6, 69, 0
1, 736128, Note_off_c, 6, 64, 0
1, 736144, Note_off_c, 6, 76, 0
1, 736312, Note_off_c, 3, 66, 64
1, 736312, Note_off_c, 3, 69, 64
1, 736320, Note_on_c, 1, 64, 68
1, 736320, Note_on_c, 3, 73, 100
1, 736320, Note_on_c, 3, 76, 100
1, 736320, Note_on_c, 7, 64, 70
1, 736320, Note_on_c, 7, 69, 72
1, 736320, Note_on_c, 7, 76, 77
1, 736532, Note_off_c, 1, 69, 0
1, 736574, Note_off_c, 7, 64, 0
1, 736586, Note_off_c, 7, 69, 0
1, 736602, Note_on_c, 10, 64, 72
1, 736602, Note_on_c, 10, 69, 75
1, 736602, Note_on_c, 10, 76, 73
1, 736642, Note_off_c, 7, 76, 0
1, 736792, Note_off_c, 3, 73, 64
1, 736792, Note_off_c, 3, 76, 64
1, 736800, Note_on_c, 6, 64, 68
1, 736800, Note_on_c, 6, 69, 77
1, 736800, Note_on_c, 6, 76, 73
1, 736890, Note_off_c, 10, 76, 0
1, 736892, Note_off_c, 10, 69, 0
1, 736900, Note_off_c, 10, 64, 0
1, 736934, Note_off_c, 1, 64, 0
1, 737066, Note_off_c, 6, 64, 0
1, 737084, Note_off_c, 6, 69, 0
1, 737084, Note_off_c, 6, 76, 0
1, 737280, Note_on_c, 1, 66, 77
1, 737280, Note_on_c, 3, 71, 100
1, 737280, Note_on_c, 3, 76, 100
1, 737280, Note_on_c, 7, 64, 73
1, 737280, Note_on_c, 7, 69, 77
1, 737280, Note_on_c, 7, 76, 74
1, 737562, Note_on_c, 10, 64, 69
1, 737562, Note_on_c, 10, 69, 70
1, 737562, Note_on_c, 10, 76, 72
1, 737564, Note_off_c, 7, 69, 0
1, 737596, Note_off_c, 7, 76, 0
1, 737602, Note_off_c, 7, 64, 0
1, 737752, Note_off_c, 3, 71, 64
1, 737752, Note_off_c, 3, 76, 64
1, 737760, Note_on_c, 1, 61, 70
1, 737760, Note_on_c, 3, 64, 100
1, 737760, Note_on_c, 3, 69, 100
1, 737760, Note_on_c, 6, 64, 72
1, 737760, Note_on_c, 6, 69, 52
1, 737760, Note_on_c, 6, 76, 72
1, 737826, Note_off_c, 10, 69, 0
1, 737850, Note_off_c, 10, 64, 0
1, 737866, Note_off_c, 10, 76, 0
1, 737912, Note_off_c, 6, 69, 0
1, 737922, Note_off_c, 1, 66, 0
1, 738000, Note_off_c, 6, 64, 0
1, 738006, Note_off_c, 6, 76, 0
1, 738232, Note_off_c, 3, 64, 64
1, 738232, Note_off_c, 3, 69, 64
1, 738240, Note_on_c, 7, 64, 68
1, 738240, Note_on_c, 7, 69, 70
1, 738240, Note_on_c, 7, 76, 72
1, 738388, Note_off_c, 1, 61, 0
1, 738522, Note_on_c, 10, 64, 68
1, 738522, Note_on_c, 10, 69, 77
1, 738522, Note_on_c, 10, 76, 73
1, 738530, Note_off_c, 7, 69, 0
1, 738548, Note_off_c, 7, 76, 0
1, 738554, Note_off_c, 7, 64, 0
1, 738720, Note_on_c, 1, 69, 77
1, 738720, Note_on_c, 3, 71, 100
1, 738720, Note_on_c, 3, 76, 100
1, 738720, Note_on_c, 6, 64, 68
1, 738720, Note_on_c, 6, 69, 70
1, 738720, Note_on_c, 6, 76, 74
1, 738788, Note_off_c, 10, 64, 0
1, 738806, Note_off_c, 10, 69, 0
1, 738806, Note_off_c, 10, 76, 0
1, 738952, Note_off_c, 6, 69, 0
1, 738962, Note_off_c, 6, 64, 0
1, 738970, Note_off_c, 6, 76, 0
1, 739192, Note_off_c, 3, 71, 64
1, 739192, Note_off_c, 3, 76, 64
1, 739200, Note_on_c, 7, 64, 68
1, 739200, Note_on_c, 7, 69, 70
1, 739200, Note_on_c, 7, 76, 73
1, 739368, Note_off_c, 1, 69, 0
1, 739448, Note_off_c, 7, 64, 0
1, 739462, Note_off_c, 7, 69, 0
1, 739462, Note_off_c, 7, 76, 0
1, 739482, Note_on_c, 10, 64, 72
1, 739482, Note_on_c, 10, 69, 52
1, 739482, Note_on_c, 10, 76, 72
1, 739634, Note_off_c, 10, 69, 0
1, 739680, Note_on_c, 1, 64, 68
1, 739680, Note_on_c, 3, 73, 100
1, 739680, Note_on_c, 3, 76, 100
1, 739680, Note_on_c, 6, 64, 68
1, 739680, Note_on_c, 6, 69, 69
1, 739680, Note_on_c, 6, 76, 72
1, 739722, Note_off_c, 10, 64, 0
1, 739728, Note_off_c, 10, 76, 0
1, 739896, Note_off_c, 6, 76, 0
1, 739898, Note_off_c, 6, 69, 0
1, 739912, Note_off_c, 6, 64, 0
1, 740124, Note_off_c, 1, 64, 0
1, 740152, Note_off_c, 3, 73, 64
1, 740152, Note_off_c, 3, 76, 64
1, 740160, Note_on_c, 1, 66, 78
1, 740160, Note_on_c, 3, 64, 100
1, 740160, Note_on_c, 3, 69, 100
1, 740160, Note_on_c, 7, 64, 70
1, 740160, Note_on_c, 7, 69, 83
1, 740160, Note_on_c, 7, 76, 74
1, 740400, Note_off_c, 7, 64, 0
1, 740400, Note_off_c, 7, 76, 0
1, 740410, Note_off_c, 7, 69, 0
1, 740442, Note_on_c, 10, 64, 68
1, 740442, Note_on_c, 10, 69, 70
1, 740442, Note_on_c, 10, 76, 74
1, 740632, Note_off_c, 3, 64, 64
1, 740632, Note_off_c, 3, 69, 64
1, 740640, Note_on_c, 6, 64, 67
1, 740640, Note_on_c, 6, 69, 67
1, 740640, Note_on_c, 6, 76, 72
1, 740674, Note_off_c, 10, 69, 0
1, 740684, Note_off_c, 10, 64, 0
1, 740692, Note_off_c, 10, 76, 0
1, 740828, Note_off_c, 1, 66, 0
1, 740886, Note_off_c, 6, 64, 0
1, 740890, Note_off_c, 6, 69, 0
1, 740906, Note_off_c, 6, 76, 0
1, 740906, End_track
0, 0, End_of_file
