0, 0, Header, 1, 15, 120
1, 0, Start_track
1, 0, Time_signature, 4, 3, 12, 8
1, 0, Key_signature, -3, "major"
1, 0, Tempo, 1000000
1, 0, Marker_t, "Symphony Of Psalms by Igor Stravinsky"
1, 16320, Time_signature, 3, 3, 12, 8
1, 16500, Time_signature, 2, 3, 12, 8
1, 16620, Time_signature, 4, 3, 12, 8
1, 16620, End_track
2, 0, Start_track
2, 0, MIDI_port, 0
2, 0, Title_t, "oboe"
2, 0, Program_c, 0, 68
2, 0, Control_c, 0, 7, 127
2, 0, Control_c, 0, 10, 13
2, 0, Note_on_c, 0, 72, 52
2, 42, Note_on_c, 0, 72, 0
2, 60, Note_on_c, 0, 75, 60
2, 104, Note_on_c, 0, 75, 0
2, 120, Note_on_c, 0, 83, 52
2, 165, Note_on_c, 0, 83, 0
2, 180, Note_on_c, 0, 74, 60
2, 253, Note_on_c, 0, 74, 0
2, 270, Note_on_c, 0, 72, 45
2, 300, Note_on_c, 0, 75, 68
2, 305, Note_on_c, 0, 72, 0
2, 326, Note_on_c, 0, 75, 0
2, 330, Note_on_c, 0, 83, 88
2, 390, Note_on_c, 0, 83, 0
2, 390, Note_on_c, 0, 74, 52
2, 420, Note_on_c, 0, 84, 45
2, 422, Note_on_c, 0, 74, 0
2, 449, Note_on_c, 0, 84, 0
2, 450, Note_on_c, 0, 75, 52
2, 479, Note_on_c, 0, 75, 0
2, 480, Note_on_c, 0, 83, 52
2, 540, Note_on_c, 0, 83, 0
2, 540, Note_on_c, 0, 74, 52
2, 581, Note_on_c, 0, 74, 0
2, 600, Note_on_c, 0, 72, 45
2, 630, Note_on_c, 0, 75, 45
2, 635, Note_on_c, 0, 72, 0
2, 660, Note_on_c, 0, 83, 52
2, 664, Note_on_c, 0, 75, 0
2, 686, Note_on_c, 0, 83, 0
2, 690, Note_on_c, 0, 74, 39
2, 720, Note_on_c, 0, 84, 39
2, 722, Note_on_c, 0, 74, 0
2, 740, Note_on_c, 0, 84, 0
2, 750, Note_on_c, 0, 73, 68
2, 780, Note_on_c, 0, 81, 52
2, 784, Note_on_c, 0, 73, 0
2, 810, Note_on_c, 0, 72, 52
2, 816, Note_on_c, 0, 81, 0
2, 832, Note_on_c, 0, 72, 0
2, 840, Note_on_c, 0, 82, 60
2, 900, Note_on_c, 0, 71, 52
2, 901, Note_on_c, 0, 82, 0
2, 950, Note_on_c, 0, 71, 0
2, 990, Note_on_c, 0, 79, 45
2, 1020, Note_on_c, 0, 70, 45
2, 1023, Note_on_c, 0, 79, 0
2, 1050, Note_on_c, 0, 81, 45
2, 1051, Note_on_c, 0, 70, 0
2, 1079, Note_on_c, 0, 81, 0
2, 1080, Note_on_c, 0, 69, 52
2, 1109, Note_on_c, 0, 69, 0
2, 1110, Note_on_c, 0, 77, 52
2, 1140, Note_on_c, 0, 77, 0
2, 1140, Note_on_c, 0, 68, 52
2, 1170, Note_on_c, 0, 78, 60
2, 1172, Note_on_c, 0, 68, 0
2, 1203, Note_on_c, 0, 78, 0
2, 1230, Note_on_c, 0, 70, 52
2, 1260, Note_on_c, 0, 72, 52
2, 1262, Note_on_c, 0, 70, 0
2, 1290, Note_on_c, 0, 72, 0
2, 1290, Note_on_c, 0, 74, 45
2, 1320, Note_on_c, 0, 75, 60
2, 1321, Note_on_c, 0, 74, 0
2, 1440, Note_on_c, 0, 74, 60
2, 1443, Note_on_c, 0, 75, 0
2, 1560, Note_on_c, 0, 73, 52
2, 1563, Note_on_c, 0, 74, 0
2, 1680, Note_on_c, 0, 73, 0
2, 1680, Note_on_c, 0, 72, 52
2, 1706, Note_on_c, 0, 72, 0
2, 1710, Note_on_c, 0, 74, 45
2, 1740, Note_on_c, 0, 75, 52
2, 1741, Note_on_c, 0, 74, 0
2, 1860, Note_on_c, 0, 75, 0
2, 1860, Note_on_c, 0, 69, 45
2, 1920, Note_on_c, 0, 74, 52
2, 1921, Note_on_c, 0, 69, 0
2, 1978, Note_on_c, 0, 74, 0
2, 1980, Note_on_c, 0, 73, 52
2, 2040, Note_on_c, 0, 74, 52
2, 2041, Note_on_c, 0, 73, 0
2, 2067, Note_on_c, 0, 74, 0
2, 2070, Note_on_c, 0, 75, 45
2, 2098, Note_on_c, 0, 75, 0
2, 2100, Note_on_c, 0, 74, 34
2, 2129, Note_on_c, 0, 74, 0
2, 2130, Note_on_c, 0, 72, 39
2, 2160, Note_on_c, 0, 72, 0
2, 2160, Note_on_c, 0, 74, 39
2, 2190, Note_on_c, 0, 74, 0
2, 2190, Note_on_c, 0, 64, 39
2, 2220, Note_on_c, 0, 66, 52
2, 2222, Note_on_c, 0, 64, 0
2, 2300, Note_on_c, 0, 66, 0
2, 2310, Note_on_c, 0, 67, 45
2, 2340, Note_on_c, 0, 69, 52
2, 2341, Note_on_c, 0, 67, 0
2, 2370, Note_on_c, 0, 70, 52
2, 2372, Note_on_c, 0, 69, 0
2, 2398, Note_on_c, 0, 70, 0
2, 2400, Note_on_c, 0, 71, 52
2, 2430, Note_on_c, 0, 72, 52
2, 2432, Note_on_c, 0, 71, 0
2, 2459, Note_on_c, 0, 72, 0
2, 2460, Note_on_c, 0, 73, 60
2, 2490, Note_on_c, 0, 73, 0
2, 2490, Note_on_c, 0, 64, 52
2, 2520, Note_on_c, 0, 71, 60
2, 2521, Note_on_c, 0, 64, 0
2, 2550, Note_on_c, 0, 72, 45
2, 2552, Note_on_c, 0, 71, 0
2, 2579, Note_on_c, 0, 72, 0
2, 2580, Note_on_c, 0, 73, 45
2, 2610, Note_on_c, 0, 63, 52
2, 2614, Note_on_c, 0, 73, 0
2, 2640, Note_on_c, 0, 71, 60
2, 2642, Note_on_c, 0, 63, 0
2, 2668, Note_on_c, 0, 71, 0
2, 2670, Note_on_c, 0, 70, 52
2, 2730, Note_on_c, 0, 69, 52
2, 2731, Note_on_c, 0, 70, 0
2, 2790, Note_on_c, 0, 68, 60
2, 2791, Note_on_c, 0, 69, 0
2, 2820, Note_on_c, 0, 67, 45
2, 2821, Note_on_c, 0, 68, 0
2, 2849, Note_on_c, 0, 67, 0
2, 2850, Note_on_c, 0, 66, 78
2, 2880, Note_on_c, 0, 66, 0
2, 2880, Note_on_c, 0, 65, 68
2, 2910, Note_on_c, 0, 75, 60
2, 2911, Note_on_c, 0, 65, 0
2, 2940, Note_on_c, 0, 74, 60
2, 2942, Note_on_c, 0, 75, 0
2, 2968, Note_on_c, 0, 74, 0
2, 2970, Note_on_c, 0, 72, 34
2, 3000, Note_on_c, 0, 74, 52
2, 3001, Note_on_c, 0, 72, 0
2, 3053, Note_on_c, 0, 74, 0
2, 3060, Note_on_c, 0, 72, 34
2, 3090, Note_on_c, 0, 74, 45
2, 3091, Note_on_c, 0, 72, 0
2, 3120, Note_on_c, 0, 74, 0
2, 3120, Note_on_c, 0, 75, 68
2, 3149, Note_on_c, 0, 66, 68
2, 3150, Note_on_c, 0, 75, 0
2, 3177, Note_on_c, 0, 66, 0
2, 3177, Note_on_c, 0, 74, 68
2, 3266, Note_on_c, 0, 75, 68
2, 3268, Note_on_c, 0, 74, 0
2, 3278, Note_on_c, 0, 75, 0
2, 3279, Note_on_c, 0, 77, 45
2, 3279, Control_c, 0, 10, 63
2, 3294, Note_on_c, 0, 75, 68
2, 3297, Note_on_c, 0, 77, 0
2, 3324, Note_on_c, 0, 74, 60
2, 3325, Note_on_c, 0, 75, 0
2, 3355, Note_on_c, 0, 75, 68
2, 3356, Note_on_c, 0, 74, 0
2, 3385, Note_on_c, 0, 80, 68
2, 3388, Note_on_c, 0, 75, 0
2, 3411, Note_on_c, 0, 80, 0
2, 3414, Note_on_c, 0, 79, 52
2, 3446, Note_on_c, 0, 79, 0
2, 3447, Note_on_c, 0, 77, 52
2, 3476, Note_on_c, 0, 77, 0
2, 3478, Note_on_c, 0, 79, 68
2, 3508, Note_on_c, 0, 71, 60
2, 3510, Note_on_c, 0, 79, 0
2, 3538, Note_on_c, 0, 72, 52
2, 3541, Note_on_c, 0, 71, 0
2, 3570, Note_on_c, 0, 73, 68
2, 3573, Note_on_c, 0, 72, 0
2, 3584, Note_on_c, 0, 75, 52
2, 3586, Note_on_c, 0, 73, 0
2, 3596, Note_on_c, 0, 75, 0
2, 3598, Note_on_c, 0, 77, 60
2, 3626, Note_on_c, 0, 77, 0
2, 3627, Note_on_c, 0, 75, 60
2, 3688, Note_on_c, 0, 75, 0
2, 3688, Note_on_c, 0, 74, 52
2, 3702, Note_on_c, 0, 72, 60
2, 3704, Note_on_c, 0, 74, 0
2, 3718, Note_on_c, 0, 74, 68
2, 3719, Note_on_c, 0, 72, 0
2, 3778, Note_on_c, 0, 74, 0
2, 3837, Note_on_c, 0, 75, 68
2, 3901, Note_on_c, 0, 79, 60
2, 3903, Note_on_c, 0, 75, 0
2, 3965, Note_on_c, 0, 77, 60
2, 3966, Note_on_c, 0, 79, 0
2, 3993, Note_on_c, 0, 77, 0
2, 3993, Note_on_c, 0, 79, 68
2, 4022, Note_on_c, 0, 79, 0
2, 4024, Note_on_c, 0, 80, 68
2, 4080, Note_on_c, 0, 80, 0
2, 4080, Note_on_c, 0, 79, 60
2, 4170, Note_on_c, 0, 81, 45
2, 4174, Note_on_c, 0, 79, 0
2, 4182, Note_on_c, 0, 82, 60
2, 4183, Note_on_c, 0, 81, 0
2, 4198, Note_on_c, 0, 82, 0
2, 4198, Note_on_c, 0, 81, 60
2, 4293, Note_on_c, 0, 81, 0
2, 4293, Note_on_c, 0, 79, 52
2, 4306, Note_on_c, 0, 81, 52
2, 4308, Note_on_c, 0, 79, 0
2, 4322, Note_on_c, 0, 81, 0
2, 4322, Note_on_c, 0, 82, 60
2, 4449, Note_on_c, 0, 82, 0
2, 4563, Note_on_c, 0, 82, 52
2, 4590, Note_on_c, 0, 87, 60
2, 4592, Note_on_c, 0, 82, 0
2, 4619, Note_on_c, 0, 87, 0
2, 4620, Note_on_c, 0, 86, 52
2, 4653, Note_on_c, 0, 84, 52
2, 4655, Note_on_c, 0, 86, 0
2, 4678, Note_on_c, 0, 84, 0
2, 4683, Note_on_c, 0, 86, 60
2, 4714, Note_on_c, 0, 86, 0
2, 4714, Note_on_c, 0, 78, 60
2, 4744, Note_on_c, 0, 78, 0
2, 4744, Note_on_c, 0, 79, 60
2, 4777, Note_on_c, 0, 81, 52
2, 4779, Note_on_c, 0, 79, 0
2, 4790, Note_on_c, 0, 82, 60
2, 4791, Note_on_c, 0, 81, 0
2, 4803, Note_on_c, 0, 82, 0
2, 4806, Note_on_c, 0, 84, 45
2, 4835, Note_on_c, 0, 82, 60
2, 4837, Note_on_c, 0, 84, 0
2, 4893, Note_on_c, 0, 81, 52
2, 4896, Note_on_c, 0, 82, 0
2, 4905, Note_on_c, 0, 79, 52
2, 4907, Note_on_c, 0, 81, 0
2, 4919, Note_on_c, 0, 79, 0
2, 4921, Note_on_c, 0, 81, 68
2, 5091, Note_on_c, 0, 81, 0
2, 5100, Note_on_c, 0, 81, 45
2, 5129, Note_on_c, 0, 82, 60
2, 5131, Note_on_c, 0, 81, 0
2, 5162, Note_on_c, 0, 84, 60
2, 5163, Note_on_c, 0, 82, 0
2, 5193, Note_on_c, 0, 82, 68
2, 5195, Note_on_c, 0, 84, 0
2, 5223, Note_on_c, 0, 82, 0
2, 5224, Note_on_c, 0, 81, 52
2, 5256, Note_on_c, 0, 81, 0
2, 5256, Note_on_c, 0, 79, 60
2, 5280, Note_on_c, 0, 79, 0
2, 7442, Note_on_c, 0, 54, 60
2, 7470, Note_on_c, 0, 56, 68
2, 7473, Note_on_c, 0, 54, 0
2, 7501, Note_on_c, 0, 58, 68
2, 7504, Note_on_c, 0, 56, 0
2, 7533, Note_on_c, 0, 60, 60
2, 7534, Note_on_c, 0, 58, 0
2, 7564, Note_on_c, 0, 61, 68
2, 7566, Note_on_c, 0, 60, 0
2, 7624, Note_on_c, 0, 56, 60
2, 7627, Note_on_c, 0, 61, 0
2, 7684, Note_on_c, 0, 54, 60
2, 7687, Note_on_c, 0, 56, 0
2, 7714, Note_on_c, 0, 61, 60
2, 7716, Note_on_c, 0, 54, 0
2, 7744, Note_on_c, 0, 60, 60
2, 7747, Note_on_c, 0, 61, 0
2, 7773, Note_on_c, 0, 58, 68
2, 7776, Note_on_c, 0, 60, 0
2, 7802, Note_on_c, 0, 58, 0
2, 7802, Note_on_c, 0, 60, 68
2, 7865, Note_on_c, 0, 58, 78
2, 7867, Note_on_c, 0, 60, 0
2, 7893, Note_on_c, 0, 60, 60
2, 7894, Note_on_c, 0, 58, 0
2, 7923, Note_on_c, 0, 60, 0
2, 7924, Note_on_c, 0, 61, 68
2, 7952, Note_on_c, 0, 52, 60
2, 7955, Note_on_c, 0, 61, 0
2, 7981, Note_on_c, 0, 52, 0
2, 7982, Note_on_c, 0, 60, 68
2, 8073, Note_on_c, 0, 61, 78
2, 8074, Note_on_c, 0, 60, 0
2, 8085, Note_on_c, 0, 63, 52
2, 8089, Note_on_c, 0, 61, 0
2, 8099, Note_on_c, 0, 63, 0
2, 8100, Note_on_c, 0, 61, 78
2, 8132, Note_on_c, 0, 60, 52
2, 8136, Note_on_c, 0, 61, 0
2, 8165, Note_on_c, 0, 58, 68
2, 8167, Note_on_c, 0, 60, 0
2, 8194, Note_on_c, 0, 70, 78
2, 8215, Note_on_c, 0, 58, 0
2, 8224, Note_on_c, 0, 68, 78
2, 8226, Note_on_c, 0, 70, 0
2, 8253, Note_on_c, 0, 68, 0
2, 8253, Note_on_c, 0, 66, 88
2, 8281, Note_on_c, 0, 66, 0
2, 8281, Note_on_c, 0, 68, 78
2, 8312, Note_on_c, 0, 68, 0
2, 8312, Note_on_c, 0, 57, 68
2, 8341, Note_on_c, 0, 58, 78
2, 8343, Note_on_c, 0, 57, 0
2, 8372, Note_on_c, 0, 60, 52
2, 8375, Note_on_c, 0, 58, 0
2, 8386, Note_on_c, 0, 61, 78
2, 8388, Note_on_c, 0, 60, 0
2, 8400, Note_on_c, 0, 61, 0
2, 8401, Note_on_c, 0, 60, 68
2, 8432, Note_on_c, 0, 58, 68
2, 8435, Note_on_c, 0, 60, 0
2, 8493, Note_on_c, 0, 56, 60
2, 8495, Note_on_c, 0, 58, 0
2, 8507, Note_on_c, 0, 56, 0
2, 8507, Note_on_c, 0, 55, 52
2, 8524, Note_on_c, 0, 55, 0
2, 8524, Note_on_c, 0, 56, 88
2, 8587, Note_on_c, 0, 56, 0
2, 14404, Note_on_c, 0, 58, 52
2, 14880, Note_on_c, 0, 58, 0
2, 14880, Note_on_c, 0, 56, 78
2, 14935, Note_on_c, 0, 56, 0
2, 14937, Note_on_c, 0, 59, 52
2, 14995, Note_on_c, 0, 67, 68
2, 14997, Note_on_c, 0, 59, 0
2, 15056, Note_on_c, 0, 58, 52
2, 15061, Note_on_c, 0, 67, 0
2, 15116, Note_on_c, 0, 58, 0
2, 15116, Note_on_c, 0, 66, 60
2, 15240, Note_on_c, 0, 66, 0
2, 15240, Note_on_c, 0, 65, 78
2, 15300, Note_on_c, 0, 66, 88
2, 15301, Note_on_c, 0, 65, 0
2, 15360, Note_on_c, 0, 66, 0
2, 15363, Note_on_c, 0, 66, 100
2, 15580, Note_on_c, 0, 66, 0
2, 15580, Note_on_c, 0, 65, 88
2, 15590, Note_on_c, 0, 65, 0
2, 16863, Note_on_c, 0, 72, 78
2, 16892, Note_on_c, 0, 72, 0
2, 16904, Note_on_c, 0, 72, 60
2, 16920, Note_on_c, 0, 72, 0
2, 16920, Note_on_c, 0, 75, 88
2, 16946, Note_on_c, 0, 75, 0
2, 16962, Note_on_c, 0, 75, 68
2, 16972, Note_on_c, 0, 75, 0
2, 16976, Note_on_c, 0, 81, 88
2, 17007, Note_on_c, 0, 81, 0
2, 17026, Note_on_c, 0, 81, 60
2, 17043, Note_on_c, 0, 81, 0
2, 17043, Note_on_c, 0, 74, 78
2, 17074, Note_on_c, 0, 74, 0
2, 17085, Note_on_c, 0, 74, 68
2, 17094, Note_on_c, 0, 74, 0
2, 17101, Note_on_c, 0, 74, 68
2, 17135, Note_on_c, 0, 74, 0
2, 17142, Note_on_c, 0, 72, 52
2, 17154, Note_on_c, 0, 72, 0
2, 17157, Note_on_c, 0, 75, 88
2, 17183, Note_on_c, 0, 75, 0
2, 17199, Note_on_c, 0, 83, 88
2, 17258, Note_on_c, 0, 83, 0
2, 17260, Note_on_c, 0, 74, 68
2, 17275, Note_on_c, 0, 74, 0
2, 17275, Note_on_c, 0, 84, 88
2, 17324, Note_on_c, 0, 74, 45
2, 17326, Note_on_c, 0, 84, 0
2, 17336, Note_on_c, 0, 74, 0
2, 17344, Note_on_c, 0, 85, 100
2, 17401, Note_on_c, 0, 73, 88
2, 17402, Note_on_c, 0, 85, 0
2, 17457, Note_on_c, 0, 73, 0
2, 17459, Note_on_c, 0, 80, 88
2, 17518, Note_on_c, 0, 80, 0
2, 17518, Note_on_c, 0, 68, 88
2, 17563, Note_on_c, 0, 68, 0
2, 17578, Note_on_c, 0, 79, 78
2, 17701, Note_on_c, 0, 79, 0
2, 17817, Note_on_c, 0, 79, 60
2, 17818, Note_on_c, 0, 76, 60
2, 17935, Note_on_c, 0, 76, 0
2, 17937, Note_on_c, 0, 79, 0
2, 18055, Note_on_c, 0, 78, 68
2, 18055, Note_on_c, 0, 81, 60
2, 18175, Note_on_c, 0, 78, 0
2, 18177, Note_on_c, 0, 81, 0
2, 18298, Note_on_c, 0, 78, 78
2, 18298, Note_on_c, 0, 81, 68
2, 18525, Note_on_c, 0, 81, 0
2, 18525, Note_on_c, 0, 78, 0
2, 18537, Note_on_c, 0, 83, 78
2, 18538, Note_on_c, 0, 81, 68
2, 18758, Note_on_c, 0, 83, 0
2, 18761, Note_on_c, 0, 81, 0
2, 18775, Note_on_c, 0, 81, 52
2, 18775, Note_on_c, 0, 84, 78
2, 18890, Note_on_c, 0, 81, 0
2, 18892, Note_on_c, 0, 84, 0
2, 18898, Note_on_c, 0, 81, 60
2, 19007, Note_on_c, 0, 81, 0
2, 19022, Note_on_c, 0, 77, 60
2, 19023, Note_on_c, 0, 84, 60
2, 19140, Note_on_c, 0, 84, 0
2, 19140, Note_on_c, 0, 77, 0
2, 19197, Note_on_c, 0, 78, 78
2, 19197, Note_on_c, 0, 66, 78
2, 19238, Note_on_c, 0, 66, 0
2, 19239, Note_on_c, 0, 78, 0
2, 19267, Note_on_c, 0, 75, 60
2, 19381, Note_on_c, 0, 58, 52
2, 19381, Note_on_c, 0, 70, 68
2, 19383, Note_on_c, 0, 75, 0
2, 19484, Note_on_c, 0, 70, 0
2, 19489, Note_on_c, 0, 58, 0
2, 19740, Note_on_c, 0, 84, 52
2, 19740, Note_on_c, 0, 82, 60
2, 19801, Note_on_c, 0, 82, 0
2, 19803, Note_on_c, 0, 84, 0
2, 19855, Note_on_c, 0, 81, 52
2, 19917, Note_on_c, 0, 81, 0
2, 19979, Note_on_c, 0, 83, 52
2, 19979, Note_on_c, 0, 82, 68
2, 20042, Note_on_c, 0, 82, 0
2, 20043, Note_on_c, 0, 83, 0
2, 20103, Note_on_c, 0, 81, 60
2, 20160, Note_on_c, 0, 81, 0
2, 20163, Note_on_c, 0, 82, 45
2, 20220, Note_on_c, 0, 79, 52
2, 20221, Note_on_c, 0, 82, 52
2, 20223, Note_on_c, 0, 82, 0
2, 20279, Note_on_c, 0, 79, 0
2, 20280, Note_on_c, 0, 82, 0
2, 20281, Note_on_c, 0, 83, 60
2, 20338, Note_on_c, 0, 83, 0
2, 20340, Note_on_c, 0, 84, 52
2, 20408, Note_on_c, 0, 84, 0
2, 20467, Note_on_c, 0, 89, 52
2, 20467, Note_on_c, 0, 94, 68
2, 20615, Note_on_c, 0, 94, 0
2, 20617, Note_on_c, 0, 89, 0
2, 20637, Note_on_c, 0, 89, 68
2, 20638, Note_on_c, 0, 94, 88
2, 20885, Note_on_c, 0, 94, 0
2, 20885, Note_on_c, 0, 89, 0
2, 20885, End_track
3, 0, Start_track
3, 0, MIDI_port, 0
3, 0, Title_t, "piccolo"
3, 0, Program_c, 1, 72
3, 0, Control_c, 1, 7, 127
3, 0, Control_c, 1, 10, 115
3, 1198, Note_on_c, 1, 79, 60
3, 1257, Note_on_c, 1, 79, 0
3, 1260, Note_on_c, 1, 83, 52
3, 1318, Note_on_c, 1, 90, 78
3, 1319, Note_on_c, 1, 83, 0
3, 1377, Note_on_c, 1, 90, 0
3, 1378, Note_on_c, 1, 81, 52
3, 1467, Note_on_c, 1, 81, 0
3, 1468, Note_on_c, 1, 79, 52
3, 1499, Note_on_c, 1, 82, 52
3, 1503, Note_on_c, 1, 79, 0
3, 1528, Note_on_c, 1, 82, 0
3, 1528, Note_on_c, 1, 90, 68
3, 1587, Note_on_c, 1, 81, 60
3, 1589, Note_on_c, 1, 90, 0
3, 1618, Note_on_c, 1, 81, 0
3, 1618, Note_on_c, 1, 91, 52
3, 1649, Note_on_c, 1, 82, 45
3, 1650, Note_on_c, 1, 91, 0
3, 1678, Note_on_c, 1, 90, 78
3, 1680, Note_on_c, 1, 82, 0
3, 1740, Note_on_c, 1, 90, 0
3, 1741, Note_on_c, 1, 81, 45
3, 1797, Note_on_c, 1, 81, 0
3, 1798, Note_on_c, 1, 79, 60
3, 1826, Note_on_c, 1, 82, 52
3, 1833, Note_on_c, 1, 79, 0
3, 1854, Note_on_c, 1, 82, 0
3, 1855, Note_on_c, 1, 89, 68
3, 1887, Note_on_c, 1, 81, 45
3, 1892, Note_on_c, 1, 89, 0
3, 1918, Note_on_c, 1, 81, 0
3, 1919, Note_on_c, 1, 91, 60
3, 1949, Note_on_c, 1, 80, 45
3, 1951, Note_on_c, 1, 91, 0
3, 1979, Note_on_c, 1, 88, 60
3, 1981, Note_on_c, 1, 80, 0
3, 2009, Note_on_c, 1, 79, 52
3, 2010, Note_on_c, 1, 88, 0
3, 2038, Note_on_c, 1, 89, 60
3, 2039, Note_on_c, 1, 79, 0
3, 2104, Note_on_c, 1, 78, 68
3, 2108, Note_on_c, 1, 89, 0
3, 2158, Note_on_c, 1, 78, 0
3, 2189, Note_on_c, 1, 86, 52
3, 2217, Note_on_c, 1, 86, 0
3, 2219, Note_on_c, 1, 77, 52
3, 2250, Note_on_c, 1, 77, 0
3, 2251, Note_on_c, 1, 87, 68
3, 2280, Note_on_c, 1, 87, 0
3, 2280, Note_on_c, 1, 76, 60
3, 2309, Note_on_c, 1, 76, 0
3, 2310, Note_on_c, 1, 84, 52
3, 2342, Note_on_c, 1, 84, 0
3, 2342, Note_on_c, 1, 75, 60
3, 2371, Note_on_c, 1, 85, 60
3, 2372, Note_on_c, 1, 75, 0
3, 2395, Note_on_c, 1, 85, 0
3, 2429, Note_on_c, 1, 84, 60
3, 2459, Note_on_c, 1, 84, 0
3, 2459, Note_on_c, 1, 76, 45
3, 2490, Note_on_c, 1, 85, 78
3, 2491, Note_on_c, 1, 76, 0
3, 2515, Note_on_c, 1, 85, 0
3, 2548, Note_on_c, 1, 84, 52
3, 2579, Note_on_c, 1, 84, 0
3, 2579, Note_on_c, 1, 75, 60
3, 2611, Note_on_c, 1, 85, 68
3, 2612, Note_on_c, 1, 75, 0
3, 2638, Note_on_c, 1, 85, 0
3, 2672, Note_on_c, 1, 84, 52
3, 2699, Note_on_c, 1, 84, 0
3, 2700, Note_on_c, 1, 76, 52
3, 2731, Note_on_c, 1, 85, 68
3, 2733, Note_on_c, 1, 76, 0
3, 2759, Note_on_c, 1, 76, 45
3, 2761, Note_on_c, 1, 85, 0
3, 2790, Note_on_c, 1, 76, 0
3, 2792, Note_on_c, 1, 84, 45
3, 2822, Note_on_c, 1, 84, 0
3, 2822, Note_on_c, 1, 75, 52
3, 2851, Note_on_c, 1, 85, 68
3, 2854, Note_on_c, 1, 75, 0
3, 2875, Note_on_c, 1, 85, 0
3, 2881, Note_on_c, 1, 74, 60
3, 2909, Note_on_c, 1, 75, 60
3, 2910, Note_on_c, 1, 74, 0
3, 2940, Note_on_c, 1, 77, 60
3, 2942, Note_on_c, 1, 75, 0
3, 2969, Note_on_c, 1, 77, 0
3, 2969, Note_on_c, 1, 79, 45
3, 2996, Note_on_c, 1, 79, 0
3, 2997, Note_on_c, 1, 80, 45
3, 3057, Note_on_c, 1, 92, 78
3, 3059, Note_on_c, 1, 80, 0
3, 3118, Note_on_c, 1, 92, 0
3, 3120, Note_on_c, 1, 91, 52
3, 3237, Note_on_c, 1, 91, 0
3, 3238, Note_on_c, 1, 90, 60
3, 3360, Note_on_c, 1, 89, 45
3, 3361, Note_on_c, 1, 90, 0
3, 3391, Note_on_c, 1, 89, 0
3, 3391, Note_on_c, 1, 91, 39
3, 3420, Note_on_c, 1, 92, 52
3, 3422, Note_on_c, 1, 91, 0
3, 3537, Note_on_c, 1, 92, 0
3, 3538, Note_on_c, 1, 86, 52
3, 3597, Note_on_c, 1, 86, 0
3, 3597, Note_on_c, 1, 91, 52
3, 3657, Note_on_c, 1, 90, 60
3, 3658, Note_on_c, 1, 91, 0
3, 3717, Note_on_c, 1, 90, 0
3, 3717, Note_on_c, 1, 91, 45
3, 3747, Note_on_c, 1, 92, 52
3, 3749, Note_on_c, 1, 91, 0
3, 3777, Note_on_c, 1, 92, 0
3, 3777, Note_on_c, 1, 91, 52
3, 3806, Note_on_c, 1, 90, 52
3, 3807, Note_on_c, 1, 91, 0
3, 3836, Note_on_c, 1, 90, 0
3, 3843, Note_on_c, 1, 91, 52
3, 3872, Note_on_c, 1, 79, 52
3, 3874, Note_on_c, 1, 91, 0
3, 3903, Note_on_c, 1, 81, 52
3, 3905, Note_on_c, 1, 79, 0
3, 3932, Note_on_c, 1, 81, 0
3, 3933, Note_on_c, 1, 82, 52
3, 3992, Note_on_c, 1, 83, 60
3, 3993, Note_on_c, 1, 82, 0
3, 4022, Note_on_c, 1, 83, 0
3, 4022, Note_on_c, 1, 84, 52
3, 4054, Note_on_c, 1, 84, 0
3, 4055, Note_on_c, 1, 86, 60
3, 4136, Note_on_c, 1, 86, 0
3, 4172, Note_on_c, 1, 86, 52
3, 4204, Note_on_c, 1, 86, 0
3, 4204, Note_on_c, 1, 84, 52
3, 4234, Note_on_c, 1, 84, 0
3, 4234, Note_on_c, 1, 86, 45
3, 4264, Note_on_c, 1, 86, 0
3, 4265, Note_on_c, 1, 87, 60
3, 4328, Note_on_c, 1, 87, 0
3, 4328, Note_on_c, 1, 89, 60
3, 4411, Note_on_c, 1, 89, 0
3, 4414, Note_on_c, 1, 82, 45
3, 4443, Note_on_c, 1, 84, 52
3, 4446, Note_on_c, 1, 82, 0
3, 4474, Note_on_c, 1, 86, 39
3, 4476, Note_on_c, 1, 84, 0
3, 4506, Note_on_c, 1, 87, 52
3, 4507, Note_on_c, 1, 86, 0
3, 4537, Note_on_c, 1, 87, 0
3, 4537, Note_on_c, 1, 89, 45
3, 4568, Note_on_c, 1, 89, 0
3, 4568, Note_on_c, 1, 90, 52
3, 4599, Note_on_c, 1, 90, 0
3, 4599, Note_on_c, 1, 91, 52
3, 4629, Note_on_c, 1, 91, 0
3, 4630, Note_on_c, 1, 93, 52
3, 4684, Note_on_c, 1, 93, 0
3, 4690, Note_on_c, 1, 94, 60
3, 4747, Note_on_c, 1, 84, 52
3, 4751, Note_on_c, 1, 94, 0
3, 4805, Note_on_c, 1, 93, 52
3, 4806, Note_on_c, 1, 84, 0
3, 4832, Note_on_c, 1, 93, 0
3, 4835, Note_on_c, 1, 94, 60
3, 4864, Note_on_c, 1, 84, 52
3, 4865, Note_on_c, 1, 94, 0
3, 4924, Note_on_c, 1, 84, 0
3, 4924, Note_on_c, 1, 93, 52
3, 4986, Note_on_c, 1, 93, 0
3, 5106, Note_on_c, 1, 93, 60
3, 5164, Note_on_c, 1, 82, 45
3, 5166, Note_on_c, 1, 93, 0
3, 5179, Note_on_c, 1, 82, 0
3, 5179, Note_on_c, 1, 81, 18
3, 5193, Note_on_c, 1, 82, 45
3, 5197, Note_on_c, 1, 81, 0
3, 5223, Note_on_c, 1, 82, 0
3, 5225, Note_on_c, 1, 91, 68
3, 5284, Note_on_c, 1, 91, 0
3, 5284, Note_on_c, 1, 72, 60
3, 5342, Note_on_c, 1, 81, 45
3, 5345, Note_on_c, 1, 72, 0
3, 5354, Note_on_c, 1, 79, 52
3, 5355, Note_on_c, 1, 81, 0
3, 5369, Note_on_c, 1, 81, 34
3, 5371, Note_on_c, 1, 79, 0
3, 5398, Note_on_c, 1, 70, 60
3, 5399, Note_on_c, 1, 81, 0
3, 5459, Note_on_c, 1, 72, 68
3, 5462, Note_on_c, 1, 70, 0
3, 5580, Note_on_c, 1, 72, 0
3, 5580, Note_on_c, 1, 73, 68
3, 5639, Note_on_c, 1, 73, 0
3, 5642, Note_on_c, 1, 74, 60
3, 5672, Note_on_c, 1, 83, 52
3, 5674, Note_on_c, 1, 74, 0
3, 5685, Note_on_c, 1, 83, 0
3, 5685, Note_on_c, 1, 82, 52
3, 5702, Note_on_c, 1, 82, 0
3, 5702, Note_on_c, 1, 83, 60
3, 5760, Note_on_c, 1, 83, 0
3, 5761, Note_on_c, 1, 75, 60
3, 5791, Note_on_c, 1, 85, 68
3, 5793, Note_on_c, 1, 75, 0
3, 5804, Note_on_c, 1, 85, 0
3, 5804, Note_on_c, 1, 83, 45
3, 5820, Note_on_c, 1, 85, 60
3, 5821, Note_on_c, 1, 83, 0
3, 5880, Note_on_c, 1, 73, 78
3, 5882, Note_on_c, 1, 85, 0
3, 5940, Note_on_c, 1, 73, 0
3, 5941, Note_on_c, 1, 71, 60
3, 6000, Note_on_c, 1, 71, 78
3, 6004, Note_on_c, 1, 71, 0
3, 6025, Note_on_c, 1, 71, 0
3, 6030, Note_on_c, 1, 88, 60
3, 6041, Note_on_c, 1, 87, 60
3, 6042, Note_on_c, 1, 88, 0
3, 6051, Note_on_c, 1, 87, 0
3, 6057, Note_on_c, 1, 88, 60
3, 6114, Note_on_c, 1, 88, 0
3, 6119, Note_on_c, 1, 91, 60
3, 6145, Note_on_c, 1, 91, 0
3, 6148, Note_on_c, 1, 93, 60
3, 6168, Note_on_c, 1, 93, 0
3, 6176, Note_on_c, 1, 94, 88
3, 6268, Note_on_c, 1, 94, 0
3, 6270, Note_on_c, 1, 95, 78
3, 6294, Note_on_c, 1, 95, 0
3, 6300, Note_on_c, 1, 97, 88
3, 6388, Note_on_c, 1, 97, 0
3, 6388, Note_on_c, 1, 98, 68
3, 6418, Note_on_c, 1, 98, 0
3, 6420, Note_on_c, 1, 99, 78
3, 6476, Note_on_c, 1, 99, 0
3, 6486, Note_on_c, 1, 88, 34
3, 6547, Note_on_c, 1, 88, 0
3, 6547, Note_on_c, 1, 86, 34
3, 6606, Note_on_c, 1, 85, 45
3, 6607, Note_on_c, 1, 86, 0
3, 6666, Note_on_c, 1, 83, 39
3, 6670, Note_on_c, 1, 85, 0
3, 6722, Note_on_c, 1, 83, 0
3, 6723, Note_on_c, 1, 82, 20
3, 6790, Note_on_c, 1, 82, 0
3, 6839, Note_on_c, 1, 65, 39
3, 6869, Note_on_c, 1, 66, 45
3, 6872, Note_on_c, 1, 65, 0
3, 6901, Note_on_c, 1, 68, 52
3, 6902, Note_on_c, 1, 66, 0
3, 7049, Note_on_c, 1, 66, 52
3, 7054, Note_on_c, 1, 68, 0
3, 7061, Note_on_c, 1, 66, 0
3, 7063, Note_on_c, 1, 65, 39
3, 7078, Note_on_c, 1, 66, 68
3, 7082, Note_on_c, 1, 65, 0
3, 7139, Note_on_c, 1, 66, 0
3, 7139, Note_on_c, 1, 69, 60
3, 7200, Note_on_c, 1, 77, 52
3, 7202, Note_on_c, 1, 69, 0
3, 7258, Note_on_c, 1, 68, 52
3, 7261, Note_on_c, 1, 77, 0
3, 7380, Note_on_c, 1, 68, 0
3, 7380, Note_on_c, 1, 66, 68
3, 7409, Note_on_c, 1, 68, 60
3, 7413, Note_on_c, 1, 66, 0
3, 7437, Note_on_c, 1, 70, 52
3, 7438, Note_on_c, 1, 68, 0
3, 7467, Note_on_c, 1, 70, 0
3, 7467, Note_on_c, 1, 72, 45
3, 7498, Note_on_c, 1, 73, 52
3, 7501, Note_on_c, 1, 72, 0
3, 7530, Note_on_c, 1, 75, 52
3, 7534, Note_on_c, 1, 73, 0
3, 7560, Note_on_c, 1, 75, 0
3, 7561, Note_on_c, 1, 77, 52
3, 7674, Note_on_c, 1, 77, 0
3, 7683, Note_on_c, 1, 58, 60
3, 7773, Note_on_c, 1, 60, 60
3, 7777, Note_on_c, 1, 58, 0
3, 7784, Note_on_c, 1, 61, 78
3, 7786, Note_on_c, 1, 60, 0
3, 7798, Note_on_c, 1, 61, 0
3, 7799, Note_on_c, 1, 63, 88
3, 7909, Note_on_c, 1, 63, 0
3, 7923, Note_on_c, 1, 61, 78
3, 7985, Note_on_c, 1, 61, 0
3, 8190, Note_on_c, 1, 72, 60
3, 8223, Note_on_c, 1, 73, 68
3, 8225, Note_on_c, 1, 72, 0
3, 8253, Note_on_c, 1, 75, 60
3, 8254, Note_on_c, 1, 73, 0
3, 8282, Note_on_c, 1, 75, 0
3, 8282, Note_on_c, 1, 77, 68
3, 8370, Note_on_c, 1, 77, 0
3, 8370, Note_on_c, 1, 75, 68
3, 8399, Note_on_c, 1, 77, 60
3, 8400, Note_on_c, 1, 75, 0
3, 8432, Note_on_c, 1, 78, 78
3, 8434, Note_on_c, 1, 77, 0
3, 8461, Note_on_c, 1, 78, 0
3, 8461, Note_on_c, 1, 67, 78
3, 8553, Note_on_c, 1, 67, 0
3, 8553, Note_on_c, 1, 79, 78
3, 8582, Note_on_c, 1, 79, 0
3, 8582, Note_on_c, 1, 67, 68
3, 8614, Note_on_c, 1, 68, 88
3, 8617, Note_on_c, 1, 67, 0
3, 8643, Note_on_c, 1, 68, 0
3, 8644, Note_on_c, 1, 69, 68
3, 8674, Note_on_c, 1, 72, 60
3, 8676, Note_on_c, 1, 69, 0
3, 8705, Note_on_c, 1, 72, 0
3, 8705, Note_on_c, 1, 80, 78
3, 8734, Note_on_c, 1, 70, 68
3, 8735, Note_on_c, 1, 80, 0
3, 8765, Note_on_c, 1, 78, 88
3, 8767, Note_on_c, 1, 70, 0
3, 8790, Note_on_c, 1, 69, 68
3, 8792, Note_on_c, 1, 78, 0
3, 8821, Note_on_c, 1, 69, 0
3, 8821, Note_on_c, 1, 70, 78
3, 8969, Note_on_c, 1, 70, 0
3, 15120, Note_on_c, 1, 59, 68
3, 15178, Note_on_c, 1, 62, 78
3, 15179, Note_on_c, 1, 59, 0
3, 15239, Note_on_c, 1, 70, 78
3, 15241, Note_on_c, 1, 62, 0
3, 15299, Note_on_c, 1, 70, 0
3, 15299, Note_on_c, 1, 61, 78
3, 15357, Note_on_c, 1, 61, 0
3, 15358, Note_on_c, 1, 71, 78
3, 15424, Note_on_c, 1, 72, 68
3, 15425, Note_on_c, 1, 71, 0
3, 15482, Note_on_c, 1, 80, 78
3, 15484, Note_on_c, 1, 72, 0
3, 15541, Note_on_c, 1, 80, 0
3, 15541, Note_on_c, 1, 71, 78
3, 15578, Note_on_c, 1, 71, 0
3, 15600, Note_on_c, 1, 91, 78
3, 15661, Note_on_c, 1, 87, 78
3, 15663, Note_on_c, 1, 91, 0
3, 15718, Note_on_c, 1, 86, 68
3, 15720, Note_on_c, 1, 87, 0
3, 15779, Note_on_c, 1, 85, 68
3, 15780, Note_on_c, 1, 86, 0
3, 15838, Note_on_c, 1, 85, 0
3, 15838, Note_on_c, 1, 84, 60
3, 15880, Note_on_c, 1, 86, 52
3, 15881, Note_on_c, 1, 84, 0
3, 15895, Note_on_c, 1, 86, 0
3, 15895, Note_on_c, 1, 87, 68
3, 16019, Note_on_c, 1, 87, 0
3, 16019, Note_on_c, 1, 81, 52
3, 16080, Note_on_c, 1, 86, 68
3, 16082, Note_on_c, 1, 81, 0
3, 16139, Note_on_c, 1, 86, 0
3, 16139, Note_on_c, 1, 84, 68
3, 16265, Note_on_c, 1, 84, 0
3, 16324, Note_on_c, 1, 74, 78
3, 16382, Note_on_c, 1, 74, 0
3, 16382, Note_on_c, 1, 72, 68
3, 16498, Note_on_c, 1, 72, 0
3, 16741, Note_on_c, 1, 58, 88
3, 16770, Note_on_c, 1, 58, 0
3, 16786, Note_on_c, 1, 58, 88
3, 16801, Note_on_c, 1, 61, 88
3, 16803, Note_on_c, 1, 58, 0
3, 16829, Note_on_c, 1, 61, 0
3, 16847, Note_on_c, 1, 61, 88
3, 16860, Note_on_c, 1, 69, 78
3, 16862, Note_on_c, 1, 61, 0
3, 16864, Note_on_c, 1, 60, 88
3, 16890, Note_on_c, 1, 60, 0
3, 16890, Note_on_c, 1, 69, 0
3, 16901, Note_on_c, 1, 69, 52
3, 16908, Note_on_c, 1, 60, 68
3, 16913, Note_on_c, 1, 69, 0
3, 16915, Note_on_c, 1, 60, 0
3, 16916, Note_on_c, 1, 72, 78
3, 16923, Note_on_c, 1, 60, 78
3, 16944, Note_on_c, 1, 72, 0
3, 16948, Note_on_c, 1, 60, 0
3, 16962, Note_on_c, 1, 72, 68
3, 16964, Note_on_c, 1, 60, 60
3, 16976, Note_on_c, 1, 72, 0
3, 16979, Note_on_c, 1, 60, 0
3, 16983, Note_on_c, 1, 71, 88
3, 17013, Note_on_c, 1, 71, 0
3, 17030, Note_on_c, 1, 71, 78
3, 17042, Note_on_c, 1, 63, 88
3, 17045, Note_on_c, 1, 71, 0
3, 17045, Note_on_c, 1, 62, 88
3, 17071, Note_on_c, 1, 62, 0
3, 17077, Note_on_c, 1, 63, 0
3, 17082, Note_on_c, 1, 69, 68
3, 17086, Note_on_c, 1, 62, 68
3, 17089, Note_on_c, 1, 69, 0
3, 17093, Note_on_c, 1, 62, 0
3, 17099, Note_on_c, 1, 69, 78
3, 17103, Note_on_c, 1, 62, 78
3, 17142, Note_on_c, 1, 69, 0
3, 17144, Note_on_c, 1, 62, 60
3, 17145, Note_on_c, 1, 62, 0
3, 17148, Note_on_c, 1, 60, 60
3, 17157, Note_on_c, 1, 62, 0
3, 17161, Note_on_c, 1, 66, 78
3, 17163, Note_on_c, 1, 63, 100
3, 17167, Note_on_c, 1, 60, 0
3, 17193, Note_on_c, 1, 63, 0
3, 17198, Note_on_c, 1, 66, 0
3, 17201, Note_on_c, 1, 75, 68
3, 17208, Note_on_c, 1, 71, 78
3, 17212, Note_on_c, 1, 75, 0
3, 17217, Note_on_c, 1, 74, 78
3, 17255, Note_on_c, 1, 71, 0
3, 17262, Note_on_c, 1, 62, 78
3, 17264, Note_on_c, 1, 74, 0
3, 17274, Note_on_c, 1, 62, 0
3, 17277, Note_on_c, 1, 72, 88
3, 17280, Note_on_c, 1, 77, 78
3, 17322, Note_on_c, 1, 72, 0
3, 17323, Note_on_c, 1, 62, 68
3, 17331, Note_on_c, 1, 77, 0
3, 17336, Note_on_c, 1, 62, 0
3, 17340, Note_on_c, 1, 76, 78
3, 17342, Note_on_c, 1, 70, 88
3, 17397, Note_on_c, 1, 66, 88
3, 17399, Note_on_c, 1, 76, 0
3, 17401, Note_on_c, 1, 70, 0
3, 17402, Note_on_c, 1, 61, 88
3, 17404, Note_on_c, 1, 59, 68
3, 17404, Note_on_c, 1, 60, 45
3, 17411, Note_on_c, 1, 60, 0
3, 17411, Note_on_c, 1, 59, 0
3, 17455, Note_on_c, 1, 66, 0
3, 17456, Note_on_c, 1, 70, 88
3, 17459, Note_on_c, 1, 61, 0
3, 17462, Note_on_c, 1, 68, 100
3, 17508, Note_on_c, 1, 68, 0
3, 17520, Note_on_c, 1, 68, 100
3, 17521, Note_on_c, 1, 70, 0
3, 17574, Note_on_c, 1, 68, 0
3, 17578, Note_on_c, 1, 73, 100
3, 17579, Note_on_c, 1, 76, 78
3, 17641, Note_on_c, 1, 72, 88
3, 17646, Note_on_c, 1, 73, 0
3, 17696, Note_on_c, 1, 76, 0
3, 17696, Note_on_c, 1, 67, 88
3, 17700, Note_on_c, 1, 64, 88
3, 17701, Note_on_c, 1, 72, 0
3, 17811, Note_on_c, 1, 67, 0
3, 17816, Note_on_c, 1, 73, 88
3, 17819, Note_on_c, 1, 69, 100
3, 17820, Note_on_c, 1, 64, 0
3, 17875, Note_on_c, 1, 73, 0
3, 17875, Note_on_c, 1, 72, 78
3, 17936, Note_on_c, 1, 67, 88
3, 17936, Note_on_c, 1, 73, 88
3, 17937, Note_on_c, 1, 72, 0
3, 17937, Note_on_c, 1, 69, 0
3, 17996, Note_on_c, 1, 74, 88
3, 17998, Note_on_c, 1, 73, 0
3, 18054, Note_on_c, 1, 74, 0
3, 18055, Note_on_c, 1, 76, 78
3, 18058, Note_on_c, 1, 69, 88
3, 18059, Note_on_c, 1, 67, 0
3, 18115, Note_on_c, 1, 75, 78
3, 18117, Note_on_c, 1, 76, 0
3, 18119, Note_on_c, 1, 69, 0
3, 18119, Note_on_c, 1, 72, 88
3, 18175, Note_on_c, 1, 75, 0
3, 18179, Note_on_c, 1, 74, 88
3, 18181, Note_on_c, 1, 72, 0
3, 18236, Note_on_c, 1, 74, 0
3, 18237, Note_on_c, 1, 72, 68
3, 18238, Note_on_c, 1, 80, 68
3, 18297, Note_on_c, 1, 80, 0
3, 18297, Note_on_c, 1, 78, 88
3, 18298, Note_on_c, 1, 72, 0
3, 18301, Note_on_c, 1, 71, 78
3, 18478, Note_on_c, 1, 73, 68
3, 18482, Note_on_c, 1, 70, 88
3, 18484, Note_on_c, 1, 71, 0
3, 18532, Note_on_c, 1, 78, 0
3, 18532, Note_on_c, 1, 73, 0
3, 18541, Note_on_c, 1, 74, 88
3, 18542, Note_on_c, 1, 70, 0
3, 18542, Note_on_c, 1, 69, 88
3, 18717, Note_on_c, 1, 76, 78
3, 18719, Note_on_c, 1, 74, 0
3, 18769, Note_on_c, 1, 69, 0
3, 18778, Note_on_c, 1, 77, 78
3, 18779, Note_on_c, 1, 76, 0
3, 18779, Note_on_c, 1, 69, 88
3, 18888, Note_on_c, 1, 69, 0
3, 18890, Note_on_c, 1, 77, 0
3, 18897, Note_on_c, 1, 77, 78
3, 18899, Note_on_c, 1, 69, 88
3, 19016, Note_on_c, 1, 77, 0
3, 19020, Note_on_c, 1, 82, 78
3, 19024, Note_on_c, 1, 70, 88
3, 19025, Note_on_c, 1, 69, 0
3, 19126, Note_on_c, 1, 82, 0
3, 19139, Note_on_c, 1, 75, 88
3, 19140, Note_on_c, 1, 70, 0
3, 19140, Note_on_c, 1, 63, 100
3, 19255, Note_on_c, 1, 75, 0
3, 19260, Note_on_c, 1, 80, 88
3, 19265, Note_on_c, 1, 63, 0
3, 19266, Note_on_c, 1, 68, 88
3, 19439, Note_on_c, 1, 80, 0
3, 19440, Note_on_c, 1, 77, 78
3, 19442, Note_on_c, 1, 65, 88
3, 19444, Note_on_c, 1, 68, 0
3, 19494, Note_on_c, 1, 77, 0
3, 19500, Note_on_c, 1, 83, 88
3, 19501, Note_on_c, 1, 68, 88
3, 19502, Note_on_c, 1, 65, 0
3, 19557, Note_on_c, 1, 68, 0
3, 19557, Note_on_c, 1, 67, 78
3, 19559, Note_on_c, 1, 82, 88
3, 19560, Note_on_c, 1, 83, 0
3, 19679, Note_on_c, 1, 68, 88
3, 19680, Note_on_c, 1, 82, 0
3, 19680, Note_on_c, 1, 80, 88
3, 19681, Note_on_c, 1, 67, 0
3, 19714, Note_on_c, 1, 68, 0
3, 19738, Note_on_c, 1, 80, 0
3, 19739, Note_on_c, 1, 70, 100
3, 19740, Note_on_c, 1, 79, 78
3, 19798, Note_on_c, 1, 68, 88
3, 19799, Note_on_c, 1, 80, 78
3, 19802, Note_on_c, 1, 79, 0
3, 19802, Note_on_c, 1, 70, 0
3, 19856, Note_on_c, 1, 68, 0
3, 19857, Note_on_c, 1, 66, 100
3, 19860, Note_on_c, 1, 80, 0
3, 19860, Note_on_c, 1, 75, 100
3, 19917, Note_on_c, 1, 68, 100
3, 19918, Note_on_c, 1, 75, 0
3, 19918, Note_on_c, 1, 66, 0
3, 19979, Note_on_c, 1, 70, 88
3, 19980, Note_on_c, 1, 68, 0
3, 19981, Note_on_c, 1, 79, 78
3, 20040, Note_on_c, 1, 68, 88
3, 20040, Note_on_c, 1, 80, 78
3, 20041, Note_on_c, 1, 70, 0
3, 20042, Note_on_c, 1, 79, 0
3, 20100, Note_on_c, 1, 80, 0
3, 20101, Note_on_c, 1, 75, 88
3, 20104, Note_on_c, 1, 66, 88
3, 20105, Note_on_c, 1, 68, 0
3, 20161, Note_on_c, 1, 80, 78
3, 20162, Note_on_c, 1, 68, 88
3, 20163, Note_on_c, 1, 75, 0
3, 20164, Note_on_c, 1, 66, 0
3, 20216, Note_on_c, 1, 80, 0
3, 20216, Note_on_c, 1, 72, 78
3, 20220, Note_on_c, 1, 70, 78
3, 20223, Note_on_c, 1, 68, 0
3, 20280, Note_on_c, 1, 72, 0
3, 20280, Note_on_c, 1, 80, 78
3, 20282, Note_on_c, 1, 70, 0
3, 20282, Note_on_c, 1, 68, 88
3, 20340, Note_on_c, 1, 75, 78
3, 20342, Note_on_c, 1, 80, 0
3, 20342, Note_on_c, 1, 75, 88
3, 20343, Note_on_c, 1, 68, 0
3, 20402, Note_on_c, 1, 75, 0
3, 20402, Note_on_c, 1, 80, 88
3, 20405, Note_on_c, 1, 68, 88
3, 20406, Note_on_c, 1, 75, 0
3, 20456, Note_on_c, 1, 80, 0
3, 20460, Note_on_c, 1, 84, 78
3, 20461, Note_on_c, 1, 68, 0
3, 20463, Note_on_c, 1, 79, 78
3, 20618, Note_on_c, 1, 84, 0
3, 20622, Note_on_c, 1, 79, 0
3, 20636, Note_on_c, 1, 79, 88
3, 20639, Note_on_c, 1, 84, 100
3, 20882, Note_on_c, 1, 84, 0
3, 20887, Note_on_c, 1, 79, 0
3, 20887, End_track
4, 0, Start_track
4, 0, MIDI_port, 0
4, 0, Title_t, "clarinet"
4, 0, Program_c, 2, 71
4, 0, Control_c, 2, 7, 127
4, 0, Control_c, 2, 10, 51
4, 2881, Note_on_c, 2, 60, 60
4, 2939, Note_on_c, 2, 63, 78
4, 2942, Note_on_c, 2, 60, 0
4, 2998, Note_on_c, 2, 63, 0
4, 2999, Note_on_c, 2, 71, 68
4, 3059, Note_on_c, 2, 71, 0
4, 3059, Note_on_c, 2, 62, 68
4, 3148, Note_on_c, 2, 62, 0
4, 3149, Note_on_c, 2, 60, 52
4, 3178, Note_on_c, 2, 63, 68
4, 3183, Note_on_c, 2, 60, 0
4, 3208, Note_on_c, 2, 63, 0
4, 3210, Note_on_c, 2, 71, 78
4, 3266, Note_on_c, 2, 71, 0
4, 3267, Note_on_c, 2, 62, 52
4, 3297, Note_on_c, 2, 62, 0
4, 3297, Note_on_c, 2, 72, 68
4, 3328, Note_on_c, 2, 72, 0
4, 3328, Note_on_c, 2, 63, 68
4, 3357, Note_on_c, 2, 71, 78
4, 3358, Note_on_c, 2, 63, 0
4, 3418, Note_on_c, 2, 62, 60
4, 3420, Note_on_c, 2, 71, 0
4, 3476, Note_on_c, 2, 62, 0
4, 3477, Note_on_c, 2, 60, 60
4, 3508, Note_on_c, 2, 63, 60
4, 3511, Note_on_c, 2, 60, 0
4, 3537, Note_on_c, 2, 63, 0
4, 3538, Note_on_c, 2, 71, 78
4, 3567, Note_on_c, 2, 62, 52
4, 3568, Note_on_c, 2, 71, 0
4, 3598, Note_on_c, 2, 62, 0
4, 3598, Note_on_c, 2, 72, 52
4, 3628, Note_on_c, 2, 61, 60
4, 3629, Note_on_c, 2, 72, 0
4, 3659, Note_on_c, 2, 69, 60
4, 3660, Note_on_c, 2, 61, 0
4, 3688, Note_on_c, 2, 69, 0
4, 3688, Note_on_c, 2, 60, 39
4, 3719, Note_on_c, 2, 60, 0
4, 3719, Note_on_c, 2, 70, 68
4, 3776, Note_on_c, 2, 70, 0
4, 3778, Note_on_c, 2, 71, 68
4, 3820, Note_on_c, 2, 71, 0
4, 3867, Note_on_c, 2, 67, 60
4, 3901, Note_on_c, 2, 67, 0
4, 3901, Note_on_c, 2, 70, 68
4, 3932, Note_on_c, 2, 68, 78
4, 3933, Note_on_c, 2, 70, 0
4, 3961, Note_on_c, 2, 68, 0
4, 3962, Note_on_c, 2, 69, 78
4, 3992, Note_on_c, 2, 69, 0
4, 3992, Note_on_c, 2, 65, 68
4, 4022, Note_on_c, 2, 68, 68
4, 4023, Note_on_c, 2, 65, 0
4, 4051, Note_on_c, 2, 66, 78
4, 4052, Note_on_c, 2, 68, 0
4, 4080, Note_on_c, 2, 66, 0
4, 4080, Note_on_c, 2, 67, 68
4, 4141, Note_on_c, 2, 70, 68
4, 4143, Note_on_c, 2, 67, 0
4, 4200, Note_on_c, 2, 78, 68
4, 4201, Note_on_c, 2, 70, 0
4, 4261, Note_on_c, 2, 78, 0
4, 4264, Note_on_c, 2, 69, 78
4, 4349, Note_on_c, 2, 69, 0
4, 4355, Note_on_c, 2, 67, 52
4, 4385, Note_on_c, 2, 70, 60
4, 4388, Note_on_c, 2, 67, 0
4, 4412, Note_on_c, 2, 78, 68
4, 4414, Note_on_c, 2, 70, 0
4, 4470, Note_on_c, 2, 78, 0
4, 4471, Note_on_c, 2, 69, 68
4, 4501, Note_on_c, 2, 69, 0
4, 4501, Note_on_c, 2, 79, 60
4, 4532, Note_on_c, 2, 70, 52
4, 4539, Note_on_c, 2, 79, 0
4, 4563, Note_on_c, 2, 78, 68
4, 4566, Note_on_c, 2, 70, 0
4, 4626, Note_on_c, 2, 78, 0
4, 4626, Note_on_c, 2, 69, 68
4, 4681, Note_on_c, 2, 69, 0
4, 4687, Note_on_c, 2, 67, 68
4, 4716, Note_on_c, 2, 70, 60
4, 4721, Note_on_c, 2, 67, 0
4, 4748, Note_on_c, 2, 78, 60
4, 4750, Note_on_c, 2, 70, 0
4, 4775, Note_on_c, 2, 78, 0
4, 4775, Note_on_c, 2, 69, 60
4, 4806, Note_on_c, 2, 69, 0
4, 4806, Note_on_c, 2, 79, 60
4, 4835, Note_on_c, 2, 79, 0
4, 4835, Note_on_c, 2, 68, 52
4, 4864, Note_on_c, 2, 76, 45
4, 4865, Note_on_c, 2, 68, 0
4, 4892, Note_on_c, 2, 67, 60
4, 4893, Note_on_c, 2, 76, 0
4, 4921, Note_on_c, 2, 67, 0
4, 4921, Note_on_c, 2, 77, 68
4, 4982, Note_on_c, 2, 66, 88
4, 4983, Note_on_c, 2, 77, 0
4, 5037, Note_on_c, 2, 66, 0
4, 5068, Note_on_c, 2, 74, 60
4, 5097, Note_on_c, 2, 74, 0
4, 5098, Note_on_c, 2, 77, 52
4, 5135, Note_on_c, 2, 75, 60
4, 5138, Note_on_c, 2, 77, 0
4, 5164, Note_on_c, 2, 76, 60
4, 5167, Note_on_c, 2, 75, 0
4, 5194, Note_on_c, 2, 76, 0
4, 5194, Note_on_c, 2, 72, 52
4, 5223, Note_on_c, 2, 75, 52
4, 5224, Note_on_c, 2, 72, 0
4, 5255, Note_on_c, 2, 73, 60
4, 5257, Note_on_c, 2, 75, 0
4, 5281, Note_on_c, 2, 73, 0
4, 5286, Note_on_c, 2, 67, 88
4, 5372, Note_on_c, 2, 67, 0
4, 5372, Note_on_c, 2, 62, 52
4, 5400, Note_on_c, 2, 62, 0
4, 5401, Note_on_c, 2, 65, 68
4, 5430, Note_on_c, 2, 65, 0
4, 5432, Note_on_c, 2, 64, 68
4, 5491, Note_on_c, 2, 64, 0
4, 5491, Note_on_c, 2, 63, 78
4, 5554, Note_on_c, 2, 61, 68
4, 5556, Note_on_c, 2, 63, 0
4, 5585, Note_on_c, 2, 61, 0
4, 5586, Note_on_c, 2, 60, 68
4, 5614, Note_on_c, 2, 60, 0
4, 5643, Note_on_c, 2, 71, 68
4, 5657, Note_on_c, 2, 70, 52
4, 5659, Note_on_c, 2, 71, 0
4, 5674, Note_on_c, 2, 68, 68
4, 5677, Note_on_c, 2, 70, 0
4, 5688, Note_on_c, 2, 68, 0
4, 5688, Note_on_c, 2, 67, 60
4, 5701, Note_on_c, 2, 67, 0
4, 5702, Note_on_c, 2, 66, 78
4, 5716, Note_on_c, 2, 66, 0
4, 5717, Note_on_c, 2, 65, 60
4, 5732, Note_on_c, 2, 65, 0
4, 5733, Note_on_c, 2, 66, 88
4, 5761, Note_on_c, 2, 66, 0
4, 5764, Note_on_c, 2, 69, 78
4, 5823, Note_on_c, 2, 69, 0
4, 5823, Note_on_c, 2, 70, 68
4, 5883, Note_on_c, 2, 70, 0
4, 5884, Note_on_c, 2, 71, 78
4, 5911, Note_on_c, 2, 71, 0
4, 5912, Note_on_c, 2, 70, 78
4, 5973, Note_on_c, 2, 70, 0
4, 5974, Note_on_c, 2, 69, 68
4, 6003, Note_on_c, 2, 69, 0
4, 6006, Note_on_c, 2, 67, 60
4, 6072, Note_on_c, 2, 70, 68
4, 6076, Note_on_c, 2, 67, 0
4, 6086, Note_on_c, 2, 71, 68
4, 6093, Note_on_c, 2, 70, 0
4, 6098, Note_on_c, 2, 73, 60
4, 6099, Note_on_c, 2, 71, 0
4, 6114, Note_on_c, 2, 71, 52
4, 6117, Note_on_c, 2, 73, 0
4, 6128, Note_on_c, 2, 71, 0
4, 6129, Note_on_c, 2, 70, 45
4, 6146, Note_on_c, 2, 68, 68
4, 6150, Note_on_c, 2, 70, 0
4, 6178, Note_on_c, 2, 61, 88
4, 6179, Note_on_c, 2, 68, 0
4, 6207, Note_on_c, 2, 63, 68
4, 6208, Note_on_c, 2, 61, 0
4, 6236, Note_on_c, 2, 63, 0
4, 6237, Note_on_c, 2, 64, 78
4, 6363, Note_on_c, 2, 64, 0
4, 6363, Note_on_c, 2, 65, 78
4, 6391, Note_on_c, 2, 65, 0
4, 6391, Note_on_c, 2, 68, 88
4, 6450, Note_on_c, 2, 68, 0
4, 6450, Note_on_c, 2, 67, 68
4, 6478, Note_on_c, 2, 67, 0
4, 6483, Note_on_c, 2, 66, 68
4, 6512, Note_on_c, 2, 66, 0
4, 6513, Note_on_c, 2, 63, 68
4, 6542, Note_on_c, 2, 63, 0
4, 6542, Note_on_c, 2, 66, 78
4, 6570, Note_on_c, 2, 66, 0
4, 6571, Note_on_c, 2, 64, 68
4, 6601, Note_on_c, 2, 64, 0
4, 6602, Note_on_c, 2, 65, 78
4, 6650, Note_on_c, 2, 63, 68
4, 6652, Note_on_c, 2, 65, 0
4, 6660, Note_on_c, 2, 63, 0
4, 6663, Note_on_c, 2, 62, 68
4, 6719, Note_on_c, 2, 62, 0
4, 6726, Note_on_c, 2, 66, 60
4, 6726, Note_on_c, 2, 63, 60
4, 6839, Note_on_c, 2, 65, 68
4, 6845, Note_on_c, 2, 58, 78
4, 6847, Note_on_c, 2, 63, 0
4, 6848, Note_on_c, 2, 66, 0
4, 6902, Note_on_c, 2, 63, 60
4, 6903, Note_on_c, 2, 65, 0
4, 6959, Note_on_c, 2, 63, 0
4, 6960, Note_on_c, 2, 62, 60
4, 6989, Note_on_c, 2, 63, 68
4, 6993, Note_on_c, 2, 62, 0
4, 7018, Note_on_c, 2, 63, 0
4, 7018, Note_on_c, 2, 65, 78
4, 7050, Note_on_c, 2, 63, 68
4, 7053, Note_on_c, 2, 65, 0
4, 7062, Note_on_c, 2, 63, 0
4, 7063, Note_on_c, 2, 62, 52
4, 7078, Note_on_c, 2, 63, 78
4, 7080, Note_on_c, 2, 62, 0
4, 7108, Note_on_c, 2, 65, 78
4, 7110, Note_on_c, 2, 63, 0
4, 7140, Note_on_c, 2, 65, 0
4, 7140, Note_on_c, 2, 58, 0
4, 7140, Note_on_c, 2, 60, 60
4, 7140, Note_on_c, 2, 66, 88
4, 7172, Note_on_c, 2, 66, 0
4, 7172, Note_on_c, 2, 65, 68
4, 7185, Note_on_c, 2, 66, 78
4, 7186, Note_on_c, 2, 65, 0
4, 7196, Note_on_c, 2, 66, 0
4, 7200, Note_on_c, 2, 65, 68
4, 7203, Note_on_c, 2, 60, 0
4, 7203, Note_on_c, 2, 59, 60
4, 7260, Note_on_c, 2, 63, 88
4, 7263, Note_on_c, 2, 65, 0
4, 7291, Note_on_c, 2, 62, 52
4, 7292, Note_on_c, 2, 63, 0
4, 7305, Note_on_c, 2, 63, 60
4, 7307, Note_on_c, 2, 62, 0
4, 7320, Note_on_c, 2, 63, 0
4, 7322, Note_on_c, 2, 65, 60
4, 7325, Note_on_c, 2, 62, 68
4, 7327, Note_on_c, 2, 59, 0
4, 7352, Note_on_c, 2, 58, 68
4, 7356, Note_on_c, 2, 65, 0
4, 7414, Note_on_c, 2, 65, 68
4, 7417, Note_on_c, 2, 58, 0
4, 7433, Note_on_c, 2, 62, 0
4, 7442, Note_on_c, 2, 63, 88
4, 7444, Note_on_c, 2, 54, 68
4, 7446, Note_on_c, 2, 65, 0
4, 7475, Note_on_c, 2, 56, 68
4, 7478, Note_on_c, 2, 54, 0
4, 7505, Note_on_c, 2, 58, 78
4, 7508, Note_on_c, 2, 56, 0
4, 7536, Note_on_c, 2, 58, 0
4, 7537, Note_on_c, 2, 60, 52
4, 7566, Note_on_c, 2, 60, 0
4, 7568, Note_on_c, 2, 61, 68
4, 7570, Note_on_c, 2, 63, 0
4, 7619, Note_on_c, 2, 56, 78
4, 7629, Note_on_c, 2, 61, 0
4, 7663, Note_on_c, 2, 56, 0
4, 8763, Note_on_c, 2, 58, 68
4, 8793, Note_on_c, 2, 61, 60
4, 8800, Note_on_c, 2, 58, 0
4, 8826, Note_on_c, 2, 68, 100
4, 8830, Note_on_c, 2, 61, 0
4, 8855, Note_on_c, 2, 60, 68
4, 8857, Note_on_c, 2, 68, 0
4, 8873, Note_on_c, 2, 60, 0
4, 8883, Note_on_c, 2, 60, 88
4, 8912, Note_on_c, 2, 60, 0
4, 8913, Note_on_c, 2, 68, 100
4, 8973, Note_on_c, 2, 68, 0
4, 8973, Note_on_c, 2, 56, 78
4, 9001, Note_on_c, 2, 58, 88
4, 9003, Note_on_c, 2, 56, 0
4, 9031, Note_on_c, 2, 68, 100
4, 9032, Note_on_c, 2, 58, 0
4, 9092, Note_on_c, 2, 68, 0
4, 9094, Note_on_c, 2, 59, 68
4, 9124, Note_on_c, 2, 58, 68
4, 9126, Note_on_c, 2, 59, 0
4, 9155, Note_on_c, 2, 68, 78
4, 9156, Note_on_c, 2, 58, 0
4, 9220, Note_on_c, 2, 57, 78
4, 9222, Note_on_c, 2, 68, 0
4, 9249, Note_on_c, 2, 57, 0
4, 9251, Note_on_c, 2, 68, 100
4, 9275, Note_on_c, 2, 68, 0
4, 9277, Note_on_c, 2, 66, 78
4, 9331, Note_on_c, 2, 66, 0
4, 9332, Note_on_c, 2, 65, 60
4, 9345, Note_on_c, 2, 63, 68
4, 9346, Note_on_c, 2, 65, 0
4, 9357, Note_on_c, 2, 63, 0
4, 9360, Note_on_c, 2, 65, 78
4, 9379, Note_on_c, 2, 65, 0
4, 9389, Note_on_c, 2, 65, 78
4, 9418, Note_on_c, 2, 65, 0
4, 9418, Note_on_c, 2, 66, 88
4, 9450, Note_on_c, 2, 68, 78
4, 9451, Note_on_c, 2, 66, 0
4, 9481, Note_on_c, 2, 68, 0
4, 9481, Note_on_c, 2, 66, 88
4, 9625, Note_on_c, 2, 66, 0
4, 9634, Note_on_c, 2, 66, 88
4, 9665, Note_on_c, 2, 68, 88
4, 9667, Note_on_c, 2, 66, 0
4, 9694, Note_on_c, 2, 68, 0
4, 9694, Note_on_c, 2, 70, 78
4, 9720, Note_on_c, 2, 70, 0
4, 9723, Note_on_c, 2, 71, 78
4, 9871, Note_on_c, 2, 71, 0
4, 9872, Note_on_c, 2, 68, 88
4, 9901, Note_on_c, 2, 70, 88
4, 9905, Note_on_c, 2, 68, 0
4, 9932, Note_on_c, 2, 71, 60
4, 9935, Note_on_c, 2, 70, 0
4, 9960, Note_on_c, 2, 71, 0
4, 9961, Note_on_c, 2, 70, 78
4, 9989, Note_on_c, 2, 71, 78
4, 9999, Note_on_c, 2, 70, 0
4, 10021, Note_on_c, 2, 73, 88
4, 10022, Note_on_c, 2, 71, 0
4, 10110, Note_on_c, 2, 76, 68
4, 10111, Note_on_c, 2, 73, 0
4, 10140, Note_on_c, 2, 76, 0
4, 10141, Note_on_c, 2, 77, 68
4, 10169, Note_on_c, 2, 77, 0
4, 10169, Note_on_c, 2, 79, 60
4, 10199, Note_on_c, 2, 80, 68
4, 10200, Note_on_c, 2, 79, 0
4, 10263, Note_on_c, 2, 82, 78
4, 10266, Note_on_c, 2, 80, 0
4, 10315, Note_on_c, 2, 82, 0
4, 10320, Note_on_c, 2, 82, 68
4, 10379, Note_on_c, 2, 80, 68
4, 10381, Note_on_c, 2, 82, 0
4, 10409, Note_on_c, 2, 79, 68
4, 10414, Note_on_c, 2, 80, 0
4, 10421, Note_on_c, 2, 77, 60
4, 10422, Note_on_c, 2, 79, 0
4, 10437, Note_on_c, 2, 77, 0
4, 10438, Note_on_c, 2, 79, 60
4, 10556, Note_on_c, 2, 79, 0
4, 10563, Note_on_c, 2, 87, 100
4, 10622, Note_on_c, 2, 75, 100
4, 10623, Note_on_c, 2, 87, 0
4, 10685, Note_on_c, 2, 85, 100
4, 10688, Note_on_c, 2, 75, 0
4, 10739, Note_on_c, 2, 75, 78
4, 10740, Note_on_c, 2, 85, 0
4, 10799, Note_on_c, 2, 75, 0
4, 10799, Note_on_c, 2, 85, 88
4, 10866, Note_on_c, 2, 75, 68
4, 10869, Note_on_c, 2, 85, 0
4, 10923, Note_on_c, 2, 85, 78
4, 10924, Note_on_c, 2, 75, 0
4, 10984, Note_on_c, 2, 73, 78
4, 10989, Note_on_c, 2, 85, 0
4, 11040, Note_on_c, 2, 73, 0
4, 11042, Note_on_c, 2, 84, 68
4, 11163, Note_on_c, 2, 82, 68
4, 11164, Note_on_c, 2, 84, 0
4, 11269, Note_on_c, 2, 82, 0
4, 11278, Note_on_c, 2, 82, 88
4, 11389, Note_on_c, 2, 82, 0
4, 11400, Note_on_c, 2, 82, 68
4, 11429, Note_on_c, 2, 77, 68
4, 11431, Note_on_c, 2, 82, 0
4, 11459, Note_on_c, 2, 78, 88
4, 11461, Note_on_c, 2, 77, 0
4, 11517, Note_on_c, 2, 78, 0
4, 14402, Note_on_c, 2, 62, 45
4, 14403, Note_on_c, 2, 70, 60
4, 14461, Note_on_c, 2, 61, 78
4, 14462, Note_on_c, 2, 62, 0
4, 14702, Note_on_c, 2, 60, 60
4, 14703, Note_on_c, 2, 61, 0
4, 14737, Note_on_c, 2, 70, 0
4, 14761, Note_on_c, 2, 65, 78
4, 14819, Note_on_c, 2, 63, 78
4, 14823, Note_on_c, 2, 60, 0
4, 14941, Note_on_c, 2, 62, 68
4, 14942, Note_on_c, 2, 63, 0
4, 15056, Note_on_c, 2, 61, 78
4, 15058, Note_on_c, 2, 62, 0
4, 15091, Note_on_c, 2, 65, 0
4, 15105, Note_on_c, 2, 61, 0
4, 15115, Note_on_c, 2, 65, 78
4, 15209, Note_on_c, 2, 63, 78
4, 15210, Note_on_c, 2, 65, 0
4, 15330, Note_on_c, 2, 61, 78
4, 15334, Note_on_c, 2, 63, 0
4, 15361, Note_on_c, 2, 61, 0
4, 15362, Note_on_c, 2, 60, 68
4, 15392, Note_on_c, 2, 62, 60
4, 15395, Note_on_c, 2, 60, 0
4, 15423, Note_on_c, 2, 63, 88
4, 15424, Note_on_c, 2, 62, 0
4, 15485, Note_on_c, 2, 60, 68
4, 15544, Note_on_c, 2, 58, 78
4, 15545, Note_on_c, 2, 60, 0
4, 15558, Note_on_c, 2, 63, 0
4, 15586, Note_on_c, 2, 61, 68
4, 15588, Note_on_c, 2, 58, 0
4, 15593, Note_on_c, 2, 61, 0
4, 16080, Note_on_c, 2, 72, 68
4, 16136, Note_on_c, 2, 68, 68
4, 16140, Note_on_c, 2, 72, 0
4, 16198, Note_on_c, 2, 67, 78
4, 16200, Note_on_c, 2, 68, 0
4, 16262, Note_on_c, 2, 66, 88
4, 16264, Note_on_c, 2, 67, 0
4, 16321, Note_on_c, 2, 66, 0
4, 16322, Note_on_c, 2, 65, 78
4, 16351, Note_on_c, 2, 67, 68
4, 16355, Note_on_c, 2, 65, 0
4, 16382, Note_on_c, 2, 68, 78
4, 16384, Note_on_c, 2, 67, 0
4, 16412, Note_on_c, 2, 68, 0
4, 16412, Note_on_c, 2, 62, 68
4, 16442, Note_on_c, 2, 67, 60
4, 16443, Note_on_c, 2, 62, 0
4, 16471, Note_on_c, 2, 67, 0
4, 16471, Note_on_c, 2, 66, 78
4, 16494, Note_on_c, 2, 66, 0
4, 16622, Note_on_c, 2, 58, 60
4, 16623, Note_on_c, 2, 70, 60
4, 16862, Note_on_c, 2, 60, 68
4, 16863, Note_on_c, 2, 70, 0
4, 16863, Note_on_c, 2, 58, 0
4, 16863, Note_on_c, 2, 72, 68
4, 16983, Note_on_c, 2, 72, 0
4, 16983, Note_on_c, 2, 60, 0
4, 16983, Note_on_c, 2, 74, 78
4, 16983, Note_on_c, 2, 62, 78
4, 17087, Note_on_c, 2, 62, 0
4, 17090, Note_on_c, 2, 74, 0
4, 17102, Note_on_c, 2, 57, 68
4, 17102, Note_on_c, 2, 62, 78
4, 17219, Note_on_c, 2, 62, 0
4, 17219, Note_on_c, 2, 57, 0
4, 17219, Note_on_c, 2, 70, 88
4, 17334, Note_on_c, 2, 70, 0
4, 17335, Note_on_c, 2, 64, 88
4, 17520, Note_on_c, 2, 64, 0
4, 17520, Note_on_c, 2, 60, 68
4, 17520, Note_on_c, 2, 72, 68
4, 17549, Note_on_c, 2, 72, 0
4, 17556, Note_on_c, 2, 60, 0
4, 17581, Note_on_c, 2, 61, 78
4, 17581, Note_on_c, 2, 64, 68
4, 17640, Note_on_c, 2, 52, 78
4, 17641, Note_on_c, 2, 64, 0
4, 17644, Note_on_c, 2, 61, 0
4, 17700, Note_on_c, 2, 54, 100
4, 17701, Note_on_c, 2, 52, 0
4, 17756, Note_on_c, 2, 54, 0
4, 17759, Note_on_c, 2, 55, 88
4, 17812, Note_on_c, 2, 55, 0
4, 17816, Note_on_c, 2, 64, 78
4, 17817, Note_on_c, 2, 57, 78
4, 17929, Note_on_c, 2, 57, 0
4, 17933, Note_on_c, 2, 64, 0
4, 17936, Note_on_c, 2, 57, 78
4, 17936, Note_on_c, 2, 59, 78
4, 17997, Note_on_c, 2, 57, 0
4, 17997, Note_on_c, 2, 55, 88
4, 18001, Note_on_c, 2, 59, 0
4, 18061, Note_on_c, 2, 42, 78
4, 18062, Note_on_c, 2, 54, 88
4, 18064, Note_on_c, 2, 55, 0
4, 18113, Note_on_c, 2, 54, 0
4, 18114, Note_on_c, 2, 42, 0
4, 18118, Note_on_c, 2, 57, 78
4, 18118, Note_on_c, 2, 45, 52
4, 18177, Note_on_c, 2, 45, 0
4, 18179, Note_on_c, 2, 53, 68
4, 18180, Note_on_c, 2, 65, 88
4, 18181, Note_on_c, 2, 57, 0
4, 18240, Note_on_c, 2, 44, 78
4, 18241, Note_on_c, 2, 65, 0
4, 18241, Note_on_c, 2, 53, 0
4, 18241, Note_on_c, 2, 56, 88
4, 18295, Note_on_c, 2, 56, 0
4, 18296, Note_on_c, 2, 44, 0
4, 19503, Note_on_c, 2, 58, 68
4, 19504, Note_on_c, 2, 70, 68
4, 19618, Note_on_c, 2, 58, 0
4, 19622, Note_on_c, 2, 61, 88
4, 19623, Note_on_c, 2, 73, 78
4, 19626, Note_on_c, 2, 70, 0
4, 19730, Note_on_c, 2, 73, 0
4, 19730, Note_on_c, 2, 61, 0
4, 19731, Note_on_c, 2, 64, 68
4, 19731, Note_on_c, 2, 76, 78
4, 19739, Note_on_c, 2, 76, 0
4, 19741, Note_on_c, 2, 64, 0
4, 20462, Note_on_c, 2, 69, 78
4, 20462, Note_on_c, 2, 81, 68
4, 20620, Note_on_c, 2, 69, 0
4, 20629, Note_on_c, 2, 81, 0
4, 20639, Note_on_c, 2, 63, 68
4, 20641, Note_on_c, 2, 77, 68
4, 20641, Note_on_c, 2, 75, 68
4, 20641, Note_on_c, 2, 70, 68
4, 20868, Note_on_c, 2, 77, 0
4, 20869, Note_on_c, 2, 75, 0
4, 20870, Note_on_c, 2, 63, 0
4, 20871, Note_on_c, 2, 70, 0
4, 20871, End_track
5, 0, Start_track
5, 0, MIDI_port, 0
5, 0, Title_t, "strings"
5, 0, Program_c, 3, 48
5, 0, Control_c, 3, 7, 127
5, 0, Control_c, 3, 10, 40
5, 6722, Note_on_c, 3, 51, 68
5, 6784, Note_on_c, 3, 54, 88
5, 6787, Note_on_c, 3, 51, 0
5, 6844, Note_on_c, 3, 54, 0
5, 6844, Note_on_c, 3, 62, 78
5, 6901, Note_on_c, 3, 62, 0
5, 6901, Note_on_c, 3, 53, 60
5, 6986, Note_on_c, 3, 53, 0
5, 6986, Note_on_c, 3, 51, 68
5, 7015, Note_on_c, 3, 54, 78
5, 7020, Note_on_c, 3, 51, 0
5, 7046, Note_on_c, 3, 54, 0
5, 7046, Note_on_c, 3, 62, 88
5, 7106, Note_on_c, 3, 53, 60
5, 7107, Note_on_c, 3, 62, 0
5, 7139, Note_on_c, 3, 63, 88
5, 7140, Note_on_c, 3, 53, 0
5, 7170, Note_on_c, 3, 55, 60
5, 7172, Note_on_c, 3, 63, 0
5, 7200, Note_on_c, 3, 55, 0
5, 7200, Note_on_c, 3, 62, 78
5, 7258, Note_on_c, 3, 53, 68
5, 7259, Note_on_c, 3, 62, 0
5, 7317, Note_on_c, 3, 53, 0
5, 7319, Note_on_c, 3, 51, 78
5, 7348, Note_on_c, 3, 54, 88
5, 7351, Note_on_c, 3, 51, 0
5, 7379, Note_on_c, 3, 54, 0
5, 7380, Note_on_c, 3, 62, 68
5, 7408, Note_on_c, 3, 62, 0
5, 7410, Note_on_c, 3, 53, 60
5, 7441, Note_on_c, 3, 51, 78
5, 7443, Note_on_c, 3, 53, 0
5, 7466, Note_on_c, 3, 51, 0
5, 7470, Note_on_c, 3, 52, 68
5, 7503, Note_on_c, 3, 60, 68
5, 7504, Note_on_c, 3, 52, 0
5, 7533, Note_on_c, 3, 51, 68
5, 7535, Note_on_c, 3, 60, 0
5, 7563, Note_on_c, 3, 61, 88
5, 7565, Note_on_c, 3, 51, 0
5, 7621, Note_on_c, 3, 50, 68
5, 7623, Note_on_c, 3, 61, 0
5, 7668, Note_on_c, 3, 50, 0
5, 7684, Note_on_c, 3, 51, 68
5, 7712, Note_on_c, 3, 51, 0
5, 7712, Note_on_c, 3, 53, 52
5, 7741, Note_on_c, 3, 53, 0
5, 7741, Note_on_c, 3, 54, 78
5, 7801, Note_on_c, 3, 45, 52
5, 7803, Note_on_c, 3, 54, 0
5, 7860, Note_on_c, 3, 45, 0
5, 7861, Note_on_c, 3, 43, 68
5, 7889, Note_on_c, 3, 45, 68
5, 7892, Note_on_c, 3, 43, 0
5, 7919, Note_on_c, 3, 45, 0
5, 7920, Note_on_c, 3, 46, 68
5, 8039, Note_on_c, 3, 56, 78
5, 8042, Note_on_c, 3, 46, 0
5, 8163, Note_on_c, 3, 56, 0
5, 8163, Note_on_c, 3, 54, 68
5, 8278, Note_on_c, 3, 53, 52
5, 8283, Note_on_c, 3, 54, 0
5, 8339, Note_on_c, 3, 51, 68
5, 8342, Note_on_c, 3, 53, 0
5, 8404, Note_on_c, 3, 49, 60
5, 8406, Note_on_c, 3, 51, 0
5, 8462, Note_on_c, 3, 49, 0
5, 8462, Note_on_c, 3, 48, 60
5, 8551, Note_on_c, 3, 44, 68
5, 8552, Note_on_c, 3, 48, 0
5, 8581, Note_on_c, 3, 56, 88
5, 8582, Note_on_c, 3, 44, 0
5, 8612, Note_on_c, 3, 56, 0
5, 8612, Note_on_c, 3, 55, 60
5, 8642, Note_on_c, 3, 54, 78
5, 8643, Note_on_c, 3, 55, 0
5, 8757, Note_on_c, 3, 54, 0
5, 8758, Note_on_c, 3, 53, 78
5, 8849, Note_on_c, 3, 54, 78
5, 8853, Note_on_c, 3, 53, 0
5, 8881, Note_on_c, 3, 56, 68
5, 8882, Note_on_c, 3, 54, 0
5, 8941, Note_on_c, 3, 54, 78
5, 8943, Note_on_c, 3, 56, 0
5, 8995, Note_on_c, 3, 54, 0
5, 8996, Note_on_c, 3, 53, 68
5, 9060, Note_on_c, 3, 53, 0
5, 9060, Note_on_c, 3, 51, 68
5, 9124, Note_on_c, 3, 51, 0
5, 9124, Note_on_c, 3, 44, 68
5, 9186, Note_on_c, 3, 46, 68
5, 9188, Note_on_c, 3, 44, 0
5, 9359, Note_on_c, 3, 58, 78
5, 9361, Note_on_c, 3, 46, 0
5, 9420, Note_on_c, 3, 58, 0
5, 9421, Note_on_c, 3, 60, 68
5, 9482, Note_on_c, 3, 61, 78
5, 9483, Note_on_c, 3, 60, 0
5, 9512, Note_on_c, 3, 61, 0
5, 9512, Note_on_c, 3, 60, 52
5, 9542, Note_on_c, 3, 61, 78
5, 9546, Note_on_c, 3, 60, 0
5, 9575, Note_on_c, 3, 63, 78
5, 9578, Note_on_c, 3, 61, 0
5, 9606, Note_on_c, 3, 63, 0
5, 9607, Note_on_c, 3, 65, 78
5, 9753, Note_on_c, 3, 62, 60
5, 9755, Note_on_c, 3, 65, 0
5, 9781, Note_on_c, 3, 63, 78
5, 9784, Note_on_c, 3, 62, 0
5, 9810, Note_on_c, 3, 63, 0
5, 9810, Note_on_c, 3, 65, 78
5, 9842, Note_on_c, 3, 65, 0
5, 9842, Note_on_c, 3, 63, 88
5, 10019, Note_on_c, 3, 61, 78
5, 10022, Note_on_c, 3, 63, 0
5, 10048, Note_on_c, 3, 61, 0
5, 10048, Note_on_c, 3, 59, 60
5, 10077, Note_on_c, 3, 59, 0
5, 10077, Note_on_c, 3, 58, 60
5, 10110, Note_on_c, 3, 67, 68
5, 10117, Note_on_c, 3, 58, 0
5, 10137, Note_on_c, 3, 67, 0
5, 10138, Note_on_c, 3, 65, 78
5, 10167, Note_on_c, 3, 65, 0
5, 10169, Note_on_c, 3, 64, 60
5, 10182, Note_on_c, 3, 65, 78
5, 10185, Note_on_c, 3, 64, 0
5, 10199, Note_on_c, 3, 65, 0
5, 10199, Note_on_c, 3, 67, 68
5, 10228, Note_on_c, 3, 67, 0
5, 10230, Note_on_c, 3, 68, 68
5, 10245, Note_on_c, 3, 68, 0
5, 10261, Note_on_c, 3, 55, 78
5, 10289, Note_on_c, 3, 56, 78
5, 10292, Note_on_c, 3, 55, 0
5, 10318, Note_on_c, 3, 56, 0
5, 10319, Note_on_c, 3, 53, 60
5, 10382, Note_on_c, 3, 56, 88
5, 10384, Note_on_c, 3, 53, 0
5, 10442, Note_on_c, 3, 56, 0
5, 10446, Note_on_c, 3, 64, 88
5, 10504, Note_on_c, 3, 64, 0
5, 10504, Note_on_c, 3, 55, 88
5, 10560, Note_on_c, 3, 56, 100
5, 10561, Note_on_c, 3, 55, 0
5, 10620, Note_on_c, 3, 44, 88
5, 10621, Note_on_c, 3, 56, 0
5, 10680, Note_on_c, 3, 44, 0
5, 10681, Note_on_c, 3, 46, 78
5, 10711, Note_on_c, 3, 44, 78
5, 10715, Note_on_c, 3, 46, 0
5, 10740, Note_on_c, 3, 42, 68
5, 10741, Note_on_c, 3, 44, 0
5, 10772, Note_on_c, 3, 41, 45
5, 10773, Note_on_c, 3, 42, 0
5, 10807, Note_on_c, 3, 47, 60
5, 10811, Note_on_c, 3, 41, 0
5, 10866, Note_on_c, 3, 45, 60
5, 10870, Note_on_c, 3, 47, 0
5, 10916, Note_on_c, 3, 45, 0
5, 10922, Note_on_c, 3, 44, 68
5, 10984, Note_on_c, 3, 44, 0
5, 10984, Note_on_c, 3, 43, 60
5, 11031, Note_on_c, 3, 43, 0
5, 11035, Note_on_c, 3, 42, 60
5, 11041, Note_on_c, 3, 43, 60
5, 11124, Note_on_c, 3, 42, 0
5, 11312, Note_on_c, 3, 43, 0
5, 11312, Note_on_c, 3, 41, 52
5, 11338, Note_on_c, 3, 39, 78
5, 11340, Note_on_c, 3, 41, 0
5, 11370, Note_on_c, 3, 41, 45
5, 11373, Note_on_c, 3, 39, 0
5, 11400, Note_on_c, 3, 48, 68
5, 11401, Note_on_c, 3, 41, 0
5, 11431, Note_on_c, 3, 48, 0
5, 14400, Note_on_c, 3, 34, 68
5, 14876, Note_on_c, 3, 46, 68
5, 15345, Note_on_c, 3, 46, 0
5, 15352, Note_on_c, 3, 34, 0
5, 15359, Note_on_c, 3, 44, 78
5, 15359, Note_on_c, 3, 32, 100
5, 15595, Note_on_c, 3, 44, 0
5, 15599, Note_on_c, 3, 32, 0
5, 15603, Note_on_c, 3, 43, 78
5, 15604, Note_on_c, 3, 31, 68
5, 16498, Note_on_c, 3, 31, 0
5, 16499, Note_on_c, 3, 43, 0
5, 16620, Note_on_c, 3, 31, 88
5, 16649, Note_on_c, 3, 31, 0
5, 16665, Note_on_c, 3, 31, 68
5, 16679, Note_on_c, 3, 31, 0
5, 16680, Note_on_c, 3, 34, 88
5, 16710, Note_on_c, 3, 34, 0
5, 16725, Note_on_c, 3, 34, 78
5, 16738, Note_on_c, 3, 34, 0
5, 16740, Note_on_c, 3, 42, 100
5, 16774, Note_on_c, 3, 42, 0
5, 16785, Note_on_c, 3, 42, 88
5, 16798, Note_on_c, 3, 42, 0
5, 16800, Note_on_c, 3, 33, 78
5, 16837, Note_on_c, 3, 33, 0
5, 16845, Note_on_c, 3, 33, 78
5, 16895, Note_on_c, 3, 33, 0
5, 16905, Note_on_c, 3, 31, 68
5, 16917, Note_on_c, 3, 31, 0
5, 16920, Note_on_c, 3, 34, 88
5, 16965, Note_on_c, 3, 34, 0
5, 16965, Note_on_c, 3, 42, 100
5, 17009, Note_on_c, 3, 42, 0
5, 17025, Note_on_c, 3, 33, 78
5, 17040, Note_on_c, 3, 43, 88
5, 17054, Note_on_c, 3, 33, 0
5, 17077, Note_on_c, 3, 43, 0
5, 17084, Note_on_c, 3, 34, 78
5, 17099, Note_on_c, 3, 34, 0
5, 17100, Note_on_c, 3, 35, 78
5, 17154, Note_on_c, 3, 38, 78
5, 17165, Note_on_c, 3, 35, 0
5, 17214, Note_on_c, 3, 38, 0
5, 17216, Note_on_c, 3, 46, 100
5, 17277, Note_on_c, 3, 46, 0
5, 17278, Note_on_c, 3, 37, 88
5, 17332, Note_on_c, 3, 37, 0
5, 17334, Note_on_c, 3, 36, 78
5, 17564, Note_on_c, 3, 36, 0
5, 17579, Note_on_c, 3, 35, 88
5, 17637, Note_on_c, 3, 35, 0
5, 17638, Note_on_c, 3, 34, 88
5, 17682, Note_on_c, 3, 34, 0
5, 17682, Note_on_c, 3, 33, 60
5, 17692, Note_on_c, 3, 33, 0
5, 17694, Note_on_c, 3, 32, 100
5, 17739, Note_on_c, 3, 35, 68
5, 17740, Note_on_c, 3, 32, 0
5, 17755, Note_on_c, 3, 35, 0
5, 17755, Note_on_c, 3, 43, 88
5, 17793, Note_on_c, 3, 43, 0
5, 17797, Note_on_c, 3, 30, 78
5, 17807, Note_on_c, 3, 30, 0
5, 17811, Note_on_c, 3, 29, 60
5, 17872, Note_on_c, 3, 29, 0
5, 17873, Note_on_c, 3, 28, 78
5, 17995, Note_on_c, 3, 28, 0
5, 17997, Note_on_c, 3, 27, 88
5, 18055, Note_on_c, 3, 27, 0
5, 18056, Note_on_c, 3, 26, 88
5, 18292, Note_on_c, 3, 26, 0
5, 18296, Note_on_c, 3, 31, 88
5, 18478, Note_on_c, 3, 31, 0
5, 18478, Note_on_c, 3, 30, 88
5, 18536, Note_on_c, 3, 30, 0
5, 18537, Note_on_c, 3, 29, 78
5, 18717, Note_on_c, 3, 29, 0
5, 18718, Note_on_c, 3, 40, 68
5, 18776, Note_on_c, 3, 40, 0
5, 18777, Note_on_c, 3, 38, 78
5, 18833, Note_on_c, 3, 38, 0
5, 18837, Note_on_c, 3, 41, 78
5, 18897, Note_on_c, 3, 41, 0
5, 18898, Note_on_c, 3, 49, 100
5, 18958, Note_on_c, 3, 49, 0
5, 18960, Note_on_c, 3, 28, 100
5, 19014, Note_on_c, 3, 28, 0
5, 19020, Note_on_c, 3, 27, 100
5, 19257, Note_on_c, 3, 27, 0
5, 19258, Note_on_c, 3, 28, 88
5, 19320, Note_on_c, 3, 27, 100
5, 19321, Note_on_c, 3, 28, 0
5, 19438, Note_on_c, 3, 27, 0
5, 19440, Note_on_c, 3, 26, 88
5, 19723, Note_on_c, 3, 26, 0
5, 19723, End_track
6, 0, Start_track
6, 0, MIDI_port, 0
6, 0, Title_t, "strings"
6, 0, Program_c, 4, 48
6, 0, Control_c, 4, 7, 127
6, 0, Control_c, 4, 10, 84
6, 6732, Note_on_c, 4, 39, 88
6, 6782, Note_on_c, 4, 42, 88
6, 6785, Note_on_c, 4, 39, 0
6, 6843, Note_on_c, 4, 42, 0
6, 6844, Note_on_c, 4, 50, 78
6, 6904, Note_on_c, 4, 41, 60
6, 6905, Note_on_c, 4, 50, 0
6, 6987, Note_on_c, 4, 41, 0
6, 6988, Note_on_c, 4, 39, 78
6, 7016, Note_on_c, 4, 42, 78
6, 7020, Note_on_c, 4, 39, 0
6, 7046, Note_on_c, 4, 42, 0
6, 7046, Note_on_c, 4, 50, 78
6, 7106, Note_on_c, 4, 41, 60
6, 7107, Note_on_c, 4, 50, 0
6, 7135, Note_on_c, 4, 41, 0
6, 7136, Note_on_c, 4, 51, 78
6, 7168, Note_on_c, 4, 43, 60
6, 7172, Note_on_c, 4, 51, 0
6, 7197, Note_on_c, 4, 43, 0
6, 7197, Note_on_c, 4, 50, 68
6, 7258, Note_on_c, 4, 41, 45
6, 7259, Note_on_c, 4, 50, 0
6, 7317, Note_on_c, 4, 41, 0
6, 7323, Note_on_c, 4, 39, 88
6, 7351, Note_on_c, 4, 42, 78
6, 7354, Note_on_c, 4, 39, 0
6, 7381, Note_on_c, 4, 42, 0
6, 7382, Note_on_c, 4, 50, 78
6, 7413, Note_on_c, 4, 41, 60
6, 7414, Note_on_c, 4, 50, 0
6, 7442, Note_on_c, 4, 51, 78
6, 7444, Note_on_c, 4, 41, 0
6, 7471, Note_on_c, 4, 51, 0
6, 7471, Note_on_c, 4, 40, 68
6, 7502, Note_on_c, 4, 48, 68
6, 7503, Note_on_c, 4, 40, 0
6, 7534, Note_on_c, 4, 39, 78
6, 7535, Note_on_c, 4, 48, 0
6, 7563, Note_on_c, 4, 49, 88
6, 7565, Note_on_c, 4, 39, 0
6, 7621, Note_on_c, 4, 38, 78
6, 7623, Note_on_c, 4, 49, 0
6, 7680, Note_on_c, 4, 39, 88
6, 7681, Note_on_c, 4, 38, 0
6, 7714, Note_on_c, 4, 41, 68
6, 7718, Note_on_c, 4, 39, 0
6, 7742, Note_on_c, 4, 42, 88
6, 7743, Note_on_c, 4, 41, 0
6, 7794, Note_on_c, 4, 42, 0
6, 7800, Note_on_c, 4, 33, 60
6, 7859, Note_on_c, 4, 33, 0
6, 7859, Note_on_c, 4, 31, 68
6, 7889, Note_on_c, 4, 33, 78
6, 7891, Note_on_c, 4, 31, 0
6, 7919, Note_on_c, 4, 34, 78
6, 7920, Note_on_c, 4, 33, 0
6, 7975, Note_on_c, 4, 34, 0
6, 14519, Note_on_c, 4, 46, 88
6, 14581, Note_on_c, 4, 46, 0
6, 14581, Note_on_c, 4, 49, 78
6, 14642, Note_on_c, 4, 57, 88
6, 14643, Note_on_c, 4, 49, 0
6, 14764, Note_on_c, 4, 48, 68
6, 14765, Note_on_c, 4, 57, 0
6, 14873, Note_on_c, 4, 48, 0
6, 15120, Note_on_c, 4, 59, 68
6, 15179, Note_on_c, 4, 57, 78
6, 15181, Note_on_c, 4, 59, 0
6, 15233, Note_on_c, 4, 56, 88
6, 15234, Note_on_c, 4, 57, 0
6, 15297, Note_on_c, 4, 54, 88
6, 15298, Note_on_c, 4, 56, 0
6, 15597, Note_on_c, 4, 54, 0
6, 15600, Note_on_c, 4, 48, 78
6, 15701, Note_on_c, 4, 51, 68
6, 15707, Note_on_c, 4, 48, 0
6, 15709, Note_on_c, 4, 51, 0
6, 15714, Note_on_c, 4, 59, 68
6, 15760, Note_on_c, 4, 59, 0
6, 15760, Note_on_c, 4, 62, 78
6, 15774, Note_on_c, 4, 62, 0
6, 15774, Note_on_c, 4, 53, 78
6, 15822, Note_on_c, 4, 53, 0
6, 15822, Note_on_c, 4, 52, 68
6, 15836, Note_on_c, 4, 52, 0
6, 15836, Note_on_c, 4, 51, 88
6, 15938, Note_on_c, 4, 51, 0
6, 15942, Note_on_c, 4, 52, 78
6, 15955, Note_on_c, 4, 52, 0
6, 15955, Note_on_c, 4, 53, 88
6, 16002, Note_on_c, 4, 56, 78
6, 16005, Note_on_c, 4, 53, 0
6, 16013, Note_on_c, 4, 56, 0
6, 16015, Note_on_c, 4, 64, 88
6, 16058, Note_on_c, 4, 64, 0
6, 16061, Note_on_c, 4, 55, 68
6, 16072, Note_on_c, 4, 55, 0
6, 16074, Note_on_c, 4, 54, 100
6, 16183, Note_on_c, 4, 54, 0
6, 16187, Note_on_c, 4, 53, 68
6, 16200, Note_on_c, 4, 54, 100
6, 16203, Note_on_c, 4, 53, 0
6, 16239, Note_on_c, 4, 54, 0
6, 16242, Note_on_c, 4, 57, 68
6, 16257, Note_on_c, 4, 57, 0
6, 16258, Note_on_c, 4, 65, 100
6, 16303, Note_on_c, 4, 65, 0
6, 16305, Note_on_c, 4, 56, 100
6, 16317, Note_on_c, 4, 56, 0
6, 16320, Note_on_c, 4, 55, 88
6, 16425, Note_on_c, 4, 55, 0
6, 16426, Note_on_c, 4, 60, 78
6, 16436, Note_on_c, 4, 60, 0
6, 16437, Note_on_c, 4, 59, 78
6, 16499, Note_on_c, 4, 59, 0
6, 16620, Note_on_c, 4, 43, 88
6, 16649, Note_on_c, 4, 43, 0
6, 16665, Note_on_c, 4, 43, 68
6, 16679, Note_on_c, 4, 43, 0
6, 16680, Note_on_c, 4, 46, 88
6, 16710, Note_on_c, 4, 46, 0
6, 16725, Note_on_c, 4, 46, 78
6, 16738, Note_on_c, 4, 46, 0
6, 16740, Note_on_c, 4, 54, 100
6, 16774, Note_on_c, 4, 54, 0
6, 16785, Note_on_c, 4, 54, 88
6, 16798, Note_on_c, 4, 54, 0
6, 16800, Note_on_c, 4, 45, 78
6, 16837, Note_on_c, 4, 45, 0
6, 16845, Note_on_c, 4, 45, 78
6, 16895, Note_on_c, 4, 45, 0
6, 16905, Note_on_c, 4, 43, 68
6, 16917, Note_on_c, 4, 43, 0
6, 16920, Note_on_c, 4, 46, 88
6, 16965, Note_on_c, 4, 46, 0
6, 16965, Note_on_c, 4, 54, 100
6, 17009, Note_on_c, 4, 54, 0
6, 17025, Note_on_c, 4, 45, 78
6, 17040, Note_on_c, 4, 55, 88
6, 17054, Note_on_c, 4, 45, 0
6, 17077, Note_on_c, 4, 55, 0
6, 17084, Note_on_c, 4, 46, 78
6, 17099, Note_on_c, 4, 46, 0
6, 17100, Note_on_c, 4, 47, 78
6, 17154, Note_on_c, 4, 50, 78
6, 17165, Note_on_c, 4, 47, 0
6, 17214, Note_on_c, 4, 50, 0
6, 17216, Note_on_c, 4, 58, 100
6, 17277, Note_on_c, 4, 58, 0
6, 17278, Note_on_c, 4, 49, 88
6, 17332, Note_on_c, 4, 49, 0
6, 17334, Note_on_c, 4, 48, 78
6, 17564, Note_on_c, 4, 48, 0
6, 17579, Note_on_c, 4, 47, 88
6, 17637, Note_on_c, 4, 47, 0
6, 17638, Note_on_c, 4, 46, 88
6, 17682, Note_on_c, 4, 46, 0
6, 17682, Note_on_c, 4, 45, 60
6, 17692, Note_on_c, 4, 45, 0
6, 17694, Note_on_c, 4, 44, 100
6, 17739, Note_on_c, 4, 47, 68
6, 17740, Note_on_c, 4, 44, 0
6, 17755, Note_on_c, 4, 47, 0
6, 17755, Note_on_c, 4, 55, 88
6, 17793, Note_on_c, 4, 55, 0
6, 17797, Note_on_c, 4, 42, 78
6, 17807, Note_on_c, 4, 42, 0
6, 17811, Note_on_c, 4, 41, 60
6, 17872, Note_on_c, 4, 41, 0
6, 17873, Note_on_c, 4, 40, 78
6, 17995, Note_on_c, 4, 40, 0
6, 17997, Note_on_c, 4, 39, 88
6, 18055, Note_on_c, 4, 39, 0
6, 18056, Note_on_c, 4, 38, 88
6, 18292, Note_on_c, 4, 38, 0
6, 18296, Note_on_c, 4, 43, 88
6, 18478, Note_on_c, 4, 43, 0
6, 18478, Note_on_c, 4, 42, 88
6, 18536, Note_on_c, 4, 42, 0
6, 18537, Note_on_c, 4, 41, 78
6, 18717, Note_on_c, 4, 41, 0
6, 18718, Note_on_c, 4, 52, 68
6, 18776, Note_on_c, 4, 52, 0
6, 18777, Note_on_c, 4, 50, 78
6, 18833, Note_on_c, 4, 50, 0
6, 18837, Note_on_c, 4, 53, 78
6, 18897, Note_on_c, 4, 53, 0
6, 18898, Note_on_c, 4, 61, 100
6, 18958, Note_on_c, 4, 61, 0
6, 18960, Note_on_c, 4, 40, 100
6, 19014, Note_on_c, 4, 40, 0
6, 19020, Note_on_c, 4, 39, 100
6, 19257, Note_on_c, 4, 39, 0
6, 19258, Note_on_c, 4, 40, 88
6, 19320, Note_on_c, 4, 39, 100
6, 19321, Note_on_c, 4, 40, 0
6, 19438, Note_on_c, 4, 39, 0
6, 19440, Note_on_c, 4, 38, 88
6, 19723, Note_on_c, 4, 38, 0
6, 19742, Note_on_c, 4, 39, 88
6, 19800, Note_on_c, 4, 39, 0
6, 19800, Note_on_c, 4, 54, 100
6, 19856, Note_on_c, 4, 54, 0
6, 19858, Note_on_c, 4, 62, 78
6, 19912, Note_on_c, 4, 62, 0
6, 19921, Note_on_c, 4, 40, 88
6, 19975, Note_on_c, 4, 40, 0
6, 19983, Note_on_c, 4, 39, 100
6, 20041, Note_on_c, 4, 39, 0
6, 20044, Note_on_c, 4, 54, 100
6, 20095, Note_on_c, 4, 54, 0
6, 20101, Note_on_c, 4, 62, 78
6, 20159, Note_on_c, 4, 62, 0
6, 20161, Note_on_c, 4, 40, 88
6, 20221, Note_on_c, 4, 40, 0
6, 20224, Note_on_c, 4, 39, 100
6, 20283, Note_on_c, 4, 54, 100
6, 20285, Note_on_c, 4, 39, 0
6, 20342, Note_on_c, 4, 54, 0
6, 20343, Note_on_c, 4, 62, 78
6, 20402, Note_on_c, 4, 62, 0
6, 20404, Note_on_c, 4, 40, 88
6, 20457, Note_on_c, 4, 40, 0
6, 20457, End_track
7, 0, Start_track
7, 0, MIDI_port, 0
7, 0, Title_t, "soprano"
7, 0, Program_c, 5, 52
7, 0, Control_c, 5, 7, 127
7, 0, Control_c, 5, 10, 108
7, 6727, Note_on_c, 5, 75, 62
7, 6848, Note_on_c, 5, 70, 62
7, 6849, Note_on_c, 5, 75, 0
7, 7000, Note_on_c, 5, 70, 0
7, 7018, Note_on_c, 5, 70, 88
7, 7060, Note_on_c, 5, 70, 0
7, 7078, Note_on_c, 5, 70, 78
7, 7138, Note_on_c, 5, 70, 0
7, 7138, Note_on_c, 5, 69, 88
7, 7200, Note_on_c, 5, 69, 0
7, 7200, Note_on_c, 5, 68, 88
7, 7353, Note_on_c, 5, 70, 78
7, 7358, Note_on_c, 5, 68, 0
7, 7380, Note_on_c, 5, 70, 0
7, 7383, Note_on_c, 5, 71, 70
7, 7443, Note_on_c, 5, 71, 0
7, 7443, Note_on_c, 5, 70, 88
7, 7500, Note_on_c, 5, 78, 62
7, 7505, Note_on_c, 5, 70, 0
7, 7563, Note_on_c, 5, 78, 0
7, 7563, Note_on_c, 5, 77, 70
7, 7740, Note_on_c, 5, 72, 78
7, 7742, Note_on_c, 5, 77, 0
7, 7860, Note_on_c, 5, 72, 0
7, 7860, Note_on_c, 5, 73, 88
7, 7920, Note_on_c, 5, 68, 88
7, 7922, Note_on_c, 5, 73, 0
7, 8042, Note_on_c, 5, 70, 78
7, 8046, Note_on_c, 5, 68, 0
7, 8103, Note_on_c, 5, 72, 70
7, 8105, Note_on_c, 5, 70, 0
7, 8148, Note_on_c, 5, 72, 0
7, 8166, Note_on_c, 5, 72, 70
7, 8196, Note_on_c, 5, 72, 0
7, 8196, Note_on_c, 5, 70, 55
7, 8209, Note_on_c, 5, 72, 55
7, 8212, Note_on_c, 5, 70, 0
7, 8220, Note_on_c, 5, 73, 70
7, 8223, Note_on_c, 5, 72, 0
7, 8281, Note_on_c, 5, 73, 0
7, 8282, Note_on_c, 5, 75, 78
7, 8399, Note_on_c, 5, 75, 0
7, 8401, Note_on_c, 5, 76, 78
7, 8504, Note_on_c, 5, 76, 0
7, 8520, Note_on_c, 5, 76, 78
7, 8581, Note_on_c, 5, 76, 0
7, 8582, Note_on_c, 5, 75, 78
7, 8641, Note_on_c, 5, 75, 0
7, 8641, Note_on_c, 5, 77, 70
7, 8701, Note_on_c, 5, 73, 88
7, 8702, Note_on_c, 5, 77, 0
7, 8800, Note_on_c, 5, 73, 0
7, 8819, Note_on_c, 5, 72, 55
7, 8851, Note_on_c, 5, 73, 70
7, 8855, Note_on_c, 5, 72, 0
7, 8880, Note_on_c, 5, 75, 78
7, 8883, Note_on_c, 5, 73, 0
7, 8938, Note_on_c, 5, 74, 78
7, 8940, Note_on_c, 5, 75, 0
7, 8968, Note_on_c, 5, 75, 88
7, 8974, Note_on_c, 5, 74, 0
7, 8994, Note_on_c, 5, 75, 0
7, 8998, Note_on_c, 5, 77, 78
7, 9048, Note_on_c, 5, 77, 0
7, 9064, Note_on_c, 5, 77, 78
7, 9242, Note_on_c, 5, 75, 78
7, 9245, Note_on_c, 5, 77, 0
7, 9283, Note_on_c, 5, 75, 0
7, 9300, Note_on_c, 5, 75, 78
7, 9423, Note_on_c, 5, 73, 78
7, 9427, Note_on_c, 5, 75, 0
7, 9542, Note_on_c, 5, 71, 78
7, 9544, Note_on_c, 5, 73, 0
7, 9605, Note_on_c, 5, 74, 70
7, 9610, Note_on_c, 5, 71, 0
7, 9633, Note_on_c, 5, 75, 70
7, 9637, Note_on_c, 5, 74, 0
7, 9661, Note_on_c, 5, 75, 0
7, 9662, Note_on_c, 5, 77, 70
7, 9724, Note_on_c, 5, 68, 98
7, 9727, Note_on_c, 5, 77, 0
7, 9784, Note_on_c, 5, 75, 98
7, 9789, Note_on_c, 5, 68, 0
7, 9960, Note_on_c, 5, 73, 88
7, 9962, Note_on_c, 5, 75, 0
7, 9999, Note_on_c, 5, 73, 0
7, 10021, Note_on_c, 5, 73, 88
7, 10080, Note_on_c, 5, 73, 88
7, 10146, Note_on_c, 5, 73, 0
7, 10198, Note_on_c, 5, 73, 0
7, 10198, Note_on_c, 5, 72, 78
7, 10260, Note_on_c, 5, 70, 98
7, 10263, Note_on_c, 5, 72, 0
7, 10317, Note_on_c, 5, 70, 0
7, 10320, Note_on_c, 5, 72, 88
7, 10337, Note_on_c, 5, 72, 0
7, 10347, Note_on_c, 5, 72, 78
7, 10365, Note_on_c, 5, 72, 0
7, 10376, Note_on_c, 5, 72, 78
7, 10492, Note_on_c, 5, 72, 0
7, 10503, Note_on_c, 5, 72, 88
7, 10621, Note_on_c, 5, 73, 98
7, 10622, Note_on_c, 5, 72, 0
7, 10647, Note_on_c, 5, 73, 0
7, 10648, Note_on_c, 5, 72, 78
7, 10677, Note_on_c, 5, 70, 98
7, 10679, Note_on_c, 5, 72, 0
7, 10741, Note_on_c, 5, 72, 88
7, 10742, Note_on_c, 5, 70, 0
7, 10768, Note_on_c, 5, 70, 98
7, 10771, Note_on_c, 5, 72, 0
7, 10801, Note_on_c, 5, 70, 0
7, 10802, Note_on_c, 5, 68, 110
7, 10972, Note_on_c, 5, 68, 0
7, 10980, Note_on_c, 5, 68, 110
7, 11043, Note_on_c, 5, 68, 0
7, 12236, Note_on_c, 5, 77, 70
7, 12298, Note_on_c, 5, 72, 78
7, 12299, Note_on_c, 5, 77, 0
7, 12405, Note_on_c, 5, 72, 0
7, 12415, Note_on_c, 5, 72, 62
7, 12516, Note_on_c, 5, 72, 0
7, 12541, Note_on_c, 5, 72, 78
7, 12584, Note_on_c, 5, 72, 0
7, 12598, Note_on_c, 5, 72, 70
7, 12658, Note_on_c, 5, 72, 0
7, 12659, Note_on_c, 5, 71, 78
7, 12717, Note_on_c, 5, 71, 0
7, 12717, Note_on_c, 5, 70, 88
7, 12746, Note_on_c, 5, 72, 70
7, 12750, Note_on_c, 5, 70, 0
7, 12776, Note_on_c, 5, 73, 98
7, 12777, Note_on_c, 5, 72, 0
7, 12838, Note_on_c, 5, 73, 0
7, 12839, Note_on_c, 5, 72, 98
7, 12900, Note_on_c, 5, 80, 70
7, 12903, Note_on_c, 5, 72, 0
7, 12958, Note_on_c, 5, 80, 0
7, 12959, Note_on_c, 5, 79, 78
7, 13080, Note_on_c, 5, 67, 88
7, 13081, Note_on_c, 5, 79, 0
7, 13198, Note_on_c, 5, 67, 0
7, 13198, Note_on_c, 5, 66, 88
7, 13318, Note_on_c, 5, 75, 88
7, 13320, Note_on_c, 5, 66, 0
7, 13486, Note_on_c, 5, 75, 0
7, 13499, Note_on_c, 5, 75, 88
7, 13608, Note_on_c, 5, 75, 0
7, 13618, Note_on_c, 5, 75, 88
7, 13665, Note_on_c, 5, 75, 0
7, 13675, Note_on_c, 5, 75, 88
7, 13847, Note_on_c, 5, 75, 0
7, 13857, Note_on_c, 5, 75, 88
7, 13915, Note_on_c, 5, 73, 88
7, 13916, Note_on_c, 5, 75, 0
7, 14026, Note_on_c, 5, 73, 0
7, 14035, Note_on_c, 5, 73, 88
7, 14156, Note_on_c, 5, 73, 0
7, 14157, Note_on_c, 5, 72, 88
7, 14268, Note_on_c, 5, 72, 0
7, 14277, Note_on_c, 5, 72, 78
7, 14397, Note_on_c, 5, 72, 0
7, 16621, Note_on_c, 5, 70, 78
7, 16714, Note_on_c, 5, 70, 0
7, 16725, Note_on_c, 5, 70, 88
7, 16737, Note_on_c, 5, 70, 0
7, 16739, Note_on_c, 5, 73, 98
7, 16800, Note_on_c, 5, 75, 98
7, 16802, Note_on_c, 5, 73, 0
7, 16864, Note_on_c, 5, 75, 0
7, 16864, Note_on_c, 5, 73, 88
7, 16888, Note_on_c, 5, 75, 78
7, 16891, Note_on_c, 5, 73, 0
7, 16916, Note_on_c, 5, 75, 0
7, 16917, Note_on_c, 5, 77, 78
7, 16979, Note_on_c, 5, 77, 0
7, 16979, Note_on_c, 5, 78, 98
7, 17043, Note_on_c, 5, 78, 0
7, 17043, Note_on_c, 5, 69, 88
7, 17102, Note_on_c, 5, 72, 98
7, 17105, Note_on_c, 5, 69, 0
7, 17218, Note_on_c, 5, 72, 0
7, 17218, Note_on_c, 5, 70, 98
7, 17280, Note_on_c, 5, 77, 88
7, 17283, Note_on_c, 5, 70, 0
7, 17336, Note_on_c, 5, 78, 98
7, 17337, Note_on_c, 5, 77, 0
7, 17511, Note_on_c, 5, 78, 0
7, 17518, Note_on_c, 5, 78, 98
7, 17580, Note_on_c, 5, 78, 0
7, 17581, Note_on_c, 5, 79, 98
7, 17697, Note_on_c, 5, 79, 0
7, 17698, Note_on_c, 5, 71, 88
7, 17756, Note_on_c, 5, 70, 98
7, 17757, Note_on_c, 5, 71, 0
7, 17818, Note_on_c, 5, 70, 0
7, 17818, Note_on_c, 5, 69, 88
7, 17848, Note_on_c, 5, 71, 88
7, 17850, Note_on_c, 5, 69, 0
7, 17877, Note_on_c, 5, 71, 0
7, 17877, Note_on_c, 5, 72, 88
7, 17937, Note_on_c, 5, 72, 0
7, 17938, Note_on_c, 5, 71, 98
7, 17999, Note_on_c, 5, 71, 0
7, 17999, Note_on_c, 5, 79, 88
7, 18057, Note_on_c, 5, 79, 0
7, 18057, Note_on_c, 5, 78, 98
7, 18283, Note_on_c, 5, 78, 0
7, 18298, Note_on_c, 5, 78, 98
7, 18421, Note_on_c, 5, 71, 88
7, 18422, Note_on_c, 5, 78, 0
7, 18484, Note_on_c, 5, 70, 98
7, 18485, Note_on_c, 5, 71, 0
7, 18542, Note_on_c, 5, 69, 88
7, 18543, Note_on_c, 5, 70, 0
7, 18570, Note_on_c, 5, 71, 88
7, 18573, Note_on_c, 5, 69, 0
7, 18599, Note_on_c, 5, 72, 88
7, 18601, Note_on_c, 5, 71, 0
7, 18659, Note_on_c, 5, 72, 0
7, 18659, Note_on_c, 5, 71, 88
7, 18719, Note_on_c, 5, 78, 88
7, 18721, Note_on_c, 5, 71, 0
7, 18775, Note_on_c, 5, 77, 88
7, 18776, Note_on_c, 5, 78, 0
7, 19005, Note_on_c, 5, 77, 0
7, 19023, Note_on_c, 5, 77, 88
7, 19139, Note_on_c, 5, 70, 88
7, 19141, Note_on_c, 5, 77, 0
7, 19195, Note_on_c, 5, 70, 0
7, 19197, Note_on_c, 5, 69, 88
7, 19259, Note_on_c, 5, 68, 98
7, 19261, Note_on_c, 5, 69, 0
7, 19290, Note_on_c, 5, 70, 98
7, 19292, Note_on_c, 5, 68, 0
7, 19319, Note_on_c, 5, 70, 0
7, 19320, Note_on_c, 5, 71, 88
7, 19381, Note_on_c, 5, 71, 0
7, 19382, Note_on_c, 5, 70, 88
7, 19442, Note_on_c, 5, 77, 88
7, 19444, Note_on_c, 5, 70, 0
7, 19500, Note_on_c, 5, 77, 0
7, 19500, Note_on_c, 5, 76, 88
7, 19711, Note_on_c, 5, 76, 0
7, 19740, Note_on_c, 5, 75, 98
7, 19847, Note_on_c, 5, 75, 0
7, 19859, Note_on_c, 5, 75, 98
7, 19906, Note_on_c, 5, 75, 0
7, 19917, Note_on_c, 5, 75, 88
7, 20028, Note_on_c, 5, 75, 0
7, 20039, Note_on_c, 5, 75, 98
7, 20140, Note_on_c, 5, 75, 0
7, 20162, Note_on_c, 5, 75, 88
7, 20211, Note_on_c, 5, 75, 0
7, 20219, Note_on_c, 5, 75, 88
7, 20274, Note_on_c, 5, 75, 0
7, 20283, Note_on_c, 5, 75, 88
7, 20386, Note_on_c, 5, 75, 0
7, 20400, Note_on_c, 5, 75, 78
7, 20508, Note_on_c, 5, 75, 0
7, 20519, Note_on_c, 5, 75, 78
7, 20631, Note_on_c, 5, 75, 0
7, 20650, Note_on_c, 5, 75, 70
7, 20695, Note_on_c, 5, 75, 0
7, 20708, Note_on_c, 5, 75, 88
7, 20896, Note_on_c, 5, 75, 0
7, 20896, End_track
8, 0, Start_track
8, 0, MIDI_port, 0
8, 0, Title_t, "alto"
8, 0, Program_c, 6, 52
8, 0, Control_c, 6, 7, 127
8, 0, Control_c, 6, 10, 91
8, 7681, Note_on_c, 6, 70, 88
8, 7805, Note_on_c, 6, 65, 98
8, 7806, Note_on_c, 6, 70, 0
8, 7975, Note_on_c, 6, 65, 0
8, 7984, Note_on_c, 6, 65, 98
8, 8031, Note_on_c, 6, 65, 0
8, 8042, Note_on_c, 6, 65, 98
8, 8102, Note_on_c, 6, 65, 0
8, 8103, Note_on_c, 6, 64, 98
8, 8162, Note_on_c, 6, 64, 0
8, 8162, Note_on_c, 6, 63, 110
8, 8311, Note_on_c, 6, 65, 98
8, 8315, Note_on_c, 6, 63, 0
8, 8342, Note_on_c, 6, 66, 98
8, 8343, Note_on_c, 6, 65, 0
8, 8400, Note_on_c, 6, 66, 0
8, 8400, Note_on_c, 6, 65, 98
8, 8460, Note_on_c, 6, 73, 98
8, 8461, Note_on_c, 6, 65, 0
8, 8520, Note_on_c, 6, 72, 98
8, 8525, Note_on_c, 6, 73, 0
8, 8823, Note_on_c, 6, 70, 98
8, 8825, Note_on_c, 6, 72, 0
8, 8971, Note_on_c, 6, 70, 0
8, 8971, Note_on_c, 6, 68, 98
8, 9002, Note_on_c, 6, 68, 0
8, 9002, Note_on_c, 6, 66, 98
8, 9060, Note_on_c, 6, 68, 88
8, 9062, Note_on_c, 6, 66, 0
8, 9091, Note_on_c, 6, 70, 98
8, 9093, Note_on_c, 6, 68, 0
8, 9121, Note_on_c, 6, 70, 0
8, 9123, Note_on_c, 6, 71, 98
8, 9183, Note_on_c, 6, 70, 98
8, 9187, Note_on_c, 6, 71, 0
8, 9213, Note_on_c, 6, 68, 98
8, 9216, Note_on_c, 6, 70, 0
8, 9244, Note_on_c, 6, 68, 0
8, 9244, Note_on_c, 6, 66, 98
8, 9306, Note_on_c, 6, 68, 98
8, 9309, Note_on_c, 6, 66, 0
8, 9362, Note_on_c, 6, 68, 0
8, 9362, Note_on_c, 6, 63, 98
8, 9481, Note_on_c, 6, 63, 0
8, 9481, Note_on_c, 6, 65, 110
8, 9544, Note_on_c, 6, 66, 110
8, 9545, Note_on_c, 6, 65, 0
8, 9594, Note_on_c, 6, 66, 0
8, 9604, Note_on_c, 6, 66, 110
8, 9666, Note_on_c, 6, 66, 0
8, 9667, Note_on_c, 6, 65, 98
8, 9694, Note_on_c, 6, 66, 98
8, 9698, Note_on_c, 6, 65, 0
8, 9723, Note_on_c, 6, 68, 98
8, 9724, Note_on_c, 6, 66, 0
8, 9772, Note_on_c, 6, 68, 0
8, 9783, Note_on_c, 6, 68, 98
8, 9899, Note_on_c, 6, 68, 0
8, 9899, Note_on_c, 6, 66, 98
8, 9929, Note_on_c, 6, 68, 98
8, 9932, Note_on_c, 6, 66, 0
8, 9961, Note_on_c, 6, 70, 98
8, 9962, Note_on_c, 6, 68, 0
8, 10011, Note_on_c, 6, 70, 0
8, 10020, Note_on_c, 6, 70, 98
8, 10080, Note_on_c, 6, 70, 0
8, 10080, Note_on_c, 6, 67, 98
8, 10141, Note_on_c, 6, 68, 110
8, 10144, Note_on_c, 6, 67, 0
8, 10201, Note_on_c, 6, 70, 88
8, 10203, Note_on_c, 6, 68, 0
8, 10229, Note_on_c, 6, 68, 98
8, 10231, Note_on_c, 6, 70, 0
8, 10259, Note_on_c, 6, 68, 0
8, 10260, Note_on_c, 6, 67, 88
8, 10313, Note_on_c, 6, 67, 0
8, 10323, Note_on_c, 6, 67, 88
8, 10383, Note_on_c, 6, 67, 0
8, 10384, Note_on_c, 6, 65, 98
8, 10442, Note_on_c, 6, 67, 98
8, 10445, Note_on_c, 6, 65, 0
8, 10471, Note_on_c, 6, 68, 98
8, 10474, Note_on_c, 6, 67, 0
8, 10500, Note_on_c, 6, 70, 98
8, 10502, Note_on_c, 6, 68, 0
8, 10561, Note_on_c, 6, 68, 110
8, 10565, Note_on_c, 6, 70, 0
8, 10620, Note_on_c, 6, 68, 0
8, 10622, Note_on_c, 6, 67, 78
8, 10682, Note_on_c, 6, 66, 98
8, 10686, Note_on_c, 6, 67, 0
8, 10714, Note_on_c, 6, 66, 0
8, 10714, Note_on_c, 6, 65, 98
8, 10743, Note_on_c, 6, 63, 98
8, 10744, Note_on_c, 6, 65, 0
8, 10802, Note_on_c, 6, 65, 98
8, 10803, Note_on_c, 6, 63, 0
8, 10861, Note_on_c, 6, 66, 98
8, 10862, Note_on_c, 6, 65, 0
8, 10924, Note_on_c, 6, 66, 0
8, 10925, Note_on_c, 6, 65, 98
8, 11046, Note_on_c, 6, 65, 0
8, 12359, Note_on_c, 6, 70, 88
8, 12479, Note_on_c, 6, 70, 0
8, 12479, Note_on_c, 6, 65, 98
8, 12647, Note_on_c, 6, 65, 0
8, 12660, Note_on_c, 6, 65, 98
8, 12765, Note_on_c, 6, 65, 0
8, 12782, Note_on_c, 6, 65, 98
8, 12837, Note_on_c, 6, 66, 98
8, 12838, Note_on_c, 6, 65, 0
8, 12899, Note_on_c, 6, 66, 0
8, 12900, Note_on_c, 6, 65, 88
8, 12965, Note_on_c, 6, 64, 78
8, 12968, Note_on_c, 6, 65, 0
8, 12992, Note_on_c, 6, 63, 88
8, 12994, Note_on_c, 6, 64, 0
8, 13021, Note_on_c, 6, 61, 98
8, 13022, Note_on_c, 6, 63, 0
8, 13082, Note_on_c, 6, 63, 98
8, 13084, Note_on_c, 6, 61, 0
8, 13128, Note_on_c, 6, 63, 0
8, 13139, Note_on_c, 6, 63, 98
8, 13189, Note_on_c, 6, 63, 0
8, 13199, Note_on_c, 6, 63, 98
8, 13380, Note_on_c, 6, 63, 0
8, 13381, Note_on_c, 6, 65, 98
8, 13441, Note_on_c, 6, 66, 98
8, 13442, Note_on_c, 6, 65, 0
8, 13558, Note_on_c, 6, 65, 98
8, 13567, Note_on_c, 6, 66, 0
8, 13679, Note_on_c, 6, 73, 88
8, 13680, Note_on_c, 6, 65, 0
8, 13794, Note_on_c, 6, 73, 0
8, 13794, Note_on_c, 6, 72, 78
8, 13907, Note_on_c, 6, 72, 0
8, 13916, Note_on_c, 6, 72, 78
8, 14041, Note_on_c, 6, 70, 98
8, 14044, Note_on_c, 6, 72, 0
8, 14146, Note_on_c, 6, 70, 0
8, 14158, Note_on_c, 6, 70, 98
8, 14280, Note_on_c, 6, 70, 0
8, 14282, Note_on_c, 6, 69, 88
8, 14397, Note_on_c, 6, 69, 0
8, 16625, Note_on_c, 6, 70, 98
8, 16717, Note_on_c, 6, 70, 0
8, 16728, Note_on_c, 6, 70, 98
8, 16735, Note_on_c, 6, 70, 0
8, 16741, Note_on_c, 6, 70, 110
8, 16787, Note_on_c, 6, 70, 0
8, 16798, Note_on_c, 6, 70, 110
8, 16859, Note_on_c, 6, 70, 0
8, 16861, Note_on_c, 6, 72, 98
8, 16913, Note_on_c, 6, 72, 0
8, 16923, Note_on_c, 6, 72, 88
8, 16979, Note_on_c, 6, 72, 0
8, 16981, Note_on_c, 6, 71, 98
8, 17042, Note_on_c, 6, 71, 0
8, 17043, Note_on_c, 6, 69, 88
8, 17102, Note_on_c, 6, 69, 0
8, 17103, Note_on_c, 6, 72, 98
8, 17224, Note_on_c, 6, 70, 110
8, 17226, Note_on_c, 6, 72, 0
8, 17270, Note_on_c, 6, 70, 0
8, 17280, Note_on_c, 6, 70, 98
8, 17327, Note_on_c, 6, 70, 0
8, 17338, Note_on_c, 6, 70, 98
8, 17508, Note_on_c, 6, 70, 0
8, 17521, Note_on_c, 6, 70, 98
8, 17577, Note_on_c, 6, 70, 0
8, 17583, Note_on_c, 6, 76, 88
8, 17702, Note_on_c, 6, 76, 0
8, 17703, Note_on_c, 6, 67, 88
8, 17751, Note_on_c, 6, 67, 0
8, 17758, Note_on_c, 6, 67, 110
8, 17820, Note_on_c, 6, 67, 0
8, 17821, Note_on_c, 6, 69, 88
8, 17849, Note_on_c, 6, 71, 88
8, 17851, Note_on_c, 6, 69, 0
8, 17879, Note_on_c, 6, 72, 88
8, 17881, Note_on_c, 6, 71, 0
8, 17937, Note_on_c, 6, 72, 0
8, 17939, Note_on_c, 6, 71, 88
8, 17998, Note_on_c, 6, 71, 0
8, 17999, Note_on_c, 6, 67, 98
8, 18057, Note_on_c, 6, 67, 0
8, 18058, Note_on_c, 6, 74, 110
8, 18301, Note_on_c, 6, 74, 0
8, 18302, Note_on_c, 6, 66, 110
8, 18416, Note_on_c, 6, 66, 0
8, 18426, Note_on_c, 6, 66, 98
8, 18480, Note_on_c, 6, 66, 0
8, 18483, Note_on_c, 6, 67, 98
8, 18542, Note_on_c, 6, 69, 98
8, 18544, Note_on_c, 6, 67, 0
8, 18769, Note_on_c, 6, 69, 0
8, 18780, Note_on_c, 6, 69, 98
8, 19024, Note_on_c, 6, 69, 0
8, 19026, Note_on_c, 6, 65, 98
8, 19146, Note_on_c, 6, 70, 98
8, 19148, Note_on_c, 6, 65, 0
8, 19200, Note_on_c, 6, 70, 0
8, 19201, Note_on_c, 6, 69, 78
8, 19260, Note_on_c, 6, 69, 0
8, 19260, Note_on_c, 6, 68, 110
8, 19291, Note_on_c, 6, 70, 88
8, 19295, Note_on_c, 6, 68, 0
8, 19319, Note_on_c, 6, 70, 0
8, 19322, Note_on_c, 6, 71, 98
8, 19383, Note_on_c, 6, 70, 110
8, 19384, Note_on_c, 6, 71, 0
8, 19496, Note_on_c, 6, 70, 0
8, 19505, Note_on_c, 6, 70, 110
8, 19717, Note_on_c, 6, 70, 0
8, 19743, Note_on_c, 6, 63, 98
8, 19848, Note_on_c, 6, 63, 0
8, 19861, Note_on_c, 6, 63, 88
8, 19908, Note_on_c, 6, 63, 0
8, 19920, Note_on_c, 6, 63, 88
8, 20028, Note_on_c, 6, 63, 0
8, 20042, Note_on_c, 6, 63, 88
8, 20145, Note_on_c, 6, 63, 0
8, 20164, Note_on_c, 6, 63, 78
8, 20209, Note_on_c, 6, 63, 0
8, 20222, Note_on_c, 6, 63, 78
8, 20271, Note_on_c, 6, 63, 0
8, 20282, Note_on_c, 6, 63, 88
8, 20389, Note_on_c, 6, 63, 0
8, 20403, Note_on_c, 6, 63, 88
8, 20502, Note_on_c, 6, 63, 0
8, 20521, Note_on_c, 6, 63, 78
8, 20626, Note_on_c, 6, 63, 0
8, 20645, Note_on_c, 6, 63, 88
8, 20681, Note_on_c, 6, 63, 0
8, 20702, Note_on_c, 6, 63, 98
8, 20905, Note_on_c, 6, 63, 0
8, 20905, End_track
9, 0, Start_track
9, 0, MIDI_port, 0
9, 0, Title_t, "tenor"
9, 0, Program_c, 7, 52
9, 0, Control_c, 7, 7, 127
9, 0, Control_c, 7, 10, 40
9, 9121, Note_on_c, 7, 63, 88
9, 9245, Note_on_c, 7, 58, 98
9, 9246, Note_on_c, 7, 63, 0
9, 9407, Note_on_c, 7, 58, 0
9, 9417, Note_on_c, 7, 58, 98
9, 9465, Note_on_c, 7, 58, 0
9, 9477, Note_on_c, 7, 58, 98
9, 9538, Note_on_c, 7, 57, 88
9, 9540, Note_on_c, 7, 58, 0
9, 9601, Note_on_c, 7, 57, 0
9, 9601, Note_on_c, 7, 56, 98
9, 9748, Note_on_c, 7, 58, 98
9, 9751, Note_on_c, 7, 56, 0
9, 9778, Note_on_c, 7, 58, 0
9, 9778, Note_on_c, 7, 59, 88
9, 9841, Note_on_c, 7, 59, 0
9, 9842, Note_on_c, 7, 58, 98
9, 9900, Note_on_c, 7, 66, 98
9, 9902, Note_on_c, 7, 58, 0
9, 9959, Note_on_c, 7, 65, 98
9, 9961, Note_on_c, 7, 66, 0
9, 10140, Note_on_c, 7, 65, 0
9, 10140, Note_on_c, 7, 60, 88
9, 10259, Note_on_c, 7, 61, 88
9, 10261, Note_on_c, 7, 60, 0
9, 10319, Note_on_c, 7, 56, 98
9, 10321, Note_on_c, 7, 61, 0
9, 10440, Note_on_c, 7, 58, 98
9, 10442, Note_on_c, 7, 56, 0
9, 10503, Note_on_c, 7, 60, 88
9, 10504, Note_on_c, 7, 58, 0
9, 10550, Note_on_c, 7, 60, 0
9, 10562, Note_on_c, 7, 60, 98
9, 10620, Note_on_c, 7, 58, 88
9, 10621, Note_on_c, 7, 60, 0
9, 10648, Note_on_c, 7, 60, 88
9, 10651, Note_on_c, 7, 58, 0
9, 10679, Note_on_c, 7, 61, 98
9, 10680, Note_on_c, 7, 60, 0
9, 10741, Note_on_c, 7, 63, 98
9, 10742, Note_on_c, 7, 61, 0
9, 10789, Note_on_c, 7, 63, 0
9, 10796, Note_on_c, 7, 63, 110
9, 10858, Note_on_c, 7, 63, 0
9, 10858, Note_on_c, 7, 61, 110
9, 10888, Note_on_c, 7, 63, 98
9, 10892, Note_on_c, 7, 61, 0
9, 10917, Note_on_c, 7, 63, 0
9, 10918, Note_on_c, 7, 65, 98
9, 11045, Note_on_c, 7, 63, 110
9, 11046, Note_on_c, 7, 65, 0
9, 11100, Note_on_c, 7, 63, 0
9, 11100, Note_on_c, 7, 61, 98
9, 11127, Note_on_c, 7, 63, 98
9, 11130, Note_on_c, 7, 61, 0
9, 11155, Note_on_c, 7, 63, 0
9, 11157, Note_on_c, 7, 65, 98
9, 11217, Note_on_c, 7, 60, 88
9, 11219, Note_on_c, 7, 65, 0
9, 11337, Note_on_c, 7, 61, 98
9, 11340, Note_on_c, 7, 60, 0
9, 11398, Note_on_c, 7, 63, 98
9, 11401, Note_on_c, 7, 61, 0
9, 11459, Note_on_c, 7, 63, 0
9, 11459, Note_on_c, 7, 58, 98
9, 11516, Note_on_c, 7, 58, 0
9, 11518, Note_on_c, 7, 60, 88
9, 11548, Note_on_c, 7, 61, 88
9, 11552, Note_on_c, 7, 60, 0
9, 11577, Note_on_c, 7, 63, 98
9, 11581, Note_on_c, 7, 61, 0
9, 11606, Note_on_c, 7, 63, 0
9, 11606, Note_on_c, 7, 65, 88
9, 11636, Note_on_c, 7, 65, 0
9, 11638, Note_on_c, 7, 66, 110
9, 11699, Note_on_c, 7, 66, 0
9, 11699, Note_on_c, 7, 57, 98
9, 11756, Note_on_c, 7, 57, 0
9, 11757, Note_on_c, 7, 64, 88
9, 11938, Note_on_c, 7, 62, 98
9, 11939, Note_on_c, 7, 64, 0
9, 11986, Note_on_c, 7, 62, 0
9, 12000, Note_on_c, 7, 62, 88
9, 12121, Note_on_c, 7, 63, 98
9, 12123, Note_on_c, 7, 62, 0
9, 12357, Note_on_c, 7, 63, 0
9, 12480, Note_on_c, 7, 63, 88
9, 12600, Note_on_c, 7, 58, 88
9, 12602, Note_on_c, 7, 63, 0
9, 12829, Note_on_c, 7, 58, 0
9, 12839, Note_on_c, 7, 58, 98
9, 12946, Note_on_c, 7, 58, 0
9, 12958, Note_on_c, 7, 58, 88
9, 13008, Note_on_c, 7, 58, 0
9, 13021, Note_on_c, 7, 58, 88
9, 13138, Note_on_c, 7, 58, 0
9, 13139, Note_on_c, 7, 57, 88
9, 13182, Note_on_c, 7, 57, 0
9, 13196, Note_on_c, 7, 57, 88
9, 13259, Note_on_c, 7, 56, 88
9, 13262, Note_on_c, 7, 57, 0
9, 13305, Note_on_c, 7, 56, 0
9, 13316, Note_on_c, 7, 56, 88
9, 13438, Note_on_c, 7, 56, 0
9, 13440, Note_on_c, 7, 56, 98
9, 13497, Note_on_c, 7, 58, 98
9, 13499, Note_on_c, 7, 56, 0
9, 13556, Note_on_c, 7, 58, 0
9, 13558, Note_on_c, 7, 59, 78
9, 13678, Note_on_c, 7, 59, 0
9, 13678, Note_on_c, 7, 58, 88
9, 13797, Note_on_c, 7, 66, 98
9, 13798, Note_on_c, 7, 58, 0
9, 13919, Note_on_c, 7, 66, 0
9, 13919, Note_on_c, 7, 65, 98
9, 13976, Note_on_c, 7, 66, 98
9, 13977, Note_on_c, 7, 65, 0
9, 14098, Note_on_c, 7, 65, 98
9, 14102, Note_on_c, 7, 66, 0
9, 14145, Note_on_c, 7, 65, 0
9, 14157, Note_on_c, 7, 65, 88
9, 14189, Note_on_c, 7, 65, 0
9, 14189, Note_on_c, 7, 64, 98
9, 14207, Note_on_c, 7, 64, 0
9, 14218, Note_on_c, 7, 64, 88
9, 14270, Note_on_c, 7, 64, 0
9, 14278, Note_on_c, 7, 64, 88
9, 14339, Note_on_c, 7, 63, 88
9, 14341, Note_on_c, 7, 64, 0
9, 14394, Note_on_c, 7, 63, 0
9, 16620, Note_on_c, 7, 58, 98
9, 16715, Note_on_c, 7, 58, 0
9, 16727, Note_on_c, 7, 58, 98
9, 16740, Note_on_c, 7, 62, 88
9, 16741, Note_on_c, 7, 58, 0
9, 16802, Note_on_c, 7, 63, 98
9, 16803, Note_on_c, 7, 62, 0
9, 16864, Note_on_c, 7, 62, 98
9, 16865, Note_on_c, 7, 63, 0
9, 16892, Note_on_c, 7, 63, 98
9, 16895, Note_on_c, 7, 62, 0
9, 16920, Note_on_c, 7, 63, 0
9, 16922, Note_on_c, 7, 65, 98
9, 16983, Note_on_c, 7, 65, 0
9, 16983, Note_on_c, 7, 66, 110
9, 17041, Note_on_c, 7, 66, 0
9, 17041, Note_on_c, 7, 57, 98
9, 17102, Note_on_c, 7, 57, 0
9, 17103, Note_on_c, 7, 60, 98
9, 17219, Note_on_c, 7, 58, 110
9, 17220, Note_on_c, 7, 60, 0
9, 17271, Note_on_c, 7, 58, 0
9, 17280, Note_on_c, 7, 58, 98
9, 17331, Note_on_c, 7, 58, 0
9, 17339, Note_on_c, 7, 64, 98
9, 17510, Note_on_c, 7, 64, 0
9, 17521, Note_on_c, 7, 64, 98
9, 17566, Note_on_c, 7, 64, 0
9, 17580, Note_on_c, 7, 64, 98
9, 17749, Note_on_c, 7, 64, 0
9, 17760, Note_on_c, 7, 64, 88
9, 17807, Note_on_c, 7, 64, 0
9, 17820, Note_on_c, 7, 64, 88
9, 17850, Note_on_c, 7, 62, 88
9, 17852, Note_on_c, 7, 64, 0
9, 17880, Note_on_c, 7, 62, 0
9, 17881, Note_on_c, 7, 60, 78
9, 17938, Note_on_c, 7, 60, 0
9, 17939, Note_on_c, 7, 59, 88
9, 17998, Note_on_c, 7, 59, 0
9, 17999, Note_on_c, 7, 67, 98
9, 18057, Note_on_c, 7, 66, 110
9, 18059, Note_on_c, 7, 67, 0
9, 18284, Note_on_c, 7, 66, 0
9, 18302, Note_on_c, 7, 66, 110
9, 18421, Note_on_c, 7, 66, 0
9, 18421, Note_on_c, 7, 59, 78
9, 18483, Note_on_c, 7, 61, 98
9, 18485, Note_on_c, 7, 59, 0
9, 18546, Note_on_c, 7, 61, 0
9, 18546, Note_on_c, 7, 57, 98
9, 18572, Note_on_c, 7, 59, 88
9, 18576, Note_on_c, 7, 57, 0
9, 18602, Note_on_c, 7, 59, 0
9, 18603, Note_on_c, 7, 60, 88
9, 18661, Note_on_c, 7, 60, 0
9, 18661, Note_on_c, 7, 59, 98
9, 18720, Note_on_c, 7, 66, 110
9, 18721, Note_on_c, 7, 59, 0
9, 18776, Note_on_c, 7, 66, 0
9, 18780, Note_on_c, 7, 65, 88
9, 19015, Note_on_c, 7, 65, 0
9, 19024, Note_on_c, 7, 65, 98
9, 19131, Note_on_c, 7, 65, 0
9, 19141, Note_on_c, 7, 65, 98
9, 19191, Note_on_c, 7, 65, 0
9, 19199, Note_on_c, 7, 65, 98
9, 19258, Note_on_c, 7, 64, 98
9, 19259, Note_on_c, 7, 65, 0
9, 19313, Note_on_c, 7, 64, 0
9, 19323, Note_on_c, 7, 64, 98
9, 19382, Note_on_c, 7, 64, 0
9, 19387, Note_on_c, 7, 65, 98
9, 19504, Note_on_c, 7, 65, 0
9, 19504, Note_on_c, 7, 64, 98
9, 19741, Note_on_c, 7, 63, 88
9, 19744, Note_on_c, 7, 64, 0
9, 19851, Note_on_c, 7, 63, 0
9, 19861, Note_on_c, 7, 63, 88
9, 19913, Note_on_c, 7, 63, 0
9, 19922, Note_on_c, 7, 63, 78
9, 20032, Note_on_c, 7, 63, 0
9, 20041, Note_on_c, 7, 63, 98
9, 20152, Note_on_c, 7, 63, 0
9, 20164, Note_on_c, 7, 63, 98
9, 20211, Note_on_c, 7, 63, 0
9, 20221, Note_on_c, 7, 63, 98
9, 20275, Note_on_c, 7, 63, 0
9, 20284, Note_on_c, 7, 63, 98
9, 20391, Note_on_c, 7, 63, 0
9, 20404, Note_on_c, 7, 63, 98
9, 20510, Note_on_c, 7, 63, 0
9, 20521, Note_on_c, 7, 63, 98
9, 20627, Note_on_c, 7, 63, 0
9, 20646, Note_on_c, 7, 63, 98
9, 20687, Note_on_c, 7, 63, 0
9, 20705, Note_on_c, 7, 63, 98
9, 20925, Note_on_c, 7, 63, 0
9, 20925, End_track
10, 0, Start_track
10, 0, MIDI_port, 0
10, 0, Title_t, "bass"
10, 0, Program_c, 8, 52
10, 0, Control_c, 8, 7, 127
10, 0, Control_c, 8, 10, 14
10, 10081, Note_on_c, 8, 58, 98
10, 10200, Note_on_c, 8, 58, 0
10, 10201, Note_on_c, 8, 53, 98
10, 10366, Note_on_c, 8, 53, 0
10, 10378, Note_on_c, 8, 53, 88
10, 10427, Note_on_c, 8, 53, 0
10, 10440, Note_on_c, 8, 53, 88
10, 10501, Note_on_c, 8, 53, 0
10, 10501, Note_on_c, 8, 52, 88
10, 10557, Note_on_c, 8, 52, 0
10, 10561, Note_on_c, 8, 51, 98
10, 10709, Note_on_c, 8, 51, 0
10, 10711, Note_on_c, 8, 53, 88
10, 10741, Note_on_c, 8, 53, 0
10, 10741, Note_on_c, 8, 54, 110
10, 10796, Note_on_c, 8, 54, 0
10, 10797, Note_on_c, 8, 53, 98
10, 10856, Note_on_c, 8, 61, 98
10, 10857, Note_on_c, 8, 53, 0
10, 10919, Note_on_c, 8, 61, 0
10, 10920, Note_on_c, 8, 60, 98
10, 11042, Note_on_c, 8, 60, 0
10, 11043, Note_on_c, 8, 58, 98
10, 11127, Note_on_c, 8, 56, 98
10, 11128, Note_on_c, 8, 58, 0
10, 11157, Note_on_c, 8, 56, 0
10, 11157, Note_on_c, 8, 54, 98
10, 11188, Note_on_c, 8, 56, 98
10, 11191, Note_on_c, 8, 54, 0
10, 11247, Note_on_c, 8, 58, 98
10, 11249, Note_on_c, 8, 56, 0
10, 11278, Note_on_c, 8, 56, 98
10, 11279, Note_on_c, 8, 58, 0
10, 11400, Note_on_c, 8, 54, 98
10, 11402, Note_on_c, 8, 56, 0
10, 11427, Note_on_c, 8, 54, 0
10, 11427, Note_on_c, 8, 56, 98
10, 11440, Note_on_c, 8, 54, 98
10, 11444, Note_on_c, 8, 56, 0
10, 11454, Note_on_c, 8, 54, 0
10, 11455, Note_on_c, 8, 53, 88
10, 11489, Note_on_c, 8, 54, 98
10, 11491, Note_on_c, 8, 53, 0
10, 11520, Note_on_c, 8, 54, 0
10, 11520, Note_on_c, 8, 53, 78
10, 11576, Note_on_c, 8, 54, 98
10, 11579, Note_on_c, 8, 53, 0
10, 11607, Note_on_c, 8, 56, 98
10, 11609, Note_on_c, 8, 54, 0
10, 11637, Note_on_c, 8, 56, 0
10, 11637, Note_on_c, 8, 57, 98
10, 11818, Note_on_c, 8, 55, 88
10, 11820, Note_on_c, 8, 57, 0
10, 11876, Note_on_c, 8, 54, 98
10, 11877, Note_on_c, 8, 55, 0
10, 11996, Note_on_c, 8, 54, 0
10, 11999, Note_on_c, 8, 53, 88
10, 12029, Note_on_c, 8, 54, 98
10, 12033, Note_on_c, 8, 53, 0
10, 12059, Note_on_c, 8, 56, 98
10, 12064, Note_on_c, 8, 54, 0
10, 12087, Note_on_c, 8, 58, 88
10, 12091, Note_on_c, 8, 56, 0
10, 12115, Note_on_c, 8, 58, 0
10, 12116, Note_on_c, 8, 59, 88
10, 12147, Note_on_c, 8, 51, 88
10, 12151, Note_on_c, 8, 59, 0
10, 12177, Note_on_c, 8, 56, 98
10, 12181, Note_on_c, 8, 51, 0
10, 12206, Note_on_c, 8, 56, 0
10, 12211, Note_on_c, 8, 54, 78
10, 12237, Note_on_c, 8, 53, 78
10, 12244, Note_on_c, 8, 54, 0
10, 12361, Note_on_c, 8, 53, 0
10, 12599, Note_on_c, 8, 56, 98
10, 12655, Note_on_c, 8, 51, 98
10, 12657, Note_on_c, 8, 56, 0
10, 12767, Note_on_c, 8, 51, 0
10, 12781, Note_on_c, 8, 51, 98
10, 12824, Note_on_c, 8, 51, 0
10, 12838, Note_on_c, 8, 51, 88
10, 12895, Note_on_c, 8, 51, 0
10, 12896, Note_on_c, 8, 50, 88
10, 12958, Note_on_c, 8, 50, 0
10, 12958, Note_on_c, 8, 49, 98
10, 12989, Note_on_c, 8, 51, 98
10, 12993, Note_on_c, 8, 49, 0
10, 13018, Note_on_c, 8, 51, 0
10, 13021, Note_on_c, 8, 52, 78
10, 13079, Note_on_c, 8, 52, 0
10, 13079, Note_on_c, 8, 51, 88
10, 13136, Note_on_c, 8, 51, 0
10, 13137, Note_on_c, 8, 47, 88
10, 13197, Note_on_c, 8, 47, 0
10, 13197, Note_on_c, 8, 46, 78
10, 13280, Note_on_c, 8, 46, 0
10, 13287, Note_on_c, 8, 46, 98
10, 13302, Note_on_c, 8, 46, 0
10, 13316, Note_on_c, 8, 46, 78
10, 13344, Note_on_c, 8, 47, 78
10, 13349, Note_on_c, 8, 46, 0
10, 13376, Note_on_c, 8, 46, 98
10, 13377, Note_on_c, 8, 47, 0
10, 13526, Note_on_c, 8, 45, 88
10, 13528, Note_on_c, 8, 46, 0
10, 13556, Note_on_c, 8, 45, 0
10, 13556, Note_on_c, 8, 44, 98
10, 13616, Note_on_c, 8, 56, 98
10, 13618, Note_on_c, 8, 44, 0
10, 13673, Note_on_c, 8, 56, 0
10, 13675, Note_on_c, 8, 55, 78
10, 13734, Note_on_c, 8, 54, 98
10, 13735, Note_on_c, 8, 55, 0
10, 13795, Note_on_c, 8, 54, 0
10, 13796, Note_on_c, 8, 53, 88
10, 13855, Note_on_c, 8, 51, 98
10, 13857, Note_on_c, 8, 53, 0
10, 13917, Note_on_c, 8, 53, 88
10, 13919, Note_on_c, 8, 51, 0
10, 13947, Note_on_c, 8, 54, 98
10, 13950, Note_on_c, 8, 53, 0
10, 13976, Note_on_c, 8, 54, 0
10, 13977, Note_on_c, 8, 53, 88
10, 14087, Note_on_c, 8, 53, 0
10, 14095, Note_on_c, 8, 53, 88
10, 14209, Note_on_c, 8, 53, 0
10, 14219, Note_on_c, 8, 53, 98
10, 14329, Note_on_c, 8, 53, 0
10, 14337, Note_on_c, 8, 53, 88
10, 14394, Note_on_c, 8, 53, 0
10, 16620, Note_on_c, 8, 58, 110
10, 16716, Note_on_c, 8, 58, 0
10, 16726, Note_on_c, 8, 58, 110
10, 16731, Note_on_c, 8, 58, 0
10, 16739, Note_on_c, 8, 58, 110
10, 16788, Note_on_c, 8, 58, 0
10, 16797, Note_on_c, 8, 58, 110
10, 16857, Note_on_c, 8, 58, 0
10, 16859, Note_on_c, 8, 60, 98
10, 16910, Note_on_c, 8, 60, 0
10, 16919, Note_on_c, 8, 60, 98
10, 16979, Note_on_c, 8, 60, 0
10, 16979, Note_on_c, 8, 59, 88
10, 17036, Note_on_c, 8, 59, 0
10, 17038, Note_on_c, 8, 57, 98
10, 17101, Note_on_c, 8, 57, 0
10, 17101, Note_on_c, 8, 60, 98
10, 17217, Note_on_c, 8, 58, 110
10, 17218, Note_on_c, 8, 60, 0
10, 17267, Note_on_c, 8, 58, 0
10, 17276, Note_on_c, 8, 58, 98
10, 17329, Note_on_c, 8, 58, 0
10, 17341, Note_on_c, 8, 58, 110
10, 17517, Note_on_c, 8, 58, 0
10, 17519, Note_on_c, 8, 60, 98
10, 17578, Note_on_c, 8, 60, 0
10, 17579, Note_on_c, 8, 61, 88
10, 17636, Note_on_c, 8, 61, 0
10, 17637, Note_on_c, 8, 52, 88
10, 17697, Note_on_c, 8, 54, 110
10, 17700, Note_on_c, 8, 52, 0
10, 17754, Note_on_c, 8, 54, 0
10, 17756, Note_on_c, 8, 55, 98
10, 17818, Note_on_c, 8, 57, 98
10, 17820, Note_on_c, 8, 55, 0
10, 17847, Note_on_c, 8, 59, 88
10, 17850, Note_on_c, 8, 57, 0
10, 17877, Note_on_c, 8, 60, 88
10, 17879, Note_on_c, 8, 59, 0
10, 17935, Note_on_c, 8, 60, 0
10, 17935, Note_on_c, 8, 59, 88
10, 18058, Note_on_c, 8, 59, 0
10, 18059, Note_on_c, 8, 60, 98
10, 18298, Note_on_c, 8, 60, 0
10, 18298, Note_on_c, 8, 59, 88
10, 18404, Note_on_c, 8, 59, 0
10, 18416, Note_on_c, 8, 59, 98
10, 18474, Note_on_c, 8, 59, 0
10, 18475, Note_on_c, 8, 58, 98
10, 18539, Note_on_c, 8, 58, 0
10, 18539, Note_on_c, 8, 57, 98
10, 18772, Note_on_c, 8, 57, 0
10, 18779, Note_on_c, 8, 57, 98
10, 19020, Note_on_c, 8, 58, 98
10, 19021, Note_on_c, 8, 57, 0
10, 19127, Note_on_c, 8, 58, 0
10, 19136, Note_on_c, 8, 58, 98
10, 19197, Note_on_c, 8, 57, 98
10, 19199, Note_on_c, 8, 58, 0
10, 19261, Note_on_c, 8, 56, 98
10, 19262, Note_on_c, 8, 57, 0
10, 19293, Note_on_c, 8, 58, 98
10, 19294, Note_on_c, 8, 56, 0
10, 19321, Note_on_c, 8, 58, 0
10, 19322, Note_on_c, 8, 59, 98
10, 19382, Note_on_c, 8, 58, 110
10, 19383, Note_on_c, 8, 59, 0
10, 19494, Note_on_c, 8, 58, 0
10, 19501, Note_on_c, 8, 58, 98
10, 19717, Note_on_c, 8, 58, 0
10, 19736, Note_on_c, 8, 51, 110
10, 19851, Note_on_c, 8, 51, 0
10, 19860, Note_on_c, 8, 51, 78
10, 19909, Note_on_c, 8, 51, 0
10, 19919, Note_on_c, 8, 51, 78
10, 20028, Note_on_c, 8, 51, 0
10, 20037, Note_on_c, 8, 51, 88
10, 20148, Note_on_c, 8, 51, 0
10, 20159, Note_on_c, 8, 51, 88
10, 20213, Note_on_c, 8, 51, 0
10, 20222, Note_on_c, 8, 51, 78
10, 20271, Note_on_c, 8, 51, 0
10, 20281, Note_on_c, 8, 51, 88
10, 20387, Note_on_c, 8, 51, 0
10, 20399, Note_on_c, 8, 51, 78
10, 20506, Note_on_c, 8, 51, 0
10, 20518, Note_on_c, 8, 51, 88
10, 20577, Note_on_c, 8, 51, 0
10, 20638, Note_on_c, 8, 51, 70
10, 20675, Note_on_c, 8, 51, 0
10, 20698, Note_on_c, 8, 51, 88
10, 20903, Note_on_c, 8, 51, 0
10, 20903, End_track
11, 0, Start_track
11, 0, MIDI_port, 0
11, 0, Title_t, "-movement 2 (of 3)"
11, 0, Control_c, 0, 7, 127
11, 0, Control_c, 0, 10, 64
11, 0, End_track
12, 0, Start_track
12, 0, MIDI_port, 0
12, 0, Title_t, "Symphony of Psalms"
12, 0, Control_c, 0, 7, 127
12, 0, Control_c, 0, 10, 64
12, 0, End_track
13, 0, Start_track
13, 0, MIDI_port, 0
13, 0, Title_t, "by Igor Stravinsky"
13, 0, Control_c, 0, 7, 127
13, 0, Control_c, 0, 10, 64
13, 0, End_track
14, 0, Start_track
14, 0, MIDI_port, 0
14, 0, Title_t, "sequenced by"
14, 0, Control_c, 0, 7, 127
14, 0, Control_c, 0, 10, 64
14, 0, End_track
15, 0, Start_track
15, 0, MIDI_port, 0
15, 0, Title_t, "Michael Petri"
15, 0, Control_c, 0, 7, 127
15, 0, Control_c, 0, 10, 64
15, 0, End_track
0, 0, End_of_file
