0, 0, Header, 1, 17, 120
1, 0, Start_track
1, 0, Time_signature, 2, 2, 24, 8
1, 0, Key_signature, 0, "major"
1, 0, Tempo, 606061
1, 0, Marker_t, "Symphony Of Psalms by Igor Stravinsky"
1, 240, Time_signature, 3, 2, 24, 8
1, 600, Time_signature, 2, 2, 24, 8
1, 1800, Time_signature, 1, 2, 24, 8
1, 1920, Time_signature, 2, 2, 24, 8
1, 3120, Time_signature, 1, 2, 24, 8
1, 3240, Time_signature, 2, 2, 24, 8
1, 5880, Time_signature, 4, 2, 24, 8
1, 10680, Time_signature, 3, 2, 24, 8
1, 11040, Time_signature, 2, 2, 24, 8
1, 11280, Time_signature, 3, 2, 24, 8
1, 11640, Time_signature, 2, 2, 24, 8
1, 12120, Time_signature, 4, 2, 24, 8
1, 15480, Time_signature, 1, 2, 24, 8
1, 15600, Time_signature, 4, 2, 24, 8
1, 17520, Time_signature, 3, 1, 48, 8
1, 18240, Time_signature, 2, 1, 48, 8
1, 19200, Time_signature, 3, 1, 48, 8
1, 19920, Time_signature, 2, 1, 48, 8
1, 20400, Time_signature, 3, 1, 48, 8
1, 25440, Time_signature, 4, 2, 24, 8
1, 26880, Time_signature, 3, 1, 48, 8
1, 26880, End_track
2, 0, Start_track
2, 0, MIDI_port, 0
2, 0, Title_t, "accomp (piano)"
2, 0, Program_c, 0, 0
2, 0, Control_c, 0, 7, 127
2, 0, Control_c, 0, 10, 64
2, 120, Note_on_c, 0, 67, 110
2, 120, Note_on_c, 0, 76, 110
2, 120, Note_on_c, 0, 79, 110
2, 120, Note_on_c, 0, 83, 110
2, 180, Note_on_c, 0, 83, 0
2, 180, Note_on_c, 0, 67, 0
2, 180, Note_on_c, 0, 76, 0
2, 180, Note_on_c, 0, 79, 0
2, 240, Note_on_c, 0, 70, 44
2, 270, Note_on_c, 0, 70, 0
2, 270, Note_on_c, 0, 74, 30
2, 300, Note_on_c, 0, 74, 0
2, 300, Note_on_c, 0, 77, 44
2, 330, Note_on_c, 0, 77, 0
2, 330, Note_on_c, 0, 80, 44
2, 360, Note_on_c, 0, 80, 0
2, 360, Note_on_c, 0, 79, 39
2, 390, Note_on_c, 0, 79, 0
2, 390, Note_on_c, 0, 77, 44
2, 420, Note_on_c, 0, 77, 0
2, 420, Note_on_c, 0, 74, 35
2, 450, Note_on_c, 0, 74, 0
2, 450, Note_on_c, 0, 71, 39
2, 480, Note_on_c, 0, 71, 0
2, 480, Note_on_c, 0, 80, 35
2, 510, Note_on_c, 0, 80, 0
2, 510, Note_on_c, 0, 79, 24
2, 540, Note_on_c, 0, 79, 0
2, 540, Note_on_c, 0, 74, 39
2, 570, Note_on_c, 0, 74, 0
2, 570, Note_on_c, 0, 71, 30
2, 600, Note_on_c, 0, 71, 0
2, 600, Note_on_c, 0, 70, 44
2, 630, Note_on_c, 0, 70, 0
2, 630, Note_on_c, 0, 74, 44
2, 660, Note_on_c, 0, 74, 0
2, 660, Note_on_c, 0, 77, 17
2, 690, Note_on_c, 0, 77, 0
2, 690, Note_on_c, 0, 80, 49
2, 720, Note_on_c, 0, 80, 0
2, 720, Note_on_c, 0, 79, 44
2, 750, Note_on_c, 0, 79, 0
2, 750, Note_on_c, 0, 77, 35
2, 780, Note_on_c, 0, 77, 0
2, 780, Note_on_c, 0, 74, 39
2, 810, Note_on_c, 0, 74, 0
2, 810, Note_on_c, 0, 71, 44
2, 840, Note_on_c, 0, 71, 0
2, 960, Note_on_c, 0, 67, 110
2, 960, Note_on_c, 0, 76, 110
2, 960, Note_on_c, 0, 79, 110
2, 960, Note_on_c, 0, 83, 110
2, 1020, Note_on_c, 0, 83, 0
2, 1020, Note_on_c, 0, 67, 0
2, 1020, Note_on_c, 0, 76, 0
2, 1020, Note_on_c, 0, 79, 0
2, 1080, Note_on_c, 0, 70, 44
2, 1110, Note_on_c, 0, 70, 0
2, 1110, Note_on_c, 0, 74, 35
2, 1140, Note_on_c, 0, 74, 0
2, 1140, Note_on_c, 0, 77, 35
2, 1170, Note_on_c, 0, 77, 0
2, 1170, Note_on_c, 0, 80, 55
2, 1200, Note_on_c, 0, 80, 0
2, 1200, Note_on_c, 0, 69, 39
2, 1230, Note_on_c, 0, 69, 0
2, 1230, Note_on_c, 0, 74, 44
2, 1260, Note_on_c, 0, 74, 0
2, 1260, Note_on_c, 0, 77, 24
2, 1290, Note_on_c, 0, 77, 0
2, 1290, Note_on_c, 0, 80, 44
2, 1320, Note_on_c, 0, 80, 0
2, 1320, Note_on_c, 0, 69, 35
2, 1350, Note_on_c, 0, 69, 0
2, 1350, Note_on_c, 0, 74, 49
2, 1380, Note_on_c, 0, 74, 0
2, 1380, Note_on_c, 0, 77, 35
2, 1410, Note_on_c, 0, 77, 0
2, 1410, Note_on_c, 0, 80, 49
2, 1440, Note_on_c, 0, 80, 0
2, 1440, Note_on_c, 0, 79, 44
2, 1470, Note_on_c, 0, 79, 0
2, 1470, Note_on_c, 0, 77, 44
2, 1500, Note_on_c, 0, 77, 0
2, 1500, Note_on_c, 0, 74, 49
2, 1530, Note_on_c, 0, 74, 0
2, 1530, Note_on_c, 0, 69, 30
2, 1560, Note_on_c, 0, 69, 0
2, 1560, Note_on_c, 0, 80, 49
2, 1590, Note_on_c, 0, 80, 0
2, 1590, Note_on_c, 0, 77, 30
2, 1620, Note_on_c, 0, 77, 0
2, 1620, Note_on_c, 0, 74, 30
2, 1650, Note_on_c, 0, 74, 0
2, 1650, Note_on_c, 0, 69, 35
2, 1680, Note_on_c, 0, 69, 0
2, 1680, Note_on_c, 0, 77, 35
2, 1710, Note_on_c, 0, 77, 0
2, 1710, Note_on_c, 0, 74, 30
2, 1740, Note_on_c, 0, 74, 0
2, 1740, Note_on_c, 0, 67, 35
2, 1770, Note_on_c, 0, 67, 0
2, 1770, Note_on_c, 0, 66, 70
2, 1800, Note_on_c, 0, 66, 0
2, 1800, Note_on_c, 0, 67, 110
2, 1800, Note_on_c, 0, 76, 110
2, 1800, Note_on_c, 0, 79, 110
2, 1800, Note_on_c, 0, 83, 110
2, 1830, Note_on_c, 0, 83, 0
2, 1830, Note_on_c, 0, 79, 0
2, 1830, Note_on_c, 0, 76, 0
2, 1860, Note_on_c, 0, 67, 0
2, 1920, Note_on_c, 0, 80, 49
2, 1950, Note_on_c, 0, 80, 0
2, 1950, Note_on_c, 0, 77, 28
2, 1980, Note_on_c, 0, 77, 0
2, 1980, Note_on_c, 0, 74, 30
2, 2010, Note_on_c, 0, 74, 0
2, 2010, Note_on_c, 0, 69, 17
2, 2040, Note_on_c, 0, 69, 0
2, 2040, Note_on_c, 0, 77, 1
2, 2070, Note_on_c, 0, 77, 0
2, 2070, Note_on_c, 0, 74, 30
2, 2100, Note_on_c, 0, 74, 0
2, 2100, Note_on_c, 0, 67, 35
2, 2130, Note_on_c, 0, 67, 0
2, 2130, Note_on_c, 0, 66, 70
2, 2160, Note_on_c, 0, 66, 0
2, 2160, Note_on_c, 0, 77, 55
2, 2190, Note_on_c, 0, 77, 0
2, 2190, Note_on_c, 0, 74, 28
2, 2220, Note_on_c, 0, 74, 0
2, 2220, Note_on_c, 0, 67, 28
2, 2250, Note_on_c, 0, 67, 0
2, 2250, Note_on_c, 0, 66, 55
2, 2280, Note_on_c, 0, 66, 0
2, 2280, Note_on_c, 0, 76, 49
2, 2310, Note_on_c, 0, 76, 0
2, 2310, Note_on_c, 0, 72, 39
2, 2340, Note_on_c, 0, 72, 0
2, 2340, Note_on_c, 0, 67, 44
2, 2370, Note_on_c, 0, 67, 0
2, 2370, Note_on_c, 0, 65, 100
2, 2400, Note_on_c, 0, 65, 0
2, 2400, Note_on_c, 0, 74, 30
2, 2430, Note_on_c, 0, 74, 0
2, 2430, Note_on_c, 0, 71, 44
2, 2460, Note_on_c, 0, 71, 0
2, 2460, Note_on_c, 0, 67, 30
2, 2490, Note_on_c, 0, 67, 0
2, 2490, Note_on_c, 0, 65, 55
2, 2520, Note_on_c, 0, 65, 0
2, 2520, Note_on_c, 0, 62, 49
2, 2550, Note_on_c, 0, 62, 0
2, 2550, Note_on_c, 0, 58, 44
2, 2580, Note_on_c, 0, 58, 0
2, 2580, Note_on_c, 0, 55, 39
2, 2640, Note_on_c, 0, 55, 0
2, 2670, Note_on_c, 0, 65, 49
2, 2700, Note_on_c, 0, 65, 0
2, 2700, Note_on_c, 0, 55, 44
2, 2700, Note_on_c, 0, 67, 55
2, 2730, Note_on_c, 0, 67, 0
2, 2730, Note_on_c, 0, 55, 0
2, 2730, Note_on_c, 0, 68, 62
2, 2760, Note_on_c, 0, 68, 0
2, 2760, Note_on_c, 0, 70, 49
2, 2790, Note_on_c, 0, 70, 0
2, 2790, Note_on_c, 0, 64, 49
2, 2790, Note_on_c, 0, 72, 39
2, 2820, Note_on_c, 0, 72, 0
2, 2820, Note_on_c, 0, 64, 0
2, 2820, Note_on_c, 0, 74, 49
2, 2820, Note_on_c, 0, 68, 78
2, 2850, Note_on_c, 0, 68, 0
2, 2850, Note_on_c, 0, 74, 0
2, 2850, Note_on_c, 0, 75, 70
2, 2850, Note_on_c, 0, 71, 30
2, 2880, Note_on_c, 0, 71, 0
2, 2880, Note_on_c, 0, 75, 0
2, 2880, Note_on_c, 0, 74, 49
2, 2880, Note_on_c, 0, 77, 49
2, 2910, Note_on_c, 0, 77, 0
2, 2910, Note_on_c, 0, 74, 0
2, 2910, Note_on_c, 0, 79, 55
2, 2940, Note_on_c, 0, 79, 0
2, 2940, Note_on_c, 0, 76, 49
2, 2940, Note_on_c, 0, 80, 62
2, 2970, Note_on_c, 0, 80, 0
2, 2970, Note_on_c, 0, 76, 0
2, 2970, Note_on_c, 0, 82, 70
2, 3000, Note_on_c, 0, 82, 0
2, 3000, Note_on_c, 0, 83, 70
2, 3000, Note_on_c, 0, 84, 70
2, 3030, Note_on_c, 0, 84, 0
2, 3030, Note_on_c, 0, 83, 0
2, 3030, Note_on_c, 0, 86, 70
2, 3060, Note_on_c, 0, 86, 0
2, 3120, Note_on_c, 0, 67, 110
2, 3120, Note_on_c, 0, 79, 98
2, 3120, Note_on_c, 0, 76, 110
2, 3120, Note_on_c, 0, 83, 88
2, 3150, Note_on_c, 0, 83, 0
2, 3150, Note_on_c, 0, 67, 0
2, 3150, Note_on_c, 0, 79, 0
2, 3150, Note_on_c, 0, 76, 0
2, 3240, Note_on_c, 0, 64, 39
2, 3270, Note_on_c, 0, 64, 0
2, 3270, Note_on_c, 0, 67, 44
2, 3300, Note_on_c, 0, 67, 0
2, 3300, Note_on_c, 0, 71, 55
2, 3330, Note_on_c, 0, 71, 0
2, 3330, Note_on_c, 0, 72, 70
2, 3360, Note_on_c, 0, 72, 0
2, 3360, Note_on_c, 0, 62, 70
2, 3390, Note_on_c, 0, 62, 0
2, 3390, Note_on_c, 0, 65, 88
2, 3420, Note_on_c, 0, 65, 0
2, 3420, Note_on_c, 0, 71, 78
2, 3450, Note_on_c, 0, 71, 0
2, 3450, Note_on_c, 0, 72, 88
2, 3480, Note_on_c, 0, 72, 0
2, 3480, Note_on_c, 0, 62, 78
2, 3510, Note_on_c, 0, 62, 0
2, 3510, Note_on_c, 0, 64, 70
2, 3540, Note_on_c, 0, 64, 0
2, 3540, Note_on_c, 0, 71, 78
2, 3570, Note_on_c, 0, 71, 0
2, 3570, Note_on_c, 0, 72, 78
2, 3600, Note_on_c, 0, 72, 0
2, 3600, Note_on_c, 0, 60, 78
2, 3630, Note_on_c, 0, 60, 0
2, 3630, Note_on_c, 0, 62, 70
2, 3660, Note_on_c, 0, 62, 0
2, 3660, Note_on_c, 0, 69, 88
2, 3690, Note_on_c, 0, 69, 0
2, 3690, Note_on_c, 0, 71, 88
2, 3720, Note_on_c, 0, 71, 0
2, 3720, Note_on_c, 0, 60, 78
2, 3750, Note_on_c, 0, 60, 0
2, 3750, Note_on_c, 0, 62, 78
2, 3780, Note_on_c, 0, 62, 0
2, 3780, Note_on_c, 0, 69, 78
2, 3810, Note_on_c, 0, 71, 78
2, 3840, Note_on_c, 0, 71, 0
2, 3840, Note_on_c, 0, 69, 0
2, 3840, Note_on_c, 0, 59, 78
2, 3870, Note_on_c, 0, 59, 0
2, 3870, Note_on_c, 0, 62, 78
2, 3900, Note_on_c, 0, 62, 0
2, 3900, Note_on_c, 0, 69, 88
2, 3930, Note_on_c, 0, 69, 0
2, 3930, Note_on_c, 0, 71, 98
2, 3960, Note_on_c, 0, 71, 0
2, 3960, Note_on_c, 0, 59, 78
2, 3990, Note_on_c, 0, 59, 0
2, 3990, Note_on_c, 0, 62, 78
2, 4020, Note_on_c, 0, 62, 0
2, 4020, Note_on_c, 0, 69, 78
2, 4050, Note_on_c, 0, 69, 0
2, 4050, Note_on_c, 0, 71, 88
2, 4080, Note_on_c, 0, 71, 0
2, 4080, Note_on_c, 0, 59, 88
2, 4110, Note_on_c, 0, 59, 0
2, 4110, Note_on_c, 0, 60, 88
2, 4140, Note_on_c, 0, 60, 0
2, 4140, Note_on_c, 0, 69, 70
2, 4170, Note_on_c, 0, 69, 0
2, 4170, Note_on_c, 0, 71, 88
2, 4200, Note_on_c, 0, 71, 0
2, 4200, Note_on_c, 0, 59, 78
2, 4230, Note_on_c, 0, 59, 0
2, 4230, Note_on_c, 0, 60, 78
2, 4260, Note_on_c, 0, 60, 0
2, 4260, Note_on_c, 0, 67, 88
2, 4290, Note_on_c, 0, 67, 0
2, 4290, Note_on_c, 0, 69, 88
2, 4320, Note_on_c, 0, 69, 0
2, 4320, Note_on_c, 0, 58, 78
2, 4350, Note_on_c, 0, 58, 0
2, 4350, Note_on_c, 0, 59, 78
2, 4380, Note_on_c, 0, 59, 0
2, 4380, Note_on_c, 0, 67, 78
2, 4410, Note_on_c, 0, 69, 88
2, 4440, Note_on_c, 0, 69, 0
2, 4440, Note_on_c, 0, 67, 0
2, 4440, Note_on_c, 0, 58, 88
2, 4470, Note_on_c, 0, 58, 0
2, 4470, Note_on_c, 0, 59, 55
2, 4500, Note_on_c, 0, 67, 70
2, 4530, Note_on_c, 0, 67, 0
2, 4530, Note_on_c, 0, 59, 0
2, 4530, Note_on_c, 0, 68, 98
2, 4560, Note_on_c, 0, 68, 0
2, 4560, Note_on_c, 0, 58, 78
2, 4590, Note_on_c, 0, 58, 0
2, 4590, Note_on_c, 0, 60, 62
2, 4620, Note_on_c, 0, 60, 0
2, 4620, Note_on_c, 0, 67, 70
2, 4650, Note_on_c, 0, 67, 0
2, 4650, Note_on_c, 0, 68, 98
2, 4680, Note_on_c, 0, 68, 0
2, 4680, Note_on_c, 0, 67, 78
2, 4710, Note_on_c, 0, 67, 0
2, 4710, Note_on_c, 0, 65, 88
2, 4740, Note_on_c, 0, 65, 0
2, 4740, Note_on_c, 0, 62, 88
2, 4770, Note_on_c, 0, 62, 0
2, 4770, Note_on_c, 0, 59, 78
2, 4800, Note_on_c, 0, 59, 0
2, 4800, Note_on_c, 0, 58, 98
2, 4830, Note_on_c, 0, 58, 0
2, 4830, Note_on_c, 0, 59, 78
2, 4860, Note_on_c, 0, 59, 0
2, 4860, Note_on_c, 0, 62, 78
2, 4890, Note_on_c, 0, 68, 110
2, 4920, Note_on_c, 0, 68, 0
2, 4920, Note_on_c, 0, 62, 0
2, 4920, Note_on_c, 0, 67, 88
2, 4950, Note_on_c, 0, 67, 0
2, 4950, Note_on_c, 0, 65, 88
2, 4980, Note_on_c, 0, 65, 0
2, 4980, Note_on_c, 0, 62, 88
2, 5010, Note_on_c, 0, 62, 0
2, 5010, Note_on_c, 0, 59, 88
2, 5040, Note_on_c, 0, 59, 0
2, 5040, Note_on_c, 0, 58, 98
2, 5070, Note_on_c, 0, 58, 0
2, 5070, Note_on_c, 0, 59, 78
2, 5100, Note_on_c, 0, 59, 0
2, 5100, Note_on_c, 0, 62, 62
2, 5130, Note_on_c, 0, 68, 98
2, 5160, Note_on_c, 0, 68, 0
2, 5160, Note_on_c, 0, 62, 0
2, 5160, Note_on_c, 0, 67, 78
2, 5190, Note_on_c, 0, 67, 0
2, 5190, Note_on_c, 0, 65, 88
2, 5220, Note_on_c, 0, 65, 0
2, 5220, Note_on_c, 0, 62, 78
2, 5250, Note_on_c, 0, 62, 0
2, 5250, Note_on_c, 0, 59, 70
2, 5280, Note_on_c, 0, 59, 0
2, 5280, Note_on_c, 0, 58, 78
2, 5310, Note_on_c, 0, 58, 0
2, 5310, Note_on_c, 0, 59, 70
2, 5340, Note_on_c, 0, 59, 0
2, 5340, Note_on_c, 0, 62, 70
2, 5370, Note_on_c, 0, 62, 0
2, 5370, Note_on_c, 0, 68, 98
2, 5400, Note_on_c, 0, 68, 0
2, 5400, Note_on_c, 0, 67, 78
2, 5430, Note_on_c, 0, 67, 0
2, 5430, Note_on_c, 0, 65, 88
2, 5460, Note_on_c, 0, 65, 0
2, 5460, Note_on_c, 0, 62, 55
2, 5490, Note_on_c, 0, 62, 0
2, 5490, Note_on_c, 0, 59, 55
2, 5520, Note_on_c, 0, 59, 0
2, 5520, Note_on_c, 0, 58, 88
2, 5550, Note_on_c, 0, 58, 0
2, 5550, Note_on_c, 0, 59, 70
2, 5580, Note_on_c, 0, 59, 0
2, 5580, Note_on_c, 0, 62, 88
2, 5610, Note_on_c, 0, 68, 98
2, 5640, Note_on_c, 0, 68, 0
2, 5640, Note_on_c, 0, 62, 0
2, 5640, Note_on_c, 0, 67, 78
2, 5670, Note_on_c, 0, 67, 0
2, 5670, Note_on_c, 0, 65, 88
2, 5700, Note_on_c, 0, 65, 0
2, 5700, Note_on_c, 0, 62, 70
2, 5730, Note_on_c, 0, 62, 0
2, 5730, Note_on_c, 0, 59, 70
2, 5760, Note_on_c, 0, 59, 0
2, 5760, Note_on_c, 0, 58, 88
2, 5790, Note_on_c, 0, 58, 0
2, 5790, Note_on_c, 0, 59, 78
2, 5820, Note_on_c, 0, 59, 0
2, 5820, Note_on_c, 0, 62, 70
2, 5850, Note_on_c, 0, 62, 0
2, 5850, Note_on_c, 0, 68, 98
2, 5880, Note_on_c, 0, 68, 0
2, 5880, Note_on_c, 0, 59, 70
2, 5940, Note_on_c, 0, 59, 0
2, 5940, Note_on_c, 0, 62, 62
2, 6000, Note_on_c, 0, 62, 0
2, 6000, Note_on_c, 0, 58, 70
2, 6060, Note_on_c, 0, 58, 0
2, 6060, Note_on_c, 0, 61, 55
2, 6120, Note_on_c, 0, 61, 0
2, 6120, Note_on_c, 0, 59, 70
2, 6180, Note_on_c, 0, 59, 0
2, 6180, Note_on_c, 0, 62, 55
2, 6240, Note_on_c, 0, 62, 0
2, 6240, Note_on_c, 0, 58, 62
2, 6300, Note_on_c, 0, 58, 0
2, 6300, Note_on_c, 0, 61, 70
2, 6360, Note_on_c, 0, 61, 0
2, 6360, Note_on_c, 0, 59, 62
2, 6420, Note_on_c, 0, 59, 0
2, 6420, Note_on_c, 0, 62, 62
2, 6480, Note_on_c, 0, 62, 0
2, 6480, Note_on_c, 0, 58, 70
2, 6540, Note_on_c, 0, 58, 0
2, 6540, Note_on_c, 0, 61, 70
2, 6600, Note_on_c, 0, 61, 0
2, 6600, Note_on_c, 0, 59, 55
2, 6660, Note_on_c, 0, 59, 0
2, 6660, Note_on_c, 0, 62, 62
2, 6720, Note_on_c, 0, 62, 0
2, 6720, Note_on_c, 0, 58, 70
2, 6780, Note_on_c, 0, 58, 0
2, 6780, Note_on_c, 0, 61, 78
2, 6840, Note_on_c, 0, 61, 0
2, 6840, Note_on_c, 0, 59, 62
2, 6900, Note_on_c, 0, 59, 0
2, 6900, Note_on_c, 0, 62, 55
2, 6960, Note_on_c, 0, 62, 0
2, 6960, Note_on_c, 0, 58, 62
2, 7020, Note_on_c, 0, 58, 0
2, 7020, Note_on_c, 0, 61, 62
2, 7080, Note_on_c, 0, 61, 0
2, 7080, Note_on_c, 0, 59, 70
2, 7140, Note_on_c, 0, 59, 0
2, 7140, Note_on_c, 0, 62, 62
2, 7200, Note_on_c, 0, 62, 0
2, 7200, Note_on_c, 0, 58, 62
2, 7260, Note_on_c, 0, 58, 0
2, 7260, Note_on_c, 0, 61, 70
2, 7320, Note_on_c, 0, 61, 0
2, 7320, Note_on_c, 0, 59, 62
2, 7380, Note_on_c, 0, 59, 0
2, 7380, Note_on_c, 0, 62, 62
2, 7440, Note_on_c, 0, 62, 0
2, 7440, Note_on_c, 0, 58, 62
2, 7500, Note_on_c, 0, 58, 0
2, 7500, Note_on_c, 0, 61, 62
2, 7560, Note_on_c, 0, 61, 0
2, 7560, Note_on_c, 0, 59, 62
2, 7620, Note_on_c, 0, 59, 0
2, 7620, Note_on_c, 0, 62, 62
2, 7680, Note_on_c, 0, 62, 0
2, 7680, Note_on_c, 0, 58, 70
2, 7740, Note_on_c, 0, 58, 0
2, 7740, Note_on_c, 0, 61, 62
2, 7800, Note_on_c, 0, 61, 0
2, 7800, Note_on_c, 0, 59, 62
2, 7860, Note_on_c, 0, 59, 0
2, 7860, Note_on_c, 0, 62, 62
2, 7920, Note_on_c, 0, 62, 0
2, 7920, Note_on_c, 0, 58, 70
2, 7980, Note_on_c, 0, 58, 0
2, 7980, Note_on_c, 0, 61, 78
2, 8040, Note_on_c, 0, 61, 0
2, 8040, Note_on_c, 0, 59, 70
2, 8100, Note_on_c, 0, 59, 0
2, 8100, Note_on_c, 0, 62, 55
2, 8160, Note_on_c, 0, 62, 0
2, 8160, Note_on_c, 0, 58, 70
2, 8220, Note_on_c, 0, 58, 0
2, 8220, Note_on_c, 0, 61, 62
2, 8280, Note_on_c, 0, 61, 0
2, 8280, Note_on_c, 0, 59, 62
2, 8340, Note_on_c, 0, 59, 0
2, 8340, Note_on_c, 0, 62, 62
2, 8400, Note_on_c, 0, 62, 0
2, 8400, Note_on_c, 0, 58, 70
2, 8460, Note_on_c, 0, 58, 0
2, 8460, Note_on_c, 0, 61, 62
2, 8520, Note_on_c, 0, 61, 0
2, 8520, Note_on_c, 0, 59, 55
2, 8580, Note_on_c, 0, 59, 0
2, 8580, Note_on_c, 0, 62, 62
2, 8640, Note_on_c, 0, 62, 0
2, 8640, Note_on_c, 0, 58, 70
2, 8700, Note_on_c, 0, 58, 0
2, 8700, Note_on_c, 0, 61, 70
2, 8760, Note_on_c, 0, 61, 0
2, 8760, Note_on_c, 0, 59, 62
2, 8820, Note_on_c, 0, 59, 0
2, 8820, Note_on_c, 0, 62, 70
2, 8880, Note_on_c, 0, 62, 0
2, 8880, Note_on_c, 0, 58, 62
2, 8940, Note_on_c, 0, 58, 0
2, 8940, Note_on_c, 0, 61, 70
2, 9000, Note_on_c, 0, 61, 0
2, 9000, Note_on_c, 0, 59, 70
2, 9060, Note_on_c, 0, 59, 0
2, 9060, Note_on_c, 0, 62, 62
2, 9120, Note_on_c, 0, 62, 0
2, 9120, Note_on_c, 0, 58, 70
2, 9180, Note_on_c, 0, 58, 0
2, 9180, Note_on_c, 0, 61, 70
2, 9210, Note_on_c, 0, 61, 0
2, 9240, Note_on_c, 0, 65, 88
2, 9240, Note_on_c, 0, 74, 78
2, 9300, Note_on_c, 0, 65, 0
2, 9300, Note_on_c, 0, 68, 70
2, 9360, Note_on_c, 0, 68, 0
2, 9360, Note_on_c, 0, 64, 70
2, 9420, Note_on_c, 0, 64, 0
2, 9420, Note_on_c, 0, 67, 62
2, 9480, Note_on_c, 0, 67, 0
2, 9480, Note_on_c, 0, 62, 55
2, 9540, Note_on_c, 0, 62, 0
2, 9540, Note_on_c, 0, 65, 78
2, 9570, Note_on_c, 0, 74, 0
2, 9600, Note_on_c, 0, 65, 0
2, 9600, Note_on_c, 0, 77, 98
2, 9660, Note_on_c, 0, 64, 88
2, 9720, Note_on_c, 0, 64, 0
2, 9720, Note_on_c, 0, 77, 0
2, 9720, Note_on_c, 0, 65, 70
2, 9720, Note_on_c, 0, 74, 88
2, 9780, Note_on_c, 0, 74, 0
2, 9780, Note_on_c, 0, 68, 88
2, 9840, Note_on_c, 0, 68, 0
2, 9840, Note_on_c, 0, 65, 0
2, 9840, Note_on_c, 0, 64, 70
2, 9840, Note_on_c, 0, 77, 88
2, 9840, Note_on_c, 0, 79, 30
2, 9870, Note_on_c, 0, 79, 0
2, 9900, Note_on_c, 0, 64, 0
2, 9900, Note_on_c, 0, 67, 62
2, 9960, Note_on_c, 0, 67, 0
2, 9960, Note_on_c, 0, 77, 0
2, 9960, Note_on_c, 0, 62, 70
2, 9960, Note_on_c, 0, 74, 88
2, 10020, Note_on_c, 0, 62, 0
2, 10020, Note_on_c, 0, 65, 78
2, 10080, Note_on_c, 0, 65, 0
2, 10080, Note_on_c, 0, 61, 88
2, 10140, Note_on_c, 0, 61, 0
2, 10140, Note_on_c, 0, 64, 78
2, 10200, Note_on_c, 0, 64, 0
2, 10200, Note_on_c, 0, 74, 0
2, 10200, Note_on_c, 0, 59, 62
2, 10260, Note_on_c, 0, 59, 0
2, 10260, Note_on_c, 0, 62, 62
2, 10320, Note_on_c, 0, 62, 0
2, 10320, Note_on_c, 0, 77, 70
2, 10320, Note_on_c, 0, 65, 88
2, 10380, Note_on_c, 0, 65, 0
2, 10380, Note_on_c, 0, 68, 78
2, 10440, Note_on_c, 0, 68, 0
2, 10440, Note_on_c, 0, 64, 78
2, 10500, Note_on_c, 0, 64, 0
2, 10500, Note_on_c, 0, 67, 70
2, 10560, Note_on_c, 0, 67, 0
2, 10560, Note_on_c, 0, 62, 70
2, 10620, Note_on_c, 0, 62, 0
2, 10620, Note_on_c, 0, 77, 0
2, 10620, Note_on_c, 0, 65, 78
2, 10680, Note_on_c, 0, 65, 0
2, 10680, Note_on_c, 0, 61, 98
2, 10680, Note_on_c, 0, 67, 98
2, 10680, Note_on_c, 0, 74, 88
2, 10740, Note_on_c, 0, 61, 0
2, 10740, Note_on_c, 0, 64, 88
2, 10800, Note_on_c, 0, 64, 0
2, 10800, Note_on_c, 0, 59, 62
2, 10860, Note_on_c, 0, 59, 0
2, 10860, Note_on_c, 0, 62, 62
2, 10920, Note_on_c, 0, 62, 0
2, 10920, Note_on_c, 0, 58, 78
2, 10980, Note_on_c, 0, 58, 0
2, 10980, Note_on_c, 0, 60, 62
2, 11010, Note_on_c, 0, 60, 0
2, 11010, Note_on_c, 0, 74, 0
2, 11010, Note_on_c, 0, 67, 0
2, 11040, Note_on_c, 0, 74, 110
2, 11040, Note_on_c, 0, 86, 98
2, 11610, Note_on_c, 0, 86, 0
2, 11610, Note_on_c, 0, 74, 0
2, 11640, Note_on_c, 0, 86, 98
2, 11640, Note_on_c, 0, 74, 98
2, 11700, Note_on_c, 0, 74, 0
2, 11700, Note_on_c, 0, 86, 0
2, 12120, Note_on_c, 0, 59, 70
2, 12180, Note_on_c, 0, 59, 0
2, 12180, Note_on_c, 0, 62, 70
2, 12240, Note_on_c, 0, 62, 0
2, 12240, Note_on_c, 0, 58, 78
2, 12300, Note_on_c, 0, 58, 0
2, 12300, Note_on_c, 0, 61, 70
2, 12360, Note_on_c, 0, 61, 0
2, 12360, Note_on_c, 0, 59, 70
2, 12420, Note_on_c, 0, 59, 0
2, 12420, Note_on_c, 0, 62, 62
2, 12480, Note_on_c, 0, 62, 0
2, 12480, Note_on_c, 0, 58, 70
2, 12540, Note_on_c, 0, 58, 0
2, 12540, Note_on_c, 0, 61, 62
2, 12600, Note_on_c, 0, 61, 0
2, 12600, Note_on_c, 0, 59, 70
2, 12660, Note_on_c, 0, 59, 0
2, 12660, Note_on_c, 0, 62, 70
2, 12720, Note_on_c, 0, 62, 0
2, 12720, Note_on_c, 0, 58, 88
2, 12780, Note_on_c, 0, 58, 0
2, 12780, Note_on_c, 0, 61, 78
2, 12840, Note_on_c, 0, 61, 0
2, 12840, Note_on_c, 0, 59, 70
2, 12900, Note_on_c, 0, 59, 0
2, 12900, Note_on_c, 0, 62, 62
2, 12960, Note_on_c, 0, 62, 0
2, 12960, Note_on_c, 0, 58, 70
2, 13020, Note_on_c, 0, 58, 0
2, 13020, Note_on_c, 0, 61, 70
2, 13080, Note_on_c, 0, 61, 0
2, 13080, Note_on_c, 0, 59, 70
2, 13140, Note_on_c, 0, 59, 0
2, 13140, Note_on_c, 0, 62, 70
2, 13200, Note_on_c, 0, 62, 0
2, 13200, Note_on_c, 0, 58, 70
2, 13260, Note_on_c, 0, 58, 0
2, 13260, Note_on_c, 0, 61, 78
2, 13320, Note_on_c, 0, 61, 0
2, 13320, Note_on_c, 0, 59, 62
2, 13380, Note_on_c, 0, 59, 0
2, 13380, Note_on_c, 0, 62, 62
2, 13440, Note_on_c, 0, 62, 0
2, 13440, Note_on_c, 0, 58, 70
2, 13500, Note_on_c, 0, 58, 0
2, 13500, Note_on_c, 0, 61, 78
2, 13560, Note_on_c, 0, 61, 0
2, 13560, Note_on_c, 0, 59, 78
2, 13620, Note_on_c, 0, 59, 0
2, 13620, Note_on_c, 0, 62, 78
2, 13680, Note_on_c, 0, 62, 0
2, 13680, Note_on_c, 0, 58, 78
2, 13740, Note_on_c, 0, 58, 0
2, 13740, Note_on_c, 0, 61, 78
2, 13800, Note_on_c, 0, 61, 0
2, 13800, Note_on_c, 0, 59, 78
2, 13860, Note_on_c, 0, 59, 0
2, 13860, Note_on_c, 0, 62, 70
2, 13920, Note_on_c, 0, 62, 0
2, 13920, Note_on_c, 0, 58, 78
2, 13980, Note_on_c, 0, 58, 0
2, 13980, Note_on_c, 0, 61, 70
2, 14040, Note_on_c, 0, 61, 0
2, 14040, Note_on_c, 0, 59, 70
2, 14100, Note_on_c, 0, 59, 0
2, 14100, Note_on_c, 0, 62, 62
2, 14160, Note_on_c, 0, 62, 0
2, 14160, Note_on_c, 0, 58, 78
2, 14220, Note_on_c, 0, 58, 0
2, 14220, Note_on_c, 0, 61, 70
2, 14280, Note_on_c, 0, 61, 0
2, 14280, Note_on_c, 0, 59, 78
2, 14340, Note_on_c, 0, 59, 0
2, 14340, Note_on_c, 0, 62, 70
2, 14400, Note_on_c, 0, 62, 0
2, 14400, Note_on_c, 0, 58, 78
2, 14460, Note_on_c, 0, 58, 0
2, 14460, Note_on_c, 0, 61, 70
2, 14520, Note_on_c, 0, 61, 0
2, 14520, Note_on_c, 0, 59, 70
2, 14580, Note_on_c, 0, 59, 0
2, 14580, Note_on_c, 0, 62, 62
2, 14640, Note_on_c, 0, 62, 0
2, 14640, Note_on_c, 0, 58, 70
2, 14700, Note_on_c, 0, 58, 0
2, 14700, Note_on_c, 0, 61, 78
2, 14760, Note_on_c, 0, 61, 0
2, 14760, Note_on_c, 0, 59, 62
2, 14820, Note_on_c, 0, 59, 0
2, 14820, Note_on_c, 0, 62, 62
2, 14880, Note_on_c, 0, 62, 0
2, 14880, Note_on_c, 0, 58, 70
2, 14940, Note_on_c, 0, 58, 0
2, 14940, Note_on_c, 0, 61, 62
2, 15000, Note_on_c, 0, 61, 0
2, 15000, Note_on_c, 0, 59, 78
2, 15060, Note_on_c, 0, 59, 0
2, 15060, Note_on_c, 0, 62, 70
2, 15120, Note_on_c, 0, 62, 0
2, 15120, Note_on_c, 0, 58, 70
2, 15180, Note_on_c, 0, 58, 0
2, 15180, Note_on_c, 0, 61, 70
2, 15210, Note_on_c, 0, 61, 0
2, 17520, Note_on_c, 0, 52, 88
2, 17550, Note_on_c, 0, 52, 0
2, 17580, Note_on_c, 0, 52, 78
2, 17610, Note_on_c, 0, 52, 0
2, 17640, Note_on_c, 0, 52, 78
2, 17670, Note_on_c, 0, 52, 0
2, 17700, Note_on_c, 0, 52, 78
2, 17730, Note_on_c, 0, 52, 0
2, 17760, Note_on_c, 0, 52, 88
2, 17790, Note_on_c, 0, 52, 0
2, 17820, Note_on_c, 0, 53, 88
2, 17850, Note_on_c, 0, 53, 0
2, 17880, Note_on_c, 0, 55, 88
2, 17910, Note_on_c, 0, 55, 0
2, 17940, Note_on_c, 0, 57, 98
2, 17970, Note_on_c, 0, 57, 0
2, 18000, Note_on_c, 0, 52, 88
2, 18030, Note_on_c, 0, 52, 0
2, 18060, Note_on_c, 0, 53, 88
2, 18090, Note_on_c, 0, 53, 0
2, 18120, Note_on_c, 0, 55, 88
2, 18150, Note_on_c, 0, 55, 0
2, 18180, Note_on_c, 0, 57, 88
2, 18210, Note_on_c, 0, 57, 0
2, 18240, Note_on_c, 0, 52, 88
2, 18270, Note_on_c, 0, 52, 0
2, 18300, Note_on_c, 0, 52, 88
2, 18360, Note_on_c, 0, 52, 0
2, 18360, Note_on_c, 0, 52, 78
2, 18420, Note_on_c, 0, 52, 0
2, 18420, Note_on_c, 0, 52, 78
2, 18480, Note_on_c, 0, 52, 0
2, 18480, Note_on_c, 0, 52, 88
2, 18540, Note_on_c, 0, 52, 0
2, 18540, Note_on_c, 0, 53, 88
2, 18600, Note_on_c, 0, 53, 0
2, 18600, Note_on_c, 0, 55, 78
2, 18660, Note_on_c, 0, 55, 0
2, 18660, Note_on_c, 0, 57, 88
2, 18720, Note_on_c, 0, 57, 0
2, 18720, Note_on_c, 0, 52, 88
2, 18780, Note_on_c, 0, 52, 0
2, 18780, Note_on_c, 0, 52, 88
2, 18840, Note_on_c, 0, 52, 0
2, 18840, Note_on_c, 0, 52, 78
2, 18900, Note_on_c, 0, 52, 0
2, 18900, Note_on_c, 0, 53, 88
2, 18960, Note_on_c, 0, 53, 0
2, 18960, Note_on_c, 0, 55, 88
2, 19020, Note_on_c, 0, 55, 0
2, 19020, Note_on_c, 0, 57, 88
2, 19080, Note_on_c, 0, 57, 0
2, 19080, Note_on_c, 0, 59, 88
2, 19140, Note_on_c, 0, 59, 0
2, 19140, Note_on_c, 0, 60, 88
2, 19200, Note_on_c, 0, 60, 0
2, 19200, Note_on_c, 0, 58, 110
2, 19260, Note_on_c, 0, 58, 0
2, 19320, Note_on_c, 0, 57, 98
2, 19380, Note_on_c, 0, 57, 0
2, 19440, Note_on_c, 0, 58, 98
2, 19500, Note_on_c, 0, 58, 0
2, 19560, Note_on_c, 0, 57, 98
2, 19620, Note_on_c, 0, 57, 0
2, 19680, Note_on_c, 0, 57, 88
2, 19740, Note_on_c, 0, 57, 0
2, 19800, Note_on_c, 0, 56, 110
2, 19860, Note_on_c, 0, 56, 0
2, 19920, Note_on_c, 0, 52, 78
2, 19980, Note_on_c, 0, 52, 0
2, 19980, Note_on_c, 0, 53, 78
2, 20040, Note_on_c, 0, 53, 0
2, 20040, Note_on_c, 0, 55, 78
2, 20100, Note_on_c, 0, 55, 0
2, 20100, Note_on_c, 0, 57, 98
2, 20160, Note_on_c, 0, 57, 0
2, 20160, Note_on_c, 0, 50, 98
2, 20220, Note_on_c, 0, 50, 0
2, 20220, Note_on_c, 0, 50, 88
2, 20280, Note_on_c, 0, 50, 0
2, 20280, Note_on_c, 0, 50, 88
2, 20340, Note_on_c, 0, 50, 0
2, 20340, Note_on_c, 0, 50, 98
2, 20400, Note_on_c, 0, 50, 0
2, 20400, Note_on_c, 0, 57, 98
2, 20460, Note_on_c, 0, 57, 0
2, 20520, Note_on_c, 0, 55, 88
2, 20580, Note_on_c, 0, 55, 0
2, 20640, Note_on_c, 0, 57, 98
2, 20700, Note_on_c, 0, 57, 0
2, 20760, Note_on_c, 0, 55, 98
2, 20820, Note_on_c, 0, 55, 0
2, 20880, Note_on_c, 0, 57, 98
2, 20940, Note_on_c, 0, 57, 0
2, 21000, Note_on_c, 0, 55, 98
2, 21060, Note_on_c, 0, 55, 0
2, 21120, Note_on_c, 0, 59, 98
2, 21180, Note_on_c, 0, 59, 0
2, 21240, Note_on_c, 0, 57, 98
2, 21300, Note_on_c, 0, 57, 0
2, 21360, Note_on_c, 0, 57, 98
2, 21420, Note_on_c, 0, 57, 0
2, 21480, Note_on_c, 0, 55, 98
2, 21540, Note_on_c, 0, 55, 0
2, 21600, Note_on_c, 0, 52, 98
2, 21660, Note_on_c, 0, 52, 0
2, 21720, Note_on_c, 0, 57, 98
2, 21780, Note_on_c, 0, 57, 0
2, 22560, Note_on_c, 0, 60, 98
2, 22620, Note_on_c, 0, 60, 0
2, 22680, Note_on_c, 0, 59, 98
2, 22740, Note_on_c, 0, 59, 0
2, 22800, Note_on_c, 0, 60, 98
2, 22860, Note_on_c, 0, 60, 0
2, 22920, Note_on_c, 0, 59, 98
2, 22950, Note_on_c, 0, 59, 0
2, 23040, Note_on_c, 0, 60, 98
2, 23070, Note_on_c, 0, 60, 0
2, 23160, Note_on_c, 0, 59, 98
2, 23190, Note_on_c, 0, 59, 0
2, 23280, Note_on_c, 0, 60, 98
2, 23310, Note_on_c, 0, 60, 0
2, 23400, Note_on_c, 0, 59, 88
2, 23430, Note_on_c, 0, 59, 0
2, 23520, Note_on_c, 0, 60, 98
2, 23550, Note_on_c, 0, 60, 0
2, 23640, Note_on_c, 0, 59, 98
2, 23670, Note_on_c, 0, 59, 0
2, 23760, Note_on_c, 0, 60, 98
2, 23790, Note_on_c, 0, 60, 0
2, 23880, Note_on_c, 0, 59, 88
2, 23940, Note_on_c, 0, 59, 0
2, 24000, Note_on_c, 0, 59, 98
2, 24060, Note_on_c, 0, 59, 0
2, 24120, Note_on_c, 0, 57, 98
2, 24180, Note_on_c, 0, 57, 0
2, 24240, Note_on_c, 0, 59, 98
2, 24300, Note_on_c, 0, 59, 0
2, 24360, Note_on_c, 0, 57, 98
2, 24390, Note_on_c, 0, 57, 0
2, 24600, Note_on_c, 0, 57, 98
2, 24660, Note_on_c, 0, 57, 0
2, 24720, Note_on_c, 0, 59, 98
2, 24780, Note_on_c, 0, 59, 0
2, 24840, Note_on_c, 0, 57, 98
2, 24900, Note_on_c, 0, 57, 0
2, 24960, Note_on_c, 0, 59, 88
2, 25020, Note_on_c, 0, 59, 0
2, 25080, Note_on_c, 0, 57, 98
2, 25140, Note_on_c, 0, 57, 0
2, 25320, Note_on_c, 0, 57, 98
2, 25380, Note_on_c, 0, 57, 0
2, 25470, Note_on_c, 0, 55, 70
2, 25500, Note_on_c, 0, 59, 70
2, 25530, Note_on_c, 0, 59, 0
2, 25530, Note_on_c, 0, 55, 0
2, 25530, Note_on_c, 0, 60, 78
2, 25560, Note_on_c, 0, 52, 78
2, 25590, Note_on_c, 0, 52, 0
2, 25590, Note_on_c, 0, 60, 0
2, 25590, Note_on_c, 0, 55, 70
2, 25620, Note_on_c, 0, 55, 0
2, 25620, Note_on_c, 0, 59, 70
2, 25650, Note_on_c, 0, 59, 0
2, 25650, Note_on_c, 0, 60, 78
2, 25680, Note_on_c, 0, 60, 0
2, 25680, Note_on_c, 0, 52, 88
2, 25710, Note_on_c, 0, 52, 0
2, 25710, Note_on_c, 0, 55, 70
2, 25740, Note_on_c, 0, 55, 0
2, 25740, Note_on_c, 0, 59, 70
2, 25770, Note_on_c, 0, 59, 0
2, 25770, Note_on_c, 0, 60, 62
2, 25800, Note_on_c, 0, 60, 0
2, 25800, Note_on_c, 0, 50, 78
2, 25830, Note_on_c, 0, 50, 0
2, 25830, Note_on_c, 0, 52, 55
2, 25860, Note_on_c, 0, 52, 0
2, 25860, Note_on_c, 0, 59, 62
2, 25890, Note_on_c, 0, 59, 0
2, 25890, Note_on_c, 0, 60, 78
2, 25920, Note_on_c, 0, 60, 0
2, 25920, Note_on_c, 0, 50, 78
2, 25950, Note_on_c, 0, 50, 0
2, 25950, Note_on_c, 0, 52, 78
2, 25980, Note_on_c, 0, 52, 0
2, 25980, Note_on_c, 0, 59, 78
2, 26010, Note_on_c, 0, 59, 0
2, 26010, Note_on_c, 0, 60, 88
2, 26040, Note_on_c, 0, 60, 0
2, 26040, Note_on_c, 0, 50, 78
2, 26070, Note_on_c, 0, 50, 0
2, 26070, Note_on_c, 0, 52, 70
2, 26100, Note_on_c, 0, 52, 0
2, 26100, Note_on_c, 0, 57, 39
2, 26130, Note_on_c, 0, 57, 0
2, 26130, Note_on_c, 0, 59, 88
2, 26160, Note_on_c, 0, 59, 0
2, 26160, Note_on_c, 0, 50, 78
2, 26190, Note_on_c, 0, 50, 0
2, 26190, Note_on_c, 0, 52, 78
2, 26220, Note_on_c, 0, 52, 0
2, 26220, Note_on_c, 0, 57, 78
2, 26250, Note_on_c, 0, 57, 0
2, 26250, Note_on_c, 0, 59, 88
2, 26280, Note_on_c, 0, 59, 0
2, 26280, Note_on_c, 0, 48, 78
2, 26310, Note_on_c, 0, 48, 0
2, 26310, Note_on_c, 0, 50, 70
2, 26340, Note_on_c, 0, 50, 0
2, 26340, Note_on_c, 0, 57, 78
2, 26370, Note_on_c, 0, 57, 0
2, 26370, Note_on_c, 0, 59, 88
2, 26400, Note_on_c, 0, 59, 0
2, 26400, Note_on_c, 0, 48, 88
2, 26430, Note_on_c, 0, 48, 0
2, 26430, Note_on_c, 0, 50, 78
2, 26460, Note_on_c, 0, 50, 0
2, 26460, Note_on_c, 0, 57, 78
2, 26490, Note_on_c, 0, 57, 0
2, 26490, Note_on_c, 0, 59, 88
2, 26520, Note_on_c, 0, 59, 0
2, 26520, Note_on_c, 0, 48, 88
2, 26550, Note_on_c, 0, 48, 0
2, 26550, Note_on_c, 0, 50, 78
2, 26580, Note_on_c, 0, 50, 0
2, 26580, Note_on_c, 0, 57, 78
2, 26610, Note_on_c, 0, 57, 0
2, 26610, Note_on_c, 0, 59, 88
2, 26640, Note_on_c, 0, 59, 0
2, 26640, Note_on_c, 0, 48, 88
2, 26670, Note_on_c, 0, 50, 78
2, 26700, Note_on_c, 0, 50, 0
2, 26700, Note_on_c, 0, 48, 0
2, 26700, Note_on_c, 0, 57, 78
2, 26730, Note_on_c, 0, 59, 88
2, 26760, Note_on_c, 0, 59, 0
2, 26760, Note_on_c, 0, 57, 0
2, 26760, Note_on_c, 0, 47, 78
2, 26790, Note_on_c, 0, 47, 0
2, 26790, Note_on_c, 0, 48, 70
2, 26820, Note_on_c, 0, 48, 0
2, 26820, Note_on_c, 0, 57, 78
2, 26850, Note_on_c, 0, 57, 0
2, 26850, Note_on_c, 0, 59, 98
2, 26880, Note_on_c, 0, 59, 0
2, 32880, Note_on_c, 0, 77, 110
2, 32880, Note_on_c, 0, 84, 110
2, 32880, Note_on_c, 0, 79, 110
2, 33120, Note_on_c, 0, 79, 0
2, 33120, Note_on_c, 0, 77, 0
2, 33120, Note_on_c, 0, 81, 98
2, 33120, Note_on_c, 0, 79, 98
2, 33300, Note_on_c, 0, 79, 0
2, 33300, Note_on_c, 0, 81, 0
2, 33300, Note_on_c, 0, 84, 0
2, 33360, Note_on_c, 0, 83, 110
2, 33360, Note_on_c, 0, 79, 110
2, 34320, Note_on_c, 0, 79, 0
2, 34320, Note_on_c, 0, 83, 0
2, 34320, End_track
3, 0, Start_track
3, 0, MIDI_port, 0
3, 0, Program_c, 1, 0
3, 0, Control_c, 1, 7, 127
3, 0, Control_c, 1, 10, 64
3, 120, Note_on_c, 1, 47, 110
3, 120, Note_on_c, 1, 43, 98
3, 120, Note_on_c, 1, 55, 110
3, 120, Note_on_c, 1, 40, 98
3, 150, Note_on_c, 1, 40, 0
3, 150, Note_on_c, 1, 47, 0
3, 150, Note_on_c, 1, 43, 0
3, 150, Note_on_c, 1, 55, 0
3, 240, Note_on_c, 1, 46, 70
3, 270, Note_on_c, 1, 46, 0
3, 270, Note_on_c, 1, 50, 62
3, 300, Note_on_c, 1, 50, 0
3, 300, Note_on_c, 1, 53, 49
3, 330, Note_on_c, 1, 53, 0
3, 330, Note_on_c, 1, 56, 70
3, 360, Note_on_c, 1, 56, 0
3, 360, Note_on_c, 1, 55, 55
3, 390, Note_on_c, 1, 55, 0
3, 390, Note_on_c, 1, 53, 49
3, 420, Note_on_c, 1, 53, 0
3, 420, Note_on_c, 1, 50, 28
3, 450, Note_on_c, 1, 50, 0
3, 450, Note_on_c, 1, 47, 55
3, 480, Note_on_c, 1, 47, 0
3, 480, Note_on_c, 1, 56, 70
3, 510, Note_on_c, 1, 56, 0
3, 510, Note_on_c, 1, 55, 55
3, 540, Note_on_c, 1, 55, 0
3, 540, Note_on_c, 1, 50, 39
3, 570, Note_on_c, 1, 50, 0
3, 570, Note_on_c, 1, 47, 44
3, 600, Note_on_c, 1, 47, 0
3, 600, Note_on_c, 1, 46, 55
3, 630, Note_on_c, 1, 46, 0
3, 630, Note_on_c, 1, 50, 55
3, 660, Note_on_c, 1, 50, 0
3, 660, Note_on_c, 1, 53, 49
3, 690, Note_on_c, 1, 53, 0
3, 690, Note_on_c, 1, 56, 62
3, 720, Note_on_c, 1, 56, 0
3, 720, Note_on_c, 1, 55, 55
3, 750, Note_on_c, 1, 55, 0
3, 750, Note_on_c, 1, 53, 55
3, 780, Note_on_c, 1, 53, 0
3, 780, Note_on_c, 1, 50, 49
3, 810, Note_on_c, 1, 50, 0
3, 810, Note_on_c, 1, 47, 62
3, 840, Note_on_c, 1, 47, 0
3, 960, Note_on_c, 1, 55, 110
3, 960, Note_on_c, 1, 47, 124
3, 960, Note_on_c, 1, 40, 124
3, 960, Note_on_c, 1, 43, 110
3, 1020, Note_on_c, 1, 43, 0
3, 1020, Note_on_c, 1, 55, 0
3, 1020, Note_on_c, 1, 47, 0
3, 1020, Note_on_c, 1, 40, 0
3, 1080, Note_on_c, 1, 46, 55
3, 1110, Note_on_c, 1, 46, 0
3, 1110, Note_on_c, 1, 50, 44
3, 1140, Note_on_c, 1, 50, 0
3, 1140, Note_on_c, 1, 53, 49
3, 1170, Note_on_c, 1, 53, 0
3, 1170, Note_on_c, 1, 56, 70
3, 1200, Note_on_c, 1, 56, 0
3, 1200, Note_on_c, 1, 45, 49
3, 1230, Note_on_c, 1, 45, 0
3, 1230, Note_on_c, 1, 50, 49
3, 1260, Note_on_c, 1, 50, 0
3, 1260, Note_on_c, 1, 53, 55
3, 1290, Note_on_c, 1, 53, 0
3, 1290, Note_on_c, 1, 56, 62
3, 1320, Note_on_c, 1, 56, 0
3, 1320, Note_on_c, 1, 45, 49
3, 1350, Note_on_c, 1, 45, 0
3, 1350, Note_on_c, 1, 50, 44
3, 1380, Note_on_c, 1, 50, 0
3, 1380, Note_on_c, 1, 53, 49
3, 1410, Note_on_c, 1, 53, 0
3, 1410, Note_on_c, 1, 56, 62
3, 1440, Note_on_c, 1, 56, 0
3, 1440, Note_on_c, 1, 55, 55
3, 1470, Note_on_c, 1, 55, 0
3, 1470, Note_on_c, 1, 53, 55
3, 1500, Note_on_c, 1, 53, 0
3, 1500, Note_on_c, 1, 50, 55
3, 1530, Note_on_c, 1, 50, 0
3, 1530, Note_on_c, 1, 45, 39
3, 1560, Note_on_c, 1, 45, 0
3, 1560, Note_on_c, 1, 56, 70
3, 1590, Note_on_c, 1, 56, 0
3, 1590, Note_on_c, 1, 53, 49
3, 1620, Note_on_c, 1, 53, 0
3, 1620, Note_on_c, 1, 50, 55
3, 1650, Note_on_c, 1, 50, 0
3, 1650, Note_on_c, 1, 45, 49
3, 1680, Note_on_c, 1, 45, 0
3, 1680, Note_on_c, 1, 53, 62
3, 1710, Note_on_c, 1, 53, 0
3, 1710, Note_on_c, 1, 50, 55
3, 1740, Note_on_c, 1, 50, 0
3, 1740, Note_on_c, 1, 43, 39
3, 1770, Note_on_c, 1, 43, 0
3, 1770, Note_on_c, 1, 42, 62
3, 1800, Note_on_c, 1, 42, 0
3, 1800, Note_on_c, 1, 47, 110
3, 1800, Note_on_c, 1, 40, 98
3, 1800, Note_on_c, 1, 43, 88
3, 1800, Note_on_c, 1, 55, 124
3, 1830, Note_on_c, 1, 55, 0
3, 1830, Note_on_c, 1, 47, 0
3, 1830, Note_on_c, 1, 40, 0
3, 1830, Note_on_c, 1, 43, 0
3, 1920, Note_on_c, 1, 56, 70
3, 1950, Note_on_c, 1, 56, 0
3, 1950, Note_on_c, 1, 53, 55
3, 1980, Note_on_c, 1, 53, 0
3, 1980, Note_on_c, 1, 50, 49
3, 2010, Note_on_c, 1, 50, 0
3, 2010, Note_on_c, 1, 45, 49
3, 2040, Note_on_c, 1, 45, 0
3, 2040, Note_on_c, 1, 53, 55
3, 2070, Note_on_c, 1, 53, 0
3, 2070, Note_on_c, 1, 50, 35
3, 2100, Note_on_c, 1, 50, 0
3, 2100, Note_on_c, 1, 43, 39
3, 2130, Note_on_c, 1, 43, 0
3, 2130, Note_on_c, 1, 42, 49
3, 2160, Note_on_c, 1, 42, 0
3, 2160, Note_on_c, 1, 53, 44
3, 2190, Note_on_c, 1, 53, 0
3, 2190, Note_on_c, 1, 50, 44
3, 2220, Note_on_c, 1, 50, 0
3, 2220, Note_on_c, 1, 43, 49
3, 2250, Note_on_c, 1, 43, 0
3, 2250, Note_on_c, 1, 42, 62
3, 2280, Note_on_c, 1, 42, 0
3, 2280, Note_on_c, 1, 52, 55
3, 2310, Note_on_c, 1, 52, 0
3, 2310, Note_on_c, 1, 55, 44
3, 2340, Note_on_c, 1, 55, 0
3, 2340, Note_on_c, 1, 60, 55
3, 2370, Note_on_c, 1, 60, 0
3, 2370, Note_on_c, 1, 65, 44
3, 2400, Note_on_c, 1, 65, 0
3, 2400, Note_on_c, 1, 62, 70
3, 2430, Note_on_c, 1, 62, 0
3, 2430, Note_on_c, 1, 59, 44
3, 2460, Note_on_c, 1, 59, 0
3, 2460, Note_on_c, 1, 55, 44
3, 2490, Note_on_c, 1, 55, 0
3, 2490, Note_on_c, 1, 53, 39
3, 2520, Note_on_c, 1, 53, 0
3, 2520, Note_on_c, 1, 59, 49
3, 2550, Note_on_c, 1, 59, 0
3, 2550, Note_on_c, 1, 56, 70
3, 2580, Note_on_c, 1, 56, 0
3, 2580, Note_on_c, 1, 52, 55
3, 2610, Note_on_c, 1, 52, 0
3, 2610, Note_on_c, 1, 50, 44
3, 2640, Note_on_c, 1, 50, 0
3, 2670, Note_on_c, 1, 53, 62
3, 2700, Note_on_c, 1, 53, 0
3, 2700, Note_on_c, 1, 55, 70
3, 2730, Note_on_c, 1, 55, 0
3, 2730, Note_on_c, 1, 56, 88
3, 2730, Note_on_c, 1, 59, 62
3, 2760, Note_on_c, 1, 59, 0
3, 2760, Note_on_c, 1, 56, 0
3, 2760, Note_on_c, 1, 62, 78
3, 2760, Note_on_c, 1, 58, 98
3, 2790, Note_on_c, 1, 58, 0
3, 2790, Note_on_c, 1, 62, 0
3, 2790, Note_on_c, 1, 60, 78
3, 2820, Note_on_c, 1, 60, 0
3, 2820, Note_on_c, 1, 62, 78
3, 2850, Note_on_c, 1, 62, 0
3, 2850, Note_on_c, 1, 63, 88
3, 2880, Note_on_c, 1, 63, 0
3, 2880, Note_on_c, 1, 65, 98
3, 2910, Note_on_c, 1, 65, 0
3, 2910, Note_on_c, 1, 67, 98
3, 2940, Note_on_c, 1, 67, 0
3, 2940, Note_on_c, 1, 68, 110
3, 2970, Note_on_c, 1, 68, 0
3, 2970, Note_on_c, 1, 70, 98
3, 3000, Note_on_c, 1, 70, 0
3, 3000, Note_on_c, 1, 72, 88
3, 3030, Note_on_c, 1, 72, 0
3, 3030, Note_on_c, 1, 74, 110
3, 3060, Note_on_c, 1, 74, 0
3, 11040, Note_on_c, 1, 77, 70
3, 11065, Note_on_c, 1, 79, 55
3, 11068, Note_on_c, 1, 77, 0
3, 11099, Note_on_c, 1, 77, 62
3, 11102, Note_on_c, 1, 79, 0
3, 11126, Note_on_c, 1, 79, 55
3, 11129, Note_on_c, 1, 77, 0
3, 11157, Note_on_c, 1, 76, 70
3, 11158, Note_on_c, 1, 79, 0
3, 11185, Note_on_c, 1, 77, 62
3, 11188, Note_on_c, 1, 76, 0
3, 11216, Note_on_c, 1, 74, 78
3, 11218, Note_on_c, 1, 77, 0
3, 11244, Note_on_c, 1, 76, 55
3, 11248, Note_on_c, 1, 74, 0
3, 11275, Note_on_c, 1, 77, 70
3, 11276, Note_on_c, 1, 76, 0
3, 11304, Note_on_c, 1, 79, 49
3, 11305, Note_on_c, 1, 77, 0
3, 11337, Note_on_c, 1, 77, 70
3, 11338, Note_on_c, 1, 79, 0
3, 11365, Note_on_c, 1, 79, 55
3, 11366, Note_on_c, 1, 77, 0
3, 11395, Note_on_c, 1, 77, 62
3, 11396, Note_on_c, 1, 79, 0
3, 11425, Note_on_c, 1, 79, 49
3, 11427, Note_on_c, 1, 77, 0
3, 11456, Note_on_c, 1, 76, 62
3, 11458, Note_on_c, 1, 79, 0
3, 11486, Note_on_c, 1, 77, 55
3, 11488, Note_on_c, 1, 76, 0
3, 11516, Note_on_c, 1, 74, 70
3, 11517, Note_on_c, 1, 77, 0
3, 11545, Note_on_c, 1, 76, 62
3, 11550, Note_on_c, 1, 74, 0
3, 11575, Note_on_c, 1, 77, 62
3, 11578, Note_on_c, 1, 76, 0
3, 11604, Note_on_c, 1, 79, 55
3, 11606, Note_on_c, 1, 77, 0
3, 11629, Note_on_c, 1, 79, 0
3, 11640, Note_on_c, 1, 77, 70
3, 11660, Note_on_c, 1, 77, 0
3, 11660, Note_on_c, 1, 79, 62
3, 11680, Note_on_c, 1, 79, 0
3, 11680, Note_on_c, 1, 76, 70
3, 11700, Note_on_c, 1, 76, 0
3, 11700, Note_on_c, 1, 77, 55
3, 11720, Note_on_c, 1, 77, 0
3, 11720, Note_on_c, 1, 74, 70
3, 11740, Note_on_c, 1, 74, 0
3, 11740, Note_on_c, 1, 76, 55
3, 11760, Note_on_c, 1, 76, 0
3, 11760, Note_on_c, 1, 72, 70
3, 11780, Note_on_c, 1, 72, 0
3, 11780, Note_on_c, 1, 74, 62
3, 11800, Note_on_c, 1, 74, 0
3, 11800, Note_on_c, 1, 71, 62
3, 11820, Note_on_c, 1, 71, 0
3, 11820, Note_on_c, 1, 72, 55
3, 11840, Note_on_c, 1, 72, 0
3, 11840, Note_on_c, 1, 69, 62
3, 11860, Note_on_c, 1, 69, 0
3, 11860, Note_on_c, 1, 70, 78
3, 11880, Note_on_c, 1, 70, 0
3, 11880, Note_on_c, 1, 67, 70
3, 11900, Note_on_c, 1, 67, 0
3, 11900, Note_on_c, 1, 69, 70
3, 11920, Note_on_c, 1, 69, 0
3, 11920, Note_on_c, 1, 66, 88
3, 11940, Note_on_c, 1, 66, 0
3, 11940, Note_on_c, 1, 68, 78
3, 11960, Note_on_c, 1, 68, 0
3, 11960, Note_on_c, 1, 65, 78
3, 11980, Note_on_c, 1, 65, 0
3, 11980, Note_on_c, 1, 67, 62
3, 12000, Note_on_c, 1, 67, 0
3, 12000, Note_on_c, 1, 64, 70
3, 12020, Note_on_c, 1, 64, 0
3, 12020, Note_on_c, 1, 65, 70
3, 12040, Note_on_c, 1, 65, 0
3, 12040, Note_on_c, 1, 62, 78
3, 12060, Note_on_c, 1, 62, 0
3, 12060, Note_on_c, 1, 63, 78
3, 12080, Note_on_c, 1, 63, 0
3, 12080, Note_on_c, 1, 60, 78
3, 12100, Note_on_c, 1, 60, 0
3, 12100, Note_on_c, 1, 62, 88
3, 12120, Note_on_c, 1, 62, 0
3, 12120, Note_on_c, 1, 55, 55
3, 12180, Note_on_c, 1, 55, 0
3, 12180, Note_on_c, 1, 53, 55
3, 12240, Note_on_c, 1, 53, 0
3, 12240, Note_on_c, 1, 50, 62
3, 12300, Note_on_c, 1, 50, 0
3, 12300, Note_on_c, 1, 47, 62
3, 12360, Note_on_c, 1, 47, 0
3, 12360, Note_on_c, 1, 46, 62
3, 12420, Note_on_c, 1, 46, 0
3, 12420, Note_on_c, 1, 47, 49
3, 12480, Note_on_c, 1, 47, 0
3, 12480, Note_on_c, 1, 53, 62
3, 12540, Note_on_c, 1, 53, 0
3, 12540, Note_on_c, 1, 56, 62
3, 12600, Note_on_c, 1, 56, 0
3, 12600, Note_on_c, 1, 55, 55
3, 12660, Note_on_c, 1, 55, 0
3, 12660, Note_on_c, 1, 53, 55
3, 12720, Note_on_c, 1, 53, 0
3, 12720, Note_on_c, 1, 50, 55
3, 12780, Note_on_c, 1, 50, 0
3, 12780, Note_on_c, 1, 47, 70
3, 12840, Note_on_c, 1, 47, 0
3, 12840, Note_on_c, 1, 46, 70
3, 12900, Note_on_c, 1, 46, 0
3, 12900, Note_on_c, 1, 47, 62
3, 12960, Note_on_c, 1, 47, 0
3, 12960, Note_on_c, 1, 53, 62
3, 13020, Note_on_c, 1, 53, 0
3, 13020, Note_on_c, 1, 56, 78
3, 13080, Note_on_c, 1, 56, 0
3, 13080, Note_on_c, 1, 55, 78
3, 13140, Note_on_c, 1, 55, 0
3, 13140, Note_on_c, 1, 53, 62
3, 13200, Note_on_c, 1, 53, 0
3, 13200, Note_on_c, 1, 50, 70
3, 13260, Note_on_c, 1, 47, 70
3, 13290, Note_on_c, 1, 50, 0
3, 13320, Note_on_c, 1, 47, 0
3, 13320, Note_on_c, 1, 46, 70
3, 13380, Note_on_c, 1, 46, 0
3, 13380, Note_on_c, 1, 47, 70
3, 13440, Note_on_c, 1, 47, 0
3, 13440, Note_on_c, 1, 53, 62
3, 13500, Note_on_c, 1, 53, 0
3, 13500, Note_on_c, 1, 56, 70
3, 13560, Note_on_c, 1, 56, 0
3, 13560, Note_on_c, 1, 55, 62
3, 13620, Note_on_c, 1, 55, 0
3, 13620, Note_on_c, 1, 53, 62
3, 13680, Note_on_c, 1, 53, 0
3, 13680, Note_on_c, 1, 50, 62
3, 13740, Note_on_c, 1, 50, 0
3, 13740, Note_on_c, 1, 47, 62
3, 13800, Note_on_c, 1, 47, 0
3, 13800, Note_on_c, 1, 46, 70
3, 13860, Note_on_c, 1, 46, 0
3, 13860, Note_on_c, 1, 47, 62
3, 13920, Note_on_c, 1, 47, 0
3, 13920, Note_on_c, 1, 53, 62
3, 13980, Note_on_c, 1, 53, 0
3, 13980, Note_on_c, 1, 56, 78
3, 14040, Note_on_c, 1, 56, 0
3, 14040, Note_on_c, 1, 55, 70
3, 14100, Note_on_c, 1, 55, 0
3, 14100, Note_on_c, 1, 53, 70
3, 14160, Note_on_c, 1, 53, 0
3, 14160, Note_on_c, 1, 50, 70
3, 14220, Note_on_c, 1, 50, 0
3, 14220, Note_on_c, 1, 47, 70
3, 14280, Note_on_c, 1, 47, 0
3, 14280, Note_on_c, 1, 46, 62
3, 14340, Note_on_c, 1, 46, 0
3, 14340, Note_on_c, 1, 47, 62
3, 14400, Note_on_c, 1, 47, 0
3, 14400, Note_on_c, 1, 53, 62
3, 14460, Note_on_c, 1, 53, 0
3, 14460, Note_on_c, 1, 56, 78
3, 14520, Note_on_c, 1, 56, 0
3, 14520, Note_on_c, 1, 55, 62
3, 14580, Note_on_c, 1, 55, 0
3, 14580, Note_on_c, 1, 53, 62
3, 14640, Note_on_c, 1, 53, 0
3, 14640, Note_on_c, 1, 50, 70
3, 14700, Note_on_c, 1, 50, 0
3, 14700, Note_on_c, 1, 47, 70
3, 14760, Note_on_c, 1, 47, 0
3, 14760, Note_on_c, 1, 46, 70
3, 14820, Note_on_c, 1, 46, 0
3, 14820, Note_on_c, 1, 47, 55
3, 14880, Note_on_c, 1, 47, 0
3, 14880, Note_on_c, 1, 53, 70
3, 14940, Note_on_c, 1, 53, 0
3, 14940, Note_on_c, 1, 56, 78
3, 15000, Note_on_c, 1, 56, 0
3, 15000, Note_on_c, 1, 55, 62
3, 15060, Note_on_c, 1, 55, 0
3, 15060, Note_on_c, 1, 53, 55
3, 15120, Note_on_c, 1, 53, 0
3, 15120, Note_on_c, 1, 50, 62
3, 15180, Note_on_c, 1, 47, 70
3, 15210, Note_on_c, 1, 47, 0
3, 15210, Note_on_c, 1, 50, 0
3, 15240, Note_on_c, 1, 47, 70
3, 15270, Note_on_c, 1, 47, 0
3, 15270, Note_on_c, 1, 50, 70
3, 15300, Note_on_c, 1, 50, 0
3, 15300, Note_on_c, 1, 52, 78
3, 15330, Note_on_c, 1, 52, 0
3, 15330, Note_on_c, 1, 55, 88
3, 15360, Note_on_c, 1, 55, 0
3, 20400, Note_on_c, 1, 48, 88
3, 20460, Note_on_c, 1, 48, 0
3, 20460, Note_on_c, 1, 48, 88
3, 20520, Note_on_c, 1, 48, 0
3, 20520, Note_on_c, 1, 48, 88
3, 20580, Note_on_c, 1, 48, 0
3, 20580, Note_on_c, 1, 48, 88
3, 20640, Note_on_c, 1, 48, 0
3, 20640, Note_on_c, 1, 48, 88
3, 20700, Note_on_c, 1, 48, 0
3, 20700, Note_on_c, 1, 48, 78
3, 20760, Note_on_c, 1, 48, 0
3, 20760, Note_on_c, 1, 48, 78
3, 20820, Note_on_c, 1, 48, 0
3, 20820, Note_on_c, 1, 48, 88
3, 20880, Note_on_c, 1, 48, 0
3, 20880, Note_on_c, 1, 50, 98
3, 20940, Note_on_c, 1, 50, 0
3, 20940, Note_on_c, 1, 50, 98
3, 21000, Note_on_c, 1, 50, 0
3, 21000, Note_on_c, 1, 50, 88
3, 21060, Note_on_c, 1, 50, 0
3, 21060, Note_on_c, 1, 50, 88
3, 21120, Note_on_c, 1, 50, 0
3, 21120, Note_on_c, 1, 52, 88
3, 21180, Note_on_c, 1, 52, 0
3, 21180, Note_on_c, 1, 52, 88
3, 21240, Note_on_c, 1, 52, 0
3, 21240, Note_on_c, 1, 52, 98
3, 21300, Note_on_c, 1, 52, 0
3, 21300, Note_on_c, 1, 52, 78
3, 21360, Note_on_c, 1, 52, 0
3, 21360, Note_on_c, 1, 52, 88
3, 21420, Note_on_c, 1, 52, 0
3, 21420, Note_on_c, 1, 53, 88
3, 21480, Note_on_c, 1, 53, 0
3, 21480, Note_on_c, 1, 55, 78
3, 21540, Note_on_c, 1, 55, 0
3, 21540, Note_on_c, 1, 57, 98
3, 21600, Note_on_c, 1, 57, 0
3, 21600, Note_on_c, 1, 52, 98
3, 21660, Note_on_c, 1, 52, 0
3, 21660, Note_on_c, 1, 53, 98
3, 21720, Note_on_c, 1, 53, 0
3, 21720, Note_on_c, 1, 55, 88
3, 21780, Note_on_c, 1, 55, 0
3, 21780, Note_on_c, 1, 57, 98
3, 21840, Note_on_c, 1, 57, 0
3, 21840, Note_on_c, 1, 53, 98
3, 21900, Note_on_c, 1, 53, 0
3, 21900, Note_on_c, 1, 55, 78
3, 21960, Note_on_c, 1, 55, 0
3, 21960, Note_on_c, 1, 56, 110
3, 22020, Note_on_c, 1, 56, 0
3, 22020, Note_on_c, 1, 58, 110
3, 22080, Note_on_c, 1, 58, 0
3, 22080, Note_on_c, 1, 53, 98
3, 22140, Note_on_c, 1, 53, 0
3, 22140, Note_on_c, 1, 53, 98
3, 22200, Note_on_c, 1, 53, 0
3, 22200, Note_on_c, 1, 53, 88
3, 22260, Note_on_c, 1, 53, 0
3, 22260, Note_on_c, 1, 53, 98
3, 22320, Note_on_c, 1, 53, 0
3, 22320, Note_on_c, 1, 53, 88
3, 22380, Note_on_c, 1, 53, 0
3, 22380, Note_on_c, 1, 55, 78
3, 22440, Note_on_c, 1, 55, 0
3, 22440, Note_on_c, 1, 56, 98
3, 22500, Note_on_c, 1, 56, 0
3, 22500, Note_on_c, 1, 58, 110
3, 22560, Note_on_c, 1, 58, 0
3, 22560, Note_on_c, 1, 51, 110
3, 22620, Note_on_c, 1, 51, 0
3, 22620, Note_on_c, 1, 51, 98
3, 22680, Note_on_c, 1, 51, 0
3, 22680, Note_on_c, 1, 51, 98
3, 22740, Note_on_c, 1, 51, 0
3, 22740, Note_on_c, 1, 51, 110
3, 22800, Note_on_c, 1, 51, 0
3, 22800, Note_on_c, 1, 51, 98
3, 22860, Note_on_c, 1, 51, 0
3, 22860, Note_on_c, 1, 51, 98
3, 22920, Note_on_c, 1, 51, 0
3, 22920, Note_on_c, 1, 51, 110
3, 22980, Note_on_c, 1, 51, 0
3, 22980, Note_on_c, 1, 51, 98
3, 23040, Note_on_c, 1, 51, 0
3, 23040, Note_on_c, 1, 53, 98
3, 23100, Note_on_c, 1, 53, 0
3, 23100, Note_on_c, 1, 55, 88
3, 23160, Note_on_c, 1, 55, 0
3, 23160, Note_on_c, 1, 56, 110
3, 23220, Note_on_c, 1, 56, 0
3, 23220, Note_on_c, 1, 58, 110
3, 23280, Note_on_c, 1, 58, 0
3, 23280, Note_on_c, 1, 53, 98
3, 23340, Note_on_c, 1, 53, 0
3, 23340, Note_on_c, 1, 55, 98
3, 23400, Note_on_c, 1, 55, 0
3, 23400, Note_on_c, 1, 56, 110
3, 23460, Note_on_c, 1, 56, 0
3, 23460, Note_on_c, 1, 58, 98
3, 23520, Note_on_c, 1, 58, 0
3, 23520, Note_on_c, 1, 53, 88
3, 23580, Note_on_c, 1, 53, 0
3, 23580, Note_on_c, 1, 53, 88
3, 23640, Note_on_c, 1, 53, 0
3, 23640, Note_on_c, 1, 53, 88
3, 23700, Note_on_c, 1, 53, 0
3, 23700, Note_on_c, 1, 53, 98
3, 23760, Note_on_c, 1, 53, 0
3, 23760, Note_on_c, 1, 53, 98
3, 23820, Note_on_c, 1, 53, 0
3, 23820, Note_on_c, 1, 55, 88
3, 23880, Note_on_c, 1, 55, 0
3, 23880, Note_on_c, 1, 56, 98
3, 23940, Note_on_c, 1, 56, 0
3, 23940, Note_on_c, 1, 58, 98
3, 24000, Note_on_c, 1, 58, 0
3, 24000, Note_on_c, 1, 59, 98
3, 24060, Note_on_c, 1, 59, 0
3, 24060, Note_on_c, 1, 60, 98
3, 24120, Note_on_c, 1, 60, 0
3, 24120, Note_on_c, 1, 62, 98
3, 24180, Note_on_c, 1, 62, 0
3, 24180, Note_on_c, 1, 64, 98
3, 24240, Note_on_c, 1, 64, 0
3, 24240, Note_on_c, 1, 57, 110
3, 24300, Note_on_c, 1, 57, 0
3, 24300, Note_on_c, 1, 59, 98
3, 24360, Note_on_c, 1, 59, 0
3, 24360, Note_on_c, 1, 60, 98
3, 24420, Note_on_c, 1, 60, 0
3, 24420, Note_on_c, 1, 62, 98
3, 24480, Note_on_c, 1, 62, 0
3, 24540, Note_on_c, 1, 57, 110
3, 24600, Note_on_c, 1, 57, 0
3, 24600, Note_on_c, 1, 59, 98
3, 24660, Note_on_c, 1, 59, 0
3, 24660, Note_on_c, 1, 60, 98
3, 24720, Note_on_c, 1, 60, 0
3, 24720, Note_on_c, 1, 52, 98
3, 24780, Note_on_c, 1, 52, 0
3, 24780, Note_on_c, 1, 52, 98
3, 24840, Note_on_c, 1, 52, 0
3, 24840, Note_on_c, 1, 52, 110
3, 24900, Note_on_c, 1, 52, 0
3, 24900, Note_on_c, 1, 54, 110
3, 24960, Note_on_c, 1, 54, 0
3, 24960, Note_on_c, 1, 55, 110
3, 25020, Note_on_c, 1, 55, 0
3, 25020, Note_on_c, 1, 57, 110
3, 25080, Note_on_c, 1, 57, 0
3, 25080, Note_on_c, 1, 59, 98
3, 25140, Note_on_c, 1, 59, 0
3, 25140, Note_on_c, 1, 60, 98
3, 25200, Note_on_c, 1, 60, 0
3, 25200, Note_on_c, 1, 53, 98
3, 25260, Note_on_c, 1, 53, 0
3, 25260, Note_on_c, 1, 55, 98
3, 25320, Note_on_c, 1, 55, 0
3, 25320, Note_on_c, 1, 57, 110
3, 25380, Note_on_c, 1, 57, 0
3, 25380, Note_on_c, 1, 59, 98
3, 25440, Note_on_c, 1, 59, 0
3, 32400, Note_on_c, 1, 64, 98
3, 32580, Note_on_c, 1, 64, 0
3, 32640, Note_on_c, 1, 65, 110
3, 32640, Note_on_c, 1, 64, 110
3, 32640, Note_on_c, 1, 56, 98
3, 32880, Note_on_c, 1, 56, 0
3, 32880, Note_on_c, 1, 64, 0
3, 32880, Note_on_c, 1, 65, 0
3, 32880, End_track
4, 0, Start_track
4, 0, MIDI_port, 0
4, 0, Program_c, 2, 0
4, 0, Control_c, 2, 7, 127
4, 0, Control_c, 2, 10, 64
4, 2640, Note_on_c, 2, 47, 70
4, 2670, Note_on_c, 2, 47, 0
4, 2670, Note_on_c, 2, 44, 70
4, 2700, Note_on_c, 2, 44, 0
4, 2700, Note_on_c, 2, 40, 70
4, 2760, Note_on_c, 2, 40, 0
4, 3120, Note_on_c, 2, 47, 124
4, 3120, Note_on_c, 2, 52, 110
4, 3120, Note_on_c, 2, 43, 110
4, 3120, Note_on_c, 2, 40, 124
4, 3150, Note_on_c, 2, 40, 0
4, 3180, Note_on_c, 2, 47, 0
4, 3180, Note_on_c, 2, 52, 0
4, 3180, Note_on_c, 2, 43, 0
4, 3240, Note_on_c, 2, 40, 110
4, 3240, Note_on_c, 2, 28, 110
4, 3930, Note_on_c, 2, 28, 0
4, 3930, Note_on_c, 2, 40, 0
4, 3960, Note_on_c, 2, 29, 110
4, 3960, Note_on_c, 2, 41, 110
4, 4200, Note_on_c, 2, 41, 0
4, 4200, Note_on_c, 2, 29, 0
4, 4200, Note_on_c, 2, 28, 98
4, 4200, Note_on_c, 2, 40, 110
4, 4440, Note_on_c, 2, 40, 0
4, 4440, Note_on_c, 2, 28, 0
4, 4440, Note_on_c, 2, 43, 98
4, 4440, Note_on_c, 2, 31, 78
4, 4560, Note_on_c, 2, 31, 0
4, 4560, Note_on_c, 2, 43, 0
4, 4560, Note_on_c, 2, 29, 88
4, 4560, Note_on_c, 2, 41, 98
4, 4680, Note_on_c, 2, 41, 0
4, 4680, Note_on_c, 2, 29, 0
4, 4680, Note_on_c, 2, 31, 88
4, 4680, Note_on_c, 2, 43, 88
4, 4800, Note_on_c, 2, 43, 0
4, 4800, Note_on_c, 2, 31, 0
4, 4800, Note_on_c, 2, 72, 98
4, 4920, Note_on_c, 2, 72, 0
4, 4920, Note_on_c, 2, 44, 110
4, 4920, Note_on_c, 2, 32, 110
4, 5040, Note_on_c, 2, 32, 0
4, 5040, Note_on_c, 2, 44, 0
4, 5040, Note_on_c, 2, 34, 110
4, 5040, Note_on_c, 2, 46, 110
4, 5280, Note_on_c, 2, 46, 0
4, 5280, Note_on_c, 2, 34, 0
4, 5280, Note_on_c, 2, 32, 110
4, 5280, Note_on_c, 2, 44, 110
4, 5490, Note_on_c, 2, 44, 0
4, 5490, Note_on_c, 2, 32, 0
4, 5520, Note_on_c, 2, 74, 88
4, 5610, Note_on_c, 2, 74, 0
4, 5640, Note_on_c, 2, 43, 98
4, 5760, Note_on_c, 2, 43, 0
4, 5760, Note_on_c, 2, 44, 88
4, 5880, Note_on_c, 2, 44, 0
4, 5880, Note_on_c, 2, 55, 88
4, 5940, Note_on_c, 2, 55, 0
4, 5940, Note_on_c, 2, 53, 70
4, 6000, Note_on_c, 2, 53, 0
4, 6000, Note_on_c, 2, 50, 70
4, 6060, Note_on_c, 2, 50, 0
4, 6060, Note_on_c, 2, 47, 78
4, 6120, Note_on_c, 2, 47, 0
4, 6120, Note_on_c, 2, 46, 78
4, 6180, Note_on_c, 2, 46, 0
4, 6180, Note_on_c, 2, 47, 88
4, 6240, Note_on_c, 2, 47, 0
4, 6240, Note_on_c, 2, 53, 70
4, 6300, Note_on_c, 2, 53, 0
4, 6300, Note_on_c, 2, 56, 88
4, 6360, Note_on_c, 2, 56, 0
4, 6360, Note_on_c, 2, 55, 78
4, 6420, Note_on_c, 2, 55, 0
4, 6420, Note_on_c, 2, 53, 70
4, 6480, Note_on_c, 2, 53, 0
4, 6480, Note_on_c, 2, 50, 70
4, 6540, Note_on_c, 2, 50, 0
4, 6540, Note_on_c, 2, 47, 70
4, 6600, Note_on_c, 2, 47, 0
4, 6600, Note_on_c, 2, 46, 78
4, 6660, Note_on_c, 2, 46, 0
4, 6660, Note_on_c, 2, 47, 78
4, 6720, Note_on_c, 2, 47, 0
4, 6720, Note_on_c, 2, 53, 78
4, 6780, Note_on_c, 2, 53, 0
4, 6780, Note_on_c, 2, 56, 88
4, 6840, Note_on_c, 2, 56, 0
4, 6840, Note_on_c, 2, 55, 78
4, 6900, Note_on_c, 2, 55, 0
4, 6900, Note_on_c, 2, 53, 78
4, 6960, Note_on_c, 2, 53, 0
4, 6960, Note_on_c, 2, 50, 70
4, 7020, Note_on_c, 2, 50, 0
4, 7020, Note_on_c, 2, 47, 62
4, 7080, Note_on_c, 2, 47, 0
4, 7080, Note_on_c, 2, 46, 78
4, 7140, Note_on_c, 2, 46, 0
4, 7140, Note_on_c, 2, 47, 70
4, 7200, Note_on_c, 2, 47, 0
4, 7200, Note_on_c, 2, 53, 70
4, 7260, Note_on_c, 2, 53, 0
4, 7260, Note_on_c, 2, 56, 78
4, 7320, Note_on_c, 2, 56, 0
4, 7320, Note_on_c, 2, 55, 78
4, 7380, Note_on_c, 2, 55, 0
4, 7380, Note_on_c, 2, 53, 70
4, 7440, Note_on_c, 2, 53, 0
4, 7440, Note_on_c, 2, 50, 70
4, 7500, Note_on_c, 2, 50, 0
4, 7500, Note_on_c, 2, 47, 62
4, 7560, Note_on_c, 2, 47, 0
4, 7560, Note_on_c, 2, 46, 70
4, 7620, Note_on_c, 2, 46, 0
4, 7620, Note_on_c, 2, 47, 70
4, 7680, Note_on_c, 2, 47, 0
4, 7680, Note_on_c, 2, 53, 70
4, 7740, Note_on_c, 2, 53, 0
4, 7740, Note_on_c, 2, 56, 88
4, 7800, Note_on_c, 2, 56, 0
4, 7800, Note_on_c, 2, 55, 78
4, 7860, Note_on_c, 2, 55, 0
4, 7860, Note_on_c, 2, 53, 70
4, 7920, Note_on_c, 2, 53, 0
4, 7920, Note_on_c, 2, 50, 70
4, 7980, Note_on_c, 2, 50, 0
4, 7980, Note_on_c, 2, 47, 70
4, 8040, Note_on_c, 2, 47, 0
4, 8040, Note_on_c, 2, 46, 78
4, 8100, Note_on_c, 2, 46, 0
4, 8100, Note_on_c, 2, 47, 70
4, 8160, Note_on_c, 2, 47, 0
4, 8160, Note_on_c, 2, 53, 70
4, 8220, Note_on_c, 2, 53, 0
4, 8220, Note_on_c, 2, 56, 88
4, 8280, Note_on_c, 2, 56, 0
4, 8280, Note_on_c, 2, 55, 78
4, 8340, Note_on_c, 2, 55, 0
4, 8340, Note_on_c, 2, 53, 70
4, 8400, Note_on_c, 2, 53, 0
4, 8400, Note_on_c, 2, 50, 70
4, 8460, Note_on_c, 2, 50, 0
4, 8460, Note_on_c, 2, 47, 70
4, 8520, Note_on_c, 2, 47, 0
4, 8520, Note_on_c, 2, 43, 70
4, 8580, Note_on_c, 2, 43, 0
4, 8580, Note_on_c, 2, 41, 70
4, 8640, Note_on_c, 2, 41, 0
4, 8640, Note_on_c, 2, 38, 88
4, 8700, Note_on_c, 2, 38, 0
4, 8700, Note_on_c, 2, 35, 70
4, 8760, Note_on_c, 2, 35, 0
4, 8760, Note_on_c, 2, 34, 88
4, 8820, Note_on_c, 2, 34, 0
4, 8820, Note_on_c, 2, 35, 78
4, 8880, Note_on_c, 2, 35, 0
4, 8880, Note_on_c, 2, 41, 78
4, 8940, Note_on_c, 2, 41, 0
4, 8940, Note_on_c, 2, 44, 78
4, 9000, Note_on_c, 2, 44, 0
4, 9000, Note_on_c, 2, 43, 70
4, 9060, Note_on_c, 2, 43, 0
4, 9060, Note_on_c, 2, 41, 62
4, 9120, Note_on_c, 2, 41, 0
4, 9120, Note_on_c, 2, 38, 70
4, 9180, Note_on_c, 2, 38, 0
4, 9180, Note_on_c, 2, 35, 70
4, 9240, Note_on_c, 2, 35, 0
4, 9240, Note_on_c, 2, 34, 78
4, 9300, Note_on_c, 2, 34, 0
4, 9300, Note_on_c, 2, 35, 70
4, 9360, Note_on_c, 2, 35, 0
4, 9360, Note_on_c, 2, 41, 78
4, 9420, Note_on_c, 2, 41, 0
4, 9420, Note_on_c, 2, 44, 88
4, 9480, Note_on_c, 2, 44, 0
4, 9480, Note_on_c, 2, 46, 78
4, 9540, Note_on_c, 2, 46, 0
4, 9540, Note_on_c, 2, 47, 88
4, 9600, Note_on_c, 2, 47, 0
4, 9600, Note_on_c, 2, 53, 78
4, 9660, Note_on_c, 2, 53, 0
4, 9660, Note_on_c, 2, 56, 88
4, 9720, Note_on_c, 2, 56, 0
4, 9720, Note_on_c, 2, 55, 78
4, 9780, Note_on_c, 2, 55, 0
4, 9780, Note_on_c, 2, 53, 88
4, 9840, Note_on_c, 2, 53, 0
4, 9840, Note_on_c, 2, 50, 78
4, 9900, Note_on_c, 2, 50, 0
4, 9900, Note_on_c, 2, 47, 78
4, 9960, Note_on_c, 2, 47, 0
4, 9960, Note_on_c, 2, 46, 78
4, 10020, Note_on_c, 2, 46, 0
4, 10020, Note_on_c, 2, 47, 78
4, 10080, Note_on_c, 2, 47, 0
4, 10080, Note_on_c, 2, 53, 78
4, 10140, Note_on_c, 2, 53, 0
4, 10140, Note_on_c, 2, 56, 88
4, 10200, Note_on_c, 2, 56, 0
4, 10200, Note_on_c, 2, 55, 78
4, 10260, Note_on_c, 2, 55, 0
4, 10260, Note_on_c, 2, 53, 78
4, 10320, Note_on_c, 2, 53, 0
4, 10320, Note_on_c, 2, 50, 78
4, 10380, Note_on_c, 2, 50, 0
4, 10380, Note_on_c, 2, 47, 78
4, 10440, Note_on_c, 2, 47, 0
4, 10440, Note_on_c, 2, 46, 88
4, 10500, Note_on_c, 2, 46, 0
4, 10500, Note_on_c, 2, 44, 88
4, 10560, Note_on_c, 2, 44, 0
4, 10560, Note_on_c, 2, 41, 78
4, 10620, Note_on_c, 2, 41, 0
4, 10620, Note_on_c, 2, 38, 78
4, 10680, Note_on_c, 2, 38, 0
4, 10680, Note_on_c, 2, 34, 88
4, 10740, Note_on_c, 2, 34, 0
4, 10740, Note_on_c, 2, 35, 88
4, 10800, Note_on_c, 2, 35, 0
4, 10800, Note_on_c, 2, 41, 78
4, 10860, Note_on_c, 2, 41, 0
4, 10860, Note_on_c, 2, 44, 88
4, 10920, Note_on_c, 2, 44, 0
4, 10920, Note_on_c, 2, 46, 88
4, 10980, Note_on_c, 2, 46, 0
4, 10980, Note_on_c, 2, 47, 88
4, 11040, Note_on_c, 2, 47, 0
4, 12120, Note_on_c, 2, 41, 110
4, 12120, Note_on_c, 2, 29, 110
4, 12150, Note_on_c, 2, 29, 0
4, 12150, Note_on_c, 2, 41, 0
4, 12240, Note_on_c, 2, 32, 110
4, 12240, Note_on_c, 2, 44, 110
4, 12270, Note_on_c, 2, 44, 0
4, 12270, Note_on_c, 2, 32, 0
4, 12360, Note_on_c, 2, 28, 98
4, 12360, Note_on_c, 2, 40, 110
4, 12390, Note_on_c, 2, 40, 0
4, 12390, Note_on_c, 2, 28, 0
4, 12480, Note_on_c, 2, 43, 110
4, 12480, Note_on_c, 2, 31, 98
4, 12510, Note_on_c, 2, 31, 0
4, 12510, Note_on_c, 2, 43, 0
4, 12600, Note_on_c, 2, 41, 110
4, 12600, Note_on_c, 2, 29, 88
4, 12630, Note_on_c, 2, 29, 0
4, 12630, Note_on_c, 2, 41, 0
4, 12720, Note_on_c, 2, 32, 110
4, 12720, Note_on_c, 2, 44, 110
4, 12750, Note_on_c, 2, 44, 0
4, 12750, Note_on_c, 2, 32, 0
4, 12840, Note_on_c, 2, 28, 98
4, 12840, Note_on_c, 2, 40, 110
4, 12870, Note_on_c, 2, 40, 0
4, 12870, Note_on_c, 2, 28, 0
4, 12960, Note_on_c, 2, 31, 98
4, 12960, Note_on_c, 2, 43, 98
4, 12990, Note_on_c, 2, 43, 0
4, 12990, Note_on_c, 2, 31, 0
4, 13080, Note_on_c, 2, 41, 98
4, 13080, Note_on_c, 2, 29, 88
4, 13110, Note_on_c, 2, 29, 0
4, 13110, Note_on_c, 2, 41, 0
4, 13200, Note_on_c, 2, 32, 110
4, 13200, Note_on_c, 2, 44, 110
4, 13230, Note_on_c, 2, 44, 0
4, 13230, Note_on_c, 2, 32, 0
4, 13320, Note_on_c, 2, 28, 98
4, 13320, Note_on_c, 2, 40, 110
4, 13350, Note_on_c, 2, 40, 0
4, 13350, Note_on_c, 2, 28, 0
4, 13440, Note_on_c, 2, 31, 98
4, 13440, Note_on_c, 2, 43, 110
4, 13470, Note_on_c, 2, 43, 0
4, 13470, Note_on_c, 2, 31, 0
4, 13560, Note_on_c, 2, 29, 88
4, 13560, Note_on_c, 2, 41, 110
4, 13590, Note_on_c, 2, 41, 0
4, 13590, Note_on_c, 2, 29, 0
4, 13680, Note_on_c, 2, 32, 110
4, 13680, Note_on_c, 2, 44, 98
4, 13710, Note_on_c, 2, 44, 0
4, 13710, Note_on_c, 2, 32, 0
4, 13800, Note_on_c, 2, 28, 98
4, 13800, Note_on_c, 2, 40, 110
4, 13830, Note_on_c, 2, 40, 0
4, 13830, Note_on_c, 2, 28, 0
4, 13920, Note_on_c, 2, 31, 98
4, 13920, Note_on_c, 2, 43, 88
4, 13950, Note_on_c, 2, 43, 0
4, 13950, Note_on_c, 2, 31, 0
4, 14040, Note_on_c, 2, 29, 78
4, 14040, Note_on_c, 2, 41, 98
4, 14070, Note_on_c, 2, 41, 0
4, 14070, Note_on_c, 2, 29, 0
4, 14160, Note_on_c, 2, 32, 110
4, 14160, Note_on_c, 2, 44, 110
4, 14190, Note_on_c, 2, 44, 0
4, 14190, Note_on_c, 2, 32, 0
4, 14280, Note_on_c, 2, 28, 98
4, 14280, Note_on_c, 2, 40, 98
4, 14310, Note_on_c, 2, 40, 0
4, 14310, Note_on_c, 2, 28, 0
4, 14400, Note_on_c, 2, 31, 98
4, 14400, Note_on_c, 2, 43, 110
4, 14430, Note_on_c, 2, 43, 0
4, 14430, Note_on_c, 2, 31, 0
4, 14520, Note_on_c, 2, 29, 88
4, 14520, Note_on_c, 2, 41, 110
4, 14550, Note_on_c, 2, 41, 0
4, 14550, Note_on_c, 2, 29, 0
4, 14640, Note_on_c, 2, 32, 110
4, 14640, Note_on_c, 2, 44, 110
4, 14670, Note_on_c, 2, 44, 0
4, 14670, Note_on_c, 2, 32, 0
4, 14760, Note_on_c, 2, 28, 88
4, 14760, Note_on_c, 2, 40, 98
4, 14790, Note_on_c, 2, 40, 0
4, 14790, Note_on_c, 2, 28, 0
4, 14880, Note_on_c, 2, 31, 98
4, 14880, Note_on_c, 2, 43, 110
4, 14910, Note_on_c, 2, 43, 0
4, 14910, Note_on_c, 2, 31, 0
4, 15000, Note_on_c, 2, 41, 98
4, 15000, Note_on_c, 2, 29, 88
4, 15030, Note_on_c, 2, 29, 0
4, 15030, Note_on_c, 2, 41, 0
4, 15120, Note_on_c, 2, 32, 110
4, 15120, Note_on_c, 2, 44, 110
4, 15150, Note_on_c, 2, 44, 0
4, 15150, Note_on_c, 2, 32, 0
4, 15480, Note_on_c, 2, 55, 124
4, 15480, Note_on_c, 2, 47, 110
4, 15480, Note_on_c, 2, 40, 98
4, 15480, Note_on_c, 2, 43, 98
4, 15510, Note_on_c, 2, 43, 0
4, 15510, Note_on_c, 2, 55, 0
4, 15510, Note_on_c, 2, 47, 0
4, 15510, Note_on_c, 2, 40, 0
4, 15600, Note_on_c, 2, 28, 124
4, 15600, Note_on_c, 2, 40, 124
4, 16530, Note_on_c, 2, 40, 0
4, 16530, Note_on_c, 2, 28, 0
4, 16560, Note_on_c, 2, 28, 124
4, 16560, Note_on_c, 2, 40, 124
4, 17250, Note_on_c, 2, 40, 0
4, 17250, Note_on_c, 2, 28, 0
4, 17400, Note_on_c, 2, 47, 110
4, 17400, Note_on_c, 2, 55, 124
4, 17400, Note_on_c, 2, 43, 124
4, 17400, Note_on_c, 2, 40, 98
4, 17400, Note_on_c, 2, 41, 44
4, 17430, Note_on_c, 2, 41, 0
4, 17460, Note_on_c, 2, 43, 0
4, 17460, Note_on_c, 2, 47, 0
4, 17460, Note_on_c, 2, 55, 0
4, 17460, Note_on_c, 2, 40, 0
4, 17520, Note_on_c, 2, 40, 98
4, 17520, Note_on_c, 2, 52, 88
4, 17580, Note_on_c, 2, 52, 0
4, 17580, Note_on_c, 2, 40, 0
4, 17640, Note_on_c, 2, 38, 78
4, 17640, Note_on_c, 2, 53, 88
4, 17700, Note_on_c, 2, 53, 0
4, 17700, Note_on_c, 2, 38, 0
4, 17760, Note_on_c, 2, 40, 98
4, 17760, Note_on_c, 2, 55, 98
4, 17820, Note_on_c, 2, 55, 0
4, 17820, Note_on_c, 2, 40, 0
4, 17880, Note_on_c, 2, 38, 88
4, 17880, Note_on_c, 2, 53, 88
4, 17940, Note_on_c, 2, 53, 0
4, 17940, Note_on_c, 2, 38, 0
4, 18000, Note_on_c, 2, 40, 88
4, 18000, Note_on_c, 2, 55, 98
4, 18060, Note_on_c, 2, 55, 0
4, 18060, Note_on_c, 2, 40, 0
4, 18120, Note_on_c, 2, 38, 88
4, 18120, Note_on_c, 2, 53, 98
4, 18180, Note_on_c, 2, 53, 0
4, 18180, Note_on_c, 2, 38, 0
4, 18240, Note_on_c, 2, 40, 88
4, 18240, Note_on_c, 2, 55, 98
4, 18300, Note_on_c, 2, 55, 0
4, 18300, Note_on_c, 2, 40, 0
4, 18360, Note_on_c, 2, 38, 88
4, 18360, Note_on_c, 2, 53, 88
4, 18420, Note_on_c, 2, 53, 0
4, 18420, Note_on_c, 2, 38, 0
4, 18480, Note_on_c, 2, 57, 110
4, 18480, Note_on_c, 2, 41, 98
4, 18540, Note_on_c, 2, 41, 0
4, 18540, Note_on_c, 2, 57, 0
4, 18600, Note_on_c, 2, 40, 88
4, 18600, Note_on_c, 2, 55, 98
4, 18660, Note_on_c, 2, 55, 0
4, 18660, Note_on_c, 2, 40, 0
4, 18720, Note_on_c, 2, 43, 98
4, 18720, Note_on_c, 2, 59, 98
4, 18780, Note_on_c, 2, 59, 0
4, 18780, Note_on_c, 2, 43, 0
4, 18840, Note_on_c, 2, 41, 78
4, 18840, Note_on_c, 2, 57, 98
4, 18900, Note_on_c, 2, 57, 0
4, 18930, Note_on_c, 2, 41, 0
4, 18960, Note_on_c, 2, 45, 98
4, 18960, Note_on_c, 2, 60, 98
4, 19050, Note_on_c, 2, 60, 0
4, 19050, Note_on_c, 2, 45, 0
4, 19080, Note_on_c, 2, 43, 88
4, 19080, Note_on_c, 2, 59, 98
4, 19170, Note_on_c, 2, 59, 0
4, 19170, Note_on_c, 2, 43, 0
4, 19200, Note_on_c, 2, 42, 110
4, 19260, Note_on_c, 2, 42, 0
4, 19320, Note_on_c, 2, 41, 88
4, 19380, Note_on_c, 2, 41, 0
4, 19440, Note_on_c, 2, 42, 110
4, 19500, Note_on_c, 2, 42, 0
4, 19560, Note_on_c, 2, 41, 88
4, 19620, Note_on_c, 2, 41, 0
4, 19680, Note_on_c, 2, 41, 88
4, 19740, Note_on_c, 2, 41, 0
4, 19800, Note_on_c, 2, 40, 88
4, 19860, Note_on_c, 2, 40, 0
4, 19920, Note_on_c, 2, 55, 88
4, 19920, Note_on_c, 2, 40, 78
4, 19980, Note_on_c, 2, 40, 0
4, 19980, Note_on_c, 2, 55, 0
4, 20040, Note_on_c, 2, 54, 110
4, 20040, Note_on_c, 2, 38, 88
4, 20100, Note_on_c, 2, 38, 0
4, 20100, Note_on_c, 2, 54, 0
4, 20160, Note_on_c, 2, 40, 88
4, 20160, Note_on_c, 2, 55, 88
4, 20220, Note_on_c, 2, 55, 0
4, 20220, Note_on_c, 2, 40, 0
4, 20280, Note_on_c, 2, 38, 78
4, 20280, Note_on_c, 2, 54, 110
4, 20340, Note_on_c, 2, 54, 0
4, 20340, Note_on_c, 2, 38, 0
4, 20400, Note_on_c, 2, 40, 98
4, 20460, Note_on_c, 2, 40, 0
4, 20520, Note_on_c, 2, 38, 88
4, 20580, Note_on_c, 2, 38, 0
4, 20640, Note_on_c, 2, 38, 88
4, 20700, Note_on_c, 2, 38, 0
4, 20760, Note_on_c, 2, 36, 98
4, 20820, Note_on_c, 2, 36, 0
4, 20880, Note_on_c, 2, 35, 98
4, 20880, Note_on_c, 2, 47, 98
4, 20940, Note_on_c, 2, 47, 0
4, 20940, Note_on_c, 2, 35, 0
4, 21000, Note_on_c, 2, 34, 98
4, 21000, Note_on_c, 2, 46, 88
4, 21060, Note_on_c, 2, 46, 0
4, 21060, Note_on_c, 2, 34, 0
4, 21120, Note_on_c, 2, 43, 88
4, 21180, Note_on_c, 2, 43, 0
4, 21240, Note_on_c, 2, 41, 88
4, 21300, Note_on_c, 2, 41, 0
4, 21360, Note_on_c, 2, 41, 88
4, 21420, Note_on_c, 2, 41, 0
4, 21480, Note_on_c, 2, 40, 78
4, 21540, Note_on_c, 2, 40, 0
4, 21600, Note_on_c, 2, 41, 88
4, 21660, Note_on_c, 2, 41, 0
4, 21720, Note_on_c, 2, 40, 88
4, 21780, Note_on_c, 2, 40, 0
4, 21840, Note_on_c, 2, 44, 98
4, 21840, Note_on_c, 2, 58, 110
4, 21930, Note_on_c, 2, 58, 0
4, 21930, Note_on_c, 2, 44, 0
4, 21960, Note_on_c, 2, 43, 70
4, 21960, Note_on_c, 2, 56, 110
4, 22020, Note_on_c, 2, 56, 0
4, 22050, Note_on_c, 2, 43, 0
4, 22080, Note_on_c, 2, 44, 98
4, 22080, Note_on_c, 2, 58, 98
4, 22170, Note_on_c, 2, 58, 0
4, 22170, Note_on_c, 2, 44, 0
4, 22200, Note_on_c, 2, 43, 78
4, 22200, Note_on_c, 2, 56, 98
4, 22290, Note_on_c, 2, 56, 0
4, 22290, Note_on_c, 2, 43, 0
4, 22320, Note_on_c, 2, 44, 98
4, 22320, Note_on_c, 2, 58, 110
4, 22380, Note_on_c, 2, 58, 0
4, 22380, Note_on_c, 2, 44, 0
4, 22440, Note_on_c, 2, 43, 88
4, 22440, Note_on_c, 2, 56, 110
4, 22500, Note_on_c, 2, 56, 0
4, 22530, Note_on_c, 2, 43, 0
4, 22560, Note_on_c, 2, 42, 110
4, 22620, Note_on_c, 2, 42, 0
4, 22680, Note_on_c, 2, 41, 88
4, 22740, Note_on_c, 2, 41, 0
4, 22800, Note_on_c, 2, 41, 98
4, 22860, Note_on_c, 2, 41, 0
4, 22920, Note_on_c, 2, 39, 110
4, 22980, Note_on_c, 2, 39, 0
4, 23040, Note_on_c, 2, 38, 98
4, 23100, Note_on_c, 2, 38, 0
4, 23160, Note_on_c, 2, 37, 110
4, 23220, Note_on_c, 2, 37, 0
4, 23280, Note_on_c, 2, 42, 98
4, 23340, Note_on_c, 2, 42, 0
4, 23400, Note_on_c, 2, 41, 88
4, 23460, Note_on_c, 2, 41, 0
4, 23520, Note_on_c, 2, 41, 98
4, 23580, Note_on_c, 2, 41, 0
4, 23640, Note_on_c, 2, 39, 110
4, 23700, Note_on_c, 2, 39, 0
4, 23760, Note_on_c, 2, 38, 88
4, 23820, Note_on_c, 2, 38, 0
4, 23880, Note_on_c, 2, 37, 110
4, 23970, Note_on_c, 2, 37, 0
4, 24000, Note_on_c, 2, 37, 110
4, 24000, Note_on_c, 2, 49, 110
4, 24090, Note_on_c, 2, 49, 0
4, 24090, Note_on_c, 2, 37, 0
4, 24120, Note_on_c, 2, 36, 98
4, 24120, Note_on_c, 2, 48, 98
4, 24210, Note_on_c, 2, 48, 0
4, 24210, Note_on_c, 2, 36, 0
4, 24240, Note_on_c, 2, 37, 110
4, 24240, Note_on_c, 2, 49, 110
4, 24300, Note_on_c, 2, 49, 0
4, 24300, Note_on_c, 2, 37, 0
4, 24360, Note_on_c, 2, 35, 98
4, 24360, Note_on_c, 2, 47, 110
4, 24450, Note_on_c, 2, 47, 0
4, 24450, Note_on_c, 2, 35, 0
4, 24480, Note_on_c, 2, 36, 88
4, 24480, Note_on_c, 2, 48, 98
4, 24570, Note_on_c, 2, 48, 0
4, 24570, Note_on_c, 2, 36, 0
4, 24600, Note_on_c, 2, 35, 98
4, 24600, Note_on_c, 2, 47, 88
4, 24690, Note_on_c, 2, 47, 0
4, 24690, Note_on_c, 2, 35, 0
4, 24720, Note_on_c, 2, 37, 110
4, 24810, Note_on_c, 2, 37, 0
4, 24840, Note_on_c, 2, 36, 98
4, 24840, Note_on_c, 2, 48, 98
4, 24930, Note_on_c, 2, 48, 0
4, 24930, Note_on_c, 2, 36, 0
4, 24960, Note_on_c, 2, 36, 98
4, 24960, Note_on_c, 2, 48, 88
4, 25050, Note_on_c, 2, 48, 0
4, 25050, Note_on_c, 2, 36, 0
4, 25080, Note_on_c, 2, 35, 88
4, 25080, Note_on_c, 2, 47, 98
4, 25200, Note_on_c, 2, 47, 0
4, 25200, Note_on_c, 2, 35, 0
4, 25200, Note_on_c, 2, 36, 98
4, 25290, Note_on_c, 2, 36, 0
4, 25320, Note_on_c, 2, 35, 98
4, 25320, Note_on_c, 2, 47, 98
4, 25410, Note_on_c, 2, 47, 0
4, 25410, Note_on_c, 2, 35, 0
4, 25440, Note_on_c, 2, 28, 124
4, 25440, Note_on_c, 2, 40, 124
4, 26820, Note_on_c, 2, 40, 0
4, 26820, Note_on_c, 2, 28, 0
4, 26880, Note_on_c, 2, 29, 88
4, 26880, Note_on_c, 2, 41, 98
4, 26940, Note_on_c, 2, 41, 0
4, 26940, Note_on_c, 2, 29, 0
4, 27000, Note_on_c, 2, 32, 98
4, 27000, Note_on_c, 2, 44, 110
4, 27060, Note_on_c, 2, 44, 0
4, 27060, Note_on_c, 2, 32, 0
4, 27120, Note_on_c, 2, 28, 98
4, 27120, Note_on_c, 2, 40, 98
4, 27180, Note_on_c, 2, 40, 0
4, 27180, Note_on_c, 2, 28, 0
4, 27240, Note_on_c, 2, 31, 78
4, 27240, Note_on_c, 2, 43, 88
4, 27300, Note_on_c, 2, 43, 0
4, 27300, Note_on_c, 2, 31, 0
4, 27360, Note_on_c, 2, 29, 78
4, 27360, Note_on_c, 2, 41, 98
4, 27420, Note_on_c, 2, 41, 0
4, 27420, Note_on_c, 2, 29, 0
4, 27480, Note_on_c, 2, 32, 88
4, 27480, Note_on_c, 2, 44, 110
4, 27540, Note_on_c, 2, 44, 0
4, 27540, Note_on_c, 2, 32, 0
4, 27600, Note_on_c, 2, 28, 98
4, 27600, Note_on_c, 2, 40, 98
4, 27660, Note_on_c, 2, 40, 0
4, 27660, Note_on_c, 2, 28, 0
4, 27720, Note_on_c, 2, 31, 88
4, 27720, Note_on_c, 2, 43, 88
4, 27780, Note_on_c, 2, 43, 0
4, 27780, Note_on_c, 2, 31, 0
4, 27840, Note_on_c, 2, 29, 88
4, 27840, Note_on_c, 2, 41, 98
4, 27900, Note_on_c, 2, 41, 0
4, 27900, Note_on_c, 2, 29, 0
4, 27960, Note_on_c, 2, 32, 98
4, 27960, Note_on_c, 2, 44, 110
4, 28020, Note_on_c, 2, 44, 0
4, 28020, Note_on_c, 2, 32, 0
4, 28080, Note_on_c, 2, 28, 98
4, 28080, Note_on_c, 2, 40, 88
4, 28140, Note_on_c, 2, 40, 0
4, 28140, Note_on_c, 2, 28, 0
4, 28200, Note_on_c, 2, 31, 88
4, 28200, Note_on_c, 2, 43, 98
4, 28260, Note_on_c, 2, 43, 0
4, 28260, Note_on_c, 2, 31, 0
4, 28320, Note_on_c, 2, 29, 88
4, 28320, Note_on_c, 2, 41, 98
4, 28380, Note_on_c, 2, 41, 0
4, 28380, Note_on_c, 2, 29, 0
4, 28440, Note_on_c, 2, 32, 110
4, 28440, Note_on_c, 2, 44, 110
4, 28500, Note_on_c, 2, 44, 0
4, 28500, Note_on_c, 2, 32, 0
4, 28560, Note_on_c, 2, 28, 98
4, 28560, Note_on_c, 2, 40, 88
4, 28620, Note_on_c, 2, 40, 0
4, 28620, Note_on_c, 2, 28, 0
4, 28680, Note_on_c, 2, 43, 98
4, 28680, Note_on_c, 2, 31, 98
4, 28740, Note_on_c, 2, 31, 0
4, 28740, Note_on_c, 2, 43, 0
4, 28800, Note_on_c, 2, 41, 98
4, 28800, Note_on_c, 2, 29, 110
4, 28860, Note_on_c, 2, 29, 0
4, 28860, Note_on_c, 2, 41, 0
4, 28920, Note_on_c, 2, 32, 110
4, 28920, Note_on_c, 2, 44, 110
4, 28980, Note_on_c, 2, 44, 0
4, 28980, Note_on_c, 2, 32, 0
4, 29040, Note_on_c, 2, 28, 98
4, 29040, Note_on_c, 2, 40, 98
4, 29100, Note_on_c, 2, 40, 0
4, 29100, Note_on_c, 2, 28, 0
4, 29160, Note_on_c, 2, 31, 88
4, 29160, Note_on_c, 2, 43, 98
4, 29220, Note_on_c, 2, 43, 0
4, 29220, Note_on_c, 2, 31, 0
4, 29280, Note_on_c, 2, 29, 98
4, 29280, Note_on_c, 2, 41, 88
4, 29340, Note_on_c, 2, 41, 0
4, 29340, Note_on_c, 2, 29, 0
4, 29400, Note_on_c, 2, 32, 98
4, 29400, Note_on_c, 2, 44, 110
4, 29460, Note_on_c, 2, 44, 0
4, 29460, Note_on_c, 2, 32, 0
4, 29520, Note_on_c, 2, 28, 98
4, 29520, Note_on_c, 2, 40, 98
4, 29580, Note_on_c, 2, 40, 0
4, 29580, Note_on_c, 2, 28, 0
4, 29640, Note_on_c, 2, 31, 88
4, 29640, Note_on_c, 2, 43, 98
4, 29700, Note_on_c, 2, 43, 0
4, 29700, Note_on_c, 2, 31, 0
4, 29760, Note_on_c, 2, 26, 124
4, 29760, Note_on_c, 2, 38, 110
4, 30000, Note_on_c, 2, 38, 0
4, 30000, Note_on_c, 2, 26, 0
4, 30000, Note_on_c, 2, 40, 110
4, 30000, Note_on_c, 2, 52, 98
4, 30240, Note_on_c, 2, 52, 0
4, 30240, Note_on_c, 2, 40, 0
4, 30240, Note_on_c, 2, 40, 110
4, 30240, Note_on_c, 2, 28, 110
4, 30480, Note_on_c, 2, 28, 0
4, 30480, Note_on_c, 2, 40, 0
4, 30480, Note_on_c, 2, 38, 110
4, 30480, Note_on_c, 2, 50, 110
4, 30720, Note_on_c, 2, 50, 0
4, 30720, Note_on_c, 2, 38, 0
4, 30720, Note_on_c, 2, 38, 110
4, 30720, Note_on_c, 2, 26, 110
4, 30960, Note_on_c, 2, 26, 0
4, 30960, Note_on_c, 2, 38, 0
4, 30960, Note_on_c, 2, 40, 98
4, 30960, Note_on_c, 2, 52, 110
4, 31200, Note_on_c, 2, 52, 0
4, 31200, Note_on_c, 2, 40, 0
4, 31200, Note_on_c, 2, 40, 98
4, 31200, Note_on_c, 2, 28, 110
4, 31440, Note_on_c, 2, 28, 0
4, 31440, Note_on_c, 2, 40, 0
4, 31440, Note_on_c, 2, 38, 110
4, 31440, Note_on_c, 2, 50, 98
4, 31680, Note_on_c, 2, 50, 0
4, 31680, Note_on_c, 2, 38, 0
4, 31680, Note_on_c, 2, 40, 110
4, 31680, Note_on_c, 2, 28, 78
4, 31920, Note_on_c, 2, 28, 0
4, 31920, Note_on_c, 2, 40, 0
4, 31920, Note_on_c, 2, 50, 110
4, 31920, Note_on_c, 2, 38, 124
4, 32160, Note_on_c, 2, 38, 0
4, 32160, Note_on_c, 2, 50, 0
4, 32160, Note_on_c, 2, 36, 110
4, 32160, Note_on_c, 2, 48, 110
4, 32400, Note_on_c, 2, 48, 0
4, 32400, Note_on_c, 2, 36, 0
4, 32400, Note_on_c, 2, 34, 124
4, 32400, Note_on_c, 2, 46, 110
4, 32640, Note_on_c, 2, 46, 0
4, 32640, Note_on_c, 2, 34, 0
4, 32640, Note_on_c, 2, 32, 124
4, 32640, Note_on_c, 2, 44, 110
4, 32880, Note_on_c, 2, 44, 0
4, 32880, Note_on_c, 2, 32, 0
4, 32880, Note_on_c, 2, 31, 110
4, 32880, Note_on_c, 2, 43, 110
4, 34080, Note_on_c, 2, 43, 0
4, 34080, Note_on_c, 2, 31, 0
4, 34080, End_track
5, 0, Start_track
5, 0, MIDI_port, 0
5, 0, Program_c, 3, 0
5, 0, Control_c, 3, 7, 127
5, 0, Control_c, 3, 10, 64
5, 9240, Note_on_c, 3, 55, 98
5, 9600, Note_on_c, 3, 55, 0
5, 9600, Note_on_c, 3, 59, 98
5, 9720, Note_on_c, 3, 59, 0
5, 9720, Note_on_c, 3, 55, 98
5, 9840, Note_on_c, 3, 55, 0
5, 9840, Note_on_c, 3, 62, 98
5, 9960, Note_on_c, 3, 62, 0
5, 9960, Note_on_c, 3, 55, 98
5, 10200, Note_on_c, 3, 55, 0
5, 10320, Note_on_c, 3, 55, 110
5, 10680, Note_on_c, 3, 55, 0
5, 11040, Note_on_c, 3, 60, 110
5, 11040, Note_on_c, 3, 71, 110
5, 11040, Note_on_c, 3, 65, 110
5, 11610, Note_on_c, 3, 65, 0
5, 11610, Note_on_c, 3, 71, 0
5, 11610, Note_on_c, 3, 60, 0
5, 11640, Note_on_c, 3, 60, 110
5, 11640, Note_on_c, 3, 71, 110
5, 11640, Note_on_c, 3, 65, 110
5, 11760, Note_on_c, 3, 71, 0
5, 11880, Note_on_c, 3, 65, 0
5, 12120, Note_on_c, 3, 60, 0
5, 15660, Note_on_c, 3, 55, 110
5, 15720, Note_on_c, 3, 55, 0
5, 15720, Note_on_c, 3, 59, 110
5, 15780, Note_on_c, 3, 59, 0
5, 15780, Note_on_c, 3, 60, 110
5, 15840, Note_on_c, 3, 60, 0
5, 15840, Note_on_c, 3, 50, 98
5, 15900, Note_on_c, 3, 50, 0
5, 15900, Note_on_c, 3, 53, 98
5, 15960, Note_on_c, 3, 53, 0
5, 15960, Note_on_c, 3, 59, 98
5, 16020, Note_on_c, 3, 59, 0
5, 16020, Note_on_c, 3, 60, 110
5, 16080, Note_on_c, 3, 60, 0
5, 16080, Note_on_c, 3, 50, 98
5, 16140, Note_on_c, 3, 50, 0
5, 16140, Note_on_c, 3, 52, 98
5, 16200, Note_on_c, 3, 52, 0
5, 16200, Note_on_c, 3, 57, 98
5, 16260, Note_on_c, 3, 57, 0
5, 16260, Note_on_c, 3, 59, 110
5, 16320, Note_on_c, 3, 59, 0
5, 16320, Note_on_c, 3, 48, 98
5, 16380, Note_on_c, 3, 48, 0
5, 16380, Note_on_c, 3, 50, 98
5, 16440, Note_on_c, 3, 50, 0
5, 16440, Note_on_c, 3, 57, 98
5, 16500, Note_on_c, 3, 57, 0
5, 16500, Note_on_c, 3, 59, 98
5, 16560, Note_on_c, 3, 59, 0
5, 16620, Note_on_c, 3, 50, 98
5, 16680, Note_on_c, 3, 50, 0
5, 16680, Note_on_c, 3, 57, 110
5, 16740, Note_on_c, 3, 57, 0
5, 16740, Note_on_c, 3, 59, 98
5, 16800, Note_on_c, 3, 59, 0
5, 16800, Note_on_c, 3, 47, 110
5, 16860, Note_on_c, 3, 47, 0
5, 16860, Note_on_c, 3, 50, 98
5, 16920, Note_on_c, 3, 50, 0
5, 16920, Note_on_c, 3, 57, 110
5, 16980, Note_on_c, 3, 57, 0
5, 16980, Note_on_c, 3, 59, 110
5, 17040, Note_on_c, 3, 59, 0
5, 17040, Note_on_c, 3, 47, 110
5, 17100, Note_on_c, 3, 47, 0
5, 17100, Note_on_c, 3, 50, 110
5, 17160, Note_on_c, 3, 50, 0
5, 17160, Note_on_c, 3, 57, 110
5, 17220, Note_on_c, 3, 57, 0
5, 17220, Note_on_c, 3, 59, 110
5, 17280, Note_on_c, 3, 59, 0
5, 17520, Note_on_c, 3, 59, 110
5, 18240, Note_on_c, 3, 59, 0
5, 18240, Note_on_c, 3, 60, 110
5, 18720, Note_on_c, 3, 60, 0
5, 18720, Note_on_c, 3, 59, 98
5, 19200, Note_on_c, 3, 59, 0
5, 19200, Note_on_c, 3, 64, 110
5, 19920, Note_on_c, 3, 59, 110
5, 19950, Note_on_c, 3, 64, 0
5, 20340, Note_on_c, 3, 59, 0
5, 20400, Note_on_c, 3, 59, 110
5, 20640, Note_on_c, 3, 59, 0
5, 20640, Note_on_c, 3, 69, 110
5, 20850, Note_on_c, 3, 69, 0
5, 20880, Note_on_c, 3, 57, 110
5, 21120, Note_on_c, 3, 57, 0
5, 21120, Note_on_c, 3, 62, 110
5, 21360, Note_on_c, 3, 62, 0
5, 21360, Note_on_c, 3, 64, 110
5, 21600, Note_on_c, 3, 64, 0
5, 21600, Note_on_c, 3, 74, 98
5, 21600, Note_on_c, 3, 69, 110
5, 21840, Note_on_c, 3, 69, 0
5, 21840, Note_on_c, 3, 74, 0
5, 21840, Note_on_c, 3, 70, 110
5, 22080, Note_on_c, 3, 70, 0
5, 22080, Note_on_c, 3, 67, 110
5, 22320, Note_on_c, 3, 67, 0
5, 22320, Note_on_c, 3, 77, 110
5, 22530, Note_on_c, 3, 77, 0
5, 22560, Note_on_c, 3, 63, 98
5, 22560, Note_on_c, 3, 62, 110
5, 22800, Note_on_c, 3, 63, 0
5, 22800, Note_on_c, 3, 67, 98
5, 23010, Note_on_c, 3, 62, 0
5, 23040, Note_on_c, 3, 67, 0
5, 23040, Note_on_c, 3, 72, 110
5, 23040, Note_on_c, 3, 74, 110
5, 23220, Note_on_c, 3, 74, 0
5, 23220, Note_on_c, 3, 72, 0
5, 23280, Note_on_c, 3, 74, 110
5, 23520, Note_on_c, 3, 74, 0
5, 23520, Note_on_c, 3, 65, 110
5, 23730, Note_on_c, 3, 65, 0
5, 23760, Note_on_c, 3, 62, 110
5, 23940, Note_on_c, 3, 62, 0
5, 24000, Note_on_c, 3, 67, 110
5, 24000, Note_on_c, 3, 62, 110
5, 24390, Note_on_c, 3, 62, 0
5, 24390, Note_on_c, 3, 67, 0
5, 24480, Note_on_c, 3, 79, 110
5, 24480, Note_on_c, 3, 76, 110
5, 24480, Note_on_c, 3, 74, 110
5, 24660, Note_on_c, 3, 74, 0
5, 24660, Note_on_c, 3, 76, 0
5, 24660, Note_on_c, 3, 79, 0
5, 24720, Note_on_c, 3, 62, 110
5, 24720, Note_on_c, 3, 71, 110
5, 24720, Note_on_c, 3, 66, 110
5, 25110, Note_on_c, 3, 66, 0
5, 25110, Note_on_c, 3, 71, 0
5, 25110, Note_on_c, 3, 62, 0
5, 25320, Note_on_c, 3, 83, 110
5, 25320, Note_on_c, 3, 74, 110
5, 25320, Note_on_c, 3, 77, 98
5, 25320, Note_on_c, 3, 79, 98
5, 25440, Note_on_c, 3, 76, 88
5, 25440, Note_on_c, 3, 88, 110
5, 25500, Note_on_c, 3, 88, 0
5, 25500, Note_on_c, 3, 76, 0
5, 25500, Note_on_c, 3, 79, 78
5, 25500, Note_on_c, 3, 91, 98
5, 25530, Note_on_c, 3, 77, 0
5, 25530, Note_on_c, 3, 79, 0
5, 25530, Note_on_c, 3, 83, 0
5, 25530, Note_on_c, 3, 74, 0
5, 25560, Note_on_c, 3, 91, 0
5, 25560, Note_on_c, 3, 79, 0
5, 25560, Note_on_c, 3, 95, 98
5, 25560, Note_on_c, 3, 83, 78
5, 25620, Note_on_c, 3, 83, 0
5, 25620, Note_on_c, 3, 95, 0
5, 25620, Note_on_c, 3, 96, 98
5, 25620, Note_on_c, 3, 84, 78
5, 25680, Note_on_c, 3, 84, 0
5, 25680, Note_on_c, 3, 96, 0
5, 25680, Note_on_c, 3, 74, 88
5, 25680, Note_on_c, 3, 86, 98
5, 25740, Note_on_c, 3, 86, 0
5, 25740, Note_on_c, 3, 74, 0
5, 25740, Note_on_c, 3, 76, 78
5, 25740, Note_on_c, 3, 88, 98
5, 25800, Note_on_c, 3, 88, 0
5, 25800, Note_on_c, 3, 76, 0
5, 25800, Note_on_c, 3, 95, 88
5, 25800, Note_on_c, 3, 83, 88
5, 25860, Note_on_c, 3, 83, 0
5, 25860, Note_on_c, 3, 95, 0
5, 25860, Note_on_c, 3, 96, 98
5, 25860, Note_on_c, 3, 84, 78
5, 25920, Note_on_c, 3, 84, 0
5, 25920, Note_on_c, 3, 96, 0
5, 25920, Note_on_c, 3, 74, 88
5, 25920, Note_on_c, 3, 86, 98
5, 25980, Note_on_c, 3, 86, 0
5, 25980, Note_on_c, 3, 74, 0
5, 25980, Note_on_c, 3, 76, 78
5, 25980, Note_on_c, 3, 88, 98
5, 26040, Note_on_c, 3, 88, 0
5, 26040, Note_on_c, 3, 76, 0
5, 26040, Note_on_c, 3, 81, 88
5, 26040, Note_on_c, 3, 93, 88
5, 26100, Note_on_c, 3, 93, 0
5, 26100, Note_on_c, 3, 81, 0
5, 26100, Note_on_c, 3, 83, 78
5, 26100, Note_on_c, 3, 95, 110
5, 26160, Note_on_c, 3, 95, 0
5, 26160, Note_on_c, 3, 83, 0
5, 26160, Note_on_c, 3, 72, 78
5, 26160, Note_on_c, 3, 84, 98
5, 26220, Note_on_c, 3, 84, 0
5, 26220, Note_on_c, 3, 72, 0
5, 26220, Note_on_c, 3, 74, 88
5, 26220, Note_on_c, 3, 86, 98
5, 26280, Note_on_c, 3, 86, 0
5, 26280, Note_on_c, 3, 74, 0
5, 26280, Note_on_c, 3, 81, 78
5, 26280, Note_on_c, 3, 93, 88
5, 26340, Note_on_c, 3, 93, 0
5, 26340, Note_on_c, 3, 81, 0
5, 26340, Note_on_c, 3, 95, 110
5, 26340, Note_on_c, 3, 83, 98
5, 26400, Note_on_c, 3, 83, 0
5, 26400, Note_on_c, 3, 95, 0
5, 26400, Note_on_c, 3, 72, 88
5, 26400, Note_on_c, 3, 84, 98
5, 26460, Note_on_c, 3, 84, 0
5, 26460, Note_on_c, 3, 72, 0
5, 26460, Note_on_c, 3, 74, 78
5, 26460, Note_on_c, 3, 86, 98
5, 26520, Note_on_c, 3, 86, 0
5, 26520, Note_on_c, 3, 74, 0
5, 26520, Note_on_c, 3, 93, 88
5, 26520, Note_on_c, 3, 81, 88
5, 26580, Note_on_c, 3, 81, 0
5, 26580, Note_on_c, 3, 93, 0
5, 26580, Note_on_c, 3, 95, 98
5, 26580, Note_on_c, 3, 83, 78
5, 26640, Note_on_c, 3, 83, 0
5, 26640, Note_on_c, 3, 95, 0
5, 26640, Note_on_c, 3, 71, 98
5, 26640, Note_on_c, 3, 83, 98
5, 26700, Note_on_c, 3, 83, 0
5, 26700, Note_on_c, 3, 71, 0
5, 26700, Note_on_c, 3, 86, 98
5, 26700, Note_on_c, 3, 74, 88
5, 26760, Note_on_c, 3, 74, 0
5, 26760, Note_on_c, 3, 86, 0
5, 26760, Note_on_c, 3, 81, 88
5, 26760, Note_on_c, 3, 93, 98
5, 26820, Note_on_c, 3, 93, 0
5, 26820, Note_on_c, 3, 81, 0
5, 26820, Note_on_c, 3, 95, 98
5, 26820, Note_on_c, 3, 83, 98
5, 26880, Note_on_c, 3, 83, 0
5, 26880, Note_on_c, 3, 95, 0
5, 26880, Note_on_c, 3, 47, 88
5, 26880, Note_on_c, 3, 59, 88
5, 26940, Note_on_c, 3, 59, 0
5, 26940, Note_on_c, 3, 47, 0
5, 26940, Note_on_c, 3, 62, 98
5, 26940, Note_on_c, 3, 50, 78
5, 27000, Note_on_c, 3, 50, 0
5, 27000, Note_on_c, 3, 62, 0
5, 27000, Note_on_c, 3, 46, 88
5, 27000, Note_on_c, 3, 58, 98
5, 27060, Note_on_c, 3, 58, 0
5, 27060, Note_on_c, 3, 46, 0
5, 27060, Note_on_c, 3, 49, 98
5, 27060, Note_on_c, 3, 61, 98
5, 27120, Note_on_c, 3, 61, 0
5, 27120, Note_on_c, 3, 49, 0
5, 27120, Note_on_c, 3, 47, 88
5, 27120, Note_on_c, 3, 59, 98
5, 27180, Note_on_c, 3, 59, 0
5, 27180, Note_on_c, 3, 47, 0
5, 27180, Note_on_c, 3, 50, 78
5, 27180, Note_on_c, 3, 62, 98
5, 27240, Note_on_c, 3, 62, 0
5, 27240, Note_on_c, 3, 50, 0
5, 27240, Note_on_c, 3, 46, 98
5, 27240, Note_on_c, 3, 58, 98
5, 27300, Note_on_c, 3, 58, 0
5, 27300, Note_on_c, 3, 46, 0
5, 27300, Note_on_c, 3, 49, 98
5, 27300, Note_on_c, 3, 61, 98
5, 27360, Note_on_c, 3, 61, 0
5, 27360, Note_on_c, 3, 49, 0
5, 27360, Note_on_c, 3, 47, 88
5, 27360, Note_on_c, 3, 59, 98
5, 27420, Note_on_c, 3, 59, 0
5, 27420, Note_on_c, 3, 47, 0
5, 27420, Note_on_c, 3, 50, 78
5, 27420, Note_on_c, 3, 62, 88
5, 27480, Note_on_c, 3, 62, 0
5, 27480, Note_on_c, 3, 50, 0
5, 27480, Note_on_c, 3, 46, 98
5, 27480, Note_on_c, 3, 58, 98
5, 27540, Note_on_c, 3, 58, 0
5, 27540, Note_on_c, 3, 46, 0
5, 27540, Note_on_c, 3, 61, 98
5, 27540, Note_on_c, 3, 49, 98
5, 27600, Note_on_c, 3, 49, 0
5, 27600, Note_on_c, 3, 61, 0
5, 27600, Note_on_c, 3, 59, 88
5, 27660, Note_on_c, 3, 59, 0
5, 27660, Note_on_c, 3, 62, 88
5, 27720, Note_on_c, 3, 62, 0
5, 27720, Note_on_c, 3, 61, 98
5, 27780, Note_on_c, 3, 61, 0
5, 27780, Note_on_c, 3, 64, 98
5, 27840, Note_on_c, 3, 64, 0
5, 27840, Note_on_c, 3, 59, 88
5, 27900, Note_on_c, 3, 59, 0
5, 27900, Note_on_c, 3, 62, 88
5, 27960, Note_on_c, 3, 62, 0
5, 27960, Note_on_c, 3, 58, 110
5, 28020, Note_on_c, 3, 58, 0
5, 28020, Note_on_c, 3, 61, 98
5, 28080, Note_on_c, 3, 61, 0
5, 28080, Note_on_c, 3, 59, 98
5, 28140, Note_on_c, 3, 59, 0
5, 28140, Note_on_c, 3, 62, 88
5, 28200, Note_on_c, 3, 62, 0
5, 28200, Note_on_c, 3, 61, 98
5, 28260, Note_on_c, 3, 61, 0
5, 28260, Note_on_c, 3, 64, 98
5, 28320, Note_on_c, 3, 64, 0
5, 28320, Note_on_c, 3, 62, 88
5, 28380, Note_on_c, 3, 62, 0
5, 28380, Note_on_c, 3, 65, 110
5, 28440, Note_on_c, 3, 65, 0
5, 28440, Note_on_c, 3, 59, 88
5, 28500, Note_on_c, 3, 59, 0
5, 28500, Note_on_c, 3, 62, 98
5, 28560, Note_on_c, 3, 62, 0
5, 28560, Note_on_c, 3, 58, 110
5, 28620, Note_on_c, 3, 58, 0
5, 28620, Note_on_c, 3, 61, 110
5, 28680, Note_on_c, 3, 61, 0
5, 28680, Note_on_c, 3, 59, 98
5, 28740, Note_on_c, 3, 59, 0
5, 28740, Note_on_c, 3, 62, 88
5, 28800, Note_on_c, 3, 62, 0
5, 28800, Note_on_c, 3, 61, 98
5, 28860, Note_on_c, 3, 61, 0
5, 28860, Note_on_c, 3, 64, 88
5, 28920, Note_on_c, 3, 64, 0
5, 28920, Note_on_c, 3, 62, 88
5, 28980, Note_on_c, 3, 62, 0
5, 28980, Note_on_c, 3, 65, 110
5, 29040, Note_on_c, 3, 65, 0
5, 29040, Note_on_c, 3, 64, 98
5, 29100, Note_on_c, 3, 64, 0
5, 29100, Note_on_c, 3, 67, 98
5, 29160, Note_on_c, 3, 67, 0
5, 29160, Note_on_c, 3, 59, 88
5, 29220, Note_on_c, 3, 59, 0
5, 29220, Note_on_c, 3, 62, 88
5, 29280, Note_on_c, 3, 62, 0
5, 29280, Note_on_c, 3, 61, 98
5, 29340, Note_on_c, 3, 61, 0
5, 29340, Note_on_c, 3, 64, 88
5, 29400, Note_on_c, 3, 64, 0
5, 29400, Note_on_c, 3, 62, 98
5, 29460, Note_on_c, 3, 62, 0
5, 29460, Note_on_c, 3, 65, 110
5, 29520, Note_on_c, 3, 65, 0
5, 29520, Note_on_c, 3, 64, 98
5, 29580, Note_on_c, 3, 64, 0
5, 29580, Note_on_c, 3, 67, 88
5, 29640, Note_on_c, 3, 67, 0
5, 29640, Note_on_c, 3, 65, 110
5, 29700, Note_on_c, 3, 65, 0
5, 29700, Note_on_c, 3, 68, 98
5, 29760, Note_on_c, 3, 68, 0
5, 29760, Note_on_c, 3, 77, 98
5, 29820, Note_on_c, 3, 77, 0
5, 29820, Note_on_c, 3, 80, 110
5, 29880, Note_on_c, 3, 80, 0
5, 29880, Note_on_c, 3, 76, 110
5, 29940, Note_on_c, 3, 76, 0
5, 29940, Note_on_c, 3, 79, 110
5, 30000, Note_on_c, 3, 79, 0
5, 30000, Note_on_c, 3, 74, 110
5, 30060, Note_on_c, 3, 74, 0
5, 30060, Note_on_c, 3, 77, 98
5, 30120, Note_on_c, 3, 77, 0
5, 30120, Note_on_c, 3, 73, 110
5, 30180, Note_on_c, 3, 73, 0
5, 30180, Note_on_c, 3, 76, 88
5, 30240, Note_on_c, 3, 76, 0
5, 30240, Note_on_c, 3, 77, 98
5, 30300, Note_on_c, 3, 77, 0
5, 30300, Note_on_c, 3, 79, 62
5, 30360, Note_on_c, 3, 79, 0
5, 30360, Note_on_c, 3, 76, 98
5, 30420, Note_on_c, 3, 76, 0
5, 30420, Note_on_c, 3, 79, 88
5, 30480, Note_on_c, 3, 79, 0
5, 30480, Note_on_c, 3, 74, 98
5, 30540, Note_on_c, 3, 74, 0
5, 30540, Note_on_c, 3, 77, 98
5, 30600, Note_on_c, 3, 77, 0
5, 30600, Note_on_c, 3, 73, 98
5, 30660, Note_on_c, 3, 73, 0
5, 30660, Note_on_c, 3, 76, 98
5, 30720, Note_on_c, 3, 76, 0
5, 30720, Note_on_c, 3, 77, 98
5, 30780, Note_on_c, 3, 77, 0
5, 30780, Note_on_c, 3, 80, 98
5, 30840, Note_on_c, 3, 80, 0
5, 30840, Note_on_c, 3, 76, 98
5, 30900, Note_on_c, 3, 76, 0
5, 30900, Note_on_c, 3, 79, 88
5, 30960, Note_on_c, 3, 79, 0
5, 30960, Note_on_c, 3, 74, 98
5, 31020, Note_on_c, 3, 74, 0
5, 31020, Note_on_c, 3, 77, 88
5, 31080, Note_on_c, 3, 77, 0
5, 31080, Note_on_c, 3, 72, 88
5, 31140, Note_on_c, 3, 72, 0
5, 31140, Note_on_c, 3, 76, 88
5, 31200, Note_on_c, 3, 76, 0
5, 31200, Note_on_c, 3, 71, 98
5, 31260, Note_on_c, 3, 71, 0
5, 31260, Note_on_c, 3, 74, 98
5, 31320, Note_on_c, 3, 74, 0
5, 31320, Note_on_c, 3, 70, 98
5, 31380, Note_on_c, 3, 70, 0
5, 31380, Note_on_c, 3, 73, 98
5, 31440, Note_on_c, 3, 73, 0
5, 31440, Note_on_c, 3, 68, 98
5, 31500, Note_on_c, 3, 68, 0
5, 31500, Note_on_c, 3, 71, 98
5, 31560, Note_on_c, 3, 71, 0
5, 31560, Note_on_c, 3, 67, 98
5, 31620, Note_on_c, 3, 67, 0
5, 31620, Note_on_c, 3, 70, 98
5, 31680, Note_on_c, 3, 70, 0
5, 31680, Note_on_c, 3, 65, 98
5, 31740, Note_on_c, 3, 65, 0
5, 31740, Note_on_c, 3, 68, 110
5, 31800, Note_on_c, 3, 68, 0
5, 31920, Note_on_c, 3, 65, 110
5, 31920, Note_on_c, 3, 77, 110
5, 31920, Note_on_c, 3, 72, 110
5, 32340, Note_on_c, 3, 72, 0
5, 32340, Note_on_c, 3, 77, 0
5, 32340, Note_on_c, 3, 65, 0
5, 32400, Note_on_c, 3, 72, 110
5, 32400, Note_on_c, 3, 84, 98
5, 32880, Note_on_c, 3, 84, 0
5, 32880, Note_on_c, 3, 72, 0
5, 32880, End_track
6, 0, Start_track
6, 0, MIDI_port, 0
6, 0, Program_c, 4, 0
6, 0, Control_c, 4, 7, 127
6, 0, Control_c, 4, 10, 64
6, 15150, Note_on_c, 4, 62, 110
6, 15180, Note_on_c, 4, 62, 0
6, 15180, Note_on_c, 4, 64, 88
6, 15210, Note_on_c, 4, 64, 0
6, 15210, Note_on_c, 4, 67, 98
6, 15240, Note_on_c, 4, 67, 0
6, 15240, Note_on_c, 4, 71, 110
6, 15270, Note_on_c, 4, 71, 0
6, 15270, Note_on_c, 4, 74, 98
6, 15300, Note_on_c, 4, 74, 0
6, 15300, Note_on_c, 4, 76, 88
6, 15330, Note_on_c, 4, 76, 0
6, 15330, Note_on_c, 4, 79, 100
6, 15450, Note_on_c, 4, 79, 0
6, 15480, Note_on_c, 4, 67, 110
6, 15480, Note_on_c, 4, 79, 110
6, 15480, Note_on_c, 4, 76, 124
6, 15480, Note_on_c, 4, 83, 110
6, 15510, Note_on_c, 4, 83, 0
6, 15510, Note_on_c, 4, 67, 0
6, 15510, Note_on_c, 4, 79, 0
6, 15510, Note_on_c, 4, 76, 0
6, 15600, Note_on_c, 4, 88, 78
6, 15630, Note_on_c, 4, 88, 0
6, 15630, Note_on_c, 4, 91, 78
6, 15660, Note_on_c, 4, 91, 0
6, 15660, Note_on_c, 4, 95, 88
6, 15690, Note_on_c, 4, 95, 0
6, 15690, Note_on_c, 4, 96, 78
6, 15720, Note_on_c, 4, 96, 0
6, 15720, Note_on_c, 4, 88, 88
6, 15750, Note_on_c, 4, 88, 0
6, 15750, Note_on_c, 4, 91, 78
6, 15780, Note_on_c, 4, 91, 0
6, 15780, Note_on_c, 4, 95, 98
6, 15810, Note_on_c, 4, 95, 0
6, 15810, Note_on_c, 4, 96, 70
6, 15840, Note_on_c, 4, 96, 0
6, 15840, Note_on_c, 4, 88, 78
6, 15870, Note_on_c, 4, 88, 0
6, 15870, Note_on_c, 4, 91, 70
6, 15900, Note_on_c, 4, 91, 0
6, 15900, Note_on_c, 4, 95, 78
6, 15930, Note_on_c, 4, 95, 0
6, 15930, Note_on_c, 4, 96, 78
6, 15960, Note_on_c, 4, 86, 78
6, 15990, Note_on_c, 4, 86, 0
6, 15990, Note_on_c, 4, 96, 0
6, 15990, Note_on_c, 4, 88, 70
6, 16020, Note_on_c, 4, 88, 0
6, 16020, Note_on_c, 4, 95, 78
6, 16050, Note_on_c, 4, 95, 0
6, 16050, Note_on_c, 4, 96, 78
6, 16080, Note_on_c, 4, 96, 0
6, 16080, Note_on_c, 4, 86, 78
6, 16110, Note_on_c, 4, 86, 0
6, 16110, Note_on_c, 4, 88, 78
6, 16140, Note_on_c, 4, 88, 0
6, 16140, Note_on_c, 4, 95, 70
6, 16170, Note_on_c, 4, 95, 0
6, 16170, Note_on_c, 4, 96, 78
6, 16200, Note_on_c, 4, 96, 0
6, 16200, Note_on_c, 4, 86, 70
6, 16230, Note_on_c, 4, 86, 0
6, 16230, Note_on_c, 4, 88, 70
6, 16260, Note_on_c, 4, 88, 0
6, 16260, Note_on_c, 4, 93, 70
6, 16290, Note_on_c, 4, 93, 0
6, 16290, Note_on_c, 4, 95, 88
6, 16320, Note_on_c, 4, 86, 78
6, 16350, Note_on_c, 4, 86, 0
6, 16350, Note_on_c, 4, 95, 0
6, 16350, Note_on_c, 4, 88, 70
6, 16380, Note_on_c, 4, 88, 0
6, 16380, Note_on_c, 4, 93, 70
6, 16410, Note_on_c, 4, 93, 0
6, 16410, Note_on_c, 4, 95, 88
6, 16440, Note_on_c, 4, 95, 0
6, 16440, Note_on_c, 4, 84, 70
6, 16470, Note_on_c, 4, 84, 0
6, 16470, Note_on_c, 4, 86, 70
6, 16500, Note_on_c, 4, 93, 70
6, 16530, Note_on_c, 4, 93, 0
6, 16530, Note_on_c, 4, 86, 0
6, 16530, Note_on_c, 4, 95, 78
6, 16560, Note_on_c, 4, 95, 0
6, 16560, Note_on_c, 4, 84, 78
6, 16590, Note_on_c, 4, 84, 0
6, 16590, Note_on_c, 4, 86, 78
6, 16620, Note_on_c, 4, 86, 0
6, 16620, Note_on_c, 4, 93, 70
6, 16650, Note_on_c, 4, 93, 0
6, 16650, Note_on_c, 4, 95, 88
6, 16680, Note_on_c, 4, 95, 0
6, 16680, Note_on_c, 4, 84, 78
6, 16710, Note_on_c, 4, 84, 0
6, 16710, Note_on_c, 4, 86, 78
6, 16740, Note_on_c, 4, 86, 0
6, 16740, Note_on_c, 4, 93, 78
6, 16770, Note_on_c, 4, 93, 0
6, 16770, Note_on_c, 4, 95, 78
6, 16800, Note_on_c, 4, 95, 0
6, 16800, Note_on_c, 4, 84, 78
6, 16830, Note_on_c, 4, 84, 0
6, 16830, Note_on_c, 4, 86, 78
6, 16860, Note_on_c, 4, 86, 0
6, 16860, Note_on_c, 4, 93, 70
6, 16890, Note_on_c, 4, 93, 0
6, 16890, Note_on_c, 4, 95, 78
6, 16920, Note_on_c, 4, 95, 0
6, 16920, Note_on_c, 4, 84, 70
6, 16950, Note_on_c, 4, 84, 0
6, 16950, Note_on_c, 4, 86, 78
6, 16980, Note_on_c, 4, 86, 0
6, 16980, Note_on_c, 4, 93, 70
6, 17010, Note_on_c, 4, 93, 0
6, 17010, Note_on_c, 4, 95, 78
6, 17040, Note_on_c, 4, 95, 0
6, 17040, Note_on_c, 4, 83, 78
6, 17070, Note_on_c, 4, 84, 70
6, 17100, Note_on_c, 4, 84, 0
6, 17100, Note_on_c, 4, 83, 0
6, 17100, Note_on_c, 4, 93, 70
6, 17130, Note_on_c, 4, 93, 0
6, 17130, Note_on_c, 4, 95, 78
6, 17160, Note_on_c, 4, 95, 0
6, 17160, Note_on_c, 4, 83, 88
6, 17190, Note_on_c, 4, 83, 0
6, 17190, Note_on_c, 4, 84, 78
6, 17220, Note_on_c, 4, 84, 0
6, 17220, Note_on_c, 4, 93, 78
6, 17250, Note_on_c, 4, 93, 0
6, 17250, Note_on_c, 4, 95, 98
6, 17280, Note_on_c, 4, 95, 0
6, 17400, Note_on_c, 4, 79, 110
6, 17400, Note_on_c, 4, 67, 124
6, 17400, Note_on_c, 4, 76, 110
6, 17400, Note_on_c, 4, 83, 124
6, 17430, Note_on_c, 4, 83, 0
6, 17430, Note_on_c, 4, 79, 0
6, 17430, Note_on_c, 4, 67, 0
6, 17430, Note_on_c, 4, 76, 0
6, 27600, Note_on_c, 4, 47, 98
6, 27660, Note_on_c, 4, 47, 0
6, 27660, Note_on_c, 4, 50, 88
6, 27720, Note_on_c, 4, 50, 0
6, 27720, Note_on_c, 4, 49, 98
6, 27780, Note_on_c, 4, 49, 0
6, 27780, Note_on_c, 4, 52, 98
6, 27840, Note_on_c, 4, 52, 0
6, 27840, Note_on_c, 4, 47, 88
6, 27900, Note_on_c, 4, 47, 0
6, 27900, Note_on_c, 4, 50, 88
6, 27960, Note_on_c, 4, 50, 0
6, 27960, Note_on_c, 4, 46, 88
6, 28020, Note_on_c, 4, 46, 0
6, 28020, Note_on_c, 4, 49, 98
6, 28080, Note_on_c, 4, 49, 0
6, 28080, Note_on_c, 4, 47, 88
6, 28140, Note_on_c, 4, 47, 0
6, 28140, Note_on_c, 4, 50, 88
6, 28200, Note_on_c, 4, 50, 0
6, 28200, Note_on_c, 4, 49, 98
6, 28260, Note_on_c, 4, 49, 0
6, 28260, Note_on_c, 4, 52, 88
6, 28320, Note_on_c, 4, 52, 0
6, 28320, Note_on_c, 4, 50, 88
6, 28380, Note_on_c, 4, 50, 0
6, 28380, Note_on_c, 4, 53, 88
6, 28440, Note_on_c, 4, 53, 0
6, 28440, Note_on_c, 4, 47, 78
6, 28500, Note_on_c, 4, 47, 0
6, 28500, Note_on_c, 4, 50, 88
6, 28560, Note_on_c, 4, 50, 0
6, 28560, Note_on_c, 4, 46, 98
6, 28620, Note_on_c, 4, 46, 0
6, 28620, Note_on_c, 4, 49, 98
6, 28680, Note_on_c, 4, 49, 0
6, 28680, Note_on_c, 4, 47, 88
6, 28740, Note_on_c, 4, 47, 0
6, 28740, Note_on_c, 4, 50, 98
6, 28800, Note_on_c, 4, 50, 0
6, 28800, Note_on_c, 4, 49, 98
6, 28860, Note_on_c, 4, 49, 0
6, 28860, Note_on_c, 4, 52, 88
6, 28920, Note_on_c, 4, 52, 0
6, 28920, Note_on_c, 4, 50, 88
6, 28980, Note_on_c, 4, 50, 0
6, 28980, Note_on_c, 4, 53, 98
6, 29040, Note_on_c, 4, 53, 0
6, 29040, Note_on_c, 4, 52, 88
6, 29100, Note_on_c, 4, 52, 0
6, 29100, Note_on_c, 4, 55, 88
6, 29160, Note_on_c, 4, 55, 0
6, 29160, Note_on_c, 4, 47, 88
6, 29220, Note_on_c, 4, 47, 0
6, 29220, Note_on_c, 4, 50, 88
6, 29280, Note_on_c, 4, 50, 0
6, 29280, Note_on_c, 4, 49, 88
6, 29340, Note_on_c, 4, 49, 0
6, 29340, Note_on_c, 4, 52, 88
6, 29400, Note_on_c, 4, 52, 0
6, 29400, Note_on_c, 4, 50, 70
6, 29460, Note_on_c, 4, 50, 0
6, 29460, Note_on_c, 4, 53, 88
6, 29520, Note_on_c, 4, 53, 0
6, 29520, Note_on_c, 4, 52, 78
6, 29580, Note_on_c, 4, 52, 0
6, 29580, Note_on_c, 4, 55, 88
6, 29640, Note_on_c, 4, 55, 0
6, 29640, Note_on_c, 4, 53, 78
6, 29700, Note_on_c, 4, 53, 0
6, 29700, Note_on_c, 4, 56, 98
6, 29760, Note_on_c, 4, 56, 0
6, 29760, Note_on_c, 4, 65, 88
6, 29820, Note_on_c, 4, 65, 0
6, 29820, Note_on_c, 4, 56, 98
6, 29880, Note_on_c, 4, 56, 0
6, 29880, Note_on_c, 4, 52, 88
6, 29940, Note_on_c, 4, 52, 0
6, 29940, Note_on_c, 4, 55, 98
6, 30000, Note_on_c, 4, 55, 0
6, 30000, Note_on_c, 4, 50, 88
6, 30060, Note_on_c, 4, 50, 0
6, 30060, Note_on_c, 4, 53, 98
6, 30120, Note_on_c, 4, 53, 0
6, 30120, Note_on_c, 4, 49, 110
6, 30180, Note_on_c, 4, 49, 0
6, 30180, Note_on_c, 4, 52, 98
6, 30240, Note_on_c, 4, 52, 0
6, 30240, Note_on_c, 4, 65, 98
6, 30300, Note_on_c, 4, 65, 0
6, 30300, Note_on_c, 4, 57, 88
6, 30360, Note_on_c, 4, 57, 0
6, 30360, Note_on_c, 4, 52, 78
6, 30420, Note_on_c, 4, 52, 0
6, 30420, Note_on_c, 4, 55, 88
6, 30480, Note_on_c, 4, 55, 0
6, 30480, Note_on_c, 4, 50, 88
6, 30540, Note_on_c, 4, 50, 0
6, 30540, Note_on_c, 4, 53, 88
6, 30600, Note_on_c, 4, 53, 0
6, 30600, Note_on_c, 4, 49, 98
6, 30660, Note_on_c, 4, 49, 0
6, 30660, Note_on_c, 4, 52, 78
6, 30720, Note_on_c, 4, 52, 0
6, 30720, Note_on_c, 4, 65, 110
6, 30780, Note_on_c, 4, 65, 0
6, 30780, Note_on_c, 4, 56, 110
6, 30840, Note_on_c, 4, 56, 0
6, 30840, Note_on_c, 4, 52, 78
6, 30900, Note_on_c, 4, 52, 0
6, 30900, Note_on_c, 4, 55, 98
6, 30960, Note_on_c, 4, 55, 0
6, 30960, Note_on_c, 4, 50, 88
6, 31020, Note_on_c, 4, 50, 0
6, 31020, Note_on_c, 4, 53, 88
6, 31080, Note_on_c, 4, 53, 0
6, 31080, Note_on_c, 4, 48, 78
6, 31140, Note_on_c, 4, 48, 0
6, 31140, Note_on_c, 4, 52, 88
6, 31200, Note_on_c, 4, 52, 0
6, 31200, Note_on_c, 4, 59, 110
6, 31260, Note_on_c, 4, 59, 0
6, 31260, Note_on_c, 4, 50, 88
6, 31320, Note_on_c, 4, 50, 0
6, 31320, Note_on_c, 4, 46, 98
6, 31380, Note_on_c, 4, 46, 0
6, 31380, Note_on_c, 4, 49, 98
6, 31440, Note_on_c, 4, 49, 0
6, 31440, Note_on_c, 4, 44, 98
6, 31500, Note_on_c, 4, 44, 0
6, 31500, Note_on_c, 4, 47, 98
6, 31560, Note_on_c, 4, 47, 0
6, 31560, Note_on_c, 4, 43, 78
6, 31620, Note_on_c, 4, 43, 0
6, 31620, Note_on_c, 4, 46, 110
6, 31680, Note_on_c, 4, 46, 0
6, 31680, Note_on_c, 4, 41, 98
6, 31740, Note_on_c, 4, 41, 0
6, 31740, Note_on_c, 4, 44, 110
6, 31800, Note_on_c, 4, 44, 0
6, 31920, Note_on_c, 4, 52, 98
6, 31921, Note_on_c, 4, 60, 110
6, 32160, Note_on_c, 4, 52, 0
6, 32160, Note_on_c, 4, 62, 110
6, 32160, Note_on_c, 4, 53, 110
6, 32161, Note_on_c, 4, 60, 0
6, 32400, Note_on_c, 4, 53, 0
6, 32400, Note_on_c, 4, 62, 0
6, 32400, Note_on_c, 4, 55, 110
6, 32400, Note_on_c, 4, 64, 124
6, 32640, Note_on_c, 4, 64, 0
6, 32640, Note_on_c, 4, 55, 0
6, 32880, Note_on_c, 4, 62, 110
6, 32880, Note_on_c, 4, 57, 110
6, 33120, Note_on_c, 4, 57, 0
6, 33120, Note_on_c, 4, 67, 88
6, 33120, Note_on_c, 4, 69, 98
6, 33120, Note_on_c, 4, 60, 98
6, 33360, Note_on_c, 4, 60, 0
6, 33360, Note_on_c, 4, 62, 0
6, 33360, Note_on_c, 4, 67, 0
6, 33360, Note_on_c, 4, 69, 0
6, 33360, Note_on_c, 4, 62, 110
6, 33360, Note_on_c, 4, 71, 110
6, 33360, Note_on_c, 4, 67, 110
6, 33360, Note_on_c, 4, 59, 88
6, 34200, Note_on_c, 4, 67, 0
6, 34200, Note_on_c, 4, 62, 0
6, 34200, Note_on_c, 4, 71, 0
6, 34320, Note_on_c, 4, 59, 0
6, 34320, End_track
7, 0, Start_track
7, 0, MIDI_port, 0
7, 0, Control_c, 13, 7, 127
7, 0, Control_c, 13, 10, 64
7, 12120, Note_on_c, 13, 88, 88
7, 12240, Note_on_c, 13, 88, 0
7, 12240, Note_on_c, 13, 89, 88
7, 12330, Note_on_c, 13, 89, 0
7, 12360, Note_on_c, 13, 89, 98
7, 12600, Note_on_c, 13, 89, 0
7, 12600, Note_on_c, 13, 88, 98
7, 13050, Note_on_c, 13, 88, 0
7, 13080, Note_on_c, 13, 88, 98
7, 13200, Note_on_c, 13, 88, 0
7, 13200, Note_on_c, 13, 89, 88
7, 13290, Note_on_c, 13, 89, 0
7, 13320, Note_on_c, 13, 89, 98
7, 13440, Note_on_c, 13, 89, 0
7, 13440, Note_on_c, 13, 88, 98
7, 13530, Note_on_c, 13, 88, 0
7, 13560, Note_on_c, 13, 88, 98
7, 13680, Note_on_c, 13, 88, 0
7, 13680, Note_on_c, 13, 89, 88
7, 13770, Note_on_c, 13, 89, 0
7, 13800, Note_on_c, 13, 89, 98
7, 13920, Note_on_c, 13, 89, 0
7, 13920, Note_on_c, 13, 88, 98
7, 14010, Note_on_c, 13, 88, 0
7, 14040, Note_on_c, 13, 88, 98
7, 14160, Note_on_c, 13, 88, 0
7, 14160, Note_on_c, 13, 89, 98
7, 14250, Note_on_c, 13, 89, 0
7, 14280, Note_on_c, 13, 89, 110
7, 14760, Note_on_c, 13, 89, 0
7, 14760, Note_on_c, 13, 88, 88
7, 15120, Note_on_c, 13, 88, 0
7, 15120, End_track
8, 0, Start_track
8, 0, MIDI_port, 0
8, 0, Program_c, 6, 0
8, 0, Control_c, 6, 7, 127
8, 0, Control_c, 6, 10, 64
8, 3960, Note_on_c, 6, 71, 98
8, 4080, Note_on_c, 6, 71, 0
8, 4080, Note_on_c, 6, 72, 98
8, 4200, Note_on_c, 6, 72, 0
8, 4200, Note_on_c, 6, 72, 110
8, 4440, Note_on_c, 6, 72, 0
8, 4440, Note_on_c, 6, 71, 98
8, 4650, Note_on_c, 6, 71, 0
8, 4680, Note_on_c, 6, 71, 110
8, 4920, Note_on_c, 6, 71, 0
8, 4920, Note_on_c, 6, 72, 98
8, 5160, Note_on_c, 6, 72, 0
8, 5160, Note_on_c, 6, 74, 110
8, 5400, Note_on_c, 6, 74, 0
8, 5400, Note_on_c, 6, 72, 98
8, 5610, Note_on_c, 6, 72, 0
8, 5640, Note_on_c, 6, 74, 110
8, 5760, Note_on_c, 6, 74, 0
8, 5760, Note_on_c, 6, 76, 110
8, 5850, Note_on_c, 6, 76, 0
8, 5880, Note_on_c, 6, 64, 88
8, 6000, Note_on_c, 6, 64, 0
8, 6000, Note_on_c, 6, 65, 110
8, 6090, Note_on_c, 6, 65, 0
8, 6120, Note_on_c, 6, 65, 110
8, 6360, Note_on_c, 6, 65, 0
8, 6360, Note_on_c, 6, 64, 98
8, 6780, Note_on_c, 6, 64, 0
8, 6840, Note_on_c, 6, 64, 98
8, 6960, Note_on_c, 6, 64, 0
8, 6960, Note_on_c, 6, 65, 110
8, 7050, Note_on_c, 6, 65, 0
8, 7080, Note_on_c, 6, 65, 110
8, 7200, Note_on_c, 6, 65, 0
8, 7200, Note_on_c, 6, 64, 110
8, 7290, Note_on_c, 6, 64, 0
8, 7320, Note_on_c, 6, 64, 98
8, 7440, Note_on_c, 6, 64, 0
8, 7440, Note_on_c, 6, 65, 110
8, 7530, Note_on_c, 6, 65, 0
8, 7560, Note_on_c, 6, 65, 98
8, 7680, Note_on_c, 6, 65, 0
8, 7680, Note_on_c, 6, 64, 98
8, 7740, Note_on_c, 6, 64, 0
8, 7800, Note_on_c, 6, 64, 98
8, 7920, Note_on_c, 6, 64, 0
8, 7920, Note_on_c, 6, 65, 98
8, 8010, Note_on_c, 6, 65, 0
8, 8040, Note_on_c, 6, 65, 110
8, 8520, Note_on_c, 6, 65, 0
8, 8520, Note_on_c, 6, 64, 110
8, 8940, Note_on_c, 6, 64, 0
8, 19200, Note_on_c, 6, 52, 78
8, 19230, Note_on_c, 6, 52, 0
8, 19260, Note_on_c, 6, 53, 78
8, 19290, Note_on_c, 6, 53, 0
8, 19320, Note_on_c, 6, 55, 78
8, 19350, Note_on_c, 6, 55, 0
8, 19380, Note_on_c, 6, 57, 88
8, 19410, Note_on_c, 6, 57, 0
8, 19440, Note_on_c, 6, 52, 98
8, 19470, Note_on_c, 6, 52, 0
8, 19500, Note_on_c, 6, 52, 88
8, 19530, Note_on_c, 6, 52, 0
8, 19560, Note_on_c, 6, 52, 78
8, 19590, Note_on_c, 6, 52, 0
8, 19620, Note_on_c, 6, 52, 88
8, 19650, Note_on_c, 6, 52, 0
8, 19680, Note_on_c, 6, 52, 98
8, 19710, Note_on_c, 6, 52, 0
8, 19740, Note_on_c, 6, 53, 88
8, 19770, Note_on_c, 6, 53, 0
8, 19800, Note_on_c, 6, 55, 98
8, 19830, Note_on_c, 6, 55, 0
8, 19860, Note_on_c, 6, 57, 98
8, 19890, Note_on_c, 6, 57, 0
8, 26880, Note_on_c, 6, 83, 98
8, 26880, Note_on_c, 6, 95, 110
8, 27300, Note_on_c, 6, 83, 0
8, 27360, Note_on_c, 6, 95, 0
8, 27360, Note_on_c, 6, 71, 110
8, 27360, Note_on_c, 6, 83, 110
8, 27780, Note_on_c, 6, 83, 0
8, 27780, Note_on_c, 6, 71, 0
8, 27840, Note_on_c, 6, 83, 110
8, 27840, Note_on_c, 6, 95, 110
8, 28320, Note_on_c, 6, 95, 0
8, 28320, Note_on_c, 6, 83, 0
8, 28320, Note_on_c, 6, 71, 98
8, 28320, Note_on_c, 6, 83, 110
8, 28740, Note_on_c, 6, 71, 0
8, 28800, Note_on_c, 6, 83, 0
8, 28800, Note_on_c, 6, 83, 110
8, 28800, Note_on_c, 6, 95, 110
8, 29280, Note_on_c, 6, 95, 0
8, 29280, Note_on_c, 6, 83, 0
8, 29280, Note_on_c, 6, 83, 98
8, 29280, Note_on_c, 6, 71, 98
8, 29700, Note_on_c, 6, 71, 0
8, 29700, Note_on_c, 6, 83, 0
8, 29760, Note_on_c, 6, 84, 98
8, 29760, Note_on_c, 6, 96, 88
8, 29940, Note_on_c, 6, 96, 0
8, 29940, Note_on_c, 6, 84, 0
8, 30000, Note_on_c, 6, 83, 110
8, 30000, Note_on_c, 6, 71, 98
8, 30240, Note_on_c, 6, 71, 0
8, 30240, Note_on_c, 6, 83, 0
8, 30240, Note_on_c, 6, 83, 98
8, 30240, Note_on_c, 6, 95, 110
8, 30480, Note_on_c, 6, 95, 0
8, 30480, Note_on_c, 6, 83, 0
8, 30480, Note_on_c, 6, 81, 98
8, 30480, Note_on_c, 6, 69, 110
8, 30720, Note_on_c, 6, 69, 0
8, 30720, Note_on_c, 6, 81, 0
8, 30720, Note_on_c, 6, 93, 78
8, 30720, Note_on_c, 6, 81, 98
8, 30780, Note_on_c, 6, 93, 0
8, 30900, Note_on_c, 6, 81, 0
8, 30960, Note_on_c, 6, 67, 98
8, 30960, Note_on_c, 6, 79, 98
8, 31200, Note_on_c, 6, 79, 0
8, 31200, Note_on_c, 6, 67, 0
8, 31200, Note_on_c, 6, 79, 98
8, 31200, Note_on_c, 6, 91, 98
8, 31440, Note_on_c, 6, 91, 0
8, 31440, Note_on_c, 6, 79, 0
8, 31440, Note_on_c, 6, 77, 98
8, 31440, Note_on_c, 6, 65, 110
8, 31680, Note_on_c, 6, 65, 0
8, 31680, Note_on_c, 6, 77, 0
8, 31680, Note_on_c, 6, 77, 98
8, 31680, Note_on_c, 6, 89, 98
8, 31920, Note_on_c, 6, 89, 0
8, 31920, Note_on_c, 6, 77, 0
8, 32880, Note_on_c, 6, 91, 110
8, 34260, Note_on_c, 6, 91, 0
8, 34260, End_track
9, 0, Start_track
9, 0, MIDI_port, 0
9, 0, Title_t, "soprano"
9, 0, Program_c, 5, 52
9, 0, Control_c, 5, 7, 127
9, 0, Control_c, 5, 10, 86
9, 9240, Note_on_c, 5, 74, 98
9, 9330, Note_on_c, 5, 74, 0
9, 9360, Note_on_c, 5, 74, 110
9, 9600, Note_on_c, 5, 74, 0
9, 9600, Note_on_c, 5, 77, 98
9, 9720, Note_on_c, 5, 77, 0
9, 9720, Note_on_c, 5, 74, 98
9, 9840, Note_on_c, 5, 74, 0
9, 9840, Note_on_c, 5, 77, 98
9, 9960, Note_on_c, 5, 77, 0
9, 9960, Note_on_c, 5, 74, 98
9, 10050, Note_on_c, 5, 74, 0
9, 10080, Note_on_c, 5, 74, 98
9, 10320, Note_on_c, 5, 74, 0
9, 10320, Note_on_c, 5, 77, 98
9, 10680, Note_on_c, 5, 77, 0
9, 10680, Note_on_c, 5, 74, 110
9, 11040, Note_on_c, 5, 74, 0
9, 16440, Note_on_c, 5, 76, 110
9, 16530, Note_on_c, 5, 76, 0
9, 16560, Note_on_c, 5, 76, 110
9, 16650, Note_on_c, 5, 76, 0
9, 16680, Note_on_c, 5, 76, 110
9, 16740, Note_on_c, 5, 76, 0
9, 16800, Note_on_c, 5, 76, 110
9, 17280, Note_on_c, 5, 76, 0
9, 19200, Note_on_c, 5, 64, 110
9, 19680, Note_on_c, 5, 64, 0
9, 19680, Note_on_c, 5, 71, 98
9, 19920, Note_on_c, 5, 71, 0
9, 19920, Note_on_c, 5, 69, 98
9, 20160, Note_on_c, 5, 69, 0
9, 20160, Note_on_c, 5, 74, 98
9, 20400, Note_on_c, 5, 74, 0
9, 20400, Note_on_c, 5, 67, 98
9, 20640, Note_on_c, 5, 67, 0
9, 20640, Note_on_c, 5, 71, 98
9, 20880, Note_on_c, 5, 71, 0
9, 20880, Note_on_c, 5, 69, 98
9, 21090, Note_on_c, 5, 69, 0
9, 21120, Note_on_c, 5, 69, 110
9, 21570, Note_on_c, 5, 69, 0
9, 21600, Note_on_c, 5, 64, 98
9, 21810, Note_on_c, 5, 64, 0
9, 21840, Note_on_c, 5, 65, 98
9, 22320, Note_on_c, 5, 65, 0
9, 22320, Note_on_c, 5, 77, 110
9, 22560, Note_on_c, 5, 77, 0
9, 22560, Note_on_c, 5, 70, 110
9, 22800, Note_on_c, 5, 70, 0
9, 22800, Note_on_c, 5, 80, 110
9, 23040, Note_on_c, 5, 79, 98
9, 23070, Note_on_c, 5, 80, 0
9, 23280, Note_on_c, 5, 79, 0
9, 23280, Note_on_c, 5, 70, 110
9, 23520, Note_on_c, 5, 70, 0
9, 23520, Note_on_c, 5, 80, 110
9, 23760, Note_on_c, 5, 79, 98
9, 23790, Note_on_c, 5, 80, 0
9, 23970, Note_on_c, 5, 79, 0
9, 24000, Note_on_c, 5, 79, 98
9, 24480, Note_on_c, 5, 79, 0
9, 24480, Note_on_c, 5, 79, 110
9, 24690, Note_on_c, 5, 79, 0
9, 24720, Note_on_c, 5, 79, 98
9, 25170, Note_on_c, 5, 79, 0
9, 25200, Note_on_c, 5, 79, 98
9, 25410, Note_on_c, 5, 79, 0
9, 25440, Note_on_c, 5, 79, 98
9, 25530, Note_on_c, 5, 79, 0
9, 25560, Note_on_c, 5, 79, 110
9, 25920, Note_on_c, 5, 79, 0
9, 26040, Note_on_c, 5, 76, 98
9, 26250, Note_on_c, 5, 76, 0
9, 26280, Note_on_c, 5, 76, 98
9, 26490, Note_on_c, 5, 76, 0
9, 26520, Note_on_c, 5, 76, 110
9, 26610, Note_on_c, 5, 76, 0
9, 26640, Note_on_c, 5, 76, 110
9, 26730, Note_on_c, 5, 76, 0
9, 26760, Note_on_c, 5, 76, 110
9, 26880, Note_on_c, 5, 76, 0
9, 28080, Note_on_c, 5, 72, 110
9, 28560, Note_on_c, 5, 72, 0
9, 28560, Note_on_c, 5, 74, 110
9, 28800, Note_on_c, 5, 74, 0
9, 28800, Note_on_c, 5, 76, 110
9, 29010, Note_on_c, 5, 76, 0
9, 29040, Note_on_c, 5, 76, 110
9, 29490, Note_on_c, 5, 76, 0
9, 29520, Note_on_c, 5, 76, 110
9, 29760, Note_on_c, 5, 76, 0
9, 29760, Note_on_c, 5, 77, 98
9, 29880, Note_on_c, 5, 77, 0
9, 29880, Note_on_c, 5, 76, 98
9, 29970, Note_on_c, 5, 76, 0
9, 30000, Note_on_c, 5, 76, 98
9, 30120, Note_on_c, 5, 76, 0
9, 30120, Note_on_c, 5, 77, 98
9, 30210, Note_on_c, 5, 77, 0
9, 30240, Note_on_c, 5, 77, 98
9, 30360, Note_on_c, 5, 77, 0
9, 30360, Note_on_c, 5, 76, 98
9, 30450, Note_on_c, 5, 76, 0
9, 30480, Note_on_c, 5, 76, 98
9, 30600, Note_on_c, 5, 76, 0
9, 30600, Note_on_c, 5, 77, 98
9, 30690, Note_on_c, 5, 77, 0
9, 30720, Note_on_c, 5, 77, 110
9, 31200, Note_on_c, 5, 77, 0
9, 31200, Note_on_c, 5, 76, 110
9, 31680, Note_on_c, 5, 76, 0
9, 31680, Note_on_c, 5, 77, 98
9, 31890, Note_on_c, 5, 77, 0
9, 31920, Note_on_c, 5, 77, 110
9, 32010, Note_on_c, 5, 77, 0
9, 32040, Note_on_c, 5, 77, 110
9, 32130, Note_on_c, 5, 77, 0
9, 32160, Note_on_c, 5, 77, 110
9, 32610, Note_on_c, 5, 77, 0
9, 32640, Note_on_c, 5, 77, 110
9, 32850, Note_on_c, 5, 77, 0
9, 32880, Note_on_c, 5, 77, 110
9, 33120, Note_on_c, 5, 77, 0
9, 33120, Note_on_c, 5, 79, 98
9, 33330, Note_on_c, 5, 79, 0
9, 33360, Note_on_c, 5, 79, 110
9, 34350, Note_on_c, 5, 79, 0
9, 34350, End_track
10, 0, Start_track
10, 0, MIDI_port, 0
10, 0, Title_t, "alto"
10, 0, Control_c, 5, 7, 127
10, 0, Control_c, 5, 10, 127
10, 5880, Note_on_c, 5, 64, 88
10, 6000, Note_on_c, 5, 64, 0
10, 6000, Note_on_c, 5, 65, 98
10, 6090, Note_on_c, 5, 65, 0
10, 6120, Note_on_c, 5, 65, 98
10, 6360, Note_on_c, 5, 65, 0
10, 6360, Note_on_c, 5, 64, 98
10, 6750, Note_on_c, 5, 64, 0
10, 6840, Note_on_c, 5, 64, 98
10, 6960, Note_on_c, 5, 64, 0
10, 6960, Note_on_c, 5, 65, 88
10, 7050, Note_on_c, 5, 65, 0
10, 7080, Note_on_c, 5, 65, 88
10, 7200, Note_on_c, 5, 65, 0
10, 7200, Note_on_c, 5, 64, 78
10, 7290, Note_on_c, 5, 64, 0
10, 7320, Note_on_c, 5, 64, 88
10, 7440, Note_on_c, 5, 64, 0
10, 7440, Note_on_c, 5, 65, 98
10, 7530, Note_on_c, 5, 65, 0
10, 7560, Note_on_c, 5, 65, 98
10, 7680, Note_on_c, 5, 65, 0
10, 7680, Note_on_c, 5, 64, 88
10, 7740, Note_on_c, 5, 64, 0
10, 7800, Note_on_c, 5, 64, 88
10, 7920, Note_on_c, 5, 64, 0
10, 7920, Note_on_c, 5, 65, 88
10, 8010, Note_on_c, 5, 65, 0
10, 8040, Note_on_c, 5, 65, 98
10, 8520, Note_on_c, 5, 65, 0
10, 8520, Note_on_c, 5, 64, 88
10, 9120, Note_on_c, 5, 64, 0
10, 9240, Note_on_c, 5, 67, 98
10, 9330, Note_on_c, 5, 67, 0
10, 9360, Note_on_c, 5, 67, 98
10, 9600, Note_on_c, 5, 67, 0
10, 9600, Note_on_c, 5, 65, 98
10, 9720, Note_on_c, 5, 65, 0
10, 9720, Note_on_c, 5, 67, 98
10, 9840, Note_on_c, 5, 67, 0
10, 9840, Note_on_c, 5, 68, 98
10, 9960, Note_on_c, 5, 67, 98
10, 9990, Note_on_c, 5, 68, 0
10, 10050, Note_on_c, 5, 67, 0
10, 10080, Note_on_c, 5, 67, 98
10, 10320, Note_on_c, 5, 67, 0
10, 10320, Note_on_c, 5, 68, 110
10, 10650, Note_on_c, 5, 68, 0
10, 10680, Note_on_c, 5, 67, 98
10, 11040, Note_on_c, 5, 67, 0
10, 12150, Note_on_c, 5, 64, 98
10, 12240, Note_on_c, 5, 64, 0
10, 12240, Note_on_c, 5, 65, 98
10, 12330, Note_on_c, 5, 65, 0
10, 12360, Note_on_c, 5, 65, 110
10, 12600, Note_on_c, 5, 65, 0
10, 12600, Note_on_c, 5, 64, 98
10, 12990, Note_on_c, 5, 64, 0
10, 13080, Note_on_c, 5, 64, 98
10, 13200, Note_on_c, 5, 64, 0
10, 13200, Note_on_c, 5, 65, 110
10, 13290, Note_on_c, 5, 65, 0
10, 13320, Note_on_c, 5, 65, 98
10, 13440, Note_on_c, 5, 65, 0
10, 13440, Note_on_c, 5, 64, 98
10, 13530, Note_on_c, 5, 64, 0
10, 13560, Note_on_c, 5, 64, 88
10, 13680, Note_on_c, 5, 64, 0
10, 13680, Note_on_c, 5, 65, 98
10, 13770, Note_on_c, 5, 65, 0
10, 13800, Note_on_c, 5, 65, 98
10, 13920, Note_on_c, 5, 65, 0
10, 13920, Note_on_c, 5, 64, 98
10, 14010, Note_on_c, 5, 64, 0
10, 14040, Note_on_c, 5, 64, 98
10, 14160, Note_on_c, 5, 64, 0
10, 14160, Note_on_c, 5, 65, 98
10, 14250, Note_on_c, 5, 65, 0
10, 14280, Note_on_c, 5, 65, 110
10, 14760, Note_on_c, 5, 65, 0
10, 14760, Note_on_c, 5, 64, 98
10, 15240, Note_on_c, 5, 64, 0
10, 17520, Note_on_c, 5, 59, 98
10, 18000, Note_on_c, 5, 59, 0
10, 18000, Note_on_c, 5, 71, 110
10, 18240, Note_on_c, 5, 71, 0
10, 18240, Note_on_c, 5, 69, 98
10, 18480, Note_on_c, 5, 69, 0
10, 18480, Note_on_c, 5, 59, 98
10, 18720, Note_on_c, 5, 59, 0
10, 18720, Note_on_c, 5, 60, 98
10, 18840, Note_on_c, 5, 60, 0
10, 18840, Note_on_c, 5, 62, 98
10, 18960, Note_on_c, 5, 62, 0
10, 18960, Note_on_c, 5, 64, 98
10, 19170, Note_on_c, 5, 64, 0
10, 19200, Note_on_c, 5, 64, 110
10, 19680, Note_on_c, 5, 64, 0
10, 19680, Note_on_c, 5, 59, 98
10, 19920, Note_on_c, 5, 59, 0
10, 19920, Note_on_c, 5, 62, 110
10, 20160, Note_on_c, 5, 62, 0
10, 20160, Note_on_c, 5, 71, 110
10, 20400, Note_on_c, 5, 71, 0
10, 20400, Note_on_c, 5, 67, 110
10, 20640, Note_on_c, 5, 67, 0
10, 20640, Note_on_c, 5, 65, 110
10, 20880, Note_on_c, 5, 65, 0
10, 20880, Note_on_c, 5, 64, 98
10, 21120, Note_on_c, 5, 64, 0
10, 21120, Note_on_c, 5, 62, 98
10, 21570, Note_on_c, 5, 62, 0
10, 21600, Note_on_c, 5, 74, 110
10, 21840, Note_on_c, 5, 74, 0
10, 21840, Note_on_c, 5, 72, 98
10, 22320, Note_on_c, 5, 72, 0
10, 22320, Note_on_c, 5, 74, 98
10, 22560, Note_on_c, 5, 74, 0
10, 22560, Note_on_c, 5, 70, 110
10, 22800, Note_on_c, 5, 70, 0
10, 22800, Note_on_c, 5, 71, 98
10, 23040, Note_on_c, 5, 71, 0
10, 23040, Note_on_c, 5, 72, 98
10, 23280, Note_on_c, 5, 72, 0
10, 23280, Note_on_c, 5, 70, 110
10, 23520, Note_on_c, 5, 71, 98
10, 23550, Note_on_c, 5, 70, 0
10, 23760, Note_on_c, 5, 71, 0
10, 23760, Note_on_c, 5, 72, 98
10, 23970, Note_on_c, 5, 72, 0
10, 24000, Note_on_c, 5, 72, 98
10, 24480, Note_on_c, 5, 72, 0
10, 24480, Note_on_c, 5, 74, 98
10, 24690, Note_on_c, 5, 74, 0
10, 24720, Note_on_c, 5, 74, 110
10, 25200, Note_on_c, 5, 74, 0
10, 25200, Note_on_c, 5, 76, 98
10, 25410, Note_on_c, 5, 76, 0
10, 25440, Note_on_c, 5, 76, 110
10, 25530, Note_on_c, 5, 76, 0
10, 25560, Note_on_c, 5, 76, 110
10, 25920, Note_on_c, 5, 76, 0
10, 26040, Note_on_c, 5, 71, 110
10, 26250, Note_on_c, 5, 71, 0
10, 26280, Note_on_c, 5, 71, 110
10, 26490, Note_on_c, 5, 71, 0
10, 26520, Note_on_c, 5, 71, 110
10, 26610, Note_on_c, 5, 71, 0
10, 26640, Note_on_c, 5, 71, 110
10, 26730, Note_on_c, 5, 71, 0
10, 26760, Note_on_c, 5, 71, 98
10, 26850, Note_on_c, 5, 71, 0
10, 26880, Note_on_c, 5, 71, 98
10, 27090, Note_on_c, 5, 71, 0
10, 27120, Note_on_c, 5, 71, 98
10, 27330, Note_on_c, 5, 71, 0
10, 27360, Note_on_c, 5, 71, 98
10, 27810, Note_on_c, 5, 71, 0
10, 27840, Note_on_c, 5, 71, 110
10, 28050, Note_on_c, 5, 71, 0
10, 28080, Note_on_c, 5, 71, 98
10, 28290, Note_on_c, 5, 71, 0
10, 28320, Note_on_c, 5, 71, 98
10, 28530, Note_on_c, 5, 71, 0
10, 28560, Note_on_c, 5, 71, 98
10, 28770, Note_on_c, 5, 71, 0
10, 28800, Note_on_c, 5, 71, 110
10, 29280, Note_on_c, 5, 71, 0
10, 29280, Note_on_c, 5, 72, 98
10, 29520, Note_on_c, 5, 72, 0
10, 29520, Note_on_c, 5, 74, 110
10, 29760, Note_on_c, 5, 74, 0
10, 29760, Note_on_c, 5, 72, 98
10, 30000, Note_on_c, 5, 72, 0
10, 30000, Note_on_c, 5, 74, 98
10, 30240, Note_on_c, 5, 74, 0
10, 30240, Note_on_c, 5, 72, 98
10, 30480, Note_on_c, 5, 72, 0
10, 30480, Note_on_c, 5, 74, 110
10, 30720, Note_on_c, 5, 74, 0
10, 30720, Note_on_c, 5, 72, 110
10, 31200, Note_on_c, 5, 72, 0
10, 31200, Note_on_c, 5, 74, 110
10, 31680, Note_on_c, 5, 74, 0
10, 31680, Note_on_c, 5, 72, 98
10, 31890, Note_on_c, 5, 72, 0
10, 31920, Note_on_c, 5, 72, 110
10, 32010, Note_on_c, 5, 72, 0
10, 32040, Note_on_c, 5, 72, 110
10, 32130, Note_on_c, 5, 72, 0
10, 32160, Note_on_c, 5, 72, 110
10, 32610, Note_on_c, 5, 72, 0
10, 32640, Note_on_c, 5, 72, 110
10, 32790, Note_on_c, 5, 72, 0
10, 32880, Note_on_c, 5, 72, 110
10, 33120, Note_on_c, 5, 72, 0
10, 33120, Note_on_c, 5, 74, 110
10, 33330, Note_on_c, 5, 74, 0
10, 33390, Note_on_c, 5, 74, 124
10, 34320, Note_on_c, 5, 74, 0
10, 34320, End_track
11, 0, Start_track
11, 0, MIDI_port, 0
11, 0, Title_t, "tenor"
11, 0, Control_c, 5, 7, 127
11, 0, Control_c, 5, 10, 21
11, 9240, Note_on_c, 5, 55, 88
11, 9360, Note_on_c, 5, 55, 0
11, 9360, Note_on_c, 5, 57, 110
11, 9600, Note_on_c, 5, 57, 0
11, 9600, Note_on_c, 5, 59, 88
11, 9720, Note_on_c, 5, 59, 0
11, 9720, Note_on_c, 5, 60, 98
11, 9840, Note_on_c, 5, 60, 0
11, 9840, Note_on_c, 5, 62, 98
11, 9960, Note_on_c, 5, 62, 0
11, 9960, Note_on_c, 5, 60, 98
11, 10080, Note_on_c, 5, 60, 0
11, 10080, Note_on_c, 5, 59, 98
11, 10320, Note_on_c, 5, 59, 0
11, 10320, Note_on_c, 5, 65, 110
11, 10680, Note_on_c, 5, 65, 0
11, 10680, Note_on_c, 5, 67, 98
11, 11040, Note_on_c, 5, 67, 0
11, 15720, Note_on_c, 5, 64, 110
11, 15930, Note_on_c, 5, 64, 0
11, 15960, Note_on_c, 5, 64, 98
11, 16170, Note_on_c, 5, 64, 0
11, 16200, Note_on_c, 5, 64, 98
11, 16260, Note_on_c, 5, 64, 0
11, 16320, Note_on_c, 5, 64, 110
11, 16410, Note_on_c, 5, 64, 0
11, 16440, Note_on_c, 5, 64, 98
11, 16530, Note_on_c, 5, 64, 0
11, 16560, Note_on_c, 5, 64, 110
11, 16650, Note_on_c, 5, 64, 0
11, 16680, Note_on_c, 5, 64, 98
11, 16770, Note_on_c, 5, 64, 0
11, 16800, Note_on_c, 5, 64, 110
11, 17280, Note_on_c, 5, 64, 0
11, 20160, Note_on_c, 5, 59, 110
11, 20760, Note_on_c, 5, 59, 0
11, 20760, Note_on_c, 5, 60, 98
11, 20880, Note_on_c, 5, 60, 0
11, 20880, Note_on_c, 5, 62, 98
11, 21090, Note_on_c, 5, 62, 0
11, 21120, Note_on_c, 5, 62, 110
11, 21540, Note_on_c, 5, 62, 0
11, 21600, Note_on_c, 5, 62, 110
11, 21810, Note_on_c, 5, 62, 0
11, 21840, Note_on_c, 5, 62, 110
11, 22290, Note_on_c, 5, 62, 0
11, 22320, Note_on_c, 5, 62, 110
11, 22530, Note_on_c, 5, 62, 0
11, 22560, Note_on_c, 5, 63, 98
11, 22800, Note_on_c, 5, 63, 0
11, 22800, Note_on_c, 5, 62, 98
11, 23040, Note_on_c, 5, 62, 0
11, 23040, Note_on_c, 5, 67, 110
11, 23280, Note_on_c, 5, 67, 0
11, 23280, Note_on_c, 5, 63, 110
11, 23520, Note_on_c, 5, 63, 0
11, 23520, Note_on_c, 5, 62, 110
11, 23760, Note_on_c, 5, 62, 0
11, 23760, Note_on_c, 5, 67, 98
11, 24000, Note_on_c, 5, 67, 0
11, 24000, Note_on_c, 5, 65, 110
11, 24450, Note_on_c, 5, 65, 0
11, 24480, Note_on_c, 5, 65, 110
11, 24720, Note_on_c, 5, 65, 0
11, 24720, Note_on_c, 5, 66, 124
11, 25200, Note_on_c, 5, 66, 0
11, 25200, Note_on_c, 5, 67, 110
11, 25440, Note_on_c, 5, 67, 0
11, 25440, Note_on_c, 5, 64, 110
11, 25530, Note_on_c, 5, 64, 0
11, 25560, Note_on_c, 5, 64, 110
11, 25920, Note_on_c, 5, 64, 0
11, 26040, Note_on_c, 5, 64, 110
11, 26250, Note_on_c, 5, 64, 0
11, 26280, Note_on_c, 5, 64, 110
11, 26490, Note_on_c, 5, 64, 0
11, 26520, Note_on_c, 5, 64, 110
11, 26610, Note_on_c, 5, 64, 0
11, 26640, Note_on_c, 5, 64, 110
11, 26730, Note_on_c, 5, 64, 0
11, 26760, Note_on_c, 5, 64, 110
11, 26820, Note_on_c, 5, 64, 0
11, 26880, Note_on_c, 5, 64, 110
11, 27000, Note_on_c, 5, 64, 0
11, 27000, Note_on_c, 5, 65, 98
11, 27090, Note_on_c, 5, 65, 0
11, 27120, Note_on_c, 5, 65, 110
11, 27360, Note_on_c, 5, 65, 0
11, 27360, Note_on_c, 5, 64, 110
11, 27570, Note_on_c, 5, 64, 0
11, 27600, Note_on_c, 5, 64, 98
11, 27720, Note_on_c, 5, 64, 0
11, 27720, Note_on_c, 5, 65, 110
11, 27810, Note_on_c, 5, 65, 0
11, 27840, Note_on_c, 5, 65, 110
11, 27960, Note_on_c, 5, 65, 0
11, 27960, Note_on_c, 5, 64, 98
11, 28050, Note_on_c, 5, 64, 0
11, 28080, Note_on_c, 5, 64, 110
11, 28200, Note_on_c, 5, 64, 0
11, 28200, Note_on_c, 5, 65, 110
11, 28290, Note_on_c, 5, 65, 0
11, 28320, Note_on_c, 5, 65, 110
11, 28440, Note_on_c, 5, 65, 0
11, 28440, Note_on_c, 5, 64, 98
11, 28530, Note_on_c, 5, 64, 0
11, 28560, Note_on_c, 5, 64, 110
11, 28680, Note_on_c, 5, 64, 0
11, 28680, Note_on_c, 5, 65, 110
11, 28770, Note_on_c, 5, 65, 0
11, 28800, Note_on_c, 5, 65, 110
11, 29250, Note_on_c, 5, 65, 0
11, 29280, Note_on_c, 5, 65, 110
11, 29490, Note_on_c, 5, 65, 0
11, 29520, Note_on_c, 5, 65, 110
11, 29760, Note_on_c, 5, 65, 0
11, 29760, Note_on_c, 5, 64, 98
11, 30000, Note_on_c, 5, 64, 0
11, 30000, Note_on_c, 5, 65, 110
11, 30240, Note_on_c, 5, 65, 0
11, 30240, Note_on_c, 5, 64, 98
11, 30480, Note_on_c, 5, 64, 0
11, 30480, Note_on_c, 5, 65, 110
11, 30720, Note_on_c, 5, 65, 0
11, 30720, Note_on_c, 5, 64, 98
11, 31200, Note_on_c, 5, 64, 0
11, 31200, Note_on_c, 5, 65, 110
11, 31650, Note_on_c, 5, 65, 0
11, 31680, Note_on_c, 5, 65, 124
11, 31890, Note_on_c, 5, 65, 0
11, 31920, Note_on_c, 5, 65, 124
11, 32010, Note_on_c, 5, 65, 0
11, 32040, Note_on_c, 5, 65, 124
11, 32130, Note_on_c, 5, 65, 0
11, 32160, Note_on_c, 5, 65, 110
11, 32610, Note_on_c, 5, 65, 0
11, 32640, Note_on_c, 5, 65, 124
11, 32850, Note_on_c, 5, 65, 0
11, 32880, Note_on_c, 5, 65, 124
11, 33120, Note_on_c, 5, 65, 0
11, 33120, Note_on_c, 5, 67, 110
11, 33300, Note_on_c, 5, 67, 0
11, 33360, Note_on_c, 5, 67, 110
11, 34320, Note_on_c, 5, 67, 0
11, 34320, End_track
12, 0, Start_track
12, 0, MIDI_port, 0
12, 0, Title_t, "bass"
12, 0, Control_c, 5, 7, 127
12, 0, Control_c, 5, 10, 6
12, 9240, Note_on_c, 5, 55, 110
12, 9330, Note_on_c, 5, 55, 0
12, 9360, Note_on_c, 5, 55, 110
12, 9570, Note_on_c, 5, 55, 0
12, 9600, Note_on_c, 5, 55, 98
12, 9690, Note_on_c, 5, 55, 0
12, 9720, Note_on_c, 5, 55, 98
12, 9810, Note_on_c, 5, 55, 0
12, 9840, Note_on_c, 5, 55, 98
12, 9930, Note_on_c, 5, 55, 0
12, 9960, Note_on_c, 5, 55, 98
12, 10050, Note_on_c, 5, 55, 0
12, 10080, Note_on_c, 5, 55, 98
12, 10320, Note_on_c, 5, 55, 0
12, 10320, Note_on_c, 5, 55, 88
12, 10650, Note_on_c, 5, 55, 0
12, 10680, Note_on_c, 5, 55, 110
12, 11040, Note_on_c, 5, 55, 0
12, 17520, Note_on_c, 5, 47, 98
12, 18000, Note_on_c, 5, 47, 0
12, 18000, Note_on_c, 5, 59, 98
12, 18240, Note_on_c, 5, 59, 0
12, 18240, Note_on_c, 5, 57, 98
12, 18480, Note_on_c, 5, 57, 0
12, 18480, Note_on_c, 5, 47, 98
12, 18720, Note_on_c, 5, 47, 0
12, 18720, Note_on_c, 5, 48, 98
12, 18840, Note_on_c, 5, 48, 0
12, 18840, Note_on_c, 5, 50, 98
12, 18960, Note_on_c, 5, 50, 0
12, 18960, Note_on_c, 5, 52, 98
12, 19200, Note_on_c, 5, 52, 0
12, 19200, Note_on_c, 5, 52, 110
12, 19650, Note_on_c, 5, 52, 0
12, 19680, Note_on_c, 5, 52, 98
12, 19920, Note_on_c, 5, 52, 0
12, 19920, Note_on_c, 5, 57, 110
12, 20160, Note_on_c, 5, 57, 0
12, 20160, Note_on_c, 5, 59, 98
12, 20400, Note_on_c, 5, 59, 0
12, 20400, Note_on_c, 5, 60, 110
12, 20640, Note_on_c, 5, 60, 0
12, 20640, Note_on_c, 5, 48, 98
12, 20880, Note_on_c, 5, 48, 0
12, 20880, Note_on_c, 5, 57, 98
12, 21090, Note_on_c, 5, 57, 0
12, 21120, Note_on_c, 5, 57, 98
12, 21570, Note_on_c, 5, 57, 0
12, 21600, Note_on_c, 5, 57, 110
12, 21840, Note_on_c, 5, 57, 0
12, 21840, Note_on_c, 5, 50, 98
12, 22080, Note_on_c, 5, 50, 0
12, 22080, Note_on_c, 5, 53, 98
12, 22320, Note_on_c, 5, 53, 0
12, 22320, Note_on_c, 5, 62, 98
12, 22530, Note_on_c, 5, 62, 0
12, 22560, Note_on_c, 5, 62, 110
12, 22920, Note_on_c, 5, 62, 0
12, 22920, Note_on_c, 5, 51, 110
12, 23040, Note_on_c, 5, 51, 0
12, 23040, Note_on_c, 5, 53, 98
12, 23280, Note_on_c, 5, 53, 0
12, 23280, Note_on_c, 5, 62, 98
12, 23520, Note_on_c, 5, 62, 0
12, 23520, Note_on_c, 5, 51, 110
12, 23760, Note_on_c, 5, 51, 0
12, 23760, Note_on_c, 5, 53, 98
12, 24000, Note_on_c, 5, 53, 0
12, 24000, Note_on_c, 5, 60, 110
12, 24240, Note_on_c, 5, 60, 0
12, 24240, Note_on_c, 5, 50, 98
12, 24480, Note_on_c, 5, 50, 0
12, 24480, Note_on_c, 5, 59, 98
12, 24690, Note_on_c, 5, 59, 0
12, 24720, Note_on_c, 5, 59, 110
12, 24960, Note_on_c, 5, 59, 0
12, 24960, Note_on_c, 5, 48, 110
12, 25200, Note_on_c, 5, 48, 0
12, 25200, Note_on_c, 5, 57, 110
12, 25440, Note_on_c, 5, 57, 0
12, 25440, Note_on_c, 5, 59, 110
12, 25530, Note_on_c, 5, 59, 0
12, 25560, Note_on_c, 5, 59, 110
12, 25950, Note_on_c, 5, 59, 0
12, 26040, Note_on_c, 5, 52, 98
12, 26250, Note_on_c, 5, 52, 0
12, 26280, Note_on_c, 5, 52, 98
12, 26490, Note_on_c, 5, 52, 0
12, 26520, Note_on_c, 5, 52, 98
12, 26610, Note_on_c, 5, 52, 0
12, 26640, Note_on_c, 5, 52, 110
12, 26730, Note_on_c, 5, 52, 0
12, 26760, Note_on_c, 5, 52, 98
12, 26880, Note_on_c, 5, 52, 0
12, 28440, Note_on_c, 5, 52, 98
12, 28530, Note_on_c, 5, 52, 0
12, 28560, Note_on_c, 5, 52, 110
12, 28770, Note_on_c, 5, 52, 0
12, 28800, Note_on_c, 5, 52, 110
12, 29010, Note_on_c, 5, 52, 0
12, 29040, Note_on_c, 5, 52, 110
12, 29490, Note_on_c, 5, 52, 0
12, 29520, Note_on_c, 5, 52, 110
12, 29760, Note_on_c, 5, 52, 0
12, 29760, Note_on_c, 5, 57, 110
12, 30000, Note_on_c, 5, 57, 0
12, 30000, Note_on_c, 5, 59, 98
12, 30240, Note_on_c, 5, 59, 0
12, 30240, Note_on_c, 5, 60, 98
12, 30480, Note_on_c, 5, 60, 0
12, 30480, Note_on_c, 5, 59, 98
12, 30720, Note_on_c, 5, 59, 0
12, 30720, Note_on_c, 5, 60, 98
12, 30960, Note_on_c, 5, 60, 0
12, 30960, Note_on_c, 5, 57, 110
12, 31200, Note_on_c, 5, 57, 0
12, 31200, Note_on_c, 5, 59, 98
12, 31440, Note_on_c, 5, 59, 0
12, 31440, Note_on_c, 5, 60, 98
12, 31680, Note_on_c, 5, 60, 0
12, 31680, Note_on_c, 5, 62, 98
12, 31890, Note_on_c, 5, 62, 0
12, 31920, Note_on_c, 5, 53, 88
12, 32010, Note_on_c, 5, 53, 0
12, 32040, Note_on_c, 5, 53, 110
12, 32130, Note_on_c, 5, 53, 0
12, 32160, Note_on_c, 5, 53, 110
12, 32610, Note_on_c, 5, 53, 0
12, 32640, Note_on_c, 5, 53, 110
12, 32850, Note_on_c, 5, 53, 0
12, 32880, Note_on_c, 5, 53, 110
12, 33120, Note_on_c, 5, 53, 0
12, 33120, Note_on_c, 5, 55, 110
12, 33330, Note_on_c, 5, 55, 0
12, 33360, Note_on_c, 5, 55, 110
12, 34320, Note_on_c, 5, 55, 0
12, 34320, End_track
13, 0, Start_track
13, 0, MIDI_port, 0
13, 0, Title_t, "-first movement (of 3)"
13, 0, End_track
14, 0, Start_track
14, 0, MIDI_port, 0
14, 0, Title_t, "Symphony of Psalms"
14, 0, End_track
15, 0, Start_track
15, 0, MIDI_port, 0
15, 0, Title_t, "by Igor Stravinsky"
15, 0, End_track
16, 0, Start_track
16, 0, MIDI_port, 0
16, 0, Title_t, "sequenced by"
16, 0, End_track
17, 0, Start_track
17, 0, MIDI_port, 0
17, 0, Title_t, "Michael Petri"
17, 0, End_track
0, 0, End_of_file
