0, 0, Header, 1, 15, 120
1, 0, Start_track
1, 0, Sequencer_specific, 10, 0, 0, 91, 35, 1, 0, 5, 4, 35, 0
1, 0, Title_t, "LITTLE UMBRELLAS"
1, 0, SMPTE_offset, 96, 0, 3, 0, 0
1, 0, MIDI_port, 0
1, 0, Key_signature, -1, "major"
1, 0, Tempo, 451127
1, 0, Time_signature, 4, 2, 24, 8
1, 0, Text_t, "LITTLE UMBRELLAS By the Malice Laugh Virtual Band"
1, 17760, Key_signature, 0, "minor"
1, 21600, Key_signature, 5, "major"
1, 23520, Key_signature, 2, "major"
1, 25440, Key_signature, -1, "major"
1, 27360, Key_signature, -4, "major"
1, 29280, Key_signature, 5, "major"
1, 31200, Key_signature, 2, "major"
1, 33120, Key_signature, -1, "major"
1, 35040, Key_signature, -4, "major"
1, 36960, Key_signature, 0, "minor"
1, 40800, Key_signature, -1, "minor"
1, 40800, End_track
2, 0, Start_track
2, 0, Title_t, "clarinet"
2, 0, MIDI_port, 0
2, 0, Program_c, 0, 71
2, 1, Control_c, 0, 7, 127
2, 2, Control_c, 0, 10, 88
2, 3, Control_c, 0, 91, 39
2, 4, Control_c, 0, 11, 127
2, 2400, Note_on_c, 0, 74, 101
2, 2584, Note_on_c, 0, 73, 101
2, 2594, Note_on_c, 0, 74, 0
2, 2648, Note_on_c, 0, 74, 94
2, 2649, Note_on_c, 0, 73, 0
2, 3198, Note_on_c, 0, 74, 0
2, 3198, Note_on_c, 0, 77, 101
2, 3286, Note_on_c, 0, 76, 101
2, 3296, Note_on_c, 0, 77, 0
2, 3349, Note_on_c, 0, 76, 0
2, 3360, Note_on_c, 0, 76, 94
2, 3390, Note_on_c, 0, 74, 101
2, 3404, Note_on_c, 0, 76, 0
2, 3568, Note_on_c, 0, 73, 101
2, 3569, Note_on_c, 0, 74, 0
2, 3624, Note_on_c, 0, 73, 0
2, 3626, Note_on_c, 0, 74, 84
2, 4214, Note_on_c, 0, 74, 0
2, 4255, Note_on_c, 0, 84, 90
2, 4286, Note_on_c, 0, 85, 101
2, 4287, Note_on_c, 0, 84, 0
2, 4315, Note_on_c, 0, 85, 0
2, 4319, Note_on_c, 0, 86, 88
2, 4396, Note_on_c, 0, 86, 0
2, 4398, Note_on_c, 0, 93, 101
2, 4482, Note_on_c, 0, 91, 101
2, 4485, Note_on_c, 0, 93, 0
2, 4743, Note_on_c, 0, 90, 101
2, 4753, Note_on_c, 0, 91, 0
2, 4796, Note_on_c, 0, 90, 0
2, 4799, Note_on_c, 0, 89, 97
2, 4986, Note_on_c, 0, 88, 80
2, 4991, Note_on_c, 0, 89, 0
2, 5045, Note_on_c, 0, 88, 0
2, 5049, Note_on_c, 0, 89, 84
2, 5230, Note_on_c, 0, 85, 97
2, 5240, Note_on_c, 0, 89, 0
2, 5280, Note_on_c, 0, 85, 0
2, 5286, Note_on_c, 0, 86, 77
2, 5795, Note_on_c, 0, 86, 0
2, 5892, Note_on_c, 0, 80, 101
2, 6006, Note_on_c, 0, 80, 0
2, 6010, Note_on_c, 0, 77, 72
2, 6119, Note_on_c, 0, 77, 0
2, 6125, Note_on_c, 0, 84, 94
2, 6246, Note_on_c, 0, 83, 101
2, 6254, Note_on_c, 0, 84, 0
2, 6553, Note_on_c, 0, 83, 0
2, 6554, Note_on_c, 0, 83, 77
2, 6639, Note_on_c, 0, 81, 88
2, 6644, Note_on_c, 0, 83, 0
2, 6719, Note_on_c, 0, 81, 0
2, 6720, Note_on_c, 0, 86, 101
2, 7129, Note_on_c, 0, 86, 0
2, 7138, Note_on_c, 0, 84, 94
2, 7199, Note_on_c, 0, 84, 0
2, 7204, Note_on_c, 0, 83, 94
2, 7230, Note_on_c, 0, 84, 75
2, 7236, Note_on_c, 0, 83, 0
2, 7320, Note_on_c, 0, 84, 0
2, 7323, Note_on_c, 0, 79, 84
2, 7348, Note_on_c, 0, 81, 88
2, 7358, Note_on_c, 0, 79, 0
2, 7375, Note_on_c, 0, 83, 94
2, 7385, Note_on_c, 0, 81, 0
2, 7508, Note_on_c, 0, 83, 0
2, 7552, Note_on_c, 0, 83, 94
2, 7615, Note_on_c, 0, 81, 90
2, 7639, Note_on_c, 0, 83, 0
2, 7681, Note_on_c, 0, 86, 94
2, 7685, Note_on_c, 0, 81, 0
2, 8004, Note_on_c, 0, 84, 90
2, 8012, Note_on_c, 0, 86, 0
2, 8075, Note_on_c, 0, 86, 84
2, 8085, Note_on_c, 0, 84, 0
2, 8167, Note_on_c, 0, 86, 0
2, 8168, Note_on_c, 0, 83, 101
2, 8279, Note_on_c, 0, 83, 0
2, 8286, Note_on_c, 0, 81, 88
2, 8405, Note_on_c, 0, 81, 0
2, 8406, Note_on_c, 0, 83, 94
2, 8526, Note_on_c, 0, 86, 97
2, 8529, Note_on_c, 0, 83, 0
2, 8651, Note_on_c, 0, 84, 97
2, 8659, Note_on_c, 0, 86, 0
2, 8768, Note_on_c, 0, 82, 82
2, 8775, Note_on_c, 0, 84, 0
2, 8883, Note_on_c, 0, 84, 69
2, 8894, Note_on_c, 0, 82, 0
2, 9009, Note_on_c, 0, 87, 94
2, 9020, Note_on_c, 0, 84, 0
2, 9131, Note_on_c, 0, 86, 90
2, 9134, Note_on_c, 0, 87, 0
2, 9211, Note_on_c, 0, 86, 0
2, 9240, Note_on_c, 0, 73, 101
2, 9359, Note_on_c, 0, 73, 0
2, 9360, Note_on_c, 0, 74, 97
2, 9476, Note_on_c, 0, 74, 0
2, 9480, Note_on_c, 0, 76, 94
2, 9600, Note_on_c, 0, 77, 94
2, 9610, Note_on_c, 0, 76, 0
2, 9720, Note_on_c, 0, 76, 88
2, 9728, Note_on_c, 0, 77, 0
2, 9840, Note_on_c, 0, 77, 97
2, 9842, Note_on_c, 0, 76, 0
2, 9966, Note_on_c, 0, 70, 97
2, 9973, Note_on_c, 0, 77, 0
2, 10085, Note_on_c, 0, 70, 0
2, 10086, Note_on_c, 0, 74, 101
2, 10281, Note_on_c, 0, 73, 101
2, 10290, Note_on_c, 0, 74, 0
2, 10341, Note_on_c, 0, 74, 97
2, 10344, Note_on_c, 0, 73, 0
2, 10824, Note_on_c, 0, 74, 0
2, 10879, Note_on_c, 0, 77, 101
2, 10962, Note_on_c, 0, 76, 101
2, 10971, Note_on_c, 0, 77, 0
2, 11022, Note_on_c, 0, 76, 0
2, 11041, Note_on_c, 0, 76, 82
2, 11068, Note_on_c, 0, 77, 75
2, 11075, Note_on_c, 0, 76, 0
2, 11090, Note_on_c, 0, 74, 90
2, 11097, Note_on_c, 0, 77, 0
2, 11226, Note_on_c, 0, 73, 94
2, 11238, Note_on_c, 0, 74, 0
2, 11284, Note_on_c, 0, 73, 0
2, 11284, Note_on_c, 0, 74, 84
2, 11884, Note_on_c, 0, 74, 0
2, 11945, Note_on_c, 0, 84, 80
2, 11976, Note_on_c, 0, 85, 101
2, 11977, Note_on_c, 0, 84, 0
2, 12008, Note_on_c, 0, 85, 0
2, 12012, Note_on_c, 0, 86, 90
2, 12078, Note_on_c, 0, 86, 0
2, 12084, Note_on_c, 0, 93, 101
2, 12166, Note_on_c, 0, 93, 0
2, 12168, Note_on_c, 0, 91, 101
2, 12434, Note_on_c, 0, 90, 101
2, 12445, Note_on_c, 0, 91, 0
2, 12480, Note_on_c, 0, 90, 0
2, 12486, Note_on_c, 0, 89, 101
2, 12675, Note_on_c, 0, 88, 77
2, 12678, Note_on_c, 0, 89, 0
2, 12728, Note_on_c, 0, 89, 101
2, 12732, Note_on_c, 0, 88, 0
2, 12914, Note_on_c, 0, 85, 101
2, 12927, Note_on_c, 0, 89, 0
2, 12963, Note_on_c, 0, 85, 0
2, 12966, Note_on_c, 0, 86, 84
2, 13455, Note_on_c, 0, 86, 0
2, 13564, Note_on_c, 0, 80, 101
2, 13680, Note_on_c, 0, 80, 0
2, 13683, Note_on_c, 0, 77, 69
2, 13790, Note_on_c, 0, 77, 0
2, 13795, Note_on_c, 0, 84, 101
2, 13926, Note_on_c, 0, 83, 101
2, 13934, Note_on_c, 0, 84, 0
2, 14224, Note_on_c, 0, 83, 0
2, 14245, Note_on_c, 0, 83, 82
2, 14322, Note_on_c, 0, 81, 94
2, 14337, Note_on_c, 0, 83, 0
2, 14407, Note_on_c, 0, 86, 72
2, 14411, Note_on_c, 0, 81, 0
2, 14827, Note_on_c, 0, 84, 90
2, 14845, Note_on_c, 0, 86, 0
2, 14881, Note_on_c, 0, 83, 101
2, 14885, Note_on_c, 0, 84, 0
2, 14912, Note_on_c, 0, 84, 101
2, 14920, Note_on_c, 0, 83, 0
2, 15000, Note_on_c, 0, 84, 0
2, 15005, Note_on_c, 0, 79, 77
2, 15028, Note_on_c, 0, 81, 67
2, 15034, Note_on_c, 0, 79, 0
2, 15053, Note_on_c, 0, 83, 88
2, 15064, Note_on_c, 0, 81, 0
2, 15194, Note_on_c, 0, 83, 0
2, 15207, Note_on_c, 0, 83, 82
2, 15282, Note_on_c, 0, 83, 0
2, 15285, Note_on_c, 0, 81, 94
2, 15360, Note_on_c, 0, 81, 0
2, 15366, Note_on_c, 0, 86, 101
2, 15673, Note_on_c, 0, 84, 101
2, 15676, Note_on_c, 0, 86, 0
2, 15762, Note_on_c, 0, 86, 90
2, 15774, Note_on_c, 0, 84, 0
2, 15845, Note_on_c, 0, 89, 101
2, 15852, Note_on_c, 0, 86, 0
2, 16452, Note_on_c, 0, 92, 101
2, 16453, Note_on_c, 0, 89, 0
2, 16570, Note_on_c, 0, 91, 101
2, 16579, Note_on_c, 0, 92, 0
2, 16693, Note_on_c, 0, 89, 101
2, 16705, Note_on_c, 0, 91, 0
2, 16805, Note_on_c, 0, 89, 0
2, 16806, Note_on_c, 0, 88, 101
2, 17682, Note_on_c, 0, 88, 0
2, 34020, Note_on_c, 0, 77, 127
2, 34049, Note_on_c, 0, 77, 0
2, 34050, Note_on_c, 0, 76, 127
2, 34075, Note_on_c, 0, 79, 101
2, 34079, Note_on_c, 0, 76, 0
2, 34105, Note_on_c, 0, 79, 0
2, 34106, Note_on_c, 0, 76, 97
2, 34135, Note_on_c, 0, 76, 0
2, 34135, Note_on_c, 0, 79, 101
2, 34165, Note_on_c, 0, 79, 0
2, 34165, Note_on_c, 0, 83, 101
2, 34195, Note_on_c, 0, 83, 0
2, 34195, Note_on_c, 0, 86, 101
2, 34225, Note_on_c, 0, 86, 0
2, 34225, Note_on_c, 0, 90, 101
2, 34255, Note_on_c, 0, 90, 0
2, 34256, Note_on_c, 0, 86, 101
2, 34285, Note_on_c, 0, 86, 0
2, 34286, Note_on_c, 0, 83, 101
2, 34315, Note_on_c, 0, 83, 0
2, 34315, Note_on_c, 0, 86, 101
2, 34345, Note_on_c, 0, 86, 0
2, 34345, Note_on_c, 0, 83, 101
2, 34375, Note_on_c, 0, 83, 0
2, 34375, Note_on_c, 0, 79, 72
2, 34919, Note_on_c, 0, 79, 0
2, 35040, Note_on_c, 0, 61, 127
2, 35070, Note_on_c, 0, 70, 94
2, 35076, Note_on_c, 0, 61, 0
2, 35100, Note_on_c, 0, 70, 0
2, 35100, Note_on_c, 0, 75, 113
2, 35130, Note_on_c, 0, 75, 0
2, 35130, Note_on_c, 0, 80, 106
2, 35160, Note_on_c, 0, 80, 0
2, 35160, Note_on_c, 0, 79, 118
2, 35190, Note_on_c, 0, 79, 0
2, 35191, Note_on_c, 0, 77, 110
2, 35220, Note_on_c, 0, 77, 0
2, 35220, Note_on_c, 0, 79, 113
2, 35249, Note_on_c, 0, 82, 110
2, 35250, Note_on_c, 0, 79, 0
2, 35279, Note_on_c, 0, 82, 0
2, 35280, Note_on_c, 0, 80, 113
2, 35310, Note_on_c, 0, 80, 0
2, 35310, Note_on_c, 0, 75, 127
2, 35340, Note_on_c, 0, 75, 0
2, 35340, Note_on_c, 0, 70, 127
2, 35370, Note_on_c, 0, 70, 0
2, 35370, Note_on_c, 0, 65, 100
2, 35401, Note_on_c, 0, 65, 0
2, 35401, Note_on_c, 0, 67, 97
2, 35549, Note_on_c, 0, 67, 0
2, 35552, Note_on_c, 0, 68, 100
2, 35580, Note_on_c, 0, 67, 127
2, 35587, Note_on_c, 0, 68, 0
2, 35605, Note_on_c, 0, 67, 0
2, 35611, Note_on_c, 0, 65, 110
2, 35639, Note_on_c, 0, 67, 127
2, 35645, Note_on_c, 0, 65, 0
2, 35674, Note_on_c, 0, 67, 0
2, 35680, Note_on_c, 0, 68, 100
2, 35723, Note_on_c, 0, 67, 127
2, 35733, Note_on_c, 0, 68, 0
2, 35759, Note_on_c, 0, 67, 0
2, 35764, Note_on_c, 0, 65, 92
2, 35793, Note_on_c, 0, 70, 103
2, 35799, Note_on_c, 0, 65, 0
2, 35820, Note_on_c, 0, 70, 0
2, 35820, Note_on_c, 0, 75, 97
2, 35995, Note_on_c, 0, 75, 0
2, 36000, Note_on_c, 0, 73, 100
2, 36029, Note_on_c, 0, 73, 0
2, 36030, Note_on_c, 0, 75, 100
2, 36059, Note_on_c, 0, 75, 0
2, 36060, Note_on_c, 0, 72, 100
2, 36089, Note_on_c, 0, 72, 0
2, 36090, Note_on_c, 0, 73, 100
2, 36119, Note_on_c, 0, 73, 0
2, 36120, Note_on_c, 0, 70, 89
2, 36149, Note_on_c, 0, 70, 0
2, 36150, Note_on_c, 0, 72, 99
2, 36180, Note_on_c, 0, 72, 0
2, 36180, Note_on_c, 0, 68, 114
2, 36210, Note_on_c, 0, 68, 0
2, 36210, Note_on_c, 0, 70, 104
2, 36240, Note_on_c, 0, 70, 0
2, 36240, Note_on_c, 0, 67, 106
2, 36270, Note_on_c, 0, 67, 0
2, 36270, Note_on_c, 0, 68, 96
2, 36299, Note_on_c, 0, 68, 0
2, 36300, Note_on_c, 0, 65, 91
2, 36330, Note_on_c, 0, 65, 0
2, 36330, Note_on_c, 0, 63, 100
2, 36359, Note_on_c, 0, 63, 0
2, 36360, Note_on_c, 0, 67, 100
2, 36380, Note_on_c, 0, 67, 0
2, 36390, Note_on_c, 0, 70, 107
2, 36420, Note_on_c, 0, 70, 0
2, 36420, Note_on_c, 0, 74, 112
2, 36449, Note_on_c, 0, 74, 0
2, 36450, Note_on_c, 0, 77, 106
2, 36480, Note_on_c, 0, 77, 0
2, 36480, Note_on_c, 0, 81, 117
2, 36599, Note_on_c, 0, 81, 0
2, 36690, Note_on_c, 0, 67, 102
2, 36719, Note_on_c, 0, 67, 0
2, 36719, Note_on_c, 0, 70, 107
2, 36749, Note_on_c, 0, 70, 0
2, 36750, Note_on_c, 0, 74, 112
2, 36779, Note_on_c, 0, 74, 0
2, 36780, Note_on_c, 0, 77, 106
2, 36810, Note_on_c, 0, 77, 0
2, 36810, Note_on_c, 0, 81, 117
2, 36959, Note_on_c, 0, 81, 0
2, 40801, Note_on_c, 0, 74, 127
2, 40980, Note_on_c, 0, 73, 127
2, 40988, Note_on_c, 0, 74, 0
2, 41038, Note_on_c, 0, 74, 127
2, 41045, Note_on_c, 0, 73, 0
2, 41588, Note_on_c, 0, 74, 0
2, 41595, Note_on_c, 0, 77, 127
2, 41679, Note_on_c, 0, 76, 127
2, 41693, Note_on_c, 0, 77, 0
2, 41736, Note_on_c, 0, 76, 0
2, 41757, Note_on_c, 0, 76, 127
2, 41772, Note_on_c, 0, 74, 127
2, 41779, Note_on_c, 0, 76, 0
2, 41939, Note_on_c, 0, 73, 127
2, 41944, Note_on_c, 0, 74, 0
2, 41995, Note_on_c, 0, 73, 0
2, 41997, Note_on_c, 0, 74, 127
2, 42612, Note_on_c, 0, 74, 0
2, 42655, Note_on_c, 0, 72, 127
2, 42691, Note_on_c, 0, 73, 127
2, 42695, Note_on_c, 0, 72, 0
2, 42721, Note_on_c, 0, 73, 0
2, 42729, Note_on_c, 0, 74, 127
2, 42799, Note_on_c, 0, 74, 0
2, 42804, Note_on_c, 0, 81, 127
2, 42887, Note_on_c, 0, 80, 127
2, 42893, Note_on_c, 0, 81, 0
2, 43135, Note_on_c, 0, 79, 127
2, 43144, Note_on_c, 0, 80, 0
2, 43194, Note_on_c, 0, 77, 127
2, 43200, Note_on_c, 0, 79, 0
2, 43381, Note_on_c, 0, 76, 127
2, 43389, Note_on_c, 0, 77, 0
2, 43440, Note_on_c, 0, 77, 127
2, 43445, Note_on_c, 0, 76, 0
2, 43623, Note_on_c, 0, 73, 127
2, 43627, Note_on_c, 0, 77, 0
2, 43683, Note_on_c, 0, 74, 127
2, 43685, Note_on_c, 0, 73, 0
2, 44175, Note_on_c, 0, 74, 0
2, 44284, Note_on_c, 0, 80, 127
2, 44405, Note_on_c, 0, 80, 0
2, 44406, Note_on_c, 0, 77, 113
2, 44516, Note_on_c, 0, 77, 0
2, 44517, Note_on_c, 0, 84, 122
2, 44646, Note_on_c, 0, 83, 127
2, 44652, Note_on_c, 0, 84, 0
2, 44725, Note_on_c, 0, 83, 0
2, 44729, Note_on_c, 0, 86, 127
2, 44803, Note_on_c, 0, 86, 0
2, 44803, Note_on_c, 0, 83, 127
2, 44877, Note_on_c, 0, 83, 0
2, 44880, Note_on_c, 0, 79, 127
2, 45199, Note_on_c, 0, 79, 0
2, 45200, Note_on_c, 0, 77, 127
2, 45282, Note_on_c, 0, 84, 127
2, 45283, Note_on_c, 0, 77, 0
2, 45352, Note_on_c, 0, 84, 0
2, 45357, Note_on_c, 0, 81, 127
2, 45538, Note_on_c, 0, 84, 127
2, 45546, Note_on_c, 0, 81, 0
2, 45593, Note_on_c, 0, 84, 0
2, 45609, Note_on_c, 0, 86, 127
2, 45693, Note_on_c, 0, 85, 127
2, 45707, Note_on_c, 0, 86, 0
2, 45711, Note_on_c, 0, 84, 127
2, 45712, Note_on_c, 0, 85, 0
2, 45724, Note_on_c, 0, 83, 127
2, 45737, Note_on_c, 0, 84, 0
2, 45839, Note_on_c, 0, 83, 0
2, 45840, Note_on_c, 0, 79, 122
2, 46004, Note_on_c, 0, 79, 0
2, 46015, Note_on_c, 0, 74, 92
2, 46057, Note_on_c, 0, 74, 0
2, 46071, Note_on_c, 0, 74, 87
2, 46154, Note_on_c, 0, 65, 113
2, 46161, Note_on_c, 0, 74, 0
2, 46234, Note_on_c, 0, 72, 103
2, 46235, Note_on_c, 0, 65, 0
2, 46306, Note_on_c, 0, 69, 127
2, 46314, Note_on_c, 0, 72, 0
2, 46560, Note_on_c, 0, 67, 122
2, 46569, Note_on_c, 0, 69, 0
2, 46987, Note_on_c, 0, 67, 0
2, 47041, Note_on_c, 0, 83, 127
2, 47168, Note_on_c, 0, 81, 127
2, 47183, Note_on_c, 0, 83, 0
2, 47289, Note_on_c, 0, 78, 113
2, 47295, Note_on_c, 0, 81, 0
2, 47408, Note_on_c, 0, 81, 118
2, 47414, Note_on_c, 0, 78, 0
2, 47529, Note_on_c, 0, 78, 113
2, 47536, Note_on_c, 0, 81, 0
2, 47809, Note_on_c, 0, 81, 122
2, 47825, Note_on_c, 0, 78, 0
2, 48056, Note_on_c, 0, 82, 85
2, 48059, Note_on_c, 0, 81, 0
2, 48062, Note_on_c, 0, 83, 84
2, 48074, Note_on_c, 0, 82, 0
2, 48094, Note_on_c, 0, 85, 84
2, 48112, Note_on_c, 0, 83, 0
2, 48353, Note_on_c, 0, 83, 70
2, 48359, Note_on_c, 0, 85, 0
2, 48379, Note_on_c, 0, 82, 113
2, 48389, Note_on_c, 0, 83, 0
2, 48399, Note_on_c, 0, 81, 82
2, 48404, Note_on_c, 0, 82, 0
2, 48699, Control_c, 0, 11, 127
2, 48717, Control_c, 0, 11, 126
2, 48734, Control_c, 0, 11, 125
2, 48752, Control_c, 0, 11, 124
2, 48769, Control_c, 0, 11, 123
2, 48787, Control_c, 0, 11, 122
2, 48805, Control_c, 0, 11, 121
2, 48822, Control_c, 0, 11, 120
2, 48840, Control_c, 0, 11, 119
2, 48857, Control_c, 0, 11, 118
2, 48875, Control_c, 0, 11, 117
2, 48893, Control_c, 0, 11, 116
2, 48910, Control_c, 0, 11, 115
2, 48928, Control_c, 0, 11, 114
2, 48946, Control_c, 0, 11, 113
2, 48963, Control_c, 0, 11, 112
2, 48981, Control_c, 0, 11, 111
2, 48998, Control_c, 0, 11, 110
2, 49016, Control_c, 0, 11, 109
2, 49034, Control_c, 0, 11, 108
2, 49051, Control_c, 0, 11, 107
2, 49069, Control_c, 0, 11, 106
2, 49086, Control_c, 0, 11, 105
2, 49104, Control_c, 0, 11, 104
2, 49112, Note_on_c, 0, 81, 0
2, 49122, Control_c, 0, 11, 103
2, 49139, Control_c, 0, 11, 102
2, 49157, Control_c, 0, 11, 101
2, 49174, Control_c, 0, 11, 100
2, 49192, Control_c, 0, 11, 99
2, 49210, Control_c, 0, 11, 98
2, 49227, Control_c, 0, 11, 97
2, 49245, Control_c, 0, 11, 96
2, 49263, Control_c, 0, 11, 95
2, 49280, Control_c, 0, 11, 94
2, 49298, Control_c, 0, 11, 93
2, 49315, Control_c, 0, 11, 92
2, 49333, Control_c, 0, 11, 91
2, 49351, Control_c, 0, 11, 90
2, 49359, Control_c, 0, 11, 90
2, 49920, Control_c, 0, 11, 127
2, 49920, End_track
3, 0, Start_track
3, 0, Title_t, "alto sax I"
3, 0, MIDI_port, 0
3, 5, Program_c, 1, 65
3, 6, Control_c, 1, 7, 127
3, 7, Control_c, 1, 10, 51
3, 8, Control_c, 1, 11, 127
3, 9, Control_c, 1, 91, 39
3, 2400, Control_c, 1, 11, 81
3, 2408, Note_on_c, 1, 62, 101
3, 2416, Control_c, 1, 11, 87
3, 2432, Control_c, 1, 11, 93
3, 2448, Control_c, 1, 11, 98
3, 2464, Control_c, 1, 11, 104
3, 2479, Control_c, 1, 11, 110
3, 2495, Control_c, 1, 11, 116
3, 2511, Control_c, 1, 11, 121
3, 2512, Control_c, 1, 11, 120
3, 2514, Control_c, 1, 11, 121
3, 2516, Control_c, 1, 11, 122
3, 2518, Control_c, 1, 11, 123
3, 2519, Control_c, 1, 11, 124
3, 2520, Control_c, 1, 11, 127
3, 2530, Control_c, 1, 11, 127
3, 2573, Note_on_c, 1, 61, 101
3, 2581, Note_on_c, 1, 62, 0
3, 2637, Note_on_c, 1, 62, 94
3, 2638, Note_on_c, 1, 61, 0
3, 2796, Control_c, 1, 1, 0
3, 2809, Control_c, 1, 1, 0
3, 2824, Control_c, 1, 1, 0
3, 2840, Control_c, 1, 1, 0
3, 2855, Control_c, 1, 1, 0
3, 2871, Control_c, 1, 1, 0
3, 2886, Control_c, 1, 1, 0
3, 2902, Control_c, 1, 1, 0
3, 2917, Control_c, 1, 1, 6
3, 2933, Control_c, 1, 1, 12
3, 2948, Control_c, 1, 1, 16
3, 3150, Control_c, 1, 1, 0
3, 3187, Note_on_c, 1, 62, 0
3, 3187, Note_on_c, 1, 65, 101
3, 3275, Note_on_c, 1, 64, 101
3, 3285, Note_on_c, 1, 65, 0
3, 3338, Note_on_c, 1, 64, 0
3, 3360, Note_on_c, 1, 64, 94
3, 3395, Note_on_c, 1, 62, 101
3, 3404, Note_on_c, 1, 64, 0
3, 3559, Note_on_c, 1, 62, 0
3, 3562, Note_on_c, 1, 61, 101
3, 3615, Note_on_c, 1, 62, 84
3, 3618, Note_on_c, 1, 61, 0
3, 3768, Control_c, 1, 1, 0
3, 3784, Control_c, 1, 1, 0
3, 3801, Control_c, 1, 1, 0
3, 3818, Control_c, 1, 1, 0
3, 3835, Control_c, 1, 1, 4
3, 3837, Control_c, 1, 1, 2
3, 3855, Control_c, 1, 1, 12
3, 3858, Control_c, 1, 1, 13
3, 3868, Control_c, 1, 1, 12
3, 4203, Note_on_c, 1, 62, 0
3, 4243, Control_c, 1, 1, 0
3, 4244, Note_on_c, 1, 72, 90
3, 4275, Note_on_c, 1, 73, 101
3, 4279, Note_on_c, 1, 72, 0
3, 4306, Note_on_c, 1, 73, 0
3, 4308, Note_on_c, 1, 74, 88
3, 4387, Note_on_c, 1, 81, 101
3, 4392, Note_on_c, 1, 74, 0
3, 4471, Note_on_c, 1, 79, 101
3, 4474, Note_on_c, 1, 81, 0
3, 4570, Control_c, 1, 1, 0
3, 4587, Control_c, 1, 1, 0
3, 4603, Control_c, 1, 1, 0
3, 4620, Control_c, 1, 1, 0
3, 4636, Control_c, 1, 1, 0
3, 4653, Control_c, 1, 1, 2
3, 4721, Control_c, 1, 1, 0
3, 4732, Note_on_c, 1, 78, 101
3, 4742, Note_on_c, 1, 79, 0
3, 4785, Note_on_c, 1, 78, 0
3, 4788, Note_on_c, 1, 77, 97
3, 4975, Note_on_c, 1, 76, 80
3, 4980, Note_on_c, 1, 77, 0
3, 5034, Note_on_c, 1, 76, 0
3, 5038, Note_on_c, 1, 77, 84
3, 5219, Note_on_c, 1, 73, 97
3, 5229, Note_on_c, 1, 77, 0
3, 5275, Note_on_c, 1, 74, 77
3, 5279, Note_on_c, 1, 73, 0
3, 5509, Control_c, 1, 1, 0
3, 5527, Control_c, 1, 1, 0
3, 5545, Control_c, 1, 1, 0
3, 5562, Control_c, 1, 1, 0
3, 5580, Control_c, 1, 1, 0
3, 5582, Control_c, 1, 1, 0
3, 5599, Control_c, 1, 1, 0
3, 5603, Control_c, 1, 1, 1
3, 5611, Control_c, 1, 1, 6
3, 5615, Control_c, 1, 1, 7
3, 5621, Control_c, 1, 1, 8
3, 5624, Control_c, 1, 1, 9
3, 5784, Note_on_c, 1, 74, 0
3, 5856, Control_c, 1, 1, 0
3, 5881, Note_on_c, 1, 68, 101
3, 5995, Note_on_c, 1, 68, 0
3, 5999, Note_on_c, 1, 65, 72
3, 6108, Note_on_c, 1, 65, 0
3, 6114, Note_on_c, 1, 72, 94
3, 6243, Note_on_c, 1, 72, 0
3, 6246, Note_on_c, 1, 71, 101
3, 6554, Note_on_c, 1, 71, 0
3, 6555, Note_on_c, 1, 71, 101
3, 6623, Note_on_c, 1, 71, 0
3, 6638, Note_on_c, 1, 69, 101
3, 6719, Note_on_c, 1, 69, 0
3, 6731, Note_on_c, 1, 74, 101
3, 6842, Control_c, 1, 1, 0
3, 6857, Control_c, 1, 1, 0
3, 6873, Control_c, 1, 1, 0
3, 6888, Control_c, 1, 1, 0
3, 6904, Control_c, 1, 1, 0
3, 6919, Control_c, 1, 1, 0
3, 6934, Control_c, 1, 1, 0
3, 6950, Control_c, 1, 1, 2
3, 6965, Control_c, 1, 1, 8
3, 6981, Control_c, 1, 1, 13
3, 7126, Control_c, 1, 1, 0
3, 7127, Note_on_c, 1, 72, 94
3, 7140, Note_on_c, 1, 74, 0
3, 7188, Note_on_c, 1, 72, 0
3, 7193, Note_on_c, 1, 71, 94
3, 7219, Note_on_c, 1, 72, 75
3, 7225, Note_on_c, 1, 71, 0
3, 7309, Note_on_c, 1, 72, 0
3, 7312, Note_on_c, 1, 67, 84
3, 7337, Note_on_c, 1, 69, 88
3, 7347, Note_on_c, 1, 67, 0
3, 7364, Note_on_c, 1, 71, 94
3, 7374, Note_on_c, 1, 69, 0
3, 7524, Note_on_c, 1, 71, 0
3, 7530, Note_on_c, 1, 71, 94
3, 7612, Note_on_c, 1, 69, 90
3, 7617, Note_on_c, 1, 71, 0
3, 7679, Note_on_c, 1, 74, 94
3, 7682, Note_on_c, 1, 69, 0
3, 7726, Control_c, 1, 1, 0
3, 7742, Control_c, 1, 1, 0
3, 7758, Control_c, 1, 1, 0
3, 7774, Control_c, 1, 1, 0
3, 7790, Control_c, 1, 1, 0
3, 7806, Control_c, 1, 1, 0
3, 7822, Control_c, 1, 1, 0
3, 7838, Control_c, 1, 1, 0
3, 7854, Control_c, 1, 1, 6
3, 7870, Control_c, 1, 1, 11
3, 7983, Control_c, 1, 1, 0
3, 7993, Note_on_c, 1, 72, 90
3, 8010, Note_on_c, 1, 74, 0
3, 8064, Note_on_c, 1, 74, 84
3, 8074, Note_on_c, 1, 72, 0
3, 8156, Note_on_c, 1, 74, 0
3, 8157, Note_on_c, 1, 71, 101
3, 8275, Note_on_c, 1, 69, 88
3, 8279, Note_on_c, 1, 71, 0
3, 8394, Note_on_c, 1, 69, 0
3, 8395, Note_on_c, 1, 71, 94
3, 8515, Note_on_c, 1, 74, 97
3, 8518, Note_on_c, 1, 71, 0
3, 8640, Note_on_c, 1, 72, 97
3, 8648, Note_on_c, 1, 74, 0
3, 8757, Note_on_c, 1, 70, 82
3, 8764, Note_on_c, 1, 72, 0
3, 8872, Note_on_c, 1, 72, 69
3, 8883, Note_on_c, 1, 70, 0
3, 8998, Note_on_c, 1, 75, 94
3, 9009, Note_on_c, 1, 72, 0
3, 9116, Note_on_c, 1, 74, 90
3, 9122, Control_c, 1, 11, 76
3, 9123, Note_on_c, 1, 75, 0
3, 9138, Control_c, 1, 11, 79
3, 9153, Control_c, 1, 11, 82
3, 9169, Control_c, 1, 11, 85
3, 9184, Control_c, 1, 11, 89
3, 9196, Note_on_c, 1, 74, 0
3, 9200, Control_c, 1, 11, 92
3, 9215, Control_c, 1, 11, 95
3, 9231, Control_c, 1, 11, 98
3, 9240, Note_on_c, 1, 61, 101
3, 9246, Control_c, 1, 11, 101
3, 9262, Control_c, 1, 11, 104
3, 9277, Control_c, 1, 11, 107
3, 9293, Control_c, 1, 11, 110
3, 9308, Control_c, 1, 11, 114
3, 9324, Control_c, 1, 11, 117
3, 9339, Control_c, 1, 11, 120
3, 9354, Control_c, 1, 11, 122
3, 9359, Note_on_c, 1, 61, 0
3, 9360, Note_on_c, 1, 62, 97
3, 9370, Control_c, 1, 11, 125
3, 9375, Control_c, 1, 11, 127
3, 9476, Note_on_c, 1, 62, 0
3, 9477, Note_on_c, 1, 64, 94
3, 9601, Note_on_c, 1, 65, 94
3, 9607, Note_on_c, 1, 64, 0
3, 9722, Note_on_c, 1, 64, 88
3, 9729, Note_on_c, 1, 65, 0
3, 9836, Note_on_c, 1, 65, 97
3, 9844, Note_on_c, 1, 64, 0
3, 9955, Note_on_c, 1, 58, 97
3, 9969, Note_on_c, 1, 65, 0
3, 10074, Note_on_c, 1, 58, 0
3, 10075, Note_on_c, 1, 62, 101
3, 10270, Note_on_c, 1, 61, 101
3, 10279, Note_on_c, 1, 62, 0
3, 10330, Note_on_c, 1, 62, 97
3, 10333, Note_on_c, 1, 61, 0
3, 10486, Control_c, 1, 1, 0
3, 10499, Control_c, 1, 1, 0
3, 10514, Control_c, 1, 1, 0
3, 10530, Control_c, 1, 1, 0
3, 10545, Control_c, 1, 1, 0
3, 10561, Control_c, 1, 1, 0
3, 10576, Control_c, 1, 1, 0
3, 10592, Control_c, 1, 1, 0
3, 10607, Control_c, 1, 1, 6
3, 10623, Control_c, 1, 1, 12
3, 10638, Control_c, 1, 1, 14
3, 10669, Control_c, 1, 1, 16
3, 10813, Note_on_c, 1, 62, 0
3, 10840, Control_c, 1, 1, 0
3, 10868, Note_on_c, 1, 65, 101
3, 10951, Note_on_c, 1, 64, 101
3, 10960, Note_on_c, 1, 65, 0
3, 11011, Note_on_c, 1, 64, 0
3, 11030, Note_on_c, 1, 64, 82
3, 11057, Note_on_c, 1, 65, 75
3, 11064, Note_on_c, 1, 64, 0
3, 11079, Note_on_c, 1, 62, 90
3, 11086, Note_on_c, 1, 65, 0
3, 11215, Note_on_c, 1, 61, 94
3, 11227, Note_on_c, 1, 62, 0
3, 11273, Note_on_c, 1, 61, 0
3, 11273, Note_on_c, 1, 62, 84
3, 11458, Control_c, 1, 1, 0
3, 11474, Control_c, 1, 1, 0
3, 11491, Control_c, 1, 1, 0
3, 11508, Control_c, 1, 1, 0
3, 11525, Control_c, 1, 1, 4
3, 11527, Control_c, 1, 1, 2
3, 11545, Control_c, 1, 1, 12
3, 11548, Control_c, 1, 1, 13
3, 11558, Control_c, 1, 1, 12
3, 11873, Note_on_c, 1, 62, 0
3, 11933, Control_c, 1, 1, 0
3, 11934, Note_on_c, 1, 72, 80
3, 11965, Note_on_c, 1, 73, 101
3, 11969, Note_on_c, 1, 72, 0
3, 12000, Note_on_c, 1, 73, 0
3, 12001, Note_on_c, 1, 74, 90
3, 12073, Note_on_c, 1, 74, 0
3, 12073, Note_on_c, 1, 81, 101
3, 12157, Note_on_c, 1, 79, 101
3, 12169, Note_on_c, 1, 81, 0
3, 12260, Control_c, 1, 1, 0
3, 12277, Control_c, 1, 1, 0
3, 12293, Control_c, 1, 1, 0
3, 12310, Control_c, 1, 1, 0
3, 12326, Control_c, 1, 1, 0
3, 12343, Control_c, 1, 1, 2
3, 12411, Control_c, 1, 1, 0
3, 12423, Note_on_c, 1, 78, 101
3, 12434, Note_on_c, 1, 79, 0
3, 12469, Note_on_c, 1, 78, 0
3, 12475, Note_on_c, 1, 77, 101
3, 12664, Note_on_c, 1, 76, 77
3, 12667, Note_on_c, 1, 77, 0
3, 12717, Note_on_c, 1, 77, 101
3, 12721, Note_on_c, 1, 76, 0
3, 12903, Note_on_c, 1, 73, 101
3, 12916, Note_on_c, 1, 77, 0
3, 12952, Note_on_c, 1, 73, 0
3, 12955, Note_on_c, 1, 74, 84
3, 13199, Control_c, 1, 1, 0
3, 13217, Control_c, 1, 1, 0
3, 13235, Control_c, 1, 1, 0
3, 13252, Control_c, 1, 1, 0
3, 13270, Control_c, 1, 1, 0
3, 13272, Control_c, 1, 1, 0
3, 13289, Control_c, 1, 1, 0
3, 13293, Control_c, 1, 1, 1
3, 13301, Control_c, 1, 1, 6
3, 13305, Control_c, 1, 1, 7
3, 13311, Control_c, 1, 1, 8
3, 13314, Control_c, 1, 1, 9
3, 13444, Note_on_c, 1, 74, 0
3, 13546, Control_c, 1, 1, 0
3, 13558, Note_on_c, 1, 68, 101
3, 13678, Note_on_c, 1, 65, 69
3, 13687, Note_on_c, 1, 68, 0
3, 13796, Note_on_c, 1, 72, 101
3, 13797, Note_on_c, 1, 65, 0
3, 13915, Note_on_c, 1, 71, 101
3, 13935, Note_on_c, 1, 72, 0
3, 14213, Note_on_c, 1, 71, 0
3, 14234, Note_on_c, 1, 71, 82
3, 14311, Note_on_c, 1, 69, 94
3, 14326, Note_on_c, 1, 71, 0
3, 14396, Note_on_c, 1, 74, 72
3, 14400, Note_on_c, 1, 69, 0
3, 14532, Control_c, 1, 1, 0
3, 14547, Control_c, 1, 1, 0
3, 14563, Control_c, 1, 1, 0
3, 14578, Control_c, 1, 1, 0
3, 14594, Control_c, 1, 1, 0
3, 14609, Control_c, 1, 1, 0
3, 14624, Control_c, 1, 1, 0
3, 14640, Control_c, 1, 1, 2
3, 14655, Control_c, 1, 1, 8
3, 14671, Control_c, 1, 1, 13
3, 14816, Control_c, 1, 1, 0
3, 14816, Note_on_c, 1, 72, 90
3, 14834, Note_on_c, 1, 74, 0
3, 14870, Note_on_c, 1, 71, 101
3, 14874, Note_on_c, 1, 72, 0
3, 14901, Note_on_c, 1, 72, 101
3, 14909, Note_on_c, 1, 71, 0
3, 14989, Note_on_c, 1, 72, 0
3, 14994, Note_on_c, 1, 67, 77
3, 15017, Note_on_c, 1, 69, 67
3, 15023, Note_on_c, 1, 67, 0
3, 15042, Note_on_c, 1, 71, 88
3, 15053, Note_on_c, 1, 69, 0
3, 15192, Note_on_c, 1, 71, 0
3, 15208, Note_on_c, 1, 71, 82
3, 15287, Note_on_c, 1, 71, 0
3, 15288, Note_on_c, 1, 69, 94
3, 15355, Note_on_c, 1, 74, 101
3, 15361, Note_on_c, 1, 69, 0
3, 15416, Control_c, 1, 1, 0
3, 15432, Control_c, 1, 1, 0
3, 15448, Control_c, 1, 1, 0
3, 15464, Control_c, 1, 1, 0
3, 15480, Control_c, 1, 1, 0
3, 15496, Control_c, 1, 1, 0
3, 15512, Control_c, 1, 1, 0
3, 15528, Control_c, 1, 1, 0
3, 15544, Control_c, 1, 1, 6
3, 15560, Control_c, 1, 1, 11
3, 15662, Note_on_c, 1, 72, 101
3, 15665, Note_on_c, 1, 74, 0
3, 15673, Control_c, 1, 1, 0
3, 15751, Note_on_c, 1, 74, 90
3, 15763, Note_on_c, 1, 72, 0
3, 15834, Note_on_c, 1, 77, 101
3, 15841, Note_on_c, 1, 74, 0
3, 15886, Control_c, 1, 1, 0
3, 15902, Control_c, 1, 1, 0
3, 15918, Control_c, 1, 1, 0
3, 15934, Control_c, 1, 1, 0
3, 15949, Control_c, 1, 1, 0
3, 15965, Control_c, 1, 1, 0
3, 15981, Control_c, 1, 1, 0
3, 15997, Control_c, 1, 1, 0
3, 16013, Control_c, 1, 1, 0
3, 16029, Control_c, 1, 1, 0
3, 16045, Control_c, 1, 1, 2
3, 16060, Control_c, 1, 1, 6
3, 16076, Control_c, 1, 1, 11
3, 16092, Control_c, 1, 1, 15
3, 16441, Note_on_c, 1, 80, 101
3, 16442, Note_on_c, 1, 77, 0
3, 16445, Control_c, 1, 1, 0
3, 16559, Note_on_c, 1, 79, 101
3, 16568, Note_on_c, 1, 80, 0
3, 16682, Note_on_c, 1, 77, 101
3, 16694, Note_on_c, 1, 79, 0
3, 16794, Note_on_c, 1, 77, 0
3, 16795, Note_on_c, 1, 76, 101
3, 16933, Control_c, 1, 1, 0
3, 16948, Control_c, 1, 1, 0
3, 16964, Control_c, 1, 1, 0
3, 16979, Control_c, 1, 1, 0
3, 16995, Control_c, 1, 1, 0
3, 17010, Control_c, 1, 1, 0
3, 17025, Control_c, 1, 1, 0
3, 17041, Control_c, 1, 1, 0
3, 17056, Control_c, 1, 1, 0
3, 17071, Control_c, 1, 1, 4
3, 17087, Control_c, 1, 1, 8
3, 17100, Control_c, 1, 11, 126
3, 17102, Control_c, 1, 1, 13
3, 17113, Control_c, 1, 1, 12
3, 17115, Control_c, 1, 11, 125
3, 17131, Control_c, 1, 11, 123
3, 17146, Control_c, 1, 11, 122
3, 17161, Control_c, 1, 11, 120
3, 17177, Control_c, 1, 11, 119
3, 17192, Control_c, 1, 11, 117
3, 17207, Control_c, 1, 11, 116
3, 17223, Control_c, 1, 11, 114
3, 17238, Control_c, 1, 11, 113
3, 17253, Control_c, 1, 11, 112
3, 17268, Control_c, 1, 11, 110
3, 17284, Control_c, 1, 11, 109
3, 17299, Control_c, 1, 11, 107
3, 17314, Control_c, 1, 11, 106
3, 17330, Control_c, 1, 11, 104
3, 17345, Control_c, 1, 11, 103
3, 17360, Control_c, 1, 11, 102
3, 17376, Control_c, 1, 11, 100
3, 17391, Control_c, 1, 11, 99
3, 17406, Control_c, 1, 11, 97
3, 17422, Control_c, 1, 11, 96
3, 17437, Control_c, 1, 11, 94
3, 17452, Control_c, 1, 11, 93
3, 17468, Control_c, 1, 11, 91
3, 17483, Control_c, 1, 11, 90
3, 17486, Control_c, 1, 1, 10
3, 17498, Control_c, 1, 11, 89
3, 17501, Control_c, 1, 1, 8
3, 17514, Control_c, 1, 11, 87
3, 17517, Control_c, 1, 1, 6
3, 17529, Control_c, 1, 11, 86
3, 17532, Control_c, 1, 1, 3
3, 17544, Control_c, 1, 11, 84
3, 17547, Control_c, 1, 1, 1
3, 17560, Control_c, 1, 11, 83
3, 17562, Control_c, 1, 1, 0
3, 17575, Control_c, 1, 11, 81
3, 17578, Control_c, 1, 1, 0
3, 17590, Control_c, 1, 11, 80
3, 17593, Control_c, 1, 1, 0
3, 17605, Control_c, 1, 11, 79
3, 17608, Control_c, 1, 1, 0
3, 17621, Control_c, 1, 11, 77
3, 17623, Control_c, 1, 1, 0
3, 17636, Control_c, 1, 11, 76
3, 17639, Control_c, 1, 1, 0
3, 17651, Control_c, 1, 11, 74
3, 17654, Control_c, 1, 1, 0
3, 17667, Control_c, 1, 11, 73
3, 17669, Control_c, 1, 1, 0
3, 17671, Note_on_c, 1, 76, 0
3, 17682, Control_c, 1, 11, 71
3, 17684, Control_c, 1, 1, 0
3, 17697, Control_c, 1, 11, 70
3, 17700, Control_c, 1, 1, 0
3, 17713, Control_c, 1, 11, 68
3, 17726, Control_c, 1, 1, 0
3, 17762, Control_c, 1, 1, 0
3, 17778, Control_c, 1, 1, 0
3, 17778, Control_c, 1, 11, 125
3, 17796, Control_c, 1, 11, 126
3, 17814, Control_c, 1, 11, 127
3, 40797, Note_on_c, 1, 62, 127
3, 40993, Note_on_c, 1, 61, 127
3, 40994, Note_on_c, 1, 62, 0
3, 41037, Note_on_c, 1, 61, 0
3, 41042, Note_on_c, 1, 62, 127
3, 41582, Note_on_c, 1, 62, 0
3, 41592, Note_on_c, 1, 65, 127
3, 41674, Note_on_c, 1, 64, 127
3, 41685, Note_on_c, 1, 65, 0
3, 41728, Note_on_c, 1, 64, 0
3, 41735, Note_on_c, 1, 65, 127
3, 41754, Note_on_c, 1, 64, 100
3, 41764, Note_on_c, 1, 65, 0
3, 41764, Note_on_c, 1, 62, 122
3, 41775, Note_on_c, 1, 64, 0
3, 41948, Note_on_c, 1, 61, 127
3, 41957, Note_on_c, 1, 62, 0
3, 42006, Note_on_c, 1, 62, 127
3, 42007, Note_on_c, 1, 61, 0
3, 42606, Note_on_c, 1, 62, 0
3, 42654, Note_on_c, 1, 60, 113
3, 42694, Note_on_c, 1, 61, 127
3, 42701, Note_on_c, 1, 60, 0
3, 42726, Note_on_c, 1, 61, 0
3, 42732, Note_on_c, 1, 62, 118
3, 42796, Note_on_c, 1, 69, 118
3, 42803, Note_on_c, 1, 62, 0
3, 42879, Note_on_c, 1, 68, 127
3, 42887, Note_on_c, 1, 69, 0
3, 43137, Note_on_c, 1, 67, 77
3, 43148, Note_on_c, 1, 68, 0
3, 43207, Note_on_c, 1, 65, 97
3, 43214, Note_on_c, 1, 67, 0
3, 43387, Note_on_c, 1, 64, 97
3, 43396, Note_on_c, 1, 65, 0
3, 43447, Note_on_c, 1, 65, 101
3, 43455, Note_on_c, 1, 64, 0
3, 43623, Note_on_c, 1, 61, 101
3, 43632, Note_on_c, 1, 65, 0
3, 43680, Note_on_c, 1, 62, 101
3, 43688, Note_on_c, 1, 61, 0
3, 44179, Note_on_c, 1, 62, 0
3, 44281, Note_on_c, 1, 68, 127
3, 44395, Note_on_c, 1, 68, 0
3, 44399, Note_on_c, 1, 65, 90
3, 44508, Note_on_c, 1, 65, 0
3, 44514, Note_on_c, 1, 72, 118
3, 44635, Note_on_c, 1, 71, 127
3, 44643, Note_on_c, 1, 72, 0
3, 45065, Note_on_c, 1, 69, 110
3, 45075, Note_on_c, 1, 71, 0
3, 45118, Note_on_c, 1, 69, 0
3, 45131, Note_on_c, 1, 74, 127
3, 45527, Note_on_c, 1, 72, 118
3, 45540, Note_on_c, 1, 74, 0
3, 45588, Note_on_c, 1, 72, 0
3, 45593, Note_on_c, 1, 71, 118
3, 46004, Note_on_c, 1, 71, 0
3, 46023, Note_on_c, 1, 69, 110
3, 46070, Note_on_c, 1, 74, 118
3, 46076, Note_on_c, 1, 69, 0
3, 46385, Note_on_c, 1, 60, 118
3, 46401, Note_on_c, 1, 74, 0
3, 46465, Note_on_c, 1, 62, 103
3, 46466, Note_on_c, 1, 60, 0
3, 46550, Note_on_c, 1, 62, 0
3, 46560, Note_on_c, 1, 64, 113
3, 46958, Note_on_c, 1, 64, 0
3, 47043, Note_on_c, 1, 71, 127
3, 47160, Note_on_c, 1, 69, 127
3, 47170, Note_on_c, 1, 71, 0
3, 47274, Note_on_c, 1, 69, 0
3, 47280, Note_on_c, 1, 66, 127
3, 47393, Note_on_c, 1, 66, 0
3, 47402, Note_on_c, 1, 69, 118
3, 47516, Note_on_c, 1, 66, 127
3, 47529, Note_on_c, 1, 69, 0
3, 47880, Control_c, 1, 11, 127
3, 47888, Control_c, 1, 11, 126
3, 47903, Control_c, 1, 11, 125
3, 47918, Control_c, 1, 11, 124
3, 47934, Control_c, 1, 11, 123
3, 47949, Control_c, 1, 11, 122
3, 47964, Control_c, 1, 11, 121
3, 47979, Control_c, 1, 11, 119
3, 47995, Control_c, 1, 11, 118
3, 48010, Control_c, 1, 11, 117
3, 48025, Control_c, 1, 11, 116
3, 48040, Control_c, 1, 11, 115
3, 48055, Control_c, 1, 11, 114
3, 48071, Control_c, 1, 11, 113
3, 48086, Control_c, 1, 11, 112
3, 48101, Control_c, 1, 11, 111
3, 48116, Control_c, 1, 11, 110
3, 48132, Control_c, 1, 11, 109
3, 48147, Control_c, 1, 11, 107
3, 48162, Control_c, 1, 11, 106
3, 48177, Control_c, 1, 11, 105
3, 48192, Control_c, 1, 11, 104
3, 48208, Control_c, 1, 11, 103
3, 48223, Control_c, 1, 11, 102
3, 48238, Control_c, 1, 11, 101
3, 48253, Control_c, 1, 11, 100
3, 48269, Control_c, 1, 11, 99
3, 48284, Control_c, 1, 11, 98
3, 48299, Control_c, 1, 11, 97
3, 48314, Control_c, 1, 11, 95
3, 48329, Control_c, 1, 11, 94
3, 48345, Control_c, 1, 11, 93
3, 48360, Control_c, 1, 11, 92
3, 48375, Control_c, 1, 11, 91
3, 48390, Control_c, 1, 11, 90
3, 48406, Control_c, 1, 11, 89
3, 48421, Control_c, 1, 11, 88
3, 48436, Control_c, 1, 11, 87
3, 48451, Control_c, 1, 11, 86
3, 48466, Control_c, 1, 11, 84
3, 48482, Control_c, 1, 11, 83
3, 48497, Control_c, 1, 11, 82
3, 48512, Control_c, 1, 11, 81
3, 48527, Control_c, 1, 11, 80
3, 48543, Control_c, 1, 11, 79
3, 48558, Control_c, 1, 11, 78
3, 48573, Control_c, 1, 11, 77
3, 48588, Control_c, 1, 11, 76
3, 48603, Control_c, 1, 11, 75
3, 48619, Control_c, 1, 11, 74
3, 48634, Control_c, 1, 11, 72
3, 48649, Control_c, 1, 11, 71
3, 48664, Control_c, 1, 11, 70
3, 48680, Control_c, 1, 11, 69
3, 48695, Control_c, 1, 11, 68
3, 48710, Control_c, 1, 11, 67
3, 49113, Note_on_c, 1, 66, 0
3, 49440, Control_c, 1, 11, 127
3, 49440, End_track
4, 0, Start_track
4, 0, Title_t, "alto sax II"
4, 0, MIDI_port, 0
4, 10, Program_c, 2, 65
4, 11, Control_c, 2, 7, 127
4, 12, Control_c, 2, 91, 39
4, 13, Control_c, 2, 10, 119
4, 14, Control_c, 2, 101, 0
4, 15, Control_c, 2, 100, 1
4, 16, Control_c, 2, 6, 66
4, 17, Control_c, 2, 38, 0
4, 18, Control_c, 2, 101, 127
4, 19, Control_c, 2, 100, 127
4, 20, Control_c, 2, 11, 127
4, 2392, Control_c, 2, 11, 81
4, 2400, Note_on_c, 2, 62, 101
4, 2408, Control_c, 2, 11, 87
4, 2424, Control_c, 2, 11, 93
4, 2440, Control_c, 2, 11, 98
4, 2456, Control_c, 2, 11, 104
4, 2471, Control_c, 2, 11, 110
4, 2487, Control_c, 2, 11, 116
4, 2503, Control_c, 2, 11, 121
4, 2504, Control_c, 2, 11, 120
4, 2506, Control_c, 2, 11, 121
4, 2508, Control_c, 2, 11, 122
4, 2510, Control_c, 2, 11, 123
4, 2511, Control_c, 2, 11, 124
4, 2512, Control_c, 2, 11, 127
4, 2522, Control_c, 2, 11, 127
4, 2565, Note_on_c, 2, 61, 101
4, 2573, Note_on_c, 2, 62, 0
4, 2629, Note_on_c, 2, 62, 94
4, 2630, Note_on_c, 2, 61, 0
4, 2788, Control_c, 2, 1, 0
4, 2801, Control_c, 2, 1, 0
4, 2816, Control_c, 2, 1, 0
4, 2832, Control_c, 2, 1, 0
4, 2847, Control_c, 2, 1, 0
4, 2863, Control_c, 2, 1, 0
4, 2878, Control_c, 2, 1, 0
4, 2894, Control_c, 2, 1, 0
4, 2909, Control_c, 2, 1, 6
4, 2925, Control_c, 2, 1, 12
4, 2940, Control_c, 2, 1, 16
4, 3142, Control_c, 2, 1, 0
4, 3179, Note_on_c, 2, 62, 0
4, 3179, Note_on_c, 2, 65, 101
4, 3267, Note_on_c, 2, 64, 101
4, 3277, Note_on_c, 2, 65, 0
4, 3330, Note_on_c, 2, 64, 0
4, 3352, Note_on_c, 2, 64, 94
4, 3387, Note_on_c, 2, 62, 101
4, 3396, Note_on_c, 2, 64, 0
4, 3551, Note_on_c, 2, 62, 0
4, 3554, Note_on_c, 2, 61, 101
4, 3607, Note_on_c, 2, 62, 84
4, 3610, Note_on_c, 2, 61, 0
4, 3760, Control_c, 2, 1, 0
4, 3776, Control_c, 2, 1, 0
4, 3793, Control_c, 2, 1, 0
4, 3810, Control_c, 2, 1, 0
4, 3827, Control_c, 2, 1, 4
4, 3829, Control_c, 2, 1, 2
4, 3847, Control_c, 2, 1, 12
4, 3850, Control_c, 2, 1, 13
4, 3860, Control_c, 2, 1, 12
4, 4195, Note_on_c, 2, 62, 0
4, 4235, Control_c, 2, 1, 0
4, 4249, Note_on_c, 2, 72, 90
4, 4280, Note_on_c, 2, 73, 101
4, 4284, Note_on_c, 2, 72, 0
4, 4311, Note_on_c, 2, 73, 0
4, 4313, Note_on_c, 2, 74, 88
4, 4392, Note_on_c, 2, 81, 101
4, 4397, Note_on_c, 2, 74, 0
4, 4476, Note_on_c, 2, 79, 101
4, 4479, Note_on_c, 2, 81, 0
4, 4562, Control_c, 2, 1, 0
4, 4579, Control_c, 2, 1, 0
4, 4595, Control_c, 2, 1, 0
4, 4612, Control_c, 2, 1, 0
4, 4628, Control_c, 2, 1, 0
4, 4645, Control_c, 2, 1, 2
4, 4713, Control_c, 2, 1, 0
4, 4737, Note_on_c, 2, 78, 101
4, 4747, Note_on_c, 2, 79, 0
4, 4790, Note_on_c, 2, 78, 0
4, 4793, Note_on_c, 2, 77, 97
4, 4980, Note_on_c, 2, 76, 80
4, 4985, Note_on_c, 2, 77, 0
4, 5039, Note_on_c, 2, 76, 0
4, 5043, Note_on_c, 2, 77, 84
4, 5224, Note_on_c, 2, 73, 97
4, 5234, Note_on_c, 2, 77, 0
4, 5280, Note_on_c, 2, 74, 77
4, 5284, Note_on_c, 2, 73, 0
4, 5501, Control_c, 2, 1, 0
4, 5519, Control_c, 2, 1, 0
4, 5537, Control_c, 2, 1, 0
4, 5554, Control_c, 2, 1, 0
4, 5572, Control_c, 2, 1, 0
4, 5574, Control_c, 2, 1, 0
4, 5591, Control_c, 2, 1, 0
4, 5595, Control_c, 2, 1, 1
4, 5603, Control_c, 2, 1, 6
4, 5607, Control_c, 2, 1, 7
4, 5613, Control_c, 2, 1, 8
4, 5616, Control_c, 2, 1, 9
4, 5789, Note_on_c, 2, 74, 0
4, 5848, Control_c, 2, 1, 0
4, 5886, Note_on_c, 2, 68, 101
4, 6000, Note_on_c, 2, 68, 0
4, 6004, Note_on_c, 2, 65, 72
4, 6113, Note_on_c, 2, 65, 0
4, 6119, Note_on_c, 2, 72, 94
4, 6248, Note_on_c, 2, 72, 0
4, 6251, Note_on_c, 2, 71, 101
4, 6559, Note_on_c, 2, 71, 0
4, 6560, Note_on_c, 2, 71, 101
4, 6628, Note_on_c, 2, 71, 0
4, 6643, Note_on_c, 2, 69, 101
4, 6724, Note_on_c, 2, 69, 0
4, 6736, Note_on_c, 2, 74, 101
4, 6834, Control_c, 2, 1, 0
4, 6849, Control_c, 2, 1, 0
4, 6865, Control_c, 2, 1, 0
4, 6880, Control_c, 2, 1, 0
4, 6896, Control_c, 2, 1, 0
4, 6911, Control_c, 2, 1, 0
4, 6926, Control_c, 2, 1, 0
4, 6942, Control_c, 2, 1, 2
4, 6957, Control_c, 2, 1, 8
4, 6973, Control_c, 2, 1, 13
4, 7118, Control_c, 2, 1, 0
4, 7132, Note_on_c, 2, 72, 94
4, 7145, Note_on_c, 2, 74, 0
4, 7193, Note_on_c, 2, 72, 0
4, 7198, Note_on_c, 2, 71, 94
4, 7224, Note_on_c, 2, 72, 75
4, 7230, Note_on_c, 2, 71, 0
4, 7314, Note_on_c, 2, 72, 0
4, 7317, Note_on_c, 2, 67, 84
4, 7342, Note_on_c, 2, 69, 88
4, 7352, Note_on_c, 2, 67, 0
4, 7369, Note_on_c, 2, 71, 94
4, 7379, Note_on_c, 2, 69, 0
4, 7529, Note_on_c, 2, 71, 0
4, 7535, Note_on_c, 2, 71, 94
4, 7617, Note_on_c, 2, 69, 90
4, 7622, Note_on_c, 2, 71, 0
4, 7684, Note_on_c, 2, 74, 94
4, 7687, Note_on_c, 2, 69, 0
4, 7718, Control_c, 2, 1, 0
4, 7734, Control_c, 2, 1, 0
4, 7750, Control_c, 2, 1, 0
4, 7766, Control_c, 2, 1, 0
4, 7782, Control_c, 2, 1, 0
4, 7798, Control_c, 2, 1, 0
4, 7814, Control_c, 2, 1, 0
4, 7830, Control_c, 2, 1, 0
4, 7846, Control_c, 2, 1, 6
4, 7862, Control_c, 2, 1, 11
4, 7975, Control_c, 2, 1, 0
4, 7998, Note_on_c, 2, 72, 90
4, 8015, Note_on_c, 2, 74, 0
4, 8069, Note_on_c, 2, 74, 84
4, 8079, Note_on_c, 2, 72, 0
4, 8161, Note_on_c, 2, 74, 0
4, 8162, Note_on_c, 2, 71, 101
4, 8280, Note_on_c, 2, 69, 88
4, 8284, Note_on_c, 2, 71, 0
4, 8399, Note_on_c, 2, 69, 0
4, 8400, Note_on_c, 2, 71, 94
4, 8520, Note_on_c, 2, 74, 97
4, 8523, Note_on_c, 2, 71, 0
4, 8645, Note_on_c, 2, 72, 97
4, 8653, Note_on_c, 2, 74, 0
4, 8762, Note_on_c, 2, 70, 82
4, 8769, Note_on_c, 2, 72, 0
4, 8877, Note_on_c, 2, 72, 69
4, 8888, Note_on_c, 2, 70, 0
4, 9003, Note_on_c, 2, 75, 94
4, 9014, Note_on_c, 2, 72, 0
4, 9114, Control_c, 2, 11, 76
4, 9121, Note_on_c, 2, 74, 90
4, 9128, Note_on_c, 2, 75, 0
4, 9130, Control_c, 2, 11, 79
4, 9145, Control_c, 2, 11, 82
4, 9161, Control_c, 2, 11, 85
4, 9176, Control_c, 2, 11, 89
4, 9192, Control_c, 2, 11, 92
4, 9201, Note_on_c, 2, 74, 0
4, 9207, Control_c, 2, 11, 95
4, 9223, Control_c, 2, 11, 98
4, 9238, Control_c, 2, 11, 101
4, 9245, Note_on_c, 2, 61, 101
4, 9254, Control_c, 2, 11, 104
4, 9269, Control_c, 2, 11, 107
4, 9285, Control_c, 2, 11, 110
4, 9300, Control_c, 2, 11, 114
4, 9316, Control_c, 2, 11, 117
4, 9331, Control_c, 2, 11, 120
4, 9346, Control_c, 2, 11, 122
4, 9362, Control_c, 2, 11, 125
4, 9364, Note_on_c, 2, 61, 0
4, 9365, Note_on_c, 2, 62, 97
4, 9367, Control_c, 2, 11, 127
4, 9481, Note_on_c, 2, 62, 0
4, 9482, Note_on_c, 2, 64, 94
4, 9606, Note_on_c, 2, 65, 94
4, 9612, Note_on_c, 2, 64, 0
4, 9727, Note_on_c, 2, 64, 88
4, 9734, Note_on_c, 2, 65, 0
4, 9841, Note_on_c, 2, 65, 97
4, 9849, Note_on_c, 2, 64, 0
4, 9960, Note_on_c, 2, 58, 97
4, 9974, Note_on_c, 2, 65, 0
4, 10067, Note_on_c, 2, 62, 101
4, 10079, Note_on_c, 2, 58, 0
4, 10262, Note_on_c, 2, 61, 101
4, 10271, Note_on_c, 2, 62, 0
4, 10322, Note_on_c, 2, 62, 97
4, 10325, Note_on_c, 2, 61, 0
4, 10478, Control_c, 2, 1, 0
4, 10491, Control_c, 2, 1, 0
4, 10506, Control_c, 2, 1, 0
4, 10522, Control_c, 2, 1, 0
4, 10537, Control_c, 2, 1, 0
4, 10553, Control_c, 2, 1, 0
4, 10568, Control_c, 2, 1, 0
4, 10584, Control_c, 2, 1, 0
4, 10599, Control_c, 2, 1, 6
4, 10615, Control_c, 2, 1, 12
4, 10630, Control_c, 2, 1, 14
4, 10661, Control_c, 2, 1, 16
4, 10805, Note_on_c, 2, 62, 0
4, 10832, Control_c, 2, 1, 0
4, 10860, Note_on_c, 2, 65, 101
4, 10943, Note_on_c, 2, 64, 101
4, 10952, Note_on_c, 2, 65, 0
4, 11003, Note_on_c, 2, 64, 0
4, 11022, Note_on_c, 2, 64, 82
4, 11049, Note_on_c, 2, 65, 75
4, 11056, Note_on_c, 2, 64, 0
4, 11071, Note_on_c, 2, 62, 90
4, 11078, Note_on_c, 2, 65, 0
4, 11207, Note_on_c, 2, 61, 94
4, 11219, Note_on_c, 2, 62, 0
4, 11265, Note_on_c, 2, 61, 0
4, 11265, Note_on_c, 2, 62, 84
4, 11450, Control_c, 2, 1, 0
4, 11466, Control_c, 2, 1, 0
4, 11483, Control_c, 2, 1, 0
4, 11500, Control_c, 2, 1, 0
4, 11517, Control_c, 2, 1, 4
4, 11519, Control_c, 2, 1, 2
4, 11537, Control_c, 2, 1, 12
4, 11540, Control_c, 2, 1, 13
4, 11550, Control_c, 2, 1, 12
4, 11865, Note_on_c, 2, 62, 0
4, 11925, Control_c, 2, 1, 0
4, 11926, Note_on_c, 2, 72, 80
4, 11957, Note_on_c, 2, 73, 101
4, 11961, Note_on_c, 2, 72, 0
4, 11992, Note_on_c, 2, 73, 0
4, 11993, Note_on_c, 2, 74, 90
4, 12065, Note_on_c, 2, 74, 0
4, 12065, Note_on_c, 2, 81, 101
4, 12149, Note_on_c, 2, 79, 101
4, 12161, Note_on_c, 2, 81, 0
4, 12252, Control_c, 2, 1, 0
4, 12269, Control_c, 2, 1, 0
4, 12285, Control_c, 2, 1, 0
4, 12302, Control_c, 2, 1, 0
4, 12318, Control_c, 2, 1, 0
4, 12335, Control_c, 2, 1, 2
4, 12403, Control_c, 2, 1, 0
4, 12415, Note_on_c, 2, 78, 101
4, 12426, Note_on_c, 2, 79, 0
4, 12461, Note_on_c, 2, 78, 0
4, 12467, Note_on_c, 2, 77, 101
4, 12656, Note_on_c, 2, 76, 77
4, 12659, Note_on_c, 2, 77, 0
4, 12709, Note_on_c, 2, 77, 101
4, 12713, Note_on_c, 2, 76, 0
4, 12895, Note_on_c, 2, 73, 101
4, 12908, Note_on_c, 2, 77, 0
4, 12944, Note_on_c, 2, 73, 0
4, 12947, Note_on_c, 2, 74, 84
4, 13191, Control_c, 2, 1, 0
4, 13209, Control_c, 2, 1, 0
4, 13227, Control_c, 2, 1, 0
4, 13244, Control_c, 2, 1, 0
4, 13262, Control_c, 2, 1, 0
4, 13264, Control_c, 2, 1, 0
4, 13281, Control_c, 2, 1, 0
4, 13285, Control_c, 2, 1, 1
4, 13293, Control_c, 2, 1, 6
4, 13297, Control_c, 2, 1, 7
4, 13303, Control_c, 2, 1, 8
4, 13306, Control_c, 2, 1, 9
4, 13436, Note_on_c, 2, 74, 0
4, 13538, Control_c, 2, 1, 0
4, 13550, Note_on_c, 2, 68, 101
4, 13670, Note_on_c, 2, 65, 69
4, 13679, Note_on_c, 2, 68, 0
4, 13788, Note_on_c, 2, 72, 101
4, 13789, Note_on_c, 2, 65, 0
4, 13907, Note_on_c, 2, 71, 101
4, 13927, Note_on_c, 2, 72, 0
4, 14205, Note_on_c, 2, 71, 0
4, 14226, Note_on_c, 2, 71, 82
4, 14303, Note_on_c, 2, 69, 94
4, 14318, Note_on_c, 2, 71, 0
4, 14388, Note_on_c, 2, 74, 72
4, 14392, Note_on_c, 2, 69, 0
4, 14524, Control_c, 2, 1, 0
4, 14539, Control_c, 2, 1, 0
4, 14555, Control_c, 2, 1, 0
4, 14570, Control_c, 2, 1, 0
4, 14586, Control_c, 2, 1, 0
4, 14601, Control_c, 2, 1, 0
4, 14616, Control_c, 2, 1, 0
4, 14632, Control_c, 2, 1, 2
4, 14647, Control_c, 2, 1, 8
4, 14663, Control_c, 2, 1, 13
4, 14808, Control_c, 2, 1, 0
4, 14808, Note_on_c, 2, 72, 90
4, 14826, Note_on_c, 2, 74, 0
4, 14862, Note_on_c, 2, 71, 101
4, 14866, Note_on_c, 2, 72, 0
4, 14893, Note_on_c, 2, 72, 101
4, 14901, Note_on_c, 2, 71, 0
4, 14981, Note_on_c, 2, 72, 0
4, 14986, Note_on_c, 2, 67, 77
4, 15009, Note_on_c, 2, 69, 67
4, 15015, Note_on_c, 2, 67, 0
4, 15034, Note_on_c, 2, 71, 88
4, 15045, Note_on_c, 2, 69, 0
4, 15184, Note_on_c, 2, 71, 0
4, 15200, Note_on_c, 2, 71, 82
4, 15279, Note_on_c, 2, 71, 0
4, 15280, Note_on_c, 2, 69, 94
4, 15347, Note_on_c, 2, 74, 101
4, 15353, Note_on_c, 2, 69, 0
4, 15408, Control_c, 2, 1, 0
4, 15424, Control_c, 2, 1, 0
4, 15440, Control_c, 2, 1, 0
4, 15456, Control_c, 2, 1, 0
4, 15472, Control_c, 2, 1, 0
4, 15488, Control_c, 2, 1, 0
4, 15504, Control_c, 2, 1, 0
4, 15520, Control_c, 2, 1, 0
4, 15536, Control_c, 2, 1, 6
4, 15552, Control_c, 2, 1, 11
4, 15654, Note_on_c, 2, 72, 101
4, 15657, Note_on_c, 2, 74, 0
4, 15665, Control_c, 2, 1, 0
4, 15743, Note_on_c, 2, 74, 90
4, 15755, Note_on_c, 2, 72, 0
4, 15826, Note_on_c, 2, 77, 101
4, 15833, Note_on_c, 2, 74, 0
4, 15878, Control_c, 2, 1, 0
4, 15894, Control_c, 2, 1, 0
4, 15910, Control_c, 2, 1, 0
4, 15926, Control_c, 2, 1, 0
4, 15941, Control_c, 2, 1, 0
4, 15957, Control_c, 2, 1, 0
4, 15973, Control_c, 2, 1, 0
4, 15989, Control_c, 2, 1, 0
4, 16005, Control_c, 2, 1, 0
4, 16021, Control_c, 2, 1, 0
4, 16037, Control_c, 2, 1, 2
4, 16052, Control_c, 2, 1, 6
4, 16068, Control_c, 2, 1, 11
4, 16084, Control_c, 2, 1, 15
4, 16433, Note_on_c, 2, 80, 101
4, 16434, Note_on_c, 2, 77, 0
4, 16437, Control_c, 2, 1, 0
4, 16551, Note_on_c, 2, 79, 101
4, 16560, Note_on_c, 2, 80, 0
4, 16674, Note_on_c, 2, 77, 101
4, 16686, Note_on_c, 2, 79, 0
4, 16786, Note_on_c, 2, 77, 0
4, 16787, Note_on_c, 2, 76, 101
4, 16925, Control_c, 2, 1, 0
4, 16940, Control_c, 2, 1, 0
4, 16956, Control_c, 2, 1, 0
4, 16971, Control_c, 2, 1, 0
4, 16987, Control_c, 2, 1, 0
4, 17002, Control_c, 2, 1, 0
4, 17017, Control_c, 2, 1, 0
4, 17033, Control_c, 2, 1, 0
4, 17048, Control_c, 2, 1, 0
4, 17063, Control_c, 2, 1, 4
4, 17079, Control_c, 2, 1, 8
4, 17094, Control_c, 2, 1, 13
4, 17100, Control_c, 2, 11, 126
4, 17105, Control_c, 2, 1, 12
4, 17115, Control_c, 2, 11, 125
4, 17131, Control_c, 2, 11, 123
4, 17146, Control_c, 2, 11, 122
4, 17161, Control_c, 2, 11, 120
4, 17177, Control_c, 2, 11, 119
4, 17192, Control_c, 2, 11, 117
4, 17207, Control_c, 2, 11, 116
4, 17223, Control_c, 2, 11, 114
4, 17238, Control_c, 2, 11, 113
4, 17253, Control_c, 2, 11, 112
4, 17268, Control_c, 2, 11, 110
4, 17284, Control_c, 2, 11, 109
4, 17299, Control_c, 2, 11, 107
4, 17314, Control_c, 2, 11, 106
4, 17330, Control_c, 2, 11, 104
4, 17345, Control_c, 2, 11, 103
4, 17360, Control_c, 2, 11, 102
4, 17376, Control_c, 2, 11, 100
4, 17391, Control_c, 2, 11, 99
4, 17406, Control_c, 2, 11, 97
4, 17422, Control_c, 2, 11, 96
4, 17437, Control_c, 2, 11, 94
4, 17452, Control_c, 2, 11, 93
4, 17468, Control_c, 2, 11, 91
4, 17478, Control_c, 2, 1, 10
4, 17483, Control_c, 2, 11, 90
4, 17493, Control_c, 2, 1, 8
4, 17498, Control_c, 2, 11, 89
4, 17509, Control_c, 2, 1, 6
4, 17514, Control_c, 2, 11, 87
4, 17524, Control_c, 2, 1, 3
4, 17529, Control_c, 2, 11, 86
4, 17539, Control_c, 2, 1, 1
4, 17544, Control_c, 2, 11, 84
4, 17554, Control_c, 2, 1, 0
4, 17560, Control_c, 2, 11, 83
4, 17570, Control_c, 2, 1, 0
4, 17575, Control_c, 2, 11, 81
4, 17585, Control_c, 2, 1, 0
4, 17590, Control_c, 2, 11, 80
4, 17600, Control_c, 2, 1, 0
4, 17605, Control_c, 2, 11, 79
4, 17615, Control_c, 2, 1, 0
4, 17621, Control_c, 2, 11, 77
4, 17631, Control_c, 2, 1, 0
4, 17636, Control_c, 2, 11, 76
4, 17646, Control_c, 2, 1, 0
4, 17651, Control_c, 2, 11, 74
4, 17661, Control_c, 2, 1, 0
4, 17663, Note_on_c, 2, 76, 0
4, 17667, Control_c, 2, 11, 73
4, 17676, Control_c, 2, 1, 0
4, 17682, Control_c, 2, 11, 71
4, 17692, Control_c, 2, 1, 0
4, 17697, Control_c, 2, 11, 70
4, 17713, Control_c, 2, 11, 68
4, 17718, Control_c, 2, 1, 0
4, 17754, Control_c, 2, 1, 0
4, 17770, Control_c, 2, 1, 0
4, 17778, Control_c, 2, 11, 125
4, 17796, Control_c, 2, 11, 126
4, 17814, Control_c, 2, 11, 127
4, 40800, Note_on_c, 2, 62, 101
4, 40996, Note_on_c, 2, 61, 101
4, 40997, Note_on_c, 2, 62, 0
4, 41040, Note_on_c, 2, 61, 0
4, 41045, Note_on_c, 2, 62, 101
4, 41585, Note_on_c, 2, 62, 0
4, 41595, Note_on_c, 2, 65, 101
4, 41677, Note_on_c, 2, 64, 101
4, 41688, Note_on_c, 2, 65, 0
4, 41731, Note_on_c, 2, 64, 0
4, 41738, Note_on_c, 2, 65, 101
4, 41757, Note_on_c, 2, 64, 80
4, 41767, Note_on_c, 2, 65, 0
4, 41767, Note_on_c, 2, 62, 97
4, 41778, Note_on_c, 2, 64, 0
4, 41951, Note_on_c, 2, 61, 101
4, 41960, Note_on_c, 2, 62, 0
4, 42009, Note_on_c, 2, 62, 101
4, 42010, Note_on_c, 2, 61, 0
4, 42609, Note_on_c, 2, 62, 0
4, 42656, Note_on_c, 2, 67, 103
4, 42657, Note_on_c, 2, 60, 90
4, 42690, Note_on_c, 2, 68, 110
4, 42691, Note_on_c, 2, 67, 0
4, 42697, Note_on_c, 2, 61, 101
4, 42704, Note_on_c, 2, 60, 0
4, 42725, Note_on_c, 2, 68, 0
4, 42729, Note_on_c, 2, 61, 0
4, 42730, Note_on_c, 2, 69, 110
4, 42735, Note_on_c, 2, 62, 94
4, 42798, Note_on_c, 2, 69, 0
4, 42799, Note_on_c, 2, 69, 94
4, 42805, Note_on_c, 2, 74, 106
4, 42806, Note_on_c, 2, 62, 0
4, 42882, Note_on_c, 2, 68, 101
4, 42890, Note_on_c, 2, 69, 0
4, 42891, Note_on_c, 2, 74, 0
4, 42892, Note_on_c, 2, 74, 90
4, 43138, Note_on_c, 2, 72, 92
4, 43140, Note_on_c, 2, 67, 77
4, 43151, Note_on_c, 2, 68, 0
4, 43155, Note_on_c, 2, 74, 0
4, 43208, Note_on_c, 2, 72, 0
4, 43209, Note_on_c, 2, 71, 90
4, 43210, Note_on_c, 2, 65, 97
4, 43217, Note_on_c, 2, 67, 0
4, 43390, Note_on_c, 2, 64, 97
4, 43399, Note_on_c, 2, 65, 0
4, 43406, Note_on_c, 2, 71, 0
4, 43450, Note_on_c, 2, 65, 101
4, 43454, Note_on_c, 2, 71, 73
4, 43458, Note_on_c, 2, 64, 0
4, 43626, Note_on_c, 2, 61, 101
4, 43627, Note_on_c, 2, 68, 110
4, 43635, Note_on_c, 2, 65, 0
4, 43641, Note_on_c, 2, 71, 0
4, 43683, Note_on_c, 2, 62, 101
4, 43690, Note_on_c, 2, 69, 113
4, 43691, Note_on_c, 2, 61, 0
4, 43693, Note_on_c, 2, 68, 0
4, 44163, Note_on_c, 2, 69, 0
4, 44182, Note_on_c, 2, 62, 0
4, 44284, Note_on_c, 2, 68, 127
4, 44398, Note_on_c, 2, 68, 0
4, 44402, Note_on_c, 2, 65, 90
4, 44511, Note_on_c, 2, 65, 0
4, 44517, Note_on_c, 2, 72, 118
4, 44638, Note_on_c, 2, 55, 92
4, 44638, Note_on_c, 2, 64, 84
4, 44646, Note_on_c, 2, 72, 0
4, 45103, Note_on_c, 2, 64, 0
4, 45106, Note_on_c, 2, 55, 0
4, 45122, Note_on_c, 2, 53, 100
4, 45122, Note_on_c, 2, 62, 85
4, 45582, Note_on_c, 2, 53, 0
4, 45590, Note_on_c, 2, 62, 0
4, 45601, Note_on_c, 2, 64, 70
4, 45602, Note_on_c, 2, 55, 118
4, 46059, Note_on_c, 2, 64, 0
4, 46063, Note_on_c, 2, 55, 0
4, 46075, Note_on_c, 2, 62, 127
4, 46079, Note_on_c, 2, 53, 122
4, 46379, Note_on_c, 2, 62, 0
4, 46397, Note_on_c, 2, 60, 122
4, 46478, Note_on_c, 2, 62, 122
4, 46479, Note_on_c, 2, 60, 0
4, 46546, Note_on_c, 2, 53, 0
4, 46559, Note_on_c, 2, 62, 0
4, 46561, Note_on_c, 2, 55, 94
4, 46563, Note_on_c, 2, 59, 100
4, 46980, Note_on_c, 2, 55, 0
4, 46986, Note_on_c, 2, 59, 0
4, 47035, Note_on_c, 2, 61, 67
4, 47037, Note_on_c, 2, 57, 70
4, 47523, Note_on_c, 2, 57, 0
4, 47525, Note_on_c, 2, 61, 0
4, 48954, Control_c, 2, 6, 64
4, 48961, Control_c, 2, 101, 0
4, 48962, Control_c, 2, 100, 1
4, 48964, Control_c, 2, 38, 0
4, 48965, Control_c, 2, 101, 127
4, 48966, Control_c, 2, 100, 127
4, 48966, End_track
5, 0, Start_track
5, 0, Title_t, "tenor sax"
5, 0, MIDI_port, 0
5, 20, Program_c, 3, 66
5, 21, Control_c, 3, 7, 127
5, 22, Control_c, 3, 10, 51
5, 23, Control_c, 3, 11, 127
5, 24, Control_c, 3, 91, 39
5, 40806, Note_on_c, 3, 50, 118
5, 40995, Note_on_c, 3, 49, 122
5, 41003, Note_on_c, 3, 50, 0
5, 41049, Note_on_c, 3, 50, 122
5, 41052, Note_on_c, 3, 49, 0
5, 41585, Note_on_c, 3, 50, 0
5, 41602, Note_on_c, 3, 53, 100
5, 41678, Note_on_c, 3, 52, 85
5, 41704, Note_on_c, 3, 53, 0
5, 41731, Note_on_c, 3, 52, 0
5, 41762, Note_on_c, 3, 52, 92
5, 41775, Note_on_c, 3, 50, 106
5, 41786, Note_on_c, 3, 52, 0
5, 41948, Note_on_c, 3, 49, 87
5, 41953, Note_on_c, 3, 50, 0
5, 42009, Note_on_c, 3, 50, 103
5, 42021, Note_on_c, 3, 49, 0
5, 42598, Note_on_c, 3, 50, 0
5, 42645, Note_on_c, 3, 43, 96
5, 42679, Note_on_c, 3, 44, 96
5, 42683, Note_on_c, 3, 43, 0
5, 42720, Note_on_c, 3, 45, 96
5, 42728, Note_on_c, 3, 44, 0
5, 42779, Note_on_c, 3, 45, 0
5, 42780, Note_on_c, 3, 54, 96
5, 42854, Note_on_c, 3, 54, 0
5, 42870, Note_on_c, 3, 52, 96
5, 43156, Note_on_c, 3, 52, 0
5, 43202, Note_on_c, 3, 49, 96
5, 43417, Note_on_c, 3, 49, 0
5, 43440, Note_on_c, 3, 49, 96
5, 43579, Note_on_c, 3, 49, 0
5, 43620, Note_on_c, 3, 44, 92
5, 43680, Note_on_c, 3, 45, 96
5, 43686, Note_on_c, 3, 44, 0
5, 44155, Note_on_c, 3, 45, 0
5, 44282, Note_on_c, 3, 53, 100
5, 44401, Note_on_c, 3, 53, 0
5, 44408, Note_on_c, 3, 48, 100
5, 44527, Note_on_c, 3, 48, 0
5, 44591, Note_on_c, 3, 50, 113
5, 44640, Note_on_c, 3, 52, 77
5, 44646, Note_on_c, 3, 50, 0
5, 44702, Note_on_c, 3, 52, 0
5, 44712, Note_on_c, 3, 62, 97
5, 45056, Note_on_c, 3, 62, 0
5, 45077, Note_on_c, 3, 60, 80
5, 45126, Note_on_c, 3, 60, 0
5, 45144, Note_on_c, 3, 65, 80
5, 45519, Note_on_c, 3, 65, 0
5, 45551, Note_on_c, 3, 50, 113
5, 45600, Note_on_c, 3, 52, 77
5, 45606, Note_on_c, 3, 50, 0
5, 45662, Note_on_c, 3, 52, 0
5, 45672, Note_on_c, 3, 62, 97
5, 46011, Note_on_c, 3, 60, 94
5, 46016, Note_on_c, 3, 62, 0
5, 46062, Note_on_c, 3, 57, 118
5, 46064, Note_on_c, 3, 60, 0
5, 46329, Note_on_c, 3, 57, 0
5, 46403, Note_on_c, 3, 57, 92
5, 46471, Note_on_c, 3, 57, 0
5, 46478, Note_on_c, 3, 60, 122
5, 46565, Note_on_c, 3, 59, 113
5, 46573, Note_on_c, 3, 60, 0
5, 46991, Note_on_c, 3, 59, 0
5, 47047, Note_on_c, 3, 64, 100
5, 47162, Note_on_c, 3, 62, 100
5, 47169, Note_on_c, 3, 64, 0
5, 47286, Note_on_c, 3, 59, 92
5, 47290, Note_on_c, 3, 62, 0
5, 47409, Note_on_c, 3, 62, 94
5, 47411, Note_on_c, 3, 59, 0
5, 47525, Note_on_c, 3, 61, 88
5, 47535, Note_on_c, 3, 62, 0
5, 48555, Control_c, 3, 11, 126
5, 48570, Control_c, 3, 11, 124
5, 48586, Control_c, 3, 11, 122
5, 48601, Control_c, 3, 11, 120
5, 48616, Control_c, 3, 11, 119
5, 48632, Control_c, 3, 11, 117
5, 48647, Control_c, 3, 11, 115
5, 48662, Control_c, 3, 11, 113
5, 48678, Control_c, 3, 11, 111
5, 48693, Control_c, 3, 11, 109
5, 48709, Control_c, 3, 11, 107
5, 48724, Control_c, 3, 11, 106
5, 48739, Control_c, 3, 11, 104
5, 48755, Control_c, 3, 11, 102
5, 48770, Control_c, 3, 11, 100
5, 48785, Control_c, 3, 11, 98
5, 48801, Control_c, 3, 11, 96
5, 48816, Control_c, 3, 11, 95
5, 48831, Control_c, 3, 11, 93
5, 48847, Control_c, 3, 11, 91
5, 48862, Control_c, 3, 11, 89
5, 48877, Control_c, 3, 11, 87
5, 48893, Control_c, 3, 11, 85
5, 48908, Control_c, 3, 11, 83
5, 48923, Control_c, 3, 11, 82
5, 48939, Control_c, 3, 11, 80
5, 48954, Control_c, 3, 11, 78
5, 48970, Control_c, 3, 11, 76
5, 48985, Control_c, 3, 11, 74
5, 49000, Control_c, 3, 11, 72
5, 49016, Control_c, 3, 11, 70
5, 49031, Control_c, 3, 11, 69
5, 49046, Control_c, 3, 11, 67
5, 49062, Control_c, 3, 11, 65
5, 49077, Control_c, 3, 11, 63
5, 49106, Note_on_c, 3, 61, 0
5, 49440, Control_c, 3, 11, 127
5, 49440, End_track
6, 0, Start_track
6, 0, Title_t, "vibes"
6, 0, MIDI_port, 0
6, 25, Program_c, 4, 11
6, 26, Control_c, 4, 7, 127
6, 27, Control_c, 4, 10, 68
6, 28, Control_c, 4, 91, 39
6, 10088, Note_on_c, 4, 62, 127
6, 10275, Note_on_c, 4, 61, 127
6, 10276, Note_on_c, 4, 62, 0
6, 10329, Note_on_c, 4, 62, 127
6, 10333, Note_on_c, 4, 61, 0
6, 10799, Note_on_c, 4, 62, 0
6, 10873, Note_on_c, 4, 65, 113
6, 10955, Note_on_c, 4, 64, 97
6, 10962, Note_on_c, 4, 65, 0
6, 11019, Note_on_c, 4, 64, 0
6, 11049, Note_on_c, 4, 64, 103
6, 11083, Note_on_c, 4, 64, 0
6, 11089, Note_on_c, 4, 62, 118
6, 11194, Note_on_c, 4, 62, 0
6, 11236, Note_on_c, 4, 61, 127
6, 11278, Note_on_c, 4, 61, 0
6, 11291, Note_on_c, 4, 62, 127
6, 11814, Note_on_c, 4, 62, 0
6, 11915, Note_on_c, 4, 63, 94
6, 11918, Note_on_c, 4, 67, 94
6, 11957, Note_on_c, 4, 64, 122
6, 11960, Note_on_c, 4, 63, 0
6, 11960, Note_on_c, 4, 68, 122
6, 11963, Note_on_c, 4, 67, 0
6, 11995, Note_on_c, 4, 64, 0
6, 11997, Note_on_c, 4, 65, 106
6, 11998, Note_on_c, 4, 68, 0
6, 12000, Note_on_c, 4, 69, 106
6, 12052, Note_on_c, 4, 65, 0
6, 12055, Note_on_c, 4, 69, 0
6, 12094, Note_on_c, 4, 72, 113
6, 12097, Note_on_c, 4, 76, 113
6, 12167, Note_on_c, 4, 72, 0
6, 12170, Note_on_c, 4, 76, 0
6, 12175, Note_on_c, 4, 70, 127
6, 12178, Note_on_c, 4, 74, 127
6, 12357, Note_on_c, 4, 70, 0
6, 12360, Note_on_c, 4, 74, 0
6, 12421, Note_on_c, 4, 69, 127
6, 12424, Note_on_c, 4, 73, 127
6, 12474, Note_on_c, 4, 69, 0
6, 12477, Note_on_c, 4, 73, 0
6, 12485, Note_on_c, 4, 68, 127
6, 12488, Note_on_c, 4, 72, 127
6, 12670, Note_on_c, 4, 68, 0
6, 12672, Note_on_c, 4, 67, 122
6, 12673, Note_on_c, 4, 72, 0
6, 12675, Note_on_c, 4, 71, 122
6, 12728, Note_on_c, 4, 68, 127
6, 12730, Note_on_c, 4, 67, 0
6, 12731, Note_on_c, 4, 72, 127
6, 12733, Note_on_c, 4, 71, 0
6, 12846, Note_on_c, 4, 68, 0
6, 12849, Note_on_c, 4, 72, 0
6, 12905, Note_on_c, 4, 64, 127
6, 12908, Note_on_c, 4, 68, 127
6, 12956, Note_on_c, 4, 64, 0
6, 12959, Note_on_c, 4, 68, 0
6, 12965, Note_on_c, 4, 65, 127
6, 12968, Note_on_c, 4, 69, 127
6, 13392, Note_on_c, 4, 65, 0
6, 13395, Note_on_c, 4, 69, 0
6, 13566, Note_on_c, 4, 80, 127
6, 13570, Note_on_c, 4, 72, 127
6, 13679, Note_on_c, 4, 72, 0
6, 13680, Note_on_c, 4, 72, 127
6, 13683, Note_on_c, 4, 80, 0
6, 13683, Note_on_c, 4, 65, 127
6, 13789, Note_on_c, 4, 72, 0
6, 13795, Note_on_c, 4, 65, 0
6, 13800, Note_on_c, 4, 77, 127
6, 13800, Note_on_c, 4, 68, 127
6, 13896, Note_on_c, 4, 68, 0
6, 13901, Note_on_c, 4, 77, 0
6, 13931, Note_on_c, 4, 79, 127
6, 13932, Note_on_c, 4, 71, 127
6, 14298, Note_on_c, 4, 79, 0
6, 14301, Note_on_c, 4, 71, 0
6, 14340, Note_on_c, 4, 76, 127
6, 14341, Note_on_c, 4, 67, 113
6, 14376, Note_on_c, 4, 67, 0
6, 14383, Note_on_c, 4, 76, 0
6, 14398, Note_on_c, 4, 69, 127
6, 14400, Note_on_c, 4, 77, 127
6, 14786, Note_on_c, 4, 69, 0
6, 14795, Note_on_c, 4, 77, 0
6, 14892, Note_on_c, 4, 79, 127
6, 14893, Note_on_c, 4, 71, 127
6, 15247, Note_on_c, 4, 79, 0
6, 15256, Note_on_c, 4, 71, 0
6, 15296, Note_on_c, 4, 76, 100
6, 15298, Note_on_c, 4, 67, 113
6, 15343, Note_on_c, 4, 67, 0
6, 15349, Note_on_c, 4, 76, 0
6, 15372, Note_on_c, 4, 77, 127
6, 15373, Note_on_c, 4, 69, 127
6, 15651, Note_on_c, 4, 77, 0
6, 15655, Note_on_c, 4, 69, 0
6, 15678, Note_on_c, 4, 76, 118
6, 15679, Note_on_c, 4, 67, 113
6, 15738, Note_on_c, 4, 76, 0
6, 15744, Note_on_c, 4, 67, 0
6, 15759, Note_on_c, 4, 77, 106
6, 15760, Note_on_c, 4, 69, 118
6, 15833, Note_on_c, 4, 69, 0
6, 15834, Note_on_c, 4, 77, 0
6, 15840, Note_on_c, 4, 72, 110
6, 15840, Note_on_c, 4, 68, 127
6, 16696, Note_on_c, 4, 68, 0
6, 16698, Note_on_c, 4, 72, 0
6, 16799, Note_on_c, 4, 67, 127
6, 17252, Note_on_c, 4, 67, 0
6, 24720, Note_on_c, 4, 81, 95
6, 24776, Note_on_c, 4, 81, 0
6, 24777, Note_on_c, 4, 81, 95
6, 25229, Note_on_c, 4, 81, 0
6, 27420, Note_on_c, 4, 73, 127
6, 27719, Note_on_c, 4, 73, 0
6, 27720, Note_on_c, 4, 75, 127
6, 28019, Note_on_c, 4, 75, 0
6, 28020, Note_on_c, 4, 77, 122
6, 28340, Note_on_c, 4, 77, 0
6, 28800, Note_on_c, 4, 75, 113
6, 29039, Note_on_c, 4, 75, 0
6, 34080, Note_on_c, 4, 79, 100
6, 34111, Note_on_c, 4, 76, 82
6, 34116, Note_on_c, 4, 79, 0
6, 34140, Note_on_c, 4, 79, 104
6, 34145, Note_on_c, 4, 76, 0
6, 34170, Note_on_c, 4, 83, 108
6, 34176, Note_on_c, 4, 79, 0
6, 34200, Note_on_c, 4, 86, 123
6, 34206, Note_on_c, 4, 83, 0
6, 34230, Note_on_c, 4, 90, 123
6, 34236, Note_on_c, 4, 86, 0
6, 34261, Note_on_c, 4, 86, 112
6, 34266, Note_on_c, 4, 90, 0
6, 34291, Note_on_c, 4, 83, 98
6, 34295, Note_on_c, 4, 86, 0
6, 34320, Note_on_c, 4, 86, 110
6, 34325, Note_on_c, 4, 83, 0
6, 34350, Note_on_c, 4, 83, 93
6, 34356, Note_on_c, 4, 86, 0
6, 34380, Note_on_c, 4, 79, 92
6, 34386, Note_on_c, 4, 83, 0
6, 34529, Note_on_c, 4, 78, 127
6, 34560, Note_on_c, 4, 79, 0
6, 34560, Note_on_c, 4, 76, 127
6, 34565, Note_on_c, 4, 78, 0
6, 34589, Note_on_c, 4, 78, 127
6, 34594, Note_on_c, 4, 76, 0
6, 34619, Note_on_c, 4, 76, 127
6, 34625, Note_on_c, 4, 78, 0
6, 35042, Note_on_c, 4, 76, 0
6, 35042, End_track
7, 0, Start_track
7, 0, Title_t, "clavi"
7, 0, MIDI_port, 0
7, 29, Program_c, 5, 7
7, 30, Control_c, 5, 7, 127
7, 31, Control_c, 5, 10, 44
7, 32, Control_c, 5, 91, 39
7, 11918, Note_on_c, 5, 74, 94
7, 11918, Note_on_c, 5, 67, 94
7, 11947, Note_on_c, 5, 33, 113
7, 11954, Note_on_c, 5, 74, 0
7, 11960, Note_on_c, 5, 68, 122
7, 11960, Note_on_c, 5, 75, 122
7, 11963, Note_on_c, 5, 67, 0
7, 11984, Note_on_c, 5, 33, 0
7, 11984, Note_on_c, 5, 34, 127
7, 11998, Note_on_c, 5, 68, 0
7, 11998, Note_on_c, 5, 75, 0
7, 12000, Note_on_c, 5, 69, 106
7, 12000, Note_on_c, 5, 76, 106
7, 12016, Note_on_c, 5, 34, 0
7, 12022, Note_on_c, 5, 35, 127
7, 12055, Note_on_c, 5, 69, 0
7, 12055, Note_on_c, 5, 76, 0
7, 12097, Note_on_c, 5, 76, 113
7, 12097, Note_on_c, 5, 83, 113
7, 12099, Note_on_c, 5, 41, 103
7, 12101, Note_on_c, 5, 35, 0
7, 12170, Note_on_c, 5, 76, 0
7, 12170, Note_on_c, 5, 83, 0
7, 12178, Note_on_c, 5, 81, 127
7, 12178, Note_on_c, 5, 74, 127
7, 12180, Note_on_c, 5, 40, 113
7, 12192, Note_on_c, 5, 41, 0
7, 12360, Note_on_c, 5, 81, 0
7, 12360, Note_on_c, 5, 74, 0
7, 12424, Note_on_c, 5, 80, 127
7, 12424, Note_on_c, 5, 73, 127
7, 12431, Note_on_c, 5, 38, 127
7, 12433, Note_on_c, 5, 40, 0
7, 12477, Note_on_c, 5, 80, 0
7, 12477, Note_on_c, 5, 73, 0
7, 12488, Note_on_c, 5, 77, 127
7, 12488, Note_on_c, 5, 72, 127
7, 12499, Note_on_c, 5, 37, 127
7, 12507, Note_on_c, 5, 38, 0
7, 12673, Note_on_c, 5, 77, 0
7, 12673, Note_on_c, 5, 72, 0
7, 12675, Note_on_c, 5, 76, 122
7, 12675, Note_on_c, 5, 71, 122
7, 12683, Note_on_c, 5, 36, 106
7, 12685, Note_on_c, 5, 37, 0
7, 12731, Note_on_c, 5, 72, 127
7, 12731, Note_on_c, 5, 77, 127
7, 12733, Note_on_c, 5, 76, 0
7, 12733, Note_on_c, 5, 71, 0
7, 12736, Note_on_c, 5, 36, 0
7, 12738, Note_on_c, 5, 37, 127
7, 12849, Note_on_c, 5, 72, 0
7, 12849, Note_on_c, 5, 77, 0
7, 12907, Note_on_c, 5, 37, 0
7, 12908, Note_on_c, 5, 68, 127
7, 12908, Note_on_c, 5, 73, 127
7, 12917, Note_on_c, 5, 34, 127
7, 12959, Note_on_c, 5, 68, 0
7, 12959, Note_on_c, 5, 73, 0
7, 12964, Note_on_c, 5, 34, 0
7, 12968, Note_on_c, 5, 69, 127
7, 12968, Note_on_c, 5, 74, 127
7, 12975, Note_on_c, 5, 35, 127
7, 13395, Note_on_c, 5, 69, 0
7, 13395, Note_on_c, 5, 74, 0
7, 13461, Note_on_c, 5, 35, 0
7, 13570, Note_on_c, 5, 36, 113
7, 13686, Note_on_c, 5, 32, 110
7, 13687, Note_on_c, 5, 36, 0
7, 13808, Note_on_c, 5, 29, 103
7, 13809, Note_on_c, 5, 32, 0
7, 13924, Note_on_c, 5, 29, 0
7, 13927, Note_on_c, 5, 36, 90
7, 14336, Note_on_c, 5, 36, 0
7, 14336, Note_on_c, 5, 31, 97
7, 14400, Note_on_c, 5, 34, 113
7, 14404, Note_on_c, 5, 31, 0
7, 14840, Note_on_c, 5, 34, 0
7, 14876, Note_on_c, 5, 36, 103
7, 15296, Note_on_c, 5, 36, 0
7, 15297, Note_on_c, 5, 31, 94
7, 15359, Note_on_c, 5, 31, 0
7, 15368, Note_on_c, 5, 34, 127
7, 15844, Note_on_c, 5, 29, 122
7, 15846, Note_on_c, 5, 34, 0
7, 16784, Note_on_c, 5, 29, 0
7, 16797, Note_on_c, 5, 28, 87
7, 16801, Note_on_c, 5, 40, 127
7, 16804, Note_on_c, 5, 40, 0
7, 16805, Note_on_c, 5, 52, 127
7, 16915, Note_on_c, 5, 52, 0
7, 16921, Note_on_c, 5, 53, 109
7, 17040, Note_on_c, 5, 56, 115
7, 17052, Note_on_c, 5, 53, 0
7, 17168, Note_on_c, 5, 56, 0
7, 17169, Note_on_c, 5, 57, 127
7, 17293, Note_on_c, 5, 59, 127
7, 17294, Note_on_c, 5, 57, 0
7, 17411, Note_on_c, 5, 60, 127
7, 17425, Note_on_c, 5, 59, 0
7, 17530, Note_on_c, 5, 62, 127
7, 17533, Note_on_c, 5, 60, 0
7, 17648, Note_on_c, 5, 64, 127
7, 17650, Note_on_c, 5, 62, 0
7, 17713, Note_on_c, 5, 28, 0
7, 17767, Note_on_c, 5, 64, 0
7, 21597, Note_on_c, 5, 76, 69
7, 21600, Note_on_c, 5, 71, 66
7, 21768, Note_on_c, 5, 76, 0
7, 21769, Note_on_c, 5, 71, 0
7, 21776, Note_on_c, 5, 76, 76
7, 21777, Note_on_c, 5, 71, 59
7, 22019, Note_on_c, 5, 71, 0
7, 22025, Note_on_c, 5, 73, 87
7, 22026, Note_on_c, 5, 76, 0
7, 22085, Note_on_c, 5, 74, 106
7, 22088, Note_on_c, 5, 73, 0
7, 22147, Note_on_c, 5, 73, 92
7, 22156, Note_on_c, 5, 74, 0
7, 22202, Note_on_c, 5, 74, 118
7, 22206, Note_on_c, 5, 73, 0
7, 22262, Note_on_c, 5, 73, 87
7, 22271, Note_on_c, 5, 74, 0
7, 22323, Note_on_c, 5, 74, 113
7, 22330, Note_on_c, 5, 73, 0
7, 22381, Note_on_c, 5, 73, 72
7, 22392, Note_on_c, 5, 74, 0
7, 22447, Note_on_c, 5, 74, 106
7, 22454, Note_on_c, 5, 73, 0
7, 22504, Note_on_c, 5, 73, 80
7, 22524, Note_on_c, 5, 74, 0
7, 22547, Note_on_c, 5, 73, 0
7, 22563, Note_on_c, 5, 73, 84
7, 22889, Note_on_c, 5, 73, 0
7, 23520, Note_on_c, 5, 67, 112
7, 23760, Note_on_c, 5, 69, 127
7, 23763, Note_on_c, 5, 67, 0
7, 23786, Note_on_c, 5, 69, 0
7, 23790, Note_on_c, 5, 71, 110
7, 23817, Note_on_c, 5, 71, 0
7, 23820, Note_on_c, 5, 69, 110
7, 24010, Note_on_c, 5, 69, 0
7, 24120, Note_on_c, 5, 69, 127
7, 24179, Note_on_c, 5, 69, 0
7, 24180, Note_on_c, 5, 71, 127
7, 24240, Note_on_c, 5, 72, 127
7, 24250, Note_on_c, 5, 71, 0
7, 24300, Note_on_c, 5, 71, 127
7, 24318, Note_on_c, 5, 72, 0
7, 24350, Note_on_c, 5, 71, 0
7, 24360, Note_on_c, 5, 74, 127
7, 24418, Note_on_c, 5, 74, 0
7, 24420, Note_on_c, 5, 72, 127
7, 24474, Note_on_c, 5, 72, 0
7, 24480, Note_on_c, 5, 76, 127
7, 24783, Note_on_c, 5, 76, 0
7, 24960, Note_on_c, 5, 69, 127
7, 24966, Note_on_c, 5, 57, 127
7, 25020, Note_on_c, 5, 70, 127
7, 25023, Note_on_c, 5, 69, 0
7, 25026, Note_on_c, 5, 58, 127
7, 25029, Note_on_c, 5, 57, 0
7, 25069, Note_on_c, 5, 70, 0
7, 25075, Note_on_c, 5, 58, 0
7, 25077, Note_on_c, 5, 69, 127
7, 25083, Note_on_c, 5, 57, 127
7, 25133, Note_on_c, 5, 70, 127
7, 25139, Note_on_c, 5, 69, 0
7, 25139, Note_on_c, 5, 58, 127
7, 25145, Note_on_c, 5, 57, 0
7, 25181, Note_on_c, 5, 70, 0
7, 25187, Note_on_c, 5, 58, 0
7, 25199, Note_on_c, 5, 65, 127
7, 25205, Note_on_c, 5, 53, 127
7, 25245, Note_on_c, 5, 65, 0
7, 25251, Note_on_c, 5, 53, 0
7, 25251, Note_on_c, 5, 64, 125
7, 25257, Note_on_c, 5, 52, 125
7, 25310, Note_on_c, 5, 64, 0
7, 25316, Note_on_c, 5, 52, 0
7, 25319, Note_on_c, 5, 69, 127
7, 25325, Note_on_c, 5, 57, 127
7, 25385, Note_on_c, 5, 69, 0
7, 25391, Note_on_c, 5, 57, 0
7, 26040, Note_on_c, 5, 67, 127
7, 26100, Note_on_c, 5, 66, 127
7, 26115, Note_on_c, 5, 67, 0
7, 26156, Note_on_c, 5, 66, 0
7, 26160, Note_on_c, 5, 64, 127
7, 26220, Note_on_c, 5, 66, 127
7, 26222, Note_on_c, 5, 64, 0
7, 26272, Note_on_c, 5, 66, 0
7, 26280, Note_on_c, 5, 62, 127
7, 26337, Note_on_c, 5, 62, 0
7, 26340, Note_on_c, 5, 64, 127
7, 26392, Note_on_c, 5, 64, 0
7, 26400, Note_on_c, 5, 66, 127
7, 26404, Note_on_c, 5, 78, 127
7, 26560, Note_on_c, 5, 64, 106
7, 26561, Note_on_c, 5, 66, 0
7, 26564, Note_on_c, 5, 76, 106
7, 26565, Note_on_c, 5, 78, 0
7, 26600, Note_on_c, 5, 66, 122
7, 26604, Note_on_c, 5, 64, 0
7, 26604, Note_on_c, 5, 78, 122
7, 26608, Note_on_c, 5, 76, 0
7, 26640, Note_on_c, 5, 64, 103
7, 26641, Note_on_c, 5, 66, 0
7, 26644, Note_on_c, 5, 76, 103
7, 26645, Note_on_c, 5, 78, 0
7, 26679, Note_on_c, 5, 64, 0
7, 26680, Note_on_c, 5, 66, 122
7, 26683, Note_on_c, 5, 76, 0
7, 26684, Note_on_c, 5, 78, 122
7, 26717, Note_on_c, 5, 66, 0
7, 26720, Note_on_c, 5, 64, 92
7, 26721, Note_on_c, 5, 78, 0
7, 26724, Note_on_c, 5, 76, 92
7, 26760, Note_on_c, 5, 66, 127
7, 26762, Note_on_c, 5, 64, 0
7, 26764, Note_on_c, 5, 78, 127
7, 26766, Note_on_c, 5, 76, 0
7, 26790, Note_on_c, 5, 66, 0
7, 26790, Note_on_c, 5, 67, 77
7, 26794, Note_on_c, 5, 78, 0
7, 26794, Note_on_c, 5, 79, 77
7, 26820, Note_on_c, 5, 66, 92
7, 26824, Note_on_c, 5, 78, 92
7, 26830, Note_on_c, 5, 67, 0
7, 26834, Note_on_c, 5, 79, 0
7, 26849, Note_on_c, 5, 66, 0
7, 26850, Note_on_c, 5, 64, 84
7, 26853, Note_on_c, 5, 78, 0
7, 26854, Note_on_c, 5, 76, 84
7, 26880, Note_on_c, 5, 66, 118
7, 26884, Note_on_c, 5, 78, 118
7, 26887, Note_on_c, 5, 64, 0
7, 26891, Note_on_c, 5, 76, 0
7, 26910, Note_on_c, 5, 64, 97
7, 26914, Note_on_c, 5, 76, 97
7, 26922, Note_on_c, 5, 66, 0
7, 26926, Note_on_c, 5, 78, 0
7, 26936, Note_on_c, 5, 64, 0
7, 26940, Note_on_c, 5, 76, 0
7, 26940, Note_on_c, 5, 62, 69
7, 26944, Note_on_c, 5, 74, 69
7, 26970, Note_on_c, 5, 64, 62
7, 26974, Note_on_c, 5, 76, 62
7, 26976, Note_on_c, 5, 62, 0
7, 26980, Note_on_c, 5, 74, 0
7, 27000, Note_on_c, 5, 66, 122
7, 27004, Note_on_c, 5, 64, 0
7, 27004, Note_on_c, 5, 78, 122
7, 27008, Note_on_c, 5, 76, 0
7, 27265, Note_on_c, 5, 66, 0
7, 27269, Note_on_c, 5, 78, 0
7, 27420, Note_on_c, 5, 65, 110
7, 27480, Note_on_c, 5, 64, 113
7, 27487, Note_on_c, 5, 65, 0
7, 27535, Note_on_c, 5, 64, 0
7, 27540, Note_on_c, 5, 65, 66
7, 27600, Note_on_c, 5, 64, 122
7, 27607, Note_on_c, 5, 65, 0
7, 27654, Note_on_c, 5, 64, 0
7, 27660, Note_on_c, 5, 65, 87
7, 27720, Note_on_c, 5, 67, 127
7, 27725, Note_on_c, 5, 65, 0
7, 27777, Note_on_c, 5, 67, 0
7, 27780, Note_on_c, 5, 65, 87
7, 27835, Note_on_c, 5, 65, 0
7, 27840, Note_on_c, 5, 67, 122
7, 27900, Note_on_c, 5, 65, 92
7, 27903, Note_on_c, 5, 67, 0
7, 27960, Note_on_c, 5, 67, 127
7, 27963, Note_on_c, 5, 65, 0
7, 28020, Note_on_c, 5, 68, 80
7, 28022, Note_on_c, 5, 67, 0
7, 28080, Note_on_c, 5, 67, 122
7, 28084, Note_on_c, 5, 68, 0
7, 28140, Note_on_c, 5, 67, 0
7, 28140, Note_on_c, 5, 68, 84
7, 28200, Note_on_c, 5, 67, 127
7, 28203, Note_on_c, 5, 68, 0
7, 28260, Note_on_c, 5, 68, 82
7, 28263, Note_on_c, 5, 67, 0
7, 28317, Note_on_c, 5, 68, 0
7, 28320, Note_on_c, 5, 70, 92
7, 28378, Note_on_c, 5, 70, 0
7, 28380, Note_on_c, 5, 72, 103
7, 28428, Note_on_c, 5, 72, 0
7, 28440, Note_on_c, 5, 70, 113
7, 28529, Note_on_c, 5, 70, 0
7, 28620, Note_on_c, 5, 75, 113
7, 28680, Note_on_c, 5, 73, 97
7, 28694, Note_on_c, 5, 75, 0
7, 28737, Note_on_c, 5, 73, 0
7, 28740, Note_on_c, 5, 72, 84
7, 28809, Note_on_c, 5, 72, 0
7, 29040, Note_on_c, 5, 73, 118
7, 29100, Note_on_c, 5, 72, 94
7, 29101, Note_on_c, 5, 73, 0
7, 29160, Note_on_c, 5, 71, 118
7, 29168, Note_on_c, 5, 72, 0
7, 29213, Note_on_c, 5, 71, 0
7, 29220, Note_on_c, 5, 70, 106
7, 29269, Note_on_c, 5, 70, 0
7, 29282, Note_on_c, 5, 59, 90
7, 29337, Note_on_c, 5, 59, 0
7, 29340, Note_on_c, 5, 64, 94
7, 29406, Note_on_c, 5, 59, 92
7, 29414, Note_on_c, 5, 64, 0
7, 29763, Note_on_c, 5, 59, 0
7, 30060, Note_on_c, 5, 64, 127
7, 30120, Note_on_c, 5, 59, 106
7, 30123, Note_on_c, 5, 64, 0
7, 30180, Note_on_c, 5, 58, 94
7, 30194, Note_on_c, 5, 59, 0
7, 30253, Note_on_c, 5, 58, 0
7, 30300, Note_on_c, 5, 54, 127
7, 30371, Note_on_c, 5, 54, 0
7, 30420, Note_on_c, 5, 54, 127
7, 30481, Note_on_c, 5, 54, 0
7, 30540, Note_on_c, 5, 54, 127
7, 30621, Note_on_c, 5, 54, 0
7, 30660, Note_on_c, 5, 54, 122
7, 30723, Note_on_c, 5, 54, 0
7, 30723, Note_on_c, 5, 58, 122
7, 30783, Note_on_c, 5, 61, 97
7, 30785, Note_on_c, 5, 58, 0
7, 30838, Note_on_c, 5, 59, 127
7, 30850, Note_on_c, 5, 61, 0
7, 30892, Note_on_c, 5, 54, 127
7, 30895, Note_on_c, 5, 59, 0
7, 30960, Note_on_c, 5, 54, 0
7, 30963, Note_on_c, 5, 59, 127
7, 31024, Note_on_c, 5, 61, 103
7, 31025, Note_on_c, 5, 59, 0
7, 31085, Note_on_c, 5, 59, 127
7, 31094, Note_on_c, 5, 61, 0
7, 31236, Note_on_c, 5, 59, 0
7, 31264, Note_on_c, 5, 69, 127
7, 31326, Note_on_c, 5, 69, 0
7, 31387, Note_on_c, 5, 69, 127
7, 31450, Note_on_c, 5, 69, 0
7, 31507, Note_on_c, 5, 69, 127
7, 31568, Note_on_c, 5, 69, 0
7, 31628, Note_on_c, 5, 69, 127
7, 31680, Note_on_c, 5, 67, 106
7, 31683, Note_on_c, 5, 69, 0
7, 31740, Note_on_c, 5, 77, 127
7, 31741, Note_on_c, 5, 67, 0
7, 31798, Note_on_c, 5, 77, 0
7, 31800, Note_on_c, 5, 65, 97
7, 31854, Note_on_c, 5, 65, 0
7, 31860, Note_on_c, 5, 69, 106
7, 31920, Note_on_c, 5, 69, 0
7, 31920, Note_on_c, 5, 67, 118
7, 32091, Note_on_c, 5, 67, 0
7, 32160, Note_on_c, 5, 75, 122
7, 32320, Note_on_c, 5, 73, 97
7, 32323, Note_on_c, 5, 61, 97
7, 32326, Note_on_c, 5, 75, 0
7, 32353, Note_on_c, 5, 73, 0
7, 32356, Note_on_c, 5, 61, 0
7, 32360, Note_on_c, 5, 75, 87
7, 32363, Note_on_c, 5, 63, 87
7, 32400, Note_on_c, 5, 75, 0
7, 32400, Note_on_c, 5, 73, 100
7, 32403, Note_on_c, 5, 63, 0
7, 32403, Note_on_c, 5, 61, 100
7, 32440, Note_on_c, 5, 75, 100
7, 32442, Note_on_c, 5, 73, 0
7, 32443, Note_on_c, 5, 63, 100
7, 32445, Note_on_c, 5, 61, 0
7, 32480, Note_on_c, 5, 73, 110
7, 32483, Note_on_c, 5, 61, 110
7, 32486, Note_on_c, 5, 75, 0
7, 32489, Note_on_c, 5, 63, 0
7, 32514, Note_on_c, 5, 73, 0
7, 32517, Note_on_c, 5, 61, 0
7, 32520, Note_on_c, 5, 75, 127
7, 32523, Note_on_c, 5, 63, 127
7, 32550, Note_on_c, 5, 76, 67
7, 32553, Note_on_c, 5, 64, 67
7, 32560, Note_on_c, 5, 75, 0
7, 32563, Note_on_c, 5, 63, 0
7, 32580, Note_on_c, 5, 75, 118
7, 32583, Note_on_c, 5, 63, 118
7, 32586, Note_on_c, 5, 76, 0
7, 32589, Note_on_c, 5, 64, 0
7, 32610, Note_on_c, 5, 73, 122
7, 32611, Note_on_c, 5, 75, 0
7, 32613, Note_on_c, 5, 61, 122
7, 32614, Note_on_c, 5, 63, 0
7, 32636, Note_on_c, 5, 73, 0
7, 32639, Note_on_c, 5, 61, 0
7, 32640, Note_on_c, 5, 75, 106
7, 32643, Note_on_c, 5, 63, 106
7, 32670, Note_on_c, 5, 73, 127
7, 32673, Note_on_c, 5, 61, 127
7, 32687, Note_on_c, 5, 75, 0
7, 32690, Note_on_c, 5, 63, 0
7, 32696, Note_on_c, 5, 73, 0
7, 32699, Note_on_c, 5, 61, 0
7, 32700, Note_on_c, 5, 71, 82
7, 32703, Note_on_c, 5, 59, 82
7, 32730, Note_on_c, 5, 73, 113
7, 32733, Note_on_c, 5, 61, 113
7, 32738, Note_on_c, 5, 71, 0
7, 32741, Note_on_c, 5, 59, 0
7, 32760, Note_on_c, 5, 75, 127
7, 32763, Note_on_c, 5, 63, 127
7, 32767, Note_on_c, 5, 73, 0
7, 32770, Note_on_c, 5, 61, 0
7, 33094, Note_on_c, 5, 75, 0
7, 33097, Note_on_c, 5, 63, 0
7, 33720, Note_on_c, 5, 62, 127
7, 34074, Note_on_c, 5, 62, 0
7, 34076, Note_on_c, 5, 64, 103
7, 34105, Note_on_c, 5, 64, 0
7, 34106, Note_on_c, 5, 60, 82
7, 34135, Note_on_c, 5, 60, 0
7, 34135, Note_on_c, 5, 64, 87
7, 34165, Note_on_c, 5, 64, 0
7, 34165, Note_on_c, 5, 67, 74
7, 34195, Note_on_c, 5, 67, 0
7, 34195, Note_on_c, 5, 71, 80
7, 34225, Note_on_c, 5, 71, 0
7, 34225, Note_on_c, 5, 74, 82
7, 34255, Note_on_c, 5, 74, 0
7, 34255, Note_on_c, 5, 71, 90
7, 34285, Note_on_c, 5, 71, 0
7, 34285, Note_on_c, 5, 67, 80
7, 34315, Note_on_c, 5, 67, 0
7, 34315, Note_on_c, 5, 71, 87
7, 34345, Note_on_c, 5, 71, 0
7, 34345, Note_on_c, 5, 67, 80
7, 34375, Note_on_c, 5, 67, 0
7, 34375, Note_on_c, 5, 64, 84
7, 34525, Note_on_c, 5, 64, 0
7, 34525, Note_on_c, 5, 71, 127
7, 34530, Note_on_c, 5, 47, 127
7, 34555, Note_on_c, 5, 71, 0
7, 34556, Note_on_c, 5, 69, 127
7, 34560, Note_on_c, 5, 47, 0
7, 34561, Note_on_c, 5, 45, 127
7, 34585, Note_on_c, 5, 69, 0
7, 34585, Note_on_c, 5, 71, 127
7, 34590, Note_on_c, 5, 45, 0
7, 34590, Note_on_c, 5, 47, 127
7, 34615, Note_on_c, 5, 71, 0
7, 34615, Note_on_c, 5, 69, 127
7, 34620, Note_on_c, 5, 47, 0
7, 34620, Note_on_c, 5, 45, 127
7, 35038, Note_on_c, 5, 69, 0
7, 35043, Note_on_c, 5, 45, 0
7, 35552, Note_on_c, 5, 44, 127
7, 35580, Note_on_c, 5, 43, 127
7, 35587, Note_on_c, 5, 44, 0
7, 35605, Note_on_c, 5, 43, 0
7, 35611, Note_on_c, 5, 41, 127
7, 35639, Note_on_c, 5, 43, 127
7, 35645, Note_on_c, 5, 41, 0
7, 35674, Note_on_c, 5, 43, 0
7, 35680, Note_on_c, 5, 44, 127
7, 35723, Note_on_c, 5, 43, 127
7, 35733, Note_on_c, 5, 44, 0
7, 35759, Note_on_c, 5, 43, 0
7, 35764, Note_on_c, 5, 41, 127
7, 35793, Note_on_c, 5, 46, 127
7, 35799, Note_on_c, 5, 41, 0
7, 35820, Note_on_c, 5, 46, 0
7, 35820, Note_on_c, 5, 51, 127
7, 35995, Note_on_c, 5, 51, 0
7, 36000, Note_on_c, 5, 73, 100
7, 36029, Note_on_c, 5, 73, 0
7, 36030, Note_on_c, 5, 75, 100
7, 36059, Note_on_c, 5, 75, 0
7, 36060, Note_on_c, 5, 72, 104
7, 36089, Note_on_c, 5, 72, 0
7, 36090, Note_on_c, 5, 73, 106
7, 36120, Note_on_c, 5, 73, 0
7, 36120, Note_on_c, 5, 70, 102
7, 36150, Note_on_c, 5, 70, 0
7, 36150, Note_on_c, 5, 72, 103
7, 36180, Note_on_c, 5, 72, 0
7, 36181, Note_on_c, 5, 68, 98
7, 36211, Note_on_c, 5, 68, 0
7, 36211, Note_on_c, 5, 70, 104
7, 36240, Note_on_c, 5, 70, 0
7, 36240, Note_on_c, 5, 67, 98
7, 36270, Note_on_c, 5, 67, 0
7, 36270, Note_on_c, 5, 68, 104
7, 36299, Note_on_c, 5, 68, 0
7, 36300, Note_on_c, 5, 65, 106
7, 36330, Note_on_c, 5, 65, 0
7, 36360, Note_on_c, 5, 63, 100
7, 36380, Note_on_c, 5, 63, 0
7, 36390, Note_on_c, 5, 67, 107
7, 36420, Note_on_c, 5, 67, 0
7, 36420, Note_on_c, 5, 70, 112
7, 36449, Note_on_c, 5, 70, 0
7, 36450, Note_on_c, 5, 74, 106
7, 36480, Note_on_c, 5, 74, 0
7, 36480, Note_on_c, 5, 77, 117
7, 36599, Note_on_c, 5, 77, 0
7, 36690, Note_on_c, 5, 63, 100
7, 36710, Note_on_c, 5, 63, 0
7, 36720, Note_on_c, 5, 67, 107
7, 36750, Note_on_c, 5, 67, 0
7, 36750, Note_on_c, 5, 70, 112
7, 36779, Note_on_c, 5, 70, 0
7, 36780, Note_on_c, 5, 74, 106
7, 36810, Note_on_c, 5, 74, 0
7, 36810, Note_on_c, 5, 77, 117
7, 36929, Note_on_c, 5, 77, 0
7, 36972, Note_on_c, 5, 64, 97
7, 36972, Note_on_c, 5, 67, 77
7, 36974, Note_on_c, 5, 62, 82
7, 37048, Note_on_c, 5, 64, 0
7, 37048, Note_on_c, 5, 67, 0
7, 37049, Note_on_c, 5, 62, 0
7, 37080, Note_on_c, 5, 62, 90
7, 37080, Note_on_c, 5, 67, 97
7, 37080, Note_on_c, 5, 64, 110
7, 37100, Note_on_c, 5, 67, 0
7, 37102, Note_on_c, 5, 62, 0
7, 37102, Note_on_c, 5, 64, 0
7, 37139, Note_on_c, 5, 64, 110
7, 37140, Note_on_c, 5, 62, 100
7, 37140, Note_on_c, 5, 67, 100
7, 37162, Note_on_c, 5, 67, 0
7, 37163, Note_on_c, 5, 64, 0
7, 37164, Note_on_c, 5, 62, 0
7, 37201, Note_on_c, 5, 64, 113
7, 37203, Note_on_c, 5, 67, 106
7, 37204, Note_on_c, 5, 62, 106
7, 37227, Note_on_c, 5, 67, 0
7, 37228, Note_on_c, 5, 62, 0
7, 37229, Note_on_c, 5, 64, 0
7, 37260, Note_on_c, 5, 64, 103
7, 37260, Note_on_c, 5, 67, 94
7, 37261, Note_on_c, 5, 62, 90
7, 37284, Note_on_c, 5, 67, 0
7, 37285, Note_on_c, 5, 64, 0
7, 37285, Note_on_c, 5, 62, 0
7, 37319, Note_on_c, 5, 65, 90
7, 37322, Note_on_c, 5, 60, 92
7, 37322, Note_on_c, 5, 62, 94
7, 37345, Note_on_c, 5, 65, 0
7, 37346, Note_on_c, 5, 60, 0
7, 37346, Note_on_c, 5, 62, 0
7, 37381, Note_on_c, 5, 62, 106
7, 37381, Note_on_c, 5, 60, 100
7, 37381, Note_on_c, 5, 65, 103
7, 37407, Note_on_c, 5, 60, 0
7, 37408, Note_on_c, 5, 65, 0
7, 37409, Note_on_c, 5, 62, 0
7, 37441, Note_on_c, 5, 62, 106
7, 37441, Note_on_c, 5, 67, 100
7, 37441, Note_on_c, 5, 64, 118
7, 37852, Note_on_c, 5, 62, 0
7, 37854, Note_on_c, 5, 67, 0
7, 37855, Note_on_c, 5, 64, 0
7, 37863, Note_on_c, 5, 62, 110
7, 37863, Note_on_c, 5, 65, 113
7, 37863, Note_on_c, 5, 60, 106
7, 37881, Note_on_c, 5, 65, 0
7, 37883, Note_on_c, 5, 62, 0
7, 37883, Note_on_c, 5, 60, 0
7, 37921, Note_on_c, 5, 64, 113
7, 37921, Note_on_c, 5, 67, 127
7, 37921, Note_on_c, 5, 62, 103
7, 38012, Note_on_c, 5, 62, 0
7, 38013, Note_on_c, 5, 67, 0
7, 38014, Note_on_c, 5, 64, 0
7, 38041, Note_on_c, 5, 64, 113
7, 38041, Note_on_c, 5, 62, 103
7, 38041, Note_on_c, 5, 67, 106
7, 38062, Note_on_c, 5, 67, 0
7, 38064, Note_on_c, 5, 64, 0
7, 38064, Note_on_c, 5, 62, 0
7, 38100, Note_on_c, 5, 64, 113
7, 38100, Note_on_c, 5, 62, 103
7, 38100, Note_on_c, 5, 67, 113
7, 38119, Note_on_c, 5, 62, 0
7, 38120, Note_on_c, 5, 67, 0
7, 38121, Note_on_c, 5, 64, 0
7, 38160, Note_on_c, 5, 64, 127
7, 38161, Note_on_c, 5, 62, 110
7, 38161, Note_on_c, 5, 67, 118
7, 38181, Note_on_c, 5, 67, 0
7, 38183, Note_on_c, 5, 64, 0
7, 38184, Note_on_c, 5, 62, 0
7, 38220, Note_on_c, 5, 67, 113
7, 38220, Note_on_c, 5, 62, 94
7, 38220, Note_on_c, 5, 64, 113
7, 38239, Note_on_c, 5, 67, 0
7, 38240, Note_on_c, 5, 64, 0
7, 38241, Note_on_c, 5, 62, 0
7, 38280, Note_on_c, 5, 60, 106
7, 38280, Note_on_c, 5, 62, 110
7, 38280, Note_on_c, 5, 65, 113
7, 38298, Note_on_c, 5, 65, 0
7, 38300, Note_on_c, 5, 60, 0
7, 38300, Note_on_c, 5, 62, 0
7, 38339, Note_on_c, 5, 65, 100
7, 38339, Note_on_c, 5, 60, 92
7, 38339, Note_on_c, 5, 62, 106
7, 38358, Note_on_c, 5, 65, 0
7, 38360, Note_on_c, 5, 60, 0
7, 38362, Note_on_c, 5, 62, 0
7, 38401, Note_on_c, 5, 67, 118
7, 38401, Note_on_c, 5, 62, 118
7, 38401, Note_on_c, 5, 64, 118
7, 38855, Note_on_c, 5, 67, 0
7, 38855, Note_on_c, 5, 64, 0
7, 38857, Note_on_c, 5, 62, 0
7, 38857, End_track
8, 0, Start_track
8, 0, Title_t, "celeste"
8, 0, MIDI_port, 0
8, 33, Program_c, 6, 8
8, 34, Control_c, 6, 7, 127
8, 35, Control_c, 6, 10, 75
8, 36, Control_c, 6, 91, 39
8, 21597, Note_on_c, 6, 83, 127
8, 21647, Note_on_c, 6, 83, 0
8, 21659, Note_on_c, 6, 83, 110
8, 21715, Note_on_c, 6, 83, 0
8, 21718, Note_on_c, 6, 88, 127
8, 21776, Note_on_c, 6, 83, 127
8, 21787, Note_on_c, 6, 88, 0
8, 21885, Note_on_c, 6, 83, 0
8, 21901, Note_on_c, 6, 83, 113
8, 21938, Note_on_c, 6, 83, 0
8, 21968, Note_on_c, 6, 80, 44
8, 21987, Note_on_c, 6, 80, 0
8, 22029, Note_on_c, 6, 80, 41
8, 22087, Note_on_c, 6, 80, 0
8, 22090, Note_on_c, 6, 81, 110
8, 22148, Note_on_c, 6, 80, 76
8, 22154, Note_on_c, 6, 81, 0
8, 22201, Note_on_c, 6, 80, 0
8, 22205, Note_on_c, 6, 81, 113
8, 22265, Note_on_c, 6, 80, 106
8, 22275, Note_on_c, 6, 81, 0
8, 22323, Note_on_c, 6, 78, 113
8, 22324, Note_on_c, 6, 80, 0
8, 22384, Note_on_c, 6, 80, 100
8, 22392, Note_on_c, 6, 78, 0
8, 22440, Note_on_c, 6, 81, 106
8, 22448, Note_on_c, 6, 80, 0
8, 22503, Note_on_c, 6, 83, 94
8, 22507, Note_on_c, 6, 81, 0
8, 22541, Note_on_c, 6, 83, 0
8, 22562, Note_on_c, 6, 83, 122
8, 22620, Note_on_c, 6, 82, 113
8, 22629, Note_on_c, 6, 83, 0
8, 23212, Note_on_c, 6, 82, 0
8, 25318, Note_on_c, 6, 79, 127
8, 25377, Note_on_c, 6, 81, 127
8, 25390, Note_on_c, 6, 79, 0
8, 25439, Note_on_c, 6, 79, 127
8, 25449, Note_on_c, 6, 81, 0
8, 25494, Note_on_c, 6, 79, 0
8, 25498, Note_on_c, 6, 77, 127
8, 25739, Note_on_c, 6, 77, 0
8, 25740, Note_on_c, 6, 79, 127
8, 25976, Note_on_c, 6, 79, 0
8, 25979, Note_on_c, 6, 79, 110
8, 26039, Note_on_c, 6, 81, 92
8, 26089, Note_on_c, 6, 79, 0
8, 26099, Note_on_c, 6, 79, 113
8, 26105, Note_on_c, 6, 81, 0
8, 26142, Note_on_c, 6, 79, 0
8, 26158, Note_on_c, 6, 74, 100
8, 26278, Note_on_c, 6, 70, 85
8, 26285, Note_on_c, 6, 74, 0
8, 26338, Note_on_c, 6, 69, 77
8, 26346, Note_on_c, 6, 70, 0
8, 26393, Note_on_c, 6, 69, 0
8, 26394, Note_on_c, 6, 74, 122
8, 27262, Note_on_c, 6, 74, 0
8, 27420, Note_on_c, 6, 75, 127
8, 27719, Note_on_c, 6, 75, 0
8, 27720, Note_on_c, 6, 77, 127
8, 28019, Note_on_c, 6, 77, 0
8, 28020, Note_on_c, 6, 79, 122
8, 28340, Note_on_c, 6, 79, 0
8, 28627, Note_on_c, 6, 82, 127
8, 28629, Note_on_c, 6, 75, 113
8, 29051, Note_on_c, 6, 75, 0
8, 29052, Note_on_c, 6, 82, 0
8, 29102, Note_on_c, 6, 75, 118
8, 29103, Note_on_c, 6, 82, 127
8, 29257, Note_on_c, 6, 75, 0
8, 29259, Note_on_c, 6, 82, 0
8, 30300, Note_on_c, 6, 70, 122
8, 30368, Note_on_c, 6, 70, 0
8, 30420, Note_on_c, 6, 71, 122
8, 30486, Note_on_c, 6, 71, 0
8, 30540, Note_on_c, 6, 70, 127
8, 30603, Note_on_c, 6, 70, 0
8, 30840, Note_on_c, 6, 76, 122
8, 30896, Note_on_c, 6, 73, 92
8, 30897, Note_on_c, 6, 76, 0
8, 30958, Note_on_c, 6, 73, 0
8, 30959, Note_on_c, 6, 72, 127
8, 31020, Note_on_c, 6, 72, 0
8, 31023, Note_on_c, 6, 73, 100
8, 31082, Note_on_c, 6, 74, 127
8, 31088, Note_on_c, 6, 73, 0
8, 31259, Note_on_c, 6, 74, 0
8, 31268, Note_on_c, 6, 74, 110
8, 31340, Note_on_c, 6, 74, 0
8, 31386, Note_on_c, 6, 73, 97
8, 31453, Note_on_c, 6, 73, 0
8, 31507, Note_on_c, 6, 72, 127
8, 31580, Note_on_c, 6, 72, 0
8, 31680, Note_on_c, 6, 77, 127
8, 31792, Note_on_c, 6, 77, 0
8, 31800, Note_on_c, 6, 74, 118
8, 31852, Note_on_c, 6, 74, 0
8, 31860, Note_on_c, 6, 79, 127
8, 31915, Note_on_c, 6, 79, 0
8, 31920, Note_on_c, 6, 77, 127
8, 32040, Note_on_c, 6, 74, 100
8, 32045, Note_on_c, 6, 77, 0
8, 32089, Note_on_c, 6, 74, 0
8, 32100, Note_on_c, 6, 79, 127
8, 32155, Note_on_c, 6, 79, 0
8, 32160, Note_on_c, 6, 76, 127
8, 32585, Note_on_c, 6, 76, 0
8, 34080, Note_on_c, 6, 79, 84
8, 34110, Note_on_c, 6, 79, 0
8, 34111, Note_on_c, 6, 76, 69
8, 34140, Note_on_c, 6, 76, 0
8, 34140, Note_on_c, 6, 79, 87
8, 34170, Note_on_c, 6, 79, 0
8, 34170, Note_on_c, 6, 83, 90
8, 34200, Note_on_c, 6, 83, 0
8, 34200, Note_on_c, 6, 86, 103
8, 34230, Note_on_c, 6, 86, 0
8, 34230, Note_on_c, 6, 90, 103
8, 34260, Note_on_c, 6, 90, 0
8, 34261, Note_on_c, 6, 86, 94
8, 34290, Note_on_c, 6, 86, 0
8, 34291, Note_on_c, 6, 83, 82
8, 34320, Note_on_c, 6, 83, 0
8, 34320, Note_on_c, 6, 86, 92
8, 34350, Note_on_c, 6, 86, 0
8, 34350, Note_on_c, 6, 83, 78
8, 34380, Note_on_c, 6, 83, 0
8, 34380, Note_on_c, 6, 79, 77
8, 34530, Note_on_c, 6, 79, 0
8, 34530, End_track
9, 0, Start_track
9, 0, Title_t, "organ"
9, 0, MIDI_port, 0
9, 37, Program_c, 7, 17
9, 38, Control_c, 7, 7, 127
9, 39, Control_c, 7, 10, 45
9, 40, Control_c, 7, 91, 39
9, 16800, Note_on_c, 7, 52, 127
9, 16919, Note_on_c, 7, 52, 0
9, 16922, Note_on_c, 7, 47, 127
9, 16943, Note_on_c, 7, 47, 0
9, 16943, Note_on_c, 7, 48, 127
9, 16966, Note_on_c, 7, 48, 0
9, 16966, Note_on_c, 7, 49, 127
9, 16988, Note_on_c, 7, 49, 0
9, 16988, Note_on_c, 7, 50, 127
9, 17006, Note_on_c, 7, 50, 0
9, 17011, Note_on_c, 7, 51, 127
9, 17033, Note_on_c, 7, 51, 0
9, 17033, Note_on_c, 7, 52, 127
9, 17055, Note_on_c, 7, 52, 0
9, 17055, Note_on_c, 7, 53, 127
9, 17078, Note_on_c, 7, 53, 0
9, 17078, Note_on_c, 7, 54, 127
9, 17100, Note_on_c, 7, 54, 0
9, 17100, Note_on_c, 7, 55, 127
9, 17123, Note_on_c, 7, 55, 0
9, 17123, Note_on_c, 7, 56, 127
9, 17145, Note_on_c, 7, 56, 0
9, 17145, Note_on_c, 7, 57, 127
9, 17162, Note_on_c, 7, 52, 127
9, 17168, Note_on_c, 7, 57, 0
9, 17178, Note_on_c, 7, 52, 0
9, 17178, Note_on_c, 7, 53, 127
9, 17188, Note_on_c, 7, 53, 0
9, 17195, Note_on_c, 7, 54, 127
9, 17212, Note_on_c, 7, 54, 0
9, 17212, Note_on_c, 7, 55, 127
9, 17229, Note_on_c, 7, 55, 0
9, 17229, Note_on_c, 7, 56, 127
9, 17246, Note_on_c, 7, 56, 0
9, 17246, Note_on_c, 7, 57, 127
9, 17263, Note_on_c, 7, 57, 0
9, 17263, Note_on_c, 7, 58, 127
9, 17280, Note_on_c, 7, 58, 0
9, 17280, Note_on_c, 7, 59, 127
9, 17339, Note_on_c, 7, 59, 0
9, 17347, Note_on_c, 7, 55, 127
9, 17373, Note_on_c, 7, 55, 0
9, 17373, Note_on_c, 7, 56, 127
9, 17400, Note_on_c, 7, 56, 0
9, 17400, Note_on_c, 7, 57, 127
9, 17427, Note_on_c, 7, 57, 0
9, 17427, Note_on_c, 7, 58, 127
9, 17455, Note_on_c, 7, 58, 0
9, 17455, Note_on_c, 7, 59, 127
9, 17475, Note_on_c, 7, 64, 127
9, 17482, Note_on_c, 7, 59, 0
9, 17519, Note_on_c, 7, 64, 0
9, 17520, Note_on_c, 7, 57, 127
9, 17538, Note_on_c, 7, 57, 0
9, 17538, Note_on_c, 7, 59, 127
9, 17556, Note_on_c, 7, 59, 0
9, 17556, Note_on_c, 7, 60, 127
9, 17574, Note_on_c, 7, 60, 0
9, 17575, Note_on_c, 7, 62, 127
9, 17593, Note_on_c, 7, 62, 0
9, 17593, Note_on_c, 7, 64, 127
9, 17611, Note_on_c, 7, 64, 0
9, 17611, Note_on_c, 7, 65, 127
9, 17640, Note_on_c, 7, 67, 127
9, 17647, Note_on_c, 7, 65, 0
9, 17699, Note_on_c, 7, 67, 0
9, 17702, Note_on_c, 7, 64, 127
9, 17718, Note_on_c, 7, 65, 127
9, 17728, Note_on_c, 7, 64, 0
9, 17739, Note_on_c, 7, 67, 127
9, 17755, Note_on_c, 7, 65, 0
9, 17760, Note_on_c, 7, 69, 127
9, 17777, Note_on_c, 7, 67, 0
9, 17861, Note_on_c, 7, 69, 0
9, 17880, Note_on_c, 7, 69, 127
9, 17940, Note_on_c, 7, 71, 127
9, 17946, Note_on_c, 7, 69, 0
9, 18000, Note_on_c, 7, 67, 127
9, 18004, Note_on_c, 7, 71, 0
9, 18051, Note_on_c, 7, 67, 0
9, 18060, Note_on_c, 7, 69, 127
9, 18120, Note_on_c, 7, 65, 127
9, 18125, Note_on_c, 7, 69, 0
9, 18169, Note_on_c, 7, 65, 0
9, 18180, Note_on_c, 7, 67, 127
9, 18234, Note_on_c, 7, 67, 0
9, 18240, Note_on_c, 7, 64, 127
9, 18619, Note_on_c, 7, 64, 0
9, 18660, Note_on_c, 7, 64, 127
9, 18715, Note_on_c, 7, 64, 0
9, 18720, Note_on_c, 7, 69, 127
9, 18816, Note_on_c, 7, 69, 0
9, 18840, Note_on_c, 7, 69, 127
9, 18900, Note_on_c, 7, 71, 127
9, 18910, Note_on_c, 7, 69, 0
9, 18957, Note_on_c, 7, 71, 0
9, 18960, Note_on_c, 7, 67, 127
9, 19020, Note_on_c, 7, 69, 127
9, 19021, Note_on_c, 7, 67, 0
9, 19080, Note_on_c, 7, 65, 127
9, 19087, Note_on_c, 7, 69, 0
9, 19129, Note_on_c, 7, 65, 0
9, 19140, Note_on_c, 7, 67, 127
9, 19200, Note_on_c, 7, 64, 127
9, 19205, Note_on_c, 7, 67, 0
9, 19579, Note_on_c, 7, 64, 0
9, 19682, Note_on_c, 7, 88, 97
9, 19894, Note_on_c, 7, 89, 62
9, 19904, Note_on_c, 7, 90, 70
9, 19905, Note_on_c, 7, 88, 0
9, 19908, Note_on_c, 7, 89, 0
9, 19918, Note_on_c, 7, 90, 0
9, 19921, Note_on_c, 7, 91, 100
9, 19932, Note_on_c, 7, 92, 127
9, 19935, Note_on_c, 7, 91, 0
9, 20119, Note_on_c, 7, 91, 78
9, 20125, Note_on_c, 7, 92, 0
9, 20131, Note_on_c, 7, 91, 0
9, 20131, Note_on_c, 7, 90, 110
9, 20146, Note_on_c, 7, 90, 0
9, 20147, Note_on_c, 7, 89, 100
9, 20158, Note_on_c, 7, 89, 0
9, 20158, Note_on_c, 7, 88, 100
9, 20396, Note_on_c, 7, 88, 0
9, 20402, Note_on_c, 7, 86, 103
9, 20462, Note_on_c, 7, 86, 0
9, 20462, Note_on_c, 7, 87, 92
9, 20520, Note_on_c, 7, 87, 0
9, 20521, Note_on_c, 7, 84, 82
9, 20579, Note_on_c, 7, 84, 0
9, 20580, Note_on_c, 7, 86, 85
9, 20637, Note_on_c, 7, 86, 0
9, 20645, Note_on_c, 7, 86, 76
9, 20861, Note_on_c, 7, 86, 0
9, 20880, Note_on_c, 7, 89, 122
9, 20919, Note_on_c, 7, 89, 0
9, 20940, Note_on_c, 7, 72, 76
9, 20966, Note_on_c, 7, 72, 0
9, 20966, Note_on_c, 7, 77, 78
9, 20992, Note_on_c, 7, 77, 0
9, 20992, Note_on_c, 7, 80, 85
9, 21019, Note_on_c, 7, 80, 0
9, 21020, Note_on_c, 7, 84, 87
9, 21046, Note_on_c, 7, 84, 0
9, 21046, Note_on_c, 7, 89, 87
9, 21073, Note_on_c, 7, 89, 0
9, 21074, Note_on_c, 7, 92, 100
9, 21099, Note_on_c, 7, 92, 0
9, 21115, Note_on_c, 7, 95, 110
9, 21592, Note_on_c, 7, 95, 0
9, 21592, End_track
10, 0, Start_track
10, 0, Title_t, "piano"
10, 0, MIDI_port, 0
10, 41, Program_c, 8, 0
10, 42, Control_c, 8, 7, 127
10, 43, Control_c, 8, 10, 64
10, 44, Control_c, 8, 91, 39
10, 476, Note_on_c, 8, 62, 87
10, 477, Note_on_c, 8, 57, 82
10, 480, Note_on_c, 8, 64, 73
10, 482, Note_on_c, 8, 50, 94
10, 534, Note_on_c, 8, 57, 0
10, 535, Note_on_c, 8, 62, 0
10, 536, Note_on_c, 8, 64, 0
10, 598, Note_on_c, 8, 64, 85
10, 599, Note_on_c, 8, 62, 100
10, 600, Note_on_c, 8, 57, 76
10, 645, Note_on_c, 8, 50, 0
10, 663, Note_on_c, 8, 50, 84
10, 671, Note_on_c, 8, 64, 0
10, 672, Note_on_c, 8, 57, 0
10, 673, Note_on_c, 8, 62, 0
10, 717, Note_on_c, 8, 64, 92
10, 721, Note_on_c, 8, 62, 113
10, 722, Note_on_c, 8, 57, 85
10, 770, Note_on_c, 8, 64, 0
10, 776, Note_on_c, 8, 62, 0
10, 776, Note_on_c, 8, 57, 0
10, 840, Note_on_c, 8, 62, 127
10, 841, Note_on_c, 8, 64, 110
10, 842, Note_on_c, 8, 57, 100
10, 877, Note_on_c, 8, 57, 0
10, 882, Note_on_c, 8, 62, 0
10, 887, Note_on_c, 8, 64, 0
10, 956, Note_on_c, 8, 60, 84
10, 956, Note_on_c, 8, 65, 94
10, 957, Note_on_c, 8, 53, 57
10, 958, Note_on_c, 8, 72, 84
10, 958, Note_on_c, 8, 68, 90
10, 966, Note_on_c, 8, 50, 0
10, 1001, Note_on_c, 8, 65, 0
10, 1002, Note_on_c, 8, 60, 0
10, 1011, Note_on_c, 8, 72, 0
10, 1011, Note_on_c, 8, 68, 0
10, 1076, Note_on_c, 8, 60, 82
10, 1077, Note_on_c, 8, 68, 87
10, 1079, Note_on_c, 8, 65, 82
10, 1083, Note_on_c, 8, 72, 73
10, 1121, Note_on_c, 8, 68, 0
10, 1123, Note_on_c, 8, 65, 0
10, 1124, Note_on_c, 8, 60, 0
10, 1129, Note_on_c, 8, 72, 0
10, 1196, Note_on_c, 8, 68, 90
10, 1196, Note_on_c, 8, 65, 94
10, 1199, Note_on_c, 8, 60, 84
10, 1200, Note_on_c, 8, 72, 84
10, 1241, Note_on_c, 8, 65, 0
10, 1245, Note_on_c, 8, 60, 0
10, 1249, Note_on_c, 8, 68, 0
10, 1253, Note_on_c, 8, 72, 0
10, 1317, Note_on_c, 8, 60, 82
10, 1320, Note_on_c, 8, 72, 73
10, 1320, Note_on_c, 8, 65, 82
10, 1320, Note_on_c, 8, 68, 87
10, 1364, Note_on_c, 8, 65, 0
10, 1364, Note_on_c, 8, 68, 0
10, 1365, Note_on_c, 8, 60, 0
10, 1366, Note_on_c, 8, 72, 0
10, 1436, Note_on_c, 8, 53, 0
10, 1436, Note_on_c, 8, 50, 64
10, 1438, Note_on_c, 8, 57, 68
10, 1439, Note_on_c, 8, 62, 90
10, 1441, Note_on_c, 8, 64, 78
10, 1486, Note_on_c, 8, 57, 0
10, 1491, Note_on_c, 8, 62, 0
10, 1497, Note_on_c, 8, 64, 0
10, 1560, Note_on_c, 8, 62, 94
10, 1562, Note_on_c, 8, 64, 78
10, 1562, Note_on_c, 8, 57, 74
10, 1611, Note_on_c, 8, 62, 0
10, 1611, Note_on_c, 8, 57, 0
10, 1612, Note_on_c, 8, 64, 0
10, 1678, Note_on_c, 8, 64, 87
10, 1680, Note_on_c, 8, 62, 106
10, 1683, Note_on_c, 8, 57, 72
10, 1721, Note_on_c, 8, 64, 0
10, 1725, Note_on_c, 8, 62, 0
10, 1729, Note_on_c, 8, 57, 0
10, 1801, Note_on_c, 8, 57, 77
10, 1803, Note_on_c, 8, 62, 110
10, 1803, Note_on_c, 8, 64, 94
10, 1834, Note_on_c, 8, 57, 0
10, 1841, Note_on_c, 8, 62, 0
10, 1842, Note_on_c, 8, 64, 0
10, 1917, Note_on_c, 8, 53, 78
10, 1917, Note_on_c, 8, 72, 55
10, 1919, Note_on_c, 8, 68, 61
10, 1920, Note_on_c, 8, 65, 62
10, 1921, Note_on_c, 8, 50, 0
10, 1968, Note_on_c, 8, 68, 0
10, 1970, Note_on_c, 8, 72, 0
10, 1974, Note_on_c, 8, 65, 0
10, 2037, Note_on_c, 8, 72, 74
10, 2042, Note_on_c, 8, 65, 56
10, 2042, Note_on_c, 8, 68, 87
10, 2084, Note_on_c, 8, 72, 0
10, 2086, Note_on_c, 8, 68, 0
10, 2090, Note_on_c, 8, 65, 0
10, 2162, Note_on_c, 8, 65, 85
10, 2163, Note_on_c, 8, 72, 85
10, 2163, Note_on_c, 8, 68, 106
10, 2220, Note_on_c, 8, 68, 0
10, 2222, Note_on_c, 8, 65, 0
10, 2224, Note_on_c, 8, 72, 0
10, 2278, Note_on_c, 8, 68, 100
10, 2279, Note_on_c, 8, 65, 80
10, 2280, Note_on_c, 8, 72, 78
10, 2315, Note_on_c, 8, 68, 0
10, 2319, Note_on_c, 8, 72, 0
10, 2322, Note_on_c, 8, 65, 0
10, 2396, Note_on_c, 8, 62, 90
10, 2398, Note_on_c, 8, 53, 0
10, 2398, Note_on_c, 8, 50, 67
10, 2399, Note_on_c, 8, 57, 78
10, 2402, Note_on_c, 8, 64, 69
10, 2447, Note_on_c, 8, 62, 0
10, 2450, Note_on_c, 8, 57, 0
10, 2456, Note_on_c, 8, 64, 0
10, 2516, Note_on_c, 8, 64, 77
10, 2516, Note_on_c, 8, 57, 68
10, 2521, Note_on_c, 8, 62, 90
10, 2569, Note_on_c, 8, 64, 0
10, 2573, Note_on_c, 8, 57, 0
10, 2573, Note_on_c, 8, 62, 0
10, 2636, Note_on_c, 8, 57, 72
10, 2638, Note_on_c, 8, 62, 97
10, 2643, Note_on_c, 8, 64, 85
10, 2709, Note_on_c, 8, 57, 0
10, 2713, Note_on_c, 8, 62, 0
10, 2718, Note_on_c, 8, 64, 0
10, 2758, Note_on_c, 8, 57, 87
10, 2760, Note_on_c, 8, 62, 118
10, 2761, Note_on_c, 8, 64, 103
10, 2802, Note_on_c, 8, 57, 0
10, 2810, Note_on_c, 8, 62, 0
10, 2811, Note_on_c, 8, 64, 0
10, 2877, Note_on_c, 8, 53, 58
10, 2879, Note_on_c, 8, 65, 60
10, 2881, Note_on_c, 8, 72, 62
10, 2882, Note_on_c, 8, 68, 76
10, 2892, Note_on_c, 8, 50, 0
10, 2936, Note_on_c, 8, 65, 0
10, 2938, Note_on_c, 8, 68, 0
10, 2939, Note_on_c, 8, 72, 0
10, 2999, Note_on_c, 8, 72, 61
10, 2999, Note_on_c, 8, 65, 68
10, 3001, Note_on_c, 8, 68, 97
10, 3057, Note_on_c, 8, 72, 0
10, 3059, Note_on_c, 8, 65, 0
10, 3059, Note_on_c, 8, 68, 0
10, 3116, Note_on_c, 8, 68, 118
10, 3121, Note_on_c, 8, 72, 92
10, 3123, Note_on_c, 8, 65, 87
10, 3170, Note_on_c, 8, 68, 0
10, 3178, Note_on_c, 8, 72, 0
10, 3180, Note_on_c, 8, 65, 0
10, 3239, Note_on_c, 8, 72, 85
10, 3240, Note_on_c, 8, 65, 76
10, 3241, Note_on_c, 8, 68, 106
10, 3293, Note_on_c, 8, 68, 0
10, 3294, Note_on_c, 8, 72, 0
10, 3299, Note_on_c, 8, 65, 0
10, 3355, Note_on_c, 8, 53, 0
10, 3357, Note_on_c, 8, 64, 85
10, 3358, Note_on_c, 8, 57, 97
10, 3360, Note_on_c, 8, 50, 48
10, 3360, Note_on_c, 8, 62, 100
10, 3402, Note_on_c, 8, 57, 0
10, 3403, Note_on_c, 8, 64, 0
10, 3405, Note_on_c, 8, 62, 0
10, 3477, Note_on_c, 8, 57, 85
10, 3479, Note_on_c, 8, 64, 97
10, 3482, Note_on_c, 8, 62, 110
10, 3517, Note_on_c, 8, 64, 0
10, 3518, Note_on_c, 8, 62, 0
10, 3520, Note_on_c, 8, 57, 0
10, 3600, Note_on_c, 8, 57, 85
10, 3602, Note_on_c, 8, 64, 103
10, 3603, Note_on_c, 8, 62, 118
10, 3654, Note_on_c, 8, 57, 0
10, 3655, Note_on_c, 8, 64, 0
10, 3655, Note_on_c, 8, 62, 0
10, 3717, Note_on_c, 8, 62, 127
10, 3718, Note_on_c, 8, 57, 94
10, 3721, Note_on_c, 8, 64, 106
10, 3767, Note_on_c, 8, 57, 0
10, 3774, Note_on_c, 8, 62, 0
10, 3775, Note_on_c, 8, 64, 0
10, 3836, Note_on_c, 8, 65, 82
10, 3839, Note_on_c, 8, 53, 61
10, 3840, Note_on_c, 8, 50, 0
10, 3840, Note_on_c, 8, 72, 85
10, 3841, Note_on_c, 8, 68, 100
10, 3889, Note_on_c, 8, 65, 0
10, 3891, Note_on_c, 8, 68, 0
10, 3892, Note_on_c, 8, 72, 0
10, 3957, Note_on_c, 8, 72, 84
10, 3957, Note_on_c, 8, 65, 76
10, 3963, Note_on_c, 8, 68, 103
10, 4009, Note_on_c, 8, 72, 0
10, 4010, Note_on_c, 8, 65, 0
10, 4015, Note_on_c, 8, 68, 0
10, 4078, Note_on_c, 8, 68, 113
10, 4081, Note_on_c, 8, 72, 84
10, 4083, Note_on_c, 8, 65, 85
10, 4131, Note_on_c, 8, 68, 0
10, 4136, Note_on_c, 8, 72, 0
10, 4137, Note_on_c, 8, 65, 0
10, 4196, Note_on_c, 8, 65, 84
10, 4199, Note_on_c, 8, 72, 80
10, 4203, Note_on_c, 8, 68, 103
10, 4239, Note_on_c, 8, 72, 0
10, 4240, Note_on_c, 8, 65, 0
10, 4240, Note_on_c, 8, 68, 0
10, 4304, Note_on_c, 8, 53, 0
10, 4317, Note_on_c, 8, 50, 74
10, 4321, Note_on_c, 8, 64, 77
10, 4322, Note_on_c, 8, 62, 94
10, 4323, Note_on_c, 8, 57, 90
10, 4372, Note_on_c, 8, 57, 0
10, 4374, Note_on_c, 8, 62, 0
10, 4378, Note_on_c, 8, 64, 0
10, 4437, Note_on_c, 8, 57, 53
10, 4437, Note_on_c, 8, 62, 64
10, 4440, Note_on_c, 8, 64, 62
10, 4470, Note_on_c, 8, 57, 0
10, 4475, Note_on_c, 8, 62, 0
10, 4479, Note_on_c, 8, 64, 0
10, 4557, Note_on_c, 8, 57, 76
10, 4559, Note_on_c, 8, 62, 94
10, 4562, Note_on_c, 8, 64, 76
10, 4607, Note_on_c, 8, 57, 0
10, 4617, Note_on_c, 8, 62, 0
10, 4623, Note_on_c, 8, 64, 0
10, 4679, Note_on_c, 8, 64, 78
10, 4680, Note_on_c, 8, 62, 103
10, 4681, Note_on_c, 8, 57, 87
10, 4707, Note_on_c, 8, 64, 0
10, 4709, Note_on_c, 8, 62, 0
10, 4717, Note_on_c, 8, 57, 0
10, 4785, Note_on_c, 8, 50, 0
10, 4799, Note_on_c, 8, 68, 59
10, 4800, Note_on_c, 8, 49, 74
10, 4802, Note_on_c, 8, 59, 57
10, 4803, Note_on_c, 8, 65, 50
10, 4870, Note_on_c, 8, 65, 0
10, 4871, Note_on_c, 8, 59, 0
10, 4872, Note_on_c, 8, 68, 0
10, 4920, Note_on_c, 8, 68, 80
10, 4922, Note_on_c, 8, 59, 75
10, 4922, Note_on_c, 8, 65, 61
10, 4989, Note_on_c, 8, 68, 0
10, 4989, Note_on_c, 8, 65, 0
10, 4990, Note_on_c, 8, 59, 0
10, 5043, Note_on_c, 8, 68, 94
10, 5043, Note_on_c, 8, 59, 84
10, 5044, Note_on_c, 8, 65, 68
10, 5110, Note_on_c, 8, 65, 0
10, 5112, Note_on_c, 8, 59, 0
10, 5113, Note_on_c, 8, 68, 0
10, 5162, Note_on_c, 8, 68, 97
10, 5163, Note_on_c, 8, 65, 82
10, 5164, Note_on_c, 8, 59, 88
10, 5226, Note_on_c, 8, 68, 0
10, 5227, Note_on_c, 8, 59, 0
10, 5229, Note_on_c, 8, 65, 0
10, 5268, Note_on_c, 8, 49, 0
10, 5276, Note_on_c, 8, 64, 74
10, 5279, Note_on_c, 8, 57, 73
10, 5283, Note_on_c, 8, 50, 70
10, 5283, Note_on_c, 8, 62, 103
10, 5335, Note_on_c, 8, 64, 0
10, 5340, Note_on_c, 8, 57, 0
10, 5341, Note_on_c, 8, 62, 0
10, 5398, Note_on_c, 8, 62, 110
10, 5399, Note_on_c, 8, 64, 90
10, 5400, Note_on_c, 8, 57, 74
10, 5453, Note_on_c, 8, 62, 0
10, 5454, Note_on_c, 8, 64, 0
10, 5454, Note_on_c, 8, 57, 0
10, 5518, Note_on_c, 8, 64, 100
10, 5518, Note_on_c, 8, 57, 85
10, 5522, Note_on_c, 8, 62, 122
10, 5557, Note_on_c, 8, 50, 0
10, 5575, Note_on_c, 8, 64, 0
10, 5575, Note_on_c, 8, 57, 0
10, 5579, Note_on_c, 8, 50, 69
10, 5580, Note_on_c, 8, 62, 0
10, 5638, Note_on_c, 8, 64, 97
10, 5638, Note_on_c, 8, 57, 94
10, 5643, Note_on_c, 8, 62, 118
10, 5665, Note_on_c, 8, 57, 0
10, 5669, Note_on_c, 8, 64, 0
10, 5676, Note_on_c, 8, 62, 0
10, 5757, Note_on_c, 8, 68, 66
10, 5760, Note_on_c, 8, 50, 0
10, 5760, Note_on_c, 8, 65, 66
10, 5761, Note_on_c, 8, 60, 61
10, 5762, Note_on_c, 8, 53, 46
10, 5803, Note_on_c, 8, 68, 0
10, 5804, Note_on_c, 8, 60, 0
10, 5806, Note_on_c, 8, 65, 0
10, 5879, Note_on_c, 8, 68, 85
10, 5880, Note_on_c, 8, 60, 78
10, 5882, Note_on_c, 8, 65, 92
10, 5942, Note_on_c, 8, 68, 0
10, 5942, Note_on_c, 8, 60, 0
10, 5946, Note_on_c, 8, 65, 0
10, 5996, Note_on_c, 8, 65, 113
10, 6003, Note_on_c, 8, 68, 100
10, 6003, Note_on_c, 8, 60, 90
10, 6047, Note_on_c, 8, 53, 0
10, 6060, Note_on_c, 8, 53, 64
10, 6069, Note_on_c, 8, 65, 0
10, 6074, Note_on_c, 8, 60, 0
10, 6080, Note_on_c, 8, 68, 0
10, 6116, Note_on_c, 8, 68, 92
10, 6117, Note_on_c, 8, 60, 82
10, 6120, Note_on_c, 8, 65, 110
10, 6140, Note_on_c, 8, 60, 0
10, 6144, Note_on_c, 8, 65, 0
10, 6147, Note_on_c, 8, 68, 0
10, 6222, Note_on_c, 8, 53, 0
10, 6240, Note_on_c, 8, 36, 127
10, 6310, Note_on_c, 8, 64, 110
10, 6341, Note_on_c, 8, 67, 106
10, 6368, Note_on_c, 8, 71, 103
10, 6430, Note_on_c, 8, 76, 97
10, 6480, Note_on_c, 8, 91, 127
10, 6665, Note_on_c, 8, 76, 0
10, 6666, Note_on_c, 8, 71, 0
10, 6667, Note_on_c, 8, 67, 0
10, 6671, Note_on_c, 8, 64, 0
10, 6677, Note_on_c, 8, 91, 0
10, 6696, Note_on_c, 8, 36, 0
10, 6726, Note_on_c, 8, 34, 127
10, 6791, Note_on_c, 8, 62, 82
10, 6827, Note_on_c, 8, 65, 94
10, 6854, Note_on_c, 8, 69, 100
10, 6913, Note_on_c, 8, 74, 100
10, 6960, Note_on_c, 8, 77, 127
10, 7075, Note_on_c, 8, 77, 0
10, 7138, Note_on_c, 8, 62, 0
10, 7141, Note_on_c, 8, 65, 0
10, 7144, Note_on_c, 8, 34, 0
10, 7144, Note_on_c, 8, 69, 0
10, 7147, Note_on_c, 8, 74, 0
10, 7200, Note_on_c, 8, 36, 127
10, 7256, Note_on_c, 8, 64, 94
10, 7289, Note_on_c, 8, 67, 78
10, 7310, Note_on_c, 8, 71, 80
10, 7384, Note_on_c, 8, 76, 92
10, 7440, Note_on_c, 8, 91, 127
10, 7608, Note_on_c, 8, 71, 0
10, 7609, Note_on_c, 8, 76, 0
10, 7612, Note_on_c, 8, 67, 0
10, 7616, Note_on_c, 8, 91, 0
10, 7617, Note_on_c, 8, 64, 0
10, 7627, Note_on_c, 8, 36, 0
10, 7678, Note_on_c, 8, 34, 127
10, 7741, Note_on_c, 8, 62, 85
10, 7772, Note_on_c, 8, 65, 92
10, 7800, Note_on_c, 8, 69, 87
10, 7868, Note_on_c, 8, 74, 92
10, 7928, Note_on_c, 8, 89, 127
10, 8103, Note_on_c, 8, 89, 0
10, 8136, Note_on_c, 8, 34, 0
10, 8136, Note_on_c, 8, 69, 0
10, 8137, Note_on_c, 8, 65, 0
10, 8141, Note_on_c, 8, 62, 0
10, 8146, Note_on_c, 8, 74, 0
10, 8166, Note_on_c, 8, 64, 69
10, 8167, Note_on_c, 8, 62, 85
10, 8168, Note_on_c, 8, 57, 78
10, 8172, Note_on_c, 8, 50, 68
10, 8217, Note_on_c, 8, 57, 0
10, 8219, Note_on_c, 8, 62, 0
10, 8220, Note_on_c, 8, 64, 0
10, 8279, Note_on_c, 8, 62, 100
10, 8280, Note_on_c, 8, 64, 78
10, 8280, Note_on_c, 8, 57, 73
10, 8327, Note_on_c, 8, 64, 0
10, 8328, Note_on_c, 8, 62, 0
10, 8331, Note_on_c, 8, 57, 0
10, 8400, Note_on_c, 8, 57, 74
10, 8400, Note_on_c, 8, 62, 106
10, 8401, Note_on_c, 8, 64, 85
10, 8439, Note_on_c, 8, 50, 0
10, 8461, Note_on_c, 8, 50, 68
10, 8462, Note_on_c, 8, 64, 0
10, 8463, Note_on_c, 8, 57, 0
10, 8463, Note_on_c, 8, 62, 0
10, 8523, Note_on_c, 8, 57, 74
10, 8525, Note_on_c, 8, 64, 87
10, 8525, Note_on_c, 8, 62, 106
10, 8547, Note_on_c, 8, 57, 0
10, 8549, Note_on_c, 8, 62, 0
10, 8551, Note_on_c, 8, 64, 0
10, 8636, Note_on_c, 8, 65, 76
10, 8637, Note_on_c, 8, 68, 72
10, 8638, Note_on_c, 8, 60, 69
10, 8641, Note_on_c, 8, 53, 64
10, 8652, Note_on_c, 8, 50, 0
10, 8684, Note_on_c, 8, 60, 0
10, 8686, Note_on_c, 8, 65, 0
10, 8689, Note_on_c, 8, 68, 0
10, 8758, Note_on_c, 8, 68, 103
10, 8758, Note_on_c, 8, 60, 84
10, 8758, Note_on_c, 8, 65, 100
10, 8798, Note_on_c, 8, 65, 0
10, 8801, Note_on_c, 8, 60, 0
10, 8804, Note_on_c, 8, 68, 0
10, 8877, Note_on_c, 8, 60, 92
10, 8877, Note_on_c, 8, 68, 113
10, 8877, Note_on_c, 8, 65, 118
10, 8909, Note_on_c, 8, 53, 0
10, 8927, Note_on_c, 8, 53, 72
10, 8935, Note_on_c, 8, 60, 0
10, 8935, Note_on_c, 8, 65, 0
10, 8938, Note_on_c, 8, 68, 0
10, 8998, Note_on_c, 8, 68, 113
10, 8998, Note_on_c, 8, 65, 122
10, 8998, Note_on_c, 8, 60, 97
10, 9030, Note_on_c, 8, 65, 0
10, 9031, Note_on_c, 8, 68, 0
10, 9034, Note_on_c, 8, 60, 0
10, 9116, Note_on_c, 8, 53, 0
10, 9119, Note_on_c, 8, 64, 78
10, 9120, Note_on_c, 8, 57, 80
10, 9120, Note_on_c, 8, 50, 67
10, 9121, Note_on_c, 8, 62, 110
10, 9166, Note_on_c, 8, 57, 0
10, 9168, Note_on_c, 8, 62, 0
10, 9170, Note_on_c, 8, 64, 0
10, 9242, Note_on_c, 8, 62, 94
10, 9242, Note_on_c, 8, 57, 74
10, 9242, Note_on_c, 8, 64, 76
10, 9303, Note_on_c, 8, 57, 0
10, 9304, Note_on_c, 8, 62, 0
10, 9304, Note_on_c, 8, 64, 0
10, 9362, Note_on_c, 8, 64, 110
10, 9362, Note_on_c, 8, 62, 127
10, 9362, Note_on_c, 8, 57, 94
10, 9416, Note_on_c, 8, 57, 0
10, 9417, Note_on_c, 8, 64, 0
10, 9417, Note_on_c, 8, 62, 0
10, 9480, Note_on_c, 8, 62, 110
10, 9480, Note_on_c, 8, 64, 92
10, 9481, Note_on_c, 8, 57, 92
10, 9524, Note_on_c, 8, 64, 0
10, 9529, Note_on_c, 8, 62, 0
10, 9538, Note_on_c, 8, 57, 0
10, 9593, Note_on_c, 8, 49, 64
10, 9595, Note_on_c, 8, 56, 73
10, 9597, Note_on_c, 8, 64, 74
10, 9598, Note_on_c, 8, 53, 68
10, 9598, Note_on_c, 8, 59, 62
10, 9610, Note_on_c, 8, 50, 0
10, 9987, Note_on_c, 8, 64, 0
10, 9988, Note_on_c, 8, 59, 0
10, 9996, Note_on_c, 8, 49, 0
10, 9998, Note_on_c, 8, 53, 0
10, 9999, Note_on_c, 8, 56, 0
10, 10082, Note_on_c, 8, 64, 72
10, 10082, Note_on_c, 8, 62, 87
10, 10082, Note_on_c, 8, 57, 74
10, 10086, Note_on_c, 8, 50, 100
10, 10137, Note_on_c, 8, 62, 0
10, 10138, Note_on_c, 8, 57, 0
10, 10139, Note_on_c, 8, 64, 0
10, 10198, Note_on_c, 8, 62, 110
10, 10200, Note_on_c, 8, 57, 84
10, 10200, Note_on_c, 8, 64, 92
10, 10261, Note_on_c, 8, 57, 0
10, 10262, Note_on_c, 8, 62, 0
10, 10262, Note_on_c, 8, 64, 0
10, 10321, Note_on_c, 8, 62, 113
10, 10323, Note_on_c, 8, 57, 87
10, 10323, Note_on_c, 8, 64, 92
10, 10391, Note_on_c, 8, 57, 0
10, 10394, Note_on_c, 8, 64, 0
10, 10395, Note_on_c, 8, 62, 0
10, 10439, Note_on_c, 8, 57, 82
10, 10439, Note_on_c, 8, 64, 92
10, 10439, Note_on_c, 8, 62, 106
10, 10470, Note_on_c, 8, 57, 0
10, 10478, Note_on_c, 8, 62, 0
10, 10479, Note_on_c, 8, 64, 0
10, 10556, Note_on_c, 8, 60, 70
10, 10557, Note_on_c, 8, 65, 82
10, 10557, Note_on_c, 8, 68, 82
10, 10559, Note_on_c, 8, 53, 74
10, 10570, Note_on_c, 8, 50, 0
10, 10608, Note_on_c, 8, 60, 0
10, 10611, Note_on_c, 8, 65, 0
10, 10613, Note_on_c, 8, 68, 0
10, 10677, Note_on_c, 8, 68, 106
10, 10677, Note_on_c, 8, 60, 87
10, 10678, Note_on_c, 8, 65, 100
10, 10738, Note_on_c, 8, 65, 0
10, 10739, Note_on_c, 8, 60, 0
10, 10741, Note_on_c, 8, 68, 0
10, 10801, Note_on_c, 8, 65, 113
10, 10801, Note_on_c, 8, 68, 122
10, 10801, Note_on_c, 8, 60, 94
10, 10852, Note_on_c, 8, 65, 0
10, 10853, Note_on_c, 8, 60, 0
10, 10856, Note_on_c, 8, 68, 0
10, 10922, Note_on_c, 8, 68, 92
10, 10925, Note_on_c, 8, 65, 97
10, 10926, Note_on_c, 8, 60, 85
10, 10973, Note_on_c, 8, 68, 0
10, 10977, Note_on_c, 8, 65, 0
10, 10980, Note_on_c, 8, 60, 0
10, 11043, Note_on_c, 8, 50, 54
10, 11045, Note_on_c, 8, 64, 92
10, 11045, Note_on_c, 8, 62, 92
10, 11047, Note_on_c, 8, 57, 65
10, 11052, Note_on_c, 8, 53, 0
10, 11103, Note_on_c, 8, 57, 0
10, 11109, Note_on_c, 8, 62, 0
10, 11112, Note_on_c, 8, 64, 0
10, 11165, Note_on_c, 8, 62, 106
10, 11166, Note_on_c, 8, 64, 82
10, 11166, Note_on_c, 8, 57, 74
10, 11234, Note_on_c, 8, 57, 0
10, 11235, Note_on_c, 8, 62, 0
10, 11235, Note_on_c, 8, 64, 0
10, 11289, Note_on_c, 8, 57, 85
10, 11289, Note_on_c, 8, 62, 122
10, 11290, Note_on_c, 8, 64, 103
10, 11351, Note_on_c, 8, 64, 0
10, 11352, Note_on_c, 8, 62, 0
10, 11353, Note_on_c, 8, 57, 0
10, 11400, Note_on_c, 8, 57, 80
10, 11402, Note_on_c, 8, 62, 113
10, 11403, Note_on_c, 8, 64, 100
10, 11455, Note_on_c, 8, 57, 0
10, 11458, Note_on_c, 8, 62, 0
10, 11460, Note_on_c, 8, 64, 0
10, 11526, Note_on_c, 8, 68, 100
10, 11527, Note_on_c, 8, 53, 62
10, 11527, Note_on_c, 8, 65, 94
10, 11528, Note_on_c, 8, 60, 85
10, 11543, Note_on_c, 8, 50, 0
10, 11583, Note_on_c, 8, 65, 0
10, 11583, Note_on_c, 8, 60, 0
10, 11585, Note_on_c, 8, 68, 0
10, 11647, Note_on_c, 8, 65, 118
10, 11647, Note_on_c, 8, 68, 127
10, 11647, Note_on_c, 8, 60, 92
10, 11698, Note_on_c, 8, 65, 0
10, 11698, Note_on_c, 8, 60, 0
10, 11703, Note_on_c, 8, 68, 0
10, 11761, Note_on_c, 8, 72, 82
10, 11761, Note_on_c, 8, 68, 110
10, 11763, Note_on_c, 8, 65, 94
10, 11819, Note_on_c, 8, 68, 0
10, 11821, Note_on_c, 8, 65, 0
10, 11822, Note_on_c, 8, 72, 0
10, 11882, Note_on_c, 8, 72, 77
10, 11883, Note_on_c, 8, 68, 106
10, 11883, Note_on_c, 8, 65, 92
10, 11929, Note_on_c, 8, 68, 0
10, 11932, Note_on_c, 8, 72, 0
10, 11936, Note_on_c, 8, 65, 0
10, 11999, Note_on_c, 8, 50, 48
10, 11999, Note_on_c, 8, 64, 76
10, 12000, Note_on_c, 8, 62, 92
10, 12001, Note_on_c, 8, 57, 62
10, 12005, Note_on_c, 8, 53, 0
10, 12058, Note_on_c, 8, 57, 0
10, 12062, Note_on_c, 8, 62, 0
10, 12066, Note_on_c, 8, 64, 0
10, 12121, Note_on_c, 8, 64, 76
10, 12121, Note_on_c, 8, 57, 80
10, 12121, Note_on_c, 8, 62, 85
10, 12164, Note_on_c, 8, 57, 0
10, 12165, Note_on_c, 8, 62, 0
10, 12174, Note_on_c, 8, 64, 0
10, 12242, Note_on_c, 8, 62, 87
10, 12242, Note_on_c, 8, 64, 61
10, 12242, Note_on_c, 8, 57, 90
10, 12280, Note_on_c, 8, 57, 0
10, 12291, Note_on_c, 8, 62, 0
10, 12297, Note_on_c, 8, 64, 0
10, 12358, Note_on_c, 8, 64, 70
10, 12358, Note_on_c, 8, 62, 94
10, 12358, Note_on_c, 8, 57, 85
10, 12402, Note_on_c, 8, 62, 0
10, 12409, Note_on_c, 8, 64, 0
10, 12412, Note_on_c, 8, 57, 0
10, 12477, Note_on_c, 8, 49, 51
10, 12480, Note_on_c, 8, 65, 76
10, 12481, Note_on_c, 8, 59, 100
10, 12482, Note_on_c, 8, 61, 122
10, 12489, Note_on_c, 8, 50, 0
10, 12534, Note_on_c, 8, 59, 0
10, 12535, Note_on_c, 8, 61, 0
10, 12538, Note_on_c, 8, 65, 0
10, 12593, Note_on_c, 8, 59, 82
10, 12596, Note_on_c, 8, 61, 85
10, 12598, Note_on_c, 8, 65, 66
10, 12658, Note_on_c, 8, 61, 0
10, 12658, Note_on_c, 8, 65, 0
10, 12661, Note_on_c, 8, 59, 0
10, 12721, Note_on_c, 8, 65, 97
10, 12721, Note_on_c, 8, 61, 118
10, 12722, Note_on_c, 8, 59, 122
10, 12784, Note_on_c, 8, 61, 0
10, 12786, Note_on_c, 8, 65, 0
10, 12787, Note_on_c, 8, 59, 0
10, 12840, Note_on_c, 8, 59, 110
10, 12840, Note_on_c, 8, 61, 106
10, 12842, Note_on_c, 8, 65, 74
10, 12890, Note_on_c, 8, 61, 0
10, 12896, Note_on_c, 8, 59, 0
10, 12900, Note_on_c, 8, 65, 0
10, 12958, Note_on_c, 8, 50, 58
10, 12959, Note_on_c, 8, 65, 62
10, 12961, Note_on_c, 8, 59, 61
10, 12962, Note_on_c, 8, 62, 66
10, 12968, Note_on_c, 8, 49, 0
10, 13011, Note_on_c, 8, 62, 0
10, 13013, Note_on_c, 8, 59, 0
10, 13017, Note_on_c, 8, 65, 0
10, 13076, Note_on_c, 8, 62, 97
10, 13076, Note_on_c, 8, 65, 87
10, 13078, Note_on_c, 8, 59, 80
10, 13141, Note_on_c, 8, 59, 0
10, 13145, Note_on_c, 8, 62, 0
10, 13146, Note_on_c, 8, 65, 0
10, 13201, Note_on_c, 8, 59, 92
10, 13202, Note_on_c, 8, 65, 103
10, 13202, Note_on_c, 8, 62, 122
10, 13244, Note_on_c, 8, 50, 0
10, 13261, Note_on_c, 8, 50, 65
10, 13267, Note_on_c, 8, 59, 0
10, 13269, Note_on_c, 8, 65, 0
10, 13271, Note_on_c, 8, 62, 0
10, 13320, Note_on_c, 8, 59, 85
10, 13321, Note_on_c, 8, 65, 97
10, 13321, Note_on_c, 8, 62, 113
10, 13346, Note_on_c, 8, 59, 0
10, 13353, Note_on_c, 8, 62, 0
10, 13354, Note_on_c, 8, 65, 0
10, 13436, Note_on_c, 8, 65, 80
10, 13436, Note_on_c, 8, 68, 106
10, 13440, Note_on_c, 8, 72, 74
10, 13440, Note_on_c, 8, 53, 80
10, 13455, Note_on_c, 8, 50, 0
10, 13514, Note_on_c, 8, 65, 0
10, 13514, Note_on_c, 8, 72, 0
10, 13529, Note_on_c, 8, 68, 0
10, 13560, Note_on_c, 8, 65, 94
10, 13560, Note_on_c, 8, 68, 113
10, 13560, Note_on_c, 8, 72, 84
10, 13639, Note_on_c, 8, 72, 0
10, 13641, Note_on_c, 8, 68, 0
10, 13644, Note_on_c, 8, 65, 0
10, 13679, Note_on_c, 8, 53, 0
10, 13679, Note_on_c, 8, 68, 122
10, 13680, Note_on_c, 8, 65, 97
10, 13680, Note_on_c, 8, 72, 82
10, 13688, Note_on_c, 8, 53, 61
10, 13765, Note_on_c, 8, 65, 0
10, 13766, Note_on_c, 8, 68, 0
10, 13766, Note_on_c, 8, 72, 0
10, 13776, Note_on_c, 8, 53, 0
10, 13798, Note_on_c, 8, 65, 76
10, 13799, Note_on_c, 8, 53, 94
10, 13800, Note_on_c, 8, 68, 103
10, 13800, Note_on_c, 8, 72, 77
10, 13881, Note_on_c, 8, 68, 0
10, 13884, Note_on_c, 8, 72, 0
10, 13887, Note_on_c, 8, 65, 0
10, 13918, Note_on_c, 8, 36, 127
10, 13921, Note_on_c, 8, 53, 0
10, 13992, Note_on_c, 8, 52, 76
10, 14022, Note_on_c, 8, 55, 47
10, 14040, Note_on_c, 8, 59, 62
10, 14065, Note_on_c, 8, 64, 53
10, 14089, Note_on_c, 8, 67, 80
10, 14115, Note_on_c, 8, 71, 76
10, 14153, Note_on_c, 8, 76, 106
10, 14333, Note_on_c, 8, 71, 0
10, 14335, Note_on_c, 8, 67, 0
10, 14339, Note_on_c, 8, 76, 0
10, 14342, Note_on_c, 8, 52, 0
10, 14343, Note_on_c, 8, 55, 0
10, 14347, Note_on_c, 8, 59, 0
10, 14350, Note_on_c, 8, 64, 0
10, 14358, Note_on_c, 8, 36, 0
10, 14402, Note_on_c, 8, 34, 127
10, 14511, Note_on_c, 8, 50, 67
10, 14530, Note_on_c, 8, 53, 57
10, 14549, Note_on_c, 8, 57, 56
10, 14567, Note_on_c, 8, 62, 53
10, 14586, Note_on_c, 8, 65, 47
10, 14604, Note_on_c, 8, 69, 58
10, 14623, Note_on_c, 8, 74, 54
10, 14642, Note_on_c, 8, 77, 60
10, 14661, Note_on_c, 8, 81, 56
10, 14679, Note_on_c, 8, 86, 69
10, 14698, Note_on_c, 8, 89, 70
10, 14717, Note_on_c, 8, 93, 62
10, 14819, Note_on_c, 8, 50, 0
10, 14819, Note_on_c, 8, 53, 0
10, 14819, Note_on_c, 8, 57, 0
10, 14819, Note_on_c, 8, 62, 0
10, 14819, Note_on_c, 8, 65, 0
10, 14819, Note_on_c, 8, 69, 0
10, 14819, Note_on_c, 8, 74, 0
10, 14819, Note_on_c, 8, 77, 0
10, 14819, Note_on_c, 8, 81, 0
10, 14819, Note_on_c, 8, 86, 0
10, 14819, Note_on_c, 8, 89, 0
10, 14819, Note_on_c, 8, 93, 0
10, 14838, Note_on_c, 8, 34, 0
10, 14888, Note_on_c, 8, 36, 122
10, 15039, Note_on_c, 8, 71, 54
10, 15059, Note_on_c, 8, 74, 68
10, 15085, Note_on_c, 8, 79, 43
10, 15092, Note_on_c, 8, 83, 84
10, 15111, Note_on_c, 8, 86, 100
10, 15130, Note_on_c, 8, 91, 90
10, 15275, Note_on_c, 8, 83, 0
10, 15277, Note_on_c, 8, 86, 0
10, 15280, Note_on_c, 8, 91, 0
10, 15292, Note_on_c, 8, 71, 0
10, 15300, Note_on_c, 8, 74, 0
10, 15306, Note_on_c, 8, 79, 0
10, 15315, Note_on_c, 8, 36, 0
10, 15361, Note_on_c, 8, 34, 127
10, 15457, Note_on_c, 8, 62, 103
10, 15472, Note_on_c, 8, 65, 82
10, 15488, Note_on_c, 8, 69, 84
10, 15504, Note_on_c, 8, 72, 87
10, 15520, Note_on_c, 8, 74, 90
10, 15536, Note_on_c, 8, 77, 70
10, 15552, Note_on_c, 8, 81, 85
10, 15568, Note_on_c, 8, 86, 74
10, 15600, Note_on_c, 8, 91, 62
10, 15615, Note_on_c, 8, 86, 77
10, 15618, Note_on_c, 8, 86, 0
10, 15631, Note_on_c, 8, 84, 70
10, 15647, Note_on_c, 8, 81, 77
10, 15648, Note_on_c, 8, 81, 0
10, 15663, Note_on_c, 8, 77, 0
10, 15663, Note_on_c, 8, 77, 70
10, 15678, Note_on_c, 8, 74, 0
10, 15679, Note_on_c, 8, 74, 77
10, 15693, Note_on_c, 8, 72, 0
10, 15694, Note_on_c, 8, 72, 74
10, 15708, Note_on_c, 8, 69, 0
10, 15711, Note_on_c, 8, 69, 77
10, 15723, Note_on_c, 8, 65, 0
10, 15726, Note_on_c, 8, 67, 76
10, 15742, Note_on_c, 8, 65, 85
10, 15753, Note_on_c, 8, 62, 0
10, 15758, Note_on_c, 8, 62, 77
10, 15774, Note_on_c, 8, 60, 70
10, 15790, Note_on_c, 8, 57, 60
10, 15800, Note_on_c, 8, 34, 0
10, 15806, Note_on_c, 8, 53, 67
10, 15813, Note_on_c, 8, 60, 0
10, 15828, Note_on_c, 8, 77, 0
10, 15828, Note_on_c, 8, 74, 0
10, 15828, Note_on_c, 8, 72, 0
10, 15828, Note_on_c, 8, 69, 0
10, 15828, Note_on_c, 8, 67, 0
10, 15828, Note_on_c, 8, 65, 0
10, 15828, Note_on_c, 8, 62, 0
10, 15828, Note_on_c, 8, 57, 0
10, 15828, Note_on_c, 8, 53, 0
10, 15840, Note_on_c, 8, 68, 100
10, 15840, Note_on_c, 8, 63, 62
10, 15841, Note_on_c, 8, 65, 74
10, 15843, Note_on_c, 8, 91, 0
10, 15843, Note_on_c, 8, 86, 0
10, 15843, Note_on_c, 8, 84, 0
10, 15843, Note_on_c, 8, 81, 0
10, 15844, Note_on_c, 8, 53, 62
10, 15873, Note_on_c, 8, 63, 0
10, 15896, Note_on_c, 8, 68, 0
10, 15899, Note_on_c, 8, 65, 0
10, 15956, Note_on_c, 8, 63, 78
10, 15960, Note_on_c, 8, 68, 103
10, 15960, Note_on_c, 8, 65, 74
10, 16020, Note_on_c, 8, 63, 0
10, 16020, Note_on_c, 8, 65, 0
10, 16022, Note_on_c, 8, 68, 0
10, 16073, Note_on_c, 8, 63, 82
10, 16077, Note_on_c, 8, 65, 82
10, 16078, Note_on_c, 8, 68, 118
10, 16121, Note_on_c, 8, 53, 0
10, 16138, Note_on_c, 8, 53, 74
10, 16160, Note_on_c, 8, 63, 0
10, 16161, Note_on_c, 8, 65, 0
10, 16163, Note_on_c, 8, 68, 0
10, 16196, Note_on_c, 8, 63, 77
10, 16197, Note_on_c, 8, 68, 122
10, 16200, Note_on_c, 8, 65, 77
10, 16242, Note_on_c, 8, 53, 0
10, 16260, Note_on_c, 8, 53, 69
10, 16269, Note_on_c, 8, 68, 0
10, 16273, Note_on_c, 8, 63, 0
10, 16275, Note_on_c, 8, 65, 0
10, 16317, Note_on_c, 8, 62, 84
10, 16320, Note_on_c, 8, 65, 92
10, 16323, Note_on_c, 8, 68, 106
10, 16386, Note_on_c, 8, 62, 0
10, 16386, Note_on_c, 8, 65, 0
10, 16387, Note_on_c, 8, 68, 0
10, 16437, Note_on_c, 8, 62, 97
10, 16441, Note_on_c, 8, 65, 90
10, 16441, Note_on_c, 8, 68, 110
10, 16511, Note_on_c, 8, 62, 0
10, 16512, Note_on_c, 8, 68, 0
10, 16513, Note_on_c, 8, 65, 0
10, 16562, Note_on_c, 8, 62, 90
10, 16565, Note_on_c, 8, 65, 92
10, 16567, Note_on_c, 8, 68, 110
10, 16630, Note_on_c, 8, 62, 0
10, 16630, Note_on_c, 8, 65, 0
10, 16631, Note_on_c, 8, 68, 0
10, 16677, Note_on_c, 8, 62, 77
10, 16680, Note_on_c, 8, 65, 72
10, 16681, Note_on_c, 8, 68, 90
10, 16720, Note_on_c, 8, 62, 0
10, 16727, Note_on_c, 8, 68, 0
10, 16729, Note_on_c, 8, 65, 0
10, 16799, Note_on_c, 8, 52, 61
10, 16801, Note_on_c, 8, 53, 0
10, 16802, Note_on_c, 8, 64, 100
10, 16802, Note_on_c, 8, 69, 103
10, 16802, Note_on_c, 8, 71, 90
10, 16802, Note_on_c, 8, 72, 87
10, 16853, Note_on_c, 8, 72, 0
10, 16877, Note_on_c, 8, 71, 0
10, 16879, Note_on_c, 8, 69, 0
10, 16882, Note_on_c, 8, 64, 0
10, 16921, Note_on_c, 8, 69, 118
10, 16922, Note_on_c, 8, 71, 94
10, 16922, Note_on_c, 8, 64, 80
10, 17000, Note_on_c, 8, 71, 0
10, 17001, Note_on_c, 8, 64, 0
10, 17010, Note_on_c, 8, 69, 0
10, 17039, Note_on_c, 8, 69, 82
10, 17040, Note_on_c, 8, 64, 59
10, 17041, Note_on_c, 8, 71, 69
10, 17103, Note_on_c, 8, 40, 58
10, 17132, Note_on_c, 8, 71, 0
10, 17134, Note_on_c, 8, 69, 0
10, 17137, Note_on_c, 8, 64, 0
10, 17161, Note_on_c, 8, 64, 56
10, 17162, Note_on_c, 8, 71, 62
10, 17162, Note_on_c, 8, 69, 68
10, 17182, Note_on_c, 8, 40, 0
10, 17221, Note_on_c, 8, 40, 55
10, 17252, Note_on_c, 8, 52, 0
10, 17260, Note_on_c, 8, 71, 0
10, 17262, Note_on_c, 8, 69, 0
10, 17265, Note_on_c, 8, 64, 0
10, 17282, Note_on_c, 8, 69, 67
10, 17283, Note_on_c, 8, 64, 60
10, 17283, Note_on_c, 8, 71, 62
10, 17369, Note_on_c, 8, 64, 0
10, 17370, Note_on_c, 8, 71, 0
10, 17371, Note_on_c, 8, 69, 0
10, 17401, Note_on_c, 8, 69, 66
10, 17401, Note_on_c, 8, 64, 62
10, 17402, Note_on_c, 8, 71, 61
10, 17454, Note_on_c, 8, 40, 0
10, 17463, Note_on_c, 8, 40, 59
10, 17493, Note_on_c, 8, 64, 0
10, 17495, Note_on_c, 8, 69, 0
10, 17496, Note_on_c, 8, 71, 0
10, 17522, Note_on_c, 8, 64, 61
10, 17522, Note_on_c, 8, 69, 76
10, 17522, Note_on_c, 8, 71, 63
10, 17561, Note_on_c, 8, 40, 0
10, 17582, Note_on_c, 8, 40, 78
10, 17604, Note_on_c, 8, 71, 0
10, 17607, Note_on_c, 8, 69, 0
10, 17609, Note_on_c, 8, 64, 0
10, 17641, Note_on_c, 8, 64, 68
10, 17641, Note_on_c, 8, 69, 94
10, 17641, Note_on_c, 8, 71, 72
10, 17677, Note_on_c, 8, 69, 0
10, 17677, Note_on_c, 8, 71, 0
10, 17687, Note_on_c, 8, 64, 0
10, 17762, Note_on_c, 8, 40, 0
10, 17768, Note_on_c, 8, 45, 67
10, 17770, Note_on_c, 8, 67, 66
10, 17770, Note_on_c, 8, 64, 67
10, 17772, Note_on_c, 8, 62, 56
10, 17923, Note_on_c, 8, 67, 0
10, 17940, Note_on_c, 8, 67, 63
10, 17979, Note_on_c, 8, 67, 0
10, 17981, Note_on_c, 8, 64, 0
10, 17983, Note_on_c, 8, 62, 0
10, 17991, Note_on_c, 8, 45, 0
10, 17995, Note_on_c, 8, 43, 72
10, 18001, Note_on_c, 8, 64, 69
10, 18003, Note_on_c, 8, 67, 72
10, 18003, Note_on_c, 8, 62, 58
10, 18088, Note_on_c, 8, 67, 0
10, 18093, Note_on_c, 8, 64, 0
10, 18094, Note_on_c, 8, 62, 0
10, 18107, Note_on_c, 8, 43, 0
10, 18121, Note_on_c, 8, 41, 87
10, 18125, Note_on_c, 8, 62, 85
10, 18125, Note_on_c, 8, 60, 72
10, 18125, Note_on_c, 8, 65, 84
10, 18206, Note_on_c, 8, 60, 0
10, 18209, Note_on_c, 8, 62, 0
10, 18210, Note_on_c, 8, 65, 0
10, 18220, Note_on_c, 8, 41, 0
10, 18234, Note_on_c, 8, 36, 77
10, 18236, Note_on_c, 8, 64, 78
10, 18237, Note_on_c, 8, 67, 77
10, 18239, Note_on_c, 8, 62, 64
10, 18413, Note_on_c, 8, 36, 0
10, 18418, Note_on_c, 8, 64, 0
10, 18421, Note_on_c, 8, 67, 0
10, 18423, Note_on_c, 8, 36, 70
10, 18427, Note_on_c, 8, 67, 52
10, 18428, Note_on_c, 8, 64, 82
10, 18523, Note_on_c, 8, 67, 0
10, 18524, Note_on_c, 8, 64, 0
10, 18525, Note_on_c, 8, 62, 0
10, 18539, Note_on_c, 8, 64, 69
10, 18541, Note_on_c, 8, 67, 73
10, 18541, Note_on_c, 8, 62, 61
10, 18706, Note_on_c, 8, 67, 0
10, 18707, Note_on_c, 8, 64, 0
10, 18711, Note_on_c, 8, 62, 0
10, 18722, Note_on_c, 8, 67, 74
10, 18722, Note_on_c, 8, 45, 68
10, 18724, Note_on_c, 8, 36, 0
10, 18725, Note_on_c, 8, 64, 84
10, 18725, Note_on_c, 8, 62, 72
10, 18928, Note_on_c, 8, 67, 0
10, 18931, Note_on_c, 8, 64, 0
10, 18934, Note_on_c, 8, 62, 0
10, 18947, Note_on_c, 8, 45, 0
10, 18949, Note_on_c, 8, 43, 87
10, 18953, Note_on_c, 8, 67, 84
10, 18954, Note_on_c, 8, 62, 68
10, 18955, Note_on_c, 8, 64, 78
10, 19051, Note_on_c, 8, 67, 0
10, 19051, Note_on_c, 8, 64, 0
10, 19054, Note_on_c, 8, 62, 0
10, 19076, Note_on_c, 8, 43, 0
10, 19078, Note_on_c, 8, 41, 100
10, 19080, Note_on_c, 8, 60, 78
10, 19080, Note_on_c, 8, 65, 84
10, 19081, Note_on_c, 8, 62, 90
10, 19164, Note_on_c, 8, 62, 0
10, 19165, Note_on_c, 8, 60, 0
10, 19166, Note_on_c, 8, 65, 0
10, 19192, Note_on_c, 8, 41, 0
10, 19197, Note_on_c, 8, 36, 106
10, 19197, Note_on_c, 8, 67, 87
10, 19198, Note_on_c, 8, 64, 97
10, 19199, Note_on_c, 8, 62, 78
10, 19360, Note_on_c, 8, 64, 0
10, 19362, Note_on_c, 8, 67, 0
10, 19364, Note_on_c, 8, 62, 0
10, 19378, Note_on_c, 8, 62, 67
10, 19379, Note_on_c, 8, 67, 84
10, 19379, Note_on_c, 8, 64, 92
10, 19599, Note_on_c, 8, 64, 0
10, 19601, Note_on_c, 8, 62, 0
10, 19609, Note_on_c, 8, 67, 0
10, 19613, Note_on_c, 8, 36, 0
10, 19669, Note_on_c, 8, 64, 52
10, 19670, Note_on_c, 8, 60, 56
10, 19672, Note_on_c, 8, 57, 52
10, 19675, Note_on_c, 8, 45, 46
10, 19888, Note_on_c, 8, 57, 0
10, 19899, Note_on_c, 8, 60, 0
10, 19903, Note_on_c, 8, 64, 0
10, 19913, Note_on_c, 8, 45, 0
10, 19919, Note_on_c, 8, 44, 57
10, 19919, Note_on_c, 8, 64, 44
10, 19921, Note_on_c, 8, 60, 59
10, 19921, Note_on_c, 8, 56, 56
10, 20147, Note_on_c, 8, 60, 0
10, 20149, Note_on_c, 8, 56, 0
10, 20156, Note_on_c, 8, 64, 0
10, 20161, Note_on_c, 8, 60, 59
10, 20161, Note_on_c, 8, 43, 58
10, 20162, Note_on_c, 8, 55, 51
10, 20162, Note_on_c, 8, 62, 44
10, 20169, Note_on_c, 8, 44, 0
10, 20387, Note_on_c, 8, 60, 0
10, 20398, Note_on_c, 8, 63, 51
10, 20399, Note_on_c, 8, 62, 0
10, 20399, Note_on_c, 8, 61, 45
10, 20399, Note_on_c, 8, 65, 51
10, 20399, Note_on_c, 8, 57, 47
10, 20401, Note_on_c, 8, 37, 64
10, 20404, Note_on_c, 8, 55, 0
10, 20416, Note_on_c, 8, 43, 0
10, 20605, Note_on_c, 8, 37, 0
10, 20616, Note_on_c, 8, 63, 0
10, 20617, Note_on_c, 8, 65, 0
10, 20618, Note_on_c, 8, 61, 0
10, 20622, Note_on_c, 8, 57, 0
10, 20641, Note_on_c, 8, 53, 63
10, 20641, Note_on_c, 8, 58, 57
10, 20646, Note_on_c, 8, 50, 67
10, 20818, Note_on_c, 8, 50, 0
10, 20843, Note_on_c, 8, 53, 0
10, 20850, Note_on_c, 8, 58, 0
10, 20880, Note_on_c, 8, 56, 70
10, 20881, Note_on_c, 8, 53, 70
10, 20883, Note_on_c, 8, 60, 74
10, 21093, Note_on_c, 8, 56, 0
10, 21096, Note_on_c, 8, 60, 0
10, 21098, Note_on_c, 8, 53, 0
10, 21121, Note_on_c, 8, 53, 78
10, 21124, Note_on_c, 8, 59, 72
10, 21124, Note_on_c, 8, 62, 76
10, 21124, Note_on_c, 8, 65, 82
10, 21125, Note_on_c, 8, 64, 65
10, 21125, Note_on_c, 8, 76, 82
10, 21125, Note_on_c, 8, 56, 63
10, 21127, Note_on_c, 8, 68, 110
10, 21128, Note_on_c, 8, 71, 90
10, 21547, Note_on_c, 8, 53, 0
10, 21552, Note_on_c, 8, 56, 0
10, 21553, Note_on_c, 8, 59, 0
10, 21554, Note_on_c, 8, 62, 0
10, 21558, Note_on_c, 8, 64, 0
10, 21567, Note_on_c, 8, 65, 0
10, 21570, Note_on_c, 8, 76, 0
10, 21570, Note_on_c, 8, 71, 0
10, 21572, Note_on_c, 8, 68, 0
10, 21590, Note_on_c, 8, 64, 99
10, 21591, Note_on_c, 8, 68, 105
10, 21592, Note_on_c, 8, 47, 89
10, 21592, Note_on_c, 8, 59, 106
10, 21594, Note_on_c, 8, 40, 100
10, 21712, Note_on_c, 8, 59, 0
10, 21714, Note_on_c, 8, 64, 0
10, 21725, Note_on_c, 8, 64, 117
10, 21726, Note_on_c, 8, 59, 93
10, 21762, Note_on_c, 8, 64, 0
10, 21763, Note_on_c, 8, 59, 0
10, 21764, Note_on_c, 8, 68, 0
10, 21779, Note_on_c, 8, 68, 127
10, 21781, Note_on_c, 8, 59, 117
10, 21781, Note_on_c, 8, 64, 127
10, 21883, Note_on_c, 8, 40, 0
10, 21903, Note_on_c, 8, 40, 101
10, 21916, Note_on_c, 8, 47, 0
10, 21959, Note_on_c, 8, 47, 58
10, 21972, Note_on_c, 8, 59, 0
10, 21973, Note_on_c, 8, 64, 0
10, 21980, Note_on_c, 8, 68, 0
10, 22021, Note_on_c, 8, 64, 101
10, 22022, Note_on_c, 8, 59, 88
10, 22022, Note_on_c, 8, 68, 87
10, 22195, Note_on_c, 8, 40, 0
10, 22207, Note_on_c, 8, 40, 84
10, 22254, Note_on_c, 8, 59, 0
10, 22255, Note_on_c, 8, 64, 0
10, 22255, Note_on_c, 8, 68, 0
10, 22268, Note_on_c, 8, 59, 79
10, 22268, Note_on_c, 8, 64, 93
10, 22268, Note_on_c, 8, 68, 79
10, 22314, Note_on_c, 8, 47, 0
10, 22386, Note_on_c, 8, 47, 93
10, 22399, Note_on_c, 8, 59, 0
10, 22404, Note_on_c, 8, 64, 0
10, 22407, Note_on_c, 8, 68, 0
10, 22440, Note_on_c, 8, 64, 100
10, 22443, Note_on_c, 8, 59, 101
10, 22445, Note_on_c, 8, 68, 62
10, 22480, Note_on_c, 8, 40, 0
10, 22497, Note_on_c, 8, 68, 0
10, 22501, Note_on_c, 8, 64, 0
10, 22504, Note_on_c, 8, 40, 82
10, 22508, Note_on_c, 8, 59, 0
10, 22545, Note_on_c, 8, 40, 0
10, 22567, Note_on_c, 8, 61, 79
10, 22568, Note_on_c, 8, 58, 92
10, 22569, Note_on_c, 8, 64, 70
10, 22570, Note_on_c, 8, 42, 87
10, 22579, Note_on_c, 8, 47, 0
10, 22601, Note_on_c, 8, 42, 0
10, 22620, Note_on_c, 8, 42, 101
10, 22677, Note_on_c, 8, 58, 0
10, 22681, Note_on_c, 8, 61, 0
10, 22682, Note_on_c, 8, 64, 0
10, 22738, Note_on_c, 8, 61, 101
10, 22738, Note_on_c, 8, 64, 93
10, 22739, Note_on_c, 8, 58, 101
10, 22863, Note_on_c, 8, 49, 93
10, 22920, Note_on_c, 8, 52, 98
10, 22929, Note_on_c, 8, 58, 0
10, 22933, Note_on_c, 8, 61, 0
10, 22936, Note_on_c, 8, 64, 0
10, 22936, Note_on_c, 8, 49, 0
10, 22973, Note_on_c, 8, 61, 101
10, 22974, Note_on_c, 8, 58, 101
10, 22974, Note_on_c, 8, 64, 88
10, 23187, Note_on_c, 8, 42, 0
10, 23216, Note_on_c, 8, 52, 0
10, 23221, Note_on_c, 8, 42, 101
10, 23245, Note_on_c, 8, 58, 0
10, 23249, Note_on_c, 8, 61, 0
10, 23251, Note_on_c, 8, 64, 0
10, 23285, Note_on_c, 8, 58, 70
10, 23347, Note_on_c, 8, 64, 65
10, 23348, Note_on_c, 8, 61, 100
10, 23470, Note_on_c, 8, 64, 0
10, 23477, Note_on_c, 8, 58, 0
10, 23482, Note_on_c, 8, 61, 0
10, 23523, Note_on_c, 8, 42, 0
10, 23525, Note_on_c, 8, 55, 101
10, 23526, Note_on_c, 8, 59, 101
10, 23527, Note_on_c, 8, 62, 101
10, 23527, Note_on_c, 8, 43, 101
10, 23644, Note_on_c, 8, 59, 0
10, 23657, Note_on_c, 8, 55, 0
10, 23662, Note_on_c, 8, 62, 0
10, 23696, Note_on_c, 8, 62, 101
10, 23697, Note_on_c, 8, 59, 101
10, 23700, Note_on_c, 8, 65, 96
10, 23701, Note_on_c, 8, 55, 101
10, 23793, Note_on_c, 8, 43, 0
10, 23821, Note_on_c, 8, 43, 101
10, 23852, Note_on_c, 8, 59, 0
10, 23852, Note_on_c, 8, 55, 0
10, 23873, Note_on_c, 8, 62, 0
10, 23904, Note_on_c, 8, 65, 0
10, 23939, Note_on_c, 8, 62, 101
10, 23940, Note_on_c, 8, 65, 82
10, 23942, Note_on_c, 8, 59, 98
10, 23942, Note_on_c, 8, 55, 101
10, 24026, Note_on_c, 8, 43, 0
10, 24063, Note_on_c, 8, 43, 101
10, 24090, Note_on_c, 8, 55, 0
10, 24107, Note_on_c, 8, 59, 0
10, 24111, Note_on_c, 8, 62, 0
10, 24121, Note_on_c, 8, 55, 79
10, 24141, Note_on_c, 8, 65, 0
10, 24158, Note_on_c, 8, 55, 0
10, 24180, Note_on_c, 8, 55, 62
10, 24181, Note_on_c, 8, 65, 91
10, 24181, Note_on_c, 8, 59, 74
10, 24181, Note_on_c, 8, 62, 91
10, 24217, Note_on_c, 8, 43, 0
10, 24240, Note_on_c, 8, 43, 60
10, 24271, Note_on_c, 8, 55, 0
10, 24279, Note_on_c, 8, 62, 0
10, 24280, Note_on_c, 8, 59, 0
10, 24283, Note_on_c, 8, 65, 0
10, 24298, Note_on_c, 8, 55, 74
10, 24299, Note_on_c, 8, 65, 74
10, 24299, Note_on_c, 8, 62, 70
10, 24299, Note_on_c, 8, 59, 76
10, 24340, Note_on_c, 8, 43, 0
10, 24361, Note_on_c, 8, 43, 101
10, 24411, Note_on_c, 8, 55, 0
10, 24418, Note_on_c, 8, 55, 101
10, 24422, Note_on_c, 8, 62, 0
10, 24424, Note_on_c, 8, 59, 0
10, 24431, Note_on_c, 8, 65, 0
10, 24438, Note_on_c, 8, 55, 0
10, 24470, Note_on_c, 8, 57, 74
10, 24471, Note_on_c, 8, 52, 70
10, 24472, Note_on_c, 8, 61, 64
10, 24477, Note_on_c, 8, 45, 91
10, 24480, Note_on_c, 8, 43, 0
10, 24636, Note_on_c, 8, 52, 0
10, 24644, Note_on_c, 8, 57, 0
10, 24648, Note_on_c, 8, 61, 0
10, 24655, Note_on_c, 8, 61, 67
10, 24657, Note_on_c, 8, 57, 88
10, 24657, Note_on_c, 8, 52, 96
10, 24723, Note_on_c, 8, 40, 93
10, 24737, Note_on_c, 8, 45, 0
10, 24744, Note_on_c, 8, 52, 0
10, 24754, Note_on_c, 8, 57, 0
10, 24755, Note_on_c, 8, 61, 0
10, 24773, Note_on_c, 8, 61, 70
10, 24774, Note_on_c, 8, 57, 79
10, 24774, Note_on_c, 8, 52, 87
10, 24883, Note_on_c, 8, 61, 0
10, 24884, Note_on_c, 8, 57, 0
10, 24884, Note_on_c, 8, 52, 0
10, 24896, Note_on_c, 8, 61, 86
10, 24897, Note_on_c, 8, 40, 0
10, 24898, Note_on_c, 8, 57, 101
10, 24898, Note_on_c, 8, 52, 82
10, 24902, Note_on_c, 8, 33, 96
10, 24994, Note_on_c, 8, 33, 0
10, 25012, Note_on_c, 8, 33, 101
10, 25019, Note_on_c, 8, 52, 0
10, 25020, Note_on_c, 8, 57, 0
10, 25022, Note_on_c, 8, 61, 0
10, 25077, Note_on_c, 8, 61, 84
10, 25077, Note_on_c, 8, 57, 98
10, 25078, Note_on_c, 8, 52, 91
10, 25232, Note_on_c, 8, 52, 0
10, 25234, Note_on_c, 8, 61, 0
10, 25235, Note_on_c, 8, 57, 0
10, 25240, Note_on_c, 8, 33, 0
10, 25253, Note_on_c, 8, 33, 100
10, 25254, Note_on_c, 8, 57, 101
10, 25255, Note_on_c, 8, 52, 93
10, 25255, Note_on_c, 8, 61, 93
10, 25328, Note_on_c, 8, 33, 0
10, 25343, Note_on_c, 8, 33, 63
10, 25360, Note_on_c, 8, 33, 0
10, 25384, Note_on_c, 8, 33, 96
10, 25397, Note_on_c, 8, 57, 0
10, 25398, Note_on_c, 8, 52, 0
10, 25401, Note_on_c, 8, 61, 0
10, 25411, Note_on_c, 8, 33, 0
10, 25436, Note_on_c, 8, 62, 86
10, 25439, Note_on_c, 8, 58, 101
10, 25441, Note_on_c, 8, 34, 101
10, 25441, Note_on_c, 8, 53, 101
10, 25704, Note_on_c, 8, 53, 0
10, 25708, Note_on_c, 8, 58, 0
10, 25710, Note_on_c, 8, 62, 0
10, 25733, Note_on_c, 8, 53, 87
10, 25735, Note_on_c, 8, 58, 101
10, 25735, Note_on_c, 8, 62, 101
10, 25774, Note_on_c, 8, 34, 0
10, 25791, Note_on_c, 8, 34, 53
10, 25828, Note_on_c, 8, 34, 0
10, 25858, Note_on_c, 8, 34, 75
10, 25914, Note_on_c, 8, 58, 0
10, 25918, Note_on_c, 8, 53, 0
10, 25920, Note_on_c, 8, 46, 101
10, 25925, Note_on_c, 8, 62, 0
10, 25975, Note_on_c, 8, 53, 74
10, 25980, Note_on_c, 8, 62, 74
10, 26039, Note_on_c, 8, 53, 0
10, 26043, Note_on_c, 8, 53, 58
10, 26090, Note_on_c, 8, 53, 0
10, 26092, Note_on_c, 8, 62, 0
10, 26093, Note_on_c, 8, 58, 101
10, 26095, Note_on_c, 8, 53, 96
10, 26096, Note_on_c, 8, 62, 91
10, 26188, Note_on_c, 8, 34, 0
10, 26223, Note_on_c, 8, 34, 69
10, 26252, Note_on_c, 8, 46, 0
10, 26287, Note_on_c, 8, 46, 91
10, 26291, Note_on_c, 8, 58, 0
10, 26294, Note_on_c, 8, 62, 0
10, 26296, Note_on_c, 8, 53, 0
10, 26343, Note_on_c, 8, 53, 60
10, 26344, Note_on_c, 8, 58, 82
10, 26344, Note_on_c, 8, 62, 86
10, 26392, Note_on_c, 8, 58, 0
10, 26396, Note_on_c, 8, 34, 0
10, 26396, Note_on_c, 8, 53, 0
10, 26396, Note_on_c, 8, 48, 88
10, 26396, Note_on_c, 8, 36, 81
10, 26396, Note_on_c, 8, 24, 82
10, 26397, Note_on_c, 8, 46, 0
10, 26397, Note_on_c, 8, 62, 0
10, 26397, Note_on_c, 8, 55, 88
10, 26558, Note_on_c, 8, 24, 0
10, 26568, Note_on_c, 8, 24, 93
10, 26666, Note_on_c, 8, 36, 0
10, 26700, Note_on_c, 8, 36, 88
10, 26722, Note_on_c, 8, 48, 0
10, 26759, Note_on_c, 8, 48, 101
10, 26869, Note_on_c, 8, 24, 0
10, 27109, Note_on_c, 8, 36, 0
10, 27155, Note_on_c, 8, 48, 0
10, 27352, Note_on_c, 8, 55, 0
10, 27356, Note_on_c, 8, 56, 75
10, 27357, Note_on_c, 8, 53, 79
10, 27358, Note_on_c, 8, 61, 67
10, 27360, Note_on_c, 8, 49, 74
10, 27361, Note_on_c, 8, 37, 70
10, 27513, Note_on_c, 8, 37, 0
10, 27658, Note_on_c, 8, 37, 60
10, 27690, Note_on_c, 8, 49, 0
10, 27908, Note_on_c, 8, 49, 84
10, 27983, Note_on_c, 8, 56, 0
10, 27983, Note_on_c, 8, 53, 0
10, 27984, Note_on_c, 8, 61, 0
10, 28009, Note_on_c, 8, 53, 84
10, 28010, Note_on_c, 8, 56, 74
10, 28012, Note_on_c, 8, 61, 67
10, 28105, Note_on_c, 8, 37, 0
10, 28137, Note_on_c, 8, 37, 67
10, 28156, Note_on_c, 8, 49, 0
10, 28197, Note_on_c, 8, 49, 65
10, 28250, Note_on_c, 8, 53, 0
10, 28252, Note_on_c, 8, 53, 48
10, 28267, Note_on_c, 8, 56, 0
10, 28269, Note_on_c, 8, 37, 0
10, 28271, Note_on_c, 8, 61, 0
10, 28272, Note_on_c, 8, 53, 0
10, 28284, Note_on_c, 8, 49, 0
10, 28315, Note_on_c, 8, 39, 64
10, 28316, Note_on_c, 8, 63, 81
10, 28316, Note_on_c, 8, 55, 87
10, 28316, Note_on_c, 8, 58, 80
10, 28476, Note_on_c, 8, 55, 0
10, 28479, Note_on_c, 8, 63, 0
10, 28481, Note_on_c, 8, 58, 0
10, 28491, Note_on_c, 8, 58, 74
10, 28491, Note_on_c, 8, 55, 87
10, 28492, Note_on_c, 8, 63, 70
10, 28623, Note_on_c, 8, 51, 53
10, 28679, Note_on_c, 8, 51, 0
10, 28680, Note_on_c, 8, 51, 86
10, 28721, Note_on_c, 8, 55, 0
10, 28722, Note_on_c, 8, 58, 0
10, 28725, Note_on_c, 8, 63, 0
10, 28742, Note_on_c, 8, 55, 101
10, 28743, Note_on_c, 8, 58, 86
10, 28743, Note_on_c, 8, 63, 75
10, 28831, Note_on_c, 8, 39, 0
10, 28861, Note_on_c, 8, 39, 58
10, 28916, Note_on_c, 8, 39, 0
10, 28922, Note_on_c, 8, 39, 48
10, 28972, Note_on_c, 8, 39, 0
10, 28978, Note_on_c, 8, 39, 93
10, 29080, Note_on_c, 8, 51, 0
10, 29098, Note_on_c, 8, 51, 101
10, 29112, Note_on_c, 8, 55, 0
10, 29113, Note_on_c, 8, 58, 0
10, 29116, Note_on_c, 8, 63, 0
10, 29153, Note_on_c, 8, 55, 101
10, 29154, Note_on_c, 8, 58, 101
10, 29155, Note_on_c, 8, 63, 81
10, 29180, Note_on_c, 8, 39, 0
10, 29208, Note_on_c, 8, 55, 0
10, 29211, Note_on_c, 8, 58, 0
10, 29212, Note_on_c, 8, 39, 74
10, 29214, Note_on_c, 8, 63, 0
10, 29254, Note_on_c, 8, 39, 0
10, 29274, Note_on_c, 8, 59, 92
10, 29278, Note_on_c, 8, 56, 87
10, 29278, Note_on_c, 8, 64, 74
10, 29279, Note_on_c, 8, 40, 98
10, 29293, Note_on_c, 8, 51, 0
10, 29438, Note_on_c, 8, 56, 0
10, 29439, Note_on_c, 8, 59, 0
10, 29442, Note_on_c, 8, 64, 0
10, 29454, Note_on_c, 8, 64, 68
10, 29455, Note_on_c, 8, 56, 60
10, 29455, Note_on_c, 8, 59, 77
10, 29456, Note_on_c, 8, 62, 72
10, 29558, Note_on_c, 8, 40, 0
10, 29576, Note_on_c, 8, 40, 74
10, 29599, Note_on_c, 8, 56, 0
10, 29639, Note_on_c, 8, 56, 57
10, 29664, Note_on_c, 8, 56, 0
10, 29668, Note_on_c, 8, 64, 0
10, 29669, Note_on_c, 8, 59, 0
10, 29669, Note_on_c, 8, 62, 0
10, 29692, Note_on_c, 8, 59, 101
10, 29694, Note_on_c, 8, 56, 98
10, 29694, Note_on_c, 8, 62, 101
10, 29695, Note_on_c, 8, 64, 96
10, 29817, Note_on_c, 8, 52, 87
10, 29835, Note_on_c, 8, 56, 0
10, 29862, Note_on_c, 8, 59, 0
10, 29864, Note_on_c, 8, 64, 0
10, 29866, Note_on_c, 8, 62, 0
10, 29881, Note_on_c, 8, 56, 51
10, 29901, Note_on_c, 8, 56, 0
10, 29932, Note_on_c, 8, 56, 70
10, 29934, Note_on_c, 8, 62, 101
10, 29935, Note_on_c, 8, 59, 91
10, 29935, Note_on_c, 8, 64, 82
10, 29975, Note_on_c, 8, 40, 0
10, 30049, Note_on_c, 8, 56, 0
10, 30056, Note_on_c, 8, 56, 60
10, 30113, Note_on_c, 8, 40, 65
10, 30114, Note_on_c, 8, 59, 0
10, 30118, Note_on_c, 8, 62, 0
10, 30124, Note_on_c, 8, 56, 0
10, 30126, Note_on_c, 8, 52, 0
10, 30127, Note_on_c, 8, 64, 0
10, 30163, Note_on_c, 8, 40, 0
10, 30172, Note_on_c, 8, 58, 101
10, 30174, Note_on_c, 8, 64, 77
10, 30174, Note_on_c, 8, 61, 72
10, 30185, Note_on_c, 8, 42, 74
10, 30211, Note_on_c, 8, 42, 0
10, 30235, Note_on_c, 8, 42, 79
10, 30272, Note_on_c, 8, 58, 0
10, 30274, Note_on_c, 8, 64, 0
10, 30274, Note_on_c, 8, 61, 0
10, 30294, Note_on_c, 8, 64, 74
10, 30294, Note_on_c, 8, 58, 84
10, 30295, Note_on_c, 8, 61, 80
10, 30420, Note_on_c, 8, 54, 101
10, 30572, Note_on_c, 8, 58, 0
10, 30575, Note_on_c, 8, 61, 0
10, 30577, Note_on_c, 8, 64, 0
10, 30602, Note_on_c, 8, 64, 75
10, 30602, Note_on_c, 8, 58, 81
10, 30603, Note_on_c, 8, 61, 80
10, 30633, Note_on_c, 8, 42, 0
10, 30659, Note_on_c, 8, 42, 101
10, 30690, Note_on_c, 8, 54, 0
10, 30772, Note_on_c, 8, 54, 72
10, 30786, Note_on_c, 8, 61, 0
10, 30787, Note_on_c, 8, 58, 0
10, 30794, Note_on_c, 8, 64, 0
10, 30892, Note_on_c, 8, 58, 101
10, 30893, Note_on_c, 8, 61, 92
10, 30893, Note_on_c, 8, 64, 76
10, 30959, Note_on_c, 8, 42, 0
10, 30960, Note_on_c, 8, 42, 68
10, 31024, Note_on_c, 8, 54, 0
10, 31075, Note_on_c, 8, 58, 0
10, 31081, Note_on_c, 8, 54, 72
10, 31140, Note_on_c, 8, 58, 91
10, 31184, Note_on_c, 8, 42, 0
10, 31184, Note_on_c, 8, 54, 0
10, 31205, Note_on_c, 8, 61, 0
10, 31206, Note_on_c, 8, 43, 75
10, 31207, Note_on_c, 8, 58, 0
10, 31212, Note_on_c, 8, 64, 0
10, 31260, Note_on_c, 8, 55, 60
10, 31380, Note_on_c, 8, 43, 0
10, 31392, Note_on_c, 8, 43, 72
10, 31444, Note_on_c, 8, 55, 0
10, 31501, Note_on_c, 8, 55, 98
10, 31616, Note_on_c, 8, 67, 80
10, 31620, Note_on_c, 8, 62, 67
10, 31621, Note_on_c, 8, 71, 80
10, 31774, Note_on_c, 8, 67, 0
10, 31778, Note_on_c, 8, 62, 0
10, 31779, Note_on_c, 8, 71, 0
10, 31824, Note_on_c, 8, 55, 0
10, 31863, Note_on_c, 8, 55, 70
10, 31946, Note_on_c, 8, 43, 0
10, 31980, Note_on_c, 8, 43, 72
10, 32004, Note_on_c, 8, 55, 0
10, 32040, Note_on_c, 8, 55, 60
10, 32069, Note_on_c, 8, 43, 0
10, 32092, Note_on_c, 8, 43, 50
10, 32115, Note_on_c, 8, 55, 0
10, 32122, Note_on_c, 8, 43, 0
10, 32159, Note_on_c, 8, 45, 101
10, 32159, Note_on_c, 8, 57, 101
10, 32576, Note_on_c, 8, 33, 101
10, 32803, Note_on_c, 8, 45, 0
10, 32823, Note_on_c, 8, 45, 92
10, 32912, Note_on_c, 8, 33, 0
10, 32940, Note_on_c, 8, 33, 74
10, 32968, Note_on_c, 8, 45, 0
10, 33004, Note_on_c, 8, 45, 101
10, 33010, Note_on_c, 8, 57, 0
10, 33036, Note_on_c, 8, 33, 0
10, 33124, Note_on_c, 8, 53, 98
10, 33125, Note_on_c, 8, 58, 81
10, 33125, Note_on_c, 8, 34, 74
10, 33126, Note_on_c, 8, 62, 74
10, 33138, Note_on_c, 8, 45, 0
10, 33274, Note_on_c, 8, 53, 0
10, 33276, Note_on_c, 8, 58, 0
10, 33280, Note_on_c, 8, 62, 0
10, 33293, Note_on_c, 8, 62, 80
10, 33294, Note_on_c, 8, 53, 76
10, 33294, Note_on_c, 8, 58, 82
10, 33417, Note_on_c, 8, 46, 101
10, 33432, Note_on_c, 8, 53, 0
10, 33438, Note_on_c, 8, 62, 0
10, 33438, Note_on_c, 8, 58, 0
10, 33472, Note_on_c, 8, 58, 56
10, 33472, Note_on_c, 8, 53, 58
10, 33473, Note_on_c, 8, 62, 67
10, 33488, Note_on_c, 8, 58, 0
10, 33494, Note_on_c, 8, 62, 0
10, 33498, Note_on_c, 8, 53, 0
10, 33535, Note_on_c, 8, 53, 93
10, 33535, Note_on_c, 8, 62, 100
10, 33536, Note_on_c, 8, 58, 101
10, 33644, Note_on_c, 8, 34, 0
10, 33657, Note_on_c, 8, 34, 91
10, 33675, Note_on_c, 8, 46, 0
10, 33718, Note_on_c, 8, 34, 93
10, 33719, Note_on_c, 8, 34, 0
10, 33861, Note_on_c, 8, 53, 0
10, 33863, Note_on_c, 8, 58, 0
10, 33865, Note_on_c, 8, 62, 0
10, 33892, Note_on_c, 8, 53, 62
10, 33892, Note_on_c, 8, 62, 68
10, 33893, Note_on_c, 8, 58, 69
10, 33959, Note_on_c, 8, 46, 77
10, 33971, Note_on_c, 8, 53, 0
10, 33973, Note_on_c, 8, 58, 0
10, 33976, Note_on_c, 8, 62, 0
10, 34015, Note_on_c, 8, 53, 51
10, 34016, Note_on_c, 8, 58, 53
10, 34016, Note_on_c, 8, 62, 60
10, 34064, Note_on_c, 8, 58, 0
10, 34066, Note_on_c, 8, 62, 0
10, 34068, Note_on_c, 8, 53, 0
10, 34071, Note_on_c, 8, 34, 0
10, 34082, Note_on_c, 8, 36, 101
10, 34083, Note_on_c, 8, 46, 0
10, 34083, Note_on_c, 8, 43, 101
10, 34620, Note_on_c, 8, 60, 100
10, 34621, Note_on_c, 8, 55, 82
10, 34831, Note_on_c, 8, 36, 0
10, 34838, Note_on_c, 8, 43, 0
10, 34857, Note_on_c, 8, 55, 0
10, 34858, Note_on_c, 8, 60, 0
10, 34861, Note_on_c, 8, 43, 101
10, 34863, Note_on_c, 8, 36, 101
10, 34926, Note_on_c, 8, 55, 101
10, 34927, Note_on_c, 8, 60, 101
10, 34956, Note_on_c, 8, 36, 0
10, 34959, Note_on_c, 8, 43, 0
10, 34983, Note_on_c, 8, 43, 101
10, 34983, Note_on_c, 8, 36, 96
10, 34989, Note_on_c, 8, 37, 81
10, 34994, Note_on_c, 8, 37, 0
10, 35007, Note_on_c, 8, 43, 0
10, 35009, Note_on_c, 8, 60, 0
10, 35009, Note_on_c, 8, 36, 0
10, 35011, Note_on_c, 8, 55, 0
10, 35040, Note_on_c, 8, 61, 65
10, 35040, Note_on_c, 8, 65, 101
10, 35044, Note_on_c, 8, 56, 101
10, 35046, Note_on_c, 8, 37, 101
10, 35048, Note_on_c, 8, 44, 101
10, 35369, Note_on_c, 8, 65, 0
10, 35384, Note_on_c, 8, 61, 0
10, 35384, Note_on_c, 8, 56, 0
10, 35434, Note_on_c, 8, 37, 0
10, 35439, Note_on_c, 8, 44, 0
10, 35461, Note_on_c, 8, 56, 101
10, 35461, Note_on_c, 8, 61, 101
10, 35463, Note_on_c, 8, 37, 101
10, 35520, Note_on_c, 8, 44, 101
10, 35694, Note_on_c, 8, 44, 101
10, 35731, Note_on_c, 8, 61, 0
10, 35733, Note_on_c, 8, 56, 0
10, 35744, Note_on_c, 8, 44, 0
10, 35810, Note_on_c, 8, 56, 101
10, 35812, Note_on_c, 8, 61, 101
10, 35842, Note_on_c, 8, 37, 0
10, 35880, Note_on_c, 8, 37, 101
10, 35896, Note_on_c, 8, 44, 0
10, 35922, Note_on_c, 8, 56, 0
10, 35924, Note_on_c, 8, 61, 0
10, 35939, Note_on_c, 8, 44, 74
10, 35941, Note_on_c, 8, 56, 91
10, 35943, Note_on_c, 8, 61, 101
10, 35978, Note_on_c, 8, 44, 0
10, 35983, Note_on_c, 8, 37, 0
10, 36002, Note_on_c, 8, 27, 127
10, 36008, Note_on_c, 8, 61, 0
10, 36010, Note_on_c, 8, 56, 0
10, 36106, Note_on_c, 8, 58, 66
10, 36106, Note_on_c, 8, 51, 68
10, 36106, Note_on_c, 8, 55, 65
10, 36108, Note_on_c, 8, 74, 69
10, 36108, Note_on_c, 8, 70, 74
10, 36110, Note_on_c, 8, 67, 60
10, 36110, Note_on_c, 8, 77, 68
10, 36197, Note_on_c, 8, 51, 0
10, 36222, Note_on_c, 8, 55, 0
10, 36228, Note_on_c, 8, 51, 87
10, 36241, Note_on_c, 8, 58, 0
10, 36284, Note_on_c, 8, 55, 87
10, 36341, Note_on_c, 8, 58, 127
10, 36360, Note_on_c, 8, 70, 0
10, 36363, Note_on_c, 8, 67, 0
10, 36365, Note_on_c, 8, 74, 0
10, 36366, Note_on_c, 8, 77, 0
10, 36473, Note_on_c, 8, 39, 118
10, 36625, Note_on_c, 8, 51, 0
10, 36649, Note_on_c, 8, 55, 0
10, 36658, Note_on_c, 8, 51, 73
10, 36666, Note_on_c, 8, 58, 0
10, 36710, Note_on_c, 8, 55, 97
10, 36772, Note_on_c, 8, 58, 127
10, 36945, Note_on_c, 8, 39, 0
10, 36947, Note_on_c, 8, 27, 0
10, 36957, Note_on_c, 8, 55, 0
10, 36959, Note_on_c, 8, 51, 0
10, 36959, Note_on_c, 8, 58, 0
10, 36968, Note_on_c, 8, 45, 67
10, 36970, Note_on_c, 8, 67, 66
10, 36970, Note_on_c, 8, 64, 67
10, 36972, Note_on_c, 8, 62, 56
10, 37123, Note_on_c, 8, 67, 0
10, 37140, Note_on_c, 8, 67, 63
10, 37179, Note_on_c, 8, 67, 0
10, 37181, Note_on_c, 8, 64, 0
10, 37183, Note_on_c, 8, 62, 0
10, 37191, Note_on_c, 8, 45, 0
10, 37195, Note_on_c, 8, 43, 72
10, 37201, Note_on_c, 8, 64, 69
10, 37203, Note_on_c, 8, 62, 58
10, 37203, Note_on_c, 8, 67, 72
10, 37288, Note_on_c, 8, 67, 0
10, 37293, Note_on_c, 8, 64, 0
10, 37294, Note_on_c, 8, 62, 0
10, 37307, Note_on_c, 8, 43, 0
10, 37321, Note_on_c, 8, 41, 87
10, 37325, Note_on_c, 8, 60, 72
10, 37325, Note_on_c, 8, 65, 84
10, 37325, Note_on_c, 8, 62, 85
10, 37406, Note_on_c, 8, 60, 0
10, 37409, Note_on_c, 8, 62, 0
10, 37410, Note_on_c, 8, 65, 0
10, 37420, Note_on_c, 8, 41, 0
10, 37434, Note_on_c, 8, 36, 77
10, 37436, Note_on_c, 8, 64, 78
10, 37437, Note_on_c, 8, 67, 77
10, 37439, Note_on_c, 8, 62, 64
10, 37613, Note_on_c, 8, 36, 0
10, 37618, Note_on_c, 8, 64, 0
10, 37621, Note_on_c, 8, 67, 0
10, 37623, Note_on_c, 8, 36, 70
10, 37627, Note_on_c, 8, 67, 52
10, 37628, Note_on_c, 8, 64, 82
10, 37723, Note_on_c, 8, 67, 0
10, 37724, Note_on_c, 8, 64, 0
10, 37725, Note_on_c, 8, 62, 0
10, 37739, Note_on_c, 8, 64, 69
10, 37741, Note_on_c, 8, 67, 73
10, 37741, Note_on_c, 8, 62, 61
10, 37906, Note_on_c, 8, 67, 0
10, 37907, Note_on_c, 8, 64, 0
10, 37911, Note_on_c, 8, 62, 0
10, 37922, Note_on_c, 8, 45, 68
10, 37922, Note_on_c, 8, 67, 74
10, 37924, Note_on_c, 8, 36, 0
10, 37925, Note_on_c, 8, 62, 72
10, 37925, Note_on_c, 8, 64, 84
10, 38128, Note_on_c, 8, 67, 0
10, 38131, Note_on_c, 8, 64, 0
10, 38134, Note_on_c, 8, 62, 0
10, 38147, Note_on_c, 8, 45, 0
10, 38162, Note_on_c, 8, 43, 87
10, 38162, Note_on_c, 8, 67, 84
10, 38163, Note_on_c, 8, 62, 68
10, 38164, Note_on_c, 8, 64, 78
10, 38260, Note_on_c, 8, 67, 0
10, 38260, Note_on_c, 8, 64, 0
10, 38263, Note_on_c, 8, 62, 0
10, 38278, Note_on_c, 8, 41, 100
10, 38280, Note_on_c, 8, 60, 78
10, 38280, Note_on_c, 8, 65, 84
10, 38281, Note_on_c, 8, 62, 90
10, 38289, Note_on_c, 8, 43, 0
10, 38364, Note_on_c, 8, 62, 0
10, 38365, Note_on_c, 8, 60, 0
10, 38366, Note_on_c, 8, 65, 0
10, 38392, Note_on_c, 8, 41, 0
10, 38397, Note_on_c, 8, 67, 87
10, 38397, Note_on_c, 8, 36, 106
10, 38398, Note_on_c, 8, 64, 97
10, 38399, Note_on_c, 8, 62, 78
10, 38560, Note_on_c, 8, 64, 0
10, 38562, Note_on_c, 8, 67, 0
10, 38564, Note_on_c, 8, 62, 0
10, 38578, Note_on_c, 8, 62, 67
10, 38579, Note_on_c, 8, 64, 92
10, 38579, Note_on_c, 8, 67, 84
10, 38799, Note_on_c, 8, 64, 0
10, 38801, Note_on_c, 8, 62, 0
10, 38809, Note_on_c, 8, 67, 0
10, 38813, Note_on_c, 8, 36, 0
10, 38869, Note_on_c, 8, 64, 52
10, 38870, Note_on_c, 8, 60, 56
10, 38872, Note_on_c, 8, 57, 52
10, 38875, Note_on_c, 8, 45, 46
10, 39088, Note_on_c, 8, 57, 0
10, 39099, Note_on_c, 8, 60, 0
10, 39103, Note_on_c, 8, 64, 0
10, 39113, Note_on_c, 8, 45, 0
10, 39118, Note_on_c, 8, 44, 57
10, 39119, Note_on_c, 8, 64, 44
10, 39124, Note_on_c, 8, 60, 59
10, 39125, Note_on_c, 8, 56, 56
10, 39353, Note_on_c, 8, 56, 0
10, 39356, Note_on_c, 8, 64, 0
10, 39364, Note_on_c, 8, 43, 58
10, 39367, Note_on_c, 8, 55, 51
10, 39368, Note_on_c, 8, 44, 0
10, 39368, Note_on_c, 8, 62, 44
10, 39596, Note_on_c, 8, 63, 45
10, 39598, Note_on_c, 8, 57, 47
10, 39605, Note_on_c, 8, 62, 0
10, 39605, Note_on_c, 8, 37, 64
10, 39607, Note_on_c, 8, 60, 0
10, 39609, Note_on_c, 8, 55, 0
10, 39619, Note_on_c, 8, 43, 0
10, 39724, Note_on_c, 8, 64, 90
10, 39809, Note_on_c, 8, 37, 0
10, 39815, Note_on_c, 8, 63, 0
10, 39821, Note_on_c, 8, 57, 0
10, 39844, Note_on_c, 8, 53, 63
10, 39845, Note_on_c, 8, 58, 57
10, 39846, Note_on_c, 8, 50, 67
10, 39960, Note_on_c, 8, 67, 80
10, 39987, Note_on_c, 8, 64, 0
10, 40018, Note_on_c, 8, 50, 0
10, 40046, Note_on_c, 8, 53, 0
10, 40054, Note_on_c, 8, 58, 0
10, 40080, Note_on_c, 8, 56, 70
10, 40081, Note_on_c, 8, 53, 70
10, 40083, Note_on_c, 8, 60, 74
10, 40108, Note_on_c, 8, 67, 0
10, 40293, Note_on_c, 8, 56, 0
10, 40296, Note_on_c, 8, 60, 0
10, 40298, Note_on_c, 8, 53, 0
10, 40318, Note_on_c, 8, 49, 82
10, 40440, Note_on_c, 8, 53, 92
10, 40447, Note_on_c, 8, 56, 87
10, 40454, Note_on_c, 8, 59, 84
10, 40461, Note_on_c, 8, 64, 78
10, 40740, Note_on_c, 8, 53, 0
10, 40749, Note_on_c, 8, 56, 0
10, 40750, Note_on_c, 8, 64, 0
10, 40753, Note_on_c, 8, 59, 0
10, 40775, Note_on_c, 8, 49, 0
10, 40796, Note_on_c, 8, 50, 67
10, 40797, Note_on_c, 8, 57, 78
10, 40800, Note_on_c, 8, 64, 54
10, 40802, Note_on_c, 8, 62, 90
10, 40848, Note_on_c, 8, 57, 0
10, 40853, Note_on_c, 8, 62, 0
10, 40868, Note_on_c, 8, 64, 0
10, 40918, Note_on_c, 8, 64, 77
10, 40919, Note_on_c, 8, 57, 68
10, 40920, Note_on_c, 8, 62, 90
10, 40971, Note_on_c, 8, 64, 0
10, 40972, Note_on_c, 8, 62, 0
10, 40976, Note_on_c, 8, 57, 0
10, 41041, Note_on_c, 8, 64, 85
10, 41042, Note_on_c, 8, 62, 97
10, 41043, Note_on_c, 8, 57, 72
10, 41116, Note_on_c, 8, 64, 0
10, 41116, Note_on_c, 8, 57, 0
10, 41117, Note_on_c, 8, 62, 0
10, 41157, Note_on_c, 8, 64, 103
10, 41161, Note_on_c, 8, 62, 118
10, 41162, Note_on_c, 8, 57, 87
10, 41206, Note_on_c, 8, 57, 0
10, 41207, Note_on_c, 8, 64, 0
10, 41211, Note_on_c, 8, 62, 0
10, 41276, Note_on_c, 8, 53, 58
10, 41276, Note_on_c, 8, 65, 60
10, 41278, Note_on_c, 8, 68, 76
10, 41280, Note_on_c, 8, 72, 62
10, 41290, Note_on_c, 8, 50, 0
10, 41333, Note_on_c, 8, 65, 0
10, 41334, Note_on_c, 8, 68, 0
10, 41338, Note_on_c, 8, 72, 0
10, 41397, Note_on_c, 8, 72, 61
10, 41397, Note_on_c, 8, 65, 68
10, 41398, Note_on_c, 8, 68, 97
10, 41455, Note_on_c, 8, 72, 0
10, 41456, Note_on_c, 8, 68, 0
10, 41457, Note_on_c, 8, 65, 0
10, 41516, Note_on_c, 8, 65, 87
10, 41519, Note_on_c, 8, 72, 92
10, 41523, Note_on_c, 8, 68, 118
10, 41573, Note_on_c, 8, 65, 0
10, 41576, Note_on_c, 8, 72, 0
10, 41577, Note_on_c, 8, 68, 0
10, 41636, Note_on_c, 8, 68, 106
10, 41636, Note_on_c, 8, 72, 85
10, 41639, Note_on_c, 8, 65, 76
10, 41688, Note_on_c, 8, 68, 0
10, 41691, Note_on_c, 8, 72, 0
10, 41698, Note_on_c, 8, 65, 0
10, 41754, Note_on_c, 8, 53, 0
10, 41760, Note_on_c, 8, 57, 97
10, 41760, Note_on_c, 8, 64, 85
10, 41760, Note_on_c, 8, 50, 48
10, 41760, Note_on_c, 8, 62, 100
10, 41804, Note_on_c, 8, 57, 0
10, 41805, Note_on_c, 8, 62, 0
10, 41806, Note_on_c, 8, 64, 0
10, 41877, Note_on_c, 8, 57, 85
10, 41879, Note_on_c, 8, 62, 110
10, 41881, Note_on_c, 8, 64, 97
10, 41915, Note_on_c, 8, 62, 0
10, 41919, Note_on_c, 8, 64, 0
10, 41920, Note_on_c, 8, 57, 0
10, 41996, Note_on_c, 8, 62, 118
10, 41998, Note_on_c, 8, 57, 85
10, 42000, Note_on_c, 8, 64, 103
10, 42048, Note_on_c, 8, 62, 0
10, 42052, Note_on_c, 8, 57, 0
10, 42053, Note_on_c, 8, 64, 0
10, 42120, Note_on_c, 8, 57, 94
10, 42122, Note_on_c, 8, 62, 127
10, 42122, Note_on_c, 8, 64, 106
10, 42169, Note_on_c, 8, 57, 0
10, 42176, Note_on_c, 8, 64, 0
10, 42179, Note_on_c, 8, 62, 0
10, 42238, Note_on_c, 8, 68, 100
10, 42240, Note_on_c, 8, 50, 0
10, 42241, Note_on_c, 8, 53, 61
10, 42243, Note_on_c, 8, 72, 85
10, 42243, Note_on_c, 8, 65, 82
10, 42288, Note_on_c, 8, 68, 0
10, 42295, Note_on_c, 8, 72, 0
10, 42296, Note_on_c, 8, 65, 0
10, 42357, Note_on_c, 8, 72, 84
10, 42360, Note_on_c, 8, 65, 76
10, 42363, Note_on_c, 8, 68, 103
10, 42409, Note_on_c, 8, 72, 0
10, 42413, Note_on_c, 8, 65, 0
10, 42415, Note_on_c, 8, 68, 0
10, 42477, Note_on_c, 8, 72, 84
10, 42479, Note_on_c, 8, 65, 85
10, 42482, Note_on_c, 8, 68, 113
10, 42532, Note_on_c, 8, 72, 0
10, 42533, Note_on_c, 8, 65, 0
10, 42535, Note_on_c, 8, 68, 0
10, 42597, Note_on_c, 8, 72, 80
10, 42602, Note_on_c, 8, 68, 103
10, 42602, Note_on_c, 8, 65, 84
10, 42637, Note_on_c, 8, 72, 0
10, 42639, Note_on_c, 8, 68, 0
10, 42646, Note_on_c, 8, 65, 0
10, 42706, Note_on_c, 8, 53, 0
10, 42719, Note_on_c, 8, 57, 90
10, 42720, Note_on_c, 8, 50, 74
10, 42723, Note_on_c, 8, 64, 77
10, 42723, Note_on_c, 8, 62, 94
10, 42768, Note_on_c, 8, 57, 0
10, 42775, Note_on_c, 8, 62, 0
10, 42780, Note_on_c, 8, 64, 0
10, 42838, Note_on_c, 8, 64, 62
10, 42838, Note_on_c, 8, 62, 64
10, 42842, Note_on_c, 8, 57, 53
10, 42875, Note_on_c, 8, 57, 0
10, 42876, Note_on_c, 8, 62, 0
10, 42877, Note_on_c, 8, 64, 0
10, 42956, Note_on_c, 8, 57, 76
10, 42956, Note_on_c, 8, 62, 94
10, 42959, Note_on_c, 8, 64, 76
10, 43006, Note_on_c, 8, 57, 0
10, 43014, Note_on_c, 8, 62, 0
10, 43020, Note_on_c, 8, 64, 0
10, 43076, Note_on_c, 8, 64, 78
10, 43076, Note_on_c, 8, 62, 103
10, 43081, Note_on_c, 8, 57, 87
10, 43104, Note_on_c, 8, 64, 0
10, 43105, Note_on_c, 8, 62, 0
10, 43117, Note_on_c, 8, 57, 0
10, 43188, Note_on_c, 8, 50, 0
10, 43198, Note_on_c, 8, 59, 100
10, 43198, Note_on_c, 8, 61, 122
10, 43203, Note_on_c, 8, 65, 76
10, 43251, Note_on_c, 8, 59, 0
10, 43251, Note_on_c, 8, 61, 0
10, 43261, Note_on_c, 8, 65, 0
10, 43320, Note_on_c, 8, 59, 82
10, 43321, Note_on_c, 8, 61, 85
10, 43322, Note_on_c, 8, 65, 66
10, 43382, Note_on_c, 8, 65, 0
10, 43383, Note_on_c, 8, 61, 0
10, 43388, Note_on_c, 8, 59, 0
10, 43437, Note_on_c, 8, 59, 122
10, 43439, Note_on_c, 8, 61, 118
10, 43441, Note_on_c, 8, 65, 97
10, 43502, Note_on_c, 8, 59, 0
10, 43502, Note_on_c, 8, 61, 0
10, 43506, Note_on_c, 8, 65, 0
10, 43559, Note_on_c, 8, 59, 110
10, 43559, Note_on_c, 8, 65, 74
10, 43561, Note_on_c, 8, 61, 106
10, 43611, Note_on_c, 8, 61, 0
10, 43615, Note_on_c, 8, 59, 0
10, 43617, Note_on_c, 8, 65, 0
10, 43676, Note_on_c, 8, 62, 103
10, 43680, Note_on_c, 8, 57, 73
10, 43681, Note_on_c, 8, 50, 70
10, 43683, Note_on_c, 8, 64, 74
10, 43734, Note_on_c, 8, 62, 0
10, 43741, Note_on_c, 8, 57, 0
10, 43742, Note_on_c, 8, 64, 0
10, 43799, Note_on_c, 8, 64, 90
10, 43800, Note_on_c, 8, 57, 74
10, 43801, Note_on_c, 8, 62, 110
10, 43854, Note_on_c, 8, 64, 0
10, 43854, Note_on_c, 8, 57, 0
10, 43856, Note_on_c, 8, 62, 0
10, 43917, Note_on_c, 8, 64, 100
10, 43918, Note_on_c, 8, 57, 85
10, 43920, Note_on_c, 8, 62, 122
10, 43955, Note_on_c, 8, 50, 0
10, 43974, Note_on_c, 8, 64, 0
10, 43975, Note_on_c, 8, 57, 0
10, 43977, Note_on_c, 8, 50, 69
10, 43978, Note_on_c, 8, 62, 0
10, 44039, Note_on_c, 8, 57, 94
10, 44040, Note_on_c, 8, 64, 97
10, 44042, Note_on_c, 8, 62, 118
10, 44099, Note_on_c, 8, 57, 0
10, 44109, Note_on_c, 8, 64, 0
10, 44115, Note_on_c, 8, 62, 0
10, 44158, Note_on_c, 8, 50, 0
10, 44160, Note_on_c, 8, 60, 61
10, 44160, Note_on_c, 8, 68, 66
10, 44162, Note_on_c, 8, 65, 66
10, 44162, Note_on_c, 8, 53, 46
10, 44203, Note_on_c, 8, 60, 0
10, 44206, Note_on_c, 8, 68, 0
10, 44208, Note_on_c, 8, 65, 0
10, 44277, Note_on_c, 8, 60, 78
10, 44278, Note_on_c, 8, 68, 85
10, 44279, Note_on_c, 8, 65, 92
10, 44339, Note_on_c, 8, 60, 0
10, 44341, Note_on_c, 8, 68, 0
10, 44343, Note_on_c, 8, 65, 0
10, 44399, Note_on_c, 8, 60, 90
10, 44401, Note_on_c, 8, 68, 100
10, 44402, Note_on_c, 8, 65, 113
10, 44447, Note_on_c, 8, 53, 0
10, 44460, Note_on_c, 8, 53, 64
10, 44470, Note_on_c, 8, 60, 0
10, 44475, Note_on_c, 8, 65, 0
10, 44478, Note_on_c, 8, 68, 0
10, 44518, Note_on_c, 8, 65, 110
10, 44522, Note_on_c, 8, 68, 92
10, 44524, Note_on_c, 8, 60, 82
10, 44579, Note_on_c, 8, 60, 0
10, 44594, Note_on_c, 8, 65, 0
10, 44594, Note_on_c, 8, 68, 0
10, 44622, Note_on_c, 8, 53, 0
10, 44640, Note_on_c, 8, 48, 92
10, 44700, Note_on_c, 8, 55, 58
10, 44730, Note_on_c, 8, 60, 68
10, 44758, Note_on_c, 8, 64, 55
10, 44769, Note_on_c, 8, 67, 77
10, 44786, Note_on_c, 8, 71, 63
10, 44805, Note_on_c, 8, 74, 84
10, 44826, Note_on_c, 8, 79, 94
10, 44845, Note_on_c, 8, 83, 61
10, 44870, Note_on_c, 8, 86, 97
10, 45074, Note_on_c, 8, 55, 0
10, 45089, Note_on_c, 8, 48, 0
10, 45089, Note_on_c, 8, 64, 0
10, 45089, Note_on_c, 8, 67, 0
10, 45089, Note_on_c, 8, 71, 0
10, 45089, Note_on_c, 8, 79, 0
10, 45089, Note_on_c, 8, 86, 0
10, 45104, Note_on_c, 8, 60, 0
10, 45104, Note_on_c, 8, 74, 0
10, 45104, Note_on_c, 8, 83, 0
10, 45120, Note_on_c, 8, 46, 92
10, 45165, Note_on_c, 8, 53, 58
10, 45195, Note_on_c, 8, 58, 68
10, 45223, Note_on_c, 8, 62, 55
10, 45234, Note_on_c, 8, 65, 77
10, 45251, Note_on_c, 8, 69, 63
10, 45270, Note_on_c, 8, 72, 84
10, 45291, Note_on_c, 8, 77, 94
10, 45310, Note_on_c, 8, 81, 61
10, 45335, Note_on_c, 8, 84, 97
10, 45361, Note_on_c, 8, 46, 0
10, 45367, Note_on_c, 8, 46, 97
10, 45539, Note_on_c, 8, 53, 0
10, 45554, Note_on_c, 8, 62, 0
10, 45554, Note_on_c, 8, 65, 0
10, 45554, Note_on_c, 8, 69, 0
10, 45554, Note_on_c, 8, 77, 0
10, 45554, Note_on_c, 8, 84, 0
10, 45569, Note_on_c, 8, 58, 0
10, 45569, Note_on_c, 8, 72, 0
10, 45569, Note_on_c, 8, 81, 0
10, 45612, Note_on_c, 8, 46, 0
10, 45616, Note_on_c, 8, 48, 66
10, 45695, Note_on_c, 8, 60, 52
10, 45719, Note_on_c, 8, 64, 53
10, 45732, Note_on_c, 8, 67, 48
10, 45744, Note_on_c, 8, 71, 52
10, 45757, Note_on_c, 8, 74, 77
10, 45781, Note_on_c, 8, 79, 100
10, 45814, Note_on_c, 8, 83, 94
10, 46069, Note_on_c, 8, 67, 0
10, 46069, Note_on_c, 8, 71, 0
10, 46073, Note_on_c, 8, 60, 0
10, 46073, Note_on_c, 8, 64, 0
10, 46075, Note_on_c, 8, 79, 0
10, 46075, Note_on_c, 8, 83, 0
10, 46077, Note_on_c, 8, 46, 118
10, 46079, Note_on_c, 8, 48, 0
10, 46082, Note_on_c, 8, 74, 0
10, 46288, Note_on_c, 8, 72, 100
10, 46316, Note_on_c, 8, 77, 68
10, 46339, Note_on_c, 8, 81, 122
10, 46503, Note_on_c, 8, 72, 0
10, 46504, Note_on_c, 8, 77, 0
10, 46512, Note_on_c, 8, 81, 0
10, 46550, Note_on_c, 8, 59, 73
10, 46551, Note_on_c, 8, 40, 64
10, 46552, Note_on_c, 8, 28, 77
10, 46552, Note_on_c, 8, 52, 65
10, 46552, Note_on_c, 8, 55, 77
10, 46582, Note_on_c, 8, 46, 0
10, 46650, Note_on_c, 8, 28, 0
10, 46675, Note_on_c, 8, 28, 72
10, 46699, Note_on_c, 8, 40, 0
10, 46735, Note_on_c, 8, 40, 94
10, 46743, Note_on_c, 8, 52, 0
10, 46745, Note_on_c, 8, 55, 0
10, 46754, Note_on_c, 8, 59, 0
10, 46860, Note_on_c, 8, 59, 100
10, 46861, Note_on_c, 8, 52, 73
10, 46861, Note_on_c, 8, 55, 103
10, 46886, Note_on_c, 8, 28, 0
10, 46914, Note_on_c, 8, 28, 69
10, 46925, Note_on_c, 8, 40, 0
10, 46934, Note_on_c, 8, 52, 0
10, 46967, Note_on_c, 8, 28, 0
10, 46969, Note_on_c, 8, 40, 94
10, 46983, Note_on_c, 8, 52, 85
10, 46987, Note_on_c, 8, 55, 0
10, 46999, Note_on_c, 8, 59, 0
10, 47002, Note_on_c, 8, 40, 0
10, 47036, Note_on_c, 8, 57, 103
10, 47037, Note_on_c, 8, 61, 127
10, 47043, Note_on_c, 8, 45, 110
10, 47131, Note_on_c, 8, 45, 0
10, 47161, Note_on_c, 8, 45, 110
10, 47184, Note_on_c, 8, 52, 0
10, 47218, Note_on_c, 8, 57, 0
10, 47225, Note_on_c, 8, 52, 106
10, 47237, Note_on_c, 8, 61, 0
10, 47280, Note_on_c, 8, 57, 62
10, 47345, Note_on_c, 8, 61, 127
10, 47356, Note_on_c, 8, 57, 0
10, 47398, Note_on_c, 8, 57, 80
10, 47439, Note_on_c, 8, 52, 0
10, 47449, Note_on_c, 8, 57, 0
10, 47465, Note_on_c, 8, 61, 0
10, 47512, Note_on_c, 8, 45, 0
10, 47524, Note_on_c, 8, 69, 100
10, 47524, Note_on_c, 8, 30, 73
10, 47527, Note_on_c, 8, 42, 68
10, 47527, Note_on_c, 8, 73, 77
10, 47527, Note_on_c, 8, 66, 106
10, 47527, Note_on_c, 8, 61, 92
10, 47988, Note_on_c, 8, 73, 0
10, 47991, Note_on_c, 8, 69, 0
10, 47991, Note_on_c, 8, 66, 0
10, 47995, Note_on_c, 8, 30, 0
10, 47996, Note_on_c, 8, 61, 0
10, 48007, Note_on_c, 8, 42, 0
10, 48035, Note_on_c, 8, 30, 72
10, 48057, Note_on_c, 8, 42, 87
10, 48071, Note_on_c, 8, 61, 78
10, 48089, Note_on_c, 8, 66, 85
10, 48097, Note_on_c, 8, 69, 82
10, 48115, Note_on_c, 8, 73, 66
10, 48561, Note_on_c, 8, 30, 0
10, 48572, Note_on_c, 8, 66, 0
10, 48572, Note_on_c, 8, 69, 0
10, 48573, Note_on_c, 8, 73, 0
10, 48579, Note_on_c, 8, 61, 0
10, 48585, Note_on_c, 8, 42, 0
10, 48618, Note_on_c, 8, 30, 70
10, 48643, Note_on_c, 8, 42, 103
10, 48662, Note_on_c, 8, 61, 97
10, 48683, Note_on_c, 8, 66, 110
10, 48697, Note_on_c, 8, 69, 92
10, 48714, Note_on_c, 8, 73, 84
10, 48732, Note_on_c, 8, 78, 94
10, 48744, Note_on_c, 8, 81, 92
10, 48759, Note_on_c, 8, 90, 127
10, 49724, Note_on_c, 8, 69, 0
10, 49726, Note_on_c, 8, 66, 0
10, 49727, Note_on_c, 8, 61, 0
10, 49734, Note_on_c, 8, 73, 0
10, 49745, Note_on_c, 8, 81, 0
10, 49752, Note_on_c, 8, 78, 0
10, 49786, Note_on_c, 8, 90, 0
10, 49866, Note_on_c, 8, 42, 0
10, 49879, Note_on_c, 8, 30, 0
10, 49879, End_track
11, 0, Start_track
11, 0, Title_t, "drums"
11, 0, MIDI_port, 0
11, 0, Control_c, 9, 0, 127
11, 0, Control_c, 9, 32, 0
11, 1, Program_c, 9, 0
11, 46, Control_c, 9, 7, 127
11, 47, Control_c, 9, 10, 68
11, 48, Control_c, 9, 91, 39
11, 480, Note_on_c, 9, 51, 127
11, 480, Note_on_c, 9, 35, 110
11, 486, Note_on_c, 9, 51, 0
11, 486, Note_on_c, 9, 35, 0
11, 600, Note_on_c, 9, 51, 113
11, 606, Note_on_c, 9, 51, 0
11, 660, Note_on_c, 9, 35, 87
11, 666, Note_on_c, 9, 35, 0
11, 720, Note_on_c, 9, 40, 106
11, 720, Note_on_c, 9, 51, 122
11, 726, Note_on_c, 9, 40, 0
11, 726, Note_on_c, 9, 51, 0
11, 840, Note_on_c, 9, 51, 127
11, 846, Note_on_c, 9, 51, 0
11, 960, Note_on_c, 9, 51, 127
11, 960, Note_on_c, 9, 35, 100
11, 966, Note_on_c, 9, 51, 0
11, 966, Note_on_c, 9, 35, 0
11, 1080, Note_on_c, 9, 51, 127
11, 1086, Note_on_c, 9, 51, 0
11, 1200, Note_on_c, 9, 40, 118
11, 1200, Note_on_c, 9, 51, 127
11, 1206, Note_on_c, 9, 40, 0
11, 1206, Note_on_c, 9, 51, 0
11, 1320, Note_on_c, 9, 51, 127
11, 1326, Note_on_c, 9, 51, 0
11, 1440, Note_on_c, 9, 35, 106
11, 1440, Note_on_c, 9, 51, 127
11, 1446, Note_on_c, 9, 35, 0
11, 1446, Note_on_c, 9, 51, 0
11, 1560, Note_on_c, 9, 51, 122
11, 1566, Note_on_c, 9, 51, 0
11, 1680, Note_on_c, 9, 51, 118
11, 1680, Note_on_c, 9, 40, 122
11, 1686, Note_on_c, 9, 51, 0
11, 1686, Note_on_c, 9, 40, 0
11, 1800, Note_on_c, 9, 51, 127
11, 1806, Note_on_c, 9, 51, 0
11, 1920, Note_on_c, 9, 51, 127
11, 1920, Note_on_c, 9, 35, 97
11, 1926, Note_on_c, 9, 51, 0
11, 1926, Note_on_c, 9, 35, 0
11, 2040, Note_on_c, 9, 46, 110
11, 2046, Note_on_c, 9, 46, 0
11, 2100, Note_on_c, 9, 46, 127
11, 2106, Note_on_c, 9, 46, 0
11, 2220, Note_on_c, 9, 42, 127
11, 2220, Note_on_c, 9, 35, 62
11, 2226, Note_on_c, 9, 42, 0
11, 2226, Note_on_c, 9, 35, 0
11, 2280, Note_on_c, 9, 53, 122
11, 2280, Note_on_c, 9, 40, 127
11, 2286, Note_on_c, 9, 53, 0
11, 2286, Note_on_c, 9, 40, 0
11, 2340, Note_on_c, 9, 35, 67
11, 2346, Note_on_c, 9, 35, 0
11, 2400, Note_on_c, 9, 35, 118
11, 2400, Note_on_c, 9, 51, 103
11, 2406, Note_on_c, 9, 35, 0
11, 2406, Note_on_c, 9, 51, 0
11, 2520, Note_on_c, 9, 51, 118
11, 2526, Note_on_c, 9, 51, 0
11, 2640, Note_on_c, 9, 51, 127
11, 2640, Note_on_c, 9, 40, 127
11, 2646, Note_on_c, 9, 51, 0
11, 2646, Note_on_c, 9, 40, 0
11, 2760, Note_on_c, 9, 51, 127
11, 2766, Note_on_c, 9, 51, 0
11, 2880, Note_on_c, 9, 51, 127
11, 2880, Note_on_c, 9, 35, 100
11, 2886, Note_on_c, 9, 51, 0
11, 2886, Note_on_c, 9, 35, 0
11, 3000, Note_on_c, 9, 51, 127
11, 3006, Note_on_c, 9, 51, 0
11, 3120, Note_on_c, 9, 51, 127
11, 3126, Note_on_c, 9, 51, 0
11, 3240, Note_on_c, 9, 51, 122
11, 3240, Note_on_c, 9, 40, 127
11, 3246, Note_on_c, 9, 51, 0
11, 3246, Note_on_c, 9, 40, 0
11, 3300, Note_on_c, 9, 35, 27
11, 3306, Note_on_c, 9, 35, 0
11, 3360, Note_on_c, 9, 35, 113
11, 3360, Note_on_c, 9, 51, 127
11, 3366, Note_on_c, 9, 35, 0
11, 3366, Note_on_c, 9, 51, 0
11, 3480, Note_on_c, 9, 51, 127
11, 3486, Note_on_c, 9, 51, 0
11, 3540, Note_on_c, 9, 35, 68
11, 3546, Note_on_c, 9, 35, 0
11, 3600, Note_on_c, 9, 40, 127
11, 3600, Note_on_c, 9, 51, 127
11, 3606, Note_on_c, 9, 40, 0
11, 3606, Note_on_c, 9, 51, 0
11, 3720, Note_on_c, 9, 51, 127
11, 3726, Note_on_c, 9, 51, 0
11, 3780, Note_on_c, 9, 35, 94
11, 3786, Note_on_c, 9, 35, 0
11, 3840, Note_on_c, 9, 51, 127
11, 3846, Note_on_c, 9, 51, 0
11, 3930, Note_on_c, 9, 50, 53
11, 3936, Note_on_c, 9, 50, 0
11, 3960, Note_on_c, 9, 50, 62
11, 3966, Note_on_c, 9, 50, 0
11, 3990, Note_on_c, 9, 50, 101
11, 3996, Note_on_c, 9, 50, 0
11, 4020, Note_on_c, 9, 50, 101
11, 4026, Note_on_c, 9, 50, 0
11, 4080, Note_on_c, 9, 47, 85
11, 4086, Note_on_c, 9, 47, 0
11, 4110, Note_on_c, 9, 47, 94
11, 4116, Note_on_c, 9, 47, 0
11, 4140, Note_on_c, 9, 47, 127
11, 4146, Note_on_c, 9, 47, 0
11, 4200, Note_on_c, 9, 45, 72
11, 4206, Note_on_c, 9, 45, 0
11, 4230, Note_on_c, 9, 45, 79
11, 4236, Note_on_c, 9, 45, 0
11, 4260, Note_on_c, 9, 45, 88
11, 4266, Note_on_c, 9, 45, 0
11, 4320, Note_on_c, 9, 51, 122
11, 4320, Note_on_c, 9, 35, 73
11, 4326, Note_on_c, 9, 51, 0
11, 4326, Note_on_c, 9, 35, 0
11, 4440, Note_on_c, 9, 51, 127
11, 4446, Note_on_c, 9, 51, 0
11, 4500, Note_on_c, 9, 35, 74
11, 4506, Note_on_c, 9, 35, 0
11, 4560, Note_on_c, 9, 40, 127
11, 4560, Note_on_c, 9, 51, 127
11, 4566, Note_on_c, 9, 40, 0
11, 4566, Note_on_c, 9, 51, 0
11, 4620, Note_on_c, 9, 35, 68
11, 4626, Note_on_c, 9, 35, 0
11, 4680, Note_on_c, 9, 51, 127
11, 4686, Note_on_c, 9, 51, 0
11, 4740, Note_on_c, 9, 35, 59
11, 4746, Note_on_c, 9, 35, 0
11, 4800, Note_on_c, 9, 35, 97
11, 4800, Note_on_c, 9, 51, 127
11, 4806, Note_on_c, 9, 35, 0
11, 4806, Note_on_c, 9, 51, 0
11, 4920, Note_on_c, 9, 51, 127
11, 4926, Note_on_c, 9, 51, 0
11, 4980, Note_on_c, 9, 35, 68
11, 4986, Note_on_c, 9, 35, 0
11, 5040, Note_on_c, 9, 51, 127
11, 5040, Note_on_c, 9, 40, 127
11, 5046, Note_on_c, 9, 51, 0
11, 5046, Note_on_c, 9, 40, 0
11, 5160, Note_on_c, 9, 51, 127
11, 5166, Note_on_c, 9, 51, 0
11, 5220, Note_on_c, 9, 35, 76
11, 5226, Note_on_c, 9, 35, 0
11, 5280, Note_on_c, 9, 51, 127
11, 5280, Note_on_c, 9, 35, 92
11, 5286, Note_on_c, 9, 51, 0
11, 5286, Note_on_c, 9, 35, 0
11, 5400, Note_on_c, 9, 51, 127
11, 5406, Note_on_c, 9, 51, 0
11, 5460, Note_on_c, 9, 35, 76
11, 5466, Note_on_c, 9, 35, 0
11, 5520, Note_on_c, 9, 40, 127
11, 5520, Note_on_c, 9, 51, 127
11, 5526, Note_on_c, 9, 40, 0
11, 5526, Note_on_c, 9, 51, 0
11, 5580, Note_on_c, 9, 35, 62
11, 5586, Note_on_c, 9, 35, 0
11, 5640, Note_on_c, 9, 51, 127
11, 5646, Note_on_c, 9, 51, 0
11, 5700, Note_on_c, 9, 35, 94
11, 5706, Note_on_c, 9, 35, 0
11, 5760, Note_on_c, 9, 51, 127
11, 5766, Note_on_c, 9, 51, 0
11, 5820, Note_on_c, 9, 46, 127
11, 5820, Note_on_c, 9, 35, 100
11, 5826, Note_on_c, 9, 46, 0
11, 5826, Note_on_c, 9, 35, 0
11, 5940, Note_on_c, 9, 46, 122
11, 5940, Note_on_c, 9, 35, 85
11, 5946, Note_on_c, 9, 46, 0
11, 5946, Note_on_c, 9, 35, 0
11, 6060, Note_on_c, 9, 35, 67
11, 6060, Note_on_c, 9, 46, 106
11, 6066, Note_on_c, 9, 35, 0
11, 6066, Note_on_c, 9, 46, 0
11, 6120, Note_on_c, 9, 46, 127
11, 6120, Note_on_c, 9, 35, 85
11, 6126, Note_on_c, 9, 46, 0
11, 6126, Note_on_c, 9, 35, 0
11, 6180, Note_on_c, 9, 35, 84
11, 6186, Note_on_c, 9, 35, 0
11, 6240, Note_on_c, 9, 35, 103
11, 6240, Note_on_c, 9, 51, 127
11, 6246, Note_on_c, 9, 35, 0
11, 6246, Note_on_c, 9, 51, 0
11, 6360, Note_on_c, 9, 51, 127
11, 6366, Note_on_c, 9, 51, 0
11, 6420, Note_on_c, 9, 35, 77
11, 6426, Note_on_c, 9, 35, 0
11, 6480, Note_on_c, 9, 40, 127
11, 6480, Note_on_c, 9, 51, 127
11, 6486, Note_on_c, 9, 40, 0
11, 6486, Note_on_c, 9, 51, 0
11, 6600, Note_on_c, 9, 51, 127
11, 6606, Note_on_c, 9, 51, 0
11, 6720, Note_on_c, 9, 35, 82
11, 6720, Note_on_c, 9, 51, 127
11, 6726, Note_on_c, 9, 35, 0
11, 6726, Note_on_c, 9, 51, 0
11, 6840, Note_on_c, 9, 51, 127
11, 6846, Note_on_c, 9, 51, 0
11, 6900, Note_on_c, 9, 35, 56
11, 6906, Note_on_c, 9, 35, 0
11, 6960, Note_on_c, 9, 51, 127
11, 6960, Note_on_c, 9, 40, 127
11, 6966, Note_on_c, 9, 51, 0
11, 6966, Note_on_c, 9, 40, 0
11, 7080, Note_on_c, 9, 51, 127
11, 7086, Note_on_c, 9, 51, 0
11, 7200, Note_on_c, 9, 51, 127
11, 7200, Note_on_c, 9, 35, 82
11, 7206, Note_on_c, 9, 51, 0
11, 7206, Note_on_c, 9, 35, 0
11, 7320, Note_on_c, 9, 51, 127
11, 7326, Note_on_c, 9, 51, 0
11, 7380, Note_on_c, 9, 35, 69
11, 7386, Note_on_c, 9, 35, 0
11, 7440, Note_on_c, 9, 40, 127
11, 7440, Note_on_c, 9, 51, 127
11, 7446, Note_on_c, 9, 40, 0
11, 7446, Note_on_c, 9, 51, 0
11, 7560, Note_on_c, 9, 51, 127
11, 7566, Note_on_c, 9, 51, 0
11, 7680, Note_on_c, 9, 51, 127
11, 7680, Note_on_c, 9, 35, 82
11, 7686, Note_on_c, 9, 51, 0
11, 7686, Note_on_c, 9, 35, 0
11, 7800, Note_on_c, 9, 51, 127
11, 7806, Note_on_c, 9, 51, 0
11, 7860, Note_on_c, 9, 35, 67
11, 7866, Note_on_c, 9, 35, 0
11, 7920, Note_on_c, 9, 40, 127
11, 7920, Note_on_c, 9, 51, 127
11, 7926, Note_on_c, 9, 40, 0
11, 7926, Note_on_c, 9, 51, 0
11, 8040, Note_on_c, 9, 51, 127
11, 8040, Note_on_c, 9, 35, 39
11, 8046, Note_on_c, 9, 51, 0
11, 8046, Note_on_c, 9, 35, 0
11, 8100, Note_on_c, 9, 35, 72
11, 8106, Note_on_c, 9, 35, 0
11, 8160, Note_on_c, 9, 51, 127
11, 8160, Note_on_c, 9, 35, 97
11, 8166, Note_on_c, 9, 51, 0
11, 8166, Note_on_c, 9, 35, 0
11, 8280, Note_on_c, 9, 51, 127
11, 8286, Note_on_c, 9, 51, 0
11, 8340, Note_on_c, 9, 35, 53
11, 8346, Note_on_c, 9, 35, 0
11, 8400, Note_on_c, 9, 40, 127
11, 8400, Note_on_c, 9, 51, 127
11, 8406, Note_on_c, 9, 40, 0
11, 8406, Note_on_c, 9, 51, 0
11, 8460, Note_on_c, 9, 35, 54
11, 8466, Note_on_c, 9, 35, 0
11, 8520, Note_on_c, 9, 51, 127
11, 8526, Note_on_c, 9, 51, 0
11, 8580, Note_on_c, 9, 35, 80
11, 8586, Note_on_c, 9, 35, 0
11, 8640, Note_on_c, 9, 51, 127
11, 8646, Note_on_c, 9, 51, 0
11, 8700, Note_on_c, 9, 35, 92
11, 8706, Note_on_c, 9, 35, 0
11, 8760, Note_on_c, 9, 51, 127
11, 8766, Note_on_c, 9, 51, 0
11, 8820, Note_on_c, 9, 35, 78
11, 8826, Note_on_c, 9, 35, 0
11, 8880, Note_on_c, 9, 40, 127
11, 8880, Note_on_c, 9, 51, 127
11, 8886, Note_on_c, 9, 40, 0
11, 8886, Note_on_c, 9, 51, 0
11, 8940, Note_on_c, 9, 35, 77
11, 8946, Note_on_c, 9, 35, 0
11, 9000, Note_on_c, 9, 51, 127
11, 9006, Note_on_c, 9, 51, 0
11, 9060, Note_on_c, 9, 35, 53
11, 9066, Note_on_c, 9, 35, 0
11, 9120, Note_on_c, 9, 51, 127
11, 9120, Note_on_c, 9, 35, 97
11, 9126, Note_on_c, 9, 51, 0
11, 9126, Note_on_c, 9, 35, 0
11, 9240, Note_on_c, 9, 51, 127
11, 9246, Note_on_c, 9, 51, 0
11, 9330, Note_on_c, 9, 35, 68
11, 9336, Note_on_c, 9, 35, 0
11, 9360, Note_on_c, 9, 40, 127
11, 9360, Note_on_c, 9, 51, 127
11, 9366, Note_on_c, 9, 40, 0
11, 9366, Note_on_c, 9, 51, 0
11, 9390, Note_on_c, 9, 35, 47
11, 9396, Note_on_c, 9, 35, 0
11, 9480, Note_on_c, 9, 51, 127
11, 9486, Note_on_c, 9, 51, 0
11, 9510, Note_on_c, 9, 48, 60
11, 9516, Note_on_c, 9, 48, 0
11, 9540, Note_on_c, 9, 49, 85
11, 9540, Note_on_c, 9, 48, 76
11, 9546, Note_on_c, 9, 49, 0
11, 9546, Note_on_c, 9, 48, 0
11, 9720, Note_on_c, 9, 35, 58
11, 9726, Note_on_c, 9, 35, 0
11, 9780, Note_on_c, 9, 50, 106
11, 9786, Note_on_c, 9, 50, 0
11, 9900, Note_on_c, 9, 47, 70
11, 9906, Note_on_c, 9, 47, 0
11, 9960, Note_on_c, 9, 47, 88
11, 9966, Note_on_c, 9, 47, 0
11, 10020, Note_on_c, 9, 45, 88
11, 10026, Note_on_c, 9, 45, 0
11, 10080, Note_on_c, 9, 35, 90
11, 10080, Note_on_c, 9, 51, 127
11, 10086, Note_on_c, 9, 35, 0
11, 10086, Note_on_c, 9, 51, 0
11, 10200, Note_on_c, 9, 51, 127
11, 10206, Note_on_c, 9, 51, 0
11, 10260, Note_on_c, 9, 35, 76
11, 10266, Note_on_c, 9, 35, 0
11, 10320, Note_on_c, 9, 51, 127
11, 10320, Note_on_c, 9, 40, 127
11, 10326, Note_on_c, 9, 51, 0
11, 10326, Note_on_c, 9, 40, 0
11, 10440, Note_on_c, 9, 51, 127
11, 10446, Note_on_c, 9, 51, 0
11, 10500, Note_on_c, 9, 35, 55
11, 10506, Note_on_c, 9, 35, 0
11, 10560, Note_on_c, 9, 51, 127
11, 10560, Note_on_c, 9, 35, 77
11, 10566, Note_on_c, 9, 51, 0
11, 10566, Note_on_c, 9, 35, 0
11, 10620, Note_on_c, 9, 35, 85
11, 10626, Note_on_c, 9, 35, 0
11, 10680, Note_on_c, 9, 51, 127
11, 10686, Note_on_c, 9, 51, 0
11, 10740, Note_on_c, 9, 35, 80
11, 10746, Note_on_c, 9, 35, 0
11, 10800, Note_on_c, 9, 40, 127
11, 10800, Note_on_c, 9, 51, 127
11, 10806, Note_on_c, 9, 40, 0
11, 10806, Note_on_c, 9, 51, 0
11, 10920, Note_on_c, 9, 51, 127
11, 10926, Note_on_c, 9, 51, 0
11, 11040, Note_on_c, 9, 35, 87
11, 11040, Note_on_c, 9, 51, 127
11, 11046, Note_on_c, 9, 35, 0
11, 11046, Note_on_c, 9, 51, 0
11, 11160, Note_on_c, 9, 51, 127
11, 11166, Note_on_c, 9, 51, 0
11, 11220, Note_on_c, 9, 35, 73
11, 11226, Note_on_c, 9, 35, 0
11, 11280, Note_on_c, 9, 51, 127
11, 11280, Note_on_c, 9, 40, 127
11, 11286, Note_on_c, 9, 51, 0
11, 11286, Note_on_c, 9, 40, 0
11, 11400, Note_on_c, 9, 51, 127
11, 11406, Note_on_c, 9, 51, 0
11, 11460, Note_on_c, 9, 35, 36
11, 11466, Note_on_c, 9, 35, 0
11, 11520, Note_on_c, 9, 51, 127
11, 11520, Note_on_c, 9, 35, 84
11, 11526, Note_on_c, 9, 51, 0
11, 11526, Note_on_c, 9, 35, 0
11, 11640, Note_on_c, 9, 51, 127
11, 11646, Note_on_c, 9, 51, 0
11, 11700, Note_on_c, 9, 35, 43
11, 11706, Note_on_c, 9, 35, 0
11, 11760, Note_on_c, 9, 40, 127
11, 11760, Note_on_c, 9, 51, 127
11, 11766, Note_on_c, 9, 40, 0
11, 11766, Note_on_c, 9, 51, 0
11, 11880, Note_on_c, 9, 40, 122
11, 11880, Note_on_c, 9, 51, 127
11, 11886, Note_on_c, 9, 40, 0
11, 11886, Note_on_c, 9, 51, 0
11, 11940, Note_on_c, 9, 40, 122
11, 11946, Note_on_c, 9, 40, 0
11, 12000, Note_on_c, 9, 51, 127
11, 12000, Note_on_c, 9, 35, 100
11, 12006, Note_on_c, 9, 51, 0
11, 12006, Note_on_c, 9, 35, 0
11, 12120, Note_on_c, 9, 51, 127
11, 12126, Note_on_c, 9, 51, 0
11, 12180, Note_on_c, 9, 35, 78
11, 12186, Note_on_c, 9, 35, 0
11, 12240, Note_on_c, 9, 40, 127
11, 12240, Note_on_c, 9, 51, 127
11, 12246, Note_on_c, 9, 40, 0
11, 12246, Note_on_c, 9, 51, 0
11, 12360, Note_on_c, 9, 51, 127
11, 12366, Note_on_c, 9, 51, 0
11, 12420, Note_on_c, 9, 35, 30
11, 12426, Note_on_c, 9, 35, 0
11, 12480, Note_on_c, 9, 51, 127
11, 12480, Note_on_c, 9, 35, 94
11, 12486, Note_on_c, 9, 51, 0
11, 12486, Note_on_c, 9, 35, 0
11, 12600, Note_on_c, 9, 51, 127
11, 12606, Note_on_c, 9, 51, 0
11, 12660, Note_on_c, 9, 35, 74
11, 12666, Note_on_c, 9, 35, 0
11, 12720, Note_on_c, 9, 40, 127
11, 12720, Note_on_c, 9, 51, 127
11, 12726, Note_on_c, 9, 40, 0
11, 12726, Note_on_c, 9, 51, 0
11, 12840, Note_on_c, 9, 51, 127
11, 12846, Note_on_c, 9, 51, 0
11, 12960, Note_on_c, 9, 35, 85
11, 12960, Note_on_c, 9, 51, 127
11, 12966, Note_on_c, 9, 35, 0
11, 12966, Note_on_c, 9, 51, 0
11, 13080, Note_on_c, 9, 51, 127
11, 13086, Note_on_c, 9, 51, 0
11, 13140, Note_on_c, 9, 35, 78
11, 13146, Note_on_c, 9, 35, 0
11, 13200, Note_on_c, 9, 40, 127
11, 13200, Note_on_c, 9, 51, 127
11, 13206, Note_on_c, 9, 40, 0
11, 13206, Note_on_c, 9, 51, 0
11, 13260, Note_on_c, 9, 35, 62
11, 13266, Note_on_c, 9, 35, 0
11, 13320, Note_on_c, 9, 51, 127
11, 13320, Note_on_c, 9, 35, 73
11, 13326, Note_on_c, 9, 51, 0
11, 13326, Note_on_c, 9, 35, 0
11, 13380, Note_on_c, 9, 40, 127
11, 13386, Note_on_c, 9, 40, 0
11, 13440, Note_on_c, 9, 48, 56
11, 13446, Note_on_c, 9, 48, 0
11, 13500, Note_on_c, 9, 48, 82
11, 13506, Note_on_c, 9, 48, 0
11, 13530, Note_on_c, 9, 48, 70
11, 13536, Note_on_c, 9, 48, 0
11, 13560, Note_on_c, 9, 48, 88
11, 13566, Note_on_c, 9, 48, 0
11, 13620, Note_on_c, 9, 45, 77
11, 13626, Note_on_c, 9, 45, 0
11, 13680, Note_on_c, 9, 45, 63
11, 13686, Note_on_c, 9, 45, 0
11, 13710, Note_on_c, 9, 45, 85
11, 13716, Note_on_c, 9, 45, 0
11, 13740, Note_on_c, 9, 45, 88
11, 13746, Note_on_c, 9, 45, 0
11, 13800, Note_on_c, 9, 45, 88
11, 13806, Note_on_c, 9, 45, 0
11, 13860, Note_on_c, 9, 43, 79
11, 13866, Note_on_c, 9, 43, 0
11, 13920, Note_on_c, 9, 51, 127
11, 13920, Note_on_c, 9, 35, 97
11, 13926, Note_on_c, 9, 51, 0
11, 13926, Note_on_c, 9, 35, 0
11, 14040, Note_on_c, 9, 51, 127
11, 14046, Note_on_c, 9, 51, 0
11, 14100, Note_on_c, 9, 35, 90
11, 14106, Note_on_c, 9, 35, 0
11, 14160, Note_on_c, 9, 51, 127
11, 14160, Note_on_c, 9, 40, 127
11, 14166, Note_on_c, 9, 51, 0
11, 14166, Note_on_c, 9, 40, 0
11, 14280, Note_on_c, 9, 51, 127
11, 14286, Note_on_c, 9, 51, 0
11, 14340, Note_on_c, 9, 35, 41
11, 14346, Note_on_c, 9, 35, 0
11, 14400, Note_on_c, 9, 35, 90
11, 14400, Note_on_c, 9, 51, 127
11, 14406, Note_on_c, 9, 35, 0
11, 14406, Note_on_c, 9, 51, 0
11, 14520, Note_on_c, 9, 51, 127
11, 14526, Note_on_c, 9, 51, 0
11, 14580, Note_on_c, 9, 35, 66
11, 14586, Note_on_c, 9, 35, 0
11, 14640, Note_on_c, 9, 40, 127
11, 14640, Note_on_c, 9, 51, 127
11, 14646, Note_on_c, 9, 40, 0
11, 14646, Note_on_c, 9, 51, 0
11, 14760, Note_on_c, 9, 51, 127
11, 14766, Note_on_c, 9, 51, 0
11, 14820, Note_on_c, 9, 35, 56
11, 14826, Note_on_c, 9, 35, 0
11, 14880, Note_on_c, 9, 51, 127
11, 14880, Note_on_c, 9, 35, 85
11, 14886, Note_on_c, 9, 51, 0
11, 14886, Note_on_c, 9, 35, 0
11, 15000, Note_on_c, 9, 51, 127
11, 15006, Note_on_c, 9, 51, 0
11, 15060, Note_on_c, 9, 35, 60
11, 15066, Note_on_c, 9, 35, 0
11, 15120, Note_on_c, 9, 51, 127
11, 15120, Note_on_c, 9, 40, 127
11, 15126, Note_on_c, 9, 51, 0
11, 15126, Note_on_c, 9, 40, 0
11, 15240, Note_on_c, 9, 51, 127
11, 15246, Note_on_c, 9, 51, 0
11, 15300, Note_on_c, 9, 35, 53
11, 15306, Note_on_c, 9, 35, 0
11, 15360, Note_on_c, 9, 35, 73
11, 15360, Note_on_c, 9, 51, 127
11, 15366, Note_on_c, 9, 35, 0
11, 15366, Note_on_c, 9, 51, 0
11, 15420, Note_on_c, 9, 40, 127
11, 15426, Note_on_c, 9, 40, 0
11, 15480, Note_on_c, 9, 51, 127
11, 15486, Note_on_c, 9, 51, 0
11, 15540, Note_on_c, 9, 50, 127
11, 15546, Note_on_c, 9, 50, 0
11, 15660, Note_on_c, 9, 47, 78
11, 15666, Note_on_c, 9, 47, 0
11, 15720, Note_on_c, 9, 47, 127
11, 15726, Note_on_c, 9, 47, 0
11, 15780, Note_on_c, 9, 47, 127
11, 15786, Note_on_c, 9, 47, 0
11, 15840, Note_on_c, 9, 35, 100
11, 15840, Note_on_c, 9, 51, 127
11, 15846, Note_on_c, 9, 35, 0
11, 15846, Note_on_c, 9, 51, 0
11, 15960, Note_on_c, 9, 51, 127
11, 15966, Note_on_c, 9, 51, 0
11, 16020, Note_on_c, 9, 35, 55
11, 16026, Note_on_c, 9, 35, 0
11, 16080, Note_on_c, 9, 40, 127
11, 16080, Note_on_c, 9, 51, 127
11, 16086, Note_on_c, 9, 40, 0
11, 16086, Note_on_c, 9, 51, 0
11, 16200, Note_on_c, 9, 51, 127
11, 16206, Note_on_c, 9, 51, 0
11, 16320, Note_on_c, 9, 35, 68
11, 16320, Note_on_c, 9, 51, 127
11, 16326, Note_on_c, 9, 35, 0
11, 16326, Note_on_c, 9, 51, 0
11, 16380, Note_on_c, 9, 35, 92
11, 16386, Note_on_c, 9, 35, 0
11, 16440, Note_on_c, 9, 51, 127
11, 16446, Note_on_c, 9, 51, 0
11, 16500, Note_on_c, 9, 35, 90
11, 16506, Note_on_c, 9, 35, 0
11, 16560, Note_on_c, 9, 40, 127
11, 16560, Note_on_c, 9, 51, 127
11, 16566, Note_on_c, 9, 40, 0
11, 16566, Note_on_c, 9, 51, 0
11, 16620, Note_on_c, 9, 35, 78
11, 16626, Note_on_c, 9, 35, 0
11, 16680, Note_on_c, 9, 40, 127
11, 16680, Note_on_c, 9, 51, 127
11, 16686, Note_on_c, 9, 40, 0
11, 16686, Note_on_c, 9, 51, 0
11, 16740, Note_on_c, 9, 35, 76
11, 16746, Note_on_c, 9, 35, 0
11, 16800, Note_on_c, 9, 35, 97
11, 16800, Note_on_c, 9, 51, 127
11, 16806, Note_on_c, 9, 35, 0
11, 16806, Note_on_c, 9, 51, 0
11, 16920, Note_on_c, 9, 51, 127
11, 16926, Note_on_c, 9, 51, 0
11, 16980, Note_on_c, 9, 35, 65
11, 16986, Note_on_c, 9, 35, 0
11, 17040, Note_on_c, 9, 51, 127
11, 17040, Note_on_c, 9, 40, 127
11, 17046, Note_on_c, 9, 51, 0
11, 17046, Note_on_c, 9, 40, 0
11, 17160, Note_on_c, 9, 51, 127
11, 17166, Note_on_c, 9, 51, 0
11, 17220, Note_on_c, 9, 35, 48
11, 17226, Note_on_c, 9, 35, 0
11, 17280, Note_on_c, 9, 35, 94
11, 17280, Note_on_c, 9, 51, 127
11, 17286, Note_on_c, 9, 35, 0
11, 17286, Note_on_c, 9, 51, 0
11, 17400, Note_on_c, 9, 51, 127
11, 17400, Note_on_c, 9, 40, 127
11, 17406, Note_on_c, 9, 51, 0
11, 17406, Note_on_c, 9, 40, 0
11, 17520, Note_on_c, 9, 51, 127
11, 17526, Note_on_c, 9, 51, 0
11, 17640, Note_on_c, 9, 51, 127
11, 17640, Note_on_c, 9, 40, 127
11, 17646, Note_on_c, 9, 51, 0
11, 17646, Note_on_c, 9, 40, 0
11, 17700, Note_on_c, 9, 35, 48
11, 17706, Note_on_c, 9, 35, 0
11, 17760, Note_on_c, 9, 44, 122
11, 17760, Note_on_c, 9, 53, 127
11, 17760, Note_on_c, 9, 35, 97
11, 17766, Note_on_c, 9, 44, 0
11, 17766, Note_on_c, 9, 53, 0
11, 17766, Note_on_c, 9, 35, 0
11, 17820, Note_on_c, 9, 53, 127
11, 17826, Note_on_c, 9, 53, 0
11, 17880, Note_on_c, 9, 44, 94
11, 17886, Note_on_c, 9, 44, 0
11, 17940, Note_on_c, 9, 53, 127
11, 17940, Note_on_c, 9, 40, 127
11, 17946, Note_on_c, 9, 53, 0
11, 17946, Note_on_c, 9, 40, 0
11, 18000, Note_on_c, 9, 35, 82
11, 18000, Note_on_c, 9, 53, 127
11, 18000, Note_on_c, 9, 44, 110
11, 18006, Note_on_c, 9, 35, 0
11, 18006, Note_on_c, 9, 53, 0
11, 18006, Note_on_c, 9, 44, 0
11, 18120, Note_on_c, 9, 35, 67
11, 18120, Note_on_c, 9, 44, 122
11, 18120, Note_on_c, 9, 53, 127
11, 18126, Note_on_c, 9, 35, 0
11, 18126, Note_on_c, 9, 44, 0
11, 18126, Note_on_c, 9, 53, 0
11, 18180, Note_on_c, 9, 53, 127
11, 18186, Note_on_c, 9, 53, 0
11, 18240, Note_on_c, 9, 35, 50
11, 18240, Note_on_c, 9, 44, 113
11, 18246, Note_on_c, 9, 35, 0
11, 18246, Note_on_c, 9, 44, 0
11, 18300, Note_on_c, 9, 35, 37
11, 18300, Note_on_c, 9, 53, 127
11, 18306, Note_on_c, 9, 35, 0
11, 18306, Note_on_c, 9, 53, 0
11, 18360, Note_on_c, 9, 53, 127
11, 18360, Note_on_c, 9, 44, 118
11, 18366, Note_on_c, 9, 53, 0
11, 18366, Note_on_c, 9, 44, 0
11, 18420, Note_on_c, 9, 46, 127
11, 18420, Note_on_c, 9, 35, 74
11, 18426, Note_on_c, 9, 46, 0
11, 18426, Note_on_c, 9, 35, 0
11, 18480, Note_on_c, 9, 53, 127
11, 18486, Note_on_c, 9, 53, 0
11, 18540, Note_on_c, 9, 35, 92
11, 18540, Note_on_c, 9, 46, 127
11, 18546, Note_on_c, 9, 35, 0
11, 18546, Note_on_c, 9, 46, 0
11, 18600, Note_on_c, 9, 44, 122
11, 18600, Note_on_c, 9, 40, 127
11, 18606, Note_on_c, 9, 44, 0
11, 18606, Note_on_c, 9, 40, 0
11, 18660, Note_on_c, 9, 35, 62
11, 18666, Note_on_c, 9, 35, 0
11, 18720, Note_on_c, 9, 44, 122
11, 18720, Note_on_c, 9, 53, 127
11, 18720, Note_on_c, 9, 35, 87
11, 18726, Note_on_c, 9, 44, 0
11, 18726, Note_on_c, 9, 53, 0
11, 18726, Note_on_c, 9, 35, 0
11, 18780, Note_on_c, 9, 53, 127
11, 18786, Note_on_c, 9, 53, 0
11, 18840, Note_on_c, 9, 44, 127
11, 18840, Note_on_c, 9, 35, 42
11, 18846, Note_on_c, 9, 44, 0
11, 18846, Note_on_c, 9, 35, 0
11, 18900, Note_on_c, 9, 53, 122
11, 18900, Note_on_c, 9, 40, 127
11, 18906, Note_on_c, 9, 53, 0
11, 18906, Note_on_c, 9, 40, 0
11, 18960, Note_on_c, 9, 44, 127
11, 18960, Note_on_c, 9, 53, 127
11, 18966, Note_on_c, 9, 44, 0
11, 18966, Note_on_c, 9, 53, 0
11, 19020, Note_on_c, 9, 35, 90
11, 19026, Note_on_c, 9, 35, 0
11, 19080, Note_on_c, 9, 53, 127
11, 19080, Note_on_c, 9, 44, 127
11, 19086, Note_on_c, 9, 53, 0
11, 19086, Note_on_c, 9, 44, 0
11, 19140, Note_on_c, 9, 53, 127
11, 19140, Note_on_c, 9, 35, 73
11, 19146, Note_on_c, 9, 53, 0
11, 19146, Note_on_c, 9, 35, 0
11, 19200, Note_on_c, 9, 44, 127
11, 19206, Note_on_c, 9, 44, 0
11, 19260, Note_on_c, 9, 35, 78
11, 19260, Note_on_c, 9, 53, 122
11, 19260, Note_on_c, 9, 46, 127
11, 19266, Note_on_c, 9, 35, 0
11, 19266, Note_on_c, 9, 53, 0
11, 19266, Note_on_c, 9, 46, 0
11, 19320, Note_on_c, 9, 53, 127
11, 19326, Note_on_c, 9, 53, 0
11, 19380, Note_on_c, 9, 35, 72
11, 19380, Note_on_c, 9, 46, 122
11, 19386, Note_on_c, 9, 35, 0
11, 19386, Note_on_c, 9, 46, 0
11, 19440, Note_on_c, 9, 53, 127
11, 19446, Note_on_c, 9, 53, 0
11, 19500, Note_on_c, 9, 35, 58
11, 19506, Note_on_c, 9, 35, 0
11, 19560, Note_on_c, 9, 44, 127
11, 19560, Note_on_c, 9, 40, 127
11, 19566, Note_on_c, 9, 44, 0
11, 19566, Note_on_c, 9, 40, 0
11, 19620, Note_on_c, 9, 35, 51
11, 19626, Note_on_c, 9, 35, 0
11, 19680, Note_on_c, 9, 53, 106
11, 19680, Note_on_c, 9, 35, 92
11, 19680, Note_on_c, 9, 44, 127
11, 19686, Note_on_c, 9, 53, 0
11, 19686, Note_on_c, 9, 35, 0
11, 19686, Note_on_c, 9, 44, 0
11, 19800, Note_on_c, 9, 44, 127
11, 19806, Note_on_c, 9, 44, 0
11, 19860, Note_on_c, 9, 35, 57
11, 19866, Note_on_c, 9, 35, 0
11, 19920, Note_on_c, 9, 40, 127
11, 19920, Note_on_c, 9, 53, 127
11, 19920, Note_on_c, 9, 44, 127
11, 19926, Note_on_c, 9, 40, 0
11, 19926, Note_on_c, 9, 53, 0
11, 19926, Note_on_c, 9, 44, 0
11, 20040, Note_on_c, 9, 44, 127
11, 20046, Note_on_c, 9, 44, 0
11, 20100, Note_on_c, 9, 35, 51
11, 20106, Note_on_c, 9, 35, 0
11, 20160, Note_on_c, 9, 44, 127
11, 20160, Note_on_c, 9, 53, 122
11, 20160, Note_on_c, 9, 35, 100
11, 20166, Note_on_c, 9, 44, 0
11, 20166, Note_on_c, 9, 53, 0
11, 20166, Note_on_c, 9, 35, 0
11, 20280, Note_on_c, 9, 44, 127
11, 20286, Note_on_c, 9, 44, 0
11, 20340, Note_on_c, 9, 35, 58
11, 20346, Note_on_c, 9, 35, 0
11, 20400, Note_on_c, 9, 53, 127
11, 20400, Note_on_c, 9, 40, 122
11, 20400, Note_on_c, 9, 44, 127
11, 20406, Note_on_c, 9, 53, 0
11, 20406, Note_on_c, 9, 40, 0
11, 20406, Note_on_c, 9, 44, 0
11, 20520, Note_on_c, 9, 44, 127
11, 20526, Note_on_c, 9, 44, 0
11, 20580, Note_on_c, 9, 35, 59
11, 20586, Note_on_c, 9, 35, 0
11, 20640, Note_on_c, 9, 35, 84
11, 20640, Note_on_c, 9, 44, 127
11, 20640, Note_on_c, 9, 53, 118
11, 20646, Note_on_c, 9, 35, 0
11, 20646, Note_on_c, 9, 44, 0
11, 20646, Note_on_c, 9, 53, 0
11, 20760, Note_on_c, 9, 44, 127
11, 20766, Note_on_c, 9, 44, 0
11, 20820, Note_on_c, 9, 35, 68
11, 20826, Note_on_c, 9, 35, 0
11, 20880, Note_on_c, 9, 40, 127
11, 20880, Note_on_c, 9, 44, 127
11, 20880, Note_on_c, 9, 53, 127
11, 20886, Note_on_c, 9, 40, 0
11, 20886, Note_on_c, 9, 44, 0
11, 20886, Note_on_c, 9, 53, 0
11, 21000, Note_on_c, 9, 44, 127
11, 21006, Note_on_c, 9, 44, 0
11, 21120, Note_on_c, 9, 44, 127
11, 21120, Note_on_c, 9, 35, 85
11, 21126, Note_on_c, 9, 44, 0
11, 21126, Note_on_c, 9, 35, 0
11, 21210, Note_on_c, 9, 48, 70
11, 21216, Note_on_c, 9, 48, 0
11, 21240, Note_on_c, 9, 44, 127
11, 21240, Note_on_c, 9, 48, 85
11, 21246, Note_on_c, 9, 44, 0
11, 21246, Note_on_c, 9, 48, 0
11, 21300, Note_on_c, 9, 47, 88
11, 21306, Note_on_c, 9, 47, 0
11, 21360, Note_on_c, 9, 44, 127
11, 21366, Note_on_c, 9, 44, 0
11, 21420, Note_on_c, 9, 45, 62
11, 21426, Note_on_c, 9, 45, 0
11, 21480, Note_on_c, 9, 44, 127
11, 21480, Note_on_c, 9, 45, 127
11, 21486, Note_on_c, 9, 44, 0
11, 21486, Note_on_c, 9, 45, 0
11, 21540, Note_on_c, 9, 45, 127
11, 21546, Note_on_c, 9, 45, 0
11, 21600, Note_on_c, 9, 37, 100
11, 21600, Note_on_c, 9, 35, 100
11, 21606, Note_on_c, 9, 37, 0
11, 21606, Note_on_c, 9, 35, 0
11, 21720, Note_on_c, 9, 37, 100
11, 21726, Note_on_c, 9, 37, 0
11, 21780, Note_on_c, 9, 35, 74
11, 21786, Note_on_c, 9, 35, 0
11, 21840, Note_on_c, 9, 40, 127
11, 21840, Note_on_c, 9, 37, 100
11, 21846, Note_on_c, 9, 40, 0
11, 21846, Note_on_c, 9, 37, 0
11, 21900, Note_on_c, 9, 35, 64
11, 21906, Note_on_c, 9, 35, 0
11, 21960, Note_on_c, 9, 37, 100
11, 21966, Note_on_c, 9, 37, 0
11, 22020, Note_on_c, 9, 35, 82
11, 22026, Note_on_c, 9, 35, 0
11, 22080, Note_on_c, 9, 37, 100
11, 22086, Note_on_c, 9, 37, 0
11, 22140, Note_on_c, 9, 35, 68
11, 22146, Note_on_c, 9, 35, 0
11, 22200, Note_on_c, 9, 37, 100
11, 22200, Note_on_c, 9, 35, 80
11, 22206, Note_on_c, 9, 37, 0
11, 22206, Note_on_c, 9, 35, 0
11, 22320, Note_on_c, 9, 40, 110
11, 22320, Note_on_c, 9, 37, 100
11, 22326, Note_on_c, 9, 40, 0
11, 22326, Note_on_c, 9, 37, 0
11, 22380, Note_on_c, 9, 35, 78
11, 22386, Note_on_c, 9, 35, 0
11, 22440, Note_on_c, 9, 37, 100
11, 22446, Note_on_c, 9, 37, 0
11, 22500, Note_on_c, 9, 35, 68
11, 22506, Note_on_c, 9, 35, 0
11, 22560, Note_on_c, 9, 35, 92
11, 22560, Note_on_c, 9, 37, 100
11, 22566, Note_on_c, 9, 35, 0
11, 22566, Note_on_c, 9, 37, 0
11, 22680, Note_on_c, 9, 37, 100
11, 22686, Note_on_c, 9, 37, 0
11, 22740, Note_on_c, 9, 35, 94
11, 22746, Note_on_c, 9, 35, 0
11, 22800, Note_on_c, 9, 40, 127
11, 22800, Note_on_c, 9, 37, 100
11, 22806, Note_on_c, 9, 40, 0
11, 22806, Note_on_c, 9, 37, 0
11, 22860, Note_on_c, 9, 35, 92
11, 22866, Note_on_c, 9, 35, 0
11, 22920, Note_on_c, 9, 37, 100
11, 22926, Note_on_c, 9, 37, 0
11, 22980, Note_on_c, 9, 35, 84
11, 22986, Note_on_c, 9, 35, 0
11, 23040, Note_on_c, 9, 37, 100
11, 23046, Note_on_c, 9, 37, 0
11, 23100, Note_on_c, 9, 35, 80
11, 23106, Note_on_c, 9, 35, 0
11, 23160, Note_on_c, 9, 40, 127
11, 23160, Note_on_c, 9, 37, 100
11, 23166, Note_on_c, 9, 40, 0
11, 23166, Note_on_c, 9, 37, 0
11, 23220, Note_on_c, 9, 35, 59
11, 23226, Note_on_c, 9, 35, 0
11, 23280, Note_on_c, 9, 35, 72
11, 23280, Note_on_c, 9, 37, 100
11, 23286, Note_on_c, 9, 35, 0
11, 23286, Note_on_c, 9, 37, 0
11, 23340, Note_on_c, 9, 40, 127
11, 23346, Note_on_c, 9, 40, 0
11, 23400, Note_on_c, 9, 48, 127
11, 23400, Note_on_c, 9, 37, 100
11, 23406, Note_on_c, 9, 48, 0
11, 23406, Note_on_c, 9, 37, 0
11, 23430, Note_on_c, 9, 47, 113
11, 23436, Note_on_c, 9, 47, 0
11, 23460, Note_on_c, 9, 45, 127
11, 23466, Note_on_c, 9, 45, 0
11, 23520, Note_on_c, 9, 37, 100
11, 23520, Note_on_c, 9, 35, 97
11, 23526, Note_on_c, 9, 37, 0
11, 23526, Note_on_c, 9, 35, 0
11, 23640, Note_on_c, 9, 37, 100
11, 23646, Note_on_c, 9, 37, 0
11, 23700, Note_on_c, 9, 35, 85
11, 23706, Note_on_c, 9, 35, 0
11, 23760, Note_on_c, 9, 37, 100
11, 23760, Note_on_c, 9, 40, 127
11, 23766, Note_on_c, 9, 37, 0
11, 23766, Note_on_c, 9, 40, 0
11, 23820, Note_on_c, 9, 35, 58
11, 23826, Note_on_c, 9, 35, 0
11, 23880, Note_on_c, 9, 35, 67
11, 23880, Note_on_c, 9, 37, 100
11, 23886, Note_on_c, 9, 35, 0
11, 23886, Note_on_c, 9, 37, 0
11, 23940, Note_on_c, 9, 35, 84
11, 23946, Note_on_c, 9, 35, 0
11, 24000, Note_on_c, 9, 37, 100
11, 24006, Note_on_c, 9, 37, 0
11, 24120, Note_on_c, 9, 35, 56
11, 24120, Note_on_c, 9, 37, 100
11, 24126, Note_on_c, 9, 35, 0
11, 24126, Note_on_c, 9, 37, 0
11, 24180, Note_on_c, 9, 40, 118
11, 24186, Note_on_c, 9, 40, 0
11, 24240, Note_on_c, 9, 37, 100
11, 24240, Note_on_c, 9, 40, 127
11, 24246, Note_on_c, 9, 37, 0
11, 24246, Note_on_c, 9, 40, 0
11, 24360, Note_on_c, 9, 37, 100
11, 24360, Note_on_c, 9, 40, 127
11, 24366, Note_on_c, 9, 37, 0
11, 24366, Note_on_c, 9, 40, 0
11, 24420, Note_on_c, 9, 35, 49
11, 24426, Note_on_c, 9, 35, 0
11, 24480, Note_on_c, 9, 37, 100
11, 24480, Note_on_c, 9, 35, 100
11, 24486, Note_on_c, 9, 37, 0
11, 24486, Note_on_c, 9, 35, 0
11, 24600, Note_on_c, 9, 37, 100
11, 24606, Note_on_c, 9, 37, 0
11, 24660, Note_on_c, 9, 35, 76
11, 24666, Note_on_c, 9, 35, 0
11, 24720, Note_on_c, 9, 37, 100
11, 24720, Note_on_c, 9, 40, 127
11, 24726, Note_on_c, 9, 37, 0
11, 24726, Note_on_c, 9, 40, 0
11, 24780, Note_on_c, 9, 35, 76
11, 24786, Note_on_c, 9, 35, 0
11, 24840, Note_on_c, 9, 37, 100
11, 24846, Note_on_c, 9, 37, 0
11, 24900, Note_on_c, 9, 35, 85
11, 24906, Note_on_c, 9, 35, 0
11, 24960, Note_on_c, 9, 37, 100
11, 24966, Note_on_c, 9, 37, 0
11, 25020, Note_on_c, 9, 35, 100
11, 25026, Note_on_c, 9, 35, 0
11, 25080, Note_on_c, 9, 37, 100
11, 25086, Note_on_c, 9, 37, 0
11, 25140, Note_on_c, 9, 35, 94
11, 25146, Note_on_c, 9, 35, 0
11, 25200, Note_on_c, 9, 37, 100
11, 25206, Note_on_c, 9, 37, 0
11, 25260, Note_on_c, 9, 49, 80
11, 25260, Note_on_c, 9, 35, 100
11, 25260, Note_on_c, 9, 40, 97
11, 25266, Note_on_c, 9, 49, 0
11, 25266, Note_on_c, 9, 35, 0
11, 25266, Note_on_c, 9, 40, 0
11, 25320, Note_on_c, 9, 37, 100
11, 25326, Note_on_c, 9, 37, 0
11, 25380, Note_on_c, 9, 40, 122
11, 25380, Note_on_c, 9, 35, 84
11, 25386, Note_on_c, 9, 40, 0
11, 25386, Note_on_c, 9, 35, 0
11, 25440, Note_on_c, 9, 37, 100
11, 25440, Note_on_c, 9, 35, 106
11, 25446, Note_on_c, 9, 37, 0
11, 25446, Note_on_c, 9, 35, 0
11, 25560, Note_on_c, 9, 37, 100
11, 25566, Note_on_c, 9, 37, 0
11, 25620, Note_on_c, 9, 35, 80
11, 25626, Note_on_c, 9, 35, 0
11, 25680, Note_on_c, 9, 37, 100
11, 25680, Note_on_c, 9, 40, 127
11, 25686, Note_on_c, 9, 37, 0
11, 25686, Note_on_c, 9, 40, 0
11, 25740, Note_on_c, 9, 35, 64
11, 25746, Note_on_c, 9, 35, 0
11, 25800, Note_on_c, 9, 37, 100
11, 25806, Note_on_c, 9, 37, 0
11, 25860, Note_on_c, 9, 35, 87
11, 25866, Note_on_c, 9, 35, 0
11, 25920, Note_on_c, 9, 35, 85
11, 25920, Note_on_c, 9, 37, 100
11, 25926, Note_on_c, 9, 35, 0
11, 25926, Note_on_c, 9, 37, 0
11, 26040, Note_on_c, 9, 37, 100
11, 26046, Note_on_c, 9, 37, 0
11, 26100, Note_on_c, 9, 35, 72
11, 26106, Note_on_c, 9, 35, 0
11, 26160, Note_on_c, 9, 40, 127
11, 26160, Note_on_c, 9, 37, 100
11, 26166, Note_on_c, 9, 40, 0
11, 26166, Note_on_c, 9, 37, 0
11, 26220, Note_on_c, 9, 35, 41
11, 26226, Note_on_c, 9, 35, 0
11, 26280, Note_on_c, 9, 35, 59
11, 26280, Note_on_c, 9, 37, 100
11, 26286, Note_on_c, 9, 35, 0
11, 26286, Note_on_c, 9, 37, 0
11, 26340, Note_on_c, 9, 35, 45
11, 26346, Note_on_c, 9, 35, 0
11, 26400, Note_on_c, 9, 35, 84
11, 26400, Note_on_c, 9, 49, 106
11, 26400, Note_on_c, 9, 37, 100
11, 26406, Note_on_c, 9, 35, 0
11, 26406, Note_on_c, 9, 49, 0
11, 26406, Note_on_c, 9, 37, 0
11, 26520, Note_on_c, 9, 37, 100
11, 26526, Note_on_c, 9, 37, 0
11, 26580, Note_on_c, 9, 35, 56
11, 26586, Note_on_c, 9, 35, 0
11, 26640, Note_on_c, 9, 35, 55
11, 26640, Note_on_c, 9, 37, 100
11, 26646, Note_on_c, 9, 35, 0
11, 26646, Note_on_c, 9, 37, 0
11, 26700, Note_on_c, 9, 40, 127
11, 26706, Note_on_c, 9, 40, 0
11, 26760, Note_on_c, 9, 37, 100
11, 26766, Note_on_c, 9, 37, 0
11, 26820, Note_on_c, 9, 40, 127
11, 26826, Note_on_c, 9, 40, 0
11, 26880, Note_on_c, 9, 37, 100
11, 26886, Note_on_c, 9, 37, 0
11, 26940, Note_on_c, 9, 48, 127
11, 26946, Note_on_c, 9, 48, 0
11, 27000, Note_on_c, 9, 37, 100
11, 27006, Note_on_c, 9, 37, 0
11, 27060, Note_on_c, 9, 48, 127
11, 27066, Note_on_c, 9, 48, 0
11, 27120, Note_on_c, 9, 37, 100
11, 27126, Note_on_c, 9, 37, 0
11, 27180, Note_on_c, 9, 45, 104
11, 27186, Note_on_c, 9, 45, 0
11, 27210, Note_on_c, 9, 45, 104
11, 27216, Note_on_c, 9, 45, 0
11, 27240, Note_on_c, 9, 37, 100
11, 27240, Note_on_c, 9, 45, 104
11, 27246, Note_on_c, 9, 37, 0
11, 27246, Note_on_c, 9, 45, 0
11, 27270, Note_on_c, 9, 45, 104
11, 27276, Note_on_c, 9, 45, 0
11, 27300, Note_on_c, 9, 45, 104
11, 27306, Note_on_c, 9, 45, 0
11, 27360, Note_on_c, 9, 35, 122
11, 27360, Note_on_c, 9, 37, 100
11, 27366, Note_on_c, 9, 35, 0
11, 27366, Note_on_c, 9, 37, 0
11, 27480, Note_on_c, 9, 37, 100
11, 27486, Note_on_c, 9, 37, 0
11, 27600, Note_on_c, 9, 37, 100
11, 27600, Note_on_c, 9, 40, 127
11, 27606, Note_on_c, 9, 37, 0
11, 27606, Note_on_c, 9, 40, 0
11, 27720, Note_on_c, 9, 37, 100
11, 27726, Note_on_c, 9, 37, 0
11, 27780, Note_on_c, 9, 35, 90
11, 27786, Note_on_c, 9, 35, 0
11, 27840, Note_on_c, 9, 37, 100
11, 27846, Note_on_c, 9, 37, 0
11, 27960, Note_on_c, 9, 37, 100
11, 27966, Note_on_c, 9, 37, 0
11, 28020, Note_on_c, 9, 35, 100
11, 28026, Note_on_c, 9, 35, 0
11, 28080, Note_on_c, 9, 40, 127
11, 28080, Note_on_c, 9, 37, 100
11, 28086, Note_on_c, 9, 40, 0
11, 28086, Note_on_c, 9, 37, 0
11, 28200, Note_on_c, 9, 37, 100
11, 28206, Note_on_c, 9, 37, 0
11, 28320, Note_on_c, 9, 37, 100
11, 28320, Note_on_c, 9, 40, 72
11, 28326, Note_on_c, 9, 37, 0
11, 28326, Note_on_c, 9, 40, 0
11, 28360, Note_on_c, 9, 40, 72
11, 28366, Note_on_c, 9, 40, 0
11, 28400, Note_on_c, 9, 35, 80
11, 28406, Note_on_c, 9, 35, 0
11, 28440, Note_on_c, 9, 40, 62
11, 28440, Note_on_c, 9, 37, 100
11, 28446, Note_on_c, 9, 40, 0
11, 28446, Note_on_c, 9, 37, 0
11, 28480, Note_on_c, 9, 40, 60
11, 28486, Note_on_c, 9, 40, 0
11, 28520, Note_on_c, 9, 35, 53
11, 28526, Note_on_c, 9, 35, 0
11, 28560, Note_on_c, 9, 40, 61
11, 28560, Note_on_c, 9, 37, 100
11, 28566, Note_on_c, 9, 40, 0
11, 28566, Note_on_c, 9, 37, 0
11, 28600, Note_on_c, 9, 40, 58
11, 28606, Note_on_c, 9, 40, 0
11, 28640, Note_on_c, 9, 35, 53
11, 28646, Note_on_c, 9, 35, 0
11, 28680, Note_on_c, 9, 37, 100
11, 28680, Note_on_c, 9, 40, 69
11, 28686, Note_on_c, 9, 37, 0
11, 28686, Note_on_c, 9, 40, 0
11, 28720, Note_on_c, 9, 40, 77
11, 28726, Note_on_c, 9, 40, 0
11, 28760, Note_on_c, 9, 35, 51
11, 28766, Note_on_c, 9, 35, 0
11, 28800, Note_on_c, 9, 40, 65
11, 28800, Note_on_c, 9, 37, 100
11, 28806, Note_on_c, 9, 40, 0
11, 28806, Note_on_c, 9, 37, 0
11, 28840, Note_on_c, 9, 40, 65
11, 28846, Note_on_c, 9, 40, 0
11, 28880, Note_on_c, 9, 35, 50
11, 28886, Note_on_c, 9, 35, 0
11, 28920, Note_on_c, 9, 40, 77
11, 28920, Note_on_c, 9, 37, 100
11, 28926, Note_on_c, 9, 40, 0
11, 28926, Note_on_c, 9, 37, 0
11, 28960, Note_on_c, 9, 40, 77
11, 28966, Note_on_c, 9, 40, 0
11, 29000, Note_on_c, 9, 35, 68
11, 29006, Note_on_c, 9, 35, 0
11, 29040, Note_on_c, 9, 40, 73
11, 29040, Note_on_c, 9, 37, 100
11, 29046, Note_on_c, 9, 40, 0
11, 29046, Note_on_c, 9, 37, 0
11, 29080, Note_on_c, 9, 40, 73
11, 29086, Note_on_c, 9, 40, 0
11, 29120, Note_on_c, 9, 40, 73
11, 29126, Note_on_c, 9, 40, 0
11, 29160, Note_on_c, 9, 35, 118
11, 29160, Note_on_c, 9, 37, 100
11, 29160, Note_on_c, 9, 45, 118
11, 29160, Note_on_c, 9, 40, 101
11, 29166, Note_on_c, 9, 35, 0
11, 29166, Note_on_c, 9, 37, 0
11, 29166, Note_on_c, 9, 45, 0
11, 29166, Note_on_c, 9, 40, 0
11, 29200, Note_on_c, 9, 45, 110
11, 29200, Note_on_c, 9, 40, 101
11, 29206, Note_on_c, 9, 45, 0
11, 29206, Note_on_c, 9, 40, 0
11, 29240, Note_on_c, 9, 45, 122
11, 29240, Note_on_c, 9, 40, 101
11, 29246, Note_on_c, 9, 45, 0
11, 29246, Note_on_c, 9, 40, 0
11, 29280, Note_on_c, 9, 35, 94
11, 29280, Note_on_c, 9, 49, 100
11, 29280, Note_on_c, 9, 37, 100
11, 29286, Note_on_c, 9, 35, 0
11, 29286, Note_on_c, 9, 49, 0
11, 29286, Note_on_c, 9, 37, 0
11, 29400, Note_on_c, 9, 37, 100
11, 29406, Note_on_c, 9, 37, 0
11, 29460, Note_on_c, 9, 35, 84
11, 29466, Note_on_c, 9, 35, 0
11, 29520, Note_on_c, 9, 37, 100
11, 29520, Note_on_c, 9, 40, 127
11, 29526, Note_on_c, 9, 37, 0
11, 29526, Note_on_c, 9, 40, 0
11, 29640, Note_on_c, 9, 37, 100
11, 29646, Note_on_c, 9, 37, 0
11, 29700, Note_on_c, 9, 35, 64
11, 29706, Note_on_c, 9, 35, 0
11, 29760, Note_on_c, 9, 37, 100
11, 29760, Note_on_c, 9, 35, 94
11, 29766, Note_on_c, 9, 37, 0
11, 29766, Note_on_c, 9, 35, 0
11, 29880, Note_on_c, 9, 37, 100
11, 29886, Note_on_c, 9, 37, 0
11, 29940, Note_on_c, 9, 35, 49
11, 29946, Note_on_c, 9, 35, 0
11, 30000, Note_on_c, 9, 40, 127
11, 30000, Note_on_c, 9, 37, 100
11, 30006, Note_on_c, 9, 40, 0
11, 30006, Note_on_c, 9, 37, 0
11, 30090, Note_on_c, 9, 47, 50
11, 30096, Note_on_c, 9, 47, 0
11, 30120, Note_on_c, 9, 47, 90
11, 30120, Note_on_c, 9, 37, 100
11, 30126, Note_on_c, 9, 47, 0
11, 30126, Note_on_c, 9, 37, 0
11, 30150, Note_on_c, 9, 47, 106
11, 30156, Note_on_c, 9, 47, 0
11, 30180, Note_on_c, 9, 47, 127
11, 30186, Note_on_c, 9, 47, 0
11, 30240, Note_on_c, 9, 37, 100
11, 30240, Note_on_c, 9, 35, 76
11, 30246, Note_on_c, 9, 37, 0
11, 30246, Note_on_c, 9, 35, 0
11, 30360, Note_on_c, 9, 37, 100
11, 30366, Note_on_c, 9, 37, 0
11, 30420, Note_on_c, 9, 35, 61
11, 30426, Note_on_c, 9, 35, 0
11, 30480, Note_on_c, 9, 37, 100
11, 30480, Note_on_c, 9, 40, 127
11, 30486, Note_on_c, 9, 37, 0
11, 30486, Note_on_c, 9, 40, 0
11, 30600, Note_on_c, 9, 37, 100
11, 30606, Note_on_c, 9, 37, 0
11, 30660, Note_on_c, 9, 35, 51
11, 30666, Note_on_c, 9, 35, 0
11, 30720, Note_on_c, 9, 35, 73
11, 30720, Note_on_c, 9, 37, 100
11, 30726, Note_on_c, 9, 35, 0
11, 30726, Note_on_c, 9, 37, 0
11, 30780, Note_on_c, 9, 40, 113
11, 30786, Note_on_c, 9, 40, 0
11, 30840, Note_on_c, 9, 48, 82
11, 30840, Note_on_c, 9, 37, 100
11, 30846, Note_on_c, 9, 48, 0
11, 30846, Note_on_c, 9, 37, 0
11, 30900, Note_on_c, 9, 47, 85
11, 30906, Note_on_c, 9, 47, 0
11, 30960, Note_on_c, 9, 37, 100
11, 30960, Note_on_c, 9, 45, 88
11, 30966, Note_on_c, 9, 37, 0
11, 30966, Note_on_c, 9, 45, 0
11, 31020, Note_on_c, 9, 47, 74
11, 31026, Note_on_c, 9, 47, 0
11, 31080, Note_on_c, 9, 37, 100
11, 31080, Note_on_c, 9, 35, 52
11, 31080, Note_on_c, 9, 49, 64
11, 31086, Note_on_c, 9, 37, 0
11, 31086, Note_on_c, 9, 35, 0
11, 31086, Note_on_c, 9, 49, 0
11, 31200, Note_on_c, 9, 37, 100
11, 31200, Note_on_c, 9, 35, 87
11, 31206, Note_on_c, 9, 37, 0
11, 31206, Note_on_c, 9, 35, 0
11, 31320, Note_on_c, 9, 37, 100
11, 31326, Note_on_c, 9, 37, 0
11, 31380, Note_on_c, 9, 35, 70
11, 31386, Note_on_c, 9, 35, 0
11, 31440, Note_on_c, 9, 37, 100
11, 31440, Note_on_c, 9, 40, 127
11, 31446, Note_on_c, 9, 37, 0
11, 31446, Note_on_c, 9, 40, 0
11, 31560, Note_on_c, 9, 37, 100
11, 31566, Note_on_c, 9, 37, 0
11, 31680, Note_on_c, 9, 37, 100
11, 31680, Note_on_c, 9, 35, 84
11, 31686, Note_on_c, 9, 37, 0
11, 31686, Note_on_c, 9, 35, 0
11, 31800, Note_on_c, 9, 37, 100
11, 31806, Note_on_c, 9, 37, 0
11, 31860, Note_on_c, 9, 35, 77
11, 31866, Note_on_c, 9, 35, 0
11, 31920, Note_on_c, 9, 37, 100
11, 31920, Note_on_c, 9, 40, 127
11, 31926, Note_on_c, 9, 37, 0
11, 31926, Note_on_c, 9, 40, 0
11, 31980, Note_on_c, 9, 35, 64
11, 31986, Note_on_c, 9, 35, 0
11, 32040, Note_on_c, 9, 37, 100
11, 32040, Note_on_c, 9, 40, 127
11, 32046, Note_on_c, 9, 37, 0
11, 32046, Note_on_c, 9, 40, 0
11, 32100, Note_on_c, 9, 35, 75
11, 32106, Note_on_c, 9, 35, 0
11, 32160, Note_on_c, 9, 35, 100
11, 32160, Note_on_c, 9, 37, 100
11, 32166, Note_on_c, 9, 35, 0
11, 32166, Note_on_c, 9, 37, 0
11, 32280, Note_on_c, 9, 37, 100
11, 32286, Note_on_c, 9, 37, 0
11, 32310, Note_on_c, 9, 35, 56
11, 32316, Note_on_c, 9, 35, 0
11, 32340, Note_on_c, 9, 35, 78
11, 32346, Note_on_c, 9, 35, 0
11, 32400, Note_on_c, 9, 37, 100
11, 32400, Note_on_c, 9, 40, 127
11, 32406, Note_on_c, 9, 37, 0
11, 32406, Note_on_c, 9, 40, 0
11, 32460, Note_on_c, 9, 35, 98
11, 32466, Note_on_c, 9, 35, 0
11, 32520, Note_on_c, 9, 48, 69
11, 32520, Note_on_c, 9, 37, 100
11, 32526, Note_on_c, 9, 48, 0
11, 32526, Note_on_c, 9, 37, 0
11, 32580, Note_on_c, 9, 48, 64
11, 32586, Note_on_c, 9, 48, 0
11, 32610, Note_on_c, 9, 48, 81
11, 32616, Note_on_c, 9, 48, 0
11, 32640, Note_on_c, 9, 35, 80
11, 32640, Note_on_c, 9, 48, 112
11, 32640, Note_on_c, 9, 37, 100
11, 32646, Note_on_c, 9, 35, 0
11, 32646, Note_on_c, 9, 48, 0
11, 32646, Note_on_c, 9, 37, 0
11, 32670, Note_on_c, 9, 48, 117
11, 32676, Note_on_c, 9, 48, 0
11, 32700, Note_on_c, 9, 48, 126
11, 32706, Note_on_c, 9, 48, 0
11, 32760, Note_on_c, 9, 37, 100
11, 32760, Note_on_c, 9, 45, 52
11, 32766, Note_on_c, 9, 37, 0
11, 32766, Note_on_c, 9, 45, 0
11, 32790, Note_on_c, 9, 45, 73
11, 32796, Note_on_c, 9, 45, 0
11, 32820, Note_on_c, 9, 45, 100
11, 32826, Note_on_c, 9, 45, 0
11, 32850, Note_on_c, 9, 45, 93
11, 32856, Note_on_c, 9, 45, 0
11, 32880, Note_on_c, 9, 37, 100
11, 32880, Note_on_c, 9, 35, 80
11, 32880, Note_on_c, 9, 45, 126
11, 32886, Note_on_c, 9, 37, 0
11, 32886, Note_on_c, 9, 35, 0
11, 32886, Note_on_c, 9, 45, 0
11, 32940, Note_on_c, 9, 43, 86
11, 32946, Note_on_c, 9, 43, 0
11, 32970, Note_on_c, 9, 43, 93
11, 32976, Note_on_c, 9, 43, 0
11, 33000, Note_on_c, 9, 43, 126
11, 33000, Note_on_c, 9, 37, 100
11, 33006, Note_on_c, 9, 43, 0
11, 33006, Note_on_c, 9, 37, 0
11, 33030, Note_on_c, 9, 43, 126
11, 33036, Note_on_c, 9, 43, 0
11, 33060, Note_on_c, 9, 43, 126
11, 33066, Note_on_c, 9, 43, 0
11, 33120, Note_on_c, 9, 37, 100
11, 33120, Note_on_c, 9, 35, 78
11, 33126, Note_on_c, 9, 37, 0
11, 33126, Note_on_c, 9, 35, 0
11, 33240, Note_on_c, 9, 37, 100
11, 33246, Note_on_c, 9, 37, 0
11, 33300, Note_on_c, 9, 35, 74
11, 33306, Note_on_c, 9, 35, 0
11, 33360, Note_on_c, 9, 37, 100
11, 33360, Note_on_c, 9, 40, 100
11, 33366, Note_on_c, 9, 37, 0
11, 33366, Note_on_c, 9, 40, 0
11, 33420, Note_on_c, 9, 47, 106
11, 33426, Note_on_c, 9, 47, 0
11, 33480, Note_on_c, 9, 37, 100
11, 33486, Note_on_c, 9, 37, 0
11, 33540, Note_on_c, 9, 35, 80
11, 33546, Note_on_c, 9, 35, 0
11, 33600, Note_on_c, 9, 37, 100
11, 33606, Note_on_c, 9, 37, 0
11, 33660, Note_on_c, 9, 35, 48
11, 33666, Note_on_c, 9, 35, 0
11, 33720, Note_on_c, 9, 37, 100
11, 33720, Note_on_c, 9, 35, 78
11, 33726, Note_on_c, 9, 37, 0
11, 33726, Note_on_c, 9, 35, 0
11, 33840, Note_on_c, 9, 37, 100
11, 33846, Note_on_c, 9, 37, 0
11, 33900, Note_on_c, 9, 40, 100
11, 33906, Note_on_c, 9, 40, 0
11, 33960, Note_on_c, 9, 40, 127
11, 33960, Note_on_c, 9, 37, 100
11, 33966, Note_on_c, 9, 40, 0
11, 33966, Note_on_c, 9, 37, 0
11, 34020, Note_on_c, 9, 35, 59
11, 34026, Note_on_c, 9, 35, 0
11, 34080, Note_on_c, 9, 37, 100
11, 34080, Note_on_c, 9, 35, 85
11, 34086, Note_on_c, 9, 37, 0
11, 34086, Note_on_c, 9, 35, 0
11, 34200, Note_on_c, 9, 37, 100
11, 34206, Note_on_c, 9, 37, 0
11, 34260, Note_on_c, 9, 35, 73
11, 34266, Note_on_c, 9, 35, 0
11, 34320, Note_on_c, 9, 37, 100
11, 34320, Note_on_c, 9, 40, 127
11, 34326, Note_on_c, 9, 37, 0
11, 34326, Note_on_c, 9, 40, 0
11, 34380, Note_on_c, 9, 35, 63
11, 34386, Note_on_c, 9, 35, 0
11, 34440, Note_on_c, 9, 37, 100
11, 34446, Note_on_c, 9, 37, 0
11, 34560, Note_on_c, 9, 37, 100
11, 34560, Note_on_c, 9, 35, 84
11, 34566, Note_on_c, 9, 37, 0
11, 34566, Note_on_c, 9, 35, 0
11, 34680, Note_on_c, 9, 37, 100
11, 34686, Note_on_c, 9, 37, 0
11, 34740, Note_on_c, 9, 35, 63
11, 34746, Note_on_c, 9, 35, 0
11, 34800, Note_on_c, 9, 37, 100
11, 34806, Note_on_c, 9, 37, 0
11, 34860, Note_on_c, 9, 35, 72
11, 34866, Note_on_c, 9, 35, 0
11, 34920, Note_on_c, 9, 37, 100
11, 34920, Note_on_c, 9, 40, 53
11, 34926, Note_on_c, 9, 37, 0
11, 34928, Note_on_c, 9, 40, 0
11, 34931, Note_on_c, 9, 40, 60
11, 34939, Note_on_c, 9, 40, 0
11, 34940, Note_on_c, 9, 40, 65
11, 34948, Note_on_c, 9, 40, 0
11, 34951, Note_on_c, 9, 40, 72
11, 34959, Note_on_c, 9, 40, 0
11, 34960, Note_on_c, 9, 40, 78
11, 34968, Note_on_c, 9, 40, 0
11, 34970, Note_on_c, 9, 40, 82
11, 34978, Note_on_c, 9, 40, 0
11, 34980, Note_on_c, 9, 35, 65
11, 34986, Note_on_c, 9, 35, 0
11, 35040, Note_on_c, 9, 35, 85
11, 35040, Note_on_c, 9, 37, 100
11, 35046, Note_on_c, 9, 35, 0
11, 35046, Note_on_c, 9, 37, 0
11, 35160, Note_on_c, 9, 37, 100
11, 35166, Note_on_c, 9, 37, 0
11, 35220, Note_on_c, 9, 35, 72
11, 35226, Note_on_c, 9, 35, 0
11, 35280, Note_on_c, 9, 40, 127
11, 35280, Note_on_c, 9, 37, 100
11, 35286, Note_on_c, 9, 40, 0
11, 35286, Note_on_c, 9, 37, 0
11, 35340, Note_on_c, 9, 35, 43
11, 35346, Note_on_c, 9, 35, 0
11, 35400, Note_on_c, 9, 35, 49
11, 35400, Note_on_c, 9, 37, 100
11, 35406, Note_on_c, 9, 35, 0
11, 35406, Note_on_c, 9, 37, 0
11, 35460, Note_on_c, 9, 40, 127
11, 35466, Note_on_c, 9, 40, 0
11, 35520, Note_on_c, 9, 35, 59
11, 35520, Note_on_c, 9, 37, 100
11, 35526, Note_on_c, 9, 35, 0
11, 35526, Note_on_c, 9, 37, 0
11, 35580, Note_on_c, 9, 35, 60
11, 35586, Note_on_c, 9, 35, 0
11, 35640, Note_on_c, 9, 40, 127
11, 35640, Note_on_c, 9, 37, 100
11, 35646, Note_on_c, 9, 40, 0
11, 35646, Note_on_c, 9, 37, 0
11, 35700, Note_on_c, 9, 35, 76
11, 35706, Note_on_c, 9, 35, 0
11, 35760, Note_on_c, 9, 35, 78
11, 35760, Note_on_c, 9, 37, 100
11, 35766, Note_on_c, 9, 35, 0
11, 35766, Note_on_c, 9, 37, 0
11, 35820, Note_on_c, 9, 40, 127
11, 35826, Note_on_c, 9, 40, 0
11, 35880, Note_on_c, 9, 35, 64
11, 35880, Note_on_c, 9, 37, 100
11, 35886, Note_on_c, 9, 35, 0
11, 35886, Note_on_c, 9, 37, 0
11, 35940, Note_on_c, 9, 35, 66
11, 35946, Note_on_c, 9, 35, 0
11, 36000, Note_on_c, 9, 35, 84
11, 36000, Note_on_c, 9, 37, 100
11, 36006, Note_on_c, 9, 35, 0
11, 36006, Note_on_c, 9, 37, 0
11, 36120, Note_on_c, 9, 37, 100
11, 36126, Note_on_c, 9, 37, 0
11, 36180, Note_on_c, 9, 35, 76
11, 36186, Note_on_c, 9, 35, 0
11, 36240, Note_on_c, 9, 37, 100
11, 36240, Note_on_c, 9, 40, 127
11, 36246, Note_on_c, 9, 37, 0
11, 36246, Note_on_c, 9, 40, 0
11, 36360, Note_on_c, 9, 35, 56
11, 36360, Note_on_c, 9, 37, 100
11, 36366, Note_on_c, 9, 35, 0
11, 36366, Note_on_c, 9, 37, 0
11, 36420, Note_on_c, 9, 40, 127
11, 36426, Note_on_c, 9, 40, 0
11, 36480, Note_on_c, 9, 37, 100
11, 36486, Note_on_c, 9, 37, 0
11, 36540, Note_on_c, 9, 48, 72
11, 36546, Note_on_c, 9, 48, 0
11, 36570, Note_on_c, 9, 48, 80
11, 36576, Note_on_c, 9, 48, 0
11, 36600, Note_on_c, 9, 37, 100
11, 36600, Note_on_c, 9, 48, 88
11, 36606, Note_on_c, 9, 37, 0
11, 36606, Note_on_c, 9, 48, 0
11, 36630, Note_on_c, 9, 48, 105
11, 36636, Note_on_c, 9, 48, 0
11, 36690, Note_on_c, 9, 45, 60
11, 36696, Note_on_c, 9, 45, 0
11, 36720, Note_on_c, 9, 37, 100
11, 36720, Note_on_c, 9, 45, 69
11, 36726, Note_on_c, 9, 37, 0
11, 36726, Note_on_c, 9, 45, 0
11, 36750, Note_on_c, 9, 45, 92
11, 36756, Note_on_c, 9, 45, 0
11, 36810, Note_on_c, 9, 45, 80
11, 36816, Note_on_c, 9, 45, 0
11, 36840, Note_on_c, 9, 45, 78
11, 36840, Note_on_c, 9, 37, 100
11, 36846, Note_on_c, 9, 45, 0
11, 36846, Note_on_c, 9, 37, 0
11, 36870, Note_on_c, 9, 45, 88
11, 36876, Note_on_c, 9, 45, 0
11, 36900, Note_on_c, 9, 40, 105
11, 36906, Note_on_c, 9, 40, 0
11, 36960, Note_on_c, 9, 37, 100
11, 36960, Note_on_c, 9, 35, 100
11, 36960, Note_on_c, 9, 53, 127
11, 36966, Note_on_c, 9, 37, 0
11, 36966, Note_on_c, 9, 35, 0
11, 36966, Note_on_c, 9, 53, 0
11, 37080, Note_on_c, 9, 37, 100
11, 37086, Note_on_c, 9, 37, 0
11, 37140, Note_on_c, 9, 35, 61
11, 37146, Note_on_c, 9, 35, 0
11, 37200, Note_on_c, 9, 40, 127
11, 37200, Note_on_c, 9, 37, 100
11, 37200, Note_on_c, 9, 53, 127
11, 37206, Note_on_c, 9, 40, 0
11, 37206, Note_on_c, 9, 37, 0
11, 37206, Note_on_c, 9, 53, 0
11, 37320, Note_on_c, 9, 37, 100
11, 37326, Note_on_c, 9, 37, 0
11, 37380, Note_on_c, 9, 35, 76
11, 37386, Note_on_c, 9, 35, 0
11, 37440, Note_on_c, 9, 37, 100
11, 37440, Note_on_c, 9, 53, 127
11, 37446, Note_on_c, 9, 37, 0
11, 37446, Note_on_c, 9, 53, 0
11, 37500, Note_on_c, 9, 35, 70
11, 37506, Note_on_c, 9, 35, 0
11, 37560, Note_on_c, 9, 37, 100
11, 37566, Note_on_c, 9, 37, 0
11, 37620, Note_on_c, 9, 35, 78
11, 37626, Note_on_c, 9, 35, 0
11, 37680, Note_on_c, 9, 53, 127
11, 37680, Note_on_c, 9, 37, 100
11, 37686, Note_on_c, 9, 53, 0
11, 37686, Note_on_c, 9, 37, 0
11, 37710, Note_on_c, 9, 40, 78
11, 37716, Note_on_c, 9, 40, 0
11, 37800, Note_on_c, 9, 37, 100
11, 37806, Note_on_c, 9, 37, 0
11, 37860, Note_on_c, 9, 40, 127
11, 37866, Note_on_c, 9, 40, 0
11, 37920, Note_on_c, 9, 37, 100
11, 37920, Note_on_c, 9, 35, 78
11, 37920, Note_on_c, 9, 53, 127
11, 37926, Note_on_c, 9, 37, 0
11, 37926, Note_on_c, 9, 35, 0
11, 37926, Note_on_c, 9, 53, 0
11, 38040, Note_on_c, 9, 37, 100
11, 38046, Note_on_c, 9, 37, 0
11, 38100, Note_on_c, 9, 35, 57
11, 38106, Note_on_c, 9, 35, 0
11, 38160, Note_on_c, 9, 37, 100
11, 38160, Note_on_c, 9, 53, 127
11, 38160, Note_on_c, 9, 40, 127
11, 38166, Note_on_c, 9, 37, 0
11, 38166, Note_on_c, 9, 53, 0
11, 38166, Note_on_c, 9, 40, 0
11, 38280, Note_on_c, 9, 37, 100
11, 38286, Note_on_c, 9, 37, 0
11, 38340, Note_on_c, 9, 35, 72
11, 38346, Note_on_c, 9, 35, 0
11, 38400, Note_on_c, 9, 37, 100
11, 38400, Note_on_c, 9, 53, 122
11, 38406, Note_on_c, 9, 37, 0
11, 38406, Note_on_c, 9, 53, 0
11, 38460, Note_on_c, 9, 35, 60
11, 38466, Note_on_c, 9, 35, 0
11, 38520, Note_on_c, 9, 37, 100
11, 38526, Note_on_c, 9, 37, 0
11, 38580, Note_on_c, 9, 40, 118
11, 38586, Note_on_c, 9, 40, 0
11, 38640, Note_on_c, 9, 37, 100
11, 38640, Note_on_c, 9, 53, 106
11, 38646, Note_on_c, 9, 37, 0
11, 38646, Note_on_c, 9, 53, 0
11, 38700, Note_on_c, 9, 35, 60
11, 38706, Note_on_c, 9, 35, 0
11, 38760, Note_on_c, 9, 37, 100
11, 38762, Note_on_c, 9, 40, 101
11, 38766, Note_on_c, 9, 37, 0
11, 38766, Note_on_c, 9, 40, 0
11, 38767, Note_on_c, 9, 40, 101
11, 38770, Note_on_c, 9, 40, 0
11, 38771, Note_on_c, 9, 40, 88
11, 38778, Note_on_c, 9, 40, 0
11, 38780, Note_on_c, 9, 40, 75
11, 38785, Note_on_c, 9, 40, 0
11, 38786, Note_on_c, 9, 40, 68
11, 38793, Note_on_c, 9, 40, 0
11, 38795, Note_on_c, 9, 40, 52
11, 38799, Note_on_c, 9, 40, 0
11, 38800, Note_on_c, 9, 40, 24
11, 38807, Note_on_c, 9, 40, 0
11, 38810, Note_on_c, 9, 40, 36
11, 38817, Note_on_c, 9, 40, 0
11, 38820, Note_on_c, 9, 40, 46
11, 38820, Note_on_c, 9, 35, 52
11, 38826, Note_on_c, 9, 35, 0
11, 38827, Note_on_c, 9, 40, 0
11, 38832, Note_on_c, 9, 40, 36
11, 38839, Note_on_c, 9, 40, 0
11, 38840, Note_on_c, 9, 40, 50
11, 38847, Note_on_c, 9, 40, 0
11, 38852, Note_on_c, 9, 40, 36
11, 38859, Note_on_c, 9, 40, 0
11, 38860, Note_on_c, 9, 40, 52
11, 38867, Note_on_c, 9, 40, 0
11, 38872, Note_on_c, 9, 40, 34
11, 38879, Note_on_c, 9, 40, 0
11, 38880, Note_on_c, 9, 53, 110
11, 38880, Note_on_c, 9, 37, 100
11, 38880, Note_on_c, 9, 35, 85
11, 38886, Note_on_c, 9, 53, 0
11, 38886, Note_on_c, 9, 37, 0
11, 38886, Note_on_c, 9, 35, 0
11, 39000, Note_on_c, 9, 37, 100
11, 39000, Note_on_c, 9, 46, 127
11, 39006, Note_on_c, 9, 37, 0
11, 39006, Note_on_c, 9, 46, 0
11, 39060, Note_on_c, 9, 35, 53
11, 39066, Note_on_c, 9, 35, 0
11, 39120, Note_on_c, 9, 35, 60
11, 39120, Note_on_c, 9, 53, 110
11, 39120, Note_on_c, 9, 37, 100
11, 39126, Note_on_c, 9, 35, 0
11, 39126, Note_on_c, 9, 53, 0
11, 39126, Note_on_c, 9, 37, 0
11, 39240, Note_on_c, 9, 46, 127
11, 39240, Note_on_c, 9, 37, 100
11, 39246, Note_on_c, 9, 46, 0
11, 39246, Note_on_c, 9, 37, 0
11, 39300, Note_on_c, 9, 35, 59
11, 39306, Note_on_c, 9, 35, 0
11, 39360, Note_on_c, 9, 53, 113
11, 39360, Note_on_c, 9, 37, 100
11, 39360, Note_on_c, 9, 35, 76
11, 39366, Note_on_c, 9, 53, 0
11, 39366, Note_on_c, 9, 37, 0
11, 39366, Note_on_c, 9, 35, 0
11, 39480, Note_on_c, 9, 46, 127
11, 39480, Note_on_c, 9, 37, 100
11, 39486, Note_on_c, 9, 46, 0
11, 39486, Note_on_c, 9, 37, 0
11, 39540, Note_on_c, 9, 35, 59
11, 39546, Note_on_c, 9, 35, 0
11, 39600, Note_on_c, 9, 37, 100
11, 39600, Note_on_c, 9, 53, 113
11, 39600, Note_on_c, 9, 35, 80
11, 39606, Note_on_c, 9, 37, 0
11, 39606, Note_on_c, 9, 53, 0
11, 39606, Note_on_c, 9, 35, 0
11, 39720, Note_on_c, 9, 46, 127
11, 39720, Note_on_c, 9, 37, 100
11, 39726, Note_on_c, 9, 46, 0
11, 39726, Note_on_c, 9, 37, 0
11, 39780, Note_on_c, 9, 35, 57
11, 39786, Note_on_c, 9, 35, 0
11, 39840, Note_on_c, 9, 53, 110
11, 39840, Note_on_c, 9, 35, 92
11, 39846, Note_on_c, 9, 53, 0
11, 39846, Note_on_c, 9, 35, 0
11, 39900, Note_on_c, 9, 46, 127
11, 39906, Note_on_c, 9, 46, 0
11, 39960, Note_on_c, 9, 42, 127
11, 39966, Note_on_c, 9, 42, 0
11, 40020, Note_on_c, 9, 35, 100
11, 40026, Note_on_c, 9, 35, 0
11, 40080, Note_on_c, 9, 46, 127
11, 40086, Note_on_c, 9, 46, 0
11, 40140, Note_on_c, 9, 42, 127
11, 40146, Note_on_c, 9, 42, 0
11, 40200, Note_on_c, 9, 35, 100
11, 40206, Note_on_c, 9, 35, 0
11, 40260, Note_on_c, 9, 46, 127
11, 40266, Note_on_c, 9, 46, 0
11, 40320, Note_on_c, 9, 42, 106
11, 40326, Note_on_c, 9, 42, 0
11, 40380, Note_on_c, 9, 51, 100
11, 40386, Note_on_c, 9, 51, 0
11, 40410, Note_on_c, 9, 51, 110
11, 40416, Note_on_c, 9, 51, 0
11, 40440, Note_on_c, 9, 51, 110
11, 40446, Note_on_c, 9, 51, 0
11, 40470, Note_on_c, 9, 51, 127
11, 40476, Note_on_c, 9, 51, 0
11, 40500, Note_on_c, 9, 51, 127
11, 40506, Note_on_c, 9, 51, 0
11, 40620, Note_on_c, 9, 53, 103
11, 40626, Note_on_c, 9, 53, 0
11, 40650, Note_on_c, 9, 53, 127
11, 40656, Note_on_c, 9, 53, 0
11, 40680, Note_on_c, 9, 53, 127
11, 40686, Note_on_c, 9, 53, 0
11, 40740, Note_on_c, 9, 45, 127
11, 40746, Note_on_c, 9, 45, 0
11, 40800, Note_on_c, 9, 35, 122
11, 40800, Note_on_c, 9, 51, 127
11, 40806, Note_on_c, 9, 35, 0
11, 40806, Note_on_c, 9, 51, 0
11, 40920, Note_on_c, 9, 51, 122
11, 40926, Note_on_c, 9, 51, 0
11, 40980, Note_on_c, 9, 35, 68
11, 40986, Note_on_c, 9, 35, 0
11, 41040, Note_on_c, 9, 51, 122
11, 41040, Note_on_c, 9, 40, 127
11, 41046, Note_on_c, 9, 51, 0
11, 41046, Note_on_c, 9, 40, 0
11, 41160, Note_on_c, 9, 51, 127
11, 41166, Note_on_c, 9, 51, 0
11, 41220, Note_on_c, 9, 35, 54
11, 41226, Note_on_c, 9, 35, 0
11, 41280, Note_on_c, 9, 35, 85
11, 41280, Note_on_c, 9, 51, 127
11, 41286, Note_on_c, 9, 35, 0
11, 41286, Note_on_c, 9, 51, 0
11, 41400, Note_on_c, 9, 51, 122
11, 41406, Note_on_c, 9, 51, 0
11, 41460, Note_on_c, 9, 35, 58
11, 41466, Note_on_c, 9, 35, 0
11, 41520, Note_on_c, 9, 51, 127
11, 41520, Note_on_c, 9, 40, 127
11, 41526, Note_on_c, 9, 51, 0
11, 41526, Note_on_c, 9, 40, 0
11, 41640, Note_on_c, 9, 51, 127
11, 41646, Note_on_c, 9, 51, 0
11, 41700, Note_on_c, 9, 35, 41
11, 41706, Note_on_c, 9, 35, 0
11, 41760, Note_on_c, 9, 35, 94
11, 41760, Note_on_c, 9, 51, 127
11, 41766, Note_on_c, 9, 35, 0
11, 41766, Note_on_c, 9, 51, 0
11, 41880, Note_on_c, 9, 51, 127
11, 41886, Note_on_c, 9, 51, 0
11, 41940, Note_on_c, 9, 35, 47
11, 41946, Note_on_c, 9, 35, 0
11, 42000, Note_on_c, 9, 51, 127
11, 42000, Note_on_c, 9, 40, 127
11, 42006, Note_on_c, 9, 51, 0
11, 42006, Note_on_c, 9, 40, 0
11, 42120, Note_on_c, 9, 51, 127
11, 42126, Note_on_c, 9, 51, 0
11, 42180, Note_on_c, 9, 35, 52
11, 42186, Note_on_c, 9, 35, 0
11, 42240, Note_on_c, 9, 51, 127
11, 42240, Note_on_c, 9, 35, 84
11, 42246, Note_on_c, 9, 51, 0
11, 42246, Note_on_c, 9, 35, 0
11, 42360, Note_on_c, 9, 51, 127
11, 42366, Note_on_c, 9, 51, 0
11, 42420, Note_on_c, 9, 35, 56
11, 42426, Note_on_c, 9, 35, 0
11, 42480, Note_on_c, 9, 40, 122
11, 42480, Note_on_c, 9, 51, 110
11, 42486, Note_on_c, 9, 40, 0
11, 42486, Note_on_c, 9, 51, 0
11, 42510, Note_on_c, 9, 40, 78
11, 42516, Note_on_c, 9, 40, 0
11, 42540, Note_on_c, 9, 35, 59
11, 42546, Note_on_c, 9, 35, 0
11, 42600, Note_on_c, 9, 51, 127
11, 42600, Note_on_c, 9, 40, 127
11, 42606, Note_on_c, 9, 51, 0
11, 42606, Note_on_c, 9, 40, 0
11, 42660, Note_on_c, 9, 35, 37
11, 42666, Note_on_c, 9, 35, 0
11, 42720, Note_on_c, 9, 51, 127
11, 42720, Note_on_c, 9, 35, 97
11, 42726, Note_on_c, 9, 51, 0
11, 42726, Note_on_c, 9, 35, 0
11, 42840, Note_on_c, 9, 51, 127
11, 42846, Note_on_c, 9, 51, 0
11, 42900, Note_on_c, 9, 35, 49
11, 42906, Note_on_c, 9, 35, 0
11, 42960, Note_on_c, 9, 40, 127
11, 42960, Note_on_c, 9, 51, 127
11, 42966, Note_on_c, 9, 40, 0
11, 42966, Note_on_c, 9, 51, 0
11, 43080, Note_on_c, 9, 51, 127
11, 43086, Note_on_c, 9, 51, 0
11, 43200, Note_on_c, 9, 51, 127
11, 43200, Note_on_c, 9, 35, 66
11, 43206, Note_on_c, 9, 51, 0
11, 43206, Note_on_c, 9, 35, 0
11, 43320, Note_on_c, 9, 51, 127
11, 43326, Note_on_c, 9, 51, 0
11, 43380, Note_on_c, 9, 35, 47
11, 43386, Note_on_c, 9, 35, 0
11, 43440, Note_on_c, 9, 40, 127
11, 43440, Note_on_c, 9, 51, 127
11, 43446, Note_on_c, 9, 40, 0
11, 43446, Note_on_c, 9, 51, 0
11, 43560, Note_on_c, 9, 51, 127
11, 43566, Note_on_c, 9, 51, 0
11, 43620, Note_on_c, 9, 35, 45
11, 43626, Note_on_c, 9, 35, 0
11, 43680, Note_on_c, 9, 51, 127
11, 43680, Note_on_c, 9, 35, 77
11, 43686, Note_on_c, 9, 51, 0
11, 43686, Note_on_c, 9, 35, 0
11, 43800, Note_on_c, 9, 51, 127
11, 43806, Note_on_c, 9, 51, 0
11, 43920, Note_on_c, 9, 51, 127
11, 43920, Note_on_c, 9, 40, 127
11, 43926, Note_on_c, 9, 51, 0
11, 43926, Note_on_c, 9, 40, 0
11, 43980, Note_on_c, 9, 35, 63
11, 43986, Note_on_c, 9, 35, 0
11, 44040, Note_on_c, 9, 51, 127
11, 44046, Note_on_c, 9, 51, 0
11, 44160, Note_on_c, 9, 40, 92
11, 44160, Note_on_c, 9, 51, 127
11, 44166, Note_on_c, 9, 40, 0
11, 44166, Note_on_c, 9, 51, 0
11, 44220, Note_on_c, 9, 35, 103
11, 44226, Note_on_c, 9, 35, 0
11, 44340, Note_on_c, 9, 35, 77
11, 44340, Note_on_c, 9, 48, 122
11, 44346, Note_on_c, 9, 35, 0
11, 44346, Note_on_c, 9, 48, 0
11, 44460, Note_on_c, 9, 47, 110
11, 44466, Note_on_c, 9, 47, 0
11, 44520, Note_on_c, 9, 47, 127
11, 44520, Note_on_c, 9, 35, 66
11, 44526, Note_on_c, 9, 47, 0
11, 44526, Note_on_c, 9, 35, 0
11, 44580, Note_on_c, 9, 35, 84
11, 44580, Note_on_c, 9, 45, 127
11, 44586, Note_on_c, 9, 35, 0
11, 44586, Note_on_c, 9, 45, 0
11, 44640, Note_on_c, 9, 35, 92
11, 44640, Note_on_c, 9, 51, 127
11, 44646, Note_on_c, 9, 35, 0
11, 44646, Note_on_c, 9, 51, 0
11, 44760, Note_on_c, 9, 51, 127
11, 44766, Note_on_c, 9, 51, 0
11, 44820, Note_on_c, 9, 35, 67
11, 44826, Note_on_c, 9, 35, 0
11, 44880, Note_on_c, 9, 40, 127
11, 44880, Note_on_c, 9, 51, 127
11, 44886, Note_on_c, 9, 40, 0
11, 44886, Note_on_c, 9, 51, 0
11, 45000, Note_on_c, 9, 51, 127
11, 45006, Note_on_c, 9, 51, 0
11, 45060, Note_on_c, 9, 35, 43
11, 45066, Note_on_c, 9, 35, 0
11, 45120, Note_on_c, 9, 51, 127
11, 45120, Note_on_c, 9, 35, 66
11, 45126, Note_on_c, 9, 51, 0
11, 45126, Note_on_c, 9, 35, 0
11, 45240, Note_on_c, 9, 51, 118
11, 45246, Note_on_c, 9, 51, 0
11, 45300, Note_on_c, 9, 35, 52
11, 45306, Note_on_c, 9, 35, 0
11, 45360, Note_on_c, 9, 40, 127
11, 45360, Note_on_c, 9, 51, 118
11, 45366, Note_on_c, 9, 40, 0
11, 45366, Note_on_c, 9, 51, 0
11, 45480, Note_on_c, 9, 51, 122
11, 45486, Note_on_c, 9, 51, 0
11, 45540, Note_on_c, 9, 35, 62
11, 45546, Note_on_c, 9, 35, 0
11, 45600, Note_on_c, 9, 51, 127
11, 45600, Note_on_c, 9, 35, 73
11, 45606, Note_on_c, 9, 51, 0
11, 45606, Note_on_c, 9, 35, 0
11, 45720, Note_on_c, 9, 51, 127
11, 45726, Note_on_c, 9, 51, 0
11, 45780, Note_on_c, 9, 35, 50
11, 45786, Note_on_c, 9, 35, 0
11, 45840, Note_on_c, 9, 51, 127
11, 45840, Note_on_c, 9, 40, 127
11, 45846, Note_on_c, 9, 51, 0
11, 45846, Note_on_c, 9, 40, 0
11, 45960, Note_on_c, 9, 51, 127
11, 45966, Note_on_c, 9, 51, 0
11, 46020, Note_on_c, 9, 35, 54
11, 46026, Note_on_c, 9, 35, 0
11, 46080, Note_on_c, 9, 35, 85
11, 46080, Note_on_c, 9, 51, 127
11, 46086, Note_on_c, 9, 35, 0
11, 46086, Note_on_c, 9, 51, 0
11, 46200, Note_on_c, 9, 51, 127
11, 46206, Note_on_c, 9, 51, 0
11, 46260, Note_on_c, 9, 35, 45
11, 46266, Note_on_c, 9, 35, 0
11, 46320, Note_on_c, 9, 40, 127
11, 46320, Note_on_c, 9, 51, 127
11, 46326, Note_on_c, 9, 40, 0
11, 46326, Note_on_c, 9, 51, 0
11, 46380, Note_on_c, 9, 35, 41
11, 46386, Note_on_c, 9, 35, 0
11, 46440, Note_on_c, 9, 40, 127
11, 46440, Note_on_c, 9, 51, 127
11, 46446, Note_on_c, 9, 40, 0
11, 46446, Note_on_c, 9, 51, 0
11, 46500, Note_on_c, 9, 35, 58
11, 46506, Note_on_c, 9, 35, 0
11, 46560, Note_on_c, 9, 35, 90
11, 46560, Note_on_c, 9, 51, 122
11, 46566, Note_on_c, 9, 35, 0
11, 46566, Note_on_c, 9, 51, 0
11, 46680, Note_on_c, 9, 51, 127
11, 46686, Note_on_c, 9, 51, 0
11, 46740, Note_on_c, 9, 35, 62
11, 46746, Note_on_c, 9, 35, 0
11, 46800, Note_on_c, 9, 40, 127
11, 46800, Note_on_c, 9, 51, 127
11, 46806, Note_on_c, 9, 40, 0
11, 46806, Note_on_c, 9, 51, 0
11, 46920, Note_on_c, 9, 51, 127
11, 46926, Note_on_c, 9, 51, 0
11, 46980, Note_on_c, 9, 35, 65
11, 46986, Note_on_c, 9, 35, 0
11, 47040, Note_on_c, 9, 35, 92
11, 47040, Note_on_c, 9, 51, 127
11, 47046, Note_on_c, 9, 35, 0
11, 47046, Note_on_c, 9, 51, 0
11, 47160, Note_on_c, 9, 51, 127
11, 47166, Note_on_c, 9, 51, 0
11, 47220, Note_on_c, 9, 35, 59
11, 47226, Note_on_c, 9, 35, 0
11, 47280, Note_on_c, 9, 51, 127
11, 47280, Note_on_c, 9, 40, 127
11, 47286, Note_on_c, 9, 51, 0
11, 47286, Note_on_c, 9, 40, 0
11, 47400, Note_on_c, 9, 51, 127
11, 47406, Note_on_c, 9, 51, 0
11, 47460, Note_on_c, 9, 35, 77
11, 47466, Note_on_c, 9, 35, 0
11, 47520, Note_on_c, 9, 35, 113
11, 47520, Note_on_c, 9, 51, 127
11, 47526, Note_on_c, 9, 35, 0
11, 47526, Note_on_c, 9, 51, 0
11, 48100, Note_on_c, 9, 51, 90
11, 48106, Note_on_c, 9, 51, 0
11, 48759, Note_on_c, 9, 51, 110
11, 48765, Note_on_c, 9, 51, 0
11, 48765, End_track
12, 0, Start_track
12, 0, Title_t, "bass"
12, 0, MIDI_port, 0
12, 49, Program_c, 10, 32
12, 50, Control_c, 10, 7, 127
12, 51, Control_c, 10, 10, 64
12, 52, Control_c, 10, 91, 0
12, 293, Pitch_bend_c, 10, 3980
12, 300, Note_on_c, 10, 45, 127
12, 310, Pitch_bend_c, 10, 5019
12, 327, Pitch_bend_c, 10, 6057
12, 343, Pitch_bend_c, 10, 7096
12, 360, Pitch_bend_c, 10, 8134
12, 363, Pitch_bend_c, 10, 8134
12, 364, Pitch_bend_c, 10, 8192
12, 413, Note_on_c, 10, 45, 0
12, 420, Note_on_c, 10, 33, 110
12, 480, Note_on_c, 10, 38, 127
12, 484, Note_on_c, 10, 33, 0
12, 658, Note_on_c, 10, 38, 0
12, 660, Pitch_bend_c, 10, 4153
12, 660, Note_on_c, 10, 50, 127
12, 675, Pitch_bend_c, 10, 6173
12, 690, Pitch_bend_c, 10, 8192
12, 780, Note_on_c, 10, 48, 118
12, 782, Note_on_c, 10, 50, 0
12, 831, Note_on_c, 10, 48, 0
12, 840, Note_on_c, 10, 45, 103
12, 900, Note_on_c, 10, 41, 118
12, 903, Note_on_c, 10, 45, 0
12, 1131, Note_on_c, 10, 41, 0
12, 1140, Note_on_c, 10, 36, 90
12, 1193, Note_on_c, 10, 36, 0
12, 1200, Note_on_c, 10, 29, 97
12, 1380, Note_on_c, 10, 33, 118
12, 1385, Note_on_c, 10, 29, 0
12, 1409, Note_on_c, 10, 33, 0
12, 1440, Note_on_c, 10, 38, 118
12, 1620, Note_on_c, 10, 50, 127
12, 1620, Pitch_bend_c, 10, 4153
12, 1623, Note_on_c, 10, 38, 0
12, 1635, Pitch_bend_c, 10, 6173
12, 1650, Pitch_bend_c, 10, 8192
12, 1739, Note_on_c, 10, 50, 0
12, 1740, Note_on_c, 10, 48, 106
12, 1794, Note_on_c, 10, 48, 0
12, 1800, Note_on_c, 10, 45, 110
12, 1916, Note_on_c, 10, 45, 0
12, 1920, Note_on_c, 10, 41, 118
12, 2100, Note_on_c, 10, 36, 103
12, 2114, Note_on_c, 10, 41, 0
12, 2153, Note_on_c, 10, 36, 0
12, 2160, Note_on_c, 10, 29, 106
12, 2340, Note_on_c, 10, 33, 87
12, 2344, Note_on_c, 10, 29, 0
12, 2395, Note_on_c, 10, 33, 0
12, 2400, Note_on_c, 10, 50, 103
12, 2580, Note_on_c, 10, 45, 85
12, 2590, Note_on_c, 10, 50, 0
12, 2639, Note_on_c, 10, 45, 0
12, 2640, Note_on_c, 10, 50, 103
12, 2700, Note_on_c, 10, 45, 113
12, 2742, Note_on_c, 10, 50, 0
12, 2760, Note_on_c, 10, 38, 118
12, 2762, Note_on_c, 10, 45, 0
12, 2820, Note_on_c, 10, 41, 127
12, 2824, Note_on_c, 10, 38, 0
12, 3007, Note_on_c, 10, 41, 0
12, 3060, Note_on_c, 10, 48, 127
12, 3180, Note_on_c, 10, 36, 110
12, 3212, Note_on_c, 10, 48, 0
12, 3238, Note_on_c, 10, 36, 0
12, 3240, Note_on_c, 10, 41, 127
12, 3341, Note_on_c, 10, 41, 0
12, 3360, Note_on_c, 10, 50, 122
12, 3540, Note_on_c, 10, 45, 90
12, 3552, Note_on_c, 10, 50, 0
12, 3600, Note_on_c, 10, 50, 118
12, 3604, Note_on_c, 10, 45, 0
12, 3660, Note_on_c, 10, 45, 94
12, 3686, Note_on_c, 10, 50, 0
12, 3720, Note_on_c, 10, 38, 103
12, 3728, Note_on_c, 10, 45, 0
12, 3779, Note_on_c, 10, 38, 0
12, 3780, Note_on_c, 10, 41, 118
12, 4020, Note_on_c, 10, 36, 122
12, 4025, Note_on_c, 10, 41, 0
12, 4196, Note_on_c, 10, 36, 0
12, 4200, Note_on_c, 10, 29, 113
12, 4309, Note_on_c, 10, 29, 0
12, 4320, Note_on_c, 10, 38, 127
12, 4548, Note_on_c, 10, 38, 0
12, 4560, Note_on_c, 10, 50, 97
12, 4620, Note_on_c, 10, 48, 87
12, 4628, Note_on_c, 10, 50, 0
12, 4676, Note_on_c, 10, 48, 0
12, 4680, Note_on_c, 10, 45, 97
12, 4740, Note_on_c, 10, 37, 127
12, 4745, Note_on_c, 10, 45, 0
12, 4979, Note_on_c, 10, 37, 0
12, 4980, Note_on_c, 10, 32, 94
12, 5086, Note_on_c, 10, 32, 0
12, 5100, Note_on_c, 10, 32, 106
12, 5160, Note_on_c, 10, 32, 0
12, 5160, Note_on_c, 10, 37, 106
12, 5220, Note_on_c, 10, 32, 100
12, 5222, Note_on_c, 10, 37, 0
12, 5280, Note_on_c, 10, 38, 113
12, 5284, Note_on_c, 10, 32, 0
12, 5451, Note_on_c, 10, 38, 0
12, 5460, Note_on_c, 10, 50, 92
12, 5509, Note_on_c, 10, 50, 0
12, 5520, Note_on_c, 10, 50, 92
12, 5568, Note_on_c, 10, 50, 0
12, 5580, Note_on_c, 10, 48, 106
12, 5630, Note_on_c, 10, 48, 0
12, 5640, Note_on_c, 10, 45, 113
12, 5684, Note_on_c, 10, 45, 0
12, 5700, Note_on_c, 10, 41, 118
12, 5820, Note_on_c, 10, 36, 110
12, 5825, Note_on_c, 10, 41, 0
12, 5851, Note_on_c, 10, 36, 0
12, 5880, Note_on_c, 10, 29, 113
12, 6060, Note_on_c, 10, 36, 80
12, 6066, Note_on_c, 10, 29, 0
12, 6120, Note_on_c, 10, 41, 113
12, 6122, Note_on_c, 10, 36, 0
12, 6240, Note_on_c, 10, 36, 110
12, 6241, Note_on_c, 10, 41, 0
12, 6540, Note_on_c, 10, 43, 90
12, 6553, Note_on_c, 10, 36, 0
12, 6591, Note_on_c, 10, 43, 0
12, 6600, Note_on_c, 10, 43, 106
12, 6656, Note_on_c, 10, 43, 0
12, 6660, Note_on_c, 10, 36, 76
12, 6716, Note_on_c, 10, 36, 0
12, 6720, Note_on_c, 10, 34, 122
12, 6893, Note_on_c, 10, 34, 0
12, 6900, Note_on_c, 10, 34, 113
12, 7136, Note_on_c, 10, 34, 0
12, 7140, Note_on_c, 10, 41, 106
12, 7194, Note_on_c, 10, 41, 0
12, 7200, Note_on_c, 10, 36, 103
12, 7358, Note_on_c, 10, 36, 0
12, 7380, Note_on_c, 10, 36, 82
12, 7497, Note_on_c, 10, 36, 0
12, 7500, Note_on_c, 10, 36, 58
12, 7560, Note_on_c, 10, 43, 100
12, 7563, Note_on_c, 10, 36, 0
12, 7609, Note_on_c, 10, 43, 0
12, 7620, Note_on_c, 10, 36, 62
12, 7670, Note_on_c, 10, 36, 0
12, 7680, Note_on_c, 10, 34, 106
12, 7975, Note_on_c, 10, 34, 0
12, 7980, Note_on_c, 10, 41, 100
12, 8023, Note_on_c, 10, 41, 0
12, 8040, Note_on_c, 10, 41, 100
12, 8088, Note_on_c, 10, 41, 0
12, 8100, Note_on_c, 10, 34, 87
12, 8158, Note_on_c, 10, 34, 0
12, 8160, Note_on_c, 10, 38, 110
12, 8320, Note_on_c, 10, 38, 0
12, 8340, Note_on_c, 10, 50, 103
12, 8385, Note_on_c, 10, 50, 0
12, 8400, Note_on_c, 10, 50, 85
12, 8460, Note_on_c, 10, 48, 100
12, 8469, Note_on_c, 10, 50, 0
12, 8508, Note_on_c, 10, 48, 0
12, 8520, Note_on_c, 10, 45, 84
12, 8569, Note_on_c, 10, 45, 0
12, 8580, Note_on_c, 10, 41, 103
12, 8678, Note_on_c, 10, 41, 0
12, 8700, Note_on_c, 10, 43, 100
12, 8789, Note_on_c, 10, 43, 0
12, 8820, Note_on_c, 10, 44, 100
12, 8894, Note_on_c, 10, 44, 0
12, 8940, Note_on_c, 10, 46, 127
12, 9018, Note_on_c, 10, 46, 0
12, 9060, Note_on_c, 10, 48, 74
12, 9107, Note_on_c, 10, 48, 0
12, 9120, Note_on_c, 10, 50, 118
12, 9258, Note_on_c, 10, 50, 0
12, 9300, Note_on_c, 10, 50, 113
12, 9339, Note_on_c, 10, 50, 0
12, 9360, Note_on_c, 10, 50, 92
12, 9420, Note_on_c, 10, 48, 100
12, 9430, Note_on_c, 10, 50, 0
12, 9480, Note_on_c, 10, 43, 73
12, 9494, Note_on_c, 10, 48, 0
12, 9533, Note_on_c, 10, 43, 0
12, 9540, Note_on_c, 10, 37, 113
12, 9900, Note_on_c, 10, 32, 87
12, 9902, Note_on_c, 10, 37, 0
12, 9960, Note_on_c, 10, 37, 113
12, 9961, Note_on_c, 10, 32, 0
12, 10020, Note_on_c, 10, 32, 97
12, 10025, Note_on_c, 10, 37, 0
12, 10080, Note_on_c, 10, 38, 127
12, 10091, Note_on_c, 10, 32, 0
12, 10245, Note_on_c, 10, 38, 0
12, 10260, Note_on_c, 10, 50, 127
12, 10498, Note_on_c, 10, 50, 0
12, 10500, Note_on_c, 10, 38, 127
12, 10553, Note_on_c, 10, 38, 0
12, 10560, Note_on_c, 10, 41, 127
12, 10719, Note_on_c, 10, 41, 0
12, 10740, Note_on_c, 10, 36, 127
12, 10854, Note_on_c, 10, 36, 0
12, 10860, Note_on_c, 10, 29, 110
12, 10917, Note_on_c, 10, 29, 0
12, 10920, Note_on_c, 10, 41, 127
12, 10997, Note_on_c, 10, 41, 0
12, 11040, Note_on_c, 10, 50, 127
12, 11188, Note_on_c, 10, 50, 0
12, 11220, Note_on_c, 10, 50, 100
12, 11249, Note_on_c, 10, 50, 0
12, 11340, Note_on_c, 10, 45, 127
12, 11435, Note_on_c, 10, 45, 0
12, 11460, Note_on_c, 10, 41, 118
12, 11580, Note_on_c, 10, 48, 97
12, 11598, Note_on_c, 10, 41, 0
12, 11610, Note_on_c, 10, 48, 0
12, 11640, Note_on_c, 10, 41, 127
12, 11871, Note_on_c, 10, 41, 0
12, 11880, Note_on_c, 10, 41, 127
12, 11960, Note_on_c, 10, 41, 0
12, 12000, Note_on_c, 10, 38, 94
12, 12240, Note_on_c, 10, 50, 103
12, 12241, Note_on_c, 10, 38, 0
12, 12300, Note_on_c, 10, 48, 92
12, 12308, Note_on_c, 10, 50, 0
12, 12360, Note_on_c, 10, 45, 94
12, 12372, Note_on_c, 10, 48, 0
12, 12420, Note_on_c, 10, 38, 90
12, 12421, Note_on_c, 10, 45, 0
12, 12476, Note_on_c, 10, 38, 0
12, 12480, Note_on_c, 10, 37, 127
12, 12638, Note_on_c, 10, 37, 0
12, 12660, Note_on_c, 10, 37, 127
12, 12837, Note_on_c, 10, 37, 0
12, 12840, Note_on_c, 10, 32, 122
12, 12900, Note_on_c, 10, 37, 106
12, 12905, Note_on_c, 10, 32, 0
12, 12957, Note_on_c, 10, 37, 0
12, 12960, Note_on_c, 10, 38, 127
12, 13107, Note_on_c, 10, 38, 0
12, 13140, Note_on_c, 10, 38, 127
12, 13218, Note_on_c, 10, 38, 0
12, 13260, Note_on_c, 10, 45, 127
12, 13343, Note_on_c, 10, 45, 0
12, 13380, Note_on_c, 10, 41, 127
12, 13483, Note_on_c, 10, 41, 0
12, 13500, Note_on_c, 10, 41, 127
12, 13526, Note_on_c, 10, 41, 0
12, 13560, Note_on_c, 10, 41, 127
12, 13777, Note_on_c, 10, 41, 0
12, 13800, Note_on_c, 10, 41, 127
12, 13875, Note_on_c, 10, 41, 0
12, 13920, Note_on_c, 10, 36, 100
12, 14087, Note_on_c, 10, 36, 0
12, 14100, Note_on_c, 10, 36, 97
12, 14217, Note_on_c, 10, 36, 0
12, 14220, Note_on_c, 10, 36, 87
12, 14280, Note_on_c, 10, 43, 94
12, 14281, Note_on_c, 10, 36, 0
12, 14333, Note_on_c, 10, 43, 0
12, 14340, Note_on_c, 10, 36, 86
12, 14393, Note_on_c, 10, 36, 0
12, 14400, Note_on_c, 10, 46, 106
12, 14550, Note_on_c, 10, 46, 0
12, 14580, Note_on_c, 10, 46, 100
12, 14760, Note_on_c, 10, 41, 80
12, 14761, Note_on_c, 10, 46, 0
12, 14820, Note_on_c, 10, 46, 82
12, 14829, Note_on_c, 10, 41, 0
12, 14880, Note_on_c, 10, 48, 94
12, 14894, Note_on_c, 10, 46, 0
12, 15039, Note_on_c, 10, 48, 0
12, 15060, Note_on_c, 10, 43, 100
12, 15161, Note_on_c, 10, 43, 0
12, 15180, Note_on_c, 10, 43, 100
12, 15240, Note_on_c, 10, 43, 0
12, 15240, Note_on_c, 10, 36, 92
12, 15300, Note_on_c, 10, 43, 103
12, 15305, Note_on_c, 10, 36, 0
12, 15350, Note_on_c, 10, 43, 0
12, 15360, Note_on_c, 10, 34, 122
12, 15520, Note_on_c, 10, 34, 0
12, 15540, Note_on_c, 10, 34, 110
12, 15649, Note_on_c, 10, 34, 0
12, 15660, Note_on_c, 10, 34, 100
12, 15717, Note_on_c, 10, 34, 0
12, 15720, Note_on_c, 10, 41, 94
12, 15779, Note_on_c, 10, 41, 0
12, 15780, Note_on_c, 10, 34, 94
12, 15835, Note_on_c, 10, 34, 0
12, 15840, Note_on_c, 10, 41, 100
12, 16079, Note_on_c, 10, 41, 0
12, 16080, Note_on_c, 10, 53, 82
12, 16260, Note_on_c, 10, 48, 77
12, 16261, Note_on_c, 10, 53, 0
12, 16320, Note_on_c, 10, 48, 0
12, 16320, Note_on_c, 10, 41, 108
12, 16477, Note_on_c, 10, 41, 0
12, 16500, Note_on_c, 10, 41, 87
12, 16595, Note_on_c, 10, 41, 0
12, 16620, Note_on_c, 10, 41, 90
12, 16679, Note_on_c, 10, 41, 0
12, 16740, Note_on_c, 10, 41, 103
12, 16792, Note_on_c, 10, 41, 0
12, 16800, Note_on_c, 10, 40, 97
12, 16964, Note_on_c, 10, 40, 0
12, 16980, Note_on_c, 10, 40, 100
12, 17159, Note_on_c, 10, 40, 0
12, 17160, Note_on_c, 10, 35, 90
12, 17271, Note_on_c, 10, 35, 0
12, 17280, Note_on_c, 10, 40, 103
12, 17435, Note_on_c, 10, 40, 0
12, 17460, Note_on_c, 10, 40, 84
12, 17555, Note_on_c, 10, 40, 0
12, 17580, Note_on_c, 10, 40, 84
12, 17623, Note_on_c, 10, 40, 0
12, 17640, Note_on_c, 10, 47, 87
12, 17690, Note_on_c, 10, 47, 0
12, 17700, Note_on_c, 10, 40, 80
12, 17753, Note_on_c, 10, 40, 0
12, 17760, Note_on_c, 10, 45, 122
12, 17927, Note_on_c, 10, 45, 0
12, 17940, Note_on_c, 10, 45, 90
12, 17998, Note_on_c, 10, 45, 0
12, 18000, Note_on_c, 10, 43, 103
12, 18110, Note_on_c, 10, 43, 0
12, 18120, Note_on_c, 10, 41, 103
12, 18238, Note_on_c, 10, 41, 0
12, 18240, Note_on_c, 10, 36, 106
12, 18406, Note_on_c, 10, 36, 0
12, 18420, Note_on_c, 10, 31, 97
12, 18532, Note_on_c, 10, 31, 0
12, 18540, Note_on_c, 10, 31, 102
12, 18600, Note_on_c, 10, 36, 103
12, 18602, Note_on_c, 10, 31, 0
12, 18660, Note_on_c, 10, 31, 95
12, 18664, Note_on_c, 10, 36, 0
12, 18716, Note_on_c, 10, 31, 0
12, 18720, Note_on_c, 10, 45, 94
12, 18881, Note_on_c, 10, 45, 0
12, 18900, Note_on_c, 10, 45, 105
12, 18954, Note_on_c, 10, 45, 0
12, 18960, Note_on_c, 10, 43, 106
12, 19075, Note_on_c, 10, 43, 0
12, 19080, Note_on_c, 10, 41, 100
12, 19200, Note_on_c, 10, 36, 103
12, 19201, Note_on_c, 10, 41, 0
12, 19362, Note_on_c, 10, 36, 0
12, 19380, Note_on_c, 10, 36, 85
12, 19490, Note_on_c, 10, 36, 0
12, 19500, Note_on_c, 10, 36, 64
12, 19560, Note_on_c, 10, 31, 93
12, 19564, Note_on_c, 10, 36, 0
12, 19620, Note_on_c, 10, 36, 103
12, 19627, Note_on_c, 10, 31, 0
12, 19679, Note_on_c, 10, 36, 0
12, 19680, Note_on_c, 10, 45, 97
12, 19845, Note_on_c, 10, 45, 0
12, 19860, Note_on_c, 10, 45, 102
12, 19916, Note_on_c, 10, 45, 0
12, 19920, Note_on_c, 10, 44, 101
12, 20083, Note_on_c, 10, 44, 0
12, 20100, Note_on_c, 10, 44, 106
12, 20150, Note_on_c, 10, 44, 0
12, 20160, Note_on_c, 10, 43, 106
12, 20327, Note_on_c, 10, 43, 0
12, 20340, Note_on_c, 10, 43, 94
12, 20400, Note_on_c, 10, 37, 122
12, 20401, Note_on_c, 10, 43, 0
12, 20576, Note_on_c, 10, 37, 0
12, 20580, Note_on_c, 10, 37, 92
12, 20631, Note_on_c, 10, 37, 0
12, 20640, Note_on_c, 10, 34, 127
12, 20809, Note_on_c, 10, 34, 0
12, 20820, Note_on_c, 10, 34, 97
12, 20875, Note_on_c, 10, 34, 0
12, 20880, Note_on_c, 10, 41, 106
12, 21036, Note_on_c, 10, 41, 0
12, 21060, Note_on_c, 10, 41, 85
12, 21120, Note_on_c, 10, 32, 118
12, 21126, Note_on_c, 10, 41, 0
12, 21235, Note_on_c, 10, 32, 0
12, 21240, Note_on_c, 10, 35, 103
12, 21348, Note_on_c, 10, 35, 0
12, 21360, Note_on_c, 10, 38, 106
12, 21478, Note_on_c, 10, 38, 0
12, 21480, Note_on_c, 10, 41, 97
12, 21593, Note_on_c, 10, 41, 0
12, 21600, Note_on_c, 10, 40, 94
12, 21719, Note_on_c, 10, 40, 0
12, 21780, Note_on_c, 10, 40, 103
12, 21833, Note_on_c, 10, 40, 0
12, 21840, Note_on_c, 10, 40, 94
12, 22020, Note_on_c, 10, 35, 98
12, 22026, Note_on_c, 10, 40, 0
12, 22140, Note_on_c, 10, 35, 96
12, 22141, Note_on_c, 10, 35, 0
12, 22197, Note_on_c, 10, 35, 0
12, 22200, Note_on_c, 10, 40, 97
12, 22376, Note_on_c, 10, 40, 0
12, 22380, Note_on_c, 10, 40, 82
12, 22440, Note_on_c, 10, 35, 101
12, 22442, Note_on_c, 10, 40, 0
12, 22500, Note_on_c, 10, 35, 0
12, 22500, Note_on_c, 10, 40, 100
12, 22558, Note_on_c, 10, 40, 0
12, 22560, Note_on_c, 10, 42, 127
12, 22723, Note_on_c, 10, 42, 0
12, 22740, Note_on_c, 10, 42, 118
12, 22793, Note_on_c, 10, 42, 0
12, 22800, Note_on_c, 10, 37, 103
12, 22851, Note_on_c, 10, 37, 0
12, 22860, Note_on_c, 10, 37, 113
12, 22964, Note_on_c, 10, 37, 0
12, 22980, Note_on_c, 10, 30, 122
12, 23216, Note_on_c, 10, 30, 0
12, 23220, Note_on_c, 10, 37, 127
12, 23340, Note_on_c, 10, 42, 127
12, 23346, Note_on_c, 10, 37, 0
12, 23394, Note_on_c, 10, 42, 0
12, 23400, Note_on_c, 10, 37, 113
12, 23454, Note_on_c, 10, 37, 0
12, 23460, Note_on_c, 10, 42, 127
12, 23511, Note_on_c, 10, 42, 0
12, 23520, Note_on_c, 10, 43, 87
12, 23700, Note_on_c, 10, 43, 0
12, 23700, Note_on_c, 10, 38, 106
12, 23750, Note_on_c, 10, 38, 0
12, 23760, Note_on_c, 10, 43, 106
12, 23796, Note_on_c, 10, 43, 0
12, 23820, Note_on_c, 10, 43, 106
12, 23940, Note_on_c, 10, 38, 101
12, 23948, Note_on_c, 10, 43, 0
12, 24046, Note_on_c, 10, 38, 0
12, 24060, Note_on_c, 10, 38, 113
12, 24177, Note_on_c, 10, 38, 0
12, 24180, Note_on_c, 10, 43, 106
12, 24290, Note_on_c, 10, 43, 0
12, 24300, Note_on_c, 10, 38, 101
12, 24352, Note_on_c, 10, 38, 0
12, 24360, Note_on_c, 10, 38, 100
12, 24410, Note_on_c, 10, 38, 0
12, 24420, Note_on_c, 10, 43, 101
12, 24477, Note_on_c, 10, 43, 0
12, 24480, Note_on_c, 10, 45, 118
12, 24640, Note_on_c, 10, 45, 0
12, 24660, Note_on_c, 10, 45, 103
12, 24780, Note_on_c, 10, 40, 100
12, 24783, Note_on_c, 10, 45, 0
12, 24953, Note_on_c, 10, 40, 0
12, 24960, Note_on_c, 10, 33, 127
12, 25204, Note_on_c, 10, 33, 0
12, 25260, Note_on_c, 10, 33, 127
12, 25322, Note_on_c, 10, 33, 0
12, 25380, Note_on_c, 10, 33, 127
12, 25414, Note_on_c, 10, 33, 0
12, 25440, Note_on_c, 10, 34, 127
12, 25616, Note_on_c, 10, 34, 0
12, 25620, Note_on_c, 10, 41, 113
12, 25739, Note_on_c, 10, 41, 0
12, 25740, Note_on_c, 10, 46, 122
12, 25787, Note_on_c, 10, 46, 0
12, 25800, Note_on_c, 10, 46, 80
12, 25858, Note_on_c, 10, 46, 0
12, 25860, Note_on_c, 10, 41, 106
12, 25969, Note_on_c, 10, 41, 0
12, 25980, Note_on_c, 10, 34, 127
12, 26190, Note_on_c, 10, 34, 0
12, 26220, Note_on_c, 10, 34, 127
12, 26280, Note_on_c, 10, 41, 110
12, 26285, Note_on_c, 10, 34, 0
12, 26332, Note_on_c, 10, 41, 0
12, 26340, Note_on_c, 10, 34, 127
12, 26391, Note_on_c, 10, 34, 0
12, 26400, Note_on_c, 10, 36, 127
12, 26569, Note_on_c, 10, 36, 0
12, 26580, Note_on_c, 10, 36, 122
12, 26880, Note_on_c, 10, 36, 97
12, 26887, Note_on_c, 10, 36, 0
12, 27028, Note_on_c, 10, 36, 0
12, 27060, Note_on_c, 10, 36, 103
12, 27180, Note_on_c, 10, 48, 92
12, 27189, Note_on_c, 10, 36, 0
12, 27232, Note_on_c, 10, 48, 0
12, 27240, Note_on_c, 10, 36, 103
12, 27329, Note_on_c, 10, 36, 0
12, 27360, Note_on_c, 10, 37, 127
12, 27525, Note_on_c, 10, 37, 0
12, 27540, Note_on_c, 10, 37, 94
12, 27761, Note_on_c, 10, 37, 0
12, 27780, Note_on_c, 10, 32, 100
12, 27900, Note_on_c, 10, 37, 122
12, 27914, Note_on_c, 10, 32, 0
12, 27999, Note_on_c, 10, 37, 0
12, 28020, Note_on_c, 10, 37, 122
12, 28135, Note_on_c, 10, 37, 0
12, 28140, Note_on_c, 10, 32, 97
12, 28200, Note_on_c, 10, 37, 110
12, 28210, Note_on_c, 10, 32, 0
12, 28260, Note_on_c, 10, 32, 103
12, 28263, Note_on_c, 10, 37, 0
12, 28320, Note_on_c, 10, 39, 127
12, 28326, Note_on_c, 10, 32, 0
12, 28424, Note_on_c, 10, 39, 0
12, 28440, Note_on_c, 10, 41, 110
12, 28525, Note_on_c, 10, 41, 0
12, 28560, Note_on_c, 10, 43, 103
12, 28663, Note_on_c, 10, 43, 0
12, 28680, Note_on_c, 10, 44, 110
12, 28776, Note_on_c, 10, 44, 0
12, 28800, Note_on_c, 10, 46, 127
12, 28902, Note_on_c, 10, 46, 0
12, 28920, Note_on_c, 10, 48, 118
12, 29021, Note_on_c, 10, 48, 0
12, 29040, Note_on_c, 10, 49, 97
12, 29141, Note_on_c, 10, 49, 0
12, 29160, Note_on_c, 10, 51, 118
12, 29278, Note_on_c, 10, 51, 0
12, 29280, Note_on_c, 10, 40, 127
12, 29437, Note_on_c, 10, 40, 0
12, 29460, Note_on_c, 10, 35, 99
12, 29504, Note_on_c, 10, 35, 0
12, 29520, Note_on_c, 10, 35, 97
12, 29671, Note_on_c, 10, 35, 0
12, 29700, Note_on_c, 10, 40, 106
12, 29799, Note_on_c, 10, 40, 0
12, 29820, Note_on_c, 10, 40, 94
12, 29873, Note_on_c, 10, 40, 0
12, 29880, Note_on_c, 10, 40, 98
12, 29932, Note_on_c, 10, 40, 0
12, 29940, Note_on_c, 10, 35, 92
12, 30057, Note_on_c, 10, 35, 0
12, 30060, Note_on_c, 10, 40, 99
12, 30113, Note_on_c, 10, 40, 0
12, 30120, Note_on_c, 10, 35, 90
12, 30180, Note_on_c, 10, 40, 103
12, 30188, Note_on_c, 10, 35, 0
12, 30236, Note_on_c, 10, 40, 0
12, 30240, Note_on_c, 10, 42, 118
12, 30397, Note_on_c, 10, 42, 0
12, 30420, Note_on_c, 10, 42, 127
12, 30464, Note_on_c, 10, 42, 0
12, 30480, Note_on_c, 10, 37, 127
12, 30651, Note_on_c, 10, 37, 0
12, 30660, Note_on_c, 10, 37, 100
12, 30678, Note_on_c, 10, 37, 0
12, 30720, Note_on_c, 10, 30, 118
12, 30899, Note_on_c, 10, 30, 0
12, 30900, Note_on_c, 10, 37, 118
12, 31007, Note_on_c, 10, 37, 0
12, 31020, Note_on_c, 10, 42, 127
12, 31057, Note_on_c, 10, 42, 0
12, 31080, Note_on_c, 10, 37, 122
12, 31137, Note_on_c, 10, 37, 0
12, 31140, Note_on_c, 10, 30, 118
12, 31190, Note_on_c, 10, 30, 0
12, 31200, Note_on_c, 10, 31, 107
12, 31380, Note_on_c, 10, 38, 103
12, 31382, Note_on_c, 10, 31, 0
12, 31428, Note_on_c, 10, 38, 0
12, 31440, Note_on_c, 10, 38, 110
12, 31490, Note_on_c, 10, 38, 0
12, 31500, Note_on_c, 10, 38, 94
12, 31612, Note_on_c, 10, 38, 0
12, 31620, Note_on_c, 10, 38, 111
12, 31673, Note_on_c, 10, 38, 0
12, 31680, Note_on_c, 10, 43, 108
12, 31731, Note_on_c, 10, 43, 0
12, 31740, Note_on_c, 10, 31, 105
12, 31860, Note_on_c, 10, 38, 103
12, 31871, Note_on_c, 10, 31, 0
12, 31968, Note_on_c, 10, 38, 0
12, 31980, Note_on_c, 10, 43, 100
12, 32013, Note_on_c, 10, 43, 0
12, 32040, Note_on_c, 10, 31, 90
12, 32098, Note_on_c, 10, 31, 0
12, 32100, Note_on_c, 10, 38, 106
12, 32157, Note_on_c, 10, 38, 0
12, 32160, Note_on_c, 10, 33, 103
12, 32324, Note_on_c, 10, 33, 0
12, 32340, Note_on_c, 10, 33, 110
12, 32635, Note_on_c, 10, 33, 0
12, 32640, Note_on_c, 10, 33, 103
12, 32818, Note_on_c, 10, 33, 0
12, 32820, Note_on_c, 10, 45, 113
12, 32940, Note_on_c, 10, 45, 0
12, 32940, Note_on_c, 10, 33, 92
12, 32980, Note_on_c, 10, 33, 0
12, 33000, Note_on_c, 10, 33, 103
12, 33060, Note_on_c, 10, 45, 110
12, 33062, Note_on_c, 10, 33, 0
12, 33111, Note_on_c, 10, 45, 0
12, 33120, Note_on_c, 10, 34, 127
12, 33287, Note_on_c, 10, 34, 0
12, 33300, Note_on_c, 10, 34, 106
12, 33360, Note_on_c, 10, 41, 103
12, 33362, Note_on_c, 10, 34, 0
12, 33535, Note_on_c, 10, 41, 0
12, 33540, Note_on_c, 10, 46, 127
12, 33660, Note_on_c, 10, 41, 84
12, 33665, Note_on_c, 10, 46, 0
12, 33680, Note_on_c, 10, 41, 0
12, 33720, Note_on_c, 10, 34, 127
12, 34020, Note_on_c, 10, 41, 97
12, 34022, Note_on_c, 10, 34, 0
12, 34070, Note_on_c, 10, 41, 0
12, 34080, Note_on_c, 10, 36, 103
12, 34248, Note_on_c, 10, 36, 0
12, 34260, Note_on_c, 10, 36, 104
12, 34498, Note_on_c, 10, 36, 0
12, 34500, Note_on_c, 10, 43, 111
12, 34620, Note_on_c, 10, 48, 103
12, 34627, Note_on_c, 10, 43, 0
12, 34731, Note_on_c, 10, 48, 0
12, 34740, Note_on_c, 10, 48, 105
12, 34785, Note_on_c, 10, 48, 0
12, 34800, Note_on_c, 10, 48, 105
12, 34850, Note_on_c, 10, 48, 0
12, 34860, Note_on_c, 10, 43, 108
12, 34909, Note_on_c, 10, 43, 0
12, 34920, Note_on_c, 10, 36, 103
12, 34969, Note_on_c, 10, 36, 0
12, 34980, Note_on_c, 10, 36, 101
12, 35026, Note_on_c, 10, 36, 0
12, 35040, Note_on_c, 10, 37, 127
12, 35214, Note_on_c, 10, 37, 0
12, 35220, Note_on_c, 10, 44, 127
12, 35419, Note_on_c, 10, 44, 0
12, 35460, Note_on_c, 10, 37, 127
12, 35692, Note_on_c, 10, 37, 0
12, 35700, Note_on_c, 10, 44, 122
12, 35820, Note_on_c, 10, 37, 118
12, 35822, Note_on_c, 10, 44, 0
12, 35878, Note_on_c, 10, 37, 0
12, 35880, Note_on_c, 10, 44, 127
12, 35921, Note_on_c, 10, 44, 0
12, 35940, Note_on_c, 10, 37, 127
12, 35999, Note_on_c, 10, 37, 0
12, 36000, Note_on_c, 10, 39, 127
12, 36164, Note_on_c, 10, 39, 0
12, 36180, Note_on_c, 10, 39, 118
12, 36420, Note_on_c, 10, 34, 118
12, 36426, Note_on_c, 10, 39, 0
12, 36473, Note_on_c, 10, 34, 0
12, 36480, Note_on_c, 10, 39, 127
12, 36642, Note_on_c, 10, 39, 0
12, 36660, Note_on_c, 10, 39, 127
12, 36772, Note_on_c, 10, 39, 0
12, 36780, Note_on_c, 10, 34, 110
12, 36840, Note_on_c, 10, 39, 127
12, 36846, Note_on_c, 10, 34, 0
12, 36900, Note_on_c, 10, 34, 106
12, 36903, Note_on_c, 10, 39, 0
12, 36960, Note_on_c, 10, 45, 122
12, 36963, Note_on_c, 10, 34, 0
12, 37118, Note_on_c, 10, 45, 0
12, 37140, Note_on_c, 10, 45, 113
12, 37200, Note_on_c, 10, 45, 0
12, 37200, Note_on_c, 10, 43, 122
12, 37310, Note_on_c, 10, 43, 0
12, 37320, Note_on_c, 10, 41, 127
12, 37436, Note_on_c, 10, 41, 0
12, 37440, Note_on_c, 10, 36, 122
12, 37498, Note_on_c, 10, 36, 0
12, 37500, Note_on_c, 10, 31, 100
12, 37606, Note_on_c, 10, 31, 0
12, 37620, Note_on_c, 10, 31, 84
12, 37740, Note_on_c, 10, 36, 100
12, 37751, Note_on_c, 10, 31, 0
12, 37800, Note_on_c, 10, 31, 85
12, 37807, Note_on_c, 10, 36, 0
12, 37860, Note_on_c, 10, 36, 103
12, 37866, Note_on_c, 10, 31, 0
12, 37920, Note_on_c, 10, 45, 100
12, 37925, Note_on_c, 10, 36, 0
12, 38083, Note_on_c, 10, 45, 0
12, 38100, Note_on_c, 10, 45, 84
12, 38153, Note_on_c, 10, 45, 0
12, 38160, Note_on_c, 10, 43, 103
12, 38276, Note_on_c, 10, 43, 0
12, 38280, Note_on_c, 10, 41, 103
12, 38400, Note_on_c, 10, 36, 106
12, 38404, Note_on_c, 10, 41, 0
12, 38578, Note_on_c, 10, 36, 0
12, 38580, Note_on_c, 10, 43, 97
12, 38683, Note_on_c, 10, 43, 0
12, 38700, Note_on_c, 10, 43, 87
12, 38759, Note_on_c, 10, 43, 0
12, 38760, Note_on_c, 10, 36, 77
12, 38820, Note_on_c, 10, 43, 97
12, 38821, Note_on_c, 10, 36, 0
12, 38880, Note_on_c, 10, 43, 0
12, 38880, Note_on_c, 10, 33, 127
12, 39000, Note_on_c, 10, 45, 118
12, 39005, Note_on_c, 10, 33, 0
12, 39108, Note_on_c, 10, 45, 0
12, 39120, Note_on_c, 10, 44, 127
12, 39359, Note_on_c, 10, 44, 0
12, 39360, Note_on_c, 10, 31, 110
12, 39480, Note_on_c, 10, 36, 106
12, 39483, Note_on_c, 10, 31, 0
12, 39535, Note_on_c, 10, 36, 0
12, 39540, Note_on_c, 10, 43, 92
12, 39600, Note_on_c, 10, 43, 0
12, 39600, Note_on_c, 10, 37, 127
12, 39780, Note_on_c, 10, 37, 0
12, 39840, Note_on_c, 10, 34, 127
12, 40013, Note_on_c, 10, 34, 0
12, 40020, Note_on_c, 10, 43, 113
12, 40070, Note_on_c, 10, 43, 0
12, 40080, Note_on_c, 10, 41, 127
12, 40319, Note_on_c, 10, 41, 0
12, 40320, Note_on_c, 10, 37, 127
12, 40407, Note_on_c, 10, 37, 0
12, 40440, Note_on_c, 10, 37, 127
12, 40788, Note_on_c, 10, 37, 0
12, 40800, Note_on_c, 10, 38, 97
12, 40980, Note_on_c, 10, 50, 100
12, 40989, Note_on_c, 10, 38, 0
12, 41006, Note_on_c, 10, 50, 0
12, 41040, Note_on_c, 10, 50, 92
12, 41100, Note_on_c, 10, 48, 110
12, 41106, Note_on_c, 10, 50, 0
12, 41160, Note_on_c, 10, 45, 90
12, 41166, Note_on_c, 10, 48, 0
12, 41220, Note_on_c, 10, 41, 100
12, 41221, Note_on_c, 10, 45, 0
12, 41450, Note_on_c, 10, 41, 0
12, 41460, Note_on_c, 10, 36, 103
12, 41516, Note_on_c, 10, 36, 0
12, 41520, Note_on_c, 10, 29, 113
12, 41637, Note_on_c, 10, 29, 0
12, 41640, Note_on_c, 10, 29, 106
12, 41753, Note_on_c, 10, 29, 0
12, 41760, Note_on_c, 10, 38, 106
12, 41922, Note_on_c, 10, 38, 0
12, 41940, Note_on_c, 10, 45, 76
12, 41990, Note_on_c, 10, 45, 0
12, 42000, Note_on_c, 10, 50, 80
12, 42060, Note_on_c, 10, 48, 82
12, 42080, Note_on_c, 10, 50, 0
12, 42120, Note_on_c, 10, 45, 85
12, 42123, Note_on_c, 10, 48, 0
12, 42175, Note_on_c, 10, 45, 0
12, 42180, Note_on_c, 10, 41, 103
12, 42417, Note_on_c, 10, 41, 0
12, 42420, Note_on_c, 10, 36, 94
12, 42480, Note_on_c, 10, 36, 0
12, 42480, Note_on_c, 10, 29, 110
12, 42643, Note_on_c, 10, 29, 0
12, 42660, Note_on_c, 10, 29, 77
12, 42720, Note_on_c, 10, 38, 106
12, 42723, Note_on_c, 10, 29, 0
12, 42890, Note_on_c, 10, 38, 0
12, 42900, Note_on_c, 10, 38, 97
12, 42958, Note_on_c, 10, 38, 0
12, 42960, Note_on_c, 10, 50, 82
12, 43020, Note_on_c, 10, 48, 113
12, 43028, Note_on_c, 10, 50, 0
12, 43076, Note_on_c, 10, 48, 0
12, 43080, Note_on_c, 10, 38, 94
12, 43125, Note_on_c, 10, 38, 0
12, 43140, Note_on_c, 10, 37, 113
12, 43185, Note_on_c, 10, 37, 0
12, 43200, Note_on_c, 10, 37, 110
12, 43357, Note_on_c, 10, 37, 0
12, 43380, Note_on_c, 10, 37, 92
12, 43500, Note_on_c, 10, 44, 127
12, 43501, Note_on_c, 10, 37, 0
12, 43558, Note_on_c, 10, 44, 0
12, 43560, Note_on_c, 10, 37, 110
12, 43614, Note_on_c, 10, 37, 0
12, 43620, Note_on_c, 10, 37, 74
12, 43672, Note_on_c, 10, 37, 0
12, 43680, Note_on_c, 10, 38, 122
12, 43856, Note_on_c, 10, 38, 0
12, 43860, Note_on_c, 10, 50, 122
12, 43904, Note_on_c, 10, 50, 0
12, 43920, Note_on_c, 10, 50, 90
12, 43976, Note_on_c, 10, 50, 0
12, 43980, Note_on_c, 10, 48, 103
12, 44036, Note_on_c, 10, 48, 0
12, 44040, Note_on_c, 10, 45, 97
12, 44078, Note_on_c, 10, 45, 0
12, 44100, Note_on_c, 10, 41, 127
12, 44211, Note_on_c, 10, 41, 0
12, 44220, Note_on_c, 10, 36, 127
12, 44257, Note_on_c, 10, 36, 0
12, 44280, Note_on_c, 10, 29, 113
12, 44460, Note_on_c, 10, 36, 106
12, 44465, Note_on_c, 10, 29, 0
12, 44520, Note_on_c, 10, 41, 127
12, 44523, Note_on_c, 10, 36, 0
12, 44570, Note_on_c, 10, 41, 0
12, 44580, Note_on_c, 10, 36, 97
12, 44621, Note_on_c, 10, 36, 0
12, 44640, Note_on_c, 10, 36, 106
12, 44816, Note_on_c, 10, 36, 0
12, 44820, Note_on_c, 10, 36, 100
12, 44940, Note_on_c, 10, 43, 87
12, 44944, Note_on_c, 10, 36, 0
12, 44982, Note_on_c, 10, 43, 0
12, 45000, Note_on_c, 10, 43, 97
12, 45057, Note_on_c, 10, 43, 0
12, 45060, Note_on_c, 10, 36, 92
12, 45116, Note_on_c, 10, 36, 0
12, 45120, Note_on_c, 10, 34, 127
12, 45401, Note_on_c, 10, 34, 0
12, 45420, Note_on_c, 10, 29, 118
12, 45465, Note_on_c, 10, 29, 0
12, 45480, Note_on_c, 10, 29, 118
12, 45540, Note_on_c, 10, 34, 111
12, 45545, Note_on_c, 10, 29, 0
12, 45591, Note_on_c, 10, 34, 0
12, 45600, Note_on_c, 10, 36, 120
12, 45770, Note_on_c, 10, 36, 0
12, 45780, Note_on_c, 10, 43, 100
12, 45890, Note_on_c, 10, 43, 0
12, 45900, Note_on_c, 10, 43, 91
12, 45956, Note_on_c, 10, 43, 0
12, 45960, Note_on_c, 10, 36, 101
12, 46019, Note_on_c, 10, 36, 0
12, 46020, Note_on_c, 10, 43, 100
12, 46065, Note_on_c, 10, 43, 0
12, 46080, Note_on_c, 10, 34, 110
12, 46238, Note_on_c, 10, 34, 0
12, 46260, Note_on_c, 10, 34, 110
12, 46292, Note_on_c, 10, 34, 0
12, 46320, Note_on_c, 10, 34, 103
12, 46363, Note_on_c, 10, 34, 0
12, 46380, Note_on_c, 10, 29, 96
12, 46424, Note_on_c, 10, 29, 0
12, 46440, Note_on_c, 10, 29, 103
12, 46496, Note_on_c, 10, 29, 0
12, 46500, Note_on_c, 10, 34, 106
12, 46559, Note_on_c, 10, 34, 0
12, 46560, Note_on_c, 10, 40, 110
12, 46719, Note_on_c, 10, 40, 0
12, 46740, Note_on_c, 10, 40, 97
12, 46920, Note_on_c, 10, 40, 0
12, 46920, Note_on_c, 10, 47, 94
12, 46978, Note_on_c, 10, 47, 0
12, 46980, Note_on_c, 10, 40, 100
12, 47036, Note_on_c, 10, 40, 0
12, 47040, Note_on_c, 10, 45, 110
12, 47218, Note_on_c, 10, 45, 0
12, 47220, Note_on_c, 10, 33, 122
12, 47332, Note_on_c, 10, 33, 0
12, 47340, Note_on_c, 10, 33, 90
12, 47400, Note_on_c, 10, 45, 97
12, 47403, Note_on_c, 10, 33, 0
12, 47460, Note_on_c, 10, 33, 100
12, 47512, Note_on_c, 10, 33, 0
12, 47518, Note_on_c, 10, 45, 0
12, 47520, Note_on_c, 10, 30, 101
12, 47786, Note_on_c, 10, 30, 0
12, 47812, Note_on_c, 10, 30, 101
12, 48019, Note_on_c, 10, 25, 101
12, 48027, Note_on_c, 10, 30, 0
12, 48098, Note_on_c, 10, 30, 101
12, 48108, Note_on_c, 10, 25, 0
12, 48381, Note_on_c, 10, 30, 0
12, 48397, Note_on_c, 10, 30, 101
12, 48632, Note_on_c, 10, 25, 101
12, 48642, Note_on_c, 10, 30, 0
12, 48726, Note_on_c, 10, 25, 0
12, 48759, Note_on_c, 10, 30, 84
12, 49727, Note_on_c, 10, 30, 0
12, 49727, End_track
13, 0, Start_track
13, 0, Title_t, "flute"
13, 0, MIDI_port, 0
13, 53, Program_c, 11, 75
13, 54, Control_c, 11, 7, 127
13, 55, Control_c, 11, 10, 10
13, 56, Control_c, 11, 91, 10
13, 36960, Note_on_c, 11, 81, 107
13, 37067, Note_on_c, 11, 81, 0
13, 37080, Note_on_c, 11, 81, 107
13, 37116, Note_on_c, 11, 81, 0
13, 37140, Note_on_c, 11, 83, 107
13, 37196, Note_on_c, 11, 83, 0
13, 37200, Note_on_c, 11, 79, 107
13, 37257, Note_on_c, 11, 79, 0
13, 37260, Note_on_c, 11, 81, 107
13, 37304, Note_on_c, 11, 81, 0
13, 37320, Note_on_c, 11, 77, 107
13, 37377, Note_on_c, 11, 77, 0
13, 37380, Note_on_c, 11, 79, 107
13, 37437, Note_on_c, 11, 79, 0
13, 37440, Note_on_c, 11, 76, 107
13, 37859, Note_on_c, 11, 76, 0
13, 37860, Note_on_c, 11, 76, 107
13, 37920, Note_on_c, 11, 81, 107
13, 37942, Note_on_c, 11, 76, 0
13, 38039, Note_on_c, 11, 81, 0
13, 38040, Note_on_c, 11, 81, 107
13, 38081, Note_on_c, 11, 81, 0
13, 38100, Note_on_c, 11, 83, 107
13, 38147, Note_on_c, 11, 83, 0
13, 38160, Note_on_c, 11, 79, 107
13, 38212, Note_on_c, 11, 79, 0
13, 38220, Note_on_c, 11, 81, 107
13, 38280, Note_on_c, 11, 77, 98
13, 38299, Note_on_c, 11, 81, 0
13, 38332, Note_on_c, 11, 77, 0
13, 38340, Note_on_c, 11, 79, 107
13, 38400, Note_on_c, 11, 76, 107
13, 38403, Note_on_c, 11, 79, 0
13, 38847, Note_on_c, 11, 76, 0
13, 38880, Note_on_c, 11, 81, 107
13, 38940, Note_on_c, 11, 80, 107
13, 38953, Note_on_c, 11, 81, 0
13, 39000, Note_on_c, 11, 81, 74
13, 39004, Note_on_c, 11, 80, 0
13, 39030, Note_on_c, 11, 82, 102
13, 39048, Note_on_c, 11, 81, 0
13, 39060, Note_on_c, 11, 82, 0
13, 39060, Note_on_c, 11, 83, 60
13, 39090, Note_on_c, 11, 84, 52
13, 39100, Note_on_c, 11, 83, 0
13, 39120, Note_on_c, 11, 86, 93
13, 39124, Note_on_c, 11, 84, 0
13, 39180, Note_on_c, 11, 84, 62
13, 39193, Note_on_c, 11, 86, 0
13, 39240, Note_on_c, 11, 83, 80
13, 39259, Note_on_c, 11, 84, 0
13, 39300, Note_on_c, 11, 81, 107
13, 39319, Note_on_c, 11, 83, 0
13, 39360, Note_on_c, 11, 79, 67
13, 39370, Note_on_c, 11, 81, 0
13, 39420, Note_on_c, 11, 77, 77
13, 39431, Note_on_c, 11, 79, 0
13, 39480, Note_on_c, 11, 79, 74
13, 39492, Note_on_c, 11, 77, 0
13, 39540, Note_on_c, 11, 82, 67
13, 39546, Note_on_c, 11, 79, 0
13, 39600, Note_on_c, 11, 81, 102
13, 39617, Note_on_c, 11, 82, 0
13, 39778, Note_on_c, 11, 81, 0
13, 39840, Note_on_c, 11, 77, 107
13, 39944, Note_on_c, 11, 77, 0
13, 39960, Note_on_c, 11, 77, 90
13, 39995, Note_on_c, 11, 77, 0
13, 40020, Note_on_c, 11, 77, 80
13, 40061, Note_on_c, 11, 77, 0
13, 40080, Note_on_c, 11, 79, 107
13, 40140, Note_on_c, 11, 77, 98
13, 40163, Note_on_c, 11, 79, 0
13, 40200, Note_on_c, 11, 74, 90
13, 40206, Note_on_c, 11, 77, 0
13, 40260, Note_on_c, 11, 77, 98
13, 40270, Note_on_c, 11, 74, 0
13, 40320, Note_on_c, 11, 80, 107
13, 40330, Note_on_c, 11, 77, 0
13, 40738, Note_on_c, 11, 80, 0
13, 40738, End_track
14, 0, Start_track
14, 0, Title_t, "piano II"
14, 0, MIDI_port, 0
14, 57, Program_c, 12, 0
14, 58, Control_c, 12, 7, 127
14, 59, Control_c, 12, 10, 59
14, 60, Control_c, 12, 91, 39
14, 19666, Note_on_c, 12, 71, 127
14, 19678, Note_on_c, 12, 71, 0
14, 19680, Note_on_c, 12, 69, 127
14, 19740, Note_on_c, 12, 68, 66
14, 19747, Note_on_c, 12, 69, 0
14, 19800, Note_on_c, 12, 69, 127
14, 19805, Note_on_c, 12, 68, 0
14, 19827, Note_on_c, 12, 69, 0
14, 19830, Note_on_c, 12, 70, 127
14, 19860, Note_on_c, 12, 71, 106
14, 19861, Note_on_c, 12, 70, 0
14, 19890, Note_on_c, 12, 72, 127
14, 19894, Note_on_c, 12, 71, 0
14, 19920, Note_on_c, 12, 74, 127
14, 19921, Note_on_c, 12, 72, 0
14, 19980, Note_on_c, 12, 72, 112
14, 19988, Note_on_c, 12, 74, 0
14, 20040, Note_on_c, 12, 71, 124
14, 20048, Note_on_c, 12, 72, 0
14, 20100, Note_on_c, 12, 69, 104
14, 20113, Note_on_c, 12, 71, 0
14, 20160, Note_on_c, 12, 67, 127
14, 20172, Note_on_c, 12, 69, 0
14, 20220, Note_on_c, 12, 65, 124
14, 20230, Note_on_c, 12, 67, 0
14, 20280, Note_on_c, 12, 67, 126
14, 20285, Note_on_c, 12, 65, 0
14, 20339, Note_on_c, 12, 67, 0
14, 20340, Note_on_c, 12, 70, 127
14, 20400, Note_on_c, 12, 69, 127
14, 20414, Note_on_c, 12, 70, 0
14, 20579, Note_on_c, 12, 74, 127
14, 20589, Note_on_c, 12, 75, 127
14, 20605, Note_on_c, 12, 74, 0
14, 20615, Note_on_c, 12, 76, 118
14, 20628, Note_on_c, 12, 75, 0
14, 20630, Note_on_c, 12, 69, 0
14, 20640, Note_on_c, 12, 77, 102
14, 20653, Note_on_c, 12, 76, 0
14, 20744, Note_on_c, 12, 77, 0
14, 20760, Note_on_c, 12, 77, 127
14, 20800, Note_on_c, 12, 77, 0
14, 20820, Note_on_c, 12, 77, 127
14, 20878, Note_on_c, 12, 77, 0
14, 20880, Note_on_c, 12, 79, 122
14, 20940, Note_on_c, 12, 77, 127
14, 20952, Note_on_c, 12, 79, 0
14, 21000, Note_on_c, 12, 74, 127
14, 21001, Note_on_c, 12, 77, 0
14, 21060, Note_on_c, 12, 77, 127
14, 21066, Note_on_c, 12, 74, 0
14, 21120, Note_on_c, 12, 80, 127
14, 21127, Note_on_c, 12, 77, 0
14, 21609, Note_on_c, 12, 80, 0
14, 22680, Note_on_c, 12, 42, 127
14, 22680, Note_on_c, 12, 54, 127
14, 22733, Note_on_c, 12, 42, 0
14, 22733, Note_on_c, 12, 54, 0
14, 22740, Note_on_c, 12, 46, 127
14, 22740, Note_on_c, 12, 58, 127
14, 22793, Note_on_c, 12, 46, 0
14, 22793, Note_on_c, 12, 58, 0
14, 22800, Note_on_c, 12, 59, 90
14, 22800, Note_on_c, 12, 47, 90
14, 22860, Note_on_c, 12, 58, 127
14, 22860, Note_on_c, 12, 46, 127
14, 22867, Note_on_c, 12, 59, 0
14, 22867, Note_on_c, 12, 47, 0
14, 22913, Note_on_c, 12, 58, 0
14, 22913, Note_on_c, 12, 46, 0
14, 22920, Note_on_c, 12, 59, 94
14, 22920, Note_on_c, 12, 47, 94
14, 22973, Note_on_c, 12, 59, 0
14, 22973, Note_on_c, 12, 47, 0
14, 22980, Note_on_c, 12, 52, 92
14, 22980, Note_on_c, 12, 64, 92
14, 23036, Note_on_c, 12, 52, 0
14, 23036, Note_on_c, 12, 64, 0
14, 23040, Note_on_c, 12, 54, 90
14, 23040, Note_on_c, 12, 66, 90
14, 23100, Note_on_c, 12, 70, 127
14, 23100, Note_on_c, 12, 58, 127
14, 23102, Note_on_c, 12, 54, 0
14, 23102, Note_on_c, 12, 66, 0
14, 23160, Note_on_c, 12, 68, 106
14, 23160, Note_on_c, 12, 56, 106
14, 23162, Note_on_c, 12, 70, 0
14, 23162, Note_on_c, 12, 58, 0
14, 23220, Note_on_c, 12, 61, 97
14, 23220, Note_on_c, 12, 49, 97
14, 23229, Note_on_c, 12, 68, 0
14, 23229, Note_on_c, 12, 56, 0
14, 23280, Note_on_c, 12, 60, 122
14, 23280, Note_on_c, 12, 48, 122
14, 23284, Note_on_c, 12, 61, 0
14, 23284, Note_on_c, 12, 49, 0
14, 23340, Note_on_c, 12, 64, 106
14, 23340, Note_on_c, 12, 52, 106
14, 23345, Note_on_c, 12, 60, 0
14, 23345, Note_on_c, 12, 48, 0
14, 23399, Note_on_c, 12, 64, 0
14, 23399, Note_on_c, 12, 52, 0
14, 23400, Note_on_c, 12, 47, 72
14, 23400, Note_on_c, 12, 59, 72
14, 23460, Note_on_c, 12, 46, 127
14, 23460, Note_on_c, 12, 58, 127
14, 23465, Note_on_c, 12, 47, 0
14, 23465, Note_on_c, 12, 59, 0
14, 23520, Note_on_c, 12, 47, 92
14, 23520, Note_on_c, 12, 59, 92
14, 23521, Note_on_c, 12, 46, 0
14, 23521, Note_on_c, 12, 58, 0
14, 23580, Note_on_c, 12, 50, 80
14, 23580, Note_on_c, 12, 62, 80
14, 23584, Note_on_c, 12, 47, 0
14, 23584, Note_on_c, 12, 59, 0
14, 23640, Note_on_c, 12, 50, 0
14, 23640, Note_on_c, 12, 62, 0
14, 23640, Note_on_c, 12, 45, 77
14, 23640, Note_on_c, 12, 57, 77
14, 23700, Note_on_c, 12, 45, 0
14, 23700, Note_on_c, 12, 57, 0
14, 23700, Note_on_c, 12, 55, 65
14, 23700, Note_on_c, 12, 43, 65
14, 23758, Note_on_c, 12, 55, 0
14, 23758, Note_on_c, 12, 43, 0
14, 23760, Note_on_c, 12, 53, 82
14, 23760, Note_on_c, 12, 41, 82
14, 23820, Note_on_c, 12, 53, 0
14, 23820, Note_on_c, 12, 41, 0
14, 23820, Note_on_c, 12, 45, 80
14, 23820, Note_on_c, 12, 57, 80
14, 23880, Note_on_c, 12, 45, 0
14, 23880, Note_on_c, 12, 57, 0
14, 23880, Note_on_c, 12, 52, 80
14, 23880, Note_on_c, 12, 40, 80
14, 23940, Note_on_c, 12, 52, 0
14, 23940, Note_on_c, 12, 40, 0
14, 23940, Note_on_c, 12, 71, 94
14, 23940, Note_on_c, 12, 76, 127
14, 23941, Note_on_c, 12, 65, 127
14, 24300, Note_on_c, 12, 47, 127
14, 24360, Note_on_c, 12, 50, 106
14, 24364, Note_on_c, 12, 47, 0
14, 24380, Note_on_c, 12, 76, 0
14, 24381, Note_on_c, 12, 65, 0
14, 24382, Note_on_c, 12, 71, 0
14, 24408, Note_on_c, 12, 50, 0
14, 24420, Note_on_c, 12, 48, 106
14, 24479, Note_on_c, 12, 48, 0
14, 24480, Note_on_c, 12, 69, 113
14, 24540, Note_on_c, 12, 69, 0
14, 24540, Note_on_c, 12, 71, 127
14, 24600, Note_on_c, 12, 71, 0
14, 24600, Note_on_c, 12, 67, 127
14, 24660, Note_on_c, 12, 67, 0
14, 24660, Note_on_c, 12, 62, 127
14, 24780, Note_on_c, 12, 62, 0
14, 24780, Note_on_c, 12, 57, 110
14, 24840, Note_on_c, 12, 57, 0
14, 24840, Note_on_c, 12, 59, 92
14, 24900, Note_on_c, 12, 59, 0
14, 24900, Note_on_c, 12, 55, 106
14, 25020, Note_on_c, 12, 55, 0
14, 25320, Note_on_c, 12, 47, 100
14, 25379, Note_on_c, 12, 47, 0
14, 25380, Note_on_c, 12, 48, 90
14, 25439, Note_on_c, 12, 48, 0
14, 25440, Note_on_c, 12, 62, 94
14, 25440, Note_on_c, 12, 50, 94
14, 25500, Note_on_c, 12, 52, 97
14, 25500, Note_on_c, 12, 64, 97
14, 25507, Note_on_c, 12, 62, 0
14, 25507, Note_on_c, 12, 50, 0
14, 25550, Note_on_c, 12, 52, 0
14, 25550, Note_on_c, 12, 64, 0
14, 25560, Note_on_c, 12, 53, 113
14, 25560, Note_on_c, 12, 65, 113
14, 25620, Note_on_c, 12, 67, 103
14, 25620, Note_on_c, 12, 55, 103
14, 25640, Note_on_c, 12, 53, 0
14, 25640, Note_on_c, 12, 65, 0
14, 25680, Note_on_c, 12, 57, 127
14, 25680, Note_on_c, 12, 69, 127
14, 25689, Note_on_c, 12, 67, 0
14, 25689, Note_on_c, 12, 55, 0
14, 25740, Note_on_c, 12, 67, 97
14, 25740, Note_on_c, 12, 55, 97
14, 25754, Note_on_c, 12, 57, 0
14, 25754, Note_on_c, 12, 69, 0
14, 25800, Note_on_c, 12, 65, 94
14, 25800, Note_on_c, 12, 53, 94
14, 25818, Note_on_c, 12, 67, 0
14, 25818, Note_on_c, 12, 55, 0
14, 25860, Note_on_c, 12, 52, 127
14, 25860, Note_on_c, 12, 64, 127
14, 25879, Note_on_c, 12, 65, 0
14, 25879, Note_on_c, 12, 53, 0
14, 25920, Note_on_c, 12, 62, 94
14, 25920, Note_on_c, 12, 50, 94
14, 25923, Note_on_c, 12, 52, 0
14, 25923, Note_on_c, 12, 64, 0
14, 25980, Note_on_c, 12, 48, 106
14, 25980, Note_on_c, 12, 60, 106
14, 25987, Note_on_c, 12, 62, 0
14, 25987, Note_on_c, 12, 50, 0
14, 26040, Note_on_c, 12, 46, 100
14, 26040, Note_on_c, 12, 58, 100
14, 26056, Note_on_c, 12, 48, 0
14, 26056, Note_on_c, 12, 60, 0
14, 26159, Note_on_c, 12, 46, 0
14, 26174, Note_on_c, 12, 58, 0
14, 26400, Note_on_c, 12, 42, 127
14, 26560, Note_on_c, 12, 40, 106
14, 26561, Note_on_c, 12, 42, 0
14, 26600, Note_on_c, 12, 42, 122
14, 26604, Note_on_c, 12, 40, 0
14, 26640, Note_on_c, 12, 40, 103
14, 26641, Note_on_c, 12, 42, 0
14, 26679, Note_on_c, 12, 40, 0
14, 26680, Note_on_c, 12, 42, 122
14, 26717, Note_on_c, 12, 42, 0
14, 26720, Note_on_c, 12, 40, 92
14, 26760, Note_on_c, 12, 42, 127
14, 26762, Note_on_c, 12, 40, 0
14, 26790, Note_on_c, 12, 42, 0
14, 26790, Note_on_c, 12, 43, 77
14, 26820, Note_on_c, 12, 42, 92
14, 26830, Note_on_c, 12, 43, 0
14, 26849, Note_on_c, 12, 42, 0
14, 26850, Note_on_c, 12, 40, 84
14, 26880, Note_on_c, 12, 42, 118
14, 26887, Note_on_c, 12, 40, 0
14, 26910, Note_on_c, 12, 40, 97
14, 26922, Note_on_c, 12, 42, 0
14, 26936, Note_on_c, 12, 40, 0
14, 26940, Note_on_c, 12, 38, 69
14, 26970, Note_on_c, 12, 40, 62
14, 26976, Note_on_c, 12, 38, 0
14, 27000, Note_on_c, 12, 42, 122
14, 27004, Note_on_c, 12, 40, 0
14, 27265, Note_on_c, 12, 42, 0
14, 27365, Note_on_c, 12, 44, 113
14, 27482, Note_on_c, 12, 69, 122
14, 27541, Note_on_c, 12, 68, 85
14, 27542, Note_on_c, 12, 69, 0
14, 27601, Note_on_c, 12, 69, 113
14, 27606, Note_on_c, 12, 68, 0
14, 27658, Note_on_c, 12, 69, 0
14, 27659, Note_on_c, 12, 68, 76
14, 27720, Note_on_c, 12, 68, 0
14, 27720, Note_on_c, 12, 65, 110
14, 27721, Note_on_c, 12, 69, 122
14, 27725, Note_on_c, 12, 44, 0
14, 27780, Note_on_c, 12, 69, 0
14, 27781, Note_on_c, 12, 70, 80
14, 27841, Note_on_c, 12, 69, 118
14, 27850, Note_on_c, 12, 70, 0
14, 27899, Note_on_c, 12, 70, 94
14, 27904, Note_on_c, 12, 69, 0
14, 27961, Note_on_c, 12, 72, 106
14, 27972, Note_on_c, 12, 70, 0
14, 28020, Note_on_c, 12, 72, 0
14, 28021, Note_on_c, 12, 67, 97
14, 28022, Note_on_c, 12, 65, 0
14, 28022, Note_on_c, 12, 70, 77
14, 28077, Note_on_c, 12, 70, 0
14, 28080, Note_on_c, 12, 72, 97
14, 28137, Note_on_c, 12, 72, 0
14, 28138, Note_on_c, 12, 70, 85
14, 28201, Note_on_c, 12, 72, 113
14, 28204, Note_on_c, 12, 70, 0
14, 28261, Note_on_c, 12, 75, 94
14, 28264, Note_on_c, 12, 72, 0
14, 28281, Note_on_c, 12, 67, 0
14, 28327, Note_on_c, 12, 75, 0
14, 28623, Note_on_c, 12, 70, 60
14, 28623, Note_on_c, 12, 63, 56
14, 28660, Note_on_c, 12, 63, 0
14, 28661, Note_on_c, 12, 70, 0
14, 28684, Note_on_c, 12, 63, 62
14, 28684, Note_on_c, 12, 70, 68
14, 28724, Note_on_c, 12, 70, 0
14, 28726, Note_on_c, 12, 63, 0
14, 28747, Note_on_c, 12, 70, 118
14, 28747, Note_on_c, 12, 63, 82
14, 28944, Note_on_c, 12, 70, 0
14, 28944, Note_on_c, 12, 63, 0
14, 28966, Note_on_c, 12, 70, 69
14, 28968, Note_on_c, 12, 63, 65
14, 29024, Note_on_c, 12, 70, 0
14, 29025, Note_on_c, 12, 63, 0
14, 29039, Note_on_c, 12, 70, 100
14, 29039, Note_on_c, 12, 63, 80
14, 29079, Note_on_c, 12, 70, 0
14, 29081, Note_on_c, 12, 63, 0
14, 29098, Note_on_c, 12, 70, 127
14, 29098, Note_on_c, 12, 63, 113
14, 29259, Note_on_c, 12, 63, 0
14, 29262, Note_on_c, 12, 70, 0
14, 29640, Note_on_c, 12, 71, 90
14, 29640, Note_on_c, 12, 76, 84
14, 29688, Note_on_c, 12, 71, 0
14, 29700, Note_on_c, 12, 68, 101
14, 29743, Note_on_c, 12, 68, 0
14, 29760, Note_on_c, 12, 69, 77
14, 29820, Note_on_c, 12, 68, 82
14, 29827, Note_on_c, 12, 69, 0
14, 29871, Note_on_c, 12, 68, 0
14, 29879, Note_on_c, 12, 76, 0
14, 29880, Note_on_c, 12, 76, 101
14, 29880, Note_on_c, 12, 69, 101
14, 29940, Note_on_c, 12, 68, 75
14, 29955, Note_on_c, 12, 76, 0
14, 29956, Note_on_c, 12, 69, 0
14, 30000, Note_on_c, 12, 69, 94
14, 30000, Note_on_c, 12, 76, 94
14, 30010, Note_on_c, 12, 68, 0
14, 30061, Note_on_c, 12, 69, 0
14, 30159, Note_on_c, 12, 76, 0
14, 33178, Note_on_c, 12, 62, 103
14, 33180, Note_on_c, 12, 74, 103
14, 33238, Note_on_c, 12, 62, 0
14, 33238, Note_on_c, 12, 60, 113
14, 33240, Note_on_c, 12, 74, 0
14, 33240, Note_on_c, 12, 72, 113
14, 33297, Note_on_c, 12, 60, 0
14, 33297, Note_on_c, 12, 58, 103
14, 33299, Note_on_c, 12, 72, 0
14, 33299, Note_on_c, 12, 70, 103
14, 33358, Note_on_c, 12, 58, 0
14, 33358, Note_on_c, 12, 57, 110
14, 33360, Note_on_c, 12, 70, 0
14, 33360, Note_on_c, 12, 69, 110
14, 33419, Note_on_c, 12, 57, 0
14, 33419, Note_on_c, 12, 58, 85
14, 33421, Note_on_c, 12, 69, 0
14, 33421, Note_on_c, 12, 70, 85
14, 33478, Note_on_c, 12, 58, 0
14, 33478, Note_on_c, 12, 55, 106
14, 33480, Note_on_c, 12, 70, 0
14, 33480, Note_on_c, 12, 67, 106
14, 33538, Note_on_c, 12, 55, 0
14, 33538, Note_on_c, 12, 57, 87
14, 33540, Note_on_c, 12, 67, 0
14, 33540, Note_on_c, 12, 69, 87
14, 33598, Note_on_c, 12, 57, 0
14, 33598, Note_on_c, 12, 53, 78
14, 33600, Note_on_c, 12, 69, 0
14, 33600, Note_on_c, 12, 65, 78
14, 33657, Note_on_c, 12, 53, 0
14, 33658, Note_on_c, 12, 55, 77
14, 33659, Note_on_c, 12, 65, 0
14, 33660, Note_on_c, 12, 67, 77
14, 33718, Note_on_c, 12, 55, 0
14, 33718, Note_on_c, 12, 52, 110
14, 33720, Note_on_c, 12, 67, 0
14, 33720, Note_on_c, 12, 64, 110
14, 34018, Note_on_c, 12, 52, 0
14, 34020, Note_on_c, 12, 64, 0
14, 34020, Note_on_c, 12, 53, 100
14, 34020, Note_on_c, 12, 65, 100
14, 34049, Note_on_c, 12, 53, 0
14, 34049, Note_on_c, 12, 65, 0
14, 34050, Note_on_c, 12, 52, 100
14, 34050, Note_on_c, 12, 64, 100
14, 34075, Note_on_c, 12, 67, 84
14, 34079, Note_on_c, 12, 52, 0
14, 34079, Note_on_c, 12, 64, 0
14, 34105, Note_on_c, 12, 67, 0
14, 34106, Note_on_c, 12, 64, 69
14, 34135, Note_on_c, 12, 64, 0
14, 34135, Note_on_c, 12, 67, 87
14, 34165, Note_on_c, 12, 67, 0
14, 34165, Note_on_c, 12, 71, 90
14, 34195, Note_on_c, 12, 71, 0
14, 34195, Note_on_c, 12, 74, 103
14, 34225, Note_on_c, 12, 74, 0
14, 34225, Note_on_c, 12, 78, 103
14, 34255, Note_on_c, 12, 78, 0
14, 34256, Note_on_c, 12, 74, 94
14, 34285, Note_on_c, 12, 74, 0
14, 34286, Note_on_c, 12, 71, 82
14, 34315, Note_on_c, 12, 71, 0
14, 34315, Note_on_c, 12, 74, 92
14, 34345, Note_on_c, 12, 74, 0
14, 34345, Note_on_c, 12, 71, 78
14, 34375, Note_on_c, 12, 71, 0
14, 34375, Note_on_c, 12, 67, 77
14, 34525, Note_on_c, 12, 67, 0
14, 35040, Note_on_c, 12, 49, 127
14, 35041, Note_on_c, 12, 61, 127
14, 35068, Note_on_c, 12, 70, 94
14, 35069, Note_on_c, 12, 58, 94
14, 35077, Note_on_c, 12, 61, 0
14, 35079, Note_on_c, 12, 49, 0
14, 35098, Note_on_c, 12, 70, 0
14, 35098, Note_on_c, 12, 75, 113
14, 35099, Note_on_c, 12, 58, 0
14, 35099, Note_on_c, 12, 63, 113
14, 35128, Note_on_c, 12, 75, 0
14, 35128, Note_on_c, 12, 80, 106
14, 35129, Note_on_c, 12, 63, 0
14, 35129, Note_on_c, 12, 68, 106
14, 35158, Note_on_c, 12, 80, 0
14, 35158, Note_on_c, 12, 79, 118
14, 35159, Note_on_c, 12, 68, 0
14, 35159, Note_on_c, 12, 67, 118
14, 35188, Note_on_c, 12, 79, 0
14, 35189, Note_on_c, 12, 67, 0
14, 35189, Note_on_c, 12, 77, 110
14, 35190, Note_on_c, 12, 65, 110
14, 35218, Note_on_c, 12, 77, 0
14, 35218, Note_on_c, 12, 79, 113
14, 35219, Note_on_c, 12, 65, 0
14, 35219, Note_on_c, 12, 67, 113
14, 35248, Note_on_c, 12, 79, 0
14, 35248, Note_on_c, 12, 82, 110
14, 35249, Note_on_c, 12, 67, 0
14, 35249, Note_on_c, 12, 70, 110
14, 35278, Note_on_c, 12, 82, 0
14, 35278, Note_on_c, 12, 80, 113
14, 35279, Note_on_c, 12, 70, 0
14, 35279, Note_on_c, 12, 68, 113
14, 35308, Note_on_c, 12, 80, 0
14, 35308, Note_on_c, 12, 75, 127
14, 35309, Note_on_c, 12, 68, 0
14, 35309, Note_on_c, 12, 63, 127
14, 35338, Note_on_c, 12, 75, 0
14, 35338, Note_on_c, 12, 70, 127
14, 35339, Note_on_c, 12, 63, 0
14, 35339, Note_on_c, 12, 58, 127
14, 35368, Note_on_c, 12, 70, 0
14, 35368, Note_on_c, 12, 65, 100
14, 35369, Note_on_c, 12, 58, 0
14, 35369, Note_on_c, 12, 53, 100
14, 35399, Note_on_c, 12, 65, 0
14, 35399, Note_on_c, 12, 67, 97
14, 35400, Note_on_c, 12, 53, 0
14, 35400, Note_on_c, 12, 55, 97
14, 35521, Note_on_c, 12, 67, 0
14, 35522, Note_on_c, 12, 55, 0
14, 35548, Note_on_c, 12, 56, 100
14, 35550, Note_on_c, 12, 68, 100
14, 35576, Note_on_c, 12, 55, 127
14, 35578, Note_on_c, 12, 67, 127
14, 35583, Note_on_c, 12, 56, 0
14, 35585, Note_on_c, 12, 68, 0
14, 35601, Note_on_c, 12, 55, 0
14, 35603, Note_on_c, 12, 67, 0
14, 35607, Note_on_c, 12, 53, 110
14, 35609, Note_on_c, 12, 65, 110
14, 35635, Note_on_c, 12, 55, 127
14, 35637, Note_on_c, 12, 67, 127
14, 35641, Note_on_c, 12, 53, 0
14, 35643, Note_on_c, 12, 65, 0
14, 35670, Note_on_c, 12, 55, 0
14, 35672, Note_on_c, 12, 67, 0
14, 35676, Note_on_c, 12, 56, 100
14, 35678, Note_on_c, 12, 68, 100
14, 35719, Note_on_c, 12, 55, 127
14, 35721, Note_on_c, 12, 67, 127
14, 35729, Note_on_c, 12, 56, 0
14, 35731, Note_on_c, 12, 68, 0
14, 35755, Note_on_c, 12, 55, 0
14, 35757, Note_on_c, 12, 67, 0
14, 35760, Note_on_c, 12, 53, 92
14, 35762, Note_on_c, 12, 65, 92
14, 35789, Note_on_c, 12, 58, 103
14, 35791, Note_on_c, 12, 70, 103
14, 35795, Note_on_c, 12, 53, 0
14, 35797, Note_on_c, 12, 65, 0
14, 35816, Note_on_c, 12, 58, 0
14, 35816, Note_on_c, 12, 63, 97
14, 35818, Note_on_c, 12, 70, 0
14, 35818, Note_on_c, 12, 75, 97
14, 35991, Note_on_c, 12, 63, 0
14, 35993, Note_on_c, 12, 75, 0
14, 36000, Note_on_c, 12, 70, 100
14, 36029, Note_on_c, 12, 70, 0
14, 36030, Note_on_c, 12, 72, 100
14, 36059, Note_on_c, 12, 72, 0
14, 36060, Note_on_c, 12, 68, 89
14, 36089, Note_on_c, 12, 68, 0
14, 36089, Note_on_c, 12, 70, 99
14, 36119, Note_on_c, 12, 70, 0
14, 36119, Note_on_c, 12, 67, 114
14, 36149, Note_on_c, 12, 67, 0
14, 36149, Note_on_c, 12, 68, 104
14, 36179, Note_on_c, 12, 68, 0
14, 36179, Note_on_c, 12, 65, 106
14, 36209, Note_on_c, 12, 65, 0
14, 36210, Note_on_c, 12, 67, 96
14, 36239, Note_on_c, 12, 67, 0
14, 36239, Note_on_c, 12, 63, 91
14, 36269, Note_on_c, 12, 63, 0
14, 36269, Note_on_c, 12, 65, 100
14, 36299, Note_on_c, 12, 65, 0
14, 36299, Note_on_c, 12, 61, 103
14, 36329, Note_on_c, 12, 61, 0
14, 36330, Note_on_c, 12, 60, 107
14, 36360, Note_on_c, 12, 60, 0
14, 36360, Note_on_c, 12, 63, 100
14, 36380, Note_on_c, 12, 63, 0
14, 36390, Note_on_c, 12, 67, 107
14, 36420, Note_on_c, 12, 67, 0
14, 36420, Note_on_c, 12, 70, 112
14, 36449, Note_on_c, 12, 70, 0
14, 36450, Note_on_c, 12, 74, 106
14, 36480, Note_on_c, 12, 74, 0
14, 36480, Note_on_c, 12, 77, 117
14, 36599, Note_on_c, 12, 77, 0
14, 36690, Note_on_c, 12, 63, 100
14, 36710, Note_on_c, 12, 63, 0
14, 36720, Note_on_c, 12, 67, 107
14, 36750, Note_on_c, 12, 67, 0
14, 36750, Note_on_c, 12, 70, 112
14, 36779, Note_on_c, 12, 70, 0
14, 36780, Note_on_c, 12, 74, 106
14, 36810, Note_on_c, 12, 74, 0
14, 36810, Note_on_c, 12, 77, 117
14, 36929, Note_on_c, 12, 77, 0
14, 36929, End_track
15, 0, Start_track
15, 0, Title_t, "acoustic guitar"
15, 0, MIDI_port, 0
15, 61, Program_c, 13, 25
15, 62, Control_c, 13, 7, 127
15, 63, Control_c, 13, 10, 96
15, 64, Control_c, 13, 91, 39
15, 21604, Note_on_c, 13, 59, 49
15, 21605, Note_on_c, 13, 56, 47
15, 21605, Note_on_c, 13, 52, 44
15, 21780, Note_on_c, 13, 59, 0
15, 21780, Note_on_c, 13, 56, 0
15, 21780, Note_on_c, 13, 52, 0
15, 21781, Note_on_c, 13, 56, 39
15, 21781, Note_on_c, 13, 59, 40
15, 21781, Note_on_c, 13, 52, 38
15, 21840, Note_on_c, 13, 56, 0
15, 21840, Note_on_c, 13, 59, 0
15, 21840, Note_on_c, 13, 52, 0
15, 21841, Note_on_c, 13, 52, 45
15, 21841, Note_on_c, 13, 56, 42
15, 21841, Note_on_c, 13, 59, 45
15, 21898, Note_on_c, 13, 56, 0
15, 21898, Note_on_c, 13, 59, 0
15, 21899, Note_on_c, 13, 52, 0
15, 21899, Note_on_c, 13, 56, 48
15, 21899, Note_on_c, 13, 59, 51
15, 21900, Note_on_c, 13, 52, 47
15, 22019, Note_on_c, 13, 56, 0
15, 22019, Note_on_c, 13, 59, 0
15, 22019, Note_on_c, 13, 52, 0
15, 22020, Note_on_c, 13, 52, 52
15, 22020, Note_on_c, 13, 59, 62
15, 22020, Note_on_c, 13, 56, 67
15, 22259, Note_on_c, 13, 52, 0
15, 22259, Note_on_c, 13, 59, 0
15, 22259, Note_on_c, 13, 56, 0
15, 22260, Note_on_c, 13, 59, 51
15, 22260, Note_on_c, 13, 56, 52
15, 22260, Note_on_c, 13, 52, 49
15, 22291, Note_on_c, 13, 52, 0
15, 22293, Note_on_c, 13, 59, 0
15, 22293, Note_on_c, 13, 56, 0
15, 22294, Note_on_c, 13, 56, 55
15, 22294, Note_on_c, 13, 52, 52
15, 22294, Note_on_c, 13, 59, 48
15, 22320, Note_on_c, 13, 59, 0
15, 22321, Note_on_c, 13, 56, 0
15, 22321, Note_on_c, 13, 52, 0
15, 22323, Note_on_c, 13, 52, 48
15, 22323, Note_on_c, 13, 56, 53
15, 22323, Note_on_c, 13, 59, 52
15, 22382, Note_on_c, 13, 52, 0
15, 22384, Note_on_c, 13, 56, 0
15, 22384, Note_on_c, 13, 59, 0
15, 22385, Note_on_c, 13, 59, 72
15, 22385, Note_on_c, 13, 56, 73
15, 22386, Note_on_c, 13, 52, 67
15, 22498, Note_on_c, 13, 52, 0
15, 22498, Note_on_c, 13, 58, 80
15, 22499, Note_on_c, 13, 52, 67
15, 22499, Note_on_c, 13, 54, 73
15, 22499, Note_on_c, 13, 61, 68
15, 22508, Note_on_c, 13, 59, 0
15, 22509, Note_on_c, 13, 56, 0
15, 22678, Note_on_c, 13, 58, 0
15, 22678, Note_on_c, 13, 52, 0
15, 22678, Note_on_c, 13, 54, 0
15, 22678, Note_on_c, 13, 61, 0
15, 22679, Note_on_c, 13, 61, 60
15, 22679, Note_on_c, 13, 58, 67
15, 22679, Note_on_c, 13, 54, 68
15, 22679, Note_on_c, 13, 52, 59
15, 22736, Note_on_c, 13, 61, 0
15, 22736, Note_on_c, 13, 58, 0
15, 22736, Note_on_c, 13, 54, 0
15, 22737, Note_on_c, 13, 52, 0
15, 22737, Note_on_c, 13, 54, 72
15, 22737, Note_on_c, 13, 61, 68
15, 22737, Note_on_c, 13, 58, 69
15, 22738, Note_on_c, 13, 52, 69
15, 22851, Note_on_c, 13, 54, 0
15, 22851, Note_on_c, 13, 52, 0
15, 22855, Note_on_c, 13, 61, 0
15, 22855, Note_on_c, 13, 58, 0
15, 22856, Note_on_c, 13, 54, 39
15, 22856, Note_on_c, 13, 58, 40
15, 22856, Note_on_c, 13, 61, 40
15, 22856, Note_on_c, 13, 52, 47
15, 22921, Note_on_c, 13, 58, 0
15, 22921, Note_on_c, 13, 61, 0
15, 22922, Note_on_c, 13, 54, 0
15, 22922, Note_on_c, 13, 52, 0
15, 22922, Note_on_c, 13, 58, 60
15, 22922, Note_on_c, 13, 61, 57
15, 22923, Note_on_c, 13, 54, 68
15, 22923, Note_on_c, 13, 52, 67
15, 22980, Note_on_c, 13, 52, 0
15, 22981, Note_on_c, 13, 58, 0
15, 22981, Note_on_c, 13, 61, 0
15, 22981, Note_on_c, 13, 54, 0
15, 22981, Note_on_c, 13, 52, 80
15, 22982, Note_on_c, 13, 58, 88
15, 22982, Note_on_c, 13, 61, 84
15, 22982, Note_on_c, 13, 54, 97
15, 23219, Note_on_c, 13, 52, 0
15, 23219, Note_on_c, 13, 58, 0
15, 23219, Note_on_c, 13, 61, 0
15, 23220, Note_on_c, 13, 54, 0
15, 23220, Note_on_c, 13, 52, 77
15, 23220, Note_on_c, 13, 58, 88
15, 23220, Note_on_c, 13, 61, 80
15, 23221, Note_on_c, 13, 54, 90
15, 23370, Note_on_c, 13, 52, 0
15, 23370, Note_on_c, 13, 58, 0
15, 23370, Note_on_c, 13, 61, 0
15, 23370, Note_on_c, 13, 54, 0
15, 23372, Note_on_c, 13, 52, 48
15, 23372, Note_on_c, 13, 54, 48
15, 23372, Note_on_c, 13, 61, 45
15, 23372, Note_on_c, 13, 58, 47
15, 23399, Note_on_c, 13, 52, 0
15, 23399, Note_on_c, 13, 54, 0
15, 23399, Note_on_c, 13, 61, 0
15, 23399, Note_on_c, 13, 58, 0
15, 23402, Note_on_c, 13, 58, 69
15, 23402, Note_on_c, 13, 61, 65
15, 23403, Note_on_c, 13, 54, 77
15, 23412, Note_on_c, 13, 52, 68
15, 23462, Note_on_c, 13, 58, 0
15, 23462, Note_on_c, 13, 61, 0
15, 23462, Note_on_c, 13, 54, 0
15, 23462, Note_on_c, 13, 52, 0
15, 23463, Note_on_c, 13, 54, 77
15, 23463, Note_on_c, 13, 58, 67
15, 23463, Note_on_c, 13, 61, 62
15, 23465, Note_on_c, 13, 52, 64
15, 23499, Note_on_c, 13, 54, 0
15, 23500, Note_on_c, 13, 58, 0
15, 23502, Note_on_c, 13, 61, 0
15, 23511, Note_on_c, 13, 52, 0
15, 23522, Note_on_c, 13, 62, 61
15, 23523, Note_on_c, 13, 55, 65
15, 23523, Note_on_c, 13, 59, 75
15, 23524, Note_on_c, 13, 53, 88
15, 23698, Note_on_c, 13, 53, 0
15, 23699, Note_on_c, 13, 62, 0
15, 23699, Note_on_c, 13, 55, 0
15, 23699, Note_on_c, 13, 59, 0
15, 23699, Note_on_c, 13, 53, 84
15, 23700, Note_on_c, 13, 62, 67
15, 23700, Note_on_c, 13, 59, 77
15, 23700, Note_on_c, 13, 55, 60
15, 23970, Note_on_c, 13, 53, 0
15, 23971, Note_on_c, 13, 55, 0
15, 23971, Note_on_c, 13, 53, 45
15, 23972, Note_on_c, 13, 59, 0
15, 23972, Note_on_c, 13, 55, 38
15, 23973, Note_on_c, 13, 62, 0
15, 23973, Note_on_c, 13, 59, 42
15, 23974, Note_on_c, 13, 62, 41
15, 23986, Note_on_c, 13, 59, 0
15, 23996, Note_on_c, 13, 53, 0
15, 23999, Note_on_c, 13, 55, 0
15, 23999, Note_on_c, 13, 62, 0
15, 24000, Note_on_c, 13, 53, 58
15, 24000, Note_on_c, 13, 59, 55
15, 24000, Note_on_c, 13, 55, 49
15, 24002, Note_on_c, 13, 62, 55
15, 24019, Note_on_c, 13, 55, 0
15, 24026, Note_on_c, 13, 53, 0
15, 24027, Note_on_c, 13, 59, 0
15, 24028, Note_on_c, 13, 55, 55
15, 24028, Note_on_c, 13, 59, 62
15, 24029, Note_on_c, 13, 53, 67
15, 24030, Note_on_c, 13, 62, 0
15, 24034, Note_on_c, 13, 62, 59
15, 24058, Note_on_c, 13, 55, 0
15, 24058, Note_on_c, 13, 59, 0
15, 24058, Note_on_c, 13, 53, 0
15, 24058, Note_on_c, 13, 62, 0
15, 24059, Note_on_c, 13, 62, 67
15, 24059, Note_on_c, 13, 55, 67
15, 24059, Note_on_c, 13, 53, 88
15, 24059, Note_on_c, 13, 59, 80
15, 24178, Note_on_c, 13, 55, 0
15, 24180, Note_on_c, 13, 62, 0
15, 24180, Note_on_c, 13, 53, 0
15, 24180, Note_on_c, 13, 59, 0
15, 24182, Note_on_c, 13, 62, 62
15, 24183, Note_on_c, 13, 55, 60
15, 24183, Note_on_c, 13, 59, 72
15, 24184, Note_on_c, 13, 53, 77
15, 24358, Note_on_c, 13, 62, 0
15, 24358, Note_on_c, 13, 55, 0
15, 24358, Note_on_c, 13, 59, 0
15, 24359, Note_on_c, 13, 53, 0
15, 24359, Note_on_c, 13, 59, 64
15, 24359, Note_on_c, 13, 62, 52
15, 24359, Note_on_c, 13, 55, 55
15, 24360, Note_on_c, 13, 53, 88
15, 24461, Note_on_c, 13, 59, 0
15, 24461, Note_on_c, 13, 55, 0
15, 24463, Note_on_c, 13, 62, 0
15, 24464, Note_on_c, 13, 53, 0
15, 24480, Note_on_c, 13, 64, 61
15, 24481, Note_on_c, 13, 57, 65
15, 24481, Note_on_c, 13, 61, 75
15, 24482, Note_on_c, 13, 55, 88
15, 24656, Note_on_c, 13, 55, 0
15, 24657, Note_on_c, 13, 64, 0
15, 24657, Note_on_c, 13, 57, 0
15, 24657, Note_on_c, 13, 61, 0
15, 24657, Note_on_c, 13, 55, 84
15, 24658, Note_on_c, 13, 57, 60
15, 24658, Note_on_c, 13, 64, 67
15, 24658, Note_on_c, 13, 61, 77
15, 24928, Note_on_c, 13, 55, 0
15, 24929, Note_on_c, 13, 57, 0
15, 24929, Note_on_c, 13, 55, 45
15, 24930, Note_on_c, 13, 61, 0
15, 24930, Note_on_c, 13, 57, 38
15, 24931, Note_on_c, 13, 64, 0
15, 24931, Note_on_c, 13, 61, 42
15, 24932, Note_on_c, 13, 64, 41
15, 24944, Note_on_c, 13, 57, 0
15, 24949, Note_on_c, 13, 61, 0
15, 24957, Note_on_c, 13, 55, 0
15, 24957, Note_on_c, 13, 64, 0
15, 24960, Note_on_c, 13, 64, 61
15, 24961, Note_on_c, 13, 57, 65
15, 24961, Note_on_c, 13, 61, 75
15, 24962, Note_on_c, 13, 55, 88
15, 25136, Note_on_c, 13, 55, 0
15, 25137, Note_on_c, 13, 64, 0
15, 25137, Note_on_c, 13, 57, 0
15, 25137, Note_on_c, 13, 61, 0
15, 25137, Note_on_c, 13, 55, 84
15, 25138, Note_on_c, 13, 64, 67
15, 25138, Note_on_c, 13, 57, 60
15, 25138, Note_on_c, 13, 61, 77
15, 25408, Note_on_c, 13, 55, 0
15, 25409, Note_on_c, 13, 57, 0
15, 25409, Note_on_c, 13, 55, 45
15, 25410, Note_on_c, 13, 61, 0
15, 25410, Note_on_c, 13, 57, 38
15, 25411, Note_on_c, 13, 64, 0
15, 25411, Note_on_c, 13, 61, 42
15, 25412, Note_on_c, 13, 64, 41
15, 25424, Note_on_c, 13, 57, 0
15, 25429, Note_on_c, 13, 61, 0
15, 25437, Note_on_c, 13, 55, 0
15, 25437, Note_on_c, 13, 64, 0
15, 25618, Note_on_c, 13, 50, 88
15, 25619, Note_on_c, 13, 58, 90
15, 25619, Note_on_c, 13, 53, 65
15, 25739, Note_on_c, 13, 50, 0
15, 25740, Note_on_c, 13, 58, 0
15, 25740, Note_on_c, 13, 53, 0
15, 25743, Note_on_c, 13, 50, 64
15, 25744, Note_on_c, 13, 53, 52
15, 25744, Note_on_c, 13, 58, 68
15, 25887, Note_on_c, 13, 53, 0
15, 25888, Note_on_c, 13, 50, 0
15, 25888, Note_on_c, 13, 58, 0
15, 25889, Note_on_c, 13, 53, 44
15, 25890, Note_on_c, 13, 50, 52
15, 25890, Note_on_c, 13, 58, 48
15, 25907, Note_on_c, 13, 53, 0
15, 25914, Note_on_c, 13, 58, 0
15, 25915, Note_on_c, 13, 50, 0
15, 25921, Note_on_c, 13, 53, 55
15, 25922, Note_on_c, 13, 58, 73
15, 25922, Note_on_c, 13, 50, 77
15, 25977, Note_on_c, 13, 50, 0
15, 25981, Note_on_c, 13, 53, 0
15, 25981, Note_on_c, 13, 58, 0
15, 25981, Note_on_c, 13, 50, 82
15, 25982, Note_on_c, 13, 53, 53
15, 25982, Note_on_c, 13, 58, 62
15, 26094, Note_on_c, 13, 58, 0
15, 26095, Note_on_c, 13, 53, 0
15, 26096, Note_on_c, 13, 50, 0
15, 26099, Note_on_c, 13, 58, 67
15, 26100, Note_on_c, 13, 53, 49
15, 26101, Note_on_c, 13, 50, 90
15, 26213, Note_on_c, 13, 50, 0
15, 26218, Note_on_c, 13, 58, 0
15, 26218, Note_on_c, 13, 53, 0
15, 26218, Note_on_c, 13, 50, 58
15, 26219, Note_on_c, 13, 53, 50
15, 26219, Note_on_c, 13, 58, 51
15, 26276, Note_on_c, 13, 50, 0
15, 26276, Note_on_c, 13, 53, 0
15, 26277, Note_on_c, 13, 58, 0
15, 26277, Note_on_c, 13, 53, 49
15, 26278, Note_on_c, 13, 58, 53
15, 26280, Note_on_c, 13, 50, 65
15, 26335, Note_on_c, 13, 50, 0
15, 26336, Note_on_c, 13, 53, 0
15, 26337, Note_on_c, 13, 58, 0
15, 26337, Note_on_c, 13, 50, 61
15, 26338, Note_on_c, 13, 58, 51
15, 26339, Note_on_c, 13, 53, 53
15, 26379, Note_on_c, 13, 50, 0
15, 26382, Note_on_c, 13, 58, 0
15, 26384, Note_on_c, 13, 53, 0
15, 26398, Note_on_c, 13, 55, 90
15, 26401, Note_on_c, 13, 52, 82
15, 26401, Note_on_c, 13, 48, 77
15, 26578, Note_on_c, 13, 55, 0
15, 26578, Note_on_c, 13, 52, 0
15, 26578, Note_on_c, 13, 48, 0
15, 26579, Note_on_c, 13, 52, 82
15, 26579, Note_on_c, 13, 48, 88
15, 26579, Note_on_c, 13, 55, 94
15, 26818, Note_on_c, 13, 52, 0
15, 26818, Note_on_c, 13, 48, 0
15, 26818, Note_on_c, 13, 55, 0
15, 26819, Note_on_c, 13, 52, 75
15, 26819, Note_on_c, 13, 48, 75
15, 26819, Note_on_c, 13, 55, 84
15, 26999, Note_on_c, 13, 52, 0
15, 26999, Note_on_c, 13, 48, 0
15, 26999, Note_on_c, 13, 55, 0
15, 27000, Note_on_c, 13, 52, 61
15, 27000, Note_on_c, 13, 55, 69
15, 27000, Note_on_c, 13, 48, 61
15, 27027, Note_on_c, 13, 55, 0
15, 27028, Note_on_c, 13, 48, 0
15, 27030, Note_on_c, 13, 52, 0
15, 27030, Note_on_c, 13, 55, 68
15, 27032, Note_on_c, 13, 48, 73
15, 27032, Note_on_c, 13, 52, 69
15, 27176, Note_on_c, 13, 52, 0
15, 27177, Note_on_c, 13, 48, 0
15, 27178, Note_on_c, 13, 55, 0
15, 27178, Note_on_c, 13, 52, 54
15, 27178, Note_on_c, 13, 48, 54
15, 27180, Note_on_c, 13, 55, 65
15, 27206, Note_on_c, 13, 55, 0
15, 27212, Note_on_c, 13, 52, 0
15, 27212, Note_on_c, 13, 48, 0
15, 27212, Note_on_c, 13, 55, 48
15, 27213, Note_on_c, 13, 52, 48
15, 27214, Note_on_c, 13, 48, 52
15, 27235, Note_on_c, 13, 55, 0
15, 27237, Note_on_c, 13, 52, 0
15, 27238, Note_on_c, 13, 48, 0
15, 27239, Note_on_c, 13, 55, 69
15, 27239, Note_on_c, 13, 52, 60
15, 27240, Note_on_c, 13, 48, 67
15, 27362, Note_on_c, 13, 48, 0
15, 27364, Note_on_c, 13, 56, 84
15, 27365, Note_on_c, 13, 53, 73
15, 27365, Note_on_c, 13, 49, 80
15, 27372, Note_on_c, 13, 52, 0
15, 27374, Note_on_c, 13, 55, 0
15, 27841, Note_on_c, 13, 53, 0
15, 27841, Note_on_c, 13, 49, 0
15, 27842, Note_on_c, 13, 56, 0
15, 27842, Note_on_c, 13, 49, 84
15, 27842, Note_on_c, 13, 53, 60
15, 27843, Note_on_c, 13, 56, 77
15, 27843, Note_on_c, 13, 59, 72
15, 27899, Note_on_c, 13, 53, 0
15, 27900, Note_on_c, 13, 49, 0
15, 27900, Note_on_c, 13, 56, 0
15, 27900, Note_on_c, 13, 59, 0
15, 27901, Note_on_c, 13, 53, 48
15, 27901, Note_on_c, 13, 49, 60
15, 27901, Note_on_c, 13, 56, 53
15, 27901, Note_on_c, 13, 59, 51
15, 28013, Note_on_c, 13, 59, 0
15, 28014, Note_on_c, 13, 53, 0
15, 28014, Note_on_c, 13, 49, 0
15, 28014, Note_on_c, 13, 56, 0
15, 28018, Note_on_c, 13, 59, 62
15, 28019, Note_on_c, 13, 53, 57
15, 28019, Note_on_c, 13, 56, 69
15, 28019, Note_on_c, 13, 49, 80
15, 28136, Note_on_c, 13, 49, 0
15, 28137, Note_on_c, 13, 59, 0
15, 28137, Note_on_c, 13, 53, 0
15, 28137, Note_on_c, 13, 56, 0
15, 28141, Note_on_c, 13, 49, 52
15, 28142, Note_on_c, 13, 56, 42
15, 28142, Note_on_c, 13, 59, 43
15, 28142, Note_on_c, 13, 53, 40
15, 28187, Note_on_c, 13, 56, 0
15, 28188, Note_on_c, 13, 53, 0
15, 28191, Note_on_c, 13, 59, 0
15, 28197, Note_on_c, 13, 49, 0
15, 28198, Note_on_c, 13, 56, 47
15, 28198, Note_on_c, 13, 59, 55
15, 28199, Note_on_c, 13, 53, 52
15, 28199, Note_on_c, 13, 49, 68
15, 28269, Note_on_c, 13, 56, 0
15, 28270, Note_on_c, 13, 53, 0
15, 28273, Note_on_c, 13, 59, 0
15, 28317, Note_on_c, 13, 49, 0
15, 28320, Note_on_c, 13, 51, 64
15, 28321, Note_on_c, 13, 55, 49
15, 28321, Note_on_c, 13, 58, 56
15, 28321, Note_on_c, 13, 61, 55
15, 28352, Note_on_c, 13, 51, 40
15, 28359, Note_on_c, 13, 51, 0
15, 28363, Note_on_c, 13, 61, 0
15, 28396, Note_on_c, 13, 58, 0
15, 28397, Note_on_c, 13, 55, 0
15, 28408, Note_on_c, 13, 58, 32
15, 28408, Note_on_c, 13, 55, 36
15, 28471, Note_on_c, 13, 51, 0
15, 28472, Note_on_c, 13, 51, 84
15, 28473, Note_on_c, 13, 55, 52
15, 28473, Note_on_c, 13, 58, 82
15, 28473, Note_on_c, 13, 61, 67
15, 28488, Note_on_c, 13, 55, 0
15, 28489, Note_on_c, 13, 58, 0
15, 28811, Note_on_c, 13, 51, 0
15, 28813, Note_on_c, 13, 58, 0
15, 28813, Note_on_c, 13, 61, 0
15, 28814, Note_on_c, 13, 55, 0
15, 28840, Note_on_c, 13, 51, 90
15, 28841, Note_on_c, 13, 55, 48
15, 28842, Note_on_c, 13, 58, 65
15, 28843, Note_on_c, 13, 61, 56
15, 28956, Note_on_c, 13, 61, 0
15, 28958, Note_on_c, 13, 55, 0
15, 28959, Note_on_c, 13, 51, 0
15, 28960, Note_on_c, 13, 58, 0
15, 28960, Note_on_c, 13, 61, 72
15, 28961, Note_on_c, 13, 58, 75
15, 28962, Note_on_c, 13, 55, 47
15, 28963, Note_on_c, 13, 51, 101
15, 29071, Note_on_c, 13, 61, 0
15, 29073, Note_on_c, 13, 58, 0
15, 29074, Note_on_c, 13, 55, 0
15, 29075, Note_on_c, 13, 51, 0
15, 29080, Note_on_c, 13, 51, 101
15, 29081, Note_on_c, 13, 55, 50
15, 29082, Note_on_c, 13, 58, 75
15, 29083, Note_on_c, 13, 61, 69
15, 29191, Note_on_c, 13, 51, 0
15, 29199, Note_on_c, 13, 61, 0
15, 29200, Note_on_c, 13, 55, 0
15, 29200, Note_on_c, 13, 58, 0
15, 29200, Note_on_c, 13, 61, 82
15, 29201, Note_on_c, 13, 58, 84
15, 29202, Note_on_c, 13, 55, 49
15, 29203, Note_on_c, 13, 51, 97
15, 29278, Note_on_c, 13, 56, 72
15, 29278, Note_on_c, 13, 52, 68
15, 29278, Note_on_c, 13, 59, 61
15, 29279, Note_on_c, 13, 50, 72
15, 29280, Note_on_c, 13, 58, 0
15, 29280, Note_on_c, 13, 55, 0
15, 29281, Note_on_c, 13, 61, 0
15, 29284, Note_on_c, 13, 51, 0
15, 29458, Note_on_c, 13, 59, 0
15, 29459, Note_on_c, 13, 56, 0
15, 29459, Note_on_c, 13, 52, 0
15, 29459, Note_on_c, 13, 50, 0
15, 29459, Note_on_c, 13, 59, 47
15, 29460, Note_on_c, 13, 50, 54
15, 29460, Note_on_c, 13, 56, 52
15, 29460, Note_on_c, 13, 52, 57
15, 29511, Note_on_c, 13, 50, 0
15, 29513, Note_on_c, 13, 56, 0
15, 29515, Note_on_c, 13, 59, 0
15, 29516, Note_on_c, 13, 56, 56
15, 29517, Note_on_c, 13, 52, 0
15, 29517, Note_on_c, 13, 59, 52
15, 29517, Note_on_c, 13, 50, 56
15, 29518, Note_on_c, 13, 52, 62
15, 29577, Note_on_c, 13, 56, 0
15, 29578, Note_on_c, 13, 59, 0
15, 29578, Note_on_c, 13, 50, 0
15, 29578, Note_on_c, 13, 52, 0
15, 29578, Note_on_c, 13, 56, 55
15, 29579, Note_on_c, 13, 59, 57
15, 29579, Note_on_c, 13, 52, 67
15, 29579, Note_on_c, 13, 50, 60
15, 29692, Note_on_c, 13, 56, 0
15, 29697, Note_on_c, 13, 59, 0
15, 29697, Note_on_c, 13, 52, 0
15, 29697, Note_on_c, 13, 50, 0
15, 29697, Note_on_c, 13, 56, 59
15, 29698, Note_on_c, 13, 50, 65
15, 29698, Note_on_c, 13, 59, 53
15, 29698, Note_on_c, 13, 52, 68
15, 29908, Note_on_c, 13, 56, 0
15, 29908, Note_on_c, 13, 59, 0
15, 29909, Note_on_c, 13, 50, 0
15, 29909, Note_on_c, 13, 52, 0
15, 29909, Note_on_c, 13, 56, 39
15, 29909, Note_on_c, 13, 59, 40
15, 29910, Note_on_c, 13, 52, 49
15, 29910, Note_on_c, 13, 50, 48
15, 29929, Note_on_c, 13, 56, 0
15, 29937, Note_on_c, 13, 59, 0
15, 29938, Note_on_c, 13, 52, 0
15, 29938, Note_on_c, 13, 50, 0
15, 29938, Note_on_c, 13, 56, 80
15, 29938, Note_on_c, 13, 59, 69
15, 29939, Note_on_c, 13, 52, 88
15, 29939, Note_on_c, 13, 50, 75
15, 30147, Note_on_c, 13, 56, 0
15, 30148, Note_on_c, 13, 59, 0
15, 30148, Note_on_c, 13, 52, 0
15, 30148, Note_on_c, 13, 50, 0
15, 30148, Note_on_c, 13, 56, 40
15, 30149, Note_on_c, 13, 52, 47
15, 30149, Note_on_c, 13, 59, 42
15, 30149, Note_on_c, 13, 50, 46
15, 30167, Note_on_c, 13, 56, 0
15, 30176, Note_on_c, 13, 52, 0
15, 30176, Note_on_c, 13, 59, 0
15, 30176, Note_on_c, 13, 50, 0
15, 30176, Note_on_c, 13, 56, 58
15, 30177, Note_on_c, 13, 52, 72
15, 30177, Note_on_c, 13, 50, 67
15, 30177, Note_on_c, 13, 59, 56
15, 30235, Note_on_c, 13, 52, 0
15, 30235, Note_on_c, 13, 50, 0
15, 30238, Note_on_c, 13, 56, 0
15, 30239, Note_on_c, 13, 59, 0
15, 30356, Note_on_c, 13, 52, 57
15, 30357, Note_on_c, 13, 61, 75
15, 30357, Note_on_c, 13, 54, 75
15, 30358, Note_on_c, 13, 58, 84
15, 30414, Note_on_c, 13, 52, 0
15, 30415, Note_on_c, 13, 61, 0
15, 30415, Note_on_c, 13, 54, 0
15, 30415, Note_on_c, 13, 58, 0
15, 30415, Note_on_c, 13, 52, 72
15, 30416, Note_on_c, 13, 58, 82
15, 30416, Note_on_c, 13, 61, 69
15, 30416, Note_on_c, 13, 54, 82
15, 30600, Note_on_c, 13, 58, 0
15, 30600, Note_on_c, 13, 54, 0
15, 30601, Note_on_c, 13, 52, 0
15, 30601, Note_on_c, 13, 61, 0
15, 30601, Note_on_c, 13, 54, 52
15, 30601, Note_on_c, 13, 58, 51
15, 30602, Note_on_c, 13, 61, 52
15, 30602, Note_on_c, 13, 52, 60
15, 30652, Note_on_c, 13, 52, 0
15, 30658, Note_on_c, 13, 54, 0
15, 30659, Note_on_c, 13, 58, 0
15, 30659, Note_on_c, 13, 61, 0
15, 30662, Note_on_c, 13, 52, 43
15, 30663, Note_on_c, 13, 61, 59
15, 30663, Note_on_c, 13, 54, 68
15, 30663, Note_on_c, 13, 58, 62
15, 30721, Note_on_c, 13, 52, 0
15, 30721, Note_on_c, 13, 61, 0
15, 30721, Note_on_c, 13, 54, 0
15, 30721, Note_on_c, 13, 58, 0
15, 30722, Note_on_c, 13, 54, 68
15, 30722, Note_on_c, 13, 61, 64
15, 30722, Note_on_c, 13, 52, 52
15, 30722, Note_on_c, 13, 58, 65
15, 30777, Note_on_c, 13, 54, 0
15, 30779, Note_on_c, 13, 61, 0
15, 30779, Note_on_c, 13, 58, 0
15, 30780, Note_on_c, 13, 52, 0
15, 30781, Note_on_c, 13, 52, 65
15, 30781, Note_on_c, 13, 54, 82
15, 30781, Note_on_c, 13, 61, 67
15, 30782, Note_on_c, 13, 58, 77
15, 30896, Note_on_c, 13, 54, 0
15, 30896, Note_on_c, 13, 58, 0
15, 30897, Note_on_c, 13, 52, 0
15, 30897, Note_on_c, 13, 61, 0
15, 30897, Note_on_c, 13, 58, 69
15, 30897, Note_on_c, 13, 54, 72
15, 30898, Note_on_c, 13, 61, 64
15, 30898, Note_on_c, 13, 52, 65
15, 31075, Note_on_c, 13, 58, 0
15, 31075, Note_on_c, 13, 54, 0
15, 31075, Note_on_c, 13, 61, 0
15, 31076, Note_on_c, 13, 58, 61
15, 31076, Note_on_c, 13, 54, 65
15, 31076, Note_on_c, 13, 61, 57
15, 31077, Note_on_c, 13, 52, 0
15, 31078, Note_on_c, 13, 52, 67
15, 31106, Note_on_c, 13, 54, 0
15, 31109, Note_on_c, 13, 58, 0
15, 31112, Note_on_c, 13, 61, 0
15, 31114, Note_on_c, 13, 52, 0
15, 31139, Note_on_c, 13, 59, 82
15, 31140, Note_on_c, 13, 55, 75
15, 31140, Note_on_c, 13, 53, 90
15, 31140, Note_on_c, 13, 62, 67
15, 31382, Note_on_c, 13, 59, 0
15, 31382, Note_on_c, 13, 62, 0
15, 31383, Note_on_c, 13, 55, 0
15, 31383, Note_on_c, 13, 53, 0
15, 31383, Note_on_c, 13, 62, 53
15, 31383, Note_on_c, 13, 59, 56
15, 31384, Note_on_c, 13, 53, 58
15, 31384, Note_on_c, 13, 55, 49
15, 31432, Note_on_c, 13, 53, 0
15, 31438, Note_on_c, 13, 62, 0
15, 31438, Note_on_c, 13, 59, 0
15, 31439, Note_on_c, 13, 55, 0
15, 31439, Note_on_c, 13, 53, 49
15, 31439, Note_on_c, 13, 62, 47
15, 31439, Note_on_c, 13, 59, 45
15, 31440, Note_on_c, 13, 55, 42
15, 31496, Note_on_c, 13, 53, 0
15, 31497, Note_on_c, 13, 59, 0
15, 31499, Note_on_c, 13, 62, 0
15, 31499, Note_on_c, 13, 59, 53
15, 31500, Note_on_c, 13, 55, 0
15, 31500, Note_on_c, 13, 62, 52
15, 31501, Note_on_c, 13, 53, 54
15, 31501, Note_on_c, 13, 55, 46
15, 31556, Note_on_c, 13, 53, 0
15, 31557, Note_on_c, 13, 55, 0
15, 31558, Note_on_c, 13, 59, 0
15, 31558, Note_on_c, 13, 62, 0
15, 31562, Note_on_c, 13, 53, 45
15, 31563, Note_on_c, 13, 59, 38
15, 31564, Note_on_c, 13, 62, 42
15, 31565, Note_on_c, 13, 55, 36
15, 31620, Note_on_c, 13, 53, 0
15, 31622, Note_on_c, 13, 55, 0
15, 31623, Note_on_c, 13, 59, 0
15, 31623, Note_on_c, 13, 53, 68
15, 31623, Note_on_c, 13, 55, 48
15, 31624, Note_on_c, 13, 62, 0
15, 31624, Note_on_c, 13, 59, 60
15, 31625, Note_on_c, 13, 62, 57
15, 31829, Note_on_c, 13, 53, 0
15, 31829, Note_on_c, 13, 55, 0
15, 31829, Note_on_c, 13, 59, 0
15, 31830, Note_on_c, 13, 62, 0
15, 31830, Note_on_c, 13, 53, 60
15, 31830, Note_on_c, 13, 55, 44
15, 31830, Note_on_c, 13, 59, 48
15, 31831, Note_on_c, 13, 62, 43
15, 31850, Note_on_c, 13, 55, 0
15, 31852, Note_on_c, 13, 53, 0
15, 31853, Note_on_c, 13, 59, 0
15, 31854, Note_on_c, 13, 62, 0
15, 31855, Note_on_c, 13, 59, 57
15, 31855, Note_on_c, 13, 62, 53
15, 31855, Note_on_c, 13, 55, 52
15, 31856, Note_on_c, 13, 53, 88
15, 31952, Note_on_c, 13, 53, 0
15, 31955, Note_on_c, 13, 53, 51
15, 31957, Note_on_c, 13, 59, 0
15, 31958, Note_on_c, 13, 59, 39
15, 31982, Note_on_c, 13, 55, 0
15, 31982, Note_on_c, 13, 59, 0
15, 31983, Note_on_c, 13, 53, 0
15, 31984, Note_on_c, 13, 62, 0
15, 31985, Note_on_c, 13, 59, 61
15, 31985, Note_on_c, 13, 62, 52
15, 31986, Note_on_c, 13, 55, 51
15, 31986, Note_on_c, 13, 53, 75
15, 32034, Note_on_c, 13, 53, 0
15, 32037, Note_on_c, 13, 55, 0
15, 32041, Note_on_c, 13, 53, 62
15, 32042, Note_on_c, 13, 59, 0
15, 32042, Note_on_c, 13, 62, 0
15, 32043, Note_on_c, 13, 62, 47
15, 32044, Note_on_c, 13, 55, 49
15, 32044, Note_on_c, 13, 59, 54
15, 32114, Note_on_c, 13, 59, 0
15, 32115, Note_on_c, 13, 53, 0
15, 32116, Note_on_c, 13, 55, 0
15, 32117, Note_on_c, 13, 62, 0
15, 32162, Note_on_c, 13, 57, 84
15, 32162, Note_on_c, 13, 52, 61
15, 32163, Note_on_c, 13, 55, 72
15, 32163, Note_on_c, 13, 49, 88
15, 32335, Note_on_c, 13, 52, 0
15, 32336, Note_on_c, 13, 49, 0
15, 32336, Note_on_c, 13, 52, 75
15, 32337, Note_on_c, 13, 57, 0
15, 32337, Note_on_c, 13, 55, 0
15, 32337, Note_on_c, 13, 49, 101
15, 32338, Note_on_c, 13, 57, 68
15, 32338, Note_on_c, 13, 55, 55
15, 32578, Note_on_c, 13, 52, 0
15, 32579, Note_on_c, 13, 49, 0
15, 32579, Note_on_c, 13, 52, 72
15, 32580, Note_on_c, 13, 57, 0
15, 32580, Note_on_c, 13, 55, 0
15, 32580, Note_on_c, 13, 49, 90
15, 32581, Note_on_c, 13, 55, 60
15, 32581, Note_on_c, 13, 57, 75
15, 32760, Note_on_c, 13, 52, 0
15, 32761, Note_on_c, 13, 55, 0
15, 32761, Note_on_c, 13, 57, 0
15, 32761, Note_on_c, 13, 52, 52
15, 32762, Note_on_c, 13, 49, 0
15, 32762, Note_on_c, 13, 55, 54
15, 32762, Note_on_c, 13, 57, 60
15, 32763, Note_on_c, 13, 49, 77
15, 32817, Note_on_c, 13, 52, 0
15, 32819, Note_on_c, 13, 55, 0
15, 32819, Note_on_c, 13, 49, 0
15, 32819, Note_on_c, 13, 52, 54
15, 32820, Note_on_c, 13, 57, 0
15, 32820, Note_on_c, 13, 49, 65
15, 32821, Note_on_c, 13, 57, 57
15, 32821, Note_on_c, 13, 55, 52
15, 32933, Note_on_c, 13, 52, 0
15, 32934, Note_on_c, 13, 49, 0
15, 32938, Note_on_c, 13, 57, 0
15, 32938, Note_on_c, 13, 52, 59
15, 32939, Note_on_c, 13, 55, 0
15, 32939, Note_on_c, 13, 57, 52
15, 32939, Note_on_c, 13, 49, 82
15, 32940, Note_on_c, 13, 55, 47
15, 33099, Note_on_c, 13, 49, 0
15, 33109, Note_on_c, 13, 57, 0
15, 33111, Note_on_c, 13, 55, 0
15, 33114, Note_on_c, 13, 52, 0
15, 33120, Note_on_c, 13, 53, 52
15, 33120, Note_on_c, 13, 50, 58
15, 33123, Note_on_c, 13, 58, 94
15, 33127, Note_on_c, 13, 46, 59
15, 33299, Note_on_c, 13, 53, 0
15, 33299, Note_on_c, 13, 50, 0
15, 33300, Note_on_c, 13, 50, 69
15, 33301, Note_on_c, 13, 58, 0
15, 33302, Note_on_c, 13, 53, 69
15, 33302, Note_on_c, 13, 58, 90
15, 33534, Note_on_c, 13, 50, 0
15, 33536, Note_on_c, 13, 53, 0
15, 33537, Note_on_c, 13, 58, 0
15, 33537, Note_on_c, 13, 53, 52
15, 33538, Note_on_c, 13, 58, 73
15, 33539, Note_on_c, 13, 50, 58
15, 33598, Note_on_c, 13, 58, 0
15, 33598, Note_on_c, 13, 50, 0
15, 33599, Note_on_c, 13, 53, 0
15, 33599, Note_on_c, 13, 50, 52
15, 33600, Note_on_c, 13, 53, 45
15, 33600, Note_on_c, 13, 58, 50
15, 33657, Note_on_c, 13, 53, 0
15, 33658, Note_on_c, 13, 50, 0
15, 33658, Note_on_c, 13, 58, 0
15, 33658, Note_on_c, 13, 53, 59
15, 33659, Note_on_c, 13, 50, 82
15, 33659, Note_on_c, 13, 58, 80
15, 33896, Note_on_c, 13, 46, 0
15, 33897, Note_on_c, 13, 50, 0
15, 33898, Note_on_c, 13, 53, 0
15, 33898, Note_on_c, 13, 58, 0
15, 33898, Note_on_c, 13, 50, 62
15, 33898, Note_on_c, 13, 56, 60
15, 33899, Note_on_c, 13, 53, 53
15, 33899, Note_on_c, 13, 58, 61
15, 33941, Note_on_c, 13, 53, 0
15, 33944, Note_on_c, 13, 58, 0
15, 33945, Note_on_c, 13, 50, 0
15, 33947, Note_on_c, 13, 56, 0
15, 33956, Note_on_c, 13, 50, 69
15, 33957, Note_on_c, 13, 58, 62
15, 33958, Note_on_c, 13, 53, 51
15, 33985, Note_on_c, 13, 58, 0
15, 33987, Note_on_c, 13, 50, 0
15, 33989, Note_on_c, 13, 53, 0
15, 34019, Note_on_c, 13, 55, 82
15, 34020, Note_on_c, 13, 48, 75
15, 34020, Note_on_c, 13, 52, 77
15, 34199, Note_on_c, 13, 55, 0
15, 34200, Note_on_c, 13, 55, 50
15, 34201, Note_on_c, 13, 48, 0
15, 34201, Note_on_c, 13, 52, 0
15, 34202, Note_on_c, 13, 48, 40
15, 34202, Note_on_c, 13, 52, 37
15, 34254, Note_on_c, 13, 48, 0
15, 34255, Note_on_c, 13, 52, 0
15, 34257, Note_on_c, 13, 55, 0
15, 34257, Note_on_c, 13, 48, 65
15, 34257, Note_on_c, 13, 52, 68
15, 34258, Note_on_c, 13, 55, 80
15, 34498, Note_on_c, 13, 48, 0
15, 34499, Note_on_c, 13, 52, 0
15, 34499, Note_on_c, 13, 48, 67
15, 34500, Note_on_c, 13, 55, 0
15, 34500, Note_on_c, 13, 52, 64
15, 34501, Note_on_c, 13, 55, 59
15, 34502, Note_on_c, 13, 60, 75
15, 34737, Note_on_c, 13, 48, 0
15, 34737, Note_on_c, 13, 52, 0
15, 34738, Note_on_c, 13, 48, 34
15, 34738, Note_on_c, 13, 52, 32
15, 34741, Note_on_c, 13, 55, 0
15, 34742, Note_on_c, 13, 60, 0
15, 34742, Note_on_c, 13, 55, 29
15, 34743, Note_on_c, 13, 60, 29
15, 34765, Note_on_c, 13, 60, 0
15, 34766, Note_on_c, 13, 48, 0
15, 34766, Note_on_c, 13, 52, 0
15, 34766, Note_on_c, 13, 55, 0
15, 34770, Note_on_c, 13, 48, 40
15, 34770, Note_on_c, 13, 60, 44
15, 34770, Note_on_c, 13, 55, 40
15, 34770, Note_on_c, 13, 52, 42
15, 34796, Note_on_c, 13, 48, 0
15, 34796, Note_on_c, 13, 60, 0
15, 34796, Note_on_c, 13, 55, 0
15, 34796, Note_on_c, 13, 52, 0
15, 34798, Note_on_c, 13, 52, 73
15, 34798, Note_on_c, 13, 48, 72
15, 34799, Note_on_c, 13, 55, 55
15, 34799, Note_on_c, 13, 60, 61
15, 34921, Note_on_c, 13, 60, 0
15, 34922, Note_on_c, 13, 52, 0
15, 34922, Note_on_c, 13, 48, 0
15, 34922, Note_on_c, 13, 55, 0
15, 34925, Note_on_c, 13, 60, 62
15, 34926, Note_on_c, 13, 52, 69
15, 34926, Note_on_c, 13, 48, 72
15, 34926, Note_on_c, 13, 55, 59
15, 34995, Note_on_c, 13, 55, 0
15, 35008, Note_on_c, 13, 60, 0
15, 35009, Note_on_c, 13, 48, 0
15, 35014, Note_on_c, 13, 52, 0
15, 35040, Note_on_c, 13, 53, 84
15, 35040, Note_on_c, 13, 56, 84
15, 35045, Note_on_c, 13, 49, 84
15, 35216, Note_on_c, 13, 49, 0
15, 35217, Note_on_c, 13, 53, 0
15, 35217, Note_on_c, 13, 56, 0
15, 35217, Note_on_c, 13, 49, 90
15, 35218, Note_on_c, 13, 56, 84
15, 35218, Note_on_c, 13, 53, 56
15, 35450, Note_on_c, 13, 56, 0
15, 35451, Note_on_c, 13, 49, 0
15, 35455, Note_on_c, 13, 53, 0
15, 35456, Note_on_c, 13, 53, 61
15, 35456, Note_on_c, 13, 56, 82
15, 35456, Note_on_c, 13, 59, 72
15, 35457, Note_on_c, 13, 49, 101
15, 35696, Note_on_c, 13, 56, 0
15, 35697, Note_on_c, 13, 53, 0
15, 35697, Note_on_c, 13, 59, 0
15, 35697, Note_on_c, 13, 49, 0
15, 35697, Note_on_c, 13, 56, 61
15, 35698, Note_on_c, 13, 59, 58
15, 35698, Note_on_c, 13, 49, 84
15, 35698, Note_on_c, 13, 53, 49
15, 35743, Note_on_c, 13, 49, 0
15, 35754, Note_on_c, 13, 53, 0
15, 35754, Note_on_c, 13, 49, 68
15, 35755, Note_on_c, 13, 56, 0
15, 35755, Note_on_c, 13, 59, 0
15, 35756, Note_on_c, 13, 59, 54
15, 35756, Note_on_c, 13, 56, 65
15, 35757, Note_on_c, 13, 53, 51
15, 35809, Note_on_c, 13, 53, 0
15, 35814, Note_on_c, 13, 59, 0
15, 35814, Note_on_c, 13, 56, 0
15, 35816, Note_on_c, 13, 49, 0
15, 35820, Note_on_c, 13, 53, 61
15, 35820, Note_on_c, 13, 49, 90
15, 35821, Note_on_c, 13, 56, 82
15, 35821, Note_on_c, 13, 59, 68
15, 35931, Note_on_c, 13, 56, 0
15, 35932, Note_on_c, 13, 49, 0
15, 35935, Note_on_c, 13, 53, 0
15, 35935, Note_on_c, 13, 59, 0
15, 35936, Note_on_c, 13, 59, 57
15, 35936, Note_on_c, 13, 56, 68
15, 35936, Note_on_c, 13, 53, 52
15, 35937, Note_on_c, 13, 49, 69
15, 35976, Note_on_c, 13, 59, 0
15, 35977, Note_on_c, 13, 56, 0
15, 35981, Note_on_c, 13, 53, 0
15, 35998, Note_on_c, 13, 51, 62
15, 35999, Note_on_c, 13, 49, 0
15, 35999, Note_on_c, 13, 61, 54
15, 35999, Note_on_c, 13, 55, 84
15, 35999, Note_on_c, 13, 58, 65
15, 36115, Note_on_c, 13, 61, 0
15, 36115, Note_on_c, 13, 55, 0
15, 36116, Note_on_c, 13, 58, 0
15, 36120, Note_on_c, 13, 51, 0
15, 36120, Note_on_c, 13, 61, 53
15, 36120, Note_on_c, 13, 55, 62
15, 36121, Note_on_c, 13, 58, 61
15, 36121, Note_on_c, 13, 51, 68
15, 36165, Note_on_c, 13, 55, 0
15, 36174, Note_on_c, 13, 51, 0
15, 36176, Note_on_c, 13, 61, 0
15, 36176, Note_on_c, 13, 58, 0
15, 36176, Note_on_c, 13, 51, 64
15, 36176, Note_on_c, 13, 55, 61
15, 36177, Note_on_c, 13, 61, 52
15, 36177, Note_on_c, 13, 58, 59
15, 36322, Note_on_c, 13, 61, 0
15, 36323, Note_on_c, 13, 51, 0
15, 36324, Note_on_c, 13, 55, 0
15, 36324, Note_on_c, 13, 58, 0
15, 36324, Note_on_c, 13, 61, 36
15, 36325, Note_on_c, 13, 51, 36
15, 36326, Note_on_c, 13, 55, 38
15, 36326, Note_on_c, 13, 58, 39
15, 36341, Note_on_c, 13, 61, 0
15, 36345, Note_on_c, 13, 51, 0
15, 36346, Note_on_c, 13, 55, 0
15, 36346, Note_on_c, 13, 58, 0
15, 36355, Note_on_c, 13, 61, 48
15, 36356, Note_on_c, 13, 51, 56
15, 36356, Note_on_c, 13, 58, 53
15, 36356, Note_on_c, 13, 55, 55
15, 36378, Note_on_c, 13, 55, 0
15, 36380, Note_on_c, 13, 58, 0
15, 36381, Note_on_c, 13, 61, 0
15, 36381, Note_on_c, 13, 51, 0
15, 36386, Note_on_c, 13, 55, 48
15, 36387, Note_on_c, 13, 51, 52
15, 36387, Note_on_c, 13, 58, 51
15, 36387, Note_on_c, 13, 61, 47
15, 36411, Note_on_c, 13, 51, 0
15, 36413, Note_on_c, 13, 58, 0
15, 36414, Note_on_c, 13, 61, 0
15, 36417, Note_on_c, 13, 55, 0
15, 36418, Note_on_c, 13, 51, 80
15, 36419, Note_on_c, 13, 55, 101
15, 36419, Note_on_c, 13, 58, 101
15, 36419, Note_on_c, 13, 61, 72
15, 36566, Note_on_c, 13, 61, 0
15, 36568, Note_on_c, 13, 55, 0
15, 36568, Note_on_c, 13, 58, 0
15, 36568, Note_on_c, 13, 61, 34
15, 36569, Note_on_c, 13, 51, 0
15, 36570, Note_on_c, 13, 58, 33
15, 36570, Note_on_c, 13, 55, 33
15, 36571, Note_on_c, 13, 51, 36
15, 36587, Note_on_c, 13, 61, 0
15, 36593, Note_on_c, 13, 51, 0
15, 36594, Note_on_c, 13, 55, 0
15, 36595, Note_on_c, 13, 58, 0
15, 36601, Note_on_c, 13, 51, 54
15, 36601, Note_on_c, 13, 61, 44
15, 36601, Note_on_c, 13, 55, 52
15, 36602, Note_on_c, 13, 58, 52
15, 36623, Note_on_c, 13, 51, 0
15, 36627, Note_on_c, 13, 55, 0
15, 36627, Note_on_c, 13, 58, 0
15, 36628, Note_on_c, 13, 61, 0
15, 36631, Note_on_c, 13, 55, 64
15, 36631, Note_on_c, 13, 51, 57
15, 36632, Note_on_c, 13, 58, 61
15, 36632, Note_on_c, 13, 61, 55
15, 36657, Note_on_c, 13, 51, 0
15, 36657, Note_on_c, 13, 58, 0
15, 36658, Note_on_c, 13, 55, 0
15, 36658, Note_on_c, 13, 61, 0
15, 36663, Note_on_c, 13, 61, 73
15, 36663, Note_on_c, 13, 51, 88
15, 36663, Note_on_c, 13, 55, 94
15, 36664, Note_on_c, 13, 58, 94
15, 36769, Note_on_c, 13, 58, 0
15, 36775, Note_on_c, 13, 55, 0
15, 36775, Note_on_c, 13, 58, 24
15, 36776, Note_on_c, 13, 61, 0
15, 36776, Note_on_c, 13, 51, 0
15, 36776, Note_on_c, 13, 55, 24
15, 36777, Note_on_c, 13, 61, 24
15, 36777, Note_on_c, 13, 51, 28
15, 36799, Note_on_c, 13, 51, 0
15, 36804, Note_on_c, 13, 55, 0
15, 36805, Note_on_c, 13, 58, 0
15, 36807, Note_on_c, 13, 61, 0
15, 36807, Note_on_c, 13, 51, 65
15, 36807, Note_on_c, 13, 55, 77
15, 36808, Note_on_c, 13, 58, 61
15, 36808, Note_on_c, 13, 61, 56
15, 36831, Note_on_c, 13, 51, 0
15, 36838, Note_on_c, 13, 55, 0
15, 36838, Note_on_c, 13, 58, 0
15, 36838, Note_on_c, 13, 61, 0
15, 36838, Note_on_c, 13, 51, 75
15, 36839, Note_on_c, 13, 61, 72
15, 36839, Note_on_c, 13, 58, 88
15, 36839, Note_on_c, 13, 55, 97
15, 36890, Note_on_c, 13, 61, 0
15, 36896, Note_on_c, 13, 51, 0
15, 36899, Note_on_c, 13, 58, 0
15, 36899, Note_on_c, 13, 55, 0
15, 36901, Note_on_c, 13, 61, 65
15, 36901, Note_on_c, 13, 51, 84
15, 36902, Note_on_c, 13, 55, 94
15, 36902, Note_on_c, 13, 58, 84
15, 36959, Note_on_c, 13, 61, 0
15, 36960, Note_on_c, 13, 45, 58
15, 36961, Note_on_c, 13, 51, 0
15, 36961, Note_on_c, 13, 55, 0
15, 36961, Note_on_c, 13, 58, 0
15, 36962, Note_on_c, 13, 52, 49
15, 36964, Note_on_c, 13, 57, 60
15, 36966, Note_on_c, 13, 60, 74
15, 36968, Note_on_c, 13, 64, 59
15, 37063, Note_on_c, 13, 45, 0
15, 37069, Note_on_c, 13, 52, 0
15, 37073, Note_on_c, 13, 57, 0
15, 37077, Note_on_c, 13, 60, 0
15, 37077, Note_on_c, 13, 64, 0
15, 37080, Note_on_c, 13, 52, 45
15, 37080, Note_on_c, 13, 45, 57
15, 37082, Note_on_c, 13, 57, 50
15, 37082, Note_on_c, 13, 64, 48
15, 37082, Note_on_c, 13, 60, 56
15, 37187, Note_on_c, 13, 64, 0
15, 37187, Note_on_c, 13, 60, 0
15, 37196, Note_on_c, 13, 57, 0
15, 37201, Note_on_c, 13, 45, 0
15, 37205, Note_on_c, 13, 60, 42
15, 37207, Note_on_c, 13, 64, 38
15, 37208, Note_on_c, 13, 52, 0
15, 37209, Note_on_c, 13, 45, 58
15, 37209, Note_on_c, 13, 52, 53
15, 37210, Note_on_c, 13, 57, 30
15, 37270, Note_on_c, 13, 60, 0
15, 37271, Note_on_c, 13, 57, 0
15, 37271, Note_on_c, 13, 60, 74
15, 37272, Note_on_c, 13, 64, 0
15, 37272, Note_on_c, 13, 57, 60
15, 37273, Note_on_c, 13, 64, 58
15, 37274, Note_on_c, 13, 45, 0
15, 37274, Note_on_c, 13, 52, 0
15, 37275, Note_on_c, 13, 52, 67
15, 37277, Note_on_c, 13, 45, 77
15, 37379, Note_on_c, 13, 60, 0
15, 37379, Note_on_c, 13, 57, 0
15, 37379, Note_on_c, 13, 64, 0
15, 37379, Note_on_c, 13, 52, 0
15, 37379, Note_on_c, 13, 45, 0
15, 37383, Note_on_c, 13, 60, 77
15, 37384, Note_on_c, 13, 64, 56
15, 37386, Note_on_c, 13, 55, 64
15, 37386, Note_on_c, 13, 45, 67
15, 37387, Note_on_c, 13, 52, 67
15, 37462, Note_on_c, 13, 45, 0
15, 37466, Note_on_c, 13, 52, 0
15, 37497, Note_on_c, 13, 60, 0
15, 37497, Note_on_c, 13, 55, 0
15, 37499, Note_on_c, 13, 64, 0
15, 37500, Note_on_c, 13, 64, 43
15, 37501, Note_on_c, 13, 55, 42
15, 37501, Note_on_c, 13, 60, 50
15, 37615, Note_on_c, 13, 64, 0
15, 37617, Note_on_c, 13, 55, 0
15, 37619, Note_on_c, 13, 55, 67
15, 37620, Note_on_c, 13, 60, 0
15, 37620, Note_on_c, 13, 64, 64
15, 37620, Note_on_c, 13, 52, 65
15, 37622, Note_on_c, 13, 60, 74
15, 37747, Note_on_c, 13, 52, 0
15, 37749, Note_on_c, 13, 52, 63
15, 37799, Note_on_c, 13, 64, 0
15, 37799, Note_on_c, 13, 60, 0
15, 37801, Note_on_c, 13, 55, 0
15, 37803, Note_on_c, 13, 64, 54
15, 37804, Note_on_c, 13, 60, 72
15, 37805, Note_on_c, 13, 55, 65
15, 37862, Note_on_c, 13, 52, 0
15, 37865, Note_on_c, 13, 52, 53
15, 37874, Note_on_c, 13, 55, 0
15, 37877, Note_on_c, 13, 60, 0
15, 37881, Note_on_c, 13, 64, 0
15, 37894, Note_on_c, 13, 52, 0
15, 37924, Note_on_c, 13, 60, 67
15, 37925, Note_on_c, 13, 64, 57
15, 37926, Note_on_c, 13, 57, 72
15, 37933, Note_on_c, 13, 45, 77
15, 37937, Note_on_c, 13, 52, 60
15, 38027, Note_on_c, 13, 52, 0
15, 38028, Note_on_c, 13, 52, 32
15, 38052, Note_on_c, 13, 52, 0
15, 38053, Note_on_c, 13, 45, 0
15, 38100, Note_on_c, 13, 57, 0
15, 38101, Note_on_c, 13, 52, 51
15, 38102, Note_on_c, 13, 60, 0
15, 38102, Note_on_c, 13, 64, 0
15, 38102, Note_on_c, 13, 57, 60
15, 38103, Note_on_c, 13, 64, 63
15, 38103, Note_on_c, 13, 60, 74
15, 38107, Note_on_c, 13, 45, 43
15, 38222, Note_on_c, 13, 57, 0
15, 38222, Note_on_c, 13, 64, 0
15, 38222, Note_on_c, 13, 60, 0
15, 38224, Note_on_c, 13, 52, 0
15, 38225, Note_on_c, 13, 45, 0
15, 38225, Note_on_c, 13, 57, 46
15, 38225, Note_on_c, 13, 64, 47
15, 38225, Note_on_c, 13, 52, 56
15, 38227, Note_on_c, 13, 60, 54
15, 38227, Note_on_c, 13, 45, 65
15, 38279, Note_on_c, 13, 60, 0
15, 38281, Note_on_c, 13, 64, 0
15, 38281, Note_on_c, 13, 52, 0
15, 38283, Note_on_c, 13, 45, 0
15, 38283, Note_on_c, 13, 64, 35
15, 38285, Note_on_c, 13, 60, 35
15, 38288, Note_on_c, 13, 57, 0
15, 38290, Note_on_c, 13, 57, 25
15, 38291, Note_on_c, 13, 52, 32
15, 38337, Note_on_c, 13, 60, 0
15, 38337, Note_on_c, 13, 52, 0
15, 38339, Note_on_c, 13, 60, 65
15, 38340, Note_on_c, 13, 64, 0
15, 38341, Note_on_c, 13, 64, 53
15, 38341, Note_on_c, 13, 55, 64
15, 38341, Note_on_c, 13, 52, 74
15, 38342, Note_on_c, 13, 57, 0
15, 38347, Note_on_c, 13, 48, 74
15, 38399, Note_on_c, 13, 64, 0
15, 38399, Note_on_c, 13, 55, 0
15, 38401, Note_on_c, 13, 60, 0
15, 38406, Note_on_c, 13, 64, 37
15, 38406, Note_on_c, 13, 55, 38
15, 38406, Note_on_c, 13, 60, 46
15, 38464, Note_on_c, 13, 60, 0
15, 38465, Note_on_c, 13, 52, 0
15, 38465, Note_on_c, 13, 60, 49
15, 38466, Note_on_c, 13, 64, 0
15, 38467, Note_on_c, 13, 55, 0
15, 38467, Note_on_c, 13, 64, 43
15, 38468, Note_on_c, 13, 55, 42
15, 38468, Note_on_c, 13, 52, 63
15, 38516, Note_on_c, 13, 52, 0
15, 38519, Note_on_c, 13, 60, 0
15, 38521, Note_on_c, 13, 64, 0
15, 38521, Note_on_c, 13, 55, 0
15, 38525, Note_on_c, 13, 60, 47
15, 38526, Note_on_c, 13, 52, 54
15, 38527, Note_on_c, 13, 64, 40
15, 38528, Note_on_c, 13, 55, 42
15, 38582, Note_on_c, 13, 60, 0
15, 38582, Note_on_c, 13, 52, 0
15, 38583, Note_on_c, 13, 64, 0
15, 38584, Note_on_c, 13, 64, 51
15, 38585, Note_on_c, 13, 55, 0
15, 38586, Note_on_c, 13, 60, 59
15, 38586, Note_on_c, 13, 52, 65
15, 38587, Note_on_c, 13, 55, 51
15, 38695, Note_on_c, 13, 52, 0
15, 38697, Note_on_c, 13, 60, 0
15, 38697, Note_on_c, 13, 55, 0
15, 38698, Note_on_c, 13, 52, 51
15, 38699, Note_on_c, 13, 60, 44
15, 38699, Note_on_c, 13, 55, 39
15, 38756, Note_on_c, 13, 64, 0
15, 38756, Note_on_c, 13, 60, 0
15, 38758, Note_on_c, 13, 64, 45
15, 38759, Note_on_c, 13, 52, 0
15, 38759, Note_on_c, 13, 55, 0
15, 38759, Note_on_c, 13, 60, 58
15, 38760, Note_on_c, 13, 52, 70
15, 38760, Note_on_c, 13, 55, 50
15, 38837, Note_on_c, 13, 48, 0
15, 38846, Note_on_c, 13, 52, 0
15, 38847, Note_on_c, 13, 55, 0
15, 38848, Note_on_c, 13, 60, 0
15, 38849, Note_on_c, 13, 64, 0
15, 38880, Note_on_c, 13, 52, 67
15, 38882, Note_on_c, 13, 57, 67
15, 38884, Note_on_c, 13, 60, 85
15, 38886, Note_on_c, 13, 64, 82
15, 39071, Note_on_c, 13, 52, 0
15, 39105, Note_on_c, 13, 57, 0
15, 39110, Note_on_c, 13, 60, 0
15, 39115, Note_on_c, 13, 64, 0
15, 39120, Note_on_c, 13, 56, 88
15, 39122, Note_on_c, 13, 60, 74
15, 39124, Note_on_c, 13, 64, 72
15, 39342, Note_on_c, 13, 56, 0
15, 39345, Note_on_c, 13, 60, 0
15, 39348, Note_on_c, 13, 64, 0
15, 39360, Note_on_c, 13, 55, 77
15, 39364, Note_on_c, 13, 60, 74
15, 39368, Note_on_c, 13, 64, 82
15, 39552, Note_on_c, 13, 60, 0
15, 39553, Note_on_c, 13, 64, 0
15, 39556, Note_on_c, 13, 55, 0
15, 39597, Note_on_c, 13, 49, 71
15, 39599, Note_on_c, 13, 53, 66
15, 39601, Note_on_c, 13, 57, 54
15, 39603, Note_on_c, 13, 61, 88
15, 39804, Note_on_c, 13, 49, 0
15, 39811, Note_on_c, 13, 53, 0
15, 39811, Note_on_c, 13, 61, 0
15, 39812, Note_on_c, 13, 57, 0
15, 39840, Note_on_c, 13, 50, 67
15, 39844, Note_on_c, 13, 53, 82
15, 39848, Note_on_c, 13, 58, 85
15, 39997, Note_on_c, 13, 50, 0
15, 40003, Note_on_c, 13, 53, 0
15, 40007, Note_on_c, 13, 58, 0
15, 40080, Note_on_c, 13, 48, 77
15, 40084, Note_on_c, 13, 53, 79
15, 40088, Note_on_c, 13, 56, 88
15, 40092, Note_on_c, 13, 60, 74
15, 40280, Note_on_c, 13, 48, 0
15, 40287, Note_on_c, 13, 53, 0
15, 40295, Note_on_c, 13, 56, 0
15, 40298, Note_on_c, 13, 60, 0
15, 40320, Note_on_c, 13, 49, 70
15, 40324, Note_on_c, 13, 53, 77
15, 40328, Note_on_c, 13, 56, 77
15, 40332, Note_on_c, 13, 59, 82
15, 40336, Note_on_c, 13, 64, 77
15, 40737, Note_on_c, 13, 49, 0
15, 40738, Note_on_c, 13, 53, 0
15, 40739, Note_on_c, 13, 59, 0
15, 40747, Note_on_c, 13, 64, 0
15, 40750, Note_on_c, 13, 56, 0
15, 40750, End_track
0, 0, End_of_file
