0, 0, Header, 1, 6, 120
1, 0, Start_track
1, 0, Title_t, "WinJammer Demo"
1, 0, SMPTE_offset, 96, 0, 3, 0, 0
1, 0, Time_signature, 4, 3, 12, 8
1, 0, Key_signature, 0, "major"
1, 0, Tempo, 1000000
1, 0, End_track
2, 0, Start_track
2, 0, MIDI_port, 0
2, 0, Title_t, "Bass"
2, 0, Control_c, 0, 0, 0
2, 0, Control_c, 0, 32, 0
2, 0, Program_c, 0, 33
2, 0, Control_c, 0, 7, 127
2, 0, Control_c, 0, 10, 64
2, 600, Note_on_c, 0, 33, 100
2, 640, Note_on_c, 0, 33, 0
2, 692, Note_on_c, 0, 33, 100
2, 722, Note_on_c, 0, 33, 0
2, 722, Note_on_c, 0, 33, 100
2, 962, Note_on_c, 0, 33, 0
2, 962, Note_on_c, 0, 32, 100
2, 992, Note_on_c, 0, 32, 0
2, 1022, Note_on_c, 0, 32, 100
2, 1082, Note_on_c, 0, 32, 0
2, 1172, Note_on_c, 0, 39, 100
2, 1202, Note_on_c, 0, 39, 0
2, 1202, Note_on_c, 0, 44, 100
2, 1232, Note_on_c, 0, 44, 0
2, 1262, Note_on_c, 0, 44, 100
2, 1382, Note_on_c, 0, 44, 0
2, 1412, Note_on_c, 0, 39, 100
2, 1440, Note_on_c, 0, 44, 100
2, 1442, Note_on_c, 0, 39, 0
2, 1470, Note_on_c, 0, 44, 0
2, 1500, Note_on_c, 0, 44, 100
2, 1620, Note_on_c, 0, 44, 0
2, 1650, Note_on_c, 0, 39, 100
2, 1680, Note_on_c, 0, 39, 0
2, 1680, Note_on_c, 0, 44, 100
2, 1710, Note_on_c, 0, 44, 0
2, 1710, Note_on_c, 0, 39, 100
2, 1740, Note_on_c, 0, 39, 0
2, 1740, Note_on_c, 0, 35, 100
2, 1770, Note_on_c, 0, 35, 0
2, 1770, Note_on_c, 0, 34, 100
2, 1800, Note_on_c, 0, 34, 0
2, 1800, Note_on_c, 0, 32, 100
2, 1830, Note_on_c, 0, 32, 0
2, 1890, Note_on_c, 0, 33, 100
2, 1920, Note_on_c, 0, 33, 0
2, 1920, Note_on_c, 0, 33, 100
2, 2160, Note_on_c, 0, 33, 0
2, 2160, Note_on_c, 0, 40, 100
2, 2219, Note_on_c, 0, 40, 0
2, 2220, Note_on_c, 0, 38, 100
2, 2340, Note_on_c, 0, 38, 0
2, 2370, Note_on_c, 0, 33, 100
2, 2400, Note_on_c, 0, 33, 0
2, 2400, Note_on_c, 0, 38, 100
2, 2430, Note_on_c, 0, 38, 0
2, 2460, Note_on_c, 0, 38, 100
2, 2580, Note_on_c, 0, 38, 0
2, 2610, Note_on_c, 0, 33, 100
2, 2640, Note_on_c, 0, 33, 0
2, 2640, Note_on_c, 0, 38, 100
2, 2670, Note_on_c, 0, 38, 0
2, 2700, Note_on_c, 0, 38, 100
2, 2820, Note_on_c, 0, 38, 0
2, 2850, Note_on_c, 0, 33, 100
2, 2880, Note_on_c, 0, 33, 0
2, 2880, Note_on_c, 0, 38, 100
2, 2910, Note_on_c, 0, 38, 0
2, 2910, Note_on_c, 0, 33, 100
2, 2940, Note_on_c, 0, 33, 0
2, 2940, Note_on_c, 0, 40, 100
2, 2970, Note_on_c, 0, 40, 0
2, 2970, Note_on_c, 0, 41, 100
2, 3000, Note_on_c, 0, 41, 0
2, 3000, Note_on_c, 0, 38, 100
2, 3030, Note_on_c, 0, 38, 0
2, 3090, Note_on_c, 0, 33, 100
2, 3120, Note_on_c, 0, 33, 0
2, 3120, Note_on_c, 0, 33, 100
2, 3360, Note_on_c, 0, 33, 0
2, 3360, Note_on_c, 0, 28, 100
2, 3379, Note_on_c, 0, 28, 0
2, 3420, Note_on_c, 0, 28, 100
2, 3540, Note_on_c, 0, 28, 0
2, 3580, Note_on_c, 0, 27, 100
2, 3599, Note_on_c, 0, 27, 0
2, 3600, Note_on_c, 0, 32, 100
2, 3619, Note_on_c, 0, 32, 0
2, 3620, Note_on_c, 0, 34, 100
2, 3639, Note_on_c, 0, 34, 0
2, 3640, Note_on_c, 0, 35, 100
2, 3659, Note_on_c, 0, 35, 0
2, 3660, Note_on_c, 0, 37, 100
2, 3679, Note_on_c, 0, 37, 0
2, 3680, Note_on_c, 0, 39, 100
2, 3699, Note_on_c, 0, 39, 0
2, 3700, Note_on_c, 0, 42, 100
2, 3719, Note_on_c, 0, 42, 0
2, 3720, Note_on_c, 0, 41, 100
2, 3739, Note_on_c, 0, 41, 0
2, 3740, Note_on_c, 0, 44, 100
2, 3759, Note_on_c, 0, 44, 0
2, 3760, Note_on_c, 0, 42, 100
2, 3779, Note_on_c, 0, 42, 0
2, 3780, Note_on_c, 0, 41, 100
2, 3799, Note_on_c, 0, 41, 0
2, 3800, Note_on_c, 0, 39, 100
2, 3819, Note_on_c, 0, 39, 0
2, 3820, Note_on_c, 0, 37, 100
2, 3839, Note_on_c, 0, 37, 0
2, 3840, Note_on_c, 0, 38, 100
2, 3960, Note_on_c, 0, 38, 0
2, 3960, Note_on_c, 0, 38, 100
2, 4020, Note_on_c, 0, 38, 0
2, 4080, Note_on_c, 0, 38, 100
2, 4140, Note_on_c, 0, 38, 0
2, 4200, Note_on_c, 0, 38, 100
2, 4380, Note_on_c, 0, 38, 0
2, 4560, Note_on_c, 0, 28, 100
2, 4680, Note_on_c, 0, 28, 0
2, 4680, Note_on_c, 0, 28, 100
2, 4740, Note_on_c, 0, 28, 0
2, 4800, Note_on_c, 0, 28, 100
2, 4860, Note_on_c, 0, 28, 0
2, 4920, Note_on_c, 0, 28, 100
2, 5100, Note_on_c, 0, 28, 0
2, 5160, Note_on_c, 0, 28, 100
2, 5220, Note_on_c, 0, 28, 0
2, 5220, Note_on_c, 0, 28, 100
2, 5280, Note_on_c, 0, 28, 0
2, 5370, Note_on_c, 0, 35, 100
2, 5400, Note_on_c, 0, 35, 0
2, 5400, Note_on_c, 0, 28, 100
2, 5460, Note_on_c, 0, 28, 0
2, 5460, Note_on_c, 0, 28, 100
2, 5520, Note_on_c, 0, 28, 0
2, 5640, Note_on_c, 0, 35, 100
2, 5670, Note_on_c, 0, 35, 0
2, 5760, Note_on_c, 0, 42, 100
2, 5790, Note_on_c, 0, 42, 0
2, 5880, Note_on_c, 0, 28, 100
2, 5940, Note_on_c, 0, 28, 0
2, 5940, Note_on_c, 0, 28, 100
2, 6000, Note_on_c, 0, 28, 0
2, 6090, Note_on_c, 0, 35, 100
2, 6120, Note_on_c, 0, 35, 0
2, 6120, Note_on_c, 0, 40, 100
2, 6150, Note_on_c, 0, 40, 0
2, 6150, Note_on_c, 0, 42, 100
2, 6180, Note_on_c, 0, 42, 0
2, 6180, Note_on_c, 0, 40, 100
2, 6240, Note_on_c, 0, 40, 0
2, 6330, Note_on_c, 0, 35, 100
2, 6360, Note_on_c, 0, 35, 0
2, 6360, Note_on_c, 0, 28, 100
2, 6420, Note_on_c, 0, 28, 0
2, 6420, Note_on_c, 0, 28, 100
2, 6480, Note_on_c, 0, 28, 0
2, 6600, Note_on_c, 0, 35, 100
2, 6840, Note_on_c, 0, 35, 0
2, 6840, Note_on_c, 0, 32, 100
2, 6930, Note_on_c, 0, 32, 0
2, 6930, Note_on_c, 0, 32, 100
2, 6960, Note_on_c, 0, 32, 0
2, 7050, Note_on_c, 0, 39, 100
2, 7080, Note_on_c, 0, 39, 0
2, 7080, Note_on_c, 0, 32, 100
2, 7170, Note_on_c, 0, 32, 0
2, 7170, Note_on_c, 0, 32, 100
2, 7200, Note_on_c, 0, 32, 0
2, 7290, Note_on_c, 0, 39, 100
2, 7320, Note_on_c, 0, 39, 0
2, 7320, Note_on_c, 0, 32, 100
2, 7410, Note_on_c, 0, 32, 0
2, 7410, Note_on_c, 0, 32, 100
2, 7440, Note_on_c, 0, 32, 0
2, 7560, Note_on_c, 0, 42, 100
2, 7590, Note_on_c, 0, 42, 0
2, 7590, Note_on_c, 0, 40, 100
2, 7620, Note_on_c, 0, 40, 0
2, 7620, Note_on_c, 0, 37, 100
2, 7650, Note_on_c, 0, 37, 0
2, 7650, Note_on_c, 0, 36, 100
2, 7680, Note_on_c, 0, 36, 0
2, 7680, Note_on_c, 0, 35, 100
2, 7710, Note_on_c, 0, 35, 0
2, 7710, Note_on_c, 0, 32, 100
2, 7740, Note_on_c, 0, 32, 0
2, 7740, Note_on_c, 0, 30, 100
2, 7770, Note_on_c, 0, 30, 0
2, 7770, Note_on_c, 0, 29, 100
2, 7800, Note_on_c, 0, 29, 0
2, 7800, Note_on_c, 0, 28, 100
2, 7860, Note_on_c, 0, 28, 0
2, 7860, Note_on_c, 0, 28, 100
2, 7920, Note_on_c, 0, 28, 0
2, 8010, Note_on_c, 0, 35, 100
2, 8040, Note_on_c, 0, 35, 0
2, 8040, Note_on_c, 0, 40, 100
2, 8070, Note_on_c, 0, 40, 0
2, 8070, Note_on_c, 0, 42, 100
2, 8100, Note_on_c, 0, 42, 0
2, 8100, Note_on_c, 0, 40, 100
2, 8160, Note_on_c, 0, 40, 0
2, 8250, Note_on_c, 0, 35, 100
2, 8280, Note_on_c, 0, 35, 0
2, 8280, Note_on_c, 0, 28, 100
2, 8340, Note_on_c, 0, 28, 0
2, 8340, Note_on_c, 0, 28, 100
2, 8400, Note_on_c, 0, 28, 0
2, 8520, Note_on_c, 0, 35, 100
2, 8760, Note_on_c, 0, 35, 0
2, 8760, Note_on_c, 0, 32, 100
2, 8790, Note_on_c, 0, 32, 0
2, 8790, Note_on_c, 0, 32, 100
2, 8820, Note_on_c, 0, 32, 0
2, 8820, Note_on_c, 0, 30, 100
2, 8850, Note_on_c, 0, 30, 0
2, 8850, Note_on_c, 0, 32, 100
2, 8880, Note_on_c, 0, 32, 0
2, 8970, Note_on_c, 0, 30, 100
2, 9000, Note_on_c, 0, 30, 0
2, 9000, Note_on_c, 0, 32, 100
2, 9090, Note_on_c, 0, 32, 0
2, 9090, Note_on_c, 0, 32, 100
2, 9120, Note_on_c, 0, 32, 0
2, 9210, Note_on_c, 0, 39, 100
2, 9240, Note_on_c, 0, 39, 0
2, 9240, Note_on_c, 0, 32, 100
2, 9330, Note_on_c, 0, 32, 0
2, 9330, Note_on_c, 0, 32, 100
2, 9360, Note_on_c, 0, 32, 0
2, 9600, Note_on_c, 0, 35, 100
2, 9630, Note_on_c, 0, 35, 0
2, 9630, Note_on_c, 0, 37, 100
2, 9660, Note_on_c, 0, 37, 0
2, 9660, Note_on_c, 0, 35, 100
2, 9690, Note_on_c, 0, 35, 0
2, 9690, Note_on_c, 0, 30, 100
2, 9720, Note_on_c, 0, 30, 0
2, 9720, Note_on_c, 0, 28, 100
2, 9930, Note_on_c, 0, 28, 0
2, 9930, Note_on_c, 0, 35, 100
2, 9960, Note_on_c, 0, 35, 0
2, 9960, Note_on_c, 0, 40, 100
2, 9990, Note_on_c, 0, 40, 0
2, 9990, Note_on_c, 0, 42, 100
2, 10020, Note_on_c, 0, 42, 0
2, 10020, Note_on_c, 0, 44, 100
2, 10170, Note_on_c, 0, 44, 0
2, 10170, Note_on_c, 0, 35, 100
2, 10200, Note_on_c, 0, 35, 0
2, 10200, Note_on_c, 0, 28, 100
2, 10230, Note_on_c, 0, 28, 0
2, 10230, Note_on_c, 0, 30, 100
2, 10260, Note_on_c, 0, 30, 0
2, 10260, Note_on_c, 0, 28, 100
2, 10320, Note_on_c, 0, 28, 0
2, 10410, Note_on_c, 0, 35, 100
2, 10440, Note_on_c, 0, 35, 0
2, 10440, Note_on_c, 0, 28, 100
2, 10530, Note_on_c, 0, 28, 0
2, 10530, Note_on_c, 0, 28, 100
2, 10560, Note_on_c, 0, 28, 0
2, 10680, Note_on_c, 0, 30, 100
2, 10720, Note_on_c, 0, 37, 100
2, 10727, Note_on_c, 0, 30, 0
2, 10760, Note_on_c, 0, 44, 100
2, 10762, Note_on_c, 0, 37, 0
2, 10800, Note_on_c, 0, 46, 100
2, 10806, Note_on_c, 0, 44, 0
2, 10890, Note_on_c, 0, 46, 0
2, 10890, Note_on_c, 0, 37, 100
2, 10920, Note_on_c, 0, 37, 0
2, 10920, Note_on_c, 0, 30, 100
2, 11130, Note_on_c, 0, 30, 0
2, 11130, Note_on_c, 0, 42, 100
2, 11160, Note_on_c, 0, 42, 0
2, 11160, Note_on_c, 0, 30, 100
2, 11370, Note_on_c, 0, 30, 0
2, 11370, Note_on_c, 0, 37, 100
2, 11400, Note_on_c, 0, 37, 0
2, 11400, Note_on_c, 0, 30, 100
2, 11430, Note_on_c, 0, 30, 0
2, 11430, Note_on_c, 0, 32, 100
2, 11460, Note_on_c, 0, 32, 0
2, 11460, Note_on_c, 0, 30, 100
2, 11610, Note_on_c, 0, 30, 0
2, 11640, Note_on_c, 0, 31, 100
2, 11679, Note_on_c, 0, 31, 0
2, 11680, Note_on_c, 0, 38, 100
2, 11719, Note_on_c, 0, 38, 0
2, 11720, Note_on_c, 0, 45, 100
2, 11759, Note_on_c, 0, 45, 0
2, 11760, Note_on_c, 0, 47, 100
2, 11850, Note_on_c, 0, 47, 0
2, 11850, Note_on_c, 0, 38, 100
2, 11880, Note_on_c, 0, 38, 0
2, 11880, Note_on_c, 0, 31, 100
2, 12090, Note_on_c, 0, 31, 0
2, 12090, Note_on_c, 0, 38, 100
2, 12120, Note_on_c, 0, 38, 0
2, 12120, Note_on_c, 0, 47, 100
2, 12210, Note_on_c, 0, 47, 0
2, 12210, Note_on_c, 0, 45, 100
2, 12300, Note_on_c, 0, 45, 0
2, 12300, Note_on_c, 0, 43, 100
2, 12390, Note_on_c, 0, 43, 0
2, 12390, Note_on_c, 0, 40, 100
2, 12480, Note_on_c, 0, 40, 0
2, 12480, Note_on_c, 0, 38, 100
2, 12540, Note_on_c, 0, 38, 0
2, 12540, Note_on_c, 0, 35, 100
2, 12600, Note_on_c, 0, 35, 0
2, 12600, Note_on_c, 0, 33, 100
2, 12639, Note_on_c, 0, 33, 0
2, 12640, Note_on_c, 0, 40, 100
2, 12679, Note_on_c, 0, 40, 0
2, 12680, Note_on_c, 0, 47, 100
2, 12719, Note_on_c, 0, 47, 0
2, 12720, Note_on_c, 0, 49, 100
2, 12810, Note_on_c, 0, 49, 0
2, 12810, Note_on_c, 0, 40, 100
2, 12840, Note_on_c, 0, 40, 0
2, 12840, Note_on_c, 0, 33, 100
2, 12870, Note_on_c, 0, 33, 0
2, 12870, Note_on_c, 0, 35, 100
2, 12900, Note_on_c, 0, 35, 0
2, 12900, Note_on_c, 0, 33, 100
2, 13050, Note_on_c, 0, 33, 0
2, 13050, Note_on_c, 0, 40, 100
2, 13080, Note_on_c, 0, 40, 0
2, 13080, Note_on_c, 0, 33, 100
2, 13100, Note_on_c, 0, 33, 0
2, 13100, Note_on_c, 0, 35, 100
2, 13160, Note_on_c, 0, 35, 0
2, 13170, Note_on_c, 0, 33, 100
2, 13200, Note_on_c, 0, 33, 0
2, 13320, Note_on_c, 0, 35, 100
2, 13350, Note_on_c, 0, 35, 0
2, 13440, Note_on_c, 0, 42, 100
2, 13470, Note_on_c, 0, 42, 0
2, 13560, Note_on_c, 0, 28, 100
2, 13620, Note_on_c, 0, 28, 0
2, 13620, Note_on_c, 0, 28, 100
2, 13680, Note_on_c, 0, 28, 0
2, 13770, Note_on_c, 0, 35, 100
2, 13800, Note_on_c, 0, 35, 0
2, 13800, Note_on_c, 0, 40, 100
2, 13830, Note_on_c, 0, 40, 0
2, 13830, Note_on_c, 0, 42, 100
2, 13860, Note_on_c, 0, 42, 0
2, 13860, Note_on_c, 0, 40, 100
2, 13920, Note_on_c, 0, 40, 0
2, 14010, Note_on_c, 0, 35, 100
2, 14040, Note_on_c, 0, 35, 0
2, 14040, Note_on_c, 0, 28, 100
2, 14100, Note_on_c, 0, 28, 0
2, 14100, Note_on_c, 0, 28, 100
2, 14160, Note_on_c, 0, 28, 0
2, 14280, Note_on_c, 0, 35, 100
2, 14520, Note_on_c, 0, 35, 0
2, 14520, Note_on_c, 0, 32, 100
2, 14610, Note_on_c, 0, 32, 0
2, 14610, Note_on_c, 0, 32, 100
2, 14640, Note_on_c, 0, 32, 0
2, 14730, Note_on_c, 0, 39, 100
2, 14760, Note_on_c, 0, 39, 0
2, 14760, Note_on_c, 0, 32, 100
2, 14850, Note_on_c, 0, 32, 0
2, 14850, Note_on_c, 0, 32, 100
2, 14880, Note_on_c, 0, 32, 0
2, 14970, Note_on_c, 0, 39, 100
2, 15000, Note_on_c, 0, 39, 0
2, 15000, Note_on_c, 0, 32, 100
2, 15090, Note_on_c, 0, 32, 0
2, 15090, Note_on_c, 0, 32, 100
2, 15120, Note_on_c, 0, 32, 0
2, 15240, Note_on_c, 0, 42, 100
2, 15270, Note_on_c, 0, 42, 0
2, 15270, Note_on_c, 0, 40, 100
2, 15300, Note_on_c, 0, 40, 0
2, 15300, Note_on_c, 0, 37, 100
2, 15330, Note_on_c, 0, 37, 0
2, 15330, Note_on_c, 0, 36, 100
2, 15360, Note_on_c, 0, 36, 0
2, 15360, Note_on_c, 0, 35, 100
2, 15390, Note_on_c, 0, 35, 0
2, 15390, Note_on_c, 0, 32, 100
2, 15420, Note_on_c, 0, 32, 0
2, 15420, Note_on_c, 0, 30, 100
2, 15450, Note_on_c, 0, 30, 0
2, 15450, Note_on_c, 0, 29, 100
2, 15480, Note_on_c, 0, 29, 0
2, 15480, Note_on_c, 0, 28, 100
2, 15540, Note_on_c, 0, 28, 0
2, 15540, Note_on_c, 0, 28, 100
2, 15600, Note_on_c, 0, 28, 0
2, 15690, Note_on_c, 0, 35, 100
2, 15720, Note_on_c, 0, 35, 0
2, 15720, Note_on_c, 0, 40, 100
2, 15750, Note_on_c, 0, 40, 0
2, 15750, Note_on_c, 0, 42, 100
2, 15780, Note_on_c, 0, 42, 0
2, 15780, Note_on_c, 0, 40, 100
2, 15840, Note_on_c, 0, 40, 0
2, 15930, Note_on_c, 0, 35, 100
2, 15960, Note_on_c, 0, 35, 0
2, 15960, Note_on_c, 0, 28, 100
2, 16020, Note_on_c, 0, 28, 0
2, 16020, Note_on_c, 0, 28, 100
2, 16080, Note_on_c, 0, 28, 0
2, 16200, Note_on_c, 0, 35, 100
2, 16440, Note_on_c, 0, 35, 0
2, 16440, Note_on_c, 0, 32, 100
2, 16470, Note_on_c, 0, 32, 0
2, 16470, Note_on_c, 0, 32, 100
2, 16500, Note_on_c, 0, 32, 0
2, 16500, Note_on_c, 0, 30, 100
2, 16530, Note_on_c, 0, 30, 0
2, 16530, Note_on_c, 0, 32, 100
2, 16560, Note_on_c, 0, 32, 0
2, 16650, Note_on_c, 0, 30, 100
2, 16680, Note_on_c, 0, 30, 0
2, 16680, Note_on_c, 0, 32, 100
2, 16770, Note_on_c, 0, 32, 0
2, 16770, Note_on_c, 0, 32, 100
2, 16800, Note_on_c, 0, 32, 0
2, 16890, Note_on_c, 0, 39, 100
2, 16920, Note_on_c, 0, 39, 0
2, 16920, Note_on_c, 0, 32, 100
2, 17010, Note_on_c, 0, 32, 0
2, 17010, Note_on_c, 0, 32, 100
2, 17040, Note_on_c, 0, 32, 0
2, 17280, Note_on_c, 0, 35, 100
2, 17310, Note_on_c, 0, 35, 0
2, 17310, Note_on_c, 0, 37, 100
2, 17340, Note_on_c, 0, 37, 0
2, 17340, Note_on_c, 0, 35, 100
2, 17370, Note_on_c, 0, 35, 0
2, 17370, Note_on_c, 0, 30, 100
2, 17400, Note_on_c, 0, 30, 0
2, 17400, Note_on_c, 0, 28, 100
2, 17610, Note_on_c, 0, 28, 0
2, 17610, Note_on_c, 0, 35, 100
2, 17640, Note_on_c, 0, 35, 0
2, 17640, Note_on_c, 0, 40, 100
2, 17670, Note_on_c, 0, 40, 0
2, 17670, Note_on_c, 0, 42, 100
2, 17700, Note_on_c, 0, 42, 0
2, 17700, Note_on_c, 0, 44, 100
2, 17850, Note_on_c, 0, 44, 0
2, 17850, Note_on_c, 0, 35, 100
2, 17880, Note_on_c, 0, 35, 0
2, 17880, Note_on_c, 0, 28, 100
2, 17910, Note_on_c, 0, 28, 0
2, 17910, Note_on_c, 0, 30, 100
2, 17940, Note_on_c, 0, 30, 0
2, 17940, Note_on_c, 0, 28, 100
2, 18000, Note_on_c, 0, 28, 0
2, 18090, Note_on_c, 0, 35, 100
2, 18120, Note_on_c, 0, 35, 0
2, 18120, Note_on_c, 0, 28, 100
2, 18210, Note_on_c, 0, 28, 0
2, 18210, Note_on_c, 0, 28, 100
2, 18240, Note_on_c, 0, 28, 0
2, 18360, Note_on_c, 0, 30, 100
2, 18400, Note_on_c, 0, 37, 100
2, 18407, Note_on_c, 0, 30, 0
2, 18440, Note_on_c, 0, 44, 100
2, 18442, Note_on_c, 0, 37, 0
2, 18480, Note_on_c, 0, 46, 100
2, 18486, Note_on_c, 0, 44, 0
2, 18570, Note_on_c, 0, 46, 0
2, 18570, Note_on_c, 0, 37, 100
2, 18600, Note_on_c, 0, 37, 0
2, 18600, Note_on_c, 0, 30, 100
2, 18810, Note_on_c, 0, 30, 0
2, 18810, Note_on_c, 0, 42, 100
2, 18840, Note_on_c, 0, 42, 0
2, 18840, Note_on_c, 0, 30, 100
2, 19050, Note_on_c, 0, 30, 0
2, 19050, Note_on_c, 0, 37, 100
2, 19080, Note_on_c, 0, 37, 0
2, 19080, Note_on_c, 0, 30, 100
2, 19110, Note_on_c, 0, 30, 0
2, 19110, Note_on_c, 0, 32, 100
2, 19140, Note_on_c, 0, 32, 0
2, 19140, Note_on_c, 0, 30, 100
2, 19290, Note_on_c, 0, 30, 0
2, 19320, Note_on_c, 0, 31, 100
2, 19359, Note_on_c, 0, 31, 0
2, 19360, Note_on_c, 0, 38, 100
2, 19399, Note_on_c, 0, 38, 0
2, 19400, Note_on_c, 0, 45, 100
2, 19439, Note_on_c, 0, 45, 0
2, 19440, Note_on_c, 0, 47, 100
2, 19530, Note_on_c, 0, 47, 0
2, 19530, Note_on_c, 0, 38, 100
2, 19560, Note_on_c, 0, 38, 0
2, 19560, Note_on_c, 0, 31, 100
2, 19770, Note_on_c, 0, 31, 0
2, 19770, Note_on_c, 0, 38, 100
2, 19800, Note_on_c, 0, 38, 0
2, 19800, Note_on_c, 0, 47, 100
2, 19890, Note_on_c, 0, 47, 0
2, 19890, Note_on_c, 0, 45, 100
2, 19980, Note_on_c, 0, 45, 0
2, 19980, Note_on_c, 0, 43, 100
2, 20070, Note_on_c, 0, 43, 0
2, 20070, Note_on_c, 0, 40, 100
2, 20160, Note_on_c, 0, 40, 0
2, 20160, Note_on_c, 0, 38, 100
2, 20220, Note_on_c, 0, 38, 0
2, 20220, Note_on_c, 0, 35, 100
2, 20280, Note_on_c, 0, 35, 0
2, 20280, Note_on_c, 0, 33, 100
2, 20319, Note_on_c, 0, 33, 0
2, 20320, Note_on_c, 0, 40, 100
2, 20359, Note_on_c, 0, 40, 0
2, 20360, Note_on_c, 0, 47, 100
2, 20399, Note_on_c, 0, 47, 0
2, 20400, Note_on_c, 0, 49, 100
2, 20490, Note_on_c, 0, 49, 0
2, 20490, Note_on_c, 0, 40, 100
2, 20520, Note_on_c, 0, 40, 0
2, 20520, Note_on_c, 0, 33, 100
2, 20550, Note_on_c, 0, 33, 0
2, 20550, Note_on_c, 0, 35, 100
2, 20580, Note_on_c, 0, 35, 0
2, 20580, Note_on_c, 0, 33, 100
2, 20730, Note_on_c, 0, 33, 0
2, 20730, Note_on_c, 0, 40, 100
2, 20760, Note_on_c, 0, 40, 0
2, 20760, Note_on_c, 0, 33, 100
2, 20780, Note_on_c, 0, 33, 0
2, 20780, Note_on_c, 0, 35, 100
2, 20840, Note_on_c, 0, 35, 0
2, 20850, Note_on_c, 0, 33, 100
2, 20880, Note_on_c, 0, 33, 0
2, 20972, Note_on_c, 0, 33, 100
2, 21002, Note_on_c, 0, 33, 0
2, 21002, Note_on_c, 0, 33, 100
2, 21242, Note_on_c, 0, 33, 0
2, 21242, Note_on_c, 0, 32, 100
2, 21272, Note_on_c, 0, 32, 0
2, 21360, Note_on_c, 0, 32, 100
2, 21420, Note_on_c, 0, 32, 0
2, 21540, Note_on_c, 0, 27, 100
2, 21630, Note_on_c, 0, 27, 0
2, 21630, Note_on_c, 0, 30, 100
2, 21720, Note_on_c, 0, 30, 0
2, 21720, Note_on_c, 0, 39, 100
2, 21810, Note_on_c, 0, 39, 0
2, 21810, Note_on_c, 0, 37, 100
2, 21900, Note_on_c, 0, 37, 0
2, 21900, Note_on_c, 0, 34, 100
2, 21990, Note_on_c, 0, 34, 0
2, 21990, Note_on_c, 0, 32, 100
2, 22080, Note_on_c, 0, 32, 0
2, 22080, Note_on_c, 0, 30, 100
2, 22170, Note_on_c, 0, 30, 0
2, 22170, Note_on_c, 0, 31, 100
2, 22200, Note_on_c, 0, 31, 0
2, 22200, Note_on_c, 0, 33, 100
2, 22230, Note_on_c, 0, 33, 0
2, 22320, Note_on_c, 0, 33, 100
2, 22440, Note_on_c, 0, 33, 0
2, 22680, Note_on_c, 0, 33, 100
2, 22710, Note_on_c, 0, 33, 0
2, 22775, Note_on_c, 0, 33, 100
2, 22800, Note_on_c, 0, 33, 0
2, 22800, Note_on_c, 0, 30, 100
2, 22830, Note_on_c, 0, 30, 0
2, 22835, Note_on_c, 0, 30, 100
2, 22860, Note_on_c, 0, 30, 0
2, 22860, Note_on_c, 0, 28, 100
2, 22890, Note_on_c, 0, 28, 0
2, 23075, Note_on_c, 0, 37, 100
2, 23099, Note_on_c, 0, 37, 0
2, 23100, Note_on_c, 0, 35, 100
2, 23125, Note_on_c, 0, 35, 0
2, 23140, Note_on_c, 0, 28, 100
2, 23160, Note_on_c, 0, 28, 0
2, 23160, Note_on_c, 0, 33, 100
2, 23190, Note_on_c, 0, 33, 0
2, 23255, Note_on_c, 0, 33, 100
2, 23280, Note_on_c, 0, 33, 0
2, 23280, Note_on_c, 0, 30, 100
2, 23310, Note_on_c, 0, 30, 0
2, 23315, Note_on_c, 0, 30, 100
2, 23340, Note_on_c, 0, 30, 0
2, 23340, Note_on_c, 0, 28, 100
2, 23370, Note_on_c, 0, 28, 0
2, 23555, Note_on_c, 0, 37, 100
2, 23579, Note_on_c, 0, 37, 0
2, 23580, Note_on_c, 0, 35, 100
2, 23600, Note_on_c, 0, 35, 0
2, 23620, Note_on_c, 0, 28, 100
2, 23640, Note_on_c, 0, 28, 0
2, 23640, End_track
3, 0, Start_track
3, 0, MIDI_port, 0
3, 0, Title_t, "Drums"
3, 0, Control_c, 9, 0, 0
3, 0, Program_c, 9, 0
3, 0, Control_c, 9, 7, 100
3, 0, Control_c, 9, 10, 64
3, 240, Note_on_c, 9, 44, 100
3, 255, Note_on_c, 9, 44, 0
3, 360, Note_on_c, 9, 44, 100
3, 375, Note_on_c, 9, 44, 0
3, 480, Note_on_c, 9, 44, 100
3, 495, Note_on_c, 9, 44, 0
3, 600, Note_on_c, 9, 35, 80
3, 602, Note_on_c, 9, 40, 100
3, 615, Note_on_c, 9, 35, 0
3, 632, Note_on_c, 9, 40, 0
3, 692, Note_on_c, 9, 35, 100
3, 722, Note_on_c, 9, 35, 0
3, 722, Note_on_c, 9, 40, 100
3, 722, Note_on_c, 9, 35, 100
3, 752, Note_on_c, 9, 35, 0
3, 752, Note_on_c, 9, 40, 0
3, 752, Note_on_c, 9, 40, 100
3, 782, Note_on_c, 9, 40, 0
3, 782, Note_on_c, 9, 43, 100
3, 812, Note_on_c, 9, 43, 0
3, 812, Note_on_c, 9, 43, 100
3, 842, Note_on_c, 9, 43, 0
3, 842, Note_on_c, 9, 41, 100
3, 872, Note_on_c, 9, 41, 0
3, 902, Note_on_c, 9, 41, 100
3, 932, Note_on_c, 9, 41, 0
3, 960, Note_on_c, 9, 57, 80
3, 962, Note_on_c, 9, 35, 100
3, 975, Note_on_c, 9, 57, 0
3, 992, Note_on_c, 9, 35, 0
3, 1020, Note_on_c, 9, 49, 80
3, 1022, Note_on_c, 9, 35, 100
3, 1035, Note_on_c, 9, 49, 0
3, 1052, Note_on_c, 9, 35, 0
3, 1080, Note_on_c, 9, 44, 65
3, 1080, Note_on_c, 9, 51, 100
3, 1082, Note_on_c, 9, 40, 100
3, 1095, Note_on_c, 9, 51, 0
3, 1110, Note_on_c, 9, 44, 0
3, 1110, Note_on_c, 9, 51, 55
3, 1112, Note_on_c, 9, 40, 0
3, 1125, Note_on_c, 9, 51, 0
3, 1140, Note_on_c, 9, 44, 65
3, 1140, Note_on_c, 9, 51, 100
3, 1155, Note_on_c, 9, 51, 0
3, 1170, Note_on_c, 9, 44, 0
3, 1170, Note_on_c, 9, 51, 55
3, 1172, Note_on_c, 9, 35, 60
3, 1185, Note_on_c, 9, 51, 0
3, 1200, Note_on_c, 9, 44, 65
3, 1200, Note_on_c, 9, 51, 100
3, 1202, Note_on_c, 9, 35, 0
3, 1202, Note_on_c, 9, 35, 100
3, 1215, Note_on_c, 9, 51, 0
3, 1230, Note_on_c, 9, 44, 0
3, 1230, Note_on_c, 9, 51, 55
3, 1232, Note_on_c, 9, 35, 0
3, 1245, Note_on_c, 9, 51, 0
3, 1260, Note_on_c, 9, 51, 100
3, 1260, Note_on_c, 9, 44, 65
3, 1262, Note_on_c, 9, 35, 100
3, 1275, Note_on_c, 9, 51, 0
3, 1290, Note_on_c, 9, 44, 0
3, 1290, Note_on_c, 9, 51, 55
3, 1292, Note_on_c, 9, 35, 0
3, 1305, Note_on_c, 9, 51, 0
3, 1320, Note_on_c, 9, 44, 65
3, 1320, Note_on_c, 9, 51, 100
3, 1322, Note_on_c, 9, 40, 100
3, 1335, Note_on_c, 9, 51, 0
3, 1350, Note_on_c, 9, 44, 0
3, 1350, Note_on_c, 9, 51, 55
3, 1352, Note_on_c, 9, 40, 0
3, 1365, Note_on_c, 9, 51, 0
3, 1380, Note_on_c, 9, 44, 65
3, 1380, Note_on_c, 9, 51, 100
3, 1395, Note_on_c, 9, 51, 0
3, 1410, Note_on_c, 9, 44, 0
3, 1410, Note_on_c, 9, 51, 55
3, 1410, Note_on_c, 9, 35, 60
3, 1425, Note_on_c, 9, 51, 0
3, 1440, Note_on_c, 9, 35, 0
3, 1440, Note_on_c, 9, 44, 65
3, 1440, Note_on_c, 9, 51, 100
3, 1440, Note_on_c, 9, 35, 100
3, 1455, Note_on_c, 9, 51, 0
3, 1470, Note_on_c, 9, 35, 0
3, 1470, Note_on_c, 9, 44, 0
3, 1470, Note_on_c, 9, 51, 55
3, 1485, Note_on_c, 9, 51, 0
3, 1500, Note_on_c, 9, 44, 65
3, 1500, Note_on_c, 9, 51, 100
3, 1500, Note_on_c, 9, 35, 100
3, 1515, Note_on_c, 9, 51, 0
3, 1530, Note_on_c, 9, 35, 0
3, 1530, Note_on_c, 9, 44, 0
3, 1530, Note_on_c, 9, 51, 55
3, 1545, Note_on_c, 9, 51, 0
3, 1560, Note_on_c, 9, 44, 65
3, 1560, Note_on_c, 9, 51, 100
3, 1560, Note_on_c, 9, 40, 100
3, 1575, Note_on_c, 9, 51, 0
3, 1590, Note_on_c, 9, 40, 0
3, 1590, Note_on_c, 9, 44, 0
3, 1590, Note_on_c, 9, 51, 55
3, 1605, Note_on_c, 9, 51, 0
3, 1620, Note_on_c, 9, 44, 65
3, 1620, Note_on_c, 9, 51, 80
3, 1635, Note_on_c, 9, 51, 0
3, 1650, Note_on_c, 9, 44, 0
3, 1651, Note_on_c, 9, 35, 55
3, 1680, Note_on_c, 9, 44, 65
3, 1680, Note_on_c, 9, 40, 100
3, 1681, Note_on_c, 9, 35, 0
3, 1710, Note_on_c, 9, 40, 0
3, 1710, Note_on_c, 9, 44, 0
3, 1710, Note_on_c, 9, 45, 100
3, 1740, Note_on_c, 9, 45, 0
3, 1740, Note_on_c, 9, 44, 65
3, 1740, Note_on_c, 9, 43, 100
3, 1770, Note_on_c, 9, 43, 0
3, 1770, Note_on_c, 9, 44, 0
3, 1770, Note_on_c, 9, 43, 100
3, 1800, Note_on_c, 9, 43, 0
3, 1800, Note_on_c, 9, 44, 65
3, 1800, Note_on_c, 9, 40, 60
3, 1805, Note_on_c, 9, 40, 100
3, 1830, Note_on_c, 9, 40, 0
3, 1830, Note_on_c, 9, 44, 0
3, 1835, Note_on_c, 9, 40, 0
3, 1890, Note_on_c, 9, 35, 100
3, 1920, Note_on_c, 9, 35, 0
3, 1922, Note_on_c, 9, 40, 100
3, 1922, Note_on_c, 9, 35, 100
3, 1952, Note_on_c, 9, 35, 0
3, 1952, Note_on_c, 9, 40, 0
3, 1952, Note_on_c, 9, 40, 100
3, 1982, Note_on_c, 9, 40, 0
3, 1982, Note_on_c, 9, 43, 100
3, 2012, Note_on_c, 9, 43, 0
3, 2012, Note_on_c, 9, 43, 100
3, 2042, Note_on_c, 9, 43, 0
3, 2042, Note_on_c, 9, 41, 100
3, 2072, Note_on_c, 9, 41, 0
3, 2102, Note_on_c, 9, 41, 100
3, 2132, Note_on_c, 9, 41, 0
3, 2160, Note_on_c, 9, 57, 100
3, 2162, Note_on_c, 9, 35, 100
3, 2175, Note_on_c, 9, 57, 0
3, 2192, Note_on_c, 9, 35, 0
3, 2220, Note_on_c, 9, 49, 80
3, 2222, Note_on_c, 9, 35, 100
3, 2235, Note_on_c, 9, 49, 0
3, 2252, Note_on_c, 9, 35, 0
3, 2280, Note_on_c, 9, 51, 100
3, 2282, Note_on_c, 9, 40, 100
3, 2295, Note_on_c, 9, 51, 0
3, 2310, Note_on_c, 9, 51, 55
3, 2312, Note_on_c, 9, 40, 0
3, 2325, Note_on_c, 9, 51, 0
3, 2340, Note_on_c, 9, 44, 65
3, 2340, Note_on_c, 9, 51, 80
3, 2355, Note_on_c, 9, 51, 0
3, 2370, Note_on_c, 9, 44, 0
3, 2370, Note_on_c, 9, 52, 100
3, 2372, Note_on_c, 9, 35, 100
3, 2385, Note_on_c, 9, 52, 0
3, 2400, Note_on_c, 9, 44, 65
3, 2400, Note_on_c, 9, 57, 65
3, 2400, Note_on_c, 9, 35, 100
3, 2402, Note_on_c, 9, 35, 0
3, 2415, Note_on_c, 9, 57, 0
3, 2430, Note_on_c, 9, 44, 0
3, 2430, Note_on_c, 9, 35, 0
3, 2430, Note_on_c, 9, 51, 55
3, 2445, Note_on_c, 9, 51, 0
3, 2460, Note_on_c, 9, 44, 65
3, 2460, Note_on_c, 9, 51, 80
3, 2462, Note_on_c, 9, 35, 100
3, 2475, Note_on_c, 9, 51, 0
3, 2490, Note_on_c, 9, 44, 0
3, 2490, Note_on_c, 9, 51, 55
3, 2492, Note_on_c, 9, 35, 0
3, 2505, Note_on_c, 9, 51, 0
3, 2520, Note_on_c, 9, 44, 65
3, 2520, Note_on_c, 9, 51, 80
3, 2522, Note_on_c, 9, 40, 100
3, 2535, Note_on_c, 9, 51, 0
3, 2550, Note_on_c, 9, 44, 0
3, 2550, Note_on_c, 9, 51, 55
3, 2552, Note_on_c, 9, 40, 0
3, 2565, Note_on_c, 9, 51, 0
3, 2580, Note_on_c, 9, 44, 65
3, 2580, Note_on_c, 9, 51, 80
3, 2595, Note_on_c, 9, 51, 0
3, 2610, Note_on_c, 9, 44, 0
3, 2610, Note_on_c, 9, 52, 80
3, 2610, Note_on_c, 9, 35, 100
3, 2625, Note_on_c, 9, 52, 0
3, 2640, Note_on_c, 9, 35, 0
3, 2640, Note_on_c, 9, 44, 65
3, 2640, Note_on_c, 9, 57, 65
3, 2640, Note_on_c, 9, 35, 100
3, 2655, Note_on_c, 9, 57, 0
3, 2670, Note_on_c, 9, 35, 0
3, 2670, Note_on_c, 9, 44, 0
3, 2670, Note_on_c, 9, 51, 55
3, 2685, Note_on_c, 9, 51, 0
3, 2700, Note_on_c, 9, 35, 100
3, 2700, Note_on_c, 9, 55, 80
3, 2700, Note_on_c, 9, 44, 65
3, 2715, Note_on_c, 9, 55, 0
3, 2730, Note_on_c, 9, 44, 0
3, 2730, Note_on_c, 9, 35, 0
3, 2730, Note_on_c, 9, 51, 100
3, 2745, Note_on_c, 9, 51, 0
3, 2760, Note_on_c, 9, 44, 65
3, 2760, Note_on_c, 9, 51, 80
3, 2760, Note_on_c, 9, 40, 100
3, 2775, Note_on_c, 9, 51, 0
3, 2790, Note_on_c, 9, 40, 0
3, 2790, Note_on_c, 9, 44, 0
3, 2790, Note_on_c, 9, 51, 55
3, 2805, Note_on_c, 9, 51, 0
3, 2820, Note_on_c, 9, 44, 65
3, 2820, Note_on_c, 9, 51, 80
3, 2835, Note_on_c, 9, 51, 0
3, 2850, Note_on_c, 9, 44, 0
3, 2850, Note_on_c, 9, 35, 60
3, 2880, Note_on_c, 9, 35, 0
3, 2880, Note_on_c, 9, 44, 65
3, 2880, Note_on_c, 9, 40, 100
3, 2910, Note_on_c, 9, 40, 0
3, 2910, Note_on_c, 9, 44, 0
3, 2910, Note_on_c, 9, 40, 100
3, 2940, Note_on_c, 9, 40, 0
3, 2940, Note_on_c, 9, 44, 65
3, 2940, Note_on_c, 9, 43, 100
3, 2970, Note_on_c, 9, 43, 0
3, 2970, Note_on_c, 9, 44, 0
3, 2970, Note_on_c, 9, 43, 100
3, 3000, Note_on_c, 9, 43, 0
3, 3000, Note_on_c, 9, 44, 65
3, 3000, Note_on_c, 9, 45, 100
3, 3030, Note_on_c, 9, 45, 0
3, 3030, Note_on_c, 9, 44, 0
3, 3090, Note_on_c, 9, 35, 100
3, 3120, Note_on_c, 9, 35, 0
3, 3122, Note_on_c, 9, 40, 100
3, 3122, Note_on_c, 9, 35, 100
3, 3152, Note_on_c, 9, 35, 0
3, 3152, Note_on_c, 9, 40, 0
3, 3152, Note_on_c, 9, 40, 100
3, 3182, Note_on_c, 9, 40, 0
3, 3182, Note_on_c, 9, 43, 100
3, 3212, Note_on_c, 9, 43, 0
3, 3212, Note_on_c, 9, 43, 100
3, 3242, Note_on_c, 9, 43, 0
3, 3242, Note_on_c, 9, 41, 100
3, 3272, Note_on_c, 9, 41, 0
3, 3302, Note_on_c, 9, 41, 100
3, 3332, Note_on_c, 9, 41, 0
3, 3360, Note_on_c, 9, 57, 80
3, 3362, Note_on_c, 9, 35, 100
3, 3375, Note_on_c, 9, 57, 0
3, 3392, Note_on_c, 9, 35, 0
3, 3420, Note_on_c, 9, 57, 80
3, 3422, Note_on_c, 9, 35, 100
3, 3435, Note_on_c, 9, 57, 0
3, 3452, Note_on_c, 9, 35, 0
3, 3580, Note_on_c, 9, 35, 60
3, 3595, Note_on_c, 9, 35, 0
3, 3600, Note_on_c, 9, 40, 70
3, 3615, Note_on_c, 9, 40, 0
3, 3620, Note_on_c, 9, 48, 55
3, 3635, Note_on_c, 9, 48, 0
3, 3640, Note_on_c, 9, 45, 70
3, 3655, Note_on_c, 9, 45, 0
3, 3660, Note_on_c, 9, 48, 55
3, 3675, Note_on_c, 9, 48, 0
3, 3680, Note_on_c, 9, 47, 60
3, 3695, Note_on_c, 9, 47, 0
3, 3700, Note_on_c, 9, 50, 60
3, 3715, Note_on_c, 9, 50, 0
3, 3720, Note_on_c, 9, 48, 55
3, 3735, Note_on_c, 9, 48, 0
3, 3740, Note_on_c, 9, 40, 80
3, 3755, Note_on_c, 9, 40, 0
3, 3760, Note_on_c, 9, 47, 55
3, 3775, Note_on_c, 9, 47, 0
3, 3780, Note_on_c, 9, 45, 55
3, 3795, Note_on_c, 9, 45, 0
3, 3800, Note_on_c, 9, 43, 55
3, 3815, Note_on_c, 9, 43, 0
3, 3820, Note_on_c, 9, 43, 55
3, 3835, Note_on_c, 9, 43, 0
3, 3840, Note_on_c, 9, 57, 80
3, 3840, Note_on_c, 9, 35, 80
3, 3855, Note_on_c, 9, 35, 0
3, 3855, Note_on_c, 9, 57, 0
3, 3960, Note_on_c, 9, 52, 100
3, 3960, Note_on_c, 9, 35, 100
3, 3990, Note_on_c, 9, 35, 0
3, 3990, Note_on_c, 9, 52, 0
3, 4080, Note_on_c, 9, 35, 100
3, 4080, Note_on_c, 9, 52, 100
3, 4110, Note_on_c, 9, 52, 0
3, 4110, Note_on_c, 9, 35, 0
3, 4200, Note_on_c, 9, 52, 100
3, 4200, Note_on_c, 9, 35, 100
3, 4230, Note_on_c, 9, 35, 0
3, 4230, Note_on_c, 9, 52, 0
3, 4240, Note_on_c, 9, 40, 60
3, 4245, Note_on_c, 9, 40, 100
3, 4255, Note_on_c, 9, 40, 0
3, 4260, Note_on_c, 9, 40, 0
3, 4286, Note_on_c, 9, 50, 60
3, 4290, Note_on_c, 9, 50, 80
3, 4301, Note_on_c, 9, 50, 0
3, 4305, Note_on_c, 9, 50, 0
3, 4335, Note_on_c, 9, 45, 80
3, 4350, Note_on_c, 9, 45, 0
3, 4380, Note_on_c, 9, 48, 80
3, 4395, Note_on_c, 9, 48, 0
3, 4440, Note_on_c, 9, 55, 80
3, 4455, Note_on_c, 9, 55, 0
3, 4520, Note_on_c, 9, 41, 80
3, 4535, Note_on_c, 9, 41, 0
3, 4540, Note_on_c, 9, 41, 80
3, 4555, Note_on_c, 9, 41, 0
3, 4560, Note_on_c, 9, 35, 100
3, 4560, Note_on_c, 9, 49, 100
3, 4575, Note_on_c, 9, 49, 0
3, 4575, Note_on_c, 9, 35, 0
3, 4680, Note_on_c, 9, 35, 100
3, 4680, Note_on_c, 9, 57, 100
3, 4695, Note_on_c, 9, 35, 0
3, 4710, Note_on_c, 9, 57, 0
3, 4800, Note_on_c, 9, 49, 100
3, 4800, Note_on_c, 9, 35, 100
3, 4830, Note_on_c, 9, 35, 0
3, 4830, Note_on_c, 9, 49, 0
3, 4920, Note_on_c, 9, 57, 100
3, 4920, Note_on_c, 9, 35, 100
3, 4950, Note_on_c, 9, 35, 0
3, 4950, Note_on_c, 9, 57, 0
3, 5040, Note_on_c, 9, 51, 100
3, 5040, Note_on_c, 9, 40, 100
3, 5041, Note_on_c, 9, 44, 55
3, 5070, Note_on_c, 9, 40, 0
3, 5070, Note_on_c, 9, 51, 0
3, 5070, Note_on_c, 9, 51, 55
3, 5071, Note_on_c, 9, 44, 0
3, 5100, Note_on_c, 9, 51, 0
3, 5100, Note_on_c, 9, 51, 100
3, 5100, Note_on_c, 9, 45, 100
3, 5100, Note_on_c, 9, 44, 55
3, 5130, Note_on_c, 9, 44, 0
3, 5130, Note_on_c, 9, 45, 0
3, 5130, Note_on_c, 9, 51, 0
3, 5130, Note_on_c, 9, 43, 100
3, 5131, Note_on_c, 9, 51, 55
3, 5160, Note_on_c, 9, 43, 0
3, 5160, Note_on_c, 9, 44, 65
3, 5160, Note_on_c, 9, 51, 80
3, 5160, Note_on_c, 9, 35, 100
3, 5161, Note_on_c, 9, 51, 0
3, 5175, Note_on_c, 9, 51, 0
3, 5190, Note_on_c, 9, 44, 0
3, 5190, Note_on_c, 9, 35, 0
3, 5190, Note_on_c, 9, 51, 55
3, 5205, Note_on_c, 9, 51, 0
3, 5220, Note_on_c, 9, 44, 65
3, 5220, Note_on_c, 9, 51, 80
3, 5220, Note_on_c, 9, 35, 100
3, 5235, Note_on_c, 9, 51, 0
3, 5250, Note_on_c, 9, 35, 0
3, 5250, Note_on_c, 9, 44, 0
3, 5250, Note_on_c, 9, 51, 55
3, 5265, Note_on_c, 9, 51, 0
3, 5280, Note_on_c, 9, 44, 65
3, 5280, Note_on_c, 9, 51, 80
3, 5280, Note_on_c, 9, 40, 100
3, 5295, Note_on_c, 9, 51, 0
3, 5310, Note_on_c, 9, 40, 0
3, 5310, Note_on_c, 9, 44, 0
3, 5310, Note_on_c, 9, 51, 55
3, 5325, Note_on_c, 9, 51, 0
3, 5340, Note_on_c, 9, 44, 65
3, 5340, Note_on_c, 9, 51, 80
3, 5355, Note_on_c, 9, 51, 0
3, 5370, Note_on_c, 9, 44, 0
3, 5370, Note_on_c, 9, 51, 55
3, 5370, Note_on_c, 9, 35, 100
3, 5385, Note_on_c, 9, 51, 0
3, 5400, Note_on_c, 9, 35, 0
3, 5400, Note_on_c, 9, 51, 80
3, 5400, Note_on_c, 9, 44, 65
3, 5400, Note_on_c, 9, 35, 100
3, 5415, Note_on_c, 9, 51, 0
3, 5430, Note_on_c, 9, 35, 0
3, 5430, Note_on_c, 9, 44, 0
3, 5430, Note_on_c, 9, 51, 55
3, 5445, Note_on_c, 9, 51, 0
3, 5460, Note_on_c, 9, 44, 65
3, 5460, Note_on_c, 9, 51, 80
3, 5460, Note_on_c, 9, 35, 100
3, 5475, Note_on_c, 9, 51, 0
3, 5490, Note_on_c, 9, 35, 0
3, 5490, Note_on_c, 9, 44, 0
3, 5490, Note_on_c, 9, 51, 55
3, 5505, Note_on_c, 9, 51, 0
3, 5520, Note_on_c, 9, 44, 65
3, 5520, Note_on_c, 9, 51, 80
3, 5520, Note_on_c, 9, 40, 100
3, 5535, Note_on_c, 9, 51, 0
3, 5550, Note_on_c, 9, 40, 0
3, 5550, Note_on_c, 9, 44, 0
3, 5640, Note_on_c, 9, 35, 100
3, 5640, Note_on_c, 9, 57, 100
3, 5670, Note_on_c, 9, 57, 0
3, 5670, Note_on_c, 9, 35, 0
3, 5700, Note_on_c, 9, 48, 100
3, 5730, Note_on_c, 9, 48, 0
3, 5730, Note_on_c, 9, 47, 100
3, 5760, Note_on_c, 9, 47, 0
3, 5760, Note_on_c, 9, 49, 70
3, 5760, Note_on_c, 9, 35, 100
3, 5790, Note_on_c, 9, 35, 0
3, 5790, Note_on_c, 9, 49, 0
3, 5820, Note_on_c, 9, 45, 100
3, 5835, Note_on_c, 9, 45, 100
3, 5850, Note_on_c, 9, 45, 0
3, 5850, Note_on_c, 9, 43, 100
3, 5865, Note_on_c, 9, 45, 0
3, 5865, Note_on_c, 9, 43, 100
3, 5880, Note_on_c, 9, 43, 0
3, 5880, Note_on_c, 9, 52, 100
3, 5880, Note_on_c, 9, 57, 100
3, 5880, Note_on_c, 9, 35, 100
3, 5895, Note_on_c, 9, 43, 0
3, 5910, Note_on_c, 9, 52, 0
3, 5910, Note_on_c, 9, 57, 0
3, 5910, Note_on_c, 9, 35, 0
3, 5940, Note_on_c, 9, 35, 100
3, 5940, Note_on_c, 9, 51, 80
3, 5940, Note_on_c, 9, 44, 65
3, 5955, Note_on_c, 9, 51, 0
3, 5970, Note_on_c, 9, 44, 0
3, 5970, Note_on_c, 9, 35, 0
3, 5970, Note_on_c, 9, 51, 55
3, 5985, Note_on_c, 9, 51, 0
3, 6000, Note_on_c, 9, 44, 65
3, 6000, Note_on_c, 9, 51, 80
3, 6000, Note_on_c, 9, 40, 100
3, 6015, Note_on_c, 9, 51, 0
3, 6030, Note_on_c, 9, 40, 0
3, 6030, Note_on_c, 9, 44, 0
3, 6030, Note_on_c, 9, 51, 55
3, 6045, Note_on_c, 9, 51, 0
3, 6060, Note_on_c, 9, 44, 65
3, 6060, Note_on_c, 9, 51, 80
3, 6075, Note_on_c, 9, 51, 0
3, 6090, Note_on_c, 9, 44, 0
3, 6090, Note_on_c, 9, 51, 55
3, 6090, Note_on_c, 9, 35, 60
3, 6105, Note_on_c, 9, 51, 0
3, 6120, Note_on_c, 9, 35, 0
3, 6120, Note_on_c, 9, 44, 65
3, 6120, Note_on_c, 9, 51, 80
3, 6120, Note_on_c, 9, 35, 100
3, 6135, Note_on_c, 9, 51, 0
3, 6150, Note_on_c, 9, 35, 0
3, 6150, Note_on_c, 9, 44, 0
3, 6150, Note_on_c, 9, 51, 55
3, 6165, Note_on_c, 9, 51, 0
3, 6180, Note_on_c, 9, 44, 65
3, 6180, Note_on_c, 9, 35, 100
3, 6180, Note_on_c, 9, 51, 80
3, 6195, Note_on_c, 9, 51, 0
3, 6210, Note_on_c, 9, 35, 0
3, 6210, Note_on_c, 9, 44, 0
3, 6210, Note_on_c, 9, 35, 100
3, 6210, Note_on_c, 9, 51, 55
3, 6225, Note_on_c, 9, 51, 0
3, 6240, Note_on_c, 9, 35, 0
3, 6240, Note_on_c, 9, 44, 65
3, 6240, Note_on_c, 9, 51, 80
3, 6240, Note_on_c, 9, 40, 100
3, 6255, Note_on_c, 9, 51, 0
3, 6270, Note_on_c, 9, 40, 0
3, 6270, Note_on_c, 9, 44, 0
3, 6270, Note_on_c, 9, 51, 55
3, 6270, Note_on_c, 9, 35, 100
3, 6285, Note_on_c, 9, 51, 0
3, 6300, Note_on_c, 9, 35, 0
3, 6300, Note_on_c, 9, 44, 65
3, 6300, Note_on_c, 9, 51, 80
3, 6315, Note_on_c, 9, 51, 0
3, 6330, Note_on_c, 9, 44, 0
3, 6330, Note_on_c, 9, 51, 55
3, 6330, Note_on_c, 9, 35, 60
3, 6345, Note_on_c, 9, 51, 0
3, 6360, Note_on_c, 9, 35, 0
3, 6360, Note_on_c, 9, 44, 65
3, 6360, Note_on_c, 9, 51, 80
3, 6360, Note_on_c, 9, 35, 100
3, 6375, Note_on_c, 9, 51, 0
3, 6390, Note_on_c, 9, 35, 0
3, 6390, Note_on_c, 9, 44, 0
3, 6390, Note_on_c, 9, 51, 55
3, 6405, Note_on_c, 9, 51, 0
3, 6420, Note_on_c, 9, 51, 80
3, 6420, Note_on_c, 9, 35, 100
3, 6420, Note_on_c, 9, 44, 65
3, 6435, Note_on_c, 9, 51, 0
3, 6450, Note_on_c, 9, 44, 0
3, 6450, Note_on_c, 9, 35, 0
3, 6450, Note_on_c, 9, 35, 100
3, 6450, Note_on_c, 9, 51, 55
3, 6465, Note_on_c, 9, 51, 0
3, 6480, Note_on_c, 9, 35, 0
3, 6480, Note_on_c, 9, 44, 65
3, 6480, Note_on_c, 9, 40, 100
3, 6480, Note_on_c, 9, 51, 80
3, 6495, Note_on_c, 9, 51, 0
3, 6510, Note_on_c, 9, 40, 0
3, 6510, Note_on_c, 9, 44, 0
3, 6510, Note_on_c, 9, 42, 60
3, 6520, Note_on_c, 9, 42, 60
3, 6525, Note_on_c, 9, 42, 0
3, 6530, Note_on_c, 9, 42, 60
3, 6535, Note_on_c, 9, 42, 0
3, 6540, Note_on_c, 9, 46, 100
3, 6545, Note_on_c, 9, 42, 0
3, 6555, Note_on_c, 9, 46, 0
3, 6600, Note_on_c, 9, 52, 100
3, 6600, Note_on_c, 9, 35, 100
3, 6630, Note_on_c, 9, 35, 0
3, 6630, Note_on_c, 9, 52, 0
3, 6720, Note_on_c, 9, 50, 100
3, 6750, Note_on_c, 9, 50, 0
3, 6750, Note_on_c, 9, 47, 100
3, 6780, Note_on_c, 9, 47, 0
3, 6810, Note_on_c, 9, 55, 100
3, 6840, Note_on_c, 9, 55, 0
3, 6840, Note_on_c, 9, 35, 100
3, 6840, Note_on_c, 9, 57, 100
3, 6870, Note_on_c, 9, 57, 0
3, 6870, Note_on_c, 9, 35, 0
3, 6900, Note_on_c, 9, 44, 65
3, 6900, Note_on_c, 9, 51, 80
3, 6900, Note_on_c, 9, 35, 100
3, 6915, Note_on_c, 9, 51, 0
3, 6915, Note_on_c, 9, 44, 0
3, 6930, Note_on_c, 9, 35, 0
3, 6930, Note_on_c, 9, 35, 100
3, 6930, Note_on_c, 9, 51, 55
3, 6945, Note_on_c, 9, 51, 0
3, 6960, Note_on_c, 9, 35, 0
3, 6960, Note_on_c, 9, 44, 65
3, 6960, Note_on_c, 9, 51, 80
3, 6960, Note_on_c, 9, 40, 100
3, 6975, Note_on_c, 9, 51, 0
3, 6975, Note_on_c, 9, 44, 0
3, 6990, Note_on_c, 9, 40, 0
3, 6990, Note_on_c, 9, 51, 55
3, 7005, Note_on_c, 9, 51, 0
3, 7020, Note_on_c, 9, 44, 65
3, 7020, Note_on_c, 9, 51, 80
3, 7035, Note_on_c, 9, 51, 0
3, 7035, Note_on_c, 9, 44, 0
3, 7050, Note_on_c, 9, 51, 55
3, 7050, Note_on_c, 9, 35, 60
3, 7065, Note_on_c, 9, 51, 0
3, 7080, Note_on_c, 9, 35, 0
3, 7080, Note_on_c, 9, 44, 65
3, 7080, Note_on_c, 9, 35, 100
3, 7080, Note_on_c, 9, 51, 80
3, 7095, Note_on_c, 9, 51, 0
3, 7095, Note_on_c, 9, 44, 0
3, 7110, Note_on_c, 9, 35, 0
3, 7110, Note_on_c, 9, 51, 55
3, 7125, Note_on_c, 9, 51, 0
3, 7140, Note_on_c, 9, 44, 65
3, 7140, Note_on_c, 9, 51, 80
3, 7140, Note_on_c, 9, 35, 100
3, 7155, Note_on_c, 9, 51, 0
3, 7155, Note_on_c, 9, 44, 0
3, 7170, Note_on_c, 9, 35, 0
3, 7170, Note_on_c, 9, 51, 55
3, 7170, Note_on_c, 9, 35, 100
3, 7185, Note_on_c, 9, 51, 0
3, 7200, Note_on_c, 9, 35, 0
3, 7200, Note_on_c, 9, 44, 65
3, 7200, Note_on_c, 9, 51, 80
3, 7200, Note_on_c, 9, 40, 100
3, 7215, Note_on_c, 9, 51, 0
3, 7215, Note_on_c, 9, 44, 0
3, 7230, Note_on_c, 9, 40, 0
3, 7230, Note_on_c, 9, 51, 55
3, 7245, Note_on_c, 9, 51, 0
3, 7260, Note_on_c, 9, 44, 65
3, 7260, Note_on_c, 9, 51, 80
3, 7275, Note_on_c, 9, 51, 0
3, 7275, Note_on_c, 9, 44, 0
3, 7290, Note_on_c, 9, 51, 55
3, 7290, Note_on_c, 9, 35, 60
3, 7305, Note_on_c, 9, 51, 0
3, 7320, Note_on_c, 9, 35, 0
3, 7320, Note_on_c, 9, 51, 80
3, 7320, Note_on_c, 9, 35, 100
3, 7320, Note_on_c, 9, 44, 65
3, 7335, Note_on_c, 9, 44, 0
3, 7335, Note_on_c, 9, 51, 0
3, 7350, Note_on_c, 9, 35, 0
3, 7350, Note_on_c, 9, 51, 55
3, 7365, Note_on_c, 9, 51, 0
3, 7380, Note_on_c, 9, 44, 65
3, 7380, Note_on_c, 9, 51, 80
3, 7380, Note_on_c, 9, 35, 100
3, 7395, Note_on_c, 9, 51, 0
3, 7395, Note_on_c, 9, 44, 0
3, 7410, Note_on_c, 9, 35, 0
3, 7410, Note_on_c, 9, 35, 100
3, 7410, Note_on_c, 9, 51, 55
3, 7425, Note_on_c, 9, 51, 0
3, 7440, Note_on_c, 9, 35, 0
3, 7440, Note_on_c, 9, 44, 65
3, 7440, Note_on_c, 9, 40, 100
3, 7440, Note_on_c, 9, 51, 80
3, 7455, Note_on_c, 9, 51, 0
3, 7455, Note_on_c, 9, 40, 0
3, 7455, Note_on_c, 9, 44, 0
3, 7560, Note_on_c, 9, 48, 100
3, 7590, Note_on_c, 9, 48, 0
3, 7590, Note_on_c, 9, 48, 100
3, 7620, Note_on_c, 9, 48, 0
3, 7620, Note_on_c, 9, 48, 100
3, 7635, Note_on_c, 9, 48, 100
3, 7650, Note_on_c, 9, 48, 0
3, 7665, Note_on_c, 9, 48, 0
3, 7670, Note_on_c, 9, 35, 80
3, 7680, Note_on_c, 9, 47, 100
3, 7685, Note_on_c, 9, 35, 0
3, 7710, Note_on_c, 9, 47, 0
3, 7710, Note_on_c, 9, 47, 100
3, 7740, Note_on_c, 9, 47, 0
3, 7740, Note_on_c, 9, 47, 100
3, 7755, Note_on_c, 9, 47, 100
3, 7770, Note_on_c, 9, 47, 0
3, 7785, Note_on_c, 9, 47, 0
3, 7800, Note_on_c, 9, 52, 80
3, 7800, Note_on_c, 9, 35, 100
3, 7815, Note_on_c, 9, 52, 0
3, 7830, Note_on_c, 9, 35, 0
3, 7860, Note_on_c, 9, 35, 100
3, 7860, Note_on_c, 9, 57, 80
3, 7875, Note_on_c, 9, 57, 0
3, 7890, Note_on_c, 9, 35, 0
3, 7920, Note_on_c, 9, 44, 65
3, 7920, Note_on_c, 9, 51, 80
3, 7920, Note_on_c, 9, 40, 100
3, 7935, Note_on_c, 9, 51, 0
3, 7935, Note_on_c, 9, 44, 0
3, 7950, Note_on_c, 9, 40, 0
3, 7950, Note_on_c, 9, 51, 55
3, 7965, Note_on_c, 9, 51, 0
3, 7980, Note_on_c, 9, 44, 65
3, 7980, Note_on_c, 9, 51, 80
3, 7995, Note_on_c, 9, 51, 0
3, 7995, Note_on_c, 9, 44, 0
3, 8010, Note_on_c, 9, 51, 55
3, 8010, Note_on_c, 9, 35, 60
3, 8025, Note_on_c, 9, 51, 0
3, 8040, Note_on_c, 9, 35, 0
3, 8040, Note_on_c, 9, 44, 65
3, 8040, Note_on_c, 9, 51, 80
3, 8040, Note_on_c, 9, 35, 100
3, 8055, Note_on_c, 9, 51, 0
3, 8055, Note_on_c, 9, 44, 0
3, 8070, Note_on_c, 9, 35, 0
3, 8070, Note_on_c, 9, 51, 55
3, 8085, Note_on_c, 9, 51, 0
3, 8100, Note_on_c, 9, 44, 65
3, 8100, Note_on_c, 9, 51, 80
3, 8115, Note_on_c, 9, 51, 0
3, 8115, Note_on_c, 9, 44, 0
3, 8130, Note_on_c, 9, 51, 55
3, 8145, Note_on_c, 9, 51, 0
3, 8160, Note_on_c, 9, 44, 65
3, 8160, Note_on_c, 9, 51, 80
3, 8160, Note_on_c, 9, 40, 100
3, 8175, Note_on_c, 9, 51, 0
3, 8175, Note_on_c, 9, 44, 0
3, 8190, Note_on_c, 9, 40, 0
3, 8190, Note_on_c, 9, 51, 55
3, 8205, Note_on_c, 9, 51, 0
3, 8220, Note_on_c, 9, 44, 65
3, 8220, Note_on_c, 9, 51, 80
3, 8235, Note_on_c, 9, 51, 0
3, 8235, Note_on_c, 9, 44, 0
3, 8250, Note_on_c, 9, 51, 55
3, 8250, Note_on_c, 9, 35, 60
3, 8265, Note_on_c, 9, 51, 0
3, 8280, Note_on_c, 9, 35, 0
3, 8280, Note_on_c, 9, 44, 65
3, 8280, Note_on_c, 9, 51, 80
3, 8280, Note_on_c, 9, 35, 100
3, 8295, Note_on_c, 9, 51, 0
3, 8295, Note_on_c, 9, 44, 0
3, 8310, Note_on_c, 9, 35, 0
3, 8310, Note_on_c, 9, 51, 55
3, 8325, Note_on_c, 9, 51, 0
3, 8340, Note_on_c, 9, 44, 65
3, 8340, Note_on_c, 9, 35, 100
3, 8340, Note_on_c, 9, 51, 80
3, 8355, Note_on_c, 9, 51, 0
3, 8355, Note_on_c, 9, 44, 0
3, 8370, Note_on_c, 9, 35, 0
3, 8370, Note_on_c, 9, 51, 55
3, 8385, Note_on_c, 9, 51, 0
3, 8400, Note_on_c, 9, 44, 65
3, 8400, Note_on_c, 9, 40, 100
3, 8400, Note_on_c, 9, 51, 80
3, 8415, Note_on_c, 9, 51, 0
3, 8415, Note_on_c, 9, 44, 0
3, 8430, Note_on_c, 9, 40, 0
3, 8430, Note_on_c, 9, 51, 55
3, 8445, Note_on_c, 9, 51, 0
3, 8460, Note_on_c, 9, 44, 65
3, 8460, Note_on_c, 9, 51, 80
3, 8475, Note_on_c, 9, 51, 0
3, 8475, Note_on_c, 9, 44, 0
3, 8520, Note_on_c, 9, 44, 65
3, 8520, Note_on_c, 9, 55, 100
3, 8520, Note_on_c, 9, 35, 100
3, 8535, Note_on_c, 9, 44, 0
3, 8550, Note_on_c, 9, 35, 0
3, 8550, Note_on_c, 9, 55, 0
3, 8580, Note_on_c, 9, 44, 65
3, 8595, Note_on_c, 9, 44, 0
3, 8610, Note_on_c, 9, 57, 100
3, 8610, Note_on_c, 9, 35, 100
3, 8640, Note_on_c, 9, 35, 0
3, 8640, Note_on_c, 9, 57, 0
3, 8640, Note_on_c, 9, 44, 65
3, 8655, Note_on_c, 9, 44, 0
3, 8700, Note_on_c, 9, 44, 65
3, 8700, Note_on_c, 9, 52, 100
3, 8700, Note_on_c, 9, 35, 100
3, 8715, Note_on_c, 9, 44, 0
3, 8730, Note_on_c, 9, 35, 0
3, 8730, Note_on_c, 9, 52, 0
3, 8760, Note_on_c, 9, 44, 65
3, 8760, Note_on_c, 9, 57, 100
3, 8760, Note_on_c, 9, 35, 100
3, 8775, Note_on_c, 9, 44, 0
3, 8790, Note_on_c, 9, 35, 0
3, 8790, Note_on_c, 9, 57, 0
3, 8790, Note_on_c, 9, 51, 55
3, 8820, Note_on_c, 9, 51, 0
3, 8820, Note_on_c, 9, 44, 65
3, 8820, Note_on_c, 9, 51, 80
3, 8820, Note_on_c, 9, 35, 100
3, 8835, Note_on_c, 9, 44, 0
3, 8850, Note_on_c, 9, 35, 0
3, 8850, Note_on_c, 9, 51, 0
3, 8850, Note_on_c, 9, 51, 55
3, 8880, Note_on_c, 9, 51, 0
3, 8880, Note_on_c, 9, 44, 65
3, 8880, Note_on_c, 9, 51, 80
3, 8880, Note_on_c, 9, 40, 100
3, 8895, Note_on_c, 9, 44, 0
3, 8910, Note_on_c, 9, 40, 0
3, 8910, Note_on_c, 9, 51, 0
3, 8910, Note_on_c, 9, 51, 55
3, 8940, Note_on_c, 9, 51, 0
3, 8940, Note_on_c, 9, 44, 65
3, 8940, Note_on_c, 9, 51, 80
3, 8955, Note_on_c, 9, 44, 0
3, 8970, Note_on_c, 9, 51, 0
3, 8970, Note_on_c, 9, 51, 55
3, 8970, Note_on_c, 9, 35, 60
3, 9000, Note_on_c, 9, 35, 0
3, 9000, Note_on_c, 9, 51, 0
3, 9000, Note_on_c, 9, 44, 65
3, 9000, Note_on_c, 9, 51, 80
3, 9000, Note_on_c, 9, 35, 100
3, 9015, Note_on_c, 9, 44, 0
3, 9030, Note_on_c, 9, 35, 0
3, 9030, Note_on_c, 9, 51, 0
3, 9030, Note_on_c, 9, 51, 55
3, 9060, Note_on_c, 9, 51, 0
3, 9060, Note_on_c, 9, 44, 65
3, 9060, Note_on_c, 9, 51, 80
3, 9060, Note_on_c, 9, 35, 100
3, 9075, Note_on_c, 9, 44, 0
3, 9090, Note_on_c, 9, 35, 0
3, 9090, Note_on_c, 9, 51, 0
3, 9090, Note_on_c, 9, 35, 100
3, 9090, Note_on_c, 9, 51, 55
3, 9120, Note_on_c, 9, 51, 0
3, 9120, Note_on_c, 9, 35, 0
3, 9120, Note_on_c, 9, 44, 65
3, 9120, Note_on_c, 9, 51, 80
3, 9120, Note_on_c, 9, 40, 100
3, 9135, Note_on_c, 9, 44, 0
3, 9150, Note_on_c, 9, 40, 0
3, 9150, Note_on_c, 9, 51, 0
3, 9150, Note_on_c, 9, 51, 55
3, 9180, Note_on_c, 9, 51, 0
3, 9180, Note_on_c, 9, 51, 80
3, 9180, Note_on_c, 9, 44, 65
3, 9195, Note_on_c, 9, 44, 0
3, 9210, Note_on_c, 9, 51, 0
3, 9210, Note_on_c, 9, 51, 55
3, 9210, Note_on_c, 9, 35, 100
3, 9240, Note_on_c, 9, 35, 0
3, 9240, Note_on_c, 9, 51, 0
3, 9240, Note_on_c, 9, 44, 65
3, 9240, Note_on_c, 9, 51, 80
3, 9240, Note_on_c, 9, 35, 100
3, 9255, Note_on_c, 9, 44, 0
3, 9270, Note_on_c, 9, 35, 0
3, 9270, Note_on_c, 9, 51, 0
3, 9270, Note_on_c, 9, 51, 55
3, 9300, Note_on_c, 9, 51, 0
3, 9300, Note_on_c, 9, 35, 100
3, 9300, Note_on_c, 9, 44, 65
3, 9300, Note_on_c, 9, 51, 80
3, 9315, Note_on_c, 9, 44, 0
3, 9330, Note_on_c, 9, 51, 0
3, 9330, Note_on_c, 9, 35, 0
3, 9330, Note_on_c, 9, 51, 55
3, 9330, Note_on_c, 9, 35, 100
3, 9360, Note_on_c, 9, 35, 0
3, 9360, Note_on_c, 9, 51, 0
3, 9360, Note_on_c, 9, 44, 65
3, 9360, Note_on_c, 9, 51, 80
3, 9360, Note_on_c, 9, 40, 100
3, 9360, Note_on_c, 9, 44, 65
3, 9360, Note_on_c, 9, 51, 60
3, 9375, Note_on_c, 9, 44, 0
3, 9390, Note_on_c, 9, 51, 0
3, 9390, Note_on_c, 9, 40, 0
3, 9390, Note_on_c, 9, 51, 60
3, 9392, Note_on_c, 9, 44, 0
3, 9420, Note_on_c, 9, 44, 65
3, 9422, Note_on_c, 9, 51, 60
3, 9433, Note_on_c, 9, 51, 0
3, 9450, Note_on_c, 9, 40, 40
3, 9452, Note_on_c, 9, 44, 0
3, 9463, Note_on_c, 9, 51, 0
3, 9465, Note_on_c, 9, 40, 0
3, 9465, Note_on_c, 9, 40, 40
3, 9480, Note_on_c, 9, 40, 0
3, 9480, Note_on_c, 9, 44, 100
3, 9480, Note_on_c, 9, 40, 100
3, 9495, Note_on_c, 9, 40, 0
3, 9495, Note_on_c, 9, 51, 0
3, 9495, Note_on_c, 9, 40, 100
3, 9508, Note_on_c, 9, 51, 58
3, 9510, Note_on_c, 9, 44, 0
3, 9510, Note_on_c, 9, 36, 70
3, 9525, Note_on_c, 9, 40, 0
3, 9525, Note_on_c, 9, 36, 70
3, 9525, Note_on_c, 9, 40, 34
3, 9537, Note_on_c, 9, 51, 0
3, 9538, Note_on_c, 9, 55, 59
3, 9540, Note_on_c, 9, 36, 0
3, 9540, Note_on_c, 9, 36, 70
3, 9555, Note_on_c, 9, 40, 0
3, 9555, Note_on_c, 9, 36, 70
3, 9570, Note_on_c, 9, 40, 38
3, 9585, Note_on_c, 9, 40, 0
3, 9585, Note_on_c, 9, 40, 44
3, 9600, Note_on_c, 9, 40, 0
3, 9600, Note_on_c, 9, 36, 0
3, 9600, Note_on_c, 9, 40, 100
3, 9612, Note_on_c, 9, 55, 0
3, 9615, Note_on_c, 9, 40, 0
3, 9615, Note_on_c, 9, 36, 0
3, 9615, Note_on_c, 9, 40, 100
3, 9630, Note_on_c, 9, 36, 0
3, 9630, Note_on_c, 9, 36, 70
3, 9630, Note_on_c, 9, 46, 64
3, 9645, Note_on_c, 9, 40, 0
3, 9645, Note_on_c, 9, 36, 70
3, 9660, Note_on_c, 9, 57, 56
3, 9660, Note_on_c, 9, 36, 70
3, 9662, Note_on_c, 9, 46, 0
3, 9675, Note_on_c, 9, 36, 56
3, 9675, Note_on_c, 9, 36, 70
3, 9690, Note_on_c, 9, 36, 0
3, 9690, Note_on_c, 9, 49, 56
3, 9690, Note_on_c, 9, 36, 70
3, 9692, Note_on_c, 9, 57, 0
3, 9705, Note_on_c, 9, 36, 0
3, 9705, Note_on_c, 9, 36, 70
3, 9706, Note_on_c, 9, 36, 0
3, 9720, Note_on_c, 9, 36, 0
3, 9720, Note_on_c, 9, 52, 100
3, 9720, Note_on_c, 9, 35, 100
3, 9722, Note_on_c, 9, 49, 0
3, 9750, Note_on_c, 9, 52, 0
3, 9750, Note_on_c, 9, 36, 0
3, 9750, Note_on_c, 9, 35, 0
3, 9750, Note_on_c, 9, 51, 55
3, 9765, Note_on_c, 9, 36, 0
3, 9780, Note_on_c, 9, 51, 0
3, 9780, Note_on_c, 9, 36, 0
3, 9780, Note_on_c, 9, 51, 100
3, 9780, Note_on_c, 9, 44, 65
3, 9795, Note_on_c, 9, 44, 0
3, 9810, Note_on_c, 9, 51, 0
3, 9810, Note_on_c, 9, 51, 55
3, 9840, Note_on_c, 9, 51, 0
3, 9840, Note_on_c, 9, 44, 65
3, 9840, Note_on_c, 9, 51, 100
3, 9840, Note_on_c, 9, 40, 100
3, 9855, Note_on_c, 9, 44, 0
3, 9870, Note_on_c, 9, 40, 0
3, 9870, Note_on_c, 9, 51, 0
3, 9870, Note_on_c, 9, 51, 55
3, 9900, Note_on_c, 9, 51, 0
3, 9900, Note_on_c, 9, 51, 100
3, 9900, Note_on_c, 9, 44, 65
3, 9915, Note_on_c, 9, 44, 0
3, 9930, Note_on_c, 9, 51, 0
3, 9930, Note_on_c, 9, 35, 100
3, 9930, Note_on_c, 9, 51, 55
3, 9960, Note_on_c, 9, 51, 0
3, 9960, Note_on_c, 9, 35, 0
3, 9960, Note_on_c, 9, 44, 65
3, 9960, Note_on_c, 9, 51, 100
3, 9960, Note_on_c, 9, 35, 100
3, 9975, Note_on_c, 9, 44, 0
3, 9990, Note_on_c, 9, 35, 0
3, 9990, Note_on_c, 9, 51, 0
3, 9990, Note_on_c, 9, 51, 55
3, 10020, Note_on_c, 9, 51, 0
3, 10020, Note_on_c, 9, 35, 100
3, 10020, Note_on_c, 9, 44, 65
3, 10020, Note_on_c, 9, 51, 100
3, 10035, Note_on_c, 9, 44, 0
3, 10050, Note_on_c, 9, 51, 0
3, 10050, Note_on_c, 9, 35, 0
3, 10050, Note_on_c, 9, 51, 55
3, 10050, Note_on_c, 9, 35, 100
3, 10080, Note_on_c, 9, 35, 0
3, 10080, Note_on_c, 9, 51, 0
3, 10080, Note_on_c, 9, 44, 65
3, 10080, Note_on_c, 9, 51, 100
3, 10080, Note_on_c, 9, 40, 100
3, 10095, Note_on_c, 9, 44, 0
3, 10110, Note_on_c, 9, 40, 0
3, 10110, Note_on_c, 9, 51, 0
3, 10110, Note_on_c, 9, 51, 55
3, 10140, Note_on_c, 9, 51, 0
3, 10140, Note_on_c, 9, 44, 65
3, 10140, Note_on_c, 9, 51, 100
3, 10155, Note_on_c, 9, 44, 0
3, 10170, Note_on_c, 9, 51, 0
3, 10170, Note_on_c, 9, 51, 55
3, 10170, Note_on_c, 9, 35, 60
3, 10200, Note_on_c, 9, 35, 0
3, 10200, Note_on_c, 9, 51, 0
3, 10200, Note_on_c, 9, 44, 65
3, 10200, Note_on_c, 9, 51, 100
3, 10200, Note_on_c, 9, 35, 100
3, 10215, Note_on_c, 9, 44, 0
3, 10230, Note_on_c, 9, 35, 0
3, 10230, Note_on_c, 9, 51, 0
3, 10230, Note_on_c, 9, 51, 55
3, 10260, Note_on_c, 9, 51, 0
3, 10260, Note_on_c, 9, 35, 100
3, 10260, Note_on_c, 9, 44, 65
3, 10260, Note_on_c, 9, 51, 100
3, 10275, Note_on_c, 9, 44, 0
3, 10290, Note_on_c, 9, 51, 0
3, 10290, Note_on_c, 9, 35, 0
3, 10290, Note_on_c, 9, 35, 100
3, 10290, Note_on_c, 9, 51, 55
3, 10320, Note_on_c, 9, 51, 0
3, 10320, Note_on_c, 9, 35, 0
3, 10320, Note_on_c, 9, 44, 65
3, 10320, Note_on_c, 9, 51, 100
3, 10320, Note_on_c, 9, 40, 100
3, 10335, Note_on_c, 9, 44, 0
3, 10350, Note_on_c, 9, 40, 0
3, 10350, Note_on_c, 9, 51, 0
3, 10350, Note_on_c, 9, 51, 55
3, 10380, Note_on_c, 9, 51, 0
3, 10380, Note_on_c, 9, 51, 100
3, 10380, Note_on_c, 9, 44, 65
3, 10395, Note_on_c, 9, 44, 0
3, 10410, Note_on_c, 9, 51, 0
3, 10410, Note_on_c, 9, 51, 55
3, 10410, Note_on_c, 9, 35, 100
3, 10440, Note_on_c, 9, 35, 0
3, 10440, Note_on_c, 9, 51, 0
3, 10440, Note_on_c, 9, 44, 65
3, 10440, Note_on_c, 9, 51, 100
3, 10440, Note_on_c, 9, 35, 100
3, 10455, Note_on_c, 9, 44, 0
3, 10470, Note_on_c, 9, 35, 0
3, 10470, Note_on_c, 9, 51, 0
3, 10470, Note_on_c, 9, 51, 55
3, 10500, Note_on_c, 9, 51, 0
3, 10500, Note_on_c, 9, 35, 100
3, 10500, Note_on_c, 9, 44, 65
3, 10500, Note_on_c, 9, 51, 100
3, 10515, Note_on_c, 9, 44, 0
3, 10530, Note_on_c, 9, 51, 0
3, 10530, Note_on_c, 9, 35, 0
3, 10530, Note_on_c, 9, 51, 55
3, 10530, Note_on_c, 9, 35, 100
3, 10560, Note_on_c, 9, 35, 0
3, 10560, Note_on_c, 9, 51, 0
3, 10560, Note_on_c, 9, 44, 65
3, 10560, Note_on_c, 9, 51, 100
3, 10560, Note_on_c, 9, 40, 100
3, 10575, Note_on_c, 9, 44, 0
3, 10590, Note_on_c, 9, 40, 0
3, 10590, Note_on_c, 9, 51, 0
3, 10590, Note_on_c, 9, 51, 55
3, 10600, Note_on_c, 9, 40, 30
3, 10610, Note_on_c, 9, 40, 30
3, 10620, Note_on_c, 9, 51, 0
3, 10620, Note_on_c, 9, 40, 100
3, 10620, Note_on_c, 9, 44, 65
3, 10630, Note_on_c, 9, 40, 0
3, 10635, Note_on_c, 9, 44, 0
3, 10635, Note_on_c, 9, 40, 100
3, 10640, Note_on_c, 9, 40, 0
3, 10650, Note_on_c, 9, 40, 0
3, 10650, Note_on_c, 9, 47, 100
3, 10665, Note_on_c, 9, 40, 0
3, 10665, Note_on_c, 9, 47, 100
3, 10680, Note_on_c, 9, 47, 0
3, 10680, Note_on_c, 9, 57, 100
3, 10680, Note_on_c, 9, 35, 100
3, 10695, Note_on_c, 9, 47, 0
3, 10719, Note_on_c, 9, 35, 0
3, 10719, Note_on_c, 9, 57, 0
3, 10720, Note_on_c, 9, 52, 100
3, 10720, Note_on_c, 9, 35, 100
3, 10759, Note_on_c, 9, 35, 0
3, 10759, Note_on_c, 9, 52, 0
3, 10760, Note_on_c, 9, 46, 100
3, 10760, Note_on_c, 9, 35, 100
3, 10799, Note_on_c, 9, 35, 0
3, 10799, Note_on_c, 9, 46, 0
3, 10800, Note_on_c, 9, 35, 100
3, 10800, Note_on_c, 9, 49, 100
3, 10830, Note_on_c, 9, 49, 0
3, 10830, Note_on_c, 9, 35, 0
3, 10860, Note_on_c, 9, 44, 65
3, 10860, Note_on_c, 9, 51, 100
3, 10875, Note_on_c, 9, 44, 0
3, 10890, Note_on_c, 9, 51, 0
3, 10890, Note_on_c, 9, 35, 100
3, 10890, Note_on_c, 9, 51, 55
3, 10920, Note_on_c, 9, 51, 0
3, 10920, Note_on_c, 9, 35, 0
3, 10920, Note_on_c, 9, 44, 65
3, 10920, Note_on_c, 9, 51, 100
3, 10920, Note_on_c, 9, 35, 100
3, 10935, Note_on_c, 9, 44, 0
3, 10950, Note_on_c, 9, 35, 0
3, 10950, Note_on_c, 9, 51, 0
3, 10950, Note_on_c, 9, 51, 55
3, 10980, Note_on_c, 9, 51, 0
3, 10980, Note_on_c, 9, 35, 100
3, 10980, Note_on_c, 9, 44, 65
3, 10980, Note_on_c, 9, 51, 100
3, 10995, Note_on_c, 9, 44, 0
3, 11010, Note_on_c, 9, 51, 0
3, 11010, Note_on_c, 9, 35, 0
3, 11010, Note_on_c, 9, 51, 55
3, 11010, Note_on_c, 9, 35, 100
3, 11040, Note_on_c, 9, 35, 0
3, 11040, Note_on_c, 9, 51, 0
3, 11040, Note_on_c, 9, 44, 65
3, 11040, Note_on_c, 9, 51, 100
3, 11040, Note_on_c, 9, 40, 100
3, 11055, Note_on_c, 9, 44, 0
3, 11070, Note_on_c, 9, 40, 0
3, 11070, Note_on_c, 9, 51, 0
3, 11070, Note_on_c, 9, 51, 55
3, 11100, Note_on_c, 9, 51, 0
3, 11100, Note_on_c, 9, 44, 65
3, 11100, Note_on_c, 9, 51, 100
3, 11115, Note_on_c, 9, 44, 0
3, 11130, Note_on_c, 9, 51, 0
3, 11130, Note_on_c, 9, 51, 55
3, 11130, Note_on_c, 9, 35, 60
3, 11160, Note_on_c, 9, 35, 0
3, 11160, Note_on_c, 9, 51, 0
3, 11160, Note_on_c, 9, 44, 65
3, 11160, Note_on_c, 9, 51, 100
3, 11160, Note_on_c, 9, 35, 100
3, 11175, Note_on_c, 9, 44, 0
3, 11190, Note_on_c, 9, 35, 0
3, 11190, Note_on_c, 9, 51, 0
3, 11190, Note_on_c, 9, 51, 55
3, 11220, Note_on_c, 9, 51, 0
3, 11220, Note_on_c, 9, 35, 100
3, 11220, Note_on_c, 9, 44, 65
3, 11220, Note_on_c, 9, 51, 100
3, 11235, Note_on_c, 9, 44, 0
3, 11250, Note_on_c, 9, 51, 0
3, 11250, Note_on_c, 9, 35, 0
3, 11250, Note_on_c, 9, 35, 100
3, 11250, Note_on_c, 9, 51, 55
3, 11280, Note_on_c, 9, 51, 0
3, 11280, Note_on_c, 9, 35, 0
3, 11280, Note_on_c, 9, 44, 65
3, 11280, Note_on_c, 9, 51, 100
3, 11280, Note_on_c, 9, 40, 100
3, 11295, Note_on_c, 9, 44, 0
3, 11310, Note_on_c, 9, 40, 0
3, 11310, Note_on_c, 9, 51, 0
3, 11310, Note_on_c, 9, 51, 55
3, 11340, Note_on_c, 9, 51, 0
3, 11340, Note_on_c, 9, 44, 65
3, 11340, Note_on_c, 9, 51, 100
3, 11355, Note_on_c, 9, 44, 0
3, 11370, Note_on_c, 9, 51, 0
3, 11370, Note_on_c, 9, 51, 55
3, 11370, Note_on_c, 9, 35, 100
3, 11400, Note_on_c, 9, 35, 0
3, 11400, Note_on_c, 9, 51, 0
3, 11400, Note_on_c, 9, 44, 65
3, 11400, Note_on_c, 9, 51, 100
3, 11400, Note_on_c, 9, 35, 100
3, 11415, Note_on_c, 9, 44, 0
3, 11430, Note_on_c, 9, 35, 0
3, 11430, Note_on_c, 9, 51, 0
3, 11430, Note_on_c, 9, 51, 55
3, 11460, Note_on_c, 9, 51, 0
3, 11460, Note_on_c, 9, 35, 100
3, 11460, Note_on_c, 9, 51, 100
3, 11460, Note_on_c, 9, 44, 65
3, 11475, Note_on_c, 9, 44, 0
3, 11490, Note_on_c, 9, 51, 0
3, 11490, Note_on_c, 9, 35, 0
3, 11490, Note_on_c, 9, 35, 100
3, 11490, Note_on_c, 9, 51, 55
3, 11520, Note_on_c, 9, 51, 0
3, 11520, Note_on_c, 9, 35, 0
3, 11520, Note_on_c, 9, 44, 65
3, 11520, Note_on_c, 9, 51, 100
3, 11520, Note_on_c, 9, 40, 100
3, 11535, Note_on_c, 9, 44, 0
3, 11550, Note_on_c, 9, 40, 0
3, 11550, Note_on_c, 9, 51, 0
3, 11550, Note_on_c, 9, 51, 55
3, 11580, Note_on_c, 9, 51, 0
3, 11580, Note_on_c, 9, 44, 65
3, 11580, Note_on_c, 9, 51, 100
3, 11595, Note_on_c, 9, 44, 0
3, 11610, Note_on_c, 9, 51, 0
3, 11610, Note_on_c, 9, 35, 60
3, 11640, Note_on_c, 9, 35, 0
3, 11640, Note_on_c, 9, 52, 100
3, 11640, Note_on_c, 9, 35, 100
3, 11679, Note_on_c, 9, 35, 0
3, 11679, Note_on_c, 9, 52, 0
3, 11680, Note_on_c, 9, 57, 100
3, 11680, Note_on_c, 9, 35, 100
3, 11719, Note_on_c, 9, 35, 0
3, 11719, Note_on_c, 9, 57, 0
3, 11720, Note_on_c, 9, 52, 100
3, 11720, Note_on_c, 9, 35, 100
3, 11759, Note_on_c, 9, 35, 0
3, 11759, Note_on_c, 9, 52, 0
3, 11760, Note_on_c, 9, 49, 100
3, 11760, Note_on_c, 9, 35, 100
3, 11790, Note_on_c, 9, 35, 0
3, 11790, Note_on_c, 9, 49, 0
3, 11820, Note_on_c, 9, 44, 65
3, 11820, Note_on_c, 9, 51, 100
3, 11835, Note_on_c, 9, 44, 0
3, 11850, Note_on_c, 9, 51, 0
3, 11850, Note_on_c, 9, 51, 55
3, 11850, Note_on_c, 9, 35, 100
3, 11880, Note_on_c, 9, 35, 0
3, 11880, Note_on_c, 9, 51, 100
3, 11880, Note_on_c, 9, 44, 65
3, 11880, Note_on_c, 9, 35, 100
3, 11889, Note_on_c, 9, 51, 0
3, 11895, Note_on_c, 9, 44, 0
3, 11910, Note_on_c, 9, 51, 0
3, 11910, Note_on_c, 9, 35, 0
3, 11910, Note_on_c, 9, 51, 55
3, 11940, Note_on_c, 9, 35, 100
3, 11940, Note_on_c, 9, 44, 65
3, 11940, Note_on_c, 9, 51, 100
3, 11949, Note_on_c, 9, 51, 0
3, 11955, Note_on_c, 9, 44, 0
3, 11970, Note_on_c, 9, 35, 0
3, 11970, Note_on_c, 9, 51, 0
3, 11970, Note_on_c, 9, 51, 55
3, 11970, Note_on_c, 9, 35, 100
3, 12000, Note_on_c, 9, 35, 0
3, 12000, Note_on_c, 9, 44, 65
3, 12000, Note_on_c, 9, 51, 100
3, 12000, Note_on_c, 9, 40, 100
3, 12009, Note_on_c, 9, 51, 0
3, 12015, Note_on_c, 9, 44, 0
3, 12030, Note_on_c, 9, 51, 0
3, 12030, Note_on_c, 9, 40, 0
3, 12030, Note_on_c, 9, 51, 55
3, 12060, Note_on_c, 9, 44, 65
3, 12060, Note_on_c, 9, 51, 100
3, 12069, Note_on_c, 9, 51, 0
3, 12075, Note_on_c, 9, 44, 0
3, 12090, Note_on_c, 9, 51, 0
3, 12090, Note_on_c, 9, 51, 55
3, 12090, Note_on_c, 9, 35, 60
3, 12120, Note_on_c, 9, 35, 0
3, 12120, Note_on_c, 9, 44, 65
3, 12120, Note_on_c, 9, 51, 100
3, 12120, Note_on_c, 9, 35, 100
3, 12129, Note_on_c, 9, 51, 0
3, 12135, Note_on_c, 9, 44, 0
3, 12150, Note_on_c, 9, 51, 0
3, 12150, Note_on_c, 9, 35, 0
3, 12150, Note_on_c, 9, 51, 55
3, 12180, Note_on_c, 9, 44, 65
3, 12180, Note_on_c, 9, 51, 100
3, 12189, Note_on_c, 9, 51, 0
3, 12195, Note_on_c, 9, 44, 0
3, 12210, Note_on_c, 9, 51, 0
3, 12210, Note_on_c, 9, 51, 55
3, 12240, Note_on_c, 9, 51, 100
3, 12240, Note_on_c, 9, 40, 100
3, 12240, Note_on_c, 9, 44, 65
3, 12249, Note_on_c, 9, 51, 0
3, 12255, Note_on_c, 9, 44, 0
3, 12270, Note_on_c, 9, 40, 0
3, 12270, Note_on_c, 9, 51, 0
3, 12270, Note_on_c, 9, 51, 55
3, 12300, Note_on_c, 9, 44, 65
3, 12300, Note_on_c, 9, 51, 100
3, 12309, Note_on_c, 9, 51, 0
3, 12315, Note_on_c, 9, 44, 0
3, 12330, Note_on_c, 9, 51, 0
3, 12330, Note_on_c, 9, 51, 55
3, 12330, Note_on_c, 9, 35, 60
3, 12360, Note_on_c, 9, 35, 0
3, 12360, Note_on_c, 9, 44, 65
3, 12360, Note_on_c, 9, 51, 100
3, 12360, Note_on_c, 9, 35, 100
3, 12369, Note_on_c, 9, 51, 0
3, 12375, Note_on_c, 9, 44, 0
3, 12390, Note_on_c, 9, 51, 0
3, 12390, Note_on_c, 9, 35, 0
3, 12390, Note_on_c, 9, 51, 55
3, 12420, Note_on_c, 9, 44, 65
3, 12420, Note_on_c, 9, 51, 100
3, 12429, Note_on_c, 9, 51, 0
3, 12435, Note_on_c, 9, 44, 0
3, 12450, Note_on_c, 9, 51, 0
3, 12450, Note_on_c, 9, 51, 55
3, 12480, Note_on_c, 9, 44, 65
3, 12480, Note_on_c, 9, 40, 100
3, 12480, Note_on_c, 9, 51, 100
3, 12489, Note_on_c, 9, 51, 0
3, 12495, Note_on_c, 9, 44, 0
3, 12510, Note_on_c, 9, 40, 0
3, 12510, Note_on_c, 9, 51, 0
3, 12510, Note_on_c, 9, 35, 100
3, 12510, Note_on_c, 9, 51, 55
3, 12540, Note_on_c, 9, 35, 0
3, 12540, Note_on_c, 9, 51, 100
3, 12540, Note_on_c, 9, 44, 65
3, 12549, Note_on_c, 9, 51, 0
3, 12555, Note_on_c, 9, 44, 0
3, 12570, Note_on_c, 9, 51, 0
3, 12570, Note_on_c, 9, 35, 60
3, 12600, Note_on_c, 9, 35, 0
3, 12600, Note_on_c, 9, 52, 100
3, 12600, Note_on_c, 9, 35, 100
3, 12639, Note_on_c, 9, 35, 0
3, 12639, Note_on_c, 9, 52, 0
3, 12640, Note_on_c, 9, 51, 100
3, 12640, Note_on_c, 9, 35, 100
3, 12679, Note_on_c, 9, 35, 0
3, 12679, Note_on_c, 9, 51, 0
3, 12680, Note_on_c, 9, 57, 100
3, 12680, Note_on_c, 9, 35, 100
3, 12719, Note_on_c, 9, 35, 0
3, 12719, Note_on_c, 9, 57, 0
3, 12720, Note_on_c, 9, 49, 100
3, 12720, Note_on_c, 9, 35, 100
3, 12750, Note_on_c, 9, 35, 0
3, 12750, Note_on_c, 9, 49, 0
3, 12780, Note_on_c, 9, 44, 65
3, 12780, Note_on_c, 9, 51, 100
3, 12795, Note_on_c, 9, 44, 0
3, 12810, Note_on_c, 9, 51, 0
3, 12810, Note_on_c, 9, 35, 100
3, 12810, Note_on_c, 9, 51, 55
3, 12840, Note_on_c, 9, 35, 0
3, 12840, Note_on_c, 9, 44, 65
3, 12840, Note_on_c, 9, 51, 100
3, 12840, Note_on_c, 9, 35, 100
3, 12849, Note_on_c, 9, 51, 0
3, 12855, Note_on_c, 9, 44, 0
3, 12870, Note_on_c, 9, 51, 0
3, 12870, Note_on_c, 9, 35, 0
3, 12870, Note_on_c, 9, 51, 55
3, 12900, Note_on_c, 9, 35, 100
3, 12900, Note_on_c, 9, 44, 65
3, 12900, Note_on_c, 9, 51, 100
3, 12909, Note_on_c, 9, 51, 0
3, 12915, Note_on_c, 9, 44, 0
3, 12930, Note_on_c, 9, 35, 0
3, 12930, Note_on_c, 9, 51, 0
3, 12930, Note_on_c, 9, 51, 55
3, 12930, Note_on_c, 9, 35, 100
3, 12960, Note_on_c, 9, 35, 0
3, 12960, Note_on_c, 9, 44, 65
3, 12960, Note_on_c, 9, 51, 100
3, 12960, Note_on_c, 9, 40, 100
3, 12969, Note_on_c, 9, 51, 0
3, 12975, Note_on_c, 9, 44, 0
3, 12990, Note_on_c, 9, 51, 0
3, 12990, Note_on_c, 9, 40, 0
3, 12990, Note_on_c, 9, 51, 55
3, 13020, Note_on_c, 9, 44, 65
3, 13020, Note_on_c, 9, 51, 100
3, 13029, Note_on_c, 9, 51, 0
3, 13035, Note_on_c, 9, 44, 0
3, 13050, Note_on_c, 9, 51, 0
3, 13050, Note_on_c, 9, 51, 55
3, 13050, Note_on_c, 9, 35, 60
3, 13080, Note_on_c, 9, 35, 0
3, 13080, Note_on_c, 9, 44, 65
3, 13080, Note_on_c, 9, 51, 100
3, 13080, Note_on_c, 9, 35, 100
3, 13089, Note_on_c, 9, 51, 0
3, 13095, Note_on_c, 9, 44, 0
3, 13110, Note_on_c, 9, 51, 0
3, 13110, Note_on_c, 9, 35, 0
3, 13110, Note_on_c, 9, 51, 55
3, 13140, Note_on_c, 9, 51, 100
3, 13140, Note_on_c, 9, 44, 65
3, 13149, Note_on_c, 9, 51, 0
3, 13155, Note_on_c, 9, 44, 0
3, 13170, Note_on_c, 9, 51, 0
3, 13170, Note_on_c, 9, 51, 55
3, 13200, Note_on_c, 9, 44, 65
3, 13200, Note_on_c, 9, 51, 100
3, 13200, Note_on_c, 9, 40, 100
3, 13209, Note_on_c, 9, 51, 0
3, 13215, Note_on_c, 9, 44, 0
3, 13230, Note_on_c, 9, 51, 0
3, 13230, Note_on_c, 9, 40, 0
3, 13230, Note_on_c, 9, 51, 55
3, 13260, Note_on_c, 9, 44, 65
3, 13260, Note_on_c, 9, 51, 100
3, 13269, Note_on_c, 9, 51, 0
3, 13275, Note_on_c, 9, 44, 0
3, 13290, Note_on_c, 9, 51, 0
3, 13290, Note_on_c, 9, 35, 100
3, 13320, Note_on_c, 9, 35, 0
3, 13320, Note_on_c, 9, 50, 100
3, 13350, Note_on_c, 9, 50, 0
3, 13380, Note_on_c, 9, 48, 100
3, 13410, Note_on_c, 9, 48, 0
3, 13410, Note_on_c, 9, 47, 100
3, 13440, Note_on_c, 9, 47, 0
3, 13440, Note_on_c, 9, 45, 100
3, 13470, Note_on_c, 9, 45, 0
3, 13500, Note_on_c, 9, 45, 100
3, 13530, Note_on_c, 9, 45, 0
3, 13530, Note_on_c, 9, 45, 100
3, 13545, Note_on_c, 9, 45, 100
3, 13560, Note_on_c, 9, 45, 0
3, 13560, Note_on_c, 9, 57, 100
3, 13560, Note_on_c, 9, 35, 100
3, 13560, Note_on_c, 9, 57, 100
3, 13575, Note_on_c, 9, 45, 0
3, 13590, Note_on_c, 9, 57, 0
3, 13590, Note_on_c, 9, 35, 0
3, 13590, Note_on_c, 9, 57, 0
3, 13620, Note_on_c, 9, 35, 100
3, 13620, Note_on_c, 9, 49, 100
3, 13650, Note_on_c, 9, 35, 0
3, 13650, Note_on_c, 9, 51, 55
3, 13659, Note_on_c, 9, 49, 0
3, 13680, Note_on_c, 9, 44, 65
3, 13680, Note_on_c, 9, 51, 100
3, 13680, Note_on_c, 9, 40, 100
3, 13689, Note_on_c, 9, 51, 0
3, 13695, Note_on_c, 9, 44, 0
3, 13710, Note_on_c, 9, 40, 0
3, 13710, Note_on_c, 9, 51, 55
3, 13719, Note_on_c, 9, 51, 0
3, 13740, Note_on_c, 9, 44, 65
3, 13740, Note_on_c, 9, 51, 100
3, 13749, Note_on_c, 9, 51, 0
3, 13755, Note_on_c, 9, 44, 0
3, 13770, Note_on_c, 9, 52, 100
3, 13770, Note_on_c, 9, 35, 100
3, 13779, Note_on_c, 9, 51, 0
3, 13800, Note_on_c, 9, 35, 0
3, 13800, Note_on_c, 9, 44, 65
3, 13800, Note_on_c, 9, 51, 100
3, 13800, Note_on_c, 9, 35, 100
3, 13809, Note_on_c, 9, 52, 0
3, 13815, Note_on_c, 9, 44, 0
3, 13830, Note_on_c, 9, 35, 0
3, 13830, Note_on_c, 9, 51, 55
3, 13839, Note_on_c, 9, 51, 0
3, 13860, Note_on_c, 9, 44, 65
3, 13860, Note_on_c, 9, 51, 100
3, 13860, Note_on_c, 9, 35, 100
3, 13869, Note_on_c, 9, 51, 0
3, 13875, Note_on_c, 9, 44, 0
3, 13890, Note_on_c, 9, 35, 0
3, 13890, Note_on_c, 9, 51, 55
3, 13899, Note_on_c, 9, 51, 0
3, 13920, Note_on_c, 9, 40, 100
3, 13920, Note_on_c, 9, 55, 100
3, 13920, Note_on_c, 9, 44, 65
3, 13929, Note_on_c, 9, 51, 0
3, 13935, Note_on_c, 9, 44, 0
3, 13950, Note_on_c, 9, 40, 0
3, 13950, Note_on_c, 9, 51, 55
3, 13950, Note_on_c, 9, 35, 100
3, 13959, Note_on_c, 9, 55, 0
3, 13980, Note_on_c, 9, 35, 0
3, 13980, Note_on_c, 9, 51, 100
3, 13980, Note_on_c, 9, 44, 65
3, 13989, Note_on_c, 9, 51, 0
3, 13995, Note_on_c, 9, 44, 0
3, 14010, Note_on_c, 9, 57, 100
3, 14010, Note_on_c, 9, 35, 100
3, 14019, Note_on_c, 9, 51, 0
3, 14040, Note_on_c, 9, 35, 0
3, 14040, Note_on_c, 9, 44, 65
3, 14040, Note_on_c, 9, 51, 100
3, 14040, Note_on_c, 9, 35, 100
3, 14049, Note_on_c, 9, 57, 0
3, 14055, Note_on_c, 9, 44, 0
3, 14070, Note_on_c, 9, 35, 0
3, 14070, Note_on_c, 9, 51, 55
3, 14079, Note_on_c, 9, 51, 0
3, 14100, Note_on_c, 9, 44, 65
3, 14100, Note_on_c, 9, 51, 100
3, 14100, Note_on_c, 9, 35, 100
3, 14109, Note_on_c, 9, 51, 0
3, 14115, Note_on_c, 9, 44, 0
3, 14130, Note_on_c, 9, 35, 0
3, 14130, Note_on_c, 9, 51, 55
3, 14139, Note_on_c, 9, 51, 0
3, 14160, Note_on_c, 9, 44, 65
3, 14160, Note_on_c, 9, 40, 100
3, 14160, Note_on_c, 9, 52, 100
3, 14169, Note_on_c, 9, 51, 0
3, 14175, Note_on_c, 9, 44, 0
3, 14190, Note_on_c, 9, 51, 55
3, 14199, Note_on_c, 9, 40, 0
3, 14199, Note_on_c, 9, 52, 0
3, 14220, Note_on_c, 9, 44, 65
3, 14220, Note_on_c, 9, 51, 100
3, 14229, Note_on_c, 9, 51, 0
3, 14235, Note_on_c, 9, 44, 0
3, 14259, Note_on_c, 9, 51, 0
3, 14280, Note_on_c, 9, 55, 100
3, 14280, Note_on_c, 9, 35, 100
3, 14280, Note_on_c, 9, 35, 100
3, 14310, Note_on_c, 9, 35, 0
3, 14310, Note_on_c, 9, 35, 0
3, 14310, Note_on_c, 9, 55, 0
3, 14400, Note_on_c, 9, 50, 100
3, 14430, Note_on_c, 9, 50, 0
3, 14430, Note_on_c, 9, 47, 100
3, 14460, Note_on_c, 9, 47, 0
3, 14490, Note_on_c, 9, 55, 100
3, 14520, Note_on_c, 9, 55, 0
3, 14520, Note_on_c, 9, 35, 100
3, 14520, Note_on_c, 9, 57, 100
3, 14550, Note_on_c, 9, 57, 0
3, 14550, Note_on_c, 9, 35, 0
3, 14580, Note_on_c, 9, 44, 65
3, 14580, Note_on_c, 9, 51, 100
3, 14580, Note_on_c, 9, 35, 100
3, 14595, Note_on_c, 9, 44, 0
3, 14610, Note_on_c, 9, 35, 0
3, 14610, Note_on_c, 9, 51, 55
3, 14619, Note_on_c, 9, 51, 0
3, 14640, Note_on_c, 9, 44, 65
3, 14640, Note_on_c, 9, 51, 100
3, 14640, Note_on_c, 9, 40, 100
3, 14649, Note_on_c, 9, 51, 0
3, 14655, Note_on_c, 9, 44, 0
3, 14670, Note_on_c, 9, 40, 0
3, 14670, Note_on_c, 9, 51, 55
3, 14679, Note_on_c, 9, 51, 0
3, 14700, Note_on_c, 9, 44, 65
3, 14700, Note_on_c, 9, 51, 100
3, 14709, Note_on_c, 9, 51, 0
3, 14715, Note_on_c, 9, 44, 0
3, 14730, Note_on_c, 9, 51, 55
3, 14730, Note_on_c, 9, 35, 60
3, 14739, Note_on_c, 9, 51, 0
3, 14760, Note_on_c, 9, 35, 0
3, 14760, Note_on_c, 9, 44, 65
3, 14760, Note_on_c, 9, 51, 100
3, 14760, Note_on_c, 9, 35, 100
3, 14769, Note_on_c, 9, 51, 0
3, 14775, Note_on_c, 9, 44, 0
3, 14790, Note_on_c, 9, 35, 0
3, 14790, Note_on_c, 9, 51, 55
3, 14799, Note_on_c, 9, 51, 0
3, 14820, Note_on_c, 9, 44, 65
3, 14820, Note_on_c, 9, 51, 100
3, 14820, Note_on_c, 9, 35, 100
3, 14829, Note_on_c, 9, 51, 0
3, 14835, Note_on_c, 9, 44, 0
3, 14850, Note_on_c, 9, 35, 0
3, 14850, Note_on_c, 9, 51, 55
3, 14859, Note_on_c, 9, 51, 0
3, 14880, Note_on_c, 9, 51, 100
3, 14880, Note_on_c, 9, 40, 100
3, 14880, Note_on_c, 9, 44, 65
3, 14889, Note_on_c, 9, 51, 0
3, 14895, Note_on_c, 9, 44, 0
3, 14910, Note_on_c, 9, 40, 0
3, 14910, Note_on_c, 9, 51, 55
3, 14919, Note_on_c, 9, 51, 0
3, 14940, Note_on_c, 9, 44, 65
3, 14940, Note_on_c, 9, 51, 100
3, 14949, Note_on_c, 9, 51, 0
3, 14955, Note_on_c, 9, 44, 0
3, 14970, Note_on_c, 9, 51, 55
3, 14970, Note_on_c, 9, 35, 60
3, 14979, Note_on_c, 9, 51, 0
3, 15000, Note_on_c, 9, 35, 0
3, 15000, Note_on_c, 9, 44, 65
3, 15000, Note_on_c, 9, 51, 100
3, 15000, Note_on_c, 9, 35, 100
3, 15009, Note_on_c, 9, 51, 0
3, 15015, Note_on_c, 9, 44, 0
3, 15030, Note_on_c, 9, 35, 0
3, 15030, Note_on_c, 9, 51, 55
3, 15039, Note_on_c, 9, 51, 0
3, 15060, Note_on_c, 9, 44, 65
3, 15060, Note_on_c, 9, 51, 100
3, 15060, Note_on_c, 9, 35, 100
3, 15069, Note_on_c, 9, 51, 0
3, 15075, Note_on_c, 9, 44, 0
3, 15090, Note_on_c, 9, 35, 0
3, 15090, Note_on_c, 9, 51, 55
3, 15099, Note_on_c, 9, 51, 0
3, 15120, Note_on_c, 9, 44, 65
3, 15120, Note_on_c, 9, 40, 100
3, 15120, Note_on_c, 9, 51, 100
3, 15129, Note_on_c, 9, 51, 0
3, 15135, Note_on_c, 9, 44, 0
3, 15150, Note_on_c, 9, 51, 55
3, 15159, Note_on_c, 9, 40, 0
3, 15159, Note_on_c, 9, 51, 0
3, 15180, Note_on_c, 9, 44, 65
3, 15180, Note_on_c, 9, 51, 100
3, 15189, Note_on_c, 9, 51, 0
3, 15195, Note_on_c, 9, 44, 0
3, 15219, Note_on_c, 9, 51, 0
3, 15240, Note_on_c, 9, 48, 100
3, 15270, Note_on_c, 9, 48, 0
3, 15270, Note_on_c, 9, 48, 100
3, 15300, Note_on_c, 9, 48, 0
3, 15300, Note_on_c, 9, 48, 100
3, 15315, Note_on_c, 9, 48, 100
3, 15330, Note_on_c, 9, 48, 0
3, 15330, Note_on_c, 9, 35, 90
3, 15345, Note_on_c, 9, 35, 0
3, 15345, Note_on_c, 9, 48, 0
3, 15345, Note_on_c, 9, 35, 100
3, 15360, Note_on_c, 9, 47, 100
3, 15384, Note_on_c, 9, 35, 0
3, 15390, Note_on_c, 9, 47, 0
3, 15390, Note_on_c, 9, 47, 100
3, 15420, Note_on_c, 9, 47, 0
3, 15420, Note_on_c, 9, 47, 100
3, 15435, Note_on_c, 9, 47, 100
3, 15450, Note_on_c, 9, 47, 0
3, 15465, Note_on_c, 9, 47, 0
3, 15480, Note_on_c, 9, 57, 100
3, 15480, Note_on_c, 9, 35, 100
3, 15510, Note_on_c, 9, 35, 0
3, 15519, Note_on_c, 9, 57, 0
3, 15540, Note_on_c, 9, 44, 65
3, 15540, Note_on_c, 9, 35, 100
3, 15540, Note_on_c, 9, 51, 100
3, 15555, Note_on_c, 9, 44, 0
3, 15570, Note_on_c, 9, 35, 0
3, 15570, Note_on_c, 9, 51, 55
3, 15579, Note_on_c, 9, 51, 0
3, 15600, Note_on_c, 9, 44, 65
3, 15600, Note_on_c, 9, 51, 100
3, 15600, Note_on_c, 9, 40, 100
3, 15609, Note_on_c, 9, 51, 0
3, 15615, Note_on_c, 9, 44, 0
3, 15630, Note_on_c, 9, 40, 0
3, 15630, Note_on_c, 9, 51, 55
3, 15639, Note_on_c, 9, 51, 0
3, 15660, Note_on_c, 9, 44, 65
3, 15660, Note_on_c, 9, 51, 100
3, 15669, Note_on_c, 9, 51, 0
3, 15675, Note_on_c, 9, 44, 0
3, 15690, Note_on_c, 9, 51, 55
3, 15690, Note_on_c, 9, 35, 60
3, 15699, Note_on_c, 9, 51, 0
3, 15720, Note_on_c, 9, 35, 0
3, 15720, Note_on_c, 9, 44, 65
3, 15720, Note_on_c, 9, 51, 100
3, 15720, Note_on_c, 9, 35, 100
3, 15729, Note_on_c, 9, 51, 0
3, 15735, Note_on_c, 9, 44, 0
3, 15750, Note_on_c, 9, 35, 0
3, 15750, Note_on_c, 9, 51, 55
3, 15759, Note_on_c, 9, 51, 0
3, 15780, Note_on_c, 9, 44, 65
3, 15780, Note_on_c, 9, 51, 100
3, 15789, Note_on_c, 9, 51, 0
3, 15795, Note_on_c, 9, 44, 0
3, 15810, Note_on_c, 9, 51, 55
3, 15819, Note_on_c, 9, 51, 0
3, 15840, Note_on_c, 9, 44, 65
3, 15840, Note_on_c, 9, 51, 100
3, 15840, Note_on_c, 9, 40, 100
3, 15849, Note_on_c, 9, 51, 0
3, 15855, Note_on_c, 9, 44, 0
3, 15870, Note_on_c, 9, 40, 0
3, 15870, Note_on_c, 9, 51, 55
3, 15879, Note_on_c, 9, 51, 0
3, 15900, Note_on_c, 9, 44, 65
3, 15900, Note_on_c, 9, 51, 100
3, 15909, Note_on_c, 9, 51, 0
3, 15915, Note_on_c, 9, 44, 0
3, 15930, Note_on_c, 9, 51, 55
3, 15930, Note_on_c, 9, 35, 60
3, 15939, Note_on_c, 9, 51, 0
3, 15960, Note_on_c, 9, 35, 0
3, 15960, Note_on_c, 9, 44, 65
3, 15960, Note_on_c, 9, 51, 100
3, 15960, Note_on_c, 9, 35, 100
3, 15969, Note_on_c, 9, 51, 0
3, 15975, Note_on_c, 9, 44, 0
3, 15990, Note_on_c, 9, 35, 0
3, 15990, Note_on_c, 9, 51, 55
3, 15999, Note_on_c, 9, 51, 0
3, 16020, Note_on_c, 9, 44, 65
3, 16020, Note_on_c, 9, 51, 100
3, 16020, Note_on_c, 9, 35, 100
3, 16029, Note_on_c, 9, 51, 0
3, 16035, Note_on_c, 9, 44, 0
3, 16050, Note_on_c, 9, 35, 0
3, 16050, Note_on_c, 9, 51, 55
3, 16059, Note_on_c, 9, 51, 0
3, 16080, Note_on_c, 9, 44, 65
3, 16080, Note_on_c, 9, 40, 100
3, 16080, Note_on_c, 9, 51, 100
3, 16089, Note_on_c, 9, 51, 0
3, 16095, Note_on_c, 9, 44, 0
3, 16110, Note_on_c, 9, 51, 55
3, 16119, Note_on_c, 9, 40, 0
3, 16119, Note_on_c, 9, 51, 0
3, 16140, Note_on_c, 9, 44, 65
3, 16140, Note_on_c, 9, 51, 100
3, 16149, Note_on_c, 9, 51, 0
3, 16155, Note_on_c, 9, 44, 0
3, 16179, Note_on_c, 9, 51, 0
3, 16200, Note_on_c, 9, 55, 100
3, 16200, Note_on_c, 9, 35, 100
3, 16230, Note_on_c, 9, 35, 0
3, 16230, Note_on_c, 9, 55, 0
3, 16290, Note_on_c, 9, 57, 100
3, 16290, Note_on_c, 9, 35, 100
3, 16320, Note_on_c, 9, 35, 0
3, 16320, Note_on_c, 9, 57, 0
3, 16380, Note_on_c, 9, 52, 100
3, 16380, Note_on_c, 9, 35, 100
3, 16410, Note_on_c, 9, 35, 0
3, 16410, Note_on_c, 9, 52, 0
3, 16440, Note_on_c, 9, 57, 100
3, 16440, Note_on_c, 9, 35, 100
3, 16440, Note_on_c, 9, 57, 100
3, 16470, Note_on_c, 9, 57, 0
3, 16470, Note_on_c, 9, 35, 0
3, 16470, Note_on_c, 9, 57, 0
3, 16500, Note_on_c, 9, 44, 65
3, 16500, Note_on_c, 9, 51, 100
3, 16500, Note_on_c, 9, 35, 100
3, 16515, Note_on_c, 9, 44, 0
3, 16530, Note_on_c, 9, 35, 0
3, 16530, Note_on_c, 9, 51, 0
3, 16530, Note_on_c, 9, 35, 100
3, 16530, Note_on_c, 9, 51, 55
3, 16545, Note_on_c, 9, 35, 0
3, 16560, Note_on_c, 9, 51, 0
3, 16560, Note_on_c, 9, 44, 65
3, 16560, Note_on_c, 9, 51, 100
3, 16560, Note_on_c, 9, 40, 100
3, 16575, Note_on_c, 9, 44, 0
3, 16590, Note_on_c, 9, 40, 0
3, 16590, Note_on_c, 9, 51, 0
3, 16590, Note_on_c, 9, 51, 55
3, 16620, Note_on_c, 9, 51, 0
3, 16620, Note_on_c, 9, 51, 100
3, 16620, Note_on_c, 9, 44, 65
3, 16635, Note_on_c, 9, 44, 0
3, 16650, Note_on_c, 9, 51, 0
3, 16650, Note_on_c, 9, 51, 55
3, 16650, Note_on_c, 9, 35, 60
3, 16680, Note_on_c, 9, 35, 0
3, 16680, Note_on_c, 9, 51, 0
3, 16680, Note_on_c, 9, 51, 100
3, 16680, Note_on_c, 9, 35, 100
3, 16680, Note_on_c, 9, 44, 65
3, 16695, Note_on_c, 9, 44, 0
3, 16710, Note_on_c, 9, 35, 0
3, 16710, Note_on_c, 9, 51, 0
3, 16710, Note_on_c, 9, 51, 55
3, 16740, Note_on_c, 9, 51, 0
3, 16740, Note_on_c, 9, 51, 100
3, 16740, Note_on_c, 9, 35, 100
3, 16740, Note_on_c, 9, 44, 65
3, 16755, Note_on_c, 9, 44, 0
3, 16770, Note_on_c, 9, 35, 0
3, 16770, Note_on_c, 9, 51, 0
3, 16770, Note_on_c, 9, 35, 100
3, 16770, Note_on_c, 9, 51, 55
3, 16785, Note_on_c, 9, 35, 0
3, 16800, Note_on_c, 9, 51, 0
3, 16800, Note_on_c, 9, 44, 65
3, 16800, Note_on_c, 9, 51, 100
3, 16800, Note_on_c, 9, 40, 100
3, 16815, Note_on_c, 9, 44, 0
3, 16830, Note_on_c, 9, 40, 0
3, 16830, Note_on_c, 9, 51, 0
3, 16830, Note_on_c, 9, 35, 100
3, 16830, Note_on_c, 9, 51, 55
3, 16860, Note_on_c, 9, 51, 0
3, 16860, Note_on_c, 9, 35, 0
3, 16860, Note_on_c, 9, 44, 65
3, 16860, Note_on_c, 9, 51, 100
3, 16875, Note_on_c, 9, 44, 0
3, 16890, Note_on_c, 9, 51, 0
3, 16890, Note_on_c, 9, 51, 55
3, 16890, Note_on_c, 9, 35, 100
3, 16920, Note_on_c, 9, 35, 0
3, 16920, Note_on_c, 9, 51, 0
3, 16920, Note_on_c, 9, 44, 65
3, 16920, Note_on_c, 9, 51, 100
3, 16920, Note_on_c, 9, 35, 100
3, 16935, Note_on_c, 9, 44, 0
3, 16950, Note_on_c, 9, 35, 0
3, 16950, Note_on_c, 9, 51, 0
3, 16950, Note_on_c, 9, 51, 55
3, 16980, Note_on_c, 9, 51, 0
3, 16980, Note_on_c, 9, 35, 100
3, 16980, Note_on_c, 9, 44, 65
3, 16980, Note_on_c, 9, 51, 100
3, 16995, Note_on_c, 9, 44, 0
3, 17010, Note_on_c, 9, 51, 0
3, 17010, Note_on_c, 9, 35, 0
3, 17010, Note_on_c, 9, 51, 55
3, 17010, Note_on_c, 9, 35, 100
3, 17040, Note_on_c, 9, 35, 0
3, 17040, Note_on_c, 9, 51, 0
3, 17040, Note_on_c, 9, 44, 65
3, 17040, Note_on_c, 9, 51, 100
3, 17040, Note_on_c, 9, 40, 100
3, 17055, Note_on_c, 9, 44, 0
3, 17070, Note_on_c, 9, 40, 0
3, 17070, Note_on_c, 9, 51, 0
3, 17070, Note_on_c, 9, 51, 55
3, 17100, Note_on_c, 9, 51, 0
3, 17100, Note_on_c, 9, 44, 65
3, 17100, Note_on_c, 9, 51, 100
3, 17115, Note_on_c, 9, 44, 0
3, 17130, Note_on_c, 9, 51, 0
3, 17160, Note_on_c, 9, 48, 100
3, 17190, Note_on_c, 9, 48, 0
3, 17190, Note_on_c, 9, 47, 100
3, 17220, Note_on_c, 9, 47, 0
3, 17250, Note_on_c, 9, 45, 100
3, 17280, Note_on_c, 9, 45, 0
3, 17310, Note_on_c, 9, 43, 100
3, 17340, Note_on_c, 9, 43, 0
3, 17370, Note_on_c, 9, 41, 100
3, 17400, Note_on_c, 9, 41, 0
3, 17400, Note_on_c, 9, 52, 100
3, 17400, Note_on_c, 9, 35, 100
3, 17430, Note_on_c, 9, 35, 0
3, 17430, Note_on_c, 9, 52, 0
3, 17460, Note_on_c, 9, 44, 65
3, 17460, Note_on_c, 9, 51, 100
3, 17475, Note_on_c, 9, 44, 0
3, 17490, Note_on_c, 9, 51, 0
3, 17490, Note_on_c, 9, 51, 55
3, 17490, Note_on_c, 9, 35, 100
3, 17520, Note_on_c, 9, 35, 0
3, 17520, Note_on_c, 9, 51, 0
3, 17520, Note_on_c, 9, 44, 65
3, 17520, Note_on_c, 9, 51, 100
3, 17520, Note_on_c, 9, 40, 100
3, 17535, Note_on_c, 9, 44, 0
3, 17550, Note_on_c, 9, 40, 0
3, 17550, Note_on_c, 9, 51, 0
3, 17550, Note_on_c, 9, 51, 55
3, 17580, Note_on_c, 9, 51, 0
3, 17580, Note_on_c, 9, 44, 65
3, 17580, Note_on_c, 9, 51, 100
3, 17595, Note_on_c, 9, 44, 0
3, 17610, Note_on_c, 9, 51, 0
3, 17610, Note_on_c, 9, 35, 100
3, 17610, Note_on_c, 9, 51, 55
3, 17640, Note_on_c, 9, 51, 0
3, 17640, Note_on_c, 9, 35, 0
3, 17640, Note_on_c, 9, 44, 65
3, 17640, Note_on_c, 9, 51, 100
3, 17640, Note_on_c, 9, 35, 100
3, 17655, Note_on_c, 9, 44, 0
3, 17670, Note_on_c, 9, 35, 0
3, 17670, Note_on_c, 9, 51, 0
3, 17670, Note_on_c, 9, 51, 55
3, 17700, Note_on_c, 9, 51, 0
3, 17700, Note_on_c, 9, 44, 65
3, 17700, Note_on_c, 9, 51, 100
3, 17715, Note_on_c, 9, 44, 0
3, 17730, Note_on_c, 9, 51, 0
3, 17730, Note_on_c, 9, 51, 55
3, 17730, Note_on_c, 9, 35, 100
3, 17760, Note_on_c, 9, 35, 0
3, 17760, Note_on_c, 9, 51, 0
3, 17760, Note_on_c, 9, 44, 65
3, 17760, Note_on_c, 9, 51, 100
3, 17760, Note_on_c, 9, 40, 100
3, 17775, Note_on_c, 9, 44, 0
3, 17790, Note_on_c, 9, 40, 0
3, 17790, Note_on_c, 9, 51, 0
3, 17790, Note_on_c, 9, 51, 55
3, 17820, Note_on_c, 9, 51, 0
3, 17820, Note_on_c, 9, 44, 65
3, 17820, Note_on_c, 9, 51, 100
3, 17835, Note_on_c, 9, 44, 0
3, 17850, Note_on_c, 9, 51, 0
3, 17850, Note_on_c, 9, 35, 60
3, 17850, Note_on_c, 9, 51, 55
3, 17880, Note_on_c, 9, 51, 0
3, 17880, Note_on_c, 9, 35, 0
3, 17880, Note_on_c, 9, 44, 65
3, 17880, Note_on_c, 9, 51, 100
3, 17880, Note_on_c, 9, 35, 100
3, 17895, Note_on_c, 9, 44, 0
3, 17910, Note_on_c, 9, 35, 0
3, 17910, Note_on_c, 9, 51, 0
3, 17910, Note_on_c, 9, 51, 55
3, 17940, Note_on_c, 9, 51, 0
3, 17940, Note_on_c, 9, 44, 65
3, 17940, Note_on_c, 9, 51, 100
3, 17955, Note_on_c, 9, 44, 0
3, 17970, Note_on_c, 9, 51, 0
3, 17970, Note_on_c, 9, 51, 55
3, 18000, Note_on_c, 9, 51, 0
3, 18000, Note_on_c, 9, 44, 65
3, 18000, Note_on_c, 9, 51, 100
3, 18000, Note_on_c, 9, 40, 100
3, 18015, Note_on_c, 9, 44, 0
3, 18030, Note_on_c, 9, 40, 0
3, 18030, Note_on_c, 9, 51, 0
3, 18030, Note_on_c, 9, 51, 55
3, 18060, Note_on_c, 9, 51, 0
3, 18060, Note_on_c, 9, 44, 65
3, 18060, Note_on_c, 9, 51, 100
3, 18075, Note_on_c, 9, 44, 0
3, 18090, Note_on_c, 9, 51, 0
3, 18090, Note_on_c, 9, 51, 55
3, 18090, Note_on_c, 9, 35, 100
3, 18120, Note_on_c, 9, 35, 0
3, 18120, Note_on_c, 9, 51, 0
3, 18120, Note_on_c, 9, 44, 65
3, 18120, Note_on_c, 9, 51, 100
3, 18120, Note_on_c, 9, 35, 100
3, 18135, Note_on_c, 9, 44, 0
3, 18150, Note_on_c, 9, 35, 0
3, 18150, Note_on_c, 9, 51, 0
3, 18150, Note_on_c, 9, 51, 55
3, 18180, Note_on_c, 9, 51, 0
3, 18180, Note_on_c, 9, 44, 65
3, 18180, Note_on_c, 9, 51, 100
3, 18195, Note_on_c, 9, 44, 0
3, 18210, Note_on_c, 9, 51, 0
3, 18210, Note_on_c, 9, 35, 100
3, 18210, Note_on_c, 9, 51, 55
3, 18240, Note_on_c, 9, 51, 0
3, 18240, Note_on_c, 9, 35, 0
3, 18240, Note_on_c, 9, 44, 65
3, 18240, Note_on_c, 9, 51, 100
3, 18240, Note_on_c, 9, 40, 100
3, 18255, Note_on_c, 9, 44, 0
3, 18270, Note_on_c, 9, 40, 0
3, 18270, Note_on_c, 9, 51, 0
3, 18270, Note_on_c, 9, 51, 55
3, 18300, Note_on_c, 9, 51, 0
3, 18300, Note_on_c, 9, 44, 65
3, 18300, Note_on_c, 9, 51, 100
3, 18315, Note_on_c, 9, 44, 0
3, 18330, Note_on_c, 9, 51, 0
3, 18360, Note_on_c, 9, 55, 100
3, 18360, Note_on_c, 9, 35, 100
3, 18399, Note_on_c, 9, 35, 0
3, 18399, Note_on_c, 9, 55, 0
3, 18400, Note_on_c, 9, 57, 100
3, 18400, Note_on_c, 9, 35, 100
3, 18430, Note_on_c, 9, 57, 0
3, 18439, Note_on_c, 9, 35, 0
3, 18440, Note_on_c, 9, 51, 100
3, 18440, Note_on_c, 9, 35, 100
3, 18479, Note_on_c, 9, 35, 0
3, 18479, Note_on_c, 9, 51, 0
3, 18480, Note_on_c, 9, 35, 100
3, 18480, Note_on_c, 9, 52, 100
3, 18510, Note_on_c, 9, 52, 0
3, 18510, Note_on_c, 9, 35, 0
3, 18540, Note_on_c, 9, 44, 65
3, 18540, Note_on_c, 9, 51, 100
3, 18555, Note_on_c, 9, 44, 0
3, 18570, Note_on_c, 9, 51, 0
3, 18570, Note_on_c, 9, 35, 100
3, 18570, Note_on_c, 9, 51, 55
3, 18600, Note_on_c, 9, 35, 0
3, 18600, Note_on_c, 9, 44, 65
3, 18600, Note_on_c, 9, 51, 100
3, 18609, Note_on_c, 9, 51, 0
3, 18615, Note_on_c, 9, 44, 0
3, 18630, Note_on_c, 9, 51, 0
3, 18630, Note_on_c, 9, 51, 55
3, 18630, Note_on_c, 9, 35, 100
3, 18660, Note_on_c, 9, 35, 0
3, 18660, Note_on_c, 9, 44, 65
3, 18660, Note_on_c, 9, 51, 100
3, 18669, Note_on_c, 9, 51, 0
3, 18675, Note_on_c, 9, 44, 0
3, 18690, Note_on_c, 9, 51, 0
3, 18690, Note_on_c, 9, 51, 55
3, 18690, Note_on_c, 9, 35, 100
3, 18720, Note_on_c, 9, 35, 0
3, 18720, Note_on_c, 9, 44, 65
3, 18720, Note_on_c, 9, 51, 100
3, 18720, Note_on_c, 9, 40, 100
3, 18729, Note_on_c, 9, 51, 0
3, 18735, Note_on_c, 9, 44, 0
3, 18750, Note_on_c, 9, 51, 0
3, 18750, Note_on_c, 9, 40, 0
3, 18750, Note_on_c, 9, 51, 55
3, 18780, Note_on_c, 9, 44, 65
3, 18780, Note_on_c, 9, 51, 100
3, 18789, Note_on_c, 9, 51, 0
3, 18795, Note_on_c, 9, 44, 0
3, 18810, Note_on_c, 9, 51, 0
3, 18810, Note_on_c, 9, 51, 55
3, 18810, Note_on_c, 9, 35, 60
3, 18840, Note_on_c, 9, 35, 0
3, 18840, Note_on_c, 9, 44, 65
3, 18840, Note_on_c, 9, 51, 100
3, 18840, Note_on_c, 9, 35, 100
3, 18849, Note_on_c, 9, 51, 0
3, 18855, Note_on_c, 9, 44, 0
3, 18870, Note_on_c, 9, 51, 0
3, 18870, Note_on_c, 9, 35, 0
3, 18870, Note_on_c, 9, 51, 55
3, 18900, Note_on_c, 9, 44, 65
3, 18900, Note_on_c, 9, 51, 100
3, 18909, Note_on_c, 9, 51, 0
3, 18915, Note_on_c, 9, 44, 0
3, 18930, Note_on_c, 9, 51, 0
3, 18930, Note_on_c, 9, 51, 55
3, 18960, Note_on_c, 9, 51, 100
3, 18960, Note_on_c, 9, 40, 100
3, 18960, Note_on_c, 9, 44, 65
3, 18969, Note_on_c, 9, 51, 0
3, 18975, Note_on_c, 9, 44, 0
3, 18990, Note_on_c, 9, 40, 0
3, 18990, Note_on_c, 9, 51, 0
3, 18990, Note_on_c, 9, 51, 55
3, 19020, Note_on_c, 9, 51, 100
3, 19020, Note_on_c, 9, 44, 65
3, 19029, Note_on_c, 9, 51, 0
3, 19035, Note_on_c, 9, 44, 0
3, 19050, Note_on_c, 9, 51, 0
3, 19050, Note_on_c, 9, 35, 100
3, 19050, Note_on_c, 9, 51, 55
3, 19080, Note_on_c, 9, 35, 0
3, 19080, Note_on_c, 9, 44, 65
3, 19080, Note_on_c, 9, 51, 100
3, 19089, Note_on_c, 9, 51, 0
3, 19095, Note_on_c, 9, 44, 0
3, 19110, Note_on_c, 9, 51, 0
3, 19110, Note_on_c, 9, 51, 55
3, 19110, Note_on_c, 9, 35, 100
3, 19140, Note_on_c, 9, 35, 0
3, 19140, Note_on_c, 9, 44, 65
3, 19140, Note_on_c, 9, 51, 100
3, 19149, Note_on_c, 9, 51, 0
3, 19155, Note_on_c, 9, 44, 0
3, 19170, Note_on_c, 9, 51, 0
3, 19170, Note_on_c, 9, 51, 55
3, 19170, Note_on_c, 9, 35, 100
3, 19200, Note_on_c, 9, 35, 0
3, 19200, Note_on_c, 9, 44, 65
3, 19200, Note_on_c, 9, 51, 100
3, 19200, Note_on_c, 9, 40, 100
3, 19209, Note_on_c, 9, 51, 0
3, 19215, Note_on_c, 9, 44, 0
3, 19230, Note_on_c, 9, 51, 0
3, 19230, Note_on_c, 9, 40, 0
3, 19230, Note_on_c, 9, 51, 55
3, 19260, Note_on_c, 9, 44, 65
3, 19260, Note_on_c, 9, 51, 100
3, 19269, Note_on_c, 9, 51, 0
3, 19275, Note_on_c, 9, 44, 0
3, 19290, Note_on_c, 9, 51, 0
3, 19290, Note_on_c, 9, 35, 60
3, 19320, Note_on_c, 9, 35, 0
3, 19320, Note_on_c, 9, 52, 100
3, 19320, Note_on_c, 9, 35, 100
3, 19359, Note_on_c, 9, 35, 0
3, 19359, Note_on_c, 9, 52, 0
3, 19360, Note_on_c, 9, 57, 100
3, 19360, Note_on_c, 9, 35, 100
3, 19399, Note_on_c, 9, 35, 0
3, 19399, Note_on_c, 9, 57, 0
3, 19400, Note_on_c, 9, 57, 100
3, 19400, Note_on_c, 9, 35, 100
3, 19439, Note_on_c, 9, 35, 0
3, 19439, Note_on_c, 9, 57, 0
3, 19440, Note_on_c, 9, 49, 100
3, 19440, Note_on_c, 9, 35, 100
3, 19470, Note_on_c, 9, 35, 0
3, 19470, Note_on_c, 9, 49, 0
3, 19490, Note_on_c, 9, 44, 65
3, 19500, Note_on_c, 9, 51, 100
3, 19505, Note_on_c, 9, 44, 0
3, 19530, Note_on_c, 9, 51, 0
3, 19530, Note_on_c, 9, 35, 100
3, 19530, Note_on_c, 9, 51, 55
3, 19560, Note_on_c, 9, 35, 0
3, 19560, Note_on_c, 9, 44, 65
3, 19560, Note_on_c, 9, 51, 100
3, 19569, Note_on_c, 9, 51, 0
3, 19575, Note_on_c, 9, 44, 0
3, 19590, Note_on_c, 9, 51, 0
3, 19590, Note_on_c, 9, 51, 55
3, 19590, Note_on_c, 9, 35, 100
3, 19620, Note_on_c, 9, 35, 0
3, 19620, Note_on_c, 9, 44, 65
3, 19620, Note_on_c, 9, 51, 100
3, 19629, Note_on_c, 9, 51, 0
3, 19635, Note_on_c, 9, 44, 0
3, 19650, Note_on_c, 9, 51, 0
3, 19650, Note_on_c, 9, 51, 55
3, 19650, Note_on_c, 9, 35, 100
3, 19680, Note_on_c, 9, 35, 0
3, 19680, Note_on_c, 9, 44, 65
3, 19680, Note_on_c, 9, 51, 100
3, 19680, Note_on_c, 9, 40, 100
3, 19689, Note_on_c, 9, 51, 0
3, 19695, Note_on_c, 9, 44, 0
3, 19710, Note_on_c, 9, 51, 0
3, 19710, Note_on_c, 9, 40, 0
3, 19710, Note_on_c, 9, 51, 55
3, 19740, Note_on_c, 9, 51, 100
3, 19740, Note_on_c, 9, 44, 65
3, 19749, Note_on_c, 9, 51, 0
3, 19755, Note_on_c, 9, 44, 0
3, 19770, Note_on_c, 9, 51, 0
3, 19770, Note_on_c, 9, 51, 55
3, 19770, Note_on_c, 9, 35, 60
3, 19800, Note_on_c, 9, 35, 0
3, 19800, Note_on_c, 9, 44, 65
3, 19800, Note_on_c, 9, 51, 100
3, 19800, Note_on_c, 9, 35, 100
3, 19809, Note_on_c, 9, 51, 0
3, 19815, Note_on_c, 9, 44, 0
3, 19830, Note_on_c, 9, 51, 0
3, 19830, Note_on_c, 9, 35, 0
3, 19830, Note_on_c, 9, 51, 55
3, 19860, Note_on_c, 9, 44, 65
3, 19860, Note_on_c, 9, 51, 100
3, 19869, Note_on_c, 9, 51, 0
3, 19875, Note_on_c, 9, 44, 0
3, 19890, Note_on_c, 9, 51, 0
3, 19890, Note_on_c, 9, 51, 55
3, 19920, Note_on_c, 9, 44, 65
3, 19920, Note_on_c, 9, 51, 100
3, 19920, Note_on_c, 9, 40, 100
3, 19929, Note_on_c, 9, 51, 0
3, 19935, Note_on_c, 9, 44, 0
3, 19950, Note_on_c, 9, 51, 0
3, 19950, Note_on_c, 9, 40, 0
3, 19950, Note_on_c, 9, 51, 55
3, 19980, Note_on_c, 9, 44, 65
3, 19980, Note_on_c, 9, 51, 100
3, 19989, Note_on_c, 9, 51, 0
3, 19995, Note_on_c, 9, 44, 0
3, 20010, Note_on_c, 9, 51, 0
3, 20010, Note_on_c, 9, 51, 55
3, 20010, Note_on_c, 9, 35, 60
3, 20040, Note_on_c, 9, 35, 0
3, 20040, Note_on_c, 9, 44, 65
3, 20040, Note_on_c, 9, 51, 100
3, 20040, Note_on_c, 9, 35, 100
3, 20049, Note_on_c, 9, 51, 0
3, 20055, Note_on_c, 9, 44, 0
3, 20070, Note_on_c, 9, 51, 0
3, 20070, Note_on_c, 9, 35, 0
3, 20070, Note_on_c, 9, 51, 55
3, 20100, Note_on_c, 9, 44, 65
3, 20100, Note_on_c, 9, 51, 100
3, 20109, Note_on_c, 9, 51, 0
3, 20115, Note_on_c, 9, 44, 0
3, 20130, Note_on_c, 9, 51, 0
3, 20130, Note_on_c, 9, 51, 55
3, 20160, Note_on_c, 9, 44, 65
3, 20160, Note_on_c, 9, 40, 100
3, 20160, Note_on_c, 9, 51, 100
3, 20169, Note_on_c, 9, 51, 0
3, 20175, Note_on_c, 9, 44, 0
3, 20190, Note_on_c, 9, 40, 0
3, 20190, Note_on_c, 9, 51, 0
3, 20190, Note_on_c, 9, 51, 55
3, 20190, Note_on_c, 9, 35, 100
3, 20220, Note_on_c, 9, 35, 0
3, 20220, Note_on_c, 9, 51, 100
3, 20220, Note_on_c, 9, 44, 65
3, 20229, Note_on_c, 9, 51, 0
3, 20235, Note_on_c, 9, 44, 0
3, 20250, Note_on_c, 9, 51, 0
3, 20250, Note_on_c, 9, 35, 60
3, 20280, Note_on_c, 9, 35, 0
3, 20280, Note_on_c, 9, 51, 100
3, 20280, Note_on_c, 9, 35, 100
3, 20319, Note_on_c, 9, 35, 0
3, 20319, Note_on_c, 9, 51, 0
3, 20320, Note_on_c, 9, 52, 100
3, 20320, Note_on_c, 9, 35, 100
3, 20359, Note_on_c, 9, 35, 0
3, 20359, Note_on_c, 9, 52, 0
3, 20360, Note_on_c, 9, 57, 100
3, 20360, Note_on_c, 9, 35, 100
3, 20399, Note_on_c, 9, 35, 0
3, 20399, Note_on_c, 9, 57, 0
3, 20400, Note_on_c, 9, 49, 100
3, 20400, Note_on_c, 9, 35, 100
3, 20430, Note_on_c, 9, 35, 0
3, 20430, Note_on_c, 9, 49, 0
3, 20460, Note_on_c, 9, 44, 65
3, 20460, Note_on_c, 9, 51, 100
3, 20475, Note_on_c, 9, 44, 0
3, 20490, Note_on_c, 9, 51, 0
3, 20490, Note_on_c, 9, 35, 100
3, 20490, Note_on_c, 9, 51, 55
3, 20520, Note_on_c, 9, 35, 0
3, 20520, Note_on_c, 9, 44, 65
3, 20520, Note_on_c, 9, 51, 100
3, 20529, Note_on_c, 9, 51, 0
3, 20535, Note_on_c, 9, 44, 0
3, 20550, Note_on_c, 9, 51, 0
3, 20550, Note_on_c, 9, 51, 55
3, 20550, Note_on_c, 9, 35, 100
3, 20580, Note_on_c, 9, 35, 0
3, 20580, Note_on_c, 9, 51, 100
3, 20580, Note_on_c, 9, 44, 65
3, 20589, Note_on_c, 9, 51, 0
3, 20595, Note_on_c, 9, 44, 0
3, 20610, Note_on_c, 9, 51, 0
3, 20610, Note_on_c, 9, 51, 55
3, 20610, Note_on_c, 9, 35, 100
3, 20640, Note_on_c, 9, 35, 0
3, 20640, Note_on_c, 9, 44, 65
3, 20640, Note_on_c, 9, 51, 100
3, 20640, Note_on_c, 9, 40, 100
3, 20649, Note_on_c, 9, 51, 0
3, 20655, Note_on_c, 9, 44, 0
3, 20670, Note_on_c, 9, 51, 0
3, 20670, Note_on_c, 9, 40, 0
3, 20670, Note_on_c, 9, 51, 55
3, 20700, Note_on_c, 9, 51, 100
3, 20700, Note_on_c, 9, 44, 65
3, 20709, Note_on_c, 9, 51, 0
3, 20715, Note_on_c, 9, 44, 0
3, 20730, Note_on_c, 9, 51, 0
3, 20730, Note_on_c, 9, 35, 60
3, 20730, Note_on_c, 9, 51, 55
3, 20760, Note_on_c, 9, 35, 0
3, 20760, Note_on_c, 9, 44, 65
3, 20760, Note_on_c, 9, 51, 100
3, 20760, Note_on_c, 9, 35, 100
3, 20769, Note_on_c, 9, 51, 0
3, 20775, Note_on_c, 9, 44, 0
3, 20790, Note_on_c, 9, 51, 0
3, 20790, Note_on_c, 9, 35, 0
3, 20790, Note_on_c, 9, 51, 55
3, 20820, Note_on_c, 9, 51, 100
3, 20820, Note_on_c, 9, 44, 65
3, 20829, Note_on_c, 9, 51, 0
3, 20835, Note_on_c, 9, 44, 0
3, 20850, Note_on_c, 9, 51, 0
3, 20850, Note_on_c, 9, 51, 55
3, 20880, Note_on_c, 9, 51, 100
3, 20880, Note_on_c, 9, 40, 100
3, 20880, Note_on_c, 9, 44, 65
3, 20889, Note_on_c, 9, 51, 0
3, 20895, Note_on_c, 9, 44, 0
3, 20910, Note_on_c, 9, 40, 0
3, 20910, Note_on_c, 9, 51, 0
3, 20970, Note_on_c, 9, 35, 100
3, 21000, Note_on_c, 9, 35, 0
3, 21002, Note_on_c, 9, 40, 100
3, 21002, Note_on_c, 9, 35, 100
3, 21032, Note_on_c, 9, 35, 0
3, 21032, Note_on_c, 9, 40, 0
3, 21032, Note_on_c, 9, 40, 100
3, 21062, Note_on_c, 9, 40, 0
3, 21062, Note_on_c, 9, 43, 100
3, 21092, Note_on_c, 9, 43, 0
3, 21092, Note_on_c, 9, 43, 100
3, 21122, Note_on_c, 9, 43, 0
3, 21122, Note_on_c, 9, 41, 100
3, 21152, Note_on_c, 9, 41, 0
3, 21182, Note_on_c, 9, 41, 100
3, 21212, Note_on_c, 9, 41, 0
3, 21240, Note_on_c, 9, 49, 100
3, 21242, Note_on_c, 9, 35, 100
3, 21270, Note_on_c, 9, 49, 0
3, 21272, Note_on_c, 9, 35, 0
3, 21360, Note_on_c, 9, 49, 100
3, 21360, Note_on_c, 9, 35, 100
3, 21362, Note_on_c, 9, 40, 100
3, 21390, Note_on_c, 9, 35, 0
3, 21390, Note_on_c, 9, 49, 0
3, 21392, Note_on_c, 9, 40, 0
3, 21540, Note_on_c, 9, 35, 100
3, 21540, Note_on_c, 9, 52, 100
3, 21570, Note_on_c, 9, 52, 0
3, 21570, Note_on_c, 9, 35, 0
3, 21630, Note_on_c, 9, 55, 100
3, 21630, Note_on_c, 9, 35, 100
3, 21660, Note_on_c, 9, 35, 0
3, 21660, Note_on_c, 9, 55, 0
3, 21720, Note_on_c, 9, 57, 100
3, 21720, Note_on_c, 9, 35, 100
3, 21750, Note_on_c, 9, 35, 0
3, 21750, Note_on_c, 9, 57, 0
3, 21780, Note_on_c, 9, 51, 100
3, 21780, Note_on_c, 9, 44, 65
3, 21795, Note_on_c, 9, 44, 0
3, 21810, Note_on_c, 9, 51, 0
3, 21810, Note_on_c, 9, 35, 100
3, 21840, Note_on_c, 9, 35, 0
3, 21840, Note_on_c, 9, 44, 65
3, 21840, Note_on_c, 9, 51, 100
3, 21840, Note_on_c, 9, 40, 100
3, 21855, Note_on_c, 9, 44, 0
3, 21870, Note_on_c, 9, 40, 0
3, 21870, Note_on_c, 9, 51, 0
3, 21900, Note_on_c, 9, 44, 65
3, 21900, Note_on_c, 9, 51, 100
3, 21900, Note_on_c, 9, 35, 100
3, 21915, Note_on_c, 9, 44, 0
3, 21930, Note_on_c, 9, 35, 0
3, 21930, Note_on_c, 9, 51, 0
3, 21960, Note_on_c, 9, 44, 65
3, 21960, Note_on_c, 9, 51, 100
3, 21975, Note_on_c, 9, 44, 0
3, 21990, Note_on_c, 9, 51, 0
3, 21990, Note_on_c, 9, 35, 100
3, 22020, Note_on_c, 9, 35, 0
3, 22020, Note_on_c, 9, 44, 65
3, 22020, Note_on_c, 9, 51, 100
3, 22035, Note_on_c, 9, 44, 0
3, 22050, Note_on_c, 9, 51, 0
3, 22080, Note_on_c, 9, 44, 65
3, 22080, Note_on_c, 9, 51, 100
3, 22080, Note_on_c, 9, 40, 100
3, 22095, Note_on_c, 9, 44, 0
3, 22110, Note_on_c, 9, 40, 0
3, 22110, Note_on_c, 9, 51, 0
3, 22140, Note_on_c, 9, 44, 65
3, 22140, Note_on_c, 9, 51, 100
3, 22155, Note_on_c, 9, 44, 0
3, 22170, Note_on_c, 9, 51, 0
3, 22170, Note_on_c, 9, 35, 60
3, 22200, Note_on_c, 9, 35, 0
3, 22200, Note_on_c, 9, 49, 100
3, 22200, Note_on_c, 9, 35, 100
3, 22230, Note_on_c, 9, 35, 0
3, 22230, Note_on_c, 9, 49, 0
3, 22320, Note_on_c, 9, 49, 100
3, 22320, Note_on_c, 9, 35, 100
3, 22350, Note_on_c, 9, 35, 0
3, 22350, Note_on_c, 9, 49, 0
3, 22440, Note_on_c, 9, 35, 100
3, 22470, Note_on_c, 9, 35, 0
3, 22530, Note_on_c, 9, 35, 60
3, 22560, Note_on_c, 9, 35, 0
3, 22560, Note_on_c, 9, 35, 100
3, 22560, Note_on_c, 9, 50, 100
3, 22590, Note_on_c, 9, 50, 0
3, 22590, Note_on_c, 9, 35, 0
3, 22590, Note_on_c, 9, 50, 100
3, 22620, Note_on_c, 9, 50, 0
3, 22620, Note_on_c, 9, 50, 100
3, 22650, Note_on_c, 9, 50, 0
3, 22650, Note_on_c, 9, 50, 100
3, 22665, Note_on_c, 9, 50, 0
3, 22665, Note_on_c, 9, 50, 100
3, 22680, Note_on_c, 9, 50, 0
3, 22680, Note_on_c, 9, 42, 100
3, 22710, Note_on_c, 9, 42, 0
3, 22720, Note_on_c, 9, 42, 100
3, 22735, Note_on_c, 9, 42, 0
3, 22740, Note_on_c, 9, 42, 100
3, 22770, Note_on_c, 9, 42, 0
3, 22780, Note_on_c, 9, 42, 100
3, 22795, Note_on_c, 9, 42, 0
3, 22800, Note_on_c, 9, 37, 100
3, 22800, Note_on_c, 9, 35, 100
3, 22800, Note_on_c, 9, 42, 100
3, 22830, Note_on_c, 9, 42, 0
3, 22830, Note_on_c, 9, 35, 0
3, 22830, Note_on_c, 9, 37, 0
3, 22840, Note_on_c, 9, 42, 100
3, 22855, Note_on_c, 9, 42, 0
3, 22860, Note_on_c, 9, 42, 100
3, 22890, Note_on_c, 9, 42, 0
3, 22900, Note_on_c, 9, 42, 100
3, 22915, Note_on_c, 9, 42, 0
3, 22920, Note_on_c, 9, 42, 100
3, 22950, Note_on_c, 9, 42, 0
3, 22960, Note_on_c, 9, 42, 100
3, 22975, Note_on_c, 9, 42, 0
3, 22980, Note_on_c, 9, 42, 100
3, 23010, Note_on_c, 9, 42, 0
3, 23020, Note_on_c, 9, 42, 100
3, 23035, Note_on_c, 9, 42, 0
3, 23040, Note_on_c, 9, 37, 100
3, 23040, Note_on_c, 9, 35, 100
3, 23040, Note_on_c, 9, 42, 100
3, 23070, Note_on_c, 9, 42, 0
3, 23070, Note_on_c, 9, 35, 0
3, 23070, Note_on_c, 9, 37, 0
3, 23080, Note_on_c, 9, 42, 100
3, 23095, Note_on_c, 9, 42, 0
3, 23100, Note_on_c, 9, 42, 100
3, 23130, Note_on_c, 9, 42, 0
3, 23140, Note_on_c, 9, 42, 100
3, 23155, Note_on_c, 9, 42, 0
3, 23160, Note_on_c, 9, 42, 100
3, 23190, Note_on_c, 9, 42, 0
3, 23200, Note_on_c, 9, 42, 100
3, 23215, Note_on_c, 9, 42, 0
3, 23220, Note_on_c, 9, 42, 100
3, 23250, Note_on_c, 9, 42, 0
3, 23260, Note_on_c, 9, 42, 100
3, 23275, Note_on_c, 9, 42, 0
3, 23280, Note_on_c, 9, 37, 100
3, 23280, Note_on_c, 9, 35, 100
3, 23280, Note_on_c, 9, 42, 100
3, 23310, Note_on_c, 9, 42, 0
3, 23310, Note_on_c, 9, 35, 0
3, 23310, Note_on_c, 9, 37, 0
3, 23320, Note_on_c, 9, 42, 100
3, 23335, Note_on_c, 9, 42, 0
3, 23340, Note_on_c, 9, 42, 100
3, 23370, Note_on_c, 9, 42, 0
3, 23380, Note_on_c, 9, 42, 100
3, 23395, Note_on_c, 9, 42, 0
3, 23400, Note_on_c, 9, 42, 100
3, 23430, Note_on_c, 9, 42, 0
3, 23440, Note_on_c, 9, 42, 100
3, 23455, Note_on_c, 9, 42, 0
3, 23460, Note_on_c, 9, 42, 100
3, 23490, Note_on_c, 9, 42, 0
3, 23500, Note_on_c, 9, 42, 100
3, 23515, Note_on_c, 9, 42, 0
3, 23520, Note_on_c, 9, 37, 100
3, 23520, Note_on_c, 9, 35, 100
3, 23520, Note_on_c, 9, 42, 100
3, 23550, Note_on_c, 9, 42, 0
3, 23550, Note_on_c, 9, 35, 0
3, 23550, Note_on_c, 9, 37, 0
3, 23560, Note_on_c, 9, 42, 100
3, 23575, Note_on_c, 9, 42, 0
3, 23580, Note_on_c, 9, 42, 100
3, 23610, Note_on_c, 9, 42, 0
3, 23620, Note_on_c, 9, 42, 100
3, 23635, Note_on_c, 9, 42, 0
3, 23635, End_track
4, 0, Start_track
4, 0, MIDI_port, 0
4, 0, Title_t, "Keys"
4, 0, Control_c, 1, 0, 0
4, 0, Control_c, 1, 32, 0
4, 0, Program_c, 1, 88
4, 0, Control_c, 1, 7, 80
4, 0, Control_c, 1, 10, 34
4, 720, Note_on_c, 1, 56, 100
4, 750, Note_on_c, 1, 56, 0
4, 750, Note_on_c, 1, 61, 100
4, 780, Note_on_c, 1, 61, 0
4, 780, Note_on_c, 1, 63, 100
4, 810, Note_on_c, 1, 63, 0
4, 810, Note_on_c, 1, 64, 100
4, 840, Note_on_c, 1, 64, 0
4, 840, Note_on_c, 1, 63, 100
4, 900, Note_on_c, 1, 63, 0
4, 900, Note_on_c, 1, 61, 100
4, 960, Note_on_c, 1, 61, 0
4, 960, Note_on_c, 1, 63, 100
4, 960, Note_on_c, 1, 59, 100
4, 960, Note_on_c, 1, 66, 100
4, 990, Note_on_c, 1, 66, 0
4, 990, Note_on_c, 1, 59, 0
4, 990, Note_on_c, 1, 63, 0
4, 1020, Note_on_c, 1, 63, 100
4, 1020, Note_on_c, 1, 59, 100
4, 1020, Note_on_c, 1, 66, 100
4, 1800, Note_on_c, 1, 66, 0
4, 1800, Note_on_c, 1, 59, 0
4, 1800, Note_on_c, 1, 63, 0
4, 1920, Note_on_c, 1, 56, 100
4, 1950, Note_on_c, 1, 56, 0
4, 1950, Note_on_c, 1, 61, 100
4, 1980, Note_on_c, 1, 61, 0
4, 1980, Note_on_c, 1, 63, 100
4, 2010, Note_on_c, 1, 63, 0
4, 2010, Note_on_c, 1, 64, 100
4, 2040, Note_on_c, 1, 64, 0
4, 2040, Note_on_c, 1, 63, 100
4, 2100, Note_on_c, 1, 63, 0
4, 2100, Note_on_c, 1, 61, 100
4, 2160, Note_on_c, 1, 61, 0
4, 2160, Note_on_c, 1, 71, 100
4, 2160, Note_on_c, 1, 62, 100
4, 2160, Note_on_c, 1, 67, 100
4, 2220, Note_on_c, 1, 67, 0
4, 2220, Note_on_c, 1, 62, 0
4, 2220, Note_on_c, 1, 71, 0
4, 2220, Note_on_c, 1, 60, 100
4, 2220, Note_on_c, 1, 69, 100
4, 2220, Note_on_c, 1, 65, 100
4, 3000, Note_on_c, 1, 65, 0
4, 3000, Note_on_c, 1, 69, 0
4, 3000, Note_on_c, 1, 60, 0
4, 3120, Note_on_c, 1, 56, 100
4, 3150, Note_on_c, 1, 56, 0
4, 3150, Note_on_c, 1, 61, 100
4, 3180, Note_on_c, 1, 61, 0
4, 3180, Note_on_c, 1, 63, 100
4, 3210, Note_on_c, 1, 63, 0
4, 3210, Note_on_c, 1, 64, 100
4, 3240, Note_on_c, 1, 64, 0
4, 3240, Note_on_c, 1, 63, 100
4, 3300, Note_on_c, 1, 63, 0
4, 3300, Note_on_c, 1, 61, 100
4, 3360, Note_on_c, 1, 61, 0
4, 3360, Note_on_c, 1, 63, 100
4, 3360, Note_on_c, 1, 59, 100
4, 3360, Note_on_c, 1, 66, 100
4, 3379, Note_on_c, 1, 66, 0
4, 3390, Note_on_c, 1, 59, 0
4, 3390, Note_on_c, 1, 63, 0
4, 3420, Note_on_c, 1, 59, 100
4, 3420, Note_on_c, 1, 63, 100
4, 3420, Note_on_c, 1, 66, 100
4, 3540, Note_on_c, 1, 66, 0
4, 3540, Note_on_c, 1, 63, 0
4, 3540, Note_on_c, 1, 59, 0
4, 3960, Note_on_c, 1, 50, 100
4, 3960, Note_on_c, 1, 68, 100
4, 3960, Note_on_c, 1, 65, 100
4, 3960, Note_on_c, 1, 61, 100
4, 4020, Note_on_c, 1, 61, 0
4, 4020, Note_on_c, 1, 50, 0
4, 4020, Note_on_c, 1, 68, 0
4, 4020, Note_on_c, 1, 65, 0
4, 4080, Note_on_c, 1, 50, 100
4, 4080, Note_on_c, 1, 68, 100
4, 4080, Note_on_c, 1, 65, 100
4, 4080, Note_on_c, 1, 61, 100
4, 4140, Note_on_c, 1, 61, 0
4, 4140, Note_on_c, 1, 50, 0
4, 4140, Note_on_c, 1, 68, 0
4, 4140, Note_on_c, 1, 65, 0
4, 4200, Note_on_c, 1, 50, 100
4, 4200, Note_on_c, 1, 61, 100
4, 4200, Note_on_c, 1, 65, 100
4, 4200, Note_on_c, 1, 68, 100
4, 4560, Note_on_c, 1, 68, 0
4, 4560, Note_on_c, 1, 50, 0
4, 4560, Note_on_c, 1, 61, 0
4, 4560, Note_on_c, 1, 65, 0
4, 4680, Note_on_c, 1, 52, 100
4, 4680, Note_on_c, 1, 59, 100
4, 4680, Note_on_c, 1, 63, 100
4, 4680, Note_on_c, 1, 66, 100
4, 4740, Note_on_c, 1, 66, 0
4, 4740, Note_on_c, 1, 52, 0
4, 4740, Note_on_c, 1, 59, 0
4, 4740, Note_on_c, 1, 63, 0
4, 4800, Note_on_c, 1, 52, 100
4, 4800, Note_on_c, 1, 59, 100
4, 4800, Note_on_c, 1, 63, 100
4, 4800, Note_on_c, 1, 66, 100
4, 4860, Note_on_c, 1, 66, 0
4, 4860, Note_on_c, 1, 52, 0
4, 4860, Note_on_c, 1, 59, 0
4, 4860, Note_on_c, 1, 63, 0
4, 4920, Note_on_c, 1, 52, 100
4, 4920, Note_on_c, 1, 59, 100
4, 4920, Note_on_c, 1, 63, 100
4, 4920, Note_on_c, 1, 66, 100
4, 5505, Note_on_c, 1, 63, 0
4, 5505, Note_on_c, 1, 59, 0
4, 5520, Note_on_c, 1, 52, 0
4, 5520, Note_on_c, 1, 66, 0
4, 5640, Note_on_c, 1, 47, 100
4, 5640, Note_on_c, 1, 68, 100
4, 5640, Note_on_c, 1, 61, 100
4, 5640, Note_on_c, 1, 57, 100
4, 5640, Note_on_c, 1, 52, 100
4, 5670, Note_on_c, 1, 52, 0
4, 5670, Note_on_c, 1, 61, 0
4, 5670, Note_on_c, 1, 47, 0
4, 5670, Note_on_c, 1, 68, 0
4, 5670, Note_on_c, 1, 57, 0
4, 5760, Note_on_c, 1, 64, 100
4, 5760, Note_on_c, 1, 57, 100
4, 5760, Note_on_c, 1, 68, 100
4, 5760, Note_on_c, 1, 71, 100
4, 5760, Note_on_c, 1, 54, 100
4, 5790, Note_on_c, 1, 54, 0
4, 5790, Note_on_c, 1, 68, 0
4, 5790, Note_on_c, 1, 64, 0
4, 5790, Note_on_c, 1, 57, 0
4, 5790, Note_on_c, 1, 71, 0
4, 5880, Note_on_c, 1, 75, 100
4, 5880, Note_on_c, 1, 71, 100
4, 5880, Note_on_c, 1, 66, 100
4, 5880, Note_on_c, 1, 61, 100
4, 5880, Note_on_c, 1, 56, 100
4, 6120, Note_on_c, 1, 71, 0
4, 6120, Note_on_c, 1, 75, 0
4, 6525, Note_on_c, 1, 56, 0
4, 6540, Note_on_c, 1, 66, 0
4, 6540, Note_on_c, 1, 61, 0
4, 6600, Note_on_c, 1, 71, 100
4, 6600, Note_on_c, 1, 68, 100
4, 6600, Note_on_c, 1, 64, 100
4, 6600, Note_on_c, 1, 57, 100
4, 6600, Note_on_c, 1, 54, 100
4, 6840, Note_on_c, 1, 54, 0
4, 6840, Note_on_c, 1, 64, 0
4, 6840, Note_on_c, 1, 71, 0
4, 6840, Note_on_c, 1, 68, 0
4, 6840, Note_on_c, 1, 57, 0
4, 6840, Note_on_c, 1, 54, 100
4, 6840, Note_on_c, 1, 51, 100
4, 6840, Note_on_c, 1, 65, 100
4, 6840, Note_on_c, 1, 61, 100
4, 6840, Note_on_c, 1, 68, 100
4, 7485, Note_on_c, 1, 61, 0
4, 7485, Note_on_c, 1, 51, 0
4, 7485, Note_on_c, 1, 54, 0
4, 7500, Note_on_c, 1, 65, 0
4, 7500, Note_on_c, 1, 68, 0
4, 7560, Note_on_c, 1, 68, 100
4, 7560, Note_on_c, 1, 61, 100
4, 7560, Note_on_c, 1, 57, 100
4, 7560, Note_on_c, 1, 52, 100
4, 7560, Note_on_c, 1, 47, 100
4, 7590, Note_on_c, 1, 47, 0
4, 7590, Note_on_c, 1, 57, 0
4, 7590, Note_on_c, 1, 68, 0
4, 7590, Note_on_c, 1, 61, 0
4, 7590, Note_on_c, 1, 52, 0
4, 7680, Note_on_c, 1, 64, 100
4, 7680, Note_on_c, 1, 57, 100
4, 7680, Note_on_c, 1, 68, 100
4, 7680, Note_on_c, 1, 71, 100
4, 7680, Note_on_c, 1, 54, 100
4, 7710, Note_on_c, 1, 54, 0
4, 7710, Note_on_c, 1, 68, 0
4, 7710, Note_on_c, 1, 64, 0
4, 7710, Note_on_c, 1, 57, 0
4, 7710, Note_on_c, 1, 71, 0
4, 7800, Note_on_c, 1, 75, 100
4, 7800, Note_on_c, 1, 71, 100
4, 7800, Note_on_c, 1, 66, 100
4, 7800, Note_on_c, 1, 61, 100
4, 7800, Note_on_c, 1, 56, 100
4, 8040, Note_on_c, 1, 71, 0
4, 8040, Note_on_c, 1, 75, 0
4, 8445, Note_on_c, 1, 61, 0
4, 8445, Note_on_c, 1, 56, 0
4, 8460, Note_on_c, 1, 66, 0
4, 8520, Note_on_c, 1, 71, 100
4, 8520, Note_on_c, 1, 68, 100
4, 8520, Note_on_c, 1, 64, 100
4, 8520, Note_on_c, 1, 57, 100
4, 8520, Note_on_c, 1, 54, 100
4, 8760, Note_on_c, 1, 54, 0
4, 8760, Note_on_c, 1, 64, 0
4, 8760, Note_on_c, 1, 71, 0
4, 8760, Note_on_c, 1, 68, 0
4, 8760, Note_on_c, 1, 57, 0
4, 8760, Note_on_c, 1, 68, 100
4, 8760, Note_on_c, 1, 65, 100
4, 8760, Note_on_c, 1, 61, 100
4, 8760, Note_on_c, 1, 54, 100
4, 8760, Note_on_c, 1, 51, 100
4, 9650, Note_on_c, 1, 51, 0
4, 9650, Note_on_c, 1, 54, 0
4, 9660, Note_on_c, 1, 68, 0
4, 9660, Note_on_c, 1, 65, 0
4, 9660, Note_on_c, 1, 61, 0
4, 9720, Note_on_c, 1, 66, 100
4, 9720, Note_on_c, 1, 63, 100
4, 9720, Note_on_c, 1, 59, 100
4, 10620, Note_on_c, 1, 59, 0
4, 10620, Note_on_c, 1, 63, 0
4, 10620, Note_on_c, 1, 66, 0
4, 10680, Note_on_c, 1, 54, 100
4, 10720, Note_on_c, 1, 56, 100
4, 10740, Note_on_c, 1, 54, 0
4, 10760, Note_on_c, 1, 61, 100
4, 10780, Note_on_c, 1, 56, 0
4, 10800, Note_on_c, 1, 65, 100
4, 10813, Note_on_c, 1, 61, 0
4, 11580, Note_on_c, 1, 65, 0
4, 11640, Note_on_c, 1, 55, 100
4, 11680, Note_on_c, 1, 57, 100
4, 11693, Note_on_c, 1, 55, 0
4, 11720, Note_on_c, 1, 62, 100
4, 11733, Note_on_c, 1, 57, 0
4, 11759, Note_on_c, 1, 62, 0
4, 11760, Note_on_c, 1, 66, 100
4, 12570, Note_on_c, 1, 66, 0
4, 12600, Note_on_c, 1, 57, 100
4, 12639, Note_on_c, 1, 59, 100
4, 12660, Note_on_c, 1, 57, 0
4, 12680, Note_on_c, 1, 64, 100
4, 12699, Note_on_c, 1, 59, 0
4, 12720, Note_on_c, 1, 68, 100
4, 12740, Note_on_c, 1, 64, 0
4, 13245, Note_on_c, 1, 68, 0
4, 13320, Note_on_c, 1, 68, 100
4, 13320, Note_on_c, 1, 61, 100
4, 13320, Note_on_c, 1, 57, 100
4, 13320, Note_on_c, 1, 52, 100
4, 13320, Note_on_c, 1, 47, 100
4, 13350, Note_on_c, 1, 47, 0
4, 13350, Note_on_c, 1, 57, 0
4, 13350, Note_on_c, 1, 68, 0
4, 13350, Note_on_c, 1, 61, 0
4, 13350, Note_on_c, 1, 52, 0
4, 13440, Note_on_c, 1, 64, 100
4, 13440, Note_on_c, 1, 57, 100
4, 13440, Note_on_c, 1, 68, 100
4, 13440, Note_on_c, 1, 71, 100
4, 13440, Note_on_c, 1, 54, 100
4, 13470, Note_on_c, 1, 54, 0
4, 13470, Note_on_c, 1, 68, 0
4, 13470, Note_on_c, 1, 64, 0
4, 13470, Note_on_c, 1, 57, 0
4, 13470, Note_on_c, 1, 71, 0
4, 13560, Note_on_c, 1, 75, 100
4, 13560, Note_on_c, 1, 71, 100
4, 13560, Note_on_c, 1, 66, 100
4, 13560, Note_on_c, 1, 61, 100
4, 13560, Note_on_c, 1, 56, 100
4, 13800, Note_on_c, 1, 71, 0
4, 13800, Note_on_c, 1, 75, 0
4, 14205, Note_on_c, 1, 56, 0
4, 14220, Note_on_c, 1, 66, 0
4, 14220, Note_on_c, 1, 61, 0
4, 14280, Note_on_c, 1, 71, 100
4, 14280, Note_on_c, 1, 68, 100
4, 14280, Note_on_c, 1, 64, 100
4, 14280, Note_on_c, 1, 57, 100
4, 14280, Note_on_c, 1, 54, 100
4, 14520, Note_on_c, 1, 54, 0
4, 14520, Note_on_c, 1, 64, 0
4, 14520, Note_on_c, 1, 71, 0
4, 14520, Note_on_c, 1, 68, 0
4, 14520, Note_on_c, 1, 57, 0
4, 14520, Note_on_c, 1, 68, 100
4, 14520, Note_on_c, 1, 65, 100
4, 14520, Note_on_c, 1, 61, 100
4, 14520, Note_on_c, 1, 54, 100
4, 14520, Note_on_c, 1, 51, 100
4, 15165, Note_on_c, 1, 61, 0
4, 15180, Note_on_c, 1, 54, 0
4, 15180, Note_on_c, 1, 68, 0
4, 15180, Note_on_c, 1, 65, 0
4, 15180, Note_on_c, 1, 51, 0
4, 15240, Note_on_c, 1, 68, 100
4, 15240, Note_on_c, 1, 61, 100
4, 15240, Note_on_c, 1, 57, 100
4, 15240, Note_on_c, 1, 52, 100
4, 15240, Note_on_c, 1, 47, 100
4, 15270, Note_on_c, 1, 47, 0
4, 15270, Note_on_c, 1, 57, 0
4, 15270, Note_on_c, 1, 68, 0
4, 15270, Note_on_c, 1, 61, 0
4, 15270, Note_on_c, 1, 52, 0
4, 15360, Note_on_c, 1, 64, 100
4, 15360, Note_on_c, 1, 57, 100
4, 15360, Note_on_c, 1, 68, 100
4, 15360, Note_on_c, 1, 71, 100
4, 15360, Note_on_c, 1, 54, 100
4, 15390, Note_on_c, 1, 54, 0
4, 15390, Note_on_c, 1, 68, 0
4, 15390, Note_on_c, 1, 64, 0
4, 15390, Note_on_c, 1, 57, 0
4, 15390, Note_on_c, 1, 71, 0
4, 15480, Note_on_c, 1, 75, 100
4, 15480, Note_on_c, 1, 71, 100
4, 15480, Note_on_c, 1, 66, 100
4, 15480, Note_on_c, 1, 61, 100
4, 15480, Note_on_c, 1, 56, 100
4, 15720, Note_on_c, 1, 71, 0
4, 15720, Note_on_c, 1, 75, 0
4, 16140, Note_on_c, 1, 61, 0
4, 16140, Note_on_c, 1, 66, 0
4, 16140, Note_on_c, 1, 56, 0
4, 16200, Note_on_c, 1, 71, 100
4, 16200, Note_on_c, 1, 68, 100
4, 16200, Note_on_c, 1, 64, 100
4, 16200, Note_on_c, 1, 57, 100
4, 16200, Note_on_c, 1, 54, 100
4, 16440, Note_on_c, 1, 54, 0
4, 16440, Note_on_c, 1, 64, 0
4, 16440, Note_on_c, 1, 71, 0
4, 16440, Note_on_c, 1, 68, 0
4, 16440, Note_on_c, 1, 57, 0
4, 16440, Note_on_c, 1, 68, 100
4, 16440, Note_on_c, 1, 65, 100
4, 16440, Note_on_c, 1, 61, 100
4, 16440, Note_on_c, 1, 54, 100
4, 16440, Note_on_c, 1, 51, 100
4, 17340, Note_on_c, 1, 51, 0
4, 17340, Note_on_c, 1, 61, 0
4, 17340, Note_on_c, 1, 68, 0
4, 17340, Note_on_c, 1, 65, 0
4, 17340, Note_on_c, 1, 54, 0
4, 17400, Note_on_c, 1, 66, 100
4, 17400, Note_on_c, 1, 63, 100
4, 17400, Note_on_c, 1, 59, 100
4, 18300, Note_on_c, 1, 59, 0
4, 18300, Note_on_c, 1, 63, 0
4, 18300, Note_on_c, 1, 66, 0
4, 18360, Note_on_c, 1, 54, 100
4, 18400, Note_on_c, 1, 56, 100
4, 18420, Note_on_c, 1, 54, 0
4, 18440, Note_on_c, 1, 61, 100
4, 18460, Note_on_c, 1, 56, 0
4, 18480, Note_on_c, 1, 65, 100
4, 18493, Note_on_c, 1, 61, 0
4, 19290, Note_on_c, 1, 65, 0
4, 19320, Note_on_c, 1, 55, 100
4, 19360, Note_on_c, 1, 57, 100
4, 19373, Note_on_c, 1, 55, 0
4, 19400, Note_on_c, 1, 62, 100
4, 19413, Note_on_c, 1, 57, 0
4, 19439, Note_on_c, 1, 62, 0
4, 19440, Note_on_c, 1, 66, 100
4, 20250, Note_on_c, 1, 66, 0
4, 20280, Note_on_c, 1, 57, 100
4, 20319, Note_on_c, 1, 59, 100
4, 20340, Note_on_c, 1, 57, 0
4, 20360, Note_on_c, 1, 64, 100
4, 20379, Note_on_c, 1, 59, 0
4, 20400, Note_on_c, 1, 68, 100
4, 20420, Note_on_c, 1, 64, 0
4, 20880, Note_on_c, 1, 68, 0
4, 21000, Note_on_c, 1, 56, 100
4, 21030, Note_on_c, 1, 56, 0
4, 21030, Note_on_c, 1, 61, 100
4, 21060, Note_on_c, 1, 61, 0
4, 21060, Note_on_c, 1, 63, 100
4, 21090, Note_on_c, 1, 63, 0
4, 21090, Note_on_c, 1, 64, 100
4, 21120, Note_on_c, 1, 64, 0
4, 21120, Note_on_c, 1, 63, 100
4, 21180, Note_on_c, 1, 63, 0
4, 21180, Note_on_c, 1, 61, 100
4, 21240, Note_on_c, 1, 61, 0
4, 21240, Note_on_c, 1, 70, 100
4, 21240, Note_on_c, 1, 61, 100
4, 21240, Note_on_c, 1, 66, 100
4, 21270, Note_on_c, 1, 66, 0
4, 21270, Note_on_c, 1, 61, 0
4, 21270, Note_on_c, 1, 70, 0
4, 21360, Note_on_c, 1, 70, 100
4, 21360, Note_on_c, 1, 66, 100
4, 21360, Note_on_c, 1, 61, 100
4, 22080, Note_on_c, 1, 61, 0
4, 22080, Note_on_c, 1, 66, 0
4, 22080, Note_on_c, 1, 70, 0
4, 22200, Note_on_c, 1, 71, 100
4, 22200, Note_on_c, 1, 67, 100
4, 22200, Note_on_c, 1, 62, 100
4, 22245, Note_on_c, 1, 62, 0
4, 22245, Note_on_c, 1, 67, 0
4, 22245, Note_on_c, 1, 71, 0
4, 22320, Note_on_c, 1, 62, 100
4, 22320, Note_on_c, 1, 67, 100
4, 22320, Note_on_c, 1, 71, 100
4, 22860, Note_on_c, 1, 71, 0
4, 22860, Note_on_c, 1, 67, 0
4, 22860, Note_on_c, 1, 62, 0
4, 22860, End_track
5, 0, Start_track
5, 0, MIDI_port, 0
5, 0, Title_t, "Horns"
5, 0, Control_c, 2, 0, 0
5, 0, Control_c, 2, 32, 0
5, 0, Program_c, 2, 60
5, 0, Control_c, 2, 7, 80
5, 0, Control_c, 2, 10, 94
5, 960, Note_on_c, 2, 70, 100
5, 960, Note_on_c, 2, 66, 100
5, 960, Note_on_c, 2, 61, 100
5, 990, Note_on_c, 2, 61, 0
5, 990, Note_on_c, 2, 66, 0
5, 990, Note_on_c, 2, 70, 0
5, 1020, Note_on_c, 2, 61, 100
5, 1020, Note_on_c, 2, 66, 100
5, 1020, Note_on_c, 2, 70, 100
5, 1800, Note_on_c, 2, 70, 0
5, 1800, Note_on_c, 2, 66, 0
5, 1800, Note_on_c, 2, 61, 0
5, 2160, Note_on_c, 2, 64, 100
5, 2160, Note_on_c, 2, 67, 100
5, 2160, Note_on_c, 2, 71, 100
5, 2220, Note_on_c, 2, 71, 0
5, 2220, Note_on_c, 2, 67, 0
5, 2220, Note_on_c, 2, 64, 0
5, 2220, Note_on_c, 2, 62, 100
5, 2220, Note_on_c, 2, 65, 100
5, 2220, Note_on_c, 2, 69, 100
5, 3000, Note_on_c, 2, 69, 0
5, 3000, Note_on_c, 2, 65, 0
5, 3000, Note_on_c, 2, 62, 0
5, 3960, Note_on_c, 2, 68, 100
5, 3960, Note_on_c, 2, 65, 100
5, 3960, Note_on_c, 2, 61, 100
5, 4020, Note_on_c, 2, 61, 0
5, 4020, Note_on_c, 2, 65, 0
5, 4020, Note_on_c, 2, 68, 0
5, 4080, Note_on_c, 2, 68, 100
5, 4080, Note_on_c, 2, 65, 100
5, 4080, Note_on_c, 2, 61, 100
5, 4140, Note_on_c, 2, 61, 0
5, 4140, Note_on_c, 2, 65, 0
5, 4140, Note_on_c, 2, 68, 0
5, 4200, Note_on_c, 2, 61, 100
5, 4200, Note_on_c, 2, 65, 100
5, 4200, Note_on_c, 2, 68, 100
5, 4560, Note_on_c, 2, 68, 0
5, 4560, Note_on_c, 2, 65, 0
5, 4560, Note_on_c, 2, 61, 0
5, 4680, Note_on_c, 2, 66, 100
5, 4680, Note_on_c, 2, 63, 100
5, 4680, Note_on_c, 2, 59, 100
5, 4710, Note_on_c, 2, 59, 0
5, 4710, Note_on_c, 2, 63, 0
5, 4710, Note_on_c, 2, 66, 0
5, 4800, Note_on_c, 2, 59, 100
5, 4800, Note_on_c, 2, 63, 100
5, 4800, Note_on_c, 2, 66, 100
5, 4830, Note_on_c, 2, 66, 0
5, 4830, Note_on_c, 2, 63, 0
5, 4830, Note_on_c, 2, 59, 0
5, 4920, Note_on_c, 2, 59, 100
5, 4920, Note_on_c, 2, 63, 100
5, 4920, Note_on_c, 2, 66, 100
5, 5520, Note_on_c, 2, 66, 0
5, 5520, Note_on_c, 2, 63, 0
5, 5520, Note_on_c, 2, 59, 0
5, 5880, Note_on_c, 2, 56, 100
5, 5880, Note_on_c, 2, 61, 100
5, 5880, Note_on_c, 2, 66, 100
5, 5880, Note_on_c, 2, 71, 100
5, 5880, Note_on_c, 2, 75, 100
5, 6600, Note_on_c, 2, 75, 0
5, 6600, Note_on_c, 2, 66, 0
5, 6600, Note_on_c, 2, 56, 0
5, 6600, Note_on_c, 2, 61, 0
5, 6600, Note_on_c, 2, 71, 0
5, 6840, Note_on_c, 2, 68, 100
5, 6840, Note_on_c, 2, 65, 100
5, 6840, Note_on_c, 2, 61, 100
5, 6840, Note_on_c, 2, 54, 100
5, 6840, Note_on_c, 2, 51, 100
5, 7560, Note_on_c, 2, 51, 0
5, 7560, Note_on_c, 2, 61, 0
5, 7560, Note_on_c, 2, 68, 0
5, 7560, Note_on_c, 2, 65, 0
5, 7560, Note_on_c, 2, 54, 0
5, 7800, Note_on_c, 2, 56, 100
5, 7800, Note_on_c, 2, 61, 100
5, 7800, Note_on_c, 2, 66, 100
5, 7800, Note_on_c, 2, 71, 100
5, 7800, Note_on_c, 2, 75, 100
5, 8520, Note_on_c, 2, 75, 0
5, 8520, Note_on_c, 2, 66, 0
5, 8520, Note_on_c, 2, 56, 0
5, 8520, Note_on_c, 2, 61, 0
5, 8520, Note_on_c, 2, 71, 0
5, 8760, Note_on_c, 2, 68, 100
5, 8760, Note_on_c, 2, 65, 100
5, 8760, Note_on_c, 2, 61, 100
5, 8760, Note_on_c, 2, 54, 100
5, 8760, Note_on_c, 2, 51, 100
5, 9650, Note_on_c, 2, 51, 0
5, 9660, Note_on_c, 2, 61, 0
5, 9660, Note_on_c, 2, 54, 0
5, 9660, Note_on_c, 2, 65, 0
5, 9670, Note_on_c, 2, 68, 0
5, 9720, Note_on_c, 2, 63, 100
5, 9720, Note_on_c, 2, 59, 100
5, 9720, Note_on_c, 2, 54, 100
5, 10680, Note_on_c, 2, 54, 0
5, 10680, Note_on_c, 2, 59, 0
5, 10680, Note_on_c, 2, 63, 0
5, 10680, Note_on_c, 2, 54, 100
5, 10720, Note_on_c, 2, 56, 100
5, 10760, Note_on_c, 2, 61, 100
5, 10800, Note_on_c, 2, 65, 100
5, 11600, Note_on_c, 2, 61, 0
5, 11610, Note_on_c, 2, 65, 0
5, 11610, Note_on_c, 2, 54, 0
5, 11620, Note_on_c, 2, 56, 0
5, 11640, Note_on_c, 2, 55, 100
5, 11680, Note_on_c, 2, 57, 100
5, 11720, Note_on_c, 2, 62, 100
5, 11760, Note_on_c, 2, 66, 100
5, 12570, Note_on_c, 2, 66, 0
5, 12570, Note_on_c, 2, 55, 0
5, 12580, Note_on_c, 2, 57, 0
5, 12590, Note_on_c, 2, 62, 0
5, 12600, Note_on_c, 2, 57, 100
5, 12640, Note_on_c, 2, 59, 100
5, 12680, Note_on_c, 2, 64, 100
5, 12720, Note_on_c, 2, 68, 100
5, 13230, Note_on_c, 2, 57, 0
5, 13240, Note_on_c, 2, 59, 0
5, 13250, Note_on_c, 2, 64, 0
5, 13260, Note_on_c, 2, 68, 0
5, 13560, Note_on_c, 2, 56, 100
5, 13560, Note_on_c, 2, 61, 100
5, 13560, Note_on_c, 2, 66, 100
5, 13560, Note_on_c, 2, 71, 100
5, 13560, Note_on_c, 2, 75, 100
5, 14280, Note_on_c, 2, 75, 0
5, 14280, Note_on_c, 2, 66, 0
5, 14280, Note_on_c, 2, 56, 0
5, 14280, Note_on_c, 2, 61, 0
5, 14280, Note_on_c, 2, 71, 0
5, 14520, Note_on_c, 2, 68, 100
5, 14520, Note_on_c, 2, 65, 100
5, 14520, Note_on_c, 2, 61, 100
5, 14520, Note_on_c, 2, 54, 100
5, 14520, Note_on_c, 2, 51, 100
5, 15240, Note_on_c, 2, 51, 0
5, 15240, Note_on_c, 2, 61, 0
5, 15240, Note_on_c, 2, 68, 0
5, 15240, Note_on_c, 2, 65, 0
5, 15240, Note_on_c, 2, 54, 0
5, 15480, Note_on_c, 2, 56, 100
5, 15480, Note_on_c, 2, 61, 100
5, 15480, Note_on_c, 2, 66, 100
5, 15480, Note_on_c, 2, 71, 100
5, 15480, Note_on_c, 2, 75, 100
5, 16200, Note_on_c, 2, 75, 0
5, 16200, Note_on_c, 2, 66, 0
5, 16200, Note_on_c, 2, 56, 0
5, 16200, Note_on_c, 2, 61, 0
5, 16200, Note_on_c, 2, 71, 0
5, 16440, Note_on_c, 2, 68, 100
5, 16440, Note_on_c, 2, 65, 100
5, 16440, Note_on_c, 2, 61, 100
5, 16440, Note_on_c, 2, 54, 100
5, 16440, Note_on_c, 2, 51, 100
5, 17320, Note_on_c, 2, 51, 0
5, 17330, Note_on_c, 2, 54, 0
5, 17340, Note_on_c, 2, 68, 0
5, 17340, Note_on_c, 2, 65, 0
5, 17340, Note_on_c, 2, 61, 0
5, 17400, Note_on_c, 2, 63, 100
5, 17400, Note_on_c, 2, 59, 100
5, 17400, Note_on_c, 2, 54, 100
5, 18360, Note_on_c, 2, 54, 0
5, 18360, Note_on_c, 2, 59, 0
5, 18360, Note_on_c, 2, 63, 0
5, 18360, Note_on_c, 2, 54, 100
5, 18400, Note_on_c, 2, 56, 100
5, 18440, Note_on_c, 2, 61, 100
5, 18480, Note_on_c, 2, 65, 100
5, 19280, Note_on_c, 2, 61, 0
5, 19290, Note_on_c, 2, 65, 0
5, 19290, Note_on_c, 2, 54, 0
5, 19300, Note_on_c, 2, 56, 0
5, 19320, Note_on_c, 2, 55, 100
5, 19360, Note_on_c, 2, 57, 100
5, 19400, Note_on_c, 2, 62, 100
5, 19440, Note_on_c, 2, 66, 100
5, 20250, Note_on_c, 2, 66, 0
5, 20250, Note_on_c, 2, 55, 0
5, 20260, Note_on_c, 2, 57, 0
5, 20270, Note_on_c, 2, 62, 0
5, 20280, Note_on_c, 2, 57, 100
5, 20320, Note_on_c, 2, 59, 100
5, 20360, Note_on_c, 2, 64, 100
5, 20400, Note_on_c, 2, 68, 100
5, 20890, Note_on_c, 2, 59, 0
5, 20895, Note_on_c, 2, 57, 0
5, 20895, Note_on_c, 2, 68, 0
5, 20900, Note_on_c, 2, 64, 0
5, 21240, Note_on_c, 2, 70, 100
5, 21240, Note_on_c, 2, 66, 100
5, 21240, Note_on_c, 2, 61, 100
5, 21270, Note_on_c, 2, 61, 0
5, 21270, Note_on_c, 2, 66, 0
5, 21270, Note_on_c, 2, 70, 0
5, 21360, Note_on_c, 2, 61, 100
5, 21360, Note_on_c, 2, 66, 100
5, 21360, Note_on_c, 2, 70, 100
5, 22080, Note_on_c, 2, 70, 0
5, 22080, Note_on_c, 2, 66, 0
5, 22080, Note_on_c, 2, 61, 0
5, 22200, Note_on_c, 2, 67, 100
5, 22200, Note_on_c, 2, 62, 100
5, 22200, Note_on_c, 2, 71, 100
5, 22230, Note_on_c, 2, 71, 0
5, 22230, Note_on_c, 2, 62, 0
5, 22230, Note_on_c, 2, 67, 0
5, 22320, Note_on_c, 2, 71, 100
5, 22320, Note_on_c, 2, 67, 100
5, 22320, Note_on_c, 2, 62, 100
5, 23640, Note_on_c, 2, 62, 0
5, 23640, Note_on_c, 2, 67, 0
5, 23640, Note_on_c, 2, 71, 0
5, 23640, End_track
6, 0, Start_track
6, 0, MIDI_port, 0
6, 0, Title_t, "Marimba"
6, 0, Control_c, 3, 0, 0
6, 0, Control_c, 3, 32, 0
6, 0, Program_c, 3, 12
6, 0, Control_c, 3, 7, 95
6, 0, Control_c, 3, 10, 64
6, 720, Note_on_c, 3, 68, 100
6, 750, Note_on_c, 3, 68, 0
6, 750, Note_on_c, 3, 73, 100
6, 780, Note_on_c, 3, 73, 0
6, 780, Note_on_c, 3, 75, 100
6, 810, Note_on_c, 3, 75, 0
6, 810, Note_on_c, 3, 76, 100
6, 840, Note_on_c, 3, 76, 0
6, 840, Note_on_c, 3, 75, 100
6, 900, Note_on_c, 3, 75, 0
6, 900, Note_on_c, 3, 73, 100
6, 960, Note_on_c, 3, 73, 0
6, 960, Note_on_c, 3, 75, 100
6, 960, Note_on_c, 3, 71, 100
6, 960, Note_on_c, 3, 78, 100
6, 990, Note_on_c, 3, 78, 0
6, 990, Note_on_c, 3, 71, 0
6, 990, Note_on_c, 3, 75, 0
6, 1020, Note_on_c, 3, 75, 100
6, 1020, Note_on_c, 3, 71, 100
6, 1020, Note_on_c, 3, 78, 100
6, 1200, Note_on_c, 3, 78, 0
6, 1200, Note_on_c, 3, 71, 0
6, 1200, Note_on_c, 3, 75, 0
6, 1920, Note_on_c, 3, 68, 100
6, 1950, Note_on_c, 3, 68, 0
6, 1950, Note_on_c, 3, 73, 100
6, 1980, Note_on_c, 3, 73, 0
6, 1980, Note_on_c, 3, 75, 100
6, 2010, Note_on_c, 3, 75, 0
6, 2010, Note_on_c, 3, 76, 100
6, 2040, Note_on_c, 3, 76, 0
6, 2040, Note_on_c, 3, 75, 100
6, 2100, Note_on_c, 3, 75, 0
6, 2100, Note_on_c, 3, 73, 100
6, 2160, Note_on_c, 3, 73, 0
6, 2160, Note_on_c, 3, 83, 100
6, 2160, Note_on_c, 3, 74, 100
6, 2160, Note_on_c, 3, 79, 100
6, 2220, Note_on_c, 3, 79, 0
6, 2220, Note_on_c, 3, 74, 0
6, 2220, Note_on_c, 3, 83, 0
6, 2220, Note_on_c, 3, 72, 100
6, 2220, Note_on_c, 3, 81, 100
6, 2220, Note_on_c, 3, 77, 100
6, 2640, Note_on_c, 3, 77, 0
6, 2640, Note_on_c, 3, 81, 0
6, 2640, Note_on_c, 3, 72, 0
6, 3120, Note_on_c, 3, 68, 100
6, 3150, Note_on_c, 3, 68, 0
6, 3150, Note_on_c, 3, 73, 100
6, 3180, Note_on_c, 3, 73, 0
6, 3180, Note_on_c, 3, 75, 100
6, 3210, Note_on_c, 3, 75, 0
6, 3210, Note_on_c, 3, 76, 100
6, 3240, Note_on_c, 3, 76, 0
6, 3240, Note_on_c, 3, 75, 100
6, 3300, Note_on_c, 3, 75, 0
6, 3300, Note_on_c, 3, 73, 100
6, 3360, Note_on_c, 3, 73, 0
6, 3360, Note_on_c, 3, 75, 100
6, 3360, Note_on_c, 3, 71, 100
6, 3360, Note_on_c, 3, 78, 100
6, 3379, Note_on_c, 3, 78, 0
6, 3390, Note_on_c, 3, 71, 0
6, 3390, Note_on_c, 3, 75, 0
6, 3420, Note_on_c, 3, 71, 100
6, 3420, Note_on_c, 3, 75, 100
6, 3420, Note_on_c, 3, 78, 100
6, 3480, Note_on_c, 3, 78, 0
6, 3480, Note_on_c, 3, 75, 0
6, 3480, Note_on_c, 3, 71, 0
6, 3580, Note_on_c, 3, 51, 100
6, 3599, Note_on_c, 3, 51, 0
6, 3600, Note_on_c, 3, 56, 100
6, 3619, Note_on_c, 3, 56, 0
6, 3620, Note_on_c, 3, 58, 100
6, 3639, Note_on_c, 3, 58, 0
6, 3640, Note_on_c, 3, 59, 100
6, 3659, Note_on_c, 3, 59, 0
6, 3660, Note_on_c, 3, 61, 100
6, 3679, Note_on_c, 3, 61, 0
6, 3680, Note_on_c, 3, 63, 100
6, 3699, Note_on_c, 3, 63, 0
6, 3700, Note_on_c, 3, 66, 100
6, 3719, Note_on_c, 3, 66, 0
6, 3720, Note_on_c, 3, 65, 100
6, 3739, Note_on_c, 3, 65, 0
6, 3740, Note_on_c, 3, 68, 100
6, 3759, Note_on_c, 3, 68, 0
6, 3760, Note_on_c, 3, 66, 100
6, 3779, Note_on_c, 3, 66, 0
6, 3780, Note_on_c, 3, 65, 100
6, 3799, Note_on_c, 3, 65, 0
6, 3800, Note_on_c, 3, 63, 100
6, 3819, Note_on_c, 3, 63, 0
6, 3820, Note_on_c, 3, 61, 100
6, 3839, Note_on_c, 3, 61, 0
6, 3960, Note_on_c, 3, 62, 100
6, 3960, Note_on_c, 3, 80, 100
6, 3960, Note_on_c, 3, 77, 100
6, 3960, Note_on_c, 3, 73, 100
6, 4020, Note_on_c, 3, 73, 0
6, 4020, Note_on_c, 3, 62, 0
6, 4020, Note_on_c, 3, 80, 0
6, 4020, Note_on_c, 3, 77, 0
6, 4080, Note_on_c, 3, 62, 100
6, 4080, Note_on_c, 3, 80, 100
6, 4080, Note_on_c, 3, 77, 100
6, 4080, Note_on_c, 3, 73, 100
6, 4140, Note_on_c, 3, 73, 0
6, 4140, Note_on_c, 3, 62, 0
6, 4140, Note_on_c, 3, 80, 0
6, 4140, Note_on_c, 3, 77, 0
6, 4200, Note_on_c, 3, 62, 100
6, 4200, Note_on_c, 3, 73, 100
6, 4200, Note_on_c, 3, 77, 100
6, 4200, Note_on_c, 3, 80, 100
6, 4380, Note_on_c, 3, 80, 0
6, 4380, Note_on_c, 3, 62, 0
6, 4380, Note_on_c, 3, 73, 0
6, 4380, Note_on_c, 3, 77, 0
6, 4680, Note_on_c, 3, 64, 100
6, 4680, Note_on_c, 3, 71, 100
6, 4680, Note_on_c, 3, 75, 100
6, 4680, Note_on_c, 3, 78, 100
6, 4740, Note_on_c, 3, 78, 0
6, 4740, Note_on_c, 3, 64, 0
6, 4740, Note_on_c, 3, 71, 0
6, 4740, Note_on_c, 3, 75, 0
6, 4800, Note_on_c, 3, 64, 100
6, 4800, Note_on_c, 3, 71, 100
6, 4800, Note_on_c, 3, 75, 100
6, 4800, Note_on_c, 3, 78, 100
6, 4860, Note_on_c, 3, 78, 0
6, 4860, Note_on_c, 3, 64, 0
6, 4860, Note_on_c, 3, 71, 0
6, 4860, Note_on_c, 3, 75, 0
6, 4920, Note_on_c, 3, 64, 100
6, 4920, Note_on_c, 3, 71, 100
6, 4920, Note_on_c, 3, 75, 100
6, 4920, Note_on_c, 3, 78, 100
6, 5100, Note_on_c, 3, 78, 0
6, 5100, Note_on_c, 3, 64, 0
6, 5100, Note_on_c, 3, 71, 0
6, 5100, Note_on_c, 3, 75, 0
6, 5640, Note_on_c, 3, 80, 100
6, 5640, Note_on_c, 3, 73, 100
6, 5640, Note_on_c, 3, 69, 100
6, 5640, Note_on_c, 3, 64, 100
6, 5640, Note_on_c, 3, 59, 100
6, 5670, Note_on_c, 3, 59, 0
6, 5670, Note_on_c, 3, 69, 0
6, 5670, Note_on_c, 3, 80, 0
6, 5670, Note_on_c, 3, 73, 0
6, 5670, Note_on_c, 3, 64, 0
6, 5760, Note_on_c, 3, 76, 100
6, 5760, Note_on_c, 3, 69, 100
6, 5760, Note_on_c, 3, 80, 100
6, 5760, Note_on_c, 3, 83, 100
6, 5760, Note_on_c, 3, 66, 100
6, 5790, Note_on_c, 3, 66, 0
6, 5790, Note_on_c, 3, 80, 0
6, 5790, Note_on_c, 3, 76, 0
6, 5790, Note_on_c, 3, 69, 0
6, 5790, Note_on_c, 3, 83, 0
6, 5880, Note_on_c, 3, 87, 100
6, 5880, Note_on_c, 3, 83, 100
6, 5880, Note_on_c, 3, 78, 100
6, 5880, Note_on_c, 3, 73, 100
6, 5880, Note_on_c, 3, 68, 100
6, 6120, Note_on_c, 3, 68, 0
6, 6120, Note_on_c, 3, 78, 0
6, 6120, Note_on_c, 3, 87, 0
6, 6120, Note_on_c, 3, 83, 0
6, 6120, Note_on_c, 3, 73, 0
6, 6600, Note_on_c, 3, 83, 100
6, 6600, Note_on_c, 3, 80, 100
6, 6600, Note_on_c, 3, 76, 100
6, 6600, Note_on_c, 3, 69, 100
6, 6600, Note_on_c, 3, 66, 100
6, 6840, Note_on_c, 3, 66, 0
6, 6840, Note_on_c, 3, 76, 0
6, 6840, Note_on_c, 3, 83, 0
6, 6840, Note_on_c, 3, 80, 0
6, 6840, Note_on_c, 3, 69, 0
6, 6840, Note_on_c, 3, 80, 100
6, 6840, Note_on_c, 3, 77, 100
6, 6840, Note_on_c, 3, 73, 100
6, 6840, Note_on_c, 3, 66, 100
6, 6840, Note_on_c, 3, 63, 100
6, 7080, Note_on_c, 3, 63, 0
6, 7080, Note_on_c, 3, 73, 0
6, 7080, Note_on_c, 3, 80, 0
6, 7080, Note_on_c, 3, 77, 0
6, 7080, Note_on_c, 3, 66, 0
6, 7560, Note_on_c, 3, 80, 100
6, 7560, Note_on_c, 3, 73, 100
6, 7560, Note_on_c, 3, 69, 100
6, 7560, Note_on_c, 3, 64, 100
6, 7560, Note_on_c, 3, 59, 100
6, 7590, Note_on_c, 3, 59, 0
6, 7590, Note_on_c, 3, 69, 0
6, 7590, Note_on_c, 3, 80, 0
6, 7590, Note_on_c, 3, 73, 0
6, 7590, Note_on_c, 3, 64, 0
6, 7680, Note_on_c, 3, 76, 100
6, 7680, Note_on_c, 3, 69, 100
6, 7680, Note_on_c, 3, 80, 100
6, 7680, Note_on_c, 3, 83, 100
6, 7680, Note_on_c, 3, 66, 100
6, 7710, Note_on_c, 3, 66, 0
6, 7710, Note_on_c, 3, 80, 0
6, 7710, Note_on_c, 3, 76, 0
6, 7710, Note_on_c, 3, 69, 0
6, 7710, Note_on_c, 3, 83, 0
6, 7800, Note_on_c, 3, 87, 100
6, 7800, Note_on_c, 3, 83, 100
6, 7800, Note_on_c, 3, 78, 100
6, 7800, Note_on_c, 3, 73, 100
6, 7800, Note_on_c, 3, 68, 100
6, 8040, Note_on_c, 3, 68, 0
6, 8040, Note_on_c, 3, 78, 0
6, 8040, Note_on_c, 3, 87, 0
6, 8040, Note_on_c, 3, 83, 0
6, 8040, Note_on_c, 3, 73, 0
6, 8520, Note_on_c, 3, 83, 100
6, 8520, Note_on_c, 3, 80, 100
6, 8520, Note_on_c, 3, 76, 100
6, 8520, Note_on_c, 3, 69, 100
6, 8520, Note_on_c, 3, 66, 100
6, 8760, Note_on_c, 3, 66, 0
6, 8760, Note_on_c, 3, 76, 0
6, 8760, Note_on_c, 3, 83, 0
6, 8760, Note_on_c, 3, 80, 0
6, 8760, Note_on_c, 3, 69, 0
6, 8760, Note_on_c, 3, 80, 100
6, 8760, Note_on_c, 3, 77, 100
6, 8760, Note_on_c, 3, 73, 100
6, 8760, Note_on_c, 3, 66, 100
6, 8760, Note_on_c, 3, 63, 100
6, 9000, Note_on_c, 3, 63, 0
6, 9000, Note_on_c, 3, 73, 0
6, 9000, Note_on_c, 3, 80, 0
6, 9000, Note_on_c, 3, 77, 0
6, 9000, Note_on_c, 3, 66, 0
6, 9720, Note_on_c, 3, 78, 100
6, 9720, Note_on_c, 3, 75, 100
6, 9720, Note_on_c, 3, 71, 100
6, 9840, Note_on_c, 3, 71, 0
6, 9840, Note_on_c, 3, 75, 0
6, 9840, Note_on_c, 3, 78, 0
6, 10680, Note_on_c, 3, 66, 100
6, 10720, Note_on_c, 3, 68, 100
6, 10740, Note_on_c, 3, 66, 0
6, 10760, Note_on_c, 3, 73, 100
6, 10780, Note_on_c, 3, 68, 0
6, 10800, Note_on_c, 3, 77, 100
6, 10813, Note_on_c, 3, 73, 0
6, 10920, Note_on_c, 3, 77, 0
6, 11640, Note_on_c, 3, 67, 100
6, 11680, Note_on_c, 3, 69, 100
6, 11693, Note_on_c, 3, 67, 0
6, 11720, Note_on_c, 3, 74, 100
6, 11733, Note_on_c, 3, 69, 0
6, 11759, Note_on_c, 3, 74, 0
6, 11760, Note_on_c, 3, 78, 100
6, 11880, Note_on_c, 3, 78, 0
6, 12600, Note_on_c, 3, 69, 100
6, 12639, Note_on_c, 3, 71, 100
6, 12660, Note_on_c, 3, 69, 0
6, 12680, Note_on_c, 3, 76, 100
6, 12699, Note_on_c, 3, 71, 0
6, 12720, Note_on_c, 3, 80, 100
6, 12740, Note_on_c, 3, 76, 0
6, 12840, Note_on_c, 3, 80, 0
6, 13320, Note_on_c, 3, 80, 100
6, 13320, Note_on_c, 3, 73, 100
6, 13320, Note_on_c, 3, 69, 100
6, 13320, Note_on_c, 3, 64, 100
6, 13320, Note_on_c, 3, 59, 100
6, 13350, Note_on_c, 3, 59, 0
6, 13350, Note_on_c, 3, 69, 0
6, 13350, Note_on_c, 3, 80, 0
6, 13350, Note_on_c, 3, 73, 0
6, 13350, Note_on_c, 3, 64, 0
6, 13440, Note_on_c, 3, 76, 100
6, 13440, Note_on_c, 3, 69, 100
6, 13440, Note_on_c, 3, 80, 100
6, 13440, Note_on_c, 3, 83, 100
6, 13440, Note_on_c, 3, 66, 100
6, 13470, Note_on_c, 3, 66, 0
6, 13470, Note_on_c, 3, 80, 0
6, 13470, Note_on_c, 3, 76, 0
6, 13470, Note_on_c, 3, 69, 0
6, 13470, Note_on_c, 3, 83, 0
6, 13560, Note_on_c, 3, 87, 100
6, 13560, Note_on_c, 3, 83, 100
6, 13560, Note_on_c, 3, 78, 100
6, 13560, Note_on_c, 3, 73, 100
6, 13560, Note_on_c, 3, 68, 100
6, 13800, Note_on_c, 3, 68, 0
6, 13800, Note_on_c, 3, 78, 0
6, 13800, Note_on_c, 3, 87, 0
6, 13800, Note_on_c, 3, 83, 0
6, 13800, Note_on_c, 3, 73, 0
6, 14280, Note_on_c, 3, 83, 100
6, 14280, Note_on_c, 3, 80, 100
6, 14280, Note_on_c, 3, 76, 100
6, 14280, Note_on_c, 3, 69, 100
6, 14280, Note_on_c, 3, 66, 100
6, 14520, Note_on_c, 3, 66, 0
6, 14520, Note_on_c, 3, 76, 0
6, 14520, Note_on_c, 3, 83, 0
6, 14520, Note_on_c, 3, 80, 0
6, 14520, Note_on_c, 3, 69, 0
6, 14520, Note_on_c, 3, 80, 100
6, 14520, Note_on_c, 3, 77, 100
6, 14520, Note_on_c, 3, 73, 100
6, 14520, Note_on_c, 3, 66, 100
6, 14520, Note_on_c, 3, 63, 100
6, 14760, Note_on_c, 3, 63, 0
6, 14760, Note_on_c, 3, 73, 0
6, 14760, Note_on_c, 3, 80, 0
6, 14760, Note_on_c, 3, 77, 0
6, 14760, Note_on_c, 3, 66, 0
6, 15240, Note_on_c, 3, 80, 100
6, 15240, Note_on_c, 3, 73, 100
6, 15240, Note_on_c, 3, 69, 100
6, 15240, Note_on_c, 3, 64, 100
6, 15240, Note_on_c, 3, 59, 100
6, 15270, Note_on_c, 3, 59, 0
6, 15270, Note_on_c, 3, 69, 0
6, 15270, Note_on_c, 3, 80, 0
6, 15270, Note_on_c, 3, 73, 0
6, 15270, Note_on_c, 3, 64, 0
6, 15360, Note_on_c, 3, 76, 100
6, 15360, Note_on_c, 3, 69, 100
6, 15360, Note_on_c, 3, 80, 100
6, 15360, Note_on_c, 3, 83, 100
6, 15360, Note_on_c, 3, 66, 100
6, 15390, Note_on_c, 3, 66, 0
6, 15390, Note_on_c, 3, 80, 0
6, 15390, Note_on_c, 3, 76, 0
6, 15390, Note_on_c, 3, 69, 0
6, 15390, Note_on_c, 3, 83, 0
6, 15480, Note_on_c, 3, 87, 100
6, 15480, Note_on_c, 3, 83, 100
6, 15480, Note_on_c, 3, 78, 100
6, 15480, Note_on_c, 3, 73, 100
6, 15480, Note_on_c, 3, 68, 100
6, 15720, Note_on_c, 3, 68, 0
6, 15720, Note_on_c, 3, 78, 0
6, 15720, Note_on_c, 3, 87, 0
6, 15720, Note_on_c, 3, 83, 0
6, 15720, Note_on_c, 3, 73, 0
6, 16200, Note_on_c, 3, 83, 100
6, 16200, Note_on_c, 3, 80, 100
6, 16200, Note_on_c, 3, 76, 100
6, 16200, Note_on_c, 3, 69, 100
6, 16200, Note_on_c, 3, 66, 100
6, 16440, Note_on_c, 3, 66, 0
6, 16440, Note_on_c, 3, 76, 0
6, 16440, Note_on_c, 3, 83, 0
6, 16440, Note_on_c, 3, 80, 0
6, 16440, Note_on_c, 3, 69, 0
6, 16440, Note_on_c, 3, 80, 100
6, 16440, Note_on_c, 3, 77, 100
6, 16440, Note_on_c, 3, 73, 100
6, 16440, Note_on_c, 3, 66, 100
6, 16440, Note_on_c, 3, 63, 100
6, 16680, Note_on_c, 3, 63, 0
6, 16680, Note_on_c, 3, 73, 0
6, 16680, Note_on_c, 3, 80, 0
6, 16680, Note_on_c, 3, 77, 0
6, 16680, Note_on_c, 3, 66, 0
6, 17400, Note_on_c, 3, 78, 100
6, 17400, Note_on_c, 3, 75, 100
6, 17400, Note_on_c, 3, 71, 100
6, 17520, Note_on_c, 3, 71, 0
6, 17520, Note_on_c, 3, 75, 0
6, 17520, Note_on_c, 3, 78, 0
6, 18360, Note_on_c, 3, 66, 100
6, 18400, Note_on_c, 3, 68, 100
6, 18420, Note_on_c, 3, 66, 0
6, 18440, Note_on_c, 3, 73, 100
6, 18460, Note_on_c, 3, 68, 0
6, 18480, Note_on_c, 3, 77, 100
6, 18493, Note_on_c, 3, 73, 0
6, 18600, Note_on_c, 3, 77, 0
6, 19320, Note_on_c, 3, 67, 100
6, 19360, Note_on_c, 3, 69, 100
6, 19373, Note_on_c, 3, 67, 0
6, 19400, Note_on_c, 3, 74, 100
6, 19413, Note_on_c, 3, 69, 0
6, 19439, Note_on_c, 3, 74, 0
6, 19440, Note_on_c, 3, 78, 100
6, 19560, Note_on_c, 3, 78, 0
6, 20280, Note_on_c, 3, 69, 100
6, 20319, Note_on_c, 3, 71, 100
6, 20340, Note_on_c, 3, 69, 0
6, 20360, Note_on_c, 3, 76, 100
6, 20379, Note_on_c, 3, 71, 0
6, 20400, Note_on_c, 3, 80, 100
6, 20420, Note_on_c, 3, 76, 0
6, 20520, Note_on_c, 3, 80, 0
6, 21000, Note_on_c, 3, 68, 100
6, 21030, Note_on_c, 3, 68, 0
6, 21030, Note_on_c, 3, 73, 100
6, 21060, Note_on_c, 3, 73, 0
6, 21060, Note_on_c, 3, 75, 100
6, 21090, Note_on_c, 3, 75, 0
6, 21090, Note_on_c, 3, 76, 100
6, 21120, Note_on_c, 3, 76, 0
6, 21120, Note_on_c, 3, 75, 100
6, 21180, Note_on_c, 3, 75, 0
6, 21180, Note_on_c, 3, 73, 100
6, 21240, Note_on_c, 3, 73, 0
6, 21240, Note_on_c, 3, 82, 100
6, 21240, Note_on_c, 3, 73, 100
6, 21240, Note_on_c, 3, 78, 100
6, 21270, Note_on_c, 3, 78, 0
6, 21270, Note_on_c, 3, 73, 0
6, 21270, Note_on_c, 3, 82, 0
6, 21360, Note_on_c, 3, 82, 100
6, 21360, Note_on_c, 3, 78, 100
6, 21360, Note_on_c, 3, 73, 100
6, 21540, Note_on_c, 3, 73, 0
6, 21540, Note_on_c, 3, 78, 0
6, 21540, Note_on_c, 3, 82, 0
6, 21540, End_track
0, 0, End_of_file
