0, 0, Header, 1, 29, 192
1, 0, Start_track
1, 0, Sequencer_specific, 10, 0, 0, 91, 35, 2, 0, 3, 0, 51, 0
1, 0, Title_t, "La Mer: 1. De l'aube à midi sur la mer"
1, 0, MIDI_port, 0
1, 0, Tempo, 697674
1, 0, Copyright_t, "Copyright © 2005 by Dario Galimberti"
1, 0, Time_signature, 6, 2, 24, 8
1, 0, Key_signature, 2, "major"
1, 1152, Text_t, "La Mer: 1. De l'aube à midi sur la mer"
1, 1152, Text_t, "by Claude Debussy (1862-1918)"
1, 4608, Tempo, 681818
1, 8064, Time_signature, 4, 2, 24, 8
1, 8832, Tempo, 659340
1, 9600, Tempo, 618556
1, 9984, Tempo, 606060
1, 10368, Tempo, 594059
1, 10752, Tempo, 576923
1, 11136, Tempo, 566037
1, 11520, Tempo, 555555
1, 11904, Tempo, 540540
1, 14976, Tempo, 588235
1, 21120, Tempo, 363636
1, 21120, Time_signature, 6, 2, 24, 8
1, 22272, Tempo, 350877
1, 23424, Tempo, 344827
1, 24576, Tempo, 335195
1, 30336, Tempo, 1052631
1, 30336, Key_signature, -5, "major"
1, 30336, Time_signature, 6, 3, 24, 8
1, 37248, Tempo, 937500
1, 37824, Tempo, 1000000
1, 38400, Tempo, 1111111
1, 39552, Tempo, 983606
1, 43008, Tempo, 1111111
1, 46272, Tempo, 1153846
1, 46464, Tempo, 1250000
1, 46752, Tempo, 1363636
1, 47616, Tempo, 1333333
1, 48192, Tempo, 1132075
1, 51072, Time_signature, 9, 3, 12, 8
1, 51936, Time_signature, 6, 3, 24, 8
1, 53088, Tempo, 1090909
1, 53664, Tempo, 1034482
1, 54240, Tempo, 1000000
1, 54816, Tempo, 967741
1, 56544, Tempo, 1333333
1, 57120, Tempo, 1395348
1, 57696, Tempo, 1463414
1, 58272, Tempo, 1500000
1, 58848, Tempo, 1578947
1, 59424, Tempo, 1714285
1, 60000, Tempo, 1818181
1, 60576, Tempo, 1875000
1, 61152, Tempo, 1250000
1, 61152, Key_signature, -2, "major"
1, 61152, Time_signature, 4, 2, 24, 8
1, 61344, Tempo, 909090
1, 62688, Tempo, 1090909
1, 62880, Tempo, 750000
1, 63456, Tempo, 789473
1, 63840, Tempo, 833333
1, 64224, Tempo, 983606
1, 64608, Tempo, 909090
1, 66144, Tempo, 983606
1, 66912, Tempo, 1071428
1, 67008, Tempo, 1500000
1, 67296, Tempo, 983606
1, 68064, Tempo, 937500
1, 68832, Tempo, 909090
1, 69600, Tempo, 882352
1, 70368, Tempo, 833333
1, 73440, Tempo, 530973
1, 73440, Time_signature, 6, 3, 24, 8
1, 74016, Tempo, 517241
1, 74016, Time_signature, 12, 3, 24, 8
1, 76320, Tempo, 540540
1, 77472, Tempo, 560747
1, 78048, Tempo, 594059
1, 78336, Tempo, 625000
1, 78624, Tempo, 689655
1, 79776, Tempo, 740740
1, 84384, Time_signature, 6, 3, 24, 8
1, 84960, Time_signature, 12, 3, 24, 8
1, 88416, Tempo, 800000
1, 93024, Tempo, 857142
1, 93600, Tempo, 909090
1, 94176, Tempo, 1395348
1, 94176, Time_signature, 4, 2, 24, 8
1, 95712, Tempo, 1538461
1, 95904, Tempo, 1714285
1, 96096, Tempo, 1875000
1, 96288, Tempo, 2222222
1, 96384, Tempo, 4285714
1, 96480, Tempo, 923076
1, 96480, Key_signature, -5, "major"
1, 96480, Time_signature, 6, 2, 24, 8
1, 97056, Tempo, 882352
1, 98592, Tempo, 845070
1, 98976, Tempo, 779220
1, 99552, Tempo, 740740
1, 99936, Tempo, 789473
1, 100320, Tempo, 845070
1, 100704, Tempo, 1132075
1, 100896, Tempo, 1875000
1, 101088, Tempo, 869565
1, 101472, Tempo, 800000
1, 101856, Tempo, 740740
1, 103008, Tempo, 845070
1, 103200, Tempo, 1111111
1, 103392, Tempo, 909090
1, 103776, Tempo, 845070
1, 104544, Tempo, 983606
1, 107616, Tempo, 1200000
1, 107808, Tempo, 1935483
1, 108000, Tempo, 2142857
1, 108000, Time_signature, 4, 2, 24, 8
1, 109536, Tempo, 2000000
1, 110112, Tempo, 2400000
1, 110304, Tempo, 1818181
1, 110688, Tempo, 2068965
1, 111072, Tempo, 1714285
1, 111456, Tempo, 2000000
1, 111648, Tempo, 1875000
1, 111840, Tempo, 1764705
1, 112224, Tempo, 1935483
1, 112416, Tempo, 2142857
1, 112608, Tempo, 1818181
1, 112608, Time_signature, 2, 2, 24, 8
1, 112800, Tempo, 2222222
1, 112992, Time_signature, 3, 2, 24, 8
1, 113568, Time_signature, 4, 2, 24, 8
1, 113568, End_track
2, 0, Start_track
2, 0, Title_t, "Flauti I - II"
2, 0, MIDI_port, 0
2, 21120, Control_c, 0, 10, 44
2, 22272, Program_c, 0, 73
2, 23424, Control_c, 0, 11, 64
2, 23424, Note_on_c, 0, 61, 70
2, 23424, Note_on_c, 0, 73, 80
2, 23460, Control_c, 0, 11, 65
2, 23497, Control_c, 0, 11, 66
2, 23533, Control_c, 0, 11, 67
2, 23570, Control_c, 0, 11, 68
2, 23606, Control_c, 0, 11, 69
2, 23643, Control_c, 0, 11, 70
2, 23680, Control_c, 0, 11, 71
2, 23716, Control_c, 0, 11, 72
2, 23753, Control_c, 0, 11, 73
2, 23789, Control_c, 0, 11, 74
2, 23808, Note_on_c, 0, 61, 0
2, 23808, Note_on_c, 0, 73, 0
2, 23808, Note_on_c, 0, 66, 78
2, 23808, Note_on_c, 0, 78, 73
2, 23826, Control_c, 0, 11, 75
2, 23862, Control_c, 0, 11, 76
2, 23899, Control_c, 0, 11, 77
2, 23936, Control_c, 0, 11, 78
2, 23972, Control_c, 0, 11, 79
2, 24009, Control_c, 0, 11, 80
2, 24045, Control_c, 0, 11, 81
2, 24082, Control_c, 0, 11, 82
2, 24118, Control_c, 0, 11, 83
2, 24155, Control_c, 0, 11, 84
2, 24192, Note_on_c, 0, 66, 0
2, 24192, Note_on_c, 0, 78, 0
2, 24192, Control_c, 0, 11, 85
2, 24192, Note_on_c, 0, 68, 80
2, 24192, Note_on_c, 0, 80, 72
2, 24228, Control_c, 0, 11, 86
2, 24265, Control_c, 0, 11, 87
2, 24301, Control_c, 0, 11, 88
2, 24338, Control_c, 0, 11, 89
2, 24374, Control_c, 0, 11, 90
2, 24411, Control_c, 0, 11, 91
2, 24448, Control_c, 0, 11, 92
2, 24484, Control_c, 0, 11, 93
2, 24521, Control_c, 0, 11, 94
2, 24557, Control_c, 0, 11, 95
2, 24576, Note_on_c, 0, 68, 0
2, 24576, Note_on_c, 0, 80, 0
2, 24576, Note_on_c, 0, 71, 80
2, 24576, Note_on_c, 0, 83, 73
2, 24594, Control_c, 0, 11, 96
2, 24630, Control_c, 0, 11, 97
2, 24667, Control_c, 0, 11, 98
2, 24704, Control_c, 0, 11, 99
2, 24740, Control_c, 0, 11, 100
2, 24777, Control_c, 0, 11, 101
2, 24813, Control_c, 0, 11, 102
2, 24850, Control_c, 0, 11, 103
2, 24886, Control_c, 0, 11, 104
2, 24923, Control_c, 0, 11, 105
2, 24960, Note_on_c, 0, 71, 0
2, 24960, Note_on_c, 0, 83, 0
2, 24960, Control_c, 0, 11, 106
2, 24960, Note_on_c, 0, 73, 76
2, 24960, Note_on_c, 0, 85, 71
2, 24996, Control_c, 0, 11, 107
2, 25033, Control_c, 0, 11, 108
2, 25069, Control_c, 0, 11, 109
2, 25106, Control_c, 0, 11, 110
2, 25142, Control_c, 0, 11, 111
2, 25179, Control_c, 0, 11, 112
2, 25216, Control_c, 0, 11, 113
2, 25252, Control_c, 0, 11, 114
2, 25289, Control_c, 0, 11, 115
2, 25325, Control_c, 0, 11, 116
2, 25344, Note_on_c, 0, 73, 0
2, 25344, Note_on_c, 0, 85, 0
2, 25344, Note_on_c, 0, 78, 73
2, 25344, Note_on_c, 0, 90, 78
2, 25362, Control_c, 0, 11, 117
2, 25398, Control_c, 0, 11, 118
2, 25435, Control_c, 0, 11, 119
2, 25472, Control_c, 0, 11, 120
2, 25508, Control_c, 0, 11, 121
2, 25545, Control_c, 0, 11, 122
2, 25581, Control_c, 0, 11, 123
2, 25618, Control_c, 0, 11, 124
2, 25654, Control_c, 0, 11, 125
2, 25680, Note_on_c, 0, 78, 0
2, 25680, Note_on_c, 0, 90, 0
2, 25691, Control_c, 0, 11, 126
2, 25728, Control_c, 0, 11, 127
2, 26880, Control_c, 0, 11, 64
2, 26880, Note_on_c, 0, 61, 72
2, 26880, Note_on_c, 0, 73, 79
2, 26898, Control_c, 0, 11, 65
2, 26916, Control_c, 0, 11, 66
2, 26934, Control_c, 0, 11, 67
2, 26953, Control_c, 0, 11, 68
2, 26971, Control_c, 0, 11, 69
2, 26989, Control_c, 0, 11, 70
2, 27008, Control_c, 0, 11, 71
2, 27026, Control_c, 0, 11, 72
2, 27044, Control_c, 0, 11, 73
2, 27062, Control_c, 0, 11, 74
2, 27072, Note_on_c, 0, 61, 0
2, 27072, Note_on_c, 0, 73, 0
2, 27072, Note_on_c, 0, 66, 78
2, 27072, Note_on_c, 0, 78, 74
2, 27081, Control_c, 0, 11, 75
2, 27099, Control_c, 0, 11, 76
2, 27117, Control_c, 0, 11, 77
2, 27136, Control_c, 0, 11, 78
2, 27154, Control_c, 0, 11, 79
2, 27172, Control_c, 0, 11, 80
2, 27190, Control_c, 0, 11, 81
2, 27209, Control_c, 0, 11, 82
2, 27227, Control_c, 0, 11, 83
2, 27245, Control_c, 0, 11, 84
2, 27264, Note_on_c, 0, 66, 0
2, 27264, Note_on_c, 0, 78, 0
2, 27264, Control_c, 0, 11, 85
2, 27264, Note_on_c, 0, 68, 74
2, 27264, Note_on_c, 0, 80, 80
2, 27282, Control_c, 0, 11, 86
2, 27300, Control_c, 0, 11, 87
2, 27318, Control_c, 0, 11, 88
2, 27337, Control_c, 0, 11, 89
2, 27355, Control_c, 0, 11, 90
2, 27373, Control_c, 0, 11, 91
2, 27392, Control_c, 0, 11, 92
2, 27410, Control_c, 0, 11, 93
2, 27428, Control_c, 0, 11, 94
2, 27446, Control_c, 0, 11, 95
2, 27456, Note_on_c, 0, 68, 0
2, 27456, Note_on_c, 0, 80, 0
2, 27456, Note_on_c, 0, 71, 73
2, 27456, Note_on_c, 0, 83, 75
2, 27465, Control_c, 0, 11, 96
2, 27483, Control_c, 0, 11, 97
2, 27501, Control_c, 0, 11, 98
2, 27520, Control_c, 0, 11, 99
2, 27538, Control_c, 0, 11, 100
2, 27556, Control_c, 0, 11, 101
2, 27574, Control_c, 0, 11, 102
2, 27593, Control_c, 0, 11, 103
2, 27611, Control_c, 0, 11, 104
2, 27629, Control_c, 0, 11, 105
2, 27648, Note_on_c, 0, 71, 0
2, 27648, Note_on_c, 0, 83, 0
2, 27648, Control_c, 0, 11, 106
2, 27648, Note_on_c, 0, 73, 74
2, 27648, Note_on_c, 0, 85, 72
2, 27666, Control_c, 0, 11, 107
2, 27684, Control_c, 0, 11, 108
2, 27702, Control_c, 0, 11, 109
2, 27721, Control_c, 0, 11, 110
2, 27739, Control_c, 0, 11, 111
2, 27757, Control_c, 0, 11, 112
2, 27776, Control_c, 0, 11, 113
2, 27794, Control_c, 0, 11, 114
2, 27812, Control_c, 0, 11, 115
2, 27830, Control_c, 0, 11, 116
2, 27840, Note_on_c, 0, 73, 0
2, 27840, Note_on_c, 0, 85, 0
2, 27840, Note_on_c, 0, 78, 72
2, 27840, Note_on_c, 0, 90, 72
2, 27849, Control_c, 0, 11, 117
2, 27867, Control_c, 0, 11, 118
2, 27885, Control_c, 0, 11, 119
2, 27904, Control_c, 0, 11, 120
2, 27922, Control_c, 0, 11, 121
2, 27940, Control_c, 0, 11, 122
2, 27958, Control_c, 0, 11, 123
2, 27977, Control_c, 0, 11, 124
2, 27995, Control_c, 0, 11, 125
2, 28000, Note_on_c, 0, 78, 0
2, 28000, Note_on_c, 0, 90, 0
2, 28013, Control_c, 0, 11, 126
2, 28032, Control_c, 0, 11, 127
2, 29184, Control_c, 0, 11, 64
2, 29184, Note_on_c, 0, 61, 79
2, 29184, Note_on_c, 0, 73, 70
2, 29202, Control_c, 0, 11, 65
2, 29220, Control_c, 0, 11, 66
2, 29238, Control_c, 0, 11, 67
2, 29257, Control_c, 0, 11, 68
2, 29275, Control_c, 0, 11, 69
2, 29293, Control_c, 0, 11, 70
2, 29312, Control_c, 0, 11, 71
2, 29330, Control_c, 0, 11, 72
2, 29348, Control_c, 0, 11, 73
2, 29366, Control_c, 0, 11, 74
2, 29376, Note_on_c, 0, 61, 0
2, 29376, Note_on_c, 0, 73, 0
2, 29376, Note_on_c, 0, 66, 79
2, 29376, Note_on_c, 0, 78, 72
2, 29385, Control_c, 0, 11, 75
2, 29403, Control_c, 0, 11, 76
2, 29421, Control_c, 0, 11, 77
2, 29440, Control_c, 0, 11, 78
2, 29458, Control_c, 0, 11, 79
2, 29476, Control_c, 0, 11, 80
2, 29494, Control_c, 0, 11, 81
2, 29513, Control_c, 0, 11, 82
2, 29531, Control_c, 0, 11, 83
2, 29549, Control_c, 0, 11, 84
2, 29568, Note_on_c, 0, 66, 0
2, 29568, Note_on_c, 0, 78, 0
2, 29568, Control_c, 0, 11, 85
2, 29568, Note_on_c, 0, 68, 78
2, 29568, Note_on_c, 0, 80, 75
2, 29586, Control_c, 0, 11, 86
2, 29604, Control_c, 0, 11, 87
2, 29622, Control_c, 0, 11, 88
2, 29641, Control_c, 0, 11, 89
2, 29659, Control_c, 0, 11, 90
2, 29677, Control_c, 0, 11, 91
2, 29696, Control_c, 0, 11, 92
2, 29714, Control_c, 0, 11, 93
2, 29732, Control_c, 0, 11, 94
2, 29750, Control_c, 0, 11, 95
2, 29760, Note_on_c, 0, 68, 0
2, 29760, Note_on_c, 0, 80, 0
2, 29760, Note_on_c, 0, 71, 73
2, 29760, Note_on_c, 0, 83, 70
2, 29769, Control_c, 0, 11, 96
2, 29787, Control_c, 0, 11, 97
2, 29805, Control_c, 0, 11, 98
2, 29824, Control_c, 0, 11, 99
2, 29842, Control_c, 0, 11, 100
2, 29860, Control_c, 0, 11, 101
2, 29878, Control_c, 0, 11, 102
2, 29897, Control_c, 0, 11, 103
2, 29915, Control_c, 0, 11, 104
2, 29933, Control_c, 0, 11, 105
2, 29952, Note_on_c, 0, 71, 0
2, 29952, Note_on_c, 0, 83, 0
2, 29952, Control_c, 0, 11, 106
2, 29952, Note_on_c, 0, 73, 75
2, 29952, Note_on_c, 0, 85, 75
2, 29970, Control_c, 0, 11, 107
2, 29988, Control_c, 0, 11, 108
2, 30006, Control_c, 0, 11, 109
2, 30025, Control_c, 0, 11, 110
2, 30043, Control_c, 0, 11, 111
2, 30061, Control_c, 0, 11, 112
2, 30080, Control_c, 0, 11, 113
2, 30098, Control_c, 0, 11, 114
2, 30116, Control_c, 0, 11, 115
2, 30134, Control_c, 0, 11, 116
2, 30144, Note_on_c, 0, 73, 0
2, 30144, Note_on_c, 0, 85, 0
2, 30144, Note_on_c, 0, 78, 75
2, 30144, Note_on_c, 0, 90, 79
2, 30153, Control_c, 0, 11, 117
2, 30171, Control_c, 0, 11, 118
2, 30189, Control_c, 0, 11, 119
2, 30208, Control_c, 0, 11, 120
2, 30226, Control_c, 0, 11, 121
2, 30244, Control_c, 0, 11, 122
2, 30262, Control_c, 0, 11, 123
2, 30281, Control_c, 0, 11, 124
2, 30299, Control_c, 0, 11, 125
2, 30304, Note_on_c, 0, 78, 0
2, 30304, Note_on_c, 0, 90, 0
2, 30317, Control_c, 0, 11, 126
2, 30336, Control_c, 0, 11, 127
2, 31488, Note_on_c, 0, 75, 77
2, 31488, Note_on_c, 0, 82, 74
2, 31518, Note_on_c, 0, 75, 0
2, 31518, Note_on_c, 0, 82, 0
2, 31520, Note_on_c, 0, 73, 73
2, 31520, Note_on_c, 0, 80, 71
2, 31550, Note_on_c, 0, 73, 0
2, 31550, Note_on_c, 0, 80, 0
2, 31552, Note_on_c, 0, 70, 70
2, 31552, Note_on_c, 0, 77, 74
2, 31582, Note_on_c, 0, 70, 0
2, 31582, Note_on_c, 0, 77, 0
2, 31584, Note_on_c, 0, 68, 75
2, 31584, Note_on_c, 0, 75, 80
2, 31710, Note_on_c, 0, 68, 0
2, 31710, Note_on_c, 0, 75, 0
2, 31712, Note_on_c, 0, 70, 73
2, 31712, Note_on_c, 0, 77, 71
2, 31742, Note_on_c, 0, 70, 0
2, 31742, Note_on_c, 0, 77, 0
2, 31744, Note_on_c, 0, 73, 79
2, 31744, Note_on_c, 0, 80, 76
2, 31774, Note_on_c, 0, 73, 0
2, 31774, Note_on_c, 0, 80, 0
2, 31776, Note_on_c, 0, 75, 79
2, 31776, Note_on_c, 0, 82, 77
2, 31806, Note_on_c, 0, 75, 0
2, 31806, Note_on_c, 0, 82, 0
2, 31808, Note_on_c, 0, 73, 72
2, 31808, Note_on_c, 0, 80, 73
2, 31838, Note_on_c, 0, 73, 0
2, 31838, Note_on_c, 0, 80, 0
2, 31840, Note_on_c, 0, 70, 76
2, 31840, Note_on_c, 0, 77, 80
2, 31870, Note_on_c, 0, 70, 0
2, 31870, Note_on_c, 0, 77, 0
2, 31872, Note_on_c, 0, 73, 70
2, 31872, Note_on_c, 0, 80, 72
2, 31966, Note_on_c, 0, 73, 0
2, 31966, Note_on_c, 0, 80, 0
2, 31968, Note_on_c, 0, 75, 72
2, 31968, Note_on_c, 0, 82, 77
2, 32064, Control_c, 0, 11, 127
2, 32066, Control_c, 0, 11, 126
2, 32069, Control_c, 0, 11, 125
2, 32072, Control_c, 0, 11, 124
2, 32074, Control_c, 0, 11, 123
2, 32077, Control_c, 0, 11, 122
2, 32080, Control_c, 0, 11, 121
2, 32083, Control_c, 0, 11, 120
2, 32085, Control_c, 0, 11, 119
2, 32088, Control_c, 0, 11, 118
2, 32091, Control_c, 0, 11, 117
2, 32094, Control_c, 0, 11, 116
2, 32096, Control_c, 0, 11, 115
2, 32099, Control_c, 0, 11, 114
2, 32102, Control_c, 0, 11, 113
2, 32105, Control_c, 0, 11, 112
2, 32107, Control_c, 0, 11, 111
2, 32110, Control_c, 0, 11, 110
2, 32113, Control_c, 0, 11, 109
2, 32116, Control_c, 0, 11, 108
2, 32118, Control_c, 0, 11, 107
2, 32121, Control_c, 0, 11, 106
2, 32124, Control_c, 0, 11, 105
2, 32127, Control_c, 0, 11, 104
2, 32129, Control_c, 0, 11, 103
2, 32132, Control_c, 0, 11, 102
2, 32135, Control_c, 0, 11, 101
2, 32138, Control_c, 0, 11, 100
2, 32140, Control_c, 0, 11, 99
2, 32143, Control_c, 0, 11, 98
2, 32146, Control_c, 0, 11, 97
2, 32149, Control_c, 0, 11, 96
2, 32151, Control_c, 0, 11, 95
2, 32154, Control_c, 0, 11, 94
2, 32157, Control_c, 0, 11, 93
2, 32158, Note_on_c, 0, 75, 0
2, 32158, Note_on_c, 0, 82, 0
2, 32160, Control_c, 0, 11, 92
2, 32160, Note_on_c, 0, 73, 72
2, 32160, Note_on_c, 0, 80, 78
2, 32254, Note_on_c, 0, 73, 0
2, 32254, Note_on_c, 0, 80, 0
2, 36480, Control_c, 0, 11, 75
2, 36480, Note_on_c, 0, 92, 71
2, 36483, Control_c, 0, 11, 76
2, 36487, Control_c, 0, 11, 77
2, 36491, Control_c, 0, 11, 78
2, 36494, Control_c, 0, 11, 79
2, 36498, Control_c, 0, 11, 80
2, 36502, Control_c, 0, 11, 81
2, 36505, Control_c, 0, 11, 82
2, 36509, Control_c, 0, 11, 83
2, 36513, Control_c, 0, 11, 84
2, 36516, Control_c, 0, 11, 85
2, 36520, Control_c, 0, 11, 86
2, 36524, Control_c, 0, 11, 87
2, 36528, Control_c, 0, 11, 88
2, 36531, Control_c, 0, 11, 89
2, 36535, Control_c, 0, 11, 90
2, 36539, Control_c, 0, 11, 91
2, 36542, Control_c, 0, 11, 92
2, 36546, Control_c, 0, 11, 93
2, 36550, Control_c, 0, 11, 94
2, 36553, Control_c, 0, 11, 95
2, 36557, Control_c, 0, 11, 96
2, 36561, Control_c, 0, 11, 97
2, 36564, Control_c, 0, 11, 98
2, 36568, Control_c, 0, 11, 99
2, 36572, Control_c, 0, 11, 100
2, 36574, Note_on_c, 0, 92, 0
2, 36576, Control_c, 0, 11, 101
2, 36576, Note_on_c, 0, 94, 71
2, 36579, Control_c, 0, 11, 102
2, 36583, Control_c, 0, 11, 103
2, 36587, Control_c, 0, 11, 104
2, 36590, Control_c, 0, 11, 105
2, 36594, Control_c, 0, 11, 106
2, 36598, Control_c, 0, 11, 107
2, 36601, Control_c, 0, 11, 108
2, 36605, Control_c, 0, 11, 109
2, 36609, Control_c, 0, 11, 110
2, 36612, Control_c, 0, 11, 111
2, 36616, Control_c, 0, 11, 112
2, 36620, Control_c, 0, 11, 113
2, 36624, Control_c, 0, 11, 114
2, 36627, Control_c, 0, 11, 115
2, 36631, Control_c, 0, 11, 116
2, 36635, Control_c, 0, 11, 117
2, 36638, Control_c, 0, 11, 118
2, 36642, Control_c, 0, 11, 119
2, 36646, Control_c, 0, 11, 120
2, 36649, Control_c, 0, 11, 121
2, 36653, Control_c, 0, 11, 122
2, 36657, Control_c, 0, 11, 123
2, 36660, Control_c, 0, 11, 124
2, 36664, Control_c, 0, 11, 125
2, 36668, Control_c, 0, 11, 126
2, 36672, Control_c, 0, 11, 127
2, 36681, Control_c, 0, 11, 126
2, 36690, Control_c, 0, 11, 125
2, 36699, Control_c, 0, 11, 124
2, 36708, Control_c, 0, 11, 123
2, 36717, Control_c, 0, 11, 122
2, 36726, Control_c, 0, 11, 121
2, 36736, Control_c, 0, 11, 120
2, 36745, Control_c, 0, 11, 119
2, 36754, Control_c, 0, 11, 118
2, 36763, Control_c, 0, 11, 117
2, 36766, Note_on_c, 0, 94, 0
2, 36768, Note_on_c, 0, 92, 78
2, 36772, Control_c, 0, 11, 116
2, 36781, Control_c, 0, 11, 115
2, 36790, Control_c, 0, 11, 114
2, 36800, Control_c, 0, 11, 113
2, 36809, Control_c, 0, 11, 112
2, 36818, Control_c, 0, 11, 111
2, 36827, Control_c, 0, 11, 110
2, 36836, Control_c, 0, 11, 109
2, 36845, Control_c, 0, 11, 108
2, 36854, Control_c, 0, 11, 107
2, 36862, Note_on_c, 0, 92, 0
2, 36864, Control_c, 0, 11, 106
2, 36864, Note_on_c, 0, 87, 74
2, 36873, Control_c, 0, 11, 105
2, 36882, Control_c, 0, 11, 104
2, 36891, Control_c, 0, 11, 103
2, 36900, Control_c, 0, 11, 102
2, 36909, Control_c, 0, 11, 101
2, 36918, Control_c, 0, 11, 100
2, 36928, Control_c, 0, 11, 99
2, 36937, Control_c, 0, 11, 98
2, 36946, Control_c, 0, 11, 97
2, 36955, Control_c, 0, 11, 96
2, 36958, Note_on_c, 0, 87, 0
2, 36960, Note_on_c, 0, 75, 74
2, 36960, Note_on_c, 0, 82, 72
2, 36964, Control_c, 0, 11, 95
2, 36973, Control_c, 0, 11, 94
2, 36982, Control_c, 0, 11, 93
2, 36992, Control_c, 0, 11, 92
2, 37001, Control_c, 0, 11, 91
2, 37010, Control_c, 0, 11, 90
2, 37019, Control_c, 0, 11, 89
2, 37028, Control_c, 0, 11, 88
2, 37037, Control_c, 0, 11, 87
2, 37046, Control_c, 0, 11, 86
2, 37054, Note_on_c, 0, 75, 0
2, 37054, Note_on_c, 0, 82, 0
2, 37056, Control_c, 0, 11, 85
2, 37056, Note_on_c, 0, 73, 80
2, 37056, Note_on_c, 0, 80, 78
2, 37065, Control_c, 0, 11, 84
2, 37074, Control_c, 0, 11, 83
2, 37083, Control_c, 0, 11, 82
2, 37092, Control_c, 0, 11, 81
2, 37101, Control_c, 0, 11, 80
2, 37110, Control_c, 0, 11, 79
2, 37120, Control_c, 0, 11, 78
2, 37129, Control_c, 0, 11, 77
2, 37138, Control_c, 0, 11, 76
2, 37147, Control_c, 0, 11, 75
2, 37150, Note_on_c, 0, 73, 0
2, 37150, Note_on_c, 0, 80, 0
2, 37152, Note_on_c, 0, 68, 74
2, 37152, Note_on_c, 0, 75, 78
2, 37156, Control_c, 0, 11, 74
2, 37165, Control_c, 0, 11, 73
2, 37174, Control_c, 0, 11, 72
2, 37184, Control_c, 0, 11, 71
2, 37193, Control_c, 0, 11, 70
2, 37202, Control_c, 0, 11, 69
2, 37211, Control_c, 0, 11, 68
2, 37220, Control_c, 0, 11, 67
2, 37229, Control_c, 0, 11, 66
2, 37238, Control_c, 0, 11, 65
2, 37246, Note_on_c, 0, 68, 0
2, 37246, Note_on_c, 0, 75, 0
2, 37248, Control_c, 0, 11, 64
2, 38976, Control_c, 0, 11, 127
2, 39552, Note_on_c, 0, 80, 56
2, 39774, Note_on_c, 0, 80, 0
2, 39776, Note_on_c, 0, 82, 64
2, 39806, Note_on_c, 0, 82, 0
2, 39808, Note_on_c, 0, 80, 66
2, 39838, Note_on_c, 0, 80, 0
2, 39840, Note_on_c, 0, 82, 62
2, 39870, Note_on_c, 0, 82, 0
2, 39872, Note_on_c, 0, 83, 71
2, 39902, Note_on_c, 0, 83, 0
2, 39904, Note_on_c, 0, 82, 67
2, 39934, Note_on_c, 0, 82, 0
2, 39936, Note_on_c, 0, 83, 75
2, 39966, Note_on_c, 0, 83, 0
2, 39968, Note_on_c, 0, 85, 77
2, 39998, Note_on_c, 0, 85, 0
2, 40000, Note_on_c, 0, 83, 83
2, 40030, Note_on_c, 0, 83, 0
2, 40032, Note_on_c, 0, 85, 80
2, 40062, Note_on_c, 0, 85, 0
2, 40064, Note_on_c, 0, 87, 87
2, 40094, Note_on_c, 0, 87, 0
2, 40096, Note_on_c, 0, 85, 90
2, 40126, Note_on_c, 0, 85, 0
2, 40128, Note_on_c, 0, 87, 95
2, 40158, Note_on_c, 0, 87, 0
2, 40160, Note_on_c, 0, 88, 96
2, 40190, Note_on_c, 0, 88, 0
2, 40192, Note_on_c, 0, 87, 90
2, 40222, Note_on_c, 0, 87, 0
2, 40224, Note_on_c, 0, 85, 90
2, 40254, Note_on_c, 0, 85, 0
2, 40256, Note_on_c, 0, 87, 95
2, 40286, Note_on_c, 0, 87, 0
2, 40288, Note_on_c, 0, 85, 87
2, 40318, Note_on_c, 0, 85, 0
2, 40320, Note_on_c, 0, 83, 90
2, 40350, Note_on_c, 0, 83, 0
2, 40352, Note_on_c, 0, 85, 91
2, 40382, Note_on_c, 0, 85, 0
2, 40384, Note_on_c, 0, 83, 92
2, 40414, Note_on_c, 0, 83, 0
2, 40416, Note_on_c, 0, 82, 93
2, 40446, Note_on_c, 0, 82, 0
2, 40448, Note_on_c, 0, 83, 90
2, 40478, Note_on_c, 0, 83, 0
2, 40480, Note_on_c, 0, 82, 81
2, 40510, Note_on_c, 0, 82, 0
2, 40512, Note_on_c, 0, 80, 78
2, 40606, Note_on_c, 0, 80, 0
2, 40608, Note_on_c, 0, 78, 73
2, 40702, Note_on_c, 0, 78, 0
2, 40704, Note_on_c, 0, 80, 58
2, 40926, Note_on_c, 0, 80, 0
2, 40928, Note_on_c, 0, 82, 61
2, 40958, Note_on_c, 0, 82, 0
2, 40960, Note_on_c, 0, 80, 65
2, 40990, Note_on_c, 0, 80, 0
2, 40992, Note_on_c, 0, 82, 58
2, 41022, Note_on_c, 0, 82, 0
2, 41024, Note_on_c, 0, 83, 60
2, 41054, Note_on_c, 0, 83, 0
2, 41056, Note_on_c, 0, 82, 61
2, 41086, Note_on_c, 0, 82, 0
2, 41088, Note_on_c, 0, 83, 61
2, 41118, Note_on_c, 0, 83, 0
2, 41120, Note_on_c, 0, 85, 61
2, 41150, Note_on_c, 0, 85, 0
2, 41152, Note_on_c, 0, 83, 55
2, 41182, Note_on_c, 0, 83, 0
2, 41184, Note_on_c, 0, 85, 65
2, 41214, Note_on_c, 0, 85, 0
2, 41216, Note_on_c, 0, 86, 57
2, 41246, Note_on_c, 0, 86, 0
2, 41248, Note_on_c, 0, 85, 56
2, 41278, Note_on_c, 0, 85, 0
2, 41280, Note_on_c, 0, 86, 56
2, 41310, Note_on_c, 0, 86, 0
2, 41312, Note_on_c, 0, 88, 59
2, 41342, Note_on_c, 0, 88, 0
2, 41344, Note_on_c, 0, 86, 67
2, 41374, Note_on_c, 0, 86, 0
2, 41376, Note_on_c, 0, 88, 61
2, 41406, Note_on_c, 0, 88, 0
2, 41408, Note_on_c, 0, 89, 63
2, 41438, Note_on_c, 0, 89, 0
2, 41440, Note_on_c, 0, 88, 66
2, 41470, Note_on_c, 0, 88, 0
2, 41472, Note_on_c, 0, 86, 74
2, 41502, Note_on_c, 0, 86, 0
2, 41504, Note_on_c, 0, 88, 68
2, 41534, Note_on_c, 0, 88, 0
2, 41536, Note_on_c, 0, 86, 79
2, 41566, Note_on_c, 0, 86, 0
2, 41568, Note_on_c, 0, 85, 79
2, 41598, Note_on_c, 0, 85, 0
2, 41600, Note_on_c, 0, 86, 77
2, 41630, Note_on_c, 0, 86, 0
2, 41632, Note_on_c, 0, 85, 83
2, 41662, Note_on_c, 0, 85, 0
2, 41664, Note_on_c, 0, 83, 81
2, 41758, Note_on_c, 0, 83, 0
2, 41760, Note_on_c, 0, 86, 95
2, 41854, Note_on_c, 0, 86, 0
2, 41856, Control_c, 0, 11, 92
2, 41856, Note_on_c, 0, 83, 73
2, 41864, Control_c, 0, 11, 93
2, 41872, Control_c, 0, 11, 94
2, 41880, Control_c, 0, 11, 95
2, 41888, Control_c, 0, 11, 96
2, 41897, Control_c, 0, 11, 97
2, 41905, Control_c, 0, 11, 98
2, 41913, Control_c, 0, 11, 99
2, 41921, Control_c, 0, 11, 100
2, 41930, Control_c, 0, 11, 101
2, 41938, Control_c, 0, 11, 102
2, 41946, Control_c, 0, 11, 103
2, 41954, Control_c, 0, 11, 104
2, 41962, Control_c, 0, 11, 105
2, 41971, Control_c, 0, 11, 106
2, 41979, Control_c, 0, 11, 107
2, 41987, Control_c, 0, 11, 108
2, 41995, Control_c, 0, 11, 109
2, 42004, Control_c, 0, 11, 110
2, 42012, Control_c, 0, 11, 111
2, 42020, Control_c, 0, 11, 112
2, 42028, Control_c, 0, 11, 113
2, 42037, Control_c, 0, 11, 114
2, 42045, Control_c, 0, 11, 115
2, 42048, Note_on_c, 0, 83, 0
2, 42048, Note_on_c, 0, 86, 78
2, 42053, Control_c, 0, 11, 116
2, 42061, Control_c, 0, 11, 117
2, 42069, Control_c, 0, 11, 118
2, 42078, Control_c, 0, 11, 119
2, 42086, Control_c, 0, 11, 120
2, 42094, Control_c, 0, 11, 121
2, 42102, Control_c, 0, 11, 122
2, 42111, Control_c, 0, 11, 123
2, 42119, Control_c, 0, 11, 124
2, 42127, Control_c, 0, 11, 125
2, 42135, Control_c, 0, 11, 126
2, 42142, Note_on_c, 0, 86, 0
2, 42144, Control_c, 0, 11, 127
2, 42144, Control_c, 0, 11, 92
2, 42144, Note_on_c, 0, 83, 80
2, 42152, Control_c, 0, 11, 93
2, 42160, Control_c, 0, 11, 94
2, 42168, Control_c, 0, 11, 95
2, 42176, Control_c, 0, 11, 96
2, 42185, Control_c, 0, 11, 97
2, 42193, Control_c, 0, 11, 98
2, 42201, Control_c, 0, 11, 99
2, 42209, Control_c, 0, 11, 100
2, 42218, Control_c, 0, 11, 101
2, 42226, Control_c, 0, 11, 102
2, 42234, Control_c, 0, 11, 103
2, 42242, Control_c, 0, 11, 104
2, 42250, Control_c, 0, 11, 105
2, 42259, Control_c, 0, 11, 106
2, 42267, Control_c, 0, 11, 107
2, 42275, Control_c, 0, 11, 108
2, 42283, Control_c, 0, 11, 109
2, 42292, Control_c, 0, 11, 110
2, 42300, Control_c, 0, 11, 111
2, 42308, Control_c, 0, 11, 112
2, 42316, Control_c, 0, 11, 113
2, 42325, Control_c, 0, 11, 114
2, 42333, Control_c, 0, 11, 115
2, 42336, Note_on_c, 0, 83, 0
2, 42336, Note_on_c, 0, 86, 72
2, 42341, Control_c, 0, 11, 116
2, 42349, Control_c, 0, 11, 117
2, 42357, Control_c, 0, 11, 118
2, 42366, Control_c, 0, 11, 119
2, 42374, Control_c, 0, 11, 120
2, 42382, Control_c, 0, 11, 121
2, 42390, Control_c, 0, 11, 122
2, 42399, Control_c, 0, 11, 123
2, 42407, Control_c, 0, 11, 124
2, 42415, Control_c, 0, 11, 125
2, 42423, Control_c, 0, 11, 126
2, 42430, Note_on_c, 0, 86, 0
2, 42432, Control_c, 0, 11, 127
2, 42432, Control_c, 0, 11, 92
2, 42432, Note_on_c, 0, 83, 73
2, 42440, Control_c, 0, 11, 93
2, 42448, Control_c, 0, 11, 94
2, 42456, Control_c, 0, 11, 95
2, 42464, Control_c, 0, 11, 96
2, 42473, Control_c, 0, 11, 97
2, 42481, Control_c, 0, 11, 98
2, 42489, Control_c, 0, 11, 99
2, 42497, Control_c, 0, 11, 100
2, 42506, Control_c, 0, 11, 101
2, 42514, Control_c, 0, 11, 102
2, 42522, Control_c, 0, 11, 103
2, 42530, Control_c, 0, 11, 104
2, 42538, Control_c, 0, 11, 105
2, 42547, Control_c, 0, 11, 106
2, 42555, Control_c, 0, 11, 107
2, 42563, Control_c, 0, 11, 108
2, 42571, Control_c, 0, 11, 109
2, 42580, Control_c, 0, 11, 110
2, 42588, Control_c, 0, 11, 111
2, 42596, Control_c, 0, 11, 112
2, 42604, Control_c, 0, 11, 113
2, 42613, Control_c, 0, 11, 114
2, 42621, Control_c, 0, 11, 115
2, 42624, Note_on_c, 0, 83, 0
2, 42624, Note_on_c, 0, 86, 75
2, 42629, Control_c, 0, 11, 116
2, 42637, Control_c, 0, 11, 117
2, 42645, Control_c, 0, 11, 118
2, 42654, Control_c, 0, 11, 119
2, 42662, Control_c, 0, 11, 120
2, 42670, Control_c, 0, 11, 121
2, 42678, Control_c, 0, 11, 122
2, 42687, Control_c, 0, 11, 123
2, 42695, Control_c, 0, 11, 124
2, 42703, Control_c, 0, 11, 125
2, 42711, Control_c, 0, 11, 126
2, 42718, Note_on_c, 0, 86, 0
2, 42720, Control_c, 0, 11, 127
2, 42720, Control_c, 0, 11, 92
2, 42720, Note_on_c, 0, 83, 89
2, 42728, Control_c, 0, 11, 93
2, 42736, Control_c, 0, 11, 94
2, 42744, Control_c, 0, 11, 95
2, 42752, Control_c, 0, 11, 96
2, 42761, Control_c, 0, 11, 97
2, 42769, Control_c, 0, 11, 98
2, 42777, Control_c, 0, 11, 99
2, 42785, Control_c, 0, 11, 100
2, 42794, Control_c, 0, 11, 101
2, 42802, Control_c, 0, 11, 102
2, 42810, Control_c, 0, 11, 103
2, 42818, Control_c, 0, 11, 104
2, 42826, Control_c, 0, 11, 105
2, 42835, Control_c, 0, 11, 106
2, 42843, Control_c, 0, 11, 107
2, 42851, Control_c, 0, 11, 108
2, 42859, Control_c, 0, 11, 109
2, 42868, Control_c, 0, 11, 110
2, 42876, Control_c, 0, 11, 111
2, 42884, Control_c, 0, 11, 112
2, 42892, Control_c, 0, 11, 113
2, 42901, Control_c, 0, 11, 114
2, 42909, Control_c, 0, 11, 115
2, 42912, Note_on_c, 0, 83, 0
2, 42912, Note_on_c, 0, 86, 91
2, 42917, Control_c, 0, 11, 116
2, 42925, Control_c, 0, 11, 117
2, 42933, Control_c, 0, 11, 118
2, 42942, Control_c, 0, 11, 119
2, 42950, Control_c, 0, 11, 120
2, 42958, Control_c, 0, 11, 121
2, 42966, Control_c, 0, 11, 122
2, 42975, Control_c, 0, 11, 123
2, 42983, Control_c, 0, 11, 124
2, 42991, Control_c, 0, 11, 125
2, 42999, Control_c, 0, 11, 126
2, 43006, Note_on_c, 0, 86, 0
2, 43008, Control_c, 0, 11, 127
2, 43008, Control_c, 0, 11, 127
2, 43016, Control_c, 0, 11, 126
2, 43024, Control_c, 0, 11, 125
2, 43032, Control_c, 0, 11, 124
2, 43040, Control_c, 0, 11, 123
2, 43049, Control_c, 0, 11, 122
2, 43056, Note_on_c, 0, 80, 29
2, 43056, Note_on_c, 0, 83, 28
2, 43057, Control_c, 0, 11, 121
2, 43065, Control_c, 0, 11, 120
2, 43073, Control_c, 0, 11, 119
2, 43082, Control_c, 0, 11, 118
2, 43090, Control_c, 0, 11, 117
2, 43098, Control_c, 0, 11, 116
2, 43106, Control_c, 0, 11, 115
2, 43114, Control_c, 0, 11, 114
2, 43123, Control_c, 0, 11, 113
2, 43131, Control_c, 0, 11, 112
2, 43139, Control_c, 0, 11, 111
2, 43147, Control_c, 0, 11, 110
2, 43150, Note_on_c, 0, 80, 0
2, 43150, Note_on_c, 0, 83, 0
2, 43152, Note_on_c, 0, 80, 30
2, 43152, Note_on_c, 0, 83, 27
2, 43156, Control_c, 0, 11, 109
2, 43164, Control_c, 0, 11, 108
2, 43172, Control_c, 0, 11, 107
2, 43180, Control_c, 0, 11, 106
2, 43189, Control_c, 0, 11, 105
2, 43197, Control_c, 0, 11, 104
2, 43205, Control_c, 0, 11, 103
2, 43213, Control_c, 0, 11, 102
2, 43221, Control_c, 0, 11, 101
2, 43230, Control_c, 0, 11, 100
2, 43238, Control_c, 0, 11, 99
2, 43246, Note_on_c, 0, 80, 0
2, 43246, Note_on_c, 0, 83, 0
2, 43246, Control_c, 0, 11, 98
2, 43248, Note_on_c, 0, 77, 28
2, 43248, Note_on_c, 0, 80, 30
2, 43254, Control_c, 0, 11, 97
2, 43263, Control_c, 0, 11, 96
2, 43271, Control_c, 0, 11, 95
2, 43279, Control_c, 0, 11, 94
2, 43287, Control_c, 0, 11, 93
2, 43294, Note_on_c, 0, 77, 0
2, 43294, Note_on_c, 0, 80, 0
2, 43296, Control_c, 0, 11, 92
2, 43344, Note_on_c, 0, 68, 27
2, 43344, Note_on_c, 0, 71, 34
2, 43438, Note_on_c, 0, 68, 0
2, 43438, Note_on_c, 0, 71, 0
2, 43440, Note_on_c, 0, 68, 26
2, 43440, Note_on_c, 0, 71, 28
2, 43534, Note_on_c, 0, 68, 0
2, 43534, Note_on_c, 0, 71, 0
2, 43536, Note_on_c, 0, 65, 25
2, 43536, Note_on_c, 0, 68, 30
2, 43582, Note_on_c, 0, 65, 0
2, 43582, Note_on_c, 0, 68, 0
2, 43584, Control_c, 0, 11, 127
2, 43592, Control_c, 0, 11, 126
2, 43600, Control_c, 0, 11, 125
2, 43608, Control_c, 0, 11, 124
2, 43616, Control_c, 0, 11, 123
2, 43625, Control_c, 0, 11, 122
2, 43632, Note_on_c, 0, 80, 32
2, 43632, Note_on_c, 0, 83, 30
2, 43633, Control_c, 0, 11, 121
2, 43641, Control_c, 0, 11, 120
2, 43649, Control_c, 0, 11, 119
2, 43658, Control_c, 0, 11, 118
2, 43666, Control_c, 0, 11, 117
2, 43674, Control_c, 0, 11, 116
2, 43682, Control_c, 0, 11, 115
2, 43690, Control_c, 0, 11, 114
2, 43699, Control_c, 0, 11, 113
2, 43707, Control_c, 0, 11, 112
2, 43715, Control_c, 0, 11, 111
2, 43723, Control_c, 0, 11, 110
2, 43726, Note_on_c, 0, 80, 0
2, 43726, Note_on_c, 0, 83, 0
2, 43728, Note_on_c, 0, 80, 26
2, 43728, Note_on_c, 0, 83, 27
2, 43732, Control_c, 0, 11, 109
2, 43740, Control_c, 0, 11, 108
2, 43748, Control_c, 0, 11, 107
2, 43756, Control_c, 0, 11, 106
2, 43765, Control_c, 0, 11, 105
2, 43773, Control_c, 0, 11, 104
2, 43781, Control_c, 0, 11, 103
2, 43789, Control_c, 0, 11, 102
2, 43797, Control_c, 0, 11, 101
2, 43806, Control_c, 0, 11, 100
2, 43814, Control_c, 0, 11, 99
2, 43822, Note_on_c, 0, 80, 0
2, 43822, Note_on_c, 0, 83, 0
2, 43822, Control_c, 0, 11, 98
2, 43824, Note_on_c, 0, 77, 33
2, 43824, Note_on_c, 0, 80, 31
2, 43830, Control_c, 0, 11, 97
2, 43839, Control_c, 0, 11, 96
2, 43847, Control_c, 0, 11, 95
2, 43855, Control_c, 0, 11, 94
2, 43863, Control_c, 0, 11, 93
2, 43870, Note_on_c, 0, 77, 0
2, 43870, Note_on_c, 0, 80, 0
2, 43872, Control_c, 0, 11, 92
2, 43920, Note_on_c, 0, 68, 26
2, 43920, Note_on_c, 0, 71, 31
2, 44014, Note_on_c, 0, 68, 0
2, 44014, Note_on_c, 0, 71, 0
2, 44016, Note_on_c, 0, 68, 29
2, 44016, Note_on_c, 0, 71, 28
2, 44110, Note_on_c, 0, 68, 0
2, 44110, Note_on_c, 0, 71, 0
2, 44112, Note_on_c, 0, 65, 28
2, 44112, Note_on_c, 0, 68, 32
2, 44158, Note_on_c, 0, 65, 0
2, 44158, Note_on_c, 0, 68, 0
2, 44160, Control_c, 0, 11, 127
2, 44168, Control_c, 0, 11, 126
2, 44176, Control_c, 0, 11, 125
2, 44184, Control_c, 0, 11, 124
2, 44192, Control_c, 0, 11, 123
2, 44201, Control_c, 0, 11, 122
2, 44208, Note_on_c, 0, 80, 29
2, 44208, Note_on_c, 0, 83, 31
2, 44209, Control_c, 0, 11, 121
2, 44217, Control_c, 0, 11, 120
2, 44225, Control_c, 0, 11, 119
2, 44234, Control_c, 0, 11, 118
2, 44242, Control_c, 0, 11, 117
2, 44250, Control_c, 0, 11, 116
2, 44258, Control_c, 0, 11, 115
2, 44266, Control_c, 0, 11, 114
2, 44275, Control_c, 0, 11, 113
2, 44283, Control_c, 0, 11, 112
2, 44291, Control_c, 0, 11, 111
2, 44299, Control_c, 0, 11, 110
2, 44302, Note_on_c, 0, 80, 0
2, 44302, Note_on_c, 0, 83, 0
2, 44304, Note_on_c, 0, 80, 32
2, 44304, Note_on_c, 0, 83, 33
2, 44308, Control_c, 0, 11, 109
2, 44316, Control_c, 0, 11, 108
2, 44324, Control_c, 0, 11, 107
2, 44332, Control_c, 0, 11, 106
2, 44341, Control_c, 0, 11, 105
2, 44349, Control_c, 0, 11, 104
2, 44357, Control_c, 0, 11, 103
2, 44365, Control_c, 0, 11, 102
2, 44373, Control_c, 0, 11, 101
2, 44382, Control_c, 0, 11, 100
2, 44390, Control_c, 0, 11, 99
2, 44398, Note_on_c, 0, 80, 0
2, 44398, Note_on_c, 0, 83, 0
2, 44398, Control_c, 0, 11, 98
2, 44400, Note_on_c, 0, 77, 28
2, 44400, Note_on_c, 0, 80, 35
2, 44406, Control_c, 0, 11, 97
2, 44415, Control_c, 0, 11, 96
2, 44423, Control_c, 0, 11, 95
2, 44431, Control_c, 0, 11, 94
2, 44439, Control_c, 0, 11, 93
2, 44446, Note_on_c, 0, 77, 0
2, 44446, Note_on_c, 0, 80, 0
2, 44448, Control_c, 0, 11, 92
2, 44496, Note_on_c, 0, 68, 30
2, 44496, Note_on_c, 0, 71, 28
2, 44590, Note_on_c, 0, 68, 0
2, 44590, Note_on_c, 0, 71, 0
2, 44592, Note_on_c, 0, 68, 30
2, 44592, Note_on_c, 0, 71, 34
2, 44686, Note_on_c, 0, 68, 0
2, 44686, Note_on_c, 0, 71, 0
2, 44688, Note_on_c, 0, 65, 33
2, 44688, Note_on_c, 0, 68, 26
2, 44734, Note_on_c, 0, 65, 0
2, 44734, Note_on_c, 0, 68, 0
2, 44736, Control_c, 0, 11, 127
2, 44744, Control_c, 0, 11, 126
2, 44752, Control_c, 0, 11, 125
2, 44760, Control_c, 0, 11, 124
2, 44768, Control_c, 0, 11, 123
2, 44777, Control_c, 0, 11, 122
2, 44784, Note_on_c, 0, 80, 34
2, 44784, Note_on_c, 0, 83, 31
2, 44785, Control_c, 0, 11, 121
2, 44793, Control_c, 0, 11, 120
2, 44801, Control_c, 0, 11, 119
2, 44810, Control_c, 0, 11, 118
2, 44818, Control_c, 0, 11, 117
2, 44826, Control_c, 0, 11, 116
2, 44834, Control_c, 0, 11, 115
2, 44842, Control_c, 0, 11, 114
2, 44851, Control_c, 0, 11, 113
2, 44859, Control_c, 0, 11, 112
2, 44867, Control_c, 0, 11, 111
2, 44875, Control_c, 0, 11, 110
2, 44878, Note_on_c, 0, 80, 0
2, 44878, Note_on_c, 0, 83, 0
2, 44880, Note_on_c, 0, 80, 26
2, 44880, Note_on_c, 0, 83, 34
2, 44884, Control_c, 0, 11, 109
2, 44892, Control_c, 0, 11, 108
2, 44900, Control_c, 0, 11, 107
2, 44908, Control_c, 0, 11, 106
2, 44917, Control_c, 0, 11, 105
2, 44925, Control_c, 0, 11, 104
2, 44933, Control_c, 0, 11, 103
2, 44941, Control_c, 0, 11, 102
2, 44949, Control_c, 0, 11, 101
2, 44958, Control_c, 0, 11, 100
2, 44966, Control_c, 0, 11, 99
2, 44974, Note_on_c, 0, 80, 0
2, 44974, Note_on_c, 0, 83, 0
2, 44974, Control_c, 0, 11, 98
2, 44976, Note_on_c, 0, 77, 32
2, 44976, Note_on_c, 0, 80, 26
2, 44982, Control_c, 0, 11, 97
2, 44991, Control_c, 0, 11, 96
2, 44999, Control_c, 0, 11, 95
2, 45007, Control_c, 0, 11, 94
2, 45015, Control_c, 0, 11, 93
2, 45022, Note_on_c, 0, 77, 0
2, 45022, Note_on_c, 0, 80, 0
2, 45024, Control_c, 0, 11, 92
2, 45072, Note_on_c, 0, 68, 28
2, 45072, Note_on_c, 0, 71, 26
2, 45166, Note_on_c, 0, 68, 0
2, 45166, Note_on_c, 0, 71, 0
2, 45168, Note_on_c, 0, 68, 35
2, 45168, Note_on_c, 0, 71, 34
2, 45262, Note_on_c, 0, 68, 0
2, 45262, Note_on_c, 0, 71, 0
2, 45264, Note_on_c, 0, 65, 35
2, 45264, Note_on_c, 0, 68, 35
2, 45310, Note_on_c, 0, 65, 0
2, 45310, Note_on_c, 0, 68, 0
2, 46608, Control_c, 0, 11, 92
2, 46608, Note_on_c, 0, 70, 62
2, 46610, Control_c, 0, 11, 93
2, 46613, Control_c, 0, 11, 94
2, 46616, Control_c, 0, 11, 95
2, 46618, Control_c, 0, 11, 96
2, 46621, Control_c, 0, 11, 97
2, 46624, Control_c, 0, 11, 98
2, 46627, Control_c, 0, 11, 99
2, 46629, Control_c, 0, 11, 100
2, 46632, Control_c, 0, 11, 101
2, 46635, Control_c, 0, 11, 102
2, 46638, Control_c, 0, 11, 103
2, 46640, Control_c, 0, 11, 104
2, 46643, Control_c, 0, 11, 105
2, 46646, Control_c, 0, 11, 106
2, 46649, Control_c, 0, 11, 107
2, 46651, Control_c, 0, 11, 108
2, 46654, Control_c, 0, 11, 109
2, 46657, Control_c, 0, 11, 110
2, 46660, Control_c, 0, 11, 111
2, 46662, Control_c, 0, 11, 112
2, 46665, Control_c, 0, 11, 113
2, 46668, Control_c, 0, 11, 114
2, 46671, Control_c, 0, 11, 115
2, 46673, Control_c, 0, 11, 116
2, 46676, Control_c, 0, 11, 117
2, 46679, Control_c, 0, 11, 118
2, 46682, Control_c, 0, 11, 119
2, 46684, Control_c, 0, 11, 120
2, 46687, Control_c, 0, 11, 121
2, 46690, Control_c, 0, 11, 122
2, 46693, Control_c, 0, 11, 123
2, 46695, Control_c, 0, 11, 124
2, 46698, Control_c, 0, 11, 125
2, 46701, Control_c, 0, 11, 126
2, 46702, Note_on_c, 0, 70, 0
2, 46704, Control_c, 0, 11, 127
2, 46704, Note_on_c, 0, 71, 56
2, 46750, Note_on_c, 0, 71, 0
2, 46896, Control_c, 0, 11, 92
2, 46896, Note_on_c, 0, 70, 56
2, 46898, Control_c, 0, 11, 93
2, 46901, Control_c, 0, 11, 94
2, 46904, Control_c, 0, 11, 95
2, 46906, Control_c, 0, 11, 96
2, 46909, Control_c, 0, 11, 97
2, 46912, Control_c, 0, 11, 98
2, 46915, Control_c, 0, 11, 99
2, 46917, Control_c, 0, 11, 100
2, 46920, Control_c, 0, 11, 101
2, 46923, Control_c, 0, 11, 102
2, 46926, Control_c, 0, 11, 103
2, 46928, Control_c, 0, 11, 104
2, 46931, Control_c, 0, 11, 105
2, 46934, Control_c, 0, 11, 106
2, 46937, Control_c, 0, 11, 107
2, 46939, Control_c, 0, 11, 108
2, 46942, Control_c, 0, 11, 109
2, 46945, Control_c, 0, 11, 110
2, 46948, Control_c, 0, 11, 111
2, 46950, Control_c, 0, 11, 112
2, 46953, Control_c, 0, 11, 113
2, 46956, Control_c, 0, 11, 114
2, 46959, Control_c, 0, 11, 115
2, 46961, Control_c, 0, 11, 116
2, 46964, Control_c, 0, 11, 117
2, 46967, Control_c, 0, 11, 118
2, 46970, Control_c, 0, 11, 119
2, 46972, Control_c, 0, 11, 120
2, 46975, Control_c, 0, 11, 121
2, 46978, Control_c, 0, 11, 122
2, 46981, Control_c, 0, 11, 123
2, 46983, Control_c, 0, 11, 124
2, 46986, Control_c, 0, 11, 125
2, 46989, Control_c, 0, 11, 126
2, 46990, Note_on_c, 0, 70, 0
2, 46992, Control_c, 0, 11, 127
2, 46992, Note_on_c, 0, 71, 58
2, 47038, Note_on_c, 0, 71, 0
2, 47040, Control_c, 0, 11, 92
2, 47040, Note_on_c, 0, 69, 42
2, 47040, Note_on_c, 0, 73, 45
2, 47056, Control_c, 0, 11, 93
2, 47072, Control_c, 0, 11, 94
2, 47089, Control_c, 0, 11, 95
2, 47105, Control_c, 0, 11, 96
2, 47122, Control_c, 0, 11, 97
2, 47138, Control_c, 0, 11, 98
2, 47155, Control_c, 0, 11, 99
2, 47171, Control_c, 0, 11, 100
2, 47182, Note_on_c, 0, 69, 0
2, 47182, Note_on_c, 0, 73, 0
2, 47184, Note_on_c, 0, 68, 47
2, 47184, Note_on_c, 0, 72, 46
2, 47188, Control_c, 0, 11, 101
2, 47204, Control_c, 0, 11, 102
2, 47221, Control_c, 0, 11, 103
2, 47230, Note_on_c, 0, 68, 0
2, 47230, Note_on_c, 0, 72, 0
2, 47232, Note_on_c, 0, 67, 47
2, 47232, Note_on_c, 0, 71, 50
2, 47237, Control_c, 0, 11, 104
2, 47253, Control_c, 0, 11, 105
2, 47270, Control_c, 0, 11, 106
2, 47278, Note_on_c, 0, 67, 0
2, 47278, Note_on_c, 0, 71, 0
2, 47280, Note_on_c, 0, 68, 44
2, 47280, Note_on_c, 0, 72, 47
2, 47286, Control_c, 0, 11, 107
2, 47303, Control_c, 0, 11, 108
2, 47319, Control_c, 0, 11, 109
2, 47326, Note_on_c, 0, 68, 0
2, 47326, Note_on_c, 0, 72, 0
2, 47328, Note_on_c, 0, 69, 41
2, 47328, Note_on_c, 0, 73, 46
2, 47336, Control_c, 0, 11, 110
2, 47352, Control_c, 0, 11, 111
2, 47369, Control_c, 0, 11, 112
2, 47374, Note_on_c, 0, 69, 0
2, 47374, Note_on_c, 0, 73, 0
2, 47376, Note_on_c, 0, 71, 50
2, 47376, Note_on_c, 0, 74, 43
2, 47385, Control_c, 0, 11, 113
2, 47402, Control_c, 0, 11, 114
2, 47418, Control_c, 0, 11, 115
2, 47422, Note_on_c, 0, 71, 0
2, 47422, Note_on_c, 0, 74, 0
2, 47424, Note_on_c, 0, 71, 49
2, 47424, Note_on_c, 0, 75, 43
2, 47434, Control_c, 0, 11, 116
2, 47451, Control_c, 0, 11, 117
2, 47467, Control_c, 0, 11, 118
2, 47484, Control_c, 0, 11, 119
2, 47500, Control_c, 0, 11, 120
2, 47517, Control_c, 0, 11, 121
2, 47518, Note_on_c, 0, 75, 0
2, 47520, Note_on_c, 0, 74, 47
2, 47533, Control_c, 0, 11, 122
2, 47550, Control_c, 0, 11, 123
2, 47566, Control_c, 0, 11, 124
2, 47583, Control_c, 0, 11, 125
2, 47599, Control_c, 0, 11, 126
2, 47614, Note_on_c, 0, 71, 0
2, 47614, Note_on_c, 0, 74, 0
2, 47616, Control_c, 0, 11, 127
2, 47760, Control_c, 0, 11, 92
2, 47760, Note_on_c, 0, 70, 64
2, 47762, Control_c, 0, 11, 93
2, 47765, Control_c, 0, 11, 94
2, 47768, Control_c, 0, 11, 95
2, 47770, Control_c, 0, 11, 96
2, 47773, Control_c, 0, 11, 97
2, 47776, Control_c, 0, 11, 98
2, 47779, Control_c, 0, 11, 99
2, 47781, Control_c, 0, 11, 100
2, 47784, Control_c, 0, 11, 101
2, 47787, Control_c, 0, 11, 102
2, 47790, Control_c, 0, 11, 103
2, 47792, Control_c, 0, 11, 104
2, 47795, Control_c, 0, 11, 105
2, 47798, Control_c, 0, 11, 106
2, 47801, Control_c, 0, 11, 107
2, 47803, Control_c, 0, 11, 108
2, 47806, Control_c, 0, 11, 109
2, 47809, Control_c, 0, 11, 110
2, 47812, Control_c, 0, 11, 111
2, 47814, Control_c, 0, 11, 112
2, 47817, Control_c, 0, 11, 113
2, 47820, Control_c, 0, 11, 114
2, 47823, Control_c, 0, 11, 115
2, 47825, Control_c, 0, 11, 116
2, 47828, Control_c, 0, 11, 117
2, 47831, Control_c, 0, 11, 118
2, 47834, Control_c, 0, 11, 119
2, 47836, Control_c, 0, 11, 120
2, 47839, Control_c, 0, 11, 121
2, 47842, Control_c, 0, 11, 122
2, 47845, Control_c, 0, 11, 123
2, 47847, Control_c, 0, 11, 124
2, 47850, Control_c, 0, 11, 125
2, 47853, Control_c, 0, 11, 126
2, 47854, Note_on_c, 0, 70, 0
2, 47856, Control_c, 0, 11, 127
2, 47856, Note_on_c, 0, 73, 56
2, 47902, Note_on_c, 0, 73, 0
2, 48048, Control_c, 0, 11, 92
2, 48048, Note_on_c, 0, 70, 56
2, 48050, Control_c, 0, 11, 93
2, 48053, Control_c, 0, 11, 94
2, 48056, Control_c, 0, 11, 95
2, 48058, Control_c, 0, 11, 96
2, 48061, Control_c, 0, 11, 97
2, 48064, Control_c, 0, 11, 98
2, 48067, Control_c, 0, 11, 99
2, 48069, Control_c, 0, 11, 100
2, 48072, Control_c, 0, 11, 101
2, 48075, Control_c, 0, 11, 102
2, 48078, Control_c, 0, 11, 103
2, 48080, Control_c, 0, 11, 104
2, 48083, Control_c, 0, 11, 105
2, 48086, Control_c, 0, 11, 106
2, 48089, Control_c, 0, 11, 107
2, 48091, Control_c, 0, 11, 108
2, 48094, Control_c, 0, 11, 109
2, 48097, Control_c, 0, 11, 110
2, 48100, Control_c, 0, 11, 111
2, 48102, Control_c, 0, 11, 112
2, 48105, Control_c, 0, 11, 113
2, 48108, Control_c, 0, 11, 114
2, 48111, Control_c, 0, 11, 115
2, 48113, Control_c, 0, 11, 116
2, 48116, Control_c, 0, 11, 117
2, 48119, Control_c, 0, 11, 118
2, 48122, Control_c, 0, 11, 119
2, 48124, Control_c, 0, 11, 120
2, 48127, Control_c, 0, 11, 121
2, 48130, Control_c, 0, 11, 122
2, 48133, Control_c, 0, 11, 123
2, 48135, Control_c, 0, 11, 124
2, 48138, Control_c, 0, 11, 125
2, 48141, Control_c, 0, 11, 126
2, 48142, Note_on_c, 0, 70, 0
2, 48144, Control_c, 0, 11, 127
2, 48144, Note_on_c, 0, 73, 63
2, 48190, Note_on_c, 0, 73, 0
2, 48192, Control_c, 0, 11, 92
2, 48192, Note_on_c, 0, 71, 56
2, 48192, Note_on_c, 0, 75, 62
2, 48208, Control_c, 0, 11, 93
2, 48224, Control_c, 0, 11, 94
2, 48241, Control_c, 0, 11, 95
2, 48257, Control_c, 0, 11, 96
2, 48274, Control_c, 0, 11, 97
2, 48290, Control_c, 0, 11, 98
2, 48307, Control_c, 0, 11, 99
2, 48323, Control_c, 0, 11, 100
2, 48334, Note_on_c, 0, 71, 0
2, 48334, Note_on_c, 0, 75, 0
2, 48336, Note_on_c, 0, 70, 60
2, 48336, Note_on_c, 0, 74, 56
2, 48340, Control_c, 0, 11, 101
2, 48356, Control_c, 0, 11, 102
2, 48373, Control_c, 0, 11, 103
2, 48382, Note_on_c, 0, 70, 0
2, 48382, Note_on_c, 0, 74, 0
2, 48384, Note_on_c, 0, 69, 55
2, 48384, Note_on_c, 0, 73, 60
2, 48389, Control_c, 0, 11, 104
2, 48405, Control_c, 0, 11, 105
2, 48422, Control_c, 0, 11, 106
2, 48430, Note_on_c, 0, 69, 0
2, 48430, Note_on_c, 0, 73, 0
2, 48432, Note_on_c, 0, 70, 62
2, 48432, Note_on_c, 0, 74, 63
2, 48438, Control_c, 0, 11, 107
2, 48455, Control_c, 0, 11, 108
2, 48471, Control_c, 0, 11, 109
2, 48478, Note_on_c, 0, 70, 0
2, 48478, Note_on_c, 0, 74, 0
2, 48480, Note_on_c, 0, 71, 65
2, 48480, Note_on_c, 0, 75, 55
2, 48488, Control_c, 0, 11, 110
2, 48504, Control_c, 0, 11, 111
2, 48521, Control_c, 0, 11, 112
2, 48537, Control_c, 0, 11, 113
2, 48554, Control_c, 0, 11, 114
2, 48570, Control_c, 0, 11, 115
2, 48586, Control_c, 0, 11, 116
2, 48603, Control_c, 0, 11, 117
2, 48619, Control_c, 0, 11, 118
2, 48636, Control_c, 0, 11, 119
2, 48652, Control_c, 0, 11, 120
2, 48669, Control_c, 0, 11, 121
2, 48672, Note_on_c, 0, 71, 0
2, 48672, Note_on_c, 0, 75, 0
2, 48672, Note_on_c, 0, 74, 62
2, 48672, Note_on_c, 0, 78, 60
2, 48685, Control_c, 0, 11, 122
2, 48702, Control_c, 0, 11, 123
2, 48718, Control_c, 0, 11, 124
2, 48735, Control_c, 0, 11, 125
2, 48751, Control_c, 0, 11, 126
2, 48766, Note_on_c, 0, 74, 0
2, 48766, Note_on_c, 0, 78, 0
2, 48768, Control_c, 0, 11, 127
2, 48768, Control_c, 0, 11, 127
2, 49344, Note_on_c, 0, 77, 59
2, 49568, Note_on_c, 0, 77, 0
2, 49568, Note_on_c, 0, 78, 63
2, 49600, Note_on_c, 0, 78, 0
2, 49600, Note_on_c, 0, 77, 56
2, 49632, Note_on_c, 0, 77, 0
2, 49632, Note_on_c, 0, 78, 56
2, 49664, Note_on_c, 0, 78, 0
2, 49664, Note_on_c, 0, 80, 64
2, 49696, Note_on_c, 0, 80, 0
2, 49696, Note_on_c, 0, 78, 61
2, 49728, Note_on_c, 0, 78, 0
2, 49728, Note_on_c, 0, 80, 62
2, 49760, Note_on_c, 0, 80, 0
2, 49760, Note_on_c, 0, 82, 61
2, 49792, Note_on_c, 0, 82, 0
2, 49792, Note_on_c, 0, 80, 59
2, 49824, Note_on_c, 0, 80, 0
2, 49824, Note_on_c, 0, 82, 56
2, 49856, Note_on_c, 0, 82, 0
2, 49856, Note_on_c, 0, 83, 63
2, 49888, Note_on_c, 0, 83, 0
2, 49888, Note_on_c, 0, 82, 55
2, 49920, Note_on_c, 0, 82, 0
2, 49920, Note_on_c, 0, 83, 56
2, 49952, Note_on_c, 0, 83, 0
2, 49952, Note_on_c, 0, 85, 65
2, 49984, Note_on_c, 0, 85, 0
2, 49984, Note_on_c, 0, 83, 61
2, 50016, Note_on_c, 0, 83, 0
2, 50016, Note_on_c, 0, 82, 63
2, 50048, Note_on_c, 0, 82, 0
2, 50048, Note_on_c, 0, 83, 64
2, 50080, Note_on_c, 0, 83, 0
2, 50080, Note_on_c, 0, 82, 59
2, 50112, Note_on_c, 0, 82, 0
2, 50112, Note_on_c, 0, 80, 57
2, 50144, Note_on_c, 0, 80, 0
2, 50144, Note_on_c, 0, 82, 61
2, 50176, Note_on_c, 0, 82, 0
2, 50176, Note_on_c, 0, 80, 64
2, 50208, Note_on_c, 0, 80, 0
2, 50208, Note_on_c, 0, 78, 64
2, 50240, Note_on_c, 0, 78, 0
2, 50240, Note_on_c, 0, 80, 63
2, 50272, Note_on_c, 0, 80, 0
2, 50272, Note_on_c, 0, 78, 58
2, 50304, Note_on_c, 0, 78, 0
2, 50304, Note_on_c, 0, 77, 65
2, 50400, Note_on_c, 0, 77, 0
2, 50400, Note_on_c, 0, 80, 64
2, 50494, Note_on_c, 0, 80, 0
2, 50496, Control_c, 0, 11, 75
2, 50496, Note_on_c, 0, 77, 75
2, 50507, Control_c, 0, 11, 76
2, 50518, Control_c, 0, 11, 77
2, 50529, Control_c, 0, 11, 78
2, 50540, Control_c, 0, 11, 79
2, 50551, Control_c, 0, 11, 80
2, 50562, Control_c, 0, 11, 81
2, 50573, Control_c, 0, 11, 82
2, 50584, Control_c, 0, 11, 83
2, 50595, Control_c, 0, 11, 84
2, 50606, Control_c, 0, 11, 85
2, 50617, Control_c, 0, 11, 86
2, 50628, Control_c, 0, 11, 87
2, 50640, Control_c, 0, 11, 88
2, 50651, Control_c, 0, 11, 89
2, 50662, Control_c, 0, 11, 90
2, 50673, Control_c, 0, 11, 91
2, 50684, Control_c, 0, 11, 92
2, 50695, Control_c, 0, 11, 93
2, 50706, Control_c, 0, 11, 94
2, 50717, Control_c, 0, 11, 95
2, 50728, Control_c, 0, 11, 96
2, 50739, Control_c, 0, 11, 97
2, 50750, Control_c, 0, 11, 98
2, 50761, Control_c, 0, 11, 99
2, 50772, Control_c, 0, 11, 100
2, 50784, Note_on_c, 0, 77, 0
2, 50784, Control_c, 0, 11, 101
2, 50784, Note_on_c, 0, 75, 71
2, 50795, Control_c, 0, 11, 102
2, 50806, Control_c, 0, 11, 103
2, 50816, Note_on_c, 0, 75, 0
2, 50816, Note_on_c, 0, 77, 72
2, 50817, Control_c, 0, 11, 104
2, 50828, Control_c, 0, 11, 105
2, 50839, Control_c, 0, 11, 106
2, 50848, Note_on_c, 0, 77, 0
2, 50848, Note_on_c, 0, 75, 80
2, 50850, Control_c, 0, 11, 107
2, 50861, Control_c, 0, 11, 108
2, 50872, Control_c, 0, 11, 109
2, 50880, Note_on_c, 0, 75, 0
2, 50880, Note_on_c, 0, 73, 79
2, 50883, Control_c, 0, 11, 110
2, 50894, Control_c, 0, 11, 111
2, 50905, Control_c, 0, 11, 112
2, 50916, Control_c, 0, 11, 113
2, 50928, Control_c, 0, 11, 114
2, 50939, Control_c, 0, 11, 115
2, 50950, Control_c, 0, 11, 116
2, 50961, Control_c, 0, 11, 117
2, 50972, Control_c, 0, 11, 118
2, 50976, Note_on_c, 0, 73, 0
2, 50976, Note_on_c, 0, 77, 74
2, 50983, Control_c, 0, 11, 119
2, 50994, Control_c, 0, 11, 120
2, 51005, Control_c, 0, 11, 121
2, 51016, Control_c, 0, 11, 122
2, 51027, Control_c, 0, 11, 123
2, 51038, Control_c, 0, 11, 124
2, 51049, Control_c, 0, 11, 125
2, 51060, Control_c, 0, 11, 126
2, 51070, Note_on_c, 0, 77, 0
2, 51072, Control_c, 0, 11, 127
2, 51072, Control_c, 0, 11, 75
2, 51072, Note_on_c, 0, 70, 94
2, 51083, Control_c, 0, 11, 76
2, 51094, Control_c, 0, 11, 77
2, 51105, Control_c, 0, 11, 78
2, 51116, Control_c, 0, 11, 79
2, 51127, Control_c, 0, 11, 80
2, 51138, Control_c, 0, 11, 81
2, 51149, Control_c, 0, 11, 82
2, 51160, Control_c, 0, 11, 83
2, 51171, Control_c, 0, 11, 84
2, 51182, Control_c, 0, 11, 85
2, 51193, Control_c, 0, 11, 86
2, 51204, Control_c, 0, 11, 87
2, 51216, Control_c, 0, 11, 88
2, 51227, Control_c, 0, 11, 89
2, 51238, Control_c, 0, 11, 90
2, 51249, Control_c, 0, 11, 91
2, 51260, Control_c, 0, 11, 92
2, 51271, Control_c, 0, 11, 93
2, 51282, Control_c, 0, 11, 94
2, 51293, Control_c, 0, 11, 95
2, 51304, Control_c, 0, 11, 96
2, 51315, Control_c, 0, 11, 97
2, 51326, Control_c, 0, 11, 98
2, 51337, Control_c, 0, 11, 99
2, 51348, Control_c, 0, 11, 100
2, 51360, Control_c, 0, 11, 101
2, 51371, Control_c, 0, 11, 102
2, 51382, Control_c, 0, 11, 103
2, 51393, Control_c, 0, 11, 104
2, 51404, Control_c, 0, 11, 105
2, 51415, Control_c, 0, 11, 106
2, 51426, Control_c, 0, 11, 107
2, 51437, Control_c, 0, 11, 108
2, 51448, Control_c, 0, 11, 109
2, 51459, Control_c, 0, 11, 110
2, 51470, Control_c, 0, 11, 111
2, 51481, Control_c, 0, 11, 112
2, 51492, Control_c, 0, 11, 113
2, 51504, Control_c, 0, 11, 114
2, 51515, Control_c, 0, 11, 115
2, 51526, Control_c, 0, 11, 116
2, 51537, Control_c, 0, 11, 117
2, 51548, Control_c, 0, 11, 118
2, 51559, Control_c, 0, 11, 119
2, 51570, Control_c, 0, 11, 120
2, 51581, Control_c, 0, 11, 121
2, 51592, Control_c, 0, 11, 122
2, 51603, Control_c, 0, 11, 123
2, 51614, Control_c, 0, 11, 124
2, 51625, Control_c, 0, 11, 125
2, 51636, Control_c, 0, 11, 126
2, 51648, Control_c, 0, 11, 127
2, 51742, Note_on_c, 0, 70, 0
2, 51936, Control_c, 0, 11, 92
2, 51936, Note_on_c, 0, 80, 96
2, 51936, Note_on_c, 0, 87, 90
2, 51966, Note_on_c, 0, 80, 0
2, 51966, Note_on_c, 0, 87, 0
2, 51968, Note_on_c, 0, 78, 89
2, 51968, Note_on_c, 0, 85, 88
2, 51998, Note_on_c, 0, 78, 0
2, 51998, Note_on_c, 0, 85, 0
2, 52000, Note_on_c, 0, 75, 90
2, 52000, Note_on_c, 0, 82, 92
2, 52030, Note_on_c, 0, 75, 0
2, 52030, Note_on_c, 0, 82, 0
2, 52032, Note_on_c, 0, 73, 93
2, 52032, Note_on_c, 0, 80, 97
2, 52158, Note_on_c, 0, 73, 0
2, 52158, Note_on_c, 0, 80, 0
2, 52160, Note_on_c, 0, 75, 87
2, 52160, Note_on_c, 0, 82, 87
2, 52190, Note_on_c, 0, 75, 0
2, 52190, Note_on_c, 0, 82, 0
2, 52192, Note_on_c, 0, 78, 91
2, 52192, Note_on_c, 0, 85, 87
2, 52222, Note_on_c, 0, 78, 0
2, 52222, Note_on_c, 0, 85, 0
2, 52224, Control_c, 0, 11, 92
2, 52224, Note_on_c, 0, 80, 95
2, 52224, Note_on_c, 0, 87, 96
2, 52232, Control_c, 0, 11, 93
2, 52240, Control_c, 0, 11, 94
2, 52248, Control_c, 0, 11, 95
2, 52254, Note_on_c, 0, 80, 0
2, 52254, Note_on_c, 0, 87, 0
2, 52256, Control_c, 0, 11, 96
2, 52256, Note_on_c, 0, 78, 90
2, 52256, Note_on_c, 0, 85, 88
2, 52265, Control_c, 0, 11, 97
2, 52273, Control_c, 0, 11, 98
2, 52281, Control_c, 0, 11, 99
2, 52286, Note_on_c, 0, 78, 0
2, 52286, Note_on_c, 0, 85, 0
2, 52288, Note_on_c, 0, 75, 88
2, 52288, Note_on_c, 0, 82, 95
2, 52289, Control_c, 0, 11, 100
2, 52298, Control_c, 0, 11, 101
2, 52306, Control_c, 0, 11, 102
2, 52314, Control_c, 0, 11, 103
2, 52318, Note_on_c, 0, 75, 0
2, 52318, Note_on_c, 0, 82, 0
2, 52320, Note_on_c, 0, 78, 96
2, 52320, Note_on_c, 0, 85, 91
2, 52322, Control_c, 0, 11, 104
2, 52330, Control_c, 0, 11, 105
2, 52339, Control_c, 0, 11, 106
2, 52347, Control_c, 0, 11, 107
2, 52355, Control_c, 0, 11, 108
2, 52363, Control_c, 0, 11, 109
2, 52372, Control_c, 0, 11, 110
2, 52380, Control_c, 0, 11, 111
2, 52388, Control_c, 0, 11, 112
2, 52396, Control_c, 0, 11, 113
2, 52405, Control_c, 0, 11, 114
2, 52413, Control_c, 0, 11, 115
2, 52414, Note_on_c, 0, 78, 0
2, 52414, Note_on_c, 0, 85, 0
2, 52416, Note_on_c, 0, 80, 88
2, 52416, Note_on_c, 0, 87, 90
2, 52421, Control_c, 0, 11, 116
2, 52429, Control_c, 0, 11, 117
2, 52437, Control_c, 0, 11, 118
2, 52446, Control_c, 0, 11, 119
2, 52454, Control_c, 0, 11, 120
2, 52462, Control_c, 0, 11, 121
2, 52470, Control_c, 0, 11, 122
2, 52479, Control_c, 0, 11, 123
2, 52487, Control_c, 0, 11, 124
2, 52495, Control_c, 0, 11, 125
2, 52503, Control_c, 0, 11, 126
2, 52510, Note_on_c, 0, 80, 0
2, 52510, Note_on_c, 0, 87, 0
2, 52512, Control_c, 0, 11, 127
2, 52608, Control_c, 0, 11, 92
2, 52608, Note_on_c, 0, 71, 63
2, 52610, Control_c, 0, 11, 93
2, 52613, Control_c, 0, 11, 94
2, 52616, Control_c, 0, 11, 95
2, 52618, Control_c, 0, 11, 96
2, 52621, Control_c, 0, 11, 97
2, 52622, Note_on_c, 0, 71, 0
2, 52624, Control_c, 0, 11, 98
2, 52624, Note_on_c, 0, 73, 64
2, 52627, Control_c, 0, 11, 99
2, 52629, Control_c, 0, 11, 100
2, 52632, Control_c, 0, 11, 101
2, 52635, Control_c, 0, 11, 102
2, 52638, Note_on_c, 0, 73, 0
2, 52638, Control_c, 0, 11, 103
2, 52640, Control_c, 0, 11, 104
2, 52640, Note_on_c, 0, 75, 55
2, 52643, Control_c, 0, 11, 105
2, 52646, Control_c, 0, 11, 106
2, 52649, Control_c, 0, 11, 107
2, 52651, Control_c, 0, 11, 108
2, 52654, Note_on_c, 0, 75, 0
2, 52654, Control_c, 0, 11, 109
2, 52656, Note_on_c, 0, 77, 60
2, 52657, Control_c, 0, 11, 110
2, 52660, Control_c, 0, 11, 111
2, 52662, Control_c, 0, 11, 112
2, 52665, Control_c, 0, 11, 113
2, 52668, Control_c, 0, 11, 114
2, 52670, Note_on_c, 0, 77, 0
2, 52671, Control_c, 0, 11, 115
2, 52672, Note_on_c, 0, 78, 56
2, 52673, Control_c, 0, 11, 116
2, 52676, Control_c, 0, 11, 117
2, 52679, Control_c, 0, 11, 118
2, 52682, Control_c, 0, 11, 119
2, 52684, Control_c, 0, 11, 120
2, 52686, Note_on_c, 0, 78, 0
2, 52687, Control_c, 0, 11, 121
2, 52688, Note_on_c, 0, 80, 59
2, 52690, Control_c, 0, 11, 122
2, 52693, Control_c, 0, 11, 123
2, 52695, Control_c, 0, 11, 124
2, 52698, Control_c, 0, 11, 125
2, 52701, Control_c, 0, 11, 126
2, 52702, Note_on_c, 0, 80, 0
2, 52704, Control_c, 0, 11, 127
2, 52704, Note_on_c, 0, 82, 55
2, 52706, Control_c, 0, 11, 126
2, 52709, Control_c, 0, 11, 125
2, 52712, Control_c, 0, 11, 124
2, 52714, Control_c, 0, 11, 123
2, 52717, Control_c, 0, 11, 122
2, 52720, Control_c, 0, 11, 121
2, 52723, Control_c, 0, 11, 120
2, 52725, Control_c, 0, 11, 119
2, 52726, Note_on_c, 0, 82, 0
2, 52728, Control_c, 0, 11, 118
2, 52728, Note_on_c, 0, 80, 58
2, 52731, Control_c, 0, 11, 117
2, 52734, Control_c, 0, 11, 116
2, 52736, Control_c, 0, 11, 115
2, 52739, Control_c, 0, 11, 114
2, 52742, Control_c, 0, 11, 113
2, 52745, Control_c, 0, 11, 112
2, 52747, Control_c, 0, 11, 111
2, 52750, Note_on_c, 0, 80, 0
2, 52750, Control_c, 0, 11, 110
2, 52752, Note_on_c, 0, 78, 59
2, 52753, Control_c, 0, 11, 109
2, 52756, Control_c, 0, 11, 108
2, 52758, Control_c, 0, 11, 107
2, 52761, Control_c, 0, 11, 106
2, 52764, Control_c, 0, 11, 105
2, 52767, Control_c, 0, 11, 104
2, 52769, Control_c, 0, 11, 103
2, 52772, Control_c, 0, 11, 102
2, 52775, Control_c, 0, 11, 101
2, 52778, Control_c, 0, 11, 100
2, 52780, Control_c, 0, 11, 99
2, 52783, Control_c, 0, 11, 98
2, 52786, Control_c, 0, 11, 97
2, 52789, Control_c, 0, 11, 96
2, 52791, Control_c, 0, 11, 95
2, 52794, Control_c, 0, 11, 94
2, 52797, Control_c, 0, 11, 93
2, 52798, Note_on_c, 0, 78, 0
2, 52800, Control_c, 0, 11, 92
2, 52896, Control_c, 0, 11, 92
2, 52896, Note_on_c, 0, 71, 62
2, 52898, Control_c, 0, 11, 93
2, 52901, Control_c, 0, 11, 94
2, 52904, Control_c, 0, 11, 95
2, 52906, Control_c, 0, 11, 96
2, 52909, Control_c, 0, 11, 97
2, 52910, Note_on_c, 0, 71, 0
2, 52912, Control_c, 0, 11, 98
2, 52912, Note_on_c, 0, 73, 55
2, 52915, Control_c, 0, 11, 99
2, 52917, Control_c, 0, 11, 100
2, 52920, Control_c, 0, 11, 101
2, 52923, Control_c, 0, 11, 102
2, 52926, Note_on_c, 0, 73, 0
2, 52926, Control_c, 0, 11, 103
2, 52928, Control_c, 0, 11, 104
2, 52928, Note_on_c, 0, 75, 61
2, 52931, Control_c, 0, 11, 105
2, 52934, Control_c, 0, 11, 106
2, 52937, Control_c, 0, 11, 107
2, 52939, Control_c, 0, 11, 108
2, 52942, Note_on_c, 0, 75, 0
2, 52942, Control_c, 0, 11, 109
2, 52944, Note_on_c, 0, 77, 61
2, 52945, Control_c, 0, 11, 110
2, 52948, Control_c, 0, 11, 111
2, 52950, Control_c, 0, 11, 112
2, 52953, Control_c, 0, 11, 113
2, 52956, Control_c, 0, 11, 114
2, 52958, Note_on_c, 0, 77, 0
2, 52959, Control_c, 0, 11, 115
2, 52960, Note_on_c, 0, 78, 63
2, 52961, Control_c, 0, 11, 116
2, 52964, Control_c, 0, 11, 117
2, 52967, Control_c, 0, 11, 118
2, 52970, Control_c, 0, 11, 119
2, 52972, Control_c, 0, 11, 120
2, 52974, Note_on_c, 0, 78, 0
2, 52975, Control_c, 0, 11, 121
2, 52976, Note_on_c, 0, 80, 62
2, 52978, Control_c, 0, 11, 122
2, 52981, Control_c, 0, 11, 123
2, 52983, Control_c, 0, 11, 124
2, 52986, Control_c, 0, 11, 125
2, 52989, Control_c, 0, 11, 126
2, 52990, Note_on_c, 0, 80, 0
2, 52992, Control_c, 0, 11, 127
2, 52992, Note_on_c, 0, 82, 55
2, 52994, Control_c, 0, 11, 126
2, 52997, Control_c, 0, 11, 125
2, 53000, Control_c, 0, 11, 124
2, 53002, Control_c, 0, 11, 123
2, 53005, Control_c, 0, 11, 122
2, 53008, Control_c, 0, 11, 121
2, 53011, Control_c, 0, 11, 120
2, 53013, Control_c, 0, 11, 119
2, 53014, Note_on_c, 0, 82, 0
2, 53016, Control_c, 0, 11, 118
2, 53016, Note_on_c, 0, 80, 55
2, 53019, Control_c, 0, 11, 117
2, 53022, Control_c, 0, 11, 116
2, 53024, Control_c, 0, 11, 115
2, 53027, Control_c, 0, 11, 114
2, 53030, Control_c, 0, 11, 113
2, 53033, Control_c, 0, 11, 112
2, 53035, Control_c, 0, 11, 111
2, 53038, Note_on_c, 0, 80, 0
2, 53038, Control_c, 0, 11, 110
2, 53040, Note_on_c, 0, 78, 65
2, 53041, Control_c, 0, 11, 109
2, 53044, Control_c, 0, 11, 108
2, 53046, Control_c, 0, 11, 107
2, 53049, Control_c, 0, 11, 106
2, 53052, Control_c, 0, 11, 105
2, 53055, Control_c, 0, 11, 104
2, 53057, Control_c, 0, 11, 103
2, 53060, Control_c, 0, 11, 102
2, 53063, Control_c, 0, 11, 101
2, 53066, Control_c, 0, 11, 100
2, 53068, Control_c, 0, 11, 99
2, 53071, Control_c, 0, 11, 98
2, 53074, Control_c, 0, 11, 97
2, 53077, Control_c, 0, 11, 96
2, 53079, Control_c, 0, 11, 95
2, 53082, Control_c, 0, 11, 94
2, 53085, Control_c, 0, 11, 93
2, 53086, Note_on_c, 0, 78, 0
2, 53088, Control_c, 0, 11, 92
2, 53184, Control_c, 0, 11, 92
2, 53184, Note_on_c, 0, 71, 57
2, 53186, Control_c, 0, 11, 93
2, 53189, Control_c, 0, 11, 94
2, 53192, Control_c, 0, 11, 95
2, 53194, Control_c, 0, 11, 96
2, 53197, Control_c, 0, 11, 97
2, 53198, Note_on_c, 0, 71, 0
2, 53200, Control_c, 0, 11, 98
2, 53200, Note_on_c, 0, 73, 59
2, 53203, Control_c, 0, 11, 99
2, 53205, Control_c, 0, 11, 100
2, 53208, Control_c, 0, 11, 101
2, 53211, Control_c, 0, 11, 102
2, 53214, Note_on_c, 0, 73, 0
2, 53214, Control_c, 0, 11, 103
2, 53216, Control_c, 0, 11, 104
2, 53216, Note_on_c, 0, 75, 62
2, 53219, Control_c, 0, 11, 105
2, 53222, Control_c, 0, 11, 106
2, 53225, Control_c, 0, 11, 107
2, 53227, Control_c, 0, 11, 108
2, 53230, Note_on_c, 0, 75, 0
2, 53230, Control_c, 0, 11, 109
2, 53232, Note_on_c, 0, 77, 65
2, 53233, Control_c, 0, 11, 110
2, 53236, Control_c, 0, 11, 111
2, 53238, Control_c, 0, 11, 112
2, 53241, Control_c, 0, 11, 113
2, 53244, Control_c, 0, 11, 114
2, 53246, Note_on_c, 0, 77, 0
2, 53247, Control_c, 0, 11, 115
2, 53248, Note_on_c, 0, 78, 58
2, 53249, Control_c, 0, 11, 116
2, 53252, Control_c, 0, 11, 117
2, 53255, Control_c, 0, 11, 118
2, 53258, Control_c, 0, 11, 119
2, 53260, Control_c, 0, 11, 120
2, 53262, Note_on_c, 0, 78, 0
2, 53263, Control_c, 0, 11, 121
2, 53264, Note_on_c, 0, 80, 60
2, 53266, Control_c, 0, 11, 122
2, 53269, Control_c, 0, 11, 123
2, 53271, Control_c, 0, 11, 124
2, 53274, Control_c, 0, 11, 125
2, 53277, Control_c, 0, 11, 126
2, 53278, Note_on_c, 0, 80, 0
2, 53280, Control_c, 0, 11, 127
2, 53280, Note_on_c, 0, 82, 61
2, 53282, Control_c, 0, 11, 126
2, 53285, Control_c, 0, 11, 125
2, 53288, Control_c, 0, 11, 124
2, 53290, Control_c, 0, 11, 123
2, 53293, Control_c, 0, 11, 122
2, 53296, Control_c, 0, 11, 121
2, 53299, Control_c, 0, 11, 120
2, 53301, Control_c, 0, 11, 119
2, 53302, Note_on_c, 0, 82, 0
2, 53304, Control_c, 0, 11, 118
2, 53304, Note_on_c, 0, 80, 56
2, 53307, Control_c, 0, 11, 117
2, 53310, Control_c, 0, 11, 116
2, 53312, Control_c, 0, 11, 115
2, 53315, Control_c, 0, 11, 114
2, 53318, Control_c, 0, 11, 113
2, 53321, Control_c, 0, 11, 112
2, 53323, Control_c, 0, 11, 111
2, 53326, Note_on_c, 0, 80, 0
2, 53326, Control_c, 0, 11, 110
2, 53328, Note_on_c, 0, 78, 61
2, 53329, Control_c, 0, 11, 109
2, 53332, Control_c, 0, 11, 108
2, 53334, Control_c, 0, 11, 107
2, 53337, Control_c, 0, 11, 106
2, 53340, Control_c, 0, 11, 105
2, 53343, Control_c, 0, 11, 104
2, 53345, Control_c, 0, 11, 103
2, 53348, Control_c, 0, 11, 102
2, 53351, Control_c, 0, 11, 101
2, 53354, Control_c, 0, 11, 100
2, 53356, Control_c, 0, 11, 99
2, 53359, Control_c, 0, 11, 98
2, 53362, Control_c, 0, 11, 97
2, 53365, Control_c, 0, 11, 96
2, 53367, Control_c, 0, 11, 95
2, 53370, Control_c, 0, 11, 94
2, 53373, Control_c, 0, 11, 93
2, 53374, Note_on_c, 0, 78, 0
2, 53376, Control_c, 0, 11, 92
2, 53472, Control_c, 0, 11, 92
2, 53472, Note_on_c, 0, 71, 60
2, 53474, Control_c, 0, 11, 93
2, 53477, Control_c, 0, 11, 94
2, 53480, Control_c, 0, 11, 95
2, 53482, Control_c, 0, 11, 96
2, 53485, Control_c, 0, 11, 97
2, 53486, Note_on_c, 0, 71, 0
2, 53488, Control_c, 0, 11, 98
2, 53488, Note_on_c, 0, 73, 55
2, 53491, Control_c, 0, 11, 99
2, 53493, Control_c, 0, 11, 100
2, 53496, Control_c, 0, 11, 101
2, 53499, Control_c, 0, 11, 102
2, 53502, Note_on_c, 0, 73, 0
2, 53502, Control_c, 0, 11, 103
2, 53504, Control_c, 0, 11, 104
2, 53504, Note_on_c, 0, 75, 55
2, 53507, Control_c, 0, 11, 105
2, 53510, Control_c, 0, 11, 106
2, 53513, Control_c, 0, 11, 107
2, 53515, Control_c, 0, 11, 108
2, 53518, Note_on_c, 0, 75, 0
2, 53518, Control_c, 0, 11, 109
2, 53520, Note_on_c, 0, 77, 55
2, 53521, Control_c, 0, 11, 110
2, 53524, Control_c, 0, 11, 111
2, 53526, Control_c, 0, 11, 112
2, 53529, Control_c, 0, 11, 113
2, 53532, Control_c, 0, 11, 114
2, 53534, Note_on_c, 0, 77, 0
2, 53535, Control_c, 0, 11, 115
2, 53536, Note_on_c, 0, 78, 57
2, 53537, Control_c, 0, 11, 116
2, 53540, Control_c, 0, 11, 117
2, 53543, Control_c, 0, 11, 118
2, 53546, Control_c, 0, 11, 119
2, 53548, Control_c, 0, 11, 120
2, 53550, Note_on_c, 0, 78, 0
2, 53551, Control_c, 0, 11, 121
2, 53552, Note_on_c, 0, 80, 63
2, 53554, Control_c, 0, 11, 122
2, 53557, Control_c, 0, 11, 123
2, 53559, Control_c, 0, 11, 124
2, 53562, Control_c, 0, 11, 125
2, 53565, Control_c, 0, 11, 126
2, 53566, Note_on_c, 0, 80, 0
2, 53568, Control_c, 0, 11, 127
2, 53568, Note_on_c, 0, 82, 61
2, 53570, Control_c, 0, 11, 126
2, 53573, Control_c, 0, 11, 125
2, 53576, Control_c, 0, 11, 124
2, 53578, Control_c, 0, 11, 123
2, 53581, Control_c, 0, 11, 122
2, 53584, Control_c, 0, 11, 121
2, 53587, Control_c, 0, 11, 120
2, 53589, Control_c, 0, 11, 119
2, 53590, Note_on_c, 0, 82, 0
2, 53592, Control_c, 0, 11, 118
2, 53592, Note_on_c, 0, 80, 57
2, 53595, Control_c, 0, 11, 117
2, 53598, Control_c, 0, 11, 116
2, 53600, Control_c, 0, 11, 115
2, 53603, Control_c, 0, 11, 114
2, 53606, Control_c, 0, 11, 113
2, 53609, Control_c, 0, 11, 112
2, 53611, Control_c, 0, 11, 111
2, 53614, Note_on_c, 0, 80, 0
2, 53614, Control_c, 0, 11, 110
2, 53616, Note_on_c, 0, 78, 61
2, 53617, Control_c, 0, 11, 109
2, 53620, Control_c, 0, 11, 108
2, 53622, Control_c, 0, 11, 107
2, 53625, Control_c, 0, 11, 106
2, 53628, Control_c, 0, 11, 105
2, 53631, Control_c, 0, 11, 104
2, 53633, Control_c, 0, 11, 103
2, 53636, Control_c, 0, 11, 102
2, 53639, Control_c, 0, 11, 101
2, 53642, Control_c, 0, 11, 100
2, 53644, Control_c, 0, 11, 99
2, 53647, Control_c, 0, 11, 98
2, 53650, Control_c, 0, 11, 97
2, 53653, Control_c, 0, 11, 96
2, 53655, Control_c, 0, 11, 95
2, 53658, Control_c, 0, 11, 94
2, 53661, Control_c, 0, 11, 93
2, 53662, Note_on_c, 0, 78, 0
2, 53664, Control_c, 0, 11, 92
2, 54528, Control_c, 0, 11, 92
2, 54528, Note_on_c, 0, 78, 89
2, 54528, Note_on_c, 0, 85, 92
2, 54536, Control_c, 0, 11, 93
2, 54544, Control_c, 0, 11, 94
2, 54552, Control_c, 0, 11, 95
2, 54558, Note_on_c, 0, 78, 0
2, 54558, Note_on_c, 0, 85, 0
2, 54560, Control_c, 0, 11, 96
2, 54560, Note_on_c, 0, 76, 94
2, 54560, Note_on_c, 0, 83, 90
2, 54569, Control_c, 0, 11, 97
2, 54577, Control_c, 0, 11, 98
2, 54585, Control_c, 0, 11, 99
2, 54590, Note_on_c, 0, 76, 0
2, 54590, Note_on_c, 0, 83, 0
2, 54592, Note_on_c, 0, 73, 94
2, 54592, Note_on_c, 0, 80, 93
2, 54593, Control_c, 0, 11, 100
2, 54602, Control_c, 0, 11, 101
2, 54610, Control_c, 0, 11, 102
2, 54618, Control_c, 0, 11, 103
2, 54622, Note_on_c, 0, 73, 0
2, 54622, Note_on_c, 0, 80, 0
2, 54624, Note_on_c, 0, 76, 91
2, 54624, Note_on_c, 0, 83, 89
2, 54626, Control_c, 0, 11, 104
2, 54634, Control_c, 0, 11, 105
2, 54643, Control_c, 0, 11, 106
2, 54651, Control_c, 0, 11, 107
2, 54659, Control_c, 0, 11, 108
2, 54667, Control_c, 0, 11, 109
2, 54676, Control_c, 0, 11, 110
2, 54684, Control_c, 0, 11, 111
2, 54692, Control_c, 0, 11, 112
2, 54700, Control_c, 0, 11, 113
2, 54709, Control_c, 0, 11, 114
2, 54717, Control_c, 0, 11, 115
2, 54718, Note_on_c, 0, 76, 0
2, 54718, Note_on_c, 0, 83, 0
2, 54720, Note_on_c, 0, 80, 93
2, 54720, Note_on_c, 0, 85, 97
2, 54725, Control_c, 0, 11, 116
2, 54733, Control_c, 0, 11, 117
2, 54741, Control_c, 0, 11, 118
2, 54750, Control_c, 0, 11, 119
2, 54758, Control_c, 0, 11, 120
2, 54766, Control_c, 0, 11, 121
2, 54774, Control_c, 0, 11, 122
2, 54783, Control_c, 0, 11, 123
2, 54791, Control_c, 0, 11, 124
2, 54799, Control_c, 0, 11, 125
2, 54807, Control_c, 0, 11, 126
2, 54814, Note_on_c, 0, 80, 0
2, 54814, Note_on_c, 0, 85, 0
2, 54816, Control_c, 0, 11, 127
2, 55104, Note_on_c, 0, 71, 75
2, 55104, Note_on_c, 0, 78, 73
2, 55134, Note_on_c, 0, 71, 0
2, 55134, Note_on_c, 0, 78, 0
2, 55136, Note_on_c, 0, 73, 72
2, 55136, Note_on_c, 0, 80, 79
2, 55166, Note_on_c, 0, 73, 0
2, 55166, Note_on_c, 0, 80, 0
2, 55168, Note_on_c, 0, 76, 73
2, 55168, Note_on_c, 0, 83, 80
2, 55198, Note_on_c, 0, 76, 0
2, 55198, Note_on_c, 0, 83, 0
2, 55200, Note_on_c, 0, 78, 76
2, 55200, Note_on_c, 0, 85, 78
2, 55230, Note_on_c, 0, 78, 0
2, 55230, Note_on_c, 0, 85, 0
2, 55232, Note_on_c, 0, 76, 85
2, 55232, Note_on_c, 0, 83, 79
2, 55262, Note_on_c, 0, 76, 0
2, 55262, Note_on_c, 0, 83, 0
2, 55264, Note_on_c, 0, 73, 87
2, 55264, Note_on_c, 0, 80, 78
2, 55294, Note_on_c, 0, 73, 0
2, 55294, Note_on_c, 0, 80, 0
2, 55296, Note_on_c, 0, 71, 90
2, 55296, Note_on_c, 0, 78, 91
2, 55326, Note_on_c, 0, 71, 0
2, 55326, Note_on_c, 0, 78, 0
2, 55328, Note_on_c, 0, 73, 84
2, 55328, Note_on_c, 0, 80, 89
2, 55358, Note_on_c, 0, 73, 0
2, 55358, Note_on_c, 0, 80, 0
2, 55360, Note_on_c, 0, 76, 96
2, 55360, Note_on_c, 0, 83, 95
2, 55390, Note_on_c, 0, 76, 0
2, 55390, Note_on_c, 0, 83, 0
2, 55680, Note_on_c, 0, 71, 80
2, 55680, Note_on_c, 0, 78, 73
2, 55710, Note_on_c, 0, 71, 0
2, 55710, Note_on_c, 0, 78, 0
2, 55712, Note_on_c, 0, 73, 77
2, 55712, Note_on_c, 0, 80, 70
2, 55742, Note_on_c, 0, 73, 0
2, 55742, Note_on_c, 0, 80, 0
2, 55744, Note_on_c, 0, 76, 76
2, 55744, Note_on_c, 0, 83, 77
2, 55774, Note_on_c, 0, 76, 0
2, 55774, Note_on_c, 0, 83, 0
2, 55776, Note_on_c, 0, 78, 76
2, 55776, Note_on_c, 0, 85, 77
2, 55806, Note_on_c, 0, 78, 0
2, 55806, Note_on_c, 0, 85, 0
2, 55808, Note_on_c, 0, 76, 80
2, 55808, Note_on_c, 0, 83, 76
2, 55838, Note_on_c, 0, 76, 0
2, 55838, Note_on_c, 0, 83, 0
2, 55840, Note_on_c, 0, 73, 88
2, 55840, Note_on_c, 0, 80, 78
2, 55870, Note_on_c, 0, 73, 0
2, 55870, Note_on_c, 0, 80, 0
2, 55872, Note_on_c, 0, 71, 91
2, 55872, Note_on_c, 0, 78, 91
2, 55902, Note_on_c, 0, 71, 0
2, 55902, Note_on_c, 0, 78, 0
2, 55904, Note_on_c, 0, 73, 94
2, 55904, Note_on_c, 0, 80, 93
2, 55934, Note_on_c, 0, 73, 0
2, 55934, Note_on_c, 0, 80, 0
2, 55936, Note_on_c, 0, 76, 93
2, 55936, Note_on_c, 0, 83, 89
2, 55966, Note_on_c, 0, 76, 0
2, 55966, Note_on_c, 0, 83, 0
2, 56256, Note_on_c, 0, 71, 77
2, 56256, Note_on_c, 0, 78, 70
2, 56286, Note_on_c, 0, 71, 0
2, 56286, Note_on_c, 0, 78, 0
2, 56288, Note_on_c, 0, 73, 75
2, 56288, Note_on_c, 0, 80, 73
2, 56318, Note_on_c, 0, 73, 0
2, 56318, Note_on_c, 0, 80, 0
2, 56320, Note_on_c, 0, 76, 73
2, 56320, Note_on_c, 0, 83, 77
2, 56350, Note_on_c, 0, 76, 0
2, 56350, Note_on_c, 0, 83, 0
2, 56352, Note_on_c, 0, 78, 79
2, 56352, Note_on_c, 0, 85, 80
2, 56382, Note_on_c, 0, 78, 0
2, 56382, Note_on_c, 0, 85, 0
2, 56384, Note_on_c, 0, 76, 85
2, 56384, Note_on_c, 0, 83, 82
2, 56414, Note_on_c, 0, 76, 0
2, 56414, Note_on_c, 0, 83, 0
2, 56416, Note_on_c, 0, 73, 83
2, 56416, Note_on_c, 0, 80, 78
2, 56446, Note_on_c, 0, 73, 0
2, 56446, Note_on_c, 0, 80, 0
2, 56448, Note_on_c, 0, 71, 86
2, 56448, Note_on_c, 0, 78, 88
2, 56478, Note_on_c, 0, 71, 0
2, 56478, Note_on_c, 0, 78, 0
2, 56480, Note_on_c, 0, 73, 85
2, 56480, Note_on_c, 0, 80, 84
2, 56510, Note_on_c, 0, 73, 0
2, 56510, Note_on_c, 0, 80, 0
2, 56512, Note_on_c, 0, 76, 87
2, 56512, Note_on_c, 0, 83, 90
2, 56542, Note_on_c, 0, 76, 0
2, 56542, Note_on_c, 0, 83, 0
2, 56544, Control_c, 0, 11, 92
2, 56544, Note_on_c, 0, 78, 89
2, 56544, Note_on_c, 0, 85, 95
2, 56545, Control_c, 0, 11, 93
2, 56546, Control_c, 0, 11, 94
2, 56548, Control_c, 0, 11, 95
2, 56549, Control_c, 0, 11, 96
2, 56550, Control_c, 0, 11, 97
2, 56552, Control_c, 0, 11, 98
2, 56553, Control_c, 0, 11, 99
2, 56554, Control_c, 0, 11, 100
2, 56556, Control_c, 0, 11, 101
2, 56557, Control_c, 0, 11, 102
2, 56559, Control_c, 0, 11, 103
2, 56560, Control_c, 0, 11, 104
2, 56561, Control_c, 0, 11, 105
2, 56563, Control_c, 0, 11, 106
2, 56564, Control_c, 0, 11, 107
2, 56565, Control_c, 0, 11, 108
2, 56566, Note_on_c, 0, 78, 0
2, 56566, Note_on_c, 0, 85, 0
2, 56567, Control_c, 0, 11, 109
2, 56568, Control_c, 0, 11, 110
2, 56568, Note_on_c, 0, 78, 90
2, 56568, Note_on_c, 0, 85, 89
2, 56570, Control_c, 0, 11, 111
2, 56571, Control_c, 0, 11, 112
2, 56572, Control_c, 0, 11, 113
2, 56574, Control_c, 0, 11, 114
2, 56575, Control_c, 0, 11, 115
2, 56576, Control_c, 0, 11, 116
2, 56578, Control_c, 0, 11, 117
2, 56579, Control_c, 0, 11, 118
2, 56581, Control_c, 0, 11, 119
2, 56582, Control_c, 0, 11, 120
2, 56583, Control_c, 0, 11, 121
2, 56585, Control_c, 0, 11, 122
2, 56586, Control_c, 0, 11, 123
2, 56587, Control_c, 0, 11, 124
2, 56589, Control_c, 0, 11, 125
2, 56590, Control_c, 0, 11, 126
2, 56592, Control_c, 0, 11, 127
2, 56593, Control_c, 0, 11, 126
2, 56594, Control_c, 0, 11, 125
2, 56596, Control_c, 0, 11, 124
2, 56597, Control_c, 0, 11, 123
2, 56598, Control_c, 0, 11, 122
2, 56600, Control_c, 0, 11, 121
2, 56601, Control_c, 0, 11, 120
2, 56602, Control_c, 0, 11, 119
2, 56604, Control_c, 0, 11, 118
2, 56605, Control_c, 0, 11, 117
2, 56607, Control_c, 0, 11, 116
2, 56608, Control_c, 0, 11, 115
2, 56609, Control_c, 0, 11, 114
2, 56611, Control_c, 0, 11, 113
2, 56612, Control_c, 0, 11, 112
2, 56613, Control_c, 0, 11, 111
2, 56615, Control_c, 0, 11, 110
2, 56616, Control_c, 0, 11, 109
2, 56618, Control_c, 0, 11, 108
2, 56619, Control_c, 0, 11, 107
2, 56620, Control_c, 0, 11, 106
2, 56622, Control_c, 0, 11, 105
2, 56623, Control_c, 0, 11, 104
2, 56624, Control_c, 0, 11, 103
2, 56626, Control_c, 0, 11, 102
2, 56627, Control_c, 0, 11, 101
2, 56629, Control_c, 0, 11, 100
2, 56630, Control_c, 0, 11, 99
2, 56631, Control_c, 0, 11, 98
2, 56633, Control_c, 0, 11, 97
2, 56634, Control_c, 0, 11, 96
2, 56635, Control_c, 0, 11, 95
2, 56637, Control_c, 0, 11, 94
2, 56638, Control_c, 0, 11, 93
2, 56640, Control_c, 0, 11, 92
2, 56734, Note_on_c, 0, 78, 0
2, 56734, Note_on_c, 0, 85, 0
2, 56736, Control_c, 0, 11, 92
2, 56736, Note_on_c, 0, 76, 97
2, 56736, Note_on_c, 0, 83, 88
2, 56737, Control_c, 0, 11, 93
2, 56738, Control_c, 0, 11, 94
2, 56740, Control_c, 0, 11, 95
2, 56741, Control_c, 0, 11, 96
2, 56742, Control_c, 0, 11, 97
2, 56744, Control_c, 0, 11, 98
2, 56745, Control_c, 0, 11, 99
2, 56746, Control_c, 0, 11, 100
2, 56748, Control_c, 0, 11, 101
2, 56749, Control_c, 0, 11, 102
2, 56751, Control_c, 0, 11, 103
2, 56752, Control_c, 0, 11, 104
2, 56753, Control_c, 0, 11, 105
2, 56755, Control_c, 0, 11, 106
2, 56756, Control_c, 0, 11, 107
2, 56757, Control_c, 0, 11, 108
2, 56758, Note_on_c, 0, 76, 0
2, 56758, Note_on_c, 0, 83, 0
2, 56759, Control_c, 0, 11, 109
2, 56760, Control_c, 0, 11, 110
2, 56760, Note_on_c, 0, 76, 89
2, 56760, Note_on_c, 0, 83, 96
2, 56762, Control_c, 0, 11, 111
2, 56763, Control_c, 0, 11, 112
2, 56764, Control_c, 0, 11, 113
2, 56766, Control_c, 0, 11, 114
2, 56767, Control_c, 0, 11, 115
2, 56768, Control_c, 0, 11, 116
2, 56770, Control_c, 0, 11, 117
2, 56771, Control_c, 0, 11, 118
2, 56773, Control_c, 0, 11, 119
2, 56774, Control_c, 0, 11, 120
2, 56775, Control_c, 0, 11, 121
2, 56777, Control_c, 0, 11, 122
2, 56778, Control_c, 0, 11, 123
2, 56779, Control_c, 0, 11, 124
2, 56781, Control_c, 0, 11, 125
2, 56782, Control_c, 0, 11, 126
2, 56784, Control_c, 0, 11, 127
2, 56785, Control_c, 0, 11, 126
2, 56786, Control_c, 0, 11, 125
2, 56788, Control_c, 0, 11, 124
2, 56789, Control_c, 0, 11, 123
2, 56790, Control_c, 0, 11, 122
2, 56792, Control_c, 0, 11, 121
2, 56793, Control_c, 0, 11, 120
2, 56794, Control_c, 0, 11, 119
2, 56796, Control_c, 0, 11, 118
2, 56797, Control_c, 0, 11, 117
2, 56799, Control_c, 0, 11, 116
2, 56800, Control_c, 0, 11, 115
2, 56801, Control_c, 0, 11, 114
2, 56803, Control_c, 0, 11, 113
2, 56804, Control_c, 0, 11, 112
2, 56805, Control_c, 0, 11, 111
2, 56807, Control_c, 0, 11, 110
2, 56808, Control_c, 0, 11, 109
2, 56810, Control_c, 0, 11, 108
2, 56811, Control_c, 0, 11, 107
2, 56812, Control_c, 0, 11, 106
2, 56814, Control_c, 0, 11, 105
2, 56815, Control_c, 0, 11, 104
2, 56816, Control_c, 0, 11, 103
2, 56818, Control_c, 0, 11, 102
2, 56819, Control_c, 0, 11, 101
2, 56821, Control_c, 0, 11, 100
2, 56822, Control_c, 0, 11, 99
2, 56823, Control_c, 0, 11, 98
2, 56825, Control_c, 0, 11, 97
2, 56826, Control_c, 0, 11, 96
2, 56827, Control_c, 0, 11, 95
2, 56829, Control_c, 0, 11, 94
2, 56830, Control_c, 0, 11, 93
2, 56832, Control_c, 0, 11, 92
2, 56926, Note_on_c, 0, 76, 0
2, 56926, Note_on_c, 0, 83, 0
2, 56928, Control_c, 0, 11, 92
2, 56928, Note_on_c, 0, 73, 95
2, 56928, Note_on_c, 0, 80, 97
2, 56929, Control_c, 0, 11, 93
2, 56930, Control_c, 0, 11, 94
2, 56932, Control_c, 0, 11, 95
2, 56933, Control_c, 0, 11, 96
2, 56934, Control_c, 0, 11, 97
2, 56936, Control_c, 0, 11, 98
2, 56937, Control_c, 0, 11, 99
2, 56938, Control_c, 0, 11, 100
2, 56940, Control_c, 0, 11, 101
2, 56941, Control_c, 0, 11, 102
2, 56943, Control_c, 0, 11, 103
2, 56944, Control_c, 0, 11, 104
2, 56945, Control_c, 0, 11, 105
2, 56947, Control_c, 0, 11, 106
2, 56948, Control_c, 0, 11, 107
2, 56949, Control_c, 0, 11, 108
2, 56950, Note_on_c, 0, 73, 0
2, 56950, Note_on_c, 0, 80, 0
2, 56951, Control_c, 0, 11, 109
2, 56952, Control_c, 0, 11, 110
2, 56952, Note_on_c, 0, 73, 89
2, 56952, Note_on_c, 0, 80, 92
2, 56954, Control_c, 0, 11, 111
2, 56955, Control_c, 0, 11, 112
2, 56956, Control_c, 0, 11, 113
2, 56958, Control_c, 0, 11, 114
2, 56959, Control_c, 0, 11, 115
2, 56960, Control_c, 0, 11, 116
2, 56962, Control_c, 0, 11, 117
2, 56963, Control_c, 0, 11, 118
2, 56965, Control_c, 0, 11, 119
2, 56966, Control_c, 0, 11, 120
2, 56967, Control_c, 0, 11, 121
2, 56969, Control_c, 0, 11, 122
2, 56970, Control_c, 0, 11, 123
2, 56971, Control_c, 0, 11, 124
2, 56973, Control_c, 0, 11, 125
2, 56974, Control_c, 0, 11, 126
2, 56976, Control_c, 0, 11, 127
2, 56977, Control_c, 0, 11, 126
2, 56978, Control_c, 0, 11, 125
2, 56980, Control_c, 0, 11, 124
2, 56981, Control_c, 0, 11, 123
2, 56982, Control_c, 0, 11, 122
2, 56984, Control_c, 0, 11, 121
2, 56985, Control_c, 0, 11, 120
2, 56986, Control_c, 0, 11, 119
2, 56988, Control_c, 0, 11, 118
2, 56989, Control_c, 0, 11, 117
2, 56991, Control_c, 0, 11, 116
2, 56992, Control_c, 0, 11, 115
2, 56993, Control_c, 0, 11, 114
2, 56995, Control_c, 0, 11, 113
2, 56996, Control_c, 0, 11, 112
2, 56997, Control_c, 0, 11, 111
2, 56999, Control_c, 0, 11, 110
2, 57000, Control_c, 0, 11, 109
2, 57002, Control_c, 0, 11, 108
2, 57003, Control_c, 0, 11, 107
2, 57004, Control_c, 0, 11, 106
2, 57006, Control_c, 0, 11, 105
2, 57007, Control_c, 0, 11, 104
2, 57008, Control_c, 0, 11, 103
2, 57010, Control_c, 0, 11, 102
2, 57011, Control_c, 0, 11, 101
2, 57013, Control_c, 0, 11, 100
2, 57014, Control_c, 0, 11, 99
2, 57015, Control_c, 0, 11, 98
2, 57017, Control_c, 0, 11, 97
2, 57018, Control_c, 0, 11, 96
2, 57019, Control_c, 0, 11, 95
2, 57021, Control_c, 0, 11, 94
2, 57022, Control_c, 0, 11, 93
2, 57024, Control_c, 0, 11, 92
2, 57118, Note_on_c, 0, 73, 0
2, 57118, Note_on_c, 0, 80, 0
2, 66528, Control_c, 0, 11, 127
2, 67296, Note_on_c, 0, 77, 44
2, 67358, Note_on_c, 0, 77, 0
2, 67360, Note_on_c, 0, 74, 47
2, 67454, Note_on_c, 0, 74, 0
2, 67456, Note_on_c, 0, 77, 46
2, 67486, Note_on_c, 0, 77, 0
2, 67488, Note_on_c, 0, 74, 50
2, 67550, Note_on_c, 0, 74, 0
2, 67552, Note_on_c, 0, 77, 41
2, 67646, Note_on_c, 0, 77, 0
2, 67648, Note_on_c, 0, 74, 46
2, 67678, Note_on_c, 0, 74, 0
2, 67680, Note_on_c, 0, 77, 47
2, 67742, Note_on_c, 0, 77, 0
2, 67744, Note_on_c, 0, 74, 47
2, 67806, Note_on_c, 0, 74, 0
2, 67808, Note_on_c, 0, 77, 46
2, 67870, Note_on_c, 0, 77, 0
2, 67872, Note_on_c, 0, 74, 41
2, 67934, Note_on_c, 0, 74, 0
2, 67936, Note_on_c, 0, 77, 49
2, 68030, Note_on_c, 0, 77, 0
2, 68032, Note_on_c, 0, 74, 48
2, 68062, Note_on_c, 0, 74, 0
2, 68064, Note_on_c, 0, 77, 42
2, 68126, Note_on_c, 0, 77, 0
2, 68128, Note_on_c, 0, 74, 49
2, 68222, Note_on_c, 0, 74, 0
2, 68224, Note_on_c, 0, 77, 47
2, 68254, Note_on_c, 0, 77, 0
2, 68256, Note_on_c, 0, 74, 47
2, 68318, Note_on_c, 0, 74, 0
2, 68320, Note_on_c, 0, 77, 43
2, 68414, Note_on_c, 0, 77, 0
2, 68416, Note_on_c, 0, 74, 40
2, 68446, Note_on_c, 0, 74, 0
2, 68448, Note_on_c, 0, 77, 41
2, 68510, Note_on_c, 0, 77, 0
2, 68512, Note_on_c, 0, 74, 41
2, 68574, Note_on_c, 0, 74, 0
2, 68576, Note_on_c, 0, 77, 46
2, 68638, Note_on_c, 0, 77, 0
2, 68640, Note_on_c, 0, 74, 40
2, 68702, Note_on_c, 0, 74, 0
2, 68704, Note_on_c, 0, 77, 50
2, 68798, Note_on_c, 0, 77, 0
2, 68800, Note_on_c, 0, 74, 40
2, 68830, Note_on_c, 0, 74, 0
2, 68832, Note_on_c, 0, 74, 45
2, 68832, Note_on_c, 0, 86, 42
2, 68894, Note_on_c, 0, 74, 0
2, 68894, Note_on_c, 0, 86, 0
2, 68896, Note_on_c, 0, 71, 46
2, 68896, Note_on_c, 0, 83, 46
2, 68990, Note_on_c, 0, 71, 0
2, 68990, Note_on_c, 0, 83, 0
2, 68992, Note_on_c, 0, 74, 48
2, 68992, Note_on_c, 0, 86, 48
2, 69022, Note_on_c, 0, 74, 0
2, 69022, Note_on_c, 0, 86, 0
2, 69024, Note_on_c, 0, 71, 49
2, 69024, Note_on_c, 0, 83, 44
2, 69086, Note_on_c, 0, 71, 0
2, 69086, Note_on_c, 0, 83, 0
2, 69088, Note_on_c, 0, 74, 41
2, 69088, Note_on_c, 0, 86, 40
2, 69182, Note_on_c, 0, 74, 0
2, 69182, Note_on_c, 0, 86, 0
2, 69184, Note_on_c, 0, 71, 42
2, 69184, Note_on_c, 0, 83, 40
2, 69214, Note_on_c, 0, 71, 0
2, 69214, Note_on_c, 0, 83, 0
2, 69216, Note_on_c, 0, 74, 43
2, 69216, Note_on_c, 0, 86, 43
2, 69278, Note_on_c, 0, 74, 0
2, 69278, Note_on_c, 0, 86, 0
2, 69280, Note_on_c, 0, 71, 46
2, 69280, Note_on_c, 0, 83, 45
2, 69374, Note_on_c, 0, 71, 0
2, 69374, Note_on_c, 0, 83, 0
2, 69376, Note_on_c, 0, 74, 44
2, 69376, Note_on_c, 0, 86, 48
2, 69406, Note_on_c, 0, 74, 0
2, 69406, Note_on_c, 0, 86, 0
2, 69408, Note_on_c, 0, 71, 42
2, 69408, Note_on_c, 0, 83, 44
2, 69470, Note_on_c, 0, 71, 0
2, 69470, Note_on_c, 0, 83, 0
2, 69472, Note_on_c, 0, 74, 47
2, 69472, Note_on_c, 0, 86, 41
2, 69566, Note_on_c, 0, 74, 0
2, 69566, Note_on_c, 0, 86, 0
2, 69568, Note_on_c, 0, 71, 47
2, 69568, Note_on_c, 0, 83, 44
2, 69598, Note_on_c, 0, 71, 0
2, 69598, Note_on_c, 0, 83, 0
2, 70368, Control_c, 0, 7, 92
2, 71136, Control_c, 0, 11, 75
2, 71136, Note_on_c, 0, 84, 89
2, 71136, Note_on_c, 0, 88, 94
2, 71150, Control_c, 0, 11, 76
2, 71165, Control_c, 0, 11, 77
2, 71166, Note_on_c, 0, 84, 0
2, 71166, Note_on_c, 0, 88, 0
2, 71168, Note_on_c, 0, 79, 96
2, 71168, Note_on_c, 0, 84, 96
2, 71180, Control_c, 0, 11, 78
2, 71189, Note_on_c, 0, 79, 0
2, 71189, Note_on_c, 0, 84, 0
2, 71195, Control_c, 0, 11, 79
2, 71200, Note_on_c, 0, 79, 96
2, 71200, Note_on_c, 0, 84, 88
2, 71209, Control_c, 0, 11, 80
2, 71224, Control_c, 0, 11, 81
2, 71230, Note_on_c, 0, 79, 0
2, 71230, Note_on_c, 0, 84, 0
2, 71232, Note_on_c, 0, 84, 97
2, 71232, Note_on_c, 0, 88, 92
2, 71239, Control_c, 0, 11, 82
2, 71253, Note_on_c, 0, 84, 0
2, 71253, Note_on_c, 0, 88, 0
2, 71254, Control_c, 0, 11, 83
2, 71264, Note_on_c, 0, 84, 89
2, 71264, Note_on_c, 0, 88, 89
2, 71268, Control_c, 0, 11, 84
2, 71283, Control_c, 0, 11, 85
2, 71294, Note_on_c, 0, 84, 0
2, 71294, Note_on_c, 0, 88, 0
2, 71296, Note_on_c, 0, 79, 89
2, 71296, Note_on_c, 0, 84, 93
2, 71298, Control_c, 0, 11, 86
2, 71313, Control_c, 0, 11, 87
2, 71326, Note_on_c, 0, 79, 0
2, 71326, Note_on_c, 0, 84, 0
2, 71328, Control_c, 0, 11, 88
2, 71328, Note_on_c, 0, 79, 87
2, 71328, Note_on_c, 0, 84, 95
2, 71342, Control_c, 0, 11, 89
2, 71357, Control_c, 0, 11, 90
2, 71358, Note_on_c, 0, 79, 0
2, 71358, Note_on_c, 0, 84, 0
2, 71360, Note_on_c, 0, 84, 95
2, 71360, Note_on_c, 0, 88, 97
2, 71372, Control_c, 0, 11, 91
2, 71381, Note_on_c, 0, 84, 0
2, 71381, Note_on_c, 0, 88, 0
2, 71387, Control_c, 0, 11, 92
2, 71392, Note_on_c, 0, 84, 87
2, 71392, Note_on_c, 0, 88, 90
2, 71401, Control_c, 0, 11, 93
2, 71416, Control_c, 0, 11, 94
2, 71422, Note_on_c, 0, 84, 0
2, 71422, Note_on_c, 0, 88, 0
2, 71424, Note_on_c, 0, 79, 94
2, 71424, Note_on_c, 0, 84, 94
2, 71431, Control_c, 0, 11, 95
2, 71445, Note_on_c, 0, 79, 0
2, 71445, Note_on_c, 0, 84, 0
2, 71446, Control_c, 0, 11, 96
2, 71456, Note_on_c, 0, 79, 93
2, 71456, Note_on_c, 0, 84, 90
2, 71460, Control_c, 0, 11, 97
2, 71475, Control_c, 0, 11, 98
2, 71486, Note_on_c, 0, 79, 0
2, 71486, Note_on_c, 0, 84, 0
2, 71488, Note_on_c, 0, 84, 97
2, 71488, Note_on_c, 0, 88, 90
2, 71490, Control_c, 0, 11, 99
2, 71505, Control_c, 0, 11, 100
2, 71509, Note_on_c, 0, 84, 0
2, 71509, Note_on_c, 0, 88, 0
2, 71520, Control_c, 0, 11, 101
2, 71520, Note_on_c, 0, 84, 88
2, 71520, Note_on_c, 0, 88, 94
2, 71534, Control_c, 0, 11, 102
2, 71549, Control_c, 0, 11, 103
2, 71550, Note_on_c, 0, 84, 0
2, 71550, Note_on_c, 0, 88, 0
2, 71552, Note_on_c, 0, 79, 96
2, 71552, Note_on_c, 0, 84, 93
2, 71564, Control_c, 0, 11, 104
2, 71573, Note_on_c, 0, 79, 0
2, 71573, Note_on_c, 0, 84, 0
2, 71579, Control_c, 0, 11, 105
2, 71584, Note_on_c, 0, 79, 94
2, 71584, Note_on_c, 0, 84, 90
2, 71593, Control_c, 0, 11, 106
2, 71608, Control_c, 0, 11, 107
2, 71614, Note_on_c, 0, 79, 0
2, 71614, Note_on_c, 0, 84, 0
2, 71616, Note_on_c, 0, 84, 95
2, 71616, Note_on_c, 0, 88, 88
2, 71623, Control_c, 0, 11, 108
2, 71637, Note_on_c, 0, 84, 0
2, 71637, Note_on_c, 0, 88, 0
2, 71638, Control_c, 0, 11, 109
2, 71648, Note_on_c, 0, 84, 94
2, 71648, Note_on_c, 0, 88, 90
2, 71652, Control_c, 0, 11, 110
2, 71667, Control_c, 0, 11, 111
2, 71678, Note_on_c, 0, 84, 0
2, 71678, Note_on_c, 0, 88, 0
2, 71680, Note_on_c, 0, 79, 93
2, 71680, Note_on_c, 0, 84, 97
2, 71682, Control_c, 0, 11, 112
2, 71697, Control_c, 0, 11, 113
2, 71701, Note_on_c, 0, 79, 0
2, 71701, Note_on_c, 0, 84, 0
2, 71712, Control_c, 0, 11, 114
2, 71712, Note_on_c, 0, 79, 95
2, 71712, Note_on_c, 0, 84, 87
2, 71726, Control_c, 0, 11, 115
2, 71741, Control_c, 0, 11, 116
2, 71742, Note_on_c, 0, 79, 0
2, 71742, Note_on_c, 0, 84, 0
2, 71744, Note_on_c, 0, 84, 96
2, 71744, Note_on_c, 0, 88, 90
2, 71756, Control_c, 0, 11, 117
2, 71765, Note_on_c, 0, 84, 0
2, 71765, Note_on_c, 0, 88, 0
2, 71771, Control_c, 0, 11, 118
2, 71776, Note_on_c, 0, 84, 88
2, 71776, Note_on_c, 0, 88, 94
2, 71785, Control_c, 0, 11, 119
2, 71800, Control_c, 0, 11, 120
2, 71806, Note_on_c, 0, 84, 0
2, 71806, Note_on_c, 0, 88, 0
2, 71808, Note_on_c, 0, 79, 95
2, 71808, Note_on_c, 0, 84, 89
2, 71815, Control_c, 0, 11, 121
2, 71829, Note_on_c, 0, 79, 0
2, 71829, Note_on_c, 0, 84, 0
2, 71830, Control_c, 0, 11, 122
2, 71840, Note_on_c, 0, 79, 90
2, 71840, Note_on_c, 0, 84, 96
2, 71844, Control_c, 0, 11, 123
2, 71859, Control_c, 0, 11, 124
2, 71870, Note_on_c, 0, 79, 0
2, 71870, Note_on_c, 0, 84, 0
2, 71872, Note_on_c, 0, 84, 95
2, 71872, Note_on_c, 0, 88, 88
2, 71874, Control_c, 0, 11, 125
2, 71889, Control_c, 0, 11, 126
2, 71893, Note_on_c, 0, 84, 0
2, 71893, Note_on_c, 0, 88, 0
2, 71904, Control_c, 0, 11, 127
2, 74016, Control_c, 0, 11, 75
2, 74016, Note_on_c, 0, 81, 90
2, 74021, Control_c, 0, 11, 76
2, 74027, Control_c, 0, 11, 77
2, 74032, Control_c, 0, 11, 78
2, 74038, Control_c, 0, 11, 79
2, 74043, Control_c, 0, 11, 80
2, 74049, Control_c, 0, 11, 81
2, 74054, Control_c, 0, 11, 82
2, 74060, Control_c, 0, 11, 83
2, 74065, Control_c, 0, 11, 84
2, 74071, Control_c, 0, 11, 85
2, 74076, Control_c, 0, 11, 86
2, 74082, Control_c, 0, 11, 87
2, 74088, Control_c, 0, 11, 88
2, 74093, Control_c, 0, 11, 89
2, 74099, Control_c, 0, 11, 90
2, 74104, Control_c, 0, 11, 91
2, 74110, Note_on_c, 0, 81, 0
2, 74110, Control_c, 0, 11, 92
2, 74112, Note_on_c, 0, 79, 90
2, 74115, Control_c, 0, 11, 93
2, 74121, Control_c, 0, 11, 94
2, 74126, Control_c, 0, 11, 95
2, 74132, Control_c, 0, 11, 96
2, 74137, Control_c, 0, 11, 97
2, 74143, Control_c, 0, 11, 98
2, 74148, Control_c, 0, 11, 99
2, 74154, Control_c, 0, 11, 100
2, 74160, Control_c, 0, 11, 101
2, 74165, Control_c, 0, 11, 102
2, 74171, Control_c, 0, 11, 103
2, 74176, Control_c, 0, 11, 104
2, 74182, Control_c, 0, 11, 105
2, 74187, Control_c, 0, 11, 106
2, 74193, Control_c, 0, 11, 107
2, 74198, Control_c, 0, 11, 108
2, 74204, Control_c, 0, 11, 109
2, 74206, Note_on_c, 0, 79, 0
2, 74208, Note_on_c, 0, 81, 95
2, 74209, Control_c, 0, 11, 110
2, 74215, Control_c, 0, 11, 111
2, 74220, Control_c, 0, 11, 112
2, 74226, Control_c, 0, 11, 113
2, 74232, Control_c, 0, 11, 114
2, 74237, Control_c, 0, 11, 115
2, 74243, Control_c, 0, 11, 116
2, 74248, Control_c, 0, 11, 117
2, 74254, Control_c, 0, 11, 118
2, 74259, Control_c, 0, 11, 119
2, 74265, Control_c, 0, 11, 120
2, 74270, Control_c, 0, 11, 121
2, 74276, Control_c, 0, 11, 122
2, 74281, Control_c, 0, 11, 123
2, 74287, Control_c, 0, 11, 124
2, 74292, Control_c, 0, 11, 125
2, 74298, Control_c, 0, 11, 126
2, 74302, Note_on_c, 0, 81, 0
2, 74304, Control_c, 0, 11, 127
2, 74304, Note_on_c, 0, 79, 87
2, 74336, Note_on_c, 0, 79, 0
2, 74592, Control_c, 0, 11, 75
2, 74592, Note_on_c, 0, 81, 89
2, 74597, Control_c, 0, 11, 76
2, 74603, Control_c, 0, 11, 77
2, 74608, Control_c, 0, 11, 78
2, 74614, Control_c, 0, 11, 79
2, 74619, Control_c, 0, 11, 80
2, 74625, Control_c, 0, 11, 81
2, 74630, Control_c, 0, 11, 82
2, 74636, Control_c, 0, 11, 83
2, 74641, Control_c, 0, 11, 84
2, 74647, Control_c, 0, 11, 85
2, 74652, Control_c, 0, 11, 86
2, 74658, Control_c, 0, 11, 87
2, 74664, Control_c, 0, 11, 88
2, 74669, Control_c, 0, 11, 89
2, 74675, Control_c, 0, 11, 90
2, 74680, Control_c, 0, 11, 91
2, 74686, Note_on_c, 0, 81, 0
2, 74686, Control_c, 0, 11, 92
2, 74688, Note_on_c, 0, 79, 88
2, 74691, Control_c, 0, 11, 93
2, 74697, Control_c, 0, 11, 94
2, 74702, Control_c, 0, 11, 95
2, 74708, Control_c, 0, 11, 96
2, 74713, Control_c, 0, 11, 97
2, 74719, Control_c, 0, 11, 98
2, 74724, Control_c, 0, 11, 99
2, 74730, Control_c, 0, 11, 100
2, 74736, Control_c, 0, 11, 101
2, 74741, Control_c, 0, 11, 102
2, 74747, Control_c, 0, 11, 103
2, 74752, Control_c, 0, 11, 104
2, 74758, Control_c, 0, 11, 105
2, 74763, Control_c, 0, 11, 106
2, 74769, Control_c, 0, 11, 107
2, 74774, Control_c, 0, 11, 108
2, 74780, Control_c, 0, 11, 109
2, 74782, Note_on_c, 0, 79, 0
2, 74784, Note_on_c, 0, 81, 90
2, 74785, Control_c, 0, 11, 110
2, 74791, Control_c, 0, 11, 111
2, 74796, Control_c, 0, 11, 112
2, 74802, Control_c, 0, 11, 113
2, 74808, Control_c, 0, 11, 114
2, 74813, Control_c, 0, 11, 115
2, 74819, Control_c, 0, 11, 116
2, 74824, Control_c, 0, 11, 117
2, 74830, Control_c, 0, 11, 118
2, 74835, Control_c, 0, 11, 119
2, 74841, Control_c, 0, 11, 120
2, 74846, Control_c, 0, 11, 121
2, 74852, Control_c, 0, 11, 122
2, 74857, Control_c, 0, 11, 123
2, 74863, Control_c, 0, 11, 124
2, 74868, Control_c, 0, 11, 125
2, 74874, Control_c, 0, 11, 126
2, 74878, Note_on_c, 0, 81, 0
2, 74880, Control_c, 0, 11, 127
2, 74880, Note_on_c, 0, 79, 93
2, 74912, Note_on_c, 0, 79, 0
2, 75168, Control_c, 0, 11, 75
2, 75168, Note_on_c, 0, 84, 95
2, 75173, Control_c, 0, 11, 76
2, 75179, Control_c, 0, 11, 77
2, 75184, Control_c, 0, 11, 78
2, 75190, Control_c, 0, 11, 79
2, 75195, Control_c, 0, 11, 80
2, 75201, Control_c, 0, 11, 81
2, 75206, Control_c, 0, 11, 82
2, 75212, Control_c, 0, 11, 83
2, 75217, Control_c, 0, 11, 84
2, 75223, Control_c, 0, 11, 85
2, 75228, Control_c, 0, 11, 86
2, 75234, Control_c, 0, 11, 87
2, 75240, Control_c, 0, 11, 88
2, 75245, Control_c, 0, 11, 89
2, 75251, Control_c, 0, 11, 90
2, 75256, Control_c, 0, 11, 91
2, 75262, Note_on_c, 0, 84, 0
2, 75262, Control_c, 0, 11, 92
2, 75264, Note_on_c, 0, 82, 89
2, 75267, Control_c, 0, 11, 93
2, 75273, Control_c, 0, 11, 94
2, 75278, Control_c, 0, 11, 95
2, 75284, Control_c, 0, 11, 96
2, 75289, Control_c, 0, 11, 97
2, 75295, Control_c, 0, 11, 98
2, 75300, Control_c, 0, 11, 99
2, 75306, Control_c, 0, 11, 100
2, 75312, Control_c, 0, 11, 101
2, 75317, Control_c, 0, 11, 102
2, 75323, Control_c, 0, 11, 103
2, 75328, Control_c, 0, 11, 104
2, 75334, Control_c, 0, 11, 105
2, 75339, Control_c, 0, 11, 106
2, 75345, Control_c, 0, 11, 107
2, 75350, Control_c, 0, 11, 108
2, 75356, Control_c, 0, 11, 109
2, 75358, Note_on_c, 0, 82, 0
2, 75360, Note_on_c, 0, 84, 90
2, 75361, Control_c, 0, 11, 110
2, 75367, Control_c, 0, 11, 111
2, 75372, Control_c, 0, 11, 112
2, 75378, Control_c, 0, 11, 113
2, 75384, Control_c, 0, 11, 114
2, 75389, Control_c, 0, 11, 115
2, 75395, Control_c, 0, 11, 116
2, 75400, Control_c, 0, 11, 117
2, 75406, Control_c, 0, 11, 118
2, 75411, Control_c, 0, 11, 119
2, 75417, Control_c, 0, 11, 120
2, 75422, Control_c, 0, 11, 121
2, 75428, Control_c, 0, 11, 122
2, 75433, Control_c, 0, 11, 123
2, 75439, Control_c, 0, 11, 124
2, 75444, Control_c, 0, 11, 125
2, 75450, Control_c, 0, 11, 126
2, 75454, Note_on_c, 0, 84, 0
2, 75456, Control_c, 0, 11, 127
2, 75456, Note_on_c, 0, 82, 88
2, 75488, Note_on_c, 0, 82, 0
2, 75744, Control_c, 0, 11, 75
2, 75744, Note_on_c, 0, 84, 93
2, 75749, Control_c, 0, 11, 76
2, 75755, Control_c, 0, 11, 77
2, 75760, Control_c, 0, 11, 78
2, 75766, Control_c, 0, 11, 79
2, 75771, Control_c, 0, 11, 80
2, 75777, Control_c, 0, 11, 81
2, 75782, Control_c, 0, 11, 82
2, 75788, Control_c, 0, 11, 83
2, 75793, Control_c, 0, 11, 84
2, 75799, Control_c, 0, 11, 85
2, 75804, Control_c, 0, 11, 86
2, 75810, Control_c, 0, 11, 87
2, 75816, Control_c, 0, 11, 88
2, 75821, Control_c, 0, 11, 89
2, 75827, Control_c, 0, 11, 90
2, 75832, Control_c, 0, 11, 91
2, 75838, Note_on_c, 0, 84, 0
2, 75838, Control_c, 0, 11, 92
2, 75840, Note_on_c, 0, 82, 87
2, 75843, Control_c, 0, 11, 93
2, 75849, Control_c, 0, 11, 94
2, 75854, Control_c, 0, 11, 95
2, 75860, Control_c, 0, 11, 96
2, 75865, Control_c, 0, 11, 97
2, 75871, Control_c, 0, 11, 98
2, 75876, Control_c, 0, 11, 99
2, 75882, Control_c, 0, 11, 100
2, 75888, Control_c, 0, 11, 101
2, 75893, Control_c, 0, 11, 102
2, 75899, Control_c, 0, 11, 103
2, 75904, Control_c, 0, 11, 104
2, 75910, Control_c, 0, 11, 105
2, 75915, Control_c, 0, 11, 106
2, 75921, Control_c, 0, 11, 107
2, 75926, Control_c, 0, 11, 108
2, 75932, Control_c, 0, 11, 109
2, 75934, Note_on_c, 0, 82, 0
2, 75936, Note_on_c, 0, 84, 93
2, 75937, Control_c, 0, 11, 110
2, 75943, Control_c, 0, 11, 111
2, 75948, Control_c, 0, 11, 112
2, 75954, Control_c, 0, 11, 113
2, 75960, Control_c, 0, 11, 114
2, 75965, Control_c, 0, 11, 115
2, 75971, Control_c, 0, 11, 116
2, 75976, Control_c, 0, 11, 117
2, 75982, Control_c, 0, 11, 118
2, 75987, Control_c, 0, 11, 119
2, 75993, Control_c, 0, 11, 120
2, 75998, Control_c, 0, 11, 121
2, 76004, Control_c, 0, 11, 122
2, 76009, Control_c, 0, 11, 123
2, 76015, Control_c, 0, 11, 124
2, 76020, Control_c, 0, 11, 125
2, 76026, Control_c, 0, 11, 126
2, 76030, Note_on_c, 0, 84, 0
2, 76032, Control_c, 0, 11, 127
2, 76032, Note_on_c, 0, 82, 89
2, 76064, Note_on_c, 0, 82, 0
2, 77664, Control_c, 0, 11, 92
2, 77664, Note_on_c, 0, 84, 91
2, 77669, Control_c, 0, 11, 93
2, 77674, Control_c, 0, 11, 94
2, 77680, Control_c, 0, 11, 95
2, 77685, Control_c, 0, 11, 96
2, 77691, Control_c, 0, 11, 97
2, 77696, Control_c, 0, 11, 98
2, 77702, Control_c, 0, 11, 99
2, 77707, Control_c, 0, 11, 100
2, 77713, Control_c, 0, 11, 101
2, 77718, Control_c, 0, 11, 102
2, 77724, Control_c, 0, 11, 103
2, 77729, Control_c, 0, 11, 104
2, 77735, Control_c, 0, 11, 105
2, 77740, Control_c, 0, 11, 106
2, 77746, Control_c, 0, 11, 107
2, 77751, Control_c, 0, 11, 108
2, 77757, Control_c, 0, 11, 109
2, 77758, Note_on_c, 0, 84, 0
2, 77760, Note_on_c, 0, 82, 93
2, 77762, Control_c, 0, 11, 110
2, 77768, Control_c, 0, 11, 111
2, 77773, Control_c, 0, 11, 112
2, 77779, Control_c, 0, 11, 113
2, 77784, Control_c, 0, 11, 114
2, 77790, Control_c, 0, 11, 115
2, 77795, Control_c, 0, 11, 116
2, 77801, Control_c, 0, 11, 117
2, 77806, Control_c, 0, 11, 118
2, 77808, Note_on_c, 0, 82, 0
2, 77812, Control_c, 0, 11, 119
2, 77817, Control_c, 0, 11, 120
2, 77823, Control_c, 0, 11, 121
2, 77828, Control_c, 0, 11, 122
2, 77832, Note_on_c, 0, 79, 94
2, 77834, Control_c, 0, 11, 123
2, 77839, Control_c, 0, 11, 124
2, 77845, Control_c, 0, 11, 125
2, 77850, Control_c, 0, 11, 126
2, 77854, Note_on_c, 0, 79, 0
2, 77856, Control_c, 0, 11, 127
2, 77856, Note_on_c, 0, 81, 91
2, 77950, Note_on_c, 0, 81, 0
2, 78240, Control_c, 0, 11, 92
2, 78240, Note_on_c, 0, 84, 97
2, 78245, Control_c, 0, 11, 93
2, 78250, Control_c, 0, 11, 94
2, 78256, Control_c, 0, 11, 95
2, 78261, Control_c, 0, 11, 96
2, 78267, Control_c, 0, 11, 97
2, 78272, Control_c, 0, 11, 98
2, 78278, Control_c, 0, 11, 99
2, 78283, Control_c, 0, 11, 100
2, 78289, Control_c, 0, 11, 101
2, 78294, Control_c, 0, 11, 102
2, 78300, Control_c, 0, 11, 103
2, 78305, Control_c, 0, 11, 104
2, 78311, Control_c, 0, 11, 105
2, 78316, Control_c, 0, 11, 106
2, 78322, Control_c, 0, 11, 107
2, 78327, Control_c, 0, 11, 108
2, 78333, Control_c, 0, 11, 109
2, 78334, Note_on_c, 0, 84, 0
2, 78336, Note_on_c, 0, 82, 93
2, 78338, Control_c, 0, 11, 110
2, 78344, Control_c, 0, 11, 111
2, 78349, Control_c, 0, 11, 112
2, 78355, Control_c, 0, 11, 113
2, 78360, Control_c, 0, 11, 114
2, 78366, Control_c, 0, 11, 115
2, 78371, Control_c, 0, 11, 116
2, 78377, Control_c, 0, 11, 117
2, 78382, Control_c, 0, 11, 118
2, 78384, Note_on_c, 0, 82, 0
2, 78388, Control_c, 0, 11, 119
2, 78393, Control_c, 0, 11, 120
2, 78399, Control_c, 0, 11, 121
2, 78404, Control_c, 0, 11, 122
2, 78408, Note_on_c, 0, 79, 87
2, 78410, Control_c, 0, 11, 123
2, 78415, Control_c, 0, 11, 124
2, 78421, Control_c, 0, 11, 125
2, 78426, Control_c, 0, 11, 126
2, 78430, Note_on_c, 0, 79, 0
2, 78432, Control_c, 0, 11, 127
2, 78432, Note_on_c, 0, 81, 97
2, 78526, Note_on_c, 0, 81, 0
2, 78912, Control_c, 0, 11, 92
2, 78912, Note_on_c, 0, 79, 127
2, 78928, Control_c, 0, 11, 93
2, 78944, Control_c, 0, 11, 94
2, 78961, Control_c, 0, 11, 95
2, 78977, Control_c, 0, 11, 96
2, 78994, Control_c, 0, 11, 97
2, 79010, Control_c, 0, 11, 98
2, 79027, Control_c, 0, 11, 99
2, 79043, Control_c, 0, 11, 100
2, 79060, Control_c, 0, 11, 101
2, 79076, Control_c, 0, 11, 102
2, 79093, Control_c, 0, 11, 103
2, 79109, Control_c, 0, 11, 104
2, 79125, Control_c, 0, 11, 105
2, 79142, Control_c, 0, 11, 106
2, 79158, Control_c, 0, 11, 107
2, 79175, Control_c, 0, 11, 108
2, 79191, Control_c, 0, 11, 109
2, 79208, Control_c, 0, 11, 110
2, 79224, Control_c, 0, 11, 111
2, 79241, Control_c, 0, 11, 112
2, 79257, Control_c, 0, 11, 113
2, 79274, Control_c, 0, 11, 114
2, 79290, Control_c, 0, 11, 115
2, 79306, Control_c, 0, 11, 116
2, 79323, Control_c, 0, 11, 117
2, 79339, Control_c, 0, 11, 118
2, 79356, Control_c, 0, 11, 119
2, 79372, Control_c, 0, 11, 120
2, 79389, Control_c, 0, 11, 121
2, 79405, Control_c, 0, 11, 122
2, 79422, Control_c, 0, 11, 123
2, 79438, Control_c, 0, 11, 124
2, 79440, Note_on_c, 0, 79, 0
2, 79455, Control_c, 0, 11, 125
2, 79471, Control_c, 0, 11, 126
2, 79488, Control_c, 0, 11, 127
2, 79488, Note_on_c, 0, 82, 127
2, 79582, Note_on_c, 0, 82, 0
2, 79584, Note_on_c, 0, 84, 127
2, 79726, Note_on_c, 0, 84, 0
2, 79728, Note_on_c, 0, 79, 127
2, 79774, Note_on_c, 0, 79, 0
2, 79776, Control_c, 0, 11, 127
2, 79776, Note_on_c, 0, 82, 127
2, 79794, Control_c, 0, 11, 126
2, 79812, Control_c, 0, 11, 125
2, 79830, Control_c, 0, 11, 124
2, 79849, Control_c, 0, 11, 123
2, 79867, Control_c, 0, 11, 122
2, 79885, Control_c, 0, 11, 121
2, 79904, Control_c, 0, 11, 120
2, 79918, Note_on_c, 0, 82, 0
2, 79920, Note_on_c, 0, 79, 126
2, 79922, Control_c, 0, 11, 119
2, 79940, Control_c, 0, 11, 118
2, 79958, Control_c, 0, 11, 117
2, 79977, Control_c, 0, 11, 116
2, 79995, Control_c, 0, 11, 115
2, 80013, Control_c, 0, 11, 114
2, 80032, Control_c, 0, 11, 113
2, 80050, Control_c, 0, 11, 112
2, 80068, Control_c, 0, 11, 111
2, 80086, Control_c, 0, 11, 110
2, 80105, Control_c, 0, 11, 109
2, 80123, Control_c, 0, 11, 108
2, 80141, Control_c, 0, 11, 107
2, 80160, Control_c, 0, 11, 106
2, 80178, Control_c, 0, 11, 105
2, 80196, Control_c, 0, 11, 104
2, 80214, Control_c, 0, 11, 103
2, 80233, Control_c, 0, 11, 102
2, 80251, Control_c, 0, 11, 101
2, 80269, Control_c, 0, 11, 100
2, 80288, Control_c, 0, 11, 99
2, 80306, Control_c, 0, 11, 98
2, 80324, Control_c, 0, 11, 97
2, 80342, Control_c, 0, 11, 96
2, 80361, Control_c, 0, 11, 95
2, 80379, Control_c, 0, 11, 94
2, 80397, Control_c, 0, 11, 93
2, 80416, Control_c, 0, 11, 92
2, 80434, Control_c, 0, 11, 91
2, 80452, Control_c, 0, 11, 90
2, 80470, Control_c, 0, 11, 89
2, 80489, Control_c, 0, 11, 88
2, 80507, Control_c, 0, 11, 87
2, 80525, Control_c, 0, 11, 86
2, 80544, Control_c, 0, 11, 85
2, 80562, Control_c, 0, 11, 84
2, 80580, Control_c, 0, 11, 83
2, 80598, Control_c, 0, 11, 82
2, 80617, Control_c, 0, 11, 81
2, 80635, Control_c, 0, 11, 80
2, 80653, Control_c, 0, 11, 79
2, 80672, Control_c, 0, 11, 78
2, 80690, Control_c, 0, 11, 77
2, 80708, Control_c, 0, 11, 76
2, 80726, Control_c, 0, 11, 75
2, 80745, Control_c, 0, 11, 74
2, 80763, Control_c, 0, 11, 73
2, 80781, Control_c, 0, 11, 72
2, 80800, Control_c, 0, 11, 71
2, 80818, Control_c, 0, 11, 70
2, 80836, Control_c, 0, 11, 69
2, 80854, Control_c, 0, 11, 68
2, 80873, Control_c, 0, 11, 67
2, 80891, Control_c, 0, 11, 66
2, 80909, Control_c, 0, 11, 65
2, 80926, Note_on_c, 0, 79, 0
2, 80928, Control_c, 0, 11, 64
2, 83232, Control_c, 0, 7, 127
2, 83616, Control_c, 0, 11, 127
2, 83616, Note_on_c, 0, 71, 42
2, 83616, Note_on_c, 0, 75, 50
2, 83618, Control_c, 0, 11, 126
2, 83621, Control_c, 0, 11, 125
2, 83624, Control_c, 0, 11, 124
2, 83626, Control_c, 0, 11, 123
2, 83629, Control_c, 0, 11, 122
2, 83632, Control_c, 0, 11, 121
2, 83635, Control_c, 0, 11, 120
2, 83637, Control_c, 0, 11, 119
2, 83640, Control_c, 0, 11, 118
2, 83643, Control_c, 0, 11, 117
2, 83646, Control_c, 0, 11, 116
2, 83648, Control_c, 0, 11, 115
2, 83651, Control_c, 0, 11, 114
2, 83654, Control_c, 0, 11, 113
2, 83657, Control_c, 0, 11, 112
2, 83659, Control_c, 0, 11, 111
2, 83662, Control_c, 0, 11, 110
2, 83665, Control_c, 0, 11, 109
2, 83668, Control_c, 0, 11, 108
2, 83670, Control_c, 0, 11, 107
2, 83673, Control_c, 0, 11, 106
2, 83676, Control_c, 0, 11, 105
2, 83679, Control_c, 0, 11, 104
2, 83681, Control_c, 0, 11, 103
2, 83684, Control_c, 0, 11, 102
2, 83687, Control_c, 0, 11, 101
2, 83690, Control_c, 0, 11, 100
2, 83692, Control_c, 0, 11, 99
2, 83695, Control_c, 0, 11, 98
2, 83698, Control_c, 0, 11, 97
2, 83701, Control_c, 0, 11, 96
2, 83703, Control_c, 0, 11, 95
2, 83706, Control_c, 0, 11, 94
2, 83709, Control_c, 0, 11, 93
2, 83712, Control_c, 0, 11, 92
2, 84064, Note_on_c, 0, 71, 0
2, 84064, Note_on_c, 0, 75, 0
2, 84384, Control_c, 0, 11, 127
2, 86112, Note_on_c, 0, 80, 27
2, 86112, Note_on_c, 0, 82, 27
2, 88368, Note_on_c, 0, 80, 0
2, 88368, Note_on_c, 0, 82, 0
2, 88416, Control_c, 0, 11, 127
2, 88416, Note_on_c, 0, 78, 27
2, 88416, Note_on_c, 0, 82, 26
2, 88432, Control_c, 0, 11, 126
2, 88448, Control_c, 0, 11, 125
2, 88465, Control_c, 0, 11, 124
2, 88481, Control_c, 0, 11, 123
2, 88498, Control_c, 0, 11, 122
2, 88514, Control_c, 0, 11, 121
2, 88531, Control_c, 0, 11, 120
2, 88547, Control_c, 0, 11, 119
2, 88564, Control_c, 0, 11, 118
2, 88580, Control_c, 0, 11, 117
2, 88597, Control_c, 0, 11, 116
2, 88613, Control_c, 0, 11, 115
2, 88629, Control_c, 0, 11, 114
2, 88646, Control_c, 0, 11, 113
2, 88662, Control_c, 0, 11, 112
2, 88679, Control_c, 0, 11, 111
2, 88695, Control_c, 0, 11, 110
2, 88712, Control_c, 0, 11, 109
2, 88728, Control_c, 0, 11, 108
2, 88745, Control_c, 0, 11, 107
2, 88761, Control_c, 0, 11, 106
2, 88778, Control_c, 0, 11, 105
2, 88794, Control_c, 0, 11, 104
2, 88810, Control_c, 0, 11, 103
2, 88827, Control_c, 0, 11, 102
2, 88843, Control_c, 0, 11, 101
2, 88860, Control_c, 0, 11, 100
2, 88876, Control_c, 0, 11, 99
2, 88893, Control_c, 0, 11, 98
2, 88909, Control_c, 0, 11, 97
2, 88926, Control_c, 0, 11, 96
2, 88942, Control_c, 0, 11, 95
2, 88959, Control_c, 0, 11, 94
2, 88975, Control_c, 0, 11, 93
2, 88992, Note_on_c, 0, 78, 0
2, 88992, Control_c, 0, 11, 92
2, 88992, Note_on_c, 0, 77, 32
2, 89520, Note_on_c, 0, 82, 0
2, 89520, Note_on_c, 0, 77, 0
2, 90240, Control_c, 0, 11, 92
2, 90240, Note_on_c, 0, 70, 63
2, 90240, Note_on_c, 0, 82, 55
2, 90242, Control_c, 0, 11, 93
2, 90245, Control_c, 0, 11, 94
2, 90248, Control_c, 0, 11, 95
2, 90250, Control_c, 0, 11, 96
2, 90253, Control_c, 0, 11, 97
2, 90256, Control_c, 0, 11, 98
2, 90259, Control_c, 0, 11, 99
2, 90261, Control_c, 0, 11, 100
2, 90264, Control_c, 0, 11, 101
2, 90267, Control_c, 0, 11, 102
2, 90270, Control_c, 0, 11, 103
2, 90272, Control_c, 0, 11, 104
2, 90275, Control_c, 0, 11, 105
2, 90278, Control_c, 0, 11, 106
2, 90281, Control_c, 0, 11, 107
2, 90283, Control_c, 0, 11, 108
2, 90286, Control_c, 0, 11, 109
2, 90289, Control_c, 0, 11, 110
2, 90292, Control_c, 0, 11, 111
2, 90294, Control_c, 0, 11, 112
2, 90297, Control_c, 0, 11, 113
2, 90300, Control_c, 0, 11, 114
2, 90303, Control_c, 0, 11, 115
2, 90305, Control_c, 0, 11, 116
2, 90308, Control_c, 0, 11, 117
2, 90311, Control_c, 0, 11, 118
2, 90314, Control_c, 0, 11, 119
2, 90316, Control_c, 0, 11, 120
2, 90319, Control_c, 0, 11, 121
2, 90322, Control_c, 0, 11, 122
2, 90325, Control_c, 0, 11, 123
2, 90327, Control_c, 0, 11, 124
2, 90330, Control_c, 0, 11, 125
2, 90333, Control_c, 0, 11, 126
2, 90334, Note_on_c, 0, 70, 0
2, 90334, Note_on_c, 0, 82, 0
2, 90336, Control_c, 0, 11, 127
2, 90336, Note_on_c, 0, 68, 57
2, 90336, Note_on_c, 0, 80, 61
2, 90526, Note_on_c, 0, 68, 0
2, 90526, Note_on_c, 0, 80, 0
2, 90672, Control_c, 0, 11, 92
2, 90672, Note_on_c, 0, 70, 56
2, 90672, Note_on_c, 0, 82, 56
2, 90674, Control_c, 0, 11, 93
2, 90677, Control_c, 0, 11, 94
2, 90680, Control_c, 0, 11, 95
2, 90682, Control_c, 0, 11, 96
2, 90685, Control_c, 0, 11, 97
2, 90688, Control_c, 0, 11, 98
2, 90691, Control_c, 0, 11, 99
2, 90693, Control_c, 0, 11, 100
2, 90696, Control_c, 0, 11, 101
2, 90699, Control_c, 0, 11, 102
2, 90702, Control_c, 0, 11, 103
2, 90704, Control_c, 0, 11, 104
2, 90707, Control_c, 0, 11, 105
2, 90710, Control_c, 0, 11, 106
2, 90713, Control_c, 0, 11, 107
2, 90715, Control_c, 0, 11, 108
2, 90718, Note_on_c, 0, 70, 0
2, 90718, Note_on_c, 0, 82, 0
2, 90718, Control_c, 0, 11, 109
2, 90720, Note_on_c, 0, 68, 61
2, 90720, Note_on_c, 0, 80, 57
2, 90721, Control_c, 0, 11, 110
2, 90724, Control_c, 0, 11, 111
2, 90726, Control_c, 0, 11, 112
2, 90729, Control_c, 0, 11, 113
2, 90732, Control_c, 0, 11, 114
2, 90735, Control_c, 0, 11, 115
2, 90737, Control_c, 0, 11, 116
2, 90740, Control_c, 0, 11, 117
2, 90743, Control_c, 0, 11, 118
2, 90746, Control_c, 0, 11, 119
2, 90748, Control_c, 0, 11, 120
2, 90751, Control_c, 0, 11, 121
2, 90754, Control_c, 0, 11, 122
2, 90757, Control_c, 0, 11, 123
2, 90759, Control_c, 0, 11, 124
2, 90762, Control_c, 0, 11, 125
2, 90765, Control_c, 0, 11, 126
2, 90768, Control_c, 0, 11, 127
2, 90862, Note_on_c, 0, 68, 0
2, 90862, Note_on_c, 0, 80, 0
2, 92544, Control_c, 0, 11, 92
2, 92544, Note_on_c, 0, 70, 60
2, 92544, Note_on_c, 0, 82, 65
2, 92546, Control_c, 0, 11, 93
2, 92549, Control_c, 0, 11, 94
2, 92552, Control_c, 0, 11, 95
2, 92554, Control_c, 0, 11, 96
2, 92557, Control_c, 0, 11, 97
2, 92560, Control_c, 0, 11, 98
2, 92563, Control_c, 0, 11, 99
2, 92565, Control_c, 0, 11, 100
2, 92568, Control_c, 0, 11, 101
2, 92571, Control_c, 0, 11, 102
2, 92574, Control_c, 0, 11, 103
2, 92576, Control_c, 0, 11, 104
2, 92579, Control_c, 0, 11, 105
2, 92582, Control_c, 0, 11, 106
2, 92585, Control_c, 0, 11, 107
2, 92587, Control_c, 0, 11, 108
2, 92590, Control_c, 0, 11, 109
2, 92593, Control_c, 0, 11, 110
2, 92596, Control_c, 0, 11, 111
2, 92598, Control_c, 0, 11, 112
2, 92601, Control_c, 0, 11, 113
2, 92604, Control_c, 0, 11, 114
2, 92607, Control_c, 0, 11, 115
2, 92609, Control_c, 0, 11, 116
2, 92612, Control_c, 0, 11, 117
2, 92615, Control_c, 0, 11, 118
2, 92618, Control_c, 0, 11, 119
2, 92620, Control_c, 0, 11, 120
2, 92623, Control_c, 0, 11, 121
2, 92626, Control_c, 0, 11, 122
2, 92629, Control_c, 0, 11, 123
2, 92631, Control_c, 0, 11, 124
2, 92634, Control_c, 0, 11, 125
2, 92637, Control_c, 0, 11, 126
2, 92638, Note_on_c, 0, 70, 0
2, 92638, Note_on_c, 0, 82, 0
2, 92640, Control_c, 0, 11, 127
2, 92640, Note_on_c, 0, 68, 63
2, 92640, Note_on_c, 0, 80, 56
2, 92830, Note_on_c, 0, 68, 0
2, 92830, Note_on_c, 0, 80, 0
2, 92976, Control_c, 0, 11, 92
2, 92976, Note_on_c, 0, 70, 65
2, 92976, Note_on_c, 0, 82, 64
2, 92978, Control_c, 0, 11, 93
2, 92981, Control_c, 0, 11, 94
2, 92984, Control_c, 0, 11, 95
2, 92986, Control_c, 0, 11, 96
2, 92989, Control_c, 0, 11, 97
2, 92992, Control_c, 0, 11, 98
2, 92995, Control_c, 0, 11, 99
2, 92997, Control_c, 0, 11, 100
2, 93000, Control_c, 0, 11, 101
2, 93003, Control_c, 0, 11, 102
2, 93006, Control_c, 0, 11, 103
2, 93008, Control_c, 0, 11, 104
2, 93011, Control_c, 0, 11, 105
2, 93014, Control_c, 0, 11, 106
2, 93017, Control_c, 0, 11, 107
2, 93019, Control_c, 0, 11, 108
2, 93022, Note_on_c, 0, 70, 0
2, 93022, Note_on_c, 0, 82, 0
2, 93022, Control_c, 0, 11, 109
2, 93024, Note_on_c, 0, 68, 57
2, 93024, Note_on_c, 0, 80, 65
2, 93025, Control_c, 0, 11, 110
2, 93028, Control_c, 0, 11, 111
2, 93030, Control_c, 0, 11, 112
2, 93033, Control_c, 0, 11, 113
2, 93036, Control_c, 0, 11, 114
2, 93039, Control_c, 0, 11, 115
2, 93041, Control_c, 0, 11, 116
2, 93044, Control_c, 0, 11, 117
2, 93047, Control_c, 0, 11, 118
2, 93050, Control_c, 0, 11, 119
2, 93052, Control_c, 0, 11, 120
2, 93055, Control_c, 0, 11, 121
2, 93058, Control_c, 0, 11, 122
2, 93061, Control_c, 0, 11, 123
2, 93063, Control_c, 0, 11, 124
2, 93066, Control_c, 0, 11, 125
2, 93069, Control_c, 0, 11, 126
2, 93072, Control_c, 0, 11, 127
2, 93166, Note_on_c, 0, 68, 0
2, 93166, Note_on_c, 0, 80, 0
2, 94176, Control_c, 0, 11, 92
2, 94176, Note_on_c, 0, 82, 40
2, 94368, Note_on_c, 0, 70, 42
2, 94512, Note_on_c, 0, 82, 0
2, 94560, Note_on_c, 0, 70, 0
2, 94560, Control_c, 0, 11, 92
2, 94560, Note_on_c, 0, 71, 46
2, 94560, Note_on_c, 0, 83, 46
2, 94570, Control_c, 0, 11, 93
2, 94581, Control_c, 0, 11, 94
2, 94592, Control_c, 0, 11, 95
2, 94603, Control_c, 0, 11, 96
2, 94614, Control_c, 0, 11, 97
2, 94625, Control_c, 0, 11, 98
2, 94636, Control_c, 0, 11, 99
2, 94647, Control_c, 0, 11, 100
2, 94658, Control_c, 0, 11, 101
2, 94669, Control_c, 0, 11, 102
2, 94680, Control_c, 0, 11, 103
2, 94691, Control_c, 0, 11, 104
2, 94702, Control_c, 0, 11, 105
2, 94713, Control_c, 0, 11, 106
2, 94724, Control_c, 0, 11, 107
2, 94735, Control_c, 0, 11, 108
2, 94746, Control_c, 0, 11, 109
2, 94757, Control_c, 0, 11, 110
2, 94768, Control_c, 0, 11, 111
2, 94779, Control_c, 0, 11, 112
2, 94790, Control_c, 0, 11, 113
2, 94801, Control_c, 0, 11, 114
2, 94812, Control_c, 0, 11, 115
2, 94823, Control_c, 0, 11, 116
2, 94834, Control_c, 0, 11, 117
2, 94845, Control_c, 0, 11, 118
2, 94848, Note_on_c, 0, 71, 0
2, 94848, Note_on_c, 0, 83, 0
2, 94848, Note_on_c, 0, 73, 45
2, 94848, Note_on_c, 0, 85, 46
2, 94856, Control_c, 0, 11, 119
2, 94867, Control_c, 0, 11, 120
2, 94878, Control_c, 0, 11, 121
2, 94889, Control_c, 0, 11, 122
2, 94900, Control_c, 0, 11, 123
2, 94911, Control_c, 0, 11, 124
2, 94922, Control_c, 0, 11, 125
2, 94933, Control_c, 0, 11, 126
2, 94942, Note_on_c, 0, 73, 0
2, 94942, Note_on_c, 0, 85, 0
2, 94944, Control_c, 0, 11, 127
2, 94944, Note_on_c, 0, 82, 44
2, 94965, Control_c, 0, 11, 126
2, 94987, Control_c, 0, 11, 125
2, 95009, Control_c, 0, 11, 124
2, 95031, Control_c, 0, 11, 123
2, 95053, Control_c, 0, 11, 122
2, 95075, Control_c, 0, 11, 121
2, 95097, Control_c, 0, 11, 120
2, 95119, Control_c, 0, 11, 119
2, 95141, Control_c, 0, 11, 118
2, 95163, Control_c, 0, 11, 117
2, 95185, Control_c, 0, 11, 116
2, 95207, Control_c, 0, 11, 115
2, 95229, Control_c, 0, 11, 114
2, 95251, Control_c, 0, 11, 113
2, 95273, Control_c, 0, 11, 112
2, 95295, Control_c, 0, 11, 111
2, 95317, Control_c, 0, 11, 110
2, 95328, Note_on_c, 0, 82, 0
2, 95328, Note_on_c, 0, 71, 46
2, 95328, Note_on_c, 0, 83, 48
2, 95338, Control_c, 0, 11, 109
2, 95360, Control_c, 0, 11, 108
2, 95382, Control_c, 0, 11, 107
2, 95404, Control_c, 0, 11, 106
2, 95426, Control_c, 0, 11, 105
2, 95448, Control_c, 0, 11, 104
2, 95470, Control_c, 0, 11, 103
2, 95492, Control_c, 0, 11, 102
2, 95514, Control_c, 0, 11, 101
2, 95536, Control_c, 0, 11, 100
2, 95558, Control_c, 0, 11, 99
2, 95580, Control_c, 0, 11, 98
2, 95602, Control_c, 0, 11, 97
2, 95624, Control_c, 0, 11, 96
2, 95646, Control_c, 0, 11, 95
2, 95668, Control_c, 0, 11, 94
2, 95690, Control_c, 0, 11, 93
2, 95712, Note_on_c, 0, 71, 0
2, 95712, Note_on_c, 0, 83, 0
2, 95712, Control_c, 0, 11, 92
2, 95712, Note_on_c, 0, 77, 43
2, 95712, Note_on_c, 0, 89, 50
2, 96048, Note_on_c, 0, 77, 0
2, 96048, Note_on_c, 0, 89, 0
2, 103392, Control_c, 0, 11, 127
2, 103392, Note_on_c, 0, 64, 35
2, 103435, Control_c, 0, 11, 126
2, 103479, Control_c, 0, 11, 125
2, 103523, Control_c, 0, 11, 124
2, 103567, Control_c, 0, 11, 123
2, 103611, Control_c, 0, 11, 122
2, 103655, Control_c, 0, 11, 121
2, 103680, Note_on_c, 0, 64, 0
2, 103680, Note_on_c, 0, 66, 26
2, 103699, Control_c, 0, 11, 120
2, 103743, Control_c, 0, 11, 119
2, 103786, Control_c, 0, 11, 118
2, 103830, Control_c, 0, 11, 117
2, 103874, Control_c, 0, 11, 116
2, 103918, Control_c, 0, 11, 115
2, 103962, Control_c, 0, 11, 114
2, 103968, Note_on_c, 0, 66, 0
2, 103968, Note_on_c, 0, 68, 27
2, 104006, Control_c, 0, 11, 113
2, 104050, Control_c, 0, 11, 112
2, 104094, Control_c, 0, 11, 111
2, 104138, Control_c, 0, 11, 110
2, 104181, Control_c, 0, 11, 109
2, 104225, Control_c, 0, 11, 108
2, 104256, Note_on_c, 0, 68, 0
2, 104256, Note_on_c, 0, 70, 35
2, 104269, Control_c, 0, 11, 107
2, 104313, Control_c, 0, 11, 106
2, 104357, Control_c, 0, 11, 105
2, 104401, Control_c, 0, 11, 104
2, 104445, Control_c, 0, 11, 103
2, 104489, Control_c, 0, 11, 102
2, 104496, Note_on_c, 0, 70, 0
2, 104496, Note_on_c, 0, 72, 35
2, 104533, Control_c, 0, 11, 101
2, 104544, Note_on_c, 0, 72, 0
2, 104544, Note_on_c, 0, 74, 35
2, 104576, Control_c, 0, 11, 100
2, 104620, Control_c, 0, 11, 99
2, 104664, Control_c, 0, 11, 98
2, 104708, Control_c, 0, 11, 97
2, 104752, Control_c, 0, 11, 96
2, 104796, Control_c, 0, 11, 95
2, 104840, Control_c, 0, 11, 94
2, 104884, Control_c, 0, 11, 93
2, 104928, Control_c, 0, 11, 92
2, 105072, Note_on_c, 0, 74, 0
2, 105696, Control_c, 0, 11, 127
2, 105696, Note_on_c, 0, 64, 27
2, 105739, Control_c, 0, 11, 126
2, 105783, Control_c, 0, 11, 125
2, 105827, Control_c, 0, 11, 124
2, 105871, Control_c, 0, 11, 123
2, 105915, Control_c, 0, 11, 122
2, 105959, Control_c, 0, 11, 121
2, 105984, Note_on_c, 0, 64, 0
2, 105984, Note_on_c, 0, 66, 30
2, 106003, Control_c, 0, 11, 120
2, 106047, Control_c, 0, 11, 119
2, 106090, Control_c, 0, 11, 118
2, 106134, Control_c, 0, 11, 117
2, 106178, Control_c, 0, 11, 116
2, 106222, Control_c, 0, 11, 115
2, 106266, Control_c, 0, 11, 114
2, 106272, Note_on_c, 0, 66, 0
2, 106272, Note_on_c, 0, 68, 30
2, 106310, Control_c, 0, 11, 113
2, 106354, Control_c, 0, 11, 112
2, 106398, Control_c, 0, 11, 111
2, 106442, Control_c, 0, 11, 110
2, 106485, Control_c, 0, 11, 109
2, 106529, Control_c, 0, 11, 108
2, 106560, Note_on_c, 0, 68, 0
2, 106560, Note_on_c, 0, 70, 30
2, 106573, Control_c, 0, 11, 107
2, 106617, Control_c, 0, 11, 106
2, 106661, Control_c, 0, 11, 105
2, 106705, Control_c, 0, 11, 104
2, 106749, Control_c, 0, 11, 103
2, 106793, Control_c, 0, 11, 102
2, 106800, Note_on_c, 0, 70, 0
2, 106800, Note_on_c, 0, 72, 27
2, 106837, Control_c, 0, 11, 101
2, 106848, Note_on_c, 0, 72, 0
2, 106848, Note_on_c, 0, 74, 31
2, 106880, Control_c, 0, 11, 100
2, 106924, Control_c, 0, 11, 99
2, 106968, Control_c, 0, 11, 98
2, 107012, Control_c, 0, 11, 97
2, 107056, Control_c, 0, 11, 96
2, 107100, Control_c, 0, 11, 95
2, 107144, Control_c, 0, 11, 94
2, 107184, Note_on_c, 0, 74, 0
2, 107188, Control_c, 0, 11, 93
2, 107232, Control_c, 0, 11, 92
2, 108000, Control_c, 0, 11, 127
2, 108000, Note_on_c, 0, 78, 34
2, 108046, Note_on_c, 0, 78, 0
2, 108096, Note_on_c, 0, 73, 31
2, 108142, Note_on_c, 0, 73, 0
2, 108192, Note_on_c, 0, 66, 34
2, 108238, Note_on_c, 0, 66, 0
2, 108288, Note_on_c, 0, 78, 30
2, 108334, Note_on_c, 0, 78, 0
2, 108384, Note_on_c, 0, 78, 30
2, 108430, Note_on_c, 0, 78, 0
2, 108480, Note_on_c, 0, 73, 27
2, 108526, Note_on_c, 0, 73, 0
2, 108576, Note_on_c, 0, 66, 34
2, 108622, Note_on_c, 0, 66, 0
2, 108672, Note_on_c, 0, 78, 28
2, 108718, Note_on_c, 0, 78, 0
2, 108768, Note_on_c, 0, 78, 27
2, 108814, Note_on_c, 0, 78, 0
2, 108864, Note_on_c, 0, 74, 30
2, 108910, Note_on_c, 0, 74, 0
2, 108960, Note_on_c, 0, 66, 29
2, 109006, Note_on_c, 0, 66, 0
2, 109056, Note_on_c, 0, 78, 28
2, 109102, Note_on_c, 0, 78, 0
2, 109152, Note_on_c, 0, 78, 25
2, 109198, Note_on_c, 0, 78, 0
2, 109248, Note_on_c, 0, 74, 34
2, 109294, Note_on_c, 0, 74, 0
2, 109344, Note_on_c, 0, 66, 26
2, 109390, Note_on_c, 0, 66, 0
2, 109440, Note_on_c, 0, 78, 35
2, 109486, Note_on_c, 0, 78, 0
2, 109536, Note_on_c, 0, 78, 26
2, 109582, Note_on_c, 0, 78, 0
2, 109632, Note_on_c, 0, 73, 30
2, 109678, Note_on_c, 0, 73, 0
2, 109728, Note_on_c, 0, 66, 35
2, 109774, Note_on_c, 0, 66, 0
2, 109824, Note_on_c, 0, 78, 26
2, 109870, Note_on_c, 0, 78, 0
2, 109920, Note_on_c, 0, 78, 32
2, 109966, Note_on_c, 0, 78, 0
2, 110016, Note_on_c, 0, 73, 27
2, 110062, Note_on_c, 0, 73, 0
2, 110112, Note_on_c, 0, 66, 33
2, 110158, Note_on_c, 0, 66, 0
2, 110208, Note_on_c, 0, 78, 90
2, 110254, Note_on_c, 0, 78, 0
2, 110256, Control_c, 0, 7, 92
2, 110304, Control_c, 0, 11, 92
2, 110304, Note_on_c, 0, 75, 109
2, 110304, Note_on_c, 0, 82, 111
2, 110314, Control_c, 0, 11, 93
2, 110325, Control_c, 0, 11, 94
2, 110334, Note_on_c, 0, 75, 0
2, 110334, Note_on_c, 0, 82, 0
2, 110336, Control_c, 0, 11, 95
2, 110336, Note_on_c, 0, 73, 112
2, 110336, Note_on_c, 0, 80, 113
2, 110347, Control_c, 0, 11, 96
2, 110358, Control_c, 0, 11, 97
2, 110366, Note_on_c, 0, 73, 0
2, 110366, Note_on_c, 0, 80, 0
2, 110368, Note_on_c, 0, 70, 109
2, 110368, Note_on_c, 0, 77, 107
2, 110369, Control_c, 0, 11, 98
2, 110380, Control_c, 0, 11, 99
2, 110391, Control_c, 0, 11, 100
2, 110398, Note_on_c, 0, 70, 0
2, 110398, Note_on_c, 0, 77, 0
2, 110400, Note_on_c, 0, 68, 109
2, 110400, Note_on_c, 0, 75, 107
2, 110402, Control_c, 0, 11, 101
2, 110413, Control_c, 0, 11, 102
2, 110424, Control_c, 0, 11, 103
2, 110435, Control_c, 0, 11, 104
2, 110446, Control_c, 0, 11, 105
2, 110457, Control_c, 0, 11, 106
2, 110468, Control_c, 0, 11, 107
2, 110479, Control_c, 0, 11, 108
2, 110490, Control_c, 0, 11, 109
2, 110501, Control_c, 0, 11, 110
2, 110512, Control_c, 0, 11, 111
2, 110523, Control_c, 0, 11, 112
2, 110534, Control_c, 0, 11, 113
2, 110545, Control_c, 0, 11, 114
2, 110556, Control_c, 0, 11, 115
2, 110558, Note_on_c, 0, 68, 0
2, 110558, Note_on_c, 0, 75, 0
2, 110560, Note_on_c, 0, 70, 106
2, 110560, Note_on_c, 0, 77, 103
2, 110567, Control_c, 0, 11, 116
2, 110578, Control_c, 0, 11, 117
2, 110589, Control_c, 0, 11, 118
2, 110600, Control_c, 0, 11, 119
2, 110611, Control_c, 0, 11, 120
2, 110622, Note_on_c, 0, 70, 0
2, 110622, Note_on_c, 0, 77, 0
2, 110622, Control_c, 0, 11, 121
2, 110624, Note_on_c, 0, 73, 109
2, 110624, Note_on_c, 0, 80, 110
2, 110633, Control_c, 0, 11, 122
2, 110644, Control_c, 0, 11, 123
2, 110655, Control_c, 0, 11, 124
2, 110666, Control_c, 0, 11, 125
2, 110677, Control_c, 0, 11, 126
2, 110686, Note_on_c, 0, 73, 0
2, 110686, Note_on_c, 0, 80, 0
2, 110688, Control_c, 0, 11, 127
2, 110688, Note_on_c, 0, 75, 104
2, 110688, Note_on_c, 0, 82, 104
2, 110750, Note_on_c, 0, 75, 0
2, 110750, Note_on_c, 0, 82, 0
2, 110752, Note_on_c, 0, 73, 104
2, 110752, Note_on_c, 0, 80, 106
2, 110814, Note_on_c, 0, 73, 0
2, 110814, Note_on_c, 0, 80, 0
2, 110816, Note_on_c, 0, 70, 107
2, 110816, Note_on_c, 0, 77, 106
2, 110878, Note_on_c, 0, 70, 0
2, 110878, Note_on_c, 0, 77, 0
2, 110880, Note_on_c, 0, 70, 111
2, 110880, Note_on_c, 0, 77, 107
2, 110942, Note_on_c, 0, 70, 0
2, 110942, Note_on_c, 0, 77, 0
2, 110944, Note_on_c, 0, 73, 103
2, 110944, Note_on_c, 0, 80, 112
2, 111006, Note_on_c, 0, 73, 0
2, 111006, Note_on_c, 0, 80, 0
2, 111008, Note_on_c, 0, 75, 112
2, 111008, Note_on_c, 0, 82, 103
2, 111070, Note_on_c, 0, 75, 0
2, 111070, Note_on_c, 0, 82, 0
2, 111072, Control_c, 0, 11, 92
2, 111072, Note_on_c, 0, 75, 109
2, 111072, Note_on_c, 0, 82, 113
2, 111093, Control_c, 0, 11, 93
2, 111102, Note_on_c, 0, 75, 0
2, 111102, Note_on_c, 0, 82, 0
2, 111104, Note_on_c, 0, 73, 110
2, 111104, Note_on_c, 0, 80, 109
2, 111115, Control_c, 0, 11, 94
2, 111134, Note_on_c, 0, 73, 0
2, 111134, Note_on_c, 0, 80, 0
2, 111136, Note_on_c, 0, 70, 108
2, 111136, Note_on_c, 0, 77, 113
2, 111137, Control_c, 0, 11, 95
2, 111159, Control_c, 0, 11, 96
2, 111166, Note_on_c, 0, 70, 0
2, 111166, Note_on_c, 0, 77, 0
2, 111168, Note_on_c, 0, 68, 108
2, 111168, Note_on_c, 0, 75, 110
2, 111181, Control_c, 0, 11, 97
2, 111203, Control_c, 0, 11, 98
2, 111225, Control_c, 0, 11, 99
2, 111247, Control_c, 0, 11, 100
2, 111269, Control_c, 0, 11, 101
2, 111291, Control_c, 0, 11, 102
2, 111313, Control_c, 0, 11, 103
2, 111326, Note_on_c, 0, 68, 0
2, 111326, Note_on_c, 0, 75, 0
2, 111328, Note_on_c, 0, 70, 110
2, 111328, Note_on_c, 0, 77, 104
2, 111335, Control_c, 0, 11, 104
2, 111357, Control_c, 0, 11, 105
2, 111379, Control_c, 0, 11, 106
2, 111390, Note_on_c, 0, 70, 0
2, 111390, Note_on_c, 0, 77, 0
2, 111392, Note_on_c, 0, 73, 104
2, 111392, Note_on_c, 0, 80, 107
2, 111401, Control_c, 0, 11, 107
2, 111423, Control_c, 0, 11, 108
2, 111445, Control_c, 0, 11, 109
2, 111454, Note_on_c, 0, 73, 0
2, 111454, Note_on_c, 0, 80, 0
2, 111456, Note_on_c, 0, 75, 112
2, 111456, Note_on_c, 0, 82, 107
2, 111466, Control_c, 0, 11, 110
2, 111488, Control_c, 0, 11, 111
2, 111510, Control_c, 0, 11, 112
2, 111518, Note_on_c, 0, 75, 0
2, 111518, Note_on_c, 0, 82, 0
2, 111520, Note_on_c, 0, 73, 108
2, 111520, Note_on_c, 0, 80, 104
2, 111532, Control_c, 0, 11, 113
2, 111554, Control_c, 0, 11, 114
2, 111576, Control_c, 0, 11, 115
2, 111582, Note_on_c, 0, 73, 0
2, 111582, Note_on_c, 0, 80, 0
2, 111584, Note_on_c, 0, 70, 111
2, 111584, Note_on_c, 0, 77, 111
2, 111598, Control_c, 0, 11, 116
2, 111620, Control_c, 0, 11, 117
2, 111642, Control_c, 0, 11, 118
2, 111646, Note_on_c, 0, 70, 0
2, 111646, Note_on_c, 0, 77, 0
2, 111648, Note_on_c, 0, 70, 108
2, 111648, Note_on_c, 0, 77, 107
2, 111664, Control_c, 0, 11, 119
2, 111686, Control_c, 0, 11, 120
2, 111708, Control_c, 0, 11, 121
2, 111710, Note_on_c, 0, 70, 0
2, 111710, Note_on_c, 0, 77, 0
2, 111712, Note_on_c, 0, 73, 111
2, 111712, Note_on_c, 0, 80, 109
2, 111730, Control_c, 0, 11, 122
2, 111752, Control_c, 0, 11, 123
2, 111774, Note_on_c, 0, 73, 0
2, 111774, Note_on_c, 0, 80, 0
2, 111774, Control_c, 0, 11, 124
2, 111776, Note_on_c, 0, 75, 110
2, 111776, Note_on_c, 0, 82, 110
2, 111796, Control_c, 0, 11, 125
2, 111818, Control_c, 0, 11, 126
2, 111838, Note_on_c, 0, 75, 0
2, 111838, Note_on_c, 0, 82, 0
2, 111840, Control_c, 0, 11, 127
2, 111840, Control_c, 0, 11, 92
2, 111840, Note_on_c, 0, 75, 127
2, 111840, Note_on_c, 0, 82, 127
2, 111850, Control_c, 0, 11, 93
2, 111861, Control_c, 0, 11, 94
2, 111872, Control_c, 0, 11, 95
2, 111883, Control_c, 0, 11, 96
2, 111894, Control_c, 0, 11, 97
2, 111902, Note_on_c, 0, 75, 0
2, 111902, Note_on_c, 0, 82, 0
2, 111904, Note_on_c, 0, 73, 127
2, 111904, Note_on_c, 0, 80, 127
2, 111905, Control_c, 0, 11, 98
2, 111916, Control_c, 0, 11, 99
2, 111927, Control_c, 0, 11, 100
2, 111938, Control_c, 0, 11, 101
2, 111949, Control_c, 0, 11, 102
2, 111960, Control_c, 0, 11, 103
2, 111966, Note_on_c, 0, 73, 0
2, 111966, Note_on_c, 0, 80, 0
2, 111968, Note_on_c, 0, 70, 127
2, 111968, Note_on_c, 0, 77, 125
2, 111971, Control_c, 0, 11, 104
2, 111982, Control_c, 0, 11, 105
2, 111993, Control_c, 0, 11, 106
2, 112004, Control_c, 0, 11, 107
2, 112015, Control_c, 0, 11, 108
2, 112026, Control_c, 0, 11, 109
2, 112030, Note_on_c, 0, 70, 0
2, 112030, Note_on_c, 0, 77, 0
2, 112032, Note_on_c, 0, 70, 127
2, 112032, Note_on_c, 0, 77, 127
2, 112037, Control_c, 0, 11, 110
2, 112048, Control_c, 0, 11, 111
2, 112059, Control_c, 0, 11, 112
2, 112070, Control_c, 0, 11, 113
2, 112081, Control_c, 0, 11, 114
2, 112092, Control_c, 0, 11, 115
2, 112094, Note_on_c, 0, 70, 0
2, 112094, Note_on_c, 0, 77, 0
2, 112096, Note_on_c, 0, 73, 123
2, 112096, Note_on_c, 0, 80, 127
2, 112103, Control_c, 0, 11, 116
2, 112114, Control_c, 0, 11, 117
2, 112125, Control_c, 0, 11, 118
2, 112136, Control_c, 0, 11, 119
2, 112147, Control_c, 0, 11, 120
2, 112158, Note_on_c, 0, 73, 0
2, 112158, Note_on_c, 0, 80, 0
2, 112158, Control_c, 0, 11, 121
2, 112160, Note_on_c, 0, 75, 127
2, 112160, Note_on_c, 0, 82, 127
2, 112169, Control_c, 0, 11, 122
2, 112180, Control_c, 0, 11, 123
2, 112191, Control_c, 0, 11, 124
2, 112202, Control_c, 0, 11, 125
2, 112213, Control_c, 0, 11, 126
2, 112222, Note_on_c, 0, 75, 0
2, 112222, Note_on_c, 0, 82, 0
2, 112224, Control_c, 0, 11, 127
2, 112224, Control_c, 0, 11, 92
2, 112224, Note_on_c, 0, 75, 127
2, 112224, Note_on_c, 0, 82, 127
2, 112234, Control_c, 0, 11, 93
2, 112245, Control_c, 0, 11, 94
2, 112256, Control_c, 0, 11, 95
2, 112267, Control_c, 0, 11, 96
2, 112278, Control_c, 0, 11, 97
2, 112286, Note_on_c, 0, 75, 0
2, 112286, Note_on_c, 0, 82, 0
2, 112288, Note_on_c, 0, 73, 122
2, 112288, Note_on_c, 0, 80, 126
2, 112289, Control_c, 0, 11, 98
2, 112300, Control_c, 0, 11, 99
2, 112311, Control_c, 0, 11, 100
2, 112322, Control_c, 0, 11, 101
2, 112333, Control_c, 0, 11, 102
2, 112344, Control_c, 0, 11, 103
2, 112350, Note_on_c, 0, 73, 0
2, 112350, Note_on_c, 0, 80, 0
2, 112352, Note_on_c, 0, 70, 126
2, 112352, Note_on_c, 0, 77, 125
2, 112355, Control_c, 0, 11, 104
2, 112366, Control_c, 0, 11, 105
2, 112377, Control_c, 0, 11, 106
2, 112388, Control_c, 0, 11, 107
2, 112399, Control_c, 0, 11, 108
2, 112410, Control_c, 0, 11, 109
2, 112414, Note_on_c, 0, 70, 0
2, 112414, Note_on_c, 0, 77, 0
2, 112416, Note_on_c, 0, 70, 127
2, 112416, Note_on_c, 0, 77, 125
2, 112421, Control_c, 0, 11, 110
2, 112432, Control_c, 0, 11, 111
2, 112443, Control_c, 0, 11, 112
2, 112454, Control_c, 0, 11, 113
2, 112465, Control_c, 0, 11, 114
2, 112476, Control_c, 0, 11, 115
2, 112478, Note_on_c, 0, 70, 0
2, 112478, Note_on_c, 0, 77, 0
2, 112480, Note_on_c, 0, 73, 125
2, 112480, Note_on_c, 0, 80, 124
2, 112487, Control_c, 0, 11, 116
2, 112498, Control_c, 0, 11, 117
2, 112509, Control_c, 0, 11, 118
2, 112520, Control_c, 0, 11, 119
2, 112531, Control_c, 0, 11, 120
2, 112542, Note_on_c, 0, 73, 0
2, 112542, Note_on_c, 0, 80, 0
2, 112542, Control_c, 0, 11, 121
2, 112544, Note_on_c, 0, 75, 126
2, 112544, Note_on_c, 0, 82, 127
2, 112553, Control_c, 0, 11, 122
2, 112564, Control_c, 0, 11, 123
2, 112575, Control_c, 0, 11, 124
2, 112586, Control_c, 0, 11, 125
2, 112597, Control_c, 0, 11, 126
2, 112606, Note_on_c, 0, 75, 0
2, 112606, Note_on_c, 0, 82, 0
2, 112608, Control_c, 0, 11, 127
2, 112608, Control_c, 0, 11, 92
2, 112608, Note_on_c, 0, 76, 127
2, 112608, Note_on_c, 0, 84, 127
2, 112618, Control_c, 0, 11, 93
2, 112629, Control_c, 0, 11, 94
2, 112640, Control_c, 0, 11, 95
2, 112651, Control_c, 0, 11, 96
2, 112654, Note_on_c, 0, 76, 0
2, 112654, Note_on_c, 0, 84, 0
2, 112656, Note_on_c, 0, 73, 125
2, 112656, Note_on_c, 0, 82, 127
2, 112662, Control_c, 0, 11, 97
2, 112673, Control_c, 0, 11, 98
2, 112684, Control_c, 0, 11, 99
2, 112695, Control_c, 0, 11, 100
2, 112706, Control_c, 0, 11, 101
2, 112717, Control_c, 0, 11, 102
2, 112728, Control_c, 0, 11, 103
2, 112739, Control_c, 0, 11, 104
2, 112750, Control_c, 0, 11, 105
2, 112761, Control_c, 0, 11, 106
2, 112772, Control_c, 0, 11, 107
2, 112783, Control_c, 0, 11, 108
2, 112794, Control_c, 0, 11, 109
2, 112805, Control_c, 0, 11, 110
2, 112816, Control_c, 0, 11, 111
2, 112827, Control_c, 0, 11, 112
2, 112838, Control_c, 0, 11, 113
2, 112849, Control_c, 0, 11, 114
2, 112860, Control_c, 0, 11, 115
2, 112871, Control_c, 0, 11, 116
2, 112882, Control_c, 0, 11, 117
2, 112893, Control_c, 0, 11, 118
2, 112896, Note_on_c, 0, 73, 0
2, 112896, Note_on_c, 0, 82, 0
2, 112896, Note_on_c, 0, 76, 127
2, 112896, Note_on_c, 0, 84, 127
2, 112904, Control_c, 0, 11, 119
2, 112915, Control_c, 0, 11, 120
2, 112926, Control_c, 0, 11, 121
2, 112937, Control_c, 0, 11, 122
2, 112948, Control_c, 0, 11, 123
2, 112959, Control_c, 0, 11, 124
2, 112970, Control_c, 0, 11, 125
2, 112981, Control_c, 0, 11, 126
2, 112990, Note_on_c, 0, 76, 0
2, 112990, Note_on_c, 0, 84, 0
2, 112992, Control_c, 0, 11, 127
2, 112992, Control_c, 0, 11, 75
2, 112992, Note_on_c, 0, 75, 124
2, 112992, Note_on_c, 0, 87, 127
2, 112993, Control_c, 0, 11, 76
2, 112995, Control_c, 0, 11, 77
2, 112997, Control_c, 0, 11, 78
2, 112999, Control_c, 0, 11, 79
2, 113001, Control_c, 0, 11, 80
2, 113003, Control_c, 0, 11, 81
2, 113004, Control_c, 0, 11, 82
2, 113006, Control_c, 0, 11, 83
2, 113008, Control_c, 0, 11, 84
2, 113010, Control_c, 0, 11, 85
2, 113012, Control_c, 0, 11, 86
2, 113014, Control_c, 0, 11, 87
2, 113016, Control_c, 0, 11, 88
2, 113017, Control_c, 0, 11, 89
2, 113019, Control_c, 0, 11, 90
2, 113021, Control_c, 0, 11, 91
2, 113023, Control_c, 0, 11, 92
2, 113025, Control_c, 0, 11, 93
2, 113027, Control_c, 0, 11, 94
2, 113028, Control_c, 0, 11, 95
2, 113030, Control_c, 0, 11, 96
2, 113032, Control_c, 0, 11, 97
2, 113034, Control_c, 0, 11, 98
2, 113036, Control_c, 0, 11, 99
2, 113038, Control_c, 0, 11, 100
2, 113040, Control_c, 0, 11, 101
2, 113041, Control_c, 0, 11, 102
2, 113043, Control_c, 0, 11, 103
2, 113045, Control_c, 0, 11, 104
2, 113047, Control_c, 0, 11, 105
2, 113049, Control_c, 0, 11, 106
2, 113051, Control_c, 0, 11, 107
2, 113052, Control_c, 0, 11, 108
2, 113054, Control_c, 0, 11, 109
2, 113056, Control_c, 0, 11, 110
2, 113058, Control_c, 0, 11, 111
2, 113060, Control_c, 0, 11, 112
2, 113062, Control_c, 0, 11, 113
2, 113064, Control_c, 0, 11, 114
2, 113065, Control_c, 0, 11, 115
2, 113067, Control_c, 0, 11, 116
2, 113069, Control_c, 0, 11, 117
2, 113071, Control_c, 0, 11, 118
2, 113073, Control_c, 0, 11, 119
2, 113075, Control_c, 0, 11, 120
2, 113076, Control_c, 0, 11, 121
2, 113078, Control_c, 0, 11, 122
2, 113080, Control_c, 0, 11, 123
2, 113082, Control_c, 0, 11, 124
2, 113084, Control_c, 0, 11, 125
2, 113086, Control_c, 0, 11, 126
2, 113088, Control_c, 0, 11, 127
2, 113089, Control_c, 0, 11, 126
2, 113091, Control_c, 0, 11, 125
2, 113093, Control_c, 0, 11, 124
2, 113095, Control_c, 0, 11, 123
2, 113097, Control_c, 0, 11, 122
2, 113099, Control_c, 0, 11, 121
2, 113100, Control_c, 0, 11, 120
2, 113102, Control_c, 0, 11, 119
2, 113104, Control_c, 0, 11, 118
2, 113106, Control_c, 0, 11, 117
2, 113108, Control_c, 0, 11, 116
2, 113110, Control_c, 0, 11, 115
2, 113112, Control_c, 0, 11, 114
2, 113113, Control_c, 0, 11, 113
2, 113115, Control_c, 0, 11, 112
2, 113117, Control_c, 0, 11, 111
2, 113119, Control_c, 0, 11, 110
2, 113121, Control_c, 0, 11, 109
2, 113123, Control_c, 0, 11, 108
2, 113124, Control_c, 0, 11, 107
2, 113126, Control_c, 0, 11, 106
2, 113128, Control_c, 0, 11, 105
2, 113130, Control_c, 0, 11, 104
2, 113132, Control_c, 0, 11, 103
2, 113134, Control_c, 0, 11, 102
2, 113136, Control_c, 0, 11, 101
2, 113137, Control_c, 0, 11, 100
2, 113139, Control_c, 0, 11, 99
2, 113141, Control_c, 0, 11, 98
2, 113143, Control_c, 0, 11, 97
2, 113145, Control_c, 0, 11, 96
2, 113147, Control_c, 0, 11, 95
2, 113148, Control_c, 0, 11, 94
2, 113150, Control_c, 0, 11, 93
2, 113152, Note_on_c, 0, 75, 0
2, 113152, Note_on_c, 0, 87, 0
2, 113152, Control_c, 0, 11, 92
2, 113154, Control_c, 0, 11, 91
2, 113156, Control_c, 0, 11, 90
2, 113158, Control_c, 0, 11, 89
2, 113160, Control_c, 0, 11, 88
2, 113161, Control_c, 0, 11, 87
2, 113163, Control_c, 0, 11, 86
2, 113165, Control_c, 0, 11, 85
2, 113167, Control_c, 0, 11, 84
2, 113169, Control_c, 0, 11, 83
2, 113171, Control_c, 0, 11, 82
2, 113172, Control_c, 0, 11, 81
2, 113174, Control_c, 0, 11, 80
2, 113176, Control_c, 0, 11, 79
2, 113178, Control_c, 0, 11, 78
2, 113180, Control_c, 0, 11, 77
2, 113182, Control_c, 0, 11, 76
2, 113184, Control_c, 0, 11, 75
2, 113184, Control_c, 0, 11, 75
2, 113184, Note_on_c, 0, 73, 127
2, 113184, Note_on_c, 0, 85, 123
2, 113185, Control_c, 0, 11, 76
2, 113187, Control_c, 0, 11, 77
2, 113189, Control_c, 0, 11, 78
2, 113191, Control_c, 0, 11, 79
2, 113193, Control_c, 0, 11, 80
2, 113195, Control_c, 0, 11, 81
2, 113196, Control_c, 0, 11, 82
2, 113198, Control_c, 0, 11, 83
2, 113200, Control_c, 0, 11, 84
2, 113202, Control_c, 0, 11, 85
2, 113204, Control_c, 0, 11, 86
2, 113206, Control_c, 0, 11, 87
2, 113208, Control_c, 0, 11, 88
2, 113209, Control_c, 0, 11, 89
2, 113211, Control_c, 0, 11, 90
2, 113213, Control_c, 0, 11, 91
2, 113215, Control_c, 0, 11, 92
2, 113217, Control_c, 0, 11, 93
2, 113219, Control_c, 0, 11, 94
2, 113220, Control_c, 0, 11, 95
2, 113222, Control_c, 0, 11, 96
2, 113224, Control_c, 0, 11, 97
2, 113226, Control_c, 0, 11, 98
2, 113228, Control_c, 0, 11, 99
2, 113230, Control_c, 0, 11, 100
2, 113232, Control_c, 0, 11, 101
2, 113233, Control_c, 0, 11, 102
2, 113235, Control_c, 0, 11, 103
2, 113237, Control_c, 0, 11, 104
2, 113239, Control_c, 0, 11, 105
2, 113241, Control_c, 0, 11, 106
2, 113243, Control_c, 0, 11, 107
2, 113244, Control_c, 0, 11, 108
2, 113246, Control_c, 0, 11, 109
2, 113248, Control_c, 0, 11, 110
2, 113250, Control_c, 0, 11, 111
2, 113252, Control_c, 0, 11, 112
2, 113254, Control_c, 0, 11, 113
2, 113256, Control_c, 0, 11, 114
2, 113257, Control_c, 0, 11, 115
2, 113259, Control_c, 0, 11, 116
2, 113261, Control_c, 0, 11, 117
2, 113263, Control_c, 0, 11, 118
2, 113265, Control_c, 0, 11, 119
2, 113267, Control_c, 0, 11, 120
2, 113268, Control_c, 0, 11, 121
2, 113270, Control_c, 0, 11, 122
2, 113272, Control_c, 0, 11, 123
2, 113274, Control_c, 0, 11, 124
2, 113276, Control_c, 0, 11, 125
2, 113278, Control_c, 0, 11, 126
2, 113280, Control_c, 0, 11, 127
2, 113281, Control_c, 0, 11, 126
2, 113283, Control_c, 0, 11, 125
2, 113285, Control_c, 0, 11, 124
2, 113287, Control_c, 0, 11, 123
2, 113289, Control_c, 0, 11, 122
2, 113291, Control_c, 0, 11, 121
2, 113292, Control_c, 0, 11, 120
2, 113294, Control_c, 0, 11, 119
2, 113296, Control_c, 0, 11, 118
2, 113298, Control_c, 0, 11, 117
2, 113300, Control_c, 0, 11, 116
2, 113302, Control_c, 0, 11, 115
2, 113304, Control_c, 0, 11, 114
2, 113305, Control_c, 0, 11, 113
2, 113307, Control_c, 0, 11, 112
2, 113309, Control_c, 0, 11, 111
2, 113311, Control_c, 0, 11, 110
2, 113313, Control_c, 0, 11, 109
2, 113315, Control_c, 0, 11, 108
2, 113316, Control_c, 0, 11, 107
2, 113318, Control_c, 0, 11, 106
2, 113320, Control_c, 0, 11, 105
2, 113322, Control_c, 0, 11, 104
2, 113324, Control_c, 0, 11, 103
2, 113326, Control_c, 0, 11, 102
2, 113328, Control_c, 0, 11, 101
2, 113329, Control_c, 0, 11, 100
2, 113331, Control_c, 0, 11, 99
2, 113333, Control_c, 0, 11, 98
2, 113335, Control_c, 0, 11, 97
2, 113337, Control_c, 0, 11, 96
2, 113339, Control_c, 0, 11, 95
2, 113340, Control_c, 0, 11, 94
2, 113342, Control_c, 0, 11, 93
2, 113344, Note_on_c, 0, 73, 0
2, 113344, Note_on_c, 0, 85, 0
2, 113344, Control_c, 0, 11, 92
2, 113346, Control_c, 0, 11, 91
2, 113348, Control_c, 0, 11, 90
2, 113350, Control_c, 0, 11, 89
2, 113352, Control_c, 0, 11, 88
2, 113353, Control_c, 0, 11, 87
2, 113355, Control_c, 0, 11, 86
2, 113357, Control_c, 0, 11, 85
2, 113359, Control_c, 0, 11, 84
2, 113361, Control_c, 0, 11, 83
2, 113363, Control_c, 0, 11, 82
2, 113364, Control_c, 0, 11, 81
2, 113366, Control_c, 0, 11, 80
2, 113368, Control_c, 0, 11, 79
2, 113370, Control_c, 0, 11, 78
2, 113372, Control_c, 0, 11, 77
2, 113374, Control_c, 0, 11, 76
2, 113376, Control_c, 0, 11, 75
2, 113376, Control_c, 0, 11, 75
2, 113376, Note_on_c, 0, 70, 127
2, 113376, Note_on_c, 0, 82, 125
2, 113377, Control_c, 0, 11, 76
2, 113379, Control_c, 0, 11, 77
2, 113381, Control_c, 0, 11, 78
2, 113383, Control_c, 0, 11, 79
2, 113385, Control_c, 0, 11, 80
2, 113387, Control_c, 0, 11, 81
2, 113388, Control_c, 0, 11, 82
2, 113390, Control_c, 0, 11, 83
2, 113392, Control_c, 0, 11, 84
2, 113394, Control_c, 0, 11, 85
2, 113396, Control_c, 0, 11, 86
2, 113398, Control_c, 0, 11, 87
2, 113400, Control_c, 0, 11, 88
2, 113401, Control_c, 0, 11, 89
2, 113403, Control_c, 0, 11, 90
2, 113405, Control_c, 0, 11, 91
2, 113407, Control_c, 0, 11, 92
2, 113409, Control_c, 0, 11, 93
2, 113411, Control_c, 0, 11, 94
2, 113412, Control_c, 0, 11, 95
2, 113414, Control_c, 0, 11, 96
2, 113416, Control_c, 0, 11, 97
2, 113418, Control_c, 0, 11, 98
2, 113420, Control_c, 0, 11, 99
2, 113422, Control_c, 0, 11, 100
2, 113424, Control_c, 0, 11, 101
2, 113425, Control_c, 0, 11, 102
2, 113427, Control_c, 0, 11, 103
2, 113429, Control_c, 0, 11, 104
2, 113431, Control_c, 0, 11, 105
2, 113433, Control_c, 0, 11, 106
2, 113435, Control_c, 0, 11, 107
2, 113436, Control_c, 0, 11, 108
2, 113438, Control_c, 0, 11, 109
2, 113440, Control_c, 0, 11, 110
2, 113442, Control_c, 0, 11, 111
2, 113444, Control_c, 0, 11, 112
2, 113446, Control_c, 0, 11, 113
2, 113448, Control_c, 0, 11, 114
2, 113449, Control_c, 0, 11, 115
2, 113451, Control_c, 0, 11, 116
2, 113453, Control_c, 0, 11, 117
2, 113455, Control_c, 0, 11, 118
2, 113457, Control_c, 0, 11, 119
2, 113459, Control_c, 0, 11, 120
2, 113460, Control_c, 0, 11, 121
2, 113462, Control_c, 0, 11, 122
2, 113464, Control_c, 0, 11, 123
2, 113466, Control_c, 0, 11, 124
2, 113468, Control_c, 0, 11, 125
2, 113470, Control_c, 0, 11, 126
2, 113472, Control_c, 0, 11, 127
2, 113474, Control_c, 0, 11, 126
2, 113476, Control_c, 0, 11, 125
2, 113478, Control_c, 0, 11, 124
2, 113481, Control_c, 0, 11, 123
2, 113483, Control_c, 0, 11, 122
2, 113485, Control_c, 0, 11, 121
2, 113487, Control_c, 0, 11, 120
2, 113490, Control_c, 0, 11, 119
2, 113492, Control_c, 0, 11, 118
2, 113494, Control_c, 0, 11, 117
2, 113496, Control_c, 0, 11, 116
2, 113499, Control_c, 0, 11, 115
2, 113501, Control_c, 0, 11, 114
2, 113503, Control_c, 0, 11, 113
2, 113506, Control_c, 0, 11, 112
2, 113508, Control_c, 0, 11, 111
2, 113510, Control_c, 0, 11, 110
2, 113512, Control_c, 0, 11, 109
2, 113515, Control_c, 0, 11, 108
2, 113517, Control_c, 0, 11, 107
2, 113519, Control_c, 0, 11, 106
2, 113521, Control_c, 0, 11, 105
2, 113524, Control_c, 0, 11, 104
2, 113526, Control_c, 0, 11, 103
2, 113528, Control_c, 0, 11, 102
2, 113530, Control_c, 0, 11, 101
2, 113533, Control_c, 0, 11, 100
2, 113535, Control_c, 0, 11, 99
2, 113537, Control_c, 0, 11, 98
2, 113540, Control_c, 0, 11, 97
2, 113542, Control_c, 0, 11, 96
2, 113544, Control_c, 0, 11, 95
2, 113546, Control_c, 0, 11, 94
2, 113549, Control_c, 0, 11, 93
2, 113551, Control_c, 0, 11, 92
2, 113553, Control_c, 0, 11, 91
2, 113555, Control_c, 0, 11, 90
2, 113558, Control_c, 0, 11, 89
2, 113560, Control_c, 0, 11, 88
2, 113562, Control_c, 0, 11, 87
2, 113564, Control_c, 0, 11, 86
2, 113567, Control_c, 0, 11, 85
2, 113569, Control_c, 0, 11, 84
2, 113571, Control_c, 0, 11, 83
2, 113574, Control_c, 0, 11, 82
2, 113576, Control_c, 0, 11, 81
2, 113578, Control_c, 0, 11, 80
2, 113580, Control_c, 0, 11, 79
2, 113583, Control_c, 0, 11, 78
2, 113585, Control_c, 0, 11, 77
2, 113587, Control_c, 0, 11, 76
2, 113589, Control_c, 0, 11, 75
2, 113592, Control_c, 0, 11, 74
2, 113594, Control_c, 0, 11, 73
2, 113596, Control_c, 0, 11, 72
2, 113598, Control_c, 0, 11, 71
2, 113601, Control_c, 0, 11, 70
2, 113603, Control_c, 0, 11, 69
2, 113605, Control_c, 0, 11, 68
2, 113608, Control_c, 0, 11, 67
2, 113610, Control_c, 0, 11, 66
2, 113612, Control_c, 0, 11, 65
2, 113614, Control_c, 0, 11, 64
2, 113617, Control_c, 0, 11, 63
2, 113619, Control_c, 0, 11, 62
2, 113621, Control_c, 0, 11, 61
2, 113623, Control_c, 0, 11, 60
2, 113626, Control_c, 0, 11, 59
2, 113628, Control_c, 0, 11, 58
2, 113630, Control_c, 0, 11, 57
2, 113633, Control_c, 0, 11, 56
2, 113635, Control_c, 0, 11, 55
2, 113637, Control_c, 0, 11, 54
2, 113639, Control_c, 0, 11, 53
2, 113642, Control_c, 0, 11, 52
2, 113644, Control_c, 0, 11, 51
2, 113646, Control_c, 0, 11, 50
2, 113648, Control_c, 0, 11, 49
2, 113651, Control_c, 0, 11, 48
2, 113653, Control_c, 0, 11, 47
2, 113655, Control_c, 0, 11, 46
2, 113657, Control_c, 0, 11, 45
2, 113660, Control_c, 0, 11, 44
2, 113662, Control_c, 0, 11, 43
2, 113664, Control_c, 0, 11, 42
2, 113667, Control_c, 0, 11, 41
2, 113669, Control_c, 0, 11, 40
2, 113671, Control_c, 0, 11, 39
2, 113673, Control_c, 0, 11, 38
2, 113676, Control_c, 0, 11, 37
2, 113678, Control_c, 0, 11, 36
2, 113680, Control_c, 0, 11, 35
2, 113682, Control_c, 0, 11, 34
2, 113685, Control_c, 0, 11, 33
2, 113687, Control_c, 0, 11, 32
2, 113689, Control_c, 0, 11, 31
2, 113691, Control_c, 0, 11, 30
2, 113694, Control_c, 0, 11, 29
2, 113696, Control_c, 0, 11, 28
2, 113698, Control_c, 0, 11, 27
2, 113701, Control_c, 0, 11, 26
2, 113703, Control_c, 0, 11, 25
2, 113705, Control_c, 0, 11, 24
2, 113707, Control_c, 0, 11, 23
2, 113710, Control_c, 0, 11, 22
2, 113712, Control_c, 0, 11, 21
2, 113714, Control_c, 0, 11, 20
2, 113716, Control_c, 0, 11, 19
2, 113719, Control_c, 0, 11, 18
2, 113721, Control_c, 0, 11, 17
2, 113723, Control_c, 0, 11, 16
2, 113725, Control_c, 0, 11, 15
2, 113728, Note_on_c, 0, 70, 0
2, 113728, Note_on_c, 0, 82, 0
2, 113728, Control_c, 0, 11, 14
2, 113730, Control_c, 0, 11, 13
2, 113732, Control_c, 0, 11, 12
2, 113735, Control_c, 0, 11, 11
2, 113737, Control_c, 0, 11, 10
2, 113739, Control_c, 0, 11, 9
2, 113741, Control_c, 0, 11, 8
2, 113744, Control_c, 0, 11, 7
2, 113746, Control_c, 0, 11, 6
2, 113748, Control_c, 0, 11, 5
2, 113750, Control_c, 0, 11, 4
2, 113753, Control_c, 0, 11, 3
2, 113755, Control_c, 0, 11, 2
2, 113757, Control_c, 0, 11, 1
2, 113760, Control_c, 0, 11, 0
2, 113760, End_track
3, 0, Start_track
3, 0, Title_t, "Ottavino"
3, 0, MIDI_port, 0
3, 52608, Note_on_c, 0, 83, 55
3, 52622, Note_on_c, 0, 83, 0
3, 52624, Note_on_c, 0, 85, 65
3, 52638, Note_on_c, 0, 85, 0
3, 52640, Note_on_c, 0, 87, 63
3, 52654, Note_on_c, 0, 87, 0
3, 52656, Note_on_c, 0, 89, 58
3, 52670, Note_on_c, 0, 89, 0
3, 52672, Note_on_c, 0, 90, 65
3, 52686, Note_on_c, 0, 90, 0
3, 52688, Note_on_c, 0, 92, 57
3, 52702, Note_on_c, 0, 92, 0
3, 52704, Note_on_c, 0, 94, 65
3, 52726, Note_on_c, 0, 94, 0
3, 52728, Note_on_c, 0, 92, 58
3, 52750, Note_on_c, 0, 92, 0
3, 52752, Note_on_c, 0, 90, 61
3, 52798, Note_on_c, 0, 90, 0
3, 52896, Note_on_c, 0, 83, 56
3, 52910, Note_on_c, 0, 83, 0
3, 52912, Note_on_c, 0, 85, 58
3, 52926, Note_on_c, 0, 85, 0
3, 52928, Note_on_c, 0, 87, 63
3, 52942, Note_on_c, 0, 87, 0
3, 52944, Note_on_c, 0, 89, 57
3, 52958, Note_on_c, 0, 89, 0
3, 52960, Note_on_c, 0, 90, 64
3, 52974, Note_on_c, 0, 90, 0
3, 52976, Note_on_c, 0, 92, 63
3, 52990, Note_on_c, 0, 92, 0
3, 52992, Note_on_c, 0, 94, 59
3, 53014, Note_on_c, 0, 94, 0
3, 53016, Note_on_c, 0, 92, 59
3, 53038, Note_on_c, 0, 92, 0
3, 53040, Note_on_c, 0, 90, 65
3, 53086, Note_on_c, 0, 90, 0
3, 53184, Note_on_c, 0, 83, 58
3, 53198, Note_on_c, 0, 83, 0
3, 53200, Note_on_c, 0, 85, 60
3, 53214, Note_on_c, 0, 85, 0
3, 53216, Note_on_c, 0, 87, 59
3, 53230, Note_on_c, 0, 87, 0
3, 53232, Note_on_c, 0, 89, 57
3, 53246, Note_on_c, 0, 89, 0
3, 53248, Note_on_c, 0, 90, 57
3, 53262, Note_on_c, 0, 90, 0
3, 53264, Note_on_c, 0, 92, 57
3, 53278, Note_on_c, 0, 92, 0
3, 53280, Note_on_c, 0, 94, 64
3, 53302, Note_on_c, 0, 94, 0
3, 53304, Note_on_c, 0, 92, 55
3, 53326, Note_on_c, 0, 92, 0
3, 53328, Note_on_c, 0, 90, 64
3, 53374, Note_on_c, 0, 90, 0
3, 53472, Note_on_c, 0, 83, 57
3, 53486, Note_on_c, 0, 83, 0
3, 53488, Note_on_c, 0, 85, 63
3, 53502, Note_on_c, 0, 85, 0
3, 53504, Note_on_c, 0, 87, 60
3, 53518, Note_on_c, 0, 87, 0
3, 53520, Note_on_c, 0, 89, 58
3, 53534, Note_on_c, 0, 89, 0
3, 53536, Note_on_c, 0, 90, 55
3, 53550, Note_on_c, 0, 90, 0
3, 53552, Note_on_c, 0, 92, 60
3, 53566, Note_on_c, 0, 92, 0
3, 53568, Note_on_c, 0, 94, 60
3, 53590, Note_on_c, 0, 94, 0
3, 53592, Note_on_c, 0, 92, 60
3, 53614, Note_on_c, 0, 92, 0
3, 53616, Note_on_c, 0, 90, 64
3, 53662, Note_on_c, 0, 90, 0
3, 71136, Note_on_c, 0, 91, 94
3, 71166, Note_on_c, 0, 91, 0
3, 71168, Note_on_c, 0, 88, 91
3, 71189, Note_on_c, 0, 88, 0
3, 71200, Note_on_c, 0, 88, 90
3, 71230, Note_on_c, 0, 88, 0
3, 71232, Note_on_c, 0, 91, 88
3, 71253, Note_on_c, 0, 91, 0
3, 71264, Note_on_c, 0, 91, 87
3, 71294, Note_on_c, 0, 91, 0
3, 71296, Note_on_c, 0, 88, 91
3, 71326, Note_on_c, 0, 88, 0
3, 71328, Note_on_c, 0, 88, 92
3, 71358, Note_on_c, 0, 88, 0
3, 71360, Note_on_c, 0, 91, 97
3, 71381, Note_on_c, 0, 91, 0
3, 71392, Note_on_c, 0, 91, 90
3, 71422, Note_on_c, 0, 91, 0
3, 71424, Note_on_c, 0, 88, 88
3, 71445, Note_on_c, 0, 88, 0
3, 71456, Note_on_c, 0, 88, 96
3, 71486, Note_on_c, 0, 88, 0
3, 71488, Note_on_c, 0, 91, 93
3, 71509, Note_on_c, 0, 91, 0
3, 71520, Note_on_c, 0, 91, 96
3, 71550, Note_on_c, 0, 91, 0
3, 71552, Note_on_c, 0, 88, 94
3, 71573, Note_on_c, 0, 88, 0
3, 71584, Note_on_c, 0, 88, 89
3, 71614, Note_on_c, 0, 88, 0
3, 71616, Note_on_c, 0, 91, 90
3, 71637, Note_on_c, 0, 91, 0
3, 71648, Note_on_c, 0, 91, 93
3, 71678, Note_on_c, 0, 91, 0
3, 71680, Note_on_c, 0, 88, 97
3, 71701, Note_on_c, 0, 88, 0
3, 71712, Note_on_c, 0, 88, 87
3, 71742, Note_on_c, 0, 88, 0
3, 71744, Note_on_c, 0, 91, 89
3, 71765, Note_on_c, 0, 91, 0
3, 71776, Note_on_c, 0, 91, 89
3, 71806, Note_on_c, 0, 91, 0
3, 71808, Note_on_c, 0, 88, 94
3, 71829, Note_on_c, 0, 88, 0
3, 71840, Note_on_c, 0, 88, 89
3, 71870, Note_on_c, 0, 88, 0
3, 71872, Note_on_c, 0, 91, 95
3, 71893, Note_on_c, 0, 91, 0
3, 78624, Note_on_c, 0, 96, 104
3, 78646, Note_on_c, 0, 96, 0
3, 78648, Note_on_c, 0, 98, 104
3, 78670, Note_on_c, 0, 98, 0
3, 78672, Note_on_c, 0, 96, 111
3, 78694, Note_on_c, 0, 96, 0
3, 78696, Note_on_c, 0, 98, 107
3, 78718, Note_on_c, 0, 98, 0
3, 78720, Note_on_c, 0, 96, 107
3, 78742, Note_on_c, 0, 96, 0
3, 78744, Note_on_c, 0, 98, 105
3, 78766, Note_on_c, 0, 98, 0
3, 78768, Note_on_c, 0, 96, 113
3, 78790, Note_on_c, 0, 96, 0
3, 78792, Note_on_c, 0, 98, 111
3, 78814, Note_on_c, 0, 98, 0
3, 78816, Note_on_c, 0, 96, 107
3, 78838, Note_on_c, 0, 96, 0
3, 78840, Note_on_c, 0, 98, 111
3, 78862, Note_on_c, 0, 98, 0
3, 78864, Note_on_c, 0, 96, 104
3, 78886, Note_on_c, 0, 96, 0
3, 78888, Note_on_c, 0, 98, 110
3, 78910, Note_on_c, 0, 98, 0
3, 78912, Note_on_c, 0, 96, 110
3, 78934, Note_on_c, 0, 96, 0
3, 78936, Note_on_c, 0, 98, 104
3, 78958, Note_on_c, 0, 98, 0
3, 78960, Note_on_c, 0, 96, 111
3, 78982, Note_on_c, 0, 96, 0
3, 78984, Note_on_c, 0, 98, 104
3, 79006, Note_on_c, 0, 98, 0
3, 79008, Note_on_c, 0, 96, 109
3, 79030, Note_on_c, 0, 96, 0
3, 79032, Note_on_c, 0, 98, 108
3, 79054, Note_on_c, 0, 98, 0
3, 79056, Note_on_c, 0, 96, 111
3, 79078, Note_on_c, 0, 96, 0
3, 79080, Note_on_c, 0, 98, 105
3, 79102, Note_on_c, 0, 98, 0
3, 79104, Note_on_c, 0, 96, 109
3, 79126, Note_on_c, 0, 96, 0
3, 79128, Note_on_c, 0, 98, 109
3, 79150, Note_on_c, 0, 98, 0
3, 79152, Note_on_c, 0, 96, 111
3, 79174, Note_on_c, 0, 96, 0
3, 79176, Note_on_c, 0, 98, 112
3, 79198, Note_on_c, 0, 98, 0
3, 79200, Note_on_c, 0, 96, 106
3, 79222, Note_on_c, 0, 96, 0
3, 79224, Note_on_c, 0, 98, 106
3, 79246, Note_on_c, 0, 98, 0
3, 79248, Note_on_c, 0, 96, 111
3, 79270, Note_on_c, 0, 96, 0
3, 79272, Note_on_c, 0, 98, 103
3, 79294, Note_on_c, 0, 98, 0
3, 79296, Note_on_c, 0, 96, 106
3, 79318, Note_on_c, 0, 96, 0
3, 79320, Note_on_c, 0, 98, 107
3, 79342, Note_on_c, 0, 98, 0
3, 79344, Note_on_c, 0, 96, 108
3, 79366, Note_on_c, 0, 96, 0
3, 79368, Note_on_c, 0, 98, 109
3, 79390, Note_on_c, 0, 98, 0
3, 79392, Note_on_c, 0, 96, 109
3, 79414, Note_on_c, 0, 96, 0
3, 79416, Note_on_c, 0, 98, 103
3, 79438, Note_on_c, 0, 98, 0
3, 79440, Note_on_c, 0, 96, 103
3, 79462, Note_on_c, 0, 96, 0
3, 79464, Note_on_c, 0, 98, 109
3, 79486, Note_on_c, 0, 98, 0
3, 79488, Note_on_c, 0, 96, 106
3, 79510, Note_on_c, 0, 96, 0
3, 79512, Note_on_c, 0, 98, 109
3, 79534, Note_on_c, 0, 98, 0
3, 79536, Note_on_c, 0, 96, 113
3, 79558, Note_on_c, 0, 96, 0
3, 79560, Note_on_c, 0, 98, 106
3, 79582, Note_on_c, 0, 98, 0
3, 79584, Note_on_c, 0, 96, 108
3, 79606, Note_on_c, 0, 96, 0
3, 79608, Note_on_c, 0, 98, 109
3, 79630, Note_on_c, 0, 98, 0
3, 79632, Note_on_c, 0, 96, 109
3, 79654, Note_on_c, 0, 96, 0
3, 79656, Note_on_c, 0, 98, 109
3, 79678, Note_on_c, 0, 98, 0
3, 79680, Note_on_c, 0, 96, 103
3, 79702, Note_on_c, 0, 96, 0
3, 79704, Note_on_c, 0, 98, 113
3, 79726, Note_on_c, 0, 98, 0
3, 79728, Note_on_c, 0, 96, 105
3, 79750, Note_on_c, 0, 96, 0
3, 79752, Note_on_c, 0, 98, 104
3, 79774, Note_on_c, 0, 98, 0
3, 79776, Note_on_c, 0, 96, 104
3, 79798, Note_on_c, 0, 96, 0
3, 79800, Note_on_c, 0, 98, 107
3, 79822, Note_on_c, 0, 98, 0
3, 79824, Note_on_c, 0, 96, 113
3, 79846, Note_on_c, 0, 96, 0
3, 79848, Note_on_c, 0, 98, 105
3, 79870, Note_on_c, 0, 98, 0
3, 79872, Note_on_c, 0, 96, 105
3, 79894, Note_on_c, 0, 96, 0
3, 79896, Note_on_c, 0, 98, 106
3, 79918, Note_on_c, 0, 98, 0
3, 79920, Note_on_c, 0, 96, 112
3, 79942, Note_on_c, 0, 96, 0
3, 79944, Note_on_c, 0, 98, 104
3, 79966, Note_on_c, 0, 98, 0
3, 79968, Note_on_c, 0, 96, 113
3, 79990, Note_on_c, 0, 96, 0
3, 79992, Note_on_c, 0, 98, 111
3, 80014, Note_on_c, 0, 98, 0
3, 80016, Note_on_c, 0, 96, 107
3, 80038, Note_on_c, 0, 96, 0
3, 80040, Note_on_c, 0, 98, 111
3, 80062, Note_on_c, 0, 98, 0
3, 80064, Note_on_c, 0, 96, 106
3, 80086, Note_on_c, 0, 96, 0
3, 80088, Note_on_c, 0, 98, 111
3, 80110, Note_on_c, 0, 98, 0
3, 80112, Note_on_c, 0, 96, 106
3, 80134, Note_on_c, 0, 96, 0
3, 80136, Note_on_c, 0, 98, 111
3, 80158, Note_on_c, 0, 98, 0
3, 80160, Note_on_c, 0, 96, 113
3, 80182, Note_on_c, 0, 96, 0
3, 80184, Note_on_c, 0, 98, 105
3, 80206, Note_on_c, 0, 98, 0
3, 80208, Note_on_c, 0, 96, 106
3, 80230, Note_on_c, 0, 96, 0
3, 80232, Note_on_c, 0, 98, 108
3, 80254, Note_on_c, 0, 98, 0
3, 80256, Note_on_c, 0, 96, 105
3, 80278, Note_on_c, 0, 96, 0
3, 80280, Note_on_c, 0, 98, 107
3, 80302, Note_on_c, 0, 98, 0
3, 80304, Note_on_c, 0, 96, 107
3, 80326, Note_on_c, 0, 96, 0
3, 80328, Note_on_c, 0, 98, 106
3, 80350, Note_on_c, 0, 98, 0
3, 80352, Note_on_c, 0, 96, 108
3, 80374, Note_on_c, 0, 96, 0
3, 80376, Note_on_c, 0, 98, 105
3, 80398, Note_on_c, 0, 98, 0
3, 80400, Note_on_c, 0, 96, 106
3, 80422, Note_on_c, 0, 96, 0
3, 80424, Note_on_c, 0, 98, 108
3, 80446, Note_on_c, 0, 98, 0
3, 80448, Note_on_c, 0, 96, 105
3, 80470, Note_on_c, 0, 96, 0
3, 80472, Note_on_c, 0, 98, 112
3, 80494, Note_on_c, 0, 98, 0
3, 80496, Note_on_c, 0, 96, 104
3, 80518, Note_on_c, 0, 96, 0
3, 80520, Note_on_c, 0, 98, 106
3, 80542, Note_on_c, 0, 98, 0
3, 80544, Note_on_c, 0, 96, 103
3, 80566, Note_on_c, 0, 96, 0
3, 80568, Note_on_c, 0, 98, 108
3, 80590, Note_on_c, 0, 98, 0
3, 80592, Note_on_c, 0, 96, 110
3, 80614, Note_on_c, 0, 96, 0
3, 80616, Note_on_c, 0, 98, 108
3, 80638, Note_on_c, 0, 98, 0
3, 80640, Note_on_c, 0, 96, 104
3, 80662, Note_on_c, 0, 96, 0
3, 80664, Note_on_c, 0, 98, 105
3, 80686, Note_on_c, 0, 98, 0
3, 80688, Note_on_c, 0, 96, 111
3, 80710, Note_on_c, 0, 96, 0
3, 80712, Note_on_c, 0, 98, 109
3, 80734, Note_on_c, 0, 98, 0
3, 80736, Note_on_c, 0, 96, 104
3, 80758, Note_on_c, 0, 96, 0
3, 80760, Note_on_c, 0, 98, 109
3, 80782, Note_on_c, 0, 98, 0
3, 80784, Note_on_c, 0, 96, 107
3, 80806, Note_on_c, 0, 96, 0
3, 80808, Note_on_c, 0, 98, 106
3, 80830, Note_on_c, 0, 98, 0
3, 80832, Note_on_c, 0, 96, 106
3, 80854, Note_on_c, 0, 96, 0
3, 80856, Note_on_c, 0, 98, 110
3, 80878, Note_on_c, 0, 98, 0
3, 80880, Note_on_c, 0, 96, 107
3, 80902, Note_on_c, 0, 96, 0
3, 80904, Note_on_c, 0, 98, 109
3, 80926, Note_on_c, 0, 98, 0
3, 80928, Note_on_c, 0, 96, 110
3, 81022, Note_on_c, 0, 96, 0
3, 86112, Note_on_c, 0, 82, 33
3, 88368, Note_on_c, 0, 82, 0
3, 88416, Control_c, 0, 11, 127
3, 88416, Note_on_c, 0, 82, 28
3, 88432, Control_c, 0, 11, 126
3, 88448, Control_c, 0, 11, 125
3, 88465, Control_c, 0, 11, 124
3, 88481, Control_c, 0, 11, 123
3, 88498, Control_c, 0, 11, 122
3, 88514, Control_c, 0, 11, 121
3, 88531, Control_c, 0, 11, 120
3, 88547, Control_c, 0, 11, 119
3, 88564, Control_c, 0, 11, 118
3, 88580, Control_c, 0, 11, 117
3, 88597, Control_c, 0, 11, 116
3, 88613, Control_c, 0, 11, 115
3, 88629, Control_c, 0, 11, 114
3, 88646, Control_c, 0, 11, 113
3, 88662, Control_c, 0, 11, 112
3, 88679, Control_c, 0, 11, 111
3, 88695, Control_c, 0, 11, 110
3, 88712, Control_c, 0, 11, 109
3, 88728, Control_c, 0, 11, 108
3, 88745, Control_c, 0, 11, 107
3, 88761, Control_c, 0, 11, 106
3, 88778, Control_c, 0, 11, 105
3, 88794, Control_c, 0, 11, 104
3, 88810, Control_c, 0, 11, 103
3, 88827, Control_c, 0, 11, 102
3, 88843, Control_c, 0, 11, 101
3, 88860, Control_c, 0, 11, 100
3, 88876, Control_c, 0, 11, 99
3, 88893, Control_c, 0, 11, 98
3, 88909, Control_c, 0, 11, 97
3, 88926, Control_c, 0, 11, 96
3, 88942, Control_c, 0, 11, 95
3, 88959, Control_c, 0, 11, 94
3, 88975, Control_c, 0, 11, 93
3, 88992, Control_c, 0, 11, 92
3, 89520, Note_on_c, 0, 82, 0
3, 112608, Note_on_c, 0, 94, 127
3, 112656, Note_on_c, 0, 94, 0
3, 112656, Note_on_c, 0, 92, 127
3, 112896, Note_on_c, 0, 92, 0
3, 112896, Note_on_c, 0, 94, 125
3, 112990, Note_on_c, 0, 94, 0
3, 112992, Note_on_c, 0, 97, 127
3, 113152, Note_on_c, 0, 97, 0
3, 113184, Note_on_c, 0, 96, 127
3, 113344, Note_on_c, 0, 96, 0
3, 113376, Note_on_c, 0, 92, 127
3, 113728, Note_on_c, 0, 92, 0
3, 113728, End_track
4, 0, Start_track
4, 0, Title_t, "Oboi I - II"
4, 0, MIDI_port, 0
4, 78, Control_c, 1, 0, 0
4, 79, Control_c, 1, 32, 0
4, 80, Program_c, 1, 68
4, 81, Control_c, 1, 7, 127
4, 82, Control_c, 1, 10, 54
4, 83, Control_c, 1, 91, 64
4, 8064, Control_c, 1, 11, 92
4, 8448, Note_on_c, 1, 68, 58
4, 8496, Note_on_c, 1, 68, 0
4, 8496, Note_on_c, 1, 69, 56
4, 8832, Control_c, 1, 11, 92
4, 8870, Control_c, 1, 11, 93
4, 8908, Control_c, 1, 11, 94
4, 8947, Control_c, 1, 11, 95
4, 8985, Control_c, 1, 11, 96
4, 9024, Control_c, 1, 11, 97
4, 9062, Control_c, 1, 11, 98
4, 9100, Control_c, 1, 11, 99
4, 9139, Control_c, 1, 11, 100
4, 9177, Control_c, 1, 11, 101
4, 9216, Note_on_c, 1, 69, 0
4, 9216, Control_c, 1, 11, 102
4, 9216, Note_on_c, 1, 68, 64
4, 9254, Control_c, 1, 11, 103
4, 9292, Control_c, 1, 11, 104
4, 9331, Control_c, 1, 11, 105
4, 9369, Control_c, 1, 11, 106
4, 9408, Control_c, 1, 11, 107
4, 9446, Control_c, 1, 11, 108
4, 9484, Control_c, 1, 11, 109
4, 9523, Control_c, 1, 11, 110
4, 9561, Control_c, 1, 11, 111
4, 9600, Note_on_c, 1, 68, 0
4, 9600, Control_c, 1, 11, 112
4, 9600, Note_on_c, 1, 68, 65
4, 9638, Control_c, 1, 11, 113
4, 9648, Note_on_c, 1, 68, 0
4, 9648, Note_on_c, 1, 66, 62
4, 9676, Control_c, 1, 11, 114
4, 9715, Control_c, 1, 11, 115
4, 9753, Control_c, 1, 11, 116
4, 9792, Control_c, 1, 11, 117
4, 9830, Control_c, 1, 11, 118
4, 9868, Control_c, 1, 11, 119
4, 9907, Control_c, 1, 11, 120
4, 9945, Control_c, 1, 11, 121
4, 9984, Control_c, 1, 11, 122
4, 10022, Control_c, 1, 11, 123
4, 10060, Control_c, 1, 11, 124
4, 10099, Control_c, 1, 11, 125
4, 10137, Control_c, 1, 11, 126
4, 10176, Control_c, 1, 11, 127
4, 10203, Control_c, 1, 11, 126
4, 10230, Control_c, 1, 11, 125
4, 10258, Control_c, 1, 11, 124
4, 10285, Control_c, 1, 11, 123
4, 10313, Control_c, 1, 11, 122
4, 10340, Control_c, 1, 11, 121
4, 10368, Control_c, 1, 11, 120
4, 10395, Control_c, 1, 11, 119
4, 10422, Control_c, 1, 11, 118
4, 10450, Control_c, 1, 11, 117
4, 10477, Control_c, 1, 11, 116
4, 10505, Control_c, 1, 11, 115
4, 10528, Note_on_c, 1, 66, 0
4, 10532, Control_c, 1, 11, 114
4, 10560, Control_c, 1, 11, 113
4, 10587, Control_c, 1, 11, 112
4, 10614, Control_c, 1, 11, 111
4, 10642, Control_c, 1, 11, 110
4, 10669, Control_c, 1, 11, 109
4, 10697, Control_c, 1, 11, 108
4, 10724, Control_c, 1, 11, 107
4, 10752, Control_c, 1, 11, 106
4, 10752, Control_c, 1, 11, 127
4, 10779, Control_c, 1, 11, 105
4, 10806, Control_c, 1, 11, 104
4, 10834, Control_c, 1, 11, 103
4, 10861, Control_c, 1, 11, 102
4, 10889, Control_c, 1, 11, 101
4, 10916, Control_c, 1, 11, 100
4, 10944, Control_c, 1, 11, 99
4, 10971, Control_c, 1, 11, 98
4, 10998, Control_c, 1, 11, 97
4, 11026, Control_c, 1, 11, 96
4, 11053, Control_c, 1, 11, 95
4, 11081, Control_c, 1, 11, 94
4, 11108, Control_c, 1, 11, 93
4, 11136, Control_c, 1, 11, 92
4, 16896, Control_c, 1, 11, 92
4, 16896, Note_on_c, 1, 68, 43
4, 16906, Control_c, 1, 11, 93
4, 16917, Control_c, 1, 11, 94
4, 16928, Control_c, 1, 11, 95
4, 16939, Control_c, 1, 11, 96
4, 16942, Note_on_c, 1, 68, 0
4, 16944, Note_on_c, 1, 69, 50
4, 16950, Control_c, 1, 11, 97
4, 16961, Control_c, 1, 11, 98
4, 16972, Control_c, 1, 11, 99
4, 16983, Control_c, 1, 11, 100
4, 16994, Control_c, 1, 11, 101
4, 17005, Control_c, 1, 11, 102
4, 17016, Control_c, 1, 11, 103
4, 17027, Control_c, 1, 11, 104
4, 17038, Control_c, 1, 11, 105
4, 17049, Control_c, 1, 11, 106
4, 17060, Control_c, 1, 11, 107
4, 17071, Control_c, 1, 11, 108
4, 17082, Control_c, 1, 11, 109
4, 17093, Control_c, 1, 11, 110
4, 17104, Control_c, 1, 11, 111
4, 17115, Control_c, 1, 11, 112
4, 17126, Control_c, 1, 11, 113
4, 17137, Control_c, 1, 11, 114
4, 17148, Control_c, 1, 11, 115
4, 17159, Control_c, 1, 11, 116
4, 17170, Control_c, 1, 11, 117
4, 17181, Control_c, 1, 11, 118
4, 17192, Control_c, 1, 11, 119
4, 17203, Control_c, 1, 11, 120
4, 17214, Control_c, 1, 11, 121
4, 17225, Control_c, 1, 11, 122
4, 17236, Control_c, 1, 11, 123
4, 17247, Control_c, 1, 11, 124
4, 17248, Note_on_c, 1, 69, 0
4, 17258, Control_c, 1, 11, 125
4, 17269, Control_c, 1, 11, 126
4, 17280, Control_c, 1, 11, 127
4, 17280, Note_on_c, 1, 68, 42
4, 17285, Control_c, 1, 11, 126
4, 17290, Control_c, 1, 11, 125
4, 17296, Control_c, 1, 11, 124
4, 17301, Control_c, 1, 11, 123
4, 17307, Control_c, 1, 11, 122
4, 17312, Control_c, 1, 11, 121
4, 17318, Control_c, 1, 11, 120
4, 17323, Control_c, 1, 11, 119
4, 17326, Note_on_c, 1, 68, 0
4, 17328, Note_on_c, 1, 66, 46
4, 17329, Control_c, 1, 11, 118
4, 17334, Control_c, 1, 11, 117
4, 17340, Control_c, 1, 11, 116
4, 17345, Control_c, 1, 11, 115
4, 17351, Control_c, 1, 11, 114
4, 17356, Control_c, 1, 11, 113
4, 17362, Control_c, 1, 11, 112
4, 17367, Control_c, 1, 11, 111
4, 17373, Control_c, 1, 11, 110
4, 17378, Control_c, 1, 11, 109
4, 17384, Control_c, 1, 11, 108
4, 17389, Control_c, 1, 11, 107
4, 17395, Control_c, 1, 11, 106
4, 17400, Control_c, 1, 11, 105
4, 17406, Control_c, 1, 11, 104
4, 17411, Control_c, 1, 11, 103
4, 17417, Control_c, 1, 11, 102
4, 17422, Control_c, 1, 11, 101
4, 17428, Control_c, 1, 11, 100
4, 17433, Control_c, 1, 11, 99
4, 17439, Control_c, 1, 11, 98
4, 17444, Control_c, 1, 11, 97
4, 17450, Control_c, 1, 11, 96
4, 17455, Control_c, 1, 11, 95
4, 17461, Control_c, 1, 11, 94
4, 17466, Control_c, 1, 11, 93
4, 17472, Control_c, 1, 11, 92
4, 17480, Control_c, 1, 11, 91
4, 17488, Control_c, 1, 11, 90
4, 17496, Control_c, 1, 11, 89
4, 17504, Control_c, 1, 11, 88
4, 17512, Control_c, 1, 11, 87
4, 17521, Control_c, 1, 11, 86
4, 17529, Control_c, 1, 11, 85
4, 17537, Control_c, 1, 11, 84
4, 17545, Control_c, 1, 11, 83
4, 17553, Control_c, 1, 11, 82
4, 17561, Control_c, 1, 11, 81
4, 17570, Control_c, 1, 11, 80
4, 17578, Control_c, 1, 11, 79
4, 17586, Control_c, 1, 11, 78
4, 17594, Control_c, 1, 11, 77
4, 17602, Control_c, 1, 11, 76
4, 17610, Control_c, 1, 11, 75
4, 17619, Control_c, 1, 11, 74
4, 17627, Control_c, 1, 11, 73
4, 17635, Control_c, 1, 11, 72
4, 17643, Control_c, 1, 11, 71
4, 17651, Control_c, 1, 11, 70
4, 17659, Control_c, 1, 11, 69
4, 17668, Control_c, 1, 11, 68
4, 17676, Control_c, 1, 11, 67
4, 17684, Control_c, 1, 11, 66
4, 17692, Control_c, 1, 11, 65
4, 17700, Control_c, 1, 11, 64
4, 17708, Control_c, 1, 11, 63
4, 17717, Control_c, 1, 11, 62
4, 17725, Control_c, 1, 11, 61
4, 17733, Control_c, 1, 11, 60
4, 17741, Control_c, 1, 11, 59
4, 17749, Control_c, 1, 11, 58
4, 17757, Control_c, 1, 11, 57
4, 17766, Control_c, 1, 11, 56
4, 17774, Control_c, 1, 11, 55
4, 17782, Control_c, 1, 11, 54
4, 17790, Control_c, 1, 11, 53
4, 17798, Control_c, 1, 11, 52
4, 17806, Control_c, 1, 11, 51
4, 17815, Control_c, 1, 11, 50
4, 17823, Control_c, 1, 11, 49
4, 17831, Control_c, 1, 11, 48
4, 17839, Control_c, 1, 11, 47
4, 17847, Control_c, 1, 11, 46
4, 17856, Control_c, 1, 11, 45
4, 18208, Note_on_c, 1, 66, 0
4, 19008, Control_c, 1, 11, 127
4, 19008, Note_on_c, 1, 68, 26
4, 19013, Control_c, 1, 11, 126
4, 19018, Control_c, 1, 11, 125
4, 19024, Control_c, 1, 11, 124
4, 19029, Control_c, 1, 11, 123
4, 19035, Control_c, 1, 11, 122
4, 19040, Control_c, 1, 11, 121
4, 19046, Control_c, 1, 11, 120
4, 19051, Control_c, 1, 11, 119
4, 19054, Note_on_c, 1, 68, 0
4, 19056, Note_on_c, 1, 66, 34
4, 19057, Control_c, 1, 11, 118
4, 19062, Control_c, 1, 11, 117
4, 19068, Control_c, 1, 11, 116
4, 19073, Control_c, 1, 11, 115
4, 19079, Control_c, 1, 11, 114
4, 19084, Control_c, 1, 11, 113
4, 19090, Control_c, 1, 11, 112
4, 19095, Control_c, 1, 11, 111
4, 19101, Control_c, 1, 11, 110
4, 19106, Control_c, 1, 11, 109
4, 19112, Control_c, 1, 11, 108
4, 19117, Control_c, 1, 11, 107
4, 19123, Control_c, 1, 11, 106
4, 19128, Control_c, 1, 11, 105
4, 19134, Control_c, 1, 11, 104
4, 19139, Control_c, 1, 11, 103
4, 19145, Control_c, 1, 11, 102
4, 19150, Control_c, 1, 11, 101
4, 19156, Control_c, 1, 11, 100
4, 19161, Control_c, 1, 11, 99
4, 19167, Control_c, 1, 11, 98
4, 19172, Control_c, 1, 11, 97
4, 19178, Control_c, 1, 11, 96
4, 19183, Control_c, 1, 11, 95
4, 19189, Control_c, 1, 11, 94
4, 19194, Control_c, 1, 11, 93
4, 19200, Control_c, 1, 11, 92
4, 19294, Note_on_c, 1, 66, 0
4, 36096, Control_c, 1, 11, 75
4, 36096, Note_on_c, 1, 75, 78
4, 36096, Note_on_c, 1, 82, 80
4, 36107, Control_c, 1, 11, 76
4, 36118, Control_c, 1, 11, 77
4, 36126, Note_on_c, 1, 75, 0
4, 36126, Note_on_c, 1, 82, 0
4, 36128, Note_on_c, 1, 73, 70
4, 36128, Note_on_c, 1, 80, 72
4, 36129, Control_c, 1, 11, 78
4, 36140, Control_c, 1, 11, 79
4, 36151, Control_c, 1, 11, 80
4, 36158, Note_on_c, 1, 73, 0
4, 36158, Note_on_c, 1, 80, 0
4, 36160, Note_on_c, 1, 70, 77
4, 36160, Note_on_c, 1, 77, 75
4, 36162, Control_c, 1, 11, 81
4, 36173, Control_c, 1, 11, 82
4, 36184, Control_c, 1, 11, 83
4, 36190, Note_on_c, 1, 70, 0
4, 36190, Note_on_c, 1, 77, 0
4, 36192, Note_on_c, 1, 68, 70
4, 36192, Note_on_c, 1, 75, 78
4, 36195, Control_c, 1, 11, 84
4, 36206, Control_c, 1, 11, 85
4, 36217, Control_c, 1, 11, 86
4, 36228, Control_c, 1, 11, 87
4, 36240, Control_c, 1, 11, 88
4, 36251, Control_c, 1, 11, 89
4, 36262, Control_c, 1, 11, 90
4, 36273, Control_c, 1, 11, 91
4, 36284, Control_c, 1, 11, 92
4, 36295, Control_c, 1, 11, 93
4, 36306, Control_c, 1, 11, 94
4, 36317, Control_c, 1, 11, 95
4, 36318, Note_on_c, 1, 68, 0
4, 36318, Note_on_c, 1, 75, 0
4, 36320, Note_on_c, 1, 70, 71
4, 36320, Note_on_c, 1, 77, 72
4, 36328, Control_c, 1, 11, 96
4, 36339, Control_c, 1, 11, 97
4, 36350, Note_on_c, 1, 70, 0
4, 36350, Note_on_c, 1, 77, 0
4, 36350, Control_c, 1, 11, 98
4, 36352, Note_on_c, 1, 73, 76
4, 36352, Note_on_c, 1, 80, 72
4, 36361, Control_c, 1, 11, 99
4, 36372, Control_c, 1, 11, 100
4, 36382, Note_on_c, 1, 73, 0
4, 36382, Note_on_c, 1, 80, 0
4, 36384, Control_c, 1, 11, 101
4, 36384, Note_on_c, 1, 75, 80
4, 36384, Note_on_c, 1, 82, 75
4, 36395, Control_c, 1, 11, 102
4, 36406, Control_c, 1, 11, 103
4, 36414, Note_on_c, 1, 75, 0
4, 36414, Note_on_c, 1, 82, 0
4, 36416, Note_on_c, 1, 73, 74
4, 36416, Note_on_c, 1, 80, 70
4, 36417, Control_c, 1, 11, 104
4, 36428, Control_c, 1, 11, 105
4, 36439, Control_c, 1, 11, 106
4, 36446, Note_on_c, 1, 73, 0
4, 36446, Note_on_c, 1, 80, 0
4, 36448, Note_on_c, 1, 70, 70
4, 36448, Note_on_c, 1, 77, 72
4, 36450, Control_c, 1, 11, 107
4, 36461, Control_c, 1, 11, 108
4, 36472, Control_c, 1, 11, 109
4, 36478, Note_on_c, 1, 70, 0
4, 36478, Note_on_c, 1, 77, 0
4, 36480, Note_on_c, 1, 73, 78
4, 36480, Note_on_c, 1, 80, 72
4, 36483, Control_c, 1, 11, 110
4, 36494, Control_c, 1, 11, 111
4, 36505, Control_c, 1, 11, 112
4, 36516, Control_c, 1, 11, 113
4, 36528, Control_c, 1, 11, 114
4, 36539, Control_c, 1, 11, 115
4, 36550, Control_c, 1, 11, 116
4, 36561, Control_c, 1, 11, 117
4, 36572, Control_c, 1, 11, 118
4, 36574, Note_on_c, 1, 73, 0
4, 36574, Note_on_c, 1, 80, 0
4, 36576, Note_on_c, 1, 75, 77
4, 36576, Note_on_c, 1, 82, 80
4, 36583, Control_c, 1, 11, 119
4, 36594, Control_c, 1, 11, 120
4, 36605, Control_c, 1, 11, 121
4, 36616, Control_c, 1, 11, 122
4, 36627, Control_c, 1, 11, 123
4, 36638, Control_c, 1, 11, 124
4, 36649, Control_c, 1, 11, 125
4, 36660, Control_c, 1, 11, 126
4, 36672, Control_c, 1, 11, 127
4, 36676, Control_c, 1, 11, 126
4, 36681, Control_c, 1, 11, 125
4, 36685, Control_c, 1, 11, 124
4, 36690, Control_c, 1, 11, 123
4, 36694, Control_c, 1, 11, 122
4, 36699, Control_c, 1, 11, 121
4, 36704, Control_c, 1, 11, 120
4, 36708, Control_c, 1, 11, 119
4, 36713, Control_c, 1, 11, 118
4, 36717, Control_c, 1, 11, 117
4, 36722, Control_c, 1, 11, 116
4, 36726, Control_c, 1, 11, 115
4, 36731, Control_c, 1, 11, 114
4, 36736, Control_c, 1, 11, 113
4, 36740, Control_c, 1, 11, 112
4, 36745, Control_c, 1, 11, 111
4, 36749, Control_c, 1, 11, 110
4, 36754, Control_c, 1, 11, 109
4, 36758, Control_c, 1, 11, 108
4, 36763, Control_c, 1, 11, 107
4, 36766, Note_on_c, 1, 75, 0
4, 36766, Note_on_c, 1, 82, 0
4, 36768, Control_c, 1, 11, 106
4, 36768, Note_on_c, 1, 73, 77
4, 36768, Note_on_c, 1, 80, 74
4, 36772, Control_c, 1, 11, 105
4, 36777, Control_c, 1, 11, 104
4, 36781, Control_c, 1, 11, 103
4, 36786, Control_c, 1, 11, 102
4, 36790, Control_c, 1, 11, 101
4, 36795, Control_c, 1, 11, 100
4, 36800, Control_c, 1, 11, 99
4, 36804, Control_c, 1, 11, 98
4, 36809, Control_c, 1, 11, 97
4, 36813, Control_c, 1, 11, 96
4, 36818, Control_c, 1, 11, 95
4, 36822, Control_c, 1, 11, 94
4, 36827, Control_c, 1, 11, 93
4, 36832, Control_c, 1, 11, 92
4, 36836, Control_c, 1, 11, 91
4, 36841, Control_c, 1, 11, 90
4, 36845, Control_c, 1, 11, 89
4, 36850, Control_c, 1, 11, 88
4, 36854, Control_c, 1, 11, 87
4, 36859, Control_c, 1, 11, 86
4, 36862, Note_on_c, 1, 73, 0
4, 36862, Note_on_c, 1, 80, 0
4, 36864, Control_c, 1, 11, 85
4, 36864, Note_on_c, 1, 68, 75
4, 36864, Note_on_c, 1, 75, 76
4, 36868, Control_c, 1, 11, 84
4, 36873, Control_c, 1, 11, 83
4, 36877, Control_c, 1, 11, 82
4, 36882, Control_c, 1, 11, 81
4, 36886, Control_c, 1, 11, 80
4, 36891, Control_c, 1, 11, 79
4, 36896, Control_c, 1, 11, 78
4, 36900, Control_c, 1, 11, 77
4, 36905, Control_c, 1, 11, 76
4, 36909, Control_c, 1, 11, 75
4, 36914, Control_c, 1, 11, 74
4, 36918, Control_c, 1, 11, 73
4, 36923, Control_c, 1, 11, 72
4, 36928, Control_c, 1, 11, 71
4, 36932, Control_c, 1, 11, 70
4, 36937, Control_c, 1, 11, 69
4, 36941, Control_c, 1, 11, 68
4, 36946, Control_c, 1, 11, 67
4, 36950, Control_c, 1, 11, 66
4, 36955, Control_c, 1, 11, 65
4, 36958, Note_on_c, 1, 68, 0
4, 36958, Note_on_c, 1, 75, 0
4, 36960, Control_c, 1, 11, 64
4, 37248, Control_c, 1, 11, 75
4, 37248, Note_on_c, 1, 70, 71
4, 37270, Control_c, 1, 11, 76
4, 37292, Control_c, 1, 11, 77
4, 37314, Control_c, 1, 11, 78
4, 37336, Control_c, 1, 11, 79
4, 37358, Control_c, 1, 11, 80
4, 37380, Control_c, 1, 11, 81
4, 37403, Control_c, 1, 11, 82
4, 37425, Control_c, 1, 11, 83
4, 37440, Note_on_c, 1, 70, 0
4, 37440, Note_on_c, 1, 68, 76
4, 37447, Control_c, 1, 11, 84
4, 37469, Control_c, 1, 11, 85
4, 37491, Control_c, 1, 11, 86
4, 37513, Control_c, 1, 11, 87
4, 37536, Control_c, 1, 11, 88
4, 37558, Control_c, 1, 11, 89
4, 37580, Control_c, 1, 11, 90
4, 37602, Control_c, 1, 11, 91
4, 37624, Control_c, 1, 11, 92
4, 37632, Note_on_c, 1, 68, 0
4, 37632, Note_on_c, 1, 71, 79
4, 37646, Control_c, 1, 11, 93
4, 37668, Control_c, 1, 11, 94
4, 37691, Control_c, 1, 11, 95
4, 37713, Control_c, 1, 11, 96
4, 37728, Note_on_c, 1, 71, 0
4, 37728, Note_on_c, 1, 73, 77
4, 37735, Control_c, 1, 11, 97
4, 37757, Control_c, 1, 11, 98
4, 37779, Control_c, 1, 11, 99
4, 37801, Control_c, 1, 11, 100
4, 37824, Note_on_c, 1, 73, 0
4, 37824, Control_c, 1, 11, 101
4, 37824, Note_on_c, 1, 70, 79
4, 37846, Control_c, 1, 11, 102
4, 37868, Control_c, 1, 11, 103
4, 37890, Control_c, 1, 11, 104
4, 37912, Control_c, 1, 11, 105
4, 37934, Control_c, 1, 11, 106
4, 37956, Control_c, 1, 11, 107
4, 37979, Control_c, 1, 11, 108
4, 38001, Control_c, 1, 11, 109
4, 38023, Control_c, 1, 11, 110
4, 38045, Control_c, 1, 11, 111
4, 38067, Control_c, 1, 11, 112
4, 38089, Control_c, 1, 11, 113
4, 38112, Control_c, 1, 11, 114
4, 38134, Control_c, 1, 11, 115
4, 38156, Control_c, 1, 11, 116
4, 38178, Control_c, 1, 11, 117
4, 38200, Control_c, 1, 11, 118
4, 38222, Control_c, 1, 11, 119
4, 38244, Control_c, 1, 11, 120
4, 38267, Control_c, 1, 11, 121
4, 38289, Control_c, 1, 11, 122
4, 38311, Control_c, 1, 11, 123
4, 38333, Control_c, 1, 11, 124
4, 38352, Note_on_c, 1, 70, 0
4, 38355, Control_c, 1, 11, 125
4, 38377, Control_c, 1, 11, 126
4, 38400, Control_c, 1, 11, 127
4, 38400, Control_c, 1, 11, 92
4, 38400, Note_on_c, 1, 70, 57
4, 38592, Note_on_c, 1, 70, 0
4, 38592, Note_on_c, 1, 68, 60
4, 38688, Control_c, 1, 11, 92
4, 38696, Control_c, 1, 11, 93
4, 38704, Control_c, 1, 11, 94
4, 38712, Control_c, 1, 11, 95
4, 38720, Control_c, 1, 11, 96
4, 38729, Control_c, 1, 11, 97
4, 38737, Control_c, 1, 11, 98
4, 38745, Control_c, 1, 11, 99
4, 38753, Control_c, 1, 11, 100
4, 38762, Control_c, 1, 11, 101
4, 38770, Control_c, 1, 11, 102
4, 38778, Control_c, 1, 11, 103
4, 38784, Note_on_c, 1, 68, 0
4, 38784, Note_on_c, 1, 71, 61
4, 38786, Control_c, 1, 11, 104
4, 38794, Control_c, 1, 11, 105
4, 38803, Control_c, 1, 11, 106
4, 38811, Control_c, 1, 11, 107
4, 38819, Control_c, 1, 11, 108
4, 38827, Control_c, 1, 11, 109
4, 38836, Control_c, 1, 11, 110
4, 38844, Control_c, 1, 11, 111
4, 38852, Control_c, 1, 11, 112
4, 38860, Control_c, 1, 11, 113
4, 38869, Control_c, 1, 11, 114
4, 38877, Control_c, 1, 11, 115
4, 38880, Note_on_c, 1, 71, 0
4, 38880, Note_on_c, 1, 73, 63
4, 38885, Control_c, 1, 11, 116
4, 38893, Control_c, 1, 11, 117
4, 38901, Control_c, 1, 11, 118
4, 38910, Control_c, 1, 11, 119
4, 38918, Control_c, 1, 11, 120
4, 38926, Control_c, 1, 11, 121
4, 38934, Control_c, 1, 11, 122
4, 38943, Control_c, 1, 11, 123
4, 38951, Control_c, 1, 11, 124
4, 38959, Control_c, 1, 11, 125
4, 38967, Control_c, 1, 11, 126
4, 38974, Note_on_c, 1, 73, 0
4, 38976, Control_c, 1, 11, 127
4, 38976, Control_c, 1, 11, 92
4, 38976, Note_on_c, 1, 75, 57
4, 38984, Control_c, 1, 11, 93
4, 38992, Control_c, 1, 11, 94
4, 39000, Control_c, 1, 11, 95
4, 39008, Control_c, 1, 11, 96
4, 39017, Control_c, 1, 11, 97
4, 39025, Control_c, 1, 11, 98
4, 39033, Control_c, 1, 11, 99
4, 39041, Control_c, 1, 11, 100
4, 39050, Control_c, 1, 11, 101
4, 39058, Control_c, 1, 11, 102
4, 39066, Control_c, 1, 11, 103
4, 39074, Control_c, 1, 11, 104
4, 39082, Control_c, 1, 11, 105
4, 39091, Control_c, 1, 11, 106
4, 39099, Control_c, 1, 11, 107
4, 39107, Control_c, 1, 11, 108
4, 39115, Control_c, 1, 11, 109
4, 39124, Control_c, 1, 11, 110
4, 39132, Control_c, 1, 11, 111
4, 39140, Control_c, 1, 11, 112
4, 39148, Control_c, 1, 11, 113
4, 39157, Control_c, 1, 11, 114
4, 39165, Control_c, 1, 11, 115
4, 39168, Note_on_c, 1, 75, 0
4, 39168, Note_on_c, 1, 78, 57
4, 39173, Control_c, 1, 11, 116
4, 39181, Control_c, 1, 11, 117
4, 39189, Control_c, 1, 11, 118
4, 39198, Control_c, 1, 11, 119
4, 39206, Control_c, 1, 11, 120
4, 39214, Control_c, 1, 11, 121
4, 39222, Control_c, 1, 11, 122
4, 39231, Control_c, 1, 11, 123
4, 39239, Control_c, 1, 11, 124
4, 39247, Control_c, 1, 11, 125
4, 39255, Control_c, 1, 11, 126
4, 39262, Note_on_c, 1, 78, 0
4, 39264, Control_c, 1, 11, 127
4, 39264, Control_c, 1, 11, 92
4, 39264, Note_on_c, 1, 75, 58
4, 39272, Control_c, 1, 11, 93
4, 39280, Control_c, 1, 11, 94
4, 39288, Control_c, 1, 11, 95
4, 39296, Control_c, 1, 11, 96
4, 39305, Control_c, 1, 11, 97
4, 39313, Control_c, 1, 11, 98
4, 39321, Control_c, 1, 11, 99
4, 39329, Control_c, 1, 11, 100
4, 39338, Control_c, 1, 11, 101
4, 39346, Control_c, 1, 11, 102
4, 39354, Control_c, 1, 11, 103
4, 39362, Control_c, 1, 11, 104
4, 39370, Control_c, 1, 11, 105
4, 39379, Control_c, 1, 11, 106
4, 39387, Control_c, 1, 11, 107
4, 39395, Control_c, 1, 11, 108
4, 39403, Control_c, 1, 11, 109
4, 39412, Control_c, 1, 11, 110
4, 39420, Control_c, 1, 11, 111
4, 39428, Control_c, 1, 11, 112
4, 39436, Control_c, 1, 11, 113
4, 39445, Control_c, 1, 11, 114
4, 39453, Control_c, 1, 11, 115
4, 39456, Note_on_c, 1, 75, 0
4, 39456, Note_on_c, 1, 78, 61
4, 39461, Control_c, 1, 11, 116
4, 39469, Control_c, 1, 11, 117
4, 39477, Control_c, 1, 11, 118
4, 39486, Control_c, 1, 11, 119
4, 39494, Control_c, 1, 11, 120
4, 39502, Control_c, 1, 11, 121
4, 39510, Control_c, 1, 11, 122
4, 39519, Control_c, 1, 11, 123
4, 39527, Control_c, 1, 11, 124
4, 39535, Control_c, 1, 11, 125
4, 39543, Control_c, 1, 11, 126
4, 39550, Note_on_c, 1, 78, 0
4, 39552, Control_c, 1, 11, 127
4, 39552, Note_on_c, 1, 68, 26
4, 40656, Note_on_c, 1, 68, 0
4, 40704, Note_on_c, 1, 68, 43
4, 41232, Note_on_c, 1, 68, 0
4, 41280, Control_c, 1, 11, 64
4, 41280, Note_on_c, 1, 71, 77
4, 41289, Control_c, 1, 11, 65
4, 41298, Control_c, 1, 11, 66
4, 41307, Control_c, 1, 11, 67
4, 41316, Control_c, 1, 11, 68
4, 41325, Control_c, 1, 11, 69
4, 41334, Control_c, 1, 11, 70
4, 41344, Control_c, 1, 11, 71
4, 41353, Control_c, 1, 11, 72
4, 41362, Control_c, 1, 11, 73
4, 41371, Control_c, 1, 11, 74
4, 41376, Note_on_c, 1, 81, 70
4, 41380, Control_c, 1, 11, 75
4, 41389, Control_c, 1, 11, 76
4, 41398, Control_c, 1, 11, 77
4, 41408, Control_c, 1, 11, 78
4, 41417, Control_c, 1, 11, 79
4, 41426, Control_c, 1, 11, 80
4, 41435, Control_c, 1, 11, 81
4, 41444, Control_c, 1, 11, 82
4, 41453, Control_c, 1, 11, 83
4, 41462, Control_c, 1, 11, 84
4, 41470, Note_on_c, 1, 81, 0
4, 41472, Control_c, 1, 11, 85
4, 41472, Note_on_c, 1, 80, 75
4, 41481, Control_c, 1, 11, 86
4, 41490, Control_c, 1, 11, 87
4, 41499, Control_c, 1, 11, 88
4, 41508, Control_c, 1, 11, 89
4, 41517, Control_c, 1, 11, 90
4, 41526, Control_c, 1, 11, 91
4, 41536, Control_c, 1, 11, 92
4, 41545, Control_c, 1, 11, 93
4, 41554, Control_c, 1, 11, 94
4, 41563, Control_c, 1, 11, 95
4, 41566, Note_on_c, 1, 80, 0
4, 41572, Control_c, 1, 11, 96
4, 41581, Control_c, 1, 11, 97
4, 41590, Control_c, 1, 11, 98
4, 41600, Control_c, 1, 11, 99
4, 41609, Control_c, 1, 11, 100
4, 41616, Note_on_c, 1, 71, 0
4, 41618, Control_c, 1, 11, 101
4, 41627, Control_c, 1, 11, 102
4, 41636, Control_c, 1, 11, 103
4, 41645, Control_c, 1, 11, 104
4, 41654, Control_c, 1, 11, 105
4, 41664, Control_c, 1, 11, 106
4, 41664, Note_on_c, 1, 79, 72
4, 41673, Control_c, 1, 11, 107
4, 41682, Control_c, 1, 11, 108
4, 41691, Control_c, 1, 11, 109
4, 41700, Control_c, 1, 11, 110
4, 41709, Control_c, 1, 11, 111
4, 41718, Control_c, 1, 11, 112
4, 41728, Control_c, 1, 11, 113
4, 41737, Control_c, 1, 11, 114
4, 41746, Control_c, 1, 11, 115
4, 41755, Control_c, 1, 11, 116
4, 41758, Note_on_c, 1, 79, 0
4, 41760, Note_on_c, 1, 78, 75
4, 41764, Control_c, 1, 11, 117
4, 41773, Control_c, 1, 11, 118
4, 41782, Control_c, 1, 11, 119
4, 41792, Control_c, 1, 11, 120
4, 41801, Control_c, 1, 11, 121
4, 41810, Control_c, 1, 11, 122
4, 41819, Control_c, 1, 11, 123
4, 41828, Control_c, 1, 11, 124
4, 41837, Control_c, 1, 11, 125
4, 41846, Control_c, 1, 11, 126
4, 41854, Note_on_c, 1, 78, 0
4, 41856, Control_c, 1, 11, 127
4, 41856, Control_c, 1, 11, 92
4, 41856, Note_on_c, 1, 71, 80
4, 41856, Note_on_c, 1, 77, 70
4, 41864, Control_c, 1, 11, 93
4, 41872, Control_c, 1, 11, 94
4, 41880, Control_c, 1, 11, 95
4, 41888, Control_c, 1, 11, 96
4, 41897, Control_c, 1, 11, 97
4, 41905, Control_c, 1, 11, 98
4, 41913, Control_c, 1, 11, 99
4, 41921, Control_c, 1, 11, 100
4, 41930, Control_c, 1, 11, 101
4, 41938, Control_c, 1, 11, 102
4, 41946, Control_c, 1, 11, 103
4, 41952, Note_on_c, 1, 77, 0
4, 41954, Control_c, 1, 11, 104
4, 41962, Control_c, 1, 11, 105
4, 41971, Control_c, 1, 11, 106
4, 41979, Control_c, 1, 11, 107
4, 41987, Control_c, 1, 11, 108
4, 41995, Control_c, 1, 11, 109
4, 42004, Control_c, 1, 11, 110
4, 42012, Control_c, 1, 11, 111
4, 42016, Note_on_c, 1, 71, 0
4, 42020, Control_c, 1, 11, 112
4, 42028, Control_c, 1, 11, 113
4, 42037, Control_c, 1, 11, 114
4, 42045, Control_c, 1, 11, 115
4, 42048, Note_on_c, 1, 74, 72
4, 42053, Control_c, 1, 11, 116
4, 42061, Control_c, 1, 11, 117
4, 42069, Control_c, 1, 11, 118
4, 42078, Control_c, 1, 11, 119
4, 42086, Control_c, 1, 11, 120
4, 42094, Control_c, 1, 11, 121
4, 42102, Control_c, 1, 11, 122
4, 42111, Control_c, 1, 11, 123
4, 42119, Control_c, 1, 11, 124
4, 42127, Control_c, 1, 11, 125
4, 42135, Control_c, 1, 11, 126
4, 42142, Note_on_c, 1, 74, 0
4, 42144, Control_c, 1, 11, 127
4, 42144, Control_c, 1, 11, 92
4, 42144, Note_on_c, 1, 71, 72
4, 42152, Control_c, 1, 11, 93
4, 42160, Control_c, 1, 11, 94
4, 42168, Control_c, 1, 11, 95
4, 42176, Control_c, 1, 11, 96
4, 42185, Control_c, 1, 11, 97
4, 42193, Control_c, 1, 11, 98
4, 42201, Control_c, 1, 11, 99
4, 42209, Control_c, 1, 11, 100
4, 42218, Control_c, 1, 11, 101
4, 42226, Control_c, 1, 11, 102
4, 42234, Control_c, 1, 11, 103
4, 42242, Control_c, 1, 11, 104
4, 42250, Control_c, 1, 11, 105
4, 42259, Control_c, 1, 11, 106
4, 42267, Control_c, 1, 11, 107
4, 42275, Control_c, 1, 11, 108
4, 42283, Control_c, 1, 11, 109
4, 42292, Control_c, 1, 11, 110
4, 42300, Control_c, 1, 11, 111
4, 42308, Control_c, 1, 11, 112
4, 42316, Control_c, 1, 11, 113
4, 42325, Control_c, 1, 11, 114
4, 42333, Control_c, 1, 11, 115
4, 42336, Note_on_c, 1, 71, 0
4, 42336, Note_on_c, 1, 74, 80
4, 42341, Control_c, 1, 11, 116
4, 42349, Control_c, 1, 11, 117
4, 42357, Control_c, 1, 11, 118
4, 42366, Control_c, 1, 11, 119
4, 42374, Control_c, 1, 11, 120
4, 42382, Control_c, 1, 11, 121
4, 42390, Control_c, 1, 11, 122
4, 42399, Control_c, 1, 11, 123
4, 42407, Control_c, 1, 11, 124
4, 42415, Control_c, 1, 11, 125
4, 42423, Control_c, 1, 11, 126
4, 42430, Note_on_c, 1, 74, 0
4, 42432, Control_c, 1, 11, 127
4, 42432, Note_on_c, 1, 71, 50
4, 42432, Note_on_c, 1, 78, 47
4, 42462, Note_on_c, 1, 71, 0
4, 42462, Note_on_c, 1, 78, 0
4, 42464, Note_on_c, 1, 74, 42
4, 42464, Note_on_c, 1, 80, 42
4, 42494, Note_on_c, 1, 74, 0
4, 42494, Note_on_c, 1, 80, 0
4, 42496, Note_on_c, 1, 71, 46
4, 42496, Note_on_c, 1, 78, 45
4, 42526, Note_on_c, 1, 71, 0
4, 42526, Note_on_c, 1, 78, 0
4, 42528, Note_on_c, 1, 74, 55
4, 42528, Note_on_c, 1, 80, 53
4, 42558, Note_on_c, 1, 74, 0
4, 42558, Note_on_c, 1, 80, 0
4, 42560, Note_on_c, 1, 77, 58
4, 42560, Note_on_c, 1, 81, 56
4, 42590, Note_on_c, 1, 77, 0
4, 42590, Note_on_c, 1, 81, 0
4, 42592, Note_on_c, 1, 74, 59
4, 42592, Note_on_c, 1, 80, 58
4, 42622, Note_on_c, 1, 74, 0
4, 42622, Note_on_c, 1, 80, 0
4, 42624, Note_on_c, 1, 78, 59
4, 42624, Note_on_c, 1, 83, 60
4, 42654, Note_on_c, 1, 78, 0
4, 42654, Note_on_c, 1, 83, 0
4, 42656, Note_on_c, 1, 77, 62
4, 42656, Note_on_c, 1, 82, 64
4, 42686, Note_on_c, 1, 77, 0
4, 42686, Note_on_c, 1, 82, 0
4, 42688, Note_on_c, 1, 78, 74
4, 42688, Note_on_c, 1, 81, 76
4, 42718, Note_on_c, 1, 78, 0
4, 42718, Note_on_c, 1, 81, 0
4, 42720, Note_on_c, 1, 70, 73
4, 42720, Note_on_c, 1, 78, 76
4, 42750, Note_on_c, 1, 70, 0
4, 42750, Note_on_c, 1, 78, 0
4, 42752, Note_on_c, 1, 74, 78
4, 42752, Note_on_c, 1, 80, 70
4, 42782, Note_on_c, 1, 74, 0
4, 42782, Note_on_c, 1, 80, 0
4, 42784, Note_on_c, 1, 70, 79
4, 42784, Note_on_c, 1, 78, 73
4, 42814, Note_on_c, 1, 70, 0
4, 42814, Note_on_c, 1, 78, 0
4, 42816, Note_on_c, 1, 74, 78
4, 42816, Note_on_c, 1, 80, 84
4, 42846, Note_on_c, 1, 74, 0
4, 42846, Note_on_c, 1, 80, 0
4, 42848, Note_on_c, 1, 77, 85
4, 42848, Note_on_c, 1, 81, 82
4, 42878, Note_on_c, 1, 77, 0
4, 42878, Note_on_c, 1, 81, 0
4, 42880, Note_on_c, 1, 74, 80
4, 42880, Note_on_c, 1, 80, 86
4, 42910, Note_on_c, 1, 74, 0
4, 42910, Note_on_c, 1, 80, 0
4, 42912, Note_on_c, 1, 78, 82
4, 42912, Note_on_c, 1, 83, 83
4, 42942, Note_on_c, 1, 78, 0
4, 42942, Note_on_c, 1, 83, 0
4, 42944, Note_on_c, 1, 77, 87
4, 42944, Note_on_c, 1, 82, 89
4, 42974, Note_on_c, 1, 77, 0
4, 42974, Note_on_c, 1, 82, 0
4, 42976, Note_on_c, 1, 78, 97
4, 42976, Note_on_c, 1, 81, 93
4, 43006, Note_on_c, 1, 78, 0
4, 43006, Note_on_c, 1, 81, 0
4, 43008, Control_c, 1, 11, 127
4, 43008, Note_on_c, 1, 80, 25
4, 43008, Note_on_c, 1, 83, 32
4, 43016, Control_c, 1, 11, 126
4, 43024, Control_c, 1, 11, 125
4, 43032, Control_c, 1, 11, 124
4, 43040, Control_c, 1, 11, 123
4, 43049, Control_c, 1, 11, 122
4, 43057, Control_c, 1, 11, 121
4, 43065, Control_c, 1, 11, 120
4, 43073, Control_c, 1, 11, 119
4, 43082, Control_c, 1, 11, 118
4, 43090, Control_c, 1, 11, 117
4, 43098, Control_c, 1, 11, 116
4, 43106, Control_c, 1, 11, 115
4, 43114, Control_c, 1, 11, 114
4, 43123, Control_c, 1, 11, 113
4, 43131, Control_c, 1, 11, 112
4, 43139, Control_c, 1, 11, 111
4, 43147, Control_c, 1, 11, 110
4, 43156, Control_c, 1, 11, 109
4, 43164, Control_c, 1, 11, 108
4, 43172, Control_c, 1, 11, 107
4, 43180, Control_c, 1, 11, 106
4, 43189, Control_c, 1, 11, 105
4, 43197, Control_c, 1, 11, 104
4, 43205, Control_c, 1, 11, 103
4, 43213, Control_c, 1, 11, 102
4, 43221, Control_c, 1, 11, 101
4, 43230, Control_c, 1, 11, 100
4, 43238, Control_c, 1, 11, 99
4, 43246, Control_c, 1, 11, 98
4, 43254, Control_c, 1, 11, 97
4, 43263, Control_c, 1, 11, 96
4, 43271, Control_c, 1, 11, 95
4, 43279, Control_c, 1, 11, 94
4, 43287, Control_c, 1, 11, 93
4, 43296, Control_c, 1, 11, 92
4, 43390, Note_on_c, 1, 80, 0
4, 43390, Note_on_c, 1, 83, 0
4, 43584, Control_c, 1, 11, 127
4, 43584, Note_on_c, 1, 80, 33
4, 43584, Note_on_c, 1, 83, 35
4, 43592, Control_c, 1, 11, 126
4, 43600, Control_c, 1, 11, 125
4, 43608, Control_c, 1, 11, 124
4, 43616, Control_c, 1, 11, 123
4, 43625, Control_c, 1, 11, 122
4, 43633, Control_c, 1, 11, 121
4, 43641, Control_c, 1, 11, 120
4, 43649, Control_c, 1, 11, 119
4, 43658, Control_c, 1, 11, 118
4, 43666, Control_c, 1, 11, 117
4, 43674, Control_c, 1, 11, 116
4, 43682, Control_c, 1, 11, 115
4, 43690, Control_c, 1, 11, 114
4, 43699, Control_c, 1, 11, 113
4, 43707, Control_c, 1, 11, 112
4, 43715, Control_c, 1, 11, 111
4, 43723, Control_c, 1, 11, 110
4, 43732, Control_c, 1, 11, 109
4, 43740, Control_c, 1, 11, 108
4, 43748, Control_c, 1, 11, 107
4, 43756, Control_c, 1, 11, 106
4, 43765, Control_c, 1, 11, 105
4, 43773, Control_c, 1, 11, 104
4, 43781, Control_c, 1, 11, 103
4, 43789, Control_c, 1, 11, 102
4, 43797, Control_c, 1, 11, 101
4, 43806, Control_c, 1, 11, 100
4, 43814, Control_c, 1, 11, 99
4, 43822, Control_c, 1, 11, 98
4, 43830, Control_c, 1, 11, 97
4, 43839, Control_c, 1, 11, 96
4, 43847, Control_c, 1, 11, 95
4, 43855, Control_c, 1, 11, 94
4, 43863, Control_c, 1, 11, 93
4, 43872, Control_c, 1, 11, 92
4, 43966, Note_on_c, 1, 80, 0
4, 43966, Note_on_c, 1, 83, 0
4, 44160, Control_c, 1, 11, 127
4, 44160, Note_on_c, 1, 80, 29
4, 44160, Note_on_c, 1, 83, 26
4, 44168, Control_c, 1, 11, 126
4, 44176, Control_c, 1, 11, 125
4, 44184, Control_c, 1, 11, 124
4, 44192, Control_c, 1, 11, 123
4, 44201, Control_c, 1, 11, 122
4, 44209, Control_c, 1, 11, 121
4, 44217, Control_c, 1, 11, 120
4, 44225, Control_c, 1, 11, 119
4, 44234, Control_c, 1, 11, 118
4, 44242, Control_c, 1, 11, 117
4, 44250, Control_c, 1, 11, 116
4, 44258, Control_c, 1, 11, 115
4, 44266, Control_c, 1, 11, 114
4, 44275, Control_c, 1, 11, 113
4, 44283, Control_c, 1, 11, 112
4, 44291, Control_c, 1, 11, 111
4, 44299, Control_c, 1, 11, 110
4, 44308, Control_c, 1, 11, 109
4, 44316, Control_c, 1, 11, 108
4, 44324, Control_c, 1, 11, 107
4, 44332, Control_c, 1, 11, 106
4, 44341, Control_c, 1, 11, 105
4, 44349, Control_c, 1, 11, 104
4, 44357, Control_c, 1, 11, 103
4, 44365, Control_c, 1, 11, 102
4, 44373, Control_c, 1, 11, 101
4, 44382, Control_c, 1, 11, 100
4, 44390, Control_c, 1, 11, 99
4, 44398, Control_c, 1, 11, 98
4, 44406, Control_c, 1, 11, 97
4, 44415, Control_c, 1, 11, 96
4, 44423, Control_c, 1, 11, 95
4, 44431, Control_c, 1, 11, 94
4, 44439, Control_c, 1, 11, 93
4, 44448, Control_c, 1, 11, 92
4, 44542, Note_on_c, 1, 80, 0
4, 44542, Note_on_c, 1, 83, 0
4, 44736, Control_c, 1, 11, 127
4, 44736, Note_on_c, 1, 80, 26
4, 44736, Note_on_c, 1, 83, 34
4, 44744, Control_c, 1, 11, 126
4, 44752, Control_c, 1, 11, 125
4, 44760, Control_c, 1, 11, 124
4, 44768, Control_c, 1, 11, 123
4, 44777, Control_c, 1, 11, 122
4, 44785, Control_c, 1, 11, 121
4, 44793, Control_c, 1, 11, 120
4, 44801, Control_c, 1, 11, 119
4, 44810, Control_c, 1, 11, 118
4, 44818, Control_c, 1, 11, 117
4, 44826, Control_c, 1, 11, 116
4, 44834, Control_c, 1, 11, 115
4, 44842, Control_c, 1, 11, 114
4, 44851, Control_c, 1, 11, 113
4, 44859, Control_c, 1, 11, 112
4, 44867, Control_c, 1, 11, 111
4, 44875, Control_c, 1, 11, 110
4, 44884, Control_c, 1, 11, 109
4, 44892, Control_c, 1, 11, 108
4, 44900, Control_c, 1, 11, 107
4, 44908, Control_c, 1, 11, 106
4, 44917, Control_c, 1, 11, 105
4, 44925, Control_c, 1, 11, 104
4, 44933, Control_c, 1, 11, 103
4, 44941, Control_c, 1, 11, 102
4, 44949, Control_c, 1, 11, 101
4, 44958, Control_c, 1, 11, 100
4, 44966, Control_c, 1, 11, 99
4, 44974, Control_c, 1, 11, 98
4, 44982, Control_c, 1, 11, 97
4, 44991, Control_c, 1, 11, 96
4, 44999, Control_c, 1, 11, 95
4, 45007, Control_c, 1, 11, 94
4, 45015, Control_c, 1, 11, 93
4, 45024, Control_c, 1, 11, 92
4, 45118, Note_on_c, 1, 80, 0
4, 45118, Note_on_c, 1, 83, 0
4, 46464, Control_c, 1, 11, 127
4, 46464, Note_on_c, 1, 73, 58
4, 46466, Control_c, 1, 11, 126
4, 46469, Control_c, 1, 11, 125
4, 46472, Control_c, 1, 11, 124
4, 46474, Control_c, 1, 11, 123
4, 46477, Control_c, 1, 11, 122
4, 46480, Control_c, 1, 11, 121
4, 46483, Control_c, 1, 11, 120
4, 46485, Control_c, 1, 11, 119
4, 46486, Note_on_c, 1, 73, 0
4, 46488, Control_c, 1, 11, 118
4, 46488, Note_on_c, 1, 71, 61
4, 46491, Control_c, 1, 11, 117
4, 46494, Control_c, 1, 11, 116
4, 46496, Control_c, 1, 11, 115
4, 46499, Control_c, 1, 11, 114
4, 46502, Control_c, 1, 11, 113
4, 46505, Control_c, 1, 11, 112
4, 46507, Control_c, 1, 11, 111
4, 46510, Note_on_c, 1, 71, 0
4, 46510, Control_c, 1, 11, 110
4, 46512, Note_on_c, 1, 70, 55
4, 46513, Control_c, 1, 11, 109
4, 46516, Control_c, 1, 11, 108
4, 46518, Control_c, 1, 11, 107
4, 46521, Control_c, 1, 11, 106
4, 46524, Control_c, 1, 11, 105
4, 46527, Control_c, 1, 11, 104
4, 46529, Control_c, 1, 11, 103
4, 46532, Control_c, 1, 11, 102
4, 46535, Control_c, 1, 11, 101
4, 46538, Control_c, 1, 11, 100
4, 46540, Control_c, 1, 11, 99
4, 46543, Control_c, 1, 11, 98
4, 46546, Control_c, 1, 11, 97
4, 46549, Control_c, 1, 11, 96
4, 46551, Control_c, 1, 11, 95
4, 46554, Control_c, 1, 11, 94
4, 46557, Control_c, 1, 11, 93
4, 46560, Control_c, 1, 11, 92
4, 46606, Note_on_c, 1, 70, 0
4, 46608, Control_c, 1, 11, 92
4, 46608, Note_on_c, 1, 70, 56
4, 46610, Control_c, 1, 11, 93
4, 46613, Control_c, 1, 11, 94
4, 46616, Control_c, 1, 11, 95
4, 46618, Control_c, 1, 11, 96
4, 46621, Control_c, 1, 11, 97
4, 46624, Control_c, 1, 11, 98
4, 46627, Control_c, 1, 11, 99
4, 46629, Control_c, 1, 11, 100
4, 46632, Control_c, 1, 11, 101
4, 46635, Control_c, 1, 11, 102
4, 46638, Control_c, 1, 11, 103
4, 46640, Control_c, 1, 11, 104
4, 46643, Control_c, 1, 11, 105
4, 46646, Control_c, 1, 11, 106
4, 46649, Control_c, 1, 11, 107
4, 46651, Control_c, 1, 11, 108
4, 46654, Control_c, 1, 11, 109
4, 46657, Control_c, 1, 11, 110
4, 46660, Control_c, 1, 11, 111
4, 46662, Control_c, 1, 11, 112
4, 46665, Control_c, 1, 11, 113
4, 46668, Control_c, 1, 11, 114
4, 46671, Control_c, 1, 11, 115
4, 46673, Control_c, 1, 11, 116
4, 46676, Control_c, 1, 11, 117
4, 46679, Control_c, 1, 11, 118
4, 46682, Control_c, 1, 11, 119
4, 46684, Control_c, 1, 11, 120
4, 46687, Control_c, 1, 11, 121
4, 46690, Control_c, 1, 11, 122
4, 46693, Control_c, 1, 11, 123
4, 46695, Control_c, 1, 11, 124
4, 46698, Control_c, 1, 11, 125
4, 46701, Control_c, 1, 11, 126
4, 46702, Note_on_c, 1, 70, 0
4, 46704, Control_c, 1, 11, 127
4, 46704, Note_on_c, 1, 71, 57
4, 46750, Note_on_c, 1, 71, 0
4, 46752, Control_c, 1, 11, 127
4, 46752, Note_on_c, 1, 73, 64
4, 46754, Control_c, 1, 11, 126
4, 46757, Control_c, 1, 11, 125
4, 46760, Control_c, 1, 11, 124
4, 46762, Control_c, 1, 11, 123
4, 46765, Control_c, 1, 11, 122
4, 46768, Control_c, 1, 11, 121
4, 46771, Control_c, 1, 11, 120
4, 46773, Control_c, 1, 11, 119
4, 46774, Note_on_c, 1, 73, 0
4, 46776, Control_c, 1, 11, 118
4, 46776, Note_on_c, 1, 71, 64
4, 46779, Control_c, 1, 11, 117
4, 46782, Control_c, 1, 11, 116
4, 46784, Control_c, 1, 11, 115
4, 46787, Control_c, 1, 11, 114
4, 46790, Control_c, 1, 11, 113
4, 46793, Control_c, 1, 11, 112
4, 46795, Control_c, 1, 11, 111
4, 46798, Note_on_c, 1, 71, 0
4, 46798, Control_c, 1, 11, 110
4, 46800, Note_on_c, 1, 70, 55
4, 46801, Control_c, 1, 11, 109
4, 46804, Control_c, 1, 11, 108
4, 46806, Control_c, 1, 11, 107
4, 46809, Control_c, 1, 11, 106
4, 46812, Control_c, 1, 11, 105
4, 46815, Control_c, 1, 11, 104
4, 46817, Control_c, 1, 11, 103
4, 46820, Control_c, 1, 11, 102
4, 46823, Control_c, 1, 11, 101
4, 46826, Control_c, 1, 11, 100
4, 46828, Control_c, 1, 11, 99
4, 46831, Control_c, 1, 11, 98
4, 46834, Control_c, 1, 11, 97
4, 46837, Control_c, 1, 11, 96
4, 46839, Control_c, 1, 11, 95
4, 46842, Control_c, 1, 11, 94
4, 46845, Control_c, 1, 11, 93
4, 46848, Control_c, 1, 11, 92
4, 46894, Note_on_c, 1, 70, 0
4, 46896, Control_c, 1, 11, 92
4, 46896, Note_on_c, 1, 70, 55
4, 46898, Control_c, 1, 11, 93
4, 46901, Control_c, 1, 11, 94
4, 46904, Control_c, 1, 11, 95
4, 46906, Control_c, 1, 11, 96
4, 46909, Control_c, 1, 11, 97
4, 46912, Control_c, 1, 11, 98
4, 46915, Control_c, 1, 11, 99
4, 46917, Control_c, 1, 11, 100
4, 46920, Control_c, 1, 11, 101
4, 46923, Control_c, 1, 11, 102
4, 46926, Control_c, 1, 11, 103
4, 46928, Control_c, 1, 11, 104
4, 46931, Control_c, 1, 11, 105
4, 46934, Control_c, 1, 11, 106
4, 46937, Control_c, 1, 11, 107
4, 46939, Control_c, 1, 11, 108
4, 46942, Control_c, 1, 11, 109
4, 46945, Control_c, 1, 11, 110
4, 46948, Control_c, 1, 11, 111
4, 46950, Control_c, 1, 11, 112
4, 46953, Control_c, 1, 11, 113
4, 46956, Control_c, 1, 11, 114
4, 46959, Control_c, 1, 11, 115
4, 46961, Control_c, 1, 11, 116
4, 46964, Control_c, 1, 11, 117
4, 46967, Control_c, 1, 11, 118
4, 46970, Control_c, 1, 11, 119
4, 46972, Control_c, 1, 11, 120
4, 46975, Control_c, 1, 11, 121
4, 46978, Control_c, 1, 11, 122
4, 46981, Control_c, 1, 11, 123
4, 46983, Control_c, 1, 11, 124
4, 46986, Control_c, 1, 11, 125
4, 46989, Control_c, 1, 11, 126
4, 46990, Note_on_c, 1, 70, 0
4, 46992, Control_c, 1, 11, 127
4, 46992, Note_on_c, 1, 71, 62
4, 47038, Note_on_c, 1, 71, 0
4, 47616, Control_c, 1, 11, 127
4, 47616, Note_on_c, 1, 73, 65
4, 47618, Control_c, 1, 11, 126
4, 47621, Control_c, 1, 11, 125
4, 47624, Control_c, 1, 11, 124
4, 47626, Control_c, 1, 11, 123
4, 47629, Control_c, 1, 11, 122
4, 47632, Control_c, 1, 11, 121
4, 47635, Control_c, 1, 11, 120
4, 47637, Control_c, 1, 11, 119
4, 47638, Note_on_c, 1, 73, 0
4, 47640, Control_c, 1, 11, 118
4, 47640, Note_on_c, 1, 71, 64
4, 47643, Control_c, 1, 11, 117
4, 47646, Control_c, 1, 11, 116
4, 47648, Control_c, 1, 11, 115
4, 47651, Control_c, 1, 11, 114
4, 47654, Control_c, 1, 11, 113
4, 47657, Control_c, 1, 11, 112
4, 47659, Control_c, 1, 11, 111
4, 47662, Note_on_c, 1, 71, 0
4, 47662, Control_c, 1, 11, 110
4, 47664, Note_on_c, 1, 70, 64
4, 47665, Control_c, 1, 11, 109
4, 47668, Control_c, 1, 11, 108
4, 47670, Control_c, 1, 11, 107
4, 47673, Control_c, 1, 11, 106
4, 47676, Control_c, 1, 11, 105
4, 47679, Control_c, 1, 11, 104
4, 47681, Control_c, 1, 11, 103
4, 47684, Control_c, 1, 11, 102
4, 47687, Control_c, 1, 11, 101
4, 47690, Control_c, 1, 11, 100
4, 47692, Control_c, 1, 11, 99
4, 47695, Control_c, 1, 11, 98
4, 47698, Control_c, 1, 11, 97
4, 47701, Control_c, 1, 11, 96
4, 47703, Control_c, 1, 11, 95
4, 47706, Control_c, 1, 11, 94
4, 47709, Control_c, 1, 11, 93
4, 47712, Control_c, 1, 11, 92
4, 47758, Note_on_c, 1, 70, 0
4, 47760, Control_c, 1, 11, 92
4, 47760, Note_on_c, 1, 70, 58
4, 47762, Control_c, 1, 11, 93
4, 47765, Control_c, 1, 11, 94
4, 47768, Control_c, 1, 11, 95
4, 47770, Control_c, 1, 11, 96
4, 47773, Control_c, 1, 11, 97
4, 47776, Control_c, 1, 11, 98
4, 47779, Control_c, 1, 11, 99
4, 47781, Control_c, 1, 11, 100
4, 47784, Control_c, 1, 11, 101
4, 47787, Control_c, 1, 11, 102
4, 47790, Control_c, 1, 11, 103
4, 47792, Control_c, 1, 11, 104
4, 47795, Control_c, 1, 11, 105
4, 47798, Control_c, 1, 11, 106
4, 47801, Control_c, 1, 11, 107
4, 47803, Control_c, 1, 11, 108
4, 47806, Control_c, 1, 11, 109
4, 47809, Control_c, 1, 11, 110
4, 47812, Control_c, 1, 11, 111
4, 47814, Control_c, 1, 11, 112
4, 47817, Control_c, 1, 11, 113
4, 47820, Control_c, 1, 11, 114
4, 47823, Control_c, 1, 11, 115
4, 47825, Control_c, 1, 11, 116
4, 47828, Control_c, 1, 11, 117
4, 47831, Control_c, 1, 11, 118
4, 47834, Control_c, 1, 11, 119
4, 47836, Control_c, 1, 11, 120
4, 47839, Control_c, 1, 11, 121
4, 47842, Control_c, 1, 11, 122
4, 47845, Control_c, 1, 11, 123
4, 47847, Control_c, 1, 11, 124
4, 47850, Control_c, 1, 11, 125
4, 47853, Control_c, 1, 11, 126
4, 47854, Note_on_c, 1, 70, 0
4, 47856, Control_c, 1, 11, 127
4, 47856, Note_on_c, 1, 71, 63
4, 47902, Note_on_c, 1, 71, 0
4, 47904, Control_c, 1, 11, 127
4, 47904, Note_on_c, 1, 73, 63
4, 47906, Control_c, 1, 11, 126
4, 47909, Control_c, 1, 11, 125
4, 47912, Control_c, 1, 11, 124
4, 47914, Control_c, 1, 11, 123
4, 47917, Control_c, 1, 11, 122
4, 47920, Control_c, 1, 11, 121
4, 47923, Control_c, 1, 11, 120
4, 47925, Control_c, 1, 11, 119
4, 47926, Note_on_c, 1, 73, 0
4, 47928, Control_c, 1, 11, 118
4, 47928, Note_on_c, 1, 71, 57
4, 47931, Control_c, 1, 11, 117
4, 47934, Control_c, 1, 11, 116
4, 47936, Control_c, 1, 11, 115
4, 47939, Control_c, 1, 11, 114
4, 47942, Control_c, 1, 11, 113
4, 47945, Control_c, 1, 11, 112
4, 47947, Control_c, 1, 11, 111
4, 47950, Note_on_c, 1, 71, 0
4, 47950, Control_c, 1, 11, 110
4, 47952, Note_on_c, 1, 70, 64
4, 47953, Control_c, 1, 11, 109
4, 47956, Control_c, 1, 11, 108
4, 47958, Control_c, 1, 11, 107
4, 47961, Control_c, 1, 11, 106
4, 47964, Control_c, 1, 11, 105
4, 47967, Control_c, 1, 11, 104
4, 47969, Control_c, 1, 11, 103
4, 47972, Control_c, 1, 11, 102
4, 47975, Control_c, 1, 11, 101
4, 47978, Control_c, 1, 11, 100
4, 47980, Control_c, 1, 11, 99
4, 47983, Control_c, 1, 11, 98
4, 47986, Control_c, 1, 11, 97
4, 47989, Control_c, 1, 11, 96
4, 47991, Control_c, 1, 11, 95
4, 47994, Control_c, 1, 11, 94
4, 47997, Control_c, 1, 11, 93
4, 48000, Control_c, 1, 11, 92
4, 48046, Note_on_c, 1, 70, 0
4, 48048, Control_c, 1, 11, 92
4, 48048, Note_on_c, 1, 70, 64
4, 48050, Control_c, 1, 11, 93
4, 48053, Control_c, 1, 11, 94
4, 48056, Control_c, 1, 11, 95
4, 48058, Control_c, 1, 11, 96
4, 48061, Control_c, 1, 11, 97
4, 48064, Control_c, 1, 11, 98
4, 48067, Control_c, 1, 11, 99
4, 48069, Control_c, 1, 11, 100
4, 48072, Control_c, 1, 11, 101
4, 48075, Control_c, 1, 11, 102
4, 48078, Control_c, 1, 11, 103
4, 48080, Control_c, 1, 11, 104
4, 48083, Control_c, 1, 11, 105
4, 48086, Control_c, 1, 11, 106
4, 48089, Control_c, 1, 11, 107
4, 48091, Control_c, 1, 11, 108
4, 48094, Control_c, 1, 11, 109
4, 48097, Control_c, 1, 11, 110
4, 48100, Control_c, 1, 11, 111
4, 48102, Control_c, 1, 11, 112
4, 48105, Control_c, 1, 11, 113
4, 48108, Control_c, 1, 11, 114
4, 48111, Control_c, 1, 11, 115
4, 48113, Control_c, 1, 11, 116
4, 48116, Control_c, 1, 11, 117
4, 48119, Control_c, 1, 11, 118
4, 48122, Control_c, 1, 11, 119
4, 48124, Control_c, 1, 11, 120
4, 48127, Control_c, 1, 11, 121
4, 48130, Control_c, 1, 11, 122
4, 48133, Control_c, 1, 11, 123
4, 48135, Control_c, 1, 11, 124
4, 48138, Control_c, 1, 11, 125
4, 48141, Control_c, 1, 11, 126
4, 48142, Note_on_c, 1, 70, 0
4, 48144, Control_c, 1, 11, 127
4, 48144, Note_on_c, 1, 71, 62
4, 48190, Note_on_c, 1, 71, 0
4, 48192, Control_c, 1, 11, 92
4, 48192, Note_on_c, 1, 71, 55
4, 48192, Note_on_c, 1, 75, 55
4, 48208, Control_c, 1, 11, 93
4, 48224, Control_c, 1, 11, 94
4, 48241, Control_c, 1, 11, 95
4, 48257, Control_c, 1, 11, 96
4, 48274, Control_c, 1, 11, 97
4, 48290, Control_c, 1, 11, 98
4, 48307, Control_c, 1, 11, 99
4, 48323, Control_c, 1, 11, 100
4, 48334, Note_on_c, 1, 71, 0
4, 48334, Note_on_c, 1, 75, 0
4, 48336, Note_on_c, 1, 70, 62
4, 48336, Note_on_c, 1, 74, 60
4, 48340, Control_c, 1, 11, 101
4, 48356, Control_c, 1, 11, 102
4, 48373, Control_c, 1, 11, 103
4, 48382, Note_on_c, 1, 70, 0
4, 48382, Note_on_c, 1, 74, 0
4, 48384, Note_on_c, 1, 69, 57
4, 48384, Note_on_c, 1, 73, 64
4, 48389, Control_c, 1, 11, 104
4, 48405, Control_c, 1, 11, 105
4, 48422, Control_c, 1, 11, 106
4, 48430, Note_on_c, 1, 69, 0
4, 48430, Note_on_c, 1, 73, 0
4, 48432, Note_on_c, 1, 70, 64
4, 48432, Note_on_c, 1, 74, 61
4, 48438, Control_c, 1, 11, 107
4, 48455, Control_c, 1, 11, 108
4, 48471, Control_c, 1, 11, 109
4, 48478, Note_on_c, 1, 70, 0
4, 48478, Note_on_c, 1, 74, 0
4, 48480, Note_on_c, 1, 71, 57
4, 48480, Note_on_c, 1, 75, 57
4, 48488, Control_c, 1, 11, 110
4, 48504, Control_c, 1, 11, 111
4, 48521, Control_c, 1, 11, 112
4, 48537, Control_c, 1, 11, 113
4, 48554, Control_c, 1, 11, 114
4, 48570, Control_c, 1, 11, 115
4, 48586, Control_c, 1, 11, 116
4, 48603, Control_c, 1, 11, 117
4, 48619, Control_c, 1, 11, 118
4, 48636, Control_c, 1, 11, 119
4, 48652, Control_c, 1, 11, 120
4, 48669, Control_c, 1, 11, 121
4, 48672, Note_on_c, 1, 71, 0
4, 48672, Note_on_c, 1, 75, 0
4, 48672, Note_on_c, 1, 74, 62
4, 48672, Note_on_c, 1, 78, 65
4, 48685, Control_c, 1, 11, 122
4, 48702, Control_c, 1, 11, 123
4, 48718, Control_c, 1, 11, 124
4, 48735, Control_c, 1, 11, 125
4, 48751, Control_c, 1, 11, 126
4, 48766, Note_on_c, 1, 74, 0
4, 48766, Note_on_c, 1, 78, 0
4, 48768, Control_c, 1, 11, 127
4, 48768, Control_c, 1, 11, 127
4, 49344, Note_on_c, 1, 77, 29
4, 49632, Note_on_c, 1, 77, 0
4, 49632, Note_on_c, 1, 78, 31
4, 49920, Note_on_c, 1, 78, 0
4, 49920, Note_on_c, 1, 77, 29
4, 50016, Note_on_c, 1, 77, 0
4, 50016, Note_on_c, 1, 76, 34
4, 50112, Note_on_c, 1, 76, 0
4, 50112, Note_on_c, 1, 77, 35
4, 50208, Note_on_c, 1, 77, 0
4, 50208, Note_on_c, 1, 78, 26
4, 50304, Note_on_c, 1, 78, 0
4, 50304, Note_on_c, 1, 77, 26
4, 50400, Note_on_c, 1, 77, 0
4, 50400, Note_on_c, 1, 76, 30
4, 50494, Note_on_c, 1, 76, 0
4, 50496, Control_c, 1, 11, 75
4, 50496, Note_on_c, 1, 77, 77
4, 50507, Control_c, 1, 11, 76
4, 50518, Control_c, 1, 11, 77
4, 50529, Control_c, 1, 11, 78
4, 50540, Control_c, 1, 11, 79
4, 50551, Control_c, 1, 11, 80
4, 50562, Control_c, 1, 11, 81
4, 50573, Control_c, 1, 11, 82
4, 50584, Control_c, 1, 11, 83
4, 50595, Control_c, 1, 11, 84
4, 50606, Control_c, 1, 11, 85
4, 50617, Control_c, 1, 11, 86
4, 50628, Control_c, 1, 11, 87
4, 50640, Control_c, 1, 11, 88
4, 50651, Control_c, 1, 11, 89
4, 50662, Control_c, 1, 11, 90
4, 50673, Control_c, 1, 11, 91
4, 50684, Control_c, 1, 11, 92
4, 50695, Control_c, 1, 11, 93
4, 50706, Control_c, 1, 11, 94
4, 50717, Control_c, 1, 11, 95
4, 50728, Control_c, 1, 11, 96
4, 50739, Control_c, 1, 11, 97
4, 50750, Control_c, 1, 11, 98
4, 50761, Control_c, 1, 11, 99
4, 50772, Control_c, 1, 11, 100
4, 50784, Note_on_c, 1, 77, 0
4, 50784, Control_c, 1, 11, 101
4, 50784, Note_on_c, 1, 75, 72
4, 50795, Control_c, 1, 11, 102
4, 50806, Control_c, 1, 11, 103
4, 50816, Note_on_c, 1, 75, 0
4, 50816, Note_on_c, 1, 77, 76
4, 50817, Control_c, 1, 11, 104
4, 50828, Control_c, 1, 11, 105
4, 50839, Control_c, 1, 11, 106
4, 50848, Note_on_c, 1, 77, 0
4, 50848, Note_on_c, 1, 75, 76
4, 50850, Control_c, 1, 11, 107
4, 50861, Control_c, 1, 11, 108
4, 50872, Control_c, 1, 11, 109
4, 50880, Note_on_c, 1, 75, 0
4, 50880, Note_on_c, 1, 73, 72
4, 50883, Control_c, 1, 11, 110
4, 50894, Control_c, 1, 11, 111
4, 50905, Control_c, 1, 11, 112
4, 50916, Control_c, 1, 11, 113
4, 50928, Control_c, 1, 11, 114
4, 50939, Control_c, 1, 11, 115
4, 50950, Control_c, 1, 11, 116
4, 50961, Control_c, 1, 11, 117
4, 50972, Control_c, 1, 11, 118
4, 50976, Note_on_c, 1, 73, 0
4, 50976, Note_on_c, 1, 77, 77
4, 50983, Control_c, 1, 11, 119
4, 50994, Control_c, 1, 11, 120
4, 51005, Control_c, 1, 11, 121
4, 51016, Control_c, 1, 11, 122
4, 51027, Control_c, 1, 11, 123
4, 51038, Control_c, 1, 11, 124
4, 51049, Control_c, 1, 11, 125
4, 51060, Control_c, 1, 11, 126
4, 51070, Note_on_c, 1, 77, 0
4, 51072, Control_c, 1, 11, 127
4, 51072, Control_c, 1, 11, 75
4, 51072, Note_on_c, 1, 70, 92
4, 51083, Control_c, 1, 11, 76
4, 51094, Control_c, 1, 11, 77
4, 51105, Control_c, 1, 11, 78
4, 51116, Control_c, 1, 11, 79
4, 51127, Control_c, 1, 11, 80
4, 51138, Control_c, 1, 11, 81
4, 51149, Control_c, 1, 11, 82
4, 51160, Control_c, 1, 11, 83
4, 51171, Control_c, 1, 11, 84
4, 51182, Control_c, 1, 11, 85
4, 51193, Control_c, 1, 11, 86
4, 51204, Control_c, 1, 11, 87
4, 51216, Control_c, 1, 11, 88
4, 51227, Control_c, 1, 11, 89
4, 51238, Control_c, 1, 11, 90
4, 51249, Control_c, 1, 11, 91
4, 51260, Control_c, 1, 11, 92
4, 51271, Control_c, 1, 11, 93
4, 51282, Control_c, 1, 11, 94
4, 51293, Control_c, 1, 11, 95
4, 51304, Control_c, 1, 11, 96
4, 51315, Control_c, 1, 11, 97
4, 51326, Control_c, 1, 11, 98
4, 51337, Control_c, 1, 11, 99
4, 51348, Control_c, 1, 11, 100
4, 51360, Control_c, 1, 11, 101
4, 51371, Control_c, 1, 11, 102
4, 51382, Control_c, 1, 11, 103
4, 51393, Control_c, 1, 11, 104
4, 51404, Control_c, 1, 11, 105
4, 51415, Control_c, 1, 11, 106
4, 51426, Control_c, 1, 11, 107
4, 51437, Control_c, 1, 11, 108
4, 51448, Control_c, 1, 11, 109
4, 51459, Control_c, 1, 11, 110
4, 51470, Control_c, 1, 11, 111
4, 51481, Control_c, 1, 11, 112
4, 51492, Control_c, 1, 11, 113
4, 51504, Control_c, 1, 11, 114
4, 51515, Control_c, 1, 11, 115
4, 51526, Control_c, 1, 11, 116
4, 51537, Control_c, 1, 11, 117
4, 51548, Control_c, 1, 11, 118
4, 51559, Control_c, 1, 11, 119
4, 51570, Control_c, 1, 11, 120
4, 51581, Control_c, 1, 11, 121
4, 51592, Control_c, 1, 11, 122
4, 51603, Control_c, 1, 11, 123
4, 51614, Control_c, 1, 11, 124
4, 51625, Control_c, 1, 11, 125
4, 51636, Control_c, 1, 11, 126
4, 51648, Control_c, 1, 11, 127
4, 51742, Note_on_c, 1, 70, 0
4, 52320, Control_c, 1, 11, 92
4, 52320, Note_on_c, 1, 66, 95
4, 52320, Note_on_c, 1, 73, 96
4, 52325, Control_c, 1, 11, 93
4, 52330, Control_c, 1, 11, 94
4, 52336, Control_c, 1, 11, 95
4, 52341, Control_c, 1, 11, 96
4, 52347, Control_c, 1, 11, 97
4, 52352, Control_c, 1, 11, 98
4, 52358, Control_c, 1, 11, 99
4, 52363, Control_c, 1, 11, 100
4, 52369, Control_c, 1, 11, 101
4, 52374, Control_c, 1, 11, 102
4, 52380, Control_c, 1, 11, 103
4, 52385, Control_c, 1, 11, 104
4, 52391, Control_c, 1, 11, 105
4, 52396, Control_c, 1, 11, 106
4, 52402, Control_c, 1, 11, 107
4, 52407, Control_c, 1, 11, 108
4, 52413, Control_c, 1, 11, 109
4, 52414, Note_on_c, 1, 66, 0
4, 52414, Note_on_c, 1, 73, 0
4, 52416, Note_on_c, 1, 68, 96
4, 52416, Note_on_c, 1, 75, 97
4, 52418, Control_c, 1, 11, 110
4, 52424, Control_c, 1, 11, 111
4, 52429, Control_c, 1, 11, 112
4, 52435, Control_c, 1, 11, 113
4, 52440, Control_c, 1, 11, 114
4, 52446, Control_c, 1, 11, 115
4, 52451, Control_c, 1, 11, 116
4, 52457, Control_c, 1, 11, 117
4, 52462, Control_c, 1, 11, 118
4, 52468, Control_c, 1, 11, 119
4, 52473, Control_c, 1, 11, 120
4, 52479, Control_c, 1, 11, 121
4, 52484, Control_c, 1, 11, 122
4, 52490, Control_c, 1, 11, 123
4, 52495, Control_c, 1, 11, 124
4, 52501, Control_c, 1, 11, 125
4, 52506, Control_c, 1, 11, 126
4, 52510, Note_on_c, 1, 68, 0
4, 52510, Note_on_c, 1, 75, 0
4, 52512, Control_c, 1, 11, 127
4, 52608, Control_c, 1, 11, 92
4, 52608, Note_on_c, 1, 71, 63
4, 52610, Control_c, 1, 11, 93
4, 52613, Control_c, 1, 11, 94
4, 52616, Control_c, 1, 11, 95
4, 52618, Control_c, 1, 11, 96
4, 52621, Control_c, 1, 11, 97
4, 52622, Note_on_c, 1, 71, 0
4, 52624, Control_c, 1, 11, 98
4, 52624, Note_on_c, 1, 73, 62
4, 52627, Control_c, 1, 11, 99
4, 52629, Control_c, 1, 11, 100
4, 52632, Control_c, 1, 11, 101
4, 52635, Control_c, 1, 11, 102
4, 52638, Note_on_c, 1, 73, 0
4, 52638, Control_c, 1, 11, 103
4, 52640, Control_c, 1, 11, 104
4, 52640, Note_on_c, 1, 75, 65
4, 52643, Control_c, 1, 11, 105
4, 52646, Control_c, 1, 11, 106
4, 52649, Control_c, 1, 11, 107
4, 52651, Control_c, 1, 11, 108
4, 52654, Note_on_c, 1, 75, 0
4, 52654, Control_c, 1, 11, 109
4, 52656, Note_on_c, 1, 77, 65
4, 52657, Control_c, 1, 11, 110
4, 52660, Control_c, 1, 11, 111
4, 52662, Control_c, 1, 11, 112
4, 52665, Control_c, 1, 11, 113
4, 52668, Control_c, 1, 11, 114
4, 52670, Note_on_c, 1, 77, 0
4, 52671, Control_c, 1, 11, 115
4, 52672, Note_on_c, 1, 78, 63
4, 52673, Control_c, 1, 11, 116
4, 52676, Control_c, 1, 11, 117
4, 52679, Control_c, 1, 11, 118
4, 52682, Control_c, 1, 11, 119
4, 52684, Control_c, 1, 11, 120
4, 52686, Note_on_c, 1, 78, 0
4, 52687, Control_c, 1, 11, 121
4, 52688, Note_on_c, 1, 80, 58
4, 52690, Control_c, 1, 11, 122
4, 52693, Control_c, 1, 11, 123
4, 52695, Control_c, 1, 11, 124
4, 52698, Control_c, 1, 11, 125
4, 52701, Control_c, 1, 11, 126
4, 52702, Note_on_c, 1, 80, 0
4, 52704, Control_c, 1, 11, 127
4, 52704, Note_on_c, 1, 82, 61
4, 52706, Control_c, 1, 11, 126
4, 52709, Control_c, 1, 11, 125
4, 52712, Control_c, 1, 11, 124
4, 52714, Control_c, 1, 11, 123
4, 52717, Control_c, 1, 11, 122
4, 52720, Control_c, 1, 11, 121
4, 52723, Control_c, 1, 11, 120
4, 52725, Control_c, 1, 11, 119
4, 52726, Note_on_c, 1, 82, 0
4, 52728, Control_c, 1, 11, 118
4, 52728, Note_on_c, 1, 80, 57
4, 52731, Control_c, 1, 11, 117
4, 52734, Control_c, 1, 11, 116
4, 52736, Control_c, 1, 11, 115
4, 52739, Control_c, 1, 11, 114
4, 52742, Control_c, 1, 11, 113
4, 52745, Control_c, 1, 11, 112
4, 52747, Control_c, 1, 11, 111
4, 52750, Note_on_c, 1, 80, 0
4, 52750, Control_c, 1, 11, 110
4, 52752, Note_on_c, 1, 78, 55
4, 52753, Control_c, 1, 11, 109
4, 52756, Control_c, 1, 11, 108
4, 52758, Control_c, 1, 11, 107
4, 52761, Control_c, 1, 11, 106
4, 52764, Control_c, 1, 11, 105
4, 52767, Control_c, 1, 11, 104
4, 52769, Control_c, 1, 11, 103
4, 52772, Control_c, 1, 11, 102
4, 52775, Control_c, 1, 11, 101
4, 52778, Control_c, 1, 11, 100
4, 52780, Control_c, 1, 11, 99
4, 52783, Control_c, 1, 11, 98
4, 52786, Control_c, 1, 11, 97
4, 52789, Control_c, 1, 11, 96
4, 52791, Control_c, 1, 11, 95
4, 52794, Control_c, 1, 11, 94
4, 52797, Control_c, 1, 11, 93
4, 52798, Note_on_c, 1, 78, 0
4, 52800, Control_c, 1, 11, 92
4, 52896, Control_c, 1, 11, 92
4, 52896, Note_on_c, 1, 71, 60
4, 52898, Control_c, 1, 11, 93
4, 52901, Control_c, 1, 11, 94
4, 52904, Control_c, 1, 11, 95
4, 52906, Control_c, 1, 11, 96
4, 52909, Control_c, 1, 11, 97
4, 52910, Note_on_c, 1, 71, 0
4, 52912, Control_c, 1, 11, 98
4, 52912, Note_on_c, 1, 73, 65
4, 52915, Control_c, 1, 11, 99
4, 52917, Control_c, 1, 11, 100
4, 52920, Control_c, 1, 11, 101
4, 52923, Control_c, 1, 11, 102
4, 52926, Note_on_c, 1, 73, 0
4, 52926, Control_c, 1, 11, 103
4, 52928, Control_c, 1, 11, 104
4, 52928, Note_on_c, 1, 75, 65
4, 52931, Control_c, 1, 11, 105
4, 52934, Control_c, 1, 11, 106
4, 52937, Control_c, 1, 11, 107
4, 52939, Control_c, 1, 11, 108
4, 52942, Note_on_c, 1, 75, 0
4, 52942, Control_c, 1, 11, 109
4, 52944, Note_on_c, 1, 77, 59
4, 52945, Control_c, 1, 11, 110
4, 52948, Control_c, 1, 11, 111
4, 52950, Control_c, 1, 11, 112
4, 52953, Control_c, 1, 11, 113
4, 52956, Control_c, 1, 11, 114
4, 52958, Note_on_c, 1, 77, 0
4, 52959, Control_c, 1, 11, 115
4, 52960, Note_on_c, 1, 78, 60
4, 52961, Control_c, 1, 11, 116
4, 52964, Control_c, 1, 11, 117
4, 52967, Control_c, 1, 11, 118
4, 52970, Control_c, 1, 11, 119
4, 52972, Control_c, 1, 11, 120
4, 52974, Note_on_c, 1, 78, 0
4, 52975, Control_c, 1, 11, 121
4, 52976, Note_on_c, 1, 80, 57
4, 52978, Control_c, 1, 11, 122
4, 52981, Control_c, 1, 11, 123
4, 52983, Control_c, 1, 11, 124
4, 52986, Control_c, 1, 11, 125
4, 52989, Control_c, 1, 11, 126
4, 52990, Note_on_c, 1, 80, 0
4, 52992, Control_c, 1, 11, 127
4, 52992, Note_on_c, 1, 82, 59
4, 52994, Control_c, 1, 11, 126
4, 52997, Control_c, 1, 11, 125
4, 53000, Control_c, 1, 11, 124
4, 53002, Control_c, 1, 11, 123
4, 53005, Control_c, 1, 11, 122
4, 53008, Control_c, 1, 11, 121
4, 53011, Control_c, 1, 11, 120
4, 53013, Control_c, 1, 11, 119
4, 53014, Note_on_c, 1, 82, 0
4, 53016, Control_c, 1, 11, 118
4, 53016, Note_on_c, 1, 80, 65
4, 53019, Control_c, 1, 11, 117
4, 53022, Control_c, 1, 11, 116
4, 53024, Control_c, 1, 11, 115
4, 53027, Control_c, 1, 11, 114
4, 53030, Control_c, 1, 11, 113
4, 53033, Control_c, 1, 11, 112
4, 53035, Control_c, 1, 11, 111
4, 53038, Note_on_c, 1, 80, 0
4, 53038, Control_c, 1, 11, 110
4, 53040, Note_on_c, 1, 78, 61
4, 53041, Control_c, 1, 11, 109
4, 53044, Control_c, 1, 11, 108
4, 53046, Control_c, 1, 11, 107
4, 53049, Control_c, 1, 11, 106
4, 53052, Control_c, 1, 11, 105
4, 53055, Control_c, 1, 11, 104
4, 53057, Control_c, 1, 11, 103
4, 53060, Control_c, 1, 11, 102
4, 53063, Control_c, 1, 11, 101
4, 53066, Control_c, 1, 11, 100
4, 53068, Control_c, 1, 11, 99
4, 53071, Control_c, 1, 11, 98
4, 53074, Control_c, 1, 11, 97
4, 53077, Control_c, 1, 11, 96
4, 53079, Control_c, 1, 11, 95
4, 53082, Control_c, 1, 11, 94
4, 53085, Control_c, 1, 11, 93
4, 53086, Note_on_c, 1, 78, 0
4, 53088, Control_c, 1, 11, 92
4, 53184, Control_c, 1, 11, 92
4, 53184, Note_on_c, 1, 71, 58
4, 53186, Control_c, 1, 11, 93
4, 53189, Control_c, 1, 11, 94
4, 53192, Control_c, 1, 11, 95
4, 53194, Control_c, 1, 11, 96
4, 53197, Control_c, 1, 11, 97
4, 53198, Note_on_c, 1, 71, 0
4, 53200, Control_c, 1, 11, 98
4, 53200, Note_on_c, 1, 73, 61
4, 53203, Control_c, 1, 11, 99
4, 53205, Control_c, 1, 11, 100
4, 53208, Control_c, 1, 11, 101
4, 53211, Control_c, 1, 11, 102
4, 53214, Note_on_c, 1, 73, 0
4, 53214, Control_c, 1, 11, 103
4, 53216, Control_c, 1, 11, 104
4, 53216, Note_on_c, 1, 75, 62
4, 53219, Control_c, 1, 11, 105
4, 53222, Control_c, 1, 11, 106
4, 53225, Control_c, 1, 11, 107
4, 53227, Control_c, 1, 11, 108
4, 53230, Note_on_c, 1, 75, 0
4, 53230, Control_c, 1, 11, 109
4, 53232, Note_on_c, 1, 77, 58
4, 53233, Control_c, 1, 11, 110
4, 53236, Control_c, 1, 11, 111
4, 53238, Control_c, 1, 11, 112
4, 53241, Control_c, 1, 11, 113
4, 53244, Control_c, 1, 11, 114
4, 53246, Note_on_c, 1, 77, 0
4, 53247, Control_c, 1, 11, 115
4, 53248, Note_on_c, 1, 78, 57
4, 53249, Control_c, 1, 11, 116
4, 53252, Control_c, 1, 11, 117
4, 53255, Control_c, 1, 11, 118
4, 53258, Control_c, 1, 11, 119
4, 53260, Control_c, 1, 11, 120
4, 53262, Note_on_c, 1, 78, 0
4, 53263, Control_c, 1, 11, 121
4, 53264, Note_on_c, 1, 80, 55
4, 53266, Control_c, 1, 11, 122
4, 53269, Control_c, 1, 11, 123
4, 53271, Control_c, 1, 11, 124
4, 53274, Control_c, 1, 11, 125
4, 53277, Control_c, 1, 11, 126
4, 53278, Note_on_c, 1, 80, 0
4, 53280, Control_c, 1, 11, 127
4, 53280, Note_on_c, 1, 82, 56
4, 53282, Control_c, 1, 11, 126
4, 53285, Control_c, 1, 11, 125
4, 53288, Control_c, 1, 11, 124
4, 53290, Control_c, 1, 11, 123
4, 53293, Control_c, 1, 11, 122
4, 53296, Control_c, 1, 11, 121
4, 53299, Control_c, 1, 11, 120
4, 53301, Control_c, 1, 11, 119
4, 53302, Note_on_c, 1, 82, 0
4, 53304, Control_c, 1, 11, 118
4, 53304, Note_on_c, 1, 80, 61
4, 53307, Control_c, 1, 11, 117
4, 53310, Control_c, 1, 11, 116
4, 53312, Control_c, 1, 11, 115
4, 53315, Control_c, 1, 11, 114
4, 53318, Control_c, 1, 11, 113
4, 53321, Control_c, 1, 11, 112
4, 53323, Control_c, 1, 11, 111
4, 53326, Note_on_c, 1, 80, 0
4, 53326, Control_c, 1, 11, 110
4, 53328, Note_on_c, 1, 78, 64
4, 53329, Control_c, 1, 11, 109
4, 53332, Control_c, 1, 11, 108
4, 53334, Control_c, 1, 11, 107
4, 53337, Control_c, 1, 11, 106
4, 53340, Control_c, 1, 11, 105
4, 53343, Control_c, 1, 11, 104
4, 53345, Control_c, 1, 11, 103
4, 53348, Control_c, 1, 11, 102
4, 53351, Control_c, 1, 11, 101
4, 53354, Control_c, 1, 11, 100
4, 53356, Control_c, 1, 11, 99
4, 53359, Control_c, 1, 11, 98
4, 53362, Control_c, 1, 11, 97
4, 53365, Control_c, 1, 11, 96
4, 53367, Control_c, 1, 11, 95
4, 53370, Control_c, 1, 11, 94
4, 53373, Control_c, 1, 11, 93
4, 53374, Note_on_c, 1, 78, 0
4, 53376, Control_c, 1, 11, 92
4, 53472, Control_c, 1, 11, 92
4, 53472, Note_on_c, 1, 71, 56
4, 53474, Control_c, 1, 11, 93
4, 53477, Control_c, 1, 11, 94
4, 53480, Control_c, 1, 11, 95
4, 53482, Control_c, 1, 11, 96
4, 53485, Control_c, 1, 11, 97
4, 53486, Note_on_c, 1, 71, 0
4, 53488, Control_c, 1, 11, 98
4, 53488, Note_on_c, 1, 73, 65
4, 53491, Control_c, 1, 11, 99
4, 53493, Control_c, 1, 11, 100
4, 53496, Control_c, 1, 11, 101
4, 53499, Control_c, 1, 11, 102
4, 53502, Note_on_c, 1, 73, 0
4, 53502, Control_c, 1, 11, 103
4, 53504, Control_c, 1, 11, 104
4, 53504, Note_on_c, 1, 75, 65
4, 53507, Control_c, 1, 11, 105
4, 53510, Control_c, 1, 11, 106
4, 53513, Control_c, 1, 11, 107
4, 53515, Control_c, 1, 11, 108
4, 53518, Note_on_c, 1, 75, 0
4, 53518, Control_c, 1, 11, 109
4, 53520, Note_on_c, 1, 77, 55
4, 53521, Control_c, 1, 11, 110
4, 53524, Control_c, 1, 11, 111
4, 53526, Control_c, 1, 11, 112
4, 53529, Control_c, 1, 11, 113
4, 53532, Control_c, 1, 11, 114
4, 53534, Note_on_c, 1, 77, 0
4, 53535, Control_c, 1, 11, 115
4, 53536, Note_on_c, 1, 78, 55
4, 53537, Control_c, 1, 11, 116
4, 53540, Control_c, 1, 11, 117
4, 53543, Control_c, 1, 11, 118
4, 53546, Control_c, 1, 11, 119
4, 53548, Control_c, 1, 11, 120
4, 53550, Note_on_c, 1, 78, 0
4, 53551, Control_c, 1, 11, 121
4, 53552, Note_on_c, 1, 80, 58
4, 53554, Control_c, 1, 11, 122
4, 53557, Control_c, 1, 11, 123
4, 53559, Control_c, 1, 11, 124
4, 53562, Control_c, 1, 11, 125
4, 53565, Control_c, 1, 11, 126
4, 53566, Note_on_c, 1, 80, 0
4, 53568, Control_c, 1, 11, 127
4, 53568, Note_on_c, 1, 82, 58
4, 53570, Control_c, 1, 11, 126
4, 53573, Control_c, 1, 11, 125
4, 53576, Control_c, 1, 11, 124
4, 53578, Control_c, 1, 11, 123
4, 53581, Control_c, 1, 11, 122
4, 53584, Control_c, 1, 11, 121
4, 53587, Control_c, 1, 11, 120
4, 53589, Control_c, 1, 11, 119
4, 53590, Note_on_c, 1, 82, 0
4, 53592, Control_c, 1, 11, 118
4, 53592, Note_on_c, 1, 80, 61
4, 53595, Control_c, 1, 11, 117
4, 53598, Control_c, 1, 11, 116
4, 53600, Control_c, 1, 11, 115
4, 53603, Control_c, 1, 11, 114
4, 53606, Control_c, 1, 11, 113
4, 53609, Control_c, 1, 11, 112
4, 53611, Control_c, 1, 11, 111
4, 53614, Note_on_c, 1, 80, 0
4, 53614, Control_c, 1, 11, 110
4, 53616, Note_on_c, 1, 78, 65
4, 53617, Control_c, 1, 11, 109
4, 53620, Control_c, 1, 11, 108
4, 53622, Control_c, 1, 11, 107
4, 53625, Control_c, 1, 11, 106
4, 53628, Control_c, 1, 11, 105
4, 53631, Control_c, 1, 11, 104
4, 53633, Control_c, 1, 11, 103
4, 53636, Control_c, 1, 11, 102
4, 53639, Control_c, 1, 11, 101
4, 53642, Control_c, 1, 11, 100
4, 53644, Control_c, 1, 11, 99
4, 53647, Control_c, 1, 11, 98
4, 53650, Control_c, 1, 11, 97
4, 53653, Control_c, 1, 11, 96
4, 53655, Control_c, 1, 11, 95
4, 53658, Control_c, 1, 11, 94
4, 53661, Control_c, 1, 11, 93
4, 53662, Note_on_c, 1, 78, 0
4, 53664, Control_c, 1, 11, 92
4, 54240, Control_c, 1, 11, 92
4, 54240, Note_on_c, 1, 78, 96
4, 54240, Note_on_c, 1, 85, 88
4, 54256, Control_c, 1, 11, 93
4, 54270, Note_on_c, 1, 78, 0
4, 54270, Note_on_c, 1, 85, 0
4, 54272, Control_c, 1, 11, 94
4, 54272, Note_on_c, 1, 76, 94
4, 54272, Note_on_c, 1, 83, 96
4, 54289, Control_c, 1, 11, 95
4, 54302, Note_on_c, 1, 76, 0
4, 54302, Note_on_c, 1, 83, 0
4, 54304, Note_on_c, 1, 73, 95
4, 54304, Note_on_c, 1, 80, 87
4, 54305, Control_c, 1, 11, 96
4, 54322, Control_c, 1, 11, 97
4, 54334, Note_on_c, 1, 73, 0
4, 54334, Note_on_c, 1, 80, 0
4, 54336, Note_on_c, 1, 71, 92
4, 54336, Note_on_c, 1, 78, 96
4, 54338, Control_c, 1, 11, 98
4, 54355, Control_c, 1, 11, 99
4, 54371, Control_c, 1, 11, 100
4, 54388, Control_c, 1, 11, 101
4, 54404, Control_c, 1, 11, 102
4, 54421, Control_c, 1, 11, 103
4, 54437, Control_c, 1, 11, 104
4, 54453, Control_c, 1, 11, 105
4, 54462, Note_on_c, 1, 71, 0
4, 54462, Note_on_c, 1, 78, 0
4, 54464, Note_on_c, 1, 73, 90
4, 54464, Note_on_c, 1, 80, 95
4, 54470, Control_c, 1, 11, 106
4, 54486, Control_c, 1, 11, 107
4, 54494, Note_on_c, 1, 73, 0
4, 54494, Note_on_c, 1, 80, 0
4, 54496, Note_on_c, 1, 76, 87
4, 54496, Note_on_c, 1, 83, 95
4, 54503, Control_c, 1, 11, 108
4, 54519, Control_c, 1, 11, 109
4, 54526, Note_on_c, 1, 76, 0
4, 54526, Note_on_c, 1, 83, 0
4, 54528, Note_on_c, 1, 78, 91
4, 54528, Note_on_c, 1, 85, 93
4, 54536, Control_c, 1, 11, 110
4, 54552, Control_c, 1, 11, 111
4, 54558, Note_on_c, 1, 78, 0
4, 54558, Note_on_c, 1, 85, 0
4, 54560, Note_on_c, 1, 76, 87
4, 54560, Note_on_c, 1, 83, 94
4, 54569, Control_c, 1, 11, 112
4, 54585, Control_c, 1, 11, 113
4, 54590, Note_on_c, 1, 76, 0
4, 54590, Note_on_c, 1, 83, 0
4, 54592, Note_on_c, 1, 73, 90
4, 54592, Note_on_c, 1, 80, 94
4, 54602, Control_c, 1, 11, 114
4, 54618, Control_c, 1, 11, 115
4, 54622, Note_on_c, 1, 73, 0
4, 54622, Note_on_c, 1, 80, 0
4, 54624, Note_on_c, 1, 76, 90
4, 54624, Note_on_c, 1, 83, 96
4, 54634, Control_c, 1, 11, 116
4, 54651, Control_c, 1, 11, 117
4, 54667, Control_c, 1, 11, 118
4, 54684, Control_c, 1, 11, 119
4, 54700, Control_c, 1, 11, 120
4, 54717, Control_c, 1, 11, 121
4, 54718, Note_on_c, 1, 76, 0
4, 54718, Note_on_c, 1, 83, 0
4, 54720, Note_on_c, 1, 78, 87
4, 54720, Note_on_c, 1, 85, 94
4, 54733, Control_c, 1, 11, 122
4, 54750, Control_c, 1, 11, 123
4, 54766, Control_c, 1, 11, 124
4, 54783, Control_c, 1, 11, 125
4, 54799, Control_c, 1, 11, 126
4, 54816, Control_c, 1, 11, 127
4, 54846, Note_on_c, 1, 78, 0
4, 54846, Note_on_c, 1, 85, 0
4, 54848, Note_on_c, 1, 76, 46
4, 54848, Note_on_c, 1, 83, 45
4, 54878, Note_on_c, 1, 76, 0
4, 54878, Note_on_c, 1, 83, 0
4, 54880, Note_on_c, 1, 73, 48
4, 54880, Note_on_c, 1, 80, 46
4, 54910, Note_on_c, 1, 73, 0
4, 54910, Note_on_c, 1, 80, 0
4, 54912, Note_on_c, 1, 71, 50
4, 54912, Note_on_c, 1, 78, 47
4, 54942, Note_on_c, 1, 71, 0
4, 54942, Note_on_c, 1, 78, 0
4, 54944, Note_on_c, 1, 73, 59
4, 54944, Note_on_c, 1, 80, 55
4, 54974, Note_on_c, 1, 73, 0
4, 54974, Note_on_c, 1, 80, 0
4, 54976, Note_on_c, 1, 76, 63
4, 54976, Note_on_c, 1, 83, 63
4, 55006, Note_on_c, 1, 76, 0
4, 55006, Note_on_c, 1, 83, 0
4, 55008, Note_on_c, 1, 78, 64
4, 55008, Note_on_c, 1, 85, 63
4, 55038, Note_on_c, 1, 78, 0
4, 55038, Note_on_c, 1, 85, 0
4, 55040, Note_on_c, 1, 76, 63
4, 55040, Note_on_c, 1, 83, 70
4, 55070, Note_on_c, 1, 76, 0
4, 55070, Note_on_c, 1, 83, 0
4, 55072, Note_on_c, 1, 73, 75
4, 55072, Note_on_c, 1, 80, 68
4, 55102, Note_on_c, 1, 73, 0
4, 55102, Note_on_c, 1, 80, 0
4, 55104, Note_on_c, 1, 71, 74
4, 55104, Note_on_c, 1, 78, 78
4, 55134, Note_on_c, 1, 71, 0
4, 55134, Note_on_c, 1, 78, 0
4, 55136, Note_on_c, 1, 73, 73
4, 55136, Note_on_c, 1, 80, 80
4, 55166, Note_on_c, 1, 73, 0
4, 55166, Note_on_c, 1, 80, 0
4, 55168, Note_on_c, 1, 76, 77
4, 55168, Note_on_c, 1, 83, 74
4, 55198, Note_on_c, 1, 76, 0
4, 55198, Note_on_c, 1, 83, 0
4, 55200, Note_on_c, 1, 78, 75
4, 55200, Note_on_c, 1, 85, 83
4, 55230, Note_on_c, 1, 78, 0
4, 55230, Note_on_c, 1, 85, 0
4, 55232, Note_on_c, 1, 76, 77
4, 55232, Note_on_c, 1, 83, 83
4, 55262, Note_on_c, 1, 76, 0
4, 55262, Note_on_c, 1, 83, 0
4, 55264, Note_on_c, 1, 73, 87
4, 55264, Note_on_c, 1, 80, 85
4, 55294, Note_on_c, 1, 73, 0
4, 55294, Note_on_c, 1, 80, 0
4, 55296, Note_on_c, 1, 71, 86
4, 55296, Note_on_c, 1, 78, 81
4, 55326, Note_on_c, 1, 71, 0
4, 55326, Note_on_c, 1, 78, 0
4, 55328, Note_on_c, 1, 73, 85
4, 55328, Note_on_c, 1, 80, 89
4, 55358, Note_on_c, 1, 73, 0
4, 55358, Note_on_c, 1, 80, 0
4, 55360, Note_on_c, 1, 76, 96
4, 55360, Note_on_c, 1, 83, 91
4, 55390, Note_on_c, 1, 76, 0
4, 55390, Note_on_c, 1, 83, 0
4, 55392, Note_on_c, 1, 78, 48
4, 55392, Note_on_c, 1, 85, 40
4, 55422, Note_on_c, 1, 78, 0
4, 55422, Note_on_c, 1, 85, 0
4, 55424, Note_on_c, 1, 76, 47
4, 55424, Note_on_c, 1, 83, 48
4, 55454, Note_on_c, 1, 76, 0
4, 55454, Note_on_c, 1, 83, 0
4, 55456, Note_on_c, 1, 73, 53
4, 55456, Note_on_c, 1, 80, 49
4, 55486, Note_on_c, 1, 73, 0
4, 55486, Note_on_c, 1, 80, 0
4, 55488, Note_on_c, 1, 71, 54
4, 55488, Note_on_c, 1, 78, 52
4, 55518, Note_on_c, 1, 71, 0
4, 55518, Note_on_c, 1, 78, 0
4, 55520, Note_on_c, 1, 73, 55
4, 55520, Note_on_c, 1, 80, 53
4, 55550, Note_on_c, 1, 73, 0
4, 55550, Note_on_c, 1, 80, 0
4, 55552, Note_on_c, 1, 76, 54
4, 55552, Note_on_c, 1, 83, 61
4, 55582, Note_on_c, 1, 76, 0
4, 55582, Note_on_c, 1, 83, 0
4, 55584, Note_on_c, 1, 78, 58
4, 55584, Note_on_c, 1, 85, 59
4, 55614, Note_on_c, 1, 78, 0
4, 55614, Note_on_c, 1, 85, 0
4, 55616, Note_on_c, 1, 76, 65
4, 55616, Note_on_c, 1, 83, 65
4, 55646, Note_on_c, 1, 76, 0
4, 55646, Note_on_c, 1, 83, 0
4, 55648, Note_on_c, 1, 73, 76
4, 55648, Note_on_c, 1, 80, 72
4, 55678, Note_on_c, 1, 73, 0
4, 55678, Note_on_c, 1, 80, 0
4, 55680, Note_on_c, 1, 71, 75
4, 55680, Note_on_c, 1, 78, 74
4, 55710, Note_on_c, 1, 71, 0
4, 55710, Note_on_c, 1, 78, 0
4, 55712, Note_on_c, 1, 73, 80
4, 55712, Note_on_c, 1, 80, 80
4, 55742, Note_on_c, 1, 73, 0
4, 55742, Note_on_c, 1, 80, 0
4, 55744, Note_on_c, 1, 76, 82
4, 55744, Note_on_c, 1, 83, 81
4, 55774, Note_on_c, 1, 76, 0
4, 55774, Note_on_c, 1, 83, 0
4, 55776, Note_on_c, 1, 78, 74
4, 55776, Note_on_c, 1, 85, 75
4, 55806, Note_on_c, 1, 78, 0
4, 55806, Note_on_c, 1, 85, 0
4, 55808, Note_on_c, 1, 76, 84
4, 55808, Note_on_c, 1, 83, 77
4, 55838, Note_on_c, 1, 76, 0
4, 55838, Note_on_c, 1, 83, 0
4, 55840, Note_on_c, 1, 73, 84
4, 55840, Note_on_c, 1, 80, 78
4, 55870, Note_on_c, 1, 73, 0
4, 55870, Note_on_c, 1, 80, 0
4, 55872, Note_on_c, 1, 71, 83
4, 55872, Note_on_c, 1, 78, 86
4, 55902, Note_on_c, 1, 71, 0
4, 55902, Note_on_c, 1, 78, 0
4, 55904, Note_on_c, 1, 73, 93
4, 55904, Note_on_c, 1, 80, 85
4, 55934, Note_on_c, 1, 73, 0
4, 55934, Note_on_c, 1, 80, 0
4, 55936, Note_on_c, 1, 76, 89
4, 55936, Note_on_c, 1, 83, 92
4, 55966, Note_on_c, 1, 76, 0
4, 55966, Note_on_c, 1, 83, 0
4, 55968, Note_on_c, 1, 78, 41
4, 55968, Note_on_c, 1, 85, 42
4, 55998, Note_on_c, 1, 78, 0
4, 55998, Note_on_c, 1, 85, 0
4, 56000, Note_on_c, 1, 76, 45
4, 56000, Note_on_c, 1, 83, 50
4, 56030, Note_on_c, 1, 76, 0
4, 56030, Note_on_c, 1, 83, 0
4, 56032, Note_on_c, 1, 73, 45
4, 56032, Note_on_c, 1, 80, 49
4, 56062, Note_on_c, 1, 73, 0
4, 56062, Note_on_c, 1, 80, 0
4, 56064, Note_on_c, 1, 71, 48
4, 56064, Note_on_c, 1, 78, 56
4, 56094, Note_on_c, 1, 71, 0
4, 56094, Note_on_c, 1, 78, 0
4, 56096, Note_on_c, 1, 73, 51
4, 56096, Note_on_c, 1, 80, 52
4, 56126, Note_on_c, 1, 73, 0
4, 56126, Note_on_c, 1, 80, 0
4, 56128, Note_on_c, 1, 76, 56
4, 56128, Note_on_c, 1, 83, 59
4, 56158, Note_on_c, 1, 76, 0
4, 56158, Note_on_c, 1, 83, 0
4, 56160, Note_on_c, 1, 78, 58
4, 56160, Note_on_c, 1, 85, 60
4, 56190, Note_on_c, 1, 78, 0
4, 56190, Note_on_c, 1, 85, 0
4, 56192, Note_on_c, 1, 76, 72
4, 56192, Note_on_c, 1, 83, 68
4, 56222, Note_on_c, 1, 76, 0
4, 56222, Note_on_c, 1, 83, 0
4, 56224, Note_on_c, 1, 73, 70
4, 56224, Note_on_c, 1, 80, 76
4, 56254, Note_on_c, 1, 73, 0
4, 56254, Note_on_c, 1, 80, 0
4, 56256, Note_on_c, 1, 71, 76
4, 56256, Note_on_c, 1, 78, 80
4, 56286, Note_on_c, 1, 71, 0
4, 56286, Note_on_c, 1, 78, 0
4, 56288, Note_on_c, 1, 73, 74
4, 56288, Note_on_c, 1, 80, 74
4, 56318, Note_on_c, 1, 73, 0
4, 56318, Note_on_c, 1, 80, 0
4, 56320, Note_on_c, 1, 76, 77
4, 56320, Note_on_c, 1, 83, 82
4, 56350, Note_on_c, 1, 76, 0
4, 56350, Note_on_c, 1, 83, 0
4, 56352, Note_on_c, 1, 78, 78
4, 56352, Note_on_c, 1, 85, 82
4, 56382, Note_on_c, 1, 78, 0
4, 56382, Note_on_c, 1, 85, 0
4, 56384, Note_on_c, 1, 76, 86
4, 56384, Note_on_c, 1, 83, 86
4, 56414, Note_on_c, 1, 76, 0
4, 56414, Note_on_c, 1, 83, 0
4, 56416, Note_on_c, 1, 73, 79
4, 56416, Note_on_c, 1, 80, 88
4, 56446, Note_on_c, 1, 73, 0
4, 56446, Note_on_c, 1, 80, 0
4, 56448, Note_on_c, 1, 71, 84
4, 56448, Note_on_c, 1, 78, 85
4, 56478, Note_on_c, 1, 71, 0
4, 56478, Note_on_c, 1, 78, 0
4, 56480, Note_on_c, 1, 73, 85
4, 56480, Note_on_c, 1, 80, 85
4, 56510, Note_on_c, 1, 73, 0
4, 56510, Note_on_c, 1, 80, 0
4, 56512, Note_on_c, 1, 76, 93
4, 56512, Note_on_c, 1, 83, 92
4, 56542, Note_on_c, 1, 76, 0
4, 56542, Note_on_c, 1, 83, 0
4, 56544, Control_c, 1, 11, 92
4, 56544, Note_on_c, 1, 78, 90
4, 56544, Note_on_c, 1, 85, 92
4, 56545, Control_c, 1, 11, 93
4, 56546, Control_c, 1, 11, 94
4, 56548, Control_c, 1, 11, 95
4, 56549, Control_c, 1, 11, 96
4, 56550, Control_c, 1, 11, 97
4, 56552, Control_c, 1, 11, 98
4, 56553, Control_c, 1, 11, 99
4, 56554, Control_c, 1, 11, 100
4, 56556, Control_c, 1, 11, 101
4, 56557, Control_c, 1, 11, 102
4, 56559, Control_c, 1, 11, 103
4, 56560, Control_c, 1, 11, 104
4, 56561, Control_c, 1, 11, 105
4, 56563, Control_c, 1, 11, 106
4, 56564, Control_c, 1, 11, 107
4, 56565, Control_c, 1, 11, 108
4, 56566, Note_on_c, 1, 78, 0
4, 56566, Note_on_c, 1, 85, 0
4, 56567, Control_c, 1, 11, 109
4, 56568, Control_c, 1, 11, 110
4, 56568, Note_on_c, 1, 78, 87
4, 56568, Note_on_c, 1, 85, 89
4, 56570, Control_c, 1, 11, 111
4, 56571, Control_c, 1, 11, 112
4, 56572, Control_c, 1, 11, 113
4, 56574, Control_c, 1, 11, 114
4, 56575, Control_c, 1, 11, 115
4, 56576, Control_c, 1, 11, 116
4, 56578, Control_c, 1, 11, 117
4, 56579, Control_c, 1, 11, 118
4, 56581, Control_c, 1, 11, 119
4, 56582, Control_c, 1, 11, 120
4, 56583, Control_c, 1, 11, 121
4, 56585, Control_c, 1, 11, 122
4, 56586, Control_c, 1, 11, 123
4, 56587, Control_c, 1, 11, 124
4, 56589, Control_c, 1, 11, 125
4, 56590, Control_c, 1, 11, 126
4, 56592, Control_c, 1, 11, 127
4, 56593, Control_c, 1, 11, 126
4, 56594, Control_c, 1, 11, 125
4, 56596, Control_c, 1, 11, 124
4, 56597, Control_c, 1, 11, 123
4, 56598, Control_c, 1, 11, 122
4, 56600, Control_c, 1, 11, 121
4, 56601, Control_c, 1, 11, 120
4, 56602, Control_c, 1, 11, 119
4, 56604, Control_c, 1, 11, 118
4, 56605, Control_c, 1, 11, 117
4, 56607, Control_c, 1, 11, 116
4, 56608, Control_c, 1, 11, 115
4, 56609, Control_c, 1, 11, 114
4, 56611, Control_c, 1, 11, 113
4, 56612, Control_c, 1, 11, 112
4, 56613, Control_c, 1, 11, 111
4, 56615, Control_c, 1, 11, 110
4, 56616, Control_c, 1, 11, 109
4, 56618, Control_c, 1, 11, 108
4, 56619, Control_c, 1, 11, 107
4, 56620, Control_c, 1, 11, 106
4, 56622, Control_c, 1, 11, 105
4, 56623, Control_c, 1, 11, 104
4, 56624, Control_c, 1, 11, 103
4, 56626, Control_c, 1, 11, 102
4, 56627, Control_c, 1, 11, 101
4, 56629, Control_c, 1, 11, 100
4, 56630, Control_c, 1, 11, 99
4, 56631, Control_c, 1, 11, 98
4, 56633, Control_c, 1, 11, 97
4, 56634, Control_c, 1, 11, 96
4, 56635, Control_c, 1, 11, 95
4, 56637, Control_c, 1, 11, 94
4, 56638, Control_c, 1, 11, 93
4, 56640, Control_c, 1, 11, 92
4, 56734, Note_on_c, 1, 78, 0
4, 56734, Note_on_c, 1, 85, 0
4, 56736, Control_c, 1, 11, 92
4, 56736, Note_on_c, 1, 76, 96
4, 56736, Note_on_c, 1, 83, 97
4, 56737, Control_c, 1, 11, 93
4, 56738, Control_c, 1, 11, 94
4, 56740, Control_c, 1, 11, 95
4, 56741, Control_c, 1, 11, 96
4, 56742, Control_c, 1, 11, 97
4, 56744, Control_c, 1, 11, 98
4, 56745, Control_c, 1, 11, 99
4, 56746, Control_c, 1, 11, 100
4, 56748, Control_c, 1, 11, 101
4, 56749, Control_c, 1, 11, 102
4, 56751, Control_c, 1, 11, 103
4, 56752, Control_c, 1, 11, 104
4, 56753, Control_c, 1, 11, 105
4, 56755, Control_c, 1, 11, 106
4, 56756, Control_c, 1, 11, 107
4, 56757, Control_c, 1, 11, 108
4, 56758, Note_on_c, 1, 76, 0
4, 56758, Note_on_c, 1, 83, 0
4, 56759, Control_c, 1, 11, 109
4, 56760, Control_c, 1, 11, 110
4, 56760, Note_on_c, 1, 76, 89
4, 56760, Note_on_c, 1, 83, 95
4, 56762, Control_c, 1, 11, 111
4, 56763, Control_c, 1, 11, 112
4, 56764, Control_c, 1, 11, 113
4, 56766, Control_c, 1, 11, 114
4, 56767, Control_c, 1, 11, 115
4, 56768, Control_c, 1, 11, 116
4, 56770, Control_c, 1, 11, 117
4, 56771, Control_c, 1, 11, 118
4, 56773, Control_c, 1, 11, 119
4, 56774, Control_c, 1, 11, 120
4, 56775, Control_c, 1, 11, 121
4, 56777, Control_c, 1, 11, 122
4, 56778, Control_c, 1, 11, 123
4, 56779, Control_c, 1, 11, 124
4, 56781, Control_c, 1, 11, 125
4, 56782, Control_c, 1, 11, 126
4, 56784, Control_c, 1, 11, 127
4, 56785, Control_c, 1, 11, 126
4, 56786, Control_c, 1, 11, 125
4, 56788, Control_c, 1, 11, 124
4, 56789, Control_c, 1, 11, 123
4, 56790, Control_c, 1, 11, 122
4, 56792, Control_c, 1, 11, 121
4, 56793, Control_c, 1, 11, 120
4, 56794, Control_c, 1, 11, 119
4, 56796, Control_c, 1, 11, 118
4, 56797, Control_c, 1, 11, 117
4, 56799, Control_c, 1, 11, 116
4, 56800, Control_c, 1, 11, 115
4, 56801, Control_c, 1, 11, 114
4, 56803, Control_c, 1, 11, 113
4, 56804, Control_c, 1, 11, 112
4, 56805, Control_c, 1, 11, 111
4, 56807, Control_c, 1, 11, 110
4, 56808, Control_c, 1, 11, 109
4, 56810, Control_c, 1, 11, 108
4, 56811, Control_c, 1, 11, 107
4, 56812, Control_c, 1, 11, 106
4, 56814, Control_c, 1, 11, 105
4, 56815, Control_c, 1, 11, 104
4, 56816, Control_c, 1, 11, 103
4, 56818, Control_c, 1, 11, 102
4, 56819, Control_c, 1, 11, 101
4, 56821, Control_c, 1, 11, 100
4, 56822, Control_c, 1, 11, 99
4, 56823, Control_c, 1, 11, 98
4, 56825, Control_c, 1, 11, 97
4, 56826, Control_c, 1, 11, 96
4, 56827, Control_c, 1, 11, 95
4, 56829, Control_c, 1, 11, 94
4, 56830, Control_c, 1, 11, 93
4, 56832, Control_c, 1, 11, 92
4, 56926, Note_on_c, 1, 76, 0
4, 56926, Note_on_c, 1, 83, 0
4, 56928, Control_c, 1, 11, 92
4, 56928, Note_on_c, 1, 73, 91
4, 56928, Note_on_c, 1, 80, 93
4, 56929, Control_c, 1, 11, 93
4, 56930, Control_c, 1, 11, 94
4, 56932, Control_c, 1, 11, 95
4, 56933, Control_c, 1, 11, 96
4, 56934, Control_c, 1, 11, 97
4, 56936, Control_c, 1, 11, 98
4, 56937, Control_c, 1, 11, 99
4, 56938, Control_c, 1, 11, 100
4, 56940, Control_c, 1, 11, 101
4, 56941, Control_c, 1, 11, 102
4, 56943, Control_c, 1, 11, 103
4, 56944, Control_c, 1, 11, 104
4, 56945, Control_c, 1, 11, 105
4, 56947, Control_c, 1, 11, 106
4, 56948, Control_c, 1, 11, 107
4, 56949, Control_c, 1, 11, 108
4, 56950, Note_on_c, 1, 73, 0
4, 56950, Note_on_c, 1, 80, 0
4, 56951, Control_c, 1, 11, 109
4, 56952, Control_c, 1, 11, 110
4, 56952, Note_on_c, 1, 73, 90
4, 56952, Note_on_c, 1, 80, 90
4, 56954, Control_c, 1, 11, 111
4, 56955, Control_c, 1, 11, 112
4, 56956, Control_c, 1, 11, 113
4, 56958, Control_c, 1, 11, 114
4, 56959, Control_c, 1, 11, 115
4, 56960, Control_c, 1, 11, 116
4, 56962, Control_c, 1, 11, 117
4, 56963, Control_c, 1, 11, 118
4, 56965, Control_c, 1, 11, 119
4, 56966, Control_c, 1, 11, 120
4, 56967, Control_c, 1, 11, 121
4, 56969, Control_c, 1, 11, 122
4, 56970, Control_c, 1, 11, 123
4, 56971, Control_c, 1, 11, 124
4, 56973, Control_c, 1, 11, 125
4, 56974, Control_c, 1, 11, 126
4, 56976, Control_c, 1, 11, 127
4, 56977, Control_c, 1, 11, 126
4, 56978, Control_c, 1, 11, 125
4, 56980, Control_c, 1, 11, 124
4, 56981, Control_c, 1, 11, 123
4, 56982, Control_c, 1, 11, 122
4, 56984, Control_c, 1, 11, 121
4, 56985, Control_c, 1, 11, 120
4, 56986, Control_c, 1, 11, 119
4, 56988, Control_c, 1, 11, 118
4, 56989, Control_c, 1, 11, 117
4, 56991, Control_c, 1, 11, 116
4, 56992, Control_c, 1, 11, 115
4, 56993, Control_c, 1, 11, 114
4, 56995, Control_c, 1, 11, 113
4, 56996, Control_c, 1, 11, 112
4, 56997, Control_c, 1, 11, 111
4, 56999, Control_c, 1, 11, 110
4, 57000, Control_c, 1, 11, 109
4, 57002, Control_c, 1, 11, 108
4, 57003, Control_c, 1, 11, 107
4, 57004, Control_c, 1, 11, 106
4, 57006, Control_c, 1, 11, 105
4, 57007, Control_c, 1, 11, 104
4, 57008, Control_c, 1, 11, 103
4, 57010, Control_c, 1, 11, 102
4, 57011, Control_c, 1, 11, 101
4, 57013, Control_c, 1, 11, 100
4, 57014, Control_c, 1, 11, 99
4, 57015, Control_c, 1, 11, 98
4, 57017, Control_c, 1, 11, 97
4, 57018, Control_c, 1, 11, 96
4, 57019, Control_c, 1, 11, 95
4, 57021, Control_c, 1, 11, 94
4, 57022, Control_c, 1, 11, 93
4, 57024, Control_c, 1, 11, 92
4, 57118, Note_on_c, 1, 73, 0
4, 57118, Note_on_c, 1, 80, 0
4, 68832, Control_c, 1, 11, 75
4, 68832, Note_on_c, 1, 71, 61
4, 68837, Control_c, 1, 11, 76
4, 68843, Control_c, 1, 11, 77
4, 68848, Control_c, 1, 11, 78
4, 68854, Control_c, 1, 11, 79
4, 68859, Control_c, 1, 11, 80
4, 68865, Control_c, 1, 11, 81
4, 68870, Control_c, 1, 11, 82
4, 68876, Control_c, 1, 11, 83
4, 68881, Control_c, 1, 11, 84
4, 68887, Control_c, 1, 11, 85
4, 68892, Control_c, 1, 11, 86
4, 68898, Control_c, 1, 11, 87
4, 68904, Control_c, 1, 11, 88
4, 68909, Control_c, 1, 11, 89
4, 68915, Control_c, 1, 11, 90
4, 68920, Control_c, 1, 11, 91
4, 68926, Control_c, 1, 11, 92
4, 68931, Control_c, 1, 11, 93
4, 68937, Control_c, 1, 11, 94
4, 68942, Control_c, 1, 11, 95
4, 68948, Control_c, 1, 11, 96
4, 68953, Control_c, 1, 11, 97
4, 68959, Control_c, 1, 11, 98
4, 68964, Control_c, 1, 11, 99
4, 68970, Control_c, 1, 11, 100
4, 68976, Control_c, 1, 11, 101
4, 68981, Control_c, 1, 11, 102
4, 68987, Control_c, 1, 11, 103
4, 68992, Note_on_c, 1, 71, 0
4, 68992, Control_c, 1, 11, 104
4, 68998, Control_c, 1, 11, 105
4, 69003, Control_c, 1, 11, 106
4, 69009, Control_c, 1, 11, 107
4, 69014, Control_c, 1, 11, 108
4, 69020, Control_c, 1, 11, 109
4, 69024, Note_on_c, 1, 76, 62
4, 69025, Control_c, 1, 11, 110
4, 69031, Control_c, 1, 11, 111
4, 69036, Control_c, 1, 11, 112
4, 69042, Control_c, 1, 11, 113
4, 69048, Control_c, 1, 11, 114
4, 69053, Control_c, 1, 11, 115
4, 69056, Note_on_c, 1, 76, 0
4, 69059, Control_c, 1, 11, 116
4, 69064, Control_c, 1, 11, 117
4, 69070, Control_c, 1, 11, 118
4, 69075, Control_c, 1, 11, 119
4, 69081, Control_c, 1, 11, 120
4, 69086, Control_c, 1, 11, 121
4, 69092, Control_c, 1, 11, 122
4, 69097, Control_c, 1, 11, 123
4, 69103, Control_c, 1, 11, 124
4, 69108, Control_c, 1, 11, 125
4, 69114, Control_c, 1, 11, 126
4, 69120, Control_c, 1, 11, 127
4, 69120, Note_on_c, 1, 83, 62
4, 69152, Note_on_c, 1, 83, 0
4, 69216, Control_c, 1, 11, 75
4, 69216, Note_on_c, 1, 71, 65
4, 69221, Control_c, 1, 11, 76
4, 69227, Control_c, 1, 11, 77
4, 69232, Control_c, 1, 11, 78
4, 69238, Control_c, 1, 11, 79
4, 69243, Control_c, 1, 11, 80
4, 69249, Control_c, 1, 11, 81
4, 69254, Control_c, 1, 11, 82
4, 69260, Control_c, 1, 11, 83
4, 69265, Control_c, 1, 11, 84
4, 69271, Control_c, 1, 11, 85
4, 69276, Control_c, 1, 11, 86
4, 69282, Control_c, 1, 11, 87
4, 69288, Control_c, 1, 11, 88
4, 69293, Control_c, 1, 11, 89
4, 69299, Control_c, 1, 11, 90
4, 69304, Control_c, 1, 11, 91
4, 69310, Control_c, 1, 11, 92
4, 69315, Control_c, 1, 11, 93
4, 69321, Control_c, 1, 11, 94
4, 69326, Control_c, 1, 11, 95
4, 69332, Control_c, 1, 11, 96
4, 69337, Control_c, 1, 11, 97
4, 69343, Control_c, 1, 11, 98
4, 69348, Control_c, 1, 11, 99
4, 69354, Control_c, 1, 11, 100
4, 69360, Control_c, 1, 11, 101
4, 69365, Control_c, 1, 11, 102
4, 69371, Control_c, 1, 11, 103
4, 69376, Note_on_c, 1, 71, 0
4, 69376, Control_c, 1, 11, 104
4, 69382, Control_c, 1, 11, 105
4, 69387, Control_c, 1, 11, 106
4, 69393, Control_c, 1, 11, 107
4, 69398, Control_c, 1, 11, 108
4, 69404, Control_c, 1, 11, 109
4, 69408, Note_on_c, 1, 76, 61
4, 69409, Control_c, 1, 11, 110
4, 69415, Control_c, 1, 11, 111
4, 69420, Control_c, 1, 11, 112
4, 69426, Control_c, 1, 11, 113
4, 69432, Control_c, 1, 11, 114
4, 69437, Control_c, 1, 11, 115
4, 69440, Note_on_c, 1, 76, 0
4, 69443, Control_c, 1, 11, 116
4, 69448, Control_c, 1, 11, 117
4, 69454, Control_c, 1, 11, 118
4, 69459, Control_c, 1, 11, 119
4, 69465, Control_c, 1, 11, 120
4, 69470, Control_c, 1, 11, 121
4, 69476, Control_c, 1, 11, 122
4, 69481, Control_c, 1, 11, 123
4, 69487, Control_c, 1, 11, 124
4, 69492, Control_c, 1, 11, 125
4, 69498, Control_c, 1, 11, 126
4, 69504, Control_c, 1, 11, 127
4, 69504, Note_on_c, 1, 83, 58
4, 69536, Note_on_c, 1, 83, 0
4, 69600, Control_c, 1, 11, 45
4, 69600, Note_on_c, 1, 72, 89
4, 69600, Note_on_c, 1, 76, 89
4, 69628, Control_c, 1, 11, 46
4, 69656, Control_c, 1, 11, 47
4, 69684, Control_c, 1, 11, 48
4, 69712, Control_c, 1, 11, 49
4, 69740, Control_c, 1, 11, 50
4, 69768, Control_c, 1, 11, 51
4, 69796, Control_c, 1, 11, 52
4, 69824, Control_c, 1, 11, 53
4, 69852, Control_c, 1, 11, 54
4, 69880, Control_c, 1, 11, 55
4, 69909, Control_c, 1, 11, 56
4, 69937, Control_c, 1, 11, 57
4, 69965, Control_c, 1, 11, 58
4, 69993, Control_c, 1, 11, 59
4, 70021, Control_c, 1, 11, 60
4, 70049, Control_c, 1, 11, 61
4, 70077, Control_c, 1, 11, 62
4, 70105, Control_c, 1, 11, 63
4, 70133, Control_c, 1, 11, 64
4, 70161, Control_c, 1, 11, 65
4, 70190, Control_c, 1, 11, 66
4, 70218, Control_c, 1, 11, 67
4, 70246, Control_c, 1, 11, 68
4, 70274, Control_c, 1, 11, 69
4, 70302, Control_c, 1, 11, 70
4, 70330, Control_c, 1, 11, 71
4, 70358, Control_c, 1, 11, 72
4, 70386, Control_c, 1, 11, 73
4, 70414, Control_c, 1, 11, 74
4, 70442, Control_c, 1, 11, 75
4, 70462, Note_on_c, 1, 72, 0
4, 70462, Note_on_c, 1, 76, 0
4, 70471, Control_c, 1, 11, 76
4, 70499, Control_c, 1, 11, 77
4, 70527, Control_c, 1, 11, 78
4, 70555, Control_c, 1, 11, 79
4, 70583, Control_c, 1, 11, 80
4, 70611, Control_c, 1, 11, 81
4, 70639, Control_c, 1, 11, 82
4, 70667, Control_c, 1, 11, 83
4, 70695, Control_c, 1, 11, 84
4, 70723, Control_c, 1, 11, 85
4, 70728, Note_on_c, 1, 74, 92
4, 70750, Note_on_c, 1, 74, 0
4, 70751, Control_c, 1, 11, 86
4, 70752, Note_on_c, 1, 76, 91
4, 70780, Control_c, 1, 11, 87
4, 70808, Control_c, 1, 11, 88
4, 70836, Control_c, 1, 11, 89
4, 70864, Control_c, 1, 11, 90
4, 70892, Control_c, 1, 11, 91
4, 70920, Control_c, 1, 11, 92
4, 70948, Control_c, 1, 11, 93
4, 70976, Control_c, 1, 11, 94
4, 71004, Control_c, 1, 11, 95
4, 71032, Control_c, 1, 11, 96
4, 71061, Control_c, 1, 11, 97
4, 71089, Control_c, 1, 11, 98
4, 71110, Note_on_c, 1, 76, 0
4, 71112, Note_on_c, 1, 74, 87
4, 71117, Control_c, 1, 11, 99
4, 71134, Note_on_c, 1, 74, 0
4, 71136, Note_on_c, 1, 76, 91
4, 71145, Control_c, 1, 11, 100
4, 71173, Control_c, 1, 11, 101
4, 71201, Control_c, 1, 11, 102
4, 71229, Control_c, 1, 11, 103
4, 71257, Control_c, 1, 11, 104
4, 71285, Control_c, 1, 11, 105
4, 71313, Control_c, 1, 11, 106
4, 71342, Control_c, 1, 11, 107
4, 71370, Control_c, 1, 11, 108
4, 71398, Control_c, 1, 11, 109
4, 71426, Control_c, 1, 11, 110
4, 71454, Control_c, 1, 11, 111
4, 71482, Control_c, 1, 11, 112
4, 71494, Note_on_c, 1, 76, 0
4, 71496, Note_on_c, 1, 74, 92
4, 71510, Control_c, 1, 11, 113
4, 71518, Note_on_c, 1, 74, 0
4, 71520, Note_on_c, 1, 76, 96
4, 71538, Control_c, 1, 11, 114
4, 71566, Control_c, 1, 11, 115
4, 71594, Control_c, 1, 11, 116
4, 71623, Control_c, 1, 11, 117
4, 71651, Control_c, 1, 11, 118
4, 71679, Control_c, 1, 11, 119
4, 71707, Control_c, 1, 11, 120
4, 71735, Control_c, 1, 11, 121
4, 71763, Control_c, 1, 11, 122
4, 71776, Note_on_c, 1, 76, 0
4, 71791, Control_c, 1, 11, 123
4, 71819, Control_c, 1, 11, 124
4, 71847, Control_c, 1, 11, 125
4, 71875, Control_c, 1, 11, 126
4, 71904, Control_c, 1, 11, 127
4, 71904, Control_c, 1, 7, 92
4, 71904, Control_c, 1, 11, 92
4, 71904, Note_on_c, 1, 70, 109
4, 71909, Control_c, 1, 11, 93
4, 71914, Control_c, 1, 11, 94
4, 71920, Control_c, 1, 11, 95
4, 71925, Control_c, 1, 11, 96
4, 71926, Note_on_c, 1, 70, 0
4, 71928, Note_on_c, 1, 72, 113
4, 71931, Control_c, 1, 11, 97
4, 71936, Control_c, 1, 11, 98
4, 71942, Control_c, 1, 11, 99
4, 71947, Control_c, 1, 11, 100
4, 71953, Control_c, 1, 11, 101
4, 71958, Control_c, 1, 11, 102
4, 71964, Control_c, 1, 11, 103
4, 71969, Control_c, 1, 11, 104
4, 71975, Control_c, 1, 11, 105
4, 71980, Control_c, 1, 11, 106
4, 71986, Control_c, 1, 11, 107
4, 71991, Control_c, 1, 11, 108
4, 71997, Control_c, 1, 11, 109
4, 72002, Control_c, 1, 11, 110
4, 72008, Control_c, 1, 11, 111
4, 72013, Control_c, 1, 11, 112
4, 72019, Control_c, 1, 11, 113
4, 72024, Control_c, 1, 11, 114
4, 72030, Control_c, 1, 11, 115
4, 72035, Control_c, 1, 11, 116
4, 72041, Control_c, 1, 11, 117
4, 72046, Control_c, 1, 11, 118
4, 72052, Control_c, 1, 11, 119
4, 72057, Control_c, 1, 11, 120
4, 72063, Control_c, 1, 11, 121
4, 72068, Control_c, 1, 11, 122
4, 72074, Control_c, 1, 11, 123
4, 72079, Control_c, 1, 11, 124
4, 72085, Control_c, 1, 11, 125
4, 72090, Control_c, 1, 11, 126
4, 72094, Note_on_c, 1, 72, 0
4, 72096, Control_c, 1, 11, 127
4, 72096, Note_on_c, 1, 79, 104
4, 72432, Note_on_c, 1, 79, 0
4, 72480, Control_c, 1, 11, 92
4, 72480, Note_on_c, 1, 82, 104
4, 72490, Control_c, 1, 11, 93
4, 72501, Control_c, 1, 11, 94
4, 72512, Control_c, 1, 11, 95
4, 72523, Control_c, 1, 11, 96
4, 72534, Control_c, 1, 11, 97
4, 72542, Note_on_c, 1, 82, 0
4, 72544, Note_on_c, 1, 84, 109
4, 72545, Control_c, 1, 11, 98
4, 72556, Control_c, 1, 11, 99
4, 72567, Control_c, 1, 11, 100
4, 72578, Control_c, 1, 11, 101
4, 72589, Control_c, 1, 11, 102
4, 72600, Control_c, 1, 11, 103
4, 72611, Control_c, 1, 11, 104
4, 72622, Control_c, 1, 11, 105
4, 72633, Control_c, 1, 11, 106
4, 72638, Note_on_c, 1, 84, 0
4, 72640, Note_on_c, 1, 79, 113
4, 72644, Control_c, 1, 11, 107
4, 72655, Control_c, 1, 11, 108
4, 72666, Control_c, 1, 11, 109
4, 72670, Note_on_c, 1, 79, 0
4, 72672, Note_on_c, 1, 82, 104
4, 72677, Control_c, 1, 11, 110
4, 72688, Control_c, 1, 11, 111
4, 72699, Control_c, 1, 11, 112
4, 72710, Control_c, 1, 11, 113
4, 72721, Control_c, 1, 11, 114
4, 72732, Control_c, 1, 11, 115
4, 72734, Note_on_c, 1, 82, 0
4, 72736, Note_on_c, 1, 77, 104
4, 72743, Control_c, 1, 11, 116
4, 72754, Control_c, 1, 11, 117
4, 72765, Control_c, 1, 11, 118
4, 72776, Control_c, 1, 11, 119
4, 72787, Control_c, 1, 11, 120
4, 72798, Note_on_c, 1, 77, 0
4, 72798, Control_c, 1, 11, 121
4, 72800, Note_on_c, 1, 79, 111
4, 72809, Control_c, 1, 11, 122
4, 72820, Control_c, 1, 11, 123
4, 72831, Control_c, 1, 11, 124
4, 72842, Control_c, 1, 11, 125
4, 72853, Control_c, 1, 11, 126
4, 72862, Note_on_c, 1, 79, 0
4, 72864, Control_c, 1, 11, 127
4, 72864, Note_on_c, 1, 74, 110
4, 72926, Note_on_c, 1, 74, 0
4, 72928, Note_on_c, 1, 75, 103
4, 73022, Note_on_c, 1, 75, 0
4, 73024, Note_on_c, 1, 70, 112
4, 73054, Note_on_c, 1, 70, 0
4, 73056, Control_c, 1, 11, 127
4, 73056, Note_on_c, 1, 72, 108
4, 73059, Control_c, 1, 11, 126
4, 73062, Control_c, 1, 11, 125
4, 73065, Control_c, 1, 11, 124
4, 73068, Control_c, 1, 11, 123
4, 73071, Control_c, 1, 11, 122
4, 73074, Control_c, 1, 11, 121
4, 73077, Control_c, 1, 11, 120
4, 73080, Control_c, 1, 11, 119
4, 73083, Control_c, 1, 11, 118
4, 73086, Control_c, 1, 11, 117
4, 73089, Control_c, 1, 11, 116
4, 73092, Control_c, 1, 11, 115
4, 73095, Control_c, 1, 11, 114
4, 73098, Control_c, 1, 11, 113
4, 73101, Control_c, 1, 11, 112
4, 73104, Control_c, 1, 11, 111
4, 73107, Control_c, 1, 11, 110
4, 73110, Control_c, 1, 11, 109
4, 73113, Control_c, 1, 11, 108
4, 73116, Control_c, 1, 11, 107
4, 73120, Control_c, 1, 11, 106
4, 73123, Control_c, 1, 11, 105
4, 73126, Control_c, 1, 11, 104
4, 73129, Control_c, 1, 11, 103
4, 73132, Control_c, 1, 11, 102
4, 73135, Control_c, 1, 11, 101
4, 73138, Control_c, 1, 11, 100
4, 73141, Control_c, 1, 11, 99
4, 73144, Control_c, 1, 11, 98
4, 73147, Control_c, 1, 11, 97
4, 73150, Control_c, 1, 11, 96
4, 73153, Control_c, 1, 11, 95
4, 73156, Control_c, 1, 11, 94
4, 73159, Control_c, 1, 11, 93
4, 73162, Control_c, 1, 11, 92
4, 73165, Control_c, 1, 11, 91
4, 73168, Control_c, 1, 11, 90
4, 73171, Control_c, 1, 11, 89
4, 73174, Control_c, 1, 11, 88
4, 73177, Control_c, 1, 11, 87
4, 73180, Control_c, 1, 11, 86
4, 73184, Control_c, 1, 11, 85
4, 73187, Control_c, 1, 11, 84
4, 73190, Control_c, 1, 11, 83
4, 73193, Control_c, 1, 11, 82
4, 73196, Control_c, 1, 11, 81
4, 73199, Control_c, 1, 11, 80
4, 73202, Control_c, 1, 11, 79
4, 73205, Control_c, 1, 11, 78
4, 73208, Control_c, 1, 11, 77
4, 73211, Control_c, 1, 11, 76
4, 73214, Control_c, 1, 11, 75
4, 73217, Control_c, 1, 11, 74
4, 73220, Control_c, 1, 11, 73
4, 73223, Control_c, 1, 11, 72
4, 73226, Control_c, 1, 11, 71
4, 73229, Control_c, 1, 11, 70
4, 73232, Control_c, 1, 11, 69
4, 73235, Control_c, 1, 11, 68
4, 73238, Control_c, 1, 11, 67
4, 73241, Control_c, 1, 11, 66
4, 73244, Control_c, 1, 11, 65
4, 73248, Control_c, 1, 11, 64
4, 73254, Control_c, 1, 11, 65
4, 73261, Control_c, 1, 11, 66
4, 73268, Control_c, 1, 11, 67
4, 73275, Control_c, 1, 11, 68
4, 73282, Control_c, 1, 11, 69
4, 73289, Control_c, 1, 11, 70
4, 73296, Control_c, 1, 11, 71
4, 73302, Control_c, 1, 11, 72
4, 73309, Control_c, 1, 11, 73
4, 73310, Note_on_c, 1, 72, 0
4, 73312, Note_on_c, 1, 69, 111
4, 73316, Control_c, 1, 11, 74
4, 73323, Control_c, 1, 11, 75
4, 73330, Control_c, 1, 11, 76
4, 73337, Control_c, 1, 11, 77
4, 73344, Control_c, 1, 11, 78
4, 73350, Control_c, 1, 11, 79
4, 73357, Control_c, 1, 11, 80
4, 73364, Control_c, 1, 11, 81
4, 73371, Control_c, 1, 11, 82
4, 73374, Note_on_c, 1, 69, 0
4, 73376, Note_on_c, 1, 72, 108
4, 73378, Control_c, 1, 11, 83
4, 73385, Control_c, 1, 11, 84
4, 73392, Control_c, 1, 11, 85
4, 73398, Control_c, 1, 11, 86
4, 73405, Control_c, 1, 11, 87
4, 73412, Control_c, 1, 11, 88
4, 73419, Control_c, 1, 11, 89
4, 73426, Control_c, 1, 11, 90
4, 73433, Control_c, 1, 11, 91
4, 73438, Note_on_c, 1, 72, 0
4, 73440, Control_c, 1, 11, 92
4, 73440, Note_on_c, 1, 75, 110
4, 73534, Note_on_c, 1, 75, 0
4, 73536, Note_on_c, 1, 72, 112
4, 73630, Note_on_c, 1, 72, 0
4, 73632, Note_on_c, 1, 75, 106
4, 73726, Note_on_c, 1, 75, 0
4, 73728, Note_on_c, 1, 79, 103
4, 73822, Note_on_c, 1, 79, 0
4, 73824, Note_on_c, 1, 75, 106
4, 73918, Note_on_c, 1, 75, 0
4, 73920, Note_on_c, 1, 79, 104
4, 74014, Note_on_c, 1, 79, 0
4, 74016, Control_c, 1, 11, 75
4, 74016, Note_on_c, 1, 75, 92
4, 74027, Control_c, 1, 11, 76
4, 74038, Control_c, 1, 11, 77
4, 74049, Control_c, 1, 11, 78
4, 74060, Control_c, 1, 11, 79
4, 74071, Control_c, 1, 11, 80
4, 74082, Control_c, 1, 11, 81
4, 74093, Control_c, 1, 11, 82
4, 74104, Control_c, 1, 11, 83
4, 74115, Control_c, 1, 11, 84
4, 74126, Control_c, 1, 11, 85
4, 74137, Control_c, 1, 11, 86
4, 74148, Control_c, 1, 11, 87
4, 74160, Control_c, 1, 11, 88
4, 74171, Control_c, 1, 11, 89
4, 74182, Control_c, 1, 11, 90
4, 74193, Control_c, 1, 11, 91
4, 74204, Control_c, 1, 11, 92
4, 74215, Control_c, 1, 11, 93
4, 74226, Control_c, 1, 11, 94
4, 74237, Control_c, 1, 11, 95
4, 74248, Control_c, 1, 11, 96
4, 74259, Control_c, 1, 11, 97
4, 74270, Control_c, 1, 11, 98
4, 74281, Control_c, 1, 11, 99
4, 74292, Control_c, 1, 11, 100
4, 74304, Control_c, 1, 11, 101
4, 74315, Control_c, 1, 11, 102
4, 74326, Control_c, 1, 11, 103
4, 74337, Control_c, 1, 11, 104
4, 74348, Control_c, 1, 11, 105
4, 74359, Control_c, 1, 11, 106
4, 74370, Control_c, 1, 11, 107
4, 74381, Control_c, 1, 11, 108
4, 74392, Control_c, 1, 11, 109
4, 74400, Note_on_c, 1, 75, 0
4, 74400, Note_on_c, 1, 76, 96
4, 74403, Control_c, 1, 11, 110
4, 74414, Control_c, 1, 11, 111
4, 74425, Control_c, 1, 11, 112
4, 74436, Control_c, 1, 11, 113
4, 74448, Control_c, 1, 11, 114
4, 74459, Control_c, 1, 11, 115
4, 74470, Control_c, 1, 11, 116
4, 74481, Control_c, 1, 11, 117
4, 74492, Control_c, 1, 11, 118
4, 74503, Control_c, 1, 11, 119
4, 74514, Control_c, 1, 11, 120
4, 74525, Control_c, 1, 11, 121
4, 74536, Control_c, 1, 11, 122
4, 74547, Control_c, 1, 11, 123
4, 74558, Control_c, 1, 11, 124
4, 74560, Note_on_c, 1, 76, 0
4, 74569, Control_c, 1, 11, 125
4, 74580, Control_c, 1, 11, 126
4, 74592, Control_c, 1, 11, 127
4, 74592, Control_c, 1, 11, 75
4, 74592, Note_on_c, 1, 75, 89
4, 74603, Control_c, 1, 11, 76
4, 74614, Control_c, 1, 11, 77
4, 74625, Control_c, 1, 11, 78
4, 74636, Control_c, 1, 11, 79
4, 74647, Control_c, 1, 11, 80
4, 74658, Control_c, 1, 11, 81
4, 74669, Control_c, 1, 11, 82
4, 74680, Control_c, 1, 11, 83
4, 74691, Control_c, 1, 11, 84
4, 74702, Control_c, 1, 11, 85
4, 74713, Control_c, 1, 11, 86
4, 74724, Control_c, 1, 11, 87
4, 74736, Control_c, 1, 11, 88
4, 74747, Control_c, 1, 11, 89
4, 74758, Control_c, 1, 11, 90
4, 74769, Control_c, 1, 11, 91
4, 74780, Control_c, 1, 11, 92
4, 74791, Control_c, 1, 11, 93
4, 74802, Control_c, 1, 11, 94
4, 74813, Control_c, 1, 11, 95
4, 74824, Control_c, 1, 11, 96
4, 74835, Control_c, 1, 11, 97
4, 74846, Control_c, 1, 11, 98
4, 74857, Control_c, 1, 11, 99
4, 74868, Control_c, 1, 11, 100
4, 74880, Control_c, 1, 11, 101
4, 74891, Control_c, 1, 11, 102
4, 74902, Control_c, 1, 11, 103
4, 74913, Control_c, 1, 11, 104
4, 74924, Control_c, 1, 11, 105
4, 74935, Control_c, 1, 11, 106
4, 74946, Control_c, 1, 11, 107
4, 74957, Control_c, 1, 11, 108
4, 74968, Control_c, 1, 11, 109
4, 74976, Note_on_c, 1, 75, 0
4, 74976, Note_on_c, 1, 76, 96
4, 74979, Control_c, 1, 11, 110
4, 74990, Control_c, 1, 11, 111
4, 75001, Control_c, 1, 11, 112
4, 75012, Control_c, 1, 11, 113
4, 75024, Control_c, 1, 11, 114
4, 75035, Control_c, 1, 11, 115
4, 75046, Control_c, 1, 11, 116
4, 75057, Control_c, 1, 11, 117
4, 75068, Control_c, 1, 11, 118
4, 75079, Control_c, 1, 11, 119
4, 75090, Control_c, 1, 11, 120
4, 75101, Control_c, 1, 11, 121
4, 75112, Control_c, 1, 11, 122
4, 75123, Control_c, 1, 11, 123
4, 75134, Control_c, 1, 11, 124
4, 75136, Note_on_c, 1, 76, 0
4, 75145, Control_c, 1, 11, 125
4, 75156, Control_c, 1, 11, 126
4, 75168, Control_c, 1, 11, 127
4, 75168, Control_c, 1, 11, 75
4, 75168, Note_on_c, 1, 79, 96
4, 75456, Control_c, 1, 11, 75
4, 75457, Control_c, 1, 11, 76
4, 75459, Control_c, 1, 11, 77
4, 75461, Control_c, 1, 11, 78
4, 75463, Control_c, 1, 11, 79
4, 75465, Control_c, 1, 11, 80
4, 75467, Control_c, 1, 11, 81
4, 75468, Control_c, 1, 11, 82
4, 75470, Control_c, 1, 11, 83
4, 75472, Control_c, 1, 11, 84
4, 75474, Control_c, 1, 11, 85
4, 75476, Control_c, 1, 11, 86
4, 75478, Control_c, 1, 11, 87
4, 75480, Control_c, 1, 11, 88
4, 75481, Control_c, 1, 11, 89
4, 75483, Control_c, 1, 11, 90
4, 75485, Control_c, 1, 11, 91
4, 75487, Control_c, 1, 11, 92
4, 75489, Control_c, 1, 11, 93
4, 75491, Control_c, 1, 11, 94
4, 75492, Control_c, 1, 11, 95
4, 75494, Control_c, 1, 11, 96
4, 75496, Control_c, 1, 11, 97
4, 75498, Control_c, 1, 11, 98
4, 75500, Control_c, 1, 11, 99
4, 75502, Control_c, 1, 11, 100
4, 75504, Control_c, 1, 11, 101
4, 75505, Control_c, 1, 11, 102
4, 75507, Control_c, 1, 11, 103
4, 75509, Control_c, 1, 11, 104
4, 75511, Control_c, 1, 11, 105
4, 75513, Control_c, 1, 11, 106
4, 75515, Control_c, 1, 11, 107
4, 75516, Control_c, 1, 11, 108
4, 75518, Control_c, 1, 11, 109
4, 75520, Control_c, 1, 11, 110
4, 75522, Control_c, 1, 11, 111
4, 75524, Control_c, 1, 11, 112
4, 75526, Control_c, 1, 11, 113
4, 75528, Control_c, 1, 11, 114
4, 75529, Control_c, 1, 11, 115
4, 75531, Control_c, 1, 11, 116
4, 75533, Control_c, 1, 11, 117
4, 75535, Control_c, 1, 11, 118
4, 75537, Control_c, 1, 11, 119
4, 75539, Control_c, 1, 11, 120
4, 75540, Control_c, 1, 11, 121
4, 75542, Control_c, 1, 11, 122
4, 75544, Control_c, 1, 11, 123
4, 75546, Control_c, 1, 11, 124
4, 75548, Control_c, 1, 11, 125
4, 75550, Control_c, 1, 11, 126
4, 75552, Note_on_c, 1, 79, 0
4, 75552, Control_c, 1, 11, 127
4, 75552, Note_on_c, 1, 81, 97
4, 75712, Note_on_c, 1, 81, 0
4, 75744, Control_c, 1, 11, 75
4, 75744, Note_on_c, 1, 79, 96
4, 76032, Control_c, 1, 11, 75
4, 76033, Control_c, 1, 11, 76
4, 76035, Control_c, 1, 11, 77
4, 76037, Control_c, 1, 11, 78
4, 76039, Control_c, 1, 11, 79
4, 76041, Control_c, 1, 11, 80
4, 76043, Control_c, 1, 11, 81
4, 76044, Control_c, 1, 11, 82
4, 76046, Control_c, 1, 11, 83
4, 76048, Control_c, 1, 11, 84
4, 76050, Control_c, 1, 11, 85
4, 76052, Control_c, 1, 11, 86
4, 76054, Control_c, 1, 11, 87
4, 76056, Control_c, 1, 11, 88
4, 76057, Control_c, 1, 11, 89
4, 76059, Control_c, 1, 11, 90
4, 76061, Control_c, 1, 11, 91
4, 76063, Control_c, 1, 11, 92
4, 76065, Control_c, 1, 11, 93
4, 76067, Control_c, 1, 11, 94
4, 76068, Control_c, 1, 11, 95
4, 76070, Control_c, 1, 11, 96
4, 76072, Control_c, 1, 11, 97
4, 76074, Control_c, 1, 11, 98
4, 76076, Control_c, 1, 11, 99
4, 76078, Control_c, 1, 11, 100
4, 76080, Control_c, 1, 11, 101
4, 76081, Control_c, 1, 11, 102
4, 76083, Control_c, 1, 11, 103
4, 76085, Control_c, 1, 11, 104
4, 76087, Control_c, 1, 11, 105
4, 76089, Control_c, 1, 11, 106
4, 76091, Control_c, 1, 11, 107
4, 76092, Control_c, 1, 11, 108
4, 76094, Control_c, 1, 11, 109
4, 76096, Control_c, 1, 11, 110
4, 76098, Control_c, 1, 11, 111
4, 76100, Control_c, 1, 11, 112
4, 76102, Control_c, 1, 11, 113
4, 76104, Control_c, 1, 11, 114
4, 76105, Control_c, 1, 11, 115
4, 76107, Control_c, 1, 11, 116
4, 76109, Control_c, 1, 11, 117
4, 76111, Control_c, 1, 11, 118
4, 76113, Control_c, 1, 11, 119
4, 76115, Control_c, 1, 11, 120
4, 76116, Control_c, 1, 11, 121
4, 76118, Control_c, 1, 11, 122
4, 76120, Control_c, 1, 11, 123
4, 76122, Control_c, 1, 11, 124
4, 76124, Control_c, 1, 11, 125
4, 76126, Control_c, 1, 11, 126
4, 76128, Note_on_c, 1, 79, 0
4, 76128, Control_c, 1, 11, 127
4, 76128, Note_on_c, 1, 81, 88
4, 76288, Note_on_c, 1, 81, 0
4, 76512, Control_c, 1, 11, 92
4, 76512, Note_on_c, 1, 81, 95
4, 76517, Control_c, 1, 11, 93
4, 76522, Control_c, 1, 11, 94
4, 76528, Control_c, 1, 11, 95
4, 76533, Control_c, 1, 11, 96
4, 76539, Control_c, 1, 11, 97
4, 76544, Control_c, 1, 11, 98
4, 76550, Control_c, 1, 11, 99
4, 76555, Control_c, 1, 11, 100
4, 76561, Control_c, 1, 11, 101
4, 76566, Control_c, 1, 11, 102
4, 76572, Control_c, 1, 11, 103
4, 76577, Control_c, 1, 11, 104
4, 76583, Control_c, 1, 11, 105
4, 76588, Control_c, 1, 11, 106
4, 76594, Control_c, 1, 11, 107
4, 76599, Control_c, 1, 11, 108
4, 76605, Control_c, 1, 11, 109
4, 76606, Note_on_c, 1, 81, 0
4, 76608, Note_on_c, 1, 79, 89
4, 76610, Control_c, 1, 11, 110
4, 76616, Control_c, 1, 11, 111
4, 76621, Control_c, 1, 11, 112
4, 76627, Control_c, 1, 11, 113
4, 76632, Control_c, 1, 11, 114
4, 76638, Control_c, 1, 11, 115
4, 76643, Control_c, 1, 11, 116
4, 76649, Control_c, 1, 11, 117
4, 76654, Control_c, 1, 11, 118
4, 76656, Note_on_c, 1, 79, 0
4, 76660, Control_c, 1, 11, 119
4, 76665, Control_c, 1, 11, 120
4, 76671, Control_c, 1, 11, 121
4, 76676, Control_c, 1, 11, 122
4, 76680, Note_on_c, 1, 72, 97
4, 76680, Note_on_c, 1, 75, 95
4, 76682, Control_c, 1, 11, 123
4, 76687, Control_c, 1, 11, 124
4, 76693, Control_c, 1, 11, 125
4, 76698, Control_c, 1, 11, 126
4, 76702, Note_on_c, 1, 72, 0
4, 76702, Note_on_c, 1, 75, 0
4, 76704, Control_c, 1, 11, 127
4, 76704, Note_on_c, 1, 73, 97
4, 76704, Note_on_c, 1, 76, 95
4, 76798, Note_on_c, 1, 73, 0
4, 76798, Note_on_c, 1, 76, 0
4, 77088, Control_c, 1, 11, 92
4, 77088, Note_on_c, 1, 81, 96
4, 77093, Control_c, 1, 11, 93
4, 77098, Control_c, 1, 11, 94
4, 77104, Control_c, 1, 11, 95
4, 77109, Control_c, 1, 11, 96
4, 77115, Control_c, 1, 11, 97
4, 77120, Control_c, 1, 11, 98
4, 77126, Control_c, 1, 11, 99
4, 77131, Control_c, 1, 11, 100
4, 77137, Control_c, 1, 11, 101
4, 77142, Control_c, 1, 11, 102
4, 77148, Control_c, 1, 11, 103
4, 77153, Control_c, 1, 11, 104
4, 77159, Control_c, 1, 11, 105
4, 77164, Control_c, 1, 11, 106
4, 77170, Control_c, 1, 11, 107
4, 77175, Control_c, 1, 11, 108
4, 77181, Control_c, 1, 11, 109
4, 77182, Note_on_c, 1, 81, 0
4, 77184, Note_on_c, 1, 79, 92
4, 77186, Control_c, 1, 11, 110
4, 77192, Control_c, 1, 11, 111
4, 77197, Control_c, 1, 11, 112
4, 77203, Control_c, 1, 11, 113
4, 77208, Control_c, 1, 11, 114
4, 77214, Control_c, 1, 11, 115
4, 77219, Control_c, 1, 11, 116
4, 77225, Control_c, 1, 11, 117
4, 77230, Control_c, 1, 11, 118
4, 77232, Note_on_c, 1, 79, 0
4, 77236, Control_c, 1, 11, 119
4, 77241, Control_c, 1, 11, 120
4, 77247, Control_c, 1, 11, 121
4, 77252, Control_c, 1, 11, 122
4, 77256, Note_on_c, 1, 73, 92
4, 77256, Note_on_c, 1, 75, 91
4, 77258, Control_c, 1, 11, 123
4, 77263, Control_c, 1, 11, 124
4, 77269, Control_c, 1, 11, 125
4, 77274, Control_c, 1, 11, 126
4, 77278, Note_on_c, 1, 73, 0
4, 77278, Note_on_c, 1, 75, 0
4, 77280, Control_c, 1, 11, 127
4, 77280, Note_on_c, 1, 73, 96
4, 77280, Note_on_c, 1, 76, 87
4, 77374, Note_on_c, 1, 73, 0
4, 77374, Note_on_c, 1, 76, 0
4, 77664, Control_c, 1, 11, 92
4, 77664, Note_on_c, 1, 72, 90
4, 77669, Control_c, 1, 11, 93
4, 77674, Control_c, 1, 11, 94
4, 77680, Control_c, 1, 11, 95
4, 77685, Control_c, 1, 11, 96
4, 77691, Control_c, 1, 11, 97
4, 77696, Control_c, 1, 11, 98
4, 77702, Control_c, 1, 11, 99
4, 77707, Control_c, 1, 11, 100
4, 77713, Control_c, 1, 11, 101
4, 77718, Control_c, 1, 11, 102
4, 77724, Control_c, 1, 11, 103
4, 77729, Control_c, 1, 11, 104
4, 77735, Control_c, 1, 11, 105
4, 77740, Control_c, 1, 11, 106
4, 77746, Control_c, 1, 11, 107
4, 77751, Control_c, 1, 11, 108
4, 77757, Control_c, 1, 11, 109
4, 77758, Note_on_c, 1, 72, 0
4, 77760, Note_on_c, 1, 70, 89
4, 77762, Control_c, 1, 11, 110
4, 77768, Control_c, 1, 11, 111
4, 77773, Control_c, 1, 11, 112
4, 77779, Control_c, 1, 11, 113
4, 77784, Control_c, 1, 11, 114
4, 77790, Control_c, 1, 11, 115
4, 77795, Control_c, 1, 11, 116
4, 77801, Control_c, 1, 11, 117
4, 77806, Control_c, 1, 11, 118
4, 77812, Control_c, 1, 11, 119
4, 77817, Control_c, 1, 11, 120
4, 77823, Control_c, 1, 11, 121
4, 77828, Control_c, 1, 11, 122
4, 77830, Note_on_c, 1, 70, 0
4, 77832, Note_on_c, 1, 67, 92
4, 77832, Note_on_c, 1, 73, 96
4, 77834, Control_c, 1, 11, 123
4, 77839, Control_c, 1, 11, 124
4, 77845, Control_c, 1, 11, 125
4, 77850, Control_c, 1, 11, 126
4, 77854, Note_on_c, 1, 67, 0
4, 77854, Note_on_c, 1, 73, 0
4, 77856, Control_c, 1, 11, 127
4, 77856, Note_on_c, 1, 69, 92
4, 77856, Note_on_c, 1, 74, 87
4, 77950, Note_on_c, 1, 69, 0
4, 77950, Note_on_c, 1, 74, 0
4, 78240, Control_c, 1, 11, 92
4, 78240, Note_on_c, 1, 72, 90
4, 78245, Control_c, 1, 11, 93
4, 78250, Control_c, 1, 11, 94
4, 78256, Control_c, 1, 11, 95
4, 78261, Control_c, 1, 11, 96
4, 78267, Control_c, 1, 11, 97
4, 78272, Control_c, 1, 11, 98
4, 78278, Control_c, 1, 11, 99
4, 78283, Control_c, 1, 11, 100
4, 78289, Control_c, 1, 11, 101
4, 78294, Control_c, 1, 11, 102
4, 78300, Control_c, 1, 11, 103
4, 78305, Control_c, 1, 11, 104
4, 78311, Control_c, 1, 11, 105
4, 78316, Control_c, 1, 11, 106
4, 78322, Control_c, 1, 11, 107
4, 78327, Control_c, 1, 11, 108
4, 78333, Control_c, 1, 11, 109
4, 78334, Note_on_c, 1, 72, 0
4, 78336, Note_on_c, 1, 70, 91
4, 78338, Control_c, 1, 11, 110
4, 78344, Control_c, 1, 11, 111
4, 78349, Control_c, 1, 11, 112
4, 78355, Control_c, 1, 11, 113
4, 78360, Control_c, 1, 11, 114
4, 78366, Control_c, 1, 11, 115
4, 78371, Control_c, 1, 11, 116
4, 78377, Control_c, 1, 11, 117
4, 78382, Control_c, 1, 11, 118
4, 78388, Control_c, 1, 11, 119
4, 78393, Control_c, 1, 11, 120
4, 78399, Control_c, 1, 11, 121
4, 78404, Control_c, 1, 11, 122
4, 78406, Note_on_c, 1, 70, 0
4, 78408, Note_on_c, 1, 67, 94
4, 78408, Note_on_c, 1, 73, 93
4, 78410, Control_c, 1, 11, 123
4, 78415, Control_c, 1, 11, 124
4, 78421, Control_c, 1, 11, 125
4, 78426, Control_c, 1, 11, 126
4, 78430, Note_on_c, 1, 67, 0
4, 78430, Note_on_c, 1, 73, 0
4, 78432, Control_c, 1, 11, 127
4, 78432, Note_on_c, 1, 69, 87
4, 78432, Note_on_c, 1, 74, 96
4, 78526, Note_on_c, 1, 69, 0
4, 78526, Note_on_c, 1, 74, 0
4, 78624, Note_on_c, 1, 70, 88
4, 78670, Note_on_c, 1, 70, 0
4, 78672, Note_on_c, 1, 72, 97
4, 78880, Note_on_c, 1, 72, 0
4, 78912, Control_c, 1, 11, 92
4, 78912, Note_on_c, 1, 72, 127
4, 78912, Note_on_c, 1, 79, 123
4, 78928, Control_c, 1, 11, 93
4, 78944, Control_c, 1, 11, 94
4, 78961, Control_c, 1, 11, 95
4, 78977, Control_c, 1, 11, 96
4, 78994, Control_c, 1, 11, 97
4, 79010, Control_c, 1, 11, 98
4, 79027, Control_c, 1, 11, 99
4, 79043, Control_c, 1, 11, 100
4, 79060, Control_c, 1, 11, 101
4, 79076, Control_c, 1, 11, 102
4, 79093, Control_c, 1, 11, 103
4, 79109, Control_c, 1, 11, 104
4, 79125, Control_c, 1, 11, 105
4, 79142, Control_c, 1, 11, 106
4, 79158, Control_c, 1, 11, 107
4, 79175, Control_c, 1, 11, 108
4, 79191, Control_c, 1, 11, 109
4, 79208, Control_c, 1, 11, 110
4, 79224, Control_c, 1, 11, 111
4, 79241, Control_c, 1, 11, 112
4, 79257, Control_c, 1, 11, 113
4, 79274, Control_c, 1, 11, 114
4, 79290, Control_c, 1, 11, 115
4, 79306, Control_c, 1, 11, 116
4, 79323, Control_c, 1, 11, 117
4, 79339, Control_c, 1, 11, 118
4, 79356, Control_c, 1, 11, 119
4, 79372, Control_c, 1, 11, 120
4, 79389, Control_c, 1, 11, 121
4, 79405, Control_c, 1, 11, 122
4, 79422, Control_c, 1, 11, 123
4, 79438, Control_c, 1, 11, 124
4, 79440, Note_on_c, 1, 72, 0
4, 79440, Note_on_c, 1, 79, 0
4, 79455, Control_c, 1, 11, 125
4, 79471, Control_c, 1, 11, 126
4, 79488, Control_c, 1, 11, 127
4, 79488, Note_on_c, 1, 82, 123
4, 79582, Note_on_c, 1, 82, 0
4, 79584, Note_on_c, 1, 84, 127
4, 79726, Note_on_c, 1, 84, 0
4, 79728, Note_on_c, 1, 79, 122
4, 79774, Note_on_c, 1, 79, 0
4, 79776, Control_c, 1, 11, 127
4, 79776, Note_on_c, 1, 82, 127
4, 79794, Control_c, 1, 11, 126
4, 79812, Control_c, 1, 11, 125
4, 79830, Control_c, 1, 11, 124
4, 79849, Control_c, 1, 11, 123
4, 79867, Control_c, 1, 11, 122
4, 79885, Control_c, 1, 11, 121
4, 79904, Control_c, 1, 11, 120
4, 79918, Note_on_c, 1, 82, 0
4, 79920, Note_on_c, 1, 79, 124
4, 79922, Control_c, 1, 11, 119
4, 79940, Control_c, 1, 11, 118
4, 79958, Control_c, 1, 11, 117
4, 79977, Control_c, 1, 11, 116
4, 79995, Control_c, 1, 11, 115
4, 80013, Control_c, 1, 11, 114
4, 80032, Control_c, 1, 11, 113
4, 80050, Control_c, 1, 11, 112
4, 80068, Control_c, 1, 11, 111
4, 80086, Control_c, 1, 11, 110
4, 80105, Control_c, 1, 11, 109
4, 80123, Control_c, 1, 11, 108
4, 80141, Control_c, 1, 11, 107
4, 80160, Control_c, 1, 11, 106
4, 80178, Control_c, 1, 11, 105
4, 80196, Control_c, 1, 11, 104
4, 80214, Control_c, 1, 11, 103
4, 80233, Control_c, 1, 11, 102
4, 80251, Control_c, 1, 11, 101
4, 80269, Control_c, 1, 11, 100
4, 80288, Control_c, 1, 11, 99
4, 80306, Control_c, 1, 11, 98
4, 80324, Control_c, 1, 11, 97
4, 80342, Control_c, 1, 11, 96
4, 80361, Control_c, 1, 11, 95
4, 80379, Control_c, 1, 11, 94
4, 80397, Control_c, 1, 11, 93
4, 80416, Control_c, 1, 11, 92
4, 80434, Control_c, 1, 11, 91
4, 80452, Control_c, 1, 11, 90
4, 80470, Control_c, 1, 11, 89
4, 80489, Control_c, 1, 11, 88
4, 80507, Control_c, 1, 11, 87
4, 80525, Control_c, 1, 11, 86
4, 80544, Control_c, 1, 11, 85
4, 80562, Control_c, 1, 11, 84
4, 80580, Control_c, 1, 11, 83
4, 80598, Control_c, 1, 11, 82
4, 80617, Control_c, 1, 11, 81
4, 80635, Control_c, 1, 11, 80
4, 80653, Control_c, 1, 11, 79
4, 80672, Control_c, 1, 11, 78
4, 80690, Control_c, 1, 11, 77
4, 80708, Control_c, 1, 11, 76
4, 80726, Control_c, 1, 11, 75
4, 80745, Control_c, 1, 11, 74
4, 80763, Control_c, 1, 11, 73
4, 80781, Control_c, 1, 11, 72
4, 80800, Control_c, 1, 11, 71
4, 80818, Control_c, 1, 11, 70
4, 80836, Control_c, 1, 11, 69
4, 80854, Control_c, 1, 11, 68
4, 80873, Control_c, 1, 11, 67
4, 80891, Control_c, 1, 11, 66
4, 80896, Note_on_c, 1, 79, 0
4, 80909, Control_c, 1, 11, 65
4, 80928, Control_c, 1, 11, 64
4, 80928, Control_c, 1, 11, 127
4, 80928, Note_on_c, 1, 70, 91
4, 80974, Note_on_c, 1, 70, 0
4, 80976, Note_on_c, 1, 72, 97
4, 81184, Note_on_c, 1, 72, 0
4, 81216, Note_on_c, 1, 72, 89
4, 81216, Note_on_c, 1, 79, 92
4, 82048, Note_on_c, 1, 72, 0
4, 82048, Note_on_c, 1, 79, 0
4, 83232, Control_c, 1, 7, 127
4, 84960, Control_c, 1, 11, 127
4, 86112, Note_on_c, 1, 68, 28
4, 88368, Note_on_c, 1, 68, 0
4, 88416, Control_c, 1, 11, 127
4, 88416, Note_on_c, 1, 66, 30
4, 88432, Control_c, 1, 11, 126
4, 88448, Control_c, 1, 11, 125
4, 88465, Control_c, 1, 11, 124
4, 88481, Control_c, 1, 11, 123
4, 88498, Control_c, 1, 11, 122
4, 88514, Control_c, 1, 11, 121
4, 88531, Control_c, 1, 11, 120
4, 88547, Control_c, 1, 11, 119
4, 88564, Control_c, 1, 11, 118
4, 88580, Control_c, 1, 11, 117
4, 88597, Control_c, 1, 11, 116
4, 88613, Control_c, 1, 11, 115
4, 88629, Control_c, 1, 11, 114
4, 88646, Control_c, 1, 11, 113
4, 88662, Control_c, 1, 11, 112
4, 88679, Control_c, 1, 11, 111
4, 88695, Control_c, 1, 11, 110
4, 88712, Control_c, 1, 11, 109
4, 88728, Control_c, 1, 11, 108
4, 88745, Control_c, 1, 11, 107
4, 88761, Control_c, 1, 11, 106
4, 88778, Control_c, 1, 11, 105
4, 88794, Control_c, 1, 11, 104
4, 88810, Control_c, 1, 11, 103
4, 88827, Control_c, 1, 11, 102
4, 88843, Control_c, 1, 11, 101
4, 88860, Control_c, 1, 11, 100
4, 88876, Control_c, 1, 11, 99
4, 88893, Control_c, 1, 11, 98
4, 88909, Control_c, 1, 11, 97
4, 88926, Control_c, 1, 11, 96
4, 88942, Control_c, 1, 11, 95
4, 88959, Control_c, 1, 11, 94
4, 88975, Control_c, 1, 11, 93
4, 88992, Note_on_c, 1, 66, 0
4, 88992, Control_c, 1, 11, 92
4, 88992, Note_on_c, 1, 65, 27
4, 89520, Note_on_c, 1, 65, 0
4, 93024, Control_c, 1, 11, 92
4, 94176, Note_on_c, 1, 77, 44
4, 94560, Control_c, 1, 11, 92
4, 94570, Control_c, 1, 11, 93
4, 94581, Control_c, 1, 11, 94
4, 94592, Control_c, 1, 11, 95
4, 94603, Control_c, 1, 11, 96
4, 94614, Control_c, 1, 11, 97
4, 94625, Control_c, 1, 11, 98
4, 94636, Control_c, 1, 11, 99
4, 94647, Control_c, 1, 11, 100
4, 94658, Control_c, 1, 11, 101
4, 94669, Control_c, 1, 11, 102
4, 94680, Control_c, 1, 11, 103
4, 94691, Control_c, 1, 11, 104
4, 94702, Control_c, 1, 11, 105
4, 94713, Control_c, 1, 11, 106
4, 94724, Control_c, 1, 11, 107
4, 94735, Control_c, 1, 11, 108
4, 94746, Control_c, 1, 11, 109
4, 94757, Control_c, 1, 11, 110
4, 94768, Control_c, 1, 11, 111
4, 94779, Control_c, 1, 11, 112
4, 94790, Control_c, 1, 11, 113
4, 94801, Control_c, 1, 11, 114
4, 94812, Control_c, 1, 11, 115
4, 94823, Control_c, 1, 11, 116
4, 94834, Control_c, 1, 11, 117
4, 94845, Control_c, 1, 11, 118
4, 94846, Note_on_c, 1, 77, 0
4, 94848, Note_on_c, 1, 79, 43
4, 94856, Control_c, 1, 11, 119
4, 94867, Control_c, 1, 11, 120
4, 94878, Control_c, 1, 11, 121
4, 94889, Control_c, 1, 11, 122
4, 94900, Control_c, 1, 11, 123
4, 94911, Control_c, 1, 11, 124
4, 94922, Control_c, 1, 11, 125
4, 94933, Control_c, 1, 11, 126
4, 94942, Note_on_c, 1, 79, 0
4, 94944, Control_c, 1, 11, 127
4, 94944, Note_on_c, 1, 77, 35
4, 94965, Control_c, 1, 11, 126
4, 94987, Control_c, 1, 11, 125
4, 95009, Control_c, 1, 11, 124
4, 95031, Control_c, 1, 11, 123
4, 95053, Control_c, 1, 11, 122
4, 95075, Control_c, 1, 11, 121
4, 95097, Control_c, 1, 11, 120
4, 95119, Control_c, 1, 11, 119
4, 95141, Control_c, 1, 11, 118
4, 95163, Control_c, 1, 11, 117
4, 95185, Control_c, 1, 11, 116
4, 95207, Control_c, 1, 11, 115
4, 95229, Control_c, 1, 11, 114
4, 95251, Control_c, 1, 11, 113
4, 95273, Control_c, 1, 11, 112
4, 95295, Control_c, 1, 11, 111
4, 95317, Control_c, 1, 11, 110
4, 95338, Control_c, 1, 11, 109
4, 95360, Control_c, 1, 11, 108
4, 95382, Control_c, 1, 11, 107
4, 95404, Control_c, 1, 11, 106
4, 95426, Control_c, 1, 11, 105
4, 95448, Control_c, 1, 11, 104
4, 95470, Control_c, 1, 11, 103
4, 95492, Control_c, 1, 11, 102
4, 95514, Control_c, 1, 11, 101
4, 95536, Control_c, 1, 11, 100
4, 95558, Control_c, 1, 11, 99
4, 95580, Control_c, 1, 11, 98
4, 95602, Control_c, 1, 11, 97
4, 95624, Control_c, 1, 11, 96
4, 95646, Control_c, 1, 11, 95
4, 95668, Control_c, 1, 11, 94
4, 95690, Control_c, 1, 11, 93
4, 95712, Note_on_c, 1, 77, 0
4, 95712, Control_c, 1, 11, 92
4, 95712, Note_on_c, 1, 71, 33
4, 96048, Note_on_c, 1, 71, 0
4, 109536, Control_c, 1, 7, 92
4, 109920, Note_on_c, 1, 78, 72
4, 109966, Note_on_c, 1, 78, 0
4, 110016, Note_on_c, 1, 73, 76
4, 110062, Note_on_c, 1, 73, 0
4, 110112, Note_on_c, 1, 66, 89
4, 110158, Note_on_c, 1, 66, 0
4, 110208, Note_on_c, 1, 78, 87
4, 110254, Note_on_c, 1, 78, 0
4, 110304, Control_c, 1, 11, 92
4, 110304, Note_on_c, 1, 75, 101
4, 110304, Note_on_c, 1, 82, 100
4, 110314, Control_c, 1, 11, 93
4, 110325, Control_c, 1, 11, 94
4, 110334, Note_on_c, 1, 75, 0
4, 110334, Note_on_c, 1, 82, 0
4, 110336, Control_c, 1, 11, 95
4, 110336, Note_on_c, 1, 73, 100
4, 110336, Note_on_c, 1, 80, 102
4, 110347, Control_c, 1, 11, 96
4, 110358, Control_c, 1, 11, 97
4, 110366, Note_on_c, 1, 73, 0
4, 110366, Note_on_c, 1, 80, 0
4, 110368, Note_on_c, 1, 70, 97
4, 110368, Note_on_c, 1, 77, 103
4, 110369, Control_c, 1, 11, 98
4, 110380, Control_c, 1, 11, 99
4, 110391, Control_c, 1, 11, 100
4, 110398, Note_on_c, 1, 70, 0
4, 110398, Note_on_c, 1, 77, 0
4, 110400, Note_on_c, 1, 68, 95
4, 110400, Note_on_c, 1, 75, 105
4, 110402, Control_c, 1, 11, 101
4, 110413, Control_c, 1, 11, 102
4, 110424, Control_c, 1, 11, 103
4, 110435, Control_c, 1, 11, 104
4, 110446, Control_c, 1, 11, 105
4, 110457, Control_c, 1, 11, 106
4, 110468, Control_c, 1, 11, 107
4, 110479, Control_c, 1, 11, 108
4, 110490, Control_c, 1, 11, 109
4, 110501, Control_c, 1, 11, 110
4, 110512, Control_c, 1, 11, 111
4, 110523, Control_c, 1, 11, 112
4, 110534, Control_c, 1, 11, 113
4, 110545, Control_c, 1, 11, 114
4, 110556, Control_c, 1, 11, 115
4, 110558, Note_on_c, 1, 68, 0
4, 110558, Note_on_c, 1, 75, 0
4, 110560, Note_on_c, 1, 70, 95
4, 110560, Note_on_c, 1, 77, 95
4, 110567, Control_c, 1, 11, 116
4, 110578, Control_c, 1, 11, 117
4, 110589, Control_c, 1, 11, 118
4, 110600, Control_c, 1, 11, 119
4, 110611, Control_c, 1, 11, 120
4, 110622, Note_on_c, 1, 70, 0
4, 110622, Note_on_c, 1, 77, 0
4, 110622, Control_c, 1, 11, 121
4, 110624, Note_on_c, 1, 73, 101
4, 110624, Note_on_c, 1, 80, 102
4, 110633, Control_c, 1, 11, 122
4, 110644, Control_c, 1, 11, 123
4, 110655, Control_c, 1, 11, 124
4, 110666, Control_c, 1, 11, 125
4, 110677, Control_c, 1, 11, 126
4, 110686, Note_on_c, 1, 73, 0
4, 110686, Note_on_c, 1, 80, 0
4, 110688, Control_c, 1, 11, 127
4, 110688, Note_on_c, 1, 75, 102
4, 110688, Note_on_c, 1, 82, 101
4, 110750, Note_on_c, 1, 75, 0
4, 110750, Note_on_c, 1, 82, 0
4, 110752, Note_on_c, 1, 73, 105
4, 110752, Note_on_c, 1, 80, 105
4, 110814, Note_on_c, 1, 73, 0
4, 110814, Note_on_c, 1, 80, 0
4, 110816, Note_on_c, 1, 70, 97
4, 110816, Note_on_c, 1, 77, 95
4, 110878, Note_on_c, 1, 70, 0
4, 110878, Note_on_c, 1, 77, 0
4, 110880, Note_on_c, 1, 70, 98
4, 110880, Note_on_c, 1, 77, 104
4, 110942, Note_on_c, 1, 70, 0
4, 110942, Note_on_c, 1, 77, 0
4, 110944, Note_on_c, 1, 73, 95
4, 110944, Note_on_c, 1, 80, 100
4, 111006, Note_on_c, 1, 73, 0
4, 111006, Note_on_c, 1, 80, 0
4, 111008, Note_on_c, 1, 75, 95
4, 111008, Note_on_c, 1, 82, 99
4, 111070, Note_on_c, 1, 75, 0
4, 111070, Note_on_c, 1, 82, 0
4, 111072, Control_c, 1, 11, 92
4, 111072, Note_on_c, 1, 75, 101
4, 111072, Note_on_c, 1, 82, 100
4, 111093, Control_c, 1, 11, 93
4, 111102, Note_on_c, 1, 75, 0
4, 111102, Note_on_c, 1, 82, 0
4, 111104, Note_on_c, 1, 73, 95
4, 111104, Note_on_c, 1, 80, 96
4, 111115, Control_c, 1, 11, 94
4, 111134, Note_on_c, 1, 73, 0
4, 111134, Note_on_c, 1, 80, 0
4, 111136, Note_on_c, 1, 70, 96
4, 111136, Note_on_c, 1, 77, 103
4, 111137, Control_c, 1, 11, 95
4, 111159, Control_c, 1, 11, 96
4, 111166, Note_on_c, 1, 70, 0
4, 111166, Note_on_c, 1, 77, 0
4, 111168, Note_on_c, 1, 68, 100
4, 111168, Note_on_c, 1, 75, 104
4, 111181, Control_c, 1, 11, 97
4, 111203, Control_c, 1, 11, 98
4, 111225, Control_c, 1, 11, 99
4, 111247, Control_c, 1, 11, 100
4, 111269, Control_c, 1, 11, 101
4, 111291, Control_c, 1, 11, 102
4, 111313, Control_c, 1, 11, 103
4, 111326, Note_on_c, 1, 68, 0
4, 111326, Note_on_c, 1, 75, 0
4, 111328, Note_on_c, 1, 70, 99
4, 111328, Note_on_c, 1, 77, 99
4, 111335, Control_c, 1, 11, 104
4, 111357, Control_c, 1, 11, 105
4, 111379, Control_c, 1, 11, 106
4, 111390, Note_on_c, 1, 70, 0
4, 111390, Note_on_c, 1, 77, 0
4, 111392, Note_on_c, 1, 73, 100
4, 111392, Note_on_c, 1, 80, 96
4, 111401, Control_c, 1, 11, 107
4, 111423, Control_c, 1, 11, 108
4, 111445, Control_c, 1, 11, 109
4, 111454, Note_on_c, 1, 73, 0
4, 111454, Note_on_c, 1, 80, 0
4, 111456, Note_on_c, 1, 75, 100
4, 111456, Note_on_c, 1, 82, 98
4, 111466, Control_c, 1, 11, 110
4, 111488, Control_c, 1, 11, 111
4, 111510, Control_c, 1, 11, 112
4, 111518, Note_on_c, 1, 75, 0
4, 111518, Note_on_c, 1, 82, 0
4, 111520, Note_on_c, 1, 73, 102
4, 111520, Note_on_c, 1, 80, 95
4, 111532, Control_c, 1, 11, 113
4, 111554, Control_c, 1, 11, 114
4, 111576, Control_c, 1, 11, 115
4, 111582, Note_on_c, 1, 73, 0
4, 111582, Note_on_c, 1, 80, 0
4, 111584, Note_on_c, 1, 70, 102
4, 111584, Note_on_c, 1, 77, 103
4, 111598, Control_c, 1, 11, 116
4, 111620, Control_c, 1, 11, 117
4, 111642, Control_c, 1, 11, 118
4, 111646, Note_on_c, 1, 70, 0
4, 111646, Note_on_c, 1, 77, 0
4, 111648, Note_on_c, 1, 70, 95
4, 111648, Note_on_c, 1, 77, 99
4, 111664, Control_c, 1, 11, 119
4, 111686, Control_c, 1, 11, 120
4, 111708, Control_c, 1, 11, 121
4, 111710, Note_on_c, 1, 70, 0
4, 111710, Note_on_c, 1, 77, 0
4, 111712, Note_on_c, 1, 73, 100
4, 111712, Note_on_c, 1, 80, 100
4, 111730, Control_c, 1, 11, 122
4, 111752, Control_c, 1, 11, 123
4, 111774, Note_on_c, 1, 73, 0
4, 111774, Note_on_c, 1, 80, 0
4, 111774, Control_c, 1, 11, 124
4, 111776, Note_on_c, 1, 75, 104
4, 111776, Note_on_c, 1, 82, 102
4, 111796, Control_c, 1, 11, 125
4, 111818, Control_c, 1, 11, 126
4, 111838, Note_on_c, 1, 75, 0
4, 111838, Note_on_c, 1, 82, 0
4, 111840, Control_c, 1, 11, 127
4, 111840, Control_c, 1, 11, 92
4, 111840, Note_on_c, 1, 75, 127
4, 111840, Note_on_c, 1, 82, 125
4, 111850, Control_c, 1, 11, 93
4, 111861, Control_c, 1, 11, 94
4, 111872, Control_c, 1, 11, 95
4, 111883, Control_c, 1, 11, 96
4, 111894, Control_c, 1, 11, 97
4, 111902, Note_on_c, 1, 75, 0
4, 111902, Note_on_c, 1, 82, 0
4, 111904, Note_on_c, 1, 73, 127
4, 111904, Note_on_c, 1, 80, 126
4, 111905, Control_c, 1, 11, 98
4, 111916, Control_c, 1, 11, 99
4, 111927, Control_c, 1, 11, 100
4, 111938, Control_c, 1, 11, 101
4, 111949, Control_c, 1, 11, 102
4, 111960, Control_c, 1, 11, 103
4, 111966, Note_on_c, 1, 73, 0
4, 111966, Note_on_c, 1, 80, 0
4, 111968, Note_on_c, 1, 70, 124
4, 111968, Note_on_c, 1, 77, 125
4, 111971, Control_c, 1, 11, 104
4, 111982, Control_c, 1, 11, 105
4, 111993, Control_c, 1, 11, 106
4, 112004, Control_c, 1, 11, 107
4, 112015, Control_c, 1, 11, 108
4, 112026, Control_c, 1, 11, 109
4, 112030, Note_on_c, 1, 70, 0
4, 112030, Note_on_c, 1, 77, 0
4, 112032, Note_on_c, 1, 70, 127
4, 112032, Note_on_c, 1, 77, 126
4, 112037, Control_c, 1, 11, 110
4, 112048, Control_c, 1, 11, 111
4, 112059, Control_c, 1, 11, 112
4, 112070, Control_c, 1, 11, 113
4, 112081, Control_c, 1, 11, 114
4, 112092, Control_c, 1, 11, 115
4, 112094, Note_on_c, 1, 70, 0
4, 112094, Note_on_c, 1, 77, 0
4, 112096, Note_on_c, 1, 73, 127
4, 112096, Note_on_c, 1, 80, 125
4, 112103, Control_c, 1, 11, 116
4, 112114, Control_c, 1, 11, 117
4, 112125, Control_c, 1, 11, 118
4, 112136, Control_c, 1, 11, 119
4, 112147, Control_c, 1, 11, 120
4, 112158, Note_on_c, 1, 73, 0
4, 112158, Note_on_c, 1, 80, 0
4, 112158, Control_c, 1, 11, 121
4, 112160, Note_on_c, 1, 75, 127
4, 112160, Note_on_c, 1, 82, 122
4, 112169, Control_c, 1, 11, 122
4, 112180, Control_c, 1, 11, 123
4, 112191, Control_c, 1, 11, 124
4, 112202, Control_c, 1, 11, 125
4, 112213, Control_c, 1, 11, 126
4, 112222, Note_on_c, 1, 75, 0
4, 112222, Note_on_c, 1, 82, 0
4, 112224, Control_c, 1, 11, 127
4, 112224, Control_c, 1, 11, 92
4, 112224, Note_on_c, 1, 75, 127
4, 112224, Note_on_c, 1, 82, 125
4, 112234, Control_c, 1, 11, 93
4, 112245, Control_c, 1, 11, 94
4, 112256, Control_c, 1, 11, 95
4, 112267, Control_c, 1, 11, 96
4, 112278, Control_c, 1, 11, 97
4, 112286, Note_on_c, 1, 75, 0
4, 112286, Note_on_c, 1, 82, 0
4, 112288, Note_on_c, 1, 73, 127
4, 112288, Note_on_c, 1, 80, 127
4, 112289, Control_c, 1, 11, 98
4, 112300, Control_c, 1, 11, 99
4, 112311, Control_c, 1, 11, 100
4, 112322, Control_c, 1, 11, 101
4, 112333, Control_c, 1, 11, 102
4, 112344, Control_c, 1, 11, 103
4, 112350, Note_on_c, 1, 73, 0
4, 112350, Note_on_c, 1, 80, 0
4, 112352, Note_on_c, 1, 70, 125
4, 112352, Note_on_c, 1, 77, 126
4, 112355, Control_c, 1, 11, 104
4, 112366, Control_c, 1, 11, 105
4, 112377, Control_c, 1, 11, 106
4, 112388, Control_c, 1, 11, 107
4, 112399, Control_c, 1, 11, 108
4, 112410, Control_c, 1, 11, 109
4, 112414, Note_on_c, 1, 70, 0
4, 112414, Note_on_c, 1, 77, 0
4, 112416, Note_on_c, 1, 70, 126
4, 112416, Note_on_c, 1, 77, 127
4, 112421, Control_c, 1, 11, 110
4, 112432, Control_c, 1, 11, 111
4, 112443, Control_c, 1, 11, 112
4, 112454, Control_c, 1, 11, 113
4, 112465, Control_c, 1, 11, 114
4, 112476, Control_c, 1, 11, 115
4, 112478, Note_on_c, 1, 70, 0
4, 112478, Note_on_c, 1, 77, 0
4, 112480, Note_on_c, 1, 73, 122
4, 112480, Note_on_c, 1, 80, 127
4, 112487, Control_c, 1, 11, 116
4, 112498, Control_c, 1, 11, 117
4, 112509, Control_c, 1, 11, 118
4, 112520, Control_c, 1, 11, 119
4, 112531, Control_c, 1, 11, 120
4, 112542, Note_on_c, 1, 73, 0
4, 112542, Note_on_c, 1, 80, 0
4, 112542, Control_c, 1, 11, 121
4, 112544, Note_on_c, 1, 75, 127
4, 112544, Note_on_c, 1, 82, 127
4, 112553, Control_c, 1, 11, 122
4, 112564, Control_c, 1, 11, 123
4, 112575, Control_c, 1, 11, 124
4, 112586, Control_c, 1, 11, 125
4, 112597, Control_c, 1, 11, 126
4, 112606, Note_on_c, 1, 75, 0
4, 112606, Note_on_c, 1, 82, 0
4, 112608, Control_c, 1, 11, 127
4, 112608, Control_c, 1, 11, 92
4, 112608, Note_on_c, 1, 72, 127
4, 112608, Note_on_c, 1, 79, 125
4, 112618, Control_c, 1, 11, 93
4, 112629, Control_c, 1, 11, 94
4, 112640, Control_c, 1, 11, 95
4, 112651, Control_c, 1, 11, 96
4, 112656, Note_on_c, 1, 72, 0
4, 112656, Note_on_c, 1, 79, 0
4, 112656, Note_on_c, 1, 70, 126
4, 112656, Note_on_c, 1, 77, 125
4, 112662, Control_c, 1, 11, 97
4, 112673, Control_c, 1, 11, 98
4, 112684, Control_c, 1, 11, 99
4, 112695, Control_c, 1, 11, 100
4, 112706, Control_c, 1, 11, 101
4, 112717, Control_c, 1, 11, 102
4, 112728, Control_c, 1, 11, 103
4, 112739, Control_c, 1, 11, 104
4, 112750, Control_c, 1, 11, 105
4, 112761, Control_c, 1, 11, 106
4, 112772, Control_c, 1, 11, 107
4, 112783, Control_c, 1, 11, 108
4, 112794, Control_c, 1, 11, 109
4, 112805, Control_c, 1, 11, 110
4, 112816, Control_c, 1, 11, 111
4, 112827, Control_c, 1, 11, 112
4, 112838, Control_c, 1, 11, 113
4, 112849, Control_c, 1, 11, 114
4, 112860, Control_c, 1, 11, 115
4, 112871, Control_c, 1, 11, 116
4, 112882, Control_c, 1, 11, 117
4, 112893, Control_c, 1, 11, 118
4, 112896, Note_on_c, 1, 70, 0
4, 112896, Note_on_c, 1, 77, 0
4, 112896, Note_on_c, 1, 72, 127
4, 112896, Note_on_c, 1, 79, 124
4, 112904, Control_c, 1, 11, 119
4, 112915, Control_c, 1, 11, 120
4, 112926, Control_c, 1, 11, 121
4, 112937, Control_c, 1, 11, 122
4, 112948, Control_c, 1, 11, 123
4, 112959, Control_c, 1, 11, 124
4, 112970, Control_c, 1, 11, 125
4, 112981, Control_c, 1, 11, 126
4, 112990, Note_on_c, 1, 72, 0
4, 112990, Note_on_c, 1, 79, 0
4, 112992, Control_c, 1, 11, 127
4, 112992, Control_c, 1, 11, 75
4, 112992, Note_on_c, 1, 75, 127
4, 112992, Note_on_c, 1, 82, 126
4, 112993, Control_c, 1, 11, 76
4, 112995, Control_c, 1, 11, 77
4, 112997, Control_c, 1, 11, 78
4, 112999, Control_c, 1, 11, 79
4, 113001, Control_c, 1, 11, 80
4, 113003, Control_c, 1, 11, 81
4, 113004, Control_c, 1, 11, 82
4, 113006, Control_c, 1, 11, 83
4, 113008, Control_c, 1, 11, 84
4, 113010, Control_c, 1, 11, 85
4, 113012, Control_c, 1, 11, 86
4, 113014, Control_c, 1, 11, 87
4, 113016, Control_c, 1, 11, 88
4, 113017, Control_c, 1, 11, 89
4, 113019, Control_c, 1, 11, 90
4, 113021, Control_c, 1, 11, 91
4, 113023, Control_c, 1, 11, 92
4, 113025, Control_c, 1, 11, 93
4, 113027, Control_c, 1, 11, 94
4, 113028, Control_c, 1, 11, 95
4, 113030, Control_c, 1, 11, 96
4, 113032, Control_c, 1, 11, 97
4, 113034, Control_c, 1, 11, 98
4, 113036, Control_c, 1, 11, 99
4, 113038, Control_c, 1, 11, 100
4, 113040, Control_c, 1, 11, 101
4, 113041, Control_c, 1, 11, 102
4, 113043, Control_c, 1, 11, 103
4, 113045, Control_c, 1, 11, 104
4, 113047, Control_c, 1, 11, 105
4, 113049, Control_c, 1, 11, 106
4, 113051, Control_c, 1, 11, 107
4, 113052, Control_c, 1, 11, 108
4, 113054, Control_c, 1, 11, 109
4, 113056, Control_c, 1, 11, 110
4, 113058, Control_c, 1, 11, 111
4, 113060, Control_c, 1, 11, 112
4, 113062, Control_c, 1, 11, 113
4, 113064, Control_c, 1, 11, 114
4, 113065, Control_c, 1, 11, 115
4, 113067, Control_c, 1, 11, 116
4, 113069, Control_c, 1, 11, 117
4, 113071, Control_c, 1, 11, 118
4, 113073, Control_c, 1, 11, 119
4, 113075, Control_c, 1, 11, 120
4, 113076, Control_c, 1, 11, 121
4, 113078, Control_c, 1, 11, 122
4, 113080, Control_c, 1, 11, 123
4, 113082, Control_c, 1, 11, 124
4, 113084, Control_c, 1, 11, 125
4, 113086, Control_c, 1, 11, 126
4, 113088, Control_c, 1, 11, 127
4, 113089, Control_c, 1, 11, 126
4, 113091, Control_c, 1, 11, 125
4, 113093, Control_c, 1, 11, 124
4, 113095, Control_c, 1, 11, 123
4, 113097, Control_c, 1, 11, 122
4, 113099, Control_c, 1, 11, 121
4, 113100, Control_c, 1, 11, 120
4, 113102, Control_c, 1, 11, 119
4, 113104, Control_c, 1, 11, 118
4, 113106, Control_c, 1, 11, 117
4, 113108, Control_c, 1, 11, 116
4, 113110, Control_c, 1, 11, 115
4, 113112, Control_c, 1, 11, 114
4, 113113, Control_c, 1, 11, 113
4, 113115, Control_c, 1, 11, 112
4, 113117, Control_c, 1, 11, 111
4, 113119, Control_c, 1, 11, 110
4, 113121, Control_c, 1, 11, 109
4, 113123, Control_c, 1, 11, 108
4, 113124, Control_c, 1, 11, 107
4, 113126, Control_c, 1, 11, 106
4, 113128, Control_c, 1, 11, 105
4, 113130, Control_c, 1, 11, 104
4, 113132, Control_c, 1, 11, 103
4, 113134, Control_c, 1, 11, 102
4, 113136, Control_c, 1, 11, 101
4, 113137, Control_c, 1, 11, 100
4, 113139, Control_c, 1, 11, 99
4, 113141, Control_c, 1, 11, 98
4, 113143, Control_c, 1, 11, 97
4, 113145, Control_c, 1, 11, 96
4, 113147, Control_c, 1, 11, 95
4, 113148, Control_c, 1, 11, 94
4, 113150, Control_c, 1, 11, 93
4, 113152, Note_on_c, 1, 75, 0
4, 113152, Note_on_c, 1, 82, 0
4, 113152, Control_c, 1, 11, 92
4, 113154, Control_c, 1, 11, 91
4, 113156, Control_c, 1, 11, 90
4, 113158, Control_c, 1, 11, 89
4, 113160, Control_c, 1, 11, 88
4, 113161, Control_c, 1, 11, 87
4, 113163, Control_c, 1, 11, 86
4, 113165, Control_c, 1, 11, 85
4, 113167, Control_c, 1, 11, 84
4, 113169, Control_c, 1, 11, 83
4, 113171, Control_c, 1, 11, 82
4, 113172, Control_c, 1, 11, 81
4, 113174, Control_c, 1, 11, 80
4, 113176, Control_c, 1, 11, 79
4, 113178, Control_c, 1, 11, 78
4, 113180, Control_c, 1, 11, 77
4, 113182, Control_c, 1, 11, 76
4, 113184, Control_c, 1, 11, 75
4, 113184, Control_c, 1, 11, 75
4, 113184, Note_on_c, 1, 73, 124
4, 113184, Note_on_c, 1, 80, 127
4, 113185, Control_c, 1, 11, 76
4, 113187, Control_c, 1, 11, 77
4, 113189, Control_c, 1, 11, 78
4, 113191, Control_c, 1, 11, 79
4, 113193, Control_c, 1, 11, 80
4, 113195, Control_c, 1, 11, 81
4, 113196, Control_c, 1, 11, 82
4, 113198, Control_c, 1, 11, 83
4, 113200, Control_c, 1, 11, 84
4, 113202, Control_c, 1, 11, 85
4, 113204, Control_c, 1, 11, 86
4, 113206, Control_c, 1, 11, 87
4, 113208, Control_c, 1, 11, 88
4, 113209, Control_c, 1, 11, 89
4, 113211, Control_c, 1, 11, 90
4, 113213, Control_c, 1, 11, 91
4, 113215, Control_c, 1, 11, 92
4, 113217, Control_c, 1, 11, 93
4, 113219, Control_c, 1, 11, 94
4, 113220, Control_c, 1, 11, 95
4, 113222, Control_c, 1, 11, 96
4, 113224, Control_c, 1, 11, 97
4, 113226, Control_c, 1, 11, 98
4, 113228, Control_c, 1, 11, 99
4, 113230, Control_c, 1, 11, 100
4, 113232, Control_c, 1, 11, 101
4, 113233, Control_c, 1, 11, 102
4, 113235, Control_c, 1, 11, 103
4, 113237, Control_c, 1, 11, 104
4, 113239, Control_c, 1, 11, 105
4, 113241, Control_c, 1, 11, 106
4, 113243, Control_c, 1, 11, 107
4, 113244, Control_c, 1, 11, 108
4, 113246, Control_c, 1, 11, 109
4, 113248, Control_c, 1, 11, 110
4, 113250, Control_c, 1, 11, 111
4, 113252, Control_c, 1, 11, 112
4, 113254, Control_c, 1, 11, 113
4, 113256, Control_c, 1, 11, 114
4, 113257, Control_c, 1, 11, 115
4, 113259, Control_c, 1, 11, 116
4, 113261, Control_c, 1, 11, 117
4, 113263, Control_c, 1, 11, 118
4, 113265, Control_c, 1, 11, 119
4, 113267, Control_c, 1, 11, 120
4, 113268, Control_c, 1, 11, 121
4, 113270, Control_c, 1, 11, 122
4, 113272, Control_c, 1, 11, 123
4, 113274, Control_c, 1, 11, 124
4, 113276, Control_c, 1, 11, 125
4, 113278, Control_c, 1, 11, 126
4, 113280, Control_c, 1, 11, 127
4, 113281, Control_c, 1, 11, 126
4, 113283, Control_c, 1, 11, 125
4, 113285, Control_c, 1, 11, 124
4, 113287, Control_c, 1, 11, 123
4, 113289, Control_c, 1, 11, 122
4, 113291, Control_c, 1, 11, 121
4, 113292, Control_c, 1, 11, 120
4, 113294, Control_c, 1, 11, 119
4, 113296, Control_c, 1, 11, 118
4, 113298, Control_c, 1, 11, 117
4, 113300, Control_c, 1, 11, 116
4, 113302, Control_c, 1, 11, 115
4, 113304, Control_c, 1, 11, 114
4, 113305, Control_c, 1, 11, 113
4, 113307, Control_c, 1, 11, 112
4, 113309, Control_c, 1, 11, 111
4, 113311, Control_c, 1, 11, 110
4, 113313, Control_c, 1, 11, 109
4, 113315, Control_c, 1, 11, 108
4, 113316, Control_c, 1, 11, 107
4, 113318, Control_c, 1, 11, 106
4, 113320, Control_c, 1, 11, 105
4, 113322, Control_c, 1, 11, 104
4, 113324, Control_c, 1, 11, 103
4, 113326, Control_c, 1, 11, 102
4, 113328, Control_c, 1, 11, 101
4, 113329, Control_c, 1, 11, 100
4, 113331, Control_c, 1, 11, 99
4, 113333, Control_c, 1, 11, 98
4, 113335, Control_c, 1, 11, 97
4, 113337, Control_c, 1, 11, 96
4, 113339, Control_c, 1, 11, 95
4, 113340, Control_c, 1, 11, 94
4, 113342, Control_c, 1, 11, 93
4, 113344, Note_on_c, 1, 73, 0
4, 113344, Note_on_c, 1, 80, 0
4, 113344, Control_c, 1, 11, 92
4, 113346, Control_c, 1, 11, 91
4, 113348, Control_c, 1, 11, 90
4, 113350, Control_c, 1, 11, 89
4, 113352, Control_c, 1, 11, 88
4, 113353, Control_c, 1, 11, 87
4, 113355, Control_c, 1, 11, 86
4, 113357, Control_c, 1, 11, 85
4, 113359, Control_c, 1, 11, 84
4, 113361, Control_c, 1, 11, 83
4, 113363, Control_c, 1, 11, 82
4, 113364, Control_c, 1, 11, 81
4, 113366, Control_c, 1, 11, 80
4, 113368, Control_c, 1, 11, 79
4, 113370, Control_c, 1, 11, 78
4, 113372, Control_c, 1, 11, 77
4, 113374, Control_c, 1, 11, 76
4, 113376, Control_c, 1, 11, 75
4, 113376, Control_c, 1, 11, 75
4, 113376, Note_on_c, 1, 70, 122
4, 113376, Note_on_c, 1, 77, 126
4, 113377, Control_c, 1, 11, 76
4, 113379, Control_c, 1, 11, 77
4, 113381, Control_c, 1, 11, 78
4, 113383, Control_c, 1, 11, 79
4, 113385, Control_c, 1, 11, 80
4, 113387, Control_c, 1, 11, 81
4, 113388, Control_c, 1, 11, 82
4, 113390, Control_c, 1, 11, 83
4, 113392, Control_c, 1, 11, 84
4, 113394, Control_c, 1, 11, 85
4, 113396, Control_c, 1, 11, 86
4, 113398, Control_c, 1, 11, 87
4, 113400, Control_c, 1, 11, 88
4, 113401, Control_c, 1, 11, 89
4, 113403, Control_c, 1, 11, 90
4, 113405, Control_c, 1, 11, 91
4, 113407, Control_c, 1, 11, 92
4, 113409, Control_c, 1, 11, 93
4, 113411, Control_c, 1, 11, 94
4, 113412, Control_c, 1, 11, 95
4, 113414, Control_c, 1, 11, 96
4, 113416, Control_c, 1, 11, 97
4, 113418, Control_c, 1, 11, 98
4, 113420, Control_c, 1, 11, 99
4, 113422, Control_c, 1, 11, 100
4, 113424, Control_c, 1, 11, 101
4, 113425, Control_c, 1, 11, 102
4, 113427, Control_c, 1, 11, 103
4, 113429, Control_c, 1, 11, 104
4, 113431, Control_c, 1, 11, 105
4, 113433, Control_c, 1, 11, 106
4, 113435, Control_c, 1, 11, 107
4, 113436, Control_c, 1, 11, 108
4, 113438, Control_c, 1, 11, 109
4, 113440, Control_c, 1, 11, 110
4, 113442, Control_c, 1, 11, 111
4, 113444, Control_c, 1, 11, 112
4, 113446, Control_c, 1, 11, 113
4, 113448, Control_c, 1, 11, 114
4, 113449, Control_c, 1, 11, 115
4, 113451, Control_c, 1, 11, 116
4, 113453, Control_c, 1, 11, 117
4, 113455, Control_c, 1, 11, 118
4, 113457, Control_c, 1, 11, 119
4, 113459, Control_c, 1, 11, 120
4, 113460, Control_c, 1, 11, 121
4, 113462, Control_c, 1, 11, 122
4, 113464, Control_c, 1, 11, 123
4, 113466, Control_c, 1, 11, 124
4, 113468, Control_c, 1, 11, 125
4, 113470, Control_c, 1, 11, 126
4, 113472, Control_c, 1, 11, 127
4, 113474, Control_c, 1, 11, 126
4, 113476, Control_c, 1, 11, 125
4, 113478, Control_c, 1, 11, 124
4, 113481, Control_c, 1, 11, 123
4, 113483, Control_c, 1, 11, 122
4, 113485, Control_c, 1, 11, 121
4, 113487, Control_c, 1, 11, 120
4, 113490, Control_c, 1, 11, 119
4, 113492, Control_c, 1, 11, 118
4, 113494, Control_c, 1, 11, 117
4, 113496, Control_c, 1, 11, 116
4, 113499, Control_c, 1, 11, 115
4, 113501, Control_c, 1, 11, 114
4, 113503, Control_c, 1, 11, 113
4, 113506, Control_c, 1, 11, 112
4, 113508, Control_c, 1, 11, 111
4, 113510, Control_c, 1, 11, 110
4, 113512, Control_c, 1, 11, 109
4, 113515, Control_c, 1, 11, 108
4, 113517, Control_c, 1, 11, 107
4, 113519, Control_c, 1, 11, 106
4, 113521, Control_c, 1, 11, 105
4, 113524, Control_c, 1, 11, 104
4, 113526, Control_c, 1, 11, 103
4, 113528, Control_c, 1, 11, 102
4, 113530, Control_c, 1, 11, 101
4, 113533, Control_c, 1, 11, 100
4, 113535, Control_c, 1, 11, 99
4, 113537, Control_c, 1, 11, 98
4, 113540, Control_c, 1, 11, 97
4, 113542, Control_c, 1, 11, 96
4, 113544, Control_c, 1, 11, 95
4, 113546, Control_c, 1, 11, 94
4, 113549, Control_c, 1, 11, 93
4, 113551, Control_c, 1, 11, 92
4, 113553, Control_c, 1, 11, 91
4, 113555, Control_c, 1, 11, 90
4, 113558, Control_c, 1, 11, 89
4, 113560, Control_c, 1, 11, 88
4, 113562, Control_c, 1, 11, 87
4, 113564, Control_c, 1, 11, 86
4, 113567, Control_c, 1, 11, 85
4, 113569, Control_c, 1, 11, 84
4, 113571, Control_c, 1, 11, 83
4, 113574, Control_c, 1, 11, 82
4, 113576, Control_c, 1, 11, 81
4, 113578, Control_c, 1, 11, 80
4, 113580, Control_c, 1, 11, 79
4, 113583, Control_c, 1, 11, 78
4, 113585, Control_c, 1, 11, 77
4, 113587, Control_c, 1, 11, 76
4, 113589, Control_c, 1, 11, 75
4, 113592, Control_c, 1, 11, 74
4, 113594, Control_c, 1, 11, 73
4, 113596, Control_c, 1, 11, 72
4, 113598, Control_c, 1, 11, 71
4, 113601, Control_c, 1, 11, 70
4, 113603, Control_c, 1, 11, 69
4, 113605, Control_c, 1, 11, 68
4, 113608, Control_c, 1, 11, 67
4, 113610, Control_c, 1, 11, 66
4, 113612, Control_c, 1, 11, 65
4, 113614, Control_c, 1, 11, 64
4, 113617, Control_c, 1, 11, 63
4, 113619, Control_c, 1, 11, 62
4, 113621, Control_c, 1, 11, 61
4, 113623, Control_c, 1, 11, 60
4, 113626, Control_c, 1, 11, 59
4, 113628, Control_c, 1, 11, 58
4, 113630, Control_c, 1, 11, 57
4, 113633, Control_c, 1, 11, 56
4, 113635, Control_c, 1, 11, 55
4, 113637, Control_c, 1, 11, 54
4, 113639, Control_c, 1, 11, 53
4, 113642, Control_c, 1, 11, 52
4, 113644, Control_c, 1, 11, 51
4, 113646, Control_c, 1, 11, 50
4, 113648, Control_c, 1, 11, 49
4, 113651, Control_c, 1, 11, 48
4, 113653, Control_c, 1, 11, 47
4, 113655, Control_c, 1, 11, 46
4, 113657, Control_c, 1, 11, 45
4, 113660, Control_c, 1, 11, 44
4, 113662, Control_c, 1, 11, 43
4, 113664, Control_c, 1, 11, 42
4, 113667, Control_c, 1, 11, 41
4, 113669, Control_c, 1, 11, 40
4, 113671, Control_c, 1, 11, 39
4, 113673, Control_c, 1, 11, 38
4, 113676, Control_c, 1, 11, 37
4, 113678, Control_c, 1, 11, 36
4, 113680, Control_c, 1, 11, 35
4, 113682, Control_c, 1, 11, 34
4, 113685, Control_c, 1, 11, 33
4, 113687, Control_c, 1, 11, 32
4, 113689, Control_c, 1, 11, 31
4, 113691, Control_c, 1, 11, 30
4, 113694, Control_c, 1, 11, 29
4, 113696, Control_c, 1, 11, 28
4, 113698, Control_c, 1, 11, 27
4, 113701, Control_c, 1, 11, 26
4, 113703, Control_c, 1, 11, 25
4, 113705, Control_c, 1, 11, 24
4, 113707, Control_c, 1, 11, 23
4, 113710, Control_c, 1, 11, 22
4, 113712, Control_c, 1, 11, 21
4, 113714, Control_c, 1, 11, 20
4, 113716, Control_c, 1, 11, 19
4, 113719, Control_c, 1, 11, 18
4, 113721, Control_c, 1, 11, 17
4, 113723, Control_c, 1, 11, 16
4, 113725, Control_c, 1, 11, 15
4, 113728, Note_on_c, 1, 70, 0
4, 113728, Note_on_c, 1, 77, 0
4, 113728, Control_c, 1, 11, 14
4, 113730, Control_c, 1, 11, 13
4, 113732, Control_c, 1, 11, 12
4, 113735, Control_c, 1, 11, 11
4, 113737, Control_c, 1, 11, 10
4, 113739, Control_c, 1, 11, 9
4, 113741, Control_c, 1, 11, 8
4, 113744, Control_c, 1, 11, 7
4, 113746, Control_c, 1, 11, 6
4, 113748, Control_c, 1, 11, 5
4, 113750, Control_c, 1, 11, 4
4, 113753, Control_c, 1, 11, 3
4, 113755, Control_c, 1, 11, 2
4, 113757, Control_c, 1, 11, 1
4, 113760, Control_c, 1, 11, 0
4, 113760, End_track
5, 0, Start_track
5, 0, Title_t, "Corno inglese"
5, 0, MIDI_port, 0
5, 85, Control_c, 2, 0, 0
5, 86, Control_c, 2, 32, 0
5, 87, Program_c, 2, 69
5, 88, Control_c, 2, 7, 127
5, 89, Control_c, 2, 91, 64
5, 10752, Note_on_c, 2, 60, 46
5, 11262, Note_on_c, 2, 60, 0
5, 11264, Note_on_c, 2, 60, 43
5, 11390, Note_on_c, 2, 60, 0
5, 11392, Note_on_c, 2, 60, 50
5, 11520, Control_c, 2, 11, 127
5, 11526, Control_c, 2, 11, 126
5, 11532, Control_c, 2, 11, 125
5, 11538, Control_c, 2, 11, 124
5, 11544, Control_c, 2, 11, 123
5, 11550, Control_c, 2, 11, 122
5, 11556, Control_c, 2, 11, 121
5, 11562, Control_c, 2, 11, 120
5, 11568, Control_c, 2, 11, 119
5, 11574, Control_c, 2, 11, 118
5, 11580, Control_c, 2, 11, 117
5, 11587, Control_c, 2, 11, 116
5, 11593, Control_c, 2, 11, 115
5, 11599, Control_c, 2, 11, 114
5, 11605, Control_c, 2, 11, 113
5, 11611, Control_c, 2, 11, 112
5, 11617, Control_c, 2, 11, 111
5, 11623, Control_c, 2, 11, 110
5, 11629, Control_c, 2, 11, 109
5, 11635, Control_c, 2, 11, 108
5, 11641, Control_c, 2, 11, 107
5, 11648, Control_c, 2, 11, 106
5, 11654, Control_c, 2, 11, 105
5, 11660, Control_c, 2, 11, 104
5, 11666, Control_c, 2, 11, 103
5, 11672, Control_c, 2, 11, 102
5, 11678, Control_c, 2, 11, 101
5, 11684, Control_c, 2, 11, 100
5, 11690, Control_c, 2, 11, 99
5, 11696, Control_c, 2, 11, 98
5, 11702, Control_c, 2, 11, 97
5, 11708, Control_c, 2, 11, 96
5, 11715, Control_c, 2, 11, 95
5, 11721, Control_c, 2, 11, 94
5, 11727, Control_c, 2, 11, 93
5, 11733, Control_c, 2, 11, 92
5, 11739, Control_c, 2, 11, 91
5, 11745, Control_c, 2, 11, 90
5, 11751, Control_c, 2, 11, 89
5, 11757, Control_c, 2, 11, 88
5, 11763, Control_c, 2, 11, 87
5, 11769, Control_c, 2, 11, 86
5, 11776, Control_c, 2, 11, 85
5, 11782, Control_c, 2, 11, 84
5, 11788, Control_c, 2, 11, 83
5, 11794, Control_c, 2, 11, 82
5, 11800, Control_c, 2, 11, 81
5, 11806, Control_c, 2, 11, 80
5, 11812, Control_c, 2, 11, 79
5, 11818, Control_c, 2, 11, 78
5, 11824, Control_c, 2, 11, 77
5, 11830, Control_c, 2, 11, 76
5, 11836, Control_c, 2, 11, 75
5, 11843, Control_c, 2, 11, 74
5, 11849, Control_c, 2, 11, 73
5, 11855, Control_c, 2, 11, 72
5, 11861, Control_c, 2, 11, 71
5, 11867, Control_c, 2, 11, 70
5, 11873, Control_c, 2, 11, 69
5, 11879, Control_c, 2, 11, 68
5, 11885, Control_c, 2, 11, 67
5, 11891, Control_c, 2, 11, 66
5, 11897, Control_c, 2, 11, 65
5, 11904, Control_c, 2, 11, 64
5, 12064, Note_on_c, 2, 60, 0
5, 12288, Control_c, 2, 11, 127
5, 12672, Control_c, 2, 11, 64
5, 12672, Note_on_c, 2, 60, 61
5, 12782, Note_on_c, 2, 60, 0
5, 12800, Note_on_c, 2, 60, 58
5, 12910, Note_on_c, 2, 60, 0
5, 12928, Note_on_c, 2, 60, 57
5, 13038, Note_on_c, 2, 60, 0
5, 13056, Note_on_c, 2, 60, 64
5, 13248, Note_on_c, 2, 60, 0
5, 13248, Note_on_c, 2, 60, 56
5, 13440, Control_c, 2, 11, 64
5, 13452, Control_c, 2, 11, 65
5, 13464, Control_c, 2, 11, 66
5, 13476, Control_c, 2, 11, 67
5, 13488, Control_c, 2, 11, 68
5, 13500, Control_c, 2, 11, 69
5, 13513, Control_c, 2, 11, 70
5, 13525, Control_c, 2, 11, 71
5, 13537, Control_c, 2, 11, 72
5, 13549, Control_c, 2, 11, 73
5, 13561, Control_c, 2, 11, 74
5, 13574, Control_c, 2, 11, 75
5, 13586, Control_c, 2, 11, 76
5, 13598, Control_c, 2, 11, 77
5, 13610, Control_c, 2, 11, 78
5, 13622, Control_c, 2, 11, 79
5, 13632, Note_on_c, 2, 60, 0
5, 13632, Note_on_c, 2, 62, 63
5, 13635, Control_c, 2, 11, 80
5, 13647, Control_c, 2, 11, 81
5, 13659, Control_c, 2, 11, 82
5, 13671, Control_c, 2, 11, 83
5, 13683, Control_c, 2, 11, 84
5, 13696, Control_c, 2, 11, 85
5, 13708, Control_c, 2, 11, 86
5, 13720, Control_c, 2, 11, 87
5, 13732, Control_c, 2, 11, 88
5, 13744, Control_c, 2, 11, 89
5, 13756, Control_c, 2, 11, 90
5, 13769, Control_c, 2, 11, 91
5, 13781, Control_c, 2, 11, 92
5, 13793, Control_c, 2, 11, 93
5, 13805, Control_c, 2, 11, 94
5, 13817, Control_c, 2, 11, 95
5, 13824, Note_on_c, 2, 62, 0
5, 13824, Note_on_c, 2, 65, 57
5, 13830, Control_c, 2, 11, 96
5, 13842, Control_c, 2, 11, 97
5, 13854, Control_c, 2, 11, 98
5, 13866, Control_c, 2, 11, 99
5, 13878, Control_c, 2, 11, 100
5, 13891, Control_c, 2, 11, 101
5, 13903, Control_c, 2, 11, 102
5, 13915, Control_c, 2, 11, 103
5, 13927, Control_c, 2, 11, 104
5, 13939, Control_c, 2, 11, 105
5, 13952, Control_c, 2, 11, 106
5, 13964, Control_c, 2, 11, 107
5, 13976, Control_c, 2, 11, 108
5, 13988, Control_c, 2, 11, 109
5, 14000, Control_c, 2, 11, 110
5, 14012, Control_c, 2, 11, 111
5, 14025, Control_c, 2, 11, 112
5, 14037, Control_c, 2, 11, 113
5, 14049, Control_c, 2, 11, 114
5, 14061, Control_c, 2, 11, 115
5, 14073, Control_c, 2, 11, 116
5, 14086, Control_c, 2, 11, 117
5, 14098, Control_c, 2, 11, 118
5, 14110, Control_c, 2, 11, 119
5, 14122, Control_c, 2, 11, 120
5, 14134, Control_c, 2, 11, 121
5, 14147, Control_c, 2, 11, 122
5, 14159, Control_c, 2, 11, 123
5, 14171, Control_c, 2, 11, 124
5, 14183, Control_c, 2, 11, 125
5, 14195, Control_c, 2, 11, 126
5, 14208, Control_c, 2, 11, 127
5, 14220, Control_c, 2, 11, 126
5, 14232, Control_c, 2, 11, 125
5, 14244, Control_c, 2, 11, 124
5, 14256, Control_c, 2, 11, 123
5, 14268, Control_c, 2, 11, 122
5, 14281, Control_c, 2, 11, 121
5, 14293, Control_c, 2, 11, 120
5, 14305, Control_c, 2, 11, 119
5, 14317, Control_c, 2, 11, 118
5, 14329, Control_c, 2, 11, 117
5, 14336, Note_on_c, 2, 65, 0
5, 14336, Note_on_c, 2, 63, 59
5, 14342, Control_c, 2, 11, 116
5, 14354, Control_c, 2, 11, 115
5, 14366, Control_c, 2, 11, 114
5, 14378, Control_c, 2, 11, 113
5, 14390, Control_c, 2, 11, 112
5, 14403, Control_c, 2, 11, 111
5, 14415, Control_c, 2, 11, 110
5, 14427, Control_c, 2, 11, 109
5, 14439, Control_c, 2, 11, 108
5, 14451, Control_c, 2, 11, 107
5, 14464, Note_on_c, 2, 63, 0
5, 14464, Control_c, 2, 11, 106
5, 14464, Note_on_c, 2, 62, 63
5, 14476, Control_c, 2, 11, 105
5, 14488, Control_c, 2, 11, 104
5, 14500, Control_c, 2, 11, 103
5, 14512, Control_c, 2, 11, 102
5, 14524, Control_c, 2, 11, 101
5, 14537, Control_c, 2, 11, 100
5, 14549, Control_c, 2, 11, 99
5, 14561, Control_c, 2, 11, 98
5, 14573, Control_c, 2, 11, 97
5, 14585, Control_c, 2, 11, 96
5, 14592, Note_on_c, 2, 62, 0
5, 14592, Note_on_c, 2, 60, 61
5, 14598, Control_c, 2, 11, 95
5, 14610, Control_c, 2, 11, 94
5, 14622, Control_c, 2, 11, 93
5, 14634, Control_c, 2, 11, 92
5, 14646, Control_c, 2, 11, 91
5, 14659, Control_c, 2, 11, 90
5, 14671, Control_c, 2, 11, 89
5, 14683, Control_c, 2, 11, 88
5, 14695, Control_c, 2, 11, 87
5, 14707, Control_c, 2, 11, 86
5, 14720, Control_c, 2, 11, 85
5, 14732, Control_c, 2, 11, 84
5, 14744, Control_c, 2, 11, 83
5, 14756, Control_c, 2, 11, 82
5, 14768, Control_c, 2, 11, 81
5, 14780, Control_c, 2, 11, 80
5, 14784, Note_on_c, 2, 60, 0
5, 14784, Note_on_c, 2, 58, 59
5, 14793, Control_c, 2, 11, 79
5, 14805, Control_c, 2, 11, 78
5, 14817, Control_c, 2, 11, 77
5, 14829, Control_c, 2, 11, 76
5, 14841, Control_c, 2, 11, 75
5, 14854, Control_c, 2, 11, 74
5, 14866, Control_c, 2, 11, 73
5, 14878, Control_c, 2, 11, 72
5, 14890, Control_c, 2, 11, 71
5, 14902, Control_c, 2, 11, 70
5, 14915, Control_c, 2, 11, 69
5, 14927, Control_c, 2, 11, 68
5, 14939, Control_c, 2, 11, 67
5, 14951, Control_c, 2, 11, 66
5, 14963, Control_c, 2, 11, 65
5, 14976, Note_on_c, 2, 58, 0
5, 14976, Control_c, 2, 11, 64
5, 14976, Note_on_c, 2, 56, 63
5, 15136, Note_on_c, 2, 56, 0
5, 15168, Note_on_c, 2, 60, 64
5, 15552, Note_on_c, 2, 60, 0
5, 15552, Note_on_c, 2, 62, 61
5, 15744, Note_on_c, 2, 62, 0
5, 15744, Note_on_c, 2, 65, 55
5, 15872, Note_on_c, 2, 65, 0
5, 15872, Note_on_c, 2, 63, 57
5, 16000, Note_on_c, 2, 63, 0
5, 16000, Note_on_c, 2, 62, 63
5, 16128, Note_on_c, 2, 62, 0
5, 16128, Control_c, 2, 11, 64
5, 16128, Note_on_c, 2, 60, 55
5, 16139, Control_c, 2, 11, 63
5, 16150, Control_c, 2, 11, 62
5, 16161, Control_c, 2, 11, 61
5, 16173, Control_c, 2, 11, 60
5, 16184, Control_c, 2, 11, 59
5, 16195, Control_c, 2, 11, 58
5, 16207, Control_c, 2, 11, 57
5, 16218, Control_c, 2, 11, 56
5, 16229, Control_c, 2, 11, 55
5, 16240, Control_c, 2, 11, 54
5, 16252, Control_c, 2, 11, 53
5, 16263, Control_c, 2, 11, 52
5, 16274, Control_c, 2, 11, 51
5, 16286, Control_c, 2, 11, 50
5, 16297, Control_c, 2, 11, 49
5, 16308, Control_c, 2, 11, 48
5, 16320, Control_c, 2, 11, 47
5, 16331, Control_c, 2, 11, 46
5, 16342, Control_c, 2, 11, 45
5, 16353, Control_c, 2, 11, 44
5, 16365, Control_c, 2, 11, 43
5, 16376, Control_c, 2, 11, 42
5, 16387, Control_c, 2, 11, 41
5, 16399, Control_c, 2, 11, 40
5, 16410, Control_c, 2, 11, 39
5, 16421, Control_c, 2, 11, 38
5, 16432, Control_c, 2, 11, 37
5, 16444, Control_c, 2, 11, 36
5, 16455, Control_c, 2, 11, 35
5, 16466, Control_c, 2, 11, 34
5, 16478, Control_c, 2, 11, 33
5, 16489, Control_c, 2, 11, 32
5, 16500, Control_c, 2, 11, 31
5, 16512, Control_c, 2, 11, 30
5, 16606, Note_on_c, 2, 60, 0
5, 22272, Control_c, 2, 11, 92
5, 22272, Note_on_c, 2, 66, 55
5, 22277, Control_c, 2, 11, 93
5, 22282, Control_c, 2, 11, 94
5, 22288, Control_c, 2, 11, 95
5, 22293, Control_c, 2, 11, 96
5, 22299, Control_c, 2, 11, 97
5, 22304, Control_c, 2, 11, 98
5, 22310, Control_c, 2, 11, 99
5, 22315, Control_c, 2, 11, 100
5, 22318, Note_on_c, 2, 66, 0
5, 22320, Note_on_c, 2, 68, 57
5, 22321, Control_c, 2, 11, 101
5, 22326, Control_c, 2, 11, 102
5, 22332, Control_c, 2, 11, 103
5, 22337, Control_c, 2, 11, 104
5, 22343, Control_c, 2, 11, 105
5, 22348, Control_c, 2, 11, 106
5, 22354, Control_c, 2, 11, 107
5, 22359, Control_c, 2, 11, 108
5, 22365, Control_c, 2, 11, 109
5, 22370, Control_c, 2, 11, 110
5, 22376, Control_c, 2, 11, 111
5, 22381, Control_c, 2, 11, 112
5, 22387, Control_c, 2, 11, 113
5, 22392, Control_c, 2, 11, 114
5, 22398, Control_c, 2, 11, 115
5, 22403, Control_c, 2, 11, 116
5, 22409, Control_c, 2, 11, 117
5, 22414, Control_c, 2, 11, 118
5, 22420, Control_c, 2, 11, 119
5, 22425, Control_c, 2, 11, 120
5, 22431, Control_c, 2, 11, 121
5, 22436, Control_c, 2, 11, 122
5, 22442, Control_c, 2, 11, 123
5, 22447, Control_c, 2, 11, 124
5, 22453, Control_c, 2, 11, 125
5, 22458, Control_c, 2, 11, 126
5, 22464, Control_c, 2, 11, 127
5, 22800, Note_on_c, 2, 68, 0
5, 22848, Control_c, 2, 11, 92
5, 22848, Note_on_c, 2, 68, 62
5, 22858, Control_c, 2, 11, 93
5, 22869, Control_c, 2, 11, 94
5, 22880, Control_c, 2, 11, 95
5, 22891, Control_c, 2, 11, 96
5, 22902, Control_c, 2, 11, 97
5, 22913, Control_c, 2, 11, 98
5, 22924, Control_c, 2, 11, 99
5, 22935, Control_c, 2, 11, 100
5, 22946, Control_c, 2, 11, 101
5, 22957, Control_c, 2, 11, 102
5, 22968, Control_c, 2, 11, 103
5, 22979, Control_c, 2, 11, 104
5, 22990, Control_c, 2, 11, 105
5, 23001, Control_c, 2, 11, 106
5, 23012, Control_c, 2, 11, 107
5, 23023, Control_c, 2, 11, 108
5, 23034, Control_c, 2, 11, 109
5, 23045, Control_c, 2, 11, 110
5, 23056, Control_c, 2, 11, 111
5, 23067, Control_c, 2, 11, 112
5, 23078, Control_c, 2, 11, 113
5, 23089, Control_c, 2, 11, 114
5, 23100, Control_c, 2, 11, 115
5, 23111, Control_c, 2, 11, 116
5, 23122, Control_c, 2, 11, 117
5, 23133, Control_c, 2, 11, 118
5, 23144, Control_c, 2, 11, 119
5, 23155, Control_c, 2, 11, 120
5, 23166, Control_c, 2, 11, 121
5, 23177, Control_c, 2, 11, 122
5, 23188, Control_c, 2, 11, 123
5, 23199, Control_c, 2, 11, 124
5, 23210, Control_c, 2, 11, 125
5, 23221, Control_c, 2, 11, 126
5, 23232, Note_on_c, 2, 68, 0
5, 23232, Control_c, 2, 11, 127
5, 23232, Note_on_c, 2, 68, 55
5, 23237, Control_c, 2, 11, 126
5, 23242, Control_c, 2, 11, 125
5, 23248, Control_c, 2, 11, 124
5, 23253, Control_c, 2, 11, 123
5, 23259, Control_c, 2, 11, 122
5, 23264, Control_c, 2, 11, 121
5, 23270, Control_c, 2, 11, 120
5, 23275, Control_c, 2, 11, 119
5, 23281, Control_c, 2, 11, 118
5, 23286, Control_c, 2, 11, 117
5, 23292, Control_c, 2, 11, 116
5, 23297, Control_c, 2, 11, 115
5, 23303, Control_c, 2, 11, 114
5, 23308, Control_c, 2, 11, 113
5, 23314, Control_c, 2, 11, 112
5, 23319, Control_c, 2, 11, 111
5, 23325, Control_c, 2, 11, 110
5, 23330, Control_c, 2, 11, 109
5, 23336, Control_c, 2, 11, 108
5, 23341, Control_c, 2, 11, 107
5, 23347, Control_c, 2, 11, 106
5, 23352, Control_c, 2, 11, 105
5, 23358, Control_c, 2, 11, 104
5, 23363, Control_c, 2, 11, 103
5, 23369, Control_c, 2, 11, 102
5, 23374, Control_c, 2, 11, 101
5, 23380, Control_c, 2, 11, 100
5, 23385, Control_c, 2, 11, 99
5, 23391, Control_c, 2, 11, 98
5, 23396, Control_c, 2, 11, 97
5, 23402, Control_c, 2, 11, 96
5, 23407, Control_c, 2, 11, 95
5, 23413, Control_c, 2, 11, 94
5, 23418, Control_c, 2, 11, 93
5, 23424, Note_on_c, 2, 68, 0
5, 23424, Control_c, 2, 11, 92
5, 24576, Control_c, 2, 11, 92
5, 24576, Note_on_c, 2, 66, 63
5, 24581, Control_c, 2, 11, 93
5, 24586, Control_c, 2, 11, 94
5, 24592, Control_c, 2, 11, 95
5, 24597, Control_c, 2, 11, 96
5, 24603, Control_c, 2, 11, 97
5, 24608, Control_c, 2, 11, 98
5, 24614, Control_c, 2, 11, 99
5, 24619, Control_c, 2, 11, 100
5, 24622, Note_on_c, 2, 66, 0
5, 24624, Note_on_c, 2, 68, 57
5, 24625, Control_c, 2, 11, 101
5, 24630, Control_c, 2, 11, 102
5, 24636, Control_c, 2, 11, 103
5, 24641, Control_c, 2, 11, 104
5, 24647, Control_c, 2, 11, 105
5, 24652, Control_c, 2, 11, 106
5, 24658, Control_c, 2, 11, 107
5, 24663, Control_c, 2, 11, 108
5, 24669, Control_c, 2, 11, 109
5, 24674, Control_c, 2, 11, 110
5, 24680, Control_c, 2, 11, 111
5, 24685, Control_c, 2, 11, 112
5, 24691, Control_c, 2, 11, 113
5, 24696, Control_c, 2, 11, 114
5, 24702, Control_c, 2, 11, 115
5, 24707, Control_c, 2, 11, 116
5, 24713, Control_c, 2, 11, 117
5, 24718, Control_c, 2, 11, 118
5, 24724, Control_c, 2, 11, 119
5, 24729, Control_c, 2, 11, 120
5, 24735, Control_c, 2, 11, 121
5, 24740, Control_c, 2, 11, 122
5, 24746, Control_c, 2, 11, 123
5, 24751, Control_c, 2, 11, 124
5, 24757, Control_c, 2, 11, 125
5, 24762, Control_c, 2, 11, 126
5, 24768, Control_c, 2, 11, 127
5, 25104, Note_on_c, 2, 68, 0
5, 25152, Control_c, 2, 11, 92
5, 25152, Note_on_c, 2, 68, 64
5, 25168, Control_c, 2, 11, 93
5, 25184, Control_c, 2, 11, 94
5, 25201, Control_c, 2, 11, 95
5, 25217, Control_c, 2, 11, 96
5, 25234, Control_c, 2, 11, 97
5, 25250, Control_c, 2, 11, 98
5, 25267, Control_c, 2, 11, 99
5, 25283, Control_c, 2, 11, 100
5, 25300, Control_c, 2, 11, 101
5, 25316, Control_c, 2, 11, 102
5, 25333, Control_c, 2, 11, 103
5, 25349, Control_c, 2, 11, 104
5, 25365, Control_c, 2, 11, 105
5, 25382, Control_c, 2, 11, 106
5, 25398, Control_c, 2, 11, 107
5, 25415, Control_c, 2, 11, 108
5, 25431, Control_c, 2, 11, 109
5, 25448, Control_c, 2, 11, 110
5, 25464, Control_c, 2, 11, 111
5, 25481, Control_c, 2, 11, 112
5, 25497, Control_c, 2, 11, 113
5, 25514, Control_c, 2, 11, 114
5, 25530, Control_c, 2, 11, 115
5, 25536, Note_on_c, 2, 68, 0
5, 25536, Note_on_c, 2, 68, 62
5, 25546, Control_c, 2, 11, 116
5, 25563, Control_c, 2, 11, 117
5, 25579, Control_c, 2, 11, 118
5, 25596, Control_c, 2, 11, 119
5, 25612, Control_c, 2, 11, 120
5, 25629, Control_c, 2, 11, 121
5, 25645, Control_c, 2, 11, 122
5, 25662, Control_c, 2, 11, 123
5, 25678, Control_c, 2, 11, 124
5, 25695, Control_c, 2, 11, 125
5, 25711, Control_c, 2, 11, 126
5, 25728, Note_on_c, 2, 68, 0
5, 25728, Control_c, 2, 11, 127
5, 26880, Control_c, 2, 11, 92
5, 26880, Note_on_c, 2, 66, 55
5, 26885, Control_c, 2, 11, 93
5, 26890, Control_c, 2, 11, 94
5, 26896, Control_c, 2, 11, 95
5, 26901, Control_c, 2, 11, 96
5, 26907, Control_c, 2, 11, 97
5, 26912, Control_c, 2, 11, 98
5, 26918, Control_c, 2, 11, 99
5, 26923, Control_c, 2, 11, 100
5, 26926, Note_on_c, 2, 66, 0
5, 26928, Note_on_c, 2, 68, 55
5, 26929, Control_c, 2, 11, 101
5, 26934, Control_c, 2, 11, 102
5, 26940, Control_c, 2, 11, 103
5, 26945, Control_c, 2, 11, 104
5, 26951, Control_c, 2, 11, 105
5, 26956, Control_c, 2, 11, 106
5, 26962, Control_c, 2, 11, 107
5, 26967, Control_c, 2, 11, 108
5, 26973, Control_c, 2, 11, 109
5, 26978, Control_c, 2, 11, 110
5, 26984, Control_c, 2, 11, 111
5, 26989, Control_c, 2, 11, 112
5, 26995, Control_c, 2, 11, 113
5, 27000, Control_c, 2, 11, 114
5, 27006, Control_c, 2, 11, 115
5, 27011, Control_c, 2, 11, 116
5, 27017, Control_c, 2, 11, 117
5, 27022, Control_c, 2, 11, 118
5, 27028, Control_c, 2, 11, 119
5, 27033, Control_c, 2, 11, 120
5, 27039, Control_c, 2, 11, 121
5, 27044, Control_c, 2, 11, 122
5, 27050, Control_c, 2, 11, 123
5, 27055, Control_c, 2, 11, 124
5, 27061, Control_c, 2, 11, 125
5, 27066, Control_c, 2, 11, 126
5, 27072, Control_c, 2, 11, 127
5, 27408, Note_on_c, 2, 68, 0
5, 27456, Control_c, 2, 11, 92
5, 27456, Note_on_c, 2, 68, 58
5, 27472, Control_c, 2, 11, 93
5, 27488, Control_c, 2, 11, 94
5, 27505, Control_c, 2, 11, 95
5, 27521, Control_c, 2, 11, 96
5, 27538, Control_c, 2, 11, 97
5, 27554, Control_c, 2, 11, 98
5, 27571, Control_c, 2, 11, 99
5, 27587, Control_c, 2, 11, 100
5, 27604, Control_c, 2, 11, 101
5, 27620, Control_c, 2, 11, 102
5, 27637, Control_c, 2, 11, 103
5, 27653, Control_c, 2, 11, 104
5, 27669, Control_c, 2, 11, 105
5, 27686, Control_c, 2, 11, 106
5, 27702, Control_c, 2, 11, 107
5, 27719, Control_c, 2, 11, 108
5, 27735, Control_c, 2, 11, 109
5, 27752, Control_c, 2, 11, 110
5, 27768, Control_c, 2, 11, 111
5, 27785, Control_c, 2, 11, 112
5, 27801, Control_c, 2, 11, 113
5, 27818, Control_c, 2, 11, 114
5, 27834, Control_c, 2, 11, 115
5, 27840, Note_on_c, 2, 68, 0
5, 27840, Note_on_c, 2, 68, 59
5, 27850, Control_c, 2, 11, 116
5, 27867, Control_c, 2, 11, 117
5, 27883, Control_c, 2, 11, 118
5, 27900, Control_c, 2, 11, 119
5, 27916, Control_c, 2, 11, 120
5, 27933, Control_c, 2, 11, 121
5, 27949, Control_c, 2, 11, 122
5, 27966, Control_c, 2, 11, 123
5, 27982, Control_c, 2, 11, 124
5, 27999, Control_c, 2, 11, 125
5, 28015, Control_c, 2, 11, 126
5, 28032, Note_on_c, 2, 68, 0
5, 28032, Control_c, 2, 11, 127
5, 29184, Control_c, 2, 11, 92
5, 29184, Note_on_c, 2, 66, 63
5, 29189, Control_c, 2, 11, 93
5, 29194, Control_c, 2, 11, 94
5, 29200, Control_c, 2, 11, 95
5, 29205, Control_c, 2, 11, 96
5, 29211, Control_c, 2, 11, 97
5, 29216, Control_c, 2, 11, 98
5, 29222, Control_c, 2, 11, 99
5, 29227, Control_c, 2, 11, 100
5, 29230, Note_on_c, 2, 66, 0
5, 29232, Note_on_c, 2, 68, 57
5, 29233, Control_c, 2, 11, 101
5, 29238, Control_c, 2, 11, 102
5, 29244, Control_c, 2, 11, 103
5, 29249, Control_c, 2, 11, 104
5, 29255, Control_c, 2, 11, 105
5, 29260, Control_c, 2, 11, 106
5, 29266, Control_c, 2, 11, 107
5, 29271, Control_c, 2, 11, 108
5, 29277, Control_c, 2, 11, 109
5, 29282, Control_c, 2, 11, 110
5, 29288, Control_c, 2, 11, 111
5, 29293, Control_c, 2, 11, 112
5, 29299, Control_c, 2, 11, 113
5, 29304, Control_c, 2, 11, 114
5, 29310, Control_c, 2, 11, 115
5, 29315, Control_c, 2, 11, 116
5, 29321, Control_c, 2, 11, 117
5, 29326, Control_c, 2, 11, 118
5, 29332, Control_c, 2, 11, 119
5, 29337, Control_c, 2, 11, 120
5, 29343, Control_c, 2, 11, 121
5, 29348, Control_c, 2, 11, 122
5, 29354, Control_c, 2, 11, 123
5, 29359, Control_c, 2, 11, 124
5, 29365, Control_c, 2, 11, 125
5, 29370, Control_c, 2, 11, 126
5, 29376, Control_c, 2, 11, 127
5, 29712, Note_on_c, 2, 68, 0
5, 29760, Control_c, 2, 11, 92
5, 29760, Note_on_c, 2, 68, 56
5, 29776, Control_c, 2, 11, 93
5, 29792, Control_c, 2, 11, 94
5, 29809, Control_c, 2, 11, 95
5, 29825, Control_c, 2, 11, 96
5, 29842, Control_c, 2, 11, 97
5, 29858, Control_c, 2, 11, 98
5, 29875, Control_c, 2, 11, 99
5, 29891, Control_c, 2, 11, 100
5, 29908, Control_c, 2, 11, 101
5, 29924, Control_c, 2, 11, 102
5, 29941, Control_c, 2, 11, 103
5, 29957, Control_c, 2, 11, 104
5, 29973, Control_c, 2, 11, 105
5, 29990, Control_c, 2, 11, 106
5, 30006, Control_c, 2, 11, 107
5, 30023, Control_c, 2, 11, 108
5, 30039, Control_c, 2, 11, 109
5, 30056, Control_c, 2, 11, 110
5, 30072, Control_c, 2, 11, 111
5, 30089, Control_c, 2, 11, 112
5, 30105, Control_c, 2, 11, 113
5, 30122, Control_c, 2, 11, 114
5, 30138, Control_c, 2, 11, 115
5, 30144, Note_on_c, 2, 68, 0
5, 30144, Note_on_c, 2, 68, 60
5, 30154, Control_c, 2, 11, 116
5, 30171, Control_c, 2, 11, 117
5, 30187, Control_c, 2, 11, 118
5, 30204, Control_c, 2, 11, 119
5, 30220, Control_c, 2, 11, 120
5, 30237, Control_c, 2, 11, 121
5, 30253, Control_c, 2, 11, 122
5, 30270, Control_c, 2, 11, 123
5, 30286, Control_c, 2, 11, 124
5, 30303, Control_c, 2, 11, 125
5, 30319, Control_c, 2, 11, 126
5, 30336, Note_on_c, 2, 68, 0
5, 30336, Control_c, 2, 11, 127
5, 40992, Note_on_c, 2, 70, 50
5, 41022, Note_on_c, 2, 70, 0
5, 41024, Note_on_c, 2, 71, 49
5, 41054, Note_on_c, 2, 71, 0
5, 41056, Note_on_c, 2, 70, 45
5, 41086, Note_on_c, 2, 70, 0
5, 41088, Note_on_c, 2, 71, 43
5, 41118, Note_on_c, 2, 71, 0
5, 41120, Note_on_c, 2, 73, 41
5, 41150, Note_on_c, 2, 73, 0
5, 41152, Note_on_c, 2, 71, 40
5, 41182, Note_on_c, 2, 71, 0
5, 41184, Note_on_c, 2, 73, 40
5, 41214, Note_on_c, 2, 73, 0
5, 41216, Note_on_c, 2, 74, 47
5, 41246, Note_on_c, 2, 74, 0
5, 41248, Note_on_c, 2, 73, 45
5, 41278, Note_on_c, 2, 73, 0
5, 41280, Note_on_c, 2, 74, 45
5, 41310, Note_on_c, 2, 74, 0
5, 41312, Note_on_c, 2, 76, 52
5, 41342, Note_on_c, 2, 76, 0
5, 41344, Note_on_c, 2, 74, 56
5, 41374, Note_on_c, 2, 74, 0
5, 41376, Note_on_c, 2, 76, 53
5, 41406, Note_on_c, 2, 76, 0
5, 41408, Note_on_c, 2, 77, 53
5, 41438, Note_on_c, 2, 77, 0
5, 41440, Note_on_c, 2, 76, 58
5, 41470, Note_on_c, 2, 76, 0
5, 41472, Note_on_c, 2, 74, 66
5, 41502, Note_on_c, 2, 74, 0
5, 41504, Note_on_c, 2, 76, 64
5, 41534, Note_on_c, 2, 76, 0
5, 41536, Note_on_c, 2, 74, 73
5, 41566, Note_on_c, 2, 74, 0
5, 41568, Note_on_c, 2, 73, 69
5, 41598, Note_on_c, 2, 73, 0
5, 41600, Note_on_c, 2, 74, 78
5, 41630, Note_on_c, 2, 74, 0
5, 41632, Note_on_c, 2, 73, 74
5, 41662, Note_on_c, 2, 73, 0
5, 41664, Note_on_c, 2, 71, 85
5, 41758, Note_on_c, 2, 71, 0
5, 41760, Note_on_c, 2, 74, 92
5, 41854, Note_on_c, 2, 74, 0
5, 41856, Control_c, 2, 11, 92
5, 41856, Note_on_c, 2, 71, 74
5, 41864, Control_c, 2, 11, 93
5, 41872, Control_c, 2, 11, 94
5, 41880, Control_c, 2, 11, 95
5, 41888, Control_c, 2, 11, 96
5, 41897, Control_c, 2, 11, 97
5, 41905, Control_c, 2, 11, 98
5, 41913, Control_c, 2, 11, 99
5, 41921, Control_c, 2, 11, 100
5, 41930, Control_c, 2, 11, 101
5, 41938, Control_c, 2, 11, 102
5, 41946, Control_c, 2, 11, 103
5, 41954, Control_c, 2, 11, 104
5, 41962, Control_c, 2, 11, 105
5, 41971, Control_c, 2, 11, 106
5, 41979, Control_c, 2, 11, 107
5, 41987, Control_c, 2, 11, 108
5, 41995, Control_c, 2, 11, 109
5, 42004, Control_c, 2, 11, 110
5, 42012, Control_c, 2, 11, 111
5, 42020, Control_c, 2, 11, 112
5, 42028, Control_c, 2, 11, 113
5, 42037, Control_c, 2, 11, 114
5, 42045, Control_c, 2, 11, 115
5, 42048, Note_on_c, 2, 71, 0
5, 42048, Note_on_c, 2, 74, 76
5, 42053, Control_c, 2, 11, 116
5, 42061, Control_c, 2, 11, 117
5, 42069, Control_c, 2, 11, 118
5, 42078, Control_c, 2, 11, 119
5, 42086, Control_c, 2, 11, 120
5, 42094, Control_c, 2, 11, 121
5, 42102, Control_c, 2, 11, 122
5, 42111, Control_c, 2, 11, 123
5, 42119, Control_c, 2, 11, 124
5, 42127, Control_c, 2, 11, 125
5, 42135, Control_c, 2, 11, 126
5, 42142, Note_on_c, 2, 74, 0
5, 42144, Control_c, 2, 11, 127
5, 42144, Control_c, 2, 11, 92
5, 42144, Note_on_c, 2, 71, 72
5, 42152, Control_c, 2, 11, 93
5, 42160, Control_c, 2, 11, 94
5, 42168, Control_c, 2, 11, 95
5, 42176, Control_c, 2, 11, 96
5, 42185, Control_c, 2, 11, 97
5, 42193, Control_c, 2, 11, 98
5, 42201, Control_c, 2, 11, 99
5, 42209, Control_c, 2, 11, 100
5, 42218, Control_c, 2, 11, 101
5, 42226, Control_c, 2, 11, 102
5, 42234, Control_c, 2, 11, 103
5, 42242, Control_c, 2, 11, 104
5, 42250, Control_c, 2, 11, 105
5, 42259, Control_c, 2, 11, 106
5, 42267, Control_c, 2, 11, 107
5, 42275, Control_c, 2, 11, 108
5, 42283, Control_c, 2, 11, 109
5, 42292, Control_c, 2, 11, 110
5, 42300, Control_c, 2, 11, 111
5, 42308, Control_c, 2, 11, 112
5, 42316, Control_c, 2, 11, 113
5, 42325, Control_c, 2, 11, 114
5, 42333, Control_c, 2, 11, 115
5, 42336, Note_on_c, 2, 71, 0
5, 42336, Note_on_c, 2, 74, 80
5, 42341, Control_c, 2, 11, 116
5, 42349, Control_c, 2, 11, 117
5, 42357, Control_c, 2, 11, 118
5, 42366, Control_c, 2, 11, 119
5, 42374, Control_c, 2, 11, 120
5, 42382, Control_c, 2, 11, 121
5, 42390, Control_c, 2, 11, 122
5, 42399, Control_c, 2, 11, 123
5, 42407, Control_c, 2, 11, 124
5, 42415, Control_c, 2, 11, 125
5, 42423, Control_c, 2, 11, 126
5, 42430, Note_on_c, 2, 74, 0
5, 42432, Control_c, 2, 11, 127
5, 42432, Note_on_c, 2, 66, 50
5, 42462, Note_on_c, 2, 66, 0
5, 42464, Note_on_c, 2, 68, 41
5, 42494, Note_on_c, 2, 68, 0
5, 42496, Note_on_c, 2, 66, 49
5, 42526, Note_on_c, 2, 66, 0
5, 42528, Note_on_c, 2, 68, 54
5, 42558, Note_on_c, 2, 68, 0
5, 42560, Note_on_c, 2, 69, 52
5, 42590, Note_on_c, 2, 69, 0
5, 42592, Note_on_c, 2, 68, 60
5, 42622, Note_on_c, 2, 68, 0
5, 42624, Note_on_c, 2, 71, 61
5, 42654, Note_on_c, 2, 71, 0
5, 42656, Note_on_c, 2, 70, 68
5, 42686, Note_on_c, 2, 70, 0
5, 42688, Note_on_c, 2, 69, 70
5, 42718, Note_on_c, 2, 69, 0
5, 42720, Note_on_c, 2, 66, 77
5, 42750, Note_on_c, 2, 66, 0
5, 42752, Note_on_c, 2, 68, 73
5, 42782, Note_on_c, 2, 68, 0
5, 42784, Note_on_c, 2, 66, 76
5, 42814, Note_on_c, 2, 66, 0
5, 42816, Note_on_c, 2, 68, 81
5, 42846, Note_on_c, 2, 68, 0
5, 42848, Note_on_c, 2, 69, 86
5, 42878, Note_on_c, 2, 69, 0
5, 42880, Note_on_c, 2, 68, 84
5, 42910, Note_on_c, 2, 68, 0
5, 42912, Note_on_c, 2, 71, 89
5, 42942, Note_on_c, 2, 71, 0
5, 42944, Note_on_c, 2, 70, 84
5, 42974, Note_on_c, 2, 70, 0
5, 42976, Note_on_c, 2, 69, 94
5, 43006, Note_on_c, 2, 69, 0
5, 47040, Control_c, 2, 11, 92
5, 47040, Note_on_c, 2, 65, 48
5, 47056, Control_c, 2, 11, 93
5, 47072, Control_c, 2, 11, 94
5, 47089, Control_c, 2, 11, 95
5, 47105, Control_c, 2, 11, 96
5, 47122, Control_c, 2, 11, 97
5, 47138, Control_c, 2, 11, 98
5, 47155, Control_c, 2, 11, 99
5, 47171, Control_c, 2, 11, 100
5, 47188, Control_c, 2, 11, 101
5, 47204, Control_c, 2, 11, 102
5, 47221, Control_c, 2, 11, 103
5, 47237, Control_c, 2, 11, 104
5, 47253, Control_c, 2, 11, 105
5, 47270, Control_c, 2, 11, 106
5, 47286, Control_c, 2, 11, 107
5, 47303, Control_c, 2, 11, 108
5, 47319, Control_c, 2, 11, 109
5, 47336, Control_c, 2, 11, 110
5, 47352, Control_c, 2, 11, 111
5, 47369, Control_c, 2, 11, 112
5, 47385, Control_c, 2, 11, 113
5, 47402, Control_c, 2, 11, 114
5, 47418, Control_c, 2, 11, 115
5, 47424, Note_on_c, 2, 65, 0
5, 47424, Note_on_c, 2, 66, 43
5, 47434, Control_c, 2, 11, 116
5, 47451, Control_c, 2, 11, 117
5, 47467, Control_c, 2, 11, 118
5, 47484, Control_c, 2, 11, 119
5, 47500, Control_c, 2, 11, 120
5, 47517, Control_c, 2, 11, 121
5, 47520, Note_on_c, 2, 66, 0
5, 47520, Note_on_c, 2, 67, 50
5, 47533, Control_c, 2, 11, 122
5, 47550, Control_c, 2, 11, 123
5, 47566, Control_c, 2, 11, 124
5, 47583, Control_c, 2, 11, 125
5, 47599, Control_c, 2, 11, 126
5, 47614, Note_on_c, 2, 67, 0
5, 47616, Control_c, 2, 11, 127
5, 47760, Control_c, 2, 11, 92
5, 47760, Note_on_c, 2, 58, 56
5, 47762, Control_c, 2, 11, 93
5, 47765, Control_c, 2, 11, 94
5, 47768, Control_c, 2, 11, 95
5, 47770, Control_c, 2, 11, 96
5, 47773, Control_c, 2, 11, 97
5, 47776, Control_c, 2, 11, 98
5, 47779, Control_c, 2, 11, 99
5, 47781, Control_c, 2, 11, 100
5, 47784, Control_c, 2, 11, 101
5, 47787, Control_c, 2, 11, 102
5, 47790, Control_c, 2, 11, 103
5, 47792, Control_c, 2, 11, 104
5, 47795, Control_c, 2, 11, 105
5, 47798, Control_c, 2, 11, 106
5, 47801, Control_c, 2, 11, 107
5, 47803, Control_c, 2, 11, 108
5, 47806, Control_c, 2, 11, 109
5, 47809, Control_c, 2, 11, 110
5, 47812, Control_c, 2, 11, 111
5, 47814, Control_c, 2, 11, 112
5, 47817, Control_c, 2, 11, 113
5, 47820, Control_c, 2, 11, 114
5, 47823, Control_c, 2, 11, 115
5, 47825, Control_c, 2, 11, 116
5, 47828, Control_c, 2, 11, 117
5, 47831, Control_c, 2, 11, 118
5, 47834, Control_c, 2, 11, 119
5, 47836, Control_c, 2, 11, 120
5, 47839, Control_c, 2, 11, 121
5, 47842, Control_c, 2, 11, 122
5, 47845, Control_c, 2, 11, 123
5, 47847, Control_c, 2, 11, 124
5, 47850, Control_c, 2, 11, 125
5, 47853, Control_c, 2, 11, 126
5, 47854, Note_on_c, 2, 58, 0
5, 47856, Control_c, 2, 11, 127
5, 47856, Note_on_c, 2, 59, 65
5, 47902, Note_on_c, 2, 59, 0
5, 48048, Control_c, 2, 11, 92
5, 48048, Note_on_c, 2, 58, 64
5, 48050, Control_c, 2, 11, 93
5, 48053, Control_c, 2, 11, 94
5, 48056, Control_c, 2, 11, 95
5, 48058, Control_c, 2, 11, 96
5, 48061, Control_c, 2, 11, 97
5, 48064, Control_c, 2, 11, 98
5, 48067, Control_c, 2, 11, 99
5, 48069, Control_c, 2, 11, 100
5, 48072, Control_c, 2, 11, 101
5, 48075, Control_c, 2, 11, 102
5, 48078, Control_c, 2, 11, 103
5, 48080, Control_c, 2, 11, 104
5, 48083, Control_c, 2, 11, 105
5, 48086, Control_c, 2, 11, 106
5, 48089, Control_c, 2, 11, 107
5, 48091, Control_c, 2, 11, 108
5, 48094, Control_c, 2, 11, 109
5, 48097, Control_c, 2, 11, 110
5, 48100, Control_c, 2, 11, 111
5, 48102, Control_c, 2, 11, 112
5, 48105, Control_c, 2, 11, 113
5, 48108, Control_c, 2, 11, 114
5, 48111, Control_c, 2, 11, 115
5, 48113, Control_c, 2, 11, 116
5, 48116, Control_c, 2, 11, 117
5, 48119, Control_c, 2, 11, 118
5, 48122, Control_c, 2, 11, 119
5, 48124, Control_c, 2, 11, 120
5, 48127, Control_c, 2, 11, 121
5, 48130, Control_c, 2, 11, 122
5, 48133, Control_c, 2, 11, 123
5, 48135, Control_c, 2, 11, 124
5, 48138, Control_c, 2, 11, 125
5, 48141, Control_c, 2, 11, 126
5, 48142, Note_on_c, 2, 58, 0
5, 48144, Control_c, 2, 11, 127
5, 48144, Note_on_c, 2, 59, 61
5, 48190, Note_on_c, 2, 59, 0
5, 48192, Control_c, 2, 11, 92
5, 48192, Note_on_c, 2, 65, 62
5, 48208, Control_c, 2, 11, 93
5, 48224, Control_c, 2, 11, 94
5, 48241, Control_c, 2, 11, 95
5, 48257, Control_c, 2, 11, 96
5, 48274, Control_c, 2, 11, 97
5, 48290, Control_c, 2, 11, 98
5, 48307, Control_c, 2, 11, 99
5, 48323, Control_c, 2, 11, 100
5, 48340, Control_c, 2, 11, 101
5, 48356, Control_c, 2, 11, 102
5, 48373, Control_c, 2, 11, 103
5, 48384, Note_on_c, 2, 65, 0
5, 48384, Note_on_c, 2, 66, 64
5, 48389, Control_c, 2, 11, 104
5, 48405, Control_c, 2, 11, 105
5, 48422, Control_c, 2, 11, 106
5, 48438, Control_c, 2, 11, 107
5, 48455, Control_c, 2, 11, 108
5, 48471, Control_c, 2, 11, 109
5, 48480, Note_on_c, 2, 66, 0
5, 48480, Note_on_c, 2, 65, 55
5, 48488, Control_c, 2, 11, 110
5, 48504, Control_c, 2, 11, 111
5, 48521, Control_c, 2, 11, 112
5, 48537, Control_c, 2, 11, 113
5, 48554, Control_c, 2, 11, 114
5, 48570, Control_c, 2, 11, 115
5, 48586, Control_c, 2, 11, 116
5, 48603, Control_c, 2, 11, 117
5, 48619, Control_c, 2, 11, 118
5, 48636, Control_c, 2, 11, 119
5, 48652, Control_c, 2, 11, 120
5, 48669, Control_c, 2, 11, 121
5, 48672, Note_on_c, 2, 65, 0
5, 48672, Note_on_c, 2, 68, 60
5, 48685, Control_c, 2, 11, 122
5, 48702, Control_c, 2, 11, 123
5, 48718, Control_c, 2, 11, 124
5, 48735, Control_c, 2, 11, 125
5, 48751, Control_c, 2, 11, 126
5, 48766, Note_on_c, 2, 68, 0
5, 48768, Control_c, 2, 11, 127
5, 48768, Control_c, 2, 11, 127
5, 49344, Note_on_c, 2, 65, 29
5, 49632, Note_on_c, 2, 65, 0
5, 49632, Note_on_c, 2, 66, 31
5, 49920, Note_on_c, 2, 66, 0
5, 49920, Note_on_c, 2, 65, 28
5, 50016, Note_on_c, 2, 65, 0
5, 50016, Note_on_c, 2, 64, 31
5, 50112, Note_on_c, 2, 64, 0
5, 50112, Note_on_c, 2, 65, 32
5, 50208, Note_on_c, 2, 65, 0
5, 50208, Note_on_c, 2, 66, 26
5, 50304, Note_on_c, 2, 66, 0
5, 50304, Note_on_c, 2, 65, 25
5, 50400, Note_on_c, 2, 65, 0
5, 50400, Note_on_c, 2, 64, 26
5, 50494, Note_on_c, 2, 64, 0
5, 50496, Control_c, 2, 11, 75
5, 50496, Note_on_c, 2, 65, 72
5, 50507, Control_c, 2, 11, 76
5, 50518, Control_c, 2, 11, 77
5, 50529, Control_c, 2, 11, 78
5, 50540, Control_c, 2, 11, 79
5, 50551, Control_c, 2, 11, 80
5, 50562, Control_c, 2, 11, 81
5, 50573, Control_c, 2, 11, 82
5, 50584, Control_c, 2, 11, 83
5, 50595, Control_c, 2, 11, 84
5, 50606, Control_c, 2, 11, 85
5, 50617, Control_c, 2, 11, 86
5, 50628, Control_c, 2, 11, 87
5, 50640, Control_c, 2, 11, 88
5, 50651, Control_c, 2, 11, 89
5, 50662, Control_c, 2, 11, 90
5, 50673, Control_c, 2, 11, 91
5, 50684, Control_c, 2, 11, 92
5, 50695, Control_c, 2, 11, 93
5, 50706, Control_c, 2, 11, 94
5, 50717, Control_c, 2, 11, 95
5, 50728, Control_c, 2, 11, 96
5, 50739, Control_c, 2, 11, 97
5, 50750, Control_c, 2, 11, 98
5, 50761, Control_c, 2, 11, 99
5, 50772, Control_c, 2, 11, 100
5, 50784, Note_on_c, 2, 65, 0
5, 50784, Control_c, 2, 11, 101
5, 50784, Note_on_c, 2, 63, 73
5, 50795, Control_c, 2, 11, 102
5, 50806, Control_c, 2, 11, 103
5, 50816, Note_on_c, 2, 63, 0
5, 50816, Note_on_c, 2, 65, 76
5, 50817, Control_c, 2, 11, 104
5, 50828, Control_c, 2, 11, 105
5, 50839, Control_c, 2, 11, 106
5, 50848, Note_on_c, 2, 65, 0
5, 50848, Note_on_c, 2, 63, 71
5, 50850, Control_c, 2, 11, 107
5, 50861, Control_c, 2, 11, 108
5, 50872, Control_c, 2, 11, 109
5, 50880, Note_on_c, 2, 63, 0
5, 50880, Note_on_c, 2, 61, 77
5, 50883, Control_c, 2, 11, 110
5, 50894, Control_c, 2, 11, 111
5, 50905, Control_c, 2, 11, 112
5, 50916, Control_c, 2, 11, 113
5, 50928, Control_c, 2, 11, 114
5, 50939, Control_c, 2, 11, 115
5, 50950, Control_c, 2, 11, 116
5, 50961, Control_c, 2, 11, 117
5, 50972, Control_c, 2, 11, 118
5, 50976, Note_on_c, 2, 61, 0
5, 50976, Note_on_c, 2, 65, 74
5, 50983, Control_c, 2, 11, 119
5, 50994, Control_c, 2, 11, 120
5, 51005, Control_c, 2, 11, 121
5, 51016, Control_c, 2, 11, 122
5, 51027, Control_c, 2, 11, 123
5, 51038, Control_c, 2, 11, 124
5, 51049, Control_c, 2, 11, 125
5, 51060, Control_c, 2, 11, 126
5, 51070, Note_on_c, 2, 65, 0
5, 51072, Control_c, 2, 11, 127
5, 51072, Control_c, 2, 11, 75
5, 51072, Note_on_c, 2, 70, 87
5, 51083, Control_c, 2, 11, 76
5, 51094, Control_c, 2, 11, 77
5, 51105, Control_c, 2, 11, 78
5, 51116, Control_c, 2, 11, 79
5, 51127, Control_c, 2, 11, 80
5, 51138, Control_c, 2, 11, 81
5, 51149, Control_c, 2, 11, 82
5, 51160, Control_c, 2, 11, 83
5, 51171, Control_c, 2, 11, 84
5, 51182, Control_c, 2, 11, 85
5, 51193, Control_c, 2, 11, 86
5, 51204, Control_c, 2, 11, 87
5, 51216, Control_c, 2, 11, 88
5, 51227, Control_c, 2, 11, 89
5, 51238, Control_c, 2, 11, 90
5, 51249, Control_c, 2, 11, 91
5, 51260, Control_c, 2, 11, 92
5, 51271, Control_c, 2, 11, 93
5, 51282, Control_c, 2, 11, 94
5, 51293, Control_c, 2, 11, 95
5, 51304, Control_c, 2, 11, 96
5, 51315, Control_c, 2, 11, 97
5, 51326, Control_c, 2, 11, 98
5, 51337, Control_c, 2, 11, 99
5, 51348, Control_c, 2, 11, 100
5, 51360, Control_c, 2, 11, 101
5, 51371, Control_c, 2, 11, 102
5, 51382, Control_c, 2, 11, 103
5, 51393, Control_c, 2, 11, 104
5, 51404, Control_c, 2, 11, 105
5, 51415, Control_c, 2, 11, 106
5, 51426, Control_c, 2, 11, 107
5, 51437, Control_c, 2, 11, 108
5, 51448, Control_c, 2, 11, 109
5, 51459, Control_c, 2, 11, 110
5, 51470, Control_c, 2, 11, 111
5, 51481, Control_c, 2, 11, 112
5, 51492, Control_c, 2, 11, 113
5, 51504, Control_c, 2, 11, 114
5, 51515, Control_c, 2, 11, 115
5, 51526, Control_c, 2, 11, 116
5, 51537, Control_c, 2, 11, 117
5, 51548, Control_c, 2, 11, 118
5, 51559, Control_c, 2, 11, 119
5, 51570, Control_c, 2, 11, 120
5, 51581, Control_c, 2, 11, 121
5, 51592, Control_c, 2, 11, 122
5, 51603, Control_c, 2, 11, 123
5, 51614, Control_c, 2, 11, 124
5, 51625, Control_c, 2, 11, 125
5, 51636, Control_c, 2, 11, 126
5, 51648, Control_c, 2, 11, 127
5, 51742, Note_on_c, 2, 70, 0
5, 51936, Control_c, 2, 11, 92
5, 51936, Note_on_c, 2, 63, 96
5, 51966, Note_on_c, 2, 63, 0
5, 51968, Note_on_c, 2, 61, 96
5, 51998, Note_on_c, 2, 61, 0
5, 52000, Note_on_c, 2, 58, 92
5, 52030, Note_on_c, 2, 58, 0
5, 52032, Note_on_c, 2, 56, 92
5, 52158, Note_on_c, 2, 56, 0
5, 52160, Note_on_c, 2, 58, 92
5, 52190, Note_on_c, 2, 58, 0
5, 52192, Note_on_c, 2, 61, 94
5, 52222, Note_on_c, 2, 61, 0
5, 52224, Control_c, 2, 11, 92
5, 52224, Note_on_c, 2, 63, 89
5, 52232, Control_c, 2, 11, 93
5, 52240, Control_c, 2, 11, 94
5, 52248, Control_c, 2, 11, 95
5, 52254, Note_on_c, 2, 63, 0
5, 52256, Control_c, 2, 11, 96
5, 52256, Note_on_c, 2, 61, 90
5, 52265, Control_c, 2, 11, 97
5, 52273, Control_c, 2, 11, 98
5, 52281, Control_c, 2, 11, 99
5, 52286, Note_on_c, 2, 61, 0
5, 52288, Note_on_c, 2, 58, 87
5, 52289, Control_c, 2, 11, 100
5, 52298, Control_c, 2, 11, 101
5, 52306, Control_c, 2, 11, 102
5, 52314, Control_c, 2, 11, 103
5, 52318, Note_on_c, 2, 58, 0
5, 52320, Note_on_c, 2, 61, 87
5, 52322, Control_c, 2, 11, 104
5, 52330, Control_c, 2, 11, 105
5, 52339, Control_c, 2, 11, 106
5, 52347, Control_c, 2, 11, 107
5, 52355, Control_c, 2, 11, 108
5, 52363, Control_c, 2, 11, 109
5, 52372, Control_c, 2, 11, 110
5, 52380, Control_c, 2, 11, 111
5, 52388, Control_c, 2, 11, 112
5, 52396, Control_c, 2, 11, 113
5, 52405, Control_c, 2, 11, 114
5, 52413, Control_c, 2, 11, 115
5, 52414, Note_on_c, 2, 61, 0
5, 52416, Note_on_c, 2, 63, 89
5, 52421, Control_c, 2, 11, 116
5, 52429, Control_c, 2, 11, 117
5, 52437, Control_c, 2, 11, 118
5, 52446, Control_c, 2, 11, 119
5, 52454, Control_c, 2, 11, 120
5, 52462, Control_c, 2, 11, 121
5, 52470, Control_c, 2, 11, 122
5, 52479, Control_c, 2, 11, 123
5, 52487, Control_c, 2, 11, 124
5, 52495, Control_c, 2, 11, 125
5, 52503, Control_c, 2, 11, 126
5, 52510, Note_on_c, 2, 63, 0
5, 52512, Control_c, 2, 11, 127
5, 52608, Control_c, 2, 11, 92
5, 52608, Note_on_c, 2, 59, 64
5, 52610, Control_c, 2, 11, 93
5, 52613, Control_c, 2, 11, 94
5, 52616, Control_c, 2, 11, 95
5, 52618, Control_c, 2, 11, 96
5, 52621, Control_c, 2, 11, 97
5, 52622, Note_on_c, 2, 59, 0
5, 52624, Control_c, 2, 11, 98
5, 52624, Note_on_c, 2, 61, 56
5, 52627, Control_c, 2, 11, 99
5, 52629, Control_c, 2, 11, 100
5, 52632, Control_c, 2, 11, 101
5, 52635, Control_c, 2, 11, 102
5, 52638, Note_on_c, 2, 61, 0
5, 52638, Control_c, 2, 11, 103
5, 52640, Control_c, 2, 11, 104
5, 52640, Note_on_c, 2, 63, 63
5, 52643, Control_c, 2, 11, 105
5, 52646, Control_c, 2, 11, 106
5, 52649, Control_c, 2, 11, 107
5, 52651, Control_c, 2, 11, 108
5, 52654, Note_on_c, 2, 63, 0
5, 52654, Control_c, 2, 11, 109
5, 52656, Note_on_c, 2, 65, 57
5, 52657, Control_c, 2, 11, 110
5, 52660, Control_c, 2, 11, 111
5, 52662, Control_c, 2, 11, 112
5, 52665, Control_c, 2, 11, 113
5, 52668, Control_c, 2, 11, 114
5, 52670, Note_on_c, 2, 65, 0
5, 52671, Control_c, 2, 11, 115
5, 52672, Note_on_c, 2, 66, 65
5, 52673, Control_c, 2, 11, 116
5, 52676, Control_c, 2, 11, 117
5, 52679, Control_c, 2, 11, 118
5, 52682, Control_c, 2, 11, 119
5, 52684, Control_c, 2, 11, 120
5, 52686, Note_on_c, 2, 66, 0
5, 52687, Control_c, 2, 11, 121
5, 52688, Note_on_c, 2, 68, 65
5, 52690, Control_c, 2, 11, 122
5, 52693, Control_c, 2, 11, 123
5, 52695, Control_c, 2, 11, 124
5, 52698, Control_c, 2, 11, 125
5, 52701, Control_c, 2, 11, 126
5, 52702, Note_on_c, 2, 68, 0
5, 52704, Control_c, 2, 11, 127
5, 52704, Note_on_c, 2, 70, 56
5, 52706, Control_c, 2, 11, 126
5, 52709, Control_c, 2, 11, 125
5, 52712, Control_c, 2, 11, 124
5, 52714, Control_c, 2, 11, 123
5, 52717, Control_c, 2, 11, 122
5, 52720, Control_c, 2, 11, 121
5, 52723, Control_c, 2, 11, 120
5, 52725, Control_c, 2, 11, 119
5, 52726, Note_on_c, 2, 70, 0
5, 52728, Control_c, 2, 11, 118
5, 52728, Note_on_c, 2, 68, 63
5, 52731, Control_c, 2, 11, 117
5, 52734, Control_c, 2, 11, 116
5, 52736, Control_c, 2, 11, 115
5, 52739, Control_c, 2, 11, 114
5, 52742, Control_c, 2, 11, 113
5, 52745, Control_c, 2, 11, 112
5, 52747, Control_c, 2, 11, 111
5, 52750, Note_on_c, 2, 68, 0
5, 52750, Control_c, 2, 11, 110
5, 52752, Note_on_c, 2, 66, 61
5, 52753, Control_c, 2, 11, 109
5, 52756, Control_c, 2, 11, 108
5, 52758, Control_c, 2, 11, 107
5, 52761, Control_c, 2, 11, 106
5, 52764, Control_c, 2, 11, 105
5, 52767, Control_c, 2, 11, 104
5, 52769, Control_c, 2, 11, 103
5, 52772, Control_c, 2, 11, 102
5, 52775, Control_c, 2, 11, 101
5, 52778, Control_c, 2, 11, 100
5, 52780, Control_c, 2, 11, 99
5, 52783, Control_c, 2, 11, 98
5, 52786, Control_c, 2, 11, 97
5, 52789, Control_c, 2, 11, 96
5, 52791, Control_c, 2, 11, 95
5, 52794, Control_c, 2, 11, 94
5, 52797, Control_c, 2, 11, 93
5, 52798, Note_on_c, 2, 66, 0
5, 52800, Control_c, 2, 11, 92
5, 52896, Control_c, 2, 11, 92
5, 52896, Note_on_c, 2, 59, 56
5, 52898, Control_c, 2, 11, 93
5, 52901, Control_c, 2, 11, 94
5, 52904, Control_c, 2, 11, 95
5, 52906, Control_c, 2, 11, 96
5, 52909, Control_c, 2, 11, 97
5, 52910, Note_on_c, 2, 59, 0
5, 52912, Control_c, 2, 11, 98
5, 52912, Note_on_c, 2, 61, 62
5, 52915, Control_c, 2, 11, 99
5, 52917, Control_c, 2, 11, 100
5, 52920, Control_c, 2, 11, 101
5, 52923, Control_c, 2, 11, 102
5, 52926, Note_on_c, 2, 61, 0
5, 52926, Control_c, 2, 11, 103
5, 52928, Control_c, 2, 11, 104
5, 52928, Note_on_c, 2, 63, 65
5, 52931, Control_c, 2, 11, 105
5, 52934, Control_c, 2, 11, 106
5, 52937, Control_c, 2, 11, 107
5, 52939, Control_c, 2, 11, 108
5, 52942, Note_on_c, 2, 63, 0
5, 52942, Control_c, 2, 11, 109
5, 52944, Note_on_c, 2, 65, 59
5, 52945, Control_c, 2, 11, 110
5, 52948, Control_c, 2, 11, 111
5, 52950, Control_c, 2, 11, 112
5, 52953, Control_c, 2, 11, 113
5, 52956, Control_c, 2, 11, 114
5, 52958, Note_on_c, 2, 65, 0
5, 52959, Control_c, 2, 11, 115
5, 52960, Note_on_c, 2, 66, 58
5, 52961, Control_c, 2, 11, 116
5, 52964, Control_c, 2, 11, 117
5, 52967, Control_c, 2, 11, 118
5, 52970, Control_c, 2, 11, 119
5, 52972, Control_c, 2, 11, 120
5, 52974, Note_on_c, 2, 66, 0
5, 52975, Control_c, 2, 11, 121
5, 52976, Note_on_c, 2, 68, 56
5, 52978, Control_c, 2, 11, 122
5, 52981, Control_c, 2, 11, 123
5, 52983, Control_c, 2, 11, 124
5, 52986, Control_c, 2, 11, 125
5, 52989, Control_c, 2, 11, 126
5, 52990, Note_on_c, 2, 68, 0
5, 52992, Control_c, 2, 11, 127
5, 52992, Note_on_c, 2, 70, 58
5, 52994, Control_c, 2, 11, 126
5, 52997, Control_c, 2, 11, 125
5, 53000, Control_c, 2, 11, 124
5, 53002, Control_c, 2, 11, 123
5, 53005, Control_c, 2, 11, 122
5, 53008, Control_c, 2, 11, 121
5, 53011, Control_c, 2, 11, 120
5, 53013, Control_c, 2, 11, 119
5, 53014, Note_on_c, 2, 70, 0
5, 53016, Control_c, 2, 11, 118
5, 53016, Note_on_c, 2, 68, 55
5, 53019, Control_c, 2, 11, 117
5, 53022, Control_c, 2, 11, 116
5, 53024, Control_c, 2, 11, 115
5, 53027, Control_c, 2, 11, 114
5, 53030, Control_c, 2, 11, 113
5, 53033, Control_c, 2, 11, 112
5, 53035, Control_c, 2, 11, 111
5, 53038, Note_on_c, 2, 68, 0
5, 53038, Control_c, 2, 11, 110
5, 53040, Note_on_c, 2, 66, 55
5, 53041, Control_c, 2, 11, 109
5, 53044, Control_c, 2, 11, 108
5, 53046, Control_c, 2, 11, 107
5, 53049, Control_c, 2, 11, 106
5, 53052, Control_c, 2, 11, 105
5, 53055, Control_c, 2, 11, 104
5, 53057, Control_c, 2, 11, 103
5, 53060, Control_c, 2, 11, 102
5, 53063, Control_c, 2, 11, 101
5, 53066, Control_c, 2, 11, 100
5, 53068, Control_c, 2, 11, 99
5, 53071, Control_c, 2, 11, 98
5, 53074, Control_c, 2, 11, 97
5, 53077, Control_c, 2, 11, 96
5, 53079, Control_c, 2, 11, 95
5, 53082, Control_c, 2, 11, 94
5, 53085, Control_c, 2, 11, 93
5, 53086, Note_on_c, 2, 66, 0
5, 53088, Control_c, 2, 11, 92
5, 53184, Control_c, 2, 11, 92
5, 53184, Note_on_c, 2, 59, 64
5, 53186, Control_c, 2, 11, 93
5, 53189, Control_c, 2, 11, 94
5, 53192, Control_c, 2, 11, 95
5, 53194, Control_c, 2, 11, 96
5, 53197, Control_c, 2, 11, 97
5, 53198, Note_on_c, 2, 59, 0
5, 53200, Control_c, 2, 11, 98
5, 53200, Note_on_c, 2, 61, 62
5, 53203, Control_c, 2, 11, 99
5, 53205, Control_c, 2, 11, 100
5, 53208, Control_c, 2, 11, 101
5, 53211, Control_c, 2, 11, 102
5, 53214, Note_on_c, 2, 61, 0
5, 53214, Control_c, 2, 11, 103
5, 53216, Control_c, 2, 11, 104
5, 53216, Note_on_c, 2, 63, 64
5, 53219, Control_c, 2, 11, 105
5, 53222, Control_c, 2, 11, 106
5, 53225, Control_c, 2, 11, 107
5, 53227, Control_c, 2, 11, 108
5, 53230, Note_on_c, 2, 63, 0
5, 53230, Control_c, 2, 11, 109
5, 53232, Note_on_c, 2, 65, 63
5, 53233, Control_c, 2, 11, 110
5, 53236, Control_c, 2, 11, 111
5, 53238, Control_c, 2, 11, 112
5, 53241, Control_c, 2, 11, 113
5, 53244, Control_c, 2, 11, 114
5, 53246, Note_on_c, 2, 65, 0
5, 53247, Control_c, 2, 11, 115
5, 53248, Note_on_c, 2, 66, 57
5, 53249, Control_c, 2, 11, 116
5, 53252, Control_c, 2, 11, 117
5, 53255, Control_c, 2, 11, 118
5, 53258, Control_c, 2, 11, 119
5, 53260, Control_c, 2, 11, 120
5, 53262, Note_on_c, 2, 66, 0
5, 53263, Control_c, 2, 11, 121
5, 53264, Note_on_c, 2, 68, 57
5, 53266, Control_c, 2, 11, 122
5, 53269, Control_c, 2, 11, 123
5, 53271, Control_c, 2, 11, 124
5, 53274, Control_c, 2, 11, 125
5, 53277, Control_c, 2, 11, 126
5, 53278, Note_on_c, 2, 68, 0
5, 53280, Control_c, 2, 11, 127
5, 53280, Note_on_c, 2, 70, 63
5, 53282, Control_c, 2, 11, 126
5, 53285, Control_c, 2, 11, 125
5, 53288, Control_c, 2, 11, 124
5, 53290, Control_c, 2, 11, 123
5, 53293, Control_c, 2, 11, 122
5, 53296, Control_c, 2, 11, 121
5, 53299, Control_c, 2, 11, 120
5, 53301, Control_c, 2, 11, 119
5, 53302, Note_on_c, 2, 70, 0
5, 53304, Control_c, 2, 11, 118
5, 53304, Note_on_c, 2, 68, 56
5, 53307, Control_c, 2, 11, 117
5, 53310, Control_c, 2, 11, 116
5, 53312, Control_c, 2, 11, 115
5, 53315, Control_c, 2, 11, 114
5, 53318, Control_c, 2, 11, 113
5, 53321, Control_c, 2, 11, 112
5, 53323, Control_c, 2, 11, 111
5, 53326, Note_on_c, 2, 68, 0
5, 53326, Control_c, 2, 11, 110
5, 53328, Note_on_c, 2, 66, 63
5, 53329, Control_c, 2, 11, 109
5, 53332, Control_c, 2, 11, 108
5, 53334, Control_c, 2, 11, 107
5, 53337, Control_c, 2, 11, 106
5, 53340, Control_c, 2, 11, 105
5, 53343, Control_c, 2, 11, 104
5, 53345, Control_c, 2, 11, 103
5, 53348, Control_c, 2, 11, 102
5, 53351, Control_c, 2, 11, 101
5, 53354, Control_c, 2, 11, 100
5, 53356, Control_c, 2, 11, 99
5, 53359, Control_c, 2, 11, 98
5, 53362, Control_c, 2, 11, 97
5, 53365, Control_c, 2, 11, 96
5, 53367, Control_c, 2, 11, 95
5, 53370, Control_c, 2, 11, 94
5, 53373, Control_c, 2, 11, 93
5, 53374, Note_on_c, 2, 66, 0
5, 53376, Control_c, 2, 11, 92
5, 53472, Control_c, 2, 11, 92
5, 53472, Note_on_c, 2, 59, 62
5, 53474, Control_c, 2, 11, 93
5, 53477, Control_c, 2, 11, 94
5, 53480, Control_c, 2, 11, 95
5, 53482, Control_c, 2, 11, 96
5, 53485, Control_c, 2, 11, 97
5, 53486, Note_on_c, 2, 59, 0
5, 53488, Control_c, 2, 11, 98
5, 53488, Note_on_c, 2, 61, 63
5, 53491, Control_c, 2, 11, 99
5, 53493, Control_c, 2, 11, 100
5, 53496, Control_c, 2, 11, 101
5, 53499, Control_c, 2, 11, 102
5, 53502, Note_on_c, 2, 61, 0
5, 53502, Control_c, 2, 11, 103
5, 53504, Control_c, 2, 11, 104
5, 53504, Note_on_c, 2, 63, 56
5, 53507, Control_c, 2, 11, 105
5, 53510, Control_c, 2, 11, 106
5, 53513, Control_c, 2, 11, 107
5, 53515, Control_c, 2, 11, 108
5, 53518, Note_on_c, 2, 63, 0
5, 53518, Control_c, 2, 11, 109
5, 53520, Note_on_c, 2, 65, 61
5, 53521, Control_c, 2, 11, 110
5, 53524, Control_c, 2, 11, 111
5, 53526, Control_c, 2, 11, 112
5, 53529, Control_c, 2, 11, 113
5, 53532, Control_c, 2, 11, 114
5, 53534, Note_on_c, 2, 65, 0
5, 53535, Control_c, 2, 11, 115
5, 53536, Note_on_c, 2, 66, 55
5, 53537, Control_c, 2, 11, 116
5, 53540, Control_c, 2, 11, 117
5, 53543, Control_c, 2, 11, 118
5, 53546, Control_c, 2, 11, 119
5, 53548, Control_c, 2, 11, 120
5, 53550, Note_on_c, 2, 66, 0
5, 53551, Control_c, 2, 11, 121
5, 53552, Note_on_c, 2, 68, 56
5, 53554, Control_c, 2, 11, 122
5, 53557, Control_c, 2, 11, 123
5, 53559, Control_c, 2, 11, 124
5, 53562, Control_c, 2, 11, 125
5, 53565, Control_c, 2, 11, 126
5, 53566, Note_on_c, 2, 68, 0
5, 53568, Control_c, 2, 11, 127
5, 53568, Note_on_c, 2, 70, 63
5, 53570, Control_c, 2, 11, 126
5, 53573, Control_c, 2, 11, 125
5, 53576, Control_c, 2, 11, 124
5, 53578, Control_c, 2, 11, 123
5, 53581, Control_c, 2, 11, 122
5, 53584, Control_c, 2, 11, 121
5, 53587, Control_c, 2, 11, 120
5, 53589, Control_c, 2, 11, 119
5, 53590, Note_on_c, 2, 70, 0
5, 53592, Control_c, 2, 11, 118
5, 53592, Note_on_c, 2, 68, 65
5, 53595, Control_c, 2, 11, 117
5, 53598, Control_c, 2, 11, 116
5, 53600, Control_c, 2, 11, 115
5, 53603, Control_c, 2, 11, 114
5, 53606, Control_c, 2, 11, 113
5, 53609, Control_c, 2, 11, 112
5, 53611, Control_c, 2, 11, 111
5, 53614, Note_on_c, 2, 68, 0
5, 53614, Control_c, 2, 11, 110
5, 53616, Note_on_c, 2, 66, 59
5, 53617, Control_c, 2, 11, 109
5, 53620, Control_c, 2, 11, 108
5, 53622, Control_c, 2, 11, 107
5, 53625, Control_c, 2, 11, 106
5, 53628, Control_c, 2, 11, 105
5, 53631, Control_c, 2, 11, 104
5, 53633, Control_c, 2, 11, 103
5, 53636, Control_c, 2, 11, 102
5, 53639, Control_c, 2, 11, 101
5, 53642, Control_c, 2, 11, 100
5, 53644, Control_c, 2, 11, 99
5, 53647, Control_c, 2, 11, 98
5, 53650, Control_c, 2, 11, 97
5, 53653, Control_c, 2, 11, 96
5, 53655, Control_c, 2, 11, 95
5, 53658, Control_c, 2, 11, 94
5, 53661, Control_c, 2, 11, 93
5, 53662, Note_on_c, 2, 66, 0
5, 53664, Control_c, 2, 11, 92
5, 54240, Control_c, 2, 11, 127
5, 55104, Note_on_c, 2, 66, 70
5, 55134, Note_on_c, 2, 66, 0
5, 55136, Note_on_c, 2, 68, 71
5, 55166, Note_on_c, 2, 68, 0
5, 55168, Note_on_c, 2, 71, 80
5, 55198, Note_on_c, 2, 71, 0
5, 55200, Note_on_c, 2, 73, 76
5, 55230, Note_on_c, 2, 73, 0
5, 55232, Note_on_c, 2, 71, 85
5, 55262, Note_on_c, 2, 71, 0
5, 55264, Note_on_c, 2, 68, 84
5, 55294, Note_on_c, 2, 68, 0
5, 55296, Note_on_c, 2, 66, 82
5, 55326, Note_on_c, 2, 66, 0
5, 55328, Note_on_c, 2, 68, 84
5, 55358, Note_on_c, 2, 68, 0
5, 55360, Note_on_c, 2, 71, 91
5, 55390, Note_on_c, 2, 71, 0
5, 55680, Note_on_c, 2, 66, 77
5, 55710, Note_on_c, 2, 66, 0
5, 55712, Note_on_c, 2, 68, 70
5, 55742, Note_on_c, 2, 68, 0
5, 55744, Note_on_c, 2, 71, 75
5, 55774, Note_on_c, 2, 71, 0
5, 55776, Note_on_c, 2, 73, 77
5, 55806, Note_on_c, 2, 73, 0
5, 55808, Note_on_c, 2, 71, 83
5, 55838, Note_on_c, 2, 71, 0
5, 55840, Note_on_c, 2, 68, 78
5, 55870, Note_on_c, 2, 68, 0
5, 55872, Note_on_c, 2, 66, 82
5, 55902, Note_on_c, 2, 66, 0
5, 55904, Note_on_c, 2, 68, 87
5, 55934, Note_on_c, 2, 68, 0
5, 55936, Note_on_c, 2, 71, 92
5, 55966, Note_on_c, 2, 71, 0
5, 56256, Note_on_c, 2, 66, 76
5, 56286, Note_on_c, 2, 66, 0
5, 56288, Note_on_c, 2, 68, 73
5, 56318, Note_on_c, 2, 68, 0
5, 56320, Note_on_c, 2, 71, 80
5, 56350, Note_on_c, 2, 71, 0
5, 56352, Note_on_c, 2, 73, 75
5, 56382, Note_on_c, 2, 73, 0
5, 56384, Note_on_c, 2, 71, 80
5, 56414, Note_on_c, 2, 71, 0
5, 56416, Note_on_c, 2, 68, 78
5, 56446, Note_on_c, 2, 68, 0
5, 56448, Note_on_c, 2, 66, 85
5, 56478, Note_on_c, 2, 66, 0
5, 56480, Note_on_c, 2, 68, 94
5, 56510, Note_on_c, 2, 68, 0
5, 56512, Note_on_c, 2, 71, 88
5, 56542, Note_on_c, 2, 71, 0
5, 56544, Control_c, 2, 11, 92
5, 56544, Note_on_c, 2, 73, 87
5, 56545, Control_c, 2, 11, 93
5, 56546, Control_c, 2, 11, 94
5, 56548, Control_c, 2, 11, 95
5, 56549, Control_c, 2, 11, 96
5, 56550, Control_c, 2, 11, 97
5, 56552, Control_c, 2, 11, 98
5, 56553, Control_c, 2, 11, 99
5, 56554, Control_c, 2, 11, 100
5, 56556, Control_c, 2, 11, 101
5, 56557, Control_c, 2, 11, 102
5, 56559, Control_c, 2, 11, 103
5, 56560, Control_c, 2, 11, 104
5, 56561, Control_c, 2, 11, 105
5, 56563, Control_c, 2, 11, 106
5, 56564, Control_c, 2, 11, 107
5, 56565, Control_c, 2, 11, 108
5, 56566, Note_on_c, 2, 73, 0
5, 56567, Control_c, 2, 11, 109
5, 56568, Control_c, 2, 11, 110
5, 56568, Note_on_c, 2, 73, 88
5, 56570, Control_c, 2, 11, 111
5, 56571, Control_c, 2, 11, 112
5, 56572, Control_c, 2, 11, 113
5, 56574, Control_c, 2, 11, 114
5, 56575, Control_c, 2, 11, 115
5, 56576, Control_c, 2, 11, 116
5, 56578, Control_c, 2, 11, 117
5, 56579, Control_c, 2, 11, 118
5, 56581, Control_c, 2, 11, 119
5, 56582, Control_c, 2, 11, 120
5, 56583, Control_c, 2, 11, 121
5, 56585, Control_c, 2, 11, 122
5, 56586, Control_c, 2, 11, 123
5, 56587, Control_c, 2, 11, 124
5, 56589, Control_c, 2, 11, 125
5, 56590, Control_c, 2, 11, 126
5, 56592, Control_c, 2, 11, 127
5, 56593, Control_c, 2, 11, 126
5, 56594, Control_c, 2, 11, 125
5, 56596, Control_c, 2, 11, 124
5, 56597, Control_c, 2, 11, 123
5, 56598, Control_c, 2, 11, 122
5, 56600, Control_c, 2, 11, 121
5, 56601, Control_c, 2, 11, 120
5, 56602, Control_c, 2, 11, 119
5, 56604, Control_c, 2, 11, 118
5, 56605, Control_c, 2, 11, 117
5, 56607, Control_c, 2, 11, 116
5, 56608, Control_c, 2, 11, 115
5, 56609, Control_c, 2, 11, 114
5, 56611, Control_c, 2, 11, 113
5, 56612, Control_c, 2, 11, 112
5, 56613, Control_c, 2, 11, 111
5, 56615, Control_c, 2, 11, 110
5, 56616, Control_c, 2, 11, 109
5, 56618, Control_c, 2, 11, 108
5, 56619, Control_c, 2, 11, 107
5, 56620, Control_c, 2, 11, 106
5, 56622, Control_c, 2, 11, 105
5, 56623, Control_c, 2, 11, 104
5, 56624, Control_c, 2, 11, 103
5, 56626, Control_c, 2, 11, 102
5, 56627, Control_c, 2, 11, 101
5, 56629, Control_c, 2, 11, 100
5, 56630, Control_c, 2, 11, 99
5, 56631, Control_c, 2, 11, 98
5, 56633, Control_c, 2, 11, 97
5, 56634, Control_c, 2, 11, 96
5, 56635, Control_c, 2, 11, 95
5, 56637, Control_c, 2, 11, 94
5, 56638, Control_c, 2, 11, 93
5, 56640, Control_c, 2, 11, 92
5, 56734, Note_on_c, 2, 73, 0
5, 56736, Control_c, 2, 11, 92
5, 56736, Note_on_c, 2, 71, 93
5, 56737, Control_c, 2, 11, 93
5, 56738, Control_c, 2, 11, 94
5, 56740, Control_c, 2, 11, 95
5, 56741, Control_c, 2, 11, 96
5, 56742, Control_c, 2, 11, 97
5, 56744, Control_c, 2, 11, 98
5, 56745, Control_c, 2, 11, 99
5, 56746, Control_c, 2, 11, 100
5, 56748, Control_c, 2, 11, 101
5, 56749, Control_c, 2, 11, 102
5, 56751, Control_c, 2, 11, 103
5, 56752, Control_c, 2, 11, 104
5, 56753, Control_c, 2, 11, 105
5, 56755, Control_c, 2, 11, 106
5, 56756, Control_c, 2, 11, 107
5, 56757, Control_c, 2, 11, 108
5, 56758, Note_on_c, 2, 71, 0
5, 56759, Control_c, 2, 11, 109
5, 56760, Control_c, 2, 11, 110
5, 56760, Note_on_c, 2, 71, 89
5, 56762, Control_c, 2, 11, 111
5, 56763, Control_c, 2, 11, 112
5, 56764, Control_c, 2, 11, 113
5, 56766, Control_c, 2, 11, 114
5, 56767, Control_c, 2, 11, 115
5, 56768, Control_c, 2, 11, 116
5, 56770, Control_c, 2, 11, 117
5, 56771, Control_c, 2, 11, 118
5, 56773, Control_c, 2, 11, 119
5, 56774, Control_c, 2, 11, 120
5, 56775, Control_c, 2, 11, 121
5, 56777, Control_c, 2, 11, 122
5, 56778, Control_c, 2, 11, 123
5, 56779, Control_c, 2, 11, 124
5, 56781, Control_c, 2, 11, 125
5, 56782, Control_c, 2, 11, 126
5, 56784, Control_c, 2, 11, 127
5, 56785, Control_c, 2, 11, 126
5, 56786, Control_c, 2, 11, 125
5, 56788, Control_c, 2, 11, 124
5, 56789, Control_c, 2, 11, 123
5, 56790, Control_c, 2, 11, 122
5, 56792, Control_c, 2, 11, 121
5, 56793, Control_c, 2, 11, 120
5, 56794, Control_c, 2, 11, 119
5, 56796, Control_c, 2, 11, 118
5, 56797, Control_c, 2, 11, 117
5, 56799, Control_c, 2, 11, 116
5, 56800, Control_c, 2, 11, 115
5, 56801, Control_c, 2, 11, 114
5, 56803, Control_c, 2, 11, 113
5, 56804, Control_c, 2, 11, 112
5, 56805, Control_c, 2, 11, 111
5, 56807, Control_c, 2, 11, 110
5, 56808, Control_c, 2, 11, 109
5, 56810, Control_c, 2, 11, 108
5, 56811, Control_c, 2, 11, 107
5, 56812, Control_c, 2, 11, 106
5, 56814, Control_c, 2, 11, 105
5, 56815, Control_c, 2, 11, 104
5, 56816, Control_c, 2, 11, 103
5, 56818, Control_c, 2, 11, 102
5, 56819, Control_c, 2, 11, 101
5, 56821, Control_c, 2, 11, 100
5, 56822, Control_c, 2, 11, 99
5, 56823, Control_c, 2, 11, 98
5, 56825, Control_c, 2, 11, 97
5, 56826, Control_c, 2, 11, 96
5, 56827, Control_c, 2, 11, 95
5, 56829, Control_c, 2, 11, 94
5, 56830, Control_c, 2, 11, 93
5, 56832, Control_c, 2, 11, 92
5, 56926, Note_on_c, 2, 71, 0
5, 56928, Control_c, 2, 11, 92
5, 56928, Note_on_c, 2, 68, 88
5, 56929, Control_c, 2, 11, 93
5, 56930, Control_c, 2, 11, 94
5, 56932, Control_c, 2, 11, 95
5, 56933, Control_c, 2, 11, 96
5, 56934, Control_c, 2, 11, 97
5, 56936, Control_c, 2, 11, 98
5, 56937, Control_c, 2, 11, 99
5, 56938, Control_c, 2, 11, 100
5, 56940, Control_c, 2, 11, 101
5, 56941, Control_c, 2, 11, 102
5, 56943, Control_c, 2, 11, 103
5, 56944, Control_c, 2, 11, 104
5, 56945, Control_c, 2, 11, 105
5, 56947, Control_c, 2, 11, 106
5, 56948, Control_c, 2, 11, 107
5, 56949, Control_c, 2, 11, 108
5, 56950, Note_on_c, 2, 68, 0
5, 56951, Control_c, 2, 11, 109
5, 56952, Control_c, 2, 11, 110
5, 56952, Note_on_c, 2, 68, 89
5, 56954, Control_c, 2, 11, 111
5, 56955, Control_c, 2, 11, 112
5, 56956, Control_c, 2, 11, 113
5, 56958, Control_c, 2, 11, 114
5, 56959, Control_c, 2, 11, 115
5, 56960, Control_c, 2, 11, 116
5, 56962, Control_c, 2, 11, 117
5, 56963, Control_c, 2, 11, 118
5, 56965, Control_c, 2, 11, 119
5, 56966, Control_c, 2, 11, 120
5, 56967, Control_c, 2, 11, 121
5, 56969, Control_c, 2, 11, 122
5, 56970, Control_c, 2, 11, 123
5, 56971, Control_c, 2, 11, 124
5, 56973, Control_c, 2, 11, 125
5, 56974, Control_c, 2, 11, 126
5, 56976, Control_c, 2, 11, 127
5, 56977, Control_c, 2, 11, 126
5, 56978, Control_c, 2, 11, 125
5, 56980, Control_c, 2, 11, 124
5, 56981, Control_c, 2, 11, 123
5, 56982, Control_c, 2, 11, 122
5, 56984, Control_c, 2, 11, 121
5, 56985, Control_c, 2, 11, 120
5, 56986, Control_c, 2, 11, 119
5, 56988, Control_c, 2, 11, 118
5, 56989, Control_c, 2, 11, 117
5, 56991, Control_c, 2, 11, 116
5, 56992, Control_c, 2, 11, 115
5, 56993, Control_c, 2, 11, 114
5, 56995, Control_c, 2, 11, 113
5, 56996, Control_c, 2, 11, 112
5, 56997, Control_c, 2, 11, 111
5, 56999, Control_c, 2, 11, 110
5, 57000, Control_c, 2, 11, 109
5, 57002, Control_c, 2, 11, 108
5, 57003, Control_c, 2, 11, 107
5, 57004, Control_c, 2, 11, 106
5, 57006, Control_c, 2, 11, 105
5, 57007, Control_c, 2, 11, 104
5, 57008, Control_c, 2, 11, 103
5, 57010, Control_c, 2, 11, 102
5, 57011, Control_c, 2, 11, 101
5, 57013, Control_c, 2, 11, 100
5, 57014, Control_c, 2, 11, 99
5, 57015, Control_c, 2, 11, 98
5, 57017, Control_c, 2, 11, 97
5, 57018, Control_c, 2, 11, 96
5, 57019, Control_c, 2, 11, 95
5, 57021, Control_c, 2, 11, 94
5, 57022, Control_c, 2, 11, 93
5, 57024, Control_c, 2, 11, 92
5, 57118, Note_on_c, 2, 68, 0
5, 68832, Control_c, 2, 11, 75
5, 68832, Note_on_c, 2, 59, 63
5, 68837, Control_c, 2, 11, 76
5, 68843, Control_c, 2, 11, 77
5, 68848, Control_c, 2, 11, 78
5, 68854, Control_c, 2, 11, 79
5, 68859, Control_c, 2, 11, 80
5, 68865, Control_c, 2, 11, 81
5, 68870, Control_c, 2, 11, 82
5, 68876, Control_c, 2, 11, 83
5, 68881, Control_c, 2, 11, 84
5, 68887, Control_c, 2, 11, 85
5, 68892, Control_c, 2, 11, 86
5, 68898, Control_c, 2, 11, 87
5, 68904, Control_c, 2, 11, 88
5, 68909, Control_c, 2, 11, 89
5, 68915, Control_c, 2, 11, 90
5, 68920, Control_c, 2, 11, 91
5, 68926, Control_c, 2, 11, 92
5, 68931, Control_c, 2, 11, 93
5, 68937, Control_c, 2, 11, 94
5, 68942, Control_c, 2, 11, 95
5, 68948, Control_c, 2, 11, 96
5, 68953, Control_c, 2, 11, 97
5, 68959, Control_c, 2, 11, 98
5, 68964, Control_c, 2, 11, 99
5, 68970, Control_c, 2, 11, 100
5, 68976, Control_c, 2, 11, 101
5, 68981, Control_c, 2, 11, 102
5, 68987, Control_c, 2, 11, 103
5, 68992, Note_on_c, 2, 59, 0
5, 68992, Control_c, 2, 11, 104
5, 68998, Control_c, 2, 11, 105
5, 69003, Control_c, 2, 11, 106
5, 69009, Control_c, 2, 11, 107
5, 69014, Control_c, 2, 11, 108
5, 69020, Control_c, 2, 11, 109
5, 69024, Note_on_c, 2, 64, 65
5, 69025, Control_c, 2, 11, 110
5, 69031, Control_c, 2, 11, 111
5, 69036, Control_c, 2, 11, 112
5, 69042, Control_c, 2, 11, 113
5, 69048, Control_c, 2, 11, 114
5, 69053, Control_c, 2, 11, 115
5, 69056, Note_on_c, 2, 64, 0
5, 69059, Control_c, 2, 11, 116
5, 69064, Control_c, 2, 11, 117
5, 69070, Control_c, 2, 11, 118
5, 69075, Control_c, 2, 11, 119
5, 69081, Control_c, 2, 11, 120
5, 69086, Control_c, 2, 11, 121
5, 69092, Control_c, 2, 11, 122
5, 69097, Control_c, 2, 11, 123
5, 69103, Control_c, 2, 11, 124
5, 69108, Control_c, 2, 11, 125
5, 69114, Control_c, 2, 11, 126
5, 69120, Control_c, 2, 11, 127
5, 69120, Note_on_c, 2, 71, 60
5, 69152, Note_on_c, 2, 71, 0
5, 69216, Control_c, 2, 11, 75
5, 69216, Note_on_c, 2, 59, 61
5, 69221, Control_c, 2, 11, 76
5, 69227, Control_c, 2, 11, 77
5, 69232, Control_c, 2, 11, 78
5, 69238, Control_c, 2, 11, 79
5, 69243, Control_c, 2, 11, 80
5, 69249, Control_c, 2, 11, 81
5, 69254, Control_c, 2, 11, 82
5, 69260, Control_c, 2, 11, 83
5, 69265, Control_c, 2, 11, 84
5, 69271, Control_c, 2, 11, 85
5, 69276, Control_c, 2, 11, 86
5, 69282, Control_c, 2, 11, 87
5, 69288, Control_c, 2, 11, 88
5, 69293, Control_c, 2, 11, 89
5, 69299, Control_c, 2, 11, 90
5, 69304, Control_c, 2, 11, 91
5, 69310, Control_c, 2, 11, 92
5, 69315, Control_c, 2, 11, 93
5, 69321, Control_c, 2, 11, 94
5, 69326, Control_c, 2, 11, 95
5, 69332, Control_c, 2, 11, 96
5, 69337, Control_c, 2, 11, 97
5, 69343, Control_c, 2, 11, 98
5, 69348, Control_c, 2, 11, 99
5, 69354, Control_c, 2, 11, 100
5, 69360, Control_c, 2, 11, 101
5, 69365, Control_c, 2, 11, 102
5, 69371, Control_c, 2, 11, 103
5, 69376, Note_on_c, 2, 59, 0
5, 69376, Control_c, 2, 11, 104
5, 69382, Control_c, 2, 11, 105
5, 69387, Control_c, 2, 11, 106
5, 69393, Control_c, 2, 11, 107
5, 69398, Control_c, 2, 11, 108
5, 69404, Control_c, 2, 11, 109
5, 69408, Note_on_c, 2, 64, 65
5, 69409, Control_c, 2, 11, 110
5, 69415, Control_c, 2, 11, 111
5, 69420, Control_c, 2, 11, 112
5, 69426, Control_c, 2, 11, 113
5, 69432, Control_c, 2, 11, 114
5, 69437, Control_c, 2, 11, 115
5, 69440, Note_on_c, 2, 64, 0
5, 69443, Control_c, 2, 11, 116
5, 69448, Control_c, 2, 11, 117
5, 69454, Control_c, 2, 11, 118
5, 69459, Control_c, 2, 11, 119
5, 69465, Control_c, 2, 11, 120
5, 69470, Control_c, 2, 11, 121
5, 69476, Control_c, 2, 11, 122
5, 69481, Control_c, 2, 11, 123
5, 69487, Control_c, 2, 11, 124
5, 69492, Control_c, 2, 11, 125
5, 69498, Control_c, 2, 11, 126
5, 69504, Control_c, 2, 11, 127
5, 69504, Note_on_c, 2, 71, 59
5, 69536, Note_on_c, 2, 71, 0
5, 69600, Control_c, 2, 11, 45
5, 69600, Note_on_c, 2, 67, 90
5, 69628, Control_c, 2, 11, 46
5, 69656, Control_c, 2, 11, 47
5, 69684, Control_c, 2, 11, 48
5, 69712, Control_c, 2, 11, 49
5, 69740, Control_c, 2, 11, 50
5, 69768, Control_c, 2, 11, 51
5, 69796, Control_c, 2, 11, 52
5, 69824, Control_c, 2, 11, 53
5, 69852, Control_c, 2, 11, 54
5, 69880, Control_c, 2, 11, 55
5, 69909, Control_c, 2, 11, 56
5, 69937, Control_c, 2, 11, 57
5, 69965, Control_c, 2, 11, 58
5, 69993, Control_c, 2, 11, 59
5, 70021, Control_c, 2, 11, 60
5, 70049, Control_c, 2, 11, 61
5, 70077, Control_c, 2, 11, 62
5, 70105, Control_c, 2, 11, 63
5, 70133, Control_c, 2, 11, 64
5, 70161, Control_c, 2, 11, 65
5, 70190, Control_c, 2, 11, 66
5, 70218, Control_c, 2, 11, 67
5, 70246, Control_c, 2, 11, 68
5, 70274, Control_c, 2, 11, 69
5, 70302, Control_c, 2, 11, 70
5, 70330, Control_c, 2, 11, 71
5, 70358, Control_c, 2, 11, 72
5, 70386, Control_c, 2, 11, 73
5, 70414, Control_c, 2, 11, 74
5, 70442, Control_c, 2, 11, 75
5, 70462, Note_on_c, 2, 67, 0
5, 70471, Control_c, 2, 11, 76
5, 70499, Control_c, 2, 11, 77
5, 70527, Control_c, 2, 11, 78
5, 70555, Control_c, 2, 11, 79
5, 70583, Control_c, 2, 11, 80
5, 70611, Control_c, 2, 11, 81
5, 70639, Control_c, 2, 11, 82
5, 70667, Control_c, 2, 11, 83
5, 70695, Control_c, 2, 11, 84
5, 70723, Control_c, 2, 11, 85
5, 70728, Note_on_c, 2, 62, 97
5, 70750, Note_on_c, 2, 62, 0
5, 70751, Control_c, 2, 11, 86
5, 70752, Note_on_c, 2, 64, 88
5, 70780, Control_c, 2, 11, 87
5, 70808, Control_c, 2, 11, 88
5, 70836, Control_c, 2, 11, 89
5, 70864, Control_c, 2, 11, 90
5, 70892, Control_c, 2, 11, 91
5, 70920, Control_c, 2, 11, 92
5, 70948, Control_c, 2, 11, 93
5, 70976, Control_c, 2, 11, 94
5, 71004, Control_c, 2, 11, 95
5, 71032, Control_c, 2, 11, 96
5, 71061, Control_c, 2, 11, 97
5, 71089, Control_c, 2, 11, 98
5, 71110, Note_on_c, 2, 64, 0
5, 71112, Note_on_c, 2, 62, 95
5, 71117, Control_c, 2, 11, 99
5, 71134, Note_on_c, 2, 62, 0
5, 71136, Note_on_c, 2, 64, 97
5, 71145, Control_c, 2, 11, 100
5, 71173, Control_c, 2, 11, 101
5, 71201, Control_c, 2, 11, 102
5, 71229, Control_c, 2, 11, 103
5, 71257, Control_c, 2, 11, 104
5, 71285, Control_c, 2, 11, 105
5, 71313, Control_c, 2, 11, 106
5, 71342, Control_c, 2, 11, 107
5, 71370, Control_c, 2, 11, 108
5, 71398, Control_c, 2, 11, 109
5, 71426, Control_c, 2, 11, 110
5, 71454, Control_c, 2, 11, 111
5, 71482, Control_c, 2, 11, 112
5, 71494, Note_on_c, 2, 64, 0
5, 71496, Note_on_c, 2, 62, 96
5, 71510, Control_c, 2, 11, 113
5, 71518, Note_on_c, 2, 62, 0
5, 71520, Note_on_c, 2, 64, 97
5, 71538, Control_c, 2, 11, 114
5, 71566, Control_c, 2, 11, 115
5, 71594, Control_c, 2, 11, 116
5, 71623, Control_c, 2, 11, 117
5, 71651, Control_c, 2, 11, 118
5, 71679, Control_c, 2, 11, 119
5, 71707, Control_c, 2, 11, 120
5, 71735, Control_c, 2, 11, 121
5, 71763, Control_c, 2, 11, 122
5, 71776, Note_on_c, 2, 64, 0
5, 71791, Control_c, 2, 11, 123
5, 71819, Control_c, 2, 11, 124
5, 71847, Control_c, 2, 11, 125
5, 71875, Control_c, 2, 11, 126
5, 71904, Control_c, 2, 11, 127
5, 71904, Control_c, 2, 7, 92
5, 71904, Control_c, 2, 11, 92
5, 71904, Note_on_c, 2, 58, 108
5, 71909, Control_c, 2, 11, 93
5, 71914, Control_c, 2, 11, 94
5, 71920, Control_c, 2, 11, 95
5, 71925, Control_c, 2, 11, 96
5, 71926, Note_on_c, 2, 58, 0
5, 71928, Note_on_c, 2, 60, 112
5, 71931, Control_c, 2, 11, 97
5, 71936, Control_c, 2, 11, 98
5, 71942, Control_c, 2, 11, 99
5, 71947, Control_c, 2, 11, 100
5, 71953, Control_c, 2, 11, 101
5, 71958, Control_c, 2, 11, 102
5, 71964, Control_c, 2, 11, 103
5, 71969, Control_c, 2, 11, 104
5, 71975, Control_c, 2, 11, 105
5, 71980, Control_c, 2, 11, 106
5, 71986, Control_c, 2, 11, 107
5, 71991, Control_c, 2, 11, 108
5, 71997, Control_c, 2, 11, 109
5, 72002, Control_c, 2, 11, 110
5, 72008, Control_c, 2, 11, 111
5, 72013, Control_c, 2, 11, 112
5, 72019, Control_c, 2, 11, 113
5, 72024, Control_c, 2, 11, 114
5, 72030, Control_c, 2, 11, 115
5, 72035, Control_c, 2, 11, 116
5, 72041, Control_c, 2, 11, 117
5, 72046, Control_c, 2, 11, 118
5, 72052, Control_c, 2, 11, 119
5, 72057, Control_c, 2, 11, 120
5, 72063, Control_c, 2, 11, 121
5, 72068, Control_c, 2, 11, 122
5, 72074, Control_c, 2, 11, 123
5, 72079, Control_c, 2, 11, 124
5, 72085, Control_c, 2, 11, 125
5, 72090, Control_c, 2, 11, 126
5, 72094, Note_on_c, 2, 60, 0
5, 72096, Control_c, 2, 11, 127
5, 72096, Note_on_c, 2, 67, 108
5, 72432, Note_on_c, 2, 67, 0
5, 72480, Control_c, 2, 11, 92
5, 72480, Note_on_c, 2, 70, 108
5, 72490, Control_c, 2, 11, 93
5, 72501, Control_c, 2, 11, 94
5, 72512, Control_c, 2, 11, 95
5, 72523, Control_c, 2, 11, 96
5, 72534, Control_c, 2, 11, 97
5, 72542, Note_on_c, 2, 70, 0
5, 72544, Note_on_c, 2, 72, 112
5, 72545, Control_c, 2, 11, 98
5, 72556, Control_c, 2, 11, 99
5, 72567, Control_c, 2, 11, 100
5, 72578, Control_c, 2, 11, 101
5, 72589, Control_c, 2, 11, 102
5, 72600, Control_c, 2, 11, 103
5, 72611, Control_c, 2, 11, 104
5, 72622, Control_c, 2, 11, 105
5, 72633, Control_c, 2, 11, 106
5, 72638, Note_on_c, 2, 72, 0
5, 72640, Note_on_c, 2, 67, 110
5, 72644, Control_c, 2, 11, 107
5, 72655, Control_c, 2, 11, 108
5, 72666, Control_c, 2, 11, 109
5, 72670, Note_on_c, 2, 67, 0
5, 72672, Note_on_c, 2, 70, 106
5, 72677, Control_c, 2, 11, 110
5, 72688, Control_c, 2, 11, 111
5, 72699, Control_c, 2, 11, 112
5, 72710, Control_c, 2, 11, 113
5, 72721, Control_c, 2, 11, 114
5, 72732, Control_c, 2, 11, 115
5, 72734, Note_on_c, 2, 70, 0
5, 72736, Note_on_c, 2, 65, 110
5, 72743, Control_c, 2, 11, 116
5, 72754, Control_c, 2, 11, 117
5, 72765, Control_c, 2, 11, 118
5, 72776, Control_c, 2, 11, 119
5, 72787, Control_c, 2, 11, 120
5, 72798, Note_on_c, 2, 65, 0
5, 72798, Control_c, 2, 11, 121
5, 72800, Note_on_c, 2, 67, 109
5, 72809, Control_c, 2, 11, 122
5, 72820, Control_c, 2, 11, 123
5, 72831, Control_c, 2, 11, 124
5, 72842, Control_c, 2, 11, 125
5, 72853, Control_c, 2, 11, 126
5, 72862, Note_on_c, 2, 67, 0
5, 72864, Control_c, 2, 11, 127
5, 72864, Note_on_c, 2, 62, 105
5, 72926, Note_on_c, 2, 62, 0
5, 72928, Note_on_c, 2, 63, 112
5, 73022, Note_on_c, 2, 63, 0
5, 73024, Note_on_c, 2, 58, 104
5, 73054, Note_on_c, 2, 58, 0
5, 73056, Control_c, 2, 11, 127
5, 73056, Note_on_c, 2, 60, 112
5, 73059, Control_c, 2, 11, 126
5, 73062, Control_c, 2, 11, 125
5, 73065, Control_c, 2, 11, 124
5, 73068, Control_c, 2, 11, 123
5, 73071, Control_c, 2, 11, 122
5, 73074, Control_c, 2, 11, 121
5, 73077, Control_c, 2, 11, 120
5, 73080, Control_c, 2, 11, 119
5, 73083, Control_c, 2, 11, 118
5, 73086, Control_c, 2, 11, 117
5, 73089, Control_c, 2, 11, 116
5, 73092, Control_c, 2, 11, 115
5, 73095, Control_c, 2, 11, 114
5, 73098, Control_c, 2, 11, 113
5, 73101, Control_c, 2, 11, 112
5, 73104, Control_c, 2, 11, 111
5, 73107, Control_c, 2, 11, 110
5, 73110, Control_c, 2, 11, 109
5, 73113, Control_c, 2, 11, 108
5, 73116, Control_c, 2, 11, 107
5, 73120, Control_c, 2, 11, 106
5, 73123, Control_c, 2, 11, 105
5, 73126, Control_c, 2, 11, 104
5, 73129, Control_c, 2, 11, 103
5, 73132, Control_c, 2, 11, 102
5, 73135, Control_c, 2, 11, 101
5, 73138, Control_c, 2, 11, 100
5, 73141, Control_c, 2, 11, 99
5, 73144, Control_c, 2, 11, 98
5, 73147, Control_c, 2, 11, 97
5, 73150, Control_c, 2, 11, 96
5, 73153, Control_c, 2, 11, 95
5, 73156, Control_c, 2, 11, 94
5, 73159, Control_c, 2, 11, 93
5, 73162, Control_c, 2, 11, 92
5, 73165, Control_c, 2, 11, 91
5, 73168, Control_c, 2, 11, 90
5, 73171, Control_c, 2, 11, 89
5, 73174, Control_c, 2, 11, 88
5, 73177, Control_c, 2, 11, 87
5, 73180, Control_c, 2, 11, 86
5, 73184, Control_c, 2, 11, 85
5, 73187, Control_c, 2, 11, 84
5, 73190, Control_c, 2, 11, 83
5, 73193, Control_c, 2, 11, 82
5, 73196, Control_c, 2, 11, 81
5, 73199, Control_c, 2, 11, 80
5, 73202, Control_c, 2, 11, 79
5, 73205, Control_c, 2, 11, 78
5, 73208, Control_c, 2, 11, 77
5, 73211, Control_c, 2, 11, 76
5, 73214, Control_c, 2, 11, 75
5, 73217, Control_c, 2, 11, 74
5, 73220, Control_c, 2, 11, 73
5, 73223, Control_c, 2, 11, 72
5, 73226, Control_c, 2, 11, 71
5, 73229, Control_c, 2, 11, 70
5, 73232, Control_c, 2, 11, 69
5, 73235, Control_c, 2, 11, 68
5, 73238, Control_c, 2, 11, 67
5, 73241, Control_c, 2, 11, 66
5, 73244, Control_c, 2, 11, 65
5, 73248, Control_c, 2, 11, 64
5, 73254, Control_c, 2, 11, 65
5, 73261, Control_c, 2, 11, 66
5, 73268, Control_c, 2, 11, 67
5, 73275, Control_c, 2, 11, 68
5, 73282, Control_c, 2, 11, 69
5, 73289, Control_c, 2, 11, 70
5, 73296, Control_c, 2, 11, 71
5, 73302, Control_c, 2, 11, 72
5, 73309, Control_c, 2, 11, 73
5, 73310, Note_on_c, 2, 60, 0
5, 73312, Note_on_c, 2, 57, 109
5, 73316, Control_c, 2, 11, 74
5, 73323, Control_c, 2, 11, 75
5, 73330, Control_c, 2, 11, 76
5, 73337, Control_c, 2, 11, 77
5, 73344, Control_c, 2, 11, 78
5, 73350, Control_c, 2, 11, 79
5, 73357, Control_c, 2, 11, 80
5, 73364, Control_c, 2, 11, 81
5, 73371, Control_c, 2, 11, 82
5, 73374, Note_on_c, 2, 57, 0
5, 73376, Note_on_c, 2, 60, 103
5, 73378, Control_c, 2, 11, 83
5, 73385, Control_c, 2, 11, 84
5, 73392, Control_c, 2, 11, 85
5, 73398, Control_c, 2, 11, 86
5, 73405, Control_c, 2, 11, 87
5, 73412, Control_c, 2, 11, 88
5, 73419, Control_c, 2, 11, 89
5, 73426, Control_c, 2, 11, 90
5, 73433, Control_c, 2, 11, 91
5, 73438, Note_on_c, 2, 60, 0
5, 73440, Control_c, 2, 11, 92
5, 73440, Note_on_c, 2, 63, 112
5, 73534, Note_on_c, 2, 63, 0
5, 73536, Note_on_c, 2, 60, 104
5, 73630, Note_on_c, 2, 60, 0
5, 73632, Note_on_c, 2, 63, 104
5, 73726, Note_on_c, 2, 63, 0
5, 73728, Note_on_c, 2, 67, 104
5, 73822, Note_on_c, 2, 67, 0
5, 73824, Note_on_c, 2, 63, 112
5, 73918, Note_on_c, 2, 63, 0
5, 73920, Note_on_c, 2, 67, 105
5, 74014, Note_on_c, 2, 67, 0
5, 74016, Control_c, 2, 11, 75
5, 74016, Note_on_c, 2, 63, 97
5, 74027, Control_c, 2, 11, 76
5, 74038, Control_c, 2, 11, 77
5, 74049, Control_c, 2, 11, 78
5, 74060, Control_c, 2, 11, 79
5, 74071, Control_c, 2, 11, 80
5, 74082, Control_c, 2, 11, 81
5, 74093, Control_c, 2, 11, 82
5, 74104, Control_c, 2, 11, 83
5, 74115, Control_c, 2, 11, 84
5, 74126, Control_c, 2, 11, 85
5, 74137, Control_c, 2, 11, 86
5, 74148, Control_c, 2, 11, 87
5, 74160, Control_c, 2, 11, 88
5, 74171, Control_c, 2, 11, 89
5, 74182, Control_c, 2, 11, 90
5, 74193, Control_c, 2, 11, 91
5, 74204, Control_c, 2, 11, 92
5, 74215, Control_c, 2, 11, 93
5, 74226, Control_c, 2, 11, 94
5, 74237, Control_c, 2, 11, 95
5, 74248, Control_c, 2, 11, 96
5, 74259, Control_c, 2, 11, 97
5, 74270, Control_c, 2, 11, 98
5, 74281, Control_c, 2, 11, 99
5, 74292, Control_c, 2, 11, 100
5, 74304, Control_c, 2, 11, 101
5, 74315, Control_c, 2, 11, 102
5, 74326, Control_c, 2, 11, 103
5, 74337, Control_c, 2, 11, 104
5, 74348, Control_c, 2, 11, 105
5, 74359, Control_c, 2, 11, 106
5, 74370, Control_c, 2, 11, 107
5, 74381, Control_c, 2, 11, 108
5, 74392, Control_c, 2, 11, 109
5, 74400, Note_on_c, 2, 63, 0
5, 74400, Note_on_c, 2, 64, 96
5, 74403, Control_c, 2, 11, 110
5, 74414, Control_c, 2, 11, 111
5, 74425, Control_c, 2, 11, 112
5, 74436, Control_c, 2, 11, 113
5, 74448, Control_c, 2, 11, 114
5, 74459, Control_c, 2, 11, 115
5, 74470, Control_c, 2, 11, 116
5, 74481, Control_c, 2, 11, 117
5, 74492, Control_c, 2, 11, 118
5, 74503, Control_c, 2, 11, 119
5, 74514, Control_c, 2, 11, 120
5, 74525, Control_c, 2, 11, 121
5, 74536, Control_c, 2, 11, 122
5, 74547, Control_c, 2, 11, 123
5, 74558, Control_c, 2, 11, 124
5, 74560, Note_on_c, 2, 64, 0
5, 74569, Control_c, 2, 11, 125
5, 74580, Control_c, 2, 11, 126
5, 74592, Control_c, 2, 11, 127
5, 74592, Control_c, 2, 11, 75
5, 74592, Note_on_c, 2, 63, 95
5, 74603, Control_c, 2, 11, 76
5, 74614, Control_c, 2, 11, 77
5, 74625, Control_c, 2, 11, 78
5, 74636, Control_c, 2, 11, 79
5, 74647, Control_c, 2, 11, 80
5, 74658, Control_c, 2, 11, 81
5, 74669, Control_c, 2, 11, 82
5, 74680, Control_c, 2, 11, 83
5, 74691, Control_c, 2, 11, 84
5, 74702, Control_c, 2, 11, 85
5, 74713, Control_c, 2, 11, 86
5, 74724, Control_c, 2, 11, 87
5, 74736, Control_c, 2, 11, 88
5, 74747, Control_c, 2, 11, 89
5, 74758, Control_c, 2, 11, 90
5, 74769, Control_c, 2, 11, 91
5, 74780, Control_c, 2, 11, 92
5, 74791, Control_c, 2, 11, 93
5, 74802, Control_c, 2, 11, 94
5, 74813, Control_c, 2, 11, 95
5, 74824, Control_c, 2, 11, 96
5, 74835, Control_c, 2, 11, 97
5, 74846, Control_c, 2, 11, 98
5, 74857, Control_c, 2, 11, 99
5, 74868, Control_c, 2, 11, 100
5, 74880, Control_c, 2, 11, 101
5, 74891, Control_c, 2, 11, 102
5, 74902, Control_c, 2, 11, 103
5, 74913, Control_c, 2, 11, 104
5, 74924, Control_c, 2, 11, 105
5, 74935, Control_c, 2, 11, 106
5, 74946, Control_c, 2, 11, 107
5, 74957, Control_c, 2, 11, 108
5, 74968, Control_c, 2, 11, 109
5, 74976, Note_on_c, 2, 63, 0
5, 74976, Note_on_c, 2, 64, 88
5, 74979, Control_c, 2, 11, 110
5, 74990, Control_c, 2, 11, 111
5, 75001, Control_c, 2, 11, 112
5, 75012, Control_c, 2, 11, 113
5, 75024, Control_c, 2, 11, 114
5, 75035, Control_c, 2, 11, 115
5, 75046, Control_c, 2, 11, 116
5, 75057, Control_c, 2, 11, 117
5, 75068, Control_c, 2, 11, 118
5, 75079, Control_c, 2, 11, 119
5, 75090, Control_c, 2, 11, 120
5, 75101, Control_c, 2, 11, 121
5, 75112, Control_c, 2, 11, 122
5, 75123, Control_c, 2, 11, 123
5, 75134, Control_c, 2, 11, 124
5, 75136, Note_on_c, 2, 64, 0
5, 75145, Control_c, 2, 11, 125
5, 75156, Control_c, 2, 11, 126
5, 75168, Control_c, 2, 11, 127
5, 75168, Control_c, 2, 11, 75
5, 75168, Note_on_c, 2, 67, 87
5, 75456, Control_c, 2, 11, 75
5, 75457, Control_c, 2, 11, 76
5, 75459, Control_c, 2, 11, 77
5, 75461, Control_c, 2, 11, 78
5, 75463, Control_c, 2, 11, 79
5, 75465, Control_c, 2, 11, 80
5, 75467, Control_c, 2, 11, 81
5, 75468, Control_c, 2, 11, 82
5, 75470, Control_c, 2, 11, 83
5, 75472, Control_c, 2, 11, 84
5, 75474, Control_c, 2, 11, 85
5, 75476, Control_c, 2, 11, 86
5, 75478, Control_c, 2, 11, 87
5, 75480, Control_c, 2, 11, 88
5, 75481, Control_c, 2, 11, 89
5, 75483, Control_c, 2, 11, 90
5, 75485, Control_c, 2, 11, 91
5, 75487, Control_c, 2, 11, 92
5, 75489, Control_c, 2, 11, 93
5, 75491, Control_c, 2, 11, 94
5, 75492, Control_c, 2, 11, 95
5, 75494, Control_c, 2, 11, 96
5, 75496, Control_c, 2, 11, 97
5, 75498, Control_c, 2, 11, 98
5, 75500, Control_c, 2, 11, 99
5, 75502, Control_c, 2, 11, 100
5, 75504, Control_c, 2, 11, 101
5, 75505, Control_c, 2, 11, 102
5, 75507, Control_c, 2, 11, 103
5, 75509, Control_c, 2, 11, 104
5, 75511, Control_c, 2, 11, 105
5, 75513, Control_c, 2, 11, 106
5, 75515, Control_c, 2, 11, 107
5, 75516, Control_c, 2, 11, 108
5, 75518, Control_c, 2, 11, 109
5, 75520, Control_c, 2, 11, 110
5, 75522, Control_c, 2, 11, 111
5, 75524, Control_c, 2, 11, 112
5, 75526, Control_c, 2, 11, 113
5, 75528, Control_c, 2, 11, 114
5, 75529, Control_c, 2, 11, 115
5, 75531, Control_c, 2, 11, 116
5, 75533, Control_c, 2, 11, 117
5, 75535, Control_c, 2, 11, 118
5, 75537, Control_c, 2, 11, 119
5, 75539, Control_c, 2, 11, 120
5, 75540, Control_c, 2, 11, 121
5, 75542, Control_c, 2, 11, 122
5, 75544, Control_c, 2, 11, 123
5, 75546, Control_c, 2, 11, 124
5, 75548, Control_c, 2, 11, 125
5, 75550, Control_c, 2, 11, 126
5, 75552, Note_on_c, 2, 67, 0
5, 75552, Control_c, 2, 11, 127
5, 75552, Note_on_c, 2, 69, 92
5, 75712, Note_on_c, 2, 69, 0
5, 75744, Control_c, 2, 11, 75
5, 75744, Note_on_c, 2, 67, 96
5, 76032, Control_c, 2, 11, 75
5, 76033, Control_c, 2, 11, 76
5, 76035, Control_c, 2, 11, 77
5, 76037, Control_c, 2, 11, 78
5, 76039, Control_c, 2, 11, 79
5, 76041, Control_c, 2, 11, 80
5, 76043, Control_c, 2, 11, 81
5, 76044, Control_c, 2, 11, 82
5, 76046, Control_c, 2, 11, 83
5, 76048, Control_c, 2, 11, 84
5, 76050, Control_c, 2, 11, 85
5, 76052, Control_c, 2, 11, 86
5, 76054, Control_c, 2, 11, 87
5, 76056, Control_c, 2, 11, 88
5, 76057, Control_c, 2, 11, 89
5, 76059, Control_c, 2, 11, 90
5, 76061, Control_c, 2, 11, 91
5, 76063, Control_c, 2, 11, 92
5, 76065, Control_c, 2, 11, 93
5, 76067, Control_c, 2, 11, 94
5, 76068, Control_c, 2, 11, 95
5, 76070, Control_c, 2, 11, 96
5, 76072, Control_c, 2, 11, 97
5, 76074, Control_c, 2, 11, 98
5, 76076, Control_c, 2, 11, 99
5, 76078, Control_c, 2, 11, 100
5, 76080, Control_c, 2, 11, 101
5, 76081, Control_c, 2, 11, 102
5, 76083, Control_c, 2, 11, 103
5, 76085, Control_c, 2, 11, 104
5, 76087, Control_c, 2, 11, 105
5, 76089, Control_c, 2, 11, 106
5, 76091, Control_c, 2, 11, 107
5, 76092, Control_c, 2, 11, 108
5, 76094, Control_c, 2, 11, 109
5, 76096, Control_c, 2, 11, 110
5, 76098, Control_c, 2, 11, 111
5, 76100, Control_c, 2, 11, 112
5, 76102, Control_c, 2, 11, 113
5, 76104, Control_c, 2, 11, 114
5, 76105, Control_c, 2, 11, 115
5, 76107, Control_c, 2, 11, 116
5, 76109, Control_c, 2, 11, 117
5, 76111, Control_c, 2, 11, 118
5, 76113, Control_c, 2, 11, 119
5, 76115, Control_c, 2, 11, 120
5, 76116, Control_c, 2, 11, 121
5, 76118, Control_c, 2, 11, 122
5, 76120, Control_c, 2, 11, 123
5, 76122, Control_c, 2, 11, 124
5, 76124, Control_c, 2, 11, 125
5, 76126, Control_c, 2, 11, 126
5, 76128, Note_on_c, 2, 67, 0
5, 76128, Control_c, 2, 11, 127
5, 76128, Note_on_c, 2, 69, 97
5, 76288, Note_on_c, 2, 69, 0
5, 78624, Note_on_c, 2, 58, 87
5, 78670, Note_on_c, 2, 58, 0
5, 78672, Note_on_c, 2, 60, 93
5, 78880, Note_on_c, 2, 60, 0
5, 78912, Control_c, 2, 11, 92
5, 78912, Note_on_c, 2, 67, 127
5, 78928, Control_c, 2, 11, 93
5, 78944, Control_c, 2, 11, 94
5, 78961, Control_c, 2, 11, 95
5, 78977, Control_c, 2, 11, 96
5, 78994, Control_c, 2, 11, 97
5, 79010, Control_c, 2, 11, 98
5, 79027, Control_c, 2, 11, 99
5, 79043, Control_c, 2, 11, 100
5, 79060, Control_c, 2, 11, 101
5, 79076, Control_c, 2, 11, 102
5, 79093, Control_c, 2, 11, 103
5, 79109, Control_c, 2, 11, 104
5, 79125, Control_c, 2, 11, 105
5, 79142, Control_c, 2, 11, 106
5, 79158, Control_c, 2, 11, 107
5, 79175, Control_c, 2, 11, 108
5, 79191, Control_c, 2, 11, 109
5, 79208, Control_c, 2, 11, 110
5, 79224, Control_c, 2, 11, 111
5, 79241, Control_c, 2, 11, 112
5, 79257, Control_c, 2, 11, 113
5, 79274, Control_c, 2, 11, 114
5, 79290, Control_c, 2, 11, 115
5, 79306, Control_c, 2, 11, 116
5, 79323, Control_c, 2, 11, 117
5, 79339, Control_c, 2, 11, 118
5, 79356, Control_c, 2, 11, 119
5, 79372, Control_c, 2, 11, 120
5, 79389, Control_c, 2, 11, 121
5, 79405, Control_c, 2, 11, 122
5, 79422, Control_c, 2, 11, 123
5, 79438, Control_c, 2, 11, 124
5, 79440, Note_on_c, 2, 67, 0
5, 79455, Control_c, 2, 11, 125
5, 79471, Control_c, 2, 11, 126
5, 79488, Control_c, 2, 11, 127
5, 79488, Note_on_c, 2, 70, 127
5, 79582, Note_on_c, 2, 70, 0
5, 79584, Note_on_c, 2, 72, 123
5, 79726, Note_on_c, 2, 72, 0
5, 79728, Note_on_c, 2, 67, 123
5, 79774, Note_on_c, 2, 67, 0
5, 79776, Control_c, 2, 11, 127
5, 79776, Note_on_c, 2, 70, 124
5, 79794, Control_c, 2, 11, 126
5, 79812, Control_c, 2, 11, 125
5, 79830, Control_c, 2, 11, 124
5, 79849, Control_c, 2, 11, 123
5, 79867, Control_c, 2, 11, 122
5, 79885, Control_c, 2, 11, 121
5, 79904, Control_c, 2, 11, 120
5, 79918, Note_on_c, 2, 70, 0
5, 79920, Note_on_c, 2, 67, 123
5, 79922, Control_c, 2, 11, 119
5, 79940, Control_c, 2, 11, 118
5, 79958, Control_c, 2, 11, 117
5, 79977, Control_c, 2, 11, 116
5, 79995, Control_c, 2, 11, 115
5, 80013, Control_c, 2, 11, 114
5, 80032, Control_c, 2, 11, 113
5, 80050, Control_c, 2, 11, 112
5, 80068, Control_c, 2, 11, 111
5, 80086, Control_c, 2, 11, 110
5, 80105, Control_c, 2, 11, 109
5, 80123, Control_c, 2, 11, 108
5, 80141, Control_c, 2, 11, 107
5, 80160, Control_c, 2, 11, 106
5, 80178, Control_c, 2, 11, 105
5, 80196, Control_c, 2, 11, 104
5, 80214, Control_c, 2, 11, 103
5, 80233, Control_c, 2, 11, 102
5, 80251, Control_c, 2, 11, 101
5, 80269, Control_c, 2, 11, 100
5, 80288, Control_c, 2, 11, 99
5, 80306, Control_c, 2, 11, 98
5, 80324, Control_c, 2, 11, 97
5, 80342, Control_c, 2, 11, 96
5, 80361, Control_c, 2, 11, 95
5, 80379, Control_c, 2, 11, 94
5, 80397, Control_c, 2, 11, 93
5, 80416, Control_c, 2, 11, 92
5, 80434, Control_c, 2, 11, 91
5, 80452, Control_c, 2, 11, 90
5, 80470, Control_c, 2, 11, 89
5, 80489, Control_c, 2, 11, 88
5, 80507, Control_c, 2, 11, 87
5, 80525, Control_c, 2, 11, 86
5, 80544, Control_c, 2, 11, 85
5, 80562, Control_c, 2, 11, 84
5, 80580, Control_c, 2, 11, 83
5, 80598, Control_c, 2, 11, 82
5, 80617, Control_c, 2, 11, 81
5, 80635, Control_c, 2, 11, 80
5, 80653, Control_c, 2, 11, 79
5, 80672, Control_c, 2, 11, 78
5, 80690, Control_c, 2, 11, 77
5, 80708, Control_c, 2, 11, 76
5, 80726, Control_c, 2, 11, 75
5, 80745, Control_c, 2, 11, 74
5, 80763, Control_c, 2, 11, 73
5, 80781, Control_c, 2, 11, 72
5, 80800, Control_c, 2, 11, 71
5, 80818, Control_c, 2, 11, 70
5, 80836, Control_c, 2, 11, 69
5, 80854, Control_c, 2, 11, 68
5, 80873, Control_c, 2, 11, 67
5, 80891, Control_c, 2, 11, 66
5, 80896, Note_on_c, 2, 67, 0
5, 80909, Control_c, 2, 11, 65
5, 80928, Control_c, 2, 11, 64
5, 80928, Control_c, 2, 11, 127
5, 80928, Note_on_c, 2, 58, 96
5, 80974, Note_on_c, 2, 58, 0
5, 80976, Note_on_c, 2, 60, 96
5, 81184, Note_on_c, 2, 60, 0
5, 81216, Note_on_c, 2, 67, 89
5, 82048, Note_on_c, 2, 67, 0
5, 82080, Note_on_c, 2, 65, 92
5, 82126, Note_on_c, 2, 65, 0
5, 82128, Note_on_c, 2, 67, 90
5, 82336, Note_on_c, 2, 67, 0
5, 82368, Note_on_c, 2, 72, 88
5, 83200, Note_on_c, 2, 72, 0
5, 83232, Control_c, 2, 7, 127
5, 86112, Control_c, 2, 11, 92
5, 86112, Note_on_c, 2, 58, 63
5, 86206, Note_on_c, 2, 58, 0
5, 86208, Note_on_c, 2, 58, 62
5, 86302, Note_on_c, 2, 58, 0
5, 86304, Note_on_c, 2, 58, 57
5, 86398, Note_on_c, 2, 58, 0
5, 86400, Note_on_c, 2, 58, 59
5, 86542, Note_on_c, 2, 58, 0
5, 86544, Note_on_c, 2, 58, 60
5, 86830, Note_on_c, 2, 58, 0
5, 86832, Note_on_c, 2, 60, 58
5, 86974, Note_on_c, 2, 60, 0
5, 86976, Control_c, 2, 11, 92
5, 86976, Note_on_c, 2, 63, 62
5, 86984, Control_c, 2, 11, 93
5, 86992, Control_c, 2, 11, 94
5, 87000, Control_c, 2, 11, 95
5, 87008, Control_c, 2, 11, 96
5, 87017, Control_c, 2, 11, 97
5, 87025, Control_c, 2, 11, 98
5, 87033, Control_c, 2, 11, 99
5, 87041, Control_c, 2, 11, 100
5, 87050, Control_c, 2, 11, 101
5, 87058, Control_c, 2, 11, 102
5, 87066, Control_c, 2, 11, 103
5, 87074, Control_c, 2, 11, 104
5, 87082, Control_c, 2, 11, 105
5, 87091, Control_c, 2, 11, 106
5, 87099, Control_c, 2, 11, 107
5, 87107, Control_c, 2, 11, 108
5, 87115, Control_c, 2, 11, 109
5, 87124, Control_c, 2, 11, 110
5, 87132, Control_c, 2, 11, 111
5, 87140, Control_c, 2, 11, 112
5, 87148, Control_c, 2, 11, 113
5, 87157, Control_c, 2, 11, 114
5, 87165, Control_c, 2, 11, 115
5, 87173, Control_c, 2, 11, 116
5, 87181, Control_c, 2, 11, 117
5, 87189, Control_c, 2, 11, 118
5, 87198, Control_c, 2, 11, 119
5, 87206, Control_c, 2, 11, 120
5, 87214, Control_c, 2, 11, 121
5, 87222, Control_c, 2, 11, 122
5, 87231, Control_c, 2, 11, 123
5, 87239, Control_c, 2, 11, 124
5, 87247, Control_c, 2, 11, 125
5, 87255, Control_c, 2, 11, 126
5, 87264, Control_c, 2, 11, 127
5, 87358, Note_on_c, 2, 63, 0
5, 87360, Note_on_c, 2, 61, 63
5, 87454, Note_on_c, 2, 61, 0
5, 87456, Note_on_c, 2, 60, 65
5, 87550, Note_on_c, 2, 60, 0
5, 87552, Note_on_c, 2, 58, 65
5, 87694, Note_on_c, 2, 58, 0
5, 87696, Note_on_c, 2, 56, 56
5, 87838, Note_on_c, 2, 56, 0
5, 87840, Note_on_c, 2, 54, 60
5, 87982, Note_on_c, 2, 54, 0
5, 87984, Control_c, 2, 11, 92
5, 87984, Note_on_c, 2, 58, 61
5, 87996, Control_c, 2, 11, 93
5, 88008, Control_c, 2, 11, 94
5, 88021, Control_c, 2, 11, 95
5, 88033, Control_c, 2, 11, 96
5, 88045, Control_c, 2, 11, 97
5, 88058, Control_c, 2, 11, 98
5, 88070, Control_c, 2, 11, 99
5, 88082, Control_c, 2, 11, 100
5, 88095, Control_c, 2, 11, 101
5, 88107, Control_c, 2, 11, 102
5, 88119, Control_c, 2, 11, 103
5, 88132, Control_c, 2, 11, 104
5, 88144, Control_c, 2, 11, 105
5, 88156, Control_c, 2, 11, 106
5, 88169, Control_c, 2, 11, 107
5, 88181, Control_c, 2, 11, 108
5, 88193, Control_c, 2, 11, 109
5, 88206, Control_c, 2, 11, 110
5, 88218, Control_c, 2, 11, 111
5, 88230, Control_c, 2, 11, 112
5, 88240, Note_on_c, 2, 58, 0
5, 88243, Control_c, 2, 11, 113
5, 88255, Control_c, 2, 11, 114
5, 88267, Control_c, 2, 11, 115
5, 88272, Note_on_c, 2, 60, 65
5, 88280, Control_c, 2, 11, 116
5, 88292, Control_c, 2, 11, 117
5, 88304, Control_c, 2, 11, 118
5, 88317, Control_c, 2, 11, 119
5, 88329, Control_c, 2, 11, 120
5, 88341, Control_c, 2, 11, 121
5, 88354, Control_c, 2, 11, 122
5, 88366, Control_c, 2, 11, 123
5, 88378, Control_c, 2, 11, 124
5, 88391, Control_c, 2, 11, 125
5, 88403, Control_c, 2, 11, 126
5, 88414, Note_on_c, 2, 60, 0
5, 88416, Control_c, 2, 11, 127
5, 88416, Note_on_c, 2, 63, 65
5, 88420, Control_c, 2, 11, 126
5, 88425, Control_c, 2, 11, 125
5, 88429, Control_c, 2, 11, 124
5, 88434, Control_c, 2, 11, 123
5, 88438, Control_c, 2, 11, 122
5, 88443, Control_c, 2, 11, 121
5, 88448, Control_c, 2, 11, 120
5, 88452, Control_c, 2, 11, 119
5, 88457, Control_c, 2, 11, 118
5, 88461, Control_c, 2, 11, 117
5, 88466, Control_c, 2, 11, 116
5, 88470, Control_c, 2, 11, 115
5, 88475, Control_c, 2, 11, 114
5, 88480, Control_c, 2, 11, 113
5, 88484, Control_c, 2, 11, 112
5, 88489, Control_c, 2, 11, 111
5, 88493, Control_c, 2, 11, 110
5, 88498, Control_c, 2, 11, 109
5, 88502, Control_c, 2, 11, 108
5, 88507, Control_c, 2, 11, 107
5, 88510, Note_on_c, 2, 63, 0
5, 88512, Control_c, 2, 11, 106
5, 88512, Note_on_c, 2, 61, 57
5, 88516, Control_c, 2, 11, 105
5, 88521, Control_c, 2, 11, 104
5, 88525, Control_c, 2, 11, 103
5, 88530, Control_c, 2, 11, 102
5, 88534, Control_c, 2, 11, 101
5, 88539, Control_c, 2, 11, 100
5, 88544, Control_c, 2, 11, 99
5, 88548, Control_c, 2, 11, 98
5, 88553, Control_c, 2, 11, 97
5, 88557, Control_c, 2, 11, 96
5, 88562, Control_c, 2, 11, 95
5, 88566, Control_c, 2, 11, 94
5, 88571, Control_c, 2, 11, 93
5, 88576, Control_c, 2, 11, 92
5, 88580, Control_c, 2, 11, 91
5, 88585, Control_c, 2, 11, 90
5, 88589, Control_c, 2, 11, 89
5, 88594, Control_c, 2, 11, 88
5, 88598, Control_c, 2, 11, 87
5, 88603, Control_c, 2, 11, 86
5, 88606, Note_on_c, 2, 61, 0
5, 88608, Control_c, 2, 11, 85
5, 88608, Note_on_c, 2, 60, 55
5, 88612, Control_c, 2, 11, 84
5, 88617, Control_c, 2, 11, 83
5, 88621, Control_c, 2, 11, 82
5, 88626, Control_c, 2, 11, 81
5, 88630, Control_c, 2, 11, 80
5, 88635, Control_c, 2, 11, 79
5, 88640, Control_c, 2, 11, 78
5, 88644, Control_c, 2, 11, 77
5, 88649, Control_c, 2, 11, 76
5, 88653, Control_c, 2, 11, 75
5, 88658, Control_c, 2, 11, 74
5, 88662, Control_c, 2, 11, 73
5, 88667, Control_c, 2, 11, 72
5, 88672, Control_c, 2, 11, 71
5, 88676, Control_c, 2, 11, 70
5, 88681, Control_c, 2, 11, 69
5, 88685, Control_c, 2, 11, 68
5, 88690, Control_c, 2, 11, 67
5, 88694, Control_c, 2, 11, 66
5, 88699, Control_c, 2, 11, 65
5, 88702, Note_on_c, 2, 60, 0
5, 88704, Control_c, 2, 11, 64
5, 88704, Note_on_c, 2, 58, 55
5, 89536, Note_on_c, 2, 58, 0
5, 96480, Control_c, 2, 11, 75
5, 96480, Note_on_c, 2, 72, 56
5, 96483, Control_c, 2, 11, 76
5, 96487, Control_c, 2, 11, 77
5, 96491, Control_c, 2, 11, 78
5, 96494, Control_c, 2, 11, 79
5, 96498, Control_c, 2, 11, 80
5, 96502, Control_c, 2, 11, 81
5, 96505, Control_c, 2, 11, 82
5, 96509, Control_c, 2, 11, 83
5, 96513, Control_c, 2, 11, 84
5, 96516, Control_c, 2, 11, 85
5, 96520, Control_c, 2, 11, 86
5, 96524, Control_c, 2, 11, 87
5, 96528, Control_c, 2, 11, 88
5, 96531, Control_c, 2, 11, 89
5, 96535, Control_c, 2, 11, 90
5, 96539, Control_c, 2, 11, 91
5, 96542, Control_c, 2, 11, 92
5, 96546, Control_c, 2, 11, 93
5, 96550, Control_c, 2, 11, 94
5, 96553, Control_c, 2, 11, 95
5, 96557, Control_c, 2, 11, 96
5, 96561, Control_c, 2, 11, 97
5, 96564, Control_c, 2, 11, 98
5, 96568, Control_c, 2, 11, 99
5, 96572, Control_c, 2, 11, 100
5, 96576, Control_c, 2, 11, 101
5, 96579, Control_c, 2, 11, 102
5, 96583, Control_c, 2, 11, 103
5, 96587, Control_c, 2, 11, 104
5, 96590, Control_c, 2, 11, 105
5, 96594, Control_c, 2, 11, 106
5, 96598, Control_c, 2, 11, 107
5, 96601, Control_c, 2, 11, 108
5, 96605, Control_c, 2, 11, 109
5, 96609, Control_c, 2, 11, 110
5, 96612, Control_c, 2, 11, 111
5, 96616, Control_c, 2, 11, 112
5, 96620, Control_c, 2, 11, 113
5, 96624, Control_c, 2, 11, 114
5, 96627, Control_c, 2, 11, 115
5, 96631, Control_c, 2, 11, 116
5, 96635, Control_c, 2, 11, 117
5, 96638, Control_c, 2, 11, 118
5, 96642, Control_c, 2, 11, 119
5, 96646, Control_c, 2, 11, 120
5, 96649, Control_c, 2, 11, 121
5, 96653, Control_c, 2, 11, 122
5, 96657, Control_c, 2, 11, 123
5, 96660, Control_c, 2, 11, 124
5, 96664, Control_c, 2, 11, 125
5, 96668, Control_c, 2, 11, 126
5, 96672, Control_c, 2, 11, 127
5, 97056, Note_on_c, 2, 72, 0
5, 97056, Note_on_c, 2, 70, 64
5, 97440, Note_on_c, 2, 70, 0
5, 97440, Note_on_c, 2, 68, 62
5, 97632, Note_on_c, 2, 68, 0
5, 97632, Note_on_c, 2, 66, 60
5, 98208, Note_on_c, 2, 66, 0
5, 98208, Control_c, 2, 11, 127
5, 98208, Note_on_c, 2, 65, 65
5, 98224, Control_c, 2, 11, 126
5, 98240, Control_c, 2, 11, 125
5, 98257, Control_c, 2, 11, 124
5, 98273, Control_c, 2, 11, 123
5, 98290, Control_c, 2, 11, 122
5, 98306, Control_c, 2, 11, 121
5, 98323, Control_c, 2, 11, 120
5, 98339, Control_c, 2, 11, 119
5, 98356, Control_c, 2, 11, 118
5, 98372, Control_c, 2, 11, 117
5, 98389, Control_c, 2, 11, 116
5, 98405, Control_c, 2, 11, 115
5, 98421, Control_c, 2, 11, 114
5, 98438, Control_c, 2, 11, 113
5, 98454, Control_c, 2, 11, 112
5, 98471, Control_c, 2, 11, 111
5, 98487, Control_c, 2, 11, 110
5, 98504, Control_c, 2, 11, 109
5, 98520, Control_c, 2, 11, 108
5, 98537, Control_c, 2, 11, 107
5, 98553, Control_c, 2, 11, 106
5, 98570, Control_c, 2, 11, 105
5, 98586, Control_c, 2, 11, 104
5, 98592, Note_on_c, 2, 65, 0
5, 98592, Note_on_c, 2, 63, 61
5, 98602, Control_c, 2, 11, 103
5, 98619, Control_c, 2, 11, 102
5, 98635, Control_c, 2, 11, 101
5, 98652, Control_c, 2, 11, 100
5, 98668, Control_c, 2, 11, 99
5, 98685, Control_c, 2, 11, 98
5, 98701, Control_c, 2, 11, 97
5, 98718, Control_c, 2, 11, 96
5, 98734, Control_c, 2, 11, 95
5, 98751, Control_c, 2, 11, 94
5, 98767, Control_c, 2, 11, 93
5, 98784, Note_on_c, 2, 63, 0
5, 98784, Control_c, 2, 11, 92
5, 98784, Note_on_c, 2, 60, 65
5, 98849, Control_c, 2, 11, 93
5, 98915, Control_c, 2, 11, 94
5, 98981, Control_c, 2, 11, 95
5, 99047, Control_c, 2, 11, 96
5, 99113, Control_c, 2, 11, 97
5, 99178, Control_c, 2, 11, 98
5, 99244, Control_c, 2, 11, 99
5, 99310, Control_c, 2, 11, 100
5, 99360, Note_on_c, 2, 60, 0
5, 99360, Note_on_c, 2, 62, 64
5, 99376, Control_c, 2, 11, 101
5, 99442, Control_c, 2, 11, 102
5, 99508, Control_c, 2, 11, 103
5, 99552, Note_on_c, 2, 62, 0
5, 99552, Note_on_c, 2, 64, 63
5, 99573, Control_c, 2, 11, 104
5, 99639, Control_c, 2, 11, 105
5, 99705, Control_c, 2, 11, 106
5, 99744, Note_on_c, 2, 64, 0
5, 99744, Note_on_c, 2, 66, 59
5, 99771, Control_c, 2, 11, 107
5, 99837, Control_c, 2, 11, 108
5, 99903, Control_c, 2, 11, 109
5, 99936, Note_on_c, 2, 66, 0
5, 99936, Note_on_c, 2, 68, 61
5, 99968, Control_c, 2, 11, 110
5, 100034, Control_c, 2, 11, 111
5, 100100, Control_c, 2, 11, 112
5, 100166, Control_c, 2, 11, 113
5, 100232, Control_c, 2, 11, 114
5, 100298, Control_c, 2, 11, 115
5, 100363, Control_c, 2, 11, 116
5, 100429, Control_c, 2, 11, 117
5, 100495, Control_c, 2, 11, 118
5, 100512, Note_on_c, 2, 68, 0
5, 100512, Note_on_c, 2, 66, 63
5, 100561, Control_c, 2, 11, 119
5, 100627, Control_c, 2, 11, 120
5, 100693, Control_c, 2, 11, 121
5, 100758, Control_c, 2, 11, 122
5, 100824, Control_c, 2, 11, 123
5, 100890, Control_c, 2, 11, 124
5, 100896, Note_on_c, 2, 66, 0
5, 100896, Note_on_c, 2, 68, 58
5, 100956, Control_c, 2, 11, 125
5, 101022, Control_c, 2, 11, 126
5, 101088, Note_on_c, 2, 68, 0
5, 101088, Control_c, 2, 11, 127
5, 101088, Note_on_c, 2, 72, 55
5, 101664, Note_on_c, 2, 72, 0
5, 101664, Note_on_c, 2, 70, 64
5, 102048, Note_on_c, 2, 70, 0
5, 102048, Note_on_c, 2, 68, 60
5, 102240, Note_on_c, 2, 68, 0
5, 102240, Note_on_c, 2, 66, 57
5, 102816, Note_on_c, 2, 66, 0
5, 102816, Note_on_c, 2, 65, 63
5, 103200, Note_on_c, 2, 65, 0
5, 103200, Note_on_c, 2, 63, 57
5, 103392, Note_on_c, 2, 63, 0
5, 103392, Note_on_c, 2, 60, 64
5, 103968, Note_on_c, 2, 60, 0
5, 103968, Note_on_c, 2, 62, 58
5, 104160, Note_on_c, 2, 62, 0
5, 104160, Note_on_c, 2, 64, 55
5, 104352, Note_on_c, 2, 64, 0
5, 104352, Note_on_c, 2, 66, 57
5, 104544, Note_on_c, 2, 66, 0
5, 104544, Note_on_c, 2, 60, 50
5, 105120, Note_on_c, 2, 60, 0
5, 105120, Note_on_c, 2, 58, 45
5, 105504, Note_on_c, 2, 58, 0
5, 105504, Note_on_c, 2, 56, 46
5, 105696, Note_on_c, 2, 56, 0
5, 105696, Note_on_c, 2, 54, 40
5, 106272, Note_on_c, 2, 54, 0
5, 106272, Note_on_c, 2, 56, 36
5, 106464, Note_on_c, 2, 56, 0
5, 106464, Note_on_c, 2, 58, 29
5, 106656, Note_on_c, 2, 58, 0
5, 106656, Note_on_c, 2, 60, 37
5, 106848, Note_on_c, 2, 60, 0
5, 106848, Control_c, 2, 11, 127
5, 106848, Note_on_c, 2, 54, 29
5, 106869, Control_c, 2, 11, 126
5, 106891, Control_c, 2, 11, 125
5, 106913, Control_c, 2, 11, 124
5, 106935, Control_c, 2, 11, 123
5, 106957, Control_c, 2, 11, 122
5, 106979, Control_c, 2, 11, 121
5, 107001, Control_c, 2, 11, 120
5, 107023, Control_c, 2, 11, 119
5, 107045, Control_c, 2, 11, 118
5, 107067, Control_c, 2, 11, 117
5, 107089, Control_c, 2, 11, 116
5, 107111, Control_c, 2, 11, 115
5, 107133, Control_c, 2, 11, 114
5, 107155, Control_c, 2, 11, 113
5, 107177, Control_c, 2, 11, 112
5, 107199, Control_c, 2, 11, 111
5, 107221, Control_c, 2, 11, 110
5, 107242, Control_c, 2, 11, 109
5, 107264, Control_c, 2, 11, 108
5, 107286, Control_c, 2, 11, 107
5, 107308, Control_c, 2, 11, 106
5, 107330, Control_c, 2, 11, 105
5, 107352, Control_c, 2, 11, 104
5, 107374, Control_c, 2, 11, 103
5, 107396, Control_c, 2, 11, 102
5, 107418, Control_c, 2, 11, 101
5, 107424, Note_on_c, 2, 54, 0
5, 107424, Note_on_c, 2, 58, 27
5, 107440, Control_c, 2, 11, 100
5, 107462, Control_c, 2, 11, 99
5, 107484, Control_c, 2, 11, 98
5, 107506, Control_c, 2, 11, 97
5, 107528, Control_c, 2, 11, 96
5, 107550, Control_c, 2, 11, 95
5, 107572, Control_c, 2, 11, 94
5, 107594, Control_c, 2, 11, 93
5, 107616, Control_c, 2, 11, 92
5, 108000, Note_on_c, 2, 58, 0
5, 109536, Control_c, 2, 7, 92
5, 110304, Control_c, 2, 11, 92
5, 110304, Note_on_c, 2, 63, 105
5, 110314, Control_c, 2, 11, 93
5, 110325, Control_c, 2, 11, 94
5, 110336, Note_on_c, 2, 63, 0
5, 110336, Control_c, 2, 11, 95
5, 110336, Note_on_c, 2, 61, 105
5, 110347, Control_c, 2, 11, 96
5, 110358, Control_c, 2, 11, 97
5, 110368, Note_on_c, 2, 61, 0
5, 110368, Note_on_c, 2, 58, 95
5, 110369, Control_c, 2, 11, 98
5, 110380, Control_c, 2, 11, 99
5, 110391, Control_c, 2, 11, 100
5, 110400, Note_on_c, 2, 58, 0
5, 110400, Note_on_c, 2, 56, 97
5, 110402, Control_c, 2, 11, 101
5, 110413, Control_c, 2, 11, 102
5, 110424, Control_c, 2, 11, 103
5, 110435, Control_c, 2, 11, 104
5, 110446, Control_c, 2, 11, 105
5, 110457, Control_c, 2, 11, 106
5, 110468, Control_c, 2, 11, 107
5, 110479, Control_c, 2, 11, 108
5, 110490, Control_c, 2, 11, 109
5, 110501, Control_c, 2, 11, 110
5, 110512, Control_c, 2, 11, 111
5, 110523, Control_c, 2, 11, 112
5, 110534, Control_c, 2, 11, 113
5, 110545, Control_c, 2, 11, 114
5, 110556, Control_c, 2, 11, 115
5, 110560, Note_on_c, 2, 56, 0
5, 110560, Note_on_c, 2, 58, 98
5, 110567, Control_c, 2, 11, 116
5, 110578, Control_c, 2, 11, 117
5, 110589, Control_c, 2, 11, 118
5, 110600, Control_c, 2, 11, 119
5, 110611, Control_c, 2, 11, 120
5, 110622, Control_c, 2, 11, 121
5, 110624, Note_on_c, 2, 58, 0
5, 110624, Note_on_c, 2, 61, 101
5, 110633, Control_c, 2, 11, 122
5, 110644, Control_c, 2, 11, 123
5, 110655, Control_c, 2, 11, 124
5, 110666, Control_c, 2, 11, 125
5, 110677, Control_c, 2, 11, 126
5, 110688, Note_on_c, 2, 61, 0
5, 110688, Control_c, 2, 11, 127
5, 110688, Note_on_c, 2, 63, 101
5, 110752, Note_on_c, 2, 63, 0
5, 110752, Note_on_c, 2, 61, 96
5, 110816, Note_on_c, 2, 61, 0
5, 110816, Note_on_c, 2, 58, 102
5, 110880, Note_on_c, 2, 58, 0
5, 110880, Note_on_c, 2, 58, 100
5, 110944, Note_on_c, 2, 58, 0
5, 110944, Note_on_c, 2, 61, 102
5, 111008, Note_on_c, 2, 61, 0
5, 111008, Note_on_c, 2, 63, 99
5, 111072, Note_on_c, 2, 63, 0
5, 111072, Control_c, 2, 11, 92
5, 111072, Note_on_c, 2, 63, 105
5, 111093, Control_c, 2, 11, 93
5, 111104, Note_on_c, 2, 63, 0
5, 111104, Note_on_c, 2, 61, 102
5, 111115, Control_c, 2, 11, 94
5, 111136, Note_on_c, 2, 61, 0
5, 111136, Note_on_c, 2, 58, 97
5, 111137, Control_c, 2, 11, 95
5, 111159, Control_c, 2, 11, 96
5, 111168, Note_on_c, 2, 58, 0
5, 111168, Note_on_c, 2, 56, 96
5, 111181, Control_c, 2, 11, 97
5, 111203, Control_c, 2, 11, 98
5, 111225, Control_c, 2, 11, 99
5, 111247, Control_c, 2, 11, 100
5, 111269, Control_c, 2, 11, 101
5, 111291, Control_c, 2, 11, 102
5, 111313, Control_c, 2, 11, 103
5, 111328, Note_on_c, 2, 56, 0
5, 111328, Note_on_c, 2, 58, 105
5, 111335, Control_c, 2, 11, 104
5, 111357, Control_c, 2, 11, 105
5, 111379, Control_c, 2, 11, 106
5, 111392, Note_on_c, 2, 58, 0
5, 111392, Note_on_c, 2, 61, 103
5, 111401, Control_c, 2, 11, 107
5, 111423, Control_c, 2, 11, 108
5, 111445, Control_c, 2, 11, 109
5, 111456, Note_on_c, 2, 61, 0
5, 111456, Note_on_c, 2, 63, 98
5, 111466, Control_c, 2, 11, 110
5, 111488, Control_c, 2, 11, 111
5, 111510, Control_c, 2, 11, 112
5, 111520, Note_on_c, 2, 63, 0
5, 111520, Note_on_c, 2, 61, 97
5, 111532, Control_c, 2, 11, 113
5, 111554, Control_c, 2, 11, 114
5, 111576, Control_c, 2, 11, 115
5, 111584, Note_on_c, 2, 61, 0
5, 111584, Note_on_c, 2, 58, 101
5, 111598, Control_c, 2, 11, 116
5, 111620, Control_c, 2, 11, 117
5, 111642, Control_c, 2, 11, 118
5, 111648, Note_on_c, 2, 58, 0
5, 111648, Note_on_c, 2, 58, 97
5, 111664, Control_c, 2, 11, 119
5, 111686, Control_c, 2, 11, 120
5, 111708, Control_c, 2, 11, 121
5, 111712, Note_on_c, 2, 58, 0
5, 111712, Note_on_c, 2, 61, 102
5, 111730, Control_c, 2, 11, 122
5, 111752, Control_c, 2, 11, 123
5, 111774, Control_c, 2, 11, 124
5, 111776, Note_on_c, 2, 61, 0
5, 111776, Note_on_c, 2, 63, 99
5, 111796, Control_c, 2, 11, 125
5, 111818, Control_c, 2, 11, 126
5, 111840, Note_on_c, 2, 63, 0
5, 111840, Control_c, 2, 11, 127
5, 111840, Control_c, 2, 11, 92
5, 111840, Note_on_c, 2, 63, 122
5, 111850, Control_c, 2, 11, 93
5, 111861, Control_c, 2, 11, 94
5, 111872, Control_c, 2, 11, 95
5, 111883, Control_c, 2, 11, 96
5, 111894, Control_c, 2, 11, 97
5, 111904, Note_on_c, 2, 63, 0
5, 111904, Note_on_c, 2, 61, 126
5, 111905, Control_c, 2, 11, 98
5, 111916, Control_c, 2, 11, 99
5, 111927, Control_c, 2, 11, 100
5, 111938, Control_c, 2, 11, 101
5, 111949, Control_c, 2, 11, 102
5, 111960, Control_c, 2, 11, 103
5, 111968, Note_on_c, 2, 61, 0
5, 111968, Note_on_c, 2, 58, 127
5, 111971, Control_c, 2, 11, 104
5, 111982, Control_c, 2, 11, 105
5, 111993, Control_c, 2, 11, 106
5, 112004, Control_c, 2, 11, 107
5, 112015, Control_c, 2, 11, 108
5, 112026, Control_c, 2, 11, 109
5, 112032, Note_on_c, 2, 58, 0
5, 112032, Note_on_c, 2, 58, 122
5, 112037, Control_c, 2, 11, 110
5, 112048, Control_c, 2, 11, 111
5, 112059, Control_c, 2, 11, 112
5, 112070, Control_c, 2, 11, 113
5, 112081, Control_c, 2, 11, 114
5, 112092, Control_c, 2, 11, 115
5, 112096, Note_on_c, 2, 58, 0
5, 112096, Note_on_c, 2, 61, 122
5, 112103, Control_c, 2, 11, 116
5, 112114, Control_c, 2, 11, 117
5, 112125, Control_c, 2, 11, 118
5, 112136, Control_c, 2, 11, 119
5, 112147, Control_c, 2, 11, 120
5, 112158, Control_c, 2, 11, 121
5, 112160, Note_on_c, 2, 61, 0
5, 112160, Note_on_c, 2, 63, 127
5, 112169, Control_c, 2, 11, 122
5, 112180, Control_c, 2, 11, 123
5, 112191, Control_c, 2, 11, 124
5, 112202, Control_c, 2, 11, 125
5, 112213, Control_c, 2, 11, 126
5, 112224, Note_on_c, 2, 63, 0
5, 112224, Control_c, 2, 11, 127
5, 112224, Control_c, 2, 11, 92
5, 112224, Note_on_c, 2, 63, 127
5, 112234, Control_c, 2, 11, 93
5, 112245, Control_c, 2, 11, 94
5, 112256, Control_c, 2, 11, 95
5, 112267, Control_c, 2, 11, 96
5, 112278, Control_c, 2, 11, 97
5, 112288, Note_on_c, 2, 63, 0
5, 112288, Note_on_c, 2, 61, 127
5, 112289, Control_c, 2, 11, 98
5, 112300, Control_c, 2, 11, 99
5, 112311, Control_c, 2, 11, 100
5, 112322, Control_c, 2, 11, 101
5, 112333, Control_c, 2, 11, 102
5, 112344, Control_c, 2, 11, 103
5, 112352, Note_on_c, 2, 61, 0
5, 112352, Note_on_c, 2, 58, 127
5, 112355, Control_c, 2, 11, 104
5, 112366, Control_c, 2, 11, 105
5, 112377, Control_c, 2, 11, 106
5, 112388, Control_c, 2, 11, 107
5, 112399, Control_c, 2, 11, 108
5, 112410, Control_c, 2, 11, 109
5, 112416, Note_on_c, 2, 58, 0
5, 112416, Note_on_c, 2, 58, 126
5, 112421, Control_c, 2, 11, 110
5, 112432, Control_c, 2, 11, 111
5, 112443, Control_c, 2, 11, 112
5, 112454, Control_c, 2, 11, 113
5, 112465, Control_c, 2, 11, 114
5, 112476, Control_c, 2, 11, 115
5, 112480, Note_on_c, 2, 58, 0
5, 112480, Note_on_c, 2, 61, 127
5, 112487, Control_c, 2, 11, 116
5, 112498, Control_c, 2, 11, 117
5, 112509, Control_c, 2, 11, 118
5, 112520, Control_c, 2, 11, 119
5, 112531, Control_c, 2, 11, 120
5, 112542, Control_c, 2, 11, 121
5, 112544, Note_on_c, 2, 61, 0
5, 112544, Note_on_c, 2, 63, 126
5, 112553, Control_c, 2, 11, 122
5, 112564, Control_c, 2, 11, 123
5, 112575, Control_c, 2, 11, 124
5, 112586, Control_c, 2, 11, 125
5, 112597, Control_c, 2, 11, 126
5, 112608, Note_on_c, 2, 63, 0
5, 112608, Control_c, 2, 11, 127
5, 112608, Control_c, 2, 11, 92
5, 112608, Note_on_c, 2, 67, 125
5, 112618, Control_c, 2, 11, 93
5, 112629, Control_c, 2, 11, 94
5, 112640, Control_c, 2, 11, 95
5, 112651, Control_c, 2, 11, 96
5, 112656, Note_on_c, 2, 67, 0
5, 112656, Note_on_c, 2, 68, 127
5, 112662, Control_c, 2, 11, 97
5, 112673, Control_c, 2, 11, 98
5, 112684, Control_c, 2, 11, 99
5, 112695, Control_c, 2, 11, 100
5, 112706, Control_c, 2, 11, 101
5, 112717, Control_c, 2, 11, 102
5, 112728, Control_c, 2, 11, 103
5, 112739, Control_c, 2, 11, 104
5, 112750, Control_c, 2, 11, 105
5, 112761, Control_c, 2, 11, 106
5, 112772, Control_c, 2, 11, 107
5, 112783, Control_c, 2, 11, 108
5, 112794, Control_c, 2, 11, 109
5, 112805, Control_c, 2, 11, 110
5, 112816, Control_c, 2, 11, 111
5, 112827, Control_c, 2, 11, 112
5, 112838, Control_c, 2, 11, 113
5, 112849, Control_c, 2, 11, 114
5, 112860, Control_c, 2, 11, 115
5, 112871, Control_c, 2, 11, 116
5, 112882, Control_c, 2, 11, 117
5, 112893, Control_c, 2, 11, 118
5, 112896, Note_on_c, 2, 68, 0
5, 112896, Note_on_c, 2, 70, 127
5, 112904, Control_c, 2, 11, 119
5, 112915, Control_c, 2, 11, 120
5, 112926, Control_c, 2, 11, 121
5, 112937, Control_c, 2, 11, 122
5, 112948, Control_c, 2, 11, 123
5, 112959, Control_c, 2, 11, 124
5, 112970, Control_c, 2, 11, 125
5, 112981, Control_c, 2, 11, 126
5, 112992, Note_on_c, 2, 70, 0
5, 112992, Control_c, 2, 11, 127
5, 112992, Control_c, 2, 11, 75
5, 112992, Note_on_c, 2, 75, 127
5, 112993, Control_c, 2, 11, 76
5, 112995, Control_c, 2, 11, 77
5, 112997, Control_c, 2, 11, 78
5, 112999, Control_c, 2, 11, 79
5, 113001, Control_c, 2, 11, 80
5, 113003, Control_c, 2, 11, 81
5, 113004, Control_c, 2, 11, 82
5, 113006, Control_c, 2, 11, 83
5, 113008, Control_c, 2, 11, 84
5, 113010, Control_c, 2, 11, 85
5, 113012, Control_c, 2, 11, 86
5, 113014, Control_c, 2, 11, 87
5, 113016, Control_c, 2, 11, 88
5, 113017, Control_c, 2, 11, 89
5, 113019, Control_c, 2, 11, 90
5, 113021, Control_c, 2, 11, 91
5, 113023, Control_c, 2, 11, 92
5, 113025, Control_c, 2, 11, 93
5, 113027, Control_c, 2, 11, 94
5, 113028, Control_c, 2, 11, 95
5, 113030, Control_c, 2, 11, 96
5, 113032, Control_c, 2, 11, 97
5, 113034, Control_c, 2, 11, 98
5, 113036, Control_c, 2, 11, 99
5, 113038, Control_c, 2, 11, 100
5, 113040, Control_c, 2, 11, 101
5, 113041, Control_c, 2, 11, 102
5, 113043, Control_c, 2, 11, 103
5, 113045, Control_c, 2, 11, 104
5, 113047, Control_c, 2, 11, 105
5, 113049, Control_c, 2, 11, 106
5, 113051, Control_c, 2, 11, 107
5, 113052, Control_c, 2, 11, 108
5, 113054, Control_c, 2, 11, 109
5, 113056, Control_c, 2, 11, 110
5, 113058, Control_c, 2, 11, 111
5, 113060, Control_c, 2, 11, 112
5, 113062, Control_c, 2, 11, 113
5, 113064, Control_c, 2, 11, 114
5, 113065, Control_c, 2, 11, 115
5, 113067, Control_c, 2, 11, 116
5, 113069, Control_c, 2, 11, 117
5, 113071, Control_c, 2, 11, 118
5, 113073, Control_c, 2, 11, 119
5, 113075, Control_c, 2, 11, 120
5, 113076, Control_c, 2, 11, 121
5, 113078, Control_c, 2, 11, 122
5, 113080, Control_c, 2, 11, 123
5, 113082, Control_c, 2, 11, 124
5, 113084, Control_c, 2, 11, 125
5, 113086, Control_c, 2, 11, 126
5, 113088, Control_c, 2, 11, 127
5, 113089, Control_c, 2, 11, 126
5, 113091, Control_c, 2, 11, 125
5, 113093, Control_c, 2, 11, 124
5, 113095, Control_c, 2, 11, 123
5, 113097, Control_c, 2, 11, 122
5, 113099, Control_c, 2, 11, 121
5, 113100, Control_c, 2, 11, 120
5, 113102, Control_c, 2, 11, 119
5, 113104, Control_c, 2, 11, 118
5, 113106, Control_c, 2, 11, 117
5, 113108, Control_c, 2, 11, 116
5, 113110, Control_c, 2, 11, 115
5, 113112, Control_c, 2, 11, 114
5, 113113, Control_c, 2, 11, 113
5, 113115, Control_c, 2, 11, 112
5, 113117, Control_c, 2, 11, 111
5, 113119, Control_c, 2, 11, 110
5, 113121, Control_c, 2, 11, 109
5, 113123, Control_c, 2, 11, 108
5, 113124, Control_c, 2, 11, 107
5, 113126, Control_c, 2, 11, 106
5, 113128, Control_c, 2, 11, 105
5, 113130, Control_c, 2, 11, 104
5, 113132, Control_c, 2, 11, 103
5, 113134, Control_c, 2, 11, 102
5, 113136, Control_c, 2, 11, 101
5, 113137, Control_c, 2, 11, 100
5, 113139, Control_c, 2, 11, 99
5, 113141, Control_c, 2, 11, 98
5, 113143, Control_c, 2, 11, 97
5, 113145, Control_c, 2, 11, 96
5, 113147, Control_c, 2, 11, 95
5, 113148, Control_c, 2, 11, 94
5, 113150, Control_c, 2, 11, 93
5, 113152, Control_c, 2, 11, 92
5, 113154, Control_c, 2, 11, 91
5, 113156, Control_c, 2, 11, 90
5, 113158, Control_c, 2, 11, 89
5, 113160, Control_c, 2, 11, 88
5, 113161, Control_c, 2, 11, 87
5, 113163, Control_c, 2, 11, 86
5, 113165, Control_c, 2, 11, 85
5, 113167, Control_c, 2, 11, 84
5, 113169, Control_c, 2, 11, 83
5, 113171, Control_c, 2, 11, 82
5, 113172, Control_c, 2, 11, 81
5, 113174, Control_c, 2, 11, 80
5, 113176, Control_c, 2, 11, 79
5, 113178, Control_c, 2, 11, 78
5, 113180, Control_c, 2, 11, 77
5, 113182, Control_c, 2, 11, 76
5, 113184, Note_on_c, 2, 75, 0
5, 113184, Control_c, 2, 11, 75
5, 113184, Control_c, 2, 11, 75
5, 113184, Note_on_c, 2, 73, 127
5, 113185, Control_c, 2, 11, 76
5, 113187, Control_c, 2, 11, 77
5, 113189, Control_c, 2, 11, 78
5, 113191, Control_c, 2, 11, 79
5, 113193, Control_c, 2, 11, 80
5, 113195, Control_c, 2, 11, 81
5, 113196, Control_c, 2, 11, 82
5, 113198, Control_c, 2, 11, 83
5, 113200, Control_c, 2, 11, 84
5, 113202, Control_c, 2, 11, 85
5, 113204, Control_c, 2, 11, 86
5, 113206, Control_c, 2, 11, 87
5, 113208, Control_c, 2, 11, 88
5, 113209, Control_c, 2, 11, 89
5, 113211, Control_c, 2, 11, 90
5, 113213, Control_c, 2, 11, 91
5, 113215, Control_c, 2, 11, 92
5, 113217, Control_c, 2, 11, 93
5, 113219, Control_c, 2, 11, 94
5, 113220, Control_c, 2, 11, 95
5, 113222, Control_c, 2, 11, 96
5, 113224, Control_c, 2, 11, 97
5, 113226, Control_c, 2, 11, 98
5, 113228, Control_c, 2, 11, 99
5, 113230, Control_c, 2, 11, 100
5, 113232, Control_c, 2, 11, 101
5, 113233, Control_c, 2, 11, 102
5, 113235, Control_c, 2, 11, 103
5, 113237, Control_c, 2, 11, 104
5, 113239, Control_c, 2, 11, 105
5, 113241, Control_c, 2, 11, 106
5, 113243, Control_c, 2, 11, 107
5, 113244, Control_c, 2, 11, 108
5, 113246, Control_c, 2, 11, 109
5, 113248, Control_c, 2, 11, 110
5, 113250, Control_c, 2, 11, 111
5, 113252, Control_c, 2, 11, 112
5, 113254, Control_c, 2, 11, 113
5, 113256, Control_c, 2, 11, 114
5, 113257, Control_c, 2, 11, 115
5, 113259, Control_c, 2, 11, 116
5, 113261, Control_c, 2, 11, 117
5, 113263, Control_c, 2, 11, 118
5, 113265, Control_c, 2, 11, 119
5, 113267, Control_c, 2, 11, 120
5, 113268, Control_c, 2, 11, 121
5, 113270, Control_c, 2, 11, 122
5, 113272, Control_c, 2, 11, 123
5, 113274, Control_c, 2, 11, 124
5, 113276, Control_c, 2, 11, 125
5, 113278, Control_c, 2, 11, 126
5, 113280, Control_c, 2, 11, 127
5, 113281, Control_c, 2, 11, 126
5, 113283, Control_c, 2, 11, 125
5, 113285, Control_c, 2, 11, 124
5, 113287, Control_c, 2, 11, 123
5, 113289, Control_c, 2, 11, 122
5, 113291, Control_c, 2, 11, 121
5, 113292, Control_c, 2, 11, 120
5, 113294, Control_c, 2, 11, 119
5, 113296, Control_c, 2, 11, 118
5, 113298, Control_c, 2, 11, 117
5, 113300, Control_c, 2, 11, 116
5, 113302, Control_c, 2, 11, 115
5, 113304, Control_c, 2, 11, 114
5, 113305, Control_c, 2, 11, 113
5, 113307, Control_c, 2, 11, 112
5, 113309, Control_c, 2, 11, 111
5, 113311, Control_c, 2, 11, 110
5, 113313, Control_c, 2, 11, 109
5, 113315, Control_c, 2, 11, 108
5, 113316, Control_c, 2, 11, 107
5, 113318, Control_c, 2, 11, 106
5, 113320, Control_c, 2, 11, 105
5, 113322, Control_c, 2, 11, 104
5, 113324, Control_c, 2, 11, 103
5, 113326, Control_c, 2, 11, 102
5, 113328, Control_c, 2, 11, 101
5, 113329, Control_c, 2, 11, 100
5, 113331, Control_c, 2, 11, 99
5, 113333, Control_c, 2, 11, 98
5, 113335, Control_c, 2, 11, 97
5, 113337, Control_c, 2, 11, 96
5, 113339, Control_c, 2, 11, 95
5, 113340, Control_c, 2, 11, 94
5, 113342, Control_c, 2, 11, 93
5, 113344, Control_c, 2, 11, 92
5, 113346, Control_c, 2, 11, 91
5, 113348, Control_c, 2, 11, 90
5, 113350, Control_c, 2, 11, 89
5, 113352, Control_c, 2, 11, 88
5, 113353, Control_c, 2, 11, 87
5, 113355, Control_c, 2, 11, 86
5, 113357, Control_c, 2, 11, 85
5, 113359, Control_c, 2, 11, 84
5, 113361, Control_c, 2, 11, 83
5, 113363, Control_c, 2, 11, 82
5, 113364, Control_c, 2, 11, 81
5, 113366, Control_c, 2, 11, 80
5, 113368, Control_c, 2, 11, 79
5, 113370, Control_c, 2, 11, 78
5, 113372, Control_c, 2, 11, 77
5, 113374, Control_c, 2, 11, 76
5, 113376, Note_on_c, 2, 73, 0
5, 113376, Control_c, 2, 11, 75
5, 113376, Control_c, 2, 11, 75
5, 113376, Note_on_c, 2, 70, 126
5, 113377, Control_c, 2, 11, 76
5, 113379, Control_c, 2, 11, 77
5, 113381, Control_c, 2, 11, 78
5, 113383, Control_c, 2, 11, 79
5, 113385, Control_c, 2, 11, 80
5, 113387, Control_c, 2, 11, 81
5, 113388, Control_c, 2, 11, 82
5, 113390, Control_c, 2, 11, 83
5, 113392, Control_c, 2, 11, 84
5, 113394, Control_c, 2, 11, 85
5, 113396, Control_c, 2, 11, 86
5, 113398, Control_c, 2, 11, 87
5, 113400, Control_c, 2, 11, 88
5, 113401, Control_c, 2, 11, 89
5, 113403, Control_c, 2, 11, 90
5, 113405, Control_c, 2, 11, 91
5, 113407, Control_c, 2, 11, 92
5, 113409, Control_c, 2, 11, 93
5, 113411, Control_c, 2, 11, 94
5, 113412, Control_c, 2, 11, 95
5, 113414, Control_c, 2, 11, 96
5, 113416, Control_c, 2, 11, 97
5, 113418, Control_c, 2, 11, 98
5, 113420, Control_c, 2, 11, 99
5, 113422, Control_c, 2, 11, 100
5, 113424, Control_c, 2, 11, 101
5, 113425, Control_c, 2, 11, 102
5, 113427, Control_c, 2, 11, 103
5, 113429, Control_c, 2, 11, 104
5, 113431, Control_c, 2, 11, 105
5, 113433, Control_c, 2, 11, 106
5, 113435, Control_c, 2, 11, 107
5, 113436, Control_c, 2, 11, 108
5, 113438, Control_c, 2, 11, 109
5, 113440, Control_c, 2, 11, 110
5, 113442, Control_c, 2, 11, 111
5, 113444, Control_c, 2, 11, 112
5, 113446, Control_c, 2, 11, 113
5, 113448, Control_c, 2, 11, 114
5, 113449, Control_c, 2, 11, 115
5, 113451, Control_c, 2, 11, 116
5, 113453, Control_c, 2, 11, 117
5, 113455, Control_c, 2, 11, 118
5, 113457, Control_c, 2, 11, 119
5, 113459, Control_c, 2, 11, 120
5, 113460, Control_c, 2, 11, 121
5, 113462, Control_c, 2, 11, 122
5, 113464, Control_c, 2, 11, 123
5, 113466, Control_c, 2, 11, 124
5, 113468, Control_c, 2, 11, 125
5, 113470, Control_c, 2, 11, 126
5, 113472, Control_c, 2, 11, 127
5, 113474, Control_c, 2, 11, 126
5, 113476, Control_c, 2, 11, 125
5, 113478, Control_c, 2, 11, 124
5, 113481, Control_c, 2, 11, 123
5, 113483, Control_c, 2, 11, 122
5, 113485, Control_c, 2, 11, 121
5, 113487, Control_c, 2, 11, 120
5, 113490, Control_c, 2, 11, 119
5, 113492, Control_c, 2, 11, 118
5, 113494, Control_c, 2, 11, 117
5, 113496, Control_c, 2, 11, 116
5, 113499, Control_c, 2, 11, 115
5, 113501, Control_c, 2, 11, 114
5, 113503, Control_c, 2, 11, 113
5, 113506, Control_c, 2, 11, 112
5, 113508, Control_c, 2, 11, 111
5, 113510, Control_c, 2, 11, 110
5, 113512, Control_c, 2, 11, 109
5, 113515, Control_c, 2, 11, 108
5, 113517, Control_c, 2, 11, 107
5, 113519, Control_c, 2, 11, 106
5, 113521, Control_c, 2, 11, 105
5, 113524, Control_c, 2, 11, 104
5, 113526, Control_c, 2, 11, 103
5, 113528, Control_c, 2, 11, 102
5, 113530, Control_c, 2, 11, 101
5, 113533, Control_c, 2, 11, 100
5, 113535, Control_c, 2, 11, 99
5, 113537, Control_c, 2, 11, 98
5, 113540, Control_c, 2, 11, 97
5, 113542, Control_c, 2, 11, 96
5, 113544, Control_c, 2, 11, 95
5, 113546, Control_c, 2, 11, 94
5, 113549, Control_c, 2, 11, 93
5, 113551, Control_c, 2, 11, 92
5, 113553, Control_c, 2, 11, 91
5, 113555, Control_c, 2, 11, 90
5, 113558, Control_c, 2, 11, 89
5, 113560, Control_c, 2, 11, 88
5, 113562, Control_c, 2, 11, 87
5, 113564, Control_c, 2, 11, 86
5, 113567, Control_c, 2, 11, 85
5, 113569, Control_c, 2, 11, 84
5, 113571, Control_c, 2, 11, 83
5, 113574, Control_c, 2, 11, 82
5, 113576, Control_c, 2, 11, 81
5, 113578, Control_c, 2, 11, 80
5, 113580, Control_c, 2, 11, 79
5, 113583, Control_c, 2, 11, 78
5, 113585, Control_c, 2, 11, 77
5, 113587, Control_c, 2, 11, 76
5, 113589, Control_c, 2, 11, 75
5, 113592, Control_c, 2, 11, 74
5, 113594, Control_c, 2, 11, 73
5, 113596, Control_c, 2, 11, 72
5, 113598, Control_c, 2, 11, 71
5, 113601, Control_c, 2, 11, 70
5, 113603, Control_c, 2, 11, 69
5, 113605, Control_c, 2, 11, 68
5, 113608, Control_c, 2, 11, 67
5, 113610, Control_c, 2, 11, 66
5, 113612, Control_c, 2, 11, 65
5, 113614, Control_c, 2, 11, 64
5, 113617, Control_c, 2, 11, 63
5, 113619, Control_c, 2, 11, 62
5, 113621, Control_c, 2, 11, 61
5, 113623, Control_c, 2, 11, 60
5, 113626, Control_c, 2, 11, 59
5, 113628, Control_c, 2, 11, 58
5, 113630, Control_c, 2, 11, 57
5, 113633, Control_c, 2, 11, 56
5, 113635, Control_c, 2, 11, 55
5, 113637, Control_c, 2, 11, 54
5, 113639, Control_c, 2, 11, 53
5, 113642, Control_c, 2, 11, 52
5, 113644, Control_c, 2, 11, 51
5, 113646, Control_c, 2, 11, 50
5, 113648, Control_c, 2, 11, 49
5, 113651, Control_c, 2, 11, 48
5, 113653, Control_c, 2, 11, 47
5, 113655, Control_c, 2, 11, 46
5, 113657, Control_c, 2, 11, 45
5, 113660, Control_c, 2, 11, 44
5, 113662, Control_c, 2, 11, 43
5, 113664, Control_c, 2, 11, 42
5, 113667, Control_c, 2, 11, 41
5, 113669, Control_c, 2, 11, 40
5, 113671, Control_c, 2, 11, 39
5, 113673, Control_c, 2, 11, 38
5, 113676, Control_c, 2, 11, 37
5, 113678, Control_c, 2, 11, 36
5, 113680, Control_c, 2, 11, 35
5, 113682, Control_c, 2, 11, 34
5, 113685, Control_c, 2, 11, 33
5, 113687, Control_c, 2, 11, 32
5, 113689, Control_c, 2, 11, 31
5, 113691, Control_c, 2, 11, 30
5, 113694, Control_c, 2, 11, 29
5, 113696, Control_c, 2, 11, 28
5, 113698, Control_c, 2, 11, 27
5, 113701, Control_c, 2, 11, 26
5, 113703, Control_c, 2, 11, 25
5, 113705, Control_c, 2, 11, 24
5, 113707, Control_c, 2, 11, 23
5, 113710, Control_c, 2, 11, 22
5, 113712, Control_c, 2, 11, 21
5, 113714, Control_c, 2, 11, 20
5, 113716, Control_c, 2, 11, 19
5, 113719, Control_c, 2, 11, 18
5, 113721, Control_c, 2, 11, 17
5, 113723, Control_c, 2, 11, 16
5, 113725, Control_c, 2, 11, 15
5, 113728, Control_c, 2, 11, 14
5, 113730, Control_c, 2, 11, 13
5, 113732, Control_c, 2, 11, 12
5, 113735, Control_c, 2, 11, 11
5, 113737, Control_c, 2, 11, 10
5, 113739, Control_c, 2, 11, 9
5, 113741, Control_c, 2, 11, 8
5, 113744, Control_c, 2, 11, 7
5, 113746, Control_c, 2, 11, 6
5, 113748, Control_c, 2, 11, 5
5, 113750, Control_c, 2, 11, 4
5, 113753, Control_c, 2, 11, 3
5, 113755, Control_c, 2, 11, 2
5, 113757, Control_c, 2, 11, 1
5, 113760, Note_on_c, 2, 70, 0
5, 113760, Control_c, 2, 11, 0
5, 113760, End_track
6, 0, Start_track
6, 0, Title_t, "Clarinetti I - II in La/Si bem."
6, 0, MIDI_port, 0
6, 91, Control_c, 3, 0, 0
6, 92, Control_c, 3, 32, 0
6, 93, Program_c, 3, 71
6, 94, Control_c, 3, 7, 127
6, 95, Control_c, 3, 10, 74
6, 96, Control_c, 3, 91, 64
6, 8832, Control_c, 3, 11, 92
6, 8832, Note_on_c, 3, 61, 50
6, 8870, Control_c, 3, 11, 93
6, 8878, Note_on_c, 3, 61, 0
6, 8880, Note_on_c, 3, 62, 45
6, 8908, Control_c, 3, 11, 94
6, 8947, Control_c, 3, 11, 95
6, 8985, Control_c, 3, 11, 96
6, 9024, Control_c, 3, 11, 97
6, 9062, Control_c, 3, 11, 98
6, 9100, Control_c, 3, 11, 99
6, 9139, Control_c, 3, 11, 100
6, 9177, Control_c, 3, 11, 101
6, 9216, Control_c, 3, 11, 102
6, 9254, Control_c, 3, 11, 103
6, 9292, Control_c, 3, 11, 104
6, 9331, Control_c, 3, 11, 105
6, 9369, Control_c, 3, 11, 106
6, 9408, Control_c, 3, 11, 107
6, 9446, Control_c, 3, 11, 108
6, 9484, Control_c, 3, 11, 109
6, 9523, Control_c, 3, 11, 110
6, 9552, Note_on_c, 3, 62, 0
6, 9561, Control_c, 3, 11, 111
6, 9600, Control_c, 3, 11, 112
6, 9600, Note_on_c, 3, 63, 50
6, 9638, Control_c, 3, 11, 113
6, 9646, Note_on_c, 3, 63, 0
6, 9648, Note_on_c, 3, 64, 43
6, 9676, Control_c, 3, 11, 114
6, 9715, Control_c, 3, 11, 115
6, 9753, Control_c, 3, 11, 116
6, 9792, Control_c, 3, 11, 117
6, 9830, Control_c, 3, 11, 118
6, 9868, Control_c, 3, 11, 119
6, 9907, Control_c, 3, 11, 120
6, 9945, Control_c, 3, 11, 121
6, 9984, Control_c, 3, 11, 122
6, 10022, Control_c, 3, 11, 123
6, 10060, Control_c, 3, 11, 124
6, 10099, Control_c, 3, 11, 125
6, 10137, Control_c, 3, 11, 126
6, 10176, Control_c, 3, 11, 127
6, 10203, Control_c, 3, 11, 126
6, 10230, Control_c, 3, 11, 125
6, 10258, Control_c, 3, 11, 124
6, 10285, Control_c, 3, 11, 123
6, 10313, Control_c, 3, 11, 122
6, 10340, Control_c, 3, 11, 121
6, 10368, Control_c, 3, 11, 120
6, 10395, Control_c, 3, 11, 119
6, 10422, Control_c, 3, 11, 118
6, 10450, Control_c, 3, 11, 117
6, 10477, Control_c, 3, 11, 116
6, 10505, Control_c, 3, 11, 115
6, 10528, Note_on_c, 3, 64, 0
6, 10532, Control_c, 3, 11, 114
6, 10560, Control_c, 3, 11, 113
6, 10587, Control_c, 3, 11, 112
6, 10614, Control_c, 3, 11, 111
6, 10642, Control_c, 3, 11, 110
6, 10669, Control_c, 3, 11, 109
6, 10697, Control_c, 3, 11, 108
6, 10724, Control_c, 3, 11, 107
6, 10752, Control_c, 3, 11, 106
6, 10752, Control_c, 3, 11, 127
6, 10779, Control_c, 3, 11, 105
6, 10806, Control_c, 3, 11, 104
6, 10834, Control_c, 3, 11, 103
6, 10861, Control_c, 3, 11, 102
6, 10889, Control_c, 3, 11, 101
6, 10916, Control_c, 3, 11, 100
6, 10944, Control_c, 3, 11, 99
6, 10971, Control_c, 3, 11, 98
6, 10998, Control_c, 3, 11, 97
6, 11026, Control_c, 3, 11, 96
6, 11053, Control_c, 3, 11, 95
6, 11081, Control_c, 3, 11, 94
6, 11108, Control_c, 3, 11, 93
6, 11136, Control_c, 3, 11, 92
6, 16896, Control_c, 3, 11, 92
6, 16896, Note_on_c, 3, 68, 41
6, 16906, Control_c, 3, 11, 93
6, 16917, Control_c, 3, 11, 94
6, 16928, Control_c, 3, 11, 95
6, 16939, Control_c, 3, 11, 96
6, 16942, Note_on_c, 3, 68, 0
6, 16944, Note_on_c, 3, 69, 42
6, 16950, Control_c, 3, 11, 97
6, 16961, Control_c, 3, 11, 98
6, 16972, Control_c, 3, 11, 99
6, 16983, Control_c, 3, 11, 100
6, 16994, Control_c, 3, 11, 101
6, 17005, Control_c, 3, 11, 102
6, 17016, Control_c, 3, 11, 103
6, 17027, Control_c, 3, 11, 104
6, 17038, Control_c, 3, 11, 105
6, 17049, Control_c, 3, 11, 106
6, 17060, Control_c, 3, 11, 107
6, 17071, Control_c, 3, 11, 108
6, 17082, Control_c, 3, 11, 109
6, 17093, Control_c, 3, 11, 110
6, 17104, Control_c, 3, 11, 111
6, 17115, Control_c, 3, 11, 112
6, 17126, Control_c, 3, 11, 113
6, 17137, Control_c, 3, 11, 114
6, 17148, Control_c, 3, 11, 115
6, 17159, Control_c, 3, 11, 116
6, 17170, Control_c, 3, 11, 117
6, 17181, Control_c, 3, 11, 118
6, 17192, Control_c, 3, 11, 119
6, 17203, Control_c, 3, 11, 120
6, 17214, Control_c, 3, 11, 121
6, 17225, Control_c, 3, 11, 122
6, 17236, Control_c, 3, 11, 123
6, 17247, Control_c, 3, 11, 124
6, 17248, Note_on_c, 3, 69, 0
6, 17258, Control_c, 3, 11, 125
6, 17269, Control_c, 3, 11, 126
6, 17280, Control_c, 3, 11, 127
6, 17280, Note_on_c, 3, 68, 49
6, 17285, Control_c, 3, 11, 126
6, 17290, Control_c, 3, 11, 125
6, 17296, Control_c, 3, 11, 124
6, 17301, Control_c, 3, 11, 123
6, 17307, Control_c, 3, 11, 122
6, 17312, Control_c, 3, 11, 121
6, 17318, Control_c, 3, 11, 120
6, 17323, Control_c, 3, 11, 119
6, 17326, Note_on_c, 3, 68, 0
6, 17328, Note_on_c, 3, 66, 40
6, 17329, Control_c, 3, 11, 118
6, 17334, Control_c, 3, 11, 117
6, 17340, Control_c, 3, 11, 116
6, 17345, Control_c, 3, 11, 115
6, 17351, Control_c, 3, 11, 114
6, 17356, Control_c, 3, 11, 113
6, 17362, Control_c, 3, 11, 112
6, 17367, Control_c, 3, 11, 111
6, 17373, Control_c, 3, 11, 110
6, 17378, Control_c, 3, 11, 109
6, 17384, Control_c, 3, 11, 108
6, 17389, Control_c, 3, 11, 107
6, 17395, Control_c, 3, 11, 106
6, 17400, Control_c, 3, 11, 105
6, 17406, Control_c, 3, 11, 104
6, 17411, Control_c, 3, 11, 103
6, 17417, Control_c, 3, 11, 102
6, 17422, Control_c, 3, 11, 101
6, 17428, Control_c, 3, 11, 100
6, 17433, Control_c, 3, 11, 99
6, 17439, Control_c, 3, 11, 98
6, 17444, Control_c, 3, 11, 97
6, 17450, Control_c, 3, 11, 96
6, 17455, Control_c, 3, 11, 95
6, 17461, Control_c, 3, 11, 94
6, 17466, Control_c, 3, 11, 93
6, 17472, Control_c, 3, 11, 92
6, 17480, Control_c, 3, 11, 91
6, 17488, Control_c, 3, 11, 90
6, 17496, Control_c, 3, 11, 89
6, 17504, Control_c, 3, 11, 88
6, 17512, Control_c, 3, 11, 87
6, 17521, Control_c, 3, 11, 86
6, 17529, Control_c, 3, 11, 85
6, 17537, Control_c, 3, 11, 84
6, 17545, Control_c, 3, 11, 83
6, 17553, Control_c, 3, 11, 82
6, 17561, Control_c, 3, 11, 81
6, 17570, Control_c, 3, 11, 80
6, 17578, Control_c, 3, 11, 79
6, 17586, Control_c, 3, 11, 78
6, 17594, Control_c, 3, 11, 77
6, 17602, Control_c, 3, 11, 76
6, 17610, Control_c, 3, 11, 75
6, 17619, Control_c, 3, 11, 74
6, 17627, Control_c, 3, 11, 73
6, 17635, Control_c, 3, 11, 72
6, 17643, Control_c, 3, 11, 71
6, 17651, Control_c, 3, 11, 70
6, 17659, Control_c, 3, 11, 69
6, 17668, Control_c, 3, 11, 68
6, 17676, Control_c, 3, 11, 67
6, 17684, Control_c, 3, 11, 66
6, 17692, Control_c, 3, 11, 65
6, 17700, Control_c, 3, 11, 64
6, 17708, Control_c, 3, 11, 63
6, 17717, Control_c, 3, 11, 62
6, 17725, Control_c, 3, 11, 61
6, 17733, Control_c, 3, 11, 60
6, 17741, Control_c, 3, 11, 59
6, 17749, Control_c, 3, 11, 58
6, 17757, Control_c, 3, 11, 57
6, 17766, Control_c, 3, 11, 56
6, 17774, Control_c, 3, 11, 55
6, 17782, Control_c, 3, 11, 54
6, 17790, Control_c, 3, 11, 53
6, 17798, Control_c, 3, 11, 52
6, 17806, Control_c, 3, 11, 51
6, 17815, Control_c, 3, 11, 50
6, 17823, Control_c, 3, 11, 49
6, 17831, Control_c, 3, 11, 48
6, 17839, Control_c, 3, 11, 47
6, 17847, Control_c, 3, 11, 46
6, 17856, Control_c, 3, 11, 45
6, 18208, Note_on_c, 3, 66, 0
6, 19008, Control_c, 3, 11, 127
6, 19008, Note_on_c, 3, 59, 34
6, 19008, Note_on_c, 3, 63, 28
6, 19013, Control_c, 3, 11, 126
6, 19018, Control_c, 3, 11, 125
6, 19024, Control_c, 3, 11, 124
6, 19029, Control_c, 3, 11, 123
6, 19035, Control_c, 3, 11, 122
6, 19040, Control_c, 3, 11, 121
6, 19046, Control_c, 3, 11, 120
6, 19051, Control_c, 3, 11, 119
6, 19054, Note_on_c, 3, 59, 0
6, 19054, Note_on_c, 3, 63, 0
6, 19056, Note_on_c, 3, 64, 33
6, 19056, Note_on_c, 3, 60, 35
6, 19057, Control_c, 3, 11, 118
6, 19062, Control_c, 3, 11, 117
6, 19068, Control_c, 3, 11, 116
6, 19073, Control_c, 3, 11, 115
6, 19079, Control_c, 3, 11, 114
6, 19084, Control_c, 3, 11, 113
6, 19090, Control_c, 3, 11, 112
6, 19095, Control_c, 3, 11, 111
6, 19101, Control_c, 3, 11, 110
6, 19106, Control_c, 3, 11, 109
6, 19112, Control_c, 3, 11, 108
6, 19117, Control_c, 3, 11, 107
6, 19123, Control_c, 3, 11, 106
6, 19128, Control_c, 3, 11, 105
6, 19134, Control_c, 3, 11, 104
6, 19139, Control_c, 3, 11, 103
6, 19145, Control_c, 3, 11, 102
6, 19150, Control_c, 3, 11, 101
6, 19156, Control_c, 3, 11, 100
6, 19161, Control_c, 3, 11, 99
6, 19167, Control_c, 3, 11, 98
6, 19172, Control_c, 3, 11, 97
6, 19178, Control_c, 3, 11, 96
6, 19183, Control_c, 3, 11, 95
6, 19189, Control_c, 3, 11, 94
6, 19194, Control_c, 3, 11, 93
6, 19200, Control_c, 3, 11, 92
6, 19744, Note_on_c, 3, 64, 0
6, 19744, Note_on_c, 3, 60, 0
6, 21120, Note_on_c, 3, 61, 76
6, 21120, Control_c, 3, 11, 64
6, 21120, Note_on_c, 3, 49, 73
6, 21156, Control_c, 3, 11, 65
6, 21193, Control_c, 3, 11, 66
6, 21229, Control_c, 3, 11, 67
6, 21266, Control_c, 3, 11, 68
6, 21302, Control_c, 3, 11, 69
6, 21339, Control_c, 3, 11, 70
6, 21376, Control_c, 3, 11, 71
6, 21412, Control_c, 3, 11, 72
6, 21449, Control_c, 3, 11, 73
6, 21485, Control_c, 3, 11, 74
6, 21504, Note_on_c, 3, 61, 0
6, 21504, Note_on_c, 3, 49, 0
6, 21504, Note_on_c, 3, 54, 73
6, 21504, Note_on_c, 3, 66, 71
6, 21522, Control_c, 3, 11, 75
6, 21558, Control_c, 3, 11, 76
6, 21595, Control_c, 3, 11, 77
6, 21632, Control_c, 3, 11, 78
6, 21668, Control_c, 3, 11, 79
6, 21705, Control_c, 3, 11, 80
6, 21741, Control_c, 3, 11, 81
6, 21778, Control_c, 3, 11, 82
6, 21814, Control_c, 3, 11, 83
6, 21851, Control_c, 3, 11, 84
6, 21888, Note_on_c, 3, 54, 0
6, 21888, Note_on_c, 3, 66, 0
6, 21888, Note_on_c, 3, 68, 72
6, 21888, Control_c, 3, 11, 85
6, 21888, Note_on_c, 3, 56, 77
6, 21924, Control_c, 3, 11, 86
6, 21961, Control_c, 3, 11, 87
6, 21997, Control_c, 3, 11, 88
6, 22034, Control_c, 3, 11, 89
6, 22070, Control_c, 3, 11, 90
6, 22107, Control_c, 3, 11, 91
6, 22144, Control_c, 3, 11, 92
6, 22180, Control_c, 3, 11, 93
6, 22217, Control_c, 3, 11, 94
6, 22253, Control_c, 3, 11, 95
6, 22272, Note_on_c, 3, 68, 0
6, 22272, Note_on_c, 3, 56, 0
6, 22272, Note_on_c, 3, 59, 76
6, 22272, Note_on_c, 3, 71, 75
6, 22290, Control_c, 3, 11, 96
6, 22326, Control_c, 3, 11, 97
6, 22363, Control_c, 3, 11, 98
6, 22400, Control_c, 3, 11, 99
6, 22436, Control_c, 3, 11, 100
6, 22473, Control_c, 3, 11, 101
6, 22509, Control_c, 3, 11, 102
6, 22546, Control_c, 3, 11, 103
6, 22582, Control_c, 3, 11, 104
6, 22619, Control_c, 3, 11, 105
6, 22656, Note_on_c, 3, 59, 0
6, 22656, Note_on_c, 3, 71, 0
6, 22656, Control_c, 3, 11, 106
6, 22656, Note_on_c, 3, 61, 79
6, 22656, Note_on_c, 3, 73, 74
6, 22692, Control_c, 3, 11, 107
6, 22729, Control_c, 3, 11, 108
6, 22765, Control_c, 3, 11, 109
6, 22802, Control_c, 3, 11, 110
6, 22838, Control_c, 3, 11, 111
6, 22875, Control_c, 3, 11, 112
6, 22912, Control_c, 3, 11, 113
6, 22948, Control_c, 3, 11, 114
6, 22985, Control_c, 3, 11, 115
6, 23021, Control_c, 3, 11, 116
6, 23040, Note_on_c, 3, 61, 0
6, 23040, Note_on_c, 3, 73, 0
6, 23040, Note_on_c, 3, 66, 73
6, 23040, Note_on_c, 3, 78, 74
6, 23058, Control_c, 3, 11, 117
6, 23094, Control_c, 3, 11, 118
6, 23131, Control_c, 3, 11, 119
6, 23168, Control_c, 3, 11, 120
6, 23204, Control_c, 3, 11, 121
6, 23241, Control_c, 3, 11, 122
6, 23277, Control_c, 3, 11, 123
6, 23314, Control_c, 3, 11, 124
6, 23350, Control_c, 3, 11, 125
6, 23376, Note_on_c, 3, 66, 0
6, 23376, Note_on_c, 3, 78, 0
6, 23387, Control_c, 3, 11, 126
6, 23424, Control_c, 3, 11, 127
6, 23424, Note_on_c, 3, 73, 47
6, 25680, Note_on_c, 3, 73, 0
6, 25728, Control_c, 3, 11, 64
6, 25728, Note_on_c, 3, 61, 72
6, 25746, Control_c, 3, 11, 65
6, 25764, Control_c, 3, 11, 66
6, 25782, Control_c, 3, 11, 67
6, 25801, Control_c, 3, 11, 68
6, 25819, Control_c, 3, 11, 69
6, 25837, Control_c, 3, 11, 70
6, 25856, Control_c, 3, 11, 71
6, 25874, Control_c, 3, 11, 72
6, 25892, Control_c, 3, 11, 73
6, 25910, Control_c, 3, 11, 74
6, 25920, Note_on_c, 3, 61, 0
6, 25920, Note_on_c, 3, 66, 75
6, 25929, Control_c, 3, 11, 75
6, 25947, Control_c, 3, 11, 76
6, 25965, Control_c, 3, 11, 77
6, 25984, Control_c, 3, 11, 78
6, 26002, Control_c, 3, 11, 79
6, 26020, Control_c, 3, 11, 80
6, 26038, Control_c, 3, 11, 81
6, 26057, Control_c, 3, 11, 82
6, 26075, Control_c, 3, 11, 83
6, 26093, Control_c, 3, 11, 84
6, 26112, Note_on_c, 3, 66, 0
6, 26112, Control_c, 3, 11, 85
6, 26112, Note_on_c, 3, 68, 78
6, 26130, Control_c, 3, 11, 86
6, 26148, Control_c, 3, 11, 87
6, 26166, Control_c, 3, 11, 88
6, 26185, Control_c, 3, 11, 89
6, 26203, Control_c, 3, 11, 90
6, 26221, Control_c, 3, 11, 91
6, 26240, Control_c, 3, 11, 92
6, 26258, Control_c, 3, 11, 93
6, 26276, Control_c, 3, 11, 94
6, 26294, Control_c, 3, 11, 95
6, 26304, Note_on_c, 3, 68, 0
6, 26304, Note_on_c, 3, 71, 72
6, 26313, Control_c, 3, 11, 96
6, 26331, Control_c, 3, 11, 97
6, 26349, Control_c, 3, 11, 98
6, 26368, Control_c, 3, 11, 99
6, 26386, Control_c, 3, 11, 100
6, 26404, Control_c, 3, 11, 101
6, 26422, Control_c, 3, 11, 102
6, 26441, Control_c, 3, 11, 103
6, 26459, Control_c, 3, 11, 104
6, 26477, Control_c, 3, 11, 105
6, 26496, Note_on_c, 3, 71, 0
6, 26496, Control_c, 3, 11, 106
6, 26496, Note_on_c, 3, 73, 72
6, 26514, Control_c, 3, 11, 107
6, 26532, Control_c, 3, 11, 108
6, 26550, Control_c, 3, 11, 109
6, 26569, Control_c, 3, 11, 110
6, 26587, Control_c, 3, 11, 111
6, 26605, Control_c, 3, 11, 112
6, 26624, Control_c, 3, 11, 113
6, 26642, Control_c, 3, 11, 114
6, 26660, Control_c, 3, 11, 115
6, 26678, Control_c, 3, 11, 116
6, 26688, Note_on_c, 3, 73, 0
6, 26688, Note_on_c, 3, 78, 79
6, 26697, Control_c, 3, 11, 117
6, 26715, Control_c, 3, 11, 118
6, 26733, Control_c, 3, 11, 119
6, 26752, Control_c, 3, 11, 120
6, 26770, Control_c, 3, 11, 121
6, 26788, Control_c, 3, 11, 122
6, 26806, Control_c, 3, 11, 123
6, 26825, Control_c, 3, 11, 124
6, 26843, Control_c, 3, 11, 125
6, 26848, Note_on_c, 3, 78, 0
6, 26861, Control_c, 3, 11, 126
6, 26880, Note_on_c, 3, 73, 48
6, 26880, Control_c, 3, 11, 127
6, 27984, Note_on_c, 3, 73, 0
6, 28032, Note_on_c, 3, 61, 80
6, 28032, Control_c, 3, 11, 64
6, 28050, Control_c, 3, 11, 65
6, 28068, Control_c, 3, 11, 66
6, 28086, Control_c, 3, 11, 67
6, 28105, Control_c, 3, 11, 68
6, 28123, Control_c, 3, 11, 69
6, 28141, Control_c, 3, 11, 70
6, 28160, Control_c, 3, 11, 71
6, 28178, Control_c, 3, 11, 72
6, 28196, Control_c, 3, 11, 73
6, 28214, Control_c, 3, 11, 74
6, 28224, Note_on_c, 3, 61, 0
6, 28224, Note_on_c, 3, 66, 80
6, 28233, Control_c, 3, 11, 75
6, 28251, Control_c, 3, 11, 76
6, 28269, Control_c, 3, 11, 77
6, 28288, Control_c, 3, 11, 78
6, 28306, Control_c, 3, 11, 79
6, 28324, Control_c, 3, 11, 80
6, 28342, Control_c, 3, 11, 81
6, 28361, Control_c, 3, 11, 82
6, 28379, Control_c, 3, 11, 83
6, 28397, Control_c, 3, 11, 84
6, 28416, Note_on_c, 3, 66, 0
6, 28416, Note_on_c, 3, 68, 71
6, 28416, Control_c, 3, 11, 85
6, 28434, Control_c, 3, 11, 86
6, 28452, Control_c, 3, 11, 87
6, 28470, Control_c, 3, 11, 88
6, 28489, Control_c, 3, 11, 89
6, 28507, Control_c, 3, 11, 90
6, 28525, Control_c, 3, 11, 91
6, 28544, Control_c, 3, 11, 92
6, 28562, Control_c, 3, 11, 93
6, 28580, Control_c, 3, 11, 94
6, 28598, Control_c, 3, 11, 95
6, 28608, Note_on_c, 3, 68, 0
6, 28608, Note_on_c, 3, 71, 77
6, 28617, Control_c, 3, 11, 96
6, 28635, Control_c, 3, 11, 97
6, 28653, Control_c, 3, 11, 98
6, 28672, Control_c, 3, 11, 99
6, 28690, Control_c, 3, 11, 100
6, 28708, Control_c, 3, 11, 101
6, 28726, Control_c, 3, 11, 102
6, 28745, Control_c, 3, 11, 103
6, 28763, Control_c, 3, 11, 104
6, 28781, Control_c, 3, 11, 105
6, 28800, Note_on_c, 3, 71, 0
6, 28800, Control_c, 3, 11, 106
6, 28800, Note_on_c, 3, 73, 74
6, 28818, Control_c, 3, 11, 107
6, 28836, Control_c, 3, 11, 108
6, 28854, Control_c, 3, 11, 109
6, 28873, Control_c, 3, 11, 110
6, 28891, Control_c, 3, 11, 111
6, 28909, Control_c, 3, 11, 112
6, 28928, Control_c, 3, 11, 113
6, 28946, Control_c, 3, 11, 114
6, 28964, Control_c, 3, 11, 115
6, 28982, Control_c, 3, 11, 116
6, 28992, Note_on_c, 3, 73, 0
6, 28992, Note_on_c, 3, 78, 77
6, 29001, Control_c, 3, 11, 117
6, 29019, Control_c, 3, 11, 118
6, 29037, Control_c, 3, 11, 119
6, 29056, Control_c, 3, 11, 120
6, 29074, Control_c, 3, 11, 121
6, 29092, Control_c, 3, 11, 122
6, 29110, Control_c, 3, 11, 123
6, 29129, Control_c, 3, 11, 124
6, 29147, Control_c, 3, 11, 125
6, 29152, Note_on_c, 3, 78, 0
6, 29165, Control_c, 3, 11, 126
6, 29184, Control_c, 3, 11, 127
6, 29184, Control_c, 3, 11, 64
6, 29184, Note_on_c, 3, 61, 72
6, 29202, Control_c, 3, 11, 65
6, 29220, Control_c, 3, 11, 66
6, 29238, Control_c, 3, 11, 67
6, 29257, Control_c, 3, 11, 68
6, 29275, Control_c, 3, 11, 69
6, 29293, Control_c, 3, 11, 70
6, 29312, Control_c, 3, 11, 71
6, 29330, Control_c, 3, 11, 72
6, 29348, Control_c, 3, 11, 73
6, 29366, Control_c, 3, 11, 74
6, 29376, Note_on_c, 3, 61, 0
6, 29376, Note_on_c, 3, 66, 71
6, 29385, Control_c, 3, 11, 75
6, 29403, Control_c, 3, 11, 76
6, 29421, Control_c, 3, 11, 77
6, 29440, Control_c, 3, 11, 78
6, 29458, Control_c, 3, 11, 79
6, 29476, Control_c, 3, 11, 80
6, 29494, Control_c, 3, 11, 81
6, 29513, Control_c, 3, 11, 82
6, 29531, Control_c, 3, 11, 83
6, 29549, Control_c, 3, 11, 84
6, 29568, Note_on_c, 3, 66, 0
6, 29568, Control_c, 3, 11, 85
6, 29568, Note_on_c, 3, 68, 79
6, 29586, Control_c, 3, 11, 86
6, 29604, Control_c, 3, 11, 87
6, 29622, Control_c, 3, 11, 88
6, 29641, Control_c, 3, 11, 89
6, 29659, Control_c, 3, 11, 90
6, 29677, Control_c, 3, 11, 91
6, 29696, Control_c, 3, 11, 92
6, 29714, Control_c, 3, 11, 93
6, 29732, Control_c, 3, 11, 94
6, 29750, Control_c, 3, 11, 95
6, 29760, Note_on_c, 3, 68, 0
6, 29760, Note_on_c, 3, 71, 76
6, 29769, Control_c, 3, 11, 96
6, 29787, Control_c, 3, 11, 97
6, 29805, Control_c, 3, 11, 98
6, 29824, Control_c, 3, 11, 99
6, 29842, Control_c, 3, 11, 100
6, 29860, Control_c, 3, 11, 101
6, 29878, Control_c, 3, 11, 102
6, 29897, Control_c, 3, 11, 103
6, 29915, Control_c, 3, 11, 104
6, 29933, Control_c, 3, 11, 105
6, 29952, Note_on_c, 3, 71, 0
6, 29952, Note_on_c, 3, 73, 79
6, 29952, Control_c, 3, 11, 106
6, 29970, Control_c, 3, 11, 107
6, 29988, Control_c, 3, 11, 108
6, 30006, Control_c, 3, 11, 109
6, 30025, Control_c, 3, 11, 110
6, 30043, Control_c, 3, 11, 111
6, 30061, Control_c, 3, 11, 112
6, 30080, Control_c, 3, 11, 113
6, 30098, Control_c, 3, 11, 114
6, 30116, Control_c, 3, 11, 115
6, 30134, Control_c, 3, 11, 116
6, 30144, Note_on_c, 3, 73, 0
6, 30144, Note_on_c, 3, 78, 76
6, 30153, Control_c, 3, 11, 117
6, 30171, Control_c, 3, 11, 118
6, 30189, Control_c, 3, 11, 119
6, 30208, Control_c, 3, 11, 120
6, 30226, Control_c, 3, 11, 121
6, 30244, Control_c, 3, 11, 122
6, 30262, Control_c, 3, 11, 123
6, 30281, Control_c, 3, 11, 124
6, 30299, Control_c, 3, 11, 125
6, 30304, Note_on_c, 3, 78, 0
6, 30317, Control_c, 3, 11, 126
6, 30336, Control_c, 3, 11, 127
6, 31488, Note_on_c, 3, 63, 72
6, 31488, Note_on_c, 3, 70, 76
6, 31518, Note_on_c, 3, 63, 0
6, 31518, Note_on_c, 3, 70, 0
6, 31520, Note_on_c, 3, 61, 70
6, 31520, Note_on_c, 3, 68, 79
6, 31550, Note_on_c, 3, 61, 0
6, 31550, Note_on_c, 3, 68, 0
6, 31552, Note_on_c, 3, 58, 78
6, 31552, Note_on_c, 3, 65, 72
6, 31582, Note_on_c, 3, 58, 0
6, 31582, Note_on_c, 3, 65, 0
6, 31584, Note_on_c, 3, 56, 78
6, 31584, Note_on_c, 3, 63, 79
6, 31710, Note_on_c, 3, 56, 0
6, 31710, Note_on_c, 3, 63, 0
6, 31712, Note_on_c, 3, 58, 80
6, 31712, Note_on_c, 3, 65, 74
6, 31742, Note_on_c, 3, 58, 0
6, 31742, Note_on_c, 3, 65, 0
6, 31744, Note_on_c, 3, 61, 75
6, 31744, Note_on_c, 3, 68, 78
6, 31774, Note_on_c, 3, 61, 0
6, 31774, Note_on_c, 3, 68, 0
6, 31776, Note_on_c, 3, 63, 70
6, 31776, Note_on_c, 3, 70, 79
6, 31806, Note_on_c, 3, 63, 0
6, 31806, Note_on_c, 3, 70, 0
6, 31808, Note_on_c, 3, 61, 78
6, 31808, Note_on_c, 3, 68, 74
6, 31838, Note_on_c, 3, 61, 0
6, 31838, Note_on_c, 3, 68, 0
6, 31840, Note_on_c, 3, 58, 77
6, 31840, Note_on_c, 3, 65, 72
6, 31870, Note_on_c, 3, 58, 0
6, 31870, Note_on_c, 3, 65, 0
6, 31872, Note_on_c, 3, 61, 70
6, 31872, Note_on_c, 3, 68, 71
6, 31966, Note_on_c, 3, 61, 0
6, 31966, Note_on_c, 3, 68, 0
6, 31968, Note_on_c, 3, 63, 77
6, 31968, Note_on_c, 3, 70, 79
6, 32064, Control_c, 3, 11, 127
6, 32073, Control_c, 3, 11, 126
6, 32082, Control_c, 3, 11, 125
6, 32091, Control_c, 3, 11, 124
6, 32100, Control_c, 3, 11, 123
6, 32109, Control_c, 3, 11, 122
6, 32118, Control_c, 3, 11, 121
6, 32128, Control_c, 3, 11, 120
6, 32137, Control_c, 3, 11, 119
6, 32146, Control_c, 3, 11, 118
6, 32155, Control_c, 3, 11, 117
6, 32158, Note_on_c, 3, 63, 0
6, 32158, Note_on_c, 3, 70, 0
6, 32160, Note_on_c, 3, 61, 73
6, 32160, Note_on_c, 3, 68, 70
6, 32164, Control_c, 3, 11, 116
6, 32173, Control_c, 3, 11, 115
6, 32182, Control_c, 3, 11, 114
6, 32192, Control_c, 3, 11, 113
6, 32201, Control_c, 3, 11, 112
6, 32210, Control_c, 3, 11, 111
6, 32219, Control_c, 3, 11, 110
6, 32228, Control_c, 3, 11, 109
6, 32237, Control_c, 3, 11, 108
6, 32246, Control_c, 3, 11, 107
6, 32254, Note_on_c, 3, 61, 0
6, 32254, Note_on_c, 3, 68, 0
6, 32256, Control_c, 3, 11, 106
6, 32256, Note_on_c, 3, 56, 72
6, 32256, Note_on_c, 3, 63, 75
6, 32265, Control_c, 3, 11, 105
6, 32274, Control_c, 3, 11, 104
6, 32283, Control_c, 3, 11, 103
6, 32292, Control_c, 3, 11, 102
6, 32301, Control_c, 3, 11, 101
6, 32310, Control_c, 3, 11, 100
6, 32320, Control_c, 3, 11, 99
6, 32329, Control_c, 3, 11, 98
6, 32338, Control_c, 3, 11, 97
6, 32347, Control_c, 3, 11, 96
6, 32350, Note_on_c, 3, 56, 0
6, 32350, Note_on_c, 3, 63, 0
6, 32352, Note_on_c, 3, 63, 77
6, 32352, Note_on_c, 3, 70, 75
6, 32356, Control_c, 3, 11, 95
6, 32365, Control_c, 3, 11, 94
6, 32374, Control_c, 3, 11, 93
6, 32384, Control_c, 3, 11, 92
6, 32393, Control_c, 3, 11, 91
6, 32402, Control_c, 3, 11, 90
6, 32411, Control_c, 3, 11, 89
6, 32420, Control_c, 3, 11, 88
6, 32429, Control_c, 3, 11, 87
6, 32438, Control_c, 3, 11, 86
6, 32446, Note_on_c, 3, 63, 0
6, 32446, Note_on_c, 3, 70, 0
6, 32448, Control_c, 3, 11, 85
6, 32448, Note_on_c, 3, 61, 77
6, 32448, Note_on_c, 3, 68, 76
6, 32457, Control_c, 3, 11, 84
6, 32466, Control_c, 3, 11, 83
6, 32475, Control_c, 3, 11, 82
6, 32484, Control_c, 3, 11, 81
6, 32493, Control_c, 3, 11, 80
6, 32502, Control_c, 3, 11, 79
6, 32512, Control_c, 3, 11, 78
6, 32521, Control_c, 3, 11, 77
6, 32530, Control_c, 3, 11, 76
6, 32539, Control_c, 3, 11, 75
6, 32542, Note_on_c, 3, 61, 0
6, 32542, Note_on_c, 3, 68, 0
6, 32544, Note_on_c, 3, 56, 77
6, 32544, Note_on_c, 3, 63, 74
6, 32548, Control_c, 3, 11, 74
6, 32557, Control_c, 3, 11, 73
6, 32566, Control_c, 3, 11, 72
6, 32576, Control_c, 3, 11, 71
6, 32585, Control_c, 3, 11, 70
6, 32594, Control_c, 3, 11, 69
6, 32603, Control_c, 3, 11, 68
6, 32612, Control_c, 3, 11, 67
6, 32621, Control_c, 3, 11, 66
6, 32630, Control_c, 3, 11, 65
6, 32638, Note_on_c, 3, 56, 0
6, 32638, Note_on_c, 3, 63, 0
6, 32640, Control_c, 3, 11, 64
6, 36096, Control_c, 3, 11, 75
6, 36096, Note_on_c, 3, 87, 74
6, 36096, Note_on_c, 3, 94, 71
6, 36107, Control_c, 3, 11, 76
6, 36118, Control_c, 3, 11, 77
6, 36126, Note_on_c, 3, 87, 0
6, 36126, Note_on_c, 3, 94, 0
6, 36128, Note_on_c, 3, 85, 80
6, 36128, Note_on_c, 3, 92, 73
6, 36129, Control_c, 3, 11, 78
6, 36140, Control_c, 3, 11, 79
6, 36151, Control_c, 3, 11, 80
6, 36158, Note_on_c, 3, 85, 0
6, 36158, Note_on_c, 3, 92, 0
6, 36160, Note_on_c, 3, 82, 72
6, 36160, Note_on_c, 3, 89, 75
6, 36162, Control_c, 3, 11, 81
6, 36173, Control_c, 3, 11, 82
6, 36184, Control_c, 3, 11, 83
6, 36190, Note_on_c, 3, 82, 0
6, 36190, Note_on_c, 3, 89, 0
6, 36192, Note_on_c, 3, 80, 75
6, 36192, Note_on_c, 3, 87, 79
6, 36195, Control_c, 3, 11, 84
6, 36206, Control_c, 3, 11, 85
6, 36217, Control_c, 3, 11, 86
6, 36228, Control_c, 3, 11, 87
6, 36240, Control_c, 3, 11, 88
6, 36251, Control_c, 3, 11, 89
6, 36262, Control_c, 3, 11, 90
6, 36273, Control_c, 3, 11, 91
6, 36284, Control_c, 3, 11, 92
6, 36295, Control_c, 3, 11, 93
6, 36306, Control_c, 3, 11, 94
6, 36317, Control_c, 3, 11, 95
6, 36318, Note_on_c, 3, 80, 0
6, 36318, Note_on_c, 3, 87, 0
6, 36320, Note_on_c, 3, 82, 75
6, 36320, Note_on_c, 3, 89, 80
6, 36328, Control_c, 3, 11, 96
6, 36339, Control_c, 3, 11, 97
6, 36350, Note_on_c, 3, 82, 0
6, 36350, Note_on_c, 3, 89, 0
6, 36350, Control_c, 3, 11, 98
6, 36352, Note_on_c, 3, 85, 77
6, 36352, Note_on_c, 3, 92, 72
6, 36361, Control_c, 3, 11, 99
6, 36372, Control_c, 3, 11, 100
6, 36382, Note_on_c, 3, 85, 0
6, 36382, Note_on_c, 3, 92, 0
6, 36384, Control_c, 3, 11, 101
6, 36384, Note_on_c, 3, 87, 70
6, 36384, Note_on_c, 3, 94, 78
6, 36395, Control_c, 3, 11, 102
6, 36406, Control_c, 3, 11, 103
6, 36414, Note_on_c, 3, 87, 0
6, 36414, Note_on_c, 3, 94, 0
6, 36416, Note_on_c, 3, 85, 72
6, 36416, Note_on_c, 3, 92, 72
6, 36417, Control_c, 3, 11, 104
6, 36428, Control_c, 3, 11, 105
6, 36439, Control_c, 3, 11, 106
6, 36446, Note_on_c, 3, 85, 0
6, 36446, Note_on_c, 3, 92, 0
6, 36448, Note_on_c, 3, 82, 80
6, 36448, Note_on_c, 3, 89, 72
6, 36450, Control_c, 3, 11, 107
6, 36461, Control_c, 3, 11, 108
6, 36472, Control_c, 3, 11, 109
6, 36478, Note_on_c, 3, 82, 0
6, 36478, Note_on_c, 3, 89, 0
6, 36480, Note_on_c, 3, 85, 71
6, 36480, Note_on_c, 3, 92, 73
6, 36483, Control_c, 3, 11, 110
6, 36494, Control_c, 3, 11, 111
6, 36505, Control_c, 3, 11, 112
6, 36516, Control_c, 3, 11, 113
6, 36528, Control_c, 3, 11, 114
6, 36539, Control_c, 3, 11, 115
6, 36550, Control_c, 3, 11, 116
6, 36561, Control_c, 3, 11, 117
6, 36572, Control_c, 3, 11, 118
6, 36574, Note_on_c, 3, 85, 0
6, 36574, Note_on_c, 3, 92, 0
6, 36576, Note_on_c, 3, 87, 80
6, 36576, Note_on_c, 3, 94, 77
6, 36583, Control_c, 3, 11, 119
6, 36594, Control_c, 3, 11, 120
6, 36605, Control_c, 3, 11, 121
6, 36616, Control_c, 3, 11, 122
6, 36627, Control_c, 3, 11, 123
6, 36638, Control_c, 3, 11, 124
6, 36649, Control_c, 3, 11, 125
6, 36660, Control_c, 3, 11, 126
6, 36672, Control_c, 3, 11, 127
6, 36681, Control_c, 3, 11, 126
6, 36690, Control_c, 3, 11, 125
6, 36699, Control_c, 3, 11, 124
6, 36708, Control_c, 3, 11, 123
6, 36717, Control_c, 3, 11, 122
6, 36726, Control_c, 3, 11, 121
6, 36736, Control_c, 3, 11, 120
6, 36745, Control_c, 3, 11, 119
6, 36754, Control_c, 3, 11, 118
6, 36763, Control_c, 3, 11, 117
6, 36766, Note_on_c, 3, 87, 0
6, 36766, Note_on_c, 3, 94, 0
6, 36768, Note_on_c, 3, 85, 78
6, 36768, Note_on_c, 3, 92, 72
6, 36772, Control_c, 3, 11, 116
6, 36781, Control_c, 3, 11, 115
6, 36790, Control_c, 3, 11, 114
6, 36800, Control_c, 3, 11, 113
6, 36809, Control_c, 3, 11, 112
6, 36818, Control_c, 3, 11, 111
6, 36827, Control_c, 3, 11, 110
6, 36836, Control_c, 3, 11, 109
6, 36845, Control_c, 3, 11, 108
6, 36854, Control_c, 3, 11, 107
6, 36862, Note_on_c, 3, 85, 0
6, 36862, Note_on_c, 3, 92, 0
6, 36864, Control_c, 3, 11, 106
6, 36864, Note_on_c, 3, 80, 72
6, 36864, Note_on_c, 3, 87, 77
6, 36873, Control_c, 3, 11, 105
6, 36882, Control_c, 3, 11, 104
6, 36891, Control_c, 3, 11, 103
6, 36900, Control_c, 3, 11, 102
6, 36909, Control_c, 3, 11, 101
6, 36918, Control_c, 3, 11, 100
6, 36928, Control_c, 3, 11, 99
6, 36937, Control_c, 3, 11, 98
6, 36946, Control_c, 3, 11, 97
6, 36955, Control_c, 3, 11, 96
6, 36958, Note_on_c, 3, 80, 0
6, 36958, Note_on_c, 3, 87, 0
6, 36960, Note_on_c, 3, 63, 74
6, 36960, Note_on_c, 3, 70, 73
6, 36964, Control_c, 3, 11, 95
6, 36973, Control_c, 3, 11, 94
6, 36982, Control_c, 3, 11, 93
6, 36992, Control_c, 3, 11, 92
6, 37001, Control_c, 3, 11, 91
6, 37010, Control_c, 3, 11, 90
6, 37019, Control_c, 3, 11, 89
6, 37028, Control_c, 3, 11, 88
6, 37037, Control_c, 3, 11, 87
6, 37046, Control_c, 3, 11, 86
6, 37054, Note_on_c, 3, 63, 0
6, 37054, Note_on_c, 3, 70, 0
6, 37056, Control_c, 3, 11, 85
6, 37056, Note_on_c, 3, 61, 77
6, 37056, Note_on_c, 3, 68, 72
6, 37065, Control_c, 3, 11, 84
6, 37074, Control_c, 3, 11, 83
6, 37083, Control_c, 3, 11, 82
6, 37092, Control_c, 3, 11, 81
6, 37101, Control_c, 3, 11, 80
6, 37110, Control_c, 3, 11, 79
6, 37120, Control_c, 3, 11, 78
6, 37129, Control_c, 3, 11, 77
6, 37138, Control_c, 3, 11, 76
6, 37147, Control_c, 3, 11, 75
6, 37150, Note_on_c, 3, 61, 0
6, 37150, Note_on_c, 3, 68, 0
6, 37152, Note_on_c, 3, 56, 77
6, 37152, Note_on_c, 3, 63, 74
6, 37156, Control_c, 3, 11, 74
6, 37165, Control_c, 3, 11, 73
6, 37174, Control_c, 3, 11, 72
6, 37184, Control_c, 3, 11, 71
6, 37193, Control_c, 3, 11, 70
6, 37202, Control_c, 3, 11, 69
6, 37211, Control_c, 3, 11, 68
6, 37220, Control_c, 3, 11, 67
6, 37229, Control_c, 3, 11, 66
6, 37238, Control_c, 3, 11, 65
6, 37246, Note_on_c, 3, 56, 0
6, 37246, Note_on_c, 3, 63, 0
6, 37248, Control_c, 3, 11, 64
6, 37824, Control_c, 3, 11, 127
6, 39264, Note_on_c, 3, 63, 45
6, 39264, Note_on_c, 3, 69, 41
6, 39294, Note_on_c, 3, 63, 0
6, 39294, Note_on_c, 3, 69, 0
6, 39296, Note_on_c, 3, 66, 43
6, 39296, Note_on_c, 3, 71, 49
6, 39326, Note_on_c, 3, 66, 0
6, 39326, Note_on_c, 3, 71, 0
6, 39328, Note_on_c, 3, 63, 44
6, 39328, Note_on_c, 3, 69, 47
6, 39358, Note_on_c, 3, 63, 0
6, 39358, Note_on_c, 3, 69, 0
6, 39360, Note_on_c, 3, 66, 53
6, 39360, Note_on_c, 3, 71, 51
6, 39390, Note_on_c, 3, 66, 0
6, 39390, Note_on_c, 3, 71, 0
6, 39392, Note_on_c, 3, 69, 52
6, 39392, Note_on_c, 3, 73, 52
6, 39422, Note_on_c, 3, 69, 0
6, 39422, Note_on_c, 3, 73, 0
6, 39424, Note_on_c, 3, 66, 66
6, 39424, Note_on_c, 3, 71, 64
6, 39454, Note_on_c, 3, 66, 0
6, 39454, Note_on_c, 3, 71, 0
6, 39456, Note_on_c, 3, 69, 66
6, 39456, Note_on_c, 3, 73, 63
6, 39486, Note_on_c, 3, 69, 0
6, 39486, Note_on_c, 3, 73, 0
6, 39488, Note_on_c, 3, 71, 69
6, 39488, Note_on_c, 3, 75, 68
6, 39518, Note_on_c, 3, 71, 0
6, 39518, Note_on_c, 3, 75, 0
6, 39520, Note_on_c, 3, 75, 75
6, 39520, Note_on_c, 3, 78, 78
6, 39550, Note_on_c, 3, 75, 0
6, 39550, Note_on_c, 3, 78, 0
6, 41952, Note_on_c, 3, 62, 49
6, 41952, Note_on_c, 3, 67, 48
6, 41982, Note_on_c, 3, 62, 0
6, 41982, Note_on_c, 3, 67, 0
6, 41984, Note_on_c, 3, 65, 47
6, 41984, Note_on_c, 3, 69, 49
6, 42014, Note_on_c, 3, 65, 0
6, 42014, Note_on_c, 3, 69, 0
6, 42016, Note_on_c, 3, 62, 48
6, 42016, Note_on_c, 3, 67, 54
6, 42046, Note_on_c, 3, 62, 0
6, 42046, Note_on_c, 3, 67, 0
6, 42048, Note_on_c, 3, 65, 62
6, 42048, Note_on_c, 3, 69, 64
6, 42078, Note_on_c, 3, 65, 0
6, 42078, Note_on_c, 3, 69, 0
6, 42080, Note_on_c, 3, 67, 64
6, 42080, Note_on_c, 3, 71, 66
6, 42110, Note_on_c, 3, 67, 0
6, 42110, Note_on_c, 3, 71, 0
6, 42112, Note_on_c, 3, 69, 73
6, 42112, Note_on_c, 3, 74, 77
6, 42142, Note_on_c, 3, 69, 0
6, 42142, Note_on_c, 3, 74, 0
6, 42240, Note_on_c, 3, 62, 40
6, 42240, Note_on_c, 3, 67, 50
6, 42270, Note_on_c, 3, 62, 0
6, 42270, Note_on_c, 3, 67, 0
6, 42272, Note_on_c, 3, 65, 48
6, 42272, Note_on_c, 3, 69, 46
6, 42302, Note_on_c, 3, 65, 0
6, 42302, Note_on_c, 3, 69, 0
6, 42304, Note_on_c, 3, 62, 52
6, 42304, Note_on_c, 3, 67, 55
6, 42334, Note_on_c, 3, 62, 0
6, 42334, Note_on_c, 3, 67, 0
6, 42336, Note_on_c, 3, 65, 61
6, 42336, Note_on_c, 3, 69, 63
6, 42366, Note_on_c, 3, 65, 0
6, 42366, Note_on_c, 3, 69, 0
6, 42368, Note_on_c, 3, 67, 72
6, 42368, Note_on_c, 3, 72, 69
6, 42398, Note_on_c, 3, 67, 0
6, 42398, Note_on_c, 3, 72, 0
6, 42400, Note_on_c, 3, 69, 73
6, 42400, Note_on_c, 3, 74, 74
6, 42430, Note_on_c, 3, 69, 0
6, 42430, Note_on_c, 3, 74, 0
6, 42432, Control_c, 3, 11, 92
6, 42432, Note_on_c, 3, 71, 77
6, 42440, Control_c, 3, 11, 93
6, 42448, Control_c, 3, 11, 94
6, 42456, Control_c, 3, 11, 95
6, 42464, Control_c, 3, 11, 96
6, 42473, Control_c, 3, 11, 97
6, 42481, Control_c, 3, 11, 98
6, 42489, Control_c, 3, 11, 99
6, 42497, Control_c, 3, 11, 100
6, 42506, Control_c, 3, 11, 101
6, 42514, Control_c, 3, 11, 102
6, 42522, Control_c, 3, 11, 103
6, 42530, Control_c, 3, 11, 104
6, 42538, Control_c, 3, 11, 105
6, 42547, Control_c, 3, 11, 106
6, 42555, Control_c, 3, 11, 107
6, 42563, Control_c, 3, 11, 108
6, 42571, Control_c, 3, 11, 109
6, 42580, Control_c, 3, 11, 110
6, 42588, Control_c, 3, 11, 111
6, 42596, Control_c, 3, 11, 112
6, 42604, Control_c, 3, 11, 113
6, 42613, Control_c, 3, 11, 114
6, 42621, Control_c, 3, 11, 115
6, 42624, Note_on_c, 3, 71, 0
6, 42624, Note_on_c, 3, 74, 79
6, 42629, Control_c, 3, 11, 116
6, 42637, Control_c, 3, 11, 117
6, 42645, Control_c, 3, 11, 118
6, 42654, Control_c, 3, 11, 119
6, 42662, Control_c, 3, 11, 120
6, 42670, Control_c, 3, 11, 121
6, 42678, Control_c, 3, 11, 122
6, 42687, Control_c, 3, 11, 123
6, 42695, Control_c, 3, 11, 124
6, 42703, Control_c, 3, 11, 125
6, 42711, Control_c, 3, 11, 126
6, 42718, Note_on_c, 3, 74, 0
6, 42720, Control_c, 3, 11, 127
6, 42720, Control_c, 3, 11, 92
6, 42720, Note_on_c, 3, 71, 94
6, 42728, Control_c, 3, 11, 93
6, 42736, Control_c, 3, 11, 94
6, 42744, Control_c, 3, 11, 95
6, 42752, Control_c, 3, 11, 96
6, 42761, Control_c, 3, 11, 97
6, 42769, Control_c, 3, 11, 98
6, 42777, Control_c, 3, 11, 99
6, 42785, Control_c, 3, 11, 100
6, 42794, Control_c, 3, 11, 101
6, 42802, Control_c, 3, 11, 102
6, 42810, Control_c, 3, 11, 103
6, 42818, Control_c, 3, 11, 104
6, 42826, Control_c, 3, 11, 105
6, 42835, Control_c, 3, 11, 106
6, 42843, Control_c, 3, 11, 107
6, 42851, Control_c, 3, 11, 108
6, 42859, Control_c, 3, 11, 109
6, 42868, Control_c, 3, 11, 110
6, 42876, Control_c, 3, 11, 111
6, 42884, Control_c, 3, 11, 112
6, 42892, Control_c, 3, 11, 113
6, 42901, Control_c, 3, 11, 114
6, 42909, Control_c, 3, 11, 115
6, 42912, Note_on_c, 3, 71, 0
6, 42912, Note_on_c, 3, 74, 89
6, 42917, Control_c, 3, 11, 116
6, 42925, Control_c, 3, 11, 117
6, 42933, Control_c, 3, 11, 118
6, 42942, Control_c, 3, 11, 119
6, 42950, Control_c, 3, 11, 120
6, 42958, Control_c, 3, 11, 121
6, 42966, Control_c, 3, 11, 122
6, 42975, Control_c, 3, 11, 123
6, 42983, Control_c, 3, 11, 124
6, 42991, Control_c, 3, 11, 125
6, 42999, Control_c, 3, 11, 126
6, 43006, Note_on_c, 3, 74, 0
6, 43008, Control_c, 3, 11, 127
6, 43008, Control_c, 3, 11, 127
6, 43016, Control_c, 3, 11, 126
6, 43024, Control_c, 3, 11, 125
6, 43032, Control_c, 3, 11, 124
6, 43040, Control_c, 3, 11, 123
6, 43049, Control_c, 3, 11, 122
6, 43056, Note_on_c, 3, 68, 25
6, 43056, Note_on_c, 3, 71, 33
6, 43057, Control_c, 3, 11, 121
6, 43065, Control_c, 3, 11, 120
6, 43073, Control_c, 3, 11, 119
6, 43082, Control_c, 3, 11, 118
6, 43090, Control_c, 3, 11, 117
6, 43098, Control_c, 3, 11, 116
6, 43106, Control_c, 3, 11, 115
6, 43114, Control_c, 3, 11, 114
6, 43123, Control_c, 3, 11, 113
6, 43131, Control_c, 3, 11, 112
6, 43139, Control_c, 3, 11, 111
6, 43147, Control_c, 3, 11, 110
6, 43150, Note_on_c, 3, 68, 0
6, 43150, Note_on_c, 3, 71, 0
6, 43152, Note_on_c, 3, 68, 32
6, 43152, Note_on_c, 3, 71, 25
6, 43156, Control_c, 3, 11, 109
6, 43164, Control_c, 3, 11, 108
6, 43172, Control_c, 3, 11, 107
6, 43180, Control_c, 3, 11, 106
6, 43189, Control_c, 3, 11, 105
6, 43197, Control_c, 3, 11, 104
6, 43205, Control_c, 3, 11, 103
6, 43213, Control_c, 3, 11, 102
6, 43221, Control_c, 3, 11, 101
6, 43230, Control_c, 3, 11, 100
6, 43238, Control_c, 3, 11, 99
6, 43246, Note_on_c, 3, 68, 0
6, 43246, Note_on_c, 3, 71, 0
6, 43246, Control_c, 3, 11, 98
6, 43248, Note_on_c, 3, 65, 33
6, 43248, Note_on_c, 3, 68, 29
6, 43254, Control_c, 3, 11, 97
6, 43263, Control_c, 3, 11, 96
6, 43271, Control_c, 3, 11, 95
6, 43279, Control_c, 3, 11, 94
6, 43287, Control_c, 3, 11, 93
6, 43294, Note_on_c, 3, 65, 0
6, 43294, Note_on_c, 3, 68, 0
6, 43296, Control_c, 3, 11, 92
6, 43344, Note_on_c, 3, 68, 26
6, 43344, Note_on_c, 3, 71, 28
6, 43438, Note_on_c, 3, 68, 0
6, 43438, Note_on_c, 3, 71, 0
6, 43440, Note_on_c, 3, 68, 27
6, 43440, Note_on_c, 3, 71, 35
6, 43534, Note_on_c, 3, 68, 0
6, 43534, Note_on_c, 3, 71, 0
6, 43536, Note_on_c, 3, 65, 26
6, 43536, Note_on_c, 3, 68, 31
6, 43582, Note_on_c, 3, 65, 0
6, 43582, Note_on_c, 3, 68, 0
6, 43584, Control_c, 3, 11, 127
6, 43592, Control_c, 3, 11, 126
6, 43600, Control_c, 3, 11, 125
6, 43608, Control_c, 3, 11, 124
6, 43616, Control_c, 3, 11, 123
6, 43625, Control_c, 3, 11, 122
6, 43632, Note_on_c, 3, 68, 25
6, 43632, Note_on_c, 3, 71, 26
6, 43633, Control_c, 3, 11, 121
6, 43641, Control_c, 3, 11, 120
6, 43649, Control_c, 3, 11, 119
6, 43658, Control_c, 3, 11, 118
6, 43666, Control_c, 3, 11, 117
6, 43674, Control_c, 3, 11, 116
6, 43682, Control_c, 3, 11, 115
6, 43690, Control_c, 3, 11, 114
6, 43699, Control_c, 3, 11, 113
6, 43707, Control_c, 3, 11, 112
6, 43715, Control_c, 3, 11, 111
6, 43723, Control_c, 3, 11, 110
6, 43726, Note_on_c, 3, 68, 0
6, 43726, Note_on_c, 3, 71, 0
6, 43728, Note_on_c, 3, 68, 33
6, 43728, Note_on_c, 3, 71, 35
6, 43732, Control_c, 3, 11, 109
6, 43740, Control_c, 3, 11, 108
6, 43748, Control_c, 3, 11, 107
6, 43756, Control_c, 3, 11, 106
6, 43765, Control_c, 3, 11, 105
6, 43773, Control_c, 3, 11, 104
6, 43781, Control_c, 3, 11, 103
6, 43789, Control_c, 3, 11, 102
6, 43797, Control_c, 3, 11, 101
6, 43806, Control_c, 3, 11, 100
6, 43814, Control_c, 3, 11, 99
6, 43822, Note_on_c, 3, 68, 0
6, 43822, Note_on_c, 3, 71, 0
6, 43822, Control_c, 3, 11, 98
6, 43824, Note_on_c, 3, 65, 26
6, 43824, Note_on_c, 3, 68, 32
6, 43830, Control_c, 3, 11, 97
6, 43839, Control_c, 3, 11, 96
6, 43847, Control_c, 3, 11, 95
6, 43855, Control_c, 3, 11, 94
6, 43863, Control_c, 3, 11, 93
6, 43870, Note_on_c, 3, 65, 0
6, 43870, Note_on_c, 3, 68, 0
6, 43872, Control_c, 3, 11, 92
6, 43920, Note_on_c, 3, 68, 25
6, 43920, Note_on_c, 3, 71, 33
6, 44014, Note_on_c, 3, 68, 0
6, 44014, Note_on_c, 3, 71, 0
6, 44016, Note_on_c, 3, 68, 31
6, 44016, Note_on_c, 3, 71, 30
6, 44110, Note_on_c, 3, 68, 0
6, 44110, Note_on_c, 3, 71, 0
6, 44112, Note_on_c, 3, 65, 25
6, 44112, Note_on_c, 3, 68, 34
6, 44158, Note_on_c, 3, 65, 0
6, 44158, Note_on_c, 3, 68, 0
6, 44160, Control_c, 3, 11, 127
6, 44168, Control_c, 3, 11, 126
6, 44176, Control_c, 3, 11, 125
6, 44184, Control_c, 3, 11, 124
6, 44192, Control_c, 3, 11, 123
6, 44201, Control_c, 3, 11, 122
6, 44208, Note_on_c, 3, 68, 27
6, 44208, Note_on_c, 3, 71, 30
6, 44209, Control_c, 3, 11, 121
6, 44217, Control_c, 3, 11, 120
6, 44225, Control_c, 3, 11, 119
6, 44234, Control_c, 3, 11, 118
6, 44242, Control_c, 3, 11, 117
6, 44250, Control_c, 3, 11, 116
6, 44258, Control_c, 3, 11, 115
6, 44266, Control_c, 3, 11, 114
6, 44275, Control_c, 3, 11, 113
6, 44283, Control_c, 3, 11, 112
6, 44291, Control_c, 3, 11, 111
6, 44299, Control_c, 3, 11, 110
6, 44302, Note_on_c, 3, 68, 0
6, 44302, Note_on_c, 3, 71, 0
6, 44304, Note_on_c, 3, 68, 34
6, 44304, Note_on_c, 3, 71, 33
6, 44308, Control_c, 3, 11, 109
6, 44316, Control_c, 3, 11, 108
6, 44324, Control_c, 3, 11, 107
6, 44332, Control_c, 3, 11, 106
6, 44341, Control_c, 3, 11, 105
6, 44349, Control_c, 3, 11, 104
6, 44357, Control_c, 3, 11, 103
6, 44365, Control_c, 3, 11, 102
6, 44373, Control_c, 3, 11, 101
6, 44382, Control_c, 3, 11, 100
6, 44390, Control_c, 3, 11, 99
6, 44398, Note_on_c, 3, 68, 0
6, 44398, Note_on_c, 3, 71, 0
6, 44398, Control_c, 3, 11, 98
6, 44400, Note_on_c, 3, 65, 27
6, 44400, Note_on_c, 3, 68, 29
6, 44406, Control_c, 3, 11, 97
6, 44415, Control_c, 3, 11, 96
6, 44423, Control_c, 3, 11, 95
6, 44431, Control_c, 3, 11, 94
6, 44439, Control_c, 3, 11, 93
6, 44446, Note_on_c, 3, 65, 0
6, 44446, Note_on_c, 3, 68, 0
6, 44448, Control_c, 3, 11, 92
6, 44496, Note_on_c, 3, 68, 31
6, 44496, Note_on_c, 3, 71, 35
6, 44590, Note_on_c, 3, 68, 0
6, 44590, Note_on_c, 3, 71, 0
6, 44592, Note_on_c, 3, 68, 32
6, 44592, Note_on_c, 3, 71, 35
6, 44686, Note_on_c, 3, 68, 0
6, 44686, Note_on_c, 3, 71, 0
6, 44688, Note_on_c, 3, 65, 26
6, 44688, Note_on_c, 3, 68, 28
6, 44734, Note_on_c, 3, 65, 0
6, 44734, Note_on_c, 3, 68, 0
6, 44736, Control_c, 3, 11, 127
6, 44744, Control_c, 3, 11, 126
6, 44752, Control_c, 3, 11, 125
6, 44760, Control_c, 3, 11, 124
6, 44768, Control_c, 3, 11, 123
6, 44777, Control_c, 3, 11, 122
6, 44784, Note_on_c, 3, 68, 31
6, 44784, Note_on_c, 3, 71, 34
6, 44785, Control_c, 3, 11, 121
6, 44793, Control_c, 3, 11, 120
6, 44801, Control_c, 3, 11, 119
6, 44810, Control_c, 3, 11, 118
6, 44818, Control_c, 3, 11, 117
6, 44826, Control_c, 3, 11, 116
6, 44834, Control_c, 3, 11, 115
6, 44842, Control_c, 3, 11, 114
6, 44851, Control_c, 3, 11, 113
6, 44859, Control_c, 3, 11, 112
6, 44867, Control_c, 3, 11, 111
6, 44875, Control_c, 3, 11, 110
6, 44878, Note_on_c, 3, 68, 0
6, 44878, Note_on_c, 3, 71, 0
6, 44880, Note_on_c, 3, 68, 27
6, 44880, Note_on_c, 3, 71, 30
6, 44884, Control_c, 3, 11, 109
6, 44892, Control_c, 3, 11, 108
6, 44900, Control_c, 3, 11, 107
6, 44908, Control_c, 3, 11, 106
6, 44917, Control_c, 3, 11, 105
6, 44925, Control_c, 3, 11, 104
6, 44933, Control_c, 3, 11, 103
6, 44941, Control_c, 3, 11, 102
6, 44949, Control_c, 3, 11, 101
6, 44958, Control_c, 3, 11, 100
6, 44966, Control_c, 3, 11, 99
6, 44974, Note_on_c, 3, 68, 0
6, 44974, Note_on_c, 3, 71, 0
6, 44974, Control_c, 3, 11, 98
6, 44976, Note_on_c, 3, 65, 32
6, 44976, Note_on_c, 3, 68, 33
6, 44982, Control_c, 3, 11, 97
6, 44991, Control_c, 3, 11, 96
6, 44999, Control_c, 3, 11, 95
6, 45007, Control_c, 3, 11, 94
6, 45015, Control_c, 3, 11, 93
6, 45022, Note_on_c, 3, 65, 0
6, 45022, Note_on_c, 3, 68, 0
6, 45024, Control_c, 3, 11, 92
6, 45072, Note_on_c, 3, 68, 28
6, 45072, Note_on_c, 3, 71, 25
6, 45166, Note_on_c, 3, 68, 0
6, 45166, Note_on_c, 3, 71, 0
6, 45168, Note_on_c, 3, 68, 29
6, 45168, Note_on_c, 3, 71, 30
6, 45262, Note_on_c, 3, 68, 0
6, 45262, Note_on_c, 3, 71, 0
6, 45264, Note_on_c, 3, 65, 31
6, 45264, Note_on_c, 3, 68, 32
6, 45310, Note_on_c, 3, 65, 0
6, 45310, Note_on_c, 3, 68, 0
6, 45312, Control_c, 3, 11, 127
6, 45312, Note_on_c, 3, 64, 35
6, 45312, Note_on_c, 3, 68, 32
6, 45330, Control_c, 3, 11, 126
6, 45348, Control_c, 3, 11, 125
6, 45366, Control_c, 3, 11, 124
6, 45385, Control_c, 3, 11, 123
6, 45403, Control_c, 3, 11, 122
6, 45408, Note_on_c, 3, 64, 0
6, 45408, Note_on_c, 3, 68, 0
6, 45408, Note_on_c, 3, 56, 31
6, 45408, Note_on_c, 3, 59, 25
6, 45421, Control_c, 3, 11, 121
6, 45440, Control_c, 3, 11, 120
6, 45458, Control_c, 3, 11, 119
6, 45476, Control_c, 3, 11, 118
6, 45494, Control_c, 3, 11, 117
6, 45513, Control_c, 3, 11, 116
6, 45531, Control_c, 3, 11, 115
6, 45549, Control_c, 3, 11, 114
6, 45568, Note_on_c, 3, 56, 0
6, 45568, Note_on_c, 3, 59, 0
6, 45568, Control_c, 3, 11, 113
6, 45586, Control_c, 3, 11, 112
6, 45600, Note_on_c, 3, 64, 30
6, 45600, Note_on_c, 3, 68, 26
6, 45604, Control_c, 3, 11, 111
6, 45622, Control_c, 3, 11, 110
6, 45641, Control_c, 3, 11, 109
6, 45659, Control_c, 3, 11, 108
6, 45677, Control_c, 3, 11, 107
6, 45696, Note_on_c, 3, 64, 0
6, 45696, Note_on_c, 3, 68, 0
6, 45696, Control_c, 3, 11, 106
6, 45696, Note_on_c, 3, 56, 32
6, 45696, Note_on_c, 3, 59, 34
6, 45714, Control_c, 3, 11, 105
6, 45732, Control_c, 3, 11, 104
6, 45750, Control_c, 3, 11, 103
6, 45769, Control_c, 3, 11, 102
6, 45787, Control_c, 3, 11, 101
6, 45805, Control_c, 3, 11, 100
6, 45824, Control_c, 3, 11, 99
6, 45842, Control_c, 3, 11, 98
6, 45856, Note_on_c, 3, 56, 0
6, 45856, Note_on_c, 3, 59, 0
6, 45860, Control_c, 3, 11, 97
6, 45878, Control_c, 3, 11, 96
6, 45897, Control_c, 3, 11, 95
6, 45915, Control_c, 3, 11, 94
6, 45933, Control_c, 3, 11, 93
6, 45952, Control_c, 3, 11, 92
6, 45970, Control_c, 3, 11, 91
6, 45984, Note_on_c, 3, 55, 34
6, 45984, Note_on_c, 3, 59, 26
6, 45988, Control_c, 3, 11, 90
6, 46006, Control_c, 3, 11, 89
6, 46025, Control_c, 3, 11, 88
6, 46043, Control_c, 3, 11, 87
6, 46061, Control_c, 3, 11, 86
6, 46080, Control_c, 3, 11, 85
6, 46098, Control_c, 3, 11, 84
6, 46116, Control_c, 3, 11, 83
6, 46134, Control_c, 3, 11, 82
6, 46144, Note_on_c, 3, 55, 0
6, 46144, Note_on_c, 3, 59, 0
6, 46153, Control_c, 3, 11, 81
6, 46171, Control_c, 3, 11, 80
6, 46189, Control_c, 3, 11, 79
6, 46208, Control_c, 3, 11, 78
6, 46226, Control_c, 3, 11, 77
6, 46244, Control_c, 3, 11, 76
6, 46262, Control_c, 3, 11, 75
6, 46272, Note_on_c, 3, 55, 27
6, 46272, Note_on_c, 3, 59, 28
6, 46281, Control_c, 3, 11, 74
6, 46299, Control_c, 3, 11, 73
6, 46317, Control_c, 3, 11, 72
6, 46336, Control_c, 3, 11, 71
6, 46354, Control_c, 3, 11, 70
6, 46372, Control_c, 3, 11, 69
6, 46390, Control_c, 3, 11, 68
6, 46409, Control_c, 3, 11, 67
6, 46427, Control_c, 3, 11, 66
6, 46432, Note_on_c, 3, 55, 0
6, 46432, Note_on_c, 3, 59, 0
6, 46445, Control_c, 3, 11, 65
6, 46464, Control_c, 3, 11, 64
6, 47040, Control_c, 3, 11, 92
6, 47040, Note_on_c, 3, 57, 45
6, 47040, Note_on_c, 3, 61, 43
6, 47056, Control_c, 3, 11, 93
6, 47072, Control_c, 3, 11, 94
6, 47089, Control_c, 3, 11, 95
6, 47105, Control_c, 3, 11, 96
6, 47122, Control_c, 3, 11, 97
6, 47138, Control_c, 3, 11, 98
6, 47155, Control_c, 3, 11, 99
6, 47171, Control_c, 3, 11, 100
6, 47182, Note_on_c, 3, 57, 0
6, 47182, Note_on_c, 3, 61, 0
6, 47184, Note_on_c, 3, 56, 46
6, 47184, Note_on_c, 3, 60, 41
6, 47188, Control_c, 3, 11, 101
6, 47204, Control_c, 3, 11, 102
6, 47221, Control_c, 3, 11, 103
6, 47230, Note_on_c, 3, 56, 0
6, 47230, Note_on_c, 3, 60, 0
6, 47232, Note_on_c, 3, 55, 47
6, 47232, Note_on_c, 3, 59, 46
6, 47237, Control_c, 3, 11, 104
6, 47253, Control_c, 3, 11, 105
6, 47270, Control_c, 3, 11, 106
6, 47278, Note_on_c, 3, 55, 0
6, 47278, Note_on_c, 3, 59, 0
6, 47280, Note_on_c, 3, 56, 42
6, 47280, Note_on_c, 3, 60, 49
6, 47286, Control_c, 3, 11, 107
6, 47303, Control_c, 3, 11, 108
6, 47319, Control_c, 3, 11, 109
6, 47326, Note_on_c, 3, 56, 0
6, 47326, Note_on_c, 3, 60, 0
6, 47328, Note_on_c, 3, 57, 44
6, 47328, Note_on_c, 3, 61, 46
6, 47336, Control_c, 3, 11, 110
6, 47352, Control_c, 3, 11, 111
6, 47369, Control_c, 3, 11, 112
6, 47374, Note_on_c, 3, 57, 0
6, 47374, Note_on_c, 3, 61, 0
6, 47376, Note_on_c, 3, 58, 48
6, 47376, Note_on_c, 3, 62, 49
6, 47385, Control_c, 3, 11, 113
6, 47402, Control_c, 3, 11, 114
6, 47418, Control_c, 3, 11, 115
6, 47422, Note_on_c, 3, 58, 0
6, 47422, Note_on_c, 3, 62, 0
6, 47424, Note_on_c, 3, 59, 50
6, 47424, Note_on_c, 3, 63, 46
6, 47434, Control_c, 3, 11, 116
6, 47451, Control_c, 3, 11, 117
6, 47467, Control_c, 3, 11, 118
6, 47484, Control_c, 3, 11, 119
6, 47500, Control_c, 3, 11, 120
6, 47517, Control_c, 3, 11, 121
6, 47518, Note_on_c, 3, 63, 0
6, 47520, Note_on_c, 3, 62, 45
6, 47533, Control_c, 3, 11, 122
6, 47550, Control_c, 3, 11, 123
6, 47566, Control_c, 3, 11, 124
6, 47583, Control_c, 3, 11, 125
6, 47599, Control_c, 3, 11, 126
6, 47614, Note_on_c, 3, 59, 0
6, 47614, Note_on_c, 3, 62, 0
6, 47616, Control_c, 3, 11, 127
6, 48192, Control_c, 3, 11, 92
6, 48192, Note_on_c, 3, 59, 64
6, 48192, Note_on_c, 3, 63, 60
6, 48208, Control_c, 3, 11, 93
6, 48224, Control_c, 3, 11, 94
6, 48241, Control_c, 3, 11, 95
6, 48257, Control_c, 3, 11, 96
6, 48274, Control_c, 3, 11, 97
6, 48290, Control_c, 3, 11, 98
6, 48307, Control_c, 3, 11, 99
6, 48323, Control_c, 3, 11, 100
6, 48334, Note_on_c, 3, 59, 0
6, 48334, Note_on_c, 3, 63, 0
6, 48336, Note_on_c, 3, 58, 59
6, 48336, Note_on_c, 3, 62, 56
6, 48340, Control_c, 3, 11, 101
6, 48356, Control_c, 3, 11, 102
6, 48373, Control_c, 3, 11, 103
6, 48382, Note_on_c, 3, 58, 0
6, 48382, Note_on_c, 3, 62, 0
6, 48384, Note_on_c, 3, 57, 57
6, 48384, Note_on_c, 3, 61, 63
6, 48389, Control_c, 3, 11, 104
6, 48405, Control_c, 3, 11, 105
6, 48422, Control_c, 3, 11, 106
6, 48430, Note_on_c, 3, 57, 0
6, 48430, Note_on_c, 3, 61, 0
6, 48432, Note_on_c, 3, 58, 61
6, 48432, Note_on_c, 3, 62, 65
6, 48438, Control_c, 3, 11, 107
6, 48455, Control_c, 3, 11, 108
6, 48471, Control_c, 3, 11, 109
6, 48478, Note_on_c, 3, 58, 0
6, 48478, Note_on_c, 3, 62, 0
6, 48480, Note_on_c, 3, 61, 61
6, 48480, Note_on_c, 3, 63, 65
6, 48488, Control_c, 3, 11, 110
6, 48504, Control_c, 3, 11, 111
6, 48521, Control_c, 3, 11, 112
6, 48537, Control_c, 3, 11, 113
6, 48554, Control_c, 3, 11, 114
6, 48570, Control_c, 3, 11, 115
6, 48586, Control_c, 3, 11, 116
6, 48603, Control_c, 3, 11, 117
6, 48619, Control_c, 3, 11, 118
6, 48636, Control_c, 3, 11, 119
6, 48652, Control_c, 3, 11, 120
6, 48669, Control_c, 3, 11, 121
6, 48672, Note_on_c, 3, 61, 0
6, 48672, Note_on_c, 3, 63, 0
6, 48672, Note_on_c, 3, 62, 59
6, 48672, Note_on_c, 3, 66, 60
6, 48685, Control_c, 3, 11, 122
6, 48702, Control_c, 3, 11, 123
6, 48718, Control_c, 3, 11, 124
6, 48735, Control_c, 3, 11, 125
6, 48751, Control_c, 3, 11, 126
6, 48766, Note_on_c, 3, 62, 0
6, 48766, Note_on_c, 3, 66, 0
6, 48768, Control_c, 3, 11, 127
6, 48768, Control_c, 3, 11, 92
6, 48768, Note_on_c, 3, 59, 61
6, 48768, Note_on_c, 3, 63, 62
6, 48773, Control_c, 3, 11, 93
6, 48778, Control_c, 3, 11, 94
6, 48784, Control_c, 3, 11, 95
6, 48789, Control_c, 3, 11, 96
6, 48795, Control_c, 3, 11, 97
6, 48800, Control_c, 3, 11, 98
6, 48806, Control_c, 3, 11, 99
6, 48811, Control_c, 3, 11, 100
6, 48817, Control_c, 3, 11, 101
6, 48822, Control_c, 3, 11, 102
6, 48828, Control_c, 3, 11, 103
6, 48833, Control_c, 3, 11, 104
6, 48839, Control_c, 3, 11, 105
6, 48844, Control_c, 3, 11, 106
6, 48850, Control_c, 3, 11, 107
6, 48855, Control_c, 3, 11, 108
6, 48861, Control_c, 3, 11, 109
6, 48866, Control_c, 3, 11, 110
6, 48872, Control_c, 3, 11, 111
6, 48877, Control_c, 3, 11, 112
6, 48883, Control_c, 3, 11, 113
6, 48888, Control_c, 3, 11, 114
6, 48894, Control_c, 3, 11, 115
6, 48899, Control_c, 3, 11, 116
6, 48905, Control_c, 3, 11, 117
6, 48910, Note_on_c, 3, 59, 0
6, 48910, Note_on_c, 3, 63, 0
6, 48910, Control_c, 3, 11, 118
6, 48912, Note_on_c, 3, 58, 61
6, 48912, Note_on_c, 3, 62, 56
6, 48916, Control_c, 3, 11, 119
6, 48921, Control_c, 3, 11, 120
6, 48927, Control_c, 3, 11, 121
6, 48932, Control_c, 3, 11, 122
6, 48938, Control_c, 3, 11, 123
6, 48943, Control_c, 3, 11, 124
6, 48949, Control_c, 3, 11, 125
6, 48954, Control_c, 3, 11, 126
6, 48958, Note_on_c, 3, 58, 0
6, 48958, Note_on_c, 3, 62, 0
6, 48960, Control_c, 3, 11, 127
6, 48960, Note_on_c, 3, 57, 63
6, 48960, Note_on_c, 3, 61, 56
6, 48962, Control_c, 3, 11, 126
6, 48965, Control_c, 3, 11, 125
6, 48968, Control_c, 3, 11, 124
6, 48970, Control_c, 3, 11, 123
6, 48973, Control_c, 3, 11, 122
6, 48976, Control_c, 3, 11, 121
6, 48979, Control_c, 3, 11, 120
6, 48981, Control_c, 3, 11, 119
6, 48984, Control_c, 3, 11, 118
6, 48987, Control_c, 3, 11, 117
6, 48990, Control_c, 3, 11, 116
6, 48992, Control_c, 3, 11, 115
6, 48995, Control_c, 3, 11, 114
6, 48998, Control_c, 3, 11, 113
6, 49001, Control_c, 3, 11, 112
6, 49003, Control_c, 3, 11, 111
6, 49006, Note_on_c, 3, 57, 0
6, 49006, Note_on_c, 3, 61, 0
6, 49006, Control_c, 3, 11, 110
6, 49008, Note_on_c, 3, 58, 61
6, 49008, Note_on_c, 3, 62, 63
6, 49009, Control_c, 3, 11, 109
6, 49012, Control_c, 3, 11, 108
6, 49014, Control_c, 3, 11, 107
6, 49017, Control_c, 3, 11, 106
6, 49020, Control_c, 3, 11, 105
6, 49023, Control_c, 3, 11, 104
6, 49025, Control_c, 3, 11, 103
6, 49028, Control_c, 3, 11, 102
6, 49031, Control_c, 3, 11, 101
6, 49034, Control_c, 3, 11, 100
6, 49036, Control_c, 3, 11, 99
6, 49039, Control_c, 3, 11, 98
6, 49042, Control_c, 3, 11, 97
6, 49045, Control_c, 3, 11, 96
6, 49047, Control_c, 3, 11, 95
6, 49050, Control_c, 3, 11, 94
6, 49053, Control_c, 3, 11, 93
6, 49054, Note_on_c, 3, 58, 0
6, 49054, Note_on_c, 3, 62, 0
6, 49056, Control_c, 3, 11, 92
6, 49056, Note_on_c, 3, 59, 61
6, 49056, Note_on_c, 3, 63, 64
6, 49064, Control_c, 3, 11, 93
6, 49072, Control_c, 3, 11, 94
6, 49080, Control_c, 3, 11, 95
6, 49088, Control_c, 3, 11, 96
6, 49097, Control_c, 3, 11, 97
6, 49105, Control_c, 3, 11, 98
6, 49113, Control_c, 3, 11, 99
6, 49121, Control_c, 3, 11, 100
6, 49130, Control_c, 3, 11, 101
6, 49138, Control_c, 3, 11, 102
6, 49146, Control_c, 3, 11, 103
6, 49154, Control_c, 3, 11, 104
6, 49162, Control_c, 3, 11, 105
6, 49171, Control_c, 3, 11, 106
6, 49179, Control_c, 3, 11, 107
6, 49187, Control_c, 3, 11, 108
6, 49195, Control_c, 3, 11, 109
6, 49198, Note_on_c, 3, 59, 0
6, 49200, Note_on_c, 3, 61, 64
6, 49204, Control_c, 3, 11, 110
6, 49212, Control_c, 3, 11, 111
6, 49216, Note_on_c, 3, 63, 0
6, 49220, Control_c, 3, 11, 112
6, 49228, Control_c, 3, 11, 113
6, 49237, Control_c, 3, 11, 114
6, 49245, Control_c, 3, 11, 115
6, 49246, Note_on_c, 3, 61, 0
6, 49248, Note_on_c, 3, 62, 60
6, 49248, Note_on_c, 3, 66, 57
6, 49253, Control_c, 3, 11, 116
6, 49261, Control_c, 3, 11, 117
6, 49269, Control_c, 3, 11, 118
6, 49278, Control_c, 3, 11, 119
6, 49286, Control_c, 3, 11, 120
6, 49294, Control_c, 3, 11, 121
6, 49302, Control_c, 3, 11, 122
6, 49311, Control_c, 3, 11, 123
6, 49319, Control_c, 3, 11, 124
6, 49327, Control_c, 3, 11, 125
6, 49335, Control_c, 3, 11, 126
6, 49342, Note_on_c, 3, 62, 0
6, 49342, Note_on_c, 3, 66, 0
6, 49344, Control_c, 3, 11, 127
6, 49344, Control_c, 3, 11, 127
6, 49344, Note_on_c, 3, 62, 28
6, 49344, Note_on_c, 3, 68, 26
6, 49632, Note_on_c, 3, 62, 0
6, 49632, Note_on_c, 3, 68, 0
6, 49632, Note_on_c, 3, 62, 32
6, 49632, Note_on_c, 3, 68, 26
6, 49920, Note_on_c, 3, 62, 0
6, 49920, Note_on_c, 3, 68, 0
6, 49920, Note_on_c, 3, 62, 28
6, 49920, Note_on_c, 3, 68, 34
6, 50208, Note_on_c, 3, 62, 0
6, 50208, Note_on_c, 3, 68, 0
6, 50208, Note_on_c, 3, 62, 31
6, 50208, Note_on_c, 3, 68, 29
6, 50464, Note_on_c, 3, 62, 0
6, 50464, Note_on_c, 3, 68, 0
6, 50496, Control_c, 3, 11, 75
6, 50496, Note_on_c, 3, 61, 75
6, 50496, Note_on_c, 3, 68, 74
6, 50507, Control_c, 3, 11, 76
6, 50518, Control_c, 3, 11, 77
6, 50529, Control_c, 3, 11, 78
6, 50540, Control_c, 3, 11, 79
6, 50551, Control_c, 3, 11, 80
6, 50562, Control_c, 3, 11, 81
6, 50573, Control_c, 3, 11, 82
6, 50584, Control_c, 3, 11, 83
6, 50595, Control_c, 3, 11, 84
6, 50606, Control_c, 3, 11, 85
6, 50617, Control_c, 3, 11, 86
6, 50628, Control_c, 3, 11, 87
6, 50640, Control_c, 3, 11, 88
6, 50651, Control_c, 3, 11, 89
6, 50662, Control_c, 3, 11, 90
6, 50673, Control_c, 3, 11, 91
6, 50684, Control_c, 3, 11, 92
6, 50695, Control_c, 3, 11, 93
6, 50706, Control_c, 3, 11, 94
6, 50717, Control_c, 3, 11, 95
6, 50728, Control_c, 3, 11, 96
6, 50739, Control_c, 3, 11, 97
6, 50750, Control_c, 3, 11, 98
6, 50761, Control_c, 3, 11, 99
6, 50772, Control_c, 3, 11, 100
6, 50784, Note_on_c, 3, 61, 0
6, 50784, Note_on_c, 3, 68, 0
6, 50784, Control_c, 3, 11, 101
6, 50784, Note_on_c, 3, 63, 70
6, 50784, Note_on_c, 3, 66, 71
6, 50795, Control_c, 3, 11, 102
6, 50806, Control_c, 3, 11, 103
6, 50817, Control_c, 3, 11, 104
6, 50828, Control_c, 3, 11, 105
6, 50839, Control_c, 3, 11, 106
6, 50850, Control_c, 3, 11, 107
6, 50861, Control_c, 3, 11, 108
6, 50872, Control_c, 3, 11, 109
6, 50880, Note_on_c, 3, 63, 0
6, 50880, Note_on_c, 3, 66, 0
6, 50880, Note_on_c, 3, 61, 77
6, 50880, Note_on_c, 3, 65, 79
6, 50883, Control_c, 3, 11, 110
6, 50894, Control_c, 3, 11, 111
6, 50905, Control_c, 3, 11, 112
6, 50916, Control_c, 3, 11, 113
6, 50928, Control_c, 3, 11, 114
6, 50939, Control_c, 3, 11, 115
6, 50950, Control_c, 3, 11, 116
6, 50961, Control_c, 3, 11, 117
6, 50972, Control_c, 3, 11, 118
6, 50976, Note_on_c, 3, 61, 0
6, 50976, Note_on_c, 3, 65, 0
6, 50976, Note_on_c, 3, 56, 76
6, 50976, Note_on_c, 3, 63, 70
6, 50983, Control_c, 3, 11, 119
6, 50994, Control_c, 3, 11, 120
6, 51005, Control_c, 3, 11, 121
6, 51016, Control_c, 3, 11, 122
6, 51027, Control_c, 3, 11, 123
6, 51038, Control_c, 3, 11, 124
6, 51049, Control_c, 3, 11, 125
6, 51060, Control_c, 3, 11, 126
6, 51070, Note_on_c, 3, 56, 0
6, 51070, Note_on_c, 3, 63, 0
6, 51072, Control_c, 3, 11, 127
6, 51072, Note_on_c, 3, 62, 71
6, 51360, Note_on_c, 3, 62, 0
6, 51360, Note_on_c, 3, 61, 74
6, 51600, Note_on_c, 3, 61, 0
6, 51600, Note_on_c, 3, 60, 79
6, 51648, Note_on_c, 3, 60, 0
6, 51648, Control_c, 3, 11, 127
6, 51648, Note_on_c, 3, 59, 80
6, 51648, Note_on_c, 3, 63, 76
6, 51650, Control_c, 3, 11, 126
6, 51653, Control_c, 3, 11, 125
6, 51656, Control_c, 3, 11, 124
6, 51658, Control_c, 3, 11, 123
6, 51661, Control_c, 3, 11, 122
6, 51664, Control_c, 3, 11, 121
6, 51667, Control_c, 3, 11, 120
6, 51669, Control_c, 3, 11, 119
6, 51672, Control_c, 3, 11, 118
6, 51675, Control_c, 3, 11, 117
6, 51678, Control_c, 3, 11, 116
6, 51680, Control_c, 3, 11, 115
6, 51683, Control_c, 3, 11, 114
6, 51686, Control_c, 3, 11, 113
6, 51689, Control_c, 3, 11, 112
6, 51691, Control_c, 3, 11, 111
6, 51694, Control_c, 3, 11, 110
6, 51697, Control_c, 3, 11, 109
6, 51700, Control_c, 3, 11, 108
6, 51702, Control_c, 3, 11, 107
6, 51705, Control_c, 3, 11, 106
6, 51708, Control_c, 3, 11, 105
6, 51711, Control_c, 3, 11, 104
6, 51713, Control_c, 3, 11, 103
6, 51716, Control_c, 3, 11, 102
6, 51719, Control_c, 3, 11, 101
6, 51722, Control_c, 3, 11, 100
6, 51724, Control_c, 3, 11, 99
6, 51727, Control_c, 3, 11, 98
6, 51730, Control_c, 3, 11, 97
6, 51733, Control_c, 3, 11, 96
6, 51735, Control_c, 3, 11, 95
6, 51738, Control_c, 3, 11, 94
6, 51741, Control_c, 3, 11, 93
6, 51744, Note_on_c, 3, 63, 0
6, 51744, Control_c, 3, 11, 92
6, 51744, Note_on_c, 3, 62, 80
6, 51840, Note_on_c, 3, 62, 0
6, 51840, Note_on_c, 3, 61, 70
6, 51904, Note_on_c, 3, 59, 0
6, 51934, Note_on_c, 3, 61, 0
6, 51936, Control_c, 3, 11, 92
6, 51936, Note_on_c, 3, 68, 92
6, 51936, Note_on_c, 3, 75, 92
6, 51966, Note_on_c, 3, 68, 0
6, 51966, Note_on_c, 3, 75, 0
6, 51968, Note_on_c, 3, 66, 93
6, 51968, Note_on_c, 3, 73, 88
6, 51998, Note_on_c, 3, 66, 0
6, 51998, Note_on_c, 3, 73, 0
6, 52000, Note_on_c, 3, 63, 90
6, 52000, Note_on_c, 3, 70, 97
6, 52030, Note_on_c, 3, 63, 0
6, 52030, Note_on_c, 3, 70, 0
6, 52032, Note_on_c, 3, 61, 88
6, 52032, Note_on_c, 3, 68, 90
6, 52158, Note_on_c, 3, 61, 0
6, 52158, Note_on_c, 3, 68, 0
6, 52160, Note_on_c, 3, 63, 94
6, 52160, Note_on_c, 3, 70, 95
6, 52190, Note_on_c, 3, 63, 0
6, 52190, Note_on_c, 3, 70, 0
6, 52192, Note_on_c, 3, 66, 92
6, 52192, Note_on_c, 3, 73, 97
6, 52222, Note_on_c, 3, 66, 0
6, 52222, Note_on_c, 3, 73, 0
6, 52224, Control_c, 3, 11, 92
6, 52224, Note_on_c, 3, 68, 94
6, 52224, Note_on_c, 3, 75, 93
6, 52232, Control_c, 3, 11, 93
6, 52240, Control_c, 3, 11, 94
6, 52248, Control_c, 3, 11, 95
6, 52254, Note_on_c, 3, 68, 0
6, 52254, Note_on_c, 3, 75, 0
6, 52256, Control_c, 3, 11, 96
6, 52256, Note_on_c, 3, 66, 93
6, 52256, Note_on_c, 3, 73, 94
6, 52265, Control_c, 3, 11, 97
6, 52273, Control_c, 3, 11, 98
6, 52281, Control_c, 3, 11, 99
6, 52286, Note_on_c, 3, 66, 0
6, 52286, Note_on_c, 3, 73, 0
6, 52288, Note_on_c, 3, 63, 93
6, 52288, Note_on_c, 3, 70, 89
6, 52289, Control_c, 3, 11, 100
6, 52298, Control_c, 3, 11, 101
6, 52306, Control_c, 3, 11, 102
6, 52314, Control_c, 3, 11, 103
6, 52318, Note_on_c, 3, 63, 0
6, 52318, Note_on_c, 3, 70, 0
6, 52320, Note_on_c, 3, 66, 89
6, 52320, Note_on_c, 3, 73, 90
6, 52322, Control_c, 3, 11, 104
6, 52330, Control_c, 3, 11, 105
6, 52339, Control_c, 3, 11, 106
6, 52347, Control_c, 3, 11, 107
6, 52355, Control_c, 3, 11, 108
6, 52363, Control_c, 3, 11, 109
6, 52372, Control_c, 3, 11, 110
6, 52380, Control_c, 3, 11, 111
6, 52388, Control_c, 3, 11, 112
6, 52396, Control_c, 3, 11, 113
6, 52405, Control_c, 3, 11, 114
6, 52413, Control_c, 3, 11, 115
6, 52414, Note_on_c, 3, 66, 0
6, 52414, Note_on_c, 3, 73, 0
6, 52416, Note_on_c, 3, 68, 97
6, 52416, Note_on_c, 3, 75, 90
6, 52421, Control_c, 3, 11, 116
6, 52429, Control_c, 3, 11, 117
6, 52437, Control_c, 3, 11, 118
6, 52446, Control_c, 3, 11, 119
6, 52454, Control_c, 3, 11, 120
6, 52462, Control_c, 3, 11, 121
6, 52470, Control_c, 3, 11, 122
6, 52479, Control_c, 3, 11, 123
6, 52487, Control_c, 3, 11, 124
6, 52495, Control_c, 3, 11, 125
6, 52503, Control_c, 3, 11, 126
6, 52510, Note_on_c, 3, 68, 0
6, 52510, Note_on_c, 3, 75, 0
6, 52512, Control_c, 3, 11, 127
6, 54240, Control_c, 3, 11, 92
6, 54240, Note_on_c, 3, 78, 97
6, 54240, Note_on_c, 3, 85, 95
6, 54256, Control_c, 3, 11, 93
6, 54270, Note_on_c, 3, 78, 0
6, 54270, Note_on_c, 3, 85, 0
6, 54272, Control_c, 3, 11, 94
6, 54272, Note_on_c, 3, 76, 97
6, 54272, Note_on_c, 3, 83, 88
6, 54289, Control_c, 3, 11, 95
6, 54302, Note_on_c, 3, 76, 0
6, 54302, Note_on_c, 3, 83, 0
6, 54304, Note_on_c, 3, 73, 93
6, 54304, Note_on_c, 3, 80, 94
6, 54305, Control_c, 3, 11, 96
6, 54322, Control_c, 3, 11, 97
6, 54334, Note_on_c, 3, 73, 0
6, 54334, Note_on_c, 3, 80, 0
6, 54336, Note_on_c, 3, 71, 97
6, 54336, Note_on_c, 3, 78, 87
6, 54338, Control_c, 3, 11, 98
6, 54355, Control_c, 3, 11, 99
6, 54371, Control_c, 3, 11, 100
6, 54388, Control_c, 3, 11, 101
6, 54404, Control_c, 3, 11, 102
6, 54421, Control_c, 3, 11, 103
6, 54437, Control_c, 3, 11, 104
6, 54453, Control_c, 3, 11, 105
6, 54462, Note_on_c, 3, 71, 0
6, 54462, Note_on_c, 3, 78, 0
6, 54464, Note_on_c, 3, 73, 97
6, 54464, Note_on_c, 3, 80, 93
6, 54470, Control_c, 3, 11, 106
6, 54486, Control_c, 3, 11, 107
6, 54494, Note_on_c, 3, 73, 0
6, 54494, Note_on_c, 3, 80, 0
6, 54496, Note_on_c, 3, 76, 93
6, 54496, Note_on_c, 3, 83, 95
6, 54503, Control_c, 3, 11, 108
6, 54519, Control_c, 3, 11, 109
6, 54526, Note_on_c, 3, 76, 0
6, 54526, Note_on_c, 3, 83, 0
6, 54528, Note_on_c, 3, 78, 87
6, 54528, Note_on_c, 3, 85, 88
6, 54536, Control_c, 3, 11, 110
6, 54552, Control_c, 3, 11, 111
6, 54558, Note_on_c, 3, 78, 0
6, 54558, Note_on_c, 3, 85, 0
6, 54560, Note_on_c, 3, 76, 96
6, 54560, Note_on_c, 3, 83, 90
6, 54569, Control_c, 3, 11, 112
6, 54585, Control_c, 3, 11, 113
6, 54590, Note_on_c, 3, 76, 0
6, 54590, Note_on_c, 3, 83, 0
6, 54592, Note_on_c, 3, 73, 89
6, 54592, Note_on_c, 3, 80, 87
6, 54602, Control_c, 3, 11, 114
6, 54618, Control_c, 3, 11, 115
6, 54622, Note_on_c, 3, 73, 0
6, 54622, Note_on_c, 3, 80, 0
6, 54624, Note_on_c, 3, 76, 88
6, 54624, Note_on_c, 3, 83, 93
6, 54634, Control_c, 3, 11, 116
6, 54651, Control_c, 3, 11, 117
6, 54667, Control_c, 3, 11, 118
6, 54684, Control_c, 3, 11, 119
6, 54700, Control_c, 3, 11, 120
6, 54717, Control_c, 3, 11, 121
6, 54718, Note_on_c, 3, 76, 0
6, 54718, Note_on_c, 3, 83, 0
6, 54720, Note_on_c, 3, 78, 95
6, 54720, Note_on_c, 3, 85, 91
6, 54733, Control_c, 3, 11, 122
6, 54750, Control_c, 3, 11, 123
6, 54766, Control_c, 3, 11, 124
6, 54783, Control_c, 3, 11, 125
6, 54799, Control_c, 3, 11, 126
6, 54816, Control_c, 3, 11, 127
6, 54846, Note_on_c, 3, 78, 0
6, 54846, Note_on_c, 3, 85, 0
6, 54848, Note_on_c, 3, 76, 44
6, 54848, Note_on_c, 3, 83, 42
6, 54878, Note_on_c, 3, 76, 0
6, 54878, Note_on_c, 3, 83, 0
6, 54880, Note_on_c, 3, 73, 52
6, 54880, Note_on_c, 3, 80, 52
6, 54910, Note_on_c, 3, 73, 0
6, 54910, Note_on_c, 3, 80, 0
6, 54912, Note_on_c, 3, 71, 46
6, 54912, Note_on_c, 3, 78, 54
6, 54942, Note_on_c, 3, 71, 0
6, 54942, Note_on_c, 3, 78, 0
6, 54944, Note_on_c, 3, 73, 60
6, 54944, Note_on_c, 3, 80, 57
6, 54974, Note_on_c, 3, 73, 0
6, 54974, Note_on_c, 3, 80, 0
6, 54976, Note_on_c, 3, 76, 61
6, 54976, Note_on_c, 3, 83, 58
6, 55006, Note_on_c, 3, 76, 0
6, 55006, Note_on_c, 3, 83, 0
6, 55008, Note_on_c, 3, 78, 58
6, 55008, Note_on_c, 3, 85, 68
6, 55038, Note_on_c, 3, 78, 0
6, 55038, Note_on_c, 3, 85, 0
6, 55040, Note_on_c, 3, 76, 72
6, 55040, Note_on_c, 3, 83, 69
6, 55070, Note_on_c, 3, 76, 0
6, 55070, Note_on_c, 3, 83, 0
6, 55072, Note_on_c, 3, 73, 70
6, 55072, Note_on_c, 3, 80, 67
6, 55102, Note_on_c, 3, 73, 0
6, 55102, Note_on_c, 3, 80, 0
6, 55104, Note_on_c, 3, 71, 72
6, 55104, Note_on_c, 3, 78, 72
6, 55134, Note_on_c, 3, 71, 0
6, 55134, Note_on_c, 3, 78, 0
6, 55136, Note_on_c, 3, 73, 74
6, 55136, Note_on_c, 3, 80, 80
6, 55166, Note_on_c, 3, 73, 0
6, 55166, Note_on_c, 3, 80, 0
6, 55168, Note_on_c, 3, 76, 76
6, 55168, Note_on_c, 3, 83, 79
6, 55198, Note_on_c, 3, 76, 0
6, 55198, Note_on_c, 3, 83, 0
6, 55200, Note_on_c, 3, 78, 84
6, 55200, Note_on_c, 3, 85, 78
6, 55230, Note_on_c, 3, 78, 0
6, 55230, Note_on_c, 3, 85, 0
6, 55232, Note_on_c, 3, 76, 83
6, 55232, Note_on_c, 3, 83, 78
6, 55262, Note_on_c, 3, 76, 0
6, 55262, Note_on_c, 3, 83, 0
6, 55264, Note_on_c, 3, 73, 81
6, 55264, Note_on_c, 3, 80, 79
6, 55294, Note_on_c, 3, 73, 0
6, 55294, Note_on_c, 3, 80, 0
6, 55296, Note_on_c, 3, 71, 82
6, 55296, Note_on_c, 3, 78, 84
6, 55326, Note_on_c, 3, 71, 0
6, 55326, Note_on_c, 3, 78, 0
6, 55328, Note_on_c, 3, 73, 84
6, 55328, Note_on_c, 3, 80, 92
6, 55358, Note_on_c, 3, 73, 0
6, 55358, Note_on_c, 3, 80, 0
6, 55360, Note_on_c, 3, 76, 95
6, 55360, Note_on_c, 3, 83, 93
6, 55390, Note_on_c, 3, 76, 0
6, 55390, Note_on_c, 3, 83, 0
6, 55392, Note_on_c, 3, 78, 42
6, 55392, Note_on_c, 3, 85, 40
6, 55422, Note_on_c, 3, 78, 0
6, 55422, Note_on_c, 3, 85, 0
6, 55424, Note_on_c, 3, 76, 47
6, 55424, Note_on_c, 3, 83, 46
6, 55454, Note_on_c, 3, 76, 0
6, 55454, Note_on_c, 3, 83, 0
6, 55456, Note_on_c, 3, 73, 45
6, 55456, Note_on_c, 3, 80, 44
6, 55486, Note_on_c, 3, 73, 0
6, 55486, Note_on_c, 3, 80, 0
6, 55488, Note_on_c, 3, 71, 56
6, 55488, Note_on_c, 3, 78, 46
6, 55518, Note_on_c, 3, 71, 0
6, 55518, Note_on_c, 3, 78, 0
6, 55520, Note_on_c, 3, 73, 50
6, 55520, Note_on_c, 3, 80, 56
6, 55550, Note_on_c, 3, 73, 0
6, 55550, Note_on_c, 3, 80, 0
6, 55552, Note_on_c, 3, 76, 62
6, 55552, Note_on_c, 3, 83, 57
6, 55582, Note_on_c, 3, 76, 0
6, 55582, Note_on_c, 3, 83, 0
6, 55584, Note_on_c, 3, 78, 60
6, 55584, Note_on_c, 3, 85, 60
6, 55614, Note_on_c, 3, 78, 0
6, 55614, Note_on_c, 3, 85, 0
6, 55616, Note_on_c, 3, 76, 66
6, 55616, Note_on_c, 3, 83, 72
6, 55646, Note_on_c, 3, 76, 0
6, 55646, Note_on_c, 3, 83, 0
6, 55648, Note_on_c, 3, 73, 74
6, 55648, Note_on_c, 3, 80, 75
6, 55678, Note_on_c, 3, 73, 0
6, 55678, Note_on_c, 3, 80, 0
6, 55680, Note_on_c, 3, 71, 73
6, 55680, Note_on_c, 3, 78, 77
6, 55710, Note_on_c, 3, 71, 0
6, 55710, Note_on_c, 3, 78, 0
6, 55712, Note_on_c, 3, 73, 77
6, 55712, Note_on_c, 3, 80, 74
6, 55742, Note_on_c, 3, 73, 0
6, 55742, Note_on_c, 3, 80, 0
6, 55744, Note_on_c, 3, 76, 78
6, 55744, Note_on_c, 3, 83, 76
6, 55774, Note_on_c, 3, 76, 0
6, 55774, Note_on_c, 3, 83, 0
6, 55776, Note_on_c, 3, 78, 83
6, 55776, Note_on_c, 3, 85, 82
6, 55806, Note_on_c, 3, 78, 0
6, 55806, Note_on_c, 3, 85, 0
6, 55808, Note_on_c, 3, 76, 82
6, 55808, Note_on_c, 3, 83, 80
6, 55838, Note_on_c, 3, 76, 0
6, 55838, Note_on_c, 3, 83, 0
6, 55840, Note_on_c, 3, 73, 87
6, 55840, Note_on_c, 3, 80, 87
6, 55870, Note_on_c, 3, 73, 0
6, 55870, Note_on_c, 3, 80, 0
6, 55872, Note_on_c, 3, 71, 82
6, 55872, Note_on_c, 3, 78, 91
6, 55902, Note_on_c, 3, 71, 0
6, 55902, Note_on_c, 3, 78, 0
6, 55904, Note_on_c, 3, 73, 93
6, 55904, Note_on_c, 3, 80, 85
6, 55934, Note_on_c, 3, 73, 0
6, 55934, Note_on_c, 3, 80, 0
6, 55936, Note_on_c, 3, 76, 90
6, 55936, Note_on_c, 3, 83, 93
6, 55966, Note_on_c, 3, 76, 0
6, 55966, Note_on_c, 3, 83, 0
6, 55968, Note_on_c, 3, 78, 49
6, 55968, Note_on_c, 3, 85, 41
6, 55998, Note_on_c, 3, 78, 0
6, 55998, Note_on_c, 3, 85, 0
6, 56000, Note_on_c, 3, 76, 48
6, 56000, Note_on_c, 3, 83, 42
6, 56030, Note_on_c, 3, 76, 0
6, 56030, Note_on_c, 3, 83, 0
6, 56032, Note_on_c, 3, 73, 44
6, 56032, Note_on_c, 3, 80, 50
6, 56062, Note_on_c, 3, 73, 0
6, 56062, Note_on_c, 3, 80, 0
6, 56064, Note_on_c, 3, 71, 49
6, 56064, Note_on_c, 3, 78, 48
6, 56094, Note_on_c, 3, 71, 0
6, 56094, Note_on_c, 3, 78, 0
6, 56096, Note_on_c, 3, 73, 52
6, 56096, Note_on_c, 3, 80, 50
6, 56126, Note_on_c, 3, 73, 0
6, 56126, Note_on_c, 3, 80, 0
6, 56128, Note_on_c, 3, 76, 57
6, 56128, Note_on_c, 3, 83, 64
6, 56158, Note_on_c, 3, 76, 0
6, 56158, Note_on_c, 3, 83, 0
6, 56160, Note_on_c, 3, 78, 61
6, 56160, Note_on_c, 3, 85, 65
6, 56190, Note_on_c, 3, 78, 0
6, 56190, Note_on_c, 3, 85, 0
6, 56192, Note_on_c, 3, 76, 70
6, 56192, Note_on_c, 3, 83, 64
6, 56222, Note_on_c, 3, 76, 0
6, 56222, Note_on_c, 3, 83, 0
6, 56224, Note_on_c, 3, 73, 68
6, 56224, Note_on_c, 3, 80, 74
6, 56254, Note_on_c, 3, 73, 0
6, 56254, Note_on_c, 3, 80, 0
6, 56256, Note_on_c, 3, 71, 71
6, 56256, Note_on_c, 3, 78, 73
6, 56286, Note_on_c, 3, 71, 0
6, 56286, Note_on_c, 3, 78, 0
6, 56288, Note_on_c, 3, 73, 78
6, 56288, Note_on_c, 3, 80, 72
6, 56318, Note_on_c, 3, 73, 0
6, 56318, Note_on_c, 3, 80, 0
6, 56320, Note_on_c, 3, 76, 75
6, 56320, Note_on_c, 3, 83, 81
6, 56350, Note_on_c, 3, 76, 0
6, 56350, Note_on_c, 3, 83, 0
6, 56352, Note_on_c, 3, 78, 83
6, 56352, Note_on_c, 3, 85, 79
6, 56382, Note_on_c, 3, 78, 0
6, 56382, Note_on_c, 3, 85, 0
6, 56384, Note_on_c, 3, 76, 79
6, 56384, Note_on_c, 3, 83, 83
6, 56414, Note_on_c, 3, 76, 0
6, 56414, Note_on_c, 3, 83, 0
6, 56416, Note_on_c, 3, 73, 87
6, 56416, Note_on_c, 3, 80, 88
6, 56446, Note_on_c, 3, 73, 0
6, 56446, Note_on_c, 3, 80, 0
6, 56448, Note_on_c, 3, 71, 82
6, 56448, Note_on_c, 3, 78, 83
6, 56478, Note_on_c, 3, 71, 0
6, 56478, Note_on_c, 3, 78, 0
6, 56480, Note_on_c, 3, 73, 93
6, 56480, Note_on_c, 3, 80, 92
6, 56510, Note_on_c, 3, 73, 0
6, 56510, Note_on_c, 3, 80, 0
6, 56512, Note_on_c, 3, 76, 87
6, 56512, Note_on_c, 3, 83, 93
6, 56542, Note_on_c, 3, 76, 0
6, 56542, Note_on_c, 3, 83, 0
6, 56544, Control_c, 3, 11, 92
6, 56544, Note_on_c, 3, 66, 96
6, 56544, Note_on_c, 3, 73, 94
6, 56545, Control_c, 3, 11, 93
6, 56546, Control_c, 3, 11, 94
6, 56548, Control_c, 3, 11, 95
6, 56549, Control_c, 3, 11, 96
6, 56550, Control_c, 3, 11, 97
6, 56552, Control_c, 3, 11, 98
6, 56553, Control_c, 3, 11, 99
6, 56554, Control_c, 3, 11, 100
6, 56556, Control_c, 3, 11, 101
6, 56557, Control_c, 3, 11, 102
6, 56559, Control_c, 3, 11, 103
6, 56560, Control_c, 3, 11, 104
6, 56561, Control_c, 3, 11, 105
6, 56563, Control_c, 3, 11, 106
6, 56564, Control_c, 3, 11, 107
6, 56565, Control_c, 3, 11, 108
6, 56566, Note_on_c, 3, 66, 0
6, 56566, Note_on_c, 3, 73, 0
6, 56567, Control_c, 3, 11, 109
6, 56568, Control_c, 3, 11, 110
6, 56568, Note_on_c, 3, 66, 92
6, 56568, Note_on_c, 3, 73, 88
6, 56570, Control_c, 3, 11, 111
6, 56571, Control_c, 3, 11, 112
6, 56572, Control_c, 3, 11, 113
6, 56574, Control_c, 3, 11, 114
6, 56575, Control_c, 3, 11, 115
6, 56576, Control_c, 3, 11, 116
6, 56578, Control_c, 3, 11, 117
6, 56579, Control_c, 3, 11, 118
6, 56581, Control_c, 3, 11, 119
6, 56582, Control_c, 3, 11, 120
6, 56583, Control_c, 3, 11, 121
6, 56585, Control_c, 3, 11, 122
6, 56586, Control_c, 3, 11, 123
6, 56587, Control_c, 3, 11, 124
6, 56589, Control_c, 3, 11, 125
6, 56590, Control_c, 3, 11, 126
6, 56592, Control_c, 3, 11, 127
6, 56593, Control_c, 3, 11, 126
6, 56594, Control_c, 3, 11, 125
6, 56596, Control_c, 3, 11, 124
6, 56597, Control_c, 3, 11, 123
6, 56598, Control_c, 3, 11, 122
6, 56600, Control_c, 3, 11, 121
6, 56601, Control_c, 3, 11, 120
6, 56602, Control_c, 3, 11, 119
6, 56604, Control_c, 3, 11, 118
6, 56605, Control_c, 3, 11, 117
6, 56607, Control_c, 3, 11, 116
6, 56608, Control_c, 3, 11, 115
6, 56609, Control_c, 3, 11, 114
6, 56611, Control_c, 3, 11, 113
6, 56612, Control_c, 3, 11, 112
6, 56613, Control_c, 3, 11, 111
6, 56615, Control_c, 3, 11, 110
6, 56616, Control_c, 3, 11, 109
6, 56618, Control_c, 3, 11, 108
6, 56619, Control_c, 3, 11, 107
6, 56620, Control_c, 3, 11, 106
6, 56622, Control_c, 3, 11, 105
6, 56623, Control_c, 3, 11, 104
6, 56624, Control_c, 3, 11, 103
6, 56626, Control_c, 3, 11, 102
6, 56627, Control_c, 3, 11, 101
6, 56629, Control_c, 3, 11, 100
6, 56630, Control_c, 3, 11, 99
6, 56631, Control_c, 3, 11, 98
6, 56633, Control_c, 3, 11, 97
6, 56634, Control_c, 3, 11, 96
6, 56635, Control_c, 3, 11, 95
6, 56637, Control_c, 3, 11, 94
6, 56638, Control_c, 3, 11, 93
6, 56640, Control_c, 3, 11, 92
6, 56734, Note_on_c, 3, 66, 0
6, 56734, Note_on_c, 3, 73, 0
6, 56736, Control_c, 3, 11, 92
6, 56736, Note_on_c, 3, 64, 90
6, 56736, Note_on_c, 3, 71, 91
6, 56737, Control_c, 3, 11, 93
6, 56738, Control_c, 3, 11, 94
6, 56740, Control_c, 3, 11, 95
6, 56741, Control_c, 3, 11, 96
6, 56742, Control_c, 3, 11, 97
6, 56744, Control_c, 3, 11, 98
6, 56745, Control_c, 3, 11, 99
6, 56746, Control_c, 3, 11, 100
6, 56748, Control_c, 3, 11, 101
6, 56749, Control_c, 3, 11, 102
6, 56751, Control_c, 3, 11, 103
6, 56752, Control_c, 3, 11, 104
6, 56753, Control_c, 3, 11, 105
6, 56755, Control_c, 3, 11, 106
6, 56756, Control_c, 3, 11, 107
6, 56757, Control_c, 3, 11, 108
6, 56758, Note_on_c, 3, 64, 0
6, 56758, Note_on_c, 3, 71, 0
6, 56759, Control_c, 3, 11, 109
6, 56760, Control_c, 3, 11, 110
6, 56760, Note_on_c, 3, 64, 92
6, 56760, Note_on_c, 3, 71, 92
6, 56762, Control_c, 3, 11, 111
6, 56763, Control_c, 3, 11, 112
6, 56764, Control_c, 3, 11, 113
6, 56766, Control_c, 3, 11, 114
6, 56767, Control_c, 3, 11, 115
6, 56768, Control_c, 3, 11, 116
6, 56770, Control_c, 3, 11, 117
6, 56771, Control_c, 3, 11, 118
6, 56773, Control_c, 3, 11, 119
6, 56774, Control_c, 3, 11, 120
6, 56775, Control_c, 3, 11, 121
6, 56777, Control_c, 3, 11, 122
6, 56778, Control_c, 3, 11, 123
6, 56779, Control_c, 3, 11, 124
6, 56781, Control_c, 3, 11, 125
6, 56782, Control_c, 3, 11, 126
6, 56784, Control_c, 3, 11, 127
6, 56785, Control_c, 3, 11, 126
6, 56786, Control_c, 3, 11, 125
6, 56788, Control_c, 3, 11, 124
6, 56789, Control_c, 3, 11, 123
6, 56790, Control_c, 3, 11, 122
6, 56792, Control_c, 3, 11, 121
6, 56793, Control_c, 3, 11, 120
6, 56794, Control_c, 3, 11, 119
6, 56796, Control_c, 3, 11, 118
6, 56797, Control_c, 3, 11, 117
6, 56799, Control_c, 3, 11, 116
6, 56800, Control_c, 3, 11, 115
6, 56801, Control_c, 3, 11, 114
6, 56803, Control_c, 3, 11, 113
6, 56804, Control_c, 3, 11, 112
6, 56805, Control_c, 3, 11, 111
6, 56807, Control_c, 3, 11, 110
6, 56808, Control_c, 3, 11, 109
6, 56810, Control_c, 3, 11, 108
6, 56811, Control_c, 3, 11, 107
6, 56812, Control_c, 3, 11, 106
6, 56814, Control_c, 3, 11, 105
6, 56815, Control_c, 3, 11, 104
6, 56816, Control_c, 3, 11, 103
6, 56818, Control_c, 3, 11, 102
6, 56819, Control_c, 3, 11, 101
6, 56821, Control_c, 3, 11, 100
6, 56822, Control_c, 3, 11, 99
6, 56823, Control_c, 3, 11, 98
6, 56825, Control_c, 3, 11, 97
6, 56826, Control_c, 3, 11, 96
6, 56827, Control_c, 3, 11, 95
6, 56829, Control_c, 3, 11, 94
6, 56830, Control_c, 3, 11, 93
6, 56832, Control_c, 3, 11, 92
6, 56926, Note_on_c, 3, 64, 0
6, 56926, Note_on_c, 3, 71, 0
6, 56928, Control_c, 3, 11, 92
6, 56928, Note_on_c, 3, 61, 91
6, 56928, Note_on_c, 3, 68, 94
6, 56929, Control_c, 3, 11, 93
6, 56930, Control_c, 3, 11, 94
6, 56932, Control_c, 3, 11, 95
6, 56933, Control_c, 3, 11, 96
6, 56934, Control_c, 3, 11, 97
6, 56936, Control_c, 3, 11, 98
6, 56937, Control_c, 3, 11, 99
6, 56938, Control_c, 3, 11, 100
6, 56940, Control_c, 3, 11, 101
6, 56941, Control_c, 3, 11, 102
6, 56943, Control_c, 3, 11, 103
6, 56944, Control_c, 3, 11, 104
6, 56945, Control_c, 3, 11, 105
6, 56947, Control_c, 3, 11, 106
6, 56948, Control_c, 3, 11, 107
6, 56949, Control_c, 3, 11, 108
6, 56950, Note_on_c, 3, 61, 0
6, 56950, Note_on_c, 3, 68, 0
6, 56951, Control_c, 3, 11, 109
6, 56952, Control_c, 3, 11, 110
6, 56952, Note_on_c, 3, 61, 93
6, 56952, Note_on_c, 3, 68, 88
6, 56954, Control_c, 3, 11, 111
6, 56955, Control_c, 3, 11, 112
6, 56956, Control_c, 3, 11, 113
6, 56958, Control_c, 3, 11, 114
6, 56959, Control_c, 3, 11, 115
6, 56960, Control_c, 3, 11, 116
6, 56962, Control_c, 3, 11, 117
6, 56963, Control_c, 3, 11, 118
6, 56965, Control_c, 3, 11, 119
6, 56966, Control_c, 3, 11, 120
6, 56967, Control_c, 3, 11, 121
6, 56969, Control_c, 3, 11, 122
6, 56970, Control_c, 3, 11, 123
6, 56971, Control_c, 3, 11, 124
6, 56973, Control_c, 3, 11, 125
6, 56974, Control_c, 3, 11, 126
6, 56976, Control_c, 3, 11, 127
6, 56977, Control_c, 3, 11, 126
6, 56978, Control_c, 3, 11, 125
6, 56980, Control_c, 3, 11, 124
6, 56981, Control_c, 3, 11, 123
6, 56982, Control_c, 3, 11, 122
6, 56984, Control_c, 3, 11, 121
6, 56985, Control_c, 3, 11, 120
6, 56986, Control_c, 3, 11, 119
6, 56988, Control_c, 3, 11, 118
6, 56989, Control_c, 3, 11, 117
6, 56991, Control_c, 3, 11, 116
6, 56992, Control_c, 3, 11, 115
6, 56993, Control_c, 3, 11, 114
6, 56995, Control_c, 3, 11, 113
6, 56996, Control_c, 3, 11, 112
6, 56997, Control_c, 3, 11, 111
6, 56999, Control_c, 3, 11, 110
6, 57000, Control_c, 3, 11, 109
6, 57002, Control_c, 3, 11, 108
6, 57003, Control_c, 3, 11, 107
6, 57004, Control_c, 3, 11, 106
6, 57006, Control_c, 3, 11, 105
6, 57007, Control_c, 3, 11, 104
6, 57008, Control_c, 3, 11, 103
6, 57010, Control_c, 3, 11, 102
6, 57011, Control_c, 3, 11, 101
6, 57013, Control_c, 3, 11, 100
6, 57014, Control_c, 3, 11, 99
6, 57015, Control_c, 3, 11, 98
6, 57017, Control_c, 3, 11, 97
6, 57018, Control_c, 3, 11, 96
6, 57019, Control_c, 3, 11, 95
6, 57021, Control_c, 3, 11, 94
6, 57022, Control_c, 3, 11, 93
6, 57024, Control_c, 3, 11, 92
6, 57118, Note_on_c, 3, 61, 0
6, 57118, Note_on_c, 3, 68, 0
6, 67296, Control_c, 3, 11, 127
6, 68064, Note_on_c, 3, 62, 44
6, 68256, Note_on_c, 3, 62, 0
6, 68256, Note_on_c, 3, 67, 48
6, 68288, Note_on_c, 3, 67, 0
6, 68352, Note_on_c, 3, 74, 43
6, 68384, Note_on_c, 3, 74, 0
6, 68448, Note_on_c, 3, 62, 45
6, 68640, Note_on_c, 3, 62, 0
6, 68640, Note_on_c, 3, 67, 40
6, 68672, Note_on_c, 3, 67, 0
6, 68736, Note_on_c, 3, 74, 50
6, 68768, Note_on_c, 3, 74, 0
6, 68832, Control_c, 3, 11, 75
6, 68832, Note_on_c, 3, 62, 57
6, 68832, Note_on_c, 3, 66, 60
6, 68837, Control_c, 3, 11, 76
6, 68843, Control_c, 3, 11, 77
6, 68848, Control_c, 3, 11, 78
6, 68854, Control_c, 3, 11, 79
6, 68859, Control_c, 3, 11, 80
6, 68865, Control_c, 3, 11, 81
6, 68870, Control_c, 3, 11, 82
6, 68876, Control_c, 3, 11, 83
6, 68881, Control_c, 3, 11, 84
6, 68887, Control_c, 3, 11, 85
6, 68892, Control_c, 3, 11, 86
6, 68898, Control_c, 3, 11, 87
6, 68904, Control_c, 3, 11, 88
6, 68909, Control_c, 3, 11, 89
6, 68915, Control_c, 3, 11, 90
6, 68920, Control_c, 3, 11, 91
6, 68926, Control_c, 3, 11, 92
6, 68931, Control_c, 3, 11, 93
6, 68937, Control_c, 3, 11, 94
6, 68942, Control_c, 3, 11, 95
6, 68948, Control_c, 3, 11, 96
6, 68953, Control_c, 3, 11, 97
6, 68959, Control_c, 3, 11, 98
6, 68964, Control_c, 3, 11, 99
6, 68970, Control_c, 3, 11, 100
6, 68976, Control_c, 3, 11, 101
6, 68981, Control_c, 3, 11, 102
6, 68987, Control_c, 3, 11, 103
6, 68992, Note_on_c, 3, 62, 0
6, 68992, Note_on_c, 3, 66, 0
6, 68992, Control_c, 3, 11, 104
6, 68998, Control_c, 3, 11, 105
6, 69003, Control_c, 3, 11, 106
6, 69009, Control_c, 3, 11, 107
6, 69014, Control_c, 3, 11, 108
6, 69020, Control_c, 3, 11, 109
6, 69024, Note_on_c, 3, 64, 59
6, 69024, Note_on_c, 3, 68, 57
6, 69025, Control_c, 3, 11, 110
6, 69031, Control_c, 3, 11, 111
6, 69036, Control_c, 3, 11, 112
6, 69042, Control_c, 3, 11, 113
6, 69048, Control_c, 3, 11, 114
6, 69053, Control_c, 3, 11, 115
6, 69059, Control_c, 3, 11, 116
6, 69064, Control_c, 3, 11, 117
6, 69070, Control_c, 3, 11, 118
6, 69075, Control_c, 3, 11, 119
6, 69081, Control_c, 3, 11, 120
6, 69086, Control_c, 3, 11, 121
6, 69092, Control_c, 3, 11, 122
6, 69097, Control_c, 3, 11, 123
6, 69103, Control_c, 3, 11, 124
6, 69108, Control_c, 3, 11, 125
6, 69114, Control_c, 3, 11, 126
6, 69120, Control_c, 3, 11, 127
6, 69184, Note_on_c, 3, 64, 0
6, 69184, Note_on_c, 3, 68, 0
6, 69216, Control_c, 3, 11, 75
6, 69216, Note_on_c, 3, 62, 59
6, 69216, Note_on_c, 3, 66, 60
6, 69221, Control_c, 3, 11, 76
6, 69227, Control_c, 3, 11, 77
6, 69232, Control_c, 3, 11, 78
6, 69238, Control_c, 3, 11, 79
6, 69243, Control_c, 3, 11, 80
6, 69249, Control_c, 3, 11, 81
6, 69254, Control_c, 3, 11, 82
6, 69260, Control_c, 3, 11, 83
6, 69265, Control_c, 3, 11, 84
6, 69271, Control_c, 3, 11, 85
6, 69276, Control_c, 3, 11, 86
6, 69282, Control_c, 3, 11, 87
6, 69288, Control_c, 3, 11, 88
6, 69293, Control_c, 3, 11, 89
6, 69299, Control_c, 3, 11, 90
6, 69304, Control_c, 3, 11, 91
6, 69310, Control_c, 3, 11, 92
6, 69315, Control_c, 3, 11, 93
6, 69321, Control_c, 3, 11, 94
6, 69326, Control_c, 3, 11, 95
6, 69332, Control_c, 3, 11, 96
6, 69337, Control_c, 3, 11, 97
6, 69343, Control_c, 3, 11, 98
6, 69348, Control_c, 3, 11, 99
6, 69354, Control_c, 3, 11, 100
6, 69360, Control_c, 3, 11, 101
6, 69365, Control_c, 3, 11, 102
6, 69371, Control_c, 3, 11, 103
6, 69376, Note_on_c, 3, 62, 0
6, 69376, Note_on_c, 3, 66, 0
6, 69376, Control_c, 3, 11, 104
6, 69382, Control_c, 3, 11, 105
6, 69387, Control_c, 3, 11, 106
6, 69393, Control_c, 3, 11, 107
6, 69398, Control_c, 3, 11, 108
6, 69404, Control_c, 3, 11, 109
6, 69408, Note_on_c, 3, 64, 55
6, 69408, Note_on_c, 3, 68, 61
6, 69409, Control_c, 3, 11, 110
6, 69415, Control_c, 3, 11, 111
6, 69420, Control_c, 3, 11, 112
6, 69426, Control_c, 3, 11, 113
6, 69432, Control_c, 3, 11, 114
6, 69437, Control_c, 3, 11, 115
6, 69443, Control_c, 3, 11, 116
6, 69448, Control_c, 3, 11, 117
6, 69454, Control_c, 3, 11, 118
6, 69459, Control_c, 3, 11, 119
6, 69465, Control_c, 3, 11, 120
6, 69470, Control_c, 3, 11, 121
6, 69476, Control_c, 3, 11, 122
6, 69481, Control_c, 3, 11, 123
6, 69487, Control_c, 3, 11, 124
6, 69492, Control_c, 3, 11, 125
6, 69498, Control_c, 3, 11, 126
6, 69504, Control_c, 3, 11, 127
6, 69568, Note_on_c, 3, 64, 0
6, 69568, Note_on_c, 3, 68, 0
6, 69600, Control_c, 3, 11, 45
6, 69600, Note_on_c, 3, 67, 91
6, 69628, Control_c, 3, 11, 46
6, 69656, Control_c, 3, 11, 47
6, 69684, Control_c, 3, 11, 48
6, 69712, Control_c, 3, 11, 49
6, 69740, Control_c, 3, 11, 50
6, 69760, Note_on_c, 3, 67, 0
6, 69768, Control_c, 3, 11, 51
6, 69792, Note_on_c, 3, 72, 97
6, 69796, Control_c, 3, 11, 52
6, 69824, Note_on_c, 3, 72, 0
6, 69824, Control_c, 3, 11, 53
6, 69852, Control_c, 3, 11, 54
6, 69880, Control_c, 3, 11, 55
6, 69888, Note_on_c, 3, 79, 96
6, 69909, Control_c, 3, 11, 56
6, 69920, Note_on_c, 3, 79, 0
6, 69937, Control_c, 3, 11, 57
6, 69965, Control_c, 3, 11, 58
6, 69984, Note_on_c, 3, 67, 91
6, 69993, Control_c, 3, 11, 59
6, 70021, Control_c, 3, 11, 60
6, 70049, Control_c, 3, 11, 61
6, 70077, Control_c, 3, 11, 62
6, 70105, Control_c, 3, 11, 63
6, 70133, Control_c, 3, 11, 64
6, 70144, Note_on_c, 3, 67, 0
6, 70161, Control_c, 3, 11, 65
6, 70176, Note_on_c, 3, 72, 89
6, 70190, Control_c, 3, 11, 66
6, 70208, Note_on_c, 3, 72, 0
6, 70218, Control_c, 3, 11, 67
6, 70246, Control_c, 3, 11, 68
6, 70272, Note_on_c, 3, 79, 94
6, 70274, Control_c, 3, 11, 69
6, 70302, Control_c, 3, 11, 70
6, 70304, Note_on_c, 3, 79, 0
6, 70330, Control_c, 3, 11, 71
6, 70358, Control_c, 3, 11, 72
6, 70386, Control_c, 3, 11, 73
6, 70414, Control_c, 3, 11, 74
6, 70442, Control_c, 3, 11, 75
6, 70464, Note_on_c, 3, 67, 97
6, 70471, Control_c, 3, 11, 76
6, 70496, Note_on_c, 3, 67, 0
6, 70499, Control_c, 3, 11, 77
6, 70527, Control_c, 3, 11, 78
6, 70555, Control_c, 3, 11, 79
6, 70560, Note_on_c, 3, 72, 96
6, 70583, Control_c, 3, 11, 80
6, 70592, Note_on_c, 3, 72, 0
6, 70611, Control_c, 3, 11, 81
6, 70639, Control_c, 3, 11, 82
6, 70656, Note_on_c, 3, 79, 91
6, 70667, Control_c, 3, 11, 83
6, 70688, Note_on_c, 3, 79, 0
6, 70695, Control_c, 3, 11, 84
6, 70723, Control_c, 3, 11, 85
6, 70751, Control_c, 3, 11, 86
6, 70752, Note_on_c, 3, 67, 87
6, 70780, Control_c, 3, 11, 87
6, 70784, Note_on_c, 3, 67, 0
6, 70808, Control_c, 3, 11, 88
6, 70836, Control_c, 3, 11, 89
6, 70848, Note_on_c, 3, 72, 93
6, 70864, Control_c, 3, 11, 90
6, 70880, Note_on_c, 3, 72, 0
6, 70892, Control_c, 3, 11, 91
6, 70920, Control_c, 3, 11, 92
6, 70944, Note_on_c, 3, 79, 93
6, 70948, Control_c, 3, 11, 93
6, 70976, Note_on_c, 3, 79, 0
6, 70976, Control_c, 3, 11, 94
6, 71004, Control_c, 3, 11, 95
6, 71032, Control_c, 3, 11, 96
6, 71040, Note_on_c, 3, 67, 88
6, 71061, Control_c, 3, 11, 97
6, 71072, Note_on_c, 3, 67, 0
6, 71089, Control_c, 3, 11, 98
6, 71117, Control_c, 3, 11, 99
6, 71136, Note_on_c, 3, 72, 95
6, 71145, Control_c, 3, 11, 100
6, 71168, Note_on_c, 3, 72, 0
6, 71173, Control_c, 3, 11, 101
6, 71201, Control_c, 3, 11, 102
6, 71229, Control_c, 3, 11, 103
6, 71232, Note_on_c, 3, 79, 95
6, 71257, Control_c, 3, 11, 104
6, 71264, Note_on_c, 3, 79, 0
6, 71285, Control_c, 3, 11, 105
6, 71313, Control_c, 3, 11, 106
6, 71328, Note_on_c, 3, 67, 90
6, 71342, Control_c, 3, 11, 107
6, 71360, Note_on_c, 3, 67, 0
6, 71370, Control_c, 3, 11, 108
6, 71398, Control_c, 3, 11, 109
6, 71424, Note_on_c, 3, 72, 90
6, 71426, Control_c, 3, 11, 110
6, 71454, Control_c, 3, 11, 111
6, 71456, Note_on_c, 3, 72, 0
6, 71482, Control_c, 3, 11, 112
6, 71510, Control_c, 3, 11, 113
6, 71520, Note_on_c, 3, 79, 89
6, 71538, Control_c, 3, 11, 114
6, 71552, Note_on_c, 3, 79, 0
6, 71566, Control_c, 3, 11, 115
6, 71594, Control_c, 3, 11, 116
6, 71616, Note_on_c, 3, 67, 96
6, 71623, Control_c, 3, 11, 117
6, 71648, Note_on_c, 3, 67, 0
6, 71651, Control_c, 3, 11, 118
6, 71679, Control_c, 3, 11, 119
6, 71707, Control_c, 3, 11, 120
6, 71712, Note_on_c, 3, 72, 87
6, 71735, Control_c, 3, 11, 121
6, 71744, Note_on_c, 3, 72, 0
6, 71763, Control_c, 3, 11, 122
6, 71791, Control_c, 3, 11, 123
6, 71808, Note_on_c, 3, 79, 97
6, 71819, Control_c, 3, 11, 124
6, 71840, Note_on_c, 3, 79, 0
6, 71847, Control_c, 3, 11, 125
6, 71875, Control_c, 3, 11, 126
6, 71904, Control_c, 3, 11, 127
6, 71904, Control_c, 3, 7, 92
6, 71904, Control_c, 3, 11, 92
6, 71904, Note_on_c, 3, 65, 110
6, 71904, Note_on_c, 3, 70, 105
6, 71909, Control_c, 3, 11, 93
6, 71914, Control_c, 3, 11, 94
6, 71920, Control_c, 3, 11, 95
6, 71925, Control_c, 3, 11, 96
6, 71926, Note_on_c, 3, 65, 0
6, 71926, Note_on_c, 3, 70, 0
6, 71928, Note_on_c, 3, 67, 113
6, 71928, Note_on_c, 3, 72, 109
6, 71931, Control_c, 3, 11, 97
6, 71936, Control_c, 3, 11, 98
6, 71942, Control_c, 3, 11, 99
6, 71947, Control_c, 3, 11, 100
6, 71953, Control_c, 3, 11, 101
6, 71958, Control_c, 3, 11, 102
6, 71964, Control_c, 3, 11, 103
6, 71969, Control_c, 3, 11, 104
6, 71975, Control_c, 3, 11, 105
6, 71980, Control_c, 3, 11, 106
6, 71986, Control_c, 3, 11, 107
6, 71991, Control_c, 3, 11, 108
6, 71997, Control_c, 3, 11, 109
6, 72002, Control_c, 3, 11, 110
6, 72008, Control_c, 3, 11, 111
6, 72013, Control_c, 3, 11, 112
6, 72019, Control_c, 3, 11, 113
6, 72024, Control_c, 3, 11, 114
6, 72030, Control_c, 3, 11, 115
6, 72035, Control_c, 3, 11, 116
6, 72041, Control_c, 3, 11, 117
6, 72046, Control_c, 3, 11, 118
6, 72052, Control_c, 3, 11, 119
6, 72057, Control_c, 3, 11, 120
6, 72063, Control_c, 3, 11, 121
6, 72068, Control_c, 3, 11, 122
6, 72074, Control_c, 3, 11, 123
6, 72079, Control_c, 3, 11, 124
6, 72085, Control_c, 3, 11, 125
6, 72090, Control_c, 3, 11, 126
6, 72094, Note_on_c, 3, 67, 0
6, 72094, Note_on_c, 3, 72, 0
6, 72096, Control_c, 3, 11, 127
6, 72096, Note_on_c, 3, 72, 110
6, 72096, Note_on_c, 3, 79, 113
6, 72432, Note_on_c, 3, 72, 0
6, 72432, Note_on_c, 3, 79, 0
6, 72480, Control_c, 3, 11, 92
6, 72480, Note_on_c, 3, 70, 103
6, 72480, Note_on_c, 3, 77, 107
6, 72490, Control_c, 3, 11, 93
6, 72501, Control_c, 3, 11, 94
6, 72512, Control_c, 3, 11, 95
6, 72523, Control_c, 3, 11, 96
6, 72534, Control_c, 3, 11, 97
6, 72542, Note_on_c, 3, 70, 0
6, 72542, Note_on_c, 3, 77, 0
6, 72544, Note_on_c, 3, 72, 105
6, 72544, Note_on_c, 3, 79, 105
6, 72545, Control_c, 3, 11, 98
6, 72556, Control_c, 3, 11, 99
6, 72567, Control_c, 3, 11, 100
6, 72578, Control_c, 3, 11, 101
6, 72589, Control_c, 3, 11, 102
6, 72600, Control_c, 3, 11, 103
6, 72611, Control_c, 3, 11, 104
6, 72622, Control_c, 3, 11, 105
6, 72633, Control_c, 3, 11, 106
6, 72638, Note_on_c, 3, 72, 0
6, 72638, Note_on_c, 3, 79, 0
6, 72640, Note_on_c, 3, 67, 110
6, 72640, Note_on_c, 3, 72, 103
6, 72644, Control_c, 3, 11, 107
6, 72655, Control_c, 3, 11, 108
6, 72666, Control_c, 3, 11, 109
6, 72670, Note_on_c, 3, 67, 0
6, 72670, Note_on_c, 3, 72, 0
6, 72672, Note_on_c, 3, 70, 110
6, 72672, Note_on_c, 3, 77, 109
6, 72677, Control_c, 3, 11, 110
6, 72688, Control_c, 3, 11, 111
6, 72699, Control_c, 3, 11, 112
6, 72710, Control_c, 3, 11, 113
6, 72721, Control_c, 3, 11, 114
6, 72732, Control_c, 3, 11, 115
6, 72734, Note_on_c, 3, 70, 0
6, 72734, Note_on_c, 3, 77, 0
6, 72736, Note_on_c, 3, 70, 103
6, 72743, Control_c, 3, 11, 116
6, 72754, Control_c, 3, 11, 117
6, 72765, Control_c, 3, 11, 118
6, 72776, Control_c, 3, 11, 119
6, 72787, Control_c, 3, 11, 120
6, 72798, Note_on_c, 3, 70, 0
6, 72798, Control_c, 3, 11, 121
6, 72800, Note_on_c, 3, 74, 103
6, 72809, Control_c, 3, 11, 122
6, 72820, Control_c, 3, 11, 123
6, 72831, Control_c, 3, 11, 124
6, 72842, Control_c, 3, 11, 125
6, 72853, Control_c, 3, 11, 126
6, 72862, Note_on_c, 3, 74, 0
6, 72864, Control_c, 3, 11, 127
6, 72864, Note_on_c, 3, 67, 105
6, 72926, Note_on_c, 3, 67, 0
6, 72928, Note_on_c, 3, 70, 109
6, 73022, Note_on_c, 3, 70, 0
6, 73024, Note_on_c, 3, 65, 105
6, 73054, Note_on_c, 3, 65, 0
6, 73056, Control_c, 3, 11, 127
6, 73056, Note_on_c, 3, 67, 103
6, 73059, Control_c, 3, 11, 126
6, 73062, Control_c, 3, 11, 125
6, 73065, Control_c, 3, 11, 124
6, 73068, Control_c, 3, 11, 123
6, 73071, Control_c, 3, 11, 122
6, 73074, Control_c, 3, 11, 121
6, 73077, Control_c, 3, 11, 120
6, 73080, Control_c, 3, 11, 119
6, 73083, Control_c, 3, 11, 118
6, 73086, Control_c, 3, 11, 117
6, 73089, Control_c, 3, 11, 116
6, 73092, Control_c, 3, 11, 115
6, 73095, Control_c, 3, 11, 114
6, 73098, Control_c, 3, 11, 113
6, 73101, Control_c, 3, 11, 112
6, 73104, Control_c, 3, 11, 111
6, 73107, Control_c, 3, 11, 110
6, 73110, Control_c, 3, 11, 109
6, 73113, Control_c, 3, 11, 108
6, 73116, Control_c, 3, 11, 107
6, 73120, Control_c, 3, 11, 106
6, 73123, Control_c, 3, 11, 105
6, 73126, Control_c, 3, 11, 104
6, 73129, Control_c, 3, 11, 103
6, 73132, Control_c, 3, 11, 102
6, 73135, Control_c, 3, 11, 101
6, 73138, Control_c, 3, 11, 100
6, 73141, Control_c, 3, 11, 99
6, 73144, Control_c, 3, 11, 98
6, 73147, Control_c, 3, 11, 97
6, 73150, Control_c, 3, 11, 96
6, 73153, Control_c, 3, 11, 95
6, 73156, Control_c, 3, 11, 94
6, 73159, Control_c, 3, 11, 93
6, 73162, Control_c, 3, 11, 92
6, 73165, Control_c, 3, 11, 91
6, 73168, Control_c, 3, 11, 90
6, 73171, Control_c, 3, 11, 89
6, 73174, Control_c, 3, 11, 88
6, 73177, Control_c, 3, 11, 87
6, 73180, Control_c, 3, 11, 86
6, 73184, Control_c, 3, 11, 85
6, 73187, Control_c, 3, 11, 84
6, 73190, Control_c, 3, 11, 83
6, 73193, Control_c, 3, 11, 82
6, 73196, Control_c, 3, 11, 81
6, 73199, Control_c, 3, 11, 80
6, 73202, Control_c, 3, 11, 79
6, 73205, Control_c, 3, 11, 78
6, 73208, Control_c, 3, 11, 77
6, 73211, Control_c, 3, 11, 76
6, 73214, Control_c, 3, 11, 75
6, 73217, Control_c, 3, 11, 74
6, 73220, Control_c, 3, 11, 73
6, 73223, Control_c, 3, 11, 72
6, 73226, Control_c, 3, 11, 71
6, 73229, Control_c, 3, 11, 70
6, 73232, Control_c, 3, 11, 69
6, 73235, Control_c, 3, 11, 68
6, 73238, Control_c, 3, 11, 67
6, 73241, Control_c, 3, 11, 66
6, 73244, Control_c, 3, 11, 65
6, 73248, Control_c, 3, 11, 64
6, 73254, Control_c, 3, 11, 65
6, 73261, Control_c, 3, 11, 66
6, 73268, Control_c, 3, 11, 67
6, 73275, Control_c, 3, 11, 68
6, 73282, Control_c, 3, 11, 69
6, 73289, Control_c, 3, 11, 70
6, 73296, Control_c, 3, 11, 71
6, 73302, Control_c, 3, 11, 72
6, 73309, Control_c, 3, 11, 73
6, 73310, Note_on_c, 3, 67, 0
6, 73312, Note_on_c, 3, 63, 103
6, 73312, Note_on_c, 3, 69, 108
6, 73316, Control_c, 3, 11, 74
6, 73323, Control_c, 3, 11, 75
6, 73330, Control_c, 3, 11, 76
6, 73337, Control_c, 3, 11, 77
6, 73344, Control_c, 3, 11, 78
6, 73350, Control_c, 3, 11, 79
6, 73357, Control_c, 3, 11, 80
6, 73364, Control_c, 3, 11, 81
6, 73371, Control_c, 3, 11, 82
6, 73374, Note_on_c, 3, 63, 0
6, 73374, Note_on_c, 3, 69, 0
6, 73376, Note_on_c, 3, 65, 104
6, 73376, Note_on_c, 3, 72, 112
6, 73378, Control_c, 3, 11, 83
6, 73385, Control_c, 3, 11, 84
6, 73392, Control_c, 3, 11, 85
6, 73398, Control_c, 3, 11, 86
6, 73405, Control_c, 3, 11, 87
6, 73412, Control_c, 3, 11, 88
6, 73419, Control_c, 3, 11, 89
6, 73426, Control_c, 3, 11, 90
6, 73433, Control_c, 3, 11, 91
6, 73438, Note_on_c, 3, 65, 0
6, 73438, Note_on_c, 3, 72, 0
6, 73440, Control_c, 3, 11, 92
6, 73440, Note_on_c, 3, 69, 108
6, 73534, Note_on_c, 3, 69, 0
6, 73536, Note_on_c, 3, 67, 111
6, 73536, Note_on_c, 3, 72, 112
6, 73630, Note_on_c, 3, 67, 0
6, 73630, Note_on_c, 3, 72, 0
6, 73632, Note_on_c, 3, 69, 109
6, 73632, Note_on_c, 3, 75, 111
6, 73726, Note_on_c, 3, 69, 0
6, 73726, Note_on_c, 3, 75, 0
6, 73728, Note_on_c, 3, 72, 103
6, 73728, Note_on_c, 3, 79, 113
6, 73822, Note_on_c, 3, 72, 0
6, 73822, Note_on_c, 3, 79, 0
6, 73824, Note_on_c, 3, 69, 104
6, 73824, Note_on_c, 3, 75, 112
6, 73918, Note_on_c, 3, 69, 0
6, 73918, Note_on_c, 3, 75, 0
6, 73920, Note_on_c, 3, 72, 105
6, 73920, Note_on_c, 3, 79, 107
6, 74014, Note_on_c, 3, 72, 0
6, 74014, Note_on_c, 3, 79, 0
6, 74016, Control_c, 3, 11, 75
6, 74016, Note_on_c, 3, 69, 93
6, 74021, Control_c, 3, 11, 76
6, 74027, Control_c, 3, 11, 77
6, 74032, Control_c, 3, 11, 78
6, 74038, Control_c, 3, 11, 79
6, 74043, Control_c, 3, 11, 80
6, 74049, Control_c, 3, 11, 81
6, 74054, Control_c, 3, 11, 82
6, 74060, Control_c, 3, 11, 83
6, 74065, Control_c, 3, 11, 84
6, 74071, Control_c, 3, 11, 85
6, 74076, Control_c, 3, 11, 86
6, 74082, Control_c, 3, 11, 87
6, 74088, Control_c, 3, 11, 88
6, 74093, Control_c, 3, 11, 89
6, 74099, Control_c, 3, 11, 90
6, 74104, Control_c, 3, 11, 91
6, 74110, Note_on_c, 3, 69, 0
6, 74110, Control_c, 3, 11, 92
6, 74112, Note_on_c, 3, 67, 95
6, 74115, Control_c, 3, 11, 93
6, 74121, Control_c, 3, 11, 94
6, 74126, Control_c, 3, 11, 95
6, 74132, Control_c, 3, 11, 96
6, 74137, Control_c, 3, 11, 97
6, 74143, Control_c, 3, 11, 98
6, 74148, Control_c, 3, 11, 99
6, 74154, Control_c, 3, 11, 100
6, 74160, Control_c, 3, 11, 101
6, 74165, Control_c, 3, 11, 102
6, 74171, Control_c, 3, 11, 103
6, 74176, Control_c, 3, 11, 104
6, 74182, Control_c, 3, 11, 105
6, 74187, Control_c, 3, 11, 106
6, 74193, Control_c, 3, 11, 107
6, 74198, Control_c, 3, 11, 108
6, 74204, Control_c, 3, 11, 109
6, 74206, Note_on_c, 3, 67, 0
6, 74208, Note_on_c, 3, 69, 91
6, 74209, Control_c, 3, 11, 110
6, 74215, Control_c, 3, 11, 111
6, 74220, Control_c, 3, 11, 112
6, 74226, Control_c, 3, 11, 113
6, 74232, Control_c, 3, 11, 114
6, 74237, Control_c, 3, 11, 115
6, 74243, Control_c, 3, 11, 116
6, 74248, Control_c, 3, 11, 117
6, 74254, Control_c, 3, 11, 118
6, 74259, Control_c, 3, 11, 119
6, 74265, Control_c, 3, 11, 120
6, 74270, Control_c, 3, 11, 121
6, 74276, Control_c, 3, 11, 122
6, 74281, Control_c, 3, 11, 123
6, 74287, Control_c, 3, 11, 124
6, 74292, Control_c, 3, 11, 125
6, 74298, Control_c, 3, 11, 126
6, 74302, Note_on_c, 3, 69, 0
6, 74304, Control_c, 3, 11, 127
6, 74304, Note_on_c, 3, 67, 88
6, 74336, Note_on_c, 3, 67, 0
6, 74592, Control_c, 3, 11, 75
6, 74592, Note_on_c, 3, 69, 87
6, 74597, Control_c, 3, 11, 76
6, 74603, Control_c, 3, 11, 77
6, 74608, Control_c, 3, 11, 78
6, 74614, Control_c, 3, 11, 79
6, 74619, Control_c, 3, 11, 80
6, 74625, Control_c, 3, 11, 81
6, 74630, Control_c, 3, 11, 82
6, 74636, Control_c, 3, 11, 83
6, 74641, Control_c, 3, 11, 84
6, 74647, Control_c, 3, 11, 85
6, 74652, Control_c, 3, 11, 86
6, 74658, Control_c, 3, 11, 87
6, 74664, Control_c, 3, 11, 88
6, 74669, Control_c, 3, 11, 89
6, 74675, Control_c, 3, 11, 90
6, 74680, Control_c, 3, 11, 91
6, 74686, Note_on_c, 3, 69, 0
6, 74686, Control_c, 3, 11, 92
6, 74688, Note_on_c, 3, 67, 89
6, 74691, Control_c, 3, 11, 93
6, 74697, Control_c, 3, 11, 94
6, 74702, Control_c, 3, 11, 95
6, 74708, Control_c, 3, 11, 96
6, 74713, Control_c, 3, 11, 97
6, 74719, Control_c, 3, 11, 98
6, 74724, Control_c, 3, 11, 99
6, 74730, Control_c, 3, 11, 100
6, 74736, Control_c, 3, 11, 101
6, 74741, Control_c, 3, 11, 102
6, 74747, Control_c, 3, 11, 103
6, 74752, Control_c, 3, 11, 104
6, 74758, Control_c, 3, 11, 105
6, 74763, Control_c, 3, 11, 106
6, 74769, Control_c, 3, 11, 107
6, 74774, Control_c, 3, 11, 108
6, 74780, Control_c, 3, 11, 109
6, 74782, Note_on_c, 3, 67, 0
6, 74784, Note_on_c, 3, 69, 95
6, 74785, Control_c, 3, 11, 110
6, 74791, Control_c, 3, 11, 111
6, 74796, Control_c, 3, 11, 112
6, 74802, Control_c, 3, 11, 113
6, 74808, Control_c, 3, 11, 114
6, 74813, Control_c, 3, 11, 115
6, 74819, Control_c, 3, 11, 116
6, 74824, Control_c, 3, 11, 117
6, 74830, Control_c, 3, 11, 118
6, 74835, Control_c, 3, 11, 119
6, 74841, Control_c, 3, 11, 120
6, 74846, Control_c, 3, 11, 121
6, 74852, Control_c, 3, 11, 122
6, 74857, Control_c, 3, 11, 123
6, 74863, Control_c, 3, 11, 124
6, 74868, Control_c, 3, 11, 125
6, 74874, Control_c, 3, 11, 126
6, 74878, Note_on_c, 3, 69, 0
6, 74880, Control_c, 3, 11, 127
6, 74880, Note_on_c, 3, 67, 88
6, 74912, Note_on_c, 3, 67, 0
6, 75168, Control_c, 3, 11, 75
6, 75168, Note_on_c, 3, 72, 92
6, 75173, Control_c, 3, 11, 76
6, 75179, Control_c, 3, 11, 77
6, 75184, Control_c, 3, 11, 78
6, 75190, Control_c, 3, 11, 79
6, 75195, Control_c, 3, 11, 80
6, 75201, Control_c, 3, 11, 81
6, 75206, Control_c, 3, 11, 82
6, 75212, Control_c, 3, 11, 83
6, 75217, Control_c, 3, 11, 84
6, 75223, Control_c, 3, 11, 85
6, 75228, Control_c, 3, 11, 86
6, 75234, Control_c, 3, 11, 87
6, 75240, Control_c, 3, 11, 88
6, 75245, Control_c, 3, 11, 89
6, 75251, Control_c, 3, 11, 90
6, 75256, Control_c, 3, 11, 91
6, 75262, Note_on_c, 3, 72, 0
6, 75262, Control_c, 3, 11, 92
6, 75264, Note_on_c, 3, 70, 90
6, 75267, Control_c, 3, 11, 93
6, 75273, Control_c, 3, 11, 94
6, 75278, Control_c, 3, 11, 95
6, 75284, Control_c, 3, 11, 96
6, 75289, Control_c, 3, 11, 97
6, 75295, Control_c, 3, 11, 98
6, 75300, Control_c, 3, 11, 99
6, 75306, Control_c, 3, 11, 100
6, 75312, Control_c, 3, 11, 101
6, 75317, Control_c, 3, 11, 102
6, 75323, Control_c, 3, 11, 103
6, 75328, Control_c, 3, 11, 104
6, 75334, Control_c, 3, 11, 105
6, 75339, Control_c, 3, 11, 106
6, 75345, Control_c, 3, 11, 107
6, 75350, Control_c, 3, 11, 108
6, 75356, Control_c, 3, 11, 109
6, 75358, Note_on_c, 3, 70, 0
6, 75360, Note_on_c, 3, 72, 92
6, 75361, Control_c, 3, 11, 110
6, 75367, Control_c, 3, 11, 111
6, 75372, Control_c, 3, 11, 112
6, 75378, Control_c, 3, 11, 113
6, 75384, Control_c, 3, 11, 114
6, 75389, Control_c, 3, 11, 115
6, 75395, Control_c, 3, 11, 116
6, 75400, Control_c, 3, 11, 117
6, 75406, Control_c, 3, 11, 118
6, 75411, Control_c, 3, 11, 119
6, 75417, Control_c, 3, 11, 120
6, 75422, Control_c, 3, 11, 121
6, 75428, Control_c, 3, 11, 122
6, 75433, Control_c, 3, 11, 123
6, 75439, Control_c, 3, 11, 124
6, 75444, Control_c, 3, 11, 125
6, 75450, Control_c, 3, 11, 126
6, 75454, Note_on_c, 3, 72, 0
6, 75456, Control_c, 3, 11, 127
6, 75456, Note_on_c, 3, 70, 87
6, 75488, Note_on_c, 3, 70, 0
6, 75744, Control_c, 3, 11, 75
6, 75744, Note_on_c, 3, 72, 90
6, 75749, Control_c, 3, 11, 76
6, 75755, Control_c, 3, 11, 77
6, 75760, Control_c, 3, 11, 78
6, 75766, Control_c, 3, 11, 79
6, 75771, Control_c, 3, 11, 80
6, 75777, Control_c, 3, 11, 81
6, 75782, Control_c, 3, 11, 82
6, 75788, Control_c, 3, 11, 83
6, 75793, Control_c, 3, 11, 84
6, 75799, Control_c, 3, 11, 85
6, 75804, Control_c, 3, 11, 86
6, 75810, Control_c, 3, 11, 87
6, 75816, Control_c, 3, 11, 88
6, 75821, Control_c, 3, 11, 89
6, 75827, Control_c, 3, 11, 90
6, 75832, Control_c, 3, 11, 91
6, 75838, Note_on_c, 3, 72, 0
6, 75838, Control_c, 3, 11, 92
6, 75840, Note_on_c, 3, 70, 92
6, 75843, Control_c, 3, 11, 93
6, 75849, Control_c, 3, 11, 94
6, 75854, Control_c, 3, 11, 95
6, 75860, Control_c, 3, 11, 96
6, 75865, Control_c, 3, 11, 97
6, 75871, Control_c, 3, 11, 98
6, 75876, Control_c, 3, 11, 99
6, 75882, Control_c, 3, 11, 100
6, 75888, Control_c, 3, 11, 101
6, 75893, Control_c, 3, 11, 102
6, 75899, Control_c, 3, 11, 103
6, 75904, Control_c, 3, 11, 104
6, 75910, Control_c, 3, 11, 105
6, 75915, Control_c, 3, 11, 106
6, 75921, Control_c, 3, 11, 107
6, 75926, Control_c, 3, 11, 108
6, 75932, Control_c, 3, 11, 109
6, 75934, Note_on_c, 3, 70, 0
6, 75936, Note_on_c, 3, 72, 90
6, 75937, Control_c, 3, 11, 110
6, 75943, Control_c, 3, 11, 111
6, 75948, Control_c, 3, 11, 112
6, 75954, Control_c, 3, 11, 113
6, 75960, Control_c, 3, 11, 114
6, 75965, Control_c, 3, 11, 115
6, 75971, Control_c, 3, 11, 116
6, 75976, Control_c, 3, 11, 117
6, 75982, Control_c, 3, 11, 118
6, 75987, Control_c, 3, 11, 119
6, 75993, Control_c, 3, 11, 120
6, 75998, Control_c, 3, 11, 121
6, 76004, Control_c, 3, 11, 122
6, 76009, Control_c, 3, 11, 123
6, 76015, Control_c, 3, 11, 124
6, 76020, Control_c, 3, 11, 125
6, 76026, Control_c, 3, 11, 126
6, 76030, Note_on_c, 3, 72, 0
6, 76032, Control_c, 3, 11, 127
6, 76032, Note_on_c, 3, 70, 89
6, 76064, Note_on_c, 3, 70, 0
6, 76512, Control_c, 3, 11, 92
6, 76512, Note_on_c, 3, 69, 96
6, 76517, Control_c, 3, 11, 93
6, 76522, Control_c, 3, 11, 94
6, 76528, Control_c, 3, 11, 95
6, 76533, Control_c, 3, 11, 96
6, 76539, Control_c, 3, 11, 97
6, 76544, Control_c, 3, 11, 98
6, 76550, Control_c, 3, 11, 99
6, 76555, Control_c, 3, 11, 100
6, 76561, Control_c, 3, 11, 101
6, 76566, Control_c, 3, 11, 102
6, 76572, Control_c, 3, 11, 103
6, 76577, Control_c, 3, 11, 104
6, 76583, Control_c, 3, 11, 105
6, 76588, Control_c, 3, 11, 106
6, 76594, Control_c, 3, 11, 107
6, 76599, Control_c, 3, 11, 108
6, 76605, Control_c, 3, 11, 109
6, 76606, Note_on_c, 3, 69, 0
6, 76608, Note_on_c, 3, 67, 89
6, 76610, Control_c, 3, 11, 110
6, 76616, Control_c, 3, 11, 111
6, 76621, Control_c, 3, 11, 112
6, 76627, Control_c, 3, 11, 113
6, 76632, Control_c, 3, 11, 114
6, 76638, Control_c, 3, 11, 115
6, 76643, Control_c, 3, 11, 116
6, 76649, Control_c, 3, 11, 117
6, 76654, Control_c, 3, 11, 118
6, 76660, Control_c, 3, 11, 119
6, 76665, Control_c, 3, 11, 120
6, 76671, Control_c, 3, 11, 121
6, 76676, Control_c, 3, 11, 122
6, 76678, Note_on_c, 3, 67, 0
6, 76680, Note_on_c, 3, 63, 93
6, 76682, Control_c, 3, 11, 123
6, 76687, Control_c, 3, 11, 124
6, 76693, Control_c, 3, 11, 125
6, 76698, Control_c, 3, 11, 126
6, 76702, Note_on_c, 3, 63, 0
6, 76704, Control_c, 3, 11, 127
6, 76704, Note_on_c, 3, 64, 89
6, 76798, Note_on_c, 3, 64, 0
6, 77088, Control_c, 3, 11, 92
6, 77088, Note_on_c, 3, 69, 88
6, 77093, Control_c, 3, 11, 93
6, 77098, Control_c, 3, 11, 94
6, 77104, Control_c, 3, 11, 95
6, 77109, Control_c, 3, 11, 96
6, 77115, Control_c, 3, 11, 97
6, 77120, Control_c, 3, 11, 98
6, 77126, Control_c, 3, 11, 99
6, 77131, Control_c, 3, 11, 100
6, 77137, Control_c, 3, 11, 101
6, 77142, Control_c, 3, 11, 102
6, 77148, Control_c, 3, 11, 103
6, 77153, Control_c, 3, 11, 104
6, 77159, Control_c, 3, 11, 105
6, 77164, Control_c, 3, 11, 106
6, 77170, Control_c, 3, 11, 107
6, 77175, Control_c, 3, 11, 108
6, 77181, Control_c, 3, 11, 109
6, 77182, Note_on_c, 3, 69, 0
6, 77184, Note_on_c, 3, 67, 89
6, 77186, Control_c, 3, 11, 110
6, 77192, Control_c, 3, 11, 111
6, 77197, Control_c, 3, 11, 112
6, 77203, Control_c, 3, 11, 113
6, 77208, Control_c, 3, 11, 114
6, 77214, Control_c, 3, 11, 115
6, 77219, Control_c, 3, 11, 116
6, 77225, Control_c, 3, 11, 117
6, 77230, Control_c, 3, 11, 118
6, 77236, Control_c, 3, 11, 119
6, 77241, Control_c, 3, 11, 120
6, 77247, Control_c, 3, 11, 121
6, 77252, Control_c, 3, 11, 122
6, 77254, Note_on_c, 3, 67, 0
6, 77256, Note_on_c, 3, 63, 96
6, 77258, Control_c, 3, 11, 123
6, 77263, Control_c, 3, 11, 124
6, 77269, Control_c, 3, 11, 125
6, 77274, Control_c, 3, 11, 126
6, 77278, Note_on_c, 3, 63, 0
6, 77280, Control_c, 3, 11, 127
6, 77280, Note_on_c, 3, 64, 94
6, 77374, Note_on_c, 3, 64, 0
6, 77664, Control_c, 3, 11, 92
6, 77664, Note_on_c, 3, 72, 93
6, 77669, Control_c, 3, 11, 93
6, 77674, Control_c, 3, 11, 94
6, 77680, Control_c, 3, 11, 95
6, 77685, Control_c, 3, 11, 96
6, 77691, Control_c, 3, 11, 97
6, 77696, Control_c, 3, 11, 98
6, 77702, Control_c, 3, 11, 99
6, 77707, Control_c, 3, 11, 100
6, 77713, Control_c, 3, 11, 101
6, 77718, Control_c, 3, 11, 102
6, 77724, Control_c, 3, 11, 103
6, 77729, Control_c, 3, 11, 104
6, 77735, Control_c, 3, 11, 105
6, 77740, Control_c, 3, 11, 106
6, 77746, Control_c, 3, 11, 107
6, 77751, Control_c, 3, 11, 108
6, 77757, Control_c, 3, 11, 109
6, 77758, Note_on_c, 3, 72, 0
6, 77760, Note_on_c, 3, 70, 96
6, 77762, Control_c, 3, 11, 110
6, 77768, Control_c, 3, 11, 111
6, 77773, Control_c, 3, 11, 112
6, 77779, Control_c, 3, 11, 113
6, 77784, Control_c, 3, 11, 114
6, 77790, Control_c, 3, 11, 115
6, 77795, Control_c, 3, 11, 116
6, 77801, Control_c, 3, 11, 117
6, 77806, Control_c, 3, 11, 118
6, 77812, Control_c, 3, 11, 119
6, 77817, Control_c, 3, 11, 120
6, 77823, Control_c, 3, 11, 121
6, 77828, Control_c, 3, 11, 122
6, 77830, Note_on_c, 3, 70, 0
6, 77832, Note_on_c, 3, 67, 92
6, 77834, Control_c, 3, 11, 123
6, 77839, Control_c, 3, 11, 124
6, 77845, Control_c, 3, 11, 125
6, 77850, Control_c, 3, 11, 126
6, 77854, Note_on_c, 3, 67, 0
6, 77856, Control_c, 3, 11, 127
6, 77856, Note_on_c, 3, 69, 96
6, 77950, Note_on_c, 3, 69, 0
6, 78240, Control_c, 3, 11, 92
6, 78240, Note_on_c, 3, 72, 95
6, 78245, Control_c, 3, 11, 93
6, 78250, Control_c, 3, 11, 94
6, 78256, Control_c, 3, 11, 95
6, 78261, Control_c, 3, 11, 96
6, 78267, Control_c, 3, 11, 97
6, 78272, Control_c, 3, 11, 98
6, 78278, Control_c, 3, 11, 99
6, 78283, Control_c, 3, 11, 100
6, 78289, Control_c, 3, 11, 101
6, 78294, Control_c, 3, 11, 102
6, 78300, Control_c, 3, 11, 103
6, 78305, Control_c, 3, 11, 104
6, 78311, Control_c, 3, 11, 105
6, 78316, Control_c, 3, 11, 106
6, 78322, Control_c, 3, 11, 107
6, 78327, Control_c, 3, 11, 108
6, 78333, Control_c, 3, 11, 109
6, 78334, Note_on_c, 3, 72, 0
6, 78336, Note_on_c, 3, 70, 88
6, 78338, Control_c, 3, 11, 110
6, 78344, Control_c, 3, 11, 111
6, 78349, Control_c, 3, 11, 112
6, 78355, Control_c, 3, 11, 113
6, 78360, Control_c, 3, 11, 114
6, 78366, Control_c, 3, 11, 115
6, 78371, Control_c, 3, 11, 116
6, 78377, Control_c, 3, 11, 117
6, 78382, Control_c, 3, 11, 118
6, 78388, Control_c, 3, 11, 119
6, 78393, Control_c, 3, 11, 120
6, 78399, Control_c, 3, 11, 121
6, 78404, Control_c, 3, 11, 122
6, 78406, Note_on_c, 3, 70, 0
6, 78408, Note_on_c, 3, 67, 90
6, 78410, Control_c, 3, 11, 123
6, 78415, Control_c, 3, 11, 124
6, 78421, Control_c, 3, 11, 125
6, 78426, Control_c, 3, 11, 126
6, 78430, Note_on_c, 3, 67, 0
6, 78432, Control_c, 3, 11, 127
6, 78432, Note_on_c, 3, 69, 94
6, 78526, Note_on_c, 3, 69, 0
6, 78624, Note_on_c, 3, 65, 90
6, 78670, Note_on_c, 3, 65, 0
6, 78672, Note_on_c, 3, 67, 93
6, 78880, Note_on_c, 3, 67, 0
6, 78912, Control_c, 3, 11, 92
6, 78912, Note_on_c, 3, 72, 127
6, 78912, Note_on_c, 3, 79, 127
6, 78928, Control_c, 3, 11, 93
6, 78944, Control_c, 3, 11, 94
6, 78961, Control_c, 3, 11, 95
6, 78977, Control_c, 3, 11, 96
6, 78994, Control_c, 3, 11, 97
6, 79010, Control_c, 3, 11, 98
6, 79027, Control_c, 3, 11, 99
6, 79043, Control_c, 3, 11, 100
6, 79060, Control_c, 3, 11, 101
6, 79076, Control_c, 3, 11, 102
6, 79093, Control_c, 3, 11, 103
6, 79109, Control_c, 3, 11, 104
6, 79125, Control_c, 3, 11, 105
6, 79142, Control_c, 3, 11, 106
6, 79158, Control_c, 3, 11, 107
6, 79175, Control_c, 3, 11, 108
6, 79191, Control_c, 3, 11, 109
6, 79208, Control_c, 3, 11, 110
6, 79224, Control_c, 3, 11, 111
6, 79241, Control_c, 3, 11, 112
6, 79257, Control_c, 3, 11, 113
6, 79274, Control_c, 3, 11, 114
6, 79290, Control_c, 3, 11, 115
6, 79306, Control_c, 3, 11, 116
6, 79323, Control_c, 3, 11, 117
6, 79339, Control_c, 3, 11, 118
6, 79356, Control_c, 3, 11, 119
6, 79372, Control_c, 3, 11, 120
6, 79389, Control_c, 3, 11, 121
6, 79405, Control_c, 3, 11, 122
6, 79422, Control_c, 3, 11, 123
6, 79438, Control_c, 3, 11, 124
6, 79440, Note_on_c, 3, 72, 0
6, 79440, Note_on_c, 3, 79, 0
6, 79455, Control_c, 3, 11, 125
6, 79471, Control_c, 3, 11, 126
6, 79488, Control_c, 3, 11, 127
6, 79488, Note_on_c, 3, 77, 125
6, 79582, Note_on_c, 3, 77, 0
6, 79584, Note_on_c, 3, 79, 127
6, 79726, Note_on_c, 3, 79, 0
6, 79728, Note_on_c, 3, 72, 124
6, 79774, Note_on_c, 3, 72, 0
6, 79776, Control_c, 3, 11, 127
6, 79776, Note_on_c, 3, 77, 127
6, 79794, Control_c, 3, 11, 126
6, 79812, Control_c, 3, 11, 125
6, 79830, Control_c, 3, 11, 124
6, 79849, Control_c, 3, 11, 123
6, 79867, Control_c, 3, 11, 122
6, 79885, Control_c, 3, 11, 121
6, 79904, Control_c, 3, 11, 120
6, 79918, Note_on_c, 3, 77, 0
6, 79920, Note_on_c, 3, 72, 126
6, 79922, Control_c, 3, 11, 119
6, 79940, Control_c, 3, 11, 118
6, 79958, Control_c, 3, 11, 117
6, 79977, Control_c, 3, 11, 116
6, 79995, Control_c, 3, 11, 115
6, 80013, Control_c, 3, 11, 114
6, 80032, Control_c, 3, 11, 113
6, 80050, Control_c, 3, 11, 112
6, 80068, Control_c, 3, 11, 111
6, 80086, Control_c, 3, 11, 110
6, 80105, Control_c, 3, 11, 109
6, 80123, Control_c, 3, 11, 108
6, 80141, Control_c, 3, 11, 107
6, 80160, Control_c, 3, 11, 106
6, 80178, Control_c, 3, 11, 105
6, 80196, Control_c, 3, 11, 104
6, 80214, Control_c, 3, 11, 103
6, 80233, Control_c, 3, 11, 102
6, 80251, Control_c, 3, 11, 101
6, 80269, Control_c, 3, 11, 100
6, 80288, Control_c, 3, 11, 99
6, 80306, Control_c, 3, 11, 98
6, 80324, Control_c, 3, 11, 97
6, 80342, Control_c, 3, 11, 96
6, 80361, Control_c, 3, 11, 95
6, 80379, Control_c, 3, 11, 94
6, 80397, Control_c, 3, 11, 93
6, 80416, Control_c, 3, 11, 92
6, 80434, Control_c, 3, 11, 91
6, 80452, Control_c, 3, 11, 90
6, 80470, Control_c, 3, 11, 89
6, 80489, Control_c, 3, 11, 88
6, 80507, Control_c, 3, 11, 87
6, 80525, Control_c, 3, 11, 86
6, 80544, Control_c, 3, 11, 85
6, 80562, Control_c, 3, 11, 84
6, 80580, Control_c, 3, 11, 83
6, 80598, Control_c, 3, 11, 82
6, 80617, Control_c, 3, 11, 81
6, 80635, Control_c, 3, 11, 80
6, 80653, Control_c, 3, 11, 79
6, 80672, Control_c, 3, 11, 78
6, 80690, Control_c, 3, 11, 77
6, 80708, Control_c, 3, 11, 76
6, 80726, Control_c, 3, 11, 75
6, 80745, Control_c, 3, 11, 74
6, 80763, Control_c, 3, 11, 73
6, 80781, Control_c, 3, 11, 72
6, 80800, Control_c, 3, 11, 71
6, 80818, Control_c, 3, 11, 70
6, 80836, Control_c, 3, 11, 69
6, 80854, Control_c, 3, 11, 68
6, 80873, Control_c, 3, 11, 67
6, 80891, Control_c, 3, 11, 66
6, 80896, Note_on_c, 3, 72, 0
6, 80909, Control_c, 3, 11, 65
6, 80928, Control_c, 3, 11, 64
6, 80928, Control_c, 3, 11, 127
6, 80928, Note_on_c, 3, 65, 90
6, 80974, Note_on_c, 3, 65, 0
6, 80976, Note_on_c, 3, 67, 96
6, 81184, Note_on_c, 3, 67, 0
6, 81216, Note_on_c, 3, 72, 89
6, 81216, Note_on_c, 3, 79, 87
6, 82048, Note_on_c, 3, 72, 0
6, 82048, Note_on_c, 3, 79, 0
6, 82080, Note_on_c, 3, 58, 95
6, 82080, Note_on_c, 3, 70, 87
6, 82126, Note_on_c, 3, 58, 0
6, 82126, Note_on_c, 3, 70, 0
6, 82128, Note_on_c, 3, 60, 95
6, 82128, Note_on_c, 3, 72, 97
6, 82336, Note_on_c, 3, 60, 0
6, 82336, Note_on_c, 3, 72, 0
6, 82368, Note_on_c, 3, 72, 91
6, 82368, Note_on_c, 3, 79, 90
6, 83200, Note_on_c, 3, 72, 0
6, 83200, Note_on_c, 3, 79, 0
6, 83232, Control_c, 3, 7, 127
6, 84960, Control_c, 3, 11, 127
6, 86112, Note_on_c, 3, 56, 29
6, 86112, Note_on_c, 3, 58, 33
6, 88368, Note_on_c, 3, 56, 0
6, 88368, Note_on_c, 3, 58, 0
6, 88416, Note_on_c, 3, 55, 25
6, 88416, Note_on_c, 3, 58, 32
6, 88992, Note_on_c, 3, 55, 0
6, 88992, Note_on_c, 3, 53, 35
6, 89520, Note_on_c, 3, 58, 0
6, 89520, Note_on_c, 3, 53, 0
6, 90432, Control_c, 3, 11, 127
6, 90432, Note_on_c, 3, 58, 40
6, 90432, Note_on_c, 3, 70, 45
6, 90434, Control_c, 3, 11, 126
6, 90437, Control_c, 3, 11, 125
6, 90440, Control_c, 3, 11, 124
6, 90442, Control_c, 3, 11, 123
6, 90445, Control_c, 3, 11, 122
6, 90448, Control_c, 3, 11, 121
6, 90451, Control_c, 3, 11, 120
6, 90453, Control_c, 3, 11, 119
6, 90456, Control_c, 3, 11, 118
6, 90459, Control_c, 3, 11, 117
6, 90462, Control_c, 3, 11, 116
6, 90464, Control_c, 3, 11, 115
6, 90467, Control_c, 3, 11, 114
6, 90470, Control_c, 3, 11, 113
6, 90473, Control_c, 3, 11, 112
6, 90475, Control_c, 3, 11, 111
6, 90478, Control_c, 3, 11, 110
6, 90481, Control_c, 3, 11, 109
6, 90484, Control_c, 3, 11, 108
6, 90486, Control_c, 3, 11, 107
6, 90489, Control_c, 3, 11, 106
6, 90492, Control_c, 3, 11, 105
6, 90495, Control_c, 3, 11, 104
6, 90497, Control_c, 3, 11, 103
6, 90500, Control_c, 3, 11, 102
6, 90503, Control_c, 3, 11, 101
6, 90506, Control_c, 3, 11, 100
6, 90508, Control_c, 3, 11, 99
6, 90511, Control_c, 3, 11, 98
6, 90514, Control_c, 3, 11, 97
6, 90517, Control_c, 3, 11, 96
6, 90519, Control_c, 3, 11, 95
6, 90522, Control_c, 3, 11, 94
6, 90525, Control_c, 3, 11, 93
6, 90528, Note_on_c, 3, 58, 0
6, 90528, Note_on_c, 3, 70, 0
6, 90528, Control_c, 3, 11, 92
6, 90528, Note_on_c, 3, 56, 45
6, 90528, Note_on_c, 3, 68, 50
6, 90688, Note_on_c, 3, 56, 0
6, 90688, Note_on_c, 3, 68, 0
6, 90816, Control_c, 3, 11, 127
6, 90816, Note_on_c, 3, 58, 35
6, 90816, Note_on_c, 3, 70, 43
6, 90821, Control_c, 3, 11, 126
6, 90826, Control_c, 3, 11, 125
6, 90832, Control_c, 3, 11, 124
6, 90837, Control_c, 3, 11, 123
6, 90843, Control_c, 3, 11, 122
6, 90848, Control_c, 3, 11, 121
6, 90854, Control_c, 3, 11, 120
6, 90859, Control_c, 3, 11, 119
6, 90865, Control_c, 3, 11, 118
6, 90870, Control_c, 3, 11, 117
6, 90876, Control_c, 3, 11, 116
6, 90881, Control_c, 3, 11, 115
6, 90887, Control_c, 3, 11, 114
6, 90892, Control_c, 3, 11, 113
6, 90898, Control_c, 3, 11, 112
6, 90903, Control_c, 3, 11, 111
6, 90909, Control_c, 3, 11, 110
6, 90912, Note_on_c, 3, 58, 0
6, 90912, Note_on_c, 3, 70, 0
6, 90912, Note_on_c, 3, 56, 41
6, 90912, Note_on_c, 3, 68, 40
6, 90914, Control_c, 3, 11, 109
6, 90920, Control_c, 3, 11, 108
6, 90925, Control_c, 3, 11, 107
6, 90931, Control_c, 3, 11, 106
6, 90936, Control_c, 3, 11, 105
6, 90942, Control_c, 3, 11, 104
6, 90947, Control_c, 3, 11, 103
6, 90953, Control_c, 3, 11, 102
6, 90958, Control_c, 3, 11, 101
6, 90964, Control_c, 3, 11, 100
6, 90969, Control_c, 3, 11, 99
6, 90975, Control_c, 3, 11, 98
6, 90980, Control_c, 3, 11, 97
6, 90986, Control_c, 3, 11, 96
6, 90991, Control_c, 3, 11, 95
6, 90997, Control_c, 3, 11, 94
6, 91002, Control_c, 3, 11, 93
6, 91008, Note_on_c, 3, 56, 0
6, 91008, Note_on_c, 3, 68, 0
6, 91008, Control_c, 3, 11, 92
6, 91008, Note_on_c, 3, 54, 36
6, 91008, Note_on_c, 3, 66, 42
6, 91102, Note_on_c, 3, 54, 0
6, 91102, Note_on_c, 3, 66, 0
6, 92736, Control_c, 3, 11, 127
6, 92736, Note_on_c, 3, 58, 41
6, 92736, Note_on_c, 3, 70, 47
6, 92738, Control_c, 3, 11, 126
6, 92741, Control_c, 3, 11, 125
6, 92744, Control_c, 3, 11, 124
6, 92746, Control_c, 3, 11, 123
6, 92749, Control_c, 3, 11, 122
6, 92752, Control_c, 3, 11, 121
6, 92755, Control_c, 3, 11, 120
6, 92757, Control_c, 3, 11, 119
6, 92760, Control_c, 3, 11, 118
6, 92763, Control_c, 3, 11, 117
6, 92766, Control_c, 3, 11, 116
6, 92768, Control_c, 3, 11, 115
6, 92771, Control_c, 3, 11, 114
6, 92774, Control_c, 3, 11, 113
6, 92777, Control_c, 3, 11, 112
6, 92779, Control_c, 3, 11, 111
6, 92782, Control_c, 3, 11, 110
6, 92785, Control_c, 3, 11, 109
6, 92788, Control_c, 3, 11, 108
6, 92790, Control_c, 3, 11, 107
6, 92793, Control_c, 3, 11, 106
6, 92796, Control_c, 3, 11, 105
6, 92799, Control_c, 3, 11, 104
6, 92801, Control_c, 3, 11, 103
6, 92804, Control_c, 3, 11, 102
6, 92807, Control_c, 3, 11, 101
6, 92810, Control_c, 3, 11, 100
6, 92812, Control_c, 3, 11, 99
6, 92815, Control_c, 3, 11, 98
6, 92818, Control_c, 3, 11, 97
6, 92821, Control_c, 3, 11, 96
6, 92823, Control_c, 3, 11, 95
6, 92826, Control_c, 3, 11, 94
6, 92829, Control_c, 3, 11, 93
6, 92832, Note_on_c, 3, 58, 0
6, 92832, Note_on_c, 3, 70, 0
6, 92832, Control_c, 3, 11, 92
6, 92832, Note_on_c, 3, 56, 49
6, 92832, Note_on_c, 3, 68, 44
6, 92992, Note_on_c, 3, 56, 0
6, 92992, Note_on_c, 3, 68, 0
6, 93120, Control_c, 3, 11, 127
6, 93120, Note_on_c, 3, 58, 41
6, 93120, Note_on_c, 3, 70, 33
6, 93125, Control_c, 3, 11, 126
6, 93130, Control_c, 3, 11, 125
6, 93136, Control_c, 3, 11, 124
6, 93141, Control_c, 3, 11, 123
6, 93147, Control_c, 3, 11, 122
6, 93152, Control_c, 3, 11, 121
6, 93158, Control_c, 3, 11, 120
6, 93163, Control_c, 3, 11, 119
6, 93169, Control_c, 3, 11, 118
6, 93174, Control_c, 3, 11, 117
6, 93180, Control_c, 3, 11, 116
6, 93185, Control_c, 3, 11, 115
6, 93191, Control_c, 3, 11, 114
6, 93196, Control_c, 3, 11, 113
6, 93202, Control_c, 3, 11, 112
6, 93207, Control_c, 3, 11, 111
6, 93213, Control_c, 3, 11, 110
6, 93216, Note_on_c, 3, 58, 0
6, 93216, Note_on_c, 3, 70, 0
6, 93216, Note_on_c, 3, 56, 43
6, 93216, Note_on_c, 3, 68, 42
6, 93218, Control_c, 3, 11, 109
6, 93224, Control_c, 3, 11, 108
6, 93229, Control_c, 3, 11, 107
6, 93235, Control_c, 3, 11, 106
6, 93240, Control_c, 3, 11, 105
6, 93246, Control_c, 3, 11, 104
6, 93251, Control_c, 3, 11, 103
6, 93257, Control_c, 3, 11, 102
6, 93262, Control_c, 3, 11, 101
6, 93268, Control_c, 3, 11, 100
6, 93273, Control_c, 3, 11, 99
6, 93279, Control_c, 3, 11, 98
6, 93284, Control_c, 3, 11, 97
6, 93290, Control_c, 3, 11, 96
6, 93295, Control_c, 3, 11, 95
6, 93301, Control_c, 3, 11, 94
6, 93306, Control_c, 3, 11, 93
6, 93312, Note_on_c, 3, 56, 0
6, 93312, Note_on_c, 3, 68, 0
6, 93312, Control_c, 3, 11, 92
6, 93312, Note_on_c, 3, 54, 42
6, 93312, Note_on_c, 3, 66, 33
6, 93406, Note_on_c, 3, 54, 0
6, 93406, Note_on_c, 3, 66, 0
6, 93600, Control_c, 3, 11, 92
6, 94176, Note_on_c, 3, 67, 50
6, 94176, Note_on_c, 3, 73, 44
6, 94560, Note_on_c, 3, 67, 0
6, 94560, Note_on_c, 3, 73, 0
6, 94560, Control_c, 3, 11, 92
6, 94560, Note_on_c, 3, 61, 50
6, 94560, Note_on_c, 3, 67, 41
6, 94570, Control_c, 3, 11, 93
6, 94581, Control_c, 3, 11, 94
6, 94592, Control_c, 3, 11, 95
6, 94603, Control_c, 3, 11, 96
6, 94614, Control_c, 3, 11, 97
6, 94625, Control_c, 3, 11, 98
6, 94636, Control_c, 3, 11, 99
6, 94647, Control_c, 3, 11, 100
6, 94658, Control_c, 3, 11, 101
6, 94669, Control_c, 3, 11, 102
6, 94680, Control_c, 3, 11, 103
6, 94691, Control_c, 3, 11, 104
6, 94702, Control_c, 3, 11, 105
6, 94713, Control_c, 3, 11, 106
6, 94724, Control_c, 3, 11, 107
6, 94735, Control_c, 3, 11, 108
6, 94746, Control_c, 3, 11, 109
6, 94757, Control_c, 3, 11, 110
6, 94768, Control_c, 3, 11, 111
6, 94779, Control_c, 3, 11, 112
6, 94790, Control_c, 3, 11, 113
6, 94801, Control_c, 3, 11, 114
6, 94812, Control_c, 3, 11, 115
6, 94823, Control_c, 3, 11, 116
6, 94834, Control_c, 3, 11, 117
6, 94845, Control_c, 3, 11, 118
6, 94848, Note_on_c, 3, 61, 0
6, 94848, Note_on_c, 3, 67, 0
6, 94848, Note_on_c, 3, 64, 49
6, 94848, Note_on_c, 3, 69, 41
6, 94856, Control_c, 3, 11, 119
6, 94867, Control_c, 3, 11, 120
6, 94878, Control_c, 3, 11, 121
6, 94889, Control_c, 3, 11, 122
6, 94900, Control_c, 3, 11, 123
6, 94911, Control_c, 3, 11, 124
6, 94922, Control_c, 3, 11, 125
6, 94933, Control_c, 3, 11, 126
6, 94942, Note_on_c, 3, 64, 0
6, 94942, Note_on_c, 3, 69, 0
6, 94944, Control_c, 3, 11, 127
6, 94944, Note_on_c, 3, 67, 35
6, 94944, Note_on_c, 3, 73, 35
6, 94965, Control_c, 3, 11, 126
6, 94987, Control_c, 3, 11, 125
6, 95009, Control_c, 3, 11, 124
6, 95031, Control_c, 3, 11, 123
6, 95053, Control_c, 3, 11, 122
6, 95075, Control_c, 3, 11, 121
6, 95097, Control_c, 3, 11, 120
6, 95119, Control_c, 3, 11, 119
6, 95141, Control_c, 3, 11, 118
6, 95163, Control_c, 3, 11, 117
6, 95185, Control_c, 3, 11, 116
6, 95207, Control_c, 3, 11, 115
6, 95229, Control_c, 3, 11, 114
6, 95251, Control_c, 3, 11, 113
6, 95273, Control_c, 3, 11, 112
6, 95295, Control_c, 3, 11, 111
6, 95317, Control_c, 3, 11, 110
6, 95328, Note_on_c, 3, 67, 0
6, 95328, Note_on_c, 3, 73, 0
6, 95328, Note_on_c, 3, 61, 30
6, 95328, Note_on_c, 3, 67, 25
6, 95338, Control_c, 3, 11, 109
6, 95360, Control_c, 3, 11, 108
6, 95382, Control_c, 3, 11, 107
6, 95404, Control_c, 3, 11, 106
6, 95426, Control_c, 3, 11, 105
6, 95448, Control_c, 3, 11, 104
6, 95470, Control_c, 3, 11, 103
6, 95492, Control_c, 3, 11, 102
6, 95514, Control_c, 3, 11, 101
6, 95536, Control_c, 3, 11, 100
6, 95558, Control_c, 3, 11, 99
6, 95580, Control_c, 3, 11, 98
6, 95602, Control_c, 3, 11, 97
6, 95624, Control_c, 3, 11, 96
6, 95646, Control_c, 3, 11, 95
6, 95668, Control_c, 3, 11, 94
6, 95690, Control_c, 3, 11, 93
6, 95712, Control_c, 3, 11, 92
6, 96048, Note_on_c, 3, 61, 0
6, 96048, Note_on_c, 3, 67, 0
6, 109536, Control_c, 3, 7, 92
6, 110304, Control_c, 3, 11, 92
6, 110304, Note_on_c, 3, 70, 100
6, 110314, Control_c, 3, 11, 93
6, 110325, Control_c, 3, 11, 94
6, 110334, Note_on_c, 3, 70, 0
6, 110336, Control_c, 3, 11, 95
6, 110336, Note_on_c, 3, 68, 105
6, 110347, Control_c, 3, 11, 96
6, 110358, Control_c, 3, 11, 97
6, 110366, Note_on_c, 3, 68, 0
6, 110368, Note_on_c, 3, 65, 105
6, 110369, Control_c, 3, 11, 98
6, 110380, Control_c, 3, 11, 99
6, 110391, Control_c, 3, 11, 100
6, 110398, Note_on_c, 3, 65, 0
6, 110400, Note_on_c, 3, 63, 96
6, 110402, Control_c, 3, 11, 101
6, 110413, Control_c, 3, 11, 102
6, 110424, Control_c, 3, 11, 103
6, 110435, Control_c, 3, 11, 104
6, 110446, Control_c, 3, 11, 105
6, 110457, Control_c, 3, 11, 106
6, 110468, Control_c, 3, 11, 107
6, 110479, Control_c, 3, 11, 108
6, 110490, Control_c, 3, 11, 109
6, 110501, Control_c, 3, 11, 110
6, 110512, Control_c, 3, 11, 111
6, 110523, Control_c, 3, 11, 112
6, 110534, Control_c, 3, 11, 113
6, 110545, Control_c, 3, 11, 114
6, 110556, Control_c, 3, 11, 115
6, 110558, Note_on_c, 3, 63, 0
6, 110560, Note_on_c, 3, 65, 104
6, 110567, Control_c, 3, 11, 116
6, 110578, Control_c, 3, 11, 117
6, 110589, Control_c, 3, 11, 118
6, 110600, Control_c, 3, 11, 119
6, 110611, Control_c, 3, 11, 120
6, 110622, Note_on_c, 3, 65, 0
6, 110622, Control_c, 3, 11, 121
6, 110624, Note_on_c, 3, 68, 95
6, 110633, Control_c, 3, 11, 122
6, 110644, Control_c, 3, 11, 123
6, 110655, Control_c, 3, 11, 124
6, 110666, Control_c, 3, 11, 125
6, 110677, Control_c, 3, 11, 126
6, 110686, Note_on_c, 3, 68, 0
6, 110688, Control_c, 3, 11, 127
6, 110688, Note_on_c, 3, 70, 103
6, 110750, Note_on_c, 3, 70, 0
6, 110752, Note_on_c, 3, 68, 105
6, 110814, Note_on_c, 3, 68, 0
6, 110816, Note_on_c, 3, 65, 103
6, 110878, Note_on_c, 3, 65, 0
6, 110880, Note_on_c, 3, 65, 102
6, 110942, Note_on_c, 3, 65, 0
6, 110944, Note_on_c, 3, 68, 104
6, 111006, Note_on_c, 3, 68, 0
6, 111008, Note_on_c, 3, 70, 104
6, 111070, Note_on_c, 3, 70, 0
6, 111072, Control_c, 3, 11, 92
6, 111072, Note_on_c, 3, 70, 102
6, 111093, Control_c, 3, 11, 93
6, 111102, Note_on_c, 3, 70, 0
6, 111104, Note_on_c, 3, 68, 97
6, 111115, Control_c, 3, 11, 94
6, 111134, Note_on_c, 3, 68, 0
6, 111136, Note_on_c, 3, 65, 96
6, 111137, Control_c, 3, 11, 95
6, 111159, Control_c, 3, 11, 96
6, 111166, Note_on_c, 3, 65, 0
6, 111168, Note_on_c, 3, 63, 105
6, 111181, Control_c, 3, 11, 97
6, 111203, Control_c, 3, 11, 98
6, 111225, Control_c, 3, 11, 99
6, 111247, Control_c, 3, 11, 100
6, 111269, Control_c, 3, 11, 101
6, 111291, Control_c, 3, 11, 102
6, 111313, Control_c, 3, 11, 103
6, 111326, Note_on_c, 3, 63, 0
6, 111328, Note_on_c, 3, 65, 102
6, 111335, Control_c, 3, 11, 104
6, 111357, Control_c, 3, 11, 105
6, 111379, Control_c, 3, 11, 106
6, 111390, Note_on_c, 3, 65, 0
6, 111392, Note_on_c, 3, 68, 95
6, 111401, Control_c, 3, 11, 107
6, 111423, Control_c, 3, 11, 108
6, 111445, Control_c, 3, 11, 109
6, 111454, Note_on_c, 3, 68, 0
6, 111456, Note_on_c, 3, 70, 95
6, 111466, Control_c, 3, 11, 110
6, 111488, Control_c, 3, 11, 111
6, 111510, Control_c, 3, 11, 112
6, 111518, Note_on_c, 3, 70, 0
6, 111520, Note_on_c, 3, 68, 103
6, 111532, Control_c, 3, 11, 113
6, 111554, Control_c, 3, 11, 114
6, 111576, Control_c, 3, 11, 115
6, 111582, Note_on_c, 3, 68, 0
6, 111584, Note_on_c, 3, 65, 99
6, 111598, Control_c, 3, 11, 116
6, 111620, Control_c, 3, 11, 117
6, 111642, Control_c, 3, 11, 118
6, 111646, Note_on_c, 3, 65, 0
6, 111648, Note_on_c, 3, 65, 97
6, 111664, Control_c, 3, 11, 119
6, 111686, Control_c, 3, 11, 120
6, 111708, Control_c, 3, 11, 121
6, 111710, Note_on_c, 3, 65, 0
6, 111712, Note_on_c, 3, 68, 99
6, 111730, Control_c, 3, 11, 122
6, 111752, Control_c, 3, 11, 123
6, 111774, Note_on_c, 3, 68, 0
6, 111774, Control_c, 3, 11, 124
6, 111776, Note_on_c, 3, 70, 98
6, 111796, Control_c, 3, 11, 125
6, 111818, Control_c, 3, 11, 126
6, 111838, Note_on_c, 3, 70, 0
6, 111840, Control_c, 3, 11, 127
6, 111840, Control_c, 3, 11, 92
6, 111840, Note_on_c, 3, 70, 127
6, 111850, Control_c, 3, 11, 93
6, 111861, Control_c, 3, 11, 94
6, 111872, Control_c, 3, 11, 95
6, 111883, Control_c, 3, 11, 96
6, 111894, Control_c, 3, 11, 97
6, 111902, Note_on_c, 3, 70, 0
6, 111904, Note_on_c, 3, 68, 125
6, 111905, Control_c, 3, 11, 98
6, 111916, Control_c, 3, 11, 99
6, 111927, Control_c, 3, 11, 100
6, 111938, Control_c, 3, 11, 101
6, 111949, Control_c, 3, 11, 102
6, 111960, Control_c, 3, 11, 103
6, 111966, Note_on_c, 3, 68, 0
6, 111968, Note_on_c, 3, 65, 123
6, 111971, Control_c, 3, 11, 104
6, 111982, Control_c, 3, 11, 105
6, 111993, Control_c, 3, 11, 106
6, 112004, Control_c, 3, 11, 107
6, 112015, Control_c, 3, 11, 108
6, 112026, Control_c, 3, 11, 109
6, 112030, Note_on_c, 3, 65, 0
6, 112032, Note_on_c, 3, 65, 127
6, 112037, Control_c, 3, 11, 110
6, 112048, Control_c, 3, 11, 111
6, 112059, Control_c, 3, 11, 112
6, 112070, Control_c, 3, 11, 113
6, 112081, Control_c, 3, 11, 114
6, 112092, Control_c, 3, 11, 115
6, 112094, Note_on_c, 3, 65, 0
6, 112096, Note_on_c, 3, 68, 127
6, 112103, Control_c, 3, 11, 116
6, 112114, Control_c, 3, 11, 117
6, 112125, Control_c, 3, 11, 118
6, 112136, Control_c, 3, 11, 119
6, 112147, Control_c, 3, 11, 120
6, 112158, Note_on_c, 3, 68, 0
6, 112158, Control_c, 3, 11, 121
6, 112160, Note_on_c, 3, 70, 123
6, 112169, Control_c, 3, 11, 122
6, 112180, Control_c, 3, 11, 123
6, 112191, Control_c, 3, 11, 124
6, 112202, Control_c, 3, 11, 125
6, 112213, Control_c, 3, 11, 126
6, 112222, Note_on_c, 3, 70, 0
6, 112224, Control_c, 3, 11, 127
6, 112224, Control_c, 3, 11, 92
6, 112224, Note_on_c, 3, 70, 123
6, 112234, Control_c, 3, 11, 93
6, 112245, Control_c, 3, 11, 94
6, 112256, Control_c, 3, 11, 95
6, 112267, Control_c, 3, 11, 96
6, 112278, Control_c, 3, 11, 97
6, 112286, Note_on_c, 3, 70, 0
6, 112288, Note_on_c, 3, 68, 127
6, 112289, Control_c, 3, 11, 98
6, 112300, Control_c, 3, 11, 99
6, 112311, Control_c, 3, 11, 100
6, 112322, Control_c, 3, 11, 101
6, 112333, Control_c, 3, 11, 102
6, 112344, Control_c, 3, 11, 103
6, 112350, Note_on_c, 3, 68, 0
6, 112352, Note_on_c, 3, 65, 127
6, 112355, Control_c, 3, 11, 104
6, 112366, Control_c, 3, 11, 105
6, 112377, Control_c, 3, 11, 106
6, 112388, Control_c, 3, 11, 107
6, 112399, Control_c, 3, 11, 108
6, 112410, Control_c, 3, 11, 109
6, 112414, Note_on_c, 3, 65, 0
6, 112416, Note_on_c, 3, 65, 127
6, 112421, Control_c, 3, 11, 110
6, 112432, Control_c, 3, 11, 111
6, 112443, Control_c, 3, 11, 112
6, 112454, Control_c, 3, 11, 113
6, 112465, Control_c, 3, 11, 114
6, 112476, Control_c, 3, 11, 115
6, 112478, Note_on_c, 3, 65, 0
6, 112480, Note_on_c, 3, 68, 127
6, 112487, Control_c, 3, 11, 116
6, 112498, Control_c, 3, 11, 117
6, 112509, Control_c, 3, 11, 118
6, 112520, Control_c, 3, 11, 119
6, 112531, Control_c, 3, 11, 120
6, 112542, Note_on_c, 3, 68, 0
6, 112542, Control_c, 3, 11, 121
6, 112544, Note_on_c, 3, 70, 123
6, 112553, Control_c, 3, 11, 122
6, 112564, Control_c, 3, 11, 123
6, 112575, Control_c, 3, 11, 124
6, 112586, Control_c, 3, 11, 125
6, 112597, Control_c, 3, 11, 126
6, 112606, Note_on_c, 3, 70, 0
6, 112608, Control_c, 3, 11, 127
6, 112608, Control_c, 3, 11, 92
6, 112608, Note_on_c, 3, 72, 127
6, 112608, Note_on_c, 3, 76, 127
6, 112618, Control_c, 3, 11, 93
6, 112629, Control_c, 3, 11, 94
6, 112640, Control_c, 3, 11, 95
6, 112651, Control_c, 3, 11, 96
6, 112654, Note_on_c, 3, 72, 0
6, 112654, Note_on_c, 3, 76, 0
6, 112656, Note_on_c, 3, 73, 127
6, 112656, Note_on_c, 3, 77, 122
6, 112662, Control_c, 3, 11, 97
6, 112673, Control_c, 3, 11, 98
6, 112684, Control_c, 3, 11, 99
6, 112695, Control_c, 3, 11, 100
6, 112706, Control_c, 3, 11, 101
6, 112717, Control_c, 3, 11, 102
6, 112728, Control_c, 3, 11, 103
6, 112739, Control_c, 3, 11, 104
6, 112750, Control_c, 3, 11, 105
6, 112761, Control_c, 3, 11, 106
6, 112772, Control_c, 3, 11, 107
6, 112783, Control_c, 3, 11, 108
6, 112794, Control_c, 3, 11, 109
6, 112805, Control_c, 3, 11, 110
6, 112816, Control_c, 3, 11, 111
6, 112827, Control_c, 3, 11, 112
6, 112838, Control_c, 3, 11, 113
6, 112849, Control_c, 3, 11, 114
6, 112860, Control_c, 3, 11, 115
6, 112864, Note_on_c, 3, 73, 0
6, 112864, Note_on_c, 3, 77, 0
6, 112871, Control_c, 3, 11, 116
6, 112882, Control_c, 3, 11, 117
6, 112893, Control_c, 3, 11, 118
6, 112896, Note_on_c, 3, 76, 127
6, 112896, Note_on_c, 3, 79, 127
6, 112904, Control_c, 3, 11, 119
6, 112915, Control_c, 3, 11, 120
6, 112926, Control_c, 3, 11, 121
6, 112937, Control_c, 3, 11, 122
6, 112948, Control_c, 3, 11, 123
6, 112959, Control_c, 3, 11, 124
6, 112970, Control_c, 3, 11, 125
6, 112981, Control_c, 3, 11, 126
6, 112990, Note_on_c, 3, 76, 0
6, 112990, Note_on_c, 3, 79, 0
6, 112992, Control_c, 3, 11, 127
6, 112992, Control_c, 3, 11, 75
6, 112992, Note_on_c, 3, 75, 127
6, 112992, Note_on_c, 3, 82, 127
6, 112993, Control_c, 3, 11, 76
6, 112995, Control_c, 3, 11, 77
6, 112997, Control_c, 3, 11, 78
6, 112999, Control_c, 3, 11, 79
6, 113001, Control_c, 3, 11, 80
6, 113003, Control_c, 3, 11, 81
6, 113004, Control_c, 3, 11, 82
6, 113006, Control_c, 3, 11, 83
6, 113008, Control_c, 3, 11, 84
6, 113010, Control_c, 3, 11, 85
6, 113012, Control_c, 3, 11, 86
6, 113014, Control_c, 3, 11, 87
6, 113016, Control_c, 3, 11, 88
6, 113017, Control_c, 3, 11, 89
6, 113019, Control_c, 3, 11, 90
6, 113021, Control_c, 3, 11, 91
6, 113023, Control_c, 3, 11, 92
6, 113025, Control_c, 3, 11, 93
6, 113027, Control_c, 3, 11, 94
6, 113028, Control_c, 3, 11, 95
6, 113030, Control_c, 3, 11, 96
6, 113032, Control_c, 3, 11, 97
6, 113034, Control_c, 3, 11, 98
6, 113036, Control_c, 3, 11, 99
6, 113038, Control_c, 3, 11, 100
6, 113040, Control_c, 3, 11, 101
6, 113041, Control_c, 3, 11, 102
6, 113043, Control_c, 3, 11, 103
6, 113045, Control_c, 3, 11, 104
6, 113047, Control_c, 3, 11, 105
6, 113049, Control_c, 3, 11, 106
6, 113051, Control_c, 3, 11, 107
6, 113052, Control_c, 3, 11, 108
6, 113054, Control_c, 3, 11, 109
6, 113056, Control_c, 3, 11, 110
6, 113058, Control_c, 3, 11, 111
6, 113060, Control_c, 3, 11, 112
6, 113062, Control_c, 3, 11, 113
6, 113064, Control_c, 3, 11, 114
6, 113065, Control_c, 3, 11, 115
6, 113067, Control_c, 3, 11, 116
6, 113069, Control_c, 3, 11, 117
6, 113071, Control_c, 3, 11, 118
6, 113073, Control_c, 3, 11, 119
6, 113075, Control_c, 3, 11, 120
6, 113076, Control_c, 3, 11, 121
6, 113078, Control_c, 3, 11, 122
6, 113080, Control_c, 3, 11, 123
6, 113082, Control_c, 3, 11, 124
6, 113084, Control_c, 3, 11, 125
6, 113086, Control_c, 3, 11, 126
6, 113088, Control_c, 3, 11, 127
6, 113089, Control_c, 3, 11, 126
6, 113091, Control_c, 3, 11, 125
6, 113093, Control_c, 3, 11, 124
6, 113095, Control_c, 3, 11, 123
6, 113097, Control_c, 3, 11, 122
6, 113099, Control_c, 3, 11, 121
6, 113100, Control_c, 3, 11, 120
6, 113102, Control_c, 3, 11, 119
6, 113104, Control_c, 3, 11, 118
6, 113106, Control_c, 3, 11, 117
6, 113108, Control_c, 3, 11, 116
6, 113110, Control_c, 3, 11, 115
6, 113112, Control_c, 3, 11, 114
6, 113113, Control_c, 3, 11, 113
6, 113115, Control_c, 3, 11, 112
6, 113117, Control_c, 3, 11, 111
6, 113119, Control_c, 3, 11, 110
6, 113121, Control_c, 3, 11, 109
6, 113123, Control_c, 3, 11, 108
6, 113124, Control_c, 3, 11, 107
6, 113126, Control_c, 3, 11, 106
6, 113128, Control_c, 3, 11, 105
6, 113130, Control_c, 3, 11, 104
6, 113132, Control_c, 3, 11, 103
6, 113134, Control_c, 3, 11, 102
6, 113136, Control_c, 3, 11, 101
6, 113137, Control_c, 3, 11, 100
6, 113139, Control_c, 3, 11, 99
6, 113141, Control_c, 3, 11, 98
6, 113143, Control_c, 3, 11, 97
6, 113145, Control_c, 3, 11, 96
6, 113147, Control_c, 3, 11, 95
6, 113148, Control_c, 3, 11, 94
6, 113150, Control_c, 3, 11, 93
6, 113152, Note_on_c, 3, 75, 0
6, 113152, Note_on_c, 3, 82, 0
6, 113152, Control_c, 3, 11, 92
6, 113154, Control_c, 3, 11, 91
6, 113156, Control_c, 3, 11, 90
6, 113158, Control_c, 3, 11, 89
6, 113160, Control_c, 3, 11, 88
6, 113161, Control_c, 3, 11, 87
6, 113163, Control_c, 3, 11, 86
6, 113165, Control_c, 3, 11, 85
6, 113167, Control_c, 3, 11, 84
6, 113169, Control_c, 3, 11, 83
6, 113171, Control_c, 3, 11, 82
6, 113172, Control_c, 3, 11, 81
6, 113174, Control_c, 3, 11, 80
6, 113176, Control_c, 3, 11, 79
6, 113178, Control_c, 3, 11, 78
6, 113180, Control_c, 3, 11, 77
6, 113182, Control_c, 3, 11, 76
6, 113184, Control_c, 3, 11, 75
6, 113184, Control_c, 3, 11, 75
6, 113184, Note_on_c, 3, 73, 124
6, 113184, Note_on_c, 3, 80, 127
6, 113185, Control_c, 3, 11, 76
6, 113187, Control_c, 3, 11, 77
6, 113189, Control_c, 3, 11, 78
6, 113191, Control_c, 3, 11, 79
6, 113193, Control_c, 3, 11, 80
6, 113195, Control_c, 3, 11, 81
6, 113196, Control_c, 3, 11, 82
6, 113198, Control_c, 3, 11, 83
6, 113200, Control_c, 3, 11, 84
6, 113202, Control_c, 3, 11, 85
6, 113204, Control_c, 3, 11, 86
6, 113206, Control_c, 3, 11, 87
6, 113208, Control_c, 3, 11, 88
6, 113209, Control_c, 3, 11, 89
6, 113211, Control_c, 3, 11, 90
6, 113213, Control_c, 3, 11, 91
6, 113215, Control_c, 3, 11, 92
6, 113217, Control_c, 3, 11, 93
6, 113219, Control_c, 3, 11, 94
6, 113220, Control_c, 3, 11, 95
6, 113222, Control_c, 3, 11, 96
6, 113224, Control_c, 3, 11, 97
6, 113226, Control_c, 3, 11, 98
6, 113228, Control_c, 3, 11, 99
6, 113230, Control_c, 3, 11, 100
6, 113232, Control_c, 3, 11, 101
6, 113233, Control_c, 3, 11, 102
6, 113235, Control_c, 3, 11, 103
6, 113237, Control_c, 3, 11, 104
6, 113239, Control_c, 3, 11, 105
6, 113241, Control_c, 3, 11, 106
6, 113243, Control_c, 3, 11, 107
6, 113244, Control_c, 3, 11, 108
6, 113246, Control_c, 3, 11, 109
6, 113248, Control_c, 3, 11, 110
6, 113250, Control_c, 3, 11, 111
6, 113252, Control_c, 3, 11, 112
6, 113254, Control_c, 3, 11, 113
6, 113256, Control_c, 3, 11, 114
6, 113257, Control_c, 3, 11, 115
6, 113259, Control_c, 3, 11, 116
6, 113261, Control_c, 3, 11, 117
6, 113263, Control_c, 3, 11, 118
6, 113265, Control_c, 3, 11, 119
6, 113267, Control_c, 3, 11, 120
6, 113268, Control_c, 3, 11, 121
6, 113270, Control_c, 3, 11, 122
6, 113272, Control_c, 3, 11, 123
6, 113274, Control_c, 3, 11, 124
6, 113276, Control_c, 3, 11, 125
6, 113278, Control_c, 3, 11, 126
6, 113280, Control_c, 3, 11, 127
6, 113281, Control_c, 3, 11, 126
6, 113283, Control_c, 3, 11, 125
6, 113285, Control_c, 3, 11, 124
6, 113287, Control_c, 3, 11, 123
6, 113289, Control_c, 3, 11, 122
6, 113291, Control_c, 3, 11, 121
6, 113292, Control_c, 3, 11, 120
6, 113294, Control_c, 3, 11, 119
6, 113296, Control_c, 3, 11, 118
6, 113298, Control_c, 3, 11, 117
6, 113300, Control_c, 3, 11, 116
6, 113302, Control_c, 3, 11, 115
6, 113304, Control_c, 3, 11, 114
6, 113305, Control_c, 3, 11, 113
6, 113307, Control_c, 3, 11, 112
6, 113309, Control_c, 3, 11, 111
6, 113311, Control_c, 3, 11, 110
6, 113313, Control_c, 3, 11, 109
6, 113315, Control_c, 3, 11, 108
6, 113316, Control_c, 3, 11, 107
6, 113318, Control_c, 3, 11, 106
6, 113320, Control_c, 3, 11, 105
6, 113322, Control_c, 3, 11, 104
6, 113324, Control_c, 3, 11, 103
6, 113326, Control_c, 3, 11, 102
6, 113328, Control_c, 3, 11, 101
6, 113329, Control_c, 3, 11, 100
6, 113331, Control_c, 3, 11, 99
6, 113333, Control_c, 3, 11, 98
6, 113335, Control_c, 3, 11, 97
6, 113337, Control_c, 3, 11, 96
6, 113339, Control_c, 3, 11, 95
6, 113340, Control_c, 3, 11, 94
6, 113342, Control_c, 3, 11, 93
6, 113344, Note_on_c, 3, 73, 0
6, 113344, Note_on_c, 3, 80, 0
6, 113344, Control_c, 3, 11, 92
6, 113346, Control_c, 3, 11, 91
6, 113348, Control_c, 3, 11, 90
6, 113350, Control_c, 3, 11, 89
6, 113352, Control_c, 3, 11, 88
6, 113353, Control_c, 3, 11, 87
6, 113355, Control_c, 3, 11, 86
6, 113357, Control_c, 3, 11, 85
6, 113359, Control_c, 3, 11, 84
6, 113361, Control_c, 3, 11, 83
6, 113363, Control_c, 3, 11, 82
6, 113364, Control_c, 3, 11, 81
6, 113366, Control_c, 3, 11, 80
6, 113368, Control_c, 3, 11, 79
6, 113370, Control_c, 3, 11, 78
6, 113372, Control_c, 3, 11, 77
6, 113374, Control_c, 3, 11, 76
6, 113376, Control_c, 3, 11, 75
6, 113376, Control_c, 3, 11, 75
6, 113376, Note_on_c, 3, 70, 122
6, 113376, Note_on_c, 3, 77, 127
6, 113377, Control_c, 3, 11, 76
6, 113379, Control_c, 3, 11, 77
6, 113381, Control_c, 3, 11, 78
6, 113383, Control_c, 3, 11, 79
6, 113385, Control_c, 3, 11, 80
6, 113387, Control_c, 3, 11, 81
6, 113388, Control_c, 3, 11, 82
6, 113390, Control_c, 3, 11, 83
6, 113392, Control_c, 3, 11, 84
6, 113394, Control_c, 3, 11, 85
6, 113396, Control_c, 3, 11, 86
6, 113398, Control_c, 3, 11, 87
6, 113400, Control_c, 3, 11, 88
6, 113401, Control_c, 3, 11, 89
6, 113403, Control_c, 3, 11, 90
6, 113405, Control_c, 3, 11, 91
6, 113407, Control_c, 3, 11, 92
6, 113409, Control_c, 3, 11, 93
6, 113411, Control_c, 3, 11, 94
6, 113412, Control_c, 3, 11, 95
6, 113414, Control_c, 3, 11, 96
6, 113416, Control_c, 3, 11, 97
6, 113418, Control_c, 3, 11, 98
6, 113420, Control_c, 3, 11, 99
6, 113422, Control_c, 3, 11, 100
6, 113424, Control_c, 3, 11, 101
6, 113425, Control_c, 3, 11, 102
6, 113427, Control_c, 3, 11, 103
6, 113429, Control_c, 3, 11, 104
6, 113431, Control_c, 3, 11, 105
6, 113433, Control_c, 3, 11, 106
6, 113435, Control_c, 3, 11, 107
6, 113436, Control_c, 3, 11, 108
6, 113438, Control_c, 3, 11, 109
6, 113440, Control_c, 3, 11, 110
6, 113442, Control_c, 3, 11, 111
6, 113444, Control_c, 3, 11, 112
6, 113446, Control_c, 3, 11, 113
6, 113448, Control_c, 3, 11, 114
6, 113449, Control_c, 3, 11, 115
6, 113451, Control_c, 3, 11, 116
6, 113453, Control_c, 3, 11, 117
6, 113455, Control_c, 3, 11, 118
6, 113457, Control_c, 3, 11, 119
6, 113459, Control_c, 3, 11, 120
6, 113460, Control_c, 3, 11, 121
6, 113462, Control_c, 3, 11, 122
6, 113464, Control_c, 3, 11, 123
6, 113466, Control_c, 3, 11, 124
6, 113468, Control_c, 3, 11, 125
6, 113470, Control_c, 3, 11, 126
6, 113472, Control_c, 3, 11, 127
6, 113474, Control_c, 3, 11, 126
6, 113476, Control_c, 3, 11, 125
6, 113478, Control_c, 3, 11, 124
6, 113481, Control_c, 3, 11, 123
6, 113483, Control_c, 3, 11, 122
6, 113485, Control_c, 3, 11, 121
6, 113487, Control_c, 3, 11, 120
6, 113490, Control_c, 3, 11, 119
6, 113492, Control_c, 3, 11, 118
6, 113494, Control_c, 3, 11, 117
6, 113496, Control_c, 3, 11, 116
6, 113499, Control_c, 3, 11, 115
6, 113501, Control_c, 3, 11, 114
6, 113503, Control_c, 3, 11, 113
6, 113506, Control_c, 3, 11, 112
6, 113508, Control_c, 3, 11, 111
6, 113510, Control_c, 3, 11, 110
6, 113512, Control_c, 3, 11, 109
6, 113515, Control_c, 3, 11, 108
6, 113517, Control_c, 3, 11, 107
6, 113519, Control_c, 3, 11, 106
6, 113521, Control_c, 3, 11, 105
6, 113524, Control_c, 3, 11, 104
6, 113526, Control_c, 3, 11, 103
6, 113528, Control_c, 3, 11, 102
6, 113530, Control_c, 3, 11, 101
6, 113533, Control_c, 3, 11, 100
6, 113535, Control_c, 3, 11, 99
6, 113537, Control_c, 3, 11, 98
6, 113540, Control_c, 3, 11, 97
6, 113542, Control_c, 3, 11, 96
6, 113544, Control_c, 3, 11, 95
6, 113546, Control_c, 3, 11, 94
6, 113549, Control_c, 3, 11, 93
6, 113551, Control_c, 3, 11, 92
6, 113553, Control_c, 3, 11, 91
6, 113555, Control_c, 3, 11, 90
6, 113558, Control_c, 3, 11, 89
6, 113560, Control_c, 3, 11, 88
6, 113562, Control_c, 3, 11, 87
6, 113564, Control_c, 3, 11, 86
6, 113567, Control_c, 3, 11, 85
6, 113569, Control_c, 3, 11, 84
6, 113571, Control_c, 3, 11, 83
6, 113574, Control_c, 3, 11, 82
6, 113576, Control_c, 3, 11, 81
6, 113578, Control_c, 3, 11, 80
6, 113580, Control_c, 3, 11, 79
6, 113583, Control_c, 3, 11, 78
6, 113585, Control_c, 3, 11, 77
6, 113587, Control_c, 3, 11, 76
6, 113589, Control_c, 3, 11, 75
6, 113592, Control_c, 3, 11, 74
6, 113594, Control_c, 3, 11, 73
6, 113596, Control_c, 3, 11, 72
6, 113598, Control_c, 3, 11, 71
6, 113601, Control_c, 3, 11, 70
6, 113603, Control_c, 3, 11, 69
6, 113605, Control_c, 3, 11, 68
6, 113608, Control_c, 3, 11, 67
6, 113610, Control_c, 3, 11, 66
6, 113612, Control_c, 3, 11, 65
6, 113614, Control_c, 3, 11, 64
6, 113617, Control_c, 3, 11, 63
6, 113619, Control_c, 3, 11, 62
6, 113621, Control_c, 3, 11, 61
6, 113623, Control_c, 3, 11, 60
6, 113626, Control_c, 3, 11, 59
6, 113628, Control_c, 3, 11, 58
6, 113630, Control_c, 3, 11, 57
6, 113633, Control_c, 3, 11, 56
6, 113635, Control_c, 3, 11, 55
6, 113637, Control_c, 3, 11, 54
6, 113639, Control_c, 3, 11, 53
6, 113642, Control_c, 3, 11, 52
6, 113644, Control_c, 3, 11, 51
6, 113646, Control_c, 3, 11, 50
6, 113648, Control_c, 3, 11, 49
6, 113651, Control_c, 3, 11, 48
6, 113653, Control_c, 3, 11, 47
6, 113655, Control_c, 3, 11, 46
6, 113657, Control_c, 3, 11, 45
6, 113660, Control_c, 3, 11, 44
6, 113662, Control_c, 3, 11, 43
6, 113664, Control_c, 3, 11, 42
6, 113667, Control_c, 3, 11, 41
6, 113669, Control_c, 3, 11, 40
6, 113671, Control_c, 3, 11, 39
6, 113673, Control_c, 3, 11, 38
6, 113676, Control_c, 3, 11, 37
6, 113678, Control_c, 3, 11, 36
6, 113680, Control_c, 3, 11, 35
6, 113682, Control_c, 3, 11, 34
6, 113685, Control_c, 3, 11, 33
6, 113687, Control_c, 3, 11, 32
6, 113689, Control_c, 3, 11, 31
6, 113691, Control_c, 3, 11, 30
6, 113694, Control_c, 3, 11, 29
6, 113696, Control_c, 3, 11, 28
6, 113698, Control_c, 3, 11, 27
6, 113701, Control_c, 3, 11, 26
6, 113703, Control_c, 3, 11, 25
6, 113705, Control_c, 3, 11, 24
6, 113707, Control_c, 3, 11, 23
6, 113710, Control_c, 3, 11, 22
6, 113712, Control_c, 3, 11, 21
6, 113714, Control_c, 3, 11, 20
6, 113716, Control_c, 3, 11, 19
6, 113719, Control_c, 3, 11, 18
6, 113721, Control_c, 3, 11, 17
6, 113723, Control_c, 3, 11, 16
6, 113725, Control_c, 3, 11, 15
6, 113728, Note_on_c, 3, 70, 0
6, 113728, Note_on_c, 3, 77, 0
6, 113728, Control_c, 3, 11, 14
6, 113730, Control_c, 3, 11, 13
6, 113732, Control_c, 3, 11, 12
6, 113735, Control_c, 3, 11, 11
6, 113737, Control_c, 3, 11, 10
6, 113739, Control_c, 3, 11, 9
6, 113741, Control_c, 3, 11, 8
6, 113744, Control_c, 3, 11, 7
6, 113746, Control_c, 3, 11, 6
6, 113748, Control_c, 3, 11, 5
6, 113750, Control_c, 3, 11, 4
6, 113753, Control_c, 3, 11, 3
6, 113755, Control_c, 3, 11, 2
6, 113757, Control_c, 3, 11, 1
6, 113760, Control_c, 3, 11, 0
6, 113760, End_track
7, 0, Start_track
7, 0, Title_t, "Fagotti I - II - III - IV"
7, 0, MIDI_port, 0
7, 98, Control_c, 4, 0, 0
7, 99, Control_c, 4, 32, 0
7, 100, Program_c, 4, 70
7, 101, Control_c, 4, 7, 127
7, 102, Control_c, 4, 10, 84
7, 103, Control_c, 4, 91, 64
7, 8064, Control_c, 4, 11, 92
7, 8448, Note_on_c, 4, 53, 45
7, 8448, Note_on_c, 4, 59, 48
7, 8832, Control_c, 4, 11, 92
7, 8870, Control_c, 4, 11, 93
7, 8908, Control_c, 4, 11, 94
7, 8947, Control_c, 4, 11, 95
7, 8985, Control_c, 4, 11, 96
7, 9024, Control_c, 4, 11, 97
7, 9062, Control_c, 4, 11, 98
7, 9100, Control_c, 4, 11, 99
7, 9139, Control_c, 4, 11, 100
7, 9177, Control_c, 4, 11, 101
7, 9216, Control_c, 4, 11, 102
7, 9254, Control_c, 4, 11, 103
7, 9292, Control_c, 4, 11, 104
7, 9331, Control_c, 4, 11, 105
7, 9369, Control_c, 4, 11, 106
7, 9408, Control_c, 4, 11, 107
7, 9446, Control_c, 4, 11, 108
7, 9484, Control_c, 4, 11, 109
7, 9523, Control_c, 4, 11, 110
7, 9552, Note_on_c, 4, 53, 0
7, 9552, Note_on_c, 4, 59, 0
7, 9561, Control_c, 4, 11, 111
7, 9600, Control_c, 4, 11, 112
7, 9600, Note_on_c, 4, 54, 40
7, 9600, Note_on_c, 4, 60, 45
7, 9638, Control_c, 4, 11, 113
7, 9646, Note_on_c, 4, 54, 0
7, 9648, Note_on_c, 4, 57, 45
7, 9676, Control_c, 4, 11, 114
7, 9715, Control_c, 4, 11, 115
7, 9753, Control_c, 4, 11, 116
7, 9792, Control_c, 4, 11, 117
7, 9830, Control_c, 4, 11, 118
7, 9868, Control_c, 4, 11, 119
7, 9907, Control_c, 4, 11, 120
7, 9945, Control_c, 4, 11, 121
7, 9984, Control_c, 4, 11, 122
7, 10022, Control_c, 4, 11, 123
7, 10060, Control_c, 4, 11, 124
7, 10099, Control_c, 4, 11, 125
7, 10137, Control_c, 4, 11, 126
7, 10176, Control_c, 4, 11, 127
7, 10203, Control_c, 4, 11, 126
7, 10230, Control_c, 4, 11, 125
7, 10258, Control_c, 4, 11, 124
7, 10285, Control_c, 4, 11, 123
7, 10313, Control_c, 4, 11, 122
7, 10340, Control_c, 4, 11, 121
7, 10368, Control_c, 4, 11, 120
7, 10395, Control_c, 4, 11, 119
7, 10422, Control_c, 4, 11, 118
7, 10450, Control_c, 4, 11, 117
7, 10477, Control_c, 4, 11, 116
7, 10505, Control_c, 4, 11, 115
7, 10528, Note_on_c, 4, 60, 0
7, 10528, Note_on_c, 4, 57, 0
7, 10532, Control_c, 4, 11, 114
7, 10560, Control_c, 4, 11, 113
7, 10587, Control_c, 4, 11, 112
7, 10614, Control_c, 4, 11, 111
7, 10642, Control_c, 4, 11, 110
7, 10669, Control_c, 4, 11, 109
7, 10697, Control_c, 4, 11, 108
7, 10724, Control_c, 4, 11, 107
7, 10752, Control_c, 4, 11, 106
7, 10752, Control_c, 4, 11, 127
7, 10779, Control_c, 4, 11, 105
7, 10806, Control_c, 4, 11, 104
7, 10834, Control_c, 4, 11, 103
7, 10861, Control_c, 4, 11, 102
7, 10889, Control_c, 4, 11, 101
7, 10916, Control_c, 4, 11, 100
7, 10944, Control_c, 4, 11, 99
7, 10971, Control_c, 4, 11, 98
7, 10998, Control_c, 4, 11, 97
7, 11026, Control_c, 4, 11, 96
7, 11053, Control_c, 4, 11, 95
7, 11081, Control_c, 4, 11, 94
7, 11108, Control_c, 4, 11, 93
7, 11136, Control_c, 4, 11, 92
7, 16896, Control_c, 4, 11, 92
7, 16896, Note_on_c, 4, 53, 41
7, 16896, Note_on_c, 4, 59, 48
7, 16896, Note_on_c, 4, 62, 48
7, 16906, Control_c, 4, 11, 93
7, 16917, Control_c, 4, 11, 94
7, 16928, Control_c, 4, 11, 95
7, 16939, Control_c, 4, 11, 96
7, 16950, Control_c, 4, 11, 97
7, 16961, Control_c, 4, 11, 98
7, 16972, Control_c, 4, 11, 99
7, 16983, Control_c, 4, 11, 100
7, 16994, Control_c, 4, 11, 101
7, 17005, Control_c, 4, 11, 102
7, 17016, Control_c, 4, 11, 103
7, 17027, Control_c, 4, 11, 104
7, 17038, Control_c, 4, 11, 105
7, 17049, Control_c, 4, 11, 106
7, 17060, Control_c, 4, 11, 107
7, 17071, Control_c, 4, 11, 108
7, 17082, Control_c, 4, 11, 109
7, 17093, Control_c, 4, 11, 110
7, 17104, Control_c, 4, 11, 111
7, 17115, Control_c, 4, 11, 112
7, 17126, Control_c, 4, 11, 113
7, 17137, Control_c, 4, 11, 114
7, 17148, Control_c, 4, 11, 115
7, 17159, Control_c, 4, 11, 116
7, 17170, Control_c, 4, 11, 117
7, 17181, Control_c, 4, 11, 118
7, 17192, Control_c, 4, 11, 119
7, 17203, Control_c, 4, 11, 120
7, 17214, Control_c, 4, 11, 121
7, 17225, Control_c, 4, 11, 122
7, 17236, Control_c, 4, 11, 123
7, 17247, Control_c, 4, 11, 124
7, 17258, Control_c, 4, 11, 125
7, 17269, Control_c, 4, 11, 126
7, 17280, Note_on_c, 4, 53, 0
7, 17280, Note_on_c, 4, 59, 0
7, 17280, Note_on_c, 4, 62, 0
7, 17280, Control_c, 4, 11, 127
7, 17280, Note_on_c, 4, 54, 40
7, 17280, Note_on_c, 4, 59, 44
7, 17280, Note_on_c, 4, 63, 40
7, 17285, Control_c, 4, 11, 126
7, 17290, Control_c, 4, 11, 125
7, 17296, Control_c, 4, 11, 124
7, 17301, Control_c, 4, 11, 123
7, 17307, Control_c, 4, 11, 122
7, 17312, Control_c, 4, 11, 121
7, 17318, Control_c, 4, 11, 120
7, 17323, Control_c, 4, 11, 119
7, 17326, Note_on_c, 4, 54, 0
7, 17326, Note_on_c, 4, 59, 0
7, 17326, Note_on_c, 4, 63, 0
7, 17328, Note_on_c, 4, 57, 48
7, 17328, Note_on_c, 4, 60, 47
7, 17328, Note_on_c, 4, 64, 41
7, 17329, Control_c, 4, 11, 118
7, 17334, Control_c, 4, 11, 117
7, 17340, Control_c, 4, 11, 116
7, 17345, Control_c, 4, 11, 115
7, 17351, Control_c, 4, 11, 114
7, 17356, Control_c, 4, 11, 113
7, 17362, Control_c, 4, 11, 112
7, 17367, Control_c, 4, 11, 111
7, 17373, Control_c, 4, 11, 110
7, 17378, Control_c, 4, 11, 109
7, 17384, Control_c, 4, 11, 108
7, 17389, Control_c, 4, 11, 107
7, 17395, Control_c, 4, 11, 106
7, 17400, Control_c, 4, 11, 105
7, 17406, Control_c, 4, 11, 104
7, 17411, Control_c, 4, 11, 103
7, 17417, Control_c, 4, 11, 102
7, 17422, Control_c, 4, 11, 101
7, 17428, Control_c, 4, 11, 100
7, 17433, Control_c, 4, 11, 99
7, 17439, Control_c, 4, 11, 98
7, 17444, Control_c, 4, 11, 97
7, 17450, Control_c, 4, 11, 96
7, 17455, Control_c, 4, 11, 95
7, 17461, Control_c, 4, 11, 94
7, 17466, Control_c, 4, 11, 93
7, 17472, Control_c, 4, 11, 92
7, 17480, Control_c, 4, 11, 91
7, 17488, Control_c, 4, 11, 90
7, 17496, Control_c, 4, 11, 89
7, 17504, Control_c, 4, 11, 88
7, 17512, Control_c, 4, 11, 87
7, 17521, Control_c, 4, 11, 86
7, 17529, Control_c, 4, 11, 85
7, 17537, Control_c, 4, 11, 84
7, 17545, Control_c, 4, 11, 83
7, 17553, Control_c, 4, 11, 82
7, 17561, Control_c, 4, 11, 81
7, 17570, Control_c, 4, 11, 80
7, 17578, Control_c, 4, 11, 79
7, 17586, Control_c, 4, 11, 78
7, 17594, Control_c, 4, 11, 77
7, 17602, Control_c, 4, 11, 76
7, 17610, Control_c, 4, 11, 75
7, 17619, Control_c, 4, 11, 74
7, 17627, Control_c, 4, 11, 73
7, 17635, Control_c, 4, 11, 72
7, 17643, Control_c, 4, 11, 71
7, 17651, Control_c, 4, 11, 70
7, 17659, Control_c, 4, 11, 69
7, 17668, Control_c, 4, 11, 68
7, 17676, Control_c, 4, 11, 67
7, 17684, Control_c, 4, 11, 66
7, 17692, Control_c, 4, 11, 65
7, 17700, Control_c, 4, 11, 64
7, 17708, Control_c, 4, 11, 63
7, 17717, Control_c, 4, 11, 62
7, 17725, Control_c, 4, 11, 61
7, 17733, Control_c, 4, 11, 60
7, 17741, Control_c, 4, 11, 59
7, 17749, Control_c, 4, 11, 58
7, 17757, Control_c, 4, 11, 57
7, 17766, Control_c, 4, 11, 56
7, 17774, Control_c, 4, 11, 55
7, 17782, Control_c, 4, 11, 54
7, 17790, Control_c, 4, 11, 53
7, 17798, Control_c, 4, 11, 52
7, 17806, Control_c, 4, 11, 51
7, 17815, Control_c, 4, 11, 50
7, 17823, Control_c, 4, 11, 49
7, 17831, Control_c, 4, 11, 48
7, 17839, Control_c, 4, 11, 47
7, 17847, Control_c, 4, 11, 46
7, 17856, Control_c, 4, 11, 45
7, 18208, Note_on_c, 4, 57, 0
7, 18208, Note_on_c, 4, 60, 0
7, 18208, Note_on_c, 4, 64, 0
7, 23424, Control_c, 4, 11, 75
7, 23424, Note_on_c, 4, 49, 73
7, 23424, Note_on_c, 4, 61, 77
7, 23760, Note_on_c, 4, 49, 0
7, 23808, Note_on_c, 4, 54, 78
7, 24160, Note_on_c, 4, 54, 0
7, 24192, Note_on_c, 4, 56, 73
7, 24528, Note_on_c, 4, 56, 0
7, 24576, Control_c, 4, 11, 75
7, 24576, Note_on_c, 4, 59, 75
7, 24598, Control_c, 4, 11, 76
7, 24620, Control_c, 4, 11, 77
7, 24642, Control_c, 4, 11, 78
7, 24664, Control_c, 4, 11, 79
7, 24686, Control_c, 4, 11, 80
7, 24708, Control_c, 4, 11, 81
7, 24731, Control_c, 4, 11, 82
7, 24753, Control_c, 4, 11, 83
7, 24775, Control_c, 4, 11, 84
7, 24797, Control_c, 4, 11, 85
7, 24819, Control_c, 4, 11, 86
7, 24841, Control_c, 4, 11, 87
7, 24864, Control_c, 4, 11, 88
7, 24886, Control_c, 4, 11, 89
7, 24908, Control_c, 4, 11, 90
7, 24912, Note_on_c, 4, 59, 0
7, 24930, Control_c, 4, 11, 91
7, 24952, Control_c, 4, 11, 92
7, 24960, Note_on_c, 4, 61, 79
7, 24974, Control_c, 4, 11, 93
7, 24996, Control_c, 4, 11, 94
7, 25019, Control_c, 4, 11, 95
7, 25041, Control_c, 4, 11, 96
7, 25063, Control_c, 4, 11, 97
7, 25085, Control_c, 4, 11, 98
7, 25107, Control_c, 4, 11, 99
7, 25129, Control_c, 4, 11, 100
7, 25152, Control_c, 4, 11, 101
7, 25174, Control_c, 4, 11, 102
7, 25196, Control_c, 4, 11, 103
7, 25218, Control_c, 4, 11, 104
7, 25240, Control_c, 4, 11, 105
7, 25262, Control_c, 4, 11, 106
7, 25284, Control_c, 4, 11, 107
7, 25307, Control_c, 4, 11, 108
7, 25312, Note_on_c, 4, 61, 0
7, 25329, Control_c, 4, 11, 109
7, 25344, Note_on_c, 4, 66, 75
7, 25351, Control_c, 4, 11, 110
7, 25373, Control_c, 4, 11, 111
7, 25395, Control_c, 4, 11, 112
7, 25417, Control_c, 4, 11, 113
7, 25440, Control_c, 4, 11, 114
7, 25462, Control_c, 4, 11, 115
7, 25484, Control_c, 4, 11, 116
7, 25506, Control_c, 4, 11, 117
7, 25528, Control_c, 4, 11, 118
7, 25550, Control_c, 4, 11, 119
7, 25572, Control_c, 4, 11, 120
7, 25595, Control_c, 4, 11, 121
7, 25617, Control_c, 4, 11, 122
7, 25639, Control_c, 4, 11, 123
7, 25661, Control_c, 4, 11, 124
7, 25680, Note_on_c, 4, 61, 0
7, 25680, Note_on_c, 4, 66, 0
7, 25683, Control_c, 4, 11, 125
7, 25705, Control_c, 4, 11, 126
7, 25728, Control_c, 4, 11, 127
7, 25728, Control_c, 4, 11, 64
7, 25728, Note_on_c, 4, 49, 72
7, 25728, Note_on_c, 4, 61, 74
7, 25746, Control_c, 4, 11, 65
7, 25764, Control_c, 4, 11, 66
7, 25782, Control_c, 4, 11, 67
7, 25801, Control_c, 4, 11, 68
7, 25819, Control_c, 4, 11, 69
7, 25837, Control_c, 4, 11, 70
7, 25856, Control_c, 4, 11, 71
7, 25874, Control_c, 4, 11, 72
7, 25892, Control_c, 4, 11, 73
7, 25910, Control_c, 4, 11, 74
7, 25920, Note_on_c, 4, 49, 0
7, 25920, Note_on_c, 4, 54, 79
7, 25929, Control_c, 4, 11, 75
7, 25947, Control_c, 4, 11, 76
7, 25965, Control_c, 4, 11, 77
7, 25984, Control_c, 4, 11, 78
7, 26002, Control_c, 4, 11, 79
7, 26020, Control_c, 4, 11, 80
7, 26038, Control_c, 4, 11, 81
7, 26057, Control_c, 4, 11, 82
7, 26075, Control_c, 4, 11, 83
7, 26093, Control_c, 4, 11, 84
7, 26112, Note_on_c, 4, 54, 0
7, 26112, Control_c, 4, 11, 85
7, 26112, Note_on_c, 4, 56, 79
7, 26130, Control_c, 4, 11, 86
7, 26148, Control_c, 4, 11, 87
7, 26166, Control_c, 4, 11, 88
7, 26185, Control_c, 4, 11, 89
7, 26203, Control_c, 4, 11, 90
7, 26221, Control_c, 4, 11, 91
7, 26240, Control_c, 4, 11, 92
7, 26258, Control_c, 4, 11, 93
7, 26276, Control_c, 4, 11, 94
7, 26294, Control_c, 4, 11, 95
7, 26304, Note_on_c, 4, 56, 0
7, 26304, Note_on_c, 4, 59, 79
7, 26313, Control_c, 4, 11, 96
7, 26331, Control_c, 4, 11, 97
7, 26349, Control_c, 4, 11, 98
7, 26368, Control_c, 4, 11, 99
7, 26386, Control_c, 4, 11, 100
7, 26404, Control_c, 4, 11, 101
7, 26422, Control_c, 4, 11, 102
7, 26441, Control_c, 4, 11, 103
7, 26459, Control_c, 4, 11, 104
7, 26477, Control_c, 4, 11, 105
7, 26496, Note_on_c, 4, 59, 0
7, 26496, Control_c, 4, 11, 106
7, 26496, Note_on_c, 4, 61, 79
7, 26514, Control_c, 4, 11, 107
7, 26532, Control_c, 4, 11, 108
7, 26550, Control_c, 4, 11, 109
7, 26569, Control_c, 4, 11, 110
7, 26587, Control_c, 4, 11, 111
7, 26605, Control_c, 4, 11, 112
7, 26624, Control_c, 4, 11, 113
7, 26642, Control_c, 4, 11, 114
7, 26660, Control_c, 4, 11, 115
7, 26678, Control_c, 4, 11, 116
7, 26688, Note_on_c, 4, 61, 0
7, 26688, Note_on_c, 4, 66, 74
7, 26697, Control_c, 4, 11, 117
7, 26715, Control_c, 4, 11, 118
7, 26733, Control_c, 4, 11, 119
7, 26752, Control_c, 4, 11, 120
7, 26770, Control_c, 4, 11, 121
7, 26788, Control_c, 4, 11, 122
7, 26806, Control_c, 4, 11, 123
7, 26825, Control_c, 4, 11, 124
7, 26832, Note_on_c, 4, 61, 0
7, 26843, Control_c, 4, 11, 125
7, 26848, Note_on_c, 4, 66, 0
7, 26861, Control_c, 4, 11, 126
7, 26880, Control_c, 4, 11, 127
7, 26880, Control_c, 4, 11, 64
7, 26880, Note_on_c, 4, 49, 71
7, 26880, Note_on_c, 4, 61, 79
7, 26898, Control_c, 4, 11, 65
7, 26916, Control_c, 4, 11, 66
7, 26934, Control_c, 4, 11, 67
7, 26953, Control_c, 4, 11, 68
7, 26971, Control_c, 4, 11, 69
7, 26989, Control_c, 4, 11, 70
7, 27008, Control_c, 4, 11, 71
7, 27026, Control_c, 4, 11, 72
7, 27044, Control_c, 4, 11, 73
7, 27062, Control_c, 4, 11, 74
7, 27072, Note_on_c, 4, 49, 0
7, 27072, Note_on_c, 4, 54, 75
7, 27081, Control_c, 4, 11, 75
7, 27099, Control_c, 4, 11, 76
7, 27117, Control_c, 4, 11, 77
7, 27136, Control_c, 4, 11, 78
7, 27154, Control_c, 4, 11, 79
7, 27172, Control_c, 4, 11, 80
7, 27190, Control_c, 4, 11, 81
7, 27209, Control_c, 4, 11, 82
7, 27227, Control_c, 4, 11, 83
7, 27245, Control_c, 4, 11, 84
7, 27264, Note_on_c, 4, 54, 0
7, 27264, Control_c, 4, 11, 85
7, 27264, Note_on_c, 4, 56, 70
7, 27282, Control_c, 4, 11, 86
7, 27300, Control_c, 4, 11, 87
7, 27318, Control_c, 4, 11, 88
7, 27337, Control_c, 4, 11, 89
7, 27355, Control_c, 4, 11, 90
7, 27373, Control_c, 4, 11, 91
7, 27392, Control_c, 4, 11, 92
7, 27410, Control_c, 4, 11, 93
7, 27428, Control_c, 4, 11, 94
7, 27446, Control_c, 4, 11, 95
7, 27456, Note_on_c, 4, 56, 0
7, 27456, Note_on_c, 4, 59, 80
7, 27465, Control_c, 4, 11, 96
7, 27483, Control_c, 4, 11, 97
7, 27501, Control_c, 4, 11, 98
7, 27520, Control_c, 4, 11, 99
7, 27538, Control_c, 4, 11, 100
7, 27556, Control_c, 4, 11, 101
7, 27574, Control_c, 4, 11, 102
7, 27593, Control_c, 4, 11, 103
7, 27611, Control_c, 4, 11, 104
7, 27629, Control_c, 4, 11, 105
7, 27648, Note_on_c, 4, 59, 0
7, 27648, Control_c, 4, 11, 106
7, 27648, Note_on_c, 4, 61, 74
7, 27666, Control_c, 4, 11, 107
7, 27684, Control_c, 4, 11, 108
7, 27702, Control_c, 4, 11, 109
7, 27721, Control_c, 4, 11, 110
7, 27739, Control_c, 4, 11, 111
7, 27757, Control_c, 4, 11, 112
7, 27776, Control_c, 4, 11, 113
7, 27794, Control_c, 4, 11, 114
7, 27812, Control_c, 4, 11, 115
7, 27830, Control_c, 4, 11, 116
7, 27840, Note_on_c, 4, 61, 0
7, 27840, Note_on_c, 4, 66, 79
7, 27849, Control_c, 4, 11, 117
7, 27867, Control_c, 4, 11, 118
7, 27885, Control_c, 4, 11, 119
7, 27904, Control_c, 4, 11, 120
7, 27922, Control_c, 4, 11, 121
7, 27940, Control_c, 4, 11, 122
7, 27958, Control_c, 4, 11, 123
7, 27977, Control_c, 4, 11, 124
7, 27984, Note_on_c, 4, 61, 0
7, 27995, Control_c, 4, 11, 125
7, 28000, Note_on_c, 4, 66, 0
7, 28013, Control_c, 4, 11, 126
7, 28032, Control_c, 4, 11, 127
7, 28032, Control_c, 4, 11, 64
7, 28032, Note_on_c, 4, 49, 79
7, 28032, Note_on_c, 4, 61, 71
7, 28050, Control_c, 4, 11, 65
7, 28068, Control_c, 4, 11, 66
7, 28086, Control_c, 4, 11, 67
7, 28105, Control_c, 4, 11, 68
7, 28123, Control_c, 4, 11, 69
7, 28141, Control_c, 4, 11, 70
7, 28160, Control_c, 4, 11, 71
7, 28178, Control_c, 4, 11, 72
7, 28196, Control_c, 4, 11, 73
7, 28214, Control_c, 4, 11, 74
7, 28224, Note_on_c, 4, 49, 0
7, 28224, Note_on_c, 4, 54, 73
7, 28233, Control_c, 4, 11, 75
7, 28251, Control_c, 4, 11, 76
7, 28269, Control_c, 4, 11, 77
7, 28288, Control_c, 4, 11, 78
7, 28306, Control_c, 4, 11, 79
7, 28324, Control_c, 4, 11, 80
7, 28342, Control_c, 4, 11, 81
7, 28361, Control_c, 4, 11, 82
7, 28379, Control_c, 4, 11, 83
7, 28397, Control_c, 4, 11, 84
7, 28416, Note_on_c, 4, 54, 0
7, 28416, Control_c, 4, 11, 85
7, 28416, Note_on_c, 4, 56, 78
7, 28434, Control_c, 4, 11, 86
7, 28452, Control_c, 4, 11, 87
7, 28470, Control_c, 4, 11, 88
7, 28489, Control_c, 4, 11, 89
7, 28507, Control_c, 4, 11, 90
7, 28525, Control_c, 4, 11, 91
7, 28544, Control_c, 4, 11, 92
7, 28562, Control_c, 4, 11, 93
7, 28580, Control_c, 4, 11, 94
7, 28598, Control_c, 4, 11, 95
7, 28608, Note_on_c, 4, 56, 0
7, 28608, Note_on_c, 4, 59, 76
7, 28617, Control_c, 4, 11, 96
7, 28635, Control_c, 4, 11, 97
7, 28653, Control_c, 4, 11, 98
7, 28672, Control_c, 4, 11, 99
7, 28690, Control_c, 4, 11, 100
7, 28708, Control_c, 4, 11, 101
7, 28726, Control_c, 4, 11, 102
7, 28745, Control_c, 4, 11, 103
7, 28763, Control_c, 4, 11, 104
7, 28781, Control_c, 4, 11, 105
7, 28800, Note_on_c, 4, 59, 0
7, 28800, Control_c, 4, 11, 106
7, 28800, Note_on_c, 4, 61, 71
7, 28818, Control_c, 4, 11, 107
7, 28836, Control_c, 4, 11, 108
7, 28854, Control_c, 4, 11, 109
7, 28873, Control_c, 4, 11, 110
7, 28891, Control_c, 4, 11, 111
7, 28909, Control_c, 4, 11, 112
7, 28928, Control_c, 4, 11, 113
7, 28946, Control_c, 4, 11, 114
7, 28964, Control_c, 4, 11, 115
7, 28982, Control_c, 4, 11, 116
7, 28992, Note_on_c, 4, 61, 0
7, 28992, Note_on_c, 4, 66, 74
7, 29001, Control_c, 4, 11, 117
7, 29019, Control_c, 4, 11, 118
7, 29037, Control_c, 4, 11, 119
7, 29056, Control_c, 4, 11, 120
7, 29074, Control_c, 4, 11, 121
7, 29092, Control_c, 4, 11, 122
7, 29110, Control_c, 4, 11, 123
7, 29129, Control_c, 4, 11, 124
7, 29136, Note_on_c, 4, 61, 0
7, 29147, Control_c, 4, 11, 125
7, 29152, Note_on_c, 4, 66, 0
7, 29165, Control_c, 4, 11, 126
7, 29184, Control_c, 4, 11, 127
7, 29184, Control_c, 4, 11, 64
7, 29184, Note_on_c, 4, 49, 75
7, 29202, Control_c, 4, 11, 65
7, 29220, Control_c, 4, 11, 66
7, 29238, Control_c, 4, 11, 67
7, 29257, Control_c, 4, 11, 68
7, 29275, Control_c, 4, 11, 69
7, 29293, Control_c, 4, 11, 70
7, 29312, Control_c, 4, 11, 71
7, 29330, Control_c, 4, 11, 72
7, 29348, Control_c, 4, 11, 73
7, 29366, Control_c, 4, 11, 74
7, 29376, Note_on_c, 4, 49, 0
7, 29376, Note_on_c, 4, 54, 78
7, 29385, Control_c, 4, 11, 75
7, 29403, Control_c, 4, 11, 76
7, 29421, Control_c, 4, 11, 77
7, 29440, Control_c, 4, 11, 78
7, 29458, Control_c, 4, 11, 79
7, 29476, Control_c, 4, 11, 80
7, 29494, Control_c, 4, 11, 81
7, 29513, Control_c, 4, 11, 82
7, 29531, Control_c, 4, 11, 83
7, 29549, Control_c, 4, 11, 84
7, 29568, Note_on_c, 4, 54, 0
7, 29568, Control_c, 4, 11, 85
7, 29568, Note_on_c, 4, 56, 72
7, 29586, Control_c, 4, 11, 86
7, 29604, Control_c, 4, 11, 87
7, 29622, Control_c, 4, 11, 88
7, 29641, Control_c, 4, 11, 89
7, 29659, Control_c, 4, 11, 90
7, 29677, Control_c, 4, 11, 91
7, 29696, Control_c, 4, 11, 92
7, 29714, Control_c, 4, 11, 93
7, 29732, Control_c, 4, 11, 94
7, 29750, Control_c, 4, 11, 95
7, 29760, Note_on_c, 4, 56, 0
7, 29760, Note_on_c, 4, 59, 74
7, 29769, Control_c, 4, 11, 96
7, 29787, Control_c, 4, 11, 97
7, 29805, Control_c, 4, 11, 98
7, 29824, Control_c, 4, 11, 99
7, 29842, Control_c, 4, 11, 100
7, 29860, Control_c, 4, 11, 101
7, 29878, Control_c, 4, 11, 102
7, 29897, Control_c, 4, 11, 103
7, 29915, Control_c, 4, 11, 104
7, 29933, Control_c, 4, 11, 105
7, 29952, Note_on_c, 4, 59, 0
7, 29952, Control_c, 4, 11, 106
7, 29952, Note_on_c, 4, 61, 76
7, 29970, Control_c, 4, 11, 107
7, 29988, Control_c, 4, 11, 108
7, 30006, Control_c, 4, 11, 109
7, 30025, Control_c, 4, 11, 110
7, 30043, Control_c, 4, 11, 111
7, 30061, Control_c, 4, 11, 112
7, 30080, Control_c, 4, 11, 113
7, 30098, Control_c, 4, 11, 114
7, 30116, Control_c, 4, 11, 115
7, 30134, Control_c, 4, 11, 116
7, 30144, Note_on_c, 4, 61, 0
7, 30144, Note_on_c, 4, 66, 79
7, 30153, Control_c, 4, 11, 117
7, 30171, Control_c, 4, 11, 118
7, 30189, Control_c, 4, 11, 119
7, 30208, Control_c, 4, 11, 120
7, 30226, Control_c, 4, 11, 121
7, 30244, Control_c, 4, 11, 122
7, 30262, Control_c, 4, 11, 123
7, 30281, Control_c, 4, 11, 124
7, 30299, Control_c, 4, 11, 125
7, 30304, Note_on_c, 4, 66, 0
7, 30317, Control_c, 4, 11, 126
7, 30336, Control_c, 4, 11, 127
7, 30624, Control_c, 4, 11, 127
7, 30624, Note_on_c, 4, 37, 61
7, 30628, Control_c, 4, 11, 126
7, 30633, Control_c, 4, 11, 125
7, 30637, Control_c, 4, 11, 124
7, 30642, Control_c, 4, 11, 123
7, 30646, Control_c, 4, 11, 122
7, 30651, Control_c, 4, 11, 121
7, 30656, Control_c, 4, 11, 120
7, 30660, Control_c, 4, 11, 119
7, 30665, Control_c, 4, 11, 118
7, 30669, Control_c, 4, 11, 117
7, 30674, Control_c, 4, 11, 116
7, 30678, Control_c, 4, 11, 115
7, 30683, Control_c, 4, 11, 114
7, 30688, Control_c, 4, 11, 113
7, 30692, Control_c, 4, 11, 112
7, 30697, Control_c, 4, 11, 111
7, 30701, Control_c, 4, 11, 110
7, 30706, Control_c, 4, 11, 109
7, 30710, Control_c, 4, 11, 108
7, 30715, Control_c, 4, 11, 107
7, 30720, Control_c, 4, 11, 106
7, 30724, Control_c, 4, 11, 105
7, 30729, Control_c, 4, 11, 104
7, 30733, Control_c, 4, 11, 103
7, 30738, Control_c, 4, 11, 102
7, 30742, Control_c, 4, 11, 101
7, 30747, Control_c, 4, 11, 100
7, 30752, Control_c, 4, 11, 99
7, 30756, Control_c, 4, 11, 98
7, 30761, Control_c, 4, 11, 97
7, 30765, Control_c, 4, 11, 96
7, 30770, Control_c, 4, 11, 95
7, 30774, Control_c, 4, 11, 94
7, 30779, Control_c, 4, 11, 93
7, 30784, Control_c, 4, 11, 92
7, 30788, Control_c, 4, 11, 91
7, 30793, Control_c, 4, 11, 90
7, 30797, Control_c, 4, 11, 89
7, 30802, Control_c, 4, 11, 88
7, 30806, Control_c, 4, 11, 87
7, 30811, Control_c, 4, 11, 86
7, 30816, Control_c, 4, 11, 85
7, 30820, Control_c, 4, 11, 84
7, 30825, Control_c, 4, 11, 83
7, 30829, Control_c, 4, 11, 82
7, 30834, Control_c, 4, 11, 81
7, 30838, Control_c, 4, 11, 80
7, 30843, Control_c, 4, 11, 79
7, 30848, Control_c, 4, 11, 78
7, 30852, Control_c, 4, 11, 77
7, 30857, Control_c, 4, 11, 76
7, 30861, Control_c, 4, 11, 75
7, 30866, Control_c, 4, 11, 74
7, 30870, Control_c, 4, 11, 73
7, 30875, Control_c, 4, 11, 72
7, 30880, Control_c, 4, 11, 71
7, 30884, Control_c, 4, 11, 70
7, 30889, Control_c, 4, 11, 69
7, 30893, Control_c, 4, 11, 68
7, 30898, Control_c, 4, 11, 67
7, 30902, Control_c, 4, 11, 66
7, 30907, Control_c, 4, 11, 65
7, 30912, Control_c, 4, 11, 64
7, 31006, Note_on_c, 4, 37, 0
7, 36096, Control_c, 4, 11, 75
7, 36096, Note_on_c, 4, 63, 70
7, 36096, Note_on_c, 4, 70, 70
7, 36107, Control_c, 4, 11, 76
7, 36118, Control_c, 4, 11, 77
7, 36126, Note_on_c, 4, 63, 0
7, 36126, Note_on_c, 4, 70, 0
7, 36128, Note_on_c, 4, 61, 73
7, 36128, Note_on_c, 4, 68, 70
7, 36129, Control_c, 4, 11, 78
7, 36140, Control_c, 4, 11, 79
7, 36151, Control_c, 4, 11, 80
7, 36158, Note_on_c, 4, 61, 0
7, 36158, Note_on_c, 4, 68, 0
7, 36160, Note_on_c, 4, 58, 80
7, 36160, Note_on_c, 4, 65, 72
7, 36162, Control_c, 4, 11, 81
7, 36173, Control_c, 4, 11, 82
7, 36184, Control_c, 4, 11, 83
7, 36190, Note_on_c, 4, 58, 0
7, 36190, Note_on_c, 4, 65, 0
7, 36192, Note_on_c, 4, 56, 72
7, 36192, Note_on_c, 4, 63, 75
7, 36195, Control_c, 4, 11, 84
7, 36206, Control_c, 4, 11, 85
7, 36217, Control_c, 4, 11, 86
7, 36228, Control_c, 4, 11, 87
7, 36240, Control_c, 4, 11, 88
7, 36251, Control_c, 4, 11, 89
7, 36262, Control_c, 4, 11, 90
7, 36273, Control_c, 4, 11, 91
7, 36284, Control_c, 4, 11, 92
7, 36295, Control_c, 4, 11, 93
7, 36306, Control_c, 4, 11, 94
7, 36317, Control_c, 4, 11, 95
7, 36318, Note_on_c, 4, 56, 0
7, 36318, Note_on_c, 4, 63, 0
7, 36320, Note_on_c, 4, 58, 79
7, 36320, Note_on_c, 4, 65, 71
7, 36328, Control_c, 4, 11, 96
7, 36339, Control_c, 4, 11, 97
7, 36350, Note_on_c, 4, 58, 0
7, 36350, Note_on_c, 4, 65, 0
7, 36350, Control_c, 4, 11, 98
7, 36352, Note_on_c, 4, 61, 76
7, 36352, Note_on_c, 4, 68, 79
7, 36361, Control_c, 4, 11, 99
7, 36372, Control_c, 4, 11, 100
7, 36382, Note_on_c, 4, 61, 0
7, 36382, Note_on_c, 4, 68, 0
7, 36384, Control_c, 4, 11, 101
7, 36384, Note_on_c, 4, 63, 80
7, 36384, Note_on_c, 4, 70, 80
7, 36395, Control_c, 4, 11, 102
7, 36406, Control_c, 4, 11, 103
7, 36414, Note_on_c, 4, 63, 0
7, 36414, Note_on_c, 4, 70, 0
7, 36416, Note_on_c, 4, 61, 77
7, 36416, Note_on_c, 4, 68, 72
7, 36417, Control_c, 4, 11, 104
7, 36428, Control_c, 4, 11, 105
7, 36439, Control_c, 4, 11, 106
7, 36446, Note_on_c, 4, 61, 0
7, 36446, Note_on_c, 4, 68, 0
7, 36448, Note_on_c, 4, 58, 71
7, 36448, Note_on_c, 4, 65, 77
7, 36450, Control_c, 4, 11, 107
7, 36461, Control_c, 4, 11, 108
7, 36472, Control_c, 4, 11, 109
7, 36478, Note_on_c, 4, 58, 0
7, 36478, Note_on_c, 4, 65, 0
7, 36480, Note_on_c, 4, 61, 73
7, 36480, Note_on_c, 4, 68, 75
7, 36483, Control_c, 4, 11, 110
7, 36494, Control_c, 4, 11, 111
7, 36505, Control_c, 4, 11, 112
7, 36516, Control_c, 4, 11, 113
7, 36528, Control_c, 4, 11, 114
7, 36539, Control_c, 4, 11, 115
7, 36550, Control_c, 4, 11, 116
7, 36561, Control_c, 4, 11, 117
7, 36572, Control_c, 4, 11, 118
7, 36574, Note_on_c, 4, 61, 0
7, 36574, Note_on_c, 4, 68, 0
7, 36576, Note_on_c, 4, 63, 72
7, 36576, Note_on_c, 4, 70, 80
7, 36583, Control_c, 4, 11, 119
7, 36594, Control_c, 4, 11, 120
7, 36605, Control_c, 4, 11, 121
7, 36616, Control_c, 4, 11, 122
7, 36627, Control_c, 4, 11, 123
7, 36638, Control_c, 4, 11, 124
7, 36649, Control_c, 4, 11, 125
7, 36660, Control_c, 4, 11, 126
7, 36672, Control_c, 4, 11, 127
7, 36676, Control_c, 4, 11, 126
7, 36681, Control_c, 4, 11, 125
7, 36685, Control_c, 4, 11, 124
7, 36690, Control_c, 4, 11, 123
7, 36694, Control_c, 4, 11, 122
7, 36699, Control_c, 4, 11, 121
7, 36704, Control_c, 4, 11, 120
7, 36708, Control_c, 4, 11, 119
7, 36713, Control_c, 4, 11, 118
7, 36717, Control_c, 4, 11, 117
7, 36722, Control_c, 4, 11, 116
7, 36726, Control_c, 4, 11, 115
7, 36731, Control_c, 4, 11, 114
7, 36736, Control_c, 4, 11, 113
7, 36740, Control_c, 4, 11, 112
7, 36745, Control_c, 4, 11, 111
7, 36749, Control_c, 4, 11, 110
7, 36754, Control_c, 4, 11, 109
7, 36758, Control_c, 4, 11, 108
7, 36763, Control_c, 4, 11, 107
7, 36766, Note_on_c, 4, 63, 0
7, 36766, Note_on_c, 4, 70, 0
7, 36768, Control_c, 4, 11, 106
7, 36768, Note_on_c, 4, 61, 72
7, 36768, Note_on_c, 4, 68, 80
7, 36772, Control_c, 4, 11, 105
7, 36777, Control_c, 4, 11, 104
7, 36781, Control_c, 4, 11, 103
7, 36786, Control_c, 4, 11, 102
7, 36790, Control_c, 4, 11, 101
7, 36795, Control_c, 4, 11, 100
7, 36800, Control_c, 4, 11, 99
7, 36804, Control_c, 4, 11, 98
7, 36809, Control_c, 4, 11, 97
7, 36813, Control_c, 4, 11, 96
7, 36818, Control_c, 4, 11, 95
7, 36822, Control_c, 4, 11, 94
7, 36827, Control_c, 4, 11, 93
7, 36832, Control_c, 4, 11, 92
7, 36836, Control_c, 4, 11, 91
7, 36841, Control_c, 4, 11, 90
7, 36845, Control_c, 4, 11, 89
7, 36850, Control_c, 4, 11, 88
7, 36854, Control_c, 4, 11, 87
7, 36859, Control_c, 4, 11, 86
7, 36862, Note_on_c, 4, 61, 0
7, 36862, Note_on_c, 4, 68, 0
7, 36864, Control_c, 4, 11, 85
7, 36864, Note_on_c, 4, 56, 73
7, 36864, Note_on_c, 4, 63, 72
7, 36868, Control_c, 4, 11, 84
7, 36873, Control_c, 4, 11, 83
7, 36877, Control_c, 4, 11, 82
7, 36882, Control_c, 4, 11, 81
7, 36886, Control_c, 4, 11, 80
7, 36891, Control_c, 4, 11, 79
7, 36896, Control_c, 4, 11, 78
7, 36900, Control_c, 4, 11, 77
7, 36905, Control_c, 4, 11, 76
7, 36909, Control_c, 4, 11, 75
7, 36914, Control_c, 4, 11, 74
7, 36918, Control_c, 4, 11, 73
7, 36923, Control_c, 4, 11, 72
7, 36928, Control_c, 4, 11, 71
7, 36932, Control_c, 4, 11, 70
7, 36937, Control_c, 4, 11, 69
7, 36941, Control_c, 4, 11, 68
7, 36946, Control_c, 4, 11, 67
7, 36950, Control_c, 4, 11, 66
7, 36955, Control_c, 4, 11, 65
7, 36958, Note_on_c, 4, 56, 0
7, 36958, Note_on_c, 4, 63, 0
7, 36960, Control_c, 4, 11, 64
7, 37824, Control_c, 4, 11, 127
7, 37824, Note_on_c, 4, 67, 65
7, 37856, Note_on_c, 4, 67, 0
7, 37856, Note_on_c, 4, 65, 56
7, 37888, Note_on_c, 4, 65, 0
7, 37888, Note_on_c, 4, 62, 55
7, 37920, Note_on_c, 4, 62, 0
7, 37920, Note_on_c, 4, 60, 58
7, 38048, Note_on_c, 4, 60, 0
7, 38048, Note_on_c, 4, 62, 56
7, 38080, Note_on_c, 4, 62, 0
7, 38080, Note_on_c, 4, 65, 57
7, 38112, Note_on_c, 4, 65, 0
7, 38112, Note_on_c, 4, 67, 63
7, 38144, Note_on_c, 4, 67, 0
7, 38144, Note_on_c, 4, 65, 67
7, 38176, Note_on_c, 4, 65, 0
7, 38176, Note_on_c, 4, 62, 59
7, 38208, Note_on_c, 4, 62, 0
7, 38208, Note_on_c, 4, 65, 61
7, 38304, Note_on_c, 4, 65, 0
7, 38304, Note_on_c, 4, 67, 77
7, 38398, Note_on_c, 4, 67, 0
7, 39264, Note_on_c, 4, 51, 48
7, 39264, Note_on_c, 4, 57, 46
7, 39294, Note_on_c, 4, 51, 0
7, 39294, Note_on_c, 4, 57, 0
7, 39296, Note_on_c, 4, 54, 45
7, 39296, Note_on_c, 4, 59, 40
7, 39326, Note_on_c, 4, 54, 0
7, 39326, Note_on_c, 4, 59, 0
7, 39328, Note_on_c, 4, 51, 54
7, 39328, Note_on_c, 4, 57, 51
7, 39358, Note_on_c, 4, 51, 0
7, 39358, Note_on_c, 4, 57, 0
7, 39360, Note_on_c, 4, 54, 56
7, 39360, Note_on_c, 4, 59, 56
7, 39390, Note_on_c, 4, 54, 0
7, 39390, Note_on_c, 4, 59, 0
7, 39392, Note_on_c, 4, 57, 54
7, 39392, Note_on_c, 4, 61, 61
7, 39422, Note_on_c, 4, 57, 0
7, 39422, Note_on_c, 4, 61, 0
7, 39424, Note_on_c, 4, 54, 61
7, 39424, Note_on_c, 4, 59, 62
7, 39454, Note_on_c, 4, 54, 0
7, 39454, Note_on_c, 4, 59, 0
7, 39456, Note_on_c, 4, 57, 66
7, 39456, Note_on_c, 4, 61, 61
7, 39486, Note_on_c, 4, 57, 0
7, 39486, Note_on_c, 4, 61, 0
7, 39488, Note_on_c, 4, 59, 65
7, 39488, Note_on_c, 4, 63, 66
7, 39518, Note_on_c, 4, 59, 0
7, 39518, Note_on_c, 4, 63, 0
7, 39520, Note_on_c, 4, 63, 78
7, 39520, Note_on_c, 4, 66, 71
7, 39550, Note_on_c, 4, 63, 0
7, 39550, Note_on_c, 4, 66, 0
7, 41952, Note_on_c, 4, 50, 44
7, 41952, Note_on_c, 4, 55, 43
7, 41982, Note_on_c, 4, 50, 0
7, 41982, Note_on_c, 4, 55, 0
7, 41984, Note_on_c, 4, 53, 48
7, 41984, Note_on_c, 4, 57, 43
7, 42014, Note_on_c, 4, 53, 0
7, 42014, Note_on_c, 4, 57, 0
7, 42016, Note_on_c, 4, 50, 53
7, 42016, Note_on_c, 4, 55, 57
7, 42046, Note_on_c, 4, 50, 0
7, 42046, Note_on_c, 4, 55, 0
7, 42048, Note_on_c, 4, 53, 57
7, 42048, Note_on_c, 4, 57, 57
7, 42078, Note_on_c, 4, 53, 0
7, 42078, Note_on_c, 4, 57, 0
7, 42080, Note_on_c, 4, 55, 65
7, 42080, Note_on_c, 4, 59, 70
7, 42110, Note_on_c, 4, 55, 0
7, 42110, Note_on_c, 4, 59, 0
7, 42112, Note_on_c, 4, 57, 80
7, 42112, Note_on_c, 4, 62, 80
7, 42142, Note_on_c, 4, 57, 0
7, 42142, Note_on_c, 4, 62, 0
7, 42240, Note_on_c, 4, 50, 42
7, 42240, Note_on_c, 4, 55, 44
7, 42270, Note_on_c, 4, 50, 0
7, 42270, Note_on_c, 4, 55, 0
7, 42272, Note_on_c, 4, 53, 46
7, 42272, Note_on_c, 4, 57, 44
7, 42302, Note_on_c, 4, 53, 0
7, 42302, Note_on_c, 4, 57, 0
7, 42304, Note_on_c, 4, 50, 53
7, 42304, Note_on_c, 4, 55, 52
7, 42334, Note_on_c, 4, 50, 0
7, 42334, Note_on_c, 4, 55, 0
7, 42336, Note_on_c, 4, 53, 54
7, 42336, Note_on_c, 4, 57, 56
7, 42366, Note_on_c, 4, 53, 0
7, 42366, Note_on_c, 4, 57, 0
7, 42368, Note_on_c, 4, 55, 69
7, 42368, Note_on_c, 4, 59, 66
7, 42398, Note_on_c, 4, 55, 0
7, 42398, Note_on_c, 4, 59, 0
7, 42400, Note_on_c, 4, 57, 79
7, 42400, Note_on_c, 4, 62, 72
7, 42430, Note_on_c, 4, 57, 0
7, 42430, Note_on_c, 4, 62, 0
7, 42432, Control_c, 4, 11, 92
7, 42432, Note_on_c, 4, 59, 75
7, 42440, Control_c, 4, 11, 93
7, 42448, Control_c, 4, 11, 94
7, 42456, Control_c, 4, 11, 95
7, 42464, Control_c, 4, 11, 96
7, 42473, Control_c, 4, 11, 97
7, 42481, Control_c, 4, 11, 98
7, 42489, Control_c, 4, 11, 99
7, 42497, Control_c, 4, 11, 100
7, 42506, Control_c, 4, 11, 101
7, 42514, Control_c, 4, 11, 102
7, 42522, Control_c, 4, 11, 103
7, 42530, Control_c, 4, 11, 104
7, 42538, Control_c, 4, 11, 105
7, 42547, Control_c, 4, 11, 106
7, 42555, Control_c, 4, 11, 107
7, 42563, Control_c, 4, 11, 108
7, 42571, Control_c, 4, 11, 109
7, 42580, Control_c, 4, 11, 110
7, 42588, Control_c, 4, 11, 111
7, 42596, Control_c, 4, 11, 112
7, 42604, Control_c, 4, 11, 113
7, 42613, Control_c, 4, 11, 114
7, 42621, Control_c, 4, 11, 115
7, 42624, Note_on_c, 4, 59, 0
7, 42624, Note_on_c, 4, 62, 80
7, 42629, Control_c, 4, 11, 116
7, 42637, Control_c, 4, 11, 117
7, 42645, Control_c, 4, 11, 118
7, 42654, Control_c, 4, 11, 119
7, 42662, Control_c, 4, 11, 120
7, 42670, Control_c, 4, 11, 121
7, 42678, Control_c, 4, 11, 122
7, 42687, Control_c, 4, 11, 123
7, 42695, Control_c, 4, 11, 124
7, 42703, Control_c, 4, 11, 125
7, 42711, Control_c, 4, 11, 126
7, 42718, Note_on_c, 4, 62, 0
7, 42720, Control_c, 4, 11, 127
7, 42720, Control_c, 4, 11, 92
7, 42720, Note_on_c, 4, 59, 90
7, 42728, Control_c, 4, 11, 93
7, 42736, Control_c, 4, 11, 94
7, 42744, Control_c, 4, 11, 95
7, 42752, Control_c, 4, 11, 96
7, 42761, Control_c, 4, 11, 97
7, 42769, Control_c, 4, 11, 98
7, 42777, Control_c, 4, 11, 99
7, 42785, Control_c, 4, 11, 100
7, 42794, Control_c, 4, 11, 101
7, 42802, Control_c, 4, 11, 102
7, 42810, Control_c, 4, 11, 103
7, 42818, Control_c, 4, 11, 104
7, 42826, Control_c, 4, 11, 105
7, 42835, Control_c, 4, 11, 106
7, 42843, Control_c, 4, 11, 107
7, 42851, Control_c, 4, 11, 108
7, 42859, Control_c, 4, 11, 109
7, 42868, Control_c, 4, 11, 110
7, 42876, Control_c, 4, 11, 111
7, 42884, Control_c, 4, 11, 112
7, 42892, Control_c, 4, 11, 113
7, 42901, Control_c, 4, 11, 114
7, 42909, Control_c, 4, 11, 115
7, 42912, Note_on_c, 4, 59, 0
7, 42912, Note_on_c, 4, 62, 88
7, 42917, Control_c, 4, 11, 116
7, 42925, Control_c, 4, 11, 117
7, 42933, Control_c, 4, 11, 118
7, 42942, Control_c, 4, 11, 119
7, 42950, Control_c, 4, 11, 120
7, 42958, Control_c, 4, 11, 121
7, 42966, Control_c, 4, 11, 122
7, 42975, Control_c, 4, 11, 123
7, 42983, Control_c, 4, 11, 124
7, 42991, Control_c, 4, 11, 125
7, 42999, Control_c, 4, 11, 126
7, 43006, Note_on_c, 4, 62, 0
7, 43008, Control_c, 4, 11, 127
7, 43008, Control_c, 4, 11, 127
7, 43008, Note_on_c, 4, 56, 30
7, 43008, Note_on_c, 4, 59, 28
7, 43016, Control_c, 4, 11, 126
7, 43024, Control_c, 4, 11, 125
7, 43032, Control_c, 4, 11, 124
7, 43040, Control_c, 4, 11, 123
7, 43049, Control_c, 4, 11, 122
7, 43057, Control_c, 4, 11, 121
7, 43065, Control_c, 4, 11, 120
7, 43073, Control_c, 4, 11, 119
7, 43082, Control_c, 4, 11, 118
7, 43090, Control_c, 4, 11, 117
7, 43098, Control_c, 4, 11, 116
7, 43106, Control_c, 4, 11, 115
7, 43114, Control_c, 4, 11, 114
7, 43123, Control_c, 4, 11, 113
7, 43131, Control_c, 4, 11, 112
7, 43139, Control_c, 4, 11, 111
7, 43147, Control_c, 4, 11, 110
7, 43156, Control_c, 4, 11, 109
7, 43164, Control_c, 4, 11, 108
7, 43172, Control_c, 4, 11, 107
7, 43180, Control_c, 4, 11, 106
7, 43189, Control_c, 4, 11, 105
7, 43197, Control_c, 4, 11, 104
7, 43205, Control_c, 4, 11, 103
7, 43213, Control_c, 4, 11, 102
7, 43221, Control_c, 4, 11, 101
7, 43230, Control_c, 4, 11, 100
7, 43238, Control_c, 4, 11, 99
7, 43246, Control_c, 4, 11, 98
7, 43254, Control_c, 4, 11, 97
7, 43263, Control_c, 4, 11, 96
7, 43271, Control_c, 4, 11, 95
7, 43279, Control_c, 4, 11, 94
7, 43287, Control_c, 4, 11, 93
7, 43296, Control_c, 4, 11, 92
7, 43390, Note_on_c, 4, 56, 0
7, 43390, Note_on_c, 4, 59, 0
7, 43584, Control_c, 4, 11, 127
7, 43584, Note_on_c, 4, 56, 26
7, 43584, Note_on_c, 4, 59, 28
7, 43592, Control_c, 4, 11, 126
7, 43600, Control_c, 4, 11, 125
7, 43608, Control_c, 4, 11, 124
7, 43616, Control_c, 4, 11, 123
7, 43625, Control_c, 4, 11, 122
7, 43633, Control_c, 4, 11, 121
7, 43641, Control_c, 4, 11, 120
7, 43649, Control_c, 4, 11, 119
7, 43658, Control_c, 4, 11, 118
7, 43666, Control_c, 4, 11, 117
7, 43674, Control_c, 4, 11, 116
7, 43682, Control_c, 4, 11, 115
7, 43690, Control_c, 4, 11, 114
7, 43699, Control_c, 4, 11, 113
7, 43707, Control_c, 4, 11, 112
7, 43715, Control_c, 4, 11, 111
7, 43723, Control_c, 4, 11, 110
7, 43732, Control_c, 4, 11, 109
7, 43740, Control_c, 4, 11, 108
7, 43748, Control_c, 4, 11, 107
7, 43756, Control_c, 4, 11, 106
7, 43765, Control_c, 4, 11, 105
7, 43773, Control_c, 4, 11, 104
7, 43781, Control_c, 4, 11, 103
7, 43789, Control_c, 4, 11, 102
7, 43797, Control_c, 4, 11, 101
7, 43806, Control_c, 4, 11, 100
7, 43814, Control_c, 4, 11, 99
7, 43822, Control_c, 4, 11, 98
7, 43830, Control_c, 4, 11, 97
7, 43839, Control_c, 4, 11, 96
7, 43847, Control_c, 4, 11, 95
7, 43855, Control_c, 4, 11, 94
7, 43863, Control_c, 4, 11, 93
7, 43872, Control_c, 4, 11, 92
7, 43966, Note_on_c, 4, 56, 0
7, 43966, Note_on_c, 4, 59, 0
7, 44160, Control_c, 4, 11, 127
7, 44160, Note_on_c, 4, 56, 27
7, 44160, Note_on_c, 4, 59, 33
7, 44168, Control_c, 4, 11, 126
7, 44176, Control_c, 4, 11, 125
7, 44184, Control_c, 4, 11, 124
7, 44192, Control_c, 4, 11, 123
7, 44201, Control_c, 4, 11, 122
7, 44209, Control_c, 4, 11, 121
7, 44217, Control_c, 4, 11, 120
7, 44225, Control_c, 4, 11, 119
7, 44234, Control_c, 4, 11, 118
7, 44242, Control_c, 4, 11, 117
7, 44250, Control_c, 4, 11, 116
7, 44258, Control_c, 4, 11, 115
7, 44266, Control_c, 4, 11, 114
7, 44275, Control_c, 4, 11, 113
7, 44283, Control_c, 4, 11, 112
7, 44291, Control_c, 4, 11, 111
7, 44299, Control_c, 4, 11, 110
7, 44308, Control_c, 4, 11, 109
7, 44316, Control_c, 4, 11, 108
7, 44324, Control_c, 4, 11, 107
7, 44332, Control_c, 4, 11, 106
7, 44341, Control_c, 4, 11, 105
7, 44349, Control_c, 4, 11, 104
7, 44357, Control_c, 4, 11, 103
7, 44365, Control_c, 4, 11, 102
7, 44373, Control_c, 4, 11, 101
7, 44382, Control_c, 4, 11, 100
7, 44390, Control_c, 4, 11, 99
7, 44398, Control_c, 4, 11, 98
7, 44406, Control_c, 4, 11, 97
7, 44415, Control_c, 4, 11, 96
7, 44423, Control_c, 4, 11, 95
7, 44431, Control_c, 4, 11, 94
7, 44439, Control_c, 4, 11, 93
7, 44448, Control_c, 4, 11, 92
7, 44542, Note_on_c, 4, 56, 0
7, 44542, Note_on_c, 4, 59, 0
7, 44736, Control_c, 4, 11, 127
7, 44736, Note_on_c, 4, 56, 30
7, 44736, Note_on_c, 4, 59, 32
7, 44744, Control_c, 4, 11, 126
7, 44752, Control_c, 4, 11, 125
7, 44760, Control_c, 4, 11, 124
7, 44768, Control_c, 4, 11, 123
7, 44777, Control_c, 4, 11, 122
7, 44785, Control_c, 4, 11, 121
7, 44793, Control_c, 4, 11, 120
7, 44801, Control_c, 4, 11, 119
7, 44810, Control_c, 4, 11, 118
7, 44818, Control_c, 4, 11, 117
7, 44826, Control_c, 4, 11, 116
7, 44834, Control_c, 4, 11, 115
7, 44842, Control_c, 4, 11, 114
7, 44851, Control_c, 4, 11, 113
7, 44859, Control_c, 4, 11, 112
7, 44867, Control_c, 4, 11, 111
7, 44875, Control_c, 4, 11, 110
7, 44884, Control_c, 4, 11, 109
7, 44892, Control_c, 4, 11, 108
7, 44900, Control_c, 4, 11, 107
7, 44908, Control_c, 4, 11, 106
7, 44917, Control_c, 4, 11, 105
7, 44925, Control_c, 4, 11, 104
7, 44933, Control_c, 4, 11, 103
7, 44941, Control_c, 4, 11, 102
7, 44949, Control_c, 4, 11, 101
7, 44958, Control_c, 4, 11, 100
7, 44966, Control_c, 4, 11, 99
7, 44974, Control_c, 4, 11, 98
7, 44982, Control_c, 4, 11, 97
7, 44991, Control_c, 4, 11, 96
7, 44999, Control_c, 4, 11, 95
7, 45007, Control_c, 4, 11, 94
7, 45015, Control_c, 4, 11, 93
7, 45024, Control_c, 4, 11, 92
7, 45118, Note_on_c, 4, 56, 0
7, 45118, Note_on_c, 4, 59, 0
7, 45216, Control_c, 4, 11, 127
7, 45312, Note_on_c, 4, 40, 25
7, 45888, Note_on_c, 4, 40, 0
7, 45888, Note_on_c, 4, 41, 28
7, 46176, Note_on_c, 4, 41, 0
7, 46176, Note_on_c, 4, 43, 35
7, 46336, Note_on_c, 4, 43, 0
7, 47040, Control_c, 4, 11, 92
7, 47040, Note_on_c, 4, 53, 45
7, 47056, Control_c, 4, 11, 93
7, 47072, Control_c, 4, 11, 94
7, 47089, Control_c, 4, 11, 95
7, 47105, Control_c, 4, 11, 96
7, 47122, Control_c, 4, 11, 97
7, 47138, Control_c, 4, 11, 98
7, 47155, Control_c, 4, 11, 99
7, 47171, Control_c, 4, 11, 100
7, 47188, Control_c, 4, 11, 101
7, 47204, Control_c, 4, 11, 102
7, 47221, Control_c, 4, 11, 103
7, 47237, Control_c, 4, 11, 104
7, 47253, Control_c, 4, 11, 105
7, 47270, Control_c, 4, 11, 106
7, 47286, Control_c, 4, 11, 107
7, 47303, Control_c, 4, 11, 108
7, 47319, Control_c, 4, 11, 109
7, 47336, Control_c, 4, 11, 110
7, 47352, Control_c, 4, 11, 111
7, 47369, Control_c, 4, 11, 112
7, 47385, Control_c, 4, 11, 113
7, 47402, Control_c, 4, 11, 114
7, 47418, Control_c, 4, 11, 115
7, 47424, Note_on_c, 4, 53, 0
7, 47424, Note_on_c, 4, 54, 41
7, 47434, Control_c, 4, 11, 116
7, 47451, Control_c, 4, 11, 117
7, 47467, Control_c, 4, 11, 118
7, 47484, Control_c, 4, 11, 119
7, 47500, Control_c, 4, 11, 120
7, 47517, Control_c, 4, 11, 121
7, 47520, Note_on_c, 4, 54, 0
7, 47520, Note_on_c, 4, 55, 45
7, 47533, Control_c, 4, 11, 122
7, 47550, Control_c, 4, 11, 123
7, 47566, Control_c, 4, 11, 124
7, 47583, Control_c, 4, 11, 125
7, 47599, Control_c, 4, 11, 126
7, 47614, Note_on_c, 4, 55, 0
7, 47616, Control_c, 4, 11, 127
7, 48192, Control_c, 4, 11, 92
7, 48192, Note_on_c, 4, 53, 61
7, 48208, Control_c, 4, 11, 93
7, 48224, Control_c, 4, 11, 94
7, 48241, Control_c, 4, 11, 95
7, 48257, Control_c, 4, 11, 96
7, 48274, Control_c, 4, 11, 97
7, 48290, Control_c, 4, 11, 98
7, 48307, Control_c, 4, 11, 99
7, 48323, Control_c, 4, 11, 100
7, 48340, Control_c, 4, 11, 101
7, 48356, Control_c, 4, 11, 102
7, 48373, Control_c, 4, 11, 103
7, 48384, Note_on_c, 4, 53, 0
7, 48384, Note_on_c, 4, 54, 59
7, 48389, Control_c, 4, 11, 104
7, 48405, Control_c, 4, 11, 105
7, 48422, Control_c, 4, 11, 106
7, 48438, Control_c, 4, 11, 107
7, 48455, Control_c, 4, 11, 108
7, 48471, Control_c, 4, 11, 109
7, 48480, Note_on_c, 4, 54, 0
7, 48480, Note_on_c, 4, 53, 62
7, 48488, Control_c, 4, 11, 110
7, 48504, Control_c, 4, 11, 111
7, 48521, Control_c, 4, 11, 112
7, 48537, Control_c, 4, 11, 113
7, 48554, Control_c, 4, 11, 114
7, 48570, Control_c, 4, 11, 115
7, 48586, Control_c, 4, 11, 116
7, 48603, Control_c, 4, 11, 117
7, 48619, Control_c, 4, 11, 118
7, 48636, Control_c, 4, 11, 119
7, 48652, Control_c, 4, 11, 120
7, 48669, Control_c, 4, 11, 121
7, 48672, Note_on_c, 4, 53, 0
7, 48672, Note_on_c, 4, 56, 61
7, 48685, Control_c, 4, 11, 122
7, 48702, Control_c, 4, 11, 123
7, 48718, Control_c, 4, 11, 124
7, 48735, Control_c, 4, 11, 125
7, 48751, Control_c, 4, 11, 126
7, 48766, Note_on_c, 4, 56, 0
7, 48768, Control_c, 4, 11, 127
7, 48768, Control_c, 4, 11, 92
7, 48768, Note_on_c, 4, 53, 60
7, 48773, Control_c, 4, 11, 93
7, 48778, Control_c, 4, 11, 94
7, 48784, Control_c, 4, 11, 95
7, 48789, Control_c, 4, 11, 96
7, 48795, Control_c, 4, 11, 97
7, 48800, Control_c, 4, 11, 98
7, 48806, Control_c, 4, 11, 99
7, 48811, Control_c, 4, 11, 100
7, 48817, Control_c, 4, 11, 101
7, 48822, Control_c, 4, 11, 102
7, 48828, Control_c, 4, 11, 103
7, 48833, Control_c, 4, 11, 104
7, 48839, Control_c, 4, 11, 105
7, 48844, Control_c, 4, 11, 106
7, 48850, Control_c, 4, 11, 107
7, 48855, Control_c, 4, 11, 108
7, 48861, Control_c, 4, 11, 109
7, 48866, Control_c, 4, 11, 110
7, 48872, Control_c, 4, 11, 111
7, 48877, Control_c, 4, 11, 112
7, 48883, Control_c, 4, 11, 113
7, 48888, Control_c, 4, 11, 114
7, 48894, Control_c, 4, 11, 115
7, 48899, Control_c, 4, 11, 116
7, 48905, Control_c, 4, 11, 117
7, 48910, Control_c, 4, 11, 118
7, 48912, Note_on_c, 4, 53, 0
7, 48912, Note_on_c, 4, 54, 57
7, 48916, Control_c, 4, 11, 119
7, 48921, Control_c, 4, 11, 120
7, 48927, Control_c, 4, 11, 121
7, 48932, Control_c, 4, 11, 122
7, 48938, Control_c, 4, 11, 123
7, 48943, Control_c, 4, 11, 124
7, 48949, Control_c, 4, 11, 125
7, 48954, Control_c, 4, 11, 126
7, 48960, Note_on_c, 4, 54, 0
7, 48960, Control_c, 4, 11, 127
7, 48960, Note_on_c, 4, 55, 61
7, 48962, Control_c, 4, 11, 126
7, 48965, Control_c, 4, 11, 125
7, 48968, Control_c, 4, 11, 124
7, 48970, Control_c, 4, 11, 123
7, 48973, Control_c, 4, 11, 122
7, 48976, Control_c, 4, 11, 121
7, 48979, Control_c, 4, 11, 120
7, 48981, Control_c, 4, 11, 119
7, 48984, Control_c, 4, 11, 118
7, 48987, Control_c, 4, 11, 117
7, 48990, Control_c, 4, 11, 116
7, 48992, Control_c, 4, 11, 115
7, 48995, Control_c, 4, 11, 114
7, 48998, Control_c, 4, 11, 113
7, 49001, Control_c, 4, 11, 112
7, 49003, Control_c, 4, 11, 111
7, 49006, Control_c, 4, 11, 110
7, 49008, Note_on_c, 4, 55, 0
7, 49008, Note_on_c, 4, 54, 57
7, 49009, Control_c, 4, 11, 109
7, 49012, Control_c, 4, 11, 108
7, 49014, Control_c, 4, 11, 107
7, 49017, Control_c, 4, 11, 106
7, 49020, Control_c, 4, 11, 105
7, 49023, Control_c, 4, 11, 104
7, 49025, Control_c, 4, 11, 103
7, 49028, Control_c, 4, 11, 102
7, 49031, Control_c, 4, 11, 101
7, 49034, Control_c, 4, 11, 100
7, 49036, Control_c, 4, 11, 99
7, 49039, Control_c, 4, 11, 98
7, 49042, Control_c, 4, 11, 97
7, 49045, Control_c, 4, 11, 96
7, 49047, Control_c, 4, 11, 95
7, 49050, Control_c, 4, 11, 94
7, 49053, Control_c, 4, 11, 93
7, 49056, Note_on_c, 4, 54, 0
7, 49056, Control_c, 4, 11, 92
7, 49056, Note_on_c, 4, 53, 64
7, 49064, Control_c, 4, 11, 93
7, 49072, Control_c, 4, 11, 94
7, 49080, Control_c, 4, 11, 95
7, 49088, Control_c, 4, 11, 96
7, 49097, Control_c, 4, 11, 97
7, 49105, Control_c, 4, 11, 98
7, 49113, Control_c, 4, 11, 99
7, 49121, Control_c, 4, 11, 100
7, 49130, Control_c, 4, 11, 101
7, 49138, Control_c, 4, 11, 102
7, 49146, Control_c, 4, 11, 103
7, 49154, Control_c, 4, 11, 104
7, 49162, Control_c, 4, 11, 105
7, 49171, Control_c, 4, 11, 106
7, 49179, Control_c, 4, 11, 107
7, 49187, Control_c, 4, 11, 108
7, 49195, Control_c, 4, 11, 109
7, 49204, Control_c, 4, 11, 110
7, 49212, Control_c, 4, 11, 111
7, 49220, Control_c, 4, 11, 112
7, 49228, Control_c, 4, 11, 113
7, 49237, Control_c, 4, 11, 114
7, 49245, Control_c, 4, 11, 115
7, 49248, Note_on_c, 4, 53, 0
7, 49248, Note_on_c, 4, 56, 63
7, 49253, Control_c, 4, 11, 116
7, 49261, Control_c, 4, 11, 117
7, 49269, Control_c, 4, 11, 118
7, 49278, Control_c, 4, 11, 119
7, 49286, Control_c, 4, 11, 120
7, 49294, Control_c, 4, 11, 121
7, 49302, Control_c, 4, 11, 122
7, 49311, Control_c, 4, 11, 123
7, 49319, Control_c, 4, 11, 124
7, 49327, Control_c, 4, 11, 125
7, 49335, Control_c, 4, 11, 126
7, 49342, Note_on_c, 4, 56, 0
7, 49344, Control_c, 4, 11, 127
7, 52512, Control_c, 4, 11, 127
7, 52512, Note_on_c, 4, 47, 34
7, 52512, Note_on_c, 4, 54, 33
7, 52654, Note_on_c, 4, 47, 0
7, 52654, Note_on_c, 4, 54, 0
7, 52800, Note_on_c, 4, 47, 30
7, 52800, Note_on_c, 4, 54, 33
7, 52942, Note_on_c, 4, 47, 0
7, 52942, Note_on_c, 4, 54, 0
7, 53088, Note_on_c, 4, 47, 26
7, 53088, Note_on_c, 4, 54, 29
7, 53230, Note_on_c, 4, 47, 0
7, 53230, Note_on_c, 4, 54, 0
7, 53376, Note_on_c, 4, 47, 28
7, 53376, Note_on_c, 4, 54, 34
7, 53518, Note_on_c, 4, 47, 0
7, 53518, Note_on_c, 4, 54, 0
7, 53664, Note_on_c, 4, 55, 42
7, 53664, Note_on_c, 4, 67, 47
7, 53710, Note_on_c, 4, 55, 0
7, 53710, Note_on_c, 4, 67, 0
7, 53712, Note_on_c, 4, 56, 46
7, 53712, Note_on_c, 4, 68, 45
7, 53758, Note_on_c, 4, 56, 0
7, 53758, Note_on_c, 4, 68, 0
7, 53760, Note_on_c, 4, 53, 44
7, 53760, Note_on_c, 4, 65, 53
7, 53854, Note_on_c, 4, 53, 0
7, 53854, Note_on_c, 4, 65, 0
7, 53856, Note_on_c, 4, 56, 53
7, 53856, Note_on_c, 4, 68, 56
7, 53950, Note_on_c, 4, 56, 0
7, 53950, Note_on_c, 4, 68, 0
7, 53952, Note_on_c, 4, 58, 66
7, 53952, Note_on_c, 4, 70, 70
7, 54046, Note_on_c, 4, 58, 0
7, 54046, Note_on_c, 4, 70, 0
7, 54048, Note_on_c, 4, 56, 72
7, 54048, Note_on_c, 4, 68, 69
7, 54142, Note_on_c, 4, 56, 0
7, 54142, Note_on_c, 4, 68, 0
7, 54144, Note_on_c, 4, 53, 86
7, 54144, Note_on_c, 4, 65, 83
7, 54238, Note_on_c, 4, 53, 0
7, 54238, Note_on_c, 4, 65, 0
7, 54240, Control_c, 4, 11, 92
7, 54240, Note_on_c, 4, 55, 97
7, 54240, Note_on_c, 4, 67, 95
7, 54250, Control_c, 4, 11, 93
7, 54261, Control_c, 4, 11, 94
7, 54272, Control_c, 4, 11, 95
7, 54283, Control_c, 4, 11, 96
7, 54286, Note_on_c, 4, 55, 0
7, 54286, Note_on_c, 4, 67, 0
7, 54288, Note_on_c, 4, 56, 94
7, 54288, Note_on_c, 4, 68, 96
7, 54294, Control_c, 4, 11, 97
7, 54305, Control_c, 4, 11, 98
7, 54316, Control_c, 4, 11, 99
7, 54327, Control_c, 4, 11, 100
7, 54334, Note_on_c, 4, 56, 0
7, 54334, Note_on_c, 4, 68, 0
7, 54336, Note_on_c, 4, 56, 91
7, 54336, Note_on_c, 4, 68, 97
7, 54338, Control_c, 4, 11, 101
7, 54349, Control_c, 4, 11, 102
7, 54360, Control_c, 4, 11, 103
7, 54371, Control_c, 4, 11, 104
7, 54382, Control_c, 4, 11, 105
7, 54393, Control_c, 4, 11, 106
7, 54404, Control_c, 4, 11, 107
7, 54415, Control_c, 4, 11, 108
7, 54426, Control_c, 4, 11, 109
7, 54437, Control_c, 4, 11, 110
7, 54448, Control_c, 4, 11, 111
7, 54459, Control_c, 4, 11, 112
7, 54470, Control_c, 4, 11, 113
7, 54481, Control_c, 4, 11, 114
7, 54492, Control_c, 4, 11, 115
7, 54503, Control_c, 4, 11, 116
7, 54514, Control_c, 4, 11, 117
7, 54525, Control_c, 4, 11, 118
7, 54536, Control_c, 4, 11, 119
7, 54547, Control_c, 4, 11, 120
7, 54558, Control_c, 4, 11, 121
7, 54569, Control_c, 4, 11, 122
7, 54580, Control_c, 4, 11, 123
7, 54591, Control_c, 4, 11, 124
7, 54602, Control_c, 4, 11, 125
7, 54613, Control_c, 4, 11, 126
7, 54622, Note_on_c, 4, 56, 0
7, 54622, Note_on_c, 4, 68, 0
7, 54624, Control_c, 4, 11, 127
7, 56544, Control_c, 4, 11, 92
7, 56544, Note_on_c, 4, 50, 97
7, 56545, Control_c, 4, 11, 93
7, 56546, Control_c, 4, 11, 94
7, 56548, Control_c, 4, 11, 95
7, 56549, Control_c, 4, 11, 96
7, 56550, Control_c, 4, 11, 97
7, 56552, Control_c, 4, 11, 98
7, 56553, Control_c, 4, 11, 99
7, 56554, Control_c, 4, 11, 100
7, 56556, Control_c, 4, 11, 101
7, 56557, Control_c, 4, 11, 102
7, 56559, Control_c, 4, 11, 103
7, 56560, Control_c, 4, 11, 104
7, 56561, Control_c, 4, 11, 105
7, 56563, Control_c, 4, 11, 106
7, 56564, Control_c, 4, 11, 107
7, 56565, Control_c, 4, 11, 108
7, 56567, Control_c, 4, 11, 109
7, 56568, Control_c, 4, 11, 110
7, 56570, Control_c, 4, 11, 111
7, 56571, Control_c, 4, 11, 112
7, 56572, Control_c, 4, 11, 113
7, 56574, Control_c, 4, 11, 114
7, 56575, Control_c, 4, 11, 115
7, 56576, Control_c, 4, 11, 116
7, 56578, Control_c, 4, 11, 117
7, 56579, Control_c, 4, 11, 118
7, 56581, Control_c, 4, 11, 119
7, 56582, Control_c, 4, 11, 120
7, 56583, Control_c, 4, 11, 121
7, 56585, Control_c, 4, 11, 122
7, 56586, Control_c, 4, 11, 123
7, 56587, Control_c, 4, 11, 124
7, 56589, Control_c, 4, 11, 125
7, 56590, Control_c, 4, 11, 126
7, 56592, Control_c, 4, 11, 127
7, 56593, Control_c, 4, 11, 126
7, 56594, Control_c, 4, 11, 125
7, 56596, Control_c, 4, 11, 124
7, 56597, Control_c, 4, 11, 123
7, 56598, Control_c, 4, 11, 122
7, 56600, Control_c, 4, 11, 121
7, 56601, Control_c, 4, 11, 120
7, 56602, Control_c, 4, 11, 119
7, 56604, Control_c, 4, 11, 118
7, 56605, Control_c, 4, 11, 117
7, 56607, Control_c, 4, 11, 116
7, 56608, Control_c, 4, 11, 115
7, 56609, Control_c, 4, 11, 114
7, 56611, Control_c, 4, 11, 113
7, 56612, Control_c, 4, 11, 112
7, 56613, Control_c, 4, 11, 111
7, 56615, Control_c, 4, 11, 110
7, 56616, Control_c, 4, 11, 109
7, 56618, Control_c, 4, 11, 108
7, 56619, Control_c, 4, 11, 107
7, 56620, Control_c, 4, 11, 106
7, 56622, Control_c, 4, 11, 105
7, 56623, Control_c, 4, 11, 104
7, 56624, Control_c, 4, 11, 103
7, 56626, Control_c, 4, 11, 102
7, 56627, Control_c, 4, 11, 101
7, 56629, Control_c, 4, 11, 100
7, 56630, Control_c, 4, 11, 99
7, 56631, Control_c, 4, 11, 98
7, 56633, Control_c, 4, 11, 97
7, 56634, Control_c, 4, 11, 96
7, 56635, Control_c, 4, 11, 95
7, 56637, Control_c, 4, 11, 94
7, 56638, Control_c, 4, 11, 93
7, 56640, Control_c, 4, 11, 92
7, 56704, Note_on_c, 4, 50, 0
7, 56736, Control_c, 4, 11, 92
7, 56736, Note_on_c, 4, 47, 88
7, 56737, Control_c, 4, 11, 93
7, 56738, Control_c, 4, 11, 94
7, 56740, Control_c, 4, 11, 95
7, 56741, Control_c, 4, 11, 96
7, 56742, Control_c, 4, 11, 97
7, 56744, Control_c, 4, 11, 98
7, 56745, Control_c, 4, 11, 99
7, 56746, Control_c, 4, 11, 100
7, 56748, Control_c, 4, 11, 101
7, 56749, Control_c, 4, 11, 102
7, 56751, Control_c, 4, 11, 103
7, 56752, Control_c, 4, 11, 104
7, 56753, Control_c, 4, 11, 105
7, 56755, Control_c, 4, 11, 106
7, 56756, Control_c, 4, 11, 107
7, 56757, Control_c, 4, 11, 108
7, 56759, Control_c, 4, 11, 109
7, 56760, Control_c, 4, 11, 110
7, 56762, Control_c, 4, 11, 111
7, 56763, Control_c, 4, 11, 112
7, 56764, Control_c, 4, 11, 113
7, 56766, Control_c, 4, 11, 114
7, 56767, Control_c, 4, 11, 115
7, 56768, Control_c, 4, 11, 116
7, 56770, Control_c, 4, 11, 117
7, 56771, Control_c, 4, 11, 118
7, 56773, Control_c, 4, 11, 119
7, 56774, Control_c, 4, 11, 120
7, 56775, Control_c, 4, 11, 121
7, 56777, Control_c, 4, 11, 122
7, 56778, Control_c, 4, 11, 123
7, 56779, Control_c, 4, 11, 124
7, 56781, Control_c, 4, 11, 125
7, 56782, Control_c, 4, 11, 126
7, 56784, Control_c, 4, 11, 127
7, 56785, Control_c, 4, 11, 126
7, 56786, Control_c, 4, 11, 125
7, 56788, Control_c, 4, 11, 124
7, 56789, Control_c, 4, 11, 123
7, 56790, Control_c, 4, 11, 122
7, 56792, Control_c, 4, 11, 121
7, 56793, Control_c, 4, 11, 120
7, 56794, Control_c, 4, 11, 119
7, 56796, Control_c, 4, 11, 118
7, 56797, Control_c, 4, 11, 117
7, 56799, Control_c, 4, 11, 116
7, 56800, Control_c, 4, 11, 115
7, 56801, Control_c, 4, 11, 114
7, 56803, Control_c, 4, 11, 113
7, 56804, Control_c, 4, 11, 112
7, 56805, Control_c, 4, 11, 111
7, 56807, Control_c, 4, 11, 110
7, 56808, Control_c, 4, 11, 109
7, 56810, Control_c, 4, 11, 108
7, 56811, Control_c, 4, 11, 107
7, 56812, Control_c, 4, 11, 106
7, 56814, Control_c, 4, 11, 105
7, 56815, Control_c, 4, 11, 104
7, 56816, Control_c, 4, 11, 103
7, 56818, Control_c, 4, 11, 102
7, 56819, Control_c, 4, 11, 101
7, 56821, Control_c, 4, 11, 100
7, 56822, Control_c, 4, 11, 99
7, 56823, Control_c, 4, 11, 98
7, 56825, Control_c, 4, 11, 97
7, 56826, Control_c, 4, 11, 96
7, 56827, Control_c, 4, 11, 95
7, 56829, Control_c, 4, 11, 94
7, 56830, Control_c, 4, 11, 93
7, 56832, Control_c, 4, 11, 92
7, 56896, Note_on_c, 4, 47, 0
7, 56928, Control_c, 4, 11, 92
7, 56928, Note_on_c, 4, 44, 95
7, 56929, Control_c, 4, 11, 93
7, 56930, Control_c, 4, 11, 94
7, 56932, Control_c, 4, 11, 95
7, 56933, Control_c, 4, 11, 96
7, 56934, Control_c, 4, 11, 97
7, 56936, Control_c, 4, 11, 98
7, 56937, Control_c, 4, 11, 99
7, 56938, Control_c, 4, 11, 100
7, 56940, Control_c, 4, 11, 101
7, 56941, Control_c, 4, 11, 102
7, 56943, Control_c, 4, 11, 103
7, 56944, Control_c, 4, 11, 104
7, 56945, Control_c, 4, 11, 105
7, 56947, Control_c, 4, 11, 106
7, 56948, Control_c, 4, 11, 107
7, 56949, Control_c, 4, 11, 108
7, 56951, Control_c, 4, 11, 109
7, 56952, Control_c, 4, 11, 110
7, 56954, Control_c, 4, 11, 111
7, 56955, Control_c, 4, 11, 112
7, 56956, Control_c, 4, 11, 113
7, 56958, Control_c, 4, 11, 114
7, 56959, Control_c, 4, 11, 115
7, 56960, Control_c, 4, 11, 116
7, 56962, Control_c, 4, 11, 117
7, 56963, Control_c, 4, 11, 118
7, 56965, Control_c, 4, 11, 119
7, 56966, Control_c, 4, 11, 120
7, 56967, Control_c, 4, 11, 121
7, 56969, Control_c, 4, 11, 122
7, 56970, Control_c, 4, 11, 123
7, 56971, Control_c, 4, 11, 124
7, 56973, Control_c, 4, 11, 125
7, 56974, Control_c, 4, 11, 126
7, 56976, Control_c, 4, 11, 127
7, 56977, Control_c, 4, 11, 126
7, 56978, Control_c, 4, 11, 125
7, 56980, Control_c, 4, 11, 124
7, 56981, Control_c, 4, 11, 123
7, 56982, Control_c, 4, 11, 122
7, 56984, Control_c, 4, 11, 121
7, 56985, Control_c, 4, 11, 120
7, 56986, Control_c, 4, 11, 119
7, 56988, Control_c, 4, 11, 118
7, 56989, Control_c, 4, 11, 117
7, 56991, Control_c, 4, 11, 116
7, 56992, Control_c, 4, 11, 115
7, 56993, Control_c, 4, 11, 114
7, 56995, Control_c, 4, 11, 113
7, 56996, Control_c, 4, 11, 112
7, 56997, Control_c, 4, 11, 111
7, 56999, Control_c, 4, 11, 110
7, 57000, Control_c, 4, 11, 109
7, 57002, Control_c, 4, 11, 108
7, 57003, Control_c, 4, 11, 107
7, 57004, Control_c, 4, 11, 106
7, 57006, Control_c, 4, 11, 105
7, 57007, Control_c, 4, 11, 104
7, 57008, Control_c, 4, 11, 103
7, 57010, Control_c, 4, 11, 102
7, 57011, Control_c, 4, 11, 101
7, 57013, Control_c, 4, 11, 100
7, 57014, Control_c, 4, 11, 99
7, 57015, Control_c, 4, 11, 98
7, 57017, Control_c, 4, 11, 97
7, 57018, Control_c, 4, 11, 96
7, 57019, Control_c, 4, 11, 95
7, 57021, Control_c, 4, 11, 94
7, 57022, Control_c, 4, 11, 93
7, 57024, Control_c, 4, 11, 92
7, 57088, Note_on_c, 4, 44, 0
7, 69600, Control_c, 4, 11, 45
7, 69600, Note_on_c, 4, 48, 92
7, 69628, Control_c, 4, 11, 46
7, 69656, Control_c, 4, 11, 47
7, 69684, Control_c, 4, 11, 48
7, 69712, Control_c, 4, 11, 49
7, 69740, Control_c, 4, 11, 50
7, 69760, Note_on_c, 4, 48, 0
7, 69768, Control_c, 4, 11, 51
7, 69792, Note_on_c, 4, 53, 96
7, 69796, Control_c, 4, 11, 52
7, 69824, Note_on_c, 4, 53, 0
7, 69824, Control_c, 4, 11, 53
7, 69852, Control_c, 4, 11, 54
7, 69880, Control_c, 4, 11, 55
7, 69888, Note_on_c, 4, 60, 96
7, 69909, Control_c, 4, 11, 56
7, 69920, Note_on_c, 4, 60, 0
7, 69937, Control_c, 4, 11, 57
7, 69965, Control_c, 4, 11, 58
7, 69984, Note_on_c, 4, 48, 97
7, 69993, Control_c, 4, 11, 59
7, 70021, Control_c, 4, 11, 60
7, 70049, Control_c, 4, 11, 61
7, 70077, Control_c, 4, 11, 62
7, 70105, Control_c, 4, 11, 63
7, 70133, Control_c, 4, 11, 64
7, 70144, Note_on_c, 4, 48, 0
7, 70161, Control_c, 4, 11, 65
7, 70176, Note_on_c, 4, 53, 93
7, 70190, Control_c, 4, 11, 66
7, 70208, Note_on_c, 4, 53, 0
7, 70218, Control_c, 4, 11, 67
7, 70246, Control_c, 4, 11, 68
7, 70272, Note_on_c, 4, 60, 87
7, 70274, Control_c, 4, 11, 69
7, 70302, Control_c, 4, 11, 70
7, 70304, Note_on_c, 4, 60, 0
7, 70330, Control_c, 4, 11, 71
7, 70358, Control_c, 4, 11, 72
7, 70386, Control_c, 4, 11, 73
7, 70414, Control_c, 4, 11, 74
7, 70442, Control_c, 4, 11, 75
7, 70464, Note_on_c, 4, 48, 88
7, 70471, Control_c, 4, 11, 76
7, 70496, Note_on_c, 4, 48, 0
7, 70499, Control_c, 4, 11, 77
7, 70527, Control_c, 4, 11, 78
7, 70555, Control_c, 4, 11, 79
7, 70560, Note_on_c, 4, 53, 88
7, 70583, Control_c, 4, 11, 80
7, 70592, Note_on_c, 4, 53, 0
7, 70611, Control_c, 4, 11, 81
7, 70639, Control_c, 4, 11, 82
7, 70656, Note_on_c, 4, 60, 95
7, 70667, Control_c, 4, 11, 83
7, 70688, Note_on_c, 4, 60, 0
7, 70695, Control_c, 4, 11, 84
7, 70723, Control_c, 4, 11, 85
7, 70751, Control_c, 4, 11, 86
7, 70752, Note_on_c, 4, 48, 95
7, 70780, Control_c, 4, 11, 87
7, 70784, Note_on_c, 4, 48, 0
7, 70808, Control_c, 4, 11, 88
7, 70836, Control_c, 4, 11, 89
7, 70848, Note_on_c, 4, 53, 94
7, 70864, Control_c, 4, 11, 90
7, 70880, Note_on_c, 4, 53, 0
7, 70892, Control_c, 4, 11, 91
7, 70920, Control_c, 4, 11, 92
7, 70944, Note_on_c, 4, 60, 92
7, 70948, Control_c, 4, 11, 93
7, 70976, Note_on_c, 4, 60, 0
7, 70976, Control_c, 4, 11, 94
7, 71004, Control_c, 4, 11, 95
7, 71032, Control_c, 4, 11, 96
7, 71040, Note_on_c, 4, 48, 87
7, 71061, Control_c, 4, 11, 97
7, 71072, Note_on_c, 4, 48, 0
7, 71089, Control_c, 4, 11, 98
7, 71117, Control_c, 4, 11, 99
7, 71136, Note_on_c, 4, 60, 89
7, 71145, Control_c, 4, 11, 100
7, 71168, Note_on_c, 4, 60, 0
7, 71173, Control_c, 4, 11, 101
7, 71201, Control_c, 4, 11, 102
7, 71229, Control_c, 4, 11, 103
7, 71232, Note_on_c, 4, 67, 96
7, 71257, Control_c, 4, 11, 104
7, 71264, Note_on_c, 4, 67, 0
7, 71285, Control_c, 4, 11, 105
7, 71313, Control_c, 4, 11, 106
7, 71328, Note_on_c, 4, 55, 89
7, 71342, Control_c, 4, 11, 107
7, 71360, Note_on_c, 4, 55, 0
7, 71370, Control_c, 4, 11, 108
7, 71398, Control_c, 4, 11, 109
7, 71424, Note_on_c, 4, 60, 88
7, 71426, Control_c, 4, 11, 110
7, 71454, Control_c, 4, 11, 111
7, 71456, Note_on_c, 4, 60, 0
7, 71482, Control_c, 4, 11, 112
7, 71510, Control_c, 4, 11, 113
7, 71520, Note_on_c, 4, 67, 91
7, 71538, Control_c, 4, 11, 114
7, 71552, Note_on_c, 4, 67, 0
7, 71566, Control_c, 4, 11, 115
7, 71594, Control_c, 4, 11, 116
7, 71616, Note_on_c, 4, 55, 87
7, 71623, Control_c, 4, 11, 117
7, 71648, Note_on_c, 4, 55, 0
7, 71651, Control_c, 4, 11, 118
7, 71679, Control_c, 4, 11, 119
7, 71707, Control_c, 4, 11, 120
7, 71712, Note_on_c, 4, 60, 97
7, 71735, Control_c, 4, 11, 121
7, 71744, Note_on_c, 4, 60, 0
7, 71763, Control_c, 4, 11, 122
7, 71791, Control_c, 4, 11, 123
7, 71808, Note_on_c, 4, 67, 88
7, 71819, Control_c, 4, 11, 124
7, 71840, Note_on_c, 4, 67, 0
7, 71847, Control_c, 4, 11, 125
7, 71875, Control_c, 4, 11, 126
7, 71904, Control_c, 4, 11, 127
7, 71904, Control_c, 4, 7, 92
7, 71904, Control_c, 4, 11, 92
7, 71904, Note_on_c, 4, 48, 107
7, 71904, Note_on_c, 4, 53, 107
7, 71909, Control_c, 4, 11, 93
7, 71914, Control_c, 4, 11, 94
7, 71920, Control_c, 4, 11, 95
7, 71925, Control_c, 4, 11, 96
7, 71926, Note_on_c, 4, 48, 0
7, 71926, Note_on_c, 4, 53, 0
7, 71928, Note_on_c, 4, 55, 113
7, 71928, Note_on_c, 4, 58, 110
7, 71931, Control_c, 4, 11, 97
7, 71936, Control_c, 4, 11, 98
7, 71942, Control_c, 4, 11, 99
7, 71947, Control_c, 4, 11, 100
7, 71953, Control_c, 4, 11, 101
7, 71958, Control_c, 4, 11, 102
7, 71964, Control_c, 4, 11, 103
7, 71969, Control_c, 4, 11, 104
7, 71975, Control_c, 4, 11, 105
7, 71980, Control_c, 4, 11, 106
7, 71986, Control_c, 4, 11, 107
7, 71991, Control_c, 4, 11, 108
7, 71997, Control_c, 4, 11, 109
7, 72002, Control_c, 4, 11, 110
7, 72008, Control_c, 4, 11, 111
7, 72013, Control_c, 4, 11, 112
7, 72019, Control_c, 4, 11, 113
7, 72024, Control_c, 4, 11, 114
7, 72030, Control_c, 4, 11, 115
7, 72035, Control_c, 4, 11, 116
7, 72041, Control_c, 4, 11, 117
7, 72046, Control_c, 4, 11, 118
7, 72052, Control_c, 4, 11, 119
7, 72057, Control_c, 4, 11, 120
7, 72063, Control_c, 4, 11, 121
7, 72068, Control_c, 4, 11, 122
7, 72074, Control_c, 4, 11, 123
7, 72079, Control_c, 4, 11, 124
7, 72085, Control_c, 4, 11, 125
7, 72090, Control_c, 4, 11, 126
7, 72094, Note_on_c, 4, 55, 0
7, 72094, Note_on_c, 4, 58, 0
7, 72096, Control_c, 4, 11, 127
7, 72096, Note_on_c, 4, 58, 103
7, 72096, Note_on_c, 4, 60, 113
7, 72096, Note_on_c, 4, 63, 106
7, 72432, Note_on_c, 4, 58, 0
7, 72432, Note_on_c, 4, 60, 0
7, 72432, Note_on_c, 4, 63, 0
7, 72480, Control_c, 4, 11, 92
7, 72480, Note_on_c, 4, 62, 106
7, 72480, Note_on_c, 4, 65, 113
7, 72480, Note_on_c, 4, 67, 104
7, 72490, Control_c, 4, 11, 93
7, 72501, Control_c, 4, 11, 94
7, 72512, Control_c, 4, 11, 95
7, 72523, Control_c, 4, 11, 96
7, 72534, Control_c, 4, 11, 97
7, 72542, Note_on_c, 4, 62, 0
7, 72542, Note_on_c, 4, 65, 0
7, 72542, Note_on_c, 4, 67, 0
7, 72544, Note_on_c, 4, 60, 106
7, 72544, Note_on_c, 4, 63, 103
7, 72544, Note_on_c, 4, 67, 110
7, 72545, Control_c, 4, 11, 98
7, 72556, Control_c, 4, 11, 99
7, 72567, Control_c, 4, 11, 100
7, 72578, Control_c, 4, 11, 101
7, 72589, Control_c, 4, 11, 102
7, 72600, Control_c, 4, 11, 103
7, 72611, Control_c, 4, 11, 104
7, 72622, Control_c, 4, 11, 105
7, 72633, Control_c, 4, 11, 106
7, 72638, Note_on_c, 4, 60, 0
7, 72638, Note_on_c, 4, 63, 0
7, 72638, Note_on_c, 4, 67, 0
7, 72640, Note_on_c, 4, 58, 109
7, 72640, Note_on_c, 4, 60, 104
7, 72640, Note_on_c, 4, 63, 113
7, 72644, Control_c, 4, 11, 107
7, 72655, Control_c, 4, 11, 108
7, 72666, Control_c, 4, 11, 109
7, 72670, Note_on_c, 4, 58, 0
7, 72670, Note_on_c, 4, 60, 0
7, 72670, Note_on_c, 4, 63, 0
7, 72672, Note_on_c, 4, 58, 108
7, 72672, Note_on_c, 4, 62, 108
7, 72672, Note_on_c, 4, 65, 110
7, 72677, Control_c, 4, 11, 110
7, 72688, Control_c, 4, 11, 111
7, 72699, Control_c, 4, 11, 112
7, 72710, Control_c, 4, 11, 113
7, 72721, Control_c, 4, 11, 114
7, 72732, Control_c, 4, 11, 115
7, 72734, Note_on_c, 4, 58, 0
7, 72734, Note_on_c, 4, 62, 0
7, 72734, Note_on_c, 4, 65, 0
7, 72736, Note_on_c, 4, 57, 112
7, 72736, Note_on_c, 4, 58, 113
7, 72736, Note_on_c, 4, 62, 103
7, 72743, Control_c, 4, 11, 116
7, 72754, Control_c, 4, 11, 117
7, 72765, Control_c, 4, 11, 118
7, 72776, Control_c, 4, 11, 119
7, 72787, Control_c, 4, 11, 120
7, 72798, Note_on_c, 4, 57, 0
7, 72798, Note_on_c, 4, 58, 0
7, 72798, Note_on_c, 4, 62, 0
7, 72798, Control_c, 4, 11, 121
7, 72800, Note_on_c, 4, 55, 108
7, 72800, Note_on_c, 4, 58, 103
7, 72800, Note_on_c, 4, 62, 104
7, 72809, Control_c, 4, 11, 122
7, 72820, Control_c, 4, 11, 123
7, 72831, Control_c, 4, 11, 124
7, 72842, Control_c, 4, 11, 125
7, 72853, Control_c, 4, 11, 126
7, 72862, Note_on_c, 4, 55, 0
7, 72862, Note_on_c, 4, 58, 0
7, 72862, Note_on_c, 4, 62, 0
7, 72864, Control_c, 4, 11, 127
7, 72864, Note_on_c, 4, 53, 113
7, 72864, Note_on_c, 4, 55, 111
7, 72864, Note_on_c, 4, 58, 106
7, 72926, Note_on_c, 4, 53, 0
7, 72926, Note_on_c, 4, 55, 0
7, 72926, Note_on_c, 4, 58, 0
7, 72928, Note_on_c, 4, 51, 103
7, 72928, Note_on_c, 4, 55, 106
7, 72928, Note_on_c, 4, 58, 113
7, 73022, Note_on_c, 4, 51, 0
7, 73022, Note_on_c, 4, 55, 0
7, 73022, Note_on_c, 4, 58, 0
7, 73024, Note_on_c, 4, 50, 111
7, 73024, Note_on_c, 4, 53, 112
7, 73024, Note_on_c, 4, 55, 106
7, 73054, Note_on_c, 4, 50, 0
7, 73054, Note_on_c, 4, 53, 0
7, 73054, Note_on_c, 4, 55, 0
7, 73056, Control_c, 4, 11, 127
7, 73056, Note_on_c, 4, 48, 107
7, 73056, Note_on_c, 4, 51, 104
7, 73056, Note_on_c, 4, 55, 110
7, 73059, Control_c, 4, 11, 126
7, 73062, Control_c, 4, 11, 125
7, 73065, Control_c, 4, 11, 124
7, 73068, Control_c, 4, 11, 123
7, 73071, Control_c, 4, 11, 122
7, 73074, Control_c, 4, 11, 121
7, 73077, Control_c, 4, 11, 120
7, 73080, Control_c, 4, 11, 119
7, 73083, Control_c, 4, 11, 118
7, 73086, Control_c, 4, 11, 117
7, 73089, Control_c, 4, 11, 116
7, 73092, Control_c, 4, 11, 115
7, 73095, Control_c, 4, 11, 114
7, 73098, Control_c, 4, 11, 113
7, 73101, Control_c, 4, 11, 112
7, 73104, Control_c, 4, 11, 111
7, 73107, Control_c, 4, 11, 110
7, 73110, Control_c, 4, 11, 109
7, 73113, Control_c, 4, 11, 108
7, 73116, Control_c, 4, 11, 107
7, 73120, Control_c, 4, 11, 106
7, 73123, Control_c, 4, 11, 105
7, 73126, Control_c, 4, 11, 104
7, 73129, Control_c, 4, 11, 103
7, 73132, Control_c, 4, 11, 102
7, 73135, Control_c, 4, 11, 101
7, 73138, Control_c, 4, 11, 100
7, 73141, Control_c, 4, 11, 99
7, 73144, Control_c, 4, 11, 98
7, 73147, Control_c, 4, 11, 97
7, 73150, Control_c, 4, 11, 96
7, 73153, Control_c, 4, 11, 95
7, 73156, Control_c, 4, 11, 94
7, 73159, Control_c, 4, 11, 93
7, 73162, Control_c, 4, 11, 92
7, 73165, Control_c, 4, 11, 91
7, 73168, Control_c, 4, 11, 90
7, 73171, Control_c, 4, 11, 89
7, 73174, Control_c, 4, 11, 88
7, 73177, Control_c, 4, 11, 87
7, 73180, Control_c, 4, 11, 86
7, 73184, Control_c, 4, 11, 85
7, 73187, Control_c, 4, 11, 84
7, 73190, Control_c, 4, 11, 83
7, 73193, Control_c, 4, 11, 82
7, 73196, Control_c, 4, 11, 81
7, 73199, Control_c, 4, 11, 80
7, 73202, Control_c, 4, 11, 79
7, 73205, Control_c, 4, 11, 78
7, 73208, Control_c, 4, 11, 77
7, 73211, Control_c, 4, 11, 76
7, 73214, Control_c, 4, 11, 75
7, 73217, Control_c, 4, 11, 74
7, 73220, Control_c, 4, 11, 73
7, 73223, Control_c, 4, 11, 72
7, 73226, Control_c, 4, 11, 71
7, 73229, Control_c, 4, 11, 70
7, 73232, Control_c, 4, 11, 69
7, 73235, Control_c, 4, 11, 68
7, 73238, Control_c, 4, 11, 67
7, 73241, Control_c, 4, 11, 66
7, 73244, Control_c, 4, 11, 65
7, 73248, Control_c, 4, 11, 64
7, 73254, Control_c, 4, 11, 65
7, 73261, Control_c, 4, 11, 66
7, 73268, Control_c, 4, 11, 67
7, 73275, Control_c, 4, 11, 68
7, 73282, Control_c, 4, 11, 69
7, 73289, Control_c, 4, 11, 70
7, 73296, Control_c, 4, 11, 71
7, 73302, Control_c, 4, 11, 72
7, 73309, Control_c, 4, 11, 73
7, 73310, Note_on_c, 4, 48, 0
7, 73310, Note_on_c, 4, 51, 0
7, 73310, Note_on_c, 4, 55, 0
7, 73312, Note_on_c, 4, 48, 104
7, 73312, Note_on_c, 4, 55, 105
7, 73316, Control_c, 4, 11, 74
7, 73323, Control_c, 4, 11, 75
7, 73330, Control_c, 4, 11, 76
7, 73337, Control_c, 4, 11, 77
7, 73344, Control_c, 4, 11, 78
7, 73350, Control_c, 4, 11, 79
7, 73357, Control_c, 4, 11, 80
7, 73364, Control_c, 4, 11, 81
7, 73371, Control_c, 4, 11, 82
7, 73374, Note_on_c, 4, 48, 0
7, 73374, Note_on_c, 4, 55, 0
7, 73376, Note_on_c, 4, 51, 103
7, 73376, Note_on_c, 4, 57, 111
7, 73378, Control_c, 4, 11, 83
7, 73385, Control_c, 4, 11, 84
7, 73392, Control_c, 4, 11, 85
7, 73398, Control_c, 4, 11, 86
7, 73405, Control_c, 4, 11, 87
7, 73412, Control_c, 4, 11, 88
7, 73419, Control_c, 4, 11, 89
7, 73426, Control_c, 4, 11, 90
7, 73433, Control_c, 4, 11, 91
7, 73438, Note_on_c, 4, 51, 0
7, 73438, Note_on_c, 4, 57, 0
7, 73440, Control_c, 4, 11, 92
7, 73440, Note_on_c, 4, 55, 105
7, 73440, Note_on_c, 4, 60, 112
7, 73534, Note_on_c, 4, 55, 0
7, 73534, Note_on_c, 4, 60, 0
7, 73536, Note_on_c, 4, 51, 106
7, 73536, Note_on_c, 4, 57, 109
7, 73630, Note_on_c, 4, 51, 0
7, 73630, Note_on_c, 4, 57, 0
7, 73632, Note_on_c, 4, 55, 103
7, 73632, Note_on_c, 4, 60, 113
7, 73726, Note_on_c, 4, 55, 0
7, 73726, Note_on_c, 4, 60, 0
7, 73728, Note_on_c, 4, 57, 110
7, 73728, Note_on_c, 4, 63, 112
7, 73822, Note_on_c, 4, 57, 0
7, 73822, Note_on_c, 4, 63, 0
7, 73824, Note_on_c, 4, 55, 107
7, 73824, Note_on_c, 4, 60, 110
7, 73918, Note_on_c, 4, 55, 0
7, 73918, Note_on_c, 4, 60, 0
7, 73920, Note_on_c, 4, 57, 110
7, 73920, Note_on_c, 4, 63, 103
7, 74014, Note_on_c, 4, 57, 0
7, 74014, Note_on_c, 4, 63, 0
7, 74016, Control_c, 4, 11, 75
7, 74016, Note_on_c, 4, 48, 97
7, 74016, Note_on_c, 4, 53, 87
7, 74016, Note_on_c, 4, 57, 93
7, 74027, Control_c, 4, 11, 76
7, 74038, Control_c, 4, 11, 77
7, 74049, Control_c, 4, 11, 78
7, 74060, Control_c, 4, 11, 79
7, 74071, Control_c, 4, 11, 80
7, 74082, Control_c, 4, 11, 81
7, 74093, Control_c, 4, 11, 82
7, 74104, Control_c, 4, 11, 83
7, 74115, Control_c, 4, 11, 84
7, 74126, Control_c, 4, 11, 85
7, 74137, Control_c, 4, 11, 86
7, 74148, Control_c, 4, 11, 87
7, 74160, Control_c, 4, 11, 88
7, 74171, Control_c, 4, 11, 89
7, 74182, Control_c, 4, 11, 90
7, 74193, Control_c, 4, 11, 91
7, 74204, Control_c, 4, 11, 92
7, 74215, Control_c, 4, 11, 93
7, 74226, Control_c, 4, 11, 94
7, 74237, Control_c, 4, 11, 95
7, 74248, Control_c, 4, 11, 96
7, 74259, Control_c, 4, 11, 97
7, 74270, Control_c, 4, 11, 98
7, 74281, Control_c, 4, 11, 99
7, 74292, Control_c, 4, 11, 100
7, 74304, Control_c, 4, 11, 101
7, 74315, Control_c, 4, 11, 102
7, 74326, Control_c, 4, 11, 103
7, 74337, Control_c, 4, 11, 104
7, 74348, Control_c, 4, 11, 105
7, 74359, Control_c, 4, 11, 106
7, 74370, Control_c, 4, 11, 107
7, 74381, Control_c, 4, 11, 108
7, 74392, Control_c, 4, 11, 109
7, 74400, Note_on_c, 4, 48, 0
7, 74400, Note_on_c, 4, 53, 0
7, 74400, Note_on_c, 4, 57, 0
7, 74400, Note_on_c, 4, 49, 97
7, 74400, Note_on_c, 4, 55, 88
7, 74400, Note_on_c, 4, 58, 88
7, 74403, Control_c, 4, 11, 110
7, 74414, Control_c, 4, 11, 111
7, 74425, Control_c, 4, 11, 112
7, 74436, Control_c, 4, 11, 113
7, 74448, Control_c, 4, 11, 114
7, 74459, Control_c, 4, 11, 115
7, 74470, Control_c, 4, 11, 116
7, 74481, Control_c, 4, 11, 117
7, 74492, Control_c, 4, 11, 118
7, 74503, Control_c, 4, 11, 119
7, 74514, Control_c, 4, 11, 120
7, 74525, Control_c, 4, 11, 121
7, 74536, Control_c, 4, 11, 122
7, 74547, Control_c, 4, 11, 123
7, 74558, Control_c, 4, 11, 124
7, 74560, Note_on_c, 4, 49, 0
7, 74560, Note_on_c, 4, 55, 0
7, 74560, Note_on_c, 4, 58, 0
7, 74569, Control_c, 4, 11, 125
7, 74580, Control_c, 4, 11, 126
7, 74592, Control_c, 4, 11, 127
7, 74592, Control_c, 4, 11, 75
7, 74592, Note_on_c, 4, 48, 89
7, 74592, Note_on_c, 4, 53, 93
7, 74592, Note_on_c, 4, 57, 95
7, 74603, Control_c, 4, 11, 76
7, 74614, Control_c, 4, 11, 77
7, 74625, Control_c, 4, 11, 78
7, 74636, Control_c, 4, 11, 79
7, 74647, Control_c, 4, 11, 80
7, 74658, Control_c, 4, 11, 81
7, 74669, Control_c, 4, 11, 82
7, 74680, Control_c, 4, 11, 83
7, 74691, Control_c, 4, 11, 84
7, 74702, Control_c, 4, 11, 85
7, 74713, Control_c, 4, 11, 86
7, 74724, Control_c, 4, 11, 87
7, 74736, Control_c, 4, 11, 88
7, 74747, Control_c, 4, 11, 89
7, 74758, Control_c, 4, 11, 90
7, 74769, Control_c, 4, 11, 91
7, 74780, Control_c, 4, 11, 92
7, 74791, Control_c, 4, 11, 93
7, 74802, Control_c, 4, 11, 94
7, 74813, Control_c, 4, 11, 95
7, 74824, Control_c, 4, 11, 96
7, 74835, Control_c, 4, 11, 97
7, 74846, Control_c, 4, 11, 98
7, 74857, Control_c, 4, 11, 99
7, 74868, Control_c, 4, 11, 100
7, 74880, Control_c, 4, 11, 101
7, 74891, Control_c, 4, 11, 102
7, 74902, Control_c, 4, 11, 103
7, 74913, Control_c, 4, 11, 104
7, 74924, Control_c, 4, 11, 105
7, 74935, Control_c, 4, 11, 106
7, 74946, Control_c, 4, 11, 107
7, 74957, Control_c, 4, 11, 108
7, 74968, Control_c, 4, 11, 109
7, 74976, Note_on_c, 4, 48, 0
7, 74976, Note_on_c, 4, 53, 0
7, 74976, Note_on_c, 4, 57, 0
7, 74976, Note_on_c, 4, 48, 88
7, 74976, Note_on_c, 4, 55, 94
7, 74976, Note_on_c, 4, 58, 96
7, 74979, Control_c, 4, 11, 110
7, 74990, Control_c, 4, 11, 111
7, 75001, Control_c, 4, 11, 112
7, 75012, Control_c, 4, 11, 113
7, 75024, Control_c, 4, 11, 114
7, 75035, Control_c, 4, 11, 115
7, 75046, Control_c, 4, 11, 116
7, 75057, Control_c, 4, 11, 117
7, 75068, Control_c, 4, 11, 118
7, 75079, Control_c, 4, 11, 119
7, 75090, Control_c, 4, 11, 120
7, 75101, Control_c, 4, 11, 121
7, 75112, Control_c, 4, 11, 122
7, 75123, Control_c, 4, 11, 123
7, 75134, Control_c, 4, 11, 124
7, 75136, Note_on_c, 4, 48, 0
7, 75136, Note_on_c, 4, 55, 0
7, 75136, Note_on_c, 4, 58, 0
7, 75145, Control_c, 4, 11, 125
7, 75156, Control_c, 4, 11, 126
7, 75168, Control_c, 4, 11, 127
7, 75168, Control_c, 4, 11, 75
7, 75168, Note_on_c, 4, 52, 96
7, 75168, Note_on_c, 4, 58, 95
7, 75168, Note_on_c, 4, 61, 89
7, 75552, Note_on_c, 4, 52, 0
7, 75552, Note_on_c, 4, 58, 0
7, 75552, Note_on_c, 4, 61, 0
7, 75552, Note_on_c, 4, 53, 88
7, 75552, Note_on_c, 4, 58, 89
7, 75552, Note_on_c, 4, 62, 91
7, 75712, Note_on_c, 4, 53, 0
7, 75712, Note_on_c, 4, 58, 0
7, 75712, Note_on_c, 4, 62, 0
7, 75744, Control_c, 4, 11, 75
7, 75744, Note_on_c, 4, 52, 90
7, 75744, Note_on_c, 4, 58, 94
7, 75744, Note_on_c, 4, 61, 88
7, 76128, Note_on_c, 4, 52, 0
7, 76128, Note_on_c, 4, 58, 0
7, 76128, Note_on_c, 4, 61, 0
7, 76128, Note_on_c, 4, 53, 90
7, 76128, Note_on_c, 4, 58, 90
7, 76128, Note_on_c, 4, 62, 88
7, 76288, Note_on_c, 4, 53, 0
7, 76288, Note_on_c, 4, 58, 0
7, 76288, Note_on_c, 4, 62, 0
7, 76320, Control_c, 4, 11, 75
7, 76320, Note_on_c, 4, 47, 80
7, 76329, Control_c, 4, 11, 76
7, 76338, Control_c, 4, 11, 77
7, 76347, Control_c, 4, 11, 78
7, 76356, Control_c, 4, 11, 79
7, 76366, Control_c, 4, 11, 80
7, 76375, Control_c, 4, 11, 81
7, 76384, Control_c, 4, 11, 82
7, 76393, Control_c, 4, 11, 83
7, 76403, Control_c, 4, 11, 84
7, 76412, Control_c, 4, 11, 85
7, 76421, Control_c, 4, 11, 86
7, 76430, Control_c, 4, 11, 87
7, 76439, Control_c, 4, 11, 88
7, 76449, Control_c, 4, 11, 89
7, 76458, Control_c, 4, 11, 90
7, 76467, Control_c, 4, 11, 91
7, 76476, Control_c, 4, 11, 92
7, 76480, Note_on_c, 4, 47, 0
7, 76486, Control_c, 4, 11, 93
7, 76495, Control_c, 4, 11, 94
7, 76504, Control_c, 4, 11, 95
7, 76512, Note_on_c, 4, 48, 75
7, 76513, Control_c, 4, 11, 96
7, 76523, Control_c, 4, 11, 97
7, 76532, Control_c, 4, 11, 98
7, 76541, Control_c, 4, 11, 99
7, 76550, Control_c, 4, 11, 100
7, 76559, Control_c, 4, 11, 101
7, 76569, Control_c, 4, 11, 102
7, 76578, Control_c, 4, 11, 103
7, 76587, Control_c, 4, 11, 104
7, 76596, Control_c, 4, 11, 105
7, 76606, Control_c, 4, 11, 106
7, 76615, Control_c, 4, 11, 107
7, 76624, Control_c, 4, 11, 108
7, 76633, Control_c, 4, 11, 109
7, 76643, Control_c, 4, 11, 110
7, 76652, Control_c, 4, 11, 111
7, 76661, Control_c, 4, 11, 112
7, 76670, Control_c, 4, 11, 113
7, 76679, Control_c, 4, 11, 114
7, 76689, Control_c, 4, 11, 115
7, 76698, Control_c, 4, 11, 116
7, 76702, Note_on_c, 4, 48, 0
7, 76704, Note_on_c, 4, 49, 72
7, 76707, Control_c, 4, 11, 117
7, 76716, Control_c, 4, 11, 118
7, 76726, Control_c, 4, 11, 119
7, 76735, Control_c, 4, 11, 120
7, 76744, Control_c, 4, 11, 121
7, 76753, Control_c, 4, 11, 122
7, 76763, Control_c, 4, 11, 123
7, 76772, Control_c, 4, 11, 124
7, 76781, Control_c, 4, 11, 125
7, 76790, Control_c, 4, 11, 126
7, 76798, Note_on_c, 4, 49, 0
7, 76800, Control_c, 4, 11, 127
7, 76800, Note_on_c, 4, 52, 73
7, 76894, Note_on_c, 4, 52, 0
7, 76896, Control_c, 4, 11, 75
7, 76896, Note_on_c, 4, 47, 72
7, 76905, Control_c, 4, 11, 76
7, 76914, Control_c, 4, 11, 77
7, 76923, Control_c, 4, 11, 78
7, 76932, Control_c, 4, 11, 79
7, 76942, Control_c, 4, 11, 80
7, 76951, Control_c, 4, 11, 81
7, 76960, Control_c, 4, 11, 82
7, 76969, Control_c, 4, 11, 83
7, 76979, Control_c, 4, 11, 84
7, 76988, Control_c, 4, 11, 85
7, 76997, Control_c, 4, 11, 86
7, 77006, Control_c, 4, 11, 87
7, 77015, Control_c, 4, 11, 88
7, 77025, Control_c, 4, 11, 89
7, 77034, Control_c, 4, 11, 90
7, 77043, Control_c, 4, 11, 91
7, 77052, Control_c, 4, 11, 92
7, 77056, Note_on_c, 4, 47, 0
7, 77062, Control_c, 4, 11, 93
7, 77071, Control_c, 4, 11, 94
7, 77080, Control_c, 4, 11, 95
7, 77088, Note_on_c, 4, 48, 70
7, 77089, Control_c, 4, 11, 96
7, 77099, Control_c, 4, 11, 97
7, 77108, Control_c, 4, 11, 98
7, 77117, Control_c, 4, 11, 99
7, 77126, Control_c, 4, 11, 100
7, 77135, Control_c, 4, 11, 101
7, 77145, Control_c, 4, 11, 102
7, 77154, Control_c, 4, 11, 103
7, 77163, Control_c, 4, 11, 104
7, 77172, Control_c, 4, 11, 105
7, 77182, Control_c, 4, 11, 106
7, 77191, Control_c, 4, 11, 107
7, 77200, Control_c, 4, 11, 108
7, 77209, Control_c, 4, 11, 109
7, 77219, Control_c, 4, 11, 110
7, 77228, Control_c, 4, 11, 111
7, 77237, Control_c, 4, 11, 112
7, 77246, Control_c, 4, 11, 113
7, 77255, Control_c, 4, 11, 114
7, 77265, Control_c, 4, 11, 115
7, 77274, Control_c, 4, 11, 116
7, 77278, Note_on_c, 4, 48, 0
7, 77280, Note_on_c, 4, 49, 71
7, 77283, Control_c, 4, 11, 117
7, 77292, Control_c, 4, 11, 118
7, 77302, Control_c, 4, 11, 119
7, 77311, Control_c, 4, 11, 120
7, 77320, Control_c, 4, 11, 121
7, 77329, Control_c, 4, 11, 122
7, 77339, Control_c, 4, 11, 123
7, 77348, Control_c, 4, 11, 124
7, 77357, Control_c, 4, 11, 125
7, 77366, Control_c, 4, 11, 126
7, 77374, Note_on_c, 4, 49, 0
7, 77376, Control_c, 4, 11, 127
7, 77376, Note_on_c, 4, 52, 76
7, 77470, Note_on_c, 4, 52, 0
7, 77472, Control_c, 4, 11, 75
7, 77472, Note_on_c, 4, 51, 90
7, 77481, Control_c, 4, 11, 76
7, 77490, Control_c, 4, 11, 77
7, 77499, Control_c, 4, 11, 78
7, 77508, Control_c, 4, 11, 79
7, 77518, Control_c, 4, 11, 80
7, 77527, Control_c, 4, 11, 81
7, 77536, Control_c, 4, 11, 82
7, 77545, Control_c, 4, 11, 83
7, 77555, Control_c, 4, 11, 84
7, 77564, Control_c, 4, 11, 85
7, 77573, Control_c, 4, 11, 86
7, 77582, Control_c, 4, 11, 87
7, 77591, Control_c, 4, 11, 88
7, 77601, Control_c, 4, 11, 89
7, 77610, Control_c, 4, 11, 90
7, 77619, Control_c, 4, 11, 91
7, 77628, Control_c, 4, 11, 92
7, 77632, Note_on_c, 4, 51, 0
7, 77638, Control_c, 4, 11, 93
7, 77647, Control_c, 4, 11, 94
7, 77656, Control_c, 4, 11, 95
7, 77664, Note_on_c, 4, 52, 96
7, 77665, Control_c, 4, 11, 96
7, 77675, Control_c, 4, 11, 97
7, 77684, Control_c, 4, 11, 98
7, 77693, Control_c, 4, 11, 99
7, 77702, Control_c, 4, 11, 100
7, 77711, Control_c, 4, 11, 101
7, 77721, Control_c, 4, 11, 102
7, 77730, Control_c, 4, 11, 103
7, 77739, Control_c, 4, 11, 104
7, 77748, Control_c, 4, 11, 105
7, 77758, Control_c, 4, 11, 106
7, 77767, Control_c, 4, 11, 107
7, 77776, Control_c, 4, 11, 108
7, 77785, Control_c, 4, 11, 109
7, 77795, Control_c, 4, 11, 110
7, 77804, Control_c, 4, 11, 111
7, 77813, Control_c, 4, 11, 112
7, 77822, Control_c, 4, 11, 113
7, 77831, Control_c, 4, 11, 114
7, 77841, Control_c, 4, 11, 115
7, 77850, Control_c, 4, 11, 116
7, 77854, Note_on_c, 4, 52, 0
7, 77856, Note_on_c, 4, 53, 88
7, 77859, Control_c, 4, 11, 117
7, 77868, Control_c, 4, 11, 118
7, 77878, Control_c, 4, 11, 119
7, 77887, Control_c, 4, 11, 120
7, 77896, Control_c, 4, 11, 121
7, 77905, Control_c, 4, 11, 122
7, 77915, Control_c, 4, 11, 123
7, 77924, Control_c, 4, 11, 124
7, 77933, Control_c, 4, 11, 125
7, 77942, Control_c, 4, 11, 126
7, 77950, Note_on_c, 4, 53, 0
7, 77952, Control_c, 4, 11, 127
7, 77952, Note_on_c, 4, 57, 92
7, 78046, Note_on_c, 4, 57, 0
7, 78048, Control_c, 4, 11, 75
7, 78048, Note_on_c, 4, 51, 107
7, 78057, Control_c, 4, 11, 76
7, 78066, Control_c, 4, 11, 77
7, 78075, Control_c, 4, 11, 78
7, 78084, Control_c, 4, 11, 79
7, 78094, Control_c, 4, 11, 80
7, 78103, Control_c, 4, 11, 81
7, 78112, Control_c, 4, 11, 82
7, 78121, Control_c, 4, 11, 83
7, 78131, Control_c, 4, 11, 84
7, 78140, Control_c, 4, 11, 85
7, 78149, Control_c, 4, 11, 86
7, 78158, Control_c, 4, 11, 87
7, 78167, Control_c, 4, 11, 88
7, 78177, Control_c, 4, 11, 89
7, 78186, Control_c, 4, 11, 90
7, 78195, Control_c, 4, 11, 91
7, 78204, Control_c, 4, 11, 92
7, 78208, Note_on_c, 4, 51, 0
7, 78214, Control_c, 4, 11, 93
7, 78223, Control_c, 4, 11, 94
7, 78232, Control_c, 4, 11, 95
7, 78240, Note_on_c, 4, 52, 111
7, 78241, Control_c, 4, 11, 96
7, 78251, Control_c, 4, 11, 97
7, 78260, Control_c, 4, 11, 98
7, 78269, Control_c, 4, 11, 99
7, 78278, Control_c, 4, 11, 100
7, 78287, Control_c, 4, 11, 101
7, 78297, Control_c, 4, 11, 102
7, 78306, Control_c, 4, 11, 103
7, 78315, Control_c, 4, 11, 104
7, 78324, Control_c, 4, 11, 105
7, 78334, Control_c, 4, 11, 106
7, 78343, Control_c, 4, 11, 107
7, 78352, Control_c, 4, 11, 108
7, 78361, Control_c, 4, 11, 109
7, 78371, Control_c, 4, 11, 110
7, 78380, Control_c, 4, 11, 111
7, 78389, Control_c, 4, 11, 112
7, 78398, Control_c, 4, 11, 113
7, 78407, Control_c, 4, 11, 114
7, 78417, Control_c, 4, 11, 115
7, 78426, Control_c, 4, 11, 116
7, 78430, Note_on_c, 4, 52, 0
7, 78432, Note_on_c, 4, 53, 110
7, 78435, Control_c, 4, 11, 117
7, 78444, Control_c, 4, 11, 118
7, 78454, Control_c, 4, 11, 119
7, 78463, Control_c, 4, 11, 120
7, 78472, Control_c, 4, 11, 121
7, 78481, Control_c, 4, 11, 122
7, 78491, Control_c, 4, 11, 123
7, 78500, Control_c, 4, 11, 124
7, 78509, Control_c, 4, 11, 125
7, 78518, Control_c, 4, 11, 126
7, 78526, Note_on_c, 4, 53, 0
7, 78528, Control_c, 4, 11, 127
7, 78528, Note_on_c, 4, 57, 105
7, 78622, Note_on_c, 4, 57, 0
7, 78624, Note_on_c, 4, 34, 91
7, 78624, Note_on_c, 4, 46, 97
7, 78720, Note_on_c, 4, 34, 0
7, 78720, Note_on_c, 4, 46, 0
7, 78720, Note_on_c, 4, 36, 90
7, 78720, Note_on_c, 4, 48, 97
7, 79006, Note_on_c, 4, 36, 0
7, 79006, Note_on_c, 4, 48, 0
7, 79200, Note_on_c, 4, 34, 88
7, 79200, Note_on_c, 4, 46, 87
7, 79294, Note_on_c, 4, 34, 0
7, 79294, Note_on_c, 4, 46, 0
7, 79296, Note_on_c, 4, 36, 89
7, 79296, Note_on_c, 4, 48, 88
7, 79582, Note_on_c, 4, 36, 0
7, 79582, Note_on_c, 4, 48, 0
7, 79776, Note_on_c, 4, 34, 93
7, 79776, Note_on_c, 4, 46, 97
7, 79872, Note_on_c, 4, 34, 0
7, 79872, Note_on_c, 4, 46, 0
7, 79872, Note_on_c, 4, 36, 97
7, 79872, Note_on_c, 4, 48, 91
7, 80158, Note_on_c, 4, 36, 0
7, 80158, Note_on_c, 4, 48, 0
7, 80352, Note_on_c, 4, 34, 96
7, 80352, Note_on_c, 4, 46, 88
7, 80448, Note_on_c, 4, 34, 0
7, 80448, Note_on_c, 4, 46, 0
7, 80448, Note_on_c, 4, 36, 89
7, 80448, Note_on_c, 4, 48, 91
7, 80734, Note_on_c, 4, 36, 0
7, 80734, Note_on_c, 4, 48, 0
7, 80928, Control_c, 4, 11, 127
7, 80928, Note_on_c, 4, 34, 89
7, 80928, Note_on_c, 4, 46, 97
7, 81024, Note_on_c, 4, 34, 0
7, 81024, Note_on_c, 4, 46, 0
7, 81024, Note_on_c, 4, 36, 97
7, 81024, Note_on_c, 4, 48, 96
7, 81310, Note_on_c, 4, 36, 0
7, 81310, Note_on_c, 4, 48, 0
7, 81504, Note_on_c, 4, 34, 93
7, 81504, Note_on_c, 4, 46, 97
7, 81600, Note_on_c, 4, 34, 0
7, 81600, Note_on_c, 4, 46, 0
7, 81600, Note_on_c, 4, 36, 97
7, 81600, Note_on_c, 4, 48, 93
7, 81886, Note_on_c, 4, 36, 0
7, 81886, Note_on_c, 4, 48, 0
7, 82080, Note_on_c, 4, 34, 90
7, 82080, Note_on_c, 4, 46, 96
7, 82174, Note_on_c, 4, 34, 0
7, 82174, Note_on_c, 4, 46, 0
7, 82176, Note_on_c, 4, 36, 97
7, 82176, Note_on_c, 4, 48, 93
7, 82462, Note_on_c, 4, 36, 0
7, 82462, Note_on_c, 4, 48, 0
7, 83232, Control_c, 4, 7, 127
7, 85104, Control_c, 4, 11, 127
7, 85104, Note_on_c, 4, 58, 42
7, 85104, Note_on_c, 4, 62, 44
7, 85112, Control_c, 4, 11, 126
7, 85120, Control_c, 4, 11, 125
7, 85128, Control_c, 4, 11, 124
7, 85136, Control_c, 4, 11, 123
7, 85145, Control_c, 4, 11, 122
7, 85153, Control_c, 4, 11, 121
7, 85161, Control_c, 4, 11, 120
7, 85169, Control_c, 4, 11, 119
7, 85178, Control_c, 4, 11, 118
7, 85186, Control_c, 4, 11, 117
7, 85194, Control_c, 4, 11, 116
7, 85202, Control_c, 4, 11, 115
7, 85210, Control_c, 4, 11, 114
7, 85219, Control_c, 4, 11, 113
7, 85227, Control_c, 4, 11, 112
7, 85235, Control_c, 4, 11, 111
7, 85243, Control_c, 4, 11, 110
7, 85246, Note_on_c, 4, 58, 0
7, 85246, Note_on_c, 4, 62, 0
7, 85248, Note_on_c, 4, 60, 42
7, 85248, Note_on_c, 4, 64, 48
7, 85252, Control_c, 4, 11, 109
7, 85260, Control_c, 4, 11, 108
7, 85268, Control_c, 4, 11, 107
7, 85276, Control_c, 4, 11, 106
7, 85285, Control_c, 4, 11, 105
7, 85293, Control_c, 4, 11, 104
7, 85301, Control_c, 4, 11, 103
7, 85309, Control_c, 4, 11, 102
7, 85317, Control_c, 4, 11, 101
7, 85326, Control_c, 4, 11, 100
7, 85334, Control_c, 4, 11, 99
7, 85342, Control_c, 4, 11, 98
7, 85350, Control_c, 4, 11, 97
7, 85359, Control_c, 4, 11, 96
7, 85367, Control_c, 4, 11, 95
7, 85375, Control_c, 4, 11, 94
7, 85383, Control_c, 4, 11, 93
7, 85390, Note_on_c, 4, 60, 0
7, 85390, Note_on_c, 4, 64, 0
7, 85392, Control_c, 4, 11, 92
7, 85392, Note_on_c, 4, 58, 49
7, 85392, Note_on_c, 4, 62, 43
7, 85534, Note_on_c, 4, 58, 0
7, 85534, Note_on_c, 4, 62, 0
7, 85680, Control_c, 4, 11, 127
7, 85680, Note_on_c, 4, 58, 39
7, 85680, Note_on_c, 4, 62, 36
7, 85688, Control_c, 4, 11, 126
7, 85696, Control_c, 4, 11, 125
7, 85704, Control_c, 4, 11, 124
7, 85712, Control_c, 4, 11, 123
7, 85721, Control_c, 4, 11, 122
7, 85729, Control_c, 4, 11, 121
7, 85737, Control_c, 4, 11, 120
7, 85745, Control_c, 4, 11, 119
7, 85754, Control_c, 4, 11, 118
7, 85762, Control_c, 4, 11, 117
7, 85770, Control_c, 4, 11, 116
7, 85778, Control_c, 4, 11, 115
7, 85786, Control_c, 4, 11, 114
7, 85795, Control_c, 4, 11, 113
7, 85803, Control_c, 4, 11, 112
7, 85811, Control_c, 4, 11, 111
7, 85819, Control_c, 4, 11, 110
7, 85822, Note_on_c, 4, 58, 0
7, 85822, Note_on_c, 4, 62, 0
7, 85824, Note_on_c, 4, 60, 39
7, 85824, Note_on_c, 4, 64, 38
7, 85828, Control_c, 4, 11, 109
7, 85836, Control_c, 4, 11, 108
7, 85844, Control_c, 4, 11, 107
7, 85852, Control_c, 4, 11, 106
7, 85861, Control_c, 4, 11, 105
7, 85869, Control_c, 4, 11, 104
7, 85877, Control_c, 4, 11, 103
7, 85885, Control_c, 4, 11, 102
7, 85893, Control_c, 4, 11, 101
7, 85902, Control_c, 4, 11, 100
7, 85910, Control_c, 4, 11, 99
7, 85918, Control_c, 4, 11, 98
7, 85926, Control_c, 4, 11, 97
7, 85935, Control_c, 4, 11, 96
7, 85943, Control_c, 4, 11, 95
7, 85951, Control_c, 4, 11, 94
7, 85959, Control_c, 4, 11, 93
7, 85966, Note_on_c, 4, 60, 0
7, 85966, Note_on_c, 4, 64, 0
7, 85968, Control_c, 4, 11, 92
7, 85968, Note_on_c, 4, 58, 41
7, 85968, Note_on_c, 4, 62, 41
7, 86110, Note_on_c, 4, 58, 0
7, 86110, Note_on_c, 4, 62, 0
7, 89712, Control_c, 4, 11, 92
7, 89712, Note_on_c, 4, 44, 47
7, 89712, Note_on_c, 4, 56, 45
7, 89724, Control_c, 4, 11, 93
7, 89736, Control_c, 4, 11, 94
7, 89749, Control_c, 4, 11, 95
7, 89761, Control_c, 4, 11, 96
7, 89773, Control_c, 4, 11, 97
7, 89786, Control_c, 4, 11, 98
7, 89798, Control_c, 4, 11, 99
7, 89810, Control_c, 4, 11, 100
7, 89823, Control_c, 4, 11, 101
7, 89835, Control_c, 4, 11, 102
7, 89847, Control_c, 4, 11, 103
7, 89856, Note_on_c, 4, 44, 0
7, 89856, Note_on_c, 4, 56, 0
7, 89856, Note_on_c, 4, 46, 49
7, 89856, Note_on_c, 4, 58, 47
7, 89860, Control_c, 4, 11, 104
7, 89872, Control_c, 4, 11, 105
7, 89884, Control_c, 4, 11, 106
7, 89897, Control_c, 4, 11, 107
7, 89909, Control_c, 4, 11, 108
7, 89921, Control_c, 4, 11, 109
7, 89934, Control_c, 4, 11, 110
7, 89946, Control_c, 4, 11, 111
7, 89958, Control_c, 4, 11, 112
7, 89971, Control_c, 4, 11, 113
7, 89983, Control_c, 4, 11, 114
7, 89995, Control_c, 4, 11, 115
7, 90008, Control_c, 4, 11, 116
7, 90020, Control_c, 4, 11, 117
7, 90032, Control_c, 4, 11, 118
7, 90045, Control_c, 4, 11, 119
7, 90057, Control_c, 4, 11, 120
7, 90069, Control_c, 4, 11, 121
7, 90072, Note_on_c, 4, 46, 0
7, 90072, Note_on_c, 4, 58, 0
7, 90072, Note_on_c, 4, 48, 50
7, 90072, Note_on_c, 4, 60, 45
7, 90082, Control_c, 4, 11, 122
7, 90094, Control_c, 4, 11, 123
7, 90106, Control_c, 4, 11, 124
7, 90119, Control_c, 4, 11, 125
7, 90131, Control_c, 4, 11, 126
7, 90144, Note_on_c, 4, 48, 0
7, 90144, Note_on_c, 4, 60, 0
7, 90144, Control_c, 4, 11, 127
7, 90144, Note_on_c, 4, 50, 46
7, 90144, Note_on_c, 4, 62, 45
7, 90160, Control_c, 4, 11, 126
7, 90176, Control_c, 4, 11, 125
7, 90193, Control_c, 4, 11, 124
7, 90209, Control_c, 4, 11, 123
7, 90226, Control_c, 4, 11, 122
7, 90242, Control_c, 4, 11, 121
7, 90259, Control_c, 4, 11, 120
7, 90275, Control_c, 4, 11, 119
7, 90292, Control_c, 4, 11, 118
7, 90308, Control_c, 4, 11, 117
7, 90325, Control_c, 4, 11, 116
7, 90341, Control_c, 4, 11, 115
7, 90357, Control_c, 4, 11, 114
7, 90374, Control_c, 4, 11, 113
7, 90390, Control_c, 4, 11, 112
7, 90407, Control_c, 4, 11, 111
7, 90423, Control_c, 4, 11, 110
7, 90440, Control_c, 4, 11, 109
7, 90456, Control_c, 4, 11, 108
7, 90473, Control_c, 4, 11, 107
7, 90489, Control_c, 4, 11, 106
7, 90506, Control_c, 4, 11, 105
7, 90522, Control_c, 4, 11, 104
7, 90538, Control_c, 4, 11, 103
7, 90555, Control_c, 4, 11, 102
7, 90571, Control_c, 4, 11, 101
7, 90576, Note_on_c, 4, 50, 0
7, 90576, Note_on_c, 4, 62, 0
7, 90576, Note_on_c, 4, 46, 47
7, 90576, Note_on_c, 4, 58, 46
7, 90588, Control_c, 4, 11, 100
7, 90604, Control_c, 4, 11, 99
7, 90621, Control_c, 4, 11, 98
7, 90637, Control_c, 4, 11, 97
7, 90654, Control_c, 4, 11, 96
7, 90670, Control_c, 4, 11, 95
7, 90687, Control_c, 4, 11, 94
7, 90703, Control_c, 4, 11, 93
7, 90718, Note_on_c, 4, 46, 0
7, 90718, Note_on_c, 4, 58, 0
7, 90720, Control_c, 4, 11, 92
7, 92016, Control_c, 4, 11, 92
7, 92016, Note_on_c, 4, 44, 47
7, 92016, Note_on_c, 4, 56, 41
7, 92028, Control_c, 4, 11, 93
7, 92040, Control_c, 4, 11, 94
7, 92053, Control_c, 4, 11, 95
7, 92065, Control_c, 4, 11, 96
7, 92077, Control_c, 4, 11, 97
7, 92090, Control_c, 4, 11, 98
7, 92102, Control_c, 4, 11, 99
7, 92114, Control_c, 4, 11, 100
7, 92127, Control_c, 4, 11, 101
7, 92139, Control_c, 4, 11, 102
7, 92151, Control_c, 4, 11, 103
7, 92160, Note_on_c, 4, 44, 0
7, 92160, Note_on_c, 4, 56, 0
7, 92160, Note_on_c, 4, 46, 40
7, 92160, Note_on_c, 4, 58, 42
7, 92164, Control_c, 4, 11, 104
7, 92176, Control_c, 4, 11, 105
7, 92188, Control_c, 4, 11, 106
7, 92201, Control_c, 4, 11, 107
7, 92213, Control_c, 4, 11, 108
7, 92225, Control_c, 4, 11, 109
7, 92238, Control_c, 4, 11, 110
7, 92250, Control_c, 4, 11, 111
7, 92262, Control_c, 4, 11, 112
7, 92275, Control_c, 4, 11, 113
7, 92287, Control_c, 4, 11, 114
7, 92299, Control_c, 4, 11, 115
7, 92312, Control_c, 4, 11, 116
7, 92324, Control_c, 4, 11, 117
7, 92336, Control_c, 4, 11, 118
7, 92349, Control_c, 4, 11, 119
7, 92361, Control_c, 4, 11, 120
7, 92373, Control_c, 4, 11, 121
7, 92376, Note_on_c, 4, 46, 0
7, 92376, Note_on_c, 4, 58, 0
7, 92376, Note_on_c, 4, 48, 44
7, 92376, Note_on_c, 4, 60, 43
7, 92386, Control_c, 4, 11, 122
7, 92398, Control_c, 4, 11, 123
7, 92410, Control_c, 4, 11, 124
7, 92423, Control_c, 4, 11, 125
7, 92435, Control_c, 4, 11, 126
7, 92448, Note_on_c, 4, 48, 0
7, 92448, Note_on_c, 4, 60, 0
7, 92448, Control_c, 4, 11, 127
7, 92448, Note_on_c, 4, 50, 47
7, 92448, Note_on_c, 4, 62, 40
7, 92464, Control_c, 4, 11, 126
7, 92480, Control_c, 4, 11, 125
7, 92497, Control_c, 4, 11, 124
7, 92513, Control_c, 4, 11, 123
7, 92530, Control_c, 4, 11, 122
7, 92546, Control_c, 4, 11, 121
7, 92563, Control_c, 4, 11, 120
7, 92579, Control_c, 4, 11, 119
7, 92596, Control_c, 4, 11, 118
7, 92612, Control_c, 4, 11, 117
7, 92629, Control_c, 4, 11, 116
7, 92645, Control_c, 4, 11, 115
7, 92661, Control_c, 4, 11, 114
7, 92678, Control_c, 4, 11, 113
7, 92694, Control_c, 4, 11, 112
7, 92711, Control_c, 4, 11, 111
7, 92727, Control_c, 4, 11, 110
7, 92744, Control_c, 4, 11, 109
7, 92760, Control_c, 4, 11, 108
7, 92777, Control_c, 4, 11, 107
7, 92793, Control_c, 4, 11, 106
7, 92810, Control_c, 4, 11, 105
7, 92826, Control_c, 4, 11, 104
7, 92842, Control_c, 4, 11, 103
7, 92859, Control_c, 4, 11, 102
7, 92875, Control_c, 4, 11, 101
7, 92880, Note_on_c, 4, 50, 0
7, 92880, Note_on_c, 4, 62, 0
7, 92880, Note_on_c, 4, 46, 42
7, 92880, Note_on_c, 4, 58, 50
7, 92892, Control_c, 4, 11, 100
7, 92908, Control_c, 4, 11, 99
7, 92925, Control_c, 4, 11, 98
7, 92941, Control_c, 4, 11, 97
7, 92958, Control_c, 4, 11, 96
7, 92974, Control_c, 4, 11, 95
7, 92991, Control_c, 4, 11, 94
7, 93007, Control_c, 4, 11, 93
7, 93022, Note_on_c, 4, 46, 0
7, 93022, Note_on_c, 4, 58, 0
7, 93024, Control_c, 4, 11, 92
7, 108000, Control_c, 4, 11, 127
7, 108000, Note_on_c, 4, 42, 28
7, 108000, Note_on_c, 4, 49, 29
7, 108062, Note_on_c, 4, 42, 0
7, 108062, Note_on_c, 4, 49, 0
7, 108064, Note_on_c, 4, 42, 29
7, 108064, Note_on_c, 4, 49, 34
7, 108126, Note_on_c, 4, 42, 0
7, 108126, Note_on_c, 4, 49, 0
7, 108128, Note_on_c, 4, 42, 26
7, 108128, Note_on_c, 4, 49, 32
7, 108190, Note_on_c, 4, 42, 0
7, 108190, Note_on_c, 4, 49, 0
7, 108192, Note_on_c, 4, 42, 31
7, 108192, Note_on_c, 4, 49, 31
7, 108286, Note_on_c, 4, 42, 0
7, 108286, Note_on_c, 4, 49, 0
7, 108288, Note_on_c, 4, 47, 29
7, 108288, Note_on_c, 4, 51, 33
7, 108544, Note_on_c, 4, 47, 0
7, 108544, Note_on_c, 4, 51, 0
7, 108576, Note_on_c, 4, 42, 30
7, 108576, Note_on_c, 4, 49, 29
7, 108768, Note_on_c, 4, 42, 0
7, 108768, Note_on_c, 4, 49, 0
7, 108768, Control_c, 4, 11, 75
7, 108768, Note_on_c, 4, 38, 40
7, 108768, Note_on_c, 4, 50, 42
7, 108768, Note_on_c, 4, 57, 42
7, 108775, Control_c, 4, 11, 76
7, 108782, Control_c, 4, 11, 77
7, 108790, Control_c, 4, 11, 78
7, 108797, Control_c, 4, 11, 79
7, 108804, Control_c, 4, 11, 80
7, 108812, Control_c, 4, 11, 81
7, 108819, Control_c, 4, 11, 82
7, 108827, Control_c, 4, 11, 83
7, 108834, Control_c, 4, 11, 84
7, 108841, Control_c, 4, 11, 85
7, 108849, Control_c, 4, 11, 86
7, 108856, Control_c, 4, 11, 87
7, 108864, Control_c, 4, 11, 88
7, 108871, Control_c, 4, 11, 89
7, 108878, Control_c, 4, 11, 90
7, 108886, Control_c, 4, 11, 91
7, 108893, Control_c, 4, 11, 92
7, 108900, Control_c, 4, 11, 93
7, 108908, Control_c, 4, 11, 94
7, 108915, Control_c, 4, 11, 95
7, 108923, Control_c, 4, 11, 96
7, 108930, Control_c, 4, 11, 97
7, 108937, Control_c, 4, 11, 98
7, 108945, Control_c, 4, 11, 99
7, 108952, Control_c, 4, 11, 100
7, 108960, Control_c, 4, 11, 101
7, 108967, Control_c, 4, 11, 102
7, 108974, Control_c, 4, 11, 103
7, 108982, Control_c, 4, 11, 104
7, 108989, Control_c, 4, 11, 105
7, 108996, Control_c, 4, 11, 106
7, 109004, Control_c, 4, 11, 107
7, 109011, Control_c, 4, 11, 108
7, 109019, Control_c, 4, 11, 109
7, 109026, Control_c, 4, 11, 110
7, 109033, Control_c, 4, 11, 111
7, 109041, Control_c, 4, 11, 112
7, 109048, Control_c, 4, 11, 113
7, 109056, Note_on_c, 4, 38, 0
7, 109056, Note_on_c, 4, 50, 0
7, 109056, Note_on_c, 4, 57, 0
7, 109056, Control_c, 4, 11, 114
7, 109056, Note_on_c, 4, 37, 40
7, 109056, Note_on_c, 4, 49, 45
7, 109056, Note_on_c, 4, 59, 50
7, 109063, Control_c, 4, 11, 115
7, 109070, Control_c, 4, 11, 116
7, 109078, Control_c, 4, 11, 117
7, 109085, Control_c, 4, 11, 118
7, 109092, Control_c, 4, 11, 119
7, 109100, Control_c, 4, 11, 120
7, 109107, Control_c, 4, 11, 121
7, 109115, Control_c, 4, 11, 122
7, 109122, Control_c, 4, 11, 123
7, 109129, Control_c, 4, 11, 124
7, 109137, Control_c, 4, 11, 125
7, 109144, Control_c, 4, 11, 126
7, 109152, Note_on_c, 4, 37, 0
7, 109152, Note_on_c, 4, 49, 0
7, 109152, Note_on_c, 4, 59, 0
7, 109152, Control_c, 4, 11, 127
7, 109152, Note_on_c, 4, 38, 41
7, 109152, Note_on_c, 4, 50, 43
7, 109152, Note_on_c, 4, 57, 42
7, 109155, Control_c, 4, 11, 126
7, 109159, Control_c, 4, 11, 125
7, 109163, Control_c, 4, 11, 124
7, 109166, Control_c, 4, 11, 123
7, 109170, Control_c, 4, 11, 122
7, 109174, Control_c, 4, 11, 121
7, 109177, Control_c, 4, 11, 120
7, 109181, Control_c, 4, 11, 119
7, 109185, Control_c, 4, 11, 118
7, 109188, Control_c, 4, 11, 117
7, 109192, Control_c, 4, 11, 116
7, 109196, Control_c, 4, 11, 115
7, 109200, Control_c, 4, 11, 114
7, 109203, Control_c, 4, 11, 113
7, 109207, Control_c, 4, 11, 112
7, 109211, Control_c, 4, 11, 111
7, 109214, Control_c, 4, 11, 110
7, 109218, Control_c, 4, 11, 109
7, 109222, Control_c, 4, 11, 108
7, 109225, Control_c, 4, 11, 107
7, 109229, Control_c, 4, 11, 106
7, 109233, Control_c, 4, 11, 105
7, 109236, Control_c, 4, 11, 104
7, 109240, Control_c, 4, 11, 103
7, 109244, Control_c, 4, 11, 102
7, 109248, Control_c, 4, 11, 101
7, 109251, Control_c, 4, 11, 100
7, 109255, Control_c, 4, 11, 99
7, 109259, Control_c, 4, 11, 98
7, 109262, Control_c, 4, 11, 97
7, 109266, Control_c, 4, 11, 96
7, 109270, Control_c, 4, 11, 95
7, 109273, Control_c, 4, 11, 94
7, 109277, Control_c, 4, 11, 93
7, 109281, Control_c, 4, 11, 92
7, 109284, Control_c, 4, 11, 91
7, 109288, Control_c, 4, 11, 90
7, 109292, Control_c, 4, 11, 89
7, 109296, Control_c, 4, 11, 88
7, 109299, Control_c, 4, 11, 87
7, 109303, Control_c, 4, 11, 86
7, 109307, Control_c, 4, 11, 85
7, 109310, Control_c, 4, 11, 84
7, 109314, Control_c, 4, 11, 83
7, 109318, Control_c, 4, 11, 82
7, 109321, Control_c, 4, 11, 81
7, 109325, Control_c, 4, 11, 80
7, 109329, Control_c, 4, 11, 79
7, 109332, Control_c, 4, 11, 78
7, 109336, Control_c, 4, 11, 77
7, 109340, Control_c, 4, 11, 76
7, 109344, Note_on_c, 4, 38, 0
7, 109344, Note_on_c, 4, 50, 0
7, 109344, Note_on_c, 4, 57, 0
7, 109344, Control_c, 4, 11, 75
7, 109344, Note_on_c, 4, 40, 48
7, 109344, Note_on_c, 4, 52, 43
7, 109344, Note_on_c, 4, 56, 40
7, 109504, Note_on_c, 4, 40, 0
7, 109504, Note_on_c, 4, 52, 0
7, 109504, Note_on_c, 4, 56, 0
7, 109536, Control_c, 4, 11, 45
7, 109536, Note_on_c, 4, 42, 98
7, 109536, Note_on_c, 4, 49, 98
7, 109552, Control_c, 4, 11, 46
7, 109568, Control_c, 4, 11, 47
7, 109585, Control_c, 4, 11, 48
7, 109598, Note_on_c, 4, 42, 0
7, 109598, Note_on_c, 4, 49, 0
7, 109600, Note_on_c, 4, 42, 103
7, 109600, Note_on_c, 4, 49, 97
7, 109601, Control_c, 4, 11, 49
7, 109617, Control_c, 4, 11, 50
7, 109634, Control_c, 4, 11, 51
7, 109650, Control_c, 4, 11, 52
7, 109662, Note_on_c, 4, 42, 0
7, 109662, Note_on_c, 4, 49, 0
7, 109664, Note_on_c, 4, 42, 100
7, 109664, Note_on_c, 4, 49, 96
7, 109666, Control_c, 4, 11, 53
7, 109683, Control_c, 4, 11, 54
7, 109699, Control_c, 4, 11, 55
7, 109715, Control_c, 4, 11, 56
7, 109726, Note_on_c, 4, 42, 0
7, 109726, Note_on_c, 4, 49, 0
7, 109728, Note_on_c, 4, 42, 100
7, 109728, Note_on_c, 4, 49, 95
7, 109732, Control_c, 4, 11, 57
7, 109748, Control_c, 4, 11, 58
7, 109764, Control_c, 4, 11, 59
7, 109781, Control_c, 4, 11, 60
7, 109797, Control_c, 4, 11, 61
7, 109813, Control_c, 4, 11, 62
7, 109822, Note_on_c, 4, 42, 0
7, 109822, Note_on_c, 4, 49, 0
7, 109824, Note_on_c, 4, 47, 104
7, 109824, Note_on_c, 4, 51, 103
7, 109830, Control_c, 4, 11, 63
7, 109846, Control_c, 4, 11, 64
7, 109862, Control_c, 4, 11, 65
7, 109879, Control_c, 4, 11, 66
7, 109895, Control_c, 4, 11, 67
7, 109911, Control_c, 4, 11, 68
7, 109928, Control_c, 4, 11, 69
7, 109944, Control_c, 4, 11, 70
7, 109960, Control_c, 4, 11, 71
7, 109977, Control_c, 4, 11, 72
7, 109993, Control_c, 4, 11, 73
7, 110009, Control_c, 4, 11, 74
7, 110026, Control_c, 4, 11, 75
7, 110042, Control_c, 4, 11, 76
7, 110058, Control_c, 4, 11, 77
7, 110075, Control_c, 4, 11, 78
7, 110080, Note_on_c, 4, 47, 0
7, 110080, Note_on_c, 4, 51, 0
7, 110091, Control_c, 4, 11, 79
7, 110107, Control_c, 4, 11, 80
7, 110112, Note_on_c, 4, 42, 95
7, 110112, Note_on_c, 4, 49, 95
7, 110124, Control_c, 4, 11, 81
7, 110140, Control_c, 4, 11, 82
7, 110156, Control_c, 4, 11, 83
7, 110173, Control_c, 4, 11, 84
7, 110189, Control_c, 4, 11, 85
7, 110205, Control_c, 4, 11, 86
7, 110222, Control_c, 4, 11, 87
7, 110238, Control_c, 4, 11, 88
7, 110254, Control_c, 4, 11, 89
7, 110271, Control_c, 4, 11, 90
7, 110272, Note_on_c, 4, 42, 0
7, 110272, Note_on_c, 4, 49, 0
7, 110287, Control_c, 4, 11, 91
7, 110304, Control_c, 4, 11, 92
7, 110304, Note_on_c, 4, 37, 105
7, 110304, Note_on_c, 4, 49, 98
7, 110640, Note_on_c, 4, 37, 0
7, 110640, Note_on_c, 4, 49, 0
7, 110688, Note_on_c, 4, 34, 103
7, 110688, Note_on_c, 4, 46, 100
7, 110688, Note_on_c, 4, 53, 96
7, 111024, Note_on_c, 4, 34, 0
7, 111024, Note_on_c, 4, 46, 0
7, 111024, Note_on_c, 4, 53, 0
7, 111072, Control_c, 4, 11, 92
7, 111072, Note_on_c, 4, 37, 88
7, 111072, Note_on_c, 4, 49, 92
7, 111082, Control_c, 4, 11, 93
7, 111093, Control_c, 4, 11, 94
7, 111104, Control_c, 4, 11, 95
7, 111115, Control_c, 4, 11, 96
7, 111126, Control_c, 4, 11, 97
7, 111137, Control_c, 4, 11, 98
7, 111148, Control_c, 4, 11, 99
7, 111159, Control_c, 4, 11, 100
7, 111170, Control_c, 4, 11, 101
7, 111181, Control_c, 4, 11, 102
7, 111192, Control_c, 4, 11, 103
7, 111203, Control_c, 4, 11, 104
7, 111214, Control_c, 4, 11, 105
7, 111225, Control_c, 4, 11, 106
7, 111236, Control_c, 4, 11, 107
7, 111247, Control_c, 4, 11, 108
7, 111258, Control_c, 4, 11, 109
7, 111269, Control_c, 4, 11, 110
7, 111280, Control_c, 4, 11, 111
7, 111291, Control_c, 4, 11, 112
7, 111302, Control_c, 4, 11, 113
7, 111313, Control_c, 4, 11, 114
7, 111324, Control_c, 4, 11, 115
7, 111335, Control_c, 4, 11, 116
7, 111346, Control_c, 4, 11, 117
7, 111357, Control_c, 4, 11, 118
7, 111368, Control_c, 4, 11, 119
7, 111379, Control_c, 4, 11, 120
7, 111390, Control_c, 4, 11, 121
7, 111401, Control_c, 4, 11, 122
7, 111408, Note_on_c, 4, 37, 0
7, 111408, Note_on_c, 4, 49, 0
7, 111412, Control_c, 4, 11, 123
7, 111423, Control_c, 4, 11, 124
7, 111434, Control_c, 4, 11, 125
7, 111445, Control_c, 4, 11, 126
7, 111456, Control_c, 4, 11, 127
7, 111456, Note_on_c, 4, 34, 97
7, 111456, Note_on_c, 4, 46, 96
7, 111456, Note_on_c, 4, 53, 96
7, 111792, Note_on_c, 4, 34, 0
7, 111792, Note_on_c, 4, 46, 0
7, 111792, Note_on_c, 4, 53, 0
7, 111840, Control_c, 4, 11, 92
7, 111840, Note_on_c, 4, 34, 124
7, 111840, Note_on_c, 4, 46, 122
7, 111840, Note_on_c, 4, 53, 122
7, 111850, Control_c, 4, 11, 93
7, 111861, Control_c, 4, 11, 94
7, 111872, Control_c, 4, 11, 95
7, 111883, Control_c, 4, 11, 96
7, 111894, Control_c, 4, 11, 97
7, 111905, Control_c, 4, 11, 98
7, 111916, Control_c, 4, 11, 99
7, 111927, Control_c, 4, 11, 100
7, 111938, Control_c, 4, 11, 101
7, 111949, Control_c, 4, 11, 102
7, 111960, Control_c, 4, 11, 103
7, 111971, Control_c, 4, 11, 104
7, 111982, Control_c, 4, 11, 105
7, 111993, Control_c, 4, 11, 106
7, 112004, Control_c, 4, 11, 107
7, 112015, Control_c, 4, 11, 108
7, 112026, Control_c, 4, 11, 109
7, 112037, Control_c, 4, 11, 110
7, 112048, Control_c, 4, 11, 111
7, 112059, Control_c, 4, 11, 112
7, 112070, Control_c, 4, 11, 113
7, 112081, Control_c, 4, 11, 114
7, 112092, Control_c, 4, 11, 115
7, 112103, Control_c, 4, 11, 116
7, 112114, Control_c, 4, 11, 117
7, 112125, Control_c, 4, 11, 118
7, 112136, Control_c, 4, 11, 119
7, 112147, Control_c, 4, 11, 120
7, 112158, Control_c, 4, 11, 121
7, 112169, Control_c, 4, 11, 122
7, 112176, Note_on_c, 4, 34, 0
7, 112176, Note_on_c, 4, 46, 0
7, 112176, Note_on_c, 4, 53, 0
7, 112180, Control_c, 4, 11, 123
7, 112191, Control_c, 4, 11, 124
7, 112202, Control_c, 4, 11, 125
7, 112213, Control_c, 4, 11, 126
7, 112224, Control_c, 4, 11, 127
7, 112224, Control_c, 4, 11, 92
7, 112224, Note_on_c, 4, 34, 127
7, 112224, Note_on_c, 4, 46, 127
7, 112224, Note_on_c, 4, 53, 127
7, 112234, Control_c, 4, 11, 93
7, 112245, Control_c, 4, 11, 94
7, 112256, Control_c, 4, 11, 95
7, 112267, Control_c, 4, 11, 96
7, 112278, Control_c, 4, 11, 97
7, 112289, Control_c, 4, 11, 98
7, 112300, Control_c, 4, 11, 99
7, 112311, Control_c, 4, 11, 100
7, 112322, Control_c, 4, 11, 101
7, 112333, Control_c, 4, 11, 102
7, 112344, Control_c, 4, 11, 103
7, 112355, Control_c, 4, 11, 104
7, 112366, Control_c, 4, 11, 105
7, 112377, Control_c, 4, 11, 106
7, 112388, Control_c, 4, 11, 107
7, 112399, Control_c, 4, 11, 108
7, 112410, Control_c, 4, 11, 109
7, 112421, Control_c, 4, 11, 110
7, 112432, Control_c, 4, 11, 111
7, 112443, Control_c, 4, 11, 112
7, 112454, Control_c, 4, 11, 113
7, 112465, Control_c, 4, 11, 114
7, 112476, Control_c, 4, 11, 115
7, 112487, Control_c, 4, 11, 116
7, 112498, Control_c, 4, 11, 117
7, 112509, Control_c, 4, 11, 118
7, 112520, Control_c, 4, 11, 119
7, 112531, Control_c, 4, 11, 120
7, 112542, Control_c, 4, 11, 121
7, 112553, Control_c, 4, 11, 122
7, 112560, Note_on_c, 4, 34, 0
7, 112560, Note_on_c, 4, 46, 0
7, 112560, Note_on_c, 4, 53, 0
7, 112564, Control_c, 4, 11, 123
7, 112575, Control_c, 4, 11, 124
7, 112586, Control_c, 4, 11, 125
7, 112597, Control_c, 4, 11, 126
7, 112608, Control_c, 4, 11, 127
7, 112608, Control_c, 4, 11, 92
7, 112608, Note_on_c, 4, 60, 127
7, 112608, Note_on_c, 4, 64, 127
7, 112618, Control_c, 4, 11, 93
7, 112629, Control_c, 4, 11, 94
7, 112640, Control_c, 4, 11, 95
7, 112651, Control_c, 4, 11, 96
7, 112656, Note_on_c, 4, 60, 0
7, 112656, Note_on_c, 4, 64, 0
7, 112656, Note_on_c, 4, 61, 123
7, 112656, Note_on_c, 4, 65, 127
7, 112662, Control_c, 4, 11, 97
7, 112673, Control_c, 4, 11, 98
7, 112684, Control_c, 4, 11, 99
7, 112695, Control_c, 4, 11, 100
7, 112706, Control_c, 4, 11, 101
7, 112717, Control_c, 4, 11, 102
7, 112728, Control_c, 4, 11, 103
7, 112739, Control_c, 4, 11, 104
7, 112750, Control_c, 4, 11, 105
7, 112761, Control_c, 4, 11, 106
7, 112772, Control_c, 4, 11, 107
7, 112783, Control_c, 4, 11, 108
7, 112794, Control_c, 4, 11, 109
7, 112805, Control_c, 4, 11, 110
7, 112816, Control_c, 4, 11, 111
7, 112827, Control_c, 4, 11, 112
7, 112838, Control_c, 4, 11, 113
7, 112849, Control_c, 4, 11, 114
7, 112860, Control_c, 4, 11, 115
7, 112871, Control_c, 4, 11, 116
7, 112882, Control_c, 4, 11, 117
7, 112893, Control_c, 4, 11, 118
7, 112896, Note_on_c, 4, 61, 0
7, 112896, Note_on_c, 4, 65, 0
7, 112896, Note_on_c, 4, 64, 126
7, 112896, Note_on_c, 4, 67, 126
7, 112904, Control_c, 4, 11, 119
7, 112915, Control_c, 4, 11, 120
7, 112926, Control_c, 4, 11, 121
7, 112937, Control_c, 4, 11, 122
7, 112948, Control_c, 4, 11, 123
7, 112959, Control_c, 4, 11, 124
7, 112970, Control_c, 4, 11, 125
7, 112981, Control_c, 4, 11, 126
7, 112990, Note_on_c, 4, 64, 0
7, 112990, Note_on_c, 4, 67, 0
7, 112992, Control_c, 4, 11, 127
7, 112992, Control_c, 4, 11, 75
7, 112992, Note_on_c, 4, 58, 127
7, 112992, Note_on_c, 4, 63, 126
7, 112992, Note_on_c, 4, 70, 127
7, 112993, Control_c, 4, 11, 76
7, 112995, Control_c, 4, 11, 77
7, 112997, Control_c, 4, 11, 78
7, 112999, Control_c, 4, 11, 79
7, 113001, Control_c, 4, 11, 80
7, 113003, Control_c, 4, 11, 81
7, 113004, Control_c, 4, 11, 82
7, 113006, Control_c, 4, 11, 83
7, 113008, Control_c, 4, 11, 84
7, 113010, Control_c, 4, 11, 85
7, 113012, Control_c, 4, 11, 86
7, 113014, Control_c, 4, 11, 87
7, 113016, Control_c, 4, 11, 88
7, 113017, Control_c, 4, 11, 89
7, 113019, Control_c, 4, 11, 90
7, 113021, Control_c, 4, 11, 91
7, 113023, Control_c, 4, 11, 92
7, 113025, Control_c, 4, 11, 93
7, 113027, Control_c, 4, 11, 94
7, 113028, Control_c, 4, 11, 95
7, 113030, Control_c, 4, 11, 96
7, 113032, Control_c, 4, 11, 97
7, 113034, Control_c, 4, 11, 98
7, 113036, Control_c, 4, 11, 99
7, 113038, Control_c, 4, 11, 100
7, 113040, Control_c, 4, 11, 101
7, 113041, Control_c, 4, 11, 102
7, 113043, Control_c, 4, 11, 103
7, 113045, Control_c, 4, 11, 104
7, 113047, Control_c, 4, 11, 105
7, 113049, Control_c, 4, 11, 106
7, 113051, Control_c, 4, 11, 107
7, 113052, Control_c, 4, 11, 108
7, 113054, Control_c, 4, 11, 109
7, 113056, Control_c, 4, 11, 110
7, 113058, Control_c, 4, 11, 111
7, 113060, Control_c, 4, 11, 112
7, 113062, Control_c, 4, 11, 113
7, 113064, Control_c, 4, 11, 114
7, 113065, Control_c, 4, 11, 115
7, 113067, Control_c, 4, 11, 116
7, 113069, Control_c, 4, 11, 117
7, 113071, Control_c, 4, 11, 118
7, 113073, Control_c, 4, 11, 119
7, 113075, Control_c, 4, 11, 120
7, 113076, Control_c, 4, 11, 121
7, 113078, Control_c, 4, 11, 122
7, 113080, Control_c, 4, 11, 123
7, 113082, Control_c, 4, 11, 124
7, 113084, Control_c, 4, 11, 125
7, 113086, Control_c, 4, 11, 126
7, 113088, Control_c, 4, 11, 127
7, 113089, Control_c, 4, 11, 126
7, 113091, Control_c, 4, 11, 125
7, 113093, Control_c, 4, 11, 124
7, 113095, Control_c, 4, 11, 123
7, 113097, Control_c, 4, 11, 122
7, 113099, Control_c, 4, 11, 121
7, 113100, Control_c, 4, 11, 120
7, 113102, Control_c, 4, 11, 119
7, 113104, Control_c, 4, 11, 118
7, 113106, Control_c, 4, 11, 117
7, 113108, Control_c, 4, 11, 116
7, 113110, Control_c, 4, 11, 115
7, 113112, Control_c, 4, 11, 114
7, 113113, Control_c, 4, 11, 113
7, 113115, Control_c, 4, 11, 112
7, 113117, Control_c, 4, 11, 111
7, 113119, Control_c, 4, 11, 110
7, 113121, Control_c, 4, 11, 109
7, 113123, Control_c, 4, 11, 108
7, 113124, Control_c, 4, 11, 107
7, 113126, Control_c, 4, 11, 106
7, 113128, Control_c, 4, 11, 105
7, 113130, Control_c, 4, 11, 104
7, 113132, Control_c, 4, 11, 103
7, 113134, Control_c, 4, 11, 102
7, 113136, Control_c, 4, 11, 101
7, 113137, Control_c, 4, 11, 100
7, 113139, Control_c, 4, 11, 99
7, 113141, Control_c, 4, 11, 98
7, 113143, Control_c, 4, 11, 97
7, 113145, Control_c, 4, 11, 96
7, 113147, Control_c, 4, 11, 95
7, 113148, Control_c, 4, 11, 94
7, 113150, Control_c, 4, 11, 93
7, 113152, Note_on_c, 4, 58, 0
7, 113152, Note_on_c, 4, 63, 0
7, 113152, Note_on_c, 4, 70, 0
7, 113152, Control_c, 4, 11, 92
7, 113154, Control_c, 4, 11, 91
7, 113156, Control_c, 4, 11, 90
7, 113158, Control_c, 4, 11, 89
7, 113160, Control_c, 4, 11, 88
7, 113161, Control_c, 4, 11, 87
7, 113163, Control_c, 4, 11, 86
7, 113165, Control_c, 4, 11, 85
7, 113167, Control_c, 4, 11, 84
7, 113169, Control_c, 4, 11, 83
7, 113171, Control_c, 4, 11, 82
7, 113172, Control_c, 4, 11, 81
7, 113174, Control_c, 4, 11, 80
7, 113176, Control_c, 4, 11, 79
7, 113178, Control_c, 4, 11, 78
7, 113180, Control_c, 4, 11, 77
7, 113182, Control_c, 4, 11, 76
7, 113184, Control_c, 4, 11, 75
7, 113184, Control_c, 4, 11, 75
7, 113184, Note_on_c, 4, 56, 127
7, 113184, Note_on_c, 4, 61, 126
7, 113184, Note_on_c, 4, 68, 124
7, 113185, Control_c, 4, 11, 76
7, 113187, Control_c, 4, 11, 77
7, 113189, Control_c, 4, 11, 78
7, 113191, Control_c, 4, 11, 79
7, 113193, Control_c, 4, 11, 80
7, 113195, Control_c, 4, 11, 81
7, 113196, Control_c, 4, 11, 82
7, 113198, Control_c, 4, 11, 83
7, 113200, Control_c, 4, 11, 84
7, 113202, Control_c, 4, 11, 85
7, 113204, Control_c, 4, 11, 86
7, 113206, Control_c, 4, 11, 87
7, 113208, Control_c, 4, 11, 88
7, 113209, Control_c, 4, 11, 89
7, 113211, Control_c, 4, 11, 90
7, 113213, Control_c, 4, 11, 91
7, 113215, Control_c, 4, 11, 92
7, 113217, Control_c, 4, 11, 93
7, 113219, Control_c, 4, 11, 94
7, 113220, Control_c, 4, 11, 95
7, 113222, Control_c, 4, 11, 96
7, 113224, Control_c, 4, 11, 97
7, 113226, Control_c, 4, 11, 98
7, 113228, Control_c, 4, 11, 99
7, 113230, Control_c, 4, 11, 100
7, 113232, Control_c, 4, 11, 101
7, 113233, Control_c, 4, 11, 102
7, 113235, Control_c, 4, 11, 103
7, 113237, Control_c, 4, 11, 104
7, 113239, Control_c, 4, 11, 105
7, 113241, Control_c, 4, 11, 106
7, 113243, Control_c, 4, 11, 107
7, 113244, Control_c, 4, 11, 108
7, 113246, Control_c, 4, 11, 109
7, 113248, Control_c, 4, 11, 110
7, 113250, Control_c, 4, 11, 111
7, 113252, Control_c, 4, 11, 112
7, 113254, Control_c, 4, 11, 113
7, 113256, Control_c, 4, 11, 114
7, 113257, Control_c, 4, 11, 115
7, 113259, Control_c, 4, 11, 116
7, 113261, Control_c, 4, 11, 117
7, 113263, Control_c, 4, 11, 118
7, 113265, Control_c, 4, 11, 119
7, 113267, Control_c, 4, 11, 120
7, 113268, Control_c, 4, 11, 121
7, 113270, Control_c, 4, 11, 122
7, 113272, Control_c, 4, 11, 123
7, 113274, Control_c, 4, 11, 124
7, 113276, Control_c, 4, 11, 125
7, 113278, Control_c, 4, 11, 126
7, 113280, Control_c, 4, 11, 127
7, 113281, Control_c, 4, 11, 126
7, 113283, Control_c, 4, 11, 125
7, 113285, Control_c, 4, 11, 124
7, 113287, Control_c, 4, 11, 123
7, 113289, Control_c, 4, 11, 122
7, 113291, Control_c, 4, 11, 121
7, 113292, Control_c, 4, 11, 120
7, 113294, Control_c, 4, 11, 119
7, 113296, Control_c, 4, 11, 118
7, 113298, Control_c, 4, 11, 117
7, 113300, Control_c, 4, 11, 116
7, 113302, Control_c, 4, 11, 115
7, 113304, Control_c, 4, 11, 114
7, 113305, Control_c, 4, 11, 113
7, 113307, Control_c, 4, 11, 112
7, 113309, Control_c, 4, 11, 111
7, 113311, Control_c, 4, 11, 110
7, 113313, Control_c, 4, 11, 109
7, 113315, Control_c, 4, 11, 108
7, 113316, Control_c, 4, 11, 107
7, 113318, Control_c, 4, 11, 106
7, 113320, Control_c, 4, 11, 105
7, 113322, Control_c, 4, 11, 104
7, 113324, Control_c, 4, 11, 103
7, 113326, Control_c, 4, 11, 102
7, 113328, Control_c, 4, 11, 101
7, 113329, Control_c, 4, 11, 100
7, 113331, Control_c, 4, 11, 99
7, 113333, Control_c, 4, 11, 98
7, 113335, Control_c, 4, 11, 97
7, 113337, Control_c, 4, 11, 96
7, 113339, Control_c, 4, 11, 95
7, 113340, Control_c, 4, 11, 94
7, 113342, Control_c, 4, 11, 93
7, 113344, Note_on_c, 4, 56, 0
7, 113344, Note_on_c, 4, 61, 0
7, 113344, Note_on_c, 4, 68, 0
7, 113344, Control_c, 4, 11, 92
7, 113346, Control_c, 4, 11, 91
7, 113348, Control_c, 4, 11, 90
7, 113350, Control_c, 4, 11, 89
7, 113352, Control_c, 4, 11, 88
7, 113353, Control_c, 4, 11, 87
7, 113355, Control_c, 4, 11, 86
7, 113357, Control_c, 4, 11, 85
7, 113359, Control_c, 4, 11, 84
7, 113361, Control_c, 4, 11, 83
7, 113363, Control_c, 4, 11, 82
7, 113364, Control_c, 4, 11, 81
7, 113366, Control_c, 4, 11, 80
7, 113368, Control_c, 4, 11, 79
7, 113370, Control_c, 4, 11, 78
7, 113372, Control_c, 4, 11, 77
7, 113374, Control_c, 4, 11, 76
7, 113376, Control_c, 4, 11, 75
7, 113376, Control_c, 4, 11, 75
7, 113376, Note_on_c, 4, 53, 127
7, 113376, Note_on_c, 4, 58, 123
7, 113376, Note_on_c, 4, 65, 124
7, 113377, Control_c, 4, 11, 76
7, 113379, Control_c, 4, 11, 77
7, 113381, Control_c, 4, 11, 78
7, 113383, Control_c, 4, 11, 79
7, 113385, Control_c, 4, 11, 80
7, 113387, Control_c, 4, 11, 81
7, 113388, Control_c, 4, 11, 82
7, 113390, Control_c, 4, 11, 83
7, 113392, Control_c, 4, 11, 84
7, 113394, Control_c, 4, 11, 85
7, 113396, Control_c, 4, 11, 86
7, 113398, Control_c, 4, 11, 87
7, 113400, Control_c, 4, 11, 88
7, 113401, Control_c, 4, 11, 89
7, 113403, Control_c, 4, 11, 90
7, 113405, Control_c, 4, 11, 91
7, 113407, Control_c, 4, 11, 92
7, 113409, Control_c, 4, 11, 93
7, 113411, Control_c, 4, 11, 94
7, 113412, Control_c, 4, 11, 95
7, 113414, Control_c, 4, 11, 96
7, 113416, Control_c, 4, 11, 97
7, 113418, Control_c, 4, 11, 98
7, 113420, Control_c, 4, 11, 99
7, 113422, Control_c, 4, 11, 100
7, 113424, Control_c, 4, 11, 101
7, 113425, Control_c, 4, 11, 102
7, 113427, Control_c, 4, 11, 103
7, 113429, Control_c, 4, 11, 104
7, 113431, Control_c, 4, 11, 105
7, 113433, Control_c, 4, 11, 106
7, 113435, Control_c, 4, 11, 107
7, 113436, Control_c, 4, 11, 108
7, 113438, Control_c, 4, 11, 109
7, 113440, Control_c, 4, 11, 110
7, 113442, Control_c, 4, 11, 111
7, 113444, Control_c, 4, 11, 112
7, 113446, Control_c, 4, 11, 113
7, 113448, Control_c, 4, 11, 114
7, 113449, Control_c, 4, 11, 115
7, 113451, Control_c, 4, 11, 116
7, 113453, Control_c, 4, 11, 117
7, 113455, Control_c, 4, 11, 118
7, 113457, Control_c, 4, 11, 119
7, 113459, Control_c, 4, 11, 120
7, 113460, Control_c, 4, 11, 121
7, 113462, Control_c, 4, 11, 122
7, 113464, Control_c, 4, 11, 123
7, 113466, Control_c, 4, 11, 124
7, 113468, Control_c, 4, 11, 125
7, 113470, Control_c, 4, 11, 126
7, 113472, Control_c, 4, 11, 127
7, 113474, Control_c, 4, 11, 126
7, 113476, Control_c, 4, 11, 125
7, 113478, Control_c, 4, 11, 124
7, 113481, Control_c, 4, 11, 123
7, 113483, Control_c, 4, 11, 122
7, 113485, Control_c, 4, 11, 121
7, 113487, Control_c, 4, 11, 120
7, 113490, Control_c, 4, 11, 119
7, 113492, Control_c, 4, 11, 118
7, 113494, Control_c, 4, 11, 117
7, 113496, Control_c, 4, 11, 116
7, 113499, Control_c, 4, 11, 115
7, 113501, Control_c, 4, 11, 114
7, 113503, Control_c, 4, 11, 113
7, 113506, Control_c, 4, 11, 112
7, 113508, Control_c, 4, 11, 111
7, 113510, Control_c, 4, 11, 110
7, 113512, Control_c, 4, 11, 109
7, 113515, Control_c, 4, 11, 108
7, 113517, Control_c, 4, 11, 107
7, 113519, Control_c, 4, 11, 106
7, 113521, Control_c, 4, 11, 105
7, 113524, Control_c, 4, 11, 104
7, 113526, Control_c, 4, 11, 103
7, 113528, Control_c, 4, 11, 102
7, 113530, Control_c, 4, 11, 101
7, 113533, Control_c, 4, 11, 100
7, 113535, Control_c, 4, 11, 99
7, 113537, Control_c, 4, 11, 98
7, 113540, Control_c, 4, 11, 97
7, 113542, Control_c, 4, 11, 96
7, 113544, Control_c, 4, 11, 95
7, 113546, Control_c, 4, 11, 94
7, 113549, Control_c, 4, 11, 93
7, 113551, Control_c, 4, 11, 92
7, 113553, Control_c, 4, 11, 91
7, 113555, Control_c, 4, 11, 90
7, 113558, Control_c, 4, 11, 89
7, 113560, Control_c, 4, 11, 88
7, 113562, Control_c, 4, 11, 87
7, 113564, Control_c, 4, 11, 86
7, 113567, Control_c, 4, 11, 85
7, 113569, Control_c, 4, 11, 84
7, 113571, Control_c, 4, 11, 83
7, 113574, Control_c, 4, 11, 82
7, 113576, Control_c, 4, 11, 81
7, 113578, Control_c, 4, 11, 80
7, 113580, Control_c, 4, 11, 79
7, 113583, Control_c, 4, 11, 78
7, 113585, Control_c, 4, 11, 77
7, 113587, Control_c, 4, 11, 76
7, 113589, Control_c, 4, 11, 75
7, 113592, Control_c, 4, 11, 74
7, 113594, Control_c, 4, 11, 73
7, 113596, Control_c, 4, 11, 72
7, 113598, Control_c, 4, 11, 71
7, 113601, Control_c, 4, 11, 70
7, 113603, Control_c, 4, 11, 69
7, 113605, Control_c, 4, 11, 68
7, 113608, Control_c, 4, 11, 67
7, 113610, Control_c, 4, 11, 66
7, 113612, Control_c, 4, 11, 65
7, 113614, Control_c, 4, 11, 64
7, 113617, Control_c, 4, 11, 63
7, 113619, Control_c, 4, 11, 62
7, 113621, Control_c, 4, 11, 61
7, 113623, Control_c, 4, 11, 60
7, 113626, Control_c, 4, 11, 59
7, 113628, Control_c, 4, 11, 58
7, 113630, Control_c, 4, 11, 57
7, 113633, Control_c, 4, 11, 56
7, 113635, Control_c, 4, 11, 55
7, 113637, Control_c, 4, 11, 54
7, 113639, Control_c, 4, 11, 53
7, 113642, Control_c, 4, 11, 52
7, 113644, Control_c, 4, 11, 51
7, 113646, Control_c, 4, 11, 50
7, 113648, Control_c, 4, 11, 49
7, 113651, Control_c, 4, 11, 48
7, 113653, Control_c, 4, 11, 47
7, 113655, Control_c, 4, 11, 46
7, 113657, Control_c, 4, 11, 45
7, 113660, Control_c, 4, 11, 44
7, 113662, Control_c, 4, 11, 43
7, 113664, Control_c, 4, 11, 42
7, 113667, Control_c, 4, 11, 41
7, 113669, Control_c, 4, 11, 40
7, 113671, Control_c, 4, 11, 39
7, 113673, Control_c, 4, 11, 38
7, 113676, Control_c, 4, 11, 37
7, 113678, Control_c, 4, 11, 36
7, 113680, Control_c, 4, 11, 35
7, 113682, Control_c, 4, 11, 34
7, 113685, Control_c, 4, 11, 33
7, 113687, Control_c, 4, 11, 32
7, 113689, Control_c, 4, 11, 31
7, 113691, Control_c, 4, 11, 30
7, 113694, Control_c, 4, 11, 29
7, 113696, Control_c, 4, 11, 28
7, 113698, Control_c, 4, 11, 27
7, 113701, Control_c, 4, 11, 26
7, 113703, Control_c, 4, 11, 25
7, 113705, Control_c, 4, 11, 24
7, 113707, Control_c, 4, 11, 23
7, 113710, Control_c, 4, 11, 22
7, 113712, Control_c, 4, 11, 21
7, 113714, Control_c, 4, 11, 20
7, 113716, Control_c, 4, 11, 19
7, 113719, Control_c, 4, 11, 18
7, 113721, Control_c, 4, 11, 17
7, 113723, Control_c, 4, 11, 16
7, 113725, Control_c, 4, 11, 15
7, 113728, Note_on_c, 4, 53, 0
7, 113728, Note_on_c, 4, 58, 0
7, 113728, Note_on_c, 4, 65, 0
7, 113728, Control_c, 4, 11, 14
7, 113730, Control_c, 4, 11, 13
7, 113732, Control_c, 4, 11, 12
7, 113735, Control_c, 4, 11, 11
7, 113737, Control_c, 4, 11, 10
7, 113739, Control_c, 4, 11, 9
7, 113741, Control_c, 4, 11, 8
7, 113744, Control_c, 4, 11, 7
7, 113746, Control_c, 4, 11, 6
7, 113748, Control_c, 4, 11, 5
7, 113750, Control_c, 4, 11, 4
7, 113753, Control_c, 4, 11, 3
7, 113755, Control_c, 4, 11, 2
7, 113757, Control_c, 4, 11, 1
7, 113760, Control_c, 4, 11, 0
7, 113760, End_track
8, 0, Start_track
8, 0, Title_t, "Corni I - II - III - IV in Fa"
8, 0, MIDI_port, 0
8, 105, Control_c, 5, 0, 0
8, 106, Control_c, 5, 32, 0
8, 107, Program_c, 5, 60
8, 108, Control_c, 5, 7, 127
8, 109, Control_c, 5, 10, 44
8, 110, Control_c, 5, 91, 96
8, 32640, Control_c, 5, 11, 64
8, 32643, Control_c, 5, 11, 65
8, 32646, Control_c, 5, 11, 66
8, 32650, Control_c, 5, 11, 67
8, 32653, Control_c, 5, 11, 68
8, 32657, Control_c, 5, 11, 69
8, 32660, Control_c, 5, 11, 70
8, 32664, Control_c, 5, 11, 71
8, 32667, Control_c, 5, 11, 72
8, 32670, Control_c, 5, 11, 73
8, 32674, Control_c, 5, 11, 74
8, 32677, Control_c, 5, 11, 75
8, 32681, Control_c, 5, 11, 76
8, 32684, Control_c, 5, 11, 77
8, 32688, Control_c, 5, 11, 78
8, 32691, Control_c, 5, 11, 79
8, 32694, Control_c, 5, 11, 80
8, 32698, Control_c, 5, 11, 81
8, 32701, Control_c, 5, 11, 82
8, 32705, Control_c, 5, 11, 83
8, 32708, Control_c, 5, 11, 84
8, 32712, Control_c, 5, 11, 85
8, 32715, Control_c, 5, 11, 86
8, 32718, Control_c, 5, 11, 87
8, 32722, Control_c, 5, 11, 88
8, 32725, Control_c, 5, 11, 89
8, 32729, Control_c, 5, 11, 90
8, 32732, Control_c, 5, 11, 91
8, 32736, Note_on_c, 5, 59, 4
8, 32736, Note_on_c, 5, 71, 6
8, 32736, Note_on_c, 5, 59, 75
8, 32736, Note_on_c, 5, 71, 78
8, 32736, Control_c, 5, 11, 92
8, 32830, Note_on_c, 5, 59, 0
8, 32830, Note_on_c, 5, 71, 0
8, 32830, Note_on_c, 5, 59, 0
8, 32830, Note_on_c, 5, 71, 0
8, 32832, Note_on_c, 5, 71, 75
8, 32832, Note_on_c, 5, 71, 1
8, 32832, Note_on_c, 5, 59, 70
8, 32832, Note_on_c, 5, 59, 1
8, 32974, Note_on_c, 5, 71, 0
8, 32974, Note_on_c, 5, 71, 0
8, 32974, Note_on_c, 5, 59, 0
8, 32974, Note_on_c, 5, 59, 0
8, 32976, Note_on_c, 5, 61, 75
8, 32976, Note_on_c, 5, 61, 1
8, 32976, Note_on_c, 5, 73, 1
8, 32976, Note_on_c, 5, 73, 71
8, 33022, Note_on_c, 5, 61, 0
8, 33022, Note_on_c, 5, 61, 0
8, 33022, Note_on_c, 5, 73, 0
8, 33022, Note_on_c, 5, 73, 0
8, 33024, Note_on_c, 5, 59, 3
8, 33024, Note_on_c, 5, 59, 78
8, 33024, Note_on_c, 5, 71, 78
8, 33024, Note_on_c, 5, 71, 3
8, 33070, Note_on_c, 5, 59, 0
8, 33070, Note_on_c, 5, 59, 0
8, 33070, Note_on_c, 5, 71, 0
8, 33070, Note_on_c, 5, 71, 0
8, 33072, Note_on_c, 5, 56, 70
8, 33072, Note_on_c, 5, 56, 1
8, 33072, Note_on_c, 5, 68, 1
8, 33072, Note_on_c, 5, 68, 74
8, 33310, Note_on_c, 5, 56, 0
8, 33310, Note_on_c, 5, 56, 0
8, 33310, Note_on_c, 5, 68, 0
8, 33310, Note_on_c, 5, 68, 0
8, 33408, Control_c, 5, 11, 64
8, 33408, Note_on_c, 5, 59, 70
8, 33408, Note_on_c, 5, 59, 2
8, 33408, Note_on_c, 5, 71, 4
8, 33408, Note_on_c, 5, 71, 78
8, 33421, Control_c, 5, 11, 65
8, 33435, Control_c, 5, 11, 66
8, 33449, Control_c, 5, 11, 67
8, 33462, Control_c, 5, 11, 68
8, 33476, Control_c, 5, 11, 69
8, 33490, Control_c, 5, 11, 70
8, 33502, Note_on_c, 5, 59, 0
8, 33502, Note_on_c, 5, 59, 0
8, 33502, Note_on_c, 5, 71, 0
8, 33502, Note_on_c, 5, 71, 0
8, 33504, Control_c, 5, 11, 71
8, 33504, Note_on_c, 5, 61, 77
8, 33504, Note_on_c, 5, 73, 71
8, 33504, Note_on_c, 5, 61, 1
8, 33504, Note_on_c, 5, 73, 1
8, 33517, Control_c, 5, 11, 72
8, 33531, Control_c, 5, 11, 73
8, 33545, Control_c, 5, 11, 74
8, 33558, Control_c, 5, 11, 75
8, 33572, Control_c, 5, 11, 76
8, 33586, Control_c, 5, 11, 77
8, 33598, Note_on_c, 5, 61, 0
8, 33598, Note_on_c, 5, 73, 0
8, 33598, Note_on_c, 5, 61, 0
8, 33598, Note_on_c, 5, 73, 0
8, 33600, Control_c, 5, 11, 78
8, 33600, Note_on_c, 5, 59, 73
8, 33600, Note_on_c, 5, 71, 77
8, 33600, Note_on_c, 5, 59, 6
8, 33600, Note_on_c, 5, 71, 5
8, 33613, Control_c, 5, 11, 79
8, 33627, Control_c, 5, 11, 80
8, 33641, Control_c, 5, 11, 81
8, 33654, Control_c, 5, 11, 82
8, 33668, Control_c, 5, 11, 83
8, 33682, Control_c, 5, 11, 84
8, 33694, Note_on_c, 5, 59, 0
8, 33694, Note_on_c, 5, 71, 0
8, 33694, Note_on_c, 5, 59, 0
8, 33694, Note_on_c, 5, 71, 0
8, 33696, Control_c, 5, 11, 85
8, 33696, Note_on_c, 5, 56, 78
8, 33696, Note_on_c, 5, 56, 5
8, 33696, Note_on_c, 5, 68, 1
8, 33696, Note_on_c, 5, 68, 73
8, 33709, Control_c, 5, 11, 86
8, 33723, Control_c, 5, 11, 87
8, 33737, Control_c, 5, 11, 88
8, 33750, Control_c, 5, 11, 89
8, 33764, Control_c, 5, 11, 90
8, 33778, Control_c, 5, 11, 91
8, 33790, Note_on_c, 5, 56, 0
8, 33790, Note_on_c, 5, 56, 0
8, 33790, Note_on_c, 5, 68, 0
8, 33790, Note_on_c, 5, 68, 0
8, 33792, Note_on_c, 5, 55, 5
8, 33792, Note_on_c, 5, 67, 1
8, 33792, Control_c, 5, 11, 92
8, 33792, Note_on_c, 5, 55, 75
8, 33792, Note_on_c, 5, 67, 79
8, 33812, Control_c, 5, 11, 91
8, 33833, Control_c, 5, 11, 90
8, 33838, Note_on_c, 5, 55, 0
8, 33838, Note_on_c, 5, 67, 0
8, 33838, Note_on_c, 5, 55, 0
8, 33838, Note_on_c, 5, 67, 0
8, 33840, Note_on_c, 5, 56, 75
8, 33840, Note_on_c, 5, 68, 72
8, 33840, Note_on_c, 5, 56, 1
8, 33840, Note_on_c, 5, 68, 3
8, 33853, Control_c, 5, 11, 89
8, 33874, Control_c, 5, 11, 88
8, 33886, Note_on_c, 5, 56, 0
8, 33886, Note_on_c, 5, 68, 0
8, 33886, Note_on_c, 5, 56, 0
8, 33886, Note_on_c, 5, 68, 0
8, 33888, Note_on_c, 5, 65, 1
8, 33888, Note_on_c, 5, 53, 1
8, 33888, Note_on_c, 5, 53, 74
8, 33888, Note_on_c, 5, 65, 79
8, 33894, Control_c, 5, 11, 87
8, 33915, Control_c, 5, 11, 86
8, 33935, Control_c, 5, 11, 85
8, 33956, Control_c, 5, 11, 84
8, 33977, Control_c, 5, 11, 83
8, 33982, Note_on_c, 5, 65, 0
8, 33982, Note_on_c, 5, 53, 0
8, 33982, Note_on_c, 5, 53, 0
8, 33982, Note_on_c, 5, 65, 0
8, 33984, Note_on_c, 5, 56, 79
8, 33984, Note_on_c, 5, 68, 79
8, 33984, Note_on_c, 5, 56, 1
8, 33984, Note_on_c, 5, 68, 1
8, 33997, Control_c, 5, 11, 82
8, 34018, Control_c, 5, 11, 81
8, 34038, Control_c, 5, 11, 80
8, 34059, Control_c, 5, 11, 79
8, 34078, Note_on_c, 5, 56, 0
8, 34078, Note_on_c, 5, 68, 0
8, 34078, Note_on_c, 5, 56, 0
8, 34078, Note_on_c, 5, 68, 0
8, 34079, Control_c, 5, 11, 78
8, 34080, Note_on_c, 5, 70, 74
8, 34080, Note_on_c, 5, 58, 79
8, 34080, Note_on_c, 5, 58, 1
8, 34080, Note_on_c, 5, 70, 1
8, 34100, Control_c, 5, 11, 77
8, 34121, Control_c, 5, 11, 76
8, 34141, Control_c, 5, 11, 75
8, 34162, Control_c, 5, 11, 74
8, 34174, Note_on_c, 5, 70, 0
8, 34174, Note_on_c, 5, 58, 0
8, 34174, Note_on_c, 5, 58, 0
8, 34174, Note_on_c, 5, 70, 0
8, 34176, Note_on_c, 5, 56, 2
8, 34176, Note_on_c, 5, 68, 1
8, 34176, Note_on_c, 5, 56, 71
8, 34176, Note_on_c, 5, 68, 79
8, 34182, Control_c, 5, 11, 73
8, 34203, Control_c, 5, 11, 72
8, 34223, Control_c, 5, 11, 71
8, 34244, Control_c, 5, 11, 70
8, 34265, Control_c, 5, 11, 69
8, 34270, Note_on_c, 5, 56, 0
8, 34270, Note_on_c, 5, 68, 0
8, 34270, Note_on_c, 5, 56, 0
8, 34270, Note_on_c, 5, 68, 0
8, 34272, Note_on_c, 5, 65, 2
8, 34272, Note_on_c, 5, 53, 1
8, 34272, Note_on_c, 5, 53, 75
8, 34272, Note_on_c, 5, 65, 70
8, 34285, Control_c, 5, 11, 68
8, 34306, Control_c, 5, 11, 67
8, 34326, Control_c, 5, 11, 66
8, 34347, Control_c, 5, 11, 65
8, 34366, Note_on_c, 5, 65, 0
8, 34366, Note_on_c, 5, 53, 0
8, 34366, Note_on_c, 5, 53, 0
8, 34366, Note_on_c, 5, 65, 0
8, 34368, Note_on_c, 5, 67, 2
8, 34368, Note_on_c, 5, 67, 91
8, 34368, Note_on_c, 5, 55, 1
8, 34368, Control_c, 5, 11, 64
8, 34368, Note_on_c, 5, 55, 97
8, 34368, Control_c, 5, 11, 64
8, 34371, Control_c, 5, 11, 65
8, 34374, Control_c, 5, 11, 66
8, 34377, Control_c, 5, 11, 67
8, 34380, Control_c, 5, 11, 68
8, 34383, Control_c, 5, 11, 69
8, 34386, Control_c, 5, 11, 70
8, 34389, Control_c, 5, 11, 71
8, 34392, Control_c, 5, 11, 72
8, 34395, Control_c, 5, 11, 73
8, 34398, Control_c, 5, 11, 74
8, 34401, Control_c, 5, 11, 75
8, 34404, Control_c, 5, 11, 76
8, 34407, Control_c, 5, 11, 77
8, 34410, Control_c, 5, 11, 78
8, 34413, Control_c, 5, 11, 79
8, 34414, Note_on_c, 5, 67, 0
8, 34414, Note_on_c, 5, 67, 0
8, 34414, Note_on_c, 5, 55, 0
8, 34414, Note_on_c, 5, 55, 0
8, 34416, Control_c, 5, 11, 80
8, 34416, Note_on_c, 5, 68, 96
8, 34416, Note_on_c, 5, 68, 1
8, 34416, Note_on_c, 5, 56, 96
8, 34416, Note_on_c, 5, 56, 3
8, 34419, Control_c, 5, 11, 81
8, 34422, Control_c, 5, 11, 82
8, 34425, Control_c, 5, 11, 83
8, 34428, Control_c, 5, 11, 84
8, 34432, Control_c, 5, 11, 85
8, 34435, Control_c, 5, 11, 86
8, 34438, Control_c, 5, 11, 87
8, 34441, Control_c, 5, 11, 88
8, 34444, Control_c, 5, 11, 89
8, 34447, Control_c, 5, 11, 90
8, 34450, Control_c, 5, 11, 91
8, 34453, Control_c, 5, 11, 92
8, 34456, Control_c, 5, 11, 93
8, 34459, Control_c, 5, 11, 94
8, 34462, Control_c, 5, 11, 95
8, 34465, Control_c, 5, 11, 96
8, 34468, Control_c, 5, 11, 97
8, 34471, Control_c, 5, 11, 98
8, 34474, Control_c, 5, 11, 99
8, 34477, Control_c, 5, 11, 100
8, 34480, Control_c, 5, 11, 101
8, 34483, Control_c, 5, 11, 102
8, 34486, Control_c, 5, 11, 103
8, 34489, Control_c, 5, 11, 104
8, 34492, Control_c, 5, 11, 105
8, 34496, Control_c, 5, 11, 106
8, 34499, Control_c, 5, 11, 107
8, 34502, Control_c, 5, 11, 108
8, 34505, Control_c, 5, 11, 109
8, 34508, Control_c, 5, 11, 110
8, 34511, Control_c, 5, 11, 111
8, 34514, Control_c, 5, 11, 112
8, 34517, Control_c, 5, 11, 113
8, 34520, Control_c, 5, 11, 114
8, 34523, Control_c, 5, 11, 115
8, 34526, Control_c, 5, 11, 116
8, 34529, Control_c, 5, 11, 117
8, 34532, Control_c, 5, 11, 118
8, 34535, Control_c, 5, 11, 119
8, 34538, Control_c, 5, 11, 120
8, 34541, Control_c, 5, 11, 121
8, 34544, Control_c, 5, 11, 122
8, 34547, Control_c, 5, 11, 123
8, 34550, Control_c, 5, 11, 124
8, 34553, Control_c, 5, 11, 125
8, 34556, Control_c, 5, 11, 126
8, 34560, Control_c, 5, 11, 127
8, 34624, Note_on_c, 5, 68, 0
8, 34624, Note_on_c, 5, 68, 0
8, 34624, Note_on_c, 5, 56, 0
8, 34624, Note_on_c, 5, 56, 0
8, 34656, Control_c, 5, 11, 127
8, 34656, Note_on_c, 5, 53, 88
8, 34656, Note_on_c, 5, 53, 1
8, 34656, Note_on_c, 5, 65, 1
8, 34656, Note_on_c, 5, 65, 90
8, 34677, Control_c, 5, 11, 126
8, 34698, Control_c, 5, 11, 125
8, 34719, Control_c, 5, 11, 124
8, 34740, Control_c, 5, 11, 123
8, 34761, Control_c, 5, 11, 122
8, 34782, Control_c, 5, 11, 121
8, 34803, Control_c, 5, 11, 120
8, 34816, Note_on_c, 5, 53, 0
8, 34816, Note_on_c, 5, 53, 0
8, 34816, Note_on_c, 5, 65, 0
8, 34816, Note_on_c, 5, 65, 0
8, 34824, Control_c, 5, 11, 119
8, 34845, Control_c, 5, 11, 118
8, 34848, Note_on_c, 5, 63, 1
8, 34848, Note_on_c, 5, 63, 93
8, 34848, Note_on_c, 5, 51, 1
8, 34848, Note_on_c, 5, 51, 95
8, 34866, Control_c, 5, 11, 117
8, 34887, Control_c, 5, 11, 116
8, 34908, Control_c, 5, 11, 115
8, 34929, Control_c, 5, 11, 114
8, 34951, Control_c, 5, 11, 113
8, 34972, Control_c, 5, 11, 112
8, 34990, Note_on_c, 5, 63, 0
8, 34990, Note_on_c, 5, 63, 0
8, 34990, Note_on_c, 5, 51, 0
8, 34990, Note_on_c, 5, 51, 0
8, 34992, Note_on_c, 5, 49, 88
8, 34992, Note_on_c, 5, 49, 3
8, 34992, Note_on_c, 5, 61, 3
8, 34992, Note_on_c, 5, 61, 91
8, 34993, Control_c, 5, 11, 111
8, 35014, Control_c, 5, 11, 110
8, 35035, Control_c, 5, 11, 109
8, 35056, Control_c, 5, 11, 108
8, 35077, Control_c, 5, 11, 107
8, 35098, Control_c, 5, 11, 106
8, 35119, Control_c, 5, 11, 105
8, 35140, Control_c, 5, 11, 104
8, 35161, Control_c, 5, 11, 103
8, 35182, Control_c, 5, 11, 102
8, 35203, Control_c, 5, 11, 101
8, 35224, Control_c, 5, 11, 100
8, 35246, Control_c, 5, 11, 99
8, 35267, Control_c, 5, 11, 98
8, 35288, Control_c, 5, 11, 97
8, 35309, Control_c, 5, 11, 96
8, 35326, Note_on_c, 5, 49, 0
8, 35326, Note_on_c, 5, 49, 0
8, 35326, Note_on_c, 5, 61, 0
8, 35326, Note_on_c, 5, 61, 0
8, 35328, Note_on_c, 5, 46, 92
8, 35328, Note_on_c, 5, 58, 95
8, 35328, Note_on_c, 5, 46, 1
8, 35328, Note_on_c, 5, 58, 1
8, 35330, Control_c, 5, 11, 95
8, 35351, Control_c, 5, 11, 94
8, 35372, Control_c, 5, 11, 93
8, 35393, Control_c, 5, 11, 92
8, 35414, Control_c, 5, 11, 91
8, 35422, Note_on_c, 5, 46, 0
8, 35422, Note_on_c, 5, 58, 0
8, 35422, Note_on_c, 5, 46, 0
8, 35422, Note_on_c, 5, 58, 0
8, 35424, Note_on_c, 5, 61, 1
8, 35424, Note_on_c, 5, 61, 91
8, 35424, Note_on_c, 5, 49, 1
8, 35424, Note_on_c, 5, 49, 89
8, 35435, Control_c, 5, 11, 90
8, 35456, Control_c, 5, 11, 89
8, 35477, Control_c, 5, 11, 88
8, 35498, Control_c, 5, 11, 87
8, 35518, Note_on_c, 5, 61, 0
8, 35518, Note_on_c, 5, 61, 0
8, 35518, Note_on_c, 5, 49, 0
8, 35518, Note_on_c, 5, 49, 0
8, 35520, Note_on_c, 5, 51, 6
8, 35520, Note_on_c, 5, 63, 1
8, 35520, Control_c, 5, 11, 86
8, 35520, Note_on_c, 5, 51, 93
8, 35520, Note_on_c, 5, 63, 96
8, 35541, Control_c, 5, 11, 85
8, 35562, Control_c, 5, 11, 84
8, 35583, Control_c, 5, 11, 83
8, 35604, Control_c, 5, 11, 82
8, 35616, Note_on_c, 5, 51, 0
8, 35616, Note_on_c, 5, 63, 0
8, 35616, Note_on_c, 5, 51, 0
8, 35616, Note_on_c, 5, 63, 0
8, 35616, Note_on_c, 5, 49, 93
8, 35616, Note_on_c, 5, 61, 87
8, 35616, Note_on_c, 5, 61, 6
8, 35616, Note_on_c, 5, 49, 1
8, 35625, Control_c, 5, 11, 81
8, 35646, Control_c, 5, 11, 80
8, 35667, Control_c, 5, 11, 79
8, 35688, Control_c, 5, 11, 78
8, 35709, Control_c, 5, 11, 77
8, 35730, Control_c, 5, 11, 76
8, 35751, Control_c, 5, 11, 75
8, 35772, Control_c, 5, 11, 74
8, 35776, Note_on_c, 5, 49, 0
8, 35776, Note_on_c, 5, 61, 0
8, 35776, Note_on_c, 5, 61, 0
8, 35776, Note_on_c, 5, 49, 0
8, 35793, Control_c, 5, 11, 73
8, 35808, Note_on_c, 5, 63, 90
8, 35808, Note_on_c, 5, 51, 87
8, 35815, Control_c, 5, 11, 72
8, 35836, Control_c, 5, 11, 71
8, 35857, Control_c, 5, 11, 70
8, 35878, Control_c, 5, 11, 69
8, 35899, Control_c, 5, 11, 68
8, 35920, Control_c, 5, 11, 67
8, 35941, Control_c, 5, 11, 66
8, 35962, Control_c, 5, 11, 65
8, 35983, Control_c, 5, 11, 64
8, 36000, Note_on_c, 5, 63, 0
8, 36000, Note_on_c, 5, 51, 0
8, 36000, Note_on_c, 5, 49, 88
8, 36000, Note_on_c, 5, 61, 87
8, 36004, Control_c, 5, 11, 63
8, 36025, Control_c, 5, 11, 62
8, 36046, Control_c, 5, 11, 61
8, 36067, Control_c, 5, 11, 60
8, 36088, Control_c, 5, 11, 59
8, 36094, Note_on_c, 5, 49, 0
8, 36094, Note_on_c, 5, 61, 0
8, 36110, Control_c, 5, 11, 58
8, 36131, Control_c, 5, 11, 57
8, 36152, Control_c, 5, 11, 56
8, 36173, Control_c, 5, 11, 55
8, 36194, Control_c, 5, 11, 54
8, 36215, Control_c, 5, 11, 53
8, 36236, Control_c, 5, 11, 52
8, 36257, Control_c, 5, 11, 51
8, 36278, Control_c, 5, 11, 50
8, 36299, Control_c, 5, 11, 49
8, 36320, Control_c, 5, 11, 48
8, 36341, Control_c, 5, 11, 47
8, 36362, Control_c, 5, 11, 46
8, 36384, Control_c, 5, 11, 45
8, 39552, Note_on_c, 5, 56, 25
8, 40656, Note_on_c, 5, 56, 0
8, 40704, Note_on_c, 5, 56, 43
8, 41232, Note_on_c, 5, 56, 0
8, 41280, Control_c, 5, 11, 64
8, 41280, Note_on_c, 5, 59, 70
8, 41280, Note_on_c, 5, 69, 80
8, 41289, Control_c, 5, 11, 65
8, 41298, Control_c, 5, 11, 66
8, 41307, Control_c, 5, 11, 67
8, 41316, Control_c, 5, 11, 68
8, 41325, Control_c, 5, 11, 69
8, 41334, Control_c, 5, 11, 70
8, 41344, Control_c, 5, 11, 71
8, 41353, Control_c, 5, 11, 72
8, 41362, Control_c, 5, 11, 73
8, 41371, Control_c, 5, 11, 74
8, 41380, Control_c, 5, 11, 75
8, 41389, Control_c, 5, 11, 76
8, 41398, Control_c, 5, 11, 77
8, 41408, Control_c, 5, 11, 78
8, 41417, Control_c, 5, 11, 79
8, 41426, Control_c, 5, 11, 80
8, 41435, Control_c, 5, 11, 81
8, 41444, Control_c, 5, 11, 82
8, 41453, Control_c, 5, 11, 83
8, 41462, Control_c, 5, 11, 84
8, 41472, Note_on_c, 5, 69, 0
8, 41472, Note_on_c, 5, 68, 72
8, 41472, Control_c, 5, 11, 85
8, 41481, Control_c, 5, 11, 86
8, 41490, Control_c, 5, 11, 87
8, 41499, Control_c, 5, 11, 88
8, 41508, Control_c, 5, 11, 89
8, 41517, Control_c, 5, 11, 90
8, 41526, Control_c, 5, 11, 91
8, 41536, Control_c, 5, 11, 92
8, 41545, Control_c, 5, 11, 93
8, 41554, Control_c, 5, 11, 94
8, 41563, Control_c, 5, 11, 95
8, 41568, Note_on_c, 5, 68, 0
8, 41568, Note_on_c, 5, 67, 72
8, 41572, Control_c, 5, 11, 96
8, 41581, Control_c, 5, 11, 97
8, 41590, Control_c, 5, 11, 98
8, 41600, Control_c, 5, 11, 99
8, 41609, Control_c, 5, 11, 100
8, 41618, Control_c, 5, 11, 101
8, 41627, Control_c, 5, 11, 102
8, 41636, Control_c, 5, 11, 103
8, 41645, Control_c, 5, 11, 104
8, 41654, Control_c, 5, 11, 105
8, 41664, Control_c, 5, 11, 106
8, 41673, Control_c, 5, 11, 107
8, 41682, Control_c, 5, 11, 108
8, 41691, Control_c, 5, 11, 109
8, 41700, Control_c, 5, 11, 110
8, 41709, Control_c, 5, 11, 111
8, 41718, Control_c, 5, 11, 112
8, 41728, Control_c, 5, 11, 113
8, 41737, Control_c, 5, 11, 114
8, 41746, Control_c, 5, 11, 115
8, 41755, Control_c, 5, 11, 116
8, 41760, Note_on_c, 5, 67, 0
8, 41760, Note_on_c, 5, 66, 75
8, 41764, Control_c, 5, 11, 117
8, 41773, Control_c, 5, 11, 118
8, 41782, Control_c, 5, 11, 119
8, 41792, Control_c, 5, 11, 120
8, 41801, Control_c, 5, 11, 121
8, 41808, Note_on_c, 5, 59, 0
8, 41810, Control_c, 5, 11, 122
8, 41819, Control_c, 5, 11, 123
8, 41828, Control_c, 5, 11, 124
8, 41837, Control_c, 5, 11, 125
8, 41846, Control_c, 5, 11, 126
8, 41854, Note_on_c, 5, 66, 0
8, 41856, Control_c, 5, 11, 127
8, 41856, Note_on_c, 5, 59, 49
8, 41856, Note_on_c, 5, 65, 41
8, 41886, Note_on_c, 5, 59, 0
8, 41886, Note_on_c, 5, 65, 0
8, 41888, Note_on_c, 5, 62, 41
8, 41888, Note_on_c, 5, 67, 44
8, 41918, Note_on_c, 5, 62, 0
8, 41918, Note_on_c, 5, 67, 0
8, 41920, Note_on_c, 5, 59, 40
8, 41920, Note_on_c, 5, 65, 40
8, 41950, Note_on_c, 5, 59, 0
8, 41950, Note_on_c, 5, 65, 0
8, 41952, Note_on_c, 5, 62, 27
8, 41952, Note_on_c, 5, 55, 32
8, 41998, Note_on_c, 5, 62, 0
8, 41998, Note_on_c, 5, 55, 0
8, 42144, Note_on_c, 5, 59, 41
8, 42144, Note_on_c, 5, 65, 47
8, 42174, Note_on_c, 5, 59, 0
8, 42174, Note_on_c, 5, 65, 0
8, 42176, Note_on_c, 5, 62, 38
8, 42176, Note_on_c, 5, 67, 40
8, 42206, Note_on_c, 5, 62, 0
8, 42206, Note_on_c, 5, 67, 0
8, 42208, Note_on_c, 5, 65, 40
8, 42208, Note_on_c, 5, 59, 32
8, 42238, Note_on_c, 5, 65, 0
8, 42238, Note_on_c, 5, 59, 0
8, 42240, Note_on_c, 5, 55, 27
8, 42240, Note_on_c, 5, 62, 35
8, 42286, Note_on_c, 5, 55, 0
8, 42286, Note_on_c, 5, 62, 0
8, 43104, Note_on_c, 5, 71, 42
8, 43104, Note_on_c, 5, 71, 1
8, 43104, Note_on_c, 5, 59, 43
8, 43104, Note_on_c, 5, 59, 3
8, 43198, Note_on_c, 5, 71, 0
8, 43198, Note_on_c, 5, 71, 0
8, 43198, Note_on_c, 5, 59, 0
8, 43198, Note_on_c, 5, 59, 0
8, 43200, Note_on_c, 5, 59, 50
8, 43200, Note_on_c, 5, 59, 3
8, 43200, Note_on_c, 5, 71, 1
8, 43200, Note_on_c, 5, 71, 41
8, 43342, Note_on_c, 5, 59, 0
8, 43342, Note_on_c, 5, 59, 0
8, 43342, Note_on_c, 5, 71, 0
8, 43342, Note_on_c, 5, 71, 0
8, 43344, Note_on_c, 5, 61, 6
8, 43344, Note_on_c, 5, 73, 1
8, 43344, Note_on_c, 5, 61, 40
8, 43344, Note_on_c, 5, 73, 43
8, 43390, Note_on_c, 5, 61, 0
8, 43390, Note_on_c, 5, 73, 0
8, 43390, Note_on_c, 5, 61, 0
8, 43390, Note_on_c, 5, 73, 0
8, 43392, Note_on_c, 5, 59, 41
8, 43392, Note_on_c, 5, 71, 42
8, 43392, Note_on_c, 5, 71, 3
8, 43392, Note_on_c, 5, 59, 1
8, 43438, Note_on_c, 5, 59, 0
8, 43438, Note_on_c, 5, 71, 0
8, 43438, Note_on_c, 5, 71, 0
8, 43438, Note_on_c, 5, 59, 0
8, 43440, Note_on_c, 5, 68, 50
8, 43440, Note_on_c, 5, 56, 48
8, 43440, Note_on_c, 5, 56, 1
8, 43440, Note_on_c, 5, 68, 6
8, 43678, Note_on_c, 5, 68, 0
8, 43678, Note_on_c, 5, 56, 0
8, 43678, Note_on_c, 5, 56, 0
8, 43678, Note_on_c, 5, 68, 0
8, 43776, Note_on_c, 5, 59, 6
8, 43776, Note_on_c, 5, 71, 1
8, 43776, Note_on_c, 5, 59, 40
8, 43776, Note_on_c, 5, 71, 40
8, 43870, Note_on_c, 5, 59, 0
8, 43870, Note_on_c, 5, 71, 0
8, 43870, Note_on_c, 5, 59, 0
8, 43870, Note_on_c, 5, 71, 0
8, 43872, Note_on_c, 5, 61, 47
8, 43872, Note_on_c, 5, 73, 48
8, 43872, Note_on_c, 5, 73, 4
8, 43872, Note_on_c, 5, 61, 6
8, 43966, Note_on_c, 5, 61, 0
8, 43966, Note_on_c, 5, 73, 0
8, 43966, Note_on_c, 5, 73, 0
8, 43966, Note_on_c, 5, 61, 0
8, 43968, Note_on_c, 5, 71, 45
8, 43968, Note_on_c, 5, 59, 46
8, 43968, Note_on_c, 5, 59, 6
8, 43968, Note_on_c, 5, 71, 1
8, 44062, Note_on_c, 5, 71, 0
8, 44062, Note_on_c, 5, 59, 0
8, 44062, Note_on_c, 5, 59, 0
8, 44062, Note_on_c, 5, 71, 0
8, 44064, Note_on_c, 5, 56, 2
8, 44064, Note_on_c, 5, 68, 1
8, 44064, Note_on_c, 5, 68, 50
8, 44064, Note_on_c, 5, 56, 40
8, 44158, Note_on_c, 5, 56, 0
8, 44158, Note_on_c, 5, 68, 0
8, 44158, Note_on_c, 5, 68, 0
8, 44158, Note_on_c, 5, 56, 0
8, 44160, Note_on_c, 5, 67, 1
8, 44160, Note_on_c, 5, 55, 4
8, 44160, Note_on_c, 5, 55, 47
8, 44160, Note_on_c, 5, 67, 48
8, 44206, Note_on_c, 5, 67, 0
8, 44206, Note_on_c, 5, 55, 0
8, 44206, Note_on_c, 5, 55, 0
8, 44206, Note_on_c, 5, 67, 0
8, 44208, Note_on_c, 5, 56, 48
8, 44208, Note_on_c, 5, 68, 42
8, 44208, Note_on_c, 5, 68, 1
8, 44208, Note_on_c, 5, 56, 1
8, 44254, Note_on_c, 5, 56, 0
8, 44254, Note_on_c, 5, 68, 0
8, 44254, Note_on_c, 5, 68, 0
8, 44254, Note_on_c, 5, 56, 0
8, 44256, Note_on_c, 5, 65, 45
8, 44256, Note_on_c, 5, 53, 49
8, 44256, Note_on_c, 5, 53, 2
8, 44256, Note_on_c, 5, 65, 3
8, 44350, Note_on_c, 5, 65, 0
8, 44350, Note_on_c, 5, 53, 0
8, 44350, Note_on_c, 5, 53, 0
8, 44350, Note_on_c, 5, 65, 0
8, 44352, Note_on_c, 5, 56, 1
8, 44352, Note_on_c, 5, 68, 5
8, 44352, Note_on_c, 5, 56, 46
8, 44352, Note_on_c, 5, 68, 46
8, 44446, Note_on_c, 5, 56, 0
8, 44446, Note_on_c, 5, 68, 0
8, 44446, Note_on_c, 5, 56, 0
8, 44446, Note_on_c, 5, 68, 0
8, 44448, Note_on_c, 5, 58, 41
8, 44448, Note_on_c, 5, 70, 40
8, 44448, Note_on_c, 5, 70, 5
8, 44448, Note_on_c, 5, 58, 6
8, 44542, Note_on_c, 5, 58, 0
8, 44542, Note_on_c, 5, 70, 0
8, 44542, Note_on_c, 5, 70, 0
8, 44542, Note_on_c, 5, 58, 0
8, 44544, Note_on_c, 5, 68, 48
8, 44544, Note_on_c, 5, 56, 41
8, 44544, Note_on_c, 5, 56, 6
8, 44544, Note_on_c, 5, 68, 1
8, 44638, Note_on_c, 5, 68, 0
8, 44638, Note_on_c, 5, 56, 0
8, 44638, Note_on_c, 5, 56, 0
8, 44638, Note_on_c, 5, 68, 0
8, 44640, Note_on_c, 5, 53, 1
8, 44640, Note_on_c, 5, 65, 2
8, 44640, Note_on_c, 5, 53, 41
8, 44640, Note_on_c, 5, 65, 44
8, 44734, Note_on_c, 5, 53, 0
8, 44734, Note_on_c, 5, 65, 0
8, 44734, Note_on_c, 5, 53, 0
8, 44734, Note_on_c, 5, 65, 0
8, 44736, Note_on_c, 5, 55, 1
8, 44736, Control_c, 5, 11, 92
8, 44736, Note_on_c, 5, 55, 90
8, 44736, Note_on_c, 5, 67, 95
8, 44736, Note_on_c, 5, 67, 1
8, 44741, Control_c, 5, 11, 93
8, 44746, Control_c, 5, 11, 94
8, 44752, Control_c, 5, 11, 95
8, 44757, Control_c, 5, 11, 96
8, 44763, Control_c, 5, 11, 97
8, 44768, Control_c, 5, 11, 98
8, 44774, Control_c, 5, 11, 99
8, 44779, Control_c, 5, 11, 100
8, 44782, Note_on_c, 5, 55, 0
8, 44782, Note_on_c, 5, 55, 0
8, 44782, Note_on_c, 5, 67, 0
8, 44782, Note_on_c, 5, 67, 0
8, 44784, Note_on_c, 5, 56, 1
8, 44784, Note_on_c, 5, 68, 1
8, 44784, Note_on_c, 5, 68, 93
8, 44784, Note_on_c, 5, 56, 90
8, 44785, Control_c, 5, 11, 101
8, 44790, Control_c, 5, 11, 102
8, 44796, Control_c, 5, 11, 103
8, 44801, Control_c, 5, 11, 104
8, 44807, Control_c, 5, 11, 105
8, 44812, Control_c, 5, 11, 106
8, 44818, Control_c, 5, 11, 107
8, 44823, Control_c, 5, 11, 108
8, 44829, Control_c, 5, 11, 109
8, 44834, Control_c, 5, 11, 110
8, 44840, Control_c, 5, 11, 111
8, 44845, Control_c, 5, 11, 112
8, 44851, Control_c, 5, 11, 113
8, 44856, Control_c, 5, 11, 114
8, 44862, Control_c, 5, 11, 115
8, 44867, Control_c, 5, 11, 116
8, 44873, Control_c, 5, 11, 117
8, 44878, Control_c, 5, 11, 118
8, 44884, Control_c, 5, 11, 119
8, 44889, Control_c, 5, 11, 120
8, 44895, Control_c, 5, 11, 121
8, 44900, Control_c, 5, 11, 122
8, 44906, Control_c, 5, 11, 123
8, 44911, Control_c, 5, 11, 124
8, 44917, Control_c, 5, 11, 125
8, 44922, Control_c, 5, 11, 126
8, 44928, Control_c, 5, 11, 127
8, 44992, Note_on_c, 5, 56, 0
8, 44992, Note_on_c, 5, 68, 0
8, 44992, Note_on_c, 5, 68, 0
8, 44992, Note_on_c, 5, 56, 0
8, 45024, Note_on_c, 5, 65, 4
8, 45024, Note_on_c, 5, 53, 97
8, 45024, Note_on_c, 5, 53, 2
8, 45024, Control_c, 5, 11, 127
8, 45024, Note_on_c, 5, 65, 90
8, 45028, Control_c, 5, 11, 126
8, 45033, Control_c, 5, 11, 125
8, 45037, Control_c, 5, 11, 124
8, 45042, Control_c, 5, 11, 123
8, 45046, Control_c, 5, 11, 122
8, 45051, Control_c, 5, 11, 121
8, 45056, Control_c, 5, 11, 120
8, 45060, Control_c, 5, 11, 119
8, 45065, Control_c, 5, 11, 118
8, 45069, Control_c, 5, 11, 117
8, 45074, Control_c, 5, 11, 116
8, 45078, Control_c, 5, 11, 115
8, 45083, Control_c, 5, 11, 114
8, 45088, Control_c, 5, 11, 113
8, 45092, Control_c, 5, 11, 112
8, 45097, Control_c, 5, 11, 111
8, 45101, Control_c, 5, 11, 110
8, 45106, Control_c, 5, 11, 109
8, 45110, Control_c, 5, 11, 108
8, 45115, Control_c, 5, 11, 107
8, 45120, Control_c, 5, 11, 106
8, 45124, Control_c, 5, 11, 105
8, 45129, Control_c, 5, 11, 104
8, 45133, Control_c, 5, 11, 103
8, 45138, Control_c, 5, 11, 102
8, 45142, Control_c, 5, 11, 101
8, 45147, Control_c, 5, 11, 100
8, 45152, Control_c, 5, 11, 99
8, 45156, Control_c, 5, 11, 98
8, 45161, Control_c, 5, 11, 97
8, 45165, Control_c, 5, 11, 96
8, 45170, Control_c, 5, 11, 95
8, 45174, Control_c, 5, 11, 94
8, 45179, Control_c, 5, 11, 93
8, 45184, Note_on_c, 5, 65, 0
8, 45184, Note_on_c, 5, 53, 0
8, 45184, Note_on_c, 5, 53, 0
8, 45184, Note_on_c, 5, 65, 0
8, 45184, Control_c, 5, 11, 92
8, 45188, Control_c, 5, 11, 91
8, 45193, Control_c, 5, 11, 90
8, 45197, Control_c, 5, 11, 89
8, 45202, Control_c, 5, 11, 88
8, 45206, Control_c, 5, 11, 87
8, 45211, Control_c, 5, 11, 86
8, 45216, Control_c, 5, 11, 85
8, 45216, Note_on_c, 5, 51, 90
8, 45216, Note_on_c, 5, 51, 1
8, 45216, Note_on_c, 5, 63, 6
8, 45216, Note_on_c, 5, 63, 90
8, 45220, Control_c, 5, 11, 84
8, 45225, Control_c, 5, 11, 83
8, 45229, Control_c, 5, 11, 82
8, 45234, Control_c, 5, 11, 81
8, 45238, Control_c, 5, 11, 80
8, 45243, Control_c, 5, 11, 79
8, 45248, Control_c, 5, 11, 78
8, 45252, Control_c, 5, 11, 77
8, 45257, Control_c, 5, 11, 76
8, 45261, Control_c, 5, 11, 75
8, 45266, Control_c, 5, 11, 74
8, 45270, Control_c, 5, 11, 73
8, 45275, Control_c, 5, 11, 72
8, 45280, Control_c, 5, 11, 71
8, 45284, Control_c, 5, 11, 70
8, 45289, Control_c, 5, 11, 69
8, 45293, Control_c, 5, 11, 68
8, 45298, Control_c, 5, 11, 67
8, 45302, Control_c, 5, 11, 66
8, 45307, Control_c, 5, 11, 65
8, 45312, Control_c, 5, 11, 64
8, 45358, Note_on_c, 5, 51, 0
8, 45358, Note_on_c, 5, 51, 0
8, 45358, Note_on_c, 5, 63, 0
8, 45358, Note_on_c, 5, 63, 0
8, 45360, Note_on_c, 5, 49, 1
8, 45360, Note_on_c, 5, 61, 3
8, 45360, Note_on_c, 5, 49, 95
8, 45360, Note_on_c, 5, 61, 97
8, 45694, Note_on_c, 5, 49, 0
8, 45694, Note_on_c, 5, 61, 0
8, 45694, Note_on_c, 5, 49, 0
8, 45694, Note_on_c, 5, 61, 0
8, 45696, Note_on_c, 5, 46, 97
8, 45696, Note_on_c, 5, 46, 1
8, 45696, Note_on_c, 5, 58, 3
8, 45696, Note_on_c, 5, 58, 89
8, 45790, Note_on_c, 5, 46, 0
8, 45790, Note_on_c, 5, 46, 0
8, 45790, Note_on_c, 5, 58, 0
8, 45790, Note_on_c, 5, 58, 0
8, 45792, Note_on_c, 5, 49, 4
8, 45792, Note_on_c, 5, 49, 91
8, 45792, Note_on_c, 5, 61, 93
8, 45792, Note_on_c, 5, 61, 1
8, 45886, Note_on_c, 5, 49, 0
8, 45886, Note_on_c, 5, 49, 0
8, 45886, Note_on_c, 5, 61, 0
8, 45886, Note_on_c, 5, 61, 0
8, 45888, Note_on_c, 5, 51, 1
8, 45888, Note_on_c, 5, 63, 1
8, 45888, Control_c, 5, 11, 50
8, 45888, Note_on_c, 5, 51, 91
8, 45888, Note_on_c, 5, 63, 93
8, 45984, Note_on_c, 5, 51, 0
8, 45984, Note_on_c, 5, 63, 0
8, 45984, Note_on_c, 5, 51, 0
8, 45984, Note_on_c, 5, 63, 0
8, 45984, Note_on_c, 5, 49, 92
8, 45984, Note_on_c, 5, 61, 87
8, 45984, Note_on_c, 5, 49, 1
8, 45984, Note_on_c, 5, 61, 3
8, 46144, Note_on_c, 5, 49, 0
8, 46144, Note_on_c, 5, 61, 0
8, 46144, Note_on_c, 5, 49, 0
8, 46144, Note_on_c, 5, 61, 0
8, 46176, Control_c, 5, 11, 50
8, 46176, Note_on_c, 5, 51, 92
8, 46176, Note_on_c, 5, 63, 88
8, 46195, Control_c, 5, 11, 49
8, 46214, Control_c, 5, 11, 48
8, 46233, Control_c, 5, 11, 47
8, 46252, Control_c, 5, 11, 46
8, 46272, Control_c, 5, 11, 45
8, 46291, Control_c, 5, 11, 44
8, 46310, Control_c, 5, 11, 43
8, 46329, Control_c, 5, 11, 42
8, 46348, Control_c, 5, 11, 41
8, 46368, Note_on_c, 5, 51, 0
8, 46368, Note_on_c, 5, 63, 0
8, 46368, Note_on_c, 5, 49, 96
8, 46368, Control_c, 5, 11, 40
8, 46368, Note_on_c, 5, 61, 94
8, 46462, Note_on_c, 5, 49, 0
8, 46462, Note_on_c, 5, 61, 0
8, 48768, Note_on_c, 5, 53, 59
8, 48768, Control_c, 5, 11, 92
8, 48773, Control_c, 5, 11, 93
8, 48778, Control_c, 5, 11, 94
8, 48784, Control_c, 5, 11, 95
8, 48789, Control_c, 5, 11, 96
8, 48795, Control_c, 5, 11, 97
8, 48800, Control_c, 5, 11, 98
8, 48806, Control_c, 5, 11, 99
8, 48811, Control_c, 5, 11, 100
8, 48817, Control_c, 5, 11, 101
8, 48822, Control_c, 5, 11, 102
8, 48828, Control_c, 5, 11, 103
8, 48833, Control_c, 5, 11, 104
8, 48839, Control_c, 5, 11, 105
8, 48844, Control_c, 5, 11, 106
8, 48850, Control_c, 5, 11, 107
8, 48855, Control_c, 5, 11, 108
8, 48861, Control_c, 5, 11, 109
8, 48866, Control_c, 5, 11, 110
8, 48872, Control_c, 5, 11, 111
8, 48877, Control_c, 5, 11, 112
8, 48883, Control_c, 5, 11, 113
8, 48888, Control_c, 5, 11, 114
8, 48894, Control_c, 5, 11, 115
8, 48899, Control_c, 5, 11, 116
8, 48905, Control_c, 5, 11, 117
8, 48910, Control_c, 5, 11, 118
8, 48912, Note_on_c, 5, 53, 0
8, 48912, Note_on_c, 5, 54, 62
8, 48916, Control_c, 5, 11, 119
8, 48921, Control_c, 5, 11, 120
8, 48927, Control_c, 5, 11, 121
8, 48932, Control_c, 5, 11, 122
8, 48938, Control_c, 5, 11, 123
8, 48943, Control_c, 5, 11, 124
8, 48949, Control_c, 5, 11, 125
8, 48954, Control_c, 5, 11, 126
8, 48960, Note_on_c, 5, 54, 0
8, 48960, Control_c, 5, 11, 127
8, 48960, Note_on_c, 5, 55, 61
8, 48962, Control_c, 5, 11, 126
8, 48965, Control_c, 5, 11, 125
8, 48968, Control_c, 5, 11, 124
8, 48970, Control_c, 5, 11, 123
8, 48973, Control_c, 5, 11, 122
8, 48976, Control_c, 5, 11, 121
8, 48979, Control_c, 5, 11, 120
8, 48981, Control_c, 5, 11, 119
8, 48984, Control_c, 5, 11, 118
8, 48987, Control_c, 5, 11, 117
8, 48990, Control_c, 5, 11, 116
8, 48992, Control_c, 5, 11, 115
8, 48995, Control_c, 5, 11, 114
8, 48998, Control_c, 5, 11, 113
8, 49001, Control_c, 5, 11, 112
8, 49003, Control_c, 5, 11, 111
8, 49006, Control_c, 5, 11, 110
8, 49008, Note_on_c, 5, 55, 0
8, 49008, Note_on_c, 5, 54, 55
8, 49009, Control_c, 5, 11, 109
8, 49012, Control_c, 5, 11, 108
8, 49014, Control_c, 5, 11, 107
8, 49017, Control_c, 5, 11, 106
8, 49020, Control_c, 5, 11, 105
8, 49023, Control_c, 5, 11, 104
8, 49025, Control_c, 5, 11, 103
8, 49028, Control_c, 5, 11, 102
8, 49031, Control_c, 5, 11, 101
8, 49034, Control_c, 5, 11, 100
8, 49036, Control_c, 5, 11, 99
8, 49039, Control_c, 5, 11, 98
8, 49042, Control_c, 5, 11, 97
8, 49045, Control_c, 5, 11, 96
8, 49047, Control_c, 5, 11, 95
8, 49050, Control_c, 5, 11, 94
8, 49053, Control_c, 5, 11, 93
8, 49056, Note_on_c, 5, 54, 0
8, 49056, Note_on_c, 5, 53, 65
8, 49056, Control_c, 5, 11, 92
8, 49064, Control_c, 5, 11, 93
8, 49072, Control_c, 5, 11, 94
8, 49080, Control_c, 5, 11, 95
8, 49088, Control_c, 5, 11, 96
8, 49097, Control_c, 5, 11, 97
8, 49105, Control_c, 5, 11, 98
8, 49113, Control_c, 5, 11, 99
8, 49121, Control_c, 5, 11, 100
8, 49130, Control_c, 5, 11, 101
8, 49138, Control_c, 5, 11, 102
8, 49146, Control_c, 5, 11, 103
8, 49154, Control_c, 5, 11, 104
8, 49162, Control_c, 5, 11, 105
8, 49171, Control_c, 5, 11, 106
8, 49179, Control_c, 5, 11, 107
8, 49187, Control_c, 5, 11, 108
8, 49195, Control_c, 5, 11, 109
8, 49204, Control_c, 5, 11, 110
8, 49212, Control_c, 5, 11, 111
8, 49220, Control_c, 5, 11, 112
8, 49228, Control_c, 5, 11, 113
8, 49237, Control_c, 5, 11, 114
8, 49245, Control_c, 5, 11, 115
8, 49248, Note_on_c, 5, 53, 0
8, 49248, Note_on_c, 5, 56, 58
8, 49253, Control_c, 5, 11, 116
8, 49261, Control_c, 5, 11, 117
8, 49269, Control_c, 5, 11, 118
8, 49278, Control_c, 5, 11, 119
8, 49286, Control_c, 5, 11, 120
8, 49294, Control_c, 5, 11, 121
8, 49302, Control_c, 5, 11, 122
8, 49311, Control_c, 5, 11, 123
8, 49319, Control_c, 5, 11, 124
8, 49327, Control_c, 5, 11, 125
8, 49335, Control_c, 5, 11, 126
8, 49342, Note_on_c, 5, 56, 0
8, 49344, Control_c, 5, 11, 127
8, 49344, Note_on_c, 5, 59, 56
8, 49632, Note_on_c, 5, 59, 0
8, 49632, Note_on_c, 5, 59, 60
8, 49920, Note_on_c, 5, 59, 0
8, 49920, Note_on_c, 5, 59, 58
8, 50208, Note_on_c, 5, 59, 0
8, 50208, Note_on_c, 5, 59, 60
8, 50464, Note_on_c, 5, 59, 0
8, 50496, Note_on_c, 5, 59, 55
8, 50496, Control_c, 5, 11, 75
8, 50507, Control_c, 5, 11, 76
8, 50518, Control_c, 5, 11, 77
8, 50529, Control_c, 5, 11, 78
8, 50540, Control_c, 5, 11, 79
8, 50551, Control_c, 5, 11, 80
8, 50562, Control_c, 5, 11, 81
8, 50573, Control_c, 5, 11, 82
8, 50584, Control_c, 5, 11, 83
8, 50595, Control_c, 5, 11, 84
8, 50606, Control_c, 5, 11, 85
8, 50617, Control_c, 5, 11, 86
8, 50628, Control_c, 5, 11, 87
8, 50640, Control_c, 5, 11, 88
8, 50651, Control_c, 5, 11, 89
8, 50662, Control_c, 5, 11, 90
8, 50673, Control_c, 5, 11, 91
8, 50684, Control_c, 5, 11, 92
8, 50695, Control_c, 5, 11, 93
8, 50706, Control_c, 5, 11, 94
8, 50717, Control_c, 5, 11, 95
8, 50728, Control_c, 5, 11, 96
8, 50739, Control_c, 5, 11, 97
8, 50750, Control_c, 5, 11, 98
8, 50761, Control_c, 5, 11, 99
8, 50772, Control_c, 5, 11, 100
8, 50784, Note_on_c, 5, 59, 0
8, 50784, Note_on_c, 5, 59, 57
8, 50784, Control_c, 5, 11, 101
8, 50784, Note_on_c, 5, 59, 55
8, 50784, Note_on_c, 5, 66, 62
8, 50795, Control_c, 5, 11, 102
8, 50806, Control_c, 5, 11, 103
8, 50817, Control_c, 5, 11, 104
8, 50828, Control_c, 5, 11, 105
8, 50839, Control_c, 5, 11, 106
8, 50850, Control_c, 5, 11, 107
8, 50861, Control_c, 5, 11, 108
8, 50872, Control_c, 5, 11, 109
8, 50878, Note_on_c, 5, 59, 0
8, 50878, Note_on_c, 5, 66, 0
8, 50880, Note_on_c, 5, 65, 64
8, 50880, Note_on_c, 5, 61, 59
8, 50883, Control_c, 5, 11, 110
8, 50894, Control_c, 5, 11, 111
8, 50905, Control_c, 5, 11, 112
8, 50916, Control_c, 5, 11, 113
8, 50928, Control_c, 5, 11, 114
8, 50939, Control_c, 5, 11, 115
8, 50950, Control_c, 5, 11, 116
8, 50961, Control_c, 5, 11, 117
8, 50972, Control_c, 5, 11, 118
8, 50974, Note_on_c, 5, 65, 0
8, 50974, Note_on_c, 5, 61, 0
8, 50976, Note_on_c, 5, 63, 60
8, 50976, Note_on_c, 5, 56, 57
8, 50983, Control_c, 5, 11, 119
8, 50994, Control_c, 5, 11, 120
8, 51005, Control_c, 5, 11, 121
8, 51016, Control_c, 5, 11, 122
8, 51027, Control_c, 5, 11, 123
8, 51038, Control_c, 5, 11, 124
8, 51040, Note_on_c, 5, 59, 0
8, 51049, Control_c, 5, 11, 125
8, 51060, Control_c, 5, 11, 126
8, 51070, Note_on_c, 5, 63, 0
8, 51070, Note_on_c, 5, 56, 0
8, 51072, Control_c, 5, 11, 127
8, 51072, Control_c, 5, 11, 75
8, 51072, Note_on_c, 5, 62, 87
8, 51072, Note_on_c, 5, 70, 90
8, 51072, Note_on_c, 5, 56, 97
8, 51083, Control_c, 5, 11, 76
8, 51094, Control_c, 5, 11, 77
8, 51105, Control_c, 5, 11, 78
8, 51116, Control_c, 5, 11, 79
8, 51127, Control_c, 5, 11, 80
8, 51138, Control_c, 5, 11, 81
8, 51149, Control_c, 5, 11, 82
8, 51160, Control_c, 5, 11, 83
8, 51171, Control_c, 5, 11, 84
8, 51182, Control_c, 5, 11, 85
8, 51193, Control_c, 5, 11, 86
8, 51204, Control_c, 5, 11, 87
8, 51216, Control_c, 5, 11, 88
8, 51227, Control_c, 5, 11, 89
8, 51238, Control_c, 5, 11, 90
8, 51249, Control_c, 5, 11, 91
8, 51260, Control_c, 5, 11, 92
8, 51271, Control_c, 5, 11, 93
8, 51282, Control_c, 5, 11, 94
8, 51293, Control_c, 5, 11, 95
8, 51304, Control_c, 5, 11, 96
8, 51315, Control_c, 5, 11, 97
8, 51326, Control_c, 5, 11, 98
8, 51328, Note_on_c, 5, 56, 0
8, 51337, Control_c, 5, 11, 99
8, 51348, Control_c, 5, 11, 100
8, 51360, Note_on_c, 5, 62, 0
8, 51360, Note_on_c, 5, 61, 92
8, 51360, Control_c, 5, 11, 101
8, 51360, Note_on_c, 5, 54, 88
8, 51371, Control_c, 5, 11, 102
8, 51382, Control_c, 5, 11, 103
8, 51393, Control_c, 5, 11, 104
8, 51404, Control_c, 5, 11, 105
8, 51415, Control_c, 5, 11, 106
8, 51426, Control_c, 5, 11, 107
8, 51437, Control_c, 5, 11, 108
8, 51448, Control_c, 5, 11, 109
8, 51454, Note_on_c, 5, 70, 0
8, 51459, Control_c, 5, 11, 110
8, 51470, Control_c, 5, 11, 111
8, 51481, Control_c, 5, 11, 112
8, 51492, Control_c, 5, 11, 113
8, 51504, Control_c, 5, 11, 114
8, 51515, Control_c, 5, 11, 115
8, 51526, Control_c, 5, 11, 116
8, 51537, Control_c, 5, 11, 117
8, 51548, Control_c, 5, 11, 118
8, 51559, Control_c, 5, 11, 119
8, 51570, Control_c, 5, 11, 120
8, 51581, Control_c, 5, 11, 121
8, 51592, Control_c, 5, 11, 122
8, 51600, Note_on_c, 5, 61, 0
8, 51600, Note_on_c, 5, 59, 96
8, 51603, Control_c, 5, 11, 123
8, 51614, Control_c, 5, 11, 124
8, 51616, Note_on_c, 5, 54, 0
8, 51625, Control_c, 5, 11, 125
8, 51636, Control_c, 5, 11, 126
8, 51648, Note_on_c, 5, 59, 0
8, 51648, Note_on_c, 5, 59, 91
8, 51648, Note_on_c, 5, 53, 92
8, 51648, Note_on_c, 5, 63, 90
8, 51648, Control_c, 5, 11, 127
8, 51653, Control_c, 5, 11, 126
8, 51659, Control_c, 5, 11, 125
8, 51664, Control_c, 5, 11, 124
8, 51670, Control_c, 5, 11, 123
8, 51675, Control_c, 5, 11, 122
8, 51681, Control_c, 5, 11, 121
8, 51686, Control_c, 5, 11, 120
8, 51692, Control_c, 5, 11, 119
8, 51697, Control_c, 5, 11, 118
8, 51703, Control_c, 5, 11, 117
8, 51708, Control_c, 5, 11, 116
8, 51714, Control_c, 5, 11, 115
8, 51720, Control_c, 5, 11, 114
8, 51725, Control_c, 5, 11, 113
8, 51731, Control_c, 5, 11, 112
8, 51736, Control_c, 5, 11, 111
8, 51742, Note_on_c, 5, 63, 0
8, 51742, Control_c, 5, 11, 110
8, 51744, Note_on_c, 5, 62, 88
8, 51747, Control_c, 5, 11, 109
8, 51753, Control_c, 5, 11, 108
8, 51758, Control_c, 5, 11, 107
8, 51764, Control_c, 5, 11, 106
8, 51769, Control_c, 5, 11, 105
8, 51775, Control_c, 5, 11, 104
8, 51780, Control_c, 5, 11, 103
8, 51786, Control_c, 5, 11, 102
8, 51792, Control_c, 5, 11, 101
8, 51797, Control_c, 5, 11, 100
8, 51803, Control_c, 5, 11, 99
8, 51808, Control_c, 5, 11, 98
8, 51814, Control_c, 5, 11, 97
8, 51819, Control_c, 5, 11, 96
8, 51825, Control_c, 5, 11, 95
8, 51830, Control_c, 5, 11, 94
8, 51836, Control_c, 5, 11, 93
8, 51838, Note_on_c, 5, 62, 0
8, 51840, Note_on_c, 5, 61, 90
8, 51841, Control_c, 5, 11, 92
8, 51847, Control_c, 5, 11, 91
8, 51852, Control_c, 5, 11, 90
8, 51858, Control_c, 5, 11, 89
8, 51864, Control_c, 5, 11, 88
8, 51869, Control_c, 5, 11, 87
8, 51875, Control_c, 5, 11, 86
8, 51880, Control_c, 5, 11, 85
8, 51886, Control_c, 5, 11, 84
8, 51891, Control_c, 5, 11, 83
8, 51897, Control_c, 5, 11, 82
8, 51902, Control_c, 5, 11, 81
8, 51904, Note_on_c, 5, 59, 0
8, 51904, Note_on_c, 5, 53, 0
8, 51908, Control_c, 5, 11, 80
8, 51913, Control_c, 5, 11, 79
8, 51919, Control_c, 5, 11, 78
8, 51924, Control_c, 5, 11, 77
8, 51930, Control_c, 5, 11, 76
8, 51934, Note_on_c, 5, 61, 0
8, 51936, Control_c, 5, 11, 75
8, 52512, Control_c, 5, 11, 127
8, 52608, Note_on_c, 5, 59, 2
8, 52608, Note_on_c, 5, 59, 72
8, 52608, Note_on_c, 5, 71, 78
8, 52608, Note_on_c, 5, 71, 4
8, 52702, Note_on_c, 5, 59, 0
8, 52702, Note_on_c, 5, 59, 0
8, 52702, Note_on_c, 5, 71, 0
8, 52702, Note_on_c, 5, 71, 0
8, 52704, Note_on_c, 5, 59, 75
8, 52704, Note_on_c, 5, 59, 2
8, 52704, Note_on_c, 5, 71, 4
8, 52704, Note_on_c, 5, 71, 77
8, 52846, Note_on_c, 5, 59, 0
8, 52846, Note_on_c, 5, 59, 0
8, 52846, Note_on_c, 5, 71, 0
8, 52846, Note_on_c, 5, 71, 0
8, 52848, Note_on_c, 5, 61, 70
8, 52848, Note_on_c, 5, 73, 73
8, 52848, Note_on_c, 5, 61, 6
8, 52848, Note_on_c, 5, 73, 1
8, 52894, Note_on_c, 5, 61, 0
8, 52894, Note_on_c, 5, 73, 0
8, 52894, Note_on_c, 5, 61, 0
8, 52894, Note_on_c, 5, 73, 0
8, 52896, Note_on_c, 5, 59, 1
8, 52896, Note_on_c, 5, 71, 3
8, 52896, Note_on_c, 5, 59, 80
8, 52896, Note_on_c, 5, 71, 75
8, 52942, Note_on_c, 5, 59, 0
8, 52942, Note_on_c, 5, 71, 0
8, 52942, Note_on_c, 5, 59, 0
8, 52942, Note_on_c, 5, 71, 0
8, 52944, Note_on_c, 5, 56, 71
8, 52944, Note_on_c, 5, 68, 75
8, 52944, Note_on_c, 5, 68, 3
8, 52944, Note_on_c, 5, 56, 6
8, 53182, Note_on_c, 5, 56, 0
8, 53182, Note_on_c, 5, 68, 0
8, 53182, Note_on_c, 5, 68, 0
8, 53182, Note_on_c, 5, 56, 0
8, 53280, Note_on_c, 5, 59, 93
8, 53280, Control_c, 5, 11, 92
8, 53280, Note_on_c, 5, 59, 1
8, 53280, Note_on_c, 5, 71, 1
8, 53280, Note_on_c, 5, 71, 91
8, 53290, Control_c, 5, 11, 93
8, 53301, Control_c, 5, 11, 94
8, 53312, Control_c, 5, 11, 95
8, 53323, Control_c, 5, 11, 96
8, 53334, Control_c, 5, 11, 97
8, 53345, Control_c, 5, 11, 98
8, 53356, Control_c, 5, 11, 99
8, 53367, Control_c, 5, 11, 100
8, 53374, Note_on_c, 5, 59, 0
8, 53374, Note_on_c, 5, 59, 0
8, 53374, Note_on_c, 5, 71, 0
8, 53374, Note_on_c, 5, 71, 0
8, 53376, Note_on_c, 5, 61, 94
8, 53376, Note_on_c, 5, 61, 2
8, 53376, Note_on_c, 5, 73, 4
8, 53376, Note_on_c, 5, 73, 93
8, 53378, Control_c, 5, 11, 101
8, 53389, Control_c, 5, 11, 102
8, 53400, Control_c, 5, 11, 103
8, 53411, Control_c, 5, 11, 104
8, 53422, Control_c, 5, 11, 105
8, 53433, Control_c, 5, 11, 106
8, 53444, Control_c, 5, 11, 107
8, 53455, Control_c, 5, 11, 108
8, 53466, Control_c, 5, 11, 109
8, 53470, Note_on_c, 5, 61, 0
8, 53470, Note_on_c, 5, 61, 0
8, 53470, Note_on_c, 5, 73, 0
8, 53470, Note_on_c, 5, 73, 0
8, 53472, Note_on_c, 5, 59, 4
8, 53472, Note_on_c, 5, 71, 6
8, 53472, Note_on_c, 5, 71, 89
8, 53472, Note_on_c, 5, 59, 92
8, 53477, Control_c, 5, 11, 110
8, 53488, Control_c, 5, 11, 111
8, 53499, Control_c, 5, 11, 112
8, 53510, Control_c, 5, 11, 113
8, 53521, Control_c, 5, 11, 114
8, 53532, Control_c, 5, 11, 115
8, 53543, Control_c, 5, 11, 116
8, 53554, Control_c, 5, 11, 117
8, 53565, Control_c, 5, 11, 118
8, 53566, Note_on_c, 5, 59, 0
8, 53566, Note_on_c, 5, 71, 0
8, 53566, Note_on_c, 5, 71, 0
8, 53566, Note_on_c, 5, 59, 0
8, 53568, Note_on_c, 5, 56, 1
8, 53568, Note_on_c, 5, 56, 93
8, 53568, Note_on_c, 5, 68, 89
8, 53568, Note_on_c, 5, 68, 3
8, 53576, Control_c, 5, 11, 119
8, 53587, Control_c, 5, 11, 120
8, 53598, Control_c, 5, 11, 121
8, 53609, Control_c, 5, 11, 122
8, 53620, Control_c, 5, 11, 123
8, 53631, Control_c, 5, 11, 124
8, 53642, Control_c, 5, 11, 125
8, 53653, Control_c, 5, 11, 126
8, 53662, Note_on_c, 5, 56, 0
8, 53662, Note_on_c, 5, 56, 0
8, 53662, Note_on_c, 5, 68, 0
8, 53662, Note_on_c, 5, 68, 0
8, 53664, Note_on_c, 5, 55, 1
8, 53664, Note_on_c, 5, 67, 1
8, 53664, Note_on_c, 5, 67, 48
8, 53664, Control_c, 5, 11, 127
8, 53664, Note_on_c, 5, 55, 49
8, 53710, Note_on_c, 5, 55, 0
8, 53710, Note_on_c, 5, 67, 0
8, 53710, Note_on_c, 5, 67, 0
8, 53710, Note_on_c, 5, 55, 0
8, 53712, Note_on_c, 5, 56, 1
8, 53712, Note_on_c, 5, 56, 49
8, 53712, Note_on_c, 5, 68, 48
8, 53712, Note_on_c, 5, 68, 4
8, 53758, Note_on_c, 5, 56, 0
8, 53758, Note_on_c, 5, 56, 0
8, 53758, Note_on_c, 5, 68, 0
8, 53758, Note_on_c, 5, 68, 0
8, 53760, Note_on_c, 5, 53, 49
8, 53760, Note_on_c, 5, 53, 1
8, 53760, Note_on_c, 5, 65, 6
8, 53760, Note_on_c, 5, 65, 52
8, 53854, Note_on_c, 5, 53, 0
8, 53854, Note_on_c, 5, 53, 0
8, 53854, Note_on_c, 5, 65, 0
8, 53854, Note_on_c, 5, 65, 0
8, 53856, Note_on_c, 5, 56, 1
8, 53856, Note_on_c, 5, 56, 53
8, 53856, Note_on_c, 5, 68, 56
8, 53856, Note_on_c, 5, 68, 2
8, 53950, Note_on_c, 5, 56, 0
8, 53950, Note_on_c, 5, 56, 0
8, 53950, Note_on_c, 5, 68, 0
8, 53950, Note_on_c, 5, 68, 0
8, 53952, Note_on_c, 5, 58, 1
8, 53952, Note_on_c, 5, 70, 2
8, 53952, Note_on_c, 5, 58, 63
8, 53952, Note_on_c, 5, 70, 69
8, 54046, Note_on_c, 5, 58, 0
8, 54046, Note_on_c, 5, 70, 0
8, 54046, Note_on_c, 5, 58, 0
8, 54046, Note_on_c, 5, 70, 0
8, 54048, Note_on_c, 5, 56, 71
8, 54048, Note_on_c, 5, 68, 76
8, 54048, Note_on_c, 5, 68, 1
8, 54048, Note_on_c, 5, 56, 5
8, 54142, Note_on_c, 5, 56, 0
8, 54142, Note_on_c, 5, 68, 0
8, 54142, Note_on_c, 5, 68, 0
8, 54142, Note_on_c, 5, 56, 0
8, 54144, Note_on_c, 5, 65, 83
8, 54144, Note_on_c, 5, 53, 84
8, 54144, Note_on_c, 5, 53, 1
8, 54144, Note_on_c, 5, 65, 6
8, 54238, Note_on_c, 5, 65, 0
8, 54238, Note_on_c, 5, 53, 0
8, 54238, Note_on_c, 5, 53, 0
8, 54238, Note_on_c, 5, 65, 0
8, 54240, Note_on_c, 5, 55, 1
8, 54240, Note_on_c, 5, 67, 4
8, 54240, Control_c, 5, 11, 92
8, 54240, Note_on_c, 5, 55, 87
8, 54240, Note_on_c, 5, 67, 96
8, 54250, Control_c, 5, 11, 93
8, 54261, Control_c, 5, 11, 94
8, 54272, Control_c, 5, 11, 95
8, 54283, Control_c, 5, 11, 96
8, 54286, Note_on_c, 5, 55, 0
8, 54286, Note_on_c, 5, 67, 0
8, 54286, Note_on_c, 5, 55, 0
8, 54286, Note_on_c, 5, 67, 0
8, 54288, Note_on_c, 5, 56, 5
8, 54288, Note_on_c, 5, 68, 3
8, 54288, Note_on_c, 5, 56, 88
8, 54288, Note_on_c, 5, 68, 91
8, 54294, Control_c, 5, 11, 97
8, 54305, Control_c, 5, 11, 98
8, 54316, Control_c, 5, 11, 99
8, 54327, Control_c, 5, 11, 100
8, 54334, Note_on_c, 5, 56, 0
8, 54334, Note_on_c, 5, 68, 0
8, 54334, Note_on_c, 5, 56, 0
8, 54334, Note_on_c, 5, 68, 0
8, 54336, Note_on_c, 5, 68, 6
8, 54336, Note_on_c, 5, 56, 3
8, 54336, Note_on_c, 5, 68, 97
8, 54336, Note_on_c, 5, 56, 93
8, 54338, Control_c, 5, 11, 101
8, 54349, Control_c, 5, 11, 102
8, 54360, Control_c, 5, 11, 103
8, 54371, Control_c, 5, 11, 104
8, 54382, Control_c, 5, 11, 105
8, 54393, Control_c, 5, 11, 106
8, 54404, Control_c, 5, 11, 107
8, 54415, Control_c, 5, 11, 108
8, 54426, Control_c, 5, 11, 109
8, 54437, Control_c, 5, 11, 110
8, 54448, Control_c, 5, 11, 111
8, 54459, Control_c, 5, 11, 112
8, 54470, Control_c, 5, 11, 113
8, 54481, Control_c, 5, 11, 114
8, 54492, Control_c, 5, 11, 115
8, 54503, Control_c, 5, 11, 116
8, 54514, Control_c, 5, 11, 117
8, 54525, Control_c, 5, 11, 118
8, 54536, Control_c, 5, 11, 119
8, 54547, Control_c, 5, 11, 120
8, 54558, Control_c, 5, 11, 121
8, 54569, Control_c, 5, 11, 122
8, 54580, Control_c, 5, 11, 123
8, 54591, Control_c, 5, 11, 124
8, 54602, Control_c, 5, 11, 125
8, 54613, Control_c, 5, 11, 126
8, 54622, Note_on_c, 5, 68, 0
8, 54622, Note_on_c, 5, 56, 0
8, 54622, Note_on_c, 5, 68, 0
8, 54622, Note_on_c, 5, 56, 0
8, 54624, Control_c, 5, 11, 127
8, 54816, Note_on_c, 5, 62, 40
8, 54816, Note_on_c, 5, 64, 43
8, 54862, Note_on_c, 5, 62, 0
8, 54862, Note_on_c, 5, 64, 0
8, 54864, Note_on_c, 5, 64, 40
8, 54864, Note_on_c, 5, 62, 47
8, 54958, Note_on_c, 5, 64, 0
8, 54958, Note_on_c, 5, 62, 0
8, 54960, Note_on_c, 5, 62, 47
8, 54960, Note_on_c, 5, 64, 48
8, 55054, Note_on_c, 5, 62, 0
8, 55054, Note_on_c, 5, 64, 0
8, 55056, Note_on_c, 5, 62, 47
8, 55056, Note_on_c, 5, 64, 45
8, 55360, Note_on_c, 5, 62, 0
8, 55360, Note_on_c, 5, 64, 0
8, 55392, Note_on_c, 5, 64, 50
8, 55392, Note_on_c, 5, 62, 43
8, 55438, Note_on_c, 5, 64, 0
8, 55438, Note_on_c, 5, 62, 0
8, 55440, Note_on_c, 5, 64, 48
8, 55440, Note_on_c, 5, 62, 49
8, 55534, Note_on_c, 5, 64, 0
8, 55534, Note_on_c, 5, 62, 0
8, 55536, Note_on_c, 5, 62, 48
8, 55536, Note_on_c, 5, 64, 47
8, 55630, Note_on_c, 5, 62, 0
8, 55630, Note_on_c, 5, 64, 0
8, 55632, Note_on_c, 5, 62, 44
8, 55632, Note_on_c, 5, 64, 49
8, 55936, Note_on_c, 5, 62, 0
8, 55936, Note_on_c, 5, 64, 0
8, 55968, Note_on_c, 5, 64, 44
8, 55968, Note_on_c, 5, 62, 50
8, 56014, Note_on_c, 5, 64, 0
8, 56014, Note_on_c, 5, 62, 0
8, 56016, Note_on_c, 5, 62, 45
8, 56016, Note_on_c, 5, 64, 50
8, 56110, Note_on_c, 5, 62, 0
8, 56110, Note_on_c, 5, 64, 0
8, 56112, Note_on_c, 5, 62, 46
8, 56112, Note_on_c, 5, 64, 50
8, 56206, Note_on_c, 5, 62, 0
8, 56206, Note_on_c, 5, 64, 0
8, 56208, Note_on_c, 5, 64, 41
8, 56208, Note_on_c, 5, 62, 47
8, 56512, Note_on_c, 5, 64, 0
8, 56512, Note_on_c, 5, 62, 0
8, 61440, Note_on_c, 5, 67, 92
8, 61440, Note_on_c, 5, 60, 95
8, 61440, Note_on_c, 5, 63, 91
8, 61440, Note_on_c, 5, 58, 97
8, 61440, Control_c, 5, 11, 92
8, 61442, Control_c, 5, 11, 93
8, 61445, Control_c, 5, 11, 94
8, 61448, Control_c, 5, 11, 95
8, 61450, Control_c, 5, 11, 96
8, 61453, Control_c, 5, 11, 97
8, 61456, Control_c, 5, 11, 98
8, 61459, Control_c, 5, 11, 99
8, 61461, Control_c, 5, 11, 100
8, 61464, Control_c, 5, 11, 101
8, 61467, Control_c, 5, 11, 102
8, 61470, Control_c, 5, 11, 103
8, 61472, Control_c, 5, 11, 104
8, 61475, Control_c, 5, 11, 105
8, 61478, Control_c, 5, 11, 106
8, 61481, Control_c, 5, 11, 107
8, 61483, Control_c, 5, 11, 108
8, 61486, Control_c, 5, 11, 109
8, 61489, Control_c, 5, 11, 110
8, 61492, Control_c, 5, 11, 111
8, 61494, Control_c, 5, 11, 112
8, 61497, Control_c, 5, 11, 113
8, 61500, Control_c, 5, 11, 114
8, 61503, Control_c, 5, 11, 115
8, 61505, Control_c, 5, 11, 116
8, 61508, Control_c, 5, 11, 117
8, 61511, Control_c, 5, 11, 118
8, 61514, Control_c, 5, 11, 119
8, 61516, Control_c, 5, 11, 120
8, 61519, Control_c, 5, 11, 121
8, 61522, Control_c, 5, 11, 122
8, 61525, Control_c, 5, 11, 123
8, 61527, Control_c, 5, 11, 124
8, 61530, Control_c, 5, 11, 125
8, 61533, Control_c, 5, 11, 126
8, 61536, Control_c, 5, 11, 127
8, 61542, Control_c, 5, 11, 126
8, 61548, Control_c, 5, 11, 125
8, 61554, Control_c, 5, 11, 124
8, 61560, Control_c, 5, 11, 123
8, 61566, Control_c, 5, 11, 122
8, 61572, Control_c, 5, 11, 121
8, 61578, Control_c, 5, 11, 120
8, 61584, Control_c, 5, 11, 119
8, 61590, Control_c, 5, 11, 118
8, 61596, Control_c, 5, 11, 117
8, 61603, Control_c, 5, 11, 116
8, 61609, Control_c, 5, 11, 115
8, 61615, Control_c, 5, 11, 114
8, 61621, Control_c, 5, 11, 113
8, 61627, Control_c, 5, 11, 112
8, 61633, Control_c, 5, 11, 111
8, 61639, Control_c, 5, 11, 110
8, 61645, Control_c, 5, 11, 109
8, 61651, Control_c, 5, 11, 108
8, 61657, Control_c, 5, 11, 107
8, 61664, Control_c, 5, 11, 106
8, 61670, Control_c, 5, 11, 105
8, 61676, Control_c, 5, 11, 104
8, 61682, Control_c, 5, 11, 103
8, 61688, Control_c, 5, 11, 102
8, 61694, Control_c, 5, 11, 101
8, 61700, Control_c, 5, 11, 100
8, 61706, Control_c, 5, 11, 99
8, 61712, Control_c, 5, 11, 98
8, 61718, Control_c, 5, 11, 97
8, 61724, Control_c, 5, 11, 96
8, 61731, Control_c, 5, 11, 95
8, 61737, Control_c, 5, 11, 94
8, 61743, Control_c, 5, 11, 93
8, 61749, Control_c, 5, 11, 92
8, 61755, Control_c, 5, 11, 91
8, 61761, Control_c, 5, 11, 90
8, 61767, Control_c, 5, 11, 89
8, 61773, Control_c, 5, 11, 88
8, 61779, Control_c, 5, 11, 87
8, 61785, Control_c, 5, 11, 86
8, 61792, Control_c, 5, 11, 85
8, 61798, Control_c, 5, 11, 84
8, 61804, Control_c, 5, 11, 83
8, 61810, Control_c, 5, 11, 82
8, 61816, Control_c, 5, 11, 81
8, 61822, Control_c, 5, 11, 80
8, 61828, Control_c, 5, 11, 79
8, 61834, Control_c, 5, 11, 78
8, 61840, Control_c, 5, 11, 77
8, 61846, Control_c, 5, 11, 76
8, 61852, Control_c, 5, 11, 75
8, 61859, Control_c, 5, 11, 74
8, 61865, Control_c, 5, 11, 73
8, 61871, Control_c, 5, 11, 72
8, 61877, Control_c, 5, 11, 71
8, 61883, Control_c, 5, 11, 70
8, 61889, Control_c, 5, 11, 69
8, 61895, Control_c, 5, 11, 68
8, 61901, Control_c, 5, 11, 67
8, 61907, Control_c, 5, 11, 66
8, 61913, Control_c, 5, 11, 65
8, 61920, Control_c, 5, 11, 64
8, 61920, Control_c, 5, 11, 64
8, 61926, Control_c, 5, 11, 65
8, 61933, Control_c, 5, 11, 66
8, 61939, Control_c, 5, 11, 67
8, 61946, Control_c, 5, 11, 68
8, 61952, Control_c, 5, 11, 69
8, 61959, Control_c, 5, 11, 70
8, 61965, Control_c, 5, 11, 71
8, 61972, Control_c, 5, 11, 72
8, 61978, Control_c, 5, 11, 73
8, 61985, Control_c, 5, 11, 74
8, 61991, Control_c, 5, 11, 75
8, 61998, Control_c, 5, 11, 76
8, 62005, Control_c, 5, 11, 77
8, 62011, Control_c, 5, 11, 78
8, 62018, Control_c, 5, 11, 79
8, 62024, Control_c, 5, 11, 80
8, 62031, Control_c, 5, 11, 81
8, 62037, Control_c, 5, 11, 82
8, 62044, Control_c, 5, 11, 83
8, 62050, Control_c, 5, 11, 84
8, 62057, Control_c, 5, 11, 85
8, 62063, Control_c, 5, 11, 86
8, 62070, Control_c, 5, 11, 87
8, 62077, Control_c, 5, 11, 88
8, 62083, Control_c, 5, 11, 89
8, 62090, Control_c, 5, 11, 90
8, 62096, Control_c, 5, 11, 91
8, 62103, Control_c, 5, 11, 92
8, 62109, Control_c, 5, 11, 93
8, 62116, Control_c, 5, 11, 94
8, 62122, Control_c, 5, 11, 95
8, 62129, Control_c, 5, 11, 96
8, 62135, Control_c, 5, 11, 97
8, 62142, Control_c, 5, 11, 98
8, 62149, Control_c, 5, 11, 99
8, 62155, Control_c, 5, 11, 100
8, 62162, Control_c, 5, 11, 101
8, 62168, Control_c, 5, 11, 102
8, 62175, Control_c, 5, 11, 103
8, 62181, Control_c, 5, 11, 104
8, 62188, Control_c, 5, 11, 105
8, 62194, Control_c, 5, 11, 106
8, 62201, Control_c, 5, 11, 107
8, 62208, Control_c, 5, 11, 108
8, 62214, Control_c, 5, 11, 107
8, 62221, Control_c, 5, 11, 106
8, 62227, Control_c, 5, 11, 105
8, 62234, Control_c, 5, 11, 104
8, 62240, Control_c, 5, 11, 103
8, 62247, Control_c, 5, 11, 102
8, 62253, Control_c, 5, 11, 101
8, 62260, Control_c, 5, 11, 100
8, 62266, Control_c, 5, 11, 99
8, 62273, Control_c, 5, 11, 98
8, 62279, Control_c, 5, 11, 97
8, 62286, Control_c, 5, 11, 96
8, 62293, Control_c, 5, 11, 95
8, 62299, Control_c, 5, 11, 94
8, 62306, Control_c, 5, 11, 93
8, 62312, Control_c, 5, 11, 92
8, 62319, Control_c, 5, 11, 91
8, 62325, Control_c, 5, 11, 90
8, 62332, Control_c, 5, 11, 89
8, 62338, Control_c, 5, 11, 88
8, 62345, Control_c, 5, 11, 87
8, 62351, Control_c, 5, 11, 86
8, 62358, Control_c, 5, 11, 85
8, 62365, Control_c, 5, 11, 84
8, 62371, Control_c, 5, 11, 83
8, 62378, Control_c, 5, 11, 82
8, 62384, Control_c, 5, 11, 81
8, 62391, Control_c, 5, 11, 80
8, 62397, Control_c, 5, 11, 79
8, 62404, Control_c, 5, 11, 78
8, 62410, Control_c, 5, 11, 77
8, 62417, Control_c, 5, 11, 76
8, 62423, Control_c, 5, 11, 75
8, 62430, Control_c, 5, 11, 74
8, 62437, Control_c, 5, 11, 73
8, 62443, Control_c, 5, 11, 72
8, 62450, Control_c, 5, 11, 71
8, 62456, Control_c, 5, 11, 70
8, 62463, Control_c, 5, 11, 69
8, 62469, Control_c, 5, 11, 68
8, 62476, Control_c, 5, 11, 67
8, 62482, Control_c, 5, 11, 66
8, 62489, Control_c, 5, 11, 65
8, 62496, Control_c, 5, 11, 64
8, 62640, Note_on_c, 5, 67, 0
8, 62640, Note_on_c, 5, 60, 0
8, 62640, Note_on_c, 5, 63, 0
8, 62640, Note_on_c, 5, 58, 0
8, 64608, Note_on_c, 5, 57, 90
8, 64608, Control_c, 5, 11, 92
8, 64612, Control_c, 5, 11, 93
8, 64616, Control_c, 5, 11, 94
8, 64620, Control_c, 5, 11, 95
8, 64624, Control_c, 5, 11, 96
8, 64628, Control_c, 5, 11, 97
8, 64632, Control_c, 5, 11, 98
8, 64636, Control_c, 5, 11, 99
8, 64640, Control_c, 5, 11, 100
8, 64645, Control_c, 5, 11, 101
8, 64649, Control_c, 5, 11, 102
8, 64653, Control_c, 5, 11, 103
8, 64657, Control_c, 5, 11, 104
8, 64661, Control_c, 5, 11, 105
8, 64665, Control_c, 5, 11, 106
8, 64669, Control_c, 5, 11, 107
8, 64670, Note_on_c, 5, 57, 0
8, 64672, Note_on_c, 5, 55, 89
8, 64673, Control_c, 5, 11, 108
8, 64677, Control_c, 5, 11, 109
8, 64682, Control_c, 5, 11, 110
8, 64686, Control_c, 5, 11, 111
8, 64690, Control_c, 5, 11, 112
8, 64694, Control_c, 5, 11, 113
8, 64698, Control_c, 5, 11, 114
8, 64702, Control_c, 5, 11, 115
8, 64706, Control_c, 5, 11, 116
8, 64710, Control_c, 5, 11, 117
8, 64714, Control_c, 5, 11, 118
8, 64719, Control_c, 5, 11, 119
8, 64723, Control_c, 5, 11, 120
8, 64727, Control_c, 5, 11, 121
8, 64731, Control_c, 5, 11, 122
8, 64735, Control_c, 5, 11, 123
8, 64739, Control_c, 5, 11, 124
8, 64743, Control_c, 5, 11, 125
8, 64747, Control_c, 5, 11, 126
8, 64752, Control_c, 5, 11, 127
8, 64766, Note_on_c, 5, 55, 0
8, 64768, Note_on_c, 5, 57, 94
8, 64798, Note_on_c, 5, 57, 0
8, 64800, Control_c, 5, 11, 92
8, 64800, Note_on_c, 5, 55, 96
8, 64805, Control_c, 5, 11, 93
8, 64810, Control_c, 5, 11, 94
8, 64816, Control_c, 5, 11, 95
8, 64821, Control_c, 5, 11, 96
8, 64827, Control_c, 5, 11, 97
8, 64832, Note_on_c, 5, 55, 0
8, 64832, Control_c, 5, 11, 98
8, 64838, Control_c, 5, 11, 99
8, 64843, Control_c, 5, 11, 100
8, 64849, Control_c, 5, 11, 101
8, 64854, Control_c, 5, 11, 102
8, 64860, Control_c, 5, 11, 103
8, 64864, Note_on_c, 5, 69, 96
8, 64865, Control_c, 5, 11, 104
8, 64871, Control_c, 5, 11, 105
8, 64876, Control_c, 5, 11, 106
8, 64882, Control_c, 5, 11, 107
8, 64887, Control_c, 5, 11, 108
8, 64893, Control_c, 5, 11, 109
8, 64898, Control_c, 5, 11, 110
8, 64904, Control_c, 5, 11, 111
8, 64909, Control_c, 5, 11, 112
8, 64915, Control_c, 5, 11, 113
8, 64920, Control_c, 5, 11, 114
8, 64926, Note_on_c, 5, 69, 0
8, 64926, Control_c, 5, 11, 115
8, 64928, Note_on_c, 5, 67, 96
8, 64931, Control_c, 5, 11, 116
8, 64937, Control_c, 5, 11, 117
8, 64942, Control_c, 5, 11, 118
8, 64948, Control_c, 5, 11, 119
8, 64953, Control_c, 5, 11, 120
8, 64959, Control_c, 5, 11, 121
8, 64964, Control_c, 5, 11, 122
8, 64970, Control_c, 5, 11, 123
8, 64975, Control_c, 5, 11, 124
8, 64981, Control_c, 5, 11, 125
8, 64986, Control_c, 5, 11, 126
8, 64990, Note_on_c, 5, 67, 0
8, 64992, Control_c, 5, 11, 75
8, 64992, Note_on_c, 5, 57, 109
8, 64992, Control_c, 5, 11, 127
8, 65054, Note_on_c, 5, 57, 0
8, 65056, Note_on_c, 5, 55, 111
8, 65150, Note_on_c, 5, 55, 0
8, 65152, Note_on_c, 5, 57, 111
8, 65182, Note_on_c, 5, 57, 0
8, 65184, Note_on_c, 5, 55, 105
8, 65246, Note_on_c, 5, 55, 0
8, 65248, Note_on_c, 5, 69, 113
8, 65248, Note_on_c, 5, 57, 107
8, 65310, Note_on_c, 5, 69, 0
8, 65310, Note_on_c, 5, 57, 0
8, 65312, Note_on_c, 5, 55, 107
8, 65312, Note_on_c, 5, 67, 109
8, 65374, Note_on_c, 5, 55, 0
8, 65374, Note_on_c, 5, 67, 0
8, 65376, Note_on_c, 5, 54, 113
8, 65376, Note_on_c, 5, 60, 103
8, 65376, Note_on_c, 5, 70, 104
8, 65438, Note_on_c, 5, 54, 0
8, 65438, Note_on_c, 5, 60, 0
8, 65438, Note_on_c, 5, 70, 0
8, 65440, Note_on_c, 5, 58, 104
8, 65440, Note_on_c, 5, 66, 111
8, 65440, Note_on_c, 5, 51, 110
8, 65534, Note_on_c, 5, 58, 0
8, 65534, Note_on_c, 5, 66, 0
8, 65534, Note_on_c, 5, 51, 0
8, 65536, Note_on_c, 5, 60, 111
8, 65536, Note_on_c, 5, 70, 110
8, 65536, Note_on_c, 5, 54, 108
8, 65566, Note_on_c, 5, 60, 0
8, 65566, Note_on_c, 5, 70, 0
8, 65566, Note_on_c, 5, 54, 0
8, 65568, Note_on_c, 5, 58, 107
8, 65568, Note_on_c, 5, 63, 108
8, 65568, Note_on_c, 5, 73, 103
8, 65568, Note_on_c, 5, 66, 103
8, 65822, Note_on_c, 5, 58, 0
8, 65822, Note_on_c, 5, 63, 0
8, 65822, Note_on_c, 5, 73, 0
8, 65822, Note_on_c, 5, 66, 0
8, 65824, Note_on_c, 5, 66, 105
8, 65824, Note_on_c, 5, 60, 108
8, 65824, Note_on_c, 5, 70, 113
8, 65824, Note_on_c, 5, 75, 112
8, 65886, Note_on_c, 5, 66, 0
8, 65886, Note_on_c, 5, 60, 0
8, 65886, Note_on_c, 5, 70, 0
8, 65886, Note_on_c, 5, 75, 0
8, 66144, Note_on_c, 5, 54, 48
8, 66144, Control_c, 5, 11, 127
8, 66144, Note_on_c, 5, 60, 42
8, 66144, Note_on_c, 5, 68, 41
8, 66144, Note_on_c, 5, 63, 45
8, 66146, Control_c, 5, 11, 126
8, 66149, Control_c, 5, 11, 125
8, 66152, Control_c, 5, 11, 124
8, 66154, Control_c, 5, 11, 123
8, 66157, Control_c, 5, 11, 122
8, 66160, Control_c, 5, 11, 121
8, 66163, Control_c, 5, 11, 120
8, 66165, Control_c, 5, 11, 119
8, 66168, Control_c, 5, 11, 118
8, 66171, Control_c, 5, 11, 117
8, 66174, Control_c, 5, 11, 116
8, 66176, Control_c, 5, 11, 115
8, 66179, Control_c, 5, 11, 114
8, 66182, Control_c, 5, 11, 113
8, 66185, Control_c, 5, 11, 112
8, 66187, Control_c, 5, 11, 111
8, 66190, Control_c, 5, 11, 110
8, 66193, Control_c, 5, 11, 109
8, 66196, Control_c, 5, 11, 108
8, 66198, Control_c, 5, 11, 107
8, 66201, Control_c, 5, 11, 106
8, 66204, Control_c, 5, 11, 105
8, 66206, Note_on_c, 5, 54, 0
8, 66206, Note_on_c, 5, 60, 0
8, 66206, Note_on_c, 5, 68, 0
8, 66206, Note_on_c, 5, 63, 0
8, 66207, Control_c, 5, 11, 104
8, 66208, Note_on_c, 5, 53, 50
8, 66208, Note_on_c, 5, 62, 50
8, 66208, Note_on_c, 5, 59, 44
8, 66208, Note_on_c, 5, 70, 40
8, 66209, Control_c, 5, 11, 103
8, 66212, Control_c, 5, 11, 102
8, 66215, Control_c, 5, 11, 101
8, 66218, Control_c, 5, 11, 100
8, 66220, Control_c, 5, 11, 99
8, 66223, Control_c, 5, 11, 98
8, 66226, Control_c, 5, 11, 97
8, 66229, Control_c, 5, 11, 96
8, 66231, Control_c, 5, 11, 95
8, 66234, Control_c, 5, 11, 94
8, 66237, Control_c, 5, 11, 93
8, 66240, Control_c, 5, 11, 92
8, 66270, Note_on_c, 5, 53, 0
8, 66270, Note_on_c, 5, 62, 0
8, 66270, Note_on_c, 5, 59, 0
8, 66270, Note_on_c, 5, 70, 0
8, 67008, Control_c, 5, 11, 127
8, 67008, Note_on_c, 5, 48, 46
8, 67008, Note_on_c, 5, 58, 44
8, 67008, Note_on_c, 5, 55, 50
8, 67008, Note_on_c, 5, 63, 41
8, 67010, Control_c, 5, 11, 126
8, 67013, Control_c, 5, 11, 125
8, 67016, Control_c, 5, 11, 124
8, 67018, Control_c, 5, 11, 123
8, 67021, Control_c, 5, 11, 122
8, 67024, Control_c, 5, 11, 121
8, 67027, Control_c, 5, 11, 120
8, 67029, Control_c, 5, 11, 119
8, 67032, Control_c, 5, 11, 118
8, 67035, Control_c, 5, 11, 117
8, 67038, Control_c, 5, 11, 116
8, 67040, Control_c, 5, 11, 115
8, 67043, Control_c, 5, 11, 114
8, 67046, Control_c, 5, 11, 113
8, 67049, Control_c, 5, 11, 112
8, 67051, Control_c, 5, 11, 111
8, 67054, Control_c, 5, 11, 110
8, 67057, Control_c, 5, 11, 109
8, 67060, Control_c, 5, 11, 108
8, 67062, Control_c, 5, 11, 107
8, 67065, Control_c, 5, 11, 106
8, 67068, Control_c, 5, 11, 105
8, 67071, Control_c, 5, 11, 104
8, 67073, Control_c, 5, 11, 103
8, 67076, Control_c, 5, 11, 102
8, 67079, Control_c, 5, 11, 101
8, 67082, Control_c, 5, 11, 100
8, 67084, Control_c, 5, 11, 99
8, 67087, Control_c, 5, 11, 98
8, 67090, Control_c, 5, 11, 97
8, 67093, Control_c, 5, 11, 96
8, 67095, Control_c, 5, 11, 95
8, 67098, Control_c, 5, 11, 94
8, 67101, Control_c, 5, 11, 93
8, 67104, Control_c, 5, 11, 92
8, 67112, Control_c, 5, 11, 91
8, 67120, Control_c, 5, 11, 90
8, 67128, Control_c, 5, 11, 89
8, 67136, Control_c, 5, 11, 88
8, 67144, Control_c, 5, 11, 87
8, 67153, Control_c, 5, 11, 86
8, 67161, Control_c, 5, 11, 85
8, 67169, Control_c, 5, 11, 84
8, 67177, Control_c, 5, 11, 83
8, 67185, Control_c, 5, 11, 82
8, 67193, Control_c, 5, 11, 81
8, 67200, Note_on_c, 5, 48, 0
8, 67200, Note_on_c, 5, 58, 0
8, 67200, Note_on_c, 5, 55, 0
8, 67200, Note_on_c, 5, 63, 0
8, 67200, Note_on_c, 5, 57, 44
8, 67200, Note_on_c, 5, 54, 44
8, 67200, Note_on_c, 5, 60, 44
8, 67200, Note_on_c, 5, 63, 44
8, 67202, Control_c, 5, 11, 80
8, 67210, Control_c, 5, 11, 79
8, 67218, Control_c, 5, 11, 78
8, 67226, Control_c, 5, 11, 77
8, 67234, Control_c, 5, 11, 76
8, 67242, Control_c, 5, 11, 75
8, 67251, Control_c, 5, 11, 74
8, 67259, Control_c, 5, 11, 73
8, 67267, Control_c, 5, 11, 72
8, 67275, Control_c, 5, 11, 71
8, 67283, Control_c, 5, 11, 70
8, 67291, Control_c, 5, 11, 69
8, 67294, Note_on_c, 5, 57, 0
8, 67294, Note_on_c, 5, 54, 0
8, 67294, Note_on_c, 5, 60, 0
8, 67294, Note_on_c, 5, 63, 0
8, 67296, Note_on_c, 5, 62, 47
8, 67296, Note_on_c, 5, 57, 44
8, 67296, Note_on_c, 5, 53, 50
8, 67296, Note_on_c, 5, 50, 41
8, 67300, Control_c, 5, 11, 68
8, 67308, Control_c, 5, 11, 67
8, 67316, Control_c, 5, 11, 66
8, 67324, Control_c, 5, 11, 65
8, 67332, Control_c, 5, 11, 64
8, 67340, Control_c, 5, 11, 63
8, 67349, Control_c, 5, 11, 62
8, 67357, Control_c, 5, 11, 61
8, 67365, Control_c, 5, 11, 60
8, 67373, Control_c, 5, 11, 59
8, 67381, Control_c, 5, 11, 58
8, 67389, Control_c, 5, 11, 57
8, 67398, Control_c, 5, 11, 56
8, 67406, Control_c, 5, 11, 55
8, 67414, Control_c, 5, 11, 54
8, 67422, Control_c, 5, 11, 53
8, 67430, Control_c, 5, 11, 52
8, 67438, Control_c, 5, 11, 51
8, 67447, Control_c, 5, 11, 50
8, 67455, Control_c, 5, 11, 49
8, 67463, Control_c, 5, 11, 48
8, 67471, Control_c, 5, 11, 47
8, 67479, Control_c, 5, 11, 46
8, 67488, Control_c, 5, 11, 45
8, 68016, Note_on_c, 5, 62, 0
8, 68016, Note_on_c, 5, 57, 0
8, 68016, Note_on_c, 5, 53, 0
8, 68016, Note_on_c, 5, 50, 0
8, 69600, Control_c, 5, 11, 45
8, 69600, Note_on_c, 5, 60, 93
8, 69600, Note_on_c, 5, 64, 87
8, 69625, Control_c, 5, 11, 46
8, 69651, Control_c, 5, 11, 47
8, 69676, Control_c, 5, 11, 48
8, 69702, Control_c, 5, 11, 49
8, 69728, Control_c, 5, 11, 50
8, 69753, Control_c, 5, 11, 51
8, 69779, Control_c, 5, 11, 52
8, 69804, Control_c, 5, 11, 53
8, 69830, Control_c, 5, 11, 54
8, 69856, Control_c, 5, 11, 55
8, 69881, Control_c, 5, 11, 56
8, 69907, Control_c, 5, 11, 57
8, 69932, Control_c, 5, 11, 58
8, 69958, Control_c, 5, 11, 59
8, 69984, Control_c, 5, 11, 60
8, 70009, Control_c, 5, 11, 61
8, 70035, Control_c, 5, 11, 62
8, 70060, Control_c, 5, 11, 63
8, 70086, Control_c, 5, 11, 64
8, 70112, Control_c, 5, 11, 65
8, 70137, Control_c, 5, 11, 66
8, 70163, Control_c, 5, 11, 67
8, 70188, Control_c, 5, 11, 68
8, 70214, Control_c, 5, 11, 69
8, 70240, Control_c, 5, 11, 70
8, 70265, Control_c, 5, 11, 71
8, 70291, Control_c, 5, 11, 72
8, 70316, Control_c, 5, 11, 73
8, 70320, Note_on_c, 5, 60, 0
8, 70320, Note_on_c, 5, 64, 0
8, 70342, Control_c, 5, 11, 74
8, 70368, Control_c, 5, 11, 75
8, 70560, Control_c, 5, 11, 92
8, 70560, Note_on_c, 5, 64, 65
8, 70560, Note_on_c, 5, 67, 58
8, 70560, Note_on_c, 5, 55, 55
8, 70560, Note_on_c, 5, 60, 59
8, 70565, Control_c, 5, 11, 93
8, 70570, Control_c, 5, 11, 94
8, 70576, Control_c, 5, 11, 95
8, 70581, Control_c, 5, 11, 96
8, 70582, Note_on_c, 5, 67, 0
8, 70582, Note_on_c, 5, 55, 0
8, 70584, Note_on_c, 5, 57, 55
8, 70584, Note_on_c, 5, 69, 58
8, 70587, Control_c, 5, 11, 97
8, 70592, Control_c, 5, 11, 98
8, 70598, Control_c, 5, 11, 99
8, 70603, Control_c, 5, 11, 100
8, 70609, Control_c, 5, 11, 101
8, 70614, Control_c, 5, 11, 102
8, 70620, Control_c, 5, 11, 103
8, 70625, Control_c, 5, 11, 104
8, 70631, Control_c, 5, 11, 105
8, 70636, Control_c, 5, 11, 106
8, 70642, Control_c, 5, 11, 107
8, 70647, Control_c, 5, 11, 108
8, 70653, Control_c, 5, 11, 109
8, 70658, Control_c, 5, 11, 110
8, 70664, Control_c, 5, 11, 111
8, 70669, Control_c, 5, 11, 112
8, 70675, Control_c, 5, 11, 113
8, 70680, Control_c, 5, 11, 114
8, 70686, Control_c, 5, 11, 115
8, 70691, Control_c, 5, 11, 116
8, 70697, Control_c, 5, 11, 117
8, 70702, Control_c, 5, 11, 118
8, 70708, Control_c, 5, 11, 119
8, 70713, Control_c, 5, 11, 120
8, 70719, Control_c, 5, 11, 121
8, 70720, Note_on_c, 5, 64, 0
8, 70720, Note_on_c, 5, 60, 0
8, 70724, Control_c, 5, 11, 122
8, 70730, Control_c, 5, 11, 123
8, 70735, Control_c, 5, 11, 124
8, 70741, Control_c, 5, 11, 125
8, 70746, Control_c, 5, 11, 126
8, 70750, Note_on_c, 5, 57, 0
8, 70750, Note_on_c, 5, 69, 0
8, 70752, Control_c, 5, 11, 127
8, 70944, Control_c, 5, 11, 92
8, 70944, Note_on_c, 5, 64, 65
8, 70944, Note_on_c, 5, 55, 59
8, 70944, Note_on_c, 5, 60, 59
8, 70944, Note_on_c, 5, 67, 56
8, 70949, Control_c, 5, 11, 93
8, 70954, Control_c, 5, 11, 94
8, 70960, Control_c, 5, 11, 95
8, 70965, Control_c, 5, 11, 96
8, 70966, Note_on_c, 5, 55, 0
8, 70966, Note_on_c, 5, 67, 0
8, 70968, Note_on_c, 5, 69, 58
8, 70968, Note_on_c, 5, 57, 62
8, 70971, Control_c, 5, 11, 97
8, 70976, Control_c, 5, 11, 98
8, 70982, Control_c, 5, 11, 99
8, 70987, Control_c, 5, 11, 100
8, 70993, Control_c, 5, 11, 101
8, 70998, Control_c, 5, 11, 102
8, 71004, Control_c, 5, 11, 103
8, 71009, Control_c, 5, 11, 104
8, 71015, Control_c, 5, 11, 105
8, 71020, Control_c, 5, 11, 106
8, 71026, Control_c, 5, 11, 107
8, 71031, Control_c, 5, 11, 108
8, 71037, Control_c, 5, 11, 109
8, 71042, Control_c, 5, 11, 110
8, 71048, Control_c, 5, 11, 111
8, 71053, Control_c, 5, 11, 112
8, 71059, Control_c, 5, 11, 113
8, 71064, Control_c, 5, 11, 114
8, 71070, Control_c, 5, 11, 115
8, 71075, Control_c, 5, 11, 116
8, 71081, Control_c, 5, 11, 117
8, 71086, Control_c, 5, 11, 118
8, 71092, Control_c, 5, 11, 119
8, 71097, Control_c, 5, 11, 120
8, 71103, Control_c, 5, 11, 121
8, 71104, Note_on_c, 5, 64, 0
8, 71104, Note_on_c, 5, 60, 0
8, 71108, Control_c, 5, 11, 122
8, 71114, Control_c, 5, 11, 123
8, 71119, Control_c, 5, 11, 124
8, 71125, Control_c, 5, 11, 125
8, 71130, Control_c, 5, 11, 126
8, 71134, Note_on_c, 5, 69, 0
8, 71134, Note_on_c, 5, 57, 0
8, 71136, Control_c, 5, 11, 127
8, 71328, Note_on_c, 5, 55, 91
8, 71328, Control_c, 5, 11, 92
8, 71328, Note_on_c, 5, 64, 87
8, 71328, Note_on_c, 5, 60, 89
8, 71328, Note_on_c, 5, 67, 94
8, 71333, Control_c, 5, 11, 93
8, 71338, Control_c, 5, 11, 94
8, 71344, Control_c, 5, 11, 95
8, 71349, Control_c, 5, 11, 96
8, 71350, Note_on_c, 5, 55, 0
8, 71350, Note_on_c, 5, 67, 0
8, 71352, Note_on_c, 5, 57, 90
8, 71352, Note_on_c, 5, 69, 93
8, 71355, Control_c, 5, 11, 97
8, 71360, Control_c, 5, 11, 98
8, 71366, Control_c, 5, 11, 99
8, 71371, Control_c, 5, 11, 100
8, 71377, Control_c, 5, 11, 101
8, 71382, Control_c, 5, 11, 102
8, 71388, Control_c, 5, 11, 103
8, 71393, Control_c, 5, 11, 104
8, 71399, Control_c, 5, 11, 105
8, 71404, Control_c, 5, 11, 106
8, 71410, Control_c, 5, 11, 107
8, 71415, Control_c, 5, 11, 108
8, 71421, Control_c, 5, 11, 109
8, 71426, Control_c, 5, 11, 110
8, 71432, Control_c, 5, 11, 111
8, 71437, Control_c, 5, 11, 112
8, 71443, Control_c, 5, 11, 113
8, 71448, Control_c, 5, 11, 114
8, 71454, Control_c, 5, 11, 115
8, 71459, Control_c, 5, 11, 116
8, 71465, Control_c, 5, 11, 117
8, 71470, Control_c, 5, 11, 118
8, 71476, Control_c, 5, 11, 119
8, 71481, Control_c, 5, 11, 120
8, 71487, Control_c, 5, 11, 121
8, 71488, Note_on_c, 5, 64, 0
8, 71488, Note_on_c, 5, 60, 0
8, 71492, Control_c, 5, 11, 122
8, 71498, Control_c, 5, 11, 123
8, 71503, Control_c, 5, 11, 124
8, 71509, Control_c, 5, 11, 125
8, 71514, Control_c, 5, 11, 126
8, 71518, Note_on_c, 5, 57, 0
8, 71518, Note_on_c, 5, 69, 0
8, 71520, Control_c, 5, 11, 127
8, 71712, Note_on_c, 5, 64, 88
8, 71712, Note_on_c, 5, 67, 97
8, 71712, Control_c, 5, 11, 92
8, 71712, Note_on_c, 5, 55, 93
8, 71712, Note_on_c, 5, 60, 88
8, 71717, Control_c, 5, 11, 93
8, 71722, Control_c, 5, 11, 94
8, 71728, Control_c, 5, 11, 95
8, 71733, Control_c, 5, 11, 96
8, 71734, Note_on_c, 5, 67, 0
8, 71734, Note_on_c, 5, 55, 0
8, 71736, Note_on_c, 5, 69, 92
8, 71736, Note_on_c, 5, 57, 95
8, 71739, Control_c, 5, 11, 97
8, 71744, Control_c, 5, 11, 98
8, 71750, Control_c, 5, 11, 99
8, 71755, Control_c, 5, 11, 100
8, 71761, Control_c, 5, 11, 101
8, 71766, Control_c, 5, 11, 102
8, 71772, Control_c, 5, 11, 103
8, 71777, Control_c, 5, 11, 104
8, 71783, Control_c, 5, 11, 105
8, 71788, Control_c, 5, 11, 106
8, 71794, Control_c, 5, 11, 107
8, 71799, Control_c, 5, 11, 108
8, 71805, Control_c, 5, 11, 109
8, 71810, Control_c, 5, 11, 110
8, 71816, Control_c, 5, 11, 111
8, 71821, Control_c, 5, 11, 112
8, 71827, Control_c, 5, 11, 113
8, 71832, Control_c, 5, 11, 114
8, 71838, Control_c, 5, 11, 115
8, 71843, Control_c, 5, 11, 116
8, 71849, Control_c, 5, 11, 117
8, 71854, Control_c, 5, 11, 118
8, 71860, Control_c, 5, 11, 119
8, 71865, Control_c, 5, 11, 120
8, 71871, Control_c, 5, 11, 121
8, 71872, Note_on_c, 5, 64, 0
8, 71872, Note_on_c, 5, 60, 0
8, 71876, Control_c, 5, 11, 122
8, 71882, Control_c, 5, 11, 123
8, 71887, Control_c, 5, 11, 124
8, 71893, Control_c, 5, 11, 125
8, 71898, Control_c, 5, 11, 126
8, 71902, Note_on_c, 5, 69, 0
8, 71902, Note_on_c, 5, 57, 0
8, 71904, Control_c, 5, 11, 127
8, 72096, Note_on_c, 5, 60, 95
8, 72096, Note_on_c, 5, 58, 90
8, 72096, Note_on_c, 5, 67, 94
8, 72096, Note_on_c, 5, 63, 92
8, 72480, Note_on_c, 5, 60, 0
8, 72480, Note_on_c, 5, 58, 0
8, 72480, Note_on_c, 5, 67, 0
8, 72480, Note_on_c, 5, 63, 0
8, 73056, Control_c, 5, 11, 127
8, 73056, Note_on_c, 5, 36, 79
8, 73056, Note_on_c, 5, 36, 1
8, 73061, Control_c, 5, 11, 126
8, 73066, Control_c, 5, 11, 125
8, 73072, Control_c, 5, 11, 124
8, 73077, Control_c, 5, 11, 123
8, 73083, Control_c, 5, 11, 122
8, 73088, Control_c, 5, 11, 121
8, 73094, Control_c, 5, 11, 120
8, 73099, Control_c, 5, 11, 119
8, 73105, Control_c, 5, 11, 118
8, 73110, Control_c, 5, 11, 117
8, 73116, Control_c, 5, 11, 116
8, 73121, Control_c, 5, 11, 115
8, 73127, Control_c, 5, 11, 114
8, 73132, Control_c, 5, 11, 113
8, 73138, Control_c, 5, 11, 112
8, 73143, Control_c, 5, 11, 111
8, 73149, Control_c, 5, 11, 110
8, 73154, Control_c, 5, 11, 109
8, 73160, Control_c, 5, 11, 108
8, 73165, Control_c, 5, 11, 107
8, 73171, Control_c, 5, 11, 106
8, 73176, Control_c, 5, 11, 105
8, 73182, Control_c, 5, 11, 104
8, 73187, Control_c, 5, 11, 103
8, 73193, Control_c, 5, 11, 102
8, 73198, Control_c, 5, 11, 101
8, 73204, Control_c, 5, 11, 100
8, 73209, Control_c, 5, 11, 99
8, 73215, Control_c, 5, 11, 98
8, 73220, Control_c, 5, 11, 97
8, 73226, Control_c, 5, 11, 96
8, 73231, Control_c, 5, 11, 95
8, 73237, Control_c, 5, 11, 94
8, 73242, Control_c, 5, 11, 93
8, 73248, Note_on_c, 5, 36, 0
8, 73248, Note_on_c, 5, 36, 0
8, 73248, Note_on_c, 5, 29, 4
8, 73248, Note_on_c, 5, 29, 80
8, 73248, Control_c, 5, 11, 92
8, 73968, Note_on_c, 5, 29, 0
8, 73968, Note_on_c, 5, 29, 0
8, 74208, Control_c, 5, 11, 75
8, 74208, Note_on_c, 5, 29, 90
8, 74217, Control_c, 5, 11, 76
8, 74226, Control_c, 5, 11, 77
8, 74235, Control_c, 5, 11, 78
8, 74244, Control_c, 5, 11, 79
8, 74254, Control_c, 5, 11, 80
8, 74263, Control_c, 5, 11, 81
8, 74272, Control_c, 5, 11, 82
8, 74281, Control_c, 5, 11, 83
8, 74291, Control_c, 5, 11, 84
8, 74300, Control_c, 5, 11, 85
8, 74309, Control_c, 5, 11, 86
8, 74318, Control_c, 5, 11, 87
8, 74327, Control_c, 5, 11, 88
8, 74337, Control_c, 5, 11, 89
8, 74346, Control_c, 5, 11, 90
8, 74355, Control_c, 5, 11, 91
8, 74364, Control_c, 5, 11, 92
8, 74374, Control_c, 5, 11, 93
8, 74383, Control_c, 5, 11, 94
8, 74392, Control_c, 5, 11, 95
8, 74401, Control_c, 5, 11, 96
8, 74411, Control_c, 5, 11, 97
8, 74420, Control_c, 5, 11, 98
8, 74429, Control_c, 5, 11, 99
8, 74438, Control_c, 5, 11, 100
8, 74447, Control_c, 5, 11, 101
8, 74457, Control_c, 5, 11, 102
8, 74466, Control_c, 5, 11, 103
8, 74475, Control_c, 5, 11, 104
8, 74484, Control_c, 5, 11, 105
8, 74494, Control_c, 5, 11, 106
8, 74503, Control_c, 5, 11, 107
8, 74512, Control_c, 5, 11, 108
8, 74521, Control_c, 5, 11, 109
8, 74531, Control_c, 5, 11, 110
8, 74540, Control_c, 5, 11, 111
8, 74549, Control_c, 5, 11, 112
8, 74558, Control_c, 5, 11, 113
8, 74560, Note_on_c, 5, 29, 0
8, 74567, Control_c, 5, 11, 114
8, 74577, Control_c, 5, 11, 115
8, 74586, Control_c, 5, 11, 116
8, 74595, Control_c, 5, 11, 117
8, 74604, Control_c, 5, 11, 118
8, 74614, Control_c, 5, 11, 119
8, 74623, Control_c, 5, 11, 120
8, 74632, Control_c, 5, 11, 121
8, 74641, Control_c, 5, 11, 122
8, 74651, Control_c, 5, 11, 123
8, 74660, Control_c, 5, 11, 124
8, 74669, Control_c, 5, 11, 125
8, 74678, Control_c, 5, 11, 126
8, 74688, Control_c, 5, 11, 127
8, 74784, Control_c, 5, 11, 75
8, 74784, Note_on_c, 5, 29, 87
8, 74793, Control_c, 5, 11, 76
8, 74802, Control_c, 5, 11, 77
8, 74811, Control_c, 5, 11, 78
8, 74820, Control_c, 5, 11, 79
8, 74830, Control_c, 5, 11, 80
8, 74839, Control_c, 5, 11, 81
8, 74848, Control_c, 5, 11, 82
8, 74857, Control_c, 5, 11, 83
8, 74867, Control_c, 5, 11, 84
8, 74876, Control_c, 5, 11, 85
8, 74885, Control_c, 5, 11, 86
8, 74894, Control_c, 5, 11, 87
8, 74903, Control_c, 5, 11, 88
8, 74913, Control_c, 5, 11, 89
8, 74922, Control_c, 5, 11, 90
8, 74931, Control_c, 5, 11, 91
8, 74940, Control_c, 5, 11, 92
8, 74950, Control_c, 5, 11, 93
8, 74959, Control_c, 5, 11, 94
8, 74968, Control_c, 5, 11, 95
8, 74977, Control_c, 5, 11, 96
8, 74987, Control_c, 5, 11, 97
8, 74996, Control_c, 5, 11, 98
8, 75005, Control_c, 5, 11, 99
8, 75014, Control_c, 5, 11, 100
8, 75023, Control_c, 5, 11, 101
8, 75033, Control_c, 5, 11, 102
8, 75042, Control_c, 5, 11, 103
8, 75051, Control_c, 5, 11, 104
8, 75060, Control_c, 5, 11, 105
8, 75070, Control_c, 5, 11, 106
8, 75079, Control_c, 5, 11, 107
8, 75088, Control_c, 5, 11, 108
8, 75097, Control_c, 5, 11, 109
8, 75107, Control_c, 5, 11, 110
8, 75116, Control_c, 5, 11, 111
8, 75125, Control_c, 5, 11, 112
8, 75134, Control_c, 5, 11, 113
8, 75136, Note_on_c, 5, 29, 0
8, 75143, Control_c, 5, 11, 114
8, 75153, Control_c, 5, 11, 115
8, 75162, Control_c, 5, 11, 116
8, 75171, Control_c, 5, 11, 117
8, 75180, Control_c, 5, 11, 118
8, 75190, Control_c, 5, 11, 119
8, 75199, Control_c, 5, 11, 120
8, 75208, Control_c, 5, 11, 121
8, 75217, Control_c, 5, 11, 122
8, 75227, Control_c, 5, 11, 123
8, 75236, Control_c, 5, 11, 124
8, 75245, Control_c, 5, 11, 125
8, 75254, Control_c, 5, 11, 126
8, 75264, Control_c, 5, 11, 127
8, 75360, Control_c, 5, 11, 75
8, 75360, Note_on_c, 5, 29, 92
8, 75369, Control_c, 5, 11, 76
8, 75378, Control_c, 5, 11, 77
8, 75387, Control_c, 5, 11, 78
8, 75396, Control_c, 5, 11, 79
8, 75406, Control_c, 5, 11, 80
8, 75415, Control_c, 5, 11, 81
8, 75424, Control_c, 5, 11, 82
8, 75433, Control_c, 5, 11, 83
8, 75443, Control_c, 5, 11, 84
8, 75452, Control_c, 5, 11, 85
8, 75461, Control_c, 5, 11, 86
8, 75470, Control_c, 5, 11, 87
8, 75479, Control_c, 5, 11, 88
8, 75489, Control_c, 5, 11, 89
8, 75498, Control_c, 5, 11, 90
8, 75507, Control_c, 5, 11, 91
8, 75516, Control_c, 5, 11, 92
8, 75526, Control_c, 5, 11, 93
8, 75535, Control_c, 5, 11, 94
8, 75544, Control_c, 5, 11, 95
8, 75553, Control_c, 5, 11, 96
8, 75563, Control_c, 5, 11, 97
8, 75572, Control_c, 5, 11, 98
8, 75581, Control_c, 5, 11, 99
8, 75590, Control_c, 5, 11, 100
8, 75599, Control_c, 5, 11, 101
8, 75609, Control_c, 5, 11, 102
8, 75618, Control_c, 5, 11, 103
8, 75627, Control_c, 5, 11, 104
8, 75636, Control_c, 5, 11, 105
8, 75646, Control_c, 5, 11, 106
8, 75655, Control_c, 5, 11, 107
8, 75664, Control_c, 5, 11, 108
8, 75673, Control_c, 5, 11, 109
8, 75683, Control_c, 5, 11, 110
8, 75692, Control_c, 5, 11, 111
8, 75701, Control_c, 5, 11, 112
8, 75710, Control_c, 5, 11, 113
8, 75712, Note_on_c, 5, 29, 0
8, 75719, Control_c, 5, 11, 114
8, 75729, Control_c, 5, 11, 115
8, 75738, Control_c, 5, 11, 116
8, 75747, Control_c, 5, 11, 117
8, 75756, Control_c, 5, 11, 118
8, 75766, Control_c, 5, 11, 119
8, 75775, Control_c, 5, 11, 120
8, 75784, Control_c, 5, 11, 121
8, 75793, Control_c, 5, 11, 122
8, 75803, Control_c, 5, 11, 123
8, 75812, Control_c, 5, 11, 124
8, 75821, Control_c, 5, 11, 125
8, 75830, Control_c, 5, 11, 126
8, 75840, Control_c, 5, 11, 127
8, 75936, Control_c, 5, 11, 75
8, 75936, Note_on_c, 5, 29, 97
8, 75945, Control_c, 5, 11, 76
8, 75954, Control_c, 5, 11, 77
8, 75963, Control_c, 5, 11, 78
8, 75972, Control_c, 5, 11, 79
8, 75982, Control_c, 5, 11, 80
8, 75991, Control_c, 5, 11, 81
8, 76000, Control_c, 5, 11, 82
8, 76009, Control_c, 5, 11, 83
8, 76019, Control_c, 5, 11, 84
8, 76028, Control_c, 5, 11, 85
8, 76037, Control_c, 5, 11, 86
8, 76046, Control_c, 5, 11, 87
8, 76055, Control_c, 5, 11, 88
8, 76065, Control_c, 5, 11, 89
8, 76074, Control_c, 5, 11, 90
8, 76083, Control_c, 5, 11, 91
8, 76092, Control_c, 5, 11, 92
8, 76102, Control_c, 5, 11, 93
8, 76111, Control_c, 5, 11, 94
8, 76120, Control_c, 5, 11, 95
8, 76129, Control_c, 5, 11, 96
8, 76139, Control_c, 5, 11, 97
8, 76148, Control_c, 5, 11, 98
8, 76157, Control_c, 5, 11, 99
8, 76166, Control_c, 5, 11, 100
8, 76175, Control_c, 5, 11, 101
8, 76185, Control_c, 5, 11, 102
8, 76194, Control_c, 5, 11, 103
8, 76203, Control_c, 5, 11, 104
8, 76212, Control_c, 5, 11, 105
8, 76222, Control_c, 5, 11, 106
8, 76231, Control_c, 5, 11, 107
8, 76240, Control_c, 5, 11, 108
8, 76249, Control_c, 5, 11, 109
8, 76259, Control_c, 5, 11, 110
8, 76268, Control_c, 5, 11, 111
8, 76277, Control_c, 5, 11, 112
8, 76286, Control_c, 5, 11, 113
8, 76288, Note_on_c, 5, 29, 0
8, 76295, Control_c, 5, 11, 114
8, 76305, Control_c, 5, 11, 115
8, 76314, Control_c, 5, 11, 116
8, 76320, Note_on_c, 5, 53, 91
8, 76320, Control_c, 5, 11, 92
8, 76320, Note_on_c, 5, 57, 87
8, 76323, Control_c, 5, 11, 117
8, 76332, Control_c, 5, 11, 118
8, 76342, Control_c, 5, 11, 119
8, 76351, Control_c, 5, 11, 120
8, 76360, Control_c, 5, 11, 121
8, 76369, Control_c, 5, 11, 122
8, 76379, Control_c, 5, 11, 123
8, 76388, Control_c, 5, 11, 124
8, 76397, Control_c, 5, 11, 125
8, 76406, Control_c, 5, 11, 126
8, 76416, Control_c, 5, 11, 127
8, 76512, Note_on_c, 5, 63, 92
8, 76608, Control_c, 5, 11, 92
8, 76610, Control_c, 5, 11, 93
8, 76613, Control_c, 5, 11, 94
8, 76616, Control_c, 5, 11, 95
8, 76618, Control_c, 5, 11, 96
8, 76621, Control_c, 5, 11, 97
8, 76624, Control_c, 5, 11, 98
8, 76627, Control_c, 5, 11, 99
8, 76629, Control_c, 5, 11, 100
8, 76632, Control_c, 5, 11, 101
8, 76635, Control_c, 5, 11, 102
8, 76638, Control_c, 5, 11, 103
8, 76640, Control_c, 5, 11, 104
8, 76643, Control_c, 5, 11, 105
8, 76646, Control_c, 5, 11, 106
8, 76649, Control_c, 5, 11, 107
8, 76651, Control_c, 5, 11, 108
8, 76654, Control_c, 5, 11, 109
8, 76657, Control_c, 5, 11, 110
8, 76660, Control_c, 5, 11, 111
8, 76662, Control_c, 5, 11, 112
8, 76665, Control_c, 5, 11, 113
8, 76668, Control_c, 5, 11, 114
8, 76671, Control_c, 5, 11, 115
8, 76673, Control_c, 5, 11, 116
8, 76676, Control_c, 5, 11, 117
8, 76679, Control_c, 5, 11, 118
8, 76682, Control_c, 5, 11, 119
8, 76684, Control_c, 5, 11, 120
8, 76687, Control_c, 5, 11, 121
8, 76690, Control_c, 5, 11, 122
8, 76693, Control_c, 5, 11, 123
8, 76695, Control_c, 5, 11, 124
8, 76698, Control_c, 5, 11, 125
8, 76701, Control_c, 5, 11, 126
8, 76704, Note_on_c, 5, 53, 0
8, 76704, Note_on_c, 5, 57, 0
8, 76704, Note_on_c, 5, 63, 0
8, 76704, Note_on_c, 5, 58, 87
8, 76704, Note_on_c, 5, 64, 88
8, 76704, Control_c, 5, 11, 127
8, 76704, Note_on_c, 5, 55, 87
8, 76864, Note_on_c, 5, 58, 0
8, 76864, Note_on_c, 5, 64, 0
8, 76864, Note_on_c, 5, 55, 0
8, 76896, Note_on_c, 5, 53, 89
8, 76896, Note_on_c, 5, 57, 97
8, 76896, Control_c, 5, 11, 92
8, 77088, Note_on_c, 5, 63, 95
8, 77184, Control_c, 5, 11, 92
8, 77186, Control_c, 5, 11, 93
8, 77189, Control_c, 5, 11, 94
8, 77192, Control_c, 5, 11, 95
8, 77194, Control_c, 5, 11, 96
8, 77197, Control_c, 5, 11, 97
8, 77200, Control_c, 5, 11, 98
8, 77203, Control_c, 5, 11, 99
8, 77205, Control_c, 5, 11, 100
8, 77208, Control_c, 5, 11, 101
8, 77211, Control_c, 5, 11, 102
8, 77214, Control_c, 5, 11, 103
8, 77216, Control_c, 5, 11, 104
8, 77219, Control_c, 5, 11, 105
8, 77222, Control_c, 5, 11, 106
8, 77225, Control_c, 5, 11, 107
8, 77227, Control_c, 5, 11, 108
8, 77230, Control_c, 5, 11, 109
8, 77233, Control_c, 5, 11, 110
8, 77236, Control_c, 5, 11, 111
8, 77238, Control_c, 5, 11, 112
8, 77241, Control_c, 5, 11, 113
8, 77244, Control_c, 5, 11, 114
8, 77247, Control_c, 5, 11, 115
8, 77249, Control_c, 5, 11, 116
8, 77252, Control_c, 5, 11, 117
8, 77255, Control_c, 5, 11, 118
8, 77258, Control_c, 5, 11, 119
8, 77260, Control_c, 5, 11, 120
8, 77263, Control_c, 5, 11, 121
8, 77266, Control_c, 5, 11, 122
8, 77269, Control_c, 5, 11, 123
8, 77271, Control_c, 5, 11, 124
8, 77274, Control_c, 5, 11, 125
8, 77277, Control_c, 5, 11, 126
8, 77280, Note_on_c, 5, 53, 0
8, 77280, Note_on_c, 5, 57, 0
8, 77280, Note_on_c, 5, 63, 0
8, 77280, Note_on_c, 5, 58, 90
8, 77280, Control_c, 5, 11, 127
8, 77280, Note_on_c, 5, 55, 89
8, 77280, Note_on_c, 5, 64, 87
8, 77440, Note_on_c, 5, 58, 0
8, 77440, Note_on_c, 5, 55, 0
8, 77440, Note_on_c, 5, 64, 0
8, 77472, Note_on_c, 5, 58, 97
8, 77472, Control_c, 5, 11, 92
8, 77472, Note_on_c, 5, 61, 90
8, 77664, Note_on_c, 5, 67, 97
8, 77760, Control_c, 5, 11, 92
8, 77762, Control_c, 5, 11, 93
8, 77765, Control_c, 5, 11, 94
8, 77768, Control_c, 5, 11, 95
8, 77770, Control_c, 5, 11, 96
8, 77773, Control_c, 5, 11, 97
8, 77776, Control_c, 5, 11, 98
8, 77779, Control_c, 5, 11, 99
8, 77781, Control_c, 5, 11, 100
8, 77784, Control_c, 5, 11, 101
8, 77787, Control_c, 5, 11, 102
8, 77790, Control_c, 5, 11, 103
8, 77792, Control_c, 5, 11, 104
8, 77795, Control_c, 5, 11, 105
8, 77798, Control_c, 5, 11, 106
8, 77801, Control_c, 5, 11, 107
8, 77803, Control_c, 5, 11, 108
8, 77806, Control_c, 5, 11, 109
8, 77809, Control_c, 5, 11, 110
8, 77812, Control_c, 5, 11, 111
8, 77814, Control_c, 5, 11, 112
8, 77817, Control_c, 5, 11, 113
8, 77820, Control_c, 5, 11, 114
8, 77823, Control_c, 5, 11, 115
8, 77825, Control_c, 5, 11, 116
8, 77828, Control_c, 5, 11, 117
8, 77831, Control_c, 5, 11, 118
8, 77832, Note_on_c, 5, 67, 0
8, 77832, Note_on_c, 5, 70, 95
8, 77834, Control_c, 5, 11, 119
8, 77836, Control_c, 5, 11, 120
8, 77839, Control_c, 5, 11, 121
8, 77842, Control_c, 5, 11, 122
8, 77845, Control_c, 5, 11, 123
8, 77847, Control_c, 5, 11, 124
8, 77850, Control_c, 5, 11, 125
8, 77853, Control_c, 5, 11, 126
8, 77854, Note_on_c, 5, 61, 0
8, 77856, Note_on_c, 5, 58, 0
8, 77856, Note_on_c, 5, 70, 0
8, 77856, Control_c, 5, 11, 127
8, 77856, Note_on_c, 5, 60, 97
8, 77856, Note_on_c, 5, 69, 90
8, 77856, Note_on_c, 5, 62, 96
8, 77950, Note_on_c, 5, 69, 0
8, 78016, Note_on_c, 5, 60, 0
8, 78016, Note_on_c, 5, 62, 0
8, 78048, Note_on_c, 5, 61, 91
8, 78048, Note_on_c, 5, 58, 89
8, 78240, Note_on_c, 5, 66, 88
8, 78408, Note_on_c, 5, 66, 0
8, 78408, Note_on_c, 5, 70, 94
8, 78430, Note_on_c, 5, 61, 0
8, 78432, Note_on_c, 5, 58, 0
8, 78432, Note_on_c, 5, 70, 0
8, 78432, Note_on_c, 5, 62, 88
8, 78432, Note_on_c, 5, 60, 89
8, 78432, Note_on_c, 5, 69, 89
8, 78526, Note_on_c, 5, 69, 0
8, 78592, Note_on_c, 5, 62, 0
8, 78592, Note_on_c, 5, 60, 0
8, 78624, Note_on_c, 5, 58, 89
8, 78624, Note_on_c, 5, 58, 95
8, 78624, Note_on_c, 5, 50, 90
8, 78624, Note_on_c, 5, 53, 87
8, 78670, Note_on_c, 5, 58, 0
8, 78670, Note_on_c, 5, 58, 0
8, 78670, Note_on_c, 5, 50, 0
8, 78670, Note_on_c, 5, 53, 0
8, 78672, Note_on_c, 5, 52, 96
8, 78672, Note_on_c, 5, 58, 89
8, 78672, Note_on_c, 5, 60, 96
8, 78672, Note_on_c, 5, 60, 88
8, 78880, Note_on_c, 5, 52, 0
8, 78880, Note_on_c, 5, 58, 0
8, 78880, Note_on_c, 5, 60, 0
8, 78880, Note_on_c, 5, 60, 0
8, 78912, Control_c, 5, 11, 92
8, 78912, Note_on_c, 5, 60, 125
8, 78912, Note_on_c, 5, 52, 123
8, 78912, Note_on_c, 5, 58, 125
8, 78912, Note_on_c, 5, 67, 127
8, 78928, Control_c, 5, 11, 93
8, 78944, Control_c, 5, 11, 94
8, 78961, Control_c, 5, 11, 95
8, 78977, Control_c, 5, 11, 96
8, 78994, Control_c, 5, 11, 97
8, 79010, Control_c, 5, 11, 98
8, 79027, Control_c, 5, 11, 99
8, 79043, Control_c, 5, 11, 100
8, 79060, Control_c, 5, 11, 101
8, 79076, Control_c, 5, 11, 102
8, 79093, Control_c, 5, 11, 103
8, 79109, Control_c, 5, 11, 104
8, 79125, Control_c, 5, 11, 105
8, 79142, Control_c, 5, 11, 106
8, 79158, Control_c, 5, 11, 107
8, 79175, Control_c, 5, 11, 108
8, 79191, Control_c, 5, 11, 109
8, 79208, Control_c, 5, 11, 110
8, 79224, Control_c, 5, 11, 111
8, 79241, Control_c, 5, 11, 112
8, 79257, Control_c, 5, 11, 113
8, 79274, Control_c, 5, 11, 114
8, 79290, Control_c, 5, 11, 115
8, 79306, Control_c, 5, 11, 116
8, 79323, Control_c, 5, 11, 117
8, 79339, Control_c, 5, 11, 118
8, 79356, Control_c, 5, 11, 119
8, 79372, Control_c, 5, 11, 120
8, 79389, Control_c, 5, 11, 121
8, 79405, Control_c, 5, 11, 122
8, 79422, Control_c, 5, 11, 123
8, 79438, Control_c, 5, 11, 124
8, 79440, Note_on_c, 5, 60, 0
8, 79440, Note_on_c, 5, 52, 0
8, 79440, Note_on_c, 5, 58, 0
8, 79440, Note_on_c, 5, 67, 0
8, 79455, Control_c, 5, 11, 125
8, 79471, Control_c, 5, 11, 126
8, 79488, Control_c, 5, 11, 127
8, 79488, Note_on_c, 5, 65, 122
8, 79488, Note_on_c, 5, 70, 127
8, 79488, Note_on_c, 5, 62, 127
8, 79488, Note_on_c, 5, 67, 126
8, 79582, Note_on_c, 5, 65, 0
8, 79582, Note_on_c, 5, 70, 0
8, 79582, Note_on_c, 5, 62, 0
8, 79582, Note_on_c, 5, 67, 0
8, 79584, Note_on_c, 5, 60, 126
8, 79584, Note_on_c, 5, 64, 127
8, 79584, Note_on_c, 5, 72, 127
8, 79584, Note_on_c, 5, 69, 127
8, 79726, Note_on_c, 5, 60, 0
8, 79726, Note_on_c, 5, 64, 0
8, 79726, Note_on_c, 5, 72, 0
8, 79726, Note_on_c, 5, 69, 0
8, 79728, Note_on_c, 5, 60, 126
8, 79728, Note_on_c, 5, 58, 124
8, 79728, Note_on_c, 5, 64, 127
8, 79728, Note_on_c, 5, 67, 127
8, 79774, Note_on_c, 5, 60, 0
8, 79774, Note_on_c, 5, 58, 0
8, 79774, Note_on_c, 5, 64, 0
8, 79774, Note_on_c, 5, 67, 0
8, 79776, Control_c, 5, 11, 127
8, 79776, Note_on_c, 5, 62, 127
8, 79776, Control_c, 5, 11, 127
8, 79776, Note_on_c, 5, 55, 125
8, 79776, Note_on_c, 5, 65, 127
8, 79776, Note_on_c, 5, 70, 122
8, 79794, Control_c, 5, 11, 126
8, 79794, Control_c, 5, 11, 126
8, 79812, Control_c, 5, 11, 125
8, 79812, Control_c, 5, 11, 125
8, 79830, Control_c, 5, 11, 124
8, 79830, Control_c, 5, 11, 124
8, 79849, Control_c, 5, 11, 123
8, 79849, Control_c, 5, 11, 123
8, 79867, Control_c, 5, 11, 122
8, 79867, Control_c, 5, 11, 122
8, 79885, Control_c, 5, 11, 121
8, 79885, Control_c, 5, 11, 121
8, 79904, Control_c, 5, 11, 120
8, 79904, Control_c, 5, 11, 120
8, 79918, Note_on_c, 5, 62, 0
8, 79918, Note_on_c, 5, 55, 0
8, 79918, Note_on_c, 5, 65, 0
8, 79918, Note_on_c, 5, 70, 0
8, 79920, Note_on_c, 5, 58, 127
8, 79920, Note_on_c, 5, 60, 127
8, 79920, Note_on_c, 5, 67, 122
8, 79920, Note_on_c, 5, 64, 127
8, 79922, Control_c, 5, 11, 119
8, 79922, Control_c, 5, 11, 119
8, 79940, Control_c, 5, 11, 118
8, 79940, Control_c, 5, 11, 118
8, 79958, Control_c, 5, 11, 117
8, 79958, Control_c, 5, 11, 117
8, 79977, Control_c, 5, 11, 116
8, 79977, Control_c, 5, 11, 116
8, 79995, Control_c, 5, 11, 115
8, 79995, Control_c, 5, 11, 115
8, 80013, Control_c, 5, 11, 114
8, 80013, Control_c, 5, 11, 114
8, 80032, Control_c, 5, 11, 113
8, 80032, Control_c, 5, 11, 113
8, 80050, Control_c, 5, 11, 112
8, 80050, Control_c, 5, 11, 112
8, 80068, Control_c, 5, 11, 111
8, 80068, Control_c, 5, 11, 111
8, 80086, Control_c, 5, 11, 110
8, 80086, Control_c, 5, 11, 110
8, 80105, Control_c, 5, 11, 109
8, 80105, Control_c, 5, 11, 109
8, 80123, Control_c, 5, 11, 108
8, 80123, Control_c, 5, 11, 108
8, 80141, Control_c, 5, 11, 107
8, 80141, Control_c, 5, 11, 107
8, 80160, Control_c, 5, 11, 106
8, 80160, Control_c, 5, 11, 106
8, 80178, Control_c, 5, 11, 105
8, 80178, Control_c, 5, 11, 105
8, 80196, Control_c, 5, 11, 104
8, 80196, Control_c, 5, 11, 104
8, 80214, Control_c, 5, 11, 103
8, 80214, Control_c, 5, 11, 103
8, 80233, Control_c, 5, 11, 102
8, 80233, Control_c, 5, 11, 102
8, 80251, Control_c, 5, 11, 101
8, 80251, Control_c, 5, 11, 101
8, 80269, Control_c, 5, 11, 100
8, 80269, Control_c, 5, 11, 100
8, 80288, Control_c, 5, 11, 99
8, 80288, Control_c, 5, 11, 99
8, 80306, Control_c, 5, 11, 98
8, 80306, Control_c, 5, 11, 98
8, 80324, Control_c, 5, 11, 97
8, 80324, Control_c, 5, 11, 97
8, 80342, Control_c, 5, 11, 96
8, 80342, Control_c, 5, 11, 96
8, 80361, Control_c, 5, 11, 95
8, 80361, Control_c, 5, 11, 95
8, 80379, Control_c, 5, 11, 94
8, 80379, Control_c, 5, 11, 94
8, 80397, Control_c, 5, 11, 93
8, 80397, Control_c, 5, 11, 93
8, 80416, Control_c, 5, 11, 92
8, 80416, Control_c, 5, 11, 92
8, 80434, Control_c, 5, 11, 91
8, 80434, Control_c, 5, 11, 91
8, 80452, Control_c, 5, 11, 90
8, 80452, Control_c, 5, 11, 90
8, 80470, Control_c, 5, 11, 89
8, 80470, Control_c, 5, 11, 89
8, 80489, Control_c, 5, 11, 88
8, 80489, Control_c, 5, 11, 88
8, 80507, Control_c, 5, 11, 87
8, 80507, Control_c, 5, 11, 87
8, 80525, Control_c, 5, 11, 86
8, 80525, Control_c, 5, 11, 86
8, 80544, Control_c, 5, 11, 85
8, 80544, Control_c, 5, 11, 85
8, 80562, Control_c, 5, 11, 84
8, 80562, Control_c, 5, 11, 84
8, 80580, Control_c, 5, 11, 83
8, 80580, Control_c, 5, 11, 83
8, 80598, Control_c, 5, 11, 82
8, 80598, Control_c, 5, 11, 82
8, 80617, Control_c, 5, 11, 81
8, 80617, Control_c, 5, 11, 81
8, 80635, Control_c, 5, 11, 80
8, 80635, Control_c, 5, 11, 80
8, 80653, Control_c, 5, 11, 79
8, 80653, Control_c, 5, 11, 79
8, 80672, Control_c, 5, 11, 78
8, 80672, Control_c, 5, 11, 78
8, 80690, Control_c, 5, 11, 77
8, 80690, Control_c, 5, 11, 77
8, 80708, Control_c, 5, 11, 76
8, 80708, Control_c, 5, 11, 76
8, 80726, Control_c, 5, 11, 75
8, 80726, Control_c, 5, 11, 75
8, 80745, Control_c, 5, 11, 74
8, 80745, Control_c, 5, 11, 74
8, 80763, Control_c, 5, 11, 73
8, 80763, Control_c, 5, 11, 73
8, 80781, Control_c, 5, 11, 72
8, 80781, Control_c, 5, 11, 72
8, 80800, Control_c, 5, 11, 71
8, 80800, Control_c, 5, 11, 71
8, 80818, Control_c, 5, 11, 70
8, 80818, Control_c, 5, 11, 70
8, 80836, Control_c, 5, 11, 69
8, 80836, Control_c, 5, 11, 69
8, 80854, Control_c, 5, 11, 68
8, 80854, Control_c, 5, 11, 68
8, 80873, Control_c, 5, 11, 67
8, 80873, Control_c, 5, 11, 67
8, 80891, Control_c, 5, 11, 66
8, 80891, Control_c, 5, 11, 66
8, 80896, Note_on_c, 5, 58, 0
8, 80896, Note_on_c, 5, 60, 0
8, 80896, Note_on_c, 5, 67, 0
8, 80896, Note_on_c, 5, 64, 0
8, 80909, Control_c, 5, 11, 65
8, 80909, Control_c, 5, 11, 65
8, 80928, Control_c, 5, 11, 127
8, 80928, Control_c, 5, 11, 64
8, 80928, Control_c, 5, 11, 64
8, 80928, Note_on_c, 5, 50, 87
8, 80928, Note_on_c, 5, 57, 95
8, 80928, Note_on_c, 5, 58, 97
8, 80928, Note_on_c, 5, 53, 93
8, 80974, Note_on_c, 5, 50, 0
8, 80974, Note_on_c, 5, 57, 0
8, 80974, Note_on_c, 5, 58, 0
8, 80974, Note_on_c, 5, 53, 0
8, 80976, Note_on_c, 5, 55, 92
8, 80976, Note_on_c, 5, 52, 93
8, 80976, Note_on_c, 5, 58, 88
8, 80976, Note_on_c, 5, 60, 88
8, 81184, Note_on_c, 5, 55, 0
8, 81184, Note_on_c, 5, 52, 0
8, 81184, Note_on_c, 5, 58, 0
8, 81184, Note_on_c, 5, 60, 0
8, 81216, Control_c, 5, 11, 127
8, 81216, Note_on_c, 5, 60, 89
8, 81216, Note_on_c, 5, 67, 93
8, 81216, Note_on_c, 5, 58, 95
8, 81248, Control_c, 5, 11, 126
8, 81280, Control_c, 5, 11, 125
8, 81312, Control_c, 5, 11, 124
8, 81344, Control_c, 5, 11, 123
8, 81376, Control_c, 5, 11, 122
8, 81408, Control_c, 5, 11, 121
8, 81440, Control_c, 5, 11, 120
8, 81472, Control_c, 5, 11, 119
8, 81504, Control_c, 5, 11, 118
8, 81536, Control_c, 5, 11, 117
8, 81568, Control_c, 5, 11, 116
8, 81600, Control_c, 5, 11, 115
8, 81632, Control_c, 5, 11, 114
8, 81664, Control_c, 5, 11, 113
8, 81696, Control_c, 5, 11, 112
8, 81728, Control_c, 5, 11, 111
8, 81760, Control_c, 5, 11, 110
8, 81792, Control_c, 5, 11, 109
8, 81824, Control_c, 5, 11, 108
8, 81856, Control_c, 5, 11, 107
8, 81888, Control_c, 5, 11, 106
8, 81920, Control_c, 5, 11, 105
8, 81952, Control_c, 5, 11, 104
8, 81984, Control_c, 5, 11, 103
8, 82016, Control_c, 5, 11, 102
8, 82048, Note_on_c, 5, 60, 0
8, 82048, Note_on_c, 5, 67, 0
8, 82048, Note_on_c, 5, 58, 0
8, 82048, Control_c, 5, 11, 101
8, 82080, Note_on_c, 5, 50, 87
8, 82080, Control_c, 5, 11, 100
8, 82080, Note_on_c, 5, 53, 95
8, 82112, Control_c, 5, 11, 99
8, 82126, Note_on_c, 5, 50, 0
8, 82126, Note_on_c, 5, 53, 0
8, 82128, Note_on_c, 5, 55, 88
8, 82128, Note_on_c, 5, 52, 92
8, 82144, Control_c, 5, 11, 98
8, 82176, Control_c, 5, 11, 97
8, 82208, Control_c, 5, 11, 96
8, 82240, Control_c, 5, 11, 95
8, 82272, Control_c, 5, 11, 94
8, 82304, Control_c, 5, 11, 93
8, 82336, Note_on_c, 5, 55, 0
8, 82336, Note_on_c, 5, 52, 0
8, 82336, Control_c, 5, 11, 92
8, 82368, Control_c, 5, 11, 91
8, 82368, Note_on_c, 5, 60, 94
8, 82368, Note_on_c, 5, 58, 91
8, 82368, Note_on_c, 5, 67, 96
8, 82400, Control_c, 5, 11, 90
8, 82432, Control_c, 5, 11, 89
8, 82464, Control_c, 5, 11, 88
8, 82496, Control_c, 5, 11, 87
8, 82528, Control_c, 5, 11, 86
8, 82560, Control_c, 5, 11, 85
8, 82592, Control_c, 5, 11, 84
8, 82624, Control_c, 5, 11, 83
8, 82656, Control_c, 5, 11, 82
8, 82688, Control_c, 5, 11, 81
8, 82720, Control_c, 5, 11, 80
8, 82752, Control_c, 5, 11, 79
8, 82784, Control_c, 5, 11, 78
8, 82816, Control_c, 5, 11, 77
8, 82848, Control_c, 5, 11, 76
8, 82880, Control_c, 5, 11, 75
8, 82912, Control_c, 5, 11, 74
8, 82944, Control_c, 5, 11, 73
8, 82976, Control_c, 5, 11, 72
8, 83008, Control_c, 5, 11, 71
8, 83040, Control_c, 5, 11, 70
8, 83072, Control_c, 5, 11, 69
8, 83104, Control_c, 5, 11, 68
8, 83136, Control_c, 5, 11, 67
8, 83168, Control_c, 5, 11, 66
8, 83200, Note_on_c, 5, 60, 0
8, 83200, Note_on_c, 5, 58, 0
8, 83200, Note_on_c, 5, 67, 0
8, 83200, Control_c, 5, 11, 65
8, 83232, Control_c, 5, 11, 64
8, 83232, Control_c, 5, 11, 127
8, 83376, Note_on_c, 5, 54, 49
8, 83376, Note_on_c, 5, 63, 40
8, 83376, Note_on_c, 5, 66, 48
8, 83518, Note_on_c, 5, 54, 0
8, 83518, Note_on_c, 5, 63, 0
8, 83518, Note_on_c, 5, 66, 0
8, 83520, Note_on_c, 5, 56, 42
8, 83520, Note_on_c, 5, 68, 41
8, 83520, Note_on_c, 5, 61, 49
8, 83662, Note_on_c, 5, 56, 0
8, 83662, Note_on_c, 5, 68, 0
8, 83662, Note_on_c, 5, 61, 0
8, 83664, Note_on_c, 5, 66, 44
8, 83664, Note_on_c, 5, 54, 42
8, 83664, Note_on_c, 5, 63, 42
8, 83808, Control_c, 5, 11, 127
8, 83816, Control_c, 5, 11, 126
8, 83824, Control_c, 5, 11, 125
8, 83832, Control_c, 5, 11, 124
8, 83840, Control_c, 5, 11, 123
8, 83849, Control_c, 5, 11, 122
8, 83857, Control_c, 5, 11, 121
8, 83865, Control_c, 5, 11, 120
8, 83873, Control_c, 5, 11, 119
8, 83882, Control_c, 5, 11, 118
8, 83890, Control_c, 5, 11, 117
8, 83898, Control_c, 5, 11, 116
8, 83906, Control_c, 5, 11, 115
8, 83914, Control_c, 5, 11, 114
8, 83923, Control_c, 5, 11, 113
8, 83931, Control_c, 5, 11, 112
8, 83939, Control_c, 5, 11, 111
8, 83947, Control_c, 5, 11, 110
8, 83956, Control_c, 5, 11, 109
8, 83964, Control_c, 5, 11, 108
8, 83972, Control_c, 5, 11, 107
8, 83980, Control_c, 5, 11, 106
8, 83989, Control_c, 5, 11, 105
8, 83997, Control_c, 5, 11, 104
8, 84005, Control_c, 5, 11, 103
8, 84013, Control_c, 5, 11, 102
8, 84021, Control_c, 5, 11, 101
8, 84030, Control_c, 5, 11, 100
8, 84038, Control_c, 5, 11, 99
8, 84046, Control_c, 5, 11, 98
8, 84054, Control_c, 5, 11, 97
8, 84063, Control_c, 5, 11, 96
8, 84064, Note_on_c, 5, 66, 0
8, 84064, Note_on_c, 5, 54, 0
8, 84064, Note_on_c, 5, 63, 0
8, 84071, Control_c, 5, 11, 95
8, 84079, Control_c, 5, 11, 94
8, 84087, Control_c, 5, 11, 93
8, 84096, Control_c, 5, 11, 92
8, 84096, Note_on_c, 5, 61, 50
8, 84096, Note_on_c, 5, 69, 47
8, 84096, Note_on_c, 5, 57, 43
8, 84166, Note_on_c, 5, 61, 0
8, 84166, Note_on_c, 5, 69, 0
8, 84166, Note_on_c, 5, 57, 0
8, 84168, Note_on_c, 5, 56, 41
8, 84168, Note_on_c, 5, 63, 44
8, 84168, Note_on_c, 5, 68, 43
8, 84352, Note_on_c, 5, 56, 0
8, 84352, Note_on_c, 5, 63, 0
8, 84352, Note_on_c, 5, 68, 0
8, 84672, Note_on_c, 5, 50, 43
8, 84672, Control_c, 5, 11, 127
8, 84672, Note_on_c, 5, 62, 41
8, 84680, Control_c, 5, 11, 126
8, 84688, Control_c, 5, 11, 125
8, 84696, Control_c, 5, 11, 124
8, 84704, Control_c, 5, 11, 123
8, 84713, Control_c, 5, 11, 122
8, 84721, Control_c, 5, 11, 121
8, 84729, Control_c, 5, 11, 120
8, 84737, Control_c, 5, 11, 119
8, 84746, Control_c, 5, 11, 118
8, 84754, Control_c, 5, 11, 117
8, 84762, Control_c, 5, 11, 116
8, 84770, Control_c, 5, 11, 115
8, 84778, Control_c, 5, 11, 114
8, 84787, Control_c, 5, 11, 113
8, 84795, Control_c, 5, 11, 112
8, 84803, Control_c, 5, 11, 111
8, 84811, Control_c, 5, 11, 110
8, 84820, Control_c, 5, 11, 109
8, 84828, Control_c, 5, 11, 108
8, 84836, Control_c, 5, 11, 107
8, 84844, Control_c, 5, 11, 106
8, 84853, Control_c, 5, 11, 105
8, 84861, Control_c, 5, 11, 104
8, 84869, Control_c, 5, 11, 103
8, 84877, Control_c, 5, 11, 102
8, 84885, Control_c, 5, 11, 101
8, 84894, Control_c, 5, 11, 100
8, 84902, Control_c, 5, 11, 99
8, 84910, Control_c, 5, 11, 98
8, 84918, Control_c, 5, 11, 97
8, 84927, Control_c, 5, 11, 96
8, 84928, Note_on_c, 5, 50, 0
8, 84928, Note_on_c, 5, 62, 0
8, 84935, Control_c, 5, 11, 95
8, 84943, Control_c, 5, 11, 94
8, 84951, Control_c, 5, 11, 93
8, 84960, Control_c, 5, 11, 92
8, 85104, Control_c, 5, 11, 127
8, 85104, Note_on_c, 5, 62, 50
8, 85112, Control_c, 5, 11, 126
8, 85120, Control_c, 5, 11, 125
8, 85128, Control_c, 5, 11, 124
8, 85136, Control_c, 5, 11, 123
8, 85145, Control_c, 5, 11, 122
8, 85153, Control_c, 5, 11, 121
8, 85161, Control_c, 5, 11, 120
8, 85169, Control_c, 5, 11, 119
8, 85178, Control_c, 5, 11, 118
8, 85186, Control_c, 5, 11, 117
8, 85194, Control_c, 5, 11, 116
8, 85202, Control_c, 5, 11, 115
8, 85210, Control_c, 5, 11, 114
8, 85219, Control_c, 5, 11, 113
8, 85227, Control_c, 5, 11, 112
8, 85235, Control_c, 5, 11, 111
8, 85243, Control_c, 5, 11, 110
8, 85246, Note_on_c, 5, 62, 0
8, 85248, Note_on_c, 5, 64, 45
8, 85252, Control_c, 5, 11, 109
8, 85260, Control_c, 5, 11, 108
8, 85268, Control_c, 5, 11, 107
8, 85276, Control_c, 5, 11, 106
8, 85285, Control_c, 5, 11, 105
8, 85293, Control_c, 5, 11, 104
8, 85301, Control_c, 5, 11, 103
8, 85309, Control_c, 5, 11, 102
8, 85317, Control_c, 5, 11, 101
8, 85326, Control_c, 5, 11, 100
8, 85334, Control_c, 5, 11, 99
8, 85342, Control_c, 5, 11, 98
8, 85350, Control_c, 5, 11, 97
8, 85359, Control_c, 5, 11, 96
8, 85367, Control_c, 5, 11, 95
8, 85375, Control_c, 5, 11, 94
8, 85383, Control_c, 5, 11, 93
8, 85390, Note_on_c, 5, 64, 0
8, 85392, Control_c, 5, 11, 92
8, 85392, Note_on_c, 5, 62, 42
8, 85534, Note_on_c, 5, 62, 0
8, 85680, Note_on_c, 5, 62, 36
8, 85680, Control_c, 5, 11, 127
8, 85688, Control_c, 5, 11, 126
8, 85696, Control_c, 5, 11, 125
8, 85704, Control_c, 5, 11, 124
8, 85712, Control_c, 5, 11, 123
8, 85721, Control_c, 5, 11, 122
8, 85729, Control_c, 5, 11, 121
8, 85737, Control_c, 5, 11, 120
8, 85745, Control_c, 5, 11, 119
8, 85754, Control_c, 5, 11, 118
8, 85762, Control_c, 5, 11, 117
8, 85770, Control_c, 5, 11, 116
8, 85778, Control_c, 5, 11, 115
8, 85786, Control_c, 5, 11, 114
8, 85795, Control_c, 5, 11, 113
8, 85803, Control_c, 5, 11, 112
8, 85811, Control_c, 5, 11, 111
8, 85819, Control_c, 5, 11, 110
8, 85822, Note_on_c, 5, 62, 0
8, 85824, Note_on_c, 5, 64, 35
8, 85828, Control_c, 5, 11, 109
8, 85836, Control_c, 5, 11, 108
8, 85844, Control_c, 5, 11, 107
8, 85852, Control_c, 5, 11, 106
8, 85861, Control_c, 5, 11, 105
8, 85869, Control_c, 5, 11, 104
8, 85877, Control_c, 5, 11, 103
8, 85885, Control_c, 5, 11, 102
8, 85893, Control_c, 5, 11, 101
8, 85902, Control_c, 5, 11, 100
8, 85910, Control_c, 5, 11, 99
8, 85918, Control_c, 5, 11, 98
8, 85926, Control_c, 5, 11, 97
8, 85935, Control_c, 5, 11, 96
8, 85943, Control_c, 5, 11, 95
8, 85951, Control_c, 5, 11, 94
8, 85959, Control_c, 5, 11, 93
8, 85966, Note_on_c, 5, 64, 0
8, 85968, Control_c, 5, 11, 92
8, 85968, Note_on_c, 5, 62, 33
8, 86110, Note_on_c, 5, 62, 0
8, 90720, Note_on_c, 5, 60, 41
8, 90720, Note_on_c, 5, 48, 49
8, 90862, Note_on_c, 5, 60, 0
8, 90862, Note_on_c, 5, 48, 0
8, 90864, Note_on_c, 5, 62, 46
8, 90864, Note_on_c, 5, 50, 50
8, 91008, Note_on_c, 5, 54, 26
8, 91008, Control_c, 5, 11, 127
8, 91008, Note_on_c, 5, 66, 28
8, 91013, Control_c, 5, 11, 126
8, 91018, Control_c, 5, 11, 125
8, 91024, Control_c, 5, 11, 124
8, 91029, Control_c, 5, 11, 123
8, 91035, Control_c, 5, 11, 122
8, 91040, Control_c, 5, 11, 121
8, 91046, Control_c, 5, 11, 120
8, 91051, Control_c, 5, 11, 119
8, 91057, Control_c, 5, 11, 118
8, 91062, Control_c, 5, 11, 117
8, 91068, Control_c, 5, 11, 116
8, 91073, Control_c, 5, 11, 115
8, 91079, Control_c, 5, 11, 114
8, 91084, Control_c, 5, 11, 113
8, 91090, Control_c, 5, 11, 112
8, 91095, Control_c, 5, 11, 111
8, 91101, Control_c, 5, 11, 110
8, 91106, Control_c, 5, 11, 109
8, 91112, Control_c, 5, 11, 108
8, 91117, Control_c, 5, 11, 107
8, 91123, Control_c, 5, 11, 106
8, 91128, Control_c, 5, 11, 105
8, 91134, Control_c, 5, 11, 104
8, 91139, Control_c, 5, 11, 103
8, 91145, Control_c, 5, 11, 102
8, 91150, Note_on_c, 5, 54, 0
8, 91150, Note_on_c, 5, 66, 0
8, 91150, Control_c, 5, 11, 101
8, 91152, Note_on_c, 5, 68, 34
8, 91152, Note_on_c, 5, 56, 28
8, 91156, Control_c, 5, 11, 100
8, 91161, Control_c, 5, 11, 99
8, 91167, Control_c, 5, 11, 98
8, 91172, Control_c, 5, 11, 97
8, 91178, Control_c, 5, 11, 96
8, 91183, Control_c, 5, 11, 95
8, 91189, Control_c, 5, 11, 94
8, 91194, Control_c, 5, 11, 93
8, 91200, Control_c, 5, 11, 92
8, 91824, Note_on_c, 5, 62, 0
8, 91824, Note_on_c, 5, 50, 0
8, 91824, Note_on_c, 5, 68, 0
8, 91824, Note_on_c, 5, 56, 0
8, 93024, Note_on_c, 5, 48, 47
8, 93024, Note_on_c, 5, 60, 41
8, 93166, Note_on_c, 5, 48, 0
8, 93166, Note_on_c, 5, 60, 0
8, 93168, Note_on_c, 5, 62, 45
8, 93168, Note_on_c, 5, 50, 46
8, 93312, Control_c, 5, 11, 127
8, 93312, Note_on_c, 5, 66, 29
8, 93312, Note_on_c, 5, 54, 28
8, 93317, Control_c, 5, 11, 126
8, 93322, Control_c, 5, 11, 125
8, 93328, Control_c, 5, 11, 124
8, 93333, Control_c, 5, 11, 123
8, 93339, Control_c, 5, 11, 122
8, 93344, Control_c, 5, 11, 121
8, 93350, Control_c, 5, 11, 120
8, 93355, Control_c, 5, 11, 119
8, 93361, Control_c, 5, 11, 118
8, 93366, Control_c, 5, 11, 117
8, 93372, Control_c, 5, 11, 116
8, 93377, Control_c, 5, 11, 115
8, 93383, Control_c, 5, 11, 114
8, 93388, Control_c, 5, 11, 113
8, 93394, Control_c, 5, 11, 112
8, 93399, Control_c, 5, 11, 111
8, 93405, Control_c, 5, 11, 110
8, 93410, Control_c, 5, 11, 109
8, 93416, Control_c, 5, 11, 108
8, 93421, Control_c, 5, 11, 107
8, 93427, Control_c, 5, 11, 106
8, 93432, Control_c, 5, 11, 105
8, 93438, Control_c, 5, 11, 104
8, 93443, Control_c, 5, 11, 103
8, 93449, Control_c, 5, 11, 102
8, 93454, Note_on_c, 5, 66, 0
8, 93454, Note_on_c, 5, 54, 0
8, 93454, Control_c, 5, 11, 101
8, 93456, Note_on_c, 5, 68, 33
8, 93456, Note_on_c, 5, 56, 27
8, 93460, Control_c, 5, 11, 100
8, 93465, Control_c, 5, 11, 99
8, 93471, Control_c, 5, 11, 98
8, 93476, Control_c, 5, 11, 97
8, 93482, Control_c, 5, 11, 96
8, 93487, Control_c, 5, 11, 95
8, 93493, Control_c, 5, 11, 94
8, 93498, Control_c, 5, 11, 93
8, 93504, Control_c, 5, 11, 92
8, 94128, Note_on_c, 5, 62, 0
8, 94128, Note_on_c, 5, 50, 0
8, 94128, Note_on_c, 5, 68, 0
8, 94128, Note_on_c, 5, 56, 0
8, 94176, Control_c, 5, 11, 127
8, 94752, Note_on_c, 5, 67, 47
8, 94848, Note_on_c, 5, 67, 0
8, 94848, Note_on_c, 5, 69, 42
8, 94944, Note_on_c, 5, 69, 0
8, 94944, Note_on_c, 5, 72, 44
8, 95072, Note_on_c, 5, 72, 0
8, 95072, Note_on_c, 5, 70, 50
8, 95200, Note_on_c, 5, 70, 0
8, 95200, Note_on_c, 5, 69, 43
8, 95328, Note_on_c, 5, 69, 0
8, 95328, Note_on_c, 5, 67, 50
8, 95488, Note_on_c, 5, 67, 0
8, 108000, Note_on_c, 5, 66, 25
8, 108000, Note_on_c, 5, 58, 34
8, 108000, Note_on_c, 5, 61, 26
8, 108000, Control_c, 5, 11, 127
8, 108000, Control_c, 5, 11, 127
8, 108062, Note_on_c, 5, 66, 0
8, 108062, Note_on_c, 5, 58, 0
8, 108062, Note_on_c, 5, 61, 0
8, 108064, Note_on_c, 5, 66, 26
8, 108064, Note_on_c, 5, 61, 27
8, 108064, Note_on_c, 5, 58, 25
8, 108126, Note_on_c, 5, 66, 0
8, 108126, Note_on_c, 5, 61, 0
8, 108126, Note_on_c, 5, 58, 0
8, 108128, Note_on_c, 5, 61, 31
8, 108128, Note_on_c, 5, 58, 26
8, 108128, Note_on_c, 5, 66, 35
8, 108190, Note_on_c, 5, 61, 0
8, 108190, Note_on_c, 5, 58, 0
8, 108190, Note_on_c, 5, 66, 0
8, 108192, Note_on_c, 5, 58, 31
8, 108192, Note_on_c, 5, 61, 35
8, 108192, Note_on_c, 5, 66, 29
8, 108286, Note_on_c, 5, 58, 0
8, 108286, Note_on_c, 5, 61, 0
8, 108286, Note_on_c, 5, 66, 0
8, 108288, Note_on_c, 5, 54, 34
8, 108288, Note_on_c, 5, 61, 26
8, 108288, Note_on_c, 5, 57, 30
8, 108544, Note_on_c, 5, 54, 0
8, 108544, Note_on_c, 5, 61, 0
8, 108544, Note_on_c, 5, 57, 0
8, 108576, Note_on_c, 5, 61, 27
8, 108576, Note_on_c, 5, 58, 34
8, 108576, Note_on_c, 5, 66, 29
8, 108768, Note_on_c, 5, 61, 0
8, 108768, Note_on_c, 5, 58, 0
8, 108768, Note_on_c, 5, 66, 0
8, 108768, Note_on_c, 5, 57, 46
8, 108768, Control_c, 5, 11, 75
8, 108768, Note_on_c, 5, 62, 42
8, 108768, Note_on_c, 5, 66, 50
8, 108768, Note_on_c, 5, 69, 50
8, 108775, Control_c, 5, 11, 76
8, 108782, Control_c, 5, 11, 77
8, 108790, Control_c, 5, 11, 78
8, 108797, Control_c, 5, 11, 79
8, 108804, Control_c, 5, 11, 80
8, 108812, Control_c, 5, 11, 81
8, 108819, Control_c, 5, 11, 82
8, 108827, Control_c, 5, 11, 83
8, 108834, Control_c, 5, 11, 84
8, 108841, Control_c, 5, 11, 85
8, 108849, Control_c, 5, 11, 86
8, 108856, Control_c, 5, 11, 87
8, 108864, Control_c, 5, 11, 88
8, 108871, Control_c, 5, 11, 89
8, 108878, Control_c, 5, 11, 90
8, 108886, Control_c, 5, 11, 91
8, 108893, Control_c, 5, 11, 92
8, 108900, Control_c, 5, 11, 93
8, 108908, Control_c, 5, 11, 94
8, 108915, Control_c, 5, 11, 95
8, 108923, Control_c, 5, 11, 96
8, 108930, Control_c, 5, 11, 97
8, 108937, Control_c, 5, 11, 98
8, 108945, Control_c, 5, 11, 99
8, 108952, Control_c, 5, 11, 100
8, 108960, Control_c, 5, 11, 101
8, 108967, Control_c, 5, 11, 102
8, 108974, Control_c, 5, 11, 103
8, 108982, Control_c, 5, 11, 104
8, 108989, Control_c, 5, 11, 105
8, 108996, Control_c, 5, 11, 106
8, 109004, Control_c, 5, 11, 107
8, 109011, Control_c, 5, 11, 108
8, 109019, Control_c, 5, 11, 109
8, 109026, Control_c, 5, 11, 110
8, 109033, Control_c, 5, 11, 111
8, 109041, Control_c, 5, 11, 112
8, 109048, Control_c, 5, 11, 113
8, 109056, Note_on_c, 5, 57, 0
8, 109056, Note_on_c, 5, 62, 0
8, 109056, Note_on_c, 5, 66, 0
8, 109056, Note_on_c, 5, 69, 0
8, 109056, Note_on_c, 5, 59, 41
8, 109056, Control_c, 5, 11, 114
8, 109056, Note_on_c, 5, 63, 50
8, 109056, Note_on_c, 5, 71, 49
8, 109056, Note_on_c, 5, 68, 44
8, 109063, Control_c, 5, 11, 115
8, 109070, Control_c, 5, 11, 116
8, 109078, Control_c, 5, 11, 117
8, 109085, Control_c, 5, 11, 118
8, 109092, Control_c, 5, 11, 119
8, 109100, Control_c, 5, 11, 120
8, 109107, Control_c, 5, 11, 121
8, 109115, Control_c, 5, 11, 122
8, 109122, Control_c, 5, 11, 123
8, 109129, Control_c, 5, 11, 124
8, 109137, Control_c, 5, 11, 125
8, 109144, Control_c, 5, 11, 126
8, 109152, Note_on_c, 5, 59, 0
8, 109152, Note_on_c, 5, 63, 0
8, 109152, Note_on_c, 5, 71, 0
8, 109152, Note_on_c, 5, 68, 0
8, 109152, Control_c, 5, 11, 127
8, 109152, Note_on_c, 5, 62, 46
8, 109152, Note_on_c, 5, 57, 49
8, 109152, Note_on_c, 5, 66, 46
8, 109152, Note_on_c, 5, 69, 50
8, 109155, Control_c, 5, 11, 126
8, 109159, Control_c, 5, 11, 125
8, 109163, Control_c, 5, 11, 124
8, 109166, Control_c, 5, 11, 123
8, 109170, Control_c, 5, 11, 122
8, 109174, Control_c, 5, 11, 121
8, 109177, Control_c, 5, 11, 120
8, 109181, Control_c, 5, 11, 119
8, 109185, Control_c, 5, 11, 118
8, 109188, Control_c, 5, 11, 117
8, 109192, Control_c, 5, 11, 116
8, 109196, Control_c, 5, 11, 115
8, 109200, Control_c, 5, 11, 114
8, 109203, Control_c, 5, 11, 113
8, 109207, Control_c, 5, 11, 112
8, 109211, Control_c, 5, 11, 111
8, 109214, Control_c, 5, 11, 110
8, 109218, Control_c, 5, 11, 109
8, 109222, Control_c, 5, 11, 108
8, 109225, Control_c, 5, 11, 107
8, 109229, Control_c, 5, 11, 106
8, 109233, Control_c, 5, 11, 105
8, 109236, Control_c, 5, 11, 104
8, 109240, Control_c, 5, 11, 103
8, 109244, Control_c, 5, 11, 102
8, 109248, Control_c, 5, 11, 101
8, 109251, Control_c, 5, 11, 100
8, 109255, Control_c, 5, 11, 99
8, 109259, Control_c, 5, 11, 98
8, 109262, Control_c, 5, 11, 97
8, 109266, Control_c, 5, 11, 96
8, 109270, Control_c, 5, 11, 95
8, 109273, Control_c, 5, 11, 94
8, 109277, Control_c, 5, 11, 93
8, 109281, Control_c, 5, 11, 92
8, 109284, Control_c, 5, 11, 91
8, 109288, Control_c, 5, 11, 90
8, 109292, Control_c, 5, 11, 89
8, 109296, Control_c, 5, 11, 88
8, 109299, Control_c, 5, 11, 87
8, 109303, Control_c, 5, 11, 86
8, 109307, Control_c, 5, 11, 85
8, 109310, Control_c, 5, 11, 84
8, 109314, Control_c, 5, 11, 83
8, 109318, Control_c, 5, 11, 82
8, 109321, Control_c, 5, 11, 81
8, 109325, Control_c, 5, 11, 80
8, 109329, Control_c, 5, 11, 79
8, 109332, Control_c, 5, 11, 78
8, 109336, Control_c, 5, 11, 77
8, 109340, Control_c, 5, 11, 76
8, 109344, Note_on_c, 5, 62, 0
8, 109344, Note_on_c, 5, 57, 0
8, 109344, Note_on_c, 5, 66, 0
8, 109344, Note_on_c, 5, 69, 0
8, 109344, Control_c, 5, 11, 75
8, 109344, Note_on_c, 5, 63, 50
8, 109344, Note_on_c, 5, 59, 41
8, 109344, Note_on_c, 5, 64, 49
8, 109344, Note_on_c, 5, 68, 46
8, 109504, Note_on_c, 5, 63, 0
8, 109504, Note_on_c, 5, 59, 0
8, 109504, Note_on_c, 5, 64, 0
8, 109504, Note_on_c, 5, 68, 0
8, 109536, Note_on_c, 5, 58, 100
8, 109536, Control_c, 5, 11, 45
8, 109536, Note_on_c, 5, 61, 98
8, 109536, Note_on_c, 5, 66, 104
8, 109552, Control_c, 5, 11, 46
8, 109568, Control_c, 5, 11, 47
8, 109585, Control_c, 5, 11, 48
8, 109598, Note_on_c, 5, 58, 0
8, 109598, Note_on_c, 5, 61, 0
8, 109598, Note_on_c, 5, 66, 0
8, 109600, Note_on_c, 5, 58, 101
8, 109600, Note_on_c, 5, 61, 105
8, 109600, Note_on_c, 5, 66, 101
8, 109601, Control_c, 5, 11, 49
8, 109617, Control_c, 5, 11, 50
8, 109634, Control_c, 5, 11, 51
8, 109650, Control_c, 5, 11, 52
8, 109662, Note_on_c, 5, 58, 0
8, 109662, Note_on_c, 5, 61, 0
8, 109662, Note_on_c, 5, 66, 0
8, 109664, Note_on_c, 5, 66, 99
8, 109664, Note_on_c, 5, 61, 97
8, 109664, Note_on_c, 5, 58, 96
8, 109666, Control_c, 5, 11, 53
8, 109683, Control_c, 5, 11, 54
8, 109699, Control_c, 5, 11, 55
8, 109715, Control_c, 5, 11, 56
8, 109726, Note_on_c, 5, 66, 0
8, 109726, Note_on_c, 5, 61, 0
8, 109726, Note_on_c, 5, 58, 0
8, 109728, Note_on_c, 5, 61, 97
8, 109728, Note_on_c, 5, 66, 103
8, 109728, Note_on_c, 5, 58, 100
8, 109732, Control_c, 5, 11, 57
8, 109748, Control_c, 5, 11, 58
8, 109764, Control_c, 5, 11, 59
8, 109781, Control_c, 5, 11, 60
8, 109797, Control_c, 5, 11, 61
8, 109813, Control_c, 5, 11, 62
8, 109822, Note_on_c, 5, 61, 0
8, 109822, Note_on_c, 5, 66, 0
8, 109822, Note_on_c, 5, 58, 0
8, 109824, Note_on_c, 5, 57, 99
8, 109824, Note_on_c, 5, 54, 104
8, 109824, Note_on_c, 5, 61, 98
8, 109830, Control_c, 5, 11, 63
8, 109846, Control_c, 5, 11, 64
8, 109862, Control_c, 5, 11, 65
8, 109879, Control_c, 5, 11, 66
8, 109895, Control_c, 5, 11, 67
8, 109911, Control_c, 5, 11, 68
8, 109928, Control_c, 5, 11, 69
8, 109944, Control_c, 5, 11, 70
8, 109960, Control_c, 5, 11, 71
8, 109977, Control_c, 5, 11, 72
8, 109993, Control_c, 5, 11, 73
8, 110009, Control_c, 5, 11, 74
8, 110026, Control_c, 5, 11, 75
8, 110042, Control_c, 5, 11, 76
8, 110058, Control_c, 5, 11, 77
8, 110075, Control_c, 5, 11, 78
8, 110080, Note_on_c, 5, 57, 0
8, 110080, Note_on_c, 5, 54, 0
8, 110080, Note_on_c, 5, 61, 0
8, 110091, Control_c, 5, 11, 79
8, 110107, Control_c, 5, 11, 80
8, 110112, Note_on_c, 5, 61, 101
8, 110112, Note_on_c, 5, 58, 102
8, 110112, Note_on_c, 5, 66, 98
8, 110124, Control_c, 5, 11, 81
8, 110140, Control_c, 5, 11, 82
8, 110156, Control_c, 5, 11, 83
8, 110173, Control_c, 5, 11, 84
8, 110189, Control_c, 5, 11, 85
8, 110205, Control_c, 5, 11, 86
8, 110222, Control_c, 5, 11, 87
8, 110238, Control_c, 5, 11, 88
8, 110254, Control_c, 5, 11, 89
8, 110271, Control_c, 5, 11, 90
8, 110272, Note_on_c, 5, 61, 0
8, 110272, Note_on_c, 5, 58, 0
8, 110272, Note_on_c, 5, 66, 0
8, 110287, Control_c, 5, 11, 91
8, 110304, Control_c, 5, 11, 92
8, 110304, Note_on_c, 5, 56, 99
8, 110304, Control_c, 5, 11, 92
8, 110304, Note_on_c, 5, 68, 101
8, 110325, Control_c, 5, 11, 93
8, 110347, Control_c, 5, 11, 94
8, 110369, Control_c, 5, 11, 95
8, 110391, Control_c, 5, 11, 96
8, 110413, Control_c, 5, 11, 97
8, 110435, Control_c, 5, 11, 98
8, 110457, Control_c, 5, 11, 99
8, 110479, Control_c, 5, 11, 100
8, 110496, Note_on_c, 5, 56, 0
8, 110496, Note_on_c, 5, 68, 0
8, 110496, Note_on_c, 5, 70, 100
8, 110496, Note_on_c, 5, 58, 99
8, 110501, Control_c, 5, 11, 101
8, 110523, Control_c, 5, 11, 102
8, 110545, Control_c, 5, 11, 103
8, 110567, Control_c, 5, 11, 104
8, 110589, Control_c, 5, 11, 105
8, 110611, Control_c, 5, 11, 106
8, 110633, Control_c, 5, 11, 107
8, 110655, Control_c, 5, 11, 108
8, 110656, Note_on_c, 5, 70, 0
8, 110656, Note_on_c, 5, 58, 0
8, 110677, Control_c, 5, 11, 109
8, 110688, Note_on_c, 5, 60, 103
8, 110688, Note_on_c, 5, 63, 103
8, 110688, Note_on_c, 5, 70, 103
8, 110698, Control_c, 5, 11, 110
8, 110720, Control_c, 5, 11, 111
8, 110734, Note_on_c, 5, 60, 0
8, 110734, Note_on_c, 5, 63, 0
8, 110736, Note_on_c, 5, 65, 102
8, 110736, Note_on_c, 5, 61, 105
8, 110742, Control_c, 5, 11, 112
8, 110764, Control_c, 5, 11, 113
8, 110786, Control_c, 5, 11, 114
8, 110808, Control_c, 5, 11, 115
8, 110830, Control_c, 5, 11, 116
8, 110852, Control_c, 5, 11, 117
8, 110874, Control_c, 5, 11, 118
8, 110896, Control_c, 5, 11, 119
8, 110918, Control_c, 5, 11, 120
8, 110940, Control_c, 5, 11, 121
8, 110962, Control_c, 5, 11, 122
8, 110984, Control_c, 5, 11, 123
8, 111006, Control_c, 5, 11, 124
8, 111024, Note_on_c, 5, 70, 0
8, 111028, Control_c, 5, 11, 125
8, 111040, Note_on_c, 5, 65, 0
8, 111040, Note_on_c, 5, 61, 0
8, 111050, Control_c, 5, 11, 126
8, 111072, Control_c, 5, 11, 92
8, 111072, Note_on_c, 5, 68, 108
8, 111072, Note_on_c, 5, 56, 106
8, 111072, Control_c, 5, 11, 127
8, 111093, Control_c, 5, 11, 93
8, 111115, Control_c, 5, 11, 94
8, 111137, Control_c, 5, 11, 95
8, 111159, Control_c, 5, 11, 96
8, 111181, Control_c, 5, 11, 97
8, 111203, Control_c, 5, 11, 98
8, 111225, Control_c, 5, 11, 99
8, 111247, Control_c, 5, 11, 100
8, 111264, Note_on_c, 5, 68, 0
8, 111264, Note_on_c, 5, 56, 0
8, 111264, Note_on_c, 5, 58, 108
8, 111264, Note_on_c, 5, 70, 112
8, 111269, Control_c, 5, 11, 101
8, 111291, Control_c, 5, 11, 102
8, 111313, Control_c, 5, 11, 103
8, 111335, Control_c, 5, 11, 104
8, 111357, Control_c, 5, 11, 105
8, 111379, Control_c, 5, 11, 106
8, 111401, Control_c, 5, 11, 107
8, 111423, Control_c, 5, 11, 108
8, 111424, Note_on_c, 5, 58, 0
8, 111424, Note_on_c, 5, 70, 0
8, 111445, Control_c, 5, 11, 109
8, 111456, Note_on_c, 5, 70, 113
8, 111456, Note_on_c, 5, 63, 110
8, 111456, Note_on_c, 5, 60, 111
8, 111466, Control_c, 5, 11, 110
8, 111488, Control_c, 5, 11, 111
8, 111502, Note_on_c, 5, 63, 0
8, 111502, Note_on_c, 5, 60, 0
8, 111504, Note_on_c, 5, 61, 113
8, 111504, Note_on_c, 5, 65, 108
8, 111510, Control_c, 5, 11, 112
8, 111532, Control_c, 5, 11, 113
8, 111554, Control_c, 5, 11, 114
8, 111576, Control_c, 5, 11, 115
8, 111598, Control_c, 5, 11, 116
8, 111620, Control_c, 5, 11, 117
8, 111642, Control_c, 5, 11, 118
8, 111664, Control_c, 5, 11, 119
8, 111686, Control_c, 5, 11, 120
8, 111708, Control_c, 5, 11, 121
8, 111730, Control_c, 5, 11, 122
8, 111744, Note_on_c, 5, 61, 0
8, 111744, Note_on_c, 5, 65, 0
8, 111744, Note_on_c, 5, 63, 108
8, 111744, Note_on_c, 5, 67, 109
8, 111752, Control_c, 5, 11, 123
8, 111774, Control_c, 5, 11, 124
8, 111792, Note_on_c, 5, 70, 0
8, 111796, Control_c, 5, 11, 125
8, 111818, Control_c, 5, 11, 126
8, 111838, Note_on_c, 5, 63, 0
8, 111838, Note_on_c, 5, 67, 0
8, 111840, Control_c, 5, 11, 92
8, 111840, Control_c, 5, 11, 127
8, 111840, Note_on_c, 5, 58, 127
8, 111840, Note_on_c, 5, 70, 126
8, 111840, Note_on_c, 5, 60, 127
8, 111840, Note_on_c, 5, 72, 127
8, 111850, Control_c, 5, 11, 93
8, 111861, Control_c, 5, 11, 94
8, 111872, Control_c, 5, 11, 95
8, 111883, Control_c, 5, 11, 96
8, 111886, Note_on_c, 5, 60, 0
8, 111886, Note_on_c, 5, 72, 0
8, 111888, Note_on_c, 5, 61, 127
8, 111888, Note_on_c, 5, 73, 127
8, 111894, Control_c, 5, 11, 97
8, 111905, Control_c, 5, 11, 98
8, 111916, Control_c, 5, 11, 99
8, 111927, Control_c, 5, 11, 100
8, 111938, Control_c, 5, 11, 101
8, 111949, Control_c, 5, 11, 102
8, 111960, Control_c, 5, 11, 103
8, 111971, Control_c, 5, 11, 104
8, 111982, Control_c, 5, 11, 105
8, 111993, Control_c, 5, 11, 106
8, 112004, Control_c, 5, 11, 107
8, 112015, Control_c, 5, 11, 108
8, 112026, Control_c, 5, 11, 109
8, 112037, Control_c, 5, 11, 110
8, 112048, Control_c, 5, 11, 111
8, 112059, Control_c, 5, 11, 112
8, 112070, Control_c, 5, 11, 113
8, 112081, Control_c, 5, 11, 114
8, 112092, Control_c, 5, 11, 115
8, 112103, Control_c, 5, 11, 116
8, 112114, Control_c, 5, 11, 117
8, 112125, Control_c, 5, 11, 118
8, 112128, Note_on_c, 5, 61, 0
8, 112128, Note_on_c, 5, 73, 0
8, 112128, Note_on_c, 5, 58, 123
8, 112128, Note_on_c, 5, 70, 122
8, 112136, Control_c, 5, 11, 119
8, 112147, Control_c, 5, 11, 120
8, 112158, Control_c, 5, 11, 121
8, 112169, Control_c, 5, 11, 122
8, 112176, Note_on_c, 5, 58, 0
8, 112176, Note_on_c, 5, 70, 0
8, 112180, Control_c, 5, 11, 123
8, 112191, Control_c, 5, 11, 124
8, 112202, Control_c, 5, 11, 125
8, 112213, Control_c, 5, 11, 126
8, 112222, Note_on_c, 5, 58, 0
8, 112222, Note_on_c, 5, 70, 0
8, 112224, Note_on_c, 5, 58, 124
8, 112224, Note_on_c, 5, 70, 124
8, 112224, Control_c, 5, 11, 92
8, 112224, Note_on_c, 5, 60, 124
8, 112224, Control_c, 5, 11, 127
8, 112224, Note_on_c, 5, 72, 126
8, 112234, Control_c, 5, 11, 93
8, 112245, Control_c, 5, 11, 94
8, 112256, Control_c, 5, 11, 95
8, 112267, Control_c, 5, 11, 96
8, 112270, Note_on_c, 5, 60, 0
8, 112270, Note_on_c, 5, 72, 0
8, 112272, Note_on_c, 5, 61, 125
8, 112272, Note_on_c, 5, 73, 127
8, 112278, Control_c, 5, 11, 97
8, 112289, Control_c, 5, 11, 98
8, 112300, Control_c, 5, 11, 99
8, 112311, Control_c, 5, 11, 100
8, 112322, Control_c, 5, 11, 101
8, 112333, Control_c, 5, 11, 102
8, 112344, Control_c, 5, 11, 103
8, 112355, Control_c, 5, 11, 104
8, 112366, Control_c, 5, 11, 105
8, 112377, Control_c, 5, 11, 106
8, 112388, Control_c, 5, 11, 107
8, 112399, Control_c, 5, 11, 108
8, 112410, Control_c, 5, 11, 109
8, 112421, Control_c, 5, 11, 110
8, 112432, Control_c, 5, 11, 111
8, 112443, Control_c, 5, 11, 112
8, 112454, Control_c, 5, 11, 113
8, 112465, Control_c, 5, 11, 114
8, 112476, Control_c, 5, 11, 115
8, 112487, Control_c, 5, 11, 116
8, 112498, Control_c, 5, 11, 117
8, 112509, Control_c, 5, 11, 118
8, 112512, Note_on_c, 5, 61, 0
8, 112512, Note_on_c, 5, 73, 0
8, 112512, Note_on_c, 5, 58, 122
8, 112512, Note_on_c, 5, 70, 124
8, 112520, Control_c, 5, 11, 119
8, 112531, Control_c, 5, 11, 120
8, 112542, Control_c, 5, 11, 121
8, 112553, Control_c, 5, 11, 122
8, 112560, Note_on_c, 5, 58, 0
8, 112560, Note_on_c, 5, 70, 0
8, 112564, Control_c, 5, 11, 123
8, 112575, Control_c, 5, 11, 124
8, 112586, Control_c, 5, 11, 125
8, 112597, Control_c, 5, 11, 126
8, 112606, Note_on_c, 5, 58, 0
8, 112606, Note_on_c, 5, 70, 0
8, 112608, Note_on_c, 5, 60, 127
8, 112608, Control_c, 5, 11, 92
8, 112608, Note_on_c, 5, 67, 125
8, 112608, Note_on_c, 5, 63, 127
8, 112608, Control_c, 5, 11, 127
8, 112618, Control_c, 5, 11, 93
8, 112629, Control_c, 5, 11, 94
8, 112640, Control_c, 5, 11, 95
8, 112651, Control_c, 5, 11, 96
8, 112654, Note_on_c, 5, 60, 0
8, 112654, Note_on_c, 5, 67, 0
8, 112654, Note_on_c, 5, 63, 0
8, 112656, Note_on_c, 5, 61, 124
8, 112656, Note_on_c, 5, 68, 126
8, 112656, Note_on_c, 5, 65, 126
8, 112662, Control_c, 5, 11, 97
8, 112673, Control_c, 5, 11, 98
8, 112684, Control_c, 5, 11, 99
8, 112695, Control_c, 5, 11, 100
8, 112706, Control_c, 5, 11, 101
8, 112717, Control_c, 5, 11, 102
8, 112728, Control_c, 5, 11, 103
8, 112739, Control_c, 5, 11, 104
8, 112750, Control_c, 5, 11, 105
8, 112761, Control_c, 5, 11, 106
8, 112772, Control_c, 5, 11, 107
8, 112783, Control_c, 5, 11, 108
8, 112794, Control_c, 5, 11, 109
8, 112805, Control_c, 5, 11, 110
8, 112816, Control_c, 5, 11, 111
8, 112827, Control_c, 5, 11, 112
8, 112838, Control_c, 5, 11, 113
8, 112849, Control_c, 5, 11, 114
8, 112860, Control_c, 5, 11, 115
8, 112871, Control_c, 5, 11, 116
8, 112882, Control_c, 5, 11, 117
8, 112893, Control_c, 5, 11, 118
8, 112896, Note_on_c, 5, 61, 0
8, 112896, Note_on_c, 5, 68, 0
8, 112896, Note_on_c, 5, 65, 0
8, 112896, Note_on_c, 5, 67, 127
8, 112896, Note_on_c, 5, 64, 127
8, 112896, Note_on_c, 5, 70, 123
8, 112904, Control_c, 5, 11, 119
8, 112915, Control_c, 5, 11, 120
8, 112926, Control_c, 5, 11, 121
8, 112937, Control_c, 5, 11, 122
8, 112948, Control_c, 5, 11, 123
8, 112959, Control_c, 5, 11, 124
8, 112970, Control_c, 5, 11, 125
8, 112981, Control_c, 5, 11, 126
8, 112990, Note_on_c, 5, 67, 0
8, 112990, Note_on_c, 5, 64, 0
8, 112990, Note_on_c, 5, 70, 0
8, 112992, Note_on_c, 5, 58, 127
8, 112992, Control_c, 5, 11, 127
8, 112992, Control_c, 5, 11, 75
8, 112992, Note_on_c, 5, 63, 127
8, 112992, Note_on_c, 5, 70, 127
8, 112993, Control_c, 5, 11, 76
8, 112995, Control_c, 5, 11, 77
8, 112997, Control_c, 5, 11, 78
8, 112999, Control_c, 5, 11, 79
8, 113001, Control_c, 5, 11, 80
8, 113003, Control_c, 5, 11, 81
8, 113004, Control_c, 5, 11, 82
8, 113006, Control_c, 5, 11, 83
8, 113008, Control_c, 5, 11, 84
8, 113010, Control_c, 5, 11, 85
8, 113012, Control_c, 5, 11, 86
8, 113014, Control_c, 5, 11, 87
8, 113016, Control_c, 5, 11, 88
8, 113017, Control_c, 5, 11, 89
8, 113019, Control_c, 5, 11, 90
8, 113021, Control_c, 5, 11, 91
8, 113023, Control_c, 5, 11, 92
8, 113025, Control_c, 5, 11, 93
8, 113027, Control_c, 5, 11, 94
8, 113028, Control_c, 5, 11, 95
8, 113030, Control_c, 5, 11, 96
8, 113032, Control_c, 5, 11, 97
8, 113034, Control_c, 5, 11, 98
8, 113036, Control_c, 5, 11, 99
8, 113038, Control_c, 5, 11, 100
8, 113040, Control_c, 5, 11, 101
8, 113041, Control_c, 5, 11, 102
8, 113043, Control_c, 5, 11, 103
8, 113045, Control_c, 5, 11, 104
8, 113047, Control_c, 5, 11, 105
8, 113049, Control_c, 5, 11, 106
8, 113051, Control_c, 5, 11, 107
8, 113052, Control_c, 5, 11, 108
8, 113054, Control_c, 5, 11, 109
8, 113056, Control_c, 5, 11, 110
8, 113058, Control_c, 5, 11, 111
8, 113060, Control_c, 5, 11, 112
8, 113062, Control_c, 5, 11, 113
8, 113064, Control_c, 5, 11, 114
8, 113065, Control_c, 5, 11, 115
8, 113067, Control_c, 5, 11, 116
8, 113069, Control_c, 5, 11, 117
8, 113071, Control_c, 5, 11, 118
8, 113073, Control_c, 5, 11, 119
8, 113075, Control_c, 5, 11, 120
8, 113076, Control_c, 5, 11, 121
8, 113078, Control_c, 5, 11, 122
8, 113080, Control_c, 5, 11, 123
8, 113082, Control_c, 5, 11, 124
8, 113084, Control_c, 5, 11, 125
8, 113086, Control_c, 5, 11, 126
8, 113088, Control_c, 5, 11, 127
8, 113089, Control_c, 5, 11, 126
8, 113091, Control_c, 5, 11, 125
8, 113093, Control_c, 5, 11, 124
8, 113095, Control_c, 5, 11, 123
8, 113097, Control_c, 5, 11, 122
8, 113099, Control_c, 5, 11, 121
8, 113100, Control_c, 5, 11, 120
8, 113102, Control_c, 5, 11, 119
8, 113104, Control_c, 5, 11, 118
8, 113106, Control_c, 5, 11, 117
8, 113108, Control_c, 5, 11, 116
8, 113110, Control_c, 5, 11, 115
8, 113112, Control_c, 5, 11, 114
8, 113113, Control_c, 5, 11, 113
8, 113115, Control_c, 5, 11, 112
8, 113117, Control_c, 5, 11, 111
8, 113119, Control_c, 5, 11, 110
8, 113121, Control_c, 5, 11, 109
8, 113123, Control_c, 5, 11, 108
8, 113124, Control_c, 5, 11, 107
8, 113126, Control_c, 5, 11, 106
8, 113128, Control_c, 5, 11, 105
8, 113130, Control_c, 5, 11, 104
8, 113132, Control_c, 5, 11, 103
8, 113134, Control_c, 5, 11, 102
8, 113136, Control_c, 5, 11, 101
8, 113137, Control_c, 5, 11, 100
8, 113139, Control_c, 5, 11, 99
8, 113141, Control_c, 5, 11, 98
8, 113143, Control_c, 5, 11, 97
8, 113145, Control_c, 5, 11, 96
8, 113147, Control_c, 5, 11, 95
8, 113148, Control_c, 5, 11, 94
8, 113150, Control_c, 5, 11, 93
8, 113152, Note_on_c, 5, 58, 0
8, 113152, Note_on_c, 5, 63, 0
8, 113152, Note_on_c, 5, 70, 0
8, 113152, Control_c, 5, 11, 92
8, 113154, Control_c, 5, 11, 91
8, 113156, Control_c, 5, 11, 90
8, 113158, Control_c, 5, 11, 89
8, 113160, Control_c, 5, 11, 88
8, 113161, Control_c, 5, 11, 87
8, 113163, Control_c, 5, 11, 86
8, 113165, Control_c, 5, 11, 85
8, 113167, Control_c, 5, 11, 84
8, 113169, Control_c, 5, 11, 83
8, 113171, Control_c, 5, 11, 82
8, 113172, Control_c, 5, 11, 81
8, 113174, Control_c, 5, 11, 80
8, 113176, Control_c, 5, 11, 79
8, 113178, Control_c, 5, 11, 78
8, 113180, Control_c, 5, 11, 77
8, 113182, Control_c, 5, 11, 76
8, 113184, Control_c, 5, 11, 75
8, 113184, Control_c, 5, 11, 75
8, 113184, Note_on_c, 5, 68, 126
8, 113184, Note_on_c, 5, 56, 127
8, 113184, Note_on_c, 5, 61, 127
8, 113185, Control_c, 5, 11, 76
8, 113187, Control_c, 5, 11, 77
8, 113189, Control_c, 5, 11, 78
8, 113191, Control_c, 5, 11, 79
8, 113193, Control_c, 5, 11, 80
8, 113195, Control_c, 5, 11, 81
8, 113196, Control_c, 5, 11, 82
8, 113198, Control_c, 5, 11, 83
8, 113200, Control_c, 5, 11, 84
8, 113202, Control_c, 5, 11, 85
8, 113204, Control_c, 5, 11, 86
8, 113206, Control_c, 5, 11, 87
8, 113208, Control_c, 5, 11, 88
8, 113209, Control_c, 5, 11, 89
8, 113211, Control_c, 5, 11, 90
8, 113213, Control_c, 5, 11, 91
8, 113215, Control_c, 5, 11, 92
8, 113217, Control_c, 5, 11, 93
8, 113219, Control_c, 5, 11, 94
8, 113220, Control_c, 5, 11, 95
8, 113222, Control_c, 5, 11, 96
8, 113224, Control_c, 5, 11, 97
8, 113226, Control_c, 5, 11, 98
8, 113228, Control_c, 5, 11, 99
8, 113230, Control_c, 5, 11, 100
8, 113232, Control_c, 5, 11, 101
8, 113233, Control_c, 5, 11, 102
8, 113235, Control_c, 5, 11, 103
8, 113237, Control_c, 5, 11, 104
8, 113239, Control_c, 5, 11, 105
8, 113241, Control_c, 5, 11, 106
8, 113243, Control_c, 5, 11, 107
8, 113244, Control_c, 5, 11, 108
8, 113246, Control_c, 5, 11, 109
8, 113248, Control_c, 5, 11, 110
8, 113250, Control_c, 5, 11, 111
8, 113252, Control_c, 5, 11, 112
8, 113254, Control_c, 5, 11, 113
8, 113256, Control_c, 5, 11, 114
8, 113257, Control_c, 5, 11, 115
8, 113259, Control_c, 5, 11, 116
8, 113261, Control_c, 5, 11, 117
8, 113263, Control_c, 5, 11, 118
8, 113265, Control_c, 5, 11, 119
8, 113267, Control_c, 5, 11, 120
8, 113268, Control_c, 5, 11, 121
8, 113270, Control_c, 5, 11, 122
8, 113272, Control_c, 5, 11, 123
8, 113274, Control_c, 5, 11, 124
8, 113276, Control_c, 5, 11, 125
8, 113278, Control_c, 5, 11, 126
8, 113280, Control_c, 5, 11, 127
8, 113281, Control_c, 5, 11, 126
8, 113283, Control_c, 5, 11, 125
8, 113285, Control_c, 5, 11, 124
8, 113287, Control_c, 5, 11, 123
8, 113289, Control_c, 5, 11, 122
8, 113291, Control_c, 5, 11, 121
8, 113292, Control_c, 5, 11, 120
8, 113294, Control_c, 5, 11, 119
8, 113296, Control_c, 5, 11, 118
8, 113298, Control_c, 5, 11, 117
8, 113300, Control_c, 5, 11, 116
8, 113302, Control_c, 5, 11, 115
8, 113304, Control_c, 5, 11, 114
8, 113305, Control_c, 5, 11, 113
8, 113307, Control_c, 5, 11, 112
8, 113309, Control_c, 5, 11, 111
8, 113311, Control_c, 5, 11, 110
8, 113313, Control_c, 5, 11, 109
8, 113315, Control_c, 5, 11, 108
8, 113316, Control_c, 5, 11, 107
8, 113318, Control_c, 5, 11, 106
8, 113320, Control_c, 5, 11, 105
8, 113322, Control_c, 5, 11, 104
8, 113324, Control_c, 5, 11, 103
8, 113326, Control_c, 5, 11, 102
8, 113328, Control_c, 5, 11, 101
8, 113329, Control_c, 5, 11, 100
8, 113331, Control_c, 5, 11, 99
8, 113333, Control_c, 5, 11, 98
8, 113335, Control_c, 5, 11, 97
8, 113337, Control_c, 5, 11, 96
8, 113339, Control_c, 5, 11, 95
8, 113340, Control_c, 5, 11, 94
8, 113342, Control_c, 5, 11, 93
8, 113344, Note_on_c, 5, 68, 0
8, 113344, Note_on_c, 5, 56, 0
8, 113344, Note_on_c, 5, 61, 0
8, 113344, Control_c, 5, 11, 92
8, 113346, Control_c, 5, 11, 91
8, 113348, Control_c, 5, 11, 90
8, 113350, Control_c, 5, 11, 89
8, 113352, Control_c, 5, 11, 88
8, 113353, Control_c, 5, 11, 87
8, 113355, Control_c, 5, 11, 86
8, 113357, Control_c, 5, 11, 85
8, 113359, Control_c, 5, 11, 84
8, 113361, Control_c, 5, 11, 83
8, 113363, Control_c, 5, 11, 82
8, 113364, Control_c, 5, 11, 81
8, 113366, Control_c, 5, 11, 80
8, 113368, Control_c, 5, 11, 79
8, 113370, Control_c, 5, 11, 78
8, 113372, Control_c, 5, 11, 77
8, 113374, Control_c, 5, 11, 76
8, 113376, Control_c, 5, 11, 75
8, 113376, Note_on_c, 5, 58, 127
8, 113376, Note_on_c, 5, 65, 127
8, 113376, Control_c, 5, 11, 75
8, 113376, Note_on_c, 5, 53, 126
8, 113377, Control_c, 5, 11, 76
8, 113379, Control_c, 5, 11, 77
8, 113381, Control_c, 5, 11, 78
8, 113383, Control_c, 5, 11, 79
8, 113385, Control_c, 5, 11, 80
8, 113387, Control_c, 5, 11, 81
8, 113388, Control_c, 5, 11, 82
8, 113390, Control_c, 5, 11, 83
8, 113392, Control_c, 5, 11, 84
8, 113394, Control_c, 5, 11, 85
8, 113396, Control_c, 5, 11, 86
8, 113398, Control_c, 5, 11, 87
8, 113400, Control_c, 5, 11, 88
8, 113401, Control_c, 5, 11, 89
8, 113403, Control_c, 5, 11, 90
8, 113405, Control_c, 5, 11, 91
8, 113407, Control_c, 5, 11, 92
8, 113409, Control_c, 5, 11, 93
8, 113411, Control_c, 5, 11, 94
8, 113412, Control_c, 5, 11, 95
8, 113414, Control_c, 5, 11, 96
8, 113416, Control_c, 5, 11, 97
8, 113418, Control_c, 5, 11, 98
8, 113420, Control_c, 5, 11, 99
8, 113422, Control_c, 5, 11, 100
8, 113424, Control_c, 5, 11, 101
8, 113425, Control_c, 5, 11, 102
8, 113427, Control_c, 5, 11, 103
8, 113429, Control_c, 5, 11, 104
8, 113431, Control_c, 5, 11, 105
8, 113433, Control_c, 5, 11, 106
8, 113435, Control_c, 5, 11, 107
8, 113436, Control_c, 5, 11, 108
8, 113438, Control_c, 5, 11, 109
8, 113440, Control_c, 5, 11, 110
8, 113442, Control_c, 5, 11, 111
8, 113444, Control_c, 5, 11, 112
8, 113446, Control_c, 5, 11, 113
8, 113448, Control_c, 5, 11, 114
8, 113449, Control_c, 5, 11, 115
8, 113451, Control_c, 5, 11, 116
8, 113453, Control_c, 5, 11, 117
8, 113455, Control_c, 5, 11, 118
8, 113457, Control_c, 5, 11, 119
8, 113459, Control_c, 5, 11, 120
8, 113460, Control_c, 5, 11, 121
8, 113462, Control_c, 5, 11, 122
8, 113464, Control_c, 5, 11, 123
8, 113466, Control_c, 5, 11, 124
8, 113468, Control_c, 5, 11, 125
8, 113470, Control_c, 5, 11, 126
8, 113472, Control_c, 5, 11, 127
8, 113474, Control_c, 5, 11, 126
8, 113476, Control_c, 5, 11, 125
8, 113478, Control_c, 5, 11, 124
8, 113481, Control_c, 5, 11, 123
8, 113483, Control_c, 5, 11, 122
8, 113485, Control_c, 5, 11, 121
8, 113487, Control_c, 5, 11, 120
8, 113490, Control_c, 5, 11, 119
8, 113492, Control_c, 5, 11, 118
8, 113494, Control_c, 5, 11, 117
8, 113496, Control_c, 5, 11, 116
8, 113499, Control_c, 5, 11, 115
8, 113501, Control_c, 5, 11, 114
8, 113503, Control_c, 5, 11, 113
8, 113506, Control_c, 5, 11, 112
8, 113508, Control_c, 5, 11, 111
8, 113510, Control_c, 5, 11, 110
8, 113512, Control_c, 5, 11, 109
8, 113515, Control_c, 5, 11, 108
8, 113517, Control_c, 5, 11, 107
8, 113519, Control_c, 5, 11, 106
8, 113521, Control_c, 5, 11, 105
8, 113524, Control_c, 5, 11, 104
8, 113526, Control_c, 5, 11, 103
8, 113528, Control_c, 5, 11, 102
8, 113530, Control_c, 5, 11, 101
8, 113533, Control_c, 5, 11, 100
8, 113535, Control_c, 5, 11, 99
8, 113537, Control_c, 5, 11, 98
8, 113540, Control_c, 5, 11, 97
8, 113542, Control_c, 5, 11, 96
8, 113544, Control_c, 5, 11, 95
8, 113546, Control_c, 5, 11, 94
8, 113549, Control_c, 5, 11, 93
8, 113551, Control_c, 5, 11, 92
8, 113553, Control_c, 5, 11, 91
8, 113555, Control_c, 5, 11, 90
8, 113558, Control_c, 5, 11, 89
8, 113560, Control_c, 5, 11, 88
8, 113562, Control_c, 5, 11, 87
8, 113564, Control_c, 5, 11, 86
8, 113567, Control_c, 5, 11, 85
8, 113569, Control_c, 5, 11, 84
8, 113571, Control_c, 5, 11, 83
8, 113574, Control_c, 5, 11, 82
8, 113576, Control_c, 5, 11, 81
8, 113578, Control_c, 5, 11, 80
8, 113580, Control_c, 5, 11, 79
8, 113583, Control_c, 5, 11, 78
8, 113585, Control_c, 5, 11, 77
8, 113587, Control_c, 5, 11, 76
8, 113589, Control_c, 5, 11, 75
8, 113592, Control_c, 5, 11, 74
8, 113594, Control_c, 5, 11, 73
8, 113596, Control_c, 5, 11, 72
8, 113598, Control_c, 5, 11, 71
8, 113601, Control_c, 5, 11, 70
8, 113603, Control_c, 5, 11, 69
8, 113605, Control_c, 5, 11, 68
8, 113608, Control_c, 5, 11, 67
8, 113610, Control_c, 5, 11, 66
8, 113612, Control_c, 5, 11, 65
8, 113614, Control_c, 5, 11, 64
8, 113617, Control_c, 5, 11, 63
8, 113619, Control_c, 5, 11, 62
8, 113621, Control_c, 5, 11, 61
8, 113623, Control_c, 5, 11, 60
8, 113626, Control_c, 5, 11, 59
8, 113628, Control_c, 5, 11, 58
8, 113630, Control_c, 5, 11, 57
8, 113633, Control_c, 5, 11, 56
8, 113635, Control_c, 5, 11, 55
8, 113637, Control_c, 5, 11, 54
8, 113639, Control_c, 5, 11, 53
8, 113642, Control_c, 5, 11, 52
8, 113644, Control_c, 5, 11, 51
8, 113646, Control_c, 5, 11, 50
8, 113648, Control_c, 5, 11, 49
8, 113651, Control_c, 5, 11, 48
8, 113653, Control_c, 5, 11, 47
8, 113655, Control_c, 5, 11, 46
8, 113657, Control_c, 5, 11, 45
8, 113660, Control_c, 5, 11, 44
8, 113662, Control_c, 5, 11, 43
8, 113664, Control_c, 5, 11, 42
8, 113667, Control_c, 5, 11, 41
8, 113669, Control_c, 5, 11, 40
8, 113671, Control_c, 5, 11, 39
8, 113673, Control_c, 5, 11, 38
8, 113676, Control_c, 5, 11, 37
8, 113678, Control_c, 5, 11, 36
8, 113680, Control_c, 5, 11, 35
8, 113682, Control_c, 5, 11, 34
8, 113685, Control_c, 5, 11, 33
8, 113687, Control_c, 5, 11, 32
8, 113689, Control_c, 5, 11, 31
8, 113691, Control_c, 5, 11, 30
8, 113694, Control_c, 5, 11, 29
8, 113696, Control_c, 5, 11, 28
8, 113698, Control_c, 5, 11, 27
8, 113701, Control_c, 5, 11, 26
8, 113703, Control_c, 5, 11, 25
8, 113705, Control_c, 5, 11, 24
8, 113707, Control_c, 5, 11, 23
8, 113710, Control_c, 5, 11, 22
8, 113712, Control_c, 5, 11, 21
8, 113714, Control_c, 5, 11, 20
8, 113716, Control_c, 5, 11, 19
8, 113719, Control_c, 5, 11, 18
8, 113721, Control_c, 5, 11, 17
8, 113723, Control_c, 5, 11, 16
8, 113725, Control_c, 5, 11, 15
8, 113728, Note_on_c, 5, 58, 0
8, 113728, Note_on_c, 5, 65, 0
8, 113728, Note_on_c, 5, 53, 0
8, 113728, Control_c, 5, 11, 14
8, 113730, Control_c, 5, 11, 13
8, 113732, Control_c, 5, 11, 12
8, 113735, Control_c, 5, 11, 11
8, 113737, Control_c, 5, 11, 10
8, 113739, Control_c, 5, 11, 9
8, 113741, Control_c, 5, 11, 8
8, 113744, Control_c, 5, 11, 7
8, 113746, Control_c, 5, 11, 6
8, 113748, Control_c, 5, 11, 5
8, 113750, Control_c, 5, 11, 4
8, 113753, Control_c, 5, 11, 3
8, 113755, Control_c, 5, 11, 2
8, 113757, Control_c, 5, 11, 1
8, 113760, Control_c, 5, 11, 0
8, 113760, End_track
9, 0, Start_track
9, 0, Title_t, "Trombe I - II - III"
9, 0, MIDI_port, 0
9, 9600, Program_c, 6, 59
9, 10752, Note_on_c, 6, 72, 48
9, 11262, Note_on_c, 6, 72, 0
9, 11264, Note_on_c, 6, 72, 50
9, 11390, Note_on_c, 6, 72, 0
9, 11392, Note_on_c, 6, 72, 41
9, 11520, Control_c, 6, 11, 127
9, 11526, Control_c, 6, 11, 126
9, 11532, Control_c, 6, 11, 125
9, 11538, Control_c, 6, 11, 124
9, 11544, Control_c, 6, 11, 123
9, 11550, Control_c, 6, 11, 122
9, 11556, Control_c, 6, 11, 121
9, 11562, Control_c, 6, 11, 120
9, 11568, Control_c, 6, 11, 119
9, 11574, Control_c, 6, 11, 118
9, 11580, Control_c, 6, 11, 117
9, 11587, Control_c, 6, 11, 116
9, 11593, Control_c, 6, 11, 115
9, 11599, Control_c, 6, 11, 114
9, 11605, Control_c, 6, 11, 113
9, 11611, Control_c, 6, 11, 112
9, 11617, Control_c, 6, 11, 111
9, 11623, Control_c, 6, 11, 110
9, 11629, Control_c, 6, 11, 109
9, 11635, Control_c, 6, 11, 108
9, 11641, Control_c, 6, 11, 107
9, 11648, Control_c, 6, 11, 106
9, 11654, Control_c, 6, 11, 105
9, 11660, Control_c, 6, 11, 104
9, 11666, Control_c, 6, 11, 103
9, 11672, Control_c, 6, 11, 102
9, 11678, Control_c, 6, 11, 101
9, 11684, Control_c, 6, 11, 100
9, 11690, Control_c, 6, 11, 99
9, 11696, Control_c, 6, 11, 98
9, 11702, Control_c, 6, 11, 97
9, 11708, Control_c, 6, 11, 96
9, 11715, Control_c, 6, 11, 95
9, 11721, Control_c, 6, 11, 94
9, 11727, Control_c, 6, 11, 93
9, 11733, Control_c, 6, 11, 92
9, 11739, Control_c, 6, 11, 91
9, 11745, Control_c, 6, 11, 90
9, 11751, Control_c, 6, 11, 89
9, 11757, Control_c, 6, 11, 88
9, 11763, Control_c, 6, 11, 87
9, 11769, Control_c, 6, 11, 86
9, 11776, Control_c, 6, 11, 85
9, 11782, Control_c, 6, 11, 84
9, 11788, Control_c, 6, 11, 83
9, 11794, Control_c, 6, 11, 82
9, 11800, Control_c, 6, 11, 81
9, 11806, Control_c, 6, 11, 80
9, 11812, Control_c, 6, 11, 79
9, 11818, Control_c, 6, 11, 78
9, 11824, Control_c, 6, 11, 77
9, 11830, Control_c, 6, 11, 76
9, 11836, Control_c, 6, 11, 75
9, 11843, Control_c, 6, 11, 74
9, 11849, Control_c, 6, 11, 73
9, 11855, Control_c, 6, 11, 72
9, 11861, Control_c, 6, 11, 71
9, 11867, Control_c, 6, 11, 70
9, 11873, Control_c, 6, 11, 69
9, 11879, Control_c, 6, 11, 68
9, 11885, Control_c, 6, 11, 67
9, 11891, Control_c, 6, 11, 66
9, 11897, Control_c, 6, 11, 65
9, 11904, Control_c, 6, 11, 64
9, 12064, Note_on_c, 6, 72, 0
9, 12288, Control_c, 6, 11, 127
9, 12672, Control_c, 6, 11, 64
9, 12672, Note_on_c, 6, 72, 57
9, 12782, Note_on_c, 6, 72, 0
9, 12800, Note_on_c, 6, 72, 57
9, 12910, Note_on_c, 6, 72, 0
9, 12928, Note_on_c, 6, 72, 56
9, 13038, Note_on_c, 6, 72, 0
9, 13056, Note_on_c, 6, 72, 62
9, 13248, Note_on_c, 6, 72, 0
9, 13248, Note_on_c, 6, 72, 62
9, 13440, Control_c, 6, 11, 64
9, 13452, Control_c, 6, 11, 65
9, 13464, Control_c, 6, 11, 66
9, 13476, Control_c, 6, 11, 67
9, 13488, Control_c, 6, 11, 68
9, 13500, Control_c, 6, 11, 69
9, 13513, Control_c, 6, 11, 70
9, 13525, Control_c, 6, 11, 71
9, 13537, Control_c, 6, 11, 72
9, 13549, Control_c, 6, 11, 73
9, 13561, Control_c, 6, 11, 74
9, 13574, Control_c, 6, 11, 75
9, 13586, Control_c, 6, 11, 76
9, 13598, Control_c, 6, 11, 77
9, 13610, Control_c, 6, 11, 78
9, 13622, Control_c, 6, 11, 79
9, 13632, Note_on_c, 6, 72, 0
9, 13632, Note_on_c, 6, 74, 56
9, 13635, Control_c, 6, 11, 80
9, 13647, Control_c, 6, 11, 81
9, 13659, Control_c, 6, 11, 82
9, 13671, Control_c, 6, 11, 83
9, 13683, Control_c, 6, 11, 84
9, 13696, Control_c, 6, 11, 85
9, 13708, Control_c, 6, 11, 86
9, 13720, Control_c, 6, 11, 87
9, 13732, Control_c, 6, 11, 88
9, 13744, Control_c, 6, 11, 89
9, 13756, Control_c, 6, 11, 90
9, 13769, Control_c, 6, 11, 91
9, 13781, Control_c, 6, 11, 92
9, 13793, Control_c, 6, 11, 93
9, 13805, Control_c, 6, 11, 94
9, 13817, Control_c, 6, 11, 95
9, 13824, Note_on_c, 6, 74, 0
9, 13824, Note_on_c, 6, 77, 60
9, 13830, Control_c, 6, 11, 96
9, 13842, Control_c, 6, 11, 97
9, 13854, Control_c, 6, 11, 98
9, 13866, Control_c, 6, 11, 99
9, 13878, Control_c, 6, 11, 100
9, 13891, Control_c, 6, 11, 101
9, 13903, Control_c, 6, 11, 102
9, 13915, Control_c, 6, 11, 103
9, 13927, Control_c, 6, 11, 104
9, 13939, Control_c, 6, 11, 105
9, 13952, Control_c, 6, 11, 106
9, 13964, Control_c, 6, 11, 107
9, 13976, Control_c, 6, 11, 108
9, 13988, Control_c, 6, 11, 109
9, 14000, Control_c, 6, 11, 110
9, 14012, Control_c, 6, 11, 111
9, 14025, Control_c, 6, 11, 112
9, 14037, Control_c, 6, 11, 113
9, 14049, Control_c, 6, 11, 114
9, 14061, Control_c, 6, 11, 115
9, 14073, Control_c, 6, 11, 116
9, 14086, Control_c, 6, 11, 117
9, 14098, Control_c, 6, 11, 118
9, 14110, Control_c, 6, 11, 119
9, 14122, Control_c, 6, 11, 120
9, 14134, Control_c, 6, 11, 121
9, 14147, Control_c, 6, 11, 122
9, 14159, Control_c, 6, 11, 123
9, 14171, Control_c, 6, 11, 124
9, 14183, Control_c, 6, 11, 125
9, 14195, Control_c, 6, 11, 126
9, 14208, Control_c, 6, 11, 127
9, 14220, Control_c, 6, 11, 126
9, 14232, Control_c, 6, 11, 125
9, 14244, Control_c, 6, 11, 124
9, 14256, Control_c, 6, 11, 123
9, 14268, Control_c, 6, 11, 122
9, 14281, Control_c, 6, 11, 121
9, 14293, Control_c, 6, 11, 120
9, 14305, Control_c, 6, 11, 119
9, 14317, Control_c, 6, 11, 118
9, 14329, Control_c, 6, 11, 117
9, 14336, Note_on_c, 6, 77, 0
9, 14336, Note_on_c, 6, 75, 61
9, 14342, Control_c, 6, 11, 116
9, 14354, Control_c, 6, 11, 115
9, 14366, Control_c, 6, 11, 114
9, 14378, Control_c, 6, 11, 113
9, 14390, Control_c, 6, 11, 112
9, 14403, Control_c, 6, 11, 111
9, 14415, Control_c, 6, 11, 110
9, 14427, Control_c, 6, 11, 109
9, 14439, Control_c, 6, 11, 108
9, 14451, Control_c, 6, 11, 107
9, 14464, Note_on_c, 6, 75, 0
9, 14464, Control_c, 6, 11, 106
9, 14464, Note_on_c, 6, 74, 63
9, 14476, Control_c, 6, 11, 105
9, 14488, Control_c, 6, 11, 104
9, 14500, Control_c, 6, 11, 103
9, 14512, Control_c, 6, 11, 102
9, 14524, Control_c, 6, 11, 101
9, 14537, Control_c, 6, 11, 100
9, 14549, Control_c, 6, 11, 99
9, 14561, Control_c, 6, 11, 98
9, 14573, Control_c, 6, 11, 97
9, 14585, Control_c, 6, 11, 96
9, 14592, Note_on_c, 6, 74, 0
9, 14592, Note_on_c, 6, 72, 58
9, 14598, Control_c, 6, 11, 95
9, 14610, Control_c, 6, 11, 94
9, 14622, Control_c, 6, 11, 93
9, 14634, Control_c, 6, 11, 92
9, 14646, Control_c, 6, 11, 91
9, 14659, Control_c, 6, 11, 90
9, 14671, Control_c, 6, 11, 89
9, 14683, Control_c, 6, 11, 88
9, 14695, Control_c, 6, 11, 87
9, 14707, Control_c, 6, 11, 86
9, 14720, Control_c, 6, 11, 85
9, 14732, Control_c, 6, 11, 84
9, 14744, Control_c, 6, 11, 83
9, 14756, Control_c, 6, 11, 82
9, 14768, Control_c, 6, 11, 81
9, 14780, Control_c, 6, 11, 80
9, 14784, Note_on_c, 6, 72, 0
9, 14784, Note_on_c, 6, 70, 59
9, 14793, Control_c, 6, 11, 79
9, 14805, Control_c, 6, 11, 78
9, 14817, Control_c, 6, 11, 77
9, 14829, Control_c, 6, 11, 76
9, 14841, Control_c, 6, 11, 75
9, 14854, Control_c, 6, 11, 74
9, 14866, Control_c, 6, 11, 73
9, 14878, Control_c, 6, 11, 72
9, 14890, Control_c, 6, 11, 71
9, 14902, Control_c, 6, 11, 70
9, 14915, Control_c, 6, 11, 69
9, 14927, Control_c, 6, 11, 68
9, 14939, Control_c, 6, 11, 67
9, 14951, Control_c, 6, 11, 66
9, 14963, Control_c, 6, 11, 65
9, 14976, Note_on_c, 6, 70, 0
9, 14976, Control_c, 6, 11, 64
9, 14976, Note_on_c, 6, 68, 65
9, 15136, Note_on_c, 6, 68, 0
9, 15168, Note_on_c, 6, 72, 64
9, 15552, Note_on_c, 6, 72, 0
9, 15552, Note_on_c, 6, 74, 64
9, 15744, Note_on_c, 6, 74, 0
9, 15744, Note_on_c, 6, 77, 58
9, 15872, Note_on_c, 6, 77, 0
9, 15872, Note_on_c, 6, 75, 64
9, 16000, Note_on_c, 6, 75, 0
9, 16000, Note_on_c, 6, 74, 60
9, 16128, Note_on_c, 6, 74, 0
9, 16128, Control_c, 6, 11, 64
9, 16128, Note_on_c, 6, 72, 57
9, 16139, Control_c, 6, 11, 63
9, 16150, Control_c, 6, 11, 62
9, 16161, Control_c, 6, 11, 61
9, 16173, Control_c, 6, 11, 60
9, 16184, Control_c, 6, 11, 59
9, 16195, Control_c, 6, 11, 58
9, 16207, Control_c, 6, 11, 57
9, 16218, Control_c, 6, 11, 56
9, 16229, Control_c, 6, 11, 55
9, 16240, Control_c, 6, 11, 54
9, 16252, Control_c, 6, 11, 53
9, 16263, Control_c, 6, 11, 52
9, 16274, Control_c, 6, 11, 51
9, 16286, Control_c, 6, 11, 50
9, 16297, Control_c, 6, 11, 49
9, 16308, Control_c, 6, 11, 48
9, 16320, Control_c, 6, 11, 47
9, 16331, Control_c, 6, 11, 46
9, 16342, Control_c, 6, 11, 45
9, 16353, Control_c, 6, 11, 44
9, 16365, Control_c, 6, 11, 43
9, 16376, Control_c, 6, 11, 42
9, 16387, Control_c, 6, 11, 41
9, 16399, Control_c, 6, 11, 40
9, 16410, Control_c, 6, 11, 39
9, 16421, Control_c, 6, 11, 38
9, 16432, Control_c, 6, 11, 37
9, 16444, Control_c, 6, 11, 36
9, 16455, Control_c, 6, 11, 35
9, 16466, Control_c, 6, 11, 34
9, 16478, Control_c, 6, 11, 33
9, 16489, Control_c, 6, 11, 32
9, 16500, Control_c, 6, 11, 31
9, 16512, Control_c, 6, 11, 30
9, 16606, Note_on_c, 6, 72, 0
9, 22272, Control_c, 6, 11, 92
9, 22272, Note_on_c, 6, 66, 62
9, 22277, Control_c, 6, 11, 93
9, 22282, Control_c, 6, 11, 94
9, 22288, Control_c, 6, 11, 95
9, 22293, Control_c, 6, 11, 96
9, 22299, Control_c, 6, 11, 97
9, 22304, Control_c, 6, 11, 98
9, 22310, Control_c, 6, 11, 99
9, 22315, Control_c, 6, 11, 100
9, 22318, Note_on_c, 6, 66, 0
9, 22320, Note_on_c, 6, 68, 58
9, 22321, Control_c, 6, 11, 101
9, 22326, Control_c, 6, 11, 102
9, 22332, Control_c, 6, 11, 103
9, 22337, Control_c, 6, 11, 104
9, 22343, Control_c, 6, 11, 105
9, 22348, Control_c, 6, 11, 106
9, 22354, Control_c, 6, 11, 107
9, 22359, Control_c, 6, 11, 108
9, 22365, Control_c, 6, 11, 109
9, 22370, Control_c, 6, 11, 110
9, 22376, Control_c, 6, 11, 111
9, 22381, Control_c, 6, 11, 112
9, 22387, Control_c, 6, 11, 113
9, 22392, Control_c, 6, 11, 114
9, 22398, Control_c, 6, 11, 115
9, 22403, Control_c, 6, 11, 116
9, 22409, Control_c, 6, 11, 117
9, 22414, Control_c, 6, 11, 118
9, 22420, Control_c, 6, 11, 119
9, 22425, Control_c, 6, 11, 120
9, 22431, Control_c, 6, 11, 121
9, 22436, Control_c, 6, 11, 122
9, 22442, Control_c, 6, 11, 123
9, 22447, Control_c, 6, 11, 124
9, 22453, Control_c, 6, 11, 125
9, 22458, Control_c, 6, 11, 126
9, 22464, Control_c, 6, 11, 127
9, 22800, Note_on_c, 6, 68, 0
9, 22848, Control_c, 6, 11, 92
9, 22848, Note_on_c, 6, 68, 60
9, 22858, Control_c, 6, 11, 93
9, 22869, Control_c, 6, 11, 94
9, 22880, Control_c, 6, 11, 95
9, 22891, Control_c, 6, 11, 96
9, 22902, Control_c, 6, 11, 97
9, 22913, Control_c, 6, 11, 98
9, 22924, Control_c, 6, 11, 99
9, 22935, Control_c, 6, 11, 100
9, 22946, Control_c, 6, 11, 101
9, 22957, Control_c, 6, 11, 102
9, 22968, Control_c, 6, 11, 103
9, 22979, Control_c, 6, 11, 104
9, 22990, Control_c, 6, 11, 105
9, 23001, Control_c, 6, 11, 106
9, 23012, Control_c, 6, 11, 107
9, 23023, Control_c, 6, 11, 108
9, 23034, Control_c, 6, 11, 109
9, 23045, Control_c, 6, 11, 110
9, 23056, Control_c, 6, 11, 111
9, 23067, Control_c, 6, 11, 112
9, 23078, Control_c, 6, 11, 113
9, 23089, Control_c, 6, 11, 114
9, 23100, Control_c, 6, 11, 115
9, 23111, Control_c, 6, 11, 116
9, 23122, Control_c, 6, 11, 117
9, 23133, Control_c, 6, 11, 118
9, 23144, Control_c, 6, 11, 119
9, 23155, Control_c, 6, 11, 120
9, 23166, Control_c, 6, 11, 121
9, 23177, Control_c, 6, 11, 122
9, 23188, Control_c, 6, 11, 123
9, 23199, Control_c, 6, 11, 124
9, 23210, Control_c, 6, 11, 125
9, 23221, Control_c, 6, 11, 126
9, 23232, Note_on_c, 6, 68, 0
9, 23232, Control_c, 6, 11, 127
9, 23232, Note_on_c, 6, 68, 59
9, 23237, Control_c, 6, 11, 126
9, 23242, Control_c, 6, 11, 125
9, 23248, Control_c, 6, 11, 124
9, 23253, Control_c, 6, 11, 123
9, 23259, Control_c, 6, 11, 122
9, 23264, Control_c, 6, 11, 121
9, 23270, Control_c, 6, 11, 120
9, 23275, Control_c, 6, 11, 119
9, 23281, Control_c, 6, 11, 118
9, 23286, Control_c, 6, 11, 117
9, 23292, Control_c, 6, 11, 116
9, 23297, Control_c, 6, 11, 115
9, 23303, Control_c, 6, 11, 114
9, 23308, Control_c, 6, 11, 113
9, 23314, Control_c, 6, 11, 112
9, 23319, Control_c, 6, 11, 111
9, 23325, Control_c, 6, 11, 110
9, 23330, Control_c, 6, 11, 109
9, 23336, Control_c, 6, 11, 108
9, 23341, Control_c, 6, 11, 107
9, 23347, Control_c, 6, 11, 106
9, 23352, Control_c, 6, 11, 105
9, 23358, Control_c, 6, 11, 104
9, 23363, Control_c, 6, 11, 103
9, 23369, Control_c, 6, 11, 102
9, 23374, Control_c, 6, 11, 101
9, 23380, Control_c, 6, 11, 100
9, 23385, Control_c, 6, 11, 99
9, 23391, Control_c, 6, 11, 98
9, 23396, Control_c, 6, 11, 97
9, 23402, Control_c, 6, 11, 96
9, 23407, Control_c, 6, 11, 95
9, 23413, Control_c, 6, 11, 94
9, 23418, Control_c, 6, 11, 93
9, 23424, Note_on_c, 6, 68, 0
9, 23424, Control_c, 6, 11, 92
9, 24576, Control_c, 6, 11, 92
9, 24576, Note_on_c, 6, 66, 58
9, 24581, Control_c, 6, 11, 93
9, 24586, Control_c, 6, 11, 94
9, 24592, Control_c, 6, 11, 95
9, 24597, Control_c, 6, 11, 96
9, 24603, Control_c, 6, 11, 97
9, 24608, Control_c, 6, 11, 98
9, 24614, Control_c, 6, 11, 99
9, 24619, Control_c, 6, 11, 100
9, 24622, Note_on_c, 6, 66, 0
9, 24624, Note_on_c, 6, 68, 55
9, 24625, Control_c, 6, 11, 101
9, 24630, Control_c, 6, 11, 102
9, 24636, Control_c, 6, 11, 103
9, 24641, Control_c, 6, 11, 104
9, 24647, Control_c, 6, 11, 105
9, 24652, Control_c, 6, 11, 106
9, 24658, Control_c, 6, 11, 107
9, 24663, Control_c, 6, 11, 108
9, 24669, Control_c, 6, 11, 109
9, 24674, Control_c, 6, 11, 110
9, 24680, Control_c, 6, 11, 111
9, 24685, Control_c, 6, 11, 112
9, 24691, Control_c, 6, 11, 113
9, 24696, Control_c, 6, 11, 114
9, 24702, Control_c, 6, 11, 115
9, 24707, Control_c, 6, 11, 116
9, 24713, Control_c, 6, 11, 117
9, 24718, Control_c, 6, 11, 118
9, 24724, Control_c, 6, 11, 119
9, 24729, Control_c, 6, 11, 120
9, 24735, Control_c, 6, 11, 121
9, 24740, Control_c, 6, 11, 122
9, 24746, Control_c, 6, 11, 123
9, 24751, Control_c, 6, 11, 124
9, 24757, Control_c, 6, 11, 125
9, 24762, Control_c, 6, 11, 126
9, 24768, Control_c, 6, 11, 127
9, 25104, Note_on_c, 6, 68, 0
9, 25152, Control_c, 6, 11, 92
9, 25152, Note_on_c, 6, 68, 57
9, 25168, Control_c, 6, 11, 93
9, 25184, Control_c, 6, 11, 94
9, 25201, Control_c, 6, 11, 95
9, 25217, Control_c, 6, 11, 96
9, 25234, Control_c, 6, 11, 97
9, 25250, Control_c, 6, 11, 98
9, 25267, Control_c, 6, 11, 99
9, 25283, Control_c, 6, 11, 100
9, 25300, Control_c, 6, 11, 101
9, 25316, Control_c, 6, 11, 102
9, 25333, Control_c, 6, 11, 103
9, 25349, Control_c, 6, 11, 104
9, 25365, Control_c, 6, 11, 105
9, 25382, Control_c, 6, 11, 106
9, 25398, Control_c, 6, 11, 107
9, 25415, Control_c, 6, 11, 108
9, 25431, Control_c, 6, 11, 109
9, 25448, Control_c, 6, 11, 110
9, 25464, Control_c, 6, 11, 111
9, 25481, Control_c, 6, 11, 112
9, 25497, Control_c, 6, 11, 113
9, 25514, Control_c, 6, 11, 114
9, 25530, Control_c, 6, 11, 115
9, 25536, Note_on_c, 6, 68, 0
9, 25536, Note_on_c, 6, 68, 61
9, 25546, Control_c, 6, 11, 116
9, 25563, Control_c, 6, 11, 117
9, 25579, Control_c, 6, 11, 118
9, 25596, Control_c, 6, 11, 119
9, 25612, Control_c, 6, 11, 120
9, 25629, Control_c, 6, 11, 121
9, 25645, Control_c, 6, 11, 122
9, 25662, Control_c, 6, 11, 123
9, 25678, Control_c, 6, 11, 124
9, 25695, Control_c, 6, 11, 125
9, 25711, Control_c, 6, 11, 126
9, 25728, Note_on_c, 6, 68, 0
9, 25728, Control_c, 6, 11, 127
9, 26880, Control_c, 6, 11, 92
9, 26880, Note_on_c, 6, 66, 55
9, 26885, Control_c, 6, 11, 93
9, 26890, Control_c, 6, 11, 94
9, 26896, Control_c, 6, 11, 95
9, 26901, Control_c, 6, 11, 96
9, 26907, Control_c, 6, 11, 97
9, 26912, Control_c, 6, 11, 98
9, 26918, Control_c, 6, 11, 99
9, 26923, Control_c, 6, 11, 100
9, 26926, Note_on_c, 6, 66, 0
9, 26928, Note_on_c, 6, 68, 58
9, 26929, Control_c, 6, 11, 101
9, 26934, Control_c, 6, 11, 102
9, 26940, Control_c, 6, 11, 103
9, 26945, Control_c, 6, 11, 104
9, 26951, Control_c, 6, 11, 105
9, 26956, Control_c, 6, 11, 106
9, 26962, Control_c, 6, 11, 107
9, 26967, Control_c, 6, 11, 108
9, 26973, Control_c, 6, 11, 109
9, 26978, Control_c, 6, 11, 110
9, 26984, Control_c, 6, 11, 111
9, 26989, Control_c, 6, 11, 112
9, 26995, Control_c, 6, 11, 113
9, 27000, Control_c, 6, 11, 114
9, 27006, Control_c, 6, 11, 115
9, 27011, Control_c, 6, 11, 116
9, 27017, Control_c, 6, 11, 117
9, 27022, Control_c, 6, 11, 118
9, 27028, Control_c, 6, 11, 119
9, 27033, Control_c, 6, 11, 120
9, 27039, Control_c, 6, 11, 121
9, 27044, Control_c, 6, 11, 122
9, 27050, Control_c, 6, 11, 123
9, 27055, Control_c, 6, 11, 124
9, 27061, Control_c, 6, 11, 125
9, 27066, Control_c, 6, 11, 126
9, 27072, Control_c, 6, 11, 127
9, 27408, Note_on_c, 6, 68, 0
9, 27456, Control_c, 6, 11, 92
9, 27456, Note_on_c, 6, 68, 61
9, 27472, Control_c, 6, 11, 93
9, 27488, Control_c, 6, 11, 94
9, 27505, Control_c, 6, 11, 95
9, 27521, Control_c, 6, 11, 96
9, 27538, Control_c, 6, 11, 97
9, 27554, Control_c, 6, 11, 98
9, 27571, Control_c, 6, 11, 99
9, 27587, Control_c, 6, 11, 100
9, 27604, Control_c, 6, 11, 101
9, 27620, Control_c, 6, 11, 102
9, 27637, Control_c, 6, 11, 103
9, 27653, Control_c, 6, 11, 104
9, 27669, Control_c, 6, 11, 105
9, 27686, Control_c, 6, 11, 106
9, 27702, Control_c, 6, 11, 107
9, 27719, Control_c, 6, 11, 108
9, 27735, Control_c, 6, 11, 109
9, 27752, Control_c, 6, 11, 110
9, 27768, Control_c, 6, 11, 111
9, 27785, Control_c, 6, 11, 112
9, 27801, Control_c, 6, 11, 113
9, 27818, Control_c, 6, 11, 114
9, 27834, Control_c, 6, 11, 115
9, 27840, Note_on_c, 6, 68, 0
9, 27840, Note_on_c, 6, 68, 59
9, 27850, Control_c, 6, 11, 116
9, 27867, Control_c, 6, 11, 117
9, 27883, Control_c, 6, 11, 118
9, 27900, Control_c, 6, 11, 119
9, 27916, Control_c, 6, 11, 120
9, 27933, Control_c, 6, 11, 121
9, 27949, Control_c, 6, 11, 122
9, 27966, Control_c, 6, 11, 123
9, 27982, Control_c, 6, 11, 124
9, 27999, Control_c, 6, 11, 125
9, 28015, Control_c, 6, 11, 126
9, 28032, Note_on_c, 6, 68, 0
9, 28032, Control_c, 6, 11, 127
9, 29184, Control_c, 6, 11, 92
9, 29184, Note_on_c, 6, 66, 61
9, 29189, Control_c, 6, 11, 93
9, 29194, Control_c, 6, 11, 94
9, 29200, Control_c, 6, 11, 95
9, 29205, Control_c, 6, 11, 96
9, 29211, Control_c, 6, 11, 97
9, 29216, Control_c, 6, 11, 98
9, 29222, Control_c, 6, 11, 99
9, 29227, Control_c, 6, 11, 100
9, 29230, Note_on_c, 6, 66, 0
9, 29232, Note_on_c, 6, 68, 62
9, 29233, Control_c, 6, 11, 101
9, 29238, Control_c, 6, 11, 102
9, 29244, Control_c, 6, 11, 103
9, 29249, Control_c, 6, 11, 104
9, 29255, Control_c, 6, 11, 105
9, 29260, Control_c, 6, 11, 106
9, 29266, Control_c, 6, 11, 107
9, 29271, Control_c, 6, 11, 108
9, 29277, Control_c, 6, 11, 109
9, 29282, Control_c, 6, 11, 110
9, 29288, Control_c, 6, 11, 111
9, 29293, Control_c, 6, 11, 112
9, 29299, Control_c, 6, 11, 113
9, 29304, Control_c, 6, 11, 114
9, 29310, Control_c, 6, 11, 115
9, 29315, Control_c, 6, 11, 116
9, 29321, Control_c, 6, 11, 117
9, 29326, Control_c, 6, 11, 118
9, 29332, Control_c, 6, 11, 119
9, 29337, Control_c, 6, 11, 120
9, 29343, Control_c, 6, 11, 121
9, 29348, Control_c, 6, 11, 122
9, 29354, Control_c, 6, 11, 123
9, 29359, Control_c, 6, 11, 124
9, 29365, Control_c, 6, 11, 125
9, 29370, Control_c, 6, 11, 126
9, 29376, Control_c, 6, 11, 127
9, 29712, Note_on_c, 6, 68, 0
9, 29760, Control_c, 6, 11, 92
9, 29760, Note_on_c, 6, 68, 60
9, 29776, Control_c, 6, 11, 93
9, 29792, Control_c, 6, 11, 94
9, 29809, Control_c, 6, 11, 95
9, 29825, Control_c, 6, 11, 96
9, 29842, Control_c, 6, 11, 97
9, 29858, Control_c, 6, 11, 98
9, 29875, Control_c, 6, 11, 99
9, 29891, Control_c, 6, 11, 100
9, 29908, Control_c, 6, 11, 101
9, 29924, Control_c, 6, 11, 102
9, 29941, Control_c, 6, 11, 103
9, 29957, Control_c, 6, 11, 104
9, 29973, Control_c, 6, 11, 105
9, 29990, Control_c, 6, 11, 106
9, 30006, Control_c, 6, 11, 107
9, 30023, Control_c, 6, 11, 108
9, 30039, Control_c, 6, 11, 109
9, 30056, Control_c, 6, 11, 110
9, 30072, Control_c, 6, 11, 111
9, 30089, Control_c, 6, 11, 112
9, 30105, Control_c, 6, 11, 113
9, 30122, Control_c, 6, 11, 114
9, 30138, Control_c, 6, 11, 115
9, 30144, Note_on_c, 6, 68, 0
9, 30144, Note_on_c, 6, 68, 55
9, 30154, Control_c, 6, 11, 116
9, 30171, Control_c, 6, 11, 117
9, 30187, Control_c, 6, 11, 118
9, 30204, Control_c, 6, 11, 119
9, 30220, Control_c, 6, 11, 120
9, 30237, Control_c, 6, 11, 121
9, 30253, Control_c, 6, 11, 122
9, 30270, Control_c, 6, 11, 123
9, 30286, Control_c, 6, 11, 124
9, 30303, Control_c, 6, 11, 125
9, 30319, Control_c, 6, 11, 126
9, 30336, Note_on_c, 6, 68, 0
9, 30336, Control_c, 6, 11, 127
9, 54240, Program_c, 6, 59
9, 54528, Control_c, 6, 11, 127
9, 54528, Note_on_c, 6, 68, 71
9, 54670, Note_on_c, 6, 68, 0
9, 54672, Note_on_c, 6, 70, 70
9, 54814, Note_on_c, 6, 70, 0
9, 54816, Note_on_c, 6, 73, 72
9, 54910, Note_on_c, 6, 73, 0
9, 54912, Note_on_c, 6, 71, 77
9, 55006, Note_on_c, 6, 71, 0
9, 55008, Note_on_c, 6, 70, 77
9, 55102, Note_on_c, 6, 70, 0
9, 55104, Note_on_c, 6, 68, 74
9, 55246, Note_on_c, 6, 68, 0
9, 55248, Note_on_c, 6, 66, 73
9, 55390, Note_on_c, 6, 66, 0
9, 55392, Control_c, 6, 11, 92
9, 55392, Note_on_c, 6, 64, 91
9, 55408, Control_c, 6, 11, 93
9, 55424, Control_c, 6, 11, 94
9, 55441, Control_c, 6, 11, 95
9, 55457, Control_c, 6, 11, 96
9, 55474, Control_c, 6, 11, 97
9, 55490, Control_c, 6, 11, 98
9, 55507, Control_c, 6, 11, 99
9, 55523, Control_c, 6, 11, 100
9, 55540, Control_c, 6, 11, 101
9, 55556, Control_c, 6, 11, 102
9, 55573, Control_c, 6, 11, 103
9, 55584, Note_on_c, 6, 64, 0
9, 55584, Note_on_c, 6, 68, 88
9, 55589, Control_c, 6, 11, 104
9, 55605, Control_c, 6, 11, 105
9, 55622, Control_c, 6, 11, 106
9, 55638, Control_c, 6, 11, 107
9, 55655, Control_c, 6, 11, 108
9, 55671, Control_c, 6, 11, 109
9, 55688, Control_c, 6, 11, 110
9, 55704, Control_c, 6, 11, 111
9, 55721, Control_c, 6, 11, 112
9, 55737, Control_c, 6, 11, 113
9, 55754, Control_c, 6, 11, 114
9, 55770, Control_c, 6, 11, 115
9, 55776, Note_on_c, 6, 68, 0
9, 55776, Note_on_c, 6, 70, 97
9, 55786, Control_c, 6, 11, 116
9, 55803, Control_c, 6, 11, 117
9, 55819, Control_c, 6, 11, 118
9, 55836, Control_c, 6, 11, 119
9, 55852, Control_c, 6, 11, 120
9, 55869, Control_c, 6, 11, 121
9, 55885, Control_c, 6, 11, 122
9, 55902, Control_c, 6, 11, 123
9, 55918, Control_c, 6, 11, 124
9, 55935, Control_c, 6, 11, 125
9, 55936, Note_on_c, 6, 70, 0
9, 55951, Control_c, 6, 11, 126
9, 55968, Control_c, 6, 11, 127
9, 55968, Note_on_c, 6, 73, 92
9, 55984, Control_c, 6, 11, 126
9, 56000, Control_c, 6, 11, 125
9, 56017, Control_c, 6, 11, 124
9, 56033, Control_c, 6, 11, 123
9, 56050, Control_c, 6, 11, 122
9, 56062, Note_on_c, 6, 73, 0
9, 56064, Note_on_c, 6, 71, 87
9, 56066, Control_c, 6, 11, 121
9, 56083, Control_c, 6, 11, 120
9, 56099, Control_c, 6, 11, 119
9, 56116, Control_c, 6, 11, 118
9, 56132, Control_c, 6, 11, 117
9, 56149, Control_c, 6, 11, 116
9, 56158, Note_on_c, 6, 71, 0
9, 56160, Note_on_c, 6, 70, 97
9, 56165, Control_c, 6, 11, 115
9, 56181, Control_c, 6, 11, 114
9, 56198, Control_c, 6, 11, 113
9, 56214, Control_c, 6, 11, 112
9, 56231, Control_c, 6, 11, 111
9, 56247, Control_c, 6, 11, 110
9, 56254, Note_on_c, 6, 70, 0
9, 56256, Note_on_c, 6, 68, 87
9, 56264, Control_c, 6, 11, 109
9, 56280, Control_c, 6, 11, 108
9, 56297, Control_c, 6, 11, 107
9, 56313, Control_c, 6, 11, 106
9, 56330, Control_c, 6, 11, 105
9, 56346, Control_c, 6, 11, 104
9, 56362, Control_c, 6, 11, 103
9, 56379, Control_c, 6, 11, 102
9, 56395, Control_c, 6, 11, 101
9, 56412, Control_c, 6, 11, 100
9, 56428, Control_c, 6, 11, 99
9, 56445, Control_c, 6, 11, 98
9, 56461, Control_c, 6, 11, 97
9, 56478, Control_c, 6, 11, 96
9, 56494, Control_c, 6, 11, 95
9, 56511, Control_c, 6, 11, 94
9, 56527, Control_c, 6, 11, 93
9, 56544, Note_on_c, 6, 68, 0
9, 56544, Control_c, 6, 11, 92
9, 56544, Control_c, 6, 11, 127
9, 57216, Note_on_c, 6, 66, 73
9, 57216, Note_on_c, 6, 73, 71
9, 57237, Note_on_c, 6, 66, 0
9, 57237, Note_on_c, 6, 73, 0
9, 57248, Note_on_c, 6, 64, 70
9, 57248, Note_on_c, 6, 71, 77
9, 57269, Note_on_c, 6, 64, 0
9, 57269, Note_on_c, 6, 71, 0
9, 57280, Note_on_c, 6, 61, 81
9, 57280, Note_on_c, 6, 68, 85
9, 57301, Note_on_c, 6, 61, 0
9, 57301, Note_on_c, 6, 68, 0
9, 57312, Control_c, 6, 11, 127
9, 57312, Note_on_c, 6, 59, 88
9, 57312, Note_on_c, 6, 66, 97
9, 57315, Control_c, 6, 11, 126
9, 57318, Control_c, 6, 11, 125
9, 57321, Control_c, 6, 11, 124
9, 57324, Control_c, 6, 11, 123
9, 57327, Control_c, 6, 11, 122
9, 57330, Control_c, 6, 11, 121
9, 57333, Control_c, 6, 11, 120
9, 57336, Control_c, 6, 11, 119
9, 57339, Control_c, 6, 11, 118
9, 57342, Control_c, 6, 11, 117
9, 57345, Control_c, 6, 11, 116
9, 57348, Control_c, 6, 11, 115
9, 57351, Control_c, 6, 11, 114
9, 57354, Control_c, 6, 11, 113
9, 57357, Control_c, 6, 11, 112
9, 57360, Control_c, 6, 11, 111
9, 57363, Control_c, 6, 11, 110
9, 57366, Control_c, 6, 11, 109
9, 57369, Control_c, 6, 11, 108
9, 57372, Control_c, 6, 11, 107
9, 57376, Control_c, 6, 11, 106
9, 57379, Control_c, 6, 11, 105
9, 57382, Control_c, 6, 11, 104
9, 57385, Control_c, 6, 11, 103
9, 57388, Control_c, 6, 11, 102
9, 57391, Control_c, 6, 11, 101
9, 57394, Control_c, 6, 11, 100
9, 57397, Control_c, 6, 11, 99
9, 57400, Control_c, 6, 11, 98
9, 57403, Control_c, 6, 11, 97
9, 57406, Control_c, 6, 11, 96
9, 57409, Control_c, 6, 11, 95
9, 57412, Control_c, 6, 11, 94
9, 57415, Control_c, 6, 11, 93
9, 57418, Control_c, 6, 11, 92
9, 57421, Control_c, 6, 11, 91
9, 57424, Control_c, 6, 11, 90
9, 57427, Control_c, 6, 11, 89
9, 57430, Control_c, 6, 11, 88
9, 57433, Control_c, 6, 11, 87
9, 57436, Control_c, 6, 11, 86
9, 57440, Control_c, 6, 11, 85
9, 57443, Control_c, 6, 11, 84
9, 57446, Control_c, 6, 11, 83
9, 57449, Control_c, 6, 11, 82
9, 57452, Control_c, 6, 11, 81
9, 57455, Control_c, 6, 11, 80
9, 57458, Control_c, 6, 11, 79
9, 57461, Control_c, 6, 11, 78
9, 57464, Control_c, 6, 11, 77
9, 57467, Control_c, 6, 11, 76
9, 57470, Control_c, 6, 11, 75
9, 57473, Control_c, 6, 11, 74
9, 57476, Control_c, 6, 11, 73
9, 57479, Control_c, 6, 11, 72
9, 57482, Control_c, 6, 11, 71
9, 57485, Control_c, 6, 11, 70
9, 57488, Control_c, 6, 11, 69
9, 57491, Control_c, 6, 11, 68
9, 57494, Control_c, 6, 11, 67
9, 57497, Control_c, 6, 11, 66
9, 57500, Control_c, 6, 11, 65
9, 57502, Note_on_c, 6, 59, 0
9, 57502, Note_on_c, 6, 66, 0
9, 57504, Control_c, 6, 11, 64
9, 57696, Control_c, 6, 11, 127
9, 84960, Program_c, 6, 59
9, 86112, Control_c, 6, 11, 92
9, 86112, Note_on_c, 6, 70, 55
9, 86206, Note_on_c, 6, 70, 0
9, 86208, Note_on_c, 6, 70, 55
9, 86302, Note_on_c, 6, 70, 0
9, 86304, Note_on_c, 6, 70, 62
9, 86398, Note_on_c, 6, 70, 0
9, 86400, Note_on_c, 6, 70, 57
9, 86542, Note_on_c, 6, 70, 0
9, 86544, Note_on_c, 6, 70, 65
9, 86830, Note_on_c, 6, 70, 0
9, 86832, Note_on_c, 6, 72, 65
9, 86974, Note_on_c, 6, 72, 0
9, 86976, Control_c, 6, 11, 92
9, 86976, Note_on_c, 6, 75, 56
9, 86984, Control_c, 6, 11, 93
9, 86992, Control_c, 6, 11, 94
9, 87000, Control_c, 6, 11, 95
9, 87008, Control_c, 6, 11, 96
9, 87017, Control_c, 6, 11, 97
9, 87025, Control_c, 6, 11, 98
9, 87033, Control_c, 6, 11, 99
9, 87041, Control_c, 6, 11, 100
9, 87050, Control_c, 6, 11, 101
9, 87058, Control_c, 6, 11, 102
9, 87066, Control_c, 6, 11, 103
9, 87074, Control_c, 6, 11, 104
9, 87082, Control_c, 6, 11, 105
9, 87091, Control_c, 6, 11, 106
9, 87099, Control_c, 6, 11, 107
9, 87107, Control_c, 6, 11, 108
9, 87115, Control_c, 6, 11, 109
9, 87124, Control_c, 6, 11, 110
9, 87132, Control_c, 6, 11, 111
9, 87140, Control_c, 6, 11, 112
9, 87148, Control_c, 6, 11, 113
9, 87157, Control_c, 6, 11, 114
9, 87165, Control_c, 6, 11, 115
9, 87173, Control_c, 6, 11, 116
9, 87181, Control_c, 6, 11, 117
9, 87189, Control_c, 6, 11, 118
9, 87198, Control_c, 6, 11, 119
9, 87206, Control_c, 6, 11, 120
9, 87214, Control_c, 6, 11, 121
9, 87222, Control_c, 6, 11, 122
9, 87231, Control_c, 6, 11, 123
9, 87239, Control_c, 6, 11, 124
9, 87247, Control_c, 6, 11, 125
9, 87255, Control_c, 6, 11, 126
9, 87264, Control_c, 6, 11, 127
9, 87358, Note_on_c, 6, 75, 0
9, 87360, Note_on_c, 6, 73, 65
9, 87454, Note_on_c, 6, 73, 0
9, 87456, Note_on_c, 6, 72, 63
9, 87550, Note_on_c, 6, 72, 0
9, 87552, Note_on_c, 6, 70, 65
9, 87694, Note_on_c, 6, 70, 0
9, 87696, Note_on_c, 6, 68, 56
9, 87838, Note_on_c, 6, 68, 0
9, 87840, Note_on_c, 6, 66, 61
9, 87982, Note_on_c, 6, 66, 0
9, 87984, Control_c, 6, 11, 92
9, 87984, Note_on_c, 6, 70, 56
9, 87996, Control_c, 6, 11, 93
9, 88008, Control_c, 6, 11, 94
9, 88021, Control_c, 6, 11, 95
9, 88033, Control_c, 6, 11, 96
9, 88045, Control_c, 6, 11, 97
9, 88058, Control_c, 6, 11, 98
9, 88070, Control_c, 6, 11, 99
9, 88082, Control_c, 6, 11, 100
9, 88095, Control_c, 6, 11, 101
9, 88107, Control_c, 6, 11, 102
9, 88119, Control_c, 6, 11, 103
9, 88132, Control_c, 6, 11, 104
9, 88144, Control_c, 6, 11, 105
9, 88156, Control_c, 6, 11, 106
9, 88169, Control_c, 6, 11, 107
9, 88181, Control_c, 6, 11, 108
9, 88193, Control_c, 6, 11, 109
9, 88206, Control_c, 6, 11, 110
9, 88218, Control_c, 6, 11, 111
9, 88230, Control_c, 6, 11, 112
9, 88240, Note_on_c, 6, 70, 0
9, 88243, Control_c, 6, 11, 113
9, 88255, Control_c, 6, 11, 114
9, 88267, Control_c, 6, 11, 115
9, 88272, Note_on_c, 6, 72, 63
9, 88280, Control_c, 6, 11, 116
9, 88292, Control_c, 6, 11, 117
9, 88304, Control_c, 6, 11, 118
9, 88317, Control_c, 6, 11, 119
9, 88329, Control_c, 6, 11, 120
9, 88341, Control_c, 6, 11, 121
9, 88354, Control_c, 6, 11, 122
9, 88366, Control_c, 6, 11, 123
9, 88378, Control_c, 6, 11, 124
9, 88391, Control_c, 6, 11, 125
9, 88403, Control_c, 6, 11, 126
9, 88414, Note_on_c, 6, 72, 0
9, 88416, Control_c, 6, 11, 127
9, 88416, Note_on_c, 6, 75, 60
9, 88420, Control_c, 6, 11, 126
9, 88425, Control_c, 6, 11, 125
9, 88429, Control_c, 6, 11, 124
9, 88434, Control_c, 6, 11, 123
9, 88438, Control_c, 6, 11, 122
9, 88443, Control_c, 6, 11, 121
9, 88448, Control_c, 6, 11, 120
9, 88452, Control_c, 6, 11, 119
9, 88457, Control_c, 6, 11, 118
9, 88461, Control_c, 6, 11, 117
9, 88466, Control_c, 6, 11, 116
9, 88470, Control_c, 6, 11, 115
9, 88475, Control_c, 6, 11, 114
9, 88480, Control_c, 6, 11, 113
9, 88484, Control_c, 6, 11, 112
9, 88489, Control_c, 6, 11, 111
9, 88493, Control_c, 6, 11, 110
9, 88498, Control_c, 6, 11, 109
9, 88502, Control_c, 6, 11, 108
9, 88507, Control_c, 6, 11, 107
9, 88510, Note_on_c, 6, 75, 0
9, 88512, Control_c, 6, 11, 106
9, 88512, Note_on_c, 6, 73, 60
9, 88516, Control_c, 6, 11, 105
9, 88521, Control_c, 6, 11, 104
9, 88525, Control_c, 6, 11, 103
9, 88530, Control_c, 6, 11, 102
9, 88534, Control_c, 6, 11, 101
9, 88539, Control_c, 6, 11, 100
9, 88544, Control_c, 6, 11, 99
9, 88548, Control_c, 6, 11, 98
9, 88553, Control_c, 6, 11, 97
9, 88557, Control_c, 6, 11, 96
9, 88562, Control_c, 6, 11, 95
9, 88566, Control_c, 6, 11, 94
9, 88571, Control_c, 6, 11, 93
9, 88576, Control_c, 6, 11, 92
9, 88580, Control_c, 6, 11, 91
9, 88585, Control_c, 6, 11, 90
9, 88589, Control_c, 6, 11, 89
9, 88594, Control_c, 6, 11, 88
9, 88598, Control_c, 6, 11, 87
9, 88603, Control_c, 6, 11, 86
9, 88606, Note_on_c, 6, 73, 0
9, 88608, Control_c, 6, 11, 85
9, 88608, Note_on_c, 6, 72, 56
9, 88612, Control_c, 6, 11, 84
9, 88617, Control_c, 6, 11, 83
9, 88621, Control_c, 6, 11, 82
9, 88626, Control_c, 6, 11, 81
9, 88630, Control_c, 6, 11, 80
9, 88635, Control_c, 6, 11, 79
9, 88640, Control_c, 6, 11, 78
9, 88644, Control_c, 6, 11, 77
9, 88649, Control_c, 6, 11, 76
9, 88653, Control_c, 6, 11, 75
9, 88658, Control_c, 6, 11, 74
9, 88662, Control_c, 6, 11, 73
9, 88667, Control_c, 6, 11, 72
9, 88672, Control_c, 6, 11, 71
9, 88676, Control_c, 6, 11, 70
9, 88681, Control_c, 6, 11, 69
9, 88685, Control_c, 6, 11, 68
9, 88690, Control_c, 6, 11, 67
9, 88694, Control_c, 6, 11, 66
9, 88699, Control_c, 6, 11, 65
9, 88702, Note_on_c, 6, 72, 0
9, 88704, Control_c, 6, 11, 64
9, 88704, Note_on_c, 6, 70, 61
9, 89536, Note_on_c, 6, 70, 0
9, 94176, Control_c, 6, 11, 127
9, 95328, Note_on_c, 6, 77, 77
9, 95358, Note_on_c, 6, 77, 0
9, 95360, Note_on_c, 6, 75, 72
9, 95390, Note_on_c, 6, 75, 0
9, 95392, Note_on_c, 6, 73, 79
9, 95422, Note_on_c, 6, 73, 0
9, 95424, Note_on_c, 6, 67, 50
9, 95424, Note_on_c, 6, 71, 49
9, 95566, Note_on_c, 6, 67, 0
9, 95566, Note_on_c, 6, 71, 0
9, 95568, Note_on_c, 6, 65, 47
9, 95614, Note_on_c, 6, 65, 0
9, 95616, Note_on_c, 6, 63, 36
9, 95662, Note_on_c, 6, 63, 0
9, 95664, Note_on_c, 6, 61, 33
9, 95710, Note_on_c, 6, 61, 0
9, 109536, Program_c, 6, 56
9, 109920, Control_c, 6, 11, 45
9, 109920, Note_on_c, 6, 61, 101
9, 109928, Control_c, 6, 11, 46
9, 109936, Control_c, 6, 11, 47
9, 109944, Control_c, 6, 11, 48
9, 109952, Control_c, 6, 11, 49
9, 109960, Control_c, 6, 11, 50
9, 109969, Control_c, 6, 11, 51
9, 109977, Control_c, 6, 11, 52
9, 109985, Control_c, 6, 11, 53
9, 109993, Control_c, 6, 11, 54
9, 110001, Control_c, 6, 11, 55
9, 110009, Control_c, 6, 11, 56
9, 110018, Control_c, 6, 11, 57
9, 110026, Control_c, 6, 11, 58
9, 110034, Control_c, 6, 11, 59
9, 110042, Control_c, 6, 11, 60
9, 110050, Control_c, 6, 11, 61
9, 110058, Control_c, 6, 11, 62
9, 110067, Control_c, 6, 11, 63
9, 110075, Control_c, 6, 11, 64
9, 110080, Note_on_c, 6, 61, 0
9, 110083, Control_c, 6, 11, 65
9, 110091, Control_c, 6, 11, 66
9, 110099, Control_c, 6, 11, 67
9, 110107, Control_c, 6, 11, 68
9, 110112, Note_on_c, 6, 66, 98
9, 110116, Control_c, 6, 11, 69
9, 110124, Control_c, 6, 11, 70
9, 110132, Control_c, 6, 11, 71
9, 110140, Control_c, 6, 11, 72
9, 110148, Control_c, 6, 11, 73
9, 110156, Control_c, 6, 11, 74
9, 110165, Control_c, 6, 11, 75
9, 110173, Control_c, 6, 11, 76
9, 110181, Control_c, 6, 11, 77
9, 110189, Control_c, 6, 11, 78
9, 110197, Control_c, 6, 11, 79
9, 110205, Control_c, 6, 11, 80
9, 110214, Control_c, 6, 11, 81
9, 110222, Control_c, 6, 11, 82
9, 110230, Control_c, 6, 11, 83
9, 110238, Control_c, 6, 11, 84
9, 110246, Control_c, 6, 11, 85
9, 110254, Control_c, 6, 11, 86
9, 110263, Control_c, 6, 11, 87
9, 110271, Control_c, 6, 11, 88
9, 110272, Note_on_c, 6, 66, 0
9, 110279, Control_c, 6, 11, 89
9, 110287, Control_c, 6, 11, 90
9, 110295, Control_c, 6, 11, 91
9, 110304, Control_c, 6, 11, 92
9, 110304, Note_on_c, 6, 73, 100
9, 110320, Control_c, 6, 11, 93
9, 110336, Control_c, 6, 11, 94
9, 110353, Control_c, 6, 11, 95
9, 110369, Control_c, 6, 11, 96
9, 110386, Control_c, 6, 11, 97
9, 110402, Control_c, 6, 11, 98
9, 110419, Control_c, 6, 11, 99
9, 110435, Control_c, 6, 11, 100
9, 110452, Control_c, 6, 11, 101
9, 110468, Control_c, 6, 11, 102
9, 110485, Control_c, 6, 11, 103
9, 110501, Control_c, 6, 11, 104
9, 110517, Control_c, 6, 11, 105
9, 110534, Control_c, 6, 11, 106
9, 110550, Control_c, 6, 11, 107
9, 110567, Control_c, 6, 11, 108
9, 110583, Control_c, 6, 11, 109
9, 110592, Note_on_c, 6, 73, 0
9, 110592, Note_on_c, 6, 75, 95
9, 110600, Control_c, 6, 11, 110
9, 110616, Control_c, 6, 11, 111
9, 110633, Control_c, 6, 11, 112
9, 110649, Control_c, 6, 11, 113
9, 110666, Control_c, 6, 11, 114
9, 110682, Control_c, 6, 11, 115
9, 110686, Note_on_c, 6, 75, 0
9, 110688, Note_on_c, 6, 72, 96
9, 110688, Note_on_c, 6, 75, 101
9, 110698, Control_c, 6, 11, 116
9, 110715, Control_c, 6, 11, 117
9, 110731, Control_c, 6, 11, 118
9, 110734, Note_on_c, 6, 72, 0
9, 110734, Note_on_c, 6, 75, 0
9, 110736, Note_on_c, 6, 73, 103
9, 110736, Note_on_c, 6, 77, 97
9, 110748, Control_c, 6, 11, 119
9, 110764, Control_c, 6, 11, 120
9, 110781, Control_c, 6, 11, 121
9, 110797, Control_c, 6, 11, 122
9, 110814, Control_c, 6, 11, 123
9, 110830, Control_c, 6, 11, 124
9, 110847, Control_c, 6, 11, 125
9, 110863, Control_c, 6, 11, 126
9, 110880, Control_c, 6, 11, 127
9, 111040, Note_on_c, 6, 73, 0
9, 111040, Note_on_c, 6, 77, 0
9, 111072, Control_c, 6, 11, 92
9, 111072, Note_on_c, 6, 73, 105
9, 111093, Control_c, 6, 11, 93
9, 111115, Control_c, 6, 11, 94
9, 111137, Control_c, 6, 11, 95
9, 111159, Control_c, 6, 11, 96
9, 111181, Control_c, 6, 11, 97
9, 111203, Control_c, 6, 11, 98
9, 111225, Control_c, 6, 11, 99
9, 111247, Control_c, 6, 11, 100
9, 111269, Control_c, 6, 11, 101
9, 111291, Control_c, 6, 11, 102
9, 111313, Control_c, 6, 11, 103
9, 111335, Control_c, 6, 11, 104
9, 111357, Control_c, 6, 11, 105
9, 111360, Note_on_c, 6, 73, 0
9, 111360, Note_on_c, 6, 75, 99
9, 111379, Control_c, 6, 11, 106
9, 111401, Control_c, 6, 11, 107
9, 111423, Control_c, 6, 11, 108
9, 111445, Control_c, 6, 11, 109
9, 111454, Note_on_c, 6, 75, 0
9, 111456, Note_on_c, 6, 72, 102
9, 111456, Note_on_c, 6, 75, 95
9, 111466, Control_c, 6, 11, 110
9, 111488, Control_c, 6, 11, 111
9, 111502, Note_on_c, 6, 72, 0
9, 111502, Note_on_c, 6, 75, 0
9, 111504, Note_on_c, 6, 73, 102
9, 111504, Note_on_c, 6, 77, 103
9, 111510, Control_c, 6, 11, 112
9, 111532, Control_c, 6, 11, 113
9, 111554, Control_c, 6, 11, 114
9, 111576, Control_c, 6, 11, 115
9, 111598, Control_c, 6, 11, 116
9, 111620, Control_c, 6, 11, 117
9, 111642, Control_c, 6, 11, 118
9, 111664, Control_c, 6, 11, 119
9, 111686, Control_c, 6, 11, 120
9, 111708, Control_c, 6, 11, 121
9, 111730, Control_c, 6, 11, 122
9, 111744, Note_on_c, 6, 73, 0
9, 111744, Note_on_c, 6, 77, 0
9, 111744, Note_on_c, 6, 75, 100
9, 111744, Note_on_c, 6, 79, 97
9, 111752, Control_c, 6, 11, 123
9, 111774, Control_c, 6, 11, 124
9, 111796, Control_c, 6, 11, 125
9, 111818, Control_c, 6, 11, 126
9, 111838, Note_on_c, 6, 75, 0
9, 111838, Note_on_c, 6, 79, 0
9, 111840, Control_c, 6, 11, 127
9, 111840, Control_c, 6, 11, 92
9, 111840, Note_on_c, 6, 67, 127
9, 111840, Note_on_c, 6, 75, 127
9, 111840, Note_on_c, 6, 79, 127
9, 111850, Control_c, 6, 11, 93
9, 111861, Control_c, 6, 11, 94
9, 111872, Control_c, 6, 11, 95
9, 111883, Control_c, 6, 11, 96
9, 111886, Note_on_c, 6, 67, 0
9, 111886, Note_on_c, 6, 75, 0
9, 111886, Note_on_c, 6, 79, 0
9, 111888, Note_on_c, 6, 65, 127
9, 111888, Note_on_c, 6, 73, 123
9, 111888, Note_on_c, 6, 77, 127
9, 111894, Control_c, 6, 11, 97
9, 111905, Control_c, 6, 11, 98
9, 111916, Control_c, 6, 11, 99
9, 111927, Control_c, 6, 11, 100
9, 111938, Control_c, 6, 11, 101
9, 111949, Control_c, 6, 11, 102
9, 111960, Control_c, 6, 11, 103
9, 111971, Control_c, 6, 11, 104
9, 111982, Control_c, 6, 11, 105
9, 111993, Control_c, 6, 11, 106
9, 112004, Control_c, 6, 11, 107
9, 112015, Control_c, 6, 11, 108
9, 112026, Control_c, 6, 11, 109
9, 112037, Control_c, 6, 11, 110
9, 112048, Control_c, 6, 11, 111
9, 112059, Control_c, 6, 11, 112
9, 112070, Control_c, 6, 11, 113
9, 112081, Control_c, 6, 11, 114
9, 112092, Control_c, 6, 11, 115
9, 112103, Control_c, 6, 11, 116
9, 112114, Control_c, 6, 11, 117
9, 112125, Control_c, 6, 11, 118
9, 112128, Note_on_c, 6, 65, 0
9, 112128, Note_on_c, 6, 73, 0
9, 112128, Note_on_c, 6, 77, 0
9, 112128, Note_on_c, 6, 67, 127
9, 112128, Note_on_c, 6, 75, 126
9, 112128, Note_on_c, 6, 79, 127
9, 112136, Control_c, 6, 11, 119
9, 112147, Control_c, 6, 11, 120
9, 112158, Control_c, 6, 11, 121
9, 112169, Control_c, 6, 11, 122
9, 112180, Control_c, 6, 11, 123
9, 112191, Control_c, 6, 11, 124
9, 112202, Control_c, 6, 11, 125
9, 112213, Control_c, 6, 11, 126
9, 112222, Note_on_c, 6, 67, 0
9, 112222, Note_on_c, 6, 75, 0
9, 112222, Note_on_c, 6, 79, 0
9, 112224, Control_c, 6, 11, 127
9, 112224, Control_c, 6, 11, 92
9, 112224, Note_on_c, 6, 67, 127
9, 112224, Note_on_c, 6, 75, 122
9, 112224, Note_on_c, 6, 79, 127
9, 112234, Control_c, 6, 11, 93
9, 112245, Control_c, 6, 11, 94
9, 112256, Control_c, 6, 11, 95
9, 112267, Control_c, 6, 11, 96
9, 112270, Note_on_c, 6, 67, 0
9, 112270, Note_on_c, 6, 75, 0
9, 112270, Note_on_c, 6, 79, 0
9, 112272, Note_on_c, 6, 65, 125
9, 112272, Note_on_c, 6, 73, 123
9, 112272, Note_on_c, 6, 77, 127
9, 112278, Control_c, 6, 11, 97
9, 112289, Control_c, 6, 11, 98
9, 112300, Control_c, 6, 11, 99
9, 112311, Control_c, 6, 11, 100
9, 112322, Control_c, 6, 11, 101
9, 112333, Control_c, 6, 11, 102
9, 112344, Control_c, 6, 11, 103
9, 112355, Control_c, 6, 11, 104
9, 112366, Control_c, 6, 11, 105
9, 112377, Control_c, 6, 11, 106
9, 112388, Control_c, 6, 11, 107
9, 112399, Control_c, 6, 11, 108
9, 112410, Control_c, 6, 11, 109
9, 112421, Control_c, 6, 11, 110
9, 112432, Control_c, 6, 11, 111
9, 112443, Control_c, 6, 11, 112
9, 112454, Control_c, 6, 11, 113
9, 112465, Control_c, 6, 11, 114
9, 112476, Control_c, 6, 11, 115
9, 112487, Control_c, 6, 11, 116
9, 112498, Control_c, 6, 11, 117
9, 112509, Control_c, 6, 11, 118
9, 112512, Note_on_c, 6, 65, 0
9, 112512, Note_on_c, 6, 73, 0
9, 112512, Note_on_c, 6, 77, 0
9, 112512, Note_on_c, 6, 67, 125
9, 112512, Note_on_c, 6, 75, 127
9, 112512, Note_on_c, 6, 79, 122
9, 112520, Control_c, 6, 11, 119
9, 112531, Control_c, 6, 11, 120
9, 112542, Control_c, 6, 11, 121
9, 112553, Control_c, 6, 11, 122
9, 112564, Control_c, 6, 11, 123
9, 112575, Control_c, 6, 11, 124
9, 112586, Control_c, 6, 11, 125
9, 112597, Control_c, 6, 11, 126
9, 112606, Note_on_c, 6, 67, 0
9, 112606, Note_on_c, 6, 75, 0
9, 112606, Note_on_c, 6, 79, 0
9, 112608, Control_c, 6, 11, 127
9, 113364, Note_on_c, 6, 68, 122
9, 113364, Note_on_c, 6, 73, 122
9, 113364, Note_on_c, 6, 77, 127
9, 113374, Note_on_c, 6, 68, 0
9, 113374, Note_on_c, 6, 73, 0
9, 113374, Note_on_c, 6, 77, 0
9, 113376, Control_c, 6, 11, 92
9, 113376, Note_on_c, 6, 68, 127
9, 113376, Note_on_c, 6, 73, 126
9, 113376, Note_on_c, 6, 77, 127
9, 113381, Control_c, 6, 11, 93
9, 113386, Control_c, 6, 11, 94
9, 113392, Control_c, 6, 11, 95
9, 113397, Control_c, 6, 11, 96
9, 113403, Control_c, 6, 11, 97
9, 113408, Control_c, 6, 11, 98
9, 113414, Control_c, 6, 11, 99
9, 113419, Control_c, 6, 11, 100
9, 113425, Control_c, 6, 11, 101
9, 113430, Control_c, 6, 11, 102
9, 113436, Control_c, 6, 11, 103
9, 113441, Control_c, 6, 11, 104
9, 113447, Control_c, 6, 11, 105
9, 113452, Control_c, 6, 11, 106
9, 113458, Control_c, 6, 11, 107
9, 113463, Control_c, 6, 11, 108
9, 113469, Control_c, 6, 11, 109
9, 113474, Control_c, 6, 11, 110
9, 113480, Control_c, 6, 11, 111
9, 113485, Control_c, 6, 11, 112
9, 113491, Control_c, 6, 11, 113
9, 113496, Control_c, 6, 11, 114
9, 113502, Control_c, 6, 11, 115
9, 113507, Control_c, 6, 11, 116
9, 113513, Control_c, 6, 11, 117
9, 113518, Control_c, 6, 11, 118
9, 113524, Control_c, 6, 11, 119
9, 113529, Control_c, 6, 11, 120
9, 113535, Control_c, 6, 11, 121
9, 113540, Control_c, 6, 11, 122
9, 113546, Control_c, 6, 11, 123
9, 113551, Control_c, 6, 11, 124
9, 113557, Control_c, 6, 11, 125
9, 113562, Control_c, 6, 11, 126
9, 113568, Control_c, 6, 11, 127
9, 113574, Control_c, 6, 11, 126
9, 113581, Control_c, 6, 11, 125
9, 113588, Control_c, 6, 11, 124
9, 113595, Control_c, 6, 11, 123
9, 113602, Control_c, 6, 11, 122
9, 113608, Control_c, 6, 11, 121
9, 113615, Control_c, 6, 11, 120
9, 113622, Control_c, 6, 11, 119
9, 113629, Control_c, 6, 11, 118
9, 113636, Control_c, 6, 11, 117
9, 113642, Control_c, 6, 11, 116
9, 113649, Control_c, 6, 11, 115
9, 113656, Control_c, 6, 11, 114
9, 113663, Control_c, 6, 11, 113
9, 113670, Control_c, 6, 11, 112
9, 113676, Control_c, 6, 11, 111
9, 113683, Control_c, 6, 11, 110
9, 113690, Control_c, 6, 11, 109
9, 113697, Control_c, 6, 11, 108
9, 113704, Control_c, 6, 11, 107
9, 113710, Control_c, 6, 11, 106
9, 113717, Control_c, 6, 11, 105
9, 113724, Control_c, 6, 11, 104
9, 113731, Control_c, 6, 11, 103
9, 113738, Control_c, 6, 11, 102
9, 113744, Control_c, 6, 11, 101
9, 113751, Control_c, 6, 11, 100
9, 113758, Control_c, 6, 11, 99
9, 113765, Control_c, 6, 11, 98
9, 113772, Control_c, 6, 11, 97
9, 113778, Control_c, 6, 11, 96
9, 113785, Control_c, 6, 11, 95
9, 113792, Control_c, 6, 11, 94
9, 113799, Control_c, 6, 11, 93
9, 113806, Control_c, 6, 11, 92
9, 113812, Control_c, 6, 11, 91
9, 113819, Control_c, 6, 11, 90
9, 113826, Control_c, 6, 11, 89
9, 113833, Control_c, 6, 11, 88
9, 113840, Control_c, 6, 11, 87
9, 113846, Control_c, 6, 11, 86
9, 113853, Control_c, 6, 11, 85
9, 113860, Control_c, 6, 11, 84
9, 113867, Control_c, 6, 11, 83
9, 113874, Control_c, 6, 11, 82
9, 113880, Control_c, 6, 11, 81
9, 113887, Control_c, 6, 11, 80
9, 113894, Control_c, 6, 11, 79
9, 113901, Control_c, 6, 11, 78
9, 113908, Control_c, 6, 11, 77
9, 113914, Control_c, 6, 11, 76
9, 113921, Control_c, 6, 11, 75
9, 113928, Control_c, 6, 11, 74
9, 113935, Control_c, 6, 11, 73
9, 113942, Control_c, 6, 11, 72
9, 113948, Control_c, 6, 11, 71
9, 113955, Control_c, 6, 11, 70
9, 113962, Control_c, 6, 11, 69
9, 113969, Control_c, 6, 11, 68
9, 113976, Control_c, 6, 11, 67
9, 113982, Control_c, 6, 11, 66
9, 113989, Control_c, 6, 11, 65
9, 113996, Control_c, 6, 11, 64
9, 114003, Control_c, 6, 11, 63
9, 114010, Control_c, 6, 11, 62
9, 114017, Control_c, 6, 11, 61
9, 114023, Control_c, 6, 11, 60
9, 114030, Control_c, 6, 11, 59
9, 114037, Control_c, 6, 11, 58
9, 114044, Control_c, 6, 11, 57
9, 114051, Control_c, 6, 11, 56
9, 114057, Control_c, 6, 11, 55
9, 114064, Control_c, 6, 11, 54
9, 114071, Control_c, 6, 11, 53
9, 114078, Control_c, 6, 11, 52
9, 114085, Control_c, 6, 11, 51
9, 114091, Control_c, 6, 11, 50
9, 114098, Control_c, 6, 11, 49
9, 114105, Control_c, 6, 11, 48
9, 114112, Control_c, 6, 11, 47
9, 114119, Control_c, 6, 11, 46
9, 114125, Control_c, 6, 11, 45
9, 114132, Control_c, 6, 11, 44
9, 114139, Control_c, 6, 11, 43
9, 114146, Control_c, 6, 11, 42
9, 114153, Control_c, 6, 11, 41
9, 114159, Control_c, 6, 11, 40
9, 114166, Control_c, 6, 11, 39
9, 114173, Control_c, 6, 11, 38
9, 114180, Control_c, 6, 11, 37
9, 114187, Control_c, 6, 11, 36
9, 114193, Control_c, 6, 11, 35
9, 114200, Control_c, 6, 11, 34
9, 114207, Control_c, 6, 11, 33
9, 114214, Control_c, 6, 11, 32
9, 114221, Control_c, 6, 11, 31
9, 114227, Control_c, 6, 11, 30
9, 114234, Control_c, 6, 11, 29
9, 114241, Control_c, 6, 11, 28
9, 114248, Control_c, 6, 11, 27
9, 114255, Control_c, 6, 11, 26
9, 114261, Control_c, 6, 11, 25
9, 114268, Control_c, 6, 11, 24
9, 114275, Control_c, 6, 11, 23
9, 114282, Control_c, 6, 11, 22
9, 114289, Control_c, 6, 11, 21
9, 114295, Control_c, 6, 11, 20
9, 114302, Control_c, 6, 11, 19
9, 114309, Control_c, 6, 11, 18
9, 114316, Control_c, 6, 11, 17
9, 114323, Control_c, 6, 11, 16
9, 114329, Control_c, 6, 11, 15
9, 114336, Control_c, 6, 11, 14
9, 114343, Control_c, 6, 11, 13
9, 114350, Control_c, 6, 11, 12
9, 114357, Control_c, 6, 11, 11
9, 114363, Control_c, 6, 11, 10
9, 114370, Control_c, 6, 11, 9
9, 114377, Control_c, 6, 11, 8
9, 114384, Control_c, 6, 11, 7
9, 114391, Control_c, 6, 11, 6
9, 114397, Control_c, 6, 11, 5
9, 114404, Control_c, 6, 11, 4
9, 114411, Control_c, 6, 11, 3
9, 114418, Control_c, 6, 11, 2
9, 114425, Control_c, 6, 11, 1
9, 114430, Note_on_c, 6, 68, 0
9, 114430, Note_on_c, 6, 73, 0
9, 114430, Note_on_c, 6, 77, 0
9, 114432, Control_c, 6, 11, 0
9, 114432, End_track
10, 0, Start_track
10, 0, Title_t, "Tromboni I - II"
10, 0, MIDI_port, 0
10, 53088, Program_c, 7, 57
10, 53088, Control_c, 7, 11, 127
10, 53664, Control_c, 7, 11, 92
10, 53664, Note_on_c, 7, 59, 48
10, 53680, Control_c, 7, 11, 93
10, 53696, Control_c, 7, 11, 94
10, 53713, Control_c, 7, 11, 95
10, 53729, Control_c, 7, 11, 96
10, 53746, Control_c, 7, 11, 97
10, 53762, Control_c, 7, 11, 98
10, 53779, Control_c, 7, 11, 99
10, 53795, Control_c, 7, 11, 100
10, 53812, Control_c, 7, 11, 101
10, 53828, Control_c, 7, 11, 102
10, 53845, Control_c, 7, 11, 103
10, 53861, Control_c, 7, 11, 104
10, 53877, Control_c, 7, 11, 105
10, 53894, Control_c, 7, 11, 106
10, 53910, Control_c, 7, 11, 107
10, 53927, Control_c, 7, 11, 108
10, 53943, Control_c, 7, 11, 109
10, 53952, Note_on_c, 7, 60, 50
10, 53960, Control_c, 7, 11, 110
10, 53976, Control_c, 7, 11, 111
10, 53993, Control_c, 7, 11, 112
10, 54009, Control_c, 7, 11, 113
10, 54026, Control_c, 7, 11, 114
10, 54042, Control_c, 7, 11, 115
10, 54058, Control_c, 7, 11, 116
10, 54075, Control_c, 7, 11, 117
10, 54091, Control_c, 7, 11, 118
10, 54108, Control_c, 7, 11, 119
10, 54124, Control_c, 7, 11, 120
10, 54141, Control_c, 7, 11, 121
10, 54144, Note_on_c, 7, 60, 0
10, 54144, Note_on_c, 7, 61, 41
10, 54157, Control_c, 7, 11, 122
10, 54174, Control_c, 7, 11, 123
10, 54190, Control_c, 7, 11, 124
10, 54192, Note_on_c, 7, 59, 0
10, 54207, Control_c, 7, 11, 125
10, 54223, Control_c, 7, 11, 126
10, 54238, Note_on_c, 7, 61, 0
10, 54240, Control_c, 7, 11, 127
10, 54240, Control_c, 7, 11, 127
10, 54240, Note_on_c, 7, 62, 42
10, 54240, Note_on_c, 7, 64, 42
10, 54250, Control_c, 7, 11, 126
10, 54261, Control_c, 7, 11, 125
10, 54272, Control_c, 7, 11, 124
10, 54283, Control_c, 7, 11, 123
10, 54294, Control_c, 7, 11, 122
10, 54305, Control_c, 7, 11, 121
10, 54316, Control_c, 7, 11, 120
10, 54327, Control_c, 7, 11, 119
10, 54338, Control_c, 7, 11, 118
10, 54349, Control_c, 7, 11, 117
10, 54360, Control_c, 7, 11, 116
10, 54371, Control_c, 7, 11, 115
10, 54382, Control_c, 7, 11, 114
10, 54393, Control_c, 7, 11, 113
10, 54404, Control_c, 7, 11, 112
10, 54415, Control_c, 7, 11, 111
10, 54426, Control_c, 7, 11, 110
10, 54437, Control_c, 7, 11, 109
10, 54448, Control_c, 7, 11, 108
10, 54459, Control_c, 7, 11, 107
10, 54470, Control_c, 7, 11, 106
10, 54481, Control_c, 7, 11, 105
10, 54492, Control_c, 7, 11, 104
10, 54503, Control_c, 7, 11, 103
10, 54514, Control_c, 7, 11, 102
10, 54525, Control_c, 7, 11, 101
10, 54536, Control_c, 7, 11, 100
10, 54547, Control_c, 7, 11, 99
10, 54558, Control_c, 7, 11, 98
10, 54569, Control_c, 7, 11, 97
10, 54580, Control_c, 7, 11, 96
10, 54591, Control_c, 7, 11, 95
10, 54602, Control_c, 7, 11, 94
10, 54613, Control_c, 7, 11, 93
10, 54622, Note_on_c, 7, 62, 0
10, 54622, Note_on_c, 7, 64, 0
10, 54624, Control_c, 7, 11, 92
10, 94272, Control_c, 7, 11, 92
10, 94272, Note_on_c, 7, 49, 56
10, 94272, Note_on_c, 7, 61, 62
10, 94280, Control_c, 7, 11, 93
10, 94288, Control_c, 7, 11, 94
10, 94296, Control_c, 7, 11, 95
10, 94304, Control_c, 7, 11, 96
10, 94313, Control_c, 7, 11, 97
10, 94321, Control_c, 7, 11, 98
10, 94329, Control_c, 7, 11, 99
10, 94337, Control_c, 7, 11, 100
10, 94346, Control_c, 7, 11, 101
10, 94354, Control_c, 7, 11, 102
10, 94362, Control_c, 7, 11, 103
10, 94368, Note_on_c, 7, 49, 0
10, 94368, Note_on_c, 7, 61, 0
10, 94368, Note_on_c, 7, 51, 62
10, 94368, Note_on_c, 7, 63, 56
10, 94370, Control_c, 7, 11, 104
10, 94378, Control_c, 7, 11, 105
10, 94387, Control_c, 7, 11, 106
10, 94395, Control_c, 7, 11, 107
10, 94403, Control_c, 7, 11, 108
10, 94411, Control_c, 7, 11, 109
10, 94420, Control_c, 7, 11, 110
10, 94428, Control_c, 7, 11, 111
10, 94436, Control_c, 7, 11, 112
10, 94444, Control_c, 7, 11, 113
10, 94453, Control_c, 7, 11, 114
10, 94461, Control_c, 7, 11, 115
10, 94469, Control_c, 7, 11, 116
10, 94477, Control_c, 7, 11, 117
10, 94485, Control_c, 7, 11, 118
10, 94494, Control_c, 7, 11, 119
10, 94502, Control_c, 7, 11, 120
10, 94510, Control_c, 7, 11, 121
10, 94512, Note_on_c, 7, 51, 0
10, 94512, Note_on_c, 7, 63, 0
10, 94512, Note_on_c, 7, 53, 60
10, 94512, Note_on_c, 7, 65, 61
10, 94518, Control_c, 7, 11, 122
10, 94527, Control_c, 7, 11, 123
10, 94535, Control_c, 7, 11, 124
10, 94543, Control_c, 7, 11, 125
10, 94551, Control_c, 7, 11, 126
10, 94560, Note_on_c, 7, 53, 0
10, 94560, Note_on_c, 7, 65, 0
10, 94560, Control_c, 7, 11, 127
10, 94560, Note_on_c, 7, 55, 33
10, 94560, Note_on_c, 7, 67, 28
10, 94570, Control_c, 7, 11, 126
10, 94581, Control_c, 7, 11, 125
10, 94592, Control_c, 7, 11, 124
10, 94603, Control_c, 7, 11, 123
10, 94614, Control_c, 7, 11, 122
10, 94625, Control_c, 7, 11, 121
10, 94636, Control_c, 7, 11, 120
10, 94647, Control_c, 7, 11, 119
10, 94658, Control_c, 7, 11, 118
10, 94669, Control_c, 7, 11, 117
10, 94680, Control_c, 7, 11, 116
10, 94691, Control_c, 7, 11, 115
10, 94702, Control_c, 7, 11, 114
10, 94713, Control_c, 7, 11, 113
10, 94724, Control_c, 7, 11, 112
10, 94735, Control_c, 7, 11, 111
10, 94746, Control_c, 7, 11, 110
10, 94757, Control_c, 7, 11, 109
10, 94768, Control_c, 7, 11, 108
10, 94779, Control_c, 7, 11, 107
10, 94790, Control_c, 7, 11, 106
10, 94801, Control_c, 7, 11, 105
10, 94812, Control_c, 7, 11, 104
10, 94823, Control_c, 7, 11, 103
10, 94834, Control_c, 7, 11, 102
10, 94845, Control_c, 7, 11, 101
10, 94856, Control_c, 7, 11, 100
10, 94867, Control_c, 7, 11, 99
10, 94878, Control_c, 7, 11, 98
10, 94889, Control_c, 7, 11, 97
10, 94896, Note_on_c, 7, 55, 0
10, 94896, Note_on_c, 7, 67, 0
10, 94900, Control_c, 7, 11, 96
10, 94911, Control_c, 7, 11, 95
10, 94922, Control_c, 7, 11, 94
10, 94933, Control_c, 7, 11, 93
10, 94944, Control_c, 7, 11, 92
10, 95040, Control_c, 7, 11, 92
10, 95040, Note_on_c, 7, 49, 59
10, 95040, Note_on_c, 7, 61, 65
10, 95048, Control_c, 7, 11, 93
10, 95056, Control_c, 7, 11, 94
10, 95064, Control_c, 7, 11, 95
10, 95072, Control_c, 7, 11, 96
10, 95081, Control_c, 7, 11, 97
10, 95089, Control_c, 7, 11, 98
10, 95097, Control_c, 7, 11, 99
10, 95105, Control_c, 7, 11, 100
10, 95114, Control_c, 7, 11, 101
10, 95122, Control_c, 7, 11, 102
10, 95130, Control_c, 7, 11, 103
10, 95136, Note_on_c, 7, 49, 0
10, 95136, Note_on_c, 7, 61, 0
10, 95136, Note_on_c, 7, 51, 64
10, 95136, Note_on_c, 7, 63, 64
10, 95138, Control_c, 7, 11, 104
10, 95146, Control_c, 7, 11, 105
10, 95155, Control_c, 7, 11, 106
10, 95163, Control_c, 7, 11, 107
10, 95171, Control_c, 7, 11, 108
10, 95179, Control_c, 7, 11, 109
10, 95188, Control_c, 7, 11, 110
10, 95196, Control_c, 7, 11, 111
10, 95204, Control_c, 7, 11, 112
10, 95212, Control_c, 7, 11, 113
10, 95221, Control_c, 7, 11, 114
10, 95229, Control_c, 7, 11, 115
10, 95237, Control_c, 7, 11, 116
10, 95245, Control_c, 7, 11, 117
10, 95253, Control_c, 7, 11, 118
10, 95262, Control_c, 7, 11, 119
10, 95270, Control_c, 7, 11, 120
10, 95278, Control_c, 7, 11, 121
10, 95280, Note_on_c, 7, 51, 0
10, 95280, Note_on_c, 7, 63, 0
10, 95280, Note_on_c, 7, 53, 58
10, 95280, Note_on_c, 7, 65, 64
10, 95286, Control_c, 7, 11, 122
10, 95295, Control_c, 7, 11, 123
10, 95303, Control_c, 7, 11, 124
10, 95311, Control_c, 7, 11, 125
10, 95319, Control_c, 7, 11, 126
10, 95328, Note_on_c, 7, 53, 0
10, 95328, Note_on_c, 7, 65, 0
10, 95328, Control_c, 7, 11, 127
10, 95328, Note_on_c, 7, 55, 30
10, 95328, Note_on_c, 7, 67, 27
10, 95338, Control_c, 7, 11, 126
10, 95349, Control_c, 7, 11, 125
10, 95360, Control_c, 7, 11, 124
10, 95371, Control_c, 7, 11, 123
10, 95382, Control_c, 7, 11, 122
10, 95393, Control_c, 7, 11, 121
10, 95404, Control_c, 7, 11, 120
10, 95415, Control_c, 7, 11, 119
10, 95426, Control_c, 7, 11, 118
10, 95437, Control_c, 7, 11, 117
10, 95448, Control_c, 7, 11, 116
10, 95459, Control_c, 7, 11, 115
10, 95470, Control_c, 7, 11, 114
10, 95481, Control_c, 7, 11, 113
10, 95492, Control_c, 7, 11, 112
10, 95503, Control_c, 7, 11, 111
10, 95514, Control_c, 7, 11, 110
10, 95525, Control_c, 7, 11, 109
10, 95536, Control_c, 7, 11, 108
10, 95547, Control_c, 7, 11, 107
10, 95558, Control_c, 7, 11, 106
10, 95569, Control_c, 7, 11, 105
10, 95580, Control_c, 7, 11, 104
10, 95591, Control_c, 7, 11, 103
10, 95602, Control_c, 7, 11, 102
10, 95613, Control_c, 7, 11, 101
10, 95624, Control_c, 7, 11, 100
10, 95635, Control_c, 7, 11, 99
10, 95646, Control_c, 7, 11, 98
10, 95657, Control_c, 7, 11, 97
10, 95664, Note_on_c, 7, 55, 0
10, 95664, Note_on_c, 7, 67, 0
10, 95668, Control_c, 7, 11, 96
10, 95679, Control_c, 7, 11, 95
10, 95690, Control_c, 7, 11, 94
10, 95701, Control_c, 7, 11, 93
10, 95712, Control_c, 7, 11, 92
10, 108768, Control_c, 7, 11, 75
10, 108768, Note_on_c, 7, 54, 47
10, 108768, Note_on_c, 7, 57, 43
10, 108775, Control_c, 7, 11, 76
10, 108782, Control_c, 7, 11, 77
10, 108790, Control_c, 7, 11, 78
10, 108797, Control_c, 7, 11, 79
10, 108804, Control_c, 7, 11, 80
10, 108812, Control_c, 7, 11, 81
10, 108819, Control_c, 7, 11, 82
10, 108827, Control_c, 7, 11, 83
10, 108834, Control_c, 7, 11, 84
10, 108841, Control_c, 7, 11, 85
10, 108849, Control_c, 7, 11, 86
10, 108856, Control_c, 7, 11, 87
10, 108864, Control_c, 7, 11, 88
10, 108871, Control_c, 7, 11, 89
10, 108878, Control_c, 7, 11, 90
10, 108886, Control_c, 7, 11, 91
10, 108893, Control_c, 7, 11, 92
10, 108900, Control_c, 7, 11, 93
10, 108908, Control_c, 7, 11, 94
10, 108915, Control_c, 7, 11, 95
10, 108923, Control_c, 7, 11, 96
10, 108930, Control_c, 7, 11, 97
10, 108937, Control_c, 7, 11, 98
10, 108945, Control_c, 7, 11, 99
10, 108952, Control_c, 7, 11, 100
10, 108960, Control_c, 7, 11, 101
10, 108967, Control_c, 7, 11, 102
10, 108974, Control_c, 7, 11, 103
10, 108982, Control_c, 7, 11, 104
10, 108989, Control_c, 7, 11, 105
10, 108996, Control_c, 7, 11, 106
10, 109004, Control_c, 7, 11, 107
10, 109011, Control_c, 7, 11, 108
10, 109019, Control_c, 7, 11, 109
10, 109026, Control_c, 7, 11, 110
10, 109033, Control_c, 7, 11, 111
10, 109041, Control_c, 7, 11, 112
10, 109048, Control_c, 7, 11, 113
10, 109056, Note_on_c, 7, 54, 0
10, 109056, Note_on_c, 7, 57, 0
10, 109056, Control_c, 7, 11, 114
10, 109056, Note_on_c, 7, 56, 45
10, 109056, Note_on_c, 7, 59, 44
10, 109063, Control_c, 7, 11, 115
10, 109070, Control_c, 7, 11, 116
10, 109078, Control_c, 7, 11, 117
10, 109085, Control_c, 7, 11, 118
10, 109092, Control_c, 7, 11, 119
10, 109100, Control_c, 7, 11, 120
10, 109107, Control_c, 7, 11, 121
10, 109115, Control_c, 7, 11, 122
10, 109122, Control_c, 7, 11, 123
10, 109129, Control_c, 7, 11, 124
10, 109137, Control_c, 7, 11, 125
10, 109144, Control_c, 7, 11, 126
10, 109152, Note_on_c, 7, 56, 0
10, 109152, Note_on_c, 7, 59, 0
10, 109152, Control_c, 7, 11, 127
10, 109152, Note_on_c, 7, 54, 43
10, 109152, Note_on_c, 7, 57, 40
10, 109155, Control_c, 7, 11, 126
10, 109159, Control_c, 7, 11, 125
10, 109163, Control_c, 7, 11, 124
10, 109166, Control_c, 7, 11, 123
10, 109170, Control_c, 7, 11, 122
10, 109174, Control_c, 7, 11, 121
10, 109177, Control_c, 7, 11, 120
10, 109181, Control_c, 7, 11, 119
10, 109185, Control_c, 7, 11, 118
10, 109188, Control_c, 7, 11, 117
10, 109192, Control_c, 7, 11, 116
10, 109196, Control_c, 7, 11, 115
10, 109200, Control_c, 7, 11, 114
10, 109203, Control_c, 7, 11, 113
10, 109207, Control_c, 7, 11, 112
10, 109211, Control_c, 7, 11, 111
10, 109214, Control_c, 7, 11, 110
10, 109218, Control_c, 7, 11, 109
10, 109222, Control_c, 7, 11, 108
10, 109225, Control_c, 7, 11, 107
10, 109229, Control_c, 7, 11, 106
10, 109233, Control_c, 7, 11, 105
10, 109236, Control_c, 7, 11, 104
10, 109240, Control_c, 7, 11, 103
10, 109244, Control_c, 7, 11, 102
10, 109248, Control_c, 7, 11, 101
10, 109251, Control_c, 7, 11, 100
10, 109255, Control_c, 7, 11, 99
10, 109259, Control_c, 7, 11, 98
10, 109262, Control_c, 7, 11, 97
10, 109266, Control_c, 7, 11, 96
10, 109270, Control_c, 7, 11, 95
10, 109273, Control_c, 7, 11, 94
10, 109277, Control_c, 7, 11, 93
10, 109281, Control_c, 7, 11, 92
10, 109284, Control_c, 7, 11, 91
10, 109288, Control_c, 7, 11, 90
10, 109292, Control_c, 7, 11, 89
10, 109296, Control_c, 7, 11, 88
10, 109299, Control_c, 7, 11, 87
10, 109303, Control_c, 7, 11, 86
10, 109307, Control_c, 7, 11, 85
10, 109310, Control_c, 7, 11, 84
10, 109314, Control_c, 7, 11, 83
10, 109318, Control_c, 7, 11, 82
10, 109321, Control_c, 7, 11, 81
10, 109325, Control_c, 7, 11, 80
10, 109329, Control_c, 7, 11, 79
10, 109332, Control_c, 7, 11, 78
10, 109336, Control_c, 7, 11, 77
10, 109340, Control_c, 7, 11, 76
10, 109344, Note_on_c, 7, 54, 0
10, 109344, Note_on_c, 7, 57, 0
10, 109344, Control_c, 7, 11, 75
10, 109344, Note_on_c, 7, 52, 42
10, 109344, Note_on_c, 7, 56, 46
10, 109438, Note_on_c, 7, 52, 0
10, 109438, Note_on_c, 7, 56, 0
10, 109536, Control_c, 7, 11, 45
10, 109536, Note_on_c, 7, 42, 95
10, 109552, Control_c, 7, 11, 46
10, 109568, Control_c, 7, 11, 47
10, 109585, Control_c, 7, 11, 48
10, 109601, Control_c, 7, 11, 49
10, 109617, Control_c, 7, 11, 50
10, 109634, Control_c, 7, 11, 51
10, 109650, Control_c, 7, 11, 52
10, 109666, Control_c, 7, 11, 53
10, 109683, Control_c, 7, 11, 54
10, 109699, Control_c, 7, 11, 55
10, 109715, Control_c, 7, 11, 56
10, 109732, Control_c, 7, 11, 57
10, 109748, Control_c, 7, 11, 58
10, 109764, Control_c, 7, 11, 59
10, 109781, Control_c, 7, 11, 60
10, 109797, Control_c, 7, 11, 61
10, 109813, Control_c, 7, 11, 62
10, 109824, Note_on_c, 7, 42, 0
10, 109824, Note_on_c, 7, 47, 98
10, 109830, Control_c, 7, 11, 63
10, 109846, Control_c, 7, 11, 64
10, 109862, Control_c, 7, 11, 65
10, 109879, Control_c, 7, 11, 66
10, 109895, Control_c, 7, 11, 67
10, 109911, Control_c, 7, 11, 68
10, 109920, Note_on_c, 7, 54, 101
10, 109928, Control_c, 7, 11, 69
10, 109944, Control_c, 7, 11, 70
10, 109960, Control_c, 7, 11, 71
10, 109977, Control_c, 7, 11, 72
10, 109993, Control_c, 7, 11, 73
10, 110009, Control_c, 7, 11, 74
10, 110026, Control_c, 7, 11, 75
10, 110042, Control_c, 7, 11, 76
10, 110058, Control_c, 7, 11, 77
10, 110075, Control_c, 7, 11, 78
10, 110091, Control_c, 7, 11, 79
10, 110107, Control_c, 7, 11, 80
10, 110112, Note_on_c, 7, 47, 0
10, 110112, Note_on_c, 7, 42, 99
10, 110124, Control_c, 7, 11, 81
10, 110140, Control_c, 7, 11, 82
10, 110156, Control_c, 7, 11, 83
10, 110173, Control_c, 7, 11, 84
10, 110189, Control_c, 7, 11, 85
10, 110205, Control_c, 7, 11, 86
10, 110222, Control_c, 7, 11, 87
10, 110238, Control_c, 7, 11, 88
10, 110254, Control_c, 7, 11, 89
10, 110256, Note_on_c, 7, 54, 0
10, 110271, Control_c, 7, 11, 90
10, 110272, Note_on_c, 7, 42, 0
10, 110287, Control_c, 7, 11, 91
10, 110304, Control_c, 7, 11, 92
10, 110304, Control_c, 7, 11, 92
10, 110304, Note_on_c, 7, 56, 101
10, 110304, Note_on_c, 7, 61, 102
10, 110325, Control_c, 7, 11, 93
10, 110347, Control_c, 7, 11, 94
10, 110369, Control_c, 7, 11, 95
10, 110391, Control_c, 7, 11, 96
10, 110413, Control_c, 7, 11, 97
10, 110435, Control_c, 7, 11, 98
10, 110457, Control_c, 7, 11, 99
10, 110479, Control_c, 7, 11, 100
10, 110496, Note_on_c, 7, 56, 0
10, 110496, Note_on_c, 7, 58, 100
10, 110501, Control_c, 7, 11, 101
10, 110523, Control_c, 7, 11, 102
10, 110545, Control_c, 7, 11, 103
10, 110560, Note_on_c, 7, 61, 0
10, 110567, Control_c, 7, 11, 104
10, 110589, Control_c, 7, 11, 105
10, 110592, Note_on_c, 7, 63, 95
10, 110611, Control_c, 7, 11, 106
10, 110633, Control_c, 7, 11, 107
10, 110655, Control_c, 7, 11, 108
10, 110656, Note_on_c, 7, 58, 0
10, 110677, Control_c, 7, 11, 109
10, 110686, Note_on_c, 7, 63, 0
10, 110688, Note_on_c, 7, 60, 96
10, 110688, Note_on_c, 7, 63, 95
10, 110698, Control_c, 7, 11, 110
10, 110720, Control_c, 7, 11, 111
10, 110734, Note_on_c, 7, 60, 0
10, 110734, Note_on_c, 7, 63, 0
10, 110736, Note_on_c, 7, 61, 97
10, 110736, Note_on_c, 7, 65, 102
10, 110742, Control_c, 7, 11, 112
10, 110764, Control_c, 7, 11, 113
10, 110786, Control_c, 7, 11, 114
10, 110808, Control_c, 7, 11, 115
10, 110830, Control_c, 7, 11, 116
10, 110852, Control_c, 7, 11, 117
10, 110874, Control_c, 7, 11, 118
10, 110896, Control_c, 7, 11, 119
10, 110918, Control_c, 7, 11, 120
10, 110940, Control_c, 7, 11, 121
10, 110962, Control_c, 7, 11, 122
10, 110984, Control_c, 7, 11, 123
10, 111006, Control_c, 7, 11, 124
10, 111028, Control_c, 7, 11, 125
10, 111040, Note_on_c, 7, 61, 0
10, 111040, Note_on_c, 7, 65, 0
10, 111050, Control_c, 7, 11, 126
10, 111072, Control_c, 7, 11, 127
10, 111072, Control_c, 7, 11, 92
10, 111072, Note_on_c, 7, 56, 110
10, 111072, Note_on_c, 7, 61, 107
10, 111093, Control_c, 7, 11, 93
10, 111115, Control_c, 7, 11, 94
10, 111137, Control_c, 7, 11, 95
10, 111159, Control_c, 7, 11, 96
10, 111181, Control_c, 7, 11, 97
10, 111203, Control_c, 7, 11, 98
10, 111225, Control_c, 7, 11, 99
10, 111247, Control_c, 7, 11, 100
10, 111264, Note_on_c, 7, 56, 0
10, 111264, Note_on_c, 7, 58, 106
10, 111269, Control_c, 7, 11, 101
10, 111291, Control_c, 7, 11, 102
10, 111313, Control_c, 7, 11, 103
10, 111328, Note_on_c, 7, 61, 0
10, 111335, Control_c, 7, 11, 104
10, 111357, Control_c, 7, 11, 105
10, 111360, Note_on_c, 7, 63, 107
10, 111379, Control_c, 7, 11, 106
10, 111401, Control_c, 7, 11, 107
10, 111423, Control_c, 7, 11, 108
10, 111424, Note_on_c, 7, 58, 0
10, 111445, Control_c, 7, 11, 109
10, 111454, Note_on_c, 7, 63, 0
10, 111456, Note_on_c, 7, 60, 104
10, 111456, Note_on_c, 7, 63, 113
10, 111466, Control_c, 7, 11, 110
10, 111488, Control_c, 7, 11, 111
10, 111502, Note_on_c, 7, 60, 0
10, 111502, Note_on_c, 7, 63, 0
10, 111504, Note_on_c, 7, 61, 108
10, 111504, Note_on_c, 7, 65, 103
10, 111510, Control_c, 7, 11, 112
10, 111532, Control_c, 7, 11, 113
10, 111554, Control_c, 7, 11, 114
10, 111576, Control_c, 7, 11, 115
10, 111598, Control_c, 7, 11, 116
10, 111620, Control_c, 7, 11, 117
10, 111642, Control_c, 7, 11, 118
10, 111664, Control_c, 7, 11, 119
10, 111686, Control_c, 7, 11, 120
10, 111708, Control_c, 7, 11, 121
10, 111730, Control_c, 7, 11, 122
10, 111744, Note_on_c, 7, 61, 0
10, 111744, Note_on_c, 7, 65, 0
10, 111744, Note_on_c, 7, 63, 113
10, 111744, Note_on_c, 7, 67, 103
10, 111752, Control_c, 7, 11, 123
10, 111774, Control_c, 7, 11, 124
10, 111796, Control_c, 7, 11, 125
10, 111818, Control_c, 7, 11, 126
10, 111838, Note_on_c, 7, 63, 0
10, 111838, Note_on_c, 7, 67, 0
10, 111840, Control_c, 7, 11, 127
10, 111840, Control_c, 7, 11, 92
10, 111840, Note_on_c, 7, 63, 125
10, 111840, Note_on_c, 7, 67, 123
10, 111850, Control_c, 7, 11, 93
10, 111861, Control_c, 7, 11, 94
10, 111872, Control_c, 7, 11, 95
10, 111883, Control_c, 7, 11, 96
10, 111886, Note_on_c, 7, 63, 0
10, 111886, Note_on_c, 7, 67, 0
10, 111888, Note_on_c, 7, 61, 122
10, 111888, Note_on_c, 7, 65, 127
10, 111894, Control_c, 7, 11, 97
10, 111905, Control_c, 7, 11, 98
10, 111916, Control_c, 7, 11, 99
10, 111927, Control_c, 7, 11, 100
10, 111938, Control_c, 7, 11, 101
10, 111949, Control_c, 7, 11, 102
10, 111960, Control_c, 7, 11, 103
10, 111971, Control_c, 7, 11, 104
10, 111982, Control_c, 7, 11, 105
10, 111993, Control_c, 7, 11, 106
10, 112004, Control_c, 7, 11, 107
10, 112015, Control_c, 7, 11, 108
10, 112026, Control_c, 7, 11, 109
10, 112037, Control_c, 7, 11, 110
10, 112048, Control_c, 7, 11, 111
10, 112059, Control_c, 7, 11, 112
10, 112070, Control_c, 7, 11, 113
10, 112081, Control_c, 7, 11, 114
10, 112092, Control_c, 7, 11, 115
10, 112103, Control_c, 7, 11, 116
10, 112114, Control_c, 7, 11, 117
10, 112125, Control_c, 7, 11, 118
10, 112128, Note_on_c, 7, 61, 0
10, 112128, Note_on_c, 7, 65, 0
10, 112128, Note_on_c, 7, 63, 125
10, 112128, Note_on_c, 7, 67, 127
10, 112136, Control_c, 7, 11, 119
10, 112147, Control_c, 7, 11, 120
10, 112158, Control_c, 7, 11, 121
10, 112169, Control_c, 7, 11, 122
10, 112180, Control_c, 7, 11, 123
10, 112191, Control_c, 7, 11, 124
10, 112202, Control_c, 7, 11, 125
10, 112213, Control_c, 7, 11, 126
10, 112222, Note_on_c, 7, 63, 0
10, 112222, Note_on_c, 7, 67, 0
10, 112224, Control_c, 7, 11, 127
10, 112224, Control_c, 7, 11, 92
10, 112224, Note_on_c, 7, 63, 123
10, 112224, Note_on_c, 7, 67, 127
10, 112234, Control_c, 7, 11, 93
10, 112245, Control_c, 7, 11, 94
10, 112256, Control_c, 7, 11, 95
10, 112267, Control_c, 7, 11, 96
10, 112270, Note_on_c, 7, 63, 0
10, 112270, Note_on_c, 7, 67, 0
10, 112272, Note_on_c, 7, 61, 122
10, 112272, Note_on_c, 7, 65, 122
10, 112278, Control_c, 7, 11, 97
10, 112289, Control_c, 7, 11, 98
10, 112300, Control_c, 7, 11, 99
10, 112311, Control_c, 7, 11, 100
10, 112322, Control_c, 7, 11, 101
10, 112333, Control_c, 7, 11, 102
10, 112344, Control_c, 7, 11, 103
10, 112355, Control_c, 7, 11, 104
10, 112366, Control_c, 7, 11, 105
10, 112377, Control_c, 7, 11, 106
10, 112388, Control_c, 7, 11, 107
10, 112399, Control_c, 7, 11, 108
10, 112410, Control_c, 7, 11, 109
10, 112421, Control_c, 7, 11, 110
10, 112432, Control_c, 7, 11, 111
10, 112443, Control_c, 7, 11, 112
10, 112454, Control_c, 7, 11, 113
10, 112465, Control_c, 7, 11, 114
10, 112476, Control_c, 7, 11, 115
10, 112487, Control_c, 7, 11, 116
10, 112498, Control_c, 7, 11, 117
10, 112509, Control_c, 7, 11, 118
10, 112512, Note_on_c, 7, 61, 0
10, 112512, Note_on_c, 7, 65, 0
10, 112512, Note_on_c, 7, 63, 127
10, 112512, Note_on_c, 7, 67, 124
10, 112520, Control_c, 7, 11, 119
10, 112531, Control_c, 7, 11, 120
10, 112542, Control_c, 7, 11, 121
10, 112553, Control_c, 7, 11, 122
10, 112564, Control_c, 7, 11, 123
10, 112575, Control_c, 7, 11, 124
10, 112586, Control_c, 7, 11, 125
10, 112597, Control_c, 7, 11, 126
10, 112606, Note_on_c, 7, 63, 0
10, 112606, Note_on_c, 7, 67, 0
10, 112608, Control_c, 7, 11, 127
10, 112608, Control_c, 7, 11, 92
10, 112608, Note_on_c, 7, 56, 127
10, 112618, Control_c, 7, 11, 93
10, 112629, Control_c, 7, 11, 94
10, 112640, Control_c, 7, 11, 95
10, 112651, Control_c, 7, 11, 96
10, 112662, Control_c, 7, 11, 97
10, 112673, Control_c, 7, 11, 98
10, 112684, Control_c, 7, 11, 99
10, 112695, Control_c, 7, 11, 100
10, 112706, Control_c, 7, 11, 101
10, 112717, Control_c, 7, 11, 102
10, 112728, Control_c, 7, 11, 103
10, 112739, Control_c, 7, 11, 104
10, 112750, Control_c, 7, 11, 105
10, 112761, Control_c, 7, 11, 106
10, 112772, Control_c, 7, 11, 107
10, 112783, Control_c, 7, 11, 108
10, 112794, Control_c, 7, 11, 109
10, 112805, Control_c, 7, 11, 110
10, 112816, Control_c, 7, 11, 111
10, 112827, Control_c, 7, 11, 112
10, 112838, Control_c, 7, 11, 113
10, 112849, Control_c, 7, 11, 114
10, 112860, Control_c, 7, 11, 115
10, 112871, Control_c, 7, 11, 116
10, 112882, Control_c, 7, 11, 117
10, 112893, Control_c, 7, 11, 118
10, 112904, Control_c, 7, 11, 119
10, 112915, Control_c, 7, 11, 120
10, 112926, Control_c, 7, 11, 121
10, 112937, Control_c, 7, 11, 122
10, 112944, Note_on_c, 7, 56, 0
10, 112948, Control_c, 7, 11, 123
10, 112959, Control_c, 7, 11, 124
10, 112970, Control_c, 7, 11, 125
10, 112981, Control_c, 7, 11, 126
10, 112992, Control_c, 7, 11, 127
10, 113364, Note_on_c, 7, 65, 127
10, 113364, Note_on_c, 7, 68, 123
10, 113374, Note_on_c, 7, 65, 0
10, 113374, Note_on_c, 7, 68, 0
10, 113376, Control_c, 7, 11, 92
10, 113376, Note_on_c, 7, 65, 127
10, 113376, Note_on_c, 7, 68, 127
10, 113381, Control_c, 7, 11, 93
10, 113386, Control_c, 7, 11, 94
10, 113392, Control_c, 7, 11, 95
10, 113397, Control_c, 7, 11, 96
10, 113403, Control_c, 7, 11, 97
10, 113408, Control_c, 7, 11, 98
10, 113414, Control_c, 7, 11, 99
10, 113419, Control_c, 7, 11, 100
10, 113425, Control_c, 7, 11, 101
10, 113430, Control_c, 7, 11, 102
10, 113436, Control_c, 7, 11, 103
10, 113441, Control_c, 7, 11, 104
10, 113447, Control_c, 7, 11, 105
10, 113452, Control_c, 7, 11, 106
10, 113458, Control_c, 7, 11, 107
10, 113463, Control_c, 7, 11, 108
10, 113469, Control_c, 7, 11, 109
10, 113474, Control_c, 7, 11, 110
10, 113480, Control_c, 7, 11, 111
10, 113485, Control_c, 7, 11, 112
10, 113491, Control_c, 7, 11, 113
10, 113496, Control_c, 7, 11, 114
10, 113502, Control_c, 7, 11, 115
10, 113507, Control_c, 7, 11, 116
10, 113513, Control_c, 7, 11, 117
10, 113518, Control_c, 7, 11, 118
10, 113524, Control_c, 7, 11, 119
10, 113529, Control_c, 7, 11, 120
10, 113535, Control_c, 7, 11, 121
10, 113540, Control_c, 7, 11, 122
10, 113546, Control_c, 7, 11, 123
10, 113551, Control_c, 7, 11, 124
10, 113557, Control_c, 7, 11, 125
10, 113562, Control_c, 7, 11, 126
10, 113568, Control_c, 7, 11, 127
10, 113574, Control_c, 7, 11, 126
10, 113581, Control_c, 7, 11, 125
10, 113588, Control_c, 7, 11, 124
10, 113595, Control_c, 7, 11, 123
10, 113602, Control_c, 7, 11, 122
10, 113608, Control_c, 7, 11, 121
10, 113615, Control_c, 7, 11, 120
10, 113622, Control_c, 7, 11, 119
10, 113629, Control_c, 7, 11, 118
10, 113636, Control_c, 7, 11, 117
10, 113642, Control_c, 7, 11, 116
10, 113649, Control_c, 7, 11, 115
10, 113656, Control_c, 7, 11, 114
10, 113663, Control_c, 7, 11, 113
10, 113670, Control_c, 7, 11, 112
10, 113676, Control_c, 7, 11, 111
10, 113683, Control_c, 7, 11, 110
10, 113690, Control_c, 7, 11, 109
10, 113697, Control_c, 7, 11, 108
10, 113704, Control_c, 7, 11, 107
10, 113710, Control_c, 7, 11, 106
10, 113717, Control_c, 7, 11, 105
10, 113724, Control_c, 7, 11, 104
10, 113731, Control_c, 7, 11, 103
10, 113738, Control_c, 7, 11, 102
10, 113744, Control_c, 7, 11, 101
10, 113751, Control_c, 7, 11, 100
10, 113758, Control_c, 7, 11, 99
10, 113765, Control_c, 7, 11, 98
10, 113772, Control_c, 7, 11, 97
10, 113778, Control_c, 7, 11, 96
10, 113785, Control_c, 7, 11, 95
10, 113792, Control_c, 7, 11, 94
10, 113799, Control_c, 7, 11, 93
10, 113806, Control_c, 7, 11, 92
10, 113812, Control_c, 7, 11, 91
10, 113819, Control_c, 7, 11, 90
10, 113826, Control_c, 7, 11, 89
10, 113833, Control_c, 7, 11, 88
10, 113840, Control_c, 7, 11, 87
10, 113846, Control_c, 7, 11, 86
10, 113853, Control_c, 7, 11, 85
10, 113860, Control_c, 7, 11, 84
10, 113867, Control_c, 7, 11, 83
10, 113874, Control_c, 7, 11, 82
10, 113880, Control_c, 7, 11, 81
10, 113887, Control_c, 7, 11, 80
10, 113894, Control_c, 7, 11, 79
10, 113901, Control_c, 7, 11, 78
10, 113908, Control_c, 7, 11, 77
10, 113914, Control_c, 7, 11, 76
10, 113921, Control_c, 7, 11, 75
10, 113928, Control_c, 7, 11, 74
10, 113935, Control_c, 7, 11, 73
10, 113942, Control_c, 7, 11, 72
10, 113948, Control_c, 7, 11, 71
10, 113955, Control_c, 7, 11, 70
10, 113962, Control_c, 7, 11, 69
10, 113969, Control_c, 7, 11, 68
10, 113976, Control_c, 7, 11, 67
10, 113982, Control_c, 7, 11, 66
10, 113989, Control_c, 7, 11, 65
10, 113996, Control_c, 7, 11, 64
10, 114003, Control_c, 7, 11, 63
10, 114010, Control_c, 7, 11, 62
10, 114017, Control_c, 7, 11, 61
10, 114023, Control_c, 7, 11, 60
10, 114030, Control_c, 7, 11, 59
10, 114037, Control_c, 7, 11, 58
10, 114044, Control_c, 7, 11, 57
10, 114051, Control_c, 7, 11, 56
10, 114057, Control_c, 7, 11, 55
10, 114064, Control_c, 7, 11, 54
10, 114071, Control_c, 7, 11, 53
10, 114078, Control_c, 7, 11, 52
10, 114085, Control_c, 7, 11, 51
10, 114091, Control_c, 7, 11, 50
10, 114098, Control_c, 7, 11, 49
10, 114105, Control_c, 7, 11, 48
10, 114112, Control_c, 7, 11, 47
10, 114119, Control_c, 7, 11, 46
10, 114125, Control_c, 7, 11, 45
10, 114132, Control_c, 7, 11, 44
10, 114139, Control_c, 7, 11, 43
10, 114146, Control_c, 7, 11, 42
10, 114153, Control_c, 7, 11, 41
10, 114159, Control_c, 7, 11, 40
10, 114166, Control_c, 7, 11, 39
10, 114173, Control_c, 7, 11, 38
10, 114180, Control_c, 7, 11, 37
10, 114187, Control_c, 7, 11, 36
10, 114193, Control_c, 7, 11, 35
10, 114200, Control_c, 7, 11, 34
10, 114207, Control_c, 7, 11, 33
10, 114214, Control_c, 7, 11, 32
10, 114221, Control_c, 7, 11, 31
10, 114227, Control_c, 7, 11, 30
10, 114234, Control_c, 7, 11, 29
10, 114241, Control_c, 7, 11, 28
10, 114248, Control_c, 7, 11, 27
10, 114255, Control_c, 7, 11, 26
10, 114261, Control_c, 7, 11, 25
10, 114268, Control_c, 7, 11, 24
10, 114275, Control_c, 7, 11, 23
10, 114282, Control_c, 7, 11, 22
10, 114289, Control_c, 7, 11, 21
10, 114295, Control_c, 7, 11, 20
10, 114302, Control_c, 7, 11, 19
10, 114309, Control_c, 7, 11, 18
10, 114316, Control_c, 7, 11, 17
10, 114323, Control_c, 7, 11, 16
10, 114329, Control_c, 7, 11, 15
10, 114336, Control_c, 7, 11, 14
10, 114343, Control_c, 7, 11, 13
10, 114350, Control_c, 7, 11, 12
10, 114357, Control_c, 7, 11, 11
10, 114363, Control_c, 7, 11, 10
10, 114370, Control_c, 7, 11, 9
10, 114377, Control_c, 7, 11, 8
10, 114384, Control_c, 7, 11, 7
10, 114391, Control_c, 7, 11, 6
10, 114397, Control_c, 7, 11, 5
10, 114404, Control_c, 7, 11, 4
10, 114411, Control_c, 7, 11, 3
10, 114418, Control_c, 7, 11, 2
10, 114425, Control_c, 7, 11, 1
10, 114430, Note_on_c, 7, 65, 0
10, 114430, Note_on_c, 7, 68, 0
10, 114432, Control_c, 7, 11, 0
10, 114432, End_track
11, 0, Start_track
11, 0, Title_t, "Trombone III e Tuba"
11, 0, MIDI_port, 0
11, 51936, Control_c, 7, 11, 127
11, 51936, Note_on_c, 7, 30, 26
11, 52464, Note_on_c, 7, 30, 0
11, 53952, Note_on_c, 7, 56, 45
11, 54144, Note_on_c, 7, 56, 0
11, 54144, Note_on_c, 7, 53, 46
11, 54238, Note_on_c, 7, 53, 0
11, 54240, Note_on_c, 7, 28, 44
11, 54240, Note_on_c, 7, 47, 48
11, 54622, Note_on_c, 7, 28, 0
11, 54622, Note_on_c, 7, 47, 0
11, 84960, Control_c, 7, 11, 127
11, 86112, Note_on_c, 7, 32, 28
11, 88368, Note_on_c, 7, 32, 0
11, 88416, Note_on_c, 7, 30, 25
11, 88992, Note_on_c, 7, 30, 0
11, 88992, Note_on_c, 7, 29, 32
11, 89568, Note_on_c, 7, 29, 0
11, 89568, Note_on_c, 7, 28, 27
11, 89728, Note_on_c, 7, 28, 0
11, 94560, Note_on_c, 7, 33, 25
11, 94846, Note_on_c, 7, 33, 0
11, 95328, Note_on_c, 7, 28, 22
11, 95584, Note_on_c, 7, 28, 0
11, 108000, Control_c, 7, 11, 127
11, 108000, Note_on_c, 7, 42, 33
11, 108288, Note_on_c, 7, 42, 0
11, 108288, Note_on_c, 7, 47, 27
11, 108576, Note_on_c, 7, 47, 0
11, 108576, Note_on_c, 7, 54, 25
11, 108736, Note_on_c, 7, 54, 0
11, 108768, Note_on_c, 7, 50, 41
11, 109056, Note_on_c, 7, 50, 0
11, 109056, Note_on_c, 7, 49, 48
11, 109152, Note_on_c, 7, 49, 0
11, 109152, Note_on_c, 7, 50, 42
11, 109344, Note_on_c, 7, 50, 0
11, 109344, Note_on_c, 7, 52, 47
11, 109438, Note_on_c, 7, 52, 0
11, 110304, Note_on_c, 7, 37, 95
11, 110304, Note_on_c, 7, 49, 100
11, 110688, Note_on_c, 7, 37, 0
11, 110688, Note_on_c, 7, 49, 0
11, 110688, Note_on_c, 7, 34, 95
11, 110688, Note_on_c, 7, 46, 105
11, 111024, Note_on_c, 7, 34, 0
11, 111024, Note_on_c, 7, 46, 0
11, 111072, Note_on_c, 7, 37, 96
11, 111072, Note_on_c, 7, 49, 96
11, 111456, Note_on_c, 7, 37, 0
11, 111456, Note_on_c, 7, 49, 0
11, 111456, Note_on_c, 7, 34, 96
11, 111456, Note_on_c, 7, 46, 105
11, 111792, Note_on_c, 7, 34, 0
11, 111792, Note_on_c, 7, 46, 0
11, 111840, Note_on_c, 7, 34, 124
11, 111840, Note_on_c, 7, 53, 127
11, 112176, Note_on_c, 7, 34, 0
11, 112176, Note_on_c, 7, 53, 0
11, 112224, Note_on_c, 7, 34, 125
11, 112224, Note_on_c, 7, 53, 127
11, 112560, Note_on_c, 7, 34, 0
11, 112560, Note_on_c, 7, 53, 0
11, 113376, Note_on_c, 7, 61, 127
11, 114430, Note_on_c, 7, 61, 0
11, 114430, End_track
12, 0, Start_track
12, 0, Title_t, "Timpani"
12, 0, MIDI_port, 0
12, 125, Control_c, 8, 0, 0
12, 126, Control_c, 8, 32, 0
12, 127, Program_c, 8, 47
12, 128, Control_c, 8, 7, 127
12, 129, Control_c, 8, 91, 64
12, 2304, Note_on_c, 8, 47, 16
12, 2334, Note_on_c, 8, 47, 0
12, 2336, Note_on_c, 8, 47, 20
12, 2366, Note_on_c, 8, 47, 0
12, 2368, Note_on_c, 8, 47, 21
12, 2398, Note_on_c, 8, 47, 0
12, 2400, Note_on_c, 8, 47, 19
12, 2430, Note_on_c, 8, 47, 0
12, 2432, Note_on_c, 8, 47, 23
12, 2462, Note_on_c, 8, 47, 0
12, 2464, Note_on_c, 8, 47, 18
12, 2494, Note_on_c, 8, 47, 0
12, 2496, Note_on_c, 8, 47, 15
12, 2526, Note_on_c, 8, 47, 0
12, 2528, Note_on_c, 8, 47, 22
12, 2558, Note_on_c, 8, 47, 0
12, 2560, Note_on_c, 8, 47, 17
12, 2590, Note_on_c, 8, 47, 0
12, 2592, Note_on_c, 8, 47, 25
12, 2622, Note_on_c, 8, 47, 0
12, 2624, Note_on_c, 8, 47, 22
12, 2654, Note_on_c, 8, 47, 0
12, 2656, Note_on_c, 8, 47, 23
12, 2686, Note_on_c, 8, 47, 0
12, 2688, Note_on_c, 8, 47, 17
12, 2718, Note_on_c, 8, 47, 0
12, 2720, Note_on_c, 8, 47, 15
12, 2750, Note_on_c, 8, 47, 0
12, 2752, Note_on_c, 8, 47, 16
12, 2782, Note_on_c, 8, 47, 0
12, 2784, Note_on_c, 8, 47, 23
12, 2814, Note_on_c, 8, 47, 0
12, 2816, Note_on_c, 8, 47, 17
12, 2846, Note_on_c, 8, 47, 0
12, 2848, Note_on_c, 8, 47, 22
12, 2878, Note_on_c, 8, 47, 0
12, 2880, Note_on_c, 8, 47, 15
12, 2910, Note_on_c, 8, 47, 0
12, 2912, Note_on_c, 8, 47, 20
12, 2942, Note_on_c, 8, 47, 0
12, 2944, Note_on_c, 8, 47, 15
12, 2974, Note_on_c, 8, 47, 0
12, 2976, Note_on_c, 8, 47, 25
12, 3006, Note_on_c, 8, 47, 0
12, 3008, Note_on_c, 8, 47, 16
12, 3038, Note_on_c, 8, 47, 0
12, 3040, Note_on_c, 8, 47, 16
12, 3070, Note_on_c, 8, 47, 0
12, 3072, Note_on_c, 8, 47, 16
12, 3102, Note_on_c, 8, 47, 0
12, 3104, Note_on_c, 8, 47, 25
12, 3134, Note_on_c, 8, 47, 0
12, 3136, Note_on_c, 8, 47, 17
12, 3166, Note_on_c, 8, 47, 0
12, 3168, Note_on_c, 8, 47, 23
12, 3198, Note_on_c, 8, 47, 0
12, 3200, Note_on_c, 8, 47, 18
12, 3230, Note_on_c, 8, 47, 0
12, 3232, Note_on_c, 8, 47, 24
12, 3262, Note_on_c, 8, 47, 0
12, 3264, Note_on_c, 8, 47, 24
12, 3294, Note_on_c, 8, 47, 0
12, 3296, Note_on_c, 8, 47, 18
12, 3326, Note_on_c, 8, 47, 0
12, 3328, Note_on_c, 8, 47, 25
12, 3358, Note_on_c, 8, 47, 0
12, 3360, Note_on_c, 8, 47, 15
12, 3390, Note_on_c, 8, 47, 0
12, 3392, Note_on_c, 8, 47, 25
12, 3422, Note_on_c, 8, 47, 0
12, 3424, Note_on_c, 8, 47, 16
12, 3454, Note_on_c, 8, 47, 0
12, 3456, Note_on_c, 8, 47, 15
12, 3486, Note_on_c, 8, 47, 0
12, 3488, Note_on_c, 8, 47, 15
12, 3518, Note_on_c, 8, 47, 0
12, 3520, Note_on_c, 8, 47, 20
12, 3550, Note_on_c, 8, 47, 0
12, 3552, Note_on_c, 8, 47, 16
12, 3582, Note_on_c, 8, 47, 0
12, 3584, Note_on_c, 8, 47, 17
12, 3614, Note_on_c, 8, 47, 0
12, 3616, Note_on_c, 8, 47, 18
12, 3646, Note_on_c, 8, 47, 0
12, 3648, Note_on_c, 8, 47, 15
12, 3678, Note_on_c, 8, 47, 0
12, 3680, Note_on_c, 8, 47, 17
12, 3710, Note_on_c, 8, 47, 0
12, 3712, Note_on_c, 8, 47, 23
12, 3742, Note_on_c, 8, 47, 0
12, 3744, Note_on_c, 8, 47, 15
12, 3774, Note_on_c, 8, 47, 0
12, 3776, Note_on_c, 8, 47, 25
12, 3806, Note_on_c, 8, 47, 0
12, 3808, Note_on_c, 8, 47, 22
12, 3838, Note_on_c, 8, 47, 0
12, 3840, Note_on_c, 8, 47, 17
12, 3870, Note_on_c, 8, 47, 0
12, 3872, Note_on_c, 8, 47, 15
12, 3902, Note_on_c, 8, 47, 0
12, 3904, Note_on_c, 8, 47, 17
12, 3934, Note_on_c, 8, 47, 0
12, 3936, Note_on_c, 8, 47, 18
12, 3966, Note_on_c, 8, 47, 0
12, 3968, Note_on_c, 8, 47, 18
12, 3998, Note_on_c, 8, 47, 0
12, 4000, Note_on_c, 8, 47, 18
12, 4030, Note_on_c, 8, 47, 0
12, 4032, Note_on_c, 8, 47, 22
12, 4062, Note_on_c, 8, 47, 0
12, 4064, Note_on_c, 8, 47, 17
12, 4094, Note_on_c, 8, 47, 0
12, 4096, Note_on_c, 8, 47, 21
12, 4126, Note_on_c, 8, 47, 0
12, 4128, Note_on_c, 8, 47, 25
12, 4158, Note_on_c, 8, 47, 0
12, 4160, Note_on_c, 8, 47, 24
12, 4190, Note_on_c, 8, 47, 0
12, 4192, Note_on_c, 8, 47, 22
12, 4222, Note_on_c, 8, 47, 0
12, 4224, Note_on_c, 8, 47, 22
12, 4254, Note_on_c, 8, 47, 0
12, 4256, Note_on_c, 8, 47, 24
12, 4286, Note_on_c, 8, 47, 0
12, 4288, Note_on_c, 8, 47, 25
12, 4318, Note_on_c, 8, 47, 0
12, 4320, Note_on_c, 8, 47, 22
12, 4350, Note_on_c, 8, 47, 0
12, 4352, Note_on_c, 8, 47, 15
12, 4382, Note_on_c, 8, 47, 0
12, 4384, Note_on_c, 8, 47, 18
12, 4414, Note_on_c, 8, 47, 0
12, 4416, Note_on_c, 8, 47, 25
12, 4446, Note_on_c, 8, 47, 0
12, 4448, Note_on_c, 8, 47, 18
12, 4478, Note_on_c, 8, 47, 0
12, 4480, Note_on_c, 8, 47, 16
12, 4510, Note_on_c, 8, 47, 0
12, 4512, Note_on_c, 8, 47, 15
12, 4542, Note_on_c, 8, 47, 0
12, 4544, Note_on_c, 8, 47, 20
12, 4574, Note_on_c, 8, 47, 0
12, 4576, Note_on_c, 8, 47, 15
12, 4606, Note_on_c, 8, 47, 0
12, 4608, Note_on_c, 8, 47, 16
12, 4638, Note_on_c, 8, 47, 0
12, 4640, Note_on_c, 8, 47, 20
12, 4670, Note_on_c, 8, 47, 0
12, 4672, Note_on_c, 8, 47, 15
12, 4702, Note_on_c, 8, 47, 0
12, 4704, Note_on_c, 8, 47, 21
12, 4734, Note_on_c, 8, 47, 0
12, 4736, Note_on_c, 8, 47, 16
12, 4766, Note_on_c, 8, 47, 0
12, 4768, Note_on_c, 8, 47, 18
12, 4798, Note_on_c, 8, 47, 0
12, 4800, Note_on_c, 8, 47, 15
12, 4830, Note_on_c, 8, 47, 0
12, 4832, Note_on_c, 8, 47, 23
12, 4862, Note_on_c, 8, 47, 0
12, 4864, Note_on_c, 8, 47, 17
12, 4894, Note_on_c, 8, 47, 0
12, 4896, Note_on_c, 8, 47, 20
12, 4926, Note_on_c, 8, 47, 0
12, 4928, Note_on_c, 8, 47, 22
12, 4958, Note_on_c, 8, 47, 0
12, 4960, Note_on_c, 8, 47, 16
12, 4990, Note_on_c, 8, 47, 0
12, 4992, Note_on_c, 8, 47, 17
12, 5022, Note_on_c, 8, 47, 0
12, 5024, Note_on_c, 8, 47, 22
12, 5054, Note_on_c, 8, 47, 0
12, 5056, Note_on_c, 8, 47, 15
12, 5086, Note_on_c, 8, 47, 0
12, 5088, Note_on_c, 8, 47, 18
12, 5118, Note_on_c, 8, 47, 0
12, 5120, Note_on_c, 8, 47, 19
12, 5150, Note_on_c, 8, 47, 0
12, 5152, Note_on_c, 8, 47, 16
12, 5182, Note_on_c, 8, 47, 0
12, 5184, Note_on_c, 8, 47, 21
12, 5214, Note_on_c, 8, 47, 0
12, 5216, Note_on_c, 8, 47, 15
12, 5246, Note_on_c, 8, 47, 0
12, 5248, Note_on_c, 8, 47, 18
12, 5278, Note_on_c, 8, 47, 0
12, 5280, Note_on_c, 8, 47, 21
12, 5310, Note_on_c, 8, 47, 0
12, 5312, Note_on_c, 8, 47, 19
12, 5342, Note_on_c, 8, 47, 0
12, 5344, Note_on_c, 8, 47, 16
12, 5374, Note_on_c, 8, 47, 0
12, 5376, Note_on_c, 8, 47, 20
12, 5406, Note_on_c, 8, 47, 0
12, 5408, Note_on_c, 8, 47, 20
12, 5438, Note_on_c, 8, 47, 0
12, 5440, Note_on_c, 8, 47, 20
12, 5470, Note_on_c, 8, 47, 0
12, 5472, Note_on_c, 8, 47, 17
12, 5502, Note_on_c, 8, 47, 0
12, 5504, Note_on_c, 8, 47, 22
12, 5534, Note_on_c, 8, 47, 0
12, 5536, Note_on_c, 8, 47, 21
12, 5566, Note_on_c, 8, 47, 0
12, 5568, Note_on_c, 8, 47, 16
12, 5598, Note_on_c, 8, 47, 0
12, 5600, Note_on_c, 8, 47, 15
12, 5630, Note_on_c, 8, 47, 0
12, 5632, Note_on_c, 8, 47, 23
12, 5662, Note_on_c, 8, 47, 0
12, 5664, Note_on_c, 8, 47, 18
12, 5694, Note_on_c, 8, 47, 0
12, 5696, Note_on_c, 8, 47, 25
12, 5726, Note_on_c, 8, 47, 0
12, 5728, Note_on_c, 8, 47, 24
12, 5758, Note_on_c, 8, 47, 0
12, 5760, Note_on_c, 8, 47, 21
12, 5790, Note_on_c, 8, 47, 0
12, 5792, Note_on_c, 8, 47, 18
12, 5822, Note_on_c, 8, 47, 0
12, 5824, Note_on_c, 8, 47, 16
12, 5854, Note_on_c, 8, 47, 0
12, 5856, Note_on_c, 8, 47, 18
12, 5886, Note_on_c, 8, 47, 0
12, 5888, Note_on_c, 8, 47, 19
12, 5918, Note_on_c, 8, 47, 0
12, 5920, Note_on_c, 8, 47, 19
12, 5950, Note_on_c, 8, 47, 0
12, 5952, Note_on_c, 8, 47, 18
12, 5982, Note_on_c, 8, 47, 0
12, 5984, Note_on_c, 8, 47, 20
12, 6014, Note_on_c, 8, 47, 0
12, 6016, Note_on_c, 8, 47, 23
12, 6046, Note_on_c, 8, 47, 0
12, 6048, Note_on_c, 8, 47, 19
12, 6078, Note_on_c, 8, 47, 0
12, 6080, Note_on_c, 8, 47, 15
12, 6110, Note_on_c, 8, 47, 0
12, 6112, Note_on_c, 8, 47, 16
12, 6142, Note_on_c, 8, 47, 0
12, 6144, Note_on_c, 8, 47, 24
12, 6174, Note_on_c, 8, 47, 0
12, 6176, Note_on_c, 8, 47, 25
12, 6206, Note_on_c, 8, 47, 0
12, 6208, Note_on_c, 8, 47, 21
12, 6238, Note_on_c, 8, 47, 0
12, 6240, Note_on_c, 8, 47, 20
12, 6270, Note_on_c, 8, 47, 0
12, 6272, Note_on_c, 8, 47, 16
12, 6302, Note_on_c, 8, 47, 0
12, 6304, Note_on_c, 8, 47, 15
12, 6334, Note_on_c, 8, 47, 0
12, 6336, Note_on_c, 8, 47, 18
12, 6366, Note_on_c, 8, 47, 0
12, 6368, Note_on_c, 8, 47, 25
12, 6398, Note_on_c, 8, 47, 0
12, 6400, Note_on_c, 8, 47, 24
12, 6430, Note_on_c, 8, 47, 0
12, 6432, Note_on_c, 8, 47, 16
12, 6462, Note_on_c, 8, 47, 0
12, 6464, Note_on_c, 8, 47, 15
12, 6494, Note_on_c, 8, 47, 0
12, 6496, Note_on_c, 8, 47, 21
12, 6526, Note_on_c, 8, 47, 0
12, 6528, Note_on_c, 8, 47, 17
12, 6558, Note_on_c, 8, 47, 0
12, 6560, Note_on_c, 8, 47, 15
12, 6590, Note_on_c, 8, 47, 0
12, 6592, Note_on_c, 8, 47, 20
12, 6622, Note_on_c, 8, 47, 0
12, 6624, Note_on_c, 8, 47, 16
12, 6654, Note_on_c, 8, 47, 0
12, 6656, Note_on_c, 8, 47, 16
12, 6686, Note_on_c, 8, 47, 0
12, 6688, Note_on_c, 8, 47, 15
12, 6718, Note_on_c, 8, 47, 0
12, 6720, Note_on_c, 8, 47, 18
12, 6750, Note_on_c, 8, 47, 0
12, 6752, Note_on_c, 8, 47, 21
12, 6782, Note_on_c, 8, 47, 0
12, 6784, Note_on_c, 8, 47, 24
12, 6814, Note_on_c, 8, 47, 0
12, 6816, Note_on_c, 8, 47, 19
12, 6846, Note_on_c, 8, 47, 0
12, 6848, Note_on_c, 8, 47, 23
12, 6878, Note_on_c, 8, 47, 0
12, 6880, Note_on_c, 8, 47, 23
12, 6910, Note_on_c, 8, 47, 0
12, 6912, Note_on_c, 8, 47, 17
12, 6942, Note_on_c, 8, 47, 0
12, 6944, Note_on_c, 8, 47, 20
12, 6974, Note_on_c, 8, 47, 0
12, 6976, Note_on_c, 8, 47, 24
12, 7006, Note_on_c, 8, 47, 0
12, 7008, Note_on_c, 8, 47, 15
12, 7038, Note_on_c, 8, 47, 0
12, 7040, Note_on_c, 8, 47, 20
12, 7070, Note_on_c, 8, 47, 0
12, 7072, Note_on_c, 8, 47, 21
12, 7102, Note_on_c, 8, 47, 0
12, 7104, Note_on_c, 8, 47, 25
12, 7134, Note_on_c, 8, 47, 0
12, 7136, Note_on_c, 8, 47, 17
12, 7166, Note_on_c, 8, 47, 0
12, 7168, Note_on_c, 8, 47, 20
12, 7198, Note_on_c, 8, 47, 0
12, 7200, Note_on_c, 8, 47, 18
12, 7230, Note_on_c, 8, 47, 0
12, 7232, Note_on_c, 8, 47, 25
12, 7262, Note_on_c, 8, 47, 0
12, 7264, Note_on_c, 8, 47, 25
12, 7294, Note_on_c, 8, 47, 0
12, 7296, Note_on_c, 8, 47, 16
12, 7326, Note_on_c, 8, 47, 0
12, 7328, Note_on_c, 8, 47, 24
12, 7358, Note_on_c, 8, 47, 0
12, 7360, Note_on_c, 8, 47, 25
12, 7390, Note_on_c, 8, 47, 0
12, 7392, Note_on_c, 8, 47, 16
12, 7422, Note_on_c, 8, 47, 0
12, 7424, Note_on_c, 8, 47, 24
12, 7454, Note_on_c, 8, 47, 0
12, 7456, Note_on_c, 8, 47, 15
12, 7486, Note_on_c, 8, 47, 0
12, 7488, Note_on_c, 8, 47, 18
12, 7518, Note_on_c, 8, 47, 0
12, 7520, Note_on_c, 8, 47, 19
12, 7550, Note_on_c, 8, 47, 0
12, 7552, Note_on_c, 8, 47, 17
12, 7582, Note_on_c, 8, 47, 0
12, 7584, Note_on_c, 8, 47, 19
12, 7614, Note_on_c, 8, 47, 0
12, 7616, Note_on_c, 8, 47, 20
12, 7646, Note_on_c, 8, 47, 0
12, 7648, Note_on_c, 8, 47, 19
12, 7678, Note_on_c, 8, 47, 0
12, 7680, Note_on_c, 8, 47, 24
12, 7710, Note_on_c, 8, 47, 0
12, 7712, Note_on_c, 8, 47, 15
12, 7742, Note_on_c, 8, 47, 0
12, 7744, Note_on_c, 8, 47, 22
12, 7774, Note_on_c, 8, 47, 0
12, 7776, Note_on_c, 8, 47, 25
12, 7806, Note_on_c, 8, 47, 0
12, 7808, Note_on_c, 8, 47, 17
12, 7838, Note_on_c, 8, 47, 0
12, 7840, Note_on_c, 8, 47, 24
12, 7870, Note_on_c, 8, 47, 0
12, 7872, Note_on_c, 8, 47, 24
12, 7902, Note_on_c, 8, 47, 0
12, 7904, Note_on_c, 8, 47, 21
12, 7934, Note_on_c, 8, 47, 0
12, 7936, Note_on_c, 8, 47, 18
12, 7966, Note_on_c, 8, 47, 0
12, 7968, Note_on_c, 8, 47, 24
12, 7998, Note_on_c, 8, 47, 0
12, 8000, Note_on_c, 8, 47, 21
12, 8030, Note_on_c, 8, 47, 0
12, 8032, Note_on_c, 8, 47, 23
12, 8062, Note_on_c, 8, 47, 0
12, 8064, Note_on_c, 8, 47, 19
12, 8094, Note_on_c, 8, 47, 0
12, 8096, Note_on_c, 8, 47, 20
12, 8126, Note_on_c, 8, 47, 0
12, 8128, Note_on_c, 8, 47, 24
12, 8158, Note_on_c, 8, 47, 0
12, 8160, Note_on_c, 8, 47, 23
12, 8190, Note_on_c, 8, 47, 0
12, 8192, Note_on_c, 8, 47, 18
12, 8222, Note_on_c, 8, 47, 0
12, 8224, Note_on_c, 8, 47, 22
12, 8254, Note_on_c, 8, 47, 0
12, 8256, Note_on_c, 8, 47, 16
12, 8286, Note_on_c, 8, 47, 0
12, 8288, Note_on_c, 8, 47, 21
12, 8318, Note_on_c, 8, 47, 0
12, 8320, Note_on_c, 8, 47, 18
12, 8350, Note_on_c, 8, 47, 0
12, 8352, Note_on_c, 8, 47, 25
12, 8382, Note_on_c, 8, 47, 0
12, 8384, Note_on_c, 8, 47, 23
12, 8414, Note_on_c, 8, 47, 0
12, 8416, Note_on_c, 8, 47, 21
12, 8446, Note_on_c, 8, 47, 0
12, 8448, Note_on_c, 8, 47, 25
12, 8478, Note_on_c, 8, 47, 0
12, 8480, Note_on_c, 8, 47, 21
12, 8510, Note_on_c, 8, 47, 0
12, 8512, Note_on_c, 8, 47, 16
12, 8542, Note_on_c, 8, 47, 0
12, 8544, Note_on_c, 8, 47, 20
12, 8574, Note_on_c, 8, 47, 0
12, 8576, Note_on_c, 8, 47, 16
12, 8606, Note_on_c, 8, 47, 0
12, 8608, Note_on_c, 8, 47, 25
12, 8638, Note_on_c, 8, 47, 0
12, 8640, Note_on_c, 8, 47, 22
12, 8670, Note_on_c, 8, 47, 0
12, 8672, Note_on_c, 8, 47, 25
12, 8702, Note_on_c, 8, 47, 0
12, 8704, Note_on_c, 8, 47, 19
12, 8734, Note_on_c, 8, 47, 0
12, 8736, Note_on_c, 8, 47, 22
12, 8766, Note_on_c, 8, 47, 0
12, 8768, Note_on_c, 8, 47, 18
12, 8798, Note_on_c, 8, 47, 0
12, 8800, Note_on_c, 8, 47, 25
12, 8830, Note_on_c, 8, 47, 0
12, 8832, Note_on_c, 8, 47, 16
12, 8862, Note_on_c, 8, 47, 0
12, 8864, Note_on_c, 8, 47, 24
12, 8894, Note_on_c, 8, 47, 0
12, 8896, Note_on_c, 8, 47, 16
12, 8926, Note_on_c, 8, 47, 0
12, 8928, Note_on_c, 8, 47, 24
12, 8958, Note_on_c, 8, 47, 0
12, 8960, Note_on_c, 8, 47, 15
12, 8990, Note_on_c, 8, 47, 0
12, 8992, Note_on_c, 8, 47, 15
12, 9022, Note_on_c, 8, 47, 0
12, 9024, Note_on_c, 8, 47, 19
12, 9054, Note_on_c, 8, 47, 0
12, 9056, Note_on_c, 8, 47, 25
12, 9086, Note_on_c, 8, 47, 0
12, 9088, Note_on_c, 8, 47, 20
12, 9118, Note_on_c, 8, 47, 0
12, 9120, Note_on_c, 8, 47, 18
12, 9150, Note_on_c, 8, 47, 0
12, 9152, Note_on_c, 8, 47, 15
12, 9182, Note_on_c, 8, 47, 0
12, 9184, Note_on_c, 8, 47, 22
12, 9214, Note_on_c, 8, 47, 0
12, 9216, Note_on_c, 8, 47, 15
12, 9246, Note_on_c, 8, 47, 0
12, 9248, Note_on_c, 8, 47, 24
12, 9278, Note_on_c, 8, 47, 0
12, 9280, Note_on_c, 8, 47, 18
12, 9310, Note_on_c, 8, 47, 0
12, 9312, Note_on_c, 8, 47, 23
12, 9342, Note_on_c, 8, 47, 0
12, 9344, Note_on_c, 8, 47, 22
12, 9374, Note_on_c, 8, 47, 0
12, 9376, Note_on_c, 8, 47, 15
12, 9406, Note_on_c, 8, 47, 0
12, 9408, Note_on_c, 8, 47, 25
12, 9438, Note_on_c, 8, 47, 0
12, 9440, Note_on_c, 8, 47, 23
12, 9470, Note_on_c, 8, 47, 0
12, 9472, Note_on_c, 8, 47, 18
12, 9502, Note_on_c, 8, 47, 0
12, 9504, Note_on_c, 8, 47, 22
12, 9534, Note_on_c, 8, 47, 0
12, 9536, Note_on_c, 8, 47, 19
12, 9566, Note_on_c, 8, 47, 0
12, 9568, Note_on_c, 8, 47, 19
12, 9598, Note_on_c, 8, 47, 0
12, 9600, Note_on_c, 8, 47, 22
12, 9630, Note_on_c, 8, 47, 0
12, 9632, Note_on_c, 8, 47, 24
12, 9662, Note_on_c, 8, 47, 0
12, 9664, Note_on_c, 8, 47, 15
12, 9694, Note_on_c, 8, 47, 0
12, 9696, Note_on_c, 8, 47, 23
12, 9726, Note_on_c, 8, 47, 0
12, 9728, Note_on_c, 8, 47, 17
12, 9758, Note_on_c, 8, 47, 0
12, 9760, Note_on_c, 8, 47, 22
12, 9790, Note_on_c, 8, 47, 0
12, 9792, Note_on_c, 8, 47, 18
12, 9822, Note_on_c, 8, 47, 0
12, 9824, Note_on_c, 8, 47, 20
12, 9854, Note_on_c, 8, 47, 0
12, 9856, Note_on_c, 8, 47, 19
12, 9886, Note_on_c, 8, 47, 0
12, 9888, Note_on_c, 8, 47, 24
12, 9918, Note_on_c, 8, 47, 0
12, 9920, Note_on_c, 8, 47, 23
12, 9950, Note_on_c, 8, 47, 0
12, 9952, Note_on_c, 8, 47, 21
12, 9982, Note_on_c, 8, 47, 0
12, 9984, Note_on_c, 8, 47, 20
12, 10014, Note_on_c, 8, 47, 0
12, 10016, Note_on_c, 8, 47, 19
12, 10046, Note_on_c, 8, 47, 0
12, 10048, Note_on_c, 8, 47, 23
12, 10078, Note_on_c, 8, 47, 0
12, 10080, Note_on_c, 8, 47, 24
12, 10110, Note_on_c, 8, 47, 0
12, 10112, Note_on_c, 8, 47, 20
12, 10142, Note_on_c, 8, 47, 0
12, 10144, Note_on_c, 8, 47, 16
12, 10174, Note_on_c, 8, 47, 0
12, 10176, Note_on_c, 8, 47, 25
12, 10206, Note_on_c, 8, 47, 0
12, 10208, Note_on_c, 8, 47, 21
12, 10238, Note_on_c, 8, 47, 0
12, 10240, Note_on_c, 8, 47, 24
12, 10270, Note_on_c, 8, 47, 0
12, 10272, Note_on_c, 8, 47, 18
12, 10302, Note_on_c, 8, 47, 0
12, 10304, Note_on_c, 8, 47, 16
12, 10334, Note_on_c, 8, 47, 0
12, 10336, Note_on_c, 8, 47, 15
12, 10366, Note_on_c, 8, 47, 0
12, 10368, Note_on_c, 8, 47, 25
12, 10398, Note_on_c, 8, 47, 0
12, 10400, Note_on_c, 8, 47, 25
12, 10430, Note_on_c, 8, 47, 0
12, 10432, Note_on_c, 8, 47, 17
12, 10462, Note_on_c, 8, 47, 0
12, 10464, Note_on_c, 8, 47, 24
12, 10494, Note_on_c, 8, 47, 0
12, 10496, Note_on_c, 8, 47, 17
12, 10526, Note_on_c, 8, 47, 0
12, 10528, Note_on_c, 8, 47, 21
12, 10558, Note_on_c, 8, 47, 0
12, 10560, Note_on_c, 8, 47, 15
12, 10590, Note_on_c, 8, 47, 0
12, 10592, Note_on_c, 8, 47, 19
12, 10622, Note_on_c, 8, 47, 0
12, 10624, Note_on_c, 8, 47, 17
12, 10654, Note_on_c, 8, 47, 0
12, 10656, Note_on_c, 8, 47, 17
12, 10686, Note_on_c, 8, 47, 0
12, 10688, Note_on_c, 8, 47, 17
12, 10718, Note_on_c, 8, 47, 0
12, 10720, Note_on_c, 8, 47, 15
12, 10750, Note_on_c, 8, 47, 0
12, 10752, Note_on_c, 8, 47, 21
12, 10782, Note_on_c, 8, 47, 0
12, 10784, Note_on_c, 8, 47, 23
12, 10814, Note_on_c, 8, 47, 0
12, 10816, Note_on_c, 8, 47, 25
12, 10846, Note_on_c, 8, 47, 0
12, 10848, Note_on_c, 8, 47, 23
12, 10878, Note_on_c, 8, 47, 0
12, 10880, Note_on_c, 8, 47, 16
12, 10910, Note_on_c, 8, 47, 0
12, 10912, Note_on_c, 8, 47, 25
12, 10942, Note_on_c, 8, 47, 0
12, 10944, Note_on_c, 8, 47, 22
12, 10974, Note_on_c, 8, 47, 0
12, 10976, Note_on_c, 8, 47, 17
12, 11006, Note_on_c, 8, 47, 0
12, 11008, Note_on_c, 8, 47, 24
12, 11038, Note_on_c, 8, 47, 0
12, 11040, Note_on_c, 8, 47, 18
12, 11070, Note_on_c, 8, 47, 0
12, 11072, Note_on_c, 8, 47, 21
12, 11102, Note_on_c, 8, 47, 0
12, 11104, Note_on_c, 8, 47, 17
12, 11134, Note_on_c, 8, 47, 0
12, 11136, Note_on_c, 8, 47, 17
12, 11166, Note_on_c, 8, 47, 0
12, 11168, Note_on_c, 8, 47, 15
12, 11198, Note_on_c, 8, 47, 0
12, 11200, Note_on_c, 8, 47, 24
12, 11230, Note_on_c, 8, 47, 0
12, 11232, Note_on_c, 8, 47, 15
12, 11262, Note_on_c, 8, 47, 0
12, 11264, Note_on_c, 8, 47, 16
12, 11294, Note_on_c, 8, 47, 0
12, 11296, Note_on_c, 8, 47, 22
12, 11326, Note_on_c, 8, 47, 0
12, 11328, Note_on_c, 8, 47, 15
12, 11358, Note_on_c, 8, 47, 0
12, 11360, Note_on_c, 8, 47, 17
12, 11390, Note_on_c, 8, 47, 0
12, 11392, Note_on_c, 8, 47, 22
12, 11422, Note_on_c, 8, 47, 0
12, 11424, Note_on_c, 8, 47, 18
12, 11454, Note_on_c, 8, 47, 0
12, 11456, Note_on_c, 8, 47, 15
12, 11486, Note_on_c, 8, 47, 0
12, 11488, Note_on_c, 8, 47, 24
12, 11518, Note_on_c, 8, 47, 0
12, 11520, Note_on_c, 8, 47, 21
12, 11550, Note_on_c, 8, 47, 0
12, 11552, Note_on_c, 8, 47, 17
12, 11582, Note_on_c, 8, 47, 0
12, 11584, Note_on_c, 8, 47, 18
12, 11614, Note_on_c, 8, 47, 0
12, 11616, Note_on_c, 8, 47, 18
12, 11646, Note_on_c, 8, 47, 0
12, 11648, Note_on_c, 8, 47, 18
12, 11678, Note_on_c, 8, 47, 0
12, 11680, Note_on_c, 8, 47, 15
12, 11710, Note_on_c, 8, 47, 0
12, 11712, Note_on_c, 8, 47, 22
12, 11742, Note_on_c, 8, 47, 0
12, 11744, Note_on_c, 8, 47, 18
12, 11774, Note_on_c, 8, 47, 0
12, 11776, Note_on_c, 8, 47, 21
12, 11806, Note_on_c, 8, 47, 0
12, 11808, Note_on_c, 8, 47, 23
12, 11838, Note_on_c, 8, 47, 0
12, 11840, Note_on_c, 8, 47, 20
12, 11870, Note_on_c, 8, 47, 0
12, 11872, Note_on_c, 8, 47, 16
12, 11902, Note_on_c, 8, 47, 0
12, 11904, Note_on_c, 8, 47, 15
12, 11934, Note_on_c, 8, 47, 0
12, 11936, Note_on_c, 8, 47, 19
12, 11966, Note_on_c, 8, 47, 0
12, 11968, Note_on_c, 8, 47, 25
12, 11998, Note_on_c, 8, 47, 0
12, 12000, Note_on_c, 8, 47, 25
12, 12030, Note_on_c, 8, 47, 0
12, 12032, Note_on_c, 8, 47, 25
12, 12062, Note_on_c, 8, 47, 0
12, 12064, Note_on_c, 8, 47, 24
12, 12094, Note_on_c, 8, 47, 0
12, 12096, Note_on_c, 8, 47, 22
12, 12126, Note_on_c, 8, 47, 0
12, 12128, Note_on_c, 8, 47, 24
12, 12158, Note_on_c, 8, 47, 0
12, 12160, Note_on_c, 8, 47, 22
12, 12190, Note_on_c, 8, 47, 0
12, 12192, Note_on_c, 8, 47, 16
12, 12222, Note_on_c, 8, 47, 0
12, 12224, Note_on_c, 8, 47, 20
12, 12254, Note_on_c, 8, 47, 0
12, 12256, Note_on_c, 8, 47, 25
12, 12286, Note_on_c, 8, 47, 0
12, 12288, Note_on_c, 8, 47, 20
12, 12318, Note_on_c, 8, 47, 0
12, 12320, Note_on_c, 8, 47, 19
12, 12350, Note_on_c, 8, 47, 0
12, 12352, Note_on_c, 8, 47, 25
12, 12382, Note_on_c, 8, 47, 0
12, 12384, Note_on_c, 8, 47, 19
12, 12414, Note_on_c, 8, 47, 0
12, 12416, Note_on_c, 8, 47, 20
12, 12446, Note_on_c, 8, 47, 0
12, 12448, Note_on_c, 8, 47, 15
12, 12478, Note_on_c, 8, 47, 0
12, 12480, Note_on_c, 8, 47, 17
12, 12510, Note_on_c, 8, 47, 0
12, 12512, Note_on_c, 8, 47, 17
12, 12542, Note_on_c, 8, 47, 0
12, 12544, Note_on_c, 8, 47, 17
12, 12574, Note_on_c, 8, 47, 0
12, 12576, Note_on_c, 8, 47, 24
12, 12606, Note_on_c, 8, 47, 0
12, 12608, Note_on_c, 8, 47, 16
12, 12638, Note_on_c, 8, 47, 0
12, 12640, Note_on_c, 8, 47, 16
12, 12670, Note_on_c, 8, 47, 0
12, 12672, Note_on_c, 8, 47, 23
12, 12832, Note_on_c, 8, 47, 0
12, 16512, Note_on_c, 8, 50, 20
12, 16542, Note_on_c, 8, 50, 0
12, 16544, Note_on_c, 8, 50, 24
12, 16574, Note_on_c, 8, 50, 0
12, 16576, Note_on_c, 8, 50, 19
12, 16606, Note_on_c, 8, 50, 0
12, 16608, Note_on_c, 8, 50, 25
12, 16638, Note_on_c, 8, 50, 0
12, 16640, Note_on_c, 8, 50, 21
12, 16670, Note_on_c, 8, 50, 0
12, 16672, Note_on_c, 8, 50, 23
12, 16702, Note_on_c, 8, 50, 0
12, 16704, Note_on_c, 8, 50, 19
12, 16734, Note_on_c, 8, 50, 0
12, 16736, Note_on_c, 8, 50, 24
12, 16766, Note_on_c, 8, 50, 0
12, 16768, Note_on_c, 8, 50, 18
12, 16798, Note_on_c, 8, 50, 0
12, 16800, Note_on_c, 8, 50, 15
12, 16830, Note_on_c, 8, 50, 0
12, 16832, Note_on_c, 8, 50, 24
12, 16862, Note_on_c, 8, 50, 0
12, 16864, Note_on_c, 8, 50, 22
12, 16894, Note_on_c, 8, 50, 0
12, 16896, Note_on_c, 8, 50, 20
12, 16926, Note_on_c, 8, 50, 0
12, 16928, Note_on_c, 8, 50, 15
12, 16958, Note_on_c, 8, 50, 0
12, 16960, Note_on_c, 8, 50, 23
12, 16990, Note_on_c, 8, 50, 0
12, 16992, Note_on_c, 8, 50, 23
12, 17022, Note_on_c, 8, 50, 0
12, 17024, Note_on_c, 8, 50, 19
12, 17054, Note_on_c, 8, 50, 0
12, 17056, Note_on_c, 8, 50, 19
12, 17086, Note_on_c, 8, 50, 0
12, 17088, Note_on_c, 8, 50, 16
12, 17118, Note_on_c, 8, 50, 0
12, 17120, Note_on_c, 8, 50, 17
12, 17150, Note_on_c, 8, 50, 0
12, 17152, Note_on_c, 8, 50, 15
12, 17182, Note_on_c, 8, 50, 0
12, 17184, Note_on_c, 8, 50, 16
12, 17214, Note_on_c, 8, 50, 0
12, 17216, Note_on_c, 8, 50, 22
12, 17246, Note_on_c, 8, 50, 0
12, 17248, Note_on_c, 8, 50, 19
12, 17278, Note_on_c, 8, 50, 0
12, 17280, Note_on_c, 8, 50, 19
12, 17310, Note_on_c, 8, 50, 0
12, 17312, Note_on_c, 8, 50, 20
12, 17342, Note_on_c, 8, 50, 0
12, 17344, Note_on_c, 8, 50, 20
12, 17374, Note_on_c, 8, 50, 0
12, 17376, Note_on_c, 8, 50, 24
12, 17406, Note_on_c, 8, 50, 0
12, 17408, Note_on_c, 8, 50, 17
12, 17438, Note_on_c, 8, 50, 0
12, 17440, Note_on_c, 8, 50, 16
12, 17470, Note_on_c, 8, 50, 0
12, 17472, Note_on_c, 8, 50, 15
12, 17502, Note_on_c, 8, 50, 0
12, 17504, Note_on_c, 8, 50, 15
12, 17534, Note_on_c, 8, 50, 0
12, 17536, Note_on_c, 8, 50, 19
12, 17566, Note_on_c, 8, 50, 0
12, 17568, Note_on_c, 8, 50, 23
12, 17598, Note_on_c, 8, 50, 0
12, 17600, Note_on_c, 8, 50, 25
12, 17630, Note_on_c, 8, 50, 0
12, 17632, Note_on_c, 8, 50, 21
12, 17662, Note_on_c, 8, 50, 0
12, 17664, Note_on_c, 8, 50, 23
12, 17694, Note_on_c, 8, 50, 0
12, 17696, Note_on_c, 8, 50, 25
12, 17726, Note_on_c, 8, 50, 0
12, 17728, Note_on_c, 8, 50, 17
12, 17758, Note_on_c, 8, 50, 0
12, 17760, Note_on_c, 8, 50, 22
12, 17790, Note_on_c, 8, 50, 0
12, 17792, Note_on_c, 8, 50, 25
12, 17822, Note_on_c, 8, 50, 0
12, 17824, Note_on_c, 8, 50, 15
12, 17854, Note_on_c, 8, 50, 0
12, 17856, Note_on_c, 8, 50, 22
12, 17886, Note_on_c, 8, 50, 0
12, 17888, Note_on_c, 8, 50, 19
12, 17918, Note_on_c, 8, 50, 0
12, 17920, Note_on_c, 8, 50, 18
12, 17950, Note_on_c, 8, 50, 0
12, 17952, Note_on_c, 8, 50, 22
12, 17982, Note_on_c, 8, 50, 0
12, 17984, Note_on_c, 8, 50, 17
12, 18014, Note_on_c, 8, 50, 0
12, 18016, Note_on_c, 8, 50, 17
12, 18046, Note_on_c, 8, 50, 0
12, 18048, Note_on_c, 8, 50, 24
12, 18078, Note_on_c, 8, 50, 0
12, 18080, Note_on_c, 8, 50, 19
12, 18110, Note_on_c, 8, 50, 0
12, 18112, Note_on_c, 8, 50, 16
12, 18142, Note_on_c, 8, 50, 0
12, 18144, Note_on_c, 8, 50, 20
12, 18174, Note_on_c, 8, 50, 0
12, 18176, Note_on_c, 8, 50, 25
12, 18206, Note_on_c, 8, 50, 0
12, 18208, Note_on_c, 8, 50, 25
12, 18238, Note_on_c, 8, 50, 0
12, 18240, Note_on_c, 8, 50, 21
12, 18270, Note_on_c, 8, 50, 0
12, 18272, Note_on_c, 8, 50, 23
12, 18302, Note_on_c, 8, 50, 0
12, 18304, Note_on_c, 8, 50, 17
12, 18334, Note_on_c, 8, 50, 0
12, 18336, Note_on_c, 8, 50, 24
12, 18366, Note_on_c, 8, 50, 0
12, 18368, Note_on_c, 8, 50, 21
12, 18398, Note_on_c, 8, 50, 0
12, 18400, Note_on_c, 8, 50, 25
12, 18430, Note_on_c, 8, 50, 0
12, 18432, Note_on_c, 8, 50, 19
12, 18462, Note_on_c, 8, 50, 0
12, 18464, Note_on_c, 8, 50, 18
12, 18494, Note_on_c, 8, 50, 0
12, 18496, Note_on_c, 8, 50, 19
12, 18526, Note_on_c, 8, 50, 0
12, 18528, Note_on_c, 8, 50, 19
12, 18558, Note_on_c, 8, 50, 0
12, 18560, Note_on_c, 8, 50, 25
12, 18590, Note_on_c, 8, 50, 0
12, 18592, Note_on_c, 8, 50, 24
12, 18622, Note_on_c, 8, 50, 0
12, 18624, Note_on_c, 8, 50, 17
12, 18654, Note_on_c, 8, 50, 0
12, 18656, Note_on_c, 8, 50, 16
12, 18686, Note_on_c, 8, 50, 0
12, 18688, Note_on_c, 8, 50, 17
12, 18718, Note_on_c, 8, 50, 0
12, 18720, Note_on_c, 8, 50, 24
12, 18750, Note_on_c, 8, 50, 0
12, 18752, Note_on_c, 8, 50, 22
12, 18782, Note_on_c, 8, 50, 0
12, 18784, Note_on_c, 8, 50, 18
12, 18814, Note_on_c, 8, 50, 0
12, 18816, Note_on_c, 8, 50, 18
12, 18846, Note_on_c, 8, 50, 0
12, 18848, Note_on_c, 8, 50, 22
12, 18878, Note_on_c, 8, 50, 0
12, 18880, Note_on_c, 8, 50, 25
12, 18910, Note_on_c, 8, 50, 0
12, 18912, Note_on_c, 8, 50, 23
12, 18942, Note_on_c, 8, 50, 0
12, 18944, Note_on_c, 8, 50, 22
12, 18974, Note_on_c, 8, 50, 0
12, 18976, Note_on_c, 8, 50, 15
12, 19006, Note_on_c, 8, 50, 0
12, 19008, Note_on_c, 8, 50, 23
12, 19038, Note_on_c, 8, 50, 0
12, 19040, Note_on_c, 8, 50, 19
12, 19070, Note_on_c, 8, 50, 0
12, 19072, Note_on_c, 8, 50, 21
12, 19102, Note_on_c, 8, 50, 0
12, 19104, Note_on_c, 8, 50, 17
12, 19134, Note_on_c, 8, 50, 0
12, 19136, Note_on_c, 8, 50, 17
12, 19166, Note_on_c, 8, 50, 0
12, 19168, Note_on_c, 8, 50, 18
12, 19198, Note_on_c, 8, 50, 0
12, 19200, Note_on_c, 8, 50, 24
12, 19230, Note_on_c, 8, 50, 0
12, 19232, Note_on_c, 8, 50, 24
12, 19262, Note_on_c, 8, 50, 0
12, 19264, Note_on_c, 8, 50, 23
12, 19294, Note_on_c, 8, 50, 0
12, 19296, Note_on_c, 8, 50, 18
12, 19326, Note_on_c, 8, 50, 0
12, 19328, Note_on_c, 8, 50, 17
12, 19358, Note_on_c, 8, 50, 0
12, 19360, Note_on_c, 8, 50, 15
12, 19390, Note_on_c, 8, 50, 0
12, 19392, Note_on_c, 8, 50, 20
12, 19422, Note_on_c, 8, 50, 0
12, 19424, Note_on_c, 8, 50, 24
12, 19454, Note_on_c, 8, 50, 0
12, 19456, Note_on_c, 8, 50, 17
12, 19486, Note_on_c, 8, 50, 0
12, 19488, Note_on_c, 8, 50, 21
12, 19518, Note_on_c, 8, 50, 0
12, 19520, Note_on_c, 8, 50, 22
12, 19550, Note_on_c, 8, 50, 0
12, 19552, Note_on_c, 8, 50, 15
12, 19582, Note_on_c, 8, 50, 0
12, 19584, Note_on_c, 8, 50, 15
12, 19614, Note_on_c, 8, 50, 0
12, 19616, Note_on_c, 8, 50, 17
12, 19646, Note_on_c, 8, 50, 0
12, 19648, Note_on_c, 8, 50, 21
12, 19678, Note_on_c, 8, 50, 0
12, 19680, Note_on_c, 8, 50, 24
12, 19710, Note_on_c, 8, 50, 0
12, 19712, Note_on_c, 8, 50, 18
12, 19742, Note_on_c, 8, 50, 0
12, 19744, Note_on_c, 8, 50, 25
12, 19774, Note_on_c, 8, 50, 0
12, 19776, Note_on_c, 8, 50, 17
12, 19806, Note_on_c, 8, 50, 0
12, 19808, Note_on_c, 8, 50, 19
12, 19838, Note_on_c, 8, 50, 0
12, 19840, Note_on_c, 8, 50, 20
12, 19870, Note_on_c, 8, 50, 0
12, 19872, Note_on_c, 8, 50, 17
12, 19902, Note_on_c, 8, 50, 0
12, 19904, Note_on_c, 8, 50, 21
12, 19934, Note_on_c, 8, 50, 0
12, 19936, Note_on_c, 8, 50, 25
12, 19966, Note_on_c, 8, 50, 0
12, 19968, Note_on_c, 8, 50, 20
12, 19998, Note_on_c, 8, 50, 0
12, 20000, Note_on_c, 8, 50, 25
12, 20030, Note_on_c, 8, 50, 0
12, 20032, Note_on_c, 8, 50, 17
12, 20062, Note_on_c, 8, 50, 0
12, 20064, Note_on_c, 8, 50, 24
12, 20094, Note_on_c, 8, 50, 0
12, 20096, Note_on_c, 8, 50, 19
12, 20126, Note_on_c, 8, 50, 0
12, 20128, Note_on_c, 8, 50, 24
12, 20158, Note_on_c, 8, 50, 0
12, 20160, Note_on_c, 8, 50, 17
12, 20190, Note_on_c, 8, 50, 0
12, 20192, Note_on_c, 8, 50, 22
12, 20222, Note_on_c, 8, 50, 0
12, 20224, Note_on_c, 8, 50, 23
12, 20254, Note_on_c, 8, 50, 0
12, 20256, Note_on_c, 8, 50, 19
12, 20286, Note_on_c, 8, 50, 0
12, 20288, Note_on_c, 8, 50, 17
12, 20318, Note_on_c, 8, 50, 0
12, 20320, Note_on_c, 8, 50, 16
12, 20350, Note_on_c, 8, 50, 0
12, 20352, Note_on_c, 8, 47, 23
12, 20382, Note_on_c, 8, 47, 0
12, 20384, Note_on_c, 8, 47, 20
12, 20414, Note_on_c, 8, 47, 0
12, 20416, Note_on_c, 8, 47, 21
12, 20446, Note_on_c, 8, 47, 0
12, 20448, Note_on_c, 8, 47, 25
12, 20478, Note_on_c, 8, 47, 0
12, 20480, Note_on_c, 8, 47, 23
12, 20510, Note_on_c, 8, 47, 0
12, 20512, Note_on_c, 8, 47, 25
12, 20542, Note_on_c, 8, 47, 0
12, 20544, Note_on_c, 8, 47, 25
12, 20574, Note_on_c, 8, 47, 0
12, 20576, Note_on_c, 8, 47, 15
12, 20606, Note_on_c, 8, 47, 0
12, 20608, Note_on_c, 8, 47, 21
12, 20638, Note_on_c, 8, 47, 0
12, 20640, Note_on_c, 8, 47, 24
12, 20670, Note_on_c, 8, 47, 0
12, 20672, Note_on_c, 8, 47, 22
12, 20702, Note_on_c, 8, 47, 0
12, 20704, Note_on_c, 8, 47, 17
12, 20734, Note_on_c, 8, 47, 0
12, 20736, Note_on_c, 8, 47, 16
12, 20766, Note_on_c, 8, 47, 0
12, 20768, Note_on_c, 8, 47, 20
12, 20798, Note_on_c, 8, 47, 0
12, 20800, Note_on_c, 8, 47, 16
12, 20830, Note_on_c, 8, 47, 0
12, 20832, Note_on_c, 8, 47, 16
12, 20862, Note_on_c, 8, 47, 0
12, 20864, Note_on_c, 8, 47, 17
12, 20894, Note_on_c, 8, 47, 0
12, 20896, Note_on_c, 8, 47, 15
12, 20926, Note_on_c, 8, 47, 0
12, 20928, Note_on_c, 8, 47, 17
12, 20958, Note_on_c, 8, 47, 0
12, 20960, Note_on_c, 8, 47, 9
12, 20990, Note_on_c, 8, 47, 0
12, 20992, Note_on_c, 8, 47, 10
12, 21022, Note_on_c, 8, 47, 0
12, 21024, Note_on_c, 8, 47, 8
12, 21054, Note_on_c, 8, 47, 0
12, 21056, Note_on_c, 8, 47, 9
12, 21086, Note_on_c, 8, 47, 0
12, 21088, Note_on_c, 8, 47, 10
12, 21118, Note_on_c, 8, 47, 0
12, 21120, Note_on_c, 8, 45, 27
12, 21142, Note_on_c, 8, 45, 0
12, 21144, Note_on_c, 8, 47, 29
12, 21166, Note_on_c, 8, 47, 0
12, 21168, Note_on_c, 8, 45, 25
12, 21190, Note_on_c, 8, 45, 0
12, 21192, Note_on_c, 8, 47, 26
12, 21214, Note_on_c, 8, 47, 0
12, 21216, Note_on_c, 8, 45, 30
12, 21238, Note_on_c, 8, 45, 0
12, 21240, Note_on_c, 8, 47, 27
12, 21262, Note_on_c, 8, 47, 0
12, 21264, Note_on_c, 8, 45, 25
12, 21286, Note_on_c, 8, 45, 0
12, 21288, Note_on_c, 8, 47, 31
12, 21310, Note_on_c, 8, 47, 0
12, 21312, Note_on_c, 8, 45, 29
12, 21334, Note_on_c, 8, 45, 0
12, 21336, Note_on_c, 8, 47, 25
12, 21358, Note_on_c, 8, 47, 0
12, 21360, Note_on_c, 8, 45, 25
12, 21382, Note_on_c, 8, 45, 0
12, 21384, Note_on_c, 8, 47, 35
12, 21406, Note_on_c, 8, 47, 0
12, 21408, Note_on_c, 8, 45, 31
12, 21430, Note_on_c, 8, 45, 0
12, 21432, Note_on_c, 8, 47, 31
12, 21454, Note_on_c, 8, 47, 0
12, 21456, Note_on_c, 8, 45, 25
12, 21478, Note_on_c, 8, 45, 0
12, 21480, Note_on_c, 8, 47, 27
12, 21502, Note_on_c, 8, 47, 0
12, 21504, Note_on_c, 8, 45, 29
12, 21526, Note_on_c, 8, 45, 0
12, 21528, Note_on_c, 8, 47, 32
12, 21550, Note_on_c, 8, 47, 0
12, 21552, Note_on_c, 8, 45, 25
12, 21574, Note_on_c, 8, 45, 0
12, 21576, Note_on_c, 8, 47, 27
12, 21598, Note_on_c, 8, 47, 0
12, 21600, Note_on_c, 8, 45, 34
12, 21622, Note_on_c, 8, 45, 0
12, 21624, Note_on_c, 8, 47, 26
12, 21646, Note_on_c, 8, 47, 0
12, 21648, Note_on_c, 8, 45, 29
12, 21670, Note_on_c, 8, 45, 0
12, 21672, Note_on_c, 8, 47, 31
12, 21694, Note_on_c, 8, 47, 0
12, 21696, Note_on_c, 8, 45, 30
12, 21718, Note_on_c, 8, 45, 0
12, 21720, Note_on_c, 8, 47, 25
12, 21742, Note_on_c, 8, 47, 0
12, 21744, Note_on_c, 8, 45, 33
12, 21766, Note_on_c, 8, 45, 0
12, 21768, Note_on_c, 8, 47, 26
12, 21790, Note_on_c, 8, 47, 0
12, 21792, Note_on_c, 8, 45, 30
12, 21814, Note_on_c, 8, 45, 0
12, 21816, Note_on_c, 8, 47, 33
12, 21838, Note_on_c, 8, 47, 0
12, 21840, Note_on_c, 8, 45, 29
12, 21862, Note_on_c, 8, 45, 0
12, 21864, Note_on_c, 8, 47, 31
12, 21886, Note_on_c, 8, 47, 0
12, 21888, Note_on_c, 8, 45, 34
12, 21910, Note_on_c, 8, 45, 0
12, 21912, Note_on_c, 8, 47, 35
12, 21934, Note_on_c, 8, 47, 0
12, 21936, Note_on_c, 8, 45, 35
12, 21958, Note_on_c, 8, 45, 0
12, 21960, Note_on_c, 8, 47, 28
12, 21982, Note_on_c, 8, 47, 0
12, 21984, Note_on_c, 8, 45, 25
12, 22006, Note_on_c, 8, 45, 0
12, 22008, Note_on_c, 8, 47, 35
12, 22030, Note_on_c, 8, 47, 0
12, 22032, Note_on_c, 8, 45, 30
12, 22054, Note_on_c, 8, 45, 0
12, 22056, Note_on_c, 8, 47, 30
12, 22078, Note_on_c, 8, 47, 0
12, 22080, Note_on_c, 8, 45, 31
12, 22102, Note_on_c, 8, 45, 0
12, 22104, Note_on_c, 8, 47, 26
12, 22126, Note_on_c, 8, 47, 0
12, 22128, Note_on_c, 8, 45, 25
12, 22150, Note_on_c, 8, 45, 0
12, 22152, Note_on_c, 8, 47, 25
12, 22174, Note_on_c, 8, 47, 0
12, 22176, Note_on_c, 8, 45, 34
12, 22198, Note_on_c, 8, 45, 0
12, 22200, Note_on_c, 8, 47, 34
12, 22222, Note_on_c, 8, 47, 0
12, 22224, Note_on_c, 8, 45, 29
12, 22246, Note_on_c, 8, 45, 0
12, 22248, Note_on_c, 8, 47, 29
12, 22270, Note_on_c, 8, 47, 0
12, 22272, Note_on_c, 8, 45, 31
12, 22294, Note_on_c, 8, 45, 0
12, 22296, Note_on_c, 8, 47, 35
12, 22318, Note_on_c, 8, 47, 0
12, 22320, Note_on_c, 8, 45, 26
12, 22342, Note_on_c, 8, 45, 0
12, 22344, Note_on_c, 8, 47, 34
12, 22366, Note_on_c, 8, 47, 0
12, 22368, Note_on_c, 8, 45, 28
12, 22390, Note_on_c, 8, 45, 0
12, 22392, Note_on_c, 8, 47, 25
12, 22414, Note_on_c, 8, 47, 0
12, 22416, Note_on_c, 8, 45, 33
12, 22438, Note_on_c, 8, 45, 0
12, 22440, Note_on_c, 8, 47, 27
12, 22462, Note_on_c, 8, 47, 0
12, 22464, Note_on_c, 8, 45, 27
12, 22486, Note_on_c, 8, 45, 0
12, 22488, Note_on_c, 8, 47, 33
12, 22510, Note_on_c, 8, 47, 0
12, 22512, Note_on_c, 8, 45, 25
12, 22534, Note_on_c, 8, 45, 0
12, 22536, Note_on_c, 8, 47, 34
12, 22558, Note_on_c, 8, 47, 0
12, 22560, Note_on_c, 8, 45, 35
12, 22582, Note_on_c, 8, 45, 0
12, 22584, Note_on_c, 8, 47, 33
12, 22606, Note_on_c, 8, 47, 0
12, 22608, Note_on_c, 8, 45, 32
12, 22630, Note_on_c, 8, 45, 0
12, 22632, Note_on_c, 8, 47, 35
12, 22654, Note_on_c, 8, 47, 0
12, 22656, Note_on_c, 8, 45, 29
12, 22678, Note_on_c, 8, 45, 0
12, 22680, Note_on_c, 8, 47, 31
12, 22702, Note_on_c, 8, 47, 0
12, 22704, Note_on_c, 8, 45, 27
12, 22726, Note_on_c, 8, 45, 0
12, 22728, Note_on_c, 8, 47, 30
12, 22750, Note_on_c, 8, 47, 0
12, 22752, Note_on_c, 8, 45, 34
12, 22774, Note_on_c, 8, 45, 0
12, 22776, Note_on_c, 8, 47, 31
12, 22798, Note_on_c, 8, 47, 0
12, 22800, Note_on_c, 8, 45, 26
12, 22822, Note_on_c, 8, 45, 0
12, 22824, Note_on_c, 8, 47, 34
12, 22846, Note_on_c, 8, 47, 0
12, 22848, Note_on_c, 8, 45, 35
12, 22870, Note_on_c, 8, 45, 0
12, 22872, Note_on_c, 8, 47, 25
12, 22894, Note_on_c, 8, 47, 0
12, 22896, Note_on_c, 8, 45, 26
12, 22918, Note_on_c, 8, 45, 0
12, 22920, Note_on_c, 8, 47, 34
12, 22942, Note_on_c, 8, 47, 0
12, 22944, Note_on_c, 8, 45, 26
12, 22966, Note_on_c, 8, 45, 0
12, 22968, Note_on_c, 8, 47, 34
12, 22990, Note_on_c, 8, 47, 0
12, 22992, Note_on_c, 8, 45, 29
12, 23014, Note_on_c, 8, 45, 0
12, 23016, Note_on_c, 8, 47, 34
12, 23038, Note_on_c, 8, 47, 0
12, 23040, Note_on_c, 8, 45, 32
12, 23062, Note_on_c, 8, 45, 0
12, 23064, Note_on_c, 8, 47, 35
12, 23086, Note_on_c, 8, 47, 0
12, 23088, Note_on_c, 8, 45, 34
12, 23110, Note_on_c, 8, 45, 0
12, 23112, Note_on_c, 8, 47, 29
12, 23134, Note_on_c, 8, 47, 0
12, 23136, Note_on_c, 8, 45, 38
12, 23158, Note_on_c, 8, 45, 0
12, 23160, Note_on_c, 8, 47, 31
12, 23182, Note_on_c, 8, 47, 0
12, 23184, Note_on_c, 8, 45, 36
12, 23206, Note_on_c, 8, 45, 0
12, 23208, Note_on_c, 8, 47, 36
12, 23230, Note_on_c, 8, 47, 0
12, 23232, Note_on_c, 8, 45, 41
12, 23254, Note_on_c, 8, 45, 0
12, 23256, Note_on_c, 8, 47, 40
12, 23278, Note_on_c, 8, 47, 0
12, 23280, Note_on_c, 8, 45, 43
12, 23302, Note_on_c, 8, 45, 0
12, 23304, Note_on_c, 8, 47, 37
12, 23326, Note_on_c, 8, 47, 0
12, 23328, Note_on_c, 8, 45, 38
12, 23350, Note_on_c, 8, 45, 0
12, 23352, Note_on_c, 8, 47, 41
12, 23374, Note_on_c, 8, 47, 0
12, 23376, Note_on_c, 8, 45, 48
12, 23398, Note_on_c, 8, 45, 0
12, 23400, Note_on_c, 8, 47, 44
12, 23422, Note_on_c, 8, 47, 0
12, 23424, Note_on_c, 8, 45, 29
12, 23446, Note_on_c, 8, 45, 0
12, 23448, Note_on_c, 8, 47, 33
12, 23470, Note_on_c, 8, 47, 0
12, 23472, Note_on_c, 8, 45, 28
12, 23494, Note_on_c, 8, 45, 0
12, 23496, Note_on_c, 8, 47, 26
12, 23518, Note_on_c, 8, 47, 0
12, 23520, Note_on_c, 8, 45, 25
12, 23542, Note_on_c, 8, 45, 0
12, 23544, Note_on_c, 8, 47, 33
12, 23566, Note_on_c, 8, 47, 0
12, 23568, Note_on_c, 8, 45, 32
12, 23590, Note_on_c, 8, 45, 0
12, 23592, Note_on_c, 8, 47, 27
12, 23614, Note_on_c, 8, 47, 0
12, 23616, Note_on_c, 8, 45, 33
12, 23638, Note_on_c, 8, 45, 0
12, 23640, Note_on_c, 8, 47, 29
12, 23662, Note_on_c, 8, 47, 0
12, 23664, Note_on_c, 8, 45, 31
12, 23686, Note_on_c, 8, 45, 0
12, 23688, Note_on_c, 8, 47, 33
12, 23710, Note_on_c, 8, 47, 0
12, 23712, Note_on_c, 8, 45, 29
12, 23734, Note_on_c, 8, 45, 0
12, 23736, Note_on_c, 8, 47, 27
12, 23758, Note_on_c, 8, 47, 0
12, 23760, Note_on_c, 8, 45, 32
12, 23782, Note_on_c, 8, 45, 0
12, 23784, Note_on_c, 8, 47, 29
12, 23806, Note_on_c, 8, 47, 0
12, 23808, Note_on_c, 8, 45, 31
12, 23830, Note_on_c, 8, 45, 0
12, 23832, Note_on_c, 8, 47, 34
12, 23854, Note_on_c, 8, 47, 0
12, 23856, Note_on_c, 8, 45, 30
12, 23878, Note_on_c, 8, 45, 0
12, 23880, Note_on_c, 8, 47, 29
12, 23902, Note_on_c, 8, 47, 0
12, 23904, Note_on_c, 8, 45, 27
12, 23926, Note_on_c, 8, 45, 0
12, 23928, Note_on_c, 8, 47, 34
12, 23950, Note_on_c, 8, 47, 0
12, 23952, Note_on_c, 8, 45, 33
12, 23974, Note_on_c, 8, 45, 0
12, 23976, Note_on_c, 8, 47, 32
12, 23998, Note_on_c, 8, 47, 0
12, 24000, Note_on_c, 8, 45, 26
12, 24022, Note_on_c, 8, 45, 0
12, 24024, Note_on_c, 8, 47, 31
12, 24046, Note_on_c, 8, 47, 0
12, 24048, Note_on_c, 8, 45, 30
12, 24070, Note_on_c, 8, 45, 0
12, 24072, Note_on_c, 8, 47, 27
12, 24094, Note_on_c, 8, 47, 0
12, 24096, Note_on_c, 8, 45, 30
12, 24118, Note_on_c, 8, 45, 0
12, 24120, Note_on_c, 8, 47, 30
12, 24142, Note_on_c, 8, 47, 0
12, 24144, Note_on_c, 8, 45, 31
12, 24166, Note_on_c, 8, 45, 0
12, 24168, Note_on_c, 8, 47, 28
12, 24190, Note_on_c, 8, 47, 0
12, 24192, Note_on_c, 8, 45, 33
12, 24214, Note_on_c, 8, 45, 0
12, 24216, Note_on_c, 8, 47, 33
12, 24238, Note_on_c, 8, 47, 0
12, 24240, Note_on_c, 8, 45, 26
12, 24262, Note_on_c, 8, 45, 0
12, 24264, Note_on_c, 8, 47, 26
12, 24286, Note_on_c, 8, 47, 0
12, 24288, Note_on_c, 8, 45, 27
12, 24310, Note_on_c, 8, 45, 0
12, 24312, Note_on_c, 8, 47, 34
12, 24334, Note_on_c, 8, 47, 0
12, 24336, Note_on_c, 8, 45, 27
12, 24358, Note_on_c, 8, 45, 0
12, 24360, Note_on_c, 8, 47, 29
12, 24382, Note_on_c, 8, 47, 0
12, 24384, Note_on_c, 8, 45, 31
12, 24406, Note_on_c, 8, 45, 0
12, 24408, Note_on_c, 8, 47, 30
12, 24430, Note_on_c, 8, 47, 0
12, 24432, Note_on_c, 8, 45, 32
12, 24454, Note_on_c, 8, 45, 0
12, 24456, Note_on_c, 8, 47, 31
12, 24478, Note_on_c, 8, 47, 0
12, 24480, Note_on_c, 8, 45, 28
12, 24502, Note_on_c, 8, 45, 0
12, 24504, Note_on_c, 8, 47, 29
12, 24526, Note_on_c, 8, 47, 0
12, 24528, Note_on_c, 8, 45, 28
12, 24550, Note_on_c, 8, 45, 0
12, 24552, Note_on_c, 8, 47, 35
12, 24574, Note_on_c, 8, 47, 0
12, 24576, Note_on_c, 8, 45, 26
12, 24598, Note_on_c, 8, 45, 0
12, 24600, Note_on_c, 8, 47, 29
12, 24622, Note_on_c, 8, 47, 0
12, 24624, Note_on_c, 8, 45, 35
12, 24646, Note_on_c, 8, 45, 0
12, 24648, Note_on_c, 8, 47, 30
12, 24670, Note_on_c, 8, 47, 0
12, 24672, Note_on_c, 8, 45, 31
12, 24694, Note_on_c, 8, 45, 0
12, 24696, Note_on_c, 8, 47, 28
12, 24718, Note_on_c, 8, 47, 0
12, 24720, Note_on_c, 8, 45, 29
12, 24742, Note_on_c, 8, 45, 0
12, 24744, Note_on_c, 8, 47, 26
12, 24766, Note_on_c, 8, 47, 0
12, 24768, Note_on_c, 8, 45, 35
12, 24790, Note_on_c, 8, 45, 0
12, 24792, Note_on_c, 8, 47, 31
12, 24814, Note_on_c, 8, 47, 0
12, 24816, Note_on_c, 8, 45, 32
12, 24838, Note_on_c, 8, 45, 0
12, 24840, Note_on_c, 8, 47, 30
12, 24862, Note_on_c, 8, 47, 0
12, 24864, Note_on_c, 8, 45, 31
12, 24886, Note_on_c, 8, 45, 0
12, 24888, Note_on_c, 8, 47, 34
12, 24910, Note_on_c, 8, 47, 0
12, 24912, Note_on_c, 8, 45, 26
12, 24934, Note_on_c, 8, 45, 0
12, 24936, Note_on_c, 8, 47, 27
12, 24958, Note_on_c, 8, 47, 0
12, 24960, Note_on_c, 8, 45, 28
12, 24982, Note_on_c, 8, 45, 0
12, 24984, Note_on_c, 8, 47, 26
12, 25006, Note_on_c, 8, 47, 0
12, 25008, Note_on_c, 8, 45, 35
12, 25030, Note_on_c, 8, 45, 0
12, 25032, Note_on_c, 8, 47, 30
12, 25054, Note_on_c, 8, 47, 0
12, 25056, Note_on_c, 8, 45, 27
12, 25078, Note_on_c, 8, 45, 0
12, 25080, Note_on_c, 8, 47, 31
12, 25102, Note_on_c, 8, 47, 0
12, 25104, Note_on_c, 8, 45, 35
12, 25126, Note_on_c, 8, 45, 0
12, 25128, Note_on_c, 8, 47, 28
12, 25150, Note_on_c, 8, 47, 0
12, 25152, Note_on_c, 8, 45, 31
12, 25174, Note_on_c, 8, 45, 0
12, 25176, Note_on_c, 8, 47, 26
12, 25198, Note_on_c, 8, 47, 0
12, 25200, Note_on_c, 8, 45, 27
12, 25222, Note_on_c, 8, 45, 0
12, 25224, Note_on_c, 8, 47, 27
12, 25246, Note_on_c, 8, 47, 0
12, 25248, Note_on_c, 8, 45, 31
12, 25270, Note_on_c, 8, 45, 0
12, 25272, Note_on_c, 8, 47, 26
12, 25294, Note_on_c, 8, 47, 0
12, 25296, Note_on_c, 8, 45, 28
12, 25318, Note_on_c, 8, 45, 0
12, 25320, Note_on_c, 8, 47, 33
12, 25342, Note_on_c, 8, 47, 0
12, 25344, Note_on_c, 8, 45, 25
12, 25366, Note_on_c, 8, 45, 0
12, 25368, Note_on_c, 8, 47, 34
12, 25390, Note_on_c, 8, 47, 0
12, 25392, Note_on_c, 8, 45, 28
12, 25414, Note_on_c, 8, 45, 0
12, 25416, Note_on_c, 8, 47, 31
12, 25438, Note_on_c, 8, 47, 0
12, 25440, Note_on_c, 8, 45, 37
12, 25462, Note_on_c, 8, 45, 0
12, 25464, Note_on_c, 8, 47, 39
12, 25486, Note_on_c, 8, 47, 0
12, 25488, Note_on_c, 8, 45, 31
12, 25510, Note_on_c, 8, 45, 0
12, 25512, Note_on_c, 8, 47, 31
12, 25534, Note_on_c, 8, 47, 0
12, 25536, Note_on_c, 8, 45, 35
12, 25558, Note_on_c, 8, 45, 0
12, 25560, Note_on_c, 8, 47, 33
12, 25582, Note_on_c, 8, 47, 0
12, 25584, Note_on_c, 8, 45, 41
12, 25606, Note_on_c, 8, 45, 0
12, 25608, Note_on_c, 8, 47, 37
12, 25630, Note_on_c, 8, 47, 0
12, 25632, Note_on_c, 8, 45, 43
12, 25654, Note_on_c, 8, 45, 0
12, 25656, Note_on_c, 8, 47, 44
12, 25678, Note_on_c, 8, 47, 0
12, 25680, Note_on_c, 8, 45, 44
12, 25702, Note_on_c, 8, 45, 0
12, 25704, Note_on_c, 8, 47, 43
12, 25726, Note_on_c, 8, 47, 0
12, 25728, Note_on_c, 8, 45, 46
12, 25750, Note_on_c, 8, 45, 0
12, 25752, Note_on_c, 8, 47, 44
12, 25774, Note_on_c, 8, 47, 0
12, 25776, Note_on_c, 8, 45, 45
12, 25798, Note_on_c, 8, 45, 0
12, 25800, Note_on_c, 8, 47, 40
12, 25822, Note_on_c, 8, 47, 0
12, 25824, Note_on_c, 8, 45, 45
12, 25846, Note_on_c, 8, 45, 0
12, 25848, Note_on_c, 8, 47, 44
12, 25870, Note_on_c, 8, 47, 0
12, 25872, Note_on_c, 8, 45, 42
12, 25894, Note_on_c, 8, 45, 0
12, 25896, Note_on_c, 8, 47, 47
12, 25918, Note_on_c, 8, 47, 0
12, 25920, Note_on_c, 8, 45, 42
12, 25942, Note_on_c, 8, 45, 0
12, 25944, Note_on_c, 8, 47, 50
12, 25966, Note_on_c, 8, 47, 0
12, 25968, Note_on_c, 8, 45, 47
12, 25990, Note_on_c, 8, 45, 0
12, 25992, Note_on_c, 8, 47, 40
12, 26014, Note_on_c, 8, 47, 0
12, 26016, Note_on_c, 8, 45, 46
12, 26038, Note_on_c, 8, 45, 0
12, 26040, Note_on_c, 8, 47, 49
12, 26062, Note_on_c, 8, 47, 0
12, 26064, Note_on_c, 8, 45, 41
12, 26086, Note_on_c, 8, 45, 0
12, 26088, Note_on_c, 8, 47, 46
12, 26110, Note_on_c, 8, 47, 0
12, 26112, Note_on_c, 8, 45, 50
12, 26134, Note_on_c, 8, 45, 0
12, 26136, Note_on_c, 8, 47, 40
12, 26158, Note_on_c, 8, 47, 0
12, 26160, Note_on_c, 8, 45, 41
12, 26182, Note_on_c, 8, 45, 0
12, 26184, Note_on_c, 8, 47, 46
12, 26206, Note_on_c, 8, 47, 0
12, 26208, Note_on_c, 8, 45, 40
12, 26230, Note_on_c, 8, 45, 0
12, 26232, Note_on_c, 8, 47, 42
12, 26254, Note_on_c, 8, 47, 0
12, 26256, Note_on_c, 8, 45, 40
12, 26278, Note_on_c, 8, 45, 0
12, 26280, Note_on_c, 8, 47, 40
12, 26302, Note_on_c, 8, 47, 0
12, 26304, Note_on_c, 8, 45, 50
12, 26326, Note_on_c, 8, 45, 0
12, 26328, Note_on_c, 8, 47, 41
12, 26350, Note_on_c, 8, 47, 0
12, 26352, Note_on_c, 8, 45, 43
12, 26374, Note_on_c, 8, 45, 0
12, 26376, Note_on_c, 8, 47, 43
12, 26398, Note_on_c, 8, 47, 0
12, 26400, Note_on_c, 8, 45, 43
12, 26422, Note_on_c, 8, 45, 0
12, 26424, Note_on_c, 8, 47, 45
12, 26446, Note_on_c, 8, 47, 0
12, 26448, Note_on_c, 8, 45, 44
12, 26470, Note_on_c, 8, 45, 0
12, 26472, Note_on_c, 8, 47, 50
12, 26494, Note_on_c, 8, 47, 0
12, 26496, Note_on_c, 8, 45, 44
12, 26518, Note_on_c, 8, 45, 0
12, 26520, Note_on_c, 8, 47, 44
12, 26542, Note_on_c, 8, 47, 0
12, 26544, Note_on_c, 8, 45, 47
12, 26566, Note_on_c, 8, 45, 0
12, 26568, Note_on_c, 8, 47, 42
12, 26590, Note_on_c, 8, 47, 0
12, 26592, Note_on_c, 8, 45, 40
12, 26614, Note_on_c, 8, 45, 0
12, 26616, Note_on_c, 8, 47, 44
12, 26638, Note_on_c, 8, 47, 0
12, 26640, Note_on_c, 8, 45, 49
12, 26662, Note_on_c, 8, 45, 0
12, 26664, Note_on_c, 8, 47, 41
12, 26686, Note_on_c, 8, 47, 0
12, 26688, Note_on_c, 8, 45, 49
12, 26710, Note_on_c, 8, 45, 0
12, 26712, Note_on_c, 8, 47, 50
12, 26734, Note_on_c, 8, 47, 0
12, 26736, Note_on_c, 8, 45, 44
12, 26758, Note_on_c, 8, 45, 0
12, 26760, Note_on_c, 8, 47, 49
12, 26782, Note_on_c, 8, 47, 0
12, 26784, Note_on_c, 8, 45, 46
12, 26806, Note_on_c, 8, 45, 0
12, 26808, Note_on_c, 8, 47, 48
12, 26830, Note_on_c, 8, 47, 0
12, 26832, Note_on_c, 8, 45, 42
12, 26854, Note_on_c, 8, 45, 0
12, 26856, Note_on_c, 8, 47, 44
12, 26878, Note_on_c, 8, 47, 0
12, 26880, Note_on_c, 8, 45, 47
12, 26902, Note_on_c, 8, 45, 0
12, 26904, Note_on_c, 8, 47, 46
12, 26926, Note_on_c, 8, 47, 0
12, 26928, Note_on_c, 8, 45, 43
12, 26950, Note_on_c, 8, 45, 0
12, 26952, Note_on_c, 8, 47, 40
12, 26974, Note_on_c, 8, 47, 0
12, 26976, Note_on_c, 8, 45, 48
12, 26998, Note_on_c, 8, 45, 0
12, 27000, Note_on_c, 8, 47, 50
12, 27022, Note_on_c, 8, 47, 0
12, 27024, Note_on_c, 8, 45, 43
12, 27046, Note_on_c, 8, 45, 0
12, 27048, Note_on_c, 8, 47, 41
12, 27070, Note_on_c, 8, 47, 0
12, 27072, Note_on_c, 8, 45, 47
12, 27094, Note_on_c, 8, 45, 0
12, 27096, Note_on_c, 8, 47, 42
12, 27118, Note_on_c, 8, 47, 0
12, 27120, Note_on_c, 8, 45, 41
12, 27142, Note_on_c, 8, 45, 0
12, 27144, Note_on_c, 8, 47, 48
12, 27166, Note_on_c, 8, 47, 0
12, 27168, Note_on_c, 8, 45, 49
12, 27190, Note_on_c, 8, 45, 0
12, 27192, Note_on_c, 8, 47, 48
12, 27214, Note_on_c, 8, 47, 0
12, 27216, Note_on_c, 8, 45, 43
12, 27238, Note_on_c, 8, 45, 0
12, 27240, Note_on_c, 8, 47, 48
12, 27262, Note_on_c, 8, 47, 0
12, 27264, Note_on_c, 8, 45, 43
12, 27286, Note_on_c, 8, 45, 0
12, 27288, Note_on_c, 8, 47, 48
12, 27310, Note_on_c, 8, 47, 0
12, 27312, Note_on_c, 8, 45, 50
12, 27334, Note_on_c, 8, 45, 0
12, 27336, Note_on_c, 8, 47, 46
12, 27358, Note_on_c, 8, 47, 0
12, 27360, Note_on_c, 8, 45, 40
12, 27382, Note_on_c, 8, 45, 0
12, 27384, Note_on_c, 8, 47, 42
12, 27406, Note_on_c, 8, 47, 0
12, 27408, Note_on_c, 8, 45, 45
12, 27430, Note_on_c, 8, 45, 0
12, 27432, Note_on_c, 8, 47, 50
12, 27454, Note_on_c, 8, 47, 0
12, 27456, Note_on_c, 8, 45, 47
12, 27478, Note_on_c, 8, 45, 0
12, 27480, Note_on_c, 8, 47, 49
12, 27502, Note_on_c, 8, 47, 0
12, 27504, Note_on_c, 8, 45, 44
12, 27526, Note_on_c, 8, 45, 0
12, 27528, Note_on_c, 8, 47, 44
12, 27550, Note_on_c, 8, 47, 0
12, 27552, Note_on_c, 8, 45, 46
12, 27574, Note_on_c, 8, 45, 0
12, 27576, Note_on_c, 8, 47, 44
12, 27598, Note_on_c, 8, 47, 0
12, 27600, Note_on_c, 8, 45, 45
12, 27622, Note_on_c, 8, 45, 0
12, 27624, Note_on_c, 8, 47, 47
12, 27646, Note_on_c, 8, 47, 0
12, 27648, Note_on_c, 8, 45, 47
12, 27670, Note_on_c, 8, 45, 0
12, 27672, Note_on_c, 8, 47, 43
12, 27694, Note_on_c, 8, 47, 0
12, 27696, Note_on_c, 8, 45, 50
12, 27718, Note_on_c, 8, 45, 0
12, 27720, Note_on_c, 8, 47, 46
12, 27742, Note_on_c, 8, 47, 0
12, 27744, Note_on_c, 8, 45, 42
12, 27766, Note_on_c, 8, 45, 0
12, 27768, Note_on_c, 8, 47, 45
12, 27790, Note_on_c, 8, 47, 0
12, 27792, Note_on_c, 8, 45, 44
12, 27814, Note_on_c, 8, 45, 0
12, 27816, Note_on_c, 8, 47, 45
12, 27838, Note_on_c, 8, 47, 0
12, 27840, Note_on_c, 8, 45, 42
12, 27862, Note_on_c, 8, 45, 0
12, 27864, Note_on_c, 8, 47, 48
12, 27886, Note_on_c, 8, 47, 0
12, 27888, Note_on_c, 8, 45, 47
12, 27910, Note_on_c, 8, 45, 0
12, 27912, Note_on_c, 8, 47, 43
12, 27934, Note_on_c, 8, 47, 0
12, 27936, Note_on_c, 8, 45, 48
12, 27958, Note_on_c, 8, 45, 0
12, 27960, Note_on_c, 8, 47, 46
12, 27982, Note_on_c, 8, 47, 0
12, 27984, Note_on_c, 8, 45, 42
12, 28006, Note_on_c, 8, 45, 0
12, 28008, Note_on_c, 8, 47, 48
12, 28030, Note_on_c, 8, 47, 0
12, 28032, Note_on_c, 8, 45, 41
12, 28054, Note_on_c, 8, 45, 0
12, 28056, Note_on_c, 8, 47, 45
12, 28078, Note_on_c, 8, 47, 0
12, 28080, Note_on_c, 8, 45, 44
12, 28102, Note_on_c, 8, 45, 0
12, 28104, Note_on_c, 8, 47, 46
12, 28126, Note_on_c, 8, 47, 0
12, 28128, Note_on_c, 8, 45, 46
12, 28150, Note_on_c, 8, 45, 0
12, 28152, Note_on_c, 8, 47, 50
12, 28174, Note_on_c, 8, 47, 0
12, 28176, Note_on_c, 8, 45, 43
12, 28198, Note_on_c, 8, 45, 0
12, 28200, Note_on_c, 8, 47, 44
12, 28222, Note_on_c, 8, 47, 0
12, 28224, Note_on_c, 8, 45, 50
12, 28246, Note_on_c, 8, 45, 0
12, 28248, Note_on_c, 8, 47, 48
12, 28270, Note_on_c, 8, 47, 0
12, 28272, Note_on_c, 8, 45, 42
12, 28294, Note_on_c, 8, 45, 0
12, 28296, Note_on_c, 8, 47, 45
12, 28318, Note_on_c, 8, 47, 0
12, 28320, Note_on_c, 8, 45, 47
12, 28342, Note_on_c, 8, 45, 0
12, 28344, Note_on_c, 8, 47, 40
12, 28366, Note_on_c, 8, 47, 0
12, 28368, Note_on_c, 8, 45, 49
12, 28390, Note_on_c, 8, 45, 0
12, 28392, Note_on_c, 8, 47, 40
12, 28414, Note_on_c, 8, 47, 0
12, 28416, Note_on_c, 8, 45, 47
12, 28438, Note_on_c, 8, 45, 0
12, 28440, Note_on_c, 8, 47, 41
12, 28462, Note_on_c, 8, 47, 0
12, 28464, Note_on_c, 8, 45, 41
12, 28486, Note_on_c, 8, 45, 0
12, 28488, Note_on_c, 8, 47, 50
12, 28510, Note_on_c, 8, 47, 0
12, 28512, Note_on_c, 8, 45, 49
12, 28534, Note_on_c, 8, 45, 0
12, 28536, Note_on_c, 8, 47, 49
12, 28558, Note_on_c, 8, 47, 0
12, 28560, Note_on_c, 8, 45, 41
12, 28582, Note_on_c, 8, 45, 0
12, 28584, Note_on_c, 8, 47, 40
12, 28606, Note_on_c, 8, 47, 0
12, 28608, Note_on_c, 8, 45, 43
12, 28630, Note_on_c, 8, 45, 0
12, 28632, Note_on_c, 8, 47, 45
12, 28654, Note_on_c, 8, 47, 0
12, 28656, Note_on_c, 8, 45, 49
12, 28678, Note_on_c, 8, 45, 0
12, 28680, Note_on_c, 8, 47, 43
12, 28702, Note_on_c, 8, 47, 0
12, 28704, Note_on_c, 8, 45, 41
12, 28726, Note_on_c, 8, 45, 0
12, 28728, Note_on_c, 8, 47, 43
12, 28750, Note_on_c, 8, 47, 0
12, 28752, Note_on_c, 8, 45, 42
12, 28774, Note_on_c, 8, 45, 0
12, 28776, Note_on_c, 8, 47, 43
12, 28798, Note_on_c, 8, 47, 0
12, 28800, Note_on_c, 8, 45, 43
12, 28822, Note_on_c, 8, 45, 0
12, 28824, Note_on_c, 8, 47, 44
12, 28846, Note_on_c, 8, 47, 0
12, 28848, Note_on_c, 8, 45, 50
12, 28870, Note_on_c, 8, 45, 0
12, 28872, Note_on_c, 8, 47, 43
12, 28894, Note_on_c, 8, 47, 0
12, 28896, Note_on_c, 8, 45, 51
12, 28918, Note_on_c, 8, 45, 0
12, 28920, Note_on_c, 8, 47, 50
12, 28942, Note_on_c, 8, 47, 0
12, 28944, Note_on_c, 8, 45, 52
12, 28966, Note_on_c, 8, 45, 0
12, 28968, Note_on_c, 8, 47, 53
12, 28990, Note_on_c, 8, 47, 0
12, 28992, Note_on_c, 8, 45, 56
12, 29014, Note_on_c, 8, 45, 0
12, 29016, Note_on_c, 8, 47, 56
12, 29038, Note_on_c, 8, 47, 0
12, 29040, Note_on_c, 8, 45, 53
12, 29062, Note_on_c, 8, 45, 0
12, 29064, Note_on_c, 8, 47, 55
12, 29086, Note_on_c, 8, 47, 0
12, 29088, Note_on_c, 8, 45, 51
12, 29110, Note_on_c, 8, 45, 0
12, 29112, Note_on_c, 8, 47, 56
12, 29134, Note_on_c, 8, 47, 0
12, 29136, Note_on_c, 8, 45, 60
12, 29158, Note_on_c, 8, 45, 0
12, 29160, Note_on_c, 8, 47, 60
12, 29182, Note_on_c, 8, 47, 0
12, 29184, Note_on_c, 8, 45, 57
12, 29206, Note_on_c, 8, 45, 0
12, 29208, Note_on_c, 8, 47, 56
12, 29230, Note_on_c, 8, 47, 0
12, 29232, Note_on_c, 8, 45, 63
12, 29254, Note_on_c, 8, 45, 0
12, 29256, Note_on_c, 8, 47, 66
12, 29278, Note_on_c, 8, 47, 0
12, 29280, Note_on_c, 8, 45, 69
12, 29302, Note_on_c, 8, 45, 0
12, 29304, Note_on_c, 8, 47, 67
12, 29326, Note_on_c, 8, 47, 0
12, 29328, Note_on_c, 8, 45, 64
12, 29350, Note_on_c, 8, 45, 0
12, 29352, Note_on_c, 8, 47, 69
12, 29374, Note_on_c, 8, 47, 0
12, 29376, Note_on_c, 8, 45, 70
12, 29398, Note_on_c, 8, 45, 0
12, 29400, Note_on_c, 8, 47, 72
12, 29422, Note_on_c, 8, 47, 0
12, 29424, Note_on_c, 8, 45, 70
12, 29446, Note_on_c, 8, 45, 0
12, 29448, Note_on_c, 8, 47, 70
12, 29470, Note_on_c, 8, 47, 0
12, 29472, Note_on_c, 8, 45, 71
12, 29494, Note_on_c, 8, 45, 0
12, 29496, Note_on_c, 8, 47, 69
12, 29518, Note_on_c, 8, 47, 0
12, 29520, Note_on_c, 8, 45, 76
12, 29542, Note_on_c, 8, 45, 0
12, 29544, Note_on_c, 8, 47, 73
12, 29566, Note_on_c, 8, 47, 0
12, 29568, Note_on_c, 8, 45, 76
12, 29590, Note_on_c, 8, 45, 0
12, 29592, Note_on_c, 8, 47, 77
12, 29614, Note_on_c, 8, 47, 0
12, 29616, Note_on_c, 8, 45, 83
12, 29638, Note_on_c, 8, 45, 0
12, 29640, Note_on_c, 8, 47, 77
12, 29662, Note_on_c, 8, 47, 0
12, 29664, Note_on_c, 8, 45, 81
12, 29686, Note_on_c, 8, 45, 0
12, 29688, Note_on_c, 8, 47, 81
12, 29710, Note_on_c, 8, 47, 0
12, 29712, Note_on_c, 8, 45, 77
12, 29734, Note_on_c, 8, 45, 0
12, 29736, Note_on_c, 8, 47, 86
12, 29758, Note_on_c, 8, 47, 0
12, 29760, Note_on_c, 8, 45, 85
12, 29782, Note_on_c, 8, 45, 0
12, 29784, Note_on_c, 8, 47, 81
12, 29806, Note_on_c, 8, 47, 0
12, 29808, Note_on_c, 8, 45, 82
12, 29830, Note_on_c, 8, 45, 0
12, 29832, Note_on_c, 8, 47, 90
12, 29854, Note_on_c, 8, 47, 0
12, 29856, Note_on_c, 8, 45, 88
12, 29878, Note_on_c, 8, 45, 0
12, 29880, Note_on_c, 8, 47, 85
12, 29902, Note_on_c, 8, 47, 0
12, 29904, Note_on_c, 8, 45, 87
12, 29926, Note_on_c, 8, 45, 0
12, 29928, Note_on_c, 8, 47, 94
12, 29950, Note_on_c, 8, 47, 0
12, 29952, Note_on_c, 8, 45, 96
12, 29974, Note_on_c, 8, 45, 0
12, 29976, Note_on_c, 8, 47, 91
12, 29998, Note_on_c, 8, 47, 0
12, 30000, Note_on_c, 8, 45, 97
12, 30022, Note_on_c, 8, 45, 0
12, 30024, Note_on_c, 8, 47, 94
12, 30046, Note_on_c, 8, 47, 0
12, 30048, Note_on_c, 8, 45, 98
12, 30070, Note_on_c, 8, 45, 0
12, 30072, Note_on_c, 8, 47, 93
12, 30094, Note_on_c, 8, 47, 0
12, 30096, Note_on_c, 8, 45, 93
12, 30118, Note_on_c, 8, 45, 0
12, 30120, Note_on_c, 8, 47, 101
12, 30142, Note_on_c, 8, 47, 0
12, 30144, Note_on_c, 8, 45, 105
12, 30166, Note_on_c, 8, 45, 0
12, 30168, Note_on_c, 8, 47, 101
12, 30190, Note_on_c, 8, 47, 0
12, 30192, Note_on_c, 8, 45, 107
12, 30214, Note_on_c, 8, 45, 0
12, 30216, Note_on_c, 8, 47, 105
12, 30238, Note_on_c, 8, 47, 0
12, 30240, Note_on_c, 8, 45, 107
12, 30262, Note_on_c, 8, 45, 0
12, 30264, Note_on_c, 8, 47, 108
12, 30286, Note_on_c, 8, 47, 0
12, 30288, Note_on_c, 8, 45, 102
12, 30310, Note_on_c, 8, 45, 0
12, 30312, Note_on_c, 8, 47, 109
12, 30334, Note_on_c, 8, 47, 0
12, 56544, Note_on_c, 8, 50, 87
12, 56566, Note_on_c, 8, 50, 0
12, 56568, Note_on_c, 8, 50, 40
12, 56590, Note_on_c, 8, 50, 0
12, 56592, Note_on_c, 8, 50, 49
12, 56614, Note_on_c, 8, 50, 0
12, 56616, Note_on_c, 8, 50, 50
12, 56638, Note_on_c, 8, 50, 0
12, 56640, Note_on_c, 8, 50, 40
12, 56662, Note_on_c, 8, 50, 0
12, 56664, Note_on_c, 8, 50, 46
12, 56686, Note_on_c, 8, 50, 0
12, 56688, Note_on_c, 8, 50, 41
12, 56710, Note_on_c, 8, 50, 0
12, 56712, Note_on_c, 8, 50, 43
12, 56734, Note_on_c, 8, 50, 0
12, 56736, Note_on_c, 8, 47, 91
12, 56758, Note_on_c, 8, 47, 0
12, 56760, Note_on_c, 8, 47, 42
12, 56782, Note_on_c, 8, 47, 0
12, 56784, Note_on_c, 8, 47, 41
12, 56806, Note_on_c, 8, 47, 0
12, 56808, Note_on_c, 8, 47, 45
12, 56830, Note_on_c, 8, 47, 0
12, 56832, Note_on_c, 8, 47, 41
12, 56854, Note_on_c, 8, 47, 0
12, 56856, Note_on_c, 8, 47, 42
12, 56878, Note_on_c, 8, 47, 0
12, 56880, Note_on_c, 8, 47, 43
12, 56902, Note_on_c, 8, 47, 0
12, 56904, Note_on_c, 8, 47, 41
12, 56926, Note_on_c, 8, 47, 0
12, 56928, Note_on_c, 8, 44, 89
12, 56950, Note_on_c, 8, 44, 0
12, 56952, Note_on_c, 8, 44, 49
12, 56974, Note_on_c, 8, 44, 0
12, 56976, Note_on_c, 8, 44, 48
12, 56998, Note_on_c, 8, 44, 0
12, 57000, Note_on_c, 8, 44, 40
12, 57022, Note_on_c, 8, 44, 0
12, 57024, Note_on_c, 8, 44, 44
12, 57046, Note_on_c, 8, 44, 0
12, 57048, Note_on_c, 8, 44, 40
12, 57070, Note_on_c, 8, 44, 0
12, 57072, Note_on_c, 8, 44, 48
12, 57094, Note_on_c, 8, 44, 0
12, 57096, Note_on_c, 8, 44, 48
12, 57118, Note_on_c, 8, 44, 0
12, 57120, Note_on_c, 8, 50, 48
12, 57142, Note_on_c, 8, 50, 0
12, 57144, Note_on_c, 8, 50, 46
12, 57166, Note_on_c, 8, 50, 0
12, 57168, Note_on_c, 8, 50, 47
12, 57190, Note_on_c, 8, 50, 0
12, 57192, Note_on_c, 8, 50, 43
12, 57214, Note_on_c, 8, 50, 0
12, 57216, Note_on_c, 8, 50, 47
12, 57238, Note_on_c, 8, 50, 0
12, 57240, Note_on_c, 8, 50, 47
12, 57262, Note_on_c, 8, 50, 0
12, 57264, Note_on_c, 8, 50, 45
12, 57286, Note_on_c, 8, 50, 0
12, 57288, Note_on_c, 8, 50, 48
12, 57310, Note_on_c, 8, 50, 0
12, 57312, Note_on_c, 8, 47, 48
12, 57334, Note_on_c, 8, 47, 0
12, 57336, Note_on_c, 8, 47, 43
12, 57358, Note_on_c, 8, 47, 0
12, 57360, Note_on_c, 8, 47, 49
12, 57382, Note_on_c, 8, 47, 0
12, 57384, Note_on_c, 8, 47, 48
12, 57406, Note_on_c, 8, 47, 0
12, 57408, Note_on_c, 8, 47, 50
12, 57430, Note_on_c, 8, 47, 0
12, 57432, Note_on_c, 8, 47, 44
12, 57454, Note_on_c, 8, 47, 0
12, 57456, Note_on_c, 8, 47, 49
12, 57478, Note_on_c, 8, 47, 0
12, 57480, Note_on_c, 8, 47, 50
12, 57502, Note_on_c, 8, 47, 0
12, 57504, Note_on_c, 8, 44, 43
12, 57526, Note_on_c, 8, 44, 0
12, 57528, Note_on_c, 8, 44, 41
12, 57550, Note_on_c, 8, 44, 0
12, 57552, Note_on_c, 8, 44, 41
12, 57574, Note_on_c, 8, 44, 0
12, 57576, Note_on_c, 8, 44, 46
12, 57598, Note_on_c, 8, 44, 0
12, 57600, Note_on_c, 8, 44, 49
12, 57622, Note_on_c, 8, 44, 0
12, 57624, Note_on_c, 8, 44, 41
12, 57646, Note_on_c, 8, 44, 0
12, 57648, Note_on_c, 8, 44, 50
12, 57670, Note_on_c, 8, 44, 0
12, 57672, Note_on_c, 8, 44, 50
12, 57694, Note_on_c, 8, 44, 0
12, 57696, Note_on_c, 8, 50, 46
12, 57718, Note_on_c, 8, 50, 0
12, 57720, Note_on_c, 8, 50, 42
12, 57742, Note_on_c, 8, 50, 0
12, 57744, Note_on_c, 8, 50, 44
12, 57766, Note_on_c, 8, 50, 0
12, 57768, Note_on_c, 8, 50, 50
12, 57790, Note_on_c, 8, 50, 0
12, 57792, Note_on_c, 8, 50, 43
12, 57814, Note_on_c, 8, 50, 0
12, 57816, Note_on_c, 8, 50, 48
12, 57838, Note_on_c, 8, 50, 0
12, 57840, Note_on_c, 8, 50, 40
12, 57862, Note_on_c, 8, 50, 0
12, 57864, Note_on_c, 8, 50, 42
12, 57886, Note_on_c, 8, 50, 0
12, 57888, Note_on_c, 8, 47, 48
12, 57910, Note_on_c, 8, 47, 0
12, 57912, Note_on_c, 8, 47, 49
12, 57934, Note_on_c, 8, 47, 0
12, 57936, Note_on_c, 8, 47, 45
12, 57958, Note_on_c, 8, 47, 0
12, 57960, Note_on_c, 8, 47, 43
12, 57982, Note_on_c, 8, 47, 0
12, 57984, Note_on_c, 8, 47, 49
12, 58006, Note_on_c, 8, 47, 0
12, 58008, Note_on_c, 8, 47, 47
12, 58030, Note_on_c, 8, 47, 0
12, 58032, Note_on_c, 8, 47, 45
12, 58054, Note_on_c, 8, 47, 0
12, 58056, Note_on_c, 8, 47, 45
12, 58078, Note_on_c, 8, 47, 0
12, 58080, Note_on_c, 8, 44, 48
12, 58102, Note_on_c, 8, 44, 0
12, 58104, Note_on_c, 8, 44, 46
12, 58126, Note_on_c, 8, 44, 0
12, 58128, Note_on_c, 8, 44, 46
12, 58150, Note_on_c, 8, 44, 0
12, 58152, Note_on_c, 8, 44, 42
12, 58174, Note_on_c, 8, 44, 0
12, 58176, Note_on_c, 8, 44, 46
12, 58198, Note_on_c, 8, 44, 0
12, 58200, Note_on_c, 8, 44, 45
12, 58222, Note_on_c, 8, 44, 0
12, 58224, Note_on_c, 8, 44, 46
12, 58246, Note_on_c, 8, 44, 0
12, 58248, Note_on_c, 8, 44, 41
12, 58270, Note_on_c, 8, 44, 0
12, 58272, Note_on_c, 8, 50, 44
12, 58294, Note_on_c, 8, 50, 0
12, 58296, Note_on_c, 8, 50, 46
12, 58318, Note_on_c, 8, 50, 0
12, 58320, Note_on_c, 8, 50, 42
12, 58342, Note_on_c, 8, 50, 0
12, 58344, Note_on_c, 8, 50, 40
12, 58366, Note_on_c, 8, 50, 0
12, 58368, Note_on_c, 8, 50, 47
12, 58390, Note_on_c, 8, 50, 0
12, 58392, Note_on_c, 8, 50, 42
12, 58414, Note_on_c, 8, 50, 0
12, 58416, Note_on_c, 8, 50, 49
12, 58438, Note_on_c, 8, 50, 0
12, 58440, Note_on_c, 8, 50, 47
12, 58462, Note_on_c, 8, 50, 0
12, 58464, Note_on_c, 8, 47, 46
12, 58486, Note_on_c, 8, 47, 0
12, 58488, Note_on_c, 8, 47, 46
12, 58510, Note_on_c, 8, 47, 0
12, 58512, Note_on_c, 8, 47, 45
12, 58534, Note_on_c, 8, 47, 0
12, 58536, Note_on_c, 8, 47, 49
12, 58558, Note_on_c, 8, 47, 0
12, 58560, Note_on_c, 8, 47, 44
12, 58582, Note_on_c, 8, 47, 0
12, 58584, Note_on_c, 8, 47, 45
12, 58606, Note_on_c, 8, 47, 0
12, 58608, Note_on_c, 8, 47, 46
12, 58630, Note_on_c, 8, 47, 0
12, 58632, Note_on_c, 8, 47, 41
12, 58654, Note_on_c, 8, 47, 0
12, 58656, Note_on_c, 8, 44, 46
12, 58678, Note_on_c, 8, 44, 0
12, 58680, Note_on_c, 8, 44, 45
12, 58702, Note_on_c, 8, 44, 0
12, 58704, Note_on_c, 8, 44, 41
12, 58726, Note_on_c, 8, 44, 0
12, 58728, Note_on_c, 8, 44, 42
12, 58750, Note_on_c, 8, 44, 0
12, 58752, Note_on_c, 8, 44, 49
12, 58774, Note_on_c, 8, 44, 0
12, 58776, Note_on_c, 8, 44, 40
12, 58798, Note_on_c, 8, 44, 0
12, 58800, Note_on_c, 8, 44, 46
12, 58822, Note_on_c, 8, 44, 0
12, 58824, Note_on_c, 8, 44, 49
12, 58846, Note_on_c, 8, 44, 0
12, 58848, Note_on_c, 8, 50, 49
12, 58870, Note_on_c, 8, 50, 0
12, 58872, Note_on_c, 8, 50, 43
12, 58894, Note_on_c, 8, 50, 0
12, 58896, Note_on_c, 8, 50, 45
12, 58918, Note_on_c, 8, 50, 0
12, 58920, Note_on_c, 8, 50, 48
12, 58942, Note_on_c, 8, 50, 0
12, 58944, Note_on_c, 8, 50, 45
12, 58966, Note_on_c, 8, 50, 0
12, 58968, Note_on_c, 8, 50, 41
12, 58990, Note_on_c, 8, 50, 0
12, 58992, Note_on_c, 8, 50, 46
12, 59014, Note_on_c, 8, 50, 0
12, 59016, Note_on_c, 8, 50, 43
12, 59038, Note_on_c, 8, 50, 0
12, 59040, Note_on_c, 8, 47, 48
12, 59062, Note_on_c, 8, 47, 0
12, 59064, Note_on_c, 8, 47, 41
12, 59086, Note_on_c, 8, 47, 0
12, 59088, Note_on_c, 8, 47, 46
12, 59110, Note_on_c, 8, 47, 0
12, 59112, Note_on_c, 8, 47, 43
12, 59134, Note_on_c, 8, 47, 0
12, 59136, Note_on_c, 8, 47, 41
12, 59158, Note_on_c, 8, 47, 0
12, 59160, Note_on_c, 8, 47, 38
12, 59182, Note_on_c, 8, 47, 0
12, 59184, Note_on_c, 8, 47, 42
12, 59206, Note_on_c, 8, 47, 0
12, 59208, Note_on_c, 8, 47, 43
12, 59230, Note_on_c, 8, 47, 0
12, 59232, Note_on_c, 8, 44, 38
12, 59254, Note_on_c, 8, 44, 0
12, 59256, Note_on_c, 8, 44, 38
12, 59278, Note_on_c, 8, 44, 0
12, 59280, Note_on_c, 8, 44, 33
12, 59302, Note_on_c, 8, 44, 0
12, 59304, Note_on_c, 8, 44, 39
12, 59326, Note_on_c, 8, 44, 0
12, 59328, Note_on_c, 8, 44, 29
12, 59350, Note_on_c, 8, 44, 0
12, 59352, Note_on_c, 8, 44, 33
12, 59374, Note_on_c, 8, 44, 0
12, 59376, Note_on_c, 8, 44, 31
12, 59398, Note_on_c, 8, 44, 0
12, 59400, Note_on_c, 8, 44, 31
12, 59422, Note_on_c, 8, 44, 0
12, 59424, Note_on_c, 8, 47, 31
12, 59446, Note_on_c, 8, 47, 0
12, 59448, Note_on_c, 8, 47, 29
12, 59470, Note_on_c, 8, 47, 0
12, 59472, Note_on_c, 8, 47, 33
12, 59494, Note_on_c, 8, 47, 0
12, 59496, Note_on_c, 8, 47, 32
12, 59518, Note_on_c, 8, 47, 0
12, 59520, Note_on_c, 8, 47, 28
12, 59542, Note_on_c, 8, 47, 0
12, 59544, Note_on_c, 8, 47, 24
12, 59566, Note_on_c, 8, 47, 0
12, 59568, Note_on_c, 8, 47, 20
12, 59590, Note_on_c, 8, 47, 0
12, 59592, Note_on_c, 8, 47, 20
12, 59614, Note_on_c, 8, 47, 0
12, 59616, Note_on_c, 8, 44, 16
12, 59710, Note_on_c, 8, 44, 0
12, 60000, Note_on_c, 8, 44, 25
12, 60022, Note_on_c, 8, 44, 0
12, 60024, Note_on_c, 8, 44, 32
12, 60046, Note_on_c, 8, 44, 0
12, 60048, Note_on_c, 8, 44, 29
12, 60070, Note_on_c, 8, 44, 0
12, 60072, Note_on_c, 8, 44, 33
12, 60094, Note_on_c, 8, 44, 0
12, 60096, Note_on_c, 8, 44, 23
12, 60118, Note_on_c, 8, 44, 0
12, 60120, Note_on_c, 8, 44, 26
12, 60142, Note_on_c, 8, 44, 0
12, 60144, Note_on_c, 8, 44, 25
12, 60166, Note_on_c, 8, 44, 0
12, 60168, Note_on_c, 8, 44, 21
12, 60190, Note_on_c, 8, 44, 0
12, 60192, Note_on_c, 8, 47, 18
12, 60286, Note_on_c, 8, 47, 0
12, 60576, Note_on_c, 8, 47, 26
12, 60598, Note_on_c, 8, 47, 0
12, 60600, Note_on_c, 8, 47, 30
12, 60622, Note_on_c, 8, 47, 0
12, 60624, Note_on_c, 8, 47, 26
12, 60646, Note_on_c, 8, 47, 0
12, 60648, Note_on_c, 8, 47, 31
12, 60670, Note_on_c, 8, 47, 0
12, 60672, Note_on_c, 8, 47, 35
12, 60694, Note_on_c, 8, 47, 0
12, 60696, Note_on_c, 8, 47, 34
12, 60718, Note_on_c, 8, 47, 0
12, 60720, Note_on_c, 8, 47, 35
12, 60742, Note_on_c, 8, 47, 0
12, 60744, Note_on_c, 8, 47, 32
12, 60766, Note_on_c, 8, 47, 0
12, 60768, Note_on_c, 8, 47, 32
12, 60790, Note_on_c, 8, 47, 0
12, 60792, Note_on_c, 8, 47, 27
12, 60814, Note_on_c, 8, 47, 0
12, 60816, Note_on_c, 8, 47, 25
12, 60838, Note_on_c, 8, 47, 0
12, 60840, Note_on_c, 8, 47, 26
12, 60862, Note_on_c, 8, 47, 0
12, 60864, Note_on_c, 8, 44, 34
12, 60886, Note_on_c, 8, 44, 0
12, 60888, Note_on_c, 8, 44, 25
12, 60910, Note_on_c, 8, 44, 0
12, 60912, Note_on_c, 8, 44, 29
12, 60934, Note_on_c, 8, 44, 0
12, 60936, Note_on_c, 8, 44, 33
12, 60958, Note_on_c, 8, 44, 0
12, 60960, Note_on_c, 8, 44, 31
12, 60982, Note_on_c, 8, 44, 0
12, 60984, Note_on_c, 8, 44, 27
12, 61006, Note_on_c, 8, 44, 0
12, 61008, Note_on_c, 8, 44, 24
12, 61030, Note_on_c, 8, 44, 0
12, 61032, Note_on_c, 8, 44, 29
12, 61054, Note_on_c, 8, 44, 0
12, 61056, Note_on_c, 8, 44, 26
12, 61078, Note_on_c, 8, 44, 0
12, 61080, Note_on_c, 8, 44, 25
12, 61102, Note_on_c, 8, 44, 0
12, 61104, Note_on_c, 8, 44, 17
12, 61126, Note_on_c, 8, 44, 0
12, 61128, Note_on_c, 8, 44, 17
12, 61150, Note_on_c, 8, 44, 0
12, 61344, Note_on_c, 8, 41, 88
12, 61366, Note_on_c, 8, 41, 0
12, 61368, Note_on_c, 8, 41, 31
12, 61390, Note_on_c, 8, 41, 0
12, 61392, Note_on_c, 8, 41, 29
12, 61414, Note_on_c, 8, 41, 0
12, 61416, Note_on_c, 8, 41, 28
12, 61438, Note_on_c, 8, 41, 0
12, 61440, Note_on_c, 8, 41, 25
12, 61462, Note_on_c, 8, 41, 0
12, 61464, Note_on_c, 8, 41, 35
12, 61486, Note_on_c, 8, 41, 0
12, 61488, Note_on_c, 8, 41, 28
12, 61510, Note_on_c, 8, 41, 0
12, 61512, Note_on_c, 8, 41, 26
12, 61534, Note_on_c, 8, 41, 0
12, 61536, Note_on_c, 8, 41, 34
12, 61558, Note_on_c, 8, 41, 0
12, 61560, Note_on_c, 8, 41, 29
12, 61582, Note_on_c, 8, 41, 0
12, 61584, Note_on_c, 8, 41, 30
12, 61606, Note_on_c, 8, 41, 0
12, 61608, Note_on_c, 8, 41, 30
12, 61630, Note_on_c, 8, 41, 0
12, 61632, Note_on_c, 8, 41, 29
12, 61654, Note_on_c, 8, 41, 0
12, 61656, Note_on_c, 8, 41, 30
12, 61678, Note_on_c, 8, 41, 0
12, 61680, Note_on_c, 8, 41, 40
12, 61702, Note_on_c, 8, 41, 0
12, 61704, Note_on_c, 8, 41, 37
12, 61726, Note_on_c, 8, 41, 0
12, 61728, Note_on_c, 8, 41, 38
12, 61750, Note_on_c, 8, 41, 0
12, 61752, Note_on_c, 8, 41, 40
12, 61774, Note_on_c, 8, 41, 0
12, 61776, Note_on_c, 8, 41, 44
12, 61798, Note_on_c, 8, 41, 0
12, 61800, Note_on_c, 8, 41, 36
12, 61822, Note_on_c, 8, 41, 0
12, 61824, Note_on_c, 8, 41, 38
12, 61846, Note_on_c, 8, 41, 0
12, 61848, Note_on_c, 8, 41, 44
12, 61870, Note_on_c, 8, 41, 0
12, 61872, Note_on_c, 8, 41, 43
12, 61894, Note_on_c, 8, 41, 0
12, 61896, Note_on_c, 8, 41, 43
12, 61918, Note_on_c, 8, 41, 0
12, 61920, Note_on_c, 8, 41, 49
12, 61942, Note_on_c, 8, 41, 0
12, 61944, Note_on_c, 8, 41, 49
12, 61966, Note_on_c, 8, 41, 0
12, 61968, Note_on_c, 8, 41, 41
12, 61990, Note_on_c, 8, 41, 0
12, 61992, Note_on_c, 8, 41, 41
12, 62014, Note_on_c, 8, 41, 0
12, 62016, Note_on_c, 8, 41, 42
12, 62038, Note_on_c, 8, 41, 0
12, 62040, Note_on_c, 8, 41, 42
12, 62062, Note_on_c, 8, 41, 0
12, 62064, Note_on_c, 8, 41, 42
12, 62086, Note_on_c, 8, 41, 0
12, 62088, Note_on_c, 8, 41, 49
12, 62110, Note_on_c, 8, 41, 0
12, 62112, Note_on_c, 8, 41, 44
12, 62134, Note_on_c, 8, 41, 0
12, 62136, Note_on_c, 8, 41, 48
12, 62158, Note_on_c, 8, 41, 0
12, 62160, Note_on_c, 8, 41, 49
12, 62182, Note_on_c, 8, 41, 0
12, 62184, Note_on_c, 8, 41, 40
12, 62206, Note_on_c, 8, 41, 0
12, 62208, Note_on_c, 8, 41, 44
12, 62230, Note_on_c, 8, 41, 0
12, 62232, Note_on_c, 8, 41, 40
12, 62254, Note_on_c, 8, 41, 0
12, 62256, Note_on_c, 8, 41, 45
12, 62278, Note_on_c, 8, 41, 0
12, 62280, Note_on_c, 8, 41, 42
12, 62302, Note_on_c, 8, 41, 0
12, 62304, Note_on_c, 8, 41, 43
12, 62326, Note_on_c, 8, 41, 0
12, 62328, Note_on_c, 8, 41, 45
12, 62350, Note_on_c, 8, 41, 0
12, 62352, Note_on_c, 8, 41, 40
12, 62374, Note_on_c, 8, 41, 0
12, 62376, Note_on_c, 8, 41, 48
12, 62398, Note_on_c, 8, 41, 0
12, 62400, Note_on_c, 8, 41, 43
12, 62422, Note_on_c, 8, 41, 0
12, 62424, Note_on_c, 8, 41, 38
12, 62446, Note_on_c, 8, 41, 0
12, 62448, Note_on_c, 8, 41, 37
12, 62470, Note_on_c, 8, 41, 0
12, 62472, Note_on_c, 8, 41, 34
12, 62494, Note_on_c, 8, 41, 0
12, 62496, Note_on_c, 8, 41, 38
12, 62518, Note_on_c, 8, 41, 0
12, 62520, Note_on_c, 8, 41, 37
12, 62542, Note_on_c, 8, 41, 0
12, 62544, Note_on_c, 8, 41, 34
12, 62566, Note_on_c, 8, 41, 0
12, 62568, Note_on_c, 8, 41, 39
12, 62590, Note_on_c, 8, 41, 0
12, 62592, Note_on_c, 8, 41, 30
12, 62614, Note_on_c, 8, 41, 0
12, 62616, Note_on_c, 8, 41, 36
12, 62638, Note_on_c, 8, 41, 0
12, 62640, Note_on_c, 8, 41, 31
12, 62662, Note_on_c, 8, 41, 0
12, 62664, Note_on_c, 8, 41, 28
12, 62686, Note_on_c, 8, 41, 0
12, 67296, Note_on_c, 8, 41, 29
12, 67318, Note_on_c, 8, 41, 0
12, 67320, Note_on_c, 8, 41, 32
12, 67342, Note_on_c, 8, 41, 0
12, 67344, Note_on_c, 8, 41, 25
12, 67366, Note_on_c, 8, 41, 0
12, 67368, Note_on_c, 8, 41, 25
12, 67390, Note_on_c, 8, 41, 0
12, 67392, Note_on_c, 8, 41, 34
12, 67414, Note_on_c, 8, 41, 0
12, 67416, Note_on_c, 8, 41, 26
12, 67438, Note_on_c, 8, 41, 0
12, 67440, Note_on_c, 8, 41, 32
12, 67462, Note_on_c, 8, 41, 0
12, 67464, Note_on_c, 8, 41, 30
12, 67486, Note_on_c, 8, 41, 0
12, 67488, Note_on_c, 8, 41, 35
12, 67510, Note_on_c, 8, 41, 0
12, 67512, Note_on_c, 8, 41, 35
12, 67534, Note_on_c, 8, 41, 0
12, 67536, Note_on_c, 8, 41, 25
12, 67558, Note_on_c, 8, 41, 0
12, 67560, Note_on_c, 8, 41, 33
12, 67582, Note_on_c, 8, 41, 0
12, 67584, Note_on_c, 8, 41, 33
12, 67606, Note_on_c, 8, 41, 0
12, 67608, Note_on_c, 8, 41, 35
12, 67630, Note_on_c, 8, 41, 0
12, 67632, Note_on_c, 8, 41, 35
12, 67654, Note_on_c, 8, 41, 0
12, 67656, Note_on_c, 8, 41, 32
12, 67678, Note_on_c, 8, 41, 0
12, 67680, Note_on_c, 8, 41, 26
12, 67702, Note_on_c, 8, 41, 0
12, 67704, Note_on_c, 8, 41, 34
12, 67726, Note_on_c, 8, 41, 0
12, 67728, Note_on_c, 8, 41, 26
12, 67750, Note_on_c, 8, 41, 0
12, 67752, Note_on_c, 8, 41, 33
12, 67774, Note_on_c, 8, 41, 0
12, 67776, Note_on_c, 8, 41, 28
12, 67798, Note_on_c, 8, 41, 0
12, 67800, Note_on_c, 8, 41, 31
12, 67822, Note_on_c, 8, 41, 0
12, 67824, Note_on_c, 8, 41, 33
12, 67846, Note_on_c, 8, 41, 0
12, 67848, Note_on_c, 8, 41, 34
12, 67870, Note_on_c, 8, 41, 0
12, 67872, Note_on_c, 8, 41, 28
12, 67894, Note_on_c, 8, 41, 0
12, 67896, Note_on_c, 8, 41, 29
12, 67918, Note_on_c, 8, 41, 0
12, 67920, Note_on_c, 8, 41, 26
12, 67942, Note_on_c, 8, 41, 0
12, 67944, Note_on_c, 8, 41, 23
12, 67966, Note_on_c, 8, 41, 0
12, 67968, Note_on_c, 8, 41, 26
12, 67990, Note_on_c, 8, 41, 0
12, 67992, Note_on_c, 8, 41, 24
12, 68014, Note_on_c, 8, 41, 0
12, 68016, Note_on_c, 8, 41, 20
12, 68038, Note_on_c, 8, 41, 0
12, 68040, Note_on_c, 8, 41, 25
12, 68062, Note_on_c, 8, 41, 0
12, 68064, Note_on_c, 8, 41, 24
12, 68158, Note_on_c, 8, 41, 0
12, 86112, Note_on_c, 8, 46, 25
12, 86142, Note_on_c, 8, 46, 0
12, 86144, Note_on_c, 8, 46, 34
12, 86174, Note_on_c, 8, 46, 0
12, 86176, Note_on_c, 8, 46, 35
12, 86206, Note_on_c, 8, 46, 0
12, 86208, Note_on_c, 8, 46, 34
12, 86238, Note_on_c, 8, 46, 0
12, 86240, Note_on_c, 8, 46, 31
12, 86270, Note_on_c, 8, 46, 0
12, 86272, Note_on_c, 8, 46, 33
12, 86302, Note_on_c, 8, 46, 0
12, 86304, Note_on_c, 8, 46, 26
12, 86334, Note_on_c, 8, 46, 0
12, 86336, Note_on_c, 8, 46, 33
12, 86366, Note_on_c, 8, 46, 0
12, 86368, Note_on_c, 8, 46, 31
12, 86398, Note_on_c, 8, 46, 0
12, 86400, Note_on_c, 8, 46, 33
12, 86430, Note_on_c, 8, 46, 0
12, 86432, Note_on_c, 8, 46, 27
12, 86462, Note_on_c, 8, 46, 0
12, 86464, Note_on_c, 8, 46, 33
12, 86494, Note_on_c, 8, 46, 0
12, 86496, Note_on_c, 8, 46, 34
12, 86526, Note_on_c, 8, 46, 0
12, 86528, Note_on_c, 8, 46, 29
12, 86558, Note_on_c, 8, 46, 0
12, 86560, Note_on_c, 8, 46, 30
12, 86590, Note_on_c, 8, 46, 0
12, 86592, Note_on_c, 8, 46, 27
12, 86622, Note_on_c, 8, 46, 0
12, 86624, Note_on_c, 8, 46, 29
12, 86654, Note_on_c, 8, 46, 0
12, 86656, Note_on_c, 8, 46, 26
12, 86686, Note_on_c, 8, 46, 0
12, 86688, Note_on_c, 8, 46, 29
12, 86718, Note_on_c, 8, 46, 0
12, 86720, Note_on_c, 8, 46, 32
12, 86750, Note_on_c, 8, 46, 0
12, 86752, Note_on_c, 8, 46, 31
12, 86782, Note_on_c, 8, 46, 0
12, 86784, Note_on_c, 8, 46, 35
12, 86814, Note_on_c, 8, 46, 0
12, 86816, Note_on_c, 8, 46, 26
12, 86846, Note_on_c, 8, 46, 0
12, 86848, Note_on_c, 8, 46, 30
12, 86878, Note_on_c, 8, 46, 0
12, 86880, Note_on_c, 8, 46, 30
12, 86910, Note_on_c, 8, 46, 0
12, 86912, Note_on_c, 8, 46, 28
12, 86942, Note_on_c, 8, 46, 0
12, 86944, Note_on_c, 8, 46, 25
12, 86974, Note_on_c, 8, 46, 0
12, 86976, Note_on_c, 8, 46, 34
12, 87006, Note_on_c, 8, 46, 0
12, 87008, Note_on_c, 8, 46, 31
12, 87038, Note_on_c, 8, 46, 0
12, 87040, Note_on_c, 8, 46, 34
12, 87070, Note_on_c, 8, 46, 0
12, 87072, Note_on_c, 8, 46, 35
12, 87102, Note_on_c, 8, 46, 0
12, 87104, Note_on_c, 8, 46, 26
12, 87134, Note_on_c, 8, 46, 0
12, 87136, Note_on_c, 8, 46, 35
12, 87166, Note_on_c, 8, 46, 0
12, 87168, Note_on_c, 8, 46, 33
12, 87198, Note_on_c, 8, 46, 0
12, 87200, Note_on_c, 8, 46, 25
12, 87230, Note_on_c, 8, 46, 0
12, 87232, Note_on_c, 8, 46, 33
12, 87262, Note_on_c, 8, 46, 0
12, 87264, Note_on_c, 8, 46, 29
12, 87294, Note_on_c, 8, 46, 0
12, 87296, Note_on_c, 8, 46, 33
12, 87326, Note_on_c, 8, 46, 0
12, 87328, Note_on_c, 8, 46, 33
12, 87358, Note_on_c, 8, 46, 0
12, 87360, Note_on_c, 8, 46, 30
12, 87390, Note_on_c, 8, 46, 0
12, 87392, Note_on_c, 8, 46, 27
12, 87422, Note_on_c, 8, 46, 0
12, 87424, Note_on_c, 8, 46, 32
12, 87454, Note_on_c, 8, 46, 0
12, 87456, Note_on_c, 8, 46, 30
12, 87486, Note_on_c, 8, 46, 0
12, 87488, Note_on_c, 8, 46, 35
12, 87518, Note_on_c, 8, 46, 0
12, 87520, Note_on_c, 8, 46, 30
12, 87550, Note_on_c, 8, 46, 0
12, 87552, Note_on_c, 8, 46, 33
12, 87582, Note_on_c, 8, 46, 0
12, 87584, Note_on_c, 8, 46, 32
12, 87614, Note_on_c, 8, 46, 0
12, 87616, Note_on_c, 8, 46, 32
12, 87646, Note_on_c, 8, 46, 0
12, 87648, Note_on_c, 8, 46, 34
12, 87678, Note_on_c, 8, 46, 0
12, 87680, Note_on_c, 8, 46, 32
12, 87710, Note_on_c, 8, 46, 0
12, 87712, Note_on_c, 8, 46, 27
12, 87742, Note_on_c, 8, 46, 0
12, 87744, Note_on_c, 8, 46, 30
12, 87774, Note_on_c, 8, 46, 0
12, 87776, Note_on_c, 8, 46, 25
12, 87806, Note_on_c, 8, 46, 0
12, 87808, Note_on_c, 8, 46, 25
12, 87838, Note_on_c, 8, 46, 0
12, 87840, Note_on_c, 8, 46, 33
12, 87870, Note_on_c, 8, 46, 0
12, 87872, Note_on_c, 8, 46, 27
12, 87902, Note_on_c, 8, 46, 0
12, 87904, Note_on_c, 8, 46, 30
12, 87934, Note_on_c, 8, 46, 0
12, 87936, Note_on_c, 8, 46, 34
12, 87966, Note_on_c, 8, 46, 0
12, 87968, Note_on_c, 8, 46, 26
12, 87998, Note_on_c, 8, 46, 0
12, 88000, Note_on_c, 8, 46, 34
12, 88030, Note_on_c, 8, 46, 0
12, 88032, Note_on_c, 8, 46, 30
12, 88062, Note_on_c, 8, 46, 0
12, 88064, Note_on_c, 8, 46, 26
12, 88094, Note_on_c, 8, 46, 0
12, 88096, Note_on_c, 8, 46, 25
12, 88126, Note_on_c, 8, 46, 0
12, 88128, Note_on_c, 8, 46, 34
12, 88158, Note_on_c, 8, 46, 0
12, 88160, Note_on_c, 8, 46, 35
12, 88190, Note_on_c, 8, 46, 0
12, 88192, Note_on_c, 8, 46, 30
12, 88222, Note_on_c, 8, 46, 0
12, 88224, Note_on_c, 8, 46, 33
12, 88254, Note_on_c, 8, 46, 0
12, 88256, Note_on_c, 8, 46, 27
12, 88286, Note_on_c, 8, 46, 0
12, 88288, Note_on_c, 8, 46, 28
12, 88318, Note_on_c, 8, 46, 0
12, 88320, Note_on_c, 8, 46, 33
12, 88350, Note_on_c, 8, 46, 0
12, 88352, Note_on_c, 8, 46, 30
12, 88382, Note_on_c, 8, 46, 0
12, 88384, Note_on_c, 8, 46, 34
12, 88414, Note_on_c, 8, 46, 0
12, 88416, Note_on_c, 8, 46, 25
12, 88446, Note_on_c, 8, 46, 0
12, 88448, Note_on_c, 8, 46, 20
12, 88478, Note_on_c, 8, 46, 0
12, 88480, Note_on_c, 8, 46, 24
12, 88510, Note_on_c, 8, 46, 0
12, 88512, Note_on_c, 8, 46, 17
12, 88542, Note_on_c, 8, 46, 0
12, 88544, Note_on_c, 8, 46, 21
12, 88574, Note_on_c, 8, 46, 0
12, 88576, Note_on_c, 8, 46, 25
12, 88606, Note_on_c, 8, 46, 0
12, 88608, Note_on_c, 8, 46, 23
12, 88638, Note_on_c, 8, 46, 0
12, 88640, Note_on_c, 8, 46, 21
12, 88670, Note_on_c, 8, 46, 0
12, 88672, Note_on_c, 8, 46, 24
12, 88702, Note_on_c, 8, 46, 0
12, 88704, Note_on_c, 8, 46, 24
12, 88734, Note_on_c, 8, 46, 0
12, 88736, Note_on_c, 8, 46, 19
12, 88766, Note_on_c, 8, 46, 0
12, 88768, Note_on_c, 8, 46, 20
12, 88798, Note_on_c, 8, 46, 0
12, 88800, Note_on_c, 8, 46, 16
12, 88830, Note_on_c, 8, 46, 0
12, 88832, Note_on_c, 8, 46, 17
12, 88862, Note_on_c, 8, 46, 0
12, 88864, Note_on_c, 8, 46, 25
12, 88894, Note_on_c, 8, 46, 0
12, 88896, Note_on_c, 8, 46, 25
12, 88926, Note_on_c, 8, 46, 0
12, 88928, Note_on_c, 8, 46, 22
12, 88958, Note_on_c, 8, 46, 0
12, 88960, Note_on_c, 8, 46, 23
12, 88990, Note_on_c, 8, 46, 0
12, 88992, Note_on_c, 8, 46, 18
12, 89022, Note_on_c, 8, 46, 0
12, 89024, Note_on_c, 8, 46, 18
12, 89054, Note_on_c, 8, 46, 0
12, 89056, Note_on_c, 8, 46, 20
12, 89086, Note_on_c, 8, 46, 0
12, 89088, Note_on_c, 8, 46, 23
12, 89118, Note_on_c, 8, 46, 0
12, 89120, Note_on_c, 8, 46, 16
12, 89150, Note_on_c, 8, 46, 0
12, 89152, Note_on_c, 8, 46, 19
12, 89182, Note_on_c, 8, 46, 0
12, 89184, Note_on_c, 8, 46, 21
12, 89214, Note_on_c, 8, 46, 0
12, 89216, Note_on_c, 8, 46, 18
12, 89246, Note_on_c, 8, 46, 0
12, 89248, Note_on_c, 8, 46, 22
12, 89278, Note_on_c, 8, 46, 0
12, 89280, Note_on_c, 8, 46, 18
12, 89310, Note_on_c, 8, 46, 0
12, 89312, Note_on_c, 8, 46, 16
12, 89342, Note_on_c, 8, 46, 0
12, 89344, Note_on_c, 8, 46, 17
12, 89374, Note_on_c, 8, 46, 0
12, 89376, Note_on_c, 8, 46, 20
12, 89406, Note_on_c, 8, 46, 0
12, 89408, Note_on_c, 8, 46, 25
12, 89438, Note_on_c, 8, 46, 0
12, 89440, Note_on_c, 8, 46, 16
12, 89470, Note_on_c, 8, 46, 0
12, 89472, Note_on_c, 8, 46, 24
12, 89502, Note_on_c, 8, 46, 0
12, 89504, Note_on_c, 8, 46, 21
12, 89534, Note_on_c, 8, 46, 0
12, 89536, Note_on_c, 8, 46, 25
12, 89566, Note_on_c, 8, 46, 0
12, 89568, Note_on_c, 8, 46, 23
12, 89662, Note_on_c, 8, 46, 0
12, 109920, Note_on_c, 8, 42, 78
12, 109930, Note_on_c, 8, 42, 0
12, 109932, Note_on_c, 8, 42, 79
12, 109942, Note_on_c, 8, 42, 0
12, 109944, Note_on_c, 8, 42, 78
12, 109954, Note_on_c, 8, 42, 0
12, 109956, Note_on_c, 8, 42, 79
12, 109966, Note_on_c, 8, 42, 0
12, 109968, Note_on_c, 8, 42, 78
12, 109978, Note_on_c, 8, 42, 0
12, 109980, Note_on_c, 8, 42, 73
12, 109990, Note_on_c, 8, 42, 0
12, 109992, Note_on_c, 8, 42, 79
12, 110002, Note_on_c, 8, 42, 0
12, 110004, Note_on_c, 8, 42, 74
12, 110014, Note_on_c, 8, 42, 0
12, 110016, Note_on_c, 8, 42, 77
12, 110026, Note_on_c, 8, 42, 0
12, 110028, Note_on_c, 8, 42, 79
12, 110038, Note_on_c, 8, 42, 0
12, 110040, Note_on_c, 8, 42, 79
12, 110050, Note_on_c, 8, 42, 0
12, 110052, Note_on_c, 8, 42, 74
12, 110062, Note_on_c, 8, 42, 0
12, 110064, Note_on_c, 8, 42, 72
12, 110074, Note_on_c, 8, 42, 0
12, 110076, Note_on_c, 8, 42, 80
12, 110086, Note_on_c, 8, 42, 0
12, 110088, Note_on_c, 8, 42, 70
12, 110098, Note_on_c, 8, 42, 0
12, 110100, Note_on_c, 8, 42, 71
12, 110110, Note_on_c, 8, 42, 0
12, 110112, Note_on_c, 8, 42, 79
12, 110122, Note_on_c, 8, 42, 0
12, 110124, Note_on_c, 8, 42, 82
12, 110134, Note_on_c, 8, 42, 0
12, 110136, Note_on_c, 8, 42, 73
12, 110146, Note_on_c, 8, 42, 0
12, 110148, Note_on_c, 8, 42, 77
12, 110158, Note_on_c, 8, 42, 0
12, 110160, Note_on_c, 8, 42, 83
12, 110170, Note_on_c, 8, 42, 0
12, 110172, Note_on_c, 8, 42, 81
12, 110182, Note_on_c, 8, 42, 0
12, 110184, Note_on_c, 8, 42, 79
12, 110194, Note_on_c, 8, 42, 0
12, 110196, Note_on_c, 8, 42, 87
12, 110206, Note_on_c, 8, 42, 0
12, 110208, Note_on_c, 8, 42, 79
12, 110218, Note_on_c, 8, 42, 0
12, 110220, Note_on_c, 8, 42, 90
12, 110230, Note_on_c, 8, 42, 0
12, 110232, Note_on_c, 8, 42, 87
12, 110242, Note_on_c, 8, 42, 0
12, 110244, Note_on_c, 8, 42, 88
12, 110254, Note_on_c, 8, 42, 0
12, 110256, Note_on_c, 8, 42, 88
12, 110266, Note_on_c, 8, 42, 0
12, 110268, Note_on_c, 8, 42, 94
12, 110278, Note_on_c, 8, 42, 0
12, 110280, Note_on_c, 8, 42, 88
12, 110290, Note_on_c, 8, 42, 0
12, 110292, Note_on_c, 8, 50, 89
12, 110302, Note_on_c, 8, 50, 0
12, 110304, Note_on_c, 8, 50, 97
12, 110464, Note_on_c, 8, 50, 0
12, 110688, Note_on_c, 8, 46, 99
12, 110698, Note_on_c, 8, 46, 0
12, 110700, Note_on_c, 8, 46, 101
12, 110710, Note_on_c, 8, 46, 0
12, 110712, Note_on_c, 8, 46, 96
12, 110722, Note_on_c, 8, 46, 0
12, 110724, Note_on_c, 8, 46, 100
12, 110734, Note_on_c, 8, 46, 0
12, 110736, Note_on_c, 8, 46, 96
12, 110746, Note_on_c, 8, 46, 0
12, 110748, Note_on_c, 8, 46, 102
12, 110758, Note_on_c, 8, 46, 0
12, 110760, Note_on_c, 8, 46, 103
12, 110770, Note_on_c, 8, 46, 0
12, 110772, Note_on_c, 8, 46, 100
12, 110782, Note_on_c, 8, 46, 0
12, 110784, Note_on_c, 8, 46, 104
12, 110794, Note_on_c, 8, 46, 0
12, 110796, Note_on_c, 8, 46, 102
12, 110806, Note_on_c, 8, 46, 0
12, 110808, Note_on_c, 8, 46, 95
12, 110818, Note_on_c, 8, 46, 0
12, 110820, Note_on_c, 8, 46, 105
12, 110830, Note_on_c, 8, 46, 0
12, 110832, Note_on_c, 8, 46, 105
12, 110842, Note_on_c, 8, 46, 0
12, 110844, Note_on_c, 8, 46, 105
12, 110854, Note_on_c, 8, 46, 0
12, 110856, Note_on_c, 8, 46, 97
12, 110866, Note_on_c, 8, 46, 0
12, 110868, Note_on_c, 8, 46, 100
12, 110878, Note_on_c, 8, 46, 0
12, 110880, Note_on_c, 8, 46, 100
12, 110890, Note_on_c, 8, 46, 0
12, 110892, Note_on_c, 8, 46, 100
12, 110902, Note_on_c, 8, 46, 0
12, 110904, Note_on_c, 8, 46, 97
12, 110914, Note_on_c, 8, 46, 0
12, 110916, Note_on_c, 8, 46, 105
12, 110926, Note_on_c, 8, 46, 0
12, 110928, Note_on_c, 8, 46, 102
12, 110938, Note_on_c, 8, 46, 0
12, 110940, Note_on_c, 8, 46, 97
12, 110950, Note_on_c, 8, 46, 0
12, 110952, Note_on_c, 8, 46, 99
12, 110962, Note_on_c, 8, 46, 0
12, 110964, Note_on_c, 8, 46, 99
12, 110974, Note_on_c, 8, 46, 0
12, 110976, Note_on_c, 8, 46, 97
12, 110986, Note_on_c, 8, 46, 0
12, 110988, Note_on_c, 8, 46, 102
12, 110998, Note_on_c, 8, 46, 0
12, 111000, Note_on_c, 8, 46, 98
12, 111010, Note_on_c, 8, 46, 0
12, 111012, Note_on_c, 8, 46, 106
12, 111022, Note_on_c, 8, 46, 0
12, 111024, Note_on_c, 8, 46, 105
12, 111034, Note_on_c, 8, 46, 0
12, 111036, Note_on_c, 8, 46, 109
12, 111046, Note_on_c, 8, 46, 0
12, 111048, Note_on_c, 8, 46, 108
12, 111058, Note_on_c, 8, 46, 0
12, 111060, Note_on_c, 8, 50, 104
12, 111070, Note_on_c, 8, 50, 0
12, 111072, Note_on_c, 8, 50, 113
12, 111232, Note_on_c, 8, 50, 0
12, 111456, Note_on_c, 8, 46, 107
12, 111466, Note_on_c, 8, 46, 0
12, 111468, Note_on_c, 8, 46, 111
12, 111478, Note_on_c, 8, 46, 0
12, 111480, Note_on_c, 8, 46, 106
12, 111490, Note_on_c, 8, 46, 0
12, 111492, Note_on_c, 8, 46, 110
12, 111502, Note_on_c, 8, 46, 0
12, 111504, Note_on_c, 8, 46, 111
12, 111514, Note_on_c, 8, 46, 0
12, 111516, Note_on_c, 8, 46, 107
12, 111526, Note_on_c, 8, 46, 0
12, 111528, Note_on_c, 8, 46, 112
12, 111538, Note_on_c, 8, 46, 0
12, 111540, Note_on_c, 8, 46, 106
12, 111550, Note_on_c, 8, 46, 0
12, 111552, Note_on_c, 8, 46, 112
12, 111562, Note_on_c, 8, 46, 0
12, 111564, Note_on_c, 8, 46, 112
12, 111574, Note_on_c, 8, 46, 0
12, 111576, Note_on_c, 8, 46, 112
12, 111586, Note_on_c, 8, 46, 0
12, 111588, Note_on_c, 8, 46, 112
12, 111598, Note_on_c, 8, 46, 0
12, 111600, Note_on_c, 8, 46, 106
12, 111610, Note_on_c, 8, 46, 0
12, 111612, Note_on_c, 8, 46, 112
12, 111622, Note_on_c, 8, 46, 0
12, 111624, Note_on_c, 8, 46, 106
12, 111634, Note_on_c, 8, 46, 0
12, 111636, Note_on_c, 8, 46, 111
12, 111646, Note_on_c, 8, 46, 0
12, 111648, Note_on_c, 8, 46, 108
12, 111658, Note_on_c, 8, 46, 0
12, 111660, Note_on_c, 8, 46, 107
12, 111670, Note_on_c, 8, 46, 0
12, 111672, Note_on_c, 8, 46, 107
12, 111682, Note_on_c, 8, 46, 0
12, 111684, Note_on_c, 8, 46, 105
12, 111694, Note_on_c, 8, 46, 0
12, 111696, Note_on_c, 8, 46, 105
12, 111706, Note_on_c, 8, 46, 0
12, 111708, Note_on_c, 8, 46, 107
12, 111718, Note_on_c, 8, 46, 0
12, 111720, Note_on_c, 8, 46, 109
12, 111730, Note_on_c, 8, 46, 0
12, 111732, Note_on_c, 8, 46, 103
12, 111742, Note_on_c, 8, 46, 0
12, 111744, Note_on_c, 8, 46, 106
12, 111754, Note_on_c, 8, 46, 0
12, 111756, Note_on_c, 8, 46, 106
12, 111766, Note_on_c, 8, 46, 0
12, 111768, Note_on_c, 8, 46, 108
12, 111778, Note_on_c, 8, 46, 0
12, 111780, Note_on_c, 8, 46, 112
12, 111790, Note_on_c, 8, 46, 0
12, 111792, Note_on_c, 8, 46, 109
12, 111802, Note_on_c, 8, 46, 0
12, 111804, Note_on_c, 8, 46, 112
12, 111814, Note_on_c, 8, 46, 0
12, 111816, Note_on_c, 8, 46, 107
12, 111826, Note_on_c, 8, 46, 0
12, 111828, Note_on_c, 8, 53, 104
12, 111838, Note_on_c, 8, 53, 0
12, 111840, Note_on_c, 8, 53, 103
12, 111910, Note_on_c, 8, 53, 0
12, 111912, Note_on_c, 8, 46, 112
12, 111934, Note_on_c, 8, 46, 0
12, 111936, Note_on_c, 8, 46, 103
12, 112102, Note_on_c, 8, 46, 0
12, 112104, Note_on_c, 8, 53, 105
12, 112126, Note_on_c, 8, 53, 0
12, 112128, Note_on_c, 8, 53, 108
12, 112198, Note_on_c, 8, 53, 0
12, 112200, Note_on_c, 8, 46, 111
12, 112222, Note_on_c, 8, 46, 0
12, 112224, Note_on_c, 8, 46, 112
12, 112390, Note_on_c, 8, 46, 0
12, 112392, Note_on_c, 8, 53, 111
12, 112414, Note_on_c, 8, 53, 0
12, 112416, Note_on_c, 8, 53, 110
12, 112486, Note_on_c, 8, 53, 0
12, 112488, Note_on_c, 8, 46, 113
12, 112510, Note_on_c, 8, 46, 0
12, 112512, Note_on_c, 8, 46, 108
12, 112606, Note_on_c, 8, 46, 0
12, 113364, Note_on_c, 8, 49, 111
12, 113374, Note_on_c, 8, 49, 0
12, 113376, Note_on_c, 8, 49, 107
12, 113386, Note_on_c, 8, 49, 0
12, 113388, Note_on_c, 8, 49, 110
12, 113398, Note_on_c, 8, 49, 0
12, 113400, Note_on_c, 8, 49, 108
12, 113410, Note_on_c, 8, 49, 0
12, 113412, Note_on_c, 8, 49, 116
12, 113422, Note_on_c, 8, 49, 0
12, 113424, Note_on_c, 8, 49, 108
12, 113434, Note_on_c, 8, 49, 0
12, 113436, Note_on_c, 8, 49, 117
12, 113446, Note_on_c, 8, 49, 0
12, 113448, Note_on_c, 8, 49, 111
12, 113458, Note_on_c, 8, 49, 0
12, 113460, Note_on_c, 8, 49, 119
12, 113470, Note_on_c, 8, 49, 0
12, 113472, Note_on_c, 8, 49, 118
12, 113482, Note_on_c, 8, 49, 0
12, 113484, Note_on_c, 8, 49, 113
12, 113494, Note_on_c, 8, 49, 0
12, 113496, Note_on_c, 8, 49, 118
12, 113506, Note_on_c, 8, 49, 0
12, 113508, Note_on_c, 8, 49, 120
12, 113518, Note_on_c, 8, 49, 0
12, 113520, Note_on_c, 8, 49, 123
12, 113530, Note_on_c, 8, 49, 0
12, 113532, Note_on_c, 8, 49, 124
12, 113542, Note_on_c, 8, 49, 0
12, 113544, Note_on_c, 8, 49, 118
12, 113554, Note_on_c, 8, 49, 0
12, 113556, Note_on_c, 8, 49, 127
12, 113566, Note_on_c, 8, 49, 0
12, 113568, Note_on_c, 8, 49, 126
12, 113578, Note_on_c, 8, 49, 0
12, 113580, Note_on_c, 8, 49, 127
12, 113590, Note_on_c, 8, 49, 0
12, 113592, Note_on_c, 8, 49, 121
12, 113602, Note_on_c, 8, 49, 0
12, 113604, Note_on_c, 8, 49, 126
12, 113614, Note_on_c, 8, 49, 0
12, 113616, Note_on_c, 8, 49, 121
12, 113626, Note_on_c, 8, 49, 0
12, 113628, Note_on_c, 8, 49, 119
12, 113638, Note_on_c, 8, 49, 0
12, 113640, Note_on_c, 8, 49, 126
12, 113650, Note_on_c, 8, 49, 0
12, 113652, Note_on_c, 8, 49, 124
12, 113662, Note_on_c, 8, 49, 0
12, 113664, Note_on_c, 8, 49, 116
12, 113674, Note_on_c, 8, 49, 0
12, 113676, Note_on_c, 8, 49, 114
12, 113686, Note_on_c, 8, 49, 0
12, 113688, Note_on_c, 8, 49, 118
12, 113698, Note_on_c, 8, 49, 0
12, 113700, Note_on_c, 8, 49, 120
12, 113710, Note_on_c, 8, 49, 0
12, 113712, Note_on_c, 8, 49, 111
12, 113722, Note_on_c, 8, 49, 0
12, 113724, Note_on_c, 8, 49, 112
12, 113734, Note_on_c, 8, 49, 0
12, 113736, Note_on_c, 8, 49, 109
12, 113746, Note_on_c, 8, 49, 0
12, 113748, Note_on_c, 8, 49, 113
12, 113758, Note_on_c, 8, 49, 0
12, 113760, Note_on_c, 8, 49, 107
12, 113770, Note_on_c, 8, 49, 0
12, 113772, Note_on_c, 8, 49, 109
12, 113782, Note_on_c, 8, 49, 0
12, 113784, Note_on_c, 8, 49, 111
12, 113794, Note_on_c, 8, 49, 0
12, 113796, Note_on_c, 8, 49, 109
12, 113806, Note_on_c, 8, 49, 0
12, 113808, Note_on_c, 8, 49, 107
12, 113818, Note_on_c, 8, 49, 0
12, 113820, Note_on_c, 8, 49, 104
12, 113830, Note_on_c, 8, 49, 0
12, 113832, Note_on_c, 8, 49, 110
12, 113842, Note_on_c, 8, 49, 0
12, 113844, Note_on_c, 8, 49, 105
12, 113854, Note_on_c, 8, 49, 0
12, 113856, Note_on_c, 8, 49, 106
12, 113866, Note_on_c, 8, 49, 0
12, 113868, Note_on_c, 8, 49, 94
12, 113878, Note_on_c, 8, 49, 0
12, 113880, Note_on_c, 8, 49, 93
12, 113890, Note_on_c, 8, 49, 0
12, 113892, Note_on_c, 8, 49, 99
12, 113902, Note_on_c, 8, 49, 0
12, 113904, Note_on_c, 8, 49, 97
12, 113914, Note_on_c, 8, 49, 0
12, 113916, Note_on_c, 8, 49, 95
12, 113926, Note_on_c, 8, 49, 0
12, 113928, Note_on_c, 8, 49, 94
12, 113938, Note_on_c, 8, 49, 0
12, 113940, Note_on_c, 8, 49, 88
12, 113950, Note_on_c, 8, 49, 0
12, 113952, Note_on_c, 8, 49, 84
12, 113962, Note_on_c, 8, 49, 0
12, 113964, Note_on_c, 8, 49, 79
12, 113974, Note_on_c, 8, 49, 0
12, 113976, Note_on_c, 8, 49, 84
12, 113986, Note_on_c, 8, 49, 0
12, 113988, Note_on_c, 8, 49, 76
12, 113998, Note_on_c, 8, 49, 0
12, 114000, Note_on_c, 8, 49, 75
12, 114010, Note_on_c, 8, 49, 0
12, 114012, Note_on_c, 8, 49, 73
12, 114022, Note_on_c, 8, 49, 0
12, 114024, Note_on_c, 8, 49, 74
12, 114034, Note_on_c, 8, 49, 0
12, 114036, Note_on_c, 8, 49, 74
12, 114046, Note_on_c, 8, 49, 0
12, 114048, Note_on_c, 8, 49, 71
12, 114058, Note_on_c, 8, 49, 0
12, 114060, Note_on_c, 8, 49, 63
12, 114070, Note_on_c, 8, 49, 0
12, 114072, Note_on_c, 8, 49, 68
12, 114082, Note_on_c, 8, 49, 0
12, 114084, Note_on_c, 8, 49, 59
12, 114094, Note_on_c, 8, 49, 0
12, 114096, Note_on_c, 8, 49, 64
12, 114106, Note_on_c, 8, 49, 0
12, 114108, Note_on_c, 8, 49, 58
12, 114118, Note_on_c, 8, 49, 0
12, 114120, Note_on_c, 8, 49, 60
12, 114130, Note_on_c, 8, 49, 0
12, 114132, Note_on_c, 8, 49, 52
12, 114142, Note_on_c, 8, 49, 0
12, 114144, Note_on_c, 8, 49, 56
12, 114154, Note_on_c, 8, 49, 0
12, 114156, Note_on_c, 8, 49, 48
12, 114166, Note_on_c, 8, 49, 0
12, 114168, Note_on_c, 8, 49, 47
12, 114178, Note_on_c, 8, 49, 0
12, 114180, Note_on_c, 8, 49, 46
12, 114190, Note_on_c, 8, 49, 0
12, 114192, Note_on_c, 8, 49, 42
12, 114202, Note_on_c, 8, 49, 0
12, 114204, Note_on_c, 8, 49, 40
12, 114214, Note_on_c, 8, 49, 0
12, 114216, Note_on_c, 8, 49, 39
12, 114226, Note_on_c, 8, 49, 0
12, 114228, Note_on_c, 8, 49, 41
12, 114238, Note_on_c, 8, 49, 0
12, 114240, Note_on_c, 8, 49, 33
12, 114250, Note_on_c, 8, 49, 0
12, 114252, Note_on_c, 8, 49, 32
12, 114262, Note_on_c, 8, 49, 0
12, 114264, Note_on_c, 8, 49, 35
12, 114274, Note_on_c, 8, 49, 0
12, 114276, Note_on_c, 8, 49, 30
12, 114286, Note_on_c, 8, 49, 0
12, 114288, Note_on_c, 8, 49, 24
12, 114298, Note_on_c, 8, 49, 0
12, 114300, Note_on_c, 8, 49, 28
12, 114310, Note_on_c, 8, 49, 0
12, 114312, Note_on_c, 8, 49, 26
12, 114322, Note_on_c, 8, 49, 0
12, 114324, Note_on_c, 8, 49, 23
12, 114334, Note_on_c, 8, 49, 0
12, 114336, Note_on_c, 8, 49, 17
12, 114430, Note_on_c, 8, 49, 0
12, 114430, End_track
13, 0, Start_track
13, 0, Title_t, "Piatti"
13, 0, MIDI_port, 0
13, 59520, Note_on_c, 9, 57, 44
13, 59680, Note_on_c, 9, 57, 0
13, 60096, Note_on_c, 9, 57, 40
13, 60256, Note_on_c, 9, 57, 0
13, 60672, Note_on_c, 9, 57, 28
13, 60766, Note_on_c, 9, 57, 0
13, 60960, Note_on_c, 9, 57, 15
13, 61054, Note_on_c, 9, 57, 0
13, 68064, Note_on_c, 9, 57, 30
13, 68158, Note_on_c, 9, 57, 0
13, 74400, Note_on_c, 9, 57, 42
13, 74494, Note_on_c, 9, 57, 0
13, 74976, Note_on_c, 9, 57, 40
13, 75070, Note_on_c, 9, 57, 0
13, 75552, Note_on_c, 9, 57, 46
13, 75646, Note_on_c, 9, 57, 0
13, 76128, Note_on_c, 9, 57, 44
13, 76222, Note_on_c, 9, 57, 0
13, 91008, Note_on_c, 9, 57, 25
13, 91456, Note_on_c, 9, 57, 0
13, 93312, Note_on_c, 9, 57, 27
13, 93760, Note_on_c, 9, 57, 0
13, 108000, Note_on_c, 9, 57, 23
13, 108010, Note_on_c, 9, 57, 0
13, 108012, Note_on_c, 9, 57, 24
13, 108022, Note_on_c, 9, 57, 0
13, 108024, Note_on_c, 9, 57, 18
13, 108034, Note_on_c, 9, 57, 0
13, 108036, Note_on_c, 9, 57, 21
13, 108046, Note_on_c, 9, 57, 0
13, 108048, Note_on_c, 9, 57, 25
13, 108058, Note_on_c, 9, 57, 0
13, 108060, Note_on_c, 9, 57, 18
13, 108070, Note_on_c, 9, 57, 0
13, 108072, Note_on_c, 9, 57, 23
13, 108082, Note_on_c, 9, 57, 0
13, 108084, Note_on_c, 9, 57, 20
13, 108094, Note_on_c, 9, 57, 0
13, 108096, Note_on_c, 9, 57, 16
13, 108106, Note_on_c, 9, 57, 0
13, 108108, Note_on_c, 9, 57, 23
13, 108118, Note_on_c, 9, 57, 0
13, 108120, Note_on_c, 9, 57, 19
13, 108130, Note_on_c, 9, 57, 0
13, 108132, Note_on_c, 9, 57, 17
13, 108142, Note_on_c, 9, 57, 0
13, 108144, Note_on_c, 9, 57, 24
13, 108154, Note_on_c, 9, 57, 0
13, 108156, Note_on_c, 9, 57, 22
13, 108166, Note_on_c, 9, 57, 0
13, 108168, Note_on_c, 9, 57, 18
13, 108178, Note_on_c, 9, 57, 0
13, 108180, Note_on_c, 9, 57, 20
13, 108190, Note_on_c, 9, 57, 0
13, 108192, Note_on_c, 9, 57, 20
13, 108202, Note_on_c, 9, 57, 0
13, 108204, Note_on_c, 9, 57, 23
13, 108214, Note_on_c, 9, 57, 0
13, 108216, Note_on_c, 9, 57, 15
13, 108226, Note_on_c, 9, 57, 0
13, 108228, Note_on_c, 9, 57, 22
13, 108238, Note_on_c, 9, 57, 0
13, 108240, Note_on_c, 9, 57, 25
13, 108250, Note_on_c, 9, 57, 0
13, 108252, Note_on_c, 9, 57, 20
13, 108262, Note_on_c, 9, 57, 0
13, 108264, Note_on_c, 9, 57, 16
13, 108274, Note_on_c, 9, 57, 0
13, 108276, Note_on_c, 9, 57, 23
13, 108286, Note_on_c, 9, 57, 0
13, 108288, Note_on_c, 9, 57, 22
13, 108298, Note_on_c, 9, 57, 0
13, 108300, Note_on_c, 9, 57, 25
13, 108310, Note_on_c, 9, 57, 0
13, 108312, Note_on_c, 9, 57, 23
13, 108322, Note_on_c, 9, 57, 0
13, 108324, Note_on_c, 9, 57, 23
13, 108334, Note_on_c, 9, 57, 0
13, 108336, Note_on_c, 9, 57, 24
13, 108346, Note_on_c, 9, 57, 0
13, 108348, Note_on_c, 9, 57, 24
13, 108358, Note_on_c, 9, 57, 0
13, 108360, Note_on_c, 9, 57, 22
13, 108370, Note_on_c, 9, 57, 0
13, 108372, Note_on_c, 9, 57, 24
13, 108382, Note_on_c, 9, 57, 0
13, 108384, Note_on_c, 9, 57, 23
13, 108394, Note_on_c, 9, 57, 0
13, 108396, Note_on_c, 9, 57, 15
13, 108406, Note_on_c, 9, 57, 0
13, 108408, Note_on_c, 9, 57, 23
13, 108418, Note_on_c, 9, 57, 0
13, 108420, Note_on_c, 9, 57, 17
13, 108430, Note_on_c, 9, 57, 0
13, 108432, Note_on_c, 9, 57, 18
13, 108442, Note_on_c, 9, 57, 0
13, 108444, Note_on_c, 9, 57, 22
13, 108454, Note_on_c, 9, 57, 0
13, 108456, Note_on_c, 9, 57, 25
13, 108466, Note_on_c, 9, 57, 0
13, 108468, Note_on_c, 9, 57, 16
13, 108478, Note_on_c, 9, 57, 0
13, 108480, Note_on_c, 9, 57, 18
13, 108490, Note_on_c, 9, 57, 0
13, 108492, Note_on_c, 9, 57, 19
13, 108502, Note_on_c, 9, 57, 0
13, 108504, Note_on_c, 9, 57, 21
13, 108514, Note_on_c, 9, 57, 0
13, 108516, Note_on_c, 9, 57, 16
13, 108526, Note_on_c, 9, 57, 0
13, 108528, Note_on_c, 9, 57, 17
13, 108538, Note_on_c, 9, 57, 0
13, 108540, Note_on_c, 9, 57, 24
13, 108550, Note_on_c, 9, 57, 0
13, 108552, Note_on_c, 9, 57, 17
13, 108562, Note_on_c, 9, 57, 0
13, 108564, Note_on_c, 9, 57, 22
13, 108574, Note_on_c, 9, 57, 0
13, 108576, Note_on_c, 9, 57, 15
13, 108586, Note_on_c, 9, 57, 0
13, 108588, Note_on_c, 9, 57, 23
13, 108598, Note_on_c, 9, 57, 0
13, 108600, Note_on_c, 9, 57, 22
13, 108610, Note_on_c, 9, 57, 0
13, 108612, Note_on_c, 9, 57, 17
13, 108622, Note_on_c, 9, 57, 0
13, 108624, Note_on_c, 9, 57, 25
13, 108634, Note_on_c, 9, 57, 0
13, 108636, Note_on_c, 9, 57, 24
13, 108646, Note_on_c, 9, 57, 0
13, 108648, Note_on_c, 9, 57, 18
13, 108658, Note_on_c, 9, 57, 0
13, 108660, Note_on_c, 9, 57, 17
13, 108670, Note_on_c, 9, 57, 0
13, 108672, Note_on_c, 9, 57, 23
13, 108682, Note_on_c, 9, 57, 0
13, 108684, Note_on_c, 9, 57, 21
13, 108694, Note_on_c, 9, 57, 0
13, 108696, Note_on_c, 9, 57, 25
13, 108706, Note_on_c, 9, 57, 0
13, 108708, Note_on_c, 9, 57, 16
13, 108718, Note_on_c, 9, 57, 0
13, 108720, Note_on_c, 9, 57, 24
13, 108730, Note_on_c, 9, 57, 0
13, 108732, Note_on_c, 9, 57, 25
13, 108742, Note_on_c, 9, 57, 0
13, 108744, Note_on_c, 9, 57, 23
13, 108754, Note_on_c, 9, 57, 0
13, 108756, Note_on_c, 9, 57, 17
13, 108766, Note_on_c, 9, 57, 0
13, 108768, Note_on_c, 9, 57, 23
13, 108778, Note_on_c, 9, 57, 0
13, 108780, Note_on_c, 9, 57, 21
13, 108790, Note_on_c, 9, 57, 0
13, 108792, Note_on_c, 9, 57, 15
13, 108802, Note_on_c, 9, 57, 0
13, 108804, Note_on_c, 9, 57, 25
13, 108814, Note_on_c, 9, 57, 0
13, 108816, Note_on_c, 9, 57, 22
13, 108826, Note_on_c, 9, 57, 0
13, 108828, Note_on_c, 9, 57, 15
13, 108838, Note_on_c, 9, 57, 0
13, 108840, Note_on_c, 9, 57, 20
13, 108850, Note_on_c, 9, 57, 0
13, 108852, Note_on_c, 9, 57, 22
13, 108862, Note_on_c, 9, 57, 0
13, 108864, Note_on_c, 9, 57, 19
13, 108874, Note_on_c, 9, 57, 0
13, 108876, Note_on_c, 9, 57, 21
13, 108886, Note_on_c, 9, 57, 0
13, 108888, Note_on_c, 9, 57, 21
13, 108898, Note_on_c, 9, 57, 0
13, 108900, Note_on_c, 9, 57, 22
13, 108910, Note_on_c, 9, 57, 0
13, 108912, Note_on_c, 9, 57, 16
13, 108922, Note_on_c, 9, 57, 0
13, 108924, Note_on_c, 9, 57, 25
13, 108934, Note_on_c, 9, 57, 0
13, 108936, Note_on_c, 9, 57, 17
13, 108946, Note_on_c, 9, 57, 0
13, 108948, Note_on_c, 9, 57, 17
13, 108958, Note_on_c, 9, 57, 0
13, 108960, Note_on_c, 9, 57, 17
13, 108970, Note_on_c, 9, 57, 0
13, 108972, Note_on_c, 9, 57, 23
13, 108982, Note_on_c, 9, 57, 0
13, 108984, Note_on_c, 9, 57, 23
13, 108994, Note_on_c, 9, 57, 0
13, 108996, Note_on_c, 9, 57, 21
13, 109006, Note_on_c, 9, 57, 0
13, 109008, Note_on_c, 9, 57, 25
13, 109018, Note_on_c, 9, 57, 0
13, 109020, Note_on_c, 9, 57, 15
13, 109030, Note_on_c, 9, 57, 0
13, 109032, Note_on_c, 9, 57, 21
13, 109042, Note_on_c, 9, 57, 0
13, 109044, Note_on_c, 9, 57, 22
13, 109054, Note_on_c, 9, 57, 0
13, 109056, Note_on_c, 9, 57, 21
13, 109066, Note_on_c, 9, 57, 0
13, 109068, Note_on_c, 9, 57, 25
13, 109078, Note_on_c, 9, 57, 0
13, 109080, Note_on_c, 9, 57, 25
13, 109090, Note_on_c, 9, 57, 0
13, 109092, Note_on_c, 9, 57, 25
13, 109102, Note_on_c, 9, 57, 0
13, 109104, Note_on_c, 9, 57, 22
13, 109114, Note_on_c, 9, 57, 0
13, 109116, Note_on_c, 9, 57, 24
13, 109126, Note_on_c, 9, 57, 0
13, 109128, Note_on_c, 9, 57, 17
13, 109138, Note_on_c, 9, 57, 0
13, 109140, Note_on_c, 9, 57, 15
13, 109150, Note_on_c, 9, 57, 0
13, 109152, Note_on_c, 9, 57, 18
13, 109162, Note_on_c, 9, 57, 0
13, 109164, Note_on_c, 9, 57, 19
13, 109174, Note_on_c, 9, 57, 0
13, 109176, Note_on_c, 9, 57, 15
13, 109186, Note_on_c, 9, 57, 0
13, 109188, Note_on_c, 9, 57, 19
13, 109198, Note_on_c, 9, 57, 0
13, 109200, Note_on_c, 9, 57, 25
13, 109210, Note_on_c, 9, 57, 0
13, 109212, Note_on_c, 9, 57, 15
13, 109222, Note_on_c, 9, 57, 0
13, 109224, Note_on_c, 9, 57, 16
13, 109234, Note_on_c, 9, 57, 0
13, 109236, Note_on_c, 9, 57, 20
13, 109246, Note_on_c, 9, 57, 0
13, 109248, Note_on_c, 9, 57, 25
13, 109258, Note_on_c, 9, 57, 0
13, 109260, Note_on_c, 9, 57, 24
13, 109270, Note_on_c, 9, 57, 0
13, 109272, Note_on_c, 9, 57, 20
13, 109282, Note_on_c, 9, 57, 0
13, 109284, Note_on_c, 9, 57, 21
13, 109294, Note_on_c, 9, 57, 0
13, 109296, Note_on_c, 9, 57, 22
13, 109306, Note_on_c, 9, 57, 0
13, 109308, Note_on_c, 9, 57, 19
13, 109318, Note_on_c, 9, 57, 0
13, 109320, Note_on_c, 9, 57, 24
13, 109330, Note_on_c, 9, 57, 0
13, 109332, Note_on_c, 9, 57, 20
13, 109342, Note_on_c, 9, 57, 0
13, 109344, Note_on_c, 9, 57, 21
13, 109354, Note_on_c, 9, 57, 0
13, 109356, Note_on_c, 9, 57, 16
13, 109366, Note_on_c, 9, 57, 0
13, 109368, Note_on_c, 9, 57, 19
13, 109378, Note_on_c, 9, 57, 0
13, 109380, Note_on_c, 9, 57, 15
13, 109390, Note_on_c, 9, 57, 0
13, 109392, Note_on_c, 9, 57, 19
13, 109402, Note_on_c, 9, 57, 0
13, 109404, Note_on_c, 9, 57, 18
13, 109414, Note_on_c, 9, 57, 0
13, 109416, Note_on_c, 9, 57, 17
13, 109426, Note_on_c, 9, 57, 0
13, 109428, Note_on_c, 9, 57, 23
13, 109438, Note_on_c, 9, 57, 0
13, 109440, Note_on_c, 9, 57, 16
13, 109450, Note_on_c, 9, 57, 0
13, 109452, Note_on_c, 9, 57, 21
13, 109462, Note_on_c, 9, 57, 0
13, 109464, Note_on_c, 9, 57, 19
13, 109474, Note_on_c, 9, 57, 0
13, 109476, Note_on_c, 9, 57, 19
13, 109486, Note_on_c, 9, 57, 0
13, 109488, Note_on_c, 9, 57, 25
13, 109498, Note_on_c, 9, 57, 0
13, 109500, Note_on_c, 9, 57, 20
13, 109510, Note_on_c, 9, 57, 0
13, 109512, Note_on_c, 9, 57, 25
13, 109522, Note_on_c, 9, 57, 0
13, 109524, Note_on_c, 9, 57, 21
13, 109534, Note_on_c, 9, 57, 0
13, 109536, Note_on_c, 9, 57, 24
13, 109546, Note_on_c, 9, 57, 0
13, 109548, Note_on_c, 9, 57, 17
13, 109558, Note_on_c, 9, 57, 0
13, 109560, Note_on_c, 9, 57, 23
13, 109570, Note_on_c, 9, 57, 0
13, 109572, Note_on_c, 9, 57, 15
13, 109582, Note_on_c, 9, 57, 0
13, 109584, Note_on_c, 9, 57, 18
13, 109594, Note_on_c, 9, 57, 0
13, 109596, Note_on_c, 9, 57, 17
13, 109606, Note_on_c, 9, 57, 0
13, 109608, Note_on_c, 9, 57, 23
13, 109618, Note_on_c, 9, 57, 0
13, 109620, Note_on_c, 9, 57, 23
13, 109630, Note_on_c, 9, 57, 0
13, 109632, Note_on_c, 9, 57, 21
13, 109642, Note_on_c, 9, 57, 0
13, 109644, Note_on_c, 9, 57, 16
13, 109654, Note_on_c, 9, 57, 0
13, 109656, Note_on_c, 9, 57, 21
13, 109666, Note_on_c, 9, 57, 0
13, 109668, Note_on_c, 9, 57, 24
13, 109678, Note_on_c, 9, 57, 0
13, 109680, Note_on_c, 9, 57, 21
13, 109690, Note_on_c, 9, 57, 0
13, 109692, Note_on_c, 9, 57, 23
13, 109702, Note_on_c, 9, 57, 0
13, 109704, Note_on_c, 9, 57, 19
13, 109714, Note_on_c, 9, 57, 0
13, 109716, Note_on_c, 9, 57, 19
13, 109726, Note_on_c, 9, 57, 0
13, 109728, Note_on_c, 9, 57, 16
13, 109738, Note_on_c, 9, 57, 0
13, 109740, Note_on_c, 9, 57, 18
13, 109750, Note_on_c, 9, 57, 0
13, 109752, Note_on_c, 9, 57, 23
13, 109762, Note_on_c, 9, 57, 0
13, 109764, Note_on_c, 9, 57, 19
13, 109774, Note_on_c, 9, 57, 0
13, 109776, Note_on_c, 9, 57, 15
13, 109786, Note_on_c, 9, 57, 0
13, 109788, Note_on_c, 9, 57, 18
13, 109798, Note_on_c, 9, 57, 0
13, 109800, Note_on_c, 9, 57, 19
13, 109810, Note_on_c, 9, 57, 0
13, 109812, Note_on_c, 9, 57, 15
13, 109822, Note_on_c, 9, 57, 0
13, 109824, Note_on_c, 9, 57, 17
13, 109834, Note_on_c, 9, 57, 0
13, 109836, Note_on_c, 9, 57, 23
13, 109846, Note_on_c, 9, 57, 0
13, 109848, Note_on_c, 9, 57, 18
13, 109858, Note_on_c, 9, 57, 0
13, 109860, Note_on_c, 9, 57, 18
13, 109870, Note_on_c, 9, 57, 0
13, 109872, Note_on_c, 9, 57, 23
13, 109882, Note_on_c, 9, 57, 0
13, 109884, Note_on_c, 9, 57, 21
13, 109894, Note_on_c, 9, 57, 0
13, 109896, Note_on_c, 9, 57, 21
13, 109906, Note_on_c, 9, 57, 0
13, 109908, Note_on_c, 9, 57, 18
13, 109918, Note_on_c, 9, 57, 0
13, 109920, Note_on_c, 9, 57, 15
13, 109930, Note_on_c, 9, 57, 0
13, 109932, Note_on_c, 9, 57, 18
13, 109942, Note_on_c, 9, 57, 0
13, 109944, Note_on_c, 9, 57, 21
13, 109954, Note_on_c, 9, 57, 0
13, 109956, Note_on_c, 9, 57, 20
13, 109966, Note_on_c, 9, 57, 0
13, 109968, Note_on_c, 9, 57, 15
13, 109978, Note_on_c, 9, 57, 0
13, 109980, Note_on_c, 9, 57, 25
13, 109990, Note_on_c, 9, 57, 0
13, 109992, Note_on_c, 9, 57, 20
13, 110002, Note_on_c, 9, 57, 0
13, 110004, Note_on_c, 9, 57, 18
13, 110014, Note_on_c, 9, 57, 0
13, 110016, Note_on_c, 9, 57, 24
13, 110026, Note_on_c, 9, 57, 0
13, 110028, Note_on_c, 9, 57, 18
13, 110038, Note_on_c, 9, 57, 0
13, 110040, Note_on_c, 9, 57, 20
13, 110050, Note_on_c, 9, 57, 0
13, 110052, Note_on_c, 9, 57, 18
13, 110062, Note_on_c, 9, 57, 0
13, 110064, Note_on_c, 9, 57, 15
13, 110074, Note_on_c, 9, 57, 0
13, 110076, Note_on_c, 9, 57, 23
13, 110086, Note_on_c, 9, 57, 0
13, 110088, Note_on_c, 9, 57, 15
13, 110098, Note_on_c, 9, 57, 0
13, 110100, Note_on_c, 9, 57, 19
13, 110110, Note_on_c, 9, 57, 0
13, 110112, Note_on_c, 9, 57, 22
13, 110122, Note_on_c, 9, 57, 0
13, 110124, Note_on_c, 9, 57, 15
13, 110134, Note_on_c, 9, 57, 0
13, 110136, Note_on_c, 9, 57, 21
13, 110146, Note_on_c, 9, 57, 0
13, 110148, Note_on_c, 9, 57, 24
13, 110158, Note_on_c, 9, 57, 0
13, 110160, Note_on_c, 9, 57, 21
13, 110170, Note_on_c, 9, 57, 0
13, 110172, Note_on_c, 9, 57, 24
13, 110182, Note_on_c, 9, 57, 0
13, 110184, Note_on_c, 9, 57, 16
13, 110194, Note_on_c, 9, 57, 0
13, 110196, Note_on_c, 9, 57, 18
13, 110206, Note_on_c, 9, 57, 0
13, 110208, Note_on_c, 9, 57, 24
13, 110218, Note_on_c, 9, 57, 0
13, 110220, Note_on_c, 9, 57, 18
13, 110230, Note_on_c, 9, 57, 0
13, 110232, Note_on_c, 9, 57, 25
13, 110242, Note_on_c, 9, 57, 0
13, 110244, Note_on_c, 9, 57, 20
13, 110254, Note_on_c, 9, 57, 0
13, 110256, Note_on_c, 9, 57, 18
13, 110266, Note_on_c, 9, 57, 0
13, 110268, Note_on_c, 9, 57, 20
13, 110278, Note_on_c, 9, 57, 0
13, 110280, Note_on_c, 9, 57, 24
13, 110290, Note_on_c, 9, 57, 0
13, 110292, Note_on_c, 9, 57, 20
13, 110302, Note_on_c, 9, 57, 0
13, 110304, Note_on_c, 9, 57, 92
13, 110464, Note_on_c, 9, 57, 0
13, 110976, Note_on_c, 9, 57, 95
13, 110986, Note_on_c, 9, 57, 0
13, 110988, Note_on_c, 9, 57, 89
13, 110998, Note_on_c, 9, 57, 0
13, 111000, Note_on_c, 9, 57, 90
13, 111010, Note_on_c, 9, 57, 0
13, 111012, Note_on_c, 9, 57, 88
13, 111022, Note_on_c, 9, 57, 0
13, 111024, Note_on_c, 9, 57, 97
13, 111034, Note_on_c, 9, 57, 0
13, 111036, Note_on_c, 9, 57, 91
13, 111046, Note_on_c, 9, 57, 0
13, 111048, Note_on_c, 9, 57, 87
13, 111058, Note_on_c, 9, 57, 0
13, 111060, Note_on_c, 9, 57, 92
13, 111070, Note_on_c, 9, 57, 0
13, 111072, Note_on_c, 9, 57, 96
13, 111166, Note_on_c, 9, 57, 0
13, 111744, Note_on_c, 9, 57, 97
13, 111754, Note_on_c, 9, 57, 0
13, 111756, Note_on_c, 9, 57, 97
13, 111766, Note_on_c, 9, 57, 0
13, 111768, Note_on_c, 9, 57, 88
13, 111778, Note_on_c, 9, 57, 0
13, 111780, Note_on_c, 9, 57, 91
13, 111790, Note_on_c, 9, 57, 0
13, 111792, Note_on_c, 9, 57, 93
13, 111802, Note_on_c, 9, 57, 0
13, 111804, Note_on_c, 9, 57, 87
13, 111814, Note_on_c, 9, 57, 0
13, 111816, Note_on_c, 9, 57, 91
13, 111826, Note_on_c, 9, 57, 0
13, 111828, Note_on_c, 9, 57, 89
13, 111838, Note_on_c, 9, 57, 0
13, 111840, Note_on_c, 9, 57, 92
13, 112000, Note_on_c, 9, 57, 0
13, 112224, Note_on_c, 9, 57, 90
13, 112234, Note_on_c, 9, 57, 0
13, 112236, Note_on_c, 9, 57, 96
13, 112246, Note_on_c, 9, 57, 0
13, 112248, Note_on_c, 9, 57, 89
13, 112258, Note_on_c, 9, 57, 0
13, 112260, Note_on_c, 9, 57, 89
13, 112270, Note_on_c, 9, 57, 0
13, 112272, Note_on_c, 9, 57, 97
13, 112282, Note_on_c, 9, 57, 0
13, 112284, Note_on_c, 9, 57, 95
13, 112294, Note_on_c, 9, 57, 0
13, 112296, Note_on_c, 9, 57, 95
13, 112306, Note_on_c, 9, 57, 0
13, 112308, Note_on_c, 9, 57, 96
13, 112318, Note_on_c, 9, 57, 0
13, 112320, Note_on_c, 9, 57, 96
13, 112330, Note_on_c, 9, 57, 0
13, 112332, Note_on_c, 9, 57, 96
13, 112342, Note_on_c, 9, 57, 0
13, 112344, Note_on_c, 9, 57, 91
13, 112354, Note_on_c, 9, 57, 0
13, 112356, Note_on_c, 9, 57, 87
13, 112366, Note_on_c, 9, 57, 0
13, 112368, Note_on_c, 9, 57, 91
13, 112378, Note_on_c, 9, 57, 0
13, 112380, Note_on_c, 9, 57, 89
13, 112390, Note_on_c, 9, 57, 0
13, 112392, Note_on_c, 9, 57, 91
13, 112402, Note_on_c, 9, 57, 0
13, 112404, Note_on_c, 9, 57, 96
13, 112414, Note_on_c, 9, 57, 0
13, 112608, Note_on_c, 9, 57, 111
13, 112618, Note_on_c, 9, 57, 0
13, 112620, Note_on_c, 9, 57, 105
13, 112630, Note_on_c, 9, 57, 0
13, 112632, Note_on_c, 9, 57, 103
13, 112642, Note_on_c, 9, 57, 0
13, 112644, Note_on_c, 9, 57, 103
13, 112654, Note_on_c, 9, 57, 0
13, 112656, Note_on_c, 9, 57, 108
13, 112666, Note_on_c, 9, 57, 0
13, 112668, Note_on_c, 9, 57, 109
13, 112678, Note_on_c, 9, 57, 0
13, 112680, Note_on_c, 9, 57, 104
13, 112690, Note_on_c, 9, 57, 0
13, 112692, Note_on_c, 9, 57, 109
13, 112702, Note_on_c, 9, 57, 0
13, 112704, Note_on_c, 9, 57, 109
13, 112714, Note_on_c, 9, 57, 0
13, 112716, Note_on_c, 9, 57, 105
13, 112726, Note_on_c, 9, 57, 0
13, 112728, Note_on_c, 9, 57, 113
13, 112738, Note_on_c, 9, 57, 0
13, 112740, Note_on_c, 9, 57, 112
13, 112750, Note_on_c, 9, 57, 0
13, 112752, Note_on_c, 9, 57, 112
13, 112762, Note_on_c, 9, 57, 0
13, 112764, Note_on_c, 9, 57, 105
13, 112774, Note_on_c, 9, 57, 0
13, 112776, Note_on_c, 9, 57, 104
13, 112786, Note_on_c, 9, 57, 0
13, 112788, Note_on_c, 9, 57, 113
13, 112798, Note_on_c, 9, 57, 0
13, 112800, Note_on_c, 9, 57, 111
13, 112810, Note_on_c, 9, 57, 0
13, 112812, Note_on_c, 9, 57, 109
13, 112822, Note_on_c, 9, 57, 0
13, 112824, Note_on_c, 9, 57, 105
13, 112834, Note_on_c, 9, 57, 0
13, 112836, Note_on_c, 9, 57, 103
13, 112846, Note_on_c, 9, 57, 0
13, 112848, Note_on_c, 9, 57, 109
13, 112858, Note_on_c, 9, 57, 0
13, 112860, Note_on_c, 9, 57, 108
13, 112870, Note_on_c, 9, 57, 0
13, 112872, Note_on_c, 9, 57, 109
13, 112882, Note_on_c, 9, 57, 0
13, 112884, Note_on_c, 9, 57, 105
13, 112894, Note_on_c, 9, 57, 0
13, 112896, Note_on_c, 9, 57, 105
13, 112906, Note_on_c, 9, 57, 0
13, 112908, Note_on_c, 9, 57, 109
13, 112918, Note_on_c, 9, 57, 0
13, 112920, Note_on_c, 9, 57, 103
13, 112930, Note_on_c, 9, 57, 0
13, 112932, Note_on_c, 9, 57, 106
13, 112942, Note_on_c, 9, 57, 0
13, 112944, Note_on_c, 9, 57, 106
13, 112954, Note_on_c, 9, 57, 0
13, 112956, Note_on_c, 9, 57, 113
13, 112966, Note_on_c, 9, 57, 0
13, 112968, Note_on_c, 9, 57, 111
13, 112978, Note_on_c, 9, 57, 0
13, 112980, Note_on_c, 9, 57, 113
13, 112990, Note_on_c, 9, 57, 0
13, 113376, Control_c, 9, 11, 92
13, 113376, Note_on_c, 9, 57, 107
13, 113381, Control_c, 9, 11, 93
13, 113386, Note_on_c, 9, 57, 0
13, 113386, Control_c, 9, 11, 94
13, 113388, Note_on_c, 9, 57, 109
13, 113392, Control_c, 9, 11, 95
13, 113397, Control_c, 9, 11, 96
13, 113398, Note_on_c, 9, 57, 0
13, 113400, Note_on_c, 9, 57, 109
13, 113403, Control_c, 9, 11, 97
13, 113408, Control_c, 9, 11, 98
13, 113410, Note_on_c, 9, 57, 0
13, 113412, Note_on_c, 9, 57, 113
13, 113414, Control_c, 9, 11, 99
13, 113419, Control_c, 9, 11, 100
13, 113422, Note_on_c, 9, 57, 0
13, 113424, Note_on_c, 9, 57, 111
13, 113425, Control_c, 9, 11, 101
13, 113430, Control_c, 9, 11, 102
13, 113434, Note_on_c, 9, 57, 0
13, 113436, Control_c, 9, 11, 103
13, 113436, Note_on_c, 9, 57, 109
13, 113441, Control_c, 9, 11, 104
13, 113446, Note_on_c, 9, 57, 0
13, 113447, Control_c, 9, 11, 105
13, 113448, Note_on_c, 9, 57, 113
13, 113452, Control_c, 9, 11, 106
13, 113458, Note_on_c, 9, 57, 0
13, 113458, Control_c, 9, 11, 107
13, 113460, Note_on_c, 9, 57, 113
13, 113463, Control_c, 9, 11, 108
13, 113469, Control_c, 9, 11, 109
13, 113470, Note_on_c, 9, 57, 0
13, 113472, Note_on_c, 9, 57, 112
13, 113474, Control_c, 9, 11, 110
13, 113480, Control_c, 9, 11, 111
13, 113482, Note_on_c, 9, 57, 0
13, 113484, Note_on_c, 9, 57, 109
13, 113485, Control_c, 9, 11, 112
13, 113491, Control_c, 9, 11, 113
13, 113494, Note_on_c, 9, 57, 0
13, 113496, Control_c, 9, 11, 114
13, 113496, Note_on_c, 9, 57, 103
13, 113502, Control_c, 9, 11, 115
13, 113506, Note_on_c, 9, 57, 0
13, 113507, Control_c, 9, 11, 116
13, 113508, Note_on_c, 9, 57, 111
13, 113513, Control_c, 9, 11, 117
13, 113518, Note_on_c, 9, 57, 0
13, 113518, Control_c, 9, 11, 118
13, 113520, Note_on_c, 9, 57, 110
13, 113524, Control_c, 9, 11, 119
13, 113529, Control_c, 9, 11, 120
13, 113530, Note_on_c, 9, 57, 0
13, 113532, Note_on_c, 9, 57, 108
13, 113535, Control_c, 9, 11, 121
13, 113540, Control_c, 9, 11, 122
13, 113542, Note_on_c, 9, 57, 0
13, 113544, Note_on_c, 9, 57, 104
13, 113546, Control_c, 9, 11, 123
13, 113551, Control_c, 9, 11, 124
13, 113554, Note_on_c, 9, 57, 0
13, 113556, Note_on_c, 9, 57, 109
13, 113557, Control_c, 9, 11, 125
13, 113562, Control_c, 9, 11, 126
13, 113566, Note_on_c, 9, 57, 0
13, 113568, Control_c, 9, 11, 127
13, 113568, Note_on_c, 9, 57, 103
13, 113575, Control_c, 9, 11, 126
13, 113578, Note_on_c, 9, 57, 0
13, 113580, Note_on_c, 9, 57, 113
13, 113583, Control_c, 9, 11, 125
13, 113590, Note_on_c, 9, 57, 0
13, 113590, Control_c, 9, 11, 124
13, 113592, Note_on_c, 9, 57, 112
13, 113598, Control_c, 9, 11, 123
13, 113602, Note_on_c, 9, 57, 0
13, 113604, Note_on_c, 9, 57, 108
13, 113605, Control_c, 9, 11, 122
13, 113613, Control_c, 9, 11, 121
13, 113614, Note_on_c, 9, 57, 0
13, 113616, Note_on_c, 9, 57, 109
13, 113620, Control_c, 9, 11, 120
13, 113626, Note_on_c, 9, 57, 0
13, 113628, Control_c, 9, 11, 119
13, 113628, Note_on_c, 9, 57, 103
13, 113636, Control_c, 9, 11, 118
13, 113638, Note_on_c, 9, 57, 0
13, 113640, Note_on_c, 9, 57, 110
13, 113643, Control_c, 9, 11, 117
13, 113650, Note_on_c, 9, 57, 0
13, 113651, Control_c, 9, 11, 116
13, 113652, Note_on_c, 9, 57, 103
13, 113658, Control_c, 9, 11, 115
13, 113662, Note_on_c, 9, 57, 0
13, 113664, Note_on_c, 9, 57, 105
13, 113666, Control_c, 9, 11, 114
13, 113673, Control_c, 9, 11, 113
13, 113674, Note_on_c, 9, 57, 0
13, 113676, Note_on_c, 9, 57, 103
13, 113681, Control_c, 9, 11, 112
13, 113686, Note_on_c, 9, 57, 0
13, 113688, Control_c, 9, 11, 111
13, 113688, Note_on_c, 9, 57, 103
13, 113696, Control_c, 9, 11, 110
13, 113698, Note_on_c, 9, 57, 0
13, 113700, Note_on_c, 9, 57, 112
13, 113704, Control_c, 9, 11, 109
13, 113710, Note_on_c, 9, 57, 0
13, 113711, Control_c, 9, 11, 108
13, 113712, Note_on_c, 9, 57, 110
13, 113719, Control_c, 9, 11, 107
13, 113722, Note_on_c, 9, 57, 0
13, 113724, Note_on_c, 9, 57, 112
13, 113726, Control_c, 9, 11, 106
13, 113734, Note_on_c, 9, 57, 0
13, 113734, Control_c, 9, 11, 105
13, 113736, Note_on_c, 9, 57, 113
13, 113741, Control_c, 9, 11, 104
13, 113746, Note_on_c, 9, 57, 0
13, 113748, Note_on_c, 9, 57, 104
13, 113749, Control_c, 9, 11, 103
13, 113756, Control_c, 9, 11, 102
13, 113758, Note_on_c, 9, 57, 0
13, 113760, Note_on_c, 9, 57, 111
13, 113764, Control_c, 9, 11, 101
13, 113770, Note_on_c, 9, 57, 0
13, 113772, Control_c, 9, 11, 100
13, 113772, Note_on_c, 9, 57, 112
13, 113779, Control_c, 9, 11, 99
13, 113782, Note_on_c, 9, 57, 0
13, 113784, Note_on_c, 9, 57, 111
13, 113787, Control_c, 9, 11, 98
13, 113794, Note_on_c, 9, 57, 0
13, 113794, Control_c, 9, 11, 97
13, 113796, Note_on_c, 9, 57, 111
13, 113802, Control_c, 9, 11, 96
13, 113806, Note_on_c, 9, 57, 0
13, 113808, Note_on_c, 9, 57, 106
13, 113809, Control_c, 9, 11, 95
13, 113817, Control_c, 9, 11, 94
13, 113818, Note_on_c, 9, 57, 0
13, 113820, Note_on_c, 9, 57, 113
13, 113825, Control_c, 9, 11, 93
13, 113830, Note_on_c, 9, 57, 0
13, 113832, Control_c, 9, 11, 92
13, 113832, Note_on_c, 9, 57, 103
13, 113840, Control_c, 9, 11, 91
13, 113842, Note_on_c, 9, 57, 0
13, 113844, Note_on_c, 9, 57, 113
13, 113847, Control_c, 9, 11, 90
13, 113854, Note_on_c, 9, 57, 0
13, 113855, Control_c, 9, 11, 89
13, 113856, Note_on_c, 9, 57, 111
13, 113862, Control_c, 9, 11, 88
13, 113866, Note_on_c, 9, 57, 0
13, 113868, Note_on_c, 9, 57, 110
13, 113870, Control_c, 9, 11, 87
13, 113877, Control_c, 9, 11, 86
13, 113878, Note_on_c, 9, 57, 0
13, 113880, Note_on_c, 9, 57, 112
13, 113885, Control_c, 9, 11, 85
13, 113890, Note_on_c, 9, 57, 0
13, 113892, Note_on_c, 9, 57, 108
13, 113893, Control_c, 9, 11, 84
13, 113900, Control_c, 9, 11, 83
13, 113902, Note_on_c, 9, 57, 0
13, 113904, Note_on_c, 9, 57, 107
13, 113908, Control_c, 9, 11, 82
13, 113914, Note_on_c, 9, 57, 0
13, 113915, Control_c, 9, 11, 81
13, 113916, Note_on_c, 9, 57, 106
13, 113923, Control_c, 9, 11, 80
13, 113926, Note_on_c, 9, 57, 0
13, 113928, Note_on_c, 9, 57, 110
13, 113930, Control_c, 9, 11, 79
13, 113938, Note_on_c, 9, 57, 0
13, 113938, Control_c, 9, 11, 78
13, 113940, Note_on_c, 9, 57, 106
13, 113945, Control_c, 9, 11, 77
13, 113950, Note_on_c, 9, 57, 0
13, 113952, Note_on_c, 9, 57, 104
13, 113953, Control_c, 9, 11, 76
13, 113961, Control_c, 9, 11, 75
13, 113962, Note_on_c, 9, 57, 0
13, 113964, Note_on_c, 9, 57, 103
13, 113968, Control_c, 9, 11, 74
13, 113974, Note_on_c, 9, 57, 0
13, 113976, Control_c, 9, 11, 73
13, 113976, Note_on_c, 9, 57, 109
13, 113983, Control_c, 9, 11, 72
13, 113986, Note_on_c, 9, 57, 0
13, 113988, Note_on_c, 9, 57, 111
13, 113991, Control_c, 9, 11, 71
13, 113998, Note_on_c, 9, 57, 0
13, 113998, Control_c, 9, 11, 70
13, 114000, Note_on_c, 9, 57, 110
13, 114006, Control_c, 9, 11, 69
13, 114010, Note_on_c, 9, 57, 0
13, 114012, Note_on_c, 9, 57, 112
13, 114013, Control_c, 9, 11, 68
13, 114021, Control_c, 9, 11, 67
13, 114022, Note_on_c, 9, 57, 0
13, 114024, Note_on_c, 9, 57, 105
13, 114029, Control_c, 9, 11, 66
13, 114034, Note_on_c, 9, 57, 0
13, 114036, Control_c, 9, 11, 65
13, 114036, Note_on_c, 9, 57, 105
13, 114044, Control_c, 9, 11, 64
13, 114046, Note_on_c, 9, 57, 0
13, 114048, Note_on_c, 9, 57, 113
13, 114051, Control_c, 9, 11, 63
13, 114058, Note_on_c, 9, 57, 0
13, 114059, Control_c, 9, 11, 62
13, 114060, Note_on_c, 9, 57, 109
13, 114066, Control_c, 9, 11, 61
13, 114070, Note_on_c, 9, 57, 0
13, 114072, Note_on_c, 9, 57, 110
13, 114074, Control_c, 9, 11, 60
13, 114082, Note_on_c, 9, 57, 0
13, 114082, Control_c, 9, 11, 59
13, 114084, Note_on_c, 9, 57, 109
13, 114089, Control_c, 9, 11, 58
13, 114094, Note_on_c, 9, 57, 0
13, 114096, Note_on_c, 9, 57, 108
13, 114097, Control_c, 9, 11, 57
13, 114104, Control_c, 9, 11, 56
13, 114106, Note_on_c, 9, 57, 0
13, 114108, Note_on_c, 9, 57, 112
13, 114112, Control_c, 9, 11, 55
13, 114118, Note_on_c, 9, 57, 0
13, 114119, Control_c, 9, 11, 54
13, 114120, Note_on_c, 9, 57, 105
13, 114127, Control_c, 9, 11, 53
13, 114130, Note_on_c, 9, 57, 0
13, 114132, Note_on_c, 9, 57, 110
13, 114134, Control_c, 9, 11, 52
13, 114142, Note_on_c, 9, 57, 0
13, 114142, Control_c, 9, 11, 51
13, 114144, Note_on_c, 9, 57, 113
13, 114150, Control_c, 9, 11, 50
13, 114154, Note_on_c, 9, 57, 0
13, 114156, Note_on_c, 9, 57, 109
13, 114157, Control_c, 9, 11, 49
13, 114165, Control_c, 9, 11, 48
13, 114166, Note_on_c, 9, 57, 0
13, 114168, Note_on_c, 9, 57, 105
13, 114172, Control_c, 9, 11, 47
13, 114178, Note_on_c, 9, 57, 0
13, 114180, Control_c, 9, 11, 46
13, 114180, Note_on_c, 9, 57, 108
13, 114187, Control_c, 9, 11, 45
13, 114190, Note_on_c, 9, 57, 0
13, 114192, Note_on_c, 9, 57, 104
13, 114195, Control_c, 9, 11, 44
13, 114202, Note_on_c, 9, 57, 0
13, 114202, Control_c, 9, 11, 43
13, 114204, Note_on_c, 9, 57, 109
13, 114210, Control_c, 9, 11, 42
13, 114214, Note_on_c, 9, 57, 0
13, 114216, Note_on_c, 9, 57, 110
13, 114218, Control_c, 9, 11, 41
13, 114225, Control_c, 9, 11, 40
13, 114226, Note_on_c, 9, 57, 0
13, 114228, Note_on_c, 9, 57, 113
13, 114233, Control_c, 9, 11, 39
13, 114238, Note_on_c, 9, 57, 0
13, 114240, Control_c, 9, 11, 38
13, 114240, Note_on_c, 9, 57, 112
13, 114248, Control_c, 9, 11, 37
13, 114250, Note_on_c, 9, 57, 0
13, 114252, Note_on_c, 9, 57, 103
13, 114255, Control_c, 9, 11, 36
13, 114262, Note_on_c, 9, 57, 0
13, 114263, Control_c, 9, 11, 35
13, 114264, Note_on_c, 9, 57, 111
13, 114270, Control_c, 9, 11, 34
13, 114274, Note_on_c, 9, 57, 0
13, 114276, Note_on_c, 9, 57, 110
13, 114278, Control_c, 9, 11, 33
13, 114286, Note_on_c, 9, 57, 0
13, 114286, Control_c, 9, 11, 32
13, 114288, Note_on_c, 9, 57, 103
13, 114293, Control_c, 9, 11, 31
13, 114298, Note_on_c, 9, 57, 0
13, 114300, Note_on_c, 9, 57, 106
13, 114301, Control_c, 9, 11, 30
13, 114308, Control_c, 9, 11, 29
13, 114310, Note_on_c, 9, 57, 0
13, 114312, Note_on_c, 9, 57, 111
13, 114316, Control_c, 9, 11, 28
13, 114322, Note_on_c, 9, 57, 0
13, 114323, Control_c, 9, 11, 27
13, 114324, Note_on_c, 9, 57, 106
13, 114331, Control_c, 9, 11, 26
13, 114334, Note_on_c, 9, 57, 0
13, 114336, Note_on_c, 9, 57, 113
13, 114339, Control_c, 9, 11, 25
13, 114346, Note_on_c, 9, 57, 0
13, 114346, Control_c, 9, 11, 24
13, 114348, Note_on_c, 9, 57, 113
13, 114354, Control_c, 9, 11, 23
13, 114358, Note_on_c, 9, 57, 0
13, 114360, Note_on_c, 9, 57, 107
13, 114361, Control_c, 9, 11, 22
13, 114369, Control_c, 9, 11, 21
13, 114370, Note_on_c, 9, 57, 0
13, 114372, Note_on_c, 9, 57, 113
13, 114376, Control_c, 9, 11, 20
13, 114382, Note_on_c, 9, 57, 0
13, 114384, Control_c, 9, 11, 19
13, 114384, Note_on_c, 9, 57, 104
13, 114391, Control_c, 9, 11, 18
13, 114394, Note_on_c, 9, 57, 0
13, 114396, Note_on_c, 9, 57, 104
13, 114399, Control_c, 9, 11, 17
13, 114406, Note_on_c, 9, 57, 0
13, 114407, Control_c, 9, 11, 16
13, 114408, Note_on_c, 9, 57, 104
13, 114414, Control_c, 9, 11, 15
13, 114418, Note_on_c, 9, 57, 0
13, 114420, Note_on_c, 9, 57, 112
13, 114422, Control_c, 9, 11, 14
13, 114429, Control_c, 9, 11, 13
13, 114430, Note_on_c, 9, 57, 0
13, 114432, Note_on_c, 9, 57, 111
13, 114437, Control_c, 9, 11, 12
13, 114442, Note_on_c, 9, 57, 0
13, 114444, Control_c, 9, 11, 11
13, 114444, Note_on_c, 9, 57, 112
13, 114452, Control_c, 9, 11, 10
13, 114454, Note_on_c, 9, 57, 0
13, 114456, Note_on_c, 9, 57, 112
13, 114459, Control_c, 9, 11, 9
13, 114466, Note_on_c, 9, 57, 0
13, 114467, Control_c, 9, 11, 8
13, 114468, Note_on_c, 9, 57, 105
13, 114475, Control_c, 9, 11, 7
13, 114478, Note_on_c, 9, 57, 0
13, 114480, Note_on_c, 9, 57, 103
13, 114482, Control_c, 9, 11, 6
13, 114490, Note_on_c, 9, 57, 0
13, 114490, Control_c, 9, 11, 5
13, 114492, Note_on_c, 9, 57, 107
13, 114497, Control_c, 9, 11, 4
13, 114502, Note_on_c, 9, 57, 0
13, 114504, Note_on_c, 9, 57, 112
13, 114505, Control_c, 9, 11, 3
13, 114512, Control_c, 9, 11, 2
13, 114514, Note_on_c, 9, 57, 0
13, 114516, Note_on_c, 9, 57, 103
13, 114520, Control_c, 9, 11, 1
13, 114526, Note_on_c, 9, 57, 0
13, 114528, Control_c, 9, 11, 0
13, 114528, End_track
14, 0, Start_track
14, 0, Title_t, "Tam tam"
14, 0, MIDI_port, 0
14, 131, Control_c, 9, 0, 127
14, 132, Control_c, 9, 32, 0
14, 133, Program_c, 9, 48
14, 134, Control_c, 9, 7, 127
14, 135, Control_c, 9, 91, 127
14, 136, Control_c, 9, 99, 22
14, 137, Control_c, 9, 98, 52
14, 138, Control_c, 9, 6, 0
14, 139, Control_c, 9, 99, 23
14, 140, Control_c, 9, 98, 52
14, 141, Control_c, 9, 6, 48
14, 142, Control_c, 9, 99, 24
14, 143, Control_c, 9, 98, 52
14, 144, Control_c, 9, 6, 57
14, 145, Control_c, 9, 99, 22
14, 146, Control_c, 9, 98, 57
14, 147, Control_c, 9, 6, 0
14, 148, Control_c, 9, 99, 23
14, 149, Control_c, 9, 98, 57
14, 150, Control_c, 9, 6, 48
14, 151, Control_c, 9, 99, 24
14, 152, Control_c, 9, 98, 57
14, 153, Control_c, 9, 6, 61
14, 154, Control_c, 9, 101, 127
14, 155, Control_c, 9, 100, 127
14, 110688, Note_on_c, 9, 52, 59
14, 110848, Note_on_c, 9, 52, 0
14, 111456, Note_on_c, 9, 52, 62
14, 111616, Note_on_c, 9, 52, 0
14, 112032, Note_on_c, 9, 52, 110
14, 112192, Note_on_c, 9, 52, 0
14, 112416, Note_on_c, 9, 52, 103
14, 112576, Note_on_c, 9, 52, 0
14, 113376, Note_on_c, 9, 52, 108
14, 114096, Note_on_c, 9, 52, 0
14, 116256, Control_c, 9, 7, 127
14, 116256, End_track
15, 0, Start_track
15, 0, Title_t, "Arpe I - II"
15, 0, MIDI_port, 0
15, 157, Control_c, 10, 0, 0
15, 158, Control_c, 10, 32, 0
15, 159, Program_c, 10, 46
15, 160, Control_c, 10, 7, 127
15, 161, Control_c, 10, 91, 64
15, 3456, Note_on_c, 10, 42, 30
15, 3456, Note_on_c, 10, 54, 33
15, 3648, Note_on_c, 10, 54, 30
15, 3648, Note_on_c, 10, 42, 26
15, 4032, Note_on_c, 10, 42, 0
15, 4032, Note_on_c, 10, 54, 0
15, 4032, Note_on_c, 10, 54, 0
15, 4032, Note_on_c, 10, 42, 0
15, 4032, Note_on_c, 10, 44, 25
15, 4032, Note_on_c, 10, 56, 30
15, 4224, Note_on_c, 10, 56, 29
15, 4224, Note_on_c, 10, 44, 31
15, 4608, Note_on_c, 10, 44, 0
15, 4608, Note_on_c, 10, 56, 0
15, 4608, Note_on_c, 10, 56, 0
15, 4608, Note_on_c, 10, 44, 0
15, 4608, Note_on_c, 10, 54, 26
15, 4608, Note_on_c, 10, 42, 30
15, 4800, Note_on_c, 10, 54, 28
15, 4800, Note_on_c, 10, 42, 33
15, 5184, Note_on_c, 10, 54, 0
15, 5184, Note_on_c, 10, 42, 0
15, 5184, Note_on_c, 10, 54, 0
15, 5184, Note_on_c, 10, 42, 0
15, 5184, Note_on_c, 10, 44, 33
15, 5184, Note_on_c, 10, 56, 33
15, 5376, Note_on_c, 10, 56, 32
15, 5376, Note_on_c, 10, 44, 25
15, 5760, Note_on_c, 10, 44, 0
15, 5760, Note_on_c, 10, 56, 0
15, 5760, Note_on_c, 10, 56, 0
15, 5760, Note_on_c, 10, 44, 0
15, 5760, Note_on_c, 10, 42, 25
15, 5760, Note_on_c, 10, 54, 29
15, 5952, Note_on_c, 10, 42, 27
15, 5952, Note_on_c, 10, 54, 35
15, 6336, Note_on_c, 10, 42, 0
15, 6336, Note_on_c, 10, 54, 0
15, 6336, Note_on_c, 10, 42, 0
15, 6336, Note_on_c, 10, 54, 0
15, 6336, Note_on_c, 10, 44, 25
15, 6336, Note_on_c, 10, 56, 33
15, 6528, Note_on_c, 10, 44, 32
15, 6528, Note_on_c, 10, 56, 33
15, 6912, Note_on_c, 10, 44, 0
15, 6912, Note_on_c, 10, 56, 0
15, 6912, Note_on_c, 10, 44, 0
15, 6912, Note_on_c, 10, 56, 0
15, 6912, Note_on_c, 10, 42, 32
15, 6912, Note_on_c, 10, 54, 26
15, 7104, Note_on_c, 10, 42, 27
15, 7104, Note_on_c, 10, 54, 25
15, 7488, Note_on_c, 10, 42, 0
15, 7488, Note_on_c, 10, 54, 0
15, 7488, Note_on_c, 10, 42, 0
15, 7488, Note_on_c, 10, 54, 0
15, 7488, Note_on_c, 10, 56, 32
15, 7488, Note_on_c, 10, 44, 28
15, 7680, Note_on_c, 10, 44, 26
15, 7680, Note_on_c, 10, 56, 33
15, 8064, Note_on_c, 10, 56, 0
15, 8064, Note_on_c, 10, 44, 0
15, 8064, Note_on_c, 10, 44, 0
15, 8064, Note_on_c, 10, 56, 0
15, 21120, Note_on_c, 10, 47, 26
15, 21120, Note_on_c, 10, 35, 33
15, 21264, Note_on_c, 10, 35, 27
15, 21264, Note_on_c, 10, 47, 26
15, 21408, Note_on_c, 10, 47, 0
15, 21408, Note_on_c, 10, 35, 0
15, 21408, Note_on_c, 10, 33, 28
15, 21408, Note_on_c, 10, 45, 30
15, 21552, Note_on_c, 10, 35, 0
15, 21552, Note_on_c, 10, 47, 0
15, 21552, Note_on_c, 10, 45, 30
15, 21552, Note_on_c, 10, 33, 32
15, 21696, Note_on_c, 10, 33, 0
15, 21696, Note_on_c, 10, 45, 0
15, 21696, Note_on_c, 10, 35, 30
15, 21696, Note_on_c, 10, 47, 31
15, 21840, Note_on_c, 10, 45, 0
15, 21840, Note_on_c, 10, 33, 0
15, 21840, Note_on_c, 10, 47, 31
15, 21840, Note_on_c, 10, 35, 25
15, 21984, Note_on_c, 10, 35, 0
15, 21984, Note_on_c, 10, 47, 0
15, 21984, Note_on_c, 10, 45, 29
15, 21984, Note_on_c, 10, 33, 34
15, 22128, Note_on_c, 10, 47, 0
15, 22128, Note_on_c, 10, 35, 0
15, 22128, Note_on_c, 10, 45, 29
15, 22128, Note_on_c, 10, 33, 30
15, 22272, Note_on_c, 10, 45, 0
15, 22272, Note_on_c, 10, 33, 0
15, 22272, Note_on_c, 10, 47, 33
15, 22272, Note_on_c, 10, 35, 30
15, 22416, Note_on_c, 10, 45, 0
15, 22416, Note_on_c, 10, 33, 0
15, 22416, Note_on_c, 10, 47, 33
15, 22416, Note_on_c, 10, 35, 25
15, 22560, Note_on_c, 10, 47, 0
15, 22560, Note_on_c, 10, 35, 0
15, 22560, Note_on_c, 10, 33, 27
15, 22560, Note_on_c, 10, 45, 28
15, 22704, Note_on_c, 10, 47, 0
15, 22704, Note_on_c, 10, 35, 0
15, 22704, Note_on_c, 10, 45, 28
15, 22704, Note_on_c, 10, 33, 35
15, 22848, Note_on_c, 10, 33, 0
15, 22848, Note_on_c, 10, 45, 0
15, 22848, Note_on_c, 10, 47, 40
15, 22848, Note_on_c, 10, 35, 44
15, 22992, Note_on_c, 10, 45, 0
15, 22992, Note_on_c, 10, 33, 0
15, 22992, Note_on_c, 10, 47, 40
15, 22992, Note_on_c, 10, 35, 41
15, 23136, Note_on_c, 10, 47, 0
15, 23136, Note_on_c, 10, 35, 0
15, 23136, Note_on_c, 10, 45, 62
15, 23136, Note_on_c, 10, 33, 64
15, 23280, Note_on_c, 10, 47, 0
15, 23280, Note_on_c, 10, 35, 0
15, 23280, Note_on_c, 10, 45, 62
15, 23280, Note_on_c, 10, 33, 56
15, 23392, Note_on_c, 10, 45, 0
15, 23422, Note_on_c, 10, 45, 0
15, 23424, Note_on_c, 10, 33, 0
15, 23424, Note_on_c, 10, 33, 0
15, 23424, Note_on_c, 10, 47, 27
15, 23424, Note_on_c, 10, 35, 34
15, 23568, Note_on_c, 10, 47, 27
15, 23568, Note_on_c, 10, 35, 26
15, 23712, Note_on_c, 10, 47, 0
15, 23712, Note_on_c, 10, 35, 0
15, 23712, Note_on_c, 10, 33, 34
15, 23712, Note_on_c, 10, 45, 35
15, 23856, Note_on_c, 10, 47, 0
15, 23856, Note_on_c, 10, 35, 0
15, 23856, Note_on_c, 10, 45, 35
15, 23856, Note_on_c, 10, 33, 35
15, 24000, Note_on_c, 10, 33, 0
15, 24000, Note_on_c, 10, 45, 0
15, 24000, Note_on_c, 10, 35, 34
15, 24000, Note_on_c, 10, 47, 32
15, 24144, Note_on_c, 10, 45, 0
15, 24144, Note_on_c, 10, 33, 0
15, 24144, Note_on_c, 10, 47, 32
15, 24144, Note_on_c, 10, 35, 27
15, 24288, Note_on_c, 10, 35, 0
15, 24288, Note_on_c, 10, 47, 0
15, 24288, Note_on_c, 10, 45, 33
15, 24288, Note_on_c, 10, 33, 29
15, 24432, Note_on_c, 10, 47, 0
15, 24432, Note_on_c, 10, 35, 0
15, 24432, Note_on_c, 10, 45, 33
15, 24432, Note_on_c, 10, 33, 33
15, 24576, Note_on_c, 10, 45, 0
15, 24576, Note_on_c, 10, 33, 0
15, 24576, Note_on_c, 10, 47, 27
15, 24576, Note_on_c, 10, 35, 26
15, 24720, Note_on_c, 10, 45, 0
15, 24720, Note_on_c, 10, 33, 0
15, 24720, Note_on_c, 10, 35, 28
15, 24720, Note_on_c, 10, 47, 27
15, 24864, Note_on_c, 10, 47, 0
15, 24864, Note_on_c, 10, 35, 0
15, 24864, Note_on_c, 10, 33, 34
15, 24864, Note_on_c, 10, 45, 25
15, 25008, Note_on_c, 10, 35, 0
15, 25008, Note_on_c, 10, 47, 0
15, 25008, Note_on_c, 10, 33, 34
15, 25008, Note_on_c, 10, 45, 25
15, 25152, Note_on_c, 10, 33, 0
15, 25152, Note_on_c, 10, 45, 0
15, 25152, Note_on_c, 10, 35, 45
15, 25152, Note_on_c, 10, 47, 41
15, 25296, Note_on_c, 10, 33, 0
15, 25296, Note_on_c, 10, 45, 0
15, 25296, Note_on_c, 10, 47, 41
15, 25296, Note_on_c, 10, 35, 49
15, 25440, Note_on_c, 10, 35, 0
15, 25440, Note_on_c, 10, 47, 0
15, 25440, Note_on_c, 10, 45, 63
15, 25440, Note_on_c, 10, 33, 55
15, 25584, Note_on_c, 10, 47, 0
15, 25584, Note_on_c, 10, 35, 0
15, 25584, Note_on_c, 10, 45, 63
15, 25584, Note_on_c, 10, 33, 58
15, 25696, Note_on_c, 10, 45, 0
15, 25726, Note_on_c, 10, 45, 0
15, 25728, Note_on_c, 10, 33, 0
15, 25728, Note_on_c, 10, 33, 0
15, 25728, Note_on_c, 10, 61, 47
15, 25728, Note_on_c, 10, 49, 42
15, 25728, Note_on_c, 10, 47, 42
15, 25728, Note_on_c, 10, 35, 50
15, 25920, Note_on_c, 10, 61, 0
15, 25920, Note_on_c, 10, 49, 0
15, 25920, Note_on_c, 10, 66, 40
15, 25920, Note_on_c, 10, 54, 50
15, 26016, Note_on_c, 10, 47, 0
15, 26016, Note_on_c, 10, 35, 0
15, 26016, Note_on_c, 10, 45, 47
15, 26016, Note_on_c, 10, 33, 44
15, 26112, Note_on_c, 10, 66, 0
15, 26112, Note_on_c, 10, 54, 0
15, 26112, Note_on_c, 10, 68, 52
15, 26112, Note_on_c, 10, 56, 40
15, 26304, Note_on_c, 10, 45, 0
15, 26304, Note_on_c, 10, 33, 0
15, 26304, Note_on_c, 10, 68, 0
15, 26304, Note_on_c, 10, 56, 0
15, 26304, Note_on_c, 10, 35, 50
15, 26304, Note_on_c, 10, 59, 60
15, 26304, Note_on_c, 10, 47, 41
15, 26304, Note_on_c, 10, 71, 54
15, 26496, Note_on_c, 10, 59, 0
15, 26496, Note_on_c, 10, 71, 0
15, 26496, Note_on_c, 10, 61, 61
15, 26496, Note_on_c, 10, 73, 72
15, 26592, Note_on_c, 10, 35, 0
15, 26592, Note_on_c, 10, 47, 0
15, 26592, Note_on_c, 10, 33, 51
15, 26592, Note_on_c, 10, 45, 47
15, 26688, Note_on_c, 10, 61, 0
15, 26688, Note_on_c, 10, 73, 0
15, 26688, Note_on_c, 10, 78, 71
15, 26688, Note_on_c, 10, 66, 70
15, 26848, Note_on_c, 10, 45, 0
15, 26848, Note_on_c, 10, 78, 0
15, 26880, Note_on_c, 10, 33, 0
15, 26880, Note_on_c, 10, 66, 0
15, 26880, Note_on_c, 10, 35, 45
15, 26880, Note_on_c, 10, 47, 44
15, 27168, Note_on_c, 10, 35, 0
15, 27168, Note_on_c, 10, 47, 0
15, 27168, Note_on_c, 10, 45, 56
15, 27168, Note_on_c, 10, 33, 49
15, 27456, Note_on_c, 10, 45, 0
15, 27456, Note_on_c, 10, 33, 0
15, 27456, Note_on_c, 10, 35, 56
15, 27456, Note_on_c, 10, 47, 49
15, 27744, Note_on_c, 10, 35, 0
15, 27744, Note_on_c, 10, 47, 0
15, 27744, Note_on_c, 10, 45, 51
15, 27744, Note_on_c, 10, 33, 56
15, 28000, Note_on_c, 10, 45, 0
15, 28032, Note_on_c, 10, 33, 0
15, 28032, Note_on_c, 10, 35, 53
15, 28032, Note_on_c, 10, 49, 40
15, 28032, Note_on_c, 10, 47, 53
15, 28032, Note_on_c, 10, 61, 41
15, 28224, Note_on_c, 10, 49, 0
15, 28224, Note_on_c, 10, 61, 0
15, 28224, Note_on_c, 10, 66, 41
15, 28224, Note_on_c, 10, 54, 45
15, 28320, Note_on_c, 10, 35, 0
15, 28320, Note_on_c, 10, 47, 0
15, 28320, Note_on_c, 10, 33, 58
15, 28320, Note_on_c, 10, 45, 64
15, 28416, Note_on_c, 10, 66, 0
15, 28416, Note_on_c, 10, 54, 0
15, 28416, Note_on_c, 10, 56, 41
15, 28416, Note_on_c, 10, 68, 57
15, 28608, Note_on_c, 10, 33, 0
15, 28608, Note_on_c, 10, 45, 0
15, 28608, Note_on_c, 10, 56, 0
15, 28608, Note_on_c, 10, 68, 0
15, 28608, Note_on_c, 10, 59, 52
15, 28608, Note_on_c, 10, 71, 56
15, 28608, Note_on_c, 10, 47, 58
15, 28608, Note_on_c, 10, 35, 61
15, 28800, Note_on_c, 10, 59, 0
15, 28800, Note_on_c, 10, 71, 0
15, 28800, Note_on_c, 10, 61, 63
15, 28800, Note_on_c, 10, 73, 70
15, 28896, Note_on_c, 10, 47, 0
15, 28896, Note_on_c, 10, 35, 0
15, 28896, Note_on_c, 10, 45, 66
15, 28896, Note_on_c, 10, 33, 66
15, 28992, Note_on_c, 10, 61, 0
15, 28992, Note_on_c, 10, 73, 0
15, 28992, Note_on_c, 10, 78, 73
15, 28992, Note_on_c, 10, 66, 70
15, 29152, Note_on_c, 10, 45, 0
15, 29152, Note_on_c, 10, 78, 0
15, 29184, Note_on_c, 10, 33, 0
15, 29184, Note_on_c, 10, 66, 0
15, 29184, Note_on_c, 10, 47, 63
15, 29184, Note_on_c, 10, 35, 62
15, 29472, Note_on_c, 10, 47, 0
15, 29472, Note_on_c, 10, 35, 0
15, 29472, Note_on_c, 10, 33, 66
15, 29472, Note_on_c, 10, 45, 71
15, 29760, Note_on_c, 10, 33, 0
15, 29760, Note_on_c, 10, 45, 0
15, 29760, Note_on_c, 10, 35, 70
15, 29760, Note_on_c, 10, 47, 73
15, 30048, Note_on_c, 10, 35, 0
15, 30048, Note_on_c, 10, 47, 0
15, 30048, Note_on_c, 10, 45, 69
15, 30048, Note_on_c, 10, 33, 75
15, 30304, Note_on_c, 10, 45, 0
15, 30336, Note_on_c, 10, 33, 0
15, 30336, Note_on_c, 10, 68, 96
15, 30336, Note_on_c, 10, 56, 89
15, 30432, Note_on_c, 10, 68, 0
15, 30432, Note_on_c, 10, 56, 0
15, 30432, Note_on_c, 10, 61, 96
15, 30432, Note_on_c, 10, 49, 95
15, 30528, Note_on_c, 10, 44, 80
15, 30528, Note_on_c, 10, 32, 76
15, 30624, Note_on_c, 10, 44, 0
15, 30624, Note_on_c, 10, 32, 0
15, 30624, Note_on_c, 10, 25, 70
15, 30624, Note_on_c, 10, 37, 70
15, 30718, Note_on_c, 10, 61, 0
15, 30720, Note_on_c, 10, 49, 0
15, 30880, Note_on_c, 10, 37, 0
15, 30912, Note_on_c, 10, 25, 0
15, 31200, Note_on_c, 10, 44, 40
15, 31248, Note_on_c, 10, 44, 0
15, 31248, Note_on_c, 10, 37, 50
15, 31488, Note_on_c, 10, 37, 0
15, 31488, Note_on_c, 10, 44, 32
15, 31488, Note_on_c, 10, 63, 28
15, 31534, Note_on_c, 10, 63, 0
15, 31536, Note_on_c, 10, 44, 0
15, 31536, Note_on_c, 10, 37, 27
15, 31536, Note_on_c, 10, 61, 35
15, 31582, Note_on_c, 10, 61, 0
15, 31584, Note_on_c, 10, 56, 25
15, 31630, Note_on_c, 10, 56, 0
15, 31632, Note_on_c, 10, 61, 35
15, 31678, Note_on_c, 10, 61, 0
15, 31680, Note_on_c, 10, 63, 26
15, 31726, Note_on_c, 10, 63, 0
15, 31728, Note_on_c, 10, 61, 25
15, 31774, Note_on_c, 10, 61, 0
15, 31776, Note_on_c, 10, 37, 0
15, 31776, Note_on_c, 10, 56, 25
15, 31776, Note_on_c, 10, 44, 25
15, 31822, Note_on_c, 10, 56, 0
15, 31824, Note_on_c, 10, 44, 0
15, 31824, Note_on_c, 10, 37, 27
15, 31824, Note_on_c, 10, 61, 30
15, 31870, Note_on_c, 10, 61, 0
15, 31872, Note_on_c, 10, 63, 26
15, 31918, Note_on_c, 10, 63, 0
15, 31920, Note_on_c, 10, 61, 27
15, 31966, Note_on_c, 10, 61, 0
15, 31968, Note_on_c, 10, 56, 28
15, 32014, Note_on_c, 10, 56, 0
15, 32016, Note_on_c, 10, 61, 25
15, 32040, Note_on_c, 10, 82, 80
15, 32040, Note_on_c, 10, 70, 70
15, 32052, Note_on_c, 10, 87, 71
15, 32062, Note_on_c, 10, 61, 0
15, 32064, Note_on_c, 10, 37, 0
15, 32064, Note_on_c, 10, 44, 73
15, 32064, Note_on_c, 10, 94, 70
15, 32064, Note_on_c, 10, 75, 73
15, 32064, Note_on_c, 10, 63, 72
15, 32110, Note_on_c, 10, 63, 0
15, 32112, Note_on_c, 10, 44, 0
15, 32112, Note_on_c, 10, 61, 78
15, 32112, Note_on_c, 10, 37, 73
15, 32134, Note_on_c, 10, 82, 0
15, 32134, Note_on_c, 10, 87, 0
15, 32134, Note_on_c, 10, 94, 0
15, 32136, Note_on_c, 10, 70, 0
15, 32136, Note_on_c, 10, 75, 0
15, 32136, Note_on_c, 10, 68, 70
15, 32136, Note_on_c, 10, 80, 70
15, 32148, Note_on_c, 10, 85, 75
15, 32158, Note_on_c, 10, 61, 0
15, 32160, Note_on_c, 10, 73, 80
15, 32160, Note_on_c, 10, 92, 71
15, 32160, Note_on_c, 10, 56, 66
15, 32206, Note_on_c, 10, 56, 0
15, 32208, Note_on_c, 10, 61, 72
15, 32230, Note_on_c, 10, 80, 0
15, 32230, Note_on_c, 10, 85, 0
15, 32230, Note_on_c, 10, 92, 0
15, 32232, Note_on_c, 10, 68, 0
15, 32232, Note_on_c, 10, 73, 0
15, 32232, Note_on_c, 10, 75, 72
15, 32232, Note_on_c, 10, 63, 72
15, 32244, Note_on_c, 10, 80, 73
15, 32254, Note_on_c, 10, 61, 0
15, 32256, Note_on_c, 10, 68, 72
15, 32256, Note_on_c, 10, 63, 65
15, 32256, Note_on_c, 10, 87, 70
15, 32302, Note_on_c, 10, 63, 0
15, 32304, Note_on_c, 10, 61, 56
15, 32326, Note_on_c, 10, 75, 0
15, 32326, Note_on_c, 10, 80, 0
15, 32326, Note_on_c, 10, 87, 0
15, 32328, Note_on_c, 10, 68, 0
15, 32328, Note_on_c, 10, 63, 0
15, 32328, Note_on_c, 10, 70, 72
15, 32328, Note_on_c, 10, 58, 75
15, 32340, Note_on_c, 10, 75, 77
15, 32350, Note_on_c, 10, 61, 0
15, 32352, Note_on_c, 10, 37, 0
15, 32352, Note_on_c, 10, 56, 50
15, 32352, Note_on_c, 10, 44, 53
15, 32352, Note_on_c, 10, 63, 76
15, 32352, Note_on_c, 10, 82, 68
15, 32398, Note_on_c, 10, 56, 0
15, 32400, Note_on_c, 10, 44, 0
15, 32400, Note_on_c, 10, 61, 48
15, 32400, Note_on_c, 10, 37, 53
15, 32422, Note_on_c, 10, 70, 0
15, 32422, Note_on_c, 10, 75, 0
15, 32422, Note_on_c, 10, 82, 0
15, 32424, Note_on_c, 10, 58, 0
15, 32424, Note_on_c, 10, 63, 0
15, 32424, Note_on_c, 10, 68, 66
15, 32424, Note_on_c, 10, 56, 57
15, 32436, Note_on_c, 10, 73, 61
15, 32446, Note_on_c, 10, 61, 0
15, 32448, Note_on_c, 10, 63, 45
15, 32448, Note_on_c, 10, 61, 58
15, 32448, Note_on_c, 10, 80, 54
15, 32494, Note_on_c, 10, 63, 0
15, 32496, Note_on_c, 10, 61, 41
15, 32518, Note_on_c, 10, 68, 0
15, 32518, Note_on_c, 10, 73, 0
15, 32518, Note_on_c, 10, 80, 0
15, 32520, Note_on_c, 10, 56, 0
15, 32520, Note_on_c, 10, 61, 0
15, 32520, Note_on_c, 10, 63, 40
15, 32520, Note_on_c, 10, 51, 49
15, 32532, Note_on_c, 10, 68, 42
15, 32542, Note_on_c, 10, 61, 0
15, 32544, Note_on_c, 10, 75, 43
15, 32544, Note_on_c, 10, 56, 50
15, 32544, Note_on_c, 10, 56, 37
15, 32590, Note_on_c, 10, 56, 0
15, 32592, Note_on_c, 10, 61, 37
15, 32638, Note_on_c, 10, 63, 0
15, 32638, Note_on_c, 10, 68, 0
15, 32638, Note_on_c, 10, 75, 0
15, 32638, Note_on_c, 10, 61, 0
15, 32640, Note_on_c, 10, 37, 0
15, 32640, Note_on_c, 10, 51, 0
15, 32640, Note_on_c, 10, 56, 0
15, 32640, Note_on_c, 10, 56, 27
15, 32734, Note_on_c, 10, 56, 0
15, 32736, Note_on_c, 10, 53, 31
15, 32830, Note_on_c, 10, 53, 0
15, 32832, Note_on_c, 10, 46, 35
15, 32926, Note_on_c, 10, 46, 0
15, 32928, Note_on_c, 10, 44, 27
15, 32928, Note_on_c, 10, 56, 34
15, 32976, Note_on_c, 10, 44, 0
15, 32976, Note_on_c, 10, 37, 31
15, 33022, Note_on_c, 10, 56, 0
15, 33024, Note_on_c, 10, 37, 0
15, 33024, Note_on_c, 10, 53, 32
15, 33118, Note_on_c, 10, 53, 0
15, 33120, Note_on_c, 10, 46, 32
15, 33214, Note_on_c, 10, 46, 0
15, 33216, Note_on_c, 10, 56, 34
15, 33216, Note_on_c, 10, 44, 35
15, 33264, Note_on_c, 10, 44, 0
15, 33264, Note_on_c, 10, 37, 34
15, 33310, Note_on_c, 10, 56, 0
15, 33312, Note_on_c, 10, 37, 0
15, 33312, Note_on_c, 10, 53, 35
15, 33406, Note_on_c, 10, 53, 0
15, 33408, Note_on_c, 10, 46, 32
15, 33502, Note_on_c, 10, 46, 0
15, 33504, Note_on_c, 10, 56, 25
15, 33504, Note_on_c, 10, 44, 32
15, 33552, Note_on_c, 10, 44, 0
15, 33552, Note_on_c, 10, 37, 32
15, 33598, Note_on_c, 10, 56, 0
15, 33600, Note_on_c, 10, 37, 0
15, 33600, Note_on_c, 10, 53, 28
15, 33694, Note_on_c, 10, 53, 0
15, 33696, Note_on_c, 10, 46, 35
15, 33790, Note_on_c, 10, 46, 0
15, 33792, Note_on_c, 10, 56, 28
15, 33792, Note_on_c, 10, 44, 34
15, 33840, Note_on_c, 10, 44, 0
15, 33840, Note_on_c, 10, 37, 35
15, 33886, Note_on_c, 10, 56, 0
15, 33888, Note_on_c, 10, 37, 0
15, 33888, Note_on_c, 10, 53, 26
15, 33982, Note_on_c, 10, 53, 0
15, 33984, Note_on_c, 10, 46, 25
15, 34078, Note_on_c, 10, 46, 0
15, 34080, Note_on_c, 10, 56, 30
15, 34080, Note_on_c, 10, 44, 32
15, 34128, Note_on_c, 10, 44, 0
15, 34128, Note_on_c, 10, 37, 25
15, 34174, Note_on_c, 10, 56, 0
15, 34176, Note_on_c, 10, 37, 0
15, 34176, Note_on_c, 10, 53, 25
15, 34270, Note_on_c, 10, 53, 0
15, 34272, Note_on_c, 10, 46, 26
15, 34366, Note_on_c, 10, 46, 0
15, 34368, Note_on_c, 10, 56, 30
15, 34368, Note_on_c, 10, 44, 28
15, 34416, Note_on_c, 10, 44, 0
15, 34416, Note_on_c, 10, 37, 35
15, 34462, Note_on_c, 10, 56, 0
15, 34464, Note_on_c, 10, 37, 0
15, 34464, Note_on_c, 10, 53, 25
15, 34558, Note_on_c, 10, 53, 0
15, 34560, Note_on_c, 10, 46, 31
15, 34654, Note_on_c, 10, 46, 0
15, 34656, Note_on_c, 10, 56, 26
15, 34656, Note_on_c, 10, 44, 28
15, 34704, Note_on_c, 10, 44, 0
15, 34704, Note_on_c, 10, 37, 26
15, 34750, Note_on_c, 10, 56, 0
15, 34752, Note_on_c, 10, 37, 0
15, 34752, Note_on_c, 10, 53, 28
15, 34846, Note_on_c, 10, 53, 0
15, 34848, Note_on_c, 10, 46, 25
15, 34942, Note_on_c, 10, 46, 0
15, 34944, Note_on_c, 10, 53, 33
15, 34944, Note_on_c, 10, 44, 25
15, 34992, Note_on_c, 10, 44, 0
15, 34992, Note_on_c, 10, 37, 30
15, 35038, Note_on_c, 10, 53, 0
15, 35040, Note_on_c, 10, 37, 0
15, 35040, Note_on_c, 10, 46, 27
15, 35134, Note_on_c, 10, 46, 0
15, 35136, Note_on_c, 10, 44, 30
15, 35182, Note_on_c, 10, 44, 0
15, 35184, Note_on_c, 10, 37, 32
15, 35230, Note_on_c, 10, 37, 0
15, 35232, Note_on_c, 10, 46, 26
15, 35326, Note_on_c, 10, 46, 0
15, 35328, Note_on_c, 10, 44, 27
15, 35422, Note_on_c, 10, 44, 0
15, 35424, Note_on_c, 10, 37, 32
15, 35518, Note_on_c, 10, 37, 0
15, 35520, Note_on_c, 10, 44, 25
15, 35616, Note_on_c, 10, 44, 0
15, 35616, Note_on_c, 10, 37, 26
15, 35712, Note_on_c, 10, 37, 0
15, 35712, Note_on_c, 10, 46, 30
15, 35808, Note_on_c, 10, 46, 0
15, 35808, Note_on_c, 10, 44, 25
15, 35904, Note_on_c, 10, 44, 0
15, 35904, Note_on_c, 10, 37, 31
15, 36000, Note_on_c, 10, 37, 0
15, 36000, Note_on_c, 10, 46, 26
15, 36096, Note_on_c, 10, 46, 0
15, 36096, Note_on_c, 10, 44, 43
15, 36096, Note_on_c, 10, 42, 40
15, 36142, Note_on_c, 10, 42, 0
15, 36144, Note_on_c, 10, 44, 0
15, 36144, Note_on_c, 10, 41, 43
15, 36144, Note_on_c, 10, 37, 40
15, 36190, Note_on_c, 10, 41, 0
15, 36192, Note_on_c, 10, 36, 46
15, 36238, Note_on_c, 10, 36, 0
15, 36240, Note_on_c, 10, 41, 45
15, 36286, Note_on_c, 10, 41, 0
15, 36288, Note_on_c, 10, 42, 52
15, 36334, Note_on_c, 10, 42, 0
15, 36336, Note_on_c, 10, 41, 49
15, 36382, Note_on_c, 10, 41, 0
15, 36384, Note_on_c, 10, 37, 0
15, 36384, Note_on_c, 10, 36, 55
15, 36384, Note_on_c, 10, 44, 61
15, 36430, Note_on_c, 10, 36, 0
15, 36432, Note_on_c, 10, 44, 0
15, 36432, Note_on_c, 10, 41, 61
15, 36432, Note_on_c, 10, 37, 57
15, 36478, Note_on_c, 10, 41, 0
15, 36480, Note_on_c, 10, 42, 62
15, 36526, Note_on_c, 10, 42, 0
15, 36528, Note_on_c, 10, 41, 62
15, 36574, Note_on_c, 10, 41, 0
15, 36576, Note_on_c, 10, 36, 69
15, 36622, Note_on_c, 10, 36, 0
15, 36624, Note_on_c, 10, 41, 72
15, 36648, Note_on_c, 10, 70, 80
15, 36648, Note_on_c, 10, 82, 73
15, 36660, Note_on_c, 10, 87, 73
15, 36670, Note_on_c, 10, 41, 0
15, 36672, Note_on_c, 10, 37, 0
15, 36672, Note_on_c, 10, 44, 75
15, 36672, Note_on_c, 10, 75, 77
15, 36672, Note_on_c, 10, 42, 75
15, 36672, Note_on_c, 10, 94, 77
15, 36718, Note_on_c, 10, 42, 0
15, 36720, Note_on_c, 10, 44, 0
15, 36720, Note_on_c, 10, 37, 77
15, 36720, Note_on_c, 10, 41, 72
15, 36742, Note_on_c, 10, 82, 0
15, 36742, Note_on_c, 10, 87, 0
15, 36742, Note_on_c, 10, 94, 0
15, 36744, Note_on_c, 10, 70, 0
15, 36744, Note_on_c, 10, 75, 0
15, 36744, Note_on_c, 10, 68, 72
15, 36744, Note_on_c, 10, 80, 72
15, 36756, Note_on_c, 10, 85, 76
15, 36766, Note_on_c, 10, 41, 0
15, 36768, Note_on_c, 10, 73, 71
15, 36768, Note_on_c, 10, 36, 75
15, 36768, Note_on_c, 10, 92, 80
15, 36814, Note_on_c, 10, 36, 0
15, 36816, Note_on_c, 10, 41, 72
15, 36838, Note_on_c, 10, 80, 0
15, 36838, Note_on_c, 10, 85, 0
15, 36838, Note_on_c, 10, 92, 0
15, 36840, Note_on_c, 10, 68, 0
15, 36840, Note_on_c, 10, 73, 0
15, 36840, Note_on_c, 10, 63, 77
15, 36840, Note_on_c, 10, 75, 79
15, 36852, Note_on_c, 10, 80, 77
15, 36862, Note_on_c, 10, 41, 0
15, 36864, Note_on_c, 10, 87, 77
15, 36864, Note_on_c, 10, 68, 73
15, 36864, Note_on_c, 10, 42, 65
15, 36910, Note_on_c, 10, 42, 0
15, 36912, Note_on_c, 10, 41, 61
15, 36934, Note_on_c, 10, 75, 0
15, 36934, Note_on_c, 10, 80, 0
15, 36934, Note_on_c, 10, 87, 0
15, 36936, Note_on_c, 10, 63, 0
15, 36936, Note_on_c, 10, 68, 0
15, 36936, Note_on_c, 10, 70, 79
15, 36936, Note_on_c, 10, 58, 75
15, 36948, Note_on_c, 10, 75, 79
15, 36958, Note_on_c, 10, 41, 0
15, 36960, Note_on_c, 10, 37, 0
15, 36960, Note_on_c, 10, 44, 58
15, 36960, Note_on_c, 10, 36, 66
15, 36960, Note_on_c, 10, 63, 69
15, 36960, Note_on_c, 10, 82, 75
15, 37006, Note_on_c, 10, 36, 0
15, 37008, Note_on_c, 10, 44, 0
15, 37008, Note_on_c, 10, 41, 58
15, 37008, Note_on_c, 10, 37, 57
15, 37030, Note_on_c, 10, 70, 0
15, 37030, Note_on_c, 10, 75, 0
15, 37030, Note_on_c, 10, 82, 0
15, 37032, Note_on_c, 10, 58, 0
15, 37032, Note_on_c, 10, 63, 0
15, 37032, Note_on_c, 10, 68, 56
15, 37032, Note_on_c, 10, 56, 66
15, 37044, Note_on_c, 10, 73, 57
15, 37054, Note_on_c, 10, 41, 0
15, 37056, Note_on_c, 10, 80, 62
15, 37056, Note_on_c, 10, 42, 62
15, 37056, Note_on_c, 10, 61, 54
15, 37102, Note_on_c, 10, 42, 0
15, 37104, Note_on_c, 10, 41, 58
15, 37126, Note_on_c, 10, 68, 0
15, 37126, Note_on_c, 10, 73, 0
15, 37126, Note_on_c, 10, 80, 0
15, 37128, Note_on_c, 10, 56, 0
15, 37128, Note_on_c, 10, 61, 0
15, 37128, Note_on_c, 10, 63, 43
15, 37128, Note_on_c, 10, 51, 50
15, 37140, Note_on_c, 10, 68, 41
15, 37150, Note_on_c, 10, 41, 0
15, 37152, Note_on_c, 10, 75, 40
15, 37152, Note_on_c, 10, 36, 52
15, 37152, Note_on_c, 10, 56, 43
15, 37198, Note_on_c, 10, 36, 0
15, 37200, Note_on_c, 10, 41, 46
15, 37246, Note_on_c, 10, 63, 0
15, 37246, Note_on_c, 10, 68, 0
15, 37246, Note_on_c, 10, 75, 0
15, 37246, Note_on_c, 10, 41, 0
15, 37248, Note_on_c, 10, 37, 0
15, 37248, Note_on_c, 10, 51, 0
15, 37248, Note_on_c, 10, 56, 0
15, 37248, Note_on_c, 10, 37, 41
15, 37248, Note_on_c, 10, 53, 47
15, 37296, Note_on_c, 10, 53, 0
15, 37296, Note_on_c, 10, 46, 40
15, 37344, Note_on_c, 10, 46, 0
15, 37344, Note_on_c, 10, 53, 43
15, 37392, Note_on_c, 10, 53, 0
15, 37392, Note_on_c, 10, 46, 44
15, 37408, Note_on_c, 10, 37, 0
15, 37440, Note_on_c, 10, 46, 0
15, 37440, Note_on_c, 10, 36, 43
15, 37440, Note_on_c, 10, 51, 41
15, 37488, Note_on_c, 10, 51, 0
15, 37488, Note_on_c, 10, 44, 46
15, 37536, Note_on_c, 10, 44, 0
15, 37536, Note_on_c, 10, 51, 40
15, 37584, Note_on_c, 10, 51, 0
15, 37584, Note_on_c, 10, 44, 43
15, 37630, Note_on_c, 10, 36, 0
15, 37632, Note_on_c, 10, 44, 0
15, 37632, Note_on_c, 10, 54, 46
15, 37632, Note_on_c, 10, 39, 44
15, 37680, Note_on_c, 10, 54, 0
15, 37680, Note_on_c, 10, 47, 44
15, 37726, Note_on_c, 10, 39, 0
15, 37728, Note_on_c, 10, 47, 0
15, 37728, Note_on_c, 10, 41, 44
15, 37728, Note_on_c, 10, 56, 41
15, 37776, Note_on_c, 10, 56, 0
15, 37776, Note_on_c, 10, 49, 45
15, 37822, Note_on_c, 10, 41, 0
15, 37824, Note_on_c, 10, 49, 0
15, 37824, Note_on_c, 10, 53, 45
15, 37824, Note_on_c, 10, 37, 43
15, 37872, Note_on_c, 10, 53, 0
15, 37872, Note_on_c, 10, 46, 45
15, 37920, Note_on_c, 10, 46, 0
15, 37920, Note_on_c, 10, 53, 42
15, 37966, Note_on_c, 10, 37, 0
15, 37968, Note_on_c, 10, 53, 0
15, 37968, Note_on_c, 10, 46, 47
15, 37968, Note_on_c, 10, 38, 45
15, 37992, Note_on_c, 10, 41, 48
15, 38016, Note_on_c, 10, 46, 0
15, 38016, Note_on_c, 10, 45, 44
15, 38016, Note_on_c, 10, 50, 46
15, 38064, Note_on_c, 10, 50, 0
15, 38064, Note_on_c, 10, 46, 41
15, 38110, Note_on_c, 10, 38, 0
15, 38110, Note_on_c, 10, 41, 0
15, 38110, Note_on_c, 10, 45, 0
15, 38112, Note_on_c, 10, 46, 0
15, 38112, Note_on_c, 10, 53, 40
15, 38160, Note_on_c, 10, 53, 0
15, 38160, Note_on_c, 10, 46, 48
15, 38208, Note_on_c, 10, 46, 0
15, 38208, Note_on_c, 10, 53, 43
15, 38256, Note_on_c, 10, 53, 0
15, 38256, Note_on_c, 10, 38, 40
15, 38256, Note_on_c, 10, 46, 50
15, 38280, Note_on_c, 10, 41, 41
15, 38304, Note_on_c, 10, 46, 0
15, 38304, Note_on_c, 10, 34, 49
15, 38304, Note_on_c, 10, 50, 49
15, 38352, Note_on_c, 10, 50, 0
15, 38352, Note_on_c, 10, 46, 46
15, 38398, Note_on_c, 10, 38, 0
15, 38398, Note_on_c, 10, 41, 0
15, 38398, Note_on_c, 10, 34, 0
15, 38400, Note_on_c, 10, 46, 0
15, 38400, Note_on_c, 10, 53, 43
15, 38400, Note_on_c, 10, 37, 50
15, 38448, Note_on_c, 10, 53, 0
15, 38448, Note_on_c, 10, 46, 41
15, 38496, Note_on_c, 10, 46, 0
15, 38496, Note_on_c, 10, 53, 43
15, 38544, Note_on_c, 10, 53, 0
15, 38544, Note_on_c, 10, 46, 44
15, 38560, Note_on_c, 10, 37, 0
15, 38592, Note_on_c, 10, 46, 0
15, 38592, Note_on_c, 10, 37, 46
15, 38592, Note_on_c, 10, 51, 44
15, 38640, Note_on_c, 10, 51, 0
15, 38640, Note_on_c, 10, 44, 43
15, 38688, Note_on_c, 10, 44, 0
15, 38688, Note_on_c, 10, 51, 45
15, 38736, Note_on_c, 10, 51, 0
15, 38736, Note_on_c, 10, 44, 54
15, 38782, Note_on_c, 10, 37, 0
15, 38784, Note_on_c, 10, 44, 0
15, 38784, Note_on_c, 10, 40, 65
15, 38784, Note_on_c, 10, 50, 56
15, 38832, Note_on_c, 10, 50, 0
15, 38832, Note_on_c, 10, 43, 58
15, 38878, Note_on_c, 10, 40, 0
15, 38880, Note_on_c, 10, 43, 0
15, 38880, Note_on_c, 10, 49, 65
15, 38880, Note_on_c, 10, 42, 71
15, 38928, Note_on_c, 10, 49, 0
15, 38928, Note_on_c, 10, 42, 79
15, 38974, Note_on_c, 10, 42, 0
15, 38976, Note_on_c, 10, 42, 0
15, 38976, Note_on_c, 10, 51, 50
15, 38976, Note_on_c, 10, 42, 40
15, 39024, Note_on_c, 10, 51, 0
15, 39024, Note_on_c, 10, 54, 46
15, 39072, Note_on_c, 10, 54, 0
15, 39072, Note_on_c, 10, 57, 52
15, 39120, Note_on_c, 10, 57, 0
15, 39120, Note_on_c, 10, 59, 55
15, 39168, Note_on_c, 10, 42, 0
15, 39168, Note_on_c, 10, 59, 0
15, 39168, Note_on_c, 10, 61, 62
15, 39168, Note_on_c, 10, 46, 73
15, 39216, Note_on_c, 10, 61, 0
15, 39216, Note_on_c, 10, 63, 73
15, 39262, Note_on_c, 10, 46, 0
15, 39264, Note_on_c, 10, 63, 0
15, 39264, Note_on_c, 10, 42, 50
15, 39264, Note_on_c, 10, 51, 50
15, 39312, Note_on_c, 10, 51, 0
15, 39312, Note_on_c, 10, 54, 49
15, 39360, Note_on_c, 10, 54, 0
15, 39360, Note_on_c, 10, 57, 48
15, 39408, Note_on_c, 10, 57, 0
15, 39408, Note_on_c, 10, 59, 54
15, 39456, Note_on_c, 10, 42, 0
15, 39456, Note_on_c, 10, 59, 0
15, 39456, Note_on_c, 10, 61, 68
15, 39456, Note_on_c, 10, 46, 79
15, 39504, Note_on_c, 10, 61, 0
15, 39504, Note_on_c, 10, 63, 72
15, 39550, Note_on_c, 10, 46, 0
15, 39552, Note_on_c, 10, 63, 0
15, 39552, Note_on_c, 10, 48, 25
15, 39552, Note_on_c, 10, 42, 26
15, 39584, Note_on_c, 10, 48, 0
15, 39584, Note_on_c, 10, 42, 0
15, 39600, Note_on_c, 10, 64, 30
15, 39600, Note_on_c, 10, 56, 25
15, 39632, Note_on_c, 10, 64, 0
15, 39632, Note_on_c, 10, 56, 0
15, 39648, Note_on_c, 10, 48, 27
15, 39648, Note_on_c, 10, 42, 31
15, 39680, Note_on_c, 10, 48, 0
15, 39680, Note_on_c, 10, 42, 0
15, 39696, Note_on_c, 10, 56, 26
15, 39696, Note_on_c, 10, 64, 26
15, 39728, Note_on_c, 10, 56, 0
15, 39728, Note_on_c, 10, 64, 0
15, 39744, Note_on_c, 10, 42, 25
15, 39744, Note_on_c, 10, 48, 30
15, 39776, Note_on_c, 10, 42, 0
15, 39776, Note_on_c, 10, 48, 0
15, 39792, Note_on_c, 10, 64, 28
15, 39792, Note_on_c, 10, 56, 25
15, 39824, Note_on_c, 10, 64, 0
15, 39824, Note_on_c, 10, 56, 0
15, 39840, Note_on_c, 10, 41, 26
15, 39840, Note_on_c, 10, 48, 26
15, 39872, Note_on_c, 10, 41, 0
15, 39872, Note_on_c, 10, 48, 0
15, 39888, Note_on_c, 10, 56, 31
15, 39888, Note_on_c, 10, 64, 34
15, 39920, Note_on_c, 10, 56, 0
15, 39920, Note_on_c, 10, 64, 0
15, 39936, Note_on_c, 10, 48, 28
15, 39936, Note_on_c, 10, 41, 25
15, 39968, Note_on_c, 10, 48, 0
15, 39968, Note_on_c, 10, 41, 0
15, 39984, Note_on_c, 10, 56, 29
15, 39984, Note_on_c, 10, 64, 33
15, 40016, Note_on_c, 10, 56, 0
15, 40016, Note_on_c, 10, 64, 0
15, 40032, Note_on_c, 10, 41, 31
15, 40032, Note_on_c, 10, 48, 34
15, 40064, Note_on_c, 10, 41, 0
15, 40064, Note_on_c, 10, 48, 0
15, 40080, Note_on_c, 10, 56, 33
15, 40080, Note_on_c, 10, 64, 27
15, 40112, Note_on_c, 10, 56, 0
15, 40112, Note_on_c, 10, 64, 0
15, 40128, Note_on_c, 10, 48, 33
15, 40128, Note_on_c, 10, 42, 29
15, 40160, Note_on_c, 10, 48, 0
15, 40160, Note_on_c, 10, 42, 0
15, 40176, Note_on_c, 10, 56, 30
15, 40176, Note_on_c, 10, 64, 34
15, 40208, Note_on_c, 10, 56, 0
15, 40208, Note_on_c, 10, 64, 0
15, 40224, Note_on_c, 10, 42, 33
15, 40224, Note_on_c, 10, 48, 27
15, 40256, Note_on_c, 10, 42, 0
15, 40256, Note_on_c, 10, 48, 0
15, 40272, Note_on_c, 10, 56, 25
15, 40272, Note_on_c, 10, 64, 30
15, 40304, Note_on_c, 10, 56, 0
15, 40304, Note_on_c, 10, 64, 0
15, 40320, Note_on_c, 10, 48, 34
15, 40320, Note_on_c, 10, 42, 30
15, 40352, Note_on_c, 10, 48, 0
15, 40352, Note_on_c, 10, 42, 0
15, 40368, Note_on_c, 10, 64, 35
15, 40368, Note_on_c, 10, 56, 31
15, 40400, Note_on_c, 10, 64, 0
15, 40400, Note_on_c, 10, 56, 0
15, 40416, Note_on_c, 10, 41, 25
15, 40416, Note_on_c, 10, 48, 30
15, 40448, Note_on_c, 10, 41, 0
15, 40448, Note_on_c, 10, 48, 0
15, 40464, Note_on_c, 10, 56, 27
15, 40464, Note_on_c, 10, 64, 30
15, 40496, Note_on_c, 10, 56, 0
15, 40496, Note_on_c, 10, 64, 0
15, 40512, Note_on_c, 10, 48, 35
15, 40512, Note_on_c, 10, 41, 31
15, 40544, Note_on_c, 10, 48, 0
15, 40544, Note_on_c, 10, 41, 0
15, 40560, Note_on_c, 10, 64, 35
15, 40560, Note_on_c, 10, 56, 28
15, 40592, Note_on_c, 10, 64, 0
15, 40592, Note_on_c, 10, 56, 0
15, 40608, Note_on_c, 10, 48, 30
15, 40608, Note_on_c, 10, 41, 27
15, 40640, Note_on_c, 10, 48, 0
15, 40640, Note_on_c, 10, 41, 0
15, 40656, Note_on_c, 10, 64, 26
15, 40656, Note_on_c, 10, 56, 35
15, 40688, Note_on_c, 10, 64, 0
15, 40688, Note_on_c, 10, 56, 0
15, 40704, Note_on_c, 10, 48, 35
15, 40704, Note_on_c, 10, 42, 28
15, 40736, Note_on_c, 10, 48, 0
15, 40736, Note_on_c, 10, 42, 0
15, 40752, Note_on_c, 10, 64, 35
15, 40752, Note_on_c, 10, 56, 34
15, 40784, Note_on_c, 10, 64, 0
15, 40784, Note_on_c, 10, 56, 0
15, 40800, Note_on_c, 10, 48, 26
15, 40800, Note_on_c, 10, 42, 35
15, 40832, Note_on_c, 10, 48, 0
15, 40832, Note_on_c, 10, 42, 0
15, 40848, Note_on_c, 10, 64, 34
15, 40848, Note_on_c, 10, 56, 26
15, 40880, Note_on_c, 10, 64, 0
15, 40880, Note_on_c, 10, 56, 0
15, 40896, Note_on_c, 10, 48, 35
15, 40896, Note_on_c, 10, 42, 34
15, 40928, Note_on_c, 10, 48, 0
15, 40928, Note_on_c, 10, 42, 0
15, 40944, Note_on_c, 10, 64, 28
15, 40944, Note_on_c, 10, 56, 25
15, 40976, Note_on_c, 10, 64, 0
15, 40976, Note_on_c, 10, 56, 0
15, 40992, Note_on_c, 10, 41, 26
15, 40992, Note_on_c, 10, 48, 34
15, 41024, Note_on_c, 10, 41, 0
15, 41024, Note_on_c, 10, 48, 0
15, 41040, Note_on_c, 10, 56, 29
15, 41040, Note_on_c, 10, 64, 27
15, 41072, Note_on_c, 10, 56, 0
15, 41072, Note_on_c, 10, 64, 0
15, 41088, Note_on_c, 10, 48, 28
15, 41088, Note_on_c, 10, 41, 25
15, 41120, Note_on_c, 10, 48, 0
15, 41120, Note_on_c, 10, 41, 0
15, 41136, Note_on_c, 10, 56, 29
15, 41136, Note_on_c, 10, 64, 30
15, 41168, Note_on_c, 10, 56, 0
15, 41168, Note_on_c, 10, 64, 0
15, 41184, Note_on_c, 10, 48, 27
15, 41184, Note_on_c, 10, 41, 29
15, 41216, Note_on_c, 10, 48, 0
15, 41216, Note_on_c, 10, 41, 0
15, 41232, Note_on_c, 10, 56, 29
15, 41232, Note_on_c, 10, 64, 34
15, 41264, Note_on_c, 10, 56, 0
15, 41264, Note_on_c, 10, 64, 0
15, 41280, Note_on_c, 10, 50, 30
15, 41280, Note_on_c, 10, 41, 29
15, 41328, Note_on_c, 10, 59, 25
15, 41328, Note_on_c, 10, 69, 32
15, 41374, Note_on_c, 10, 50, 0
15, 41374, Note_on_c, 10, 41, 0
15, 41376, Note_on_c, 10, 41, 31
15, 41376, Note_on_c, 10, 50, 36
15, 41424, Note_on_c, 10, 59, 0
15, 41424, Note_on_c, 10, 69, 0
15, 41424, Note_on_c, 10, 59, 37
15, 41424, Note_on_c, 10, 69, 29
15, 41470, Note_on_c, 10, 41, 0
15, 41470, Note_on_c, 10, 50, 0
15, 41472, Note_on_c, 10, 41, 29
15, 41472, Note_on_c, 10, 50, 36
15, 41520, Note_on_c, 10, 59, 0
15, 41520, Note_on_c, 10, 69, 0
15, 41520, Note_on_c, 10, 59, 38
15, 41520, Note_on_c, 10, 68, 38
15, 41566, Note_on_c, 10, 41, 0
15, 41566, Note_on_c, 10, 50, 0
15, 41568, Note_on_c, 10, 41, 41
15, 41568, Note_on_c, 10, 50, 33
15, 41616, Note_on_c, 10, 59, 0
15, 41616, Note_on_c, 10, 68, 0
15, 41616, Note_on_c, 10, 59, 38
15, 41616, Note_on_c, 10, 67, 35
15, 41662, Note_on_c, 10, 41, 0
15, 41662, Note_on_c, 10, 50, 0
15, 41664, Note_on_c, 10, 41, 43
15, 41664, Note_on_c, 10, 50, 43
15, 41712, Note_on_c, 10, 59, 0
15, 41712, Note_on_c, 10, 67, 0
15, 41712, Note_on_c, 10, 59, 44
15, 41712, Note_on_c, 10, 67, 41
15, 41758, Note_on_c, 10, 41, 0
15, 41758, Note_on_c, 10, 50, 0
15, 41760, Note_on_c, 10, 41, 43
15, 41760, Note_on_c, 10, 50, 40
15, 41808, Note_on_c, 10, 59, 0
15, 41808, Note_on_c, 10, 67, 0
15, 41808, Note_on_c, 10, 59, 46
15, 41808, Note_on_c, 10, 66, 42
15, 41854, Note_on_c, 10, 41, 0
15, 41854, Note_on_c, 10, 50, 0
15, 41856, Note_on_c, 10, 59, 0
15, 41856, Note_on_c, 10, 66, 0
15, 41856, Note_on_c, 10, 41, 49
15, 41856, Note_on_c, 10, 50, 46
15, 41950, Note_on_c, 10, 41, 0
15, 41950, Note_on_c, 10, 50, 0
15, 42984, Note_on_c, 10, 63, 30
15, 42984, Note_on_c, 10, 54, 33
15, 42992, Note_on_c, 10, 60, 29
15, 42996, Note_on_c, 10, 68, 34
15, 43000, Note_on_c, 10, 63, 30
15, 43008, Note_on_c, 10, 66, 34
15, 43008, Note_on_c, 10, 71, 33
15, 43078, Note_on_c, 10, 63, 0
15, 43078, Note_on_c, 10, 54, 0
15, 43078, Note_on_c, 10, 60, 0
15, 43078, Note_on_c, 10, 66, 0
15, 43080, Note_on_c, 10, 68, 0
15, 43080, Note_on_c, 10, 63, 0
15, 43080, Note_on_c, 10, 71, 0
15, 43080, Note_on_c, 10, 51, 33
15, 43080, Note_on_c, 10, 59, 28
15, 43088, Note_on_c, 10, 54, 28
15, 43092, Note_on_c, 10, 63, 32
15, 43096, Note_on_c, 10, 60, 32
15, 43104, Note_on_c, 10, 68, 26
15, 43104, Note_on_c, 10, 63, 26
15, 43174, Note_on_c, 10, 51, 0
15, 43174, Note_on_c, 10, 54, 0
15, 43174, Note_on_c, 10, 63, 0
15, 43174, Note_on_c, 10, 60, 0
15, 43176, Note_on_c, 10, 59, 0
15, 43176, Note_on_c, 10, 68, 0
15, 43176, Note_on_c, 10, 63, 0
15, 43176, Note_on_c, 10, 61, 31
15, 43176, Note_on_c, 10, 53, 31
15, 43184, Note_on_c, 10, 56, 28
15, 43188, Note_on_c, 10, 65, 28
15, 43192, Note_on_c, 10, 60, 35
15, 43200, Note_on_c, 10, 68, 35
15, 43200, Note_on_c, 10, 65, 33
15, 43270, Note_on_c, 10, 53, 0
15, 43270, Note_on_c, 10, 56, 0
15, 43270, Note_on_c, 10, 65, 0
15, 43270, Note_on_c, 10, 60, 0
15, 43272, Note_on_c, 10, 48, 31
15, 43284, Note_on_c, 10, 51, 35
15, 43296, Note_on_c, 10, 61, 0
15, 43296, Note_on_c, 10, 68, 0
15, 43296, Note_on_c, 10, 65, 0
15, 43296, Note_on_c, 10, 54, 31
15, 43296, Note_on_c, 10, 63, 33
15, 43366, Note_on_c, 10, 48, 0
15, 43366, Note_on_c, 10, 51, 0
15, 43366, Note_on_c, 10, 54, 0
15, 43368, Note_on_c, 10, 42, 25
15, 43380, Note_on_c, 10, 48, 29
15, 43392, Note_on_c, 10, 63, 0
15, 43392, Note_on_c, 10, 51, 25
15, 43392, Note_on_c, 10, 59, 29
15, 43462, Note_on_c, 10, 42, 0
15, 43462, Note_on_c, 10, 48, 0
15, 43462, Note_on_c, 10, 51, 0
15, 43464, Note_on_c, 10, 44, 31
15, 43476, Note_on_c, 10, 48, 28
15, 43488, Note_on_c, 10, 59, 0
15, 43488, Note_on_c, 10, 53, 30
15, 43488, Note_on_c, 10, 63, 30
15, 43558, Note_on_c, 10, 44, 0
15, 43558, Note_on_c, 10, 48, 0
15, 43558, Note_on_c, 10, 53, 0
15, 43560, Note_on_c, 10, 63, 0
15, 43560, Note_on_c, 10, 63, 31
15, 43560, Note_on_c, 10, 54, 29
15, 43568, Note_on_c, 10, 60, 32
15, 43572, Note_on_c, 10, 68, 26
15, 43576, Note_on_c, 10, 63, 28
15, 43584, Note_on_c, 10, 66, 35
15, 43584, Note_on_c, 10, 71, 30
15, 43654, Note_on_c, 10, 63, 0
15, 43654, Note_on_c, 10, 54, 0
15, 43654, Note_on_c, 10, 60, 0
15, 43654, Note_on_c, 10, 66, 0
15, 43656, Note_on_c, 10, 68, 0
15, 43656, Note_on_c, 10, 63, 0
15, 43656, Note_on_c, 10, 71, 0
15, 43656, Note_on_c, 10, 51, 26
15, 43656, Note_on_c, 10, 59, 26
15, 43664, Note_on_c, 10, 54, 34
15, 43668, Note_on_c, 10, 63, 35
15, 43672, Note_on_c, 10, 60, 26
15, 43680, Note_on_c, 10, 63, 34
15, 43680, Note_on_c, 10, 68, 32
15, 43750, Note_on_c, 10, 51, 0
15, 43750, Note_on_c, 10, 54, 0
15, 43750, Note_on_c, 10, 63, 0
15, 43750, Note_on_c, 10, 60, 0
15, 43752, Note_on_c, 10, 59, 0
15, 43752, Note_on_c, 10, 63, 0
15, 43752, Note_on_c, 10, 68, 0
15, 43752, Note_on_c, 10, 53, 25
15, 43752, Note_on_c, 10, 61, 35
15, 43760, Note_on_c, 10, 56, 25
15, 43764, Note_on_c, 10, 65, 29
15, 43768, Note_on_c, 10, 60, 29
15, 43776, Note_on_c, 10, 65, 35
15, 43776, Note_on_c, 10, 68, 32
15, 43846, Note_on_c, 10, 53, 0
15, 43846, Note_on_c, 10, 56, 0
15, 43846, Note_on_c, 10, 65, 0
15, 43846, Note_on_c, 10, 60, 0
15, 43848, Note_on_c, 10, 48, 30
15, 43860, Note_on_c, 10, 51, 28
15, 43872, Note_on_c, 10, 61, 0
15, 43872, Note_on_c, 10, 65, 0
15, 43872, Note_on_c, 10, 68, 0
15, 43872, Note_on_c, 10, 63, 28
15, 43872, Note_on_c, 10, 54, 25
15, 43942, Note_on_c, 10, 48, 0
15, 43942, Note_on_c, 10, 51, 0
15, 43942, Note_on_c, 10, 54, 0
15, 43944, Note_on_c, 10, 42, 31
15, 43956, Note_on_c, 10, 48, 24
15, 43968, Note_on_c, 10, 63, 0
15, 43968, Note_on_c, 10, 59, 33
15, 43968, Note_on_c, 10, 51, 33
15, 44038, Note_on_c, 10, 42, 0
15, 44038, Note_on_c, 10, 48, 0
15, 44038, Note_on_c, 10, 51, 0
15, 44040, Note_on_c, 10, 44, 24
15, 44052, Note_on_c, 10, 48, 29
15, 44064, Note_on_c, 10, 59, 0
15, 44064, Note_on_c, 10, 53, 27
15, 44064, Note_on_c, 10, 63, 21
15, 44134, Note_on_c, 10, 44, 0
15, 44134, Note_on_c, 10, 48, 0
15, 44134, Note_on_c, 10, 53, 0
15, 44136, Note_on_c, 10, 63, 0
15, 44136, Note_on_c, 10, 54, 25
15, 44136, Note_on_c, 10, 63, 34
15, 44144, Note_on_c, 10, 60, 35
15, 44148, Note_on_c, 10, 68, 26
15, 44152, Note_on_c, 10, 63, 33
15, 44160, Note_on_c, 10, 71, 34
15, 44160, Note_on_c, 10, 66, 28
15, 44230, Note_on_c, 10, 54, 0
15, 44230, Note_on_c, 10, 63, 0
15, 44230, Note_on_c, 10, 60, 0
15, 44230, Note_on_c, 10, 66, 0
15, 44232, Note_on_c, 10, 68, 0
15, 44232, Note_on_c, 10, 63, 0
15, 44232, Note_on_c, 10, 71, 0
15, 44232, Note_on_c, 10, 59, 25
15, 44232, Note_on_c, 10, 51, 32
15, 44240, Note_on_c, 10, 54, 29
15, 44244, Note_on_c, 10, 63, 25
15, 44248, Note_on_c, 10, 60, 29
15, 44256, Note_on_c, 10, 68, 29
15, 44256, Note_on_c, 10, 63, 32
15, 44326, Note_on_c, 10, 51, 0
15, 44326, Note_on_c, 10, 54, 0
15, 44326, Note_on_c, 10, 63, 0
15, 44326, Note_on_c, 10, 60, 0
15, 44328, Note_on_c, 10, 59, 0
15, 44328, Note_on_c, 10, 68, 0
15, 44328, Note_on_c, 10, 63, 0
15, 44328, Note_on_c, 10, 53, 34
15, 44328, Note_on_c, 10, 61, 35
15, 44336, Note_on_c, 10, 56, 25
15, 44340, Note_on_c, 10, 65, 30
15, 44344, Note_on_c, 10, 60, 33
15, 44352, Note_on_c, 10, 65, 27
15, 44352, Note_on_c, 10, 68, 28
15, 44422, Note_on_c, 10, 53, 0
15, 44422, Note_on_c, 10, 56, 0
15, 44422, Note_on_c, 10, 65, 0
15, 44422, Note_on_c, 10, 60, 0
15, 44424, Note_on_c, 10, 48, 32
15, 44436, Note_on_c, 10, 51, 28
15, 44448, Note_on_c, 10, 61, 0
15, 44448, Note_on_c, 10, 65, 0
15, 44448, Note_on_c, 10, 68, 0
15, 44448, Note_on_c, 10, 54, 30
15, 44448, Note_on_c, 10, 63, 25
15, 44518, Note_on_c, 10, 48, 0
15, 44518, Note_on_c, 10, 51, 0
15, 44518, Note_on_c, 10, 54, 0
15, 44520, Note_on_c, 10, 42, 29
15, 44532, Note_on_c, 10, 48, 34
15, 44544, Note_on_c, 10, 63, 0
15, 44544, Note_on_c, 10, 51, 33
15, 44544, Note_on_c, 10, 59, 32
15, 44614, Note_on_c, 10, 42, 0
15, 44614, Note_on_c, 10, 48, 0
15, 44614, Note_on_c, 10, 51, 0
15, 44616, Note_on_c, 10, 44, 31
15, 44628, Note_on_c, 10, 48, 30
15, 44640, Note_on_c, 10, 59, 0
15, 44640, Note_on_c, 10, 63, 25
15, 44640, Note_on_c, 10, 53, 29
15, 44710, Note_on_c, 10, 44, 0
15, 44710, Note_on_c, 10, 48, 0
15, 44710, Note_on_c, 10, 53, 0
15, 44712, Note_on_c, 10, 63, 0
15, 44712, Note_on_c, 10, 63, 34
15, 44712, Note_on_c, 10, 54, 33
15, 44720, Note_on_c, 10, 60, 34
15, 44724, Note_on_c, 10, 68, 28
15, 44728, Note_on_c, 10, 63, 30
15, 44736, Note_on_c, 10, 71, 33
15, 44736, Note_on_c, 10, 66, 26
15, 44806, Note_on_c, 10, 63, 0
15, 44806, Note_on_c, 10, 54, 0
15, 44806, Note_on_c, 10, 60, 0
15, 44806, Note_on_c, 10, 66, 0
15, 44808, Note_on_c, 10, 68, 0
15, 44808, Note_on_c, 10, 63, 0
15, 44808, Note_on_c, 10, 71, 0
15, 44808, Note_on_c, 10, 59, 32
15, 44808, Note_on_c, 10, 51, 35
15, 44816, Note_on_c, 10, 54, 31
15, 44820, Note_on_c, 10, 63, 25
15, 44824, Note_on_c, 10, 60, 34
15, 44832, Note_on_c, 10, 68, 35
15, 44832, Note_on_c, 10, 63, 28
15, 44902, Note_on_c, 10, 51, 0
15, 44902, Note_on_c, 10, 54, 0
15, 44902, Note_on_c, 10, 63, 0
15, 44902, Note_on_c, 10, 60, 0
15, 44904, Note_on_c, 10, 59, 0
15, 44904, Note_on_c, 10, 68, 0
15, 44904, Note_on_c, 10, 63, 0
15, 44904, Note_on_c, 10, 61, 33
15, 44904, Note_on_c, 10, 53, 26
15, 44912, Note_on_c, 10, 56, 25
15, 44916, Note_on_c, 10, 65, 28
15, 44920, Note_on_c, 10, 60, 35
15, 44928, Note_on_c, 10, 65, 35
15, 44928, Note_on_c, 10, 68, 32
15, 44998, Note_on_c, 10, 53, 0
15, 44998, Note_on_c, 10, 56, 0
15, 44998, Note_on_c, 10, 65, 0
15, 44998, Note_on_c, 10, 60, 0
15, 45000, Note_on_c, 10, 48, 27
15, 45012, Note_on_c, 10, 51, 34
15, 45024, Note_on_c, 10, 61, 0
15, 45024, Note_on_c, 10, 65, 0
15, 45024, Note_on_c, 10, 68, 0
15, 45024, Note_on_c, 10, 54, 27
15, 45024, Note_on_c, 10, 63, 29
15, 45094, Note_on_c, 10, 48, 0
15, 45094, Note_on_c, 10, 51, 0
15, 45094, Note_on_c, 10, 54, 0
15, 45096, Note_on_c, 10, 42, 31
15, 45108, Note_on_c, 10, 48, 25
15, 45120, Note_on_c, 10, 63, 0
15, 45120, Note_on_c, 10, 51, 29
15, 45120, Note_on_c, 10, 59, 29
15, 45190, Note_on_c, 10, 42, 0
15, 45190, Note_on_c, 10, 48, 0
15, 45190, Note_on_c, 10, 51, 0
15, 45192, Note_on_c, 10, 44, 27
15, 45204, Note_on_c, 10, 48, 27
15, 45216, Note_on_c, 10, 59, 0
15, 45216, Note_on_c, 10, 63, 32
15, 45216, Note_on_c, 10, 53, 27
15, 45310, Note_on_c, 10, 44, 0
15, 45310, Note_on_c, 10, 48, 0
15, 45310, Note_on_c, 10, 53, 0
15, 45312, Note_on_c, 10, 63, 0
15, 45312, Note_on_c, 10, 51, 42
15, 45312, Note_on_c, 10, 51, 34
15, 45312, Note_on_c, 10, 71, 45
15, 45312, Note_on_c, 10, 42, 25
15, 45358, Note_on_c, 10, 71, 0
15, 45360, Note_on_c, 10, 51, 0
15, 45360, Note_on_c, 10, 68, 40
15, 45360, Note_on_c, 10, 48, 50
15, 45454, Note_on_c, 10, 42, 0
15, 45456, Note_on_c, 10, 51, 0
15, 45456, Note_on_c, 10, 41, 31
15, 45456, Note_on_c, 10, 49, 25
15, 45502, Note_on_c, 10, 41, 0
15, 45504, Note_on_c, 10, 49, 0
15, 45504, Note_on_c, 10, 38, 33
15, 45504, Note_on_c, 10, 47, 33
15, 45550, Note_on_c, 10, 68, 0
15, 45552, Note_on_c, 10, 48, 0
15, 45552, Note_on_c, 10, 61, 41
15, 45552, Note_on_c, 10, 41, 41
15, 45598, Note_on_c, 10, 38, 0
15, 45598, Note_on_c, 10, 61, 0
15, 45600, Note_on_c, 10, 47, 0
15, 45600, Note_on_c, 10, 41, 0
15, 45600, Note_on_c, 10, 42, 35
15, 45600, Note_on_c, 10, 71, 45
15, 45600, Note_on_c, 10, 51, 40
15, 45600, Note_on_c, 10, 51, 27
15, 45646, Note_on_c, 10, 71, 0
15, 45648, Note_on_c, 10, 51, 0
15, 45648, Note_on_c, 10, 68, 40
15, 45648, Note_on_c, 10, 48, 43
15, 45742, Note_on_c, 10, 42, 0
15, 45744, Note_on_c, 10, 51, 0
15, 45744, Note_on_c, 10, 41, 33
15, 45744, Note_on_c, 10, 49, 32
15, 45790, Note_on_c, 10, 41, 0
15, 45792, Note_on_c, 10, 49, 0
15, 45792, Note_on_c, 10, 38, 26
15, 45792, Note_on_c, 10, 47, 28
15, 45838, Note_on_c, 10, 68, 0
15, 45840, Note_on_c, 10, 48, 0
15, 45840, Note_on_c, 10, 41, 41
15, 45840, Note_on_c, 10, 61, 46
15, 45886, Note_on_c, 10, 38, 0
15, 45886, Note_on_c, 10, 61, 0
15, 45888, Note_on_c, 10, 47, 0
15, 45888, Note_on_c, 10, 41, 0
15, 45888, Note_on_c, 10, 63, 41
15, 45888, Note_on_c, 10, 42, 35
15, 45888, Note_on_c, 10, 51, 30
15, 45888, Note_on_c, 10, 51, 42
15, 45984, Note_on_c, 10, 63, 0
15, 45984, Note_on_c, 10, 42, 0
15, 45984, Note_on_c, 10, 51, 0
15, 45984, Note_on_c, 10, 51, 0
15, 45984, Note_on_c, 10, 49, 29
15, 45984, Note_on_c, 10, 61, 43
15, 45984, Note_on_c, 10, 41, 32
15, 45984, Note_on_c, 10, 49, 48
15, 46080, Note_on_c, 10, 49, 0
15, 46080, Note_on_c, 10, 61, 0
15, 46080, Note_on_c, 10, 41, 0
15, 46080, Note_on_c, 10, 49, 0
15, 46080, Note_on_c, 10, 39, 27
15, 46080, Note_on_c, 10, 59, 40
15, 46080, Note_on_c, 10, 47, 34
15, 46080, Note_on_c, 10, 47, 50
15, 46176, Note_on_c, 10, 39, 0
15, 46176, Note_on_c, 10, 59, 0
15, 46176, Note_on_c, 10, 47, 0
15, 46176, Note_on_c, 10, 47, 0
15, 46176, Note_on_c, 10, 41, 34
15, 46176, Note_on_c, 10, 61, 48
15, 46176, Note_on_c, 10, 49, 40
15, 46176, Note_on_c, 10, 51, 33
15, 46368, Note_on_c, 10, 41, 0
15, 46368, Note_on_c, 10, 61, 0
15, 46368, Note_on_c, 10, 49, 0
15, 46368, Note_on_c, 10, 51, 0
15, 46368, Note_on_c, 10, 47, 40
15, 46368, Note_on_c, 10, 49, 31
15, 46368, Note_on_c, 10, 59, 42
15, 46368, Note_on_c, 10, 39, 28
15, 46462, Note_on_c, 10, 59, 0
15, 46462, Note_on_c, 10, 39, 0
15, 46464, Note_on_c, 10, 47, 0
15, 46464, Note_on_c, 10, 49, 0
15, 46464, Note_on_c, 10, 32, 31
15, 46558, Note_on_c, 10, 32, 0
15, 46560, Note_on_c, 10, 39, 27
15, 46654, Note_on_c, 10, 39, 0
15, 46656, Note_on_c, 10, 44, 27
15, 46750, Note_on_c, 10, 44, 0
15, 46752, Note_on_c, 10, 51, 25
15, 46846, Note_on_c, 10, 51, 0
15, 46848, Note_on_c, 10, 56, 34
15, 46942, Note_on_c, 10, 56, 0
15, 46944, Note_on_c, 10, 63, 25
15, 47038, Note_on_c, 10, 63, 0
15, 47616, Note_on_c, 10, 32, 26
15, 47710, Note_on_c, 10, 32, 0
15, 47712, Note_on_c, 10, 39, 32
15, 47806, Note_on_c, 10, 39, 0
15, 47808, Note_on_c, 10, 44, 25
15, 47902, Note_on_c, 10, 44, 0
15, 47904, Note_on_c, 10, 51, 27
15, 47998, Note_on_c, 10, 51, 0
15, 48000, Note_on_c, 10, 56, 32
15, 48094, Note_on_c, 10, 56, 0
15, 48096, Note_on_c, 10, 63, 28
15, 48190, Note_on_c, 10, 63, 0
15, 49344, Note_on_c, 10, 47, 30
15, 49344, Note_on_c, 10, 59, 25
15, 49438, Note_on_c, 10, 59, 0
15, 49440, Note_on_c, 10, 59, 34
15, 49534, Note_on_c, 10, 59, 0
15, 49536, Note_on_c, 10, 47, 0
15, 49536, Note_on_c, 10, 59, 31
15, 49630, Note_on_c, 10, 59, 0
15, 49632, Note_on_c, 10, 59, 27
15, 49632, Note_on_c, 10, 47, 29
15, 49726, Note_on_c, 10, 59, 0
15, 49728, Note_on_c, 10, 59, 28
15, 49822, Note_on_c, 10, 59, 0
15, 49824, Note_on_c, 10, 47, 0
15, 49824, Note_on_c, 10, 59, 28
15, 49918, Note_on_c, 10, 59, 0
15, 49920, Note_on_c, 10, 59, 28
15, 49920, Note_on_c, 10, 47, 33
15, 50014, Note_on_c, 10, 59, 0
15, 50016, Note_on_c, 10, 59, 25
15, 50110, Note_on_c, 10, 59, 0
15, 50112, Note_on_c, 10, 47, 0
15, 50112, Note_on_c, 10, 59, 32
15, 50206, Note_on_c, 10, 59, 0
15, 50208, Note_on_c, 10, 59, 28
15, 50208, Note_on_c, 10, 47, 34
15, 50302, Note_on_c, 10, 59, 0
15, 50304, Note_on_c, 10, 59, 31
15, 50398, Note_on_c, 10, 59, 0
15, 50400, Note_on_c, 10, 47, 0
15, 50400, Note_on_c, 10, 59, 33
15, 50494, Note_on_c, 10, 59, 0
15, 50496, Note_on_c, 10, 59, 45
15, 50590, Note_on_c, 10, 59, 0
15, 50592, Note_on_c, 10, 59, 41
15, 50686, Note_on_c, 10, 59, 0
15, 50688, Note_on_c, 10, 59, 47
15, 50782, Note_on_c, 10, 59, 0
15, 50784, Note_on_c, 10, 59, 58
15, 50878, Note_on_c, 10, 59, 0
15, 50880, Note_on_c, 10, 59, 72
15, 50974, Note_on_c, 10, 59, 0
15, 50976, Note_on_c, 10, 59, 80
15, 51070, Note_on_c, 10, 59, 0
15, 52464, Note_on_c, 10, 47, 75
15, 52464, Note_on_c, 10, 59, 80
15, 52480, Note_on_c, 10, 63, 79
15, 52496, Note_on_c, 10, 66, 77
15, 52512, Note_on_c, 10, 68, 79
15, 52512, Note_on_c, 10, 54, 71
15, 52654, Note_on_c, 10, 59, 0
15, 52654, Note_on_c, 10, 63, 0
15, 52654, Note_on_c, 10, 66, 0
15, 52654, Note_on_c, 10, 68, 0
15, 52656, Note_on_c, 10, 47, 0
15, 52656, Note_on_c, 10, 54, 0
15, 52752, Note_on_c, 10, 47, 80
15, 52752, Note_on_c, 10, 59, 77
15, 52768, Note_on_c, 10, 63, 71
15, 52784, Note_on_c, 10, 66, 75
15, 52800, Note_on_c, 10, 54, 76
15, 52800, Note_on_c, 10, 68, 80
15, 52942, Note_on_c, 10, 59, 0
15, 52942, Note_on_c, 10, 63, 0
15, 52942, Note_on_c, 10, 66, 0
15, 52942, Note_on_c, 10, 68, 0
15, 52944, Note_on_c, 10, 47, 0
15, 52944, Note_on_c, 10, 54, 0
15, 53040, Note_on_c, 10, 47, 79
15, 53040, Note_on_c, 10, 59, 75
15, 53056, Note_on_c, 10, 63, 74
15, 53072, Note_on_c, 10, 66, 80
15, 53088, Note_on_c, 10, 68, 74
15, 53088, Note_on_c, 10, 54, 73
15, 53230, Note_on_c, 10, 59, 0
15, 53230, Note_on_c, 10, 63, 0
15, 53230, Note_on_c, 10, 66, 0
15, 53230, Note_on_c, 10, 68, 0
15, 53232, Note_on_c, 10, 47, 0
15, 53232, Note_on_c, 10, 54, 0
15, 53328, Note_on_c, 10, 47, 71
15, 53328, Note_on_c, 10, 59, 75
15, 53344, Note_on_c, 10, 63, 70
15, 53360, Note_on_c, 10, 66, 72
15, 53376, Note_on_c, 10, 54, 70
15, 53376, Note_on_c, 10, 68, 72
15, 53518, Note_on_c, 10, 59, 0
15, 53518, Note_on_c, 10, 63, 0
15, 53518, Note_on_c, 10, 66, 0
15, 53518, Note_on_c, 10, 68, 0
15, 53520, Note_on_c, 10, 47, 0
15, 53520, Note_on_c, 10, 54, 0
15, 54816, Note_on_c, 10, 47, 50
15, 54816, Note_on_c, 10, 59, 42
15, 54886, Note_on_c, 10, 59, 0
15, 54888, Note_on_c, 10, 47, 0
15, 54888, Note_on_c, 10, 49, 50
15, 54888, Note_on_c, 10, 61, 49
15, 54958, Note_on_c, 10, 61, 0
15, 54960, Note_on_c, 10, 49, 0
15, 54960, Note_on_c, 10, 64, 51
15, 54960, Note_on_c, 10, 52, 52
15, 55030, Note_on_c, 10, 64, 0
15, 55032, Note_on_c, 10, 52, 0
15, 55032, Note_on_c, 10, 66, 61
15, 55032, Note_on_c, 10, 54, 69
15, 55102, Note_on_c, 10, 66, 0
15, 55104, Note_on_c, 10, 54, 0
15, 55104, Note_on_c, 10, 71, 78
15, 55104, Note_on_c, 10, 59, 72
15, 55174, Note_on_c, 10, 71, 0
15, 55176, Note_on_c, 10, 59, 0
15, 55176, Note_on_c, 10, 61, 76
15, 55176, Note_on_c, 10, 73, 75
15, 55246, Note_on_c, 10, 73, 0
15, 55248, Note_on_c, 10, 61, 0
15, 55248, Note_on_c, 10, 64, 78
15, 55248, Note_on_c, 10, 76, 87
15, 55318, Note_on_c, 10, 76, 0
15, 55320, Note_on_c, 10, 64, 0
15, 55320, Note_on_c, 10, 66, 91
15, 55320, Note_on_c, 10, 78, 91
15, 55390, Note_on_c, 10, 78, 0
15, 55392, Note_on_c, 10, 66, 0
15, 55392, Note_on_c, 10, 59, 50
15, 55392, Note_on_c, 10, 47, 42
15, 55462, Note_on_c, 10, 59, 0
15, 55464, Note_on_c, 10, 47, 0
15, 55464, Note_on_c, 10, 49, 42
15, 55464, Note_on_c, 10, 61, 46
15, 55534, Note_on_c, 10, 61, 0
15, 55536, Note_on_c, 10, 49, 0
15, 55536, Note_on_c, 10, 52, 52
15, 55536, Note_on_c, 10, 64, 58
15, 55606, Note_on_c, 10, 64, 0
15, 55608, Note_on_c, 10, 52, 0
15, 55608, Note_on_c, 10, 66, 64
15, 55608, Note_on_c, 10, 54, 60
15, 55678, Note_on_c, 10, 66, 0
15, 55680, Note_on_c, 10, 54, 0
15, 55680, Note_on_c, 10, 59, 76
15, 55680, Note_on_c, 10, 71, 79
15, 55750, Note_on_c, 10, 71, 0
15, 55752, Note_on_c, 10, 59, 0
15, 55752, Note_on_c, 10, 73, 73
15, 55752, Note_on_c, 10, 61, 78
15, 55822, Note_on_c, 10, 73, 0
15, 55824, Note_on_c, 10, 61, 0
15, 55824, Note_on_c, 10, 76, 78
15, 55824, Note_on_c, 10, 64, 88
15, 55894, Note_on_c, 10, 76, 0
15, 55896, Note_on_c, 10, 64, 0
15, 55896, Note_on_c, 10, 66, 95
15, 55896, Note_on_c, 10, 78, 96
15, 55966, Note_on_c, 10, 78, 0
15, 55968, Note_on_c, 10, 66, 0
15, 55968, Note_on_c, 10, 47, 41
15, 55968, Note_on_c, 10, 59, 47
15, 56038, Note_on_c, 10, 59, 0
15, 56040, Note_on_c, 10, 47, 0
15, 56040, Note_on_c, 10, 49, 50
15, 56040, Note_on_c, 10, 61, 45
15, 56110, Note_on_c, 10, 61, 0
15, 56112, Note_on_c, 10, 49, 0
15, 56112, Note_on_c, 10, 52, 57
15, 56112, Note_on_c, 10, 64, 50
15, 56182, Note_on_c, 10, 64, 0
15, 56184, Note_on_c, 10, 52, 0
15, 56184, Note_on_c, 10, 54, 62
15, 56184, Note_on_c, 10, 66, 68
15, 56254, Note_on_c, 10, 66, 0
15, 56256, Note_on_c, 10, 54, 0
15, 56256, Note_on_c, 10, 71, 78
15, 56256, Note_on_c, 10, 59, 79
15, 56326, Note_on_c, 10, 71, 0
15, 56328, Note_on_c, 10, 59, 0
15, 56328, Note_on_c, 10, 61, 73
15, 56328, Note_on_c, 10, 73, 74
15, 56398, Note_on_c, 10, 73, 0
15, 56400, Note_on_c, 10, 61, 0
15, 56400, Note_on_c, 10, 64, 84
15, 56400, Note_on_c, 10, 76, 82
15, 56470, Note_on_c, 10, 76, 0
15, 56472, Note_on_c, 10, 64, 0
15, 56472, Note_on_c, 10, 78, 88
15, 56472, Note_on_c, 10, 66, 89
15, 56542, Note_on_c, 10, 78, 0
15, 56544, Note_on_c, 10, 66, 0
15, 56544, Note_on_c, 10, 73, 89
15, 56544, Note_on_c, 10, 78, 87
15, 56544, Note_on_c, 10, 85, 88
15, 56544, Note_on_c, 10, 60, 87
15, 56544, Note_on_c, 10, 54, 89
15, 56544, Note_on_c, 10, 66, 96
15, 56704, Note_on_c, 10, 73, 0
15, 56704, Note_on_c, 10, 78, 0
15, 56704, Note_on_c, 10, 85, 0
15, 56736, Note_on_c, 10, 60, 0
15, 56736, Note_on_c, 10, 54, 0
15, 56736, Note_on_c, 10, 66, 0
15, 56736, Note_on_c, 10, 57, 88
15, 56736, Note_on_c, 10, 83, 91
15, 56736, Note_on_c, 10, 76, 91
15, 56736, Note_on_c, 10, 64, 94
15, 56736, Note_on_c, 10, 52, 87
15, 56736, Note_on_c, 10, 71, 94
15, 56896, Note_on_c, 10, 83, 0
15, 56896, Note_on_c, 10, 76, 0
15, 56896, Note_on_c, 10, 71, 0
15, 56928, Note_on_c, 10, 57, 0
15, 56928, Note_on_c, 10, 64, 0
15, 56928, Note_on_c, 10, 52, 0
15, 56928, Note_on_c, 10, 73, 92
15, 56928, Note_on_c, 10, 61, 94
15, 56928, Note_on_c, 10, 54, 89
15, 56928, Note_on_c, 10, 49, 87
15, 56928, Note_on_c, 10, 80, 96
15, 56928, Note_on_c, 10, 68, 92
15, 57088, Note_on_c, 10, 73, 0
15, 57088, Note_on_c, 10, 80, 0
15, 57088, Note_on_c, 10, 68, 0
15, 57120, Note_on_c, 10, 61, 0
15, 57120, Note_on_c, 10, 54, 0
15, 57120, Note_on_c, 10, 49, 0
15, 57504, Note_on_c, 10, 54, 90
15, 57504, Note_on_c, 10, 61, 89
15, 57790, Note_on_c, 10, 61, 0
15, 57792, Note_on_c, 10, 54, 0
15, 58272, Note_on_c, 10, 54, 41
15, 58272, Note_on_c, 10, 61, 40
15, 58432, Note_on_c, 10, 54, 0
15, 58432, Note_on_c, 10, 61, 0
15, 58848, Note_on_c, 10, 61, 41
15, 58848, Note_on_c, 10, 54, 37
15, 59008, Note_on_c, 10, 61, 0
15, 59008, Note_on_c, 10, 54, 0
15, 59424, Note_on_c, 10, 61, 41
15, 59424, Note_on_c, 10, 54, 39
15, 59584, Note_on_c, 10, 61, 0
15, 59584, Note_on_c, 10, 54, 0
15, 60000, Note_on_c, 10, 54, 31
15, 60000, Note_on_c, 10, 61, 33
15, 60160, Note_on_c, 10, 54, 0
15, 60160, Note_on_c, 10, 61, 0
15, 69600, Note_on_c, 10, 91, 50
15, 69600, Note_on_c, 10, 79, 40
15, 69662, Note_on_c, 10, 91, 0
15, 69664, Note_on_c, 10, 79, 0
15, 69664, Note_on_c, 10, 76, 49
15, 69664, Note_on_c, 10, 88, 42
15, 69758, Note_on_c, 10, 88, 0
15, 69760, Note_on_c, 10, 76, 0
15, 69760, Note_on_c, 10, 79, 48
15, 69760, Note_on_c, 10, 91, 49
15, 69790, Note_on_c, 10, 91, 0
15, 69792, Note_on_c, 10, 79, 0
15, 69792, Note_on_c, 10, 88, 52
15, 69792, Note_on_c, 10, 76, 44
15, 69854, Note_on_c, 10, 88, 0
15, 69856, Note_on_c, 10, 76, 0
15, 69856, Note_on_c, 10, 91, 43
15, 69856, Note_on_c, 10, 79, 46
15, 69950, Note_on_c, 10, 91, 0
15, 69952, Note_on_c, 10, 79, 0
15, 69952, Note_on_c, 10, 88, 52
15, 69952, Note_on_c, 10, 76, 48
15, 69982, Note_on_c, 10, 88, 0
15, 69984, Note_on_c, 10, 76, 0
15, 69984, Note_on_c, 10, 79, 48
15, 69984, Note_on_c, 10, 91, 49
15, 70046, Note_on_c, 10, 91, 0
15, 70048, Note_on_c, 10, 79, 0
15, 70048, Note_on_c, 10, 88, 49
15, 70048, Note_on_c, 10, 76, 46
15, 70142, Note_on_c, 10, 88, 0
15, 70144, Note_on_c, 10, 76, 0
15, 70144, Note_on_c, 10, 79, 55
15, 70144, Note_on_c, 10, 91, 55
15, 70174, Note_on_c, 10, 91, 0
15, 70176, Note_on_c, 10, 79, 0
15, 70176, Note_on_c, 10, 88, 50
15, 70176, Note_on_c, 10, 76, 51
15, 70238, Note_on_c, 10, 88, 0
15, 70240, Note_on_c, 10, 76, 0
15, 70240, Note_on_c, 10, 79, 55
15, 70240, Note_on_c, 10, 91, 51
15, 70334, Note_on_c, 10, 91, 0
15, 70336, Note_on_c, 10, 79, 0
15, 70336, Note_on_c, 10, 88, 60
15, 70336, Note_on_c, 10, 76, 59
15, 70366, Note_on_c, 10, 88, 0
15, 70368, Note_on_c, 10, 76, 0
15, 70368, Note_on_c, 10, 79, 56
15, 70368, Note_on_c, 10, 91, 55
15, 70430, Note_on_c, 10, 91, 0
15, 70432, Note_on_c, 10, 79, 0
15, 70432, Note_on_c, 10, 88, 53
15, 70432, Note_on_c, 10, 76, 53
15, 70526, Note_on_c, 10, 88, 0
15, 70528, Note_on_c, 10, 76, 0
15, 70528, Note_on_c, 10, 91, 59
15, 70528, Note_on_c, 10, 79, 54
15, 70558, Note_on_c, 10, 91, 0
15, 70560, Note_on_c, 10, 79, 0
15, 70560, Note_on_c, 10, 88, 64
15, 70560, Note_on_c, 10, 76, 58
15, 70622, Note_on_c, 10, 88, 0
15, 70624, Note_on_c, 10, 76, 0
15, 70624, Note_on_c, 10, 79, 65
15, 70624, Note_on_c, 10, 91, 65
15, 70718, Note_on_c, 10, 91, 0
15, 70720, Note_on_c, 10, 79, 0
15, 70720, Note_on_c, 10, 76, 67
15, 70720, Note_on_c, 10, 88, 63
15, 70750, Note_on_c, 10, 88, 0
15, 70752, Note_on_c, 10, 76, 0
15, 70752, Note_on_c, 10, 91, 65
15, 70752, Note_on_c, 10, 79, 67
15, 70814, Note_on_c, 10, 91, 0
15, 70816, Note_on_c, 10, 79, 0
15, 70816, Note_on_c, 10, 76, 67
15, 70816, Note_on_c, 10, 88, 60
15, 70910, Note_on_c, 10, 88, 0
15, 70912, Note_on_c, 10, 76, 0
15, 70912, Note_on_c, 10, 91, 69
15, 70912, Note_on_c, 10, 79, 67
15, 70942, Note_on_c, 10, 91, 0
15, 70944, Note_on_c, 10, 79, 0
15, 70944, Note_on_c, 10, 76, 69
15, 70944, Note_on_c, 10, 88, 66
15, 71006, Note_on_c, 10, 88, 0
15, 71008, Note_on_c, 10, 76, 0
15, 71008, Note_on_c, 10, 91, 72
15, 71008, Note_on_c, 10, 79, 69
15, 71102, Note_on_c, 10, 91, 0
15, 71104, Note_on_c, 10, 79, 0
15, 71104, Note_on_c, 10, 76, 65
15, 71104, Note_on_c, 10, 88, 68
15, 71134, Note_on_c, 10, 88, 0
15, 71136, Note_on_c, 10, 76, 0
15, 71136, Note_on_c, 10, 72, 70
15, 71136, Note_on_c, 10, 84, 68
15, 71230, Note_on_c, 10, 84, 0
15, 71232, Note_on_c, 10, 72, 0
15, 71232, Note_on_c, 10, 79, 78
15, 71232, Note_on_c, 10, 91, 72
15, 71326, Note_on_c, 10, 91, 0
15, 71328, Note_on_c, 10, 79, 0
15, 71328, Note_on_c, 10, 79, 75
15, 71328, Note_on_c, 10, 67, 76
15, 71422, Note_on_c, 10, 79, 0
15, 71424, Note_on_c, 10, 67, 0
15, 71424, Note_on_c, 10, 72, 78
15, 71424, Note_on_c, 10, 84, 84
15, 71518, Note_on_c, 10, 84, 0
15, 71520, Note_on_c, 10, 72, 0
15, 71520, Note_on_c, 10, 91, 86
15, 71520, Note_on_c, 10, 79, 87
15, 71614, Note_on_c, 10, 91, 0
15, 71616, Note_on_c, 10, 79, 0
15, 71616, Note_on_c, 10, 55, 84
15, 71616, Note_on_c, 10, 79, 82
15, 71710, Note_on_c, 10, 79, 0
15, 71712, Note_on_c, 10, 55, 0
15, 71712, Note_on_c, 10, 84, 84
15, 71712, Note_on_c, 10, 60, 88
15, 71806, Note_on_c, 10, 84, 0
15, 71808, Note_on_c, 10, 60, 0
15, 71808, Note_on_c, 10, 67, 87
15, 71808, Note_on_c, 10, 91, 89
15, 71902, Note_on_c, 10, 91, 0
15, 71904, Note_on_c, 10, 67, 0
15, 78624, Note_on_c, 10, 91, 112
15, 78624, Note_on_c, 10, 79, 105
15, 78654, Note_on_c, 10, 91, 0
15, 78656, Note_on_c, 10, 79, 0
15, 78656, Note_on_c, 10, 74, 105
15, 78656, Note_on_c, 10, 86, 110
15, 78686, Note_on_c, 10, 86, 0
15, 78688, Note_on_c, 10, 74, 0
15, 78688, Note_on_c, 10, 72, 105
15, 78688, Note_on_c, 10, 84, 106
15, 78718, Note_on_c, 10, 84, 0
15, 78720, Note_on_c, 10, 72, 0
15, 78720, Note_on_c, 10, 79, 106
15, 78720, Note_on_c, 10, 67, 112
15, 78814, Note_on_c, 10, 79, 0
15, 78816, Note_on_c, 10, 67, 0
15, 78816, Note_on_c, 10, 67, 104
15, 78816, Note_on_c, 10, 79, 110
15, 78846, Note_on_c, 10, 79, 0
15, 78848, Note_on_c, 10, 67, 0
15, 78848, Note_on_c, 10, 74, 113
15, 78848, Note_on_c, 10, 62, 104
15, 78878, Note_on_c, 10, 74, 0
15, 78880, Note_on_c, 10, 62, 0
15, 78880, Note_on_c, 10, 72, 111
15, 78880, Note_on_c, 10, 60, 111
15, 78910, Note_on_c, 10, 72, 0
15, 78912, Note_on_c, 10, 60, 0
15, 78912, Note_on_c, 10, 67, 110
15, 78912, Note_on_c, 10, 55, 108
15, 79006, Note_on_c, 10, 67, 0
15, 79008, Note_on_c, 10, 55, 0
15, 79008, Note_on_c, 10, 91, 103
15, 79008, Note_on_c, 10, 79, 112
15, 79038, Note_on_c, 10, 91, 0
15, 79040, Note_on_c, 10, 79, 0
15, 79040, Note_on_c, 10, 86, 111
15, 79040, Note_on_c, 10, 74, 107
15, 79070, Note_on_c, 10, 86, 0
15, 79072, Note_on_c, 10, 74, 0
15, 79072, Note_on_c, 10, 84, 107
15, 79072, Note_on_c, 10, 72, 113
15, 79102, Note_on_c, 10, 84, 0
15, 79104, Note_on_c, 10, 72, 0
15, 79104, Note_on_c, 10, 79, 109
15, 79104, Note_on_c, 10, 67, 109
15, 79198, Note_on_c, 10, 79, 0
15, 79200, Note_on_c, 10, 67, 0
15, 79200, Note_on_c, 10, 79, 111
15, 79200, Note_on_c, 10, 91, 105
15, 79230, Note_on_c, 10, 91, 0
15, 79232, Note_on_c, 10, 79, 0
15, 79232, Note_on_c, 10, 86, 105
15, 79232, Note_on_c, 10, 74, 107
15, 79262, Note_on_c, 10, 86, 0
15, 79264, Note_on_c, 10, 74, 0
15, 79264, Note_on_c, 10, 84, 106
15, 79264, Note_on_c, 10, 72, 112
15, 79294, Note_on_c, 10, 84, 0
15, 79296, Note_on_c, 10, 72, 0
15, 79296, Note_on_c, 10, 79, 112
15, 79296, Note_on_c, 10, 67, 106
15, 79390, Note_on_c, 10, 79, 0
15, 79392, Note_on_c, 10, 67, 0
15, 79392, Note_on_c, 10, 67, 103
15, 79392, Note_on_c, 10, 79, 112
15, 79422, Note_on_c, 10, 79, 0
15, 79424, Note_on_c, 10, 67, 0
15, 79424, Note_on_c, 10, 62, 112
15, 79424, Note_on_c, 10, 74, 111
15, 79454, Note_on_c, 10, 74, 0
15, 79456, Note_on_c, 10, 62, 0
15, 79456, Note_on_c, 10, 72, 106
15, 79456, Note_on_c, 10, 60, 110
15, 79486, Note_on_c, 10, 72, 0
15, 79488, Note_on_c, 10, 60, 0
15, 79488, Note_on_c, 10, 67, 105
15, 79488, Note_on_c, 10, 55, 108
15, 79582, Note_on_c, 10, 67, 0
15, 79584, Note_on_c, 10, 55, 0
15, 79584, Note_on_c, 10, 91, 103
15, 79584, Note_on_c, 10, 79, 103
15, 79614, Note_on_c, 10, 91, 0
15, 79616, Note_on_c, 10, 79, 0
15, 79616, Note_on_c, 10, 74, 111
15, 79616, Note_on_c, 10, 86, 108
15, 79646, Note_on_c, 10, 86, 0
15, 79648, Note_on_c, 10, 74, 0
15, 79648, Note_on_c, 10, 72, 111
15, 79648, Note_on_c, 10, 84, 112
15, 79678, Note_on_c, 10, 84, 0
15, 79680, Note_on_c, 10, 72, 0
15, 79680, Note_on_c, 10, 79, 105
15, 79680, Note_on_c, 10, 67, 107
15, 79774, Note_on_c, 10, 79, 0
15, 79776, Note_on_c, 10, 67, 0
15, 79776, Note_on_c, 10, 91, 109
15, 79776, Note_on_c, 10, 79, 107
15, 79806, Note_on_c, 10, 91, 0
15, 79808, Note_on_c, 10, 79, 0
15, 79808, Note_on_c, 10, 86, 110
15, 79808, Note_on_c, 10, 74, 104
15, 79838, Note_on_c, 10, 86, 0
15, 79840, Note_on_c, 10, 74, 0
15, 79840, Note_on_c, 10, 72, 105
15, 79840, Note_on_c, 10, 84, 103
15, 79870, Note_on_c, 10, 84, 0
15, 79872, Note_on_c, 10, 72, 0
15, 79872, Note_on_c, 10, 67, 103
15, 79872, Note_on_c, 10, 79, 103
15, 79966, Note_on_c, 10, 79, 0
15, 79968, Note_on_c, 10, 67, 0
15, 79968, Note_on_c, 10, 79, 105
15, 79968, Note_on_c, 10, 67, 104
15, 79998, Note_on_c, 10, 79, 0
15, 80000, Note_on_c, 10, 67, 0
15, 80000, Note_on_c, 10, 74, 109
15, 80000, Note_on_c, 10, 62, 110
15, 80030, Note_on_c, 10, 74, 0
15, 80032, Note_on_c, 10, 62, 0
15, 80032, Note_on_c, 10, 60, 107
15, 80032, Note_on_c, 10, 72, 112
15, 80062, Note_on_c, 10, 72, 0
15, 80064, Note_on_c, 10, 60, 0
15, 80064, Note_on_c, 10, 55, 107
15, 80064, Note_on_c, 10, 67, 106
15, 80158, Note_on_c, 10, 67, 0
15, 80160, Note_on_c, 10, 55, 0
15, 80160, Note_on_c, 10, 79, 108
15, 80160, Note_on_c, 10, 91, 113
15, 80190, Note_on_c, 10, 91, 0
15, 80192, Note_on_c, 10, 79, 0
15, 80192, Note_on_c, 10, 86, 105
15, 80192, Note_on_c, 10, 74, 108
15, 80222, Note_on_c, 10, 86, 0
15, 80224, Note_on_c, 10, 74, 0
15, 80224, Note_on_c, 10, 84, 107
15, 80224, Note_on_c, 10, 72, 112
15, 80254, Note_on_c, 10, 84, 0
15, 80256, Note_on_c, 10, 72, 0
15, 80256, Note_on_c, 10, 79, 108
15, 80256, Note_on_c, 10, 67, 105
15, 80350, Note_on_c, 10, 79, 0
15, 80352, Note_on_c, 10, 67, 0
15, 80352, Note_on_c, 10, 79, 104
15, 80352, Note_on_c, 10, 91, 105
15, 80382, Note_on_c, 10, 91, 0
15, 80384, Note_on_c, 10, 79, 0
15, 80384, Note_on_c, 10, 86, 109
15, 80384, Note_on_c, 10, 74, 103
15, 80414, Note_on_c, 10, 86, 0
15, 80416, Note_on_c, 10, 74, 0
15, 80416, Note_on_c, 10, 84, 113
15, 80416, Note_on_c, 10, 72, 103
15, 80446, Note_on_c, 10, 84, 0
15, 80448, Note_on_c, 10, 72, 0
15, 80448, Note_on_c, 10, 67, 107
15, 80448, Note_on_c, 10, 79, 108
15, 80542, Note_on_c, 10, 79, 0
15, 80544, Note_on_c, 10, 67, 0
15, 80544, Note_on_c, 10, 67, 111
15, 80544, Note_on_c, 10, 79, 113
15, 80574, Note_on_c, 10, 79, 0
15, 80576, Note_on_c, 10, 67, 0
15, 80576, Note_on_c, 10, 74, 105
15, 80576, Note_on_c, 10, 62, 113
15, 80606, Note_on_c, 10, 74, 0
15, 80608, Note_on_c, 10, 62, 0
15, 80608, Note_on_c, 10, 60, 109
15, 80608, Note_on_c, 10, 72, 112
15, 80638, Note_on_c, 10, 72, 0
15, 80640, Note_on_c, 10, 60, 0
15, 80640, Note_on_c, 10, 55, 111
15, 80640, Note_on_c, 10, 67, 107
15, 80734, Note_on_c, 10, 67, 0
15, 80736, Note_on_c, 10, 55, 0
15, 80736, Note_on_c, 10, 91, 112
15, 80736, Note_on_c, 10, 79, 113
15, 80766, Note_on_c, 10, 91, 0
15, 80768, Note_on_c, 10, 79, 0
15, 80768, Note_on_c, 10, 74, 105
15, 80768, Note_on_c, 10, 86, 105
15, 80798, Note_on_c, 10, 86, 0
15, 80800, Note_on_c, 10, 74, 0
15, 80800, Note_on_c, 10, 84, 110
15, 80800, Note_on_c, 10, 72, 110
15, 80830, Note_on_c, 10, 84, 0
15, 80832, Note_on_c, 10, 72, 0
15, 80832, Note_on_c, 10, 67, 113
15, 80832, Note_on_c, 10, 79, 111
15, 80926, Note_on_c, 10, 79, 0
15, 80928, Note_on_c, 10, 67, 0
15, 80928, Note_on_c, 10, 91, 91
15, 80928, Note_on_c, 10, 79, 87
15, 80958, Note_on_c, 10, 91, 0
15, 80960, Note_on_c, 10, 79, 0
15, 80960, Note_on_c, 10, 74, 94
15, 80960, Note_on_c, 10, 86, 89
15, 80990, Note_on_c, 10, 86, 0
15, 80992, Note_on_c, 10, 74, 0
15, 80992, Note_on_c, 10, 72, 91
15, 80992, Note_on_c, 10, 84, 88
15, 81022, Note_on_c, 10, 84, 0
15, 81024, Note_on_c, 10, 72, 0
15, 81024, Note_on_c, 10, 79, 95
15, 81024, Note_on_c, 10, 67, 90
15, 81118, Note_on_c, 10, 79, 0
15, 81120, Note_on_c, 10, 67, 0
15, 81120, Note_on_c, 10, 67, 94
15, 81120, Note_on_c, 10, 79, 90
15, 81150, Note_on_c, 10, 79, 0
15, 81152, Note_on_c, 10, 67, 0
15, 81152, Note_on_c, 10, 74, 91
15, 81152, Note_on_c, 10, 62, 89
15, 81182, Note_on_c, 10, 74, 0
15, 81184, Note_on_c, 10, 62, 0
15, 81184, Note_on_c, 10, 72, 95
15, 81184, Note_on_c, 10, 60, 89
15, 81214, Note_on_c, 10, 72, 0
15, 81216, Note_on_c, 10, 60, 0
15, 81216, Note_on_c, 10, 55, 96
15, 81216, Note_on_c, 10, 67, 93
15, 81310, Note_on_c, 10, 67, 0
15, 81312, Note_on_c, 10, 55, 0
15, 81600, Note_on_c, 10, 67, 87
15, 81630, Note_on_c, 10, 67, 0
15, 81632, Note_on_c, 10, 62, 87
15, 81662, Note_on_c, 10, 62, 0
15, 81664, Note_on_c, 10, 60, 77
15, 81694, Note_on_c, 10, 60, 0
15, 81696, Note_on_c, 10, 55, 83
15, 81790, Note_on_c, 10, 55, 0
15, 82176, Note_on_c, 10, 67, 75
15, 82206, Note_on_c, 10, 67, 0
15, 82208, Note_on_c, 10, 62, 73
15, 82238, Note_on_c, 10, 62, 0
15, 82240, Note_on_c, 10, 60, 68
15, 82270, Note_on_c, 10, 60, 0
15, 82272, Note_on_c, 10, 55, 67
15, 82366, Note_on_c, 10, 55, 0
15, 83040, Note_on_c, 10, 67, 51
15, 83070, Note_on_c, 10, 67, 0
15, 83072, Note_on_c, 10, 62, 47
15, 83102, Note_on_c, 10, 62, 0
15, 83104, Note_on_c, 10, 60, 47
15, 83134, Note_on_c, 10, 60, 0
15, 83136, Note_on_c, 10, 55, 48
15, 83230, Note_on_c, 10, 55, 0
15, 84672, Note_on_c, 10, 50, 44
15, 84672, Note_on_c, 10, 62, 47
15, 84928, Note_on_c, 10, 50, 0
15, 84928, Note_on_c, 10, 62, 0
15, 84960, Note_on_c, 10, 32, 40
15, 84960, Note_on_c, 10, 44, 42
15, 85216, Note_on_c, 10, 32, 0
15, 85216, Note_on_c, 10, 44, 0
15, 85248, Note_on_c, 10, 60, 43
15, 85248, Note_on_c, 10, 64, 45
15, 85248, Note_on_c, 10, 52, 41
15, 85390, Note_on_c, 10, 60, 0
15, 85390, Note_on_c, 10, 64, 0
15, 85390, Note_on_c, 10, 52, 0
15, 85392, Note_on_c, 10, 58, 29
15, 85392, Note_on_c, 10, 62, 25
15, 85392, Note_on_c, 10, 50, 27
15, 85534, Note_on_c, 10, 58, 0
15, 85534, Note_on_c, 10, 62, 0
15, 85534, Note_on_c, 10, 50, 0
15, 85536, Note_on_c, 10, 32, 41
15, 85536, Note_on_c, 10, 44, 45
15, 85792, Note_on_c, 10, 32, 0
15, 85792, Note_on_c, 10, 44, 0
15, 85824, Note_on_c, 10, 52, 42
15, 85824, Note_on_c, 10, 64, 46
15, 85824, Note_on_c, 10, 60, 40
15, 85966, Note_on_c, 10, 52, 0
15, 85966, Note_on_c, 10, 64, 0
15, 85966, Note_on_c, 10, 60, 0
15, 85968, Note_on_c, 10, 50, 29
15, 85968, Note_on_c, 10, 62, 25
15, 85968, Note_on_c, 10, 58, 25
15, 86110, Note_on_c, 10, 50, 0
15, 86110, Note_on_c, 10, 62, 0
15, 86110, Note_on_c, 10, 58, 0
15, 86112, Note_on_c, 10, 32, 35
15, 86112, Note_on_c, 10, 44, 31
15, 86256, Note_on_c, 10, 32, 0
15, 86256, Note_on_c, 10, 44, 0
15, 86256, Note_on_c, 10, 34, 31
15, 86256, Note_on_c, 10, 46, 25
15, 86542, Note_on_c, 10, 34, 0
15, 86542, Note_on_c, 10, 46, 0
15, 86544, Note_on_c, 10, 34, 27
15, 86544, Note_on_c, 10, 46, 29
15, 86592, Note_on_c, 10, 34, 0
15, 86592, Note_on_c, 10, 46, 0
15, 86688, Note_on_c, 10, 32, 32
15, 86688, Note_on_c, 10, 44, 25
15, 86830, Note_on_c, 10, 32, 0
15, 86830, Note_on_c, 10, 44, 0
15, 86832, Note_on_c, 10, 34, 27
15, 86832, Note_on_c, 10, 46, 34
15, 87118, Note_on_c, 10, 34, 0
15, 87118, Note_on_c, 10, 46, 0
15, 87120, Note_on_c, 10, 46, 29
15, 87120, Note_on_c, 10, 34, 26
15, 87168, Note_on_c, 10, 46, 0
15, 87168, Note_on_c, 10, 34, 0
15, 87264, Note_on_c, 10, 32, 31
15, 87264, Note_on_c, 10, 44, 30
15, 87408, Note_on_c, 10, 32, 0
15, 87408, Note_on_c, 10, 44, 0
15, 87408, Note_on_c, 10, 34, 25
15, 87408, Note_on_c, 10, 46, 33
15, 87694, Note_on_c, 10, 34, 0
15, 87694, Note_on_c, 10, 46, 0
15, 87696, Note_on_c, 10, 34, 26
15, 87696, Note_on_c, 10, 46, 30
15, 87744, Note_on_c, 10, 34, 0
15, 87744, Note_on_c, 10, 46, 0
15, 87840, Note_on_c, 10, 32, 33
15, 87840, Note_on_c, 10, 44, 29
15, 87982, Note_on_c, 10, 32, 0
15, 87982, Note_on_c, 10, 44, 0
15, 87984, Note_on_c, 10, 46, 34
15, 87984, Note_on_c, 10, 34, 31
15, 88270, Note_on_c, 10, 46, 0
15, 88270, Note_on_c, 10, 34, 0
15, 88272, Note_on_c, 10, 34, 35
15, 88272, Note_on_c, 10, 46, 35
15, 88320, Note_on_c, 10, 34, 0
15, 88320, Note_on_c, 10, 46, 0
15, 88416, Note_on_c, 10, 32, 28
15, 88416, Note_on_c, 10, 44, 25
15, 88560, Note_on_c, 10, 32, 0
15, 88560, Note_on_c, 10, 44, 0
15, 88560, Note_on_c, 10, 34, 34
15, 88560, Note_on_c, 10, 46, 29
15, 88846, Note_on_c, 10, 34, 0
15, 88846, Note_on_c, 10, 46, 0
15, 88848, Note_on_c, 10, 46, 28
15, 88848, Note_on_c, 10, 34, 27
15, 88896, Note_on_c, 10, 46, 0
15, 88896, Note_on_c, 10, 34, 0
15, 88992, Note_on_c, 10, 32, 22
15, 88992, Note_on_c, 10, 44, 21
15, 89134, Note_on_c, 10, 32, 0
15, 89134, Note_on_c, 10, 44, 0
15, 89136, Note_on_c, 10, 46, 29
15, 89136, Note_on_c, 10, 34, 20
15, 89422, Note_on_c, 10, 46, 0
15, 89422, Note_on_c, 10, 34, 0
15, 89424, Note_on_c, 10, 34, 26
15, 89424, Note_on_c, 10, 46, 21
15, 89472, Note_on_c, 10, 34, 0
15, 89472, Note_on_c, 10, 46, 0
15, 89568, Note_on_c, 10, 28, 19
15, 89568, Note_on_c, 10, 40, 21
15, 89824, Note_on_c, 10, 28, 0
15, 89824, Note_on_c, 10, 40, 0
15, 90720, Note_on_c, 10, 48, 35
15, 90862, Note_on_c, 10, 48, 0
15, 90864, Note_on_c, 10, 50, 26
15, 91006, Note_on_c, 10, 50, 0
15, 91008, Note_on_c, 10, 40, 18
15, 91008, Note_on_c, 10, 28, 24
15, 91264, Note_on_c, 10, 40, 0
15, 91264, Note_on_c, 10, 28, 0
15, 91872, Note_on_c, 10, 28, 15
15, 92128, Note_on_c, 10, 28, 0
15, 93024, Note_on_c, 10, 48, 33
15, 93166, Note_on_c, 10, 48, 0
15, 93168, Note_on_c, 10, 50, 27
15, 93310, Note_on_c, 10, 50, 0
15, 93312, Note_on_c, 10, 28, 17
15, 93312, Note_on_c, 10, 40, 23
15, 93568, Note_on_c, 10, 28, 0
15, 93568, Note_on_c, 10, 40, 0
15, 94560, Note_on_c, 10, 61, 87
15, 94560, Note_on_c, 10, 49, 91
15, 94896, Note_on_c, 10, 61, 0
15, 94944, Note_on_c, 10, 49, 0
15, 95328, Note_on_c, 10, 61, 96
15, 95328, Note_on_c, 10, 49, 88
15, 95664, Note_on_c, 10, 61, 0
15, 95712, Note_on_c, 10, 49, 0
15, 108000, Note_on_c, 10, 78, 30
15, 108000, Note_on_c, 10, 78, 32
15, 108000, Note_on_c, 10, 73, 30
15, 108024, Note_on_c, 10, 78, 35
15, 108040, Note_on_c, 10, 78, 0
15, 108042, Note_on_c, 10, 85, 33
15, 108046, Note_on_c, 10, 78, 0
15, 108046, Note_on_c, 10, 73, 0
15, 108048, Note_on_c, 10, 66, 26
15, 108058, Note_on_c, 10, 85, 0
15, 108060, Note_on_c, 10, 90, 32
15, 108076, Note_on_c, 10, 90, 0
15, 108078, Note_on_c, 10, 78, 35
15, 108094, Note_on_c, 10, 78, 0
15, 108094, Note_on_c, 10, 66, 0
15, 108096, Note_on_c, 10, 78, 0
15, 108096, Note_on_c, 10, 73, 32
15, 108096, Note_on_c, 10, 73, 35
15, 108096, Note_on_c, 10, 70, 27
15, 108120, Note_on_c, 10, 73, 29
15, 108130, Note_on_c, 10, 73, 0
15, 108132, Note_on_c, 10, 78, 31
15, 108142, Note_on_c, 10, 73, 0
15, 108142, Note_on_c, 10, 70, 0
15, 108142, Note_on_c, 10, 78, 0
15, 108144, Note_on_c, 10, 85, 27
15, 108144, Note_on_c, 10, 61, 25
15, 108154, Note_on_c, 10, 85, 0
15, 108156, Note_on_c, 10, 73, 30
15, 108166, Note_on_c, 10, 73, 0
15, 108190, Note_on_c, 10, 61, 0
15, 108192, Note_on_c, 10, 73, 0
15, 108192, Note_on_c, 10, 66, 29
15, 108192, Note_on_c, 10, 66, 35
15, 108192, Note_on_c, 10, 61, 28
15, 108216, Note_on_c, 10, 66, 34
15, 108232, Note_on_c, 10, 66, 0
15, 108234, Note_on_c, 10, 73, 31
15, 108238, Note_on_c, 10, 66, 0
15, 108238, Note_on_c, 10, 61, 0
15, 108240, Note_on_c, 10, 54, 26
15, 108250, Note_on_c, 10, 73, 0
15, 108252, Note_on_c, 10, 78, 26
15, 108268, Note_on_c, 10, 78, 0
15, 108270, Note_on_c, 10, 66, 34
15, 108286, Note_on_c, 10, 66, 0
15, 108286, Note_on_c, 10, 54, 0
15, 108288, Note_on_c, 10, 66, 0
15, 108288, Note_on_c, 10, 73, 31
15, 108288, Note_on_c, 10, 78, 31
15, 108288, Note_on_c, 10, 78, 25
15, 108312, Note_on_c, 10, 78, 35
15, 108328, Note_on_c, 10, 78, 0
15, 108330, Note_on_c, 10, 85, 25
15, 108334, Note_on_c, 10, 73, 0
15, 108334, Note_on_c, 10, 78, 0
15, 108336, Note_on_c, 10, 66, 28
15, 108346, Note_on_c, 10, 85, 0
15, 108348, Note_on_c, 10, 90, 26
15, 108364, Note_on_c, 10, 90, 0
15, 108366, Note_on_c, 10, 78, 34
15, 108382, Note_on_c, 10, 78, 0
15, 108382, Note_on_c, 10, 66, 0
15, 108384, Note_on_c, 10, 78, 0
15, 108384, Note_on_c, 10, 78, 29
15, 108384, Note_on_c, 10, 73, 31
15, 108384, Note_on_c, 10, 78, 33
15, 108408, Note_on_c, 10, 78, 26
15, 108424, Note_on_c, 10, 78, 0
15, 108426, Note_on_c, 10, 85, 34
15, 108430, Note_on_c, 10, 73, 0
15, 108430, Note_on_c, 10, 78, 0
15, 108432, Note_on_c, 10, 66, 26
15, 108442, Note_on_c, 10, 85, 0
15, 108444, Note_on_c, 10, 90, 29
15, 108460, Note_on_c, 10, 90, 0
15, 108462, Note_on_c, 10, 78, 34
15, 108478, Note_on_c, 10, 78, 0
15, 108478, Note_on_c, 10, 66, 0
15, 108480, Note_on_c, 10, 78, 0
15, 108480, Note_on_c, 10, 70, 30
15, 108480, Note_on_c, 10, 73, 30
15, 108480, Note_on_c, 10, 73, 27
15, 108504, Note_on_c, 10, 73, 32
15, 108520, Note_on_c, 10, 73, 0
15, 108522, Note_on_c, 10, 78, 34
15, 108526, Note_on_c, 10, 70, 0
15, 108526, Note_on_c, 10, 73, 0
15, 108528, Note_on_c, 10, 61, 30
15, 108538, Note_on_c, 10, 78, 0
15, 108540, Note_on_c, 10, 85, 32
15, 108556, Note_on_c, 10, 85, 0
15, 108558, Note_on_c, 10, 73, 26
15, 108574, Note_on_c, 10, 73, 0
15, 108574, Note_on_c, 10, 61, 0
15, 108576, Note_on_c, 10, 73, 0
15, 108576, Note_on_c, 10, 66, 32
15, 108576, Note_on_c, 10, 61, 27
15, 108576, Note_on_c, 10, 66, 34
15, 108600, Note_on_c, 10, 66, 34
15, 108616, Note_on_c, 10, 66, 0
15, 108618, Note_on_c, 10, 73, 26
15, 108622, Note_on_c, 10, 61, 0
15, 108622, Note_on_c, 10, 66, 0
15, 108624, Note_on_c, 10, 54, 31
15, 108634, Note_on_c, 10, 73, 0
15, 108636, Note_on_c, 10, 78, 30
15, 108652, Note_on_c, 10, 78, 0
15, 108654, Note_on_c, 10, 66, 29
15, 108670, Note_on_c, 10, 66, 0
15, 108670, Note_on_c, 10, 54, 0
15, 108672, Note_on_c, 10, 66, 0
15, 108672, Note_on_c, 10, 73, 26
15, 108672, Note_on_c, 10, 78, 25
15, 108672, Note_on_c, 10, 78, 31
15, 108696, Note_on_c, 10, 78, 33
15, 108712, Note_on_c, 10, 78, 0
15, 108714, Note_on_c, 10, 85, 31
15, 108718, Note_on_c, 10, 73, 0
15, 108718, Note_on_c, 10, 78, 0
15, 108720, Note_on_c, 10, 66, 33
15, 108730, Note_on_c, 10, 85, 0
15, 108732, Note_on_c, 10, 90, 33
15, 108748, Note_on_c, 10, 90, 0
15, 108750, Note_on_c, 10, 78, 26
15, 108766, Note_on_c, 10, 78, 0
15, 108766, Note_on_c, 10, 66, 0
15, 108768, Note_on_c, 10, 78, 0
15, 108768, Note_on_c, 10, 78, 35
15, 108768, Note_on_c, 10, 74, 28
15, 108768, Note_on_c, 10, 78, 35
15, 108792, Note_on_c, 10, 78, 26
15, 108808, Note_on_c, 10, 78, 0
15, 108810, Note_on_c, 10, 86, 28
15, 108814, Note_on_c, 10, 74, 0
15, 108814, Note_on_c, 10, 78, 0
15, 108816, Note_on_c, 10, 66, 34
15, 108826, Note_on_c, 10, 86, 0
15, 108828, Note_on_c, 10, 90, 34
15, 108844, Note_on_c, 10, 90, 0
15, 108846, Note_on_c, 10, 78, 29
15, 108862, Note_on_c, 10, 78, 0
15, 108862, Note_on_c, 10, 66, 0
15, 108864, Note_on_c, 10, 78, 0
15, 108864, Note_on_c, 10, 74, 29
15, 108864, Note_on_c, 10, 70, 31
15, 108864, Note_on_c, 10, 74, 28
15, 108888, Note_on_c, 10, 74, 29
15, 108898, Note_on_c, 10, 74, 0
15, 108900, Note_on_c, 10, 78, 33
15, 108910, Note_on_c, 10, 70, 0
15, 108910, Note_on_c, 10, 74, 0
15, 108910, Note_on_c, 10, 78, 0
15, 108912, Note_on_c, 10, 86, 28
15, 108912, Note_on_c, 10, 62, 26
15, 108922, Note_on_c, 10, 86, 0
15, 108924, Note_on_c, 10, 74, 26
15, 108934, Note_on_c, 10, 74, 0
15, 108958, Note_on_c, 10, 62, 0
15, 108960, Note_on_c, 10, 74, 0
15, 108960, Note_on_c, 10, 66, 28
15, 108960, Note_on_c, 10, 62, 28
15, 108960, Note_on_c, 10, 66, 29
15, 108984, Note_on_c, 10, 66, 25
15, 109000, Note_on_c, 10, 66, 0
15, 109002, Note_on_c, 10, 74, 33
15, 109006, Note_on_c, 10, 62, 0
15, 109006, Note_on_c, 10, 66, 0
15, 109008, Note_on_c, 10, 54, 29
15, 109018, Note_on_c, 10, 74, 0
15, 109020, Note_on_c, 10, 78, 32
15, 109036, Note_on_c, 10, 78, 0
15, 109038, Note_on_c, 10, 66, 27
15, 109054, Note_on_c, 10, 66, 0
15, 109054, Note_on_c, 10, 54, 0
15, 109056, Note_on_c, 10, 66, 0
15, 109056, Note_on_c, 10, 74, 28
15, 109056, Note_on_c, 10, 78, 29
15, 109056, Note_on_c, 10, 78, 30
15, 109080, Note_on_c, 10, 78, 33
15, 109096, Note_on_c, 10, 78, 0
15, 109098, Note_on_c, 10, 86, 29
15, 109102, Note_on_c, 10, 74, 0
15, 109102, Note_on_c, 10, 78, 0
15, 109104, Note_on_c, 10, 66, 33
15, 109114, Note_on_c, 10, 86, 0
15, 109116, Note_on_c, 10, 90, 31
15, 109132, Note_on_c, 10, 90, 0
15, 109134, Note_on_c, 10, 78, 33
15, 109150, Note_on_c, 10, 78, 0
15, 109150, Note_on_c, 10, 66, 0
15, 109152, Note_on_c, 10, 78, 0
15, 109152, Note_on_c, 10, 78, 25
15, 109152, Note_on_c, 10, 74, 29
15, 109152, Note_on_c, 10, 78, 29
15, 109176, Note_on_c, 10, 78, 29
15, 109192, Note_on_c, 10, 78, 0
15, 109194, Note_on_c, 10, 86, 27
15, 109198, Note_on_c, 10, 74, 0
15, 109198, Note_on_c, 10, 78, 0
15, 109200, Note_on_c, 10, 66, 26
15, 109210, Note_on_c, 10, 86, 0
15, 109212, Note_on_c, 10, 90, 32
15, 109228, Note_on_c, 10, 90, 0
15, 109230, Note_on_c, 10, 78, 29
15, 109246, Note_on_c, 10, 78, 0
15, 109246, Note_on_c, 10, 66, 0
15, 109248, Note_on_c, 10, 78, 0
15, 109248, Note_on_c, 10, 74, 35
15, 109248, Note_on_c, 10, 70, 34
15, 109248, Note_on_c, 10, 74, 35
15, 109272, Note_on_c, 10, 74, 31
15, 109288, Note_on_c, 10, 74, 0
15, 109290, Note_on_c, 10, 78, 34
15, 109294, Note_on_c, 10, 70, 0
15, 109294, Note_on_c, 10, 74, 0
15, 109296, Note_on_c, 10, 62, 31
15, 109306, Note_on_c, 10, 78, 0
15, 109308, Note_on_c, 10, 86, 30
15, 109324, Note_on_c, 10, 86, 0
15, 109326, Note_on_c, 10, 74, 29
15, 109342, Note_on_c, 10, 74, 0
15, 109342, Note_on_c, 10, 62, 0
15, 109344, Note_on_c, 10, 74, 0
15, 109344, Note_on_c, 10, 62, 30
15, 109344, Note_on_c, 10, 66, 34
15, 109344, Note_on_c, 10, 66, 26
15, 109368, Note_on_c, 10, 66, 27
15, 109384, Note_on_c, 10, 66, 0
15, 109386, Note_on_c, 10, 74, 34
15, 109390, Note_on_c, 10, 62, 0
15, 109390, Note_on_c, 10, 66, 0
15, 109392, Note_on_c, 10, 54, 25
15, 109402, Note_on_c, 10, 74, 0
15, 109404, Note_on_c, 10, 78, 33
15, 109420, Note_on_c, 10, 78, 0
15, 109422, Note_on_c, 10, 66, 32
15, 109438, Note_on_c, 10, 66, 0
15, 109438, Note_on_c, 10, 54, 0
15, 109440, Note_on_c, 10, 66, 0
15, 109440, Note_on_c, 10, 78, 27
15, 109440, Note_on_c, 10, 74, 28
15, 109440, Note_on_c, 10, 78, 35
15, 109464, Note_on_c, 10, 78, 26
15, 109480, Note_on_c, 10, 78, 0
15, 109482, Note_on_c, 10, 86, 31
15, 109486, Note_on_c, 10, 74, 0
15, 109486, Note_on_c, 10, 78, 0
15, 109488, Note_on_c, 10, 66, 34
15, 109498, Note_on_c, 10, 86, 0
15, 109500, Note_on_c, 10, 90, 30
15, 109516, Note_on_c, 10, 90, 0
15, 109518, Note_on_c, 10, 78, 27
15, 109534, Note_on_c, 10, 78, 0
15, 109534, Note_on_c, 10, 66, 0
15, 109536, Note_on_c, 10, 78, 0
15, 109536, Note_on_c, 10, 73, 41
15, 109536, Note_on_c, 10, 78, 40
15, 109536, Note_on_c, 10, 78, 41
15, 109560, Note_on_c, 10, 78, 45
15, 109576, Note_on_c, 10, 78, 0
15, 109578, Note_on_c, 10, 85, 45
15, 109582, Note_on_c, 10, 73, 0
15, 109582, Note_on_c, 10, 78, 0
15, 109584, Note_on_c, 10, 66, 46
15, 109594, Note_on_c, 10, 85, 0
15, 109596, Note_on_c, 10, 90, 46
15, 109612, Note_on_c, 10, 90, 0
15, 109614, Note_on_c, 10, 78, 43
15, 109630, Note_on_c, 10, 78, 0
15, 109630, Note_on_c, 10, 66, 0
15, 109632, Note_on_c, 10, 78, 0
15, 109632, Note_on_c, 10, 73, 42
15, 109632, Note_on_c, 10, 70, 42
15, 109632, Note_on_c, 10, 73, 40
15, 109656, Note_on_c, 10, 73, 48
15, 109666, Note_on_c, 10, 73, 0
15, 109668, Note_on_c, 10, 78, 48
15, 109678, Note_on_c, 10, 70, 0
15, 109678, Note_on_c, 10, 73, 0
15, 109678, Note_on_c, 10, 78, 0
15, 109680, Note_on_c, 10, 61, 45
15, 109680, Note_on_c, 10, 85, 41
15, 109690, Note_on_c, 10, 85, 0
15, 109692, Note_on_c, 10, 73, 41
15, 109702, Note_on_c, 10, 73, 0
15, 109726, Note_on_c, 10, 61, 0
15, 109728, Note_on_c, 10, 73, 0
15, 109728, Note_on_c, 10, 61, 41
15, 109728, Note_on_c, 10, 66, 52
15, 109728, Note_on_c, 10, 66, 41
15, 109752, Note_on_c, 10, 66, 43
15, 109768, Note_on_c, 10, 66, 0
15, 109770, Note_on_c, 10, 73, 50
15, 109774, Note_on_c, 10, 61, 0
15, 109774, Note_on_c, 10, 66, 0
15, 109776, Note_on_c, 10, 54, 40
15, 109786, Note_on_c, 10, 73, 0
15, 109788, Note_on_c, 10, 78, 43
15, 109804, Note_on_c, 10, 78, 0
15, 109806, Note_on_c, 10, 66, 45
15, 109822, Note_on_c, 10, 66, 0
15, 109822, Note_on_c, 10, 54, 0
15, 109824, Note_on_c, 10, 66, 0
15, 109824, Note_on_c, 10, 73, 43
15, 109824, Note_on_c, 10, 78, 46
15, 109824, Note_on_c, 10, 78, 53
15, 109848, Note_on_c, 10, 78, 48
15, 109864, Note_on_c, 10, 78, 0
15, 109866, Note_on_c, 10, 85, 47
15, 109870, Note_on_c, 10, 73, 0
15, 109870, Note_on_c, 10, 78, 0
15, 109872, Note_on_c, 10, 66, 49
15, 109882, Note_on_c, 10, 85, 0
15, 109884, Note_on_c, 10, 90, 49
15, 109900, Note_on_c, 10, 90, 0
15, 109902, Note_on_c, 10, 78, 48
15, 109918, Note_on_c, 10, 78, 0
15, 109918, Note_on_c, 10, 66, 0
15, 109920, Note_on_c, 10, 78, 0
15, 109920, Note_on_c, 10, 73, 44
15, 109920, Note_on_c, 10, 78, 52
15, 109920, Note_on_c, 10, 78, 48
15, 109944, Note_on_c, 10, 78, 46
15, 109960, Note_on_c, 10, 78, 0
15, 109962, Note_on_c, 10, 85, 47
15, 109966, Note_on_c, 10, 73, 0
15, 109966, Note_on_c, 10, 78, 0
15, 109968, Note_on_c, 10, 66, 48
15, 109978, Note_on_c, 10, 85, 0
15, 109980, Note_on_c, 10, 90, 46
15, 109996, Note_on_c, 10, 90, 0
15, 109998, Note_on_c, 10, 78, 53
15, 110014, Note_on_c, 10, 78, 0
15, 110014, Note_on_c, 10, 66, 0
15, 110016, Note_on_c, 10, 78, 0
15, 110016, Note_on_c, 10, 70, 42
15, 110016, Note_on_c, 10, 73, 45
15, 110016, Note_on_c, 10, 73, 55
15, 110040, Note_on_c, 10, 73, 45
15, 110056, Note_on_c, 10, 73, 0
15, 110058, Note_on_c, 10, 78, 48
15, 110062, Note_on_c, 10, 70, 0
15, 110062, Note_on_c, 10, 73, 0
15, 110064, Note_on_c, 10, 61, 49
15, 110074, Note_on_c, 10, 78, 0
15, 110076, Note_on_c, 10, 85, 54
15, 110092, Note_on_c, 10, 85, 0
15, 110094, Note_on_c, 10, 73, 49
15, 110110, Note_on_c, 10, 73, 0
15, 110110, Note_on_c, 10, 61, 0
15, 110112, Note_on_c, 10, 73, 0
15, 110112, Note_on_c, 10, 66, 62
15, 110112, Note_on_c, 10, 61, 40
15, 110112, Note_on_c, 10, 66, 45
15, 110136, Note_on_c, 10, 66, 51
15, 110152, Note_on_c, 10, 66, 0
15, 110154, Note_on_c, 10, 73, 49
15, 110158, Note_on_c, 10, 61, 0
15, 110158, Note_on_c, 10, 66, 0
15, 110160, Note_on_c, 10, 54, 46
15, 110170, Note_on_c, 10, 73, 0
15, 110172, Note_on_c, 10, 78, 51
15, 110188, Note_on_c, 10, 78, 0
15, 110190, Note_on_c, 10, 66, 49
15, 110206, Note_on_c, 10, 66, 0
15, 110206, Note_on_c, 10, 54, 0
15, 110208, Note_on_c, 10, 66, 0
15, 110208, Note_on_c, 10, 73, 50
15, 110208, Note_on_c, 10, 78, 68
15, 110208, Note_on_c, 10, 78, 42
15, 110232, Note_on_c, 10, 78, 60
15, 110248, Note_on_c, 10, 78, 0
15, 110250, Note_on_c, 10, 85, 57
15, 110254, Note_on_c, 10, 73, 0
15, 110254, Note_on_c, 10, 78, 0
15, 110256, Note_on_c, 10, 66, 45
15, 110266, Note_on_c, 10, 85, 0
15, 110268, Note_on_c, 10, 90, 59
15, 110284, Note_on_c, 10, 90, 0
15, 110286, Note_on_c, 10, 78, 58
15, 110302, Note_on_c, 10, 78, 0
15, 110302, Note_on_c, 10, 66, 0
15, 110304, Note_on_c, 10, 78, 0
15, 110888, Note_on_c, 10, 34, 95
15, 110888, Note_on_c, 10, 46, 93
15, 110894, Note_on_c, 10, 46, 0
15, 110896, Note_on_c, 10, 34, 0
15, 110896, Note_on_c, 10, 48, 96
15, 110896, Note_on_c, 10, 36, 94
15, 110902, Note_on_c, 10, 48, 0
15, 110904, Note_on_c, 10, 36, 0
15, 110904, Note_on_c, 10, 49, 88
15, 110904, Note_on_c, 10, 37, 87
15, 110910, Note_on_c, 10, 49, 0
15, 110912, Note_on_c, 10, 37, 0
15, 110912, Note_on_c, 10, 51, 89
15, 110912, Note_on_c, 10, 39, 95
15, 110918, Note_on_c, 10, 51, 0
15, 110920, Note_on_c, 10, 39, 0
15, 110920, Note_on_c, 10, 53, 90
15, 110920, Note_on_c, 10, 41, 91
15, 110926, Note_on_c, 10, 53, 0
15, 110928, Note_on_c, 10, 41, 0
15, 110928, Note_on_c, 10, 54, 88
15, 110928, Note_on_c, 10, 42, 93
15, 110934, Note_on_c, 10, 54, 0
15, 110936, Note_on_c, 10, 42, 0
15, 110936, Note_on_c, 10, 44, 89
15, 110936, Note_on_c, 10, 56, 97
15, 110942, Note_on_c, 10, 56, 0
15, 110944, Note_on_c, 10, 44, 0
15, 110944, Note_on_c, 10, 58, 92
15, 110944, Note_on_c, 10, 46, 89
15, 110950, Note_on_c, 10, 58, 0
15, 110952, Note_on_c, 10, 46, 0
15, 110952, Note_on_c, 10, 60, 90
15, 110952, Note_on_c, 10, 48, 91
15, 110958, Note_on_c, 10, 60, 0
15, 110960, Note_on_c, 10, 48, 0
15, 110960, Note_on_c, 10, 61, 95
15, 110960, Note_on_c, 10, 49, 98
15, 110966, Note_on_c, 10, 61, 0
15, 110968, Note_on_c, 10, 49, 0
15, 110968, Note_on_c, 10, 63, 100
15, 110968, Note_on_c, 10, 51, 99
15, 110974, Note_on_c, 10, 63, 0
15, 110976, Note_on_c, 10, 51, 0
15, 110976, Note_on_c, 10, 53, 99
15, 110976, Note_on_c, 10, 65, 94
15, 110982, Note_on_c, 10, 65, 0
15, 110984, Note_on_c, 10, 53, 0
15, 110984, Note_on_c, 10, 54, 95
15, 110984, Note_on_c, 10, 66, 98
15, 110990, Note_on_c, 10, 66, 0
15, 110992, Note_on_c, 10, 54, 0
15, 110992, Note_on_c, 10, 56, 95
15, 110992, Note_on_c, 10, 68, 94
15, 110998, Note_on_c, 10, 68, 0
15, 111000, Note_on_c, 10, 56, 0
15, 111000, Note_on_c, 10, 58, 94
15, 111000, Note_on_c, 10, 70, 96
15, 111006, Note_on_c, 10, 70, 0
15, 111008, Note_on_c, 10, 58, 0
15, 111008, Note_on_c, 10, 72, 97
15, 111008, Note_on_c, 10, 60, 100
15, 111014, Note_on_c, 10, 72, 0
15, 111016, Note_on_c, 10, 60, 0
15, 111016, Note_on_c, 10, 73, 102
15, 111016, Note_on_c, 10, 61, 105
15, 111022, Note_on_c, 10, 73, 0
15, 111024, Note_on_c, 10, 61, 0
15, 111024, Note_on_c, 10, 75, 98
15, 111024, Note_on_c, 10, 63, 99
15, 111030, Note_on_c, 10, 75, 0
15, 111032, Note_on_c, 10, 63, 0
15, 111032, Note_on_c, 10, 77, 101
15, 111032, Note_on_c, 10, 65, 104
15, 111038, Note_on_c, 10, 77, 0
15, 111040, Note_on_c, 10, 65, 0
15, 111040, Note_on_c, 10, 78, 107
15, 111040, Note_on_c, 10, 66, 106
15, 111046, Note_on_c, 10, 78, 0
15, 111048, Note_on_c, 10, 66, 0
15, 111048, Note_on_c, 10, 80, 100
15, 111048, Note_on_c, 10, 68, 100
15, 111054, Note_on_c, 10, 80, 0
15, 111056, Note_on_c, 10, 68, 0
15, 111056, Note_on_c, 10, 70, 101
15, 111056, Note_on_c, 10, 82, 110
15, 111062, Note_on_c, 10, 82, 0
15, 111064, Note_on_c, 10, 70, 0
15, 111064, Note_on_c, 10, 72, 104
15, 111064, Note_on_c, 10, 84, 104
15, 111070, Note_on_c, 10, 84, 0
15, 111072, Note_on_c, 10, 72, 0
15, 111072, Note_on_c, 10, 73, 109
15, 111072, Note_on_c, 10, 85, 107
15, 111166, Note_on_c, 10, 85, 0
15, 111168, Note_on_c, 10, 73, 0
15, 111608, Note_on_c, 10, 53, 96
15, 111608, Note_on_c, 10, 65, 96
15, 111614, Note_on_c, 10, 65, 0
15, 111616, Note_on_c, 10, 53, 0
15, 111616, Note_on_c, 10, 67, 97
15, 111616, Note_on_c, 10, 55, 90
15, 111622, Note_on_c, 10, 67, 0
15, 111624, Note_on_c, 10, 55, 0
15, 111624, Note_on_c, 10, 56, 98
15, 111624, Note_on_c, 10, 68, 89
15, 111630, Note_on_c, 10, 68, 0
15, 111632, Note_on_c, 10, 56, 0
15, 111632, Note_on_c, 10, 70, 89
15, 111632, Note_on_c, 10, 58, 91
15, 111638, Note_on_c, 10, 70, 0
15, 111640, Note_on_c, 10, 58, 0
15, 111640, Note_on_c, 10, 60, 94
15, 111640, Note_on_c, 10, 72, 93
15, 111646, Note_on_c, 10, 72, 0
15, 111648, Note_on_c, 10, 60, 0
15, 111648, Note_on_c, 10, 73, 91
15, 111648, Note_on_c, 10, 61, 96
15, 111654, Note_on_c, 10, 73, 0
15, 111656, Note_on_c, 10, 61, 0
15, 111656, Note_on_c, 10, 75, 99
15, 111656, Note_on_c, 10, 63, 94
15, 111662, Note_on_c, 10, 75, 0
15, 111664, Note_on_c, 10, 63, 0
15, 111664, Note_on_c, 10, 77, 95
15, 111664, Note_on_c, 10, 65, 99
15, 111670, Note_on_c, 10, 77, 0
15, 111672, Note_on_c, 10, 65, 0
15, 111672, Note_on_c, 10, 79, 101
15, 111672, Note_on_c, 10, 67, 104
15, 111678, Note_on_c, 10, 79, 0
15, 111680, Note_on_c, 10, 67, 0
15, 111680, Note_on_c, 10, 68, 100
15, 111680, Note_on_c, 10, 80, 102
15, 111686, Note_on_c, 10, 80, 0
15, 111688, Note_on_c, 10, 68, 0
15, 111688, Note_on_c, 10, 70, 106
15, 111688, Note_on_c, 10, 82, 102
15, 111694, Note_on_c, 10, 82, 0
15, 111696, Note_on_c, 10, 70, 0
15, 111696, Note_on_c, 10, 84, 101
15, 111696, Note_on_c, 10, 72, 99
15, 111702, Note_on_c, 10, 84, 0
15, 111704, Note_on_c, 10, 72, 0
15, 111704, Note_on_c, 10, 73, 107
15, 111704, Note_on_c, 10, 85, 104
15, 111710, Note_on_c, 10, 85, 0
15, 111712, Note_on_c, 10, 73, 0
15, 111712, Note_on_c, 10, 87, 103
15, 111712, Note_on_c, 10, 75, 103
15, 111718, Note_on_c, 10, 87, 0
15, 111720, Note_on_c, 10, 75, 0
15, 111720, Note_on_c, 10, 77, 109
15, 111720, Note_on_c, 10, 89, 105
15, 111726, Note_on_c, 10, 89, 0
15, 111728, Note_on_c, 10, 77, 0
15, 111728, Note_on_c, 10, 79, 103
15, 111728, Note_on_c, 10, 91, 101
15, 111734, Note_on_c, 10, 91, 0
15, 111736, Note_on_c, 10, 79, 0
15, 111736, Note_on_c, 10, 80, 109
15, 111736, Note_on_c, 10, 92, 107
15, 111742, Note_on_c, 10, 92, 0
15, 111744, Note_on_c, 10, 80, 0
15, 111840, Note_on_c, 10, 82, 107
15, 111840, Note_on_c, 10, 58, 111
15, 111864, Note_on_c, 10, 94, 105
15, 111864, Note_on_c, 10, 70, 107
15, 111934, Note_on_c, 10, 82, 0
15, 111934, Note_on_c, 10, 94, 0
15, 111936, Note_on_c, 10, 58, 0
15, 111936, Note_on_c, 10, 70, 0
15, 111936, Note_on_c, 10, 80, 110
15, 111936, Note_on_c, 10, 56, 105
15, 111960, Note_on_c, 10, 68, 104
15, 111960, Note_on_c, 10, 92, 105
15, 112030, Note_on_c, 10, 80, 0
15, 112030, Note_on_c, 10, 92, 0
15, 112032, Note_on_c, 10, 56, 0
15, 112032, Note_on_c, 10, 68, 0
15, 112032, Note_on_c, 10, 53, 111
15, 112032, Note_on_c, 10, 77, 113
15, 112056, Note_on_c, 10, 65, 108
15, 112056, Note_on_c, 10, 89, 110
15, 112126, Note_on_c, 10, 77, 0
15, 112126, Note_on_c, 10, 89, 0
15, 112128, Note_on_c, 10, 53, 0
15, 112128, Note_on_c, 10, 65, 0
15, 112128, Note_on_c, 10, 58, 109
15, 112128, Note_on_c, 10, 82, 103
15, 112152, Note_on_c, 10, 70, 113
15, 112152, Note_on_c, 10, 94, 109
15, 112222, Note_on_c, 10, 82, 0
15, 112222, Note_on_c, 10, 94, 0
15, 112224, Note_on_c, 10, 58, 0
15, 112224, Note_on_c, 10, 70, 0
15, 112224, Note_on_c, 10, 80, 112
15, 112224, Note_on_c, 10, 56, 111
15, 112248, Note_on_c, 10, 68, 113
15, 112248, Note_on_c, 10, 92, 104
15, 112318, Note_on_c, 10, 80, 0
15, 112318, Note_on_c, 10, 92, 0
15, 112320, Note_on_c, 10, 56, 0
15, 112320, Note_on_c, 10, 68, 0
15, 112320, Note_on_c, 10, 77, 109
15, 112320, Note_on_c, 10, 53, 113
15, 112344, Note_on_c, 10, 65, 103
15, 112344, Note_on_c, 10, 89, 113
15, 112414, Note_on_c, 10, 77, 0
15, 112414, Note_on_c, 10, 89, 0
15, 112416, Note_on_c, 10, 53, 0
15, 112416, Note_on_c, 10, 65, 0
15, 112416, Note_on_c, 10, 82, 103
15, 112416, Note_on_c, 10, 58, 109
15, 112440, Note_on_c, 10, 70, 112
15, 112440, Note_on_c, 10, 94, 104
15, 112510, Note_on_c, 10, 82, 0
15, 112510, Note_on_c, 10, 94, 0
15, 112512, Note_on_c, 10, 58, 0
15, 112512, Note_on_c, 10, 70, 0
15, 112512, Note_on_c, 10, 80, 109
15, 112512, Note_on_c, 10, 56, 110
15, 112536, Note_on_c, 10, 68, 105
15, 112536, Note_on_c, 10, 92, 103
15, 112606, Note_on_c, 10, 80, 0
15, 112606, Note_on_c, 10, 92, 0
15, 112608, Note_on_c, 10, 56, 0
15, 112608, Note_on_c, 10, 68, 0
15, 112608, End_track
16, 0, Start_track
16, 0, Title_t, "Violini I - a"
16, 0, MIDI_port, 0
16, 6912, Program_c, 11, 44
16, 6912, Control_c, 11, 11, 92
16, 8064, Note_on_c, 11, 95, 44
16, 8832, Control_c, 11, 11, 92
16, 8853, Control_c, 11, 11, 93
16, 8875, Control_c, 11, 11, 94
16, 8897, Control_c, 11, 11, 95
16, 8919, Control_c, 11, 11, 96
16, 8941, Control_c, 11, 11, 97
16, 8963, Control_c, 11, 11, 98
16, 8985, Control_c, 11, 11, 99
16, 9007, Control_c, 11, 11, 100
16, 9029, Control_c, 11, 11, 101
16, 9051, Control_c, 11, 11, 102
16, 9073, Control_c, 11, 11, 103
16, 9095, Control_c, 11, 11, 104
16, 9117, Control_c, 11, 11, 105
16, 9139, Control_c, 11, 11, 106
16, 9161, Control_c, 11, 11, 107
16, 9183, Control_c, 11, 11, 108
16, 9205, Control_c, 11, 11, 109
16, 9226, Control_c, 11, 11, 110
16, 9248, Control_c, 11, 11, 111
16, 9270, Control_c, 11, 11, 112
16, 9292, Control_c, 11, 11, 113
16, 9314, Control_c, 11, 11, 114
16, 9336, Control_c, 11, 11, 115
16, 9358, Control_c, 11, 11, 116
16, 9380, Control_c, 11, 11, 117
16, 9402, Control_c, 11, 11, 118
16, 9424, Control_c, 11, 11, 119
16, 9446, Control_c, 11, 11, 120
16, 9468, Control_c, 11, 11, 121
16, 9490, Control_c, 11, 11, 122
16, 9512, Control_c, 11, 11, 123
16, 9534, Control_c, 11, 11, 124
16, 9556, Control_c, 11, 11, 125
16, 9578, Control_c, 11, 11, 126
16, 9600, Control_c, 11, 11, 127
16, 9792, Note_on_c, 11, 95, 0
16, 9792, Note_on_c, 11, 93, 47
16, 9984, Note_on_c, 11, 93, 0
16, 9984, Control_c, 11, 11, 127
16, 9984, Note_on_c, 11, 92, 47
16, 10002, Control_c, 11, 11, 126
16, 10020, Control_c, 11, 11, 125
16, 10038, Control_c, 11, 11, 124
16, 10057, Control_c, 11, 11, 123
16, 10075, Control_c, 11, 11, 122
16, 10093, Control_c, 11, 11, 121
16, 10112, Control_c, 11, 11, 120
16, 10130, Control_c, 11, 11, 119
16, 10148, Control_c, 11, 11, 118
16, 10166, Control_c, 11, 11, 117
16, 10176, Note_on_c, 11, 92, 0
16, 10176, Note_on_c, 11, 90, 40
16, 10185, Control_c, 11, 11, 116
16, 10203, Control_c, 11, 11, 115
16, 10221, Control_c, 11, 11, 114
16, 10240, Control_c, 11, 11, 113
16, 10258, Control_c, 11, 11, 112
16, 10276, Control_c, 11, 11, 111
16, 10294, Control_c, 11, 11, 110
16, 10313, Control_c, 11, 11, 109
16, 10331, Control_c, 11, 11, 108
16, 10349, Control_c, 11, 11, 107
16, 10368, Note_on_c, 11, 90, 0
16, 10368, Control_c, 11, 11, 106
16, 10368, Note_on_c, 11, 83, 45
16, 10386, Control_c, 11, 11, 105
16, 10404, Control_c, 11, 11, 104
16, 10422, Control_c, 11, 11, 103
16, 10441, Control_c, 11, 11, 102
16, 10459, Control_c, 11, 11, 101
16, 10477, Control_c, 11, 11, 100
16, 10496, Control_c, 11, 11, 99
16, 10514, Control_c, 11, 11, 98
16, 10532, Control_c, 11, 11, 97
16, 10550, Control_c, 11, 11, 96
16, 10560, Note_on_c, 11, 83, 0
16, 10560, Note_on_c, 11, 81, 42
16, 10569, Control_c, 11, 11, 95
16, 10587, Control_c, 11, 11, 94
16, 10605, Control_c, 11, 11, 93
16, 10624, Control_c, 11, 11, 92
16, 10642, Control_c, 11, 11, 91
16, 10660, Control_c, 11, 11, 90
16, 10678, Control_c, 11, 11, 89
16, 10697, Control_c, 11, 11, 88
16, 10715, Control_c, 11, 11, 87
16, 10733, Control_c, 11, 11, 86
16, 10752, Note_on_c, 11, 81, 0
16, 10752, Control_c, 11, 11, 85
16, 10752, Note_on_c, 11, 80, 40
16, 10770, Control_c, 11, 11, 84
16, 10788, Control_c, 11, 11, 83
16, 10806, Control_c, 11, 11, 82
16, 10825, Control_c, 11, 11, 81
16, 10843, Control_c, 11, 11, 80
16, 10861, Control_c, 11, 11, 79
16, 10880, Control_c, 11, 11, 78
16, 10898, Control_c, 11, 11, 77
16, 10916, Control_c, 11, 11, 76
16, 10934, Control_c, 11, 11, 75
16, 10944, Note_on_c, 11, 80, 0
16, 10944, Note_on_c, 11, 78, 46
16, 10953, Control_c, 11, 11, 74
16, 10971, Control_c, 11, 11, 73
16, 10989, Control_c, 11, 11, 72
16, 11008, Control_c, 11, 11, 71
16, 11026, Control_c, 11, 11, 70
16, 11044, Control_c, 11, 11, 69
16, 11062, Control_c, 11, 11, 68
16, 11081, Control_c, 11, 11, 67
16, 11099, Control_c, 11, 11, 66
16, 11117, Control_c, 11, 11, 65
16, 11136, Note_on_c, 11, 78, 0
16, 11136, Control_c, 11, 11, 64
16, 12672, Control_c, 11, 11, 127
16, 16512, Program_c, 11, 44
16, 16512, Control_c, 11, 11, 92
16, 16512, Note_on_c, 11, 95, 44
16, 16533, Control_c, 11, 11, 93
16, 16555, Control_c, 11, 11, 94
16, 16577, Control_c, 11, 11, 95
16, 16599, Control_c, 11, 11, 96
16, 16621, Control_c, 11, 11, 97
16, 16643, Control_c, 11, 11, 98
16, 16665, Control_c, 11, 11, 99
16, 16687, Control_c, 11, 11, 100
16, 16709, Control_c, 11, 11, 101
16, 16731, Control_c, 11, 11, 102
16, 16753, Control_c, 11, 11, 103
16, 16775, Control_c, 11, 11, 104
16, 16797, Control_c, 11, 11, 105
16, 16819, Control_c, 11, 11, 106
16, 16841, Control_c, 11, 11, 107
16, 16863, Control_c, 11, 11, 108
16, 16885, Control_c, 11, 11, 109
16, 16906, Control_c, 11, 11, 110
16, 16928, Control_c, 11, 11, 111
16, 16950, Control_c, 11, 11, 112
16, 16972, Control_c, 11, 11, 113
16, 16994, Control_c, 11, 11, 114
16, 17016, Control_c, 11, 11, 115
16, 17038, Control_c, 11, 11, 116
16, 17060, Control_c, 11, 11, 117
16, 17082, Control_c, 11, 11, 118
16, 17104, Control_c, 11, 11, 119
16, 17126, Control_c, 11, 11, 120
16, 17148, Control_c, 11, 11, 121
16, 17170, Control_c, 11, 11, 122
16, 17192, Control_c, 11, 11, 123
16, 17214, Control_c, 11, 11, 124
16, 17236, Control_c, 11, 11, 125
16, 17258, Control_c, 11, 11, 126
16, 17280, Control_c, 11, 11, 127
16, 17280, Control_c, 11, 11, 92
16, 17472, Note_on_c, 11, 95, 0
16, 17472, Note_on_c, 11, 93, 40
16, 17664, Note_on_c, 11, 93, 0
16, 17664, Note_on_c, 11, 92, 42
16, 17856, Note_on_c, 11, 92, 0
16, 17856, Note_on_c, 11, 90, 48
16, 18048, Note_on_c, 11, 90, 0
16, 18048, Note_on_c, 11, 83, 49
16, 18240, Note_on_c, 11, 83, 0
16, 18240, Note_on_c, 11, 81, 43
16, 18432, Note_on_c, 11, 81, 0
16, 18432, Note_on_c, 11, 80, 46
16, 18624, Note_on_c, 11, 80, 0
16, 18624, Note_on_c, 11, 78, 50
16, 18816, Note_on_c, 11, 78, 0
16, 26880, Program_c, 11, 44
16, 28032, Control_c, 11, 11, 45
16, 28032, Note_on_c, 11, 83, 90
16, 28060, Control_c, 11, 11, 46
16, 28088, Control_c, 11, 11, 47
16, 28116, Control_c, 11, 11, 48
16, 28144, Control_c, 11, 11, 49
16, 28172, Control_c, 11, 11, 50
16, 28200, Control_c, 11, 11, 51
16, 28228, Control_c, 11, 11, 52
16, 28256, Control_c, 11, 11, 53
16, 28284, Control_c, 11, 11, 54
16, 28312, Control_c, 11, 11, 55
16, 28320, Note_on_c, 11, 83, 0
16, 28320, Note_on_c, 11, 85, 95
16, 28341, Control_c, 11, 11, 56
16, 28369, Control_c, 11, 11, 57
16, 28397, Control_c, 11, 11, 58
16, 28425, Control_c, 11, 11, 59
16, 28453, Control_c, 11, 11, 60
16, 28481, Control_c, 11, 11, 61
16, 28509, Control_c, 11, 11, 62
16, 28537, Control_c, 11, 11, 63
16, 28565, Control_c, 11, 11, 64
16, 28593, Control_c, 11, 11, 65
16, 28608, Note_on_c, 11, 85, 0
16, 28608, Note_on_c, 11, 83, 92
16, 28622, Control_c, 11, 11, 66
16, 28650, Control_c, 11, 11, 67
16, 28678, Control_c, 11, 11, 68
16, 28706, Control_c, 11, 11, 69
16, 28734, Control_c, 11, 11, 70
16, 28762, Control_c, 11, 11, 71
16, 28790, Control_c, 11, 11, 72
16, 28818, Control_c, 11, 11, 73
16, 28846, Control_c, 11, 11, 74
16, 28874, Control_c, 11, 11, 75
16, 28896, Note_on_c, 11, 83, 0
16, 28896, Note_on_c, 11, 85, 88
16, 28903, Control_c, 11, 11, 76
16, 28931, Control_c, 11, 11, 77
16, 28959, Control_c, 11, 11, 78
16, 28987, Control_c, 11, 11, 79
16, 29015, Control_c, 11, 11, 80
16, 29043, Control_c, 11, 11, 81
16, 29071, Control_c, 11, 11, 82
16, 29099, Control_c, 11, 11, 83
16, 29127, Control_c, 11, 11, 84
16, 29155, Control_c, 11, 11, 85
16, 29183, Control_c, 11, 11, 86
16, 29184, Note_on_c, 11, 85, 0
16, 29184, Note_on_c, 11, 83, 95
16, 29212, Control_c, 11, 11, 87
16, 29240, Control_c, 11, 11, 88
16, 29268, Control_c, 11, 11, 89
16, 29296, Control_c, 11, 11, 90
16, 29324, Control_c, 11, 11, 91
16, 29352, Control_c, 11, 11, 92
16, 29380, Control_c, 11, 11, 93
16, 29408, Control_c, 11, 11, 94
16, 29436, Control_c, 11, 11, 95
16, 29464, Control_c, 11, 11, 96
16, 29472, Note_on_c, 11, 83, 0
16, 29472, Note_on_c, 11, 85, 91
16, 29493, Control_c, 11, 11, 97
16, 29521, Control_c, 11, 11, 98
16, 29549, Control_c, 11, 11, 99
16, 29577, Control_c, 11, 11, 100
16, 29605, Control_c, 11, 11, 101
16, 29633, Control_c, 11, 11, 102
16, 29661, Control_c, 11, 11, 103
16, 29689, Control_c, 11, 11, 104
16, 29717, Control_c, 11, 11, 105
16, 29745, Control_c, 11, 11, 106
16, 29760, Note_on_c, 11, 85, 0
16, 29760, Note_on_c, 11, 83, 89
16, 29774, Control_c, 11, 11, 107
16, 29802, Control_c, 11, 11, 108
16, 29830, Control_c, 11, 11, 109
16, 29858, Control_c, 11, 11, 110
16, 29886, Control_c, 11, 11, 111
16, 29914, Control_c, 11, 11, 112
16, 29942, Control_c, 11, 11, 113
16, 29970, Control_c, 11, 11, 114
16, 29998, Control_c, 11, 11, 115
16, 30026, Control_c, 11, 11, 116
16, 30048, Note_on_c, 11, 83, 0
16, 30048, Note_on_c, 11, 85, 96
16, 30055, Control_c, 11, 11, 117
16, 30083, Control_c, 11, 11, 118
16, 30111, Control_c, 11, 11, 119
16, 30139, Control_c, 11, 11, 120
16, 30167, Control_c, 11, 11, 121
16, 30195, Control_c, 11, 11, 122
16, 30223, Control_c, 11, 11, 123
16, 30251, Control_c, 11, 11, 124
16, 30279, Control_c, 11, 11, 125
16, 30307, Control_c, 11, 11, 126
16, 30336, Note_on_c, 11, 85, 0
16, 30336, Control_c, 11, 11, 127
16, 35520, Program_c, 11, 48
16, 36672, Note_on_c, 11, 75, 77
16, 36672, Note_on_c, 11, 82, 73
16, 36694, Note_on_c, 11, 75, 0
16, 36694, Note_on_c, 11, 82, 0
16, 36696, Note_on_c, 11, 77, 75
16, 36696, Note_on_c, 11, 80, 75
16, 36718, Note_on_c, 11, 77, 0
16, 36718, Note_on_c, 11, 80, 0
16, 36720, Note_on_c, 11, 75, 77
16, 36720, Note_on_c, 11, 82, 69
16, 36742, Note_on_c, 11, 75, 0
16, 36742, Note_on_c, 11, 82, 0
16, 36744, Note_on_c, 11, 77, 75
16, 36744, Note_on_c, 11, 80, 78
16, 36766, Note_on_c, 11, 77, 0
16, 36766, Note_on_c, 11, 80, 0
16, 36768, Note_on_c, 11, 75, 72
16, 36768, Note_on_c, 11, 82, 68
16, 36790, Note_on_c, 11, 75, 0
16, 36790, Note_on_c, 11, 82, 0
16, 36792, Note_on_c, 11, 77, 74
16, 36792, Note_on_c, 11, 80, 73
16, 36814, Note_on_c, 11, 77, 0
16, 36814, Note_on_c, 11, 80, 0
16, 36816, Note_on_c, 11, 75, 75
16, 36816, Note_on_c, 11, 82, 73
16, 36838, Note_on_c, 11, 75, 0
16, 36838, Note_on_c, 11, 82, 0
16, 36840, Note_on_c, 11, 77, 72
16, 36840, Note_on_c, 11, 80, 73
16, 36862, Note_on_c, 11, 77, 0
16, 36862, Note_on_c, 11, 80, 0
16, 36864, Note_on_c, 11, 75, 72
16, 36864, Note_on_c, 11, 82, 70
16, 36886, Note_on_c, 11, 75, 0
16, 36886, Note_on_c, 11, 82, 0
16, 36888, Note_on_c, 11, 77, 71
16, 36888, Note_on_c, 11, 80, 70
16, 36910, Note_on_c, 11, 77, 0
16, 36910, Note_on_c, 11, 80, 0
16, 36912, Note_on_c, 11, 75, 61
16, 36912, Note_on_c, 11, 82, 69
16, 36934, Note_on_c, 11, 75, 0
16, 36934, Note_on_c, 11, 82, 0
16, 36936, Note_on_c, 11, 77, 62
16, 36936, Note_on_c, 11, 80, 63
16, 36958, Note_on_c, 11, 77, 0
16, 36958, Note_on_c, 11, 80, 0
16, 36960, Note_on_c, 11, 75, 66
16, 36960, Note_on_c, 11, 82, 69
16, 36982, Note_on_c, 11, 75, 0
16, 36982, Note_on_c, 11, 82, 0
16, 36984, Note_on_c, 11, 77, 59
16, 36984, Note_on_c, 11, 80, 61
16, 37006, Note_on_c, 11, 77, 0
16, 37006, Note_on_c, 11, 80, 0
16, 37008, Note_on_c, 11, 75, 61
16, 37008, Note_on_c, 11, 82, 63
16, 37030, Note_on_c, 11, 75, 0
16, 37030, Note_on_c, 11, 82, 0
16, 37032, Note_on_c, 11, 77, 57
16, 37032, Note_on_c, 11, 80, 58
16, 37054, Note_on_c, 11, 77, 0
16, 37054, Note_on_c, 11, 80, 0
16, 37056, Note_on_c, 11, 75, 64
16, 37056, Note_on_c, 11, 82, 57
16, 37078, Note_on_c, 11, 75, 0
16, 37078, Note_on_c, 11, 82, 0
16, 37080, Note_on_c, 11, 77, 61
16, 37080, Note_on_c, 11, 80, 54
16, 37102, Note_on_c, 11, 77, 0
16, 37102, Note_on_c, 11, 80, 0
16, 37104, Note_on_c, 11, 75, 60
16, 37104, Note_on_c, 11, 82, 59
16, 37126, Note_on_c, 11, 75, 0
16, 37126, Note_on_c, 11, 82, 0
16, 37128, Note_on_c, 11, 77, 52
16, 37128, Note_on_c, 11, 80, 60
16, 37150, Note_on_c, 11, 77, 0
16, 37150, Note_on_c, 11, 80, 0
16, 37152, Note_on_c, 11, 75, 57
16, 37152, Note_on_c, 11, 82, 51
16, 37174, Note_on_c, 11, 75, 0
16, 37174, Note_on_c, 11, 82, 0
16, 37176, Note_on_c, 11, 77, 48
16, 37176, Note_on_c, 11, 80, 54
16, 37198, Note_on_c, 11, 77, 0
16, 37198, Note_on_c, 11, 80, 0
16, 37200, Note_on_c, 11, 75, 50
16, 37200, Note_on_c, 11, 82, 54
16, 37222, Note_on_c, 11, 75, 0
16, 37222, Note_on_c, 11, 82, 0
16, 37224, Note_on_c, 11, 77, 43
16, 37224, Note_on_c, 11, 80, 51
16, 37246, Note_on_c, 11, 77, 0
16, 37246, Note_on_c, 11, 80, 0
16, 37824, Note_on_c, 11, 94, 35
16, 38494, Note_on_c, 11, 94, 0
16, 39552, Program_c, 11, 45
16, 39552, Note_on_c, 11, 75, 33
16, 39552, Note_on_c, 11, 80, 27
16, 39646, Note_on_c, 11, 75, 0
16, 39646, Note_on_c, 11, 80, 0
16, 39648, Note_on_c, 11, 75, 33
16, 39648, Note_on_c, 11, 80, 31
16, 39742, Note_on_c, 11, 75, 0
16, 39742, Note_on_c, 11, 80, 0
16, 39744, Note_on_c, 11, 75, 25
16, 39744, Note_on_c, 11, 80, 35
16, 39838, Note_on_c, 11, 75, 0
16, 39838, Note_on_c, 11, 80, 0
16, 39840, Note_on_c, 11, 73, 32
16, 39840, Note_on_c, 11, 80, 25
16, 39934, Note_on_c, 11, 73, 0
16, 39934, Note_on_c, 11, 80, 0
16, 39936, Note_on_c, 11, 73, 30
16, 39936, Note_on_c, 11, 80, 32
16, 40030, Note_on_c, 11, 73, 0
16, 40030, Note_on_c, 11, 80, 0
16, 40032, Note_on_c, 11, 73, 29
16, 40032, Note_on_c, 11, 80, 31
16, 40126, Note_on_c, 11, 73, 0
16, 40126, Note_on_c, 11, 80, 0
16, 40128, Note_on_c, 11, 75, 31
16, 40128, Note_on_c, 11, 80, 32
16, 40222, Note_on_c, 11, 75, 0
16, 40222, Note_on_c, 11, 80, 0
16, 40224, Note_on_c, 11, 75, 26
16, 40224, Note_on_c, 11, 80, 35
16, 40318, Note_on_c, 11, 75, 0
16, 40318, Note_on_c, 11, 80, 0
16, 40320, Note_on_c, 11, 75, 27
16, 40320, Note_on_c, 11, 80, 27
16, 40414, Note_on_c, 11, 75, 0
16, 40414, Note_on_c, 11, 80, 0
16, 40416, Note_on_c, 11, 73, 27
16, 40416, Note_on_c, 11, 80, 33
16, 40510, Note_on_c, 11, 73, 0
16, 40510, Note_on_c, 11, 80, 0
16, 40512, Note_on_c, 11, 73, 33
16, 40512, Note_on_c, 11, 80, 31
16, 40606, Note_on_c, 11, 73, 0
16, 40606, Note_on_c, 11, 80, 0
16, 40608, Note_on_c, 11, 73, 35
16, 40608, Note_on_c, 11, 80, 25
16, 40702, Note_on_c, 11, 73, 0
16, 40702, Note_on_c, 11, 80, 0
16, 40704, Note_on_c, 11, 75, 31
16, 40704, Note_on_c, 11, 80, 32
16, 40798, Note_on_c, 11, 75, 0
16, 40798, Note_on_c, 11, 80, 0
16, 40800, Note_on_c, 11, 75, 31
16, 40800, Note_on_c, 11, 80, 35
16, 40894, Note_on_c, 11, 75, 0
16, 40894, Note_on_c, 11, 80, 0
16, 40896, Note_on_c, 11, 75, 35
16, 40896, Note_on_c, 11, 80, 35
16, 40990, Note_on_c, 11, 75, 0
16, 40990, Note_on_c, 11, 80, 0
16, 40992, Note_on_c, 11, 74, 32
16, 40992, Note_on_c, 11, 80, 34
16, 41086, Note_on_c, 11, 74, 0
16, 41086, Note_on_c, 11, 80, 0
16, 41088, Note_on_c, 11, 74, 27
16, 41088, Note_on_c, 11, 80, 25
16, 41182, Note_on_c, 11, 74, 0
16, 41182, Note_on_c, 11, 80, 0
16, 41184, Note_on_c, 11, 77, 28
16, 41184, Note_on_c, 11, 80, 29
16, 41278, Note_on_c, 11, 77, 0
16, 41278, Note_on_c, 11, 80, 0
16, 41280, Note_on_c, 11, 81, 25
16, 41280, Note_on_c, 11, 83, 29
16, 41374, Note_on_c, 11, 81, 0
16, 41374, Note_on_c, 11, 83, 0
16, 41376, Note_on_c, 11, 81, 37
16, 41376, Note_on_c, 11, 83, 27
16, 41470, Note_on_c, 11, 81, 0
16, 41470, Note_on_c, 11, 83, 0
16, 41472, Note_on_c, 11, 80, 30
16, 41472, Note_on_c, 11, 83, 34
16, 41566, Note_on_c, 11, 80, 0
16, 41566, Note_on_c, 11, 83, 0
16, 41568, Note_on_c, 11, 79, 41
16, 41568, Note_on_c, 11, 83, 40
16, 41662, Note_on_c, 11, 79, 0
16, 41662, Note_on_c, 11, 83, 0
16, 41664, Note_on_c, 11, 79, 39
16, 41664, Note_on_c, 11, 83, 40
16, 41758, Note_on_c, 11, 79, 0
16, 41758, Note_on_c, 11, 83, 0
16, 41760, Note_on_c, 11, 78, 44
16, 41760, Note_on_c, 11, 83, 41
16, 41854, Note_on_c, 11, 78, 0
16, 41854, Note_on_c, 11, 83, 0
16, 41856, Note_on_c, 11, 77, 49
16, 41856, Note_on_c, 11, 83, 45
16, 41950, Note_on_c, 11, 77, 0
16, 41950, Note_on_c, 11, 83, 0
16, 42432, Program_c, 11, 48
16, 42432, Control_c, 11, 11, 75
16, 42432, Note_on_c, 11, 95, 61
16, 42443, Control_c, 11, 11, 76
16, 42454, Control_c, 11, 11, 77
16, 42465, Control_c, 11, 11, 78
16, 42476, Control_c, 11, 11, 79
16, 42487, Control_c, 11, 11, 80
16, 42498, Control_c, 11, 11, 81
16, 42509, Control_c, 11, 11, 82
16, 42520, Control_c, 11, 11, 83
16, 42531, Control_c, 11, 11, 84
16, 42542, Control_c, 11, 11, 85
16, 42553, Control_c, 11, 11, 86
16, 42564, Control_c, 11, 11, 87
16, 42576, Control_c, 11, 11, 88
16, 42587, Control_c, 11, 11, 89
16, 42598, Control_c, 11, 11, 90
16, 42609, Control_c, 11, 11, 91
16, 42620, Control_c, 11, 11, 92
16, 42631, Control_c, 11, 11, 93
16, 42642, Control_c, 11, 11, 94
16, 42653, Control_c, 11, 11, 95
16, 42664, Control_c, 11, 11, 96
16, 42675, Control_c, 11, 11, 97
16, 42686, Control_c, 11, 11, 98
16, 42697, Control_c, 11, 11, 99
16, 42708, Control_c, 11, 11, 100
16, 42720, Control_c, 11, 11, 101
16, 42731, Control_c, 11, 11, 102
16, 42742, Control_c, 11, 11, 103
16, 42753, Control_c, 11, 11, 104
16, 42764, Control_c, 11, 11, 105
16, 42775, Control_c, 11, 11, 106
16, 42786, Control_c, 11, 11, 107
16, 42797, Control_c, 11, 11, 108
16, 42808, Control_c, 11, 11, 109
16, 42819, Control_c, 11, 11, 110
16, 42830, Control_c, 11, 11, 111
16, 42841, Control_c, 11, 11, 112
16, 42852, Control_c, 11, 11, 113
16, 42864, Control_c, 11, 11, 114
16, 42875, Control_c, 11, 11, 115
16, 42886, Control_c, 11, 11, 116
16, 42897, Control_c, 11, 11, 117
16, 42908, Control_c, 11, 11, 118
16, 42919, Control_c, 11, 11, 119
16, 42930, Control_c, 11, 11, 120
16, 42941, Control_c, 11, 11, 121
16, 42952, Control_c, 11, 11, 122
16, 42960, Note_on_c, 11, 95, 0
16, 42963, Control_c, 11, 11, 123
16, 42974, Control_c, 11, 11, 124
16, 42985, Control_c, 11, 11, 125
16, 42996, Control_c, 11, 11, 126
16, 43008, Control_c, 11, 11, 127
16, 43008, Program_c, 11, 44
16, 43008, Note_on_c, 11, 95, 26
16, 43054, Note_on_c, 11, 95, 0
16, 43056, Note_on_c, 11, 92, 29
16, 43102, Note_on_c, 11, 92, 0
16, 43104, Note_on_c, 11, 87, 25
16, 43150, Note_on_c, 11, 87, 0
16, 43152, Note_on_c, 11, 85, 29
16, 43198, Note_on_c, 11, 85, 0
16, 43200, Note_on_c, 11, 83, 28
16, 43246, Note_on_c, 11, 83, 0
16, 43248, Note_on_c, 11, 85, 27
16, 43294, Note_on_c, 11, 85, 0
16, 43584, Note_on_c, 11, 95, 33
16, 43630, Note_on_c, 11, 95, 0
16, 43632, Note_on_c, 11, 92, 26
16, 43678, Note_on_c, 11, 92, 0
16, 43680, Note_on_c, 11, 87, 31
16, 43726, Note_on_c, 11, 87, 0
16, 43728, Note_on_c, 11, 85, 29
16, 43774, Note_on_c, 11, 85, 0
16, 43776, Note_on_c, 11, 83, 29
16, 43822, Note_on_c, 11, 83, 0
16, 43824, Note_on_c, 11, 85, 35
16, 43870, Note_on_c, 11, 85, 0
16, 44160, Note_on_c, 11, 95, 30
16, 44206, Note_on_c, 11, 95, 0
16, 44208, Note_on_c, 11, 92, 35
16, 44254, Note_on_c, 11, 92, 0
16, 44256, Note_on_c, 11, 87, 31
16, 44302, Note_on_c, 11, 87, 0
16, 44304, Note_on_c, 11, 85, 34
16, 44350, Note_on_c, 11, 85, 0
16, 44352, Note_on_c, 11, 83, 27
16, 44398, Note_on_c, 11, 83, 0
16, 44400, Note_on_c, 11, 85, 33
16, 44446, Note_on_c, 11, 85, 0
16, 44736, Note_on_c, 11, 95, 25
16, 44782, Note_on_c, 11, 95, 0
16, 44784, Note_on_c, 11, 92, 28
16, 44830, Note_on_c, 11, 92, 0
16, 44832, Note_on_c, 11, 87, 27
16, 44878, Note_on_c, 11, 87, 0
16, 44880, Note_on_c, 11, 85, 33
16, 44926, Note_on_c, 11, 85, 0
16, 44928, Note_on_c, 11, 83, 33
16, 44974, Note_on_c, 11, 83, 0
16, 44976, Note_on_c, 11, 85, 31
16, 45022, Note_on_c, 11, 85, 0
16, 45888, Control_c, 11, 1, 64
16, 46752, Program_c, 11, 40
16, 46752, Control_c, 11, 11, 75
16, 46752, Note_on_c, 11, 82, 56
16, 46944, Note_on_c, 11, 82, 0
16, 46944, Note_on_c, 11, 80, 61
16, 47038, Note_on_c, 11, 80, 0
16, 47040, Control_c, 11, 11, 75
16, 47040, Note_on_c, 11, 89, 64
16, 47051, Control_c, 11, 11, 76
16, 47062, Control_c, 11, 11, 77
16, 47073, Control_c, 11, 11, 78
16, 47084, Control_c, 11, 11, 79
16, 47095, Control_c, 11, 11, 80
16, 47106, Control_c, 11, 11, 81
16, 47117, Control_c, 11, 11, 82
16, 47128, Control_c, 11, 11, 83
16, 47139, Control_c, 11, 11, 84
16, 47150, Control_c, 11, 11, 85
16, 47161, Control_c, 11, 11, 86
16, 47172, Control_c, 11, 11, 87
16, 47184, Control_c, 11, 11, 88
16, 47195, Control_c, 11, 11, 89
16, 47206, Control_c, 11, 11, 90
16, 47217, Control_c, 11, 11, 91
16, 47228, Control_c, 11, 11, 92
16, 47232, Note_on_c, 11, 89, 0
16, 47232, Note_on_c, 11, 77, 61
16, 47239, Control_c, 11, 11, 93
16, 47250, Control_c, 11, 11, 94
16, 47261, Control_c, 11, 11, 95
16, 47272, Control_c, 11, 11, 96
16, 47283, Control_c, 11, 11, 97
16, 47294, Control_c, 11, 11, 98
16, 47305, Control_c, 11, 11, 99
16, 47316, Control_c, 11, 11, 100
16, 47328, Control_c, 11, 11, 101
16, 47339, Control_c, 11, 11, 102
16, 47350, Control_c, 11, 11, 103
16, 47361, Control_c, 11, 11, 104
16, 47372, Control_c, 11, 11, 105
16, 47383, Control_c, 11, 11, 106
16, 47394, Control_c, 11, 11, 107
16, 47405, Control_c, 11, 11, 108
16, 47416, Control_c, 11, 11, 109
16, 47424, Note_on_c, 11, 77, 0
16, 47424, Note_on_c, 11, 78, 63
16, 47427, Control_c, 11, 11, 110
16, 47438, Control_c, 11, 11, 111
16, 47449, Control_c, 11, 11, 112
16, 47460, Control_c, 11, 11, 113
16, 47472, Control_c, 11, 11, 114
16, 47483, Control_c, 11, 11, 115
16, 47494, Control_c, 11, 11, 116
16, 47505, Control_c, 11, 11, 117
16, 47516, Control_c, 11, 11, 118
16, 47520, Note_on_c, 11, 78, 0
16, 47520, Note_on_c, 11, 79, 59
16, 47527, Control_c, 11, 11, 119
16, 47538, Control_c, 11, 11, 120
16, 47549, Control_c, 11, 11, 121
16, 47560, Control_c, 11, 11, 122
16, 47571, Control_c, 11, 11, 123
16, 47582, Control_c, 11, 11, 124
16, 47593, Control_c, 11, 11, 125
16, 47604, Control_c, 11, 11, 126
16, 47614, Note_on_c, 11, 79, 0
16, 47616, Control_c, 11, 11, 127
16, 47616, Control_c, 11, 11, 92
16, 47616, Note_on_c, 11, 82, 59
16, 47624, Control_c, 11, 11, 93
16, 47632, Control_c, 11, 11, 94
16, 47640, Control_c, 11, 11, 95
16, 47648, Control_c, 11, 11, 96
16, 47657, Control_c, 11, 11, 97
16, 47665, Control_c, 11, 11, 98
16, 47673, Control_c, 11, 11, 99
16, 47681, Control_c, 11, 11, 100
16, 47690, Control_c, 11, 11, 101
16, 47698, Control_c, 11, 11, 102
16, 47706, Control_c, 11, 11, 103
16, 47714, Control_c, 11, 11, 104
16, 47722, Control_c, 11, 11, 105
16, 47731, Control_c, 11, 11, 106
16, 47739, Control_c, 11, 11, 107
16, 47747, Control_c, 11, 11, 108
16, 47755, Control_c, 11, 11, 109
16, 47764, Control_c, 11, 11, 110
16, 47772, Control_c, 11, 11, 111
16, 47780, Control_c, 11, 11, 112
16, 47788, Control_c, 11, 11, 113
16, 47797, Control_c, 11, 11, 114
16, 47805, Control_c, 11, 11, 115
16, 47808, Note_on_c, 11, 82, 0
16, 47808, Note_on_c, 11, 80, 56
16, 47813, Control_c, 11, 11, 116
16, 47821, Control_c, 11, 11, 117
16, 47829, Control_c, 11, 11, 118
16, 47838, Control_c, 11, 11, 119
16, 47846, Control_c, 11, 11, 120
16, 47854, Control_c, 11, 11, 121
16, 47862, Control_c, 11, 11, 122
16, 47871, Control_c, 11, 11, 123
16, 47879, Control_c, 11, 11, 124
16, 47887, Control_c, 11, 11, 125
16, 47895, Control_c, 11, 11, 126
16, 47902, Note_on_c, 11, 80, 0
16, 47904, Control_c, 11, 11, 127
16, 47904, Control_c, 11, 11, 92
16, 47904, Note_on_c, 11, 82, 58
16, 47912, Control_c, 11, 11, 93
16, 47920, Control_c, 11, 11, 94
16, 47928, Control_c, 11, 11, 95
16, 47936, Control_c, 11, 11, 96
16, 47945, Control_c, 11, 11, 97
16, 47953, Control_c, 11, 11, 98
16, 47961, Control_c, 11, 11, 99
16, 47969, Control_c, 11, 11, 100
16, 47978, Control_c, 11, 11, 101
16, 47986, Control_c, 11, 11, 102
16, 47994, Control_c, 11, 11, 103
16, 48002, Control_c, 11, 11, 104
16, 48010, Control_c, 11, 11, 105
16, 48019, Control_c, 11, 11, 106
16, 48027, Control_c, 11, 11, 107
16, 48035, Control_c, 11, 11, 108
16, 48043, Control_c, 11, 11, 109
16, 48052, Control_c, 11, 11, 110
16, 48060, Control_c, 11, 11, 111
16, 48068, Control_c, 11, 11, 112
16, 48076, Control_c, 11, 11, 113
16, 48085, Control_c, 11, 11, 114
16, 48093, Control_c, 11, 11, 115
16, 48096, Note_on_c, 11, 82, 0
16, 48096, Note_on_c, 11, 80, 63
16, 48101, Control_c, 11, 11, 116
16, 48109, Control_c, 11, 11, 117
16, 48117, Control_c, 11, 11, 118
16, 48126, Control_c, 11, 11, 119
16, 48134, Control_c, 11, 11, 120
16, 48142, Control_c, 11, 11, 121
16, 48150, Control_c, 11, 11, 122
16, 48159, Control_c, 11, 11, 123
16, 48167, Control_c, 11, 11, 124
16, 48175, Control_c, 11, 11, 125
16, 48183, Control_c, 11, 11, 126
16, 48190, Note_on_c, 11, 80, 0
16, 48192, Control_c, 11, 11, 127
16, 48192, Note_on_c, 11, 95, 29
16, 48352, Note_on_c, 11, 95, 0
16, 48576, Control_c, 11, 11, 92
16, 48576, Note_on_c, 11, 68, 55
16, 48581, Control_c, 11, 11, 93
16, 48586, Control_c, 11, 11, 94
16, 48592, Control_c, 11, 11, 95
16, 48597, Control_c, 11, 11, 96
16, 48603, Control_c, 11, 11, 97
16, 48608, Control_c, 11, 11, 98
16, 48614, Control_c, 11, 11, 99
16, 48619, Control_c, 11, 11, 100
16, 48625, Control_c, 11, 11, 101
16, 48630, Control_c, 11, 11, 102
16, 48636, Control_c, 11, 11, 103
16, 48641, Control_c, 11, 11, 104
16, 48647, Control_c, 11, 11, 105
16, 48652, Control_c, 11, 11, 106
16, 48658, Control_c, 11, 11, 107
16, 48663, Control_c, 11, 11, 108
16, 48669, Control_c, 11, 11, 109
16, 48670, Note_on_c, 11, 68, 0
16, 48672, Note_on_c, 11, 71, 58
16, 48674, Control_c, 11, 11, 110
16, 48680, Control_c, 11, 11, 111
16, 48685, Control_c, 11, 11, 112
16, 48691, Control_c, 11, 11, 113
16, 48696, Control_c, 11, 11, 114
16, 48702, Control_c, 11, 11, 115
16, 48707, Control_c, 11, 11, 116
16, 48713, Control_c, 11, 11, 117
16, 48718, Note_on_c, 11, 71, 0
16, 48718, Control_c, 11, 11, 118
16, 48720, Note_on_c, 11, 73, 59
16, 48724, Control_c, 11, 11, 119
16, 48729, Control_c, 11, 11, 120
16, 48735, Control_c, 11, 11, 121
16, 48740, Control_c, 11, 11, 122
16, 48746, Control_c, 11, 11, 123
16, 48751, Control_c, 11, 11, 124
16, 48757, Control_c, 11, 11, 125
16, 48762, Control_c, 11, 11, 126
16, 48766, Note_on_c, 11, 73, 0
16, 48768, Control_c, 11, 11, 127
16, 48768, Note_on_c, 11, 95, 25
16, 48928, Note_on_c, 11, 95, 0
16, 49152, Control_c, 11, 11, 92
16, 49152, Note_on_c, 11, 68, 57
16, 49157, Control_c, 11, 11, 93
16, 49162, Control_c, 11, 11, 94
16, 49168, Control_c, 11, 11, 95
16, 49173, Control_c, 11, 11, 96
16, 49179, Control_c, 11, 11, 97
16, 49184, Control_c, 11, 11, 98
16, 49190, Control_c, 11, 11, 99
16, 49195, Control_c, 11, 11, 100
16, 49201, Control_c, 11, 11, 101
16, 49206, Control_c, 11, 11, 102
16, 49212, Control_c, 11, 11, 103
16, 49217, Control_c, 11, 11, 104
16, 49223, Control_c, 11, 11, 105
16, 49228, Control_c, 11, 11, 106
16, 49234, Control_c, 11, 11, 107
16, 49239, Control_c, 11, 11, 108
16, 49245, Control_c, 11, 11, 109
16, 49246, Note_on_c, 11, 68, 0
16, 49248, Note_on_c, 11, 71, 63
16, 49250, Control_c, 11, 11, 110
16, 49256, Control_c, 11, 11, 111
16, 49261, Control_c, 11, 11, 112
16, 49267, Control_c, 11, 11, 113
16, 49272, Control_c, 11, 11, 114
16, 49278, Control_c, 11, 11, 115
16, 49283, Control_c, 11, 11, 116
16, 49289, Control_c, 11, 11, 117
16, 49294, Note_on_c, 11, 71, 0
16, 49294, Control_c, 11, 11, 118
16, 49296, Note_on_c, 11, 73, 58
16, 49300, Control_c, 11, 11, 119
16, 49305, Control_c, 11, 11, 120
16, 49311, Control_c, 11, 11, 121
16, 49316, Control_c, 11, 11, 122
16, 49322, Control_c, 11, 11, 123
16, 49327, Control_c, 11, 11, 124
16, 49333, Control_c, 11, 11, 125
16, 49338, Control_c, 11, 11, 126
16, 49342, Note_on_c, 11, 73, 0
16, 49344, Control_c, 11, 11, 127
16, 49344, Control_c, 11, 1, 0
16, 49344, Program_c, 11, 48
16, 49344, Note_on_c, 11, 83, 28
16, 49376, Note_on_c, 11, 83, 0
16, 49392, Note_on_c, 11, 83, 33
16, 49424, Note_on_c, 11, 83, 0
16, 49488, Note_on_c, 11, 83, 31
16, 49520, Note_on_c, 11, 83, 0
16, 49584, Note_on_c, 11, 83, 31
16, 49616, Note_on_c, 11, 83, 0
16, 49632, Note_on_c, 11, 83, 28
16, 49664, Note_on_c, 11, 83, 0
16, 49680, Note_on_c, 11, 83, 25
16, 49712, Note_on_c, 11, 83, 0
16, 49776, Note_on_c, 11, 83, 28
16, 49808, Note_on_c, 11, 83, 0
16, 49872, Note_on_c, 11, 83, 31
16, 49904, Note_on_c, 11, 83, 0
16, 49920, Note_on_c, 11, 83, 30
16, 49952, Note_on_c, 11, 83, 0
16, 49968, Note_on_c, 11, 83, 25
16, 50000, Note_on_c, 11, 83, 0
16, 50064, Note_on_c, 11, 83, 35
16, 50096, Note_on_c, 11, 83, 0
16, 50160, Note_on_c, 11, 83, 30
16, 50192, Note_on_c, 11, 83, 0
16, 50208, Note_on_c, 11, 83, 28
16, 50240, Note_on_c, 11, 83, 0
16, 50256, Note_on_c, 11, 83, 34
16, 50288, Note_on_c, 11, 83, 0
16, 50352, Note_on_c, 11, 83, 28
16, 50384, Note_on_c, 11, 83, 0
16, 50448, Note_on_c, 11, 83, 30
16, 50480, Note_on_c, 11, 83, 0
16, 50496, Note_on_c, 11, 83, 28
16, 50528, Note_on_c, 11, 83, 0
16, 50544, Note_on_c, 11, 83, 27
16, 50576, Note_on_c, 11, 83, 0
16, 50640, Note_on_c, 11, 83, 40
16, 50672, Note_on_c, 11, 83, 0
16, 50736, Note_on_c, 11, 83, 37
16, 50768, Note_on_c, 11, 83, 0
16, 50784, Note_on_c, 11, 83, 44
16, 50816, Note_on_c, 11, 83, 0
16, 50832, Note_on_c, 11, 83, 50
16, 50864, Note_on_c, 11, 83, 0
16, 50928, Note_on_c, 11, 85, 49
16, 50960, Note_on_c, 11, 85, 0
16, 51024, Note_on_c, 11, 87, 61
16, 51056, Note_on_c, 11, 87, 0
16, 51072, Control_c, 11, 11, 75
16, 51072, Note_on_c, 11, 89, 96
16, 51083, Control_c, 11, 11, 76
16, 51094, Control_c, 11, 11, 77
16, 51105, Control_c, 11, 11, 78
16, 51116, Control_c, 11, 11, 79
16, 51118, Note_on_c, 11, 89, 0
16, 51120, Note_on_c, 11, 92, 93
16, 51127, Control_c, 11, 11, 80
16, 51138, Control_c, 11, 11, 81
16, 51149, Control_c, 11, 11, 82
16, 51160, Control_c, 11, 11, 83
16, 51166, Note_on_c, 11, 92, 0
16, 51168, Note_on_c, 11, 94, 96
16, 51171, Control_c, 11, 11, 84
16, 51182, Control_c, 11, 11, 85
16, 51193, Control_c, 11, 11, 86
16, 51204, Control_c, 11, 11, 87
16, 51216, Control_c, 11, 11, 88
16, 51227, Control_c, 11, 11, 89
16, 51238, Control_c, 11, 11, 90
16, 51249, Control_c, 11, 11, 91
16, 51260, Control_c, 11, 11, 92
16, 51271, Control_c, 11, 11, 93
16, 51282, Control_c, 11, 11, 94
16, 51293, Control_c, 11, 11, 95
16, 51304, Control_c, 11, 11, 96
16, 51315, Control_c, 11, 11, 97
16, 51326, Control_c, 11, 11, 98
16, 51337, Control_c, 11, 11, 99
16, 51348, Control_c, 11, 11, 100
16, 51360, Control_c, 11, 11, 101
16, 51371, Control_c, 11, 11, 102
16, 51382, Control_c, 11, 11, 103
16, 51393, Control_c, 11, 11, 104
16, 51404, Control_c, 11, 11, 105
16, 51415, Control_c, 11, 11, 106
16, 51426, Control_c, 11, 11, 107
16, 51437, Control_c, 11, 11, 108
16, 51448, Control_c, 11, 11, 109
16, 51459, Control_c, 11, 11, 110
16, 51470, Control_c, 11, 11, 111
16, 51481, Control_c, 11, 11, 112
16, 51492, Control_c, 11, 11, 113
16, 51504, Control_c, 11, 11, 114
16, 51515, Control_c, 11, 11, 115
16, 51526, Control_c, 11, 11, 116
16, 51537, Control_c, 11, 11, 117
16, 51548, Control_c, 11, 11, 118
16, 51559, Control_c, 11, 11, 119
16, 51570, Control_c, 11, 11, 120
16, 51581, Control_c, 11, 11, 121
16, 51592, Control_c, 11, 11, 122
16, 51603, Control_c, 11, 11, 123
16, 51614, Control_c, 11, 11, 124
16, 51616, Note_on_c, 11, 94, 0
16, 51625, Control_c, 11, 11, 125
16, 51636, Control_c, 11, 11, 126
16, 51648, Control_c, 11, 11, 127
16, 51648, Note_on_c, 11, 65, 88
16, 51653, Control_c, 11, 11, 126
16, 51659, Control_c, 11, 11, 125
16, 51664, Control_c, 11, 11, 124
16, 51670, Control_c, 11, 11, 123
16, 51675, Control_c, 11, 11, 122
16, 51681, Control_c, 11, 11, 121
16, 51686, Control_c, 11, 11, 120
16, 51692, Control_c, 11, 11, 119
16, 51697, Control_c, 11, 11, 118
16, 51703, Control_c, 11, 11, 117
16, 51708, Control_c, 11, 11, 116
16, 51714, Control_c, 11, 11, 115
16, 51720, Control_c, 11, 11, 114
16, 51725, Control_c, 11, 11, 113
16, 51731, Control_c, 11, 11, 112
16, 51736, Control_c, 11, 11, 111
16, 51742, Note_on_c, 11, 65, 0
16, 51742, Control_c, 11, 11, 110
16, 51744, Note_on_c, 11, 68, 90
16, 51747, Control_c, 11, 11, 109
16, 51753, Control_c, 11, 11, 108
16, 51758, Control_c, 11, 11, 107
16, 51764, Control_c, 11, 11, 106
16, 51769, Control_c, 11, 11, 105
16, 51775, Control_c, 11, 11, 104
16, 51780, Control_c, 11, 11, 103
16, 51786, Control_c, 11, 11, 102
16, 51792, Control_c, 11, 11, 101
16, 51797, Control_c, 11, 11, 100
16, 51803, Control_c, 11, 11, 99
16, 51808, Control_c, 11, 11, 98
16, 51814, Control_c, 11, 11, 97
16, 51819, Control_c, 11, 11, 96
16, 51825, Control_c, 11, 11, 95
16, 51830, Control_c, 11, 11, 94
16, 51836, Control_c, 11, 11, 93
16, 51838, Note_on_c, 11, 68, 0
16, 51840, Note_on_c, 11, 70, 96
16, 51841, Control_c, 11, 11, 92
16, 51847, Control_c, 11, 11, 91
16, 51852, Control_c, 11, 11, 90
16, 51858, Control_c, 11, 11, 89
16, 51864, Control_c, 11, 11, 88
16, 51869, Control_c, 11, 11, 87
16, 51875, Control_c, 11, 11, 86
16, 51880, Control_c, 11, 11, 85
16, 51886, Control_c, 11, 11, 84
16, 51891, Control_c, 11, 11, 83
16, 51897, Control_c, 11, 11, 82
16, 51902, Control_c, 11, 11, 81
16, 51908, Control_c, 11, 11, 80
16, 51913, Control_c, 11, 11, 79
16, 51919, Control_c, 11, 11, 78
16, 51924, Control_c, 11, 11, 77
16, 51930, Control_c, 11, 11, 76
16, 51934, Note_on_c, 11, 70, 0
16, 51936, Control_c, 11, 11, 75
16, 51936, Control_c, 11, 11, 127
16, 51936, Note_on_c, 11, 80, 43
16, 51950, Note_on_c, 11, 80, 0
16, 51952, Note_on_c, 11, 68, 50
16, 51966, Note_on_c, 11, 68, 0
16, 51968, Note_on_c, 11, 80, 45
16, 51982, Note_on_c, 11, 80, 0
16, 51984, Note_on_c, 11, 78, 43
16, 51998, Note_on_c, 11, 78, 0
16, 52000, Note_on_c, 11, 66, 45
16, 52014, Note_on_c, 11, 66, 0
16, 52016, Note_on_c, 11, 78, 49
16, 52030, Note_on_c, 11, 78, 0
16, 52032, Note_on_c, 11, 80, 45
16, 52046, Note_on_c, 11, 80, 0
16, 52048, Note_on_c, 11, 68, 46
16, 52062, Note_on_c, 11, 68, 0
16, 52064, Note_on_c, 11, 80, 49
16, 52078, Note_on_c, 11, 80, 0
16, 52080, Note_on_c, 11, 78, 44
16, 52094, Note_on_c, 11, 78, 0
16, 52096, Note_on_c, 11, 66, 46
16, 52110, Note_on_c, 11, 66, 0
16, 52112, Note_on_c, 11, 78, 45
16, 52126, Note_on_c, 11, 78, 0
16, 52128, Note_on_c, 11, 80, 55
16, 52142, Note_on_c, 11, 80, 0
16, 52144, Note_on_c, 11, 68, 50
16, 52158, Note_on_c, 11, 68, 0
16, 52160, Note_on_c, 11, 80, 47
16, 52174, Note_on_c, 11, 80, 0
16, 52176, Note_on_c, 11, 78, 53
16, 52190, Note_on_c, 11, 78, 0
16, 52192, Note_on_c, 11, 66, 58
16, 52206, Note_on_c, 11, 66, 0
16, 52208, Note_on_c, 11, 78, 60
16, 52222, Note_on_c, 11, 78, 0
16, 52224, Note_on_c, 11, 80, 61
16, 52238, Note_on_c, 11, 80, 0
16, 52240, Note_on_c, 11, 68, 53
16, 52254, Note_on_c, 11, 68, 0
16, 52256, Note_on_c, 11, 80, 57
16, 52270, Note_on_c, 11, 80, 0
16, 52272, Note_on_c, 11, 78, 60
16, 52286, Note_on_c, 11, 78, 0
16, 52288, Note_on_c, 11, 66, 55
16, 52302, Note_on_c, 11, 66, 0
16, 52304, Note_on_c, 11, 78, 60
16, 52318, Note_on_c, 11, 78, 0
16, 52320, Note_on_c, 11, 80, 59
16, 52334, Note_on_c, 11, 80, 0
16, 52336, Note_on_c, 11, 68, 63
16, 52350, Note_on_c, 11, 68, 0
16, 52352, Note_on_c, 11, 80, 62
16, 52366, Note_on_c, 11, 80, 0
16, 52368, Note_on_c, 11, 78, 69
16, 52382, Note_on_c, 11, 78, 0
16, 52384, Note_on_c, 11, 66, 63
16, 52398, Note_on_c, 11, 66, 0
16, 52400, Note_on_c, 11, 78, 64
16, 52414, Note_on_c, 11, 78, 0
16, 52416, Note_on_c, 11, 80, 73
16, 52430, Note_on_c, 11, 80, 0
16, 52432, Note_on_c, 11, 68, 72
16, 52446, Note_on_c, 11, 68, 0
16, 52448, Note_on_c, 11, 80, 73
16, 52462, Note_on_c, 11, 80, 0
16, 52464, Note_on_c, 11, 78, 75
16, 52478, Note_on_c, 11, 78, 0
16, 52480, Note_on_c, 11, 66, 76
16, 52494, Note_on_c, 11, 66, 0
16, 52496, Note_on_c, 11, 78, 77
16, 52510, Note_on_c, 11, 78, 0
16, 52512, Note_on_c, 11, 85, 74
16, 52512, Note_on_c, 11, 92, 70
16, 52534, Note_on_c, 11, 85, 0
16, 52534, Note_on_c, 11, 92, 0
16, 52536, Note_on_c, 11, 87, 74
16, 52536, Note_on_c, 11, 90, 72
16, 52558, Note_on_c, 11, 87, 0
16, 52558, Note_on_c, 11, 90, 0
16, 52560, Note_on_c, 11, 85, 68
16, 52560, Note_on_c, 11, 92, 73
16, 52582, Note_on_c, 11, 85, 0
16, 52582, Note_on_c, 11, 92, 0
16, 52584, Note_on_c, 11, 87, 66
16, 52584, Note_on_c, 11, 90, 60
16, 52606, Note_on_c, 11, 87, 0
16, 52606, Note_on_c, 11, 90, 0
16, 52608, Note_on_c, 11, 73, 52
16, 52608, Note_on_c, 11, 80, 52
16, 52630, Note_on_c, 11, 73, 0
16, 52630, Note_on_c, 11, 80, 0
16, 52632, Note_on_c, 11, 75, 51
16, 52632, Note_on_c, 11, 78, 52
16, 52654, Note_on_c, 11, 75, 0
16, 52654, Note_on_c, 11, 78, 0
16, 52656, Note_on_c, 11, 73, 40
16, 52656, Note_on_c, 11, 80, 45
16, 52678, Note_on_c, 11, 73, 0
16, 52678, Note_on_c, 11, 80, 0
16, 52680, Note_on_c, 11, 75, 38
16, 52680, Note_on_c, 11, 78, 34
16, 52702, Note_on_c, 11, 75, 0
16, 52702, Note_on_c, 11, 78, 0
16, 52800, Note_on_c, 11, 85, 80
16, 52800, Note_on_c, 11, 92, 79
16, 52822, Note_on_c, 11, 85, 0
16, 52822, Note_on_c, 11, 92, 0
16, 52824, Note_on_c, 11, 87, 79
16, 52824, Note_on_c, 11, 90, 72
16, 52846, Note_on_c, 11, 87, 0
16, 52846, Note_on_c, 11, 90, 0
16, 52848, Note_on_c, 11, 85, 65
16, 52848, Note_on_c, 11, 92, 74
16, 52870, Note_on_c, 11, 85, 0
16, 52870, Note_on_c, 11, 92, 0
16, 52872, Note_on_c, 11, 87, 66
16, 52872, Note_on_c, 11, 90, 64
16, 52894, Note_on_c, 11, 87, 0
16, 52894, Note_on_c, 11, 90, 0
16, 52896, Note_on_c, 11, 73, 54
16, 52896, Note_on_c, 11, 80, 52
16, 52918, Note_on_c, 11, 73, 0
16, 52918, Note_on_c, 11, 80, 0
16, 52920, Note_on_c, 11, 75, 52
16, 52920, Note_on_c, 11, 78, 51
16, 52942, Note_on_c, 11, 75, 0
16, 52942, Note_on_c, 11, 78, 0
16, 52944, Note_on_c, 11, 73, 45
16, 52944, Note_on_c, 11, 80, 41
16, 52966, Note_on_c, 11, 73, 0
16, 52966, Note_on_c, 11, 80, 0
16, 52968, Note_on_c, 11, 75, 34
16, 52968, Note_on_c, 11, 78, 38
16, 52990, Note_on_c, 11, 75, 0
16, 52990, Note_on_c, 11, 78, 0
16, 53088, Note_on_c, 11, 85, 70
16, 53088, Note_on_c, 11, 92, 73
16, 53110, Note_on_c, 11, 85, 0
16, 53110, Note_on_c, 11, 92, 0
16, 53112, Note_on_c, 11, 87, 73
16, 53112, Note_on_c, 11, 90, 80
16, 53134, Note_on_c, 11, 87, 0
16, 53134, Note_on_c, 11, 90, 0
16, 53136, Note_on_c, 11, 85, 72
16, 53136, Note_on_c, 11, 92, 74
16, 53158, Note_on_c, 11, 85, 0
16, 53158, Note_on_c, 11, 92, 0
16, 53160, Note_on_c, 11, 87, 62
16, 53160, Note_on_c, 11, 90, 64
16, 53182, Note_on_c, 11, 87, 0
16, 53182, Note_on_c, 11, 90, 0
16, 53184, Note_on_c, 11, 73, 58
16, 53184, Note_on_c, 11, 80, 62
16, 53206, Note_on_c, 11, 73, 0
16, 53206, Note_on_c, 11, 80, 0
16, 53208, Note_on_c, 11, 75, 54
16, 53208, Note_on_c, 11, 78, 52
16, 53230, Note_on_c, 11, 75, 0
16, 53230, Note_on_c, 11, 78, 0
16, 53232, Note_on_c, 11, 73, 49
16, 53232, Note_on_c, 11, 80, 49
16, 53254, Note_on_c, 11, 73, 0
16, 53254, Note_on_c, 11, 80, 0
16, 53256, Note_on_c, 11, 75, 41
16, 53256, Note_on_c, 11, 78, 38
16, 53278, Note_on_c, 11, 75, 0
16, 53278, Note_on_c, 11, 78, 0
16, 53376, Note_on_c, 11, 85, 70
16, 53376, Note_on_c, 11, 92, 78
16, 53398, Note_on_c, 11, 85, 0
16, 53398, Note_on_c, 11, 92, 0
16, 53400, Note_on_c, 11, 87, 77
16, 53400, Note_on_c, 11, 90, 75
16, 53422, Note_on_c, 11, 87, 0
16, 53422, Note_on_c, 11, 90, 0
16, 53424, Note_on_c, 11, 85, 65
16, 53424, Note_on_c, 11, 92, 70
16, 53446, Note_on_c, 11, 85, 0
16, 53446, Note_on_c, 11, 92, 0
16, 53448, Note_on_c, 11, 87, 58
16, 53448, Note_on_c, 11, 90, 68
16, 53470, Note_on_c, 11, 87, 0
16, 53470, Note_on_c, 11, 90, 0
16, 53472, Note_on_c, 11, 73, 61
16, 53472, Note_on_c, 11, 80, 57
16, 53494, Note_on_c, 11, 73, 0
16, 53494, Note_on_c, 11, 80, 0
16, 53496, Note_on_c, 11, 75, 52
16, 53496, Note_on_c, 11, 78, 46
16, 53518, Note_on_c, 11, 75, 0
16, 53518, Note_on_c, 11, 78, 0
16, 53520, Note_on_c, 11, 73, 46
16, 53520, Note_on_c, 11, 80, 39
16, 53542, Note_on_c, 11, 73, 0
16, 53542, Note_on_c, 11, 80, 0
16, 53544, Note_on_c, 11, 75, 34
16, 53544, Note_on_c, 11, 78, 32
16, 53566, Note_on_c, 11, 75, 0
16, 53566, Note_on_c, 11, 78, 0
16, 53664, Note_on_c, 11, 71, 25
16, 53664, Note_on_c, 11, 75, 34
16, 53686, Note_on_c, 11, 71, 0
16, 53686, Note_on_c, 11, 75, 0
16, 53688, Note_on_c, 11, 68, 32
16, 53688, Note_on_c, 11, 74, 34
16, 53710, Note_on_c, 11, 68, 0
16, 53710, Note_on_c, 11, 74, 0
16, 53712, Note_on_c, 11, 71, 35
16, 53712, Note_on_c, 11, 75, 26
16, 53734, Note_on_c, 11, 71, 0
16, 53734, Note_on_c, 11, 75, 0
16, 53736, Note_on_c, 11, 68, 33
16, 53736, Note_on_c, 11, 74, 34
16, 53758, Note_on_c, 11, 68, 0
16, 53758, Note_on_c, 11, 74, 0
16, 53760, Note_on_c, 11, 71, 33
16, 53760, Note_on_c, 11, 75, 33
16, 53782, Note_on_c, 11, 71, 0
16, 53782, Note_on_c, 11, 75, 0
16, 53784, Note_on_c, 11, 68, 28
16, 53784, Note_on_c, 11, 74, 35
16, 53806, Note_on_c, 11, 68, 0
16, 53806, Note_on_c, 11, 74, 0
16, 53808, Note_on_c, 11, 71, 25
16, 53808, Note_on_c, 11, 75, 35
16, 53830, Note_on_c, 11, 71, 0
16, 53830, Note_on_c, 11, 75, 0
16, 53832, Note_on_c, 11, 68, 33
16, 53832, Note_on_c, 11, 74, 32
16, 53854, Note_on_c, 11, 68, 0
16, 53854, Note_on_c, 11, 74, 0
16, 53856, Note_on_c, 11, 71, 34
16, 53856, Note_on_c, 11, 75, 30
16, 53878, Note_on_c, 11, 71, 0
16, 53878, Note_on_c, 11, 75, 0
16, 53880, Note_on_c, 11, 68, 29
16, 53880, Note_on_c, 11, 74, 28
16, 53902, Note_on_c, 11, 68, 0
16, 53902, Note_on_c, 11, 74, 0
16, 53904, Note_on_c, 11, 71, 33
16, 53904, Note_on_c, 11, 75, 29
16, 53926, Note_on_c, 11, 71, 0
16, 53926, Note_on_c, 11, 75, 0
16, 53928, Note_on_c, 11, 68, 28
16, 53928, Note_on_c, 11, 74, 27
16, 53950, Note_on_c, 11, 68, 0
16, 53950, Note_on_c, 11, 74, 0
16, 53952, Note_on_c, 11, 65, 34
16, 53952, Note_on_c, 11, 71, 36
16, 53974, Note_on_c, 11, 65, 0
16, 53974, Note_on_c, 11, 71, 0
16, 53976, Note_on_c, 11, 68, 36
16, 53976, Note_on_c, 11, 73, 38
16, 53998, Note_on_c, 11, 68, 0
16, 53998, Note_on_c, 11, 73, 0
16, 54000, Note_on_c, 11, 65, 32
16, 54000, Note_on_c, 11, 71, 32
16, 54022, Note_on_c, 11, 65, 0
16, 54022, Note_on_c, 11, 71, 0
16, 54024, Note_on_c, 11, 68, 41
16, 54024, Note_on_c, 11, 73, 37
16, 54046, Note_on_c, 11, 68, 0
16, 54046, Note_on_c, 11, 73, 0
16, 54048, Note_on_c, 11, 65, 39
16, 54048, Note_on_c, 11, 71, 38
16, 54070, Note_on_c, 11, 65, 0
16, 54070, Note_on_c, 11, 71, 0
16, 54072, Note_on_c, 11, 68, 38
16, 54072, Note_on_c, 11, 73, 42
16, 54094, Note_on_c, 11, 68, 0
16, 54094, Note_on_c, 11, 73, 0
16, 54096, Note_on_c, 11, 65, 36
16, 54096, Note_on_c, 11, 71, 41
16, 54118, Note_on_c, 11, 65, 0
16, 54118, Note_on_c, 11, 71, 0
16, 54120, Note_on_c, 11, 68, 45
16, 54120, Note_on_c, 11, 73, 41
16, 54142, Note_on_c, 11, 68, 0
16, 54142, Note_on_c, 11, 73, 0
16, 54144, Note_on_c, 11, 65, 38
16, 54144, Note_on_c, 11, 71, 41
16, 54166, Note_on_c, 11, 65, 0
16, 54166, Note_on_c, 11, 71, 0
16, 54168, Note_on_c, 11, 68, 38
16, 54168, Note_on_c, 11, 73, 43
16, 54190, Note_on_c, 11, 68, 0
16, 54190, Note_on_c, 11, 73, 0
16, 54192, Note_on_c, 11, 65, 45
16, 54192, Note_on_c, 11, 71, 48
16, 54214, Note_on_c, 11, 65, 0
16, 54214, Note_on_c, 11, 71, 0
16, 54216, Note_on_c, 11, 68, 48
16, 54216, Note_on_c, 11, 73, 39
16, 54238, Note_on_c, 11, 68, 0
16, 54238, Note_on_c, 11, 73, 0
16, 54240, Note_on_c, 11, 74, 48
16, 54262, Note_on_c, 11, 74, 0
16, 54264, Note_on_c, 11, 76, 47
16, 54286, Note_on_c, 11, 76, 0
16, 54288, Note_on_c, 11, 74, 42
16, 54310, Note_on_c, 11, 74, 0
16, 54312, Note_on_c, 11, 76, 47
16, 54334, Note_on_c, 11, 76, 0
16, 54336, Note_on_c, 11, 78, 54
16, 54358, Note_on_c, 11, 78, 0
16, 54360, Note_on_c, 11, 80, 52
16, 54382, Note_on_c, 11, 80, 0
16, 54384, Note_on_c, 11, 78, 62
16, 54406, Note_on_c, 11, 78, 0
16, 54408, Note_on_c, 11, 80, 65
16, 54430, Note_on_c, 11, 80, 0
16, 54432, Note_on_c, 11, 80, 62
16, 54454, Note_on_c, 11, 80, 0
16, 54456, Note_on_c, 11, 83, 71
16, 54478, Note_on_c, 11, 83, 0
16, 54480, Note_on_c, 11, 80, 65
16, 54502, Note_on_c, 11, 80, 0
16, 54504, Note_on_c, 11, 83, 68
16, 54526, Note_on_c, 11, 83, 0
16, 54528, Note_on_c, 11, 74, 71
16, 54550, Note_on_c, 11, 74, 0
16, 54552, Note_on_c, 11, 76, 79
16, 54574, Note_on_c, 11, 76, 0
16, 54576, Note_on_c, 11, 74, 79
16, 54598, Note_on_c, 11, 74, 0
16, 54600, Note_on_c, 11, 76, 81
16, 54622, Note_on_c, 11, 76, 0
16, 54624, Note_on_c, 11, 78, 82
16, 54646, Note_on_c, 11, 78, 0
16, 54648, Note_on_c, 11, 80, 76
16, 54670, Note_on_c, 11, 80, 0
16, 54672, Note_on_c, 11, 78, 75
16, 54694, Note_on_c, 11, 78, 0
16, 54696, Note_on_c, 11, 80, 81
16, 54718, Note_on_c, 11, 80, 0
16, 54720, Note_on_c, 11, 80, 88
16, 54742, Note_on_c, 11, 80, 0
16, 54744, Note_on_c, 11, 83, 81
16, 54766, Note_on_c, 11, 83, 0
16, 54768, Note_on_c, 11, 80, 87
16, 54790, Note_on_c, 11, 80, 0
16, 54792, Note_on_c, 11, 83, 91
16, 54814, Note_on_c, 11, 83, 0
16, 54816, Note_on_c, 11, 74, 47
16, 54838, Note_on_c, 11, 74, 0
16, 54840, Note_on_c, 11, 76, 45
16, 54862, Note_on_c, 11, 76, 0
16, 54864, Note_on_c, 11, 74, 48
16, 54886, Note_on_c, 11, 74, 0
16, 54888, Note_on_c, 11, 76, 54
16, 54910, Note_on_c, 11, 76, 0
16, 54912, Note_on_c, 11, 78, 47
16, 54934, Note_on_c, 11, 78, 0
16, 54936, Note_on_c, 11, 80, 56
16, 54958, Note_on_c, 11, 80, 0
16, 54960, Note_on_c, 11, 78, 52
16, 54982, Note_on_c, 11, 78, 0
16, 54984, Note_on_c, 11, 80, 59
16, 55006, Note_on_c, 11, 80, 0
16, 55008, Note_on_c, 11, 80, 64
16, 55030, Note_on_c, 11, 80, 0
16, 55032, Note_on_c, 11, 83, 64
16, 55054, Note_on_c, 11, 83, 0
16, 55056, Note_on_c, 11, 80, 71
16, 55078, Note_on_c, 11, 80, 0
16, 55080, Note_on_c, 11, 83, 76
16, 55102, Note_on_c, 11, 83, 0
16, 55104, Note_on_c, 11, 74, 73
16, 55126, Note_on_c, 11, 74, 0
16, 55128, Note_on_c, 11, 76, 74
16, 55150, Note_on_c, 11, 76, 0
16, 55152, Note_on_c, 11, 74, 71
16, 55174, Note_on_c, 11, 74, 0
16, 55176, Note_on_c, 11, 76, 72
16, 55198, Note_on_c, 11, 76, 0
16, 55200, Note_on_c, 11, 78, 77
16, 55222, Note_on_c, 11, 78, 0
16, 55224, Note_on_c, 11, 80, 75
16, 55246, Note_on_c, 11, 80, 0
16, 55248, Note_on_c, 11, 78, 80
16, 55270, Note_on_c, 11, 78, 0
16, 55272, Note_on_c, 11, 80, 85
16, 55294, Note_on_c, 11, 80, 0
16, 55296, Note_on_c, 11, 80, 80
16, 55318, Note_on_c, 11, 80, 0
16, 55320, Note_on_c, 11, 83, 81
16, 55342, Note_on_c, 11, 83, 0
16, 55344, Note_on_c, 11, 80, 89
16, 55366, Note_on_c, 11, 80, 0
16, 55368, Note_on_c, 11, 83, 89
16, 55390, Note_on_c, 11, 83, 0
16, 55392, Note_on_c, 11, 74, 45
16, 55414, Note_on_c, 11, 74, 0
16, 55416, Note_on_c, 11, 76, 44
16, 55438, Note_on_c, 11, 76, 0
16, 55440, Note_on_c, 11, 74, 46
16, 55462, Note_on_c, 11, 74, 0
16, 55464, Note_on_c, 11, 76, 48
16, 55486, Note_on_c, 11, 76, 0
16, 55488, Note_on_c, 11, 78, 53
16, 55510, Note_on_c, 11, 78, 0
16, 55512, Note_on_c, 11, 80, 58
16, 55534, Note_on_c, 11, 80, 0
16, 55536, Note_on_c, 11, 78, 57
16, 55558, Note_on_c, 11, 78, 0
16, 55560, Note_on_c, 11, 80, 62
16, 55582, Note_on_c, 11, 80, 0
16, 55584, Note_on_c, 11, 80, 62
16, 55606, Note_on_c, 11, 80, 0
16, 55608, Note_on_c, 11, 83, 66
16, 55630, Note_on_c, 11, 83, 0
16, 55632, Note_on_c, 11, 80, 70
16, 55654, Note_on_c, 11, 80, 0
16, 55656, Note_on_c, 11, 83, 76
16, 55678, Note_on_c, 11, 83, 0
16, 55680, Note_on_c, 11, 74, 71
16, 55702, Note_on_c, 11, 74, 0
16, 55704, Note_on_c, 11, 76, 71
16, 55726, Note_on_c, 11, 76, 0
16, 55728, Note_on_c, 11, 74, 78
16, 55750, Note_on_c, 11, 74, 0
16, 55752, Note_on_c, 11, 76, 75
16, 55774, Note_on_c, 11, 76, 0
16, 55776, Note_on_c, 11, 78, 81
16, 55798, Note_on_c, 11, 78, 0
16, 55800, Note_on_c, 11, 80, 79
16, 55822, Note_on_c, 11, 80, 0
16, 55824, Note_on_c, 11, 78, 84
16, 55846, Note_on_c, 11, 78, 0
16, 55848, Note_on_c, 11, 80, 84
16, 55870, Note_on_c, 11, 80, 0
16, 55872, Note_on_c, 11, 80, 84
16, 55894, Note_on_c, 11, 80, 0
16, 55896, Note_on_c, 11, 83, 86
16, 55918, Note_on_c, 11, 83, 0
16, 55920, Note_on_c, 11, 80, 88
16, 55942, Note_on_c, 11, 80, 0
16, 55944, Note_on_c, 11, 83, 92
16, 55966, Note_on_c, 11, 83, 0
16, 55968, Note_on_c, 11, 74, 40
16, 55990, Note_on_c, 11, 74, 0
16, 55992, Note_on_c, 11, 76, 42
16, 56014, Note_on_c, 11, 76, 0
16, 56016, Note_on_c, 11, 74, 51
16, 56038, Note_on_c, 11, 74, 0
16, 56040, Note_on_c, 11, 76, 44
16, 56062, Note_on_c, 11, 76, 0
16, 56064, Note_on_c, 11, 78, 55
16, 56086, Note_on_c, 11, 78, 0
16, 56088, Note_on_c, 11, 80, 56
16, 56110, Note_on_c, 11, 80, 0
16, 56112, Note_on_c, 11, 78, 62
16, 56134, Note_on_c, 11, 78, 0
16, 56136, Note_on_c, 11, 80, 56
16, 56158, Note_on_c, 11, 80, 0
16, 56160, Note_on_c, 11, 80, 66
16, 56182, Note_on_c, 11, 80, 0
16, 56184, Note_on_c, 11, 83, 68
16, 56206, Note_on_c, 11, 83, 0
16, 56208, Note_on_c, 11, 80, 73
16, 56230, Note_on_c, 11, 80, 0
16, 56232, Note_on_c, 11, 83, 73
16, 56254, Note_on_c, 11, 83, 0
16, 56256, Note_on_c, 11, 74, 73
16, 56278, Note_on_c, 11, 74, 0
16, 56280, Note_on_c, 11, 76, 76
16, 56302, Note_on_c, 11, 76, 0
16, 56304, Note_on_c, 11, 74, 75
16, 56326, Note_on_c, 11, 74, 0
16, 56328, Note_on_c, 11, 76, 79
16, 56350, Note_on_c, 11, 76, 0
16, 56352, Note_on_c, 11, 78, 75
16, 56374, Note_on_c, 11, 78, 0
16, 56376, Note_on_c, 11, 80, 78
16, 56398, Note_on_c, 11, 80, 0
16, 56400, Note_on_c, 11, 78, 82
16, 56422, Note_on_c, 11, 78, 0
16, 56424, Note_on_c, 11, 80, 80
16, 56446, Note_on_c, 11, 80, 0
16, 56448, Note_on_c, 11, 80, 81
16, 56470, Note_on_c, 11, 80, 0
16, 56472, Note_on_c, 11, 83, 88
16, 56494, Note_on_c, 11, 83, 0
16, 56496, Note_on_c, 11, 80, 90
16, 56518, Note_on_c, 11, 80, 0
16, 56520, Note_on_c, 11, 83, 92
16, 56542, Note_on_c, 11, 83, 0
16, 56544, Program_c, 11, 44
16, 56544, Control_c, 11, 11, 92
16, 56544, Note_on_c, 11, 78, 95
16, 56544, Note_on_c, 11, 85, 88
16, 56545, Control_c, 11, 11, 93
16, 56546, Control_c, 11, 11, 94
16, 56548, Control_c, 11, 11, 95
16, 56549, Control_c, 11, 11, 96
16, 56550, Control_c, 11, 11, 97
16, 56552, Control_c, 11, 11, 98
16, 56553, Control_c, 11, 11, 99
16, 56554, Control_c, 11, 11, 100
16, 56556, Control_c, 11, 11, 101
16, 56557, Control_c, 11, 11, 102
16, 56559, Control_c, 11, 11, 103
16, 56560, Control_c, 11, 11, 104
16, 56561, Control_c, 11, 11, 105
16, 56563, Control_c, 11, 11, 106
16, 56564, Control_c, 11, 11, 107
16, 56565, Control_c, 11, 11, 108
16, 56567, Control_c, 11, 11, 109
16, 56568, Control_c, 11, 11, 110
16, 56570, Control_c, 11, 11, 111
16, 56571, Control_c, 11, 11, 112
16, 56572, Control_c, 11, 11, 113
16, 56574, Control_c, 11, 11, 114
16, 56575, Control_c, 11, 11, 115
16, 56576, Control_c, 11, 11, 116
16, 56578, Control_c, 11, 11, 117
16, 56579, Control_c, 11, 11, 118
16, 56581, Control_c, 11, 11, 119
16, 56582, Control_c, 11, 11, 120
16, 56583, Control_c, 11, 11, 121
16, 56585, Control_c, 11, 11, 122
16, 56586, Control_c, 11, 11, 123
16, 56587, Control_c, 11, 11, 124
16, 56589, Control_c, 11, 11, 125
16, 56590, Control_c, 11, 11, 126
16, 56592, Control_c, 11, 11, 127
16, 56593, Control_c, 11, 11, 126
16, 56594, Control_c, 11, 11, 125
16, 56596, Control_c, 11, 11, 124
16, 56597, Control_c, 11, 11, 123
16, 56598, Control_c, 11, 11, 122
16, 56600, Control_c, 11, 11, 121
16, 56601, Control_c, 11, 11, 120
16, 56602, Control_c, 11, 11, 119
16, 56604, Control_c, 11, 11, 118
16, 56605, Control_c, 11, 11, 117
16, 56607, Control_c, 11, 11, 116
16, 56608, Control_c, 11, 11, 115
16, 56609, Control_c, 11, 11, 114
16, 56611, Control_c, 11, 11, 113
16, 56612, Control_c, 11, 11, 112
16, 56613, Control_c, 11, 11, 111
16, 56615, Control_c, 11, 11, 110
16, 56616, Control_c, 11, 11, 109
16, 56618, Control_c, 11, 11, 108
16, 56619, Control_c, 11, 11, 107
16, 56620, Control_c, 11, 11, 106
16, 56622, Control_c, 11, 11, 105
16, 56623, Control_c, 11, 11, 104
16, 56624, Control_c, 11, 11, 103
16, 56626, Control_c, 11, 11, 102
16, 56627, Control_c, 11, 11, 101
16, 56629, Control_c, 11, 11, 100
16, 56630, Control_c, 11, 11, 99
16, 56631, Control_c, 11, 11, 98
16, 56633, Control_c, 11, 11, 97
16, 56634, Control_c, 11, 11, 96
16, 56635, Control_c, 11, 11, 95
16, 56637, Control_c, 11, 11, 94
16, 56638, Control_c, 11, 11, 93
16, 56640, Control_c, 11, 11, 92
16, 56704, Note_on_c, 11, 78, 0
16, 56704, Note_on_c, 11, 85, 0
16, 56736, Control_c, 11, 11, 92
16, 56736, Note_on_c, 11, 76, 96
16, 56736, Note_on_c, 11, 83, 88
16, 56737, Control_c, 11, 11, 93
16, 56738, Control_c, 11, 11, 94
16, 56740, Control_c, 11, 11, 95
16, 56741, Control_c, 11, 11, 96
16, 56742, Control_c, 11, 11, 97
16, 56744, Control_c, 11, 11, 98
16, 56745, Control_c, 11, 11, 99
16, 56746, Control_c, 11, 11, 100
16, 56748, Control_c, 11, 11, 101
16, 56749, Control_c, 11, 11, 102
16, 56751, Control_c, 11, 11, 103
16, 56752, Control_c, 11, 11, 104
16, 56753, Control_c, 11, 11, 105
16, 56755, Control_c, 11, 11, 106
16, 56756, Control_c, 11, 11, 107
16, 56757, Control_c, 11, 11, 108
16, 56759, Control_c, 11, 11, 109
16, 56760, Control_c, 11, 11, 110
16, 56762, Control_c, 11, 11, 111
16, 56763, Control_c, 11, 11, 112
16, 56764, Control_c, 11, 11, 113
16, 56766, Control_c, 11, 11, 114
16, 56767, Control_c, 11, 11, 115
16, 56768, Control_c, 11, 11, 116
16, 56770, Control_c, 11, 11, 117
16, 56771, Control_c, 11, 11, 118
16, 56773, Control_c, 11, 11, 119
16, 56774, Control_c, 11, 11, 120
16, 56775, Control_c, 11, 11, 121
16, 56777, Control_c, 11, 11, 122
16, 56778, Control_c, 11, 11, 123
16, 56779, Control_c, 11, 11, 124
16, 56781, Control_c, 11, 11, 125
16, 56782, Control_c, 11, 11, 126
16, 56784, Control_c, 11, 11, 127
16, 56785, Control_c, 11, 11, 126
16, 56786, Control_c, 11, 11, 125
16, 56788, Control_c, 11, 11, 124
16, 56789, Control_c, 11, 11, 123
16, 56790, Control_c, 11, 11, 122
16, 56792, Control_c, 11, 11, 121
16, 56793, Control_c, 11, 11, 120
16, 56794, Control_c, 11, 11, 119
16, 56796, Control_c, 11, 11, 118
16, 56797, Control_c, 11, 11, 117
16, 56799, Control_c, 11, 11, 116
16, 56800, Control_c, 11, 11, 115
16, 56801, Control_c, 11, 11, 114
16, 56803, Control_c, 11, 11, 113
16, 56804, Control_c, 11, 11, 112
16, 56805, Control_c, 11, 11, 111
16, 56807, Control_c, 11, 11, 110
16, 56808, Control_c, 11, 11, 109
16, 56810, Control_c, 11, 11, 108
16, 56811, Control_c, 11, 11, 107
16, 56812, Control_c, 11, 11, 106
16, 56814, Control_c, 11, 11, 105
16, 56815, Control_c, 11, 11, 104
16, 56816, Control_c, 11, 11, 103
16, 56818, Control_c, 11, 11, 102
16, 56819, Control_c, 11, 11, 101
16, 56821, Control_c, 11, 11, 100
16, 56822, Control_c, 11, 11, 99
16, 56823, Control_c, 11, 11, 98
16, 56825, Control_c, 11, 11, 97
16, 56826, Control_c, 11, 11, 96
16, 56827, Control_c, 11, 11, 95
16, 56829, Control_c, 11, 11, 94
16, 56830, Control_c, 11, 11, 93
16, 56832, Control_c, 11, 11, 92
16, 56896, Note_on_c, 11, 76, 0
16, 56896, Note_on_c, 11, 83, 0
16, 56928, Control_c, 11, 11, 92
16, 56928, Note_on_c, 11, 73, 88
16, 56928, Note_on_c, 11, 80, 97
16, 56929, Control_c, 11, 11, 93
16, 56930, Control_c, 11, 11, 94
16, 56932, Control_c, 11, 11, 95
16, 56933, Control_c, 11, 11, 96
16, 56934, Control_c, 11, 11, 97
16, 56936, Control_c, 11, 11, 98
16, 56937, Control_c, 11, 11, 99
16, 56938, Control_c, 11, 11, 100
16, 56940, Control_c, 11, 11, 101
16, 56941, Control_c, 11, 11, 102
16, 56943, Control_c, 11, 11, 103
16, 56944, Control_c, 11, 11, 104
16, 56945, Control_c, 11, 11, 105
16, 56947, Control_c, 11, 11, 106
16, 56948, Control_c, 11, 11, 107
16, 56949, Control_c, 11, 11, 108
16, 56951, Control_c, 11, 11, 109
16, 56952, Control_c, 11, 11, 110
16, 56954, Control_c, 11, 11, 111
16, 56955, Control_c, 11, 11, 112
16, 56956, Control_c, 11, 11, 113
16, 56958, Control_c, 11, 11, 114
16, 56959, Control_c, 11, 11, 115
16, 56960, Control_c, 11, 11, 116
16, 56962, Control_c, 11, 11, 117
16, 56963, Control_c, 11, 11, 118
16, 56965, Control_c, 11, 11, 119
16, 56966, Control_c, 11, 11, 120
16, 56967, Control_c, 11, 11, 121
16, 56969, Control_c, 11, 11, 122
16, 56970, Control_c, 11, 11, 123
16, 56971, Control_c, 11, 11, 124
16, 56973, Control_c, 11, 11, 125
16, 56974, Control_c, 11, 11, 126
16, 56976, Control_c, 11, 11, 127
16, 56977, Control_c, 11, 11, 126
16, 56978, Control_c, 11, 11, 125
16, 56980, Control_c, 11, 11, 124
16, 56981, Control_c, 11, 11, 123
16, 56982, Control_c, 11, 11, 122
16, 56984, Control_c, 11, 11, 121
16, 56985, Control_c, 11, 11, 120
16, 56986, Control_c, 11, 11, 119
16, 56988, Control_c, 11, 11, 118
16, 56989, Control_c, 11, 11, 117
16, 56991, Control_c, 11, 11, 116
16, 56992, Control_c, 11, 11, 115
16, 56993, Control_c, 11, 11, 114
16, 56995, Control_c, 11, 11, 113
16, 56996, Control_c, 11, 11, 112
16, 56997, Control_c, 11, 11, 111
16, 56999, Control_c, 11, 11, 110
16, 57000, Control_c, 11, 11, 109
16, 57002, Control_c, 11, 11, 108
16, 57003, Control_c, 11, 11, 107
16, 57004, Control_c, 11, 11, 106
16, 57006, Control_c, 11, 11, 105
16, 57007, Control_c, 11, 11, 104
16, 57008, Control_c, 11, 11, 103
16, 57010, Control_c, 11, 11, 102
16, 57011, Control_c, 11, 11, 101
16, 57013, Control_c, 11, 11, 100
16, 57014, Control_c, 11, 11, 99
16, 57015, Control_c, 11, 11, 98
16, 57017, Control_c, 11, 11, 97
16, 57018, Control_c, 11, 11, 96
16, 57019, Control_c, 11, 11, 95
16, 57021, Control_c, 11, 11, 94
16, 57022, Control_c, 11, 11, 93
16, 57024, Control_c, 11, 11, 92
16, 57088, Note_on_c, 11, 73, 0
16, 57088, Note_on_c, 11, 80, 0
16, 57216, Program_c, 11, 45
16, 57216, Note_on_c, 11, 73, 96
16, 57246, Note_on_c, 11, 73, 0
16, 57248, Note_on_c, 11, 71, 89
16, 57278, Note_on_c, 11, 71, 0
16, 57280, Note_on_c, 11, 68, 104
16, 57310, Note_on_c, 11, 68, 0
16, 57312, Note_on_c, 11, 66, 113
16, 57502, Note_on_c, 11, 66, 0
16, 67296, Program_c, 11, 44
16, 67296, Control_c, 11, 11, 127
16, 68064, Note_on_c, 11, 86, 25
16, 69600, Note_on_c, 11, 86, 0
16, 69600, Control_c, 11, 11, 45
16, 69600, Note_on_c, 11, 88, 94
16, 69628, Control_c, 11, 11, 46
16, 69656, Control_c, 11, 11, 47
16, 69684, Control_c, 11, 11, 48
16, 69712, Control_c, 11, 11, 49
16, 69740, Control_c, 11, 11, 50
16, 69768, Control_c, 11, 11, 51
16, 69796, Control_c, 11, 11, 52
16, 69824, Control_c, 11, 11, 53
16, 69852, Control_c, 11, 11, 54
16, 69880, Control_c, 11, 11, 55
16, 69909, Control_c, 11, 11, 56
16, 69937, Control_c, 11, 11, 57
16, 69965, Control_c, 11, 11, 58
16, 69993, Control_c, 11, 11, 59
16, 70021, Control_c, 11, 11, 60
16, 70049, Control_c, 11, 11, 61
16, 70077, Control_c, 11, 11, 62
16, 70105, Control_c, 11, 11, 63
16, 70133, Control_c, 11, 11, 64
16, 70161, Control_c, 11, 11, 65
16, 70190, Control_c, 11, 11, 66
16, 70218, Control_c, 11, 11, 67
16, 70246, Control_c, 11, 11, 68
16, 70274, Control_c, 11, 11, 69
16, 70302, Control_c, 11, 11, 70
16, 70330, Control_c, 11, 11, 71
16, 70358, Control_c, 11, 11, 72
16, 70368, Note_on_c, 11, 84, 88
16, 70386, Control_c, 11, 11, 73
16, 70414, Control_c, 11, 11, 74
16, 70442, Control_c, 11, 11, 75
16, 70471, Control_c, 11, 11, 76
16, 70499, Control_c, 11, 11, 77
16, 70527, Control_c, 11, 11, 78
16, 70555, Control_c, 11, 11, 79
16, 70583, Control_c, 11, 11, 80
16, 70611, Control_c, 11, 11, 81
16, 70639, Control_c, 11, 11, 82
16, 70667, Control_c, 11, 11, 83
16, 70695, Control_c, 11, 11, 84
16, 70723, Control_c, 11, 11, 85
16, 70751, Control_c, 11, 11, 86
16, 70780, Control_c, 11, 11, 87
16, 70808, Control_c, 11, 11, 88
16, 70836, Control_c, 11, 11, 89
16, 70864, Control_c, 11, 11, 90
16, 70892, Control_c, 11, 11, 91
16, 70920, Control_c, 11, 11, 92
16, 70948, Control_c, 11, 11, 93
16, 70976, Control_c, 11, 11, 94
16, 71004, Control_c, 11, 11, 95
16, 71032, Control_c, 11, 11, 96
16, 71061, Control_c, 11, 11, 97
16, 71089, Control_c, 11, 11, 98
16, 71117, Control_c, 11, 11, 99
16, 71136, Note_on_c, 11, 88, 0
16, 71136, Note_on_c, 11, 84, 0
16, 71136, Note_on_c, 11, 91, 93
16, 71145, Control_c, 11, 11, 100
16, 71173, Control_c, 11, 11, 101
16, 71201, Control_c, 11, 11, 102
16, 71229, Control_c, 11, 11, 103
16, 71257, Control_c, 11, 11, 104
16, 71285, Control_c, 11, 11, 105
16, 71313, Control_c, 11, 11, 106
16, 71342, Control_c, 11, 11, 107
16, 71370, Control_c, 11, 11, 108
16, 71398, Control_c, 11, 11, 109
16, 71426, Control_c, 11, 11, 110
16, 71454, Control_c, 11, 11, 111
16, 71482, Control_c, 11, 11, 112
16, 71510, Control_c, 11, 11, 113
16, 71538, Control_c, 11, 11, 114
16, 71566, Control_c, 11, 11, 115
16, 71594, Control_c, 11, 11, 116
16, 71623, Control_c, 11, 11, 117
16, 71651, Control_c, 11, 11, 118
16, 71679, Control_c, 11, 11, 119
16, 71707, Control_c, 11, 11, 120
16, 71735, Control_c, 11, 11, 121
16, 71763, Control_c, 11, 11, 122
16, 71791, Control_c, 11, 11, 123
16, 71819, Control_c, 11, 11, 124
16, 71847, Control_c, 11, 11, 125
16, 71875, Control_c, 11, 11, 126
16, 71904, Note_on_c, 11, 91, 0
16, 71904, Control_c, 11, 11, 127
16, 71904, Program_c, 11, 48
16, 71904, Note_on_c, 11, 94, 92
16, 71966, Note_on_c, 11, 94, 0
16, 71968, Note_on_c, 11, 91, 87
16, 72062, Note_on_c, 11, 91, 0
16, 72064, Note_on_c, 11, 94, 87
16, 72094, Note_on_c, 11, 94, 0
16, 72096, Note_on_c, 11, 91, 89
16, 72158, Note_on_c, 11, 91, 0
16, 72160, Note_on_c, 11, 94, 90
16, 72254, Note_on_c, 11, 94, 0
16, 72256, Note_on_c, 11, 91, 89
16, 72286, Note_on_c, 11, 91, 0
16, 72288, Note_on_c, 11, 94, 71
16, 72350, Note_on_c, 11, 94, 0
16, 72352, Note_on_c, 11, 91, 75
16, 72446, Note_on_c, 11, 91, 0
16, 72448, Note_on_c, 11, 94, 71
16, 72478, Note_on_c, 11, 94, 0
16, 72480, Note_on_c, 11, 91, 73
16, 72542, Note_on_c, 11, 91, 0
16, 72544, Note_on_c, 11, 94, 62
16, 72638, Note_on_c, 11, 94, 0
16, 72640, Note_on_c, 11, 91, 65
16, 72670, Note_on_c, 11, 91, 0
16, 72672, Note_on_c, 11, 89, 59
16, 72734, Note_on_c, 11, 89, 0
16, 72736, Note_on_c, 11, 86, 58
16, 72830, Note_on_c, 11, 86, 0
16, 72832, Note_on_c, 11, 89, 63
16, 72862, Note_on_c, 11, 89, 0
16, 72864, Note_on_c, 11, 86, 55
16, 72926, Note_on_c, 11, 86, 0
16, 72928, Note_on_c, 11, 82, 60
16, 73022, Note_on_c, 11, 82, 0
16, 73024, Note_on_c, 11, 86, 60
16, 73054, Note_on_c, 11, 86, 0
16, 73056, Note_on_c, 11, 82, 60
16, 73118, Note_on_c, 11, 82, 0
16, 73120, Note_on_c, 11, 79, 64
16, 73214, Note_on_c, 11, 79, 0
16, 73216, Note_on_c, 11, 82, 54
16, 73246, Note_on_c, 11, 82, 0
16, 73248, Note_on_c, 11, 79, 57
16, 73310, Note_on_c, 11, 79, 0
16, 73312, Note_on_c, 11, 75, 57
16, 73374, Note_on_c, 11, 75, 0
16, 73376, Note_on_c, 11, 79, 54
16, 73438, Note_on_c, 11, 79, 0
16, 73440, Note_on_c, 11, 75, 60
16, 73534, Note_on_c, 11, 75, 0
16, 73824, Note_on_c, 11, 63, 43
16, 73846, Note_on_c, 11, 63, 0
16, 73848, Note_on_c, 11, 65, 47
16, 73870, Note_on_c, 11, 65, 0
16, 73872, Note_on_c, 11, 67, 48
16, 73894, Note_on_c, 11, 67, 0
16, 73896, Note_on_c, 11, 69, 49
16, 73918, Note_on_c, 11, 69, 0
16, 73920, Note_on_c, 11, 70, 46
16, 73934, Note_on_c, 11, 70, 0
16, 73936, Note_on_c, 11, 72, 40
16, 73950, Note_on_c, 11, 72, 0
16, 73952, Note_on_c, 11, 74, 44
16, 73966, Note_on_c, 11, 74, 0
16, 73968, Note_on_c, 11, 75, 50
16, 73982, Note_on_c, 11, 75, 0
16, 73984, Note_on_c, 11, 77, 48
16, 73998, Note_on_c, 11, 77, 0
16, 74000, Note_on_c, 11, 79, 40
16, 74014, Note_on_c, 11, 79, 0
16, 74016, Note_on_c, 11, 81, 72
16, 74048, Note_on_c, 11, 81, 0
16, 74304, Note_on_c, 11, 67, 50
16, 74314, Note_on_c, 11, 67, 0
16, 74316, Note_on_c, 11, 69, 50
16, 74326, Note_on_c, 11, 69, 0
16, 74328, Note_on_c, 11, 70, 46
16, 74338, Note_on_c, 11, 70, 0
16, 74340, Note_on_c, 11, 72, 53
16, 74350, Note_on_c, 11, 72, 0
16, 74352, Note_on_c, 11, 74, 62
16, 74362, Note_on_c, 11, 74, 0
16, 74364, Note_on_c, 11, 75, 66
16, 74374, Note_on_c, 11, 75, 0
16, 74376, Note_on_c, 11, 77, 60
16, 74386, Note_on_c, 11, 77, 0
16, 74388, Note_on_c, 11, 79, 67
16, 74398, Note_on_c, 11, 79, 0
16, 74400, Note_on_c, 11, 81, 72
16, 74432, Note_on_c, 11, 81, 0
16, 74880, Note_on_c, 11, 67, 79
16, 74890, Note_on_c, 11, 67, 0
16, 74892, Note_on_c, 11, 69, 77
16, 74902, Note_on_c, 11, 69, 0
16, 74904, Note_on_c, 11, 70, 72
16, 74914, Note_on_c, 11, 70, 0
16, 74916, Note_on_c, 11, 72, 80
16, 74926, Note_on_c, 11, 72, 0
16, 74928, Note_on_c, 11, 74, 77
16, 74938, Note_on_c, 11, 74, 0
16, 74940, Note_on_c, 11, 75, 78
16, 74950, Note_on_c, 11, 75, 0
16, 74952, Note_on_c, 11, 77, 75
16, 74962, Note_on_c, 11, 77, 0
16, 74964, Note_on_c, 11, 79, 78
16, 74974, Note_on_c, 11, 79, 0
16, 74976, Note_on_c, 11, 81, 80
16, 75008, Note_on_c, 11, 81, 0
16, 75456, Note_on_c, 11, 70, 77
16, 75466, Note_on_c, 11, 70, 0
16, 75468, Note_on_c, 11, 72, 78
16, 75478, Note_on_c, 11, 72, 0
16, 75480, Note_on_c, 11, 74, 79
16, 75490, Note_on_c, 11, 74, 0
16, 75492, Note_on_c, 11, 75, 85
16, 75502, Note_on_c, 11, 75, 0
16, 75504, Note_on_c, 11, 77, 88
16, 75514, Note_on_c, 11, 77, 0
16, 75516, Note_on_c, 11, 79, 90
16, 75526, Note_on_c, 11, 79, 0
16, 75528, Note_on_c, 11, 81, 103
16, 75538, Note_on_c, 11, 81, 0
16, 75540, Note_on_c, 11, 82, 105
16, 75550, Note_on_c, 11, 82, 0
16, 75552, Note_on_c, 11, 84, 104
16, 75584, Note_on_c, 11, 84, 0
16, 76080, Note_on_c, 11, 64, 77
16, 76102, Note_on_c, 11, 64, 0
16, 76104, Note_on_c, 11, 65, 77
16, 76126, Note_on_c, 11, 65, 0
16, 76128, Note_on_c, 11, 67, 81
16, 76150, Note_on_c, 11, 67, 0
16, 76152, Note_on_c, 11, 69, 81
16, 76174, Note_on_c, 11, 69, 0
16, 76176, Note_on_c, 11, 70, 89
16, 76198, Note_on_c, 11, 70, 0
16, 76200, Note_on_c, 11, 72, 94
16, 76222, Note_on_c, 11, 72, 0
16, 76224, Note_on_c, 11, 74, 95
16, 76246, Note_on_c, 11, 74, 0
16, 76248, Note_on_c, 11, 75, 95
16, 76270, Note_on_c, 11, 75, 0
16, 76272, Note_on_c, 11, 77, 106
16, 76294, Note_on_c, 11, 77, 0
16, 76296, Note_on_c, 11, 79, 111
16, 76318, Note_on_c, 11, 79, 0
16, 76320, Program_c, 11, 44
16, 76320, Control_c, 11, 11, 75
16, 76320, Note_on_c, 11, 81, 91
16, 76329, Control_c, 11, 11, 76
16, 76338, Control_c, 11, 11, 77
16, 76347, Control_c, 11, 11, 78
16, 76356, Control_c, 11, 11, 79
16, 76366, Control_c, 11, 11, 80
16, 76375, Control_c, 11, 11, 81
16, 76384, Control_c, 11, 11, 82
16, 76393, Control_c, 11, 11, 83
16, 76403, Control_c, 11, 11, 84
16, 76412, Control_c, 11, 11, 85
16, 76414, Note_on_c, 11, 81, 0
16, 76416, Note_on_c, 11, 79, 94
16, 76421, Control_c, 11, 11, 86
16, 76430, Control_c, 11, 11, 87
16, 76439, Control_c, 11, 11, 88
16, 76449, Control_c, 11, 11, 89
16, 76458, Control_c, 11, 11, 90
16, 76467, Control_c, 11, 11, 91
16, 76476, Control_c, 11, 11, 92
16, 76486, Control_c, 11, 11, 93
16, 76495, Control_c, 11, 11, 94
16, 76504, Control_c, 11, 11, 95
16, 76510, Note_on_c, 11, 79, 0
16, 76512, Note_on_c, 11, 69, 97
16, 76513, Control_c, 11, 11, 96
16, 76523, Control_c, 11, 11, 97
16, 76532, Control_c, 11, 11, 98
16, 76541, Control_c, 11, 11, 99
16, 76550, Control_c, 11, 11, 100
16, 76559, Control_c, 11, 11, 101
16, 76569, Control_c, 11, 11, 102
16, 76578, Control_c, 11, 11, 103
16, 76587, Control_c, 11, 11, 104
16, 76596, Control_c, 11, 11, 105
16, 76606, Note_on_c, 11, 69, 0
16, 76606, Control_c, 11, 11, 106
16, 76608, Program_c, 11, 48
16, 76608, Note_on_c, 11, 67, 97
16, 76615, Control_c, 11, 11, 107
16, 76624, Control_c, 11, 11, 108
16, 76633, Control_c, 11, 11, 109
16, 76640, Note_on_c, 11, 67, 0
16, 76643, Control_c, 11, 11, 110
16, 76652, Control_c, 11, 11, 111
16, 76661, Control_c, 11, 11, 112
16, 76670, Control_c, 11, 11, 113
16, 76679, Control_c, 11, 11, 114
16, 76689, Control_c, 11, 11, 115
16, 76698, Control_c, 11, 11, 116
16, 76704, Note_on_c, 11, 81, 90
16, 76707, Control_c, 11, 11, 117
16, 76716, Control_c, 11, 11, 118
16, 76726, Control_c, 11, 11, 119
16, 76735, Control_c, 11, 11, 120
16, 76744, Control_c, 11, 11, 121
16, 76753, Control_c, 11, 11, 122
16, 76763, Control_c, 11, 11, 123
16, 76772, Control_c, 11, 11, 124
16, 76781, Control_c, 11, 11, 125
16, 76790, Control_c, 11, 11, 126
16, 76800, Control_c, 11, 11, 127
16, 76846, Note_on_c, 11, 81, 0
16, 76848, Note_on_c, 11, 79, 92
16, 76894, Note_on_c, 11, 79, 0
16, 76896, Program_c, 11, 44
16, 76896, Control_c, 11, 11, 64
16, 76896, Note_on_c, 11, 81, 110
16, 76903, Control_c, 11, 11, 65
16, 76911, Control_c, 11, 11, 66
16, 76918, Control_c, 11, 11, 67
16, 76926, Control_c, 11, 11, 68
16, 76934, Control_c, 11, 11, 69
16, 76941, Control_c, 11, 11, 70
16, 76949, Control_c, 11, 11, 71
16, 76956, Control_c, 11, 11, 72
16, 76964, Control_c, 11, 11, 73
16, 76972, Control_c, 11, 11, 74
16, 76979, Control_c, 11, 11, 75
16, 76987, Control_c, 11, 11, 76
16, 76990, Note_on_c, 11, 81, 0
16, 76992, Note_on_c, 11, 79, 106
16, 76995, Control_c, 11, 11, 77
16, 77002, Control_c, 11, 11, 78
16, 77010, Control_c, 11, 11, 79
16, 77017, Control_c, 11, 11, 80
16, 77025, Control_c, 11, 11, 81
16, 77033, Control_c, 11, 11, 82
16, 77040, Control_c, 11, 11, 83
16, 77048, Control_c, 11, 11, 84
16, 77056, Control_c, 11, 11, 85
16, 77063, Control_c, 11, 11, 86
16, 77071, Control_c, 11, 11, 87
16, 77078, Control_c, 11, 11, 88
16, 77086, Note_on_c, 11, 79, 0
16, 77086, Control_c, 11, 11, 89
16, 77088, Note_on_c, 11, 69, 105
16, 77094, Control_c, 11, 11, 90
16, 77101, Control_c, 11, 11, 91
16, 77109, Control_c, 11, 11, 92
16, 77116, Control_c, 11, 11, 93
16, 77124, Control_c, 11, 11, 94
16, 77132, Control_c, 11, 11, 95
16, 77139, Control_c, 11, 11, 96
16, 77147, Control_c, 11, 11, 97
16, 77155, Control_c, 11, 11, 98
16, 77162, Control_c, 11, 11, 99
16, 77170, Control_c, 11, 11, 100
16, 77177, Control_c, 11, 11, 101
16, 77182, Note_on_c, 11, 69, 0
16, 77184, Program_c, 11, 48
16, 77184, Note_on_c, 11, 67, 113
16, 77185, Control_c, 11, 11, 102
16, 77193, Control_c, 11, 11, 103
16, 77200, Control_c, 11, 11, 104
16, 77208, Control_c, 11, 11, 105
16, 77216, Note_on_c, 11, 67, 0
16, 77216, Control_c, 11, 11, 106
16, 77223, Control_c, 11, 11, 107
16, 77231, Control_c, 11, 11, 108
16, 77238, Control_c, 11, 11, 109
16, 77246, Control_c, 11, 11, 110
16, 77254, Control_c, 11, 11, 111
16, 77261, Control_c, 11, 11, 112
16, 77269, Control_c, 11, 11, 113
16, 77276, Control_c, 11, 11, 114
16, 77280, Note_on_c, 11, 81, 104
16, 77284, Control_c, 11, 11, 115
16, 77292, Control_c, 11, 11, 116
16, 77299, Control_c, 11, 11, 117
16, 77307, Control_c, 11, 11, 118
16, 77315, Control_c, 11, 11, 119
16, 77322, Control_c, 11, 11, 120
16, 77330, Control_c, 11, 11, 121
16, 77337, Control_c, 11, 11, 122
16, 77345, Control_c, 11, 11, 123
16, 77353, Control_c, 11, 11, 124
16, 77360, Control_c, 11, 11, 125
16, 77368, Control_c, 11, 11, 126
16, 77376, Control_c, 11, 11, 127
16, 77422, Note_on_c, 11, 81, 0
16, 77424, Note_on_c, 11, 79, 104
16, 77470, Note_on_c, 11, 79, 0
16, 77472, Program_c, 11, 44
16, 77472, Control_c, 11, 11, 75
16, 77472, Note_on_c, 11, 84, 103
16, 77494, Control_c, 11, 11, 76
16, 77516, Control_c, 11, 11, 77
16, 77538, Control_c, 11, 11, 78
16, 77560, Control_c, 11, 11, 79
16, 77566, Note_on_c, 11, 84, 0
16, 77568, Note_on_c, 11, 82, 112
16, 77582, Control_c, 11, 11, 80
16, 77604, Control_c, 11, 11, 81
16, 77627, Control_c, 11, 11, 82
16, 77649, Control_c, 11, 11, 83
16, 77662, Note_on_c, 11, 82, 0
16, 77664, Note_on_c, 11, 72, 109
16, 77671, Control_c, 11, 11, 84
16, 77693, Control_c, 11, 11, 85
16, 77715, Control_c, 11, 11, 86
16, 77737, Control_c, 11, 11, 87
16, 77758, Note_on_c, 11, 72, 0
16, 77760, Control_c, 11, 11, 88
16, 77760, Program_c, 11, 48
16, 77760, Note_on_c, 11, 70, 104
16, 77782, Control_c, 11, 11, 89
16, 77792, Note_on_c, 11, 70, 0
16, 77804, Control_c, 11, 11, 90
16, 77826, Control_c, 11, 11, 91
16, 77848, Control_c, 11, 11, 92
16, 77856, Note_on_c, 11, 84, 103
16, 77870, Control_c, 11, 11, 93
16, 77892, Control_c, 11, 11, 94
16, 77915, Control_c, 11, 11, 95
16, 77937, Control_c, 11, 11, 96
16, 77959, Control_c, 11, 11, 97
16, 77981, Control_c, 11, 11, 98
16, 77998, Note_on_c, 11, 84, 0
16, 78000, Note_on_c, 11, 82, 112
16, 78003, Control_c, 11, 11, 99
16, 78025, Control_c, 11, 11, 100
16, 78046, Note_on_c, 11, 82, 0
16, 78048, Control_c, 11, 11, 101
16, 78048, Program_c, 11, 44
16, 78048, Note_on_c, 11, 84, 107
16, 78070, Control_c, 11, 11, 102
16, 78092, Control_c, 11, 11, 103
16, 78114, Control_c, 11, 11, 104
16, 78136, Control_c, 11, 11, 105
16, 78142, Note_on_c, 11, 84, 0
16, 78144, Note_on_c, 11, 82, 106
16, 78158, Control_c, 11, 11, 106
16, 78180, Control_c, 11, 11, 107
16, 78203, Control_c, 11, 11, 108
16, 78225, Control_c, 11, 11, 109
16, 78238, Note_on_c, 11, 82, 0
16, 78240, Note_on_c, 11, 72, 111
16, 78247, Control_c, 11, 11, 110
16, 78269, Control_c, 11, 11, 111
16, 78291, Control_c, 11, 11, 112
16, 78313, Control_c, 11, 11, 113
16, 78334, Note_on_c, 11, 72, 0
16, 78336, Control_c, 11, 11, 114
16, 78336, Program_c, 11, 48
16, 78336, Note_on_c, 11, 70, 111
16, 78358, Control_c, 11, 11, 115
16, 78368, Note_on_c, 11, 70, 0
16, 78380, Control_c, 11, 11, 116
16, 78402, Control_c, 11, 11, 117
16, 78424, Control_c, 11, 11, 118
16, 78432, Note_on_c, 11, 84, 110
16, 78446, Control_c, 11, 11, 119
16, 78468, Control_c, 11, 11, 120
16, 78491, Control_c, 11, 11, 121
16, 78513, Control_c, 11, 11, 122
16, 78535, Control_c, 11, 11, 123
16, 78557, Control_c, 11, 11, 124
16, 78574, Note_on_c, 11, 84, 0
16, 78576, Note_on_c, 11, 82, 106
16, 78579, Control_c, 11, 11, 125
16, 78601, Control_c, 11, 11, 126
16, 78622, Note_on_c, 11, 82, 0
16, 78624, Control_c, 11, 11, 127
16, 78624, Control_c, 11, 11, 127
16, 78624, Note_on_c, 11, 86, 110
16, 78632, Control_c, 11, 11, 126
16, 78640, Control_c, 11, 11, 125
16, 78648, Control_c, 11, 11, 124
16, 78656, Control_c, 11, 11, 123
16, 78665, Control_c, 11, 11, 122
16, 78673, Control_c, 11, 11, 121
16, 78681, Control_c, 11, 11, 120
16, 78689, Control_c, 11, 11, 119
16, 78698, Control_c, 11, 11, 118
16, 78706, Control_c, 11, 11, 117
16, 78714, Control_c, 11, 11, 116
16, 78718, Note_on_c, 11, 86, 0
16, 78720, Note_on_c, 11, 84, 107
16, 78722, Control_c, 11, 11, 115
16, 78730, Control_c, 11, 11, 114
16, 78739, Control_c, 11, 11, 113
16, 78747, Control_c, 11, 11, 112
16, 78755, Control_c, 11, 11, 111
16, 78763, Control_c, 11, 11, 110
16, 78772, Control_c, 11, 11, 109
16, 78780, Control_c, 11, 11, 108
16, 78788, Control_c, 11, 11, 107
16, 78796, Control_c, 11, 11, 106
16, 78805, Control_c, 11, 11, 105
16, 78813, Control_c, 11, 11, 104
16, 78821, Control_c, 11, 11, 103
16, 78829, Control_c, 11, 11, 102
16, 78837, Control_c, 11, 11, 101
16, 78846, Control_c, 11, 11, 100
16, 78854, Control_c, 11, 11, 99
16, 78862, Note_on_c, 11, 84, 0
16, 78862, Control_c, 11, 11, 98
16, 78864, Note_on_c, 11, 74, 107
16, 78870, Control_c, 11, 11, 97
16, 78879, Control_c, 11, 11, 96
16, 78887, Control_c, 11, 11, 95
16, 78895, Control_c, 11, 11, 94
16, 78903, Control_c, 11, 11, 93
16, 78910, Note_on_c, 11, 74, 0
16, 78912, Control_c, 11, 11, 92
16, 78912, Note_on_c, 11, 72, 110
16, 78920, Control_c, 11, 11, 93
16, 78928, Control_c, 11, 11, 94
16, 78936, Control_c, 11, 11, 95
16, 78944, Control_c, 11, 11, 96
16, 78953, Control_c, 11, 11, 97
16, 78961, Control_c, 11, 11, 98
16, 78969, Control_c, 11, 11, 99
16, 78977, Control_c, 11, 11, 100
16, 78986, Control_c, 11, 11, 101
16, 78994, Control_c, 11, 11, 102
16, 79002, Control_c, 11, 11, 103
16, 79006, Note_on_c, 11, 72, 0
16, 79008, Note_on_c, 11, 74, 108
16, 79010, Control_c, 11, 11, 104
16, 79018, Control_c, 11, 11, 105
16, 79027, Control_c, 11, 11, 106
16, 79035, Control_c, 11, 11, 107
16, 79043, Control_c, 11, 11, 108
16, 79051, Control_c, 11, 11, 109
16, 79060, Control_c, 11, 11, 110
16, 79068, Control_c, 11, 11, 111
16, 79076, Control_c, 11, 11, 112
16, 79084, Control_c, 11, 11, 113
16, 79093, Control_c, 11, 11, 114
16, 79101, Control_c, 11, 11, 115
16, 79109, Control_c, 11, 11, 116
16, 79117, Control_c, 11, 11, 117
16, 79125, Control_c, 11, 11, 118
16, 79134, Control_c, 11, 11, 119
16, 79142, Control_c, 11, 11, 120
16, 79150, Note_on_c, 11, 74, 0
16, 79150, Control_c, 11, 11, 121
16, 79152, Note_on_c, 11, 84, 111
16, 79158, Control_c, 11, 11, 122
16, 79167, Control_c, 11, 11, 123
16, 79175, Control_c, 11, 11, 124
16, 79183, Control_c, 11, 11, 125
16, 79191, Control_c, 11, 11, 126
16, 79198, Note_on_c, 11, 84, 0
16, 79200, Control_c, 11, 11, 127
16, 79200, Control_c, 11, 11, 127
16, 79200, Note_on_c, 11, 86, 113
16, 79208, Control_c, 11, 11, 126
16, 79216, Control_c, 11, 11, 125
16, 79224, Control_c, 11, 11, 124
16, 79232, Control_c, 11, 11, 123
16, 79241, Control_c, 11, 11, 122
16, 79249, Control_c, 11, 11, 121
16, 79257, Control_c, 11, 11, 120
16, 79265, Control_c, 11, 11, 119
16, 79274, Control_c, 11, 11, 118
16, 79282, Control_c, 11, 11, 117
16, 79290, Control_c, 11, 11, 116
16, 79294, Note_on_c, 11, 86, 0
16, 79296, Note_on_c, 11, 84, 107
16, 79298, Control_c, 11, 11, 115
16, 79306, Control_c, 11, 11, 114
16, 79315, Control_c, 11, 11, 113
16, 79323, Control_c, 11, 11, 112
16, 79331, Control_c, 11, 11, 111
16, 79339, Control_c, 11, 11, 110
16, 79348, Control_c, 11, 11, 109
16, 79356, Control_c, 11, 11, 108
16, 79364, Control_c, 11, 11, 107
16, 79372, Control_c, 11, 11, 106
16, 79381, Control_c, 11, 11, 105
16, 79389, Control_c, 11, 11, 104
16, 79397, Control_c, 11, 11, 103
16, 79405, Control_c, 11, 11, 102
16, 79413, Control_c, 11, 11, 101
16, 79422, Control_c, 11, 11, 100
16, 79430, Control_c, 11, 11, 99
16, 79438, Note_on_c, 11, 84, 0
16, 79438, Control_c, 11, 11, 98
16, 79440, Note_on_c, 11, 74, 109
16, 79446, Control_c, 11, 11, 97
16, 79455, Control_c, 11, 11, 96
16, 79463, Control_c, 11, 11, 95
16, 79471, Control_c, 11, 11, 94
16, 79479, Control_c, 11, 11, 93
16, 79486, Note_on_c, 11, 74, 0
16, 79488, Control_c, 11, 11, 92
16, 79488, Note_on_c, 11, 72, 108
16, 79496, Control_c, 11, 11, 93
16, 79504, Control_c, 11, 11, 94
16, 79512, Control_c, 11, 11, 95
16, 79520, Control_c, 11, 11, 96
16, 79529, Control_c, 11, 11, 97
16, 79537, Control_c, 11, 11, 98
16, 79545, Control_c, 11, 11, 99
16, 79553, Control_c, 11, 11, 100
16, 79562, Control_c, 11, 11, 101
16, 79570, Control_c, 11, 11, 102
16, 79578, Control_c, 11, 11, 103
16, 79582, Note_on_c, 11, 72, 0
16, 79584, Note_on_c, 11, 74, 106
16, 79586, Control_c, 11, 11, 104
16, 79594, Control_c, 11, 11, 105
16, 79603, Control_c, 11, 11, 106
16, 79611, Control_c, 11, 11, 107
16, 79619, Control_c, 11, 11, 108
16, 79627, Control_c, 11, 11, 109
16, 79636, Control_c, 11, 11, 110
16, 79644, Control_c, 11, 11, 111
16, 79652, Control_c, 11, 11, 112
16, 79660, Control_c, 11, 11, 113
16, 79669, Control_c, 11, 11, 114
16, 79677, Control_c, 11, 11, 115
16, 79685, Control_c, 11, 11, 116
16, 79693, Control_c, 11, 11, 117
16, 79701, Control_c, 11, 11, 118
16, 79710, Control_c, 11, 11, 119
16, 79718, Control_c, 11, 11, 120
16, 79726, Note_on_c, 11, 74, 0
16, 79726, Control_c, 11, 11, 121
16, 79728, Note_on_c, 11, 84, 110
16, 79734, Control_c, 11, 11, 122
16, 79743, Control_c, 11, 11, 123
16, 79751, Control_c, 11, 11, 124
16, 79759, Control_c, 11, 11, 125
16, 79767, Control_c, 11, 11, 126
16, 79774, Note_on_c, 11, 84, 0
16, 79776, Control_c, 11, 11, 127
16, 79776, Control_c, 11, 11, 127
16, 79776, Note_on_c, 11, 86, 110
16, 79784, Control_c, 11, 11, 126
16, 79792, Control_c, 11, 11, 125
16, 79800, Control_c, 11, 11, 124
16, 79808, Control_c, 11, 11, 123
16, 79817, Control_c, 11, 11, 122
16, 79825, Control_c, 11, 11, 121
16, 79833, Control_c, 11, 11, 120
16, 79841, Control_c, 11, 11, 119
16, 79850, Control_c, 11, 11, 118
16, 79858, Control_c, 11, 11, 117
16, 79866, Control_c, 11, 11, 116
16, 79870, Note_on_c, 11, 86, 0
16, 79872, Note_on_c, 11, 84, 113
16, 79874, Control_c, 11, 11, 115
16, 79882, Control_c, 11, 11, 114
16, 79891, Control_c, 11, 11, 113
16, 79899, Control_c, 11, 11, 112
16, 79907, Control_c, 11, 11, 111
16, 79915, Control_c, 11, 11, 110
16, 79924, Control_c, 11, 11, 109
16, 79932, Control_c, 11, 11, 108
16, 79940, Control_c, 11, 11, 107
16, 79948, Control_c, 11, 11, 106
16, 79957, Control_c, 11, 11, 105
16, 79965, Control_c, 11, 11, 104
16, 79973, Control_c, 11, 11, 103
16, 79981, Control_c, 11, 11, 102
16, 79989, Control_c, 11, 11, 101
16, 79998, Control_c, 11, 11, 100
16, 80006, Control_c, 11, 11, 99
16, 80014, Note_on_c, 11, 84, 0
16, 80014, Control_c, 11, 11, 98
16, 80016, Note_on_c, 11, 74, 105
16, 80022, Control_c, 11, 11, 97
16, 80031, Control_c, 11, 11, 96
16, 80039, Control_c, 11, 11, 95
16, 80047, Control_c, 11, 11, 94
16, 80055, Control_c, 11, 11, 93
16, 80062, Note_on_c, 11, 74, 0
16, 80064, Control_c, 11, 11, 92
16, 80064, Note_on_c, 11, 72, 105
16, 80072, Control_c, 11, 11, 93
16, 80080, Control_c, 11, 11, 94
16, 80088, Control_c, 11, 11, 95
16, 80096, Control_c, 11, 11, 96
16, 80105, Control_c, 11, 11, 97
16, 80113, Control_c, 11, 11, 98
16, 80121, Control_c, 11, 11, 99
16, 80129, Control_c, 11, 11, 100
16, 80138, Control_c, 11, 11, 101
16, 80146, Control_c, 11, 11, 102
16, 80154, Control_c, 11, 11, 103
16, 80158, Note_on_c, 11, 72, 0
16, 80160, Note_on_c, 11, 74, 108
16, 80162, Control_c, 11, 11, 104
16, 80170, Control_c, 11, 11, 105
16, 80179, Control_c, 11, 11, 106
16, 80187, Control_c, 11, 11, 107
16, 80195, Control_c, 11, 11, 108
16, 80203, Control_c, 11, 11, 109
16, 80212, Control_c, 11, 11, 110
16, 80220, Control_c, 11, 11, 111
16, 80228, Control_c, 11, 11, 112
16, 80236, Control_c, 11, 11, 113
16, 80245, Control_c, 11, 11, 114
16, 80253, Control_c, 11, 11, 115
16, 80261, Control_c, 11, 11, 116
16, 80269, Control_c, 11, 11, 117
16, 80277, Control_c, 11, 11, 118
16, 80286, Control_c, 11, 11, 119
16, 80294, Control_c, 11, 11, 120
16, 80302, Note_on_c, 11, 74, 0
16, 80302, Control_c, 11, 11, 121
16, 80304, Note_on_c, 11, 84, 104
16, 80310, Control_c, 11, 11, 122
16, 80319, Control_c, 11, 11, 123
16, 80327, Control_c, 11, 11, 124
16, 80335, Control_c, 11, 11, 125
16, 80343, Control_c, 11, 11, 126
16, 80350, Note_on_c, 11, 84, 0
16, 80352, Control_c, 11, 11, 127
16, 80352, Control_c, 11, 11, 127
16, 80352, Note_on_c, 11, 86, 105
16, 80360, Control_c, 11, 11, 126
16, 80368, Control_c, 11, 11, 125
16, 80376, Control_c, 11, 11, 124
16, 80384, Control_c, 11, 11, 123
16, 80393, Control_c, 11, 11, 122
16, 80401, Control_c, 11, 11, 121
16, 80409, Control_c, 11, 11, 120
16, 80417, Control_c, 11, 11, 119
16, 80426, Control_c, 11, 11, 118
16, 80434, Control_c, 11, 11, 117
16, 80442, Control_c, 11, 11, 116
16, 80446, Note_on_c, 11, 86, 0
16, 80448, Note_on_c, 11, 84, 108
16, 80450, Control_c, 11, 11, 115
16, 80458, Control_c, 11, 11, 114
16, 80467, Control_c, 11, 11, 113
16, 80475, Control_c, 11, 11, 112
16, 80483, Control_c, 11, 11, 111
16, 80491, Control_c, 11, 11, 110
16, 80500, Control_c, 11, 11, 109
16, 80508, Control_c, 11, 11, 108
16, 80516, Control_c, 11, 11, 107
16, 80524, Control_c, 11, 11, 106
16, 80533, Control_c, 11, 11, 105
16, 80541, Control_c, 11, 11, 104
16, 80549, Control_c, 11, 11, 103
16, 80557, Control_c, 11, 11, 102
16, 80565, Control_c, 11, 11, 101
16, 80574, Control_c, 11, 11, 100
16, 80582, Control_c, 11, 11, 99
16, 80590, Note_on_c, 11, 84, 0
16, 80590, Control_c, 11, 11, 98
16, 80592, Note_on_c, 11, 74, 108
16, 80598, Control_c, 11, 11, 97
16, 80607, Control_c, 11, 11, 96
16, 80615, Control_c, 11, 11, 95
16, 80623, Control_c, 11, 11, 94
16, 80631, Control_c, 11, 11, 93
16, 80638, Note_on_c, 11, 74, 0
16, 80640, Control_c, 11, 11, 92
16, 80640, Note_on_c, 11, 72, 107
16, 80648, Control_c, 11, 11, 93
16, 80656, Control_c, 11, 11, 94
16, 80664, Control_c, 11, 11, 95
16, 80672, Control_c, 11, 11, 96
16, 80681, Control_c, 11, 11, 97
16, 80689, Control_c, 11, 11, 98
16, 80697, Control_c, 11, 11, 99
16, 80705, Control_c, 11, 11, 100
16, 80714, Control_c, 11, 11, 101
16, 80722, Control_c, 11, 11, 102
16, 80730, Control_c, 11, 11, 103
16, 80734, Note_on_c, 11, 72, 0
16, 80736, Note_on_c, 11, 74, 109
16, 80738, Control_c, 11, 11, 104
16, 80746, Control_c, 11, 11, 105
16, 80755, Control_c, 11, 11, 106
16, 80763, Control_c, 11, 11, 107
16, 80771, Control_c, 11, 11, 108
16, 80779, Control_c, 11, 11, 109
16, 80788, Control_c, 11, 11, 110
16, 80796, Control_c, 11, 11, 111
16, 80804, Control_c, 11, 11, 112
16, 80812, Control_c, 11, 11, 113
16, 80821, Control_c, 11, 11, 114
16, 80829, Control_c, 11, 11, 115
16, 80837, Control_c, 11, 11, 116
16, 80845, Control_c, 11, 11, 117
16, 80853, Control_c, 11, 11, 118
16, 80862, Control_c, 11, 11, 119
16, 80870, Control_c, 11, 11, 120
16, 80878, Note_on_c, 11, 74, 0
16, 80878, Control_c, 11, 11, 121
16, 80880, Note_on_c, 11, 84, 108
16, 80886, Control_c, 11, 11, 122
16, 80895, Control_c, 11, 11, 123
16, 80903, Control_c, 11, 11, 124
16, 80911, Control_c, 11, 11, 125
16, 80919, Control_c, 11, 11, 126
16, 80926, Note_on_c, 11, 84, 0
16, 80928, Control_c, 11, 11, 127
16, 80928, Note_on_c, 11, 86, 88
16, 81022, Note_on_c, 11, 86, 0
16, 81024, Note_on_c, 11, 84, 95
16, 81166, Note_on_c, 11, 84, 0
16, 81168, Note_on_c, 11, 74, 93
16, 81214, Note_on_c, 11, 74, 0
16, 81216, Note_on_c, 11, 72, 91
16, 81310, Note_on_c, 11, 72, 0
16, 81312, Note_on_c, 11, 74, 86
16, 81454, Note_on_c, 11, 74, 0
16, 81456, Note_on_c, 11, 84, 90
16, 81502, Note_on_c, 11, 84, 0
16, 81504, Note_on_c, 11, 86, 87
16, 81598, Note_on_c, 11, 86, 0
16, 81600, Note_on_c, 11, 84, 83
16, 81742, Note_on_c, 11, 84, 0
16, 81744, Note_on_c, 11, 74, 77
16, 81790, Note_on_c, 11, 74, 0
16, 81792, Note_on_c, 11, 72, 75
16, 81886, Note_on_c, 11, 72, 0
16, 81888, Note_on_c, 11, 74, 74
16, 82030, Note_on_c, 11, 74, 0
16, 82032, Note_on_c, 11, 84, 78
16, 82078, Note_on_c, 11, 84, 0
16, 82080, Note_on_c, 11, 86, 77
16, 82174, Note_on_c, 11, 86, 0
16, 82176, Note_on_c, 11, 84, 76
16, 82318, Note_on_c, 11, 84, 0
16, 82320, Note_on_c, 11, 74, 72
16, 82366, Note_on_c, 11, 74, 0
16, 82368, Note_on_c, 11, 72, 71
16, 82462, Note_on_c, 11, 72, 0
16, 82464, Note_on_c, 11, 74, 69
16, 82606, Note_on_c, 11, 74, 0
16, 82608, Note_on_c, 11, 84, 60
16, 82654, Note_on_c, 11, 84, 0
16, 82656, Note_on_c, 11, 86, 57
16, 82750, Note_on_c, 11, 86, 0
16, 82752, Note_on_c, 11, 84, 57
16, 82894, Note_on_c, 11, 84, 0
16, 82896, Note_on_c, 11, 74, 56
16, 82942, Note_on_c, 11, 74, 0
16, 82944, Note_on_c, 11, 72, 59
16, 83038, Note_on_c, 11, 72, 0
16, 83040, Note_on_c, 11, 74, 55
16, 83182, Note_on_c, 11, 74, 0
16, 83184, Note_on_c, 11, 84, 43
16, 83230, Note_on_c, 11, 84, 0
16, 83232, Note_on_c, 11, 87, 49
16, 83326, Note_on_c, 11, 87, 0
16, 83328, Note_on_c, 11, 85, 42
16, 83470, Note_on_c, 11, 85, 0
16, 83472, Note_on_c, 11, 75, 48
16, 83518, Note_on_c, 11, 75, 0
16, 83520, Note_on_c, 11, 73, 41
16, 83614, Note_on_c, 11, 73, 0
16, 83616, Note_on_c, 11, 75, 47
16, 83758, Note_on_c, 11, 75, 0
16, 83760, Note_on_c, 11, 85, 48
16, 83806, Note_on_c, 11, 85, 0
16, 83808, Note_on_c, 11, 87, 47
16, 83902, Note_on_c, 11, 87, 0
16, 83904, Note_on_c, 11, 85, 41
16, 84046, Note_on_c, 11, 85, 0
16, 84048, Note_on_c, 11, 75, 50
16, 84094, Note_on_c, 11, 75, 0
16, 84096, Note_on_c, 11, 73, 43
16, 84190, Note_on_c, 11, 73, 0
16, 84192, Note_on_c, 11, 75, 45
16, 84334, Note_on_c, 11, 75, 0
16, 84336, Note_on_c, 11, 85, 42
16, 84382, Note_on_c, 11, 85, 0
16, 84384, Note_on_c, 11, 88, 46
16, 84478, Note_on_c, 11, 88, 0
16, 84480, Note_on_c, 11, 86, 40
16, 84622, Note_on_c, 11, 86, 0
16, 84624, Note_on_c, 11, 76, 40
16, 84670, Note_on_c, 11, 76, 0
16, 84672, Note_on_c, 11, 74, 42
16, 84766, Note_on_c, 11, 74, 0
16, 84768, Note_on_c, 11, 76, 42
16, 84910, Note_on_c, 11, 76, 0
16, 84912, Note_on_c, 11, 88, 38
16, 84958, Note_on_c, 11, 88, 0
16, 84960, Note_on_c, 11, 90, 41
16, 85054, Note_on_c, 11, 90, 0
16, 85056, Note_on_c, 11, 88, 46
16, 85198, Note_on_c, 11, 88, 0
16, 85200, Note_on_c, 11, 78, 39
16, 85246, Note_on_c, 11, 78, 0
16, 85248, Note_on_c, 11, 76, 42
16, 85342, Note_on_c, 11, 76, 0
16, 85344, Note_on_c, 11, 78, 39
16, 85486, Note_on_c, 11, 78, 0
16, 85488, Note_on_c, 11, 90, 43
16, 85534, Note_on_c, 11, 90, 0
16, 85536, Note_on_c, 11, 92, 36
16, 85630, Note_on_c, 11, 92, 0
16, 85632, Note_on_c, 11, 90, 34
16, 85774, Note_on_c, 11, 90, 0
16, 85776, Note_on_c, 11, 80, 32
16, 85822, Note_on_c, 11, 80, 0
16, 85824, Note_on_c, 11, 78, 38
16, 85918, Note_on_c, 11, 78, 0
16, 85920, Note_on_c, 11, 80, 31
16, 86062, Note_on_c, 11, 80, 0
16, 86064, Note_on_c, 11, 92, 30
16, 86110, Note_on_c, 11, 92, 0
16, 86112, Note_on_c, 11, 94, 35
16, 86206, Note_on_c, 11, 94, 0
16, 86208, Note_on_c, 11, 92, 31
16, 86350, Note_on_c, 11, 92, 0
16, 86352, Note_on_c, 11, 82, 29
16, 86398, Note_on_c, 11, 82, 0
16, 86400, Note_on_c, 11, 80, 25
16, 86494, Note_on_c, 11, 80, 0
16, 86496, Note_on_c, 11, 82, 33
16, 86638, Note_on_c, 11, 82, 0
16, 86640, Note_on_c, 11, 92, 35
16, 86686, Note_on_c, 11, 92, 0
16, 86688, Note_on_c, 11, 94, 31
16, 86782, Note_on_c, 11, 94, 0
16, 86784, Note_on_c, 11, 92, 33
16, 86926, Note_on_c, 11, 92, 0
16, 86928, Note_on_c, 11, 82, 28
16, 86974, Note_on_c, 11, 82, 0
16, 86976, Note_on_c, 11, 80, 33
16, 87070, Note_on_c, 11, 80, 0
16, 87072, Note_on_c, 11, 82, 32
16, 87214, Note_on_c, 11, 82, 0
16, 87216, Note_on_c, 11, 92, 35
16, 87262, Note_on_c, 11, 92, 0
16, 87264, Note_on_c, 11, 94, 26
16, 87358, Note_on_c, 11, 94, 0
16, 87360, Note_on_c, 11, 92, 28
16, 87502, Note_on_c, 11, 92, 0
16, 87504, Note_on_c, 11, 82, 35
16, 87550, Note_on_c, 11, 82, 0
16, 87552, Note_on_c, 11, 80, 27
16, 87646, Note_on_c, 11, 80, 0
16, 87648, Note_on_c, 11, 82, 33
16, 87790, Note_on_c, 11, 82, 0
16, 87792, Note_on_c, 11, 92, 32
16, 87838, Note_on_c, 11, 92, 0
16, 87840, Note_on_c, 11, 94, 34
16, 87934, Note_on_c, 11, 94, 0
16, 87936, Note_on_c, 11, 92, 27
16, 88078, Note_on_c, 11, 92, 0
16, 88080, Note_on_c, 11, 82, 29
16, 88126, Note_on_c, 11, 82, 0
16, 88128, Note_on_c, 11, 80, 25
16, 88222, Note_on_c, 11, 80, 0
16, 88224, Note_on_c, 11, 82, 28
16, 88366, Note_on_c, 11, 82, 0
16, 88368, Note_on_c, 11, 92, 32
16, 88414, Note_on_c, 11, 92, 0
16, 88416, Note_on_c, 11, 94, 33
16, 88510, Note_on_c, 11, 94, 0
16, 88512, Note_on_c, 11, 90, 26
16, 88654, Note_on_c, 11, 90, 0
16, 88656, Note_on_c, 11, 82, 25
16, 88702, Note_on_c, 11, 82, 0
16, 88704, Note_on_c, 11, 82, 29
16, 88798, Note_on_c, 11, 82, 0
16, 88800, Note_on_c, 11, 90, 30
16, 88942, Note_on_c, 11, 90, 0
16, 88944, Note_on_c, 11, 94, 25
16, 88990, Note_on_c, 11, 94, 0
16, 88992, Note_on_c, 11, 94, 30
16, 89086, Note_on_c, 11, 94, 0
16, 89088, Note_on_c, 11, 90, 34
16, 89230, Note_on_c, 11, 90, 0
16, 89232, Note_on_c, 11, 82, 28
16, 89278, Note_on_c, 11, 82, 0
16, 89280, Note_on_c, 11, 82, 34
16, 89374, Note_on_c, 11, 82, 0
16, 89376, Note_on_c, 11, 90, 34
16, 89518, Note_on_c, 11, 90, 0
16, 89520, Note_on_c, 11, 94, 32
16, 89566, Note_on_c, 11, 94, 0
16, 89568, Note_on_c, 11, 90, 35
16, 89568, Note_on_c, 11, 94, 29
16, 89662, Note_on_c, 11, 90, 0
16, 89662, Note_on_c, 11, 94, 0
16, 89664, Note_on_c, 11, 82, 34
16, 89664, Note_on_c, 11, 90, 29
16, 89806, Note_on_c, 11, 82, 0
16, 89806, Note_on_c, 11, 90, 0
16, 89808, Note_on_c, 11, 78, 26
16, 89808, Note_on_c, 11, 82, 33
16, 89950, Note_on_c, 11, 78, 0
16, 89950, Note_on_c, 11, 82, 0
16, 90144, Note_on_c, 11, 90, 27
16, 90144, Note_on_c, 11, 94, 29
16, 90238, Note_on_c, 11, 90, 0
16, 90238, Note_on_c, 11, 94, 0
16, 90240, Note_on_c, 11, 82, 35
16, 90240, Note_on_c, 11, 90, 28
16, 90382, Note_on_c, 11, 82, 0
16, 90382, Note_on_c, 11, 90, 0
16, 90384, Note_on_c, 11, 78, 25
16, 90384, Note_on_c, 11, 82, 28
16, 90526, Note_on_c, 11, 78, 0
16, 90526, Note_on_c, 11, 82, 0
16, 90720, Note_on_c, 11, 90, 32
16, 90720, Note_on_c, 11, 94, 32
16, 90814, Note_on_c, 11, 90, 0
16, 90814, Note_on_c, 11, 94, 0
16, 90816, Note_on_c, 11, 82, 35
16, 90816, Note_on_c, 11, 90, 28
16, 90958, Note_on_c, 11, 82, 0
16, 90958, Note_on_c, 11, 90, 0
16, 90960, Note_on_c, 11, 78, 30
16, 90960, Note_on_c, 11, 82, 27
16, 91102, Note_on_c, 11, 78, 0
16, 91102, Note_on_c, 11, 82, 0
16, 91296, Note_on_c, 11, 90, 32
16, 91296, Note_on_c, 11, 94, 29
16, 91390, Note_on_c, 11, 90, 0
16, 91390, Note_on_c, 11, 94, 0
16, 91392, Note_on_c, 11, 82, 29
16, 91392, Note_on_c, 11, 90, 27
16, 91534, Note_on_c, 11, 82, 0
16, 91534, Note_on_c, 11, 90, 0
16, 91536, Note_on_c, 11, 78, 30
16, 91536, Note_on_c, 11, 82, 30
16, 91678, Note_on_c, 11, 78, 0
16, 91678, Note_on_c, 11, 82, 0
16, 91872, Note_on_c, 11, 90, 28
16, 91872, Note_on_c, 11, 94, 34
16, 91966, Note_on_c, 11, 90, 0
16, 91966, Note_on_c, 11, 94, 0
16, 91968, Note_on_c, 11, 82, 33
16, 91968, Note_on_c, 11, 90, 33
16, 92110, Note_on_c, 11, 82, 0
16, 92110, Note_on_c, 11, 90, 0
16, 92112, Note_on_c, 11, 78, 27
16, 92112, Note_on_c, 11, 82, 30
16, 92254, Note_on_c, 11, 78, 0
16, 92254, Note_on_c, 11, 82, 0
16, 92448, Note_on_c, 11, 90, 32
16, 92448, Note_on_c, 11, 94, 28
16, 92542, Note_on_c, 11, 90, 0
16, 92542, Note_on_c, 11, 94, 0
16, 92544, Note_on_c, 11, 82, 26
16, 92544, Note_on_c, 11, 90, 28
16, 92686, Note_on_c, 11, 82, 0
16, 92686, Note_on_c, 11, 90, 0
16, 92688, Note_on_c, 11, 78, 30
16, 92688, Note_on_c, 11, 82, 35
16, 92830, Note_on_c, 11, 78, 0
16, 92830, Note_on_c, 11, 82, 0
16, 93024, Note_on_c, 11, 90, 29
16, 93024, Note_on_c, 11, 94, 34
16, 93118, Note_on_c, 11, 90, 0
16, 93118, Note_on_c, 11, 94, 0
16, 93120, Note_on_c, 11, 82, 33
16, 93120, Note_on_c, 11, 90, 29
16, 93262, Note_on_c, 11, 82, 0
16, 93262, Note_on_c, 11, 90, 0
16, 93264, Note_on_c, 11, 78, 30
16, 93264, Note_on_c, 11, 82, 31
16, 93406, Note_on_c, 11, 78, 0
16, 93406, Note_on_c, 11, 82, 0
16, 93600, Note_on_c, 11, 90, 32
16, 93600, Note_on_c, 11, 94, 25
16, 93694, Note_on_c, 11, 90, 0
16, 93694, Note_on_c, 11, 94, 0
16, 93696, Note_on_c, 11, 82, 32
16, 93696, Note_on_c, 11, 90, 35
16, 93838, Note_on_c, 11, 82, 0
16, 93838, Note_on_c, 11, 90, 0
16, 93840, Note_on_c, 11, 78, 29
16, 93840, Note_on_c, 11, 82, 29
16, 93982, Note_on_c, 11, 78, 0
16, 93982, Note_on_c, 11, 82, 0
16, 94176, Control_c, 11, 11, 92
16, 94176, Note_on_c, 11, 82, 48
16, 94176, Note_on_c, 11, 94, 49
16, 94186, Control_c, 11, 11, 93
16, 94197, Control_c, 11, 11, 94
16, 94208, Control_c, 11, 11, 95
16, 94219, Control_c, 11, 11, 96
16, 94230, Control_c, 11, 11, 97
16, 94238, Note_on_c, 11, 82, 0
16, 94238, Note_on_c, 11, 94, 0
16, 94240, Note_on_c, 11, 77, 47
16, 94240, Note_on_c, 11, 89, 48
16, 94241, Control_c, 11, 11, 98
16, 94252, Control_c, 11, 11, 99
16, 94263, Control_c, 11, 11, 100
16, 94274, Control_c, 11, 11, 101
16, 94285, Control_c, 11, 11, 102
16, 94296, Control_c, 11, 11, 103
16, 94307, Control_c, 11, 11, 104
16, 94318, Control_c, 11, 11, 105
16, 94329, Control_c, 11, 11, 106
16, 94334, Note_on_c, 11, 77, 0
16, 94334, Note_on_c, 11, 89, 0
16, 94336, Note_on_c, 11, 70, 46
16, 94336, Note_on_c, 11, 82, 42
16, 94340, Control_c, 11, 11, 107
16, 94351, Control_c, 11, 11, 108
16, 94362, Control_c, 11, 11, 109
16, 94366, Note_on_c, 11, 70, 0
16, 94366, Note_on_c, 11, 82, 0
16, 94368, Note_on_c, 11, 70, 44
16, 94368, Note_on_c, 11, 82, 40
16, 94373, Control_c, 11, 11, 110
16, 94384, Control_c, 11, 11, 111
16, 94395, Control_c, 11, 11, 112
16, 94406, Control_c, 11, 11, 113
16, 94417, Control_c, 11, 11, 114
16, 94428, Control_c, 11, 11, 115
16, 94430, Note_on_c, 11, 70, 0
16, 94430, Note_on_c, 11, 82, 0
16, 94432, Note_on_c, 11, 77, 42
16, 94432, Note_on_c, 11, 89, 41
16, 94439, Control_c, 11, 11, 116
16, 94450, Control_c, 11, 11, 117
16, 94461, Control_c, 11, 11, 118
16, 94472, Control_c, 11, 11, 119
16, 94483, Control_c, 11, 11, 120
16, 94494, Note_on_c, 11, 77, 0
16, 94494, Note_on_c, 11, 89, 0
16, 94494, Control_c, 11, 11, 121
16, 94496, Note_on_c, 11, 82, 49
16, 94496, Note_on_c, 11, 94, 50
16, 94505, Control_c, 11, 11, 122
16, 94516, Control_c, 11, 11, 123
16, 94527, Control_c, 11, 11, 124
16, 94538, Control_c, 11, 11, 125
16, 94549, Control_c, 11, 11, 126
16, 94558, Note_on_c, 11, 82, 0
16, 94558, Note_on_c, 11, 94, 0
16, 94560, Control_c, 11, 11, 127
16, 94944, Control_c, 11, 11, 127
16, 94944, Note_on_c, 11, 82, 34
16, 94944, Note_on_c, 11, 94, 34
16, 94954, Control_c, 11, 11, 126
16, 94965, Control_c, 11, 11, 125
16, 94976, Control_c, 11, 11, 124
16, 94987, Control_c, 11, 11, 123
16, 94998, Control_c, 11, 11, 122
16, 95006, Note_on_c, 11, 82, 0
16, 95006, Note_on_c, 11, 94, 0
16, 95008, Note_on_c, 11, 77, 31
16, 95008, Note_on_c, 11, 89, 30
16, 95009, Control_c, 11, 11, 121
16, 95020, Control_c, 11, 11, 120
16, 95031, Control_c, 11, 11, 119
16, 95042, Control_c, 11, 11, 118
16, 95053, Control_c, 11, 11, 117
16, 95064, Control_c, 11, 11, 116
16, 95075, Control_c, 11, 11, 115
16, 95086, Control_c, 11, 11, 114
16, 95097, Control_c, 11, 11, 113
16, 95102, Note_on_c, 11, 77, 0
16, 95102, Note_on_c, 11, 89, 0
16, 95104, Note_on_c, 11, 70, 30
16, 95104, Note_on_c, 11, 82, 25
16, 95108, Control_c, 11, 11, 112
16, 95119, Control_c, 11, 11, 111
16, 95130, Control_c, 11, 11, 110
16, 95134, Note_on_c, 11, 70, 0
16, 95134, Note_on_c, 11, 82, 0
16, 95136, Note_on_c, 11, 70, 29
16, 95136, Note_on_c, 11, 82, 34
16, 95141, Control_c, 11, 11, 109
16, 95152, Control_c, 11, 11, 108
16, 95163, Control_c, 11, 11, 107
16, 95174, Control_c, 11, 11, 106
16, 95185, Control_c, 11, 11, 105
16, 95196, Control_c, 11, 11, 104
16, 95198, Note_on_c, 11, 70, 0
16, 95198, Note_on_c, 11, 82, 0
16, 95200, Note_on_c, 11, 77, 30
16, 95200, Note_on_c, 11, 89, 27
16, 95207, Control_c, 11, 11, 103
16, 95218, Control_c, 11, 11, 102
16, 95229, Control_c, 11, 11, 101
16, 95240, Control_c, 11, 11, 100
16, 95251, Control_c, 11, 11, 99
16, 95262, Note_on_c, 11, 77, 0
16, 95262, Note_on_c, 11, 89, 0
16, 95262, Control_c, 11, 11, 98
16, 95264, Note_on_c, 11, 82, 34
16, 95264, Note_on_c, 11, 94, 25
16, 95273, Control_c, 11, 11, 97
16, 95284, Control_c, 11, 11, 96
16, 95295, Control_c, 11, 11, 95
16, 95306, Control_c, 11, 11, 94
16, 95317, Control_c, 11, 11, 93
16, 95326, Note_on_c, 11, 82, 0
16, 95326, Note_on_c, 11, 94, 0
16, 95328, Control_c, 11, 11, 92
16, 95648, Note_on_c, 11, 77, 25
16, 95648, Note_on_c, 11, 89, 25
16, 95774, Note_on_c, 11, 77, 0
16, 95774, Note_on_c, 11, 89, 0
16, 95776, Note_on_c, 11, 71, 27
16, 95776, Note_on_c, 11, 83, 29
16, 95838, Note_on_c, 11, 71, 0
16, 95838, Note_on_c, 11, 83, 0
16, 95840, Note_on_c, 11, 65, 34
16, 95840, Note_on_c, 11, 77, 29
16, 95974, Note_on_c, 11, 65, 0
16, 95974, Note_on_c, 11, 77, 0
16, 95976, Note_on_c, 11, 71, 35
16, 95976, Note_on_c, 11, 83, 25
16, 96094, Note_on_c, 11, 71, 0
16, 96094, Note_on_c, 11, 83, 0
16, 96480, Control_c, 11, 11, 64
16, 96480, Note_on_c, 11, 89, 25
16, 96486, Control_c, 11, 11, 65
16, 96492, Control_c, 11, 11, 66
16, 96498, Control_c, 11, 11, 67
16, 96504, Control_c, 11, 11, 68
16, 96510, Control_c, 11, 11, 69
16, 96516, Control_c, 11, 11, 70
16, 96522, Control_c, 11, 11, 71
16, 96528, Control_c, 11, 11, 72
16, 96534, Control_c, 11, 11, 73
16, 96540, Control_c, 11, 11, 74
16, 96547, Control_c, 11, 11, 75
16, 96553, Control_c, 11, 11, 76
16, 96559, Control_c, 11, 11, 77
16, 96565, Control_c, 11, 11, 78
16, 96571, Control_c, 11, 11, 79
16, 96577, Control_c, 11, 11, 80
16, 96583, Control_c, 11, 11, 81
16, 96589, Control_c, 11, 11, 82
16, 96595, Control_c, 11, 11, 83
16, 96601, Control_c, 11, 11, 84
16, 96608, Control_c, 11, 11, 85
16, 96614, Control_c, 11, 11, 86
16, 96620, Control_c, 11, 11, 87
16, 96626, Control_c, 11, 11, 88
16, 96632, Control_c, 11, 11, 89
16, 96638, Control_c, 11, 11, 90
16, 96644, Control_c, 11, 11, 91
16, 96650, Control_c, 11, 11, 92
16, 96656, Control_c, 11, 11, 93
16, 96662, Control_c, 11, 11, 94
16, 96668, Control_c, 11, 11, 95
16, 96675, Control_c, 11, 11, 96
16, 96681, Control_c, 11, 11, 97
16, 96687, Control_c, 11, 11, 98
16, 96693, Control_c, 11, 11, 99
16, 96699, Control_c, 11, 11, 100
16, 96705, Control_c, 11, 11, 101
16, 96711, Control_c, 11, 11, 102
16, 96717, Control_c, 11, 11, 103
16, 96723, Control_c, 11, 11, 104
16, 96729, Control_c, 11, 11, 105
16, 96736, Control_c, 11, 11, 106
16, 96742, Control_c, 11, 11, 107
16, 96748, Control_c, 11, 11, 108
16, 96754, Control_c, 11, 11, 109
16, 96760, Control_c, 11, 11, 110
16, 96766, Control_c, 11, 11, 111
16, 96772, Control_c, 11, 11, 112
16, 96778, Control_c, 11, 11, 113
16, 96784, Control_c, 11, 11, 114
16, 96790, Control_c, 11, 11, 115
16, 96796, Control_c, 11, 11, 116
16, 96803, Control_c, 11, 11, 117
16, 96809, Control_c, 11, 11, 118
16, 96815, Control_c, 11, 11, 119
16, 96821, Control_c, 11, 11, 120
16, 96827, Control_c, 11, 11, 121
16, 96833, Control_c, 11, 11, 122
16, 96839, Control_c, 11, 11, 123
16, 96845, Control_c, 11, 11, 124
16, 96851, Control_c, 11, 11, 125
16, 96857, Control_c, 11, 11, 126
16, 96864, Control_c, 11, 11, 127
16, 98784, Note_on_c, 11, 89, 0
16, 98784, Note_on_c, 11, 90, 26
16, 99936, Note_on_c, 11, 90, 0
16, 99936, Note_on_c, 11, 88, 32
16, 100512, Note_on_c, 11, 88, 0
16, 100512, Note_on_c, 11, 83, 32
16, 101088, Note_on_c, 11, 83, 0
16, 101088, Note_on_c, 11, 82, 26
16, 103392, Note_on_c, 11, 82, 0
16, 103392, Control_c, 11, 11, 127
16, 103392, Note_on_c, 11, 82, 27
16, 103424, Control_c, 11, 11, 126
16, 103457, Control_c, 11, 11, 125
16, 103490, Control_c, 11, 11, 124
16, 103523, Control_c, 11, 11, 123
16, 103556, Control_c, 11, 11, 122
16, 103589, Control_c, 11, 11, 121
16, 103622, Control_c, 11, 11, 120
16, 103655, Control_c, 11, 11, 119
16, 103688, Control_c, 11, 11, 118
16, 103721, Control_c, 11, 11, 117
16, 103754, Control_c, 11, 11, 116
16, 103786, Control_c, 11, 11, 115
16, 103819, Control_c, 11, 11, 114
16, 103852, Control_c, 11, 11, 113
16, 103885, Control_c, 11, 11, 112
16, 103918, Control_c, 11, 11, 111
16, 103951, Control_c, 11, 11, 110
16, 103984, Control_c, 11, 11, 109
16, 104017, Control_c, 11, 11, 108
16, 104050, Control_c, 11, 11, 107
16, 104083, Control_c, 11, 11, 106
16, 104116, Control_c, 11, 11, 105
16, 104149, Control_c, 11, 11, 104
16, 104181, Control_c, 11, 11, 103
16, 104214, Control_c, 11, 11, 102
16, 104247, Control_c, 11, 11, 101
16, 104280, Control_c, 11, 11, 100
16, 104313, Control_c, 11, 11, 99
16, 104346, Control_c, 11, 11, 98
16, 104379, Control_c, 11, 11, 97
16, 104412, Control_c, 11, 11, 96
16, 104445, Control_c, 11, 11, 95
16, 104478, Control_c, 11, 11, 94
16, 104511, Control_c, 11, 11, 93
16, 104544, Control_c, 11, 11, 92
16, 105696, Note_on_c, 11, 82, 0
16, 105696, Control_c, 11, 11, 127
16, 105696, Note_on_c, 11, 82, 23
16, 105728, Control_c, 11, 11, 126
16, 105761, Control_c, 11, 11, 125
16, 105794, Control_c, 11, 11, 124
16, 105827, Control_c, 11, 11, 123
16, 105860, Control_c, 11, 11, 122
16, 105893, Control_c, 11, 11, 121
16, 105926, Control_c, 11, 11, 120
16, 105959, Control_c, 11, 11, 119
16, 105992, Control_c, 11, 11, 118
16, 106025, Control_c, 11, 11, 117
16, 106058, Control_c, 11, 11, 116
16, 106090, Control_c, 11, 11, 115
16, 106123, Control_c, 11, 11, 114
16, 106156, Control_c, 11, 11, 113
16, 106189, Control_c, 11, 11, 112
16, 106222, Control_c, 11, 11, 111
16, 106255, Control_c, 11, 11, 110
16, 106288, Control_c, 11, 11, 109
16, 106321, Control_c, 11, 11, 108
16, 106354, Control_c, 11, 11, 107
16, 106387, Control_c, 11, 11, 106
16, 106420, Control_c, 11, 11, 105
16, 106453, Control_c, 11, 11, 104
16, 106485, Control_c, 11, 11, 103
16, 106518, Control_c, 11, 11, 102
16, 106551, Control_c, 11, 11, 101
16, 106584, Control_c, 11, 11, 100
16, 106617, Control_c, 11, 11, 99
16, 106650, Control_c, 11, 11, 98
16, 106683, Control_c, 11, 11, 97
16, 106716, Control_c, 11, 11, 96
16, 106749, Control_c, 11, 11, 95
16, 106782, Control_c, 11, 11, 94
16, 106815, Control_c, 11, 11, 93
16, 106848, Control_c, 11, 11, 92
16, 108160, Note_on_c, 11, 82, 0
16, 110688, Program_c, 11, 44
16, 110688, Control_c, 11, 11, 92
16, 110688, Note_on_c, 11, 82, 96
16, 110698, Control_c, 11, 11, 93
16, 110709, Control_c, 11, 11, 94
16, 110718, Note_on_c, 11, 82, 0
16, 110720, Control_c, 11, 11, 95
16, 110720, Note_on_c, 11, 80, 98
16, 110731, Control_c, 11, 11, 96
16, 110742, Control_c, 11, 11, 97
16, 110750, Note_on_c, 11, 80, 0
16, 110752, Note_on_c, 11, 77, 103
16, 110753, Control_c, 11, 11, 98
16, 110764, Control_c, 11, 11, 99
16, 110775, Control_c, 11, 11, 100
16, 110782, Note_on_c, 11, 77, 0
16, 110784, Note_on_c, 11, 82, 102
16, 110786, Control_c, 11, 11, 101
16, 110797, Control_c, 11, 11, 102
16, 110808, Control_c, 11, 11, 103
16, 110814, Note_on_c, 11, 82, 0
16, 110816, Note_on_c, 11, 80, 98
16, 110819, Control_c, 11, 11, 104
16, 110830, Control_c, 11, 11, 105
16, 110841, Control_c, 11, 11, 106
16, 110846, Note_on_c, 11, 80, 0
16, 110848, Note_on_c, 11, 77, 98
16, 110852, Control_c, 11, 11, 107
16, 110863, Control_c, 11, 11, 108
16, 110874, Control_c, 11, 11, 109
16, 110878, Note_on_c, 11, 77, 0
16, 110880, Note_on_c, 11, 82, 96
16, 110885, Control_c, 11, 11, 110
16, 110896, Control_c, 11, 11, 111
16, 110907, Control_c, 11, 11, 112
16, 110910, Note_on_c, 11, 82, 0
16, 110912, Note_on_c, 11, 80, 98
16, 110918, Control_c, 11, 11, 113
16, 110929, Control_c, 11, 11, 114
16, 110940, Control_c, 11, 11, 115
16, 110942, Note_on_c, 11, 80, 0
16, 110944, Note_on_c, 11, 77, 105
16, 110951, Control_c, 11, 11, 116
16, 110962, Control_c, 11, 11, 117
16, 110973, Control_c, 11, 11, 118
16, 110974, Note_on_c, 11, 77, 0
16, 110976, Note_on_c, 11, 82, 100
16, 110984, Control_c, 11, 11, 119
16, 110995, Control_c, 11, 11, 120
16, 111006, Note_on_c, 11, 82, 0
16, 111006, Control_c, 11, 11, 121
16, 111008, Note_on_c, 11, 80, 99
16, 111017, Control_c, 11, 11, 122
16, 111028, Control_c, 11, 11, 123
16, 111038, Note_on_c, 11, 80, 0
16, 111039, Control_c, 11, 11, 124
16, 111040, Note_on_c, 11, 77, 105
16, 111050, Control_c, 11, 11, 125
16, 111061, Control_c, 11, 11, 126
16, 111070, Note_on_c, 11, 77, 0
16, 111072, Control_c, 11, 11, 127
16, 111072, Program_c, 11, 48
16, 111072, Control_c, 11, 11, 127
16, 111072, Note_on_c, 11, 82, 103
16, 111073, Control_c, 11, 11, 126
16, 111075, Control_c, 11, 11, 125
16, 111076, Control_c, 11, 11, 124
16, 111078, Control_c, 11, 11, 123
16, 111079, Control_c, 11, 11, 122
16, 111081, Control_c, 11, 11, 121
16, 111082, Control_c, 11, 11, 120
16, 111084, Control_c, 11, 11, 119
16, 111085, Control_c, 11, 11, 118
16, 111087, Control_c, 11, 11, 117
16, 111088, Control_c, 11, 11, 116
16, 111090, Control_c, 11, 11, 115
16, 111091, Control_c, 11, 11, 114
16, 111093, Control_c, 11, 11, 113
16, 111094, Control_c, 11, 11, 112
16, 111096, Control_c, 11, 11, 111
16, 111097, Control_c, 11, 11, 110
16, 111099, Control_c, 11, 11, 109
16, 111100, Control_c, 11, 11, 108
16, 111102, Control_c, 11, 11, 107
16, 111104, Control_c, 11, 11, 106
16, 111105, Control_c, 11, 11, 105
16, 111107, Control_c, 11, 11, 104
16, 111108, Control_c, 11, 11, 103
16, 111110, Control_c, 11, 11, 102
16, 111111, Control_c, 11, 11, 101
16, 111113, Control_c, 11, 11, 100
16, 111114, Control_c, 11, 11, 99
16, 111116, Control_c, 11, 11, 98
16, 111117, Control_c, 11, 11, 97
16, 111119, Control_c, 11, 11, 96
16, 111120, Control_c, 11, 11, 95
16, 111122, Control_c, 11, 11, 94
16, 111123, Control_c, 11, 11, 93
16, 111125, Control_c, 11, 11, 92
16, 111126, Control_c, 11, 11, 91
16, 111128, Control_c, 11, 11, 90
16, 111129, Control_c, 11, 11, 89
16, 111131, Control_c, 11, 11, 88
16, 111132, Control_c, 11, 11, 87
16, 111134, Control_c, 11, 11, 86
16, 111136, Control_c, 11, 11, 85
16, 111137, Control_c, 11, 11, 84
16, 111139, Control_c, 11, 11, 83
16, 111140, Control_c, 11, 11, 82
16, 111142, Control_c, 11, 11, 81
16, 111143, Control_c, 11, 11, 80
16, 111145, Control_c, 11, 11, 79
16, 111146, Control_c, 11, 11, 78
16, 111148, Control_c, 11, 11, 77
16, 111149, Control_c, 11, 11, 76
16, 111151, Control_c, 11, 11, 75
16, 111152, Control_c, 11, 11, 74
16, 111154, Control_c, 11, 11, 73
16, 111155, Control_c, 11, 11, 72
16, 111157, Control_c, 11, 11, 71
16, 111158, Control_c, 11, 11, 70
16, 111160, Control_c, 11, 11, 69
16, 111161, Control_c, 11, 11, 68
16, 111163, Control_c, 11, 11, 67
16, 111164, Control_c, 11, 11, 66
16, 111166, Note_on_c, 11, 82, 0
16, 111166, Control_c, 11, 11, 65
16, 111168, Control_c, 11, 11, 64
16, 111456, Program_c, 11, 44
16, 111456, Control_c, 11, 11, 92
16, 111456, Note_on_c, 11, 82, 105
16, 111466, Control_c, 11, 11, 93
16, 111477, Control_c, 11, 11, 94
16, 111486, Note_on_c, 11, 82, 0
16, 111488, Control_c, 11, 11, 95
16, 111488, Note_on_c, 11, 80, 100
16, 111499, Control_c, 11, 11, 96
16, 111510, Control_c, 11, 11, 97
16, 111518, Note_on_c, 11, 80, 0
16, 111520, Note_on_c, 11, 77, 103
16, 111521, Control_c, 11, 11, 98
16, 111532, Control_c, 11, 11, 99
16, 111543, Control_c, 11, 11, 100
16, 111550, Note_on_c, 11, 77, 0
16, 111552, Note_on_c, 11, 82, 102
16, 111554, Control_c, 11, 11, 101
16, 111565, Control_c, 11, 11, 102
16, 111576, Control_c, 11, 11, 103
16, 111582, Note_on_c, 11, 82, 0
16, 111584, Note_on_c, 11, 80, 104
16, 111587, Control_c, 11, 11, 104
16, 111598, Control_c, 11, 11, 105
16, 111609, Control_c, 11, 11, 106
16, 111614, Note_on_c, 11, 80, 0
16, 111616, Note_on_c, 11, 77, 95
16, 111620, Control_c, 11, 11, 107
16, 111631, Control_c, 11, 11, 108
16, 111642, Control_c, 11, 11, 109
16, 111646, Note_on_c, 11, 77, 0
16, 111648, Note_on_c, 11, 82, 98
16, 111653, Control_c, 11, 11, 110
16, 111664, Control_c, 11, 11, 111
16, 111675, Control_c, 11, 11, 112
16, 111678, Note_on_c, 11, 82, 0
16, 111680, Note_on_c, 11, 80, 99
16, 111686, Control_c, 11, 11, 113
16, 111697, Control_c, 11, 11, 114
16, 111708, Control_c, 11, 11, 115
16, 111710, Note_on_c, 11, 80, 0
16, 111712, Note_on_c, 11, 77, 104
16, 111719, Control_c, 11, 11, 116
16, 111730, Control_c, 11, 11, 117
16, 111741, Control_c, 11, 11, 118
16, 111742, Note_on_c, 11, 77, 0
16, 111744, Note_on_c, 11, 82, 104
16, 111752, Control_c, 11, 11, 119
16, 111763, Control_c, 11, 11, 120
16, 111774, Note_on_c, 11, 82, 0
16, 111774, Control_c, 11, 11, 121
16, 111776, Note_on_c, 11, 80, 98
16, 111785, Control_c, 11, 11, 122
16, 111796, Control_c, 11, 11, 123
16, 111806, Note_on_c, 11, 80, 0
16, 111807, Control_c, 11, 11, 124
16, 111808, Note_on_c, 11, 77, 102
16, 111818, Control_c, 11, 11, 125
16, 111829, Control_c, 11, 11, 126
16, 111838, Note_on_c, 11, 77, 0
16, 111840, Control_c, 11, 11, 127
16, 111840, Control_c, 11, 11, 92
16, 111840, Note_on_c, 11, 82, 127
16, 111850, Control_c, 11, 11, 93
16, 111861, Control_c, 11, 11, 94
16, 111872, Control_c, 11, 11, 95
16, 111883, Control_c, 11, 11, 96
16, 111894, Control_c, 11, 11, 97
16, 111905, Control_c, 11, 11, 98
16, 111916, Control_c, 11, 11, 99
16, 111927, Control_c, 11, 11, 100
16, 111934, Note_on_c, 11, 82, 0
16, 111936, Note_on_c, 11, 80, 127
16, 111938, Control_c, 11, 11, 101
16, 111949, Control_c, 11, 11, 102
16, 111960, Control_c, 11, 11, 103
16, 111971, Control_c, 11, 11, 104
16, 111982, Control_c, 11, 11, 105
16, 111993, Control_c, 11, 11, 106
16, 112004, Control_c, 11, 11, 107
16, 112015, Control_c, 11, 11, 108
16, 112026, Control_c, 11, 11, 109
16, 112030, Note_on_c, 11, 80, 0
16, 112032, Note_on_c, 11, 77, 122
16, 112037, Control_c, 11, 11, 110
16, 112048, Control_c, 11, 11, 111
16, 112059, Control_c, 11, 11, 112
16, 112070, Control_c, 11, 11, 113
16, 112081, Control_c, 11, 11, 114
16, 112092, Control_c, 11, 11, 115
16, 112103, Control_c, 11, 11, 116
16, 112114, Control_c, 11, 11, 117
16, 112125, Control_c, 11, 11, 118
16, 112126, Note_on_c, 11, 77, 0
16, 112128, Note_on_c, 11, 82, 127
16, 112136, Control_c, 11, 11, 119
16, 112147, Control_c, 11, 11, 120
16, 112158, Control_c, 11, 11, 121
16, 112169, Control_c, 11, 11, 122
16, 112180, Control_c, 11, 11, 123
16, 112191, Control_c, 11, 11, 124
16, 112202, Control_c, 11, 11, 125
16, 112213, Control_c, 11, 11, 126
16, 112222, Note_on_c, 11, 82, 0
16, 112224, Control_c, 11, 11, 127
16, 112224, Control_c, 11, 11, 92
16, 112224, Note_on_c, 11, 80, 127
16, 112234, Control_c, 11, 11, 93
16, 112245, Control_c, 11, 11, 94
16, 112256, Control_c, 11, 11, 95
16, 112267, Control_c, 11, 11, 96
16, 112278, Control_c, 11, 11, 97
16, 112289, Control_c, 11, 11, 98
16, 112300, Control_c, 11, 11, 99
16, 112311, Control_c, 11, 11, 100
16, 112318, Note_on_c, 11, 80, 0
16, 112320, Note_on_c, 11, 77, 123
16, 112322, Control_c, 11, 11, 101
16, 112333, Control_c, 11, 11, 102
16, 112344, Control_c, 11, 11, 103
16, 112355, Control_c, 11, 11, 104
16, 112366, Control_c, 11, 11, 105
16, 112377, Control_c, 11, 11, 106
16, 112388, Control_c, 11, 11, 107
16, 112399, Control_c, 11, 11, 108
16, 112410, Control_c, 11, 11, 109
16, 112414, Note_on_c, 11, 77, 0
16, 112416, Note_on_c, 11, 82, 127
16, 112421, Control_c, 11, 11, 110
16, 112432, Control_c, 11, 11, 111
16, 112443, Control_c, 11, 11, 112
16, 112454, Control_c, 11, 11, 113
16, 112465, Control_c, 11, 11, 114
16, 112476, Control_c, 11, 11, 115
16, 112487, Control_c, 11, 11, 116
16, 112498, Control_c, 11, 11, 117
16, 112509, Control_c, 11, 11, 118
16, 112510, Note_on_c, 11, 82, 0
16, 112512, Note_on_c, 11, 80, 127
16, 112520, Control_c, 11, 11, 119
16, 112531, Control_c, 11, 11, 120
16, 112542, Control_c, 11, 11, 121
16, 112553, Control_c, 11, 11, 122
16, 112564, Control_c, 11, 11, 123
16, 112575, Control_c, 11, 11, 124
16, 112586, Control_c, 11, 11, 125
16, 112597, Control_c, 11, 11, 126
16, 112606, Note_on_c, 11, 80, 0
16, 112608, Control_c, 11, 11, 127
16, 112992, Control_c, 11, 11, 75
16, 112992, Note_on_c, 11, 75, 127
16, 112992, Note_on_c, 11, 87, 125
16, 112993, Control_c, 11, 11, 76
16, 112995, Control_c, 11, 11, 77
16, 112997, Control_c, 11, 11, 78
16, 112999, Control_c, 11, 11, 79
16, 113001, Control_c, 11, 11, 80
16, 113003, Control_c, 11, 11, 81
16, 113004, Control_c, 11, 11, 82
16, 113006, Control_c, 11, 11, 83
16, 113008, Control_c, 11, 11, 84
16, 113010, Control_c, 11, 11, 85
16, 113012, Control_c, 11, 11, 86
16, 113014, Control_c, 11, 11, 87
16, 113016, Control_c, 11, 11, 88
16, 113017, Control_c, 11, 11, 89
16, 113019, Control_c, 11, 11, 90
16, 113021, Control_c, 11, 11, 91
16, 113023, Control_c, 11, 11, 92
16, 113025, Control_c, 11, 11, 93
16, 113027, Control_c, 11, 11, 94
16, 113028, Control_c, 11, 11, 95
16, 113030, Control_c, 11, 11, 96
16, 113032, Control_c, 11, 11, 97
16, 113034, Control_c, 11, 11, 98
16, 113036, Control_c, 11, 11, 99
16, 113038, Control_c, 11, 11, 100
16, 113040, Control_c, 11, 11, 101
16, 113041, Control_c, 11, 11, 102
16, 113043, Control_c, 11, 11, 103
16, 113045, Control_c, 11, 11, 104
16, 113047, Control_c, 11, 11, 105
16, 113049, Control_c, 11, 11, 106
16, 113051, Control_c, 11, 11, 107
16, 113052, Control_c, 11, 11, 108
16, 113054, Control_c, 11, 11, 109
16, 113056, Control_c, 11, 11, 110
16, 113058, Control_c, 11, 11, 111
16, 113060, Control_c, 11, 11, 112
16, 113062, Control_c, 11, 11, 113
16, 113064, Control_c, 11, 11, 114
16, 113065, Control_c, 11, 11, 115
16, 113067, Control_c, 11, 11, 116
16, 113069, Control_c, 11, 11, 117
16, 113071, Control_c, 11, 11, 118
16, 113073, Control_c, 11, 11, 119
16, 113075, Control_c, 11, 11, 120
16, 113076, Control_c, 11, 11, 121
16, 113078, Control_c, 11, 11, 122
16, 113080, Control_c, 11, 11, 123
16, 113082, Control_c, 11, 11, 124
16, 113084, Control_c, 11, 11, 125
16, 113086, Control_c, 11, 11, 126
16, 113088, Control_c, 11, 11, 127
16, 113089, Control_c, 11, 11, 126
16, 113091, Control_c, 11, 11, 125
16, 113093, Control_c, 11, 11, 124
16, 113095, Control_c, 11, 11, 123
16, 113097, Control_c, 11, 11, 122
16, 113099, Control_c, 11, 11, 121
16, 113100, Control_c, 11, 11, 120
16, 113102, Control_c, 11, 11, 119
16, 113104, Control_c, 11, 11, 118
16, 113106, Control_c, 11, 11, 117
16, 113108, Control_c, 11, 11, 116
16, 113110, Control_c, 11, 11, 115
16, 113112, Control_c, 11, 11, 114
16, 113113, Control_c, 11, 11, 113
16, 113115, Control_c, 11, 11, 112
16, 113117, Control_c, 11, 11, 111
16, 113119, Control_c, 11, 11, 110
16, 113121, Control_c, 11, 11, 109
16, 113123, Control_c, 11, 11, 108
16, 113124, Control_c, 11, 11, 107
16, 113126, Control_c, 11, 11, 106
16, 113128, Control_c, 11, 11, 105
16, 113130, Control_c, 11, 11, 104
16, 113132, Control_c, 11, 11, 103
16, 113134, Control_c, 11, 11, 102
16, 113136, Control_c, 11, 11, 101
16, 113137, Control_c, 11, 11, 100
16, 113139, Control_c, 11, 11, 99
16, 113141, Control_c, 11, 11, 98
16, 113143, Control_c, 11, 11, 97
16, 113145, Control_c, 11, 11, 96
16, 113147, Control_c, 11, 11, 95
16, 113148, Control_c, 11, 11, 94
16, 113150, Control_c, 11, 11, 93
16, 113152, Note_on_c, 11, 75, 0
16, 113152, Note_on_c, 11, 87, 0
16, 113152, Control_c, 11, 11, 92
16, 113154, Control_c, 11, 11, 91
16, 113156, Control_c, 11, 11, 90
16, 113158, Control_c, 11, 11, 89
16, 113160, Control_c, 11, 11, 88
16, 113161, Control_c, 11, 11, 87
16, 113163, Control_c, 11, 11, 86
16, 113165, Control_c, 11, 11, 85
16, 113167, Control_c, 11, 11, 84
16, 113169, Control_c, 11, 11, 83
16, 113171, Control_c, 11, 11, 82
16, 113172, Control_c, 11, 11, 81
16, 113174, Control_c, 11, 11, 80
16, 113176, Control_c, 11, 11, 79
16, 113178, Control_c, 11, 11, 78
16, 113180, Control_c, 11, 11, 77
16, 113182, Control_c, 11, 11, 76
16, 113184, Control_c, 11, 11, 75
16, 113184, Control_c, 11, 11, 75
16, 113184, Note_on_c, 11, 73, 123
16, 113184, Note_on_c, 11, 85, 122
16, 113185, Control_c, 11, 11, 76
16, 113187, Control_c, 11, 11, 77
16, 113189, Control_c, 11, 11, 78
16, 113191, Control_c, 11, 11, 79
16, 113193, Control_c, 11, 11, 80
16, 113195, Control_c, 11, 11, 81
16, 113196, Control_c, 11, 11, 82
16, 113198, Control_c, 11, 11, 83
16, 113200, Control_c, 11, 11, 84
16, 113202, Control_c, 11, 11, 85
16, 113204, Control_c, 11, 11, 86
16, 113206, Control_c, 11, 11, 87
16, 113208, Control_c, 11, 11, 88
16, 113209, Control_c, 11, 11, 89
16, 113211, Control_c, 11, 11, 90
16, 113213, Control_c, 11, 11, 91
16, 113215, Control_c, 11, 11, 92
16, 113217, Control_c, 11, 11, 93
16, 113219, Control_c, 11, 11, 94
16, 113220, Control_c, 11, 11, 95
16, 113222, Control_c, 11, 11, 96
16, 113224, Control_c, 11, 11, 97
16, 113226, Control_c, 11, 11, 98
16, 113228, Control_c, 11, 11, 99
16, 113230, Control_c, 11, 11, 100
16, 113232, Control_c, 11, 11, 101
16, 113233, Control_c, 11, 11, 102
16, 113235, Control_c, 11, 11, 103
16, 113237, Control_c, 11, 11, 104
16, 113239, Control_c, 11, 11, 105
16, 113241, Control_c, 11, 11, 106
16, 113243, Control_c, 11, 11, 107
16, 113244, Control_c, 11, 11, 108
16, 113246, Control_c, 11, 11, 109
16, 113248, Control_c, 11, 11, 110
16, 113250, Control_c, 11, 11, 111
16, 113252, Control_c, 11, 11, 112
16, 113254, Control_c, 11, 11, 113
16, 113256, Control_c, 11, 11, 114
16, 113257, Control_c, 11, 11, 115
16, 113259, Control_c, 11, 11, 116
16, 113261, Control_c, 11, 11, 117
16, 113263, Control_c, 11, 11, 118
16, 113265, Control_c, 11, 11, 119
16, 113267, Control_c, 11, 11, 120
16, 113268, Control_c, 11, 11, 121
16, 113270, Control_c, 11, 11, 122
16, 113272, Control_c, 11, 11, 123
16, 113274, Control_c, 11, 11, 124
16, 113276, Control_c, 11, 11, 125
16, 113278, Control_c, 11, 11, 126
16, 113280, Control_c, 11, 11, 127
16, 113281, Control_c, 11, 11, 126
16, 113283, Control_c, 11, 11, 125
16, 113285, Control_c, 11, 11, 124
16, 113287, Control_c, 11, 11, 123
16, 113289, Control_c, 11, 11, 122
16, 113291, Control_c, 11, 11, 121
16, 113292, Control_c, 11, 11, 120
16, 113294, Control_c, 11, 11, 119
16, 113296, Control_c, 11, 11, 118
16, 113298, Control_c, 11, 11, 117
16, 113300, Control_c, 11, 11, 116
16, 113302, Control_c, 11, 11, 115
16, 113304, Control_c, 11, 11, 114
16, 113305, Control_c, 11, 11, 113
16, 113307, Control_c, 11, 11, 112
16, 113309, Control_c, 11, 11, 111
16, 113311, Control_c, 11, 11, 110
16, 113313, Control_c, 11, 11, 109
16, 113315, Control_c, 11, 11, 108
16, 113316, Control_c, 11, 11, 107
16, 113318, Control_c, 11, 11, 106
16, 113320, Control_c, 11, 11, 105
16, 113322, Control_c, 11, 11, 104
16, 113324, Control_c, 11, 11, 103
16, 113326, Control_c, 11, 11, 102
16, 113328, Control_c, 11, 11, 101
16, 113329, Control_c, 11, 11, 100
16, 113331, Control_c, 11, 11, 99
16, 113333, Control_c, 11, 11, 98
16, 113335, Control_c, 11, 11, 97
16, 113337, Control_c, 11, 11, 96
16, 113339, Control_c, 11, 11, 95
16, 113340, Control_c, 11, 11, 94
16, 113342, Control_c, 11, 11, 93
16, 113344, Note_on_c, 11, 73, 0
16, 113344, Note_on_c, 11, 85, 0
16, 113344, Control_c, 11, 11, 92
16, 113346, Control_c, 11, 11, 91
16, 113348, Control_c, 11, 11, 90
16, 113350, Control_c, 11, 11, 89
16, 113352, Control_c, 11, 11, 88
16, 113353, Control_c, 11, 11, 87
16, 113355, Control_c, 11, 11, 86
16, 113357, Control_c, 11, 11, 85
16, 113359, Control_c, 11, 11, 84
16, 113361, Control_c, 11, 11, 83
16, 113363, Control_c, 11, 11, 82
16, 113364, Control_c, 11, 11, 81
16, 113366, Control_c, 11, 11, 80
16, 113368, Control_c, 11, 11, 79
16, 113370, Control_c, 11, 11, 78
16, 113372, Control_c, 11, 11, 77
16, 113374, Control_c, 11, 11, 76
16, 113376, Control_c, 11, 11, 75
16, 113376, Control_c, 11, 11, 75
16, 113376, Note_on_c, 11, 70, 127
16, 113376, Note_on_c, 11, 82, 127
16, 113377, Control_c, 11, 11, 76
16, 113379, Control_c, 11, 11, 77
16, 113381, Control_c, 11, 11, 78
16, 113383, Control_c, 11, 11, 79
16, 113385, Control_c, 11, 11, 80
16, 113387, Control_c, 11, 11, 81
16, 113388, Control_c, 11, 11, 82
16, 113390, Control_c, 11, 11, 83
16, 113392, Control_c, 11, 11, 84
16, 113394, Control_c, 11, 11, 85
16, 113396, Control_c, 11, 11, 86
16, 113398, Control_c, 11, 11, 87
16, 113400, Control_c, 11, 11, 88
16, 113401, Control_c, 11, 11, 89
16, 113403, Control_c, 11, 11, 90
16, 113405, Control_c, 11, 11, 91
16, 113407, Control_c, 11, 11, 92
16, 113409, Control_c, 11, 11, 93
16, 113411, Control_c, 11, 11, 94
16, 113412, Control_c, 11, 11, 95
16, 113414, Control_c, 11, 11, 96
16, 113416, Control_c, 11, 11, 97
16, 113418, Control_c, 11, 11, 98
16, 113420, Control_c, 11, 11, 99
16, 113422, Control_c, 11, 11, 100
16, 113424, Control_c, 11, 11, 101
16, 113425, Control_c, 11, 11, 102
16, 113427, Control_c, 11, 11, 103
16, 113429, Control_c, 11, 11, 104
16, 113431, Control_c, 11, 11, 105
16, 113433, Control_c, 11, 11, 106
16, 113435, Control_c, 11, 11, 107
16, 113436, Control_c, 11, 11, 108
16, 113438, Control_c, 11, 11, 109
16, 113440, Control_c, 11, 11, 110
16, 113442, Control_c, 11, 11, 111
16, 113444, Control_c, 11, 11, 112
16, 113446, Control_c, 11, 11, 113
16, 113448, Control_c, 11, 11, 114
16, 113449, Control_c, 11, 11, 115
16, 113451, Control_c, 11, 11, 116
16, 113453, Control_c, 11, 11, 117
16, 113455, Control_c, 11, 11, 118
16, 113457, Control_c, 11, 11, 119
16, 113459, Control_c, 11, 11, 120
16, 113460, Control_c, 11, 11, 121
16, 113462, Control_c, 11, 11, 122
16, 113464, Control_c, 11, 11, 123
16, 113466, Control_c, 11, 11, 124
16, 113468, Control_c, 11, 11, 125
16, 113470, Control_c, 11, 11, 126
16, 113472, Control_c, 11, 11, 127
16, 113474, Control_c, 11, 11, 126
16, 113476, Control_c, 11, 11, 125
16, 113478, Control_c, 11, 11, 124
16, 113481, Control_c, 11, 11, 123
16, 113483, Control_c, 11, 11, 122
16, 113485, Control_c, 11, 11, 121
16, 113487, Control_c, 11, 11, 120
16, 113490, Control_c, 11, 11, 119
16, 113492, Control_c, 11, 11, 118
16, 113494, Control_c, 11, 11, 117
16, 113496, Control_c, 11, 11, 116
16, 113499, Control_c, 11, 11, 115
16, 113501, Control_c, 11, 11, 114
16, 113503, Control_c, 11, 11, 113
16, 113506, Control_c, 11, 11, 112
16, 113508, Control_c, 11, 11, 111
16, 113510, Control_c, 11, 11, 110
16, 113512, Control_c, 11, 11, 109
16, 113515, Control_c, 11, 11, 108
16, 113517, Control_c, 11, 11, 107
16, 113519, Control_c, 11, 11, 106
16, 113521, Control_c, 11, 11, 105
16, 113524, Control_c, 11, 11, 104
16, 113526, Control_c, 11, 11, 103
16, 113528, Control_c, 11, 11, 102
16, 113530, Control_c, 11, 11, 101
16, 113533, Control_c, 11, 11, 100
16, 113535, Control_c, 11, 11, 99
16, 113537, Control_c, 11, 11, 98
16, 113540, Control_c, 11, 11, 97
16, 113542, Control_c, 11, 11, 96
16, 113544, Control_c, 11, 11, 95
16, 113546, Control_c, 11, 11, 94
16, 113549, Control_c, 11, 11, 93
16, 113551, Control_c, 11, 11, 92
16, 113553, Control_c, 11, 11, 91
16, 113555, Control_c, 11, 11, 90
16, 113558, Control_c, 11, 11, 89
16, 113560, Control_c, 11, 11, 88
16, 113562, Control_c, 11, 11, 87
16, 113564, Control_c, 11, 11, 86
16, 113567, Control_c, 11, 11, 85
16, 113568, Program_c, 11, 48
16, 113569, Control_c, 11, 11, 84
16, 113571, Control_c, 11, 11, 83
16, 113574, Control_c, 11, 11, 82
16, 113576, Control_c, 11, 11, 81
16, 113578, Control_c, 11, 11, 80
16, 113580, Control_c, 11, 11, 79
16, 113583, Control_c, 11, 11, 78
16, 113585, Control_c, 11, 11, 77
16, 113587, Control_c, 11, 11, 76
16, 113589, Control_c, 11, 11, 75
16, 113592, Control_c, 11, 11, 74
16, 113594, Control_c, 11, 11, 73
16, 113596, Control_c, 11, 11, 72
16, 113598, Control_c, 11, 11, 71
16, 113601, Control_c, 11, 11, 70
16, 113603, Control_c, 11, 11, 69
16, 113605, Control_c, 11, 11, 68
16, 113608, Control_c, 11, 11, 67
16, 113610, Control_c, 11, 11, 66
16, 113612, Control_c, 11, 11, 65
16, 113614, Control_c, 11, 11, 64
16, 113617, Control_c, 11, 11, 63
16, 113619, Control_c, 11, 11, 62
16, 113621, Control_c, 11, 11, 61
16, 113623, Control_c, 11, 11, 60
16, 113626, Control_c, 11, 11, 59
16, 113628, Control_c, 11, 11, 58
16, 113630, Control_c, 11, 11, 57
16, 113633, Control_c, 11, 11, 56
16, 113635, Control_c, 11, 11, 55
16, 113637, Control_c, 11, 11, 54
16, 113639, Control_c, 11, 11, 53
16, 113642, Control_c, 11, 11, 52
16, 113644, Control_c, 11, 11, 51
16, 113646, Control_c, 11, 11, 50
16, 113648, Control_c, 11, 11, 49
16, 113651, Control_c, 11, 11, 48
16, 113653, Control_c, 11, 11, 47
16, 113655, Control_c, 11, 11, 46
16, 113657, Control_c, 11, 11, 45
16, 113660, Control_c, 11, 11, 44
16, 113662, Control_c, 11, 11, 43
16, 113664, Control_c, 11, 11, 42
16, 113667, Control_c, 11, 11, 41
16, 113669, Control_c, 11, 11, 40
16, 113671, Control_c, 11, 11, 39
16, 113673, Control_c, 11, 11, 38
16, 113676, Control_c, 11, 11, 37
16, 113678, Control_c, 11, 11, 36
16, 113680, Control_c, 11, 11, 35
16, 113682, Control_c, 11, 11, 34
16, 113685, Control_c, 11, 11, 33
16, 113687, Control_c, 11, 11, 32
16, 113689, Control_c, 11, 11, 31
16, 113691, Control_c, 11, 11, 30
16, 113694, Control_c, 11, 11, 29
16, 113696, Control_c, 11, 11, 28
16, 113698, Control_c, 11, 11, 27
16, 113701, Control_c, 11, 11, 26
16, 113703, Control_c, 11, 11, 25
16, 113705, Control_c, 11, 11, 24
16, 113707, Control_c, 11, 11, 23
16, 113710, Control_c, 11, 11, 22
16, 113712, Control_c, 11, 11, 21
16, 113714, Control_c, 11, 11, 20
16, 113716, Control_c, 11, 11, 19
16, 113719, Control_c, 11, 11, 18
16, 113721, Control_c, 11, 11, 17
16, 113723, Control_c, 11, 11, 16
16, 113725, Control_c, 11, 11, 15
16, 113728, Note_on_c, 11, 70, 0
16, 113728, Note_on_c, 11, 82, 0
16, 113728, Control_c, 11, 11, 14
16, 113730, Control_c, 11, 11, 13
16, 113732, Control_c, 11, 11, 12
16, 113735, Control_c, 11, 11, 11
16, 113737, Control_c, 11, 11, 10
16, 113739, Control_c, 11, 11, 9
16, 113741, Control_c, 11, 11, 8
16, 113744, Control_c, 11, 11, 7
16, 113746, Control_c, 11, 11, 6
16, 113748, Control_c, 11, 11, 5
16, 113750, Control_c, 11, 11, 4
16, 113753, Control_c, 11, 11, 3
16, 113755, Control_c, 11, 11, 2
16, 113757, Control_c, 11, 11, 1
16, 113760, Control_c, 11, 11, 0
16, 113760, End_track
17, 0, Start_track
17, 0, Title_t, "Violini I - b"
17, 0, MIDI_port, 0
17, 163, Control_c, 11, 0, 0
17, 164, Control_c, 11, 32, 0
17, 165, Program_c, 11, 48
17, 166, Control_c, 11, 7, 127
17, 167, Control_c, 11, 10, 44
17, 168, Control_c, 11, 91, 127
17, 29184, Note_on_c, 11, 71, 113
17, 29440, Note_on_c, 11, 71, 0
17, 29472, Note_on_c, 11, 73, 114
17, 29728, Note_on_c, 11, 73, 0
17, 29760, Note_on_c, 11, 71, 112
17, 30016, Note_on_c, 11, 71, 0
17, 30048, Note_on_c, 11, 73, 112
17, 30304, Note_on_c, 11, 73, 0
17, 36096, Note_on_c, 11, 75, 42
17, 36096, Note_on_c, 11, 82, 42
17, 36118, Note_on_c, 11, 75, 0
17, 36118, Note_on_c, 11, 82, 0
17, 36120, Note_on_c, 11, 77, 50
17, 36120, Note_on_c, 11, 80, 45
17, 36142, Note_on_c, 11, 77, 0
17, 36142, Note_on_c, 11, 80, 0
17, 36144, Note_on_c, 11, 75, 45
17, 36144, Note_on_c, 11, 82, 42
17, 36166, Note_on_c, 11, 75, 0
17, 36166, Note_on_c, 11, 82, 0
17, 36168, Note_on_c, 11, 77, 50
17, 36168, Note_on_c, 11, 80, 50
17, 36190, Note_on_c, 11, 77, 0
17, 36190, Note_on_c, 11, 80, 0
17, 36192, Note_on_c, 11, 75, 48
17, 36192, Note_on_c, 11, 82, 49
17, 36214, Note_on_c, 11, 75, 0
17, 36214, Note_on_c, 11, 82, 0
17, 36216, Note_on_c, 11, 77, 45
17, 36216, Note_on_c, 11, 80, 46
17, 36238, Note_on_c, 11, 77, 0
17, 36238, Note_on_c, 11, 80, 0
17, 36240, Note_on_c, 11, 75, 48
17, 36240, Note_on_c, 11, 82, 55
17, 36262, Note_on_c, 11, 75, 0
17, 36262, Note_on_c, 11, 82, 0
17, 36264, Note_on_c, 11, 77, 55
17, 36264, Note_on_c, 11, 80, 54
17, 36286, Note_on_c, 11, 77, 0
17, 36286, Note_on_c, 11, 80, 0
17, 36288, Note_on_c, 11, 75, 54
17, 36288, Note_on_c, 11, 82, 55
17, 36310, Note_on_c, 11, 75, 0
17, 36310, Note_on_c, 11, 82, 0
17, 36312, Note_on_c, 11, 77, 50
17, 36312, Note_on_c, 11, 80, 53
17, 36334, Note_on_c, 11, 77, 0
17, 36334, Note_on_c, 11, 80, 0
17, 36336, Note_on_c, 11, 75, 52
17, 36336, Note_on_c, 11, 82, 55
17, 36358, Note_on_c, 11, 75, 0
17, 36358, Note_on_c, 11, 82, 0
17, 36360, Note_on_c, 11, 77, 56
17, 36360, Note_on_c, 11, 80, 54
17, 36382, Note_on_c, 11, 77, 0
17, 36382, Note_on_c, 11, 80, 0
17, 36384, Note_on_c, 11, 75, 53
17, 36384, Note_on_c, 11, 82, 54
17, 36406, Note_on_c, 11, 75, 0
17, 36406, Note_on_c, 11, 82, 0
17, 36408, Note_on_c, 11, 77, 57
17, 36408, Note_on_c, 11, 80, 57
17, 36430, Note_on_c, 11, 77, 0
17, 36430, Note_on_c, 11, 80, 0
17, 36432, Note_on_c, 11, 75, 63
17, 36432, Note_on_c, 11, 82, 56
17, 36454, Note_on_c, 11, 75, 0
17, 36454, Note_on_c, 11, 82, 0
17, 36456, Note_on_c, 11, 77, 61
17, 36456, Note_on_c, 11, 80, 57
17, 36478, Note_on_c, 11, 77, 0
17, 36478, Note_on_c, 11, 80, 0
17, 36480, Note_on_c, 11, 75, 64
17, 36480, Note_on_c, 11, 82, 61
17, 36502, Note_on_c, 11, 75, 0
17, 36502, Note_on_c, 11, 82, 0
17, 36504, Note_on_c, 11, 77, 56
17, 36504, Note_on_c, 11, 80, 61
17, 36526, Note_on_c, 11, 77, 0
17, 36526, Note_on_c, 11, 80, 0
17, 36528, Note_on_c, 11, 75, 63
17, 36528, Note_on_c, 11, 82, 58
17, 36550, Note_on_c, 11, 75, 0
17, 36550, Note_on_c, 11, 82, 0
17, 36552, Note_on_c, 11, 77, 67
17, 36552, Note_on_c, 11, 80, 64
17, 36574, Note_on_c, 11, 77, 0
17, 36574, Note_on_c, 11, 80, 0
17, 36576, Note_on_c, 11, 75, 63
17, 36576, Note_on_c, 11, 82, 66
17, 36598, Note_on_c, 11, 75, 0
17, 36598, Note_on_c, 11, 82, 0
17, 36600, Note_on_c, 11, 77, 70
17, 36600, Note_on_c, 11, 80, 73
17, 36622, Note_on_c, 11, 77, 0
17, 36622, Note_on_c, 11, 80, 0
17, 36624, Note_on_c, 11, 75, 69
17, 36624, Note_on_c, 11, 82, 74
17, 36646, Note_on_c, 11, 75, 0
17, 36646, Note_on_c, 11, 82, 0
17, 36648, Note_on_c, 11, 77, 70
17, 36648, Note_on_c, 11, 80, 71
17, 36670, Note_on_c, 11, 77, 0
17, 36670, Note_on_c, 11, 80, 0
17, 37824, Note_on_c, 11, 82, 30
17, 38494, Note_on_c, 11, 82, 0
17, 39600, Note_on_c, 11, 68, 32
17, 39600, Note_on_c, 11, 75, 31
17, 39646, Note_on_c, 11, 68, 0
17, 39646, Note_on_c, 11, 75, 0
17, 39696, Note_on_c, 11, 68, 27
17, 39696, Note_on_c, 11, 75, 25
17, 39742, Note_on_c, 11, 68, 0
17, 39742, Note_on_c, 11, 75, 0
17, 39792, Note_on_c, 11, 68, 29
17, 39792, Note_on_c, 11, 75, 30
17, 39838, Note_on_c, 11, 68, 0
17, 39838, Note_on_c, 11, 75, 0
17, 39888, Note_on_c, 11, 68, 29
17, 39888, Note_on_c, 11, 73, 35
17, 39934, Note_on_c, 11, 68, 0
17, 39934, Note_on_c, 11, 73, 0
17, 39984, Note_on_c, 11, 68, 28
17, 39984, Note_on_c, 11, 73, 30
17, 40030, Note_on_c, 11, 68, 0
17, 40030, Note_on_c, 11, 73, 0
17, 40080, Note_on_c, 11, 68, 27
17, 40080, Note_on_c, 11, 73, 31
17, 40126, Note_on_c, 11, 68, 0
17, 40126, Note_on_c, 11, 73, 0
17, 40176, Note_on_c, 11, 68, 27
17, 40176, Note_on_c, 11, 75, 32
17, 40222, Note_on_c, 11, 68, 0
17, 40222, Note_on_c, 11, 75, 0
17, 40272, Note_on_c, 11, 68, 27
17, 40272, Note_on_c, 11, 75, 35
17, 40318, Note_on_c, 11, 68, 0
17, 40318, Note_on_c, 11, 75, 0
17, 40368, Note_on_c, 11, 68, 34
17, 40368, Note_on_c, 11, 75, 31
17, 40414, Note_on_c, 11, 68, 0
17, 40414, Note_on_c, 11, 75, 0
17, 40464, Note_on_c, 11, 68, 34
17, 40464, Note_on_c, 11, 73, 34
17, 40510, Note_on_c, 11, 68, 0
17, 40510, Note_on_c, 11, 73, 0
17, 40560, Note_on_c, 11, 68, 35
17, 40560, Note_on_c, 11, 73, 30
17, 40606, Note_on_c, 11, 68, 0
17, 40606, Note_on_c, 11, 73, 0
17, 40656, Note_on_c, 11, 68, 35
17, 40656, Note_on_c, 11, 73, 26
17, 40702, Note_on_c, 11, 68, 0
17, 40702, Note_on_c, 11, 73, 0
17, 40752, Note_on_c, 11, 68, 34
17, 40752, Note_on_c, 11, 75, 34
17, 40798, Note_on_c, 11, 68, 0
17, 40798, Note_on_c, 11, 75, 0
17, 40848, Note_on_c, 11, 68, 29
17, 40848, Note_on_c, 11, 75, 34
17, 40894, Note_on_c, 11, 68, 0
17, 40894, Note_on_c, 11, 75, 0
17, 40944, Note_on_c, 11, 68, 31
17, 40944, Note_on_c, 11, 75, 32
17, 40990, Note_on_c, 11, 68, 0
17, 40990, Note_on_c, 11, 75, 0
17, 41040, Note_on_c, 11, 68, 32
17, 41040, Note_on_c, 11, 74, 34
17, 41086, Note_on_c, 11, 68, 0
17, 41086, Note_on_c, 11, 74, 0
17, 41136, Note_on_c, 11, 68, 30
17, 41136, Note_on_c, 11, 74, 27
17, 41182, Note_on_c, 11, 68, 0
17, 41182, Note_on_c, 11, 74, 0
17, 41232, Note_on_c, 11, 68, 26
17, 41232, Note_on_c, 11, 77, 32
17, 41278, Note_on_c, 11, 68, 0
17, 41278, Note_on_c, 11, 77, 0
17, 41328, Note_on_c, 11, 71, 30
17, 41328, Note_on_c, 11, 81, 36
17, 41374, Note_on_c, 11, 71, 0
17, 41374, Note_on_c, 11, 81, 0
17, 41424, Note_on_c, 11, 71, 32
17, 41424, Note_on_c, 11, 81, 30
17, 41470, Note_on_c, 11, 71, 0
17, 41470, Note_on_c, 11, 81, 0
17, 41520, Note_on_c, 11, 71, 40
17, 41520, Note_on_c, 11, 80, 39
17, 41566, Note_on_c, 11, 71, 0
17, 41566, Note_on_c, 11, 80, 0
17, 41616, Note_on_c, 11, 71, 40
17, 41616, Note_on_c, 11, 79, 40
17, 41662, Note_on_c, 11, 71, 0
17, 41662, Note_on_c, 11, 79, 0
17, 41712, Note_on_c, 11, 71, 40
17, 41712, Note_on_c, 11, 79, 42
17, 41758, Note_on_c, 11, 71, 0
17, 41758, Note_on_c, 11, 79, 0
17, 41808, Note_on_c, 11, 71, 48
17, 41808, Note_on_c, 11, 78, 40
17, 41854, Note_on_c, 11, 71, 0
17, 41854, Note_on_c, 11, 78, 0
17, 41856, Note_on_c, 11, 71, 43
17, 41856, Note_on_c, 11, 77, 48
17, 41950, Note_on_c, 11, 71, 0
17, 41950, Note_on_c, 11, 77, 0
17, 49344, Note_on_c, 11, 71, 26
17, 49376, Note_on_c, 11, 71, 0
17, 49392, Note_on_c, 11, 71, 35
17, 49424, Note_on_c, 11, 71, 0
17, 49488, Note_on_c, 11, 71, 26
17, 49520, Note_on_c, 11, 71, 0
17, 49584, Note_on_c, 11, 71, 26
17, 49616, Note_on_c, 11, 71, 0
17, 49632, Note_on_c, 11, 71, 33
17, 49664, Note_on_c, 11, 71, 0
17, 49680, Note_on_c, 11, 71, 28
17, 49712, Note_on_c, 11, 71, 0
17, 49776, Note_on_c, 11, 71, 33
17, 49808, Note_on_c, 11, 71, 0
17, 49872, Note_on_c, 11, 71, 32
17, 49904, Note_on_c, 11, 71, 0
17, 49920, Note_on_c, 11, 71, 31
17, 49952, Note_on_c, 11, 71, 0
17, 49968, Note_on_c, 11, 71, 32
17, 50000, Note_on_c, 11, 71, 0
17, 50064, Note_on_c, 11, 71, 33
17, 50096, Note_on_c, 11, 71, 0
17, 50160, Note_on_c, 11, 71, 32
17, 50192, Note_on_c, 11, 71, 0
17, 50208, Note_on_c, 11, 71, 31
17, 50240, Note_on_c, 11, 71, 0
17, 50256, Note_on_c, 11, 71, 34
17, 50288, Note_on_c, 11, 71, 0
17, 50352, Note_on_c, 11, 71, 31
17, 50384, Note_on_c, 11, 71, 0
17, 50448, Note_on_c, 11, 71, 35
17, 50480, Note_on_c, 11, 71, 0
17, 50496, Note_on_c, 11, 71, 27
17, 50528, Note_on_c, 11, 71, 0
17, 50544, Note_on_c, 11, 71, 36
17, 50576, Note_on_c, 11, 71, 0
17, 50640, Note_on_c, 11, 71, 41
17, 50672, Note_on_c, 11, 71, 0
17, 50736, Note_on_c, 11, 71, 42
17, 50768, Note_on_c, 11, 71, 0
17, 50784, Note_on_c, 11, 71, 46
17, 50816, Note_on_c, 11, 71, 0
17, 50832, Note_on_c, 11, 71, 43
17, 50864, Note_on_c, 11, 71, 0
17, 50928, Note_on_c, 11, 73, 57
17, 50960, Note_on_c, 11, 73, 0
17, 51024, Note_on_c, 11, 75, 63
17, 51056, Note_on_c, 11, 75, 0
17, 51072, Note_on_c, 11, 77, 87
17, 51118, Note_on_c, 11, 77, 0
17, 51120, Note_on_c, 11, 80, 95
17, 51166, Note_on_c, 11, 80, 0
17, 51168, Note_on_c, 11, 82, 91
17, 51616, Note_on_c, 11, 82, 0
17, 51936, Note_on_c, 11, 73, 46
17, 51950, Note_on_c, 11, 73, 0
17, 51952, Note_on_c, 11, 61, 48
17, 51966, Note_on_c, 11, 61, 0
17, 51968, Note_on_c, 11, 73, 40
17, 51982, Note_on_c, 11, 73, 0
17, 51984, Note_on_c, 11, 75, 49
17, 51998, Note_on_c, 11, 75, 0
17, 52000, Note_on_c, 11, 63, 44
17, 52014, Note_on_c, 11, 63, 0
17, 52016, Note_on_c, 11, 75, 47
17, 52030, Note_on_c, 11, 75, 0
17, 52032, Note_on_c, 11, 73, 50
17, 52046, Note_on_c, 11, 73, 0
17, 52048, Note_on_c, 11, 61, 51
17, 52062, Note_on_c, 11, 61, 0
17, 52064, Note_on_c, 11, 73, 50
17, 52078, Note_on_c, 11, 73, 0
17, 52080, Note_on_c, 11, 75, 42
17, 52094, Note_on_c, 11, 75, 0
17, 52096, Note_on_c, 11, 63, 50
17, 52110, Note_on_c, 11, 63, 0
17, 52112, Note_on_c, 11, 75, 45
17, 52126, Note_on_c, 11, 75, 0
17, 52128, Note_on_c, 11, 73, 48
17, 52142, Note_on_c, 11, 73, 0
17, 52144, Note_on_c, 11, 61, 56
17, 52158, Note_on_c, 11, 61, 0
17, 52160, Note_on_c, 11, 73, 49
17, 52174, Note_on_c, 11, 73, 0
17, 52176, Note_on_c, 11, 75, 58
17, 52190, Note_on_c, 11, 75, 0
17, 52192, Note_on_c, 11, 63, 58
17, 52206, Note_on_c, 11, 63, 0
17, 52208, Note_on_c, 11, 75, 50
17, 52222, Note_on_c, 11, 75, 0
17, 52224, Note_on_c, 11, 73, 57
17, 52238, Note_on_c, 11, 73, 0
17, 52240, Note_on_c, 11, 61, 58
17, 52254, Note_on_c, 11, 61, 0
17, 52256, Note_on_c, 11, 73, 60
17, 52270, Note_on_c, 11, 73, 0
17, 52272, Note_on_c, 11, 75, 64
17, 52286, Note_on_c, 11, 75, 0
17, 52288, Note_on_c, 11, 63, 65
17, 52302, Note_on_c, 11, 63, 0
17, 52304, Note_on_c, 11, 75, 61
17, 52318, Note_on_c, 11, 75, 0
17, 52320, Note_on_c, 11, 73, 67
17, 52334, Note_on_c, 11, 73, 0
17, 52336, Note_on_c, 11, 61, 62
17, 52350, Note_on_c, 11, 61, 0
17, 52352, Note_on_c, 11, 73, 65
17, 52366, Note_on_c, 11, 73, 0
17, 52368, Note_on_c, 11, 75, 68
17, 52382, Note_on_c, 11, 75, 0
17, 52384, Note_on_c, 11, 63, 70
17, 52398, Note_on_c, 11, 63, 0
17, 52400, Note_on_c, 11, 75, 62
17, 52414, Note_on_c, 11, 75, 0
17, 52416, Note_on_c, 11, 73, 73
17, 52430, Note_on_c, 11, 73, 0
17, 52432, Note_on_c, 11, 61, 73
17, 52446, Note_on_c, 11, 61, 0
17, 52448, Note_on_c, 11, 73, 73
17, 52462, Note_on_c, 11, 73, 0
17, 52464, Note_on_c, 11, 75, 66
17, 52478, Note_on_c, 11, 75, 0
17, 52480, Note_on_c, 11, 63, 69
17, 52494, Note_on_c, 11, 63, 0
17, 52496, Note_on_c, 11, 75, 71
17, 52510, Note_on_c, 11, 75, 0
17, 52512, Note_on_c, 11, 85, 70
17, 52534, Note_on_c, 11, 85, 0
17, 52536, Note_on_c, 11, 83, 71
17, 52558, Note_on_c, 11, 83, 0
17, 52560, Note_on_c, 11, 85, 68
17, 52582, Note_on_c, 11, 85, 0
17, 52584, Note_on_c, 11, 83, 61
17, 52606, Note_on_c, 11, 83, 0
17, 52608, Note_on_c, 11, 73, 52
17, 52630, Note_on_c, 11, 73, 0
17, 52632, Note_on_c, 11, 70, 47
17, 52654, Note_on_c, 11, 70, 0
17, 52656, Note_on_c, 11, 73, 41
17, 52678, Note_on_c, 11, 73, 0
17, 52680, Note_on_c, 11, 70, 36
17, 52702, Note_on_c, 11, 70, 0
17, 52800, Note_on_c, 11, 85, 72
17, 52822, Note_on_c, 11, 85, 0
17, 52824, Note_on_c, 11, 82, 74
17, 52846, Note_on_c, 11, 82, 0
17, 52848, Note_on_c, 11, 85, 69
17, 52870, Note_on_c, 11, 85, 0
17, 52872, Note_on_c, 11, 82, 60
17, 52894, Note_on_c, 11, 82, 0
17, 52896, Note_on_c, 11, 73, 62
17, 52918, Note_on_c, 11, 73, 0
17, 52920, Note_on_c, 11, 71, 46
17, 52942, Note_on_c, 11, 71, 0
17, 52944, Note_on_c, 11, 73, 41
17, 52966, Note_on_c, 11, 73, 0
17, 52968, Note_on_c, 11, 71, 35
17, 52990, Note_on_c, 11, 71, 0
17, 53088, Note_on_c, 11, 85, 78
17, 53110, Note_on_c, 11, 85, 0
17, 53112, Note_on_c, 11, 83, 73
17, 53134, Note_on_c, 11, 83, 0
17, 53136, Note_on_c, 11, 85, 66
17, 53158, Note_on_c, 11, 85, 0
17, 53160, Note_on_c, 11, 83, 61
17, 53182, Note_on_c, 11, 83, 0
17, 53184, Note_on_c, 11, 73, 58
17, 53206, Note_on_c, 11, 73, 0
17, 53208, Note_on_c, 11, 70, 55
17, 53230, Note_on_c, 11, 70, 0
17, 53232, Note_on_c, 11, 73, 46
17, 53254, Note_on_c, 11, 73, 0
17, 53256, Note_on_c, 11, 70, 33
17, 53278, Note_on_c, 11, 70, 0
17, 53376, Note_on_c, 11, 85, 70
17, 53398, Note_on_c, 11, 85, 0
17, 53400, Note_on_c, 11, 82, 77
17, 53422, Note_on_c, 11, 82, 0
17, 53424, Note_on_c, 11, 85, 74
17, 53446, Note_on_c, 11, 85, 0
17, 53448, Note_on_c, 11, 82, 65
17, 53470, Note_on_c, 11, 82, 0
17, 53472, Note_on_c, 11, 73, 58
17, 53494, Note_on_c, 11, 73, 0
17, 53496, Note_on_c, 11, 71, 46
17, 53518, Note_on_c, 11, 71, 0
17, 53520, Note_on_c, 11, 73, 44
17, 53542, Note_on_c, 11, 73, 0
17, 53544, Note_on_c, 11, 71, 42
17, 53566, Note_on_c, 11, 71, 0
17, 53664, Note_on_c, 11, 71, 29
17, 53686, Note_on_c, 11, 71, 0
17, 53688, Note_on_c, 11, 71, 33
17, 53710, Note_on_c, 11, 71, 0
17, 53712, Note_on_c, 11, 71, 31
17, 53734, Note_on_c, 11, 71, 0
17, 53736, Note_on_c, 11, 71, 25
17, 53758, Note_on_c, 11, 71, 0
17, 53760, Note_on_c, 11, 71, 31
17, 53782, Note_on_c, 11, 71, 0
17, 53784, Note_on_c, 11, 71, 25
17, 53806, Note_on_c, 11, 71, 0
17, 53808, Note_on_c, 11, 71, 29
17, 53830, Note_on_c, 11, 71, 0
17, 53832, Note_on_c, 11, 71, 32
17, 53854, Note_on_c, 11, 71, 0
17, 53856, Note_on_c, 11, 71, 29
17, 53878, Note_on_c, 11, 71, 0
17, 53880, Note_on_c, 11, 71, 29
17, 53902, Note_on_c, 11, 71, 0
17, 53904, Note_on_c, 11, 71, 35
17, 53926, Note_on_c, 11, 71, 0
17, 53928, Note_on_c, 11, 71, 34
17, 53950, Note_on_c, 11, 71, 0
17, 53952, Note_on_c, 11, 71, 34
17, 53974, Note_on_c, 11, 71, 0
17, 53976, Note_on_c, 11, 71, 30
17, 53998, Note_on_c, 11, 71, 0
17, 54000, Note_on_c, 11, 71, 31
17, 54022, Note_on_c, 11, 71, 0
17, 54024, Note_on_c, 11, 71, 39
17, 54046, Note_on_c, 11, 71, 0
17, 54048, Note_on_c, 11, 71, 41
17, 54070, Note_on_c, 11, 71, 0
17, 54072, Note_on_c, 11, 71, 39
17, 54094, Note_on_c, 11, 71, 0
17, 54096, Note_on_c, 11, 71, 42
17, 54118, Note_on_c, 11, 71, 0
17, 54120, Note_on_c, 11, 71, 37
17, 54142, Note_on_c, 11, 71, 0
17, 54144, Note_on_c, 11, 71, 45
17, 54166, Note_on_c, 11, 71, 0
17, 54168, Note_on_c, 11, 71, 37
17, 54190, Note_on_c, 11, 71, 0
17, 54192, Note_on_c, 11, 71, 48
17, 54214, Note_on_c, 11, 71, 0
17, 54216, Note_on_c, 11, 71, 49
17, 54238, Note_on_c, 11, 71, 0
17, 54240, Note_on_c, 11, 71, 48
17, 54262, Note_on_c, 11, 71, 0
17, 54264, Note_on_c, 11, 68, 49
17, 54286, Note_on_c, 11, 68, 0
17, 54288, Note_on_c, 11, 71, 43
17, 54310, Note_on_c, 11, 71, 0
17, 54312, Note_on_c, 11, 68, 50
17, 54334, Note_on_c, 11, 68, 0
17, 54336, Note_on_c, 11, 74, 50
17, 54358, Note_on_c, 11, 74, 0
17, 54360, Note_on_c, 11, 71, 51
17, 54382, Note_on_c, 11, 71, 0
17, 54384, Note_on_c, 11, 74, 60
17, 54406, Note_on_c, 11, 74, 0
17, 54408, Note_on_c, 11, 71, 65
17, 54430, Note_on_c, 11, 71, 0
17, 54432, Note_on_c, 11, 76, 65
17, 54454, Note_on_c, 11, 76, 0
17, 54456, Note_on_c, 11, 74, 61
17, 54478, Note_on_c, 11, 74, 0
17, 54480, Note_on_c, 11, 76, 69
17, 54502, Note_on_c, 11, 76, 0
17, 54504, Note_on_c, 11, 74, 72
17, 54526, Note_on_c, 11, 74, 0
17, 54528, Note_on_c, 11, 71, 76
17, 54550, Note_on_c, 11, 71, 0
17, 54552, Note_on_c, 11, 68, 80
17, 54574, Note_on_c, 11, 68, 0
17, 54576, Note_on_c, 11, 71, 73
17, 54598, Note_on_c, 11, 71, 0
17, 54600, Note_on_c, 11, 68, 80
17, 54622, Note_on_c, 11, 68, 0
17, 54624, Note_on_c, 11, 74, 78
17, 54646, Note_on_c, 11, 74, 0
17, 54648, Note_on_c, 11, 71, 80
17, 54670, Note_on_c, 11, 71, 0
17, 54672, Note_on_c, 11, 74, 76
17, 54694, Note_on_c, 11, 74, 0
17, 54696, Note_on_c, 11, 71, 77
17, 54718, Note_on_c, 11, 71, 0
17, 54720, Note_on_c, 11, 76, 71
17, 54742, Note_on_c, 11, 76, 0
17, 54744, Note_on_c, 11, 74, 71
17, 54766, Note_on_c, 11, 74, 0
17, 54768, Note_on_c, 11, 76, 79
17, 54790, Note_on_c, 11, 76, 0
17, 54792, Note_on_c, 11, 74, 71
17, 54814, Note_on_c, 11, 74, 0
17, 54816, Note_on_c, 11, 71, 42
17, 54838, Note_on_c, 11, 71, 0
17, 54840, Note_on_c, 11, 68, 48
17, 54862, Note_on_c, 11, 68, 0
17, 54864, Note_on_c, 11, 71, 43
17, 54886, Note_on_c, 11, 71, 0
17, 54888, Note_on_c, 11, 68, 50
17, 54910, Note_on_c, 11, 68, 0
17, 54912, Note_on_c, 11, 74, 53
17, 54934, Note_on_c, 11, 74, 0
17, 54936, Note_on_c, 11, 71, 52
17, 54958, Note_on_c, 11, 71, 0
17, 54960, Note_on_c, 11, 74, 55
17, 54982, Note_on_c, 11, 74, 0
17, 54984, Note_on_c, 11, 71, 65
17, 55006, Note_on_c, 11, 71, 0
17, 55008, Note_on_c, 11, 76, 61
17, 55030, Note_on_c, 11, 76, 0
17, 55032, Note_on_c, 11, 74, 64
17, 55054, Note_on_c, 11, 74, 0
17, 55056, Note_on_c, 11, 76, 68
17, 55078, Note_on_c, 11, 76, 0
17, 55080, Note_on_c, 11, 74, 73
17, 55102, Note_on_c, 11, 74, 0
17, 55104, Note_on_c, 11, 71, 71
17, 55126, Note_on_c, 11, 71, 0
17, 55128, Note_on_c, 11, 68, 77
17, 55150, Note_on_c, 11, 68, 0
17, 55152, Note_on_c, 11, 71, 80
17, 55174, Note_on_c, 11, 71, 0
17, 55176, Note_on_c, 11, 68, 71
17, 55198, Note_on_c, 11, 68, 0
17, 55200, Note_on_c, 11, 74, 71
17, 55222, Note_on_c, 11, 74, 0
17, 55224, Note_on_c, 11, 71, 72
17, 55246, Note_on_c, 11, 71, 0
17, 55248, Note_on_c, 11, 74, 75
17, 55270, Note_on_c, 11, 74, 0
17, 55272, Note_on_c, 11, 71, 79
17, 55294, Note_on_c, 11, 71, 0
17, 55296, Note_on_c, 11, 76, 78
17, 55318, Note_on_c, 11, 76, 0
17, 55320, Note_on_c, 11, 74, 71
17, 55342, Note_on_c, 11, 74, 0
17, 55344, Note_on_c, 11, 76, 73
17, 55366, Note_on_c, 11, 76, 0
17, 55368, Note_on_c, 11, 74, 79
17, 55390, Note_on_c, 11, 74, 0
17, 55392, Note_on_c, 11, 71, 42
17, 55414, Note_on_c, 11, 71, 0
17, 55416, Note_on_c, 11, 68, 40
17, 55438, Note_on_c, 11, 68, 0
17, 55440, Note_on_c, 11, 71, 46
17, 55462, Note_on_c, 11, 71, 0
17, 55464, Note_on_c, 11, 68, 51
17, 55486, Note_on_c, 11, 68, 0
17, 55488, Note_on_c, 11, 74, 55
17, 55510, Note_on_c, 11, 74, 0
17, 55512, Note_on_c, 11, 71, 59
17, 55534, Note_on_c, 11, 71, 0
17, 55536, Note_on_c, 11, 74, 59
17, 55558, Note_on_c, 11, 74, 0
17, 55560, Note_on_c, 11, 71, 64
17, 55582, Note_on_c, 11, 71, 0
17, 55584, Note_on_c, 11, 76, 58
17, 55606, Note_on_c, 11, 76, 0
17, 55608, Note_on_c, 11, 74, 61
17, 55630, Note_on_c, 11, 74, 0
17, 55632, Note_on_c, 11, 76, 72
17, 55654, Note_on_c, 11, 76, 0
17, 55656, Note_on_c, 11, 74, 75
17, 55678, Note_on_c, 11, 74, 0
17, 55680, Note_on_c, 11, 71, 71
17, 55702, Note_on_c, 11, 71, 0
17, 55704, Note_on_c, 11, 68, 77
17, 55726, Note_on_c, 11, 68, 0
17, 55728, Note_on_c, 11, 71, 76
17, 55750, Note_on_c, 11, 71, 0
17, 55752, Note_on_c, 11, 68, 78
17, 55774, Note_on_c, 11, 68, 0
17, 55776, Note_on_c, 11, 74, 71
17, 55798, Note_on_c, 11, 74, 0
17, 55800, Note_on_c, 11, 71, 71
17, 55822, Note_on_c, 11, 71, 0
17, 55824, Note_on_c, 11, 74, 72
17, 55846, Note_on_c, 11, 74, 0
17, 55848, Note_on_c, 11, 71, 78
17, 55870, Note_on_c, 11, 71, 0
17, 55872, Note_on_c, 11, 76, 70
17, 55894, Note_on_c, 11, 76, 0
17, 55896, Note_on_c, 11, 74, 78
17, 55918, Note_on_c, 11, 74, 0
17, 55920, Note_on_c, 11, 76, 71
17, 55942, Note_on_c, 11, 76, 0
17, 55944, Note_on_c, 11, 74, 71
17, 55966, Note_on_c, 11, 74, 0
17, 55968, Note_on_c, 11, 71, 50
17, 55990, Note_on_c, 11, 71, 0
17, 55992, Note_on_c, 11, 68, 48
17, 56014, Note_on_c, 11, 68, 0
17, 56016, Note_on_c, 11, 71, 48
17, 56038, Note_on_c, 11, 71, 0
17, 56040, Note_on_c, 11, 68, 54
17, 56062, Note_on_c, 11, 68, 0
17, 56064, Note_on_c, 11, 74, 56
17, 56086, Note_on_c, 11, 74, 0
17, 56088, Note_on_c, 11, 71, 54
17, 56110, Note_on_c, 11, 71, 0
17, 56112, Note_on_c, 11, 74, 61
17, 56134, Note_on_c, 11, 74, 0
17, 56136, Note_on_c, 11, 71, 64
17, 56158, Note_on_c, 11, 71, 0
17, 56160, Note_on_c, 11, 76, 62
17, 56182, Note_on_c, 11, 76, 0
17, 56184, Note_on_c, 11, 74, 68
17, 56206, Note_on_c, 11, 74, 0
17, 56208, Note_on_c, 11, 76, 69
17, 56230, Note_on_c, 11, 76, 0
17, 56232, Note_on_c, 11, 74, 74
17, 56254, Note_on_c, 11, 74, 0
17, 56256, Note_on_c, 11, 71, 70
17, 56278, Note_on_c, 11, 71, 0
17, 56280, Note_on_c, 11, 68, 71
17, 56302, Note_on_c, 11, 68, 0
17, 56304, Note_on_c, 11, 71, 73
17, 56326, Note_on_c, 11, 71, 0
17, 56328, Note_on_c, 11, 68, 78
17, 56350, Note_on_c, 11, 68, 0
17, 56352, Note_on_c, 11, 74, 71
17, 56374, Note_on_c, 11, 74, 0
17, 56376, Note_on_c, 11, 71, 74
17, 56398, Note_on_c, 11, 71, 0
17, 56400, Note_on_c, 11, 74, 72
17, 56422, Note_on_c, 11, 74, 0
17, 56424, Note_on_c, 11, 71, 77
17, 56446, Note_on_c, 11, 71, 0
17, 56448, Note_on_c, 11, 76, 80
17, 56470, Note_on_c, 11, 76, 0
17, 56472, Note_on_c, 11, 74, 73
17, 56494, Note_on_c, 11, 74, 0
17, 56496, Note_on_c, 11, 76, 80
17, 56518, Note_on_c, 11, 76, 0
17, 56520, Note_on_c, 11, 74, 76
17, 56542, Note_on_c, 11, 74, 0
17, 69600, Note_on_c, 11, 79, 88
17, 69792, Note_on_c, 11, 79, 0
17, 69792, Note_on_c, 11, 81, 97
17, 69984, Note_on_c, 11, 81, 0
17, 69984, Note_on_c, 11, 79, 97
17, 70176, Note_on_c, 11, 79, 0
17, 70176, Note_on_c, 11, 81, 93
17, 70368, Note_on_c, 11, 81, 0
17, 70368, Note_on_c, 11, 79, 90
17, 70560, Note_on_c, 11, 79, 0
17, 70560, Note_on_c, 11, 81, 93
17, 70752, Note_on_c, 11, 81, 0
17, 70752, Note_on_c, 11, 79, 93
17, 70944, Note_on_c, 11, 79, 0
17, 70944, Note_on_c, 11, 81, 88
17, 71136, Note_on_c, 11, 81, 0
17, 71136, Note_on_c, 11, 84, 96
17, 71904, Note_on_c, 11, 84, 0
17, 84384, Note_on_c, 11, 84, 43
17, 84478, Note_on_c, 11, 84, 0
17, 84480, Note_on_c, 11, 82, 38
17, 84622, Note_on_c, 11, 82, 0
17, 84624, Note_on_c, 11, 72, 40
17, 84670, Note_on_c, 11, 72, 0
17, 84672, Note_on_c, 11, 70, 36
17, 84766, Note_on_c, 11, 70, 0
17, 84768, Note_on_c, 11, 72, 39
17, 84910, Note_on_c, 11, 72, 0
17, 84912, Note_on_c, 11, 84, 40
17, 84958, Note_on_c, 11, 84, 0
17, 84960, Note_on_c, 11, 86, 44
17, 85054, Note_on_c, 11, 86, 0
17, 85056, Note_on_c, 11, 84, 42
17, 85198, Note_on_c, 11, 84, 0
17, 85200, Note_on_c, 11, 74, 36
17, 85246, Note_on_c, 11, 74, 0
17, 85248, Note_on_c, 11, 72, 42
17, 85342, Note_on_c, 11, 72, 0
17, 85344, Note_on_c, 11, 74, 39
17, 85486, Note_on_c, 11, 74, 0
17, 85488, Note_on_c, 11, 86, 33
17, 85534, Note_on_c, 11, 86, 0
17, 85536, Note_on_c, 11, 88, 36
17, 85630, Note_on_c, 11, 88, 0
17, 85632, Note_on_c, 11, 86, 37
17, 85774, Note_on_c, 11, 86, 0
17, 85776, Note_on_c, 11, 76, 35
17, 85822, Note_on_c, 11, 76, 0
17, 85824, Note_on_c, 11, 74, 34
17, 85918, Note_on_c, 11, 74, 0
17, 85920, Note_on_c, 11, 76, 29
17, 86062, Note_on_c, 11, 76, 0
17, 86064, Note_on_c, 11, 81, 30
17, 86110, Note_on_c, 11, 81, 0
17, 86112, Note_on_c, 11, 82, 28
17, 86206, Note_on_c, 11, 82, 0
17, 86208, Note_on_c, 11, 80, 35
17, 86350, Note_on_c, 11, 80, 0
17, 86352, Note_on_c, 11, 70, 26
17, 86398, Note_on_c, 11, 70, 0
17, 86400, Note_on_c, 11, 68, 26
17, 86494, Note_on_c, 11, 68, 0
17, 86496, Note_on_c, 11, 70, 27
17, 86638, Note_on_c, 11, 70, 0
17, 86640, Note_on_c, 11, 80, 28
17, 86686, Note_on_c, 11, 80, 0
17, 86688, Note_on_c, 11, 82, 30
17, 86782, Note_on_c, 11, 82, 0
17, 86784, Note_on_c, 11, 80, 35
17, 86926, Note_on_c, 11, 80, 0
17, 86928, Note_on_c, 11, 70, 32
17, 86974, Note_on_c, 11, 70, 0
17, 86976, Note_on_c, 11, 68, 26
17, 87070, Note_on_c, 11, 68, 0
17, 87072, Note_on_c, 11, 70, 28
17, 87214, Note_on_c, 11, 70, 0
17, 87216, Note_on_c, 11, 80, 28
17, 87262, Note_on_c, 11, 80, 0
17, 87264, Note_on_c, 11, 82, 28
17, 87358, Note_on_c, 11, 82, 0
17, 87360, Note_on_c, 11, 80, 33
17, 87502, Note_on_c, 11, 80, 0
17, 87504, Note_on_c, 11, 70, 32
17, 87550, Note_on_c, 11, 70, 0
17, 87552, Note_on_c, 11, 68, 26
17, 87646, Note_on_c, 11, 68, 0
17, 87648, Note_on_c, 11, 70, 32
17, 87790, Note_on_c, 11, 70, 0
17, 87792, Note_on_c, 11, 80, 27
17, 87838, Note_on_c, 11, 80, 0
17, 87840, Note_on_c, 11, 82, 30
17, 87934, Note_on_c, 11, 82, 0
17, 87936, Note_on_c, 11, 80, 35
17, 88078, Note_on_c, 11, 80, 0
17, 88080, Note_on_c, 11, 70, 25
17, 88126, Note_on_c, 11, 70, 0
17, 88128, Note_on_c, 11, 68, 32
17, 88222, Note_on_c, 11, 68, 0
17, 88224, Note_on_c, 11, 70, 30
17, 88366, Note_on_c, 11, 70, 0
17, 88368, Note_on_c, 11, 80, 35
17, 88414, Note_on_c, 11, 80, 0
17, 88416, Note_on_c, 11, 82, 31
17, 88510, Note_on_c, 11, 82, 0
17, 88512, Note_on_c, 11, 78, 30
17, 88654, Note_on_c, 11, 78, 0
17, 88656, Note_on_c, 11, 70, 30
17, 88702, Note_on_c, 11, 70, 0
17, 88704, Note_on_c, 11, 70, 25
17, 88798, Note_on_c, 11, 70, 0
17, 88800, Note_on_c, 11, 78, 29
17, 88942, Note_on_c, 11, 78, 0
17, 88944, Note_on_c, 11, 82, 31
17, 88990, Note_on_c, 11, 82, 0
17, 88992, Note_on_c, 11, 82, 32
17, 89086, Note_on_c, 11, 82, 0
17, 89088, Note_on_c, 11, 78, 32
17, 89230, Note_on_c, 11, 78, 0
17, 89232, Note_on_c, 11, 70, 31
17, 89278, Note_on_c, 11, 70, 0
17, 89280, Note_on_c, 11, 70, 29
17, 89374, Note_on_c, 11, 70, 0
17, 89376, Note_on_c, 11, 78, 26
17, 89518, Note_on_c, 11, 78, 0
17, 89520, Note_on_c, 11, 82, 34
17, 89566, Note_on_c, 11, 82, 0
17, 89856, Note_on_c, 11, 78, 30
17, 89856, Note_on_c, 11, 82, 28
17, 89950, Note_on_c, 11, 78, 0
17, 89950, Note_on_c, 11, 82, 0
17, 89952, Note_on_c, 11, 82, 31
17, 89952, Note_on_c, 11, 90, 33
17, 90094, Note_on_c, 11, 82, 0
17, 90094, Note_on_c, 11, 90, 0
17, 90096, Note_on_c, 11, 90, 34
17, 90096, Note_on_c, 11, 94, 31
17, 90238, Note_on_c, 11, 90, 0
17, 90238, Note_on_c, 11, 94, 0
17, 90432, Note_on_c, 11, 78, 27
17, 90432, Note_on_c, 11, 82, 35
17, 90526, Note_on_c, 11, 78, 0
17, 90526, Note_on_c, 11, 82, 0
17, 90528, Note_on_c, 11, 82, 26
17, 90528, Note_on_c, 11, 90, 27
17, 90670, Note_on_c, 11, 82, 0
17, 90670, Note_on_c, 11, 90, 0
17, 90672, Note_on_c, 11, 90, 31
17, 90672, Note_on_c, 11, 94, 34
17, 90814, Note_on_c, 11, 90, 0
17, 90814, Note_on_c, 11, 94, 0
17, 91008, Note_on_c, 11, 78, 31
17, 91008, Note_on_c, 11, 82, 25
17, 91102, Note_on_c, 11, 78, 0
17, 91102, Note_on_c, 11, 82, 0
17, 91104, Note_on_c, 11, 82, 26
17, 91104, Note_on_c, 11, 90, 35
17, 91246, Note_on_c, 11, 82, 0
17, 91246, Note_on_c, 11, 90, 0
17, 91248, Note_on_c, 11, 90, 30
17, 91248, Note_on_c, 11, 94, 28
17, 91390, Note_on_c, 11, 90, 0
17, 91390, Note_on_c, 11, 94, 0
17, 91584, Note_on_c, 11, 78, 29
17, 91584, Note_on_c, 11, 82, 35
17, 91678, Note_on_c, 11, 78, 0
17, 91678, Note_on_c, 11, 82, 0
17, 91680, Note_on_c, 11, 82, 28
17, 91680, Note_on_c, 11, 90, 27
17, 91822, Note_on_c, 11, 82, 0
17, 91822, Note_on_c, 11, 90, 0
17, 91824, Note_on_c, 11, 90, 35
17, 91824, Note_on_c, 11, 94, 33
17, 91966, Note_on_c, 11, 90, 0
17, 91966, Note_on_c, 11, 94, 0
17, 92160, Note_on_c, 11, 78, 31
17, 92160, Note_on_c, 11, 82, 26
17, 92254, Note_on_c, 11, 78, 0
17, 92254, Note_on_c, 11, 82, 0
17, 92256, Note_on_c, 11, 82, 29
17, 92256, Note_on_c, 11, 90, 28
17, 92398, Note_on_c, 11, 82, 0
17, 92398, Note_on_c, 11, 90, 0
17, 92400, Note_on_c, 11, 90, 26
17, 92400, Note_on_c, 11, 94, 34
17, 92542, Note_on_c, 11, 90, 0
17, 92542, Note_on_c, 11, 94, 0
17, 92736, Note_on_c, 11, 78, 31
17, 92736, Note_on_c, 11, 82, 34
17, 92830, Note_on_c, 11, 78, 0
17, 92830, Note_on_c, 11, 82, 0
17, 92832, Note_on_c, 11, 82, 33
17, 92832, Note_on_c, 11, 90, 33
17, 92974, Note_on_c, 11, 82, 0
17, 92974, Note_on_c, 11, 90, 0
17, 92976, Note_on_c, 11, 90, 34
17, 92976, Note_on_c, 11, 94, 27
17, 93118, Note_on_c, 11, 90, 0
17, 93118, Note_on_c, 11, 94, 0
17, 93312, Note_on_c, 11, 78, 28
17, 93312, Note_on_c, 11, 82, 27
17, 93406, Note_on_c, 11, 78, 0
17, 93406, Note_on_c, 11, 82, 0
17, 93408, Note_on_c, 11, 82, 27
17, 93408, Note_on_c, 11, 90, 31
17, 93550, Note_on_c, 11, 82, 0
17, 93550, Note_on_c, 11, 90, 0
17, 93552, Note_on_c, 11, 90, 26
17, 93552, Note_on_c, 11, 94, 31
17, 93694, Note_on_c, 11, 90, 0
17, 93694, Note_on_c, 11, 94, 0
17, 93888, Note_on_c, 11, 78, 33
17, 93888, Note_on_c, 11, 82, 33
17, 93982, Note_on_c, 11, 78, 0
17, 93982, Note_on_c, 11, 82, 0
17, 93984, Note_on_c, 11, 82, 35
17, 93984, Note_on_c, 11, 90, 33
17, 94126, Note_on_c, 11, 82, 0
17, 94126, Note_on_c, 11, 90, 0
17, 94128, Note_on_c, 11, 90, 35
17, 94128, Note_on_c, 11, 94, 27
17, 94174, Note_on_c, 11, 90, 0
17, 94174, Note_on_c, 11, 94, 0
17, 94560, Control_c, 11, 11, 92
17, 94560, Note_on_c, 11, 77, 47
17, 94560, Note_on_c, 11, 89, 46
17, 94570, Control_c, 11, 11, 93
17, 94581, Control_c, 11, 11, 94
17, 94592, Control_c, 11, 11, 95
17, 94603, Control_c, 11, 11, 96
17, 94614, Control_c, 11, 11, 97
17, 94622, Note_on_c, 11, 77, 0
17, 94622, Note_on_c, 11, 89, 0
17, 94624, Note_on_c, 11, 71, 48
17, 94624, Note_on_c, 11, 83, 45
17, 94625, Control_c, 11, 11, 98
17, 94636, Control_c, 11, 11, 99
17, 94647, Control_c, 11, 11, 100
17, 94658, Control_c, 11, 11, 101
17, 94669, Control_c, 11, 11, 102
17, 94680, Control_c, 11, 11, 103
17, 94691, Control_c, 11, 11, 104
17, 94702, Control_c, 11, 11, 105
17, 94713, Control_c, 11, 11, 106
17, 94718, Note_on_c, 11, 71, 0
17, 94718, Note_on_c, 11, 83, 0
17, 94720, Note_on_c, 11, 65, 42
17, 94720, Note_on_c, 11, 77, 43
17, 94724, Control_c, 11, 11, 107
17, 94735, Control_c, 11, 11, 108
17, 94746, Control_c, 11, 11, 109
17, 94750, Note_on_c, 11, 65, 0
17, 94750, Note_on_c, 11, 77, 0
17, 94752, Note_on_c, 11, 71, 44
17, 94752, Note_on_c, 11, 83, 48
17, 94757, Control_c, 11, 11, 110
17, 94768, Control_c, 11, 11, 111
17, 94779, Control_c, 11, 11, 112
17, 94790, Control_c, 11, 11, 113
17, 94801, Control_c, 11, 11, 114
17, 94812, Control_c, 11, 11, 115
17, 94814, Note_on_c, 11, 71, 0
17, 94814, Note_on_c, 11, 83, 0
17, 94816, Note_on_c, 11, 77, 50
17, 94816, Note_on_c, 11, 89, 44
17, 94823, Control_c, 11, 11, 116
17, 94834, Control_c, 11, 11, 117
17, 94845, Control_c, 11, 11, 118
17, 94856, Control_c, 11, 11, 119
17, 94867, Control_c, 11, 11, 120
17, 94878, Note_on_c, 11, 77, 0
17, 94878, Note_on_c, 11, 89, 0
17, 94878, Control_c, 11, 11, 121
17, 94880, Note_on_c, 11, 79, 41
17, 94880, Note_on_c, 11, 91, 50
17, 94889, Control_c, 11, 11, 122
17, 94900, Control_c, 11, 11, 123
17, 94911, Control_c, 11, 11, 124
17, 94922, Control_c, 11, 11, 125
17, 94933, Control_c, 11, 11, 126
17, 94942, Note_on_c, 11, 79, 0
17, 94942, Note_on_c, 11, 91, 0
17, 94944, Control_c, 11, 11, 127
17, 95328, Control_c, 11, 11, 127
17, 95328, Note_on_c, 11, 77, 30
17, 95328, Note_on_c, 11, 89, 28
17, 95338, Control_c, 11, 11, 126
17, 95349, Control_c, 11, 11, 125
17, 95360, Control_c, 11, 11, 124
17, 95371, Control_c, 11, 11, 123
17, 95382, Control_c, 11, 11, 122
17, 95390, Note_on_c, 11, 77, 0
17, 95390, Note_on_c, 11, 89, 0
17, 95392, Note_on_c, 11, 71, 26
17, 95392, Note_on_c, 11, 83, 25
17, 95393, Control_c, 11, 11, 121
17, 95404, Control_c, 11, 11, 120
17, 95415, Control_c, 11, 11, 119
17, 95426, Control_c, 11, 11, 118
17, 95437, Control_c, 11, 11, 117
17, 95448, Control_c, 11, 11, 116
17, 95459, Control_c, 11, 11, 115
17, 95470, Control_c, 11, 11, 114
17, 95481, Control_c, 11, 11, 113
17, 95486, Note_on_c, 11, 71, 0
17, 95486, Note_on_c, 11, 83, 0
17, 95488, Note_on_c, 11, 65, 26
17, 95488, Note_on_c, 11, 77, 27
17, 95492, Control_c, 11, 11, 112
17, 95503, Control_c, 11, 11, 111
17, 95514, Control_c, 11, 11, 110
17, 95518, Note_on_c, 11, 65, 0
17, 95518, Note_on_c, 11, 77, 0
17, 95520, Note_on_c, 11, 65, 35
17, 95520, Note_on_c, 11, 77, 32
17, 95525, Control_c, 11, 11, 109
17, 95536, Control_c, 11, 11, 108
17, 95547, Control_c, 11, 11, 107
17, 95558, Control_c, 11, 11, 106
17, 95569, Control_c, 11, 11, 105
17, 95580, Control_c, 11, 11, 104
17, 95582, Note_on_c, 11, 65, 0
17, 95582, Note_on_c, 11, 77, 0
17, 95584, Note_on_c, 11, 71, 26
17, 95584, Note_on_c, 11, 83, 35
17, 95591, Control_c, 11, 11, 103
17, 95602, Control_c, 11, 11, 102
17, 95613, Control_c, 11, 11, 101
17, 95624, Control_c, 11, 11, 100
17, 95635, Control_c, 11, 11, 99
17, 95646, Note_on_c, 11, 71, 0
17, 95646, Note_on_c, 11, 83, 0
17, 95646, Control_c, 11, 11, 98
17, 95657, Control_c, 11, 11, 97
17, 95668, Control_c, 11, 11, 96
17, 95679, Control_c, 11, 11, 95
17, 95690, Control_c, 11, 11, 94
17, 95701, Control_c, 11, 11, 93
17, 95712, Control_c, 11, 11, 92
17, 95712, Control_c, 11, 11, 92
17, 95733, Control_c, 11, 11, 91
17, 95754, Control_c, 11, 11, 90
17, 95775, Control_c, 11, 11, 89
17, 95796, Control_c, 11, 11, 88
17, 95817, Control_c, 11, 11, 87
17, 95838, Control_c, 11, 11, 86
17, 95859, Control_c, 11, 11, 85
17, 95880, Control_c, 11, 11, 84
17, 95901, Control_c, 11, 11, 83
17, 95922, Control_c, 11, 11, 82
17, 95943, Control_c, 11, 11, 81
17, 95964, Control_c, 11, 11, 80
17, 95985, Control_c, 11, 11, 79
17, 96006, Control_c, 11, 11, 78
17, 96027, Control_c, 11, 11, 77
17, 96032, Note_on_c, 11, 77, 30
17, 96032, Note_on_c, 11, 89, 26
17, 96048, Control_c, 11, 11, 76
17, 96069, Control_c, 11, 11, 75
17, 96090, Control_c, 11, 11, 74
17, 96111, Control_c, 11, 11, 73
17, 96132, Control_c, 11, 11, 72
17, 96153, Control_c, 11, 11, 71
17, 96174, Control_c, 11, 11, 70
17, 96190, Note_on_c, 11, 77, 0
17, 96190, Note_on_c, 11, 89, 0
17, 96192, Note_on_c, 11, 65, 32
17, 96192, Note_on_c, 11, 77, 26
17, 96195, Control_c, 11, 11, 69
17, 96216, Control_c, 11, 11, 68
17, 96237, Control_c, 11, 11, 67
17, 96258, Control_c, 11, 11, 66
17, 96279, Control_c, 11, 11, 65
17, 96286, Note_on_c, 11, 65, 0
17, 96286, Note_on_c, 11, 77, 0
17, 96288, Note_on_c, 11, 71, 28
17, 96288, Note_on_c, 11, 83, 33
17, 96300, Control_c, 11, 11, 64
17, 96321, Control_c, 11, 11, 63
17, 96342, Control_c, 11, 11, 62
17, 96363, Control_c, 11, 11, 61
17, 96382, Note_on_c, 11, 71, 0
17, 96382, Note_on_c, 11, 83, 0
17, 96384, Control_c, 11, 11, 60
17, 96384, Note_on_c, 11, 77, 28
17, 96384, Note_on_c, 11, 89, 25
17, 96478, Note_on_c, 11, 77, 0
17, 96478, Note_on_c, 11, 89, 0
17, 96480, Note_on_c, 11, 77, 27
17, 98784, Note_on_c, 11, 77, 0
17, 98784, Note_on_c, 11, 78, 34
17, 99936, Note_on_c, 11, 78, 0
17, 99936, Note_on_c, 11, 76, 29
17, 100512, Note_on_c, 11, 76, 0
17, 100512, Note_on_c, 11, 71, 31
17, 101088, Note_on_c, 11, 71, 0
17, 101088, Note_on_c, 11, 70, 34
17, 103392, Note_on_c, 11, 70, 0
17, 103392, Note_on_c, 11, 70, 35
17, 105696, Note_on_c, 11, 70, 0
17, 105696, Note_on_c, 11, 70, 20
17, 108160, Note_on_c, 11, 70, 0
17, 108160, End_track
18, 0, Start_track
18, 0, Title_t, "Violini II - a"
18, 0, MIDI_port, 0
18, 6912, Program_c, 12, 44
18, 6912, Control_c, 12, 11, 92
18, 8064, Note_on_c, 12, 83, 41
18, 8832, Control_c, 12, 11, 92
18, 8853, Control_c, 12, 11, 93
18, 8875, Control_c, 12, 11, 94
18, 8897, Control_c, 12, 11, 95
18, 8919, Control_c, 12, 11, 96
18, 8941, Control_c, 12, 11, 97
18, 8963, Control_c, 12, 11, 98
18, 8985, Control_c, 12, 11, 99
18, 9007, Control_c, 12, 11, 100
18, 9029, Control_c, 12, 11, 101
18, 9051, Control_c, 12, 11, 102
18, 9073, Control_c, 12, 11, 103
18, 9095, Control_c, 12, 11, 104
18, 9117, Control_c, 12, 11, 105
18, 9139, Control_c, 12, 11, 106
18, 9161, Control_c, 12, 11, 107
18, 9183, Control_c, 12, 11, 108
18, 9205, Control_c, 12, 11, 109
18, 9226, Control_c, 12, 11, 110
18, 9248, Control_c, 12, 11, 111
18, 9270, Control_c, 12, 11, 112
18, 9292, Control_c, 12, 11, 113
18, 9314, Control_c, 12, 11, 114
18, 9336, Control_c, 12, 11, 115
18, 9358, Control_c, 12, 11, 116
18, 9380, Control_c, 12, 11, 117
18, 9402, Control_c, 12, 11, 118
18, 9424, Control_c, 12, 11, 119
18, 9446, Control_c, 12, 11, 120
18, 9468, Control_c, 12, 11, 121
18, 9490, Control_c, 12, 11, 122
18, 9512, Control_c, 12, 11, 123
18, 9534, Control_c, 12, 11, 124
18, 9556, Control_c, 12, 11, 125
18, 9578, Control_c, 12, 11, 126
18, 9600, Control_c, 12, 11, 127
18, 9792, Note_on_c, 12, 83, 0
18, 9792, Note_on_c, 12, 81, 45
18, 9984, Note_on_c, 12, 81, 0
18, 9984, Control_c, 12, 11, 127
18, 9984, Note_on_c, 12, 80, 46
18, 10002, Control_c, 12, 11, 126
18, 10020, Control_c, 12, 11, 125
18, 10038, Control_c, 12, 11, 124
18, 10057, Control_c, 12, 11, 123
18, 10075, Control_c, 12, 11, 122
18, 10093, Control_c, 12, 11, 121
18, 10112, Control_c, 12, 11, 120
18, 10130, Control_c, 12, 11, 119
18, 10148, Control_c, 12, 11, 118
18, 10166, Control_c, 12, 11, 117
18, 10176, Note_on_c, 12, 80, 0
18, 10176, Note_on_c, 12, 78, 44
18, 10185, Control_c, 12, 11, 116
18, 10203, Control_c, 12, 11, 115
18, 10221, Control_c, 12, 11, 114
18, 10240, Control_c, 12, 11, 113
18, 10258, Control_c, 12, 11, 112
18, 10276, Control_c, 12, 11, 111
18, 10294, Control_c, 12, 11, 110
18, 10313, Control_c, 12, 11, 109
18, 10331, Control_c, 12, 11, 108
18, 10349, Control_c, 12, 11, 107
18, 10368, Note_on_c, 12, 78, 0
18, 10368, Control_c, 12, 11, 106
18, 10368, Note_on_c, 12, 71, 48
18, 10386, Control_c, 12, 11, 105
18, 10404, Control_c, 12, 11, 104
18, 10422, Control_c, 12, 11, 103
18, 10441, Control_c, 12, 11, 102
18, 10459, Control_c, 12, 11, 101
18, 10477, Control_c, 12, 11, 100
18, 10496, Control_c, 12, 11, 99
18, 10514, Control_c, 12, 11, 98
18, 10532, Control_c, 12, 11, 97
18, 10550, Control_c, 12, 11, 96
18, 10560, Note_on_c, 12, 71, 0
18, 10560, Note_on_c, 12, 69, 43
18, 10569, Control_c, 12, 11, 95
18, 10587, Control_c, 12, 11, 94
18, 10605, Control_c, 12, 11, 93
18, 10624, Control_c, 12, 11, 92
18, 10642, Control_c, 12, 11, 91
18, 10660, Control_c, 12, 11, 90
18, 10678, Control_c, 12, 11, 89
18, 10697, Control_c, 12, 11, 88
18, 10715, Control_c, 12, 11, 87
18, 10733, Control_c, 12, 11, 86
18, 10752, Note_on_c, 12, 69, 0
18, 10752, Control_c, 12, 11, 85
18, 10752, Note_on_c, 12, 68, 40
18, 10770, Control_c, 12, 11, 84
18, 10788, Control_c, 12, 11, 83
18, 10806, Control_c, 12, 11, 82
18, 10825, Control_c, 12, 11, 81
18, 10843, Control_c, 12, 11, 80
18, 10861, Control_c, 12, 11, 79
18, 10880, Control_c, 12, 11, 78
18, 10898, Control_c, 12, 11, 77
18, 10916, Control_c, 12, 11, 76
18, 10934, Control_c, 12, 11, 75
18, 10944, Note_on_c, 12, 68, 0
18, 10944, Note_on_c, 12, 66, 47
18, 10953, Control_c, 12, 11, 74
18, 10971, Control_c, 12, 11, 73
18, 10989, Control_c, 12, 11, 72
18, 11008, Control_c, 12, 11, 71
18, 11026, Control_c, 12, 11, 70
18, 11044, Control_c, 12, 11, 69
18, 11062, Control_c, 12, 11, 68
18, 11081, Control_c, 12, 11, 67
18, 11099, Control_c, 12, 11, 66
18, 11117, Control_c, 12, 11, 65
18, 11136, Note_on_c, 12, 66, 0
18, 11136, Control_c, 12, 11, 64
18, 11136, Note_on_c, 12, 71, 42
18, 11328, Note_on_c, 12, 71, 0
18, 11328, Note_on_c, 12, 69, 50
18, 11520, Note_on_c, 12, 69, 0
18, 11520, Note_on_c, 12, 68, 47
18, 11712, Note_on_c, 12, 68, 0
18, 11712, Note_on_c, 12, 66, 48
18, 11904, Note_on_c, 12, 66, 0
18, 12672, Control_c, 12, 11, 127
18, 16512, Program_c, 12, 44
18, 16512, Control_c, 12, 11, 92
18, 16512, Note_on_c, 12, 83, 42
18, 16533, Control_c, 12, 11, 93
18, 16555, Control_c, 12, 11, 94
18, 16577, Control_c, 12, 11, 95
18, 16599, Control_c, 12, 11, 96
18, 16621, Control_c, 12, 11, 97
18, 16643, Control_c, 12, 11, 98
18, 16665, Control_c, 12, 11, 99
18, 16687, Control_c, 12, 11, 100
18, 16709, Control_c, 12, 11, 101
18, 16731, Control_c, 12, 11, 102
18, 16753, Control_c, 12, 11, 103
18, 16775, Control_c, 12, 11, 104
18, 16797, Control_c, 12, 11, 105
18, 16819, Control_c, 12, 11, 106
18, 16841, Control_c, 12, 11, 107
18, 16863, Control_c, 12, 11, 108
18, 16885, Control_c, 12, 11, 109
18, 16906, Control_c, 12, 11, 110
18, 16928, Control_c, 12, 11, 111
18, 16950, Control_c, 12, 11, 112
18, 16972, Control_c, 12, 11, 113
18, 16994, Control_c, 12, 11, 114
18, 17016, Control_c, 12, 11, 115
18, 17038, Control_c, 12, 11, 116
18, 17060, Control_c, 12, 11, 117
18, 17082, Control_c, 12, 11, 118
18, 17104, Control_c, 12, 11, 119
18, 17126, Control_c, 12, 11, 120
18, 17148, Control_c, 12, 11, 121
18, 17170, Control_c, 12, 11, 122
18, 17192, Control_c, 12, 11, 123
18, 17214, Control_c, 12, 11, 124
18, 17236, Control_c, 12, 11, 125
18, 17258, Control_c, 12, 11, 126
18, 17280, Control_c, 12, 11, 127
18, 17280, Control_c, 12, 11, 92
18, 17472, Note_on_c, 12, 83, 0
18, 17472, Note_on_c, 12, 81, 40
18, 17664, Note_on_c, 12, 81, 0
18, 17664, Note_on_c, 12, 80, 41
18, 17856, Note_on_c, 12, 80, 0
18, 17856, Note_on_c, 12, 78, 48
18, 18048, Note_on_c, 12, 78, 0
18, 18048, Note_on_c, 12, 71, 42
18, 18240, Note_on_c, 12, 71, 0
18, 18240, Note_on_c, 12, 69, 47
18, 18432, Note_on_c, 12, 69, 0
18, 18432, Note_on_c, 12, 68, 40
18, 18624, Note_on_c, 12, 68, 0
18, 18624, Note_on_c, 12, 66, 45
18, 18816, Note_on_c, 12, 66, 0
18, 18816, Note_on_c, 12, 71, 40
18, 19008, Note_on_c, 12, 71, 0
18, 19008, Note_on_c, 12, 69, 50
18, 19200, Note_on_c, 12, 69, 0
18, 19200, Note_on_c, 12, 68, 41
18, 19392, Note_on_c, 12, 68, 0
18, 19392, Note_on_c, 12, 66, 41
18, 19584, Note_on_c, 12, 66, 0
18, 24576, Program_c, 12, 44
18, 24576, Control_c, 12, 11, 45
18, 25728, Note_on_c, 12, 66, 88
18, 26016, Note_on_c, 12, 66, 0
18, 26016, Note_on_c, 12, 68, 97
18, 26304, Note_on_c, 12, 68, 0
18, 26304, Note_on_c, 12, 66, 89
18, 26592, Note_on_c, 12, 66, 0
18, 26592, Note_on_c, 12, 68, 95
18, 26880, Note_on_c, 12, 68, 0
18, 26880, Control_c, 12, 11, 45
18, 26880, Note_on_c, 12, 71, 90
18, 26922, Control_c, 12, 11, 46
18, 26964, Control_c, 12, 11, 47
18, 27006, Control_c, 12, 11, 48
18, 27048, Control_c, 12, 11, 49
18, 27090, Control_c, 12, 11, 50
18, 27132, Control_c, 12, 11, 51
18, 27168, Note_on_c, 12, 71, 0
18, 27168, Note_on_c, 12, 73, 96
18, 27175, Control_c, 12, 11, 52
18, 27217, Control_c, 12, 11, 53
18, 27259, Control_c, 12, 11, 54
18, 27301, Control_c, 12, 11, 55
18, 27343, Control_c, 12, 11, 56
18, 27385, Control_c, 12, 11, 57
18, 27427, Control_c, 12, 11, 58
18, 27456, Note_on_c, 12, 73, 0
18, 27456, Note_on_c, 12, 71, 96
18, 27470, Control_c, 12, 11, 59
18, 27512, Control_c, 12, 11, 60
18, 27554, Control_c, 12, 11, 61
18, 27596, Control_c, 12, 11, 62
18, 27638, Control_c, 12, 11, 63
18, 27680, Control_c, 12, 11, 64
18, 27722, Control_c, 12, 11, 65
18, 27744, Note_on_c, 12, 71, 0
18, 27744, Note_on_c, 12, 73, 90
18, 27765, Control_c, 12, 11, 66
18, 27807, Control_c, 12, 11, 67
18, 27849, Control_c, 12, 11, 68
18, 27891, Control_c, 12, 11, 69
18, 27933, Control_c, 12, 11, 70
18, 27975, Control_c, 12, 11, 71
18, 28017, Control_c, 12, 11, 72
18, 28032, Note_on_c, 12, 73, 0
18, 28032, Note_on_c, 12, 71, 97
18, 28060, Control_c, 12, 11, 73
18, 28102, Control_c, 12, 11, 74
18, 28144, Control_c, 12, 11, 75
18, 28186, Control_c, 12, 11, 76
18, 28228, Control_c, 12, 11, 77
18, 28270, Control_c, 12, 11, 78
18, 28312, Control_c, 12, 11, 79
18, 28320, Note_on_c, 12, 71, 0
18, 28320, Note_on_c, 12, 73, 87
18, 28355, Control_c, 12, 11, 80
18, 28397, Control_c, 12, 11, 81
18, 28439, Control_c, 12, 11, 82
18, 28481, Control_c, 12, 11, 83
18, 28523, Control_c, 12, 11, 84
18, 28565, Control_c, 12, 11, 85
18, 28608, Note_on_c, 12, 73, 0
18, 28608, Control_c, 12, 11, 86
18, 28608, Note_on_c, 12, 71, 97
18, 28650, Control_c, 12, 11, 87
18, 28692, Control_c, 12, 11, 88
18, 28734, Control_c, 12, 11, 89
18, 28776, Control_c, 12, 11, 90
18, 28818, Control_c, 12, 11, 91
18, 28860, Control_c, 12, 11, 92
18, 28896, Note_on_c, 12, 71, 0
18, 28896, Note_on_c, 12, 73, 88
18, 28903, Control_c, 12, 11, 93
18, 28945, Control_c, 12, 11, 94
18, 28987, Control_c, 12, 11, 95
18, 29029, Control_c, 12, 11, 96
18, 29071, Control_c, 12, 11, 97
18, 29113, Control_c, 12, 11, 98
18, 29155, Control_c, 12, 11, 99
18, 29184, Note_on_c, 12, 73, 0
18, 29184, Note_on_c, 12, 78, 87
18, 29198, Control_c, 12, 11, 100
18, 29240, Control_c, 12, 11, 101
18, 29282, Control_c, 12, 11, 102
18, 29324, Control_c, 12, 11, 103
18, 29366, Control_c, 12, 11, 104
18, 29408, Control_c, 12, 11, 105
18, 29450, Control_c, 12, 11, 106
18, 29472, Note_on_c, 12, 78, 0
18, 29472, Note_on_c, 12, 80, 87
18, 29493, Control_c, 12, 11, 107
18, 29535, Control_c, 12, 11, 108
18, 29577, Control_c, 12, 11, 109
18, 29619, Control_c, 12, 11, 110
18, 29661, Control_c, 12, 11, 111
18, 29703, Control_c, 12, 11, 112
18, 29745, Control_c, 12, 11, 113
18, 29760, Note_on_c, 12, 80, 0
18, 29760, Note_on_c, 12, 78, 92
18, 29788, Control_c, 12, 11, 114
18, 29830, Control_c, 12, 11, 115
18, 29872, Control_c, 12, 11, 116
18, 29914, Control_c, 12, 11, 117
18, 29956, Control_c, 12, 11, 118
18, 29998, Control_c, 12, 11, 119
18, 30040, Control_c, 12, 11, 120
18, 30048, Note_on_c, 12, 78, 0
18, 30048, Note_on_c, 12, 80, 88
18, 30083, Control_c, 12, 11, 121
18, 30125, Control_c, 12, 11, 122
18, 30167, Control_c, 12, 11, 123
18, 30209, Control_c, 12, 11, 124
18, 30251, Control_c, 12, 11, 125
18, 30293, Control_c, 12, 11, 126
18, 30336, Note_on_c, 12, 80, 0
18, 30336, Control_c, 12, 11, 127
18, 30336, Program_c, 12, 48
18, 30336, Note_on_c, 12, 70, 89
18, 30382, Note_on_c, 12, 70, 0
18, 30384, Note_on_c, 12, 68, 90
18, 30430, Note_on_c, 12, 68, 0
18, 30432, Note_on_c, 12, 70, 83
18, 30478, Note_on_c, 12, 70, 0
18, 30480, Note_on_c, 12, 68, 81
18, 30526, Note_on_c, 12, 68, 0
18, 30528, Note_on_c, 12, 70, 83
18, 30574, Note_on_c, 12, 70, 0
18, 30576, Note_on_c, 12, 68, 71
18, 30622, Note_on_c, 12, 68, 0
18, 30624, Note_on_c, 12, 70, 77
18, 30670, Note_on_c, 12, 70, 0
18, 30672, Note_on_c, 12, 68, 70
18, 30718, Note_on_c, 12, 68, 0
18, 30720, Note_on_c, 12, 70, 61
18, 30766, Note_on_c, 12, 70, 0
18, 30768, Note_on_c, 12, 68, 55
18, 30814, Note_on_c, 12, 68, 0
18, 30816, Note_on_c, 12, 70, 52
18, 30862, Note_on_c, 12, 70, 0
18, 30864, Note_on_c, 12, 68, 48
18, 30910, Note_on_c, 12, 68, 0
18, 30912, Note_on_c, 12, 70, 43
18, 30958, Note_on_c, 12, 70, 0
18, 30960, Note_on_c, 12, 68, 43
18, 31006, Note_on_c, 12, 68, 0
18, 31008, Note_on_c, 12, 70, 47
18, 31054, Note_on_c, 12, 70, 0
18, 31056, Note_on_c, 12, 68, 42
18, 31102, Note_on_c, 12, 68, 0
18, 31104, Note_on_c, 12, 70, 46
18, 31150, Note_on_c, 12, 70, 0
18, 31152, Note_on_c, 12, 68, 50
18, 31198, Note_on_c, 12, 68, 0
18, 31200, Note_on_c, 12, 70, 49
18, 31246, Note_on_c, 12, 70, 0
18, 31248, Note_on_c, 12, 68, 47
18, 31294, Note_on_c, 12, 68, 0
18, 31296, Note_on_c, 12, 70, 47
18, 31342, Note_on_c, 12, 70, 0
18, 31344, Note_on_c, 12, 68, 49
18, 31390, Note_on_c, 12, 68, 0
18, 31392, Note_on_c, 12, 70, 50
18, 31438, Note_on_c, 12, 70, 0
18, 31440, Note_on_c, 12, 68, 47
18, 31486, Note_on_c, 12, 68, 0
18, 31488, Note_on_c, 12, 70, 40
18, 31534, Note_on_c, 12, 70, 0
18, 31536, Note_on_c, 12, 68, 43
18, 31582, Note_on_c, 12, 68, 0
18, 31584, Note_on_c, 12, 70, 50
18, 31630, Note_on_c, 12, 70, 0
18, 31632, Note_on_c, 12, 68, 43
18, 31678, Note_on_c, 12, 68, 0
18, 31680, Note_on_c, 12, 70, 41
18, 31726, Note_on_c, 12, 70, 0
18, 31728, Note_on_c, 12, 68, 40
18, 31774, Note_on_c, 12, 68, 0
18, 31776, Note_on_c, 12, 70, 45
18, 31822, Note_on_c, 12, 70, 0
18, 31824, Note_on_c, 12, 68, 40
18, 31870, Note_on_c, 12, 68, 0
18, 31872, Note_on_c, 12, 70, 41
18, 31918, Note_on_c, 12, 70, 0
18, 31920, Note_on_c, 12, 68, 45
18, 31966, Note_on_c, 12, 68, 0
18, 31968, Note_on_c, 12, 70, 40
18, 32014, Note_on_c, 12, 70, 0
18, 32016, Note_on_c, 12, 68, 46
18, 32062, Note_on_c, 12, 68, 0
18, 32064, Note_on_c, 12, 70, 41
18, 32110, Note_on_c, 12, 70, 0
18, 32112, Note_on_c, 12, 68, 43
18, 32158, Note_on_c, 12, 68, 0
18, 32160, Note_on_c, 12, 70, 40
18, 32206, Note_on_c, 12, 70, 0
18, 32208, Note_on_c, 12, 68, 48
18, 32254, Note_on_c, 12, 68, 0
18, 32256, Note_on_c, 12, 70, 42
18, 32302, Note_on_c, 12, 70, 0
18, 32304, Note_on_c, 12, 68, 45
18, 32350, Note_on_c, 12, 68, 0
18, 32352, Note_on_c, 12, 70, 47
18, 32398, Note_on_c, 12, 70, 0
18, 32400, Note_on_c, 12, 68, 39
18, 32446, Note_on_c, 12, 68, 0
18, 32448, Note_on_c, 12, 70, 38
18, 32494, Note_on_c, 12, 70, 0
18, 32496, Note_on_c, 12, 68, 41
18, 32542, Note_on_c, 12, 68, 0
18, 32544, Note_on_c, 12, 70, 31
18, 32590, Note_on_c, 12, 70, 0
18, 32592, Note_on_c, 12, 68, 31
18, 32638, Note_on_c, 12, 68, 0
18, 32640, Note_on_c, 12, 70, 29
18, 32686, Note_on_c, 12, 70, 0
18, 32688, Note_on_c, 12, 68, 26
18, 32734, Note_on_c, 12, 68, 0
18, 32736, Note_on_c, 12, 70, 31
18, 32782, Note_on_c, 12, 70, 0
18, 32784, Note_on_c, 12, 68, 25
18, 32830, Note_on_c, 12, 68, 0
18, 32832, Note_on_c, 12, 70, 28
18, 32878, Note_on_c, 12, 70, 0
18, 32880, Note_on_c, 12, 68, 31
18, 32926, Note_on_c, 12, 68, 0
18, 32928, Note_on_c, 12, 70, 29
18, 32974, Note_on_c, 12, 70, 0
18, 32976, Note_on_c, 12, 68, 26
18, 33022, Note_on_c, 12, 68, 0
18, 33024, Note_on_c, 12, 70, 30
18, 33070, Note_on_c, 12, 70, 0
18, 33072, Note_on_c, 12, 68, 30
18, 33118, Note_on_c, 12, 68, 0
18, 33120, Note_on_c, 12, 70, 30
18, 33166, Note_on_c, 12, 70, 0
18, 33168, Note_on_c, 12, 68, 27
18, 33214, Note_on_c, 12, 68, 0
18, 33216, Note_on_c, 12, 70, 32
18, 33262, Note_on_c, 12, 70, 0
18, 33264, Note_on_c, 12, 68, 31
18, 33310, Note_on_c, 12, 68, 0
18, 33312, Note_on_c, 12, 70, 26
18, 33358, Note_on_c, 12, 70, 0
18, 33360, Note_on_c, 12, 68, 25
18, 33406, Note_on_c, 12, 68, 0
18, 33408, Note_on_c, 12, 70, 33
18, 33454, Note_on_c, 12, 70, 0
18, 33456, Note_on_c, 12, 68, 28
18, 33502, Note_on_c, 12, 68, 0
18, 33504, Note_on_c, 12, 70, 35
18, 33550, Note_on_c, 12, 70, 0
18, 33552, Note_on_c, 12, 68, 34
18, 33598, Note_on_c, 12, 68, 0
18, 33600, Note_on_c, 12, 70, 31
18, 33646, Note_on_c, 12, 70, 0
18, 33648, Note_on_c, 12, 68, 28
18, 33694, Note_on_c, 12, 68, 0
18, 33696, Note_on_c, 12, 70, 26
18, 33742, Note_on_c, 12, 70, 0
18, 33744, Note_on_c, 12, 68, 28
18, 33790, Note_on_c, 12, 68, 0
18, 33792, Note_on_c, 12, 70, 29
18, 33838, Note_on_c, 12, 70, 0
18, 33840, Note_on_c, 12, 68, 29
18, 33886, Note_on_c, 12, 68, 0
18, 33888, Note_on_c, 12, 70, 28
18, 33934, Note_on_c, 12, 70, 0
18, 33936, Note_on_c, 12, 68, 30
18, 33982, Note_on_c, 12, 68, 0
18, 33984, Note_on_c, 12, 70, 33
18, 34030, Note_on_c, 12, 70, 0
18, 34032, Note_on_c, 12, 68, 29
18, 34078, Note_on_c, 12, 68, 0
18, 34080, Note_on_c, 12, 70, 25
18, 34126, Note_on_c, 12, 70, 0
18, 34128, Note_on_c, 12, 68, 26
18, 34174, Note_on_c, 12, 68, 0
18, 34176, Note_on_c, 12, 70, 34
18, 34222, Note_on_c, 12, 70, 0
18, 34224, Note_on_c, 12, 68, 35
18, 34270, Note_on_c, 12, 68, 0
18, 34272, Note_on_c, 12, 70, 31
18, 34318, Note_on_c, 12, 70, 0
18, 34320, Note_on_c, 12, 68, 30
18, 34366, Note_on_c, 12, 68, 0
18, 34368, Note_on_c, 12, 70, 26
18, 34414, Note_on_c, 12, 70, 0
18, 34416, Note_on_c, 12, 68, 25
18, 34462, Note_on_c, 12, 68, 0
18, 34464, Note_on_c, 12, 70, 28
18, 34510, Note_on_c, 12, 70, 0
18, 34512, Note_on_c, 12, 68, 35
18, 34558, Note_on_c, 12, 68, 0
18, 34560, Note_on_c, 12, 70, 34
18, 34606, Note_on_c, 12, 70, 0
18, 34608, Note_on_c, 12, 68, 26
18, 34654, Note_on_c, 12, 68, 0
18, 34656, Note_on_c, 12, 70, 25
18, 34702, Note_on_c, 12, 70, 0
18, 34704, Note_on_c, 12, 68, 31
18, 34750, Note_on_c, 12, 68, 0
18, 34752, Note_on_c, 12, 70, 27
18, 34798, Note_on_c, 12, 70, 0
18, 34800, Note_on_c, 12, 68, 25
18, 34846, Note_on_c, 12, 68, 0
18, 34848, Note_on_c, 12, 70, 30
18, 34894, Note_on_c, 12, 70, 0
18, 34896, Note_on_c, 12, 68, 26
18, 34942, Note_on_c, 12, 68, 0
18, 34944, Note_on_c, 12, 70, 26
18, 34990, Note_on_c, 12, 70, 0
18, 34992, Note_on_c, 12, 68, 25
18, 35038, Note_on_c, 12, 68, 0
18, 35040, Note_on_c, 12, 70, 28
18, 35086, Note_on_c, 12, 70, 0
18, 35088, Note_on_c, 12, 68, 31
18, 35134, Note_on_c, 12, 68, 0
18, 35136, Note_on_c, 12, 70, 34
18, 35182, Note_on_c, 12, 70, 0
18, 35184, Note_on_c, 12, 68, 29
18, 35230, Note_on_c, 12, 68, 0
18, 35232, Note_on_c, 12, 70, 33
18, 35278, Note_on_c, 12, 70, 0
18, 35280, Note_on_c, 12, 68, 33
18, 35326, Note_on_c, 12, 68, 0
18, 35328, Note_on_c, 12, 70, 27
18, 35374, Note_on_c, 12, 70, 0
18, 35376, Note_on_c, 12, 68, 30
18, 35422, Note_on_c, 12, 68, 0
18, 35424, Note_on_c, 12, 70, 34
18, 35470, Note_on_c, 12, 70, 0
18, 35472, Note_on_c, 12, 68, 25
18, 35518, Note_on_c, 12, 68, 0
18, 35520, Note_on_c, 12, 70, 30
18, 35566, Note_on_c, 12, 70, 0
18, 35568, Note_on_c, 12, 68, 31
18, 35614, Note_on_c, 12, 68, 0
18, 35616, Note_on_c, 12, 70, 35
18, 35662, Note_on_c, 12, 70, 0
18, 35664, Note_on_c, 12, 68, 27
18, 35710, Note_on_c, 12, 68, 0
18, 35712, Note_on_c, 12, 70, 30
18, 35758, Note_on_c, 12, 70, 0
18, 35760, Note_on_c, 12, 68, 28
18, 35806, Note_on_c, 12, 68, 0
18, 35808, Note_on_c, 12, 70, 35
18, 35854, Note_on_c, 12, 70, 0
18, 35856, Note_on_c, 12, 68, 35
18, 35902, Note_on_c, 12, 68, 0
18, 35904, Note_on_c, 12, 70, 26
18, 35950, Note_on_c, 12, 70, 0
18, 35952, Note_on_c, 12, 68, 34
18, 35998, Note_on_c, 12, 68, 0
18, 36000, Note_on_c, 12, 70, 35
18, 36046, Note_on_c, 12, 70, 0
18, 36048, Note_on_c, 12, 68, 26
18, 36094, Note_on_c, 12, 68, 0
18, 36096, Note_on_c, 12, 70, 34
18, 36142, Note_on_c, 12, 70, 0
18, 36144, Note_on_c, 12, 68, 25
18, 36190, Note_on_c, 12, 68, 0
18, 36192, Note_on_c, 12, 70, 32
18, 36238, Note_on_c, 12, 70, 0
18, 36240, Note_on_c, 12, 68, 37
18, 36286, Note_on_c, 12, 68, 0
18, 36288, Note_on_c, 12, 70, 39
18, 36334, Note_on_c, 12, 70, 0
18, 36336, Note_on_c, 12, 68, 45
18, 36382, Note_on_c, 12, 68, 0
18, 36384, Note_on_c, 12, 70, 50
18, 36430, Note_on_c, 12, 70, 0
18, 36432, Note_on_c, 12, 68, 53
18, 36478, Note_on_c, 12, 68, 0
18, 36480, Note_on_c, 12, 70, 62
18, 36526, Note_on_c, 12, 70, 0
18, 36528, Note_on_c, 12, 68, 57
18, 36574, Note_on_c, 12, 68, 0
18, 36576, Note_on_c, 12, 70, 68
18, 36622, Note_on_c, 12, 70, 0
18, 36624, Note_on_c, 12, 68, 75
18, 36670, Note_on_c, 12, 68, 0
18, 36672, Note_on_c, 12, 70, 72
18, 36718, Note_on_c, 12, 70, 0
18, 36720, Note_on_c, 12, 68, 79
18, 36766, Note_on_c, 12, 68, 0
18, 36768, Note_on_c, 12, 70, 75
18, 36814, Note_on_c, 12, 70, 0
18, 36816, Note_on_c, 12, 68, 68
18, 36862, Note_on_c, 12, 68, 0
18, 36864, Note_on_c, 12, 70, 61
18, 36910, Note_on_c, 12, 70, 0
18, 36912, Note_on_c, 12, 68, 63
18, 36958, Note_on_c, 12, 68, 0
18, 36960, Note_on_c, 12, 70, 56
18, 37006, Note_on_c, 12, 70, 0
18, 37008, Note_on_c, 12, 68, 54
18, 37054, Note_on_c, 12, 68, 0
18, 37056, Note_on_c, 12, 70, 46
18, 37102, Note_on_c, 12, 70, 0
18, 37104, Note_on_c, 12, 68, 43
18, 37150, Note_on_c, 12, 68, 0
18, 37152, Note_on_c, 12, 70, 43
18, 37198, Note_on_c, 12, 70, 0
18, 37200, Note_on_c, 12, 68, 38
18, 37246, Note_on_c, 12, 68, 0
18, 37248, Note_on_c, 12, 70, 28
18, 37278, Note_on_c, 12, 70, 0
18, 37280, Note_on_c, 12, 65, 32
18, 37310, Note_on_c, 12, 65, 0
18, 37312, Note_on_c, 12, 70, 26
18, 37374, Note_on_c, 12, 70, 0
18, 37376, Note_on_c, 12, 65, 31
18, 37406, Note_on_c, 12, 65, 0
18, 37408, Note_on_c, 12, 70, 28
18, 37438, Note_on_c, 12, 70, 0
18, 37440, Note_on_c, 12, 68, 35
18, 37470, Note_on_c, 12, 68, 0
18, 37472, Note_on_c, 12, 63, 33
18, 37502, Note_on_c, 12, 63, 0
18, 37504, Note_on_c, 12, 68, 31
18, 37566, Note_on_c, 12, 68, 0
18, 37568, Note_on_c, 12, 63, 35
18, 37598, Note_on_c, 12, 63, 0
18, 37600, Note_on_c, 12, 68, 31
18, 37630, Note_on_c, 12, 68, 0
18, 37632, Note_on_c, 12, 71, 26
18, 37662, Note_on_c, 12, 71, 0
18, 37664, Note_on_c, 12, 66, 36
18, 37694, Note_on_c, 12, 66, 0
18, 37696, Note_on_c, 12, 71, 38
18, 37726, Note_on_c, 12, 71, 0
18, 37728, Note_on_c, 12, 73, 53
18, 37758, Note_on_c, 12, 73, 0
18, 37760, Note_on_c, 12, 68, 56
18, 37790, Note_on_c, 12, 68, 0
18, 37792, Note_on_c, 12, 73, 65
18, 37822, Note_on_c, 12, 73, 0
18, 37824, Note_on_c, 12, 70, 29
18, 37854, Note_on_c, 12, 70, 0
18, 37856, Note_on_c, 12, 65, 32
18, 37886, Note_on_c, 12, 65, 0
18, 37888, Note_on_c, 12, 70, 28
18, 37950, Note_on_c, 12, 70, 0
18, 37952, Note_on_c, 12, 65, 35
18, 37982, Note_on_c, 12, 65, 0
18, 37984, Note_on_c, 12, 70, 26
18, 38014, Note_on_c, 12, 70, 0
18, 38016, Note_on_c, 12, 67, 34
18, 38046, Note_on_c, 12, 67, 0
18, 38048, Note_on_c, 12, 70, 41
18, 38078, Note_on_c, 12, 70, 0
18, 38080, Note_on_c, 12, 67, 64
18, 38110, Note_on_c, 12, 67, 0
18, 38112, Note_on_c, 12, 70, 25
18, 38142, Note_on_c, 12, 70, 0
18, 38144, Note_on_c, 12, 65, 25
18, 38174, Note_on_c, 12, 65, 0
18, 38176, Note_on_c, 12, 70, 29
18, 38238, Note_on_c, 12, 70, 0
18, 38240, Note_on_c, 12, 65, 35
18, 38270, Note_on_c, 12, 65, 0
18, 38272, Note_on_c, 12, 70, 30
18, 38302, Note_on_c, 12, 70, 0
18, 38304, Note_on_c, 12, 67, 28
18, 38334, Note_on_c, 12, 67, 0
18, 38336, Note_on_c, 12, 70, 30
18, 38366, Note_on_c, 12, 70, 0
18, 38368, Note_on_c, 12, 67, 42
18, 38398, Note_on_c, 12, 67, 0
18, 38400, Note_on_c, 12, 70, 40
18, 38430, Note_on_c, 12, 70, 0
18, 38432, Note_on_c, 12, 65, 49
18, 38462, Note_on_c, 12, 65, 0
18, 38464, Note_on_c, 12, 70, 43
18, 38526, Note_on_c, 12, 70, 0
18, 38528, Note_on_c, 12, 65, 48
18, 38558, Note_on_c, 12, 65, 0
18, 38560, Note_on_c, 12, 70, 47
18, 38590, Note_on_c, 12, 70, 0
18, 38592, Note_on_c, 12, 68, 40
18, 38622, Note_on_c, 12, 68, 0
18, 38624, Note_on_c, 12, 63, 50
18, 38654, Note_on_c, 12, 63, 0
18, 38656, Note_on_c, 12, 68, 48
18, 38718, Note_on_c, 12, 68, 0
18, 38720, Note_on_c, 12, 63, 44
18, 38750, Note_on_c, 12, 63, 0
18, 38752, Note_on_c, 12, 68, 50
18, 38782, Note_on_c, 12, 68, 0
18, 38784, Note_on_c, 12, 71, 49
18, 38814, Note_on_c, 12, 71, 0
18, 38816, Note_on_c, 12, 65, 51
18, 38846, Note_on_c, 12, 65, 0
18, 38848, Note_on_c, 12, 71, 56
18, 38878, Note_on_c, 12, 71, 0
18, 38880, Note_on_c, 12, 73, 60
18, 38910, Note_on_c, 12, 73, 0
18, 38912, Note_on_c, 12, 68, 53
18, 38942, Note_on_c, 12, 68, 0
18, 38944, Note_on_c, 12, 73, 63
18, 38974, Note_on_c, 12, 73, 0
18, 38976, Note_on_c, 12, 69, 42
18, 39006, Note_on_c, 12, 69, 0
18, 39008, Note_on_c, 12, 71, 47
18, 39038, Note_on_c, 12, 71, 0
18, 39040, Note_on_c, 12, 69, 45
18, 39070, Note_on_c, 12, 69, 0
18, 39072, Note_on_c, 12, 71, 49
18, 39102, Note_on_c, 12, 71, 0
18, 39104, Note_on_c, 12, 73, 50
18, 39134, Note_on_c, 12, 73, 0
18, 39136, Note_on_c, 12, 71, 57
18, 39166, Note_on_c, 12, 71, 0
18, 39168, Note_on_c, 12, 73, 58
18, 39198, Note_on_c, 12, 73, 0
18, 39200, Note_on_c, 12, 75, 58
18, 39230, Note_on_c, 12, 75, 0
18, 39232, Note_on_c, 12, 78, 60
18, 39262, Note_on_c, 12, 78, 0
18, 39264, Note_on_c, 12, 69, 44
18, 39294, Note_on_c, 12, 69, 0
18, 39296, Note_on_c, 12, 71, 48
18, 39326, Note_on_c, 12, 71, 0
18, 39328, Note_on_c, 12, 69, 51
18, 39358, Note_on_c, 12, 69, 0
18, 39360, Note_on_c, 12, 71, 49
18, 39390, Note_on_c, 12, 71, 0
18, 39392, Note_on_c, 12, 73, 47
18, 39422, Note_on_c, 12, 73, 0
18, 39424, Note_on_c, 12, 71, 58
18, 39454, Note_on_c, 12, 71, 0
18, 39456, Note_on_c, 12, 73, 56
18, 39486, Note_on_c, 12, 73, 0
18, 39488, Note_on_c, 12, 75, 61
18, 39518, Note_on_c, 12, 75, 0
18, 39520, Note_on_c, 12, 78, 58
18, 39550, Note_on_c, 12, 78, 0
18, 39552, Note_on_c, 12, 76, 26
18, 39552, Note_on_c, 12, 80, 25
18, 39584, Note_on_c, 12, 76, 0
18, 39584, Note_on_c, 12, 80, 0
18, 39648, Note_on_c, 12, 76, 35
18, 39648, Note_on_c, 12, 80, 35
18, 39680, Note_on_c, 12, 76, 0
18, 39680, Note_on_c, 12, 80, 0
18, 39744, Note_on_c, 12, 76, 27
18, 39744, Note_on_c, 12, 80, 34
18, 39776, Note_on_c, 12, 76, 0
18, 39776, Note_on_c, 12, 80, 0
18, 39840, Note_on_c, 12, 76, 27
18, 39840, Note_on_c, 12, 80, 31
18, 39872, Note_on_c, 12, 76, 0
18, 39872, Note_on_c, 12, 80, 0
18, 39936, Note_on_c, 12, 76, 25
18, 39936, Note_on_c, 12, 80, 29
18, 39968, Note_on_c, 12, 76, 0
18, 39968, Note_on_c, 12, 80, 0
18, 40032, Note_on_c, 12, 76, 27
18, 40032, Note_on_c, 12, 80, 27
18, 40064, Note_on_c, 12, 76, 0
18, 40064, Note_on_c, 12, 80, 0
18, 40128, Note_on_c, 12, 76, 27
18, 40128, Note_on_c, 12, 80, 25
18, 40160, Note_on_c, 12, 76, 0
18, 40160, Note_on_c, 12, 80, 0
18, 40224, Note_on_c, 12, 76, 31
18, 40224, Note_on_c, 12, 80, 33
18, 40256, Note_on_c, 12, 76, 0
18, 40256, Note_on_c, 12, 80, 0
18, 40320, Note_on_c, 12, 76, 35
18, 40320, Note_on_c, 12, 80, 33
18, 40352, Note_on_c, 12, 76, 0
18, 40352, Note_on_c, 12, 80, 0
18, 40416, Note_on_c, 12, 76, 26
18, 40416, Note_on_c, 12, 80, 35
18, 40448, Note_on_c, 12, 76, 0
18, 40448, Note_on_c, 12, 80, 0
18, 40512, Note_on_c, 12, 76, 32
18, 40512, Note_on_c, 12, 80, 27
18, 40544, Note_on_c, 12, 76, 0
18, 40544, Note_on_c, 12, 80, 0
18, 40608, Note_on_c, 12, 76, 34
18, 40608, Note_on_c, 12, 80, 28
18, 40640, Note_on_c, 12, 76, 0
18, 40640, Note_on_c, 12, 80, 0
18, 40704, Note_on_c, 12, 76, 31
18, 40704, Note_on_c, 12, 80, 27
18, 40736, Note_on_c, 12, 76, 0
18, 40736, Note_on_c, 12, 80, 0
18, 40800, Note_on_c, 12, 76, 27
18, 40800, Note_on_c, 12, 80, 25
18, 40832, Note_on_c, 12, 76, 0
18, 40832, Note_on_c, 12, 80, 0
18, 40896, Note_on_c, 12, 76, 34
18, 40896, Note_on_c, 12, 80, 25
18, 40928, Note_on_c, 12, 76, 0
18, 40928, Note_on_c, 12, 80, 0
18, 40992, Note_on_c, 12, 76, 26
18, 40992, Note_on_c, 12, 80, 32
18, 41024, Note_on_c, 12, 76, 0
18, 41024, Note_on_c, 12, 80, 0
18, 41088, Note_on_c, 12, 76, 25
18, 41088, Note_on_c, 12, 80, 27
18, 41120, Note_on_c, 12, 76, 0
18, 41120, Note_on_c, 12, 80, 0
18, 41184, Note_on_c, 12, 74, 32
18, 41184, Note_on_c, 12, 80, 28
18, 41216, Note_on_c, 12, 74, 0
18, 41216, Note_on_c, 12, 80, 0
18, 41280, Note_on_c, 12, 77, 25
18, 41280, Note_on_c, 12, 83, 34
18, 41312, Note_on_c, 12, 77, 0
18, 41312, Note_on_c, 12, 83, 0
18, 41376, Note_on_c, 12, 77, 33
18, 41376, Note_on_c, 12, 83, 29
18, 41408, Note_on_c, 12, 77, 0
18, 41408, Note_on_c, 12, 83, 0
18, 41472, Note_on_c, 12, 77, 32
18, 41472, Note_on_c, 12, 83, 32
18, 41504, Note_on_c, 12, 77, 0
18, 41504, Note_on_c, 12, 83, 0
18, 41568, Note_on_c, 12, 77, 34
18, 41568, Note_on_c, 12, 83, 31
18, 41600, Note_on_c, 12, 77, 0
18, 41600, Note_on_c, 12, 83, 0
18, 41664, Note_on_c, 12, 77, 41
18, 41664, Note_on_c, 12, 83, 37
18, 41696, Note_on_c, 12, 77, 0
18, 41696, Note_on_c, 12, 83, 0
18, 41760, Note_on_c, 12, 78, 43
18, 41760, Note_on_c, 12, 83, 45
18, 41792, Note_on_c, 12, 78, 0
18, 41792, Note_on_c, 12, 83, 0
18, 41856, Note_on_c, 12, 79, 45
18, 41856, Note_on_c, 12, 83, 41
18, 41950, Note_on_c, 12, 79, 0
18, 41950, Note_on_c, 12, 83, 0
18, 42432, Control_c, 12, 11, 127
18, 43008, Program_c, 12, 44
18, 43008, Note_on_c, 12, 83, 25
18, 43054, Note_on_c, 12, 83, 0
18, 43056, Note_on_c, 12, 80, 29
18, 43102, Note_on_c, 12, 80, 0
18, 43104, Note_on_c, 12, 75, 35
18, 43150, Note_on_c, 12, 75, 0
18, 43152, Note_on_c, 12, 73, 35
18, 43198, Note_on_c, 12, 73, 0
18, 43200, Note_on_c, 12, 71, 35
18, 43246, Note_on_c, 12, 71, 0
18, 43248, Note_on_c, 12, 73, 34
18, 43294, Note_on_c, 12, 73, 0
18, 43296, Note_on_c, 12, 83, 32
18, 43342, Note_on_c, 12, 83, 0
18, 43344, Note_on_c, 12, 80, 34
18, 43390, Note_on_c, 12, 80, 0
18, 43392, Note_on_c, 12, 75, 32
18, 43438, Note_on_c, 12, 75, 0
18, 43440, Note_on_c, 12, 73, 26
18, 43486, Note_on_c, 12, 73, 0
18, 43488, Note_on_c, 12, 71, 30
18, 43534, Note_on_c, 12, 71, 0
18, 43536, Note_on_c, 12, 73, 35
18, 43582, Note_on_c, 12, 73, 0
18, 43584, Note_on_c, 12, 83, 30
18, 43630, Note_on_c, 12, 83, 0
18, 43632, Note_on_c, 12, 80, 29
18, 43678, Note_on_c, 12, 80, 0
18, 43680, Note_on_c, 12, 75, 35
18, 43726, Note_on_c, 12, 75, 0
18, 43728, Note_on_c, 12, 73, 29
18, 43774, Note_on_c, 12, 73, 0
18, 43776, Note_on_c, 12, 71, 30
18, 43822, Note_on_c, 12, 71, 0
18, 43824, Note_on_c, 12, 73, 25
18, 43870, Note_on_c, 12, 73, 0
18, 43872, Note_on_c, 12, 83, 27
18, 43918, Note_on_c, 12, 83, 0
18, 43920, Note_on_c, 12, 80, 27
18, 43966, Note_on_c, 12, 80, 0
18, 43968, Note_on_c, 12, 75, 27
18, 44014, Note_on_c, 12, 75, 0
18, 44016, Note_on_c, 12, 73, 34
18, 44062, Note_on_c, 12, 73, 0
18, 44064, Note_on_c, 12, 71, 26
18, 44110, Note_on_c, 12, 71, 0
18, 44112, Note_on_c, 12, 73, 26
18, 44158, Note_on_c, 12, 73, 0
18, 44160, Note_on_c, 12, 83, 33
18, 44206, Note_on_c, 12, 83, 0
18, 44208, Note_on_c, 12, 80, 30
18, 44254, Note_on_c, 12, 80, 0
18, 44256, Note_on_c, 12, 75, 34
18, 44302, Note_on_c, 12, 75, 0
18, 44304, Note_on_c, 12, 73, 29
18, 44350, Note_on_c, 12, 73, 0
18, 44352, Note_on_c, 12, 71, 35
18, 44398, Note_on_c, 12, 71, 0
18, 44400, Note_on_c, 12, 73, 31
18, 44446, Note_on_c, 12, 73, 0
18, 44448, Note_on_c, 12, 83, 33
18, 44494, Note_on_c, 12, 83, 0
18, 44496, Note_on_c, 12, 80, 29
18, 44542, Note_on_c, 12, 80, 0
18, 44544, Note_on_c, 12, 75, 34
18, 44590, Note_on_c, 12, 75, 0
18, 44592, Note_on_c, 12, 73, 28
18, 44638, Note_on_c, 12, 73, 0
18, 44640, Note_on_c, 12, 71, 25
18, 44686, Note_on_c, 12, 71, 0
18, 44688, Note_on_c, 12, 73, 34
18, 44734, Note_on_c, 12, 73, 0
18, 44736, Note_on_c, 12, 83, 32
18, 44782, Note_on_c, 12, 83, 0
18, 44784, Note_on_c, 12, 80, 30
18, 44830, Note_on_c, 12, 80, 0
18, 44832, Note_on_c, 12, 75, 25
18, 44878, Note_on_c, 12, 75, 0
18, 44880, Note_on_c, 12, 73, 33
18, 44926, Note_on_c, 12, 73, 0
18, 44928, Note_on_c, 12, 71, 33
18, 44974, Note_on_c, 12, 71, 0
18, 44976, Note_on_c, 12, 73, 29
18, 45022, Note_on_c, 12, 73, 0
18, 45024, Note_on_c, 12, 83, 29
18, 45070, Note_on_c, 12, 83, 0
18, 45072, Note_on_c, 12, 80, 26
18, 45118, Note_on_c, 12, 80, 0
18, 45120, Note_on_c, 12, 75, 27
18, 45166, Note_on_c, 12, 75, 0
18, 45168, Note_on_c, 12, 73, 25
18, 45214, Note_on_c, 12, 73, 0
18, 45216, Note_on_c, 12, 71, 26
18, 45262, Note_on_c, 12, 71, 0
18, 45264, Note_on_c, 12, 73, 32
18, 45310, Note_on_c, 12, 73, 0
18, 45312, Note_on_c, 12, 71, 29
18, 45358, Note_on_c, 12, 71, 0
18, 45360, Note_on_c, 12, 68, 29
18, 45406, Note_on_c, 12, 68, 0
18, 45408, Note_on_c, 12, 63, 30
18, 45454, Note_on_c, 12, 63, 0
18, 45456, Note_on_c, 12, 61, 30
18, 45502, Note_on_c, 12, 61, 0
18, 45504, Note_on_c, 12, 59, 34
18, 45550, Note_on_c, 12, 59, 0
18, 45552, Note_on_c, 12, 61, 27
18, 45598, Note_on_c, 12, 61, 0
18, 45600, Note_on_c, 12, 71, 26
18, 45646, Note_on_c, 12, 71, 0
18, 45648, Note_on_c, 12, 68, 25
18, 45694, Note_on_c, 12, 68, 0
18, 45696, Note_on_c, 12, 63, 25
18, 45742, Note_on_c, 12, 63, 0
18, 45744, Note_on_c, 12, 61, 29
18, 45790, Note_on_c, 12, 61, 0
18, 45792, Note_on_c, 12, 59, 33
18, 45838, Note_on_c, 12, 59, 0
18, 45840, Note_on_c, 12, 61, 35
18, 45886, Note_on_c, 12, 61, 0
18, 45888, Note_on_c, 12, 71, 31
18, 45934, Note_on_c, 12, 71, 0
18, 45936, Note_on_c, 12, 67, 33
18, 45982, Note_on_c, 12, 67, 0
18, 45984, Note_on_c, 12, 63, 34
18, 46030, Note_on_c, 12, 63, 0
18, 46032, Note_on_c, 12, 61, 25
18, 46078, Note_on_c, 12, 61, 0
18, 46080, Note_on_c, 12, 59, 29
18, 46126, Note_on_c, 12, 59, 0
18, 46128, Note_on_c, 12, 61, 31
18, 46174, Note_on_c, 12, 61, 0
18, 46176, Note_on_c, 12, 71, 20
18, 46222, Note_on_c, 12, 71, 0
18, 46224, Note_on_c, 12, 67, 26
18, 46270, Note_on_c, 12, 67, 0
18, 46272, Note_on_c, 12, 63, 22
18, 46318, Note_on_c, 12, 63, 0
18, 46320, Note_on_c, 12, 61, 20
18, 46366, Note_on_c, 12, 61, 0
18, 46368, Note_on_c, 12, 59, 23
18, 46414, Note_on_c, 12, 59, 0
18, 46416, Note_on_c, 12, 61, 17
18, 46462, Note_on_c, 12, 61, 0
18, 46464, Program_c, 12, 48
18, 46464, Note_on_c, 12, 63, 27
18, 46992, Note_on_c, 12, 63, 0
18, 47040, Program_c, 12, 45
18, 47040, Note_on_c, 12, 61, 34
18, 47200, Note_on_c, 12, 61, 0
18, 47616, Program_c, 12, 48
18, 47616, Note_on_c, 12, 63, 29
18, 48144, Note_on_c, 12, 63, 0
18, 48768, Control_c, 12, 11, 127
18, 49344, Program_c, 12, 45
18, 49344, Note_on_c, 12, 77, 26
18, 49438, Note_on_c, 12, 77, 0
18, 49440, Note_on_c, 12, 77, 30
18, 49534, Note_on_c, 12, 77, 0
18, 49536, Note_on_c, 12, 77, 35
18, 49630, Note_on_c, 12, 77, 0
18, 49632, Note_on_c, 12, 78, 35
18, 49726, Note_on_c, 12, 78, 0
18, 49728, Note_on_c, 12, 78, 31
18, 49822, Note_on_c, 12, 78, 0
18, 49824, Note_on_c, 12, 78, 33
18, 49918, Note_on_c, 12, 78, 0
18, 49920, Note_on_c, 12, 77, 27
18, 50014, Note_on_c, 12, 77, 0
18, 50016, Note_on_c, 12, 76, 34
18, 50110, Note_on_c, 12, 76, 0
18, 50112, Note_on_c, 12, 77, 31
18, 50206, Note_on_c, 12, 77, 0
18, 50208, Note_on_c, 12, 78, 35
18, 50302, Note_on_c, 12, 78, 0
18, 50304, Note_on_c, 12, 77, 29
18, 50398, Note_on_c, 12, 77, 0
18, 50400, Note_on_c, 12, 76, 28
18, 50494, Note_on_c, 12, 76, 0
18, 50496, Note_on_c, 12, 77, 29
18, 50590, Note_on_c, 12, 77, 0
18, 50592, Note_on_c, 12, 77, 35
18, 50686, Note_on_c, 12, 77, 0
18, 50688, Note_on_c, 12, 77, 47
18, 50782, Note_on_c, 12, 77, 0
18, 50784, Note_on_c, 12, 75, 52
18, 50878, Note_on_c, 12, 75, 0
18, 50880, Note_on_c, 12, 73, 51
18, 50974, Note_on_c, 12, 73, 0
18, 50976, Note_on_c, 12, 71, 56
18, 51070, Note_on_c, 12, 71, 0
18, 51072, Note_on_c, 12, 70, 57
18, 51166, Note_on_c, 12, 70, 0
18, 51360, Control_c, 12, 11, 127
18, 51936, Program_c, 12, 48
18, 51936, Note_on_c, 12, 80, 49
18, 51958, Note_on_c, 12, 80, 0
18, 51960, Note_on_c, 12, 73, 47
18, 51982, Note_on_c, 12, 73, 0
18, 51984, Note_on_c, 12, 78, 44
18, 52006, Note_on_c, 12, 78, 0
18, 52008, Note_on_c, 12, 75, 45
18, 52030, Note_on_c, 12, 75, 0
18, 52032, Note_on_c, 12, 80, 50
18, 52054, Note_on_c, 12, 80, 0
18, 52056, Note_on_c, 12, 73, 54
18, 52078, Note_on_c, 12, 73, 0
18, 52080, Note_on_c, 12, 78, 53
18, 52102, Note_on_c, 12, 78, 0
18, 52104, Note_on_c, 12, 75, 53
18, 52126, Note_on_c, 12, 75, 0
18, 52128, Note_on_c, 12, 80, 47
18, 52150, Note_on_c, 12, 80, 0
18, 52152, Note_on_c, 12, 73, 56
18, 52174, Note_on_c, 12, 73, 0
18, 52176, Note_on_c, 12, 78, 53
18, 52198, Note_on_c, 12, 78, 0
18, 52200, Note_on_c, 12, 75, 56
18, 52222, Note_on_c, 12, 75, 0
18, 52224, Note_on_c, 12, 80, 53
18, 52246, Note_on_c, 12, 80, 0
18, 52248, Note_on_c, 12, 73, 54
18, 52270, Note_on_c, 12, 73, 0
18, 52272, Note_on_c, 12, 78, 56
18, 52294, Note_on_c, 12, 78, 0
18, 52296, Note_on_c, 12, 75, 63
18, 52318, Note_on_c, 12, 75, 0
18, 52320, Note_on_c, 12, 80, 64
18, 52342, Note_on_c, 12, 80, 0
18, 52344, Note_on_c, 12, 73, 64
18, 52366, Note_on_c, 12, 73, 0
18, 52368, Note_on_c, 12, 78, 61
18, 52390, Note_on_c, 12, 78, 0
18, 52392, Note_on_c, 12, 75, 62
18, 52414, Note_on_c, 12, 75, 0
18, 52416, Note_on_c, 12, 80, 62
18, 52438, Note_on_c, 12, 80, 0
18, 52440, Note_on_c, 12, 73, 69
18, 52462, Note_on_c, 12, 73, 0
18, 52464, Note_on_c, 12, 78, 75
18, 52486, Note_on_c, 12, 78, 0
18, 52488, Note_on_c, 12, 75, 70
18, 52510, Note_on_c, 12, 75, 0
18, 52512, Note_on_c, 12, 73, 76
18, 52512, Note_on_c, 12, 80, 77
18, 52534, Note_on_c, 12, 73, 0
18, 52534, Note_on_c, 12, 80, 0
18, 52536, Note_on_c, 12, 75, 70
18, 52536, Note_on_c, 12, 78, 70
18, 52558, Note_on_c, 12, 75, 0
18, 52558, Note_on_c, 12, 78, 0
18, 52560, Note_on_c, 12, 73, 66
18, 52560, Note_on_c, 12, 80, 70
18, 52582, Note_on_c, 12, 73, 0
18, 52582, Note_on_c, 12, 80, 0
18, 52584, Note_on_c, 12, 75, 67
18, 52584, Note_on_c, 12, 78, 61
18, 52606, Note_on_c, 12, 75, 0
18, 52606, Note_on_c, 12, 78, 0
18, 52608, Note_on_c, 12, 61, 62
18, 52608, Note_on_c, 12, 68, 54
18, 52630, Note_on_c, 12, 61, 0
18, 52630, Note_on_c, 12, 68, 0
18, 52632, Note_on_c, 12, 63, 50
18, 52632, Note_on_c, 12, 66, 51
18, 52654, Note_on_c, 12, 63, 0
18, 52654, Note_on_c, 12, 66, 0
18, 52656, Note_on_c, 12, 61, 41
18, 52656, Note_on_c, 12, 68, 45
18, 52678, Note_on_c, 12, 61, 0
18, 52678, Note_on_c, 12, 68, 0
18, 52680, Note_on_c, 12, 63, 42
18, 52680, Note_on_c, 12, 66, 37
18, 52702, Note_on_c, 12, 63, 0
18, 52702, Note_on_c, 12, 66, 0
18, 52704, Note_on_c, 12, 61, 35
18, 52704, Note_on_c, 12, 68, 27
18, 52726, Note_on_c, 12, 61, 0
18, 52726, Note_on_c, 12, 68, 0
18, 52728, Note_on_c, 12, 63, 34
18, 52728, Note_on_c, 12, 66, 29
18, 52750, Note_on_c, 12, 63, 0
18, 52750, Note_on_c, 12, 66, 0
18, 52752, Note_on_c, 12, 61, 34
18, 52752, Note_on_c, 12, 68, 27
18, 52774, Note_on_c, 12, 61, 0
18, 52774, Note_on_c, 12, 68, 0
18, 52776, Note_on_c, 12, 63, 32
18, 52776, Note_on_c, 12, 66, 33
18, 52798, Note_on_c, 12, 63, 0
18, 52798, Note_on_c, 12, 66, 0
18, 52800, Note_on_c, 12, 73, 74
18, 52800, Note_on_c, 12, 80, 72
18, 52822, Note_on_c, 12, 73, 0
18, 52822, Note_on_c, 12, 80, 0
18, 52824, Note_on_c, 12, 75, 71
18, 52824, Note_on_c, 12, 78, 78
18, 52846, Note_on_c, 12, 75, 0
18, 52846, Note_on_c, 12, 78, 0
18, 52848, Note_on_c, 12, 73, 69
18, 52848, Note_on_c, 12, 80, 70
18, 52870, Note_on_c, 12, 73, 0
18, 52870, Note_on_c, 12, 80, 0
18, 52872, Note_on_c, 12, 75, 68
18, 52872, Note_on_c, 12, 78, 66
18, 52894, Note_on_c, 12, 75, 0
18, 52894, Note_on_c, 12, 78, 0
18, 52896, Note_on_c, 12, 61, 62
18, 52896, Note_on_c, 12, 68, 62
18, 52918, Note_on_c, 12, 61, 0
18, 52918, Note_on_c, 12, 68, 0
18, 52920, Note_on_c, 12, 63, 46
18, 52920, Note_on_c, 12, 66, 52
18, 52942, Note_on_c, 12, 63, 0
18, 52942, Note_on_c, 12, 66, 0
18, 52944, Note_on_c, 12, 61, 48
18, 52944, Note_on_c, 12, 68, 46
18, 52966, Note_on_c, 12, 61, 0
18, 52966, Note_on_c, 12, 68, 0
18, 52968, Note_on_c, 12, 63, 34
18, 52968, Note_on_c, 12, 66, 33
18, 52990, Note_on_c, 12, 63, 0
18, 52990, Note_on_c, 12, 66, 0
18, 52992, Note_on_c, 12, 61, 30
18, 52992, Note_on_c, 12, 68, 27
18, 53014, Note_on_c, 12, 61, 0
18, 53014, Note_on_c, 12, 68, 0
18, 53016, Note_on_c, 12, 63, 28
18, 53016, Note_on_c, 12, 66, 30
18, 53038, Note_on_c, 12, 63, 0
18, 53038, Note_on_c, 12, 66, 0
18, 53040, Note_on_c, 12, 61, 29
18, 53040, Note_on_c, 12, 68, 32
18, 53062, Note_on_c, 12, 61, 0
18, 53062, Note_on_c, 12, 68, 0
18, 53064, Note_on_c, 12, 63, 25
18, 53064, Note_on_c, 12, 66, 27
18, 53086, Note_on_c, 12, 63, 0
18, 53086, Note_on_c, 12, 66, 0
18, 53088, Note_on_c, 12, 73, 71
18, 53088, Note_on_c, 12, 80, 73
18, 53110, Note_on_c, 12, 73, 0
18, 53110, Note_on_c, 12, 80, 0
18, 53112, Note_on_c, 12, 75, 75
18, 53112, Note_on_c, 12, 78, 72
18, 53134, Note_on_c, 12, 75, 0
18, 53134, Note_on_c, 12, 78, 0
18, 53136, Note_on_c, 12, 73, 68
18, 53136, Note_on_c, 12, 80, 64
18, 53158, Note_on_c, 12, 73, 0
18, 53158, Note_on_c, 12, 80, 0
18, 53160, Note_on_c, 12, 75, 59
18, 53160, Note_on_c, 12, 78, 63
18, 53182, Note_on_c, 12, 75, 0
18, 53182, Note_on_c, 12, 78, 0
18, 53184, Note_on_c, 12, 61, 54
18, 53184, Note_on_c, 12, 68, 52
18, 53206, Note_on_c, 12, 61, 0
18, 53206, Note_on_c, 12, 68, 0
18, 53208, Note_on_c, 12, 63, 52
18, 53208, Note_on_c, 12, 66, 50
18, 53230, Note_on_c, 12, 63, 0
18, 53230, Note_on_c, 12, 66, 0
18, 53232, Note_on_c, 12, 61, 39
18, 53232, Note_on_c, 12, 68, 39
18, 53254, Note_on_c, 12, 61, 0
18, 53254, Note_on_c, 12, 68, 0
18, 53256, Note_on_c, 12, 63, 42
18, 53256, Note_on_c, 12, 66, 38
18, 53278, Note_on_c, 12, 63, 0
18, 53278, Note_on_c, 12, 66, 0
18, 53280, Note_on_c, 12, 61, 31
18, 53280, Note_on_c, 12, 68, 25
18, 53302, Note_on_c, 12, 61, 0
18, 53302, Note_on_c, 12, 68, 0
18, 53304, Note_on_c, 12, 63, 27
18, 53304, Note_on_c, 12, 66, 29
18, 53326, Note_on_c, 12, 63, 0
18, 53326, Note_on_c, 12, 66, 0
18, 53328, Note_on_c, 12, 61, 32
18, 53328, Note_on_c, 12, 68, 25
18, 53350, Note_on_c, 12, 61, 0
18, 53350, Note_on_c, 12, 68, 0
18, 53352, Note_on_c, 12, 63, 27
18, 53352, Note_on_c, 12, 66, 34
18, 53374, Note_on_c, 12, 63, 0
18, 53374, Note_on_c, 12, 66, 0
18, 53376, Note_on_c, 12, 73, 71
18, 53376, Note_on_c, 12, 80, 74
18, 53398, Note_on_c, 12, 73, 0
18, 53398, Note_on_c, 12, 80, 0
18, 53400, Note_on_c, 12, 75, 76
18, 53400, Note_on_c, 12, 78, 75
18, 53422, Note_on_c, 12, 75, 0
18, 53422, Note_on_c, 12, 78, 0
18, 53424, Note_on_c, 12, 73, 64
18, 53424, Note_on_c, 12, 80, 72
18, 53446, Note_on_c, 12, 73, 0
18, 53446, Note_on_c, 12, 80, 0
18, 53448, Note_on_c, 12, 75, 59
18, 53448, Note_on_c, 12, 78, 63
18, 53470, Note_on_c, 12, 75, 0
18, 53470, Note_on_c, 12, 78, 0
18, 53472, Note_on_c, 12, 61, 60
18, 53472, Note_on_c, 12, 68, 56
18, 53494, Note_on_c, 12, 61, 0
18, 53494, Note_on_c, 12, 68, 0
18, 53496, Note_on_c, 12, 63, 52
18, 53496, Note_on_c, 12, 66, 55
18, 53518, Note_on_c, 12, 63, 0
18, 53518, Note_on_c, 12, 66, 0
18, 53520, Note_on_c, 12, 61, 49
18, 53520, Note_on_c, 12, 68, 49
18, 53542, Note_on_c, 12, 61, 0
18, 53542, Note_on_c, 12, 68, 0
18, 53544, Note_on_c, 12, 63, 35
18, 53544, Note_on_c, 12, 66, 32
18, 53566, Note_on_c, 12, 63, 0
18, 53566, Note_on_c, 12, 66, 0
18, 53568, Note_on_c, 12, 61, 35
18, 53568, Note_on_c, 12, 68, 30
18, 53590, Note_on_c, 12, 61, 0
18, 53590, Note_on_c, 12, 68, 0
18, 53592, Note_on_c, 12, 63, 30
18, 53592, Note_on_c, 12, 66, 31
18, 53614, Note_on_c, 12, 63, 0
18, 53614, Note_on_c, 12, 66, 0
18, 53616, Note_on_c, 12, 61, 26
18, 53616, Note_on_c, 12, 68, 25
18, 53638, Note_on_c, 12, 61, 0
18, 53638, Note_on_c, 12, 68, 0
18, 53640, Note_on_c, 12, 63, 25
18, 53640, Note_on_c, 12, 66, 34
18, 53662, Note_on_c, 12, 63, 0
18, 53662, Note_on_c, 12, 66, 0
18, 53664, Note_on_c, 12, 63, 34
18, 53686, Note_on_c, 12, 63, 0
18, 53688, Note_on_c, 12, 62, 29
18, 53710, Note_on_c, 12, 62, 0
18, 53712, Note_on_c, 12, 63, 29
18, 53734, Note_on_c, 12, 63, 0
18, 53736, Note_on_c, 12, 62, 31
18, 53758, Note_on_c, 12, 62, 0
18, 53760, Note_on_c, 12, 63, 35
18, 53782, Note_on_c, 12, 63, 0
18, 53784, Note_on_c, 12, 62, 26
18, 53806, Note_on_c, 12, 62, 0
18, 53808, Note_on_c, 12, 63, 34
18, 53830, Note_on_c, 12, 63, 0
18, 53832, Note_on_c, 12, 62, 28
18, 53854, Note_on_c, 12, 62, 0
18, 53856, Note_on_c, 12, 63, 25
18, 53878, Note_on_c, 12, 63, 0
18, 53880, Note_on_c, 12, 62, 33
18, 53902, Note_on_c, 12, 62, 0
18, 53904, Note_on_c, 12, 63, 28
18, 53926, Note_on_c, 12, 63, 0
18, 53928, Note_on_c, 12, 62, 29
18, 53950, Note_on_c, 12, 62, 0
18, 53952, Note_on_c, 12, 60, 36
18, 53974, Note_on_c, 12, 60, 0
18, 53976, Note_on_c, 12, 61, 29
18, 53998, Note_on_c, 12, 61, 0
18, 54000, Note_on_c, 12, 60, 39
18, 54022, Note_on_c, 12, 60, 0
18, 54024, Note_on_c, 12, 61, 41
18, 54046, Note_on_c, 12, 61, 0
18, 54048, Note_on_c, 12, 60, 40
18, 54070, Note_on_c, 12, 60, 0
18, 54072, Note_on_c, 12, 61, 40
18, 54094, Note_on_c, 12, 61, 0
18, 54096, Note_on_c, 12, 60, 44
18, 54118, Note_on_c, 12, 60, 0
18, 54120, Note_on_c, 12, 61, 39
18, 54142, Note_on_c, 12, 61, 0
18, 54144, Note_on_c, 12, 60, 42
18, 54166, Note_on_c, 12, 60, 0
18, 54168, Note_on_c, 12, 61, 39
18, 54190, Note_on_c, 12, 61, 0
18, 54192, Note_on_c, 12, 60, 43
18, 54214, Note_on_c, 12, 60, 0
18, 54216, Note_on_c, 12, 61, 48
18, 54238, Note_on_c, 12, 61, 0
18, 54240, Note_on_c, 12, 68, 46
18, 54262, Note_on_c, 12, 68, 0
18, 54264, Note_on_c, 12, 71, 41
18, 54286, Note_on_c, 12, 71, 0
18, 54288, Note_on_c, 12, 68, 51
18, 54310, Note_on_c, 12, 68, 0
18, 54312, Note_on_c, 12, 71, 54
18, 54334, Note_on_c, 12, 71, 0
18, 54336, Note_on_c, 12, 71, 46
18, 54358, Note_on_c, 12, 71, 0
18, 54360, Note_on_c, 12, 74, 50
18, 54382, Note_on_c, 12, 74, 0
18, 54384, Note_on_c, 12, 71, 61
18, 54406, Note_on_c, 12, 71, 0
18, 54408, Note_on_c, 12, 74, 56
18, 54430, Note_on_c, 12, 74, 0
18, 54432, Note_on_c, 12, 74, 67
18, 54454, Note_on_c, 12, 74, 0
18, 54456, Note_on_c, 12, 76, 65
18, 54478, Note_on_c, 12, 76, 0
18, 54480, Note_on_c, 12, 74, 73
18, 54502, Note_on_c, 12, 74, 0
18, 54504, Note_on_c, 12, 76, 74
18, 54526, Note_on_c, 12, 76, 0
18, 54528, Note_on_c, 12, 68, 79
18, 54550, Note_on_c, 12, 68, 0
18, 54552, Note_on_c, 12, 71, 77
18, 54574, Note_on_c, 12, 71, 0
18, 54576, Note_on_c, 12, 68, 71
18, 54598, Note_on_c, 12, 68, 0
18, 54600, Note_on_c, 12, 71, 79
18, 54622, Note_on_c, 12, 71, 0
18, 54624, Note_on_c, 12, 71, 71
18, 54646, Note_on_c, 12, 71, 0
18, 54648, Note_on_c, 12, 74, 75
18, 54670, Note_on_c, 12, 74, 0
18, 54672, Note_on_c, 12, 71, 74
18, 54694, Note_on_c, 12, 71, 0
18, 54696, Note_on_c, 12, 74, 78
18, 54718, Note_on_c, 12, 74, 0
18, 54720, Note_on_c, 12, 74, 76
18, 54742, Note_on_c, 12, 74, 0
18, 54744, Note_on_c, 12, 76, 78
18, 54766, Note_on_c, 12, 76, 0
18, 54768, Note_on_c, 12, 74, 71
18, 54790, Note_on_c, 12, 74, 0
18, 54792, Note_on_c, 12, 76, 71
18, 54814, Note_on_c, 12, 76, 0
18, 54816, Note_on_c, 12, 68, 43
18, 54838, Note_on_c, 12, 68, 0
18, 54840, Note_on_c, 12, 71, 49
18, 54862, Note_on_c, 12, 71, 0
18, 54864, Note_on_c, 12, 68, 46
18, 54886, Note_on_c, 12, 68, 0
18, 54888, Note_on_c, 12, 71, 48
18, 54910, Note_on_c, 12, 71, 0
18, 54912, Note_on_c, 12, 71, 54
18, 54934, Note_on_c, 12, 71, 0
18, 54936, Note_on_c, 12, 74, 52
18, 54958, Note_on_c, 12, 74, 0
18, 54960, Note_on_c, 12, 71, 53
18, 54982, Note_on_c, 12, 71, 0
18, 54984, Note_on_c, 12, 74, 55
18, 55006, Note_on_c, 12, 74, 0
18, 55008, Note_on_c, 12, 74, 66
18, 55030, Note_on_c, 12, 74, 0
18, 55032, Note_on_c, 12, 76, 68
18, 55054, Note_on_c, 12, 76, 0
18, 55056, Note_on_c, 12, 74, 66
18, 55078, Note_on_c, 12, 74, 0
18, 55080, Note_on_c, 12, 76, 75
18, 55102, Note_on_c, 12, 76, 0
18, 55104, Note_on_c, 12, 68, 74
18, 55126, Note_on_c, 12, 68, 0
18, 55128, Note_on_c, 12, 71, 76
18, 55150, Note_on_c, 12, 71, 0
18, 55152, Note_on_c, 12, 68, 78
18, 55174, Note_on_c, 12, 68, 0
18, 55176, Note_on_c, 12, 71, 74
18, 55198, Note_on_c, 12, 71, 0
18, 55200, Note_on_c, 12, 71, 72
18, 55222, Note_on_c, 12, 71, 0
18, 55224, Note_on_c, 12, 74, 77
18, 55246, Note_on_c, 12, 74, 0
18, 55248, Note_on_c, 12, 71, 74
18, 55270, Note_on_c, 12, 71, 0
18, 55272, Note_on_c, 12, 74, 76
18, 55294, Note_on_c, 12, 74, 0
18, 55296, Note_on_c, 12, 74, 79
18, 55318, Note_on_c, 12, 74, 0
18, 55320, Note_on_c, 12, 76, 75
18, 55342, Note_on_c, 12, 76, 0
18, 55344, Note_on_c, 12, 74, 74
18, 55366, Note_on_c, 12, 74, 0
18, 55368, Note_on_c, 12, 76, 72
18, 55390, Note_on_c, 12, 76, 0
18, 55392, Note_on_c, 12, 68, 49
18, 55414, Note_on_c, 12, 68, 0
18, 55416, Note_on_c, 12, 71, 48
18, 55438, Note_on_c, 12, 71, 0
18, 55440, Note_on_c, 12, 68, 49
18, 55462, Note_on_c, 12, 68, 0
18, 55464, Note_on_c, 12, 71, 45
18, 55486, Note_on_c, 12, 71, 0
18, 55488, Note_on_c, 12, 71, 52
18, 55510, Note_on_c, 12, 71, 0
18, 55512, Note_on_c, 12, 74, 54
18, 55534, Note_on_c, 12, 74, 0
18, 55536, Note_on_c, 12, 71, 54
18, 55558, Note_on_c, 12, 71, 0
18, 55560, Note_on_c, 12, 74, 60
18, 55582, Note_on_c, 12, 74, 0
18, 55584, Note_on_c, 12, 74, 63
18, 55606, Note_on_c, 12, 74, 0
18, 55608, Note_on_c, 12, 76, 67
18, 55630, Note_on_c, 12, 76, 0
18, 55632, Note_on_c, 12, 74, 67
18, 55654, Note_on_c, 12, 74, 0
18, 55656, Note_on_c, 12, 76, 75
18, 55678, Note_on_c, 12, 76, 0
18, 55680, Note_on_c, 12, 68, 78
18, 55702, Note_on_c, 12, 68, 0
18, 55704, Note_on_c, 12, 71, 71
18, 55726, Note_on_c, 12, 71, 0
18, 55728, Note_on_c, 12, 68, 71
18, 55750, Note_on_c, 12, 68, 0
18, 55752, Note_on_c, 12, 71, 72
18, 55774, Note_on_c, 12, 71, 0
18, 55776, Note_on_c, 12, 71, 79
18, 55798, Note_on_c, 12, 71, 0
18, 55800, Note_on_c, 12, 74, 72
18, 55822, Note_on_c, 12, 74, 0
18, 55824, Note_on_c, 12, 71, 74
18, 55846, Note_on_c, 12, 71, 0
18, 55848, Note_on_c, 12, 74, 76
18, 55870, Note_on_c, 12, 74, 0
18, 55872, Note_on_c, 12, 74, 75
18, 55894, Note_on_c, 12, 74, 0
18, 55896, Note_on_c, 12, 76, 77
18, 55918, Note_on_c, 12, 76, 0
18, 55920, Note_on_c, 12, 74, 76
18, 55942, Note_on_c, 12, 74, 0
18, 55944, Note_on_c, 12, 76, 73
18, 55966, Note_on_c, 12, 76, 0
18, 55968, Note_on_c, 12, 68, 44
18, 55990, Note_on_c, 12, 68, 0
18, 55992, Note_on_c, 12, 71, 43
18, 56014, Note_on_c, 12, 71, 0
18, 56016, Note_on_c, 12, 68, 52
18, 56038, Note_on_c, 12, 68, 0
18, 56040, Note_on_c, 12, 71, 45
18, 56062, Note_on_c, 12, 71, 0
18, 56064, Note_on_c, 12, 71, 50
18, 56086, Note_on_c, 12, 71, 0
18, 56088, Note_on_c, 12, 74, 59
18, 56110, Note_on_c, 12, 74, 0
18, 56112, Note_on_c, 12, 71, 57
18, 56134, Note_on_c, 12, 71, 0
18, 56136, Note_on_c, 12, 74, 61
18, 56158, Note_on_c, 12, 74, 0
18, 56160, Note_on_c, 12, 74, 61
18, 56182, Note_on_c, 12, 74, 0
18, 56184, Note_on_c, 12, 76, 65
18, 56206, Note_on_c, 12, 76, 0
18, 56208, Note_on_c, 12, 74, 65
18, 56230, Note_on_c, 12, 74, 0
18, 56232, Note_on_c, 12, 76, 77
18, 56254, Note_on_c, 12, 76, 0
18, 56256, Note_on_c, 12, 68, 76
18, 56278, Note_on_c, 12, 68, 0
18, 56280, Note_on_c, 12, 71, 77
18, 56302, Note_on_c, 12, 71, 0
18, 56304, Note_on_c, 12, 68, 75
18, 56326, Note_on_c, 12, 68, 0
18, 56328, Note_on_c, 12, 71, 76
18, 56350, Note_on_c, 12, 71, 0
18, 56352, Note_on_c, 12, 71, 79
18, 56374, Note_on_c, 12, 71, 0
18, 56376, Note_on_c, 12, 74, 71
18, 56398, Note_on_c, 12, 74, 0
18, 56400, Note_on_c, 12, 71, 72
18, 56422, Note_on_c, 12, 71, 0
18, 56424, Note_on_c, 12, 74, 73
18, 56446, Note_on_c, 12, 74, 0
18, 56448, Note_on_c, 12, 74, 71
18, 56470, Note_on_c, 12, 74, 0
18, 56472, Note_on_c, 12, 76, 80
18, 56494, Note_on_c, 12, 76, 0
18, 56496, Note_on_c, 12, 74, 75
18, 56518, Note_on_c, 12, 74, 0
18, 56520, Note_on_c, 12, 76, 72
18, 56542, Note_on_c, 12, 76, 0
18, 56544, Program_c, 12, 44
18, 56544, Control_c, 12, 11, 92
18, 56544, Note_on_c, 12, 66, 93
18, 56544, Note_on_c, 12, 73, 97
18, 56545, Control_c, 12, 11, 93
18, 56546, Control_c, 12, 11, 94
18, 56548, Control_c, 12, 11, 95
18, 56549, Control_c, 12, 11, 96
18, 56550, Control_c, 12, 11, 97
18, 56552, Control_c, 12, 11, 98
18, 56553, Control_c, 12, 11, 99
18, 56554, Control_c, 12, 11, 100
18, 56556, Control_c, 12, 11, 101
18, 56557, Control_c, 12, 11, 102
18, 56559, Control_c, 12, 11, 103
18, 56560, Control_c, 12, 11, 104
18, 56561, Control_c, 12, 11, 105
18, 56563, Control_c, 12, 11, 106
18, 56564, Control_c, 12, 11, 107
18, 56565, Control_c, 12, 11, 108
18, 56567, Control_c, 12, 11, 109
18, 56568, Control_c, 12, 11, 110
18, 56570, Control_c, 12, 11, 111
18, 56571, Control_c, 12, 11, 112
18, 56572, Control_c, 12, 11, 113
18, 56574, Control_c, 12, 11, 114
18, 56575, Control_c, 12, 11, 115
18, 56576, Control_c, 12, 11, 116
18, 56578, Control_c, 12, 11, 117
18, 56579, Control_c, 12, 11, 118
18, 56581, Control_c, 12, 11, 119
18, 56582, Control_c, 12, 11, 120
18, 56583, Control_c, 12, 11, 121
18, 56585, Control_c, 12, 11, 122
18, 56586, Control_c, 12, 11, 123
18, 56587, Control_c, 12, 11, 124
18, 56589, Control_c, 12, 11, 125
18, 56590, Control_c, 12, 11, 126
18, 56592, Control_c, 12, 11, 127
18, 56593, Control_c, 12, 11, 126
18, 56594, Control_c, 12, 11, 125
18, 56596, Control_c, 12, 11, 124
18, 56597, Control_c, 12, 11, 123
18, 56598, Control_c, 12, 11, 122
18, 56600, Control_c, 12, 11, 121
18, 56601, Control_c, 12, 11, 120
18, 56602, Control_c, 12, 11, 119
18, 56604, Control_c, 12, 11, 118
18, 56605, Control_c, 12, 11, 117
18, 56607, Control_c, 12, 11, 116
18, 56608, Control_c, 12, 11, 115
18, 56609, Control_c, 12, 11, 114
18, 56611, Control_c, 12, 11, 113
18, 56612, Control_c, 12, 11, 112
18, 56613, Control_c, 12, 11, 111
18, 56615, Control_c, 12, 11, 110
18, 56616, Control_c, 12, 11, 109
18, 56618, Control_c, 12, 11, 108
18, 56619, Control_c, 12, 11, 107
18, 56620, Control_c, 12, 11, 106
18, 56622, Control_c, 12, 11, 105
18, 56623, Control_c, 12, 11, 104
18, 56624, Control_c, 12, 11, 103
18, 56626, Control_c, 12, 11, 102
18, 56627, Control_c, 12, 11, 101
18, 56629, Control_c, 12, 11, 100
18, 56630, Control_c, 12, 11, 99
18, 56631, Control_c, 12, 11, 98
18, 56633, Control_c, 12, 11, 97
18, 56634, Control_c, 12, 11, 96
18, 56635, Control_c, 12, 11, 95
18, 56637, Control_c, 12, 11, 94
18, 56638, Control_c, 12, 11, 93
18, 56640, Control_c, 12, 11, 92
18, 56704, Note_on_c, 12, 66, 0
18, 56704, Note_on_c, 12, 73, 0
18, 56736, Control_c, 12, 11, 92
18, 56736, Note_on_c, 12, 64, 90
18, 56736, Note_on_c, 12, 71, 93
18, 56737, Control_c, 12, 11, 93
18, 56738, Control_c, 12, 11, 94
18, 56740, Control_c, 12, 11, 95
18, 56741, Control_c, 12, 11, 96
18, 56742, Control_c, 12, 11, 97
18, 56744, Control_c, 12, 11, 98
18, 56745, Control_c, 12, 11, 99
18, 56746, Control_c, 12, 11, 100
18, 56748, Control_c, 12, 11, 101
18, 56749, Control_c, 12, 11, 102
18, 56751, Control_c, 12, 11, 103
18, 56752, Control_c, 12, 11, 104
18, 56753, Control_c, 12, 11, 105
18, 56755, Control_c, 12, 11, 106
18, 56756, Control_c, 12, 11, 107
18, 56757, Control_c, 12, 11, 108
18, 56759, Control_c, 12, 11, 109
18, 56760, Control_c, 12, 11, 110
18, 56762, Control_c, 12, 11, 111
18, 56763, Control_c, 12, 11, 112
18, 56764, Control_c, 12, 11, 113
18, 56766, Control_c, 12, 11, 114
18, 56767, Control_c, 12, 11, 115
18, 56768, Control_c, 12, 11, 116
18, 56770, Control_c, 12, 11, 117
18, 56771, Control_c, 12, 11, 118
18, 56773, Control_c, 12, 11, 119
18, 56774, Control_c, 12, 11, 120
18, 56775, Control_c, 12, 11, 121
18, 56777, Control_c, 12, 11, 122
18, 56778, Control_c, 12, 11, 123
18, 56779, Control_c, 12, 11, 124
18, 56781, Control_c, 12, 11, 125
18, 56782, Control_c, 12, 11, 126
18, 56784, Control_c, 12, 11, 127
18, 56785, Control_c, 12, 11, 126
18, 56786, Control_c, 12, 11, 125
18, 56788, Control_c, 12, 11, 124
18, 56789, Control_c, 12, 11, 123
18, 56790, Control_c, 12, 11, 122
18, 56792, Control_c, 12, 11, 121
18, 56793, Control_c, 12, 11, 120
18, 56794, Control_c, 12, 11, 119
18, 56796, Control_c, 12, 11, 118
18, 56797, Control_c, 12, 11, 117
18, 56799, Control_c, 12, 11, 116
18, 56800, Control_c, 12, 11, 115
18, 56801, Control_c, 12, 11, 114
18, 56803, Control_c, 12, 11, 113
18, 56804, Control_c, 12, 11, 112
18, 56805, Control_c, 12, 11, 111
18, 56807, Control_c, 12, 11, 110
18, 56808, Control_c, 12, 11, 109
18, 56810, Control_c, 12, 11, 108
18, 56811, Control_c, 12, 11, 107
18, 56812, Control_c, 12, 11, 106
18, 56814, Control_c, 12, 11, 105
18, 56815, Control_c, 12, 11, 104
18, 56816, Control_c, 12, 11, 103
18, 56818, Control_c, 12, 11, 102
18, 56819, Control_c, 12, 11, 101
18, 56821, Control_c, 12, 11, 100
18, 56822, Control_c, 12, 11, 99
18, 56823, Control_c, 12, 11, 98
18, 56825, Control_c, 12, 11, 97
18, 56826, Control_c, 12, 11, 96
18, 56827, Control_c, 12, 11, 95
18, 56829, Control_c, 12, 11, 94
18, 56830, Control_c, 12, 11, 93
18, 56832, Control_c, 12, 11, 92
18, 56896, Note_on_c, 12, 64, 0
18, 56896, Note_on_c, 12, 71, 0
18, 56928, Control_c, 12, 11, 92
18, 56928, Note_on_c, 12, 61, 88
18, 56928, Note_on_c, 12, 68, 89
18, 56929, Control_c, 12, 11, 93
18, 56930, Control_c, 12, 11, 94
18, 56932, Control_c, 12, 11, 95
18, 56933, Control_c, 12, 11, 96
18, 56934, Control_c, 12, 11, 97
18, 56936, Control_c, 12, 11, 98
18, 56937, Control_c, 12, 11, 99
18, 56938, Control_c, 12, 11, 100
18, 56940, Control_c, 12, 11, 101
18, 56941, Control_c, 12, 11, 102
18, 56943, Control_c, 12, 11, 103
18, 56944, Control_c, 12, 11, 104
18, 56945, Control_c, 12, 11, 105
18, 56947, Control_c, 12, 11, 106
18, 56948, Control_c, 12, 11, 107
18, 56949, Control_c, 12, 11, 108
18, 56951, Control_c, 12, 11, 109
18, 56952, Control_c, 12, 11, 110
18, 56954, Control_c, 12, 11, 111
18, 56955, Control_c, 12, 11, 112
18, 56956, Control_c, 12, 11, 113
18, 56958, Control_c, 12, 11, 114
18, 56959, Control_c, 12, 11, 115
18, 56960, Control_c, 12, 11, 116
18, 56962, Control_c, 12, 11, 117
18, 56963, Control_c, 12, 11, 118
18, 56965, Control_c, 12, 11, 119
18, 56966, Control_c, 12, 11, 120
18, 56967, Control_c, 12, 11, 121
18, 56969, Control_c, 12, 11, 122
18, 56970, Control_c, 12, 11, 123
18, 56971, Control_c, 12, 11, 124
18, 56973, Control_c, 12, 11, 125
18, 56974, Control_c, 12, 11, 126
18, 56976, Control_c, 12, 11, 127
18, 56977, Control_c, 12, 11, 126
18, 56978, Control_c, 12, 11, 125
18, 56980, Control_c, 12, 11, 124
18, 56981, Control_c, 12, 11, 123
18, 56982, Control_c, 12, 11, 122
18, 56984, Control_c, 12, 11, 121
18, 56985, Control_c, 12, 11, 120
18, 56986, Control_c, 12, 11, 119
18, 56988, Control_c, 12, 11, 118
18, 56989, Control_c, 12, 11, 117
18, 56991, Control_c, 12, 11, 116
18, 56992, Control_c, 12, 11, 115
18, 56993, Control_c, 12, 11, 114
18, 56995, Control_c, 12, 11, 113
18, 56996, Control_c, 12, 11, 112
18, 56997, Control_c, 12, 11, 111
18, 56999, Control_c, 12, 11, 110
18, 57000, Control_c, 12, 11, 109
18, 57002, Control_c, 12, 11, 108
18, 57003, Control_c, 12, 11, 107
18, 57004, Control_c, 12, 11, 106
18, 57006, Control_c, 12, 11, 105
18, 57007, Control_c, 12, 11, 104
18, 57008, Control_c, 12, 11, 103
18, 57010, Control_c, 12, 11, 102
18, 57011, Control_c, 12, 11, 101
18, 57013, Control_c, 12, 11, 100
18, 57014, Control_c, 12, 11, 99
18, 57015, Control_c, 12, 11, 98
18, 57017, Control_c, 12, 11, 97
18, 57018, Control_c, 12, 11, 96
18, 57019, Control_c, 12, 11, 95
18, 57021, Control_c, 12, 11, 94
18, 57022, Control_c, 12, 11, 93
18, 57024, Control_c, 12, 11, 92
18, 57088, Note_on_c, 12, 61, 0
18, 57088, Note_on_c, 12, 68, 0
18, 57216, Program_c, 12, 45
18, 57216, Note_on_c, 12, 66, 89
18, 57246, Note_on_c, 12, 66, 0
18, 57248, Note_on_c, 12, 64, 93
18, 57278, Note_on_c, 12, 64, 0
18, 57280, Note_on_c, 12, 61, 96
18, 57310, Note_on_c, 12, 61, 0
18, 57312, Note_on_c, 12, 59, 106
18, 57502, Note_on_c, 12, 59, 0
18, 57504, Program_c, 12, 44
18, 57504, Control_c, 12, 11, 92
18, 57504, Note_on_c, 12, 61, 111
18, 57516, Control_c, 12, 11, 91
18, 57528, Control_c, 12, 11, 90
18, 57541, Control_c, 12, 11, 89
18, 57553, Control_c, 12, 11, 88
18, 57565, Control_c, 12, 11, 87
18, 57578, Control_c, 12, 11, 86
18, 57590, Control_c, 12, 11, 85
18, 57603, Control_c, 12, 11, 84
18, 57615, Control_c, 12, 11, 83
18, 57627, Control_c, 12, 11, 82
18, 57640, Control_c, 12, 11, 81
18, 57652, Control_c, 12, 11, 80
18, 57665, Control_c, 12, 11, 79
18, 57677, Control_c, 12, 11, 78
18, 57689, Control_c, 12, 11, 77
18, 57696, Note_on_c, 12, 61, 0
18, 57696, Note_on_c, 12, 61, 103
18, 57702, Control_c, 12, 11, 76
18, 57714, Control_c, 12, 11, 75
18, 57726, Control_c, 12, 11, 74
18, 57739, Control_c, 12, 11, 73
18, 57751, Control_c, 12, 11, 72
18, 57764, Control_c, 12, 11, 71
18, 57776, Control_c, 12, 11, 70
18, 57788, Control_c, 12, 11, 69
18, 57792, Note_on_c, 12, 61, 0
18, 57792, Note_on_c, 12, 61, 112
18, 57801, Control_c, 12, 11, 68
18, 57813, Control_c, 12, 11, 67
18, 57826, Control_c, 12, 11, 66
18, 57838, Control_c, 12, 11, 65
18, 57850, Control_c, 12, 11, 64
18, 57863, Control_c, 12, 11, 63
18, 57875, Control_c, 12, 11, 62
18, 57887, Control_c, 12, 11, 61
18, 57900, Control_c, 12, 11, 60
18, 57912, Control_c, 12, 11, 59
18, 57925, Control_c, 12, 11, 58
18, 57937, Control_c, 12, 11, 57
18, 57949, Control_c, 12, 11, 56
18, 57962, Control_c, 12, 11, 55
18, 57974, Control_c, 12, 11, 54
18, 57984, Note_on_c, 12, 61, 0
18, 57984, Note_on_c, 12, 59, 105
18, 57987, Control_c, 12, 11, 53
18, 57999, Control_c, 12, 11, 52
18, 58011, Control_c, 12, 11, 51
18, 58024, Control_c, 12, 11, 50
18, 58036, Control_c, 12, 11, 49
18, 58049, Control_c, 12, 11, 48
18, 58061, Control_c, 12, 11, 47
18, 58073, Control_c, 12, 11, 46
18, 58086, Control_c, 12, 11, 45
18, 58098, Control_c, 12, 11, 44
18, 58110, Control_c, 12, 11, 43
18, 58123, Control_c, 12, 11, 42
18, 58135, Control_c, 12, 11, 41
18, 58148, Control_c, 12, 11, 40
18, 58160, Control_c, 12, 11, 39
18, 58172, Control_c, 12, 11, 38
18, 58176, Note_on_c, 12, 59, 0
18, 58176, Note_on_c, 12, 56, 107
18, 58185, Control_c, 12, 11, 37
18, 58197, Control_c, 12, 11, 36
18, 58210, Control_c, 12, 11, 35
18, 58222, Control_c, 12, 11, 34
18, 58234, Control_c, 12, 11, 33
18, 58247, Control_c, 12, 11, 32
18, 58259, Control_c, 12, 11, 31
18, 58272, Note_on_c, 12, 56, 0
18, 58272, Control_c, 12, 11, 30
18, 58368, Control_c, 12, 11, 127
18, 58368, Note_on_c, 12, 61, 49
18, 58381, Control_c, 12, 11, 126
18, 58395, Control_c, 12, 11, 125
18, 58409, Control_c, 12, 11, 124
18, 58422, Control_c, 12, 11, 123
18, 58436, Control_c, 12, 11, 122
18, 58450, Control_c, 12, 11, 121
18, 58464, Control_c, 12, 11, 120
18, 58477, Control_c, 12, 11, 119
18, 58491, Control_c, 12, 11, 118
18, 58505, Control_c, 12, 11, 117
18, 58518, Control_c, 12, 11, 116
18, 58532, Control_c, 12, 11, 115
18, 58546, Control_c, 12, 11, 114
18, 58560, Note_on_c, 12, 61, 0
18, 58560, Control_c, 12, 11, 113
18, 58560, Note_on_c, 12, 61, 50
18, 58573, Control_c, 12, 11, 112
18, 58587, Control_c, 12, 11, 111
18, 58601, Control_c, 12, 11, 110
18, 58614, Control_c, 12, 11, 109
18, 58628, Control_c, 12, 11, 108
18, 58642, Control_c, 12, 11, 107
18, 58656, Control_c, 12, 11, 106
18, 58669, Control_c, 12, 11, 105
18, 58683, Control_c, 12, 11, 104
18, 58697, Control_c, 12, 11, 103
18, 58710, Control_c, 12, 11, 102
18, 58724, Control_c, 12, 11, 101
18, 58738, Control_c, 12, 11, 100
18, 58752, Control_c, 12, 11, 99
18, 58765, Control_c, 12, 11, 98
18, 58779, Control_c, 12, 11, 97
18, 58793, Control_c, 12, 11, 96
18, 58806, Control_c, 12, 11, 95
18, 58820, Control_c, 12, 11, 94
18, 58834, Control_c, 12, 11, 93
18, 58848, Note_on_c, 12, 61, 0
18, 58848, Control_c, 12, 11, 92
18, 66528, Program_c, 12, 44
18, 66528, Control_c, 12, 11, 127
18, 67296, Note_on_c, 12, 69, 26
18, 68256, Note_on_c, 12, 69, 0
18, 68256, Note_on_c, 12, 71, 25
18, 68448, Note_on_c, 12, 71, 0
18, 68448, Note_on_c, 12, 69, 28
18, 68640, Note_on_c, 12, 69, 0
18, 68640, Note_on_c, 12, 71, 25
18, 68832, Note_on_c, 12, 71, 0
18, 68832, Note_on_c, 12, 74, 32
18, 69024, Note_on_c, 12, 74, 0
18, 69024, Note_on_c, 12, 76, 27
18, 69216, Note_on_c, 12, 76, 0
18, 69216, Note_on_c, 12, 74, 32
18, 69408, Note_on_c, 12, 74, 0
18, 69408, Note_on_c, 12, 76, 32
18, 69600, Control_c, 12, 11, 45
18, 69600, Note_on_c, 12, 72, 93
18, 69628, Control_c, 12, 11, 46
18, 69656, Control_c, 12, 11, 47
18, 69684, Control_c, 12, 11, 48
18, 69712, Control_c, 12, 11, 49
18, 69740, Control_c, 12, 11, 50
18, 69768, Control_c, 12, 11, 51
18, 69796, Control_c, 12, 11, 52
18, 69824, Control_c, 12, 11, 53
18, 69852, Control_c, 12, 11, 54
18, 69880, Control_c, 12, 11, 55
18, 69909, Control_c, 12, 11, 56
18, 69937, Control_c, 12, 11, 57
18, 69965, Control_c, 12, 11, 58
18, 69993, Control_c, 12, 11, 59
18, 70021, Control_c, 12, 11, 60
18, 70049, Control_c, 12, 11, 61
18, 70077, Control_c, 12, 11, 62
18, 70105, Control_c, 12, 11, 63
18, 70133, Control_c, 12, 11, 64
18, 70161, Control_c, 12, 11, 65
18, 70190, Control_c, 12, 11, 66
18, 70218, Control_c, 12, 11, 67
18, 70246, Control_c, 12, 11, 68
18, 70274, Control_c, 12, 11, 69
18, 70302, Control_c, 12, 11, 70
18, 70330, Control_c, 12, 11, 71
18, 70358, Control_c, 12, 11, 72
18, 70368, Note_on_c, 12, 76, 0
18, 70368, Note_on_c, 12, 72, 0
18, 70368, Note_on_c, 12, 72, 91
18, 70368, Note_on_c, 12, 76, 93
18, 70386, Control_c, 12, 11, 73
18, 70414, Control_c, 12, 11, 74
18, 70442, Control_c, 12, 11, 75
18, 70471, Control_c, 12, 11, 76
18, 70499, Control_c, 12, 11, 77
18, 70527, Control_c, 12, 11, 78
18, 70555, Control_c, 12, 11, 79
18, 70583, Control_c, 12, 11, 80
18, 70611, Control_c, 12, 11, 81
18, 70639, Control_c, 12, 11, 82
18, 70667, Control_c, 12, 11, 83
18, 70695, Control_c, 12, 11, 84
18, 70723, Control_c, 12, 11, 85
18, 70751, Control_c, 12, 11, 86
18, 70780, Control_c, 12, 11, 87
18, 70808, Control_c, 12, 11, 88
18, 70836, Control_c, 12, 11, 89
18, 70864, Control_c, 12, 11, 90
18, 70892, Control_c, 12, 11, 91
18, 70920, Control_c, 12, 11, 92
18, 70948, Control_c, 12, 11, 93
18, 70976, Control_c, 12, 11, 94
18, 71004, Control_c, 12, 11, 95
18, 71032, Control_c, 12, 11, 96
18, 71061, Control_c, 12, 11, 97
18, 71089, Control_c, 12, 11, 98
18, 71117, Control_c, 12, 11, 99
18, 71136, Note_on_c, 12, 72, 0
18, 71136, Note_on_c, 12, 76, 0
18, 71136, Note_on_c, 12, 88, 91
18, 71145, Control_c, 12, 11, 100
18, 71173, Control_c, 12, 11, 101
18, 71201, Control_c, 12, 11, 102
18, 71229, Control_c, 12, 11, 103
18, 71257, Control_c, 12, 11, 104
18, 71285, Control_c, 12, 11, 105
18, 71313, Control_c, 12, 11, 106
18, 71342, Control_c, 12, 11, 107
18, 71370, Control_c, 12, 11, 108
18, 71398, Control_c, 12, 11, 109
18, 71426, Control_c, 12, 11, 110
18, 71454, Control_c, 12, 11, 111
18, 71482, Control_c, 12, 11, 112
18, 71510, Control_c, 12, 11, 113
18, 71538, Control_c, 12, 11, 114
18, 71566, Control_c, 12, 11, 115
18, 71594, Control_c, 12, 11, 116
18, 71623, Control_c, 12, 11, 117
18, 71651, Control_c, 12, 11, 118
18, 71679, Control_c, 12, 11, 119
18, 71707, Control_c, 12, 11, 120
18, 71735, Control_c, 12, 11, 121
18, 71763, Control_c, 12, 11, 122
18, 71791, Control_c, 12, 11, 123
18, 71819, Control_c, 12, 11, 124
18, 71847, Control_c, 12, 11, 125
18, 71875, Control_c, 12, 11, 126
18, 71904, Note_on_c, 12, 88, 0
18, 71904, Control_c, 12, 11, 127
18, 71904, Program_c, 12, 48
18, 71904, Note_on_c, 12, 82, 92
18, 71966, Note_on_c, 12, 82, 0
18, 71968, Note_on_c, 12, 79, 87
18, 72062, Note_on_c, 12, 79, 0
18, 72064, Note_on_c, 12, 82, 92
18, 72094, Note_on_c, 12, 82, 0
18, 72096, Note_on_c, 12, 79, 91
18, 72158, Note_on_c, 12, 79, 0
18, 72160, Note_on_c, 12, 82, 89
18, 72254, Note_on_c, 12, 82, 0
18, 72256, Note_on_c, 12, 79, 94
18, 72286, Note_on_c, 12, 79, 0
18, 72288, Note_on_c, 12, 82, 72
18, 72350, Note_on_c, 12, 82, 0
18, 72352, Note_on_c, 12, 79, 80
18, 72446, Note_on_c, 12, 79, 0
18, 72448, Note_on_c, 12, 82, 73
18, 72478, Note_on_c, 12, 82, 0
18, 72480, Note_on_c, 12, 79, 65
18, 72542, Note_on_c, 12, 79, 0
18, 72544, Note_on_c, 12, 82, 68
18, 72638, Note_on_c, 12, 82, 0
18, 72640, Note_on_c, 12, 79, 66
18, 72670, Note_on_c, 12, 79, 0
18, 72672, Note_on_c, 12, 77, 56
18, 72734, Note_on_c, 12, 77, 0
18, 72736, Note_on_c, 12, 74, 61
18, 72830, Note_on_c, 12, 74, 0
18, 72832, Note_on_c, 12, 77, 65
18, 72862, Note_on_c, 12, 77, 0
18, 72864, Note_on_c, 12, 74, 55
18, 72926, Note_on_c, 12, 74, 0
18, 72928, Note_on_c, 12, 70, 56
18, 73022, Note_on_c, 12, 70, 0
18, 73024, Note_on_c, 12, 74, 61
18, 73054, Note_on_c, 12, 74, 0
18, 73056, Note_on_c, 12, 70, 55
18, 73118, Note_on_c, 12, 70, 0
18, 73120, Note_on_c, 12, 67, 58
18, 73214, Note_on_c, 12, 67, 0
18, 73216, Note_on_c, 12, 70, 58
18, 73246, Note_on_c, 12, 70, 0
18, 73248, Note_on_c, 12, 67, 58
18, 73310, Note_on_c, 12, 67, 0
18, 73312, Note_on_c, 12, 63, 69
18, 73374, Note_on_c, 12, 63, 0
18, 73376, Note_on_c, 12, 67, 61
18, 73438, Note_on_c, 12, 67, 0
18, 73440, Note_on_c, 12, 63, 64
18, 73534, Note_on_c, 12, 63, 0
18, 74400, Control_c, 12, 11, 92
18, 74400, Note_on_c, 12, 81, 90
18, 74405, Control_c, 12, 11, 93
18, 74410, Control_c, 12, 11, 94
18, 74416, Control_c, 12, 11, 95
18, 74421, Control_c, 12, 11, 96
18, 74427, Control_c, 12, 11, 97
18, 74432, Control_c, 12, 11, 98
18, 74438, Control_c, 12, 11, 99
18, 74443, Control_c, 12, 11, 100
18, 74449, Control_c, 12, 11, 101
18, 74454, Control_c, 12, 11, 102
18, 74460, Control_c, 12, 11, 103
18, 74465, Control_c, 12, 11, 104
18, 74471, Control_c, 12, 11, 105
18, 74476, Control_c, 12, 11, 106
18, 74482, Control_c, 12, 11, 107
18, 74487, Control_c, 12, 11, 108
18, 74493, Control_c, 12, 11, 109
18, 74498, Control_c, 12, 11, 110
18, 74504, Control_c, 12, 11, 111
18, 74509, Control_c, 12, 11, 112
18, 74515, Control_c, 12, 11, 113
18, 74520, Control_c, 12, 11, 114
18, 74526, Control_c, 12, 11, 115
18, 74531, Control_c, 12, 11, 116
18, 74537, Control_c, 12, 11, 117
18, 74542, Note_on_c, 12, 81, 0
18, 74542, Control_c, 12, 11, 118
18, 74544, Note_on_c, 12, 79, 90
18, 74548, Control_c, 12, 11, 119
18, 74553, Control_c, 12, 11, 120
18, 74559, Control_c, 12, 11, 121
18, 74564, Control_c, 12, 11, 122
18, 74570, Control_c, 12, 11, 123
18, 74575, Control_c, 12, 11, 124
18, 74581, Control_c, 12, 11, 125
18, 74586, Control_c, 12, 11, 126
18, 74590, Note_on_c, 12, 79, 0
18, 74592, Control_c, 12, 11, 127
18, 74592, Note_on_c, 12, 81, 92
18, 74624, Note_on_c, 12, 81, 0
18, 74976, Control_c, 12, 11, 92
18, 74976, Note_on_c, 12, 81, 91
18, 74981, Control_c, 12, 11, 93
18, 74986, Control_c, 12, 11, 94
18, 74992, Control_c, 12, 11, 95
18, 74997, Control_c, 12, 11, 96
18, 75003, Control_c, 12, 11, 97
18, 75008, Control_c, 12, 11, 98
18, 75014, Control_c, 12, 11, 99
18, 75019, Control_c, 12, 11, 100
18, 75025, Control_c, 12, 11, 101
18, 75030, Control_c, 12, 11, 102
18, 75036, Control_c, 12, 11, 103
18, 75041, Control_c, 12, 11, 104
18, 75047, Control_c, 12, 11, 105
18, 75052, Control_c, 12, 11, 106
18, 75058, Control_c, 12, 11, 107
18, 75063, Control_c, 12, 11, 108
18, 75069, Control_c, 12, 11, 109
18, 75074, Control_c, 12, 11, 110
18, 75080, Control_c, 12, 11, 111
18, 75085, Control_c, 12, 11, 112
18, 75091, Control_c, 12, 11, 113
18, 75096, Control_c, 12, 11, 114
18, 75102, Control_c, 12, 11, 115
18, 75107, Control_c, 12, 11, 116
18, 75113, Control_c, 12, 11, 117
18, 75118, Note_on_c, 12, 81, 0
18, 75118, Control_c, 12, 11, 118
18, 75120, Note_on_c, 12, 79, 97
18, 75124, Control_c, 12, 11, 119
18, 75129, Control_c, 12, 11, 120
18, 75135, Control_c, 12, 11, 121
18, 75140, Control_c, 12, 11, 122
18, 75146, Control_c, 12, 11, 123
18, 75151, Control_c, 12, 11, 124
18, 75157, Control_c, 12, 11, 125
18, 75162, Control_c, 12, 11, 126
18, 75166, Note_on_c, 12, 79, 0
18, 75168, Control_c, 12, 11, 127
18, 75552, Control_c, 12, 11, 92
18, 75552, Note_on_c, 12, 84, 91
18, 75557, Control_c, 12, 11, 93
18, 75562, Control_c, 12, 11, 94
18, 75568, Control_c, 12, 11, 95
18, 75573, Control_c, 12, 11, 96
18, 75579, Control_c, 12, 11, 97
18, 75584, Control_c, 12, 11, 98
18, 75590, Control_c, 12, 11, 99
18, 75595, Control_c, 12, 11, 100
18, 75601, Control_c, 12, 11, 101
18, 75606, Control_c, 12, 11, 102
18, 75612, Control_c, 12, 11, 103
18, 75617, Control_c, 12, 11, 104
18, 75623, Control_c, 12, 11, 105
18, 75628, Control_c, 12, 11, 106
18, 75634, Control_c, 12, 11, 107
18, 75639, Control_c, 12, 11, 108
18, 75645, Control_c, 12, 11, 109
18, 75650, Control_c, 12, 11, 110
18, 75656, Control_c, 12, 11, 111
18, 75661, Control_c, 12, 11, 112
18, 75667, Control_c, 12, 11, 113
18, 75672, Control_c, 12, 11, 114
18, 75678, Control_c, 12, 11, 115
18, 75683, Control_c, 12, 11, 116
18, 75689, Control_c, 12, 11, 117
18, 75694, Note_on_c, 12, 84, 0
18, 75694, Control_c, 12, 11, 118
18, 75696, Note_on_c, 12, 82, 91
18, 75700, Control_c, 12, 11, 119
18, 75705, Control_c, 12, 11, 120
18, 75711, Control_c, 12, 11, 121
18, 75716, Control_c, 12, 11, 122
18, 75722, Control_c, 12, 11, 123
18, 75727, Control_c, 12, 11, 124
18, 75733, Control_c, 12, 11, 125
18, 75738, Control_c, 12, 11, 126
18, 75742, Note_on_c, 12, 82, 0
18, 75744, Control_c, 12, 11, 127
18, 75744, Note_on_c, 12, 84, 94
18, 75776, Note_on_c, 12, 84, 0
18, 76128, Control_c, 12, 11, 92
18, 76128, Note_on_c, 12, 84, 89
18, 76133, Control_c, 12, 11, 93
18, 76138, Control_c, 12, 11, 94
18, 76144, Control_c, 12, 11, 95
18, 76149, Control_c, 12, 11, 96
18, 76155, Control_c, 12, 11, 97
18, 76160, Control_c, 12, 11, 98
18, 76166, Control_c, 12, 11, 99
18, 76171, Control_c, 12, 11, 100
18, 76177, Control_c, 12, 11, 101
18, 76182, Control_c, 12, 11, 102
18, 76188, Control_c, 12, 11, 103
18, 76193, Control_c, 12, 11, 104
18, 76199, Control_c, 12, 11, 105
18, 76204, Control_c, 12, 11, 106
18, 76210, Control_c, 12, 11, 107
18, 76215, Control_c, 12, 11, 108
18, 76221, Control_c, 12, 11, 109
18, 76226, Control_c, 12, 11, 110
18, 76232, Control_c, 12, 11, 111
18, 76237, Control_c, 12, 11, 112
18, 76243, Control_c, 12, 11, 113
18, 76248, Control_c, 12, 11, 114
18, 76254, Control_c, 12, 11, 115
18, 76259, Control_c, 12, 11, 116
18, 76265, Control_c, 12, 11, 117
18, 76270, Note_on_c, 12, 84, 0
18, 76270, Control_c, 12, 11, 118
18, 76272, Note_on_c, 12, 82, 87
18, 76276, Control_c, 12, 11, 119
18, 76281, Control_c, 12, 11, 120
18, 76287, Control_c, 12, 11, 121
18, 76292, Control_c, 12, 11, 122
18, 76298, Control_c, 12, 11, 123
18, 76303, Control_c, 12, 11, 124
18, 76309, Control_c, 12, 11, 125
18, 76314, Control_c, 12, 11, 126
18, 76318, Note_on_c, 12, 82, 0
18, 76320, Control_c, 12, 11, 127
18, 76320, Program_c, 12, 44
18, 76320, Control_c, 12, 11, 75
18, 76320, Note_on_c, 12, 75, 59
18, 76608, Control_c, 12, 11, 75
18, 76609, Control_c, 12, 11, 76
18, 76611, Control_c, 12, 11, 77
18, 76613, Control_c, 12, 11, 78
18, 76615, Control_c, 12, 11, 79
18, 76617, Control_c, 12, 11, 80
18, 76619, Control_c, 12, 11, 81
18, 76620, Control_c, 12, 11, 82
18, 76622, Control_c, 12, 11, 83
18, 76624, Control_c, 12, 11, 84
18, 76626, Control_c, 12, 11, 85
18, 76628, Control_c, 12, 11, 86
18, 76630, Control_c, 12, 11, 87
18, 76632, Control_c, 12, 11, 88
18, 76633, Control_c, 12, 11, 89
18, 76635, Control_c, 12, 11, 90
18, 76637, Control_c, 12, 11, 91
18, 76639, Control_c, 12, 11, 92
18, 76641, Control_c, 12, 11, 93
18, 76643, Control_c, 12, 11, 94
18, 76644, Control_c, 12, 11, 95
18, 76646, Control_c, 12, 11, 96
18, 76648, Control_c, 12, 11, 97
18, 76650, Control_c, 12, 11, 98
18, 76652, Control_c, 12, 11, 99
18, 76654, Control_c, 12, 11, 100
18, 76656, Control_c, 12, 11, 101
18, 76657, Control_c, 12, 11, 102
18, 76659, Control_c, 12, 11, 103
18, 76661, Control_c, 12, 11, 104
18, 76663, Control_c, 12, 11, 105
18, 76665, Control_c, 12, 11, 106
18, 76667, Control_c, 12, 11, 107
18, 76668, Control_c, 12, 11, 108
18, 76670, Control_c, 12, 11, 109
18, 76672, Control_c, 12, 11, 110
18, 76674, Control_c, 12, 11, 111
18, 76676, Control_c, 12, 11, 112
18, 76678, Control_c, 12, 11, 113
18, 76680, Control_c, 12, 11, 114
18, 76681, Control_c, 12, 11, 115
18, 76683, Control_c, 12, 11, 116
18, 76685, Control_c, 12, 11, 117
18, 76687, Control_c, 12, 11, 118
18, 76689, Control_c, 12, 11, 119
18, 76691, Control_c, 12, 11, 120
18, 76692, Control_c, 12, 11, 121
18, 76694, Control_c, 12, 11, 122
18, 76696, Control_c, 12, 11, 123
18, 76698, Control_c, 12, 11, 124
18, 76700, Control_c, 12, 11, 125
18, 76702, Note_on_c, 12, 75, 0
18, 76702, Control_c, 12, 11, 126
18, 76704, Control_c, 12, 11, 127
18, 76704, Note_on_c, 12, 76, 64
18, 76864, Note_on_c, 12, 76, 0
18, 76896, Control_c, 12, 11, 75
18, 76896, Note_on_c, 12, 75, 56
18, 77184, Control_c, 12, 11, 75
18, 77185, Control_c, 12, 11, 76
18, 77187, Control_c, 12, 11, 77
18, 77189, Control_c, 12, 11, 78
18, 77191, Control_c, 12, 11, 79
18, 77193, Control_c, 12, 11, 80
18, 77195, Control_c, 12, 11, 81
18, 77196, Control_c, 12, 11, 82
18, 77198, Control_c, 12, 11, 83
18, 77200, Control_c, 12, 11, 84
18, 77202, Control_c, 12, 11, 85
18, 77204, Control_c, 12, 11, 86
18, 77206, Control_c, 12, 11, 87
18, 77208, Control_c, 12, 11, 88
18, 77209, Control_c, 12, 11, 89
18, 77211, Control_c, 12, 11, 90
18, 77213, Control_c, 12, 11, 91
18, 77215, Control_c, 12, 11, 92
18, 77217, Control_c, 12, 11, 93
18, 77219, Control_c, 12, 11, 94
18, 77220, Control_c, 12, 11, 95
18, 77222, Control_c, 12, 11, 96
18, 77224, Control_c, 12, 11, 97
18, 77226, Control_c, 12, 11, 98
18, 77228, Control_c, 12, 11, 99
18, 77230, Control_c, 12, 11, 100
18, 77232, Control_c, 12, 11, 101
18, 77233, Control_c, 12, 11, 102
18, 77235, Control_c, 12, 11, 103
18, 77237, Control_c, 12, 11, 104
18, 77239, Control_c, 12, 11, 105
18, 77241, Control_c, 12, 11, 106
18, 77243, Control_c, 12, 11, 107
18, 77244, Control_c, 12, 11, 108
18, 77246, Control_c, 12, 11, 109
18, 77248, Control_c, 12, 11, 110
18, 77250, Control_c, 12, 11, 111
18, 77252, Control_c, 12, 11, 112
18, 77254, Control_c, 12, 11, 113
18, 77256, Control_c, 12, 11, 114
18, 77257, Control_c, 12, 11, 115
18, 77259, Control_c, 12, 11, 116
18, 77261, Control_c, 12, 11, 117
18, 77263, Control_c, 12, 11, 118
18, 77265, Control_c, 12, 11, 119
18, 77267, Control_c, 12, 11, 120
18, 77268, Control_c, 12, 11, 121
18, 77270, Control_c, 12, 11, 122
18, 77272, Control_c, 12, 11, 123
18, 77274, Control_c, 12, 11, 124
18, 77276, Control_c, 12, 11, 125
18, 77278, Note_on_c, 12, 75, 0
18, 77278, Control_c, 12, 11, 126
18, 77280, Control_c, 12, 11, 127
18, 77280, Note_on_c, 12, 76, 64
18, 77440, Note_on_c, 12, 76, 0
18, 77472, Control_c, 12, 11, 75
18, 77472, Note_on_c, 12, 79, 113
18, 77494, Control_c, 12, 11, 76
18, 77516, Control_c, 12, 11, 77
18, 77538, Control_c, 12, 11, 78
18, 77560, Control_c, 12, 11, 79
18, 77582, Control_c, 12, 11, 80
18, 77604, Control_c, 12, 11, 81
18, 77627, Control_c, 12, 11, 82
18, 77649, Control_c, 12, 11, 83
18, 77671, Control_c, 12, 11, 84
18, 77693, Control_c, 12, 11, 85
18, 77715, Control_c, 12, 11, 86
18, 77737, Control_c, 12, 11, 87
18, 77760, Control_c, 12, 11, 88
18, 77782, Control_c, 12, 11, 89
18, 77804, Control_c, 12, 11, 90
18, 77826, Control_c, 12, 11, 91
18, 77848, Control_c, 12, 11, 92
18, 77854, Note_on_c, 12, 79, 0
18, 77856, Note_on_c, 12, 81, 107
18, 77870, Control_c, 12, 11, 93
18, 77892, Control_c, 12, 11, 94
18, 77915, Control_c, 12, 11, 95
18, 77937, Control_c, 12, 11, 96
18, 77959, Control_c, 12, 11, 97
18, 77981, Control_c, 12, 11, 98
18, 78003, Control_c, 12, 11, 99
18, 78016, Note_on_c, 12, 81, 0
18, 78025, Control_c, 12, 11, 100
18, 78048, Control_c, 12, 11, 101
18, 78048, Note_on_c, 12, 79, 112
18, 78070, Control_c, 12, 11, 102
18, 78092, Control_c, 12, 11, 103
18, 78114, Control_c, 12, 11, 104
18, 78136, Control_c, 12, 11, 105
18, 78158, Control_c, 12, 11, 106
18, 78180, Control_c, 12, 11, 107
18, 78203, Control_c, 12, 11, 108
18, 78225, Control_c, 12, 11, 109
18, 78247, Control_c, 12, 11, 110
18, 78269, Control_c, 12, 11, 111
18, 78291, Control_c, 12, 11, 112
18, 78313, Control_c, 12, 11, 113
18, 78336, Control_c, 12, 11, 114
18, 78358, Control_c, 12, 11, 115
18, 78380, Control_c, 12, 11, 116
18, 78402, Control_c, 12, 11, 117
18, 78424, Control_c, 12, 11, 118
18, 78430, Note_on_c, 12, 79, 0
18, 78432, Note_on_c, 12, 81, 109
18, 78446, Control_c, 12, 11, 119
18, 78468, Control_c, 12, 11, 120
18, 78491, Control_c, 12, 11, 121
18, 78513, Control_c, 12, 11, 122
18, 78535, Control_c, 12, 11, 123
18, 78557, Control_c, 12, 11, 124
18, 78579, Control_c, 12, 11, 125
18, 78592, Note_on_c, 12, 81, 0
18, 78601, Control_c, 12, 11, 126
18, 78624, Control_c, 12, 11, 127
18, 78624, Program_c, 12, 48
18, 78624, Control_c, 12, 11, 127
18, 78624, Note_on_c, 12, 82, 111
18, 78632, Control_c, 12, 11, 126
18, 78640, Control_c, 12, 11, 125
18, 78648, Control_c, 12, 11, 124
18, 78656, Control_c, 12, 11, 123
18, 78665, Control_c, 12, 11, 122
18, 78673, Control_c, 12, 11, 121
18, 78681, Control_c, 12, 11, 120
18, 78689, Control_c, 12, 11, 119
18, 78698, Control_c, 12, 11, 118
18, 78706, Control_c, 12, 11, 117
18, 78714, Control_c, 12, 11, 116
18, 78718, Note_on_c, 12, 82, 0
18, 78720, Note_on_c, 12, 79, 105
18, 78722, Control_c, 12, 11, 115
18, 78730, Control_c, 12, 11, 114
18, 78739, Control_c, 12, 11, 113
18, 78747, Control_c, 12, 11, 112
18, 78755, Control_c, 12, 11, 111
18, 78763, Control_c, 12, 11, 110
18, 78772, Control_c, 12, 11, 109
18, 78780, Control_c, 12, 11, 108
18, 78788, Control_c, 12, 11, 107
18, 78796, Control_c, 12, 11, 106
18, 78805, Control_c, 12, 11, 105
18, 78813, Control_c, 12, 11, 104
18, 78821, Control_c, 12, 11, 103
18, 78829, Control_c, 12, 11, 102
18, 78837, Control_c, 12, 11, 101
18, 78846, Control_c, 12, 11, 100
18, 78854, Control_c, 12, 11, 99
18, 78862, Note_on_c, 12, 79, 0
18, 78862, Control_c, 12, 11, 98
18, 78864, Note_on_c, 12, 70, 107
18, 78870, Control_c, 12, 11, 97
18, 78879, Control_c, 12, 11, 96
18, 78887, Control_c, 12, 11, 95
18, 78895, Control_c, 12, 11, 94
18, 78903, Control_c, 12, 11, 93
18, 78910, Note_on_c, 12, 70, 0
18, 78912, Control_c, 12, 11, 92
18, 78912, Note_on_c, 12, 67, 110
18, 78920, Control_c, 12, 11, 93
18, 78928, Control_c, 12, 11, 94
18, 78936, Control_c, 12, 11, 95
18, 78944, Control_c, 12, 11, 96
18, 78953, Control_c, 12, 11, 97
18, 78961, Control_c, 12, 11, 98
18, 78969, Control_c, 12, 11, 99
18, 78977, Control_c, 12, 11, 100
18, 78986, Control_c, 12, 11, 101
18, 78994, Control_c, 12, 11, 102
18, 79002, Control_c, 12, 11, 103
18, 79006, Note_on_c, 12, 67, 0
18, 79008, Note_on_c, 12, 70, 109
18, 79010, Control_c, 12, 11, 104
18, 79018, Control_c, 12, 11, 105
18, 79027, Control_c, 12, 11, 106
18, 79035, Control_c, 12, 11, 107
18, 79043, Control_c, 12, 11, 108
18, 79051, Control_c, 12, 11, 109
18, 79060, Control_c, 12, 11, 110
18, 79068, Control_c, 12, 11, 111
18, 79076, Control_c, 12, 11, 112
18, 79084, Control_c, 12, 11, 113
18, 79093, Control_c, 12, 11, 114
18, 79101, Control_c, 12, 11, 115
18, 79109, Control_c, 12, 11, 116
18, 79117, Control_c, 12, 11, 117
18, 79125, Control_c, 12, 11, 118
18, 79134, Control_c, 12, 11, 119
18, 79142, Control_c, 12, 11, 120
18, 79150, Note_on_c, 12, 70, 0
18, 79150, Control_c, 12, 11, 121
18, 79152, Note_on_c, 12, 79, 106
18, 79158, Control_c, 12, 11, 122
18, 79167, Control_c, 12, 11, 123
18, 79175, Control_c, 12, 11, 124
18, 79183, Control_c, 12, 11, 125
18, 79191, Control_c, 12, 11, 126
18, 79198, Note_on_c, 12, 79, 0
18, 79200, Control_c, 12, 11, 127
18, 79200, Control_c, 12, 11, 127
18, 79200, Note_on_c, 12, 82, 103
18, 79208, Control_c, 12, 11, 126
18, 79216, Control_c, 12, 11, 125
18, 79224, Control_c, 12, 11, 124
18, 79232, Control_c, 12, 11, 123
18, 79241, Control_c, 12, 11, 122
18, 79249, Control_c, 12, 11, 121
18, 79257, Control_c, 12, 11, 120
18, 79265, Control_c, 12, 11, 119
18, 79274, Control_c, 12, 11, 118
18, 79282, Control_c, 12, 11, 117
18, 79290, Control_c, 12, 11, 116
18, 79294, Note_on_c, 12, 82, 0
18, 79296, Note_on_c, 12, 79, 111
18, 79298, Control_c, 12, 11, 115
18, 79306, Control_c, 12, 11, 114
18, 79315, Control_c, 12, 11, 113
18, 79323, Control_c, 12, 11, 112
18, 79331, Control_c, 12, 11, 111
18, 79339, Control_c, 12, 11, 110
18, 79348, Control_c, 12, 11, 109
18, 79356, Control_c, 12, 11, 108
18, 79364, Control_c, 12, 11, 107
18, 79372, Control_c, 12, 11, 106
18, 79381, Control_c, 12, 11, 105
18, 79389, Control_c, 12, 11, 104
18, 79397, Control_c, 12, 11, 103
18, 79405, Control_c, 12, 11, 102
18, 79413, Control_c, 12, 11, 101
18, 79422, Control_c, 12, 11, 100
18, 79430, Control_c, 12, 11, 99
18, 79438, Note_on_c, 12, 79, 0
18, 79438, Control_c, 12, 11, 98
18, 79440, Note_on_c, 12, 70, 113
18, 79446, Control_c, 12, 11, 97
18, 79455, Control_c, 12, 11, 96
18, 79463, Control_c, 12, 11, 95
18, 79471, Control_c, 12, 11, 94
18, 79479, Control_c, 12, 11, 93
18, 79486, Note_on_c, 12, 70, 0
18, 79488, Control_c, 12, 11, 92
18, 79488, Note_on_c, 12, 67, 106
18, 79496, Control_c, 12, 11, 93
18, 79504, Control_c, 12, 11, 94
18, 79512, Control_c, 12, 11, 95
18, 79520, Control_c, 12, 11, 96
18, 79529, Control_c, 12, 11, 97
18, 79537, Control_c, 12, 11, 98
18, 79545, Control_c, 12, 11, 99
18, 79553, Control_c, 12, 11, 100
18, 79562, Control_c, 12, 11, 101
18, 79570, Control_c, 12, 11, 102
18, 79578, Control_c, 12, 11, 103
18, 79582, Note_on_c, 12, 67, 0
18, 79584, Note_on_c, 12, 70, 104
18, 79586, Control_c, 12, 11, 104
18, 79594, Control_c, 12, 11, 105
18, 79603, Control_c, 12, 11, 106
18, 79611, Control_c, 12, 11, 107
18, 79619, Control_c, 12, 11, 108
18, 79627, Control_c, 12, 11, 109
18, 79636, Control_c, 12, 11, 110
18, 79644, Control_c, 12, 11, 111
18, 79652, Control_c, 12, 11, 112
18, 79660, Control_c, 12, 11, 113
18, 79669, Control_c, 12, 11, 114
18, 79677, Control_c, 12, 11, 115
18, 79685, Control_c, 12, 11, 116
18, 79693, Control_c, 12, 11, 117
18, 79701, Control_c, 12, 11, 118
18, 79710, Control_c, 12, 11, 119
18, 79718, Control_c, 12, 11, 120
18, 79726, Note_on_c, 12, 70, 0
18, 79726, Control_c, 12, 11, 121
18, 79728, Note_on_c, 12, 79, 110
18, 79734, Control_c, 12, 11, 122
18, 79743, Control_c, 12, 11, 123
18, 79751, Control_c, 12, 11, 124
18, 79759, Control_c, 12, 11, 125
18, 79767, Control_c, 12, 11, 126
18, 79774, Note_on_c, 12, 79, 0
18, 79776, Control_c, 12, 11, 127
18, 79776, Control_c, 12, 11, 127
18, 79776, Note_on_c, 12, 82, 105
18, 79784, Control_c, 12, 11, 126
18, 79792, Control_c, 12, 11, 125
18, 79800, Control_c, 12, 11, 124
18, 79808, Control_c, 12, 11, 123
18, 79817, Control_c, 12, 11, 122
18, 79825, Control_c, 12, 11, 121
18, 79833, Control_c, 12, 11, 120
18, 79841, Control_c, 12, 11, 119
18, 79850, Control_c, 12, 11, 118
18, 79858, Control_c, 12, 11, 117
18, 79866, Control_c, 12, 11, 116
18, 79870, Note_on_c, 12, 82, 0
18, 79872, Note_on_c, 12, 79, 104
18, 79874, Control_c, 12, 11, 115
18, 79882, Control_c, 12, 11, 114
18, 79891, Control_c, 12, 11, 113
18, 79899, Control_c, 12, 11, 112
18, 79907, Control_c, 12, 11, 111
18, 79915, Control_c, 12, 11, 110
18, 79924, Control_c, 12, 11, 109
18, 79932, Control_c, 12, 11, 108
18, 79940, Control_c, 12, 11, 107
18, 79948, Control_c, 12, 11, 106
18, 79957, Control_c, 12, 11, 105
18, 79965, Control_c, 12, 11, 104
18, 79973, Control_c, 12, 11, 103
18, 79981, Control_c, 12, 11, 102
18, 79989, Control_c, 12, 11, 101
18, 79998, Control_c, 12, 11, 100
18, 80006, Control_c, 12, 11, 99
18, 80014, Note_on_c, 12, 79, 0
18, 80014, Control_c, 12, 11, 98
18, 80016, Note_on_c, 12, 70, 111
18, 80022, Control_c, 12, 11, 97
18, 80031, Control_c, 12, 11, 96
18, 80039, Control_c, 12, 11, 95
18, 80047, Control_c, 12, 11, 94
18, 80055, Control_c, 12, 11, 93
18, 80062, Note_on_c, 12, 70, 0
18, 80064, Control_c, 12, 11, 92
18, 80064, Note_on_c, 12, 67, 112
18, 80072, Control_c, 12, 11, 93
18, 80080, Control_c, 12, 11, 94
18, 80088, Control_c, 12, 11, 95
18, 80096, Control_c, 12, 11, 96
18, 80105, Control_c, 12, 11, 97
18, 80113, Control_c, 12, 11, 98
18, 80121, Control_c, 12, 11, 99
18, 80129, Control_c, 12, 11, 100
18, 80138, Control_c, 12, 11, 101
18, 80146, Control_c, 12, 11, 102
18, 80154, Control_c, 12, 11, 103
18, 80158, Note_on_c, 12, 67, 0
18, 80160, Note_on_c, 12, 70, 111
18, 80162, Control_c, 12, 11, 104
18, 80170, Control_c, 12, 11, 105
18, 80179, Control_c, 12, 11, 106
18, 80187, Control_c, 12, 11, 107
18, 80195, Control_c, 12, 11, 108
18, 80203, Control_c, 12, 11, 109
18, 80212, Control_c, 12, 11, 110
18, 80220, Control_c, 12, 11, 111
18, 80228, Control_c, 12, 11, 112
18, 80236, Control_c, 12, 11, 113
18, 80245, Control_c, 12, 11, 114
18, 80253, Control_c, 12, 11, 115
18, 80261, Control_c, 12, 11, 116
18, 80269, Control_c, 12, 11, 117
18, 80277, Control_c, 12, 11, 118
18, 80286, Control_c, 12, 11, 119
18, 80294, Control_c, 12, 11, 120
18, 80302, Note_on_c, 12, 70, 0
18, 80302, Control_c, 12, 11, 121
18, 80304, Note_on_c, 12, 79, 106
18, 80310, Control_c, 12, 11, 122
18, 80319, Control_c, 12, 11, 123
18, 80327, Control_c, 12, 11, 124
18, 80335, Control_c, 12, 11, 125
18, 80343, Control_c, 12, 11, 126
18, 80350, Note_on_c, 12, 79, 0
18, 80352, Control_c, 12, 11, 127
18, 80352, Control_c, 12, 11, 127
18, 80352, Note_on_c, 12, 82, 111
18, 80360, Control_c, 12, 11, 126
18, 80368, Control_c, 12, 11, 125
18, 80376, Control_c, 12, 11, 124
18, 80384, Control_c, 12, 11, 123
18, 80393, Control_c, 12, 11, 122
18, 80401, Control_c, 12, 11, 121
18, 80409, Control_c, 12, 11, 120
18, 80417, Control_c, 12, 11, 119
18, 80426, Control_c, 12, 11, 118
18, 80434, Control_c, 12, 11, 117
18, 80442, Control_c, 12, 11, 116
18, 80446, Note_on_c, 12, 82, 0
18, 80448, Note_on_c, 12, 79, 106
18, 80450, Control_c, 12, 11, 115
18, 80458, Control_c, 12, 11, 114
18, 80467, Control_c, 12, 11, 113
18, 80475, Control_c, 12, 11, 112
18, 80483, Control_c, 12, 11, 111
18, 80491, Control_c, 12, 11, 110
18, 80500, Control_c, 12, 11, 109
18, 80508, Control_c, 12, 11, 108
18, 80516, Control_c, 12, 11, 107
18, 80524, Control_c, 12, 11, 106
18, 80533, Control_c, 12, 11, 105
18, 80541, Control_c, 12, 11, 104
18, 80549, Control_c, 12, 11, 103
18, 80557, Control_c, 12, 11, 102
18, 80565, Control_c, 12, 11, 101
18, 80574, Control_c, 12, 11, 100
18, 80582, Control_c, 12, 11, 99
18, 80590, Note_on_c, 12, 79, 0
18, 80590, Control_c, 12, 11, 98
18, 80592, Note_on_c, 12, 70, 111
18, 80598, Control_c, 12, 11, 97
18, 80607, Control_c, 12, 11, 96
18, 80615, Control_c, 12, 11, 95
18, 80623, Control_c, 12, 11, 94
18, 80631, Control_c, 12, 11, 93
18, 80638, Note_on_c, 12, 70, 0
18, 80640, Control_c, 12, 11, 92
18, 80640, Note_on_c, 12, 67, 113
18, 80648, Control_c, 12, 11, 93
18, 80656, Control_c, 12, 11, 94
18, 80664, Control_c, 12, 11, 95
18, 80672, Control_c, 12, 11, 96
18, 80681, Control_c, 12, 11, 97
18, 80689, Control_c, 12, 11, 98
18, 80697, Control_c, 12, 11, 99
18, 80705, Control_c, 12, 11, 100
18, 80714, Control_c, 12, 11, 101
18, 80722, Control_c, 12, 11, 102
18, 80730, Control_c, 12, 11, 103
18, 80734, Note_on_c, 12, 67, 0
18, 80736, Note_on_c, 12, 70, 109
18, 80738, Control_c, 12, 11, 104
18, 80746, Control_c, 12, 11, 105
18, 80755, Control_c, 12, 11, 106
18, 80763, Control_c, 12, 11, 107
18, 80771, Control_c, 12, 11, 108
18, 80779, Control_c, 12, 11, 109
18, 80788, Control_c, 12, 11, 110
18, 80796, Control_c, 12, 11, 111
18, 80804, Control_c, 12, 11, 112
18, 80812, Control_c, 12, 11, 113
18, 80821, Control_c, 12, 11, 114
18, 80829, Control_c, 12, 11, 115
18, 80837, Control_c, 12, 11, 116
18, 80845, Control_c, 12, 11, 117
18, 80853, Control_c, 12, 11, 118
18, 80862, Control_c, 12, 11, 119
18, 80870, Control_c, 12, 11, 120
18, 80878, Note_on_c, 12, 70, 0
18, 80878, Control_c, 12, 11, 121
18, 80880, Note_on_c, 12, 79, 103
18, 80886, Control_c, 12, 11, 122
18, 80895, Control_c, 12, 11, 123
18, 80903, Control_c, 12, 11, 124
18, 80911, Control_c, 12, 11, 125
18, 80919, Control_c, 12, 11, 126
18, 80926, Note_on_c, 12, 79, 0
18, 80928, Control_c, 12, 11, 127
18, 80928, Note_on_c, 12, 82, 89
18, 81022, Note_on_c, 12, 82, 0
18, 81024, Note_on_c, 12, 79, 92
18, 81166, Note_on_c, 12, 79, 0
18, 81168, Note_on_c, 12, 70, 97
18, 81214, Note_on_c, 12, 70, 0
18, 81216, Note_on_c, 12, 67, 94
18, 81310, Note_on_c, 12, 67, 0
18, 81312, Note_on_c, 12, 70, 94
18, 81454, Note_on_c, 12, 70, 0
18, 81456, Note_on_c, 12, 79, 86
18, 81502, Note_on_c, 12, 79, 0
18, 81504, Note_on_c, 12, 82, 85
18, 81598, Note_on_c, 12, 82, 0
18, 81600, Note_on_c, 12, 79, 85
18, 81742, Note_on_c, 12, 79, 0
18, 81744, Note_on_c, 12, 70, 80
18, 81790, Note_on_c, 12, 70, 0
18, 81792, Note_on_c, 12, 67, 80
18, 81886, Note_on_c, 12, 67, 0
18, 81888, Note_on_c, 12, 70, 80
18, 82030, Note_on_c, 12, 70, 0
18, 82032, Note_on_c, 12, 79, 77
18, 82078, Note_on_c, 12, 79, 0
18, 82080, Note_on_c, 12, 82, 72
18, 82174, Note_on_c, 12, 82, 0
18, 82176, Note_on_c, 12, 79, 77
18, 82318, Note_on_c, 12, 79, 0
18, 82320, Note_on_c, 12, 70, 70
18, 82366, Note_on_c, 12, 70, 0
18, 82368, Note_on_c, 12, 67, 65
18, 82462, Note_on_c, 12, 67, 0
18, 82464, Note_on_c, 12, 70, 66
18, 82606, Note_on_c, 12, 70, 0
18, 82608, Note_on_c, 12, 79, 62
18, 82654, Note_on_c, 12, 79, 0
18, 82656, Note_on_c, 12, 82, 62
18, 82750, Note_on_c, 12, 82, 0
18, 82752, Note_on_c, 12, 79, 57
18, 82894, Note_on_c, 12, 79, 0
18, 82896, Note_on_c, 12, 70, 59
18, 82942, Note_on_c, 12, 70, 0
18, 82944, Note_on_c, 12, 67, 57
18, 83038, Note_on_c, 12, 67, 0
18, 83040, Note_on_c, 12, 70, 50
18, 83182, Note_on_c, 12, 70, 0
18, 83184, Note_on_c, 12, 79, 50
18, 83230, Note_on_c, 12, 79, 0
18, 83232, Note_on_c, 12, 83, 46
18, 83326, Note_on_c, 12, 83, 0
18, 83328, Note_on_c, 12, 81, 42
18, 83470, Note_on_c, 12, 81, 0
18, 83472, Note_on_c, 12, 71, 48
18, 83518, Note_on_c, 12, 71, 0
18, 83520, Note_on_c, 12, 69, 41
18, 83614, Note_on_c, 12, 69, 0
18, 83616, Note_on_c, 12, 71, 45
18, 83758, Note_on_c, 12, 71, 0
18, 83760, Note_on_c, 12, 81, 44
18, 83806, Note_on_c, 12, 81, 0
18, 83808, Note_on_c, 12, 83, 46
18, 83902, Note_on_c, 12, 83, 0
18, 83904, Note_on_c, 12, 81, 46
18, 84046, Note_on_c, 12, 81, 0
18, 84048, Note_on_c, 12, 71, 50
18, 84094, Note_on_c, 12, 71, 0
18, 84096, Note_on_c, 12, 69, 43
18, 84190, Note_on_c, 12, 69, 0
18, 84192, Note_on_c, 12, 71, 44
18, 84334, Note_on_c, 12, 71, 0
18, 84336, Note_on_c, 12, 81, 50
18, 84382, Note_on_c, 12, 81, 0
18, 84384, Note_on_c, 12, 76, 48
18, 84478, Note_on_c, 12, 76, 0
18, 84480, Note_on_c, 12, 74, 42
18, 84622, Note_on_c, 12, 74, 0
18, 84624, Note_on_c, 12, 64, 44
18, 84670, Note_on_c, 12, 64, 0
18, 84672, Note_on_c, 12, 62, 46
18, 84766, Note_on_c, 12, 62, 0
18, 84768, Note_on_c, 12, 64, 39
18, 84910, Note_on_c, 12, 64, 0
18, 84912, Note_on_c, 12, 76, 47
18, 84958, Note_on_c, 12, 76, 0
18, 84960, Note_on_c, 12, 78, 38
18, 85054, Note_on_c, 12, 78, 0
18, 85056, Note_on_c, 12, 76, 45
18, 85198, Note_on_c, 12, 76, 0
18, 85200, Note_on_c, 12, 66, 38
18, 85246, Note_on_c, 12, 66, 0
18, 85248, Note_on_c, 12, 64, 38
18, 85342, Note_on_c, 12, 64, 0
18, 85344, Note_on_c, 12, 66, 46
18, 85486, Note_on_c, 12, 66, 0
18, 85488, Note_on_c, 12, 78, 44
18, 85534, Note_on_c, 12, 78, 0
18, 85536, Note_on_c, 12, 80, 44
18, 85630, Note_on_c, 12, 80, 0
18, 85632, Note_on_c, 12, 78, 35
18, 85774, Note_on_c, 12, 78, 0
18, 85776, Note_on_c, 12, 68, 33
18, 85822, Note_on_c, 12, 68, 0
18, 85824, Note_on_c, 12, 66, 36
18, 85918, Note_on_c, 12, 66, 0
18, 85920, Note_on_c, 12, 68, 37
18, 86062, Note_on_c, 12, 68, 0
18, 86064, Note_on_c, 12, 80, 39
18, 86110, Note_on_c, 12, 80, 0
18, 86400, Program_c, 12, 45
18, 86400, Note_on_c, 12, 56, 28
18, 86542, Note_on_c, 12, 56, 0
18, 86544, Note_on_c, 12, 56, 26
18, 86686, Note_on_c, 12, 56, 0
18, 86976, Note_on_c, 12, 56, 28
18, 87118, Note_on_c, 12, 56, 0
18, 87120, Note_on_c, 12, 56, 27
18, 87262, Note_on_c, 12, 56, 0
18, 87552, Note_on_c, 12, 56, 28
18, 87694, Note_on_c, 12, 56, 0
18, 87696, Note_on_c, 12, 56, 28
18, 87838, Note_on_c, 12, 56, 0
18, 88128, Note_on_c, 12, 56, 28
18, 88270, Note_on_c, 12, 56, 0
18, 88272, Note_on_c, 12, 56, 34
18, 88414, Note_on_c, 12, 56, 0
18, 88704, Note_on_c, 12, 58, 26
18, 88960, Note_on_c, 12, 58, 0
18, 89280, Note_on_c, 12, 58, 33
18, 89536, Note_on_c, 12, 58, 0
18, 89568, Program_c, 12, 48
18, 89568, Note_on_c, 12, 82, 31
18, 89662, Note_on_c, 12, 82, 0
18, 89664, Note_on_c, 12, 78, 32
18, 89806, Note_on_c, 12, 78, 0
18, 89808, Note_on_c, 12, 70, 32
18, 89950, Note_on_c, 12, 70, 0
18, 90144, Note_on_c, 12, 82, 34
18, 90238, Note_on_c, 12, 82, 0
18, 90240, Note_on_c, 12, 78, 33
18, 90382, Note_on_c, 12, 78, 0
18, 90384, Note_on_c, 12, 70, 29
18, 90526, Note_on_c, 12, 70, 0
18, 90720, Note_on_c, 12, 82, 30
18, 90814, Note_on_c, 12, 82, 0
18, 90816, Note_on_c, 12, 78, 25
18, 90958, Note_on_c, 12, 78, 0
18, 90960, Note_on_c, 12, 70, 29
18, 91102, Note_on_c, 12, 70, 0
18, 91296, Note_on_c, 12, 82, 32
18, 91390, Note_on_c, 12, 82, 0
18, 91392, Note_on_c, 12, 78, 31
18, 91534, Note_on_c, 12, 78, 0
18, 91536, Note_on_c, 12, 70, 27
18, 91678, Note_on_c, 12, 70, 0
18, 91872, Note_on_c, 12, 82, 25
18, 91966, Note_on_c, 12, 82, 0
18, 91968, Note_on_c, 12, 78, 31
18, 92110, Note_on_c, 12, 78, 0
18, 92112, Note_on_c, 12, 70, 33
18, 92254, Note_on_c, 12, 70, 0
18, 92448, Note_on_c, 12, 82, 35
18, 92542, Note_on_c, 12, 82, 0
18, 92544, Note_on_c, 12, 78, 32
18, 92686, Note_on_c, 12, 78, 0
18, 92688, Note_on_c, 12, 70, 28
18, 92830, Note_on_c, 12, 70, 0
18, 93024, Note_on_c, 12, 82, 32
18, 93118, Note_on_c, 12, 82, 0
18, 93120, Note_on_c, 12, 78, 32
18, 93262, Note_on_c, 12, 78, 0
18, 93264, Note_on_c, 12, 70, 33
18, 93406, Note_on_c, 12, 70, 0
18, 93600, Note_on_c, 12, 82, 30
18, 93694, Note_on_c, 12, 82, 0
18, 93696, Note_on_c, 12, 78, 29
18, 93838, Note_on_c, 12, 78, 0
18, 93840, Note_on_c, 12, 70, 29
18, 93982, Note_on_c, 12, 70, 0
18, 94176, Control_c, 12, 11, 92
18, 94176, Note_on_c, 12, 77, 41
18, 94176, Note_on_c, 12, 89, 47
18, 94186, Control_c, 12, 11, 93
18, 94197, Control_c, 12, 11, 94
18, 94208, Control_c, 12, 11, 95
18, 94219, Control_c, 12, 11, 96
18, 94230, Control_c, 12, 11, 97
18, 94238, Note_on_c, 12, 77, 0
18, 94238, Note_on_c, 12, 89, 0
18, 94240, Note_on_c, 12, 72, 43
18, 94240, Note_on_c, 12, 84, 45
18, 94241, Control_c, 12, 11, 98
18, 94252, Control_c, 12, 11, 99
18, 94263, Control_c, 12, 11, 100
18, 94274, Control_c, 12, 11, 101
18, 94285, Control_c, 12, 11, 102
18, 94296, Control_c, 12, 11, 103
18, 94307, Control_c, 12, 11, 104
18, 94318, Control_c, 12, 11, 105
18, 94329, Control_c, 12, 11, 106
18, 94334, Note_on_c, 12, 72, 0
18, 94334, Note_on_c, 12, 84, 0
18, 94336, Note_on_c, 12, 65, 45
18, 94336, Note_on_c, 12, 77, 50
18, 94340, Control_c, 12, 11, 107
18, 94351, Control_c, 12, 11, 108
18, 94362, Control_c, 12, 11, 109
18, 94366, Note_on_c, 12, 65, 0
18, 94366, Note_on_c, 12, 77, 0
18, 94368, Note_on_c, 12, 65, 43
18, 94368, Note_on_c, 12, 77, 46
18, 94373, Control_c, 12, 11, 110
18, 94384, Control_c, 12, 11, 111
18, 94395, Control_c, 12, 11, 112
18, 94406, Control_c, 12, 11, 113
18, 94417, Control_c, 12, 11, 114
18, 94428, Control_c, 12, 11, 115
18, 94430, Note_on_c, 12, 65, 0
18, 94430, Note_on_c, 12, 77, 0
18, 94432, Note_on_c, 12, 72, 45
18, 94432, Note_on_c, 12, 84, 40
18, 94439, Control_c, 12, 11, 116
18, 94450, Control_c, 12, 11, 117
18, 94461, Control_c, 12, 11, 118
18, 94472, Control_c, 12, 11, 119
18, 94483, Control_c, 12, 11, 120
18, 94494, Note_on_c, 12, 72, 0
18, 94494, Note_on_c, 12, 84, 0
18, 94494, Control_c, 12, 11, 121
18, 94496, Note_on_c, 12, 77, 48
18, 94496, Note_on_c, 12, 89, 46
18, 94505, Control_c, 12, 11, 122
18, 94516, Control_c, 12, 11, 123
18, 94527, Control_c, 12, 11, 124
18, 94538, Control_c, 12, 11, 125
18, 94549, Control_c, 12, 11, 126
18, 94558, Note_on_c, 12, 77, 0
18, 94558, Note_on_c, 12, 89, 0
18, 94560, Control_c, 12, 11, 127
18, 94944, Control_c, 12, 11, 127
18, 94944, Note_on_c, 12, 77, 26
18, 94944, Note_on_c, 12, 89, 26
18, 94954, Control_c, 12, 11, 126
18, 94965, Control_c, 12, 11, 125
18, 94976, Control_c, 12, 11, 124
18, 94987, Control_c, 12, 11, 123
18, 94998, Control_c, 12, 11, 122
18, 95006, Note_on_c, 12, 77, 0
18, 95006, Note_on_c, 12, 89, 0
18, 95008, Note_on_c, 12, 72, 33
18, 95008, Note_on_c, 12, 84, 30
18, 95009, Control_c, 12, 11, 121
18, 95020, Control_c, 12, 11, 120
18, 95031, Control_c, 12, 11, 119
18, 95042, Control_c, 12, 11, 118
18, 95053, Control_c, 12, 11, 117
18, 95064, Control_c, 12, 11, 116
18, 95075, Control_c, 12, 11, 115
18, 95086, Control_c, 12, 11, 114
18, 95097, Control_c, 12, 11, 113
18, 95102, Note_on_c, 12, 72, 0
18, 95102, Note_on_c, 12, 84, 0
18, 95104, Note_on_c, 12, 65, 26
18, 95104, Note_on_c, 12, 77, 27
18, 95108, Control_c, 12, 11, 112
18, 95119, Control_c, 12, 11, 111
18, 95130, Control_c, 12, 11, 110
18, 95134, Note_on_c, 12, 65, 0
18, 95134, Note_on_c, 12, 77, 0
18, 95136, Note_on_c, 12, 65, 33
18, 95136, Note_on_c, 12, 77, 34
18, 95141, Control_c, 12, 11, 109
18, 95152, Control_c, 12, 11, 108
18, 95163, Control_c, 12, 11, 107
18, 95174, Control_c, 12, 11, 106
18, 95185, Control_c, 12, 11, 105
18, 95196, Control_c, 12, 11, 104
18, 95198, Note_on_c, 12, 65, 0
18, 95198, Note_on_c, 12, 77, 0
18, 95200, Note_on_c, 12, 72, 28
18, 95200, Note_on_c, 12, 84, 33
18, 95207, Control_c, 12, 11, 103
18, 95218, Control_c, 12, 11, 102
18, 95229, Control_c, 12, 11, 101
18, 95240, Control_c, 12, 11, 100
18, 95251, Control_c, 12, 11, 99
18, 95262, Note_on_c, 12, 72, 0
18, 95262, Note_on_c, 12, 84, 0
18, 95262, Control_c, 12, 11, 98
18, 95264, Note_on_c, 12, 77, 29
18, 95264, Note_on_c, 12, 89, 32
18, 95273, Control_c, 12, 11, 97
18, 95284, Control_c, 12, 11, 96
18, 95295, Control_c, 12, 11, 95
18, 95306, Control_c, 12, 11, 94
18, 95317, Control_c, 12, 11, 93
18, 95326, Note_on_c, 12, 77, 0
18, 95326, Note_on_c, 12, 89, 0
18, 95328, Control_c, 12, 11, 92
18, 95648, Note_on_c, 12, 71, 26
18, 95648, Note_on_c, 12, 83, 25
18, 95774, Note_on_c, 12, 71, 0
18, 95774, Note_on_c, 12, 83, 0
18, 95776, Note_on_c, 12, 65, 32
18, 95776, Note_on_c, 12, 77, 35
18, 95838, Note_on_c, 12, 65, 0
18, 95838, Note_on_c, 12, 77, 0
18, 95840, Note_on_c, 12, 59, 30
18, 95840, Note_on_c, 12, 71, 35
18, 95966, Note_on_c, 12, 59, 0
18, 95966, Note_on_c, 12, 71, 0
18, 95968, Note_on_c, 12, 65, 32
18, 95968, Note_on_c, 12, 77, 33
18, 96030, Note_on_c, 12, 65, 0
18, 96030, Note_on_c, 12, 77, 0
18, 96032, Note_on_c, 12, 71, 33
18, 96032, Note_on_c, 12, 83, 26
18, 96094, Note_on_c, 12, 71, 0
18, 96094, Note_on_c, 12, 83, 0
18, 96480, Control_c, 12, 11, 64
18, 96480, Note_on_c, 12, 82, 31
18, 96486, Control_c, 12, 11, 65
18, 96492, Control_c, 12, 11, 66
18, 96498, Control_c, 12, 11, 67
18, 96504, Control_c, 12, 11, 68
18, 96510, Control_c, 12, 11, 69
18, 96516, Control_c, 12, 11, 70
18, 96522, Control_c, 12, 11, 71
18, 96528, Control_c, 12, 11, 72
18, 96534, Control_c, 12, 11, 73
18, 96540, Control_c, 12, 11, 74
18, 96547, Control_c, 12, 11, 75
18, 96553, Control_c, 12, 11, 76
18, 96559, Control_c, 12, 11, 77
18, 96565, Control_c, 12, 11, 78
18, 96571, Control_c, 12, 11, 79
18, 96577, Control_c, 12, 11, 80
18, 96583, Control_c, 12, 11, 81
18, 96589, Control_c, 12, 11, 82
18, 96595, Control_c, 12, 11, 83
18, 96601, Control_c, 12, 11, 84
18, 96608, Control_c, 12, 11, 85
18, 96614, Control_c, 12, 11, 86
18, 96620, Control_c, 12, 11, 87
18, 96626, Control_c, 12, 11, 88
18, 96632, Control_c, 12, 11, 89
18, 96638, Control_c, 12, 11, 90
18, 96644, Control_c, 12, 11, 91
18, 96650, Control_c, 12, 11, 92
18, 96656, Control_c, 12, 11, 93
18, 96662, Control_c, 12, 11, 94
18, 96668, Control_c, 12, 11, 95
18, 96675, Control_c, 12, 11, 96
18, 96681, Control_c, 12, 11, 97
18, 96687, Control_c, 12, 11, 98
18, 96693, Control_c, 12, 11, 99
18, 96699, Control_c, 12, 11, 100
18, 96705, Control_c, 12, 11, 101
18, 96711, Control_c, 12, 11, 102
18, 96717, Control_c, 12, 11, 103
18, 96723, Control_c, 12, 11, 104
18, 96729, Control_c, 12, 11, 105
18, 96736, Control_c, 12, 11, 106
18, 96742, Control_c, 12, 11, 107
18, 96748, Control_c, 12, 11, 108
18, 96754, Control_c, 12, 11, 109
18, 96760, Control_c, 12, 11, 110
18, 96766, Control_c, 12, 11, 111
18, 96772, Control_c, 12, 11, 112
18, 96778, Control_c, 12, 11, 113
18, 96784, Control_c, 12, 11, 114
18, 96790, Control_c, 12, 11, 115
18, 96796, Control_c, 12, 11, 116
18, 96803, Control_c, 12, 11, 117
18, 96809, Control_c, 12, 11, 118
18, 96815, Control_c, 12, 11, 119
18, 96821, Control_c, 12, 11, 120
18, 96827, Control_c, 12, 11, 121
18, 96833, Control_c, 12, 11, 122
18, 96839, Control_c, 12, 11, 123
18, 96845, Control_c, 12, 11, 124
18, 96851, Control_c, 12, 11, 125
18, 96857, Control_c, 12, 11, 126
18, 96864, Control_c, 12, 11, 127
18, 97632, Note_on_c, 12, 82, 0
18, 97632, Note_on_c, 12, 81, 25
18, 98784, Note_on_c, 12, 81, 0
18, 98784, Note_on_c, 12, 80, 25
18, 100512, Note_on_c, 12, 80, 0
18, 100512, Note_on_c, 12, 76, 34
18, 101088, Note_on_c, 12, 76, 0
18, 101088, Note_on_c, 12, 77, 35
18, 103392, Note_on_c, 12, 77, 0
18, 103392, Control_c, 12, 11, 127
18, 103392, Note_on_c, 12, 76, 25
18, 103424, Control_c, 12, 11, 126
18, 103457, Control_c, 12, 11, 125
18, 103490, Control_c, 12, 11, 124
18, 103523, Control_c, 12, 11, 123
18, 103556, Control_c, 12, 11, 122
18, 103589, Control_c, 12, 11, 121
18, 103622, Control_c, 12, 11, 120
18, 103655, Control_c, 12, 11, 119
18, 103688, Control_c, 12, 11, 118
18, 103721, Control_c, 12, 11, 117
18, 103754, Control_c, 12, 11, 116
18, 103786, Control_c, 12, 11, 115
18, 103819, Control_c, 12, 11, 114
18, 103852, Control_c, 12, 11, 113
18, 103885, Control_c, 12, 11, 112
18, 103918, Control_c, 12, 11, 111
18, 103951, Control_c, 12, 11, 110
18, 103984, Control_c, 12, 11, 109
18, 104017, Control_c, 12, 11, 108
18, 104050, Control_c, 12, 11, 107
18, 104083, Control_c, 12, 11, 106
18, 104116, Control_c, 12, 11, 105
18, 104149, Control_c, 12, 11, 104
18, 104181, Control_c, 12, 11, 103
18, 104214, Control_c, 12, 11, 102
18, 104247, Control_c, 12, 11, 101
18, 104280, Control_c, 12, 11, 100
18, 104313, Control_c, 12, 11, 99
18, 104346, Control_c, 12, 11, 98
18, 104379, Control_c, 12, 11, 97
18, 104412, Control_c, 12, 11, 96
18, 104445, Control_c, 12, 11, 95
18, 104478, Control_c, 12, 11, 94
18, 104511, Control_c, 12, 11, 93
18, 104544, Note_on_c, 12, 76, 0
18, 104544, Control_c, 12, 11, 92
18, 104544, Note_on_c, 12, 74, 31
18, 105696, Note_on_c, 12, 74, 0
18, 105696, Control_c, 12, 11, 127
18, 105696, Note_on_c, 12, 76, 16
18, 105728, Control_c, 12, 11, 126
18, 105761, Control_c, 12, 11, 125
18, 105794, Control_c, 12, 11, 124
18, 105827, Control_c, 12, 11, 123
18, 105860, Control_c, 12, 11, 122
18, 105893, Control_c, 12, 11, 121
18, 105926, Control_c, 12, 11, 120
18, 105959, Control_c, 12, 11, 119
18, 105992, Control_c, 12, 11, 118
18, 106025, Control_c, 12, 11, 117
18, 106058, Control_c, 12, 11, 116
18, 106090, Control_c, 12, 11, 115
18, 106123, Control_c, 12, 11, 114
18, 106156, Control_c, 12, 11, 113
18, 106189, Control_c, 12, 11, 112
18, 106222, Control_c, 12, 11, 111
18, 106255, Control_c, 12, 11, 110
18, 106288, Control_c, 12, 11, 109
18, 106321, Control_c, 12, 11, 108
18, 106354, Control_c, 12, 11, 107
18, 106387, Control_c, 12, 11, 106
18, 106420, Control_c, 12, 11, 105
18, 106453, Control_c, 12, 11, 104
18, 106485, Control_c, 12, 11, 103
18, 106518, Control_c, 12, 11, 102
18, 106551, Control_c, 12, 11, 101
18, 106584, Control_c, 12, 11, 100
18, 106617, Control_c, 12, 11, 99
18, 106650, Control_c, 12, 11, 98
18, 106683, Control_c, 12, 11, 97
18, 106716, Control_c, 12, 11, 96
18, 106749, Control_c, 12, 11, 95
18, 106782, Control_c, 12, 11, 94
18, 106815, Control_c, 12, 11, 93
18, 106848, Note_on_c, 12, 76, 0
18, 106848, Control_c, 12, 11, 92
18, 106848, Note_on_c, 12, 74, 18
18, 108160, Note_on_c, 12, 74, 0
18, 110688, Program_c, 12, 44
18, 110688, Control_c, 12, 11, 92
18, 110688, Note_on_c, 12, 82, 99
18, 110698, Control_c, 12, 11, 93
18, 110709, Control_c, 12, 11, 94
18, 110718, Note_on_c, 12, 82, 0
18, 110720, Control_c, 12, 11, 95
18, 110720, Note_on_c, 12, 80, 97
18, 110731, Control_c, 12, 11, 96
18, 110742, Control_c, 12, 11, 97
18, 110750, Note_on_c, 12, 80, 0
18, 110752, Note_on_c, 12, 77, 96
18, 110753, Control_c, 12, 11, 98
18, 110764, Control_c, 12, 11, 99
18, 110775, Control_c, 12, 11, 100
18, 110782, Note_on_c, 12, 77, 0
18, 110784, Note_on_c, 12, 82, 100
18, 110786, Control_c, 12, 11, 101
18, 110797, Control_c, 12, 11, 102
18, 110808, Control_c, 12, 11, 103
18, 110814, Note_on_c, 12, 82, 0
18, 110816, Note_on_c, 12, 80, 96
18, 110819, Control_c, 12, 11, 104
18, 110830, Control_c, 12, 11, 105
18, 110841, Control_c, 12, 11, 106
18, 110846, Note_on_c, 12, 80, 0
18, 110848, Note_on_c, 12, 77, 97
18, 110852, Control_c, 12, 11, 107
18, 110863, Control_c, 12, 11, 108
18, 110874, Control_c, 12, 11, 109
18, 110878, Note_on_c, 12, 77, 0
18, 110880, Note_on_c, 12, 82, 98
18, 110885, Control_c, 12, 11, 110
18, 110896, Control_c, 12, 11, 111
18, 110907, Control_c, 12, 11, 112
18, 110910, Note_on_c, 12, 82, 0
18, 110912, Note_on_c, 12, 80, 96
18, 110918, Control_c, 12, 11, 113
18, 110929, Control_c, 12, 11, 114
18, 110940, Control_c, 12, 11, 115
18, 110942, Note_on_c, 12, 80, 0
18, 110944, Note_on_c, 12, 77, 97
18, 110951, Control_c, 12, 11, 116
18, 110962, Control_c, 12, 11, 117
18, 110973, Control_c, 12, 11, 118
18, 110974, Note_on_c, 12, 77, 0
18, 110976, Note_on_c, 12, 82, 104
18, 110984, Control_c, 12, 11, 119
18, 110995, Control_c, 12, 11, 120
18, 111006, Note_on_c, 12, 82, 0
18, 111006, Control_c, 12, 11, 121
18, 111008, Note_on_c, 12, 80, 103
18, 111017, Control_c, 12, 11, 122
18, 111028, Control_c, 12, 11, 123
18, 111038, Note_on_c, 12, 80, 0
18, 111039, Control_c, 12, 11, 124
18, 111040, Note_on_c, 12, 77, 95
18, 111050, Control_c, 12, 11, 125
18, 111061, Control_c, 12, 11, 126
18, 111070, Note_on_c, 12, 77, 0
18, 111072, Control_c, 12, 11, 127
18, 111072, Program_c, 12, 48
18, 111072, Control_c, 12, 11, 127
18, 111072, Note_on_c, 12, 82, 99
18, 111073, Control_c, 12, 11, 126
18, 111075, Control_c, 12, 11, 125
18, 111076, Control_c, 12, 11, 124
18, 111078, Control_c, 12, 11, 123
18, 111079, Control_c, 12, 11, 122
18, 111081, Control_c, 12, 11, 121
18, 111082, Control_c, 12, 11, 120
18, 111084, Control_c, 12, 11, 119
18, 111085, Control_c, 12, 11, 118
18, 111087, Control_c, 12, 11, 117
18, 111088, Control_c, 12, 11, 116
18, 111090, Control_c, 12, 11, 115
18, 111091, Control_c, 12, 11, 114
18, 111093, Control_c, 12, 11, 113
18, 111094, Control_c, 12, 11, 112
18, 111096, Control_c, 12, 11, 111
18, 111097, Control_c, 12, 11, 110
18, 111099, Control_c, 12, 11, 109
18, 111100, Control_c, 12, 11, 108
18, 111102, Control_c, 12, 11, 107
18, 111104, Control_c, 12, 11, 106
18, 111105, Control_c, 12, 11, 105
18, 111107, Control_c, 12, 11, 104
18, 111108, Control_c, 12, 11, 103
18, 111110, Control_c, 12, 11, 102
18, 111111, Control_c, 12, 11, 101
18, 111113, Control_c, 12, 11, 100
18, 111114, Control_c, 12, 11, 99
18, 111116, Control_c, 12, 11, 98
18, 111117, Control_c, 12, 11, 97
18, 111119, Control_c, 12, 11, 96
18, 111120, Control_c, 12, 11, 95
18, 111122, Control_c, 12, 11, 94
18, 111123, Control_c, 12, 11, 93
18, 111125, Control_c, 12, 11, 92
18, 111126, Control_c, 12, 11, 91
18, 111128, Control_c, 12, 11, 90
18, 111129, Control_c, 12, 11, 89
18, 111131, Control_c, 12, 11, 88
18, 111132, Control_c, 12, 11, 87
18, 111134, Control_c, 12, 11, 86
18, 111136, Control_c, 12, 11, 85
18, 111137, Control_c, 12, 11, 84
18, 111139, Control_c, 12, 11, 83
18, 111140, Control_c, 12, 11, 82
18, 111142, Control_c, 12, 11, 81
18, 111143, Control_c, 12, 11, 80
18, 111145, Control_c, 12, 11, 79
18, 111146, Control_c, 12, 11, 78
18, 111148, Control_c, 12, 11, 77
18, 111149, Control_c, 12, 11, 76
18, 111151, Control_c, 12, 11, 75
18, 111152, Control_c, 12, 11, 74
18, 111154, Control_c, 12, 11, 73
18, 111155, Control_c, 12, 11, 72
18, 111157, Control_c, 12, 11, 71
18, 111158, Control_c, 12, 11, 70
18, 111160, Control_c, 12, 11, 69
18, 111161, Control_c, 12, 11, 68
18, 111163, Control_c, 12, 11, 67
18, 111164, Control_c, 12, 11, 66
18, 111166, Note_on_c, 12, 82, 0
18, 111166, Control_c, 12, 11, 65
18, 111168, Control_c, 12, 11, 64
18, 111456, Program_c, 12, 44
18, 111456, Control_c, 12, 11, 92
18, 111456, Note_on_c, 12, 82, 95
18, 111466, Control_c, 12, 11, 93
18, 111477, Control_c, 12, 11, 94
18, 111486, Note_on_c, 12, 82, 0
18, 111488, Control_c, 12, 11, 95
18, 111488, Note_on_c, 12, 80, 103
18, 111499, Control_c, 12, 11, 96
18, 111510, Control_c, 12, 11, 97
18, 111518, Note_on_c, 12, 80, 0
18, 111520, Note_on_c, 12, 77, 103
18, 111521, Control_c, 12, 11, 98
18, 111532, Control_c, 12, 11, 99
18, 111543, Control_c, 12, 11, 100
18, 111550, Note_on_c, 12, 77, 0
18, 111552, Note_on_c, 12, 82, 103
18, 111554, Control_c, 12, 11, 101
18, 111565, Control_c, 12, 11, 102
18, 111576, Control_c, 12, 11, 103
18, 111582, Note_on_c, 12, 82, 0
18, 111584, Note_on_c, 12, 80, 101
18, 111587, Control_c, 12, 11, 104
18, 111598, Control_c, 12, 11, 105
18, 111609, Control_c, 12, 11, 106
18, 111614, Note_on_c, 12, 80, 0
18, 111616, Note_on_c, 12, 77, 102
18, 111620, Control_c, 12, 11, 107
18, 111631, Control_c, 12, 11, 108
18, 111642, Control_c, 12, 11, 109
18, 111646, Note_on_c, 12, 77, 0
18, 111648, Note_on_c, 12, 82, 98
18, 111653, Control_c, 12, 11, 110
18, 111664, Control_c, 12, 11, 111
18, 111675, Control_c, 12, 11, 112
18, 111678, Note_on_c, 12, 82, 0
18, 111680, Note_on_c, 12, 80, 102
18, 111686, Control_c, 12, 11, 113
18, 111697, Control_c, 12, 11, 114
18, 111708, Control_c, 12, 11, 115
18, 111710, Note_on_c, 12, 80, 0
18, 111712, Note_on_c, 12, 77, 102
18, 111719, Control_c, 12, 11, 116
18, 111730, Control_c, 12, 11, 117
18, 111741, Control_c, 12, 11, 118
18, 111742, Note_on_c, 12, 77, 0
18, 111744, Note_on_c, 12, 82, 100
18, 111752, Control_c, 12, 11, 119
18, 111763, Control_c, 12, 11, 120
18, 111774, Note_on_c, 12, 82, 0
18, 111774, Control_c, 12, 11, 121
18, 111776, Note_on_c, 12, 80, 103
18, 111785, Control_c, 12, 11, 122
18, 111796, Control_c, 12, 11, 123
18, 111806, Note_on_c, 12, 80, 0
18, 111807, Control_c, 12, 11, 124
18, 111808, Note_on_c, 12, 77, 103
18, 111818, Control_c, 12, 11, 125
18, 111829, Control_c, 12, 11, 126
18, 111838, Note_on_c, 12, 77, 0
18, 111840, Control_c, 12, 11, 127
18, 111840, Control_c, 12, 11, 92
18, 111840, Note_on_c, 12, 82, 125
18, 111850, Control_c, 12, 11, 93
18, 111861, Control_c, 12, 11, 94
18, 111872, Control_c, 12, 11, 95
18, 111883, Control_c, 12, 11, 96
18, 111894, Control_c, 12, 11, 97
18, 111905, Control_c, 12, 11, 98
18, 111916, Control_c, 12, 11, 99
18, 111927, Control_c, 12, 11, 100
18, 111934, Note_on_c, 12, 82, 0
18, 111936, Note_on_c, 12, 80, 127
18, 111938, Control_c, 12, 11, 101
18, 111949, Control_c, 12, 11, 102
18, 111960, Control_c, 12, 11, 103
18, 111971, Control_c, 12, 11, 104
18, 111982, Control_c, 12, 11, 105
18, 111993, Control_c, 12, 11, 106
18, 112004, Control_c, 12, 11, 107
18, 112015, Control_c, 12, 11, 108
18, 112026, Control_c, 12, 11, 109
18, 112030, Note_on_c, 12, 80, 0
18, 112032, Note_on_c, 12, 77, 127
18, 112037, Control_c, 12, 11, 110
18, 112048, Control_c, 12, 11, 111
18, 112059, Control_c, 12, 11, 112
18, 112070, Control_c, 12, 11, 113
18, 112081, Control_c, 12, 11, 114
18, 112092, Control_c, 12, 11, 115
18, 112103, Control_c, 12, 11, 116
18, 112114, Control_c, 12, 11, 117
18, 112125, Control_c, 12, 11, 118
18, 112126, Note_on_c, 12, 77, 0
18, 112128, Note_on_c, 12, 82, 127
18, 112136, Control_c, 12, 11, 119
18, 112147, Control_c, 12, 11, 120
18, 112158, Control_c, 12, 11, 121
18, 112169, Control_c, 12, 11, 122
18, 112180, Control_c, 12, 11, 123
18, 112191, Control_c, 12, 11, 124
18, 112202, Control_c, 12, 11, 125
18, 112213, Control_c, 12, 11, 126
18, 112222, Note_on_c, 12, 82, 0
18, 112224, Control_c, 12, 11, 127
18, 112224, Control_c, 12, 11, 92
18, 112224, Note_on_c, 12, 80, 126
18, 112234, Control_c, 12, 11, 93
18, 112245, Control_c, 12, 11, 94
18, 112256, Control_c, 12, 11, 95
18, 112267, Control_c, 12, 11, 96
18, 112278, Control_c, 12, 11, 97
18, 112289, Control_c, 12, 11, 98
18, 112300, Control_c, 12, 11, 99
18, 112311, Control_c, 12, 11, 100
18, 112318, Note_on_c, 12, 80, 0
18, 112320, Note_on_c, 12, 77, 127
18, 112322, Control_c, 12, 11, 101
18, 112333, Control_c, 12, 11, 102
18, 112344, Control_c, 12, 11, 103
18, 112355, Control_c, 12, 11, 104
18, 112366, Control_c, 12, 11, 105
18, 112377, Control_c, 12, 11, 106
18, 112388, Control_c, 12, 11, 107
18, 112399, Control_c, 12, 11, 108
18, 112410, Control_c, 12, 11, 109
18, 112414, Note_on_c, 12, 77, 0
18, 112416, Note_on_c, 12, 82, 127
18, 112421, Control_c, 12, 11, 110
18, 112432, Control_c, 12, 11, 111
18, 112443, Control_c, 12, 11, 112
18, 112454, Control_c, 12, 11, 113
18, 112465, Control_c, 12, 11, 114
18, 112476, Control_c, 12, 11, 115
18, 112487, Control_c, 12, 11, 116
18, 112498, Control_c, 12, 11, 117
18, 112509, Control_c, 12, 11, 118
18, 112510, Note_on_c, 12, 82, 0
18, 112512, Note_on_c, 12, 80, 125
18, 112520, Control_c, 12, 11, 119
18, 112531, Control_c, 12, 11, 120
18, 112542, Control_c, 12, 11, 121
18, 112553, Control_c, 12, 11, 122
18, 112564, Control_c, 12, 11, 123
18, 112575, Control_c, 12, 11, 124
18, 112586, Control_c, 12, 11, 125
18, 112597, Control_c, 12, 11, 126
18, 112606, Note_on_c, 12, 80, 0
18, 112608, Control_c, 12, 11, 127
18, 112992, Control_c, 12, 11, 75
18, 112992, Note_on_c, 12, 75, 123
18, 112992, Note_on_c, 12, 87, 123
18, 112993, Control_c, 12, 11, 76
18, 112995, Control_c, 12, 11, 77
18, 112997, Control_c, 12, 11, 78
18, 112999, Control_c, 12, 11, 79
18, 113001, Control_c, 12, 11, 80
18, 113003, Control_c, 12, 11, 81
18, 113004, Control_c, 12, 11, 82
18, 113006, Control_c, 12, 11, 83
18, 113008, Control_c, 12, 11, 84
18, 113010, Control_c, 12, 11, 85
18, 113012, Control_c, 12, 11, 86
18, 113014, Control_c, 12, 11, 87
18, 113016, Control_c, 12, 11, 88
18, 113017, Control_c, 12, 11, 89
18, 113019, Control_c, 12, 11, 90
18, 113021, Control_c, 12, 11, 91
18, 113023, Control_c, 12, 11, 92
18, 113025, Control_c, 12, 11, 93
18, 113027, Control_c, 12, 11, 94
18, 113028, Control_c, 12, 11, 95
18, 113030, Control_c, 12, 11, 96
18, 113032, Control_c, 12, 11, 97
18, 113034, Control_c, 12, 11, 98
18, 113036, Control_c, 12, 11, 99
18, 113038, Control_c, 12, 11, 100
18, 113040, Control_c, 12, 11, 101
18, 113041, Control_c, 12, 11, 102
18, 113043, Control_c, 12, 11, 103
18, 113045, Control_c, 12, 11, 104
18, 113047, Control_c, 12, 11, 105
18, 113049, Control_c, 12, 11, 106
18, 113051, Control_c, 12, 11, 107
18, 113052, Control_c, 12, 11, 108
18, 113054, Control_c, 12, 11, 109
18, 113056, Control_c, 12, 11, 110
18, 113058, Control_c, 12, 11, 111
18, 113060, Control_c, 12, 11, 112
18, 113062, Control_c, 12, 11, 113
18, 113064, Control_c, 12, 11, 114
18, 113065, Control_c, 12, 11, 115
18, 113067, Control_c, 12, 11, 116
18, 113069, Control_c, 12, 11, 117
18, 113071, Control_c, 12, 11, 118
18, 113073, Control_c, 12, 11, 119
18, 113075, Control_c, 12, 11, 120
18, 113076, Control_c, 12, 11, 121
18, 113078, Control_c, 12, 11, 122
18, 113080, Control_c, 12, 11, 123
18, 113082, Control_c, 12, 11, 124
18, 113084, Control_c, 12, 11, 125
18, 113086, Control_c, 12, 11, 126
18, 113088, Control_c, 12, 11, 127
18, 113089, Control_c, 12, 11, 126
18, 113091, Control_c, 12, 11, 125
18, 113093, Control_c, 12, 11, 124
18, 113095, Control_c, 12, 11, 123
18, 113097, Control_c, 12, 11, 122
18, 113099, Control_c, 12, 11, 121
18, 113100, Control_c, 12, 11, 120
18, 113102, Control_c, 12, 11, 119
18, 113104, Control_c, 12, 11, 118
18, 113106, Control_c, 12, 11, 117
18, 113108, Control_c, 12, 11, 116
18, 113110, Control_c, 12, 11, 115
18, 113112, Control_c, 12, 11, 114
18, 113113, Control_c, 12, 11, 113
18, 113115, Control_c, 12, 11, 112
18, 113117, Control_c, 12, 11, 111
18, 113119, Control_c, 12, 11, 110
18, 113121, Control_c, 12, 11, 109
18, 113123, Control_c, 12, 11, 108
18, 113124, Control_c, 12, 11, 107
18, 113126, Control_c, 12, 11, 106
18, 113128, Control_c, 12, 11, 105
18, 113130, Control_c, 12, 11, 104
18, 113132, Control_c, 12, 11, 103
18, 113134, Control_c, 12, 11, 102
18, 113136, Control_c, 12, 11, 101
18, 113137, Control_c, 12, 11, 100
18, 113139, Control_c, 12, 11, 99
18, 113141, Control_c, 12, 11, 98
18, 113143, Control_c, 12, 11, 97
18, 113145, Control_c, 12, 11, 96
18, 113147, Control_c, 12, 11, 95
18, 113148, Control_c, 12, 11, 94
18, 113150, Control_c, 12, 11, 93
18, 113152, Note_on_c, 12, 75, 0
18, 113152, Note_on_c, 12, 87, 0
18, 113152, Control_c, 12, 11, 92
18, 113154, Control_c, 12, 11, 91
18, 113156, Control_c, 12, 11, 90
18, 113158, Control_c, 12, 11, 89
18, 113160, Control_c, 12, 11, 88
18, 113161, Control_c, 12, 11, 87
18, 113163, Control_c, 12, 11, 86
18, 113165, Control_c, 12, 11, 85
18, 113167, Control_c, 12, 11, 84
18, 113169, Control_c, 12, 11, 83
18, 113171, Control_c, 12, 11, 82
18, 113172, Control_c, 12, 11, 81
18, 113174, Control_c, 12, 11, 80
18, 113176, Control_c, 12, 11, 79
18, 113178, Control_c, 12, 11, 78
18, 113180, Control_c, 12, 11, 77
18, 113182, Control_c, 12, 11, 76
18, 113184, Control_c, 12, 11, 75
18, 113184, Control_c, 12, 11, 75
18, 113184, Note_on_c, 12, 73, 127
18, 113184, Note_on_c, 12, 85, 127
18, 113185, Control_c, 12, 11, 76
18, 113187, Control_c, 12, 11, 77
18, 113189, Control_c, 12, 11, 78
18, 113191, Control_c, 12, 11, 79
18, 113193, Control_c, 12, 11, 80
18, 113195, Control_c, 12, 11, 81
18, 113196, Control_c, 12, 11, 82
18, 113198, Control_c, 12, 11, 83
18, 113200, Control_c, 12, 11, 84
18, 113202, Control_c, 12, 11, 85
18, 113204, Control_c, 12, 11, 86
18, 113206, Control_c, 12, 11, 87
18, 113208, Control_c, 12, 11, 88
18, 113209, Control_c, 12, 11, 89
18, 113211, Control_c, 12, 11, 90
18, 113213, Control_c, 12, 11, 91
18, 113215, Control_c, 12, 11, 92
18, 113217, Control_c, 12, 11, 93
18, 113219, Control_c, 12, 11, 94
18, 113220, Control_c, 12, 11, 95
18, 113222, Control_c, 12, 11, 96
18, 113224, Control_c, 12, 11, 97
18, 113226, Control_c, 12, 11, 98
18, 113228, Control_c, 12, 11, 99
18, 113230, Control_c, 12, 11, 100
18, 113232, Control_c, 12, 11, 101
18, 113233, Control_c, 12, 11, 102
18, 113235, Control_c, 12, 11, 103
18, 113237, Control_c, 12, 11, 104
18, 113239, Control_c, 12, 11, 105
18, 113241, Control_c, 12, 11, 106
18, 113243, Control_c, 12, 11, 107
18, 113244, Control_c, 12, 11, 108
18, 113246, Control_c, 12, 11, 109
18, 113248, Control_c, 12, 11, 110
18, 113250, Control_c, 12, 11, 111
18, 113252, Control_c, 12, 11, 112
18, 113254, Control_c, 12, 11, 113
18, 113256, Control_c, 12, 11, 114
18, 113257, Control_c, 12, 11, 115
18, 113259, Control_c, 12, 11, 116
18, 113261, Control_c, 12, 11, 117
18, 113263, Control_c, 12, 11, 118
18, 113265, Control_c, 12, 11, 119
18, 113267, Control_c, 12, 11, 120
18, 113268, Control_c, 12, 11, 121
18, 113270, Control_c, 12, 11, 122
18, 113272, Control_c, 12, 11, 123
18, 113274, Control_c, 12, 11, 124
18, 113276, Control_c, 12, 11, 125
18, 113278, Control_c, 12, 11, 126
18, 113280, Control_c, 12, 11, 127
18, 113281, Control_c, 12, 11, 126
18, 113283, Control_c, 12, 11, 125
18, 113285, Control_c, 12, 11, 124
18, 113287, Control_c, 12, 11, 123
18, 113289, Control_c, 12, 11, 122
18, 113291, Control_c, 12, 11, 121
18, 113292, Control_c, 12, 11, 120
18, 113294, Control_c, 12, 11, 119
18, 113296, Control_c, 12, 11, 118
18, 113298, Control_c, 12, 11, 117
18, 113300, Control_c, 12, 11, 116
18, 113302, Control_c, 12, 11, 115
18, 113304, Control_c, 12, 11, 114
18, 113305, Control_c, 12, 11, 113
18, 113307, Control_c, 12, 11, 112
18, 113309, Control_c, 12, 11, 111
18, 113311, Control_c, 12, 11, 110
18, 113313, Control_c, 12, 11, 109
18, 113315, Control_c, 12, 11, 108
18, 113316, Control_c, 12, 11, 107
18, 113318, Control_c, 12, 11, 106
18, 113320, Control_c, 12, 11, 105
18, 113322, Control_c, 12, 11, 104
18, 113324, Control_c, 12, 11, 103
18, 113326, Control_c, 12, 11, 102
18, 113328, Control_c, 12, 11, 101
18, 113329, Control_c, 12, 11, 100
18, 113331, Control_c, 12, 11, 99
18, 113333, Control_c, 12, 11, 98
18, 113335, Control_c, 12, 11, 97
18, 113337, Control_c, 12, 11, 96
18, 113339, Control_c, 12, 11, 95
18, 113340, Control_c, 12, 11, 94
18, 113342, Control_c, 12, 11, 93
18, 113344, Note_on_c, 12, 73, 0
18, 113344, Note_on_c, 12, 85, 0
18, 113344, Control_c, 12, 11, 92
18, 113346, Control_c, 12, 11, 91
18, 113348, Control_c, 12, 11, 90
18, 113350, Control_c, 12, 11, 89
18, 113352, Control_c, 12, 11, 88
18, 113353, Control_c, 12, 11, 87
18, 113355, Control_c, 12, 11, 86
18, 113357, Control_c, 12, 11, 85
18, 113359, Control_c, 12, 11, 84
18, 113361, Control_c, 12, 11, 83
18, 113363, Control_c, 12, 11, 82
18, 113364, Control_c, 12, 11, 81
18, 113366, Control_c, 12, 11, 80
18, 113368, Control_c, 12, 11, 79
18, 113370, Control_c, 12, 11, 78
18, 113372, Control_c, 12, 11, 77
18, 113374, Control_c, 12, 11, 76
18, 113376, Control_c, 12, 11, 75
18, 113376, Control_c, 12, 11, 75
18, 113376, Note_on_c, 12, 70, 123
18, 113376, Note_on_c, 12, 82, 127
18, 113377, Control_c, 12, 11, 76
18, 113379, Control_c, 12, 11, 77
18, 113381, Control_c, 12, 11, 78
18, 113383, Control_c, 12, 11, 79
18, 113385, Control_c, 12, 11, 80
18, 113387, Control_c, 12, 11, 81
18, 113388, Control_c, 12, 11, 82
18, 113390, Control_c, 12, 11, 83
18, 113392, Control_c, 12, 11, 84
18, 113394, Control_c, 12, 11, 85
18, 113396, Control_c, 12, 11, 86
18, 113398, Control_c, 12, 11, 87
18, 113400, Control_c, 12, 11, 88
18, 113401, Control_c, 12, 11, 89
18, 113403, Control_c, 12, 11, 90
18, 113405, Control_c, 12, 11, 91
18, 113407, Control_c, 12, 11, 92
18, 113409, Control_c, 12, 11, 93
18, 113411, Control_c, 12, 11, 94
18, 113412, Control_c, 12, 11, 95
18, 113414, Control_c, 12, 11, 96
18, 113416, Control_c, 12, 11, 97
18, 113418, Control_c, 12, 11, 98
18, 113420, Control_c, 12, 11, 99
18, 113422, Control_c, 12, 11, 100
18, 113424, Control_c, 12, 11, 101
18, 113425, Control_c, 12, 11, 102
18, 113427, Control_c, 12, 11, 103
18, 113429, Control_c, 12, 11, 104
18, 113431, Control_c, 12, 11, 105
18, 113433, Control_c, 12, 11, 106
18, 113435, Control_c, 12, 11, 107
18, 113436, Control_c, 12, 11, 108
18, 113438, Control_c, 12, 11, 109
18, 113440, Control_c, 12, 11, 110
18, 113442, Control_c, 12, 11, 111
18, 113444, Control_c, 12, 11, 112
18, 113446, Control_c, 12, 11, 113
18, 113448, Control_c, 12, 11, 114
18, 113449, Control_c, 12, 11, 115
18, 113451, Control_c, 12, 11, 116
18, 113453, Control_c, 12, 11, 117
18, 113455, Control_c, 12, 11, 118
18, 113457, Control_c, 12, 11, 119
18, 113459, Control_c, 12, 11, 120
18, 113460, Control_c, 12, 11, 121
18, 113462, Control_c, 12, 11, 122
18, 113464, Control_c, 12, 11, 123
18, 113466, Control_c, 12, 11, 124
18, 113468, Control_c, 12, 11, 125
18, 113470, Control_c, 12, 11, 126
18, 113472, Control_c, 12, 11, 127
18, 113474, Control_c, 12, 11, 126
18, 113476, Control_c, 12, 11, 125
18, 113478, Control_c, 12, 11, 124
18, 113481, Control_c, 12, 11, 123
18, 113483, Control_c, 12, 11, 122
18, 113485, Control_c, 12, 11, 121
18, 113487, Control_c, 12, 11, 120
18, 113490, Control_c, 12, 11, 119
18, 113492, Control_c, 12, 11, 118
18, 113494, Control_c, 12, 11, 117
18, 113496, Control_c, 12, 11, 116
18, 113499, Control_c, 12, 11, 115
18, 113501, Control_c, 12, 11, 114
18, 113503, Control_c, 12, 11, 113
18, 113506, Control_c, 12, 11, 112
18, 113508, Control_c, 12, 11, 111
18, 113510, Control_c, 12, 11, 110
18, 113512, Control_c, 12, 11, 109
18, 113515, Control_c, 12, 11, 108
18, 113517, Control_c, 12, 11, 107
18, 113519, Control_c, 12, 11, 106
18, 113521, Control_c, 12, 11, 105
18, 113524, Control_c, 12, 11, 104
18, 113526, Control_c, 12, 11, 103
18, 113528, Control_c, 12, 11, 102
18, 113530, Control_c, 12, 11, 101
18, 113533, Control_c, 12, 11, 100
18, 113535, Control_c, 12, 11, 99
18, 113537, Control_c, 12, 11, 98
18, 113540, Control_c, 12, 11, 97
18, 113542, Control_c, 12, 11, 96
18, 113544, Control_c, 12, 11, 95
18, 113546, Control_c, 12, 11, 94
18, 113549, Control_c, 12, 11, 93
18, 113551, Control_c, 12, 11, 92
18, 113553, Control_c, 12, 11, 91
18, 113555, Control_c, 12, 11, 90
18, 113558, Control_c, 12, 11, 89
18, 113560, Control_c, 12, 11, 88
18, 113562, Control_c, 12, 11, 87
18, 113564, Control_c, 12, 11, 86
18, 113567, Control_c, 12, 11, 85
18, 113568, Program_c, 12, 48
18, 113569, Control_c, 12, 11, 84
18, 113571, Control_c, 12, 11, 83
18, 113574, Control_c, 12, 11, 82
18, 113576, Control_c, 12, 11, 81
18, 113578, Control_c, 12, 11, 80
18, 113580, Control_c, 12, 11, 79
18, 113583, Control_c, 12, 11, 78
18, 113585, Control_c, 12, 11, 77
18, 113587, Control_c, 12, 11, 76
18, 113589, Control_c, 12, 11, 75
18, 113592, Control_c, 12, 11, 74
18, 113594, Control_c, 12, 11, 73
18, 113596, Control_c, 12, 11, 72
18, 113598, Control_c, 12, 11, 71
18, 113601, Control_c, 12, 11, 70
18, 113603, Control_c, 12, 11, 69
18, 113605, Control_c, 12, 11, 68
18, 113608, Control_c, 12, 11, 67
18, 113610, Control_c, 12, 11, 66
18, 113612, Control_c, 12, 11, 65
18, 113614, Control_c, 12, 11, 64
18, 113617, Control_c, 12, 11, 63
18, 113619, Control_c, 12, 11, 62
18, 113621, Control_c, 12, 11, 61
18, 113623, Control_c, 12, 11, 60
18, 113626, Control_c, 12, 11, 59
18, 113628, Control_c, 12, 11, 58
18, 113630, Control_c, 12, 11, 57
18, 113633, Control_c, 12, 11, 56
18, 113635, Control_c, 12, 11, 55
18, 113637, Control_c, 12, 11, 54
18, 113639, Control_c, 12, 11, 53
18, 113642, Control_c, 12, 11, 52
18, 113644, Control_c, 12, 11, 51
18, 113646, Control_c, 12, 11, 50
18, 113648, Control_c, 12, 11, 49
18, 113651, Control_c, 12, 11, 48
18, 113653, Control_c, 12, 11, 47
18, 113655, Control_c, 12, 11, 46
18, 113657, Control_c, 12, 11, 45
18, 113660, Control_c, 12, 11, 44
18, 113662, Control_c, 12, 11, 43
18, 113664, Control_c, 12, 11, 42
18, 113667, Control_c, 12, 11, 41
18, 113669, Control_c, 12, 11, 40
18, 113671, Control_c, 12, 11, 39
18, 113673, Control_c, 12, 11, 38
18, 113676, Control_c, 12, 11, 37
18, 113678, Control_c, 12, 11, 36
18, 113680, Control_c, 12, 11, 35
18, 113682, Control_c, 12, 11, 34
18, 113685, Control_c, 12, 11, 33
18, 113687, Control_c, 12, 11, 32
18, 113689, Control_c, 12, 11, 31
18, 113691, Control_c, 12, 11, 30
18, 113694, Control_c, 12, 11, 29
18, 113696, Control_c, 12, 11, 28
18, 113698, Control_c, 12, 11, 27
18, 113701, Control_c, 12, 11, 26
18, 113703, Control_c, 12, 11, 25
18, 113705, Control_c, 12, 11, 24
18, 113707, Control_c, 12, 11, 23
18, 113710, Control_c, 12, 11, 22
18, 113712, Control_c, 12, 11, 21
18, 113714, Control_c, 12, 11, 20
18, 113716, Control_c, 12, 11, 19
18, 113719, Control_c, 12, 11, 18
18, 113721, Control_c, 12, 11, 17
18, 113723, Control_c, 12, 11, 16
18, 113725, Control_c, 12, 11, 15
18, 113728, Note_on_c, 12, 70, 0
18, 113728, Note_on_c, 12, 82, 0
18, 113728, Control_c, 12, 11, 14
18, 113730, Control_c, 12, 11, 13
18, 113732, Control_c, 12, 11, 12
18, 113735, Control_c, 12, 11, 11
18, 113737, Control_c, 12, 11, 10
18, 113739, Control_c, 12, 11, 9
18, 113741, Control_c, 12, 11, 8
18, 113744, Control_c, 12, 11, 7
18, 113746, Control_c, 12, 11, 6
18, 113748, Control_c, 12, 11, 5
18, 113750, Control_c, 12, 11, 4
18, 113753, Control_c, 12, 11, 3
18, 113755, Control_c, 12, 11, 2
18, 113757, Control_c, 12, 11, 1
18, 113760, Control_c, 12, 11, 0
18, 113760, End_track
19, 0, Start_track
19, 0, Title_t, "Violini II - b"
19, 0, MIDI_port, 0
19, 170, Control_c, 12, 0, 0
19, 171, Control_c, 12, 32, 0
19, 172, Program_c, 12, 48
19, 173, Control_c, 12, 7, 127
19, 174, Control_c, 12, 10, 54
19, 175, Control_c, 12, 91, 127
19, 26880, Note_on_c, 12, 59, 106
19, 27136, Note_on_c, 12, 59, 0
19, 27168, Note_on_c, 12, 61, 105
19, 27424, Note_on_c, 12, 61, 0
19, 27456, Note_on_c, 12, 59, 108
19, 27712, Note_on_c, 12, 59, 0
19, 27744, Note_on_c, 12, 61, 114
19, 28000, Note_on_c, 12, 61, 0
19, 28032, Note_on_c, 12, 59, 115
19, 28288, Note_on_c, 12, 59, 0
19, 28320, Note_on_c, 12, 61, 106
19, 28576, Note_on_c, 12, 61, 0
19, 28608, Note_on_c, 12, 59, 112
19, 28864, Note_on_c, 12, 59, 0
19, 28896, Note_on_c, 12, 61, 111
19, 29152, Note_on_c, 12, 61, 0
19, 29184, Note_on_c, 12, 66, 107
19, 29440, Note_on_c, 12, 66, 0
19, 29472, Note_on_c, 12, 68, 111
19, 29728, Note_on_c, 12, 68, 0
19, 29760, Note_on_c, 12, 66, 106
19, 30016, Note_on_c, 12, 66, 0
19, 30048, Note_on_c, 12, 68, 113
19, 30304, Note_on_c, 12, 68, 0
19, 30336, Note_on_c, 12, 63, 87
19, 30382, Note_on_c, 12, 63, 0
19, 30384, Note_on_c, 12, 65, 93
19, 30430, Note_on_c, 12, 65, 0
19, 30432, Note_on_c, 12, 63, 87
19, 30478, Note_on_c, 12, 63, 0
19, 30480, Note_on_c, 12, 65, 80
19, 30526, Note_on_c, 12, 65, 0
19, 30528, Note_on_c, 12, 63, 85
19, 30574, Note_on_c, 12, 63, 0
19, 30576, Note_on_c, 12, 65, 76
19, 30622, Note_on_c, 12, 65, 0
19, 30624, Note_on_c, 12, 63, 70
19, 30670, Note_on_c, 12, 63, 0
19, 30672, Note_on_c, 12, 65, 64
19, 30718, Note_on_c, 12, 65, 0
19, 30720, Note_on_c, 12, 63, 60
19, 30766, Note_on_c, 12, 63, 0
19, 30768, Note_on_c, 12, 65, 55
19, 30814, Note_on_c, 12, 65, 0
19, 30816, Note_on_c, 12, 63, 54
19, 30862, Note_on_c, 12, 63, 0
19, 30864, Note_on_c, 12, 65, 47
19, 30910, Note_on_c, 12, 65, 0
19, 30912, Note_on_c, 12, 63, 49
19, 30958, Note_on_c, 12, 63, 0
19, 30960, Note_on_c, 12, 65, 47
19, 31006, Note_on_c, 12, 65, 0
19, 31008, Note_on_c, 12, 63, 42
19, 31054, Note_on_c, 12, 63, 0
19, 31056, Note_on_c, 12, 65, 40
19, 31102, Note_on_c, 12, 65, 0
19, 31104, Note_on_c, 12, 63, 41
19, 31150, Note_on_c, 12, 63, 0
19, 31152, Note_on_c, 12, 65, 43
19, 31198, Note_on_c, 12, 65, 0
19, 31200, Note_on_c, 12, 63, 41
19, 31246, Note_on_c, 12, 63, 0
19, 31248, Note_on_c, 12, 65, 41
19, 31294, Note_on_c, 12, 65, 0
19, 31296, Note_on_c, 12, 63, 50
19, 31342, Note_on_c, 12, 63, 0
19, 31344, Note_on_c, 12, 65, 47
19, 31390, Note_on_c, 12, 65, 0
19, 31392, Note_on_c, 12, 63, 47
19, 31438, Note_on_c, 12, 63, 0
19, 31440, Note_on_c, 12, 65, 41
19, 31486, Note_on_c, 12, 65, 0
19, 31488, Note_on_c, 12, 63, 40
19, 31534, Note_on_c, 12, 63, 0
19, 31536, Note_on_c, 12, 65, 49
19, 31582, Note_on_c, 12, 65, 0
19, 31584, Note_on_c, 12, 63, 43
19, 31630, Note_on_c, 12, 63, 0
19, 31632, Note_on_c, 12, 65, 49
19, 31678, Note_on_c, 12, 65, 0
19, 31680, Note_on_c, 12, 63, 43
19, 31726, Note_on_c, 12, 63, 0
19, 31728, Note_on_c, 12, 65, 41
19, 31774, Note_on_c, 12, 65, 0
19, 31776, Note_on_c, 12, 63, 41
19, 31822, Note_on_c, 12, 63, 0
19, 31824, Note_on_c, 12, 65, 50
19, 31870, Note_on_c, 12, 65, 0
19, 31872, Note_on_c, 12, 63, 46
19, 31918, Note_on_c, 12, 63, 0
19, 31920, Note_on_c, 12, 65, 48
19, 31966, Note_on_c, 12, 65, 0
19, 31968, Note_on_c, 12, 63, 42
19, 32014, Note_on_c, 12, 63, 0
19, 32016, Note_on_c, 12, 65, 42
19, 32062, Note_on_c, 12, 65, 0
19, 32064, Note_on_c, 12, 63, 47
19, 32110, Note_on_c, 12, 63, 0
19, 32112, Note_on_c, 12, 65, 49
19, 32158, Note_on_c, 12, 65, 0
19, 32160, Note_on_c, 12, 63, 40
19, 32206, Note_on_c, 12, 63, 0
19, 32208, Note_on_c, 12, 65, 43
19, 32254, Note_on_c, 12, 65, 0
19, 32256, Note_on_c, 12, 63, 41
19, 32302, Note_on_c, 12, 63, 0
19, 32304, Note_on_c, 12, 65, 43
19, 32350, Note_on_c, 12, 65, 0
19, 32352, Note_on_c, 12, 63, 41
19, 32398, Note_on_c, 12, 63, 0
19, 32400, Note_on_c, 12, 65, 41
19, 32446, Note_on_c, 12, 65, 0
19, 32448, Note_on_c, 12, 63, 46
19, 32494, Note_on_c, 12, 63, 0
19, 32496, Note_on_c, 12, 65, 38
19, 32542, Note_on_c, 12, 65, 0
19, 32544, Note_on_c, 12, 63, 39
19, 32590, Note_on_c, 12, 63, 0
19, 32592, Note_on_c, 12, 65, 31
19, 32638, Note_on_c, 12, 65, 0
19, 32640, Note_on_c, 12, 63, 27
19, 32686, Note_on_c, 12, 63, 0
19, 32688, Note_on_c, 12, 65, 30
19, 32734, Note_on_c, 12, 65, 0
19, 32736, Note_on_c, 12, 63, 30
19, 32782, Note_on_c, 12, 63, 0
19, 32784, Note_on_c, 12, 65, 26
19, 32830, Note_on_c, 12, 65, 0
19, 32832, Note_on_c, 12, 63, 33
19, 32878, Note_on_c, 12, 63, 0
19, 32880, Note_on_c, 12, 65, 26
19, 32926, Note_on_c, 12, 65, 0
19, 32928, Note_on_c, 12, 63, 29
19, 32974, Note_on_c, 12, 63, 0
19, 32976, Note_on_c, 12, 65, 28
19, 33022, Note_on_c, 12, 65, 0
19, 33024, Note_on_c, 12, 63, 29
19, 33070, Note_on_c, 12, 63, 0
19, 33072, Note_on_c, 12, 65, 25
19, 33118, Note_on_c, 12, 65, 0
19, 33120, Note_on_c, 12, 63, 26
19, 33166, Note_on_c, 12, 63, 0
19, 33168, Note_on_c, 12, 65, 25
19, 33214, Note_on_c, 12, 65, 0
19, 33216, Note_on_c, 12, 63, 31
19, 33262, Note_on_c, 12, 63, 0
19, 33264, Note_on_c, 12, 65, 32
19, 33310, Note_on_c, 12, 65, 0
19, 33312, Note_on_c, 12, 63, 32
19, 33358, Note_on_c, 12, 63, 0
19, 33360, Note_on_c, 12, 65, 28
19, 33406, Note_on_c, 12, 65, 0
19, 33408, Note_on_c, 12, 63, 26
19, 33454, Note_on_c, 12, 63, 0
19, 33456, Note_on_c, 12, 65, 29
19, 33502, Note_on_c, 12, 65, 0
19, 33504, Note_on_c, 12, 63, 27
19, 33550, Note_on_c, 12, 63, 0
19, 33552, Note_on_c, 12, 65, 32
19, 33598, Note_on_c, 12, 65, 0
19, 33600, Note_on_c, 12, 63, 32
19, 33646, Note_on_c, 12, 63, 0
19, 33648, Note_on_c, 12, 65, 34
19, 33694, Note_on_c, 12, 65, 0
19, 33696, Note_on_c, 12, 63, 35
19, 33742, Note_on_c, 12, 63, 0
19, 33744, Note_on_c, 12, 65, 30
19, 33790, Note_on_c, 12, 65, 0
19, 33792, Note_on_c, 12, 63, 33
19, 33838, Note_on_c, 12, 63, 0
19, 33840, Note_on_c, 12, 65, 30
19, 33886, Note_on_c, 12, 65, 0
19, 33888, Note_on_c, 12, 63, 35
19, 33934, Note_on_c, 12, 63, 0
19, 33936, Note_on_c, 12, 65, 29
19, 33982, Note_on_c, 12, 65, 0
19, 33984, Note_on_c, 12, 63, 32
19, 34030, Note_on_c, 12, 63, 0
19, 34032, Note_on_c, 12, 65, 28
19, 34078, Note_on_c, 12, 65, 0
19, 34080, Note_on_c, 12, 63, 28
19, 34126, Note_on_c, 12, 63, 0
19, 34128, Note_on_c, 12, 65, 35
19, 34174, Note_on_c, 12, 65, 0
19, 34176, Note_on_c, 12, 63, 31
19, 34222, Note_on_c, 12, 63, 0
19, 34224, Note_on_c, 12, 65, 26
19, 34270, Note_on_c, 12, 65, 0
19, 34272, Note_on_c, 12, 63, 33
19, 34318, Note_on_c, 12, 63, 0
19, 34320, Note_on_c, 12, 65, 30
19, 34366, Note_on_c, 12, 65, 0
19, 34368, Note_on_c, 12, 63, 31
19, 34414, Note_on_c, 12, 63, 0
19, 34416, Note_on_c, 12, 65, 32
19, 34462, Note_on_c, 12, 65, 0
19, 34464, Note_on_c, 12, 63, 35
19, 34510, Note_on_c, 12, 63, 0
19, 34512, Note_on_c, 12, 65, 34
19, 34558, Note_on_c, 12, 65, 0
19, 34560, Note_on_c, 12, 63, 31
19, 34606, Note_on_c, 12, 63, 0
19, 34608, Note_on_c, 12, 65, 33
19, 34654, Note_on_c, 12, 65, 0
19, 34656, Note_on_c, 12, 63, 29
19, 34702, Note_on_c, 12, 63, 0
19, 34704, Note_on_c, 12, 65, 26
19, 34750, Note_on_c, 12, 65, 0
19, 34752, Note_on_c, 12, 63, 30
19, 34798, Note_on_c, 12, 63, 0
19, 34800, Note_on_c, 12, 65, 25
19, 34846, Note_on_c, 12, 65, 0
19, 34848, Note_on_c, 12, 63, 35
19, 34894, Note_on_c, 12, 63, 0
19, 34896, Note_on_c, 12, 65, 26
19, 34942, Note_on_c, 12, 65, 0
19, 34944, Note_on_c, 12, 63, 28
19, 34990, Note_on_c, 12, 63, 0
19, 34992, Note_on_c, 12, 65, 28
19, 35038, Note_on_c, 12, 65, 0
19, 35040, Note_on_c, 12, 63, 34
19, 35086, Note_on_c, 12, 63, 0
19, 35088, Note_on_c, 12, 65, 31
19, 35134, Note_on_c, 12, 65, 0
19, 35136, Note_on_c, 12, 63, 30
19, 35182, Note_on_c, 12, 63, 0
19, 35184, Note_on_c, 12, 65, 35
19, 35230, Note_on_c, 12, 65, 0
19, 35232, Note_on_c, 12, 63, 28
19, 35278, Note_on_c, 12, 63, 0
19, 35280, Note_on_c, 12, 65, 26
19, 35326, Note_on_c, 12, 65, 0
19, 35328, Note_on_c, 12, 63, 28
19, 35374, Note_on_c, 12, 63, 0
19, 35376, Note_on_c, 12, 65, 31
19, 35422, Note_on_c, 12, 65, 0
19, 35424, Note_on_c, 12, 63, 30
19, 35470, Note_on_c, 12, 63, 0
19, 35472, Note_on_c, 12, 65, 31
19, 35518, Note_on_c, 12, 65, 0
19, 35520, Note_on_c, 12, 63, 30
19, 35566, Note_on_c, 12, 63, 0
19, 35568, Note_on_c, 12, 65, 30
19, 35614, Note_on_c, 12, 65, 0
19, 35616, Note_on_c, 12, 63, 33
19, 35662, Note_on_c, 12, 63, 0
19, 35664, Note_on_c, 12, 65, 30
19, 35710, Note_on_c, 12, 65, 0
19, 35712, Note_on_c, 12, 63, 31
19, 35758, Note_on_c, 12, 63, 0
19, 35760, Note_on_c, 12, 65, 27
19, 35806, Note_on_c, 12, 65, 0
19, 35808, Note_on_c, 12, 63, 27
19, 35854, Note_on_c, 12, 63, 0
19, 35856, Note_on_c, 12, 65, 28
19, 35902, Note_on_c, 12, 65, 0
19, 35904, Note_on_c, 12, 63, 28
19, 35950, Note_on_c, 12, 63, 0
19, 35952, Note_on_c, 12, 65, 25
19, 35998, Note_on_c, 12, 65, 0
19, 36000, Note_on_c, 12, 63, 35
19, 36046, Note_on_c, 12, 63, 0
19, 36048, Note_on_c, 12, 65, 26
19, 36094, Note_on_c, 12, 65, 0
19, 36096, Note_on_c, 12, 63, 27
19, 36142, Note_on_c, 12, 63, 0
19, 36144, Note_on_c, 12, 65, 26
19, 36190, Note_on_c, 12, 65, 0
19, 36192, Note_on_c, 12, 63, 30
19, 36238, Note_on_c, 12, 63, 0
19, 36240, Note_on_c, 12, 65, 43
19, 36286, Note_on_c, 12, 65, 0
19, 36288, Note_on_c, 12, 63, 47
19, 36334, Note_on_c, 12, 63, 0
19, 36336, Note_on_c, 12, 65, 48
19, 36382, Note_on_c, 12, 65, 0
19, 36384, Note_on_c, 12, 63, 45
19, 36430, Note_on_c, 12, 63, 0
19, 36432, Note_on_c, 12, 65, 51
19, 36478, Note_on_c, 12, 65, 0
19, 36480, Note_on_c, 12, 63, 62
19, 36526, Note_on_c, 12, 63, 0
19, 36528, Note_on_c, 12, 65, 67
19, 36574, Note_on_c, 12, 65, 0
19, 36576, Note_on_c, 12, 63, 67
19, 36622, Note_on_c, 12, 63, 0
19, 36624, Note_on_c, 12, 65, 72
19, 36670, Note_on_c, 12, 65, 0
19, 36672, Note_on_c, 12, 63, 70
19, 36718, Note_on_c, 12, 63, 0
19, 36720, Note_on_c, 12, 65, 70
19, 36766, Note_on_c, 12, 65, 0
19, 36768, Note_on_c, 12, 63, 71
19, 36814, Note_on_c, 12, 63, 0
19, 36816, Note_on_c, 12, 65, 67
19, 36862, Note_on_c, 12, 65, 0
19, 36864, Note_on_c, 12, 63, 65
19, 36910, Note_on_c, 12, 63, 0
19, 36912, Note_on_c, 12, 65, 60
19, 36958, Note_on_c, 12, 65, 0
19, 36960, Note_on_c, 12, 63, 51
19, 37006, Note_on_c, 12, 63, 0
19, 37008, Note_on_c, 12, 65, 56
19, 37054, Note_on_c, 12, 65, 0
19, 37056, Note_on_c, 12, 63, 43
19, 37102, Note_on_c, 12, 63, 0
19, 37104, Note_on_c, 12, 65, 42
19, 37150, Note_on_c, 12, 65, 0
19, 37152, Note_on_c, 12, 63, 43
19, 37198, Note_on_c, 12, 63, 0
19, 37200, Note_on_c, 12, 65, 32
19, 37246, Note_on_c, 12, 65, 0
19, 37248, Note_on_c, 12, 65, 28
19, 37278, Note_on_c, 12, 65, 0
19, 37280, Note_on_c, 12, 62, 32
19, 37310, Note_on_c, 12, 62, 0
19, 37312, Note_on_c, 12, 65, 29
19, 37374, Note_on_c, 12, 65, 0
19, 37376, Note_on_c, 12, 62, 31
19, 37406, Note_on_c, 12, 62, 0
19, 37408, Note_on_c, 12, 65, 27
19, 37438, Note_on_c, 12, 65, 0
19, 37440, Note_on_c, 12, 62, 28
19, 37470, Note_on_c, 12, 62, 0
19, 37472, Note_on_c, 12, 59, 33
19, 37502, Note_on_c, 12, 59, 0
19, 37504, Note_on_c, 12, 62, 30
19, 37566, Note_on_c, 12, 62, 0
19, 37568, Note_on_c, 12, 59, 27
19, 37598, Note_on_c, 12, 59, 0
19, 37600, Note_on_c, 12, 62, 31
19, 37630, Note_on_c, 12, 62, 0
19, 37632, Note_on_c, 12, 66, 26
19, 37662, Note_on_c, 12, 66, 0
19, 37664, Note_on_c, 12, 62, 33
19, 37694, Note_on_c, 12, 62, 0
19, 37696, Note_on_c, 12, 66, 43
19, 37726, Note_on_c, 12, 66, 0
19, 37728, Note_on_c, 12, 68, 43
19, 37758, Note_on_c, 12, 68, 0
19, 37760, Note_on_c, 12, 65, 55
19, 37790, Note_on_c, 12, 65, 0
19, 37792, Note_on_c, 12, 68, 61
19, 37822, Note_on_c, 12, 68, 0
19, 37824, Note_on_c, 12, 62, 32
19, 37854, Note_on_c, 12, 62, 0
19, 37856, Note_on_c, 12, 56, 30
19, 37886, Note_on_c, 12, 56, 0
19, 37888, Note_on_c, 12, 62, 31
19, 37950, Note_on_c, 12, 62, 0
19, 37952, Note_on_c, 12, 56, 33
19, 37982, Note_on_c, 12, 56, 0
19, 37984, Note_on_c, 12, 62, 35
19, 38014, Note_on_c, 12, 62, 0
19, 38016, Note_on_c, 12, 58, 35
19, 38046, Note_on_c, 12, 58, 0
19, 38048, Note_on_c, 12, 62, 43
19, 38078, Note_on_c, 12, 62, 0
19, 38080, Note_on_c, 12, 58, 65
19, 38110, Note_on_c, 12, 58, 0
19, 38112, Note_on_c, 12, 62, 30
19, 38142, Note_on_c, 12, 62, 0
19, 38144, Note_on_c, 12, 56, 32
19, 38174, Note_on_c, 12, 56, 0
19, 38176, Note_on_c, 12, 62, 28
19, 38238, Note_on_c, 12, 62, 0
19, 38240, Note_on_c, 12, 56, 29
19, 38270, Note_on_c, 12, 56, 0
19, 38272, Note_on_c, 12, 62, 34
19, 38302, Note_on_c, 12, 62, 0
19, 38304, Note_on_c, 12, 58, 33
19, 38334, Note_on_c, 12, 58, 0
19, 38336, Note_on_c, 12, 62, 32
19, 38366, Note_on_c, 12, 62, 0
19, 38368, Note_on_c, 12, 58, 43
19, 38398, Note_on_c, 12, 58, 0
19, 38400, Note_on_c, 12, 65, 42
19, 38430, Note_on_c, 12, 65, 0
19, 38432, Note_on_c, 12, 62, 40
19, 38462, Note_on_c, 12, 62, 0
19, 38464, Note_on_c, 12, 65, 42
19, 38526, Note_on_c, 12, 65, 0
19, 38528, Note_on_c, 12, 62, 45
19, 38558, Note_on_c, 12, 62, 0
19, 38560, Note_on_c, 12, 65, 50
19, 38590, Note_on_c, 12, 65, 0
19, 38592, Note_on_c, 12, 63, 43
19, 38622, Note_on_c, 12, 63, 0
19, 38624, Note_on_c, 12, 59, 47
19, 38654, Note_on_c, 12, 59, 0
19, 38656, Note_on_c, 12, 63, 42
19, 38718, Note_on_c, 12, 63, 0
19, 38720, Note_on_c, 12, 59, 42
19, 38750, Note_on_c, 12, 59, 0
19, 38752, Note_on_c, 12, 63, 48
19, 38782, Note_on_c, 12, 63, 0
19, 38784, Note_on_c, 12, 65, 47
19, 38814, Note_on_c, 12, 65, 0
19, 38816, Note_on_c, 12, 62, 55
19, 38846, Note_on_c, 12, 62, 0
19, 38848, Note_on_c, 12, 65, 54
19, 38878, Note_on_c, 12, 65, 0
19, 38880, Note_on_c, 12, 68, 53
19, 38910, Note_on_c, 12, 68, 0
19, 38912, Note_on_c, 12, 64, 58
19, 38942, Note_on_c, 12, 64, 0
19, 38944, Note_on_c, 12, 68, 56
19, 38974, Note_on_c, 12, 68, 0
19, 38976, Note_on_c, 12, 63, 47
19, 39006, Note_on_c, 12, 63, 0
19, 39008, Note_on_c, 12, 66, 48
19, 39038, Note_on_c, 12, 66, 0
19, 39040, Note_on_c, 12, 63, 43
19, 39070, Note_on_c, 12, 63, 0
19, 39072, Note_on_c, 12, 66, 50
19, 39102, Note_on_c, 12, 66, 0
19, 39104, Note_on_c, 12, 69, 49
19, 39134, Note_on_c, 12, 69, 0
19, 39136, Note_on_c, 12, 66, 48
19, 39166, Note_on_c, 12, 66, 0
19, 39168, Note_on_c, 12, 69, 60
19, 39198, Note_on_c, 12, 69, 0
19, 39200, Note_on_c, 12, 71, 61
19, 39230, Note_on_c, 12, 71, 0
19, 39232, Note_on_c, 12, 73, 61
19, 39262, Note_on_c, 12, 73, 0
19, 39264, Note_on_c, 12, 63, 42
19, 39294, Note_on_c, 12, 63, 0
19, 39296, Note_on_c, 12, 66, 40
19, 39326, Note_on_c, 12, 66, 0
19, 39328, Note_on_c, 12, 63, 44
19, 39358, Note_on_c, 12, 63, 0
19, 39360, Note_on_c, 12, 66, 50
19, 39390, Note_on_c, 12, 66, 0
19, 39392, Note_on_c, 12, 69, 49
19, 39422, Note_on_c, 12, 69, 0
19, 39424, Note_on_c, 12, 66, 57
19, 39454, Note_on_c, 12, 66, 0
19, 39456, Note_on_c, 12, 69, 54
19, 39486, Note_on_c, 12, 69, 0
19, 39488, Note_on_c, 12, 71, 62
19, 39518, Note_on_c, 12, 71, 0
19, 39520, Note_on_c, 12, 73, 60
19, 39550, Note_on_c, 12, 73, 0
19, 39552, Note_on_c, 12, 68, 34
19, 39552, Note_on_c, 12, 71, 25
19, 39584, Note_on_c, 12, 68, 0
19, 39584, Note_on_c, 12, 71, 0
19, 39648, Note_on_c, 12, 68, 28
19, 39648, Note_on_c, 12, 71, 30
19, 39680, Note_on_c, 12, 68, 0
19, 39680, Note_on_c, 12, 71, 0
19, 39744, Note_on_c, 12, 68, 33
19, 39744, Note_on_c, 12, 71, 33
19, 39776, Note_on_c, 12, 68, 0
19, 39776, Note_on_c, 12, 71, 0
19, 39840, Note_on_c, 12, 68, 35
19, 39840, Note_on_c, 12, 70, 35
19, 39872, Note_on_c, 12, 68, 0
19, 39872, Note_on_c, 12, 70, 0
19, 39936, Note_on_c, 12, 68, 25
19, 39936, Note_on_c, 12, 70, 29
19, 39968, Note_on_c, 12, 68, 0
19, 39968, Note_on_c, 12, 70, 0
19, 40032, Note_on_c, 12, 68, 29
19, 40032, Note_on_c, 12, 70, 32
19, 40064, Note_on_c, 12, 68, 0
19, 40064, Note_on_c, 12, 70, 0
19, 40128, Note_on_c, 12, 68, 25
19, 40128, Note_on_c, 12, 71, 34
19, 40160, Note_on_c, 12, 68, 0
19, 40160, Note_on_c, 12, 71, 0
19, 40224, Note_on_c, 12, 68, 25
19, 40224, Note_on_c, 12, 71, 30
19, 40256, Note_on_c, 12, 68, 0
19, 40256, Note_on_c, 12, 71, 0
19, 40320, Note_on_c, 12, 68, 35
19, 40320, Note_on_c, 12, 71, 25
19, 40352, Note_on_c, 12, 68, 0
19, 40352, Note_on_c, 12, 71, 0
19, 40416, Note_on_c, 12, 68, 35
19, 40416, Note_on_c, 12, 70, 31
19, 40448, Note_on_c, 12, 68, 0
19, 40448, Note_on_c, 12, 70, 0
19, 40512, Note_on_c, 12, 68, 35
19, 40512, Note_on_c, 12, 70, 30
19, 40544, Note_on_c, 12, 68, 0
19, 40544, Note_on_c, 12, 70, 0
19, 40608, Note_on_c, 12, 68, 35
19, 40608, Note_on_c, 12, 70, 26
19, 40640, Note_on_c, 12, 68, 0
19, 40640, Note_on_c, 12, 70, 0
19, 40704, Note_on_c, 12, 68, 30
19, 40704, Note_on_c, 12, 71, 27
19, 40736, Note_on_c, 12, 68, 0
19, 40736, Note_on_c, 12, 71, 0
19, 40800, Note_on_c, 12, 68, 26
19, 40800, Note_on_c, 12, 71, 29
19, 40832, Note_on_c, 12, 68, 0
19, 40832, Note_on_c, 12, 71, 0
19, 40896, Note_on_c, 12, 68, 27
19, 40896, Note_on_c, 12, 71, 32
19, 40928, Note_on_c, 12, 68, 0
19, 40928, Note_on_c, 12, 71, 0
19, 40992, Note_on_c, 12, 68, 35
19, 40992, Note_on_c, 12, 71, 25
19, 41024, Note_on_c, 12, 68, 0
19, 41024, Note_on_c, 12, 71, 0
19, 41088, Note_on_c, 12, 68, 25
19, 41088, Note_on_c, 12, 71, 26
19, 41120, Note_on_c, 12, 68, 0
19, 41120, Note_on_c, 12, 71, 0
19, 41184, Note_on_c, 12, 68, 25
19, 41184, Note_on_c, 12, 71, 28
19, 41216, Note_on_c, 12, 68, 0
19, 41216, Note_on_c, 12, 71, 0
19, 41280, Note_on_c, 12, 71, 34
19, 41280, Note_on_c, 12, 74, 25
19, 41312, Note_on_c, 12, 71, 0
19, 41312, Note_on_c, 12, 74, 0
19, 41376, Note_on_c, 12, 71, 35
19, 41376, Note_on_c, 12, 74, 36
19, 41408, Note_on_c, 12, 71, 0
19, 41408, Note_on_c, 12, 74, 0
19, 41472, Note_on_c, 12, 71, 39
19, 41472, Note_on_c, 12, 74, 36
19, 41504, Note_on_c, 12, 71, 0
19, 41504, Note_on_c, 12, 74, 0
19, 41568, Note_on_c, 12, 71, 38
19, 41568, Note_on_c, 12, 74, 33
19, 41600, Note_on_c, 12, 71, 0
19, 41600, Note_on_c, 12, 74, 0
19, 41664, Note_on_c, 12, 71, 44
19, 41664, Note_on_c, 12, 74, 39
19, 41696, Note_on_c, 12, 71, 0
19, 41696, Note_on_c, 12, 74, 0
19, 41760, Note_on_c, 12, 71, 45
19, 41760, Note_on_c, 12, 74, 46
19, 41792, Note_on_c, 12, 71, 0
19, 41792, Note_on_c, 12, 74, 0
19, 41856, Note_on_c, 12, 71, 49
19, 41856, Note_on_c, 12, 74, 46
19, 41950, Note_on_c, 12, 71, 0
19, 41950, Note_on_c, 12, 74, 0
19, 46464, Note_on_c, 12, 56, 29
19, 46992, Note_on_c, 12, 56, 0
19, 47040, Note_on_c, 12, 57, 27
19, 47200, Note_on_c, 12, 57, 0
19, 47616, Note_on_c, 12, 56, 25
19, 48144, Note_on_c, 12, 56, 0
19, 49344, Note_on_c, 12, 74, 35
19, 49438, Note_on_c, 12, 74, 0
19, 49440, Note_on_c, 12, 74, 32
19, 49534, Note_on_c, 12, 74, 0
19, 49536, Note_on_c, 12, 74, 25
19, 49630, Note_on_c, 12, 74, 0
19, 49632, Note_on_c, 12, 74, 29
19, 49726, Note_on_c, 12, 74, 0
19, 49728, Note_on_c, 12, 74, 29
19, 49822, Note_on_c, 12, 74, 0
19, 49824, Note_on_c, 12, 74, 28
19, 49918, Note_on_c, 12, 74, 0
19, 49920, Note_on_c, 12, 74, 26
19, 50014, Note_on_c, 12, 74, 0
19, 50016, Note_on_c, 12, 74, 29
19, 50110, Note_on_c, 12, 74, 0
19, 50112, Note_on_c, 12, 74, 34
19, 50206, Note_on_c, 12, 74, 0
19, 50208, Note_on_c, 12, 74, 25
19, 50302, Note_on_c, 12, 74, 0
19, 50304, Note_on_c, 12, 74, 27
19, 50398, Note_on_c, 12, 74, 0
19, 50400, Note_on_c, 12, 74, 31
19, 50494, Note_on_c, 12, 74, 0
19, 50496, Note_on_c, 12, 73, 31
19, 50590, Note_on_c, 12, 73, 0
19, 50592, Note_on_c, 12, 73, 31
19, 50686, Note_on_c, 12, 73, 0
19, 50688, Note_on_c, 12, 73, 43
19, 50782, Note_on_c, 12, 73, 0
19, 50784, Note_on_c, 12, 66, 50
19, 50878, Note_on_c, 12, 66, 0
19, 50880, Note_on_c, 12, 65, 54
19, 50974, Note_on_c, 12, 65, 0
19, 50976, Note_on_c, 12, 63, 59
19, 51070, Note_on_c, 12, 63, 0
19, 51072, Note_on_c, 12, 62, 58
19, 51166, Note_on_c, 12, 62, 0
19, 51936, Note_on_c, 12, 61, 41
19, 51958, Note_on_c, 12, 61, 0
19, 51960, Note_on_c, 12, 68, 46
19, 51982, Note_on_c, 12, 68, 0
19, 51984, Note_on_c, 12, 63, 45
19, 52006, Note_on_c, 12, 63, 0
19, 52008, Note_on_c, 12, 66, 48
19, 52030, Note_on_c, 12, 66, 0
19, 52032, Note_on_c, 12, 61, 43
19, 52054, Note_on_c, 12, 61, 0
19, 52056, Note_on_c, 12, 68, 44
19, 52078, Note_on_c, 12, 68, 0
19, 52080, Note_on_c, 12, 63, 46
19, 52102, Note_on_c, 12, 63, 0
19, 52104, Note_on_c, 12, 66, 56
19, 52126, Note_on_c, 12, 66, 0
19, 52128, Note_on_c, 12, 61, 51
19, 52150, Note_on_c, 12, 61, 0
19, 52152, Note_on_c, 12, 68, 49
19, 52174, Note_on_c, 12, 68, 0
19, 52176, Note_on_c, 12, 63, 53
19, 52198, Note_on_c, 12, 63, 0
19, 52200, Note_on_c, 12, 66, 59
19, 52222, Note_on_c, 12, 66, 0
19, 52224, Note_on_c, 12, 61, 55
19, 52246, Note_on_c, 12, 61, 0
19, 52248, Note_on_c, 12, 68, 57
19, 52270, Note_on_c, 12, 68, 0
19, 52272, Note_on_c, 12, 63, 60
19, 52294, Note_on_c, 12, 63, 0
19, 52296, Note_on_c, 12, 66, 56
19, 52318, Note_on_c, 12, 66, 0
19, 52320, Note_on_c, 12, 61, 61
19, 52342, Note_on_c, 12, 61, 0
19, 52344, Note_on_c, 12, 68, 61
19, 52366, Note_on_c, 12, 68, 0
19, 52368, Note_on_c, 12, 63, 59
19, 52390, Note_on_c, 12, 63, 0
19, 52392, Note_on_c, 12, 66, 61
19, 52414, Note_on_c, 12, 66, 0
19, 52416, Note_on_c, 12, 61, 64
19, 52438, Note_on_c, 12, 61, 0
19, 52440, Note_on_c, 12, 68, 65
19, 52462, Note_on_c, 12, 68, 0
19, 52464, Note_on_c, 12, 63, 75
19, 52486, Note_on_c, 12, 63, 0
19, 52488, Note_on_c, 12, 66, 76
19, 52510, Note_on_c, 12, 66, 0
19, 52512, Note_on_c, 12, 73, 80
19, 52534, Note_on_c, 12, 73, 0
19, 52536, Note_on_c, 12, 71, 76
19, 52558, Note_on_c, 12, 71, 0
19, 52560, Note_on_c, 12, 73, 69
19, 52582, Note_on_c, 12, 73, 0
19, 52584, Note_on_c, 12, 71, 61
19, 52606, Note_on_c, 12, 71, 0
19, 52608, Note_on_c, 12, 61, 53
19, 52630, Note_on_c, 12, 61, 0
19, 52632, Note_on_c, 12, 59, 50
19, 52654, Note_on_c, 12, 59, 0
19, 52656, Note_on_c, 12, 61, 41
19, 52678, Note_on_c, 12, 61, 0
19, 52680, Note_on_c, 12, 59, 42
19, 52702, Note_on_c, 12, 59, 0
19, 52704, Note_on_c, 12, 61, 34
19, 52726, Note_on_c, 12, 61, 0
19, 52728, Note_on_c, 12, 59, 28
19, 52750, Note_on_c, 12, 59, 0
19, 52752, Note_on_c, 12, 61, 35
19, 52774, Note_on_c, 12, 61, 0
19, 52776, Note_on_c, 12, 59, 27
19, 52798, Note_on_c, 12, 59, 0
19, 52800, Note_on_c, 12, 73, 79
19, 52822, Note_on_c, 12, 73, 0
19, 52824, Note_on_c, 12, 71, 71
19, 52846, Note_on_c, 12, 71, 0
19, 52848, Note_on_c, 12, 73, 69
19, 52870, Note_on_c, 12, 73, 0
19, 52872, Note_on_c, 12, 71, 64
19, 52894, Note_on_c, 12, 71, 0
19, 52896, Note_on_c, 12, 61, 53
19, 52918, Note_on_c, 12, 61, 0
19, 52920, Note_on_c, 12, 59, 46
19, 52942, Note_on_c, 12, 59, 0
19, 52944, Note_on_c, 12, 61, 44
19, 52966, Note_on_c, 12, 61, 0
19, 52968, Note_on_c, 12, 59, 38
19, 52990, Note_on_c, 12, 59, 0
19, 52992, Note_on_c, 12, 61, 31
19, 53014, Note_on_c, 12, 61, 0
19, 53016, Note_on_c, 12, 59, 30
19, 53038, Note_on_c, 12, 59, 0
19, 53040, Note_on_c, 12, 61, 30
19, 53062, Note_on_c, 12, 61, 0
19, 53064, Note_on_c, 12, 59, 33
19, 53086, Note_on_c, 12, 59, 0
19, 53088, Note_on_c, 12, 73, 75
19, 53110, Note_on_c, 12, 73, 0
19, 53112, Note_on_c, 12, 71, 79
19, 53134, Note_on_c, 12, 71, 0
19, 53136, Note_on_c, 12, 73, 72
19, 53158, Note_on_c, 12, 73, 0
19, 53160, Note_on_c, 12, 71, 59
19, 53182, Note_on_c, 12, 71, 0
19, 53184, Note_on_c, 12, 61, 55
19, 53206, Note_on_c, 12, 61, 0
19, 53208, Note_on_c, 12, 59, 46
19, 53230, Note_on_c, 12, 59, 0
19, 53232, Note_on_c, 12, 61, 42
19, 53254, Note_on_c, 12, 61, 0
19, 53256, Note_on_c, 12, 59, 37
19, 53278, Note_on_c, 12, 59, 0
19, 53280, Note_on_c, 12, 61, 29
19, 53302, Note_on_c, 12, 61, 0
19, 53304, Note_on_c, 12, 59, 33
19, 53326, Note_on_c, 12, 59, 0
19, 53328, Note_on_c, 12, 61, 27
19, 53350, Note_on_c, 12, 61, 0
19, 53352, Note_on_c, 12, 59, 30
19, 53374, Note_on_c, 12, 59, 0
19, 53376, Note_on_c, 12, 73, 71
19, 53398, Note_on_c, 12, 73, 0
19, 53400, Note_on_c, 12, 71, 77
19, 53422, Note_on_c, 12, 71, 0
19, 53424, Note_on_c, 12, 73, 69
19, 53446, Note_on_c, 12, 73, 0
19, 53448, Note_on_c, 12, 71, 63
19, 53470, Note_on_c, 12, 71, 0
19, 53472, Note_on_c, 12, 61, 53
19, 53494, Note_on_c, 12, 61, 0
19, 53496, Note_on_c, 12, 59, 56
19, 53518, Note_on_c, 12, 59, 0
19, 53520, Note_on_c, 12, 61, 44
19, 53542, Note_on_c, 12, 61, 0
19, 53544, Note_on_c, 12, 59, 34
19, 53566, Note_on_c, 12, 59, 0
19, 53568, Note_on_c, 12, 61, 33
19, 53590, Note_on_c, 12, 61, 0
19, 53592, Note_on_c, 12, 59, 32
19, 53614, Note_on_c, 12, 59, 0
19, 53616, Note_on_c, 12, 61, 27
19, 53638, Note_on_c, 12, 61, 0
19, 53640, Note_on_c, 12, 59, 27
19, 53662, Note_on_c, 12, 59, 0
19, 53664, Note_on_c, 12, 59, 28
19, 53686, Note_on_c, 12, 59, 0
19, 53688, Note_on_c, 12, 59, 28
19, 53710, Note_on_c, 12, 59, 0
19, 53712, Note_on_c, 12, 59, 26
19, 53734, Note_on_c, 12, 59, 0
19, 53736, Note_on_c, 12, 59, 32
19, 53758, Note_on_c, 12, 59, 0
19, 53760, Note_on_c, 12, 59, 30
19, 53782, Note_on_c, 12, 59, 0
19, 53784, Note_on_c, 12, 59, 34
19, 53806, Note_on_c, 12, 59, 0
19, 53808, Note_on_c, 12, 59, 27
19, 53830, Note_on_c, 12, 59, 0
19, 53832, Note_on_c, 12, 59, 31
19, 53854, Note_on_c, 12, 59, 0
19, 53856, Note_on_c, 12, 59, 30
19, 53878, Note_on_c, 12, 59, 0
19, 53880, Note_on_c, 12, 59, 33
19, 53902, Note_on_c, 12, 59, 0
19, 53904, Note_on_c, 12, 59, 28
19, 53926, Note_on_c, 12, 59, 0
19, 53928, Note_on_c, 12, 59, 28
19, 53950, Note_on_c, 12, 59, 0
19, 53952, Note_on_c, 12, 59, 34
19, 53974, Note_on_c, 12, 59, 0
19, 53976, Note_on_c, 12, 59, 37
19, 53998, Note_on_c, 12, 59, 0
19, 54000, Note_on_c, 12, 59, 35
19, 54022, Note_on_c, 12, 59, 0
19, 54024, Note_on_c, 12, 59, 35
19, 54046, Note_on_c, 12, 59, 0
19, 54048, Note_on_c, 12, 59, 35
19, 54070, Note_on_c, 12, 59, 0
19, 54072, Note_on_c, 12, 59, 35
19, 54094, Note_on_c, 12, 59, 0
19, 54096, Note_on_c, 12, 59, 43
19, 54118, Note_on_c, 12, 59, 0
19, 54120, Note_on_c, 12, 59, 42
19, 54142, Note_on_c, 12, 59, 0
19, 54144, Note_on_c, 12, 59, 42
19, 54166, Note_on_c, 12, 59, 0
19, 54168, Note_on_c, 12, 59, 44
19, 54190, Note_on_c, 12, 59, 0
19, 54192, Note_on_c, 12, 59, 45
19, 54214, Note_on_c, 12, 59, 0
19, 54216, Note_on_c, 12, 59, 46
19, 54238, Note_on_c, 12, 59, 0
19, 54240, Note_on_c, 12, 62, 44
19, 54262, Note_on_c, 12, 62, 0
19, 54264, Note_on_c, 12, 64, 48
19, 54286, Note_on_c, 12, 64, 0
19, 54288, Note_on_c, 12, 62, 50
19, 54310, Note_on_c, 12, 62, 0
19, 54312, Note_on_c, 12, 64, 46
19, 54334, Note_on_c, 12, 64, 0
19, 54336, Note_on_c, 12, 66, 46
19, 54358, Note_on_c, 12, 66, 0
19, 54360, Note_on_c, 12, 68, 52
19, 54382, Note_on_c, 12, 68, 0
19, 54384, Note_on_c, 12, 66, 61
19, 54406, Note_on_c, 12, 66, 0
19, 54408, Note_on_c, 12, 68, 56
19, 54430, Note_on_c, 12, 68, 0
19, 54432, Note_on_c, 12, 68, 58
19, 54454, Note_on_c, 12, 68, 0
19, 54456, Note_on_c, 12, 71, 63
19, 54478, Note_on_c, 12, 71, 0
19, 54480, Note_on_c, 12, 68, 71
19, 54502, Note_on_c, 12, 68, 0
19, 54504, Note_on_c, 12, 71, 74
19, 54526, Note_on_c, 12, 71, 0
19, 54528, Note_on_c, 12, 62, 74
19, 54550, Note_on_c, 12, 62, 0
19, 54552, Note_on_c, 12, 64, 78
19, 54574, Note_on_c, 12, 64, 0
19, 54576, Note_on_c, 12, 62, 73
19, 54598, Note_on_c, 12, 62, 0
19, 54600, Note_on_c, 12, 64, 80
19, 54622, Note_on_c, 12, 64, 0
19, 54624, Note_on_c, 12, 66, 78
19, 54646, Note_on_c, 12, 66, 0
19, 54648, Note_on_c, 12, 68, 75
19, 54670, Note_on_c, 12, 68, 0
19, 54672, Note_on_c, 12, 66, 80
19, 54694, Note_on_c, 12, 66, 0
19, 54696, Note_on_c, 12, 68, 72
19, 54718, Note_on_c, 12, 68, 0
19, 54720, Note_on_c, 12, 68, 80
19, 54742, Note_on_c, 12, 68, 0
19, 54744, Note_on_c, 12, 71, 75
19, 54766, Note_on_c, 12, 71, 0
19, 54768, Note_on_c, 12, 68, 73
19, 54790, Note_on_c, 12, 68, 0
19, 54792, Note_on_c, 12, 71, 71
19, 54814, Note_on_c, 12, 71, 0
19, 54816, Note_on_c, 12, 62, 47
19, 54838, Note_on_c, 12, 62, 0
19, 54840, Note_on_c, 12, 64, 45
19, 54862, Note_on_c, 12, 64, 0
19, 54864, Note_on_c, 12, 62, 43
19, 54886, Note_on_c, 12, 62, 0
19, 54888, Note_on_c, 12, 64, 48
19, 54910, Note_on_c, 12, 64, 0
19, 54912, Note_on_c, 12, 66, 47
19, 54934, Note_on_c, 12, 66, 0
19, 54936, Note_on_c, 12, 68, 52
19, 54958, Note_on_c, 12, 68, 0
19, 54960, Note_on_c, 12, 66, 62
19, 54982, Note_on_c, 12, 66, 0
19, 54984, Note_on_c, 12, 68, 63
19, 55006, Note_on_c, 12, 68, 0
19, 55008, Note_on_c, 12, 68, 66
19, 55030, Note_on_c, 12, 68, 0
19, 55032, Note_on_c, 12, 71, 67
19, 55054, Note_on_c, 12, 71, 0
19, 55056, Note_on_c, 12, 68, 65
19, 55078, Note_on_c, 12, 68, 0
19, 55080, Note_on_c, 12, 71, 67
19, 55102, Note_on_c, 12, 71, 0
19, 55104, Note_on_c, 12, 62, 79
19, 55126, Note_on_c, 12, 62, 0
19, 55128, Note_on_c, 12, 64, 80
19, 55150, Note_on_c, 12, 64, 0
19, 55152, Note_on_c, 12, 62, 80
19, 55174, Note_on_c, 12, 62, 0
19, 55176, Note_on_c, 12, 64, 71
19, 55198, Note_on_c, 12, 64, 0
19, 55200, Note_on_c, 12, 66, 73
19, 55222, Note_on_c, 12, 66, 0
19, 55224, Note_on_c, 12, 68, 75
19, 55246, Note_on_c, 12, 68, 0
19, 55248, Note_on_c, 12, 66, 78
19, 55270, Note_on_c, 12, 66, 0
19, 55272, Note_on_c, 12, 68, 73
19, 55294, Note_on_c, 12, 68, 0
19, 55296, Note_on_c, 12, 68, 77
19, 55318, Note_on_c, 12, 68, 0
19, 55320, Note_on_c, 12, 71, 73
19, 55342, Note_on_c, 12, 71, 0
19, 55344, Note_on_c, 12, 68, 74
19, 55366, Note_on_c, 12, 68, 0
19, 55368, Note_on_c, 12, 71, 73
19, 55390, Note_on_c, 12, 71, 0
19, 55392, Note_on_c, 12, 62, 45
19, 55414, Note_on_c, 12, 62, 0
19, 55416, Note_on_c, 12, 64, 45
19, 55438, Note_on_c, 12, 64, 0
19, 55440, Note_on_c, 12, 62, 43
19, 55462, Note_on_c, 12, 62, 0
19, 55464, Note_on_c, 12, 64, 54
19, 55486, Note_on_c, 12, 64, 0
19, 55488, Note_on_c, 12, 66, 47
19, 55510, Note_on_c, 12, 66, 0
19, 55512, Note_on_c, 12, 68, 52
19, 55534, Note_on_c, 12, 68, 0
19, 55536, Note_on_c, 12, 66, 52
19, 55558, Note_on_c, 12, 66, 0
19, 55560, Note_on_c, 12, 68, 62
19, 55582, Note_on_c, 12, 68, 0
19, 55584, Note_on_c, 12, 68, 62
19, 55606, Note_on_c, 12, 68, 0
19, 55608, Note_on_c, 12, 71, 68
19, 55630, Note_on_c, 12, 71, 0
19, 55632, Note_on_c, 12, 68, 74
19, 55654, Note_on_c, 12, 68, 0
19, 55656, Note_on_c, 12, 71, 74
19, 55678, Note_on_c, 12, 71, 0
19, 55680, Note_on_c, 12, 62, 80
19, 55702, Note_on_c, 12, 62, 0
19, 55704, Note_on_c, 12, 64, 78
19, 55726, Note_on_c, 12, 64, 0
19, 55728, Note_on_c, 12, 62, 71
19, 55750, Note_on_c, 12, 62, 0
19, 55752, Note_on_c, 12, 64, 80
19, 55774, Note_on_c, 12, 64, 0
19, 55776, Note_on_c, 12, 66, 75
19, 55798, Note_on_c, 12, 66, 0
19, 55800, Note_on_c, 12, 68, 78
19, 55822, Note_on_c, 12, 68, 0
19, 55824, Note_on_c, 12, 66, 73
19, 55846, Note_on_c, 12, 66, 0
19, 55848, Note_on_c, 12, 68, 79
19, 55870, Note_on_c, 12, 68, 0
19, 55872, Note_on_c, 12, 68, 79
19, 55894, Note_on_c, 12, 68, 0
19, 55896, Note_on_c, 12, 71, 70
19, 55918, Note_on_c, 12, 71, 0
19, 55920, Note_on_c, 12, 68, 73
19, 55942, Note_on_c, 12, 68, 0
19, 55944, Note_on_c, 12, 71, 80
19, 55966, Note_on_c, 12, 71, 0
19, 55968, Note_on_c, 12, 62, 40
19, 55990, Note_on_c, 12, 62, 0
19, 55992, Note_on_c, 12, 64, 45
19, 56014, Note_on_c, 12, 64, 0
19, 56016, Note_on_c, 12, 62, 43
19, 56038, Note_on_c, 12, 62, 0
19, 56040, Note_on_c, 12, 64, 48
19, 56062, Note_on_c, 12, 64, 0
19, 56064, Note_on_c, 12, 66, 51
19, 56086, Note_on_c, 12, 66, 0
19, 56088, Note_on_c, 12, 68, 54
19, 56110, Note_on_c, 12, 68, 0
19, 56112, Note_on_c, 12, 66, 62
19, 56134, Note_on_c, 12, 66, 0
19, 56136, Note_on_c, 12, 68, 61
19, 56158, Note_on_c, 12, 68, 0
19, 56160, Note_on_c, 12, 68, 63
19, 56182, Note_on_c, 12, 68, 0
19, 56184, Note_on_c, 12, 71, 70
19, 56206, Note_on_c, 12, 71, 0
19, 56208, Note_on_c, 12, 68, 68
19, 56230, Note_on_c, 12, 68, 0
19, 56232, Note_on_c, 12, 71, 76
19, 56254, Note_on_c, 12, 71, 0
19, 56256, Note_on_c, 12, 62, 80
19, 56278, Note_on_c, 12, 62, 0
19, 56280, Note_on_c, 12, 64, 76
19, 56302, Note_on_c, 12, 64, 0
19, 56304, Note_on_c, 12, 62, 78
19, 56326, Note_on_c, 12, 62, 0
19, 56328, Note_on_c, 12, 64, 73
19, 56350, Note_on_c, 12, 64, 0
19, 56352, Note_on_c, 12, 66, 72
19, 56374, Note_on_c, 12, 66, 0
19, 56376, Note_on_c, 12, 68, 72
19, 56398, Note_on_c, 12, 68, 0
19, 56400, Note_on_c, 12, 66, 75
19, 56422, Note_on_c, 12, 66, 0
19, 56424, Note_on_c, 12, 68, 74
19, 56446, Note_on_c, 12, 68, 0
19, 56448, Note_on_c, 12, 68, 79
19, 56470, Note_on_c, 12, 68, 0
19, 56472, Note_on_c, 12, 71, 70
19, 56494, Note_on_c, 12, 71, 0
19, 56496, Note_on_c, 12, 68, 78
19, 56518, Note_on_c, 12, 68, 0
19, 56520, Note_on_c, 12, 71, 70
19, 56542, Note_on_c, 12, 71, 0
19, 67296, Note_on_c, 12, 65, 34
19, 68256, Note_on_c, 12, 65, 0
19, 68256, Note_on_c, 12, 67, 33
19, 68448, Note_on_c, 12, 67, 0
19, 68448, Note_on_c, 12, 65, 25
19, 68640, Note_on_c, 12, 65, 0
19, 68640, Note_on_c, 12, 67, 33
19, 68832, Note_on_c, 12, 67, 0
19, 68832, Note_on_c, 12, 66, 28
19, 69024, Note_on_c, 12, 66, 0
19, 69024, Note_on_c, 12, 68, 28
19, 69216, Note_on_c, 12, 68, 0
19, 69216, Note_on_c, 12, 66, 31
19, 69408, Note_on_c, 12, 66, 0
19, 69408, Note_on_c, 12, 68, 34
19, 69600, Note_on_c, 12, 68, 0
19, 69600, Note_on_c, 12, 67, 94
19, 69792, Note_on_c, 12, 67, 0
19, 69792, Note_on_c, 12, 69, 97
19, 69984, Note_on_c, 12, 69, 0
19, 69984, Note_on_c, 12, 67, 91
19, 70176, Note_on_c, 12, 67, 0
19, 70176, Note_on_c, 12, 69, 90
19, 70368, Note_on_c, 12, 69, 0
19, 70368, Note_on_c, 12, 67, 95
19, 70560, Note_on_c, 12, 67, 0
19, 70560, Note_on_c, 12, 69, 91
19, 70752, Note_on_c, 12, 69, 0
19, 70752, Note_on_c, 12, 67, 94
19, 70944, Note_on_c, 12, 67, 0
19, 70944, Note_on_c, 12, 69, 90
19, 71136, Note_on_c, 12, 69, 0
19, 71136, Note_on_c, 12, 79, 94
19, 71904, Note_on_c, 12, 79, 0
19, 76320, Note_on_c, 12, 63, 55
19, 76702, Note_on_c, 12, 63, 0
19, 76704, Note_on_c, 12, 64, 55
19, 76864, Note_on_c, 12, 64, 0
19, 76896, Note_on_c, 12, 63, 64
19, 77278, Note_on_c, 12, 63, 0
19, 77280, Note_on_c, 12, 64, 61
19, 77440, Note_on_c, 12, 64, 0
19, 77472, Note_on_c, 12, 67, 106
19, 77854, Note_on_c, 12, 67, 0
19, 77856, Note_on_c, 12, 69, 103
19, 78016, Note_on_c, 12, 69, 0
19, 78048, Note_on_c, 12, 67, 109
19, 78430, Note_on_c, 12, 67, 0
19, 78432, Note_on_c, 12, 69, 112
19, 78592, Note_on_c, 12, 69, 0
19, 89856, Note_on_c, 12, 70, 27
19, 89950, Note_on_c, 12, 70, 0
19, 89952, Note_on_c, 12, 78, 28
19, 90094, Note_on_c, 12, 78, 0
19, 90096, Note_on_c, 12, 82, 34
19, 90238, Note_on_c, 12, 82, 0
19, 90432, Note_on_c, 12, 70, 32
19, 90526, Note_on_c, 12, 70, 0
19, 90528, Note_on_c, 12, 78, 27
19, 90670, Note_on_c, 12, 78, 0
19, 90672, Note_on_c, 12, 82, 31
19, 90814, Note_on_c, 12, 82, 0
19, 91008, Note_on_c, 12, 70, 28
19, 91102, Note_on_c, 12, 70, 0
19, 91104, Note_on_c, 12, 78, 26
19, 91246, Note_on_c, 12, 78, 0
19, 91248, Note_on_c, 12, 82, 27
19, 91390, Note_on_c, 12, 82, 0
19, 91584, Note_on_c, 12, 70, 28
19, 91678, Note_on_c, 12, 70, 0
19, 91680, Note_on_c, 12, 78, 26
19, 91822, Note_on_c, 12, 78, 0
19, 91824, Note_on_c, 12, 82, 29
19, 91966, Note_on_c, 12, 82, 0
19, 92160, Note_on_c, 12, 70, 29
19, 92254, Note_on_c, 12, 70, 0
19, 92256, Note_on_c, 12, 78, 34
19, 92398, Note_on_c, 12, 78, 0
19, 92400, Note_on_c, 12, 82, 35
19, 92542, Note_on_c, 12, 82, 0
19, 92736, Note_on_c, 12, 70, 25
19, 92830, Note_on_c, 12, 70, 0
19, 92832, Note_on_c, 12, 78, 35
19, 92974, Note_on_c, 12, 78, 0
19, 92976, Note_on_c, 12, 82, 33
19, 93118, Note_on_c, 12, 82, 0
19, 93312, Note_on_c, 12, 70, 29
19, 93406, Note_on_c, 12, 70, 0
19, 93408, Note_on_c, 12, 78, 28
19, 93550, Note_on_c, 12, 78, 0
19, 93552, Note_on_c, 12, 82, 35
19, 93694, Note_on_c, 12, 82, 0
19, 93888, Note_on_c, 12, 70, 28
19, 93982, Note_on_c, 12, 70, 0
19, 93984, Note_on_c, 12, 78, 35
19, 94126, Note_on_c, 12, 78, 0
19, 94128, Note_on_c, 12, 82, 29
19, 94174, Note_on_c, 12, 82, 0
19, 94560, Control_c, 12, 11, 92
19, 94560, Note_on_c, 12, 71, 41
19, 94560, Note_on_c, 12, 83, 41
19, 94570, Control_c, 12, 11, 93
19, 94581, Control_c, 12, 11, 94
19, 94592, Control_c, 12, 11, 95
19, 94603, Control_c, 12, 11, 96
19, 94614, Control_c, 12, 11, 97
19, 94622, Note_on_c, 12, 71, 0
19, 94622, Note_on_c, 12, 83, 0
19, 94624, Note_on_c, 12, 65, 50
19, 94624, Note_on_c, 12, 77, 46
19, 94625, Control_c, 12, 11, 98
19, 94636, Control_c, 12, 11, 99
19, 94647, Control_c, 12, 11, 100
19, 94658, Control_c, 12, 11, 101
19, 94669, Control_c, 12, 11, 102
19, 94680, Control_c, 12, 11, 103
19, 94691, Control_c, 12, 11, 104
19, 94702, Control_c, 12, 11, 105
19, 94713, Control_c, 12, 11, 106
19, 94718, Note_on_c, 12, 65, 0
19, 94718, Note_on_c, 12, 77, 0
19, 94720, Note_on_c, 12, 59, 49
19, 94720, Note_on_c, 12, 71, 42
19, 94724, Control_c, 12, 11, 107
19, 94735, Control_c, 12, 11, 108
19, 94746, Control_c, 12, 11, 109
19, 94750, Note_on_c, 12, 59, 0
19, 94750, Note_on_c, 12, 71, 0
19, 94752, Note_on_c, 12, 63, 41
19, 94752, Note_on_c, 12, 75, 46
19, 94757, Control_c, 12, 11, 110
19, 94768, Control_c, 12, 11, 111
19, 94779, Control_c, 12, 11, 112
19, 94790, Control_c, 12, 11, 113
19, 94801, Control_c, 12, 11, 114
19, 94812, Control_c, 12, 11, 115
19, 94814, Note_on_c, 12, 63, 0
19, 94814, Note_on_c, 12, 75, 0
19, 94816, Note_on_c, 12, 69, 49
19, 94816, Note_on_c, 12, 81, 43
19, 94823, Control_c, 12, 11, 116
19, 94834, Control_c, 12, 11, 117
19, 94845, Control_c, 12, 11, 118
19, 94856, Control_c, 12, 11, 119
19, 94867, Control_c, 12, 11, 120
19, 94878, Note_on_c, 12, 69, 0
19, 94878, Note_on_c, 12, 81, 0
19, 94878, Control_c, 12, 11, 121
19, 94880, Note_on_c, 12, 73, 47
19, 94880, Note_on_c, 12, 85, 45
19, 94889, Control_c, 12, 11, 122
19, 94900, Control_c, 12, 11, 123
19, 94911, Control_c, 12, 11, 124
19, 94922, Control_c, 12, 11, 125
19, 94933, Control_c, 12, 11, 126
19, 94942, Note_on_c, 12, 73, 0
19, 94942, Note_on_c, 12, 85, 0
19, 94944, Control_c, 12, 11, 127
19, 95328, Control_c, 12, 11, 127
19, 95328, Note_on_c, 12, 71, 26
19, 95328, Note_on_c, 12, 83, 30
19, 95338, Control_c, 12, 11, 126
19, 95349, Control_c, 12, 11, 125
19, 95360, Control_c, 12, 11, 124
19, 95371, Control_c, 12, 11, 123
19, 95382, Control_c, 12, 11, 122
19, 95390, Note_on_c, 12, 71, 0
19, 95390, Note_on_c, 12, 83, 0
19, 95392, Note_on_c, 12, 65, 29
19, 95392, Note_on_c, 12, 77, 28
19, 95393, Control_c, 12, 11, 121
19, 95404, Control_c, 12, 11, 120
19, 95415, Control_c, 12, 11, 119
19, 95426, Control_c, 12, 11, 118
19, 95437, Control_c, 12, 11, 117
19, 95448, Control_c, 12, 11, 116
19, 95459, Control_c, 12, 11, 115
19, 95470, Control_c, 12, 11, 114
19, 95481, Control_c, 12, 11, 113
19, 95486, Note_on_c, 12, 65, 0
19, 95486, Note_on_c, 12, 77, 0
19, 95488, Note_on_c, 12, 59, 30
19, 95488, Note_on_c, 12, 71, 33
19, 95492, Control_c, 12, 11, 112
19, 95503, Control_c, 12, 11, 111
19, 95514, Control_c, 12, 11, 110
19, 95518, Note_on_c, 12, 59, 0
19, 95518, Note_on_c, 12, 71, 0
19, 95520, Note_on_c, 12, 59, 33
19, 95520, Note_on_c, 12, 71, 34
19, 95525, Control_c, 12, 11, 109
19, 95536, Control_c, 12, 11, 108
19, 95547, Control_c, 12, 11, 107
19, 95558, Control_c, 12, 11, 106
19, 95569, Control_c, 12, 11, 105
19, 95580, Control_c, 12, 11, 104
19, 95582, Note_on_c, 12, 59, 0
19, 95582, Note_on_c, 12, 71, 0
19, 95584, Note_on_c, 12, 65, 25
19, 95584, Note_on_c, 12, 77, 26
19, 95591, Control_c, 12, 11, 103
19, 95602, Control_c, 12, 11, 102
19, 95613, Control_c, 12, 11, 101
19, 95624, Control_c, 12, 11, 100
19, 95635, Control_c, 12, 11, 99
19, 95646, Note_on_c, 12, 65, 0
19, 95646, Note_on_c, 12, 77, 0
19, 95646, Control_c, 12, 11, 98
19, 95657, Control_c, 12, 11, 97
19, 95668, Control_c, 12, 11, 96
19, 95679, Control_c, 12, 11, 95
19, 95690, Control_c, 12, 11, 94
19, 95701, Control_c, 12, 11, 93
19, 95712, Control_c, 12, 11, 92
19, 95712, Control_c, 12, 11, 92
19, 95733, Control_c, 12, 11, 91
19, 95754, Control_c, 12, 11, 90
19, 95775, Control_c, 12, 11, 89
19, 95796, Control_c, 12, 11, 88
19, 95817, Control_c, 12, 11, 87
19, 95838, Control_c, 12, 11, 86
19, 95859, Control_c, 12, 11, 85
19, 95880, Control_c, 12, 11, 84
19, 95901, Control_c, 12, 11, 83
19, 95922, Control_c, 12, 11, 82
19, 95943, Control_c, 12, 11, 81
19, 95964, Control_c, 12, 11, 80
19, 95985, Control_c, 12, 11, 79
19, 96006, Control_c, 12, 11, 78
19, 96027, Control_c, 12, 11, 77
19, 96032, Note_on_c, 12, 71, 26
19, 96032, Note_on_c, 12, 83, 27
19, 96048, Control_c, 12, 11, 76
19, 96069, Control_c, 12, 11, 75
19, 96090, Control_c, 12, 11, 74
19, 96111, Control_c, 12, 11, 73
19, 96132, Control_c, 12, 11, 72
19, 96153, Control_c, 12, 11, 71
19, 96174, Control_c, 12, 11, 70
19, 96190, Note_on_c, 12, 71, 0
19, 96190, Note_on_c, 12, 83, 0
19, 96192, Note_on_c, 12, 59, 28
19, 96192, Note_on_c, 12, 71, 33
19, 96195, Control_c, 12, 11, 69
19, 96216, Control_c, 12, 11, 68
19, 96237, Control_c, 12, 11, 67
19, 96258, Control_c, 12, 11, 66
19, 96279, Control_c, 12, 11, 65
19, 96286, Note_on_c, 12, 59, 0
19, 96286, Note_on_c, 12, 71, 0
19, 96288, Note_on_c, 12, 65, 26
19, 96288, Note_on_c, 12, 77, 25
19, 96300, Control_c, 12, 11, 64
19, 96321, Control_c, 12, 11, 63
19, 96342, Control_c, 12, 11, 62
19, 96363, Control_c, 12, 11, 61
19, 96382, Note_on_c, 12, 65, 0
19, 96382, Note_on_c, 12, 77, 0
19, 96384, Control_c, 12, 11, 60
19, 96384, Note_on_c, 12, 71, 27
19, 96384, Note_on_c, 12, 83, 35
19, 96478, Note_on_c, 12, 71, 0
19, 96478, Note_on_c, 12, 83, 0
19, 96480, Note_on_c, 12, 70, 32
19, 97632, Note_on_c, 12, 70, 0
19, 97632, Note_on_c, 12, 69, 29
19, 98784, Note_on_c, 12, 69, 0
19, 98784, Note_on_c, 12, 68, 27
19, 100512, Note_on_c, 12, 68, 0
19, 100512, Note_on_c, 12, 64, 34
19, 101088, Note_on_c, 12, 64, 0
19, 101088, Note_on_c, 12, 65, 29
19, 103392, Note_on_c, 12, 65, 0
19, 103392, Note_on_c, 12, 64, 35
19, 104544, Note_on_c, 12, 64, 0
19, 104544, Note_on_c, 12, 62, 35
19, 105696, Note_on_c, 12, 62, 0
19, 105696, Note_on_c, 12, 64, 22
19, 106848, Note_on_c, 12, 64, 0
19, 106848, Note_on_c, 12, 62, 24
19, 108160, Note_on_c, 12, 62, 0
19, 108160, End_track
20, 0, Start_track
20, 0, Title_t, "Viole I"
20, 0, MIDI_port, 0
20, 5568, Note_on_c, 13, 61, 26
20, 6144, Note_on_c, 13, 61, 0
20, 6144, Note_on_c, 13, 66, 25
20, 6528, Note_on_c, 13, 66, 0
20, 6528, Note_on_c, 13, 68, 28
20, 6912, Note_on_c, 13, 68, 0
20, 6912, Note_on_c, 13, 71, 34
20, 7296, Note_on_c, 13, 71, 0
20, 7296, Note_on_c, 13, 73, 35
20, 7680, Note_on_c, 13, 73, 0
20, 7680, Note_on_c, 13, 78, 26
20, 8064, Note_on_c, 13, 78, 0
20, 10368, Program_c, 13, 44
20, 11136, Note_on_c, 13, 59, 32
20, 11328, Note_on_c, 13, 59, 0
20, 11328, Note_on_c, 13, 57, 31
20, 11520, Note_on_c, 13, 57, 0
20, 11520, Note_on_c, 13, 56, 27
20, 11712, Note_on_c, 13, 56, 0
20, 11712, Note_on_c, 13, 54, 31
20, 11904, Note_on_c, 13, 54, 0
20, 11904, Note_on_c, 13, 59, 26
20, 12096, Note_on_c, 13, 59, 0
20, 12096, Note_on_c, 13, 57, 33
20, 12288, Note_on_c, 13, 57, 0
20, 12288, Note_on_c, 13, 56, 25
20, 12480, Note_on_c, 13, 56, 0
20, 12480, Note_on_c, 13, 54, 31
20, 12672, Note_on_c, 13, 54, 0
20, 18048, Control_c, 13, 11, 127
20, 18816, Note_on_c, 13, 59, 29
20, 19008, Note_on_c, 13, 59, 0
20, 19008, Note_on_c, 13, 57, 26
20, 19200, Note_on_c, 13, 57, 0
20, 19200, Note_on_c, 13, 56, 35
20, 19392, Note_on_c, 13, 56, 0
20, 19392, Note_on_c, 13, 54, 30
20, 19584, Note_on_c, 13, 54, 0
20, 19584, Note_on_c, 13, 59, 28
20, 19776, Note_on_c, 13, 59, 0
20, 19776, Note_on_c, 13, 57, 26
20, 19968, Note_on_c, 13, 57, 0
20, 19968, Note_on_c, 13, 56, 26
20, 20160, Note_on_c, 13, 56, 0
20, 20160, Note_on_c, 13, 54, 25
20, 20352, Note_on_c, 13, 54, 0
20, 22272, Control_c, 13, 11, 75
20, 24576, Control_c, 13, 11, 75
20, 24576, Note_on_c, 13, 59, 29
20, 24598, Control_c, 13, 11, 76
20, 24620, Control_c, 13, 11, 77
20, 24642, Control_c, 13, 11, 78
20, 24664, Control_c, 13, 11, 79
20, 24686, Control_c, 13, 11, 80
20, 24708, Control_c, 13, 11, 81
20, 24731, Control_c, 13, 11, 82
20, 24753, Control_c, 13, 11, 83
20, 24775, Control_c, 13, 11, 84
20, 24797, Control_c, 13, 11, 85
20, 24819, Control_c, 13, 11, 86
20, 24841, Control_c, 13, 11, 87
20, 24864, Note_on_c, 13, 59, 0
20, 24864, Control_c, 13, 11, 88
20, 24864, Note_on_c, 13, 61, 27
20, 24886, Control_c, 13, 11, 89
20, 24908, Control_c, 13, 11, 90
20, 24930, Control_c, 13, 11, 91
20, 24952, Control_c, 13, 11, 92
20, 24974, Control_c, 13, 11, 93
20, 24996, Control_c, 13, 11, 94
20, 25019, Control_c, 13, 11, 95
20, 25041, Control_c, 13, 11, 96
20, 25063, Control_c, 13, 11, 97
20, 25085, Control_c, 13, 11, 98
20, 25107, Control_c, 13, 11, 99
20, 25129, Control_c, 13, 11, 100
20, 25152, Note_on_c, 13, 61, 0
20, 25152, Control_c, 13, 11, 101
20, 25152, Note_on_c, 13, 59, 34
20, 25174, Control_c, 13, 11, 102
20, 25196, Control_c, 13, 11, 103
20, 25218, Control_c, 13, 11, 104
20, 25240, Control_c, 13, 11, 105
20, 25262, Control_c, 13, 11, 106
20, 25284, Control_c, 13, 11, 107
20, 25307, Control_c, 13, 11, 108
20, 25329, Control_c, 13, 11, 109
20, 25351, Control_c, 13, 11, 110
20, 25373, Control_c, 13, 11, 111
20, 25395, Control_c, 13, 11, 112
20, 25417, Control_c, 13, 11, 113
20, 25440, Note_on_c, 13, 59, 0
20, 25440, Control_c, 13, 11, 114
20, 25440, Note_on_c, 13, 61, 32
20, 25462, Control_c, 13, 11, 115
20, 25484, Control_c, 13, 11, 116
20, 25506, Control_c, 13, 11, 117
20, 25528, Control_c, 13, 11, 118
20, 25550, Control_c, 13, 11, 119
20, 25572, Control_c, 13, 11, 120
20, 25595, Control_c, 13, 11, 121
20, 25617, Control_c, 13, 11, 122
20, 25639, Control_c, 13, 11, 123
20, 25661, Control_c, 13, 11, 124
20, 25683, Control_c, 13, 11, 125
20, 25705, Control_c, 13, 11, 126
20, 25728, Note_on_c, 13, 61, 0
20, 25728, Control_c, 13, 11, 127
20, 25728, Control_c, 13, 11, 75
20, 26880, Control_c, 13, 11, 45
20, 26880, Note_on_c, 13, 66, 89
20, 26922, Control_c, 13, 11, 46
20, 26964, Control_c, 13, 11, 47
20, 27006, Control_c, 13, 11, 48
20, 27048, Control_c, 13, 11, 49
20, 27090, Control_c, 13, 11, 50
20, 27132, Control_c, 13, 11, 51
20, 27168, Note_on_c, 13, 66, 0
20, 27168, Note_on_c, 13, 68, 87
20, 27175, Control_c, 13, 11, 52
20, 27217, Control_c, 13, 11, 53
20, 27259, Control_c, 13, 11, 54
20, 27301, Control_c, 13, 11, 55
20, 27343, Control_c, 13, 11, 56
20, 27385, Control_c, 13, 11, 57
20, 27427, Control_c, 13, 11, 58
20, 27456, Note_on_c, 13, 68, 0
20, 27456, Note_on_c, 13, 66, 88
20, 27470, Control_c, 13, 11, 59
20, 27512, Control_c, 13, 11, 60
20, 27554, Control_c, 13, 11, 61
20, 27596, Control_c, 13, 11, 62
20, 27638, Control_c, 13, 11, 63
20, 27680, Control_c, 13, 11, 64
20, 27722, Control_c, 13, 11, 65
20, 27744, Note_on_c, 13, 66, 0
20, 27744, Note_on_c, 13, 68, 90
20, 27765, Control_c, 13, 11, 66
20, 27807, Control_c, 13, 11, 67
20, 27849, Control_c, 13, 11, 68
20, 27891, Control_c, 13, 11, 69
20, 27933, Control_c, 13, 11, 70
20, 27975, Control_c, 13, 11, 71
20, 28017, Control_c, 13, 11, 72
20, 28032, Note_on_c, 13, 68, 0
20, 28032, Note_on_c, 13, 66, 88
20, 28060, Control_c, 13, 11, 73
20, 28102, Control_c, 13, 11, 74
20, 28144, Control_c, 13, 11, 75
20, 28186, Control_c, 13, 11, 76
20, 28228, Control_c, 13, 11, 77
20, 28270, Control_c, 13, 11, 78
20, 28312, Control_c, 13, 11, 79
20, 28320, Note_on_c, 13, 66, 0
20, 28320, Note_on_c, 13, 68, 88
20, 28355, Control_c, 13, 11, 80
20, 28397, Control_c, 13, 11, 81
20, 28439, Control_c, 13, 11, 82
20, 28481, Control_c, 13, 11, 83
20, 28523, Control_c, 13, 11, 84
20, 28565, Control_c, 13, 11, 85
20, 28608, Note_on_c, 13, 68, 0
20, 28608, Control_c, 13, 11, 86
20, 28608, Note_on_c, 13, 66, 97
20, 28650, Control_c, 13, 11, 87
20, 28692, Control_c, 13, 11, 88
20, 28734, Control_c, 13, 11, 89
20, 28776, Control_c, 13, 11, 90
20, 28818, Control_c, 13, 11, 91
20, 28860, Control_c, 13, 11, 92
20, 28896, Note_on_c, 13, 66, 0
20, 28896, Note_on_c, 13, 68, 94
20, 28903, Control_c, 13, 11, 93
20, 28945, Control_c, 13, 11, 94
20, 28987, Control_c, 13, 11, 95
20, 29029, Control_c, 13, 11, 96
20, 29071, Control_c, 13, 11, 97
20, 29113, Control_c, 13, 11, 98
20, 29155, Control_c, 13, 11, 99
20, 29184, Note_on_c, 13, 68, 0
20, 29184, Note_on_c, 13, 59, 94
20, 29198, Control_c, 13, 11, 100
20, 29240, Control_c, 13, 11, 101
20, 29282, Control_c, 13, 11, 102
20, 29324, Control_c, 13, 11, 103
20, 29366, Control_c, 13, 11, 104
20, 29408, Control_c, 13, 11, 105
20, 29450, Control_c, 13, 11, 106
20, 29472, Note_on_c, 13, 59, 0
20, 29472, Note_on_c, 13, 61, 88
20, 29493, Control_c, 13, 11, 107
20, 29535, Control_c, 13, 11, 108
20, 29577, Control_c, 13, 11, 109
20, 29619, Control_c, 13, 11, 110
20, 29661, Control_c, 13, 11, 111
20, 29703, Control_c, 13, 11, 112
20, 29745, Control_c, 13, 11, 113
20, 29760, Note_on_c, 13, 61, 0
20, 29760, Note_on_c, 13, 59, 87
20, 29788, Control_c, 13, 11, 114
20, 29830, Control_c, 13, 11, 115
20, 29872, Control_c, 13, 11, 116
20, 29914, Control_c, 13, 11, 117
20, 29956, Control_c, 13, 11, 118
20, 29998, Control_c, 13, 11, 119
20, 30040, Control_c, 13, 11, 120
20, 30048, Note_on_c, 13, 59, 0
20, 30048, Note_on_c, 13, 61, 96
20, 30083, Control_c, 13, 11, 121
20, 30125, Control_c, 13, 11, 122
20, 30167, Control_c, 13, 11, 123
20, 30209, Control_c, 13, 11, 124
20, 30251, Control_c, 13, 11, 125
20, 30293, Control_c, 13, 11, 126
20, 30336, Note_on_c, 13, 61, 0
20, 30336, Control_c, 13, 11, 127
20, 30336, Program_c, 13, 48
20, 30336, Note_on_c, 13, 56, 90
20, 30382, Note_on_c, 13, 56, 0
20, 30384, Note_on_c, 13, 61, 96
20, 30430, Note_on_c, 13, 61, 0
20, 30432, Note_on_c, 13, 56, 86
20, 30478, Note_on_c, 13, 56, 0
20, 30480, Note_on_c, 13, 61, 80
20, 30526, Note_on_c, 13, 61, 0
20, 30528, Note_on_c, 13, 56, 76
20, 30574, Note_on_c, 13, 56, 0
20, 30576, Note_on_c, 13, 61, 81
20, 30622, Note_on_c, 13, 61, 0
20, 30624, Note_on_c, 13, 56, 73
20, 30670, Note_on_c, 13, 56, 0
20, 30672, Note_on_c, 13, 61, 71
20, 30718, Note_on_c, 13, 61, 0
20, 30720, Note_on_c, 13, 56, 61
20, 30766, Note_on_c, 13, 56, 0
20, 30768, Note_on_c, 13, 61, 57
20, 30814, Note_on_c, 13, 61, 0
20, 30816, Note_on_c, 13, 56, 57
20, 30862, Note_on_c, 13, 56, 0
20, 30864, Note_on_c, 13, 61, 54
20, 30910, Note_on_c, 13, 61, 0
20, 30912, Note_on_c, 13, 56, 40
20, 30958, Note_on_c, 13, 56, 0
20, 30960, Note_on_c, 13, 61, 43
20, 31006, Note_on_c, 13, 61, 0
20, 31008, Note_on_c, 13, 56, 41
20, 31054, Note_on_c, 13, 56, 0
20, 31056, Note_on_c, 13, 61, 43
20, 31102, Note_on_c, 13, 61, 0
20, 31104, Note_on_c, 13, 56, 41
20, 31150, Note_on_c, 13, 56, 0
20, 31152, Note_on_c, 13, 61, 43
20, 31198, Note_on_c, 13, 61, 0
20, 31200, Note_on_c, 13, 56, 50
20, 31246, Note_on_c, 13, 56, 0
20, 31248, Note_on_c, 13, 61, 44
20, 31294, Note_on_c, 13, 61, 0
20, 31296, Note_on_c, 13, 56, 48
20, 31342, Note_on_c, 13, 56, 0
20, 31344, Note_on_c, 13, 61, 43
20, 31390, Note_on_c, 13, 61, 0
20, 31392, Note_on_c, 13, 56, 42
20, 31438, Note_on_c, 13, 56, 0
20, 31440, Note_on_c, 13, 61, 45
20, 31486, Note_on_c, 13, 61, 0
20, 31488, Note_on_c, 13, 56, 45
20, 31534, Note_on_c, 13, 56, 0
20, 31536, Note_on_c, 13, 61, 41
20, 31582, Note_on_c, 13, 61, 0
20, 31584, Note_on_c, 13, 56, 48
20, 31630, Note_on_c, 13, 56, 0
20, 31632, Note_on_c, 13, 61, 41
20, 31678, Note_on_c, 13, 61, 0
20, 31680, Note_on_c, 13, 56, 44
20, 31726, Note_on_c, 13, 56, 0
20, 31728, Note_on_c, 13, 61, 43
20, 31774, Note_on_c, 13, 61, 0
20, 31776, Note_on_c, 13, 56, 44
20, 31822, Note_on_c, 13, 56, 0
20, 31824, Note_on_c, 13, 61, 40
20, 31870, Note_on_c, 13, 61, 0
20, 31872, Note_on_c, 13, 56, 41
20, 31918, Note_on_c, 13, 56, 0
20, 31920, Note_on_c, 13, 61, 40
20, 31966, Note_on_c, 13, 61, 0
20, 31968, Note_on_c, 13, 56, 46
20, 32014, Note_on_c, 13, 56, 0
20, 32016, Note_on_c, 13, 61, 47
20, 32062, Note_on_c, 13, 61, 0
20, 32064, Note_on_c, 13, 56, 47
20, 32110, Note_on_c, 13, 56, 0
20, 32112, Note_on_c, 13, 61, 43
20, 32158, Note_on_c, 13, 61, 0
20, 32160, Note_on_c, 13, 56, 41
20, 32206, Note_on_c, 13, 56, 0
20, 32208, Note_on_c, 13, 61, 44
20, 32254, Note_on_c, 13, 61, 0
20, 32256, Note_on_c, 13, 56, 42
20, 32302, Note_on_c, 13, 56, 0
20, 32304, Note_on_c, 13, 61, 47
20, 32350, Note_on_c, 13, 61, 0
20, 32352, Note_on_c, 13, 56, 47
20, 32398, Note_on_c, 13, 56, 0
20, 32400, Note_on_c, 13, 61, 47
20, 32446, Note_on_c, 13, 61, 0
20, 32448, Note_on_c, 13, 56, 46
20, 32494, Note_on_c, 13, 56, 0
20, 32496, Note_on_c, 13, 61, 39
20, 32542, Note_on_c, 13, 61, 0
20, 32544, Note_on_c, 13, 56, 39
20, 32590, Note_on_c, 13, 56, 0
20, 32592, Note_on_c, 13, 61, 33
20, 32638, Note_on_c, 13, 61, 0
20, 32640, Note_on_c, 13, 56, 35
20, 32686, Note_on_c, 13, 56, 0
20, 32688, Note_on_c, 13, 61, 29
20, 32734, Note_on_c, 13, 61, 0
20, 32736, Note_on_c, 13, 56, 32
20, 32782, Note_on_c, 13, 56, 0
20, 32784, Note_on_c, 13, 61, 28
20, 32830, Note_on_c, 13, 61, 0
20, 32832, Note_on_c, 13, 56, 28
20, 32878, Note_on_c, 13, 56, 0
20, 32880, Note_on_c, 13, 61, 35
20, 32926, Note_on_c, 13, 61, 0
20, 32928, Note_on_c, 13, 56, 31
20, 32974, Note_on_c, 13, 56, 0
20, 32976, Note_on_c, 13, 61, 26
20, 33022, Note_on_c, 13, 61, 0
20, 33024, Note_on_c, 13, 56, 33
20, 33070, Note_on_c, 13, 56, 0
20, 33072, Note_on_c, 13, 61, 30
20, 33118, Note_on_c, 13, 61, 0
20, 33120, Note_on_c, 13, 56, 31
20, 33166, Note_on_c, 13, 56, 0
20, 33168, Note_on_c, 13, 61, 32
20, 33214, Note_on_c, 13, 61, 0
20, 33216, Note_on_c, 13, 56, 35
20, 33262, Note_on_c, 13, 56, 0
20, 33264, Note_on_c, 13, 61, 34
20, 33310, Note_on_c, 13, 61, 0
20, 33312, Note_on_c, 13, 56, 31
20, 33358, Note_on_c, 13, 56, 0
20, 33360, Note_on_c, 13, 61, 33
20, 33406, Note_on_c, 13, 61, 0
20, 33408, Note_on_c, 13, 56, 29
20, 33454, Note_on_c, 13, 56, 0
20, 33456, Note_on_c, 13, 61, 26
20, 33502, Note_on_c, 13, 61, 0
20, 33504, Note_on_c, 13, 56, 30
20, 33550, Note_on_c, 13, 56, 0
20, 33552, Note_on_c, 13, 61, 25
20, 33598, Note_on_c, 13, 61, 0
20, 33600, Note_on_c, 13, 56, 35
20, 33646, Note_on_c, 13, 56, 0
20, 33648, Note_on_c, 13, 61, 26
20, 33694, Note_on_c, 13, 61, 0
20, 33696, Note_on_c, 13, 56, 28
20, 33742, Note_on_c, 13, 56, 0
20, 33744, Note_on_c, 13, 61, 28
20, 33790, Note_on_c, 13, 61, 0
20, 33792, Note_on_c, 13, 56, 34
20, 33838, Note_on_c, 13, 56, 0
20, 33840, Note_on_c, 13, 61, 31
20, 33886, Note_on_c, 13, 61, 0
20, 33888, Note_on_c, 13, 56, 30
20, 33934, Note_on_c, 13, 56, 0
20, 33936, Note_on_c, 13, 61, 35
20, 33982, Note_on_c, 13, 61, 0
20, 33984, Note_on_c, 13, 56, 28
20, 34030, Note_on_c, 13, 56, 0
20, 34032, Note_on_c, 13, 61, 26
20, 34078, Note_on_c, 13, 61, 0
20, 34080, Note_on_c, 13, 56, 28
20, 34126, Note_on_c, 13, 56, 0
20, 34128, Note_on_c, 13, 61, 31
20, 34174, Note_on_c, 13, 61, 0
20, 34176, Note_on_c, 13, 56, 30
20, 34222, Note_on_c, 13, 56, 0
20, 34224, Note_on_c, 13, 61, 31
20, 34270, Note_on_c, 13, 61, 0
20, 34272, Note_on_c, 13, 56, 30
20, 34318, Note_on_c, 13, 56, 0
20, 34320, Note_on_c, 13, 61, 30
20, 34366, Note_on_c, 13, 61, 0
20, 34368, Note_on_c, 13, 56, 33
20, 34414, Note_on_c, 13, 56, 0
20, 34416, Note_on_c, 13, 61, 30
20, 34462, Note_on_c, 13, 61, 0
20, 34464, Note_on_c, 13, 56, 31
20, 34510, Note_on_c, 13, 56, 0
20, 34512, Note_on_c, 13, 61, 27
20, 34558, Note_on_c, 13, 61, 0
20, 34560, Note_on_c, 13, 56, 27
20, 34606, Note_on_c, 13, 56, 0
20, 34608, Note_on_c, 13, 61, 28
20, 34654, Note_on_c, 13, 61, 0
20, 34656, Note_on_c, 13, 56, 28
20, 34702, Note_on_c, 13, 56, 0
20, 34704, Note_on_c, 13, 61, 25
20, 34750, Note_on_c, 13, 61, 0
20, 34752, Note_on_c, 13, 56, 35
20, 34798, Note_on_c, 13, 56, 0
20, 34800, Note_on_c, 13, 61, 26
20, 34846, Note_on_c, 13, 61, 0
20, 34848, Note_on_c, 13, 56, 27
20, 34894, Note_on_c, 13, 56, 0
20, 34896, Note_on_c, 13, 61, 26
20, 34942, Note_on_c, 13, 61, 0
20, 34944, Note_on_c, 13, 56, 26
20, 34990, Note_on_c, 13, 56, 0
20, 34992, Note_on_c, 13, 61, 35
20, 35038, Note_on_c, 13, 61, 0
20, 35040, Note_on_c, 13, 56, 35
20, 35086, Note_on_c, 13, 56, 0
20, 35088, Note_on_c, 13, 61, 32
20, 35134, Note_on_c, 13, 61, 0
20, 35136, Note_on_c, 13, 56, 25
20, 35182, Note_on_c, 13, 56, 0
20, 35184, Note_on_c, 13, 61, 27
20, 35230, Note_on_c, 13, 61, 0
20, 35232, Note_on_c, 13, 56, 34
20, 35278, Note_on_c, 13, 56, 0
20, 35280, Note_on_c, 13, 61, 35
20, 35326, Note_on_c, 13, 61, 0
20, 35328, Note_on_c, 13, 56, 31
20, 35374, Note_on_c, 13, 56, 0
20, 35376, Note_on_c, 13, 61, 32
20, 35422, Note_on_c, 13, 61, 0
20, 35424, Note_on_c, 13, 56, 25
20, 35470, Note_on_c, 13, 56, 0
20, 35472, Note_on_c, 13, 61, 25
20, 35518, Note_on_c, 13, 61, 0
20, 35520, Note_on_c, 13, 56, 30
20, 35566, Note_on_c, 13, 56, 0
20, 35568, Note_on_c, 13, 61, 30
20, 35614, Note_on_c, 13, 61, 0
20, 35616, Note_on_c, 13, 56, 32
20, 35662, Note_on_c, 13, 56, 0
20, 35664, Note_on_c, 13, 61, 31
20, 35710, Note_on_c, 13, 61, 0
20, 35712, Note_on_c, 13, 56, 26
20, 35758, Note_on_c, 13, 56, 0
20, 35760, Note_on_c, 13, 61, 35
20, 35806, Note_on_c, 13, 61, 0
20, 35808, Note_on_c, 13, 56, 26
20, 35854, Note_on_c, 13, 56, 0
20, 35856, Note_on_c, 13, 61, 29
20, 35902, Note_on_c, 13, 61, 0
20, 35904, Note_on_c, 13, 56, 34
20, 35950, Note_on_c, 13, 56, 0
20, 35952, Note_on_c, 13, 61, 27
20, 35998, Note_on_c, 13, 61, 0
20, 36000, Note_on_c, 13, 56, 28
20, 36046, Note_on_c, 13, 56, 0
20, 36048, Note_on_c, 13, 61, 32
20, 36094, Note_on_c, 13, 61, 0
20, 36096, Note_on_c, 13, 56, 29
20, 36142, Note_on_c, 13, 56, 0
20, 36144, Note_on_c, 13, 61, 31
20, 36190, Note_on_c, 13, 61, 0
20, 36192, Note_on_c, 13, 56, 31
20, 36238, Note_on_c, 13, 56, 0
20, 36240, Note_on_c, 13, 61, 36
20, 36286, Note_on_c, 13, 61, 0
20, 36288, Note_on_c, 13, 56, 45
20, 36334, Note_on_c, 13, 56, 0
20, 36336, Note_on_c, 13, 61, 46
20, 36382, Note_on_c, 13, 61, 0
20, 36384, Note_on_c, 13, 56, 47
20, 36430, Note_on_c, 13, 56, 0
20, 36432, Note_on_c, 13, 61, 55
20, 36478, Note_on_c, 13, 61, 0
20, 36480, Note_on_c, 13, 56, 54
20, 36526, Note_on_c, 13, 56, 0
20, 36528, Note_on_c, 13, 61, 59
20, 36574, Note_on_c, 13, 61, 0
20, 36576, Note_on_c, 13, 56, 67
20, 36622, Note_on_c, 13, 56, 0
20, 36624, Note_on_c, 13, 61, 65
20, 36670, Note_on_c, 13, 61, 0
20, 36672, Note_on_c, 13, 56, 76
20, 36718, Note_on_c, 13, 56, 0
20, 36720, Note_on_c, 13, 61, 76
20, 36766, Note_on_c, 13, 61, 0
20, 36768, Note_on_c, 13, 56, 73
20, 36814, Note_on_c, 13, 56, 0
20, 36816, Note_on_c, 13, 61, 67
20, 36862, Note_on_c, 13, 61, 0
20, 36864, Note_on_c, 13, 56, 64
20, 36910, Note_on_c, 13, 56, 0
20, 36912, Note_on_c, 13, 61, 62
20, 36958, Note_on_c, 13, 61, 0
20, 36960, Note_on_c, 13, 56, 60
20, 37006, Note_on_c, 13, 56, 0
20, 37008, Note_on_c, 13, 61, 56
20, 37054, Note_on_c, 13, 61, 0
20, 37056, Note_on_c, 13, 56, 45
20, 37102, Note_on_c, 13, 56, 0
20, 37104, Note_on_c, 13, 61, 48
20, 37150, Note_on_c, 13, 61, 0
20, 37152, Note_on_c, 13, 56, 39
20, 37198, Note_on_c, 13, 56, 0
20, 37200, Note_on_c, 13, 61, 37
20, 37246, Note_on_c, 13, 61, 0
20, 37248, Note_on_c, 13, 62, 28
20, 37278, Note_on_c, 13, 62, 0
20, 37280, Note_on_c, 13, 56, 29
20, 37310, Note_on_c, 13, 56, 0
20, 37312, Note_on_c, 13, 62, 34
20, 37374, Note_on_c, 13, 62, 0
20, 37376, Note_on_c, 13, 56, 33
20, 37406, Note_on_c, 13, 56, 0
20, 37408, Note_on_c, 13, 62, 27
20, 37438, Note_on_c, 13, 62, 0
20, 37440, Note_on_c, 13, 59, 33
20, 37470, Note_on_c, 13, 59, 0
20, 37472, Note_on_c, 13, 54, 27
20, 37502, Note_on_c, 13, 54, 0
20, 37504, Note_on_c, 13, 59, 25
20, 37566, Note_on_c, 13, 59, 0
20, 37568, Note_on_c, 13, 54, 27
20, 37598, Note_on_c, 13, 54, 0
20, 37600, Note_on_c, 13, 58, 30
20, 37630, Note_on_c, 13, 58, 0
20, 37632, Note_on_c, 13, 63, 35
20, 37662, Note_on_c, 13, 63, 0
20, 37664, Note_on_c, 13, 57, 34
20, 37694, Note_on_c, 13, 57, 0
20, 37696, Note_on_c, 13, 63, 44
20, 37726, Note_on_c, 13, 63, 0
20, 37728, Note_on_c, 13, 65, 45
20, 37758, Note_on_c, 13, 65, 0
20, 37760, Note_on_c, 13, 59, 50
20, 37790, Note_on_c, 13, 59, 0
20, 37792, Note_on_c, 13, 65, 60
20, 37822, Note_on_c, 13, 65, 0
20, 37824, Note_on_c, 13, 65, 27
20, 37854, Note_on_c, 13, 65, 0
20, 37856, Note_on_c, 13, 62, 33
20, 37886, Note_on_c, 13, 62, 0
20, 37888, Note_on_c, 13, 65, 30
20, 37950, Note_on_c, 13, 65, 0
20, 37952, Note_on_c, 13, 62, 27
20, 37982, Note_on_c, 13, 62, 0
20, 37984, Note_on_c, 13, 65, 30
20, 38014, Note_on_c, 13, 65, 0
20, 38016, Note_on_c, 13, 62, 26
20, 38046, Note_on_c, 13, 62, 0
20, 38048, Note_on_c, 13, 67, 47
20, 38078, Note_on_c, 13, 67, 0
20, 38080, Note_on_c, 13, 62, 63
20, 38110, Note_on_c, 13, 62, 0
20, 38112, Note_on_c, 13, 65, 26
20, 38142, Note_on_c, 13, 65, 0
20, 38144, Note_on_c, 13, 62, 31
20, 38174, Note_on_c, 13, 62, 0
20, 38176, Note_on_c, 13, 65, 28
20, 38238, Note_on_c, 13, 65, 0
20, 38240, Note_on_c, 13, 62, 25
20, 38270, Note_on_c, 13, 62, 0
20, 38272, Note_on_c, 13, 65, 35
20, 38302, Note_on_c, 13, 65, 0
20, 38304, Note_on_c, 13, 62, 34
20, 38334, Note_on_c, 13, 62, 0
20, 38336, Note_on_c, 13, 67, 36
20, 38366, Note_on_c, 13, 67, 0
20, 38368, Note_on_c, 13, 62, 37
20, 38398, Note_on_c, 13, 62, 0
20, 38400, Note_on_c, 13, 62, 40
20, 38430, Note_on_c, 13, 62, 0
20, 38432, Note_on_c, 13, 56, 42
20, 38462, Note_on_c, 13, 56, 0
20, 38464, Note_on_c, 13, 62, 46
20, 38526, Note_on_c, 13, 62, 0
20, 38528, Note_on_c, 13, 56, 43
20, 38558, Note_on_c, 13, 56, 0
20, 38560, Note_on_c, 13, 62, 49
20, 38590, Note_on_c, 13, 62, 0
20, 38592, Note_on_c, 13, 59, 44
20, 38622, Note_on_c, 13, 59, 0
20, 38624, Note_on_c, 13, 54, 50
20, 38654, Note_on_c, 13, 54, 0
20, 38656, Note_on_c, 13, 59, 45
20, 38718, Note_on_c, 13, 59, 0
20, 38720, Note_on_c, 13, 54, 50
20, 38750, Note_on_c, 13, 54, 0
20, 38752, Note_on_c, 13, 59, 43
20, 38782, Note_on_c, 13, 59, 0
20, 38784, Note_on_c, 13, 62, 48
20, 38814, Note_on_c, 13, 62, 0
20, 38816, Note_on_c, 13, 59, 52
20, 38846, Note_on_c, 13, 59, 0
20, 38848, Note_on_c, 13, 62, 57
20, 38878, Note_on_c, 13, 62, 0
20, 38880, Note_on_c, 13, 64, 59
20, 38910, Note_on_c, 13, 64, 0
20, 38912, Note_on_c, 13, 58, 63
20, 38942, Note_on_c, 13, 58, 0
20, 38944, Note_on_c, 13, 64, 65
20, 38974, Note_on_c, 13, 64, 0
20, 38976, Note_on_c, 13, 57, 40
20, 39006, Note_on_c, 13, 57, 0
20, 39008, Note_on_c, 13, 59, 44
20, 39038, Note_on_c, 13, 59, 0
20, 39040, Note_on_c, 13, 57, 46
20, 39070, Note_on_c, 13, 57, 0
20, 39072, Note_on_c, 13, 59, 51
20, 39102, Note_on_c, 13, 59, 0
20, 39104, Note_on_c, 13, 61, 46
20, 39134, Note_on_c, 13, 61, 0
20, 39136, Note_on_c, 13, 59, 57
20, 39166, Note_on_c, 13, 59, 0
20, 39168, Note_on_c, 13, 61, 50
20, 39198, Note_on_c, 13, 61, 0
20, 39200, Note_on_c, 13, 63, 57
20, 39230, Note_on_c, 13, 63, 0
20, 39232, Note_on_c, 13, 66, 65
20, 39262, Note_on_c, 13, 66, 0
20, 39264, Note_on_c, 13, 57, 40
20, 39294, Note_on_c, 13, 57, 0
20, 39296, Note_on_c, 13, 59, 50
20, 39326, Note_on_c, 13, 59, 0
20, 39328, Note_on_c, 13, 57, 48
20, 39358, Note_on_c, 13, 57, 0
20, 39360, Note_on_c, 13, 59, 54
20, 39390, Note_on_c, 13, 59, 0
20, 39392, Note_on_c, 13, 61, 51
20, 39422, Note_on_c, 13, 61, 0
20, 39424, Note_on_c, 13, 59, 58
20, 39454, Note_on_c, 13, 59, 0
20, 39456, Note_on_c, 13, 61, 51
20, 39486, Note_on_c, 13, 61, 0
20, 39488, Note_on_c, 13, 63, 57
20, 39518, Note_on_c, 13, 63, 0
20, 39520, Note_on_c, 13, 66, 57
20, 39550, Note_on_c, 13, 66, 0
20, 39552, Note_on_c, 13, 63, 26
20, 39552, Note_on_c, 13, 64, 29
20, 39584, Note_on_c, 13, 63, 0
20, 39584, Note_on_c, 13, 64, 0
20, 39648, Note_on_c, 13, 63, 27
20, 39648, Note_on_c, 13, 64, 32
20, 39680, Note_on_c, 13, 63, 0
20, 39680, Note_on_c, 13, 64, 0
20, 39744, Note_on_c, 13, 63, 35
20, 39744, Note_on_c, 13, 64, 25
20, 39776, Note_on_c, 13, 63, 0
20, 39776, Note_on_c, 13, 64, 0
20, 39840, Note_on_c, 13, 61, 25
20, 39840, Note_on_c, 13, 64, 26
20, 39872, Note_on_c, 13, 61, 0
20, 39872, Note_on_c, 13, 64, 0
20, 39936, Note_on_c, 13, 61, 25
20, 39936, Note_on_c, 13, 64, 28
20, 39968, Note_on_c, 13, 61, 0
20, 39968, Note_on_c, 13, 64, 0
20, 40032, Note_on_c, 13, 61, 34
20, 40032, Note_on_c, 13, 64, 25
20, 40064, Note_on_c, 13, 61, 0
20, 40064, Note_on_c, 13, 64, 0
20, 40128, Note_on_c, 13, 63, 33
20, 40128, Note_on_c, 13, 64, 34
20, 40160, Note_on_c, 13, 63, 0
20, 40160, Note_on_c, 13, 64, 0
20, 40224, Note_on_c, 13, 63, 35
20, 40224, Note_on_c, 13, 64, 32
20, 40256, Note_on_c, 13, 63, 0
20, 40256, Note_on_c, 13, 64, 0
20, 40320, Note_on_c, 13, 63, 32
20, 40320, Note_on_c, 13, 64, 27
20, 40352, Note_on_c, 13, 63, 0
20, 40352, Note_on_c, 13, 64, 0
20, 40416, Note_on_c, 13, 61, 35
20, 40416, Note_on_c, 13, 64, 30
20, 40448, Note_on_c, 13, 61, 0
20, 40448, Note_on_c, 13, 64, 0
20, 40512, Note_on_c, 13, 61, 33
20, 40512, Note_on_c, 13, 64, 34
20, 40544, Note_on_c, 13, 61, 0
20, 40544, Note_on_c, 13, 64, 0
20, 40608, Note_on_c, 13, 61, 34
20, 40608, Note_on_c, 13, 64, 31
20, 40640, Note_on_c, 13, 61, 0
20, 40640, Note_on_c, 13, 64, 0
20, 40704, Note_on_c, 13, 63, 29
20, 40704, Note_on_c, 13, 64, 27
20, 40736, Note_on_c, 13, 63, 0
20, 40736, Note_on_c, 13, 64, 0
20, 40800, Note_on_c, 13, 63, 25
20, 40800, Note_on_c, 13, 64, 35
20, 40832, Note_on_c, 13, 63, 0
20, 40832, Note_on_c, 13, 64, 0
20, 40896, Note_on_c, 13, 63, 32
20, 40896, Note_on_c, 13, 64, 25
20, 40928, Note_on_c, 13, 63, 0
20, 40928, Note_on_c, 13, 64, 0
20, 40992, Note_on_c, 13, 62, 29
20, 40992, Note_on_c, 13, 64, 29
20, 41024, Note_on_c, 13, 62, 0
20, 41024, Note_on_c, 13, 64, 0
20, 41088, Note_on_c, 13, 62, 28
20, 41088, Note_on_c, 13, 64, 26
20, 41120, Note_on_c, 13, 62, 0
20, 41120, Note_on_c, 13, 64, 0
20, 41184, Note_on_c, 13, 62, 29
20, 41184, Note_on_c, 13, 65, 34
20, 41216, Note_on_c, 13, 62, 0
20, 41216, Note_on_c, 13, 65, 0
20, 41280, Note_on_c, 13, 65, 25
20, 41280, Note_on_c, 13, 69, 27
20, 41312, Note_on_c, 13, 65, 0
20, 41312, Note_on_c, 13, 69, 0
20, 41376, Note_on_c, 13, 65, 33
20, 41376, Note_on_c, 13, 69, 33
20, 41408, Note_on_c, 13, 65, 0
20, 41408, Note_on_c, 13, 69, 0
20, 41472, Note_on_c, 13, 65, 29
20, 41472, Note_on_c, 13, 68, 35
20, 41504, Note_on_c, 13, 65, 0
20, 41504, Note_on_c, 13, 68, 0
20, 41568, Note_on_c, 13, 65, 38
20, 41568, Note_on_c, 13, 67, 36
20, 41600, Note_on_c, 13, 65, 0
20, 41600, Note_on_c, 13, 67, 0
20, 41664, Note_on_c, 13, 65, 38
20, 41664, Note_on_c, 13, 67, 37
20, 41696, Note_on_c, 13, 65, 0
20, 41696, Note_on_c, 13, 67, 0
20, 41760, Note_on_c, 13, 66, 38
20, 41792, Note_on_c, 13, 66, 0
20, 41856, Note_on_c, 13, 65, 46
20, 41950, Note_on_c, 13, 65, 0
20, 42432, Control_c, 13, 11, 127
20, 43008, Program_c, 13, 44
20, 43296, Note_on_c, 13, 71, 29
20, 43342, Note_on_c, 13, 71, 0
20, 43344, Note_on_c, 13, 68, 31
20, 43390, Note_on_c, 13, 68, 0
20, 43392, Note_on_c, 13, 63, 25
20, 43438, Note_on_c, 13, 63, 0
20, 43440, Note_on_c, 13, 61, 25
20, 43486, Note_on_c, 13, 61, 0
20, 43488, Note_on_c, 13, 59, 26
20, 43534, Note_on_c, 13, 59, 0
20, 43536, Note_on_c, 13, 61, 35
20, 43582, Note_on_c, 13, 61, 0
20, 43872, Note_on_c, 13, 71, 29
20, 43918, Note_on_c, 13, 71, 0
20, 43920, Note_on_c, 13, 68, 26
20, 43966, Note_on_c, 13, 68, 0
20, 43968, Note_on_c, 13, 63, 29
20, 44014, Note_on_c, 13, 63, 0
20, 44016, Note_on_c, 13, 61, 34
20, 44062, Note_on_c, 13, 61, 0
20, 44064, Note_on_c, 13, 59, 29
20, 44110, Note_on_c, 13, 59, 0
20, 44112, Note_on_c, 13, 61, 30
20, 44158, Note_on_c, 13, 61, 0
20, 44448, Note_on_c, 13, 71, 32
20, 44494, Note_on_c, 13, 71, 0
20, 44496, Note_on_c, 13, 68, 27
20, 44542, Note_on_c, 13, 68, 0
20, 44544, Note_on_c, 13, 63, 31
20, 44590, Note_on_c, 13, 63, 0
20, 44592, Note_on_c, 13, 61, 30
20, 44638, Note_on_c, 13, 61, 0
20, 44640, Note_on_c, 13, 59, 26
20, 44686, Note_on_c, 13, 59, 0
20, 44688, Note_on_c, 13, 61, 26
20, 44734, Note_on_c, 13, 61, 0
20, 45024, Note_on_c, 13, 71, 27
20, 45070, Note_on_c, 13, 71, 0
20, 45072, Note_on_c, 13, 68, 26
20, 45118, Note_on_c, 13, 68, 0
20, 45120, Note_on_c, 13, 63, 34
20, 45166, Note_on_c, 13, 63, 0
20, 45168, Note_on_c, 13, 61, 33
20, 45214, Note_on_c, 13, 61, 0
20, 45216, Note_on_c, 13, 59, 35
20, 45262, Note_on_c, 13, 59, 0
20, 45264, Note_on_c, 13, 61, 31
20, 45310, Note_on_c, 13, 61, 0
20, 45312, Note_on_c, 13, 68, 30
20, 45406, Note_on_c, 13, 68, 0
20, 45408, Note_on_c, 13, 59, 28
20, 45568, Note_on_c, 13, 59, 0
20, 45600, Note_on_c, 13, 68, 26
20, 45694, Note_on_c, 13, 68, 0
20, 45696, Note_on_c, 13, 58, 29
20, 45856, Note_on_c, 13, 58, 0
20, 45888, Control_c, 13, 11, 127
20, 45888, Note_on_c, 13, 67, 27
20, 45897, Control_c, 13, 11, 126
20, 45906, Control_c, 13, 11, 125
20, 45915, Control_c, 13, 11, 124
20, 45924, Control_c, 13, 11, 123
20, 45933, Control_c, 13, 11, 122
20, 45942, Control_c, 13, 11, 121
20, 45952, Control_c, 13, 11, 120
20, 45961, Control_c, 13, 11, 119
20, 45970, Control_c, 13, 11, 118
20, 45979, Control_c, 13, 11, 117
20, 45982, Note_on_c, 13, 67, 0
20, 45984, Note_on_c, 13, 59, 35
20, 45988, Control_c, 13, 11, 116
20, 45997, Control_c, 13, 11, 115
20, 46006, Control_c, 13, 11, 114
20, 46016, Control_c, 13, 11, 113
20, 46025, Control_c, 13, 11, 112
20, 46034, Control_c, 13, 11, 111
20, 46043, Control_c, 13, 11, 110
20, 46052, Control_c, 13, 11, 109
20, 46061, Control_c, 13, 11, 108
20, 46070, Control_c, 13, 11, 107
20, 46080, Control_c, 13, 11, 106
20, 46089, Control_c, 13, 11, 105
20, 46098, Control_c, 13, 11, 104
20, 46107, Control_c, 13, 11, 103
20, 46116, Control_c, 13, 11, 102
20, 46125, Control_c, 13, 11, 101
20, 46134, Control_c, 13, 11, 100
20, 46144, Note_on_c, 13, 59, 0
20, 46144, Control_c, 13, 11, 99
20, 46153, Control_c, 13, 11, 98
20, 46162, Control_c, 13, 11, 97
20, 46171, Control_c, 13, 11, 96
20, 46176, Note_on_c, 13, 67, 34
20, 46180, Control_c, 13, 11, 95
20, 46189, Control_c, 13, 11, 94
20, 46198, Control_c, 13, 11, 93
20, 46208, Control_c, 13, 11, 92
20, 46217, Control_c, 13, 11, 91
20, 46226, Control_c, 13, 11, 90
20, 46235, Control_c, 13, 11, 89
20, 46244, Control_c, 13, 11, 88
20, 46253, Control_c, 13, 11, 87
20, 46262, Control_c, 13, 11, 86
20, 46270, Note_on_c, 13, 67, 0
20, 46272, Control_c, 13, 11, 85
20, 46272, Note_on_c, 13, 59, 28
20, 46281, Control_c, 13, 11, 84
20, 46290, Control_c, 13, 11, 83
20, 46299, Control_c, 13, 11, 82
20, 46308, Control_c, 13, 11, 81
20, 46317, Control_c, 13, 11, 80
20, 46326, Control_c, 13, 11, 79
20, 46336, Control_c, 13, 11, 78
20, 46345, Control_c, 13, 11, 77
20, 46354, Control_c, 13, 11, 76
20, 46363, Control_c, 13, 11, 75
20, 46372, Control_c, 13, 11, 74
20, 46381, Control_c, 13, 11, 73
20, 46390, Control_c, 13, 11, 72
20, 46400, Control_c, 13, 11, 71
20, 46409, Control_c, 13, 11, 70
20, 46418, Control_c, 13, 11, 69
20, 46427, Control_c, 13, 11, 68
20, 46432, Note_on_c, 13, 59, 0
20, 46436, Control_c, 13, 11, 67
20, 46445, Control_c, 13, 11, 66
20, 46454, Control_c, 13, 11, 65
20, 46464, Control_c, 13, 11, 64
20, 46464, Control_c, 13, 11, 127
20, 47040, Program_c, 13, 45
20, 47040, Note_on_c, 13, 53, 35
20, 47200, Note_on_c, 13, 53, 0
20, 48192, Program_c, 13, 48
20, 48768, Control_c, 13, 11, 92
20, 48768, Note_on_c, 13, 63, 57
20, 48773, Control_c, 13, 11, 93
20, 48778, Control_c, 13, 11, 94
20, 48784, Control_c, 13, 11, 95
20, 48789, Control_c, 13, 11, 96
20, 48795, Control_c, 13, 11, 97
20, 48800, Control_c, 13, 11, 98
20, 48806, Control_c, 13, 11, 99
20, 48811, Control_c, 13, 11, 100
20, 48817, Control_c, 13, 11, 101
20, 48822, Control_c, 13, 11, 102
20, 48828, Control_c, 13, 11, 103
20, 48833, Control_c, 13, 11, 104
20, 48839, Control_c, 13, 11, 105
20, 48844, Control_c, 13, 11, 106
20, 48850, Control_c, 13, 11, 107
20, 48855, Control_c, 13, 11, 108
20, 48861, Control_c, 13, 11, 109
20, 48866, Control_c, 13, 11, 110
20, 48872, Control_c, 13, 11, 111
20, 48877, Control_c, 13, 11, 112
20, 48883, Control_c, 13, 11, 113
20, 48888, Control_c, 13, 11, 114
20, 48894, Control_c, 13, 11, 115
20, 48899, Control_c, 13, 11, 116
20, 48905, Control_c, 13, 11, 117
20, 48910, Note_on_c, 13, 63, 0
20, 48910, Control_c, 13, 11, 118
20, 48912, Note_on_c, 13, 62, 64
20, 48916, Control_c, 13, 11, 119
20, 48921, Control_c, 13, 11, 120
20, 48927, Control_c, 13, 11, 121
20, 48932, Control_c, 13, 11, 122
20, 48938, Control_c, 13, 11, 123
20, 48943, Control_c, 13, 11, 124
20, 48949, Control_c, 13, 11, 125
20, 48954, Control_c, 13, 11, 126
20, 48958, Note_on_c, 13, 62, 0
20, 48960, Control_c, 13, 11, 127
20, 48960, Note_on_c, 13, 61, 56
20, 48962, Control_c, 13, 11, 126
20, 48965, Control_c, 13, 11, 125
20, 48968, Control_c, 13, 11, 124
20, 48970, Control_c, 13, 11, 123
20, 48973, Control_c, 13, 11, 122
20, 48976, Control_c, 13, 11, 121
20, 48979, Control_c, 13, 11, 120
20, 48981, Control_c, 13, 11, 119
20, 48984, Control_c, 13, 11, 118
20, 48987, Control_c, 13, 11, 117
20, 48990, Control_c, 13, 11, 116
20, 48992, Control_c, 13, 11, 115
20, 48995, Control_c, 13, 11, 114
20, 48998, Control_c, 13, 11, 113
20, 49001, Control_c, 13, 11, 112
20, 49003, Control_c, 13, 11, 111
20, 49006, Note_on_c, 13, 61, 0
20, 49006, Control_c, 13, 11, 110
20, 49008, Note_on_c, 13, 62, 60
20, 49009, Control_c, 13, 11, 109
20, 49012, Control_c, 13, 11, 108
20, 49014, Control_c, 13, 11, 107
20, 49017, Control_c, 13, 11, 106
20, 49020, Control_c, 13, 11, 105
20, 49023, Control_c, 13, 11, 104
20, 49025, Control_c, 13, 11, 103
20, 49028, Control_c, 13, 11, 102
20, 49031, Control_c, 13, 11, 101
20, 49034, Control_c, 13, 11, 100
20, 49036, Control_c, 13, 11, 99
20, 49039, Control_c, 13, 11, 98
20, 49042, Control_c, 13, 11, 97
20, 49045, Control_c, 13, 11, 96
20, 49047, Control_c, 13, 11, 95
20, 49050, Control_c, 13, 11, 94
20, 49053, Control_c, 13, 11, 93
20, 49054, Note_on_c, 13, 62, 0
20, 49056, Control_c, 13, 11, 92
20, 49056, Note_on_c, 13, 63, 61
20, 49216, Note_on_c, 13, 63, 0
20, 49248, Program_c, 13, 45
20, 49248, Control_c, 13, 11, 127
20, 49248, Note_on_c, 13, 62, 56
20, 49342, Note_on_c, 13, 62, 0
20, 49344, Program_c, 13, 48
20, 49344, Note_on_c, 13, 65, 25
20, 49438, Note_on_c, 13, 65, 0
20, 49440, Note_on_c, 13, 65, 30
20, 49534, Note_on_c, 13, 65, 0
20, 49536, Note_on_c, 13, 65, 31
20, 49630, Note_on_c, 13, 65, 0
20, 49632, Note_on_c, 13, 66, 31
20, 49726, Note_on_c, 13, 66, 0
20, 49728, Note_on_c, 13, 66, 30
20, 49822, Note_on_c, 13, 66, 0
20, 49824, Note_on_c, 13, 66, 30
20, 49918, Note_on_c, 13, 66, 0
20, 49920, Note_on_c, 13, 65, 33
20, 50014, Note_on_c, 13, 65, 0
20, 50016, Note_on_c, 13, 64, 30
20, 50110, Note_on_c, 13, 64, 0
20, 50112, Note_on_c, 13, 65, 34
20, 50206, Note_on_c, 13, 65, 0
20, 50208, Note_on_c, 13, 66, 33
20, 50302, Note_on_c, 13, 66, 0
20, 50304, Note_on_c, 13, 65, 26
20, 50398, Note_on_c, 13, 65, 0
20, 50400, Note_on_c, 13, 64, 28
20, 50494, Note_on_c, 13, 64, 0
20, 50496, Note_on_c, 13, 65, 25
20, 50590, Note_on_c, 13, 65, 0
20, 50592, Note_on_c, 13, 65, 34
20, 50686, Note_on_c, 13, 65, 0
20, 50688, Note_on_c, 13, 65, 42
20, 50782, Note_on_c, 13, 65, 0
20, 50784, Note_on_c, 13, 63, 47
20, 50878, Note_on_c, 13, 63, 0
20, 50880, Note_on_c, 13, 61, 57
20, 50974, Note_on_c, 13, 61, 0
20, 50976, Note_on_c, 13, 59, 57
20, 51070, Note_on_c, 13, 59, 0
20, 51072, Note_on_c, 13, 56, 60
20, 51166, Note_on_c, 13, 56, 0
20, 51360, Control_c, 13, 11, 127
20, 51936, Note_on_c, 13, 61, 41
20, 51982, Note_on_c, 13, 61, 0
20, 51984, Note_on_c, 13, 58, 47
20, 52030, Note_on_c, 13, 58, 0
20, 52032, Note_on_c, 13, 61, 47
20, 52078, Note_on_c, 13, 61, 0
20, 52080, Note_on_c, 13, 58, 49
20, 52126, Note_on_c, 13, 58, 0
20, 52128, Note_on_c, 13, 61, 47
20, 52174, Note_on_c, 13, 61, 0
20, 52176, Note_on_c, 13, 58, 59
20, 52222, Note_on_c, 13, 58, 0
20, 52224, Note_on_c, 13, 61, 57
20, 52270, Note_on_c, 13, 61, 0
20, 52272, Note_on_c, 13, 58, 57
20, 52318, Note_on_c, 13, 58, 0
20, 52320, Note_on_c, 13, 61, 66
20, 52366, Note_on_c, 13, 61, 0
20, 52368, Note_on_c, 13, 58, 68
20, 52414, Note_on_c, 13, 58, 0
20, 52416, Note_on_c, 13, 61, 66
20, 52462, Note_on_c, 13, 61, 0
20, 52464, Note_on_c, 13, 58, 69
20, 52510, Note_on_c, 13, 58, 0
20, 52704, Program_c, 13, 48
20, 52704, Note_on_c, 13, 61, 28
20, 52726, Note_on_c, 13, 61, 0
20, 52728, Note_on_c, 13, 63, 28
20, 52750, Note_on_c, 13, 63, 0
20, 52752, Note_on_c, 13, 61, 23
20, 52774, Note_on_c, 13, 61, 0
20, 52776, Note_on_c, 13, 63, 26
20, 52798, Note_on_c, 13, 63, 0
20, 52992, Note_on_c, 13, 61, 30
20, 53014, Note_on_c, 13, 61, 0
20, 53016, Note_on_c, 13, 63, 34
20, 53038, Note_on_c, 13, 63, 0
20, 53040, Note_on_c, 13, 61, 24
20, 53062, Note_on_c, 13, 61, 0
20, 53064, Note_on_c, 13, 63, 25
20, 53086, Note_on_c, 13, 63, 0
20, 53280, Program_c, 13, 48
20, 53280, Note_on_c, 13, 61, 30
20, 53302, Note_on_c, 13, 61, 0
20, 53304, Note_on_c, 13, 63, 33
20, 53326, Note_on_c, 13, 63, 0
20, 53328, Note_on_c, 13, 61, 24
20, 53350, Note_on_c, 13, 61, 0
20, 53352, Note_on_c, 13, 63, 20
20, 53374, Note_on_c, 13, 63, 0
20, 53568, Note_on_c, 13, 61, 31
20, 53590, Note_on_c, 13, 61, 0
20, 53592, Note_on_c, 13, 63, 33
20, 53614, Note_on_c, 13, 63, 0
20, 53616, Note_on_c, 13, 61, 27
20, 53638, Note_on_c, 13, 61, 0
20, 53640, Note_on_c, 13, 63, 23
20, 53662, Note_on_c, 13, 63, 0
20, 53664, Note_on_c, 13, 59, 28
20, 53686, Note_on_c, 13, 59, 0
20, 53688, Note_on_c, 13, 56, 27
20, 53710, Note_on_c, 13, 56, 0
20, 53712, Note_on_c, 13, 59, 34
20, 53734, Note_on_c, 13, 59, 0
20, 53736, Note_on_c, 13, 56, 32
20, 53758, Note_on_c, 13, 56, 0
20, 53760, Note_on_c, 13, 59, 31
20, 53782, Note_on_c, 13, 59, 0
20, 53784, Note_on_c, 13, 56, 32
20, 53806, Note_on_c, 13, 56, 0
20, 53808, Note_on_c, 13, 59, 32
20, 53830, Note_on_c, 13, 59, 0
20, 53832, Note_on_c, 13, 56, 32
20, 53854, Note_on_c, 13, 56, 0
20, 53856, Note_on_c, 13, 59, 29
20, 53878, Note_on_c, 13, 59, 0
20, 53880, Note_on_c, 13, 56, 33
20, 53902, Note_on_c, 13, 56, 0
20, 53904, Note_on_c, 13, 59, 34
20, 53926, Note_on_c, 13, 59, 0
20, 53928, Note_on_c, 13, 56, 29
20, 53950, Note_on_c, 13, 56, 0
20, 53952, Note_on_c, 13, 53, 28
20, 53974, Note_on_c, 13, 53, 0
20, 53976, Note_on_c, 13, 56, 32
20, 53998, Note_on_c, 13, 56, 0
20, 54000, Note_on_c, 13, 53, 39
20, 54022, Note_on_c, 13, 53, 0
20, 54024, Note_on_c, 13, 56, 32
20, 54046, Note_on_c, 13, 56, 0
20, 54048, Note_on_c, 13, 53, 32
20, 54070, Note_on_c, 13, 53, 0
20, 54072, Note_on_c, 13, 56, 35
20, 54094, Note_on_c, 13, 56, 0
20, 54096, Note_on_c, 13, 53, 41
20, 54118, Note_on_c, 13, 53, 0
20, 54120, Note_on_c, 13, 56, 42
20, 54142, Note_on_c, 13, 56, 0
20, 54144, Note_on_c, 13, 53, 40
20, 54166, Note_on_c, 13, 53, 0
20, 54168, Note_on_c, 13, 56, 45
20, 54190, Note_on_c, 13, 56, 0
20, 54192, Note_on_c, 13, 53, 41
20, 54214, Note_on_c, 13, 53, 0
20, 54216, Note_on_c, 13, 56, 49
20, 54238, Note_on_c, 13, 56, 0
20, 54240, Program_c, 13, 44
20, 54240, Note_on_c, 13, 62, 48
20, 54286, Note_on_c, 13, 62, 0
20, 54288, Note_on_c, 13, 64, 45
20, 54334, Note_on_c, 13, 64, 0
20, 54336, Note_on_c, 13, 66, 56
20, 54430, Note_on_c, 13, 66, 0
20, 54432, Note_on_c, 13, 68, 60
20, 54478, Note_on_c, 13, 68, 0
20, 54480, Note_on_c, 13, 70, 74
20, 54526, Note_on_c, 13, 70, 0
20, 54528, Note_on_c, 13, 62, 75
20, 54574, Note_on_c, 13, 62, 0
20, 54576, Note_on_c, 13, 64, 73
20, 54622, Note_on_c, 13, 64, 0
20, 54624, Note_on_c, 13, 66, 71
20, 54718, Note_on_c, 13, 66, 0
20, 54720, Note_on_c, 13, 68, 77
20, 54766, Note_on_c, 13, 68, 0
20, 54768, Note_on_c, 13, 70, 75
20, 54814, Note_on_c, 13, 70, 0
20, 54816, Note_on_c, 13, 62, 41
20, 54862, Note_on_c, 13, 62, 0
20, 54864, Note_on_c, 13, 64, 44
20, 54910, Note_on_c, 13, 64, 0
20, 54912, Note_on_c, 13, 66, 47
20, 55006, Note_on_c, 13, 66, 0
20, 55008, Note_on_c, 13, 68, 61
20, 55054, Note_on_c, 13, 68, 0
20, 55056, Note_on_c, 13, 70, 74
20, 55102, Note_on_c, 13, 70, 0
20, 55104, Note_on_c, 13, 62, 78
20, 55150, Note_on_c, 13, 62, 0
20, 55152, Note_on_c, 13, 64, 78
20, 55198, Note_on_c, 13, 64, 0
20, 55200, Note_on_c, 13, 66, 76
20, 55294, Note_on_c, 13, 66, 0
20, 55296, Note_on_c, 13, 68, 71
20, 55342, Note_on_c, 13, 68, 0
20, 55344, Note_on_c, 13, 70, 70
20, 55390, Note_on_c, 13, 70, 0
20, 55392, Note_on_c, 13, 62, 49
20, 55438, Note_on_c, 13, 62, 0
20, 55440, Note_on_c, 13, 64, 50
20, 55486, Note_on_c, 13, 64, 0
20, 55488, Note_on_c, 13, 66, 56
20, 55582, Note_on_c, 13, 66, 0
20, 55584, Note_on_c, 13, 68, 59
20, 55630, Note_on_c, 13, 68, 0
20, 55632, Note_on_c, 13, 70, 67
20, 55678, Note_on_c, 13, 70, 0
20, 55680, Note_on_c, 13, 62, 75
20, 55726, Note_on_c, 13, 62, 0
20, 55728, Note_on_c, 13, 64, 78
20, 55774, Note_on_c, 13, 64, 0
20, 55776, Note_on_c, 13, 66, 73
20, 55870, Note_on_c, 13, 66, 0
20, 55872, Note_on_c, 13, 68, 77
20, 55918, Note_on_c, 13, 68, 0
20, 55920, Note_on_c, 13, 70, 73
20, 55966, Note_on_c, 13, 70, 0
20, 55968, Note_on_c, 13, 62, 44
20, 56014, Note_on_c, 13, 62, 0
20, 56016, Note_on_c, 13, 64, 43
20, 56062, Note_on_c, 13, 64, 0
20, 56064, Note_on_c, 13, 66, 51
20, 56158, Note_on_c, 13, 66, 0
20, 56160, Note_on_c, 13, 68, 63
20, 56206, Note_on_c, 13, 68, 0
20, 56208, Note_on_c, 13, 70, 65
20, 56254, Note_on_c, 13, 70, 0
20, 56256, Note_on_c, 13, 62, 80
20, 56302, Note_on_c, 13, 62, 0
20, 56304, Note_on_c, 13, 64, 71
20, 56350, Note_on_c, 13, 64, 0
20, 56352, Note_on_c, 13, 66, 73
20, 56446, Note_on_c, 13, 66, 0
20, 56448, Note_on_c, 13, 68, 70
20, 56494, Note_on_c, 13, 68, 0
20, 56496, Note_on_c, 13, 70, 77
20, 56542, Note_on_c, 13, 70, 0
20, 56544, Program_c, 13, 44
20, 56544, Control_c, 13, 11, 92
20, 56544, Note_on_c, 13, 66, 91
20, 56545, Control_c, 13, 11, 93
20, 56546, Control_c, 13, 11, 94
20, 56548, Control_c, 13, 11, 95
20, 56549, Control_c, 13, 11, 96
20, 56550, Control_c, 13, 11, 97
20, 56552, Control_c, 13, 11, 98
20, 56553, Control_c, 13, 11, 99
20, 56554, Control_c, 13, 11, 100
20, 56556, Control_c, 13, 11, 101
20, 56557, Control_c, 13, 11, 102
20, 56559, Control_c, 13, 11, 103
20, 56560, Control_c, 13, 11, 104
20, 56561, Control_c, 13, 11, 105
20, 56563, Control_c, 13, 11, 106
20, 56564, Control_c, 13, 11, 107
20, 56565, Control_c, 13, 11, 108
20, 56567, Control_c, 13, 11, 109
20, 56568, Control_c, 13, 11, 110
20, 56570, Control_c, 13, 11, 111
20, 56571, Control_c, 13, 11, 112
20, 56572, Control_c, 13, 11, 113
20, 56574, Control_c, 13, 11, 114
20, 56575, Control_c, 13, 11, 115
20, 56576, Control_c, 13, 11, 116
20, 56578, Control_c, 13, 11, 117
20, 56579, Control_c, 13, 11, 118
20, 56581, Control_c, 13, 11, 119
20, 56582, Control_c, 13, 11, 120
20, 56583, Control_c, 13, 11, 121
20, 56585, Control_c, 13, 11, 122
20, 56586, Control_c, 13, 11, 123
20, 56587, Control_c, 13, 11, 124
20, 56589, Control_c, 13, 11, 125
20, 56590, Control_c, 13, 11, 126
20, 56592, Control_c, 13, 11, 127
20, 56593, Control_c, 13, 11, 126
20, 56594, Control_c, 13, 11, 125
20, 56596, Control_c, 13, 11, 124
20, 56597, Control_c, 13, 11, 123
20, 56598, Control_c, 13, 11, 122
20, 56600, Control_c, 13, 11, 121
20, 56601, Control_c, 13, 11, 120
20, 56602, Control_c, 13, 11, 119
20, 56604, Control_c, 13, 11, 118
20, 56605, Control_c, 13, 11, 117
20, 56607, Control_c, 13, 11, 116
20, 56608, Control_c, 13, 11, 115
20, 56609, Control_c, 13, 11, 114
20, 56611, Control_c, 13, 11, 113
20, 56612, Control_c, 13, 11, 112
20, 56613, Control_c, 13, 11, 111
20, 56615, Control_c, 13, 11, 110
20, 56616, Control_c, 13, 11, 109
20, 56618, Control_c, 13, 11, 108
20, 56619, Control_c, 13, 11, 107
20, 56620, Control_c, 13, 11, 106
20, 56622, Control_c, 13, 11, 105
20, 56623, Control_c, 13, 11, 104
20, 56624, Control_c, 13, 11, 103
20, 56626, Control_c, 13, 11, 102
20, 56627, Control_c, 13, 11, 101
20, 56629, Control_c, 13, 11, 100
20, 56630, Control_c, 13, 11, 99
20, 56631, Control_c, 13, 11, 98
20, 56633, Control_c, 13, 11, 97
20, 56634, Control_c, 13, 11, 96
20, 56635, Control_c, 13, 11, 95
20, 56637, Control_c, 13, 11, 94
20, 56638, Control_c, 13, 11, 93
20, 56640, Control_c, 13, 11, 92
20, 56704, Note_on_c, 13, 66, 0
20, 56736, Control_c, 13, 11, 92
20, 56736, Note_on_c, 13, 64, 94
20, 56737, Control_c, 13, 11, 93
20, 56738, Control_c, 13, 11, 94
20, 56740, Control_c, 13, 11, 95
20, 56741, Control_c, 13, 11, 96
20, 56742, Control_c, 13, 11, 97
20, 56744, Control_c, 13, 11, 98
20, 56745, Control_c, 13, 11, 99
20, 56746, Control_c, 13, 11, 100
20, 56748, Control_c, 13, 11, 101
20, 56749, Control_c, 13, 11, 102
20, 56751, Control_c, 13, 11, 103
20, 56752, Control_c, 13, 11, 104
20, 56753, Control_c, 13, 11, 105
20, 56755, Control_c, 13, 11, 106
20, 56756, Control_c, 13, 11, 107
20, 56757, Control_c, 13, 11, 108
20, 56759, Control_c, 13, 11, 109
20, 56760, Control_c, 13, 11, 110
20, 56762, Control_c, 13, 11, 111
20, 56763, Control_c, 13, 11, 112
20, 56764, Control_c, 13, 11, 113
20, 56766, Control_c, 13, 11, 114
20, 56767, Control_c, 13, 11, 115
20, 56768, Control_c, 13, 11, 116
20, 56770, Control_c, 13, 11, 117
20, 56771, Control_c, 13, 11, 118
20, 56773, Control_c, 13, 11, 119
20, 56774, Control_c, 13, 11, 120
20, 56775, Control_c, 13, 11, 121
20, 56777, Control_c, 13, 11, 122
20, 56778, Control_c, 13, 11, 123
20, 56779, Control_c, 13, 11, 124
20, 56781, Control_c, 13, 11, 125
20, 56782, Control_c, 13, 11, 126
20, 56784, Control_c, 13, 11, 127
20, 56785, Control_c, 13, 11, 126
20, 56786, Control_c, 13, 11, 125
20, 56788, Control_c, 13, 11, 124
20, 56789, Control_c, 13, 11, 123
20, 56790, Control_c, 13, 11, 122
20, 56792, Control_c, 13, 11, 121
20, 56793, Control_c, 13, 11, 120
20, 56794, Control_c, 13, 11, 119
20, 56796, Control_c, 13, 11, 118
20, 56797, Control_c, 13, 11, 117
20, 56799, Control_c, 13, 11, 116
20, 56800, Control_c, 13, 11, 115
20, 56801, Control_c, 13, 11, 114
20, 56803, Control_c, 13, 11, 113
20, 56804, Control_c, 13, 11, 112
20, 56805, Control_c, 13, 11, 111
20, 56807, Control_c, 13, 11, 110
20, 56808, Control_c, 13, 11, 109
20, 56810, Control_c, 13, 11, 108
20, 56811, Control_c, 13, 11, 107
20, 56812, Control_c, 13, 11, 106
20, 56814, Control_c, 13, 11, 105
20, 56815, Control_c, 13, 11, 104
20, 56816, Control_c, 13, 11, 103
20, 56818, Control_c, 13, 11, 102
20, 56819, Control_c, 13, 11, 101
20, 56821, Control_c, 13, 11, 100
20, 56822, Control_c, 13, 11, 99
20, 56823, Control_c, 13, 11, 98
20, 56825, Control_c, 13, 11, 97
20, 56826, Control_c, 13, 11, 96
20, 56827, Control_c, 13, 11, 95
20, 56829, Control_c, 13, 11, 94
20, 56830, Control_c, 13, 11, 93
20, 56832, Control_c, 13, 11, 92
20, 56896, Note_on_c, 13, 64, 0
20, 56928, Control_c, 13, 11, 92
20, 56928, Note_on_c, 13, 61, 97
20, 56929, Control_c, 13, 11, 93
20, 56930, Control_c, 13, 11, 94
20, 56932, Control_c, 13, 11, 95
20, 56933, Control_c, 13, 11, 96
20, 56934, Control_c, 13, 11, 97
20, 56936, Control_c, 13, 11, 98
20, 56937, Control_c, 13, 11, 99
20, 56938, Control_c, 13, 11, 100
20, 56940, Control_c, 13, 11, 101
20, 56941, Control_c, 13, 11, 102
20, 56943, Control_c, 13, 11, 103
20, 56944, Control_c, 13, 11, 104
20, 56945, Control_c, 13, 11, 105
20, 56947, Control_c, 13, 11, 106
20, 56948, Control_c, 13, 11, 107
20, 56949, Control_c, 13, 11, 108
20, 56951, Control_c, 13, 11, 109
20, 56952, Control_c, 13, 11, 110
20, 56954, Control_c, 13, 11, 111
20, 56955, Control_c, 13, 11, 112
20, 56956, Control_c, 13, 11, 113
20, 56958, Control_c, 13, 11, 114
20, 56959, Control_c, 13, 11, 115
20, 56960, Control_c, 13, 11, 116
20, 56962, Control_c, 13, 11, 117
20, 56963, Control_c, 13, 11, 118
20, 56965, Control_c, 13, 11, 119
20, 56966, Control_c, 13, 11, 120
20, 56967, Control_c, 13, 11, 121
20, 56969, Control_c, 13, 11, 122
20, 56970, Control_c, 13, 11, 123
20, 56971, Control_c, 13, 11, 124
20, 56973, Control_c, 13, 11, 125
20, 56974, Control_c, 13, 11, 126
20, 56976, Control_c, 13, 11, 127
20, 56977, Control_c, 13, 11, 126
20, 56978, Control_c, 13, 11, 125
20, 56980, Control_c, 13, 11, 124
20, 56981, Control_c, 13, 11, 123
20, 56982, Control_c, 13, 11, 122
20, 56984, Control_c, 13, 11, 121
20, 56985, Control_c, 13, 11, 120
20, 56986, Control_c, 13, 11, 119
20, 56988, Control_c, 13, 11, 118
20, 56989, Control_c, 13, 11, 117
20, 56991, Control_c, 13, 11, 116
20, 56992, Control_c, 13, 11, 115
20, 56993, Control_c, 13, 11, 114
20, 56995, Control_c, 13, 11, 113
20, 56996, Control_c, 13, 11, 112
20, 56997, Control_c, 13, 11, 111
20, 56999, Control_c, 13, 11, 110
20, 57000, Control_c, 13, 11, 109
20, 57002, Control_c, 13, 11, 108
20, 57003, Control_c, 13, 11, 107
20, 57004, Control_c, 13, 11, 106
20, 57006, Control_c, 13, 11, 105
20, 57007, Control_c, 13, 11, 104
20, 57008, Control_c, 13, 11, 103
20, 57010, Control_c, 13, 11, 102
20, 57011, Control_c, 13, 11, 101
20, 57013, Control_c, 13, 11, 100
20, 57014, Control_c, 13, 11, 99
20, 57015, Control_c, 13, 11, 98
20, 57017, Control_c, 13, 11, 97
20, 57018, Control_c, 13, 11, 96
20, 57019, Control_c, 13, 11, 95
20, 57021, Control_c, 13, 11, 94
20, 57022, Control_c, 13, 11, 93
20, 57024, Control_c, 13, 11, 92
20, 57088, Note_on_c, 13, 61, 0
20, 57504, Program_c, 13, 44
20, 57504, Control_c, 13, 11, 92
20, 57504, Note_on_c, 13, 54, 94
20, 57516, Control_c, 13, 11, 91
20, 57528, Control_c, 13, 11, 90
20, 57541, Control_c, 13, 11, 89
20, 57553, Control_c, 13, 11, 88
20, 57565, Control_c, 13, 11, 87
20, 57578, Control_c, 13, 11, 86
20, 57590, Control_c, 13, 11, 85
20, 57603, Control_c, 13, 11, 84
20, 57615, Control_c, 13, 11, 83
20, 57627, Control_c, 13, 11, 82
20, 57640, Control_c, 13, 11, 81
20, 57652, Control_c, 13, 11, 80
20, 57665, Control_c, 13, 11, 79
20, 57677, Control_c, 13, 11, 78
20, 57689, Control_c, 13, 11, 77
20, 57696, Note_on_c, 13, 54, 0
20, 57696, Note_on_c, 13, 54, 97
20, 57702, Control_c, 13, 11, 76
20, 57714, Control_c, 13, 11, 75
20, 57726, Control_c, 13, 11, 74
20, 57739, Control_c, 13, 11, 73
20, 57751, Control_c, 13, 11, 72
20, 57764, Control_c, 13, 11, 71
20, 57776, Control_c, 13, 11, 70
20, 57788, Control_c, 13, 11, 69
20, 57792, Note_on_c, 13, 54, 0
20, 57792, Note_on_c, 13, 54, 95
20, 57801, Control_c, 13, 11, 68
20, 57813, Control_c, 13, 11, 67
20, 57826, Control_c, 13, 11, 66
20, 57838, Control_c, 13, 11, 65
20, 57850, Control_c, 13, 11, 64
20, 57863, Control_c, 13, 11, 63
20, 57875, Control_c, 13, 11, 62
20, 57887, Control_c, 13, 11, 61
20, 57900, Control_c, 13, 11, 60
20, 57912, Control_c, 13, 11, 59
20, 57925, Control_c, 13, 11, 58
20, 57937, Control_c, 13, 11, 57
20, 57949, Control_c, 13, 11, 56
20, 57962, Control_c, 13, 11, 55
20, 57974, Control_c, 13, 11, 54
20, 57984, Note_on_c, 13, 54, 0
20, 57984, Note_on_c, 13, 52, 88
20, 57987, Control_c, 13, 11, 53
20, 57999, Control_c, 13, 11, 52
20, 58011, Control_c, 13, 11, 51
20, 58024, Control_c, 13, 11, 50
20, 58036, Control_c, 13, 11, 49
20, 58049, Control_c, 13, 11, 48
20, 58061, Control_c, 13, 11, 47
20, 58073, Control_c, 13, 11, 46
20, 58086, Control_c, 13, 11, 45
20, 58098, Control_c, 13, 11, 44
20, 58110, Control_c, 13, 11, 43
20, 58123, Control_c, 13, 11, 42
20, 58135, Control_c, 13, 11, 41
20, 58148, Control_c, 13, 11, 40
20, 58160, Control_c, 13, 11, 39
20, 58172, Control_c, 13, 11, 38
20, 58176, Note_on_c, 13, 52, 0
20, 58176, Note_on_c, 13, 49, 97
20, 58185, Control_c, 13, 11, 37
20, 58197, Control_c, 13, 11, 36
20, 58210, Control_c, 13, 11, 35
20, 58222, Control_c, 13, 11, 34
20, 58234, Control_c, 13, 11, 33
20, 58247, Control_c, 13, 11, 32
20, 58259, Control_c, 13, 11, 31
20, 58272, Note_on_c, 13, 49, 0
20, 58272, Control_c, 13, 11, 30
20, 58368, Control_c, 13, 11, 127
20, 58368, Note_on_c, 13, 54, 45
20, 58381, Control_c, 13, 11, 126
20, 58395, Control_c, 13, 11, 125
20, 58409, Control_c, 13, 11, 124
20, 58422, Control_c, 13, 11, 123
20, 58436, Control_c, 13, 11, 122
20, 58450, Control_c, 13, 11, 121
20, 58464, Control_c, 13, 11, 120
20, 58477, Control_c, 13, 11, 119
20, 58491, Control_c, 13, 11, 118
20, 58505, Control_c, 13, 11, 117
20, 58518, Control_c, 13, 11, 116
20, 58532, Control_c, 13, 11, 115
20, 58546, Control_c, 13, 11, 114
20, 58560, Note_on_c, 13, 54, 0
20, 58560, Control_c, 13, 11, 113
20, 58560, Note_on_c, 13, 54, 48
20, 58573, Control_c, 13, 11, 112
20, 58587, Control_c, 13, 11, 111
20, 58601, Control_c, 13, 11, 110
20, 58614, Control_c, 13, 11, 109
20, 58628, Control_c, 13, 11, 108
20, 58642, Control_c, 13, 11, 107
20, 58656, Control_c, 13, 11, 106
20, 58669, Control_c, 13, 11, 105
20, 58683, Control_c, 13, 11, 104
20, 58697, Control_c, 13, 11, 103
20, 58710, Control_c, 13, 11, 102
20, 58724, Control_c, 13, 11, 101
20, 58738, Control_c, 13, 11, 100
20, 58752, Control_c, 13, 11, 99
20, 58765, Control_c, 13, 11, 98
20, 58779, Control_c, 13, 11, 97
20, 58793, Control_c, 13, 11, 96
20, 58806, Control_c, 13, 11, 95
20, 58820, Control_c, 13, 11, 94
20, 58834, Control_c, 13, 11, 93
20, 58848, Note_on_c, 13, 54, 0
20, 58848, Control_c, 13, 11, 92
20, 58944, Note_on_c, 13, 54, 43
20, 58944, Note_on_c, 13, 61, 49
20, 59136, Note_on_c, 13, 54, 0
20, 59136, Note_on_c, 13, 61, 0
20, 59136, Note_on_c, 13, 52, 49
20, 59136, Note_on_c, 13, 59, 40
20, 59328, Note_on_c, 13, 52, 0
20, 59328, Note_on_c, 13, 59, 0
20, 59328, Note_on_c, 13, 49, 43
20, 59328, Note_on_c, 13, 56, 50
20, 59424, Note_on_c, 13, 49, 0
20, 59424, Note_on_c, 13, 56, 0
20, 59520, Control_c, 13, 11, 127
20, 59520, Program_c, 13, 45
20, 59520, Note_on_c, 13, 49, 25
20, 59520, Note_on_c, 13, 56, 30
20, 59616, Note_on_c, 13, 49, 0
20, 59616, Note_on_c, 13, 56, 0
20, 60096, Note_on_c, 13, 49, 26
20, 60096, Note_on_c, 13, 56, 29
20, 60192, Note_on_c, 13, 49, 0
20, 60192, Note_on_c, 13, 56, 0
20, 68064, Program_c, 13, 44
20, 68064, Control_c, 13, 11, 127
20, 68832, Note_on_c, 13, 71, 30
20, 69600, Note_on_c, 13, 71, 0
20, 69600, Control_c, 13, 11, 45
20, 69600, Note_on_c, 13, 64, 92
20, 69628, Control_c, 13, 11, 46
20, 69656, Control_c, 13, 11, 47
20, 69684, Control_c, 13, 11, 48
20, 69712, Control_c, 13, 11, 49
20, 69740, Control_c, 13, 11, 50
20, 69768, Control_c, 13, 11, 51
20, 69796, Control_c, 13, 11, 52
20, 69824, Control_c, 13, 11, 53
20, 69852, Control_c, 13, 11, 54
20, 69880, Control_c, 13, 11, 55
20, 69909, Control_c, 13, 11, 56
20, 69937, Control_c, 13, 11, 57
20, 69965, Control_c, 13, 11, 58
20, 69993, Control_c, 13, 11, 59
20, 70021, Control_c, 13, 11, 60
20, 70049, Control_c, 13, 11, 61
20, 70077, Control_c, 13, 11, 62
20, 70105, Control_c, 13, 11, 63
20, 70133, Control_c, 13, 11, 64
20, 70161, Control_c, 13, 11, 65
20, 70190, Control_c, 13, 11, 66
20, 70218, Control_c, 13, 11, 67
20, 70246, Control_c, 13, 11, 68
20, 70274, Control_c, 13, 11, 69
20, 70302, Control_c, 13, 11, 70
20, 70330, Control_c, 13, 11, 71
20, 70358, Control_c, 13, 11, 72
20, 70386, Control_c, 13, 11, 73
20, 70414, Control_c, 13, 11, 74
20, 70442, Control_c, 13, 11, 75
20, 70471, Control_c, 13, 11, 76
20, 70499, Control_c, 13, 11, 77
20, 70527, Control_c, 13, 11, 78
20, 70555, Control_c, 13, 11, 79
20, 70583, Control_c, 13, 11, 80
20, 70611, Control_c, 13, 11, 81
20, 70639, Control_c, 13, 11, 82
20, 70667, Control_c, 13, 11, 83
20, 70695, Control_c, 13, 11, 84
20, 70723, Control_c, 13, 11, 85
20, 70751, Control_c, 13, 11, 86
20, 70780, Control_c, 13, 11, 87
20, 70808, Control_c, 13, 11, 88
20, 70836, Control_c, 13, 11, 89
20, 70864, Control_c, 13, 11, 90
20, 70892, Control_c, 13, 11, 91
20, 70920, Control_c, 13, 11, 92
20, 70948, Control_c, 13, 11, 93
20, 70976, Control_c, 13, 11, 94
20, 71004, Control_c, 13, 11, 95
20, 71032, Control_c, 13, 11, 96
20, 71061, Control_c, 13, 11, 97
20, 71089, Control_c, 13, 11, 98
20, 71117, Control_c, 13, 11, 99
20, 71136, Note_on_c, 13, 64, 0
20, 71136, Note_on_c, 13, 76, 97
20, 71145, Control_c, 13, 11, 100
20, 71173, Control_c, 13, 11, 101
20, 71201, Control_c, 13, 11, 102
20, 71229, Control_c, 13, 11, 103
20, 71257, Control_c, 13, 11, 104
20, 71285, Control_c, 13, 11, 105
20, 71313, Control_c, 13, 11, 106
20, 71342, Control_c, 13, 11, 107
20, 71370, Control_c, 13, 11, 108
20, 71398, Control_c, 13, 11, 109
20, 71426, Control_c, 13, 11, 110
20, 71454, Control_c, 13, 11, 111
20, 71482, Control_c, 13, 11, 112
20, 71510, Control_c, 13, 11, 113
20, 71538, Control_c, 13, 11, 114
20, 71566, Control_c, 13, 11, 115
20, 71594, Control_c, 13, 11, 116
20, 71623, Control_c, 13, 11, 117
20, 71651, Control_c, 13, 11, 118
20, 71679, Control_c, 13, 11, 119
20, 71707, Control_c, 13, 11, 120
20, 71735, Control_c, 13, 11, 121
20, 71763, Control_c, 13, 11, 122
20, 71791, Control_c, 13, 11, 123
20, 71819, Control_c, 13, 11, 124
20, 71847, Control_c, 13, 11, 125
20, 71875, Control_c, 13, 11, 126
20, 71904, Note_on_c, 13, 76, 0
20, 71904, Control_c, 13, 11, 127
20, 71904, Program_c, 13, 48
20, 72480, Control_c, 13, 11, 92
20, 72480, Note_on_c, 13, 62, 109
20, 72490, Control_c, 13, 11, 93
20, 72501, Control_c, 13, 11, 94
20, 72512, Control_c, 13, 11, 95
20, 72523, Control_c, 13, 11, 96
20, 72534, Control_c, 13, 11, 97
20, 72542, Note_on_c, 13, 62, 0
20, 72544, Note_on_c, 13, 60, 108
20, 72545, Control_c, 13, 11, 98
20, 72556, Control_c, 13, 11, 99
20, 72567, Control_c, 13, 11, 100
20, 72578, Control_c, 13, 11, 101
20, 72589, Control_c, 13, 11, 102
20, 72600, Control_c, 13, 11, 103
20, 72611, Control_c, 13, 11, 104
20, 72622, Control_c, 13, 11, 105
20, 72633, Control_c, 13, 11, 106
20, 72638, Note_on_c, 13, 60, 0
20, 72640, Note_on_c, 13, 58, 112
20, 72644, Control_c, 13, 11, 107
20, 72655, Control_c, 13, 11, 108
20, 72666, Control_c, 13, 11, 109
20, 72670, Note_on_c, 13, 58, 0
20, 72672, Note_on_c, 13, 58, 107
20, 72677, Control_c, 13, 11, 110
20, 72688, Control_c, 13, 11, 111
20, 72699, Control_c, 13, 11, 112
20, 72710, Control_c, 13, 11, 113
20, 72721, Control_c, 13, 11, 114
20, 72732, Control_c, 13, 11, 115
20, 72734, Note_on_c, 13, 58, 0
20, 72736, Note_on_c, 13, 57, 112
20, 72743, Control_c, 13, 11, 116
20, 72754, Control_c, 13, 11, 117
20, 72765, Control_c, 13, 11, 118
20, 72776, Control_c, 13, 11, 119
20, 72787, Control_c, 13, 11, 120
20, 72798, Note_on_c, 13, 57, 0
20, 72798, Control_c, 13, 11, 121
20, 72800, Note_on_c, 13, 55, 113
20, 72809, Control_c, 13, 11, 122
20, 72820, Control_c, 13, 11, 123
20, 72831, Control_c, 13, 11, 124
20, 72842, Control_c, 13, 11, 125
20, 72853, Control_c, 13, 11, 126
20, 72862, Note_on_c, 13, 55, 0
20, 72864, Control_c, 13, 11, 127
20, 72864, Note_on_c, 13, 53, 109
20, 72926, Note_on_c, 13, 53, 0
20, 72928, Note_on_c, 13, 51, 111
20, 73022, Note_on_c, 13, 51, 0
20, 73024, Note_on_c, 13, 50, 106
20, 73054, Note_on_c, 13, 50, 0
20, 73056, Control_c, 13, 11, 127
20, 73056, Note_on_c, 13, 48, 105
20, 73059, Control_c, 13, 11, 126
20, 73063, Control_c, 13, 11, 125
20, 73067, Control_c, 13, 11, 124
20, 73070, Control_c, 13, 11, 123
20, 73074, Control_c, 13, 11, 122
20, 73078, Control_c, 13, 11, 121
20, 73081, Control_c, 13, 11, 120
20, 73085, Control_c, 13, 11, 119
20, 73089, Control_c, 13, 11, 118
20, 73092, Control_c, 13, 11, 117
20, 73096, Control_c, 13, 11, 116
20, 73100, Control_c, 13, 11, 115
20, 73104, Control_c, 13, 11, 114
20, 73107, Control_c, 13, 11, 113
20, 73111, Control_c, 13, 11, 112
20, 73115, Control_c, 13, 11, 111
20, 73118, Control_c, 13, 11, 110
20, 73122, Control_c, 13, 11, 109
20, 73126, Control_c, 13, 11, 108
20, 73129, Control_c, 13, 11, 107
20, 73133, Control_c, 13, 11, 106
20, 73137, Control_c, 13, 11, 105
20, 73140, Control_c, 13, 11, 104
20, 73144, Control_c, 13, 11, 103
20, 73148, Control_c, 13, 11, 102
20, 73152, Control_c, 13, 11, 101
20, 73155, Control_c, 13, 11, 100
20, 73159, Control_c, 13, 11, 99
20, 73163, Control_c, 13, 11, 98
20, 73166, Control_c, 13, 11, 97
20, 73170, Control_c, 13, 11, 96
20, 73174, Control_c, 13, 11, 95
20, 73177, Control_c, 13, 11, 94
20, 73181, Control_c, 13, 11, 93
20, 73185, Control_c, 13, 11, 92
20, 73188, Control_c, 13, 11, 91
20, 73192, Control_c, 13, 11, 90
20, 73196, Control_c, 13, 11, 89
20, 73200, Control_c, 13, 11, 88
20, 73203, Control_c, 13, 11, 87
20, 73207, Control_c, 13, 11, 86
20, 73211, Control_c, 13, 11, 85
20, 73214, Control_c, 13, 11, 84
20, 73218, Control_c, 13, 11, 83
20, 73222, Control_c, 13, 11, 82
20, 73225, Control_c, 13, 11, 81
20, 73229, Control_c, 13, 11, 80
20, 73233, Control_c, 13, 11, 79
20, 73236, Control_c, 13, 11, 78
20, 73240, Control_c, 13, 11, 77
20, 73244, Control_c, 13, 11, 76
20, 73248, Control_c, 13, 11, 75
20, 73392, Note_on_c, 13, 48, 0
20, 74400, Control_c, 13, 11, 92
20, 74400, Note_on_c, 13, 69, 89
20, 74405, Control_c, 13, 11, 93
20, 74410, Control_c, 13, 11, 94
20, 74416, Control_c, 13, 11, 95
20, 74421, Control_c, 13, 11, 96
20, 74427, Control_c, 13, 11, 97
20, 74432, Control_c, 13, 11, 98
20, 74438, Control_c, 13, 11, 99
20, 74443, Control_c, 13, 11, 100
20, 74449, Control_c, 13, 11, 101
20, 74454, Control_c, 13, 11, 102
20, 74460, Control_c, 13, 11, 103
20, 74465, Control_c, 13, 11, 104
20, 74471, Control_c, 13, 11, 105
20, 74476, Control_c, 13, 11, 106
20, 74482, Control_c, 13, 11, 107
20, 74487, Control_c, 13, 11, 108
20, 74493, Control_c, 13, 11, 109
20, 74498, Control_c, 13, 11, 110
20, 74504, Control_c, 13, 11, 111
20, 74509, Control_c, 13, 11, 112
20, 74515, Control_c, 13, 11, 113
20, 74520, Control_c, 13, 11, 114
20, 74526, Control_c, 13, 11, 115
20, 74531, Control_c, 13, 11, 116
20, 74537, Control_c, 13, 11, 117
20, 74542, Note_on_c, 13, 69, 0
20, 74542, Control_c, 13, 11, 118
20, 74544, Note_on_c, 13, 67, 92
20, 74548, Control_c, 13, 11, 119
20, 74553, Control_c, 13, 11, 120
20, 74559, Control_c, 13, 11, 121
20, 74564, Control_c, 13, 11, 122
20, 74570, Control_c, 13, 11, 123
20, 74575, Control_c, 13, 11, 124
20, 74581, Control_c, 13, 11, 125
20, 74586, Control_c, 13, 11, 126
20, 74590, Note_on_c, 13, 67, 0
20, 74592, Control_c, 13, 11, 127
20, 74592, Note_on_c, 13, 69, 91
20, 74624, Note_on_c, 13, 69, 0
20, 74976, Control_c, 13, 11, 92
20, 74976, Note_on_c, 13, 69, 96
20, 74981, Control_c, 13, 11, 93
20, 74986, Control_c, 13, 11, 94
20, 74992, Control_c, 13, 11, 95
20, 74997, Control_c, 13, 11, 96
20, 75003, Control_c, 13, 11, 97
20, 75008, Control_c, 13, 11, 98
20, 75014, Control_c, 13, 11, 99
20, 75019, Control_c, 13, 11, 100
20, 75025, Control_c, 13, 11, 101
20, 75030, Control_c, 13, 11, 102
20, 75036, Control_c, 13, 11, 103
20, 75041, Control_c, 13, 11, 104
20, 75047, Control_c, 13, 11, 105
20, 75052, Control_c, 13, 11, 106
20, 75058, Control_c, 13, 11, 107
20, 75063, Control_c, 13, 11, 108
20, 75069, Control_c, 13, 11, 109
20, 75074, Control_c, 13, 11, 110
20, 75080, Control_c, 13, 11, 111
20, 75085, Control_c, 13, 11, 112
20, 75091, Control_c, 13, 11, 113
20, 75096, Control_c, 13, 11, 114
20, 75102, Control_c, 13, 11, 115
20, 75107, Control_c, 13, 11, 116
20, 75113, Control_c, 13, 11, 117
20, 75118, Note_on_c, 13, 69, 0
20, 75118, Control_c, 13, 11, 118
20, 75120, Note_on_c, 13, 67, 87
20, 75124, Control_c, 13, 11, 119
20, 75129, Control_c, 13, 11, 120
20, 75135, Control_c, 13, 11, 121
20, 75140, Control_c, 13, 11, 122
20, 75146, Control_c, 13, 11, 123
20, 75151, Control_c, 13, 11, 124
20, 75157, Control_c, 13, 11, 125
20, 75162, Control_c, 13, 11, 126
20, 75166, Note_on_c, 13, 67, 0
20, 75168, Control_c, 13, 11, 127
20, 75552, Control_c, 13, 11, 92
20, 75552, Note_on_c, 13, 60, 95
20, 75557, Control_c, 13, 11, 93
20, 75562, Control_c, 13, 11, 94
20, 75568, Control_c, 13, 11, 95
20, 75573, Control_c, 13, 11, 96
20, 75579, Control_c, 13, 11, 97
20, 75584, Control_c, 13, 11, 98
20, 75590, Control_c, 13, 11, 99
20, 75595, Control_c, 13, 11, 100
20, 75601, Control_c, 13, 11, 101
20, 75606, Control_c, 13, 11, 102
20, 75612, Control_c, 13, 11, 103
20, 75617, Control_c, 13, 11, 104
20, 75623, Control_c, 13, 11, 105
20, 75628, Control_c, 13, 11, 106
20, 75634, Control_c, 13, 11, 107
20, 75639, Control_c, 13, 11, 108
20, 75645, Control_c, 13, 11, 109
20, 75650, Control_c, 13, 11, 110
20, 75656, Control_c, 13, 11, 111
20, 75661, Control_c, 13, 11, 112
20, 75667, Control_c, 13, 11, 113
20, 75672, Control_c, 13, 11, 114
20, 75678, Control_c, 13, 11, 115
20, 75683, Control_c, 13, 11, 116
20, 75689, Control_c, 13, 11, 117
20, 75694, Note_on_c, 13, 60, 0
20, 75694, Control_c, 13, 11, 118
20, 75696, Note_on_c, 13, 58, 87
20, 75700, Control_c, 13, 11, 119
20, 75705, Control_c, 13, 11, 120
20, 75711, Control_c, 13, 11, 121
20, 75716, Control_c, 13, 11, 122
20, 75722, Control_c, 13, 11, 123
20, 75727, Control_c, 13, 11, 124
20, 75733, Control_c, 13, 11, 125
20, 75738, Control_c, 13, 11, 126
20, 75742, Note_on_c, 13, 58, 0
20, 75744, Control_c, 13, 11, 127
20, 75744, Note_on_c, 13, 60, 96
20, 75776, Note_on_c, 13, 60, 0
20, 76128, Control_c, 13, 11, 92
20, 76128, Note_on_c, 13, 60, 95
20, 76133, Control_c, 13, 11, 93
20, 76138, Control_c, 13, 11, 94
20, 76144, Control_c, 13, 11, 95
20, 76149, Control_c, 13, 11, 96
20, 76155, Control_c, 13, 11, 97
20, 76160, Control_c, 13, 11, 98
20, 76166, Control_c, 13, 11, 99
20, 76171, Control_c, 13, 11, 100
20, 76177, Control_c, 13, 11, 101
20, 76182, Control_c, 13, 11, 102
20, 76188, Control_c, 13, 11, 103
20, 76193, Control_c, 13, 11, 104
20, 76199, Control_c, 13, 11, 105
20, 76204, Control_c, 13, 11, 106
20, 76210, Control_c, 13, 11, 107
20, 76215, Control_c, 13, 11, 108
20, 76221, Control_c, 13, 11, 109
20, 76226, Control_c, 13, 11, 110
20, 76232, Control_c, 13, 11, 111
20, 76237, Control_c, 13, 11, 112
20, 76243, Control_c, 13, 11, 113
20, 76248, Control_c, 13, 11, 114
20, 76254, Control_c, 13, 11, 115
20, 76259, Control_c, 13, 11, 116
20, 76265, Control_c, 13, 11, 117
20, 76270, Note_on_c, 13, 60, 0
20, 76270, Control_c, 13, 11, 118
20, 76272, Note_on_c, 13, 58, 87
20, 76276, Control_c, 13, 11, 119
20, 76281, Control_c, 13, 11, 120
20, 76287, Control_c, 13, 11, 121
20, 76292, Control_c, 13, 11, 122
20, 76298, Control_c, 13, 11, 123
20, 76303, Control_c, 13, 11, 124
20, 76309, Control_c, 13, 11, 125
20, 76314, Control_c, 13, 11, 126
20, 76318, Note_on_c, 13, 58, 0
20, 76320, Control_c, 13, 11, 127
20, 76320, Program_c, 13, 44
20, 76320, Control_c, 13, 11, 75
20, 76320, Note_on_c, 13, 57, 63
20, 76608, Control_c, 13, 11, 75
20, 76609, Control_c, 13, 11, 76
20, 76611, Control_c, 13, 11, 77
20, 76613, Control_c, 13, 11, 78
20, 76615, Control_c, 13, 11, 79
20, 76617, Control_c, 13, 11, 80
20, 76619, Control_c, 13, 11, 81
20, 76620, Control_c, 13, 11, 82
20, 76622, Control_c, 13, 11, 83
20, 76624, Control_c, 13, 11, 84
20, 76626, Control_c, 13, 11, 85
20, 76628, Control_c, 13, 11, 86
20, 76630, Control_c, 13, 11, 87
20, 76632, Control_c, 13, 11, 88
20, 76633, Control_c, 13, 11, 89
20, 76635, Control_c, 13, 11, 90
20, 76637, Control_c, 13, 11, 91
20, 76639, Control_c, 13, 11, 92
20, 76641, Control_c, 13, 11, 93
20, 76643, Control_c, 13, 11, 94
20, 76644, Control_c, 13, 11, 95
20, 76646, Control_c, 13, 11, 96
20, 76648, Control_c, 13, 11, 97
20, 76650, Control_c, 13, 11, 98
20, 76652, Control_c, 13, 11, 99
20, 76654, Control_c, 13, 11, 100
20, 76656, Control_c, 13, 11, 101
20, 76657, Control_c, 13, 11, 102
20, 76659, Control_c, 13, 11, 103
20, 76661, Control_c, 13, 11, 104
20, 76663, Control_c, 13, 11, 105
20, 76665, Control_c, 13, 11, 106
20, 76667, Control_c, 13, 11, 107
20, 76668, Control_c, 13, 11, 108
20, 76670, Control_c, 13, 11, 109
20, 76672, Control_c, 13, 11, 110
20, 76674, Control_c, 13, 11, 111
20, 76676, Control_c, 13, 11, 112
20, 76678, Control_c, 13, 11, 113
20, 76680, Control_c, 13, 11, 114
20, 76681, Control_c, 13, 11, 115
20, 76683, Control_c, 13, 11, 116
20, 76685, Control_c, 13, 11, 117
20, 76687, Control_c, 13, 11, 118
20, 76689, Control_c, 13, 11, 119
20, 76691, Control_c, 13, 11, 120
20, 76692, Control_c, 13, 11, 121
20, 76694, Control_c, 13, 11, 122
20, 76696, Control_c, 13, 11, 123
20, 76698, Control_c, 13, 11, 124
20, 76700, Control_c, 13, 11, 125
20, 76702, Note_on_c, 13, 57, 0
20, 76702, Control_c, 13, 11, 126
20, 76704, Control_c, 13, 11, 127
20, 76704, Note_on_c, 13, 58, 58
20, 76864, Note_on_c, 13, 58, 0
20, 76896, Control_c, 13, 11, 75
20, 76896, Note_on_c, 13, 57, 58
20, 77184, Control_c, 13, 11, 75
20, 77185, Control_c, 13, 11, 76
20, 77187, Control_c, 13, 11, 77
20, 77189, Control_c, 13, 11, 78
20, 77191, Control_c, 13, 11, 79
20, 77193, Control_c, 13, 11, 80
20, 77195, Control_c, 13, 11, 81
20, 77196, Control_c, 13, 11, 82
20, 77198, Control_c, 13, 11, 83
20, 77200, Control_c, 13, 11, 84
20, 77202, Control_c, 13, 11, 85
20, 77204, Control_c, 13, 11, 86
20, 77206, Control_c, 13, 11, 87
20, 77208, Control_c, 13, 11, 88
20, 77209, Control_c, 13, 11, 89
20, 77211, Control_c, 13, 11, 90
20, 77213, Control_c, 13, 11, 91
20, 77215, Control_c, 13, 11, 92
20, 77217, Control_c, 13, 11, 93
20, 77219, Control_c, 13, 11, 94
20, 77220, Control_c, 13, 11, 95
20, 77222, Control_c, 13, 11, 96
20, 77224, Control_c, 13, 11, 97
20, 77226, Control_c, 13, 11, 98
20, 77228, Control_c, 13, 11, 99
20, 77230, Control_c, 13, 11, 100
20, 77232, Control_c, 13, 11, 101
20, 77233, Control_c, 13, 11, 102
20, 77235, Control_c, 13, 11, 103
20, 77237, Control_c, 13, 11, 104
20, 77239, Control_c, 13, 11, 105
20, 77241, Control_c, 13, 11, 106
20, 77243, Control_c, 13, 11, 107
20, 77244, Control_c, 13, 11, 108
20, 77246, Control_c, 13, 11, 109
20, 77248, Control_c, 13, 11, 110
20, 77250, Control_c, 13, 11, 111
20, 77252, Control_c, 13, 11, 112
20, 77254, Control_c, 13, 11, 113
20, 77256, Control_c, 13, 11, 114
20, 77257, Control_c, 13, 11, 115
20, 77259, Control_c, 13, 11, 116
20, 77261, Control_c, 13, 11, 117
20, 77263, Control_c, 13, 11, 118
20, 77265, Control_c, 13, 11, 119
20, 77267, Control_c, 13, 11, 120
20, 77268, Control_c, 13, 11, 121
20, 77270, Control_c, 13, 11, 122
20, 77272, Control_c, 13, 11, 123
20, 77274, Control_c, 13, 11, 124
20, 77276, Control_c, 13, 11, 125
20, 77278, Note_on_c, 13, 57, 0
20, 77278, Control_c, 13, 11, 126
20, 77280, Control_c, 13, 11, 127
20, 77280, Note_on_c, 13, 58, 61
20, 77440, Note_on_c, 13, 58, 0
20, 77472, Control_c, 13, 11, 75
20, 77472, Note_on_c, 13, 61, 112
20, 77494, Control_c, 13, 11, 76
20, 77516, Control_c, 13, 11, 77
20, 77538, Control_c, 13, 11, 78
20, 77560, Control_c, 13, 11, 79
20, 77582, Control_c, 13, 11, 80
20, 77604, Control_c, 13, 11, 81
20, 77627, Control_c, 13, 11, 82
20, 77649, Control_c, 13, 11, 83
20, 77671, Control_c, 13, 11, 84
20, 77693, Control_c, 13, 11, 85
20, 77715, Control_c, 13, 11, 86
20, 77737, Control_c, 13, 11, 87
20, 77760, Control_c, 13, 11, 88
20, 77782, Control_c, 13, 11, 89
20, 77804, Control_c, 13, 11, 90
20, 77826, Control_c, 13, 11, 91
20, 77848, Control_c, 13, 11, 92
20, 77854, Note_on_c, 13, 61, 0
20, 77856, Note_on_c, 13, 62, 110
20, 77870, Control_c, 13, 11, 93
20, 77892, Control_c, 13, 11, 94
20, 77915, Control_c, 13, 11, 95
20, 77937, Control_c, 13, 11, 96
20, 77959, Control_c, 13, 11, 97
20, 77981, Control_c, 13, 11, 98
20, 78003, Control_c, 13, 11, 99
20, 78016, Note_on_c, 13, 62, 0
20, 78025, Control_c, 13, 11, 100
20, 78048, Control_c, 13, 11, 101
20, 78048, Note_on_c, 13, 61, 113
20, 78070, Control_c, 13, 11, 102
20, 78092, Control_c, 13, 11, 103
20, 78114, Control_c, 13, 11, 104
20, 78136, Control_c, 13, 11, 105
20, 78158, Control_c, 13, 11, 106
20, 78180, Control_c, 13, 11, 107
20, 78203, Control_c, 13, 11, 108
20, 78225, Control_c, 13, 11, 109
20, 78247, Control_c, 13, 11, 110
20, 78269, Control_c, 13, 11, 111
20, 78291, Control_c, 13, 11, 112
20, 78313, Control_c, 13, 11, 113
20, 78336, Control_c, 13, 11, 114
20, 78358, Control_c, 13, 11, 115
20, 78380, Control_c, 13, 11, 116
20, 78402, Control_c, 13, 11, 117
20, 78424, Control_c, 13, 11, 118
20, 78430, Note_on_c, 13, 61, 0
20, 78432, Note_on_c, 13, 62, 107
20, 78446, Control_c, 13, 11, 119
20, 78468, Control_c, 13, 11, 120
20, 78491, Control_c, 13, 11, 121
20, 78513, Control_c, 13, 11, 122
20, 78535, Control_c, 13, 11, 123
20, 78557, Control_c, 13, 11, 124
20, 78579, Control_c, 13, 11, 125
20, 78592, Note_on_c, 13, 62, 0
20, 78601, Control_c, 13, 11, 126
20, 78624, Control_c, 13, 11, 127
20, 78624, Program_c, 13, 48
20, 78624, Control_c, 13, 11, 127
20, 78624, Note_on_c, 13, 74, 106
20, 78632, Control_c, 13, 11, 126
20, 78640, Control_c, 13, 11, 125
20, 78648, Control_c, 13, 11, 124
20, 78656, Control_c, 13, 11, 123
20, 78665, Control_c, 13, 11, 122
20, 78673, Control_c, 13, 11, 121
20, 78681, Control_c, 13, 11, 120
20, 78689, Control_c, 13, 11, 119
20, 78698, Control_c, 13, 11, 118
20, 78706, Control_c, 13, 11, 117
20, 78714, Control_c, 13, 11, 116
20, 78718, Note_on_c, 13, 74, 0
20, 78720, Note_on_c, 13, 72, 111
20, 78722, Control_c, 13, 11, 115
20, 78730, Control_c, 13, 11, 114
20, 78739, Control_c, 13, 11, 113
20, 78747, Control_c, 13, 11, 112
20, 78755, Control_c, 13, 11, 111
20, 78763, Control_c, 13, 11, 110
20, 78772, Control_c, 13, 11, 109
20, 78780, Control_c, 13, 11, 108
20, 78788, Control_c, 13, 11, 107
20, 78796, Control_c, 13, 11, 106
20, 78805, Control_c, 13, 11, 105
20, 78813, Control_c, 13, 11, 104
20, 78821, Control_c, 13, 11, 103
20, 78829, Control_c, 13, 11, 102
20, 78837, Control_c, 13, 11, 101
20, 78846, Control_c, 13, 11, 100
20, 78854, Control_c, 13, 11, 99
20, 78862, Note_on_c, 13, 72, 0
20, 78862, Control_c, 13, 11, 98
20, 78864, Note_on_c, 13, 62, 107
20, 78870, Control_c, 13, 11, 97
20, 78879, Control_c, 13, 11, 96
20, 78887, Control_c, 13, 11, 95
20, 78895, Control_c, 13, 11, 94
20, 78903, Control_c, 13, 11, 93
20, 78910, Note_on_c, 13, 62, 0
20, 78912, Control_c, 13, 11, 92
20, 78912, Note_on_c, 13, 60, 110
20, 78920, Control_c, 13, 11, 93
20, 78928, Control_c, 13, 11, 94
20, 78936, Control_c, 13, 11, 95
20, 78944, Control_c, 13, 11, 96
20, 78953, Control_c, 13, 11, 97
20, 78961, Control_c, 13, 11, 98
20, 78969, Control_c, 13, 11, 99
20, 78977, Control_c, 13, 11, 100
20, 78986, Control_c, 13, 11, 101
20, 78994, Control_c, 13, 11, 102
20, 79002, Control_c, 13, 11, 103
20, 79006, Note_on_c, 13, 60, 0
20, 79008, Note_on_c, 13, 62, 106
20, 79010, Control_c, 13, 11, 104
20, 79018, Control_c, 13, 11, 105
20, 79027, Control_c, 13, 11, 106
20, 79035, Control_c, 13, 11, 107
20, 79043, Control_c, 13, 11, 108
20, 79051, Control_c, 13, 11, 109
20, 79060, Control_c, 13, 11, 110
20, 79068, Control_c, 13, 11, 111
20, 79076, Control_c, 13, 11, 112
20, 79084, Control_c, 13, 11, 113
20, 79093, Control_c, 13, 11, 114
20, 79101, Control_c, 13, 11, 115
20, 79109, Control_c, 13, 11, 116
20, 79117, Control_c, 13, 11, 117
20, 79125, Control_c, 13, 11, 118
20, 79134, Control_c, 13, 11, 119
20, 79142, Control_c, 13, 11, 120
20, 79150, Note_on_c, 13, 62, 0
20, 79150, Control_c, 13, 11, 121
20, 79152, Note_on_c, 13, 72, 110
20, 79158, Control_c, 13, 11, 122
20, 79167, Control_c, 13, 11, 123
20, 79175, Control_c, 13, 11, 124
20, 79183, Control_c, 13, 11, 125
20, 79191, Control_c, 13, 11, 126
20, 79198, Note_on_c, 13, 72, 0
20, 79200, Control_c, 13, 11, 127
20, 79200, Control_c, 13, 11, 127
20, 79200, Note_on_c, 13, 74, 103
20, 79208, Control_c, 13, 11, 126
20, 79216, Control_c, 13, 11, 125
20, 79224, Control_c, 13, 11, 124
20, 79232, Control_c, 13, 11, 123
20, 79241, Control_c, 13, 11, 122
20, 79249, Control_c, 13, 11, 121
20, 79257, Control_c, 13, 11, 120
20, 79265, Control_c, 13, 11, 119
20, 79274, Control_c, 13, 11, 118
20, 79282, Control_c, 13, 11, 117
20, 79290, Control_c, 13, 11, 116
20, 79294, Note_on_c, 13, 74, 0
20, 79296, Note_on_c, 13, 72, 103
20, 79298, Control_c, 13, 11, 115
20, 79306, Control_c, 13, 11, 114
20, 79315, Control_c, 13, 11, 113
20, 79323, Control_c, 13, 11, 112
20, 79331, Control_c, 13, 11, 111
20, 79339, Control_c, 13, 11, 110
20, 79348, Control_c, 13, 11, 109
20, 79356, Control_c, 13, 11, 108
20, 79364, Control_c, 13, 11, 107
20, 79372, Control_c, 13, 11, 106
20, 79381, Control_c, 13, 11, 105
20, 79389, Control_c, 13, 11, 104
20, 79397, Control_c, 13, 11, 103
20, 79405, Control_c, 13, 11, 102
20, 79413, Control_c, 13, 11, 101
20, 79422, Control_c, 13, 11, 100
20, 79430, Control_c, 13, 11, 99
20, 79438, Note_on_c, 13, 72, 0
20, 79438, Control_c, 13, 11, 98
20, 79440, Note_on_c, 13, 62, 112
20, 79446, Control_c, 13, 11, 97
20, 79455, Control_c, 13, 11, 96
20, 79463, Control_c, 13, 11, 95
20, 79471, Control_c, 13, 11, 94
20, 79479, Control_c, 13, 11, 93
20, 79486, Note_on_c, 13, 62, 0
20, 79488, Control_c, 13, 11, 92
20, 79488, Note_on_c, 13, 60, 109
20, 79496, Control_c, 13, 11, 93
20, 79504, Control_c, 13, 11, 94
20, 79512, Control_c, 13, 11, 95
20, 79520, Control_c, 13, 11, 96
20, 79529, Control_c, 13, 11, 97
20, 79537, Control_c, 13, 11, 98
20, 79545, Control_c, 13, 11, 99
20, 79553, Control_c, 13, 11, 100
20, 79562, Control_c, 13, 11, 101
20, 79570, Control_c, 13, 11, 102
20, 79578, Control_c, 13, 11, 103
20, 79582, Note_on_c, 13, 60, 0
20, 79584, Note_on_c, 13, 62, 106
20, 79586, Control_c, 13, 11, 104
20, 79594, Control_c, 13, 11, 105
20, 79603, Control_c, 13, 11, 106
20, 79611, Control_c, 13, 11, 107
20, 79619, Control_c, 13, 11, 108
20, 79627, Control_c, 13, 11, 109
20, 79636, Control_c, 13, 11, 110
20, 79644, Control_c, 13, 11, 111
20, 79652, Control_c, 13, 11, 112
20, 79660, Control_c, 13, 11, 113
20, 79669, Control_c, 13, 11, 114
20, 79677, Control_c, 13, 11, 115
20, 79685, Control_c, 13, 11, 116
20, 79693, Control_c, 13, 11, 117
20, 79701, Control_c, 13, 11, 118
20, 79710, Control_c, 13, 11, 119
20, 79718, Control_c, 13, 11, 120
20, 79726, Note_on_c, 13, 62, 0
20, 79726, Control_c, 13, 11, 121
20, 79728, Note_on_c, 13, 72, 103
20, 79734, Control_c, 13, 11, 122
20, 79743, Control_c, 13, 11, 123
20, 79751, Control_c, 13, 11, 124
20, 79759, Control_c, 13, 11, 125
20, 79767, Control_c, 13, 11, 126
20, 79774, Note_on_c, 13, 72, 0
20, 79776, Control_c, 13, 11, 127
20, 79776, Control_c, 13, 11, 127
20, 79776, Note_on_c, 13, 74, 109
20, 79784, Control_c, 13, 11, 126
20, 79792, Control_c, 13, 11, 125
20, 79800, Control_c, 13, 11, 124
20, 79808, Control_c, 13, 11, 123
20, 79817, Control_c, 13, 11, 122
20, 79825, Control_c, 13, 11, 121
20, 79833, Control_c, 13, 11, 120
20, 79841, Control_c, 13, 11, 119
20, 79850, Control_c, 13, 11, 118
20, 79858, Control_c, 13, 11, 117
20, 79866, Control_c, 13, 11, 116
20, 79870, Note_on_c, 13, 74, 0
20, 79872, Note_on_c, 13, 72, 112
20, 79874, Control_c, 13, 11, 115
20, 79882, Control_c, 13, 11, 114
20, 79891, Control_c, 13, 11, 113
20, 79899, Control_c, 13, 11, 112
20, 79907, Control_c, 13, 11, 111
20, 79915, Control_c, 13, 11, 110
20, 79924, Control_c, 13, 11, 109
20, 79932, Control_c, 13, 11, 108
20, 79940, Control_c, 13, 11, 107
20, 79948, Control_c, 13, 11, 106
20, 79957, Control_c, 13, 11, 105
20, 79965, Control_c, 13, 11, 104
20, 79973, Control_c, 13, 11, 103
20, 79981, Control_c, 13, 11, 102
20, 79989, Control_c, 13, 11, 101
20, 79998, Control_c, 13, 11, 100
20, 80006, Control_c, 13, 11, 99
20, 80014, Note_on_c, 13, 72, 0
20, 80014, Control_c, 13, 11, 98
20, 80016, Note_on_c, 13, 62, 105
20, 80022, Control_c, 13, 11, 97
20, 80031, Control_c, 13, 11, 96
20, 80039, Control_c, 13, 11, 95
20, 80047, Control_c, 13, 11, 94
20, 80055, Control_c, 13, 11, 93
20, 80062, Note_on_c, 13, 62, 0
20, 80064, Control_c, 13, 11, 92
20, 80064, Note_on_c, 13, 60, 106
20, 80072, Control_c, 13, 11, 93
20, 80080, Control_c, 13, 11, 94
20, 80088, Control_c, 13, 11, 95
20, 80096, Control_c, 13, 11, 96
20, 80105, Control_c, 13, 11, 97
20, 80113, Control_c, 13, 11, 98
20, 80121, Control_c, 13, 11, 99
20, 80129, Control_c, 13, 11, 100
20, 80138, Control_c, 13, 11, 101
20, 80146, Control_c, 13, 11, 102
20, 80154, Control_c, 13, 11, 103
20, 80158, Note_on_c, 13, 60, 0
20, 80160, Note_on_c, 13, 62, 112
20, 80162, Control_c, 13, 11, 104
20, 80170, Control_c, 13, 11, 105
20, 80179, Control_c, 13, 11, 106
20, 80187, Control_c, 13, 11, 107
20, 80195, Control_c, 13, 11, 108
20, 80203, Control_c, 13, 11, 109
20, 80212, Control_c, 13, 11, 110
20, 80220, Control_c, 13, 11, 111
20, 80228, Control_c, 13, 11, 112
20, 80236, Control_c, 13, 11, 113
20, 80245, Control_c, 13, 11, 114
20, 80253, Control_c, 13, 11, 115
20, 80261, Control_c, 13, 11, 116
20, 80269, Control_c, 13, 11, 117
20, 80277, Control_c, 13, 11, 118
20, 80286, Control_c, 13, 11, 119
20, 80294, Control_c, 13, 11, 120
20, 80302, Note_on_c, 13, 62, 0
20, 80302, Control_c, 13, 11, 121
20, 80304, Note_on_c, 13, 72, 110
20, 80310, Control_c, 13, 11, 122
20, 80319, Control_c, 13, 11, 123
20, 80327, Control_c, 13, 11, 124
20, 80335, Control_c, 13, 11, 125
20, 80343, Control_c, 13, 11, 126
20, 80350, Note_on_c, 13, 72, 0
20, 80352, Control_c, 13, 11, 127
20, 80352, Control_c, 13, 11, 127
20, 80352, Note_on_c, 13, 74, 105
20, 80360, Control_c, 13, 11, 126
20, 80368, Control_c, 13, 11, 125
20, 80376, Control_c, 13, 11, 124
20, 80384, Control_c, 13, 11, 123
20, 80393, Control_c, 13, 11, 122
20, 80401, Control_c, 13, 11, 121
20, 80409, Control_c, 13, 11, 120
20, 80417, Control_c, 13, 11, 119
20, 80426, Control_c, 13, 11, 118
20, 80434, Control_c, 13, 11, 117
20, 80442, Control_c, 13, 11, 116
20, 80446, Note_on_c, 13, 74, 0
20, 80448, Note_on_c, 13, 72, 109
20, 80450, Control_c, 13, 11, 115
20, 80458, Control_c, 13, 11, 114
20, 80467, Control_c, 13, 11, 113
20, 80475, Control_c, 13, 11, 112
20, 80483, Control_c, 13, 11, 111
20, 80491, Control_c, 13, 11, 110
20, 80500, Control_c, 13, 11, 109
20, 80508, Control_c, 13, 11, 108
20, 80516, Control_c, 13, 11, 107
20, 80524, Control_c, 13, 11, 106
20, 80533, Control_c, 13, 11, 105
20, 80541, Control_c, 13, 11, 104
20, 80549, Control_c, 13, 11, 103
20, 80557, Control_c, 13, 11, 102
20, 80565, Control_c, 13, 11, 101
20, 80574, Control_c, 13, 11, 100
20, 80582, Control_c, 13, 11, 99
20, 80590, Note_on_c, 13, 72, 0
20, 80590, Control_c, 13, 11, 98
20, 80592, Note_on_c, 13, 62, 106
20, 80598, Control_c, 13, 11, 97
20, 80607, Control_c, 13, 11, 96
20, 80615, Control_c, 13, 11, 95
20, 80623, Control_c, 13, 11, 94
20, 80631, Control_c, 13, 11, 93
20, 80638, Note_on_c, 13, 62, 0
20, 80640, Control_c, 13, 11, 92
20, 80640, Note_on_c, 13, 60, 104
20, 80648, Control_c, 13, 11, 93
20, 80656, Control_c, 13, 11, 94
20, 80664, Control_c, 13, 11, 95
20, 80672, Control_c, 13, 11, 96
20, 80681, Control_c, 13, 11, 97
20, 80689, Control_c, 13, 11, 98
20, 80697, Control_c, 13, 11, 99
20, 80705, Control_c, 13, 11, 100
20, 80714, Control_c, 13, 11, 101
20, 80722, Control_c, 13, 11, 102
20, 80730, Control_c, 13, 11, 103
20, 80734, Note_on_c, 13, 60, 0
20, 80736, Note_on_c, 13, 62, 105
20, 80738, Control_c, 13, 11, 104
20, 80746, Control_c, 13, 11, 105
20, 80755, Control_c, 13, 11, 106
20, 80763, Control_c, 13, 11, 107
20, 80771, Control_c, 13, 11, 108
20, 80779, Control_c, 13, 11, 109
20, 80788, Control_c, 13, 11, 110
20, 80796, Control_c, 13, 11, 111
20, 80804, Control_c, 13, 11, 112
20, 80812, Control_c, 13, 11, 113
20, 80821, Control_c, 13, 11, 114
20, 80829, Control_c, 13, 11, 115
20, 80837, Control_c, 13, 11, 116
20, 80845, Control_c, 13, 11, 117
20, 80853, Control_c, 13, 11, 118
20, 80862, Control_c, 13, 11, 119
20, 80870, Control_c, 13, 11, 120
20, 80878, Note_on_c, 13, 62, 0
20, 80878, Control_c, 13, 11, 121
20, 80880, Note_on_c, 13, 72, 106
20, 80886, Control_c, 13, 11, 122
20, 80895, Control_c, 13, 11, 123
20, 80903, Control_c, 13, 11, 124
20, 80911, Control_c, 13, 11, 125
20, 80919, Control_c, 13, 11, 126
20, 80926, Note_on_c, 13, 72, 0
20, 80928, Control_c, 13, 11, 127
20, 80928, Note_on_c, 13, 74, 88
20, 81022, Note_on_c, 13, 74, 0
20, 81024, Note_on_c, 13, 72, 91
20, 81166, Note_on_c, 13, 72, 0
20, 81168, Note_on_c, 13, 62, 91
20, 81214, Note_on_c, 13, 62, 0
20, 81216, Note_on_c, 13, 60, 96
20, 81310, Note_on_c, 13, 60, 0
20, 81312, Note_on_c, 13, 62, 95
20, 81454, Note_on_c, 13, 62, 0
20, 81456, Note_on_c, 13, 72, 82
20, 81502, Note_on_c, 13, 72, 0
20, 81504, Note_on_c, 13, 74, 91
20, 81598, Note_on_c, 13, 74, 0
20, 81600, Note_on_c, 13, 72, 87
20, 81742, Note_on_c, 13, 72, 0
20, 81744, Note_on_c, 13, 62, 80
20, 81790, Note_on_c, 13, 62, 0
20, 81792, Note_on_c, 13, 60, 78
20, 81886, Note_on_c, 13, 60, 0
20, 81888, Note_on_c, 13, 62, 83
20, 82030, Note_on_c, 13, 62, 0
20, 82032, Note_on_c, 13, 72, 73
20, 82078, Note_on_c, 13, 72, 0
20, 82080, Note_on_c, 13, 74, 79
20, 82174, Note_on_c, 13, 74, 0
20, 82176, Note_on_c, 13, 72, 71
20, 82318, Note_on_c, 13, 72, 0
20, 82320, Note_on_c, 13, 62, 65
20, 82366, Note_on_c, 13, 62, 0
20, 82368, Note_on_c, 13, 60, 64
20, 82462, Note_on_c, 13, 60, 0
20, 82464, Note_on_c, 13, 62, 71
20, 82606, Note_on_c, 13, 62, 0
20, 82608, Note_on_c, 13, 72, 64
20, 82654, Note_on_c, 13, 72, 0
20, 82656, Note_on_c, 13, 74, 66
20, 82750, Note_on_c, 13, 74, 0
20, 82752, Note_on_c, 13, 72, 57
20, 82894, Note_on_c, 13, 72, 0
20, 82896, Note_on_c, 13, 62, 52
20, 82942, Note_on_c, 13, 62, 0
20, 82944, Note_on_c, 13, 60, 56
20, 83038, Note_on_c, 13, 60, 0
20, 83040, Note_on_c, 13, 62, 56
20, 83182, Note_on_c, 13, 62, 0
20, 83184, Note_on_c, 13, 72, 45
20, 83230, Note_on_c, 13, 72, 0
20, 83232, Note_on_c, 13, 75, 47
20, 83326, Note_on_c, 13, 75, 0
20, 83328, Note_on_c, 13, 73, 45
20, 83470, Note_on_c, 13, 73, 0
20, 83472, Note_on_c, 13, 63, 41
20, 83518, Note_on_c, 13, 63, 0
20, 83520, Note_on_c, 13, 61, 45
20, 83614, Note_on_c, 13, 61, 0
20, 83616, Note_on_c, 13, 63, 44
20, 83758, Note_on_c, 13, 63, 0
20, 83760, Note_on_c, 13, 73, 43
20, 83806, Note_on_c, 13, 73, 0
20, 83808, Note_on_c, 13, 75, 45
20, 83902, Note_on_c, 13, 75, 0
20, 83904, Note_on_c, 13, 73, 48
20, 84046, Note_on_c, 13, 73, 0
20, 84048, Note_on_c, 13, 63, 48
20, 84094, Note_on_c, 13, 63, 0
20, 84096, Note_on_c, 13, 61, 49
20, 84190, Note_on_c, 13, 61, 0
20, 84192, Note_on_c, 13, 63, 40
20, 84334, Note_on_c, 13, 63, 0
20, 84336, Note_on_c, 13, 73, 41
20, 84382, Note_on_c, 13, 73, 0
20, 84384, Note_on_c, 13, 72, 41
20, 84478, Note_on_c, 13, 72, 0
20, 84480, Note_on_c, 13, 70, 42
20, 84622, Note_on_c, 13, 70, 0
20, 84624, Note_on_c, 13, 60, 42
20, 84670, Note_on_c, 13, 60, 0
20, 84672, Note_on_c, 13, 58, 47
20, 84766, Note_on_c, 13, 58, 0
20, 84768, Note_on_c, 13, 60, 40
20, 84910, Note_on_c, 13, 60, 0
20, 84912, Note_on_c, 13, 72, 38
20, 84958, Note_on_c, 13, 72, 0
20, 84960, Note_on_c, 13, 74, 40
20, 85054, Note_on_c, 13, 74, 0
20, 85056, Note_on_c, 13, 72, 48
20, 85198, Note_on_c, 13, 72, 0
20, 85200, Note_on_c, 13, 62, 44
20, 85246, Note_on_c, 13, 62, 0
20, 85248, Note_on_c, 13, 60, 41
20, 85342, Note_on_c, 13, 60, 0
20, 85536, Note_on_c, 13, 76, 36
20, 85630, Note_on_c, 13, 76, 0
20, 85632, Note_on_c, 13, 74, 42
20, 85774, Note_on_c, 13, 74, 0
20, 85776, Note_on_c, 13, 64, 36
20, 85822, Note_on_c, 13, 64, 0
20, 85824, Note_on_c, 13, 62, 42
20, 85918, Note_on_c, 13, 62, 0
20, 86112, Program_c, 13, 45
20, 86400, Note_on_c, 13, 56, 35
20, 86542, Note_on_c, 13, 56, 0
20, 86544, Note_on_c, 13, 58, 32
20, 86686, Note_on_c, 13, 58, 0
20, 86976, Note_on_c, 13, 56, 34
20, 87118, Note_on_c, 13, 56, 0
20, 87120, Note_on_c, 13, 58, 32
20, 87262, Note_on_c, 13, 58, 0
20, 87552, Note_on_c, 13, 56, 28
20, 87694, Note_on_c, 13, 56, 0
20, 87696, Note_on_c, 13, 58, 26
20, 87838, Note_on_c, 13, 58, 0
20, 88128, Note_on_c, 13, 56, 28
20, 88270, Note_on_c, 13, 56, 0
20, 88272, Note_on_c, 13, 58, 26
20, 88414, Note_on_c, 13, 58, 0
20, 88704, Note_on_c, 13, 54, 32
20, 88960, Note_on_c, 13, 54, 0
20, 89280, Note_on_c, 13, 54, 28
20, 89536, Note_on_c, 13, 54, 0
20, 89856, Program_c, 13, 48
20, 89856, Note_on_c, 13, 70, 35
20, 89950, Note_on_c, 13, 70, 0
20, 89952, Note_on_c, 13, 66, 29
20, 90094, Note_on_c, 13, 66, 0
20, 90096, Note_on_c, 13, 58, 34
20, 90142, Note_on_c, 13, 58, 0
20, 90144, Note_on_c, 13, 58, 33
20, 90238, Note_on_c, 13, 58, 0
20, 90432, Note_on_c, 13, 70, 31
20, 90526, Note_on_c, 13, 70, 0
20, 90528, Note_on_c, 13, 66, 34
20, 90670, Note_on_c, 13, 66, 0
20, 90672, Note_on_c, 13, 58, 29
20, 90718, Note_on_c, 13, 58, 0
20, 90720, Note_on_c, 13, 58, 27
20, 90814, Note_on_c, 13, 58, 0
20, 91008, Note_on_c, 13, 70, 34
20, 91102, Note_on_c, 13, 70, 0
20, 91104, Note_on_c, 13, 66, 32
20, 91246, Note_on_c, 13, 66, 0
20, 91248, Note_on_c, 13, 58, 28
20, 91294, Note_on_c, 13, 58, 0
20, 91296, Note_on_c, 13, 58, 34
20, 91390, Note_on_c, 13, 58, 0
20, 91584, Note_on_c, 13, 70, 28
20, 91678, Note_on_c, 13, 70, 0
20, 91680, Note_on_c, 13, 66, 25
20, 91822, Note_on_c, 13, 66, 0
20, 91824, Note_on_c, 13, 58, 25
20, 91870, Note_on_c, 13, 58, 0
20, 91872, Note_on_c, 13, 58, 28
20, 91918, Note_on_c, 13, 58, 0
20, 92160, Note_on_c, 13, 70, 27
20, 92254, Note_on_c, 13, 70, 0
20, 92256, Note_on_c, 13, 66, 32
20, 92398, Note_on_c, 13, 66, 0
20, 92400, Note_on_c, 13, 58, 29
20, 92446, Note_on_c, 13, 58, 0
20, 92448, Note_on_c, 13, 58, 32
20, 92494, Note_on_c, 13, 58, 0
20, 92736, Note_on_c, 13, 70, 35
20, 92830, Note_on_c, 13, 70, 0
20, 92832, Note_on_c, 13, 66, 32
20, 92974, Note_on_c, 13, 66, 0
20, 92976, Note_on_c, 13, 58, 32
20, 93022, Note_on_c, 13, 58, 0
20, 93024, Note_on_c, 13, 58, 27
20, 93070, Note_on_c, 13, 58, 0
20, 93312, Note_on_c, 13, 70, 34
20, 93406, Note_on_c, 13, 70, 0
20, 93408, Note_on_c, 13, 66, 28
20, 93550, Note_on_c, 13, 66, 0
20, 93552, Note_on_c, 13, 58, 34
20, 93598, Note_on_c, 13, 58, 0
20, 93600, Note_on_c, 13, 58, 29
20, 93646, Note_on_c, 13, 58, 0
20, 94176, Control_c, 13, 11, 92
20, 94176, Note_on_c, 13, 67, 40
20, 94176, Note_on_c, 13, 73, 45
20, 94186, Control_c, 13, 11, 93
20, 94197, Control_c, 13, 11, 94
20, 94208, Control_c, 13, 11, 95
20, 94219, Control_c, 13, 11, 96
20, 94230, Control_c, 13, 11, 97
20, 94238, Note_on_c, 13, 67, 0
20, 94238, Note_on_c, 13, 73, 0
20, 94240, Note_on_c, 13, 61, 40
20, 94240, Note_on_c, 13, 67, 41
20, 94241, Control_c, 13, 11, 98
20, 94252, Control_c, 13, 11, 99
20, 94263, Control_c, 13, 11, 100
20, 94274, Control_c, 13, 11, 101
20, 94285, Control_c, 13, 11, 102
20, 94296, Control_c, 13, 11, 103
20, 94307, Control_c, 13, 11, 104
20, 94318, Control_c, 13, 11, 105
20, 94329, Control_c, 13, 11, 106
20, 94334, Note_on_c, 13, 61, 0
20, 94334, Note_on_c, 13, 67, 0
20, 94336, Note_on_c, 13, 55, 49
20, 94336, Note_on_c, 13, 67, 49
20, 94340, Control_c, 13, 11, 107
20, 94351, Control_c, 13, 11, 108
20, 94362, Control_c, 13, 11, 109
20, 94366, Note_on_c, 13, 55, 0
20, 94366, Note_on_c, 13, 67, 0
20, 94368, Note_on_c, 13, 55, 49
20, 94368, Note_on_c, 13, 67, 41
20, 94373, Control_c, 13, 11, 110
20, 94384, Control_c, 13, 11, 111
20, 94395, Control_c, 13, 11, 112
20, 94406, Control_c, 13, 11, 113
20, 94417, Control_c, 13, 11, 114
20, 94428, Control_c, 13, 11, 115
20, 94430, Note_on_c, 13, 55, 0
20, 94430, Note_on_c, 13, 67, 0
20, 94432, Note_on_c, 13, 61, 47
20, 94432, Note_on_c, 13, 67, 47
20, 94439, Control_c, 13, 11, 116
20, 94450, Control_c, 13, 11, 117
20, 94461, Control_c, 13, 11, 118
20, 94472, Control_c, 13, 11, 119
20, 94483, Control_c, 13, 11, 120
20, 94494, Note_on_c, 13, 61, 0
20, 94494, Note_on_c, 13, 67, 0
20, 94494, Control_c, 13, 11, 121
20, 94496, Note_on_c, 13, 67, 44
20, 94496, Note_on_c, 13, 73, 45
20, 94505, Control_c, 13, 11, 122
20, 94516, Control_c, 13, 11, 123
20, 94527, Control_c, 13, 11, 124
20, 94538, Control_c, 13, 11, 125
20, 94549, Control_c, 13, 11, 126
20, 94558, Note_on_c, 13, 67, 0
20, 94558, Note_on_c, 13, 73, 0
20, 94560, Control_c, 13, 11, 127
20, 94944, Note_on_c, 13, 67, 43
20, 94944, Note_on_c, 13, 73, 41
20, 95006, Note_on_c, 13, 67, 0
20, 95006, Note_on_c, 13, 73, 0
20, 95008, Note_on_c, 13, 61, 42
20, 95008, Note_on_c, 13, 67, 49
20, 95102, Note_on_c, 13, 61, 0
20, 95102, Note_on_c, 13, 67, 0
20, 95104, Note_on_c, 13, 55, 42
20, 95104, Note_on_c, 13, 61, 42
20, 95134, Note_on_c, 13, 55, 0
20, 95134, Note_on_c, 13, 61, 0
20, 95136, Note_on_c, 13, 55, 43
20, 95136, Note_on_c, 13, 61, 47
20, 95198, Note_on_c, 13, 55, 0
20, 95198, Note_on_c, 13, 61, 0
20, 95200, Note_on_c, 13, 61, 40
20, 95200, Note_on_c, 13, 67, 45
20, 95262, Note_on_c, 13, 61, 0
20, 95262, Note_on_c, 13, 67, 0
20, 95264, Note_on_c, 13, 67, 41
20, 95264, Note_on_c, 13, 73, 50
20, 95326, Note_on_c, 13, 67, 0
20, 95326, Note_on_c, 13, 73, 0
20, 96480, Control_c, 13, 11, 64
20, 96480, Note_on_c, 13, 66, 35
20, 96486, Control_c, 13, 11, 65
20, 96492, Control_c, 13, 11, 66
20, 96498, Control_c, 13, 11, 67
20, 96504, Control_c, 13, 11, 68
20, 96510, Control_c, 13, 11, 69
20, 96516, Control_c, 13, 11, 70
20, 96522, Control_c, 13, 11, 71
20, 96528, Control_c, 13, 11, 72
20, 96534, Control_c, 13, 11, 73
20, 96540, Control_c, 13, 11, 74
20, 96547, Control_c, 13, 11, 75
20, 96553, Control_c, 13, 11, 76
20, 96559, Control_c, 13, 11, 77
20, 96565, Control_c, 13, 11, 78
20, 96571, Control_c, 13, 11, 79
20, 96577, Control_c, 13, 11, 80
20, 96583, Control_c, 13, 11, 81
20, 96589, Control_c, 13, 11, 82
20, 96595, Control_c, 13, 11, 83
20, 96601, Control_c, 13, 11, 84
20, 96608, Control_c, 13, 11, 85
20, 96614, Control_c, 13, 11, 86
20, 96620, Control_c, 13, 11, 87
20, 96626, Control_c, 13, 11, 88
20, 96632, Control_c, 13, 11, 89
20, 96638, Control_c, 13, 11, 90
20, 96644, Control_c, 13, 11, 91
20, 96650, Control_c, 13, 11, 92
20, 96656, Control_c, 13, 11, 93
20, 96662, Control_c, 13, 11, 94
20, 96668, Control_c, 13, 11, 95
20, 96675, Control_c, 13, 11, 96
20, 96681, Control_c, 13, 11, 97
20, 96687, Control_c, 13, 11, 98
20, 96693, Control_c, 13, 11, 99
20, 96699, Control_c, 13, 11, 100
20, 96705, Control_c, 13, 11, 101
20, 96711, Control_c, 13, 11, 102
20, 96717, Control_c, 13, 11, 103
20, 96723, Control_c, 13, 11, 104
20, 96729, Control_c, 13, 11, 105
20, 96736, Control_c, 13, 11, 106
20, 96742, Control_c, 13, 11, 107
20, 96748, Control_c, 13, 11, 108
20, 96754, Control_c, 13, 11, 109
20, 96760, Control_c, 13, 11, 110
20, 96766, Control_c, 13, 11, 111
20, 96772, Control_c, 13, 11, 112
20, 96778, Control_c, 13, 11, 113
20, 96784, Control_c, 13, 11, 114
20, 96790, Control_c, 13, 11, 115
20, 96796, Control_c, 13, 11, 116
20, 96803, Control_c, 13, 11, 117
20, 96809, Control_c, 13, 11, 118
20, 96815, Control_c, 13, 11, 119
20, 96821, Control_c, 13, 11, 120
20, 96827, Control_c, 13, 11, 121
20, 96833, Control_c, 13, 11, 122
20, 96839, Control_c, 13, 11, 123
20, 96845, Control_c, 13, 11, 124
20, 96851, Control_c, 13, 11, 125
20, 96857, Control_c, 13, 11, 126
20, 96864, Control_c, 13, 11, 127
20, 99936, Note_on_c, 13, 66, 0
20, 99936, Note_on_c, 13, 64, 31
20, 100512, Note_on_c, 13, 64, 0
20, 100512, Note_on_c, 13, 59, 27
20, 101088, Note_on_c, 13, 59, 0
20, 101088, Note_on_c, 13, 65, 31
20, 103392, Note_on_c, 13, 65, 0
20, 103392, Control_c, 13, 11, 127
20, 103392, Note_on_c, 13, 64, 31
20, 103424, Control_c, 13, 11, 126
20, 103457, Control_c, 13, 11, 125
20, 103490, Control_c, 13, 11, 124
20, 103523, Control_c, 13, 11, 123
20, 103556, Control_c, 13, 11, 122
20, 103589, Control_c, 13, 11, 121
20, 103622, Control_c, 13, 11, 120
20, 103655, Control_c, 13, 11, 119
20, 103688, Control_c, 13, 11, 118
20, 103721, Control_c, 13, 11, 117
20, 103754, Control_c, 13, 11, 116
20, 103786, Control_c, 13, 11, 115
20, 103819, Control_c, 13, 11, 114
20, 103852, Control_c, 13, 11, 113
20, 103885, Control_c, 13, 11, 112
20, 103918, Control_c, 13, 11, 111
20, 103951, Control_c, 13, 11, 110
20, 103984, Control_c, 13, 11, 109
20, 104017, Control_c, 13, 11, 108
20, 104050, Control_c, 13, 11, 107
20, 104083, Control_c, 13, 11, 106
20, 104116, Control_c, 13, 11, 105
20, 104149, Control_c, 13, 11, 104
20, 104181, Control_c, 13, 11, 103
20, 104214, Control_c, 13, 11, 102
20, 104247, Control_c, 13, 11, 101
20, 104280, Control_c, 13, 11, 100
20, 104313, Control_c, 13, 11, 99
20, 104346, Control_c, 13, 11, 98
20, 104379, Control_c, 13, 11, 97
20, 104412, Control_c, 13, 11, 96
20, 104445, Control_c, 13, 11, 95
20, 104478, Control_c, 13, 11, 94
20, 104511, Control_c, 13, 11, 93
20, 104544, Note_on_c, 13, 64, 0
20, 104544, Control_c, 13, 11, 92
20, 104544, Note_on_c, 13, 62, 30
20, 105696, Note_on_c, 13, 62, 0
20, 105696, Control_c, 13, 11, 127
20, 105696, Note_on_c, 13, 64, 18
20, 105728, Control_c, 13, 11, 126
20, 105761, Control_c, 13, 11, 125
20, 105794, Control_c, 13, 11, 124
20, 105827, Control_c, 13, 11, 123
20, 105860, Control_c, 13, 11, 122
20, 105893, Control_c, 13, 11, 121
20, 105926, Control_c, 13, 11, 120
20, 105959, Control_c, 13, 11, 119
20, 105992, Control_c, 13, 11, 118
20, 106025, Control_c, 13, 11, 117
20, 106058, Control_c, 13, 11, 116
20, 106090, Control_c, 13, 11, 115
20, 106123, Control_c, 13, 11, 114
20, 106156, Control_c, 13, 11, 113
20, 106189, Control_c, 13, 11, 112
20, 106222, Control_c, 13, 11, 111
20, 106255, Control_c, 13, 11, 110
20, 106288, Control_c, 13, 11, 109
20, 106321, Control_c, 13, 11, 108
20, 106354, Control_c, 13, 11, 107
20, 106387, Control_c, 13, 11, 106
20, 106420, Control_c, 13, 11, 105
20, 106453, Control_c, 13, 11, 104
20, 106485, Control_c, 13, 11, 103
20, 106518, Control_c, 13, 11, 102
20, 106551, Control_c, 13, 11, 101
20, 106584, Control_c, 13, 11, 100
20, 106617, Control_c, 13, 11, 99
20, 106650, Control_c, 13, 11, 98
20, 106683, Control_c, 13, 11, 97
20, 106716, Control_c, 13, 11, 96
20, 106749, Control_c, 13, 11, 95
20, 106782, Control_c, 13, 11, 94
20, 106815, Control_c, 13, 11, 93
20, 106848, Note_on_c, 13, 64, 0
20, 106848, Control_c, 13, 11, 92
20, 106848, Note_on_c, 13, 62, 20
20, 108160, Note_on_c, 13, 62, 0
20, 110688, Program_c, 13, 44
20, 110688, Control_c, 13, 11, 92
20, 110688, Note_on_c, 13, 70, 102
20, 110698, Control_c, 13, 11, 93
20, 110709, Control_c, 13, 11, 94
20, 110718, Note_on_c, 13, 70, 0
20, 110720, Control_c, 13, 11, 95
20, 110720, Note_on_c, 13, 68, 102
20, 110731, Control_c, 13, 11, 96
20, 110742, Control_c, 13, 11, 97
20, 110750, Note_on_c, 13, 68, 0
20, 110752, Note_on_c, 13, 65, 104
20, 110753, Control_c, 13, 11, 98
20, 110764, Control_c, 13, 11, 99
20, 110775, Control_c, 13, 11, 100
20, 110782, Note_on_c, 13, 65, 0
20, 110784, Note_on_c, 13, 70, 95
20, 110786, Control_c, 13, 11, 101
20, 110797, Control_c, 13, 11, 102
20, 110808, Control_c, 13, 11, 103
20, 110814, Note_on_c, 13, 70, 0
20, 110816, Note_on_c, 13, 68, 99
20, 110819, Control_c, 13, 11, 104
20, 110830, Control_c, 13, 11, 105
20, 110841, Control_c, 13, 11, 106
20, 110846, Note_on_c, 13, 68, 0
20, 110848, Note_on_c, 13, 65, 98
20, 110852, Control_c, 13, 11, 107
20, 110863, Control_c, 13, 11, 108
20, 110874, Control_c, 13, 11, 109
20, 110878, Note_on_c, 13, 65, 0
20, 110880, Note_on_c, 13, 70, 103
20, 110885, Control_c, 13, 11, 110
20, 110896, Control_c, 13, 11, 111
20, 110907, Control_c, 13, 11, 112
20, 110910, Note_on_c, 13, 70, 0
20, 110912, Note_on_c, 13, 68, 100
20, 110918, Control_c, 13, 11, 113
20, 110929, Control_c, 13, 11, 114
20, 110940, Control_c, 13, 11, 115
20, 110942, Note_on_c, 13, 68, 0
20, 110944, Note_on_c, 13, 65, 97
20, 110951, Control_c, 13, 11, 116
20, 110962, Control_c, 13, 11, 117
20, 110973, Control_c, 13, 11, 118
20, 110974, Note_on_c, 13, 65, 0
20, 110976, Note_on_c, 13, 70, 96
20, 110984, Control_c, 13, 11, 119
20, 110995, Control_c, 13, 11, 120
20, 111006, Note_on_c, 13, 70, 0
20, 111006, Control_c, 13, 11, 121
20, 111008, Note_on_c, 13, 68, 98
20, 111017, Control_c, 13, 11, 122
20, 111028, Control_c, 13, 11, 123
20, 111038, Note_on_c, 13, 68, 0
20, 111039, Control_c, 13, 11, 124
20, 111040, Note_on_c, 13, 65, 96
20, 111050, Control_c, 13, 11, 125
20, 111061, Control_c, 13, 11, 126
20, 111070, Note_on_c, 13, 65, 0
20, 111072, Control_c, 13, 11, 127
20, 111072, Program_c, 13, 48
20, 111072, Control_c, 13, 11, 127
20, 111072, Note_on_c, 13, 70, 100
20, 111073, Control_c, 13, 11, 126
20, 111075, Control_c, 13, 11, 125
20, 111076, Control_c, 13, 11, 124
20, 111078, Control_c, 13, 11, 123
20, 111079, Control_c, 13, 11, 122
20, 111081, Control_c, 13, 11, 121
20, 111082, Control_c, 13, 11, 120
20, 111084, Control_c, 13, 11, 119
20, 111085, Control_c, 13, 11, 118
20, 111087, Control_c, 13, 11, 117
20, 111088, Control_c, 13, 11, 116
20, 111090, Control_c, 13, 11, 115
20, 111091, Control_c, 13, 11, 114
20, 111093, Control_c, 13, 11, 113
20, 111094, Control_c, 13, 11, 112
20, 111096, Control_c, 13, 11, 111
20, 111097, Control_c, 13, 11, 110
20, 111099, Control_c, 13, 11, 109
20, 111100, Control_c, 13, 11, 108
20, 111102, Control_c, 13, 11, 107
20, 111104, Control_c, 13, 11, 106
20, 111105, Control_c, 13, 11, 105
20, 111107, Control_c, 13, 11, 104
20, 111108, Control_c, 13, 11, 103
20, 111110, Control_c, 13, 11, 102
20, 111111, Control_c, 13, 11, 101
20, 111113, Control_c, 13, 11, 100
20, 111114, Control_c, 13, 11, 99
20, 111116, Control_c, 13, 11, 98
20, 111117, Control_c, 13, 11, 97
20, 111119, Control_c, 13, 11, 96
20, 111120, Control_c, 13, 11, 95
20, 111122, Control_c, 13, 11, 94
20, 111123, Control_c, 13, 11, 93
20, 111125, Control_c, 13, 11, 92
20, 111126, Control_c, 13, 11, 91
20, 111128, Control_c, 13, 11, 90
20, 111129, Control_c, 13, 11, 89
20, 111131, Control_c, 13, 11, 88
20, 111132, Control_c, 13, 11, 87
20, 111134, Control_c, 13, 11, 86
20, 111136, Control_c, 13, 11, 85
20, 111137, Control_c, 13, 11, 84
20, 111139, Control_c, 13, 11, 83
20, 111140, Control_c, 13, 11, 82
20, 111142, Control_c, 13, 11, 81
20, 111143, Control_c, 13, 11, 80
20, 111145, Control_c, 13, 11, 79
20, 111146, Control_c, 13, 11, 78
20, 111148, Control_c, 13, 11, 77
20, 111149, Control_c, 13, 11, 76
20, 111151, Control_c, 13, 11, 75
20, 111152, Control_c, 13, 11, 74
20, 111154, Control_c, 13, 11, 73
20, 111155, Control_c, 13, 11, 72
20, 111157, Control_c, 13, 11, 71
20, 111158, Control_c, 13, 11, 70
20, 111160, Control_c, 13, 11, 69
20, 111161, Control_c, 13, 11, 68
20, 111163, Control_c, 13, 11, 67
20, 111164, Control_c, 13, 11, 66
20, 111166, Note_on_c, 13, 70, 0
20, 111166, Control_c, 13, 11, 65
20, 111168, Control_c, 13, 11, 64
20, 111456, Program_c, 13, 44
20, 111456, Control_c, 13, 11, 92
20, 111456, Note_on_c, 13, 70, 103
20, 111466, Control_c, 13, 11, 93
20, 111477, Control_c, 13, 11, 94
20, 111486, Note_on_c, 13, 70, 0
20, 111488, Control_c, 13, 11, 95
20, 111488, Note_on_c, 13, 68, 98
20, 111499, Control_c, 13, 11, 96
20, 111510, Control_c, 13, 11, 97
20, 111518, Note_on_c, 13, 68, 0
20, 111520, Note_on_c, 13, 65, 98
20, 111521, Control_c, 13, 11, 98
20, 111532, Control_c, 13, 11, 99
20, 111543, Control_c, 13, 11, 100
20, 111550, Note_on_c, 13, 65, 0
20, 111552, Note_on_c, 13, 70, 105
20, 111554, Control_c, 13, 11, 101
20, 111565, Control_c, 13, 11, 102
20, 111576, Control_c, 13, 11, 103
20, 111582, Note_on_c, 13, 70, 0
20, 111584, Note_on_c, 13, 68, 99
20, 111587, Control_c, 13, 11, 104
20, 111598, Control_c, 13, 11, 105
20, 111609, Control_c, 13, 11, 106
20, 111614, Note_on_c, 13, 68, 0
20, 111616, Note_on_c, 13, 65, 104
20, 111620, Control_c, 13, 11, 107
20, 111631, Control_c, 13, 11, 108
20, 111642, Control_c, 13, 11, 109
20, 111646, Note_on_c, 13, 65, 0
20, 111648, Note_on_c, 13, 70, 95
20, 111653, Control_c, 13, 11, 110
20, 111664, Control_c, 13, 11, 111
20, 111675, Control_c, 13, 11, 112
20, 111678, Note_on_c, 13, 70, 0
20, 111680, Note_on_c, 13, 68, 101
20, 111686, Control_c, 13, 11, 113
20, 111697, Control_c, 13, 11, 114
20, 111708, Control_c, 13, 11, 115
20, 111710, Note_on_c, 13, 68, 0
20, 111712, Note_on_c, 13, 65, 104
20, 111719, Control_c, 13, 11, 116
20, 111730, Control_c, 13, 11, 117
20, 111741, Control_c, 13, 11, 118
20, 111742, Note_on_c, 13, 65, 0
20, 111744, Note_on_c, 13, 70, 96
20, 111752, Control_c, 13, 11, 119
20, 111763, Control_c, 13, 11, 120
20, 111774, Note_on_c, 13, 70, 0
20, 111774, Control_c, 13, 11, 121
20, 111776, Note_on_c, 13, 68, 95
20, 111785, Control_c, 13, 11, 122
20, 111796, Control_c, 13, 11, 123
20, 111806, Note_on_c, 13, 68, 0
20, 111807, Control_c, 13, 11, 124
20, 111808, Note_on_c, 13, 65, 101
20, 111818, Control_c, 13, 11, 125
20, 111829, Control_c, 13, 11, 126
20, 111838, Note_on_c, 13, 65, 0
20, 111840, Control_c, 13, 11, 127
20, 111840, Control_c, 13, 11, 92
20, 111840, Note_on_c, 13, 70, 127
20, 111850, Control_c, 13, 11, 93
20, 111861, Control_c, 13, 11, 94
20, 111872, Control_c, 13, 11, 95
20, 111883, Control_c, 13, 11, 96
20, 111894, Control_c, 13, 11, 97
20, 111905, Control_c, 13, 11, 98
20, 111916, Control_c, 13, 11, 99
20, 111927, Control_c, 13, 11, 100
20, 111934, Note_on_c, 13, 70, 0
20, 111936, Note_on_c, 13, 68, 127
20, 111938, Control_c, 13, 11, 101
20, 111949, Control_c, 13, 11, 102
20, 111960, Control_c, 13, 11, 103
20, 111971, Control_c, 13, 11, 104
20, 111982, Control_c, 13, 11, 105
20, 111993, Control_c, 13, 11, 106
20, 112004, Control_c, 13, 11, 107
20, 112015, Control_c, 13, 11, 108
20, 112026, Control_c, 13, 11, 109
20, 112030, Note_on_c, 13, 68, 0
20, 112032, Note_on_c, 13, 65, 126
20, 112037, Control_c, 13, 11, 110
20, 112048, Control_c, 13, 11, 111
20, 112059, Control_c, 13, 11, 112
20, 112070, Control_c, 13, 11, 113
20, 112081, Control_c, 13, 11, 114
20, 112092, Control_c, 13, 11, 115
20, 112103, Control_c, 13, 11, 116
20, 112114, Control_c, 13, 11, 117
20, 112125, Control_c, 13, 11, 118
20, 112126, Note_on_c, 13, 65, 0
20, 112128, Note_on_c, 13, 70, 126
20, 112136, Control_c, 13, 11, 119
20, 112147, Control_c, 13, 11, 120
20, 112158, Control_c, 13, 11, 121
20, 112169, Control_c, 13, 11, 122
20, 112180, Control_c, 13, 11, 123
20, 112191, Control_c, 13, 11, 124
20, 112202, Control_c, 13, 11, 125
20, 112213, Control_c, 13, 11, 126
20, 112222, Note_on_c, 13, 70, 0
20, 112224, Control_c, 13, 11, 127
20, 112224, Control_c, 13, 11, 92
20, 112224, Note_on_c, 13, 68, 127
20, 112234, Control_c, 13, 11, 93
20, 112245, Control_c, 13, 11, 94
20, 112256, Control_c, 13, 11, 95
20, 112267, Control_c, 13, 11, 96
20, 112278, Control_c, 13, 11, 97
20, 112289, Control_c, 13, 11, 98
20, 112300, Control_c, 13, 11, 99
20, 112311, Control_c, 13, 11, 100
20, 112318, Note_on_c, 13, 68, 0
20, 112320, Note_on_c, 13, 65, 123
20, 112322, Control_c, 13, 11, 101
20, 112333, Control_c, 13, 11, 102
20, 112344, Control_c, 13, 11, 103
20, 112355, Control_c, 13, 11, 104
20, 112366, Control_c, 13, 11, 105
20, 112377, Control_c, 13, 11, 106
20, 112388, Control_c, 13, 11, 107
20, 112399, Control_c, 13, 11, 108
20, 112410, Control_c, 13, 11, 109
20, 112414, Note_on_c, 13, 65, 0
20, 112416, Note_on_c, 13, 70, 124
20, 112421, Control_c, 13, 11, 110
20, 112432, Control_c, 13, 11, 111
20, 112443, Control_c, 13, 11, 112
20, 112454, Control_c, 13, 11, 113
20, 112465, Control_c, 13, 11, 114
20, 112476, Control_c, 13, 11, 115
20, 112487, Control_c, 13, 11, 116
20, 112498, Control_c, 13, 11, 117
20, 112509, Control_c, 13, 11, 118
20, 112510, Note_on_c, 13, 70, 0
20, 112512, Note_on_c, 13, 68, 127
20, 112520, Control_c, 13, 11, 119
20, 112531, Control_c, 13, 11, 120
20, 112542, Control_c, 13, 11, 121
20, 112553, Control_c, 13, 11, 122
20, 112564, Control_c, 13, 11, 123
20, 112575, Control_c, 13, 11, 124
20, 112586, Control_c, 13, 11, 125
20, 112597, Control_c, 13, 11, 126
20, 112606, Note_on_c, 13, 68, 0
20, 112608, Control_c, 13, 11, 127
20, 112992, Control_c, 13, 11, 75
20, 112992, Note_on_c, 13, 63, 127
20, 112993, Control_c, 13, 11, 76
20, 112995, Control_c, 13, 11, 77
20, 112997, Control_c, 13, 11, 78
20, 112999, Control_c, 13, 11, 79
20, 113001, Control_c, 13, 11, 80
20, 113003, Control_c, 13, 11, 81
20, 113004, Control_c, 13, 11, 82
20, 113006, Control_c, 13, 11, 83
20, 113008, Control_c, 13, 11, 84
20, 113010, Control_c, 13, 11, 85
20, 113012, Control_c, 13, 11, 86
20, 113014, Control_c, 13, 11, 87
20, 113016, Control_c, 13, 11, 88
20, 113017, Control_c, 13, 11, 89
20, 113019, Control_c, 13, 11, 90
20, 113021, Control_c, 13, 11, 91
20, 113023, Control_c, 13, 11, 92
20, 113025, Control_c, 13, 11, 93
20, 113027, Control_c, 13, 11, 94
20, 113028, Control_c, 13, 11, 95
20, 113030, Control_c, 13, 11, 96
20, 113032, Control_c, 13, 11, 97
20, 113034, Control_c, 13, 11, 98
20, 113036, Control_c, 13, 11, 99
20, 113038, Control_c, 13, 11, 100
20, 113040, Control_c, 13, 11, 101
20, 113041, Control_c, 13, 11, 102
20, 113043, Control_c, 13, 11, 103
20, 113045, Control_c, 13, 11, 104
20, 113047, Control_c, 13, 11, 105
20, 113049, Control_c, 13, 11, 106
20, 113051, Control_c, 13, 11, 107
20, 113052, Control_c, 13, 11, 108
20, 113054, Control_c, 13, 11, 109
20, 113056, Control_c, 13, 11, 110
20, 113058, Control_c, 13, 11, 111
20, 113060, Control_c, 13, 11, 112
20, 113062, Control_c, 13, 11, 113
20, 113064, Control_c, 13, 11, 114
20, 113065, Control_c, 13, 11, 115
20, 113067, Control_c, 13, 11, 116
20, 113069, Control_c, 13, 11, 117
20, 113071, Control_c, 13, 11, 118
20, 113073, Control_c, 13, 11, 119
20, 113075, Control_c, 13, 11, 120
20, 113076, Control_c, 13, 11, 121
20, 113078, Control_c, 13, 11, 122
20, 113080, Control_c, 13, 11, 123
20, 113082, Control_c, 13, 11, 124
20, 113084, Control_c, 13, 11, 125
20, 113086, Control_c, 13, 11, 126
20, 113088, Control_c, 13, 11, 127
20, 113089, Control_c, 13, 11, 126
20, 113091, Control_c, 13, 11, 125
20, 113093, Control_c, 13, 11, 124
20, 113095, Control_c, 13, 11, 123
20, 113097, Control_c, 13, 11, 122
20, 113099, Control_c, 13, 11, 121
20, 113100, Control_c, 13, 11, 120
20, 113102, Control_c, 13, 11, 119
20, 113104, Control_c, 13, 11, 118
20, 113106, Control_c, 13, 11, 117
20, 113108, Control_c, 13, 11, 116
20, 113110, Control_c, 13, 11, 115
20, 113112, Control_c, 13, 11, 114
20, 113113, Control_c, 13, 11, 113
20, 113115, Control_c, 13, 11, 112
20, 113117, Control_c, 13, 11, 111
20, 113119, Control_c, 13, 11, 110
20, 113121, Control_c, 13, 11, 109
20, 113123, Control_c, 13, 11, 108
20, 113124, Control_c, 13, 11, 107
20, 113126, Control_c, 13, 11, 106
20, 113128, Control_c, 13, 11, 105
20, 113130, Control_c, 13, 11, 104
20, 113132, Control_c, 13, 11, 103
20, 113134, Control_c, 13, 11, 102
20, 113136, Control_c, 13, 11, 101
20, 113137, Control_c, 13, 11, 100
20, 113139, Control_c, 13, 11, 99
20, 113141, Control_c, 13, 11, 98
20, 113143, Control_c, 13, 11, 97
20, 113145, Control_c, 13, 11, 96
20, 113147, Control_c, 13, 11, 95
20, 113148, Control_c, 13, 11, 94
20, 113150, Control_c, 13, 11, 93
20, 113152, Note_on_c, 13, 63, 0
20, 113152, Control_c, 13, 11, 92
20, 113154, Control_c, 13, 11, 91
20, 113156, Control_c, 13, 11, 90
20, 113158, Control_c, 13, 11, 89
20, 113160, Control_c, 13, 11, 88
20, 113161, Control_c, 13, 11, 87
20, 113163, Control_c, 13, 11, 86
20, 113165, Control_c, 13, 11, 85
20, 113167, Control_c, 13, 11, 84
20, 113169, Control_c, 13, 11, 83
20, 113171, Control_c, 13, 11, 82
20, 113172, Control_c, 13, 11, 81
20, 113174, Control_c, 13, 11, 80
20, 113176, Control_c, 13, 11, 79
20, 113178, Control_c, 13, 11, 78
20, 113180, Control_c, 13, 11, 77
20, 113182, Control_c, 13, 11, 76
20, 113184, Control_c, 13, 11, 75
20, 113184, Control_c, 13, 11, 75
20, 113184, Note_on_c, 13, 61, 127
20, 113185, Control_c, 13, 11, 76
20, 113187, Control_c, 13, 11, 77
20, 113189, Control_c, 13, 11, 78
20, 113191, Control_c, 13, 11, 79
20, 113193, Control_c, 13, 11, 80
20, 113195, Control_c, 13, 11, 81
20, 113196, Control_c, 13, 11, 82
20, 113198, Control_c, 13, 11, 83
20, 113200, Control_c, 13, 11, 84
20, 113202, Control_c, 13, 11, 85
20, 113204, Control_c, 13, 11, 86
20, 113206, Control_c, 13, 11, 87
20, 113208, Control_c, 13, 11, 88
20, 113209, Control_c, 13, 11, 89
20, 113211, Control_c, 13, 11, 90
20, 113213, Control_c, 13, 11, 91
20, 113215, Control_c, 13, 11, 92
20, 113217, Control_c, 13, 11, 93
20, 113219, Control_c, 13, 11, 94
20, 113220, Control_c, 13, 11, 95
20, 113222, Control_c, 13, 11, 96
20, 113224, Control_c, 13, 11, 97
20, 113226, Control_c, 13, 11, 98
20, 113228, Control_c, 13, 11, 99
20, 113230, Control_c, 13, 11, 100
20, 113232, Control_c, 13, 11, 101
20, 113233, Control_c, 13, 11, 102
20, 113235, Control_c, 13, 11, 103
20, 113237, Control_c, 13, 11, 104
20, 113239, Control_c, 13, 11, 105
20, 113241, Control_c, 13, 11, 106
20, 113243, Control_c, 13, 11, 107
20, 113244, Control_c, 13, 11, 108
20, 113246, Control_c, 13, 11, 109
20, 113248, Control_c, 13, 11, 110
20, 113250, Control_c, 13, 11, 111
20, 113252, Control_c, 13, 11, 112
20, 113254, Control_c, 13, 11, 113
20, 113256, Control_c, 13, 11, 114
20, 113257, Control_c, 13, 11, 115
20, 113259, Control_c, 13, 11, 116
20, 113261, Control_c, 13, 11, 117
20, 113263, Control_c, 13, 11, 118
20, 113265, Control_c, 13, 11, 119
20, 113267, Control_c, 13, 11, 120
20, 113268, Control_c, 13, 11, 121
20, 113270, Control_c, 13, 11, 122
20, 113272, Control_c, 13, 11, 123
20, 113274, Control_c, 13, 11, 124
20, 113276, Control_c, 13, 11, 125
20, 113278, Control_c, 13, 11, 126
20, 113280, Control_c, 13, 11, 127
20, 113281, Control_c, 13, 11, 126
20, 113283, Control_c, 13, 11, 125
20, 113285, Control_c, 13, 11, 124
20, 113287, Control_c, 13, 11, 123
20, 113289, Control_c, 13, 11, 122
20, 113291, Control_c, 13, 11, 121
20, 113292, Control_c, 13, 11, 120
20, 113294, Control_c, 13, 11, 119
20, 113296, Control_c, 13, 11, 118
20, 113298, Control_c, 13, 11, 117
20, 113300, Control_c, 13, 11, 116
20, 113302, Control_c, 13, 11, 115
20, 113304, Control_c, 13, 11, 114
20, 113305, Control_c, 13, 11, 113
20, 113307, Control_c, 13, 11, 112
20, 113309, Control_c, 13, 11, 111
20, 113311, Control_c, 13, 11, 110
20, 113313, Control_c, 13, 11, 109
20, 113315, Control_c, 13, 11, 108
20, 113316, Control_c, 13, 11, 107
20, 113318, Control_c, 13, 11, 106
20, 113320, Control_c, 13, 11, 105
20, 113322, Control_c, 13, 11, 104
20, 113324, Control_c, 13, 11, 103
20, 113326, Control_c, 13, 11, 102
20, 113328, Control_c, 13, 11, 101
20, 113329, Control_c, 13, 11, 100
20, 113331, Control_c, 13, 11, 99
20, 113333, Control_c, 13, 11, 98
20, 113335, Control_c, 13, 11, 97
20, 113337, Control_c, 13, 11, 96
20, 113339, Control_c, 13, 11, 95
20, 113340, Control_c, 13, 11, 94
20, 113342, Control_c, 13, 11, 93
20, 113344, Note_on_c, 13, 61, 0
20, 113344, Control_c, 13, 11, 92
20, 113346, Control_c, 13, 11, 91
20, 113348, Control_c, 13, 11, 90
20, 113350, Control_c, 13, 11, 89
20, 113352, Control_c, 13, 11, 88
20, 113353, Control_c, 13, 11, 87
20, 113355, Control_c, 13, 11, 86
20, 113357, Control_c, 13, 11, 85
20, 113359, Control_c, 13, 11, 84
20, 113361, Control_c, 13, 11, 83
20, 113363, Control_c, 13, 11, 82
20, 113364, Control_c, 13, 11, 81
20, 113366, Control_c, 13, 11, 80
20, 113368, Control_c, 13, 11, 79
20, 113370, Control_c, 13, 11, 78
20, 113372, Control_c, 13, 11, 77
20, 113374, Control_c, 13, 11, 76
20, 113376, Control_c, 13, 11, 75
20, 113376, Control_c, 13, 11, 75
20, 113376, Note_on_c, 13, 58, 125
20, 113377, Control_c, 13, 11, 76
20, 113379, Control_c, 13, 11, 77
20, 113381, Control_c, 13, 11, 78
20, 113383, Control_c, 13, 11, 79
20, 113385, Control_c, 13, 11, 80
20, 113387, Control_c, 13, 11, 81
20, 113388, Control_c, 13, 11, 82
20, 113390, Control_c, 13, 11, 83
20, 113392, Control_c, 13, 11, 84
20, 113394, Control_c, 13, 11, 85
20, 113396, Control_c, 13, 11, 86
20, 113398, Control_c, 13, 11, 87
20, 113400, Control_c, 13, 11, 88
20, 113401, Control_c, 13, 11, 89
20, 113403, Control_c, 13, 11, 90
20, 113405, Control_c, 13, 11, 91
20, 113407, Control_c, 13, 11, 92
20, 113409, Control_c, 13, 11, 93
20, 113411, Control_c, 13, 11, 94
20, 113412, Control_c, 13, 11, 95
20, 113414, Control_c, 13, 11, 96
20, 113416, Control_c, 13, 11, 97
20, 113418, Control_c, 13, 11, 98
20, 113420, Control_c, 13, 11, 99
20, 113422, Control_c, 13, 11, 100
20, 113424, Control_c, 13, 11, 101
20, 113425, Control_c, 13, 11, 102
20, 113427, Control_c, 13, 11, 103
20, 113429, Control_c, 13, 11, 104
20, 113431, Control_c, 13, 11, 105
20, 113433, Control_c, 13, 11, 106
20, 113435, Control_c, 13, 11, 107
20, 113436, Control_c, 13, 11, 108
20, 113438, Control_c, 13, 11, 109
20, 113440, Control_c, 13, 11, 110
20, 113442, Control_c, 13, 11, 111
20, 113444, Control_c, 13, 11, 112
20, 113446, Control_c, 13, 11, 113
20, 113448, Control_c, 13, 11, 114
20, 113449, Control_c, 13, 11, 115
20, 113451, Control_c, 13, 11, 116
20, 113453, Control_c, 13, 11, 117
20, 113455, Control_c, 13, 11, 118
20, 113457, Control_c, 13, 11, 119
20, 113459, Control_c, 13, 11, 120
20, 113460, Control_c, 13, 11, 121
20, 113462, Control_c, 13, 11, 122
20, 113464, Control_c, 13, 11, 123
20, 113466, Control_c, 13, 11, 124
20, 113468, Control_c, 13, 11, 125
20, 113470, Control_c, 13, 11, 126
20, 113472, Control_c, 13, 11, 127
20, 113474, Control_c, 13, 11, 126
20, 113476, Control_c, 13, 11, 125
20, 113478, Control_c, 13, 11, 124
20, 113481, Control_c, 13, 11, 123
20, 113483, Control_c, 13, 11, 122
20, 113485, Control_c, 13, 11, 121
20, 113487, Control_c, 13, 11, 120
20, 113490, Control_c, 13, 11, 119
20, 113492, Control_c, 13, 11, 118
20, 113494, Control_c, 13, 11, 117
20, 113496, Control_c, 13, 11, 116
20, 113499, Control_c, 13, 11, 115
20, 113501, Control_c, 13, 11, 114
20, 113503, Control_c, 13, 11, 113
20, 113506, Control_c, 13, 11, 112
20, 113508, Control_c, 13, 11, 111
20, 113510, Control_c, 13, 11, 110
20, 113512, Control_c, 13, 11, 109
20, 113515, Control_c, 13, 11, 108
20, 113517, Control_c, 13, 11, 107
20, 113519, Control_c, 13, 11, 106
20, 113521, Control_c, 13, 11, 105
20, 113524, Control_c, 13, 11, 104
20, 113526, Control_c, 13, 11, 103
20, 113528, Control_c, 13, 11, 102
20, 113530, Control_c, 13, 11, 101
20, 113533, Control_c, 13, 11, 100
20, 113535, Control_c, 13, 11, 99
20, 113537, Control_c, 13, 11, 98
20, 113540, Control_c, 13, 11, 97
20, 113542, Control_c, 13, 11, 96
20, 113544, Control_c, 13, 11, 95
20, 113546, Control_c, 13, 11, 94
20, 113549, Control_c, 13, 11, 93
20, 113551, Control_c, 13, 11, 92
20, 113553, Control_c, 13, 11, 91
20, 113555, Control_c, 13, 11, 90
20, 113558, Control_c, 13, 11, 89
20, 113560, Control_c, 13, 11, 88
20, 113562, Control_c, 13, 11, 87
20, 113564, Control_c, 13, 11, 86
20, 113567, Control_c, 13, 11, 85
20, 113568, Program_c, 13, 48
20, 113569, Control_c, 13, 11, 84
20, 113571, Control_c, 13, 11, 83
20, 113574, Control_c, 13, 11, 82
20, 113576, Control_c, 13, 11, 81
20, 113578, Control_c, 13, 11, 80
20, 113580, Control_c, 13, 11, 79
20, 113583, Control_c, 13, 11, 78
20, 113585, Control_c, 13, 11, 77
20, 113587, Control_c, 13, 11, 76
20, 113589, Control_c, 13, 11, 75
20, 113592, Control_c, 13, 11, 74
20, 113594, Control_c, 13, 11, 73
20, 113596, Control_c, 13, 11, 72
20, 113598, Control_c, 13, 11, 71
20, 113601, Control_c, 13, 11, 70
20, 113603, Control_c, 13, 11, 69
20, 113605, Control_c, 13, 11, 68
20, 113608, Control_c, 13, 11, 67
20, 113610, Control_c, 13, 11, 66
20, 113612, Control_c, 13, 11, 65
20, 113614, Control_c, 13, 11, 64
20, 113617, Control_c, 13, 11, 63
20, 113619, Control_c, 13, 11, 62
20, 113621, Control_c, 13, 11, 61
20, 113623, Control_c, 13, 11, 60
20, 113626, Control_c, 13, 11, 59
20, 113628, Control_c, 13, 11, 58
20, 113630, Control_c, 13, 11, 57
20, 113633, Control_c, 13, 11, 56
20, 113635, Control_c, 13, 11, 55
20, 113637, Control_c, 13, 11, 54
20, 113639, Control_c, 13, 11, 53
20, 113642, Control_c, 13, 11, 52
20, 113644, Control_c, 13, 11, 51
20, 113646, Control_c, 13, 11, 50
20, 113648, Control_c, 13, 11, 49
20, 113651, Control_c, 13, 11, 48
20, 113653, Control_c, 13, 11, 47
20, 113655, Control_c, 13, 11, 46
20, 113657, Control_c, 13, 11, 45
20, 113660, Control_c, 13, 11, 44
20, 113662, Control_c, 13, 11, 43
20, 113664, Control_c, 13, 11, 42
20, 113667, Control_c, 13, 11, 41
20, 113669, Control_c, 13, 11, 40
20, 113671, Control_c, 13, 11, 39
20, 113673, Control_c, 13, 11, 38
20, 113676, Control_c, 13, 11, 37
20, 113678, Control_c, 13, 11, 36
20, 113680, Control_c, 13, 11, 35
20, 113682, Control_c, 13, 11, 34
20, 113685, Control_c, 13, 11, 33
20, 113687, Control_c, 13, 11, 32
20, 113689, Control_c, 13, 11, 31
20, 113691, Control_c, 13, 11, 30
20, 113694, Control_c, 13, 11, 29
20, 113696, Control_c, 13, 11, 28
20, 113698, Control_c, 13, 11, 27
20, 113701, Control_c, 13, 11, 26
20, 113703, Control_c, 13, 11, 25
20, 113705, Control_c, 13, 11, 24
20, 113707, Control_c, 13, 11, 23
20, 113710, Control_c, 13, 11, 22
20, 113712, Control_c, 13, 11, 21
20, 113714, Control_c, 13, 11, 20
20, 113716, Control_c, 13, 11, 19
20, 113719, Control_c, 13, 11, 18
20, 113721, Control_c, 13, 11, 17
20, 113723, Control_c, 13, 11, 16
20, 113725, Control_c, 13, 11, 15
20, 113728, Note_on_c, 13, 58, 0
20, 113728, Control_c, 13, 11, 14
20, 113730, Control_c, 13, 11, 13
20, 113732, Control_c, 13, 11, 12
20, 113735, Control_c, 13, 11, 11
20, 113737, Control_c, 13, 11, 10
20, 113739, Control_c, 13, 11, 9
20, 113741, Control_c, 13, 11, 8
20, 113744, Control_c, 13, 11, 7
20, 113746, Control_c, 13, 11, 6
20, 113748, Control_c, 13, 11, 5
20, 113750, Control_c, 13, 11, 4
20, 113753, Control_c, 13, 11, 3
20, 113755, Control_c, 13, 11, 2
20, 113757, Control_c, 13, 11, 1
20, 113760, Control_c, 13, 11, 0
20, 113760, End_track
21, 0, Start_track
21, 0, Title_t, "Viole II"
21, 0, MIDI_port, 0
21, 177, Control_c, 13, 0, 0
21, 178, Control_c, 13, 32, 0
21, 179, Program_c, 13, 48
21, 180, Control_c, 13, 7, 127
21, 181, Control_c, 13, 91, 127
21, 5568, Note_on_c, 13, 49, 29
21, 6144, Note_on_c, 13, 49, 0
21, 6144, Note_on_c, 13, 54, 28
21, 6528, Note_on_c, 13, 54, 0
21, 6528, Note_on_c, 13, 56, 28
21, 6912, Note_on_c, 13, 56, 0
21, 6912, Note_on_c, 13, 59, 29
21, 7296, Note_on_c, 13, 59, 0
21, 7296, Note_on_c, 13, 61, 32
21, 7680, Note_on_c, 13, 61, 0
21, 7680, Note_on_c, 13, 66, 26
21, 8064, Note_on_c, 13, 66, 0
21, 23424, Program_c, 13, 44
21, 23424, Note_on_c, 13, 54, 61
21, 23712, Note_on_c, 13, 54, 0
21, 23712, Note_on_c, 13, 56, 59
21, 24000, Note_on_c, 13, 56, 0
21, 24000, Note_on_c, 13, 54, 59
21, 24288, Note_on_c, 13, 54, 0
21, 24288, Note_on_c, 13, 56, 62
21, 24576, Note_on_c, 13, 56, 0
21, 24576, Note_on_c, 13, 54, 62
21, 24864, Note_on_c, 13, 54, 0
21, 24864, Note_on_c, 13, 56, 63
21, 25152, Note_on_c, 13, 56, 0
21, 25152, Note_on_c, 13, 54, 62
21, 25440, Note_on_c, 13, 54, 0
21, 25440, Note_on_c, 13, 56, 65
21, 25728, Note_on_c, 13, 56, 0
21, 25728, Note_on_c, 13, 54, 65
21, 26016, Note_on_c, 13, 54, 0
21, 26016, Note_on_c, 13, 56, 58
21, 26304, Note_on_c, 13, 56, 0
21, 26304, Note_on_c, 13, 54, 55
21, 26592, Note_on_c, 13, 54, 0
21, 26592, Note_on_c, 13, 56, 61
21, 26880, Note_on_c, 13, 56, 0
21, 26880, Note_on_c, 13, 54, 63
21, 27168, Note_on_c, 13, 54, 0
21, 27168, Note_on_c, 13, 56, 64
21, 27456, Note_on_c, 13, 56, 0
21, 27456, Note_on_c, 13, 54, 64
21, 27744, Note_on_c, 13, 54, 0
21, 27744, Note_on_c, 13, 56, 59
21, 28032, Note_on_c, 13, 56, 0
21, 28032, Note_on_c, 13, 54, 59
21, 28320, Note_on_c, 13, 54, 0
21, 28320, Note_on_c, 13, 56, 65
21, 28608, Note_on_c, 13, 56, 0
21, 28608, Note_on_c, 13, 54, 60
21, 28896, Note_on_c, 13, 54, 0
21, 28896, Note_on_c, 13, 56, 65
21, 29184, Note_on_c, 13, 56, 0
21, 29184, Note_on_c, 13, 54, 59
21, 29472, Note_on_c, 13, 54, 0
21, 29472, Note_on_c, 13, 56, 64
21, 29760, Note_on_c, 13, 56, 0
21, 29760, Note_on_c, 13, 54, 61
21, 30048, Note_on_c, 13, 54, 0
21, 30048, Note_on_c, 13, 56, 60
21, 30336, Note_on_c, 13, 56, 0
21, 37248, Note_on_c, 13, 56, 35
21, 37278, Note_on_c, 13, 56, 0
21, 37280, Note_on_c, 13, 58, 33
21, 37310, Note_on_c, 13, 58, 0
21, 37312, Note_on_c, 13, 56, 29
21, 37374, Note_on_c, 13, 56, 0
21, 37376, Note_on_c, 13, 58, 34
21, 37406, Note_on_c, 13, 58, 0
21, 37408, Note_on_c, 13, 56, 31
21, 37438, Note_on_c, 13, 56, 0
21, 37440, Note_on_c, 13, 54, 32
21, 37470, Note_on_c, 13, 54, 0
21, 37472, Note_on_c, 13, 56, 34
21, 37502, Note_on_c, 13, 56, 0
21, 37504, Note_on_c, 13, 54, 31
21, 37566, Note_on_c, 13, 54, 0
21, 37568, Note_on_c, 13, 56, 31
21, 37598, Note_on_c, 13, 56, 0
21, 37600, Note_on_c, 13, 54, 30
21, 37630, Note_on_c, 13, 54, 0
21, 37632, Note_on_c, 13, 57, 35
21, 37662, Note_on_c, 13, 57, 0
21, 37664, Note_on_c, 13, 59, 37
21, 37694, Note_on_c, 13, 59, 0
21, 37696, Note_on_c, 13, 56, 47
21, 37726, Note_on_c, 13, 56, 0
21, 37728, Note_on_c, 13, 57, 48
21, 37758, Note_on_c, 13, 57, 0
21, 37760, Note_on_c, 13, 61, 57
21, 37790, Note_on_c, 13, 61, 0
21, 37792, Note_on_c, 13, 57, 60
21, 37822, Note_on_c, 13, 57, 0
21, 37824, Note_on_c, 13, 56, 31
21, 37854, Note_on_c, 13, 56, 0
21, 37856, Note_on_c, 13, 58, 34
21, 37886, Note_on_c, 13, 58, 0
21, 37888, Note_on_c, 13, 56, 27
21, 37950, Note_on_c, 13, 56, 0
21, 37952, Note_on_c, 13, 58, 32
21, 37982, Note_on_c, 13, 58, 0
21, 37984, Note_on_c, 13, 56, 25
21, 38014, Note_on_c, 13, 56, 0
21, 38016, Note_on_c, 13, 55, 29
21, 38046, Note_on_c, 13, 55, 0
21, 38048, Note_on_c, 13, 58, 43
21, 38078, Note_on_c, 13, 58, 0
21, 38080, Note_on_c, 13, 55, 59
21, 38110, Note_on_c, 13, 55, 0
21, 38112, Note_on_c, 13, 56, 31
21, 38142, Note_on_c, 13, 56, 0
21, 38144, Note_on_c, 13, 58, 28
21, 38174, Note_on_c, 13, 58, 0
21, 38176, Note_on_c, 13, 56, 26
21, 38238, Note_on_c, 13, 56, 0
21, 38240, Note_on_c, 13, 58, 32
21, 38270, Note_on_c, 13, 58, 0
21, 38272, Note_on_c, 13, 56, 30
21, 38302, Note_on_c, 13, 56, 0
21, 38304, Note_on_c, 13, 55, 33
21, 38334, Note_on_c, 13, 55, 0
21, 38336, Note_on_c, 13, 58, 33
21, 38366, Note_on_c, 13, 58, 0
21, 38368, Note_on_c, 13, 55, 37
21, 38398, Note_on_c, 13, 55, 0
21, 38400, Note_on_c, 13, 56, 48
21, 38430, Note_on_c, 13, 56, 0
21, 38432, Note_on_c, 13, 58, 44
21, 38462, Note_on_c, 13, 58, 0
21, 38464, Note_on_c, 13, 56, 45
21, 38526, Note_on_c, 13, 56, 0
21, 38528, Note_on_c, 13, 58, 40
21, 38558, Note_on_c, 13, 58, 0
21, 38560, Note_on_c, 13, 56, 48
21, 38590, Note_on_c, 13, 56, 0
21, 38592, Note_on_c, 13, 54, 48
21, 38622, Note_on_c, 13, 54, 0
21, 38624, Note_on_c, 13, 56, 48
21, 38654, Note_on_c, 13, 56, 0
21, 38656, Note_on_c, 13, 54, 49
21, 38718, Note_on_c, 13, 54, 0
21, 38720, Note_on_c, 13, 56, 49
21, 38750, Note_on_c, 13, 56, 0
21, 38752, Note_on_c, 13, 54, 53
21, 38782, Note_on_c, 13, 54, 0
21, 38784, Note_on_c, 13, 57, 50
21, 38814, Note_on_c, 13, 57, 0
21, 38816, Note_on_c, 13, 55, 57
21, 38846, Note_on_c, 13, 55, 0
21, 38848, Note_on_c, 13, 57, 49
21, 38878, Note_on_c, 13, 57, 0
21, 38880, Note_on_c, 13, 58, 56
21, 38910, Note_on_c, 13, 58, 0
21, 38912, Note_on_c, 13, 56, 59
21, 38942, Note_on_c, 13, 56, 0
21, 38944, Note_on_c, 13, 58, 57
21, 38974, Note_on_c, 13, 58, 0
21, 38976, Note_on_c, 13, 51, 41
21, 39006, Note_on_c, 13, 51, 0
21, 39008, Note_on_c, 13, 54, 44
21, 39038, Note_on_c, 13, 54, 0
21, 39040, Note_on_c, 13, 51, 46
21, 39070, Note_on_c, 13, 51, 0
21, 39072, Note_on_c, 13, 54, 53
21, 39102, Note_on_c, 13, 54, 0
21, 39104, Note_on_c, 13, 57, 46
21, 39134, Note_on_c, 13, 57, 0
21, 39136, Note_on_c, 13, 54, 56
21, 39166, Note_on_c, 13, 54, 0
21, 39168, Note_on_c, 13, 57, 51
21, 39198, Note_on_c, 13, 57, 0
21, 39200, Note_on_c, 13, 59, 55
21, 39230, Note_on_c, 13, 59, 0
21, 39232, Note_on_c, 13, 61, 60
21, 39262, Note_on_c, 13, 61, 0
21, 39264, Note_on_c, 13, 51, 44
21, 39294, Note_on_c, 13, 51, 0
21, 39296, Note_on_c, 13, 54, 44
21, 39326, Note_on_c, 13, 54, 0
21, 39328, Note_on_c, 13, 51, 46
21, 39358, Note_on_c, 13, 51, 0
21, 39360, Note_on_c, 13, 54, 54
21, 39390, Note_on_c, 13, 54, 0
21, 39392, Note_on_c, 13, 57, 48
21, 39422, Note_on_c, 13, 57, 0
21, 39424, Note_on_c, 13, 54, 48
21, 39454, Note_on_c, 13, 54, 0
21, 39456, Note_on_c, 13, 57, 52
21, 39486, Note_on_c, 13, 57, 0
21, 39488, Note_on_c, 13, 59, 62
21, 39518, Note_on_c, 13, 59, 0
21, 39520, Note_on_c, 13, 61, 57
21, 39550, Note_on_c, 13, 61, 0
21, 39552, Note_on_c, 13, 56, 28
21, 39552, Note_on_c, 13, 59, 32
21, 39584, Note_on_c, 13, 56, 0
21, 39584, Note_on_c, 13, 59, 0
21, 39648, Note_on_c, 13, 56, 35
21, 39648, Note_on_c, 13, 59, 27
21, 39680, Note_on_c, 13, 56, 0
21, 39680, Note_on_c, 13, 59, 0
21, 39744, Note_on_c, 13, 56, 34
21, 39744, Note_on_c, 13, 59, 26
21, 39776, Note_on_c, 13, 56, 0
21, 39776, Note_on_c, 13, 59, 0
21, 39840, Note_on_c, 13, 56, 27
21, 39840, Note_on_c, 13, 58, 32
21, 39872, Note_on_c, 13, 56, 0
21, 39872, Note_on_c, 13, 58, 0
21, 39936, Note_on_c, 13, 56, 31
21, 39936, Note_on_c, 13, 58, 34
21, 39968, Note_on_c, 13, 56, 0
21, 39968, Note_on_c, 13, 58, 0
21, 40032, Note_on_c, 13, 56, 25
21, 40032, Note_on_c, 13, 58, 31
21, 40064, Note_on_c, 13, 56, 0
21, 40064, Note_on_c, 13, 58, 0
21, 40128, Note_on_c, 13, 56, 26
21, 40128, Note_on_c, 13, 59, 25
21, 40160, Note_on_c, 13, 56, 0
21, 40160, Note_on_c, 13, 59, 0
21, 40224, Note_on_c, 13, 56, 25
21, 40224, Note_on_c, 13, 59, 28
21, 40256, Note_on_c, 13, 56, 0
21, 40256, Note_on_c, 13, 59, 0
21, 40320, Note_on_c, 13, 56, 25
21, 40320, Note_on_c, 13, 59, 32
21, 40352, Note_on_c, 13, 56, 0
21, 40352, Note_on_c, 13, 59, 0
21, 40416, Note_on_c, 13, 56, 31
21, 40416, Note_on_c, 13, 58, 32
21, 40448, Note_on_c, 13, 56, 0
21, 40448, Note_on_c, 13, 58, 0
21, 40512, Note_on_c, 13, 56, 29
21, 40512, Note_on_c, 13, 58, 33
21, 40544, Note_on_c, 13, 56, 0
21, 40544, Note_on_c, 13, 58, 0
21, 40608, Note_on_c, 13, 56, 34
21, 40608, Note_on_c, 13, 58, 25
21, 40640, Note_on_c, 13, 56, 0
21, 40640, Note_on_c, 13, 58, 0
21, 40704, Note_on_c, 13, 56, 35
21, 40704, Note_on_c, 13, 59, 29
21, 40736, Note_on_c, 13, 56, 0
21, 40736, Note_on_c, 13, 59, 0
21, 40800, Note_on_c, 13, 56, 33
21, 40800, Note_on_c, 13, 59, 31
21, 40832, Note_on_c, 13, 56, 0
21, 40832, Note_on_c, 13, 59, 0
21, 40896, Note_on_c, 13, 56, 30
21, 40896, Note_on_c, 13, 59, 32
21, 40928, Note_on_c, 13, 56, 0
21, 40928, Note_on_c, 13, 59, 0
21, 40992, Note_on_c, 13, 56, 35
21, 40992, Note_on_c, 13, 58, 34
21, 41024, Note_on_c, 13, 56, 0
21, 41024, Note_on_c, 13, 58, 0
21, 41088, Note_on_c, 13, 56, 34
21, 41088, Note_on_c, 13, 58, 27
21, 41120, Note_on_c, 13, 56, 0
21, 41120, Note_on_c, 13, 58, 0
21, 41184, Note_on_c, 13, 56, 33
21, 41184, Note_on_c, 13, 58, 32
21, 41216, Note_on_c, 13, 56, 0
21, 41216, Note_on_c, 13, 58, 0
21, 41280, Note_on_c, 13, 59, 32
21, 41280, Note_on_c, 13, 62, 30
21, 41312, Note_on_c, 13, 59, 0
21, 41312, Note_on_c, 13, 62, 0
21, 41376, Note_on_c, 13, 59, 27
21, 41376, Note_on_c, 13, 62, 34
21, 41408, Note_on_c, 13, 59, 0
21, 41408, Note_on_c, 13, 62, 0
21, 41472, Note_on_c, 13, 59, 33
21, 41472, Note_on_c, 13, 62, 37
21, 41504, Note_on_c, 13, 59, 0
21, 41504, Note_on_c, 13, 62, 0
21, 41568, Note_on_c, 13, 59, 34
21, 41568, Note_on_c, 13, 62, 36
21, 41600, Note_on_c, 13, 59, 0
21, 41600, Note_on_c, 13, 62, 0
21, 41664, Note_on_c, 13, 59, 36
21, 41664, Note_on_c, 13, 62, 37
21, 41696, Note_on_c, 13, 59, 0
21, 41696, Note_on_c, 13, 62, 0
21, 41760, Note_on_c, 13, 59, 46
21, 41760, Note_on_c, 13, 62, 39
21, 41792, Note_on_c, 13, 59, 0
21, 41792, Note_on_c, 13, 62, 0
21, 41856, Note_on_c, 13, 59, 40
21, 41856, Note_on_c, 13, 62, 43
21, 41950, Note_on_c, 13, 59, 0
21, 41950, Note_on_c, 13, 62, 0
21, 45312, Note_on_c, 13, 64, 45
21, 45406, Note_on_c, 13, 64, 0
21, 45408, Note_on_c, 13, 56, 40
21, 45568, Note_on_c, 13, 56, 0
21, 45600, Note_on_c, 13, 64, 43
21, 45694, Note_on_c, 13, 64, 0
21, 45696, Note_on_c, 13, 56, 46
21, 45856, Note_on_c, 13, 56, 0
21, 45888, Note_on_c, 13, 63, 49
21, 45982, Note_on_c, 13, 63, 0
21, 45984, Note_on_c, 13, 55, 43
21, 46144, Note_on_c, 13, 55, 0
21, 46176, Note_on_c, 13, 63, 43
21, 46270, Note_on_c, 13, 63, 0
21, 46272, Note_on_c, 13, 55, 45
21, 46432, Note_on_c, 13, 55, 0
21, 48768, Note_on_c, 13, 59, 58
21, 48910, Note_on_c, 13, 59, 0
21, 48912, Note_on_c, 13, 58, 60
21, 48958, Note_on_c, 13, 58, 0
21, 48960, Note_on_c, 13, 57, 60
21, 49006, Note_on_c, 13, 57, 0
21, 49008, Note_on_c, 13, 58, 62
21, 49054, Note_on_c, 13, 58, 0
21, 49056, Note_on_c, 13, 59, 63
21, 49216, Note_on_c, 13, 59, 0
21, 49248, Note_on_c, 13, 56, 60
21, 49342, Note_on_c, 13, 56, 0
21, 49344, Note_on_c, 13, 62, 33
21, 49438, Note_on_c, 13, 62, 0
21, 49440, Note_on_c, 13, 62, 32
21, 49534, Note_on_c, 13, 62, 0
21, 49536, Note_on_c, 13, 62, 30
21, 49630, Note_on_c, 13, 62, 0
21, 49632, Note_on_c, 13, 62, 29
21, 49726, Note_on_c, 13, 62, 0
21, 49728, Note_on_c, 13, 62, 32
21, 49822, Note_on_c, 13, 62, 0
21, 49824, Note_on_c, 13, 62, 30
21, 49918, Note_on_c, 13, 62, 0
21, 49920, Note_on_c, 13, 62, 34
21, 50014, Note_on_c, 13, 62, 0
21, 50016, Note_on_c, 13, 62, 32
21, 50110, Note_on_c, 13, 62, 0
21, 50112, Note_on_c, 13, 62, 28
21, 50206, Note_on_c, 13, 62, 0
21, 50208, Note_on_c, 13, 62, 32
21, 50302, Note_on_c, 13, 62, 0
21, 50304, Note_on_c, 13, 62, 27
21, 50398, Note_on_c, 13, 62, 0
21, 50400, Note_on_c, 13, 62, 31
21, 50494, Note_on_c, 13, 62, 0
21, 50496, Note_on_c, 13, 61, 33
21, 50590, Note_on_c, 13, 61, 0
21, 50592, Note_on_c, 13, 61, 33
21, 50686, Note_on_c, 13, 61, 0
21, 50688, Note_on_c, 13, 61, 40
21, 50782, Note_on_c, 13, 61, 0
21, 50784, Note_on_c, 13, 59, 45
21, 50878, Note_on_c, 13, 59, 0
21, 50880, Note_on_c, 13, 59, 53
21, 50974, Note_on_c, 13, 59, 0
21, 50976, Note_on_c, 13, 56, 63
21, 51070, Note_on_c, 13, 56, 0
21, 51072, Note_on_c, 13, 53, 55
21, 51166, Note_on_c, 13, 53, 0
21, 51936, Note_on_c, 13, 58, 41
21, 51982, Note_on_c, 13, 58, 0
21, 51984, Note_on_c, 13, 54, 44
21, 52030, Note_on_c, 13, 54, 0
21, 52032, Note_on_c, 13, 58, 48
21, 52078, Note_on_c, 13, 58, 0
21, 52080, Note_on_c, 13, 54, 51
21, 52126, Note_on_c, 13, 54, 0
21, 52128, Note_on_c, 13, 58, 53
21, 52174, Note_on_c, 13, 58, 0
21, 52176, Note_on_c, 13, 54, 52
21, 52222, Note_on_c, 13, 54, 0
21, 52224, Note_on_c, 13, 58, 53
21, 52270, Note_on_c, 13, 58, 0
21, 52272, Note_on_c, 13, 54, 59
21, 52318, Note_on_c, 13, 54, 0
21, 52320, Note_on_c, 13, 58, 67
21, 52366, Note_on_c, 13, 58, 0
21, 52368, Note_on_c, 13, 54, 70
21, 52414, Note_on_c, 13, 54, 0
21, 52416, Note_on_c, 13, 58, 71
21, 52462, Note_on_c, 13, 58, 0
21, 52464, Note_on_c, 13, 54, 71
21, 52510, Note_on_c, 13, 54, 0
21, 52704, Note_on_c, 13, 56, 31
21, 52726, Note_on_c, 13, 56, 0
21, 52728, Note_on_c, 13, 54, 25
21, 52750, Note_on_c, 13, 54, 0
21, 52752, Note_on_c, 13, 56, 31
21, 52774, Note_on_c, 13, 56, 0
21, 52776, Note_on_c, 13, 54, 19
21, 52798, Note_on_c, 13, 54, 0
21, 52992, Note_on_c, 13, 56, 31
21, 53014, Note_on_c, 13, 56, 0
21, 53016, Note_on_c, 13, 54, 29
21, 53038, Note_on_c, 13, 54, 0
21, 53040, Note_on_c, 13, 56, 27
21, 53062, Note_on_c, 13, 56, 0
21, 53064, Note_on_c, 13, 54, 20
21, 53086, Note_on_c, 13, 54, 0
21, 53280, Note_on_c, 13, 56, 26
21, 53302, Note_on_c, 13, 56, 0
21, 53304, Note_on_c, 13, 54, 30
21, 53326, Note_on_c, 13, 54, 0
21, 53328, Note_on_c, 13, 56, 25
21, 53350, Note_on_c, 13, 56, 0
21, 53352, Note_on_c, 13, 54, 25
21, 53374, Note_on_c, 13, 54, 0
21, 53568, Note_on_c, 13, 56, 32
21, 53590, Note_on_c, 13, 56, 0
21, 53592, Note_on_c, 13, 54, 29
21, 53614, Note_on_c, 13, 54, 0
21, 53616, Note_on_c, 13, 56, 24
21, 53638, Note_on_c, 13, 56, 0
21, 53640, Note_on_c, 13, 54, 21
21, 53662, Note_on_c, 13, 54, 0
21, 68832, Note_on_c, 13, 59, 34
21, 69024, Note_on_c, 13, 59, 0
21, 69024, Note_on_c, 13, 52, 27
21, 69216, Note_on_c, 13, 52, 0
21, 69216, Note_on_c, 13, 59, 28
21, 69408, Note_on_c, 13, 59, 0
21, 69408, Note_on_c, 13, 52, 31
21, 69600, Note_on_c, 13, 52, 0
21, 69600, Note_on_c, 13, 60, 92
21, 70368, Note_on_c, 13, 60, 0
21, 70368, Note_on_c, 13, 60, 97
21, 71136, Note_on_c, 13, 60, 0
21, 71136, Note_on_c, 13, 72, 97
21, 71904, Note_on_c, 13, 72, 0
21, 76320, Note_on_c, 13, 53, 65
21, 76702, Note_on_c, 13, 53, 0
21, 76704, Note_on_c, 13, 55, 62
21, 76864, Note_on_c, 13, 55, 0
21, 76896, Note_on_c, 13, 53, 65
21, 77278, Note_on_c, 13, 53, 0
21, 77280, Note_on_c, 13, 55, 55
21, 77440, Note_on_c, 13, 55, 0
21, 77472, Note_on_c, 13, 58, 109
21, 77854, Note_on_c, 13, 58, 0
21, 77856, Note_on_c, 13, 58, 104
21, 78016, Note_on_c, 13, 58, 0
21, 78048, Note_on_c, 13, 58, 109
21, 78430, Note_on_c, 13, 58, 0
21, 78432, Note_on_c, 13, 58, 112
21, 78592, Note_on_c, 13, 58, 0
21, 94560, Control_c, 13, 11, 92
21, 94560, Note_on_c, 13, 61, 42
21, 94560, Note_on_c, 13, 67, 50
21, 94570, Control_c, 13, 11, 93
21, 94581, Control_c, 13, 11, 94
21, 94592, Control_c, 13, 11, 95
21, 94603, Control_c, 13, 11, 96
21, 94614, Control_c, 13, 11, 97
21, 94622, Note_on_c, 13, 61, 0
21, 94622, Note_on_c, 13, 67, 0
21, 94624, Note_on_c, 13, 55, 42
21, 94624, Note_on_c, 13, 61, 40
21, 94625, Control_c, 13, 11, 98
21, 94636, Control_c, 13, 11, 99
21, 94647, Control_c, 13, 11, 100
21, 94658, Control_c, 13, 11, 101
21, 94669, Control_c, 13, 11, 102
21, 94680, Control_c, 13, 11, 103
21, 94691, Control_c, 13, 11, 104
21, 94702, Control_c, 13, 11, 105
21, 94713, Control_c, 13, 11, 106
21, 94718, Note_on_c, 13, 55, 0
21, 94718, Note_on_c, 13, 61, 0
21, 94720, Note_on_c, 13, 49, 42
21, 94720, Note_on_c, 13, 55, 41
21, 94724, Control_c, 13, 11, 107
21, 94735, Control_c, 13, 11, 108
21, 94746, Control_c, 13, 11, 109
21, 94750, Note_on_c, 13, 49, 0
21, 94750, Note_on_c, 13, 55, 0
21, 94752, Note_on_c, 13, 55, 50
21, 94752, Note_on_c, 13, 61, 40
21, 94757, Control_c, 13, 11, 110
21, 94768, Control_c, 13, 11, 111
21, 94779, Control_c, 13, 11, 112
21, 94790, Control_c, 13, 11, 113
21, 94801, Control_c, 13, 11, 114
21, 94812, Control_c, 13, 11, 115
21, 94814, Note_on_c, 13, 55, 0
21, 94814, Note_on_c, 13, 61, 0
21, 94816, Note_on_c, 13, 61, 49
21, 94816, Note_on_c, 13, 67, 46
21, 94823, Control_c, 13, 11, 116
21, 94834, Control_c, 13, 11, 117
21, 94845, Control_c, 13, 11, 118
21, 94856, Control_c, 13, 11, 119
21, 94867, Control_c, 13, 11, 120
21, 94878, Note_on_c, 13, 61, 0
21, 94878, Note_on_c, 13, 67, 0
21, 94878, Control_c, 13, 11, 121
21, 94880, Note_on_c, 13, 64, 46
21, 94880, Note_on_c, 13, 69, 40
21, 94889, Control_c, 13, 11, 122
21, 94900, Control_c, 13, 11, 123
21, 94911, Control_c, 13, 11, 124
21, 94922, Control_c, 13, 11, 125
21, 94933, Control_c, 13, 11, 126
21, 94942, Note_on_c, 13, 64, 0
21, 94942, Note_on_c, 13, 69, 0
21, 94944, Control_c, 13, 11, 127
21, 95328, Control_c, 13, 11, 127
21, 95328, Note_on_c, 13, 61, 42
21, 95328, Note_on_c, 13, 67, 46
21, 95338, Control_c, 13, 11, 126
21, 95349, Control_c, 13, 11, 125
21, 95360, Control_c, 13, 11, 124
21, 95371, Control_c, 13, 11, 123
21, 95382, Control_c, 13, 11, 122
21, 95390, Note_on_c, 13, 61, 0
21, 95390, Note_on_c, 13, 67, 0
21, 95392, Note_on_c, 13, 55, 40
21, 95392, Note_on_c, 13, 61, 45
21, 95393, Control_c, 13, 11, 121
21, 95404, Control_c, 13, 11, 120
21, 95415, Control_c, 13, 11, 119
21, 95426, Control_c, 13, 11, 118
21, 95437, Control_c, 13, 11, 117
21, 95448, Control_c, 13, 11, 116
21, 95459, Control_c, 13, 11, 115
21, 95470, Control_c, 13, 11, 114
21, 95481, Control_c, 13, 11, 113
21, 95486, Note_on_c, 13, 55, 0
21, 95486, Note_on_c, 13, 61, 0
21, 95488, Note_on_c, 13, 49, 50
21, 95488, Note_on_c, 13, 55, 47
21, 95492, Control_c, 13, 11, 112
21, 95503, Control_c, 13, 11, 111
21, 95514, Control_c, 13, 11, 110
21, 95518, Note_on_c, 13, 49, 0
21, 95518, Note_on_c, 13, 55, 0
21, 95520, Note_on_c, 13, 49, 45
21, 95520, Note_on_c, 13, 55, 41
21, 95525, Control_c, 13, 11, 109
21, 95536, Control_c, 13, 11, 108
21, 95547, Control_c, 13, 11, 107
21, 95558, Control_c, 13, 11, 106
21, 95569, Control_c, 13, 11, 105
21, 95580, Control_c, 13, 11, 104
21, 95582, Note_on_c, 13, 49, 0
21, 95582, Note_on_c, 13, 55, 0
21, 95584, Note_on_c, 13, 55, 47
21, 95584, Note_on_c, 13, 61, 41
21, 95591, Control_c, 13, 11, 103
21, 95602, Control_c, 13, 11, 102
21, 95613, Control_c, 13, 11, 101
21, 95624, Control_c, 13, 11, 100
21, 95635, Control_c, 13, 11, 99
21, 95646, Note_on_c, 13, 55, 0
21, 95646, Note_on_c, 13, 61, 0
21, 95646, Control_c, 13, 11, 98
21, 95648, Note_on_c, 13, 61, 47
21, 95648, Note_on_c, 13, 67, 46
21, 95657, Control_c, 13, 11, 97
21, 95668, Control_c, 13, 11, 96
21, 95679, Control_c, 13, 11, 95
21, 95690, Control_c, 13, 11, 94
21, 95701, Control_c, 13, 11, 93
21, 95712, Control_c, 13, 11, 92
21, 95712, Control_c, 13, 11, 92
21, 95733, Control_c, 13, 11, 91
21, 95754, Control_c, 13, 11, 90
21, 95774, Note_on_c, 13, 61, 0
21, 95774, Note_on_c, 13, 67, 0
21, 95775, Control_c, 13, 11, 89
21, 95776, Note_on_c, 13, 55, 41
21, 95776, Note_on_c, 13, 61, 48
21, 95796, Control_c, 13, 11, 88
21, 95817, Control_c, 13, 11, 87
21, 95838, Note_on_c, 13, 55, 0
21, 95838, Note_on_c, 13, 61, 0
21, 95838, Control_c, 13, 11, 86
21, 95840, Note_on_c, 13, 49, 42
21, 95840, Note_on_c, 13, 55, 40
21, 95859, Control_c, 13, 11, 85
21, 95880, Control_c, 13, 11, 84
21, 95901, Control_c, 13, 11, 83
21, 95922, Control_c, 13, 11, 82
21, 95943, Control_c, 13, 11, 81
21, 95964, Control_c, 13, 11, 80
21, 95966, Note_on_c, 13, 49, 0
21, 95966, Note_on_c, 13, 55, 0
21, 95968, Note_on_c, 13, 55, 40
21, 95968, Note_on_c, 13, 61, 48
21, 95985, Control_c, 13, 11, 79
21, 96006, Control_c, 13, 11, 78
21, 96027, Control_c, 13, 11, 77
21, 96030, Note_on_c, 13, 55, 0
21, 96030, Note_on_c, 13, 61, 0
21, 96032, Note_on_c, 13, 61, 41
21, 96032, Note_on_c, 13, 67, 40
21, 96048, Control_c, 13, 11, 76
21, 96069, Control_c, 13, 11, 75
21, 96090, Control_c, 13, 11, 74
21, 96111, Control_c, 13, 11, 73
21, 96132, Control_c, 13, 11, 72
21, 96153, Control_c, 13, 11, 71
21, 96174, Control_c, 13, 11, 70
21, 96190, Note_on_c, 13, 61, 0
21, 96190, Note_on_c, 13, 67, 0
21, 96192, Note_on_c, 13, 49, 47
21, 96192, Note_on_c, 13, 55, 49
21, 96195, Control_c, 13, 11, 69
21, 96216, Control_c, 13, 11, 68
21, 96237, Control_c, 13, 11, 67
21, 96258, Control_c, 13, 11, 66
21, 96279, Control_c, 13, 11, 65
21, 96286, Note_on_c, 13, 49, 0
21, 96286, Note_on_c, 13, 55, 0
21, 96288, Note_on_c, 13, 55, 41
21, 96288, Note_on_c, 13, 61, 49
21, 96300, Control_c, 13, 11, 64
21, 96321, Control_c, 13, 11, 63
21, 96342, Control_c, 13, 11, 62
21, 96363, Control_c, 13, 11, 61
21, 96382, Note_on_c, 13, 55, 0
21, 96382, Note_on_c, 13, 61, 0
21, 96384, Control_c, 13, 11, 60
21, 96384, Note_on_c, 13, 61, 44
21, 96384, Note_on_c, 13, 67, 42
21, 96478, Note_on_c, 13, 61, 0
21, 96478, Note_on_c, 13, 67, 0
21, 96480, Note_on_c, 13, 60, 26
21, 99936, Note_on_c, 13, 60, 0
21, 99936, Note_on_c, 13, 59, 33
21, 100512, Note_on_c, 13, 59, 0
21, 100512, Note_on_c, 13, 56, 34
21, 101088, Note_on_c, 13, 56, 0
21, 101088, Note_on_c, 13, 54, 27
21, 103392, Note_on_c, 13, 54, 0
21, 103392, Note_on_c, 13, 54, 27
21, 105696, Note_on_c, 13, 54, 0
21, 105696, Note_on_c, 13, 54, 33
21, 108160, Note_on_c, 13, 54, 0
21, 108160, End_track
22, 0, Start_track
22, 0, Title_t, "Viole pizz."
22, 0, MIDI_port, 0
22, 118, Control_c, 7, 0, 0
22, 119, Control_c, 7, 32, 0
22, 120, Program_c, 7, 45
22, 121, Control_c, 7, 7, 127
22, 122, Control_c, 7, 10, 84
22, 123, Control_c, 7, 91, 127
22, 29184, Control_c, 7, 11, 127
22, 30336, Program_c, 7, 45
22, 30336, Note_on_c, 7, 56, 91
22, 30430, Note_on_c, 7, 56, 0
22, 30432, Note_on_c, 7, 56, 90
22, 30526, Note_on_c, 7, 56, 0
22, 30528, Note_on_c, 7, 56, 81
22, 30622, Note_on_c, 7, 56, 0
22, 30624, Note_on_c, 7, 56, 73
22, 30718, Note_on_c, 7, 56, 0
22, 30720, Note_on_c, 7, 56, 67
22, 30814, Note_on_c, 7, 56, 0
22, 30816, Note_on_c, 7, 56, 51
22, 30910, Note_on_c, 7, 56, 0
22, 30912, Note_on_c, 7, 56, 46
22, 31006, Note_on_c, 7, 56, 0
22, 31008, Note_on_c, 7, 56, 44
22, 31102, Note_on_c, 7, 56, 0
22, 31104, Note_on_c, 7, 56, 44
22, 31198, Note_on_c, 7, 56, 0
22, 31200, Note_on_c, 7, 56, 47
22, 31294, Note_on_c, 7, 56, 0
22, 31296, Note_on_c, 7, 56, 47
22, 31390, Note_on_c, 7, 56, 0
22, 31392, Note_on_c, 7, 56, 48
22, 31486, Note_on_c, 7, 56, 0
22, 31488, Note_on_c, 7, 56, 47
22, 31582, Note_on_c, 7, 56, 0
22, 31584, Note_on_c, 7, 56, 50
22, 31678, Note_on_c, 7, 56, 0
22, 31680, Note_on_c, 7, 56, 50
22, 31774, Note_on_c, 7, 56, 0
22, 31776, Note_on_c, 7, 56, 43
22, 31870, Note_on_c, 7, 56, 0
22, 31872, Note_on_c, 7, 56, 40
22, 31966, Note_on_c, 7, 56, 0
22, 31968, Note_on_c, 7, 56, 46
22, 32062, Note_on_c, 7, 56, 0
22, 32064, Note_on_c, 7, 56, 48
22, 32158, Note_on_c, 7, 56, 0
22, 32160, Note_on_c, 7, 56, 49
22, 32254, Note_on_c, 7, 56, 0
22, 32256, Note_on_c, 7, 56, 49
22, 32350, Note_on_c, 7, 56, 0
22, 32352, Note_on_c, 7, 56, 44
22, 32446, Note_on_c, 7, 56, 0
22, 32448, Note_on_c, 7, 56, 39
22, 32542, Note_on_c, 7, 56, 0
22, 32544, Note_on_c, 7, 56, 40
22, 32638, Note_on_c, 7, 56, 0
22, 32640, Note_on_c, 7, 56, 30
22, 32734, Note_on_c, 7, 56, 0
22, 32736, Note_on_c, 7, 56, 35
22, 32830, Note_on_c, 7, 56, 0
22, 32832, Note_on_c, 7, 56, 29
22, 32926, Note_on_c, 7, 56, 0
22, 32928, Note_on_c, 7, 56, 34
22, 33022, Note_on_c, 7, 56, 0
22, 33024, Note_on_c, 7, 56, 31
22, 33118, Note_on_c, 7, 56, 0
22, 33120, Note_on_c, 7, 56, 30
22, 33214, Note_on_c, 7, 56, 0
22, 33216, Note_on_c, 7, 56, 35
22, 33310, Note_on_c, 7, 56, 0
22, 33312, Note_on_c, 7, 56, 33
22, 33406, Note_on_c, 7, 56, 0
22, 33408, Note_on_c, 7, 56, 29
22, 33502, Note_on_c, 7, 56, 0
22, 33504, Note_on_c, 7, 56, 34
22, 33598, Note_on_c, 7, 56, 0
22, 33600, Note_on_c, 7, 56, 31
22, 33694, Note_on_c, 7, 56, 0
22, 33696, Note_on_c, 7, 56, 32
22, 33790, Note_on_c, 7, 56, 0
22, 33792, Note_on_c, 7, 56, 34
22, 33886, Note_on_c, 7, 56, 0
22, 33888, Note_on_c, 7, 56, 31
22, 33982, Note_on_c, 7, 56, 0
22, 33984, Note_on_c, 7, 56, 31
22, 34078, Note_on_c, 7, 56, 0
22, 34080, Note_on_c, 7, 56, 30
22, 34174, Note_on_c, 7, 56, 0
22, 34176, Note_on_c, 7, 56, 35
22, 34270, Note_on_c, 7, 56, 0
22, 34272, Note_on_c, 7, 56, 31
22, 34366, Note_on_c, 7, 56, 0
22, 34368, Note_on_c, 7, 56, 35
22, 34462, Note_on_c, 7, 56, 0
22, 34464, Note_on_c, 7, 56, 30
22, 34558, Note_on_c, 7, 56, 0
22, 34560, Note_on_c, 7, 56, 33
22, 34654, Note_on_c, 7, 56, 0
22, 34656, Note_on_c, 7, 56, 30
22, 34750, Note_on_c, 7, 56, 0
22, 34752, Note_on_c, 7, 56, 31
22, 34846, Note_on_c, 7, 56, 0
22, 34848, Note_on_c, 7, 56, 34
22, 34942, Note_on_c, 7, 56, 0
22, 34944, Note_on_c, 7, 56, 27
22, 35038, Note_on_c, 7, 56, 0
22, 35040, Note_on_c, 7, 56, 32
22, 35134, Note_on_c, 7, 56, 0
22, 35136, Note_on_c, 7, 56, 25
22, 35230, Note_on_c, 7, 56, 0
22, 35232, Note_on_c, 7, 56, 29
22, 35326, Note_on_c, 7, 56, 0
22, 35328, Note_on_c, 7, 56, 28
22, 35422, Note_on_c, 7, 56, 0
22, 35424, Note_on_c, 7, 56, 29
22, 35518, Note_on_c, 7, 56, 0
22, 35520, Note_on_c, 7, 56, 31
22, 35614, Note_on_c, 7, 56, 0
22, 35616, Note_on_c, 7, 56, 28
22, 35710, Note_on_c, 7, 56, 0
22, 35712, Note_on_c, 7, 56, 26
22, 35806, Note_on_c, 7, 56, 0
22, 35808, Note_on_c, 7, 56, 32
22, 35902, Note_on_c, 7, 56, 0
22, 35904, Note_on_c, 7, 56, 30
22, 35998, Note_on_c, 7, 56, 0
22, 36000, Note_on_c, 7, 56, 33
22, 36094, Note_on_c, 7, 56, 0
22, 36096, Note_on_c, 7, 56, 28
22, 36190, Note_on_c, 7, 56, 0
22, 36192, Note_on_c, 7, 56, 27
22, 36286, Note_on_c, 7, 56, 0
22, 36288, Note_on_c, 7, 56, 42
22, 36382, Note_on_c, 7, 56, 0
22, 36384, Note_on_c, 7, 56, 47
22, 36478, Note_on_c, 7, 56, 0
22, 36480, Note_on_c, 7, 56, 57
22, 36574, Note_on_c, 7, 56, 0
22, 36576, Note_on_c, 7, 56, 61
22, 36670, Note_on_c, 7, 56, 0
22, 36672, Note_on_c, 7, 56, 78
22, 36766, Note_on_c, 7, 56, 0
22, 36768, Note_on_c, 7, 56, 78
22, 36862, Note_on_c, 7, 56, 0
22, 36864, Note_on_c, 7, 56, 69
22, 36958, Note_on_c, 7, 56, 0
22, 36960, Note_on_c, 7, 56, 61
22, 37054, Note_on_c, 7, 56, 0
22, 37056, Note_on_c, 7, 56, 51
22, 37150, Note_on_c, 7, 56, 0
22, 37152, Note_on_c, 7, 56, 44
22, 37246, Note_on_c, 7, 56, 0
22, 37246, End_track
23, 0, Start_track
23, 0, Title_t, "Violoncelli I"
23, 0, MIDI_port, 0
23, 4608, Note_on_c, 14, 54, 32
23, 4656, Note_on_c, 14, 54, 0
23, 4656, Note_on_c, 14, 56, 29
23, 4992, Note_on_c, 14, 56, 0
23, 4992, Note_on_c, 14, 56, 29
23, 5376, Note_on_c, 14, 56, 0
23, 5376, Note_on_c, 14, 56, 26
23, 5760, Note_on_c, 14, 56, 0
23, 5760, Note_on_c, 14, 54, 28
23, 5808, Note_on_c, 14, 54, 0
23, 5808, Note_on_c, 14, 56, 26
23, 6336, Note_on_c, 14, 56, 0
23, 6336, Note_on_c, 14, 56, 31
23, 6720, Note_on_c, 14, 56, 0
23, 6720, Note_on_c, 14, 56, 27
23, 6912, Note_on_c, 14, 56, 0
23, 6912, Note_on_c, 14, 54, 29
23, 6960, Note_on_c, 14, 54, 0
23, 6960, Note_on_c, 14, 56, 33
23, 7488, Note_on_c, 14, 56, 0
23, 7488, Note_on_c, 14, 56, 28
23, 7872, Note_on_c, 14, 56, 0
23, 7872, Note_on_c, 14, 56, 33
23, 8064, Note_on_c, 14, 56, 0
23, 11136, Program_c, 14, 44
23, 11136, Control_c, 14, 11, 64
23, 11904, Note_on_c, 14, 47, 59
23, 12096, Note_on_c, 14, 47, 0
23, 12096, Note_on_c, 14, 45, 56
23, 12288, Note_on_c, 14, 45, 0
23, 12288, Note_on_c, 14, 44, 60
23, 12480, Note_on_c, 14, 44, 0
23, 12480, Note_on_c, 14, 42, 61
23, 12672, Note_on_c, 14, 42, 0
23, 12672, Note_on_c, 14, 47, 56
23, 12864, Note_on_c, 14, 47, 0
23, 12864, Note_on_c, 14, 45, 61
23, 13056, Note_on_c, 14, 45, 0
23, 13056, Note_on_c, 14, 47, 57
23, 13248, Note_on_c, 14, 47, 0
23, 13248, Note_on_c, 14, 45, 60
23, 13440, Note_on_c, 14, 45, 0
23, 13440, Control_c, 14, 11, 64
23, 13440, Note_on_c, 14, 47, 62
23, 13452, Control_c, 14, 11, 65
23, 13464, Control_c, 14, 11, 66
23, 13476, Control_c, 14, 11, 67
23, 13488, Control_c, 14, 11, 68
23, 13500, Control_c, 14, 11, 69
23, 13513, Control_c, 14, 11, 70
23, 13525, Control_c, 14, 11, 71
23, 13537, Control_c, 14, 11, 72
23, 13549, Control_c, 14, 11, 73
23, 13561, Control_c, 14, 11, 74
23, 13574, Control_c, 14, 11, 75
23, 13586, Control_c, 14, 11, 76
23, 13598, Control_c, 14, 11, 77
23, 13610, Control_c, 14, 11, 78
23, 13622, Control_c, 14, 11, 79
23, 13632, Note_on_c, 14, 47, 0
23, 13632, Note_on_c, 14, 45, 64
23, 13635, Control_c, 14, 11, 80
23, 13647, Control_c, 14, 11, 81
23, 13659, Control_c, 14, 11, 82
23, 13671, Control_c, 14, 11, 83
23, 13683, Control_c, 14, 11, 84
23, 13696, Control_c, 14, 11, 85
23, 13708, Control_c, 14, 11, 86
23, 13720, Control_c, 14, 11, 87
23, 13732, Control_c, 14, 11, 88
23, 13744, Control_c, 14, 11, 89
23, 13756, Control_c, 14, 11, 90
23, 13769, Control_c, 14, 11, 91
23, 13781, Control_c, 14, 11, 92
23, 13793, Control_c, 14, 11, 93
23, 13805, Control_c, 14, 11, 94
23, 13817, Control_c, 14, 11, 95
23, 13824, Note_on_c, 14, 45, 0
23, 13824, Note_on_c, 14, 47, 60
23, 13830, Control_c, 14, 11, 96
23, 13842, Control_c, 14, 11, 97
23, 13854, Control_c, 14, 11, 98
23, 13866, Control_c, 14, 11, 99
23, 13878, Control_c, 14, 11, 100
23, 13891, Control_c, 14, 11, 101
23, 13903, Control_c, 14, 11, 102
23, 13915, Control_c, 14, 11, 103
23, 13927, Control_c, 14, 11, 104
23, 13939, Control_c, 14, 11, 105
23, 13952, Control_c, 14, 11, 106
23, 13964, Control_c, 14, 11, 107
23, 13976, Control_c, 14, 11, 108
23, 13988, Control_c, 14, 11, 109
23, 14000, Control_c, 14, 11, 110
23, 14012, Control_c, 14, 11, 111
23, 14016, Note_on_c, 14, 47, 0
23, 14016, Note_on_c, 14, 45, 61
23, 14025, Control_c, 14, 11, 112
23, 14037, Control_c, 14, 11, 113
23, 14049, Control_c, 14, 11, 114
23, 14061, Control_c, 14, 11, 115
23, 14073, Control_c, 14, 11, 116
23, 14086, Control_c, 14, 11, 117
23, 14098, Control_c, 14, 11, 118
23, 14110, Control_c, 14, 11, 119
23, 14122, Control_c, 14, 11, 120
23, 14134, Control_c, 14, 11, 121
23, 14147, Control_c, 14, 11, 122
23, 14159, Control_c, 14, 11, 123
23, 14171, Control_c, 14, 11, 124
23, 14183, Control_c, 14, 11, 125
23, 14195, Control_c, 14, 11, 126
23, 14208, Note_on_c, 14, 45, 0
23, 14208, Control_c, 14, 11, 127
23, 14208, Note_on_c, 14, 44, 55
23, 14220, Control_c, 14, 11, 126
23, 14232, Control_c, 14, 11, 125
23, 14244, Control_c, 14, 11, 124
23, 14256, Control_c, 14, 11, 123
23, 14268, Control_c, 14, 11, 122
23, 14281, Control_c, 14, 11, 121
23, 14293, Control_c, 14, 11, 120
23, 14305, Control_c, 14, 11, 119
23, 14317, Control_c, 14, 11, 118
23, 14329, Control_c, 14, 11, 117
23, 14342, Control_c, 14, 11, 116
23, 14354, Control_c, 14, 11, 115
23, 14366, Control_c, 14, 11, 114
23, 14378, Control_c, 14, 11, 113
23, 14390, Control_c, 14, 11, 112
23, 14400, Note_on_c, 14, 44, 0
23, 14400, Note_on_c, 14, 43, 59
23, 14403, Control_c, 14, 11, 111
23, 14415, Control_c, 14, 11, 110
23, 14427, Control_c, 14, 11, 109
23, 14439, Control_c, 14, 11, 108
23, 14451, Control_c, 14, 11, 107
23, 14464, Control_c, 14, 11, 106
23, 14476, Control_c, 14, 11, 105
23, 14488, Control_c, 14, 11, 104
23, 14500, Control_c, 14, 11, 103
23, 14512, Control_c, 14, 11, 102
23, 14524, Control_c, 14, 11, 101
23, 14537, Control_c, 14, 11, 100
23, 14549, Control_c, 14, 11, 99
23, 14561, Control_c, 14, 11, 98
23, 14573, Control_c, 14, 11, 97
23, 14585, Control_c, 14, 11, 96
23, 14592, Note_on_c, 14, 43, 0
23, 14592, Note_on_c, 14, 42, 62
23, 14598, Control_c, 14, 11, 95
23, 14610, Control_c, 14, 11, 94
23, 14622, Control_c, 14, 11, 93
23, 14634, Control_c, 14, 11, 92
23, 14646, Control_c, 14, 11, 91
23, 14659, Control_c, 14, 11, 90
23, 14671, Control_c, 14, 11, 89
23, 14683, Control_c, 14, 11, 88
23, 14695, Control_c, 14, 11, 87
23, 14707, Control_c, 14, 11, 86
23, 14720, Control_c, 14, 11, 85
23, 14732, Control_c, 14, 11, 84
23, 14744, Control_c, 14, 11, 83
23, 14756, Control_c, 14, 11, 82
23, 14768, Control_c, 14, 11, 81
23, 14780, Control_c, 14, 11, 80
23, 14784, Note_on_c, 14, 42, 0
23, 14784, Note_on_c, 14, 43, 63
23, 14793, Control_c, 14, 11, 79
23, 14805, Control_c, 14, 11, 78
23, 14817, Control_c, 14, 11, 77
23, 14829, Control_c, 14, 11, 76
23, 14841, Control_c, 14, 11, 75
23, 14854, Control_c, 14, 11, 74
23, 14866, Control_c, 14, 11, 73
23, 14878, Control_c, 14, 11, 72
23, 14890, Control_c, 14, 11, 71
23, 14902, Control_c, 14, 11, 70
23, 14915, Control_c, 14, 11, 69
23, 14927, Control_c, 14, 11, 68
23, 14939, Control_c, 14, 11, 67
23, 14951, Control_c, 14, 11, 66
23, 14963, Control_c, 14, 11, 65
23, 14976, Note_on_c, 14, 43, 0
23, 14976, Control_c, 14, 11, 64
23, 14976, Note_on_c, 14, 42, 55
23, 15360, Note_on_c, 14, 42, 0
23, 15360, Note_on_c, 14, 43, 63
23, 15744, Note_on_c, 14, 43, 0
23, 15744, Control_c, 14, 11, 64
23, 15744, Note_on_c, 14, 42, 63
23, 15784, Control_c, 14, 11, 63
23, 15824, Control_c, 14, 11, 62
23, 15865, Control_c, 14, 11, 61
23, 15905, Control_c, 14, 11, 60
23, 15936, Note_on_c, 14, 42, 0
23, 15936, Note_on_c, 14, 41, 58
23, 15946, Control_c, 14, 11, 59
23, 15986, Control_c, 14, 11, 58
23, 16026, Control_c, 14, 11, 57
23, 16067, Control_c, 14, 11, 56
23, 16107, Control_c, 14, 11, 55
23, 16128, Note_on_c, 14, 41, 0
23, 16128, Note_on_c, 14, 40, 64
23, 16148, Control_c, 14, 11, 54
23, 16188, Control_c, 14, 11, 53
23, 16229, Control_c, 14, 11, 52
23, 16269, Control_c, 14, 11, 51
23, 16309, Control_c, 14, 11, 50
23, 16320, Note_on_c, 14, 40, 0
23, 16320, Note_on_c, 14, 39, 55
23, 16350, Control_c, 14, 11, 49
23, 16390, Control_c, 14, 11, 48
23, 16431, Control_c, 14, 11, 47
23, 16471, Control_c, 14, 11, 46
23, 16512, Note_on_c, 14, 39, 0
23, 16512, Control_c, 14, 11, 45
23, 16512, Program_c, 14, 48
23, 16512, Note_on_c, 14, 38, 59
23, 17472, Note_on_c, 14, 38, 0
23, 18816, Control_c, 14, 11, 127
23, 19584, Program_c, 14, 44
23, 19584, Note_on_c, 14, 47, 28
23, 19776, Note_on_c, 14, 47, 0
23, 19776, Note_on_c, 14, 45, 33
23, 19968, Note_on_c, 14, 45, 0
23, 19968, Note_on_c, 14, 44, 29
23, 20160, Note_on_c, 14, 44, 0
23, 20160, Note_on_c, 14, 42, 34
23, 20352, Note_on_c, 14, 42, 0
23, 20352, Control_c, 14, 11, 127
23, 20352, Note_on_c, 14, 47, 27
23, 20373, Control_c, 14, 11, 126
23, 20395, Control_c, 14, 11, 125
23, 20417, Control_c, 14, 11, 124
23, 20439, Control_c, 14, 11, 123
23, 20461, Control_c, 14, 11, 122
23, 20483, Control_c, 14, 11, 121
23, 20505, Control_c, 14, 11, 120
23, 20527, Control_c, 14, 11, 119
23, 20544, Note_on_c, 14, 47, 0
23, 20544, Note_on_c, 14, 45, 30
23, 20549, Control_c, 14, 11, 118
23, 20571, Control_c, 14, 11, 117
23, 20593, Control_c, 14, 11, 116
23, 20615, Control_c, 14, 11, 115
23, 20637, Control_c, 14, 11, 114
23, 20659, Control_c, 14, 11, 113
23, 20681, Control_c, 14, 11, 112
23, 20703, Control_c, 14, 11, 111
23, 20725, Control_c, 14, 11, 110
23, 20736, Note_on_c, 14, 45, 0
23, 20736, Note_on_c, 14, 47, 34
23, 20746, Control_c, 14, 11, 109
23, 20768, Control_c, 14, 11, 108
23, 20790, Control_c, 14, 11, 107
23, 20812, Control_c, 14, 11, 106
23, 20834, Control_c, 14, 11, 105
23, 20856, Control_c, 14, 11, 104
23, 20878, Control_c, 14, 11, 103
23, 20900, Control_c, 14, 11, 102
23, 20922, Control_c, 14, 11, 101
23, 20928, Note_on_c, 14, 47, 0
23, 20928, Note_on_c, 14, 45, 33
23, 20944, Control_c, 14, 11, 100
23, 20966, Control_c, 14, 11, 99
23, 20988, Control_c, 14, 11, 98
23, 21010, Control_c, 14, 11, 97
23, 21032, Control_c, 14, 11, 96
23, 21054, Control_c, 14, 11, 95
23, 21076, Control_c, 14, 11, 94
23, 21098, Control_c, 14, 11, 93
23, 21120, Note_on_c, 14, 45, 0
23, 21120, Control_c, 14, 11, 92
23, 25728, Program_c, 14, 44
23, 26880, Control_c, 14, 11, 45
23, 26880, Note_on_c, 14, 47, 87
23, 26922, Control_c, 14, 11, 46
23, 26964, Control_c, 14, 11, 47
23, 27006, Control_c, 14, 11, 48
23, 27048, Control_c, 14, 11, 49
23, 27090, Control_c, 14, 11, 50
23, 27132, Control_c, 14, 11, 51
23, 27168, Note_on_c, 14, 47, 0
23, 27168, Note_on_c, 14, 45, 97
23, 27175, Control_c, 14, 11, 52
23, 27217, Control_c, 14, 11, 53
23, 27259, Control_c, 14, 11, 54
23, 27301, Control_c, 14, 11, 55
23, 27343, Control_c, 14, 11, 56
23, 27385, Control_c, 14, 11, 57
23, 27427, Control_c, 14, 11, 58
23, 27456, Note_on_c, 14, 45, 0
23, 27456, Note_on_c, 14, 47, 88
23, 27470, Control_c, 14, 11, 59
23, 27512, Control_c, 14, 11, 60
23, 27554, Control_c, 14, 11, 61
23, 27596, Control_c, 14, 11, 62
23, 27638, Control_c, 14, 11, 63
23, 27680, Control_c, 14, 11, 64
23, 27722, Control_c, 14, 11, 65
23, 27744, Note_on_c, 14, 47, 0
23, 27744, Note_on_c, 14, 45, 96
23, 27765, Control_c, 14, 11, 66
23, 27807, Control_c, 14, 11, 67
23, 27849, Control_c, 14, 11, 68
23, 27891, Control_c, 14, 11, 69
23, 27933, Control_c, 14, 11, 70
23, 27975, Control_c, 14, 11, 71
23, 28017, Control_c, 14, 11, 72
23, 28032, Note_on_c, 14, 45, 0
23, 28032, Note_on_c, 14, 47, 92
23, 28060, Control_c, 14, 11, 73
23, 28102, Control_c, 14, 11, 74
23, 28144, Control_c, 14, 11, 75
23, 28186, Control_c, 14, 11, 76
23, 28228, Control_c, 14, 11, 77
23, 28270, Control_c, 14, 11, 78
23, 28312, Control_c, 14, 11, 79
23, 28320, Note_on_c, 14, 47, 0
23, 28320, Note_on_c, 14, 45, 94
23, 28355, Control_c, 14, 11, 80
23, 28397, Control_c, 14, 11, 81
23, 28439, Control_c, 14, 11, 82
23, 28481, Control_c, 14, 11, 83
23, 28523, Control_c, 14, 11, 84
23, 28565, Control_c, 14, 11, 85
23, 28608, Note_on_c, 14, 45, 0
23, 28608, Control_c, 14, 11, 86
23, 28608, Note_on_c, 14, 47, 93
23, 28650, Control_c, 14, 11, 87
23, 28692, Control_c, 14, 11, 88
23, 28734, Control_c, 14, 11, 89
23, 28776, Control_c, 14, 11, 90
23, 28818, Control_c, 14, 11, 91
23, 28860, Control_c, 14, 11, 92
23, 28896, Note_on_c, 14, 47, 0
23, 28896, Note_on_c, 14, 45, 97
23, 28903, Control_c, 14, 11, 93
23, 28945, Control_c, 14, 11, 94
23, 28987, Control_c, 14, 11, 95
23, 29029, Control_c, 14, 11, 96
23, 29071, Control_c, 14, 11, 97
23, 29113, Control_c, 14, 11, 98
23, 29155, Control_c, 14, 11, 99
23, 29184, Note_on_c, 14, 45, 0
23, 29184, Note_on_c, 14, 47, 91
23, 29198, Control_c, 14, 11, 100
23, 29240, Control_c, 14, 11, 101
23, 29282, Control_c, 14, 11, 102
23, 29324, Control_c, 14, 11, 103
23, 29366, Control_c, 14, 11, 104
23, 29408, Control_c, 14, 11, 105
23, 29450, Control_c, 14, 11, 106
23, 29472, Note_on_c, 14, 47, 0
23, 29472, Note_on_c, 14, 45, 91
23, 29493, Control_c, 14, 11, 107
23, 29535, Control_c, 14, 11, 108
23, 29577, Control_c, 14, 11, 109
23, 29619, Control_c, 14, 11, 110
23, 29661, Control_c, 14, 11, 111
23, 29703, Control_c, 14, 11, 112
23, 29745, Control_c, 14, 11, 113
23, 29760, Note_on_c, 14, 45, 0
23, 29760, Note_on_c, 14, 47, 94
23, 29788, Control_c, 14, 11, 114
23, 29830, Control_c, 14, 11, 115
23, 29872, Control_c, 14, 11, 116
23, 29914, Control_c, 14, 11, 117
23, 29956, Control_c, 14, 11, 118
23, 29998, Control_c, 14, 11, 119
23, 30040, Control_c, 14, 11, 120
23, 30048, Note_on_c, 14, 47, 0
23, 30048, Note_on_c, 14, 45, 97
23, 30083, Control_c, 14, 11, 121
23, 30125, Control_c, 14, 11, 122
23, 30167, Control_c, 14, 11, 123
23, 30209, Control_c, 14, 11, 124
23, 30251, Control_c, 14, 11, 125
23, 30293, Control_c, 14, 11, 126
23, 30336, Note_on_c, 14, 45, 0
23, 30336, Control_c, 14, 11, 127
23, 30336, Program_c, 14, 48
23, 31008, Control_c, 14, 11, 127
23, 31008, Note_on_c, 14, 53, 58
23, 31016, Control_c, 14, 11, 126
23, 31024, Control_c, 14, 11, 125
23, 31032, Control_c, 14, 11, 124
23, 31038, Note_on_c, 14, 53, 0
23, 31040, Control_c, 14, 11, 123
23, 31040, Note_on_c, 14, 51, 58
23, 31049, Control_c, 14, 11, 122
23, 31057, Control_c, 14, 11, 121
23, 31065, Control_c, 14, 11, 120
23, 31070, Note_on_c, 14, 51, 0
23, 31072, Note_on_c, 14, 49, 65
23, 31073, Control_c, 14, 11, 119
23, 31082, Control_c, 14, 11, 118
23, 31090, Control_c, 14, 11, 117
23, 31098, Control_c, 14, 11, 116
23, 31106, Control_c, 14, 11, 115
23, 31114, Control_c, 14, 11, 114
23, 31123, Control_c, 14, 11, 113
23, 31131, Control_c, 14, 11, 112
23, 31139, Control_c, 14, 11, 111
23, 31147, Control_c, 14, 11, 110
23, 31150, Note_on_c, 14, 49, 0
23, 31152, Note_on_c, 14, 51, 58
23, 31156, Control_c, 14, 11, 109
23, 31164, Control_c, 14, 11, 108
23, 31172, Control_c, 14, 11, 107
23, 31180, Control_c, 14, 11, 106
23, 31189, Control_c, 14, 11, 105
23, 31197, Control_c, 14, 11, 104
23, 31205, Control_c, 14, 11, 103
23, 31213, Control_c, 14, 11, 102
23, 31221, Control_c, 14, 11, 101
23, 31230, Control_c, 14, 11, 100
23, 31238, Control_c, 14, 11, 99
23, 31246, Control_c, 14, 11, 98
23, 31254, Control_c, 14, 11, 97
23, 31263, Control_c, 14, 11, 96
23, 31271, Control_c, 14, 11, 95
23, 31279, Control_c, 14, 11, 94
23, 31287, Control_c, 14, 11, 93
23, 31294, Note_on_c, 14, 51, 0
23, 31296, Control_c, 14, 11, 92
23, 31296, Control_c, 14, 11, 127
23, 31296, Note_on_c, 14, 53, 56
23, 31304, Control_c, 14, 11, 126
23, 31312, Control_c, 14, 11, 125
23, 31320, Control_c, 14, 11, 124
23, 31326, Note_on_c, 14, 53, 0
23, 31328, Control_c, 14, 11, 123
23, 31328, Note_on_c, 14, 51, 60
23, 31337, Control_c, 14, 11, 122
23, 31345, Control_c, 14, 11, 121
23, 31353, Control_c, 14, 11, 120
23, 31358, Note_on_c, 14, 51, 0
23, 31360, Note_on_c, 14, 49, 55
23, 31361, Control_c, 14, 11, 119
23, 31370, Control_c, 14, 11, 118
23, 31378, Control_c, 14, 11, 117
23, 31386, Control_c, 14, 11, 116
23, 31394, Control_c, 14, 11, 115
23, 31402, Control_c, 14, 11, 114
23, 31411, Control_c, 14, 11, 113
23, 31419, Control_c, 14, 11, 112
23, 31427, Control_c, 14, 11, 111
23, 31435, Control_c, 14, 11, 110
23, 31438, Note_on_c, 14, 49, 0
23, 31440, Note_on_c, 14, 51, 55
23, 31444, Control_c, 14, 11, 109
23, 31452, Control_c, 14, 11, 108
23, 31460, Control_c, 14, 11, 107
23, 31468, Control_c, 14, 11, 106
23, 31477, Control_c, 14, 11, 105
23, 31485, Control_c, 14, 11, 104
23, 31493, Control_c, 14, 11, 103
23, 31501, Control_c, 14, 11, 102
23, 31509, Control_c, 14, 11, 101
23, 31518, Control_c, 14, 11, 100
23, 31526, Control_c, 14, 11, 99
23, 31534, Control_c, 14, 11, 98
23, 31542, Control_c, 14, 11, 97
23, 31551, Control_c, 14, 11, 96
23, 31559, Control_c, 14, 11, 95
23, 31567, Control_c, 14, 11, 94
23, 31575, Control_c, 14, 11, 93
23, 31582, Note_on_c, 14, 51, 0
23, 31584, Control_c, 14, 11, 92
23, 31584, Control_c, 14, 11, 127
23, 31584, Note_on_c, 14, 53, 62
23, 31592, Control_c, 14, 11, 126
23, 31600, Control_c, 14, 11, 125
23, 31608, Control_c, 14, 11, 124
23, 31614, Note_on_c, 14, 53, 0
23, 31616, Control_c, 14, 11, 123
23, 31616, Note_on_c, 14, 51, 57
23, 31625, Control_c, 14, 11, 122
23, 31633, Control_c, 14, 11, 121
23, 31641, Control_c, 14, 11, 120
23, 31646, Note_on_c, 14, 51, 0
23, 31648, Note_on_c, 14, 49, 55
23, 31649, Control_c, 14, 11, 119
23, 31658, Control_c, 14, 11, 118
23, 31666, Control_c, 14, 11, 117
23, 31674, Control_c, 14, 11, 116
23, 31682, Control_c, 14, 11, 115
23, 31690, Control_c, 14, 11, 114
23, 31699, Control_c, 14, 11, 113
23, 31707, Control_c, 14, 11, 112
23, 31715, Control_c, 14, 11, 111
23, 31723, Control_c, 14, 11, 110
23, 31726, Note_on_c, 14, 49, 0
23, 31728, Note_on_c, 14, 51, 55
23, 31732, Control_c, 14, 11, 109
23, 31740, Control_c, 14, 11, 108
23, 31748, Control_c, 14, 11, 107
23, 31756, Control_c, 14, 11, 106
23, 31765, Control_c, 14, 11, 105
23, 31773, Control_c, 14, 11, 104
23, 31781, Control_c, 14, 11, 103
23, 31789, Control_c, 14, 11, 102
23, 31797, Control_c, 14, 11, 101
23, 31806, Control_c, 14, 11, 100
23, 31814, Control_c, 14, 11, 99
23, 31822, Control_c, 14, 11, 98
23, 31830, Control_c, 14, 11, 97
23, 31839, Control_c, 14, 11, 96
23, 31847, Control_c, 14, 11, 95
23, 31855, Control_c, 14, 11, 94
23, 31863, Control_c, 14, 11, 93
23, 31870, Note_on_c, 14, 51, 0
23, 31872, Control_c, 14, 11, 92
23, 31872, Control_c, 14, 11, 127
23, 31872, Note_on_c, 14, 53, 58
23, 31880, Control_c, 14, 11, 126
23, 31888, Control_c, 14, 11, 125
23, 31896, Control_c, 14, 11, 124
23, 31902, Note_on_c, 14, 53, 0
23, 31904, Control_c, 14, 11, 123
23, 31904, Note_on_c, 14, 51, 56
23, 31913, Control_c, 14, 11, 122
23, 31921, Control_c, 14, 11, 121
23, 31929, Control_c, 14, 11, 120
23, 31934, Note_on_c, 14, 51, 0
23, 31936, Note_on_c, 14, 49, 63
23, 31937, Control_c, 14, 11, 119
23, 31946, Control_c, 14, 11, 118
23, 31954, Control_c, 14, 11, 117
23, 31962, Control_c, 14, 11, 116
23, 31970, Control_c, 14, 11, 115
23, 31978, Control_c, 14, 11, 114
23, 31987, Control_c, 14, 11, 113
23, 31995, Control_c, 14, 11, 112
23, 32003, Control_c, 14, 11, 111
23, 32011, Control_c, 14, 11, 110
23, 32014, Note_on_c, 14, 49, 0
23, 32016, Note_on_c, 14, 51, 58
23, 32020, Control_c, 14, 11, 109
23, 32028, Control_c, 14, 11, 108
23, 32036, Control_c, 14, 11, 107
23, 32044, Control_c, 14, 11, 106
23, 32053, Control_c, 14, 11, 105
23, 32061, Control_c, 14, 11, 104
23, 32069, Control_c, 14, 11, 103
23, 32077, Control_c, 14, 11, 102
23, 32085, Control_c, 14, 11, 101
23, 32094, Control_c, 14, 11, 100
23, 32102, Control_c, 14, 11, 99
23, 32110, Control_c, 14, 11, 98
23, 32118, Control_c, 14, 11, 97
23, 32127, Control_c, 14, 11, 96
23, 32135, Control_c, 14, 11, 95
23, 32143, Control_c, 14, 11, 94
23, 32151, Control_c, 14, 11, 93
23, 32158, Note_on_c, 14, 51, 0
23, 32160, Control_c, 14, 11, 92
23, 32160, Control_c, 14, 11, 127
23, 32160, Note_on_c, 14, 53, 64
23, 32168, Control_c, 14, 11, 126
23, 32176, Control_c, 14, 11, 125
23, 32184, Control_c, 14, 11, 124
23, 32190, Note_on_c, 14, 53, 0
23, 32192, Control_c, 14, 11, 123
23, 32192, Note_on_c, 14, 51, 58
23, 32201, Control_c, 14, 11, 122
23, 32209, Control_c, 14, 11, 121
23, 32217, Control_c, 14, 11, 120
23, 32222, Note_on_c, 14, 51, 0
23, 32224, Note_on_c, 14, 49, 56
23, 32225, Control_c, 14, 11, 119
23, 32234, Control_c, 14, 11, 118
23, 32242, Control_c, 14, 11, 117
23, 32250, Control_c, 14, 11, 116
23, 32258, Control_c, 14, 11, 115
23, 32266, Control_c, 14, 11, 114
23, 32275, Control_c, 14, 11, 113
23, 32283, Control_c, 14, 11, 112
23, 32291, Control_c, 14, 11, 111
23, 32299, Control_c, 14, 11, 110
23, 32302, Note_on_c, 14, 49, 0
23, 32304, Note_on_c, 14, 51, 58
23, 32308, Control_c, 14, 11, 109
23, 32316, Control_c, 14, 11, 108
23, 32324, Control_c, 14, 11, 107
23, 32332, Control_c, 14, 11, 106
23, 32341, Control_c, 14, 11, 105
23, 32349, Control_c, 14, 11, 104
23, 32357, Control_c, 14, 11, 103
23, 32365, Control_c, 14, 11, 102
23, 32373, Control_c, 14, 11, 101
23, 32382, Control_c, 14, 11, 100
23, 32390, Control_c, 14, 11, 99
23, 32398, Control_c, 14, 11, 98
23, 32406, Control_c, 14, 11, 97
23, 32415, Control_c, 14, 11, 96
23, 32423, Control_c, 14, 11, 95
23, 32431, Control_c, 14, 11, 94
23, 32439, Control_c, 14, 11, 93
23, 32446, Note_on_c, 14, 51, 0
23, 32448, Control_c, 14, 11, 92
23, 32448, Control_c, 14, 11, 127
23, 32448, Note_on_c, 14, 53, 62
23, 32456, Control_c, 14, 11, 126
23, 32464, Control_c, 14, 11, 125
23, 32472, Control_c, 14, 11, 124
23, 32478, Note_on_c, 14, 53, 0
23, 32480, Control_c, 14, 11, 123
23, 32480, Note_on_c, 14, 51, 55
23, 32489, Control_c, 14, 11, 122
23, 32497, Control_c, 14, 11, 121
23, 32505, Control_c, 14, 11, 120
23, 32510, Note_on_c, 14, 51, 0
23, 32512, Note_on_c, 14, 49, 64
23, 32513, Control_c, 14, 11, 119
23, 32522, Control_c, 14, 11, 118
23, 32530, Control_c, 14, 11, 117
23, 32538, Control_c, 14, 11, 116
23, 32546, Control_c, 14, 11, 115
23, 32554, Control_c, 14, 11, 114
23, 32563, Control_c, 14, 11, 113
23, 32571, Control_c, 14, 11, 112
23, 32579, Control_c, 14, 11, 111
23, 32587, Control_c, 14, 11, 110
23, 32590, Note_on_c, 14, 49, 0
23, 32592, Note_on_c, 14, 51, 55
23, 32596, Control_c, 14, 11, 109
23, 32604, Control_c, 14, 11, 108
23, 32612, Control_c, 14, 11, 107
23, 32620, Control_c, 14, 11, 106
23, 32629, Control_c, 14, 11, 105
23, 32637, Control_c, 14, 11, 104
23, 32645, Control_c, 14, 11, 103
23, 32653, Control_c, 14, 11, 102
23, 32661, Control_c, 14, 11, 101
23, 32670, Control_c, 14, 11, 100
23, 32678, Control_c, 14, 11, 99
23, 32686, Control_c, 14, 11, 98
23, 32694, Control_c, 14, 11, 97
23, 32703, Control_c, 14, 11, 96
23, 32711, Control_c, 14, 11, 95
23, 32719, Control_c, 14, 11, 94
23, 32727, Control_c, 14, 11, 93
23, 32734, Note_on_c, 14, 51, 0
23, 32736, Control_c, 14, 11, 92
23, 32736, Control_c, 14, 11, 127
23, 32736, Note_on_c, 14, 53, 42
23, 32744, Control_c, 14, 11, 126
23, 32752, Control_c, 14, 11, 125
23, 32760, Control_c, 14, 11, 124
23, 32766, Note_on_c, 14, 53, 0
23, 32768, Control_c, 14, 11, 123
23, 32768, Note_on_c, 14, 51, 41
23, 32777, Control_c, 14, 11, 122
23, 32785, Control_c, 14, 11, 121
23, 32793, Control_c, 14, 11, 120
23, 32798, Note_on_c, 14, 51, 0
23, 32800, Note_on_c, 14, 49, 49
23, 32801, Control_c, 14, 11, 119
23, 32810, Control_c, 14, 11, 118
23, 32818, Control_c, 14, 11, 117
23, 32826, Control_c, 14, 11, 116
23, 32834, Control_c, 14, 11, 115
23, 32842, Control_c, 14, 11, 114
23, 32851, Control_c, 14, 11, 113
23, 32859, Control_c, 14, 11, 112
23, 32867, Control_c, 14, 11, 111
23, 32875, Control_c, 14, 11, 110
23, 32878, Note_on_c, 14, 49, 0
23, 32880, Note_on_c, 14, 51, 40
23, 32884, Control_c, 14, 11, 109
23, 32892, Control_c, 14, 11, 108
23, 32900, Control_c, 14, 11, 107
23, 32908, Control_c, 14, 11, 106
23, 32917, Control_c, 14, 11, 105
23, 32925, Control_c, 14, 11, 104
23, 32933, Control_c, 14, 11, 103
23, 32941, Control_c, 14, 11, 102
23, 32949, Control_c, 14, 11, 101
23, 32958, Control_c, 14, 11, 100
23, 32966, Control_c, 14, 11, 99
23, 32974, Control_c, 14, 11, 98
23, 32982, Control_c, 14, 11, 97
23, 32991, Control_c, 14, 11, 96
23, 32999, Control_c, 14, 11, 95
23, 33007, Control_c, 14, 11, 94
23, 33015, Control_c, 14, 11, 93
23, 33022, Note_on_c, 14, 51, 0
23, 33024, Control_c, 14, 11, 92
23, 33024, Control_c, 14, 11, 127
23, 33024, Note_on_c, 14, 53, 40
23, 33032, Control_c, 14, 11, 126
23, 33040, Control_c, 14, 11, 125
23, 33048, Control_c, 14, 11, 124
23, 33054, Note_on_c, 14, 53, 0
23, 33056, Control_c, 14, 11, 123
23, 33056, Note_on_c, 14, 51, 45
23, 33065, Control_c, 14, 11, 122
23, 33073, Control_c, 14, 11, 121
23, 33081, Control_c, 14, 11, 120
23, 33086, Note_on_c, 14, 51, 0
23, 33088, Note_on_c, 14, 49, 42
23, 33089, Control_c, 14, 11, 119
23, 33098, Control_c, 14, 11, 118
23, 33106, Control_c, 14, 11, 117
23, 33114, Control_c, 14, 11, 116
23, 33122, Control_c, 14, 11, 115
23, 33130, Control_c, 14, 11, 114
23, 33139, Control_c, 14, 11, 113
23, 33147, Control_c, 14, 11, 112
23, 33155, Control_c, 14, 11, 111
23, 33163, Control_c, 14, 11, 110
23, 33166, Note_on_c, 14, 49, 0
23, 33168, Note_on_c, 14, 51, 41
23, 33172, Control_c, 14, 11, 109
23, 33180, Control_c, 14, 11, 108
23, 33188, Control_c, 14, 11, 107
23, 33196, Control_c, 14, 11, 106
23, 33205, Control_c, 14, 11, 105
23, 33213, Control_c, 14, 11, 104
23, 33221, Control_c, 14, 11, 103
23, 33229, Control_c, 14, 11, 102
23, 33237, Control_c, 14, 11, 101
23, 33246, Control_c, 14, 11, 100
23, 33254, Control_c, 14, 11, 99
23, 33262, Control_c, 14, 11, 98
23, 33270, Control_c, 14, 11, 97
23, 33279, Control_c, 14, 11, 96
23, 33287, Control_c, 14, 11, 95
23, 33295, Control_c, 14, 11, 94
23, 33303, Control_c, 14, 11, 93
23, 33310, Note_on_c, 14, 51, 0
23, 33312, Control_c, 14, 11, 92
23, 33312, Control_c, 14, 11, 127
23, 33312, Note_on_c, 14, 53, 42
23, 33320, Control_c, 14, 11, 126
23, 33328, Control_c, 14, 11, 125
23, 33336, Control_c, 14, 11, 124
23, 33342, Note_on_c, 14, 53, 0
23, 33344, Control_c, 14, 11, 123
23, 33344, Note_on_c, 14, 51, 50
23, 33353, Control_c, 14, 11, 122
23, 33361, Control_c, 14, 11, 121
23, 33369, Control_c, 14, 11, 120
23, 33374, Note_on_c, 14, 51, 0
23, 33376, Note_on_c, 14, 49, 46
23, 33377, Control_c, 14, 11, 119
23, 33386, Control_c, 14, 11, 118
23, 33394, Control_c, 14, 11, 117
23, 33402, Control_c, 14, 11, 116
23, 33410, Control_c, 14, 11, 115
23, 33418, Control_c, 14, 11, 114
23, 33427, Control_c, 14, 11, 113
23, 33435, Control_c, 14, 11, 112
23, 33443, Control_c, 14, 11, 111
23, 33451, Control_c, 14, 11, 110
23, 33454, Note_on_c, 14, 49, 0
23, 33456, Note_on_c, 14, 51, 46
23, 33460, Control_c, 14, 11, 109
23, 33468, Control_c, 14, 11, 108
23, 33476, Control_c, 14, 11, 107
23, 33484, Control_c, 14, 11, 106
23, 33493, Control_c, 14, 11, 105
23, 33501, Control_c, 14, 11, 104
23, 33509, Control_c, 14, 11, 103
23, 33517, Control_c, 14, 11, 102
23, 33525, Control_c, 14, 11, 101
23, 33534, Control_c, 14, 11, 100
23, 33542, Control_c, 14, 11, 99
23, 33550, Control_c, 14, 11, 98
23, 33558, Control_c, 14, 11, 97
23, 33567, Control_c, 14, 11, 96
23, 33575, Control_c, 14, 11, 95
23, 33583, Control_c, 14, 11, 94
23, 33591, Control_c, 14, 11, 93
23, 33598, Note_on_c, 14, 51, 0
23, 33600, Control_c, 14, 11, 92
23, 33600, Control_c, 14, 11, 127
23, 33600, Note_on_c, 14, 53, 44
23, 33608, Control_c, 14, 11, 126
23, 33616, Control_c, 14, 11, 125
23, 33624, Control_c, 14, 11, 124
23, 33630, Note_on_c, 14, 53, 0
23, 33632, Control_c, 14, 11, 123
23, 33632, Note_on_c, 14, 51, 45
23, 33641, Control_c, 14, 11, 122
23, 33649, Control_c, 14, 11, 121
23, 33657, Control_c, 14, 11, 120
23, 33662, Note_on_c, 14, 51, 0
23, 33664, Note_on_c, 14, 49, 44
23, 33665, Control_c, 14, 11, 119
23, 33674, Control_c, 14, 11, 118
23, 33682, Control_c, 14, 11, 117
23, 33690, Control_c, 14, 11, 116
23, 33698, Control_c, 14, 11, 115
23, 33706, Control_c, 14, 11, 114
23, 33715, Control_c, 14, 11, 113
23, 33723, Control_c, 14, 11, 112
23, 33731, Control_c, 14, 11, 111
23, 33739, Control_c, 14, 11, 110
23, 33742, Note_on_c, 14, 49, 0
23, 33744, Note_on_c, 14, 51, 42
23, 33748, Control_c, 14, 11, 109
23, 33756, Control_c, 14, 11, 108
23, 33764, Control_c, 14, 11, 107
23, 33772, Control_c, 14, 11, 106
23, 33781, Control_c, 14, 11, 105
23, 33789, Control_c, 14, 11, 104
23, 33797, Control_c, 14, 11, 103
23, 33805, Control_c, 14, 11, 102
23, 33813, Control_c, 14, 11, 101
23, 33822, Control_c, 14, 11, 100
23, 33830, Control_c, 14, 11, 99
23, 33838, Control_c, 14, 11, 98
23, 33846, Control_c, 14, 11, 97
23, 33855, Control_c, 14, 11, 96
23, 33863, Control_c, 14, 11, 95
23, 33871, Control_c, 14, 11, 94
23, 33879, Control_c, 14, 11, 93
23, 33886, Note_on_c, 14, 51, 0
23, 33888, Control_c, 14, 11, 92
23, 33888, Control_c, 14, 11, 127
23, 33888, Note_on_c, 14, 53, 40
23, 33896, Control_c, 14, 11, 126
23, 33904, Control_c, 14, 11, 125
23, 33912, Control_c, 14, 11, 124
23, 33918, Note_on_c, 14, 53, 0
23, 33920, Control_c, 14, 11, 123
23, 33920, Note_on_c, 14, 51, 49
23, 33929, Control_c, 14, 11, 122
23, 33937, Control_c, 14, 11, 121
23, 33945, Control_c, 14, 11, 120
23, 33950, Note_on_c, 14, 51, 0
23, 33952, Note_on_c, 14, 49, 47
23, 33953, Control_c, 14, 11, 119
23, 33962, Control_c, 14, 11, 118
23, 33970, Control_c, 14, 11, 117
23, 33978, Control_c, 14, 11, 116
23, 33986, Control_c, 14, 11, 115
23, 33994, Control_c, 14, 11, 114
23, 34003, Control_c, 14, 11, 113
23, 34011, Control_c, 14, 11, 112
23, 34019, Control_c, 14, 11, 111
23, 34027, Control_c, 14, 11, 110
23, 34030, Note_on_c, 14, 49, 0
23, 34032, Note_on_c, 14, 51, 41
23, 34036, Control_c, 14, 11, 109
23, 34044, Control_c, 14, 11, 108
23, 34052, Control_c, 14, 11, 107
23, 34060, Control_c, 14, 11, 106
23, 34069, Control_c, 14, 11, 105
23, 34077, Control_c, 14, 11, 104
23, 34085, Control_c, 14, 11, 103
23, 34093, Control_c, 14, 11, 102
23, 34101, Control_c, 14, 11, 101
23, 34110, Control_c, 14, 11, 100
23, 34118, Control_c, 14, 11, 99
23, 34126, Control_c, 14, 11, 98
23, 34134, Control_c, 14, 11, 97
23, 34143, Control_c, 14, 11, 96
23, 34151, Control_c, 14, 11, 95
23, 34159, Control_c, 14, 11, 94
23, 34167, Control_c, 14, 11, 93
23, 34174, Note_on_c, 14, 51, 0
23, 34176, Control_c, 14, 11, 92
23, 34176, Control_c, 14, 11, 127
23, 34176, Note_on_c, 14, 53, 46
23, 34184, Control_c, 14, 11, 126
23, 34192, Control_c, 14, 11, 125
23, 34200, Control_c, 14, 11, 124
23, 34206, Note_on_c, 14, 53, 0
23, 34208, Control_c, 14, 11, 123
23, 34208, Note_on_c, 14, 51, 41
23, 34217, Control_c, 14, 11, 122
23, 34225, Control_c, 14, 11, 121
23, 34233, Control_c, 14, 11, 120
23, 34238, Note_on_c, 14, 51, 0
23, 34240, Note_on_c, 14, 49, 44
23, 34241, Control_c, 14, 11, 119
23, 34250, Control_c, 14, 11, 118
23, 34258, Control_c, 14, 11, 117
23, 34266, Control_c, 14, 11, 116
23, 34274, Control_c, 14, 11, 115
23, 34282, Control_c, 14, 11, 114
23, 34291, Control_c, 14, 11, 113
23, 34299, Control_c, 14, 11, 112
23, 34307, Control_c, 14, 11, 111
23, 34315, Control_c, 14, 11, 110
23, 34318, Note_on_c, 14, 49, 0
23, 34320, Note_on_c, 14, 51, 40
23, 34324, Control_c, 14, 11, 109
23, 34332, Control_c, 14, 11, 108
23, 34340, Control_c, 14, 11, 107
23, 34348, Control_c, 14, 11, 106
23, 34357, Control_c, 14, 11, 105
23, 34365, Control_c, 14, 11, 104
23, 34373, Control_c, 14, 11, 103
23, 34381, Control_c, 14, 11, 102
23, 34389, Control_c, 14, 11, 101
23, 34398, Control_c, 14, 11, 100
23, 34406, Control_c, 14, 11, 99
23, 34414, Control_c, 14, 11, 98
23, 34422, Control_c, 14, 11, 97
23, 34431, Control_c, 14, 11, 96
23, 34439, Control_c, 14, 11, 95
23, 34447, Control_c, 14, 11, 94
23, 34455, Control_c, 14, 11, 93
23, 34462, Note_on_c, 14, 51, 0
23, 34464, Control_c, 14, 11, 92
23, 34464, Control_c, 14, 11, 127
23, 34464, Note_on_c, 14, 53, 42
23, 34472, Control_c, 14, 11, 126
23, 34480, Control_c, 14, 11, 125
23, 34488, Control_c, 14, 11, 124
23, 34494, Note_on_c, 14, 53, 0
23, 34496, Control_c, 14, 11, 123
23, 34496, Note_on_c, 14, 51, 46
23, 34505, Control_c, 14, 11, 122
23, 34513, Control_c, 14, 11, 121
23, 34521, Control_c, 14, 11, 120
23, 34526, Note_on_c, 14, 51, 0
23, 34528, Note_on_c, 14, 49, 47
23, 34529, Control_c, 14, 11, 119
23, 34538, Control_c, 14, 11, 118
23, 34546, Control_c, 14, 11, 117
23, 34554, Control_c, 14, 11, 116
23, 34562, Control_c, 14, 11, 115
23, 34570, Control_c, 14, 11, 114
23, 34579, Control_c, 14, 11, 113
23, 34587, Control_c, 14, 11, 112
23, 34595, Control_c, 14, 11, 111
23, 34603, Control_c, 14, 11, 110
23, 34606, Note_on_c, 14, 49, 0
23, 34608, Note_on_c, 14, 51, 41
23, 34612, Control_c, 14, 11, 109
23, 34620, Control_c, 14, 11, 108
23, 34628, Control_c, 14, 11, 107
23, 34636, Control_c, 14, 11, 106
23, 34645, Control_c, 14, 11, 105
23, 34653, Control_c, 14, 11, 104
23, 34661, Control_c, 14, 11, 103
23, 34669, Control_c, 14, 11, 102
23, 34677, Control_c, 14, 11, 101
23, 34686, Control_c, 14, 11, 100
23, 34694, Control_c, 14, 11, 99
23, 34702, Control_c, 14, 11, 98
23, 34710, Control_c, 14, 11, 97
23, 34719, Control_c, 14, 11, 96
23, 34727, Control_c, 14, 11, 95
23, 34735, Control_c, 14, 11, 94
23, 34743, Control_c, 14, 11, 93
23, 34750, Note_on_c, 14, 51, 0
23, 34752, Control_c, 14, 11, 92
23, 34752, Control_c, 14, 11, 127
23, 34752, Note_on_c, 14, 53, 50
23, 34760, Control_c, 14, 11, 126
23, 34768, Control_c, 14, 11, 125
23, 34776, Control_c, 14, 11, 124
23, 34782, Note_on_c, 14, 53, 0
23, 34784, Control_c, 14, 11, 123
23, 34784, Note_on_c, 14, 51, 40
23, 34793, Control_c, 14, 11, 122
23, 34801, Control_c, 14, 11, 121
23, 34809, Control_c, 14, 11, 120
23, 34814, Note_on_c, 14, 51, 0
23, 34816, Note_on_c, 14, 49, 48
23, 34817, Control_c, 14, 11, 119
23, 34826, Control_c, 14, 11, 118
23, 34834, Control_c, 14, 11, 117
23, 34842, Control_c, 14, 11, 116
23, 34850, Control_c, 14, 11, 115
23, 34858, Control_c, 14, 11, 114
23, 34867, Control_c, 14, 11, 113
23, 34875, Control_c, 14, 11, 112
23, 34883, Control_c, 14, 11, 111
23, 34891, Control_c, 14, 11, 110
23, 34894, Note_on_c, 14, 49, 0
23, 34896, Note_on_c, 14, 51, 43
23, 34900, Control_c, 14, 11, 109
23, 34908, Control_c, 14, 11, 108
23, 34916, Control_c, 14, 11, 107
23, 34924, Control_c, 14, 11, 106
23, 34933, Control_c, 14, 11, 105
23, 34941, Control_c, 14, 11, 104
23, 34949, Control_c, 14, 11, 103
23, 34957, Control_c, 14, 11, 102
23, 34965, Control_c, 14, 11, 101
23, 34974, Control_c, 14, 11, 100
23, 34982, Control_c, 14, 11, 99
23, 34990, Control_c, 14, 11, 98
23, 34998, Control_c, 14, 11, 97
23, 35007, Control_c, 14, 11, 96
23, 35015, Control_c, 14, 11, 95
23, 35023, Control_c, 14, 11, 94
23, 35031, Control_c, 14, 11, 93
23, 35038, Note_on_c, 14, 51, 0
23, 35040, Control_c, 14, 11, 92
23, 35040, Control_c, 14, 11, 127
23, 35040, Note_on_c, 14, 53, 49
23, 35048, Control_c, 14, 11, 126
23, 35056, Control_c, 14, 11, 125
23, 35064, Control_c, 14, 11, 124
23, 35070, Note_on_c, 14, 53, 0
23, 35072, Control_c, 14, 11, 123
23, 35072, Note_on_c, 14, 51, 47
23, 35081, Control_c, 14, 11, 122
23, 35089, Control_c, 14, 11, 121
23, 35097, Control_c, 14, 11, 120
23, 35102, Note_on_c, 14, 51, 0
23, 35104, Note_on_c, 14, 49, 43
23, 35105, Control_c, 14, 11, 119
23, 35114, Control_c, 14, 11, 118
23, 35122, Control_c, 14, 11, 117
23, 35130, Control_c, 14, 11, 116
23, 35138, Control_c, 14, 11, 115
23, 35146, Control_c, 14, 11, 114
23, 35155, Control_c, 14, 11, 113
23, 35163, Control_c, 14, 11, 112
23, 35171, Control_c, 14, 11, 111
23, 35179, Control_c, 14, 11, 110
23, 35182, Note_on_c, 14, 49, 0
23, 35184, Note_on_c, 14, 51, 48
23, 35188, Control_c, 14, 11, 109
23, 35196, Control_c, 14, 11, 108
23, 35204, Control_c, 14, 11, 107
23, 35212, Control_c, 14, 11, 106
23, 35221, Control_c, 14, 11, 105
23, 35229, Control_c, 14, 11, 104
23, 35237, Control_c, 14, 11, 103
23, 35245, Control_c, 14, 11, 102
23, 35253, Control_c, 14, 11, 101
23, 35262, Control_c, 14, 11, 100
23, 35270, Control_c, 14, 11, 99
23, 35278, Control_c, 14, 11, 98
23, 35286, Control_c, 14, 11, 97
23, 35295, Control_c, 14, 11, 96
23, 35303, Control_c, 14, 11, 95
23, 35311, Control_c, 14, 11, 94
23, 35319, Control_c, 14, 11, 93
23, 35326, Note_on_c, 14, 51, 0
23, 35328, Control_c, 14, 11, 92
23, 35328, Control_c, 14, 11, 127
23, 35328, Note_on_c, 14, 53, 42
23, 35336, Control_c, 14, 11, 126
23, 35344, Control_c, 14, 11, 125
23, 35352, Control_c, 14, 11, 124
23, 35358, Note_on_c, 14, 53, 0
23, 35360, Control_c, 14, 11, 123
23, 35360, Note_on_c, 14, 51, 45
23, 35369, Control_c, 14, 11, 122
23, 35377, Control_c, 14, 11, 121
23, 35385, Control_c, 14, 11, 120
23, 35390, Note_on_c, 14, 51, 0
23, 35392, Note_on_c, 14, 49, 49
23, 35393, Control_c, 14, 11, 119
23, 35402, Control_c, 14, 11, 118
23, 35410, Control_c, 14, 11, 117
23, 35418, Control_c, 14, 11, 116
23, 35426, Control_c, 14, 11, 115
23, 35434, Control_c, 14, 11, 114
23, 35443, Control_c, 14, 11, 113
23, 35451, Control_c, 14, 11, 112
23, 35459, Control_c, 14, 11, 111
23, 35467, Control_c, 14, 11, 110
23, 35470, Note_on_c, 14, 49, 0
23, 35472, Note_on_c, 14, 51, 43
23, 35476, Control_c, 14, 11, 109
23, 35484, Control_c, 14, 11, 108
23, 35492, Control_c, 14, 11, 107
23, 35500, Control_c, 14, 11, 106
23, 35509, Control_c, 14, 11, 105
23, 35517, Control_c, 14, 11, 104
23, 35525, Control_c, 14, 11, 103
23, 35533, Control_c, 14, 11, 102
23, 35541, Control_c, 14, 11, 101
23, 35550, Control_c, 14, 11, 100
23, 35558, Control_c, 14, 11, 99
23, 35566, Control_c, 14, 11, 98
23, 35574, Control_c, 14, 11, 97
23, 35583, Control_c, 14, 11, 96
23, 35591, Control_c, 14, 11, 95
23, 35599, Control_c, 14, 11, 94
23, 35607, Control_c, 14, 11, 93
23, 35614, Note_on_c, 14, 51, 0
23, 35616, Control_c, 14, 11, 92
23, 35616, Control_c, 14, 11, 127
23, 35616, Note_on_c, 14, 53, 47
23, 35624, Control_c, 14, 11, 126
23, 35632, Control_c, 14, 11, 125
23, 35640, Control_c, 14, 11, 124
23, 35646, Note_on_c, 14, 53, 0
23, 35648, Control_c, 14, 11, 123
23, 35648, Note_on_c, 14, 51, 44
23, 35657, Control_c, 14, 11, 122
23, 35665, Control_c, 14, 11, 121
23, 35673, Control_c, 14, 11, 120
23, 35678, Note_on_c, 14, 51, 0
23, 35680, Note_on_c, 14, 49, 44
23, 35681, Control_c, 14, 11, 119
23, 35690, Control_c, 14, 11, 118
23, 35698, Control_c, 14, 11, 117
23, 35706, Control_c, 14, 11, 116
23, 35714, Control_c, 14, 11, 115
23, 35722, Control_c, 14, 11, 114
23, 35731, Control_c, 14, 11, 113
23, 35739, Control_c, 14, 11, 112
23, 35747, Control_c, 14, 11, 111
23, 35755, Control_c, 14, 11, 110
23, 35758, Note_on_c, 14, 49, 0
23, 35760, Note_on_c, 14, 51, 47
23, 35764, Control_c, 14, 11, 109
23, 35772, Control_c, 14, 11, 108
23, 35780, Control_c, 14, 11, 107
23, 35788, Control_c, 14, 11, 106
23, 35797, Control_c, 14, 11, 105
23, 35805, Control_c, 14, 11, 104
23, 35813, Control_c, 14, 11, 103
23, 35821, Control_c, 14, 11, 102
23, 35829, Control_c, 14, 11, 101
23, 35838, Control_c, 14, 11, 100
23, 35846, Control_c, 14, 11, 99
23, 35854, Control_c, 14, 11, 98
23, 35862, Control_c, 14, 11, 97
23, 35871, Control_c, 14, 11, 96
23, 35879, Control_c, 14, 11, 95
23, 35887, Control_c, 14, 11, 94
23, 35895, Control_c, 14, 11, 93
23, 35902, Note_on_c, 14, 51, 0
23, 35904, Control_c, 14, 11, 92
23, 35904, Control_c, 14, 11, 127
23, 35904, Note_on_c, 14, 53, 47
23, 35909, Control_c, 14, 11, 126
23, 35914, Control_c, 14, 11, 125
23, 35920, Control_c, 14, 11, 124
23, 35925, Control_c, 14, 11, 123
23, 35931, Control_c, 14, 11, 122
23, 35934, Note_on_c, 14, 53, 0
23, 35936, Control_c, 14, 11, 121
23, 35936, Note_on_c, 14, 51, 44
23, 35942, Control_c, 14, 11, 120
23, 35947, Control_c, 14, 11, 119
23, 35953, Control_c, 14, 11, 118
23, 35958, Control_c, 14, 11, 117
23, 35964, Control_c, 14, 11, 116
23, 35966, Note_on_c, 14, 51, 0
23, 35968, Note_on_c, 14, 49, 40
23, 35969, Control_c, 14, 11, 115
23, 35975, Control_c, 14, 11, 114
23, 35980, Control_c, 14, 11, 113
23, 35986, Control_c, 14, 11, 112
23, 35991, Control_c, 14, 11, 111
23, 35997, Control_c, 14, 11, 110
23, 36002, Control_c, 14, 11, 109
23, 36008, Control_c, 14, 11, 108
23, 36013, Control_c, 14, 11, 107
23, 36019, Control_c, 14, 11, 106
23, 36024, Control_c, 14, 11, 105
23, 36030, Control_c, 14, 11, 104
23, 36035, Control_c, 14, 11, 103
23, 36041, Control_c, 14, 11, 102
23, 36046, Note_on_c, 14, 49, 0
23, 36046, Control_c, 14, 11, 101
23, 36048, Note_on_c, 14, 51, 47
23, 36052, Control_c, 14, 11, 100
23, 36057, Control_c, 14, 11, 99
23, 36063, Control_c, 14, 11, 98
23, 36068, Control_c, 14, 11, 97
23, 36074, Control_c, 14, 11, 96
23, 36079, Control_c, 14, 11, 95
23, 36085, Control_c, 14, 11, 94
23, 36090, Control_c, 14, 11, 93
23, 36096, Control_c, 14, 11, 92
23, 36098, Control_c, 14, 11, 93
23, 36101, Control_c, 14, 11, 94
23, 36104, Control_c, 14, 11, 95
23, 36106, Control_c, 14, 11, 96
23, 36109, Control_c, 14, 11, 97
23, 36112, Control_c, 14, 11, 98
23, 36115, Control_c, 14, 11, 99
23, 36117, Control_c, 14, 11, 100
23, 36120, Control_c, 14, 11, 101
23, 36123, Control_c, 14, 11, 102
23, 36126, Control_c, 14, 11, 103
23, 36128, Control_c, 14, 11, 104
23, 36131, Control_c, 14, 11, 105
23, 36134, Control_c, 14, 11, 106
23, 36137, Control_c, 14, 11, 107
23, 36139, Control_c, 14, 11, 108
23, 36142, Control_c, 14, 11, 109
23, 36145, Control_c, 14, 11, 110
23, 36148, Control_c, 14, 11, 111
23, 36150, Control_c, 14, 11, 112
23, 36153, Control_c, 14, 11, 113
23, 36156, Control_c, 14, 11, 114
23, 36159, Control_c, 14, 11, 115
23, 36161, Control_c, 14, 11, 116
23, 36164, Control_c, 14, 11, 117
23, 36167, Control_c, 14, 11, 118
23, 36170, Control_c, 14, 11, 119
23, 36172, Control_c, 14, 11, 120
23, 36175, Control_c, 14, 11, 121
23, 36178, Control_c, 14, 11, 122
23, 36181, Control_c, 14, 11, 123
23, 36183, Control_c, 14, 11, 124
23, 36186, Control_c, 14, 11, 125
23, 36189, Control_c, 14, 11, 126
23, 36190, Note_on_c, 14, 51, 0
23, 36192, Control_c, 14, 11, 127
23, 36192, Note_on_c, 14, 53, 29
23, 36222, Note_on_c, 14, 53, 0
23, 36224, Note_on_c, 14, 51, 28
23, 36254, Note_on_c, 14, 51, 0
23, 36256, Note_on_c, 14, 49, 31
23, 36334, Note_on_c, 14, 49, 0
23, 36336, Note_on_c, 14, 51, 40
23, 36478, Note_on_c, 14, 51, 0
23, 36480, Note_on_c, 14, 53, 52
23, 36510, Note_on_c, 14, 53, 0
23, 36512, Note_on_c, 14, 51, 54
23, 36542, Note_on_c, 14, 51, 0
23, 36544, Note_on_c, 14, 49, 66
23, 36622, Note_on_c, 14, 49, 0
23, 36624, Note_on_c, 14, 51, 64
23, 36766, Note_on_c, 14, 51, 0
23, 36768, Note_on_c, 14, 53, 75
23, 36798, Note_on_c, 14, 53, 0
23, 36800, Note_on_c, 14, 51, 78
23, 36830, Note_on_c, 14, 51, 0
23, 36832, Note_on_c, 14, 49, 77
23, 36910, Note_on_c, 14, 49, 0
23, 36912, Note_on_c, 14, 51, 76
23, 37054, Note_on_c, 14, 51, 0
23, 37056, Note_on_c, 14, 53, 76
23, 37086, Note_on_c, 14, 53, 0
23, 37088, Note_on_c, 14, 51, 76
23, 37118, Note_on_c, 14, 51, 0
23, 37120, Note_on_c, 14, 49, 76
23, 37198, Note_on_c, 14, 49, 0
23, 37200, Note_on_c, 14, 51, 70
23, 37246, Note_on_c, 14, 51, 0
23, 39552, Program_c, 14, 45
23, 39600, Note_on_c, 14, 63, 34
23, 39600, Note_on_c, 14, 68, 35
23, 39646, Note_on_c, 14, 63, 0
23, 39646, Note_on_c, 14, 68, 0
23, 39696, Note_on_c, 14, 63, 31
23, 39696, Note_on_c, 14, 68, 29
23, 39742, Note_on_c, 14, 63, 0
23, 39742, Note_on_c, 14, 68, 0
23, 39792, Note_on_c, 14, 63, 31
23, 39792, Note_on_c, 14, 68, 33
23, 39838, Note_on_c, 14, 63, 0
23, 39838, Note_on_c, 14, 68, 0
23, 39888, Note_on_c, 14, 61, 31
23, 39888, Note_on_c, 14, 68, 32
23, 39934, Note_on_c, 14, 61, 0
23, 39934, Note_on_c, 14, 68, 0
23, 39984, Note_on_c, 14, 61, 33
23, 39984, Note_on_c, 14, 68, 31
23, 40030, Note_on_c, 14, 61, 0
23, 40030, Note_on_c, 14, 68, 0
23, 40080, Note_on_c, 14, 61, 31
23, 40080, Note_on_c, 14, 68, 34
23, 40126, Note_on_c, 14, 61, 0
23, 40126, Note_on_c, 14, 68, 0
23, 40176, Note_on_c, 14, 63, 33
23, 40176, Note_on_c, 14, 68, 33
23, 40222, Note_on_c, 14, 63, 0
23, 40222, Note_on_c, 14, 68, 0
23, 40272, Note_on_c, 14, 63, 31
23, 40272, Note_on_c, 14, 68, 27
23, 40318, Note_on_c, 14, 63, 0
23, 40318, Note_on_c, 14, 68, 0
23, 40368, Note_on_c, 14, 63, 29
23, 40368, Note_on_c, 14, 68, 27
23, 40414, Note_on_c, 14, 63, 0
23, 40414, Note_on_c, 14, 68, 0
23, 40464, Note_on_c, 14, 61, 27
23, 40464, Note_on_c, 14, 68, 27
23, 40510, Note_on_c, 14, 61, 0
23, 40510, Note_on_c, 14, 68, 0
23, 40560, Note_on_c, 14, 61, 26
23, 40560, Note_on_c, 14, 68, 27
23, 40606, Note_on_c, 14, 61, 0
23, 40606, Note_on_c, 14, 68, 0
23, 40656, Note_on_c, 14, 61, 29
23, 40656, Note_on_c, 14, 68, 32
23, 40702, Note_on_c, 14, 61, 0
23, 40702, Note_on_c, 14, 68, 0
23, 40752, Note_on_c, 14, 63, 25
23, 40752, Note_on_c, 14, 68, 26
23, 40798, Note_on_c, 14, 63, 0
23, 40798, Note_on_c, 14, 68, 0
23, 40848, Note_on_c, 14, 63, 28
23, 40848, Note_on_c, 14, 68, 35
23, 40894, Note_on_c, 14, 63, 0
23, 40894, Note_on_c, 14, 68, 0
23, 40944, Note_on_c, 14, 63, 32
23, 40944, Note_on_c, 14, 68, 33
23, 40990, Note_on_c, 14, 63, 0
23, 40990, Note_on_c, 14, 68, 0
23, 41040, Note_on_c, 14, 62, 25
23, 41040, Note_on_c, 14, 68, 25
23, 41086, Note_on_c, 14, 62, 0
23, 41086, Note_on_c, 14, 68, 0
23, 41136, Note_on_c, 14, 62, 32
23, 41136, Note_on_c, 14, 68, 25
23, 41182, Note_on_c, 14, 62, 0
23, 41182, Note_on_c, 14, 68, 0
23, 41232, Note_on_c, 14, 62, 30
23, 41232, Note_on_c, 14, 68, 32
23, 41278, Note_on_c, 14, 62, 0
23, 41278, Note_on_c, 14, 68, 0
23, 41328, Note_on_c, 14, 65, 28
23, 41328, Note_on_c, 14, 69, 29
23, 41374, Note_on_c, 14, 65, 0
23, 41374, Note_on_c, 14, 69, 0
23, 41424, Note_on_c, 14, 65, 34
23, 41424, Note_on_c, 14, 69, 29
23, 41470, Note_on_c, 14, 65, 0
23, 41470, Note_on_c, 14, 69, 0
23, 41520, Note_on_c, 14, 65, 30
23, 41520, Note_on_c, 14, 68, 38
23, 41566, Note_on_c, 14, 65, 0
23, 41566, Note_on_c, 14, 68, 0
23, 41616, Note_on_c, 14, 65, 35
23, 41616, Note_on_c, 14, 67, 37
23, 41662, Note_on_c, 14, 65, 0
23, 41662, Note_on_c, 14, 67, 0
23, 41712, Note_on_c, 14, 65, 34
23, 41712, Note_on_c, 14, 67, 40
23, 41758, Note_on_c, 14, 65, 0
23, 41758, Note_on_c, 14, 67, 0
23, 41808, Note_on_c, 14, 66, 40
23, 41854, Note_on_c, 14, 66, 0
23, 41856, Note_on_c, 14, 62, 45
23, 41856, Note_on_c, 14, 67, 46
23, 41950, Note_on_c, 14, 62, 0
23, 41950, Note_on_c, 14, 67, 0
23, 42144, Program_c, 14, 48
23, 42144, Control_c, 14, 11, 92
23, 42144, Note_on_c, 14, 43, 65
23, 42152, Control_c, 14, 11, 93
23, 42160, Control_c, 14, 11, 94
23, 42168, Control_c, 14, 11, 95
23, 42176, Control_c, 14, 11, 96
23, 42185, Control_c, 14, 11, 97
23, 42193, Control_c, 14, 11, 98
23, 42201, Control_c, 14, 11, 99
23, 42209, Control_c, 14, 11, 100
23, 42218, Control_c, 14, 11, 101
23, 42226, Control_c, 14, 11, 102
23, 42234, Control_c, 14, 11, 103
23, 42242, Control_c, 14, 11, 104
23, 42250, Control_c, 14, 11, 105
23, 42259, Control_c, 14, 11, 106
23, 42267, Control_c, 14, 11, 107
23, 42275, Control_c, 14, 11, 108
23, 42283, Control_c, 14, 11, 109
23, 42292, Control_c, 14, 11, 110
23, 42300, Control_c, 14, 11, 111
23, 42308, Control_c, 14, 11, 112
23, 42316, Control_c, 14, 11, 113
23, 42325, Control_c, 14, 11, 114
23, 42333, Control_c, 14, 11, 115
23, 42341, Control_c, 14, 11, 116
23, 42349, Control_c, 14, 11, 117
23, 42357, Control_c, 14, 11, 118
23, 42366, Control_c, 14, 11, 119
23, 42374, Control_c, 14, 11, 120
23, 42382, Control_c, 14, 11, 121
23, 42390, Control_c, 14, 11, 122
23, 42399, Control_c, 14, 11, 123
23, 42407, Control_c, 14, 11, 124
23, 42415, Control_c, 14, 11, 125
23, 42423, Control_c, 14, 11, 126
23, 42432, Note_on_c, 14, 43, 0
23, 42432, Control_c, 14, 11, 127
23, 42432, Control_c, 14, 11, 92
23, 42432, Note_on_c, 14, 40, 60
23, 42448, Control_c, 14, 11, 93
23, 42464, Control_c, 14, 11, 94
23, 42481, Control_c, 14, 11, 95
23, 42497, Control_c, 14, 11, 96
23, 42514, Control_c, 14, 11, 97
23, 42530, Control_c, 14, 11, 98
23, 42547, Control_c, 14, 11, 99
23, 42563, Control_c, 14, 11, 100
23, 42580, Control_c, 14, 11, 101
23, 42596, Control_c, 14, 11, 102
23, 42613, Control_c, 14, 11, 103
23, 42629, Control_c, 14, 11, 104
23, 42645, Control_c, 14, 11, 105
23, 42662, Control_c, 14, 11, 106
23, 42678, Control_c, 14, 11, 107
23, 42695, Control_c, 14, 11, 108
23, 42711, Control_c, 14, 11, 109
23, 42728, Control_c, 14, 11, 110
23, 42744, Control_c, 14, 11, 111
23, 42761, Control_c, 14, 11, 112
23, 42777, Control_c, 14, 11, 113
23, 42794, Control_c, 14, 11, 114
23, 42810, Control_c, 14, 11, 115
23, 42826, Control_c, 14, 11, 116
23, 42843, Control_c, 14, 11, 117
23, 42859, Control_c, 14, 11, 118
23, 42876, Control_c, 14, 11, 119
23, 42892, Control_c, 14, 11, 120
23, 42909, Control_c, 14, 11, 121
23, 42925, Control_c, 14, 11, 122
23, 42942, Control_c, 14, 11, 123
23, 42958, Control_c, 14, 11, 124
23, 42960, Note_on_c, 14, 40, 0
23, 42975, Control_c, 14, 11, 125
23, 42991, Control_c, 14, 11, 126
23, 43008, Control_c, 14, 11, 127
23, 43008, Program_c, 14, 44
23, 43008, Note_on_c, 14, 41, 28
23, 43102, Note_on_c, 14, 41, 0
23, 43104, Note_on_c, 14, 44, 34
23, 43198, Note_on_c, 14, 44, 0
23, 43200, Note_on_c, 14, 47, 31
23, 43294, Note_on_c, 14, 47, 0
23, 43296, Note_on_c, 14, 41, 29
23, 43390, Note_on_c, 14, 41, 0
23, 43392, Note_on_c, 14, 44, 35
23, 43486, Note_on_c, 14, 44, 0
23, 43488, Note_on_c, 14, 47, 30
23, 43582, Note_on_c, 14, 47, 0
23, 43584, Note_on_c, 14, 41, 32
23, 43678, Note_on_c, 14, 41, 0
23, 43680, Note_on_c, 14, 44, 30
23, 43774, Note_on_c, 14, 44, 0
23, 43776, Note_on_c, 14, 47, 32
23, 43870, Note_on_c, 14, 47, 0
23, 43872, Note_on_c, 14, 41, 27
23, 43966, Note_on_c, 14, 41, 0
23, 43968, Note_on_c, 14, 44, 35
23, 44062, Note_on_c, 14, 44, 0
23, 44064, Note_on_c, 14, 47, 31
23, 44158, Note_on_c, 14, 47, 0
23, 44160, Note_on_c, 14, 41, 28
23, 44254, Note_on_c, 14, 41, 0
23, 44256, Note_on_c, 14, 44, 26
23, 44350, Note_on_c, 14, 44, 0
23, 44352, Note_on_c, 14, 47, 26
23, 44446, Note_on_c, 14, 47, 0
23, 44448, Note_on_c, 14, 41, 31
23, 44542, Note_on_c, 14, 41, 0
23, 44544, Note_on_c, 14, 44, 25
23, 44638, Note_on_c, 14, 44, 0
23, 44640, Note_on_c, 14, 47, 26
23, 44734, Note_on_c, 14, 47, 0
23, 44736, Note_on_c, 14, 41, 27
23, 44830, Note_on_c, 14, 41, 0
23, 44832, Note_on_c, 14, 44, 32
23, 44926, Note_on_c, 14, 44, 0
23, 44928, Note_on_c, 14, 47, 34
23, 45022, Note_on_c, 14, 47, 0
23, 45024, Note_on_c, 14, 41, 27
23, 45118, Note_on_c, 14, 41, 0
23, 45120, Note_on_c, 14, 44, 28
23, 45214, Note_on_c, 14, 44, 0
23, 45216, Note_on_c, 14, 47, 32
23, 45310, Note_on_c, 14, 47, 0
23, 45312, Note_on_c, 14, 59, 28
23, 45358, Note_on_c, 14, 59, 0
23, 45360, Note_on_c, 14, 56, 33
23, 45406, Note_on_c, 14, 56, 0
23, 45408, Note_on_c, 14, 51, 27
23, 45454, Note_on_c, 14, 51, 0
23, 45456, Note_on_c, 14, 49, 28
23, 45502, Note_on_c, 14, 49, 0
23, 45504, Note_on_c, 14, 47, 32
23, 45550, Note_on_c, 14, 47, 0
23, 45552, Note_on_c, 14, 49, 25
23, 45598, Note_on_c, 14, 49, 0
23, 45600, Note_on_c, 14, 59, 26
23, 45646, Note_on_c, 14, 59, 0
23, 45648, Note_on_c, 14, 56, 30
23, 45694, Note_on_c, 14, 56, 0
23, 45696, Note_on_c, 14, 51, 33
23, 45742, Note_on_c, 14, 51, 0
23, 45744, Note_on_c, 14, 49, 31
23, 45790, Note_on_c, 14, 49, 0
23, 45792, Note_on_c, 14, 47, 25
23, 45838, Note_on_c, 14, 47, 0
23, 45840, Note_on_c, 14, 49, 25
23, 45886, Note_on_c, 14, 49, 0
23, 45888, Note_on_c, 14, 59, 31
23, 45934, Note_on_c, 14, 59, 0
23, 45936, Note_on_c, 14, 55, 32
23, 45982, Note_on_c, 14, 55, 0
23, 45984, Note_on_c, 14, 51, 31
23, 46030, Note_on_c, 14, 51, 0
23, 46032, Note_on_c, 14, 49, 28
23, 46078, Note_on_c, 14, 49, 0
23, 46080, Note_on_c, 14, 47, 26
23, 46126, Note_on_c, 14, 47, 0
23, 46128, Note_on_c, 14, 49, 24
23, 46174, Note_on_c, 14, 49, 0
23, 46176, Note_on_c, 14, 59, 30
23, 46222, Note_on_c, 14, 59, 0
23, 46224, Note_on_c, 14, 55, 24
23, 46270, Note_on_c, 14, 55, 0
23, 46272, Note_on_c, 14, 51, 28
23, 46318, Note_on_c, 14, 51, 0
23, 46320, Note_on_c, 14, 49, 20
23, 46366, Note_on_c, 14, 49, 0
23, 46368, Note_on_c, 14, 47, 16
23, 46414, Note_on_c, 14, 47, 0
23, 46416, Note_on_c, 14, 49, 23
23, 46462, Note_on_c, 14, 49, 0
23, 47040, Program_c, 14, 45
23, 47040, Note_on_c, 14, 47, 28
23, 47200, Note_on_c, 14, 47, 0
23, 47616, Program_c, 14, 48
23, 48192, Control_c, 14, 11, 92
23, 48192, Note_on_c, 14, 44, 64
23, 48208, Control_c, 14, 11, 93
23, 48224, Control_c, 14, 11, 94
23, 48241, Control_c, 14, 11, 95
23, 48257, Control_c, 14, 11, 96
23, 48274, Control_c, 14, 11, 97
23, 48290, Control_c, 14, 11, 98
23, 48307, Control_c, 14, 11, 99
23, 48323, Control_c, 14, 11, 100
23, 48340, Control_c, 14, 11, 101
23, 48356, Control_c, 14, 11, 102
23, 48373, Control_c, 14, 11, 103
23, 48384, Note_on_c, 14, 44, 0
23, 48384, Note_on_c, 14, 48, 57
23, 48389, Control_c, 14, 11, 104
23, 48405, Control_c, 14, 11, 105
23, 48422, Control_c, 14, 11, 106
23, 48438, Control_c, 14, 11, 107
23, 48455, Control_c, 14, 11, 108
23, 48471, Control_c, 14, 11, 109
23, 48480, Note_on_c, 14, 48, 0
23, 48480, Note_on_c, 14, 44, 57
23, 48488, Control_c, 14, 11, 110
23, 48504, Control_c, 14, 11, 111
23, 48521, Control_c, 14, 11, 112
23, 48537, Control_c, 14, 11, 113
23, 48554, Control_c, 14, 11, 114
23, 48570, Control_c, 14, 11, 115
23, 48586, Control_c, 14, 11, 116
23, 48603, Control_c, 14, 11, 117
23, 48619, Control_c, 14, 11, 118
23, 48636, Control_c, 14, 11, 119
23, 48652, Control_c, 14, 11, 120
23, 48669, Control_c, 14, 11, 121
23, 48672, Note_on_c, 14, 44, 0
23, 48672, Note_on_c, 14, 40, 64
23, 48685, Control_c, 14, 11, 122
23, 48702, Control_c, 14, 11, 123
23, 48718, Control_c, 14, 11, 124
23, 48735, Control_c, 14, 11, 125
23, 48751, Control_c, 14, 11, 126
23, 48766, Note_on_c, 14, 40, 0
23, 48768, Control_c, 14, 11, 127
23, 48768, Control_c, 14, 11, 92
23, 48768, Note_on_c, 14, 37, 58
23, 48773, Control_c, 14, 11, 93
23, 48778, Control_c, 14, 11, 94
23, 48784, Control_c, 14, 11, 95
23, 48789, Control_c, 14, 11, 96
23, 48795, Control_c, 14, 11, 97
23, 48800, Control_c, 14, 11, 98
23, 48806, Control_c, 14, 11, 99
23, 48811, Control_c, 14, 11, 100
23, 48817, Control_c, 14, 11, 101
23, 48822, Control_c, 14, 11, 102
23, 48828, Control_c, 14, 11, 103
23, 48833, Control_c, 14, 11, 104
23, 48839, Control_c, 14, 11, 105
23, 48844, Control_c, 14, 11, 106
23, 48850, Control_c, 14, 11, 107
23, 48855, Control_c, 14, 11, 108
23, 48861, Control_c, 14, 11, 109
23, 48866, Control_c, 14, 11, 110
23, 48872, Control_c, 14, 11, 111
23, 48877, Control_c, 14, 11, 112
23, 48883, Control_c, 14, 11, 113
23, 48888, Control_c, 14, 11, 114
23, 48894, Control_c, 14, 11, 115
23, 48899, Control_c, 14, 11, 116
23, 48905, Control_c, 14, 11, 117
23, 48910, Note_on_c, 14, 37, 0
23, 48910, Control_c, 14, 11, 118
23, 48912, Note_on_c, 14, 38, 58
23, 48916, Control_c, 14, 11, 119
23, 48921, Control_c, 14, 11, 120
23, 48927, Control_c, 14, 11, 121
23, 48932, Control_c, 14, 11, 122
23, 48938, Control_c, 14, 11, 123
23, 48943, Control_c, 14, 11, 124
23, 48949, Control_c, 14, 11, 125
23, 48954, Control_c, 14, 11, 126
23, 48958, Note_on_c, 14, 38, 0
23, 48960, Control_c, 14, 11, 127
23, 48960, Note_on_c, 14, 39, 62
23, 48962, Control_c, 14, 11, 126
23, 48965, Control_c, 14, 11, 125
23, 48968, Control_c, 14, 11, 124
23, 48970, Control_c, 14, 11, 123
23, 48973, Control_c, 14, 11, 122
23, 48976, Control_c, 14, 11, 121
23, 48979, Control_c, 14, 11, 120
23, 48981, Control_c, 14, 11, 119
23, 48984, Control_c, 14, 11, 118
23, 48987, Control_c, 14, 11, 117
23, 48990, Control_c, 14, 11, 116
23, 48992, Control_c, 14, 11, 115
23, 48995, Control_c, 14, 11, 114
23, 48998, Control_c, 14, 11, 113
23, 49001, Control_c, 14, 11, 112
23, 49003, Control_c, 14, 11, 111
23, 49006, Note_on_c, 14, 39, 0
23, 49006, Control_c, 14, 11, 110
23, 49008, Note_on_c, 14, 38, 63
23, 49009, Control_c, 14, 11, 109
23, 49012, Control_c, 14, 11, 108
23, 49014, Control_c, 14, 11, 107
23, 49017, Control_c, 14, 11, 106
23, 49020, Control_c, 14, 11, 105
23, 49023, Control_c, 14, 11, 104
23, 49025, Control_c, 14, 11, 103
23, 49028, Control_c, 14, 11, 102
23, 49031, Control_c, 14, 11, 101
23, 49034, Control_c, 14, 11, 100
23, 49036, Control_c, 14, 11, 99
23, 49039, Control_c, 14, 11, 98
23, 49042, Control_c, 14, 11, 97
23, 49045, Control_c, 14, 11, 96
23, 49047, Control_c, 14, 11, 95
23, 49050, Control_c, 14, 11, 94
23, 49053, Control_c, 14, 11, 93
23, 49054, Note_on_c, 14, 38, 0
23, 49056, Control_c, 14, 11, 92
23, 49056, Note_on_c, 14, 37, 65
23, 49216, Note_on_c, 14, 37, 0
23, 49248, Program_c, 14, 45
23, 49248, Control_c, 14, 11, 127
23, 49248, Note_on_c, 14, 46, 58
23, 49342, Note_on_c, 14, 46, 0
23, 49920, Program_c, 14, 48
23, 50496, Control_c, 14, 11, 64
23, 50496, Note_on_c, 14, 59, 87
23, 50514, Control_c, 14, 11, 65
23, 50532, Control_c, 14, 11, 66
23, 50550, Control_c, 14, 11, 67
23, 50569, Control_c, 14, 11, 68
23, 50587, Control_c, 14, 11, 69
23, 50605, Control_c, 14, 11, 70
23, 50624, Control_c, 14, 11, 71
23, 50642, Control_c, 14, 11, 72
23, 50660, Control_c, 14, 11, 73
23, 50678, Control_c, 14, 11, 74
23, 50697, Control_c, 14, 11, 75
23, 50715, Control_c, 14, 11, 76
23, 50733, Control_c, 14, 11, 77
23, 50752, Control_c, 14, 11, 78
23, 50770, Control_c, 14, 11, 79
23, 50784, Note_on_c, 14, 59, 0
23, 50784, Note_on_c, 14, 58, 89
23, 50788, Control_c, 14, 11, 80
23, 50806, Control_c, 14, 11, 81
23, 50825, Control_c, 14, 11, 82
23, 50843, Control_c, 14, 11, 83
23, 50861, Control_c, 14, 11, 84
23, 50880, Note_on_c, 14, 58, 0
23, 50880, Control_c, 14, 11, 85
23, 50880, Note_on_c, 14, 56, 93
23, 50898, Control_c, 14, 11, 86
23, 50916, Control_c, 14, 11, 87
23, 50934, Control_c, 14, 11, 88
23, 50953, Control_c, 14, 11, 89
23, 50971, Control_c, 14, 11, 90
23, 50976, Note_on_c, 14, 56, 0
23, 50976, Note_on_c, 14, 53, 89
23, 50989, Control_c, 14, 11, 91
23, 51008, Control_c, 14, 11, 92
23, 51026, Control_c, 14, 11, 93
23, 51044, Control_c, 14, 11, 94
23, 51062, Control_c, 14, 11, 95
23, 51070, Note_on_c, 14, 53, 0
23, 51072, Note_on_c, 14, 65, 90
23, 51081, Control_c, 14, 11, 96
23, 51099, Control_c, 14, 11, 97
23, 51117, Control_c, 14, 11, 98
23, 51136, Control_c, 14, 11, 99
23, 51154, Control_c, 14, 11, 100
23, 51172, Control_c, 14, 11, 101
23, 51190, Control_c, 14, 11, 102
23, 51209, Control_c, 14, 11, 103
23, 51216, Note_on_c, 14, 65, 0
23, 51216, Note_on_c, 14, 64, 87
23, 51227, Control_c, 14, 11, 104
23, 51245, Control_c, 14, 11, 105
23, 51264, Note_on_c, 14, 64, 0
23, 51264, Control_c, 14, 11, 106
23, 51264, Note_on_c, 14, 63, 91
23, 51282, Control_c, 14, 11, 107
23, 51300, Control_c, 14, 11, 108
23, 51312, Note_on_c, 14, 63, 0
23, 51312, Note_on_c, 14, 64, 91
23, 51318, Control_c, 14, 11, 109
23, 51337, Control_c, 14, 11, 110
23, 51355, Control_c, 14, 11, 111
23, 51360, Note_on_c, 14, 64, 0
23, 51360, Note_on_c, 14, 65, 95
23, 51373, Control_c, 14, 11, 112
23, 51392, Control_c, 14, 11, 113
23, 51410, Control_c, 14, 11, 114
23, 51428, Control_c, 14, 11, 115
23, 51446, Control_c, 14, 11, 116
23, 51465, Control_c, 14, 11, 117
23, 51483, Control_c, 14, 11, 118
23, 51501, Control_c, 14, 11, 119
23, 51504, Note_on_c, 14, 65, 0
23, 51504, Note_on_c, 14, 64, 95
23, 51520, Control_c, 14, 11, 120
23, 51538, Control_c, 14, 11, 121
23, 51552, Note_on_c, 14, 64, 0
23, 51552, Note_on_c, 14, 63, 95
23, 51556, Control_c, 14, 11, 122
23, 51574, Control_c, 14, 11, 123
23, 51593, Control_c, 14, 11, 124
23, 51600, Note_on_c, 14, 63, 0
23, 51600, Note_on_c, 14, 64, 93
23, 51611, Control_c, 14, 11, 125
23, 51629, Control_c, 14, 11, 126
23, 51648, Note_on_c, 14, 64, 0
23, 51648, Control_c, 14, 11, 127
23, 51648, Note_on_c, 14, 65, 90
23, 51653, Control_c, 14, 11, 126
23, 51659, Control_c, 14, 11, 125
23, 51664, Control_c, 14, 11, 124
23, 51670, Control_c, 14, 11, 123
23, 51675, Control_c, 14, 11, 122
23, 51681, Control_c, 14, 11, 121
23, 51686, Control_c, 14, 11, 120
23, 51692, Control_c, 14, 11, 119
23, 51697, Control_c, 14, 11, 118
23, 51703, Control_c, 14, 11, 117
23, 51708, Control_c, 14, 11, 116
23, 51714, Control_c, 14, 11, 115
23, 51720, Control_c, 14, 11, 114
23, 51725, Control_c, 14, 11, 113
23, 51731, Control_c, 14, 11, 112
23, 51736, Control_c, 14, 11, 111
23, 51742, Control_c, 14, 11, 110
23, 51747, Control_c, 14, 11, 109
23, 51753, Control_c, 14, 11, 108
23, 51758, Control_c, 14, 11, 107
23, 51764, Control_c, 14, 11, 106
23, 51769, Control_c, 14, 11, 105
23, 51775, Control_c, 14, 11, 104
23, 51780, Control_c, 14, 11, 103
23, 51786, Control_c, 14, 11, 102
23, 51792, Note_on_c, 14, 65, 0
23, 51792, Control_c, 14, 11, 101
23, 51792, Note_on_c, 14, 64, 95
23, 51797, Control_c, 14, 11, 100
23, 51803, Control_c, 14, 11, 99
23, 51808, Control_c, 14, 11, 98
23, 51814, Control_c, 14, 11, 97
23, 51819, Control_c, 14, 11, 96
23, 51825, Control_c, 14, 11, 95
23, 51830, Control_c, 14, 11, 94
23, 51836, Control_c, 14, 11, 93
23, 51840, Note_on_c, 14, 64, 0
23, 51840, Note_on_c, 14, 63, 97
23, 51841, Control_c, 14, 11, 92
23, 51847, Control_c, 14, 11, 91
23, 51852, Control_c, 14, 11, 90
23, 51858, Control_c, 14, 11, 89
23, 51864, Control_c, 14, 11, 88
23, 51869, Control_c, 14, 11, 87
23, 51875, Control_c, 14, 11, 86
23, 51880, Control_c, 14, 11, 85
23, 51886, Control_c, 14, 11, 84
23, 51888, Note_on_c, 14, 63, 0
23, 51888, Note_on_c, 14, 65, 96
23, 51891, Control_c, 14, 11, 83
23, 51897, Control_c, 14, 11, 82
23, 51902, Control_c, 14, 11, 81
23, 51908, Control_c, 14, 11, 80
23, 51913, Control_c, 14, 11, 79
23, 51919, Control_c, 14, 11, 78
23, 51924, Control_c, 14, 11, 77
23, 51930, Control_c, 14, 11, 76
23, 51934, Note_on_c, 14, 65, 0
23, 51936, Control_c, 14, 11, 75
23, 51936, Control_c, 14, 11, 127
23, 51936, Note_on_c, 14, 68, 48
23, 51950, Note_on_c, 14, 68, 0
23, 51952, Note_on_c, 14, 63, 45
23, 51966, Note_on_c, 14, 63, 0
23, 51968, Note_on_c, 14, 68, 44
23, 51982, Note_on_c, 14, 68, 0
23, 51984, Note_on_c, 14, 65, 49
23, 51998, Note_on_c, 14, 65, 0
23, 52000, Note_on_c, 14, 61, 46
23, 52014, Note_on_c, 14, 61, 0
23, 52016, Note_on_c, 14, 65, 43
23, 52030, Note_on_c, 14, 65, 0
23, 52032, Note_on_c, 14, 68, 48
23, 52046, Note_on_c, 14, 68, 0
23, 52048, Note_on_c, 14, 63, 42
23, 52062, Note_on_c, 14, 63, 0
23, 52064, Note_on_c, 14, 68, 49
23, 52078, Note_on_c, 14, 68, 0
23, 52080, Note_on_c, 14, 65, 48
23, 52094, Note_on_c, 14, 65, 0
23, 52096, Note_on_c, 14, 61, 48
23, 52110, Note_on_c, 14, 61, 0
23, 52112, Note_on_c, 14, 65, 54
23, 52126, Note_on_c, 14, 65, 0
23, 52128, Note_on_c, 14, 68, 47
23, 52142, Note_on_c, 14, 68, 0
23, 52144, Note_on_c, 14, 63, 51
23, 52158, Note_on_c, 14, 63, 0
23, 52160, Note_on_c, 14, 68, 50
23, 52174, Note_on_c, 14, 68, 0
23, 52176, Note_on_c, 14, 65, 57
23, 52190, Note_on_c, 14, 65, 0
23, 52192, Note_on_c, 14, 61, 56
23, 52206, Note_on_c, 14, 61, 0
23, 52208, Note_on_c, 14, 65, 57
23, 52222, Note_on_c, 14, 65, 0
23, 52224, Note_on_c, 14, 68, 60
23, 52238, Note_on_c, 14, 68, 0
23, 52240, Note_on_c, 14, 63, 59
23, 52254, Note_on_c, 14, 63, 0
23, 52256, Note_on_c, 14, 68, 54
23, 52270, Note_on_c, 14, 68, 0
23, 52272, Note_on_c, 14, 65, 58
23, 52286, Note_on_c, 14, 65, 0
23, 52288, Note_on_c, 14, 61, 55
23, 52302, Note_on_c, 14, 61, 0
23, 52304, Note_on_c, 14, 65, 58
23, 52318, Note_on_c, 14, 65, 0
23, 52320, Note_on_c, 14, 68, 61
23, 52334, Note_on_c, 14, 68, 0
23, 52336, Note_on_c, 14, 63, 62
23, 52350, Note_on_c, 14, 63, 0
23, 52352, Note_on_c, 14, 68, 59
23, 52366, Note_on_c, 14, 68, 0
23, 52368, Note_on_c, 14, 65, 64
23, 52382, Note_on_c, 14, 65, 0
23, 52384, Note_on_c, 14, 61, 69
23, 52398, Note_on_c, 14, 61, 0
23, 52400, Note_on_c, 14, 65, 66
23, 52414, Note_on_c, 14, 65, 0
23, 52416, Note_on_c, 14, 68, 66
23, 52430, Note_on_c, 14, 68, 0
23, 52432, Note_on_c, 14, 63, 73
23, 52446, Note_on_c, 14, 63, 0
23, 52448, Note_on_c, 14, 68, 69
23, 52462, Note_on_c, 14, 68, 0
23, 52464, Note_on_c, 14, 65, 76
23, 52478, Note_on_c, 14, 65, 0
23, 52480, Note_on_c, 14, 61, 77
23, 52494, Note_on_c, 14, 61, 0
23, 52496, Note_on_c, 14, 65, 77
23, 52510, Note_on_c, 14, 65, 0
23, 52704, Note_on_c, 14, 49, 32
23, 52726, Note_on_c, 14, 49, 0
23, 52728, Note_on_c, 14, 47, 33
23, 52750, Note_on_c, 14, 47, 0
23, 52752, Note_on_c, 14, 49, 32
23, 52774, Note_on_c, 14, 49, 0
23, 52776, Note_on_c, 14, 47, 22
23, 52798, Note_on_c, 14, 47, 0
23, 52992, Note_on_c, 14, 49, 34
23, 53014, Note_on_c, 14, 49, 0
23, 53016, Note_on_c, 14, 47, 27
23, 53038, Note_on_c, 14, 47, 0
23, 53040, Note_on_c, 14, 49, 22
23, 53062, Note_on_c, 14, 49, 0
23, 53064, Note_on_c, 14, 47, 28
23, 53086, Note_on_c, 14, 47, 0
23, 53280, Note_on_c, 14, 49, 30
23, 53302, Note_on_c, 14, 49, 0
23, 53304, Note_on_c, 14, 47, 28
23, 53326, Note_on_c, 14, 47, 0
23, 53328, Note_on_c, 14, 49, 23
23, 53350, Note_on_c, 14, 49, 0
23, 53352, Note_on_c, 14, 47, 23
23, 53374, Note_on_c, 14, 47, 0
23, 53568, Note_on_c, 14, 49, 28
23, 53590, Note_on_c, 14, 49, 0
23, 53592, Note_on_c, 14, 47, 34
23, 53614, Note_on_c, 14, 47, 0
23, 53616, Note_on_c, 14, 49, 25
23, 53638, Note_on_c, 14, 49, 0
23, 53640, Note_on_c, 14, 47, 21
23, 53662, Note_on_c, 14, 47, 0
23, 53664, Control_c, 14, 11, 92
23, 53664, Note_on_c, 14, 47, 50
23, 53680, Control_c, 14, 11, 93
23, 53696, Control_c, 14, 11, 94
23, 53713, Control_c, 14, 11, 95
23, 53729, Control_c, 14, 11, 96
23, 53746, Control_c, 14, 11, 97
23, 53762, Control_c, 14, 11, 98
23, 53779, Control_c, 14, 11, 99
23, 53795, Control_c, 14, 11, 100
23, 53812, Control_c, 14, 11, 101
23, 53828, Control_c, 14, 11, 102
23, 53845, Control_c, 14, 11, 103
23, 53861, Control_c, 14, 11, 104
23, 53877, Control_c, 14, 11, 105
23, 53894, Control_c, 14, 11, 106
23, 53910, Control_c, 14, 11, 107
23, 53927, Control_c, 14, 11, 108
23, 53943, Control_c, 14, 11, 109
23, 53952, Note_on_c, 14, 47, 0
23, 53952, Note_on_c, 14, 44, 43
23, 53960, Control_c, 14, 11, 110
23, 53976, Control_c, 14, 11, 111
23, 53993, Control_c, 14, 11, 112
23, 54009, Control_c, 14, 11, 113
23, 54026, Control_c, 14, 11, 114
23, 54042, Control_c, 14, 11, 115
23, 54058, Control_c, 14, 11, 116
23, 54075, Control_c, 14, 11, 117
23, 54091, Control_c, 14, 11, 118
23, 54108, Control_c, 14, 11, 119
23, 54124, Control_c, 14, 11, 120
23, 54141, Control_c, 14, 11, 121
23, 54157, Control_c, 14, 11, 122
23, 54174, Control_c, 14, 11, 123
23, 54190, Control_c, 14, 11, 124
23, 54207, Control_c, 14, 11, 125
23, 54208, Note_on_c, 14, 44, 0
23, 54223, Control_c, 14, 11, 126
23, 54240, Control_c, 14, 11, 127
23, 54240, Note_on_c, 14, 40, 49
23, 54240, Note_on_c, 14, 47, 50
23, 54334, Note_on_c, 14, 40, 0
23, 54334, Note_on_c, 14, 47, 0
23, 54816, Program_c, 14, 45
23, 54816, Note_on_c, 14, 59, 47
23, 54886, Note_on_c, 14, 59, 0
23, 54888, Note_on_c, 14, 61, 50
23, 54958, Note_on_c, 14, 61, 0
23, 54960, Note_on_c, 14, 64, 58
23, 55030, Note_on_c, 14, 64, 0
23, 55032, Note_on_c, 14, 66, 64
23, 55102, Note_on_c, 14, 66, 0
23, 55104, Note_on_c, 14, 71, 70
23, 55174, Note_on_c, 14, 71, 0
23, 55176, Note_on_c, 14, 73, 72
23, 55246, Note_on_c, 14, 73, 0
23, 55248, Note_on_c, 14, 76, 78
23, 55318, Note_on_c, 14, 76, 0
23, 55320, Note_on_c, 14, 78, 89
23, 55390, Note_on_c, 14, 78, 0
23, 55392, Note_on_c, 14, 59, 42
23, 55462, Note_on_c, 14, 59, 0
23, 55464, Note_on_c, 14, 61, 50
23, 55534, Note_on_c, 14, 61, 0
23, 55536, Note_on_c, 14, 64, 55
23, 55606, Note_on_c, 14, 64, 0
23, 55608, Note_on_c, 14, 66, 68
23, 55678, Note_on_c, 14, 66, 0
23, 55680, Note_on_c, 14, 71, 77
23, 55750, Note_on_c, 14, 71, 0
23, 55752, Note_on_c, 14, 73, 77
23, 55822, Note_on_c, 14, 73, 0
23, 55824, Note_on_c, 14, 76, 81
23, 55894, Note_on_c, 14, 76, 0
23, 55896, Note_on_c, 14, 78, 89
23, 55966, Note_on_c, 14, 78, 0
23, 55968, Note_on_c, 14, 59, 49
23, 56038, Note_on_c, 14, 59, 0
23, 56040, Note_on_c, 14, 61, 45
23, 56110, Note_on_c, 14, 61, 0
23, 56112, Note_on_c, 14, 64, 57
23, 56182, Note_on_c, 14, 64, 0
23, 56184, Note_on_c, 14, 66, 69
23, 56254, Note_on_c, 14, 66, 0
23, 56256, Note_on_c, 14, 71, 74
23, 56326, Note_on_c, 14, 71, 0
23, 56328, Note_on_c, 14, 73, 72
23, 56398, Note_on_c, 14, 73, 0
23, 56400, Note_on_c, 14, 76, 84
23, 56470, Note_on_c, 14, 76, 0
23, 56472, Note_on_c, 14, 78, 89
23, 56542, Note_on_c, 14, 78, 0
23, 56544, Program_c, 14, 44
23, 56544, Control_c, 14, 11, 92
23, 56544, Note_on_c, 14, 73, 90
23, 56545, Control_c, 14, 11, 93
23, 56546, Control_c, 14, 11, 94
23, 56548, Control_c, 14, 11, 95
23, 56549, Control_c, 14, 11, 96
23, 56550, Control_c, 14, 11, 97
23, 56552, Control_c, 14, 11, 98
23, 56553, Control_c, 14, 11, 99
23, 56554, Control_c, 14, 11, 100
23, 56556, Control_c, 14, 11, 101
23, 56557, Control_c, 14, 11, 102
23, 56559, Control_c, 14, 11, 103
23, 56560, Control_c, 14, 11, 104
23, 56561, Control_c, 14, 11, 105
23, 56563, Control_c, 14, 11, 106
23, 56564, Control_c, 14, 11, 107
23, 56565, Control_c, 14, 11, 108
23, 56567, Control_c, 14, 11, 109
23, 56568, Control_c, 14, 11, 110
23, 56570, Control_c, 14, 11, 111
23, 56571, Control_c, 14, 11, 112
23, 56572, Control_c, 14, 11, 113
23, 56574, Control_c, 14, 11, 114
23, 56575, Control_c, 14, 11, 115
23, 56576, Control_c, 14, 11, 116
23, 56578, Control_c, 14, 11, 117
23, 56579, Control_c, 14, 11, 118
23, 56581, Control_c, 14, 11, 119
23, 56582, Control_c, 14, 11, 120
23, 56583, Control_c, 14, 11, 121
23, 56585, Control_c, 14, 11, 122
23, 56586, Control_c, 14, 11, 123
23, 56587, Control_c, 14, 11, 124
23, 56589, Control_c, 14, 11, 125
23, 56590, Control_c, 14, 11, 126
23, 56592, Control_c, 14, 11, 127
23, 56593, Control_c, 14, 11, 126
23, 56594, Control_c, 14, 11, 125
23, 56596, Control_c, 14, 11, 124
23, 56597, Control_c, 14, 11, 123
23, 56598, Control_c, 14, 11, 122
23, 56600, Control_c, 14, 11, 121
23, 56601, Control_c, 14, 11, 120
23, 56602, Control_c, 14, 11, 119
23, 56604, Control_c, 14, 11, 118
23, 56605, Control_c, 14, 11, 117
23, 56607, Control_c, 14, 11, 116
23, 56608, Control_c, 14, 11, 115
23, 56609, Control_c, 14, 11, 114
23, 56611, Control_c, 14, 11, 113
23, 56612, Control_c, 14, 11, 112
23, 56613, Control_c, 14, 11, 111
23, 56615, Control_c, 14, 11, 110
23, 56616, Control_c, 14, 11, 109
23, 56618, Control_c, 14, 11, 108
23, 56619, Control_c, 14, 11, 107
23, 56620, Control_c, 14, 11, 106
23, 56622, Control_c, 14, 11, 105
23, 56623, Control_c, 14, 11, 104
23, 56624, Control_c, 14, 11, 103
23, 56626, Control_c, 14, 11, 102
23, 56627, Control_c, 14, 11, 101
23, 56629, Control_c, 14, 11, 100
23, 56630, Control_c, 14, 11, 99
23, 56631, Control_c, 14, 11, 98
23, 56633, Control_c, 14, 11, 97
23, 56634, Control_c, 14, 11, 96
23, 56635, Control_c, 14, 11, 95
23, 56637, Control_c, 14, 11, 94
23, 56638, Control_c, 14, 11, 93
23, 56640, Control_c, 14, 11, 92
23, 56704, Note_on_c, 14, 73, 0
23, 56736, Control_c, 14, 11, 92
23, 56736, Note_on_c, 14, 71, 89
23, 56737, Control_c, 14, 11, 93
23, 56738, Control_c, 14, 11, 94
23, 56740, Control_c, 14, 11, 95
23, 56741, Control_c, 14, 11, 96
23, 56742, Control_c, 14, 11, 97
23, 56744, Control_c, 14, 11, 98
23, 56745, Control_c, 14, 11, 99
23, 56746, Control_c, 14, 11, 100
23, 56748, Control_c, 14, 11, 101
23, 56749, Control_c, 14, 11, 102
23, 56751, Control_c, 14, 11, 103
23, 56752, Control_c, 14, 11, 104
23, 56753, Control_c, 14, 11, 105
23, 56755, Control_c, 14, 11, 106
23, 56756, Control_c, 14, 11, 107
23, 56757, Control_c, 14, 11, 108
23, 56759, Control_c, 14, 11, 109
23, 56760, Control_c, 14, 11, 110
23, 56762, Control_c, 14, 11, 111
23, 56763, Control_c, 14, 11, 112
23, 56764, Control_c, 14, 11, 113
23, 56766, Control_c, 14, 11, 114
23, 56767, Control_c, 14, 11, 115
23, 56768, Control_c, 14, 11, 116
23, 56770, Control_c, 14, 11, 117
23, 56771, Control_c, 14, 11, 118
23, 56773, Control_c, 14, 11, 119
23, 56774, Control_c, 14, 11, 120
23, 56775, Control_c, 14, 11, 121
23, 56777, Control_c, 14, 11, 122
23, 56778, Control_c, 14, 11, 123
23, 56779, Control_c, 14, 11, 124
23, 56781, Control_c, 14, 11, 125
23, 56782, Control_c, 14, 11, 126
23, 56784, Control_c, 14, 11, 127
23, 56785, Control_c, 14, 11, 126
23, 56786, Control_c, 14, 11, 125
23, 56788, Control_c, 14, 11, 124
23, 56789, Control_c, 14, 11, 123
23, 56790, Control_c, 14, 11, 122
23, 56792, Control_c, 14, 11, 121
23, 56793, Control_c, 14, 11, 120
23, 56794, Control_c, 14, 11, 119
23, 56796, Control_c, 14, 11, 118
23, 56797, Control_c, 14, 11, 117
23, 56799, Control_c, 14, 11, 116
23, 56800, Control_c, 14, 11, 115
23, 56801, Control_c, 14, 11, 114
23, 56803, Control_c, 14, 11, 113
23, 56804, Control_c, 14, 11, 112
23, 56805, Control_c, 14, 11, 111
23, 56807, Control_c, 14, 11, 110
23, 56808, Control_c, 14, 11, 109
23, 56810, Control_c, 14, 11, 108
23, 56811, Control_c, 14, 11, 107
23, 56812, Control_c, 14, 11, 106
23, 56814, Control_c, 14, 11, 105
23, 56815, Control_c, 14, 11, 104
23, 56816, Control_c, 14, 11, 103
23, 56818, Control_c, 14, 11, 102
23, 56819, Control_c, 14, 11, 101
23, 56821, Control_c, 14, 11, 100
23, 56822, Control_c, 14, 11, 99
23, 56823, Control_c, 14, 11, 98
23, 56825, Control_c, 14, 11, 97
23, 56826, Control_c, 14, 11, 96
23, 56827, Control_c, 14, 11, 95
23, 56829, Control_c, 14, 11, 94
23, 56830, Control_c, 14, 11, 93
23, 56832, Control_c, 14, 11, 92
23, 56896, Note_on_c, 14, 71, 0
23, 56928, Control_c, 14, 11, 92
23, 56928, Note_on_c, 14, 68, 96
23, 56929, Control_c, 14, 11, 93
23, 56930, Control_c, 14, 11, 94
23, 56932, Control_c, 14, 11, 95
23, 56933, Control_c, 14, 11, 96
23, 56934, Control_c, 14, 11, 97
23, 56936, Control_c, 14, 11, 98
23, 56937, Control_c, 14, 11, 99
23, 56938, Control_c, 14, 11, 100
23, 56940, Control_c, 14, 11, 101
23, 56941, Control_c, 14, 11, 102
23, 56943, Control_c, 14, 11, 103
23, 56944, Control_c, 14, 11, 104
23, 56945, Control_c, 14, 11, 105
23, 56947, Control_c, 14, 11, 106
23, 56948, Control_c, 14, 11, 107
23, 56949, Control_c, 14, 11, 108
23, 56951, Control_c, 14, 11, 109
23, 56952, Control_c, 14, 11, 110
23, 56954, Control_c, 14, 11, 111
23, 56955, Control_c, 14, 11, 112
23, 56956, Control_c, 14, 11, 113
23, 56958, Control_c, 14, 11, 114
23, 56959, Control_c, 14, 11, 115
23, 56960, Control_c, 14, 11, 116
23, 56962, Control_c, 14, 11, 117
23, 56963, Control_c, 14, 11, 118
23, 56965, Control_c, 14, 11, 119
23, 56966, Control_c, 14, 11, 120
23, 56967, Control_c, 14, 11, 121
23, 56969, Control_c, 14, 11, 122
23, 56970, Control_c, 14, 11, 123
23, 56971, Control_c, 14, 11, 124
23, 56973, Control_c, 14, 11, 125
23, 56974, Control_c, 14, 11, 126
23, 56976, Control_c, 14, 11, 127
23, 56977, Control_c, 14, 11, 126
23, 56978, Control_c, 14, 11, 125
23, 56980, Control_c, 14, 11, 124
23, 56981, Control_c, 14, 11, 123
23, 56982, Control_c, 14, 11, 122
23, 56984, Control_c, 14, 11, 121
23, 56985, Control_c, 14, 11, 120
23, 56986, Control_c, 14, 11, 119
23, 56988, Control_c, 14, 11, 118
23, 56989, Control_c, 14, 11, 117
23, 56991, Control_c, 14, 11, 116
23, 56992, Control_c, 14, 11, 115
23, 56993, Control_c, 14, 11, 114
23, 56995, Control_c, 14, 11, 113
23, 56996, Control_c, 14, 11, 112
23, 56997, Control_c, 14, 11, 111
23, 56999, Control_c, 14, 11, 110
23, 57000, Control_c, 14, 11, 109
23, 57002, Control_c, 14, 11, 108
23, 57003, Control_c, 14, 11, 107
23, 57004, Control_c, 14, 11, 106
23, 57006, Control_c, 14, 11, 105
23, 57007, Control_c, 14, 11, 104
23, 57008, Control_c, 14, 11, 103
23, 57010, Control_c, 14, 11, 102
23, 57011, Control_c, 14, 11, 101
23, 57013, Control_c, 14, 11, 100
23, 57014, Control_c, 14, 11, 99
23, 57015, Control_c, 14, 11, 98
23, 57017, Control_c, 14, 11, 97
23, 57018, Control_c, 14, 11, 96
23, 57019, Control_c, 14, 11, 95
23, 57021, Control_c, 14, 11, 94
23, 57022, Control_c, 14, 11, 93
23, 57024, Control_c, 14, 11, 92
23, 57088, Note_on_c, 14, 68, 0
23, 57120, Note_on_c, 14, 50, 43
23, 57312, Note_on_c, 14, 50, 0
23, 57312, Note_on_c, 14, 47, 50
23, 57504, Note_on_c, 14, 47, 0
23, 57504, Note_on_c, 14, 44, 40
23, 57696, Note_on_c, 14, 44, 0
23, 57696, Note_on_c, 14, 50, 37
23, 57888, Note_on_c, 14, 50, 0
23, 57888, Note_on_c, 14, 47, 44
23, 58080, Note_on_c, 14, 47, 0
23, 58080, Note_on_c, 14, 44, 37
23, 58272, Note_on_c, 14, 44, 0
23, 58272, Note_on_c, 14, 50, 32
23, 58464, Note_on_c, 14, 50, 0
23, 58464, Note_on_c, 14, 47, 37
23, 58656, Note_on_c, 14, 47, 0
23, 58656, Note_on_c, 14, 44, 28
23, 58848, Note_on_c, 14, 44, 0
23, 58848, Control_c, 14, 11, 127
23, 58848, Note_on_c, 14, 50, 25
23, 58880, Control_c, 14, 11, 126
23, 58913, Control_c, 14, 11, 125
23, 58946, Control_c, 14, 11, 124
23, 58979, Control_c, 14, 11, 123
23, 59012, Control_c, 14, 11, 122
23, 59040, Note_on_c, 14, 50, 0
23, 59040, Note_on_c, 14, 47, 27
23, 59045, Control_c, 14, 11, 121
23, 59078, Control_c, 14, 11, 120
23, 59111, Control_c, 14, 11, 119
23, 59144, Control_c, 14, 11, 118
23, 59177, Control_c, 14, 11, 117
23, 59210, Control_c, 14, 11, 116
23, 59232, Note_on_c, 14, 47, 0
23, 59232, Note_on_c, 14, 44, 35
23, 59242, Control_c, 14, 11, 115
23, 59275, Control_c, 14, 11, 114
23, 59308, Control_c, 14, 11, 113
23, 59341, Control_c, 14, 11, 112
23, 59374, Control_c, 14, 11, 111
23, 59407, Control_c, 14, 11, 110
23, 59424, Note_on_c, 14, 44, 0
23, 59424, Note_on_c, 14, 47, 30
23, 59440, Control_c, 14, 11, 109
23, 59473, Control_c, 14, 11, 108
23, 59506, Control_c, 14, 11, 107
23, 59539, Control_c, 14, 11, 106
23, 59572, Control_c, 14, 11, 105
23, 59605, Control_c, 14, 11, 104
23, 59616, Note_on_c, 14, 47, 0
23, 59616, Note_on_c, 14, 44, 28
23, 59637, Control_c, 14, 11, 103
23, 59670, Control_c, 14, 11, 102
23, 59703, Control_c, 14, 11, 101
23, 59736, Control_c, 14, 11, 100
23, 59769, Control_c, 14, 11, 99
23, 59802, Control_c, 14, 11, 98
23, 59808, Note_on_c, 14, 44, 0
23, 59808, Note_on_c, 14, 47, 35
23, 59835, Control_c, 14, 11, 97
23, 59868, Control_c, 14, 11, 96
23, 59901, Control_c, 14, 11, 95
23, 59934, Control_c, 14, 11, 94
23, 59967, Control_c, 14, 11, 93
23, 60000, Note_on_c, 14, 47, 0
23, 60000, Control_c, 14, 11, 92
23, 60000, Note_on_c, 14, 44, 25
23, 60192, Note_on_c, 14, 44, 0
23, 60576, Program_c, 14, 48
23, 61152, Control_c, 14, 11, 64
23, 61152, Note_on_c, 14, 58, 93
23, 61155, Control_c, 14, 11, 65
23, 61158, Control_c, 14, 11, 66
23, 61161, Control_c, 14, 11, 67
23, 61164, Control_c, 14, 11, 68
23, 61167, Control_c, 14, 11, 69
23, 61170, Control_c, 14, 11, 70
23, 61173, Control_c, 14, 11, 71
23, 61174, Note_on_c, 14, 58, 0
23, 61176, Control_c, 14, 11, 72
23, 61176, Note_on_c, 14, 55, 87
23, 61176, Note_on_c, 14, 60, 90
23, 61179, Control_c, 14, 11, 73
23, 61182, Control_c, 14, 11, 74
23, 61185, Control_c, 14, 11, 75
23, 61188, Control_c, 14, 11, 76
23, 61191, Control_c, 14, 11, 77
23, 61194, Control_c, 14, 11, 78
23, 61197, Control_c, 14, 11, 79
23, 61200, Control_c, 14, 11, 80
23, 61203, Control_c, 14, 11, 81
23, 61206, Control_c, 14, 11, 82
23, 61209, Control_c, 14, 11, 83
23, 61212, Control_c, 14, 11, 84
23, 61216, Control_c, 14, 11, 85
23, 61219, Control_c, 14, 11, 86
23, 61222, Control_c, 14, 11, 87
23, 61225, Control_c, 14, 11, 88
23, 61228, Control_c, 14, 11, 89
23, 61231, Control_c, 14, 11, 90
23, 61234, Control_c, 14, 11, 91
23, 61237, Control_c, 14, 11, 92
23, 61240, Control_c, 14, 11, 93
23, 61243, Control_c, 14, 11, 94
23, 61246, Control_c, 14, 11, 95
23, 61249, Control_c, 14, 11, 96
23, 61252, Control_c, 14, 11, 97
23, 61255, Control_c, 14, 11, 98
23, 61258, Control_c, 14, 11, 99
23, 61261, Control_c, 14, 11, 100
23, 61264, Control_c, 14, 11, 101
23, 61267, Control_c, 14, 11, 102
23, 61270, Control_c, 14, 11, 103
23, 61273, Control_c, 14, 11, 104
23, 61276, Control_c, 14, 11, 105
23, 61280, Control_c, 14, 11, 106
23, 61283, Control_c, 14, 11, 107
23, 61286, Control_c, 14, 11, 108
23, 61289, Control_c, 14, 11, 109
23, 61292, Control_c, 14, 11, 110
23, 61295, Control_c, 14, 11, 111
23, 61298, Control_c, 14, 11, 112
23, 61301, Control_c, 14, 11, 113
23, 61304, Control_c, 14, 11, 114
23, 61307, Control_c, 14, 11, 115
23, 61310, Control_c, 14, 11, 116
23, 61313, Control_c, 14, 11, 117
23, 61316, Control_c, 14, 11, 118
23, 61319, Control_c, 14, 11, 119
23, 61322, Control_c, 14, 11, 120
23, 61325, Control_c, 14, 11, 121
23, 61328, Control_c, 14, 11, 122
23, 61331, Control_c, 14, 11, 123
23, 61334, Control_c, 14, 11, 124
23, 61337, Control_c, 14, 11, 125
23, 61340, Control_c, 14, 11, 126
23, 61342, Note_on_c, 14, 55, 0
23, 61342, Note_on_c, 14, 60, 0
23, 61344, Control_c, 14, 11, 127
23, 61344, Note_on_c, 14, 63, 89
23, 61344, Note_on_c, 14, 67, 87
23, 61353, Control_c, 14, 11, 126
23, 61362, Control_c, 14, 11, 125
23, 61371, Control_c, 14, 11, 124
23, 61380, Control_c, 14, 11, 123
23, 61389, Control_c, 14, 11, 122
23, 61398, Control_c, 14, 11, 121
23, 61408, Control_c, 14, 11, 120
23, 61417, Control_c, 14, 11, 119
23, 61426, Control_c, 14, 11, 118
23, 61435, Control_c, 14, 11, 117
23, 61444, Control_c, 14, 11, 116
23, 61453, Control_c, 14, 11, 115
23, 61462, Control_c, 14, 11, 114
23, 61472, Control_c, 14, 11, 113
23, 61481, Control_c, 14, 11, 112
23, 61490, Control_c, 14, 11, 111
23, 61499, Control_c, 14, 11, 110
23, 61508, Control_c, 14, 11, 109
23, 61517, Control_c, 14, 11, 108
23, 61526, Control_c, 14, 11, 107
23, 61536, Control_c, 14, 11, 106
23, 61545, Control_c, 14, 11, 105
23, 61554, Control_c, 14, 11, 104
23, 61563, Control_c, 14, 11, 103
23, 61572, Control_c, 14, 11, 102
23, 61581, Control_c, 14, 11, 101
23, 61590, Control_c, 14, 11, 100
23, 61600, Control_c, 14, 11, 99
23, 61609, Control_c, 14, 11, 98
23, 61618, Control_c, 14, 11, 97
23, 61627, Control_c, 14, 11, 96
23, 61636, Control_c, 14, 11, 95
23, 61645, Control_c, 14, 11, 94
23, 61654, Control_c, 14, 11, 93
23, 61664, Control_c, 14, 11, 92
23, 61673, Control_c, 14, 11, 91
23, 61682, Control_c, 14, 11, 90
23, 61691, Control_c, 14, 11, 89
23, 61700, Control_c, 14, 11, 88
23, 61709, Control_c, 14, 11, 87
23, 61718, Control_c, 14, 11, 86
23, 61728, Control_c, 14, 11, 85
23, 61737, Control_c, 14, 11, 84
23, 61746, Control_c, 14, 11, 83
23, 61755, Control_c, 14, 11, 82
23, 61764, Control_c, 14, 11, 81
23, 61773, Control_c, 14, 11, 80
23, 61782, Control_c, 14, 11, 79
23, 61792, Control_c, 14, 11, 78
23, 61801, Control_c, 14, 11, 77
23, 61810, Control_c, 14, 11, 76
23, 61819, Control_c, 14, 11, 75
23, 61828, Control_c, 14, 11, 74
23, 61837, Control_c, 14, 11, 73
23, 61846, Control_c, 14, 11, 72
23, 61856, Control_c, 14, 11, 71
23, 61865, Control_c, 14, 11, 70
23, 61874, Control_c, 14, 11, 69
23, 61883, Control_c, 14, 11, 68
23, 61892, Control_c, 14, 11, 67
23, 61901, Control_c, 14, 11, 66
23, 61910, Control_c, 14, 11, 65
23, 61920, Control_c, 14, 11, 64
23, 62448, Note_on_c, 14, 63, 0
23, 62448, Note_on_c, 14, 67, 0
23, 62688, Control_c, 14, 11, 92
23, 62688, Note_on_c, 14, 58, 87
23, 62710, Note_on_c, 14, 58, 0
23, 62712, Note_on_c, 14, 55, 94
23, 62712, Note_on_c, 14, 60, 89
23, 62878, Note_on_c, 14, 55, 0
23, 62878, Note_on_c, 14, 60, 0
23, 62880, Control_c, 14, 11, 92
23, 62880, Note_on_c, 14, 63, 90
23, 62880, Note_on_c, 14, 67, 94
23, 62890, Control_c, 14, 11, 93
23, 62901, Control_c, 14, 11, 94
23, 62912, Control_c, 14, 11, 95
23, 62923, Control_c, 14, 11, 96
23, 62934, Control_c, 14, 11, 97
23, 62945, Control_c, 14, 11, 98
23, 62956, Control_c, 14, 11, 99
23, 62967, Control_c, 14, 11, 100
23, 62978, Control_c, 14, 11, 101
23, 62989, Control_c, 14, 11, 102
23, 63000, Control_c, 14, 11, 103
23, 63011, Control_c, 14, 11, 104
23, 63022, Control_c, 14, 11, 105
23, 63033, Control_c, 14, 11, 106
23, 63044, Control_c, 14, 11, 107
23, 63055, Control_c, 14, 11, 108
23, 63066, Control_c, 14, 11, 109
23, 63077, Control_c, 14, 11, 110
23, 63088, Control_c, 14, 11, 111
23, 63099, Control_c, 14, 11, 112
23, 63110, Control_c, 14, 11, 113
23, 63121, Control_c, 14, 11, 114
23, 63132, Control_c, 14, 11, 115
23, 63143, Control_c, 14, 11, 116
23, 63154, Control_c, 14, 11, 117
23, 63165, Control_c, 14, 11, 118
23, 63176, Control_c, 14, 11, 119
23, 63187, Control_c, 14, 11, 120
23, 63198, Control_c, 14, 11, 121
23, 63209, Control_c, 14, 11, 122
23, 63216, Note_on_c, 14, 63, 0
23, 63216, Note_on_c, 14, 67, 0
23, 63220, Control_c, 14, 11, 123
23, 63231, Control_c, 14, 11, 124
23, 63242, Control_c, 14, 11, 125
23, 63253, Control_c, 14, 11, 126
23, 63264, Control_c, 14, 11, 127
23, 63264, Note_on_c, 14, 67, 87
23, 63264, Note_on_c, 14, 70, 91
23, 63326, Note_on_c, 14, 67, 0
23, 63326, Note_on_c, 14, 70, 0
23, 63328, Note_on_c, 14, 63, 94
23, 63328, Note_on_c, 14, 72, 94
23, 63422, Note_on_c, 14, 63, 0
23, 63422, Note_on_c, 14, 72, 0
23, 63424, Note_on_c, 14, 60, 95
23, 63424, Note_on_c, 14, 67, 88
23, 63454, Note_on_c, 14, 60, 0
23, 63454, Note_on_c, 14, 67, 0
23, 63456, Note_on_c, 14, 65, 93
23, 63456, Note_on_c, 14, 70, 88
23, 63518, Note_on_c, 14, 65, 0
23, 63518, Note_on_c, 14, 70, 0
23, 63520, Note_on_c, 14, 58, 95
23, 63520, Note_on_c, 14, 65, 93
23, 63582, Note_on_c, 14, 58, 0
23, 63582, Note_on_c, 14, 65, 0
23, 63584, Note_on_c, 14, 62, 87
23, 63584, Note_on_c, 14, 67, 96
23, 63646, Note_on_c, 14, 62, 0
23, 63646, Note_on_c, 14, 67, 0
23, 63648, Note_on_c, 14, 55, 95
23, 63648, Note_on_c, 14, 62, 88
23, 63710, Note_on_c, 14, 55, 0
23, 63710, Note_on_c, 14, 62, 0
23, 63712, Note_on_c, 14, 58, 92
23, 63712, Note_on_c, 14, 63, 93
23, 63806, Note_on_c, 14, 58, 0
23, 63806, Note_on_c, 14, 63, 0
23, 63808, Note_on_c, 14, 51, 89
23, 63808, Note_on_c, 14, 58, 95
23, 63838, Note_on_c, 14, 51, 0
23, 63838, Note_on_c, 14, 58, 0
23, 63840, Control_c, 14, 11, 127
23, 63840, Note_on_c, 14, 55, 92
23, 63840, Note_on_c, 14, 60, 90
23, 63842, Control_c, 14, 11, 126
23, 63845, Control_c, 14, 11, 125
23, 63848, Control_c, 14, 11, 124
23, 63851, Control_c, 14, 11, 123
23, 63854, Control_c, 14, 11, 122
23, 63857, Control_c, 14, 11, 121
23, 63860, Control_c, 14, 11, 120
23, 63862, Control_c, 14, 11, 119
23, 63865, Control_c, 14, 11, 118
23, 63868, Control_c, 14, 11, 117
23, 63871, Control_c, 14, 11, 116
23, 63874, Control_c, 14, 11, 115
23, 63877, Control_c, 14, 11, 114
23, 63880, Control_c, 14, 11, 113
23, 63882, Control_c, 14, 11, 112
23, 63885, Control_c, 14, 11, 111
23, 63888, Control_c, 14, 11, 110
23, 63891, Control_c, 14, 11, 109
23, 63894, Control_c, 14, 11, 108
23, 63897, Control_c, 14, 11, 107
23, 63900, Control_c, 14, 11, 106
23, 63903, Control_c, 14, 11, 105
23, 63905, Control_c, 14, 11, 104
23, 63908, Control_c, 14, 11, 103
23, 63911, Control_c, 14, 11, 102
23, 63914, Control_c, 14, 11, 101
23, 63917, Control_c, 14, 11, 100
23, 63920, Control_c, 14, 11, 99
23, 63923, Control_c, 14, 11, 98
23, 63925, Control_c, 14, 11, 97
23, 63928, Control_c, 14, 11, 96
23, 63931, Control_c, 14, 11, 95
23, 63934, Control_c, 14, 11, 94
23, 63937, Control_c, 14, 11, 93
23, 63940, Control_c, 14, 11, 92
23, 63943, Control_c, 14, 11, 91
23, 63946, Control_c, 14, 11, 90
23, 63948, Control_c, 14, 11, 89
23, 63951, Control_c, 14, 11, 88
23, 63954, Control_c, 14, 11, 87
23, 63957, Control_c, 14, 11, 86
23, 63960, Control_c, 14, 11, 85
23, 63963, Control_c, 14, 11, 84
23, 63966, Control_c, 14, 11, 83
23, 63968, Control_c, 14, 11, 82
23, 63971, Control_c, 14, 11, 81
23, 63974, Control_c, 14, 11, 80
23, 63977, Control_c, 14, 11, 79
23, 63980, Control_c, 14, 11, 78
23, 63983, Control_c, 14, 11, 77
23, 63986, Control_c, 14, 11, 76
23, 63989, Control_c, 14, 11, 75
23, 63991, Control_c, 14, 11, 74
23, 63994, Control_c, 14, 11, 73
23, 63997, Control_c, 14, 11, 72
23, 64000, Control_c, 14, 11, 71
23, 64003, Control_c, 14, 11, 70
23, 64006, Control_c, 14, 11, 69
23, 64009, Control_c, 14, 11, 68
23, 64011, Control_c, 14, 11, 67
23, 64014, Control_c, 14, 11, 66
23, 64017, Control_c, 14, 11, 65
23, 64020, Control_c, 14, 11, 64
23, 64023, Control_c, 14, 11, 63
23, 64026, Control_c, 14, 11, 62
23, 64029, Control_c, 14, 11, 61
23, 64032, Control_c, 14, 11, 60
23, 64043, Control_c, 14, 11, 61
23, 64054, Control_c, 14, 11, 62
23, 64066, Control_c, 14, 11, 63
23, 64077, Control_c, 14, 11, 64
23, 64089, Control_c, 14, 11, 65
23, 64094, Note_on_c, 14, 55, 0
23, 64094, Note_on_c, 14, 60, 0
23, 64096, Note_on_c, 14, 53, 94
23, 64096, Note_on_c, 14, 57, 94
23, 64100, Control_c, 14, 11, 66
23, 64112, Control_c, 14, 11, 67
23, 64123, Control_c, 14, 11, 68
23, 64135, Control_c, 14, 11, 69
23, 64146, Control_c, 14, 11, 70
23, 64158, Control_c, 14, 11, 71
23, 64169, Control_c, 14, 11, 72
23, 64181, Control_c, 14, 11, 73
23, 64190, Note_on_c, 14, 53, 0
23, 64190, Note_on_c, 14, 57, 0
23, 64192, Control_c, 14, 11, 74
23, 64192, Note_on_c, 14, 57, 96
23, 64192, Note_on_c, 14, 60, 90
23, 64203, Control_c, 14, 11, 75
23, 64215, Control_c, 14, 11, 76
23, 64222, Note_on_c, 14, 57, 0
23, 64222, Note_on_c, 14, 60, 0
23, 64224, Note_on_c, 14, 60, 94
23, 64224, Note_on_c, 14, 63, 97
23, 64226, Control_c, 14, 11, 77
23, 64238, Control_c, 14, 11, 78
23, 64249, Control_c, 14, 11, 79
23, 64261, Control_c, 14, 11, 80
23, 64272, Control_c, 14, 11, 81
23, 64284, Control_c, 14, 11, 82
23, 64286, Note_on_c, 14, 60, 0
23, 64286, Note_on_c, 14, 63, 0
23, 64288, Note_on_c, 14, 57, 94
23, 64288, Note_on_c, 14, 60, 87
23, 64295, Control_c, 14, 11, 83
23, 64307, Control_c, 14, 11, 84
23, 64318, Control_c, 14, 11, 85
23, 64330, Control_c, 14, 11, 86
23, 64341, Control_c, 14, 11, 87
23, 64350, Note_on_c, 14, 57, 0
23, 64350, Note_on_c, 14, 60, 0
23, 64352, Control_c, 14, 11, 88
23, 64352, Note_on_c, 14, 60, 95
23, 64352, Note_on_c, 14, 63, 94
23, 64364, Control_c, 14, 11, 89
23, 64375, Control_c, 14, 11, 90
23, 64387, Control_c, 14, 11, 91
23, 64398, Control_c, 14, 11, 92
23, 64410, Control_c, 14, 11, 93
23, 64414, Note_on_c, 14, 60, 0
23, 64414, Note_on_c, 14, 63, 0
23, 64416, Note_on_c, 14, 60, 95
23, 64416, Note_on_c, 14, 67, 92
23, 64421, Control_c, 14, 11, 94
23, 64433, Control_c, 14, 11, 95
23, 64444, Control_c, 14, 11, 96
23, 64456, Control_c, 14, 11, 97
23, 64467, Control_c, 14, 11, 98
23, 64478, Note_on_c, 14, 60, 0
23, 64478, Note_on_c, 14, 67, 0
23, 64479, Control_c, 14, 11, 99
23, 64480, Note_on_c, 14, 57, 97
23, 64480, Note_on_c, 14, 63, 88
23, 64490, Control_c, 14, 11, 100
23, 64501, Control_c, 14, 11, 101
23, 64513, Control_c, 14, 11, 102
23, 64524, Control_c, 14, 11, 103
23, 64536, Control_c, 14, 11, 104
23, 64542, Note_on_c, 14, 57, 0
23, 64542, Note_on_c, 14, 63, 0
23, 64544, Note_on_c, 14, 60, 97
23, 64544, Note_on_c, 14, 67, 94
23, 64547, Control_c, 14, 11, 105
23, 64559, Control_c, 14, 11, 106
23, 64570, Control_c, 14, 11, 107
23, 64582, Control_c, 14, 11, 108
23, 64593, Control_c, 14, 11, 109
23, 64605, Control_c, 14, 11, 110
23, 64606, Note_on_c, 14, 60, 0
23, 64606, Note_on_c, 14, 67, 0
23, 64608, Note_on_c, 14, 63, 91
23, 64608, Note_on_c, 14, 69, 97
23, 64616, Control_c, 14, 11, 111
23, 64628, Control_c, 14, 11, 112
23, 64639, Control_c, 14, 11, 113
23, 64650, Control_c, 14, 11, 114
23, 64662, Control_c, 14, 11, 115
23, 64670, Note_on_c, 14, 63, 0
23, 64670, Note_on_c, 14, 69, 0
23, 64672, Note_on_c, 14, 60, 91
23, 64672, Note_on_c, 14, 67, 92
23, 64673, Control_c, 14, 11, 116
23, 64685, Control_c, 14, 11, 117
23, 64696, Control_c, 14, 11, 118
23, 64708, Control_c, 14, 11, 119
23, 64719, Control_c, 14, 11, 120
23, 64731, Control_c, 14, 11, 121
23, 64742, Control_c, 14, 11, 122
23, 64754, Control_c, 14, 11, 123
23, 64765, Control_c, 14, 11, 124
23, 64766, Note_on_c, 14, 60, 0
23, 64766, Note_on_c, 14, 67, 0
23, 64768, Note_on_c, 14, 63, 96
23, 64768, Note_on_c, 14, 69, 96
23, 64777, Control_c, 14, 11, 125
23, 64788, Control_c, 14, 11, 126
23, 64798, Note_on_c, 14, 63, 0
23, 64798, Note_on_c, 14, 69, 0
23, 64800, Control_c, 14, 11, 127
23, 64800, Control_c, 14, 11, 92
23, 64800, Note_on_c, 14, 60, 93
23, 64800, Note_on_c, 14, 67, 97
23, 64805, Control_c, 14, 11, 93
23, 64810, Control_c, 14, 11, 94
23, 64816, Control_c, 14, 11, 95
23, 64821, Control_c, 14, 11, 96
23, 64827, Control_c, 14, 11, 97
23, 64832, Control_c, 14, 11, 98
23, 64838, Control_c, 14, 11, 99
23, 64842, Note_on_c, 14, 60, 0
23, 64842, Note_on_c, 14, 67, 0
23, 64843, Control_c, 14, 11, 100
23, 64849, Control_c, 14, 11, 101
23, 64854, Control_c, 14, 11, 102
23, 64860, Control_c, 14, 11, 103
23, 64864, Note_on_c, 14, 64, 88
23, 64864, Note_on_c, 14, 69, 96
23, 64865, Control_c, 14, 11, 104
23, 64871, Control_c, 14, 11, 105
23, 64876, Control_c, 14, 11, 106
23, 64882, Control_c, 14, 11, 107
23, 64887, Control_c, 14, 11, 108
23, 64893, Control_c, 14, 11, 109
23, 64898, Control_c, 14, 11, 110
23, 64904, Control_c, 14, 11, 111
23, 64909, Control_c, 14, 11, 112
23, 64915, Control_c, 14, 11, 113
23, 64920, Control_c, 14, 11, 114
23, 64926, Note_on_c, 14, 64, 0
23, 64926, Note_on_c, 14, 69, 0
23, 64926, Control_c, 14, 11, 115
23, 64928, Note_on_c, 14, 61, 97
23, 64928, Note_on_c, 14, 67, 94
23, 64931, Control_c, 14, 11, 116
23, 64937, Control_c, 14, 11, 117
23, 64942, Control_c, 14, 11, 118
23, 64948, Control_c, 14, 11, 119
23, 64953, Control_c, 14, 11, 120
23, 64959, Control_c, 14, 11, 121
23, 64964, Control_c, 14, 11, 122
23, 64970, Control_c, 14, 11, 123
23, 64975, Control_c, 14, 11, 124
23, 64981, Control_c, 14, 11, 125
23, 64986, Control_c, 14, 11, 126
23, 64990, Note_on_c, 14, 61, 0
23, 64990, Note_on_c, 14, 67, 0
23, 64992, Control_c, 14, 11, 127
23, 64992, Control_c, 14, 11, 60
23, 64992, Note_on_c, 14, 63, 110
23, 64992, Note_on_c, 14, 69, 110
23, 65006, Control_c, 14, 11, 61
23, 65020, Control_c, 14, 11, 62
23, 65034, Control_c, 14, 11, 63
23, 65049, Control_c, 14, 11, 64
23, 65054, Note_on_c, 14, 63, 0
23, 65054, Note_on_c, 14, 69, 0
23, 65056, Note_on_c, 14, 60, 111
23, 65056, Note_on_c, 14, 67, 105
23, 65063, Control_c, 14, 11, 65
23, 65077, Control_c, 14, 11, 66
23, 65092, Control_c, 14, 11, 67
23, 65106, Control_c, 14, 11, 68
23, 65120, Control_c, 14, 11, 69
23, 65135, Control_c, 14, 11, 70
23, 65149, Control_c, 14, 11, 71
23, 65150, Note_on_c, 14, 60, 0
23, 65150, Note_on_c, 14, 67, 0
23, 65152, Note_on_c, 14, 63, 111
23, 65152, Note_on_c, 14, 69, 110
23, 65163, Control_c, 14, 11, 72
23, 65178, Control_c, 14, 11, 73
23, 65182, Note_on_c, 14, 63, 0
23, 65182, Note_on_c, 14, 69, 0
23, 65184, Note_on_c, 14, 60, 106
23, 65184, Note_on_c, 14, 67, 104
23, 65192, Control_c, 14, 11, 74
23, 65206, Control_c, 14, 11, 75
23, 65221, Control_c, 14, 11, 76
23, 65226, Note_on_c, 14, 60, 0
23, 65226, Note_on_c, 14, 67, 0
23, 65235, Control_c, 14, 11, 77
23, 65248, Note_on_c, 14, 64, 104
23, 65248, Note_on_c, 14, 69, 108
23, 65249, Control_c, 14, 11, 78
23, 65264, Control_c, 14, 11, 79
23, 65278, Control_c, 14, 11, 80
23, 65292, Control_c, 14, 11, 81
23, 65307, Control_c, 14, 11, 82
23, 65310, Note_on_c, 14, 64, 0
23, 65310, Note_on_c, 14, 69, 0
23, 65312, Note_on_c, 14, 61, 106
23, 65312, Note_on_c, 14, 67, 113
23, 65321, Control_c, 14, 11, 83
23, 65335, Control_c, 14, 11, 84
23, 65350, Control_c, 14, 11, 85
23, 65364, Control_c, 14, 11, 86
23, 65374, Note_on_c, 14, 61, 0
23, 65374, Note_on_c, 14, 67, 0
23, 65376, Note_on_c, 14, 63, 103
23, 65376, Note_on_c, 14, 70, 106
23, 65378, Control_c, 14, 11, 87
23, 65393, Control_c, 14, 11, 88
23, 65407, Control_c, 14, 11, 89
23, 65421, Control_c, 14, 11, 90
23, 65436, Control_c, 14, 11, 91
23, 65438, Note_on_c, 14, 63, 0
23, 65438, Note_on_c, 14, 70, 0
23, 65440, Note_on_c, 14, 60, 107
23, 65440, Note_on_c, 14, 66, 109
23, 65450, Control_c, 14, 11, 92
23, 65464, Control_c, 14, 11, 93
23, 65479, Control_c, 14, 11, 94
23, 65493, Control_c, 14, 11, 95
23, 65507, Control_c, 14, 11, 96
23, 65522, Control_c, 14, 11, 97
23, 65534, Note_on_c, 14, 60, 0
23, 65534, Note_on_c, 14, 66, 0
23, 65536, Control_c, 14, 11, 98
23, 65536, Note_on_c, 14, 63, 103
23, 65536, Note_on_c, 14, 70, 104
23, 65550, Control_c, 14, 11, 99
23, 65557, Note_on_c, 14, 63, 0
23, 65557, Note_on_c, 14, 70, 0
23, 65565, Control_c, 14, 11, 100
23, 65568, Note_on_c, 14, 66, 103
23, 65568, Note_on_c, 14, 73, 103
23, 65579, Control_c, 14, 11, 101
23, 65593, Control_c, 14, 11, 102
23, 65608, Control_c, 14, 11, 103
23, 65622, Control_c, 14, 11, 104
23, 65636, Control_c, 14, 11, 105
23, 65651, Control_c, 14, 11, 106
23, 65665, Control_c, 14, 11, 107
23, 65679, Control_c, 14, 11, 108
23, 65694, Control_c, 14, 11, 109
23, 65708, Control_c, 14, 11, 110
23, 65722, Control_c, 14, 11, 111
23, 65737, Control_c, 14, 11, 112
23, 65751, Control_c, 14, 11, 113
23, 65765, Control_c, 14, 11, 114
23, 65780, Control_c, 14, 11, 115
23, 65794, Control_c, 14, 11, 116
23, 65808, Control_c, 14, 11, 117
23, 65822, Note_on_c, 14, 66, 0
23, 65822, Note_on_c, 14, 73, 0
23, 65823, Control_c, 14, 11, 118
23, 65824, Note_on_c, 14, 70, 105
23, 65824, Note_on_c, 14, 75, 104
23, 65837, Control_c, 14, 11, 119
23, 65851, Control_c, 14, 11, 120
23, 65866, Control_c, 14, 11, 121
23, 65880, Control_c, 14, 11, 122
23, 65894, Control_c, 14, 11, 123
23, 65909, Control_c, 14, 11, 124
23, 65918, Note_on_c, 14, 70, 0
23, 65918, Note_on_c, 14, 75, 0
23, 65920, Note_on_c, 14, 67, 111
23, 65920, Note_on_c, 14, 72, 104
23, 65923, Control_c, 14, 11, 125
23, 65937, Control_c, 14, 11, 126
23, 65941, Note_on_c, 14, 67, 0
23, 65941, Note_on_c, 14, 72, 0
23, 65952, Control_c, 14, 11, 127
23, 65952, Note_on_c, 14, 66, 103
23, 65952, Note_on_c, 14, 73, 107
23, 66014, Note_on_c, 14, 66, 0
23, 66014, Note_on_c, 14, 73, 0
23, 66016, Note_on_c, 14, 65, 104
23, 66016, Note_on_c, 14, 70, 113
23, 66078, Note_on_c, 14, 65, 0
23, 66078, Note_on_c, 14, 70, 0
23, 66080, Note_on_c, 14, 64, 111
23, 66080, Note_on_c, 14, 72, 106
23, 66142, Note_on_c, 14, 64, 0
23, 66142, Note_on_c, 14, 72, 0
23, 66144, Control_c, 14, 11, 127
23, 66144, Note_on_c, 14, 63, 113
23, 66144, Note_on_c, 14, 68, 103
23, 66153, Control_c, 14, 11, 126
23, 66162, Control_c, 14, 11, 125
23, 66172, Control_c, 14, 11, 124
23, 66181, Control_c, 14, 11, 123
23, 66190, Control_c, 14, 11, 122
23, 66200, Control_c, 14, 11, 121
23, 66206, Note_on_c, 14, 63, 0
23, 66206, Note_on_c, 14, 68, 0
23, 66208, Note_on_c, 14, 62, 107
23, 66208, Note_on_c, 14, 70, 113
23, 66209, Control_c, 14, 11, 120
23, 66218, Control_c, 14, 11, 119
23, 66228, Control_c, 14, 11, 118
23, 66237, Control_c, 14, 11, 117
23, 66247, Control_c, 14, 11, 116
23, 66256, Control_c, 14, 11, 115
23, 66265, Control_c, 14, 11, 114
23, 66275, Control_c, 14, 11, 113
23, 66284, Control_c, 14, 11, 112
23, 66293, Control_c, 14, 11, 111
23, 66302, Note_on_c, 14, 62, 0
23, 66302, Note_on_c, 14, 70, 0
23, 66303, Control_c, 14, 11, 110
23, 66304, Note_on_c, 14, 61, 113
23, 66304, Note_on_c, 14, 66, 111
23, 66312, Control_c, 14, 11, 109
23, 66321, Control_c, 14, 11, 108
23, 66325, Note_on_c, 14, 61, 0
23, 66325, Note_on_c, 14, 66, 0
23, 66331, Control_c, 14, 11, 107
23, 66336, Note_on_c, 14, 60, 103
23, 66336, Note_on_c, 14, 68, 110
23, 66340, Control_c, 14, 11, 106
23, 66350, Control_c, 14, 11, 105
23, 66359, Control_c, 14, 11, 104
23, 66368, Control_c, 14, 11, 103
23, 66378, Control_c, 14, 11, 102
23, 66387, Control_c, 14, 11, 101
23, 66396, Control_c, 14, 11, 100
23, 66398, Note_on_c, 14, 60, 0
23, 66398, Note_on_c, 14, 68, 0
23, 66400, Note_on_c, 14, 59, 113
23, 66400, Note_on_c, 14, 65, 110
23, 66406, Control_c, 14, 11, 99
23, 66415, Control_c, 14, 11, 98
23, 66424, Control_c, 14, 11, 97
23, 66434, Control_c, 14, 11, 96
23, 66443, Control_c, 14, 11, 95
23, 66453, Control_c, 14, 11, 94
23, 66462, Note_on_c, 14, 59, 0
23, 66462, Note_on_c, 14, 65, 0
23, 66462, Control_c, 14, 11, 93
23, 66464, Note_on_c, 14, 58, 112
23, 66464, Note_on_c, 14, 66, 109
23, 66471, Control_c, 14, 11, 92
23, 66481, Control_c, 14, 11, 91
23, 66490, Control_c, 14, 11, 90
23, 66499, Control_c, 14, 11, 89
23, 66509, Control_c, 14, 11, 88
23, 66518, Control_c, 14, 11, 87
23, 66526, Note_on_c, 14, 58, 0
23, 66526, Note_on_c, 14, 66, 0
23, 66527, Control_c, 14, 11, 86
23, 66528, Note_on_c, 14, 58, 106
23, 66528, Note_on_c, 14, 63, 105
23, 66537, Control_c, 14, 11, 85
23, 66546, Control_c, 14, 11, 84
23, 66556, Control_c, 14, 11, 83
23, 66565, Control_c, 14, 11, 82
23, 66574, Control_c, 14, 11, 81
23, 66584, Control_c, 14, 11, 80
23, 66590, Note_on_c, 14, 58, 0
23, 66590, Note_on_c, 14, 63, 0
23, 66592, Note_on_c, 14, 57, 111
23, 66592, Note_on_c, 14, 60, 110
23, 66593, Control_c, 14, 11, 79
23, 66602, Control_c, 14, 11, 78
23, 66612, Control_c, 14, 11, 77
23, 66621, Control_c, 14, 11, 76
23, 66631, Control_c, 14, 11, 75
23, 66640, Control_c, 14, 11, 74
23, 66649, Control_c, 14, 11, 73
23, 66659, Control_c, 14, 11, 72
23, 66668, Control_c, 14, 11, 71
23, 66677, Control_c, 14, 11, 70
23, 66686, Note_on_c, 14, 57, 0
23, 66686, Note_on_c, 14, 60, 0
23, 66687, Control_c, 14, 11, 69
23, 66688, Note_on_c, 14, 58, 105
23, 66688, Note_on_c, 14, 63, 111
23, 66696, Control_c, 14, 11, 68
23, 66705, Control_c, 14, 11, 67
23, 66709, Note_on_c, 14, 58, 0
23, 66709, Note_on_c, 14, 63, 0
23, 66715, Control_c, 14, 11, 66
23, 66720, Note_on_c, 14, 57, 111
23, 66720, Note_on_c, 14, 60, 106
23, 66724, Control_c, 14, 11, 65
23, 66734, Control_c, 14, 11, 64
23, 66743, Control_c, 14, 11, 63
23, 66752, Control_c, 14, 11, 62
23, 66762, Control_c, 14, 11, 61
23, 66771, Control_c, 14, 11, 60
23, 66780, Control_c, 14, 11, 59
23, 66782, Note_on_c, 14, 57, 0
23, 66782, Note_on_c, 14, 60, 0
23, 66784, Note_on_c, 14, 58, 110
23, 66784, Note_on_c, 14, 63, 105
23, 66790, Control_c, 14, 11, 58
23, 66799, Control_c, 14, 11, 57
23, 66808, Control_c, 14, 11, 56
23, 66818, Control_c, 14, 11, 55
23, 66827, Control_c, 14, 11, 54
23, 66837, Control_c, 14, 11, 53
23, 66846, Note_on_c, 14, 58, 0
23, 66846, Note_on_c, 14, 63, 0
23, 66846, Control_c, 14, 11, 52
23, 66848, Note_on_c, 14, 57, 104
23, 66848, Note_on_c, 14, 60, 112
23, 66855, Control_c, 14, 11, 51
23, 66865, Control_c, 14, 11, 50
23, 66874, Control_c, 14, 11, 49
23, 66883, Control_c, 14, 11, 48
23, 66893, Control_c, 14, 11, 47
23, 66902, Control_c, 14, 11, 46
23, 66912, Control_c, 14, 11, 45
23, 67072, Note_on_c, 14, 57, 0
23, 67072, Note_on_c, 14, 60, 0
23, 67296, Program_c, 14, 45
23, 67296, Control_c, 14, 11, 127
23, 67296, Note_on_c, 14, 57, 35
23, 67296, Note_on_c, 14, 58, 33
23, 67390, Note_on_c, 14, 57, 0
23, 67390, Note_on_c, 14, 58, 0
23, 67488, Program_c, 14, 48
23, 68064, Note_on_c, 14, 41, 28
23, 68832, Note_on_c, 14, 41, 0
23, 68832, Note_on_c, 14, 40, 26
23, 69600, Note_on_c, 14, 40, 0
23, 69600, Program_c, 14, 45
23, 69600, Note_on_c, 14, 55, 45
23, 69792, Note_on_c, 14, 55, 0
23, 69792, Note_on_c, 14, 60, 49
23, 69984, Note_on_c, 14, 60, 0
23, 69984, Note_on_c, 14, 55, 48
23, 70176, Note_on_c, 14, 55, 0
23, 70176, Note_on_c, 14, 60, 49
23, 70368, Note_on_c, 14, 60, 0
23, 70464, Note_on_c, 14, 55, 60
23, 70560, Note_on_c, 14, 55, 0
23, 70560, Note_on_c, 14, 60, 61
23, 70656, Note_on_c, 14, 60, 0
23, 70656, Note_on_c, 14, 67, 58
23, 70752, Note_on_c, 14, 67, 0
23, 70752, Note_on_c, 14, 55, 65
23, 70848, Note_on_c, 14, 55, 0
23, 70848, Note_on_c, 14, 60, 71
23, 70944, Note_on_c, 14, 60, 0
23, 70944, Note_on_c, 14, 67, 74
23, 71040, Note_on_c, 14, 67, 0
23, 71040, Note_on_c, 14, 55, 70
23, 71136, Note_on_c, 14, 55, 0
23, 71136, Note_on_c, 14, 60, 71
23, 71232, Note_on_c, 14, 60, 0
23, 71232, Note_on_c, 14, 67, 72
23, 71328, Note_on_c, 14, 67, 0
23, 71328, Note_on_c, 14, 55, 79
23, 71424, Note_on_c, 14, 55, 0
23, 71424, Note_on_c, 14, 60, 80
23, 71520, Note_on_c, 14, 60, 0
23, 71520, Note_on_c, 14, 67, 80
23, 71616, Note_on_c, 14, 67, 0
23, 71616, Note_on_c, 14, 55, 84
23, 71712, Note_on_c, 14, 55, 0
23, 71712, Note_on_c, 14, 60, 81
23, 71808, Note_on_c, 14, 60, 0
23, 71808, Note_on_c, 14, 67, 90
23, 71904, Note_on_c, 14, 67, 0
23, 71904, Program_c, 14, 48
23, 71904, Note_on_c, 14, 46, 90
23, 72064, Note_on_c, 14, 46, 0
23, 72096, Control_c, 14, 11, 92
23, 72096, Note_on_c, 14, 53, 87
23, 72101, Control_c, 14, 11, 93
23, 72106, Control_c, 14, 11, 94
23, 72112, Control_c, 14, 11, 95
23, 72117, Control_c, 14, 11, 96
23, 72123, Control_c, 14, 11, 97
23, 72128, Control_c, 14, 11, 98
23, 72134, Control_c, 14, 11, 99
23, 72139, Control_c, 14, 11, 100
23, 72145, Control_c, 14, 11, 101
23, 72150, Control_c, 14, 11, 102
23, 72156, Control_c, 14, 11, 103
23, 72161, Control_c, 14, 11, 104
23, 72167, Control_c, 14, 11, 105
23, 72172, Control_c, 14, 11, 106
23, 72178, Control_c, 14, 11, 107
23, 72183, Control_c, 14, 11, 108
23, 72189, Control_c, 14, 11, 109
23, 72194, Control_c, 14, 11, 110
23, 72200, Control_c, 14, 11, 111
23, 72205, Control_c, 14, 11, 112
23, 72211, Control_c, 14, 11, 113
23, 72216, Control_c, 14, 11, 114
23, 72222, Control_c, 14, 11, 115
23, 72227, Control_c, 14, 11, 116
23, 72233, Control_c, 14, 11, 117
23, 72238, Control_c, 14, 11, 118
23, 72244, Control_c, 14, 11, 119
23, 72249, Control_c, 14, 11, 120
23, 72255, Control_c, 14, 11, 121
23, 72260, Control_c, 14, 11, 122
23, 72266, Control_c, 14, 11, 123
23, 72271, Control_c, 14, 11, 124
23, 72277, Control_c, 14, 11, 125
23, 72282, Control_c, 14, 11, 126
23, 72288, Control_c, 14, 11, 127
23, 72291, Control_c, 14, 11, 126
23, 72295, Control_c, 14, 11, 125
23, 72299, Control_c, 14, 11, 124
23, 72302, Control_c, 14, 11, 123
23, 72306, Control_c, 14, 11, 122
23, 72310, Control_c, 14, 11, 121
23, 72313, Control_c, 14, 11, 120
23, 72317, Control_c, 14, 11, 119
23, 72321, Control_c, 14, 11, 118
23, 72324, Control_c, 14, 11, 117
23, 72328, Control_c, 14, 11, 116
23, 72332, Control_c, 14, 11, 115
23, 72336, Control_c, 14, 11, 114
23, 72339, Control_c, 14, 11, 113
23, 72343, Control_c, 14, 11, 112
23, 72347, Control_c, 14, 11, 111
23, 72350, Control_c, 14, 11, 110
23, 72354, Control_c, 14, 11, 109
23, 72358, Control_c, 14, 11, 108
23, 72361, Control_c, 14, 11, 107
23, 72365, Control_c, 14, 11, 106
23, 72369, Control_c, 14, 11, 105
23, 72372, Control_c, 14, 11, 104
23, 72376, Control_c, 14, 11, 103
23, 72380, Control_c, 14, 11, 102
23, 72384, Control_c, 14, 11, 101
23, 72387, Control_c, 14, 11, 100
23, 72391, Control_c, 14, 11, 99
23, 72395, Control_c, 14, 11, 98
23, 72398, Control_c, 14, 11, 97
23, 72402, Control_c, 14, 11, 96
23, 72406, Control_c, 14, 11, 95
23, 72409, Control_c, 14, 11, 94
23, 72413, Control_c, 14, 11, 93
23, 72417, Control_c, 14, 11, 92
23, 72420, Control_c, 14, 11, 91
23, 72424, Control_c, 14, 11, 90
23, 72428, Control_c, 14, 11, 89
23, 72432, Control_c, 14, 11, 88
23, 72435, Control_c, 14, 11, 87
23, 72439, Control_c, 14, 11, 86
23, 72443, Control_c, 14, 11, 85
23, 72446, Control_c, 14, 11, 84
23, 72450, Control_c, 14, 11, 83
23, 72454, Control_c, 14, 11, 82
23, 72457, Control_c, 14, 11, 81
23, 72461, Control_c, 14, 11, 80
23, 72465, Control_c, 14, 11, 79
23, 72468, Control_c, 14, 11, 78
23, 72472, Control_c, 14, 11, 77
23, 72476, Control_c, 14, 11, 76
23, 72480, Control_c, 14, 11, 75
23, 72574, Note_on_c, 14, 53, 0
23, 72672, Control_c, 14, 11, 127
23, 73248, Program_c, 14, 45
23, 73248, Note_on_c, 14, 41, 49
23, 73408, Note_on_c, 14, 41, 0
23, 73824, Program_c, 14, 48
23, 73824, Note_on_c, 14, 51, 41
23, 73846, Note_on_c, 14, 51, 0
23, 73848, Note_on_c, 14, 53, 44
23, 73870, Note_on_c, 14, 53, 0
23, 73872, Note_on_c, 14, 55, 49
23, 73894, Note_on_c, 14, 55, 0
23, 73896, Note_on_c, 14, 57, 58
23, 73918, Note_on_c, 14, 57, 0
23, 73920, Note_on_c, 14, 58, 58
23, 73934, Note_on_c, 14, 58, 0
23, 73936, Note_on_c, 14, 60, 61
23, 73950, Note_on_c, 14, 60, 0
23, 73952, Note_on_c, 14, 62, 62
23, 73966, Note_on_c, 14, 62, 0
23, 73968, Note_on_c, 14, 63, 65
23, 73982, Note_on_c, 14, 63, 0
23, 73984, Note_on_c, 14, 65, 73
23, 73998, Note_on_c, 14, 65, 0
23, 74000, Note_on_c, 14, 67, 75
23, 74014, Note_on_c, 14, 67, 0
23, 74016, Note_on_c, 14, 69, 70
23, 74048, Note_on_c, 14, 69, 0
23, 74304, Note_on_c, 14, 55, 47
23, 74314, Note_on_c, 14, 55, 0
23, 74316, Note_on_c, 14, 57, 46
23, 74326, Note_on_c, 14, 57, 0
23, 74328, Note_on_c, 14, 58, 46
23, 74338, Note_on_c, 14, 58, 0
23, 74340, Note_on_c, 14, 60, 49
23, 74350, Note_on_c, 14, 60, 0
23, 74352, Note_on_c, 14, 62, 61
23, 74362, Note_on_c, 14, 62, 0
23, 74364, Note_on_c, 14, 63, 63
23, 74374, Note_on_c, 14, 63, 0
23, 74376, Note_on_c, 14, 65, 68
23, 74386, Note_on_c, 14, 65, 0
23, 74388, Note_on_c, 14, 67, 74
23, 74398, Note_on_c, 14, 67, 0
23, 74400, Note_on_c, 14, 69, 71
23, 74432, Note_on_c, 14, 69, 0
23, 74880, Note_on_c, 14, 55, 41
23, 74890, Note_on_c, 14, 55, 0
23, 74892, Note_on_c, 14, 57, 48
23, 74902, Note_on_c, 14, 57, 0
23, 74904, Note_on_c, 14, 58, 45
23, 74914, Note_on_c, 14, 58, 0
23, 74916, Note_on_c, 14, 60, 53
23, 74926, Note_on_c, 14, 60, 0
23, 74928, Note_on_c, 14, 62, 59
23, 74938, Note_on_c, 14, 62, 0
23, 74940, Note_on_c, 14, 63, 58
23, 74950, Note_on_c, 14, 63, 0
23, 74952, Note_on_c, 14, 65, 64
23, 74962, Note_on_c, 14, 65, 0
23, 74964, Note_on_c, 14, 67, 72
23, 74974, Note_on_c, 14, 67, 0
23, 74976, Note_on_c, 14, 69, 79
23, 75008, Note_on_c, 14, 69, 0
23, 75456, Note_on_c, 14, 58, 73
23, 75466, Note_on_c, 14, 58, 0
23, 75468, Note_on_c, 14, 60, 78
23, 75478, Note_on_c, 14, 60, 0
23, 75480, Note_on_c, 14, 62, 80
23, 75490, Note_on_c, 14, 62, 0
23, 75492, Note_on_c, 14, 63, 86
23, 75502, Note_on_c, 14, 63, 0
23, 75504, Note_on_c, 14, 65, 91
23, 75514, Note_on_c, 14, 65, 0
23, 75516, Note_on_c, 14, 67, 90
23, 75526, Note_on_c, 14, 67, 0
23, 75528, Note_on_c, 14, 69, 98
23, 75538, Note_on_c, 14, 69, 0
23, 75540, Note_on_c, 14, 70, 105
23, 75550, Note_on_c, 14, 70, 0
23, 75552, Note_on_c, 14, 72, 112
23, 75584, Note_on_c, 14, 72, 0
23, 76080, Note_on_c, 14, 52, 73
23, 76102, Note_on_c, 14, 52, 0
23, 76104, Note_on_c, 14, 53, 71
23, 76126, Note_on_c, 14, 53, 0
23, 76128, Note_on_c, 14, 55, 78
23, 76150, Note_on_c, 14, 55, 0
23, 76152, Note_on_c, 14, 57, 87
23, 76174, Note_on_c, 14, 57, 0
23, 76176, Note_on_c, 14, 58, 84
23, 76198, Note_on_c, 14, 58, 0
23, 76200, Note_on_c, 14, 60, 89
23, 76222, Note_on_c, 14, 60, 0
23, 76224, Note_on_c, 14, 62, 93
23, 76246, Note_on_c, 14, 62, 0
23, 76248, Note_on_c, 14, 63, 97
23, 76270, Note_on_c, 14, 63, 0
23, 76272, Note_on_c, 14, 65, 101
23, 76294, Note_on_c, 14, 65, 0
23, 76296, Note_on_c, 14, 67, 103
23, 76318, Note_on_c, 14, 67, 0
23, 76320, Program_c, 14, 44
23, 76320, Control_c, 14, 11, 75
23, 76320, Note_on_c, 14, 69, 87
23, 76329, Control_c, 14, 11, 76
23, 76338, Control_c, 14, 11, 77
23, 76347, Control_c, 14, 11, 78
23, 76356, Control_c, 14, 11, 79
23, 76366, Control_c, 14, 11, 80
23, 76375, Control_c, 14, 11, 81
23, 76384, Control_c, 14, 11, 82
23, 76393, Control_c, 14, 11, 83
23, 76403, Control_c, 14, 11, 84
23, 76412, Control_c, 14, 11, 85
23, 76414, Note_on_c, 14, 69, 0
23, 76416, Note_on_c, 14, 67, 87
23, 76421, Control_c, 14, 11, 86
23, 76430, Control_c, 14, 11, 87
23, 76439, Control_c, 14, 11, 88
23, 76449, Control_c, 14, 11, 89
23, 76458, Control_c, 14, 11, 90
23, 76467, Control_c, 14, 11, 91
23, 76476, Control_c, 14, 11, 92
23, 76486, Control_c, 14, 11, 93
23, 76495, Control_c, 14, 11, 94
23, 76504, Control_c, 14, 11, 95
23, 76510, Note_on_c, 14, 67, 0
23, 76512, Note_on_c, 14, 57, 95
23, 76513, Control_c, 14, 11, 96
23, 76523, Control_c, 14, 11, 97
23, 76532, Control_c, 14, 11, 98
23, 76541, Control_c, 14, 11, 99
23, 76550, Control_c, 14, 11, 100
23, 76559, Control_c, 14, 11, 101
23, 76569, Control_c, 14, 11, 102
23, 76578, Control_c, 14, 11, 103
23, 76587, Control_c, 14, 11, 104
23, 76596, Control_c, 14, 11, 105
23, 76606, Note_on_c, 14, 57, 0
23, 76606, Control_c, 14, 11, 106
23, 76608, Program_c, 14, 48
23, 76608, Note_on_c, 14, 55, 91
23, 76615, Control_c, 14, 11, 107
23, 76624, Control_c, 14, 11, 108
23, 76633, Control_c, 14, 11, 109
23, 76640, Note_on_c, 14, 55, 0
23, 76643, Control_c, 14, 11, 110
23, 76652, Control_c, 14, 11, 111
23, 76661, Control_c, 14, 11, 112
23, 76670, Control_c, 14, 11, 113
23, 76679, Control_c, 14, 11, 114
23, 76689, Control_c, 14, 11, 115
23, 76698, Control_c, 14, 11, 116
23, 76704, Note_on_c, 14, 69, 95
23, 76707, Control_c, 14, 11, 117
23, 76716, Control_c, 14, 11, 118
23, 76726, Control_c, 14, 11, 119
23, 76735, Control_c, 14, 11, 120
23, 76744, Control_c, 14, 11, 121
23, 76753, Control_c, 14, 11, 122
23, 76763, Control_c, 14, 11, 123
23, 76772, Control_c, 14, 11, 124
23, 76781, Control_c, 14, 11, 125
23, 76790, Control_c, 14, 11, 126
23, 76800, Control_c, 14, 11, 127
23, 76846, Note_on_c, 14, 69, 0
23, 76848, Note_on_c, 14, 67, 88
23, 76894, Note_on_c, 14, 67, 0
23, 76896, Program_c, 14, 44
23, 76896, Control_c, 14, 11, 64
23, 76896, Note_on_c, 14, 69, 108
23, 76903, Control_c, 14, 11, 65
23, 76911, Control_c, 14, 11, 66
23, 76918, Control_c, 14, 11, 67
23, 76926, Control_c, 14, 11, 68
23, 76934, Control_c, 14, 11, 69
23, 76941, Control_c, 14, 11, 70
23, 76949, Control_c, 14, 11, 71
23, 76956, Control_c, 14, 11, 72
23, 76964, Control_c, 14, 11, 73
23, 76972, Control_c, 14, 11, 74
23, 76979, Control_c, 14, 11, 75
23, 76987, Control_c, 14, 11, 76
23, 76990, Note_on_c, 14, 69, 0
23, 76992, Note_on_c, 14, 67, 106
23, 76995, Control_c, 14, 11, 77
23, 77002, Control_c, 14, 11, 78
23, 77010, Control_c, 14, 11, 79
23, 77017, Control_c, 14, 11, 80
23, 77025, Control_c, 14, 11, 81
23, 77033, Control_c, 14, 11, 82
23, 77040, Control_c, 14, 11, 83
23, 77048, Control_c, 14, 11, 84
23, 77056, Control_c, 14, 11, 85
23, 77063, Control_c, 14, 11, 86
23, 77071, Control_c, 14, 11, 87
23, 77078, Control_c, 14, 11, 88
23, 77086, Note_on_c, 14, 67, 0
23, 77086, Control_c, 14, 11, 89
23, 77088, Note_on_c, 14, 57, 110
23, 77094, Control_c, 14, 11, 90
23, 77101, Control_c, 14, 11, 91
23, 77109, Control_c, 14, 11, 92
23, 77116, Control_c, 14, 11, 93
23, 77124, Control_c, 14, 11, 94
23, 77132, Control_c, 14, 11, 95
23, 77139, Control_c, 14, 11, 96
23, 77147, Control_c, 14, 11, 97
23, 77155, Control_c, 14, 11, 98
23, 77162, Control_c, 14, 11, 99
23, 77170, Control_c, 14, 11, 100
23, 77177, Control_c, 14, 11, 101
23, 77182, Note_on_c, 14, 57, 0
23, 77184, Program_c, 14, 48
23, 77184, Note_on_c, 14, 55, 112
23, 77185, Control_c, 14, 11, 102
23, 77193, Control_c, 14, 11, 103
23, 77200, Control_c, 14, 11, 104
23, 77208, Control_c, 14, 11, 105
23, 77216, Note_on_c, 14, 55, 0
23, 77216, Control_c, 14, 11, 106
23, 77223, Control_c, 14, 11, 107
23, 77231, Control_c, 14, 11, 108
23, 77238, Control_c, 14, 11, 109
23, 77246, Control_c, 14, 11, 110
23, 77254, Control_c, 14, 11, 111
23, 77261, Control_c, 14, 11, 112
23, 77269, Control_c, 14, 11, 113
23, 77276, Control_c, 14, 11, 114
23, 77280, Note_on_c, 14, 69, 103
23, 77284, Control_c, 14, 11, 115
23, 77292, Control_c, 14, 11, 116
23, 77299, Control_c, 14, 11, 117
23, 77307, Control_c, 14, 11, 118
23, 77315, Control_c, 14, 11, 119
23, 77322, Control_c, 14, 11, 120
23, 77330, Control_c, 14, 11, 121
23, 77337, Control_c, 14, 11, 122
23, 77345, Control_c, 14, 11, 123
23, 77353, Control_c, 14, 11, 124
23, 77360, Control_c, 14, 11, 125
23, 77368, Control_c, 14, 11, 126
23, 77376, Control_c, 14, 11, 127
23, 77422, Note_on_c, 14, 69, 0
23, 77424, Note_on_c, 14, 67, 106
23, 77470, Note_on_c, 14, 67, 0
23, 77472, Program_c, 14, 44
23, 77472, Control_c, 14, 11, 75
23, 77472, Note_on_c, 14, 72, 106
23, 77494, Control_c, 14, 11, 76
23, 77516, Control_c, 14, 11, 77
23, 77538, Control_c, 14, 11, 78
23, 77560, Control_c, 14, 11, 79
23, 77566, Note_on_c, 14, 72, 0
23, 77568, Note_on_c, 14, 70, 109
23, 77582, Control_c, 14, 11, 80
23, 77604, Control_c, 14, 11, 81
23, 77627, Control_c, 14, 11, 82
23, 77649, Control_c, 14, 11, 83
23, 77662, Note_on_c, 14, 70, 0
23, 77664, Note_on_c, 14, 60, 112
23, 77671, Control_c, 14, 11, 84
23, 77693, Control_c, 14, 11, 85
23, 77715, Control_c, 14, 11, 86
23, 77737, Control_c, 14, 11, 87
23, 77758, Note_on_c, 14, 60, 0
23, 77760, Control_c, 14, 11, 88
23, 77760, Program_c, 14, 48
23, 77760, Note_on_c, 14, 58, 111
23, 77782, Control_c, 14, 11, 89
23, 77792, Note_on_c, 14, 58, 0
23, 77804, Control_c, 14, 11, 90
23, 77826, Control_c, 14, 11, 91
23, 77848, Control_c, 14, 11, 92
23, 77856, Note_on_c, 14, 72, 106
23, 77870, Control_c, 14, 11, 93
23, 77892, Control_c, 14, 11, 94
23, 77915, Control_c, 14, 11, 95
23, 77937, Control_c, 14, 11, 96
23, 77959, Control_c, 14, 11, 97
23, 77981, Control_c, 14, 11, 98
23, 77998, Note_on_c, 14, 72, 0
23, 78000, Note_on_c, 14, 70, 109
23, 78003, Control_c, 14, 11, 99
23, 78025, Control_c, 14, 11, 100
23, 78046, Note_on_c, 14, 70, 0
23, 78048, Control_c, 14, 11, 101
23, 78048, Program_c, 14, 44
23, 78048, Note_on_c, 14, 72, 103
23, 78070, Control_c, 14, 11, 102
23, 78092, Control_c, 14, 11, 103
23, 78114, Control_c, 14, 11, 104
23, 78136, Control_c, 14, 11, 105
23, 78142, Note_on_c, 14, 72, 0
23, 78144, Note_on_c, 14, 70, 108
23, 78158, Control_c, 14, 11, 106
23, 78180, Control_c, 14, 11, 107
23, 78203, Control_c, 14, 11, 108
23, 78225, Control_c, 14, 11, 109
23, 78238, Note_on_c, 14, 70, 0
23, 78240, Note_on_c, 14, 60, 113
23, 78247, Control_c, 14, 11, 110
23, 78269, Control_c, 14, 11, 111
23, 78291, Control_c, 14, 11, 112
23, 78313, Control_c, 14, 11, 113
23, 78334, Note_on_c, 14, 60, 0
23, 78336, Control_c, 14, 11, 114
23, 78336, Program_c, 14, 48
23, 78336, Note_on_c, 14, 58, 108
23, 78358, Control_c, 14, 11, 115
23, 78368, Note_on_c, 14, 58, 0
23, 78380, Control_c, 14, 11, 116
23, 78402, Control_c, 14, 11, 117
23, 78424, Control_c, 14, 11, 118
23, 78432, Note_on_c, 14, 72, 113
23, 78446, Control_c, 14, 11, 119
23, 78468, Control_c, 14, 11, 120
23, 78491, Control_c, 14, 11, 121
23, 78513, Control_c, 14, 11, 122
23, 78535, Control_c, 14, 11, 123
23, 78557, Control_c, 14, 11, 124
23, 78574, Note_on_c, 14, 72, 0
23, 78576, Note_on_c, 14, 70, 108
23, 78579, Control_c, 14, 11, 125
23, 78601, Control_c, 14, 11, 126
23, 78622, Note_on_c, 14, 70, 0
23, 78624, Control_c, 14, 11, 127
23, 78624, Control_c, 14, 11, 127
23, 78624, Note_on_c, 14, 46, 109
23, 78632, Control_c, 14, 11, 126
23, 78640, Control_c, 14, 11, 125
23, 78648, Control_c, 14, 11, 124
23, 78656, Control_c, 14, 11, 123
23, 78665, Control_c, 14, 11, 122
23, 78673, Control_c, 14, 11, 121
23, 78681, Control_c, 14, 11, 120
23, 78689, Control_c, 14, 11, 119
23, 78698, Control_c, 14, 11, 118
23, 78706, Control_c, 14, 11, 117
23, 78714, Control_c, 14, 11, 116
23, 78718, Note_on_c, 14, 46, 0
23, 78720, Note_on_c, 14, 48, 108
23, 78722, Control_c, 14, 11, 115
23, 78730, Control_c, 14, 11, 114
23, 78739, Control_c, 14, 11, 113
23, 78747, Control_c, 14, 11, 112
23, 78755, Control_c, 14, 11, 111
23, 78763, Control_c, 14, 11, 110
23, 78772, Control_c, 14, 11, 109
23, 78780, Control_c, 14, 11, 108
23, 78788, Control_c, 14, 11, 107
23, 78796, Control_c, 14, 11, 106
23, 78805, Control_c, 14, 11, 105
23, 78813, Control_c, 14, 11, 104
23, 78821, Control_c, 14, 11, 103
23, 78829, Control_c, 14, 11, 102
23, 78837, Control_c, 14, 11, 101
23, 78846, Control_c, 14, 11, 100
23, 78854, Control_c, 14, 11, 99
23, 78862, Note_on_c, 14, 48, 0
23, 78862, Control_c, 14, 11, 98
23, 78864, Note_on_c, 14, 58, 103
23, 78870, Control_c, 14, 11, 97
23, 78879, Control_c, 14, 11, 96
23, 78887, Control_c, 14, 11, 95
23, 78895, Control_c, 14, 11, 94
23, 78903, Control_c, 14, 11, 93
23, 78910, Note_on_c, 14, 58, 0
23, 78912, Control_c, 14, 11, 92
23, 78912, Note_on_c, 14, 58, 112
23, 78920, Control_c, 14, 11, 93
23, 78928, Control_c, 14, 11, 94
23, 78936, Control_c, 14, 11, 95
23, 78944, Control_c, 14, 11, 96
23, 78953, Control_c, 14, 11, 97
23, 78961, Control_c, 14, 11, 98
23, 78969, Control_c, 14, 11, 99
23, 78977, Control_c, 14, 11, 100
23, 78986, Control_c, 14, 11, 101
23, 78994, Control_c, 14, 11, 102
23, 79002, Control_c, 14, 11, 103
23, 79010, Control_c, 14, 11, 104
23, 79018, Control_c, 14, 11, 105
23, 79027, Control_c, 14, 11, 106
23, 79035, Control_c, 14, 11, 107
23, 79043, Control_c, 14, 11, 108
23, 79051, Control_c, 14, 11, 109
23, 79054, Note_on_c, 14, 58, 0
23, 79056, Note_on_c, 14, 48, 107
23, 79060, Control_c, 14, 11, 110
23, 79068, Control_c, 14, 11, 111
23, 79076, Control_c, 14, 11, 112
23, 79084, Control_c, 14, 11, 113
23, 79093, Control_c, 14, 11, 114
23, 79101, Control_c, 14, 11, 115
23, 79109, Control_c, 14, 11, 116
23, 79117, Control_c, 14, 11, 117
23, 79125, Control_c, 14, 11, 118
23, 79134, Control_c, 14, 11, 119
23, 79142, Control_c, 14, 11, 120
23, 79150, Control_c, 14, 11, 121
23, 79158, Control_c, 14, 11, 122
23, 79167, Control_c, 14, 11, 123
23, 79175, Control_c, 14, 11, 124
23, 79183, Control_c, 14, 11, 125
23, 79191, Control_c, 14, 11, 126
23, 79198, Note_on_c, 14, 48, 0
23, 79200, Control_c, 14, 11, 127
23, 79200, Control_c, 14, 11, 127
23, 79200, Note_on_c, 14, 46, 104
23, 79208, Control_c, 14, 11, 126
23, 79216, Control_c, 14, 11, 125
23, 79224, Control_c, 14, 11, 124
23, 79232, Control_c, 14, 11, 123
23, 79241, Control_c, 14, 11, 122
23, 79249, Control_c, 14, 11, 121
23, 79257, Control_c, 14, 11, 120
23, 79265, Control_c, 14, 11, 119
23, 79274, Control_c, 14, 11, 118
23, 79282, Control_c, 14, 11, 117
23, 79290, Control_c, 14, 11, 116
23, 79294, Note_on_c, 14, 46, 0
23, 79296, Note_on_c, 14, 48, 103
23, 79298, Control_c, 14, 11, 115
23, 79306, Control_c, 14, 11, 114
23, 79315, Control_c, 14, 11, 113
23, 79323, Control_c, 14, 11, 112
23, 79331, Control_c, 14, 11, 111
23, 79339, Control_c, 14, 11, 110
23, 79348, Control_c, 14, 11, 109
23, 79356, Control_c, 14, 11, 108
23, 79364, Control_c, 14, 11, 107
23, 79372, Control_c, 14, 11, 106
23, 79381, Control_c, 14, 11, 105
23, 79389, Control_c, 14, 11, 104
23, 79397, Control_c, 14, 11, 103
23, 79405, Control_c, 14, 11, 102
23, 79413, Control_c, 14, 11, 101
23, 79422, Control_c, 14, 11, 100
23, 79430, Control_c, 14, 11, 99
23, 79438, Note_on_c, 14, 48, 0
23, 79438, Control_c, 14, 11, 98
23, 79440, Note_on_c, 14, 58, 108
23, 79446, Control_c, 14, 11, 97
23, 79455, Control_c, 14, 11, 96
23, 79463, Control_c, 14, 11, 95
23, 79471, Control_c, 14, 11, 94
23, 79479, Control_c, 14, 11, 93
23, 79486, Note_on_c, 14, 58, 0
23, 79488, Control_c, 14, 11, 92
23, 79488, Note_on_c, 14, 58, 110
23, 79496, Control_c, 14, 11, 93
23, 79504, Control_c, 14, 11, 94
23, 79512, Control_c, 14, 11, 95
23, 79520, Control_c, 14, 11, 96
23, 79529, Control_c, 14, 11, 97
23, 79537, Control_c, 14, 11, 98
23, 79545, Control_c, 14, 11, 99
23, 79553, Control_c, 14, 11, 100
23, 79562, Control_c, 14, 11, 101
23, 79570, Control_c, 14, 11, 102
23, 79578, Control_c, 14, 11, 103
23, 79586, Control_c, 14, 11, 104
23, 79594, Control_c, 14, 11, 105
23, 79603, Control_c, 14, 11, 106
23, 79611, Control_c, 14, 11, 107
23, 79619, Control_c, 14, 11, 108
23, 79627, Control_c, 14, 11, 109
23, 79630, Note_on_c, 14, 58, 0
23, 79632, Note_on_c, 14, 48, 107
23, 79636, Control_c, 14, 11, 110
23, 79644, Control_c, 14, 11, 111
23, 79652, Control_c, 14, 11, 112
23, 79660, Control_c, 14, 11, 113
23, 79669, Control_c, 14, 11, 114
23, 79677, Control_c, 14, 11, 115
23, 79685, Control_c, 14, 11, 116
23, 79693, Control_c, 14, 11, 117
23, 79701, Control_c, 14, 11, 118
23, 79710, Control_c, 14, 11, 119
23, 79718, Control_c, 14, 11, 120
23, 79726, Control_c, 14, 11, 121
23, 79734, Control_c, 14, 11, 122
23, 79743, Control_c, 14, 11, 123
23, 79751, Control_c, 14, 11, 124
23, 79759, Control_c, 14, 11, 125
23, 79767, Control_c, 14, 11, 126
23, 79774, Note_on_c, 14, 48, 0
23, 79776, Control_c, 14, 11, 127
23, 79776, Control_c, 14, 11, 127
23, 79776, Note_on_c, 14, 46, 108
23, 79784, Control_c, 14, 11, 126
23, 79792, Control_c, 14, 11, 125
23, 79800, Control_c, 14, 11, 124
23, 79808, Control_c, 14, 11, 123
23, 79817, Control_c, 14, 11, 122
23, 79825, Control_c, 14, 11, 121
23, 79833, Control_c, 14, 11, 120
23, 79841, Control_c, 14, 11, 119
23, 79850, Control_c, 14, 11, 118
23, 79858, Control_c, 14, 11, 117
23, 79866, Control_c, 14, 11, 116
23, 79870, Note_on_c, 14, 46, 0
23, 79872, Note_on_c, 14, 48, 104
23, 79874, Control_c, 14, 11, 115
23, 79882, Control_c, 14, 11, 114
23, 79891, Control_c, 14, 11, 113
23, 79899, Control_c, 14, 11, 112
23, 79907, Control_c, 14, 11, 111
23, 79915, Control_c, 14, 11, 110
23, 79924, Control_c, 14, 11, 109
23, 79932, Control_c, 14, 11, 108
23, 79940, Control_c, 14, 11, 107
23, 79948, Control_c, 14, 11, 106
23, 79957, Control_c, 14, 11, 105
23, 79965, Control_c, 14, 11, 104
23, 79973, Control_c, 14, 11, 103
23, 79981, Control_c, 14, 11, 102
23, 79989, Control_c, 14, 11, 101
23, 79998, Control_c, 14, 11, 100
23, 80006, Control_c, 14, 11, 99
23, 80014, Note_on_c, 14, 48, 0
23, 80014, Control_c, 14, 11, 98
23, 80016, Note_on_c, 14, 58, 103
23, 80022, Control_c, 14, 11, 97
23, 80031, Control_c, 14, 11, 96
23, 80039, Control_c, 14, 11, 95
23, 80047, Control_c, 14, 11, 94
23, 80055, Control_c, 14, 11, 93
23, 80062, Note_on_c, 14, 58, 0
23, 80064, Control_c, 14, 11, 92
23, 80064, Note_on_c, 14, 58, 111
23, 80072, Control_c, 14, 11, 93
23, 80080, Control_c, 14, 11, 94
23, 80088, Control_c, 14, 11, 95
23, 80096, Control_c, 14, 11, 96
23, 80105, Control_c, 14, 11, 97
23, 80113, Control_c, 14, 11, 98
23, 80121, Control_c, 14, 11, 99
23, 80129, Control_c, 14, 11, 100
23, 80138, Control_c, 14, 11, 101
23, 80146, Control_c, 14, 11, 102
23, 80154, Control_c, 14, 11, 103
23, 80162, Control_c, 14, 11, 104
23, 80170, Control_c, 14, 11, 105
23, 80179, Control_c, 14, 11, 106
23, 80187, Control_c, 14, 11, 107
23, 80195, Control_c, 14, 11, 108
23, 80203, Control_c, 14, 11, 109
23, 80206, Note_on_c, 14, 58, 0
23, 80208, Note_on_c, 14, 48, 103
23, 80212, Control_c, 14, 11, 110
23, 80220, Control_c, 14, 11, 111
23, 80228, Control_c, 14, 11, 112
23, 80236, Control_c, 14, 11, 113
23, 80245, Control_c, 14, 11, 114
23, 80253, Control_c, 14, 11, 115
23, 80261, Control_c, 14, 11, 116
23, 80269, Control_c, 14, 11, 117
23, 80277, Control_c, 14, 11, 118
23, 80286, Control_c, 14, 11, 119
23, 80294, Control_c, 14, 11, 120
23, 80302, Control_c, 14, 11, 121
23, 80310, Control_c, 14, 11, 122
23, 80319, Control_c, 14, 11, 123
23, 80327, Control_c, 14, 11, 124
23, 80335, Control_c, 14, 11, 125
23, 80343, Control_c, 14, 11, 126
23, 80350, Note_on_c, 14, 48, 0
23, 80352, Control_c, 14, 11, 127
23, 80352, Control_c, 14, 11, 127
23, 80352, Note_on_c, 14, 46, 108
23, 80360, Control_c, 14, 11, 126
23, 80368, Control_c, 14, 11, 125
23, 80376, Control_c, 14, 11, 124
23, 80384, Control_c, 14, 11, 123
23, 80393, Control_c, 14, 11, 122
23, 80401, Control_c, 14, 11, 121
23, 80409, Control_c, 14, 11, 120
23, 80417, Control_c, 14, 11, 119
23, 80426, Control_c, 14, 11, 118
23, 80434, Control_c, 14, 11, 117
23, 80442, Control_c, 14, 11, 116
23, 80446, Note_on_c, 14, 46, 0
23, 80448, Note_on_c, 14, 48, 109
23, 80450, Control_c, 14, 11, 115
23, 80458, Control_c, 14, 11, 114
23, 80467, Control_c, 14, 11, 113
23, 80475, Control_c, 14, 11, 112
23, 80483, Control_c, 14, 11, 111
23, 80491, Control_c, 14, 11, 110
23, 80500, Control_c, 14, 11, 109
23, 80508, Control_c, 14, 11, 108
23, 80516, Control_c, 14, 11, 107
23, 80524, Control_c, 14, 11, 106
23, 80533, Control_c, 14, 11, 105
23, 80541, Control_c, 14, 11, 104
23, 80549, Control_c, 14, 11, 103
23, 80557, Control_c, 14, 11, 102
23, 80565, Control_c, 14, 11, 101
23, 80574, Control_c, 14, 11, 100
23, 80582, Control_c, 14, 11, 99
23, 80590, Note_on_c, 14, 48, 0
23, 80590, Control_c, 14, 11, 98
23, 80592, Note_on_c, 14, 58, 113
23, 80598, Control_c, 14, 11, 97
23, 80607, Control_c, 14, 11, 96
23, 80615, Control_c, 14, 11, 95
23, 80623, Control_c, 14, 11, 94
23, 80631, Control_c, 14, 11, 93
23, 80638, Note_on_c, 14, 58, 0
23, 80640, Control_c, 14, 11, 92
23, 80640, Note_on_c, 14, 58, 108
23, 80648, Control_c, 14, 11, 93
23, 80656, Control_c, 14, 11, 94
23, 80664, Control_c, 14, 11, 95
23, 80672, Control_c, 14, 11, 96
23, 80681, Control_c, 14, 11, 97
23, 80689, Control_c, 14, 11, 98
23, 80697, Control_c, 14, 11, 99
23, 80705, Control_c, 14, 11, 100
23, 80714, Control_c, 14, 11, 101
23, 80722, Control_c, 14, 11, 102
23, 80730, Control_c, 14, 11, 103
23, 80738, Control_c, 14, 11, 104
23, 80746, Control_c, 14, 11, 105
23, 80755, Control_c, 14, 11, 106
23, 80763, Control_c, 14, 11, 107
23, 80771, Control_c, 14, 11, 108
23, 80779, Control_c, 14, 11, 109
23, 80782, Note_on_c, 14, 58, 0
23, 80784, Note_on_c, 14, 48, 105
23, 80788, Control_c, 14, 11, 110
23, 80796, Control_c, 14, 11, 111
23, 80804, Control_c, 14, 11, 112
23, 80812, Control_c, 14, 11, 113
23, 80821, Control_c, 14, 11, 114
23, 80829, Control_c, 14, 11, 115
23, 80837, Control_c, 14, 11, 116
23, 80845, Control_c, 14, 11, 117
23, 80853, Control_c, 14, 11, 118
23, 80862, Control_c, 14, 11, 119
23, 80870, Control_c, 14, 11, 120
23, 80878, Control_c, 14, 11, 121
23, 80886, Control_c, 14, 11, 122
23, 80895, Control_c, 14, 11, 123
23, 80903, Control_c, 14, 11, 124
23, 80911, Control_c, 14, 11, 125
23, 80919, Control_c, 14, 11, 126
23, 80926, Note_on_c, 14, 48, 0
23, 80928, Control_c, 14, 11, 127
23, 80928, Note_on_c, 14, 46, 92
23, 81022, Note_on_c, 14, 46, 0
23, 81024, Note_on_c, 14, 48, 95
23, 81166, Note_on_c, 14, 48, 0
23, 81168, Note_on_c, 14, 58, 97
23, 81214, Note_on_c, 14, 58, 0
23, 81216, Note_on_c, 14, 58, 87
23, 81358, Note_on_c, 14, 58, 0
23, 81360, Note_on_c, 14, 48, 87
23, 81502, Note_on_c, 14, 48, 0
23, 81504, Note_on_c, 14, 46, 87
23, 81598, Note_on_c, 14, 46, 0
23, 81600, Note_on_c, 14, 48, 79
23, 81742, Note_on_c, 14, 48, 0
23, 81744, Note_on_c, 14, 58, 77
23, 81790, Note_on_c, 14, 58, 0
23, 81792, Note_on_c, 14, 58, 83
23, 81934, Note_on_c, 14, 58, 0
23, 81936, Note_on_c, 14, 48, 77
23, 82078, Note_on_c, 14, 48, 0
23, 82080, Note_on_c, 14, 46, 77
23, 82174, Note_on_c, 14, 46, 0
23, 82176, Note_on_c, 14, 48, 72
23, 82318, Note_on_c, 14, 48, 0
23, 82320, Note_on_c, 14, 58, 67
23, 82366, Note_on_c, 14, 58, 0
23, 82368, Note_on_c, 14, 58, 71
23, 82510, Note_on_c, 14, 58, 0
23, 82512, Note_on_c, 14, 48, 68
23, 82654, Note_on_c, 14, 48, 0
23, 82656, Note_on_c, 14, 46, 56
23, 82750, Note_on_c, 14, 46, 0
23, 82752, Note_on_c, 14, 48, 64
23, 82894, Note_on_c, 14, 48, 0
23, 82896, Note_on_c, 14, 58, 57
23, 82942, Note_on_c, 14, 58, 0
23, 82944, Note_on_c, 14, 58, 57
23, 83086, Note_on_c, 14, 58, 0
23, 83088, Note_on_c, 14, 48, 45
23, 83230, Note_on_c, 14, 48, 0
23, 83232, Note_on_c, 14, 45, 42
23, 83326, Note_on_c, 14, 45, 0
23, 83328, Note_on_c, 14, 47, 44
23, 83470, Note_on_c, 14, 47, 0
23, 83472, Note_on_c, 14, 57, 46
23, 83518, Note_on_c, 14, 57, 0
23, 83520, Note_on_c, 14, 57, 44
23, 83662, Note_on_c, 14, 57, 0
23, 83664, Note_on_c, 14, 47, 49
23, 83806, Note_on_c, 14, 47, 0
23, 83808, Note_on_c, 14, 45, 45
23, 83902, Note_on_c, 14, 45, 0
23, 83904, Note_on_c, 14, 47, 43
23, 84046, Note_on_c, 14, 47, 0
23, 84048, Note_on_c, 14, 57, 46
23, 84094, Note_on_c, 14, 57, 0
23, 84096, Note_on_c, 14, 57, 41
23, 84238, Note_on_c, 14, 57, 0
23, 84240, Note_on_c, 14, 47, 45
23, 84382, Note_on_c, 14, 47, 0
23, 84384, Note_on_c, 14, 44, 48
23, 84478, Note_on_c, 14, 44, 0
23, 84480, Note_on_c, 14, 46, 42
23, 84622, Note_on_c, 14, 46, 0
23, 84624, Note_on_c, 14, 56, 40
23, 84670, Note_on_c, 14, 56, 0
23, 84672, Note_on_c, 14, 56, 39
23, 84814, Note_on_c, 14, 56, 0
23, 84816, Note_on_c, 14, 46, 36
23, 84958, Note_on_c, 14, 46, 0
23, 84960, Note_on_c, 14, 44, 36
23, 85054, Note_on_c, 14, 44, 0
23, 85056, Note_on_c, 14, 46, 39
23, 85198, Note_on_c, 14, 46, 0
23, 85200, Note_on_c, 14, 56, 40
23, 85246, Note_on_c, 14, 56, 0
23, 85248, Note_on_c, 14, 56, 38
23, 85390, Note_on_c, 14, 56, 0
23, 85392, Note_on_c, 14, 46, 43
23, 85534, Note_on_c, 14, 46, 0
23, 85536, Note_on_c, 14, 44, 40
23, 85630, Note_on_c, 14, 44, 0
23, 85632, Note_on_c, 14, 46, 32
23, 85774, Note_on_c, 14, 46, 0
23, 85776, Note_on_c, 14, 56, 40
23, 85822, Note_on_c, 14, 56, 0
23, 85824, Note_on_c, 14, 56, 40
23, 85966, Note_on_c, 14, 56, 0
23, 85968, Note_on_c, 14, 46, 28
23, 86110, Note_on_c, 14, 46, 0
23, 86112, Note_on_c, 14, 44, 26
23, 86206, Note_on_c, 14, 44, 0
23, 86208, Note_on_c, 14, 46, 26
23, 86350, Note_on_c, 14, 46, 0
23, 86352, Note_on_c, 14, 56, 34
23, 86398, Note_on_c, 14, 56, 0
23, 86400, Note_on_c, 14, 56, 25
23, 86542, Note_on_c, 14, 56, 0
23, 86544, Note_on_c, 14, 46, 33
23, 86686, Note_on_c, 14, 46, 0
23, 86688, Note_on_c, 14, 44, 26
23, 86782, Note_on_c, 14, 44, 0
23, 86784, Note_on_c, 14, 46, 28
23, 86926, Note_on_c, 14, 46, 0
23, 86928, Note_on_c, 14, 56, 29
23, 86974, Note_on_c, 14, 56, 0
23, 86976, Note_on_c, 14, 56, 31
23, 87118, Note_on_c, 14, 56, 0
23, 87120, Note_on_c, 14, 46, 28
23, 87262, Note_on_c, 14, 46, 0
23, 87264, Note_on_c, 14, 44, 28
23, 87358, Note_on_c, 14, 44, 0
23, 87360, Note_on_c, 14, 46, 34
23, 87502, Note_on_c, 14, 46, 0
23, 87504, Note_on_c, 14, 56, 25
23, 87550, Note_on_c, 14, 56, 0
23, 87552, Note_on_c, 14, 56, 33
23, 87694, Note_on_c, 14, 56, 0
23, 87696, Note_on_c, 14, 46, 32
23, 87838, Note_on_c, 14, 46, 0
23, 87840, Note_on_c, 14, 44, 26
23, 87934, Note_on_c, 14, 44, 0
23, 87936, Note_on_c, 14, 46, 33
23, 88078, Note_on_c, 14, 46, 0
23, 88080, Note_on_c, 14, 56, 25
23, 88126, Note_on_c, 14, 56, 0
23, 88128, Note_on_c, 14, 56, 27
23, 88270, Note_on_c, 14, 56, 0
23, 88272, Note_on_c, 14, 46, 33
23, 88414, Note_on_c, 14, 46, 0
23, 88416, Note_on_c, 14, 42, 34
23, 88510, Note_on_c, 14, 42, 0
23, 88512, Note_on_c, 14, 46, 30
23, 88654, Note_on_c, 14, 46, 0
23, 88656, Note_on_c, 14, 54, 31
23, 88702, Note_on_c, 14, 54, 0
23, 88704, Note_on_c, 14, 54, 30
23, 88846, Note_on_c, 14, 54, 0
23, 88848, Note_on_c, 14, 46, 32
23, 88990, Note_on_c, 14, 46, 0
23, 88992, Note_on_c, 14, 41, 25
23, 89086, Note_on_c, 14, 41, 0
23, 89088, Note_on_c, 14, 46, 27
23, 89230, Note_on_c, 14, 46, 0
23, 89232, Note_on_c, 14, 54, 31
23, 89278, Note_on_c, 14, 54, 0
23, 89280, Note_on_c, 14, 54, 35
23, 89422, Note_on_c, 14, 54, 0
23, 89424, Note_on_c, 14, 46, 33
23, 89566, Note_on_c, 14, 46, 0
23, 89568, Note_on_c, 14, 40, 30
23, 91824, Note_on_c, 14, 40, 0
23, 94176, Control_c, 14, 11, 92
23, 94176, Note_on_c, 14, 39, 44
23, 94186, Control_c, 14, 11, 93
23, 94197, Control_c, 14, 11, 94
23, 94208, Control_c, 14, 11, 95
23, 94219, Control_c, 14, 11, 96
23, 94230, Control_c, 14, 11, 97
23, 94241, Control_c, 14, 11, 98
23, 94252, Control_c, 14, 11, 99
23, 94263, Control_c, 14, 11, 100
23, 94274, Control_c, 14, 11, 101
23, 94285, Control_c, 14, 11, 102
23, 94296, Control_c, 14, 11, 103
23, 94307, Control_c, 14, 11, 104
23, 94318, Control_c, 14, 11, 105
23, 94329, Control_c, 14, 11, 106
23, 94340, Control_c, 14, 11, 107
23, 94351, Control_c, 14, 11, 108
23, 94362, Control_c, 14, 11, 109
23, 94373, Control_c, 14, 11, 110
23, 94384, Control_c, 14, 11, 111
23, 94395, Control_c, 14, 11, 112
23, 94406, Control_c, 14, 11, 113
23, 94417, Control_c, 14, 11, 114
23, 94428, Control_c, 14, 11, 115
23, 94439, Control_c, 14, 11, 116
23, 94450, Control_c, 14, 11, 117
23, 94461, Control_c, 14, 11, 118
23, 94472, Control_c, 14, 11, 119
23, 94483, Control_c, 14, 11, 120
23, 94494, Control_c, 14, 11, 121
23, 94505, Control_c, 14, 11, 122
23, 94516, Control_c, 14, 11, 123
23, 94527, Control_c, 14, 11, 124
23, 94538, Control_c, 14, 11, 125
23, 94549, Control_c, 14, 11, 126
23, 94560, Note_on_c, 14, 39, 0
23, 94560, Control_c, 14, 11, 127
23, 94560, Control_c, 14, 11, 127
23, 94560, Note_on_c, 14, 45, 35
23, 94570, Control_c, 14, 11, 126
23, 94581, Control_c, 14, 11, 125
23, 94592, Control_c, 14, 11, 124
23, 94603, Control_c, 14, 11, 123
23, 94614, Control_c, 14, 11, 122
23, 94625, Control_c, 14, 11, 121
23, 94636, Control_c, 14, 11, 120
23, 94647, Control_c, 14, 11, 119
23, 94658, Control_c, 14, 11, 118
23, 94669, Control_c, 14, 11, 117
23, 94680, Control_c, 14, 11, 116
23, 94691, Control_c, 14, 11, 115
23, 94702, Control_c, 14, 11, 114
23, 94713, Control_c, 14, 11, 113
23, 94724, Control_c, 14, 11, 112
23, 94735, Control_c, 14, 11, 111
23, 94746, Control_c, 14, 11, 110
23, 94757, Control_c, 14, 11, 109
23, 94768, Control_c, 14, 11, 108
23, 94779, Control_c, 14, 11, 107
23, 94790, Control_c, 14, 11, 106
23, 94801, Control_c, 14, 11, 105
23, 94812, Control_c, 14, 11, 104
23, 94823, Control_c, 14, 11, 103
23, 94834, Control_c, 14, 11, 102
23, 94845, Control_c, 14, 11, 101
23, 94856, Control_c, 14, 11, 100
23, 94867, Control_c, 14, 11, 99
23, 94878, Control_c, 14, 11, 98
23, 94889, Control_c, 14, 11, 97
23, 94896, Note_on_c, 14, 45, 0
23, 94900, Control_c, 14, 11, 96
23, 94911, Control_c, 14, 11, 95
23, 94922, Control_c, 14, 11, 94
23, 94933, Control_c, 14, 11, 93
23, 94944, Control_c, 14, 11, 92
23, 94944, Control_c, 14, 11, 127
23, 94944, Note_on_c, 14, 39, 34
23, 94954, Control_c, 14, 11, 126
23, 94965, Control_c, 14, 11, 125
23, 94976, Control_c, 14, 11, 124
23, 94987, Control_c, 14, 11, 123
23, 94998, Control_c, 14, 11, 122
23, 95009, Control_c, 14, 11, 121
23, 95020, Control_c, 14, 11, 120
23, 95031, Control_c, 14, 11, 119
23, 95042, Control_c, 14, 11, 118
23, 95053, Control_c, 14, 11, 117
23, 95064, Control_c, 14, 11, 116
23, 95075, Control_c, 14, 11, 115
23, 95086, Control_c, 14, 11, 114
23, 95097, Control_c, 14, 11, 113
23, 95108, Control_c, 14, 11, 112
23, 95119, Control_c, 14, 11, 111
23, 95130, Control_c, 14, 11, 110
23, 95141, Control_c, 14, 11, 109
23, 95152, Control_c, 14, 11, 108
23, 95163, Control_c, 14, 11, 107
23, 95174, Control_c, 14, 11, 106
23, 95185, Control_c, 14, 11, 105
23, 95196, Control_c, 14, 11, 104
23, 95207, Control_c, 14, 11, 103
23, 95218, Control_c, 14, 11, 102
23, 95229, Control_c, 14, 11, 101
23, 95240, Control_c, 14, 11, 100
23, 95251, Control_c, 14, 11, 99
23, 95262, Control_c, 14, 11, 98
23, 95273, Control_c, 14, 11, 97
23, 95284, Control_c, 14, 11, 96
23, 95295, Control_c, 14, 11, 95
23, 95306, Control_c, 14, 11, 94
23, 95317, Control_c, 14, 11, 93
23, 95328, Note_on_c, 14, 39, 0
23, 95328, Control_c, 14, 11, 92
23, 95328, Note_on_c, 14, 45, 25
23, 95712, Control_c, 14, 11, 92
23, 95733, Control_c, 14, 11, 91
23, 95754, Control_c, 14, 11, 90
23, 95775, Control_c, 14, 11, 89
23, 95796, Control_c, 14, 11, 88
23, 95817, Control_c, 14, 11, 87
23, 95838, Control_c, 14, 11, 86
23, 95859, Control_c, 14, 11, 85
23, 95880, Control_c, 14, 11, 84
23, 95901, Control_c, 14, 11, 83
23, 95922, Control_c, 14, 11, 82
23, 95943, Control_c, 14, 11, 81
23, 95964, Control_c, 14, 11, 80
23, 95985, Control_c, 14, 11, 79
23, 96006, Control_c, 14, 11, 78
23, 96027, Control_c, 14, 11, 77
23, 96048, Control_c, 14, 11, 76
23, 96069, Control_c, 14, 11, 75
23, 96090, Control_c, 14, 11, 74
23, 96111, Control_c, 14, 11, 73
23, 96132, Control_c, 14, 11, 72
23, 96153, Control_c, 14, 11, 71
23, 96174, Control_c, 14, 11, 70
23, 96195, Control_c, 14, 11, 69
23, 96216, Control_c, 14, 11, 68
23, 96237, Control_c, 14, 11, 67
23, 96258, Control_c, 14, 11, 66
23, 96279, Control_c, 14, 11, 65
23, 96300, Control_c, 14, 11, 64
23, 96321, Control_c, 14, 11, 63
23, 96342, Control_c, 14, 11, 62
23, 96363, Control_c, 14, 11, 61
23, 96384, Control_c, 14, 11, 60
23, 96432, Note_on_c, 14, 45, 0
23, 108768, Control_c, 14, 11, 75
23, 108768, Note_on_c, 14, 38, 63
23, 108775, Control_c, 14, 11, 76
23, 108782, Control_c, 14, 11, 77
23, 108790, Control_c, 14, 11, 78
23, 108797, Control_c, 14, 11, 79
23, 108804, Control_c, 14, 11, 80
23, 108812, Control_c, 14, 11, 81
23, 108819, Control_c, 14, 11, 82
23, 108827, Control_c, 14, 11, 83
23, 108834, Control_c, 14, 11, 84
23, 108841, Control_c, 14, 11, 85
23, 108849, Control_c, 14, 11, 86
23, 108856, Control_c, 14, 11, 87
23, 108864, Control_c, 14, 11, 88
23, 108871, Control_c, 14, 11, 89
23, 108878, Control_c, 14, 11, 90
23, 108886, Control_c, 14, 11, 91
23, 108893, Control_c, 14, 11, 92
23, 108900, Control_c, 14, 11, 93
23, 108908, Control_c, 14, 11, 94
23, 108915, Control_c, 14, 11, 95
23, 108923, Control_c, 14, 11, 96
23, 108930, Control_c, 14, 11, 97
23, 108937, Control_c, 14, 11, 98
23, 108945, Control_c, 14, 11, 99
23, 108952, Control_c, 14, 11, 100
23, 108960, Control_c, 14, 11, 101
23, 108967, Control_c, 14, 11, 102
23, 108974, Control_c, 14, 11, 103
23, 108982, Control_c, 14, 11, 104
23, 108989, Control_c, 14, 11, 105
23, 108996, Control_c, 14, 11, 106
23, 109004, Control_c, 14, 11, 107
23, 109011, Control_c, 14, 11, 108
23, 109019, Control_c, 14, 11, 109
23, 109026, Control_c, 14, 11, 110
23, 109033, Control_c, 14, 11, 111
23, 109041, Control_c, 14, 11, 112
23, 109048, Control_c, 14, 11, 113
23, 109056, Note_on_c, 14, 38, 0
23, 109056, Control_c, 14, 11, 114
23, 109056, Note_on_c, 14, 37, 59
23, 109063, Control_c, 14, 11, 115
23, 109070, Control_c, 14, 11, 116
23, 109078, Control_c, 14, 11, 117
23, 109085, Control_c, 14, 11, 118
23, 109092, Control_c, 14, 11, 119
23, 109100, Control_c, 14, 11, 120
23, 109107, Control_c, 14, 11, 121
23, 109115, Control_c, 14, 11, 122
23, 109122, Control_c, 14, 11, 123
23, 109129, Control_c, 14, 11, 124
23, 109137, Control_c, 14, 11, 125
23, 109144, Control_c, 14, 11, 126
23, 109152, Note_on_c, 14, 37, 0
23, 109152, Control_c, 14, 11, 127
23, 109152, Note_on_c, 14, 38, 56
23, 109155, Control_c, 14, 11, 126
23, 109159, Control_c, 14, 11, 125
23, 109163, Control_c, 14, 11, 124
23, 109166, Control_c, 14, 11, 123
23, 109170, Control_c, 14, 11, 122
23, 109174, Control_c, 14, 11, 121
23, 109177, Control_c, 14, 11, 120
23, 109181, Control_c, 14, 11, 119
23, 109185, Control_c, 14, 11, 118
23, 109188, Control_c, 14, 11, 117
23, 109192, Control_c, 14, 11, 116
23, 109196, Control_c, 14, 11, 115
23, 109200, Control_c, 14, 11, 114
23, 109203, Control_c, 14, 11, 113
23, 109207, Control_c, 14, 11, 112
23, 109211, Control_c, 14, 11, 111
23, 109214, Control_c, 14, 11, 110
23, 109218, Control_c, 14, 11, 109
23, 109222, Control_c, 14, 11, 108
23, 109225, Control_c, 14, 11, 107
23, 109229, Control_c, 14, 11, 106
23, 109233, Control_c, 14, 11, 105
23, 109236, Control_c, 14, 11, 104
23, 109240, Control_c, 14, 11, 103
23, 109244, Control_c, 14, 11, 102
23, 109248, Control_c, 14, 11, 101
23, 109251, Control_c, 14, 11, 100
23, 109255, Control_c, 14, 11, 99
23, 109259, Control_c, 14, 11, 98
23, 109262, Control_c, 14, 11, 97
23, 109266, Control_c, 14, 11, 96
23, 109270, Control_c, 14, 11, 95
23, 109273, Control_c, 14, 11, 94
23, 109277, Control_c, 14, 11, 93
23, 109281, Control_c, 14, 11, 92
23, 109284, Control_c, 14, 11, 91
23, 109288, Control_c, 14, 11, 90
23, 109292, Control_c, 14, 11, 89
23, 109296, Control_c, 14, 11, 88
23, 109299, Control_c, 14, 11, 87
23, 109303, Control_c, 14, 11, 86
23, 109307, Control_c, 14, 11, 85
23, 109310, Control_c, 14, 11, 84
23, 109314, Control_c, 14, 11, 83
23, 109318, Control_c, 14, 11, 82
23, 109321, Control_c, 14, 11, 81
23, 109325, Control_c, 14, 11, 80
23, 109329, Control_c, 14, 11, 79
23, 109332, Control_c, 14, 11, 78
23, 109336, Control_c, 14, 11, 77
23, 109340, Control_c, 14, 11, 76
23, 109344, Note_on_c, 14, 38, 0
23, 109344, Control_c, 14, 11, 75
23, 109344, Note_on_c, 14, 40, 65
23, 109536, Note_on_c, 14, 40, 0
23, 109536, Control_c, 14, 11, 20
23, 109536, Note_on_c, 14, 42, 97
23, 109546, Control_c, 14, 11, 21
23, 109557, Control_c, 14, 11, 22
23, 109568, Control_c, 14, 11, 23
23, 109579, Control_c, 14, 11, 24
23, 109589, Control_c, 14, 11, 25
23, 109600, Control_c, 14, 11, 26
23, 109611, Control_c, 14, 11, 27
23, 109622, Control_c, 14, 11, 28
23, 109632, Control_c, 14, 11, 29
23, 109643, Control_c, 14, 11, 30
23, 109654, Control_c, 14, 11, 31
23, 109665, Control_c, 14, 11, 32
23, 109675, Control_c, 14, 11, 33
23, 109686, Control_c, 14, 11, 34
23, 109697, Control_c, 14, 11, 35
23, 109708, Control_c, 14, 11, 36
23, 109719, Control_c, 14, 11, 37
23, 109729, Control_c, 14, 11, 38
23, 109740, Control_c, 14, 11, 39
23, 109751, Control_c, 14, 11, 40
23, 109762, Control_c, 14, 11, 41
23, 109772, Control_c, 14, 11, 42
23, 109783, Control_c, 14, 11, 43
23, 109792, Note_on_c, 14, 42, 0
23, 109794, Control_c, 14, 11, 44
23, 109805, Control_c, 14, 11, 45
23, 109815, Control_c, 14, 11, 46
23, 109824, Note_on_c, 14, 47, 96
23, 109826, Control_c, 14, 11, 47
23, 109837, Control_c, 14, 11, 48
23, 109848, Control_c, 14, 11, 49
23, 109858, Control_c, 14, 11, 50
23, 109869, Control_c, 14, 11, 51
23, 109880, Control_c, 14, 11, 52
23, 109891, Control_c, 14, 11, 53
23, 109902, Control_c, 14, 11, 54
23, 109912, Control_c, 14, 11, 55
23, 109923, Control_c, 14, 11, 56
23, 109934, Control_c, 14, 11, 57
23, 109945, Control_c, 14, 11, 58
23, 109955, Control_c, 14, 11, 59
23, 109966, Control_c, 14, 11, 60
23, 109977, Control_c, 14, 11, 61
23, 109988, Control_c, 14, 11, 62
23, 109998, Control_c, 14, 11, 63
23, 110009, Control_c, 14, 11, 64
23, 110020, Control_c, 14, 11, 65
23, 110031, Control_c, 14, 11, 66
23, 110042, Control_c, 14, 11, 67
23, 110052, Control_c, 14, 11, 68
23, 110063, Control_c, 14, 11, 69
23, 110074, Control_c, 14, 11, 70
23, 110085, Control_c, 14, 11, 71
23, 110095, Control_c, 14, 11, 72
23, 110106, Control_c, 14, 11, 73
23, 110112, Note_on_c, 14, 47, 0
23, 110112, Note_on_c, 14, 42, 97
23, 110117, Control_c, 14, 11, 74
23, 110128, Control_c, 14, 11, 75
23, 110138, Control_c, 14, 11, 76
23, 110149, Control_c, 14, 11, 77
23, 110160, Control_c, 14, 11, 78
23, 110171, Control_c, 14, 11, 79
23, 110181, Control_c, 14, 11, 80
23, 110192, Control_c, 14, 11, 81
23, 110203, Control_c, 14, 11, 82
23, 110214, Control_c, 14, 11, 83
23, 110225, Control_c, 14, 11, 84
23, 110235, Control_c, 14, 11, 85
23, 110246, Control_c, 14, 11, 86
23, 110257, Control_c, 14, 11, 87
23, 110268, Control_c, 14, 11, 88
23, 110272, Note_on_c, 14, 42, 0
23, 110278, Control_c, 14, 11, 89
23, 110289, Control_c, 14, 11, 90
23, 110300, Control_c, 14, 11, 91
23, 110304, Note_on_c, 14, 49, 104
23, 110311, Control_c, 14, 11, 92
23, 110321, Control_c, 14, 11, 93
23, 110332, Control_c, 14, 11, 94
23, 110343, Control_c, 14, 11, 95
23, 110354, Control_c, 14, 11, 96
23, 110365, Control_c, 14, 11, 97
23, 110375, Control_c, 14, 11, 98
23, 110386, Control_c, 14, 11, 99
23, 110397, Control_c, 14, 11, 100
23, 110408, Control_c, 14, 11, 101
23, 110418, Control_c, 14, 11, 102
23, 110429, Control_c, 14, 11, 103
23, 110440, Control_c, 14, 11, 104
23, 110451, Control_c, 14, 11, 105
23, 110461, Control_c, 14, 11, 106
23, 110472, Control_c, 14, 11, 107
23, 110483, Control_c, 14, 11, 108
23, 110494, Control_c, 14, 11, 109
23, 110504, Control_c, 14, 11, 110
23, 110515, Control_c, 14, 11, 111
23, 110526, Control_c, 14, 11, 112
23, 110537, Control_c, 14, 11, 113
23, 110548, Control_c, 14, 11, 114
23, 110558, Control_c, 14, 11, 115
23, 110569, Control_c, 14, 11, 116
23, 110580, Control_c, 14, 11, 117
23, 110591, Control_c, 14, 11, 118
23, 110601, Control_c, 14, 11, 119
23, 110612, Control_c, 14, 11, 120
23, 110623, Control_c, 14, 11, 121
23, 110634, Control_c, 14, 11, 122
23, 110640, Note_on_c, 14, 49, 0
23, 110644, Control_c, 14, 11, 123
23, 110655, Control_c, 14, 11, 124
23, 110666, Control_c, 14, 11, 125
23, 110677, Control_c, 14, 11, 126
23, 110688, Control_c, 14, 11, 127
23, 110688, Note_on_c, 14, 53, 97
23, 111024, Note_on_c, 14, 53, 0
23, 111072, Control_c, 14, 11, 92
23, 111072, Note_on_c, 14, 49, 101
23, 111082, Control_c, 14, 11, 93
23, 111093, Control_c, 14, 11, 94
23, 111104, Control_c, 14, 11, 95
23, 111115, Control_c, 14, 11, 96
23, 111126, Control_c, 14, 11, 97
23, 111137, Control_c, 14, 11, 98
23, 111148, Control_c, 14, 11, 99
23, 111159, Control_c, 14, 11, 100
23, 111170, Control_c, 14, 11, 101
23, 111181, Control_c, 14, 11, 102
23, 111192, Control_c, 14, 11, 103
23, 111203, Control_c, 14, 11, 104
23, 111214, Control_c, 14, 11, 105
23, 111225, Control_c, 14, 11, 106
23, 111236, Control_c, 14, 11, 107
23, 111247, Control_c, 14, 11, 108
23, 111258, Control_c, 14, 11, 109
23, 111269, Control_c, 14, 11, 110
23, 111280, Control_c, 14, 11, 111
23, 111291, Control_c, 14, 11, 112
23, 111302, Control_c, 14, 11, 113
23, 111313, Control_c, 14, 11, 114
23, 111324, Control_c, 14, 11, 115
23, 111335, Control_c, 14, 11, 116
23, 111346, Control_c, 14, 11, 117
23, 111357, Control_c, 14, 11, 118
23, 111368, Control_c, 14, 11, 119
23, 111379, Control_c, 14, 11, 120
23, 111390, Control_c, 14, 11, 121
23, 111401, Control_c, 14, 11, 122
23, 111408, Note_on_c, 14, 49, 0
23, 111412, Control_c, 14, 11, 123
23, 111423, Control_c, 14, 11, 124
23, 111434, Control_c, 14, 11, 125
23, 111445, Control_c, 14, 11, 126
23, 111456, Control_c, 14, 11, 127
23, 111456, Note_on_c, 14, 53, 101
23, 111792, Note_on_c, 14, 53, 0
23, 111840, Program_c, 14, 45
23, 111840, Note_on_c, 14, 58, 113
23, 111934, Note_on_c, 14, 58, 0
23, 111936, Note_on_c, 14, 56, 110
23, 112030, Note_on_c, 14, 56, 0
23, 112032, Note_on_c, 14, 53, 115
23, 112126, Note_on_c, 14, 53, 0
23, 112128, Note_on_c, 14, 58, 126
23, 112222, Note_on_c, 14, 58, 0
23, 112224, Note_on_c, 14, 56, 106
23, 112318, Note_on_c, 14, 56, 0
23, 112320, Note_on_c, 14, 53, 110
23, 112414, Note_on_c, 14, 53, 0
23, 112416, Note_on_c, 14, 58, 119
23, 112510, Note_on_c, 14, 58, 0
23, 112512, Note_on_c, 14, 56, 123
23, 112606, Note_on_c, 14, 56, 0
23, 112992, Program_c, 14, 44
23, 112992, Control_c, 14, 11, 75
23, 112992, Note_on_c, 14, 58, 123
23, 112993, Control_c, 14, 11, 76
23, 112995, Control_c, 14, 11, 77
23, 112997, Control_c, 14, 11, 78
23, 112999, Control_c, 14, 11, 79
23, 113001, Control_c, 14, 11, 80
23, 113003, Control_c, 14, 11, 81
23, 113004, Control_c, 14, 11, 82
23, 113006, Control_c, 14, 11, 83
23, 113008, Control_c, 14, 11, 84
23, 113010, Control_c, 14, 11, 85
23, 113012, Control_c, 14, 11, 86
23, 113014, Control_c, 14, 11, 87
23, 113016, Control_c, 14, 11, 88
23, 113017, Control_c, 14, 11, 89
23, 113019, Control_c, 14, 11, 90
23, 113021, Control_c, 14, 11, 91
23, 113023, Control_c, 14, 11, 92
23, 113025, Control_c, 14, 11, 93
23, 113027, Control_c, 14, 11, 94
23, 113028, Control_c, 14, 11, 95
23, 113030, Control_c, 14, 11, 96
23, 113032, Control_c, 14, 11, 97
23, 113034, Control_c, 14, 11, 98
23, 113036, Control_c, 14, 11, 99
23, 113038, Control_c, 14, 11, 100
23, 113040, Control_c, 14, 11, 101
23, 113041, Control_c, 14, 11, 102
23, 113043, Control_c, 14, 11, 103
23, 113045, Control_c, 14, 11, 104
23, 113047, Control_c, 14, 11, 105
23, 113049, Control_c, 14, 11, 106
23, 113051, Control_c, 14, 11, 107
23, 113052, Control_c, 14, 11, 108
23, 113054, Control_c, 14, 11, 109
23, 113056, Control_c, 14, 11, 110
23, 113058, Control_c, 14, 11, 111
23, 113060, Control_c, 14, 11, 112
23, 113062, Control_c, 14, 11, 113
23, 113064, Control_c, 14, 11, 114
23, 113065, Control_c, 14, 11, 115
23, 113067, Control_c, 14, 11, 116
23, 113069, Control_c, 14, 11, 117
23, 113071, Control_c, 14, 11, 118
23, 113073, Control_c, 14, 11, 119
23, 113075, Control_c, 14, 11, 120
23, 113076, Control_c, 14, 11, 121
23, 113078, Control_c, 14, 11, 122
23, 113080, Control_c, 14, 11, 123
23, 113082, Control_c, 14, 11, 124
23, 113084, Control_c, 14, 11, 125
23, 113086, Control_c, 14, 11, 126
23, 113088, Control_c, 14, 11, 127
23, 113089, Control_c, 14, 11, 126
23, 113091, Control_c, 14, 11, 125
23, 113093, Control_c, 14, 11, 124
23, 113095, Control_c, 14, 11, 123
23, 113097, Control_c, 14, 11, 122
23, 113099, Control_c, 14, 11, 121
23, 113100, Control_c, 14, 11, 120
23, 113102, Control_c, 14, 11, 119
23, 113104, Control_c, 14, 11, 118
23, 113106, Control_c, 14, 11, 117
23, 113108, Control_c, 14, 11, 116
23, 113110, Control_c, 14, 11, 115
23, 113112, Control_c, 14, 11, 114
23, 113113, Control_c, 14, 11, 113
23, 113115, Control_c, 14, 11, 112
23, 113117, Control_c, 14, 11, 111
23, 113119, Control_c, 14, 11, 110
23, 113121, Control_c, 14, 11, 109
23, 113123, Control_c, 14, 11, 108
23, 113124, Control_c, 14, 11, 107
23, 113126, Control_c, 14, 11, 106
23, 113128, Control_c, 14, 11, 105
23, 113130, Control_c, 14, 11, 104
23, 113132, Control_c, 14, 11, 103
23, 113134, Control_c, 14, 11, 102
23, 113136, Control_c, 14, 11, 101
23, 113137, Control_c, 14, 11, 100
23, 113139, Control_c, 14, 11, 99
23, 113141, Control_c, 14, 11, 98
23, 113143, Control_c, 14, 11, 97
23, 113145, Control_c, 14, 11, 96
23, 113147, Control_c, 14, 11, 95
23, 113148, Control_c, 14, 11, 94
23, 113150, Control_c, 14, 11, 93
23, 113152, Note_on_c, 14, 58, 0
23, 113152, Control_c, 14, 11, 92
23, 113154, Control_c, 14, 11, 91
23, 113156, Control_c, 14, 11, 90
23, 113158, Control_c, 14, 11, 89
23, 113160, Control_c, 14, 11, 88
23, 113161, Control_c, 14, 11, 87
23, 113163, Control_c, 14, 11, 86
23, 113165, Control_c, 14, 11, 85
23, 113167, Control_c, 14, 11, 84
23, 113169, Control_c, 14, 11, 83
23, 113171, Control_c, 14, 11, 82
23, 113172, Control_c, 14, 11, 81
23, 113174, Control_c, 14, 11, 80
23, 113176, Control_c, 14, 11, 79
23, 113178, Control_c, 14, 11, 78
23, 113180, Control_c, 14, 11, 77
23, 113182, Control_c, 14, 11, 76
23, 113184, Control_c, 14, 11, 75
23, 113184, Control_c, 14, 11, 75
23, 113184, Note_on_c, 14, 56, 127
23, 113185, Control_c, 14, 11, 76
23, 113187, Control_c, 14, 11, 77
23, 113189, Control_c, 14, 11, 78
23, 113191, Control_c, 14, 11, 79
23, 113193, Control_c, 14, 11, 80
23, 113195, Control_c, 14, 11, 81
23, 113196, Control_c, 14, 11, 82
23, 113198, Control_c, 14, 11, 83
23, 113200, Control_c, 14, 11, 84
23, 113202, Control_c, 14, 11, 85
23, 113204, Control_c, 14, 11, 86
23, 113206, Control_c, 14, 11, 87
23, 113208, Control_c, 14, 11, 88
23, 113209, Control_c, 14, 11, 89
23, 113211, Control_c, 14, 11, 90
23, 113213, Control_c, 14, 11, 91
23, 113215, Control_c, 14, 11, 92
23, 113217, Control_c, 14, 11, 93
23, 113219, Control_c, 14, 11, 94
23, 113220, Control_c, 14, 11, 95
23, 113222, Control_c, 14, 11, 96
23, 113224, Control_c, 14, 11, 97
23, 113226, Control_c, 14, 11, 98
23, 113228, Control_c, 14, 11, 99
23, 113230, Control_c, 14, 11, 100
23, 113232, Control_c, 14, 11, 101
23, 113233, Control_c, 14, 11, 102
23, 113235, Control_c, 14, 11, 103
23, 113237, Control_c, 14, 11, 104
23, 113239, Control_c, 14, 11, 105
23, 113241, Control_c, 14, 11, 106
23, 113243, Control_c, 14, 11, 107
23, 113244, Control_c, 14, 11, 108
23, 113246, Control_c, 14, 11, 109
23, 113248, Control_c, 14, 11, 110
23, 113250, Control_c, 14, 11, 111
23, 113252, Control_c, 14, 11, 112
23, 113254, Control_c, 14, 11, 113
23, 113256, Control_c, 14, 11, 114
23, 113257, Control_c, 14, 11, 115
23, 113259, Control_c, 14, 11, 116
23, 113261, Control_c, 14, 11, 117
23, 113263, Control_c, 14, 11, 118
23, 113265, Control_c, 14, 11, 119
23, 113267, Control_c, 14, 11, 120
23, 113268, Control_c, 14, 11, 121
23, 113270, Control_c, 14, 11, 122
23, 113272, Control_c, 14, 11, 123
23, 113274, Control_c, 14, 11, 124
23, 113276, Control_c, 14, 11, 125
23, 113278, Control_c, 14, 11, 126
23, 113280, Control_c, 14, 11, 127
23, 113281, Control_c, 14, 11, 126
23, 113283, Control_c, 14, 11, 125
23, 113285, Control_c, 14, 11, 124
23, 113287, Control_c, 14, 11, 123
23, 113289, Control_c, 14, 11, 122
23, 113291, Control_c, 14, 11, 121
23, 113292, Control_c, 14, 11, 120
23, 113294, Control_c, 14, 11, 119
23, 113296, Control_c, 14, 11, 118
23, 113298, Control_c, 14, 11, 117
23, 113300, Control_c, 14, 11, 116
23, 113302, Control_c, 14, 11, 115
23, 113304, Control_c, 14, 11, 114
23, 113305, Control_c, 14, 11, 113
23, 113307, Control_c, 14, 11, 112
23, 113309, Control_c, 14, 11, 111
23, 113311, Control_c, 14, 11, 110
23, 113313, Control_c, 14, 11, 109
23, 113315, Control_c, 14, 11, 108
23, 113316, Control_c, 14, 11, 107
23, 113318, Control_c, 14, 11, 106
23, 113320, Control_c, 14, 11, 105
23, 113322, Control_c, 14, 11, 104
23, 113324, Control_c, 14, 11, 103
23, 113326, Control_c, 14, 11, 102
23, 113328, Control_c, 14, 11, 101
23, 113329, Control_c, 14, 11, 100
23, 113331, Control_c, 14, 11, 99
23, 113333, Control_c, 14, 11, 98
23, 113335, Control_c, 14, 11, 97
23, 113337, Control_c, 14, 11, 96
23, 113339, Control_c, 14, 11, 95
23, 113340, Control_c, 14, 11, 94
23, 113342, Control_c, 14, 11, 93
23, 113344, Note_on_c, 14, 56, 0
23, 113344, Control_c, 14, 11, 92
23, 113346, Control_c, 14, 11, 91
23, 113348, Control_c, 14, 11, 90
23, 113350, Control_c, 14, 11, 89
23, 113352, Control_c, 14, 11, 88
23, 113353, Control_c, 14, 11, 87
23, 113355, Control_c, 14, 11, 86
23, 113357, Control_c, 14, 11, 85
23, 113359, Control_c, 14, 11, 84
23, 113361, Control_c, 14, 11, 83
23, 113363, Control_c, 14, 11, 82
23, 113364, Control_c, 14, 11, 81
23, 113366, Control_c, 14, 11, 80
23, 113368, Control_c, 14, 11, 79
23, 113370, Control_c, 14, 11, 78
23, 113372, Control_c, 14, 11, 77
23, 113374, Control_c, 14, 11, 76
23, 113376, Control_c, 14, 11, 75
23, 113376, Control_c, 14, 11, 75
23, 113376, Note_on_c, 14, 53, 127
23, 113377, Control_c, 14, 11, 76
23, 113379, Control_c, 14, 11, 77
23, 113381, Control_c, 14, 11, 78
23, 113383, Control_c, 14, 11, 79
23, 113385, Control_c, 14, 11, 80
23, 113387, Control_c, 14, 11, 81
23, 113388, Control_c, 14, 11, 82
23, 113390, Control_c, 14, 11, 83
23, 113392, Control_c, 14, 11, 84
23, 113394, Control_c, 14, 11, 85
23, 113396, Control_c, 14, 11, 86
23, 113398, Control_c, 14, 11, 87
23, 113400, Control_c, 14, 11, 88
23, 113401, Control_c, 14, 11, 89
23, 113403, Control_c, 14, 11, 90
23, 113405, Control_c, 14, 11, 91
23, 113407, Control_c, 14, 11, 92
23, 113409, Control_c, 14, 11, 93
23, 113411, Control_c, 14, 11, 94
23, 113412, Control_c, 14, 11, 95
23, 113414, Control_c, 14, 11, 96
23, 113416, Control_c, 14, 11, 97
23, 113418, Control_c, 14, 11, 98
23, 113420, Control_c, 14, 11, 99
23, 113422, Control_c, 14, 11, 100
23, 113424, Control_c, 14, 11, 101
23, 113425, Control_c, 14, 11, 102
23, 113427, Control_c, 14, 11, 103
23, 113429, Control_c, 14, 11, 104
23, 113431, Control_c, 14, 11, 105
23, 113433, Control_c, 14, 11, 106
23, 113435, Control_c, 14, 11, 107
23, 113436, Control_c, 14, 11, 108
23, 113438, Control_c, 14, 11, 109
23, 113440, Control_c, 14, 11, 110
23, 113442, Control_c, 14, 11, 111
23, 113444, Control_c, 14, 11, 112
23, 113446, Control_c, 14, 11, 113
23, 113448, Control_c, 14, 11, 114
23, 113449, Control_c, 14, 11, 115
23, 113451, Control_c, 14, 11, 116
23, 113453, Control_c, 14, 11, 117
23, 113455, Control_c, 14, 11, 118
23, 113457, Control_c, 14, 11, 119
23, 113459, Control_c, 14, 11, 120
23, 113460, Control_c, 14, 11, 121
23, 113462, Control_c, 14, 11, 122
23, 113464, Control_c, 14, 11, 123
23, 113466, Control_c, 14, 11, 124
23, 113468, Control_c, 14, 11, 125
23, 113470, Control_c, 14, 11, 126
23, 113472, Control_c, 14, 11, 127
23, 113474, Control_c, 14, 11, 126
23, 113476, Control_c, 14, 11, 125
23, 113478, Control_c, 14, 11, 124
23, 113481, Control_c, 14, 11, 123
23, 113483, Control_c, 14, 11, 122
23, 113485, Control_c, 14, 11, 121
23, 113487, Control_c, 14, 11, 120
23, 113490, Control_c, 14, 11, 119
23, 113492, Control_c, 14, 11, 118
23, 113494, Control_c, 14, 11, 117
23, 113496, Control_c, 14, 11, 116
23, 113499, Control_c, 14, 11, 115
23, 113501, Control_c, 14, 11, 114
23, 113503, Control_c, 14, 11, 113
23, 113506, Control_c, 14, 11, 112
23, 113508, Control_c, 14, 11, 111
23, 113510, Control_c, 14, 11, 110
23, 113512, Control_c, 14, 11, 109
23, 113515, Control_c, 14, 11, 108
23, 113517, Control_c, 14, 11, 107
23, 113519, Control_c, 14, 11, 106
23, 113521, Control_c, 14, 11, 105
23, 113524, Control_c, 14, 11, 104
23, 113526, Control_c, 14, 11, 103
23, 113528, Control_c, 14, 11, 102
23, 113530, Control_c, 14, 11, 101
23, 113533, Control_c, 14, 11, 100
23, 113535, Control_c, 14, 11, 99
23, 113537, Control_c, 14, 11, 98
23, 113540, Control_c, 14, 11, 97
23, 113542, Control_c, 14, 11, 96
23, 113544, Control_c, 14, 11, 95
23, 113546, Control_c, 14, 11, 94
23, 113549, Control_c, 14, 11, 93
23, 113551, Control_c, 14, 11, 92
23, 113553, Control_c, 14, 11, 91
23, 113555, Control_c, 14, 11, 90
23, 113558, Control_c, 14, 11, 89
23, 113560, Control_c, 14, 11, 88
23, 113562, Control_c, 14, 11, 87
23, 113564, Control_c, 14, 11, 86
23, 113567, Control_c, 14, 11, 85
23, 113569, Control_c, 14, 11, 84
23, 113571, Control_c, 14, 11, 83
23, 113574, Control_c, 14, 11, 82
23, 113576, Control_c, 14, 11, 81
23, 113578, Control_c, 14, 11, 80
23, 113580, Control_c, 14, 11, 79
23, 113583, Control_c, 14, 11, 78
23, 113585, Control_c, 14, 11, 77
23, 113587, Control_c, 14, 11, 76
23, 113589, Control_c, 14, 11, 75
23, 113592, Control_c, 14, 11, 74
23, 113594, Control_c, 14, 11, 73
23, 113596, Control_c, 14, 11, 72
23, 113598, Control_c, 14, 11, 71
23, 113601, Control_c, 14, 11, 70
23, 113603, Control_c, 14, 11, 69
23, 113605, Control_c, 14, 11, 68
23, 113608, Control_c, 14, 11, 67
23, 113610, Control_c, 14, 11, 66
23, 113612, Control_c, 14, 11, 65
23, 113614, Control_c, 14, 11, 64
23, 113617, Control_c, 14, 11, 63
23, 113619, Control_c, 14, 11, 62
23, 113621, Control_c, 14, 11, 61
23, 113623, Control_c, 14, 11, 60
23, 113626, Control_c, 14, 11, 59
23, 113628, Control_c, 14, 11, 58
23, 113630, Control_c, 14, 11, 57
23, 113633, Control_c, 14, 11, 56
23, 113635, Control_c, 14, 11, 55
23, 113637, Control_c, 14, 11, 54
23, 113639, Control_c, 14, 11, 53
23, 113642, Control_c, 14, 11, 52
23, 113644, Control_c, 14, 11, 51
23, 113646, Control_c, 14, 11, 50
23, 113648, Control_c, 14, 11, 49
23, 113651, Control_c, 14, 11, 48
23, 113653, Control_c, 14, 11, 47
23, 113655, Control_c, 14, 11, 46
23, 113657, Control_c, 14, 11, 45
23, 113660, Control_c, 14, 11, 44
23, 113662, Control_c, 14, 11, 43
23, 113664, Control_c, 14, 11, 42
23, 113667, Control_c, 14, 11, 41
23, 113669, Control_c, 14, 11, 40
23, 113671, Control_c, 14, 11, 39
23, 113673, Control_c, 14, 11, 38
23, 113676, Control_c, 14, 11, 37
23, 113678, Control_c, 14, 11, 36
23, 113680, Control_c, 14, 11, 35
23, 113682, Control_c, 14, 11, 34
23, 113685, Control_c, 14, 11, 33
23, 113687, Control_c, 14, 11, 32
23, 113689, Control_c, 14, 11, 31
23, 113691, Control_c, 14, 11, 30
23, 113694, Control_c, 14, 11, 29
23, 113696, Control_c, 14, 11, 28
23, 113698, Control_c, 14, 11, 27
23, 113701, Control_c, 14, 11, 26
23, 113703, Control_c, 14, 11, 25
23, 113705, Control_c, 14, 11, 24
23, 113707, Control_c, 14, 11, 23
23, 113710, Control_c, 14, 11, 22
23, 113712, Control_c, 14, 11, 21
23, 113714, Control_c, 14, 11, 20
23, 113716, Control_c, 14, 11, 19
23, 113719, Control_c, 14, 11, 18
23, 113721, Control_c, 14, 11, 17
23, 113723, Control_c, 14, 11, 16
23, 113725, Control_c, 14, 11, 15
23, 113728, Note_on_c, 14, 53, 0
23, 113728, Control_c, 14, 11, 14
23, 113730, Control_c, 14, 11, 13
23, 113732, Control_c, 14, 11, 12
23, 113735, Control_c, 14, 11, 11
23, 113737, Control_c, 14, 11, 10
23, 113739, Control_c, 14, 11, 9
23, 113741, Control_c, 14, 11, 8
23, 113744, Control_c, 14, 11, 7
23, 113746, Control_c, 14, 11, 6
23, 113748, Control_c, 14, 11, 5
23, 113750, Control_c, 14, 11, 4
23, 113753, Control_c, 14, 11, 3
23, 113755, Control_c, 14, 11, 2
23, 113757, Control_c, 14, 11, 1
23, 113760, Control_c, 14, 11, 0
23, 113760, End_track
24, 0, Start_track
24, 0, Title_t, "Violoncelli II"
24, 0, MIDI_port, 0
24, 183, Control_c, 14, 0, 0
24, 184, Control_c, 14, 32, 0
24, 185, Program_c, 14, 48
24, 186, Control_c, 14, 7, 127
24, 187, Control_c, 14, 10, 74
24, 188, Control_c, 14, 91, 127
24, 4608, Note_on_c, 14, 42, 33
24, 4656, Note_on_c, 14, 42, 0
24, 4656, Note_on_c, 14, 44, 35
24, 4992, Note_on_c, 14, 44, 0
24, 4992, Note_on_c, 14, 44, 26
24, 5376, Note_on_c, 14, 44, 0
24, 5376, Note_on_c, 14, 44, 27
24, 5760, Note_on_c, 14, 44, 0
24, 5760, Note_on_c, 14, 42, 27
24, 5808, Note_on_c, 14, 42, 0
24, 5808, Note_on_c, 14, 44, 26
24, 6336, Note_on_c, 14, 44, 0
24, 6336, Note_on_c, 14, 44, 32
24, 6720, Note_on_c, 14, 44, 0
24, 6720, Note_on_c, 14, 44, 32
24, 6912, Note_on_c, 14, 44, 0
24, 6912, Note_on_c, 14, 42, 26
24, 6960, Note_on_c, 14, 42, 0
24, 6960, Note_on_c, 14, 44, 30
24, 7488, Note_on_c, 14, 44, 0
24, 7488, Note_on_c, 14, 44, 31
24, 7872, Note_on_c, 14, 44, 0
24, 7872, Note_on_c, 14, 44, 33
24, 8064, Note_on_c, 14, 44, 0
24, 30336, Program_c, 14, 48
24, 31104, Note_on_c, 14, 46, 58
24, 31134, Note_on_c, 14, 46, 0
24, 31136, Note_on_c, 14, 44, 59
24, 31166, Note_on_c, 14, 44, 0
24, 31168, Note_on_c, 14, 46, 65
24, 31198, Note_on_c, 14, 46, 0
24, 31200, Note_on_c, 14, 44, 64
24, 31246, Note_on_c, 14, 44, 0
24, 31248, Note_on_c, 14, 37, 64
24, 31280, Note_on_c, 14, 37, 0
24, 31392, Note_on_c, 14, 46, 58
24, 31422, Note_on_c, 14, 46, 0
24, 31424, Note_on_c, 14, 44, 64
24, 31454, Note_on_c, 14, 44, 0
24, 31456, Note_on_c, 14, 46, 60
24, 31486, Note_on_c, 14, 46, 0
24, 31488, Note_on_c, 14, 44, 57
24, 31534, Note_on_c, 14, 44, 0
24, 31536, Note_on_c, 14, 37, 62
24, 31568, Note_on_c, 14, 37, 0
24, 31680, Note_on_c, 14, 46, 58
24, 31710, Note_on_c, 14, 46, 0
24, 31712, Note_on_c, 14, 44, 60
24, 31742, Note_on_c, 14, 44, 0
24, 31744, Note_on_c, 14, 46, 59
24, 31774, Note_on_c, 14, 46, 0
24, 31776, Note_on_c, 14, 44, 58
24, 31822, Note_on_c, 14, 44, 0
24, 31824, Note_on_c, 14, 37, 55
24, 31856, Note_on_c, 14, 37, 0
24, 31968, Note_on_c, 14, 46, 57
24, 31998, Note_on_c, 14, 46, 0
24, 32000, Note_on_c, 14, 44, 61
24, 32030, Note_on_c, 14, 44, 0
24, 32032, Note_on_c, 14, 46, 55
24, 32062, Note_on_c, 14, 46, 0
24, 32064, Note_on_c, 14, 44, 58
24, 32110, Note_on_c, 14, 44, 0
24, 32112, Note_on_c, 14, 37, 61
24, 32144, Note_on_c, 14, 37, 0
24, 32256, Note_on_c, 14, 46, 59
24, 32286, Note_on_c, 14, 46, 0
24, 32288, Note_on_c, 14, 44, 61
24, 32318, Note_on_c, 14, 44, 0
24, 32320, Note_on_c, 14, 46, 62
24, 32350, Note_on_c, 14, 46, 0
24, 32352, Note_on_c, 14, 44, 60
24, 32398, Note_on_c, 14, 44, 0
24, 32400, Note_on_c, 14, 37, 55
24, 32432, Note_on_c, 14, 37, 0
24, 32544, Note_on_c, 14, 46, 56
24, 32574, Note_on_c, 14, 46, 0
24, 32576, Note_on_c, 14, 44, 55
24, 32606, Note_on_c, 14, 44, 0
24, 32608, Note_on_c, 14, 46, 57
24, 32638, Note_on_c, 14, 46, 0
24, 32640, Note_on_c, 14, 44, 62
24, 32686, Note_on_c, 14, 44, 0
24, 32688, Note_on_c, 14, 37, 62
24, 32720, Note_on_c, 14, 37, 0
24, 32832, Note_on_c, 14, 46, 44
24, 32862, Note_on_c, 14, 46, 0
24, 32864, Note_on_c, 14, 44, 43
24, 32894, Note_on_c, 14, 44, 0
24, 32896, Note_on_c, 14, 46, 44
24, 32926, Note_on_c, 14, 46, 0
24, 32928, Note_on_c, 14, 44, 41
24, 32974, Note_on_c, 14, 44, 0
24, 32976, Note_on_c, 14, 37, 50
24, 33008, Note_on_c, 14, 37, 0
24, 33120, Note_on_c, 14, 46, 45
24, 33150, Note_on_c, 14, 46, 0
24, 33152, Note_on_c, 14, 44, 40
24, 33182, Note_on_c, 14, 44, 0
24, 33184, Note_on_c, 14, 46, 50
24, 33214, Note_on_c, 14, 46, 0
24, 33216, Note_on_c, 14, 44, 40
24, 33262, Note_on_c, 14, 44, 0
24, 33264, Note_on_c, 14, 37, 43
24, 33296, Note_on_c, 14, 37, 0
24, 33408, Note_on_c, 14, 46, 41
24, 33438, Note_on_c, 14, 46, 0
24, 33440, Note_on_c, 14, 44, 40
24, 33470, Note_on_c, 14, 44, 0
24, 33472, Note_on_c, 14, 46, 47
24, 33502, Note_on_c, 14, 46, 0
24, 33504, Note_on_c, 14, 44, 43
24, 33550, Note_on_c, 14, 44, 0
24, 33552, Note_on_c, 14, 37, 47
24, 33584, Note_on_c, 14, 37, 0
24, 33696, Note_on_c, 14, 46, 41
24, 33726, Note_on_c, 14, 46, 0
24, 33728, Note_on_c, 14, 44, 50
24, 33758, Note_on_c, 14, 44, 0
24, 33760, Note_on_c, 14, 46, 40
24, 33790, Note_on_c, 14, 46, 0
24, 33792, Note_on_c, 14, 44, 40
24, 33838, Note_on_c, 14, 44, 0
24, 33840, Note_on_c, 14, 37, 47
24, 33872, Note_on_c, 14, 37, 0
24, 33984, Note_on_c, 14, 46, 42
24, 34014, Note_on_c, 14, 46, 0
24, 34016, Note_on_c, 14, 44, 50
24, 34046, Note_on_c, 14, 44, 0
24, 34048, Note_on_c, 14, 46, 50
24, 34078, Note_on_c, 14, 46, 0
24, 34080, Note_on_c, 14, 44, 41
24, 34126, Note_on_c, 14, 44, 0
24, 34128, Note_on_c, 14, 37, 50
24, 34160, Note_on_c, 14, 37, 0
24, 34272, Note_on_c, 14, 46, 48
24, 34302, Note_on_c, 14, 46, 0
24, 34304, Note_on_c, 14, 44, 50
24, 34334, Note_on_c, 14, 44, 0
24, 34336, Note_on_c, 14, 46, 41
24, 34366, Note_on_c, 14, 46, 0
24, 34368, Note_on_c, 14, 44, 46
24, 34414, Note_on_c, 14, 44, 0
24, 34416, Note_on_c, 14, 37, 41
24, 34448, Note_on_c, 14, 37, 0
24, 34560, Note_on_c, 14, 46, 48
24, 34590, Note_on_c, 14, 46, 0
24, 34592, Note_on_c, 14, 44, 45
24, 34622, Note_on_c, 14, 44, 0
24, 34624, Note_on_c, 14, 46, 45
24, 34654, Note_on_c, 14, 46, 0
24, 34656, Note_on_c, 14, 44, 41
24, 34702, Note_on_c, 14, 44, 0
24, 34704, Note_on_c, 14, 37, 46
24, 34736, Note_on_c, 14, 37, 0
24, 34848, Note_on_c, 14, 46, 47
24, 34878, Note_on_c, 14, 46, 0
24, 34880, Note_on_c, 14, 44, 42
24, 34910, Note_on_c, 14, 44, 0
24, 34912, Note_on_c, 14, 46, 49
24, 34942, Note_on_c, 14, 46, 0
24, 34944, Note_on_c, 14, 44, 50
24, 34990, Note_on_c, 14, 44, 0
24, 34992, Note_on_c, 14, 37, 49
24, 35024, Note_on_c, 14, 37, 0
24, 35136, Note_on_c, 14, 46, 50
24, 35166, Note_on_c, 14, 46, 0
24, 35168, Note_on_c, 14, 44, 43
24, 35198, Note_on_c, 14, 44, 0
24, 35200, Note_on_c, 14, 46, 44
24, 35230, Note_on_c, 14, 46, 0
24, 35232, Note_on_c, 14, 44, 46
24, 35278, Note_on_c, 14, 44, 0
24, 35280, Note_on_c, 14, 37, 43
24, 35312, Note_on_c, 14, 37, 0
24, 35424, Note_on_c, 14, 46, 45
24, 35454, Note_on_c, 14, 46, 0
24, 35456, Note_on_c, 14, 44, 40
24, 35486, Note_on_c, 14, 44, 0
24, 35488, Note_on_c, 14, 46, 41
24, 35518, Note_on_c, 14, 46, 0
24, 35520, Note_on_c, 14, 44, 46
24, 35566, Note_on_c, 14, 44, 0
24, 35568, Note_on_c, 14, 37, 48
24, 35600, Note_on_c, 14, 37, 0
24, 35712, Note_on_c, 14, 46, 42
24, 35742, Note_on_c, 14, 46, 0
24, 35744, Note_on_c, 14, 44, 50
24, 35774, Note_on_c, 14, 44, 0
24, 35776, Note_on_c, 14, 46, 44
24, 35806, Note_on_c, 14, 46, 0
24, 35808, Note_on_c, 14, 44, 47
24, 35854, Note_on_c, 14, 44, 0
24, 35856, Note_on_c, 14, 37, 40
24, 35888, Note_on_c, 14, 37, 0
24, 36000, Note_on_c, 14, 46, 47
24, 36030, Note_on_c, 14, 46, 0
24, 36032, Note_on_c, 14, 44, 48
24, 36062, Note_on_c, 14, 44, 0
24, 36064, Note_on_c, 14, 46, 45
24, 36094, Note_on_c, 14, 46, 0
24, 36096, Note_on_c, 14, 44, 27
24, 36142, Note_on_c, 14, 44, 0
24, 36144, Note_on_c, 14, 37, 30
24, 36176, Note_on_c, 14, 37, 0
24, 36288, Note_on_c, 14, 46, 39
24, 36318, Note_on_c, 14, 46, 0
24, 36320, Note_on_c, 14, 44, 44
24, 36350, Note_on_c, 14, 44, 0
24, 36352, Note_on_c, 14, 46, 45
24, 36382, Note_on_c, 14, 46, 0
24, 36384, Note_on_c, 14, 44, 44
24, 36430, Note_on_c, 14, 44, 0
24, 36432, Note_on_c, 14, 37, 56
24, 36464, Note_on_c, 14, 37, 0
24, 36576, Note_on_c, 14, 46, 67
24, 36606, Note_on_c, 14, 46, 0
24, 36608, Note_on_c, 14, 44, 67
24, 36638, Note_on_c, 14, 44, 0
24, 36640, Note_on_c, 14, 46, 73
24, 36670, Note_on_c, 14, 46, 0
24, 36672, Note_on_c, 14, 44, 76
24, 36718, Note_on_c, 14, 44, 0
24, 36720, Note_on_c, 14, 37, 70
24, 36752, Note_on_c, 14, 37, 0
24, 36864, Note_on_c, 14, 46, 71
24, 36894, Note_on_c, 14, 46, 0
24, 36896, Note_on_c, 14, 44, 61
24, 36926, Note_on_c, 14, 44, 0
24, 36928, Note_on_c, 14, 46, 56
24, 36958, Note_on_c, 14, 46, 0
24, 36960, Note_on_c, 14, 44, 57
24, 37006, Note_on_c, 14, 44, 0
24, 37008, Note_on_c, 14, 37, 51
24, 37040, Note_on_c, 14, 37, 0
24, 37152, Note_on_c, 14, 46, 40
24, 37182, Note_on_c, 14, 46, 0
24, 37184, Note_on_c, 14, 44, 32
24, 37214, Note_on_c, 14, 44, 0
24, 37216, Note_on_c, 14, 46, 29
24, 37246, Note_on_c, 14, 46, 0
24, 37248, Note_on_c, 14, 53, 25
24, 37294, Note_on_c, 14, 53, 0
24, 37296, Note_on_c, 14, 46, 30
24, 37342, Note_on_c, 14, 46, 0
24, 37344, Note_on_c, 14, 53, 34
24, 37390, Note_on_c, 14, 53, 0
24, 37392, Note_on_c, 14, 46, 29
24, 37438, Note_on_c, 14, 46, 0
24, 37440, Note_on_c, 14, 51, 31
24, 37486, Note_on_c, 14, 51, 0
24, 37488, Note_on_c, 14, 44, 33
24, 37534, Note_on_c, 14, 44, 0
24, 37536, Note_on_c, 14, 51, 31
24, 37582, Note_on_c, 14, 51, 0
24, 37584, Note_on_c, 14, 44, 33
24, 37630, Note_on_c, 14, 44, 0
24, 37632, Note_on_c, 14, 54, 35
24, 37678, Note_on_c, 14, 54, 0
24, 37680, Note_on_c, 14, 47, 30
24, 37726, Note_on_c, 14, 47, 0
24, 37728, Note_on_c, 14, 56, 36
24, 37774, Note_on_c, 14, 56, 0
24, 37776, Note_on_c, 14, 49, 47
24, 37822, Note_on_c, 14, 49, 0
24, 37824, Note_on_c, 14, 53, 35
24, 37870, Note_on_c, 14, 53, 0
24, 37872, Note_on_c, 14, 46, 32
24, 37918, Note_on_c, 14, 46, 0
24, 37920, Note_on_c, 14, 53, 25
24, 37966, Note_on_c, 14, 53, 0
24, 37968, Note_on_c, 14, 46, 26
24, 38014, Note_on_c, 14, 46, 0
24, 38016, Note_on_c, 14, 50, 31
24, 38062, Note_on_c, 14, 50, 0
24, 38064, Note_on_c, 14, 46, 48
24, 38110, Note_on_c, 14, 46, 0
24, 38112, Note_on_c, 14, 53, 33
24, 38158, Note_on_c, 14, 53, 0
24, 38160, Note_on_c, 14, 46, 35
24, 38206, Note_on_c, 14, 46, 0
24, 38208, Note_on_c, 14, 53, 30
24, 38254, Note_on_c, 14, 53, 0
24, 38256, Note_on_c, 14, 46, 32
24, 38302, Note_on_c, 14, 46, 0
24, 38304, Note_on_c, 14, 50, 28
24, 38350, Note_on_c, 14, 50, 0
24, 38352, Note_on_c, 14, 46, 33
24, 38398, Note_on_c, 14, 46, 0
24, 38400, Note_on_c, 14, 53, 40
24, 38446, Note_on_c, 14, 53, 0
24, 38448, Note_on_c, 14, 46, 48
24, 38494, Note_on_c, 14, 46, 0
24, 38496, Note_on_c, 14, 53, 45
24, 38542, Note_on_c, 14, 53, 0
24, 38544, Note_on_c, 14, 46, 50
24, 38590, Note_on_c, 14, 46, 0
24, 38592, Note_on_c, 14, 51, 42
24, 38638, Note_on_c, 14, 51, 0
24, 38640, Note_on_c, 14, 44, 46
24, 38686, Note_on_c, 14, 44, 0
24, 38688, Note_on_c, 14, 51, 43
24, 38734, Note_on_c, 14, 51, 0
24, 38736, Note_on_c, 14, 44, 46
24, 38782, Note_on_c, 14, 44, 0
24, 38784, Note_on_c, 14, 50, 49
24, 38830, Note_on_c, 14, 50, 0
24, 38832, Note_on_c, 14, 43, 43
24, 38878, Note_on_c, 14, 43, 0
24, 38880, Note_on_c, 14, 49, 44
24, 38926, Note_on_c, 14, 49, 0
24, 38928, Note_on_c, 14, 42, 50
24, 38974, Note_on_c, 14, 42, 0
24, 38976, Note_on_c, 14, 47, 40
24, 39070, Note_on_c, 14, 47, 0
24, 39552, Note_on_c, 14, 56, 33
24, 39552, Note_on_c, 14, 63, 34
24, 39646, Note_on_c, 14, 56, 0
24, 39646, Note_on_c, 14, 63, 0
24, 39648, Note_on_c, 14, 56, 32
24, 39648, Note_on_c, 14, 63, 32
24, 39742, Note_on_c, 14, 56, 0
24, 39742, Note_on_c, 14, 63, 0
24, 39744, Note_on_c, 14, 56, 35
24, 39744, Note_on_c, 14, 63, 25
24, 39838, Note_on_c, 14, 56, 0
24, 39838, Note_on_c, 14, 63, 0
24, 39840, Note_on_c, 14, 56, 32
24, 39840, Note_on_c, 14, 61, 32
24, 39934, Note_on_c, 14, 56, 0
24, 39934, Note_on_c, 14, 61, 0
24, 39936, Note_on_c, 14, 56, 32
24, 39936, Note_on_c, 14, 61, 28
24, 40030, Note_on_c, 14, 56, 0
24, 40030, Note_on_c, 14, 61, 0
24, 40032, Note_on_c, 14, 56, 34
24, 40032, Note_on_c, 14, 61, 33
24, 40126, Note_on_c, 14, 56, 0
24, 40126, Note_on_c, 14, 61, 0
24, 40128, Note_on_c, 14, 56, 29
24, 40128, Note_on_c, 14, 63, 35
24, 40222, Note_on_c, 14, 56, 0
24, 40222, Note_on_c, 14, 63, 0
24, 40224, Note_on_c, 14, 56, 30
24, 40224, Note_on_c, 14, 63, 31
24, 40318, Note_on_c, 14, 56, 0
24, 40318, Note_on_c, 14, 63, 0
24, 40320, Note_on_c, 14, 56, 32
24, 40320, Note_on_c, 14, 63, 35
24, 40414, Note_on_c, 14, 56, 0
24, 40414, Note_on_c, 14, 63, 0
24, 40416, Note_on_c, 14, 56, 29
24, 40416, Note_on_c, 14, 61, 28
24, 40510, Note_on_c, 14, 56, 0
24, 40510, Note_on_c, 14, 61, 0
24, 40512, Note_on_c, 14, 56, 27
24, 40512, Note_on_c, 14, 61, 32
24, 40606, Note_on_c, 14, 56, 0
24, 40606, Note_on_c, 14, 61, 0
24, 40608, Note_on_c, 14, 56, 34
24, 40608, Note_on_c, 14, 61, 31
24, 40702, Note_on_c, 14, 56, 0
24, 40702, Note_on_c, 14, 61, 0
24, 40704, Note_on_c, 14, 56, 33
24, 40704, Note_on_c, 14, 63, 33
24, 40798, Note_on_c, 14, 56, 0
24, 40798, Note_on_c, 14, 63, 0
24, 40800, Note_on_c, 14, 56, 27
24, 40800, Note_on_c, 14, 63, 29
24, 40894, Note_on_c, 14, 56, 0
24, 40894, Note_on_c, 14, 63, 0
24, 40896, Note_on_c, 14, 56, 29
24, 40896, Note_on_c, 14, 63, 35
24, 40990, Note_on_c, 14, 56, 0
24, 40990, Note_on_c, 14, 63, 0
24, 40992, Note_on_c, 14, 56, 32
24, 40992, Note_on_c, 14, 62, 30
24, 41086, Note_on_c, 14, 56, 0
24, 41086, Note_on_c, 14, 62, 0
24, 41088, Note_on_c, 14, 56, 29
24, 41088, Note_on_c, 14, 62, 25
24, 41182, Note_on_c, 14, 56, 0
24, 41182, Note_on_c, 14, 62, 0
24, 41184, Note_on_c, 14, 56, 30
24, 41184, Note_on_c, 14, 62, 35
24, 41278, Note_on_c, 14, 56, 0
24, 41278, Note_on_c, 14, 62, 0
24, 41280, Note_on_c, 14, 59, 33
24, 41280, Note_on_c, 14, 65, 30
24, 41374, Note_on_c, 14, 59, 0
24, 41374, Note_on_c, 14, 65, 0
24, 41376, Note_on_c, 14, 59, 37
24, 41376, Note_on_c, 14, 65, 37
24, 41470, Note_on_c, 14, 59, 0
24, 41470, Note_on_c, 14, 65, 0
24, 41472, Note_on_c, 14, 59, 35
24, 41472, Note_on_c, 14, 65, 33
24, 41566, Note_on_c, 14, 59, 0
24, 41566, Note_on_c, 14, 65, 0
24, 41568, Note_on_c, 14, 59, 35
24, 41568, Note_on_c, 14, 65, 35
24, 41662, Note_on_c, 14, 59, 0
24, 41662, Note_on_c, 14, 65, 0
24, 41664, Note_on_c, 14, 59, 35
24, 41664, Note_on_c, 14, 65, 38
24, 41758, Note_on_c, 14, 59, 0
24, 41758, Note_on_c, 14, 65, 0
24, 41760, Note_on_c, 14, 59, 43
24, 41760, Note_on_c, 14, 66, 37
24, 41854, Note_on_c, 14, 59, 0
24, 41854, Note_on_c, 14, 66, 0
24, 41856, Note_on_c, 14, 59, 44
24, 41856, Note_on_c, 14, 65, 40
24, 41950, Note_on_c, 14, 59, 0
24, 41950, Note_on_c, 14, 65, 0
24, 51072, Note_on_c, 14, 46, 74
24, 51360, Note_on_c, 14, 46, 0
24, 51360, Note_on_c, 14, 39, 74
24, 51648, Note_on_c, 14, 39, 0
24, 51648, Note_on_c, 14, 37, 77
24, 51904, Note_on_c, 14, 37, 0
24, 54816, Note_on_c, 14, 47, 44
24, 54886, Note_on_c, 14, 47, 0
24, 54888, Note_on_c, 14, 49, 42
24, 54958, Note_on_c, 14, 49, 0
24, 54960, Note_on_c, 14, 52, 53
24, 55030, Note_on_c, 14, 52, 0
24, 55032, Note_on_c, 14, 54, 66
24, 55102, Note_on_c, 14, 54, 0
24, 55104, Note_on_c, 14, 59, 71
24, 55174, Note_on_c, 14, 59, 0
24, 55176, Note_on_c, 14, 61, 78
24, 55246, Note_on_c, 14, 61, 0
24, 55248, Note_on_c, 14, 64, 81
24, 55318, Note_on_c, 14, 64, 0
24, 55320, Note_on_c, 14, 66, 95
24, 55390, Note_on_c, 14, 66, 0
24, 55392, Note_on_c, 14, 47, 40
24, 55462, Note_on_c, 14, 47, 0
24, 55464, Note_on_c, 14, 49, 48
24, 55534, Note_on_c, 14, 49, 0
24, 55536, Note_on_c, 14, 52, 53
24, 55606, Note_on_c, 14, 52, 0
24, 55608, Note_on_c, 14, 54, 60
24, 55678, Note_on_c, 14, 54, 0
24, 55680, Note_on_c, 14, 59, 75
24, 55750, Note_on_c, 14, 59, 0
24, 55752, Note_on_c, 14, 61, 80
24, 55822, Note_on_c, 14, 61, 0
24, 55824, Note_on_c, 14, 64, 82
24, 55894, Note_on_c, 14, 64, 0
24, 55896, Note_on_c, 14, 66, 87
24, 55966, Note_on_c, 14, 66, 0
24, 55968, Note_on_c, 14, 47, 42
24, 56038, Note_on_c, 14, 47, 0
24, 56040, Note_on_c, 14, 49, 42
24, 56110, Note_on_c, 14, 49, 0
24, 56112, Note_on_c, 14, 52, 60
24, 56182, Note_on_c, 14, 52, 0
24, 56184, Note_on_c, 14, 54, 70
24, 56254, Note_on_c, 14, 54, 0
24, 56256, Note_on_c, 14, 59, 72
24, 56326, Note_on_c, 14, 59, 0
24, 56328, Note_on_c, 14, 61, 72
24, 56398, Note_on_c, 14, 61, 0
24, 56400, Note_on_c, 14, 64, 81
24, 56470, Note_on_c, 14, 64, 0
24, 56472, Note_on_c, 14, 66, 89
24, 56542, Note_on_c, 14, 66, 0
24, 56544, Note_on_c, 14, 61, 96
24, 56704, Note_on_c, 14, 61, 0
24, 56736, Note_on_c, 14, 59, 88
24, 56896, Note_on_c, 14, 59, 0
24, 56928, Note_on_c, 14, 56, 88
24, 57088, Note_on_c, 14, 56, 0
24, 61152, Note_on_c, 14, 50, 90
24, 61152, Note_on_c, 14, 53, 97
24, 61174, Note_on_c, 14, 50, 0
24, 61174, Note_on_c, 14, 53, 0
24, 61176, Note_on_c, 14, 51, 91
24, 61176, Note_on_c, 14, 58, 91
24, 61342, Note_on_c, 14, 51, 0
24, 61342, Note_on_c, 14, 58, 0
24, 61344, Note_on_c, 14, 58, 97
24, 61344, Note_on_c, 14, 60, 89
24, 62448, Note_on_c, 14, 58, 0
24, 62448, Note_on_c, 14, 60, 0
24, 62688, Note_on_c, 14, 50, 95
24, 62688, Note_on_c, 14, 53, 90
24, 62710, Note_on_c, 14, 50, 0
24, 62710, Note_on_c, 14, 53, 0
24, 62712, Note_on_c, 14, 51, 93
24, 62712, Note_on_c, 14, 58, 96
24, 62878, Note_on_c, 14, 51, 0
24, 62878, Note_on_c, 14, 58, 0
24, 62880, Note_on_c, 14, 58, 93
24, 62880, Note_on_c, 14, 60, 87
24, 63216, Note_on_c, 14, 58, 0
24, 63216, Note_on_c, 14, 60, 0
24, 63264, Note_on_c, 14, 62, 95
24, 63264, Note_on_c, 14, 65, 93
24, 63326, Note_on_c, 14, 62, 0
24, 63326, Note_on_c, 14, 65, 0
24, 63328, Note_on_c, 14, 60, 92
24, 63328, Note_on_c, 14, 67, 95
24, 63422, Note_on_c, 14, 60, 0
24, 63422, Note_on_c, 14, 67, 0
24, 63424, Note_on_c, 14, 58, 87
24, 63424, Note_on_c, 14, 63, 92
24, 63454, Note_on_c, 14, 58, 0
24, 63454, Note_on_c, 14, 63, 0
24, 63456, Note_on_c, 14, 58, 91
24, 63456, Note_on_c, 14, 62, 87
24, 63518, Note_on_c, 14, 58, 0
24, 63518, Note_on_c, 14, 62, 0
24, 63520, Note_on_c, 14, 57, 96
24, 63520, Note_on_c, 14, 62, 89
24, 63582, Note_on_c, 14, 57, 0
24, 63582, Note_on_c, 14, 62, 0
24, 63584, Note_on_c, 14, 55, 97
24, 63584, Note_on_c, 14, 58, 91
24, 63646, Note_on_c, 14, 55, 0
24, 63646, Note_on_c, 14, 58, 0
24, 63648, Note_on_c, 14, 53, 96
24, 63648, Note_on_c, 14, 58, 97
24, 63710, Note_on_c, 14, 53, 0
24, 63710, Note_on_c, 14, 58, 0
24, 63712, Note_on_c, 14, 51, 88
24, 63712, Note_on_c, 14, 55, 90
24, 63806, Note_on_c, 14, 51, 0
24, 63806, Note_on_c, 14, 55, 0
24, 63808, Note_on_c, 14, 50, 94
24, 63808, Note_on_c, 14, 55, 93
24, 63838, Note_on_c, 14, 50, 0
24, 63838, Note_on_c, 14, 55, 0
24, 63840, Note_on_c, 14, 48, 90
24, 63840, Note_on_c, 14, 51, 89
24, 64094, Note_on_c, 14, 48, 0
24, 64094, Note_on_c, 14, 51, 0
24, 64096, Note_on_c, 14, 48, 96
24, 64190, Note_on_c, 14, 48, 0
24, 64192, Note_on_c, 14, 53, 87
24, 64222, Note_on_c, 14, 53, 0
24, 64224, Note_on_c, 14, 55, 88
24, 64286, Note_on_c, 14, 55, 0
24, 64288, Note_on_c, 14, 51, 93
24, 64350, Note_on_c, 14, 51, 0
24, 64352, Note_on_c, 14, 55, 92
24, 64414, Note_on_c, 14, 55, 0
24, 64416, Note_on_c, 14, 57, 96
24, 64478, Note_on_c, 14, 57, 0
24, 64480, Note_on_c, 14, 48, 93
24, 64480, Note_on_c, 14, 55, 97
24, 64542, Note_on_c, 14, 48, 0
24, 64542, Note_on_c, 14, 55, 0
24, 64544, Note_on_c, 14, 51, 88
24, 64544, Note_on_c, 14, 57, 91
24, 64606, Note_on_c, 14, 51, 0
24, 64606, Note_on_c, 14, 57, 0
24, 64608, Note_on_c, 14, 55, 96
24, 64608, Note_on_c, 14, 60, 93
24, 64670, Note_on_c, 14, 55, 0
24, 64670, Note_on_c, 14, 60, 0
24, 64672, Note_on_c, 14, 51, 88
24, 64672, Note_on_c, 14, 57, 96
24, 64766, Note_on_c, 14, 51, 0
24, 64766, Note_on_c, 14, 57, 0
24, 64768, Note_on_c, 14, 55, 92
24, 64768, Note_on_c, 14, 60, 93
24, 64798, Note_on_c, 14, 55, 0
24, 64798, Note_on_c, 14, 60, 0
24, 64800, Note_on_c, 14, 51, 88
24, 64800, Note_on_c, 14, 57, 92
24, 64862, Note_on_c, 14, 51, 0
24, 64862, Note_on_c, 14, 57, 0
24, 64864, Note_on_c, 14, 55, 91
24, 64864, Note_on_c, 14, 61, 94
24, 64926, Note_on_c, 14, 55, 0
24, 64926, Note_on_c, 14, 61, 0
24, 64928, Note_on_c, 14, 52, 91
24, 64928, Note_on_c, 14, 57, 91
24, 64990, Note_on_c, 14, 52, 0
24, 64990, Note_on_c, 14, 57, 0
24, 64992, Note_on_c, 14, 55, 111
24, 64992, Note_on_c, 14, 60, 113
24, 65054, Note_on_c, 14, 55, 0
24, 65054, Note_on_c, 14, 60, 0
24, 65056, Note_on_c, 14, 51, 106
24, 65056, Note_on_c, 14, 57, 108
24, 65150, Note_on_c, 14, 51, 0
24, 65150, Note_on_c, 14, 57, 0
24, 65152, Note_on_c, 14, 55, 111
24, 65152, Note_on_c, 14, 60, 113
24, 65182, Note_on_c, 14, 55, 0
24, 65182, Note_on_c, 14, 60, 0
24, 65184, Note_on_c, 14, 51, 108
24, 65184, Note_on_c, 14, 57, 113
24, 65226, Note_on_c, 14, 51, 0
24, 65226, Note_on_c, 14, 57, 0
24, 65248, Note_on_c, 14, 55, 107
24, 65248, Note_on_c, 14, 61, 105
24, 65310, Note_on_c, 14, 55, 0
24, 65310, Note_on_c, 14, 61, 0
24, 65312, Note_on_c, 14, 52, 105
24, 65312, Note_on_c, 14, 57, 110
24, 65374, Note_on_c, 14, 52, 0
24, 65374, Note_on_c, 14, 57, 0
24, 65376, Note_on_c, 14, 54, 105
24, 65376, Note_on_c, 14, 60, 109
24, 65438, Note_on_c, 14, 54, 0
24, 65438, Note_on_c, 14, 60, 0
24, 65440, Note_on_c, 14, 51, 113
24, 65440, Note_on_c, 14, 58, 110
24, 65534, Note_on_c, 14, 51, 0
24, 65534, Note_on_c, 14, 58, 0
24, 65536, Note_on_c, 14, 54, 107
24, 65536, Note_on_c, 14, 60, 108
24, 65557, Note_on_c, 14, 54, 0
24, 65557, Note_on_c, 14, 60, 0
24, 65568, Note_on_c, 14, 58, 107
24, 65568, Note_on_c, 14, 63, 105
24, 65822, Note_on_c, 14, 58, 0
24, 65822, Note_on_c, 14, 63, 0
24, 65824, Note_on_c, 14, 60, 111
24, 65824, Note_on_c, 14, 66, 111
24, 65918, Note_on_c, 14, 60, 0
24, 65918, Note_on_c, 14, 66, 0
24, 65920, Note_on_c, 14, 58, 113
24, 65920, Note_on_c, 14, 64, 111
24, 65941, Note_on_c, 14, 58, 0
24, 65941, Note_on_c, 14, 64, 0
24, 65952, Note_on_c, 14, 57, 105
24, 65952, Note_on_c, 14, 63, 110
24, 66014, Note_on_c, 14, 57, 0
24, 66014, Note_on_c, 14, 63, 0
24, 66016, Note_on_c, 14, 56, 108
24, 66016, Note_on_c, 14, 62, 113
24, 66078, Note_on_c, 14, 56, 0
24, 66078, Note_on_c, 14, 62, 0
24, 66080, Note_on_c, 14, 55, 111
24, 66080, Note_on_c, 14, 61, 104
24, 66142, Note_on_c, 14, 55, 0
24, 66142, Note_on_c, 14, 61, 0
24, 66144, Note_on_c, 14, 54, 108
24, 66144, Note_on_c, 14, 60, 108
24, 66206, Note_on_c, 14, 54, 0
24, 66206, Note_on_c, 14, 60, 0
24, 66208, Note_on_c, 14, 53, 110
24, 66208, Note_on_c, 14, 59, 113
24, 66302, Note_on_c, 14, 53, 0
24, 66302, Note_on_c, 14, 59, 0
24, 66304, Note_on_c, 14, 52, 103
24, 66304, Note_on_c, 14, 58, 113
24, 66325, Note_on_c, 14, 52, 0
24, 66325, Note_on_c, 14, 58, 0
24, 66336, Note_on_c, 14, 51, 104
24, 66336, Note_on_c, 14, 57, 106
24, 66398, Note_on_c, 14, 51, 0
24, 66398, Note_on_c, 14, 57, 0
24, 66400, Note_on_c, 14, 50, 105
24, 66400, Note_on_c, 14, 56, 104
24, 66462, Note_on_c, 14, 50, 0
24, 66462, Note_on_c, 14, 56, 0
24, 66464, Note_on_c, 14, 49, 110
24, 66464, Note_on_c, 14, 55, 104
24, 66526, Note_on_c, 14, 49, 0
24, 66526, Note_on_c, 14, 55, 0
24, 66528, Note_on_c, 14, 48, 105
24, 66528, Note_on_c, 14, 54, 105
24, 66590, Note_on_c, 14, 48, 0
24, 66590, Note_on_c, 14, 54, 0
24, 66592, Note_on_c, 14, 51, 106
24, 66592, Note_on_c, 14, 55, 113
24, 66686, Note_on_c, 14, 51, 0
24, 66686, Note_on_c, 14, 55, 0
24, 66688, Note_on_c, 14, 48, 110
24, 66688, Note_on_c, 14, 54, 108
24, 66709, Note_on_c, 14, 48, 0
24, 66709, Note_on_c, 14, 54, 0
24, 66720, Note_on_c, 14, 51, 109
24, 66720, Note_on_c, 14, 55, 109
24, 66782, Note_on_c, 14, 51, 0
24, 66782, Note_on_c, 14, 55, 0
24, 66784, Note_on_c, 14, 48, 105
24, 66784, Note_on_c, 14, 54, 113
24, 66846, Note_on_c, 14, 48, 0
24, 66846, Note_on_c, 14, 54, 0
24, 66848, Note_on_c, 14, 51, 111
24, 66848, Note_on_c, 14, 55, 104
24, 67072, Note_on_c, 14, 51, 0
24, 67072, Note_on_c, 14, 55, 0
24, 67296, Note_on_c, 14, 50, 31
24, 67296, Note_on_c, 14, 53, 29
24, 67390, Note_on_c, 14, 50, 0
24, 67390, Note_on_c, 14, 53, 0
24, 69600, Note_on_c, 14, 43, 43
24, 69760, Note_on_c, 14, 43, 0
24, 69792, Note_on_c, 14, 48, 50
24, 69952, Note_on_c, 14, 48, 0
24, 69984, Note_on_c, 14, 43, 50
24, 70144, Note_on_c, 14, 43, 0
24, 70176, Note_on_c, 14, 48, 48
24, 70336, Note_on_c, 14, 48, 0
24, 70464, Note_on_c, 14, 43, 56
24, 70558, Note_on_c, 14, 43, 0
24, 70560, Note_on_c, 14, 48, 64
24, 70654, Note_on_c, 14, 48, 0
24, 70656, Note_on_c, 14, 55, 66
24, 70750, Note_on_c, 14, 55, 0
24, 70752, Note_on_c, 14, 43, 61
24, 70846, Note_on_c, 14, 43, 0
24, 70848, Note_on_c, 14, 48, 68
24, 70942, Note_on_c, 14, 48, 0
24, 70944, Note_on_c, 14, 55, 68
24, 71038, Note_on_c, 14, 55, 0
24, 71040, Note_on_c, 14, 43, 67
24, 71134, Note_on_c, 14, 43, 0
24, 71136, Note_on_c, 14, 48, 68
24, 71230, Note_on_c, 14, 48, 0
24, 71232, Note_on_c, 14, 55, 70
24, 71326, Note_on_c, 14, 55, 0
24, 71328, Note_on_c, 14, 43, 74
24, 71422, Note_on_c, 14, 43, 0
24, 71424, Note_on_c, 14, 48, 82
24, 71518, Note_on_c, 14, 48, 0
24, 71520, Note_on_c, 14, 55, 83
24, 71614, Note_on_c, 14, 55, 0
24, 71616, Note_on_c, 14, 43, 84
24, 71710, Note_on_c, 14, 43, 0
24, 71712, Note_on_c, 14, 48, 81
24, 71806, Note_on_c, 14, 48, 0
24, 71808, Note_on_c, 14, 55, 86
24, 71902, Note_on_c, 14, 55, 0
24, 96480, Control_c, 14, 11, 127
24, 96480, Note_on_c, 14, 44, 25
24, 101088, Note_on_c, 14, 44, 0
24, 101088, Note_on_c, 14, 48, 29
24, 101088, Note_on_c, 14, 58, 34
24, 103392, Note_on_c, 14, 48, 0
24, 103392, Note_on_c, 14, 58, 0
24, 103392, Control_c, 14, 11, 127
24, 103392, Note_on_c, 14, 48, 31
24, 103392, Note_on_c, 14, 58, 32
24, 103424, Control_c, 14, 11, 126
24, 103457, Control_c, 14, 11, 125
24, 103490, Control_c, 14, 11, 124
24, 103523, Control_c, 14, 11, 123
24, 103556, Control_c, 14, 11, 122
24, 103589, Control_c, 14, 11, 121
24, 103622, Control_c, 14, 11, 120
24, 103655, Control_c, 14, 11, 119
24, 103688, Control_c, 14, 11, 118
24, 103721, Control_c, 14, 11, 117
24, 103754, Control_c, 14, 11, 116
24, 103786, Control_c, 14, 11, 115
24, 103819, Control_c, 14, 11, 114
24, 103852, Control_c, 14, 11, 113
24, 103885, Control_c, 14, 11, 112
24, 103918, Control_c, 14, 11, 111
24, 103951, Control_c, 14, 11, 110
24, 103984, Control_c, 14, 11, 109
24, 104017, Control_c, 14, 11, 108
24, 104050, Control_c, 14, 11, 107
24, 104083, Control_c, 14, 11, 106
24, 104116, Control_c, 14, 11, 105
24, 104149, Control_c, 14, 11, 104
24, 104181, Control_c, 14, 11, 103
24, 104214, Control_c, 14, 11, 102
24, 104247, Control_c, 14, 11, 101
24, 104280, Control_c, 14, 11, 100
24, 104313, Control_c, 14, 11, 99
24, 104346, Control_c, 14, 11, 98
24, 104379, Control_c, 14, 11, 97
24, 104412, Control_c, 14, 11, 96
24, 104445, Control_c, 14, 11, 95
24, 104478, Control_c, 14, 11, 94
24, 104511, Control_c, 14, 11, 93
24, 104544, Control_c, 14, 11, 92
24, 105696, Note_on_c, 14, 48, 0
24, 105696, Note_on_c, 14, 58, 0
24, 105696, Control_c, 14, 11, 127
24, 105696, Note_on_c, 14, 48, 16
24, 105696, Note_on_c, 14, 58, 19
24, 105728, Control_c, 14, 11, 126
24, 105761, Control_c, 14, 11, 125
24, 105794, Control_c, 14, 11, 124
24, 105827, Control_c, 14, 11, 123
24, 105860, Control_c, 14, 11, 122
24, 105893, Control_c, 14, 11, 121
24, 105926, Control_c, 14, 11, 120
24, 105959, Control_c, 14, 11, 119
24, 105992, Control_c, 14, 11, 118
24, 106025, Control_c, 14, 11, 117
24, 106058, Control_c, 14, 11, 116
24, 106090, Control_c, 14, 11, 115
24, 106123, Control_c, 14, 11, 114
24, 106156, Control_c, 14, 11, 113
24, 106189, Control_c, 14, 11, 112
24, 106222, Control_c, 14, 11, 111
24, 106255, Control_c, 14, 11, 110
24, 106288, Control_c, 14, 11, 109
24, 106321, Control_c, 14, 11, 108
24, 106354, Control_c, 14, 11, 107
24, 106387, Control_c, 14, 11, 106
24, 106420, Control_c, 14, 11, 105
24, 106453, Control_c, 14, 11, 104
24, 106485, Control_c, 14, 11, 103
24, 106518, Control_c, 14, 11, 102
24, 106551, Control_c, 14, 11, 101
24, 106584, Control_c, 14, 11, 100
24, 106617, Control_c, 14, 11, 99
24, 106650, Control_c, 14, 11, 98
24, 106683, Control_c, 14, 11, 97
24, 106716, Control_c, 14, 11, 96
24, 106749, Control_c, 14, 11, 95
24, 106782, Control_c, 14, 11, 94
24, 106815, Control_c, 14, 11, 93
24, 106848, Control_c, 14, 11, 92
24, 108160, Note_on_c, 14, 48, 0
24, 108160, Note_on_c, 14, 58, 0
24, 108160, End_track
25, 0, Start_track
25, 0, Title_t, "Violoncello solo"
25, 0, MIDI_port, 0
25, 112, Control_c, 6, 0, 0
25, 113, Control_c, 6, 32, 0
25, 114, Program_c, 6, 42
25, 115, Control_c, 6, 7, 127
25, 116, Control_c, 6, 91, 127
25, 37248, Program_c, 6, 42
25, 37248, Control_c, 6, 11, 92
25, 37248, Note_on_c, 6, 58, 63
25, 37440, Note_on_c, 6, 58, 0
25, 37440, Note_on_c, 6, 56, 65
25, 37632, Note_on_c, 6, 56, 0
25, 37632, Control_c, 6, 11, 92
25, 37632, Note_on_c, 6, 59, 56
25, 37637, Control_c, 6, 11, 93
25, 37642, Control_c, 6, 11, 94
25, 37648, Control_c, 6, 11, 95
25, 37653, Control_c, 6, 11, 96
25, 37659, Control_c, 6, 11, 97
25, 37664, Control_c, 6, 11, 98
25, 37670, Control_c, 6, 11, 99
25, 37675, Control_c, 6, 11, 100
25, 37681, Control_c, 6, 11, 101
25, 37686, Control_c, 6, 11, 102
25, 37692, Control_c, 6, 11, 103
25, 37697, Control_c, 6, 11, 104
25, 37703, Control_c, 6, 11, 105
25, 37708, Control_c, 6, 11, 106
25, 37714, Control_c, 6, 11, 107
25, 37719, Control_c, 6, 11, 108
25, 37725, Control_c, 6, 11, 109
25, 37728, Note_on_c, 6, 59, 0
25, 37728, Note_on_c, 6, 61, 57
25, 37730, Control_c, 6, 11, 110
25, 37736, Control_c, 6, 11, 111
25, 37741, Control_c, 6, 11, 112
25, 37747, Control_c, 6, 11, 113
25, 37752, Control_c, 6, 11, 114
25, 37758, Control_c, 6, 11, 115
25, 37763, Control_c, 6, 11, 116
25, 37769, Control_c, 6, 11, 117
25, 37774, Control_c, 6, 11, 118
25, 37780, Control_c, 6, 11, 119
25, 37785, Control_c, 6, 11, 120
25, 37791, Control_c, 6, 11, 121
25, 37796, Control_c, 6, 11, 122
25, 37802, Control_c, 6, 11, 123
25, 37807, Control_c, 6, 11, 124
25, 37813, Control_c, 6, 11, 125
25, 37818, Control_c, 6, 11, 126
25, 37822, Note_on_c, 6, 61, 0
25, 37824, Control_c, 6, 11, 127
25, 37824, Control_c, 6, 11, 92
25, 37824, Note_on_c, 6, 58, 57
25, 38352, Note_on_c, 6, 58, 0
25, 38400, Control_c, 6, 11, 92
25, 38400, Note_on_c, 6, 58, 56
25, 38592, Note_on_c, 6, 58, 0
25, 38592, Note_on_c, 6, 56, 62
25, 38784, Note_on_c, 6, 56, 0
25, 38784, Control_c, 6, 11, 92
25, 38784, Note_on_c, 6, 59, 62
25, 38789, Control_c, 6, 11, 93
25, 38794, Control_c, 6, 11, 94
25, 38800, Control_c, 6, 11, 95
25, 38805, Control_c, 6, 11, 96
25, 38811, Control_c, 6, 11, 97
25, 38816, Control_c, 6, 11, 98
25, 38822, Control_c, 6, 11, 99
25, 38827, Control_c, 6, 11, 100
25, 38833, Control_c, 6, 11, 101
25, 38838, Control_c, 6, 11, 102
25, 38844, Control_c, 6, 11, 103
25, 38849, Control_c, 6, 11, 104
25, 38855, Control_c, 6, 11, 105
25, 38860, Control_c, 6, 11, 106
25, 38866, Control_c, 6, 11, 107
25, 38871, Control_c, 6, 11, 108
25, 38877, Control_c, 6, 11, 109
25, 38880, Note_on_c, 6, 59, 0
25, 38880, Note_on_c, 6, 61, 56
25, 38882, Control_c, 6, 11, 110
25, 38888, Control_c, 6, 11, 111
25, 38893, Control_c, 6, 11, 112
25, 38899, Control_c, 6, 11, 113
25, 38904, Control_c, 6, 11, 114
25, 38910, Control_c, 6, 11, 115
25, 38915, Control_c, 6, 11, 116
25, 38921, Control_c, 6, 11, 117
25, 38926, Control_c, 6, 11, 118
25, 38932, Control_c, 6, 11, 119
25, 38937, Control_c, 6, 11, 120
25, 38943, Control_c, 6, 11, 121
25, 38948, Control_c, 6, 11, 122
25, 38954, Control_c, 6, 11, 123
25, 38959, Control_c, 6, 11, 124
25, 38965, Control_c, 6, 11, 125
25, 38970, Control_c, 6, 11, 126
25, 38974, Note_on_c, 6, 61, 0
25, 38976, Control_c, 6, 11, 127
25, 38976, Control_c, 6, 11, 92
25, 38976, Note_on_c, 6, 63, 60
25, 38984, Control_c, 6, 11, 93
25, 38992, Control_c, 6, 11, 94
25, 39000, Control_c, 6, 11, 95
25, 39008, Control_c, 6, 11, 96
25, 39017, Control_c, 6, 11, 97
25, 39025, Control_c, 6, 11, 98
25, 39033, Control_c, 6, 11, 99
25, 39041, Control_c, 6, 11, 100
25, 39050, Control_c, 6, 11, 101
25, 39058, Control_c, 6, 11, 102
25, 39066, Control_c, 6, 11, 103
25, 39074, Control_c, 6, 11, 104
25, 39082, Control_c, 6, 11, 105
25, 39091, Control_c, 6, 11, 106
25, 39099, Control_c, 6, 11, 107
25, 39107, Control_c, 6, 11, 108
25, 39115, Control_c, 6, 11, 109
25, 39124, Control_c, 6, 11, 110
25, 39132, Control_c, 6, 11, 111
25, 39140, Control_c, 6, 11, 112
25, 39148, Control_c, 6, 11, 113
25, 39157, Control_c, 6, 11, 114
25, 39165, Control_c, 6, 11, 115
25, 39168, Note_on_c, 6, 63, 0
25, 39168, Note_on_c, 6, 66, 61
25, 39173, Control_c, 6, 11, 116
25, 39181, Control_c, 6, 11, 117
25, 39189, Control_c, 6, 11, 118
25, 39198, Control_c, 6, 11, 119
25, 39206, Control_c, 6, 11, 120
25, 39214, Control_c, 6, 11, 121
25, 39222, Control_c, 6, 11, 122
25, 39231, Control_c, 6, 11, 123
25, 39239, Control_c, 6, 11, 124
25, 39247, Control_c, 6, 11, 125
25, 39255, Control_c, 6, 11, 126
25, 39262, Note_on_c, 6, 66, 0
25, 39264, Control_c, 6, 11, 127
25, 39264, Control_c, 6, 11, 92
25, 39264, Note_on_c, 6, 63, 63
25, 39272, Control_c, 6, 11, 93
25, 39280, Control_c, 6, 11, 94
25, 39288, Control_c, 6, 11, 95
25, 39296, Control_c, 6, 11, 96
25, 39305, Control_c, 6, 11, 97
25, 39313, Control_c, 6, 11, 98
25, 39321, Control_c, 6, 11, 99
25, 39329, Control_c, 6, 11, 100
25, 39338, Control_c, 6, 11, 101
25, 39346, Control_c, 6, 11, 102
25, 39354, Control_c, 6, 11, 103
25, 39362, Control_c, 6, 11, 104
25, 39370, Control_c, 6, 11, 105
25, 39379, Control_c, 6, 11, 106
25, 39387, Control_c, 6, 11, 107
25, 39395, Control_c, 6, 11, 108
25, 39403, Control_c, 6, 11, 109
25, 39412, Control_c, 6, 11, 110
25, 39420, Control_c, 6, 11, 111
25, 39428, Control_c, 6, 11, 112
25, 39436, Control_c, 6, 11, 113
25, 39445, Control_c, 6, 11, 114
25, 39453, Control_c, 6, 11, 115
25, 39456, Note_on_c, 6, 63, 0
25, 39456, Note_on_c, 6, 66, 58
25, 39461, Control_c, 6, 11, 116
25, 39469, Control_c, 6, 11, 117
25, 39477, Control_c, 6, 11, 118
25, 39486, Control_c, 6, 11, 119
25, 39494, Control_c, 6, 11, 120
25, 39502, Control_c, 6, 11, 121
25, 39510, Control_c, 6, 11, 122
25, 39519, Control_c, 6, 11, 123
25, 39527, Control_c, 6, 11, 124
25, 39535, Control_c, 6, 11, 125
25, 39543, Control_c, 6, 11, 126
25, 39550, Note_on_c, 6, 66, 0
25, 39552, Control_c, 6, 11, 127
25, 40128, Program_c, 6, 56
25, 51936, Program_c, 6, 45
25, 51936, Note_on_c, 6, 56, 44
25, 51982, Note_on_c, 6, 56, 0
25, 51984, Note_on_c, 6, 58, 50
25, 52030, Note_on_c, 6, 58, 0
25, 52032, Note_on_c, 6, 56, 52
25, 52078, Note_on_c, 6, 56, 0
25, 52080, Note_on_c, 6, 58, 55
25, 52126, Note_on_c, 6, 58, 0
25, 52128, Note_on_c, 6, 56, 52
25, 52174, Note_on_c, 6, 56, 0
25, 52176, Note_on_c, 6, 58, 61
25, 52222, Note_on_c, 6, 58, 0
25, 52224, Note_on_c, 6, 56, 60
25, 52270, Note_on_c, 6, 56, 0
25, 52272, Note_on_c, 6, 58, 60
25, 52318, Note_on_c, 6, 58, 0
25, 52320, Note_on_c, 6, 56, 68
25, 52366, Note_on_c, 6, 56, 0
25, 52368, Note_on_c, 6, 58, 67
25, 52414, Note_on_c, 6, 58, 0
25, 52416, Note_on_c, 6, 56, 72
25, 52462, Note_on_c, 6, 56, 0
25, 52464, Note_on_c, 6, 58, 74
25, 52510, Note_on_c, 6, 58, 0
25, 96480, Control_c, 6, 11, 75
25, 96480, Control_c, 6, 1, 64
25, 96480, Program_c, 6, 42
25, 96480, Note_on_c, 6, 72, 58
25, 96483, Control_c, 6, 11, 76
25, 96487, Control_c, 6, 11, 77
25, 96491, Control_c, 6, 11, 78
25, 96494, Control_c, 6, 11, 79
25, 96498, Control_c, 6, 11, 80
25, 96502, Control_c, 6, 11, 81
25, 96505, Control_c, 6, 11, 82
25, 96509, Control_c, 6, 11, 83
25, 96513, Control_c, 6, 11, 84
25, 96516, Control_c, 6, 11, 85
25, 96520, Control_c, 6, 11, 86
25, 96524, Control_c, 6, 11, 87
25, 96528, Control_c, 6, 11, 88
25, 96531, Control_c, 6, 11, 89
25, 96535, Control_c, 6, 11, 90
25, 96539, Control_c, 6, 11, 91
25, 96542, Control_c, 6, 11, 92
25, 96546, Control_c, 6, 11, 93
25, 96550, Control_c, 6, 11, 94
25, 96553, Control_c, 6, 11, 95
25, 96557, Control_c, 6, 11, 96
25, 96561, Control_c, 6, 11, 97
25, 96564, Control_c, 6, 11, 98
25, 96568, Control_c, 6, 11, 99
25, 96572, Control_c, 6, 11, 100
25, 96576, Control_c, 6, 11, 101
25, 96579, Control_c, 6, 11, 102
25, 96583, Control_c, 6, 11, 103
25, 96587, Control_c, 6, 11, 104
25, 96590, Control_c, 6, 11, 105
25, 96594, Control_c, 6, 11, 106
25, 96598, Control_c, 6, 11, 107
25, 96601, Control_c, 6, 11, 108
25, 96605, Control_c, 6, 11, 109
25, 96609, Control_c, 6, 11, 110
25, 96612, Control_c, 6, 11, 111
25, 96616, Control_c, 6, 11, 112
25, 96620, Control_c, 6, 11, 113
25, 96624, Control_c, 6, 11, 114
25, 96627, Control_c, 6, 11, 115
25, 96631, Control_c, 6, 11, 116
25, 96635, Control_c, 6, 11, 117
25, 96638, Control_c, 6, 11, 118
25, 96642, Control_c, 6, 11, 119
25, 96646, Control_c, 6, 11, 120
25, 96649, Control_c, 6, 11, 121
25, 96653, Control_c, 6, 11, 122
25, 96657, Control_c, 6, 11, 123
25, 96660, Control_c, 6, 11, 124
25, 96664, Control_c, 6, 11, 125
25, 96668, Control_c, 6, 11, 126
25, 96672, Control_c, 6, 11, 127
25, 97056, Note_on_c, 6, 72, 0
25, 97056, Note_on_c, 6, 70, 55
25, 97440, Note_on_c, 6, 70, 0
25, 97440, Note_on_c, 6, 68, 57
25, 97632, Note_on_c, 6, 68, 0
25, 97632, Note_on_c, 6, 66, 61
25, 98208, Note_on_c, 6, 66, 0
25, 98208, Control_c, 6, 11, 127
25, 98208, Note_on_c, 6, 65, 55
25, 98224, Control_c, 6, 11, 126
25, 98240, Control_c, 6, 11, 125
25, 98257, Control_c, 6, 11, 124
25, 98273, Control_c, 6, 11, 123
25, 98290, Control_c, 6, 11, 122
25, 98306, Control_c, 6, 11, 121
25, 98323, Control_c, 6, 11, 120
25, 98339, Control_c, 6, 11, 119
25, 98356, Control_c, 6, 11, 118
25, 98372, Control_c, 6, 11, 117
25, 98389, Control_c, 6, 11, 116
25, 98405, Control_c, 6, 11, 115
25, 98421, Control_c, 6, 11, 114
25, 98438, Control_c, 6, 11, 113
25, 98454, Control_c, 6, 11, 112
25, 98471, Control_c, 6, 11, 111
25, 98487, Control_c, 6, 11, 110
25, 98504, Control_c, 6, 11, 109
25, 98520, Control_c, 6, 11, 108
25, 98537, Control_c, 6, 11, 107
25, 98553, Control_c, 6, 11, 106
25, 98570, Control_c, 6, 11, 105
25, 98586, Control_c, 6, 11, 104
25, 98592, Note_on_c, 6, 65, 0
25, 98592, Note_on_c, 6, 63, 58
25, 98602, Control_c, 6, 11, 103
25, 98619, Control_c, 6, 11, 102
25, 98635, Control_c, 6, 11, 101
25, 98652, Control_c, 6, 11, 100
25, 98668, Control_c, 6, 11, 99
25, 98685, Control_c, 6, 11, 98
25, 98701, Control_c, 6, 11, 97
25, 98718, Control_c, 6, 11, 96
25, 98734, Control_c, 6, 11, 95
25, 98751, Control_c, 6, 11, 94
25, 98767, Control_c, 6, 11, 93
25, 98784, Note_on_c, 6, 63, 0
25, 98784, Control_c, 6, 11, 92
25, 98784, Note_on_c, 6, 60, 61
25, 98849, Control_c, 6, 11, 93
25, 98915, Control_c, 6, 11, 94
25, 98981, Control_c, 6, 11, 95
25, 99047, Control_c, 6, 11, 96
25, 99113, Control_c, 6, 11, 97
25, 99178, Control_c, 6, 11, 98
25, 99244, Control_c, 6, 11, 99
25, 99310, Control_c, 6, 11, 100
25, 99360, Note_on_c, 6, 60, 0
25, 99360, Note_on_c, 6, 62, 59
25, 99376, Control_c, 6, 11, 101
25, 99442, Control_c, 6, 11, 102
25, 99508, Control_c, 6, 11, 103
25, 99552, Note_on_c, 6, 62, 0
25, 99552, Note_on_c, 6, 64, 61
25, 99573, Control_c, 6, 11, 104
25, 99639, Control_c, 6, 11, 105
25, 99705, Control_c, 6, 11, 106
25, 99744, Note_on_c, 6, 64, 0
25, 99744, Note_on_c, 6, 66, 62
25, 99771, Control_c, 6, 11, 107
25, 99837, Control_c, 6, 11, 108
25, 99903, Control_c, 6, 11, 109
25, 99936, Note_on_c, 6, 66, 0
25, 99936, Note_on_c, 6, 68, 60
25, 99968, Control_c, 6, 11, 110
25, 100034, Control_c, 6, 11, 111
25, 100100, Control_c, 6, 11, 112
25, 100166, Control_c, 6, 11, 113
25, 100232, Control_c, 6, 11, 114
25, 100298, Control_c, 6, 11, 115
25, 100363, Control_c, 6, 11, 116
25, 100429, Control_c, 6, 11, 117
25, 100495, Control_c, 6, 11, 118
25, 100512, Note_on_c, 6, 68, 0
25, 100512, Note_on_c, 6, 66, 55
25, 100561, Control_c, 6, 11, 119
25, 100627, Control_c, 6, 11, 120
25, 100693, Control_c, 6, 11, 121
25, 100758, Control_c, 6, 11, 122
25, 100824, Control_c, 6, 11, 123
25, 100890, Control_c, 6, 11, 124
25, 100896, Note_on_c, 6, 66, 0
25, 100896, Note_on_c, 6, 68, 56
25, 100956, Control_c, 6, 11, 125
25, 101022, Control_c, 6, 11, 126
25, 101088, Note_on_c, 6, 68, 0
25, 101088, Control_c, 6, 11, 127
25, 101088, Note_on_c, 6, 72, 55
25, 101664, Note_on_c, 6, 72, 0
25, 101664, Note_on_c, 6, 70, 57
25, 102048, Note_on_c, 6, 70, 0
25, 102048, Note_on_c, 6, 68, 62
25, 102240, Note_on_c, 6, 68, 0
25, 102240, Note_on_c, 6, 66, 62
25, 102816, Note_on_c, 6, 66, 0
25, 102816, Note_on_c, 6, 65, 59
25, 103200, Note_on_c, 6, 65, 0
25, 103200, Note_on_c, 6, 63, 58
25, 103392, Note_on_c, 6, 63, 0
25, 103392, Note_on_c, 6, 60, 59
25, 103968, Note_on_c, 6, 60, 0
25, 103968, Note_on_c, 6, 62, 46
25, 104160, Note_on_c, 6, 62, 0
25, 104160, Note_on_c, 6, 64, 52
25, 104352, Note_on_c, 6, 64, 0
25, 104352, Note_on_c, 6, 66, 44
25, 104544, Note_on_c, 6, 66, 0
25, 104544, Note_on_c, 6, 60, 36
25, 105120, Note_on_c, 6, 60, 0
25, 105120, Note_on_c, 6, 58, 36
25, 105504, Note_on_c, 6, 58, 0
25, 105504, Note_on_c, 6, 56, 19
25, 105696, Note_on_c, 6, 56, 0
25, 105696, Note_on_c, 6, 54, 18
25, 106272, Note_on_c, 6, 54, 0
25, 106272, Note_on_c, 6, 56, 16
25, 106464, Note_on_c, 6, 56, 0
25, 106464, Note_on_c, 6, 58, 15
25, 106656, Note_on_c, 6, 58, 0
25, 106656, Note_on_c, 6, 60, 22
25, 106848, Note_on_c, 6, 60, 0
25, 106848, Control_c, 6, 11, 127
25, 106848, Note_on_c, 6, 54, 28
25, 106869, Control_c, 6, 11, 126
25, 106891, Control_c, 6, 11, 125
25, 106913, Control_c, 6, 11, 124
25, 106935, Control_c, 6, 11, 123
25, 106957, Control_c, 6, 11, 122
25, 106979, Control_c, 6, 11, 121
25, 107001, Control_c, 6, 11, 120
25, 107023, Control_c, 6, 11, 119
25, 107045, Control_c, 6, 11, 118
25, 107067, Control_c, 6, 11, 117
25, 107089, Control_c, 6, 11, 116
25, 107111, Control_c, 6, 11, 115
25, 107133, Control_c, 6, 11, 114
25, 107155, Control_c, 6, 11, 113
25, 107177, Control_c, 6, 11, 112
25, 107199, Control_c, 6, 11, 111
25, 107221, Control_c, 6, 11, 110
25, 107242, Control_c, 6, 11, 109
25, 107264, Control_c, 6, 11, 108
25, 107286, Control_c, 6, 11, 107
25, 107308, Control_c, 6, 11, 106
25, 107330, Control_c, 6, 11, 105
25, 107352, Control_c, 6, 11, 104
25, 107374, Control_c, 6, 11, 103
25, 107396, Control_c, 6, 11, 102
25, 107418, Control_c, 6, 11, 101
25, 107424, Note_on_c, 6, 54, 0
25, 107424, Note_on_c, 6, 58, 32
25, 107440, Control_c, 6, 11, 100
25, 107462, Control_c, 6, 11, 99
25, 107484, Control_c, 6, 11, 98
25, 107506, Control_c, 6, 11, 97
25, 107528, Control_c, 6, 11, 96
25, 107550, Control_c, 6, 11, 95
25, 107572, Control_c, 6, 11, 94
25, 107594, Control_c, 6, 11, 93
25, 107616, Control_c, 6, 11, 92
25, 108000, Note_on_c, 6, 58, 0
25, 108000, Control_c, 6, 1, 0
25, 108000, End_track
26, 0, Start_track
26, 0, Title_t, "Contrabbassi I"
26, 0, MIDI_port, 0
26, 190, Control_c, 15, 0, 0
26, 191, Control_c, 15, 32, 0
26, 192, Program_c, 15, 48
26, 193, Control_c, 15, 7, 127
26, 194, Control_c, 15, 10, 84
26, 195, Control_c, 15, 91, 127
26, 2304, Note_on_c, 15, 35, 33
26, 8016, Note_on_c, 15, 35, 0
26, 8064, Note_on_c, 15, 35, 35
26, 9552, Note_on_c, 15, 35, 0
26, 9600, Note_on_c, 15, 35, 26
26, 11088, Note_on_c, 15, 35, 0
26, 11136, Control_c, 15, 11, 64
26, 11904, Program_c, 15, 44
26, 12672, Note_on_c, 15, 35, 57
26, 12864, Note_on_c, 15, 35, 0
26, 12864, Note_on_c, 15, 33, 57
26, 13056, Note_on_c, 15, 33, 0
26, 13056, Note_on_c, 15, 35, 56
26, 13248, Note_on_c, 15, 35, 0
26, 13248, Note_on_c, 15, 33, 62
26, 13440, Note_on_c, 15, 33, 0
26, 13440, Control_c, 15, 11, 64
26, 13440, Note_on_c, 15, 35, 62
26, 13452, Control_c, 15, 11, 65
26, 13464, Control_c, 15, 11, 66
26, 13476, Control_c, 15, 11, 67
26, 13488, Control_c, 15, 11, 68
26, 13500, Control_c, 15, 11, 69
26, 13513, Control_c, 15, 11, 70
26, 13525, Control_c, 15, 11, 71
26, 13537, Control_c, 15, 11, 72
26, 13549, Control_c, 15, 11, 73
26, 13561, Control_c, 15, 11, 74
26, 13574, Control_c, 15, 11, 75
26, 13586, Control_c, 15, 11, 76
26, 13598, Control_c, 15, 11, 77
26, 13610, Control_c, 15, 11, 78
26, 13622, Control_c, 15, 11, 79
26, 13632, Note_on_c, 15, 35, 0
26, 13632, Note_on_c, 15, 33, 56
26, 13635, Control_c, 15, 11, 80
26, 13647, Control_c, 15, 11, 81
26, 13659, Control_c, 15, 11, 82
26, 13671, Control_c, 15, 11, 83
26, 13683, Control_c, 15, 11, 84
26, 13696, Control_c, 15, 11, 85
26, 13708, Control_c, 15, 11, 86
26, 13720, Control_c, 15, 11, 87
26, 13732, Control_c, 15, 11, 88
26, 13744, Control_c, 15, 11, 89
26, 13756, Control_c, 15, 11, 90
26, 13769, Control_c, 15, 11, 91
26, 13781, Control_c, 15, 11, 92
26, 13793, Control_c, 15, 11, 93
26, 13805, Control_c, 15, 11, 94
26, 13817, Control_c, 15, 11, 95
26, 13824, Note_on_c, 15, 33, 0
26, 13824, Note_on_c, 15, 35, 60
26, 13830, Control_c, 15, 11, 96
26, 13842, Control_c, 15, 11, 97
26, 13854, Control_c, 15, 11, 98
26, 13866, Control_c, 15, 11, 99
26, 13878, Control_c, 15, 11, 100
26, 13891, Control_c, 15, 11, 101
26, 13903, Control_c, 15, 11, 102
26, 13915, Control_c, 15, 11, 103
26, 13927, Control_c, 15, 11, 104
26, 13939, Control_c, 15, 11, 105
26, 13952, Control_c, 15, 11, 106
26, 13964, Control_c, 15, 11, 107
26, 13976, Control_c, 15, 11, 108
26, 13988, Control_c, 15, 11, 109
26, 14000, Control_c, 15, 11, 110
26, 14012, Control_c, 15, 11, 111
26, 14016, Note_on_c, 15, 35, 0
26, 14016, Note_on_c, 15, 33, 61
26, 14025, Control_c, 15, 11, 112
26, 14037, Control_c, 15, 11, 113
26, 14049, Control_c, 15, 11, 114
26, 14061, Control_c, 15, 11, 115
26, 14073, Control_c, 15, 11, 116
26, 14086, Control_c, 15, 11, 117
26, 14098, Control_c, 15, 11, 118
26, 14110, Control_c, 15, 11, 119
26, 14122, Control_c, 15, 11, 120
26, 14134, Control_c, 15, 11, 121
26, 14147, Control_c, 15, 11, 122
26, 14159, Control_c, 15, 11, 123
26, 14171, Control_c, 15, 11, 124
26, 14183, Control_c, 15, 11, 125
26, 14195, Control_c, 15, 11, 126
26, 14208, Note_on_c, 15, 33, 0
26, 14208, Control_c, 15, 11, 127
26, 14208, Note_on_c, 15, 32, 63
26, 14220, Control_c, 15, 11, 126
26, 14232, Control_c, 15, 11, 125
26, 14244, Control_c, 15, 11, 124
26, 14256, Control_c, 15, 11, 123
26, 14268, Control_c, 15, 11, 122
26, 14281, Control_c, 15, 11, 121
26, 14293, Control_c, 15, 11, 120
26, 14305, Control_c, 15, 11, 119
26, 14317, Control_c, 15, 11, 118
26, 14329, Control_c, 15, 11, 117
26, 14342, Control_c, 15, 11, 116
26, 14354, Control_c, 15, 11, 115
26, 14366, Control_c, 15, 11, 114
26, 14378, Control_c, 15, 11, 113
26, 14390, Control_c, 15, 11, 112
26, 14400, Note_on_c, 15, 32, 0
26, 14400, Note_on_c, 15, 31, 58
26, 14403, Control_c, 15, 11, 111
26, 14415, Control_c, 15, 11, 110
26, 14427, Control_c, 15, 11, 109
26, 14439, Control_c, 15, 11, 108
26, 14451, Control_c, 15, 11, 107
26, 14464, Control_c, 15, 11, 106
26, 14476, Control_c, 15, 11, 105
26, 14488, Control_c, 15, 11, 104
26, 14500, Control_c, 15, 11, 103
26, 14512, Control_c, 15, 11, 102
26, 14524, Control_c, 15, 11, 101
26, 14537, Control_c, 15, 11, 100
26, 14549, Control_c, 15, 11, 99
26, 14561, Control_c, 15, 11, 98
26, 14573, Control_c, 15, 11, 97
26, 14585, Control_c, 15, 11, 96
26, 14592, Note_on_c, 15, 31, 0
26, 14592, Note_on_c, 15, 30, 59
26, 14598, Control_c, 15, 11, 95
26, 14610, Control_c, 15, 11, 94
26, 14622, Control_c, 15, 11, 93
26, 14634, Control_c, 15, 11, 92
26, 14646, Control_c, 15, 11, 91
26, 14659, Control_c, 15, 11, 90
26, 14671, Control_c, 15, 11, 89
26, 14683, Control_c, 15, 11, 88
26, 14695, Control_c, 15, 11, 87
26, 14707, Control_c, 15, 11, 86
26, 14720, Control_c, 15, 11, 85
26, 14732, Control_c, 15, 11, 84
26, 14744, Control_c, 15, 11, 83
26, 14756, Control_c, 15, 11, 82
26, 14768, Control_c, 15, 11, 81
26, 14780, Control_c, 15, 11, 80
26, 14784, Note_on_c, 15, 30, 0
26, 14784, Note_on_c, 15, 31, 65
26, 14793, Control_c, 15, 11, 79
26, 14805, Control_c, 15, 11, 78
26, 14817, Control_c, 15, 11, 77
26, 14829, Control_c, 15, 11, 76
26, 14841, Control_c, 15, 11, 75
26, 14854, Control_c, 15, 11, 74
26, 14866, Control_c, 15, 11, 73
26, 14878, Control_c, 15, 11, 72
26, 14890, Control_c, 15, 11, 71
26, 14902, Control_c, 15, 11, 70
26, 14915, Control_c, 15, 11, 69
26, 14927, Control_c, 15, 11, 68
26, 14939, Control_c, 15, 11, 67
26, 14951, Control_c, 15, 11, 66
26, 14963, Control_c, 15, 11, 65
26, 14976, Note_on_c, 15, 31, 0
26, 14976, Control_c, 15, 11, 64
26, 14976, Note_on_c, 15, 30, 64
26, 15360, Note_on_c, 15, 30, 0
26, 15360, Note_on_c, 15, 31, 64
26, 15744, Note_on_c, 15, 31, 0
26, 15744, Control_c, 15, 11, 64
26, 15744, Note_on_c, 15, 30, 58
26, 15784, Control_c, 15, 11, 63
26, 15824, Control_c, 15, 11, 62
26, 15865, Control_c, 15, 11, 61
26, 15905, Control_c, 15, 11, 60
26, 15936, Note_on_c, 15, 30, 0
26, 15936, Note_on_c, 15, 29, 64
26, 15946, Control_c, 15, 11, 59
26, 15986, Control_c, 15, 11, 58
26, 16026, Control_c, 15, 11, 57
26, 16067, Control_c, 15, 11, 56
26, 16107, Control_c, 15, 11, 55
26, 16128, Note_on_c, 15, 29, 0
26, 16128, Note_on_c, 15, 28, 60
26, 16148, Control_c, 15, 11, 54
26, 16188, Control_c, 15, 11, 53
26, 16229, Control_c, 15, 11, 52
26, 16269, Control_c, 15, 11, 51
26, 16309, Control_c, 15, 11, 50
26, 16320, Note_on_c, 15, 28, 0
26, 16320, Note_on_c, 15, 27, 57
26, 16350, Control_c, 15, 11, 49
26, 16390, Control_c, 15, 11, 48
26, 16431, Control_c, 15, 11, 47
26, 16471, Control_c, 15, 11, 46
26, 16512, Note_on_c, 15, 27, 0
26, 16512, Control_c, 15, 11, 45
26, 16512, Program_c, 15, 48
26, 16512, Note_on_c, 15, 26, 62
26, 18240, Note_on_c, 15, 26, 0
26, 18816, Control_c, 15, 11, 127
26, 19584, Program_c, 15, 44
26, 20352, Control_c, 15, 11, 127
26, 20352, Note_on_c, 15, 35, 28
26, 20373, Control_c, 15, 11, 126
26, 20395, Control_c, 15, 11, 125
26, 20417, Control_c, 15, 11, 124
26, 20439, Control_c, 15, 11, 123
26, 20461, Control_c, 15, 11, 122
26, 20483, Control_c, 15, 11, 121
26, 20505, Control_c, 15, 11, 120
26, 20527, Control_c, 15, 11, 119
26, 20544, Note_on_c, 15, 35, 0
26, 20544, Note_on_c, 15, 33, 30
26, 20549, Control_c, 15, 11, 118
26, 20571, Control_c, 15, 11, 117
26, 20593, Control_c, 15, 11, 116
26, 20615, Control_c, 15, 11, 115
26, 20637, Control_c, 15, 11, 114
26, 20659, Control_c, 15, 11, 113
26, 20681, Control_c, 15, 11, 112
26, 20703, Control_c, 15, 11, 111
26, 20725, Control_c, 15, 11, 110
26, 20736, Note_on_c, 15, 33, 0
26, 20736, Note_on_c, 15, 35, 29
26, 20746, Control_c, 15, 11, 109
26, 20768, Control_c, 15, 11, 108
26, 20790, Control_c, 15, 11, 107
26, 20812, Control_c, 15, 11, 106
26, 20834, Control_c, 15, 11, 105
26, 20856, Control_c, 15, 11, 104
26, 20878, Control_c, 15, 11, 103
26, 20900, Control_c, 15, 11, 102
26, 20922, Control_c, 15, 11, 101
26, 20928, Note_on_c, 15, 35, 0
26, 20928, Note_on_c, 15, 33, 28
26, 20944, Control_c, 15, 11, 100
26, 20966, Control_c, 15, 11, 99
26, 20988, Control_c, 15, 11, 98
26, 21010, Control_c, 15, 11, 97
26, 21032, Control_c, 15, 11, 96
26, 21054, Control_c, 15, 11, 95
26, 21076, Control_c, 15, 11, 94
26, 21098, Control_c, 15, 11, 93
26, 21120, Note_on_c, 15, 33, 0
26, 21120, Control_c, 15, 11, 92
26, 26880, Program_c, 15, 44
26, 28032, Control_c, 15, 11, 45
26, 28032, Note_on_c, 15, 35, 87
26, 28060, Control_c, 15, 11, 46
26, 28088, Control_c, 15, 11, 47
26, 28116, Control_c, 15, 11, 48
26, 28144, Control_c, 15, 11, 49
26, 28172, Control_c, 15, 11, 50
26, 28200, Control_c, 15, 11, 51
26, 28228, Control_c, 15, 11, 52
26, 28256, Control_c, 15, 11, 53
26, 28284, Control_c, 15, 11, 54
26, 28312, Control_c, 15, 11, 55
26, 28320, Note_on_c, 15, 35, 0
26, 28320, Note_on_c, 15, 33, 89
26, 28341, Control_c, 15, 11, 56
26, 28369, Control_c, 15, 11, 57
26, 28397, Control_c, 15, 11, 58
26, 28425, Control_c, 15, 11, 59
26, 28453, Control_c, 15, 11, 60
26, 28481, Control_c, 15, 11, 61
26, 28509, Control_c, 15, 11, 62
26, 28537, Control_c, 15, 11, 63
26, 28565, Control_c, 15, 11, 64
26, 28593, Control_c, 15, 11, 65
26, 28608, Note_on_c, 15, 33, 0
26, 28608, Note_on_c, 15, 35, 93
26, 28622, Control_c, 15, 11, 66
26, 28650, Control_c, 15, 11, 67
26, 28678, Control_c, 15, 11, 68
26, 28706, Control_c, 15, 11, 69
26, 28734, Control_c, 15, 11, 70
26, 28762, Control_c, 15, 11, 71
26, 28790, Control_c, 15, 11, 72
26, 28818, Control_c, 15, 11, 73
26, 28846, Control_c, 15, 11, 74
26, 28874, Control_c, 15, 11, 75
26, 28896, Note_on_c, 15, 35, 0
26, 28896, Note_on_c, 15, 33, 87
26, 28903, Control_c, 15, 11, 76
26, 28931, Control_c, 15, 11, 77
26, 28959, Control_c, 15, 11, 78
26, 28987, Control_c, 15, 11, 79
26, 29015, Control_c, 15, 11, 80
26, 29043, Control_c, 15, 11, 81
26, 29071, Control_c, 15, 11, 82
26, 29099, Control_c, 15, 11, 83
26, 29127, Control_c, 15, 11, 84
26, 29155, Control_c, 15, 11, 85
26, 29183, Control_c, 15, 11, 86
26, 29184, Note_on_c, 15, 33, 0
26, 29184, Note_on_c, 15, 35, 90
26, 29212, Control_c, 15, 11, 87
26, 29240, Control_c, 15, 11, 88
26, 29268, Control_c, 15, 11, 89
26, 29296, Control_c, 15, 11, 90
26, 29324, Control_c, 15, 11, 91
26, 29352, Control_c, 15, 11, 92
26, 29380, Control_c, 15, 11, 93
26, 29408, Control_c, 15, 11, 94
26, 29436, Control_c, 15, 11, 95
26, 29464, Control_c, 15, 11, 96
26, 29472, Note_on_c, 15, 35, 0
26, 29472, Note_on_c, 15, 33, 93
26, 29493, Control_c, 15, 11, 97
26, 29521, Control_c, 15, 11, 98
26, 29549, Control_c, 15, 11, 99
26, 29577, Control_c, 15, 11, 100
26, 29605, Control_c, 15, 11, 101
26, 29633, Control_c, 15, 11, 102
26, 29661, Control_c, 15, 11, 103
26, 29689, Control_c, 15, 11, 104
26, 29717, Control_c, 15, 11, 105
26, 29745, Control_c, 15, 11, 106
26, 29760, Note_on_c, 15, 33, 0
26, 29760, Note_on_c, 15, 35, 91
26, 29774, Control_c, 15, 11, 107
26, 29802, Control_c, 15, 11, 108
26, 29830, Control_c, 15, 11, 109
26, 29858, Control_c, 15, 11, 110
26, 29886, Control_c, 15, 11, 111
26, 29914, Control_c, 15, 11, 112
26, 29942, Control_c, 15, 11, 113
26, 29970, Control_c, 15, 11, 114
26, 29998, Control_c, 15, 11, 115
26, 30026, Control_c, 15, 11, 116
26, 30048, Note_on_c, 15, 35, 0
26, 30048, Note_on_c, 15, 33, 93
26, 30055, Control_c, 15, 11, 117
26, 30083, Control_c, 15, 11, 118
26, 30111, Control_c, 15, 11, 119
26, 30139, Control_c, 15, 11, 120
26, 30167, Control_c, 15, 11, 121
26, 30195, Control_c, 15, 11, 122
26, 30223, Control_c, 15, 11, 123
26, 30251, Control_c, 15, 11, 124
26, 30279, Control_c, 15, 11, 125
26, 30307, Control_c, 15, 11, 126
26, 30336, Note_on_c, 15, 33, 0
26, 30336, Control_c, 15, 11, 127
26, 37248, Program_c, 15, 45
26, 37248, Note_on_c, 15, 34, 32
26, 37408, Note_on_c, 15, 34, 0
26, 37440, Note_on_c, 15, 32, 30
26, 37630, Note_on_c, 15, 32, 0
26, 37632, Note_on_c, 15, 35, 25
26, 37726, Note_on_c, 15, 35, 0
26, 37728, Note_on_c, 15, 37, 71
26, 37822, Note_on_c, 15, 37, 0
26, 37824, Note_on_c, 15, 34, 25
26, 37984, Note_on_c, 15, 34, 0
26, 38016, Note_on_c, 15, 34, 27
26, 38110, Note_on_c, 15, 34, 0
26, 38304, Note_on_c, 15, 34, 32
26, 38398, Note_on_c, 15, 34, 0
26, 38400, Note_on_c, 15, 34, 47
26, 38560, Note_on_c, 15, 34, 0
26, 38592, Note_on_c, 15, 32, 44
26, 38782, Note_on_c, 15, 32, 0
26, 38784, Note_on_c, 15, 31, 43
26, 38878, Note_on_c, 15, 31, 0
26, 38880, Note_on_c, 15, 30, 59
26, 38974, Note_on_c, 15, 30, 0
26, 38976, Note_on_c, 15, 35, 41
26, 39136, Note_on_c, 15, 35, 0
26, 39264, Note_on_c, 15, 34, 50
26, 39424, Note_on_c, 15, 34, 0
26, 41856, Note_on_c, 15, 31, 45
26, 42384, Note_on_c, 15, 31, 0
26, 42432, Note_on_c, 15, 28, 40
26, 42960, Note_on_c, 15, 28, 0
26, 43008, Program_c, 15, 45
26, 43056, Note_on_c, 15, 29, 35
26, 43102, Note_on_c, 15, 29, 0
26, 43152, Note_on_c, 15, 32, 25
26, 43198, Note_on_c, 15, 32, 0
26, 43248, Note_on_c, 15, 35, 28
26, 43294, Note_on_c, 15, 35, 0
26, 43344, Note_on_c, 15, 29, 26
26, 43390, Note_on_c, 15, 29, 0
26, 43440, Note_on_c, 15, 32, 25
26, 43486, Note_on_c, 15, 32, 0
26, 43536, Note_on_c, 15, 35, 32
26, 43582, Note_on_c, 15, 35, 0
26, 43632, Note_on_c, 15, 29, 28
26, 43678, Note_on_c, 15, 29, 0
26, 43728, Note_on_c, 15, 32, 32
26, 43774, Note_on_c, 15, 32, 0
26, 43824, Note_on_c, 15, 35, 26
26, 43870, Note_on_c, 15, 35, 0
26, 43920, Note_on_c, 15, 29, 35
26, 43966, Note_on_c, 15, 29, 0
26, 44016, Note_on_c, 15, 32, 25
26, 44062, Note_on_c, 15, 32, 0
26, 44112, Note_on_c, 15, 35, 25
26, 44158, Note_on_c, 15, 35, 0
26, 44208, Note_on_c, 15, 29, 32
26, 44254, Note_on_c, 15, 29, 0
26, 44304, Note_on_c, 15, 32, 27
26, 44350, Note_on_c, 15, 32, 0
26, 44400, Note_on_c, 15, 35, 35
26, 44446, Note_on_c, 15, 35, 0
26, 44496, Note_on_c, 15, 29, 35
26, 44542, Note_on_c, 15, 29, 0
26, 44592, Note_on_c, 15, 32, 26
26, 44638, Note_on_c, 15, 32, 0
26, 44688, Note_on_c, 15, 35, 35
26, 44734, Note_on_c, 15, 35, 0
26, 44784, Note_on_c, 15, 29, 33
26, 44830, Note_on_c, 15, 29, 0
26, 44880, Note_on_c, 15, 32, 35
26, 44926, Note_on_c, 15, 32, 0
26, 44976, Note_on_c, 15, 35, 26
26, 45022, Note_on_c, 15, 35, 0
26, 45072, Note_on_c, 15, 29, 31
26, 45118, Note_on_c, 15, 29, 0
26, 45168, Note_on_c, 15, 32, 26
26, 45214, Note_on_c, 15, 32, 0
26, 45264, Note_on_c, 15, 35, 33
26, 45310, Note_on_c, 15, 35, 0
26, 45312, Program_c, 15, 48
26, 45312, Note_on_c, 15, 28, 30
26, 45888, Note_on_c, 15, 28, 0
26, 45888, Note_on_c, 15, 29, 30
26, 46176, Note_on_c, 15, 29, 0
26, 46176, Note_on_c, 15, 31, 26
26, 46432, Note_on_c, 15, 31, 0
26, 46464, Note_on_c, 15, 32, 31
26, 46992, Note_on_c, 15, 32, 0
26, 47040, Program_c, 15, 45
26, 47040, Note_on_c, 15, 35, 32
26, 47200, Note_on_c, 15, 35, 0
26, 47616, Program_c, 15, 48
26, 47616, Note_on_c, 15, 32, 27
26, 48144, Note_on_c, 15, 32, 0
26, 48192, Control_c, 15, 11, 92
26, 48192, Note_on_c, 15, 32, 64
26, 48208, Control_c, 15, 11, 93
26, 48224, Control_c, 15, 11, 94
26, 48241, Control_c, 15, 11, 95
26, 48257, Control_c, 15, 11, 96
26, 48274, Control_c, 15, 11, 97
26, 48290, Control_c, 15, 11, 98
26, 48307, Control_c, 15, 11, 99
26, 48323, Control_c, 15, 11, 100
26, 48340, Control_c, 15, 11, 101
26, 48356, Control_c, 15, 11, 102
26, 48373, Control_c, 15, 11, 103
26, 48384, Note_on_c, 15, 32, 0
26, 48384, Note_on_c, 15, 35, 65
26, 48389, Control_c, 15, 11, 104
26, 48405, Control_c, 15, 11, 105
26, 48422, Control_c, 15, 11, 106
26, 48438, Control_c, 15, 11, 107
26, 48455, Control_c, 15, 11, 108
26, 48471, Control_c, 15, 11, 109
26, 48480, Note_on_c, 15, 35, 0
26, 48480, Note_on_c, 15, 32, 64
26, 48488, Control_c, 15, 11, 110
26, 48504, Control_c, 15, 11, 111
26, 48521, Control_c, 15, 11, 112
26, 48537, Control_c, 15, 11, 113
26, 48554, Control_c, 15, 11, 114
26, 48570, Control_c, 15, 11, 115
26, 48586, Control_c, 15, 11, 116
26, 48603, Control_c, 15, 11, 117
26, 48619, Control_c, 15, 11, 118
26, 48636, Control_c, 15, 11, 119
26, 48652, Control_c, 15, 11, 120
26, 48669, Control_c, 15, 11, 121
26, 48672, Note_on_c, 15, 32, 0
26, 48672, Note_on_c, 15, 28, 65
26, 48685, Control_c, 15, 11, 122
26, 48702, Control_c, 15, 11, 123
26, 48718, Control_c, 15, 11, 124
26, 48735, Control_c, 15, 11, 125
26, 48751, Control_c, 15, 11, 126
26, 48766, Note_on_c, 15, 28, 0
26, 48768, Control_c, 15, 11, 127
26, 49152, Program_c, 15, 45
26, 49248, Note_on_c, 15, 34, 58
26, 49342, Note_on_c, 15, 34, 0
26, 50496, Program_c, 15, 48
26, 51072, Note_on_c, 15, 34, 74
26, 51360, Note_on_c, 15, 34, 0
26, 51360, Note_on_c, 15, 39, 76
26, 51648, Note_on_c, 15, 39, 0
26, 51648, Note_on_c, 15, 37, 73
26, 51904, Note_on_c, 15, 37, 0
26, 51936, Program_c, 15, 45
26, 51984, Note_on_c, 15, 30, 45
26, 52030, Note_on_c, 15, 30, 0
26, 52080, Note_on_c, 15, 30, 43
26, 52126, Note_on_c, 15, 30, 0
26, 52176, Note_on_c, 15, 30, 50
26, 52222, Note_on_c, 15, 30, 0
26, 52272, Note_on_c, 15, 30, 61
26, 52318, Note_on_c, 15, 30, 0
26, 52368, Note_on_c, 15, 30, 70
26, 52414, Note_on_c, 15, 30, 0
26, 52464, Note_on_c, 15, 30, 72
26, 52510, Note_on_c, 15, 30, 0
26, 52704, Note_on_c, 15, 37, 35
26, 52736, Note_on_c, 15, 37, 0
26, 52752, Note_on_c, 15, 35, 24
26, 52784, Note_on_c, 15, 35, 0
26, 52992, Note_on_c, 15, 37, 32
26, 53024, Note_on_c, 15, 37, 0
26, 53040, Note_on_c, 15, 35, 20
26, 53072, Note_on_c, 15, 35, 0
26, 53280, Note_on_c, 15, 37, 32
26, 53312, Note_on_c, 15, 37, 0
26, 53328, Note_on_c, 15, 35, 28
26, 53360, Note_on_c, 15, 35, 0
26, 53568, Note_on_c, 15, 37, 30
26, 53600, Note_on_c, 15, 37, 0
26, 53616, Note_on_c, 15, 35, 22
26, 53648, Note_on_c, 15, 35, 0
26, 53664, Note_on_c, 15, 35, 30
26, 53758, Note_on_c, 15, 35, 0
26, 53952, Note_on_c, 15, 32, 36
26, 54046, Note_on_c, 15, 32, 0
26, 54240, Program_c, 15, 48
26, 54240, Note_on_c, 15, 28, 47
26, 54768, Note_on_c, 15, 28, 0
26, 54816, Program_c, 15, 45
26, 54816, Note_on_c, 15, 38, 45
26, 54976, Note_on_c, 15, 38, 0
26, 55008, Note_on_c, 15, 35, 41
26, 55168, Note_on_c, 15, 35, 0
26, 55200, Note_on_c, 15, 38, 96
26, 55360, Note_on_c, 15, 38, 0
26, 55392, Note_on_c, 15, 35, 47
26, 55552, Note_on_c, 15, 35, 0
26, 55584, Note_on_c, 15, 38, 44
26, 55744, Note_on_c, 15, 38, 0
26, 55776, Note_on_c, 15, 35, 94
26, 55936, Note_on_c, 15, 35, 0
26, 55968, Note_on_c, 15, 38, 46
26, 56128, Note_on_c, 15, 38, 0
26, 56160, Note_on_c, 15, 35, 40
26, 56320, Note_on_c, 15, 35, 0
26, 56352, Note_on_c, 15, 38, 97
26, 56512, Note_on_c, 15, 38, 0
26, 56544, Program_c, 15, 44
26, 56544, Control_c, 15, 11, 92
26, 56544, Note_on_c, 15, 38, 90
26, 56545, Control_c, 15, 11, 93
26, 56546, Control_c, 15, 11, 94
26, 56548, Control_c, 15, 11, 95
26, 56549, Control_c, 15, 11, 96
26, 56550, Control_c, 15, 11, 97
26, 56552, Control_c, 15, 11, 98
26, 56553, Control_c, 15, 11, 99
26, 56554, Control_c, 15, 11, 100
26, 56556, Control_c, 15, 11, 101
26, 56557, Control_c, 15, 11, 102
26, 56559, Control_c, 15, 11, 103
26, 56560, Control_c, 15, 11, 104
26, 56561, Control_c, 15, 11, 105
26, 56563, Control_c, 15, 11, 106
26, 56564, Control_c, 15, 11, 107
26, 56565, Control_c, 15, 11, 108
26, 56567, Control_c, 15, 11, 109
26, 56568, Control_c, 15, 11, 110
26, 56570, Control_c, 15, 11, 111
26, 56571, Control_c, 15, 11, 112
26, 56572, Control_c, 15, 11, 113
26, 56574, Control_c, 15, 11, 114
26, 56575, Control_c, 15, 11, 115
26, 56576, Control_c, 15, 11, 116
26, 56578, Control_c, 15, 11, 117
26, 56579, Control_c, 15, 11, 118
26, 56581, Control_c, 15, 11, 119
26, 56582, Control_c, 15, 11, 120
26, 56583, Control_c, 15, 11, 121
26, 56585, Control_c, 15, 11, 122
26, 56586, Control_c, 15, 11, 123
26, 56587, Control_c, 15, 11, 124
26, 56589, Control_c, 15, 11, 125
26, 56590, Control_c, 15, 11, 126
26, 56592, Control_c, 15, 11, 127
26, 56593, Control_c, 15, 11, 126
26, 56594, Control_c, 15, 11, 125
26, 56596, Control_c, 15, 11, 124
26, 56597, Control_c, 15, 11, 123
26, 56598, Control_c, 15, 11, 122
26, 56600, Control_c, 15, 11, 121
26, 56601, Control_c, 15, 11, 120
26, 56602, Control_c, 15, 11, 119
26, 56604, Control_c, 15, 11, 118
26, 56605, Control_c, 15, 11, 117
26, 56607, Control_c, 15, 11, 116
26, 56608, Control_c, 15, 11, 115
26, 56609, Control_c, 15, 11, 114
26, 56611, Control_c, 15, 11, 113
26, 56612, Control_c, 15, 11, 112
26, 56613, Control_c, 15, 11, 111
26, 56615, Control_c, 15, 11, 110
26, 56616, Control_c, 15, 11, 109
26, 56618, Control_c, 15, 11, 108
26, 56619, Control_c, 15, 11, 107
26, 56620, Control_c, 15, 11, 106
26, 56622, Control_c, 15, 11, 105
26, 56623, Control_c, 15, 11, 104
26, 56624, Control_c, 15, 11, 103
26, 56626, Control_c, 15, 11, 102
26, 56627, Control_c, 15, 11, 101
26, 56629, Control_c, 15, 11, 100
26, 56630, Control_c, 15, 11, 99
26, 56631, Control_c, 15, 11, 98
26, 56633, Control_c, 15, 11, 97
26, 56634, Control_c, 15, 11, 96
26, 56635, Control_c, 15, 11, 95
26, 56637, Control_c, 15, 11, 94
26, 56638, Control_c, 15, 11, 93
26, 56640, Control_c, 15, 11, 92
26, 56704, Note_on_c, 15, 38, 0
26, 56736, Control_c, 15, 11, 92
26, 56736, Note_on_c, 15, 35, 88
26, 56737, Control_c, 15, 11, 93
26, 56738, Control_c, 15, 11, 94
26, 56740, Control_c, 15, 11, 95
26, 56741, Control_c, 15, 11, 96
26, 56742, Control_c, 15, 11, 97
26, 56744, Control_c, 15, 11, 98
26, 56745, Control_c, 15, 11, 99
26, 56746, Control_c, 15, 11, 100
26, 56748, Control_c, 15, 11, 101
26, 56749, Control_c, 15, 11, 102
26, 56751, Control_c, 15, 11, 103
26, 56752, Control_c, 15, 11, 104
26, 56753, Control_c, 15, 11, 105
26, 56755, Control_c, 15, 11, 106
26, 56756, Control_c, 15, 11, 107
26, 56757, Control_c, 15, 11, 108
26, 56759, Control_c, 15, 11, 109
26, 56760, Control_c, 15, 11, 110
26, 56762, Control_c, 15, 11, 111
26, 56763, Control_c, 15, 11, 112
26, 56764, Control_c, 15, 11, 113
26, 56766, Control_c, 15, 11, 114
26, 56767, Control_c, 15, 11, 115
26, 56768, Control_c, 15, 11, 116
26, 56770, Control_c, 15, 11, 117
26, 56771, Control_c, 15, 11, 118
26, 56773, Control_c, 15, 11, 119
26, 56774, Control_c, 15, 11, 120
26, 56775, Control_c, 15, 11, 121
26, 56777, Control_c, 15, 11, 122
26, 56778, Control_c, 15, 11, 123
26, 56779, Control_c, 15, 11, 124
26, 56781, Control_c, 15, 11, 125
26, 56782, Control_c, 15, 11, 126
26, 56784, Control_c, 15, 11, 127
26, 56785, Control_c, 15, 11, 126
26, 56786, Control_c, 15, 11, 125
26, 56788, Control_c, 15, 11, 124
26, 56789, Control_c, 15, 11, 123
26, 56790, Control_c, 15, 11, 122
26, 56792, Control_c, 15, 11, 121
26, 56793, Control_c, 15, 11, 120
26, 56794, Control_c, 15, 11, 119
26, 56796, Control_c, 15, 11, 118
26, 56797, Control_c, 15, 11, 117
26, 56799, Control_c, 15, 11, 116
26, 56800, Control_c, 15, 11, 115
26, 56801, Control_c, 15, 11, 114
26, 56803, Control_c, 15, 11, 113
26, 56804, Control_c, 15, 11, 112
26, 56805, Control_c, 15, 11, 111
26, 56807, Control_c, 15, 11, 110
26, 56808, Control_c, 15, 11, 109
26, 56810, Control_c, 15, 11, 108
26, 56811, Control_c, 15, 11, 107
26, 56812, Control_c, 15, 11, 106
26, 56814, Control_c, 15, 11, 105
26, 56815, Control_c, 15, 11, 104
26, 56816, Control_c, 15, 11, 103
26, 56818, Control_c, 15, 11, 102
26, 56819, Control_c, 15, 11, 101
26, 56821, Control_c, 15, 11, 100
26, 56822, Control_c, 15, 11, 99
26, 56823, Control_c, 15, 11, 98
26, 56825, Control_c, 15, 11, 97
26, 56826, Control_c, 15, 11, 96
26, 56827, Control_c, 15, 11, 95
26, 56829, Control_c, 15, 11, 94
26, 56830, Control_c, 15, 11, 93
26, 56832, Control_c, 15, 11, 92
26, 56896, Note_on_c, 15, 35, 0
26, 56928, Control_c, 15, 11, 92
26, 56928, Note_on_c, 15, 32, 92
26, 56929, Control_c, 15, 11, 93
26, 56930, Control_c, 15, 11, 94
26, 56932, Control_c, 15, 11, 95
26, 56933, Control_c, 15, 11, 96
26, 56934, Control_c, 15, 11, 97
26, 56936, Control_c, 15, 11, 98
26, 56937, Control_c, 15, 11, 99
26, 56938, Control_c, 15, 11, 100
26, 56940, Control_c, 15, 11, 101
26, 56941, Control_c, 15, 11, 102
26, 56943, Control_c, 15, 11, 103
26, 56944, Control_c, 15, 11, 104
26, 56945, Control_c, 15, 11, 105
26, 56947, Control_c, 15, 11, 106
26, 56948, Control_c, 15, 11, 107
26, 56949, Control_c, 15, 11, 108
26, 56951, Control_c, 15, 11, 109
26, 56952, Control_c, 15, 11, 110
26, 56954, Control_c, 15, 11, 111
26, 56955, Control_c, 15, 11, 112
26, 56956, Control_c, 15, 11, 113
26, 56958, Control_c, 15, 11, 114
26, 56959, Control_c, 15, 11, 115
26, 56960, Control_c, 15, 11, 116
26, 56962, Control_c, 15, 11, 117
26, 56963, Control_c, 15, 11, 118
26, 56965, Control_c, 15, 11, 119
26, 56966, Control_c, 15, 11, 120
26, 56967, Control_c, 15, 11, 121
26, 56969, Control_c, 15, 11, 122
26, 56970, Control_c, 15, 11, 123
26, 56971, Control_c, 15, 11, 124
26, 56973, Control_c, 15, 11, 125
26, 56974, Control_c, 15, 11, 126
26, 56976, Control_c, 15, 11, 127
26, 56977, Control_c, 15, 11, 126
26, 56978, Control_c, 15, 11, 125
26, 56980, Control_c, 15, 11, 124
26, 56981, Control_c, 15, 11, 123
26, 56982, Control_c, 15, 11, 122
26, 56984, Control_c, 15, 11, 121
26, 56985, Control_c, 15, 11, 120
26, 56986, Control_c, 15, 11, 119
26, 56988, Control_c, 15, 11, 118
26, 56989, Control_c, 15, 11, 117
26, 56991, Control_c, 15, 11, 116
26, 56992, Control_c, 15, 11, 115
26, 56993, Control_c, 15, 11, 114
26, 56995, Control_c, 15, 11, 113
26, 56996, Control_c, 15, 11, 112
26, 56997, Control_c, 15, 11, 111
26, 56999, Control_c, 15, 11, 110
26, 57000, Control_c, 15, 11, 109
26, 57002, Control_c, 15, 11, 108
26, 57003, Control_c, 15, 11, 107
26, 57004, Control_c, 15, 11, 106
26, 57006, Control_c, 15, 11, 105
26, 57007, Control_c, 15, 11, 104
26, 57008, Control_c, 15, 11, 103
26, 57010, Control_c, 15, 11, 102
26, 57011, Control_c, 15, 11, 101
26, 57013, Control_c, 15, 11, 100
26, 57014, Control_c, 15, 11, 99
26, 57015, Control_c, 15, 11, 98
26, 57017, Control_c, 15, 11, 97
26, 57018, Control_c, 15, 11, 96
26, 57019, Control_c, 15, 11, 95
26, 57021, Control_c, 15, 11, 94
26, 57022, Control_c, 15, 11, 93
26, 57024, Control_c, 15, 11, 92
26, 57088, Note_on_c, 15, 32, 0
26, 57120, Note_on_c, 15, 38, 43
26, 57312, Note_on_c, 15, 38, 0
26, 57312, Note_on_c, 15, 35, 45
26, 57504, Note_on_c, 15, 35, 0
26, 57504, Note_on_c, 15, 32, 39
26, 57696, Note_on_c, 15, 32, 0
26, 57696, Note_on_c, 15, 38, 37
26, 57888, Note_on_c, 15, 38, 0
26, 57888, Note_on_c, 15, 35, 35
26, 58080, Note_on_c, 15, 35, 0
26, 58080, Note_on_c, 15, 32, 38
26, 58272, Note_on_c, 15, 32, 0
26, 58272, Note_on_c, 15, 38, 40
26, 58464, Note_on_c, 15, 38, 0
26, 58464, Note_on_c, 15, 35, 33
26, 58656, Note_on_c, 15, 35, 0
26, 58656, Note_on_c, 15, 32, 33
26, 58848, Note_on_c, 15, 32, 0
26, 58848, Control_c, 15, 11, 127
26, 58848, Note_on_c, 15, 38, 33
26, 58880, Control_c, 15, 11, 126
26, 58913, Control_c, 15, 11, 125
26, 58946, Control_c, 15, 11, 124
26, 58979, Control_c, 15, 11, 123
26, 59012, Control_c, 15, 11, 122
26, 59040, Note_on_c, 15, 38, 0
26, 59040, Note_on_c, 15, 35, 31
26, 59045, Control_c, 15, 11, 121
26, 59078, Control_c, 15, 11, 120
26, 59111, Control_c, 15, 11, 119
26, 59144, Control_c, 15, 11, 118
26, 59177, Control_c, 15, 11, 117
26, 59210, Control_c, 15, 11, 116
26, 59232, Note_on_c, 15, 35, 0
26, 59232, Note_on_c, 15, 32, 33
26, 59242, Control_c, 15, 11, 115
26, 59275, Control_c, 15, 11, 114
26, 59308, Control_c, 15, 11, 113
26, 59341, Control_c, 15, 11, 112
26, 59374, Control_c, 15, 11, 111
26, 59407, Control_c, 15, 11, 110
26, 59424, Note_on_c, 15, 32, 0
26, 59424, Note_on_c, 15, 35, 35
26, 59440, Control_c, 15, 11, 109
26, 59473, Control_c, 15, 11, 108
26, 59506, Control_c, 15, 11, 107
26, 59539, Control_c, 15, 11, 106
26, 59572, Control_c, 15, 11, 105
26, 59605, Control_c, 15, 11, 104
26, 59616, Note_on_c, 15, 35, 0
26, 59616, Note_on_c, 15, 32, 25
26, 59637, Control_c, 15, 11, 103
26, 59670, Control_c, 15, 11, 102
26, 59703, Control_c, 15, 11, 101
26, 59736, Control_c, 15, 11, 100
26, 59769, Control_c, 15, 11, 99
26, 59802, Control_c, 15, 11, 98
26, 59808, Note_on_c, 15, 32, 0
26, 59808, Note_on_c, 15, 35, 26
26, 59835, Control_c, 15, 11, 97
26, 59868, Control_c, 15, 11, 96
26, 59901, Control_c, 15, 11, 95
26, 59934, Control_c, 15, 11, 94
26, 59967, Control_c, 15, 11, 93
26, 60000, Note_on_c, 15, 35, 0
26, 60000, Control_c, 15, 11, 92
26, 60000, Note_on_c, 15, 32, 32
26, 60192, Note_on_c, 15, 32, 0
26, 60192, Note_on_c, 15, 35, 35
26, 60384, Note_on_c, 15, 35, 0
26, 60384, Note_on_c, 15, 32, 32
26, 60576, Note_on_c, 15, 32, 0
26, 60576, Control_c, 15, 11, 127
26, 60576, Note_on_c, 15, 35, 25
26, 60672, Note_on_c, 15, 35, 0
26, 60864, Note_on_c, 15, 32, 16
26, 60960, Note_on_c, 15, 32, 0
26, 61152, Control_c, 15, 11, 127
26, 61152, Program_c, 15, 45
26, 61344, Note_on_c, 15, 29, 93
26, 61438, Note_on_c, 15, 29, 0
26, 62688, Program_c, 15, 48
26, 62880, Control_c, 15, 11, 92
26, 62880, Note_on_c, 15, 29, 78
26, 62890, Control_c, 15, 11, 93
26, 62901, Control_c, 15, 11, 94
26, 62912, Control_c, 15, 11, 95
26, 62923, Control_c, 15, 11, 96
26, 62934, Control_c, 15, 11, 97
26, 62945, Control_c, 15, 11, 98
26, 62956, Control_c, 15, 11, 99
26, 62967, Control_c, 15, 11, 100
26, 62978, Control_c, 15, 11, 101
26, 62989, Control_c, 15, 11, 102
26, 63000, Control_c, 15, 11, 103
26, 63011, Control_c, 15, 11, 104
26, 63022, Control_c, 15, 11, 105
26, 63033, Control_c, 15, 11, 106
26, 63044, Control_c, 15, 11, 107
26, 63055, Control_c, 15, 11, 108
26, 63066, Control_c, 15, 11, 109
26, 63077, Control_c, 15, 11, 110
26, 63088, Control_c, 15, 11, 111
26, 63099, Control_c, 15, 11, 112
26, 63110, Control_c, 15, 11, 113
26, 63121, Control_c, 15, 11, 114
26, 63132, Control_c, 15, 11, 115
26, 63143, Control_c, 15, 11, 116
26, 63154, Control_c, 15, 11, 117
26, 63165, Control_c, 15, 11, 118
26, 63176, Control_c, 15, 11, 119
26, 63187, Control_c, 15, 11, 120
26, 63198, Control_c, 15, 11, 121
26, 63209, Control_c, 15, 11, 122
26, 63220, Control_c, 15, 11, 123
26, 63231, Control_c, 15, 11, 124
26, 63242, Control_c, 15, 11, 125
26, 63253, Control_c, 15, 11, 126
26, 63264, Control_c, 15, 11, 127
26, 63358, Note_on_c, 15, 29, 0
26, 63840, Control_c, 15, 11, 127
26, 63840, Note_on_c, 15, 36, 48
26, 63845, Control_c, 15, 11, 126
26, 63850, Control_c, 15, 11, 125
26, 63856, Control_c, 15, 11, 124
26, 63861, Control_c, 15, 11, 123
26, 63867, Control_c, 15, 11, 122
26, 63872, Control_c, 15, 11, 121
26, 63878, Control_c, 15, 11, 120
26, 63883, Control_c, 15, 11, 119
26, 63889, Control_c, 15, 11, 118
26, 63894, Control_c, 15, 11, 117
26, 63900, Control_c, 15, 11, 116
26, 63905, Control_c, 15, 11, 115
26, 63911, Control_c, 15, 11, 114
26, 63916, Control_c, 15, 11, 113
26, 63922, Control_c, 15, 11, 112
26, 63927, Control_c, 15, 11, 111
26, 63933, Control_c, 15, 11, 110
26, 63938, Control_c, 15, 11, 109
26, 63944, Control_c, 15, 11, 108
26, 63949, Control_c, 15, 11, 107
26, 63955, Control_c, 15, 11, 106
26, 63960, Control_c, 15, 11, 105
26, 63966, Control_c, 15, 11, 104
26, 63971, Control_c, 15, 11, 103
26, 63977, Control_c, 15, 11, 102
26, 63982, Control_c, 15, 11, 101
26, 63988, Control_c, 15, 11, 100
26, 63993, Control_c, 15, 11, 99
26, 63999, Control_c, 15, 11, 98
26, 64004, Control_c, 15, 11, 97
26, 64010, Control_c, 15, 11, 96
26, 64015, Control_c, 15, 11, 95
26, 64021, Control_c, 15, 11, 94
26, 64026, Control_c, 15, 11, 93
26, 64032, Note_on_c, 15, 36, 0
26, 64032, Control_c, 15, 11, 92
26, 64032, Note_on_c, 15, 29, 50
26, 64126, Note_on_c, 15, 29, 0
26, 64224, Control_c, 15, 11, 127
26, 64608, Program_c, 15, 45
26, 64608, Note_on_c, 15, 36, 75
26, 64702, Note_on_c, 15, 36, 0
26, 64800, Note_on_c, 15, 29, 94
26, 64894, Note_on_c, 15, 29, 0
26, 64992, Note_on_c, 15, 36, 73
26, 65086, Note_on_c, 15, 36, 0
26, 65184, Note_on_c, 15, 29, 88
26, 65278, Note_on_c, 15, 29, 0
26, 67296, Program_c, 15, 48
26, 68064, Note_on_c, 15, 29, 25
26, 68832, Note_on_c, 15, 29, 0
26, 68832, Note_on_c, 15, 28, 33
26, 69600, Note_on_c, 15, 28, 0
26, 69600, Control_c, 15, 11, 45
26, 69600, Note_on_c, 15, 36, 92
26, 69628, Control_c, 15, 11, 46
26, 69656, Control_c, 15, 11, 47
26, 69684, Control_c, 15, 11, 48
26, 69712, Control_c, 15, 11, 49
26, 69740, Control_c, 15, 11, 50
26, 69768, Control_c, 15, 11, 51
26, 69796, Control_c, 15, 11, 52
26, 69824, Control_c, 15, 11, 53
26, 69852, Control_c, 15, 11, 54
26, 69880, Control_c, 15, 11, 55
26, 69909, Control_c, 15, 11, 56
26, 69937, Control_c, 15, 11, 57
26, 69965, Control_c, 15, 11, 58
26, 69993, Control_c, 15, 11, 59
26, 70021, Control_c, 15, 11, 60
26, 70049, Control_c, 15, 11, 61
26, 70077, Control_c, 15, 11, 62
26, 70105, Control_c, 15, 11, 63
26, 70133, Control_c, 15, 11, 64
26, 70161, Control_c, 15, 11, 65
26, 70190, Control_c, 15, 11, 66
26, 70218, Control_c, 15, 11, 67
26, 70246, Control_c, 15, 11, 68
26, 70274, Control_c, 15, 11, 69
26, 70302, Control_c, 15, 11, 70
26, 70330, Control_c, 15, 11, 71
26, 70358, Control_c, 15, 11, 72
26, 70368, Note_on_c, 15, 36, 0
26, 70368, Note_on_c, 15, 36, 97
26, 70386, Control_c, 15, 11, 73
26, 70414, Control_c, 15, 11, 74
26, 70442, Control_c, 15, 11, 75
26, 70471, Control_c, 15, 11, 76
26, 70499, Control_c, 15, 11, 77
26, 70527, Control_c, 15, 11, 78
26, 70555, Control_c, 15, 11, 79
26, 70583, Control_c, 15, 11, 80
26, 70611, Control_c, 15, 11, 81
26, 70639, Control_c, 15, 11, 82
26, 70667, Control_c, 15, 11, 83
26, 70695, Control_c, 15, 11, 84
26, 70723, Control_c, 15, 11, 85
26, 70751, Control_c, 15, 11, 86
26, 70780, Control_c, 15, 11, 87
26, 70808, Control_c, 15, 11, 88
26, 70836, Control_c, 15, 11, 89
26, 70864, Control_c, 15, 11, 90
26, 70892, Control_c, 15, 11, 91
26, 70920, Control_c, 15, 11, 92
26, 70948, Control_c, 15, 11, 93
26, 70976, Control_c, 15, 11, 94
26, 71004, Control_c, 15, 11, 95
26, 71032, Control_c, 15, 11, 96
26, 71061, Control_c, 15, 11, 97
26, 71089, Control_c, 15, 11, 98
26, 71117, Control_c, 15, 11, 99
26, 71136, Note_on_c, 15, 36, 0
26, 71136, Note_on_c, 15, 36, 89
26, 71145, Control_c, 15, 11, 100
26, 71173, Control_c, 15, 11, 101
26, 71201, Control_c, 15, 11, 102
26, 71229, Control_c, 15, 11, 103
26, 71257, Control_c, 15, 11, 104
26, 71285, Control_c, 15, 11, 105
26, 71313, Control_c, 15, 11, 106
26, 71342, Control_c, 15, 11, 107
26, 71370, Control_c, 15, 11, 108
26, 71398, Control_c, 15, 11, 109
26, 71426, Control_c, 15, 11, 110
26, 71454, Control_c, 15, 11, 111
26, 71482, Control_c, 15, 11, 112
26, 71510, Control_c, 15, 11, 113
26, 71538, Control_c, 15, 11, 114
26, 71566, Control_c, 15, 11, 115
26, 71594, Control_c, 15, 11, 116
26, 71623, Control_c, 15, 11, 117
26, 71651, Control_c, 15, 11, 118
26, 71679, Control_c, 15, 11, 119
26, 71707, Control_c, 15, 11, 120
26, 71735, Control_c, 15, 11, 121
26, 71763, Control_c, 15, 11, 122
26, 71791, Control_c, 15, 11, 123
26, 71819, Control_c, 15, 11, 124
26, 71847, Control_c, 15, 11, 125
26, 71875, Control_c, 15, 11, 126
26, 71904, Note_on_c, 15, 36, 0
26, 71904, Control_c, 15, 11, 127
26, 71904, Note_on_c, 15, 34, 93
26, 72064, Note_on_c, 15, 34, 0
26, 73248, Note_on_c, 15, 29, 90
26, 73408, Note_on_c, 15, 29, 0
26, 74400, Note_on_c, 15, 29, 76
26, 74494, Note_on_c, 15, 29, 0
26, 74976, Note_on_c, 15, 29, 79
26, 75070, Note_on_c, 15, 29, 0
26, 75552, Note_on_c, 15, 29, 73
26, 75646, Note_on_c, 15, 29, 0
26, 76128, Note_on_c, 15, 29, 74
26, 76222, Note_on_c, 15, 29, 0
26, 76320, Program_c, 15, 48
26, 76320, Control_c, 15, 11, 75
26, 76320, Note_on_c, 15, 35, 80
26, 76325, Control_c, 15, 11, 76
26, 76331, Control_c, 15, 11, 77
26, 76336, Control_c, 15, 11, 78
26, 76342, Control_c, 15, 11, 79
26, 76347, Control_c, 15, 11, 80
26, 76353, Control_c, 15, 11, 81
26, 76358, Control_c, 15, 11, 82
26, 76364, Control_c, 15, 11, 83
26, 76369, Control_c, 15, 11, 84
26, 76375, Control_c, 15, 11, 85
26, 76380, Control_c, 15, 11, 86
26, 76386, Control_c, 15, 11, 87
26, 76392, Control_c, 15, 11, 88
26, 76397, Control_c, 15, 11, 89
26, 76403, Control_c, 15, 11, 90
26, 76408, Control_c, 15, 11, 91
26, 76414, Control_c, 15, 11, 92
26, 76419, Control_c, 15, 11, 93
26, 76425, Control_c, 15, 11, 94
26, 76430, Control_c, 15, 11, 95
26, 76436, Control_c, 15, 11, 96
26, 76441, Control_c, 15, 11, 97
26, 76447, Control_c, 15, 11, 98
26, 76452, Control_c, 15, 11, 99
26, 76458, Control_c, 15, 11, 100
26, 76464, Control_c, 15, 11, 101
26, 76469, Control_c, 15, 11, 102
26, 76475, Control_c, 15, 11, 103
26, 76480, Control_c, 15, 11, 104
26, 76486, Control_c, 15, 11, 105
26, 76491, Control_c, 15, 11, 106
26, 76497, Control_c, 15, 11, 107
26, 76502, Control_c, 15, 11, 108
26, 76508, Control_c, 15, 11, 109
26, 76512, Note_on_c, 15, 35, 0
26, 76512, Note_on_c, 15, 36, 70
26, 76513, Control_c, 15, 11, 110
26, 76519, Control_c, 15, 11, 111
26, 76524, Control_c, 15, 11, 112
26, 76530, Control_c, 15, 11, 113
26, 76536, Control_c, 15, 11, 114
26, 76541, Control_c, 15, 11, 115
26, 76547, Control_c, 15, 11, 116
26, 76552, Control_c, 15, 11, 117
26, 76558, Control_c, 15, 11, 118
26, 76563, Control_c, 15, 11, 119
26, 76569, Control_c, 15, 11, 120
26, 76574, Control_c, 15, 11, 121
26, 76580, Control_c, 15, 11, 122
26, 76585, Control_c, 15, 11, 123
26, 76591, Control_c, 15, 11, 124
26, 76596, Control_c, 15, 11, 125
26, 76602, Control_c, 15, 11, 126
26, 76608, Control_c, 15, 11, 127
26, 76702, Note_on_c, 15, 36, 0
26, 76704, Note_on_c, 15, 37, 78
26, 76798, Note_on_c, 15, 37, 0
26, 76800, Note_on_c, 15, 40, 79
26, 76894, Note_on_c, 15, 40, 0
26, 76896, Control_c, 15, 11, 75
26, 76896, Note_on_c, 15, 35, 77
26, 76901, Control_c, 15, 11, 76
26, 76907, Control_c, 15, 11, 77
26, 76912, Control_c, 15, 11, 78
26, 76918, Control_c, 15, 11, 79
26, 76923, Control_c, 15, 11, 80
26, 76929, Control_c, 15, 11, 81
26, 76934, Control_c, 15, 11, 82
26, 76940, Control_c, 15, 11, 83
26, 76945, Control_c, 15, 11, 84
26, 76951, Control_c, 15, 11, 85
26, 76956, Control_c, 15, 11, 86
26, 76962, Control_c, 15, 11, 87
26, 76968, Control_c, 15, 11, 88
26, 76973, Control_c, 15, 11, 89
26, 76979, Control_c, 15, 11, 90
26, 76984, Control_c, 15, 11, 91
26, 76990, Control_c, 15, 11, 92
26, 76995, Control_c, 15, 11, 93
26, 77001, Control_c, 15, 11, 94
26, 77006, Control_c, 15, 11, 95
26, 77012, Control_c, 15, 11, 96
26, 77017, Control_c, 15, 11, 97
26, 77023, Control_c, 15, 11, 98
26, 77028, Control_c, 15, 11, 99
26, 77034, Control_c, 15, 11, 100
26, 77040, Control_c, 15, 11, 101
26, 77045, Control_c, 15, 11, 102
26, 77051, Control_c, 15, 11, 103
26, 77056, Control_c, 15, 11, 104
26, 77062, Control_c, 15, 11, 105
26, 77067, Control_c, 15, 11, 106
26, 77073, Control_c, 15, 11, 107
26, 77078, Control_c, 15, 11, 108
26, 77084, Control_c, 15, 11, 109
26, 77088, Note_on_c, 15, 35, 0
26, 77088, Note_on_c, 15, 36, 77
26, 77089, Control_c, 15, 11, 110
26, 77095, Control_c, 15, 11, 111
26, 77100, Control_c, 15, 11, 112
26, 77106, Control_c, 15, 11, 113
26, 77112, Control_c, 15, 11, 114
26, 77117, Control_c, 15, 11, 115
26, 77123, Control_c, 15, 11, 116
26, 77128, Control_c, 15, 11, 117
26, 77134, Control_c, 15, 11, 118
26, 77139, Control_c, 15, 11, 119
26, 77145, Control_c, 15, 11, 120
26, 77150, Control_c, 15, 11, 121
26, 77156, Control_c, 15, 11, 122
26, 77161, Control_c, 15, 11, 123
26, 77167, Control_c, 15, 11, 124
26, 77172, Control_c, 15, 11, 125
26, 77178, Control_c, 15, 11, 126
26, 77184, Control_c, 15, 11, 127
26, 77278, Note_on_c, 15, 36, 0
26, 77280, Note_on_c, 15, 37, 80
26, 77374, Note_on_c, 15, 37, 0
26, 77376, Note_on_c, 15, 40, 70
26, 77470, Note_on_c, 15, 40, 0
26, 77472, Control_c, 15, 11, 92
26, 77472, Note_on_c, 15, 39, 94
26, 77480, Control_c, 15, 11, 93
26, 77488, Control_c, 15, 11, 94
26, 77496, Control_c, 15, 11, 95
26, 77504, Control_c, 15, 11, 96
26, 77513, Control_c, 15, 11, 97
26, 77521, Control_c, 15, 11, 98
26, 77529, Control_c, 15, 11, 99
26, 77537, Control_c, 15, 11, 100
26, 77546, Control_c, 15, 11, 101
26, 77554, Control_c, 15, 11, 102
26, 77562, Control_c, 15, 11, 103
26, 77570, Control_c, 15, 11, 104
26, 77578, Control_c, 15, 11, 105
26, 77587, Control_c, 15, 11, 106
26, 77595, Control_c, 15, 11, 107
26, 77603, Control_c, 15, 11, 108
26, 77611, Control_c, 15, 11, 109
26, 77620, Control_c, 15, 11, 110
26, 77628, Control_c, 15, 11, 111
26, 77636, Control_c, 15, 11, 112
26, 77644, Control_c, 15, 11, 113
26, 77653, Control_c, 15, 11, 114
26, 77661, Control_c, 15, 11, 115
26, 77664, Note_on_c, 15, 39, 0
26, 77664, Note_on_c, 15, 40, 94
26, 77669, Control_c, 15, 11, 116
26, 77677, Control_c, 15, 11, 117
26, 77685, Control_c, 15, 11, 118
26, 77694, Control_c, 15, 11, 119
26, 77702, Control_c, 15, 11, 120
26, 77710, Control_c, 15, 11, 121
26, 77718, Control_c, 15, 11, 122
26, 77727, Control_c, 15, 11, 123
26, 77735, Control_c, 15, 11, 124
26, 77743, Control_c, 15, 11, 125
26, 77751, Control_c, 15, 11, 126
26, 77760, Control_c, 15, 11, 127
26, 77854, Note_on_c, 15, 40, 0
26, 77856, Note_on_c, 15, 41, 94
26, 77950, Note_on_c, 15, 41, 0
26, 77952, Note_on_c, 15, 45, 90
26, 78046, Note_on_c, 15, 45, 0
26, 78048, Control_c, 15, 11, 92
26, 78048, Note_on_c, 15, 39, 112
26, 78056, Control_c, 15, 11, 93
26, 78064, Control_c, 15, 11, 94
26, 78072, Control_c, 15, 11, 95
26, 78080, Control_c, 15, 11, 96
26, 78089, Control_c, 15, 11, 97
26, 78097, Control_c, 15, 11, 98
26, 78105, Control_c, 15, 11, 99
26, 78113, Control_c, 15, 11, 100
26, 78122, Control_c, 15, 11, 101
26, 78130, Control_c, 15, 11, 102
26, 78138, Control_c, 15, 11, 103
26, 78146, Control_c, 15, 11, 104
26, 78154, Control_c, 15, 11, 105
26, 78163, Control_c, 15, 11, 106
26, 78171, Control_c, 15, 11, 107
26, 78179, Control_c, 15, 11, 108
26, 78187, Control_c, 15, 11, 109
26, 78196, Control_c, 15, 11, 110
26, 78204, Control_c, 15, 11, 111
26, 78212, Control_c, 15, 11, 112
26, 78220, Control_c, 15, 11, 113
26, 78229, Control_c, 15, 11, 114
26, 78237, Control_c, 15, 11, 115
26, 78240, Note_on_c, 15, 39, 0
26, 78240, Note_on_c, 15, 40, 111
26, 78245, Control_c, 15, 11, 116
26, 78253, Control_c, 15, 11, 117
26, 78261, Control_c, 15, 11, 118
26, 78270, Control_c, 15, 11, 119
26, 78278, Control_c, 15, 11, 120
26, 78286, Control_c, 15, 11, 121
26, 78294, Control_c, 15, 11, 122
26, 78303, Control_c, 15, 11, 123
26, 78311, Control_c, 15, 11, 124
26, 78319, Control_c, 15, 11, 125
26, 78327, Control_c, 15, 11, 126
26, 78336, Control_c, 15, 11, 127
26, 78430, Note_on_c, 15, 40, 0
26, 78432, Note_on_c, 15, 41, 107
26, 78526, Note_on_c, 15, 41, 0
26, 78528, Note_on_c, 15, 45, 113
26, 78622, Note_on_c, 15, 45, 0
26, 78624, Control_c, 15, 11, 127
26, 78624, Note_on_c, 15, 34, 108
26, 78632, Control_c, 15, 11, 126
26, 78640, Control_c, 15, 11, 125
26, 78648, Control_c, 15, 11, 124
26, 78656, Control_c, 15, 11, 123
26, 78665, Control_c, 15, 11, 122
26, 78673, Control_c, 15, 11, 121
26, 78681, Control_c, 15, 11, 120
26, 78689, Control_c, 15, 11, 119
26, 78698, Control_c, 15, 11, 118
26, 78706, Control_c, 15, 11, 117
26, 78714, Control_c, 15, 11, 116
26, 78718, Note_on_c, 15, 34, 0
26, 78720, Note_on_c, 15, 36, 109
26, 78722, Control_c, 15, 11, 115
26, 78730, Control_c, 15, 11, 114
26, 78739, Control_c, 15, 11, 113
26, 78747, Control_c, 15, 11, 112
26, 78755, Control_c, 15, 11, 111
26, 78763, Control_c, 15, 11, 110
26, 78772, Control_c, 15, 11, 109
26, 78780, Control_c, 15, 11, 108
26, 78788, Control_c, 15, 11, 107
26, 78796, Control_c, 15, 11, 106
26, 78805, Control_c, 15, 11, 105
26, 78813, Control_c, 15, 11, 104
26, 78821, Control_c, 15, 11, 103
26, 78829, Control_c, 15, 11, 102
26, 78837, Control_c, 15, 11, 101
26, 78846, Control_c, 15, 11, 100
26, 78854, Control_c, 15, 11, 99
26, 78862, Note_on_c, 15, 36, 0
26, 78862, Control_c, 15, 11, 98
26, 78864, Note_on_c, 15, 46, 110
26, 78870, Control_c, 15, 11, 97
26, 78879, Control_c, 15, 11, 96
26, 78887, Control_c, 15, 11, 95
26, 78895, Control_c, 15, 11, 94
26, 78903, Control_c, 15, 11, 93
26, 78910, Note_on_c, 15, 46, 0
26, 78912, Control_c, 15, 11, 92
26, 78912, Note_on_c, 15, 46, 113
26, 78920, Control_c, 15, 11, 93
26, 78928, Control_c, 15, 11, 94
26, 78936, Control_c, 15, 11, 95
26, 78944, Control_c, 15, 11, 96
26, 78953, Control_c, 15, 11, 97
26, 78961, Control_c, 15, 11, 98
26, 78969, Control_c, 15, 11, 99
26, 78977, Control_c, 15, 11, 100
26, 78986, Control_c, 15, 11, 101
26, 78994, Control_c, 15, 11, 102
26, 79002, Control_c, 15, 11, 103
26, 79010, Control_c, 15, 11, 104
26, 79018, Control_c, 15, 11, 105
26, 79027, Control_c, 15, 11, 106
26, 79035, Control_c, 15, 11, 107
26, 79043, Control_c, 15, 11, 108
26, 79051, Control_c, 15, 11, 109
26, 79054, Note_on_c, 15, 46, 0
26, 79056, Note_on_c, 15, 36, 107
26, 79060, Control_c, 15, 11, 110
26, 79068, Control_c, 15, 11, 111
26, 79076, Control_c, 15, 11, 112
26, 79084, Control_c, 15, 11, 113
26, 79093, Control_c, 15, 11, 114
26, 79101, Control_c, 15, 11, 115
26, 79109, Control_c, 15, 11, 116
26, 79117, Control_c, 15, 11, 117
26, 79125, Control_c, 15, 11, 118
26, 79134, Control_c, 15, 11, 119
26, 79142, Control_c, 15, 11, 120
26, 79150, Control_c, 15, 11, 121
26, 79158, Control_c, 15, 11, 122
26, 79167, Control_c, 15, 11, 123
26, 79175, Control_c, 15, 11, 124
26, 79183, Control_c, 15, 11, 125
26, 79191, Control_c, 15, 11, 126
26, 79198, Note_on_c, 15, 36, 0
26, 79200, Control_c, 15, 11, 127
26, 79200, Control_c, 15, 11, 127
26, 79200, Note_on_c, 15, 34, 106
26, 79208, Control_c, 15, 11, 126
26, 79216, Control_c, 15, 11, 125
26, 79224, Control_c, 15, 11, 124
26, 79232, Control_c, 15, 11, 123
26, 79241, Control_c, 15, 11, 122
26, 79249, Control_c, 15, 11, 121
26, 79257, Control_c, 15, 11, 120
26, 79265, Control_c, 15, 11, 119
26, 79274, Control_c, 15, 11, 118
26, 79282, Control_c, 15, 11, 117
26, 79290, Control_c, 15, 11, 116
26, 79294, Note_on_c, 15, 34, 0
26, 79296, Note_on_c, 15, 36, 105
26, 79298, Control_c, 15, 11, 115
26, 79306, Control_c, 15, 11, 114
26, 79315, Control_c, 15, 11, 113
26, 79323, Control_c, 15, 11, 112
26, 79331, Control_c, 15, 11, 111
26, 79339, Control_c, 15, 11, 110
26, 79348, Control_c, 15, 11, 109
26, 79356, Control_c, 15, 11, 108
26, 79364, Control_c, 15, 11, 107
26, 79372, Control_c, 15, 11, 106
26, 79381, Control_c, 15, 11, 105
26, 79389, Control_c, 15, 11, 104
26, 79397, Control_c, 15, 11, 103
26, 79405, Control_c, 15, 11, 102
26, 79413, Control_c, 15, 11, 101
26, 79422, Control_c, 15, 11, 100
26, 79430, Control_c, 15, 11, 99
26, 79438, Note_on_c, 15, 36, 0
26, 79438, Control_c, 15, 11, 98
26, 79440, Note_on_c, 15, 46, 110
26, 79446, Control_c, 15, 11, 97
26, 79455, Control_c, 15, 11, 96
26, 79463, Control_c, 15, 11, 95
26, 79471, Control_c, 15, 11, 94
26, 79479, Control_c, 15, 11, 93
26, 79486, Note_on_c, 15, 46, 0
26, 79488, Control_c, 15, 11, 92
26, 79488, Note_on_c, 15, 46, 112
26, 79496, Control_c, 15, 11, 93
26, 79504, Control_c, 15, 11, 94
26, 79512, Control_c, 15, 11, 95
26, 79520, Control_c, 15, 11, 96
26, 79529, Control_c, 15, 11, 97
26, 79537, Control_c, 15, 11, 98
26, 79545, Control_c, 15, 11, 99
26, 79553, Control_c, 15, 11, 100
26, 79562, Control_c, 15, 11, 101
26, 79570, Control_c, 15, 11, 102
26, 79578, Control_c, 15, 11, 103
26, 79586, Control_c, 15, 11, 104
26, 79594, Control_c, 15, 11, 105
26, 79603, Control_c, 15, 11, 106
26, 79611, Control_c, 15, 11, 107
26, 79619, Control_c, 15, 11, 108
26, 79627, Control_c, 15, 11, 109
26, 79630, Note_on_c, 15, 46, 0
26, 79632, Note_on_c, 15, 36, 109
26, 79636, Control_c, 15, 11, 110
26, 79644, Control_c, 15, 11, 111
26, 79652, Control_c, 15, 11, 112
26, 79660, Control_c, 15, 11, 113
26, 79669, Control_c, 15, 11, 114
26, 79677, Control_c, 15, 11, 115
26, 79685, Control_c, 15, 11, 116
26, 79693, Control_c, 15, 11, 117
26, 79701, Control_c, 15, 11, 118
26, 79710, Control_c, 15, 11, 119
26, 79718, Control_c, 15, 11, 120
26, 79726, Control_c, 15, 11, 121
26, 79734, Control_c, 15, 11, 122
26, 79743, Control_c, 15, 11, 123
26, 79751, Control_c, 15, 11, 124
26, 79759, Control_c, 15, 11, 125
26, 79767, Control_c, 15, 11, 126
26, 79774, Note_on_c, 15, 36, 0
26, 79776, Control_c, 15, 11, 127
26, 79776, Control_c, 15, 11, 127
26, 79776, Note_on_c, 15, 34, 111
26, 79784, Control_c, 15, 11, 126
26, 79792, Control_c, 15, 11, 125
26, 79800, Control_c, 15, 11, 124
26, 79808, Control_c, 15, 11, 123
26, 79817, Control_c, 15, 11, 122
26, 79825, Control_c, 15, 11, 121
26, 79833, Control_c, 15, 11, 120
26, 79841, Control_c, 15, 11, 119
26, 79850, Control_c, 15, 11, 118
26, 79858, Control_c, 15, 11, 117
26, 79866, Control_c, 15, 11, 116
26, 79870, Note_on_c, 15, 34, 0
26, 79872, Note_on_c, 15, 36, 111
26, 79874, Control_c, 15, 11, 115
26, 79882, Control_c, 15, 11, 114
26, 79891, Control_c, 15, 11, 113
26, 79899, Control_c, 15, 11, 112
26, 79907, Control_c, 15, 11, 111
26, 79915, Control_c, 15, 11, 110
26, 79924, Control_c, 15, 11, 109
26, 79932, Control_c, 15, 11, 108
26, 79940, Control_c, 15, 11, 107
26, 79948, Control_c, 15, 11, 106
26, 79957, Control_c, 15, 11, 105
26, 79965, Control_c, 15, 11, 104
26, 79973, Control_c, 15, 11, 103
26, 79981, Control_c, 15, 11, 102
26, 79989, Control_c, 15, 11, 101
26, 79998, Control_c, 15, 11, 100
26, 80006, Control_c, 15, 11, 99
26, 80014, Note_on_c, 15, 36, 0
26, 80014, Control_c, 15, 11, 98
26, 80016, Note_on_c, 15, 46, 105
26, 80022, Control_c, 15, 11, 97
26, 80031, Control_c, 15, 11, 96
26, 80039, Control_c, 15, 11, 95
26, 80047, Control_c, 15, 11, 94
26, 80055, Control_c, 15, 11, 93
26, 80062, Note_on_c, 15, 46, 0
26, 80064, Control_c, 15, 11, 92
26, 80064, Note_on_c, 15, 46, 107
26, 80072, Control_c, 15, 11, 93
26, 80080, Control_c, 15, 11, 94
26, 80088, Control_c, 15, 11, 95
26, 80096, Control_c, 15, 11, 96
26, 80105, Control_c, 15, 11, 97
26, 80113, Control_c, 15, 11, 98
26, 80121, Control_c, 15, 11, 99
26, 80129, Control_c, 15, 11, 100
26, 80138, Control_c, 15, 11, 101
26, 80146, Control_c, 15, 11, 102
26, 80154, Control_c, 15, 11, 103
26, 80162, Control_c, 15, 11, 104
26, 80170, Control_c, 15, 11, 105
26, 80179, Control_c, 15, 11, 106
26, 80187, Control_c, 15, 11, 107
26, 80195, Control_c, 15, 11, 108
26, 80203, Control_c, 15, 11, 109
26, 80206, Note_on_c, 15, 46, 0
26, 80208, Note_on_c, 15, 36, 107
26, 80212, Control_c, 15, 11, 110
26, 80220, Control_c, 15, 11, 111
26, 80228, Control_c, 15, 11, 112
26, 80236, Control_c, 15, 11, 113
26, 80245, Control_c, 15, 11, 114
26, 80253, Control_c, 15, 11, 115
26, 80261, Control_c, 15, 11, 116
26, 80269, Control_c, 15, 11, 117
26, 80277, Control_c, 15, 11, 118
26, 80286, Control_c, 15, 11, 119
26, 80294, Control_c, 15, 11, 120
26, 80302, Control_c, 15, 11, 121
26, 80310, Control_c, 15, 11, 122
26, 80319, Control_c, 15, 11, 123
26, 80327, Control_c, 15, 11, 124
26, 80335, Control_c, 15, 11, 125
26, 80343, Control_c, 15, 11, 126
26, 80350, Note_on_c, 15, 36, 0
26, 80352, Control_c, 15, 11, 127
26, 80352, Control_c, 15, 11, 127
26, 80352, Note_on_c, 15, 34, 113
26, 80360, Control_c, 15, 11, 126
26, 80368, Control_c, 15, 11, 125
26, 80376, Control_c, 15, 11, 124
26, 80384, Control_c, 15, 11, 123
26, 80393, Control_c, 15, 11, 122
26, 80401, Control_c, 15, 11, 121
26, 80409, Control_c, 15, 11, 120
26, 80417, Control_c, 15, 11, 119
26, 80426, Control_c, 15, 11, 118
26, 80434, Control_c, 15, 11, 117
26, 80442, Control_c, 15, 11, 116
26, 80446, Note_on_c, 15, 34, 0
26, 80448, Note_on_c, 15, 36, 110
26, 80450, Control_c, 15, 11, 115
26, 80458, Control_c, 15, 11, 114
26, 80467, Control_c, 15, 11, 113
26, 80475, Control_c, 15, 11, 112
26, 80483, Control_c, 15, 11, 111
26, 80491, Control_c, 15, 11, 110
26, 80500, Control_c, 15, 11, 109
26, 80508, Control_c, 15, 11, 108
26, 80516, Control_c, 15, 11, 107
26, 80524, Control_c, 15, 11, 106
26, 80533, Control_c, 15, 11, 105
26, 80541, Control_c, 15, 11, 104
26, 80549, Control_c, 15, 11, 103
26, 80557, Control_c, 15, 11, 102
26, 80565, Control_c, 15, 11, 101
26, 80574, Control_c, 15, 11, 100
26, 80582, Control_c, 15, 11, 99
26, 80590, Note_on_c, 15, 36, 0
26, 80590, Control_c, 15, 11, 98
26, 80592, Note_on_c, 15, 46, 108
26, 80598, Control_c, 15, 11, 97
26, 80607, Control_c, 15, 11, 96
26, 80615, Control_c, 15, 11, 95
26, 80623, Control_c, 15, 11, 94
26, 80631, Control_c, 15, 11, 93
26, 80638, Note_on_c, 15, 46, 0
26, 80640, Control_c, 15, 11, 92
26, 80640, Note_on_c, 15, 46, 107
26, 80648, Control_c, 15, 11, 93
26, 80656, Control_c, 15, 11, 94
26, 80664, Control_c, 15, 11, 95
26, 80672, Control_c, 15, 11, 96
26, 80681, Control_c, 15, 11, 97
26, 80689, Control_c, 15, 11, 98
26, 80697, Control_c, 15, 11, 99
26, 80705, Control_c, 15, 11, 100
26, 80714, Control_c, 15, 11, 101
26, 80722, Control_c, 15, 11, 102
26, 80730, Control_c, 15, 11, 103
26, 80738, Control_c, 15, 11, 104
26, 80746, Control_c, 15, 11, 105
26, 80755, Control_c, 15, 11, 106
26, 80763, Control_c, 15, 11, 107
26, 80771, Control_c, 15, 11, 108
26, 80779, Control_c, 15, 11, 109
26, 80782, Note_on_c, 15, 46, 0
26, 80784, Note_on_c, 15, 36, 103
26, 80788, Control_c, 15, 11, 110
26, 80796, Control_c, 15, 11, 111
26, 80804, Control_c, 15, 11, 112
26, 80812, Control_c, 15, 11, 113
26, 80821, Control_c, 15, 11, 114
26, 80829, Control_c, 15, 11, 115
26, 80837, Control_c, 15, 11, 116
26, 80845, Control_c, 15, 11, 117
26, 80853, Control_c, 15, 11, 118
26, 80862, Control_c, 15, 11, 119
26, 80870, Control_c, 15, 11, 120
26, 80878, Control_c, 15, 11, 121
26, 80886, Control_c, 15, 11, 122
26, 80895, Control_c, 15, 11, 123
26, 80903, Control_c, 15, 11, 124
26, 80911, Control_c, 15, 11, 125
26, 80919, Control_c, 15, 11, 126
26, 80926, Note_on_c, 15, 36, 0
26, 80928, Control_c, 15, 11, 127
26, 80928, Note_on_c, 15, 34, 92
26, 81022, Note_on_c, 15, 34, 0
26, 81024, Note_on_c, 15, 36, 97
26, 81166, Note_on_c, 15, 36, 0
26, 81168, Note_on_c, 15, 46, 95
26, 81214, Note_on_c, 15, 46, 0
26, 81216, Note_on_c, 15, 46, 92
26, 81358, Note_on_c, 15, 46, 0
26, 81360, Note_on_c, 15, 36, 94
26, 81502, Note_on_c, 15, 36, 0
26, 81504, Note_on_c, 15, 34, 91
26, 81598, Note_on_c, 15, 34, 0
26, 81600, Note_on_c, 15, 36, 85
26, 81742, Note_on_c, 15, 36, 0
26, 81744, Note_on_c, 15, 46, 80
26, 81790, Note_on_c, 15, 46, 0
26, 81792, Note_on_c, 15, 46, 79
26, 81934, Note_on_c, 15, 46, 0
26, 81936, Note_on_c, 15, 36, 76
26, 82078, Note_on_c, 15, 36, 0
26, 82080, Note_on_c, 15, 34, 70
26, 82174, Note_on_c, 15, 34, 0
26, 82176, Note_on_c, 15, 36, 71
26, 82318, Note_on_c, 15, 36, 0
26, 82320, Note_on_c, 15, 46, 70
26, 82366, Note_on_c, 15, 46, 0
26, 82368, Note_on_c, 15, 46, 63
26, 82510, Note_on_c, 15, 46, 0
26, 82512, Note_on_c, 15, 36, 64
26, 82654, Note_on_c, 15, 36, 0
26, 82656, Note_on_c, 15, 34, 56
26, 82750, Note_on_c, 15, 34, 0
26, 82752, Note_on_c, 15, 36, 58
26, 82894, Note_on_c, 15, 36, 0
26, 82896, Note_on_c, 15, 46, 54
26, 82942, Note_on_c, 15, 46, 0
26, 82944, Note_on_c, 15, 46, 56
26, 83086, Note_on_c, 15, 46, 0
26, 83088, Note_on_c, 15, 36, 49
26, 83230, Note_on_c, 15, 36, 0
26, 83232, Note_on_c, 15, 33, 42
26, 83326, Note_on_c, 15, 33, 0
26, 83328, Note_on_c, 15, 35, 43
26, 83470, Note_on_c, 15, 35, 0
26, 83472, Note_on_c, 15, 45, 46
26, 83518, Note_on_c, 15, 45, 0
26, 83520, Note_on_c, 15, 45, 41
26, 83662, Note_on_c, 15, 45, 0
26, 83664, Note_on_c, 15, 35, 48
26, 83806, Note_on_c, 15, 35, 0
26, 83808, Note_on_c, 15, 33, 43
26, 83902, Note_on_c, 15, 33, 0
26, 83904, Note_on_c, 15, 35, 48
26, 84046, Note_on_c, 15, 35, 0
26, 84048, Note_on_c, 15, 45, 40
26, 84094, Note_on_c, 15, 45, 0
26, 84096, Note_on_c, 15, 45, 48
26, 84238, Note_on_c, 15, 45, 0
26, 84240, Note_on_c, 15, 35, 43
26, 84382, Note_on_c, 15, 35, 0
26, 84384, Note_on_c, 15, 32, 40
26, 84478, Note_on_c, 15, 32, 0
26, 84480, Note_on_c, 15, 34, 45
26, 84622, Note_on_c, 15, 34, 0
26, 84624, Note_on_c, 15, 44, 50
26, 84670, Note_on_c, 15, 44, 0
26, 84672, Note_on_c, 15, 44, 44
26, 84814, Note_on_c, 15, 44, 0
26, 84816, Note_on_c, 15, 34, 40
26, 84958, Note_on_c, 15, 34, 0
26, 84960, Note_on_c, 15, 32, 42
26, 85054, Note_on_c, 15, 32, 0
26, 85056, Note_on_c, 15, 34, 42
26, 85198, Note_on_c, 15, 34, 0
26, 85200, Note_on_c, 15, 44, 50
26, 85246, Note_on_c, 15, 44, 0
26, 85248, Note_on_c, 15, 44, 50
26, 85390, Note_on_c, 15, 44, 0
26, 85392, Note_on_c, 15, 34, 42
26, 85534, Note_on_c, 15, 34, 0
26, 85536, Note_on_c, 15, 32, 42
26, 85630, Note_on_c, 15, 32, 0
26, 85632, Note_on_c, 15, 34, 43
26, 85774, Note_on_c, 15, 34, 0
26, 85776, Note_on_c, 15, 44, 42
26, 85822, Note_on_c, 15, 44, 0
26, 85824, Note_on_c, 15, 44, 49
26, 85966, Note_on_c, 15, 44, 0
26, 85968, Note_on_c, 15, 34, 41
26, 86110, Note_on_c, 15, 34, 0
26, 86112, Note_on_c, 15, 32, 41
26, 86206, Note_on_c, 15, 32, 0
26, 86208, Note_on_c, 15, 34, 43
26, 86350, Note_on_c, 15, 34, 0
26, 86352, Note_on_c, 15, 44, 50
26, 86398, Note_on_c, 15, 44, 0
26, 86400, Note_on_c, 15, 44, 44
26, 86542, Note_on_c, 15, 44, 0
26, 86544, Note_on_c, 15, 34, 44
26, 86686, Note_on_c, 15, 34, 0
26, 86688, Note_on_c, 15, 32, 50
26, 86782, Note_on_c, 15, 32, 0
26, 86784, Note_on_c, 15, 34, 42
26, 86926, Note_on_c, 15, 34, 0
26, 86928, Note_on_c, 15, 44, 48
26, 86974, Note_on_c, 15, 44, 0
26, 86976, Note_on_c, 15, 44, 43
26, 87118, Note_on_c, 15, 44, 0
26, 87120, Note_on_c, 15, 34, 46
26, 87262, Note_on_c, 15, 34, 0
26, 87264, Note_on_c, 15, 32, 49
26, 87358, Note_on_c, 15, 32, 0
26, 87360, Note_on_c, 15, 34, 46
26, 87502, Note_on_c, 15, 34, 0
26, 87504, Note_on_c, 15, 44, 40
26, 87550, Note_on_c, 15, 44, 0
26, 87552, Note_on_c, 15, 44, 48
26, 87694, Note_on_c, 15, 44, 0
26, 87696, Note_on_c, 15, 34, 45
26, 87838, Note_on_c, 15, 34, 0
26, 87840, Note_on_c, 15, 32, 43
26, 87934, Note_on_c, 15, 32, 0
26, 87936, Note_on_c, 15, 34, 46
26, 88078, Note_on_c, 15, 34, 0
26, 88080, Note_on_c, 15, 44, 37
26, 88126, Note_on_c, 15, 44, 0
26, 88128, Note_on_c, 15, 44, 42
26, 88270, Note_on_c, 15, 44, 0
26, 88272, Note_on_c, 15, 34, 40
26, 88414, Note_on_c, 15, 34, 0
26, 88416, Note_on_c, 15, 30, 35
26, 88510, Note_on_c, 15, 30, 0
26, 88512, Note_on_c, 15, 34, 44
26, 88654, Note_on_c, 15, 34, 0
26, 88656, Note_on_c, 15, 42, 36
26, 88702, Note_on_c, 15, 42, 0
26, 88704, Note_on_c, 15, 42, 44
26, 88846, Note_on_c, 15, 42, 0
26, 88848, Note_on_c, 15, 34, 37
26, 88990, Note_on_c, 15, 34, 0
26, 88992, Note_on_c, 15, 29, 41
26, 89086, Note_on_c, 15, 29, 0
26, 89088, Note_on_c, 15, 34, 41
26, 89230, Note_on_c, 15, 34, 0
26, 89232, Note_on_c, 15, 42, 31
26, 89278, Note_on_c, 15, 42, 0
26, 89280, Note_on_c, 15, 42, 33
26, 89422, Note_on_c, 15, 42, 0
26, 89424, Note_on_c, 15, 34, 35
26, 89566, Note_on_c, 15, 34, 0
26, 89568, Note_on_c, 15, 28, 31
26, 91824, Note_on_c, 15, 28, 0
26, 94176, Control_c, 15, 11, 92
26, 94176, Note_on_c, 15, 27, 43
26, 94186, Control_c, 15, 11, 93
26, 94197, Control_c, 15, 11, 94
26, 94208, Control_c, 15, 11, 95
26, 94219, Control_c, 15, 11, 96
26, 94230, Control_c, 15, 11, 97
26, 94241, Control_c, 15, 11, 98
26, 94252, Control_c, 15, 11, 99
26, 94263, Control_c, 15, 11, 100
26, 94274, Control_c, 15, 11, 101
26, 94285, Control_c, 15, 11, 102
26, 94296, Control_c, 15, 11, 103
26, 94307, Control_c, 15, 11, 104
26, 94318, Control_c, 15, 11, 105
26, 94329, Control_c, 15, 11, 106
26, 94340, Control_c, 15, 11, 107
26, 94351, Control_c, 15, 11, 108
26, 94362, Control_c, 15, 11, 109
26, 94373, Control_c, 15, 11, 110
26, 94384, Control_c, 15, 11, 111
26, 94395, Control_c, 15, 11, 112
26, 94406, Control_c, 15, 11, 113
26, 94417, Control_c, 15, 11, 114
26, 94428, Control_c, 15, 11, 115
26, 94439, Control_c, 15, 11, 116
26, 94450, Control_c, 15, 11, 117
26, 94461, Control_c, 15, 11, 118
26, 94472, Control_c, 15, 11, 119
26, 94483, Control_c, 15, 11, 120
26, 94494, Control_c, 15, 11, 121
26, 94505, Control_c, 15, 11, 122
26, 94516, Control_c, 15, 11, 123
26, 94527, Control_c, 15, 11, 124
26, 94538, Control_c, 15, 11, 125
26, 94549, Control_c, 15, 11, 126
26, 94560, Note_on_c, 15, 27, 0
26, 94560, Control_c, 15, 11, 127
26, 94560, Control_c, 15, 11, 127
26, 94560, Note_on_c, 15, 33, 27
26, 94570, Control_c, 15, 11, 126
26, 94581, Control_c, 15, 11, 125
26, 94592, Control_c, 15, 11, 124
26, 94603, Control_c, 15, 11, 123
26, 94614, Control_c, 15, 11, 122
26, 94625, Control_c, 15, 11, 121
26, 94636, Control_c, 15, 11, 120
26, 94647, Control_c, 15, 11, 119
26, 94658, Control_c, 15, 11, 118
26, 94669, Control_c, 15, 11, 117
26, 94680, Control_c, 15, 11, 116
26, 94691, Control_c, 15, 11, 115
26, 94702, Control_c, 15, 11, 114
26, 94713, Control_c, 15, 11, 113
26, 94724, Control_c, 15, 11, 112
26, 94735, Control_c, 15, 11, 111
26, 94746, Control_c, 15, 11, 110
26, 94757, Control_c, 15, 11, 109
26, 94768, Control_c, 15, 11, 108
26, 94779, Control_c, 15, 11, 107
26, 94790, Control_c, 15, 11, 106
26, 94801, Control_c, 15, 11, 105
26, 94812, Control_c, 15, 11, 104
26, 94823, Control_c, 15, 11, 103
26, 94834, Control_c, 15, 11, 102
26, 94845, Control_c, 15, 11, 101
26, 94856, Control_c, 15, 11, 100
26, 94867, Control_c, 15, 11, 99
26, 94878, Control_c, 15, 11, 98
26, 94889, Control_c, 15, 11, 97
26, 94896, Note_on_c, 15, 33, 0
26, 94900, Control_c, 15, 11, 96
26, 94911, Control_c, 15, 11, 95
26, 94922, Control_c, 15, 11, 94
26, 94933, Control_c, 15, 11, 93
26, 94944, Control_c, 15, 11, 92
26, 94944, Control_c, 15, 11, 127
26, 94944, Note_on_c, 15, 27, 34
26, 94954, Control_c, 15, 11, 126
26, 94965, Control_c, 15, 11, 125
26, 94976, Control_c, 15, 11, 124
26, 94987, Control_c, 15, 11, 123
26, 94998, Control_c, 15, 11, 122
26, 95009, Control_c, 15, 11, 121
26, 95020, Control_c, 15, 11, 120
26, 95031, Control_c, 15, 11, 119
26, 95042, Control_c, 15, 11, 118
26, 95053, Control_c, 15, 11, 117
26, 95064, Control_c, 15, 11, 116
26, 95075, Control_c, 15, 11, 115
26, 95086, Control_c, 15, 11, 114
26, 95097, Control_c, 15, 11, 113
26, 95108, Control_c, 15, 11, 112
26, 95119, Control_c, 15, 11, 111
26, 95130, Control_c, 15, 11, 110
26, 95141, Control_c, 15, 11, 109
26, 95152, Control_c, 15, 11, 108
26, 95163, Control_c, 15, 11, 107
26, 95174, Control_c, 15, 11, 106
26, 95185, Control_c, 15, 11, 105
26, 95196, Control_c, 15, 11, 104
26, 95207, Control_c, 15, 11, 103
26, 95218, Control_c, 15, 11, 102
26, 95229, Control_c, 15, 11, 101
26, 95240, Control_c, 15, 11, 100
26, 95251, Control_c, 15, 11, 99
26, 95262, Control_c, 15, 11, 98
26, 95273, Control_c, 15, 11, 97
26, 95284, Control_c, 15, 11, 96
26, 95295, Control_c, 15, 11, 95
26, 95306, Control_c, 15, 11, 94
26, 95317, Control_c, 15, 11, 93
26, 95328, Note_on_c, 15, 27, 0
26, 95328, Control_c, 15, 11, 92
26, 95328, Note_on_c, 15, 33, 25
26, 95712, Control_c, 15, 11, 92
26, 95733, Control_c, 15, 11, 91
26, 95754, Control_c, 15, 11, 90
26, 95775, Control_c, 15, 11, 89
26, 95796, Control_c, 15, 11, 88
26, 95817, Control_c, 15, 11, 87
26, 95838, Control_c, 15, 11, 86
26, 95859, Control_c, 15, 11, 85
26, 95880, Control_c, 15, 11, 84
26, 95901, Control_c, 15, 11, 83
26, 95922, Control_c, 15, 11, 82
26, 95943, Control_c, 15, 11, 81
26, 95964, Control_c, 15, 11, 80
26, 95985, Control_c, 15, 11, 79
26, 96006, Control_c, 15, 11, 78
26, 96027, Control_c, 15, 11, 77
26, 96048, Control_c, 15, 11, 76
26, 96069, Control_c, 15, 11, 75
26, 96090, Control_c, 15, 11, 74
26, 96111, Control_c, 15, 11, 73
26, 96132, Control_c, 15, 11, 72
26, 96153, Control_c, 15, 11, 71
26, 96174, Control_c, 15, 11, 70
26, 96195, Control_c, 15, 11, 69
26, 96216, Control_c, 15, 11, 68
26, 96237, Control_c, 15, 11, 67
26, 96258, Control_c, 15, 11, 66
26, 96279, Control_c, 15, 11, 65
26, 96300, Control_c, 15, 11, 64
26, 96321, Control_c, 15, 11, 63
26, 96342, Control_c, 15, 11, 62
26, 96363, Control_c, 15, 11, 61
26, 96384, Control_c, 15, 11, 60
26, 96432, Note_on_c, 15, 33, 0
26, 96480, Control_c, 15, 11, 127
26, 96480, Note_on_c, 15, 32, 26
26, 101088, Note_on_c, 15, 32, 0
26, 101088, Note_on_c, 15, 32, 31
26, 103392, Note_on_c, 15, 32, 0
26, 103392, Control_c, 15, 11, 127
26, 103392, Note_on_c, 15, 32, 30
26, 103424, Control_c, 15, 11, 126
26, 103457, Control_c, 15, 11, 125
26, 103490, Control_c, 15, 11, 124
26, 103523, Control_c, 15, 11, 123
26, 103556, Control_c, 15, 11, 122
26, 103589, Control_c, 15, 11, 121
26, 103622, Control_c, 15, 11, 120
26, 103655, Control_c, 15, 11, 119
26, 103688, Control_c, 15, 11, 118
26, 103721, Control_c, 15, 11, 117
26, 103754, Control_c, 15, 11, 116
26, 103786, Control_c, 15, 11, 115
26, 103819, Control_c, 15, 11, 114
26, 103852, Control_c, 15, 11, 113
26, 103885, Control_c, 15, 11, 112
26, 103918, Control_c, 15, 11, 111
26, 103951, Control_c, 15, 11, 110
26, 103984, Control_c, 15, 11, 109
26, 104017, Control_c, 15, 11, 108
26, 104050, Control_c, 15, 11, 107
26, 104083, Control_c, 15, 11, 106
26, 104116, Control_c, 15, 11, 105
26, 104149, Control_c, 15, 11, 104
26, 104181, Control_c, 15, 11, 103
26, 104214, Control_c, 15, 11, 102
26, 104247, Control_c, 15, 11, 101
26, 104280, Control_c, 15, 11, 100
26, 104313, Control_c, 15, 11, 99
26, 104346, Control_c, 15, 11, 98
26, 104379, Control_c, 15, 11, 97
26, 104412, Control_c, 15, 11, 96
26, 104445, Control_c, 15, 11, 95
26, 104478, Control_c, 15, 11, 94
26, 104511, Control_c, 15, 11, 93
26, 104544, Control_c, 15, 11, 92
26, 105696, Note_on_c, 15, 32, 0
26, 105696, Control_c, 15, 11, 127
26, 105696, Note_on_c, 15, 32, 24
26, 105728, Control_c, 15, 11, 126
26, 105761, Control_c, 15, 11, 125
26, 105794, Control_c, 15, 11, 124
26, 105827, Control_c, 15, 11, 123
26, 105860, Control_c, 15, 11, 122
26, 105893, Control_c, 15, 11, 121
26, 105926, Control_c, 15, 11, 120
26, 105959, Control_c, 15, 11, 119
26, 105992, Control_c, 15, 11, 118
26, 106025, Control_c, 15, 11, 117
26, 106058, Control_c, 15, 11, 116
26, 106090, Control_c, 15, 11, 115
26, 106123, Control_c, 15, 11, 114
26, 106156, Control_c, 15, 11, 113
26, 106189, Control_c, 15, 11, 112
26, 106222, Control_c, 15, 11, 111
26, 106255, Control_c, 15, 11, 110
26, 106288, Control_c, 15, 11, 109
26, 106321, Control_c, 15, 11, 108
26, 106354, Control_c, 15, 11, 107
26, 106387, Control_c, 15, 11, 106
26, 106420, Control_c, 15, 11, 105
26, 106453, Control_c, 15, 11, 104
26, 106485, Control_c, 15, 11, 103
26, 106518, Control_c, 15, 11, 102
26, 106551, Control_c, 15, 11, 101
26, 106584, Control_c, 15, 11, 100
26, 106617, Control_c, 15, 11, 99
26, 106650, Control_c, 15, 11, 98
26, 106683, Control_c, 15, 11, 97
26, 106716, Control_c, 15, 11, 96
26, 106749, Control_c, 15, 11, 95
26, 106782, Control_c, 15, 11, 94
26, 106815, Control_c, 15, 11, 93
26, 106848, Control_c, 15, 11, 92
26, 108160, Note_on_c, 15, 32, 0
26, 109536, Control_c, 15, 11, 20
26, 109536, Note_on_c, 15, 30, 101
26, 109546, Control_c, 15, 11, 21
26, 109557, Control_c, 15, 11, 22
26, 109568, Control_c, 15, 11, 23
26, 109579, Control_c, 15, 11, 24
26, 109589, Control_c, 15, 11, 25
26, 109600, Control_c, 15, 11, 26
26, 109611, Control_c, 15, 11, 27
26, 109622, Control_c, 15, 11, 28
26, 109632, Control_c, 15, 11, 29
26, 109643, Control_c, 15, 11, 30
26, 109654, Control_c, 15, 11, 31
26, 109665, Control_c, 15, 11, 32
26, 109675, Control_c, 15, 11, 33
26, 109686, Control_c, 15, 11, 34
26, 109697, Control_c, 15, 11, 35
26, 109708, Control_c, 15, 11, 36
26, 109719, Control_c, 15, 11, 37
26, 109729, Control_c, 15, 11, 38
26, 109740, Control_c, 15, 11, 39
26, 109751, Control_c, 15, 11, 40
26, 109762, Control_c, 15, 11, 41
26, 109772, Control_c, 15, 11, 42
26, 109783, Control_c, 15, 11, 43
26, 109792, Note_on_c, 15, 30, 0
26, 109794, Control_c, 15, 11, 44
26, 109805, Control_c, 15, 11, 45
26, 109815, Control_c, 15, 11, 46
26, 109824, Note_on_c, 15, 35, 105
26, 109826, Control_c, 15, 11, 47
26, 109837, Control_c, 15, 11, 48
26, 109848, Control_c, 15, 11, 49
26, 109858, Control_c, 15, 11, 50
26, 109869, Control_c, 15, 11, 51
26, 109880, Control_c, 15, 11, 52
26, 109891, Control_c, 15, 11, 53
26, 109902, Control_c, 15, 11, 54
26, 109912, Control_c, 15, 11, 55
26, 109923, Control_c, 15, 11, 56
26, 109934, Control_c, 15, 11, 57
26, 109945, Control_c, 15, 11, 58
26, 109955, Control_c, 15, 11, 59
26, 109966, Control_c, 15, 11, 60
26, 109977, Control_c, 15, 11, 61
26, 109988, Control_c, 15, 11, 62
26, 109998, Control_c, 15, 11, 63
26, 110009, Control_c, 15, 11, 64
26, 110020, Control_c, 15, 11, 65
26, 110031, Control_c, 15, 11, 66
26, 110042, Control_c, 15, 11, 67
26, 110052, Control_c, 15, 11, 68
26, 110063, Control_c, 15, 11, 69
26, 110074, Control_c, 15, 11, 70
26, 110085, Control_c, 15, 11, 71
26, 110095, Control_c, 15, 11, 72
26, 110106, Control_c, 15, 11, 73
26, 110112, Note_on_c, 15, 35, 0
26, 110112, Note_on_c, 15, 30, 96
26, 110117, Control_c, 15, 11, 74
26, 110128, Control_c, 15, 11, 75
26, 110138, Control_c, 15, 11, 76
26, 110149, Control_c, 15, 11, 77
26, 110160, Control_c, 15, 11, 78
26, 110171, Control_c, 15, 11, 79
26, 110181, Control_c, 15, 11, 80
26, 110192, Control_c, 15, 11, 81
26, 110203, Control_c, 15, 11, 82
26, 110214, Control_c, 15, 11, 83
26, 110225, Control_c, 15, 11, 84
26, 110235, Control_c, 15, 11, 85
26, 110246, Control_c, 15, 11, 86
26, 110257, Control_c, 15, 11, 87
26, 110268, Control_c, 15, 11, 88
26, 110272, Note_on_c, 15, 30, 0
26, 110278, Control_c, 15, 11, 89
26, 110289, Control_c, 15, 11, 90
26, 110300, Control_c, 15, 11, 91
26, 110304, Note_on_c, 15, 37, 99
26, 110311, Control_c, 15, 11, 92
26, 110321, Control_c, 15, 11, 93
26, 110332, Control_c, 15, 11, 94
26, 110343, Control_c, 15, 11, 95
26, 110354, Control_c, 15, 11, 96
26, 110365, Control_c, 15, 11, 97
26, 110375, Control_c, 15, 11, 98
26, 110386, Control_c, 15, 11, 99
26, 110397, Control_c, 15, 11, 100
26, 110408, Control_c, 15, 11, 101
26, 110418, Control_c, 15, 11, 102
26, 110429, Control_c, 15, 11, 103
26, 110440, Control_c, 15, 11, 104
26, 110451, Control_c, 15, 11, 105
26, 110461, Control_c, 15, 11, 106
26, 110472, Control_c, 15, 11, 107
26, 110483, Control_c, 15, 11, 108
26, 110494, Control_c, 15, 11, 109
26, 110504, Control_c, 15, 11, 110
26, 110515, Control_c, 15, 11, 111
26, 110526, Control_c, 15, 11, 112
26, 110537, Control_c, 15, 11, 113
26, 110548, Control_c, 15, 11, 114
26, 110558, Control_c, 15, 11, 115
26, 110569, Control_c, 15, 11, 116
26, 110580, Control_c, 15, 11, 117
26, 110591, Control_c, 15, 11, 118
26, 110601, Control_c, 15, 11, 119
26, 110612, Control_c, 15, 11, 120
26, 110623, Control_c, 15, 11, 121
26, 110634, Control_c, 15, 11, 122
26, 110640, Note_on_c, 15, 37, 0
26, 110644, Control_c, 15, 11, 123
26, 110655, Control_c, 15, 11, 124
26, 110666, Control_c, 15, 11, 125
26, 110677, Control_c, 15, 11, 126
26, 110688, Control_c, 15, 11, 127
26, 110688, Note_on_c, 15, 34, 104
26, 111024, Note_on_c, 15, 34, 0
26, 111072, Control_c, 15, 11, 92
26, 111072, Note_on_c, 15, 37, 101
26, 111082, Control_c, 15, 11, 93
26, 111093, Control_c, 15, 11, 94
26, 111104, Control_c, 15, 11, 95
26, 111115, Control_c, 15, 11, 96
26, 111126, Control_c, 15, 11, 97
26, 111137, Control_c, 15, 11, 98
26, 111148, Control_c, 15, 11, 99
26, 111159, Control_c, 15, 11, 100
26, 111170, Control_c, 15, 11, 101
26, 111181, Control_c, 15, 11, 102
26, 111192, Control_c, 15, 11, 103
26, 111203, Control_c, 15, 11, 104
26, 111214, Control_c, 15, 11, 105
26, 111225, Control_c, 15, 11, 106
26, 111236, Control_c, 15, 11, 107
26, 111247, Control_c, 15, 11, 108
26, 111258, Control_c, 15, 11, 109
26, 111269, Control_c, 15, 11, 110
26, 111280, Control_c, 15, 11, 111
26, 111291, Control_c, 15, 11, 112
26, 111302, Control_c, 15, 11, 113
26, 111313, Control_c, 15, 11, 114
26, 111324, Control_c, 15, 11, 115
26, 111335, Control_c, 15, 11, 116
26, 111346, Control_c, 15, 11, 117
26, 111357, Control_c, 15, 11, 118
26, 111368, Control_c, 15, 11, 119
26, 111379, Control_c, 15, 11, 120
26, 111390, Control_c, 15, 11, 121
26, 111401, Control_c, 15, 11, 122
26, 111408, Note_on_c, 15, 37, 0
26, 111412, Control_c, 15, 11, 123
26, 111423, Control_c, 15, 11, 124
26, 111434, Control_c, 15, 11, 125
26, 111445, Control_c, 15, 11, 126
26, 111456, Control_c, 15, 11, 127
26, 111456, Note_on_c, 15, 34, 96
26, 111792, Note_on_c, 15, 34, 0
26, 111840, Program_c, 15, 45
26, 112032, Note_on_c, 15, 34, 104
26, 112192, Note_on_c, 15, 34, 0
26, 112416, Note_on_c, 15, 34, 100
26, 112576, Note_on_c, 15, 34, 0
26, 112576, End_track
27, 0, Start_track
27, 0, Title_t, "Contrabbassi II"
27, 0, MIDI_port, 0
27, 71, Control_c, 0, 0, 0
27, 72, Control_c, 0, 32, 0
27, 73, Program_c, 0, 45
27, 74, Control_c, 0, 7, 127
27, 75, Control_c, 0, 10, 84
27, 76, Control_c, 0, 91, 64
27, 2304, Program_c, 0, 45
27, 3456, Note_on_c, 0, 35, 26
27, 3616, Note_on_c, 0, 35, 0
27, 4032, Note_on_c, 0, 35, 25
27, 4192, Note_on_c, 0, 35, 0
27, 4608, Note_on_c, 0, 35, 28
27, 4768, Note_on_c, 0, 35, 0
27, 5184, Note_on_c, 0, 35, 34
27, 5344, Note_on_c, 0, 35, 0
27, 5760, Note_on_c, 0, 35, 35
27, 5920, Note_on_c, 0, 35, 0
27, 6336, Note_on_c, 0, 35, 26
27, 6496, Note_on_c, 0, 35, 0
27, 6912, Note_on_c, 0, 35, 32
27, 7072, Note_on_c, 0, 35, 0
27, 7488, Note_on_c, 0, 35, 31
27, 7648, Note_on_c, 0, 35, 0
27, 7648, End_track
28, 0, Start_track
28, 0, Title_t, "by Claude Debussy (1862-1918)"
28, 0, MIDI_port, 0
28, 0, System_exclusive, 5, 126, 127, 9, 1, 247
28, 68, System_exclusive, 8, 67, 16, 76, 0, 0, 126, 0, 247
28, 88, System_exclusive, 8, 67, 16, 76, 2, 1, 86, 0, 247
28, 96, System_exclusive, 8, 67, 16, 76, 2, 1, 90, 1, 247
28, 104, System_exclusive, 8, 67, 16, 76, 8, 0, 20, 127, 247
28, 110, System_exclusive, 8, 67, 16, 76, 8, 1, 20, 127, 247
28, 118, System_exclusive, 8, 67, 16, 76, 8, 2, 20, 127, 247
28, 126, System_exclusive, 8, 67, 16, 76, 8, 3, 20, 127, 247
28, 136, System_exclusive, 8, 67, 16, 76, 8, 4, 20, 127, 247
28, 144, System_exclusive, 8, 67, 16, 76, 8, 5, 20, 127, 247
28, 152, System_exclusive, 8, 67, 16, 76, 8, 6, 20, 127, 247
28, 160, System_exclusive, 8, 67, 16, 76, 8, 7, 20, 127, 247
28, 168, System_exclusive, 8, 67, 16, 76, 8, 8, 20, 127, 247
28, 176, System_exclusive, 8, 67, 16, 76, 8, 9, 20, 127, 247
28, 184, System_exclusive, 8, 67, 16, 76, 8, 10, 20, 127, 247
28, 192, System_exclusive, 8, 67, 16, 76, 8, 11, 20, 127, 247
28, 200, System_exclusive, 8, 67, 16, 76, 8, 12, 20, 127, 247
28, 208, System_exclusive, 8, 67, 16, 76, 8, 13, 20, 127, 247
28, 216, System_exclusive, 8, 67, 16, 76, 8, 14, 20, 127, 247
28, 222, System_exclusive, 8, 67, 16, 76, 8, 15, 20, 127, 247
28, 230, System_exclusive, 8, 67, 16, 76, 2, 1, 12, 0, 247
28, 240, System_exclusive, 9, 67, 16, 76, 2, 1, 64, 3, 0, 247
28, 248, System_exclusive, 8, 67, 16, 76, 2, 1, 86, 64, 247
28, 248, End_track
29, 0, Start_track
29, 0, Title_t, "Copyright © 2005 by Dario Galimberti"
29, 0, MIDI_port, 0
29, 0, End_track
0, 0, End_of_file
