0, 0, Header, 1, 23, 256
1, 0, Start_track
1, 0, Copyright_t, "Copyright © "
1, 0, Time_signature, 4, 2, 24, 8
1, 0, Key_signature, 0, "major"
1, 0, Tempo, 1250000
1, 9984, Tempo, 1153845
1, 10496, Tempo, 1176469
1, 10709, Tempo, 1250000
1, 13696, Tempo, 1153845
1, 13824, Tempo, 1176469
1, 13952, Tempo, 1250000
1, 44032, Tempo, 1224489
1, 45056, Tempo, 1224489
1, 45056, Tempo, 1200000
1, 45056, Time_signature, 3, 2, 24, 8
1, 45824, Tempo, 1200000
1, 45824, Tempo, 1188118
1, 45824, Time_signature, 5, 2, 24, 8
1, 47104, Tempo, 1188118
1, 47104, Tempo, 1176469
1, 47104, Time_signature, 4, 2, 24, 8
1, 48128, Tempo, 1153845
1, 49152, Tempo, 1132074
1, 50175, Tempo, 1111111
1, 51200, Tempo, 1090909
1, 52224, Tempo, 1081081
1, 60416, Tempo, 1081081
1, 60416, Time_signature, 5, 2, 24, 8
1, 61696, Tempo, 1081081
1, 61696, Time_signature, 3, 2, 24, 8
1, 62464, Tempo, 1081081
1, 62464, Time_signature, 4, 2, 24, 8
1, 81920, Tempo, 1071427
1, 82944, Tempo, 1061945
1, 83456, Tempo, 1052631
1, 84224, Tempo, 1043477
1, 84992, Tempo, 1034482
1, 107520, Tempo, 1034482
1, 107520, Time_signature, 5, 2, 24, 8
1, 108800, Tempo, 1034482
1, 108800, Time_signature, 3, 2, 24, 8
1, 109568, Tempo, 1034482
1, 109568, Time_signature, 4, 2, 24, 8
1, 122368, Tempo, 1016949
1, 122880, Tempo, 1000000
1, 123648, Tempo, 983606
1, 124416, Tempo, 967740
1, 125184, Tempo, 952379
1, 125696, Tempo, 937500
1, 126464, Tempo, 923075
1, 126975, Tempo, 909089
1, 129024, Tempo, 454544
1, 147456, Tempo, 454543
1, 147456, Time_signature, 2, 2, 24, 8
1, 147968, Tempo, 454542
1, 147968, Time_signature, 6, 2, 72, 8
1, 149504, Tempo, 454541
1, 149504, Time_signature, 4, 2, 24, 8
1, 177152, Tempo, 454540
1, 177152, Time_signature, 3, 2, 24, 8
1, 177920, Tempo, 454539
1, 177920, Time_signature, 4, 2, 24, 8
1, 178944, Tempo, 454538
1, 178944, Time_signature, 3, 2, 24, 8
1, 179712, Tempo, 454537
1, 179712, Time_signature, 4, 2, 24, 8
1, 181760, Tempo, 454536
1, 181760, Time_signature, 2, 2, 24, 8
1, 182272, Tempo, 454535
1, 182272, Time_signature, 4, 2, 24, 8
1, 183296, Tempo, 454534
1, 183296, Tempo, 284360
1, 183296, Time_signature, 2, 1, 48, 8
1, 205824, Tempo, 384615
1, 234496, Tempo, 394736
1, 245760, Tempo, 394736
1, 245760, Time_signature, 5, 2, 24, 8
1, 247040, Tempo, 394736
1, 247040, Time_signature, 3, 2, 24, 8
1, 250880, Tempo, 394736
1, 250880, Time_signature, 4, 2, 24, 8
1, 252160, Tempo, 389610
1, 252416, Tempo, 394736
1, 252672, Tempo, 400000
1, 252928, Tempo, 405404
1, 253184, Tempo, 410958
1, 253440, Tempo, 416666
1, 253696, Tempo, 422534
1, 253952, Tempo, 431654
1, 254208, Tempo, 441175
1, 254464, Tempo, 447760
1, 254976, Tempo, 454544
1, 280576, Tempo, 454543
1, 280576, Time_signature, 3, 2, 24, 8
1, 283648, Tempo, 454542
1, 283648, Time_signature, 4, 2, 24, 8
1, 287744, Tempo, 454541
1, 287744, Time_signature, 3, 2, 24, 8
1, 288512, Tempo, 454540
1, 288512, Time_signature, 5, 2, 24, 8
1, 289792, Tempo, 454539
1, 289792, Time_signature, 4, 2, 24, 8
1, 303104, Tempo, 454538
1, 303104, Time_signature, 3, 2, 24, 8
1, 305408, Tempo, 454537
1, 305408, Time_signature, 4, 2, 24, 8
1, 306432, Tempo, 454536
1, 306432, Time_signature, 3, 2, 24, 8
1, 307200, Tempo, 454535
1, 307200, Time_signature, 4, 2, 24, 8
1, 308224, Tempo, 454534
1, 308224, Time_signature, 3, 2, 24, 8
1, 328960, Tempo, 454534
1, 328960, Time_signature, 4, 2, 24, 8
1, 350464, Tempo, 454534
1, 350464, Time_signature, 3, 2, 24, 8
1, 358144, Tempo, 454534
1, 358144, Time_signature, 4, 2, 24, 8
1, 373504, Tempo, 454534
1, 373504, Time_signature, 5, 2, 24, 8
1, 374784, Tempo, 454534
1, 374784, Time_signature, 3, 2, 24, 8
1, 375552, Tempo, 454534
1, 375552, Time_signature, 2, 2, 24, 8
1, 376064, Tempo, 454534
1, 376064, Time_signature, 3, 2, 24, 8
1, 376832, Tempo, 454534
1, 376832, Time_signature, 2, 2, 24, 8
1, 377344, Tempo, 454534
1, 377344, Time_signature, 3, 2, 24, 8
1, 378112, Tempo, 454534
1, 378112, Tempo, 451126
1, 378112, Time_signature, 2, 2, 24, 8
1, 378624, Tempo, 451126
1, 378624, Tempo, 447760
1, 378624, Time_signature, 3, 2, 24, 8
1, 379392, Tempo, 447760
1, 379392, Time_signature, 4, 2, 24, 8
1, 380416, Tempo, 447760
1, 380416, Tempo, 444443
1, 380416, Time_signature, 3, 2, 24, 8
1, 381952, Tempo, 441175
1, 382720, Tempo, 437956
1, 383488, Tempo, 434781
1, 384256, Tempo, 431654
1, 385024, Tempo, 431654
1, 385024, Time_signature, 2, 2, 24, 8
1, 385536, Tempo, 431654
1, 385536, Tempo, 425530
1, 385536, Time_signature, 3, 2, 24, 8
1, 386304, Tempo, 422534
1, 387072, Tempo, 419580
1, 387840, Tempo, 416666
1, 393984, Tempo, 416666
1, 393984, Time_signature, 2, 2, 24, 8
1, 395008, Tempo, 416666
1, 395008, Time_signature, 3, 2, 24, 8
1, 400384, Tempo, 416666
1, 400384, Time_signature, 4, 2, 24, 8
1, 401408, Tempo, 416666
1, 401408, Time_signature, 3, 2, 24, 8
1, 415232, Tempo, 416666
1, 415232, Time_signature, 4, 2, 24, 8
1, 416256, Tempo, 416666
1, 416256, Time_signature, 3, 2, 24, 8
1, 444672, Tempo, 416666
1, 444672, Time_signature, 4, 2, 24, 8
1, 445696, Tempo, 416666
1, 445696, Time_signature, 3, 2, 24, 8
1, 447232, Tempo, 416666
1, 447232, Time_signature, 4, 2, 24, 8
1, 450304, Tempo, 416666
1, 450304, Time_signature, 3, 2, 24, 8
1, 455680, Tempo, 416666
1, 455680, Time_signature, 4, 2, 24, 8
1, 457728, Tempo, 416666
1, 457728, Time_signature, 3, 2, 24, 8
1, 460032, Tempo, 416666
1, 460032, Time_signature, 4, 2, 24, 8
1, 462080, Tempo, 416666
1, 462080, Time_signature, 3, 2, 24, 8
1, 462081, End_track
2, 0, Start_track
2, 0, Program_c, 3, 73
2, 0, Control_c, 3, 121, 0
2, 0, Control_c, 3, 64, 0
2, 0, Control_c, 3, 91, 52
2, 0, Control_c, 3, 10, 70
2, 0, Control_c, 3, 7, 83
2, 0, Control_c, 3, 121, 0
2, 0, Control_c, 3, 64, 0
2, 0, Control_c, 3, 91, 52
2, 0, Control_c, 3, 10, 70
2, 0, Control_c, 3, 7, 83
2, 0, Control_c, 3, 121, 0
2, 0, Control_c, 3, 64, 0
2, 0, Control_c, 3, 91, 52
2, 0, Control_c, 3, 10, 70
2, 0, Control_c, 3, 7, 83
2, 0, Control_c, 3, 121, 0
2, 0, Control_c, 3, 64, 0
2, 0, Control_c, 3, 91, 52
2, 0, Control_c, 3, 10, 70
2, 0, Control_c, 3, 7, 83
2, 0, Title_t, "Flute"
2, 576, Note_on_c, 3, 65, 62
2, 640, Note_on_c, 3, 68, 62
2, 641, Note_off_c, 3, 65, 0
2, 832, Note_on_c, 3, 70, 77
2, 835, Note_off_c, 3, 68, 0
2, 896, Note_on_c, 3, 80, 100
2, 897, Note_off_c, 3, 70, 0
2, 1109, Note_on_c, 3, 72, 56
2, 1113, Note_off_c, 3, 80, 0
2, 1453, Note_off_c, 3, 72, 0
2, 1472, Note_on_c, 3, 80, 81
2, 1600, Note_on_c, 3, 82, 86
2, 1602, Note_off_c, 3, 80, 0
2, 1664, Note_on_c, 3, 78, 65
2, 1665, Note_off_c, 3, 82, 0
2, 1856, Note_on_c, 3, 76, 59
2, 1859, Note_off_c, 3, 78, 0
2, 1984, Note_on_c, 3, 75, 65
2, 1986, Note_off_c, 3, 76, 0
2, 2112, Note_on_c, 3, 73, 67
2, 2114, Note_off_c, 3, 75, 0
2, 2240, Note_on_c, 3, 72, 59
2, 2242, Note_off_c, 3, 73, 0
2, 2368, Note_on_c, 3, 70, 60
2, 2370, Note_off_c, 3, 72, 0
2, 2550, Note_off_c, 3, 70, 0
2, 2560, Note_on_c, 3, 70, 60
2, 2624, Note_on_c, 3, 72, 66
2, 2625, Note_off_c, 3, 70, 0
2, 2752, Note_on_c, 3, 73, 64
2, 2754, Note_off_c, 3, 72, 0
2, 2816, Note_on_c, 3, 82, 82
2, 2817, Note_off_c, 3, 73, 0
2, 3008, Note_on_c, 3, 84, 75
2, 3011, Note_off_c, 3, 82, 0
2, 3413, Note_on_c, 3, 86, 76
2, 3421, Note_off_c, 3, 84, 0
2, 3498, Note_on_c, 3, 82, 63
2, 3499, Note_off_c, 3, 86, 0
2, 3669, Note_on_c, 3, 80, 62
2, 3672, Note_off_c, 3, 82, 0
2, 3904, Note_on_c, 3, 78, 65
2, 3908, Note_off_c, 3, 80, 0
2, 4086, Note_off_c, 3, 78, 0
2, 4096, Note_on_c, 3, 77, 66
2, 4160, Note_on_c, 3, 75, 64
2, 4161, Note_off_c, 3, 77, 0
2, 4288, Note_on_c, 3, 73, 64
2, 4290, Note_off_c, 3, 75, 0
2, 4352, Note_on_c, 3, 72, 58
2, 4353, Note_off_c, 3, 73, 0
2, 4480, Note_on_c, 3, 70, 64
2, 4482, Note_off_c, 3, 72, 0
2, 4544, Note_on_c, 3, 68, 61
2, 4545, Note_off_c, 3, 70, 0
2, 4693, Note_on_c, 3, 66, 66
2, 4695, Note_off_c, 3, 68, 0
2, 5098, Note_off_c, 3, 66, 0
2, 5120, Note_on_c, 3, 61, 50
2, 5184, Note_on_c, 3, 62, 64
2, 5185, Note_off_c, 3, 61, 0
2, 5312, Note_on_c, 3, 64, 82
2, 5314, Note_off_c, 3, 62, 0
2, 5376, Note_on_c, 3, 72, 97
2, 5377, Note_off_c, 3, 64, 0
2, 5632, Note_on_c, 3, 70, 96
2, 5637, Note_off_c, 3, 72, 0
2, 5875, Note_off_c, 3, 70, 0
2, 5888, Note_on_c, 3, 65, 73
2, 5952, Note_on_c, 3, 66, 76
2, 5953, Note_off_c, 3, 65, 0
2, 6080, Note_on_c, 3, 68, 90
2, 6082, Note_off_c, 3, 66, 0
2, 6144, Note_on_c, 3, 76, 108
2, 6145, Note_off_c, 3, 68, 0
2, 6400, Note_on_c, 3, 74, 79
2, 6405, Note_off_c, 3, 76, 0
2, 6582, Note_off_c, 3, 74, 0
2, 6592, Note_on_c, 3, 69, 70
2, 6656, Note_on_c, 3, 70, 82
2, 6657, Note_off_c, 3, 69, 0
2, 6848, Note_on_c, 3, 72, 81
2, 6851, Note_off_c, 3, 70, 0
2, 6912, Note_on_c, 3, 80, 86
2, 6913, Note_off_c, 3, 72, 0
2, 7104, Note_on_c, 3, 78, 63
2, 7107, Note_off_c, 3, 80, 0
2, 7326, Note_off_c, 3, 78, 0
2, 7338, Note_on_c, 3, 71, 48
2, 7509, Note_on_c, 3, 73, 54
2, 7512, Note_off_c, 3, 71, 0
2, 7594, Note_on_c, 3, 75, 66
2, 7595, Note_off_c, 3, 73, 0
2, 7680, Note_on_c, 3, 91, 81
2, 7681, Note_off_c, 3, 75, 0
2, 7872, Note_on_c, 3, 84, 50
2, 7875, Note_off_c, 3, 91, 0
2, 8115, Note_off_c, 3, 84, 0
2, 8128, Note_on_c, 3, 91, 73
2, 8256, Note_on_c, 3, 93, 74
2, 8258, Note_off_c, 3, 91, 0
2, 8320, Note_on_c, 3, 89, 56
2, 8321, Note_off_c, 3, 93, 0
2, 8512, Note_on_c, 3, 87, 55
2, 8515, Note_off_c, 3, 89, 0
2, 8704, Note_on_c, 3, 85, 58
2, 8707, Note_off_c, 3, 87, 0
2, 8896, Note_on_c, 3, 84, 54
2, 8899, Note_off_c, 3, 85, 0
2, 8960, Note_on_c, 3, 85, 64
2, 8961, Note_off_c, 3, 84, 0
2, 9024, Note_on_c, 3, 82, 56
2, 9025, Note_off_c, 3, 85, 0
2, 9088, Note_on_c, 3, 80, 56
2, 9089, Note_off_c, 3, 82, 0
2, 9216, Note_on_c, 3, 82, 56
2, 9218, Note_off_c, 3, 80, 0
2, 9280, Note_on_c, 3, 79, 56
2, 9281, Note_off_c, 3, 82, 0
2, 9408, Note_on_c, 3, 77, 54
2, 9410, Note_off_c, 3, 79, 0
2, 9590, Note_off_c, 3, 77, 0
2, 9600, Note_on_c, 3, 75, 63
2, 9642, Note_off_c, 3, 75, 0
2, 9642, Note_on_c, 3, 77, 61
2, 9728, Note_on_c, 3, 73, 52
2, 9729, Note_off_c, 3, 77, 0
2, 9920, Note_on_c, 3, 71, 57
2, 9923, Note_off_c, 3, 73, 0
2, 10020, Note_off_c, 3, 71, 0
2, 10026, Note_on_c, 3, 70, 60
2, 10069, Note_off_c, 3, 70, 0
2, 10069, Note_on_c, 3, 71, 62
2, 10154, Note_on_c, 3, 70, 58
2, 10155, Note_off_c, 3, 71, 0
2, 10197, Note_off_c, 3, 70, 0
2, 10197, Note_on_c, 3, 71, 63
2, 10282, Note_on_c, 3, 68, 53
2, 10283, Note_off_c, 3, 71, 0
2, 10325, Note_off_c, 3, 68, 0
2, 10325, Note_on_c, 3, 65, 60
2, 10410, Note_on_c, 3, 66, 63
2, 10411, Note_off_c, 3, 65, 0
2, 10453, Note_off_c, 3, 66, 0
2, 10453, Note_on_c, 3, 68, 71
2, 10538, Note_on_c, 3, 66, 58
2, 10539, Note_off_c, 3, 68, 0
2, 10581, Note_off_c, 3, 66, 0
2, 10581, Note_on_c, 3, 68, 66
2, 10666, Note_on_c, 3, 73, 77
2, 10667, Note_off_c, 3, 68, 0
2, 10709, Note_off_c, 3, 73, 0
2, 10709, Note_on_c, 3, 71, 65
2, 10830, Note_off_c, 3, 71, 0
2, 10837, Note_on_c, 3, 61, 53
2, 10922, Note_on_c, 3, 63, 52
2, 10923, Note_off_c, 3, 61, 0
2, 11008, Note_on_c, 3, 64, 73
2, 11009, Note_off_c, 3, 63, 0
2, 11093, Note_on_c, 3, 65, 78
2, 11094, Note_off_c, 3, 64, 0
2, 11178, Note_on_c, 3, 66, 77
2, 11179, Note_off_c, 3, 65, 0
2, 11264, Note_on_c, 3, 81, 100
2, 11265, Note_off_c, 3, 66, 0
2, 11434, Note_on_c, 3, 77, 66
2, 11437, Note_off_c, 3, 81, 0
2, 11758, Note_off_c, 3, 77, 0
2, 11776, Note_on_c, 3, 67, 52
2, 11861, Note_on_c, 3, 68, 57
2, 11862, Note_off_c, 3, 67, 0
2, 11946, Note_on_c, 3, 80, 87
2, 11947, Note_off_c, 3, 68, 0
2, 12032, Note_on_c, 3, 83, 100
2, 12033, Note_off_c, 3, 80, 0
2, 12224, Note_on_c, 3, 79, 66
2, 12227, Note_off_c, 3, 83, 0
2, 12588, Note_off_c, 3, 79, 0
2, 12608, Note_on_c, 3, 72, 56
2, 12672, Note_on_c, 3, 73, 69
2, 12673, Note_off_c, 3, 72, 0
2, 12864, Note_on_c, 3, 76, 70
2, 12867, Note_off_c, 3, 73, 0
2, 12928, Note_on_c, 3, 85, 77
2, 12929, Note_off_c, 3, 76, 0
2, 13120, Note_on_c, 3, 86, 59
2, 13123, Note_off_c, 3, 85, 0
2, 13312, Note_on_c, 3, 88, 61
2, 13315, Note_off_c, 3, 86, 0
2, 13376, Note_on_c, 3, 86, 57
2, 13377, Note_off_c, 3, 88, 0
2, 13504, Note_on_c, 3, 91, 65
2, 13506, Note_off_c, 3, 86, 0
2, 13568, Note_on_c, 3, 87, 57
2, 13569, Note_off_c, 3, 91, 0
2, 13689, Note_off_c, 3, 87, 0
2, 13696, Note_on_c, 3, 85, 54
2, 13738, Note_off_c, 3, 85, 0
2, 13738, Note_on_c, 3, 83, 54
2, 13781, Note_off_c, 3, 83, 0
2, 13781, Note_on_c, 3, 81, 57
2, 13852, Note_off_c, 3, 81, 0
2, 13856, Note_on_c, 3, 81, 62
2, 13888, Note_off_c, 3, 81, 0
2, 13888, Note_on_c, 3, 79, 58
2, 13948, Note_off_c, 3, 79, 0
2, 13952, Note_on_c, 3, 77, 52
2, 13984, Note_off_c, 3, 77, 0
2, 13984, Note_on_c, 3, 75, 55
2, 14016, Note_off_c, 3, 75, 0
2, 14016, Note_on_c, 3, 73, 55
2, 14112, Note_on_c, 3, 72, 53
2, 14113, Note_off_c, 3, 73, 0
2, 14144, Note_off_c, 3, 72, 0
2, 14144, Note_on_c, 3, 70, 57
2, 14208, Note_on_c, 3, 73, 61
2, 14209, Note_off_c, 3, 70, 0
2, 14329, Note_off_c, 3, 73, 0
2, 14336, Note_on_c, 3, 71, 63
2, 14400, Note_on_c, 3, 70, 65
2, 14401, Note_off_c, 3, 71, 0
2, 14464, Note_on_c, 3, 69, 64
2, 14465, Note_off_c, 3, 70, 0
2, 14528, Note_on_c, 3, 68, 66
2, 14529, Note_off_c, 3, 69, 0
2, 14592, Note_on_c, 3, 67, 70
2, 14593, Note_off_c, 3, 68, 0
2, 14656, Note_on_c, 3, 66, 71
2, 14657, Note_off_c, 3, 67, 0
2, 14784, Note_on_c, 3, 69, 89
2, 14786, Note_off_c, 3, 66, 0
2, 14905, Note_off_c, 3, 69, 0
2, 14912, Note_on_c, 3, 60, 66
2, 15040, Note_on_c, 3, 61, 63
2, 15042, Note_off_c, 3, 60, 0
2, 15104, Note_on_c, 3, 63, 90
2, 15105, Note_off_c, 3, 61, 0
2, 15189, Note_on_c, 3, 64, 96
2, 15190, Note_off_c, 3, 63, 0
2, 15274, Note_on_c, 3, 67, 89
2, 15275, Note_off_c, 3, 64, 0
2, 15360, Note_on_c, 3, 75, 102
2, 15361, Note_off_c, 3, 67, 0
2, 15616, Note_on_c, 3, 71, 76
2, 15621, Note_off_c, 3, 75, 0
2, 15808, Note_on_c, 3, 69, 69
2, 15811, Note_off_c, 3, 71, 0
2, 15957, Note_on_c, 3, 70, 86
2, 15959, Note_off_c, 3, 69, 0
2, 16042, Note_on_c, 3, 80, 107
2, 16043, Note_off_c, 3, 70, 0
2, 16213, Note_on_c, 3, 71, 66
2, 16216, Note_off_c, 3, 80, 0
2, 16375, Note_off_c, 3, 71, 0
2, 16384, Note_on_c, 3, 75, 87
2, 16469, Note_on_c, 3, 76, 93
2, 16470, Note_off_c, 3, 75, 0
2, 16554, Note_on_c, 3, 86, 103
2, 16555, Note_off_c, 3, 76, 0
2, 16725, Note_on_c, 3, 84, 94
2, 16728, Note_off_c, 3, 86, 0
2, 16960, Note_on_c, 3, 91, 96
2, 16964, Note_off_c, 3, 84, 0
2, 17088, Note_on_c, 3, 83, 81
2, 17090, Note_off_c, 3, 91, 0
2, 17209, Note_off_c, 3, 83, 0
2, 17216, Note_on_c, 3, 69, 61
2, 17280, Note_on_c, 3, 75, 75
2, 17281, Note_off_c, 3, 69, 0
2, 17472, Note_on_c, 3, 86, 107
2, 17475, Note_off_c, 3, 75, 0
2, 17536, Note_on_c, 3, 82, 101
2, 17537, Note_off_c, 3, 86, 0
2, 17657, Note_off_c, 3, 82, 0
2, 17664, Note_on_c, 3, 63, 58
2, 17749, Note_on_c, 3, 71, 67
2, 17750, Note_off_c, 3, 63, 0
2, 17834, Note_on_c, 3, 81, 112
2, 17835, Note_off_c, 3, 71, 0
2, 17920, Note_on_c, 3, 77, 101
2, 17921, Note_off_c, 3, 81, 0
2, 18041, Note_off_c, 3, 77, 0
2, 18048, Note_on_c, 3, 67, 63
2, 18112, Note_on_c, 3, 70, 69
2, 18113, Note_off_c, 3, 67, 0
2, 18240, Note_on_c, 3, 77, 104
2, 18242, Note_off_c, 3, 70, 0
2, 18304, Note_on_c, 3, 74, 95
2, 18305, Note_off_c, 3, 77, 0
2, 18425, Note_off_c, 3, 74, 0
2, 18432, Note_on_c, 3, 65, 65
2, 18517, Note_on_c, 3, 68, 66
2, 18518, Note_off_c, 3, 65, 0
2, 18602, Note_on_c, 3, 71, 92
2, 18603, Note_off_c, 3, 68, 0
2, 18688, Note_on_c, 3, 80, 110
2, 18689, Note_off_c, 3, 71, 0
2, 18773, Note_on_c, 3, 79, 81
2, 18774, Note_off_c, 3, 80, 0
2, 19029, Note_on_c, 3, 75, 76
2, 19034, Note_off_c, 3, 79, 0
2, 19738, Note_off_c, 3, 75, 0
2, 19776, Note_on_c, 3, 66, 65
2, 19840, Note_on_c, 3, 68, 65
2, 19841, Note_off_c, 3, 66, 0
2, 20032, Note_on_c, 3, 69, 86
2, 20035, Note_off_c, 3, 68, 0
2, 20096, Note_on_c, 3, 81, 110
2, 20097, Note_off_c, 3, 69, 0
2, 20309, Note_on_c, 3, 76, 71
2, 20313, Note_off_c, 3, 81, 0
2, 20532, Note_off_c, 3, 76, 0
2, 20544, Note_on_c, 3, 81, 100
2, 20672, Note_on_c, 3, 83, 109
2, 20674, Note_off_c, 3, 81, 0
2, 20736, Note_on_c, 3, 79, 75
2, 20737, Note_off_c, 3, 83, 0
2, 20928, Note_on_c, 3, 77, 72
2, 20931, Note_off_c, 3, 79, 0
2, 21056, Note_on_c, 3, 76, 81
2, 21058, Note_off_c, 3, 77, 0
2, 21184, Note_on_c, 3, 73, 75
2, 21186, Note_off_c, 3, 76, 0
2, 21312, Note_on_c, 3, 72, 80
2, 21314, Note_off_c, 3, 73, 0
2, 21440, Note_on_c, 3, 70, 71
2, 21442, Note_off_c, 3, 72, 0
2, 21568, Note_on_c, 3, 69, 81
2, 21570, Note_off_c, 3, 70, 0
2, 21696, Note_on_c, 3, 70, 81
2, 21698, Note_off_c, 3, 69, 0
2, 21824, Note_on_c, 3, 72, 88
2, 21826, Note_off_c, 3, 70, 0
2, 21952, Note_on_c, 3, 70, 87
2, 21954, Note_off_c, 3, 72, 0
2, 22080, Note_on_c, 3, 72, 99
2, 22082, Note_off_c, 3, 70, 0
2, 22208, Note_on_c, 3, 73, 104
2, 22210, Note_off_c, 3, 72, 0
2, 22272, Note_on_c, 3, 82, 106
2, 22273, Note_off_c, 3, 73, 0
2, 22464, Note_on_c, 3, 84, 117
2, 22467, Note_off_c, 3, 82, 0
2, 22848, Note_off_c, 3, 84, 0
2, 22869, Note_on_c, 3, 86, 88
2, 22954, Note_on_c, 3, 82, 81
2, 22955, Note_off_c, 3, 86, 0
2, 23125, Note_on_c, 3, 80, 85
2, 23128, Note_off_c, 3, 82, 0
2, 23360, Note_on_c, 3, 79, 79
2, 23364, Note_off_c, 3, 80, 0
2, 23552, Note_on_c, 3, 77, 77
2, 23555, Note_off_c, 3, 79, 0
2, 23616, Note_on_c, 3, 76, 76
2, 23617, Note_off_c, 3, 77, 0
2, 23744, Note_on_c, 3, 74, 82
2, 23746, Note_off_c, 3, 76, 0
2, 23808, Note_on_c, 3, 73, 77
2, 23809, Note_off_c, 3, 74, 0
2, 23936, Note_on_c, 3, 71, 79
2, 23938, Note_off_c, 3, 73, 0
2, 24000, Note_on_c, 3, 69, 78
2, 24001, Note_off_c, 3, 71, 0
2, 24141, Note_off_c, 3, 69, 0
2, 26560, Note_on_c, 3, 71, 78
2, 26624, Note_on_c, 3, 73, 82
2, 26625, Note_off_c, 3, 71, 0
2, 26816, Note_on_c, 3, 75, 90
2, 26819, Note_off_c, 3, 73, 0
2, 26880, Note_on_c, 3, 91, 112
2, 26881, Note_off_c, 3, 75, 0
2, 27072, Note_on_c, 3, 84, 70
2, 27075, Note_off_c, 3, 91, 0
2, 27315, Note_off_c, 3, 84, 0
2, 27328, Note_on_c, 3, 91, 95
2, 27456, Note_on_c, 3, 93, 101
2, 27458, Note_off_c, 3, 91, 0
2, 27520, Note_on_c, 3, 89, 72
2, 27521, Note_off_c, 3, 93, 0
2, 27712, Note_on_c, 3, 87, 69
2, 27715, Note_off_c, 3, 89, 0
2, 27840, Note_on_c, 3, 85, 76
2, 27842, Note_off_c, 3, 87, 0
2, 28032, Note_on_c, 3, 84, 69
2, 28035, Note_off_c, 3, 85, 0
2, 28096, Note_on_c, 3, 85, 87
2, 28097, Note_off_c, 3, 84, 0
2, 28160, Note_on_c, 3, 82, 82
2, 28161, Note_off_c, 3, 85, 0
2, 28224, Note_on_c, 3, 80, 77
2, 28225, Note_off_c, 3, 82, 0
2, 28352, Note_on_c, 3, 82, 83
2, 28354, Note_off_c, 3, 80, 0
2, 28416, Note_on_c, 3, 78, 79
2, 28417, Note_off_c, 3, 82, 0
2, 28544, Note_on_c, 3, 77, 71
2, 28546, Note_off_c, 3, 78, 0
2, 28726, Note_off_c, 3, 77, 0
2, 28736, Note_on_c, 3, 75, 77
2, 28768, Note_off_c, 3, 75, 0
2, 28768, Note_on_c, 3, 77, 88
2, 28864, Note_on_c, 3, 73, 77
2, 28865, Note_off_c, 3, 77, 0
2, 29056, Note_on_c, 3, 71, 78
2, 29059, Note_off_c, 3, 73, 0
2, 29258, Note_off_c, 3, 71, 0
2, 29269, Note_on_c, 3, 61, 66
2, 29354, Note_on_c, 3, 63, 86
2, 29355, Note_off_c, 3, 61, 0
2, 29440, Note_on_c, 3, 64, 98
2, 29441, Note_off_c, 3, 63, 0
2, 29525, Note_on_c, 3, 65, 100
2, 29526, Note_off_c, 3, 64, 0
2, 29610, Note_on_c, 3, 66, 103
2, 29611, Note_off_c, 3, 65, 0
2, 29696, Note_on_c, 3, 81, 124
2, 29697, Note_off_c, 3, 66, 0
2, 29866, Note_on_c, 3, 77, 92
2, 29869, Note_off_c, 3, 81, 0
2, 30190, Note_off_c, 3, 77, 0
2, 30208, Note_on_c, 3, 67, 65
2, 30293, Note_on_c, 3, 68, 85
2, 30294, Note_off_c, 3, 67, 0
2, 30378, Note_on_c, 3, 80, 118
2, 30379, Note_off_c, 3, 68, 0
2, 30464, Note_on_c, 3, 83, 104
2, 30465, Note_off_c, 3, 80, 0
2, 30656, Note_on_c, 3, 79, 84
2, 30659, Note_off_c, 3, 83, 0
2, 30899, Note_off_c, 3, 79, 0
2, 30912, Note_on_c, 3, 72, 73
2, 30976, Note_on_c, 3, 73, 86
2, 30977, Note_off_c, 3, 72, 0
2, 31104, Note_on_c, 3, 76, 89
2, 31106, Note_off_c, 3, 73, 0
2, 31168, Note_on_c, 3, 85, 107
2, 31169, Note_off_c, 3, 76, 0
2, 31296, Note_on_c, 3, 87, 103
2, 31298, Note_off_c, 3, 85, 0
2, 31478, Note_off_c, 3, 87, 0
2, 31488, Note_on_c, 3, 62, 58
2, 31573, Note_on_c, 3, 63, 57
2, 31574, Note_off_c, 3, 62, 0
2, 31658, Note_on_c, 3, 65, 73
2, 31659, Note_off_c, 3, 63, 0
2, 31744, Note_on_c, 3, 66, 78
2, 31745, Note_off_c, 3, 65, 0
2, 31829, Note_on_c, 3, 68, 80
2, 31830, Note_off_c, 3, 66, 0
2, 31914, Note_on_c, 3, 81, 104
2, 31915, Note_off_c, 3, 68, 0
2, 32000, Note_on_c, 3, 78, 69
2, 32001, Note_off_c, 3, 81, 0
2, 32080, Note_off_c, 3, 78, 0
2, 32085, Note_on_c, 3, 68, 51
2, 32170, Note_on_c, 3, 69, 55
2, 32171, Note_off_c, 3, 68, 0
2, 32256, Note_on_c, 3, 81, 87
2, 32257, Note_off_c, 3, 69, 0
2, 32341, Note_on_c, 3, 84, 99
2, 32342, Note_off_c, 3, 81, 0
2, 32576, Note_on_c, 3, 80, 63
2, 32580, Note_off_c, 3, 84, 0
2, 33001, Note_off_c, 3, 80, 0
2, 33024, Note_on_c, 3, 61, 54
2, 33088, Note_on_c, 3, 63, 57
2, 33089, Note_off_c, 3, 61, 0
2, 33216, Note_on_c, 3, 64, 85
2, 33218, Note_off_c, 3, 63, 0
2, 33280, Note_on_c, 3, 79, 107
2, 33281, Note_off_c, 3, 64, 0
2, 33472, Note_on_c, 3, 69, 68
2, 33475, Note_off_c, 3, 79, 0
2, 33654, Note_off_c, 3, 69, 0
2, 33664, Note_on_c, 3, 64, 69
2, 33792, Note_on_c, 3, 67, 75
2, 33794, Note_off_c, 3, 64, 0
2, 33877, Note_on_c, 3, 70, 86
2, 33878, Note_off_c, 3, 67, 0
2, 33962, Note_on_c, 3, 81, 107
2, 33963, Note_off_c, 3, 70, 0
2, 34133, Note_on_c, 3, 83, 87
2, 34136, Note_off_c, 3, 81, 0
2, 34477, Note_off_c, 3, 83, 0
2, 34560, Note_on_c, 3, 78, 75
2, 34645, Note_on_c, 3, 74, 64
2, 34646, Note_off_c, 3, 78, 0
2, 34730, Note_on_c, 3, 70, 70
2, 34731, Note_off_c, 3, 74, 0
2, 34901, Note_on_c, 3, 69, 63
2, 34904, Note_off_c, 3, 70, 0
2, 35063, Note_off_c, 3, 69, 0
2, 35072, Note_on_c, 3, 60, 63
2, 35136, Note_on_c, 3, 80, 74
2, 35137, Note_off_c, 3, 60, 0
2, 35264, Note_on_c, 3, 75, 79
2, 35266, Note_off_c, 3, 80, 0
2, 35328, Note_on_c, 3, 73, 72
2, 35329, Note_off_c, 3, 75, 0
2, 35456, Note_on_c, 3, 72, 81
2, 35458, Note_off_c, 3, 73, 0
2, 35516, Note_off_c, 3, 72, 0
2, 35520, Note_on_c, 3, 61, 62
2, 35584, Note_on_c, 3, 81, 79
2, 35585, Note_off_c, 3, 61, 0
2, 35712, Note_on_c, 3, 80, 85
2, 35714, Note_off_c, 3, 81, 0
2, 35776, Note_on_c, 3, 79, 80
2, 35777, Note_off_c, 3, 80, 0
2, 35882, Note_on_c, 3, 78, 79
2, 35884, Note_off_c, 3, 79, 0
2, 35968, Note_on_c, 3, 88, 98
2, 35969, Note_off_c, 3, 78, 0
2, 36032, Note_on_c, 3, 84, 76
2, 36033, Note_off_c, 3, 88, 0
2, 36132, Note_off_c, 3, 84, 0
2, 36138, Note_on_c, 3, 81, 79
2, 36224, Note_on_c, 3, 82, 85
2, 36224, Note_on_c, 3, 82, 72
2, 36225, Note_off_c, 3, 81, 0
2, 36352, Note_on_c, 3, 85, 91
2, 36352, Note_on_c, 3, 85, 79
2, 36354, Note_off_c, 3, 82, 0
2, 36354, Note_off_c, 3, 82, 0
2, 36480, Note_on_c, 3, 86, 93
2, 36480, Note_on_c, 3, 86, 88
2, 36482, Note_off_c, 3, 85, 0
2, 36482, Note_off_c, 3, 85, 0
2, 36544, Note_on_c, 3, 93, 103
2, 36544, Note_on_c, 3, 93, 107
2, 36545, Note_off_c, 3, 86, 0
2, 36545, Note_off_c, 3, 86, 0
2, 36736, Note_on_c, 3, 89, 90
2, 36736, Note_on_c, 3, 89, 73
2, 36739, Note_off_c, 3, 93, 0
2, 36739, Note_off_c, 3, 93, 0
2, 36938, Note_off_c, 3, 89, 0
2, 36949, Note_on_c, 3, 94, 88
2, 36953, Note_off_c, 3, 89, 0
2, 37120, Note_on_c, 3, 95, 89
2, 37123, Note_off_c, 3, 94, 0
2, 37728, Note_off_c, 3, 95, 0
2, 44992, Note_on_c, 3, 76, 76
2, 45312, Note_on_c, 3, 78, 83
2, 45318, Note_off_c, 3, 76, 0
2, 45798, Note_off_c, 3, 78, 0
2, 45824, Note_on_c, 3, 78, 83
2, 45952, Note_on_c, 3, 79, 90
2, 45954, Note_off_c, 3, 78, 0
2, 46316, Note_off_c, 3, 79, 0
2, 46336, Note_on_c, 3, 69, 66
2, 46400, Note_on_c, 3, 78, 79
2, 46401, Note_off_c, 3, 69, 0
2, 46592, Note_on_c, 3, 79, 95
2, 46595, Note_off_c, 3, 78, 0
2, 46713, Note_off_c, 3, 79, 0
2, 46720, Note_on_c, 3, 69, 65
2, 46784, Note_on_c, 3, 78, 74
2, 46785, Note_off_c, 3, 69, 0
2, 46912, Note_on_c, 3, 79, 89
2, 46914, Note_off_c, 3, 78, 0
2, 46972, Note_off_c, 3, 79, 0
2, 46976, Note_on_c, 3, 69, 66
2, 47040, Note_on_c, 3, 78, 80
2, 47041, Note_off_c, 3, 69, 0
2, 47168, Note_on_c, 3, 79, 93
2, 47170, Note_off_c, 3, 78, 0
2, 47228, Note_off_c, 3, 79, 0
2, 47232, Note_on_c, 3, 69, 64
2, 47296, Note_on_c, 3, 83, 78
2, 47297, Note_off_c, 3, 69, 0
2, 47488, Note_on_c, 3, 70, 57
2, 47491, Note_off_c, 3, 83, 0
2, 47680, Note_on_c, 3, 81, 74
2, 47683, Note_off_c, 3, 70, 0
2, 47862, Note_off_c, 3, 81, 0
2, 47872, Note_on_c, 3, 72, 74
2, 47936, Note_on_c, 3, 81, 85
2, 47937, Note_off_c, 3, 72, 0
2, 48064, Note_on_c, 3, 82, 90
2, 48066, Note_off_c, 3, 81, 0
2, 48124, Note_off_c, 3, 82, 0
2, 48128, Note_on_c, 3, 73, 64
2, 48192, Note_on_c, 3, 81, 71
2, 48193, Note_off_c, 3, 73, 0
2, 48320, Note_on_c, 3, 82, 90
2, 48322, Note_off_c, 3, 81, 0
2, 48380, Note_off_c, 3, 82, 0
2, 48384, Note_on_c, 3, 73, 64
2, 48448, Note_on_c, 3, 86, 83
2, 48449, Note_off_c, 3, 73, 0
2, 48569, Note_off_c, 3, 86, 0
2, 48576, Note_on_c, 3, 66, 63
2, 48640, Note_on_c, 3, 84, 78
2, 48641, Note_off_c, 3, 66, 0
2, 48883, Note_off_c, 3, 84, 0
2, 48960, Note_on_c, 3, 73, 75
2, 49024, Note_on_c, 3, 84, 93
2, 49025, Note_off_c, 3, 73, 0
2, 49088, Note_on_c, 3, 87, 90
2, 49089, Note_off_c, 3, 84, 0
2, 49152, Note_on_c, 3, 85, 83
2, 49153, Note_off_c, 3, 87, 0
2, 49280, Note_on_c, 3, 84, 79
2, 49282, Note_off_c, 3, 85, 0
2, 49401, Note_off_c, 3, 84, 0
2, 49408, Note_on_c, 3, 76, 64
2, 49472, Note_on_c, 3, 88, 77
2, 49473, Note_off_c, 3, 76, 0
2, 49536, Note_on_c, 3, 91, 98
2, 49537, Note_off_c, 3, 88, 0
2, 49600, Note_on_c, 3, 89, 93
2, 49601, Note_off_c, 3, 91, 0
2, 49728, Note_on_c, 3, 88, 86
2, 49730, Note_off_c, 3, 89, 0
2, 50032, Note_off_c, 3, 88, 0
2, 50048, Note_on_c, 3, 78, 65
2, 50112, Note_on_c, 3, 88, 77
2, 50113, Note_off_c, 3, 78, 0
2, 50176, Note_on_c, 3, 91, 94
2, 50177, Note_off_c, 3, 88, 0
2, 50240, Note_on_c, 3, 89, 93
2, 50241, Note_off_c, 3, 91, 0
2, 50304, Note_on_c, 3, 88, 80
2, 50305, Note_off_c, 3, 89, 0
2, 50368, Note_on_c, 3, 84, 68
2, 50369, Note_off_c, 3, 88, 0
2, 50428, Note_off_c, 3, 84, 0
2, 50432, Note_on_c, 3, 72, 61
2, 50496, Note_on_c, 3, 87, 71
2, 50497, Note_off_c, 3, 72, 0
2, 50560, Note_on_c, 3, 82, 75
2, 50561, Note_off_c, 3, 87, 0
2, 50624, Note_on_c, 3, 81, 69
2, 50625, Note_off_c, 3, 82, 0
2, 50688, Note_on_c, 3, 79, 80
2, 50689, Note_off_c, 3, 81, 0
2, 50809, Note_off_c, 3, 79, 0
2, 50816, Note_on_c, 3, 73, 74
2, 50880, Note_on_c, 3, 84, 93
2, 50881, Note_off_c, 3, 73, 0
2, 50944, Note_on_c, 3, 78, 80
2, 50945, Note_off_c, 3, 84, 0
2, 51024, Note_off_c, 3, 78, 0
2, 52160, Note_on_c, 3, 81, 77
2, 52288, Note_off_c, 3, 81, 0
2, 52288, Note_on_c, 3, 63, 66
2, 52416, Note_off_c, 3, 63, 0
2, 52416, Note_on_c, 3, 87, 102
2, 52480, Note_off_c, 3, 87, 0
2, 52480, Note_on_c, 3, 66, 64
2, 52608, Note_off_c, 3, 66, 0
2, 52608, Note_on_c, 3, 68, 82
2, 52672, Note_off_c, 3, 68, 0
2, 52672, Note_on_c, 3, 69, 88
2, 52778, Note_off_c, 3, 69, 0
2, 52778, Note_on_c, 3, 73, 90
2, 52864, Note_off_c, 3, 73, 0
2, 52864, Note_on_c, 3, 77, 89
2, 52992, Note_off_c, 3, 77, 0
2, 52992, Note_on_c, 3, 81, 107
2, 53077, Note_off_c, 3, 81, 0
2, 53077, Note_on_c, 3, 62, 70
2, 53248, Note_off_c, 3, 62, 0
2, 53248, Note_on_c, 3, 82, 115
2, 53333, Note_off_c, 3, 82, 0
2, 53504, Note_on_c, 3, 84, 81
2, 53589, Note_off_c, 3, 84, 0
2, 53674, Note_on_c, 3, 85, 82
2, 53760, Note_off_c, 3, 85, 0
2, 53845, Note_on_c, 3, 89, 73
2, 54016, Note_off_c, 3, 89, 0
2, 54016, Note_on_c, 3, 93, 92
2, 54080, Note_off_c, 3, 93, 0
2, 54144, Note_on_c, 3, 75, 80
2, 54400, Note_off_c, 3, 75, 0
2, 54400, Note_on_c, 3, 94, 106
2, 54613, Note_off_c, 3, 94, 0
2, 54613, Note_on_c, 3, 84, 64
2, 54784, Note_off_c, 3, 84, 0
2, 54784, Note_on_c, 3, 96, 103
2, 54848, Note_off_c, 3, 96, 0
2, 54912, Note_on_c, 3, 85, 78
2, 55168, Note_off_c, 3, 85, 0
2, 55168, Note_on_c, 3, 97, 90
2, 55381, Note_off_c, 3, 97, 0
2, 55381, Note_on_c, 3, 99, 62
2, 55936, Note_off_c, 3, 99, 0
2, 55936, Note_on_c, 3, 87, 71
2, 56320, Note_off_c, 3, 87, 0
2, 56320, Note_on_c, 3, 99, 52
2, 56832, Note_off_c, 3, 99, 0
2, 56832, Note_on_c, 3, 87, 85
2, 57344, Note_off_c, 3, 87, 0
2, 57344, Note_on_c, 3, 99, 55
2, 57664, Note_on_c, 3, 87, 86
2, 57856, Note_off_c, 3, 87, 0
2, 57856, Note_off_c, 3, 99, 0
2, 57856, Note_on_c, 3, 88, 100
2, 57984, Note_on_c, 3, 85, 92
2, 57986, Note_off_c, 3, 88, 0
2, 58186, Note_off_c, 3, 85, 0
2, 58197, Note_on_c, 3, 84, 99
2, 58410, Note_on_c, 3, 82, 92
2, 58414, Note_off_c, 3, 84, 0
2, 58688, Note_on_c, 3, 81, 96
2, 58693, Note_off_c, 3, 82, 0
2, 58809, Note_off_c, 3, 81, 0
2, 58816, Note_on_c, 3, 87, 111
2, 59136, Note_off_c, 3, 87, 0
2, 59136, Note_on_c, 3, 87, 92
2, 59392, Note_off_c, 3, 87, 0
2, 59584, Note_on_c, 3, 87, 85
2, 59776, Note_on_c, 3, 91, 95
2, 59779, Note_off_c, 3, 87, 0
2, 59958, Note_off_c, 3, 91, 0
2, 59968, Note_on_c, 3, 85, 80
2, 60192, Note_on_c, 3, 84, 73
2, 60196, Note_off_c, 3, 85, 0
2, 60404, Note_off_c, 3, 84, 0
2, 60416, Note_on_c, 3, 82, 93
2, 60544, Note_on_c, 3, 81, 90
2, 60546, Note_off_c, 3, 82, 0
2, 60608, Note_on_c, 3, 82, 96
2, 60609, Note_off_c, 3, 81, 0
2, 60704, Note_on_c, 3, 84, 100
2, 60705, Note_off_c, 3, 82, 0
2, 60800, Note_on_c, 3, 85, 104
2, 60801, Note_off_c, 3, 84, 0
2, 60921, Note_off_c, 3, 85, 0
2, 60928, Note_on_c, 3, 87, 101
2, 60992, Note_on_c, 3, 85, 97
2, 60993, Note_off_c, 3, 87, 0
2, 61056, Note_on_c, 3, 87, 104
2, 61057, Note_off_c, 3, 85, 0
2, 61120, Note_on_c, 3, 85, 96
2, 61121, Note_off_c, 3, 87, 0
2, 61248, Note_on_c, 3, 87, 104
2, 61250, Note_off_c, 3, 85, 0
2, 61376, Note_on_c, 3, 89, 116
2, 61378, Note_off_c, 3, 87, 0
2, 61680, Note_off_c, 3, 89, 0
2, 61696, Note_on_c, 3, 90, 100
2, 61866, Note_on_c, 3, 92, 104
2, 61869, Note_off_c, 3, 90, 0
2, 62190, Note_off_c, 3, 92, 0
2, 62208, Note_on_c, 3, 94, 101
2, 62378, Note_on_c, 3, 92, 93
2, 62381, Note_off_c, 3, 94, 0
2, 62702, Note_off_c, 3, 92, 0
2, 62720, Note_on_c, 3, 96, 113
2, 62976, Note_on_c, 3, 97, 122
2, 62981, Note_off_c, 3, 96, 0
2, 63168, Note_on_c, 3, 94, 86
2, 63171, Note_off_c, 3, 97, 0
2, 63360, Note_on_c, 3, 92, 79
2, 63363, Note_off_c, 3, 94, 0
2, 63552, Note_on_c, 3, 90, 94
2, 63555, Note_off_c, 3, 92, 0
2, 63680, Note_on_c, 3, 89, 90
2, 63682, Note_off_c, 3, 90, 0
2, 63862, Note_off_c, 3, 89, 0
2, 63872, Note_on_c, 3, 87, 92
2, 64000, Note_on_c, 3, 85, 85
2, 64002, Note_off_c, 3, 87, 0
2, 64170, Note_on_c, 3, 83, 95
2, 64173, Note_off_c, 3, 85, 0
2, 64373, Note_off_c, 3, 83, 0
2, 64384, Note_on_c, 3, 82, 93
2, 64597, Note_off_c, 3, 82, 0
2, 64597, Note_on_c, 3, 80, 91
2, 64682, Note_on_c, 3, 82, 93
2, 64683, Note_off_c, 3, 80, 0
2, 64768, Note_on_c, 3, 78, 88
2, 64769, Note_off_c, 3, 82, 0
2, 64853, Note_on_c, 3, 76, 86
2, 64854, Note_off_c, 3, 78, 0
2, 64938, Note_on_c, 3, 75, 92
2, 64939, Note_off_c, 3, 76, 0
2, 65024, Note_on_c, 3, 73, 87
2, 65025, Note_off_c, 3, 75, 0
2, 65109, Note_on_c, 3, 72, 89
2, 65110, Note_off_c, 3, 73, 0
2, 65194, Note_on_c, 3, 73, 91
2, 65195, Note_off_c, 3, 72, 0
2, 65280, Note_on_c, 3, 75, 102
2, 65281, Note_off_c, 3, 73, 0
2, 65365, Note_on_c, 3, 76, 105
2, 65366, Note_off_c, 3, 75, 0
2, 65450, Note_on_c, 3, 78, 101
2, 65451, Note_off_c, 3, 76, 0
2, 65536, Note_on_c, 3, 80, 106
2, 65537, Note_off_c, 3, 78, 0
2, 65621, Note_on_c, 3, 82, 107
2, 65622, Note_off_c, 3, 80, 0
2, 65706, Note_on_c, 3, 80, 103
2, 65707, Note_off_c, 3, 82, 0
2, 65792, Note_on_c, 3, 83, 106
2, 65793, Note_off_c, 3, 80, 0
2, 65852, Note_off_c, 3, 83, 0
2, 65920, Note_on_c, 3, 82, 90
2, 66048, Note_on_c, 3, 83, 94
2, 66050, Note_off_c, 3, 82, 0
2, 66150, Note_on_c, 3, 85, 103
2, 66152, Note_off_c, 3, 83, 0
2, 66252, Note_on_c, 3, 87, 107
2, 66254, Note_off_c, 3, 85, 0
2, 66355, Note_on_c, 3, 85, 93
2, 66357, Note_off_c, 3, 87, 0
2, 66457, Note_on_c, 3, 90, 104
2, 66459, Note_off_c, 3, 85, 0
2, 66560, Note_on_c, 3, 92, 104
2, 66562, Note_off_c, 3, 90, 0
2, 66681, Note_off_c, 3, 92, 0
2, 66688, Note_on_c, 3, 94, 103
2, 66901, Note_on_c, 3, 92, 98
2, 66905, Note_off_c, 3, 94, 0
2, 67029, Note_on_c, 3, 95, 103
2, 67031, Note_off_c, 3, 92, 0
2, 67328, Note_on_c, 3, 96, 108
2, 67333, Note_off_c, 3, 95, 0
2, 67510, Note_off_c, 3, 96, 0
2, 67520, Note_on_c, 3, 98, 106
2, 67712, Note_on_c, 3, 96, 101
2, 67715, Note_off_c, 3, 98, 0
2, 67904, Note_on_c, 3, 99, 110
2, 67907, Note_off_c, 3, 96, 0
2, 68032, Note_on_c, 3, 96, 101
2, 68034, Note_off_c, 3, 99, 0
2, 68160, Note_on_c, 3, 94, 93
2, 68162, Note_off_c, 3, 96, 0
2, 68352, Note_on_c, 3, 92, 87
2, 68355, Note_off_c, 3, 94, 0
2, 68544, Note_on_c, 3, 91, 92
2, 68547, Note_off_c, 3, 92, 0
2, 68672, Note_on_c, 3, 89, 88
2, 68674, Note_off_c, 3, 91, 0
2, 68915, Note_off_c, 3, 89, 0
2, 68928, Note_on_c, 3, 88, 95
2, 69056, Note_on_c, 3, 90, 97
2, 69058, Note_off_c, 3, 88, 0
2, 69184, Note_on_c, 3, 91, 102
2, 69186, Note_off_c, 3, 90, 0
2, 69312, Note_on_c, 3, 93, 113
2, 69314, Note_off_c, 3, 91, 0
2, 69440, Note_on_c, 3, 94, 102
2, 69442, Note_off_c, 3, 93, 0
2, 69568, Note_on_c, 3, 93, 93
2, 69570, Note_off_c, 3, 94, 0
2, 69696, Note_on_c, 3, 91, 91
2, 69698, Note_off_c, 3, 93, 0
2, 69802, Note_on_c, 3, 90, 82
2, 69804, Note_off_c, 3, 91, 0
2, 69888, Note_on_c, 3, 94, 109
2, 69889, Note_off_c, 3, 90, 0
2, 69968, Note_off_c, 3, 94, 0
2, 69973, Note_on_c, 3, 72, 81
2, 69973, Note_on_c, 3, 84, 81
2, 70058, Note_on_c, 3, 75, 88
2, 70058, Note_on_c, 3, 87, 88
2, 70059, Note_off_c, 3, 72, 0
2, 70059, Note_off_c, 3, 84, 0
2, 70144, Note_on_c, 3, 77, 105
2, 70144, Note_on_c, 3, 89, 105
2, 70145, Note_off_c, 3, 75, 0
2, 70145, Note_off_c, 3, 87, 0
2, 70229, Note_on_c, 3, 75, 98
2, 70229, Note_on_c, 3, 87, 98
2, 70230, Note_off_c, 3, 77, 0
2, 70230, Note_off_c, 3, 89, 0
2, 70314, Note_on_c, 3, 78, 106
2, 70314, Note_on_c, 3, 90, 106
2, 70315, Note_off_c, 3, 75, 0
2, 70315, Note_off_c, 3, 87, 0
2, 70400, Note_on_c, 3, 79, 115
2, 70400, Note_on_c, 3, 91, 115
2, 70401, Note_off_c, 3, 78, 0
2, 70401, Note_off_c, 3, 90, 0
2, 70485, Note_on_c, 3, 82, 109
2, 70485, Note_on_c, 3, 94, 109
2, 70486, Note_off_c, 3, 79, 0
2, 70486, Note_off_c, 3, 91, 0
2, 70570, Note_on_c, 3, 83, 111
2, 70570, Note_on_c, 3, 95, 111
2, 70571, Note_off_c, 3, 82, 0
2, 70571, Note_off_c, 3, 94, 0
2, 70656, Note_on_c, 3, 84, 101
2, 70656, Note_on_c, 3, 96, 101
2, 70657, Note_off_c, 3, 83, 0
2, 70657, Note_off_c, 3, 95, 0
2, 70741, Note_on_c, 3, 83, 98
2, 70741, Note_on_c, 3, 95, 98
2, 70742, Note_off_c, 3, 84, 0
2, 70742, Note_off_c, 3, 96, 0
2, 70826, Note_on_c, 3, 80, 90
2, 70826, Note_on_c, 3, 92, 90
2, 70827, Note_off_c, 3, 83, 0
2, 70827, Note_off_c, 3, 95, 0
2, 70907, Note_off_c, 3, 80, 0
2, 70907, Note_off_c, 3, 92, 0
2, 70912, Note_on_c, 3, 89, 118
2, 70912, Note_on_c, 3, 101, 118
2, 70997, Note_on_c, 3, 87, 114
2, 70997, Note_on_c, 3, 99, 114
2, 70998, Note_off_c, 3, 89, 0
2, 70998, Note_off_c, 3, 101, 0
2, 71082, Note_on_c, 3, 84, 90
2, 71082, Note_on_c, 3, 96, 90
2, 71083, Note_off_c, 3, 87, 0
2, 71083, Note_off_c, 3, 99, 0
2, 71168, Note_on_c, 3, 82, 81
2, 71168, Note_on_c, 3, 94, 81
2, 71169, Note_off_c, 3, 84, 0
2, 71169, Note_off_c, 3, 96, 0
2, 71253, Note_on_c, 3, 81, 93
2, 71253, Note_on_c, 3, 93, 93
2, 71254, Note_off_c, 3, 82, 0
2, 71254, Note_off_c, 3, 94, 0
2, 71338, Note_on_c, 3, 79, 88
2, 71338, Note_on_c, 3, 91, 88
2, 71339, Note_off_c, 3, 81, 0
2, 71339, Note_off_c, 3, 93, 0
2, 71424, Note_on_c, 3, 77, 88
2, 71424, Note_on_c, 3, 89, 88
2, 71425, Note_off_c, 3, 79, 0
2, 71425, Note_off_c, 3, 91, 0
2, 71488, Note_on_c, 3, 76, 85
2, 71488, Note_on_c, 3, 88, 85
2, 71489, Note_off_c, 3, 77, 0
2, 71489, Note_off_c, 3, 89, 0
2, 71552, Note_on_c, 3, 75, 92
2, 71552, Note_on_c, 3, 87, 92
2, 71553, Note_off_c, 3, 76, 0
2, 71553, Note_off_c, 3, 88, 0
2, 71616, Note_on_c, 3, 73, 83
2, 71616, Note_on_c, 3, 85, 83
2, 71617, Note_off_c, 3, 75, 0
2, 71617, Note_off_c, 3, 87, 0
2, 71680, Note_on_c, 3, 86, 103
2, 71681, Note_off_c, 3, 73, 0
2, 71681, Note_off_c, 3, 85, 0
2, 71731, Note_on_c, 3, 84, 92
2, 71732, Note_off_c, 3, 86, 0
2, 71782, Note_on_c, 3, 83, 90
2, 71783, Note_off_c, 3, 84, 0
2, 71833, Note_on_c, 3, 81, 80
2, 71834, Note_off_c, 3, 83, 0
2, 71884, Note_on_c, 3, 80, 93
2, 71885, Note_off_c, 3, 81, 0
2, 71936, Note_on_c, 3, 78, 88
2, 71937, Note_off_c, 3, 80, 0
2, 71987, Note_on_c, 3, 76, 93
2, 71988, Note_off_c, 3, 78, 0
2, 72038, Note_on_c, 3, 75, 87
2, 72039, Note_off_c, 3, 76, 0
2, 72089, Note_on_c, 3, 74, 92
2, 72090, Note_off_c, 3, 75, 0
2, 72140, Note_on_c, 3, 72, 85
2, 72141, Note_off_c, 3, 74, 0
2, 72189, Note_off_c, 3, 72, 0
2, 72192, Note_on_c, 3, 76, 126
2, 72224, Note_off_c, 3, 76, 0
2, 72224, Note_on_c, 3, 71, 85
2, 72256, Note_off_c, 3, 71, 0
2, 72256, Note_on_c, 3, 69, 88
2, 72288, Note_off_c, 3, 69, 0
2, 72288, Note_on_c, 3, 67, 91
2, 72320, Note_off_c, 3, 67, 0
2, 72320, Note_on_c, 3, 66, 94
2, 72352, Note_off_c, 3, 66, 0
2, 72352, Note_on_c, 3, 64, 98
2, 72384, Note_off_c, 3, 64, 0
2, 72384, Note_on_c, 3, 63, 97
2, 72416, Note_off_c, 3, 63, 0
2, 72416, Note_on_c, 3, 61, 87
2, 72446, Note_off_c, 3, 61, 0
2, 72992, Note_on_c, 3, 72, 106
2, 73024, Note_off_c, 3, 72, 0
2, 73024, Note_on_c, 3, 74, 117
2, 73056, Note_off_c, 3, 74, 0
2, 73056, Note_on_c, 3, 75, 116
2, 73088, Note_off_c, 3, 75, 0
2, 73088, Note_on_c, 3, 76, 120
2, 73120, Note_off_c, 3, 76, 0
2, 73120, Note_on_c, 3, 78, 123
2, 73152, Note_off_c, 3, 78, 0
2, 73152, Note_on_c, 3, 80, 121
2, 73184, Note_off_c, 3, 80, 0
2, 73184, Note_on_c, 3, 81, 115
2, 73216, Note_off_c, 3, 81, 0
2, 73216, Note_on_c, 3, 83, 122
2, 73248, Note_off_c, 3, 83, 0
2, 73248, Note_on_c, 3, 84, 117
2, 73280, Note_off_c, 3, 84, 0
2, 73280, Note_on_c, 3, 86, 123
2, 73310, Note_off_c, 3, 86, 0
2, 73344, Note_on_c, 3, 87, 97
2, 73376, Note_off_c, 3, 87, 0
2, 73376, Note_on_c, 3, 89, 119
2, 73406, Note_off_c, 3, 89, 0
2, 73440, Note_on_c, 3, 90, 104
2, 73472, Note_off_c, 3, 90, 0
2, 73472, Note_on_c, 3, 92, 118
2, 73502, Note_off_c, 3, 92, 0
2, 73536, Note_on_c, 3, 94, 104
2, 73568, Note_off_c, 3, 94, 0
2, 73568, Note_on_c, 3, 96, 112
2, 73598, Note_off_c, 3, 96, 0
2, 73664, Note_on_c, 3, 98, 127
2, 73728, Note_off_c, 3, 98, 0
2, 74240, Note_on_c, 3, 94, 100
2, 74259, Note_off_c, 3, 94, 0
2, 74432, Note_on_c, 3, 94, 105
2, 74451, Note_off_c, 3, 94, 0
2, 74624, Note_on_c, 3, 94, 101
2, 74662, Note_off_c, 3, 94, 0
2, 74816, Note_on_c, 3, 94, 104
2, 74835, Note_off_c, 3, 94, 0
2, 75008, Note_on_c, 3, 94, 100
2, 75027, Note_off_c, 3, 94, 0
2, 75200, Note_on_c, 3, 95, 101
2, 75219, Note_off_c, 3, 95, 0
2, 75328, Note_on_c, 3, 94, 101
2, 75347, Note_off_c, 3, 94, 0
2, 75520, Note_on_c, 3, 95, 102
2, 75539, Note_off_c, 3, 95, 0
2, 75648, Note_on_c, 3, 94, 99
2, 75667, Note_off_c, 3, 94, 0
2, 75776, Note_on_c, 3, 95, 103
2, 75795, Note_off_c, 3, 95, 0
2, 75904, Note_on_c, 3, 94, 103
2, 75923, Note_off_c, 3, 94, 0
2, 76032, Note_on_c, 3, 95, 101
2, 76051, Note_off_c, 3, 95, 0
2, 76160, Note_on_c, 3, 94, 104
2, 76179, Note_off_c, 3, 94, 0
2, 76288, Note_on_c, 3, 95, 103
2, 76307, Note_off_c, 3, 95, 0
2, 76416, Note_on_c, 3, 99, 107
2, 76435, Note_off_c, 3, 99, 0
2, 77696, Note_on_c, 3, 65, 55
2, 77696, Note_on_c, 3, 68, 55
2, 77717, Note_off_c, 3, 65, 0
2, 77717, Note_off_c, 3, 68, 0
2, 77717, Note_on_c, 3, 68, 67
2, 77717, Note_on_c, 3, 72, 67
2, 77738, Note_off_c, 3, 68, 0
2, 77738, Note_off_c, 3, 72, 0
2, 77738, Note_on_c, 3, 73, 71
2, 77738, Note_on_c, 3, 77, 71
2, 77760, Note_off_c, 3, 73, 0
2, 77760, Note_off_c, 3, 77, 0
2, 77760, Note_on_c, 3, 77, 69
2, 77760, Note_on_c, 3, 80, 69
2, 77781, Note_off_c, 3, 77, 0
2, 77781, Note_off_c, 3, 80, 0
2, 77781, Note_on_c, 3, 80, 68
2, 77781, Note_on_c, 3, 84, 68
2, 77802, Note_off_c, 3, 80, 0
2, 77802, Note_off_c, 3, 84, 0
2, 77802, Note_on_c, 3, 84, 74
2, 77802, Note_on_c, 3, 89, 74
2, 77824, Note_off_c, 3, 84, 0
2, 77824, Note_off_c, 3, 89, 0
2, 77824, Note_on_c, 3, 89, 69
2, 77824, Note_on_c, 3, 92, 69
2, 77845, Note_off_c, 3, 89, 0
2, 77845, Note_off_c, 3, 92, 0
2, 77845, Note_on_c, 3, 92, 68
2, 77845, Note_on_c, 3, 96, 68
2, 77864, Note_off_c, 3, 92, 0
2, 77864, Note_off_c, 3, 96, 0
2, 78080, Note_on_c, 3, 69, 64
2, 78080, Note_on_c, 3, 72, 64
2, 78101, Note_off_c, 3, 69, 0
2, 78101, Note_off_c, 3, 72, 0
2, 78101, Note_on_c, 3, 72, 81
2, 78101, Note_on_c, 3, 76, 81
2, 78122, Note_off_c, 3, 72, 0
2, 78122, Note_off_c, 3, 76, 0
2, 78122, Note_on_c, 3, 77, 84
2, 78122, Note_on_c, 3, 81, 84
2, 78144, Note_off_c, 3, 77, 0
2, 78144, Note_off_c, 3, 81, 0
2, 78144, Note_on_c, 3, 81, 77
2, 78144, Note_on_c, 3, 84, 77
2, 78165, Note_off_c, 3, 81, 0
2, 78165, Note_off_c, 3, 84, 0
2, 78165, Note_on_c, 3, 84, 78
2, 78165, Note_on_c, 3, 88, 78
2, 78184, Note_off_c, 3, 84, 0
2, 78184, Note_off_c, 3, 88, 0
2, 78400, Note_on_c, 3, 63, 57
2, 78400, Note_on_c, 3, 65, 57
2, 78421, Note_off_c, 3, 63, 0
2, 78421, Note_off_c, 3, 65, 0
2, 78421, Note_on_c, 3, 65, 78
2, 78421, Note_on_c, 3, 70, 78
2, 78442, Note_off_c, 3, 65, 0
2, 78442, Note_off_c, 3, 70, 0
2, 78442, Note_on_c, 3, 70, 86
2, 78442, Note_on_c, 3, 75, 86
2, 78464, Note_off_c, 3, 70, 0
2, 78464, Note_off_c, 3, 75, 0
2, 78464, Note_on_c, 3, 75, 77
2, 78464, Note_on_c, 3, 77, 77
2, 78485, Note_off_c, 3, 75, 0
2, 78485, Note_off_c, 3, 77, 0
2, 78485, Note_on_c, 3, 77, 79
2, 78485, Note_on_c, 3, 82, 79
2, 78506, Note_off_c, 3, 77, 0
2, 78506, Note_off_c, 3, 82, 0
2, 78506, Note_on_c, 3, 82, 82
2, 78506, Note_on_c, 3, 87, 82
2, 78528, Note_off_c, 3, 82, 0
2, 78528, Note_off_c, 3, 87, 0
2, 78528, Note_on_c, 3, 87, 77
2, 78528, Note_on_c, 3, 89, 77
2, 78549, Note_off_c, 3, 87, 0
2, 78549, Note_off_c, 3, 89, 0
2, 78549, Note_on_c, 3, 89, 76
2, 78568, Note_off_c, 3, 89, 0
2, 78933, Note_on_c, 3, 65, 63
2, 78933, Note_on_c, 3, 70, 63
2, 78954, Note_off_c, 3, 65, 0
2, 78954, Note_off_c, 3, 70, 0
2, 78954, Note_on_c, 3, 70, 80
2, 78954, Note_on_c, 3, 75, 80
2, 78976, Note_off_c, 3, 70, 0
2, 78976, Note_off_c, 3, 75, 0
2, 78976, Note_on_c, 3, 75, 76
2, 78976, Note_on_c, 3, 77, 76
2, 78997, Note_off_c, 3, 75, 0
2, 78997, Note_off_c, 3, 77, 0
2, 78997, Note_on_c, 3, 77, 79
2, 78997, Note_on_c, 3, 82, 79
2, 79018, Note_off_c, 3, 77, 0
2, 79018, Note_off_c, 3, 82, 0
2, 79018, Note_on_c, 3, 82, 81
2, 79018, Note_on_c, 3, 87, 81
2, 79040, Note_off_c, 3, 82, 0
2, 79040, Note_off_c, 3, 87, 0
2, 79040, Note_on_c, 3, 87, 74
2, 79040, Note_on_c, 3, 89, 74
2, 79061, Note_off_c, 3, 87, 0
2, 79061, Note_off_c, 3, 89, 0
2, 79061, Note_on_c, 3, 89, 80
2, 79061, Note_on_c, 3, 94, 80
2, 79082, Note_off_c, 3, 89, 0
2, 79082, Note_off_c, 3, 94, 0
2, 79082, Note_on_c, 3, 92, 74
2, 79082, Note_on_c, 3, 96, 74
2, 79102, Note_off_c, 3, 92, 0
2, 79102, Note_off_c, 3, 96, 0
2, 79104, Note_on_c, 3, 85, 60
2, 79104, Note_on_c, 3, 89, 60
2, 79125, Note_off_c, 3, 85, 0
2, 79125, Note_off_c, 3, 89, 0
2, 79125, Note_on_c, 3, 80, 62
2, 79125, Note_on_c, 3, 84, 62
2, 79146, Note_off_c, 3, 80, 0
2, 79146, Note_off_c, 3, 84, 0
2, 79146, Note_on_c, 3, 77, 64
2, 79146, Note_on_c, 3, 80, 64
2, 79168, Note_off_c, 3, 77, 0
2, 79168, Note_off_c, 3, 80, 0
2, 79168, Note_on_c, 3, 73, 67
2, 79168, Note_on_c, 3, 77, 67
2, 79189, Note_off_c, 3, 73, 0
2, 79189, Note_off_c, 3, 77, 0
2, 79189, Note_on_c, 3, 68, 64
2, 79189, Note_on_c, 3, 72, 64
2, 79210, Note_off_c, 3, 68, 0
2, 79210, Note_off_c, 3, 72, 0
2, 79210, Note_on_c, 3, 65, 58
2, 79210, Note_on_c, 3, 68, 58
2, 79232, Note_off_c, 3, 65, 0
2, 79232, Note_off_c, 3, 68, 0
2, 79232, Note_on_c, 3, 61, 58
2, 79232, Note_on_c, 3, 65, 58
2, 79292, Note_off_c, 3, 61, 0
2, 79292, Note_off_c, 3, 65, 0
2, 79296, Note_on_c, 3, 83, 93
2, 79296, Note_on_c, 3, 87, 93
2, 79317, Note_off_c, 3, 83, 0
2, 79317, Note_off_c, 3, 87, 0
2, 79317, Note_on_c, 3, 80, 63
2, 79317, Note_on_c, 3, 83, 63
2, 79338, Note_off_c, 3, 80, 0
2, 79338, Note_off_c, 3, 83, 0
2, 79338, Note_on_c, 3, 76, 62
2, 79338, Note_on_c, 3, 80, 62
2, 79360, Note_off_c, 3, 76, 0
2, 79360, Note_off_c, 3, 80, 0
2, 79360, Note_on_c, 3, 71, 61
2, 79360, Note_on_c, 3, 75, 61
2, 79381, Note_off_c, 3, 71, 0
2, 79381, Note_off_c, 3, 75, 0
2, 79381, Note_on_c, 3, 68, 66
2, 79381, Note_on_c, 3, 71, 66
2, 79400, Note_off_c, 3, 68, 0
2, 79400, Note_off_c, 3, 71, 0
2, 79424, Note_on_c, 3, 85, 63
2, 79424, Note_on_c, 3, 89, 63
2, 79445, Note_off_c, 3, 85, 0
2, 79445, Note_off_c, 3, 89, 0
2, 79445, Note_on_c, 3, 80, 63
2, 79445, Note_on_c, 3, 84, 63
2, 79466, Note_off_c, 3, 80, 0
2, 79466, Note_off_c, 3, 84, 0
2, 79466, Note_on_c, 3, 77, 60
2, 79466, Note_on_c, 3, 80, 60
2, 79488, Note_off_c, 3, 77, 0
2, 79488, Note_off_c, 3, 80, 0
2, 79488, Note_on_c, 3, 73, 66
2, 79488, Note_on_c, 3, 77, 66
2, 79509, Note_off_c, 3, 73, 0
2, 79509, Note_off_c, 3, 77, 0
2, 79509, Note_on_c, 3, 68, 60
2, 79509, Note_on_c, 3, 72, 60
2, 79530, Note_off_c, 3, 68, 0
2, 79530, Note_off_c, 3, 72, 0
2, 79530, Note_on_c, 3, 65, 64
2, 79530, Note_on_c, 3, 68, 64
2, 79552, Note_off_c, 3, 65, 0
2, 79552, Note_off_c, 3, 68, 0
2, 79552, Note_on_c, 3, 61, 63
2, 79552, Note_on_c, 3, 65, 63
2, 79612, Note_off_c, 3, 61, 0
2, 79612, Note_off_c, 3, 65, 0
2, 79957, Note_on_c, 3, 65, 74
2, 79957, Note_on_c, 3, 70, 74
2, 79978, Note_off_c, 3, 65, 0
2, 79978, Note_off_c, 3, 70, 0
2, 79978, Note_on_c, 3, 67, 92
2, 79978, Note_on_c, 3, 74, 92
2, 80000, Note_off_c, 3, 67, 0
2, 80000, Note_off_c, 3, 74, 0
2, 80000, Note_on_c, 3, 70, 86
2, 80000, Note_on_c, 3, 76, 86
2, 80021, Note_off_c, 3, 70, 0
2, 80021, Note_off_c, 3, 76, 0
2, 80021, Note_on_c, 3, 72, 85
2, 80021, Note_on_c, 3, 77, 85
2, 80042, Note_off_c, 3, 72, 0
2, 80042, Note_off_c, 3, 77, 0
2, 80042, Note_on_c, 3, 74, 91
2, 80042, Note_on_c, 3, 80, 91
2, 80064, Note_off_c, 3, 74, 0
2, 80064, Note_off_c, 3, 80, 0
2, 80064, Note_on_c, 3, 77, 89
2, 80064, Note_on_c, 3, 84, 89
2, 80096, Note_off_c, 3, 77, 0
2, 80096, Note_off_c, 3, 84, 0
2, 80096, Note_on_c, 3, 79, 89
2, 80096, Note_on_c, 3, 86, 89
2, 80126, Note_off_c, 3, 79, 0
2, 80126, Note_off_c, 3, 86, 0
2, 80192, Note_on_c, 3, 64, 76
2, 80192, Note_on_c, 3, 70, 76
2, 80213, Note_off_c, 3, 64, 0
2, 80213, Note_off_c, 3, 70, 0
2, 80213, Note_on_c, 3, 67, 93
2, 80213, Note_on_c, 3, 74, 93
2, 80234, Note_off_c, 3, 67, 0
2, 80234, Note_off_c, 3, 74, 0
2, 80234, Note_on_c, 3, 70, 92
2, 80234, Note_on_c, 3, 77, 92
2, 80256, Note_off_c, 3, 70, 0
2, 80256, Note_off_c, 3, 77, 0
2, 80256, Note_on_c, 3, 74, 90
2, 80256, Note_on_c, 3, 79, 90
2, 80277, Note_off_c, 3, 74, 0
2, 80277, Note_off_c, 3, 79, 0
2, 80277, Note_on_c, 3, 75, 90
2, 80277, Note_on_c, 3, 80, 90
2, 80298, Note_off_c, 3, 75, 0
2, 80298, Note_off_c, 3, 80, 0
2, 80298, Note_on_c, 3, 77, 91
2, 80298, Note_on_c, 3, 83, 91
2, 80320, Note_off_c, 3, 77, 0
2, 80320, Note_off_c, 3, 83, 0
2, 80320, Note_on_c, 3, 79, 92
2, 80320, Note_on_c, 3, 87, 92
2, 80341, Note_off_c, 3, 79, 0
2, 80341, Note_off_c, 3, 87, 0
2, 80341, Note_on_c, 3, 82, 97
2, 80341, Note_on_c, 3, 89, 97
2, 80360, Note_off_c, 3, 82, 0
2, 80360, Note_off_c, 3, 89, 0
2, 80512, Note_on_c, 3, 68, 74
2, 80548, Note_off_c, 3, 68, 0
2, 80548, Note_on_c, 3, 72, 91
2, 80585, Note_off_c, 3, 72, 0
2, 80585, Note_on_c, 3, 75, 93
2, 80621, Note_off_c, 3, 75, 0
2, 80621, Note_on_c, 3, 78, 91
2, 80658, Note_off_c, 3, 78, 0
2, 80658, Note_on_c, 3, 80, 90
2, 80694, Note_off_c, 3, 80, 0
2, 80694, Note_on_c, 3, 84, 96
2, 80731, Note_off_c, 3, 84, 0
2, 80731, Note_on_c, 3, 87, 90
2, 80768, Note_off_c, 3, 87, 0
2, 80768, Note_on_c, 3, 83, 75
2, 80804, Note_off_c, 3, 83, 0
2, 80804, Note_on_c, 3, 93, 108
2, 80841, Note_off_c, 3, 93, 0
2, 80841, Note_on_c, 3, 90, 84
2, 80877, Note_off_c, 3, 90, 0
2, 80877, Note_on_c, 3, 96, 94
2, 80914, Note_off_c, 3, 96, 0
2, 80914, Note_on_c, 3, 92, 73
2, 80950, Note_off_c, 3, 92, 0
2, 80950, Note_on_c, 3, 89, 75
2, 80987, Note_off_c, 3, 89, 0
2, 80987, Note_on_c, 3, 83, 71
2, 81024, Note_off_c, 3, 83, 0
2, 81024, Note_on_c, 3, 80, 75
2, 81060, Note_off_c, 3, 80, 0
2, 81060, Note_on_c, 3, 77, 73
2, 81097, Note_off_c, 3, 77, 0
2, 81097, Note_on_c, 3, 75, 73
2, 81133, Note_off_c, 3, 75, 0
2, 81133, Note_on_c, 3, 73, 77
2, 81170, Note_off_c, 3, 73, 0
2, 81170, Note_on_c, 3, 71, 77
2, 81206, Note_off_c, 3, 71, 0
2, 81206, Note_on_c, 3, 68, 76
2, 81243, Note_off_c, 3, 68, 0
2, 81243, Note_on_c, 3, 67, 78
2, 81278, Note_off_c, 3, 67, 0
2, 81280, Note_on_c, 3, 84, 102
2, 81280, Note_on_c, 3, 96, 102
2, 81316, Note_off_c, 3, 84, 0
2, 81316, Note_off_c, 3, 96, 0
2, 81316, Note_on_c, 3, 80, 81
2, 81316, Note_on_c, 3, 92, 81
2, 81353, Note_off_c, 3, 80, 0
2, 81353, Note_off_c, 3, 92, 0
2, 81353, Note_on_c, 3, 88, 100
2, 81353, Note_on_c, 3, 100, 100
2, 81389, Note_off_c, 3, 88, 0
2, 81389, Note_off_c, 3, 100, 0
2, 81389, Note_on_c, 3, 85, 79
2, 81389, Note_on_c, 3, 97, 79
2, 81426, Note_off_c, 3, 85, 0
2, 81426, Note_off_c, 3, 97, 0
2, 81426, Note_on_c, 3, 84, 79
2, 81426, Note_on_c, 3, 96, 79
2, 81462, Note_off_c, 3, 84, 0
2, 81462, Note_off_c, 3, 96, 0
2, 81462, Note_on_c, 3, 80, 75
2, 81462, Note_on_c, 3, 92, 75
2, 81499, Note_off_c, 3, 80, 0
2, 81499, Note_off_c, 3, 92, 0
2, 81499, Note_on_c, 3, 77, 77
2, 81499, Note_on_c, 3, 89, 77
2, 81536, Note_off_c, 3, 77, 0
2, 81536, Note_off_c, 3, 89, 0
2, 81536, Note_on_c, 3, 87, 75
2, 81572, Note_off_c, 3, 87, 0
2, 81572, Note_on_c, 3, 83, 70
2, 81609, Note_off_c, 3, 83, 0
2, 81609, Note_on_c, 3, 77, 68
2, 81645, Note_off_c, 3, 77, 0
2, 81645, Note_on_c, 3, 75, 77
2, 81682, Note_off_c, 3, 75, 0
2, 81682, Note_on_c, 3, 73, 76
2, 81718, Note_off_c, 3, 73, 0
2, 81718, Note_on_c, 3, 71, 83
2, 81753, Note_off_c, 3, 71, 0
2, 81920, Note_on_c, 3, 70, 90
2, 81952, Note_off_c, 3, 70, 0
2, 81952, Note_on_c, 3, 68, 91
2, 81984, Note_off_c, 3, 68, 0
2, 81984, Note_on_c, 3, 67, 93
2, 82016, Note_off_c, 3, 67, 0
2, 82016, Note_on_c, 3, 68, 102
2, 82048, Note_off_c, 3, 68, 0
2, 82048, Note_on_c, 3, 70, 100
2, 82080, Note_off_c, 3, 70, 0
2, 82080, Note_on_c, 3, 71, 104
2, 82112, Note_off_c, 3, 71, 0
2, 82112, Note_on_c, 3, 73, 105
2, 82144, Note_off_c, 3, 73, 0
2, 82144, Note_on_c, 3, 75, 100
2, 82176, Note_off_c, 3, 75, 0
2, 82176, Note_on_c, 3, 76, 101
2, 82208, Note_off_c, 3, 76, 0
2, 82208, Note_on_c, 3, 77, 101
2, 82240, Note_off_c, 3, 77, 0
2, 82240, Note_on_c, 3, 79, 103
2, 82272, Note_off_c, 3, 79, 0
2, 82272, Note_on_c, 3, 80, 102
2, 82304, Note_off_c, 3, 80, 0
2, 82304, Note_on_c, 3, 82, 102
2, 82336, Note_off_c, 3, 82, 0
2, 82336, Note_on_c, 3, 85, 109
2, 82368, Note_off_c, 3, 85, 0
2, 82368, Note_on_c, 3, 87, 103
2, 82400, Note_off_c, 3, 87, 0
2, 82400, Note_on_c, 3, 88, 98
2, 82432, Note_off_c, 3, 88, 0
2, 82432, Note_on_c, 3, 89, 105
2, 82464, Note_off_c, 3, 89, 0
2, 82464, Note_on_c, 3, 90, 101
2, 82496, Note_off_c, 3, 90, 0
2, 82496, Note_on_c, 3, 92, 105
2, 82528, Note_off_c, 3, 92, 0
2, 82528, Note_on_c, 3, 90, 87
2, 82560, Note_off_c, 3, 90, 0
2, 82560, Note_on_c, 3, 89, 93
2, 82592, Note_off_c, 3, 89, 0
2, 82592, Note_on_c, 3, 87, 95
2, 82624, Note_off_c, 3, 87, 0
2, 82624, Note_on_c, 3, 82, 86
2, 82656, Note_off_c, 3, 82, 0
2, 82656, Note_on_c, 3, 83, 99
2, 82688, Note_off_c, 3, 83, 0
2, 82688, Note_on_c, 3, 78, 87
2, 82720, Note_off_c, 3, 78, 0
2, 82720, Note_on_c, 3, 80, 102
2, 82752, Note_off_c, 3, 80, 0
2, 82752, Note_on_c, 3, 77, 87
2, 82784, Note_off_c, 3, 77, 0
2, 82784, Note_on_c, 3, 75, 86
2, 82816, Note_off_c, 3, 75, 0
2, 82816, Note_on_c, 3, 73, 91
2, 82848, Note_off_c, 3, 73, 0
2, 82848, Note_on_c, 3, 71, 91
2, 82880, Note_off_c, 3, 71, 0
2, 82880, Note_on_c, 3, 70, 92
2, 82912, Note_off_c, 3, 70, 0
2, 82912, Note_on_c, 3, 68, 92
2, 82944, Note_off_c, 3, 68, 0
2, 82944, Note_on_c, 3, 67, 89
2, 82976, Note_off_c, 3, 67, 0
2, 82976, Note_on_c, 3, 65, 96
2, 83008, Note_off_c, 3, 65, 0
2, 83008, Note_on_c, 3, 64, 89
2, 83040, Note_off_c, 3, 64, 0
2, 83040, Note_on_c, 3, 62, 87
2, 83070, Note_off_c, 3, 62, 0
2, 83968, Note_on_c, 3, 80, 88
2, 83968, Note_on_c, 3, 92, 88
2, 84138, Note_on_c, 3, 81, 90
2, 84138, Note_on_c, 3, 93, 90
2, 84141, Note_off_c, 3, 80, 0
2, 84141, Note_off_c, 3, 92, 0
2, 84219, Note_off_c, 3, 81, 0
2, 84219, Note_off_c, 3, 93, 0
2, 84544, Note_on_c, 3, 82, 83
2, 84544, Note_on_c, 3, 94, 83
2, 84736, Note_on_c, 3, 83, 86
2, 84736, Note_on_c, 3, 95, 86
2, 84739, Note_off_c, 3, 82, 0
2, 84739, Note_off_c, 3, 94, 0
2, 84816, Note_off_c, 3, 83, 0
2, 84816, Note_off_c, 3, 95, 0
2, 84992, Note_on_c, 3, 82, 88
2, 84992, Note_on_c, 3, 94, 88
2, 85162, Note_on_c, 3, 83, 90
2, 85162, Note_on_c, 3, 95, 90
2, 85165, Note_off_c, 3, 82, 0
2, 85165, Note_off_c, 3, 94, 0
2, 85243, Note_off_c, 3, 83, 0
2, 85243, Note_off_c, 3, 95, 0
2, 85760, Note_on_c, 3, 84, 90
2, 85760, Note_on_c, 3, 96, 90
2, 85930, Note_off_c, 3, 84, 0
2, 85930, Note_off_c, 3, 96, 0
2, 85930, Note_on_c, 3, 73, 74
2, 85930, Note_on_c, 3, 85, 74
2, 86144, Note_off_c, 3, 73, 0
2, 86144, Note_off_c, 3, 85, 0
2, 86144, Note_on_c, 3, 84, 122
2, 86144, Note_on_c, 3, 96, 122
2, 86208, Note_off_c, 3, 84, 0
2, 86208, Note_off_c, 3, 96, 0
2, 86208, Note_on_c, 3, 73, 78
2, 86208, Note_on_c, 3, 85, 78
2, 86400, Note_off_c, 3, 73, 0
2, 86400, Note_off_c, 3, 85, 0
2, 86400, Note_on_c, 3, 78, 112
2, 86400, Note_on_c, 3, 90, 112
2, 86592, Note_off_c, 3, 78, 0
2, 86592, Note_off_c, 3, 90, 0
2, 86592, Note_on_c, 3, 81, 108
2, 86592, Note_on_c, 3, 93, 108
2, 86869, Note_off_c, 3, 81, 0
2, 86869, Note_off_c, 3, 93, 0
2, 86869, Note_on_c, 3, 66, 76
2, 86869, Note_on_c, 3, 78, 76
2, 87040, Note_off_c, 3, 66, 0
2, 87040, Note_off_c, 3, 78, 0
2, 87040, Note_on_c, 3, 90, 123
2, 87125, Note_off_c, 3, 90, 0
2, 87125, Note_on_c, 3, 93, 110
2, 87296, Note_off_c, 3, 93, 0
2, 87296, Note_on_c, 3, 77, 71
2, 87466, Note_off_c, 3, 77, 0
2, 87466, Note_on_c, 3, 76, 90
2, 87872, Note_off_c, 3, 76, 0
2, 87872, Note_on_c, 3, 77, 105
2, 88000, Note_off_c, 3, 77, 0
2, 88000, Note_on_c, 3, 78, 110
2, 88149, Note_off_c, 3, 78, 0
2, 88149, Note_on_c, 3, 79, 105
2, 88234, Note_off_c, 3, 79, 0
2, 88234, Note_on_c, 3, 82, 119
2, 88448, Note_off_c, 3, 82, 0
2, 88448, Note_on_c, 3, 66, 74
2, 88896, Note_off_c, 3, 66, 0
2, 88896, Note_on_c, 3, 83, 127
2, 89024, Note_off_c, 3, 83, 0
2, 89024, Note_on_c, 3, 65, 70
2, 89216, Note_off_c, 3, 65, 0
2, 89216, Note_on_c, 3, 83, 127
2, 89344, Note_off_c, 3, 83, 0
2, 89344, Note_on_c, 3, 65, 75
2, 89536, Note_off_c, 3, 65, 0
2, 89536, Note_on_c, 3, 83, 127
2, 89664, Note_off_c, 3, 83, 0
2, 89664, Note_on_c, 3, 65, 74
2, 89856, Note_off_c, 3, 65, 0
2, 89856, Note_on_c, 3, 83, 127
2, 89984, Note_off_c, 3, 83, 0
2, 89984, Note_on_c, 3, 65, 71
2, 90304, Note_off_c, 3, 65, 0
2, 90304, Note_on_c, 3, 65, 96
2, 90560, Note_off_c, 3, 65, 0
2, 90624, Note_on_c, 3, 74, 86
2, 90666, Note_off_c, 3, 74, 0
2, 90666, Note_on_c, 3, 83, 121
2, 90752, Note_on_c, 3, 86, 127
2, 90753, Note_off_c, 3, 83, 0
2, 90995, Note_off_c, 3, 86, 0
2, 91072, Note_on_c, 3, 84, 91
2, 91136, Note_on_c, 3, 83, 89
2, 91137, Note_off_c, 3, 84, 0
2, 91200, Note_on_c, 3, 86, 107
2, 91201, Note_off_c, 3, 83, 0
2, 91321, Note_off_c, 3, 86, 0
2, 91328, Note_on_c, 3, 82, 85
2, 91456, Note_on_c, 3, 96, 107
2, 91458, Note_off_c, 3, 82, 0
2, 91699, Note_off_c, 3, 96, 0
2, 91712, Note_on_c, 3, 90, 85
2, 91904, Note_on_c, 3, 72, 59
2, 91907, Note_off_c, 3, 90, 0
2, 92025, Note_off_c, 3, 72, 0
2, 92032, Note_on_c, 3, 90, 122
2, 92160, Note_off_c, 3, 90, 0
2, 92224, Note_on_c, 3, 90, 87
2, 92352, Note_on_c, 3, 93, 96
2, 92354, Note_off_c, 3, 90, 0
2, 92534, Note_off_c, 3, 93, 0
2, 92608, Note_on_c, 3, 90, 86
2, 92672, Note_on_c, 3, 93, 90
2, 92673, Note_off_c, 3, 90, 0
2, 92793, Note_off_c, 3, 93, 0
2, 92864, Note_on_c, 3, 94, 90
2, 93013, Note_off_c, 3, 94, 0
2, 93610, Note_on_c, 3, 85, 91
2, 93696, Note_off_c, 3, 85, 0
2, 93696, Note_on_c, 3, 89, 110
2, 93866, Note_off_c, 3, 89, 0
2, 93866, Note_on_c, 3, 93, 113
2, 94080, Note_off_c, 3, 93, 0
2, 94208, Note_on_c, 3, 96, 89
2, 94528, Note_off_c, 3, 96, 0
2, 94528, Note_on_c, 3, 97, 104
2, 94848, Note_off_c, 3, 97, 0
2, 95104, Note_on_c, 3, 100, 83
2, 95232, Note_on_c, 3, 73, 74
2, 95264, Note_off_c, 3, 73, 0
2, 95264, Note_on_c, 3, 77, 95
2, 95296, Note_off_c, 3, 77, 0
2, 95296, Note_on_c, 3, 80, 88
2, 95328, Note_off_c, 3, 80, 0
2, 95328, Note_on_c, 3, 83, 101
2, 95360, Note_off_c, 3, 83, 0
2, 95360, Note_on_c, 3, 84, 89
2, 95390, Note_off_c, 3, 84, 0
2, 95402, Note_off_c, 3, 100, 0
2, 95402, Note_on_c, 3, 99, 91
2, 95424, Note_on_c, 3, 73, 73
2, 95456, Note_off_c, 3, 73, 0
2, 95456, Note_on_c, 3, 77, 93
2, 95488, Note_off_c, 3, 77, 0
2, 95488, Note_on_c, 3, 80, 93
2, 95520, Note_off_c, 3, 80, 0
2, 95520, Note_on_c, 3, 83, 95
2, 95552, Note_off_c, 3, 83, 0
2, 95552, Note_on_c, 3, 84, 89
2, 95584, Note_off_c, 3, 84, 0
2, 95584, Note_on_c, 3, 85, 94
2, 95614, Note_off_c, 3, 85, 0
2, 95616, Note_on_c, 3, 71, 67
2, 95648, Note_off_c, 3, 71, 0
2, 95648, Note_on_c, 3, 73, 87
2, 95680, Note_off_c, 3, 73, 0
2, 95680, Note_on_c, 3, 77, 93
2, 95712, Note_off_c, 3, 77, 0
2, 95712, Note_on_c, 3, 80, 93
2, 95744, Note_off_c, 3, 80, 0
2, 95744, Note_off_c, 3, 99, 0
2, 95744, Note_on_c, 3, 83, 96
2, 95744, Note_on_c, 3, 83, 70
2, 95774, Note_off_c, 3, 83, 0
2, 95808, Note_on_c, 3, 73, 76
2, 95840, Note_off_c, 3, 73, 0
2, 95840, Note_on_c, 3, 77, 89
2, 95872, Note_off_c, 3, 77, 0
2, 95872, Note_on_c, 3, 80, 94
2, 95904, Note_off_c, 3, 80, 0
2, 95904, Note_on_c, 3, 83, 94
2, 95936, Note_off_c, 3, 83, 0
2, 95936, Note_off_c, 3, 83, 0
2, 95936, Note_on_c, 3, 84, 90
2, 95936, Note_on_c, 3, 101, 123
2, 95966, Note_off_c, 3, 84, 0
2, 95968, Note_on_c, 3, 71, 60
2, 96000, Note_off_c, 3, 71, 0
2, 96000, Note_on_c, 3, 73, 88
2, 96032, Note_off_c, 3, 73, 0
2, 96032, Note_on_c, 3, 79, 100
2, 96064, Note_off_c, 3, 79, 0
2, 96064, Note_on_c, 3, 83, 93
2, 96096, Note_off_c, 3, 83, 0
2, 96096, Note_on_c, 3, 86, 91
2, 96126, Note_off_c, 3, 86, 0
2, 96160, Note_on_c, 3, 73, 73
2, 96192, Note_off_c, 3, 73, 0
2, 96192, Note_on_c, 3, 77, 90
2, 96224, Note_off_c, 3, 77, 0
2, 96224, Note_on_c, 3, 80, 95
2, 96256, Note_off_c, 3, 80, 0
2, 96256, Note_off_c, 3, 101, 0
2, 96256, Note_on_c, 3, 79, 87
2, 96256, Note_on_c, 3, 103, 108
2, 96288, Note_off_c, 3, 79, 0
2, 96288, Note_on_c, 3, 73, 70
2, 96320, Note_off_c, 3, 73, 0
2, 96320, Note_on_c, 3, 77, 92
2, 96352, Note_off_c, 3, 77, 0
2, 96352, Note_on_c, 3, 79, 92
2, 96384, Note_off_c, 3, 79, 0
2, 96384, Note_on_c, 3, 83, 98
2, 96416, Note_off_c, 3, 83, 0
2, 96416, Note_on_c, 3, 77, 65
2, 96448, Note_off_c, 3, 77, 0
2, 96448, Note_on_c, 3, 80, 91
2, 96480, Note_off_c, 3, 80, 0
2, 96480, Note_on_c, 3, 83, 94
2, 96512, Note_off_c, 3, 83, 0
2, 96512, Note_on_c, 3, 85, 88
2, 96544, Note_off_c, 3, 85, 0
2, 96544, Note_on_c, 3, 77, 70
2, 96576, Note_off_c, 3, 77, 0
2, 96576, Note_on_c, 3, 80, 91
2, 96608, Note_off_c, 3, 80, 0
2, 96608, Note_on_c, 3, 83, 92
2, 96640, Note_off_c, 3, 83, 0
2, 96640, Note_on_c, 3, 86, 93
2, 96672, Note_off_c, 3, 86, 0
2, 96672, Note_on_c, 3, 77, 60
2, 96704, Note_off_c, 3, 77, 0
2, 96704, Note_on_c, 3, 79, 84
2, 96736, Note_off_c, 3, 79, 0
2, 96736, Note_on_c, 3, 83, 97
2, 96768, Note_off_c, 3, 83, 0
2, 96768, Note_on_c, 3, 77, 77
2, 96800, Note_off_c, 3, 77, 0
2, 96800, Note_on_c, 3, 79, 84
2, 96832, Note_off_c, 3, 79, 0
2, 96832, Note_off_c, 3, 103, 0
2, 96832, Note_on_c, 3, 83, 91
2, 96832, Note_on_c, 3, 105, 106
2, 96864, Note_off_c, 3, 83, 0
2, 96864, Note_on_c, 3, 86, 90
2, 96894, Note_off_c, 3, 86, 0
2, 96928, Note_on_c, 3, 85, 80
2, 96960, Note_off_c, 3, 85, 0
2, 96960, Note_on_c, 3, 73, 58
2, 96992, Note_off_c, 3, 73, 0
2, 96992, Note_on_c, 3, 77, 87
2, 97024, Note_off_c, 3, 77, 0
2, 97024, Note_on_c, 3, 80, 98
2, 97056, Note_off_c, 3, 80, 0
2, 97056, Note_on_c, 3, 83, 92
2, 97088, Note_off_c, 3, 83, 0
2, 97088, Note_on_c, 3, 86, 92
2, 97118, Note_off_c, 3, 86, 0
2, 97152, Note_on_c, 3, 72, 79
2, 97184, Note_off_c, 3, 72, 0
2, 97184, Note_on_c, 3, 74, 87
2, 97216, Note_off_c, 3, 74, 0
2, 97216, Note_on_c, 3, 75, 88
2, 97248, Note_off_c, 3, 75, 0
2, 97248, Note_on_c, 3, 80, 96
2, 97280, Note_off_c, 3, 80, 0
2, 97280, Note_on_c, 3, 85, 93
2, 97310, Note_off_c, 3, 85, 0
2, 97344, Note_on_c, 3, 70, 78
2, 97376, Note_off_c, 3, 70, 0
2, 97376, Note_on_c, 3, 72, 88
2, 97408, Note_off_c, 3, 72, 0
2, 97408, Note_on_c, 3, 76, 95
2, 97440, Note_off_c, 3, 76, 0
2, 97440, Note_on_c, 3, 80, 92
2, 97470, Note_off_c, 3, 80, 0
2, 97504, Note_on_c, 3, 83, 68
2, 97536, Note_off_c, 3, 83, 0
2, 97536, Note_on_c, 3, 73, 54
2, 97568, Note_off_c, 3, 73, 0
2, 97568, Note_on_c, 3, 76, 90
2, 97600, Note_off_c, 3, 76, 0
2, 97600, Note_on_c, 3, 80, 91
2, 97632, Note_off_c, 3, 80, 0
2, 97632, Note_on_c, 3, 82, 92
2, 97664, Note_off_c, 3, 82, 0
2, 97664, Note_on_c, 3, 88, 98
2, 97694, Note_off_c, 3, 88, 0
2, 97728, Note_on_c, 3, 72, 79
2, 97760, Note_off_c, 3, 72, 0
2, 97760, Note_on_c, 3, 75, 91
2, 97792, Note_off_c, 3, 75, 0
2, 97792, Note_off_c, 3, 105, 0
2, 97792, Note_on_c, 3, 78, 86
2, 97824, Note_off_c, 3, 78, 0
2, 97824, Note_on_c, 3, 79, 82
2, 97856, Note_off_c, 3, 79, 0
2, 97856, Note_on_c, 3, 75, 75
2, 97888, Note_off_c, 3, 75, 0
2, 97888, Note_on_c, 3, 84, 99
2, 97920, Note_off_c, 3, 84, 0
2, 97920, Note_on_c, 3, 68, 63
2, 97920, Note_on_c, 3, 92, 78
2, 97952, Note_off_c, 3, 68, 0
2, 97952, Note_off_c, 3, 92, 0
2, 97952, Note_on_c, 3, 73, 91
2, 97952, Note_on_c, 3, 97, 89
2, 97984, Note_off_c, 3, 73, 0
2, 97984, Note_off_c, 3, 97, 0
2, 97984, Note_on_c, 3, 76, 88
2, 97984, Note_on_c, 3, 88, 63
2, 98014, Note_off_c, 3, 88, 0
2, 98016, Note_off_c, 3, 76, 0
2, 98016, Note_on_c, 3, 80, 97
2, 98046, Note_off_c, 3, 80, 0
2, 98080, Note_on_c, 3, 82, 74
2, 98112, Note_off_c, 3, 82, 0
2, 98112, Note_on_c, 3, 70, 61
2, 98144, Note_off_c, 3, 70, 0
2, 98144, Note_on_c, 3, 72, 88
2, 98176, Note_off_c, 3, 72, 0
2, 98176, Note_on_c, 3, 75, 94
2, 98208, Note_off_c, 3, 75, 0
2, 98208, Note_on_c, 3, 80, 96
2, 98208, Note_on_c, 3, 92, 79
2, 98240, Note_off_c, 3, 80, 0
2, 98240, Note_off_c, 3, 92, 0
2, 98240, Note_on_c, 3, 84, 97
2, 98240, Note_on_c, 3, 96, 92
2, 98270, Note_off_c, 3, 96, 0
2, 98272, Note_off_c, 3, 84, 0
2, 98272, Note_on_c, 3, 83, 82
2, 98304, Note_off_c, 3, 83, 0
2, 98304, Note_on_c, 3, 68, 64
2, 98336, Note_off_c, 3, 68, 0
2, 98336, Note_on_c, 3, 73, 88
2, 98368, Note_off_c, 3, 73, 0
2, 98368, Note_on_c, 3, 76, 91
2, 98368, Note_on_c, 3, 100, 72
2, 98400, Note_off_c, 3, 76, 0
2, 98400, Note_off_c, 3, 100, 0
2, 98400, Note_on_c, 3, 77, 90
2, 98400, Note_on_c, 3, 101, 84
2, 98430, Note_off_c, 3, 77, 0
2, 98432, Note_off_c, 3, 101, 0
2, 98432, Note_on_c, 3, 89, 59
2, 98464, Note_off_c, 3, 89, 0
2, 98464, Note_on_c, 3, 83, 75
2, 98464, Note_on_c, 3, 95, 94
2, 98494, Note_off_c, 3, 95, 0
2, 98496, Note_off_c, 3, 83, 0
2, 98496, Note_on_c, 3, 73, 66
2, 98528, Note_off_c, 3, 73, 0
2, 98528, Note_on_c, 3, 77, 92
2, 98560, Note_off_c, 3, 77, 0
2, 98560, Note_on_c, 3, 80, 88
2, 98592, Note_off_c, 3, 80, 0
2, 98592, Note_on_c, 3, 77, 74
2, 98624, Note_off_c, 3, 77, 0
2, 98624, Note_on_c, 3, 84, 98
2, 98654, Note_off_c, 3, 84, 0
2, 98688, Note_on_c, 3, 68, 76
2, 98720, Note_off_c, 3, 68, 0
2, 98720, Note_on_c, 3, 73, 96
2, 98752, Note_off_c, 3, 73, 0
2, 98752, Note_on_c, 3, 76, 94
2, 98784, Note_off_c, 3, 76, 0
2, 98784, Note_on_c, 3, 77, 85
2, 98814, Note_off_c, 3, 77, 0
2, 98816, Note_on_c, 3, 89, 75
2, 98848, Note_off_c, 3, 89, 0
2, 98848, Note_on_c, 3, 83, 75
2, 98848, Note_on_c, 3, 95, 98
2, 98880, Note_off_c, 3, 83, 0
2, 98880, Note_off_c, 3, 95, 0
2, 98880, Note_on_c, 3, 73, 65
2, 98880, Note_on_c, 3, 83, 62
2, 98912, Note_off_c, 3, 73, 0
2, 98912, Note_off_c, 3, 83, 0
2, 98912, Note_on_c, 3, 77, 85
2, 98912, Note_on_c, 3, 89, 89
2, 98942, Note_off_c, 3, 89, 0
2, 98944, Note_off_c, 3, 77, 0
2, 98944, Note_on_c, 3, 80, 92
2, 98976, Note_off_c, 3, 80, 0
2, 98976, Note_on_c, 3, 77, 79
2, 98976, Note_on_c, 3, 89, 73
2, 99008, Note_off_c, 3, 77, 0
2, 99008, Note_off_c, 3, 89, 0
2, 99008, Note_on_c, 3, 88, 101
2, 99008, Note_on_c, 3, 100, 107
2, 99038, Note_off_c, 3, 88, 0
2, 99038, Note_off_c, 3, 100, 0
2, 99072, Note_on_c, 3, 73, 76
2, 99104, Note_off_c, 3, 73, 0
2, 99104, Note_on_c, 3, 77, 96
2, 99136, Note_off_c, 3, 77, 0
2, 99136, Note_on_c, 3, 80, 90
2, 99136, Note_on_c, 3, 92, 69
2, 99168, Note_off_c, 3, 80, 0
2, 99168, Note_off_c, 3, 92, 0
2, 99168, Note_on_c, 3, 77, 77
2, 99168, Note_on_c, 3, 89, 75
2, 99200, Note_off_c, 3, 77, 0
2, 99200, Note_off_c, 3, 89, 0
2, 99200, Note_on_c, 3, 83, 93
2, 99200, Note_on_c, 3, 95, 96
2, 99230, Note_off_c, 3, 83, 0
2, 99230, Note_off_c, 3, 95, 0
2, 99264, Note_on_c, 3, 73, 80
2, 99264, Note_on_c, 3, 97, 74
2, 99296, Note_off_c, 3, 73, 0
2, 99296, Note_off_c, 3, 97, 0
2, 99296, Note_on_c, 3, 77, 92
2, 99296, Note_on_c, 3, 89, 63
2, 99326, Note_off_c, 3, 89, 0
2, 99328, Note_off_c, 3, 77, 0
2, 99328, Note_on_c, 3, 80, 97
2, 99360, Note_off_c, 3, 80, 0
2, 99360, Note_on_c, 3, 73, 72
2, 99360, Note_on_c, 3, 97, 74
2, 99392, Note_off_c, 3, 73, 0
2, 99392, Note_off_c, 3, 97, 0
2, 99392, Note_on_c, 3, 83, 103
2, 99392, Note_on_c, 3, 95, 75
2, 99422, Note_off_c, 3, 95, 0
2, 99424, Note_off_c, 3, 83, 0
2, 99424, Note_on_c, 3, 71, 63
2, 99456, Note_off_c, 3, 71, 0
2, 99456, Note_on_c, 3, 73, 83
2, 99488, Note_off_c, 3, 73, 0
2, 99488, Note_on_c, 3, 77, 93
2, 99520, Note_off_c, 3, 77, 0
2, 99520, Note_on_c, 3, 80, 92
2, 99552, Note_off_c, 3, 80, 0
2, 99552, Note_on_c, 3, 77, 78
2, 99584, Note_off_c, 3, 77, 0
2, 99584, Note_on_c, 3, 71, 67
2, 99616, Note_off_c, 3, 71, 0
2, 99616, Note_on_c, 3, 73, 89
2, 99616, Note_on_c, 3, 97, 77
2, 99648, Note_off_c, 3, 73, 0
2, 99648, Note_off_c, 3, 97, 0
2, 99648, Note_on_c, 3, 77, 88
2, 99648, Note_on_c, 3, 101, 90
2, 99680, Note_off_c, 3, 77, 0
2, 99680, Note_off_c, 3, 101, 0
2, 99680, Note_on_c, 3, 79, 92
2, 99680, Note_on_c, 3, 103, 93
2, 99710, Note_off_c, 3, 103, 0
2, 99712, Note_off_c, 3, 79, 0
2, 99712, Note_on_c, 3, 80, 85
2, 99744, Note_off_c, 3, 80, 0
2, 99744, Note_on_c, 3, 83, 89
2, 99776, Note_off_c, 3, 83, 0
2, 99776, Note_on_c, 3, 84, 90
2, 99806, Note_off_c, 3, 84, 0
2, 99840, Note_on_c, 3, 71, 75
2, 99872, Note_off_c, 3, 71, 0
2, 99872, Note_on_c, 3, 75, 93
2, 99904, Note_off_c, 3, 75, 0
2, 99904, Note_on_c, 3, 79, 95
2, 99936, Note_off_c, 3, 79, 0
2, 99936, Note_on_c, 3, 73, 71
2, 99968, Note_off_c, 3, 73, 0
2, 99968, Note_on_c, 3, 81, 98
2, 99968, Note_on_c, 3, 93, 79
2, 100000, Note_off_c, 3, 81, 0
2, 100000, Note_off_c, 3, 93, 0
2, 100000, Note_on_c, 3, 73, 72
2, 100000, Note_on_c, 3, 97, 98
2, 100032, Note_off_c, 3, 73, 0
2, 100032, Note_off_c, 3, 97, 0
2, 100032, Note_on_c, 3, 77, 90
2, 100032, Note_on_c, 3, 101, 95
2, 100062, Note_off_c, 3, 101, 0
2, 100064, Note_off_c, 3, 77, 0
2, 100064, Note_on_c, 3, 79, 92
2, 100096, Note_off_c, 3, 79, 0
2, 100096, Note_on_c, 3, 80, 89
2, 100128, Note_off_c, 3, 80, 0
2, 100128, Note_on_c, 3, 77, 79
2, 100160, Note_off_c, 3, 77, 0
2, 100160, Note_on_c, 3, 83, 99
2, 100190, Note_off_c, 3, 83, 0
2, 100224, Note_on_c, 3, 72, 73
2, 100256, Note_off_c, 3, 72, 0
2, 100256, Note_on_c, 3, 78, 97
2, 100256, Note_on_c, 3, 102, 75
2, 100288, Note_off_c, 3, 78, 0
2, 100288, Note_off_c, 3, 102, 0
2, 100288, Note_on_c, 3, 81, 92
2, 100288, Note_on_c, 3, 93, 64
2, 100318, Note_off_c, 3, 93, 0
2, 100320, Note_off_c, 3, 81, 0
2, 100320, Note_on_c, 3, 76, 77
2, 100352, Note_off_c, 3, 76, 0
2, 100352, Note_on_c, 3, 84, 99
2, 100382, Note_off_c, 3, 84, 0
2, 100416, Note_on_c, 3, 85, 76
2, 100448, Note_off_c, 3, 85, 0
2, 100448, Note_on_c, 3, 76, 64
2, 100480, Note_off_c, 3, 76, 0
2, 100480, Note_on_c, 3, 78, 89
2, 100512, Note_off_c, 3, 78, 0
2, 100512, Note_on_c, 3, 75, 79
2, 100544, Note_off_c, 3, 75, 0
2, 100544, Note_on_c, 3, 87, 108
2, 100544, Note_on_c, 3, 99, 78
2, 100574, Note_off_c, 3, 87, 0
2, 100576, Note_off_c, 3, 99, 0
2, 100576, Note_on_c, 3, 97, 79
2, 100608, Note_off_c, 3, 97, 0
2, 100608, Note_on_c, 3, 81, 75
2, 100608, Note_on_c, 3, 93, 74
2, 100640, Note_off_c, 3, 81, 0
2, 100640, Note_off_c, 3, 93, 0
2, 100640, Note_on_c, 3, 72, 62
2, 100640, Note_on_c, 3, 84, 60
2, 100670, Note_off_c, 3, 84, 0
2, 100672, Note_off_c, 3, 72, 0
2, 100672, Note_on_c, 3, 78, 92
2, 100704, Note_off_c, 3, 78, 0
2, 100704, Note_on_c, 3, 74, 79
2, 100736, Note_off_c, 3, 74, 0
2, 100736, Note_on_c, 3, 84, 103
2, 100768, Note_off_c, 3, 84, 0
2, 100768, Note_on_c, 3, 85, 95
2, 100798, Note_off_c, 3, 85, 0
2, 100832, Note_on_c, 3, 77, 73
2, 100832, Note_on_c, 3, 101, 76
2, 100864, Note_off_c, 3, 77, 0
2, 100864, Note_off_c, 3, 101, 0
2, 100864, Note_on_c, 3, 81, 92
2, 100864, Note_on_c, 3, 103, 87
2, 100896, Note_off_c, 3, 81, 0
2, 100896, Note_off_c, 3, 103, 0
2, 100896, Note_on_c, 3, 84, 90
2, 100896, Note_on_c, 3, 96, 66
2, 100926, Note_off_c, 3, 84, 0
2, 100926, Note_off_c, 3, 96, 0
2, 100960, Note_on_c, 3, 76, 71
2, 100992, Note_off_c, 3, 76, 0
2, 100992, Note_on_c, 3, 73, 78
2, 101024, Note_off_c, 3, 73, 0
2, 101024, Note_on_c, 3, 77, 90
2, 101056, Note_off_c, 3, 77, 0
2, 101056, Note_on_c, 3, 80, 90
2, 101088, Note_off_c, 3, 80, 0
2, 101088, Note_on_c, 3, 83, 94
2, 101120, Note_off_c, 3, 83, 0
2, 101120, Note_on_c, 3, 84, 86
2, 101150, Note_off_c, 3, 84, 0
2, 101184, Note_on_c, 3, 85, 81
2, 101184, Note_on_c, 3, 97, 75
2, 101216, Note_off_c, 3, 85, 0
2, 101216, Note_off_c, 3, 97, 0
2, 101216, Note_on_c, 3, 78, 69
2, 101216, Note_on_c, 3, 90, 70
2, 101248, Note_off_c, 3, 78, 0
2, 101248, Note_off_c, 3, 90, 0
2, 101248, Note_on_c, 3, 81, 85
2, 101248, Note_on_c, 3, 93, 93
2, 101278, Note_off_c, 3, 93, 0
2, 101280, Note_off_c, 3, 81, 0
2, 101280, Note_on_c, 3, 84, 91
2, 101312, Note_off_c, 3, 84, 0
2, 101312, Note_on_c, 3, 70, 64
2, 101344, Note_off_c, 3, 70, 0
2, 101344, Note_on_c, 3, 72, 84
2, 101376, Note_off_c, 3, 72, 0
2, 101376, Note_on_c, 3, 76, 89
2, 101408, Note_off_c, 3, 76, 0
2, 101408, Note_on_c, 3, 82, 101
2, 101440, Note_off_c, 3, 82, 0
2, 101440, Note_on_c, 3, 72, 69
2, 101440, Note_on_c, 3, 84, 75
2, 101472, Note_off_c, 3, 72, 0
2, 101472, Note_off_c, 3, 84, 0
2, 101472, Note_on_c, 3, 78, 98
2, 101472, Note_on_c, 3, 90, 92
2, 101504, Note_off_c, 3, 78, 0
2, 101504, Note_off_c, 3, 90, 0
2, 101504, Note_on_c, 3, 82, 94
2, 101504, Note_on_c, 3, 94, 94
2, 101536, Note_off_c, 3, 82, 0
2, 101536, Note_off_c, 3, 94, 0
2, 101536, Note_on_c, 3, 88, 100
2, 101536, Note_on_c, 3, 100, 101
2, 101566, Note_off_c, 3, 100, 0
2, 101568, Note_off_c, 3, 88, 0
2, 101568, Note_on_c, 3, 66, 63
2, 101600, Note_off_c, 3, 66, 0
2, 101600, Note_on_c, 3, 70, 87
2, 101632, Note_off_c, 3, 70, 0
2, 101632, Note_on_c, 3, 76, 101
2, 101664, Note_off_c, 3, 76, 0
2, 101664, Note_on_c, 3, 72, 74
2, 101694, Note_off_c, 3, 72, 0
2, 101728, Note_on_c, 3, 80, 76
2, 101760, Note_off_c, 3, 80, 0
2, 101760, Note_on_c, 3, 75, 72
2, 101790, Note_off_c, 3, 75, 0
2, 101824, Note_on_c, 3, 78, 74
2, 101824, Note_on_c, 3, 90, 76
2, 101856, Note_off_c, 3, 78, 0
2, 101856, Note_off_c, 3, 90, 0
2, 101856, Note_on_c, 3, 82, 92
2, 101856, Note_on_c, 3, 94, 92
2, 101888, Note_off_c, 3, 82, 0
2, 101888, Note_off_c, 3, 94, 0
2, 101888, Note_on_c, 3, 84, 92
2, 101888, Note_on_c, 3, 96, 92
2, 101918, Note_off_c, 3, 84, 0
2, 101918, Note_off_c, 3, 96, 0
2, 101952, Note_on_c, 3, 73, 77
2, 101952, Note_on_c, 3, 97, 77
2, 101984, Note_off_c, 3, 73, 0
2, 101984, Note_off_c, 3, 97, 0
2, 101984, Note_on_c, 3, 77, 94
2, 101984, Note_on_c, 3, 89, 63
2, 102014, Note_off_c, 3, 89, 0
2, 102016, Note_off_c, 3, 77, 0
2, 102016, Note_on_c, 3, 80, 92
2, 102048, Note_off_c, 3, 80, 0
2, 102048, Note_on_c, 3, 83, 94
2, 102048, Note_on_c, 3, 95, 74
2, 102080, Note_off_c, 3, 83, 0
2, 102080, Note_off_c, 3, 95, 0
2, 102080, Note_on_c, 3, 87, 94
2, 102080, Note_on_c, 3, 99, 89
2, 102110, Note_off_c, 3, 87, 0
2, 102110, Note_off_c, 3, 99, 0
2, 102176, Note_on_c, 3, 73, 79
2, 102208, Note_off_c, 3, 73, 0
2, 102208, Note_on_c, 3, 77, 90
2, 102208, Note_on_c, 3, 89, 74
2, 102240, Note_off_c, 3, 77, 0
2, 102240, Note_off_c, 3, 89, 0
2, 102240, Note_on_c, 3, 80, 91
2, 102240, Note_on_c, 3, 92, 90
2, 102272, Note_off_c, 3, 80, 0
2, 102272, Note_off_c, 3, 92, 0
2, 102272, Note_on_c, 3, 87, 98
2, 102272, Note_on_c, 3, 99, 101
2, 102304, Note_off_c, 3, 87, 0
2, 102304, Note_off_c, 3, 99, 0
2, 102304, Note_on_c, 3, 88, 89
2, 102304, Note_on_c, 3, 100, 94
2, 102334, Note_off_c, 3, 100, 0
2, 102336, Note_off_c, 3, 88, 0
2, 102336, Note_on_c, 3, 82, 71
2, 102368, Note_off_c, 3, 82, 0
2, 102368, Note_on_c, 3, 76, 67
2, 102398, Note_off_c, 3, 76, 0
2, 102432, Note_on_c, 3, 83, 75
2, 102464, Note_off_c, 3, 83, 0
2, 102464, Note_on_c, 3, 82, 79
2, 102496, Note_off_c, 3, 82, 0
2, 102496, Note_on_c, 3, 78, 72
2, 102496, Note_on_c, 3, 102, 80
2, 102528, Note_off_c, 3, 78, 0
2, 102528, Note_off_c, 3, 102, 0
2, 102528, Note_on_c, 3, 76, 76
2, 102528, Note_on_c, 3, 100, 78
2, 102558, Note_off_c, 3, 100, 0
2, 102560, Note_off_c, 3, 76, 0
2, 102560, Note_on_c, 3, 73, 73
2, 102592, Note_off_c, 3, 73, 0
2, 102592, Note_on_c, 3, 72, 80
2, 102624, Note_off_c, 3, 72, 0
2, 102624, Note_on_c, 3, 64, 67
2, 102654, Note_off_c, 3, 64, 0
2, 108992, Note_on_c, 3, 65, 54
2, 109056, Note_on_c, 3, 68, 58
2, 109057, Note_off_c, 3, 65, 0
2, 109226, Note_on_c, 3, 70, 64
2, 109229, Note_off_c, 3, 68, 0
2, 109312, Note_on_c, 3, 80, 78
2, 109313, Note_off_c, 3, 70, 0
2, 109632, Note_on_c, 3, 72, 49
2, 109638, Note_off_c, 3, 80, 0
2, 109975, Note_off_c, 3, 72, 0
2, 109994, Note_on_c, 3, 80, 70
2, 110165, Note_on_c, 3, 82, 77
2, 110168, Note_off_c, 3, 80, 0
2, 110250, Note_on_c, 3, 78, 54
2, 110251, Note_off_c, 3, 82, 0
2, 110400, Note_on_c, 3, 76, 50
2, 110403, Note_off_c, 3, 78, 0
2, 110592, Note_on_c, 3, 75, 57
2, 110595, Note_off_c, 3, 76, 0
2, 110784, Note_on_c, 3, 73, 51
2, 110787, Note_off_c, 3, 75, 0
2, 110933, Note_on_c, 3, 72, 60
2, 110935, Note_off_c, 3, 73, 0
2, 111104, Note_on_c, 3, 70, 52
2, 111107, Note_off_c, 3, 72, 0
2, 111529, Note_off_c, 3, 70, 0
2, 111552, Note_on_c, 3, 72, 65
2, 111680, Note_on_c, 3, 73, 68
2, 111682, Note_off_c, 3, 72, 0
2, 111744, Note_on_c, 3, 82, 74
2, 111745, Note_off_c, 3, 73, 0
2, 111936, Note_on_c, 3, 84, 77
2, 111939, Note_off_c, 3, 82, 0
2, 112192, Note_on_c, 3, 86, 68
2, 112197, Note_off_c, 3, 84, 0
2, 112256, Note_on_c, 3, 82, 61
2, 112257, Note_off_c, 3, 86, 0
2, 112469, Note_on_c, 3, 80, 56
2, 112473, Note_off_c, 3, 82, 0
2, 112704, Note_on_c, 3, 78, 56
2, 112708, Note_off_c, 3, 80, 0
2, 112886, Note_off_c, 3, 78, 0
2, 112896, Note_on_c, 3, 77, 64
2, 112960, Note_on_c, 3, 75, 62
2, 112961, Note_off_c, 3, 77, 0
2, 113088, Note_on_c, 3, 73, 56
2, 113090, Note_off_c, 3, 75, 0
2, 113152, Note_on_c, 3, 72, 56
2, 113153, Note_off_c, 3, 73, 0
2, 113280, Note_on_c, 3, 70, 59
2, 113282, Note_off_c, 3, 72, 0
2, 113344, Note_on_c, 3, 68, 51
2, 113345, Note_off_c, 3, 70, 0
2, 113472, Note_on_c, 3, 66, 50
2, 113474, Note_off_c, 3, 68, 0
2, 113897, Note_off_c, 3, 66, 0
2, 113920, Note_on_c, 3, 61, 49
2, 113984, Note_on_c, 3, 62, 53
2, 113985, Note_off_c, 3, 61, 0
2, 114112, Note_on_c, 3, 64, 66
2, 114114, Note_off_c, 3, 62, 0
2, 114176, Note_on_c, 3, 72, 80
2, 114177, Note_off_c, 3, 64, 0
2, 114432, Note_on_c, 3, 70, 58
2, 114437, Note_off_c, 3, 72, 0
2, 114675, Note_off_c, 3, 70, 0
2, 114688, Note_on_c, 3, 65, 56
2, 114752, Note_on_c, 3, 66, 55
2, 114753, Note_off_c, 3, 65, 0
2, 114880, Note_on_c, 3, 68, 65
2, 114882, Note_off_c, 3, 66, 0
2, 114944, Note_on_c, 3, 80, 80
2, 114945, Note_off_c, 3, 68, 0
2, 115200, Note_on_c, 3, 74, 53
2, 115205, Note_off_c, 3, 80, 0
2, 115504, Note_off_c, 3, 74, 0
2, 115520, Note_on_c, 3, 69, 54
2, 115584, Note_on_c, 3, 70, 57
2, 115585, Note_off_c, 3, 69, 0
2, 115776, Note_on_c, 3, 72, 69
2, 115779, Note_off_c, 3, 70, 0
2, 115840, Note_on_c, 3, 84, 89
2, 115841, Note_off_c, 3, 72, 0
2, 116032, Note_on_c, 3, 76, 48
2, 116035, Note_off_c, 3, 84, 0
2, 116275, Note_off_c, 3, 76, 0
2, 116288, Note_on_c, 3, 71, 56
2, 116437, Note_off_c, 3, 71, 0
2, 116437, Note_on_c, 3, 73, 66
2, 116522, Note_on_c, 3, 75, 72
2, 116523, Note_off_c, 3, 73, 0
2, 116608, Note_on_c, 3, 91, 91
2, 116609, Note_off_c, 3, 75, 0
2, 116800, Note_on_c, 3, 84, 73
2, 116803, Note_off_c, 3, 91, 0
2, 117104, Note_off_c, 3, 84, 0
2, 117248, Note_on_c, 3, 84, 65
2, 117312, Note_on_c, 3, 85, 68
2, 117313, Note_off_c, 3, 84, 0
2, 117440, Note_on_c, 3, 87, 76
2, 117442, Note_off_c, 3, 85, 0
2, 117504, Note_on_c, 3, 98, 93
2, 117505, Note_off_c, 3, 87, 0
2, 117696, Note_on_c, 3, 94, 64
2, 117699, Note_off_c, 3, 98, 0
2, 118080, Note_on_c, 3, 96, 64
2, 118087, Note_off_c, 3, 94, 0
2, 118144, Note_on_c, 3, 92, 63
2, 118145, Note_off_c, 3, 96, 0
2, 118336, Note_on_c, 3, 90, 58
2, 118339, Note_off_c, 3, 92, 0
2, 118518, Note_off_c, 3, 90, 0
2, 118528, Note_on_c, 3, 88, 67
2, 118592, Note_on_c, 3, 90, 72
2, 118593, Note_off_c, 3, 88, 0
2, 118656, Note_on_c, 3, 86, 66
2, 118657, Note_off_c, 3, 90, 0
2, 118869, Note_on_c, 3, 84, 62
2, 118873, Note_off_c, 3, 86, 0
2, 119104, Note_on_c, 3, 87, 76
2, 119108, Note_off_c, 3, 84, 0
2, 119168, Note_on_c, 3, 82, 69
2, 119169, Note_off_c, 3, 87, 0
2, 119296, Note_on_c, 3, 80, 66
2, 119298, Note_off_c, 3, 82, 0
2, 119381, Note_on_c, 3, 83, 72
2, 119382, Note_off_c, 3, 80, 0
2, 119466, Note_on_c, 3, 79, 65
2, 119467, Note_off_c, 3, 83, 0
2, 119637, Note_on_c, 3, 77, 65
2, 119640, Note_off_c, 3, 79, 0
2, 119921, Note_off_c, 3, 77, 0
2, 119936, Note_on_c, 3, 84, 84
2, 120064, Note_on_c, 3, 80, 74
2, 120066, Note_off_c, 3, 84, 0
2, 120234, Note_on_c, 3, 87, 83
2, 120237, Note_off_c, 3, 80, 0
2, 120422, Note_on_c, 3, 94, 98
2, 120425, Note_off_c, 3, 87, 0
2, 120524, Note_on_c, 3, 89, 61
2, 120526, Note_off_c, 3, 94, 0
2, 120627, Note_on_c, 3, 99, 76
2, 120629, Note_off_c, 3, 89, 0
2, 120729, Note_on_c, 3, 92, 64
2, 120731, Note_off_c, 3, 99, 0
2, 121152, Note_on_c, 3, 93, 65
2, 121160, Note_off_c, 3, 92, 0
2, 121536, Note_on_c, 3, 100, 89
2, 121543, Note_off_c, 3, 93, 0
2, 121881, Note_on_c, 3, 67, 38
2, 121907, Note_off_c, 3, 67, 0
2, 121907, Note_on_c, 3, 69, 43
2, 121932, Note_off_c, 3, 69, 0
2, 121932, Note_on_c, 3, 72, 39
2, 121958, Note_off_c, 3, 72, 0
2, 121958, Note_on_c, 3, 78, 49
2, 121984, Note_off_c, 3, 78, 0
2, 121984, Note_on_c, 3, 76, 36
2, 121984, Note_on_c, 3, 67, 37
2, 122009, Note_off_c, 3, 76, 0
2, 122009, Note_off_c, 3, 67, 0
2, 122009, Note_on_c, 3, 78, 43
2, 122009, Note_on_c, 3, 69, 41
2, 122035, Note_off_c, 3, 78, 0
2, 122035, Note_off_c, 3, 69, 0
2, 122035, Note_on_c, 3, 79, 38
2, 122035, Note_on_c, 3, 71, 43
2, 122060, Note_off_c, 3, 79, 0
2, 122060, Note_off_c, 3, 71, 0
2, 122060, Note_on_c, 3, 81, 43
2, 122060, Note_on_c, 3, 72, 43
2, 122086, Note_off_c, 3, 81, 0
2, 122086, Note_off_c, 3, 72, 0
2, 122086, Note_on_c, 3, 84, 45
2, 122086, Note_on_c, 3, 76, 38
2, 122112, Note_off_c, 3, 84, 0
2, 122112, Note_off_c, 3, 76, 0
2, 122112, Note_on_c, 3, 88, 46
2, 122112, Note_on_c, 3, 78, 42
2, 122137, Note_off_c, 3, 88, 0
2, 122137, Note_off_c, 3, 78, 0
2, 122137, Note_on_c, 3, 90, 42
2, 122137, Note_on_c, 3, 67, 31
2, 122161, Note_off_c, 3, 90, 0
2, 122163, Note_off_c, 3, 67, 0
2, 122163, Note_on_c, 3, 69, 38
2, 122188, Note_off_c, 3, 69, 0
2, 122188, Note_on_c, 3, 71, 37
2, 122214, Note_off_c, 3, 71, 0
2, 122214, Note_on_c, 3, 74, 44
2, 122240, Note_off_c, 3, 74, 0
2, 122240, Note_on_c, 3, 78, 44
2, 122265, Note_off_c, 3, 78, 0
2, 122265, Note_on_c, 3, 69, 32
2, 122291, Note_off_c, 3, 69, 0
2, 122291, Note_on_c, 3, 62, 34
2, 122291, Note_on_c, 3, 72, 47
2, 122316, Note_off_c, 3, 62, 0
2, 122316, Note_off_c, 3, 72, 0
2, 122316, Note_on_c, 3, 66, 42
2, 122316, Note_on_c, 3, 79, 47
2, 122340, Note_off_c, 3, 79, 0
2, 122342, Note_off_c, 3, 66, 0
2, 122342, Note_on_c, 3, 67, 42
2, 122368, Note_off_c, 3, 67, 0
2, 122368, Note_on_c, 3, 69, 33
2, 122393, Note_off_c, 3, 69, 0
2, 122393, Note_on_c, 3, 67, 40
2, 122419, Note_off_c, 3, 67, 0
2, 122419, Note_on_c, 3, 71, 48
2, 122432, Note_on_c, 3, 102, 43
2, 122444, Note_off_c, 3, 71, 0
2, 122444, Note_on_c, 3, 74, 42
2, 122449, Note_off_c, 3, 100, 0
2, 122470, Note_off_c, 3, 74, 0
2, 122470, Note_on_c, 3, 76, 41
2, 122492, Note_off_c, 3, 102, 0
2, 122496, Note_off_c, 3, 76, 0
2, 122496, Note_on_c, 3, 78, 43
2, 122521, Note_off_c, 3, 78, 0
2, 122521, Note_on_c, 3, 81, 41
2, 122547, Note_off_c, 3, 81, 0
2, 122547, Note_on_c, 3, 79, 38
2, 122572, Note_off_c, 3, 79, 0
2, 122572, Note_on_c, 3, 84, 47
2, 122596, Note_off_c, 3, 84, 0
2, 122598, Note_on_c, 3, 67, 38
2, 122624, Note_off_c, 3, 67, 0
2, 122624, Note_on_c, 3, 69, 40
2, 122649, Note_off_c, 3, 69, 0
2, 122649, Note_on_c, 3, 72, 43
2, 122675, Note_off_c, 3, 72, 0
2, 122675, Note_on_c, 3, 78, 48
2, 122700, Note_off_c, 3, 78, 0
2, 122700, Note_on_c, 3, 76, 36
2, 122726, Note_off_c, 3, 76, 0
2, 122726, Note_on_c, 3, 81, 47
2, 122752, Note_off_c, 3, 81, 0
2, 122752, Note_on_c, 3, 71, 32
2, 122777, Note_off_c, 3, 71, 0
2, 122777, Note_on_c, 3, 72, 38
2, 122803, Note_off_c, 3, 72, 0
2, 122803, Note_on_c, 3, 74, 41
2, 122828, Note_off_c, 3, 74, 0
2, 122828, Note_on_c, 3, 79, 43
2, 122854, Note_off_c, 3, 79, 0
2, 122854, Note_on_c, 3, 78, 36
2, 122880, Note_off_c, 3, 78, 0
2, 122880, Note_on_c, 3, 66, 39
2, 122880, Note_on_c, 3, 79, 37
2, 122905, Note_off_c, 3, 66, 0
2, 122905, Note_off_c, 3, 79, 0
2, 122905, Note_on_c, 3, 69, 42
2, 122905, Note_on_c, 3, 76, 38
2, 122931, Note_off_c, 3, 69, 0
2, 122931, Note_off_c, 3, 76, 0
2, 122931, Note_on_c, 3, 67, 39
2, 122931, Note_on_c, 3, 81, 41
2, 122954, Note_off_c, 3, 81, 0
2, 122956, Note_off_c, 3, 67, 0
2, 122956, Note_on_c, 3, 71, 45
2, 122982, Note_off_c, 3, 71, 0
2, 122982, Note_on_c, 3, 74, 42
2, 123008, Note_off_c, 3, 74, 0
2, 123008, Note_on_c, 3, 72, 39
2, 123033, Note_off_c, 3, 72, 0
2, 123033, Note_on_c, 3, 76, 41
2, 123059, Note_off_c, 3, 76, 0
2, 123059, Note_on_c, 3, 72, 37
2, 123084, Note_off_c, 3, 72, 0
2, 123084, Note_on_c, 3, 78, 46
2, 123110, Note_off_c, 3, 78, 0
2, 123110, Note_on_c, 3, 81, 40
2, 123136, Note_off_c, 3, 81, 0
2, 123136, Note_on_c, 3, 84, 44
2, 123136, Note_on_c, 3, 67, 37
2, 123159, Note_off_c, 3, 84, 0
2, 123161, Note_off_c, 3, 67, 0
2, 123161, Note_on_c, 3, 69, 41
2, 123187, Note_off_c, 3, 69, 0
2, 123187, Note_on_c, 3, 71, 43
2, 123212, Note_off_c, 3, 71, 0
2, 123212, Note_on_c, 3, 72, 48
2, 123238, Note_off_c, 3, 72, 0
2, 123238, Note_on_c, 3, 76, 47
2, 123264, Note_off_c, 3, 76, 0
2, 123264, Note_on_c, 3, 78, 44
2, 123289, Note_off_c, 3, 78, 0
2, 123289, Note_on_c, 3, 69, 33
2, 123315, Note_off_c, 3, 69, 0
2, 123315, Note_on_c, 3, 72, 43
2, 123340, Note_off_c, 3, 72, 0
2, 123340, Note_on_c, 3, 71, 43
2, 123366, Note_off_c, 3, 71, 0
2, 123366, Note_on_c, 3, 76, 47
2, 123392, Note_off_c, 3, 76, 0
2, 123392, Note_on_c, 3, 71, 28
2, 123392, Note_on_c, 3, 81, 47
2, 123417, Note_off_c, 3, 71, 0
2, 123417, Note_off_c, 3, 81, 0
2, 123417, Note_on_c, 3, 72, 40
2, 123417, Note_on_c, 3, 78, 38
2, 123443, Note_off_c, 3, 72, 0
2, 123443, Note_off_c, 3, 78, 0
2, 123443, Note_on_c, 3, 76, 43
2, 123443, Note_on_c, 3, 79, 44
2, 123468, Note_off_c, 3, 76, 0
2, 123468, Note_off_c, 3, 79, 0
2, 123468, Note_on_c, 3, 78, 47
2, 123468, Note_on_c, 3, 83, 47
2, 123492, Note_off_c, 3, 83, 0
2, 123494, Note_off_c, 3, 78, 0
2, 123494, Note_on_c, 3, 79, 39
2, 123520, Note_off_c, 3, 79, 0
2, 123520, Note_on_c, 3, 81, 42
2, 123545, Note_off_c, 3, 81, 0
2, 123545, Note_on_c, 3, 83, 43
2, 123571, Note_off_c, 3, 83, 0
2, 123571, Note_on_c, 3, 87, 41
2, 123596, Note_off_c, 3, 87, 0
2, 123596, Note_on_c, 3, 90, 42
2, 123620, Note_off_c, 3, 90, 0
2, 123776, Note_on_c, 3, 72, 36
2, 123801, Note_off_c, 3, 72, 0
2, 123801, Note_on_c, 3, 76, 45
2, 123827, Note_off_c, 3, 76, 0
2, 123827, Note_on_c, 3, 78, 39
2, 123852, Note_off_c, 3, 78, 0
2, 123852, Note_on_c, 3, 76, 35
2, 123878, Note_off_c, 3, 76, 0
2, 123878, Note_on_c, 3, 79, 46
2, 123904, Note_off_c, 3, 79, 0
2, 123904, Note_on_c, 3, 67, 37
2, 123904, Note_on_c, 3, 81, 38
2, 123929, Note_off_c, 3, 67, 0
2, 123929, Note_off_c, 3, 81, 0
2, 123929, Note_on_c, 3, 69, 39
2, 123929, Note_on_c, 3, 83, 39
2, 123955, Note_off_c, 3, 69, 0
2, 123955, Note_off_c, 3, 83, 0
2, 123955, Note_on_c, 3, 71, 46
2, 123955, Note_on_c, 3, 84, 43
2, 123980, Note_off_c, 3, 71, 0
2, 123980, Note_off_c, 3, 84, 0
2, 123980, Note_on_c, 3, 72, 42
2, 123980, Note_on_c, 3, 88, 45
2, 124004, Note_off_c, 3, 88, 0
2, 124006, Note_off_c, 3, 72, 0
2, 124006, Note_on_c, 3, 76, 44
2, 124032, Note_off_c, 3, 76, 0
2, 124032, Note_on_c, 3, 78, 39
2, 124057, Note_off_c, 3, 78, 0
2, 124057, Note_on_c, 3, 69, 28
2, 124083, Note_off_c, 3, 69, 0
2, 124083, Note_on_c, 3, 72, 44
2, 124108, Note_off_c, 3, 72, 0
2, 124108, Note_on_c, 3, 71, 37
2, 124134, Note_off_c, 3, 71, 0
2, 124134, Note_on_c, 3, 76, 43
2, 124160, Note_off_c, 3, 76, 0
2, 124160, Note_on_c, 3, 81, 43
2, 124160, Note_on_c, 3, 67, 34
2, 124185, Note_off_c, 3, 81, 0
2, 124185, Note_off_c, 3, 67, 0
2, 124185, Note_on_c, 3, 76, 37
2, 124185, Note_on_c, 3, 69, 43
2, 124211, Note_off_c, 3, 76, 0
2, 124211, Note_off_c, 3, 69, 0
2, 124211, Note_on_c, 3, 78, 43
2, 124211, Note_on_c, 3, 71, 41
2, 124236, Note_off_c, 3, 78, 0
2, 124236, Note_off_c, 3, 71, 0
2, 124236, Note_on_c, 3, 81, 44
2, 124236, Note_on_c, 3, 72, 43
2, 124262, Note_off_c, 3, 81, 0
2, 124262, Note_off_c, 3, 72, 0
2, 124262, Note_on_c, 3, 88, 42
2, 124262, Note_on_c, 3, 76, 45
2, 124286, Note_off_c, 3, 88, 0
2, 124288, Note_off_c, 3, 76, 0
2, 124288, Note_on_c, 3, 78, 41
2, 124313, Note_off_c, 3, 78, 0
2, 124313, Note_on_c, 3, 67, 33
2, 124339, Note_off_c, 3, 67, 0
2, 124339, Note_on_c, 3, 69, 37
2, 124364, Note_off_c, 3, 69, 0
2, 124364, Note_on_c, 3, 72, 46
2, 124390, Note_off_c, 3, 72, 0
2, 124390, Note_on_c, 3, 76, 46
2, 124416, Note_off_c, 3, 76, 0
2, 124416, Note_on_c, 3, 78, 41
2, 124441, Note_off_c, 3, 78, 0
2, 124441, Note_on_c, 3, 72, 30
2, 124467, Note_off_c, 3, 72, 0
2, 124467, Note_on_c, 3, 74, 38
2, 124492, Note_off_c, 3, 74, 0
2, 124492, Note_on_c, 3, 78, 44
2, 124518, Note_off_c, 3, 78, 0
2, 124518, Note_on_c, 3, 84, 46
2, 124542, Note_off_c, 3, 84, 0
2, 124672, Note_on_c, 3, 62, 33
2, 124697, Note_off_c, 3, 62, 0
2, 124697, Note_on_c, 3, 64, 40
2, 124723, Note_off_c, 3, 64, 0
2, 124723, Note_on_c, 3, 66, 41
2, 124748, Note_off_c, 3, 66, 0
2, 124748, Note_on_c, 3, 67, 37
2, 124774, Note_off_c, 3, 67, 0
2, 124774, Note_on_c, 3, 69, 42
2, 124800, Note_off_c, 3, 69, 0
2, 124800, Note_on_c, 3, 66, 34
2, 124825, Note_off_c, 3, 66, 0
2, 124825, Note_on_c, 3, 71, 47
2, 124851, Note_off_c, 3, 71, 0
2, 124851, Note_on_c, 3, 72, 40
2, 124876, Note_off_c, 3, 72, 0
2, 124876, Note_on_c, 3, 76, 50
2, 124902, Note_off_c, 3, 76, 0
2, 124902, Note_on_c, 3, 78, 41
2, 124928, Note_off_c, 3, 78, 0
2, 124928, Note_on_c, 3, 81, 41
2, 124951, Note_off_c, 3, 81, 0
2, 124953, Note_on_c, 3, 71, 28
2, 124979, Note_off_c, 3, 71, 0
2, 124979, Note_on_c, 3, 81, 44
2, 125004, Note_off_c, 3, 81, 0
2, 125004, Note_on_c, 3, 79, 35
2, 125030, Note_off_c, 3, 79, 0
2, 125030, Note_on_c, 3, 88, 47
2, 125056, Note_off_c, 3, 88, 0
2, 125056, Note_on_c, 3, 90, 44
2, 125079, Note_off_c, 3, 90, 0
2, 125184, Note_on_c, 3, 64, 35
2, 125209, Note_off_c, 3, 64, 0
2, 125209, Note_on_c, 3, 66, 44
2, 125235, Note_off_c, 3, 66, 0
2, 125235, Note_on_c, 3, 69, 45
2, 125260, Note_off_c, 3, 69, 0
2, 125260, Note_on_c, 3, 67, 36
2, 125286, Note_off_c, 3, 67, 0
2, 125286, Note_on_c, 3, 69, 45
2, 125312, Note_off_c, 3, 69, 0
2, 125312, Note_on_c, 3, 71, 40
2, 125337, Note_off_c, 3, 71, 0
2, 125337, Note_on_c, 3, 74, 42
2, 125363, Note_off_c, 3, 74, 0
2, 125363, Note_on_c, 3, 72, 39
2, 125388, Note_off_c, 3, 72, 0
2, 125388, Note_on_c, 3, 76, 44
2, 125414, Note_off_c, 3, 76, 0
2, 125414, Note_on_c, 3, 78, 38
2, 125440, Note_off_c, 3, 78, 0
2, 125440, Note_on_c, 3, 67, 38
2, 125440, Note_on_c, 3, 81, 43
2, 125465, Note_off_c, 3, 67, 0
2, 125465, Note_off_c, 3, 81, 0
2, 125465, Note_on_c, 3, 69, 42
2, 125465, Note_on_c, 3, 69, 32
2, 125491, Note_off_c, 3, 69, 0
2, 125491, Note_off_c, 3, 69, 0
2, 125491, Note_on_c, 3, 71, 45
2, 125491, Note_on_c, 3, 71, 42
2, 125516, Note_off_c, 3, 71, 0
2, 125516, Note_off_c, 3, 71, 0
2, 125516, Note_on_c, 3, 72, 41
2, 125516, Note_on_c, 3, 72, 46
2, 125542, Note_off_c, 3, 72, 0
2, 125542, Note_off_c, 3, 72, 0
2, 125542, Note_on_c, 3, 76, 42
2, 125542, Note_on_c, 3, 78, 50
2, 125568, Note_off_c, 3, 76, 0
2, 125568, Note_off_c, 3, 78, 0
2, 125568, Note_on_c, 3, 78, 41
2, 125568, Note_on_c, 3, 79, 42
2, 125593, Note_off_c, 3, 78, 0
2, 125593, Note_off_c, 3, 79, 0
2, 125593, Note_on_c, 3, 67, 32
2, 125593, Note_on_c, 3, 81, 40
2, 125619, Note_off_c, 3, 67, 0
2, 125619, Note_off_c, 3, 81, 0
2, 125619, Note_on_c, 3, 69, 45
2, 125619, Note_on_c, 3, 79, 40
2, 125644, Note_off_c, 3, 69, 0
2, 125644, Note_off_c, 3, 79, 0
2, 125644, Note_on_c, 3, 72, 41
2, 125644, Note_on_c, 3, 81, 41
2, 125670, Note_off_c, 3, 72, 0
2, 125670, Note_off_c, 3, 81, 0
2, 125670, Note_on_c, 3, 78, 48
2, 125670, Note_on_c, 3, 84, 46
2, 125694, Note_off_c, 3, 84, 0
2, 125696, Note_off_c, 3, 78, 0
2, 125696, Note_on_c, 3, 79, 43
2, 125719, Note_off_c, 3, 79, 0
2, 125721, Note_on_c, 3, 72, 34
2, 125747, Note_off_c, 3, 72, 0
2, 125747, Note_on_c, 3, 74, 42
2, 125772, Note_off_c, 3, 74, 0
2, 125772, Note_on_c, 3, 78, 45
2, 125798, Note_off_c, 3, 78, 0
2, 125798, Note_on_c, 3, 88, 49
2, 125822, Note_off_c, 3, 88, 0
2, 125824, Note_on_c, 3, 67, 34
2, 125849, Note_off_c, 3, 67, 0
2, 125849, Note_on_c, 3, 69, 41
2, 125875, Note_off_c, 3, 69, 0
2, 125875, Note_on_c, 3, 72, 46
2, 125900, Note_off_c, 3, 72, 0
2, 125900, Note_on_c, 3, 76, 42
2, 125926, Note_off_c, 3, 76, 0
2, 125926, Note_on_c, 3, 78, 44
2, 125952, Note_off_c, 3, 78, 0
2, 125952, Note_on_c, 3, 72, 31
2, 125977, Note_off_c, 3, 72, 0
2, 125977, Note_on_c, 3, 74, 41
2, 126003, Note_off_c, 3, 74, 0
2, 126003, Note_on_c, 3, 78, 41
2, 126026, Note_off_c, 3, 78, 0
2, 126080, Note_on_c, 3, 64, 36
2, 126105, Note_off_c, 3, 64, 0
2, 126105, Note_on_c, 3, 66, 37
2, 126131, Note_off_c, 3, 66, 0
2, 126131, Note_on_c, 3, 69, 43
2, 126156, Note_off_c, 3, 69, 0
2, 126156, Note_on_c, 3, 67, 40
2, 126182, Note_off_c, 3, 67, 0
2, 126182, Note_on_c, 3, 71, 44
2, 126208, Note_off_c, 3, 71, 0
2, 126208, Note_on_c, 3, 72, 37
2, 126233, Note_off_c, 3, 72, 0
2, 126233, Note_on_c, 3, 69, 34
2, 126259, Note_off_c, 3, 69, 0
2, 126259, Note_on_c, 3, 74, 44
2, 126284, Note_off_c, 3, 74, 0
2, 126284, Note_on_c, 3, 76, 45
2, 126310, Note_off_c, 3, 76, 0
2, 126310, Note_on_c, 3, 78, 45
2, 126336, Note_off_c, 3, 78, 0
2, 126336, Note_on_c, 3, 81, 43
2, 126361, Note_off_c, 3, 81, 0
2, 126361, Note_on_c, 3, 76, 35
2, 126387, Note_off_c, 3, 76, 0
2, 126387, Note_on_c, 3, 81, 44
2, 126412, Note_off_c, 3, 81, 0
2, 126412, Note_on_c, 3, 84, 41
2, 126438, Note_off_c, 3, 84, 0
2, 126438, Note_on_c, 3, 86, 42
2, 126464, Note_off_c, 3, 86, 0
2, 126464, Note_on_c, 3, 88, 41
2, 126464, Note_on_c, 3, 81, 41
2, 126489, Note_off_c, 3, 88, 0
2, 126489, Note_off_c, 3, 81, 0
2, 126489, Note_on_c, 3, 83, 35
2, 126489, Note_on_c, 3, 76, 31
2, 126515, Note_off_c, 3, 83, 0
2, 126515, Note_off_c, 3, 76, 0
2, 126515, Note_on_c, 3, 84, 39
2, 126515, Note_on_c, 3, 81, 40
2, 126540, Note_off_c, 3, 84, 0
2, 126540, Note_off_c, 3, 81, 0
2, 126540, Note_on_c, 3, 88, 38
2, 126540, Note_on_c, 3, 84, 45
2, 126566, Note_off_c, 3, 88, 0
2, 126566, Note_off_c, 3, 84, 0
2, 126566, Note_on_c, 3, 90, 44
2, 126566, Note_on_c, 3, 86, 40
2, 126590, Note_off_c, 3, 90, 0
2, 126592, Note_off_c, 3, 86, 0
2, 126592, Note_on_c, 3, 88, 42
2, 126617, Note_off_c, 3, 88, 0
2, 126617, Note_on_c, 3, 83, 32
2, 126643, Note_off_c, 3, 83, 0
2, 126643, Note_on_c, 3, 84, 39
2, 126668, Note_off_c, 3, 84, 0
2, 126668, Note_on_c, 3, 88, 43
2, 126694, Note_off_c, 3, 88, 0
2, 126694, Note_on_c, 3, 91, 48
2, 126718, Note_off_c, 3, 91, 0
2, 126720, Note_on_c, 3, 78, 32
2, 126745, Note_off_c, 3, 78, 0
2, 126745, Note_on_c, 3, 81, 44
2, 126771, Note_off_c, 3, 81, 0
2, 126771, Note_on_c, 3, 76, 33
2, 126796, Note_off_c, 3, 76, 0
2, 126796, Note_on_c, 3, 81, 42
2, 126822, Note_off_c, 3, 81, 0
2, 126822, Note_on_c, 3, 84, 49
2, 126848, Note_off_c, 3, 84, 0
2, 126848, Note_on_c, 3, 86, 40
2, 126873, Note_off_c, 3, 86, 0
2, 126873, Note_on_c, 3, 88, 41
2, 126899, Note_off_c, 3, 88, 0
2, 126899, Note_on_c, 3, 83, 39
2, 126924, Note_off_c, 3, 83, 0
2, 126924, Note_on_c, 3, 84, 45
2, 126950, Note_off_c, 3, 84, 0
2, 126950, Note_on_c, 3, 88, 48
2, 126976, Note_off_c, 3, 88, 0
2, 126976, Note_on_c, 3, 91, 41
2, 126999, Note_off_c, 3, 91, 0
2, 131840, Note_on_c, 3, 82, 70
2, 131840, Note_on_c, 3, 85, 70
2, 131840, Note_on_c, 3, 90, 70
2, 131840, Note_on_c, 3, 94, 70
2, 131872, Note_off_c, 3, 82, 0
2, 131872, Note_off_c, 3, 85, 0
2, 131872, Note_off_c, 3, 90, 0
2, 131872, Note_off_c, 3, 94, 0
2, 132096, Note_on_c, 3, 82, 84
2, 132096, Note_on_c, 3, 85, 84
2, 132096, Note_on_c, 3, 90, 84
2, 132096, Note_on_c, 3, 94, 84
2, 132352, Note_off_c, 3, 82, 0
2, 132352, Note_off_c, 3, 85, 0
2, 132352, Note_off_c, 3, 90, 0
2, 132352, Note_off_c, 3, 94, 0
2, 132352, Note_on_c, 3, 82, 81
2, 132352, Note_on_c, 3, 85, 81
2, 132352, Note_on_c, 3, 90, 81
2, 132352, Note_on_c, 3, 94, 81
2, 132384, Note_off_c, 3, 82, 0
2, 132384, Note_off_c, 3, 85, 0
2, 132384, Note_off_c, 3, 90, 0
2, 132384, Note_off_c, 3, 94, 0
2, 132608, Note_on_c, 3, 82, 76
2, 132608, Note_on_c, 3, 85, 76
2, 132608, Note_on_c, 3, 90, 76
2, 132608, Note_on_c, 3, 94, 76
2, 132864, Note_off_c, 3, 82, 0
2, 132864, Note_off_c, 3, 85, 0
2, 132864, Note_off_c, 3, 90, 0
2, 132864, Note_off_c, 3, 94, 0
2, 133888, Note_on_c, 3, 82, 81
2, 133888, Note_on_c, 3, 85, 81
2, 133888, Note_on_c, 3, 90, 81
2, 133888, Note_on_c, 3, 94, 81
2, 134144, Note_off_c, 3, 82, 0
2, 134144, Note_off_c, 3, 85, 0
2, 134144, Note_off_c, 3, 90, 0
2, 134144, Note_off_c, 3, 94, 0
2, 134144, Note_on_c, 3, 82, 81
2, 134144, Note_on_c, 3, 85, 81
2, 134144, Note_on_c, 3, 90, 81
2, 134144, Note_on_c, 3, 94, 81
2, 134176, Note_off_c, 3, 82, 0
2, 134176, Note_off_c, 3, 85, 0
2, 134176, Note_off_c, 3, 90, 0
2, 134176, Note_off_c, 3, 94, 0
2, 134400, Note_on_c, 3, 82, 75
2, 134400, Note_on_c, 3, 85, 75
2, 134400, Note_on_c, 3, 90, 75
2, 134400, Note_on_c, 3, 94, 75
2, 134432, Note_off_c, 3, 82, 0
2, 134432, Note_off_c, 3, 85, 0
2, 134432, Note_off_c, 3, 90, 0
2, 134432, Note_off_c, 3, 94, 0
2, 134656, Note_on_c, 3, 82, 83
2, 134656, Note_on_c, 3, 85, 83
2, 134656, Note_on_c, 3, 90, 83
2, 134656, Note_on_c, 3, 94, 83
2, 134912, Note_off_c, 3, 82, 0
2, 134912, Note_off_c, 3, 85, 0
2, 134912, Note_off_c, 3, 90, 0
2, 134912, Note_off_c, 3, 94, 0
2, 135936, Note_on_c, 3, 82, 84
2, 135936, Note_on_c, 3, 85, 84
2, 135936, Note_on_c, 3, 90, 84
2, 135936, Note_on_c, 3, 94, 84
2, 136192, Note_off_c, 3, 82, 0
2, 136192, Note_off_c, 3, 85, 0
2, 136192, Note_off_c, 3, 90, 0
2, 136192, Note_off_c, 3, 94, 0
2, 136192, Note_on_c, 3, 82, 83
2, 136192, Note_on_c, 3, 85, 83
2, 136192, Note_on_c, 3, 90, 83
2, 136192, Note_on_c, 3, 94, 83
2, 136224, Note_off_c, 3, 82, 0
2, 136224, Note_off_c, 3, 85, 0
2, 136224, Note_off_c, 3, 90, 0
2, 136224, Note_off_c, 3, 94, 0
2, 136960, Note_on_c, 3, 82, 72
2, 136960, Note_on_c, 3, 85, 72
2, 136960, Note_on_c, 3, 90, 72
2, 136960, Note_on_c, 3, 94, 72
2, 136992, Note_off_c, 3, 82, 0
2, 136992, Note_off_c, 3, 85, 0
2, 136992, Note_off_c, 3, 90, 0
2, 136992, Note_off_c, 3, 94, 0
2, 137216, Note_on_c, 3, 82, 87
2, 137216, Note_on_c, 3, 85, 87
2, 137216, Note_on_c, 3, 90, 87
2, 137216, Note_on_c, 3, 94, 87
2, 137472, Note_off_c, 3, 82, 0
2, 137472, Note_off_c, 3, 85, 0
2, 137472, Note_off_c, 3, 90, 0
2, 137472, Note_off_c, 3, 94, 0
2, 137472, Note_on_c, 3, 82, 82
2, 137472, Note_on_c, 3, 85, 82
2, 137472, Note_on_c, 3, 90, 82
2, 137472, Note_on_c, 3, 94, 82
2, 137504, Note_off_c, 3, 82, 0
2, 137504, Note_off_c, 3, 85, 0
2, 137504, Note_off_c, 3, 90, 0
2, 137504, Note_off_c, 3, 94, 0
2, 137728, Note_on_c, 3, 82, 83
2, 137728, Note_on_c, 3, 85, 83
2, 137728, Note_on_c, 3, 90, 83
2, 137728, Note_on_c, 3, 94, 83
2, 137984, Note_off_c, 3, 82, 0
2, 137984, Note_off_c, 3, 85, 0
2, 137984, Note_off_c, 3, 90, 0
2, 137984, Note_off_c, 3, 94, 0
2, 139008, Note_on_c, 3, 82, 81
2, 139008, Note_on_c, 3, 85, 81
2, 139008, Note_on_c, 3, 90, 81
2, 139008, Note_on_c, 3, 94, 81
2, 139264, Note_off_c, 3, 82, 0
2, 139264, Note_off_c, 3, 85, 0
2, 139264, Note_off_c, 3, 90, 0
2, 139264, Note_off_c, 3, 94, 0
2, 139264, Note_on_c, 3, 82, 92
2, 139264, Note_on_c, 3, 85, 92
2, 139264, Note_on_c, 3, 90, 92
2, 139264, Note_on_c, 3, 94, 92
2, 139520, Note_off_c, 3, 82, 0
2, 139520, Note_off_c, 3, 85, 0
2, 139520, Note_off_c, 3, 90, 0
2, 139520, Note_off_c, 3, 94, 0
2, 139520, Note_on_c, 3, 82, 80
2, 139520, Note_on_c, 3, 85, 80
2, 139520, Note_on_c, 3, 90, 80
2, 139520, Note_on_c, 3, 94, 80
2, 139552, Note_off_c, 3, 82, 0
2, 139552, Note_off_c, 3, 85, 0
2, 139552, Note_off_c, 3, 90, 0
2, 139552, Note_off_c, 3, 94, 0
2, 139776, Note_on_c, 3, 82, 81
2, 139776, Note_on_c, 3, 85, 81
2, 139776, Note_on_c, 3, 90, 81
2, 139776, Note_on_c, 3, 94, 81
2, 140032, Note_off_c, 3, 82, 0
2, 140032, Note_off_c, 3, 85, 0
2, 140032, Note_off_c, 3, 90, 0
2, 140032, Note_off_c, 3, 94, 0
2, 141056, Note_on_c, 3, 82, 82
2, 141056, Note_on_c, 3, 85, 82
2, 141056, Note_on_c, 3, 90, 82
2, 141056, Note_on_c, 3, 94, 82
2, 141312, Note_off_c, 3, 82, 0
2, 141312, Note_off_c, 3, 85, 0
2, 141312, Note_off_c, 3, 90, 0
2, 141312, Note_off_c, 3, 94, 0
2, 141312, Note_on_c, 3, 81, 79
2, 141312, Note_on_c, 3, 86, 79
2, 141312, Note_on_c, 3, 90, 79
2, 141312, Note_on_c, 3, 93, 79
2, 141344, Note_off_c, 3, 81, 0
2, 141344, Note_off_c, 3, 86, 0
2, 141344, Note_off_c, 3, 90, 0
2, 141344, Note_off_c, 3, 93, 0
2, 141568, Note_on_c, 3, 81, 75
2, 141568, Note_on_c, 3, 86, 75
2, 141568, Note_on_c, 3, 90, 75
2, 141568, Note_on_c, 3, 93, 75
2, 141600, Note_off_c, 3, 81, 0
2, 141600, Note_off_c, 3, 86, 0
2, 141600, Note_off_c, 3, 90, 0
2, 141600, Note_off_c, 3, 93, 0
2, 141824, Note_on_c, 3, 81, 73
2, 141824, Note_on_c, 3, 86, 73
2, 141824, Note_on_c, 3, 90, 73
2, 141824, Note_on_c, 3, 93, 73
2, 141856, Note_off_c, 3, 81, 0
2, 141856, Note_off_c, 3, 86, 0
2, 141856, Note_off_c, 3, 90, 0
2, 141856, Note_off_c, 3, 93, 0
2, 142592, Note_on_c, 3, 81, 74
2, 142592, Note_on_c, 3, 86, 74
2, 142592, Note_on_c, 3, 90, 74
2, 142592, Note_on_c, 3, 93, 74
2, 142624, Note_off_c, 3, 81, 0
2, 142624, Note_off_c, 3, 86, 0
2, 142624, Note_off_c, 3, 90, 0
2, 142624, Note_off_c, 3, 93, 0
2, 142848, Note_on_c, 3, 81, 75
2, 142848, Note_on_c, 3, 86, 75
2, 142848, Note_on_c, 3, 90, 75
2, 142848, Note_on_c, 3, 93, 75
2, 142880, Note_off_c, 3, 81, 0
2, 142880, Note_off_c, 3, 86, 0
2, 142880, Note_off_c, 3, 90, 0
2, 142880, Note_off_c, 3, 93, 0
2, 143104, Note_on_c, 3, 81, 79
2, 143104, Note_on_c, 3, 86, 79
2, 143104, Note_on_c, 3, 90, 79
2, 143104, Note_on_c, 3, 93, 79
2, 143136, Note_off_c, 3, 81, 0
2, 143136, Note_off_c, 3, 86, 0
2, 143136, Note_off_c, 3, 90, 0
2, 143136, Note_off_c, 3, 93, 0
2, 143360, Note_on_c, 3, 81, 73
2, 143360, Note_on_c, 3, 86, 73
2, 143360, Note_on_c, 3, 90, 73
2, 143360, Note_on_c, 3, 93, 73
2, 143392, Note_off_c, 3, 81, 0
2, 143392, Note_off_c, 3, 86, 0
2, 143392, Note_off_c, 3, 90, 0
2, 143392, Note_off_c, 3, 93, 0
2, 143616, Note_on_c, 3, 81, 77
2, 143616, Note_on_c, 3, 86, 77
2, 143616, Note_on_c, 3, 90, 77
2, 143616, Note_on_c, 3, 93, 77
2, 143648, Note_off_c, 3, 81, 0
2, 143648, Note_off_c, 3, 86, 0
2, 143648, Note_off_c, 3, 90, 0
2, 143648, Note_off_c, 3, 93, 0
2, 143872, Note_on_c, 3, 81, 75
2, 143872, Note_on_c, 3, 86, 75
2, 143872, Note_on_c, 3, 90, 75
2, 143872, Note_on_c, 3, 93, 75
2, 143904, Note_off_c, 3, 81, 0
2, 143904, Note_off_c, 3, 86, 0
2, 143904, Note_off_c, 3, 90, 0
2, 143904, Note_off_c, 3, 93, 0
2, 144256, Note_on_c, 3, 72, 75
2, 144256, Note_on_c, 3, 76, 75
2, 144256, Note_on_c, 3, 79, 75
2, 144320, Note_on_c, 3, 84, 90
2, 144320, Note_on_c, 3, 88, 90
2, 144320, Note_on_c, 3, 91, 90
2, 144321, Note_off_c, 3, 72, 0
2, 144321, Note_off_c, 3, 76, 0
2, 144321, Note_off_c, 3, 79, 0
2, 144380, Note_off_c, 3, 84, 0
2, 144380, Note_off_c, 3, 88, 0
2, 144380, Note_off_c, 3, 91, 0
2, 144384, Note_on_c, 3, 84, 104
2, 144384, Note_on_c, 3, 88, 104
2, 144384, Note_on_c, 3, 91, 104
2, 144384, Note_on_c, 3, 93, 104
2, 144512, Note_off_c, 3, 84, 0
2, 144512, Note_off_c, 3, 88, 0
2, 144512, Note_off_c, 3, 91, 0
2, 144512, Note_off_c, 3, 93, 0
2, 144512, Note_on_c, 3, 84, 83
2, 144512, Note_on_c, 3, 88, 83
2, 144512, Note_on_c, 3, 91, 83
2, 144544, Note_off_c, 3, 84, 0
2, 144544, Note_off_c, 3, 88, 0
2, 144544, Note_off_c, 3, 91, 0
2, 144768, Note_on_c, 3, 72, 76
2, 144768, Note_on_c, 3, 76, 76
2, 144768, Note_on_c, 3, 79, 76
2, 144832, Note_on_c, 3, 84, 96
2, 144832, Note_on_c, 3, 88, 96
2, 144832, Note_on_c, 3, 91, 96
2, 144833, Note_off_c, 3, 72, 0
2, 144833, Note_off_c, 3, 76, 0
2, 144833, Note_off_c, 3, 79, 0
2, 144892, Note_off_c, 3, 84, 0
2, 144892, Note_off_c, 3, 88, 0
2, 144892, Note_off_c, 3, 91, 0
2, 144896, Note_on_c, 3, 84, 99
2, 144896, Note_on_c, 3, 88, 99
2, 144896, Note_on_c, 3, 91, 99
2, 144896, Note_on_c, 3, 93, 99
2, 145024, Note_off_c, 3, 84, 0
2, 145024, Note_off_c, 3, 88, 0
2, 145024, Note_off_c, 3, 91, 0
2, 145024, Note_off_c, 3, 93, 0
2, 145024, Note_on_c, 3, 84, 82
2, 145024, Note_on_c, 3, 88, 82
2, 145024, Note_on_c, 3, 91, 82
2, 145056, Note_off_c, 3, 84, 0
2, 145056, Note_off_c, 3, 88, 0
2, 145056, Note_off_c, 3, 91, 0
2, 145280, Note_on_c, 3, 72, 72
2, 145280, Note_on_c, 3, 76, 72
2, 145280, Note_on_c, 3, 79, 72
2, 145344, Note_on_c, 3, 84, 92
2, 145344, Note_on_c, 3, 88, 92
2, 145344, Note_on_c, 3, 91, 92
2, 145345, Note_off_c, 3, 72, 0
2, 145345, Note_off_c, 3, 76, 0
2, 145345, Note_off_c, 3, 79, 0
2, 145404, Note_off_c, 3, 84, 0
2, 145404, Note_off_c, 3, 88, 0
2, 145404, Note_off_c, 3, 91, 0
2, 145408, Note_on_c, 3, 84, 101
2, 145408, Note_on_c, 3, 88, 101
2, 145408, Note_on_c, 3, 91, 101
2, 145408, Note_on_c, 3, 93, 101
2, 145536, Note_off_c, 3, 84, 0
2, 145536, Note_off_c, 3, 88, 0
2, 145536, Note_off_c, 3, 91, 0
2, 145536, Note_off_c, 3, 93, 0
2, 145536, Note_on_c, 3, 84, 77
2, 145536, Note_on_c, 3, 88, 77
2, 145536, Note_on_c, 3, 91, 77
2, 145568, Note_off_c, 3, 84, 0
2, 145568, Note_off_c, 3, 88, 0
2, 145568, Note_off_c, 3, 91, 0
2, 145792, Note_on_c, 3, 72, 77
2, 145792, Note_on_c, 3, 76, 77
2, 145792, Note_on_c, 3, 79, 77
2, 145856, Note_on_c, 3, 84, 95
2, 145856, Note_on_c, 3, 88, 95
2, 145856, Note_on_c, 3, 91, 95
2, 145857, Note_off_c, 3, 72, 0
2, 145857, Note_off_c, 3, 76, 0
2, 145857, Note_off_c, 3, 79, 0
2, 145916, Note_off_c, 3, 84, 0
2, 145916, Note_off_c, 3, 88, 0
2, 145916, Note_off_c, 3, 91, 0
2, 145920, Note_on_c, 3, 84, 99
2, 145920, Note_on_c, 3, 88, 99
2, 145920, Note_on_c, 3, 91, 99
2, 145920, Note_on_c, 3, 93, 99
2, 146048, Note_off_c, 3, 84, 0
2, 146048, Note_off_c, 3, 88, 0
2, 146048, Note_off_c, 3, 91, 0
2, 146048, Note_off_c, 3, 93, 0
2, 146048, Note_on_c, 3, 84, 81
2, 146048, Note_on_c, 3, 88, 81
2, 146048, Note_on_c, 3, 91, 81
2, 146080, Note_off_c, 3, 84, 0
2, 146080, Note_off_c, 3, 88, 0
2, 146080, Note_off_c, 3, 91, 0
2, 146304, Note_on_c, 3, 72, 72
2, 146304, Note_on_c, 3, 76, 72
2, 146304, Note_on_c, 3, 79, 72
2, 146368, Note_on_c, 3, 84, 90
2, 146368, Note_on_c, 3, 88, 90
2, 146368, Note_on_c, 3, 91, 90
2, 146369, Note_off_c, 3, 72, 0
2, 146369, Note_off_c, 3, 76, 0
2, 146369, Note_off_c, 3, 79, 0
2, 146428, Note_off_c, 3, 84, 0
2, 146428, Note_off_c, 3, 88, 0
2, 146428, Note_off_c, 3, 91, 0
2, 146432, Note_on_c, 3, 84, 102
2, 146432, Note_on_c, 3, 88, 102
2, 146432, Note_on_c, 3, 91, 102
2, 146432, Note_on_c, 3, 93, 102
2, 146560, Note_off_c, 3, 84, 0
2, 146560, Note_off_c, 3, 88, 0
2, 146560, Note_off_c, 3, 91, 0
2, 146560, Note_off_c, 3, 93, 0
2, 146560, Note_on_c, 3, 84, 75
2, 146560, Note_on_c, 3, 88, 75
2, 146560, Note_on_c, 3, 91, 75
2, 146592, Note_off_c, 3, 84, 0
2, 146592, Note_off_c, 3, 88, 0
2, 146592, Note_off_c, 3, 91, 0
2, 146816, Note_on_c, 3, 72, 78
2, 146816, Note_on_c, 3, 76, 78
2, 146816, Note_on_c, 3, 79, 78
2, 146880, Note_on_c, 3, 84, 99
2, 146880, Note_on_c, 3, 88, 99
2, 146880, Note_on_c, 3, 91, 99
2, 146881, Note_off_c, 3, 72, 0
2, 146881, Note_off_c, 3, 76, 0
2, 146881, Note_off_c, 3, 79, 0
2, 146940, Note_off_c, 3, 84, 0
2, 146940, Note_off_c, 3, 88, 0
2, 146940, Note_off_c, 3, 91, 0
2, 146944, Note_on_c, 3, 84, 99
2, 146944, Note_on_c, 3, 88, 99
2, 146944, Note_on_c, 3, 91, 99
2, 146944, Note_on_c, 3, 93, 99
2, 147072, Note_off_c, 3, 84, 0
2, 147072, Note_off_c, 3, 88, 0
2, 147072, Note_off_c, 3, 91, 0
2, 147072, Note_off_c, 3, 93, 0
2, 147072, Note_on_c, 3, 84, 81
2, 147072, Note_on_c, 3, 88, 81
2, 147072, Note_on_c, 3, 91, 81
2, 147104, Note_off_c, 3, 84, 0
2, 147104, Note_off_c, 3, 88, 0
2, 147104, Note_off_c, 3, 91, 0
2, 147328, Note_on_c, 3, 72, 75
2, 147328, Note_on_c, 3, 76, 75
2, 147328, Note_on_c, 3, 79, 75
2, 147392, Note_on_c, 3, 84, 96
2, 147392, Note_on_c, 3, 88, 96
2, 147392, Note_on_c, 3, 91, 96
2, 147393, Note_off_c, 3, 72, 0
2, 147393, Note_off_c, 3, 76, 0
2, 147393, Note_off_c, 3, 79, 0
2, 147452, Note_off_c, 3, 84, 0
2, 147452, Note_off_c, 3, 88, 0
2, 147452, Note_off_c, 3, 91, 0
2, 147456, Note_on_c, 3, 84, 99
2, 147456, Note_on_c, 3, 88, 99
2, 147456, Note_on_c, 3, 91, 99
2, 147456, Note_on_c, 3, 93, 99
2, 147584, Note_off_c, 3, 84, 0
2, 147584, Note_off_c, 3, 88, 0
2, 147584, Note_off_c, 3, 91, 0
2, 147584, Note_off_c, 3, 93, 0
2, 147584, Note_on_c, 3, 84, 77
2, 147584, Note_on_c, 3, 88, 77
2, 147584, Note_on_c, 3, 91, 77
2, 147616, Note_off_c, 3, 84, 0
2, 147616, Note_off_c, 3, 88, 0
2, 147616, Note_off_c, 3, 91, 0
2, 147840, Note_on_c, 3, 72, 75
2, 147840, Note_on_c, 3, 76, 75
2, 147840, Note_on_c, 3, 79, 75
2, 147904, Note_on_c, 3, 84, 96
2, 147904, Note_on_c, 3, 88, 96
2, 147904, Note_on_c, 3, 91, 96
2, 147905, Note_off_c, 3, 72, 0
2, 147905, Note_off_c, 3, 76, 0
2, 147905, Note_off_c, 3, 79, 0
2, 147964, Note_off_c, 3, 84, 0
2, 147964, Note_off_c, 3, 88, 0
2, 147964, Note_off_c, 3, 91, 0
2, 147968, Note_on_c, 3, 84, 103
2, 147968, Note_on_c, 3, 88, 103
2, 147968, Note_on_c, 3, 91, 103
2, 147968, Note_on_c, 3, 93, 103
2, 148096, Note_off_c, 3, 84, 0
2, 148096, Note_off_c, 3, 88, 0
2, 148096, Note_off_c, 3, 91, 0
2, 148096, Note_off_c, 3, 93, 0
2, 148096, Note_on_c, 3, 84, 80
2, 148096, Note_on_c, 3, 88, 80
2, 148096, Note_on_c, 3, 91, 80
2, 148128, Note_off_c, 3, 84, 0
2, 148128, Note_off_c, 3, 88, 0
2, 148128, Note_off_c, 3, 91, 0
2, 148352, Note_on_c, 3, 72, 72
2, 148352, Note_on_c, 3, 76, 72
2, 148352, Note_on_c, 3, 79, 72
2, 148416, Note_on_c, 3, 84, 92
2, 148416, Note_on_c, 3, 88, 92
2, 148416, Note_on_c, 3, 91, 92
2, 148417, Note_off_c, 3, 72, 0
2, 148417, Note_off_c, 3, 76, 0
2, 148417, Note_off_c, 3, 79, 0
2, 148476, Note_off_c, 3, 84, 0
2, 148476, Note_off_c, 3, 88, 0
2, 148476, Note_off_c, 3, 91, 0
2, 148480, Note_on_c, 3, 84, 99
2, 148480, Note_on_c, 3, 88, 99
2, 148480, Note_on_c, 3, 91, 99
2, 148480, Note_on_c, 3, 93, 99
2, 148608, Note_off_c, 3, 84, 0
2, 148608, Note_off_c, 3, 88, 0
2, 148608, Note_off_c, 3, 91, 0
2, 148608, Note_off_c, 3, 93, 0
2, 148608, Note_on_c, 3, 84, 80
2, 148608, Note_on_c, 3, 88, 80
2, 148608, Note_on_c, 3, 91, 80
2, 148640, Note_off_c, 3, 84, 0
2, 148640, Note_off_c, 3, 88, 0
2, 148640, Note_off_c, 3, 91, 0
2, 148864, Note_on_c, 3, 72, 77
2, 148864, Note_on_c, 3, 76, 77
2, 148864, Note_on_c, 3, 79, 77
2, 148928, Note_on_c, 3, 84, 94
2, 148928, Note_on_c, 3, 88, 94
2, 148928, Note_on_c, 3, 91, 94
2, 148929, Note_off_c, 3, 72, 0
2, 148929, Note_off_c, 3, 76, 0
2, 148929, Note_off_c, 3, 79, 0
2, 148988, Note_off_c, 3, 84, 0
2, 148988, Note_off_c, 3, 88, 0
2, 148988, Note_off_c, 3, 91, 0
2, 148992, Note_on_c, 3, 84, 104
2, 148992, Note_on_c, 3, 88, 104
2, 148992, Note_on_c, 3, 91, 104
2, 148992, Note_on_c, 3, 93, 104
2, 149120, Note_off_c, 3, 84, 0
2, 149120, Note_off_c, 3, 88, 0
2, 149120, Note_off_c, 3, 91, 0
2, 149120, Note_off_c, 3, 93, 0
2, 149120, Note_on_c, 3, 84, 73
2, 149120, Note_on_c, 3, 88, 73
2, 149120, Note_on_c, 3, 91, 73
2, 149152, Note_off_c, 3, 84, 0
2, 149152, Note_off_c, 3, 88, 0
2, 149152, Note_off_c, 3, 91, 0
2, 149376, Note_on_c, 3, 72, 76
2, 149376, Note_on_c, 3, 76, 76
2, 149376, Note_on_c, 3, 79, 76
2, 149440, Note_on_c, 3, 84, 96
2, 149440, Note_on_c, 3, 88, 96
2, 149440, Note_on_c, 3, 91, 96
2, 149441, Note_off_c, 3, 72, 0
2, 149441, Note_off_c, 3, 76, 0
2, 149441, Note_off_c, 3, 79, 0
2, 149500, Note_off_c, 3, 84, 0
2, 149500, Note_off_c, 3, 88, 0
2, 149500, Note_off_c, 3, 91, 0
2, 149504, Note_on_c, 3, 84, 104
2, 149504, Note_on_c, 3, 88, 104
2, 149504, Note_on_c, 3, 91, 104
2, 149504, Note_on_c, 3, 93, 104
2, 149632, Note_off_c, 3, 84, 0
2, 149632, Note_off_c, 3, 88, 0
2, 149632, Note_off_c, 3, 91, 0
2, 149632, Note_off_c, 3, 93, 0
2, 149632, Note_on_c, 3, 84, 83
2, 149632, Note_on_c, 3, 88, 83
2, 149632, Note_on_c, 3, 91, 83
2, 149664, Note_off_c, 3, 84, 0
2, 149664, Note_off_c, 3, 88, 0
2, 149664, Note_off_c, 3, 91, 0
2, 150144, Note_on_c, 3, 72, 77
2, 150144, Note_on_c, 3, 76, 77
2, 150144, Note_on_c, 3, 79, 77
2, 150208, Note_on_c, 3, 84, 98
2, 150208, Note_on_c, 3, 88, 98
2, 150208, Note_on_c, 3, 91, 98
2, 150209, Note_off_c, 3, 72, 0
2, 150209, Note_off_c, 3, 76, 0
2, 150209, Note_off_c, 3, 79, 0
2, 150268, Note_off_c, 3, 84, 0
2, 150268, Note_off_c, 3, 88, 0
2, 150268, Note_off_c, 3, 91, 0
2, 150272, Note_on_c, 3, 84, 97
2, 150272, Note_on_c, 3, 88, 97
2, 150272, Note_on_c, 3, 91, 97
2, 150272, Note_on_c, 3, 93, 97
2, 150400, Note_off_c, 3, 84, 0
2, 150400, Note_off_c, 3, 88, 0
2, 150400, Note_off_c, 3, 91, 0
2, 150400, Note_off_c, 3, 93, 0
2, 150400, Note_on_c, 3, 84, 82
2, 150400, Note_on_c, 3, 88, 82
2, 150400, Note_on_c, 3, 91, 82
2, 150432, Note_off_c, 3, 84, 0
2, 150432, Note_off_c, 3, 88, 0
2, 150432, Note_off_c, 3, 91, 0
2, 150912, Note_on_c, 3, 72, 75
2, 150912, Note_on_c, 3, 76, 75
2, 150912, Note_on_c, 3, 79, 75
2, 150976, Note_on_c, 3, 84, 92
2, 150976, Note_on_c, 3, 88, 92
2, 150976, Note_on_c, 3, 91, 92
2, 150977, Note_off_c, 3, 72, 0
2, 150977, Note_off_c, 3, 76, 0
2, 150977, Note_off_c, 3, 79, 0
2, 151036, Note_off_c, 3, 84, 0
2, 151036, Note_off_c, 3, 88, 0
2, 151036, Note_off_c, 3, 91, 0
2, 151040, Note_on_c, 3, 84, 102
2, 151040, Note_on_c, 3, 88, 102
2, 151040, Note_on_c, 3, 91, 102
2, 151040, Note_on_c, 3, 93, 102
2, 151168, Note_off_c, 3, 84, 0
2, 151168, Note_off_c, 3, 88, 0
2, 151168, Note_off_c, 3, 91, 0
2, 151168, Note_off_c, 3, 93, 0
2, 151168, Note_on_c, 3, 84, 81
2, 151168, Note_on_c, 3, 88, 81
2, 151168, Note_on_c, 3, 91, 81
2, 151200, Note_off_c, 3, 84, 0
2, 151200, Note_off_c, 3, 88, 0
2, 151200, Note_off_c, 3, 91, 0
2, 151424, Note_on_c, 3, 84, 85
2, 151424, Note_on_c, 3, 88, 85
2, 151424, Note_on_c, 3, 91, 85
2, 151424, Note_on_c, 3, 93, 85
2, 151552, Note_off_c, 3, 84, 0
2, 151552, Note_off_c, 3, 88, 0
2, 151552, Note_off_c, 3, 91, 0
2, 151552, Note_off_c, 3, 93, 0
2, 151552, Note_on_c, 3, 84, 87
2, 151552, Note_on_c, 3, 88, 87
2, 151552, Note_on_c, 3, 91, 87
2, 151680, Note_off_c, 3, 84, 0
2, 151680, Note_off_c, 3, 88, 0
2, 151680, Note_off_c, 3, 91, 0
2, 151680, Note_on_c, 3, 72, 60
2, 151680, Note_on_c, 3, 76, 60
2, 151680, Note_on_c, 3, 79, 60
2, 151744, Note_on_c, 3, 84, 79
2, 151744, Note_on_c, 3, 88, 79
2, 151744, Note_on_c, 3, 91, 79
2, 151745, Note_off_c, 3, 72, 0
2, 151745, Note_off_c, 3, 76, 0
2, 151745, Note_off_c, 3, 79, 0
2, 151804, Note_off_c, 3, 84, 0
2, 151804, Note_off_c, 3, 88, 0
2, 151804, Note_off_c, 3, 91, 0
2, 151808, Note_on_c, 3, 84, 96
2, 151808, Note_on_c, 3, 88, 96
2, 151808, Note_on_c, 3, 91, 96
2, 151808, Note_on_c, 3, 93, 96
2, 151936, Note_off_c, 3, 84, 0
2, 151936, Note_off_c, 3, 88, 0
2, 151936, Note_off_c, 3, 91, 0
2, 151936, Note_off_c, 3, 93, 0
2, 151936, Note_on_c, 3, 84, 78
2, 151936, Note_on_c, 3, 88, 78
2, 151936, Note_on_c, 3, 91, 78
2, 151968, Note_off_c, 3, 84, 0
2, 151968, Note_off_c, 3, 88, 0
2, 151968, Note_off_c, 3, 91, 0
2, 152064, Note_on_c, 3, 84, 84
2, 152064, Note_on_c, 3, 88, 84
2, 152064, Note_on_c, 3, 91, 84
2, 152064, Note_on_c, 3, 93, 84
2, 152192, Note_off_c, 3, 84, 0
2, 152192, Note_off_c, 3, 88, 0
2, 152192, Note_off_c, 3, 91, 0
2, 152192, Note_off_c, 3, 93, 0
2, 152192, Note_on_c, 3, 84, 76
2, 152192, Note_on_c, 3, 88, 76
2, 152192, Note_on_c, 3, 91, 76
2, 152224, Note_off_c, 3, 84, 0
2, 152224, Note_off_c, 3, 88, 0
2, 152224, Note_off_c, 3, 91, 0
2, 152448, Note_on_c, 3, 72, 78
2, 152448, Note_on_c, 3, 76, 78
2, 152448, Note_on_c, 3, 79, 78
2, 152512, Note_on_c, 3, 84, 96
2, 152512, Note_on_c, 3, 88, 96
2, 152512, Note_on_c, 3, 91, 96
2, 152513, Note_off_c, 3, 72, 0
2, 152513, Note_off_c, 3, 76, 0
2, 152513, Note_off_c, 3, 79, 0
2, 152572, Note_off_c, 3, 84, 0
2, 152572, Note_off_c, 3, 88, 0
2, 152572, Note_off_c, 3, 91, 0
2, 152576, Note_on_c, 3, 84, 99
2, 152576, Note_on_c, 3, 88, 99
2, 152576, Note_on_c, 3, 91, 99
2, 152576, Note_on_c, 3, 93, 99
2, 152704, Note_off_c, 3, 84, 0
2, 152704, Note_off_c, 3, 88, 0
2, 152704, Note_off_c, 3, 91, 0
2, 152704, Note_off_c, 3, 93, 0
2, 152704, Note_on_c, 3, 84, 80
2, 152704, Note_on_c, 3, 88, 80
2, 152704, Note_on_c, 3, 91, 80
2, 152736, Note_off_c, 3, 84, 0
2, 152736, Note_off_c, 3, 88, 0
2, 152736, Note_off_c, 3, 91, 0
2, 152960, Note_on_c, 3, 72, 75
2, 152960, Note_on_c, 3, 76, 75
2, 152960, Note_on_c, 3, 79, 75
2, 153024, Note_on_c, 3, 84, 95
2, 153024, Note_on_c, 3, 88, 95
2, 153024, Note_on_c, 3, 91, 95
2, 153025, Note_off_c, 3, 72, 0
2, 153025, Note_off_c, 3, 76, 0
2, 153025, Note_off_c, 3, 79, 0
2, 153084, Note_off_c, 3, 84, 0
2, 153084, Note_off_c, 3, 88, 0
2, 153084, Note_off_c, 3, 91, 0
2, 153088, Note_on_c, 3, 84, 99
2, 153088, Note_on_c, 3, 88, 99
2, 153088, Note_on_c, 3, 91, 99
2, 153088, Note_on_c, 3, 93, 99
2, 153216, Note_off_c, 3, 84, 0
2, 153216, Note_off_c, 3, 88, 0
2, 153216, Note_off_c, 3, 91, 0
2, 153216, Note_off_c, 3, 93, 0
2, 153216, Note_on_c, 3, 84, 82
2, 153216, Note_on_c, 3, 88, 82
2, 153216, Note_on_c, 3, 91, 82
2, 153248, Note_off_c, 3, 84, 0
2, 153248, Note_off_c, 3, 88, 0
2, 153248, Note_off_c, 3, 91, 0
2, 153344, Note_on_c, 3, 84, 82
2, 153344, Note_on_c, 3, 88, 82
2, 153344, Note_on_c, 3, 91, 82
2, 153344, Note_on_c, 3, 93, 82
2, 153472, Note_off_c, 3, 84, 0
2, 153472, Note_off_c, 3, 88, 0
2, 153472, Note_off_c, 3, 91, 0
2, 153472, Note_off_c, 3, 93, 0
2, 153472, Note_on_c, 3, 84, 79
2, 153472, Note_on_c, 3, 88, 79
2, 153472, Note_on_c, 3, 91, 79
2, 153504, Note_off_c, 3, 84, 0
2, 153504, Note_off_c, 3, 88, 0
2, 153504, Note_off_c, 3, 91, 0
2, 153728, Note_on_c, 3, 72, 74
2, 153728, Note_on_c, 3, 76, 74
2, 153728, Note_on_c, 3, 79, 74
2, 153792, Note_on_c, 3, 84, 93
2, 153792, Note_on_c, 3, 88, 93
2, 153792, Note_on_c, 3, 91, 93
2, 153793, Note_off_c, 3, 72, 0
2, 153793, Note_off_c, 3, 76, 0
2, 153793, Note_off_c, 3, 79, 0
2, 153852, Note_off_c, 3, 84, 0
2, 153852, Note_off_c, 3, 88, 0
2, 153852, Note_off_c, 3, 91, 0
2, 153856, Note_on_c, 3, 84, 102
2, 153856, Note_on_c, 3, 88, 102
2, 153856, Note_on_c, 3, 91, 102
2, 153856, Note_on_c, 3, 93, 102
2, 153984, Note_off_c, 3, 84, 0
2, 153984, Note_off_c, 3, 88, 0
2, 153984, Note_off_c, 3, 91, 0
2, 153984, Note_off_c, 3, 93, 0
2, 153984, Note_on_c, 3, 84, 82
2, 153984, Note_on_c, 3, 88, 82
2, 153984, Note_on_c, 3, 91, 82
2, 154016, Note_off_c, 3, 84, 0
2, 154016, Note_off_c, 3, 88, 0
2, 154016, Note_off_c, 3, 91, 0
2, 154112, Note_on_c, 3, 84, 80
2, 154112, Note_on_c, 3, 88, 80
2, 154112, Note_on_c, 3, 91, 80
2, 154112, Note_on_c, 3, 93, 80
2, 154240, Note_off_c, 3, 84, 0
2, 154240, Note_off_c, 3, 88, 0
2, 154240, Note_off_c, 3, 91, 0
2, 154240, Note_off_c, 3, 93, 0
2, 154240, Note_on_c, 3, 84, 75
2, 154240, Note_on_c, 3, 88, 75
2, 154240, Note_on_c, 3, 91, 75
2, 154272, Note_off_c, 3, 84, 0
2, 154272, Note_off_c, 3, 88, 0
2, 154272, Note_off_c, 3, 91, 0
2, 154368, Note_on_c, 3, 84, 85
2, 154368, Note_on_c, 3, 88, 85
2, 154368, Note_on_c, 3, 91, 85
2, 154368, Note_on_c, 3, 93, 85
2, 154496, Note_off_c, 3, 84, 0
2, 154496, Note_off_c, 3, 88, 0
2, 154496, Note_off_c, 3, 91, 0
2, 154496, Note_off_c, 3, 93, 0
2, 154496, Note_on_c, 3, 84, 80
2, 154496, Note_on_c, 3, 88, 80
2, 154496, Note_on_c, 3, 91, 80
2, 154528, Note_off_c, 3, 84, 0
2, 154528, Note_off_c, 3, 88, 0
2, 154528, Note_off_c, 3, 91, 0
2, 154624, Note_on_c, 3, 84, 82
2, 154624, Note_on_c, 3, 88, 82
2, 154624, Note_on_c, 3, 91, 82
2, 154624, Note_on_c, 3, 93, 82
2, 154752, Note_off_c, 3, 84, 0
2, 154752, Note_off_c, 3, 88, 0
2, 154752, Note_off_c, 3, 91, 0
2, 154752, Note_off_c, 3, 93, 0
2, 154752, Note_on_c, 3, 84, 76
2, 154752, Note_on_c, 3, 88, 76
2, 154752, Note_on_c, 3, 91, 76
2, 154784, Note_off_c, 3, 84, 0
2, 154784, Note_off_c, 3, 88, 0
2, 154784, Note_off_c, 3, 91, 0
2, 155008, Note_on_c, 3, 72, 76
2, 155008, Note_on_c, 3, 76, 76
2, 155008, Note_on_c, 3, 79, 76
2, 155072, Note_on_c, 3, 84, 95
2, 155072, Note_on_c, 3, 88, 95
2, 155072, Note_on_c, 3, 91, 95
2, 155073, Note_off_c, 3, 72, 0
2, 155073, Note_off_c, 3, 76, 0
2, 155073, Note_off_c, 3, 79, 0
2, 155132, Note_off_c, 3, 84, 0
2, 155132, Note_off_c, 3, 88, 0
2, 155132, Note_off_c, 3, 91, 0
2, 155136, Note_on_c, 3, 84, 103
2, 155136, Note_on_c, 3, 88, 103
2, 155136, Note_on_c, 3, 91, 103
2, 155136, Note_on_c, 3, 93, 103
2, 155264, Note_off_c, 3, 84, 0
2, 155264, Note_off_c, 3, 88, 0
2, 155264, Note_off_c, 3, 91, 0
2, 155264, Note_off_c, 3, 93, 0
2, 155264, Note_on_c, 3, 84, 75
2, 155264, Note_on_c, 3, 88, 75
2, 155264, Note_on_c, 3, 91, 75
2, 155296, Note_off_c, 3, 84, 0
2, 155296, Note_off_c, 3, 88, 0
2, 155296, Note_off_c, 3, 91, 0
2, 155904, Note_on_c, 3, 84, 84
2, 155904, Note_on_c, 3, 88, 84
2, 155904, Note_on_c, 3, 91, 84
2, 155904, Note_on_c, 3, 93, 84
2, 156032, Note_off_c, 3, 84, 0
2, 156032, Note_off_c, 3, 88, 0
2, 156032, Note_off_c, 3, 91, 0
2, 156032, Note_off_c, 3, 93, 0
2, 156032, Note_on_c, 3, 84, 77
2, 156032, Note_on_c, 3, 88, 77
2, 156032, Note_on_c, 3, 91, 77
2, 156064, Note_off_c, 3, 84, 0
2, 156064, Note_off_c, 3, 88, 0
2, 156064, Note_off_c, 3, 91, 0
2, 156416, Note_on_c, 3, 84, 83
2, 156416, Note_on_c, 3, 88, 83
2, 156416, Note_on_c, 3, 91, 83
2, 156416, Note_on_c, 3, 93, 83
2, 156544, Note_off_c, 3, 84, 0
2, 156544, Note_off_c, 3, 88, 0
2, 156544, Note_off_c, 3, 91, 0
2, 156544, Note_off_c, 3, 93, 0
2, 156544, Note_on_c, 3, 84, 82
2, 156544, Note_on_c, 3, 88, 82
2, 156544, Note_on_c, 3, 91, 82
2, 156576, Note_off_c, 3, 84, 0
2, 156576, Note_off_c, 3, 88, 0
2, 156576, Note_off_c, 3, 91, 0
2, 156928, Note_on_c, 3, 84, 82
2, 156928, Note_on_c, 3, 88, 82
2, 156928, Note_on_c, 3, 91, 82
2, 156928, Note_on_c, 3, 93, 82
2, 157056, Note_off_c, 3, 84, 0
2, 157056, Note_off_c, 3, 88, 0
2, 157056, Note_off_c, 3, 91, 0
2, 157056, Note_off_c, 3, 93, 0
2, 157056, Note_on_c, 3, 84, 79
2, 157056, Note_on_c, 3, 88, 79
2, 157056, Note_on_c, 3, 91, 79
2, 157088, Note_off_c, 3, 84, 0
2, 157088, Note_off_c, 3, 88, 0
2, 157088, Note_off_c, 3, 91, 0
2, 157440, Note_on_c, 3, 84, 77
2, 157440, Note_on_c, 3, 88, 77
2, 157440, Note_on_c, 3, 91, 77
2, 157440, Note_on_c, 3, 93, 77
2, 157568, Note_off_c, 3, 84, 0
2, 157568, Note_off_c, 3, 88, 0
2, 157568, Note_off_c, 3, 91, 0
2, 157568, Note_off_c, 3, 93, 0
2, 157568, Note_on_c, 3, 84, 73
2, 157568, Note_on_c, 3, 88, 73
2, 157568, Note_on_c, 3, 91, 73
2, 157600, Note_off_c, 3, 84, 0
2, 157600, Note_off_c, 3, 88, 0
2, 157600, Note_off_c, 3, 91, 0
2, 166400, Note_on_c, 3, 70, 78
2, 166400, Note_on_c, 3, 86, 78
2, 166464, Note_on_c, 3, 74, 67
2, 166464, Note_on_c, 3, 82, 67
2, 166465, Note_off_c, 3, 70, 0
2, 166465, Note_off_c, 3, 86, 0
2, 166585, Note_off_c, 3, 74, 0
2, 166585, Note_off_c, 3, 82, 0
2, 166592, Note_on_c, 3, 77, 84
2, 166592, Note_on_c, 3, 82, 84
2, 166656, Note_on_c, 3, 79, 92
2, 166656, Note_on_c, 3, 86, 92
2, 166657, Note_off_c, 3, 77, 0
2, 166657, Note_off_c, 3, 82, 0
2, 166720, Note_on_c, 3, 77, 94
2, 166720, Note_on_c, 3, 89, 94
2, 166721, Note_off_c, 3, 79, 0
2, 166721, Note_off_c, 3, 86, 0
2, 166841, Note_off_c, 3, 77, 0
2, 166841, Note_off_c, 3, 89, 0
2, 166848, Note_on_c, 3, 74, 94
2, 166848, Note_on_c, 3, 91, 94
2, 166912, Note_on_c, 3, 77, 90
2, 166912, Note_on_c, 3, 89, 90
2, 166913, Note_off_c, 3, 74, 0
2, 166913, Note_off_c, 3, 91, 0
2, 166976, Note_on_c, 3, 74, 73
2, 166976, Note_on_c, 3, 86, 73
2, 166977, Note_off_c, 3, 77, 0
2, 166977, Note_off_c, 3, 89, 0
2, 167097, Note_off_c, 3, 74, 0
2, 167097, Note_off_c, 3, 86, 0
2, 167104, Note_on_c, 3, 65, 92
2, 167104, Note_on_c, 3, 89, 92
2, 167168, Note_on_c, 3, 67, 83
2, 167168, Note_on_c, 3, 86, 83
2, 167169, Note_off_c, 3, 65, 0
2, 167169, Note_off_c, 3, 89, 0
2, 167232, Note_on_c, 3, 70, 64
2, 167232, Note_on_c, 3, 77, 64
2, 167233, Note_off_c, 3, 67, 0
2, 167233, Note_off_c, 3, 86, 0
2, 167353, Note_off_c, 3, 70, 0
2, 167353, Note_off_c, 3, 77, 0
2, 167360, Note_on_c, 3, 74, 79
2, 167360, Note_on_c, 3, 79, 79
2, 167424, Note_on_c, 3, 82, 82
2, 167425, Note_off_c, 3, 74, 0
2, 167425, Note_off_c, 3, 79, 0
2, 167488, Note_on_c, 3, 86, 95
2, 167489, Note_off_c, 3, 82, 0
2, 167609, Note_off_c, 3, 86, 0
2, 167616, Note_on_c, 3, 74, 100
2, 167616, Note_on_c, 3, 94, 100
2, 167680, Note_on_c, 3, 70, 88
2, 167680, Note_on_c, 3, 89, 88
2, 167681, Note_off_c, 3, 74, 0
2, 167681, Note_off_c, 3, 94, 0
2, 167744, Note_on_c, 3, 67, 75
2, 167744, Note_on_c, 3, 86, 75
2, 167745, Note_off_c, 3, 70, 0
2, 167745, Note_off_c, 3, 89, 0
2, 167865, Note_off_c, 3, 67, 0
2, 167865, Note_off_c, 3, 86, 0
2, 167872, Note_on_c, 3, 70, 71
2, 167872, Note_on_c, 3, 82, 71
2, 167936, Note_on_c, 3, 74, 64
2, 167936, Note_on_c, 3, 79, 64
2, 167937, Note_off_c, 3, 70, 0
2, 167937, Note_off_c, 3, 82, 0
2, 168000, Note_on_c, 3, 77, 92
2, 168000, Note_on_c, 3, 82, 92
2, 168001, Note_off_c, 3, 74, 0
2, 168001, Note_off_c, 3, 79, 0
2, 168121, Note_off_c, 3, 77, 0
2, 168121, Note_off_c, 3, 82, 0
2, 168128, Note_on_c, 3, 74, 88
2, 168128, Note_on_c, 3, 86, 88
2, 168192, Note_on_c, 3, 65, 92
2, 168192, Note_on_c, 3, 89, 92
2, 168193, Note_off_c, 3, 74, 0
2, 168193, Note_off_c, 3, 86, 0
2, 168256, Note_on_c, 3, 67, 79
2, 168256, Note_on_c, 3, 86, 79
2, 168257, Note_off_c, 3, 65, 0
2, 168257, Note_off_c, 3, 89, 0
2, 168377, Note_off_c, 3, 67, 0
2, 168377, Note_off_c, 3, 86, 0
2, 168384, Note_on_c, 3, 70, 59
2, 168384, Note_on_c, 3, 77, 59
2, 168448, Note_on_c, 3, 74, 63
2, 168448, Note_on_c, 3, 83, 63
2, 168449, Note_off_c, 3, 70, 0
2, 168449, Note_off_c, 3, 77, 0
2, 168512, Note_off_c, 3, 83, 0
2, 168512, Note_on_c, 3, 78, 87
2, 168512, Note_on_c, 3, 83, 87
2, 168513, Note_off_c, 3, 74, 0
2, 168633, Note_off_c, 3, 78, 0
2, 168633, Note_off_c, 3, 83, 0
2, 168640, Note_on_c, 3, 79, 88
2, 168640, Note_on_c, 3, 86, 88
2, 168704, Note_on_c, 3, 78, 98
2, 168704, Note_on_c, 3, 90, 98
2, 168705, Note_off_c, 3, 79, 0
2, 168705, Note_off_c, 3, 86, 0
2, 168768, Note_on_c, 3, 76, 90
2, 168768, Note_on_c, 3, 91, 90
2, 168769, Note_off_c, 3, 78, 0
2, 168769, Note_off_c, 3, 90, 0
2, 168889, Note_off_c, 3, 76, 0
2, 168889, Note_off_c, 3, 91, 0
2, 168896, Note_on_c, 3, 71, 80
2, 168896, Note_on_c, 3, 90, 80
2, 168960, Note_on_c, 3, 66, 74
2, 168960, Note_on_c, 3, 86, 74
2, 168961, Note_off_c, 3, 71, 0
2, 168961, Note_off_c, 3, 90, 0
2, 169024, Note_on_c, 3, 67, 76
2, 169024, Note_on_c, 3, 83, 76
2, 169025, Note_off_c, 3, 66, 0
2, 169025, Note_off_c, 3, 86, 0
2, 169145, Note_off_c, 3, 67, 0
2, 169145, Note_off_c, 3, 83, 0
2, 169152, Note_on_c, 3, 69, 69
2, 169152, Note_on_c, 3, 78, 69
2, 169216, Note_on_c, 3, 74, 70
2, 169216, Note_on_c, 3, 79, 70
2, 169217, Note_off_c, 3, 69, 0
2, 169217, Note_off_c, 3, 78, 0
2, 169280, Note_on_c, 3, 78, 92
2, 169280, Note_on_c, 3, 83, 92
2, 169281, Note_off_c, 3, 74, 0
2, 169281, Note_off_c, 3, 79, 0
2, 169401, Note_off_c, 3, 78, 0
2, 169401, Note_off_c, 3, 83, 0
2, 169408, Note_on_c, 3, 74, 91
2, 169408, Note_on_c, 3, 86, 91
2, 169472, Note_on_c, 3, 78, 103
2, 169472, Note_on_c, 3, 90, 103
2, 169473, Note_off_c, 3, 74, 0
2, 169473, Note_off_c, 3, 86, 0
2, 169536, Note_on_c, 3, 79, 74
2, 169536, Note_on_c, 3, 86, 74
2, 169537, Note_off_c, 3, 78, 0
2, 169537, Note_off_c, 3, 90, 0
2, 169657, Note_off_c, 3, 79, 0
2, 169657, Note_off_c, 3, 86, 0
2, 169664, Note_on_c, 3, 78, 94
2, 169664, Note_on_c, 3, 90, 94
2, 169728, Note_on_c, 3, 74, 99
2, 169728, Note_on_c, 3, 91, 99
2, 169729, Note_off_c, 3, 78, 0
2, 169729, Note_off_c, 3, 90, 0
2, 169792, Note_on_c, 3, 71, 81
2, 169792, Note_on_c, 3, 90, 81
2, 169793, Note_off_c, 3, 74, 0
2, 169793, Note_off_c, 3, 91, 0
2, 169913, Note_off_c, 3, 71, 0
2, 169913, Note_off_c, 3, 90, 0
2, 169920, Note_on_c, 3, 66, 80
2, 169920, Note_on_c, 3, 86, 80
2, 170048, Note_on_c, 3, 74, 62
2, 170048, Note_on_c, 3, 78, 62
2, 170050, Note_off_c, 3, 66, 0
2, 170050, Note_off_c, 3, 86, 0
2, 170169, Note_off_c, 3, 74, 0
2, 170169, Note_off_c, 3, 78, 0
2, 170176, Note_on_c, 3, 70, 75
2, 170176, Note_on_c, 3, 77, 75
2, 170240, Note_on_c, 3, 74, 81
2, 170240, Note_on_c, 3, 79, 81
2, 170241, Note_off_c, 3, 70, 0
2, 170241, Note_off_c, 3, 77, 0
2, 170304, Note_on_c, 3, 82, 95
2, 170305, Note_off_c, 3, 74, 0
2, 170305, Note_off_c, 3, 79, 0
2, 170425, Note_off_c, 3, 82, 0
2, 170432, Note_on_c, 3, 77, 94
2, 170432, Note_on_c, 3, 86, 94
2, 170496, Note_on_c, 3, 74, 114
2, 170496, Note_on_c, 3, 94, 114
2, 170497, Note_off_c, 3, 77, 0
2, 170497, Note_off_c, 3, 86, 0
2, 170560, Note_on_c, 3, 70, 77
2, 170560, Note_on_c, 3, 89, 77
2, 170561, Note_off_c, 3, 74, 0
2, 170561, Note_off_c, 3, 94, 0
2, 170681, Note_off_c, 3, 70, 0
2, 170681, Note_off_c, 3, 89, 0
2, 170688, Note_on_c, 3, 67, 76
2, 170688, Note_on_c, 3, 86, 76
2, 170752, Note_on_c, 3, 70, 65
2, 170752, Note_on_c, 3, 82, 65
2, 170753, Note_off_c, 3, 67, 0
2, 170753, Note_off_c, 3, 86, 0
2, 170816, Note_on_c, 3, 74, 75
2, 170816, Note_on_c, 3, 79, 75
2, 170817, Note_off_c, 3, 70, 0
2, 170817, Note_off_c, 3, 82, 0
2, 170937, Note_off_c, 3, 74, 0
2, 170937, Note_off_c, 3, 79, 0
2, 170944, Note_on_c, 3, 77, 92
2, 170944, Note_on_c, 3, 82, 92
2, 171008, Note_on_c, 3, 74, 100
2, 171008, Note_on_c, 3, 83, 100
2, 171009, Note_off_c, 3, 77, 0
2, 171009, Note_off_c, 3, 82, 0
2, 171072, Note_on_c, 3, 65, 92
2, 171072, Note_on_c, 3, 89, 92
2, 171073, Note_off_c, 3, 74, 0
2, 171073, Note_off_c, 3, 83, 0
2, 171193, Note_off_c, 3, 65, 0
2, 171193, Note_off_c, 3, 89, 0
2, 171200, Note_on_c, 3, 67, 80
2, 171200, Note_on_c, 3, 86, 80
2, 171264, Note_on_c, 3, 65, 58
2, 171264, Note_on_c, 3, 77, 58
2, 171265, Note_off_c, 3, 67, 0
2, 171265, Note_off_c, 3, 86, 0
2, 171328, Note_on_c, 3, 67, 84
2, 171328, Note_on_c, 3, 79, 84
2, 171329, Note_off_c, 3, 65, 0
2, 171329, Note_off_c, 3, 77, 0
2, 171449, Note_off_c, 3, 67, 0
2, 171449, Note_off_c, 3, 79, 0
2, 171456, Note_on_c, 3, 70, 76
2, 171456, Note_on_c, 3, 77, 76
2, 171520, Note_on_c, 3, 74, 82
2, 171520, Note_on_c, 3, 79, 82
2, 171521, Note_off_c, 3, 70, 0
2, 171521, Note_off_c, 3, 77, 0
2, 171584, Note_on_c, 3, 65, 88
2, 171584, Note_on_c, 3, 82, 88
2, 171585, Note_off_c, 3, 74, 0
2, 171585, Note_off_c, 3, 79, 0
2, 171705, Note_off_c, 3, 65, 0
2, 171705, Note_off_c, 3, 82, 0
2, 171712, Note_on_c, 3, 67, 94
2, 171712, Note_on_c, 3, 86, 94
2, 171776, Note_on_c, 3, 65, 78
2, 171776, Note_on_c, 3, 77, 78
2, 171777, Note_off_c, 3, 67, 0
2, 171777, Note_off_c, 3, 86, 0
2, 171840, Note_on_c, 3, 67, 84
2, 171840, Note_on_c, 3, 79, 84
2, 171841, Note_off_c, 3, 65, 0
2, 171841, Note_off_c, 3, 77, 0
2, 171961, Note_off_c, 3, 67, 0
2, 171961, Note_off_c, 3, 79, 0
2, 171968, Note_on_c, 3, 70, 83
2, 171968, Note_on_c, 3, 77, 83
2, 172032, Note_on_c, 3, 74, 88
2, 172032, Note_on_c, 3, 79, 88
2, 172033, Note_off_c, 3, 70, 0
2, 172033, Note_off_c, 3, 77, 0
2, 172096, Note_on_c, 3, 65, 92
2, 172096, Note_on_c, 3, 82, 92
2, 172097, Note_off_c, 3, 74, 0
2, 172097, Note_off_c, 3, 79, 0
2, 172217, Note_off_c, 3, 65, 0
2, 172217, Note_off_c, 3, 82, 0
2, 172224, Note_on_c, 3, 67, 91
2, 172224, Note_on_c, 3, 86, 91
2, 172288, Note_on_c, 3, 65, 75
2, 172288, Note_on_c, 3, 77, 75
2, 172289, Note_off_c, 3, 67, 0
2, 172289, Note_off_c, 3, 86, 0
2, 172352, Note_on_c, 3, 67, 90
2, 172352, Note_on_c, 3, 79, 90
2, 172353, Note_off_c, 3, 65, 0
2, 172353, Note_off_c, 3, 77, 0
2, 172473, Note_off_c, 3, 67, 0
2, 172473, Note_off_c, 3, 79, 0
2, 172480, Note_on_c, 3, 70, 74
2, 172480, Note_on_c, 3, 77, 74
2, 172544, Note_on_c, 3, 74, 82
2, 172544, Note_on_c, 3, 79, 82
2, 172545, Note_off_c, 3, 70, 0
2, 172545, Note_off_c, 3, 77, 0
2, 172608, Note_on_c, 3, 65, 92
2, 172608, Note_on_c, 3, 82, 92
2, 172609, Note_off_c, 3, 74, 0
2, 172609, Note_off_c, 3, 79, 0
2, 172729, Note_off_c, 3, 65, 0
2, 172729, Note_off_c, 3, 82, 0
2, 172736, Note_on_c, 3, 67, 93
2, 172736, Note_on_c, 3, 86, 93
2, 172800, Note_on_c, 3, 65, 78
2, 172800, Note_on_c, 3, 77, 78
2, 172801, Note_off_c, 3, 67, 0
2, 172801, Note_off_c, 3, 86, 0
2, 172864, Note_on_c, 3, 67, 86
2, 172864, Note_on_c, 3, 79, 86
2, 172865, Note_off_c, 3, 65, 0
2, 172865, Note_off_c, 3, 77, 0
2, 172985, Note_off_c, 3, 67, 0
2, 172985, Note_off_c, 3, 79, 0
2, 172992, Note_on_c, 3, 70, 76
2, 172992, Note_on_c, 3, 77, 76
2, 173056, Note_on_c, 3, 74, 82
2, 173056, Note_on_c, 3, 79, 82
2, 173057, Note_off_c, 3, 70, 0
2, 173057, Note_off_c, 3, 77, 0
2, 173120, Note_on_c, 3, 65, 92
2, 173120, Note_on_c, 3, 82, 92
2, 173121, Note_off_c, 3, 74, 0
2, 173121, Note_off_c, 3, 79, 0
2, 173241, Note_off_c, 3, 65, 0
2, 173241, Note_off_c, 3, 82, 0
2, 173248, Note_on_c, 3, 67, 95
2, 173248, Note_on_c, 3, 86, 95
2, 173312, Note_on_c, 3, 74, 82
2, 173312, Note_on_c, 3, 77, 82
2, 173313, Note_off_c, 3, 67, 0
2, 173313, Note_off_c, 3, 86, 0
2, 173376, Note_on_c, 3, 67, 87
2, 173376, Note_on_c, 3, 79, 87
2, 173377, Note_off_c, 3, 74, 0
2, 173377, Note_off_c, 3, 77, 0
2, 173497, Note_off_c, 3, 67, 0
2, 173497, Note_off_c, 3, 79, 0
2, 173504, Note_on_c, 3, 70, 101
2, 173504, Note_on_c, 3, 86, 101
2, 173568, Note_on_c, 3, 74, 85
2, 173568, Note_on_c, 3, 79, 85
2, 173569, Note_off_c, 3, 70, 0
2, 173569, Note_off_c, 3, 86, 0
2, 173632, Note_on_c, 3, 65, 87
2, 173632, Note_on_c, 3, 82, 87
2, 173633, Note_off_c, 3, 74, 0
2, 173633, Note_off_c, 3, 79, 0
2, 173753, Note_off_c, 3, 65, 0
2, 173753, Note_off_c, 3, 82, 0
2, 173760, Note_on_c, 3, 67, 95
2, 173760, Note_on_c, 3, 86, 95
2, 173824, Note_on_c, 3, 74, 76
2, 173824, Note_on_c, 3, 77, 76
2, 173825, Note_off_c, 3, 67, 0
2, 173825, Note_off_c, 3, 86, 0
2, 173888, Note_on_c, 3, 67, 82
2, 173888, Note_on_c, 3, 79, 82
2, 173889, Note_off_c, 3, 74, 0
2, 173889, Note_off_c, 3, 77, 0
2, 174009, Note_off_c, 3, 67, 0
2, 174009, Note_off_c, 3, 79, 0
2, 174016, Note_on_c, 3, 70, 94
2, 174016, Note_on_c, 3, 86, 94
2, 174080, Note_on_c, 3, 74, 79
2, 174080, Note_on_c, 3, 79, 79
2, 174081, Note_off_c, 3, 70, 0
2, 174081, Note_off_c, 3, 86, 0
2, 174144, Note_on_c, 3, 65, 89
2, 174144, Note_on_c, 3, 82, 89
2, 174145, Note_off_c, 3, 74, 0
2, 174145, Note_off_c, 3, 79, 0
2, 174265, Note_off_c, 3, 65, 0
2, 174265, Note_off_c, 3, 82, 0
2, 174272, Note_on_c, 3, 67, 97
2, 174272, Note_on_c, 3, 86, 97
2, 174336, Note_on_c, 3, 74, 79
2, 174336, Note_on_c, 3, 77, 79
2, 174337, Note_off_c, 3, 67, 0
2, 174337, Note_off_c, 3, 86, 0
2, 174400, Note_on_c, 3, 67, 85
2, 174400, Note_on_c, 3, 79, 85
2, 174401, Note_off_c, 3, 74, 0
2, 174401, Note_off_c, 3, 77, 0
2, 174521, Note_off_c, 3, 67, 0
2, 174521, Note_off_c, 3, 79, 0
2, 174528, Note_on_c, 3, 70, 99
2, 174528, Note_on_c, 3, 86, 99
2, 174592, Note_on_c, 3, 79, 82
2, 174593, Note_off_c, 3, 70, 0
2, 174593, Note_off_c, 3, 86, 0
2, 174656, Note_on_c, 3, 65, 88
2, 174656, Note_on_c, 3, 82, 88
2, 174657, Note_off_c, 3, 79, 0
2, 174777, Note_off_c, 3, 65, 0
2, 174777, Note_off_c, 3, 82, 0
2, 174784, Note_on_c, 3, 67, 94
2, 174784, Note_on_c, 3, 86, 94
2, 174848, Note_on_c, 3, 74, 75
2, 174848, Note_on_c, 3, 77, 75
2, 174849, Note_off_c, 3, 67, 0
2, 174849, Note_off_c, 3, 86, 0
2, 174912, Note_on_c, 3, 67, 86
2, 174912, Note_on_c, 3, 79, 86
2, 174913, Note_off_c, 3, 74, 0
2, 174913, Note_off_c, 3, 77, 0
2, 175033, Note_off_c, 3, 67, 0
2, 175033, Note_off_c, 3, 79, 0
2, 175040, Note_on_c, 3, 70, 103
2, 175040, Note_on_c, 3, 86, 103
2, 175104, Note_on_c, 3, 74, 87
2, 175104, Note_on_c, 3, 79, 87
2, 175105, Note_off_c, 3, 70, 0
2, 175105, Note_off_c, 3, 86, 0
2, 175168, Note_on_c, 3, 65, 88
2, 175168, Note_on_c, 3, 82, 88
2, 175169, Note_off_c, 3, 74, 0
2, 175169, Note_off_c, 3, 79, 0
2, 175289, Note_off_c, 3, 65, 0
2, 175289, Note_off_c, 3, 82, 0
2, 175296, Note_on_c, 3, 67, 93
2, 175296, Note_on_c, 3, 86, 93
2, 175360, Note_on_c, 3, 74, 76
2, 175360, Note_on_c, 3, 77, 76
2, 175361, Note_off_c, 3, 67, 0
2, 175361, Note_off_c, 3, 86, 0
2, 175424, Note_on_c, 3, 67, 88
2, 175424, Note_on_c, 3, 79, 88
2, 175425, Note_off_c, 3, 74, 0
2, 175425, Note_off_c, 3, 77, 0
2, 175545, Note_off_c, 3, 67, 0
2, 175545, Note_off_c, 3, 79, 0
2, 175552, Note_on_c, 3, 70, 97
2, 175552, Note_on_c, 3, 86, 97
2, 175616, Note_on_c, 3, 74, 81
2, 175616, Note_on_c, 3, 79, 81
2, 175617, Note_off_c, 3, 70, 0
2, 175617, Note_off_c, 3, 86, 0
2, 175680, Note_on_c, 3, 65, 91
2, 175680, Note_on_c, 3, 82, 91
2, 175681, Note_off_c, 3, 74, 0
2, 175681, Note_off_c, 3, 79, 0
2, 175801, Note_off_c, 3, 65, 0
2, 175801, Note_off_c, 3, 82, 0
2, 175808, Note_on_c, 3, 67, 92
2, 175808, Note_on_c, 3, 86, 92
2, 175872, Note_on_c, 3, 74, 74
2, 175872, Note_on_c, 3, 77, 74
2, 175873, Note_off_c, 3, 67, 0
2, 175873, Note_off_c, 3, 86, 0
2, 175936, Note_on_c, 3, 67, 86
2, 175936, Note_on_c, 3, 79, 86
2, 175937, Note_off_c, 3, 74, 0
2, 175937, Note_off_c, 3, 77, 0
2, 176057, Note_off_c, 3, 67, 0
2, 176057, Note_off_c, 3, 79, 0
2, 176064, Note_on_c, 3, 70, 103
2, 176064, Note_on_c, 3, 86, 103
2, 176128, Note_off_c, 3, 70, 0
2, 176128, Note_off_c, 3, 86, 0
2, 184320, Note_on_c, 3, 77, 77
2, 184320, Note_on_c, 3, 79, 77
2, 184320, Note_on_c, 3, 83, 77
2, 184320, Note_on_c, 3, 86, 77
2, 184371, Note_off_c, 3, 77, 0
2, 184371, Note_off_c, 3, 79, 0
2, 184371, Note_off_c, 3, 83, 0
2, 184371, Note_off_c, 3, 86, 0
2, 184661, Note_on_c, 3, 77, 78
2, 184661, Note_on_c, 3, 79, 78
2, 184661, Note_on_c, 3, 83, 78
2, 184661, Note_on_c, 3, 86, 78
2, 184712, Note_off_c, 3, 77, 0
2, 184712, Note_off_c, 3, 79, 0
2, 184712, Note_off_c, 3, 83, 0
2, 184712, Note_off_c, 3, 86, 0
2, 185002, Note_on_c, 3, 77, 76
2, 185002, Note_on_c, 3, 79, 76
2, 185002, Note_on_c, 3, 83, 76
2, 185002, Note_on_c, 3, 86, 76
2, 185053, Note_off_c, 3, 77, 0
2, 185053, Note_off_c, 3, 79, 0
2, 185053, Note_off_c, 3, 83, 0
2, 185053, Note_off_c, 3, 86, 0
2, 185344, Note_on_c, 3, 77, 75
2, 185344, Note_on_c, 3, 79, 75
2, 185344, Note_on_c, 3, 83, 75
2, 185344, Note_on_c, 3, 86, 75
2, 185395, Note_off_c, 3, 77, 0
2, 185395, Note_off_c, 3, 79, 0
2, 185395, Note_off_c, 3, 83, 0
2, 185395, Note_off_c, 3, 86, 0
2, 185685, Note_on_c, 3, 77, 76
2, 185685, Note_on_c, 3, 79, 76
2, 185685, Note_on_c, 3, 83, 76
2, 185685, Note_on_c, 3, 86, 76
2, 185736, Note_off_c, 3, 77, 0
2, 185736, Note_off_c, 3, 79, 0
2, 185736, Note_off_c, 3, 83, 0
2, 185736, Note_off_c, 3, 86, 0
2, 186026, Note_on_c, 3, 77, 82
2, 186026, Note_on_c, 3, 79, 82
2, 186026, Note_on_c, 3, 83, 82
2, 186026, Note_on_c, 3, 86, 82
2, 186077, Note_off_c, 3, 77, 0
2, 186077, Note_off_c, 3, 79, 0
2, 186077, Note_off_c, 3, 83, 0
2, 186077, Note_off_c, 3, 86, 0
2, 186368, Note_on_c, 3, 77, 74
2, 186368, Note_on_c, 3, 79, 74
2, 186368, Note_on_c, 3, 83, 74
2, 186368, Note_on_c, 3, 86, 74
2, 186419, Note_off_c, 3, 77, 0
2, 186419, Note_off_c, 3, 79, 0
2, 186419, Note_off_c, 3, 83, 0
2, 186419, Note_off_c, 3, 86, 0
2, 186709, Note_on_c, 3, 77, 75
2, 186709, Note_on_c, 3, 79, 75
2, 186709, Note_on_c, 3, 83, 75
2, 186709, Note_on_c, 3, 86, 75
2, 186760, Note_off_c, 3, 77, 0
2, 186760, Note_off_c, 3, 79, 0
2, 186760, Note_off_c, 3, 83, 0
2, 186760, Note_off_c, 3, 86, 0
2, 187050, Note_on_c, 3, 77, 78
2, 187050, Note_on_c, 3, 79, 78
2, 187050, Note_on_c, 3, 83, 78
2, 187050, Note_on_c, 3, 86, 78
2, 187101, Note_off_c, 3, 77, 0
2, 187101, Note_off_c, 3, 79, 0
2, 187101, Note_off_c, 3, 83, 0
2, 187101, Note_off_c, 3, 86, 0
2, 187392, Note_on_c, 3, 77, 76
2, 187392, Note_on_c, 3, 79, 76
2, 187392, Note_on_c, 3, 83, 76
2, 187392, Note_on_c, 3, 86, 76
2, 187443, Note_off_c, 3, 77, 0
2, 187443, Note_off_c, 3, 79, 0
2, 187443, Note_off_c, 3, 83, 0
2, 187443, Note_off_c, 3, 86, 0
2, 187733, Note_on_c, 3, 77, 74
2, 187733, Note_on_c, 3, 79, 74
2, 187733, Note_on_c, 3, 83, 74
2, 187733, Note_on_c, 3, 86, 74
2, 187784, Note_off_c, 3, 77, 0
2, 187784, Note_off_c, 3, 79, 0
2, 187784, Note_off_c, 3, 83, 0
2, 187784, Note_off_c, 3, 86, 0
2, 188074, Note_on_c, 3, 77, 76
2, 188074, Note_on_c, 3, 79, 76
2, 188074, Note_on_c, 3, 83, 76
2, 188074, Note_on_c, 3, 86, 76
2, 188125, Note_off_c, 3, 77, 0
2, 188125, Note_off_c, 3, 79, 0
2, 188125, Note_off_c, 3, 83, 0
2, 188125, Note_off_c, 3, 86, 0
2, 188416, Note_on_c, 3, 77, 78
2, 188416, Note_on_c, 3, 79, 78
2, 188416, Note_on_c, 3, 83, 78
2, 188416, Note_on_c, 3, 86, 78
2, 188467, Note_off_c, 3, 77, 0
2, 188467, Note_off_c, 3, 79, 0
2, 188467, Note_off_c, 3, 83, 0
2, 188467, Note_off_c, 3, 86, 0
2, 188757, Note_on_c, 3, 77, 70
2, 188757, Note_on_c, 3, 79, 70
2, 188757, Note_on_c, 3, 83, 70
2, 188757, Note_on_c, 3, 86, 70
2, 188808, Note_off_c, 3, 77, 0
2, 188808, Note_off_c, 3, 79, 0
2, 188808, Note_off_c, 3, 83, 0
2, 188808, Note_off_c, 3, 86, 0
2, 189098, Note_on_c, 3, 77, 76
2, 189098, Note_on_c, 3, 79, 76
2, 189098, Note_on_c, 3, 83, 76
2, 189098, Note_on_c, 3, 86, 76
2, 189149, Note_off_c, 3, 77, 0
2, 189149, Note_off_c, 3, 79, 0
2, 189149, Note_off_c, 3, 83, 0
2, 189149, Note_off_c, 3, 86, 0
2, 189440, Note_on_c, 3, 83, 64
2, 189440, Note_on_c, 3, 86, 64
2, 189525, Note_on_c, 3, 72, 48
2, 189525, Note_on_c, 3, 74, 48
2, 189526, Note_off_c, 3, 83, 0
2, 189526, Note_off_c, 3, 86, 0
2, 189610, Note_on_c, 3, 83, 87
2, 189610, Note_on_c, 3, 86, 87
2, 189611, Note_off_c, 3, 72, 0
2, 189611, Note_off_c, 3, 74, 0
2, 189696, Note_on_c, 3, 72, 66
2, 189696, Note_on_c, 3, 74, 66
2, 189697, Note_off_c, 3, 83, 0
2, 189697, Note_off_c, 3, 86, 0
2, 189776, Note_off_c, 3, 72, 0
2, 189776, Note_off_c, 3, 74, 0
2, 189781, Note_on_c, 3, 83, 86
2, 189781, Note_on_c, 3, 86, 86
2, 189866, Note_on_c, 3, 72, 66
2, 189866, Note_on_c, 3, 74, 66
2, 189867, Note_off_c, 3, 83, 0
2, 189867, Note_off_c, 3, 86, 0
2, 189952, Note_on_c, 3, 82, 91
2, 189952, Note_on_c, 3, 86, 91
2, 189953, Note_off_c, 3, 72, 0
2, 189953, Note_off_c, 3, 74, 0
2, 190037, Note_on_c, 3, 72, 71
2, 190037, Note_on_c, 3, 74, 71
2, 190038, Note_off_c, 3, 82, 0
2, 190038, Note_off_c, 3, 86, 0
2, 190122, Note_on_c, 3, 82, 86
2, 190122, Note_on_c, 3, 86, 86
2, 190123, Note_off_c, 3, 72, 0
2, 190123, Note_off_c, 3, 74, 0
2, 190208, Note_on_c, 3, 72, 66
2, 190208, Note_on_c, 3, 74, 66
2, 190209, Note_off_c, 3, 82, 0
2, 190209, Note_off_c, 3, 86, 0
2, 190288, Note_off_c, 3, 72, 0
2, 190288, Note_off_c, 3, 74, 0
2, 190293, Note_on_c, 3, 82, 88
2, 190293, Note_on_c, 3, 86, 88
2, 190378, Note_on_c, 3, 72, 64
2, 190378, Note_on_c, 3, 74, 64
2, 190379, Note_off_c, 3, 82, 0
2, 190379, Note_off_c, 3, 86, 0
2, 190464, Note_off_c, 3, 72, 0
2, 190464, Note_off_c, 3, 74, 0
2, 190464, Note_on_c, 3, 72, 90
2, 190464, Note_on_c, 3, 74, 90
2, 190464, Note_on_c, 3, 82, 90
2, 190464, Note_on_c, 3, 86, 90
2, 190549, Note_off_c, 3, 82, 0
2, 190549, Note_off_c, 3, 86, 0
2, 190549, Note_on_c, 3, 82, 91
2, 190549, Note_on_c, 3, 86, 91
2, 190550, Note_off_c, 3, 72, 0
2, 190550, Note_off_c, 3, 74, 0
2, 190629, Note_off_c, 3, 82, 0
2, 190629, Note_off_c, 3, 86, 0
2, 190634, Note_on_c, 3, 72, 51
2, 190634, Note_on_c, 3, 74, 51
2, 190720, Note_on_c, 3, 82, 65
2, 190720, Note_on_c, 3, 86, 65
2, 190721, Note_off_c, 3, 72, 0
2, 190721, Note_off_c, 3, 74, 0
2, 190805, Note_on_c, 3, 72, 51
2, 190805, Note_on_c, 3, 74, 51
2, 190806, Note_off_c, 3, 82, 0
2, 190806, Note_off_c, 3, 86, 0
2, 190890, Note_on_c, 3, 82, 63
2, 190890, Note_on_c, 3, 86, 63
2, 190891, Note_off_c, 3, 72, 0
2, 190891, Note_off_c, 3, 74, 0
2, 190976, Note_on_c, 3, 72, 54
2, 190976, Note_on_c, 3, 74, 54
2, 190977, Note_off_c, 3, 82, 0
2, 190977, Note_off_c, 3, 86, 0
2, 191061, Note_on_c, 3, 82, 62
2, 191061, Note_on_c, 3, 86, 62
2, 191062, Note_off_c, 3, 72, 0
2, 191062, Note_off_c, 3, 74, 0
2, 191146, Note_on_c, 3, 72, 51
2, 191146, Note_on_c, 3, 74, 51
2, 191147, Note_off_c, 3, 82, 0
2, 191147, Note_off_c, 3, 86, 0
2, 191232, Note_on_c, 3, 82, 64
2, 191232, Note_on_c, 3, 86, 64
2, 191233, Note_off_c, 3, 72, 0
2, 191233, Note_off_c, 3, 74, 0
2, 191317, Note_on_c, 3, 72, 51
2, 191317, Note_on_c, 3, 74, 51
2, 191318, Note_off_c, 3, 82, 0
2, 191318, Note_off_c, 3, 86, 0
2, 191402, Note_on_c, 3, 82, 63
2, 191402, Note_on_c, 3, 86, 63
2, 191403, Note_off_c, 3, 72, 0
2, 191403, Note_off_c, 3, 74, 0
2, 191488, Note_on_c, 3, 72, 52
2, 191488, Note_on_c, 3, 74, 52
2, 191489, Note_off_c, 3, 82, 0
2, 191489, Note_off_c, 3, 86, 0
2, 191568, Note_off_c, 3, 72, 0
2, 191568, Note_off_c, 3, 74, 0
2, 191744, Note_on_c, 3, 82, 65
2, 191744, Note_on_c, 3, 86, 65
2, 191829, Note_on_c, 3, 72, 44
2, 191829, Note_on_c, 3, 74, 44
2, 191830, Note_off_c, 3, 82, 0
2, 191830, Note_off_c, 3, 86, 0
2, 191914, Note_on_c, 3, 82, 88
2, 191914, Note_on_c, 3, 86, 88
2, 191915, Note_off_c, 3, 72, 0
2, 191915, Note_off_c, 3, 74, 0
2, 192000, Note_on_c, 3, 72, 63
2, 192000, Note_on_c, 3, 74, 63
2, 192001, Note_off_c, 3, 82, 0
2, 192001, Note_off_c, 3, 86, 0
2, 192085, Note_on_c, 3, 82, 83
2, 192085, Note_on_c, 3, 86, 83
2, 192086, Note_off_c, 3, 72, 0
2, 192086, Note_off_c, 3, 74, 0
2, 192170, Note_on_c, 3, 72, 63
2, 192170, Note_on_c, 3, 74, 63
2, 192171, Note_off_c, 3, 82, 0
2, 192171, Note_off_c, 3, 86, 0
2, 192256, Note_on_c, 3, 82, 89
2, 192256, Note_on_c, 3, 86, 89
2, 192257, Note_off_c, 3, 72, 0
2, 192257, Note_off_c, 3, 74, 0
2, 192341, Note_on_c, 3, 72, 66
2, 192341, Note_on_c, 3, 74, 66
2, 192342, Note_off_c, 3, 82, 0
2, 192342, Note_off_c, 3, 86, 0
2, 192426, Note_on_c, 3, 82, 84
2, 192426, Note_on_c, 3, 86, 84
2, 192427, Note_off_c, 3, 72, 0
2, 192427, Note_off_c, 3, 74, 0
2, 192512, Note_on_c, 3, 72, 65
2, 192512, Note_on_c, 3, 74, 65
2, 192513, Note_off_c, 3, 82, 0
2, 192513, Note_off_c, 3, 86, 0
2, 192597, Note_on_c, 3, 82, 85
2, 192597, Note_on_c, 3, 86, 85
2, 192598, Note_off_c, 3, 72, 0
2, 192598, Note_off_c, 3, 74, 0
2, 192682, Note_on_c, 3, 72, 65
2, 192682, Note_on_c, 3, 74, 65
2, 192683, Note_off_c, 3, 82, 0
2, 192683, Note_off_c, 3, 86, 0
2, 192763, Note_off_c, 3, 72, 0
2, 192763, Note_off_c, 3, 74, 0
2, 192768, Note_on_c, 3, 82, 87
2, 192768, Note_on_c, 3, 86, 87
2, 192853, Note_on_c, 3, 72, 71
2, 192853, Note_on_c, 3, 74, 71
2, 192854, Note_off_c, 3, 82, 0
2, 192854, Note_off_c, 3, 86, 0
2, 192938, Note_on_c, 3, 82, 87
2, 192938, Note_on_c, 3, 86, 87
2, 192939, Note_off_c, 3, 72, 0
2, 192939, Note_off_c, 3, 74, 0
2, 193024, Note_off_c, 3, 82, 0
2, 193024, Note_off_c, 3, 86, 0
2, 193024, Note_on_c, 3, 72, 73
2, 193024, Note_on_c, 3, 74, 73
2, 193024, Note_on_c, 3, 82, 73
2, 193024, Note_on_c, 3, 86, 73
2, 193109, Note_off_c, 3, 72, 0
2, 193109, Note_off_c, 3, 74, 0
2, 193109, Note_on_c, 3, 72, 54
2, 193109, Note_on_c, 3, 74, 54
2, 193110, Note_off_c, 3, 82, 0
2, 193110, Note_off_c, 3, 86, 0
2, 193194, Note_on_c, 3, 82, 87
2, 193194, Note_on_c, 3, 86, 87
2, 193195, Note_off_c, 3, 72, 0
2, 193195, Note_off_c, 3, 74, 0
2, 193280, Note_on_c, 3, 72, 67
2, 193280, Note_on_c, 3, 74, 67
2, 193281, Note_off_c, 3, 82, 0
2, 193281, Note_off_c, 3, 86, 0
2, 193360, Note_off_c, 3, 72, 0
2, 193360, Note_off_c, 3, 74, 0
2, 193365, Note_on_c, 3, 82, 90
2, 193365, Note_on_c, 3, 86, 90
2, 193450, Note_on_c, 3, 72, 66
2, 193450, Note_on_c, 3, 74, 66
2, 193451, Note_off_c, 3, 82, 0
2, 193451, Note_off_c, 3, 86, 0
2, 193536, Note_on_c, 3, 82, 88
2, 193536, Note_on_c, 3, 86, 88
2, 193537, Note_off_c, 3, 72, 0
2, 193537, Note_off_c, 3, 74, 0
2, 193621, Note_on_c, 3, 72, 70
2, 193621, Note_on_c, 3, 74, 70
2, 193622, Note_off_c, 3, 82, 0
2, 193622, Note_off_c, 3, 86, 0
2, 193706, Note_on_c, 3, 82, 87
2, 193706, Note_on_c, 3, 86, 87
2, 193707, Note_off_c, 3, 72, 0
2, 193707, Note_off_c, 3, 74, 0
2, 193792, Note_on_c, 3, 72, 69
2, 193792, Note_on_c, 3, 74, 69
2, 193793, Note_off_c, 3, 82, 0
2, 193793, Note_off_c, 3, 86, 0
2, 193877, Note_on_c, 3, 82, 90
2, 193877, Note_on_c, 3, 86, 90
2, 193878, Note_off_c, 3, 72, 0
2, 193878, Note_off_c, 3, 74, 0
2, 193962, Note_on_c, 3, 72, 64
2, 193962, Note_on_c, 3, 74, 64
2, 193963, Note_off_c, 3, 82, 0
2, 193963, Note_off_c, 3, 86, 0
2, 194048, Note_on_c, 3, 82, 86
2, 194048, Note_on_c, 3, 86, 86
2, 194049, Note_off_c, 3, 72, 0
2, 194049, Note_off_c, 3, 74, 0
2, 194133, Note_off_c, 3, 82, 0
2, 194133, Note_off_c, 3, 86, 0
2, 194133, Note_on_c, 3, 72, 78
2, 194133, Note_on_c, 3, 74, 78
2, 194133, Note_on_c, 3, 82, 78
2, 194133, Note_on_c, 3, 86, 78
2, 194218, Note_off_c, 3, 72, 0
2, 194218, Note_off_c, 3, 74, 0
2, 194218, Note_on_c, 3, 72, 56
2, 194218, Note_on_c, 3, 74, 56
2, 194219, Note_off_c, 3, 82, 0
2, 194219, Note_off_c, 3, 86, 0
2, 194304, Note_on_c, 3, 82, 88
2, 194304, Note_on_c, 3, 86, 88
2, 194305, Note_off_c, 3, 72, 0
2, 194305, Note_off_c, 3, 74, 0
2, 194389, Note_on_c, 3, 72, 67
2, 194389, Note_on_c, 3, 74, 67
2, 194390, Note_off_c, 3, 82, 0
2, 194390, Note_off_c, 3, 86, 0
2, 194474, Note_on_c, 3, 82, 92
2, 194474, Note_on_c, 3, 86, 92
2, 194475, Note_off_c, 3, 72, 0
2, 194475, Note_off_c, 3, 74, 0
2, 194560, Note_off_c, 3, 86, 0
2, 194560, Note_on_c, 3, 72, 94
2, 194560, Note_on_c, 3, 74, 94
2, 194560, Note_on_c, 3, 81, 94
2, 194560, Note_on_c, 3, 86, 94
2, 194561, Note_off_c, 3, 82, 0
2, 194645, Note_off_c, 3, 72, 0
2, 194645, Note_on_c, 3, 72, 56
2, 194645, Note_on_c, 3, 76, 56
2, 194646, Note_off_c, 3, 74, 0
2, 194646, Note_off_c, 3, 81, 0
2, 194646, Note_off_c, 3, 86, 0
2, 194730, Note_on_c, 3, 81, 70
2, 194730, Note_on_c, 3, 86, 70
2, 194731, Note_off_c, 3, 72, 0
2, 194731, Note_off_c, 3, 76, 0
2, 194816, Note_off_c, 3, 81, 0
2, 194816, Note_off_c, 3, 86, 0
2, 194816, Note_on_c, 3, 72, 74
2, 194816, Note_on_c, 3, 76, 74
2, 194816, Note_on_c, 3, 81, 74
2, 194816, Note_on_c, 3, 86, 74
2, 194901, Note_off_c, 3, 72, 0
2, 194901, Note_off_c, 3, 76, 0
2, 194901, Note_off_c, 3, 81, 0
2, 194901, Note_off_c, 3, 86, 0
2, 194901, Note_on_c, 3, 72, 70
2, 194901, Note_on_c, 3, 76, 70
2, 194901, Note_on_c, 3, 81, 70
2, 194901, Note_on_c, 3, 86, 70
2, 194986, Note_off_c, 3, 72, 0
2, 194986, Note_off_c, 3, 76, 0
2, 194986, Note_off_c, 3, 81, 0
2, 194986, Note_off_c, 3, 86, 0
2, 194986, Note_on_c, 3, 72, 72
2, 194986, Note_on_c, 3, 76, 72
2, 194986, Note_on_c, 3, 81, 72
2, 194986, Note_on_c, 3, 86, 72
2, 195072, Note_off_c, 3, 72, 0
2, 195072, Note_off_c, 3, 76, 0
2, 195072, Note_off_c, 3, 81, 0
2, 195072, Note_off_c, 3, 86, 0
2, 195072, Note_on_c, 3, 72, 71
2, 195072, Note_on_c, 3, 76, 71
2, 195072, Note_on_c, 3, 81, 71
2, 195072, Note_on_c, 3, 86, 71
2, 195157, Note_off_c, 3, 72, 0
2, 195157, Note_off_c, 3, 76, 0
2, 195157, Note_off_c, 3, 81, 0
2, 195157, Note_off_c, 3, 86, 0
2, 195157, Note_on_c, 3, 72, 73
2, 195157, Note_on_c, 3, 76, 73
2, 195157, Note_on_c, 3, 81, 73
2, 195157, Note_on_c, 3, 86, 73
2, 195242, Note_off_c, 3, 72, 0
2, 195242, Note_off_c, 3, 76, 0
2, 195242, Note_off_c, 3, 81, 0
2, 195242, Note_off_c, 3, 86, 0
2, 195242, Note_on_c, 3, 72, 74
2, 195242, Note_on_c, 3, 76, 74
2, 195242, Note_on_c, 3, 81, 74
2, 195242, Note_on_c, 3, 86, 74
2, 195328, Note_off_c, 3, 72, 0
2, 195328, Note_off_c, 3, 76, 0
2, 195328, Note_off_c, 3, 81, 0
2, 195328, Note_off_c, 3, 86, 0
2, 195328, Note_on_c, 3, 72, 75
2, 195328, Note_on_c, 3, 76, 75
2, 195328, Note_on_c, 3, 81, 75
2, 195328, Note_on_c, 3, 86, 75
2, 195413, Note_off_c, 3, 72, 0
2, 195413, Note_off_c, 3, 76, 0
2, 195413, Note_off_c, 3, 81, 0
2, 195413, Note_off_c, 3, 86, 0
2, 195413, Note_on_c, 3, 72, 73
2, 195413, Note_on_c, 3, 76, 73
2, 195413, Note_on_c, 3, 81, 73
2, 195413, Note_on_c, 3, 86, 73
2, 195498, Note_off_c, 3, 72, 0
2, 195498, Note_off_c, 3, 76, 0
2, 195498, Note_off_c, 3, 81, 0
2, 195498, Note_off_c, 3, 86, 0
2, 195498, Note_on_c, 3, 72, 72
2, 195498, Note_on_c, 3, 76, 72
2, 195498, Note_on_c, 3, 81, 72
2, 195498, Note_on_c, 3, 86, 72
2, 195584, Note_off_c, 3, 72, 0
2, 195584, Note_off_c, 3, 76, 0
2, 195584, Note_off_c, 3, 81, 0
2, 195584, Note_off_c, 3, 86, 0
2, 195584, Note_on_c, 3, 72, 65
2, 195584, Note_on_c, 3, 76, 65
2, 195584, Note_on_c, 3, 81, 65
2, 195584, Note_on_c, 3, 86, 65
2, 195669, Note_off_c, 3, 72, 0
2, 195669, Note_off_c, 3, 76, 0
2, 195669, Note_off_c, 3, 81, 0
2, 195669, Note_off_c, 3, 86, 0
2, 195669, Note_on_c, 3, 72, 70
2, 195669, Note_on_c, 3, 76, 70
2, 195669, Note_on_c, 3, 81, 70
2, 195669, Note_on_c, 3, 86, 70
2, 195754, Note_off_c, 3, 72, 0
2, 195754, Note_off_c, 3, 76, 0
2, 195754, Note_on_c, 3, 72, 54
2, 195754, Note_on_c, 3, 76, 54
2, 195755, Note_off_c, 3, 81, 0
2, 195755, Note_off_c, 3, 86, 0
2, 195840, Note_on_c, 3, 81, 87
2, 195840, Note_on_c, 3, 86, 87
2, 195841, Note_off_c, 3, 72, 0
2, 195841, Note_off_c, 3, 76, 0
2, 195925, Note_off_c, 3, 81, 0
2, 195925, Note_off_c, 3, 86, 0
2, 195925, Note_on_c, 3, 72, 72
2, 195925, Note_on_c, 3, 76, 72
2, 195925, Note_on_c, 3, 81, 72
2, 195925, Note_on_c, 3, 86, 72
2, 196010, Note_off_c, 3, 72, 0
2, 196010, Note_off_c, 3, 76, 0
2, 196010, Note_off_c, 3, 81, 0
2, 196010, Note_off_c, 3, 86, 0
2, 196010, Note_on_c, 3, 72, 74
2, 196010, Note_on_c, 3, 76, 74
2, 196010, Note_on_c, 3, 81, 74
2, 196010, Note_on_c, 3, 86, 74
2, 196096, Note_off_c, 3, 81, 0
2, 196096, Note_off_c, 3, 86, 0
2, 196096, Note_on_c, 3, 81, 76
2, 196096, Note_on_c, 3, 86, 76
2, 196097, Note_off_c, 3, 72, 0
2, 196097, Note_off_c, 3, 76, 0
2, 196181, Note_on_c, 3, 72, 54
2, 196181, Note_on_c, 3, 76, 54
2, 196182, Note_off_c, 3, 81, 0
2, 196182, Note_off_c, 3, 86, 0
2, 196266, Note_off_c, 3, 72, 0
2, 196266, Note_off_c, 3, 76, 0
2, 196266, Note_on_c, 3, 72, 89
2, 196266, Note_on_c, 3, 76, 89
2, 196266, Note_on_c, 3, 81, 89
2, 196266, Note_on_c, 3, 86, 89
2, 196352, Note_off_c, 3, 81, 0
2, 196352, Note_off_c, 3, 86, 0
2, 196352, Note_on_c, 3, 81, 94
2, 196352, Note_on_c, 3, 86, 94
2, 196353, Note_off_c, 3, 72, 0
2, 196353, Note_off_c, 3, 76, 0
2, 196437, Note_off_c, 3, 81, 0
2, 196437, Note_off_c, 3, 86, 0
2, 196437, Note_on_c, 3, 72, 74
2, 196437, Note_on_c, 3, 76, 74
2, 196437, Note_on_c, 3, 81, 74
2, 196437, Note_on_c, 3, 86, 74
2, 196522, Note_off_c, 3, 72, 0
2, 196522, Note_off_c, 3, 76, 0
2, 196522, Note_off_c, 3, 81, 0
2, 196522, Note_off_c, 3, 86, 0
2, 196522, Note_on_c, 3, 72, 71
2, 196522, Note_on_c, 3, 76, 71
2, 196522, Note_on_c, 3, 81, 71
2, 196522, Note_on_c, 3, 86, 71
2, 196608, Note_off_c, 3, 72, 0
2, 196608, Note_off_c, 3, 76, 0
2, 196608, Note_on_c, 3, 72, 70
2, 196608, Note_on_c, 3, 76, 70
2, 196608, Note_on_c, 3, 82, 70
2, 196608, Note_on_c, 3, 84, 70
2, 196609, Note_off_c, 3, 81, 0
2, 196609, Note_off_c, 3, 86, 0
2, 196693, Note_off_c, 3, 72, 0
2, 196693, Note_off_c, 3, 76, 0
2, 196693, Note_on_c, 3, 72, 76
2, 196693, Note_on_c, 3, 76, 76
2, 196693, Note_on_c, 3, 81, 76
2, 196693, Note_on_c, 3, 86, 76
2, 196694, Note_off_c, 3, 82, 0
2, 196694, Note_off_c, 3, 84, 0
2, 196778, Note_on_c, 3, 82, 76
2, 196778, Note_on_c, 3, 84, 76
2, 196779, Note_off_c, 3, 72, 0
2, 196779, Note_off_c, 3, 76, 0
2, 196779, Note_off_c, 3, 81, 0
2, 196779, Note_off_c, 3, 86, 0
2, 196864, Note_off_c, 3, 84, 0
2, 196864, Note_on_c, 3, 72, 73
2, 196864, Note_on_c, 3, 76, 73
2, 196864, Note_on_c, 3, 81, 73
2, 196864, Note_on_c, 3, 84, 73
2, 196865, Note_off_c, 3, 82, 0
2, 196949, Note_off_c, 3, 72, 0
2, 196949, Note_off_c, 3, 76, 0
2, 196949, Note_off_c, 3, 84, 0
2, 196949, Note_on_c, 3, 72, 75
2, 196949, Note_on_c, 3, 76, 75
2, 196949, Note_on_c, 3, 82, 75
2, 196949, Note_on_c, 3, 84, 75
2, 196950, Note_off_c, 3, 81, 0
2, 197034, Note_off_c, 3, 72, 0
2, 197034, Note_off_c, 3, 76, 0
2, 197034, Note_off_c, 3, 84, 0
2, 197034, Note_on_c, 3, 72, 72
2, 197034, Note_on_c, 3, 76, 72
2, 197034, Note_on_c, 3, 81, 72
2, 197034, Note_on_c, 3, 84, 72
2, 197035, Note_off_c, 3, 82, 0
2, 197120, Note_off_c, 3, 72, 0
2, 197120, Note_off_c, 3, 76, 0
2, 197120, Note_off_c, 3, 84, 0
2, 197120, Note_on_c, 3, 72, 76
2, 197120, Note_on_c, 3, 76, 76
2, 197120, Note_on_c, 3, 82, 76
2, 197120, Note_on_c, 3, 84, 76
2, 197121, Note_off_c, 3, 81, 0
2, 197205, Note_off_c, 3, 72, 0
2, 197205, Note_off_c, 3, 76, 0
2, 197205, Note_off_c, 3, 84, 0
2, 197205, Note_on_c, 3, 72, 71
2, 197205, Note_on_c, 3, 76, 71
2, 197205, Note_on_c, 3, 81, 71
2, 197205, Note_on_c, 3, 84, 71
2, 197206, Note_off_c, 3, 82, 0
2, 197290, Note_off_c, 3, 72, 0
2, 197290, Note_off_c, 3, 76, 0
2, 197290, Note_off_c, 3, 84, 0
2, 197290, Note_on_c, 3, 72, 74
2, 197290, Note_on_c, 3, 76, 74
2, 197290, Note_on_c, 3, 82, 74
2, 197290, Note_on_c, 3, 84, 74
2, 197291, Note_off_c, 3, 81, 0
2, 197376, Note_off_c, 3, 72, 0
2, 197376, Note_off_c, 3, 76, 0
2, 197376, Note_off_c, 3, 82, 0
2, 197376, Note_off_c, 3, 84, 0
2, 197376, Note_on_c, 3, 72, 73
2, 197376, Note_on_c, 3, 76, 73
2, 197376, Note_on_c, 3, 82, 73
2, 197376, Note_on_c, 3, 84, 73
2, 197461, Note_off_c, 3, 72, 0
2, 197461, Note_off_c, 3, 76, 0
2, 197461, Note_off_c, 3, 82, 0
2, 197461, Note_off_c, 3, 84, 0
2, 197461, Note_on_c, 3, 72, 65
2, 197461, Note_on_c, 3, 76, 65
2, 197461, Note_on_c, 3, 82, 65
2, 197461, Note_on_c, 3, 84, 65
2, 197546, Note_off_c, 3, 72, 0
2, 197546, Note_off_c, 3, 76, 0
2, 197546, Note_off_c, 3, 82, 0
2, 197546, Note_off_c, 3, 84, 0
2, 197546, Note_on_c, 3, 72, 71
2, 197546, Note_on_c, 3, 76, 71
2, 197546, Note_on_c, 3, 82, 71
2, 197546, Note_on_c, 3, 84, 71
2, 197632, Note_off_c, 3, 72, 0
2, 197632, Note_off_c, 3, 76, 0
2, 197632, Note_off_c, 3, 82, 0
2, 197632, Note_off_c, 3, 84, 0
2, 197632, Note_on_c, 3, 72, 72
2, 197632, Note_on_c, 3, 76, 72
2, 197632, Note_on_c, 3, 82, 72
2, 197632, Note_on_c, 3, 84, 72
2, 197717, Note_off_c, 3, 82, 0
2, 197717, Note_off_c, 3, 84, 0
2, 197717, Note_on_c, 3, 82, 72
2, 197717, Note_on_c, 3, 84, 72
2, 197718, Note_off_c, 3, 72, 0
2, 197718, Note_off_c, 3, 76, 0
2, 197802, Note_on_c, 3, 72, 64
2, 197802, Note_on_c, 3, 76, 64
2, 197803, Note_off_c, 3, 82, 0
2, 197803, Note_off_c, 3, 84, 0
2, 197888, Note_off_c, 3, 72, 0
2, 197888, Note_off_c, 3, 76, 0
2, 197888, Note_on_c, 3, 72, 80
2, 197888, Note_on_c, 3, 76, 80
2, 197888, Note_on_c, 3, 82, 80
2, 197888, Note_on_c, 3, 84, 80
2, 197973, Note_off_c, 3, 72, 0
2, 197973, Note_off_c, 3, 76, 0
2, 197973, Note_off_c, 3, 82, 0
2, 197973, Note_off_c, 3, 84, 0
2, 197973, Note_on_c, 3, 72, 76
2, 197973, Note_on_c, 3, 76, 76
2, 197973, Note_on_c, 3, 82, 76
2, 197973, Note_on_c, 3, 84, 76
2, 198058, Note_off_c, 3, 72, 0
2, 198058, Note_off_c, 3, 76, 0
2, 198058, Note_off_c, 3, 82, 0
2, 198058, Note_off_c, 3, 84, 0
2, 198058, Note_on_c, 3, 72, 73
2, 198058, Note_on_c, 3, 76, 73
2, 198058, Note_on_c, 3, 82, 73
2, 198058, Note_on_c, 3, 84, 73
2, 198144, Note_off_c, 3, 82, 0
2, 198144, Note_off_c, 3, 84, 0
2, 198144, Note_on_c, 3, 82, 73
2, 198144, Note_on_c, 3, 84, 73
2, 198145, Note_off_c, 3, 72, 0
2, 198145, Note_off_c, 3, 76, 0
2, 198229, Note_on_c, 3, 72, 56
2, 198229, Note_on_c, 3, 76, 56
2, 198230, Note_off_c, 3, 82, 0
2, 198230, Note_off_c, 3, 84, 0
2, 198309, Note_off_c, 3, 72, 0
2, 198309, Note_off_c, 3, 76, 0
2, 198314, Note_on_c, 3, 72, 69
2, 198314, Note_on_c, 3, 76, 69
2, 198400, Note_off_c, 3, 72, 0
2, 198400, Note_off_c, 3, 76, 0
2, 198400, Note_on_c, 3, 72, 81
2, 198400, Note_on_c, 3, 76, 81
2, 198400, Note_on_c, 3, 82, 81
2, 198400, Note_on_c, 3, 84, 81
2, 198485, Note_off_c, 3, 72, 0
2, 198485, Note_off_c, 3, 76, 0
2, 198485, Note_off_c, 3, 82, 0
2, 198485, Note_off_c, 3, 84, 0
2, 198485, Note_on_c, 3, 72, 75
2, 198485, Note_on_c, 3, 76, 75
2, 198485, Note_on_c, 3, 82, 75
2, 198485, Note_on_c, 3, 84, 75
2, 198570, Note_off_c, 3, 72, 0
2, 198570, Note_off_c, 3, 76, 0
2, 198570, Note_off_c, 3, 82, 0
2, 198570, Note_off_c, 3, 84, 0
2, 198570, Note_on_c, 3, 72, 73
2, 198570, Note_on_c, 3, 76, 73
2, 198570, Note_on_c, 3, 82, 73
2, 198570, Note_on_c, 3, 84, 73
2, 198656, Note_off_c, 3, 72, 0
2, 198656, Note_off_c, 3, 76, 0
2, 198656, Note_off_c, 3, 82, 0
2, 198656, Note_on_c, 3, 72, 68
2, 198656, Note_on_c, 3, 76, 68
2, 198656, Note_on_c, 3, 81, 68
2, 198656, Note_on_c, 3, 82, 68
2, 198657, Note_off_c, 3, 84, 0
2, 198741, Note_off_c, 3, 72, 0
2, 198741, Note_off_c, 3, 76, 0
2, 198741, Note_off_c, 3, 81, 0
2, 198741, Note_off_c, 3, 82, 0
2, 198741, Note_on_c, 3, 72, 72
2, 198741, Note_on_c, 3, 76, 72
2, 198741, Note_on_c, 3, 81, 72
2, 198741, Note_on_c, 3, 82, 72
2, 198826, Note_off_c, 3, 72, 0
2, 198826, Note_off_c, 3, 76, 0
2, 198826, Note_off_c, 3, 81, 0
2, 198826, Note_off_c, 3, 82, 0
2, 198826, Note_on_c, 3, 72, 73
2, 198826, Note_on_c, 3, 76, 73
2, 198826, Note_on_c, 3, 81, 73
2, 198826, Note_on_c, 3, 82, 73
2, 198912, Note_off_c, 3, 72, 0
2, 198912, Note_off_c, 3, 76, 0
2, 198912, Note_off_c, 3, 81, 0
2, 198912, Note_off_c, 3, 82, 0
2, 198912, Note_on_c, 3, 72, 71
2, 198912, Note_on_c, 3, 76, 71
2, 198912, Note_on_c, 3, 81, 71
2, 198912, Note_on_c, 3, 82, 71
2, 198997, Note_off_c, 3, 72, 0
2, 198997, Note_off_c, 3, 76, 0
2, 198997, Note_off_c, 3, 81, 0
2, 198997, Note_off_c, 3, 82, 0
2, 198997, Note_on_c, 3, 72, 71
2, 198997, Note_on_c, 3, 76, 71
2, 198997, Note_on_c, 3, 81, 71
2, 198997, Note_on_c, 3, 82, 71
2, 199082, Note_off_c, 3, 72, 0
2, 199082, Note_off_c, 3, 76, 0
2, 199082, Note_off_c, 3, 81, 0
2, 199082, Note_off_c, 3, 82, 0
2, 199082, Note_on_c, 3, 72, 73
2, 199082, Note_on_c, 3, 76, 73
2, 199082, Note_on_c, 3, 81, 73
2, 199082, Note_on_c, 3, 82, 73
2, 199168, Note_off_c, 3, 72, 0
2, 199168, Note_off_c, 3, 76, 0
2, 199168, Note_off_c, 3, 81, 0
2, 199168, Note_off_c, 3, 82, 0
2, 199168, Note_on_c, 3, 72, 70
2, 199168, Note_on_c, 3, 76, 70
2, 199168, Note_on_c, 3, 81, 70
2, 199168, Note_on_c, 3, 82, 70
2, 199253, Note_off_c, 3, 72, 0
2, 199253, Note_off_c, 3, 76, 0
2, 199253, Note_on_c, 3, 72, 59
2, 199253, Note_on_c, 3, 76, 59
2, 199254, Note_off_c, 3, 81, 0
2, 199254, Note_off_c, 3, 82, 0
2, 199338, Note_off_c, 3, 72, 0
2, 199338, Note_off_c, 3, 76, 0
2, 199338, Note_on_c, 3, 72, 79
2, 199338, Note_on_c, 3, 76, 79
2, 199338, Note_on_c, 3, 81, 79
2, 199338, Note_on_c, 3, 82, 79
2, 199424, Note_off_c, 3, 72, 0
2, 199424, Note_off_c, 3, 76, 0
2, 199424, Note_off_c, 3, 81, 0
2, 199424, Note_off_c, 3, 82, 0
2, 199424, Note_on_c, 3, 72, 72
2, 199424, Note_on_c, 3, 76, 72
2, 199424, Note_on_c, 3, 81, 72
2, 199424, Note_on_c, 3, 82, 72
2, 199509, Note_off_c, 3, 72, 0
2, 199509, Note_off_c, 3, 76, 0
2, 199509, Note_off_c, 3, 81, 0
2, 199509, Note_off_c, 3, 82, 0
2, 199509, Note_on_c, 3, 72, 69
2, 199509, Note_on_c, 3, 76, 69
2, 199509, Note_on_c, 3, 81, 69
2, 199509, Note_on_c, 3, 82, 69
2, 199594, Note_off_c, 3, 72, 0
2, 199594, Note_off_c, 3, 76, 0
2, 199594, Note_off_c, 3, 81, 0
2, 199594, Note_off_c, 3, 82, 0
2, 199594, Note_on_c, 3, 72, 69
2, 199594, Note_on_c, 3, 76, 69
2, 199594, Note_on_c, 3, 81, 69
2, 199594, Note_on_c, 3, 82, 69
2, 199680, Note_off_c, 3, 72, 0
2, 199680, Note_off_c, 3, 76, 0
2, 199680, Note_on_c, 3, 72, 63
2, 199680, Note_on_c, 3, 76, 63
2, 199681, Note_off_c, 3, 81, 0
2, 199681, Note_off_c, 3, 82, 0
2, 199765, Note_on_c, 3, 82, 82
2, 199765, Note_on_c, 3, 84, 82
2, 199766, Note_off_c, 3, 72, 0
2, 199766, Note_off_c, 3, 76, 0
2, 199850, Note_off_c, 3, 82, 0
2, 199850, Note_on_c, 3, 72, 77
2, 199850, Note_on_c, 3, 76, 77
2, 199850, Note_on_c, 3, 81, 77
2, 199850, Note_on_c, 3, 82, 77
2, 199851, Note_off_c, 3, 84, 0
2, 199936, Note_off_c, 3, 72, 0
2, 199936, Note_off_c, 3, 76, 0
2, 199936, Note_off_c, 3, 82, 0
2, 199936, Note_on_c, 3, 72, 77
2, 199936, Note_on_c, 3, 76, 77
2, 199936, Note_on_c, 3, 82, 77
2, 199936, Note_on_c, 3, 84, 77
2, 199937, Note_off_c, 3, 81, 0
2, 200021, Note_off_c, 3, 72, 0
2, 200021, Note_off_c, 3, 76, 0
2, 200021, Note_off_c, 3, 82, 0
2, 200021, Note_on_c, 3, 72, 73
2, 200021, Note_on_c, 3, 76, 73
2, 200021, Note_on_c, 3, 81, 73
2, 200021, Note_on_c, 3, 82, 73
2, 200022, Note_off_c, 3, 84, 0
2, 200106, Note_off_c, 3, 72, 0
2, 200106, Note_off_c, 3, 76, 0
2, 200106, Note_off_c, 3, 82, 0
2, 200106, Note_on_c, 3, 72, 81
2, 200106, Note_on_c, 3, 76, 81
2, 200106, Note_on_c, 3, 82, 81
2, 200106, Note_on_c, 3, 84, 81
2, 200107, Note_off_c, 3, 81, 0
2, 200192, Note_off_c, 3, 72, 0
2, 200192, Note_off_c, 3, 76, 0
2, 200192, Note_off_c, 3, 82, 0
2, 200192, Note_on_c, 3, 72, 75
2, 200192, Note_on_c, 3, 76, 75
2, 200192, Note_on_c, 3, 81, 75
2, 200192, Note_on_c, 3, 82, 75
2, 200193, Note_off_c, 3, 84, 0
2, 200277, Note_off_c, 3, 72, 0
2, 200277, Note_off_c, 3, 76, 0
2, 200277, Note_off_c, 3, 82, 0
2, 200277, Note_on_c, 3, 72, 74
2, 200277, Note_on_c, 3, 76, 74
2, 200277, Note_on_c, 3, 82, 74
2, 200277, Note_on_c, 3, 84, 74
2, 200278, Note_off_c, 3, 81, 0
2, 200362, Note_off_c, 3, 72, 0
2, 200362, Note_off_c, 3, 76, 0
2, 200362, Note_off_c, 3, 82, 0
2, 200362, Note_on_c, 3, 72, 66
2, 200362, Note_on_c, 3, 76, 66
2, 200362, Note_on_c, 3, 81, 66
2, 200362, Note_on_c, 3, 82, 66
2, 200363, Note_off_c, 3, 84, 0
2, 200448, Note_off_c, 3, 72, 0
2, 200448, Note_off_c, 3, 76, 0
2, 200448, Note_on_c, 3, 72, 58
2, 200448, Note_on_c, 3, 76, 58
2, 200449, Note_off_c, 3, 81, 0
2, 200449, Note_off_c, 3, 82, 0
2, 200533, Note_off_c, 3, 72, 0
2, 200533, Note_off_c, 3, 76, 0
2, 200533, Note_on_c, 3, 72, 79
2, 200533, Note_on_c, 3, 76, 79
2, 200533, Note_on_c, 3, 82, 79
2, 200533, Note_on_c, 3, 84, 79
2, 200618, Note_off_c, 3, 72, 0
2, 200618, Note_off_c, 3, 76, 0
2, 200618, Note_off_c, 3, 82, 0
2, 200618, Note_on_c, 3, 72, 84
2, 200618, Note_on_c, 3, 76, 84
2, 200618, Note_on_c, 3, 81, 84
2, 200618, Note_on_c, 3, 82, 84
2, 200619, Note_off_c, 3, 84, 0
2, 200704, Note_off_c, 3, 72, 0
2, 200704, Note_off_c, 3, 76, 0
2, 200704, Note_off_c, 3, 82, 0
2, 200704, Note_on_c, 3, 72, 78
2, 200704, Note_on_c, 3, 76, 78
2, 200704, Note_on_c, 3, 82, 78
2, 200704, Note_on_c, 3, 84, 78
2, 200705, Note_off_c, 3, 81, 0
2, 200789, Note_off_c, 3, 72, 0
2, 200789, Note_off_c, 3, 76, 0
2, 200789, Note_off_c, 3, 82, 0
2, 200789, Note_off_c, 3, 84, 0
2, 200789, Note_on_c, 3, 72, 74
2, 200789, Note_on_c, 3, 76, 74
2, 200789, Note_on_c, 3, 82, 74
2, 200789, Note_on_c, 3, 84, 74
2, 200874, Note_off_c, 3, 72, 0
2, 200874, Note_off_c, 3, 76, 0
2, 200874, Note_off_c, 3, 82, 0
2, 200874, Note_off_c, 3, 84, 0
2, 200874, Note_on_c, 3, 72, 73
2, 200874, Note_on_c, 3, 76, 73
2, 200874, Note_on_c, 3, 82, 73
2, 200874, Note_on_c, 3, 84, 73
2, 200960, Note_off_c, 3, 72, 0
2, 200960, Note_off_c, 3, 76, 0
2, 200960, Note_off_c, 3, 82, 0
2, 200960, Note_off_c, 3, 84, 0
2, 200960, Note_on_c, 3, 72, 69
2, 200960, Note_on_c, 3, 76, 69
2, 200960, Note_on_c, 3, 82, 69
2, 200960, Note_on_c, 3, 84, 69
2, 201045, Note_off_c, 3, 72, 0
2, 201045, Note_off_c, 3, 76, 0
2, 201045, Note_off_c, 3, 82, 0
2, 201045, Note_off_c, 3, 84, 0
2, 201045, Note_on_c, 3, 72, 74
2, 201045, Note_on_c, 3, 76, 74
2, 201045, Note_on_c, 3, 82, 74
2, 201045, Note_on_c, 3, 84, 74
2, 201130, Note_off_c, 3, 72, 0
2, 201130, Note_off_c, 3, 76, 0
2, 201130, Note_off_c, 3, 82, 0
2, 201130, Note_off_c, 3, 84, 0
2, 201130, Note_on_c, 3, 72, 73
2, 201130, Note_on_c, 3, 76, 73
2, 201130, Note_on_c, 3, 82, 73
2, 201130, Note_on_c, 3, 84, 73
2, 201216, Note_off_c, 3, 72, 0
2, 201216, Note_off_c, 3, 76, 0
2, 201216, Note_off_c, 3, 82, 0
2, 201216, Note_off_c, 3, 84, 0
2, 201216, Note_on_c, 3, 72, 70
2, 201216, Note_on_c, 3, 76, 70
2, 201216, Note_on_c, 3, 82, 70
2, 201216, Note_on_c, 3, 84, 70
2, 201301, Note_off_c, 3, 72, 0
2, 201301, Note_off_c, 3, 76, 0
2, 201301, Note_off_c, 3, 82, 0
2, 201301, Note_off_c, 3, 84, 0
2, 201301, Note_on_c, 3, 72, 76
2, 201301, Note_on_c, 3, 76, 76
2, 201301, Note_on_c, 3, 82, 76
2, 201301, Note_on_c, 3, 84, 76
2, 201386, Note_off_c, 3, 72, 0
2, 201386, Note_off_c, 3, 76, 0
2, 201386, Note_off_c, 3, 82, 0
2, 201386, Note_off_c, 3, 84, 0
2, 201386, Note_on_c, 3, 72, 72
2, 201386, Note_on_c, 3, 76, 72
2, 201386, Note_on_c, 3, 82, 72
2, 201386, Note_on_c, 3, 84, 72
2, 201472, Note_off_c, 3, 82, 0
2, 201472, Note_off_c, 3, 84, 0
2, 201472, Note_on_c, 3, 82, 72
2, 201472, Note_on_c, 3, 84, 72
2, 201473, Note_off_c, 3, 72, 0
2, 201473, Note_off_c, 3, 76, 0
2, 201557, Note_on_c, 3, 72, 57
2, 201557, Note_on_c, 3, 76, 57
2, 201558, Note_off_c, 3, 82, 0
2, 201558, Note_off_c, 3, 84, 0
2, 201642, Note_on_c, 3, 82, 67
2, 201642, Note_on_c, 3, 84, 67
2, 201643, Note_off_c, 3, 72, 0
2, 201643, Note_off_c, 3, 76, 0
2, 201723, Note_off_c, 3, 82, 0
2, 201723, Note_off_c, 3, 84, 0
2, 201728, Note_on_c, 3, 86, 81
2, 201728, Note_on_c, 3, 88, 81
2, 201813, Note_on_c, 3, 76, 71
2, 201813, Note_on_c, 3, 77, 71
2, 201813, Note_on_c, 3, 83, 71
2, 201813, Note_on_c, 3, 84, 71
2, 201814, Note_off_c, 3, 86, 0
2, 201814, Note_off_c, 3, 88, 0
2, 201898, Note_off_c, 3, 76, 0
2, 201898, Note_off_c, 3, 77, 0
2, 201898, Note_on_c, 3, 76, 79
2, 201898, Note_on_c, 3, 77, 79
2, 201898, Note_on_c, 3, 86, 79
2, 201898, Note_on_c, 3, 88, 79
2, 201899, Note_off_c, 3, 83, 0
2, 201899, Note_off_c, 3, 84, 0
2, 201984, Note_off_c, 3, 76, 0
2, 201984, Note_off_c, 3, 77, 0
2, 201984, Note_off_c, 3, 86, 0
2, 201984, Note_off_c, 3, 88, 0
2, 201984, Note_on_c, 3, 76, 72
2, 201984, Note_on_c, 3, 77, 72
2, 201984, Note_on_c, 3, 86, 72
2, 201984, Note_on_c, 3, 88, 72
2, 202069, Note_off_c, 3, 76, 0
2, 202069, Note_off_c, 3, 77, 0
2, 202069, Note_off_c, 3, 86, 0
2, 202069, Note_off_c, 3, 88, 0
2, 202069, Note_on_c, 3, 76, 71
2, 202069, Note_on_c, 3, 77, 71
2, 202069, Note_on_c, 3, 86, 71
2, 202069, Note_on_c, 3, 88, 71
2, 202154, Note_off_c, 3, 76, 0
2, 202154, Note_off_c, 3, 77, 0
2, 202154, Note_off_c, 3, 86, 0
2, 202154, Note_off_c, 3, 88, 0
2, 202154, Note_on_c, 3, 76, 69
2, 202154, Note_on_c, 3, 77, 69
2, 202154, Note_on_c, 3, 86, 69
2, 202154, Note_on_c, 3, 88, 69
2, 202240, Note_off_c, 3, 76, 0
2, 202240, Note_off_c, 3, 77, 0
2, 202240, Note_off_c, 3, 86, 0
2, 202240, Note_off_c, 3, 88, 0
2, 202240, Note_on_c, 3, 76, 71
2, 202240, Note_on_c, 3, 77, 71
2, 202240, Note_on_c, 3, 86, 71
2, 202240, Note_on_c, 3, 88, 71
2, 202325, Note_off_c, 3, 76, 0
2, 202325, Note_off_c, 3, 77, 0
2, 202325, Note_off_c, 3, 86, 0
2, 202325, Note_off_c, 3, 88, 0
2, 202325, Note_on_c, 3, 76, 70
2, 202325, Note_on_c, 3, 77, 70
2, 202325, Note_on_c, 3, 86, 70
2, 202325, Note_on_c, 3, 88, 70
2, 202410, Note_off_c, 3, 76, 0
2, 202410, Note_off_c, 3, 77, 0
2, 202410, Note_off_c, 3, 88, 0
2, 202410, Note_on_c, 3, 76, 75
2, 202410, Note_on_c, 3, 77, 75
2, 202410, Note_on_c, 3, 88, 75
2, 202410, Note_on_c, 3, 89, 75
2, 202411, Note_off_c, 3, 86, 0
2, 202496, Note_off_c, 3, 77, 0
2, 202496, Note_off_c, 3, 88, 0
2, 202496, Note_on_c, 3, 77, 64
2, 202496, Note_on_c, 3, 79, 64
2, 202496, Note_on_c, 3, 86, 64
2, 202496, Note_on_c, 3, 88, 64
2, 202497, Note_off_c, 3, 76, 0
2, 202497, Note_off_c, 3, 89, 0
2, 202581, Note_off_c, 3, 77, 0
2, 202581, Note_off_c, 3, 86, 0
2, 202581, Note_off_c, 3, 88, 0
2, 202581, Note_on_c, 3, 76, 60
2, 202581, Note_on_c, 3, 77, 60
2, 202581, Note_on_c, 3, 86, 60
2, 202581, Note_on_c, 3, 88, 60
2, 202582, Note_off_c, 3, 79, 0
2, 202666, Note_off_c, 3, 88, 0
2, 202666, Note_on_c, 3, 88, 79
2, 202666, Note_on_c, 3, 89, 79
2, 202667, Note_off_c, 3, 76, 0
2, 202667, Note_off_c, 3, 77, 0
2, 202667, Note_off_c, 3, 86, 0
2, 202752, Note_on_c, 3, 77, 62
2, 202752, Note_on_c, 3, 79, 62
2, 202753, Note_off_c, 3, 88, 0
2, 202753, Note_off_c, 3, 89, 0
2, 202837, Note_off_c, 3, 77, 0
2, 202837, Note_off_c, 3, 79, 0
2, 202837, Note_on_c, 3, 77, 86
2, 202837, Note_on_c, 3, 79, 86
2, 202837, Note_on_c, 3, 86, 86
2, 202837, Note_on_c, 3, 89, 86
2, 202922, Note_off_c, 3, 77, 0
2, 202922, Note_off_c, 3, 86, 0
2, 202922, Note_on_c, 3, 76, 87
2, 202922, Note_on_c, 3, 77, 87
2, 202922, Note_on_c, 3, 86, 87
2, 202922, Note_on_c, 3, 88, 87
2, 202923, Note_off_c, 3, 79, 0
2, 202923, Note_off_c, 3, 89, 0
2, 203008, Note_off_c, 3, 77, 0
2, 203008, Note_off_c, 3, 88, 0
2, 203008, Note_on_c, 3, 77, 72
2, 203008, Note_on_c, 3, 79, 72
2, 203008, Note_on_c, 3, 88, 72
2, 203008, Note_on_c, 3, 89, 72
2, 203009, Note_off_c, 3, 76, 0
2, 203009, Note_off_c, 3, 86, 0
2, 203093, Note_off_c, 3, 77, 0
2, 203093, Note_off_c, 3, 79, 0
2, 203093, Note_off_c, 3, 88, 0
2, 203093, Note_off_c, 3, 89, 0
2, 203093, Note_on_c, 3, 77, 71
2, 203093, Note_on_c, 3, 79, 71
2, 203093, Note_on_c, 3, 88, 71
2, 203093, Note_on_c, 3, 89, 71
2, 203178, Note_off_c, 3, 77, 0
2, 203178, Note_off_c, 3, 79, 0
2, 203178, Note_on_c, 3, 77, 52
2, 203178, Note_on_c, 3, 79, 52
2, 203179, Note_off_c, 3, 88, 0
2, 203179, Note_off_c, 3, 89, 0
2, 203264, Note_on_c, 3, 86, 83
2, 203264, Note_on_c, 3, 88, 83
2, 203265, Note_off_c, 3, 77, 0
2, 203265, Note_off_c, 3, 79, 0
2, 203349, Note_on_c, 3, 76, 67
2, 203349, Note_on_c, 3, 77, 67
2, 203350, Note_off_c, 3, 86, 0
2, 203350, Note_off_c, 3, 88, 0
2, 203434, Note_off_c, 3, 77, 0
2, 203434, Note_on_c, 3, 77, 89
2, 203434, Note_on_c, 3, 79, 89
2, 203434, Note_on_c, 3, 88, 89
2, 203434, Note_on_c, 3, 89, 89
2, 203435, Note_off_c, 3, 76, 0
2, 203520, Note_off_c, 3, 77, 0
2, 203520, Note_off_c, 3, 79, 0
2, 203520, Note_off_c, 3, 88, 0
2, 203520, Note_on_c, 3, 77, 89
2, 203520, Note_on_c, 3, 79, 89
2, 203520, Note_on_c, 3, 86, 89
2, 203520, Note_on_c, 3, 88, 89
2, 203521, Note_off_c, 3, 89, 0
2, 203605, Note_off_c, 3, 77, 0
2, 203605, Note_on_c, 3, 76, 56
2, 203605, Note_on_c, 3, 77, 56
2, 203606, Note_off_c, 3, 79, 0
2, 203606, Note_off_c, 3, 86, 0
2, 203606, Note_off_c, 3, 88, 0
2, 203690, Note_on_c, 3, 88, 68
2, 203690, Note_on_c, 3, 89, 68
2, 203691, Note_off_c, 3, 76, 0
2, 203691, Note_off_c, 3, 77, 0
2, 203776, Note_off_c, 3, 88, 0
2, 203776, Note_off_c, 3, 89, 0
2, 203776, Note_on_c, 3, 77, 73
2, 203776, Note_on_c, 3, 79, 73
2, 203776, Note_on_c, 3, 88, 73
2, 203776, Note_on_c, 3, 89, 73
2, 203861, Note_off_c, 3, 77, 0
2, 203861, Note_off_c, 3, 79, 0
2, 203861, Note_off_c, 3, 88, 0
2, 203861, Note_on_c, 3, 77, 70
2, 203861, Note_on_c, 3, 79, 70
2, 203861, Note_on_c, 3, 86, 70
2, 203861, Note_on_c, 3, 88, 70
2, 203862, Note_off_c, 3, 89, 0
2, 203946, Note_off_c, 3, 86, 0
2, 203946, Note_off_c, 3, 88, 0
2, 203946, Note_on_c, 3, 86, 72
2, 203946, Note_on_c, 3, 88, 72
2, 203947, Note_off_c, 3, 77, 0
2, 203947, Note_off_c, 3, 79, 0
2, 204032, Note_on_c, 3, 76, 53
2, 204032, Note_on_c, 3, 77, 53
2, 204033, Note_off_c, 3, 86, 0
2, 204033, Note_off_c, 3, 88, 0
2, 204117, Note_on_c, 3, 88, 86
2, 204117, Note_on_c, 3, 89, 86
2, 204118, Note_off_c, 3, 76, 0
2, 204118, Note_off_c, 3, 77, 0
2, 204202, Note_on_c, 3, 77, 68
2, 204202, Note_on_c, 3, 79, 68
2, 204203, Note_off_c, 3, 88, 0
2, 204203, Note_off_c, 3, 89, 0
2, 204288, Note_on_c, 3, 86, 85
2, 204288, Note_on_c, 3, 88, 85
2, 204289, Note_off_c, 3, 77, 0
2, 204289, Note_off_c, 3, 79, 0
2, 204373, Note_on_c, 3, 76, 68
2, 204373, Note_on_c, 3, 77, 68
2, 204374, Note_off_c, 3, 86, 0
2, 204374, Note_off_c, 3, 88, 0
2, 204458, Note_on_c, 3, 88, 89
2, 204458, Note_on_c, 3, 89, 89
2, 204459, Note_off_c, 3, 76, 0
2, 204459, Note_off_c, 3, 77, 0
2, 204544, Note_on_c, 3, 77, 71
2, 204544, Note_on_c, 3, 79, 71
2, 204545, Note_off_c, 3, 88, 0
2, 204545, Note_off_c, 3, 89, 0
2, 204629, Note_on_c, 3, 86, 87
2, 204629, Note_on_c, 3, 88, 87
2, 204630, Note_off_c, 3, 77, 0
2, 204630, Note_off_c, 3, 79, 0
2, 204714, Note_on_c, 3, 76, 69
2, 204714, Note_on_c, 3, 77, 69
2, 204715, Note_off_c, 3, 86, 0
2, 204715, Note_off_c, 3, 88, 0
2, 204800, Note_on_c, 3, 86, 86
2, 204800, Note_on_c, 3, 88, 86
2, 204801, Note_off_c, 3, 76, 0
2, 204801, Note_off_c, 3, 77, 0
2, 204885, Note_on_c, 3, 76, 68
2, 204885, Note_on_c, 3, 77, 68
2, 204886, Note_off_c, 3, 86, 0
2, 204886, Note_off_c, 3, 88, 0
2, 204970, Note_on_c, 3, 88, 87
2, 204970, Note_on_c, 3, 89, 87
2, 204971, Note_off_c, 3, 76, 0
2, 204971, Note_off_c, 3, 77, 0
2, 205051, Note_off_c, 3, 88, 0
2, 205051, Note_off_c, 3, 89, 0
2, 207616, Note_on_c, 3, 94, 64
2, 207616, Note_on_c, 3, 98, 64
2, 207616, Note_on_c, 3, 101, 64
2, 207769, Note_on_c, 3, 89, 56
2, 207769, Note_on_c, 3, 96, 56
2, 207772, Note_off_c, 3, 94, 0
2, 207772, Note_off_c, 3, 98, 0
2, 207772, Note_off_c, 3, 101, 0
2, 207923, Note_on_c, 3, 88, 56
2, 207926, Note_off_c, 3, 89, 0
2, 207926, Note_off_c, 3, 96, 0
2, 208076, Note_on_c, 3, 81, 44
2, 208079, Note_off_c, 3, 88, 0
2, 208230, Note_on_c, 3, 74, 62
2, 208233, Note_off_c, 3, 81, 0
2, 208376, Note_off_c, 3, 74, 0
2, 208384, Note_on_c, 3, 94, 90
2, 208384, Note_on_c, 3, 98, 90
2, 208384, Note_on_c, 3, 101, 90
2, 208537, Note_on_c, 3, 89, 80
2, 208537, Note_on_c, 3, 96, 80
2, 208540, Note_off_c, 3, 94, 0
2, 208540, Note_off_c, 3, 98, 0
2, 208540, Note_off_c, 3, 101, 0
2, 208691, Note_on_c, 3, 88, 55
2, 208694, Note_off_c, 3, 89, 0
2, 208694, Note_off_c, 3, 96, 0
2, 208844, Note_on_c, 3, 81, 41
2, 208847, Note_off_c, 3, 88, 0
2, 208998, Note_on_c, 3, 74, 61
2, 209001, Note_off_c, 3, 81, 0
2, 209144, Note_off_c, 3, 74, 0
2, 209152, Note_on_c, 3, 94, 90
2, 209152, Note_on_c, 3, 98, 90
2, 209152, Note_on_c, 3, 101, 90
2, 209305, Note_on_c, 3, 89, 80
2, 209305, Note_on_c, 3, 96, 80
2, 209308, Note_off_c, 3, 94, 0
2, 209308, Note_off_c, 3, 98, 0
2, 209308, Note_off_c, 3, 101, 0
2, 209459, Note_on_c, 3, 88, 57
2, 209462, Note_off_c, 3, 89, 0
2, 209462, Note_off_c, 3, 96, 0
2, 209612, Note_on_c, 3, 81, 44
2, 209615, Note_off_c, 3, 88, 0
2, 209766, Note_on_c, 3, 74, 62
2, 209769, Note_off_c, 3, 81, 0
2, 209912, Note_off_c, 3, 74, 0
2, 209920, Note_on_c, 3, 94, 91
2, 209920, Note_on_c, 3, 98, 91
2, 209920, Note_on_c, 3, 101, 91
2, 210073, Note_on_c, 3, 89, 81
2, 210073, Note_on_c, 3, 96, 81
2, 210076, Note_off_c, 3, 94, 0
2, 210076, Note_off_c, 3, 98, 0
2, 210076, Note_off_c, 3, 101, 0
2, 210227, Note_on_c, 3, 88, 61
2, 210230, Note_off_c, 3, 89, 0
2, 210230, Note_off_c, 3, 96, 0
2, 210380, Note_on_c, 3, 81, 48
2, 210383, Note_off_c, 3, 88, 0
2, 210534, Note_on_c, 3, 74, 60
2, 210537, Note_off_c, 3, 81, 0
2, 210680, Note_off_c, 3, 74, 0
2, 210688, Note_on_c, 3, 94, 90
2, 210688, Note_on_c, 3, 98, 90
2, 210688, Note_on_c, 3, 101, 90
2, 210841, Note_on_c, 3, 89, 87
2, 210841, Note_on_c, 3, 96, 87
2, 210844, Note_off_c, 3, 94, 0
2, 210844, Note_off_c, 3, 98, 0
2, 210844, Note_off_c, 3, 101, 0
2, 210995, Note_on_c, 3, 88, 60
2, 210998, Note_off_c, 3, 89, 0
2, 210998, Note_off_c, 3, 96, 0
2, 211148, Note_on_c, 3, 81, 46
2, 211151, Note_off_c, 3, 88, 0
2, 211302, Note_on_c, 3, 74, 55
2, 211305, Note_off_c, 3, 81, 0
2, 211448, Note_off_c, 3, 74, 0
2, 211456, Note_on_c, 3, 94, 91
2, 211456, Note_on_c, 3, 98, 91
2, 211456, Note_on_c, 3, 101, 91
2, 211609, Note_on_c, 3, 89, 79
2, 211609, Note_on_c, 3, 96, 79
2, 211612, Note_off_c, 3, 94, 0
2, 211612, Note_off_c, 3, 98, 0
2, 211612, Note_off_c, 3, 101, 0
2, 211763, Note_on_c, 3, 88, 59
2, 211766, Note_off_c, 3, 89, 0
2, 211766, Note_off_c, 3, 96, 0
2, 211916, Note_on_c, 3, 81, 46
2, 211919, Note_off_c, 3, 88, 0
2, 212070, Note_on_c, 3, 96, 94
2, 212070, Note_on_c, 3, 100, 94
2, 212073, Note_off_c, 3, 81, 0
2, 212216, Note_off_c, 3, 96, 0
2, 212216, Note_off_c, 3, 100, 0
2, 212224, Note_on_c, 3, 94, 76
2, 212224, Note_on_c, 3, 98, 76
2, 212224, Note_on_c, 3, 101, 76
2, 212377, Note_on_c, 3, 89, 68
2, 212377, Note_on_c, 3, 96, 68
2, 212380, Note_off_c, 3, 94, 0
2, 212380, Note_off_c, 3, 98, 0
2, 212380, Note_off_c, 3, 101, 0
2, 212531, Note_on_c, 3, 88, 54
2, 212534, Note_off_c, 3, 89, 0
2, 212534, Note_off_c, 3, 96, 0
2, 212684, Note_on_c, 3, 81, 48
2, 212687, Note_off_c, 3, 88, 0
2, 212838, Note_on_c, 3, 96, 91
2, 212838, Note_on_c, 3, 100, 91
2, 212841, Note_off_c, 3, 81, 0
2, 212984, Note_off_c, 3, 96, 0
2, 212984, Note_off_c, 3, 100, 0
2, 212992, Note_on_c, 3, 94, 78
2, 212992, Note_on_c, 3, 98, 78
2, 212992, Note_on_c, 3, 101, 78
2, 213145, Note_on_c, 3, 89, 71
2, 213145, Note_on_c, 3, 96, 71
2, 213148, Note_off_c, 3, 94, 0
2, 213148, Note_off_c, 3, 98, 0
2, 213148, Note_off_c, 3, 101, 0
2, 213299, Note_on_c, 3, 88, 60
2, 213302, Note_off_c, 3, 89, 0
2, 213302, Note_off_c, 3, 96, 0
2, 213452, Note_on_c, 3, 81, 44
2, 213455, Note_off_c, 3, 88, 0
2, 213606, Note_on_c, 3, 96, 88
2, 213606, Note_on_c, 3, 100, 88
2, 213609, Note_off_c, 3, 81, 0
2, 213752, Note_off_c, 3, 96, 0
2, 213752, Note_off_c, 3, 100, 0
2, 213760, Note_on_c, 3, 94, 74
2, 213760, Note_on_c, 3, 98, 74
2, 213760, Note_on_c, 3, 101, 74
2, 213913, Note_on_c, 3, 89, 66
2, 213913, Note_on_c, 3, 96, 66
2, 213916, Note_off_c, 3, 94, 0
2, 213916, Note_off_c, 3, 98, 0
2, 213916, Note_off_c, 3, 101, 0
2, 214067, Note_on_c, 3, 88, 55
2, 214070, Note_off_c, 3, 89, 0
2, 214070, Note_off_c, 3, 96, 0
2, 214220, Note_on_c, 3, 81, 44
2, 214223, Note_off_c, 3, 88, 0
2, 214374, Note_on_c, 3, 96, 90
2, 214374, Note_on_c, 3, 100, 90
2, 214377, Note_off_c, 3, 81, 0
2, 214520, Note_off_c, 3, 96, 0
2, 214520, Note_off_c, 3, 100, 0
2, 214528, Note_on_c, 3, 94, 77
2, 214528, Note_on_c, 3, 98, 77
2, 214528, Note_on_c, 3, 101, 77
2, 214681, Note_on_c, 3, 89, 63
2, 214681, Note_on_c, 3, 96, 63
2, 214684, Note_off_c, 3, 94, 0
2, 214684, Note_off_c, 3, 98, 0
2, 214684, Note_off_c, 3, 101, 0
2, 214835, Note_on_c, 3, 88, 62
2, 214838, Note_off_c, 3, 89, 0
2, 214838, Note_off_c, 3, 96, 0
2, 214988, Note_on_c, 3, 81, 51
2, 214991, Note_off_c, 3, 88, 0
2, 215142, Note_on_c, 3, 96, 91
2, 215142, Note_on_c, 3, 100, 91
2, 215145, Note_off_c, 3, 81, 0
2, 215288, Note_off_c, 3, 96, 0
2, 215288, Note_off_c, 3, 100, 0
2, 215296, Note_on_c, 3, 94, 76
2, 215296, Note_on_c, 3, 98, 76
2, 215296, Note_on_c, 3, 101, 76
2, 215449, Note_on_c, 3, 89, 69
2, 215449, Note_on_c, 3, 96, 69
2, 215452, Note_off_c, 3, 94, 0
2, 215452, Note_off_c, 3, 98, 0
2, 215452, Note_off_c, 3, 101, 0
2, 215603, Note_on_c, 3, 88, 58
2, 215606, Note_off_c, 3, 89, 0
2, 215606, Note_off_c, 3, 96, 0
2, 215756, Note_on_c, 3, 81, 45
2, 215759, Note_off_c, 3, 88, 0
2, 215910, Note_on_c, 3, 96, 87
2, 215910, Note_on_c, 3, 100, 87
2, 215913, Note_off_c, 3, 81, 0
2, 216056, Note_off_c, 3, 96, 0
2, 216056, Note_off_c, 3, 100, 0
2, 216064, Note_on_c, 3, 94, 77
2, 216064, Note_on_c, 3, 98, 77
2, 216064, Note_on_c, 3, 101, 77
2, 216217, Note_on_c, 3, 89, 69
2, 216217, Note_on_c, 3, 96, 69
2, 216220, Note_off_c, 3, 94, 0
2, 216220, Note_off_c, 3, 98, 0
2, 216220, Note_off_c, 3, 101, 0
2, 216371, Note_on_c, 3, 88, 56
2, 216374, Note_off_c, 3, 89, 0
2, 216374, Note_off_c, 3, 96, 0
2, 216524, Note_on_c, 3, 81, 42
2, 216527, Note_off_c, 3, 88, 0
2, 216678, Note_on_c, 3, 96, 92
2, 216678, Note_on_c, 3, 100, 92
2, 216681, Note_off_c, 3, 81, 0
2, 216824, Note_off_c, 3, 96, 0
2, 216824, Note_off_c, 3, 100, 0
2, 216832, Note_on_c, 3, 94, 75
2, 216832, Note_on_c, 3, 98, 75
2, 216832, Note_on_c, 3, 101, 75
2, 216985, Note_on_c, 3, 89, 67
2, 216985, Note_on_c, 3, 96, 67
2, 216988, Note_off_c, 3, 94, 0
2, 216988, Note_off_c, 3, 98, 0
2, 216988, Note_off_c, 3, 101, 0
2, 217139, Note_on_c, 3, 88, 52
2, 217142, Note_off_c, 3, 89, 0
2, 217142, Note_off_c, 3, 96, 0
2, 217292, Note_on_c, 3, 81, 42
2, 217295, Note_off_c, 3, 88, 0
2, 217446, Note_on_c, 3, 96, 90
2, 217446, Note_on_c, 3, 100, 90
2, 217449, Note_off_c, 3, 81, 0
2, 217592, Note_off_c, 3, 96, 0
2, 217592, Note_off_c, 3, 100, 0
2, 217600, Note_on_c, 3, 94, 77
2, 217600, Note_on_c, 3, 98, 77
2, 217600, Note_on_c, 3, 101, 77
2, 217753, Note_on_c, 3, 89, 62
2, 217753, Note_on_c, 3, 96, 62
2, 217756, Note_off_c, 3, 94, 0
2, 217756, Note_off_c, 3, 98, 0
2, 217756, Note_off_c, 3, 101, 0
2, 217907, Note_on_c, 3, 88, 59
2, 217910, Note_off_c, 3, 89, 0
2, 217910, Note_off_c, 3, 96, 0
2, 218060, Note_on_c, 3, 81, 51
2, 218063, Note_off_c, 3, 88, 0
2, 218214, Note_on_c, 3, 96, 88
2, 218214, Note_on_c, 3, 100, 88
2, 218217, Note_off_c, 3, 81, 0
2, 218360, Note_off_c, 3, 96, 0
2, 218360, Note_off_c, 3, 100, 0
2, 218368, Note_on_c, 3, 94, 77
2, 218368, Note_on_c, 3, 98, 77
2, 218368, Note_on_c, 3, 101, 77
2, 218521, Note_on_c, 3, 89, 71
2, 218521, Note_on_c, 3, 96, 71
2, 218524, Note_off_c, 3, 94, 0
2, 218524, Note_off_c, 3, 98, 0
2, 218524, Note_off_c, 3, 101, 0
2, 218675, Note_on_c, 3, 88, 55
2, 218678, Note_off_c, 3, 89, 0
2, 218678, Note_off_c, 3, 96, 0
2, 218828, Note_on_c, 3, 81, 47
2, 218831, Note_off_c, 3, 88, 0
2, 218982, Note_on_c, 3, 96, 91
2, 218982, Note_on_c, 3, 100, 91
2, 218985, Note_off_c, 3, 81, 0
2, 219128, Note_off_c, 3, 96, 0
2, 219128, Note_off_c, 3, 100, 0
2, 219136, Note_on_c, 3, 94, 83
2, 219136, Note_on_c, 3, 98, 83
2, 219136, Note_on_c, 3, 102, 83
2, 219264, Note_on_c, 3, 90, 65
2, 219264, Note_on_c, 3, 93, 65
2, 219266, Note_off_c, 3, 94, 0
2, 219266, Note_off_c, 3, 98, 0
2, 219266, Note_off_c, 3, 102, 0
2, 219385, Note_off_c, 3, 90, 0
2, 219385, Note_off_c, 3, 93, 0
2, 219520, Note_on_c, 3, 81, 64
2, 219520, Note_on_c, 3, 88, 64
2, 219584, Note_off_c, 3, 81, 0
2, 219584, Note_off_c, 3, 88, 0
2, 219776, Note_on_c, 3, 96, 75
2, 219776, Note_on_c, 3, 100, 75
2, 219904, Note_on_c, 3, 98, 79
2, 219904, Note_on_c, 3, 102, 79
2, 219904, Note_on_c, 3, 105, 79
2, 219906, Note_off_c, 3, 96, 0
2, 219906, Note_off_c, 3, 100, 0
2, 220032, Note_on_c, 3, 90, 68
2, 220032, Note_on_c, 3, 96, 68
2, 220034, Note_off_c, 3, 98, 0
2, 220034, Note_off_c, 3, 102, 0
2, 220034, Note_off_c, 3, 105, 0
2, 220153, Note_off_c, 3, 90, 0
2, 220153, Note_off_c, 3, 96, 0
2, 220288, Note_on_c, 3, 81, 76
2, 220288, Note_on_c, 3, 88, 76
2, 220352, Note_off_c, 3, 81, 0
2, 220352, Note_off_c, 3, 88, 0
2, 220544, Note_on_c, 3, 96, 75
2, 220544, Note_on_c, 3, 100, 75
2, 220672, Note_on_c, 3, 98, 86
2, 220672, Note_on_c, 3, 102, 86
2, 220672, Note_on_c, 3, 105, 86
2, 220674, Note_off_c, 3, 96, 0
2, 220674, Note_off_c, 3, 100, 0
2, 220800, Note_on_c, 3, 90, 66
2, 220800, Note_on_c, 3, 96, 66
2, 220802, Note_off_c, 3, 98, 0
2, 220802, Note_off_c, 3, 102, 0
2, 220802, Note_off_c, 3, 105, 0
2, 220921, Note_off_c, 3, 90, 0
2, 220921, Note_off_c, 3, 96, 0
2, 221056, Note_on_c, 3, 81, 72
2, 221056, Note_on_c, 3, 88, 72
2, 221120, Note_off_c, 3, 81, 0
2, 221120, Note_off_c, 3, 88, 0
2, 221312, Note_on_c, 3, 96, 73
2, 221312, Note_on_c, 3, 100, 73
2, 221440, Note_on_c, 3, 98, 80
2, 221440, Note_on_c, 3, 102, 80
2, 221440, Note_on_c, 3, 105, 80
2, 221442, Note_off_c, 3, 96, 0
2, 221442, Note_off_c, 3, 100, 0
2, 221568, Note_on_c, 3, 90, 69
2, 221568, Note_on_c, 3, 96, 69
2, 221570, Note_off_c, 3, 98, 0
2, 221570, Note_off_c, 3, 102, 0
2, 221570, Note_off_c, 3, 105, 0
2, 221689, Note_off_c, 3, 90, 0
2, 221689, Note_off_c, 3, 96, 0
2, 221824, Note_on_c, 3, 81, 79
2, 221824, Note_on_c, 3, 88, 79
2, 221888, Note_off_c, 3, 81, 0
2, 221888, Note_off_c, 3, 88, 0
2, 229888, Note_on_c, 3, 84, 74
2, 229952, Note_on_c, 3, 82, 68
2, 229953, Note_off_c, 3, 84, 0
2, 230016, Note_on_c, 3, 84, 89
2, 230017, Note_off_c, 3, 82, 0
2, 230080, Note_on_c, 3, 83, 87
2, 230081, Note_off_c, 3, 84, 0
2, 230144, Note_on_c, 3, 84, 87
2, 230145, Note_off_c, 3, 83, 0
2, 230208, Note_on_c, 3, 83, 86
2, 230209, Note_off_c, 3, 84, 0
2, 230272, Note_on_c, 3, 84, 89
2, 230272, Note_on_c, 3, 84, 72
2, 230273, Note_off_c, 3, 83, 0
2, 230336, Note_on_c, 3, 82, 87
2, 230336, Note_on_c, 3, 82, 66
2, 230337, Note_off_c, 3, 84, 0
2, 230337, Note_off_c, 3, 84, 0
2, 230400, Note_on_c, 3, 85, 95
2, 230400, Note_on_c, 3, 85, 90
2, 230401, Note_off_c, 3, 82, 0
2, 230401, Note_off_c, 3, 82, 0
2, 230464, Note_on_c, 3, 84, 92
2, 230464, Note_on_c, 3, 84, 89
2, 230465, Note_off_c, 3, 85, 0
2, 230465, Note_off_c, 3, 85, 0
2, 230528, Note_on_c, 3, 85, 87
2, 230528, Note_on_c, 3, 85, 87
2, 230529, Note_off_c, 3, 84, 0
2, 230529, Note_off_c, 3, 84, 0
2, 230592, Note_on_c, 3, 84, 84
2, 230592, Note_on_c, 3, 84, 79
2, 230593, Note_off_c, 3, 85, 0
2, 230593, Note_off_c, 3, 85, 0
2, 230656, Note_on_c, 3, 88, 91
2, 230656, Note_on_c, 3, 88, 89
2, 230657, Note_off_c, 3, 84, 0
2, 230657, Note_off_c, 3, 84, 0
2, 230716, Note_off_c, 3, 88, 0
2, 230720, Note_on_c, 3, 84, 84
2, 230721, Note_off_c, 3, 88, 0
2, 230784, Note_on_c, 3, 86, 88
2, 230785, Note_off_c, 3, 84, 0
2, 230848, Note_on_c, 3, 83, 86
2, 230849, Note_off_c, 3, 86, 0
2, 230912, Note_on_c, 3, 86, 90
2, 230913, Note_off_c, 3, 83, 0
2, 230976, Note_on_c, 3, 83, 87
2, 230977, Note_off_c, 3, 86, 0
2, 231040, Note_on_c, 3, 84, 86
2, 231041, Note_off_c, 3, 83, 0
2, 231104, Note_on_c, 3, 82, 83
2, 231105, Note_off_c, 3, 84, 0
2, 231168, Note_on_c, 3, 87, 94
2, 231169, Note_off_c, 3, 82, 0
2, 231228, Note_off_c, 3, 87, 0
2, 231232, Note_on_c, 3, 82, 72
2, 231296, Note_on_c, 3, 88, 83
2, 231297, Note_off_c, 3, 82, 0
2, 231360, Note_on_c, 3, 82, 79
2, 231361, Note_off_c, 3, 88, 0
2, 231424, Note_on_c, 3, 90, 89
2, 231425, Note_off_c, 3, 82, 0
2, 231484, Note_off_c, 3, 90, 0
2, 231488, Note_on_c, 3, 82, 74
2, 231552, Note_on_c, 3, 86, 82
2, 231553, Note_off_c, 3, 82, 0
2, 231616, Note_on_c, 3, 83, 76
2, 231617, Note_off_c, 3, 86, 0
2, 231680, Note_on_c, 3, 86, 79
2, 231681, Note_off_c, 3, 83, 0
2, 231744, Note_on_c, 3, 83, 78
2, 231745, Note_off_c, 3, 86, 0
2, 231808, Note_on_c, 3, 85, 81
2, 231809, Note_off_c, 3, 83, 0
2, 231872, Note_on_c, 3, 83, 78
2, 231873, Note_off_c, 3, 85, 0
2, 231936, Note_on_c, 3, 88, 86
2, 231937, Note_off_c, 3, 83, 0
2, 232000, Note_on_c, 3, 84, 73
2, 232001, Note_off_c, 3, 88, 0
2, 232064, Note_on_c, 3, 89, 77
2, 232065, Note_off_c, 3, 84, 0
2, 232128, Note_on_c, 3, 82, 78
2, 232128, Note_on_c, 3, 82, 70
2, 232129, Note_off_c, 3, 89, 0
2, 232188, Note_off_c, 3, 82, 0
2, 232192, Note_on_c, 3, 85, 87
2, 232193, Note_off_c, 3, 82, 0
2, 232256, Note_on_c, 3, 82, 74
2, 232257, Note_off_c, 3, 85, 0
2, 232320, Note_on_c, 3, 87, 84
2, 232321, Note_off_c, 3, 82, 0
2, 232384, Note_on_c, 3, 85, 78
2, 232385, Note_off_c, 3, 87, 0
2, 232448, Note_on_c, 3, 84, 78
2, 232449, Note_off_c, 3, 85, 0
2, 232512, Note_on_c, 3, 82, 81
2, 232513, Note_off_c, 3, 84, 0
2, 232576, Note_on_c, 3, 86, 88
2, 232577, Note_off_c, 3, 82, 0
2, 232640, Note_on_c, 3, 84, 81
2, 232641, Note_off_c, 3, 86, 0
2, 232704, Note_on_c, 3, 87, 87
2, 232705, Note_off_c, 3, 84, 0
2, 232768, Note_on_c, 3, 89, 90
2, 232769, Note_off_c, 3, 87, 0
2, 232832, Note_on_c, 3, 87, 81
2, 232833, Note_off_c, 3, 89, 0
2, 232896, Note_on_c, 3, 89, 89
2, 232897, Note_off_c, 3, 87, 0
2, 232956, Note_off_c, 3, 89, 0
2, 232960, Note_on_c, 3, 83, 73
2, 233024, Note_on_c, 3, 86, 74
2, 233025, Note_off_c, 3, 83, 0
2, 233088, Note_on_c, 3, 85, 86
2, 233089, Note_off_c, 3, 86, 0
2, 233152, Note_on_c, 3, 89, 94
2, 233153, Note_off_c, 3, 85, 0
2, 233216, Note_on_c, 3, 91, 88
2, 233217, Note_off_c, 3, 89, 0
2, 233280, Note_on_c, 3, 82, 69
2, 233281, Note_off_c, 3, 91, 0
2, 233344, Note_on_c, 3, 84, 86
2, 233345, Note_off_c, 3, 82, 0
2, 233408, Note_on_c, 3, 85, 92
2, 233409, Note_off_c, 3, 84, 0
2, 233472, Note_on_c, 3, 84, 83
2, 233473, Note_off_c, 3, 85, 0
2, 233536, Note_on_c, 3, 85, 85
2, 233537, Note_off_c, 3, 84, 0
2, 233600, Note_on_c, 3, 87, 87
2, 233601, Note_off_c, 3, 85, 0
2, 233664, Note_on_c, 3, 84, 80
2, 233665, Note_off_c, 3, 87, 0
2, 233728, Note_on_c, 3, 89, 97
2, 233729, Note_off_c, 3, 84, 0
2, 233792, Note_on_c, 3, 83, 85
2, 233793, Note_off_c, 3, 89, 0
2, 233856, Note_on_c, 3, 85, 84
2, 233857, Note_off_c, 3, 83, 0
2, 233920, Note_on_c, 3, 87, 95
2, 233921, Note_off_c, 3, 85, 0
2, 233984, Note_on_c, 3, 89, 90
2, 233985, Note_off_c, 3, 87, 0
2, 234048, Note_on_c, 3, 82, 74
2, 234049, Note_off_c, 3, 89, 0
2, 234112, Note_on_c, 3, 83, 85
2, 234113, Note_off_c, 3, 82, 0
2, 234176, Note_on_c, 3, 86, 90
2, 234177, Note_off_c, 3, 83, 0
2, 234240, Note_on_c, 3, 88, 91
2, 234241, Note_off_c, 3, 86, 0
2, 234304, Note_on_c, 3, 82, 77
2, 234305, Note_off_c, 3, 88, 0
2, 234368, Note_on_c, 3, 84, 82
2, 234369, Note_off_c, 3, 82, 0
2, 234432, Note_on_c, 3, 82, 79
2, 234433, Note_off_c, 3, 84, 0
2, 234496, Note_on_c, 3, 84, 92
2, 234497, Note_off_c, 3, 82, 0
2, 234560, Note_on_c, 3, 78, 79
2, 234561, Note_off_c, 3, 84, 0
2, 234624, Note_on_c, 3, 79, 84
2, 234625, Note_off_c, 3, 78, 0
2, 234688, Note_on_c, 3, 82, 94
2, 234689, Note_off_c, 3, 79, 0
2, 234752, Note_on_c, 3, 85, 93
2, 234753, Note_off_c, 3, 82, 0
2, 234816, Note_on_c, 3, 82, 81
2, 234817, Note_off_c, 3, 85, 0
2, 234880, Note_on_c, 3, 84, 88
2, 234881, Note_off_c, 3, 82, 0
2, 234944, Note_on_c, 3, 85, 92
2, 234945, Note_off_c, 3, 84, 0
2, 235008, Note_on_c, 3, 87, 91
2, 235009, Note_off_c, 3, 85, 0
2, 235072, Note_on_c, 3, 84, 81
2, 235073, Note_off_c, 3, 87, 0
2, 235136, Note_on_c, 3, 85, 88
2, 235137, Note_off_c, 3, 84, 0
2, 235200, Note_on_c, 3, 82, 82
2, 235201, Note_off_c, 3, 85, 0
2, 235264, Note_on_c, 3, 88, 93
2, 235265, Note_off_c, 3, 82, 0
2, 235328, Note_on_c, 3, 83, 82
2, 235329, Note_off_c, 3, 88, 0
2, 235392, Note_on_c, 3, 85, 86
2, 235393, Note_off_c, 3, 83, 0
2, 235456, Note_on_c, 3, 83, 83
2, 235457, Note_off_c, 3, 85, 0
2, 235520, Note_on_c, 3, 85, 88
2, 235521, Note_off_c, 3, 83, 0
2, 235584, Note_on_c, 3, 82, 84
2, 235585, Note_off_c, 3, 85, 0
2, 235648, Note_on_c, 3, 84, 86
2, 235649, Note_off_c, 3, 82, 0
2, 235712, Note_on_c, 3, 85, 91
2, 235713, Note_off_c, 3, 84, 0
2, 235776, Note_on_c, 3, 87, 90
2, 235777, Note_off_c, 3, 85, 0
2, 235840, Note_on_c, 3, 84, 82
2, 235841, Note_off_c, 3, 87, 0
2, 235904, Note_on_c, 3, 85, 90
2, 235905, Note_off_c, 3, 84, 0
2, 235968, Note_on_c, 3, 82, 83
2, 235969, Note_off_c, 3, 85, 0
2, 236032, Note_on_c, 3, 88, 93
2, 236033, Note_off_c, 3, 82, 0
2, 236096, Note_on_c, 3, 83, 78
2, 236097, Note_off_c, 3, 88, 0
2, 236160, Note_on_c, 3, 85, 92
2, 236161, Note_off_c, 3, 83, 0
2, 236224, Note_on_c, 3, 83, 84
2, 236225, Note_off_c, 3, 85, 0
2, 236288, Note_on_c, 3, 85, 90
2, 236289, Note_off_c, 3, 83, 0
2, 236352, Note_on_c, 3, 82, 82
2, 236353, Note_off_c, 3, 85, 0
2, 236416, Note_on_c, 3, 84, 85
2, 236417, Note_off_c, 3, 82, 0
2, 236480, Note_on_c, 3, 85, 92
2, 236481, Note_off_c, 3, 84, 0
2, 236544, Note_on_c, 3, 87, 86
2, 236545, Note_off_c, 3, 85, 0
2, 236608, Note_on_c, 3, 84, 82
2, 236609, Note_off_c, 3, 87, 0
2, 236672, Note_on_c, 3, 85, 84
2, 236673, Note_off_c, 3, 84, 0
2, 236736, Note_on_c, 3, 82, 75
2, 236737, Note_off_c, 3, 85, 0
2, 236800, Note_on_c, 3, 88, 96
2, 236801, Note_off_c, 3, 82, 0
2, 236864, Note_on_c, 3, 83, 86
2, 236865, Note_off_c, 3, 88, 0
2, 236928, Note_on_c, 3, 85, 85
2, 236929, Note_off_c, 3, 83, 0
2, 236992, Note_on_c, 3, 83, 77
2, 236993, Note_off_c, 3, 85, 0
2, 237056, Note_on_c, 3, 89, 95
2, 237057, Note_off_c, 3, 83, 0
2, 237120, Note_on_c, 3, 85, 85
2, 237121, Note_off_c, 3, 89, 0
2, 237184, Note_off_c, 3, 85, 0
2, 237184, Note_on_c, 3, 85, 82
2, 237248, Note_on_c, 3, 89, 92
2, 237249, Note_off_c, 3, 85, 0
2, 237312, Note_on_c, 3, 90, 89
2, 237313, Note_off_c, 3, 89, 0
2, 237376, Note_on_c, 3, 85, 77
2, 237377, Note_off_c, 3, 90, 0
2, 237440, Note_on_c, 3, 89, 92
2, 237441, Note_off_c, 3, 85, 0
2, 237504, Note_on_c, 3, 91, 98
2, 237505, Note_off_c, 3, 89, 0
2, 237568, Note_on_c, 3, 93, 89
2, 237569, Note_off_c, 3, 91, 0
2, 237632, Note_on_c, 3, 85, 76
2, 237633, Note_off_c, 3, 93, 0
2, 237696, Note_on_c, 3, 86, 84
2, 237697, Note_off_c, 3, 85, 0
2, 237760, Note_on_c, 3, 89, 92
2, 237761, Note_off_c, 3, 86, 0
2, 237824, Note_on_c, 3, 88, 84
2, 237825, Note_off_c, 3, 89, 0
2, 237888, Note_on_c, 3, 85, 74
2, 237889, Note_off_c, 3, 88, 0
2, 237952, Note_on_c, 3, 89, 95
2, 237953, Note_off_c, 3, 85, 0
2, 238016, Note_on_c, 3, 92, 107
2, 238017, Note_off_c, 3, 89, 0
2, 238080, Note_off_c, 3, 92, 0
2, 238080, Note_on_c, 3, 92, 87
2, 238144, Note_on_c, 3, 79, 62
2, 238145, Note_off_c, 3, 92, 0
2, 238208, Note_on_c, 3, 80, 80
2, 238209, Note_off_c, 3, 79, 0
2, 238272, Note_on_c, 3, 82, 87
2, 238273, Note_off_c, 3, 80, 0
2, 238336, Note_on_c, 3, 85, 95
2, 238337, Note_off_c, 3, 82, 0
2, 238400, Note_on_c, 3, 82, 90
2, 238401, Note_off_c, 3, 85, 0
2, 238464, Note_on_c, 3, 86, 88
2, 238465, Note_off_c, 3, 82, 0
2, 238528, Note_on_c, 3, 85, 85
2, 238529, Note_off_c, 3, 86, 0
2, 238592, Note_on_c, 3, 89, 92
2, 238593, Note_off_c, 3, 85, 0
2, 238656, Note_on_c, 3, 83, 72
2, 238657, Note_off_c, 3, 89, 0
2, 238720, Note_on_c, 3, 86, 86
2, 238721, Note_off_c, 3, 83, 0
2, 238784, Note_on_c, 3, 82, 78
2, 238785, Note_off_c, 3, 86, 0
2, 238848, Note_on_c, 3, 86, 89
2, 238849, Note_off_c, 3, 82, 0
2, 238912, Note_on_c, 3, 83, 88
2, 238913, Note_off_c, 3, 86, 0
2, 238976, Note_on_c, 3, 85, 88
2, 238977, Note_off_c, 3, 83, 0
2, 239040, Note_on_c, 3, 82, 82
2, 239041, Note_off_c, 3, 85, 0
2, 239104, Note_on_c, 3, 83, 88
2, 239105, Note_off_c, 3, 82, 0
2, 239168, Note_on_c, 3, 82, 87
2, 239169, Note_off_c, 3, 83, 0
2, 239232, Note_on_c, 3, 83, 87
2, 239233, Note_off_c, 3, 82, 0
2, 239296, Note_on_c, 3, 78, 75
2, 239297, Note_off_c, 3, 83, 0
2, 239360, Note_on_c, 3, 82, 90
2, 239361, Note_off_c, 3, 78, 0
2, 239424, Note_on_c, 3, 79, 89
2, 239425, Note_off_c, 3, 82, 0
2, 239488, Note_on_c, 3, 80, 84
2, 239489, Note_off_c, 3, 79, 0
2, 239552, Note_on_c, 3, 77, 75
2, 239553, Note_off_c, 3, 80, 0
2, 239616, Note_on_c, 3, 82, 93
2, 239617, Note_off_c, 3, 77, 0
2, 239680, Note_on_c, 3, 80, 89
2, 239681, Note_off_c, 3, 82, 0
2, 239744, Note_on_c, 3, 82, 87
2, 239745, Note_off_c, 3, 80, 0
2, 239808, Note_on_c, 3, 79, 84
2, 239809, Note_off_c, 3, 82, 0
2, 239872, Note_on_c, 3, 80, 85
2, 239873, Note_off_c, 3, 79, 0
2, 239936, Note_on_c, 3, 77, 73
2, 239937, Note_off_c, 3, 80, 0
2, 240000, Note_off_c, 3, 77, 0
2, 240000, Note_on_c, 3, 77, 81
2, 240064, Note_on_c, 3, 70, 63
2, 240065, Note_off_c, 3, 77, 0
2, 240128, Note_on_c, 3, 76, 91
2, 240129, Note_off_c, 3, 70, 0
2, 240192, Note_on_c, 3, 71, 80
2, 240193, Note_off_c, 3, 76, 0
2, 240256, Note_on_c, 3, 74, 95
2, 240257, Note_off_c, 3, 71, 0
2, 240320, Note_on_c, 3, 71, 87
2, 240321, Note_off_c, 3, 74, 0
2, 240384, Note_off_c, 3, 71, 0
2, 240384, Note_on_c, 3, 71, 83
2, 240448, Note_on_c, 3, 70, 81
2, 240449, Note_off_c, 3, 71, 0
2, 240512, Note_on_c, 3, 71, 88
2, 240513, Note_off_c, 3, 70, 0
2, 240576, Note_on_c, 3, 67, 79
2, 240577, Note_off_c, 3, 71, 0
2, 240636, Note_off_c, 3, 67, 0
2, 240704, Note_on_c, 3, 77, 76
2, 240768, Note_on_c, 3, 82, 88
2, 240769, Note_off_c, 3, 77, 0
2, 240832, Note_on_c, 3, 83, 91
2, 240833, Note_off_c, 3, 82, 0
2, 240892, Note_off_c, 3, 83, 0
2, 240960, Note_on_c, 3, 82, 76
2, 241024, Note_on_c, 3, 83, 79
2, 241025, Note_off_c, 3, 82, 0
2, 241088, Note_off_c, 3, 83, 0
2, 241088, Note_on_c, 3, 83, 86
2, 241152, Note_on_c, 3, 71, 60
2, 241153, Note_off_c, 3, 83, 0
2, 241216, Note_on_c, 3, 74, 84
2, 241217, Note_off_c, 3, 71, 0
2, 241280, Note_on_c, 3, 80, 100
2, 241281, Note_off_c, 3, 74, 0
2, 241344, Note_on_c, 3, 79, 84
2, 241345, Note_off_c, 3, 80, 0
2, 241408, Note_on_c, 3, 80, 86
2, 241409, Note_off_c, 3, 79, 0
2, 241472, Note_on_c, 3, 82, 90
2, 241473, Note_off_c, 3, 80, 0
2, 241536, Note_on_c, 3, 83, 97
2, 241537, Note_off_c, 3, 82, 0
2, 241600, Note_on_c, 3, 82, 79
2, 241601, Note_off_c, 3, 83, 0
2, 241664, Note_on_c, 3, 79, 73
2, 241665, Note_off_c, 3, 82, 0
2, 241728, Note_on_c, 3, 80, 90
2, 241729, Note_off_c, 3, 79, 0
2, 241792, Note_on_c, 3, 89, 110
2, 241793, Note_off_c, 3, 80, 0
2, 241856, Note_on_c, 3, 83, 75
2, 241857, Note_off_c, 3, 89, 0
2, 241920, Note_on_c, 3, 77, 69
2, 241920, Note_on_c, 3, 82, 69
2, 241920, Note_on_c, 3, 82, 76
2, 241920, Note_on_c, 3, 77, 74
2, 241921, Note_off_c, 3, 83, 0
2, 241984, Note_on_c, 3, 79, 84
2, 241984, Note_on_c, 3, 83, 84
2, 241984, Note_on_c, 3, 83, 81
2, 241984, Note_on_c, 3, 79, 76
2, 241985, Note_off_c, 3, 77, 0
2, 241985, Note_off_c, 3, 82, 0
2, 241985, Note_off_c, 3, 82, 0
2, 241985, Note_off_c, 3, 77, 0
2, 242048, Note_on_c, 3, 85, 89
2, 242048, Note_on_c, 3, 91, 100
2, 242048, Note_on_c, 3, 85, 93
2, 242049, Note_off_c, 3, 79, 0
2, 242049, Note_off_c, 3, 83, 0
2, 242049, Note_off_c, 3, 83, 0
2, 242049, Note_off_c, 3, 79, 0
2, 242112, Note_on_c, 3, 82, 85
2, 242112, Note_on_c, 3, 86, 85
2, 242112, Note_on_c, 3, 86, 92
2, 242112, Note_on_c, 3, 82, 89
2, 242113, Note_off_c, 3, 85, 0
2, 242113, Note_off_c, 3, 91, 0
2, 242113, Note_off_c, 3, 85, 0
2, 242176, Note_on_c, 3, 80, 78
2, 242176, Note_on_c, 3, 83, 78
2, 242176, Note_on_c, 3, 83, 75
2, 242176, Note_on_c, 3, 80, 78
2, 242177, Note_off_c, 3, 82, 0
2, 242177, Note_off_c, 3, 86, 0
2, 242177, Note_off_c, 3, 86, 0
2, 242177, Note_off_c, 3, 82, 0
2, 242240, Note_off_c, 3, 83, 0
2, 242240, Note_on_c, 3, 83, 96
2, 242240, Note_on_c, 3, 88, 96
2, 242240, Note_on_c, 3, 88, 87
2, 242240, Note_on_c, 3, 82, 84
2, 242241, Note_off_c, 3, 80, 0
2, 242241, Note_off_c, 3, 83, 0
2, 242241, Note_off_c, 3, 80, 0
2, 242304, Note_on_c, 3, 89, 99
2, 242304, Note_on_c, 3, 94, 98
2, 242304, Note_on_c, 3, 89, 100
2, 242305, Note_off_c, 3, 83, 0
2, 242305, Note_off_c, 3, 88, 0
2, 242305, Note_off_c, 3, 88, 0
2, 242305, Note_off_c, 3, 82, 0
2, 242368, Note_on_c, 3, 83, 75
2, 242368, Note_on_c, 3, 89, 90
2, 242368, Note_on_c, 3, 83, 90
2, 242369, Note_off_c, 3, 89, 0
2, 242369, Note_off_c, 3, 94, 0
2, 242369, Note_off_c, 3, 89, 0
2, 242432, Note_off_c, 3, 83, 0
2, 242432, Note_off_c, 3, 89, 0
2, 242432, Note_off_c, 3, 83, 0
2, 242432, Note_on_c, 3, 83, 86
2, 242432, Note_on_c, 3, 89, 82
2, 242432, Note_on_c, 3, 83, 81
2, 242496, Note_on_c, 3, 86, 94
2, 242496, Note_on_c, 3, 92, 87
2, 242496, Note_on_c, 3, 86, 85
2, 242497, Note_off_c, 3, 83, 0
2, 242497, Note_off_c, 3, 89, 0
2, 242497, Note_off_c, 3, 83, 0
2, 242560, Note_on_c, 3, 92, 98
2, 242560, Note_on_c, 3, 95, 98
2, 242560, Note_on_c, 3, 92, 102
2, 242561, Note_off_c, 3, 86, 0
2, 242561, Note_off_c, 3, 92, 0
2, 242561, Note_off_c, 3, 86, 0
2, 242620, Note_off_c, 3, 92, 0
2, 242624, Note_on_c, 3, 92, 92
2, 242624, Note_on_c, 3, 88, 91
2, 242625, Note_off_c, 3, 95, 0
2, 242625, Note_off_c, 3, 92, 0
2, 242688, Note_on_c, 3, 82, 79
2, 242688, Note_on_c, 3, 86, 79
2, 242688, Note_on_c, 3, 98, 98
2, 242688, Note_on_c, 3, 94, 98
2, 242689, Note_off_c, 3, 92, 0
2, 242689, Note_off_c, 3, 88, 0
2, 242748, Note_off_c, 3, 98, 0
2, 242752, Note_on_c, 3, 76, 65
2, 242752, Note_on_c, 3, 80, 65
2, 242752, Note_on_c, 3, 88, 84
2, 242753, Note_off_c, 3, 82, 0
2, 242753, Note_off_c, 3, 86, 0
2, 242753, Note_off_c, 3, 94, 0
2, 242816, Note_on_c, 3, 85, 105
2, 242816, Note_on_c, 3, 91, 105
2, 242816, Note_on_c, 3, 103, 75
2, 242816, Note_on_c, 3, 97, 105
2, 242817, Note_off_c, 3, 76, 0
2, 242817, Note_off_c, 3, 80, 0
2, 242817, Note_off_c, 3, 88, 0
2, 242880, Note_on_c, 3, 82, 86
2, 242880, Note_on_c, 3, 98, 66
2, 242880, Note_on_c, 3, 94, 101
2, 242881, Note_off_c, 3, 85, 0
2, 242881, Note_off_c, 3, 91, 0
2, 242881, Note_off_c, 3, 103, 0
2, 242881, Note_off_c, 3, 97, 0
2, 242944, Note_off_c, 3, 82, 0
2, 242944, Note_on_c, 3, 77, 81
2, 242944, Note_on_c, 3, 82, 81
2, 242944, Note_on_c, 3, 94, 73
2, 242944, Note_on_c, 3, 89, 74
2, 242945, Note_off_c, 3, 98, 0
2, 242945, Note_off_c, 3, 94, 0
2, 243008, Note_off_c, 3, 77, 0
2, 243008, Note_on_c, 3, 71, 69
2, 243008, Note_on_c, 3, 77, 69
2, 243008, Note_on_c, 3, 89, 62
2, 243008, Note_on_c, 3, 83, 62
2, 243009, Note_off_c, 3, 82, 0
2, 243009, Note_off_c, 3, 94, 0
2, 243009, Note_off_c, 3, 89, 0
2, 243072, Note_on_c, 3, 82, 100
2, 243072, Note_on_c, 3, 88, 100
2, 243072, Note_on_c, 3, 100, 102
2, 243072, Note_on_c, 3, 94, 103
2, 243073, Note_off_c, 3, 71, 0
2, 243073, Note_off_c, 3, 77, 0
2, 243073, Note_off_c, 3, 89, 0
2, 243073, Note_off_c, 3, 83, 0
2, 243136, Note_on_c, 3, 79, 93
2, 243136, Note_on_c, 3, 83, 93
2, 243136, Note_on_c, 3, 95, 91
2, 243136, Note_on_c, 3, 91, 93
2, 243137, Note_off_c, 3, 82, 0
2, 243137, Note_off_c, 3, 88, 0
2, 243137, Note_off_c, 3, 100, 0
2, 243137, Note_off_c, 3, 94, 0
2, 243200, Note_on_c, 3, 72, 70
2, 243200, Note_on_c, 3, 77, 70
2, 243200, Note_on_c, 3, 89, 68
2, 243200, Note_on_c, 3, 83, 70
2, 243201, Note_off_c, 3, 79, 0
2, 243201, Note_off_c, 3, 83, 0
2, 243201, Note_off_c, 3, 95, 0
2, 243201, Note_off_c, 3, 91, 0
2, 243264, Note_on_c, 3, 68, 61
2, 243264, Note_on_c, 3, 73, 61
2, 243264, Note_on_c, 3, 85, 57
2, 243264, Note_on_c, 3, 80, 64
2, 243265, Note_off_c, 3, 72, 0
2, 243265, Note_off_c, 3, 77, 0
2, 243265, Note_off_c, 3, 89, 0
2, 243265, Note_off_c, 3, 83, 0
2, 243328, Note_on_c, 3, 79, 99
2, 243328, Note_on_c, 3, 83, 99
2, 243328, Note_on_c, 3, 95, 101
2, 243328, Note_on_c, 3, 91, 104
2, 243329, Note_off_c, 3, 68, 0
2, 243329, Note_off_c, 3, 73, 0
2, 243329, Note_off_c, 3, 85, 0
2, 243329, Note_off_c, 3, 80, 0
2, 243392, Note_on_c, 3, 74, 89
2, 243392, Note_on_c, 3, 80, 89
2, 243392, Note_on_c, 3, 92, 95
2, 243392, Note_on_c, 3, 86, 95
2, 243393, Note_off_c, 3, 79, 0
2, 243393, Note_off_c, 3, 83, 0
2, 243393, Note_off_c, 3, 95, 0
2, 243393, Note_off_c, 3, 91, 0
2, 243456, Note_off_c, 3, 80, 0
2, 243456, Note_on_c, 3, 80, 81
2, 243456, Note_on_c, 3, 83, 65
2, 243456, Note_on_c, 3, 80, 70
2, 243457, Note_off_c, 3, 74, 0
2, 243457, Note_off_c, 3, 92, 0
2, 243457, Note_off_c, 3, 86, 0
2, 243520, Note_on_c, 3, 77, 76
2, 243520, Note_on_c, 3, 82, 58
2, 243520, Note_on_c, 3, 77, 63
2, 243521, Note_off_c, 3, 80, 0
2, 243521, Note_off_c, 3, 83, 0
2, 243521, Note_off_c, 3, 80, 0
2, 243584, Note_on_c, 3, 85, 104
2, 243584, Note_on_c, 3, 91, 104
2, 243584, Note_on_c, 3, 91, 104
2, 243584, Note_on_c, 3, 85, 100
2, 243585, Note_off_c, 3, 77, 0
2, 243585, Note_off_c, 3, 82, 0
2, 243585, Note_off_c, 3, 77, 0
2, 243648, Note_on_c, 3, 82, 100
2, 243648, Note_on_c, 3, 88, 100
2, 243648, Note_on_c, 3, 88, 100
2, 243648, Note_on_c, 3, 82, 95
2, 243649, Note_off_c, 3, 85, 0
2, 243649, Note_off_c, 3, 91, 0
2, 243649, Note_off_c, 3, 91, 0
2, 243649, Note_off_c, 3, 85, 0
2, 243708, Note_off_c, 3, 82, 0
2, 243708, Note_off_c, 3, 88, 0
2, 243708, Note_off_c, 3, 88, 0
2, 243708, Note_off_c, 3, 82, 0
2, 243776, Note_on_c, 3, 76, 75
2, 243776, Note_on_c, 3, 80, 75
2, 243776, Note_on_c, 3, 80, 74
2, 243776, Note_on_c, 3, 76, 72
2, 243840, Note_on_c, 3, 79, 82
2, 243840, Note_on_c, 3, 83, 82
2, 243840, Note_on_c, 3, 83, 80
2, 243840, Note_on_c, 3, 79, 75
2, 243841, Note_off_c, 3, 76, 0
2, 243841, Note_off_c, 3, 80, 0
2, 243841, Note_off_c, 3, 80, 0
2, 243841, Note_off_c, 3, 76, 0
2, 243904, Note_on_c, 3, 82, 93
2, 243904, Note_on_c, 3, 88, 93
2, 243904, Note_on_c, 3, 88, 96
2, 243904, Note_on_c, 3, 82, 94
2, 243905, Note_off_c, 3, 79, 0
2, 243905, Note_off_c, 3, 83, 0
2, 243905, Note_off_c, 3, 83, 0
2, 243905, Note_off_c, 3, 79, 0
2, 243968, Note_on_c, 3, 79, 89
2, 243968, Note_on_c, 3, 85, 89
2, 243968, Note_on_c, 3, 91, 103
2, 243968, Note_on_c, 3, 85, 101
2, 243969, Note_off_c, 3, 82, 0
2, 243969, Note_off_c, 3, 88, 0
2, 243969, Note_off_c, 3, 88, 0
2, 243969, Note_off_c, 3, 82, 0
2, 244032, Note_on_c, 3, 82, 97
2, 244032, Note_on_c, 3, 89, 97
2, 244032, Note_on_c, 3, 94, 94
2, 244032, Note_on_c, 3, 89, 95
2, 244033, Note_off_c, 3, 79, 0
2, 244033, Note_off_c, 3, 85, 0
2, 244033, Note_off_c, 3, 91, 0
2, 244033, Note_off_c, 3, 85, 0
2, 244096, Note_on_c, 3, 80, 85
2, 244096, Note_on_c, 3, 83, 85
2, 244096, Note_on_c, 3, 95, 99
2, 244096, Note_on_c, 3, 92, 106
2, 244097, Note_off_c, 3, 82, 0
2, 244097, Note_off_c, 3, 89, 0
2, 244097, Note_off_c, 3, 94, 0
2, 244097, Note_off_c, 3, 89, 0
2, 244156, Note_off_c, 3, 80, 0
2, 244156, Note_off_c, 3, 83, 0
2, 244156, Note_off_c, 3, 95, 0
2, 244156, Note_off_c, 3, 92, 0
2, 244224, Note_on_c, 3, 67, 71
2, 244224, Note_on_c, 3, 71, 71
2, 244224, Note_on_c, 3, 83, 78
2, 244224, Note_on_c, 3, 79, 77
2, 244288, Note_on_c, 3, 70, 76
2, 244288, Note_on_c, 3, 74, 76
2, 244288, Note_on_c, 3, 86, 82
2, 244288, Note_on_c, 3, 82, 81
2, 244289, Note_off_c, 3, 67, 0
2, 244289, Note_off_c, 3, 71, 0
2, 244289, Note_off_c, 3, 83, 0
2, 244289, Note_off_c, 3, 79, 0
2, 244352, Note_off_c, 3, 74, 0
2, 244352, Note_on_c, 3, 74, 104
2, 244352, Note_on_c, 3, 80, 104
2, 244352, Note_on_c, 3, 92, 97
2, 244352, Note_on_c, 3, 86, 93
2, 244353, Note_off_c, 3, 70, 0
2, 244353, Note_off_c, 3, 86, 0
2, 244353, Note_off_c, 3, 82, 0
2, 244416, Note_on_c, 3, 77, 112
2, 244416, Note_on_c, 3, 82, 112
2, 244416, Note_on_c, 3, 94, 104
2, 244416, Note_on_c, 3, 89, 104
2, 244417, Note_off_c, 3, 74, 0
2, 244417, Note_off_c, 3, 80, 0
2, 244417, Note_off_c, 3, 92, 0
2, 244417, Note_off_c, 3, 86, 0
2, 244480, Note_on_c, 3, 80, 89
2, 244480, Note_on_c, 3, 85, 89
2, 244480, Note_on_c, 3, 97, 96
2, 244480, Note_on_c, 3, 92, 91
2, 244481, Note_off_c, 3, 77, 0
2, 244481, Note_off_c, 3, 82, 0
2, 244481, Note_off_c, 3, 94, 0
2, 244481, Note_off_c, 3, 89, 0
2, 244544, Note_on_c, 3, 83, 99
2, 244544, Note_on_c, 3, 89, 99
2, 244544, Note_on_c, 3, 101, 110
2, 244544, Note_on_c, 3, 95, 103
2, 244545, Note_off_c, 3, 80, 0
2, 244545, Note_off_c, 3, 85, 0
2, 244545, Note_off_c, 3, 97, 0
2, 244545, Note_off_c, 3, 92, 0
2, 244608, Note_on_c, 3, 85, 77
2, 244608, Note_on_c, 3, 104, 97
2, 244608, Note_on_c, 3, 97, 91
2, 244609, Note_off_c, 3, 83, 0
2, 244609, Note_off_c, 3, 89, 0
2, 244609, Note_off_c, 3, 101, 0
2, 244609, Note_off_c, 3, 95, 0
2, 244668, Note_off_c, 3, 104, 0
2, 244668, Note_off_c, 3, 97, 0
2, 244672, Note_on_c, 3, 82, 84
2, 244672, Note_on_c, 3, 86, 84
2, 244673, Note_off_c, 3, 85, 0
2, 244736, Note_on_c, 3, 83, 95
2, 244736, Note_on_c, 3, 89, 95
2, 244737, Note_off_c, 3, 82, 0
2, 244737, Note_off_c, 3, 86, 0
2, 244800, Note_on_c, 3, 77, 80
2, 244800, Note_on_c, 3, 82, 80
2, 244800, Note_on_c, 3, 94, 73
2, 244800, Note_on_c, 3, 89, 76
2, 244801, Note_off_c, 3, 83, 0
2, 244801, Note_off_c, 3, 89, 0
2, 244864, Note_on_c, 3, 80, 93
2, 244864, Note_on_c, 3, 85, 93
2, 244864, Note_on_c, 3, 97, 80
2, 244864, Note_on_c, 3, 92, 82
2, 244865, Note_off_c, 3, 77, 0
2, 244865, Note_off_c, 3, 82, 0
2, 244865, Note_off_c, 3, 94, 0
2, 244865, Note_off_c, 3, 89, 0
2, 244928, Note_on_c, 3, 82, 88
2, 244928, Note_on_c, 3, 101, 91
2, 244928, Note_on_c, 3, 95, 93
2, 244929, Note_off_c, 3, 80, 0
2, 244929, Note_off_c, 3, 85, 0
2, 244929, Note_off_c, 3, 97, 0
2, 244929, Note_off_c, 3, 92, 0
2, 244992, Note_on_c, 3, 89, 107
2, 244992, Note_on_c, 3, 94, 107
2, 244992, Note_on_c, 3, 97, 85
2, 244992, Note_on_c, 3, 101, 108
2, 244993, Note_off_c, 3, 82, 0
2, 244993, Note_off_c, 3, 101, 0
2, 244993, Note_off_c, 3, 95, 0
2, 245052, Note_off_c, 3, 89, 0
2, 245052, Note_off_c, 3, 94, 0
2, 245052, Note_off_c, 3, 97, 0
2, 245052, Note_off_c, 3, 101, 0
2, 245120, Note_on_c, 3, 73, 76
2, 245120, Note_on_c, 3, 79, 76
2, 245120, Note_on_c, 3, 91, 74
2, 245120, Note_on_c, 3, 85, 75
2, 245184, Note_on_c, 3, 77, 84
2, 245184, Note_on_c, 3, 82, 84
2, 245184, Note_on_c, 3, 94, 83
2, 245184, Note_on_c, 3, 89, 82
2, 245185, Note_off_c, 3, 73, 0
2, 245185, Note_off_c, 3, 79, 0
2, 245185, Note_off_c, 3, 91, 0
2, 245185, Note_off_c, 3, 85, 0
2, 245248, Note_off_c, 3, 82, 0
2, 245248, Note_on_c, 3, 82, 100
2, 245248, Note_on_c, 3, 88, 100
2, 245248, Note_on_c, 3, 100, 95
2, 245248, Note_on_c, 3, 94, 100
2, 245249, Note_off_c, 3, 77, 0
2, 245249, Note_off_c, 3, 94, 0
2, 245249, Note_off_c, 3, 89, 0
2, 245308, Note_off_c, 3, 100, 0
2, 245312, Note_on_c, 3, 86, 118
2, 245312, Note_on_c, 3, 92, 118
2, 245312, Note_on_c, 3, 98, 116
2, 245313, Note_off_c, 3, 82, 0
2, 245313, Note_off_c, 3, 88, 0
2, 245313, Note_off_c, 3, 94, 0
2, 245376, Note_on_c, 3, 83, 78
2, 245376, Note_on_c, 3, 89, 78
2, 245376, Note_on_c, 3, 101, 80
2, 245376, Note_on_c, 3, 95, 78
2, 245377, Note_off_c, 3, 86, 0
2, 245377, Note_off_c, 3, 92, 0
2, 245377, Note_off_c, 3, 98, 0
2, 245440, Note_off_c, 3, 83, 0
2, 245440, Note_on_c, 3, 77, 64
2, 245440, Note_on_c, 3, 83, 64
2, 245440, Note_on_c, 3, 94, 63
2, 245440, Note_on_c, 3, 89, 69
2, 245441, Note_off_c, 3, 89, 0
2, 245441, Note_off_c, 3, 101, 0
2, 245441, Note_off_c, 3, 95, 0
2, 245504, Note_on_c, 3, 80, 86
2, 245504, Note_on_c, 3, 86, 86
2, 245504, Note_on_c, 3, 97, 92
2, 245504, Note_on_c, 3, 92, 92
2, 245505, Note_off_c, 3, 77, 0
2, 245505, Note_off_c, 3, 83, 0
2, 245505, Note_off_c, 3, 94, 0
2, 245505, Note_off_c, 3, 89, 0
2, 245568, Note_on_c, 3, 83, 97
2, 245568, Note_on_c, 3, 89, 97
2, 245568, Note_on_c, 3, 101, 100
2, 245568, Note_on_c, 3, 95, 103
2, 245569, Note_off_c, 3, 80, 0
2, 245569, Note_off_c, 3, 86, 0
2, 245569, Note_off_c, 3, 97, 0
2, 245569, Note_off_c, 3, 92, 0
2, 245632, Note_on_c, 3, 80, 82
2, 245632, Note_on_c, 3, 86, 82
2, 245632, Note_on_c, 3, 98, 73
2, 245632, Note_on_c, 3, 92, 77
2, 245633, Note_off_c, 3, 83, 0
2, 245633, Note_off_c, 3, 89, 0
2, 245633, Note_off_c, 3, 101, 0
2, 245633, Note_off_c, 3, 95, 0
2, 245696, Note_off_c, 3, 80, 0
2, 245696, Note_on_c, 3, 74, 64
2, 245696, Note_on_c, 3, 80, 64
2, 245696, Note_on_c, 3, 92, 59
2, 245696, Note_on_c, 3, 86, 67
2, 245697, Note_off_c, 3, 86, 0
2, 245697, Note_off_c, 3, 98, 0
2, 245697, Note_off_c, 3, 92, 0
2, 245760, Note_on_c, 3, 77, 92
2, 245760, Note_on_c, 3, 82, 92
2, 245760, Note_on_c, 3, 94, 82
2, 245760, Note_on_c, 3, 89, 89
2, 245761, Note_off_c, 3, 74, 0
2, 245761, Note_off_c, 3, 80, 0
2, 245761, Note_off_c, 3, 92, 0
2, 245761, Note_off_c, 3, 86, 0
2, 245824, Note_on_c, 3, 80, 103
2, 245824, Note_on_c, 3, 86, 103
2, 245824, Note_on_c, 3, 98, 85
2, 245824, Note_on_c, 3, 92, 101
2, 245825, Note_off_c, 3, 77, 0
2, 245825, Note_off_c, 3, 82, 0
2, 245825, Note_off_c, 3, 94, 0
2, 245825, Note_off_c, 3, 89, 0
2, 245888, Note_on_c, 3, 77, 75
2, 245888, Note_on_c, 3, 83, 75
2, 245888, Note_on_c, 3, 95, 80
2, 245888, Note_on_c, 3, 89, 78
2, 245889, Note_off_c, 3, 80, 0
2, 245889, Note_off_c, 3, 86, 0
2, 245889, Note_off_c, 3, 98, 0
2, 245889, Note_off_c, 3, 92, 0
2, 245952, Note_off_c, 3, 77, 0
2, 245952, Note_on_c, 3, 71, 63
2, 245952, Note_on_c, 3, 77, 63
2, 245952, Note_on_c, 3, 89, 61
2, 245952, Note_on_c, 3, 83, 65
2, 245953, Note_off_c, 3, 83, 0
2, 245953, Note_off_c, 3, 95, 0
2, 245953, Note_off_c, 3, 89, 0
2, 246016, Note_on_c, 3, 73, 70
2, 246016, Note_on_c, 3, 92, 93
2, 246016, Note_on_c, 3, 85, 83
2, 246017, Note_off_c, 3, 71, 0
2, 246017, Note_off_c, 3, 77, 0
2, 246017, Note_off_c, 3, 89, 0
2, 246017, Note_off_c, 3, 83, 0
2, 246080, Note_on_c, 3, 77, 78
2, 246080, Note_on_c, 3, 95, 104
2, 246080, Note_on_c, 3, 89, 96
2, 246081, Note_off_c, 3, 73, 0
2, 246081, Note_off_c, 3, 92, 0
2, 246081, Note_off_c, 3, 85, 0
2, 246144, Note_on_c, 3, 74, 80
2, 246144, Note_on_c, 3, 92, 83
2, 246144, Note_on_c, 3, 86, 81
2, 246145, Note_off_c, 3, 77, 0
2, 246145, Note_off_c, 3, 95, 0
2, 246145, Note_off_c, 3, 89, 0
2, 246208, Note_on_c, 3, 68, 68
2, 246208, Note_on_c, 3, 85, 65
2, 246208, Note_on_c, 3, 80, 71
2, 246209, Note_off_c, 3, 74, 0
2, 246209, Note_off_c, 3, 92, 0
2, 246209, Note_off_c, 3, 86, 0
2, 246268, Note_off_c, 3, 68, 0
2, 246272, Note_on_c, 3, 89, 89
2, 246272, Note_on_c, 3, 83, 89
2, 246273, Note_off_c, 3, 85, 0
2, 246273, Note_off_c, 3, 80, 0
2, 246336, Note_on_c, 3, 94, 103
2, 246336, Note_on_c, 3, 88, 104
2, 246337, Note_off_c, 3, 89, 0
2, 246337, Note_off_c, 3, 83, 0
2, 246400, Note_on_c, 3, 91, 82
2, 246400, Note_on_c, 3, 83, 73
2, 246401, Note_off_c, 3, 94, 0
2, 246401, Note_off_c, 3, 88, 0
2, 246464, Note_on_c, 3, 83, 64
2, 246464, Note_on_c, 3, 79, 65
2, 246465, Note_off_c, 3, 91, 0
2, 246465, Note_off_c, 3, 83, 0
2, 246528, Note_off_c, 3, 83, 0
2, 246528, Note_off_c, 3, 79, 0
2, 246528, Note_on_c, 3, 83, 80
2, 246528, Note_on_c, 3, 79, 82
2, 246588, Note_off_c, 3, 79, 0
2, 246592, Note_on_c, 3, 89, 91
2, 246593, Note_off_c, 3, 83, 0
2, 246656, Note_on_c, 3, 85, 73
2, 246657, Note_off_c, 3, 89, 0
2, 246720, Note_on_c, 3, 80, 58
2, 246721, Note_off_c, 3, 85, 0
2, 246784, Note_on_c, 3, 82, 75
2, 246784, Note_on_c, 3, 82, 87
2, 246785, Note_off_c, 3, 80, 0
2, 246848, Note_on_c, 3, 85, 78
2, 246848, Note_on_c, 3, 85, 95
2, 246849, Note_off_c, 3, 82, 0
2, 246849, Note_off_c, 3, 82, 0
2, 246912, Note_on_c, 3, 82, 75
2, 246912, Note_on_c, 3, 82, 79
2, 246913, Note_off_c, 3, 85, 0
2, 246913, Note_off_c, 3, 85, 0
2, 246976, Note_on_c, 3, 77, 66
2, 246976, Note_on_c, 3, 77, 66
2, 246977, Note_off_c, 3, 82, 0
2, 246977, Note_off_c, 3, 82, 0
2, 247036, Note_off_c, 3, 77, 0
2, 247040, Note_on_c, 3, 80, 88
2, 247041, Note_off_c, 3, 77, 0
2, 247104, Note_on_c, 3, 82, 93
2, 247105, Note_off_c, 3, 80, 0
2, 247168, Note_on_c, 3, 80, 76
2, 247169, Note_off_c, 3, 82, 0
2, 247232, Note_on_c, 3, 71, 60
2, 247233, Note_off_c, 3, 80, 0
2, 247296, Note_on_c, 3, 77, 95
2, 247297, Note_off_c, 3, 71, 0
2, 247360, Note_on_c, 3, 82, 108
2, 247361, Note_off_c, 3, 77, 0
2, 247424, Note_on_c, 3, 79, 78
2, 247425, Note_off_c, 3, 82, 0
2, 247488, Note_on_c, 3, 70, 61
2, 247489, Note_off_c, 3, 79, 0
2, 247552, Note_on_c, 3, 71, 94
2, 247552, Note_on_c, 3, 77, 94
2, 247553, Note_off_c, 3, 70, 0
2, 247616, Note_on_c, 3, 67, 92
2, 247616, Note_on_c, 3, 74, 92
2, 247617, Note_off_c, 3, 71, 0
2, 247617, Note_off_c, 3, 77, 0
2, 247676, Note_off_c, 3, 67, 0
2, 247676, Note_off_c, 3, 74, 0
2, 247744, Note_on_c, 3, 69, 76
2, 247744, Note_on_c, 3, 77, 76
2, 247808, Note_on_c, 3, 79, 83
2, 247808, Note_on_c, 3, 83, 83
2, 247809, Note_off_c, 3, 69, 0
2, 247809, Note_off_c, 3, 77, 0
2, 247872, Note_on_c, 3, 76, 77
2, 247872, Note_on_c, 3, 80, 77
2, 247873, Note_off_c, 3, 79, 0
2, 247873, Note_off_c, 3, 83, 0
2, 247932, Note_off_c, 3, 76, 0
2, 247932, Note_off_c, 3, 80, 0
2, 248000, Note_on_c, 3, 71, 77
2, 248000, Note_on_c, 3, 77, 77
2, 248064, Note_on_c, 3, 76, 83
2, 248064, Note_on_c, 3, 80, 83
2, 248065, Note_off_c, 3, 71, 0
2, 248065, Note_off_c, 3, 77, 0
2, 248128, Note_on_c, 3, 82, 98
2, 248128, Note_on_c, 3, 86, 98
2, 248129, Note_off_c, 3, 76, 0
2, 248129, Note_off_c, 3, 80, 0
2, 248188, Note_off_c, 3, 82, 0
2, 248188, Note_off_c, 3, 86, 0
2, 248256, Note_on_c, 3, 80, 76
2, 248256, Note_on_c, 3, 85, 76
2, 248320, Note_off_c, 3, 80, 0
2, 248320, Note_on_c, 3, 76, 67
2, 248320, Note_on_c, 3, 80, 67
2, 248321, Note_off_c, 3, 85, 0
2, 248384, Note_on_c, 3, 79, 86
2, 248384, Note_on_c, 3, 83, 86
2, 248385, Note_off_c, 3, 76, 0
2, 248385, Note_off_c, 3, 80, 0
2, 248444, Note_off_c, 3, 79, 0
2, 248444, Note_off_c, 3, 83, 0
2, 248512, Note_on_c, 3, 83, 77
2, 248512, Note_on_c, 3, 89, 77
2, 248576, Note_on_c, 3, 82, 65
2, 248576, Note_on_c, 3, 86, 65
2, 248577, Note_off_c, 3, 83, 0
2, 248577, Note_off_c, 3, 89, 0
2, 248640, Note_on_c, 3, 76, 66
2, 248640, Note_on_c, 3, 80, 66
2, 248641, Note_off_c, 3, 82, 0
2, 248641, Note_off_c, 3, 86, 0
2, 248700, Note_off_c, 3, 76, 0
2, 248700, Note_off_c, 3, 80, 0
2, 248768, Note_on_c, 3, 82, 75
2, 248768, Note_on_c, 3, 83, 75
2, 248832, Note_on_c, 3, 71, 66
2, 248832, Note_on_c, 3, 77, 66
2, 248832, Note_on_c, 3, 89, 75
2, 248832, Note_on_c, 3, 83, 79
2, 248833, Note_off_c, 3, 82, 0
2, 248833, Note_off_c, 3, 83, 0
2, 248892, Note_off_c, 3, 71, 0
2, 248892, Note_off_c, 3, 77, 0
2, 248896, Note_on_c, 3, 94, 85
2, 248896, Note_on_c, 3, 89, 84
2, 248897, Note_off_c, 3, 89, 0
2, 248897, Note_off_c, 3, 83, 0
2, 248960, Note_on_c, 3, 97, 96
2, 248960, Note_on_c, 3, 92, 95
2, 248961, Note_off_c, 3, 94, 0
2, 248961, Note_off_c, 3, 89, 0
2, 249024, Note_on_c, 3, 101, 104
2, 249024, Note_on_c, 3, 95, 107
2, 249025, Note_off_c, 3, 97, 0
2, 249025, Note_off_c, 3, 92, 0
2, 249088, Note_on_c, 3, 71, 76
2, 249088, Note_on_c, 3, 77, 76
2, 249088, Note_on_c, 3, 97, 78
2, 249088, Note_on_c, 3, 101, 99
2, 249089, Note_off_c, 3, 101, 0
2, 249089, Note_off_c, 3, 95, 0
2, 249148, Note_off_c, 3, 97, 0
2, 249148, Note_off_c, 3, 101, 0
2, 249152, Note_off_c, 3, 77, 0
2, 249152, Note_on_c, 3, 77, 87
2, 249152, Note_on_c, 3, 82, 87
2, 249153, Note_off_c, 3, 71, 0
2, 249216, Note_on_c, 3, 80, 90
2, 249216, Note_on_c, 3, 85, 90
2, 249216, Note_on_c, 3, 91, 74
2, 249216, Note_on_c, 3, 87, 76
2, 249217, Note_off_c, 3, 77, 0
2, 249217, Note_off_c, 3, 82, 0
2, 249280, Note_on_c, 3, 82, 101
2, 249280, Note_on_c, 3, 89, 101
2, 249280, Note_on_c, 3, 94, 79
2, 249280, Note_on_c, 3, 89, 79
2, 249281, Note_off_c, 3, 80, 0
2, 249281, Note_off_c, 3, 85, 0
2, 249281, Note_off_c, 3, 91, 0
2, 249281, Note_off_c, 3, 87, 0
2, 249344, Note_off_c, 3, 89, 0
2, 249344, Note_on_c, 3, 89, 88
2, 249344, Note_on_c, 3, 100, 96
2, 249344, Note_on_c, 3, 94, 97
2, 249345, Note_off_c, 3, 82, 0
2, 249345, Note_off_c, 3, 94, 0
2, 249345, Note_off_c, 3, 89, 0
2, 249404, Note_off_c, 3, 89, 0
2, 249408, Note_on_c, 3, 104, 109
2, 249408, Note_on_c, 3, 98, 106
2, 249409, Note_off_c, 3, 100, 0
2, 249409, Note_off_c, 3, 94, 0
2, 249468, Note_off_c, 3, 104, 0
2, 249468, Note_off_c, 3, 98, 0
2, 249472, Note_on_c, 3, 73, 77
2, 249472, Note_on_c, 3, 79, 77
2, 249536, Note_on_c, 3, 77, 84
2, 249536, Note_on_c, 3, 82, 84
2, 249537, Note_off_c, 3, 73, 0
2, 249537, Note_off_c, 3, 79, 0
2, 249600, Note_off_c, 3, 82, 0
2, 249600, Note_on_c, 3, 82, 98
2, 249600, Note_on_c, 3, 88, 98
2, 249600, Note_on_c, 3, 91, 79
2, 249600, Note_on_c, 3, 85, 72
2, 249601, Note_off_c, 3, 77, 0
2, 249664, Note_on_c, 3, 86, 112
2, 249664, Note_on_c, 3, 92, 112
2, 249664, Note_on_c, 3, 94, 87
2, 249664, Note_on_c, 3, 89, 74
2, 249665, Note_off_c, 3, 82, 0
2, 249665, Note_off_c, 3, 88, 0
2, 249665, Note_off_c, 3, 91, 0
2, 249665, Note_off_c, 3, 85, 0
2, 249724, Note_off_c, 3, 86, 0
2, 249724, Note_off_c, 3, 92, 0
2, 249728, Note_on_c, 3, 100, 97
2, 249728, Note_on_c, 3, 94, 97
2, 249729, Note_off_c, 3, 94, 0
2, 249729, Note_off_c, 3, 89, 0
2, 249792, Note_on_c, 3, 104, 110
2, 249792, Note_on_c, 3, 98, 111
2, 249793, Note_off_c, 3, 100, 0
2, 249793, Note_off_c, 3, 94, 0
2, 249856, Note_on_c, 3, 73, 76
2, 249856, Note_on_c, 3, 79, 76
2, 249856, Note_on_c, 3, 101, 76
2, 249856, Note_on_c, 3, 95, 77
2, 249857, Note_off_c, 3, 104, 0
2, 249857, Note_off_c, 3, 98, 0
2, 249920, Note_on_c, 3, 77, 81
2, 249920, Note_on_c, 3, 82, 81
2, 249920, Note_on_c, 3, 94, 62
2, 249920, Note_on_c, 3, 89, 65
2, 249921, Note_off_c, 3, 73, 0
2, 249921, Note_off_c, 3, 79, 0
2, 249921, Note_off_c, 3, 101, 0
2, 249921, Note_off_c, 3, 95, 0
2, 249980, Note_off_c, 3, 94, 0
2, 249980, Note_off_c, 3, 89, 0
2, 249984, Note_off_c, 3, 82, 0
2, 249984, Note_on_c, 3, 82, 92
2, 249984, Note_on_c, 3, 88, 92
2, 249985, Note_off_c, 3, 77, 0
2, 250048, Note_on_c, 3, 86, 106
2, 250048, Note_on_c, 3, 92, 106
2, 250049, Note_off_c, 3, 82, 0
2, 250049, Note_off_c, 3, 88, 0
2, 250112, Note_on_c, 3, 83, 80
2, 250112, Note_on_c, 3, 89, 80
2, 250112, Note_on_c, 3, 101, 78
2, 250112, Note_on_c, 3, 95, 76
2, 250113, Note_off_c, 3, 86, 0
2, 250113, Note_off_c, 3, 92, 0
2, 250176, Note_on_c, 3, 77, 64
2, 250176, Note_on_c, 3, 82, 64
2, 250176, Note_on_c, 3, 98, 69
2, 250176, Note_on_c, 3, 92, 68
2, 250177, Note_off_c, 3, 83, 0
2, 250177, Note_off_c, 3, 89, 0
2, 250177, Note_off_c, 3, 101, 0
2, 250177, Note_off_c, 3, 95, 0
2, 250236, Note_off_c, 3, 77, 0
2, 250236, Note_off_c, 3, 82, 0
2, 250240, Note_on_c, 3, 92, 72
2, 250240, Note_on_c, 3, 86, 72
2, 250241, Note_off_c, 3, 98, 0
2, 250241, Note_off_c, 3, 92, 0
2, 250304, Note_on_c, 3, 94, 73
2, 250304, Note_on_c, 3, 89, 75
2, 250305, Note_off_c, 3, 92, 0
2, 250305, Note_off_c, 3, 86, 0
2, 250368, Note_on_c, 3, 82, 76
2, 250368, Note_on_c, 3, 89, 76
2, 250368, Note_on_c, 3, 98, 92
2, 250368, Note_on_c, 3, 92, 90
2, 250369, Note_off_c, 3, 94, 0
2, 250369, Note_off_c, 3, 89, 0
2, 250432, Note_on_c, 3, 80, 71
2, 250432, Note_on_c, 3, 86, 71
2, 250432, Note_on_c, 3, 95, 85
2, 250432, Note_on_c, 3, 89, 79
2, 250433, Note_off_c, 3, 82, 0
2, 250433, Note_off_c, 3, 89, 0
2, 250433, Note_off_c, 3, 98, 0
2, 250433, Note_off_c, 3, 92, 0
2, 250496, Note_off_c, 3, 80, 0
2, 250496, Note_on_c, 3, 74, 72
2, 250496, Note_on_c, 3, 80, 72
2, 250496, Note_on_c, 3, 89, 72
2, 250496, Note_on_c, 3, 83, 68
2, 250497, Note_off_c, 3, 86, 0
2, 250497, Note_off_c, 3, 95, 0
2, 250497, Note_off_c, 3, 89, 0
2, 250560, Note_on_c, 3, 77, 74
2, 250560, Note_on_c, 3, 82, 74
2, 250560, Note_on_c, 3, 92, 74
2, 250560, Note_on_c, 3, 85, 73
2, 250561, Note_off_c, 3, 74, 0
2, 250561, Note_off_c, 3, 80, 0
2, 250561, Note_off_c, 3, 89, 0
2, 250561, Note_off_c, 3, 83, 0
2, 250624, Note_on_c, 3, 80, 97
2, 250624, Note_on_c, 3, 86, 97
2, 250624, Note_on_c, 3, 95, 94
2, 250624, Note_on_c, 3, 89, 95
2, 250625, Note_off_c, 3, 77, 0
2, 250625, Note_off_c, 3, 82, 0
2, 250625, Note_off_c, 3, 92, 0
2, 250625, Note_off_c, 3, 85, 0
2, 250684, Note_off_c, 3, 80, 0
2, 250684, Note_off_c, 3, 86, 0
2, 250688, Note_on_c, 3, 92, 85
2, 250688, Note_on_c, 3, 86, 91
2, 250689, Note_off_c, 3, 95, 0
2, 250689, Note_off_c, 3, 89, 0
2, 250752, Note_on_c, 3, 85, 67
2, 250752, Note_on_c, 3, 80, 73
2, 250753, Note_off_c, 3, 92, 0
2, 250753, Note_off_c, 3, 86, 0
2, 250816, Note_on_c, 3, 89, 73
2, 250816, Note_on_c, 3, 83, 73
2, 250817, Note_off_c, 3, 85, 0
2, 250817, Note_off_c, 3, 80, 0
2, 250880, Note_on_c, 3, 88, 77
2, 250880, Note_on_c, 3, 94, 94
2, 250880, Note_on_c, 3, 88, 95
2, 250881, Note_off_c, 3, 89, 0
2, 250881, Note_off_c, 3, 83, 0
2, 250944, Note_on_c, 3, 83, 67
2, 250944, Note_on_c, 3, 91, 90
2, 250944, Note_on_c, 3, 83, 86
2, 250945, Note_off_c, 3, 88, 0
2, 250945, Note_off_c, 3, 94, 0
2, 250945, Note_off_c, 3, 88, 0
2, 251008, Note_on_c, 3, 79, 73
2, 251008, Note_on_c, 3, 83, 67
2, 251008, Note_on_c, 3, 79, 73
2, 251009, Note_off_c, 3, 83, 0
2, 251009, Note_off_c, 3, 91, 0
2, 251009, Note_off_c, 3, 83, 0
2, 251068, Note_off_c, 3, 83, 0
2, 251068, Note_off_c, 3, 79, 0
2, 251072, Note_on_c, 3, 80, 75
2, 251073, Note_off_c, 3, 79, 0
2, 251132, Note_off_c, 3, 80, 0
2, 251200, Note_on_c, 3, 83, 74
2, 251200, Note_on_c, 3, 94, 79
2, 251264, Note_on_c, 3, 82, 70
2, 251264, Note_on_c, 3, 91, 69
2, 251265, Note_off_c, 3, 83, 0
2, 251265, Note_off_c, 3, 94, 0
2, 251328, Note_on_c, 3, 76, 70
2, 251328, Note_on_c, 3, 83, 62
2, 251329, Note_off_c, 3, 82, 0
2, 251329, Note_off_c, 3, 91, 0
2, 251392, Note_on_c, 3, 77, 70
2, 251392, Note_on_c, 3, 88, 67
2, 251393, Note_off_c, 3, 76, 0
2, 251393, Note_off_c, 3, 83, 0
2, 251456, Note_on_c, 3, 82, 97
2, 251456, Note_on_c, 3, 91, 95
2, 251457, Note_off_c, 3, 77, 0
2, 251457, Note_off_c, 3, 88, 0
2, 251520, Note_on_c, 3, 79, 102
2, 251520, Note_on_c, 3, 83, 102
2, 251520, Note_on_c, 3, 88, 88
2, 251521, Note_off_c, 3, 82, 0
2, 251521, Note_off_c, 3, 91, 0
2, 251580, Note_off_c, 3, 88, 0
2, 251584, Note_on_c, 3, 71, 80
2, 251584, Note_on_c, 3, 80, 80
2, 251585, Note_off_c, 3, 79, 0
2, 251585, Note_off_c, 3, 83, 0
2, 251648, Note_on_c, 3, 76, 83
2, 251648, Note_on_c, 3, 83, 83
2, 251649, Note_off_c, 3, 71, 0
2, 251649, Note_off_c, 3, 80, 0
2, 251712, Note_on_c, 3, 80, 97
2, 251712, Note_on_c, 3, 89, 97
2, 251713, Note_off_c, 3, 76, 0
2, 251713, Note_off_c, 3, 83, 0
2, 251776, Note_on_c, 3, 76, 91
2, 251776, Note_on_c, 3, 86, 91
2, 251777, Note_off_c, 3, 80, 0
2, 251777, Note_off_c, 3, 89, 0
2, 251840, Note_on_c, 3, 71, 69
2, 251840, Note_on_c, 3, 79, 69
2, 251841, Note_off_c, 3, 76, 0
2, 251841, Note_off_c, 3, 86, 0
2, 251904, Note_on_c, 3, 68, 65
2, 251904, Note_on_c, 3, 77, 65
2, 251905, Note_off_c, 3, 71, 0
2, 251905, Note_off_c, 3, 79, 0
2, 251964, Note_off_c, 3, 68, 0
2, 251964, Note_off_c, 3, 77, 0
2, 252032, Note_on_c, 3, 80, 76
2, 252032, Note_on_c, 3, 92, 77
2, 252096, Note_off_c, 3, 80, 0
2, 252096, Note_on_c, 3, 80, 100
2, 252096, Note_on_c, 3, 89, 100
2, 252096, Note_on_c, 3, 89, 69
2, 252097, Note_off_c, 3, 92, 0
2, 252160, Note_off_c, 3, 80, 0
2, 252160, Note_on_c, 3, 73, 83
2, 252160, Note_on_c, 3, 80, 83
2, 252160, Note_on_c, 3, 80, 63
2, 252161, Note_off_c, 3, 89, 0
2, 252161, Note_off_c, 3, 89, 0
2, 252224, Note_on_c, 3, 74, 93
2, 252224, Note_on_c, 3, 85, 93
2, 252224, Note_on_c, 3, 85, 69
2, 252225, Note_off_c, 3, 73, 0
2, 252225, Note_off_c, 3, 80, 0
2, 252225, Note_off_c, 3, 80, 0
2, 252288, Note_on_c, 3, 80, 101
2, 252288, Note_on_c, 3, 89, 101
2, 252288, Note_on_c, 3, 89, 94
2, 252289, Note_off_c, 3, 74, 0
2, 252289, Note_off_c, 3, 85, 0
2, 252289, Note_off_c, 3, 85, 0
2, 252352, Note_on_c, 3, 77, 67
2, 252352, Note_on_c, 3, 85, 86
2, 252353, Note_off_c, 3, 80, 0
2, 252353, Note_off_c, 3, 89, 0
2, 252353, Note_off_c, 3, 89, 0
2, 252412, Note_off_c, 3, 85, 0
2, 252416, Note_off_c, 3, 77, 0
2, 252416, Note_on_c, 3, 68, 80
2, 252416, Note_on_c, 3, 77, 80
2, 252480, Note_on_c, 3, 83, 90
2, 252481, Note_off_c, 3, 68, 0
2, 252481, Note_off_c, 3, 77, 0
2, 252544, Note_on_c, 3, 77, 91
2, 252544, Note_on_c, 3, 86, 91
2, 252545, Note_off_c, 3, 83, 0
2, 252608, Note_on_c, 3, 74, 86
2, 252608, Note_on_c, 3, 83, 86
2, 252609, Note_off_c, 3, 77, 0
2, 252609, Note_off_c, 3, 86, 0
2, 252672, Note_on_c, 3, 68, 71
2, 252672, Note_on_c, 3, 77, 71
2, 252673, Note_off_c, 3, 74, 0
2, 252673, Note_off_c, 3, 83, 0
2, 252736, Note_on_c, 3, 65, 65
2, 252736, Note_on_c, 3, 74, 65
2, 252737, Note_off_c, 3, 68, 0
2, 252737, Note_off_c, 3, 77, 0
2, 252796, Note_off_c, 3, 65, 0
2, 252796, Note_off_c, 3, 74, 0
2, 252928, Note_on_c, 3, 92, 64
2, 253030, Note_on_c, 3, 89, 57
2, 253032, Note_off_c, 3, 92, 0
2, 253132, Note_on_c, 3, 80, 55
2, 253134, Note_off_c, 3, 89, 0
2, 253235, Note_on_c, 3, 85, 56
2, 253237, Note_off_c, 3, 80, 0
2, 253337, Note_on_c, 3, 89, 84
2, 253339, Note_off_c, 3, 85, 0
2, 253440, Note_on_c, 3, 85, 75
2, 253442, Note_off_c, 3, 89, 0
2, 253542, Note_on_c, 3, 77, 55
2, 253544, Note_off_c, 3, 85, 0
2, 253644, Note_on_c, 3, 80, 55
2, 253646, Note_off_c, 3, 77, 0
2, 253747, Note_on_c, 3, 86, 83
2, 253749, Note_off_c, 3, 80, 0
2, 253849, Note_on_c, 3, 83, 77
2, 253851, Note_off_c, 3, 86, 0
2, 253952, Note_on_c, 3, 77, 60
2, 253954, Note_off_c, 3, 83, 0
2, 254054, Note_on_c, 3, 68, 47
2, 254056, Note_off_c, 3, 77, 0
2, 254156, Note_on_c, 3, 73, 76
2, 254158, Note_off_c, 3, 68, 0
2, 254259, Note_on_c, 3, 77, 82
2, 254261, Note_off_c, 3, 73, 0
2, 254361, Note_on_c, 3, 73, 63
2, 254363, Note_off_c, 3, 77, 0
2, 254464, Note_on_c, 3, 71, 60
2, 254466, Note_off_c, 3, 73, 0
2, 254560, Note_off_c, 3, 71, 0
2, 265088, Note_on_c, 3, 60, 57
2, 265216, Note_on_c, 3, 63, 61
2, 265218, Note_off_c, 3, 60, 0
2, 265600, Note_on_c, 3, 65, 67
2, 265607, Note_off_c, 3, 63, 0
2, 265728, Note_on_c, 3, 75, 81
2, 265730, Note_off_c, 3, 65, 0
2, 266368, Note_on_c, 3, 67, 53
2, 266380, Note_off_c, 3, 75, 0
2, 267340, Note_off_c, 3, 67, 0
2, 267392, Note_on_c, 3, 75, 75
2, 267648, Note_on_c, 3, 77, 79
2, 267653, Note_off_c, 3, 75, 0
2, 267776, Note_on_c, 3, 73, 57
2, 267778, Note_off_c, 3, 77, 0
2, 268160, Note_on_c, 3, 71, 53
2, 268167, Note_off_c, 3, 73, 0
2, 268544, Note_on_c, 3, 70, 58
2, 268551, Note_off_c, 3, 71, 0
2, 268928, Note_on_c, 3, 68, 54
2, 268935, Note_off_c, 3, 70, 0
2, 269312, Note_on_c, 3, 67, 59
2, 269319, Note_off_c, 3, 68, 0
2, 269696, Note_on_c, 3, 65, 54
2, 269703, Note_off_c, 3, 67, 0
2, 270060, Note_off_c, 3, 65, 0
2, 270080, Note_on_c, 3, 65, 60
2, 270208, Note_on_c, 3, 67, 62
2, 270210, Note_off_c, 3, 65, 0
2, 270464, Note_on_c, 3, 68, 59
2, 270469, Note_off_c, 3, 67, 0
2, 270592, Note_on_c, 3, 78, 79
2, 270594, Note_off_c, 3, 68, 0
2, 270976, Note_on_c, 3, 80, 74
2, 270983, Note_off_c, 3, 78, 0
2, 271664, Note_off_c, 3, 80, 0
2, 271701, Note_on_c, 3, 82, 87
2, 271957, Note_on_c, 3, 78, 78
2, 271962, Note_off_c, 3, 82, 0
2, 272280, Note_off_c, 3, 78, 0
2, 272298, Note_on_c, 3, 76, 79
2, 272768, Note_on_c, 3, 75, 72
2, 272777, Note_off_c, 3, 76, 0
2, 273152, Note_on_c, 3, 73, 81
2, 273159, Note_off_c, 3, 75, 0
2, 273280, Note_on_c, 3, 71, 78
2, 273282, Note_off_c, 3, 73, 0
2, 273536, Note_on_c, 3, 69, 74
2, 273541, Note_off_c, 3, 71, 0
2, 273664, Note_on_c, 3, 67, 70
2, 273666, Note_off_c, 3, 69, 0
2, 273920, Note_on_c, 3, 65, 69
2, 273925, Note_off_c, 3, 67, 0
2, 274048, Note_on_c, 3, 64, 64
2, 274050, Note_off_c, 3, 65, 0
2, 274304, Note_on_c, 3, 62, 58
2, 274309, Note_off_c, 3, 64, 0
2, 275155, Note_off_c, 3, 62, 0
2, 275200, Note_on_c, 3, 61, 62
2, 275328, Note_on_c, 3, 62, 65
2, 275330, Note_off_c, 3, 61, 0
2, 275584, Note_on_c, 3, 64, 64
2, 275589, Note_off_c, 3, 62, 0
2, 275712, Note_on_c, 3, 72, 74
2, 275714, Note_off_c, 3, 64, 0
2, 276138, Note_on_c, 3, 70, 61
2, 276146, Note_off_c, 3, 72, 0
2, 276462, Note_off_c, 3, 70, 0
2, 276736, Note_on_c, 3, 60, 63
2, 276864, Note_on_c, 3, 61, 68
2, 276866, Note_off_c, 3, 60, 0
2, 277120, Note_on_c, 3, 63, 73
2, 277125, Note_off_c, 3, 61, 0
2, 277248, Note_on_c, 3, 71, 92
2, 277250, Note_off_c, 3, 63, 0
2, 277674, Note_on_c, 3, 69, 62
2, 277682, Note_off_c, 3, 71, 0
2, 278120, Note_off_c, 3, 69, 0
2, 278144, Note_on_c, 3, 64, 60
2, 278272, Note_on_c, 3, 65, 60
2, 278274, Note_off_c, 3, 64, 0
2, 278656, Note_on_c, 3, 67, 72
2, 278663, Note_off_c, 3, 65, 0
2, 278784, Note_on_c, 3, 75, 80
2, 278786, Note_off_c, 3, 67, 0
2, 279168, Note_on_c, 3, 73, 68
2, 279175, Note_off_c, 3, 75, 0
2, 279654, Note_off_c, 3, 73, 0
2, 279680, Note_on_c, 3, 66, 59
2, 279978, Note_on_c, 3, 68, 80
2, 279983, Note_off_c, 3, 66, 0
2, 280149, Note_on_c, 3, 70, 86
2, 280152, Note_off_c, 3, 68, 0
2, 280320, Note_on_c, 3, 86, 108
2, 280323, Note_off_c, 3, 70, 0
2, 280704, Note_on_c, 3, 79, 69
2, 280711, Note_off_c, 3, 86, 0
2, 281190, Note_off_c, 3, 79, 0
2, 281216, Note_on_c, 3, 86, 90
2, 281472, Note_on_c, 3, 88, 76
2, 281477, Note_off_c, 3, 86, 0
2, 281600, Note_on_c, 3, 84, 65
2, 281602, Note_off_c, 3, 88, 0
2, 281984, Note_on_c, 3, 82, 57
2, 281991, Note_off_c, 3, 84, 0
2, 282368, Note_on_c, 3, 80, 58
2, 282375, Note_off_c, 3, 82, 0
2, 282752, Note_on_c, 3, 79, 54
2, 282759, Note_off_c, 3, 80, 0
2, 282880, Note_on_c, 3, 80, 62
2, 282882, Note_off_c, 3, 79, 0
2, 283008, Note_on_c, 3, 77, 54
2, 283010, Note_off_c, 3, 80, 0
2, 283136, Note_on_c, 3, 75, 57
2, 283138, Note_off_c, 3, 77, 0
2, 283392, Note_on_c, 3, 77, 62
2, 283397, Note_off_c, 3, 75, 0
2, 283520, Note_on_c, 3, 74, 55
2, 283522, Note_off_c, 3, 77, 0
2, 283776, Note_on_c, 3, 72, 51
2, 283781, Note_off_c, 3, 74, 0
2, 284140, Note_off_c, 3, 72, 0
2, 284160, Note_on_c, 3, 70, 56
2, 284245, Note_on_c, 3, 72, 58
2, 284246, Note_off_c, 3, 70, 0
2, 284416, Note_on_c, 3, 68, 51
2, 284419, Note_off_c, 3, 72, 0
2, 284800, Note_on_c, 3, 66, 48
2, 284807, Note_off_c, 3, 68, 0
2, 285013, Note_on_c, 3, 65, 61
2, 285017, Note_off_c, 3, 66, 0
2, 285098, Note_on_c, 3, 66, 63
2, 285099, Note_off_c, 3, 65, 0
2, 285269, Note_on_c, 3, 65, 60
2, 285272, Note_off_c, 3, 66, 0
2, 285354, Note_on_c, 3, 66, 62
2, 285355, Note_off_c, 3, 65, 0
2, 285525, Note_on_c, 3, 63, 60
2, 285528, Note_off_c, 3, 66, 0
2, 285610, Note_on_c, 3, 60, 57
2, 285611, Note_off_c, 3, 63, 0
2, 285781, Note_on_c, 3, 61, 66
2, 285784, Note_off_c, 3, 60, 0
2, 285866, Note_on_c, 3, 63, 68
2, 285867, Note_off_c, 3, 61, 0
2, 286037, Note_on_c, 3, 61, 57
2, 286040, Note_off_c, 3, 63, 0
2, 286122, Note_on_c, 3, 63, 62
2, 286123, Note_off_c, 3, 61, 0
2, 286293, Note_on_c, 3, 68, 71
2, 286296, Note_off_c, 3, 63, 0
2, 286378, Note_on_c, 3, 66, 66
2, 286379, Note_off_c, 3, 68, 0
2, 286581, Note_off_c, 3, 66, 0
2, 288512, Note_on_c, 3, 62, 59
2, 288682, Note_on_c, 3, 63, 62
2, 288685, Note_off_c, 3, 62, 0
2, 288853, Note_on_c, 3, 75, 75
2, 288856, Note_off_c, 3, 63, 0
2, 289024, Note_on_c, 3, 78, 86
2, 289027, Note_off_c, 3, 75, 0
2, 289450, Note_on_c, 3, 74, 57
2, 289458, Note_off_c, 3, 78, 0
2, 290139, Note_off_c, 3, 74, 0
2, 290176, Note_on_c, 3, 67, 50
2, 290304, Note_on_c, 3, 68, 61
2, 290306, Note_off_c, 3, 67, 0
2, 290688, Note_on_c, 3, 71, 64
2, 290695, Note_off_c, 3, 68, 0
2, 290816, Note_on_c, 3, 80, 62
2, 290818, Note_off_c, 3, 71, 0
2, 291157, Note_on_c, 3, 81, 48
2, 291163, Note_off_c, 3, 80, 0
2, 291562, Note_off_c, 3, 81, 0
2, 291584, Note_on_c, 3, 83, 41
2, 291712, Note_on_c, 3, 81, 38
2, 291714, Note_off_c, 3, 83, 0
2, 291968, Note_on_c, 3, 86, 45
2, 291973, Note_off_c, 3, 81, 0
2, 292096, Note_on_c, 3, 82, 39
2, 292098, Note_off_c, 3, 86, 0
2, 292352, Note_on_c, 3, 80, 35
2, 292357, Note_off_c, 3, 82, 0
2, 292522, Note_on_c, 3, 78, 32
2, 292525, Note_off_c, 3, 80, 0
2, 292693, Note_on_c, 3, 76, 35
2, 292696, Note_off_c, 3, 78, 0
2, 293248, Note_on_c, 3, 74, 31
2, 293259, Note_off_c, 3, 76, 0
2, 293504, Note_on_c, 3, 72, 39
2, 293509, Note_off_c, 3, 74, 0
2, 293760, Note_on_c, 3, 69, 34
2, 293765, Note_off_c, 3, 72, 0
2, 293888, Note_on_c, 3, 68, 36
2, 293890, Note_off_c, 3, 69, 0
2, 294252, Note_off_c, 3, 68, 0
2, 294272, Note_on_c, 3, 67, 35
2, 294400, Note_on_c, 3, 65, 36
2, 294402, Note_off_c, 3, 67, 0
2, 294784, Note_on_c, 3, 68, 58
2, 294791, Note_off_c, 3, 65, 0
2, 295168, Note_on_c, 3, 66, 65
2, 295175, Note_off_c, 3, 68, 0
2, 295296, Note_on_c, 3, 65, 67
2, 295298, Note_off_c, 3, 66, 0
2, 295579, Note_off_c, 3, 65, 0
2, 295594, Note_on_c, 3, 64, 80
2, 295765, Note_on_c, 3, 63, 77
2, 295768, Note_off_c, 3, 64, 0
2, 296277, Note_on_c, 3, 62, 81
2, 296287, Note_off_c, 3, 63, 0
2, 296789, Note_on_c, 3, 61, 78
2, 296799, Note_off_c, 3, 62, 0
2, 297301, Note_on_c, 3, 64, 88
2, 297311, Note_off_c, 3, 61, 0
2, 297624, Note_off_c, 3, 64, 0
2, 298496, Note_on_c, 3, 59, 75
2, 298666, Note_on_c, 3, 62, 82
2, 298669, Note_off_c, 3, 59, 0
2, 298837, Note_on_c, 3, 70, 97
2, 298840, Note_off_c, 3, 62, 0
2, 299178, Note_on_c, 3, 66, 82
2, 299184, Note_off_c, 3, 70, 0
2, 299867, Note_off_c, 3, 66, 0
2, 299904, Note_on_c, 3, 64, 77
2, 300202, Note_off_c, 3, 64, 0
2, 300202, Note_on_c, 3, 65, 87
2, 300714, Note_on_c, 3, 75, 104
2, 300724, Note_off_c, 3, 65, 0
2, 301184, Note_on_c, 3, 66, 66
2, 301193, Note_off_c, 3, 75, 0
2, 301710, Note_off_c, 3, 66, 0
2, 301738, Note_on_c, 3, 70, 94
2, 301909, Note_on_c, 3, 71, 99
2, 301912, Note_off_c, 3, 70, 0
2, 302080, Note_on_c, 3, 81, 104
2, 302083, Note_off_c, 3, 71, 0
2, 302336, Note_on_c, 3, 79, 103
2, 302341, Note_off_c, 3, 81, 0
2, 302822, Note_off_c, 3, 79, 0
2, 302848, Note_on_c, 3, 86, 105
2, 303104, Note_on_c, 3, 78, 86
2, 303109, Note_off_c, 3, 86, 0
2, 303347, Note_off_c, 3, 78, 0
2, 303360, Note_on_c, 3, 64, 61
2, 303488, Note_on_c, 3, 70, 66
2, 303490, Note_off_c, 3, 64, 0
2, 303852, Note_off_c, 3, 70, 0
2, 303872, Note_on_c, 3, 81, 109
2, 304000, Note_on_c, 3, 77, 106
2, 304002, Note_off_c, 3, 81, 0
2, 304243, Note_off_c, 3, 77, 0
2, 304384, Note_on_c, 3, 66, 75
2, 304640, Note_on_c, 3, 76, 91
2, 304645, Note_off_c, 3, 66, 0
2, 304768, Note_on_c, 3, 72, 81
2, 304770, Note_off_c, 3, 76, 0
2, 305011, Note_off_c, 3, 72, 0
2, 305024, Note_on_c, 3, 62, 58
2, 305152, Note_on_c, 3, 65, 60
2, 305154, Note_off_c, 3, 62, 0
2, 305408, Note_on_c, 3, 72, 104
2, 305413, Note_off_c, 3, 65, 0
2, 305536, Note_on_c, 3, 69, 95
2, 305538, Note_off_c, 3, 72, 0
2, 305779, Note_off_c, 3, 69, 0
2, 305792, Note_on_c, 3, 60, 62
2, 306176, Note_on_c, 3, 63, 70
2, 306183, Note_off_c, 3, 60, 0
2, 306304, Note_on_c, 3, 66, 93
2, 306306, Note_off_c, 3, 63, 0
2, 306432, Note_on_c, 3, 75, 116
2, 306434, Note_off_c, 3, 66, 0
2, 306816, Note_on_c, 3, 74, 82
2, 306823, Note_off_c, 3, 75, 0
2, 307910, Note_off_c, 3, 74, 0
2, 344320, Note_on_c, 3, 80, 74
2, 344448, Note_off_c, 3, 80, 0
2, 344704, Note_on_c, 3, 80, 75
2, 344832, Note_off_c, 3, 80, 0
2, 345088, Note_on_c, 3, 80, 74
2, 345216, Note_off_c, 3, 80, 0
2, 345856, Note_on_c, 3, 80, 75
2, 345984, Note_off_c, 3, 80, 0
2, 346240, Note_on_c, 3, 80, 81
2, 346368, Note_off_c, 3, 80, 0
2, 346624, Note_on_c, 3, 80, 77
2, 346752, Note_off_c, 3, 80, 0
2, 347136, Note_on_c, 3, 80, 77
2, 347264, Note_off_c, 3, 80, 0
2, 347520, Note_on_c, 3, 80, 77
2, 347648, Note_off_c, 3, 80, 0
2, 347904, Note_on_c, 3, 80, 72
2, 348032, Note_off_c, 3, 80, 0
2, 348288, Note_on_c, 3, 80, 77
2, 348416, Note_off_c, 3, 80, 0
2, 348800, Note_on_c, 3, 80, 72
2, 348928, Note_off_c, 3, 80, 0
2, 349312, Note_on_c, 3, 80, 74
2, 349440, Note_off_c, 3, 80, 0
2, 349696, Note_on_c, 3, 80, 71
2, 349824, Note_off_c, 3, 80, 0
2, 355840, Note_on_c, 3, 96, 31
2, 355840, Note_on_c, 3, 84, 33
2, 355904, Note_off_c, 3, 96, 0
2, 355904, Note_on_c, 3, 72, 22
2, 355904, Note_on_c, 3, 72, 35
2, 355905, Note_off_c, 3, 84, 0
2, 355964, Note_off_c, 3, 72, 0
2, 355968, Note_on_c, 3, 79, 39
2, 355969, Note_off_c, 3, 72, 0
2, 356032, Note_on_c, 3, 90, 35
2, 356032, Note_on_c, 3, 78, 35
2, 356032, Note_on_c, 3, 78, 36
2, 356033, Note_off_c, 3, 79, 0
2, 356092, Note_off_c, 3, 78, 0
2, 356096, Note_on_c, 3, 96, 43
2, 356096, Note_on_c, 3, 84, 39
2, 356097, Note_off_c, 3, 90, 0
2, 356097, Note_off_c, 3, 78, 0
2, 356156, Note_off_c, 3, 96, 0
2, 356156, Note_off_c, 3, 84, 0
2, 356160, Note_on_c, 3, 80, 36
2, 356224, Note_on_c, 3, 79, 35
2, 356225, Note_off_c, 3, 80, 0
2, 356288, Note_on_c, 3, 84, 37
2, 356288, Note_on_c, 3, 72, 35
2, 356288, Note_on_c, 3, 72, 34
2, 356289, Note_off_c, 3, 79, 0
2, 356348, Note_off_c, 3, 72, 0
2, 356352, Note_on_c, 3, 96, 48
2, 356352, Note_on_c, 3, 84, 44
2, 356353, Note_off_c, 3, 84, 0
2, 356353, Note_off_c, 3, 72, 0
2, 356412, Note_off_c, 3, 96, 0
2, 356412, Note_off_c, 3, 84, 0
2, 356416, Note_on_c, 3, 78, 34
2, 356480, Note_on_c, 3, 79, 34
2, 356480, Note_on_c, 3, 79, 34
2, 356481, Note_off_c, 3, 78, 0
2, 356540, Note_off_c, 3, 79, 0
2, 356544, Note_on_c, 3, 92, 38
2, 356544, Note_on_c, 3, 80, 30
2, 356545, Note_off_c, 3, 79, 0
2, 356608, Note_on_c, 3, 96, 42
2, 356608, Note_on_c, 3, 84, 44
2, 356609, Note_off_c, 3, 92, 0
2, 356609, Note_off_c, 3, 80, 0
2, 356668, Note_off_c, 3, 96, 0
2, 356668, Note_off_c, 3, 84, 0
2, 356672, Note_on_c, 3, 72, 35
2, 356736, Note_on_c, 3, 79, 37
2, 356737, Note_off_c, 3, 72, 0
2, 356800, Note_on_c, 3, 90, 40
2, 356800, Note_on_c, 3, 78, 38
2, 356801, Note_off_c, 3, 79, 0
2, 356864, Note_on_c, 3, 96, 47
2, 356864, Note_on_c, 3, 84, 36
2, 356864, Note_on_c, 3, 84, 39
2, 356865, Note_off_c, 3, 90, 0
2, 356865, Note_off_c, 3, 78, 0
2, 356924, Note_off_c, 3, 96, 0
2, 356924, Note_off_c, 3, 84, 0
2, 356928, Note_on_c, 3, 80, 31
2, 356929, Note_off_c, 3, 84, 0
2, 356988, Note_off_c, 3, 80, 0
2, 356992, Note_on_c, 3, 79, 32
2, 357056, Note_on_c, 3, 84, 36
2, 357056, Note_on_c, 3, 72, 34
2, 357056, Note_on_c, 3, 72, 23
2, 357057, Note_off_c, 3, 79, 0
2, 357116, Note_off_c, 3, 72, 0
2, 357120, Note_on_c, 3, 96, 45
2, 357120, Note_on_c, 3, 84, 39
2, 357121, Note_off_c, 3, 84, 0
2, 357121, Note_off_c, 3, 72, 0
2, 357180, Note_off_c, 3, 96, 0
2, 357180, Note_off_c, 3, 84, 0
2, 357184, Note_on_c, 3, 78, 34
2, 357248, Note_on_c, 3, 79, 36
2, 357249, Note_off_c, 3, 78, 0
2, 357312, Note_on_c, 3, 92, 34
2, 357312, Note_on_c, 3, 80, 40
2, 357313, Note_off_c, 3, 79, 0
2, 357376, Note_on_c, 3, 96, 37
2, 357376, Note_on_c, 3, 84, 36
2, 357376, Note_on_c, 3, 84, 48
2, 357377, Note_off_c, 3, 92, 0
2, 357377, Note_off_c, 3, 80, 0
2, 357436, Note_off_c, 3, 96, 0
2, 357436, Note_off_c, 3, 84, 0
2, 357440, Note_on_c, 3, 72, 28
2, 357441, Note_off_c, 3, 84, 0
2, 357500, Note_off_c, 3, 72, 0
2, 357504, Note_on_c, 3, 79, 35
2, 357568, Note_on_c, 3, 90, 36
2, 357568, Note_on_c, 3, 78, 35
2, 357568, Note_on_c, 3, 78, 34
2, 357569, Note_off_c, 3, 79, 0
2, 357632, Note_on_c, 3, 96, 43
2, 357632, Note_on_c, 3, 84, 36
2, 357632, Note_on_c, 3, 84, 48
2, 357633, Note_off_c, 3, 90, 0
2, 357633, Note_off_c, 3, 78, 0
2, 357633, Note_off_c, 3, 78, 0
2, 357692, Note_off_c, 3, 96, 0
2, 357692, Note_off_c, 3, 84, 0
2, 357696, Note_on_c, 3, 80, 34
2, 357697, Note_off_c, 3, 84, 0
2, 357760, Note_on_c, 3, 79, 37
2, 357761, Note_off_c, 3, 80, 0
2, 357820, Note_off_c, 3, 79, 0
2, 357824, Note_on_c, 3, 84, 37
2, 357824, Note_on_c, 3, 72, 39
2, 357888, Note_on_c, 3, 96, 46
2, 357888, Note_on_c, 3, 84, 50
2, 357889, Note_off_c, 3, 84, 0
2, 357889, Note_off_c, 3, 72, 0
2, 357948, Note_off_c, 3, 96, 0
2, 357952, Note_on_c, 3, 78, 35
2, 357953, Note_off_c, 3, 84, 0
2, 358016, Note_on_c, 3, 79, 38
2, 358016, Note_on_c, 3, 79, 37
2, 358017, Note_off_c, 3, 78, 0
2, 358080, Note_on_c, 3, 92, 35
2, 358080, Note_on_c, 3, 80, 35
2, 358080, Note_on_c, 3, 80, 44
2, 358081, Note_off_c, 3, 79, 0
2, 358081, Note_off_c, 3, 79, 0
2, 358140, Note_off_c, 3, 80, 0
2, 358144, Note_on_c, 3, 96, 34
2, 358144, Note_on_c, 3, 84, 40
2, 358145, Note_off_c, 3, 92, 0
2, 358145, Note_off_c, 3, 80, 0
2, 358204, Note_off_c, 3, 96, 0
2, 358204, Note_off_c, 3, 84, 0
2, 358208, Note_on_c, 3, 73, 38
2, 358272, Note_on_c, 3, 79, 38
2, 358272, Note_on_c, 3, 79, 44
2, 358273, Note_off_c, 3, 73, 0
2, 358332, Note_off_c, 3, 79, 0
2, 358336, Note_on_c, 3, 90, 34
2, 358336, Note_on_c, 3, 78, 30
2, 358337, Note_off_c, 3, 79, 0
2, 358400, Note_on_c, 3, 96, 39
2, 358400, Note_on_c, 3, 84, 46
2, 358401, Note_off_c, 3, 90, 0
2, 358401, Note_off_c, 3, 78, 0
2, 358460, Note_off_c, 3, 96, 0
2, 358460, Note_off_c, 3, 84, 0
2, 358464, Note_on_c, 3, 80, 32
2, 358528, Note_on_c, 3, 79, 28
2, 358529, Note_off_c, 3, 80, 0
2, 358592, Note_on_c, 3, 85, 36
2, 358592, Note_on_c, 3, 73, 27
2, 358593, Note_off_c, 3, 79, 0
2, 358656, Note_on_c, 3, 96, 47
2, 358656, Note_on_c, 3, 84, 39
2, 358656, Note_on_c, 3, 84, 35
2, 358657, Note_off_c, 3, 85, 0
2, 358657, Note_off_c, 3, 73, 0
2, 358716, Note_off_c, 3, 96, 0
2, 358716, Note_off_c, 3, 84, 0
2, 358720, Note_on_c, 3, 78, 26
2, 358721, Note_off_c, 3, 84, 0
2, 358784, Note_on_c, 3, 79, 42
2, 358785, Note_off_c, 3, 78, 0
2, 358848, Note_on_c, 3, 92, 41
2, 358848, Note_on_c, 3, 80, 42
2, 358849, Note_off_c, 3, 79, 0
2, 358912, Note_on_c, 3, 96, 43
2, 358912, Note_on_c, 3, 84, 52
2, 358913, Note_off_c, 3, 92, 0
2, 358913, Note_off_c, 3, 80, 0
2, 358972, Note_off_c, 3, 96, 0
2, 358972, Note_off_c, 3, 84, 0
2, 358976, Note_on_c, 3, 73, 37
2, 359040, Note_on_c, 3, 79, 44
2, 359041, Note_off_c, 3, 73, 0
2, 359104, Note_on_c, 3, 90, 30
2, 359104, Note_on_c, 3, 78, 38
2, 359104, Note_on_c, 3, 78, 36
2, 359105, Note_off_c, 3, 79, 0
2, 359168, Note_on_c, 3, 96, 33
2, 359168, Note_on_c, 3, 84, 46
2, 359168, Note_on_c, 3, 84, 42
2, 359169, Note_off_c, 3, 90, 0
2, 359169, Note_off_c, 3, 78, 0
2, 359169, Note_off_c, 3, 78, 0
2, 359228, Note_off_c, 3, 96, 0
2, 359228, Note_off_c, 3, 84, 0
2, 359232, Note_on_c, 3, 80, 33
2, 359233, Note_off_c, 3, 84, 0
2, 359296, Note_on_c, 3, 79, 32
2, 359297, Note_off_c, 3, 80, 0
2, 359356, Note_off_c, 3, 79, 0
2, 359360, Note_on_c, 3, 85, 38
2, 359360, Note_on_c, 3, 73, 37
2, 359424, Note_on_c, 3, 96, 48
2, 359424, Note_on_c, 3, 84, 46
2, 359425, Note_off_c, 3, 85, 0
2, 359425, Note_off_c, 3, 73, 0
2, 359484, Note_off_c, 3, 96, 0
2, 359484, Note_off_c, 3, 84, 0
2, 359488, Note_on_c, 3, 78, 36
2, 359552, Note_on_c, 3, 79, 35
2, 359553, Note_off_c, 3, 78, 0
2, 359616, Note_on_c, 3, 92, 31
2, 359616, Note_on_c, 3, 80, 34
2, 359616, Note_on_c, 3, 80, 42
2, 359617, Note_off_c, 3, 79, 0
2, 359680, Note_on_c, 3, 96, 38
2, 359680, Note_on_c, 3, 84, 31
2, 359680, Note_on_c, 3, 84, 48
2, 359681, Note_off_c, 3, 92, 0
2, 359681, Note_off_c, 3, 80, 0
2, 359681, Note_off_c, 3, 80, 0
2, 359740, Note_off_c, 3, 96, 0
2, 359740, Note_off_c, 3, 84, 0
2, 359744, Note_on_c, 3, 73, 29
2, 359745, Note_off_c, 3, 84, 0
2, 359808, Note_on_c, 3, 79, 27
2, 359809, Note_off_c, 3, 73, 0
2, 359868, Note_off_c, 3, 79, 0
2, 359872, Note_on_c, 3, 90, 36
2, 359872, Note_on_c, 3, 78, 37
2, 359936, Note_on_c, 3, 96, 42
2, 359936, Note_on_c, 3, 84, 41
2, 359937, Note_off_c, 3, 90, 0
2, 359937, Note_off_c, 3, 78, 0
2, 360000, Note_on_c, 3, 92, 33
2, 360000, Note_on_c, 3, 80, 36
2, 360001, Note_off_c, 3, 96, 0
2, 360001, Note_off_c, 3, 84, 0
2, 360064, Note_on_c, 3, 100, 45
2, 360064, Note_on_c, 3, 88, 44
2, 360065, Note_off_c, 3, 92, 0
2, 360065, Note_off_c, 3, 80, 0
2, 360124, Note_off_c, 3, 100, 0
2, 360124, Note_off_c, 3, 88, 0
2, 360128, Note_on_c, 3, 73, 34
2, 360192, Note_on_c, 3, 79, 42
2, 360193, Note_off_c, 3, 73, 0
2, 360256, Note_on_c, 3, 75, 32
2, 360257, Note_off_c, 3, 79, 0
2, 360320, Note_on_c, 3, 82, 37
2, 360321, Note_off_c, 3, 75, 0
2, 360384, Note_on_c, 3, 88, 37
2, 360384, Note_on_c, 3, 76, 29
2, 360385, Note_off_c, 3, 82, 0
2, 360444, Note_off_c, 3, 76, 0
2, 360448, Note_on_c, 3, 90, 41
2, 360449, Note_off_c, 3, 88, 0
2, 360508, Note_off_c, 3, 90, 0
2, 360512, Note_on_c, 3, 73, 36
2, 360576, Note_on_c, 3, 79, 40
2, 360577, Note_off_c, 3, 73, 0
2, 360640, Note_on_c, 3, 75, 38
2, 360641, Note_off_c, 3, 79, 0
2, 360704, Note_on_c, 3, 82, 46
2, 360705, Note_off_c, 3, 75, 0
2, 360764, Note_off_c, 3, 82, 0
2, 360768, Note_on_c, 3, 88, 36
2, 360768, Note_on_c, 3, 76, 33
2, 360832, Note_on_c, 3, 100, 45
2, 360832, Note_on_c, 3, 88, 41
2, 360833, Note_off_c, 3, 88, 0
2, 360833, Note_off_c, 3, 76, 0
2, 360892, Note_off_c, 3, 100, 0
2, 360892, Note_off_c, 3, 88, 0
2, 360896, Note_on_c, 3, 73, 36
2, 360960, Note_on_c, 3, 79, 40
2, 360961, Note_off_c, 3, 73, 0
2, 361024, Note_on_c, 3, 75, 32
2, 361025, Note_off_c, 3, 79, 0
2, 361088, Note_on_c, 3, 82, 35
2, 361089, Note_off_c, 3, 75, 0
2, 361148, Note_off_c, 3, 82, 0
2, 361152, Note_on_c, 3, 88, 37
2, 361152, Note_on_c, 3, 76, 34
2, 361216, Note_on_c, 3, 90, 41
2, 361216, Note_on_c, 3, 78, 35
2, 361217, Note_off_c, 3, 88, 0
2, 361217, Note_off_c, 3, 76, 0
2, 361276, Note_off_c, 3, 90, 0
2, 361276, Note_off_c, 3, 78, 0
2, 361280, Note_on_c, 3, 73, 35
2, 361344, Note_on_c, 3, 79, 43
2, 361345, Note_off_c, 3, 73, 0
2, 361408, Note_on_c, 3, 75, 34
2, 361408, Note_on_c, 3, 75, 35
2, 361409, Note_off_c, 3, 79, 0
2, 361472, Note_on_c, 3, 82, 42
2, 361472, Note_on_c, 3, 82, 43
2, 361473, Note_off_c, 3, 75, 0
2, 361473, Note_off_c, 3, 75, 0
2, 361532, Note_off_c, 3, 82, 0
2, 361536, Note_on_c, 3, 88, 34
2, 361536, Note_on_c, 3, 76, 32
2, 361537, Note_off_c, 3, 82, 0
2, 361600, Note_on_c, 3, 100, 38
2, 361600, Note_on_c, 3, 88, 49
2, 361601, Note_off_c, 3, 88, 0
2, 361601, Note_off_c, 3, 76, 0
2, 361660, Note_off_c, 3, 100, 0
2, 361660, Note_off_c, 3, 88, 0
2, 361664, Note_on_c, 3, 73, 36
2, 361728, Note_on_c, 3, 79, 35
2, 361729, Note_off_c, 3, 73, 0
2, 361792, Note_on_c, 3, 75, 39
2, 361793, Note_off_c, 3, 79, 0
2, 361856, Note_on_c, 3, 82, 45
2, 361857, Note_off_c, 3, 75, 0
2, 361916, Note_off_c, 3, 82, 0
2, 361920, Note_on_c, 3, 88, 34
2, 361920, Note_on_c, 3, 76, 35
2, 361984, Note_on_c, 3, 90, 36
2, 361984, Note_on_c, 3, 78, 37
2, 361985, Note_off_c, 3, 88, 0
2, 361985, Note_off_c, 3, 76, 0
2, 362044, Note_off_c, 3, 90, 0
2, 362044, Note_off_c, 3, 78, 0
2, 362048, Note_on_c, 3, 73, 33
2, 362112, Note_on_c, 3, 79, 37
2, 362113, Note_off_c, 3, 73, 0
2, 362172, Note_off_c, 3, 79, 0
2, 362176, Note_on_c, 3, 75, 34
2, 362240, Note_on_c, 3, 82, 37
2, 362241, Note_off_c, 3, 75, 0
2, 362300, Note_off_c, 3, 82, 0
2, 362304, Note_on_c, 3, 88, 33
2, 362304, Note_on_c, 3, 76, 33
2, 362368, Note_on_c, 3, 100, 42
2, 362368, Note_on_c, 3, 88, 46
2, 362369, Note_off_c, 3, 88, 0
2, 362369, Note_off_c, 3, 76, 0
2, 362428, Note_off_c, 3, 100, 0
2, 362428, Note_off_c, 3, 88, 0
2, 362432, Note_on_c, 3, 73, 32
2, 362496, Note_on_c, 3, 79, 38
2, 362497, Note_off_c, 3, 73, 0
2, 362556, Note_off_c, 3, 79, 0
2, 362560, Note_on_c, 3, 75, 31
2, 362624, Note_on_c, 3, 82, 34
2, 362625, Note_off_c, 3, 75, 0
2, 362688, Note_on_c, 3, 88, 36
2, 362688, Note_on_c, 3, 76, 37
2, 362688, Note_on_c, 3, 76, 31
2, 362689, Note_off_c, 3, 82, 0
2, 362748, Note_off_c, 3, 76, 0
2, 362752, Note_on_c, 3, 90, 34
2, 362752, Note_on_c, 3, 78, 39
2, 362753, Note_off_c, 3, 88, 0
2, 362753, Note_off_c, 3, 76, 0
2, 362812, Note_off_c, 3, 90, 0
2, 362812, Note_off_c, 3, 78, 0
2, 362816, Note_on_c, 3, 72, 33
2, 362880, Note_on_c, 3, 79, 43
2, 362881, Note_off_c, 3, 72, 0
2, 362944, Note_on_c, 3, 75, 34
2, 362944, Note_on_c, 3, 75, 40
2, 362945, Note_off_c, 3, 79, 0
2, 363008, Note_on_c, 3, 82, 39
2, 363008, Note_on_c, 3, 82, 46
2, 363009, Note_off_c, 3, 75, 0
2, 363009, Note_off_c, 3, 75, 0
2, 363068, Note_off_c, 3, 82, 0
2, 363072, Note_on_c, 3, 88, 32
2, 363072, Note_on_c, 3, 76, 33
2, 363073, Note_off_c, 3, 82, 0
2, 363136, Note_on_c, 3, 100, 39
2, 363136, Note_on_c, 3, 88, 43
2, 363137, Note_off_c, 3, 88, 0
2, 363137, Note_off_c, 3, 76, 0
2, 363196, Note_off_c, 3, 100, 0
2, 363196, Note_off_c, 3, 88, 0
2, 363200, Note_on_c, 3, 72, 33
2, 363264, Note_on_c, 3, 79, 34
2, 363265, Note_off_c, 3, 72, 0
2, 363328, Note_on_c, 3, 75, 36
2, 363329, Note_off_c, 3, 79, 0
2, 363392, Note_on_c, 3, 82, 40
2, 363393, Note_off_c, 3, 75, 0
2, 363456, Note_on_c, 3, 88, 34
2, 363456, Note_on_c, 3, 76, 33
2, 363457, Note_off_c, 3, 82, 0
2, 363516, Note_off_c, 3, 76, 0
2, 363520, Note_on_c, 3, 90, 39
2, 363521, Note_off_c, 3, 88, 0
2, 363580, Note_off_c, 3, 90, 0
2, 363584, Note_on_c, 3, 72, 35
2, 363648, Note_on_c, 3, 79, 41
2, 363649, Note_off_c, 3, 72, 0
2, 363712, Note_on_c, 3, 75, 35
2, 363713, Note_off_c, 3, 79, 0
2, 363776, Note_on_c, 3, 82, 39
2, 363777, Note_off_c, 3, 75, 0
2, 363836, Note_off_c, 3, 82, 0
2, 363840, Note_on_c, 3, 88, 37
2, 363840, Note_on_c, 3, 76, 31
2, 363904, Note_on_c, 3, 100, 45
2, 363904, Note_on_c, 3, 88, 36
2, 363905, Note_off_c, 3, 88, 0
2, 363905, Note_off_c, 3, 76, 0
2, 363964, Note_off_c, 3, 100, 0
2, 363964, Note_off_c, 3, 88, 0
2, 363968, Note_on_c, 3, 72, 33
2, 364032, Note_on_c, 3, 79, 38
2, 364033, Note_off_c, 3, 72, 0
2, 364096, Note_on_c, 3, 75, 37
2, 364097, Note_off_c, 3, 79, 0
2, 364160, Note_on_c, 3, 82, 42
2, 364161, Note_off_c, 3, 75, 0
2, 364220, Note_off_c, 3, 82, 0
2, 364224, Note_on_c, 3, 88, 36
2, 364224, Note_on_c, 3, 76, 34
2, 364288, Note_on_c, 3, 90, 40
2, 364288, Note_on_c, 3, 78, 34
2, 364288, Note_on_c, 3, 78, 39
2, 364289, Note_off_c, 3, 88, 0
2, 364289, Note_off_c, 3, 76, 0
2, 364348, Note_off_c, 3, 90, 0
2, 364348, Note_off_c, 3, 78, 0
2, 364352, Note_on_c, 3, 72, 33
2, 364353, Note_off_c, 3, 78, 0
2, 364412, Note_off_c, 3, 72, 0
2, 364416, Note_on_c, 3, 79, 37
2, 364480, Note_on_c, 3, 75, 33
2, 364481, Note_off_c, 3, 79, 0
2, 364540, Note_off_c, 3, 75, 0
2, 364544, Note_on_c, 3, 82, 35
2, 364608, Note_on_c, 3, 88, 38
2, 364608, Note_on_c, 3, 76, 41
2, 364608, Note_on_c, 3, 76, 31
2, 364609, Note_off_c, 3, 82, 0
2, 364668, Note_off_c, 3, 76, 0
2, 364672, Note_on_c, 3, 100, 47
2, 364672, Note_on_c, 3, 88, 52
2, 364673, Note_off_c, 3, 88, 0
2, 364673, Note_off_c, 3, 76, 0
2, 364732, Note_off_c, 3, 100, 0
2, 364732, Note_off_c, 3, 88, 0
2, 364736, Note_on_c, 3, 72, 36
2, 364800, Note_on_c, 3, 79, 33
2, 364800, Note_on_c, 3, 79, 40
2, 364801, Note_off_c, 3, 72, 0
2, 364864, Note_off_c, 3, 79, 0
2, 364864, Note_on_c, 3, 75, 39
2, 364865, Note_off_c, 3, 79, 0
2, 364928, Note_on_c, 3, 82, 46
2, 364929, Note_off_c, 3, 75, 0
2, 364988, Note_off_c, 3, 82, 0
2, 364992, Note_on_c, 3, 88, 33
2, 364992, Note_on_c, 3, 76, 34
2, 365056, Note_on_c, 3, 90, 34
2, 365056, Note_on_c, 3, 78, 33
2, 365057, Note_off_c, 3, 88, 0
2, 365057, Note_off_c, 3, 76, 0
2, 365116, Note_off_c, 3, 90, 0
2, 365116, Note_off_c, 3, 78, 0
2, 365120, Note_on_c, 3, 72, 36
2, 365184, Note_on_c, 3, 79, 44
2, 365185, Note_off_c, 3, 72, 0
2, 365248, Note_on_c, 3, 75, 43
2, 365249, Note_off_c, 3, 79, 0
2, 365312, Note_on_c, 3, 94, 36
2, 365312, Note_on_c, 3, 82, 48
2, 365313, Note_off_c, 3, 75, 0
2, 365372, Note_off_c, 3, 82, 0
2, 365376, Note_on_c, 3, 91, 34
2, 365377, Note_off_c, 3, 94, 0
2, 365440, Note_on_c, 3, 93, 41
2, 365441, Note_off_c, 3, 91, 0
2, 365500, Note_off_c, 3, 93, 0
2, 365504, Note_on_c, 3, 73, 37
2, 365568, Note_on_c, 3, 81, 46
2, 365569, Note_off_c, 3, 73, 0
2, 365628, Note_off_c, 3, 81, 0
2, 365632, Note_on_c, 3, 78, 38
2, 365696, Note_on_c, 3, 97, 36
2, 365696, Note_on_c, 3, 85, 40
2, 365697, Note_off_c, 3, 78, 0
2, 365760, Note_on_c, 3, 91, 28
2, 365760, Note_on_c, 3, 79, 34
2, 365761, Note_off_c, 3, 97, 0
2, 365761, Note_off_c, 3, 85, 0
2, 365820, Note_off_c, 3, 91, 0
2, 365824, Note_on_c, 3, 91, 47
2, 365825, Note_off_c, 3, 79, 0
2, 365884, Note_off_c, 3, 91, 0
2, 365888, Note_on_c, 3, 73, 35
2, 365952, Note_on_c, 3, 81, 43
2, 365953, Note_off_c, 3, 73, 0
2, 366016, Note_on_c, 3, 90, 39
2, 366016, Note_on_c, 3, 78, 30
2, 366017, Note_off_c, 3, 81, 0
2, 366080, Note_on_c, 3, 97, 52
2, 366080, Note_on_c, 3, 85, 39
2, 366081, Note_off_c, 3, 90, 0
2, 366081, Note_off_c, 3, 78, 0
2, 366140, Note_off_c, 3, 85, 0
2, 366144, Note_on_c, 3, 91, 33
2, 366145, Note_off_c, 3, 97, 0
2, 366208, Note_on_c, 3, 93, 34
2, 366209, Note_off_c, 3, 91, 0
2, 366268, Note_off_c, 3, 93, 0
2, 366272, Note_on_c, 3, 73, 33
2, 366336, Note_on_c, 3, 81, 39
2, 366337, Note_off_c, 3, 73, 0
2, 366400, Note_on_c, 3, 78, 36
2, 366401, Note_off_c, 3, 81, 0
2, 366464, Note_on_c, 3, 97, 40
2, 366464, Note_on_c, 3, 85, 43
2, 366465, Note_off_c, 3, 78, 0
2, 366524, Note_off_c, 3, 85, 0
2, 366528, Note_on_c, 3, 91, 35
2, 366528, Note_on_c, 3, 79, 35
2, 366529, Note_off_c, 3, 97, 0
2, 366588, Note_off_c, 3, 91, 0
2, 366592, Note_on_c, 3, 91, 42
2, 366593, Note_off_c, 3, 79, 0
2, 366652, Note_off_c, 3, 91, 0
2, 366656, Note_on_c, 3, 73, 37
2, 366720, Note_on_c, 3, 81, 37
2, 366720, Note_on_c, 3, 81, 43
2, 366721, Note_off_c, 3, 73, 0
2, 366784, Note_on_c, 3, 78, 29
2, 366784, Note_on_c, 3, 78, 38
2, 366785, Note_off_c, 3, 81, 0
2, 366785, Note_off_c, 3, 81, 0
2, 366848, Note_on_c, 3, 98, 39
2, 366848, Note_on_c, 3, 85, 41
2, 366848, Note_on_c, 3, 85, 45
2, 366849, Note_off_c, 3, 78, 0
2, 366849, Note_off_c, 3, 78, 0
2, 366908, Note_off_c, 3, 85, 0
2, 366912, Note_on_c, 3, 91, 35
2, 366912, Note_on_c, 3, 79, 33
2, 366913, Note_off_c, 3, 98, 0
2, 366913, Note_off_c, 3, 85, 0
2, 366972, Note_off_c, 3, 79, 0
2, 366976, Note_on_c, 3, 93, 39
2, 366977, Note_off_c, 3, 91, 0
2, 367036, Note_off_c, 3, 93, 0
2, 367040, Note_on_c, 3, 73, 32
2, 367104, Note_on_c, 3, 81, 43
2, 367105, Note_off_c, 3, 73, 0
2, 367168, Note_on_c, 3, 78, 40
2, 367169, Note_off_c, 3, 81, 0
2, 367232, Note_on_c, 3, 97, 36
2, 367232, Note_on_c, 3, 85, 46
2, 367233, Note_off_c, 3, 78, 0
2, 367292, Note_off_c, 3, 85, 0
2, 367296, Note_on_c, 3, 91, 31
2, 367296, Note_on_c, 3, 79, 38
2, 367297, Note_off_c, 3, 97, 0
2, 367356, Note_off_c, 3, 91, 0
2, 367360, Note_on_c, 3, 91, 53
2, 367361, Note_off_c, 3, 79, 0
2, 367420, Note_off_c, 3, 91, 0
2, 367424, Note_on_c, 3, 73, 39
2, 367488, Note_on_c, 3, 81, 33
2, 367488, Note_on_c, 3, 81, 45
2, 367489, Note_off_c, 3, 73, 0
2, 367552, Note_off_c, 3, 81, 0
2, 367552, Note_on_c, 3, 90, 35
2, 367552, Note_on_c, 3, 78, 40
2, 367553, Note_off_c, 3, 81, 0
2, 367616, Note_on_c, 3, 97, 42
2, 367616, Note_on_c, 3, 85, 35
2, 367616, Note_on_c, 3, 85, 47
2, 367617, Note_off_c, 3, 90, 0
2, 367617, Note_off_c, 3, 78, 0
2, 367676, Note_off_c, 3, 97, 0
2, 367676, Note_off_c, 3, 85, 0
2, 367680, Note_on_c, 3, 79, 28
2, 367681, Note_off_c, 3, 85, 0
2, 367740, Note_off_c, 3, 79, 0
2, 367744, Note_on_c, 3, 93, 35
2, 367808, Note_on_c, 3, 85, 28
2, 367808, Note_on_c, 3, 73, 37
2, 367809, Note_off_c, 3, 93, 0
2, 367868, Note_off_c, 3, 85, 0
2, 367872, Note_on_c, 3, 81, 46
2, 367873, Note_off_c, 3, 73, 0
2, 367936, Note_on_c, 3, 78, 39
2, 367937, Note_off_c, 3, 81, 0
2, 368000, Note_on_c, 3, 97, 38
2, 368000, Note_on_c, 3, 85, 47
2, 368001, Note_off_c, 3, 78, 0
2, 368060, Note_off_c, 3, 85, 0
2, 368064, Note_on_c, 3, 91, 33
2, 368064, Note_on_c, 3, 77, 39
2, 368065, Note_off_c, 3, 97, 0
2, 368124, Note_off_c, 3, 91, 0
2, 368128, Note_on_c, 3, 91, 45
2, 368129, Note_off_c, 3, 77, 0
2, 368188, Note_off_c, 3, 91, 0
2, 368192, Note_on_c, 3, 73, 34
2, 368256, Note_on_c, 3, 93, 35
2, 368256, Note_on_c, 3, 81, 39
2, 368256, Note_on_c, 3, 81, 39
2, 368257, Note_off_c, 3, 73, 0
2, 368320, Note_off_c, 3, 81, 0
2, 368320, Note_on_c, 3, 90, 30
2, 368320, Note_on_c, 3, 78, 40
2, 368321, Note_off_c, 3, 93, 0
2, 368321, Note_off_c, 3, 81, 0
2, 368380, Note_off_c, 3, 90, 0
2, 368380, Note_off_c, 3, 78, 0
2, 368725, Note_on_c, 3, 92, 56
2, 368768, Note_off_c, 3, 92, 0
2, 368768, Note_on_c, 3, 88, 53
2, 368810, Note_off_c, 3, 88, 0
2, 368810, Note_on_c, 3, 86, 59
2, 368853, Note_off_c, 3, 86, 0
2, 368853, Note_on_c, 3, 84, 56
2, 368896, Note_off_c, 3, 84, 0
2, 368896, Note_on_c, 3, 82, 55
2, 368896, Note_on_c, 3, 70, 51
2, 368896, Note_on_c, 3, 67, 56
2, 368938, Note_off_c, 3, 82, 0
2, 368938, Note_on_c, 3, 80, 58
2, 368947, Note_on_c, 3, 72, 54
2, 368947, Note_on_c, 3, 68, 55
2, 368948, Note_off_c, 3, 70, 0
2, 368948, Note_off_c, 3, 67, 0
2, 368981, Note_off_c, 3, 80, 0
2, 368981, Note_on_c, 3, 76, 56
2, 368998, Note_on_c, 3, 74, 64
2, 368998, Note_on_c, 3, 70, 65
2, 368999, Note_off_c, 3, 72, 0
2, 368999, Note_off_c, 3, 68, 0
2, 369021, Note_off_c, 3, 76, 0
2, 369049, Note_on_c, 3, 75, 66
2, 369049, Note_on_c, 3, 72, 70
2, 369050, Note_off_c, 3, 74, 0
2, 369050, Note_off_c, 3, 70, 0
2, 369100, Note_on_c, 3, 76, 64
2, 369100, Note_on_c, 3, 74, 66
2, 369101, Note_off_c, 3, 75, 0
2, 369101, Note_off_c, 3, 72, 0
2, 369152, Note_on_c, 3, 79, 71
2, 369152, Note_on_c, 3, 76, 72
2, 369153, Note_off_c, 3, 76, 0
2, 369153, Note_off_c, 3, 74, 0
2, 369203, Note_on_c, 3, 81, 65
2, 369203, Note_on_c, 3, 78, 69
2, 369204, Note_off_c, 3, 79, 0
2, 369204, Note_off_c, 3, 76, 0
2, 369254, Note_on_c, 3, 84, 71
2, 369254, Note_on_c, 3, 81, 78
2, 369255, Note_off_c, 3, 81, 0
2, 369255, Note_off_c, 3, 78, 0
2, 369302, Note_off_c, 3, 84, 0
2, 369302, Note_off_c, 3, 81, 0
2, 369408, Note_on_c, 3, 89, 55
2, 369450, Note_off_c, 3, 89, 0
2, 369450, Note_on_c, 3, 88, 58
2, 369493, Note_off_c, 3, 88, 0
2, 369493, Note_on_c, 3, 82, 47
2, 369536, Note_off_c, 3, 82, 0
2, 369536, Note_on_c, 3, 80, 56
2, 369578, Note_off_c, 3, 80, 0
2, 369578, Note_on_c, 3, 79, 53
2, 369621, Note_off_c, 3, 79, 0
2, 369621, Note_on_c, 3, 77, 58
2, 369664, Note_off_c, 3, 77, 0
2, 369664, Note_on_c, 3, 76, 58
2, 369703, Note_off_c, 3, 76, 0
2, 369749, Note_on_c, 3, 62, 56
2, 369792, Note_off_c, 3, 62, 0
2, 369792, Note_on_c, 3, 96, 55
2, 369792, Note_on_c, 3, 64, 67
2, 369824, Note_off_c, 3, 96, 0
2, 369824, Note_on_c, 3, 92, 50
2, 369834, Note_off_c, 3, 64, 0
2, 369834, Note_on_c, 3, 65, 62
2, 369856, Note_off_c, 3, 92, 0
2, 369856, Note_on_c, 3, 91, 57
2, 369877, Note_off_c, 3, 65, 0
2, 369877, Note_on_c, 3, 67, 67
2, 369888, Note_off_c, 3, 91, 0
2, 369888, Note_on_c, 3, 88, 54
2, 369920, Note_off_c, 3, 88, 0
2, 369920, Note_off_c, 3, 67, 0
2, 369920, Note_on_c, 3, 86, 61
2, 369920, Note_on_c, 3, 68, 66
2, 369952, Note_off_c, 3, 86, 0
2, 369952, Note_on_c, 3, 84, 53
2, 369962, Note_off_c, 3, 68, 0
2, 369962, Note_on_c, 3, 70, 67
2, 369984, Note_off_c, 3, 84, 0
2, 369984, Note_on_c, 3, 82, 59
2, 370005, Note_off_c, 3, 70, 0
2, 370005, Note_on_c, 3, 77, 74
2, 370016, Note_off_c, 3, 82, 0
2, 370016, Note_on_c, 3, 80, 58
2, 370045, Note_off_c, 3, 77, 0
2, 370046, Note_off_c, 3, 80, 0
2, 370048, Note_on_c, 3, 96, 78
2, 370099, Note_on_c, 3, 92, 73
2, 370100, Note_off_c, 3, 96, 0
2, 370150, Note_on_c, 3, 91, 60
2, 370151, Note_off_c, 3, 92, 0
2, 370176, Note_on_c, 3, 84, 53
2, 370201, Note_on_c, 3, 90, 58
2, 370202, Note_off_c, 3, 91, 0
2, 370227, Note_on_c, 3, 80, 49
2, 370228, Note_off_c, 3, 84, 0
2, 370252, Note_on_c, 3, 86, 56
2, 370253, Note_off_c, 3, 90, 0
2, 370278, Note_on_c, 3, 79, 56
2, 370279, Note_off_c, 3, 80, 0
2, 370301, Note_off_c, 3, 86, 0
2, 370329, Note_on_c, 3, 78, 52
2, 370330, Note_off_c, 3, 79, 0
2, 370380, Note_on_c, 3, 74, 54
2, 370381, Note_off_c, 3, 78, 0
2, 370429, Note_off_c, 3, 74, 0
2, 370944, Note_on_c, 3, 88, 56
2, 370986, Note_on_c, 3, 88, 53
2, 370995, Note_on_c, 3, 90, 60
2, 370996, Note_off_c, 3, 88, 0
2, 371029, Note_off_c, 3, 88, 0
2, 371029, Note_on_c, 3, 84, 54
2, 371046, Note_on_c, 3, 94, 69
2, 371047, Note_off_c, 3, 90, 0
2, 371072, Note_off_c, 3, 84, 0
2, 371072, Note_on_c, 3, 82, 54
2, 371072, Note_on_c, 3, 88, 52
2, 371097, Note_on_c, 3, 96, 77
2, 371098, Note_off_c, 3, 94, 0
2, 371114, Note_off_c, 3, 82, 0
2, 371114, Note_off_c, 3, 88, 0
2, 371114, Note_on_c, 3, 79, 54
2, 371114, Note_on_c, 3, 84, 51
2, 371145, Note_off_c, 3, 96, 0
2, 371157, Note_off_c, 3, 79, 0
2, 371157, Note_off_c, 3, 84, 0
2, 371157, Note_on_c, 3, 78, 52
2, 371157, Note_on_c, 3, 82, 59
2, 371200, Note_off_c, 3, 78, 0
2, 371200, Note_off_c, 3, 82, 0
2, 371200, Note_on_c, 3, 76, 59
2, 371200, Note_on_c, 3, 79, 56
2, 371242, Note_off_c, 3, 76, 0
2, 371242, Note_off_c, 3, 79, 0
2, 371242, Note_on_c, 3, 72, 51
2, 371242, Note_on_c, 3, 78, 55
2, 371285, Note_off_c, 3, 72, 0
2, 371285, Note_off_c, 3, 78, 0
2, 371285, Note_on_c, 3, 68, 50
2, 371285, Note_on_c, 3, 76, 55
2, 371328, Note_off_c, 3, 68, 0
2, 371328, Note_off_c, 3, 76, 0
2, 371328, Note_on_c, 3, 81, 51
2, 371328, Note_on_c, 3, 67, 56
2, 371328, Note_on_c, 3, 72, 52
2, 371360, Note_off_c, 3, 81, 0
2, 371360, Note_on_c, 3, 82, 63
2, 371367, Note_off_c, 3, 67, 0
2, 371370, Note_off_c, 3, 72, 0
2, 371370, Note_on_c, 3, 68, 52
2, 371392, Note_off_c, 3, 82, 0
2, 371392, Note_on_c, 3, 84, 66
2, 371413, Note_off_c, 3, 68, 0
2, 371413, Note_on_c, 3, 67, 59
2, 371424, Note_off_c, 3, 84, 0
2, 371424, Note_on_c, 3, 85, 65
2, 371453, Note_off_c, 3, 67, 0
2, 371456, Note_off_c, 3, 85, 0
2, 371456, Note_on_c, 3, 87, 63
2, 371488, Note_off_c, 3, 87, 0
2, 371488, Note_on_c, 3, 92, 67
2, 371520, Note_off_c, 3, 92, 0
2, 371520, Note_on_c, 3, 93, 65
2, 371550, Note_off_c, 3, 93, 0
2, 371968, Note_on_c, 3, 68, 56
2, 372019, Note_on_c, 3, 72, 61
2, 372020, Note_off_c, 3, 68, 0
2, 372070, Note_on_c, 3, 73, 64
2, 372071, Note_off_c, 3, 72, 0
2, 372121, Note_on_c, 3, 75, 71
2, 372122, Note_off_c, 3, 73, 0
2, 372172, Note_on_c, 3, 81, 65
2, 372173, Note_off_c, 3, 75, 0
2, 372224, Note_on_c, 3, 87, 80
2, 372224, Note_on_c, 3, 68, 56
2, 372225, Note_off_c, 3, 81, 0
2, 372272, Note_off_c, 3, 87, 0
2, 372275, Note_off_c, 3, 68, 0
2, 372275, Note_on_c, 3, 68, 60
2, 372326, Note_on_c, 3, 70, 65
2, 372327, Note_off_c, 3, 68, 0
2, 372377, Note_on_c, 3, 80, 77
2, 372378, Note_off_c, 3, 70, 0
2, 372394, Note_on_c, 3, 97, 54
2, 372428, Note_on_c, 3, 81, 83
2, 372429, Note_off_c, 3, 80, 0
2, 372437, Note_off_c, 3, 97, 0
2, 372437, Note_on_c, 3, 96, 52
2, 372480, Note_off_c, 3, 96, 0
2, 372480, Note_on_c, 3, 93, 54
2, 372480, Note_on_c, 3, 88, 67
2, 372481, Note_off_c, 3, 81, 0
2, 372522, Note_off_c, 3, 93, 0
2, 372522, Note_on_c, 3, 92, 57
2, 372528, Note_off_c, 3, 88, 0
2, 372565, Note_off_c, 3, 92, 0
2, 372565, Note_on_c, 3, 88, 57
2, 372608, Note_off_c, 3, 88, 0
2, 372608, Note_on_c, 3, 87, 57
2, 372650, Note_off_c, 3, 87, 0
2, 372650, Note_on_c, 3, 81, 49
2, 372690, Note_off_c, 3, 81, 0
2, 372736, Note_on_c, 3, 66, 58
2, 372787, Note_on_c, 3, 68, 60
2, 372788, Note_off_c, 3, 66, 0
2, 372838, Note_on_c, 3, 69, 64
2, 372839, Note_off_c, 3, 68, 0
2, 372889, Note_on_c, 3, 73, 72
2, 372890, Note_off_c, 3, 69, 0
2, 372940, Note_on_c, 3, 75, 64
2, 372941, Note_off_c, 3, 73, 0
2, 372992, Note_on_c, 3, 76, 68
2, 372993, Note_off_c, 3, 75, 0
2, 373043, Note_on_c, 3, 80, 67
2, 373044, Note_off_c, 3, 76, 0
2, 373094, Note_on_c, 3, 75, 64
2, 373094, Note_on_c, 3, 88, 84
2, 373095, Note_off_c, 3, 80, 0
2, 373142, Note_off_c, 3, 88, 0
2, 373145, Note_on_c, 3, 78, 70
2, 373146, Note_off_c, 3, 75, 0
2, 373196, Note_on_c, 3, 80, 70
2, 373197, Note_off_c, 3, 78, 0
2, 373248, Note_on_c, 3, 81, 74
2, 373249, Note_off_c, 3, 80, 0
2, 373299, Note_on_c, 3, 85, 70
2, 373300, Note_off_c, 3, 81, 0
2, 373350, Note_on_c, 3, 87, 76
2, 373351, Note_off_c, 3, 85, 0
2, 373401, Note_on_c, 3, 92, 71
2, 373402, Note_off_c, 3, 87, 0
2, 373452, Note_on_c, 3, 93, 75
2, 373453, Note_off_c, 3, 92, 0
2, 373501, Note_off_c, 3, 93, 0
2, 373504, Note_on_c, 3, 63, 53
2, 373555, Note_on_c, 3, 66, 57
2, 373556, Note_off_c, 3, 63, 0
2, 373606, Note_on_c, 3, 68, 64
2, 373607, Note_off_c, 3, 66, 0
2, 373632, Note_on_c, 3, 87, 56
2, 373657, Note_on_c, 3, 73, 72
2, 373658, Note_off_c, 3, 68, 0
2, 373674, Note_off_c, 3, 87, 0
2, 373674, Note_on_c, 3, 85, 55
2, 373708, Note_on_c, 3, 75, 70
2, 373709, Note_off_c, 3, 73, 0
2, 373717, Note_off_c, 3, 85, 0
2, 373717, Note_on_c, 3, 83, 55
2, 373760, Note_off_c, 3, 83, 0
2, 373760, Note_on_c, 3, 80, 53
2, 373760, Note_on_c, 3, 81, 84
2, 373761, Note_off_c, 3, 75, 0
2, 373802, Note_off_c, 3, 80, 0
2, 373802, Note_on_c, 3, 75, 54
2, 373808, Note_off_c, 3, 81, 0
2, 373845, Note_off_c, 3, 75, 0
2, 373845, Note_on_c, 3, 73, 52
2, 373885, Note_off_c, 3, 73, 0
2, 374016, Note_on_c, 3, 90, 56
2, 374067, Note_on_c, 3, 92, 62
2, 374068, Note_off_c, 3, 90, 0
2, 374101, Note_on_c, 3, 88, 59
2, 374118, Note_on_c, 3, 93, 67
2, 374119, Note_off_c, 3, 92, 0
2, 374144, Note_off_c, 3, 88, 0
2, 374144, Note_on_c, 3, 87, 55
2, 374169, Note_on_c, 3, 97, 75
2, 374170, Note_off_c, 3, 93, 0
2, 374186, Note_off_c, 3, 87, 0
2, 374186, Note_on_c, 3, 85, 54
2, 374220, Note_on_c, 3, 99, 67
2, 374221, Note_off_c, 3, 97, 0
2, 374229, Note_off_c, 3, 85, 0
2, 374229, Note_on_c, 3, 83, 56
2, 374269, Note_off_c, 3, 99, 0
2, 374272, Note_off_c, 3, 83, 0
2, 374272, Note_on_c, 3, 81, 57
2, 374314, Note_off_c, 3, 81, 0
2, 374314, Note_on_c, 3, 78, 58
2, 374357, Note_off_c, 3, 78, 0
2, 374357, Note_on_c, 3, 76, 52
2, 374397, Note_off_c, 3, 76, 0
2, 374784, Note_on_c, 3, 85, 57
2, 374835, Note_on_c, 3, 84, 56
2, 374836, Note_off_c, 3, 85, 0
2, 374848, Note_on_c, 3, 84, 53
2, 374886, Note_on_c, 3, 81, 54
2, 374887, Note_off_c, 3, 84, 0
2, 374912, Note_on_c, 3, 85, 55
2, 374913, Note_off_c, 3, 84, 0
2, 374937, Note_on_c, 3, 77, 46
2, 374938, Note_off_c, 3, 81, 0
2, 374976, Note_on_c, 3, 88, 67
2, 374977, Note_off_c, 3, 85, 0
2, 374988, Note_on_c, 3, 76, 60
2, 374989, Note_off_c, 3, 77, 0
2, 375037, Note_off_c, 3, 76, 0
2, 375040, Note_on_c, 3, 93, 80
2, 375040, Note_on_c, 3, 64, 55
2, 375041, Note_off_c, 3, 88, 0
2, 375082, Note_off_c, 3, 64, 0
2, 375082, Note_on_c, 3, 67, 62
2, 375104, Note_on_c, 3, 96, 69
2, 375105, Note_off_c, 3, 93, 0
2, 375125, Note_off_c, 3, 67, 0
2, 375125, Note_on_c, 3, 68, 66
2, 375168, Note_off_c, 3, 68, 0
2, 375168, Note_on_c, 3, 101, 80
2, 375168, Note_on_c, 3, 69, 59
2, 375169, Note_off_c, 3, 96, 0
2, 375210, Note_off_c, 3, 69, 0
2, 375210, Note_on_c, 3, 72, 70
2, 375232, Note_on_c, 3, 97, 56
2, 375233, Note_off_c, 3, 101, 0
2, 375253, Note_off_c, 3, 72, 0
2, 375253, Note_on_c, 3, 73, 66
2, 375292, Note_off_c, 3, 97, 0
2, 375296, Note_off_c, 3, 73, 0
2, 375296, Note_on_c, 3, 76, 55
2, 375296, Note_on_c, 3, 76, 64
2, 375338, Note_off_c, 3, 76, 0
2, 375338, Note_on_c, 3, 77, 65
2, 375356, Note_off_c, 3, 76, 0
2, 375381, Note_off_c, 3, 77, 0
2, 375381, Note_on_c, 3, 79, 64
2, 375424, Note_off_c, 3, 79, 0
2, 375424, Note_on_c, 3, 81, 65
2, 375466, Note_off_c, 3, 81, 0
2, 375466, Note_on_c, 3, 84, 63
2, 375509, Note_off_c, 3, 84, 0
2, 375509, Note_on_c, 3, 85, 67
2, 375549, Note_off_c, 3, 85, 0
2, 375552, Note_on_c, 3, 76, 52
2, 375594, Note_off_c, 3, 76, 0
2, 375594, Note_on_c, 3, 77, 65
2, 375637, Note_off_c, 3, 77, 0
2, 375637, Note_on_c, 3, 81, 71
2, 375654, Note_on_c, 3, 64, 59
2, 375680, Note_off_c, 3, 81, 0
2, 375680, Note_on_c, 3, 84, 68
2, 375705, Note_on_c, 3, 65, 63
2, 375706, Note_off_c, 3, 64, 0
2, 375722, Note_off_c, 3, 84, 0
2, 375722, Note_on_c, 3, 85, 66
2, 375756, Note_on_c, 3, 69, 65
2, 375757, Note_off_c, 3, 65, 0
2, 375765, Note_off_c, 3, 85, 0
2, 375765, Note_on_c, 3, 88, 70
2, 375808, Note_off_c, 3, 88, 0
2, 375808, Note_on_c, 3, 89, 62
2, 375808, Note_on_c, 3, 72, 75
2, 375809, Note_off_c, 3, 69, 0
2, 375850, Note_off_c, 3, 89, 0
2, 375850, Note_on_c, 3, 93, 71
2, 375859, Note_on_c, 3, 73, 63
2, 375860, Note_off_c, 3, 72, 0
2, 375893, Note_off_c, 3, 93, 0
2, 375893, Note_on_c, 3, 91, 59
2, 375910, Note_on_c, 3, 76, 74
2, 375911, Note_off_c, 3, 73, 0
2, 375936, Note_off_c, 3, 91, 0
2, 375936, Note_on_c, 3, 93, 64
2, 375936, Note_on_c, 3, 72, 54
2, 375961, Note_on_c, 3, 77, 65
2, 375962, Note_off_c, 3, 76, 0
2, 375978, Note_off_c, 3, 93, 0
2, 375978, Note_off_c, 3, 72, 0
2, 375978, Note_on_c, 3, 96, 67
2, 375978, Note_on_c, 3, 76, 67
2, 376012, Note_on_c, 3, 79, 68
2, 376013, Note_off_c, 3, 77, 0
2, 376021, Note_off_c, 3, 96, 0
2, 376021, Note_off_c, 3, 76, 0
2, 376021, Note_on_c, 3, 97, 68
2, 376021, Note_on_c, 3, 77, 66
2, 376061, Note_off_c, 3, 97, 0
2, 376064, Note_off_c, 3, 77, 0
2, 376064, Note_on_c, 3, 79, 60
2, 376064, Note_on_c, 3, 81, 66
2, 376065, Note_off_c, 3, 79, 0
2, 376115, Note_on_c, 3, 80, 66
2, 376115, Note_on_c, 3, 84, 74
2, 376116, Note_off_c, 3, 79, 0
2, 376116, Note_off_c, 3, 81, 0
2, 376166, Note_on_c, 3, 81, 64
2, 376166, Note_on_c, 3, 85, 69
2, 376167, Note_off_c, 3, 80, 0
2, 376167, Note_off_c, 3, 84, 0
2, 376192, Note_on_c, 3, 96, 54
2, 376214, Note_off_c, 3, 85, 0
2, 376217, Note_on_c, 3, 84, 69
2, 376218, Note_off_c, 3, 81, 0
2, 376256, Note_on_c, 3, 97, 55
2, 376257, Note_off_c, 3, 96, 0
2, 376268, Note_on_c, 3, 85, 66
2, 376269, Note_off_c, 3, 84, 0
2, 376317, Note_off_c, 3, 85, 0
2, 376320, Note_on_c, 3, 101, 67
2, 376321, Note_off_c, 3, 97, 0
2, 376380, Note_off_c, 3, 101, 0
2, 376832, Note_on_c, 3, 96, 55
2, 376883, Note_on_c, 3, 93, 48
2, 376884, Note_off_c, 3, 96, 0
2, 376917, Note_on_c, 3, 85, 57
2, 376934, Note_on_c, 3, 91, 54
2, 376935, Note_off_c, 3, 93, 0
2, 376960, Note_off_c, 3, 85, 0
2, 376960, Note_on_c, 3, 84, 55
2, 376985, Note_on_c, 3, 89, 49
2, 376986, Note_off_c, 3, 91, 0
2, 377002, Note_off_c, 3, 84, 0
2, 377002, Note_on_c, 3, 82, 58
2, 377036, Note_on_c, 3, 88, 62
2, 377037, Note_off_c, 3, 89, 0
2, 377045, Note_off_c, 3, 82, 0
2, 377045, Note_on_c, 3, 81, 54
2, 377088, Note_off_c, 3, 81, 0
2, 377088, Note_on_c, 3, 91, 64
2, 377088, Note_on_c, 3, 76, 52
2, 377088, Note_on_c, 3, 84, 52
2, 377089, Note_off_c, 3, 88, 0
2, 377130, Note_off_c, 3, 76, 0
2, 377130, Note_off_c, 3, 84, 0
2, 377130, Note_on_c, 3, 77, 59
2, 377130, Note_on_c, 3, 81, 52
2, 377139, Note_on_c, 3, 85, 51
2, 377139, Note_on_c, 3, 88, 51
2, 377140, Note_off_c, 3, 91, 0
2, 377173, Note_off_c, 3, 77, 0
2, 377173, Note_off_c, 3, 81, 0
2, 377173, Note_on_c, 3, 73, 51
2, 377173, Note_on_c, 3, 79, 57
2, 377190, Note_on_c, 3, 84, 53
2, 377190, Note_on_c, 3, 91, 53
2, 377191, Note_off_c, 3, 85, 0
2, 377191, Note_off_c, 3, 88, 0
2, 377216, Note_off_c, 3, 73, 0
2, 377216, Note_off_c, 3, 79, 0
2, 377216, Note_on_c, 3, 72, 58
2, 377216, Note_on_c, 3, 77, 62
2, 377241, Note_on_c, 3, 93, 68
2, 377242, Note_off_c, 3, 84, 0
2, 377242, Note_off_c, 3, 91, 0
2, 377258, Note_off_c, 3, 72, 0
2, 377258, Note_off_c, 3, 77, 0
2, 377258, Note_on_c, 3, 70, 55
2, 377258, Note_on_c, 3, 73, 55
2, 377292, Note_on_c, 3, 94, 72
2, 377293, Note_off_c, 3, 93, 0
2, 377301, Note_off_c, 3, 70, 0
2, 377301, Note_off_c, 3, 73, 0
2, 377301, Note_on_c, 3, 69, 58
2, 377301, Note_on_c, 3, 72, 56
2, 377344, Note_off_c, 3, 69, 0
2, 377344, Note_off_c, 3, 72, 0
2, 377344, Note_on_c, 3, 96, 63
2, 377344, Note_on_c, 3, 65, 53
2, 377344, Note_on_c, 3, 77, 63
2, 377345, Note_off_c, 3, 94, 0
2, 377383, Note_off_c, 3, 65, 0
2, 377386, Note_off_c, 3, 96, 0
2, 377386, Note_off_c, 3, 77, 0
2, 377386, Note_on_c, 3, 89, 43
2, 377386, Note_on_c, 3, 76, 59
2, 377429, Note_off_c, 3, 89, 0
2, 377429, Note_off_c, 3, 76, 0
2, 377429, Note_on_c, 3, 99, 73
2, 377429, Note_on_c, 3, 73, 59
2, 377472, Note_off_c, 3, 99, 0
2, 377472, Note_off_c, 3, 73, 0
2, 377472, Note_on_c, 3, 100, 69
2, 377472, Note_on_c, 3, 72, 54
2, 377514, Note_off_c, 3, 72, 0
2, 377514, Note_on_c, 3, 69, 56
2, 377532, Note_off_c, 3, 100, 0
2, 377554, Note_off_c, 3, 69, 0
2, 377600, Note_on_c, 3, 76, 54
2, 377642, Note_off_c, 3, 76, 0
2, 377642, Note_on_c, 3, 77, 64
2, 377685, Note_off_c, 3, 77, 0
2, 377685, Note_on_c, 3, 79, 62
2, 377728, Note_off_c, 3, 79, 0
2, 377728, Note_on_c, 3, 81, 64
2, 377770, Note_off_c, 3, 81, 0
2, 377770, Note_on_c, 3, 85, 68
2, 377813, Note_off_c, 3, 85, 0
2, 377813, Note_on_c, 3, 91, 74
2, 377856, Note_off_c, 3, 91, 0
2, 377856, Note_on_c, 3, 88, 57
2, 377898, Note_off_c, 3, 88, 0
2, 377898, Note_on_c, 3, 89, 64
2, 377941, Note_off_c, 3, 89, 0
2, 377941, Note_on_c, 3, 91, 65
2, 377984, Note_off_c, 3, 91, 0
2, 377984, Note_on_c, 3, 93, 69
2, 378026, Note_off_c, 3, 93, 0
2, 378026, Note_on_c, 3, 96, 69
2, 378069, Note_off_c, 3, 96, 0
2, 378069, Note_on_c, 3, 91, 57
2, 378109, Note_off_c, 3, 91, 0
2, 383232, Note_on_c, 3, 75, 72
2, 383232, Note_on_c, 3, 79, 72
2, 383232, Note_on_c, 3, 82, 72
2, 383232, Note_on_c, 3, 87, 72
2, 383232, Note_on_c, 3, 94, 72
2, 383296, Note_off_c, 3, 75, 0
2, 383296, Note_off_c, 3, 79, 0
2, 383296, Note_off_c, 3, 82, 0
2, 383296, Note_off_c, 3, 87, 0
2, 383296, Note_off_c, 3, 94, 0
2, 383360, Note_on_c, 3, 75, 81
2, 383360, Note_on_c, 3, 79, 81
2, 383360, Note_on_c, 3, 82, 81
2, 383360, Note_on_c, 3, 87, 81
2, 383360, Note_on_c, 3, 94, 81
2, 383424, Note_off_c, 3, 75, 0
2, 383424, Note_off_c, 3, 79, 0
2, 383424, Note_off_c, 3, 82, 0
2, 383424, Note_off_c, 3, 87, 0
2, 383424, Note_off_c, 3, 94, 0
2, 383488, Note_on_c, 3, 75, 83
2, 383488, Note_on_c, 3, 79, 83
2, 383488, Note_on_c, 3, 82, 83
2, 383488, Note_on_c, 3, 87, 83
2, 383488, Note_on_c, 3, 94, 83
2, 383552, Note_off_c, 3, 75, 0
2, 383552, Note_off_c, 3, 79, 0
2, 383552, Note_off_c, 3, 82, 0
2, 383552, Note_off_c, 3, 87, 0
2, 383552, Note_off_c, 3, 94, 0
2, 383616, Note_on_c, 3, 75, 84
2, 383616, Note_on_c, 3, 79, 84
2, 383616, Note_on_c, 3, 82, 84
2, 383616, Note_on_c, 3, 87, 84
2, 383616, Note_on_c, 3, 94, 84
2, 383680, Note_off_c, 3, 75, 0
2, 383680, Note_off_c, 3, 79, 0
2, 383680, Note_off_c, 3, 82, 0
2, 383680, Note_off_c, 3, 87, 0
2, 383680, Note_off_c, 3, 94, 0
2, 383744, Note_on_c, 3, 75, 86
2, 383744, Note_on_c, 3, 79, 86
2, 383744, Note_on_c, 3, 82, 86
2, 383744, Note_on_c, 3, 87, 86
2, 383744, Note_on_c, 3, 94, 86
2, 383808, Note_off_c, 3, 75, 0
2, 383808, Note_off_c, 3, 79, 0
2, 383808, Note_off_c, 3, 82, 0
2, 383808, Note_off_c, 3, 87, 0
2, 383808, Note_off_c, 3, 94, 0
2, 383872, Note_on_c, 3, 75, 86
2, 383872, Note_on_c, 3, 79, 86
2, 383872, Note_on_c, 3, 82, 86
2, 383872, Note_on_c, 3, 87, 86
2, 383872, Note_on_c, 3, 94, 86
2, 383936, Note_off_c, 3, 75, 0
2, 383936, Note_off_c, 3, 79, 0
2, 383936, Note_off_c, 3, 82, 0
2, 383936, Note_off_c, 3, 87, 0
2, 383936, Note_off_c, 3, 94, 0
2, 384000, Note_on_c, 3, 75, 80
2, 384000, Note_on_c, 3, 79, 80
2, 384000, Note_on_c, 3, 82, 80
2, 384000, Note_on_c, 3, 87, 80
2, 384000, Note_on_c, 3, 94, 80
2, 384064, Note_off_c, 3, 75, 0
2, 384064, Note_off_c, 3, 79, 0
2, 384064, Note_off_c, 3, 82, 0
2, 384064, Note_off_c, 3, 87, 0
2, 384064, Note_off_c, 3, 94, 0
2, 384128, Note_on_c, 3, 75, 84
2, 384128, Note_on_c, 3, 79, 84
2, 384128, Note_on_c, 3, 82, 84
2, 384128, Note_on_c, 3, 87, 84
2, 384128, Note_on_c, 3, 94, 84
2, 384192, Note_off_c, 3, 75, 0
2, 384192, Note_off_c, 3, 79, 0
2, 384192, Note_off_c, 3, 82, 0
2, 384192, Note_off_c, 3, 87, 0
2, 384192, Note_off_c, 3, 94, 0
2, 384256, Note_on_c, 3, 72, 74
2, 384256, Note_on_c, 3, 75, 85
2, 384256, Note_on_c, 3, 79, 85
2, 384256, Note_on_c, 3, 82, 85
2, 384256, Note_on_c, 3, 87, 85
2, 384256, Note_on_c, 3, 94, 85
2, 384307, Note_on_c, 3, 85, 74
2, 384307, Note_on_c, 3, 67, 68
2, 384308, Note_off_c, 3, 72, 0
2, 384320, Note_off_c, 3, 75, 0
2, 384320, Note_off_c, 3, 79, 0
2, 384320, Note_off_c, 3, 82, 0
2, 384320, Note_off_c, 3, 87, 0
2, 384320, Note_off_c, 3, 94, 0
2, 384358, Note_on_c, 3, 88, 82
2, 384358, Note_on_c, 3, 70, 92
2, 384359, Note_off_c, 3, 85, 0
2, 384359, Note_off_c, 3, 67, 0
2, 384384, Note_on_c, 3, 75, 79
2, 384384, Note_on_c, 3, 79, 79
2, 384384, Note_on_c, 3, 82, 79
2, 384384, Note_on_c, 3, 87, 79
2, 384384, Note_on_c, 3, 94, 79
2, 384409, Note_on_c, 3, 91, 88
2, 384409, Note_on_c, 3, 73, 102
2, 384410, Note_off_c, 3, 88, 0
2, 384410, Note_off_c, 3, 70, 0
2, 384448, Note_off_c, 3, 75, 0
2, 384448, Note_off_c, 3, 79, 0
2, 384448, Note_off_c, 3, 82, 0
2, 384448, Note_off_c, 3, 87, 0
2, 384448, Note_off_c, 3, 94, 0
2, 384460, Note_on_c, 3, 97, 102
2, 384460, Note_on_c, 3, 79, 96
2, 384461, Note_off_c, 3, 91, 0
2, 384461, Note_off_c, 3, 73, 0
2, 384512, Note_on_c, 3, 102, 94
2, 384512, Note_on_c, 3, 84, 110
2, 384512, Note_on_c, 3, 75, 86
2, 384512, Note_on_c, 3, 79, 86
2, 384512, Note_on_c, 3, 82, 86
2, 384512, Note_on_c, 3, 87, 86
2, 384512, Note_on_c, 3, 94, 86
2, 384513, Note_off_c, 3, 97, 0
2, 384513, Note_off_c, 3, 79, 0
2, 384563, Note_on_c, 3, 87, 91
2, 384564, Note_off_c, 3, 84, 0
2, 384572, Note_off_c, 3, 102, 0
2, 384576, Note_off_c, 3, 75, 0
2, 384576, Note_off_c, 3, 79, 0
2, 384576, Note_off_c, 3, 82, 0
2, 384576, Note_off_c, 3, 87, 0
2, 384576, Note_off_c, 3, 94, 0
2, 384611, Note_off_c, 3, 87, 0
2, 384640, Note_on_c, 3, 75, 91
2, 384640, Note_on_c, 3, 79, 91
2, 384640, Note_on_c, 3, 82, 91
2, 384640, Note_on_c, 3, 87, 91
2, 384640, Note_on_c, 3, 94, 91
2, 384704, Note_off_c, 3, 75, 0
2, 384704, Note_off_c, 3, 79, 0
2, 384704, Note_off_c, 3, 82, 0
2, 384704, Note_off_c, 3, 87, 0
2, 384704, Note_off_c, 3, 94, 0
2, 384768, Note_on_c, 3, 75, 82
2, 384768, Note_on_c, 3, 79, 82
2, 384768, Note_on_c, 3, 82, 82
2, 384768, Note_on_c, 3, 87, 82
2, 384768, Note_on_c, 3, 94, 82
2, 384832, Note_off_c, 3, 75, 0
2, 384832, Note_off_c, 3, 79, 0
2, 384832, Note_off_c, 3, 82, 0
2, 384832, Note_off_c, 3, 87, 0
2, 384832, Note_off_c, 3, 94, 0
2, 384896, Note_on_c, 3, 75, 92
2, 384896, Note_on_c, 3, 79, 92
2, 384896, Note_on_c, 3, 82, 92
2, 384896, Note_on_c, 3, 87, 92
2, 384896, Note_on_c, 3, 94, 92
2, 384960, Note_off_c, 3, 75, 0
2, 384960, Note_off_c, 3, 79, 0
2, 384960, Note_off_c, 3, 82, 0
2, 384960, Note_off_c, 3, 87, 0
2, 384960, Note_off_c, 3, 94, 0
2, 385024, Note_on_c, 3, 92, 78
2, 385024, Note_on_c, 3, 78, 76
2, 385024, Note_on_c, 3, 75, 91
2, 385024, Note_on_c, 3, 79, 91
2, 385024, Note_on_c, 3, 82, 91
2, 385024, Note_on_c, 3, 87, 91
2, 385024, Note_on_c, 3, 94, 91
2, 385075, Note_on_c, 3, 95, 84
2, 385076, Note_off_c, 3, 92, 0
2, 385088, Note_off_c, 3, 75, 0
2, 385088, Note_off_c, 3, 79, 0
2, 385088, Note_off_c, 3, 82, 0
2, 385088, Note_off_c, 3, 87, 0
2, 385088, Note_off_c, 3, 94, 0
2, 385088, Note_on_c, 3, 76, 70
2, 385089, Note_off_c, 3, 78, 0
2, 385126, Note_on_c, 3, 90, 73
2, 385127, Note_off_c, 3, 95, 0
2, 385152, Note_on_c, 3, 79, 89
2, 385152, Note_on_c, 3, 75, 93
2, 385152, Note_on_c, 3, 79, 93
2, 385152, Note_on_c, 3, 82, 93
2, 385152, Note_on_c, 3, 87, 93
2, 385152, Note_on_c, 3, 94, 93
2, 385153, Note_off_c, 3, 76, 0
2, 385177, Note_on_c, 3, 88, 64
2, 385178, Note_off_c, 3, 90, 0
2, 385216, Note_off_c, 3, 75, 0
2, 385216, Note_off_c, 3, 79, 0
2, 385216, Note_off_c, 3, 82, 0
2, 385216, Note_off_c, 3, 87, 0
2, 385216, Note_off_c, 3, 94, 0
2, 385216, Note_on_c, 3, 82, 99
2, 385217, Note_off_c, 3, 79, 0
2, 385228, Note_on_c, 3, 91, 89
2, 385229, Note_off_c, 3, 88, 0
2, 385280, Note_on_c, 3, 87, 79
2, 385280, Note_on_c, 3, 85, 94
2, 385280, Note_on_c, 3, 75, 93
2, 385280, Note_on_c, 3, 79, 93
2, 385280, Note_on_c, 3, 82, 93
2, 385280, Note_on_c, 3, 87, 93
2, 385280, Note_on_c, 3, 94, 93
2, 385281, Note_off_c, 3, 91, 0
2, 385281, Note_off_c, 3, 82, 0
2, 385331, Note_on_c, 3, 85, 81
2, 385332, Note_off_c, 3, 87, 0
2, 385344, Note_off_c, 3, 75, 0
2, 385344, Note_off_c, 3, 79, 0
2, 385344, Note_off_c, 3, 82, 0
2, 385344, Note_off_c, 3, 87, 0
2, 385344, Note_off_c, 3, 94, 0
2, 385344, Note_on_c, 3, 79, 81
2, 385345, Note_off_c, 3, 85, 0
2, 385382, Note_on_c, 3, 82, 72
2, 385383, Note_off_c, 3, 85, 0
2, 385408, Note_on_c, 3, 82, 89
2, 385408, Note_on_c, 3, 75, 98
2, 385408, Note_on_c, 3, 79, 98
2, 385408, Note_on_c, 3, 82, 98
2, 385408, Note_on_c, 3, 87, 98
2, 385408, Note_on_c, 3, 94, 98
2, 385409, Note_off_c, 3, 79, 0
2, 385430, Note_off_c, 3, 82, 0
2, 385472, Note_off_c, 3, 75, 0
2, 385472, Note_off_c, 3, 79, 0
2, 385472, Note_off_c, 3, 82, 0
2, 385472, Note_off_c, 3, 87, 0
2, 385472, Note_off_c, 3, 94, 0
2, 385472, Note_on_c, 3, 91, 108
2, 385473, Note_off_c, 3, 82, 0
2, 385532, Note_off_c, 3, 91, 0
2, 385792, Note_on_c, 3, 85, 71
2, 385792, Note_on_c, 3, 75, 72
2, 385834, Note_off_c, 3, 75, 0
2, 385834, Note_on_c, 3, 81, 95
2, 385843, Note_on_c, 3, 89, 77
2, 385844, Note_off_c, 3, 85, 0
2, 385877, Note_off_c, 3, 81, 0
2, 385877, Note_on_c, 3, 73, 68
2, 385894, Note_on_c, 3, 93, 94
2, 385895, Note_off_c, 3, 89, 0
2, 385920, Note_off_c, 3, 73, 0
2, 385920, Note_on_c, 3, 78, 95
2, 385945, Note_on_c, 3, 91, 91
2, 385946, Note_off_c, 3, 93, 0
2, 385962, Note_off_c, 3, 78, 0
2, 385962, Note_on_c, 3, 72, 70
2, 385996, Note_on_c, 3, 94, 88
2, 385997, Note_off_c, 3, 91, 0
2, 386005, Note_off_c, 3, 72, 0
2, 386005, Note_on_c, 3, 81, 100
2, 386045, Note_off_c, 3, 81, 0
2, 386048, Note_on_c, 3, 100, 102
2, 386049, Note_off_c, 3, 94, 0
2, 386108, Note_off_c, 3, 100, 0
2, 386304, Note_on_c, 3, 75, 85
2, 386304, Note_on_c, 3, 79, 85
2, 386304, Note_on_c, 3, 82, 85
2, 386304, Note_on_c, 3, 87, 85
2, 386304, Note_on_c, 3, 94, 85
2, 386368, Note_off_c, 3, 75, 0
2, 386368, Note_off_c, 3, 79, 0
2, 386368, Note_off_c, 3, 82, 0
2, 386368, Note_off_c, 3, 87, 0
2, 386368, Note_off_c, 3, 94, 0
2, 386432, Note_on_c, 3, 75, 86
2, 386432, Note_on_c, 3, 79, 86
2, 386432, Note_on_c, 3, 82, 86
2, 386432, Note_on_c, 3, 87, 86
2, 386432, Note_on_c, 3, 94, 86
2, 386496, Note_off_c, 3, 75, 0
2, 386496, Note_off_c, 3, 79, 0
2, 386496, Note_off_c, 3, 82, 0
2, 386496, Note_off_c, 3, 87, 0
2, 386496, Note_off_c, 3, 94, 0
2, 386560, Note_on_c, 3, 75, 84
2, 386560, Note_on_c, 3, 79, 84
2, 386560, Note_on_c, 3, 82, 84
2, 386560, Note_on_c, 3, 87, 84
2, 386560, Note_on_c, 3, 94, 84
2, 386611, Note_on_c, 3, 69, 76
2, 386624, Note_off_c, 3, 75, 0
2, 386624, Note_off_c, 3, 79, 0
2, 386624, Note_off_c, 3, 82, 0
2, 386624, Note_off_c, 3, 87, 0
2, 386624, Note_off_c, 3, 94, 0
2, 386624, Note_on_c, 3, 82, 80
2, 386662, Note_on_c, 3, 76, 85
2, 386663, Note_off_c, 3, 69, 0
2, 386688, Note_on_c, 3, 90, 95
2, 386688, Note_on_c, 3, 75, 82
2, 386688, Note_on_c, 3, 79, 82
2, 386688, Note_on_c, 3, 82, 82
2, 386688, Note_on_c, 3, 87, 82
2, 386688, Note_on_c, 3, 94, 82
2, 386689, Note_off_c, 3, 82, 0
2, 386713, Note_on_c, 3, 79, 97
2, 386714, Note_off_c, 3, 76, 0
2, 386752, Note_off_c, 3, 75, 0
2, 386752, Note_off_c, 3, 79, 0
2, 386752, Note_off_c, 3, 82, 0
2, 386752, Note_off_c, 3, 87, 0
2, 386752, Note_off_c, 3, 94, 0
2, 386752, Note_on_c, 3, 93, 91
2, 386753, Note_off_c, 3, 90, 0
2, 386764, Note_on_c, 3, 84, 112
2, 386765, Note_off_c, 3, 79, 0
2, 386816, Note_on_c, 3, 94, 93
2, 386816, Note_on_c, 3, 78, 75
2, 386816, Note_on_c, 3, 75, 87
2, 386816, Note_on_c, 3, 79, 87
2, 386816, Note_on_c, 3, 82, 87
2, 386816, Note_on_c, 3, 87, 87
2, 386816, Note_on_c, 3, 94, 87
2, 386817, Note_off_c, 3, 93, 0
2, 386817, Note_off_c, 3, 84, 0
2, 386867, Note_on_c, 3, 88, 88
2, 386868, Note_off_c, 3, 78, 0
2, 386880, Note_off_c, 3, 75, 0
2, 386880, Note_off_c, 3, 79, 0
2, 386880, Note_off_c, 3, 82, 0
2, 386880, Note_off_c, 3, 87, 0
2, 386880, Note_off_c, 3, 94, 0
2, 386880, Note_on_c, 3, 91, 79
2, 386881, Note_off_c, 3, 94, 0
2, 386918, Note_on_c, 3, 85, 83
2, 386919, Note_off_c, 3, 88, 0
2, 386944, Note_on_c, 3, 102, 101
2, 386944, Note_on_c, 3, 75, 90
2, 386944, Note_on_c, 3, 79, 90
2, 386944, Note_on_c, 3, 82, 90
2, 386944, Note_on_c, 3, 87, 90
2, 386944, Note_on_c, 3, 94, 90
2, 386945, Note_off_c, 3, 91, 0
2, 386966, Note_off_c, 3, 85, 0
2, 387008, Note_off_c, 3, 75, 0
2, 387008, Note_off_c, 3, 79, 0
2, 387008, Note_off_c, 3, 82, 0
2, 387008, Note_off_c, 3, 87, 0
2, 387008, Note_off_c, 3, 94, 0
2, 387008, Note_on_c, 3, 99, 82
2, 387009, Note_off_c, 3, 102, 0
2, 387068, Note_off_c, 3, 99, 0
2, 387072, Note_on_c, 3, 75, 89
2, 387072, Note_on_c, 3, 79, 89
2, 387072, Note_on_c, 3, 82, 89
2, 387072, Note_on_c, 3, 87, 89
2, 387072, Note_on_c, 3, 94, 89
2, 387136, Note_off_c, 3, 75, 0
2, 387136, Note_off_c, 3, 79, 0
2, 387136, Note_off_c, 3, 82, 0
2, 387136, Note_off_c, 3, 87, 0
2, 387136, Note_off_c, 3, 94, 0
2, 387200, Note_on_c, 3, 75, 86
2, 387200, Note_on_c, 3, 79, 86
2, 387200, Note_on_c, 3, 82, 86
2, 387200, Note_on_c, 3, 87, 86
2, 387200, Note_on_c, 3, 94, 86
2, 387264, Note_off_c, 3, 75, 0
2, 387264, Note_off_c, 3, 79, 0
2, 387264, Note_off_c, 3, 82, 0
2, 387264, Note_off_c, 3, 87, 0
2, 387264, Note_off_c, 3, 94, 0
2, 387328, Note_on_c, 3, 75, 97
2, 387328, Note_on_c, 3, 79, 97
2, 387328, Note_on_c, 3, 82, 97
2, 387328, Note_on_c, 3, 87, 97
2, 387328, Note_on_c, 3, 94, 97
2, 387392, Note_off_c, 3, 75, 0
2, 387392, Note_off_c, 3, 79, 0
2, 387392, Note_off_c, 3, 82, 0
2, 387392, Note_off_c, 3, 87, 0
2, 387392, Note_off_c, 3, 94, 0
2, 387456, Note_on_c, 3, 75, 96
2, 387456, Note_on_c, 3, 79, 96
2, 387456, Note_on_c, 3, 82, 96
2, 387456, Note_on_c, 3, 87, 96
2, 387456, Note_on_c, 3, 94, 96
2, 387520, Note_off_c, 3, 75, 0
2, 387520, Note_off_c, 3, 79, 0
2, 387520, Note_off_c, 3, 82, 0
2, 387520, Note_off_c, 3, 87, 0
2, 387520, Note_off_c, 3, 94, 0
2, 387712, Note_on_c, 3, 81, 77
2, 387737, Note_on_c, 3, 67, 75
2, 387754, Note_off_c, 3, 81, 0
2, 387754, Note_on_c, 3, 85, 90
2, 387788, Note_on_c, 3, 72, 87
2, 387789, Note_off_c, 3, 67, 0
2, 387797, Note_off_c, 3, 85, 0
2, 387797, Note_on_c, 3, 90, 95
2, 387840, Note_off_c, 3, 90, 0
2, 387840, Note_on_c, 3, 97, 101
2, 387840, Note_on_c, 3, 73, 89
2, 387841, Note_off_c, 3, 72, 0
2, 387882, Note_off_c, 3, 97, 0
2, 387882, Note_on_c, 3, 102, 97
2, 387891, Note_on_c, 3, 84, 112
2, 387892, Note_off_c, 3, 73, 0
2, 387925, Note_off_c, 3, 102, 0
2, 387925, Note_on_c, 3, 96, 74
2, 387942, Note_on_c, 3, 88, 93
2, 387943, Note_off_c, 3, 84, 0
2, 387965, Note_off_c, 3, 96, 0
2, 387993, Note_on_c, 3, 85, 85
2, 387994, Note_off_c, 3, 88, 0
2, 388041, Note_off_c, 3, 85, 0
2, 388480, Note_on_c, 3, 87, 76
2, 388544, Note_on_c, 3, 88, 77
2, 388545, Note_off_c, 3, 87, 0
2, 388608, Note_on_c, 3, 93, 96
2, 388608, Note_on_c, 3, 72, 78
2, 388608, Note_on_c, 3, 75, 74
2, 388608, Note_on_c, 3, 79, 74
2, 388608, Note_on_c, 3, 82, 74
2, 388608, Note_on_c, 3, 87, 74
2, 388608, Note_on_c, 3, 94, 74
2, 388609, Note_off_c, 3, 88, 0
2, 388659, Note_on_c, 3, 73, 78
2, 388660, Note_off_c, 3, 72, 0
2, 388672, Note_off_c, 3, 75, 0
2, 388672, Note_off_c, 3, 79, 0
2, 388672, Note_off_c, 3, 82, 0
2, 388672, Note_off_c, 3, 87, 0
2, 388672, Note_off_c, 3, 94, 0
2, 388672, Note_on_c, 3, 97, 104
2, 388673, Note_off_c, 3, 93, 0
2, 388710, Note_on_c, 3, 78, 97
2, 388711, Note_off_c, 3, 73, 0
2, 388736, Note_on_c, 3, 91, 76
2, 388736, Note_on_c, 3, 75, 80
2, 388736, Note_on_c, 3, 79, 80
2, 388736, Note_on_c, 3, 82, 80
2, 388736, Note_on_c, 3, 87, 80
2, 388736, Note_on_c, 3, 94, 80
2, 388737, Note_off_c, 3, 97, 0
2, 388761, Note_on_c, 3, 82, 112
2, 388762, Note_off_c, 3, 78, 0
2, 388800, Note_off_c, 3, 75, 0
2, 388800, Note_off_c, 3, 79, 0
2, 388800, Note_off_c, 3, 82, 0
2, 388800, Note_off_c, 3, 87, 0
2, 388800, Note_off_c, 3, 94, 0
2, 388800, Note_on_c, 3, 97, 86
2, 388801, Note_off_c, 3, 91, 0
2, 388812, Note_on_c, 3, 75, 72
2, 388813, Note_off_c, 3, 82, 0
2, 388864, Note_on_c, 3, 102, 102
2, 388864, Note_on_c, 3, 82, 85
2, 388864, Note_on_c, 3, 75, 83
2, 388864, Note_on_c, 3, 79, 83
2, 388864, Note_on_c, 3, 82, 83
2, 388864, Note_on_c, 3, 87, 83
2, 388864, Note_on_c, 3, 94, 83
2, 388865, Note_off_c, 3, 97, 0
2, 388865, Note_off_c, 3, 75, 0
2, 388915, Note_on_c, 3, 87, 95
2, 388916, Note_off_c, 3, 82, 0
2, 388928, Note_off_c, 3, 75, 0
2, 388928, Note_off_c, 3, 79, 0
2, 388928, Note_off_c, 3, 82, 0
2, 388928, Note_off_c, 3, 87, 0
2, 388928, Note_off_c, 3, 94, 0
2, 388928, Note_on_c, 3, 93, 81
2, 388929, Note_off_c, 3, 102, 0
2, 388966, Note_on_c, 3, 78, 77
2, 388967, Note_off_c, 3, 87, 0
2, 388992, Note_on_c, 3, 94, 87
2, 388992, Note_on_c, 3, 75, 89
2, 388992, Note_on_c, 3, 79, 89
2, 388992, Note_on_c, 3, 82, 89
2, 388992, Note_on_c, 3, 87, 89
2, 388992, Note_on_c, 3, 94, 89
2, 388993, Note_off_c, 3, 93, 0
2, 389017, Note_on_c, 3, 76, 77
2, 389018, Note_off_c, 3, 78, 0
2, 389052, Note_off_c, 3, 94, 0
2, 389056, Note_off_c, 3, 75, 0
2, 389056, Note_off_c, 3, 79, 0
2, 389056, Note_off_c, 3, 82, 0
2, 389056, Note_off_c, 3, 87, 0
2, 389056, Note_off_c, 3, 94, 0
2, 389065, Note_off_c, 3, 76, 0
2, 389120, Note_on_c, 3, 75, 85
2, 389120, Note_on_c, 3, 79, 85
2, 389120, Note_on_c, 3, 82, 85
2, 389120, Note_on_c, 3, 87, 85
2, 389120, Note_on_c, 3, 94, 85
2, 389184, Note_off_c, 3, 75, 0
2, 389184, Note_off_c, 3, 79, 0
2, 389184, Note_off_c, 3, 82, 0
2, 389184, Note_off_c, 3, 87, 0
2, 389184, Note_off_c, 3, 94, 0
2, 389248, Note_on_c, 3, 96, 75
2, 389248, Note_on_c, 3, 93, 76
2, 389248, Note_on_c, 3, 75, 83
2, 389248, Note_on_c, 3, 79, 83
2, 389248, Note_on_c, 3, 82, 83
2, 389248, Note_on_c, 3, 87, 83
2, 389248, Note_on_c, 3, 94, 83
2, 389290, Note_off_c, 3, 93, 0
2, 389290, Note_on_c, 3, 87, 73
2, 389312, Note_off_c, 3, 75, 0
2, 389312, Note_off_c, 3, 79, 0
2, 389312, Note_off_c, 3, 82, 0
2, 389312, Note_off_c, 3, 87, 0
2, 389312, Note_off_c, 3, 94, 0
2, 389312, Note_on_c, 3, 103, 83
2, 389313, Note_off_c, 3, 96, 0
2, 389333, Note_off_c, 3, 87, 0
2, 389333, Note_on_c, 3, 82, 70
2, 389376, Note_off_c, 3, 82, 0
2, 389376, Note_on_c, 3, 99, 79
2, 389376, Note_on_c, 3, 76, 70
2, 389376, Note_on_c, 3, 75, 86
2, 389376, Note_on_c, 3, 79, 86
2, 389376, Note_on_c, 3, 82, 86
2, 389376, Note_on_c, 3, 87, 86
2, 389376, Note_on_c, 3, 94, 86
2, 389377, Note_off_c, 3, 103, 0
2, 389418, Note_off_c, 3, 76, 0
2, 389418, Note_on_c, 3, 79, 88
2, 389440, Note_off_c, 3, 75, 0
2, 389440, Note_off_c, 3, 79, 0
2, 389440, Note_off_c, 3, 82, 0
2, 389440, Note_off_c, 3, 87, 0
2, 389440, Note_off_c, 3, 94, 0
2, 389440, Note_on_c, 3, 93, 65
2, 389441, Note_off_c, 3, 99, 0
2, 389461, Note_off_c, 3, 79, 0
2, 389461, Note_on_c, 3, 84, 97
2, 389501, Note_off_c, 3, 84, 0
2, 389504, Note_on_c, 3, 88, 71
2, 389504, Note_on_c, 3, 75, 90
2, 389504, Note_on_c, 3, 79, 90
2, 389504, Note_on_c, 3, 82, 90
2, 389504, Note_on_c, 3, 87, 90
2, 389504, Note_on_c, 3, 94, 90
2, 389505, Note_off_c, 3, 93, 0
2, 389568, Note_off_c, 3, 75, 0
2, 389568, Note_off_c, 3, 79, 0
2, 389568, Note_off_c, 3, 82, 0
2, 389568, Note_off_c, 3, 87, 0
2, 389568, Note_off_c, 3, 94, 0
2, 389568, Note_on_c, 3, 87, 62
2, 389569, Note_off_c, 3, 88, 0
2, 389628, Note_off_c, 3, 87, 0
2, 389632, Note_on_c, 3, 75, 88
2, 389632, Note_on_c, 3, 79, 88
2, 389632, Note_on_c, 3, 82, 88
2, 389632, Note_on_c, 3, 87, 88
2, 389632, Note_on_c, 3, 94, 88
2, 389696, Note_off_c, 3, 75, 0
2, 389696, Note_off_c, 3, 79, 0
2, 389696, Note_off_c, 3, 82, 0
2, 389696, Note_off_c, 3, 87, 0
2, 389696, Note_off_c, 3, 94, 0
2, 389760, Note_on_c, 3, 75, 93
2, 389760, Note_on_c, 3, 79, 93
2, 389760, Note_on_c, 3, 82, 93
2, 389760, Note_on_c, 3, 87, 93
2, 389760, Note_on_c, 3, 94, 93
2, 389824, Note_off_c, 3, 75, 0
2, 389824, Note_off_c, 3, 79, 0
2, 389824, Note_off_c, 3, 82, 0
2, 389824, Note_off_c, 3, 87, 0
2, 389824, Note_off_c, 3, 94, 0
2, 389888, Note_on_c, 3, 75, 94
2, 389888, Note_on_c, 3, 79, 94
2, 389888, Note_on_c, 3, 82, 94
2, 389888, Note_on_c, 3, 87, 94
2, 389888, Note_on_c, 3, 94, 94
2, 389952, Note_off_c, 3, 75, 0
2, 389952, Note_off_c, 3, 79, 0
2, 389952, Note_off_c, 3, 82, 0
2, 389952, Note_off_c, 3, 87, 0
2, 389952, Note_off_c, 3, 94, 0
2, 390016, Note_on_c, 3, 105, 72
2, 390016, Note_on_c, 3, 78, 74
2, 390016, Note_on_c, 3, 75, 94
2, 390016, Note_on_c, 3, 79, 94
2, 390016, Note_on_c, 3, 82, 94
2, 390016, Note_on_c, 3, 87, 94
2, 390016, Note_on_c, 3, 94, 94
2, 390080, Note_off_c, 3, 75, 0
2, 390080, Note_off_c, 3, 79, 0
2, 390080, Note_off_c, 3, 82, 0
2, 390080, Note_off_c, 3, 87, 0
2, 390080, Note_off_c, 3, 94, 0
2, 390080, Note_on_c, 3, 102, 68
2, 390080, Note_on_c, 3, 85, 88
2, 390081, Note_off_c, 3, 105, 0
2, 390081, Note_off_c, 3, 78, 0
2, 390144, Note_on_c, 3, 97, 72
2, 390144, Note_on_c, 3, 81, 74
2, 390145, Note_off_c, 3, 102, 0
2, 390145, Note_off_c, 3, 85, 0
2, 390195, Note_on_c, 3, 78, 62
2, 390196, Note_off_c, 3, 81, 0
2, 390208, Note_on_c, 3, 87, 50
2, 390209, Note_off_c, 3, 97, 0
2, 390246, Note_on_c, 3, 73, 71
2, 390247, Note_off_c, 3, 78, 0
2, 390268, Note_off_c, 3, 87, 0
2, 390272, Note_on_c, 3, 100, 105
2, 390297, Note_on_c, 3, 76, 75
2, 390298, Note_off_c, 3, 73, 0
2, 390336, Note_on_c, 3, 97, 95
2, 390337, Note_off_c, 3, 100, 0
2, 390348, Note_on_c, 3, 81, 97
2, 390349, Note_off_c, 3, 76, 0
2, 390400, Note_on_c, 3, 93, 72
2, 390400, Note_on_c, 3, 78, 93
2, 390401, Note_off_c, 3, 97, 0
2, 390401, Note_off_c, 3, 81, 0
2, 390451, Note_on_c, 3, 75, 77
2, 390452, Note_off_c, 3, 78, 0
2, 390464, Note_on_c, 3, 91, 65
2, 390465, Note_off_c, 3, 93, 0
2, 390502, Note_on_c, 3, 76, 80
2, 390503, Note_off_c, 3, 75, 0
2, 390528, Note_on_c, 3, 92, 85
2, 390529, Note_off_c, 3, 91, 0
2, 390553, Note_on_c, 3, 84, 97
2, 390554, Note_off_c, 3, 76, 0
2, 390588, Note_off_c, 3, 92, 0
2, 390592, Note_on_c, 3, 103, 104
2, 390604, Note_on_c, 3, 87, 108
2, 390605, Note_off_c, 3, 84, 0
2, 390653, Note_off_c, 3, 87, 0
2, 390656, Note_on_c, 3, 102, 103
2, 390656, Note_on_c, 3, 75, 88
2, 390656, Note_on_c, 3, 79, 88
2, 390656, Note_on_c, 3, 82, 88
2, 390656, Note_on_c, 3, 87, 88
2, 390656, Note_on_c, 3, 94, 88
2, 390657, Note_off_c, 3, 103, 0
2, 390720, Note_off_c, 3, 75, 0
2, 390720, Note_off_c, 3, 79, 0
2, 390720, Note_off_c, 3, 82, 0
2, 390720, Note_off_c, 3, 87, 0
2, 390720, Note_off_c, 3, 94, 0
2, 390720, Note_on_c, 3, 92, 66
2, 390721, Note_off_c, 3, 102, 0
2, 390780, Note_off_c, 3, 92, 0
2, 390784, Note_on_c, 3, 75, 98
2, 390784, Note_on_c, 3, 79, 98
2, 390784, Note_on_c, 3, 82, 98
2, 390784, Note_on_c, 3, 87, 98
2, 390784, Note_on_c, 3, 94, 98
2, 390848, Note_off_c, 3, 75, 0
2, 390848, Note_off_c, 3, 79, 0
2, 390848, Note_off_c, 3, 82, 0
2, 390848, Note_off_c, 3, 87, 0
2, 390848, Note_off_c, 3, 94, 0
2, 390912, Note_on_c, 3, 75, 97
2, 390912, Note_on_c, 3, 77, 97
2, 390912, Note_on_c, 3, 79, 97
2, 390912, Note_on_c, 3, 82, 97
2, 390912, Note_on_c, 3, 87, 97
2, 390912, Note_on_c, 3, 94, 97
2, 390976, Note_off_c, 3, 75, 0
2, 390976, Note_off_c, 3, 77, 0
2, 390976, Note_off_c, 3, 79, 0
2, 390976, Note_off_c, 3, 82, 0
2, 390976, Note_off_c, 3, 87, 0
2, 390976, Note_off_c, 3, 94, 0
2, 391040, Note_on_c, 3, 75, 100
2, 391040, Note_on_c, 3, 79, 100
2, 391040, Note_on_c, 3, 82, 100
2, 391040, Note_on_c, 3, 87, 100
2, 391040, Note_on_c, 3, 94, 100
2, 391104, Note_off_c, 3, 75, 0
2, 391104, Note_off_c, 3, 79, 0
2, 391104, Note_off_c, 3, 82, 0
2, 391104, Note_off_c, 3, 87, 0
2, 391104, Note_off_c, 3, 94, 0
2, 391168, Note_on_c, 3, 87, 74
2, 391168, Note_on_c, 3, 90, 73
2, 391168, Note_on_c, 3, 75, 104
2, 391168, Note_on_c, 3, 79, 104
2, 391168, Note_on_c, 3, 82, 104
2, 391168, Note_on_c, 3, 87, 104
2, 391168, Note_on_c, 3, 94, 104
2, 391219, Note_on_c, 3, 81, 57
2, 391219, Note_on_c, 3, 87, 63
2, 391220, Note_off_c, 3, 87, 0
2, 391220, Note_off_c, 3, 90, 0
2, 391232, Note_off_c, 3, 75, 0
2, 391232, Note_off_c, 3, 79, 0
2, 391232, Note_off_c, 3, 82, 0
2, 391232, Note_off_c, 3, 87, 0
2, 391232, Note_off_c, 3, 94, 0
2, 391270, Note_on_c, 3, 88, 96
2, 391270, Note_on_c, 3, 84, 71
2, 391271, Note_off_c, 3, 81, 0
2, 391271, Note_off_c, 3, 87, 0
2, 391296, Note_on_c, 3, 75, 99
2, 391296, Note_on_c, 3, 77, 99
2, 391296, Note_on_c, 3, 79, 99
2, 391296, Note_on_c, 3, 82, 99
2, 391296, Note_on_c, 3, 87, 99
2, 391296, Note_on_c, 3, 94, 99
2, 391321, Note_on_c, 3, 90, 105
2, 391321, Note_on_c, 3, 79, 63
2, 391322, Note_off_c, 3, 88, 0
2, 391322, Note_off_c, 3, 84, 0
2, 391360, Note_off_c, 3, 75, 0
2, 391360, Note_off_c, 3, 77, 0
2, 391360, Note_off_c, 3, 79, 0
2, 391360, Note_off_c, 3, 82, 0
2, 391360, Note_off_c, 3, 87, 0
2, 391360, Note_off_c, 3, 94, 0
2, 391372, Note_on_c, 3, 97, 99
2, 391372, Note_on_c, 3, 75, 74
2, 391373, Note_off_c, 3, 90, 0
2, 391373, Note_off_c, 3, 79, 0
2, 391421, Note_off_c, 3, 75, 0
2, 391424, Note_on_c, 3, 90, 89
2, 391424, Note_on_c, 3, 75, 97
2, 391424, Note_on_c, 3, 79, 97
2, 391424, Note_on_c, 3, 82, 97
2, 391424, Note_on_c, 3, 87, 97
2, 391424, Note_on_c, 3, 94, 97
2, 391425, Note_off_c, 3, 97, 0
2, 391484, Note_off_c, 3, 90, 0
2, 391488, Note_off_c, 3, 75, 0
2, 391488, Note_off_c, 3, 79, 0
2, 391488, Note_off_c, 3, 82, 0
2, 391488, Note_off_c, 3, 87, 0
2, 391488, Note_off_c, 3, 94, 0
2, 391552, Note_on_c, 3, 75, 99
2, 391552, Note_on_c, 3, 79, 99
2, 391552, Note_on_c, 3, 82, 99
2, 391552, Note_on_c, 3, 87, 99
2, 391552, Note_on_c, 3, 94, 99
2, 391616, Note_off_c, 3, 75, 0
2, 391616, Note_off_c, 3, 79, 0
2, 391616, Note_off_c, 3, 82, 0
2, 391616, Note_off_c, 3, 87, 0
2, 391616, Note_off_c, 3, 94, 0
2, 391680, Note_on_c, 3, 75, 95
2, 391680, Note_on_c, 3, 77, 95
2, 391680, Note_on_c, 3, 79, 95
2, 391680, Note_on_c, 3, 82, 95
2, 391680, Note_on_c, 3, 87, 95
2, 391680, Note_on_c, 3, 94, 95
2, 391744, Note_off_c, 3, 75, 0
2, 391744, Note_off_c, 3, 77, 0
2, 391744, Note_off_c, 3, 79, 0
2, 391744, Note_off_c, 3, 82, 0
2, 391744, Note_off_c, 3, 87, 0
2, 391744, Note_off_c, 3, 94, 0
2, 391808, Note_on_c, 3, 75, 94
2, 391808, Note_on_c, 3, 79, 94
2, 391808, Note_on_c, 3, 82, 94
2, 391808, Note_on_c, 3, 87, 94
2, 391808, Note_on_c, 3, 94, 94
2, 391872, Note_off_c, 3, 75, 0
2, 391872, Note_off_c, 3, 79, 0
2, 391872, Note_off_c, 3, 82, 0
2, 391872, Note_off_c, 3, 87, 0
2, 391872, Note_off_c, 3, 94, 0
2, 391936, Note_on_c, 3, 75, 98
2, 391936, Note_on_c, 3, 79, 98
2, 391936, Note_on_c, 3, 82, 98
2, 391936, Note_on_c, 3, 87, 98
2, 391936, Note_on_c, 3, 94, 98
2, 392000, Note_off_c, 3, 75, 0
2, 392000, Note_off_c, 3, 79, 0
2, 392000, Note_off_c, 3, 82, 0
2, 392000, Note_off_c, 3, 87, 0
2, 392000, Note_off_c, 3, 94, 0
2, 392064, Note_on_c, 3, 75, 95
2, 392064, Note_on_c, 3, 79, 95
2, 392064, Note_on_c, 3, 82, 95
2, 392064, Note_on_c, 3, 87, 95
2, 392064, Note_on_c, 3, 94, 95
2, 392128, Note_off_c, 3, 75, 0
2, 392128, Note_off_c, 3, 79, 0
2, 392128, Note_off_c, 3, 82, 0
2, 392128, Note_off_c, 3, 87, 0
2, 392128, Note_off_c, 3, 94, 0
2, 392192, Note_on_c, 3, 78, 72
2, 392192, Note_on_c, 3, 90, 77
2, 392192, Note_on_c, 3, 75, 98
2, 392192, Note_on_c, 3, 79, 98
2, 392192, Note_on_c, 3, 82, 98
2, 392192, Note_on_c, 3, 87, 98
2, 392192, Note_on_c, 3, 94, 98
2, 392234, Note_off_c, 3, 90, 0
2, 392234, Note_on_c, 3, 84, 71
2, 392243, Note_on_c, 3, 85, 84
2, 392244, Note_off_c, 3, 78, 0
2, 392256, Note_off_c, 3, 75, 0
2, 392256, Note_off_c, 3, 79, 0
2, 392256, Note_off_c, 3, 82, 0
2, 392256, Note_off_c, 3, 87, 0
2, 392256, Note_off_c, 3, 94, 0
2, 392277, Note_off_c, 3, 84, 0
2, 392277, Note_on_c, 3, 79, 68
2, 392294, Note_on_c, 3, 90, 102
2, 392295, Note_off_c, 3, 85, 0
2, 392320, Note_off_c, 3, 79, 0
2, 392320, Note_on_c, 3, 76, 71
2, 392320, Note_on_c, 3, 75, 97
2, 392320, Note_on_c, 3, 79, 97
2, 392320, Note_on_c, 3, 82, 97
2, 392320, Note_on_c, 3, 87, 97
2, 392320, Note_on_c, 3, 94, 97
2, 392345, Note_on_c, 3, 93, 114
2, 392346, Note_off_c, 3, 90, 0
2, 392362, Note_off_c, 3, 76, 0
2, 392362, Note_on_c, 3, 73, 77
2, 392384, Note_off_c, 3, 75, 0
2, 392384, Note_off_c, 3, 79, 0
2, 392384, Note_off_c, 3, 82, 0
2, 392384, Note_off_c, 3, 87, 0
2, 392384, Note_off_c, 3, 94, 0
2, 392396, Note_on_c, 3, 99, 99
2, 392397, Note_off_c, 3, 93, 0
2, 392405, Note_off_c, 3, 73, 0
2, 392405, Note_on_c, 3, 85, 107
2, 392445, Note_off_c, 3, 85, 0
2, 392448, Note_on_c, 3, 103, 113
2, 392448, Note_on_c, 3, 75, 99
2, 392448, Note_on_c, 3, 77, 99
2, 392448, Note_on_c, 3, 79, 99
2, 392448, Note_on_c, 3, 82, 99
2, 392448, Note_on_c, 3, 87, 99
2, 392448, Note_on_c, 3, 94, 99
2, 392449, Note_off_c, 3, 99, 0
2, 392496, Note_off_c, 3, 103, 0
2, 392512, Note_off_c, 3, 75, 0
2, 392512, Note_off_c, 3, 77, 0
2, 392512, Note_off_c, 3, 79, 0
2, 392512, Note_off_c, 3, 82, 0
2, 392512, Note_off_c, 3, 87, 0
2, 392512, Note_off_c, 3, 94, 0
2, 392576, Note_on_c, 3, 75, 98
2, 392576, Note_on_c, 3, 79, 98
2, 392576, Note_on_c, 3, 82, 98
2, 392576, Note_on_c, 3, 87, 98
2, 392576, Note_on_c, 3, 94, 98
2, 392640, Note_off_c, 3, 75, 0
2, 392640, Note_off_c, 3, 79, 0
2, 392640, Note_off_c, 3, 82, 0
2, 392640, Note_off_c, 3, 87, 0
2, 392640, Note_off_c, 3, 94, 0
2, 392704, Note_on_c, 3, 75, 94
2, 392704, Note_on_c, 3, 79, 94
2, 392704, Note_on_c, 3, 82, 94
2, 392704, Note_on_c, 3, 87, 94
2, 392704, Note_on_c, 3, 94, 94
2, 392768, Note_off_c, 3, 75, 0
2, 392768, Note_off_c, 3, 79, 0
2, 392768, Note_off_c, 3, 82, 0
2, 392768, Note_off_c, 3, 87, 0
2, 392768, Note_off_c, 3, 94, 0
2, 392832, Note_on_c, 3, 102, 76
2, 392832, Note_on_c, 3, 75, 101
2, 392832, Note_on_c, 3, 79, 101
2, 392832, Note_on_c, 3, 82, 101
2, 392832, Note_on_c, 3, 87, 101
2, 392832, Note_on_c, 3, 94, 101
2, 392864, Note_on_c, 3, 73, 75
2, 392874, Note_off_c, 3, 102, 0
2, 392874, Note_on_c, 3, 94, 65
2, 392896, Note_off_c, 3, 73, 0
2, 392896, Note_off_c, 3, 75, 0
2, 392896, Note_off_c, 3, 79, 0
2, 392896, Note_off_c, 3, 82, 0
2, 392896, Note_off_c, 3, 87, 0
2, 392896, Note_off_c, 3, 94, 0
2, 392896, Note_on_c, 3, 78, 91
2, 392917, Note_off_c, 3, 94, 0
2, 392917, Note_on_c, 3, 88, 69
2, 392928, Note_off_c, 3, 78, 0
2, 392928, Note_on_c, 3, 81, 99
2, 392960, Note_off_c, 3, 88, 0
2, 392960, Note_off_c, 3, 81, 0
2, 392960, Note_on_c, 3, 91, 94
2, 392960, Note_on_c, 3, 88, 103
2, 392960, Note_on_c, 3, 75, 96
2, 392960, Note_on_c, 3, 77, 96
2, 392960, Note_on_c, 3, 79, 96
2, 392960, Note_on_c, 3, 82, 96
2, 392960, Note_on_c, 3, 87, 96
2, 392960, Note_on_c, 3, 94, 96
2, 392990, Note_off_c, 3, 88, 0
2, 393020, Note_off_c, 3, 91, 0
2, 393024, Note_off_c, 3, 75, 0
2, 393024, Note_off_c, 3, 77, 0
2, 393024, Note_off_c, 3, 79, 0
2, 393024, Note_off_c, 3, 82, 0
2, 393024, Note_off_c, 3, 87, 0
2, 393024, Note_off_c, 3, 94, 0
2, 393088, Note_on_c, 3, 75, 98
2, 393088, Note_on_c, 3, 79, 98
2, 393088, Note_on_c, 3, 82, 98
2, 393088, Note_on_c, 3, 87, 98
2, 393088, Note_on_c, 3, 94, 98
2, 393152, Note_off_c, 3, 75, 0
2, 393152, Note_off_c, 3, 79, 0
2, 393152, Note_off_c, 3, 82, 0
2, 393152, Note_off_c, 3, 87, 0
2, 393152, Note_off_c, 3, 94, 0
2, 393280, Note_on_c, 3, 73, 75
2, 393344, Note_on_c, 3, 81, 86
2, 393345, Note_off_c, 3, 73, 0
2, 393386, Note_on_c, 3, 82, 76
2, 393408, Note_on_c, 3, 76, 79
2, 393409, Note_off_c, 3, 81, 0
2, 393472, Note_on_c, 3, 90, 89
2, 393472, Note_on_c, 3, 84, 96
2, 393472, Note_on_c, 3, 75, 86
2, 393472, Note_on_c, 3, 79, 86
2, 393472, Note_on_c, 3, 82, 86
2, 393472, Note_on_c, 3, 87, 86
2, 393472, Note_on_c, 3, 94, 86
2, 393473, Note_off_c, 3, 82, 0
2, 393473, Note_off_c, 3, 76, 0
2, 393536, Note_off_c, 3, 75, 0
2, 393536, Note_off_c, 3, 79, 0
2, 393536, Note_off_c, 3, 82, 0
2, 393536, Note_off_c, 3, 87, 0
2, 393536, Note_off_c, 3, 94, 0
2, 393536, Note_on_c, 3, 85, 92
2, 393537, Note_off_c, 3, 84, 0
2, 393557, Note_on_c, 3, 94, 95
2, 393558, Note_off_c, 3, 90, 0
2, 393600, Note_on_c, 3, 82, 85
2, 393600, Note_on_c, 3, 75, 98
2, 393600, Note_on_c, 3, 79, 98
2, 393600, Note_on_c, 3, 82, 98
2, 393600, Note_on_c, 3, 87, 98
2, 393600, Note_on_c, 3, 94, 98
2, 393601, Note_off_c, 3, 85, 0
2, 393642, Note_on_c, 3, 97, 105
2, 393643, Note_off_c, 3, 94, 0
2, 393664, Note_off_c, 3, 75, 0
2, 393664, Note_off_c, 3, 79, 0
2, 393664, Note_off_c, 3, 82, 0
2, 393664, Note_off_c, 3, 87, 0
2, 393664, Note_off_c, 3, 94, 0
2, 393664, Note_on_c, 3, 81, 81
2, 393665, Note_off_c, 3, 82, 0
2, 393728, Note_on_c, 3, 100, 89
2, 393728, Note_on_c, 3, 87, 78
2, 393728, Note_on_c, 3, 94, 78
2, 393728, Note_on_c, 3, 73, 66
2, 393728, Note_on_c, 3, 72, 93
2, 393728, Note_on_c, 3, 76, 93
2, 393728, Note_on_c, 3, 79, 93
2, 393728, Note_on_c, 3, 87, 93
2, 393728, Note_on_c, 3, 94, 93
2, 393729, Note_off_c, 3, 97, 0
2, 393729, Note_off_c, 3, 81, 0
2, 393792, Note_off_c, 3, 87, 0
2, 393792, Note_off_c, 3, 94, 0
2, 393792, Note_off_c, 3, 72, 0
2, 393792, Note_off_c, 3, 76, 0
2, 393792, Note_off_c, 3, 79, 0
2, 393792, Note_off_c, 3, 87, 0
2, 393792, Note_off_c, 3, 94, 0
2, 393792, Note_on_c, 3, 81, 95
2, 393793, Note_off_c, 3, 73, 0
2, 393813, Note_on_c, 3, 105, 104
2, 393814, Note_off_c, 3, 100, 0
2, 393856, Note_on_c, 3, 87, 82
2, 393856, Note_on_c, 3, 94, 82
2, 393856, Note_on_c, 3, 87, 111
2, 393856, Note_on_c, 3, 70, 95
2, 393856, Note_on_c, 3, 75, 95
2, 393856, Note_on_c, 3, 79, 95
2, 393856, Note_on_c, 3, 87, 95
2, 393856, Note_on_c, 3, 94, 95
2, 393857, Note_off_c, 3, 81, 0
2, 393893, Note_off_c, 3, 105, 0
2, 393916, Note_off_c, 3, 87, 0
2, 393920, Note_off_c, 3, 87, 0
2, 393920, Note_off_c, 3, 94, 0
2, 393920, Note_off_c, 3, 70, 0
2, 393920, Note_off_c, 3, 75, 0
2, 393920, Note_off_c, 3, 79, 0
2, 393920, Note_off_c, 3, 87, 0
2, 393920, Note_off_c, 3, 94, 0
2, 393984, Note_on_c, 3, 101, 74
2, 393984, Note_on_c, 3, 87, 82
2, 393984, Note_on_c, 3, 94, 82
2, 393984, Note_on_c, 3, 70, 95
2, 393984, Note_on_c, 3, 75, 95
2, 393984, Note_on_c, 3, 79, 95
2, 393984, Note_on_c, 3, 87, 95
2, 393984, Note_on_c, 3, 94, 95
2, 394048, Note_off_c, 3, 87, 0
2, 394048, Note_off_c, 3, 94, 0
2, 394048, Note_off_c, 3, 70, 0
2, 394048, Note_off_c, 3, 75, 0
2, 394048, Note_off_c, 3, 79, 0
2, 394048, Note_off_c, 3, 87, 0
2, 394048, Note_off_c, 3, 94, 0
2, 394069, Note_on_c, 3, 102, 75
2, 394070, Note_off_c, 3, 101, 0
2, 394112, Note_on_c, 3, 87, 86
2, 394112, Note_on_c, 3, 94, 86
2, 394112, Note_on_c, 3, 72, 97
2, 394112, Note_on_c, 3, 76, 97
2, 394112, Note_on_c, 3, 79, 97
2, 394112, Note_on_c, 3, 87, 97
2, 394112, Note_on_c, 3, 94, 97
2, 394154, Note_on_c, 3, 99, 77
2, 394155, Note_off_c, 3, 102, 0
2, 394176, Note_off_c, 3, 87, 0
2, 394176, Note_off_c, 3, 94, 0
2, 394176, Note_off_c, 3, 72, 0
2, 394176, Note_off_c, 3, 76, 0
2, 394176, Note_off_c, 3, 79, 0
2, 394176, Note_off_c, 3, 87, 0
2, 394176, Note_off_c, 3, 94, 0
2, 394235, Note_off_c, 3, 99, 0
2, 394240, Note_on_c, 3, 87, 83
2, 394240, Note_on_c, 3, 94, 83
2, 394240, Note_on_c, 3, 70, 93
2, 394240, Note_on_c, 3, 75, 93
2, 394240, Note_on_c, 3, 79, 93
2, 394240, Note_on_c, 3, 87, 93
2, 394240, Note_on_c, 3, 94, 93
2, 394304, Note_off_c, 3, 87, 0
2, 394304, Note_off_c, 3, 94, 0
2, 394304, Note_off_c, 3, 70, 0
2, 394304, Note_off_c, 3, 75, 0
2, 394304, Note_off_c, 3, 79, 0
2, 394304, Note_off_c, 3, 87, 0
2, 394304, Note_off_c, 3, 94, 0
2, 394368, Note_on_c, 3, 87, 83
2, 394368, Note_on_c, 3, 94, 83
2, 394368, Note_on_c, 3, 70, 100
2, 394368, Note_on_c, 3, 75, 100
2, 394368, Note_on_c, 3, 79, 100
2, 394368, Note_on_c, 3, 87, 100
2, 394368, Note_on_c, 3, 94, 100
2, 394432, Note_off_c, 3, 87, 0
2, 394432, Note_off_c, 3, 94, 0
2, 394432, Note_off_c, 3, 70, 0
2, 394432, Note_off_c, 3, 75, 0
2, 394432, Note_off_c, 3, 79, 0
2, 394432, Note_off_c, 3, 87, 0
2, 394432, Note_off_c, 3, 94, 0
2, 394496, Note_on_c, 3, 87, 84
2, 394496, Note_on_c, 3, 94, 84
2, 394496, Note_on_c, 3, 72, 98
2, 394496, Note_on_c, 3, 76, 98
2, 394496, Note_on_c, 3, 79, 98
2, 394496, Note_on_c, 3, 87, 98
2, 394496, Note_on_c, 3, 94, 98
2, 394560, Note_off_c, 3, 87, 0
2, 394560, Note_off_c, 3, 94, 0
2, 394560, Note_off_c, 3, 72, 0
2, 394560, Note_off_c, 3, 76, 0
2, 394560, Note_off_c, 3, 79, 0
2, 394560, Note_off_c, 3, 87, 0
2, 394560, Note_off_c, 3, 94, 0
2, 394624, Note_on_c, 3, 87, 83
2, 394624, Note_on_c, 3, 94, 83
2, 394624, Note_on_c, 3, 70, 98
2, 394624, Note_on_c, 3, 75, 98
2, 394624, Note_on_c, 3, 79, 98
2, 394624, Note_on_c, 3, 87, 98
2, 394624, Note_on_c, 3, 94, 98
2, 394688, Note_off_c, 3, 87, 0
2, 394688, Note_off_c, 3, 94, 0
2, 394688, Note_off_c, 3, 70, 0
2, 394688, Note_off_c, 3, 75, 0
2, 394688, Note_off_c, 3, 79, 0
2, 394688, Note_off_c, 3, 87, 0
2, 394688, Note_off_c, 3, 94, 0
2, 394752, Note_on_c, 3, 87, 83
2, 394752, Note_on_c, 3, 94, 83
2, 394752, Note_on_c, 3, 70, 99
2, 394752, Note_on_c, 3, 75, 99
2, 394752, Note_on_c, 3, 79, 99
2, 394752, Note_on_c, 3, 87, 99
2, 394752, Note_on_c, 3, 94, 99
2, 394816, Note_off_c, 3, 87, 0
2, 394816, Note_off_c, 3, 94, 0
2, 394816, Note_off_c, 3, 70, 0
2, 394816, Note_off_c, 3, 75, 0
2, 394816, Note_off_c, 3, 79, 0
2, 394816, Note_off_c, 3, 87, 0
2, 394816, Note_off_c, 3, 94, 0
2, 394837, Note_on_c, 3, 100, 70
2, 394880, Note_on_c, 3, 87, 80
2, 394880, Note_on_c, 3, 94, 80
2, 394880, Note_on_c, 3, 72, 98
2, 394880, Note_on_c, 3, 76, 98
2, 394880, Note_on_c, 3, 79, 98
2, 394880, Note_on_c, 3, 87, 98
2, 394880, Note_on_c, 3, 94, 98
2, 394922, Note_on_c, 3, 93, 57
2, 394923, Note_off_c, 3, 100, 0
2, 394944, Note_off_c, 3, 87, 0
2, 394944, Note_off_c, 3, 94, 0
2, 394944, Note_off_c, 3, 72, 0
2, 394944, Note_off_c, 3, 76, 0
2, 394944, Note_off_c, 3, 79, 0
2, 394944, Note_off_c, 3, 87, 0
2, 394944, Note_off_c, 3, 94, 0
2, 395008, Note_on_c, 3, 87, 67
2, 395009, Note_off_c, 3, 93, 0
2, 395093, Note_on_c, 3, 88, 69
2, 395094, Note_off_c, 3, 87, 0
2, 395178, Note_on_c, 3, 94, 97
2, 395179, Note_off_c, 3, 88, 0
2, 395264, Note_on_c, 3, 81, 69
2, 395264, Note_on_c, 3, 82, 74
2, 395264, Note_on_c, 3, 87, 74
2, 395264, Note_on_c, 3, 94, 74
2, 395264, Note_on_c, 3, 70, 89
2, 395264, Note_on_c, 3, 75, 89
2, 395264, Note_on_c, 3, 79, 89
2, 395264, Note_on_c, 3, 87, 89
2, 395264, Note_on_c, 3, 94, 89
2, 395265, Note_off_c, 3, 94, 0
2, 395328, Note_off_c, 3, 82, 0
2, 395328, Note_off_c, 3, 87, 0
2, 395328, Note_off_c, 3, 94, 0
2, 395328, Note_off_c, 3, 70, 0
2, 395328, Note_off_c, 3, 75, 0
2, 395328, Note_off_c, 3, 79, 0
2, 395328, Note_off_c, 3, 87, 0
2, 395328, Note_off_c, 3, 94, 0
2, 395349, Note_on_c, 3, 85, 88
2, 395350, Note_off_c, 3, 81, 0
2, 395392, Note_on_c, 3, 82, 84
2, 395392, Note_on_c, 3, 87, 84
2, 395392, Note_on_c, 3, 94, 84
2, 395392, Note_on_c, 3, 70, 98
2, 395392, Note_on_c, 3, 75, 98
2, 395392, Note_on_c, 3, 79, 98
2, 395392, Note_on_c, 3, 87, 98
2, 395392, Note_on_c, 3, 94, 98
2, 395429, Note_off_c, 3, 85, 0
2, 395456, Note_off_c, 3, 82, 0
2, 395456, Note_off_c, 3, 87, 0
2, 395456, Note_off_c, 3, 94, 0
2, 395456, Note_off_c, 3, 70, 0
2, 395456, Note_off_c, 3, 75, 0
2, 395456, Note_off_c, 3, 79, 0
2, 395456, Note_off_c, 3, 87, 0
2, 395456, Note_off_c, 3, 94, 0
2, 395520, Note_on_c, 3, 82, 90
2, 395520, Note_on_c, 3, 87, 90
2, 395520, Note_on_c, 3, 94, 90
2, 395520, Note_on_c, 3, 72, 94
2, 395520, Note_on_c, 3, 76, 94
2, 395520, Note_on_c, 3, 79, 94
2, 395520, Note_on_c, 3, 87, 94
2, 395520, Note_on_c, 3, 94, 94
2, 395584, Note_off_c, 3, 82, 0
2, 395584, Note_off_c, 3, 87, 0
2, 395584, Note_off_c, 3, 94, 0
2, 395584, Note_off_c, 3, 72, 0
2, 395584, Note_off_c, 3, 76, 0
2, 395584, Note_off_c, 3, 79, 0
2, 395584, Note_off_c, 3, 87, 0
2, 395584, Note_off_c, 3, 94, 0
2, 395648, Note_on_c, 3, 82, 87
2, 395648, Note_on_c, 3, 87, 87
2, 395648, Note_on_c, 3, 94, 87
2, 395648, Note_on_c, 3, 70, 96
2, 395648, Note_on_c, 3, 75, 96
2, 395648, Note_on_c, 3, 79, 96
2, 395648, Note_on_c, 3, 87, 96
2, 395648, Note_on_c, 3, 94, 96
2, 395712, Note_off_c, 3, 82, 0
2, 395712, Note_off_c, 3, 87, 0
2, 395712, Note_off_c, 3, 94, 0
2, 395712, Note_off_c, 3, 70, 0
2, 395712, Note_off_c, 3, 75, 0
2, 395712, Note_off_c, 3, 79, 0
2, 395712, Note_off_c, 3, 87, 0
2, 395712, Note_off_c, 3, 94, 0
2, 395818, Note_on_c, 3, 97, 74
2, 395861, Note_off_c, 3, 97, 0
2, 395861, Note_on_c, 3, 88, 61
2, 395904, Note_off_c, 3, 88, 0
2, 395904, Note_on_c, 3, 90, 84
2, 395904, Note_on_c, 3, 82, 75
2, 395904, Note_on_c, 3, 87, 75
2, 395904, Note_on_c, 3, 94, 75
2, 395904, Note_on_c, 3, 72, 87
2, 395904, Note_on_c, 3, 76, 87
2, 395904, Note_on_c, 3, 79, 87
2, 395904, Note_on_c, 3, 87, 87
2, 395904, Note_on_c, 3, 94, 87
2, 395946, Note_off_c, 3, 90, 0
2, 395946, Note_on_c, 3, 85, 79
2, 395968, Note_off_c, 3, 82, 0
2, 395968, Note_off_c, 3, 87, 0
2, 395968, Note_off_c, 3, 94, 0
2, 395968, Note_off_c, 3, 72, 0
2, 395968, Note_off_c, 3, 76, 0
2, 395968, Note_off_c, 3, 79, 0
2, 395968, Note_off_c, 3, 87, 0
2, 395968, Note_off_c, 3, 94, 0
2, 395989, Note_off_c, 3, 85, 0
2, 395989, Note_on_c, 3, 79, 66
2, 396029, Note_off_c, 3, 79, 0
2, 396032, Note_on_c, 3, 82, 85
2, 396032, Note_on_c, 3, 87, 85
2, 396032, Note_on_c, 3, 94, 85
2, 396032, Note_on_c, 3, 70, 100
2, 396032, Note_on_c, 3, 75, 100
2, 396032, Note_on_c, 3, 79, 100
2, 396032, Note_on_c, 3, 87, 100
2, 396032, Note_on_c, 3, 94, 100
2, 396096, Note_off_c, 3, 82, 0
2, 396096, Note_off_c, 3, 87, 0
2, 396096, Note_off_c, 3, 94, 0
2, 396096, Note_off_c, 3, 70, 0
2, 396096, Note_off_c, 3, 75, 0
2, 396096, Note_off_c, 3, 79, 0
2, 396096, Note_off_c, 3, 87, 0
2, 396096, Note_off_c, 3, 94, 0
2, 396288, Note_on_c, 3, 82, 72
2, 396288, Note_on_c, 3, 87, 72
2, 396288, Note_on_c, 3, 94, 72
2, 396288, Note_on_c, 3, 72, 90
2, 396288, Note_on_c, 3, 76, 90
2, 396288, Note_on_c, 3, 79, 90
2, 396288, Note_on_c, 3, 87, 90
2, 396288, Note_on_c, 3, 94, 90
2, 396352, Note_off_c, 3, 82, 0
2, 396352, Note_off_c, 3, 87, 0
2, 396352, Note_off_c, 3, 94, 0
2, 396352, Note_off_c, 3, 72, 0
2, 396352, Note_off_c, 3, 76, 0
2, 396352, Note_off_c, 3, 79, 0
2, 396352, Note_off_c, 3, 87, 0
2, 396352, Note_off_c, 3, 94, 0
2, 396416, Note_on_c, 3, 82, 82
2, 396416, Note_on_c, 3, 87, 82
2, 396416, Note_on_c, 3, 94, 82
2, 396416, Note_on_c, 3, 70, 96
2, 396416, Note_on_c, 3, 75, 96
2, 396416, Note_on_c, 3, 79, 96
2, 396416, Note_on_c, 3, 87, 96
2, 396416, Note_on_c, 3, 94, 96
2, 396480, Note_off_c, 3, 82, 0
2, 396480, Note_off_c, 3, 87, 0
2, 396480, Note_off_c, 3, 94, 0
2, 396480, Note_off_c, 3, 70, 0
2, 396480, Note_off_c, 3, 75, 0
2, 396480, Note_off_c, 3, 79, 0
2, 396480, Note_off_c, 3, 87, 0
2, 396480, Note_off_c, 3, 94, 0
2, 396672, Note_on_c, 3, 82, 79
2, 396672, Note_on_c, 3, 87, 79
2, 396672, Note_on_c, 3, 94, 79
2, 396672, Note_on_c, 3, 72, 90
2, 396672, Note_on_c, 3, 76, 90
2, 396672, Note_on_c, 3, 79, 90
2, 396672, Note_on_c, 3, 87, 90
2, 396672, Note_on_c, 3, 94, 90
2, 396736, Note_off_c, 3, 82, 0
2, 396736, Note_off_c, 3, 87, 0
2, 396736, Note_off_c, 3, 94, 0
2, 396736, Note_off_c, 3, 72, 0
2, 396736, Note_off_c, 3, 76, 0
2, 396736, Note_off_c, 3, 79, 0
2, 396736, Note_off_c, 3, 87, 0
2, 396736, Note_off_c, 3, 94, 0
2, 397184, Note_on_c, 3, 82, 76
2, 397184, Note_on_c, 3, 87, 76
2, 397184, Note_on_c, 3, 94, 76
2, 397184, Note_on_c, 3, 70, 88
2, 397184, Note_on_c, 3, 75, 88
2, 397184, Note_on_c, 3, 79, 88
2, 397184, Note_on_c, 3, 87, 88
2, 397184, Note_on_c, 3, 94, 88
2, 397248, Note_off_c, 3, 82, 0
2, 397248, Note_off_c, 3, 87, 0
2, 397248, Note_off_c, 3, 94, 0
2, 397248, Note_off_c, 3, 70, 0
2, 397248, Note_off_c, 3, 75, 0
2, 397248, Note_off_c, 3, 79, 0
2, 397248, Note_off_c, 3, 87, 0
2, 397248, Note_off_c, 3, 94, 0
2, 397312, Note_on_c, 3, 82, 77
2, 397312, Note_on_c, 3, 87, 77
2, 397312, Note_on_c, 3, 94, 77
2, 397312, Note_on_c, 3, 70, 97
2, 397312, Note_on_c, 3, 75, 97
2, 397312, Note_on_c, 3, 79, 97
2, 397312, Note_on_c, 3, 87, 97
2, 397312, Note_on_c, 3, 94, 97
2, 397376, Note_off_c, 3, 82, 0
2, 397376, Note_off_c, 3, 87, 0
2, 397376, Note_off_c, 3, 94, 0
2, 397376, Note_off_c, 3, 70, 0
2, 397376, Note_off_c, 3, 75, 0
2, 397376, Note_off_c, 3, 79, 0
2, 397376, Note_off_c, 3, 87, 0
2, 397376, Note_off_c, 3, 94, 0
2, 397440, Note_on_c, 3, 82, 85
2, 397440, Note_on_c, 3, 87, 85
2, 397440, Note_on_c, 3, 94, 85
2, 397440, Note_on_c, 3, 72, 95
2, 397440, Note_on_c, 3, 76, 95
2, 397440, Note_on_c, 3, 79, 95
2, 397440, Note_on_c, 3, 87, 95
2, 397440, Note_on_c, 3, 94, 95
2, 397504, Note_off_c, 3, 82, 0
2, 397504, Note_off_c, 3, 87, 0
2, 397504, Note_off_c, 3, 94, 0
2, 397504, Note_off_c, 3, 72, 0
2, 397504, Note_off_c, 3, 76, 0
2, 397504, Note_off_c, 3, 79, 0
2, 397504, Note_off_c, 3, 87, 0
2, 397504, Note_off_c, 3, 94, 0
2, 397568, Note_on_c, 3, 82, 86
2, 397568, Note_on_c, 3, 87, 86
2, 397568, Note_on_c, 3, 94, 86
2, 397568, Note_on_c, 3, 70, 100
2, 397568, Note_on_c, 3, 75, 100
2, 397568, Note_on_c, 3, 79, 100
2, 397568, Note_on_c, 3, 87, 100
2, 397568, Note_on_c, 3, 94, 100
2, 397632, Note_off_c, 3, 82, 0
2, 397632, Note_off_c, 3, 87, 0
2, 397632, Note_off_c, 3, 94, 0
2, 397632, Note_off_c, 3, 70, 0
2, 397632, Note_off_c, 3, 75, 0
2, 397632, Note_off_c, 3, 79, 0
2, 397632, Note_off_c, 3, 87, 0
2, 397632, Note_off_c, 3, 94, 0
2, 397632, Note_on_c, 3, 79, 72
2, 397696, Note_on_c, 3, 84, 85
2, 397697, Note_off_c, 3, 79, 0
2, 397760, Note_on_c, 3, 85, 88
2, 397761, Note_off_c, 3, 84, 0
2, 397824, Note_on_c, 3, 90, 102
2, 397824, Note_on_c, 3, 82, 74
2, 397824, Note_on_c, 3, 87, 74
2, 397824, Note_on_c, 3, 94, 74
2, 397824, Note_on_c, 3, 72, 87
2, 397824, Note_on_c, 3, 76, 87
2, 397824, Note_on_c, 3, 79, 87
2, 397824, Note_on_c, 3, 87, 87
2, 397824, Note_on_c, 3, 94, 87
2, 397825, Note_off_c, 3, 85, 0
2, 397888, Note_off_c, 3, 82, 0
2, 397888, Note_off_c, 3, 87, 0
2, 397888, Note_off_c, 3, 94, 0
2, 397888, Note_off_c, 3, 72, 0
2, 397888, Note_off_c, 3, 76, 0
2, 397888, Note_off_c, 3, 79, 0
2, 397888, Note_off_c, 3, 87, 0
2, 397888, Note_off_c, 3, 94, 0
2, 397888, Note_on_c, 3, 93, 93
2, 397889, Note_off_c, 3, 90, 0
2, 397952, Note_on_c, 3, 85, 77
2, 397952, Note_on_c, 3, 82, 89
2, 397952, Note_on_c, 3, 87, 89
2, 397952, Note_on_c, 3, 94, 89
2, 397952, Note_on_c, 3, 70, 100
2, 397952, Note_on_c, 3, 75, 100
2, 397952, Note_on_c, 3, 79, 100
2, 397952, Note_on_c, 3, 87, 100
2, 397952, Note_on_c, 3, 94, 100
2, 397953, Note_off_c, 3, 93, 0
2, 398016, Note_off_c, 3, 82, 0
2, 398016, Note_off_c, 3, 87, 0
2, 398016, Note_off_c, 3, 94, 0
2, 398016, Note_off_c, 3, 70, 0
2, 398016, Note_off_c, 3, 75, 0
2, 398016, Note_off_c, 3, 79, 0
2, 398016, Note_off_c, 3, 87, 0
2, 398016, Note_off_c, 3, 94, 0
2, 398016, Note_on_c, 3, 87, 81
2, 398017, Note_off_c, 3, 85, 0
2, 398080, Note_on_c, 3, 90, 87
2, 398081, Note_off_c, 3, 87, 0
2, 398144, Note_on_c, 3, 97, 103
2, 398145, Note_off_c, 3, 90, 0
2, 398208, Note_on_c, 3, 102, 120
2, 398208, Note_on_c, 3, 82, 84
2, 398208, Note_on_c, 3, 87, 84
2, 398208, Note_on_c, 3, 94, 84
2, 398208, Note_on_c, 3, 72, 96
2, 398208, Note_on_c, 3, 76, 96
2, 398208, Note_on_c, 3, 79, 96
2, 398208, Note_on_c, 3, 87, 96
2, 398208, Note_on_c, 3, 94, 96
2, 398209, Note_off_c, 3, 97, 0
2, 398268, Note_off_c, 3, 102, 0
2, 398272, Note_off_c, 3, 82, 0
2, 398272, Note_off_c, 3, 87, 0
2, 398272, Note_off_c, 3, 94, 0
2, 398272, Note_off_c, 3, 72, 0
2, 398272, Note_off_c, 3, 76, 0
2, 398272, Note_off_c, 3, 79, 0
2, 398272, Note_off_c, 3, 87, 0
2, 398272, Note_off_c, 3, 94, 0
2, 398336, Note_on_c, 3, 85, 72
2, 398336, Note_on_c, 3, 82, 90
2, 398336, Note_on_c, 3, 87, 90
2, 398336, Note_on_c, 3, 94, 90
2, 398336, Note_on_c, 3, 70, 104
2, 398336, Note_on_c, 3, 75, 104
2, 398336, Note_on_c, 3, 79, 104
2, 398336, Note_on_c, 3, 87, 104
2, 398336, Note_on_c, 3, 94, 104
2, 398400, Note_off_c, 3, 82, 0
2, 398400, Note_off_c, 3, 87, 0
2, 398400, Note_off_c, 3, 94, 0
2, 398400, Note_off_c, 3, 70, 0
2, 398400, Note_off_c, 3, 75, 0
2, 398400, Note_off_c, 3, 79, 0
2, 398400, Note_off_c, 3, 87, 0
2, 398400, Note_off_c, 3, 94, 0
2, 398400, Note_on_c, 3, 94, 104
2, 398401, Note_off_c, 3, 85, 0
2, 398464, Note_on_c, 3, 97, 107
2, 398465, Note_off_c, 3, 94, 0
2, 398528, Note_on_c, 3, 103, 110
2, 398529, Note_off_c, 3, 97, 0
2, 398588, Note_off_c, 3, 103, 0
2, 398592, Note_on_c, 3, 82, 87
2, 398592, Note_on_c, 3, 87, 87
2, 398592, Note_on_c, 3, 94, 87
2, 398592, Note_on_c, 3, 72, 88
2, 398592, Note_on_c, 3, 76, 88
2, 398592, Note_on_c, 3, 79, 88
2, 398592, Note_on_c, 3, 87, 88
2, 398592, Note_on_c, 3, 94, 88
2, 398656, Note_off_c, 3, 82, 0
2, 398656, Note_off_c, 3, 87, 0
2, 398656, Note_off_c, 3, 94, 0
2, 398656, Note_off_c, 3, 72, 0
2, 398656, Note_off_c, 3, 76, 0
2, 398656, Note_off_c, 3, 79, 0
2, 398656, Note_off_c, 3, 87, 0
2, 398656, Note_off_c, 3, 94, 0
2, 406058, Note_on_c, 3, 63, 75
2, 406101, Note_off_c, 3, 63, 0
2, 406101, Note_on_c, 3, 64, 85
2, 406125, Note_on_c, 3, 76, 75
2, 406144, Note_off_c, 3, 64, 0
2, 406144, Note_on_c, 3, 66, 92
2, 406162, Note_off_c, 3, 76, 0
2, 406162, Note_on_c, 3, 78, 87
2, 406186, Note_off_c, 3, 66, 0
2, 406186, Note_on_c, 3, 69, 96
2, 406198, Note_off_c, 3, 78, 0
2, 406198, Note_on_c, 3, 81, 97
2, 406229, Note_off_c, 3, 69, 0
2, 406229, Note_on_c, 3, 73, 101
2, 406235, Note_off_c, 3, 81, 0
2, 406235, Note_on_c, 3, 85, 103
2, 406272, Note_off_c, 3, 85, 0
2, 406272, Note_off_c, 3, 73, 0
2, 406272, Note_on_c, 3, 87, 101
2, 406272, Note_on_c, 3, 75, 102
2, 406308, Note_off_c, 3, 87, 0
2, 406308, Note_on_c, 3, 90, 102
2, 406314, Note_off_c, 3, 75, 0
2, 406314, Note_on_c, 3, 78, 100
2, 406345, Note_off_c, 3, 90, 0
2, 406345, Note_on_c, 3, 93, 103
2, 406357, Note_off_c, 3, 78, 0
2, 406357, Note_on_c, 3, 81, 105
2, 406381, Note_off_c, 3, 93, 0
2, 406381, Note_on_c, 3, 96, 107
2, 406400, Note_off_c, 3, 81, 0
2, 406400, Note_on_c, 3, 84, 104
2, 406418, Note_off_c, 3, 96, 0
2, 406418, Note_on_c, 3, 93, 86
2, 406442, Note_off_c, 3, 84, 0
2, 406442, Note_on_c, 3, 81, 87
2, 406454, Note_off_c, 3, 93, 0
2, 406454, Note_on_c, 3, 90, 83
2, 406485, Note_off_c, 3, 81, 0
2, 406485, Note_on_c, 3, 78, 87
2, 406491, Note_off_c, 3, 90, 0
2, 406491, Note_on_c, 3, 85, 80
2, 406528, Note_off_c, 3, 85, 0
2, 406528, Note_off_c, 3, 78, 0
2, 406528, Note_on_c, 3, 81, 76
2, 406528, Note_on_c, 3, 73, 76
2, 406564, Note_off_c, 3, 81, 0
2, 406564, Note_on_c, 3, 76, 76
2, 406570, Note_off_c, 3, 73, 0
2, 406570, Note_on_c, 3, 69, 79
2, 406599, Note_off_c, 3, 76, 0
2, 406613, Note_off_c, 3, 69, 0
2, 406613, Note_on_c, 3, 64, 71
2, 406653, Note_off_c, 3, 64, 0
2, 409130, Note_on_c, 3, 63, 78
2, 409173, Note_off_c, 3, 63, 0
2, 409173, Note_on_c, 3, 64, 86
2, 409197, Note_on_c, 3, 76, 72
2, 409216, Note_off_c, 3, 64, 0
2, 409216, Note_on_c, 3, 66, 90
2, 409234, Note_off_c, 3, 76, 0
2, 409234, Note_on_c, 3, 78, 88
2, 409258, Note_off_c, 3, 66, 0
2, 409258, Note_on_c, 3, 69, 99
2, 409270, Note_off_c, 3, 78, 0
2, 409270, Note_on_c, 3, 81, 96
2, 409301, Note_off_c, 3, 69, 0
2, 409301, Note_on_c, 3, 73, 100
2, 409307, Note_off_c, 3, 81, 0
2, 409307, Note_on_c, 3, 85, 98
2, 409344, Note_off_c, 3, 85, 0
2, 409344, Note_off_c, 3, 73, 0
2, 409344, Note_on_c, 3, 87, 97
2, 409344, Note_on_c, 3, 75, 100
2, 409380, Note_off_c, 3, 87, 0
2, 409380, Note_on_c, 3, 90, 101
2, 409386, Note_off_c, 3, 75, 0
2, 409386, Note_on_c, 3, 78, 101
2, 409417, Note_off_c, 3, 90, 0
2, 409417, Note_on_c, 3, 93, 101
2, 409429, Note_off_c, 3, 78, 0
2, 409429, Note_on_c, 3, 81, 106
2, 409453, Note_off_c, 3, 93, 0
2, 409453, Note_on_c, 3, 96, 105
2, 409472, Note_off_c, 3, 81, 0
2, 409472, Note_on_c, 3, 84, 108
2, 409490, Note_off_c, 3, 96, 0
2, 409490, Note_on_c, 3, 93, 91
2, 409514, Note_off_c, 3, 84, 0
2, 409514, Note_on_c, 3, 81, 89
2, 409526, Note_off_c, 3, 93, 0
2, 409526, Note_on_c, 3, 90, 85
2, 409557, Note_off_c, 3, 81, 0
2, 409557, Note_on_c, 3, 78, 83
2, 409563, Note_off_c, 3, 90, 0
2, 409563, Note_on_c, 3, 85, 80
2, 409600, Note_off_c, 3, 85, 0
2, 409600, Note_off_c, 3, 78, 0
2, 409600, Note_on_c, 3, 81, 74
2, 409600, Note_on_c, 3, 73, 79
2, 409636, Note_off_c, 3, 81, 0
2, 409636, Note_on_c, 3, 76, 69
2, 409642, Note_off_c, 3, 73, 0
2, 409642, Note_on_c, 3, 69, 80
2, 409671, Note_off_c, 3, 76, 0
2, 409685, Note_off_c, 3, 69, 0
2, 409685, Note_on_c, 3, 64, 69
2, 409725, Note_off_c, 3, 64, 0
2, 411178, Note_on_c, 3, 64, 90
2, 411221, Note_off_c, 3, 64, 0
2, 411221, Note_on_c, 3, 65, 101
2, 411245, Note_on_c, 3, 77, 87
2, 411264, Note_off_c, 3, 65, 0
2, 411264, Note_on_c, 3, 67, 103
2, 411282, Note_off_c, 3, 77, 0
2, 411282, Note_on_c, 3, 79, 105
2, 411306, Note_off_c, 3, 67, 0
2, 411306, Note_on_c, 3, 70, 109
2, 411318, Note_off_c, 3, 79, 0
2, 411318, Note_on_c, 3, 82, 109
2, 411349, Note_off_c, 3, 70, 0
2, 411349, Note_on_c, 3, 73, 107
2, 411355, Note_off_c, 3, 82, 0
2, 411355, Note_on_c, 3, 85, 109
2, 411392, Note_off_c, 3, 85, 0
2, 411392, Note_off_c, 3, 73, 0
2, 411392, Note_on_c, 3, 88, 106
2, 411392, Note_on_c, 3, 76, 109
2, 411428, Note_off_c, 3, 88, 0
2, 411428, Note_on_c, 3, 91, 109
2, 411434, Note_off_c, 3, 76, 0
2, 411434, Note_on_c, 3, 79, 113
2, 411465, Note_off_c, 3, 91, 0
2, 411465, Note_on_c, 3, 94, 110
2, 411477, Note_off_c, 3, 79, 0
2, 411477, Note_on_c, 3, 82, 112
2, 411501, Note_off_c, 3, 94, 0
2, 411501, Note_on_c, 3, 95, 101
2, 411520, Note_off_c, 3, 82, 0
2, 411520, Note_on_c, 3, 83, 105
2, 411536, Note_off_c, 3, 95, 0
2, 411559, Note_off_c, 3, 83, 0
2, 412800, Note_on_c, 3, 66, 88
2, 412842, Note_off_c, 3, 66, 0
2, 412842, Note_on_c, 3, 69, 105
2, 412854, Note_on_c, 3, 84, 86
2, 412885, Note_off_c, 3, 69, 0
2, 412885, Note_on_c, 3, 76, 121
2, 412891, Note_off_c, 3, 84, 0
2, 412891, Note_on_c, 3, 87, 105
2, 412928, Note_off_c, 3, 87, 0
2, 412928, Note_off_c, 3, 76, 0
2, 412928, Note_on_c, 3, 94, 117
2, 412928, Note_on_c, 3, 78, 108
2, 412970, Note_off_c, 3, 78, 0
2, 412970, Note_on_c, 3, 82, 112
2, 412992, Note_on_c, 3, 96, 126
2, 412993, Note_off_c, 3, 94, 0
2, 413013, Note_off_c, 3, 82, 0
2, 413013, Note_on_c, 3, 88, 120
2, 413053, Note_off_c, 3, 88, 0
2, 413056, Note_on_c, 3, 100, 109
2, 413057, Note_off_c, 3, 96, 0
2, 413116, Note_off_c, 3, 100, 0
2, 414805, Note_on_c, 3, 63, 91
2, 414848, Note_off_c, 3, 63, 0
2, 414848, Note_on_c, 3, 68, 108
2, 414890, Note_off_c, 3, 68, 0
2, 414890, Note_on_c, 3, 69, 106
2, 414912, Note_on_c, 3, 81, 91
2, 414933, Note_off_c, 3, 69, 0
2, 414933, Note_on_c, 3, 73, 107
2, 414944, Note_off_c, 3, 81, 0
2, 414944, Note_on_c, 3, 85, 103
2, 414976, Note_off_c, 3, 85, 0
2, 414976, Note_off_c, 3, 73, 0
2, 414976, Note_on_c, 3, 90, 116
2, 414976, Note_on_c, 3, 78, 111
2, 415008, Note_off_c, 3, 90, 0
2, 415008, Note_on_c, 3, 85, 86
2, 415018, Note_off_c, 3, 78, 0
2, 415018, Note_on_c, 3, 75, 98
2, 415040, Note_off_c, 3, 85, 0
2, 415040, Note_on_c, 3, 81, 87
2, 415061, Note_off_c, 3, 75, 0
2, 415061, Note_on_c, 3, 69, 82
2, 415070, Note_off_c, 3, 81, 0
2, 415101, Note_off_c, 3, 69, 0
2, 415232, Note_on_c, 3, 82, 90
2, 415232, Note_on_c, 3, 70, 90
2, 415264, Note_off_c, 3, 82, 0
2, 415264, Note_on_c, 3, 87, 108
2, 415274, Note_off_c, 3, 70, 0
2, 415274, Note_on_c, 3, 75, 114
2, 415296, Note_off_c, 3, 87, 0
2, 415296, Note_on_c, 3, 90, 105
2, 415317, Note_off_c, 3, 75, 0
2, 415317, Note_on_c, 3, 78, 108
2, 415328, Note_off_c, 3, 90, 0
2, 415328, Note_on_c, 3, 92, 108
2, 415360, Note_off_c, 3, 92, 0
2, 415360, Note_off_c, 3, 78, 0
2, 415360, Note_on_c, 3, 93, 104
2, 415360, Note_on_c, 3, 80, 105
2, 415392, Note_off_c, 3, 93, 0
2, 415392, Note_on_c, 3, 87, 82
2, 415402, Note_off_c, 3, 80, 0
2, 415402, Note_on_c, 3, 81, 98
2, 415422, Note_off_c, 3, 87, 0
2, 415445, Note_off_c, 3, 81, 0
2, 415445, Note_on_c, 3, 72, 74
2, 415488, Note_off_c, 3, 72, 0
2, 415488, Note_on_c, 3, 78, 110
2, 415527, Note_off_c, 3, 78, 0
2, 415701, Note_on_c, 3, 78, 88
2, 415744, Note_off_c, 3, 78, 0
2, 415744, Note_on_c, 3, 92, 89
2, 415744, Note_on_c, 3, 80, 99
2, 415776, Note_off_c, 3, 92, 0
2, 415776, Note_on_c, 3, 94, 104
2, 415786, Note_off_c, 3, 80, 0
2, 415786, Note_on_c, 3, 85, 117
2, 415808, Note_off_c, 3, 94, 0
2, 415808, Note_on_c, 3, 97, 103
2, 415829, Note_off_c, 3, 85, 0
2, 415829, Note_on_c, 3, 87, 110
2, 415840, Note_off_c, 3, 97, 0
2, 415840, Note_on_c, 3, 99, 101
2, 415869, Note_off_c, 3, 87, 0
2, 415870, Note_off_c, 3, 99, 0
2, 416768, Note_on_c, 3, 99, 87
2, 416768, Note_on_c, 3, 87, 85
2, 416800, Note_off_c, 3, 99, 0
2, 416800, Note_on_c, 3, 97, 91
2, 416810, Note_off_c, 3, 87, 0
2, 416810, Note_on_c, 3, 85, 88
2, 416832, Note_off_c, 3, 97, 0
2, 416832, Note_on_c, 3, 93, 90
2, 416853, Note_off_c, 3, 85, 0
2, 416853, Note_on_c, 3, 81, 82
2, 416864, Note_off_c, 3, 93, 0
2, 416864, Note_on_c, 3, 92, 92
2, 416896, Note_off_c, 3, 92, 0
2, 416896, Note_off_c, 3, 81, 0
2, 416896, Note_on_c, 3, 90, 91
2, 416896, Note_on_c, 3, 80, 92
2, 416926, Note_off_c, 3, 90, 0
2, 416935, Note_off_c, 3, 80, 0
2, 417109, Note_on_c, 3, 78, 91
2, 417152, Note_off_c, 3, 78, 0
2, 417152, Note_on_c, 3, 87, 89
2, 417152, Note_on_c, 3, 75, 88
2, 417184, Note_off_c, 3, 87, 0
2, 417184, Note_on_c, 3, 93, 114
2, 417194, Note_off_c, 3, 75, 0
2, 417194, Note_on_c, 3, 81, 111
2, 417216, Note_off_c, 3, 93, 0
2, 417216, Note_on_c, 3, 92, 96
2, 417237, Note_off_c, 3, 81, 0
2, 417237, Note_on_c, 3, 80, 97
2, 417248, Note_off_c, 3, 92, 0
2, 417248, Note_on_c, 3, 90, 92
2, 417280, Note_off_c, 3, 90, 0
2, 417280, Note_off_c, 3, 80, 0
2, 417280, Note_on_c, 3, 87, 90
2, 417280, Note_on_c, 3, 78, 89
2, 417312, Note_off_c, 3, 87, 0
2, 417312, Note_on_c, 3, 82, 81
2, 417322, Note_off_c, 3, 78, 0
2, 417322, Note_on_c, 3, 75, 90
2, 417342, Note_off_c, 3, 82, 0
2, 417365, Note_off_c, 3, 75, 0
2, 417365, Note_on_c, 3, 70, 81
2, 417405, Note_off_c, 3, 70, 0
2, 417408, Note_on_c, 3, 81, 84
2, 417440, Note_off_c, 3, 81, 0
2, 417440, Note_on_c, 3, 87, 111
2, 417472, Note_off_c, 3, 87, 0
2, 417472, Note_on_c, 3, 90, 109
2, 417504, Note_off_c, 3, 90, 0
2, 417504, Note_on_c, 3, 85, 91
2, 417536, Note_off_c, 3, 85, 0
2, 417536, Note_on_c, 3, 81, 82
2, 417536, Note_on_c, 3, 69, 87
2, 417568, Note_off_c, 3, 81, 0
2, 417568, Note_on_c, 3, 80, 90
2, 417578, Note_off_c, 3, 69, 0
2, 417578, Note_on_c, 3, 75, 112
2, 417600, Note_off_c, 3, 80, 0
2, 417600, Note_on_c, 3, 87, 115
2, 417621, Note_off_c, 3, 75, 0
2, 417621, Note_on_c, 3, 78, 104
2, 417630, Note_off_c, 3, 87, 0
2, 417664, Note_off_c, 3, 78, 0
2, 417664, Note_on_c, 3, 73, 85
2, 417706, Note_off_c, 3, 73, 0
2, 417706, Note_on_c, 3, 81, 111
2, 417749, Note_off_c, 3, 81, 0
2, 417749, Note_on_c, 3, 80, 94
2, 417792, Note_off_c, 3, 80, 0
2, 417792, Note_on_c, 3, 87, 118
2, 417852, Note_off_c, 3, 87, 0
2, 418560, Note_on_c, 3, 94, 88
2, 418560, Note_on_c, 3, 82, 89
2, 418602, Note_off_c, 3, 82, 0
2, 418602, Note_on_c, 3, 97, 96
2, 418602, Note_on_c, 3, 85, 107
2, 418624, Note_on_c, 3, 98, 109
2, 418625, Note_off_c, 3, 94, 0
2, 418645, Note_off_c, 3, 97, 0
2, 418645, Note_off_c, 3, 85, 0
2, 418645, Note_on_c, 3, 98, 102
2, 418645, Note_on_c, 3, 86, 103
2, 418688, Note_off_c, 3, 98, 0
2, 418688, Note_off_c, 3, 86, 0
2, 418688, Note_on_c, 3, 100, 106
2, 418688, Note_on_c, 3, 88, 105
2, 418689, Note_off_c, 3, 98, 0
2, 418730, Note_off_c, 3, 88, 0
2, 418730, Note_on_c, 3, 101, 118
2, 418730, Note_on_c, 3, 91, 112
2, 418752, Note_on_c, 3, 101, 99
2, 418753, Note_off_c, 3, 100, 0
2, 418773, Note_off_c, 3, 101, 0
2, 418773, Note_off_c, 3, 91, 0
2, 418773, Note_on_c, 3, 103, 106
2, 418773, Note_on_c, 3, 93, 108
2, 418816, Note_off_c, 3, 103, 0
2, 418816, Note_off_c, 3, 93, 0
2, 418816, Note_on_c, 3, 105, 108
2, 418816, Note_on_c, 3, 92, 91
2, 418817, Note_off_c, 3, 101, 0
2, 418876, Note_off_c, 3, 105, 0
2, 418876, Note_off_c, 3, 92, 0
2, 419456, Note_on_c, 3, 95, 86
2, 419456, Note_on_c, 3, 82, 83
2, 419498, Note_off_c, 3, 95, 0
2, 419498, Note_off_c, 3, 82, 0
2, 419498, Note_on_c, 3, 97, 101
2, 419498, Note_on_c, 3, 83, 98
2, 419541, Note_off_c, 3, 97, 0
2, 419541, Note_off_c, 3, 83, 0
2, 419541, Note_on_c, 3, 98, 105
2, 419541, Note_on_c, 3, 85, 104
2, 419584, Note_off_c, 3, 98, 0
2, 419584, Note_off_c, 3, 85, 0
2, 419584, Note_on_c, 3, 100, 100
2, 419584, Note_on_c, 3, 86, 105
2, 419626, Note_off_c, 3, 100, 0
2, 419626, Note_off_c, 3, 86, 0
2, 419626, Note_on_c, 3, 98, 90
2, 419626, Note_on_c, 3, 88, 103
2, 419669, Note_off_c, 3, 98, 0
2, 419669, Note_off_c, 3, 88, 0
2, 419669, Note_on_c, 3, 102, 107
2, 419669, Note_on_c, 3, 90, 102
2, 419709, Note_off_c, 3, 102, 0
2, 419709, Note_off_c, 3, 90, 0
2, 420010, Note_on_c, 3, 105, 86
2, 420053, Note_off_c, 3, 105, 0
2, 420053, Note_on_c, 3, 103, 95
2, 420096, Note_off_c, 3, 103, 0
2, 420096, Note_on_c, 3, 102, 92
2, 420096, Note_on_c, 3, 90, 87
2, 420138, Note_off_c, 3, 102, 0
2, 420138, Note_on_c, 3, 100, 93
2, 420147, Note_on_c, 3, 88, 80
2, 420148, Note_off_c, 3, 90, 0
2, 420181, Note_off_c, 3, 100, 0
2, 420181, Note_on_c, 3, 99, 92
2, 420198, Note_on_c, 3, 87, 92
2, 420199, Note_off_c, 3, 88, 0
2, 420224, Note_off_c, 3, 99, 0
2, 420224, Note_on_c, 3, 97, 89
2, 420249, Note_on_c, 3, 85, 84
2, 420250, Note_off_c, 3, 87, 0
2, 420266, Note_off_c, 3, 97, 0
2, 420266, Note_on_c, 3, 100, 105
2, 420300, Note_on_c, 3, 88, 104
2, 420301, Note_off_c, 3, 85, 0
2, 420309, Note_off_c, 3, 100, 0
2, 420309, Note_on_c, 3, 96, 86
2, 420349, Note_off_c, 3, 88, 0
2, 420352, Note_off_c, 3, 96, 0
2, 420352, Note_on_c, 3, 93, 87
2, 420412, Note_off_c, 3, 93, 0
2, 420480, Note_on_c, 3, 84, 88
2, 420522, Note_off_c, 3, 84, 0
2, 420522, Note_on_c, 3, 81, 88
2, 420544, Note_on_c, 3, 79, 84
2, 420565, Note_off_c, 3, 81, 0
2, 420565, Note_on_c, 3, 79, 89
2, 420608, Note_off_c, 3, 79, 0
2, 420608, Note_off_c, 3, 79, 0
2, 420608, Note_on_c, 3, 78, 95
2, 420608, Note_on_c, 3, 78, 93
2, 420650, Note_on_c, 3, 82, 108
2, 420659, Note_on_c, 3, 82, 101
2, 420660, Note_off_c, 3, 78, 0
2, 420672, Note_off_c, 3, 78, 0
2, 420672, Note_on_c, 3, 82, 107
2, 420693, Note_off_c, 3, 82, 0
2, 420693, Note_on_c, 3, 76, 86
2, 420710, Note_on_c, 3, 76, 83
2, 420711, Note_off_c, 3, 82, 0
2, 420736, Note_off_c, 3, 82, 0
2, 420736, Note_off_c, 3, 76, 0
2, 420736, Note_on_c, 3, 75, 95
2, 420761, Note_on_c, 3, 73, 75
2, 420762, Note_off_c, 3, 76, 0
2, 420800, Note_off_c, 3, 75, 0
2, 420809, Note_off_c, 3, 73, 0
2, 424704, Note_on_c, 3, 84, 76
2, 424704, Note_on_c, 3, 90, 76
2, 424704, Note_on_c, 3, 81, 74
2, 424704, Note_on_c, 3, 78, 73
2, 424768, Note_off_c, 3, 81, 0
2, 424768, Note_on_c, 3, 88, 80
2, 424768, Note_on_c, 3, 93, 80
2, 424768, Note_on_c, 3, 81, 82
2, 424769, Note_off_c, 3, 84, 0
2, 424769, Note_off_c, 3, 90, 0
2, 424769, Note_off_c, 3, 78, 0
2, 424832, Note_off_c, 3, 93, 0
2, 424832, Note_on_c, 3, 93, 87
2, 424832, Note_on_c, 3, 96, 87
2, 424832, Note_on_c, 3, 88, 100
2, 424832, Note_on_c, 3, 84, 86
2, 424833, Note_off_c, 3, 88, 0
2, 424833, Note_off_c, 3, 81, 0
2, 424896, Note_off_c, 3, 96, 0
2, 424896, Note_off_c, 3, 88, 0
2, 424896, Note_on_c, 3, 96, 92
2, 424896, Note_on_c, 3, 98, 92
2, 424896, Note_on_c, 3, 86, 92
2, 424897, Note_off_c, 3, 93, 0
2, 424897, Note_off_c, 3, 84, 0
2, 424960, Note_off_c, 3, 98, 0
2, 424960, Note_on_c, 3, 98, 91
2, 424960, Note_on_c, 3, 102, 91
2, 424960, Note_on_c, 3, 93, 99
2, 424960, Note_on_c, 3, 90, 94
2, 424961, Note_off_c, 3, 96, 0
2, 424961, Note_off_c, 3, 86, 0
2, 425020, Note_off_c, 3, 98, 0
2, 425020, Note_off_c, 3, 102, 0
2, 425020, Note_off_c, 3, 90, 0
2, 425024, Note_off_c, 3, 93, 0
2, 425088, Note_on_c, 3, 98, 77
2, 425088, Note_on_c, 3, 102, 77
2, 425088, Note_on_c, 3, 93, 85
2, 425088, Note_on_c, 3, 90, 73
2, 425152, Note_off_c, 3, 93, 0
2, 425152, Note_on_c, 3, 93, 74
2, 425152, Note_on_c, 3, 100, 74
2, 425152, Note_on_c, 3, 88, 65
2, 425153, Note_off_c, 3, 98, 0
2, 425153, Note_off_c, 3, 102, 0
2, 425153, Note_off_c, 3, 90, 0
2, 425216, Note_on_c, 3, 98, 84
2, 425216, Note_on_c, 3, 102, 84
2, 425216, Note_on_c, 3, 93, 78
2, 425216, Note_on_c, 3, 90, 85
2, 425217, Note_off_c, 3, 93, 0
2, 425217, Note_off_c, 3, 100, 0
2, 425217, Note_off_c, 3, 88, 0
2, 425280, Note_off_c, 3, 98, 0
2, 425280, Note_off_c, 3, 93, 0
2, 425280, Note_on_c, 3, 93, 77
2, 425280, Note_on_c, 3, 98, 77
2, 425280, Note_on_c, 3, 86, 79
2, 425281, Note_off_c, 3, 102, 0
2, 425281, Note_off_c, 3, 90, 0
2, 425344, Note_off_c, 3, 93, 0
2, 425344, Note_on_c, 3, 90, 69
2, 425344, Note_on_c, 3, 93, 69
2, 425344, Note_on_c, 3, 86, 65
2, 425344, Note_on_c, 3, 81, 73
2, 425345, Note_off_c, 3, 98, 0
2, 425345, Note_off_c, 3, 86, 0
2, 425408, Note_off_c, 3, 90, 0
2, 425408, Note_off_c, 3, 86, 0
2, 425408, Note_on_c, 3, 86, 60
2, 425408, Note_on_c, 3, 90, 60
2, 425408, Note_on_c, 3, 78, 63
2, 425409, Note_off_c, 3, 93, 0
2, 425409, Note_off_c, 3, 81, 0
2, 425468, Note_off_c, 3, 86, 0
2, 425468, Note_off_c, 3, 90, 0
2, 425468, Note_off_c, 3, 78, 0
2, 425600, Note_on_c, 3, 97, 74
2, 425600, Note_on_c, 3, 102, 74
2, 425600, Note_on_c, 3, 93, 71
2, 425600, Note_on_c, 3, 90, 75
2, 425664, Note_off_c, 3, 93, 0
2, 425664, Note_on_c, 3, 93, 68
2, 425664, Note_on_c, 3, 98, 68
2, 425664, Note_on_c, 3, 86, 68
2, 425665, Note_off_c, 3, 97, 0
2, 425665, Note_off_c, 3, 102, 0
2, 425665, Note_off_c, 3, 90, 0
2, 425728, Note_off_c, 3, 98, 0
2, 425728, Note_on_c, 3, 98, 93
2, 425728, Note_on_c, 3, 102, 93
2, 425728, Note_on_c, 3, 93, 86
2, 425728, Note_on_c, 3, 90, 87
2, 425729, Note_off_c, 3, 93, 0
2, 425729, Note_off_c, 3, 86, 0
2, 425792, Note_off_c, 3, 98, 0
2, 425792, Note_off_c, 3, 93, 0
2, 425792, Note_on_c, 3, 93, 85
2, 425792, Note_on_c, 3, 98, 85
2, 425792, Note_on_c, 3, 86, 83
2, 425793, Note_off_c, 3, 102, 0
2, 425793, Note_off_c, 3, 90, 0
2, 425856, Note_off_c, 3, 98, 0
2, 425856, Note_on_c, 3, 98, 95
2, 425856, Note_on_c, 3, 102, 95
2, 425856, Note_on_c, 3, 93, 86
2, 425856, Note_on_c, 3, 90, 92
2, 425857, Note_off_c, 3, 93, 0
2, 425857, Note_off_c, 3, 86, 0
2, 425920, Note_off_c, 3, 98, 0
2, 425920, Note_off_c, 3, 93, 0
2, 425920, Note_on_c, 3, 93, 84
2, 425920, Note_on_c, 3, 98, 84
2, 425920, Note_on_c, 3, 86, 84
2, 425921, Note_off_c, 3, 102, 0
2, 425921, Note_off_c, 3, 90, 0
2, 425980, Note_off_c, 3, 93, 0
2, 425980, Note_off_c, 3, 98, 0
2, 425980, Note_off_c, 3, 86, 0
2, 426176, Note_on_c, 3, 98, 72
2, 426176, Note_on_c, 3, 102, 72
2, 426176, Note_on_c, 3, 93, 75
2, 426176, Note_on_c, 3, 90, 74
2, 426240, Note_off_c, 3, 98, 0
2, 426240, Note_on_c, 3, 93, 71
2, 426240, Note_on_c, 3, 98, 71
2, 426240, Note_on_c, 3, 86, 59
2, 426241, Note_off_c, 3, 102, 0
2, 426241, Note_off_c, 3, 90, 0
2, 426304, Note_off_c, 3, 98, 0
2, 426304, Note_off_c, 3, 93, 0
2, 426304, Note_on_c, 3, 98, 90
2, 426304, Note_on_c, 3, 102, 90
2, 426304, Note_on_c, 3, 93, 80
2, 426304, Note_on_c, 3, 90, 92
2, 426305, Note_off_c, 3, 93, 0
2, 426305, Note_off_c, 3, 86, 0
2, 426336, Note_off_c, 3, 93, 0
2, 426368, Note_off_c, 3, 98, 0
2, 426368, Note_on_c, 3, 93, 81
2, 426368, Note_on_c, 3, 98, 81
2, 426368, Note_on_c, 3, 86, 84
2, 426369, Note_off_c, 3, 102, 0
2, 426369, Note_off_c, 3, 90, 0
2, 426432, Note_off_c, 3, 98, 0
2, 426432, Note_on_c, 3, 98, 90
2, 426432, Note_on_c, 3, 102, 90
2, 426432, Note_on_c, 3, 93, 75
2, 426432, Note_on_c, 3, 90, 90
2, 426433, Note_off_c, 3, 93, 0
2, 426433, Note_off_c, 3, 86, 0
2, 426496, Note_off_c, 3, 98, 0
2, 426496, Note_on_c, 3, 93, 80
2, 426496, Note_on_c, 3, 98, 80
2, 426496, Note_on_c, 3, 86, 79
2, 426497, Note_off_c, 3, 102, 0
2, 426497, Note_off_c, 3, 90, 0
2, 426560, Note_off_c, 3, 93, 0
2, 426560, Note_on_c, 3, 90, 79
2, 426560, Note_on_c, 3, 97, 79
2, 426560, Note_on_c, 3, 85, 60
2, 426560, Note_on_c, 3, 85, 82
2, 426561, Note_off_c, 3, 93, 0
2, 426561, Note_off_c, 3, 98, 0
2, 426561, Note_off_c, 3, 86, 0
2, 426620, Note_off_c, 3, 90, 0
2, 426620, Note_off_c, 3, 97, 0
2, 426620, Note_off_c, 3, 85, 0
2, 426624, Note_off_c, 3, 85, 0
2, 426752, Note_on_c, 3, 98, 75
2, 426752, Note_on_c, 3, 102, 75
2, 426752, Note_on_c, 3, 93, 76
2, 426752, Note_on_c, 3, 90, 76
2, 426816, Note_off_c, 3, 98, 0
2, 426816, Note_off_c, 3, 93, 0
2, 426816, Note_on_c, 3, 93, 68
2, 426816, Note_on_c, 3, 98, 68
2, 426816, Note_on_c, 3, 86, 70
2, 426817, Note_off_c, 3, 102, 0
2, 426817, Note_off_c, 3, 90, 0
2, 426880, Note_off_c, 3, 98, 0
2, 426880, Note_on_c, 3, 98, 92
2, 426880, Note_on_c, 3, 102, 92
2, 426880, Note_on_c, 3, 93, 78
2, 426880, Note_on_c, 3, 90, 92
2, 426881, Note_off_c, 3, 93, 0
2, 426881, Note_off_c, 3, 86, 0
2, 426944, Note_off_c, 3, 98, 0
2, 426944, Note_off_c, 3, 93, 0
2, 426944, Note_on_c, 3, 93, 82
2, 426944, Note_on_c, 3, 98, 82
2, 426944, Note_on_c, 3, 86, 80
2, 426945, Note_off_c, 3, 102, 0
2, 426945, Note_off_c, 3, 90, 0
2, 427008, Note_off_c, 3, 98, 0
2, 427008, Note_on_c, 3, 98, 85
2, 427008, Note_on_c, 3, 102, 85
2, 427008, Note_on_c, 3, 93, 87
2, 427008, Note_on_c, 3, 90, 95
2, 427009, Note_off_c, 3, 93, 0
2, 427009, Note_off_c, 3, 86, 0
2, 427072, Note_off_c, 3, 98, 0
2, 427072, Note_off_c, 3, 93, 0
2, 427072, Note_on_c, 3, 93, 75
2, 427072, Note_on_c, 3, 98, 75
2, 427072, Note_on_c, 3, 86, 87
2, 427073, Note_off_c, 3, 102, 0
2, 427073, Note_off_c, 3, 90, 0
2, 427136, Note_off_c, 3, 98, 0
2, 427136, Note_on_c, 3, 98, 93
2, 427136, Note_on_c, 3, 102, 93
2, 427136, Note_on_c, 3, 93, 84
2, 427136, Note_on_c, 3, 90, 92
2, 427137, Note_off_c, 3, 93, 0
2, 427137, Note_off_c, 3, 86, 0
2, 427196, Note_off_c, 3, 98, 0
2, 427196, Note_off_c, 3, 102, 0
2, 427196, Note_off_c, 3, 90, 0
2, 427200, Note_off_c, 3, 93, 0
2, 427328, Note_on_c, 3, 98, 77
2, 427328, Note_on_c, 3, 102, 77
2, 427328, Note_on_c, 3, 93, 79
2, 427328, Note_on_c, 3, 90, 77
2, 427392, Note_off_c, 3, 98, 0
2, 427392, Note_off_c, 3, 93, 0
2, 427392, Note_on_c, 3, 93, 63
2, 427392, Note_on_c, 3, 98, 63
2, 427392, Note_on_c, 3, 86, 65
2, 427393, Note_off_c, 3, 102, 0
2, 427393, Note_off_c, 3, 90, 0
2, 427456, Note_off_c, 3, 98, 0
2, 427456, Note_on_c, 3, 98, 89
2, 427456, Note_on_c, 3, 102, 89
2, 427456, Note_on_c, 3, 93, 80
2, 427456, Note_on_c, 3, 90, 90
2, 427457, Note_off_c, 3, 93, 0
2, 427457, Note_off_c, 3, 86, 0
2, 427520, Note_off_c, 3, 98, 0
2, 427520, Note_on_c, 3, 93, 84
2, 427520, Note_on_c, 3, 98, 84
2, 427520, Note_on_c, 3, 86, 84
2, 427521, Note_off_c, 3, 102, 0
2, 427521, Note_off_c, 3, 90, 0
2, 427584, Note_off_c, 3, 98, 0
2, 427584, Note_off_c, 3, 93, 0
2, 427584, Note_on_c, 3, 98, 94
2, 427584, Note_on_c, 3, 102, 94
2, 427584, Note_on_c, 3, 93, 81
2, 427584, Note_on_c, 3, 90, 88
2, 427585, Note_off_c, 3, 93, 0
2, 427585, Note_off_c, 3, 86, 0
2, 427644, Note_off_c, 3, 98, 0
2, 427644, Note_off_c, 3, 102, 0
2, 427644, Note_off_c, 3, 90, 0
2, 427648, Note_off_c, 3, 93, 0
2, 427776, Note_on_c, 3, 90, 74
2, 427776, Note_on_c, 3, 93, 74
2, 427776, Note_on_c, 3, 86, 73
2, 427776, Note_on_c, 3, 81, 71
2, 427840, Note_off_c, 3, 93, 0
2, 427840, Note_off_c, 3, 86, 0
2, 427840, Note_on_c, 3, 93, 82
2, 427840, Note_on_c, 3, 98, 82
2, 427840, Note_on_c, 3, 86, 77
2, 427841, Note_off_c, 3, 90, 0
2, 427841, Note_off_c, 3, 81, 0
2, 427904, Note_off_c, 3, 98, 0
2, 427904, Note_on_c, 3, 98, 100
2, 427904, Note_on_c, 3, 102, 100
2, 427904, Note_on_c, 3, 95, 99
2, 427904, Note_on_c, 3, 90, 97
2, 427905, Note_off_c, 3, 93, 0
2, 427905, Note_off_c, 3, 86, 0
2, 427968, Note_off_c, 3, 98, 0
2, 427968, Note_off_c, 3, 95, 0
2, 427968, Note_on_c, 3, 93, 90
2, 427968, Note_on_c, 3, 98, 90
2, 427968, Note_on_c, 3, 86, 86
2, 427969, Note_off_c, 3, 102, 0
2, 427969, Note_off_c, 3, 90, 0
2, 428032, Note_off_c, 3, 93, 0
2, 428032, Note_on_c, 3, 90, 71
2, 428032, Note_on_c, 3, 93, 71
2, 428032, Note_on_c, 3, 86, 59
2, 428032, Note_on_c, 3, 81, 75
2, 428033, Note_off_c, 3, 98, 0
2, 428033, Note_off_c, 3, 86, 0
2, 428096, Note_off_c, 3, 93, 0
2, 428096, Note_off_c, 3, 86, 0
2, 428096, Note_on_c, 3, 93, 77
2, 428096, Note_on_c, 3, 98, 77
2, 428096, Note_on_c, 3, 86, 85
2, 428097, Note_off_c, 3, 90, 0
2, 428097, Note_off_c, 3, 81, 0
2, 428160, Note_off_c, 3, 98, 0
2, 428160, Note_on_c, 3, 98, 95
2, 428160, Note_on_c, 3, 102, 95
2, 428160, Note_on_c, 3, 95, 97
2, 428160, Note_on_c, 3, 90, 89
2, 428161, Note_off_c, 3, 93, 0
2, 428161, Note_off_c, 3, 86, 0
2, 428220, Note_off_c, 3, 98, 0
2, 428220, Note_off_c, 3, 102, 0
2, 428220, Note_off_c, 3, 90, 0
2, 428224, Note_off_c, 3, 95, 0
2, 428352, Note_on_c, 3, 95, 76
2, 428352, Note_on_c, 3, 102, 76
2, 428352, Note_on_c, 3, 95, 79
2, 428352, Note_on_c, 3, 90, 71
2, 428384, Note_off_c, 3, 95, 0
2, 428416, Note_on_c, 3, 93, 65
2, 428416, Note_on_c, 3, 98, 65
2, 428416, Note_on_c, 3, 86, 61
2, 428417, Note_off_c, 3, 95, 0
2, 428417, Note_off_c, 3, 102, 0
2, 428417, Note_off_c, 3, 90, 0
2, 428480, Note_off_c, 3, 98, 0
2, 428480, Note_on_c, 3, 98, 89
2, 428480, Note_on_c, 3, 102, 89
2, 428480, Note_on_c, 3, 90, 91
2, 428481, Note_off_c, 3, 93, 0
2, 428481, Note_off_c, 3, 86, 0
2, 428544, Note_on_c, 3, 93, 84
2, 428544, Note_on_c, 3, 99, 84
2, 428544, Note_on_c, 3, 90, 77
2, 428544, Note_on_c, 3, 86, 81
2, 428545, Note_off_c, 3, 98, 0
2, 428545, Note_off_c, 3, 102, 0
2, 428545, Note_off_c, 3, 90, 0
2, 428608, Note_off_c, 3, 90, 0
2, 428608, Note_on_c, 3, 88, 73
2, 428608, Note_on_c, 3, 95, 73
2, 428608, Note_on_c, 3, 83, 72
2, 428609, Note_off_c, 3, 93, 0
2, 428609, Note_off_c, 3, 99, 0
2, 428609, Note_off_c, 3, 86, 0
2, 428672, Note_on_c, 3, 86, 61
2, 428672, Note_on_c, 3, 90, 61
2, 428672, Note_on_c, 3, 85, 72
2, 428672, Note_on_c, 3, 78, 61
2, 428673, Note_off_c, 3, 88, 0
2, 428673, Note_off_c, 3, 95, 0
2, 428673, Note_off_c, 3, 83, 0
2, 428736, Note_off_c, 3, 90, 0
2, 428736, Note_off_c, 3, 85, 0
2, 428736, Note_on_c, 3, 90, 98
2, 428736, Note_on_c, 3, 95, 98
2, 428736, Note_on_c, 3, 83, 89
2, 428737, Note_off_c, 3, 86, 0
2, 428737, Note_off_c, 3, 78, 0
2, 428800, Note_off_c, 3, 90, 0
2, 428800, Note_on_c, 3, 86, 86
2, 428800, Note_on_c, 3, 90, 86
2, 428800, Note_on_c, 3, 86, 89
2, 428800, Note_on_c, 3, 78, 78
2, 428801, Note_off_c, 3, 95, 0
2, 428801, Note_off_c, 3, 83, 0
2, 428864, Note_off_c, 3, 86, 0
2, 428864, Note_on_c, 3, 88, 93
2, 428864, Note_on_c, 3, 95, 93
2, 428864, Note_on_c, 3, 83, 96
2, 428865, Note_off_c, 3, 86, 0
2, 428865, Note_off_c, 3, 90, 0
2, 428865, Note_off_c, 3, 78, 0
2, 428928, Note_on_c, 3, 86, 89
2, 428928, Note_on_c, 3, 92, 89
2, 428928, Note_on_c, 3, 88, 88
2, 428928, Note_on_c, 3, 80, 88
2, 428929, Note_off_c, 3, 88, 0
2, 428929, Note_off_c, 3, 95, 0
2, 428929, Note_off_c, 3, 83, 0
2, 428992, Note_off_c, 3, 88, 0
2, 428992, Note_on_c, 3, 90, 92
2, 428992, Note_on_c, 3, 95, 92
2, 428992, Note_on_c, 3, 83, 90
2, 428993, Note_off_c, 3, 86, 0
2, 428993, Note_off_c, 3, 92, 0
2, 428993, Note_off_c, 3, 80, 0
2, 429056, Note_off_c, 3, 90, 0
2, 429056, Note_on_c, 3, 86, 83
2, 429056, Note_on_c, 3, 90, 83
2, 429056, Note_on_c, 3, 81, 69
2, 429056, Note_on_c, 3, 78, 81
2, 429057, Note_off_c, 3, 95, 0
2, 429057, Note_off_c, 3, 83, 0
2, 429088, Note_off_c, 3, 81, 0
2, 429116, Note_off_c, 3, 86, 0
2, 429116, Note_off_c, 3, 90, 0
2, 429116, Note_off_c, 3, 78, 0
2, 429248, Note_on_c, 3, 90, 76
2, 429248, Note_on_c, 3, 94, 76
2, 429248, Note_on_c, 3, 85, 80
2, 429248, Note_on_c, 3, 82, 79
2, 429280, Note_off_c, 3, 85, 0
2, 429312, Note_on_c, 3, 93, 84
2, 429312, Note_on_c, 3, 98, 84
2, 429312, Note_on_c, 3, 90, 95
2, 429312, Note_on_c, 3, 86, 85
2, 429313, Note_off_c, 3, 90, 0
2, 429313, Note_off_c, 3, 94, 0
2, 429313, Note_off_c, 3, 82, 0
2, 429376, Note_off_c, 3, 93, 0
2, 429376, Note_off_c, 3, 90, 0
2, 429376, Note_on_c, 3, 88, 75
2, 429376, Note_on_c, 3, 93, 75
2, 429376, Note_on_c, 3, 81, 74
2, 429377, Note_off_c, 3, 98, 0
2, 429377, Note_off_c, 3, 86, 0
2, 429440, Note_on_c, 3, 85, 66
2, 429440, Note_on_c, 3, 90, 66
2, 429440, Note_on_c, 3, 88, 84
2, 429440, Note_on_c, 3, 78, 72
2, 429441, Note_off_c, 3, 88, 0
2, 429441, Note_off_c, 3, 93, 0
2, 429441, Note_off_c, 3, 81, 0
2, 429504, Note_off_c, 3, 88, 0
2, 429504, Note_on_c, 3, 83, 80
2, 429504, Note_on_c, 3, 88, 80
2, 429504, Note_on_c, 3, 76, 77
2, 429505, Note_off_c, 3, 85, 0
2, 429505, Note_off_c, 3, 90, 0
2, 429505, Note_off_c, 3, 78, 0
2, 429564, Note_off_c, 3, 83, 0
2, 429564, Note_off_c, 3, 88, 0
2, 429564, Note_off_c, 3, 76, 0
2, 429568, Note_on_c, 3, 78, 64
2, 429632, Note_off_c, 3, 78, 0
2, 429632, Note_on_c, 3, 83, 77
2, 429632, Note_on_c, 3, 90, 77
2, 429632, Note_on_c, 3, 78, 73
2, 429696, Note_on_c, 3, 85, 68
2, 429696, Note_on_c, 3, 86, 68
2, 429696, Note_on_c, 3, 83, 93
2, 429696, Note_on_c, 3, 74, 64
2, 429697, Note_off_c, 3, 83, 0
2, 429697, Note_off_c, 3, 90, 0
2, 429697, Note_off_c, 3, 78, 0
2, 429760, Note_off_c, 3, 83, 0
2, 429760, Note_on_c, 3, 90, 107
2, 429760, Note_on_c, 3, 95, 107
2, 429760, Note_on_c, 3, 83, 97
2, 429761, Note_off_c, 3, 85, 0
2, 429761, Note_off_c, 3, 86, 0
2, 429761, Note_off_c, 3, 74, 0
2, 429824, Note_on_c, 3, 93, 119
2, 429824, Note_on_c, 3, 98, 119
2, 429824, Note_on_c, 3, 90, 101
2, 429824, Note_on_c, 3, 86, 112
2, 429825, Note_off_c, 3, 90, 0
2, 429825, Note_off_c, 3, 95, 0
2, 429825, Note_off_c, 3, 83, 0
2, 429888, Note_off_c, 3, 98, 0
2, 429888, Note_off_c, 3, 90, 0
2, 429888, Note_on_c, 3, 98, 97
2, 429888, Note_on_c, 3, 102, 97
2, 429888, Note_on_c, 3, 90, 94
2, 429889, Note_off_c, 3, 93, 0
2, 429889, Note_off_c, 3, 86, 0
2, 429952, Note_off_c, 3, 98, 0
2, 429952, Note_on_c, 3, 93, 87
2, 429952, Note_on_c, 3, 98, 87
2, 429952, Note_on_c, 3, 86, 87
2, 429953, Note_off_c, 3, 102, 0
2, 429953, Note_off_c, 3, 90, 0
2, 430016, Note_off_c, 3, 98, 0
2, 430016, Note_on_c, 3, 98, 95
2, 430016, Note_on_c, 3, 102, 95
2, 430016, Note_on_c, 3, 90, 91
2, 430017, Note_off_c, 3, 93, 0
2, 430017, Note_off_c, 3, 86, 0
2, 430076, Note_off_c, 3, 98, 0
2, 430076, Note_off_c, 3, 102, 0
2, 430076, Note_off_c, 3, 90, 0
2, 430336, Note_on_c, 3, 86, 73
2, 430336, Note_on_c, 3, 90, 73
2, 430336, Note_on_c, 3, 83, 74
2, 430336, Note_on_c, 3, 78, 83
2, 430400, Note_off_c, 3, 83, 0
2, 430400, Note_on_c, 3, 88, 83
2, 430400, Note_on_c, 3, 95, 83
2, 430400, Note_on_c, 3, 81, 87
2, 430401, Note_off_c, 3, 86, 0
2, 430401, Note_off_c, 3, 90, 0
2, 430401, Note_off_c, 3, 78, 0
2, 430464, Note_on_c, 3, 98, 93
2, 430464, Note_on_c, 3, 102, 93
2, 430464, Note_on_c, 3, 95, 107
2, 430464, Note_on_c, 3, 90, 101
2, 430465, Note_off_c, 3, 88, 0
2, 430465, Note_off_c, 3, 95, 0
2, 430465, Note_off_c, 3, 81, 0
2, 430528, Note_off_c, 3, 98, 0
2, 430528, Note_off_c, 3, 95, 0
2, 430528, Note_on_c, 3, 93, 90
2, 430528, Note_on_c, 3, 98, 90
2, 430528, Note_on_c, 3, 86, 95
2, 430529, Note_off_c, 3, 102, 0
2, 430529, Note_off_c, 3, 90, 0
2, 430592, Note_off_c, 3, 98, 0
2, 430592, Note_on_c, 3, 98, 91
2, 430592, Note_on_c, 3, 102, 91
2, 430592, Note_on_c, 3, 93, 86
2, 430592, Note_on_c, 3, 90, 91
2, 430593, Note_off_c, 3, 93, 0
2, 430593, Note_off_c, 3, 86, 0
2, 430656, Note_off_c, 3, 98, 0
2, 430656, Note_off_c, 3, 93, 0
2, 430656, Note_on_c, 3, 93, 84
2, 430656, Note_on_c, 3, 98, 84
2, 430656, Note_on_c, 3, 86, 85
2, 430657, Note_off_c, 3, 102, 0
2, 430657, Note_off_c, 3, 90, 0
2, 430720, Note_off_c, 3, 98, 0
2, 430720, Note_on_c, 3, 98, 97
2, 430720, Note_on_c, 3, 102, 97
2, 430720, Note_on_c, 3, 95, 92
2, 430720, Note_on_c, 3, 90, 89
2, 430721, Note_off_c, 3, 93, 0
2, 430721, Note_off_c, 3, 86, 0
2, 430780, Note_off_c, 3, 98, 0
2, 430780, Note_off_c, 3, 102, 0
2, 430780, Note_off_c, 3, 90, 0
2, 430784, Note_off_c, 3, 95, 0
2, 430912, Note_on_c, 3, 98, 75
2, 430912, Note_on_c, 3, 102, 75
2, 430912, Note_on_c, 3, 93, 76
2, 430912, Note_on_c, 3, 90, 75
2, 430976, Note_off_c, 3, 98, 0
2, 430976, Note_on_c, 3, 93, 67
2, 430976, Note_on_c, 3, 98, 67
2, 430976, Note_on_c, 3, 90, 69
2, 430976, Note_on_c, 3, 86, 63
2, 430977, Note_off_c, 3, 102, 0
2, 430977, Note_off_c, 3, 93, 0
2, 430977, Note_off_c, 3, 90, 0
2, 431036, Note_off_c, 3, 90, 0
2, 431040, Note_on_c, 3, 87, 71
2, 431040, Note_on_c, 3, 92, 71
2, 431040, Note_on_c, 3, 80, 68
2, 431041, Note_off_c, 3, 93, 0
2, 431041, Note_off_c, 3, 98, 0
2, 431041, Note_off_c, 3, 86, 0
2, 431104, Note_on_c, 3, 84, 57
2, 431104, Note_on_c, 3, 90, 57
2, 431104, Note_on_c, 3, 80, 75
2, 431104, Note_on_c, 3, 78, 64
2, 431105, Note_off_c, 3, 87, 0
2, 431105, Note_off_c, 3, 92, 0
2, 431105, Note_off_c, 3, 80, 0
2, 431168, Note_on_c, 3, 88, 84
2, 431168, Note_on_c, 3, 92, 84
2, 431168, Note_on_c, 3, 80, 86
2, 431169, Note_off_c, 3, 84, 0
2, 431169, Note_off_c, 3, 90, 0
2, 431169, Note_off_c, 3, 78, 0
2, 431228, Note_off_c, 3, 88, 0
2, 431228, Note_off_c, 3, 92, 0
2, 431228, Note_off_c, 3, 80, 0
2, 431232, Note_off_c, 3, 80, 0
2, 431232, Note_on_c, 3, 83, 87
2, 431296, Note_off_c, 3, 83, 0
2, 431296, Note_on_c, 3, 88, 76
2, 431296, Note_on_c, 3, 95, 76
2, 431296, Note_on_c, 3, 83, 77
2, 431360, Note_on_c, 3, 93, 83
2, 431360, Note_on_c, 3, 98, 83
2, 431360, Note_on_c, 3, 95, 105
2, 431360, Note_on_c, 3, 86, 87
2, 431361, Note_off_c, 3, 88, 0
2, 431361, Note_off_c, 3, 95, 0
2, 431361, Note_off_c, 3, 83, 0
2, 431424, Note_off_c, 3, 98, 0
2, 431424, Note_off_c, 3, 95, 0
2, 431424, Note_on_c, 3, 98, 94
2, 431424, Note_on_c, 3, 102, 94
2, 431424, Note_on_c, 3, 90, 94
2, 431425, Note_off_c, 3, 93, 0
2, 431425, Note_off_c, 3, 86, 0
2, 431488, Note_off_c, 3, 98, 0
2, 431488, Note_on_c, 3, 93, 85
2, 431488, Note_on_c, 3, 98, 85
2, 431488, Note_on_c, 3, 90, 75
2, 431488, Note_on_c, 3, 86, 80
2, 431489, Note_off_c, 3, 102, 0
2, 431489, Note_off_c, 3, 90, 0
2, 431552, Note_off_c, 3, 90, 0
2, 431552, Note_on_c, 3, 86, 67
2, 431552, Note_on_c, 3, 90, 67
2, 431552, Note_on_c, 3, 84, 79
2, 431553, Note_off_c, 3, 93, 0
2, 431553, Note_off_c, 3, 98, 0
2, 431553, Note_off_c, 3, 86, 0
2, 431612, Note_off_c, 3, 84, 0
2, 431616, Note_off_c, 3, 90, 0
2, 431616, Note_on_c, 3, 90, 64
2, 431616, Note_on_c, 3, 92, 64
2, 431616, Note_on_c, 3, 85, 68
2, 431616, Note_on_c, 3, 81, 77
2, 431617, Note_off_c, 3, 86, 0
2, 431680, Note_off_c, 3, 92, 0
2, 431680, Note_on_c, 3, 92, 85
2, 431680, Note_on_c, 3, 93, 85
2, 431680, Note_on_c, 3, 86, 71
2, 431680, Note_on_c, 3, 83, 83
2, 431681, Note_off_c, 3, 90, 0
2, 431681, Note_off_c, 3, 85, 0
2, 431681, Note_off_c, 3, 81, 0
2, 431740, Note_off_c, 3, 92, 0
2, 431740, Note_off_c, 3, 93, 0
2, 431740, Note_off_c, 3, 86, 0
2, 431740, Note_off_c, 3, 83, 0
2, 432000, Note_on_c, 3, 90, 76
2, 432000, Note_on_c, 3, 98, 76
2, 432000, Note_on_c, 3, 90, 76
2, 432000, Note_on_c, 3, 85, 73
2, 432064, Note_on_c, 3, 86, 63
2, 432064, Note_on_c, 3, 93, 63
2, 432064, Note_on_c, 3, 86, 64
2, 432064, Note_on_c, 3, 81, 63
2, 432065, Note_off_c, 3, 90, 0
2, 432065, Note_off_c, 3, 98, 0
2, 432065, Note_off_c, 3, 90, 0
2, 432065, Note_off_c, 3, 85, 0
2, 432128, Note_on_c, 3, 90, 94
2, 432128, Note_on_c, 3, 98, 94
2, 432128, Note_on_c, 3, 90, 90
2, 432128, Note_on_c, 3, 85, 94
2, 432129, Note_off_c, 3, 86, 0
2, 432129, Note_off_c, 3, 93, 0
2, 432129, Note_off_c, 3, 86, 0
2, 432129, Note_off_c, 3, 81, 0
2, 432192, Note_on_c, 3, 86, 86
2, 432192, Note_on_c, 3, 93, 86
2, 432192, Note_on_c, 3, 86, 81
2, 432192, Note_on_c, 3, 81, 80
2, 432193, Note_off_c, 3, 90, 0
2, 432193, Note_off_c, 3, 98, 0
2, 432193, Note_off_c, 3, 90, 0
2, 432193, Note_off_c, 3, 85, 0
2, 432256, Note_on_c, 3, 90, 96
2, 432256, Note_on_c, 3, 98, 96
2, 432256, Note_on_c, 3, 90, 89
2, 432256, Note_on_c, 3, 85, 92
2, 432257, Note_off_c, 3, 86, 0
2, 432257, Note_off_c, 3, 93, 0
2, 432257, Note_off_c, 3, 86, 0
2, 432257, Note_off_c, 3, 81, 0
2, 432316, Note_off_c, 3, 90, 0
2, 432316, Note_off_c, 3, 98, 0
2, 432316, Note_off_c, 3, 90, 0
2, 432316, Note_off_c, 3, 85, 0
2, 432448, Note_on_c, 3, 98, 73
2, 432448, Note_on_c, 3, 102, 73
2, 432448, Note_on_c, 3, 90, 73
2, 432448, Note_on_c, 3, 83, 76
2, 432512, Note_off_c, 3, 98, 0
2, 432512, Note_on_c, 3, 93, 62
2, 432512, Note_on_c, 3, 98, 62
2, 432512, Note_on_c, 3, 86, 61
2, 432512, Note_on_c, 3, 78, 66
2, 432513, Note_off_c, 3, 102, 0
2, 432513, Note_off_c, 3, 90, 0
2, 432513, Note_off_c, 3, 83, 0
2, 432576, Note_off_c, 3, 98, 0
2, 432576, Note_on_c, 3, 98, 90
2, 432576, Note_on_c, 3, 102, 90
2, 432576, Note_on_c, 3, 85, 80
2, 432576, Note_on_c, 3, 81, 87
2, 432577, Note_off_c, 3, 93, 0
2, 432577, Note_off_c, 3, 86, 0
2, 432577, Note_off_c, 3, 78, 0
2, 432640, Note_off_c, 3, 98, 0
2, 432640, Note_on_c, 3, 93, 80
2, 432640, Note_on_c, 3, 98, 80
2, 432640, Note_on_c, 3, 83, 76
2, 432640, Note_on_c, 3, 78, 77
2, 432641, Note_off_c, 3, 102, 0
2, 432641, Note_off_c, 3, 85, 0
2, 432641, Note_off_c, 3, 81, 0
2, 432704, Note_off_c, 3, 93, 0
2, 432704, Note_on_c, 3, 90, 70
2, 432704, Note_on_c, 3, 93, 70
2, 432704, Note_on_c, 3, 81, 83
2, 432704, Note_on_c, 3, 74, 73
2, 432705, Note_off_c, 3, 98, 0
2, 432705, Note_off_c, 3, 83, 0
2, 432705, Note_off_c, 3, 78, 0
2, 432764, Note_off_c, 3, 90, 0
2, 432764, Note_off_c, 3, 93, 0
2, 432764, Note_off_c, 3, 81, 0
2, 432764, Note_off_c, 3, 74, 0
2, 432832, Note_on_c, 3, 92, 76
2, 432832, Note_on_c, 3, 93, 76
2, 432832, Note_on_c, 3, 78, 71
2, 432832, Note_on_c, 3, 73, 76
2, 432896, Note_on_c, 3, 85, 65
2, 432896, Note_on_c, 3, 90, 65
2, 432896, Note_on_c, 3, 77, 65
2, 432896, Note_on_c, 3, 74, 81
2, 432897, Note_off_c, 3, 92, 0
2, 432897, Note_off_c, 3, 93, 0
2, 432897, Note_off_c, 3, 78, 0
2, 432897, Note_off_c, 3, 73, 0
2, 432960, Note_on_c, 3, 92, 91
2, 432960, Note_on_c, 3, 95, 91
2, 432960, Note_on_c, 3, 85, 97
2, 432960, Note_on_c, 3, 80, 97
2, 432961, Note_off_c, 3, 85, 0
2, 432961, Note_off_c, 3, 90, 0
2, 432961, Note_off_c, 3, 77, 0
2, 432961, Note_off_c, 3, 74, 0
2, 433020, Note_off_c, 3, 92, 0
2, 433020, Note_off_c, 3, 95, 0
2, 433020, Note_off_c, 3, 85, 0
2, 433020, Note_off_c, 3, 80, 0
2, 433152, Note_on_c, 3, 92, 78
2, 433152, Note_on_c, 3, 93, 78
2, 433152, Note_on_c, 3, 78, 77
2, 433152, Note_on_c, 3, 75, 80
2, 433216, Note_off_c, 3, 93, 0
2, 433216, Note_off_c, 3, 78, 0
2, 433216, Note_on_c, 3, 93, 85
2, 433216, Note_on_c, 3, 95, 85
2, 433216, Note_on_c, 3, 86, 99
2, 433216, Note_on_c, 3, 83, 95
2, 433217, Note_off_c, 3, 92, 0
2, 433217, Note_off_c, 3, 75, 0
2, 433276, Note_off_c, 3, 93, 0
2, 433276, Note_off_c, 3, 95, 0
2, 433276, Note_off_c, 3, 83, 0
2, 433280, Note_off_c, 3, 86, 0
2, 433344, Note_on_c, 3, 98, 78
2, 433344, Note_on_c, 3, 102, 78
2, 433344, Note_on_c, 3, 93, 79
2, 433344, Note_on_c, 3, 90, 76
2, 433408, Note_off_c, 3, 98, 0
2, 433408, Note_off_c, 3, 93, 0
2, 433408, Note_on_c, 3, 93, 66
2, 433408, Note_on_c, 3, 98, 66
2, 433408, Note_on_c, 3, 90, 76
2, 433408, Note_on_c, 3, 86, 67
2, 433409, Note_off_c, 3, 102, 0
2, 433409, Note_off_c, 3, 90, 0
2, 433472, Note_off_c, 3, 98, 0
2, 433472, Note_off_c, 3, 90, 0
2, 433472, Note_on_c, 3, 98, 93
2, 433472, Note_on_c, 3, 102, 93
2, 433472, Note_on_c, 3, 95, 95
2, 433472, Note_on_c, 3, 90, 92
2, 433473, Note_off_c, 3, 93, 0
2, 433473, Note_off_c, 3, 86, 0
2, 433536, Note_off_c, 3, 98, 0
2, 433536, Note_off_c, 3, 95, 0
2, 433536, Note_on_c, 3, 93, 86
2, 433536, Note_on_c, 3, 98, 86
2, 433536, Note_on_c, 3, 86, 83
2, 433537, Note_off_c, 3, 102, 0
2, 433537, Note_off_c, 3, 90, 0
2, 433600, Note_on_c, 3, 91, 76
2, 433600, Note_on_c, 3, 95, 76
2, 433600, Note_on_c, 3, 86, 65
2, 433600, Note_on_c, 3, 83, 74
2, 433601, Note_off_c, 3, 93, 0
2, 433601, Note_off_c, 3, 98, 0
2, 433601, Note_off_c, 3, 86, 0
2, 433660, Note_off_c, 3, 91, 0
2, 433660, Note_off_c, 3, 95, 0
2, 433660, Note_off_c, 3, 83, 0
2, 433664, Note_off_c, 3, 86, 0
2, 433728, Note_on_c, 3, 91, 78
2, 433728, Note_on_c, 3, 95, 78
2, 433728, Note_on_c, 3, 95, 92
2, 433728, Note_on_c, 3, 83, 76
2, 433792, Note_off_c, 3, 95, 0
2, 433792, Note_on_c, 3, 93, 84
2, 433792, Note_on_c, 3, 98, 84
2, 433792, Note_on_c, 3, 86, 84
2, 433793, Note_off_c, 3, 91, 0
2, 433793, Note_off_c, 3, 95, 0
2, 433793, Note_off_c, 3, 83, 0
2, 433856, Note_off_c, 3, 98, 0
2, 433856, Note_on_c, 3, 98, 88
2, 433856, Note_on_c, 3, 102, 88
2, 433856, Note_on_c, 3, 90, 95
2, 433857, Note_off_c, 3, 93, 0
2, 433857, Note_off_c, 3, 86, 0
2, 433916, Note_off_c, 3, 98, 0
2, 433916, Note_off_c, 3, 102, 0
2, 433916, Note_off_c, 3, 90, 0
2, 434432, Note_on_c, 3, 98, 74
2, 434432, Note_on_c, 3, 86, 75
2, 434517, Note_on_c, 3, 93, 64
2, 434517, Note_on_c, 3, 81, 59
2, 434518, Note_off_c, 3, 98, 0
2, 434518, Note_off_c, 3, 86, 0
2, 434602, Note_on_c, 3, 90, 90
2, 434602, Note_on_c, 3, 98, 90
2, 434602, Note_on_c, 3, 78, 90
2, 434602, Note_on_c, 3, 86, 90
2, 434603, Note_off_c, 3, 93, 0
2, 434603, Note_off_c, 3, 81, 0
2, 434688, Note_on_c, 3, 93, 96
2, 434688, Note_on_c, 3, 100, 96
2, 434688, Note_on_c, 3, 81, 98
2, 434688, Note_on_c, 3, 88, 98
2, 434689, Note_off_c, 3, 90, 0
2, 434689, Note_off_c, 3, 98, 0
2, 434689, Note_off_c, 3, 78, 0
2, 434689, Note_off_c, 3, 86, 0
2, 434773, Note_on_c, 3, 90, 82
2, 434773, Note_on_c, 3, 98, 82
2, 434773, Note_on_c, 3, 78, 81
2, 434773, Note_on_c, 3, 86, 81
2, 434774, Note_off_c, 3, 93, 0
2, 434774, Note_off_c, 3, 100, 0
2, 434774, Note_off_c, 3, 81, 0
2, 434774, Note_off_c, 3, 88, 0
2, 434858, Note_on_c, 3, 93, 83
2, 434858, Note_on_c, 3, 100, 83
2, 434858, Note_on_c, 3, 81, 84
2, 434858, Note_on_c, 3, 88, 84
2, 434859, Note_off_c, 3, 90, 0
2, 434859, Note_off_c, 3, 98, 0
2, 434859, Note_off_c, 3, 78, 0
2, 434859, Note_off_c, 3, 86, 0
2, 434944, Note_on_c, 3, 98, 80
2, 434944, Note_on_c, 3, 86, 78
2, 434945, Note_off_c, 3, 93, 0
2, 434945, Note_off_c, 3, 100, 0
2, 434945, Note_off_c, 3, 81, 0
2, 434945, Note_off_c, 3, 88, 0
2, 435029, Note_on_c, 3, 93, 71
2, 435029, Note_on_c, 3, 81, 68
2, 435030, Note_off_c, 3, 98, 0
2, 435030, Note_off_c, 3, 86, 0
2, 435114, Note_on_c, 3, 98, 89
2, 435114, Note_on_c, 3, 86, 97
2, 435115, Note_off_c, 3, 93, 0
2, 435115, Note_off_c, 3, 81, 0
2, 435195, Note_off_c, 3, 98, 0
2, 435195, Note_off_c, 3, 86, 0
2, 435370, Note_on_c, 3, 98, 73
2, 435370, Note_on_c, 3, 86, 79
2, 435456, Note_on_c, 3, 93, 62
2, 435456, Note_on_c, 3, 81, 67
2, 435457, Note_off_c, 3, 98, 0
2, 435457, Note_off_c, 3, 86, 0
2, 435541, Note_on_c, 3, 92, 95
2, 435541, Note_on_c, 3, 98, 95
2, 435541, Note_on_c, 3, 80, 90
2, 435541, Note_on_c, 3, 86, 90
2, 435542, Note_off_c, 3, 93, 0
2, 435542, Note_off_c, 3, 81, 0
2, 435626, Note_on_c, 3, 93, 103
2, 435626, Note_on_c, 3, 100, 103
2, 435626, Note_on_c, 3, 81, 96
2, 435626, Note_on_c, 3, 88, 96
2, 435627, Note_off_c, 3, 92, 0
2, 435627, Note_off_c, 3, 98, 0
2, 435627, Note_off_c, 3, 80, 0
2, 435627, Note_off_c, 3, 86, 0
2, 435712, Note_on_c, 3, 90, 76
2, 435712, Note_on_c, 3, 98, 76
2, 435712, Note_on_c, 3, 78, 81
2, 435712, Note_on_c, 3, 86, 81
2, 435713, Note_off_c, 3, 93, 0
2, 435713, Note_off_c, 3, 100, 0
2, 435713, Note_off_c, 3, 81, 0
2, 435713, Note_off_c, 3, 88, 0
2, 435797, Note_on_c, 3, 93, 77
2, 435797, Note_on_c, 3, 100, 77
2, 435797, Note_on_c, 3, 81, 84
2, 435797, Note_on_c, 3, 88, 84
2, 435798, Note_off_c, 3, 90, 0
2, 435798, Note_off_c, 3, 98, 0
2, 435798, Note_off_c, 3, 78, 0
2, 435798, Note_off_c, 3, 86, 0
2, 435882, Note_on_c, 3, 98, 81
2, 435882, Note_on_c, 3, 86, 80
2, 435883, Note_off_c, 3, 93, 0
2, 435883, Note_off_c, 3, 100, 0
2, 435883, Note_off_c, 3, 81, 0
2, 435883, Note_off_c, 3, 88, 0
2, 435968, Note_on_c, 3, 93, 69
2, 435968, Note_on_c, 3, 81, 75
2, 435969, Note_off_c, 3, 98, 0
2, 435969, Note_off_c, 3, 86, 0
2, 436053, Note_on_c, 3, 98, 94
2, 436053, Note_on_c, 3, 100, 94
2, 436053, Note_on_c, 3, 86, 97
2, 436053, Note_on_c, 3, 88, 97
2, 436054, Note_off_c, 3, 93, 0
2, 436054, Note_off_c, 3, 81, 0
2, 436138, Note_on_c, 3, 93, 76
2, 436138, Note_on_c, 3, 81, 77
2, 436139, Note_off_c, 3, 98, 0
2, 436139, Note_off_c, 3, 100, 0
2, 436139, Note_off_c, 3, 86, 0
2, 436139, Note_off_c, 3, 88, 0
2, 436224, Note_on_c, 3, 100, 100
2, 436224, Note_on_c, 3, 88, 96
2, 436225, Note_off_c, 3, 93, 0
2, 436225, Note_off_c, 3, 81, 0
2, 436304, Note_off_c, 3, 100, 0
2, 436304, Note_off_c, 3, 88, 0
2, 436480, Note_on_c, 3, 98, 78
2, 436480, Note_on_c, 3, 86, 74
2, 436565, Note_on_c, 3, 93, 67
2, 436565, Note_on_c, 3, 81, 62
2, 436566, Note_off_c, 3, 98, 0
2, 436566, Note_off_c, 3, 86, 0
2, 436650, Note_on_c, 3, 90, 97
2, 436650, Note_on_c, 3, 98, 97
2, 436650, Note_on_c, 3, 78, 92
2, 436650, Note_on_c, 3, 86, 92
2, 436651, Note_off_c, 3, 93, 0
2, 436651, Note_off_c, 3, 81, 0
2, 436736, Note_on_c, 3, 93, 105
2, 436736, Note_on_c, 3, 100, 105
2, 436736, Note_on_c, 3, 81, 97
2, 436736, Note_on_c, 3, 88, 97
2, 436737, Note_off_c, 3, 90, 0
2, 436737, Note_off_c, 3, 98, 0
2, 436737, Note_off_c, 3, 78, 0
2, 436737, Note_off_c, 3, 86, 0
2, 436821, Note_on_c, 3, 90, 77
2, 436821, Note_on_c, 3, 98, 77
2, 436821, Note_on_c, 3, 78, 83
2, 436821, Note_on_c, 3, 86, 83
2, 436822, Note_off_c, 3, 93, 0
2, 436822, Note_off_c, 3, 100, 0
2, 436822, Note_off_c, 3, 81, 0
2, 436822, Note_off_c, 3, 88, 0
2, 436906, Note_on_c, 3, 93, 88
2, 436906, Note_on_c, 3, 100, 88
2, 436906, Note_on_c, 3, 81, 85
2, 436906, Note_on_c, 3, 88, 85
2, 436907, Note_off_c, 3, 90, 0
2, 436907, Note_off_c, 3, 98, 0
2, 436907, Note_off_c, 3, 78, 0
2, 436907, Note_off_c, 3, 86, 0
2, 436992, Note_on_c, 3, 98, 81
2, 436992, Note_on_c, 3, 86, 78
2, 436993, Note_off_c, 3, 93, 0
2, 436993, Note_off_c, 3, 100, 0
2, 436993, Note_off_c, 3, 81, 0
2, 436993, Note_off_c, 3, 88, 0
2, 437077, Note_on_c, 3, 93, 87
2, 437077, Note_on_c, 3, 100, 87
2, 437077, Note_on_c, 3, 81, 86
2, 437077, Note_on_c, 3, 88, 86
2, 437078, Note_off_c, 3, 98, 0
2, 437078, Note_off_c, 3, 86, 0
2, 437162, Note_on_c, 3, 98, 81
2, 437162, Note_on_c, 3, 86, 78
2, 437163, Note_off_c, 3, 93, 0
2, 437163, Note_off_c, 3, 100, 0
2, 437163, Note_off_c, 3, 81, 0
2, 437163, Note_off_c, 3, 88, 0
2, 437248, Note_on_c, 3, 93, 89
2, 437248, Note_on_c, 3, 100, 89
2, 437248, Note_on_c, 3, 81, 85
2, 437248, Note_on_c, 3, 88, 85
2, 437249, Note_off_c, 3, 98, 0
2, 437249, Note_off_c, 3, 86, 0
2, 437333, Note_on_c, 3, 98, 78
2, 437333, Note_on_c, 3, 86, 79
2, 437334, Note_off_c, 3, 93, 0
2, 437334, Note_off_c, 3, 100, 0
2, 437334, Note_off_c, 3, 81, 0
2, 437334, Note_off_c, 3, 88, 0
2, 437418, Note_on_c, 3, 93, 68
2, 437418, Note_on_c, 3, 81, 65
2, 437419, Note_off_c, 3, 98, 0
2, 437419, Note_off_c, 3, 86, 0
2, 437504, Note_on_c, 3, 98, 94
2, 437504, Note_on_c, 3, 86, 94
2, 437505, Note_off_c, 3, 93, 0
2, 437505, Note_off_c, 3, 81, 0
2, 437584, Note_off_c, 3, 98, 0
2, 437584, Note_off_c, 3, 86, 0
2, 437674, Note_on_c, 3, 90, 72
2, 437674, Note_on_c, 3, 78, 75
2, 437760, Note_on_c, 3, 93, 78
2, 437760, Note_on_c, 3, 81, 78
2, 437761, Note_off_c, 3, 90, 0
2, 437761, Note_off_c, 3, 78, 0
2, 437845, Note_on_c, 3, 90, 92
2, 437845, Note_on_c, 3, 98, 92
2, 437845, Note_on_c, 3, 78, 97
2, 437845, Note_on_c, 3, 86, 97
2, 437846, Note_off_c, 3, 93, 0
2, 437846, Note_off_c, 3, 81, 0
2, 437930, Note_on_c, 3, 92, 97
2, 437930, Note_on_c, 3, 100, 97
2, 437930, Note_on_c, 3, 80, 103
2, 437930, Note_on_c, 3, 88, 103
2, 437931, Note_off_c, 3, 90, 0
2, 437931, Note_off_c, 3, 98, 0
2, 437931, Note_off_c, 3, 78, 0
2, 437931, Note_off_c, 3, 86, 0
2, 438016, Note_on_c, 3, 98, 79
2, 438016, Note_on_c, 3, 86, 83
2, 438017, Note_off_c, 3, 92, 0
2, 438017, Note_off_c, 3, 100, 0
2, 438017, Note_off_c, 3, 80, 0
2, 438017, Note_off_c, 3, 88, 0
2, 438101, Note_on_c, 3, 93, 83
2, 438101, Note_on_c, 3, 100, 83
2, 438101, Note_on_c, 3, 81, 91
2, 438101, Note_on_c, 3, 88, 91
2, 438102, Note_off_c, 3, 98, 0
2, 438102, Note_off_c, 3, 86, 0
2, 438186, Note_on_c, 3, 98, 77
2, 438186, Note_on_c, 3, 86, 79
2, 438187, Note_off_c, 3, 93, 0
2, 438187, Note_off_c, 3, 100, 0
2, 438187, Note_off_c, 3, 81, 0
2, 438187, Note_off_c, 3, 88, 0
2, 438272, Note_on_c, 3, 93, 68
2, 438272, Note_on_c, 3, 81, 70
2, 438273, Note_off_c, 3, 98, 0
2, 438273, Note_off_c, 3, 86, 0
2, 438357, Note_on_c, 3, 98, 104
2, 438357, Note_on_c, 3, 105, 104
2, 438357, Note_on_c, 3, 86, 99
2, 438357, Note_on_c, 3, 93, 99
2, 438358, Note_off_c, 3, 93, 0
2, 438358, Note_off_c, 3, 81, 0
2, 438437, Note_off_c, 3, 98, 0
2, 438437, Note_off_c, 3, 105, 0
2, 438437, Note_off_c, 3, 86, 0
2, 438437, Note_off_c, 3, 93, 0
2, 438528, Note_on_c, 3, 104, 78
2, 438528, Note_on_c, 3, 92, 75
2, 438613, Note_off_c, 3, 104, 0
2, 438613, Note_off_c, 3, 92, 0
2, 438698, Note_on_c, 3, 90, 77
2, 438698, Note_on_c, 3, 78, 74
2, 438784, Note_on_c, 3, 93, 86
2, 438784, Note_on_c, 3, 81, 82
2, 438785, Note_off_c, 3, 90, 0
2, 438785, Note_off_c, 3, 78, 0
2, 438869, Note_on_c, 3, 90, 98
2, 438869, Note_on_c, 3, 98, 98
2, 438869, Note_on_c, 3, 78, 97
2, 438869, Note_on_c, 3, 86, 97
2, 438870, Note_off_c, 3, 93, 0
2, 438870, Note_off_c, 3, 81, 0
2, 438954, Note_on_c, 3, 92, 103
2, 438954, Note_on_c, 3, 100, 103
2, 438954, Note_on_c, 3, 80, 105
2, 438954, Note_on_c, 3, 88, 105
2, 438955, Note_off_c, 3, 90, 0
2, 438955, Note_off_c, 3, 98, 0
2, 438955, Note_off_c, 3, 78, 0
2, 438955, Note_off_c, 3, 86, 0
2, 439040, Note_on_c, 3, 98, 79
2, 439040, Note_on_c, 3, 86, 79
2, 439041, Note_off_c, 3, 92, 0
2, 439041, Note_off_c, 3, 100, 0
2, 439041, Note_off_c, 3, 80, 0
2, 439041, Note_off_c, 3, 88, 0
2, 439125, Note_on_c, 3, 100, 79
2, 439125, Note_on_c, 3, 88, 85
2, 439126, Note_off_c, 3, 98, 0
2, 439126, Note_off_c, 3, 86, 0
2, 439205, Note_off_c, 3, 100, 0
2, 439205, Note_off_c, 3, 88, 0
2, 439296, Note_on_c, 3, 90, 81
2, 439296, Note_on_c, 3, 78, 77
2, 439381, Note_on_c, 3, 92, 85
2, 439381, Note_on_c, 3, 80, 84
2, 439382, Note_off_c, 3, 90, 0
2, 439382, Note_off_c, 3, 78, 0
2, 439466, Note_on_c, 3, 98, 97
2, 439466, Note_on_c, 3, 86, 97
2, 439467, Note_off_c, 3, 92, 0
2, 439467, Note_off_c, 3, 80, 0
2, 439552, Note_on_c, 3, 84, 106
2, 439552, Note_on_c, 3, 100, 106
2, 439552, Note_on_c, 3, 72, 106
2, 439552, Note_on_c, 3, 88, 106
2, 439553, Note_off_c, 3, 98, 0
2, 439553, Note_off_c, 3, 86, 0
2, 439637, Note_on_c, 3, 93, 80
2, 439637, Note_on_c, 3, 98, 80
2, 439637, Note_on_c, 3, 81, 79
2, 439637, Note_on_c, 3, 86, 79
2, 439638, Note_off_c, 3, 84, 0
2, 439638, Note_off_c, 3, 100, 0
2, 439638, Note_off_c, 3, 72, 0
2, 439638, Note_off_c, 3, 88, 0
2, 439722, Note_off_c, 3, 98, 0
2, 439722, Note_off_c, 3, 86, 0
2, 439722, Note_on_c, 3, 98, 90
2, 439722, Note_on_c, 3, 100, 90
2, 439722, Note_on_c, 3, 86, 79
2, 439722, Note_on_c, 3, 88, 79
2, 439723, Note_off_c, 3, 93, 0
2, 439723, Note_off_c, 3, 81, 0
2, 439808, Note_off_c, 3, 100, 0
2, 439808, Note_off_c, 3, 88, 0
2, 439808, Note_on_c, 3, 100, 84
2, 439808, Note_on_c, 3, 88, 84
2, 439809, Note_off_c, 3, 98, 0
2, 439809, Note_off_c, 3, 86, 0
2, 439893, Note_on_c, 3, 98, 80
2, 439893, Note_on_c, 3, 86, 78
2, 439894, Note_off_c, 3, 100, 0
2, 439894, Note_off_c, 3, 88, 0
2, 439978, Note_on_c, 3, 100, 88
2, 439978, Note_on_c, 3, 88, 93
2, 439979, Note_off_c, 3, 98, 0
2, 439979, Note_off_c, 3, 86, 0
2, 440064, Note_on_c, 3, 90, 66
2, 440064, Note_on_c, 3, 78, 66
2, 440065, Note_off_c, 3, 100, 0
2, 440065, Note_off_c, 3, 88, 0
2, 440149, Note_off_c, 3, 90, 0
2, 440149, Note_off_c, 3, 78, 0
2, 440149, Note_on_c, 3, 90, 87
2, 440149, Note_on_c, 3, 92, 87
2, 440149, Note_on_c, 3, 78, 85
2, 440149, Note_on_c, 3, 80, 85
2, 440234, Note_off_c, 3, 92, 0
2, 440234, Note_off_c, 3, 80, 0
2, 440234, Note_on_c, 3, 92, 95
2, 440234, Note_on_c, 3, 96, 95
2, 440234, Note_on_c, 3, 80, 94
2, 440234, Note_on_c, 3, 84, 94
2, 440235, Note_off_c, 3, 90, 0
2, 440235, Note_off_c, 3, 78, 0
2, 440320, Note_off_c, 3, 92, 0
2, 440320, Note_off_c, 3, 80, 0
2, 440320, Note_on_c, 3, 92, 78
2, 440320, Note_on_c, 3, 80, 76
2, 440321, Note_off_c, 3, 96, 0
2, 440321, Note_off_c, 3, 84, 0
2, 440405, Note_on_c, 3, 90, 73
2, 440405, Note_on_c, 3, 78, 75
2, 440406, Note_off_c, 3, 92, 0
2, 440406, Note_off_c, 3, 80, 0
2, 440490, Note_on_c, 3, 96, 95
2, 440490, Note_on_c, 3, 84, 92
2, 440491, Note_off_c, 3, 90, 0
2, 440491, Note_off_c, 3, 78, 0
2, 440576, Note_off_c, 3, 96, 0
2, 440576, Note_off_c, 3, 84, 0
2, 440576, Note_on_c, 3, 92, 87
2, 440576, Note_on_c, 3, 96, 87
2, 440576, Note_on_c, 3, 80, 88
2, 440576, Note_on_c, 3, 84, 88
2, 440661, Note_on_c, 3, 93, 84
2, 440661, Note_on_c, 3, 81, 80
2, 440662, Note_off_c, 3, 92, 0
2, 440662, Note_off_c, 3, 96, 0
2, 440662, Note_off_c, 3, 80, 0
2, 440662, Note_off_c, 3, 84, 0
2, 440746, Note_on_c, 3, 87, 95
2, 440746, Note_on_c, 3, 96, 95
2, 440746, Note_on_c, 3, 75, 92
2, 440746, Note_on_c, 3, 84, 92
2, 440747, Note_off_c, 3, 93, 0
2, 440747, Note_off_c, 3, 81, 0
2, 440832, Note_on_c, 3, 84, 83
2, 440832, Note_on_c, 3, 92, 83
2, 440832, Note_on_c, 3, 72, 81
2, 440832, Note_on_c, 3, 80, 81
2, 440833, Note_off_c, 3, 87, 0
2, 440833, Note_off_c, 3, 96, 0
2, 440833, Note_off_c, 3, 75, 0
2, 440833, Note_off_c, 3, 84, 0
2, 440896, Note_on_c, 3, 86, 66
2, 440896, Note_on_c, 3, 74, 73
2, 440897, Note_off_c, 3, 84, 0
2, 440897, Note_off_c, 3, 92, 0
2, 440897, Note_off_c, 3, 72, 0
2, 440897, Note_off_c, 3, 80, 0
2, 440960, Note_on_c, 3, 90, 69
2, 440960, Note_on_c, 3, 78, 78
2, 440961, Note_off_c, 3, 86, 0
2, 440961, Note_off_c, 3, 74, 0
2, 441024, Note_on_c, 3, 88, 80
2, 441024, Note_on_c, 3, 76, 79
2, 441025, Note_off_c, 3, 90, 0
2, 441025, Note_off_c, 3, 78, 0
2, 441088, Note_on_c, 3, 91, 85
2, 441088, Note_on_c, 3, 79, 83
2, 441089, Note_off_c, 3, 88, 0
2, 441089, Note_off_c, 3, 76, 0
2, 441152, Note_on_c, 3, 94, 91
2, 441152, Note_on_c, 3, 82, 92
2, 441153, Note_off_c, 3, 91, 0
2, 441153, Note_off_c, 3, 79, 0
2, 441216, Note_on_c, 3, 97, 100
2, 441216, Note_on_c, 3, 85, 99
2, 441217, Note_off_c, 3, 94, 0
2, 441217, Note_off_c, 3, 82, 0
2, 441258, Note_off_c, 3, 97, 0
2, 441258, Note_off_c, 3, 85, 0
2, 441258, Note_on_c, 3, 97, 86
2, 441258, Note_on_c, 3, 85, 85
2, 441344, Note_on_c, 3, 96, 80
2, 441344, Note_on_c, 3, 84, 86
2, 441345, Note_off_c, 3, 97, 0
2, 441345, Note_off_c, 3, 85, 0
2, 441429, Note_on_c, 3, 92, 75
2, 441429, Note_on_c, 3, 80, 68
2, 441430, Note_off_c, 3, 96, 0
2, 441430, Note_off_c, 3, 84, 0
2, 441514, Note_on_c, 3, 90, 76
2, 441514, Note_on_c, 3, 94, 76
2, 441514, Note_on_c, 3, 78, 68
2, 441514, Note_on_c, 3, 82, 68
2, 441515, Note_off_c, 3, 92, 0
2, 441515, Note_off_c, 3, 80, 0
2, 441600, Note_on_c, 3, 93, 82
2, 441600, Note_on_c, 3, 81, 79
2, 441601, Note_off_c, 3, 90, 0
2, 441601, Note_off_c, 3, 94, 0
2, 441601, Note_off_c, 3, 78, 0
2, 441601, Note_off_c, 3, 82, 0
2, 441685, Note_on_c, 3, 92, 74
2, 441685, Note_on_c, 3, 80, 76
2, 441686, Note_off_c, 3, 93, 0
2, 441686, Note_off_c, 3, 81, 0
2, 441770, Note_on_c, 3, 90, 80
2, 441770, Note_on_c, 3, 78, 76
2, 441771, Note_off_c, 3, 92, 0
2, 441771, Note_off_c, 3, 80, 0
2, 441856, Note_on_c, 3, 94, 85
2, 441856, Note_on_c, 3, 82, 89
2, 441857, Note_off_c, 3, 90, 0
2, 441857, Note_off_c, 3, 78, 0
2, 441920, Note_on_c, 3, 82, 85
2, 441920, Note_on_c, 3, 70, 88
2, 441984, Note_on_c, 3, 86, 69
2, 441984, Note_on_c, 3, 74, 72
2, 441985, Note_off_c, 3, 82, 0
2, 441985, Note_off_c, 3, 70, 0
2, 441986, Note_off_c, 3, 94, 0
2, 441986, Note_off_c, 3, 82, 0
2, 442048, Note_on_c, 3, 90, 88
2, 442048, Note_on_c, 3, 78, 90
2, 442049, Note_off_c, 3, 86, 0
2, 442049, Note_off_c, 3, 74, 0
2, 442112, Note_on_c, 3, 88, 88
2, 442112, Note_on_c, 3, 76, 86
2, 442113, Note_off_c, 3, 90, 0
2, 442113, Note_off_c, 3, 78, 0
2, 442176, Note_on_c, 3, 92, 93
2, 442176, Note_on_c, 3, 80, 90
2, 442177, Note_off_c, 3, 88, 0
2, 442177, Note_off_c, 3, 76, 0
2, 442197, Note_on_c, 3, 90, 108
2, 442197, Note_on_c, 3, 97, 108
2, 442197, Note_on_c, 3, 78, 102
2, 442197, Note_on_c, 3, 85, 102
2, 442240, Note_off_c, 3, 90, 0
2, 442240, Note_off_c, 3, 78, 0
2, 442240, Note_on_c, 3, 95, 111
2, 442240, Note_on_c, 3, 83, 102
2, 442282, Note_on_c, 3, 100, 118
2, 442282, Note_on_c, 3, 88, 115
2, 442283, Note_off_c, 3, 97, 0
2, 442283, Note_off_c, 3, 85, 0
2, 442369, Note_off_c, 3, 100, 0
2, 442369, Note_off_c, 3, 88, 0
2, 442370, Note_off_c, 3, 95, 0
2, 442370, Note_off_c, 3, 83, 0
2, 442432, Note_on_c, 3, 90, 84
2, 442432, Note_on_c, 3, 78, 81
2, 442437, Note_off_c, 3, 92, 0
2, 442437, Note_off_c, 3, 80, 0
2, 442492, Note_off_c, 3, 90, 0
2, 442492, Note_off_c, 3, 78, 0
2, 442624, Note_on_c, 3, 81, 72
2, 442624, Note_on_c, 3, 69, 75
2, 442688, Note_on_c, 3, 85, 80
2, 442688, Note_on_c, 3, 73, 81
2, 442689, Note_off_c, 3, 81, 0
2, 442689, Note_off_c, 3, 69, 0
2, 442752, Note_on_c, 3, 89, 94
2, 442752, Note_on_c, 3, 77, 93
2, 442753, Note_off_c, 3, 85, 0
2, 442753, Note_off_c, 3, 73, 0
2, 442816, Note_on_c, 3, 87, 89
2, 442816, Note_on_c, 3, 75, 90
2, 442817, Note_off_c, 3, 89, 0
2, 442817, Note_off_c, 3, 77, 0
2, 442880, Note_on_c, 3, 90, 91
2, 442880, Note_on_c, 3, 78, 91
2, 442881, Note_off_c, 3, 87, 0
2, 442881, Note_off_c, 3, 75, 0
2, 442944, Note_on_c, 3, 94, 103
2, 442944, Note_on_c, 3, 82, 103
2, 442945, Note_off_c, 3, 90, 0
2, 442945, Note_off_c, 3, 78, 0
2, 443008, Note_on_c, 3, 93, 82
2, 443008, Note_on_c, 3, 92, 82
2, 443008, Note_on_c, 3, 81, 82
2, 443008, Note_on_c, 3, 80, 82
2, 443009, Note_off_c, 3, 94, 0
2, 443009, Note_off_c, 3, 82, 0
2, 443072, Note_on_c, 3, 85, 65
2, 443072, Note_on_c, 3, 73, 64
2, 443073, Note_off_c, 3, 93, 0
2, 443073, Note_off_c, 3, 92, 0
2, 443073, Note_off_c, 3, 81, 0
2, 443073, Note_off_c, 3, 80, 0
2, 443136, Note_on_c, 3, 82, 73
2, 443136, Note_on_c, 3, 70, 73
2, 443137, Note_off_c, 3, 85, 0
2, 443137, Note_off_c, 3, 73, 0
2, 443200, Note_on_c, 3, 93, 88
2, 443200, Note_on_c, 3, 81, 96
2, 443201, Note_off_c, 3, 82, 0
2, 443201, Note_off_c, 3, 70, 0
2, 443260, Note_off_c, 3, 93, 0
2, 443260, Note_off_c, 3, 81, 0
2, 443306, Note_on_c, 3, 100, 80
2, 443306, Note_on_c, 3, 88, 74
2, 443392, Note_on_c, 3, 98, 73
2, 443392, Note_on_c, 3, 86, 68
2, 443393, Note_off_c, 3, 100, 0
2, 443393, Note_off_c, 3, 88, 0
2, 443477, Note_on_c, 3, 93, 74
2, 443477, Note_on_c, 3, 81, 73
2, 443478, Note_off_c, 3, 98, 0
2, 443478, Note_off_c, 3, 86, 0
2, 443562, Note_on_c, 3, 89, 67
2, 443562, Note_on_c, 3, 77, 63
2, 443563, Note_off_c, 3, 93, 0
2, 443563, Note_off_c, 3, 81, 0
2, 443648, Note_on_c, 3, 95, 99
2, 443648, Note_on_c, 3, 83, 99
2, 443649, Note_off_c, 3, 89, 0
2, 443649, Note_off_c, 3, 77, 0
2, 443728, Note_off_c, 3, 95, 0
2, 443728, Note_off_c, 3, 83, 0
2, 443818, Note_on_c, 3, 84, 75
2, 443818, Note_on_c, 3, 72, 75
2, 443904, Note_on_c, 3, 91, 86
2, 443904, Note_on_c, 3, 77, 86
2, 443904, Note_on_c, 3, 79, 86
2, 443904, Note_on_c, 3, 65, 66
2, 443905, Note_off_c, 3, 84, 0
2, 443905, Note_off_c, 3, 72, 0
2, 443968, Note_on_c, 3, 83, 102
2, 443968, Note_on_c, 3, 71, 76
2, 443970, Note_off_c, 3, 77, 0
2, 443970, Note_off_c, 3, 65, 0
2, 443985, Note_off_c, 3, 91, 0
2, 443985, Note_off_c, 3, 79, 0
2, 443989, Note_on_c, 3, 87, 75
2, 443989, Note_on_c, 3, 75, 80
2, 444025, Note_off_c, 3, 83, 0
2, 444025, Note_off_c, 3, 71, 0
2, 444069, Note_off_c, 3, 87, 0
2, 444069, Note_off_c, 3, 75, 0
2, 444096, Note_on_c, 3, 81, 92
2, 444096, Note_on_c, 3, 69, 68
2, 444160, Note_on_c, 3, 84, 82
2, 444160, Note_on_c, 3, 98, 117
2, 444160, Note_on_c, 3, 72, 71
2, 444160, Note_on_c, 3, 86, 87
2, 444161, Note_off_c, 3, 81, 0
2, 444161, Note_off_c, 3, 69, 0
2, 444224, Note_on_c, 3, 93, 87
2, 444224, Note_on_c, 3, 81, 68
2, 444226, Note_off_c, 3, 98, 0
2, 444226, Note_off_c, 3, 86, 0
2, 444245, Note_on_c, 3, 93, 98
2, 444245, Note_on_c, 3, 81, 83
2, 444247, Note_off_c, 3, 84, 0
2, 444247, Note_off_c, 3, 72, 0
2, 444285, Note_off_c, 3, 93, 0
2, 444285, Note_off_c, 3, 81, 0
2, 444288, Note_on_c, 3, 84, 74
2, 444288, Note_on_c, 3, 72, 60
2, 444321, Note_off_c, 3, 93, 0
2, 444321, Note_off_c, 3, 81, 0
2, 444348, Note_off_c, 3, 84, 0
2, 444348, Note_off_c, 3, 72, 0
2, 444416, Note_on_c, 3, 82, 73
2, 444416, Note_on_c, 3, 70, 73
2, 444501, Note_on_c, 3, 90, 91
2, 444501, Note_on_c, 3, 78, 86
2, 444502, Note_off_c, 3, 82, 0
2, 444502, Note_off_c, 3, 70, 0
2, 444581, Note_off_c, 3, 90, 0
2, 444581, Note_off_c, 3, 78, 0
2, 444736, Note_on_c, 3, 78, 76
2, 444736, Note_on_c, 3, 66, 73
2, 444800, Note_on_c, 3, 82, 83
2, 444800, Note_on_c, 3, 70, 82
2, 444801, Note_off_c, 3, 78, 0
2, 444801, Note_off_c, 3, 66, 0
2, 444864, Note_on_c, 3, 80, 81
2, 444864, Note_on_c, 3, 68, 81
2, 444865, Note_off_c, 3, 82, 0
2, 444865, Note_off_c, 3, 70, 0
2, 444928, Note_on_c, 3, 84, 87
2, 444928, Note_on_c, 3, 72, 89
2, 444929, Note_off_c, 3, 80, 0
2, 444929, Note_off_c, 3, 68, 0
2, 444992, Note_on_c, 3, 88, 93
2, 444992, Note_on_c, 3, 76, 95
2, 444993, Note_off_c, 3, 84, 0
2, 444993, Note_off_c, 3, 72, 0
2, 445056, Note_on_c, 3, 92, 103
2, 445056, Note_on_c, 3, 80, 108
2, 445057, Note_off_c, 3, 88, 0
2, 445057, Note_off_c, 3, 76, 0
2, 445120, Note_on_c, 3, 90, 88
2, 445120, Note_on_c, 3, 78, 77
2, 445121, Note_off_c, 3, 92, 0
2, 445121, Note_off_c, 3, 80, 0
2, 445184, Note_on_c, 3, 102, 113
2, 445184, Note_on_c, 3, 90, 99
2, 445185, Note_off_c, 3, 90, 0
2, 445185, Note_off_c, 3, 78, 0
2, 445248, Note_on_c, 3, 95, 73
2, 445248, Note_on_c, 3, 83, 76
2, 445249, Note_off_c, 3, 102, 0
2, 445249, Note_off_c, 3, 90, 0
2, 445312, Note_on_c, 3, 83, 63
2, 445312, Note_on_c, 3, 90, 63
2, 445312, Note_on_c, 3, 71, 64
2, 445312, Note_on_c, 3, 78, 64
2, 445313, Note_off_c, 3, 95, 0
2, 445313, Note_off_c, 3, 83, 0
2, 445376, Note_on_c, 3, 86, 90
2, 445376, Note_on_c, 3, 93, 90
2, 445376, Note_on_c, 3, 74, 93
2, 445376, Note_on_c, 3, 81, 93
2, 445377, Note_off_c, 3, 83, 0
2, 445377, Note_off_c, 3, 90, 0
2, 445377, Note_off_c, 3, 71, 0
2, 445377, Note_off_c, 3, 78, 0
2, 445440, Note_on_c, 3, 90, 81
2, 445440, Note_on_c, 3, 78, 86
2, 445441, Note_off_c, 3, 86, 0
2, 445441, Note_off_c, 3, 93, 0
2, 445441, Note_off_c, 3, 74, 0
2, 445441, Note_off_c, 3, 81, 0
2, 445504, Note_on_c, 3, 96, 97
2, 445504, Note_on_c, 3, 84, 97
2, 445505, Note_off_c, 3, 90, 0
2, 445505, Note_off_c, 3, 78, 0
2, 445568, Note_on_c, 3, 94, 92
2, 445568, Note_on_c, 3, 82, 91
2, 445569, Note_off_c, 3, 96, 0
2, 445569, Note_off_c, 3, 84, 0
2, 445628, Note_off_c, 3, 94, 0
2, 445628, Note_off_c, 3, 82, 0
2, 445760, Note_on_c, 3, 102, 80
2, 445760, Note_on_c, 3, 90, 78
2, 445824, Note_on_c, 3, 97, 66
2, 445824, Note_on_c, 3, 85, 66
2, 445825, Note_off_c, 3, 102, 0
2, 445825, Note_off_c, 3, 90, 0
2, 445866, Note_on_c, 3, 100, 92
2, 445866, Note_on_c, 3, 88, 66
2, 445888, Note_on_c, 3, 90, 68
2, 445888, Note_on_c, 3, 78, 66
2, 445889, Note_off_c, 3, 97, 0
2, 445889, Note_off_c, 3, 85, 0
2, 445952, Note_on_c, 3, 85, 58
2, 445952, Note_on_c, 3, 97, 82
2, 445952, Note_on_c, 3, 73, 57
2, 445952, Note_on_c, 3, 85, 60
2, 445954, Note_off_c, 3, 100, 0
2, 445954, Note_off_c, 3, 90, 0
2, 445954, Note_off_c, 3, 88, 0
2, 445954, Note_off_c, 3, 78, 0
2, 446018, Note_off_c, 3, 85, 0
2, 446018, Note_off_c, 3, 73, 0
2, 446037, Note_on_c, 3, 90, 78
2, 446037, Note_on_c, 3, 78, 60
2, 446039, Note_off_c, 3, 97, 0
2, 446039, Note_off_c, 3, 85, 0
2, 446122, Note_on_c, 3, 95, 86
2, 446122, Note_on_c, 3, 83, 68
2, 446124, Note_off_c, 3, 90, 0
2, 446124, Note_off_c, 3, 78, 0
2, 446208, Note_on_c, 3, 89, 83
2, 446208, Note_on_c, 3, 77, 66
2, 446210, Note_off_c, 3, 95, 0
2, 446210, Note_off_c, 3, 83, 0
2, 446293, Note_on_c, 3, 85, 73
2, 446293, Note_on_c, 3, 73, 52
2, 446295, Note_off_c, 3, 89, 0
2, 446295, Note_off_c, 3, 77, 0
2, 446336, Note_on_c, 3, 79, 75
2, 446336, Note_on_c, 3, 67, 75
2, 446378, Note_on_c, 3, 83, 90
2, 446378, Note_on_c, 3, 71, 75
2, 446380, Note_off_c, 3, 85, 0
2, 446380, Note_off_c, 3, 73, 0
2, 446397, Note_off_c, 3, 79, 0
2, 446397, Note_off_c, 3, 67, 0
2, 446400, Note_on_c, 3, 83, 88
2, 446400, Note_on_c, 3, 71, 91
2, 446454, Note_off_c, 3, 83, 0
2, 446454, Note_off_c, 3, 71, 0
2, 446460, Note_off_c, 3, 83, 0
2, 446460, Note_off_c, 3, 71, 0
2, 446464, Note_on_c, 3, 83, 92
2, 446464, Note_on_c, 3, 85, 92
2, 446464, Note_on_c, 3, 71, 92
2, 446464, Note_on_c, 3, 73, 92
2, 446528, Note_off_c, 3, 85, 0
2, 446528, Note_off_c, 3, 73, 0
2, 446528, Note_on_c, 3, 85, 112
2, 446528, Note_on_c, 3, 93, 112
2, 446528, Note_on_c, 3, 73, 113
2, 446528, Note_on_c, 3, 81, 113
2, 446529, Note_off_c, 3, 83, 0
2, 446529, Note_off_c, 3, 71, 0
2, 446592, Note_on_c, 3, 95, 91
2, 446592, Note_on_c, 3, 83, 94
2, 446593, Note_off_c, 3, 85, 0
2, 446593, Note_off_c, 3, 93, 0
2, 446593, Note_off_c, 3, 73, 0
2, 446593, Note_off_c, 3, 81, 0
2, 446656, Note_on_c, 3, 92, 84
2, 446656, Note_on_c, 3, 80, 90
2, 446657, Note_off_c, 3, 95, 0
2, 446657, Note_off_c, 3, 83, 0
2, 446720, Note_on_c, 3, 97, 93
2, 446720, Note_on_c, 3, 85, 95
2, 446721, Note_off_c, 3, 92, 0
2, 446721, Note_off_c, 3, 80, 0
2, 446784, Note_on_c, 3, 94, 89
2, 446784, Note_on_c, 3, 82, 87
2, 446785, Note_off_c, 3, 97, 0
2, 446785, Note_off_c, 3, 85, 0
2, 446848, Note_on_c, 3, 90, 72
2, 446848, Note_on_c, 3, 78, 72
2, 446849, Note_off_c, 3, 94, 0
2, 446849, Note_off_c, 3, 82, 0
2, 446912, Note_on_c, 3, 82, 57
2, 446912, Note_on_c, 3, 70, 63
2, 446913, Note_off_c, 3, 90, 0
2, 446913, Note_off_c, 3, 78, 0
2, 446972, Note_off_c, 3, 82, 0
2, 446972, Note_off_c, 3, 70, 0
2, 447040, Note_on_c, 3, 92, 79
2, 447040, Note_on_c, 3, 80, 75
2, 447104, Note_on_c, 3, 88, 72
2, 447104, Note_on_c, 3, 76, 63
2, 447105, Note_off_c, 3, 92, 0
2, 447105, Note_off_c, 3, 80, 0
2, 447168, Note_on_c, 3, 84, 77
2, 447168, Note_on_c, 3, 72, 73
2, 447169, Note_off_c, 3, 88, 0
2, 447169, Note_off_c, 3, 76, 0
2, 447228, Note_off_c, 3, 84, 0
2, 447228, Note_off_c, 3, 72, 0
2, 447232, Note_on_c, 3, 82, 74
2, 447232, Note_on_c, 3, 70, 73
2, 447296, Note_on_c, 3, 80, 64
2, 447296, Note_on_c, 3, 68, 67
2, 447297, Note_off_c, 3, 82, 0
2, 447297, Note_off_c, 3, 70, 0
2, 447356, Note_off_c, 3, 80, 0
2, 447356, Note_off_c, 3, 68, 0
2, 447616, Note_on_c, 3, 83, 73
2, 447616, Note_on_c, 3, 71, 75
2, 447680, Note_on_c, 3, 85, 74
2, 447680, Note_on_c, 3, 73, 77
2, 447681, Note_off_c, 3, 83, 0
2, 447681, Note_off_c, 3, 71, 0
2, 447744, Note_on_c, 3, 95, 105
2, 447744, Note_on_c, 3, 83, 107
2, 447745, Note_off_c, 3, 85, 0
2, 447745, Note_off_c, 3, 73, 0
2, 447808, Note_on_c, 3, 92, 100
2, 447808, Note_on_c, 3, 80, 97
2, 447809, Note_off_c, 3, 95, 0
2, 447809, Note_off_c, 3, 83, 0
2, 447872, Note_on_c, 3, 97, 93
2, 447872, Note_on_c, 3, 85, 96
2, 447873, Note_off_c, 3, 92, 0
2, 447873, Note_off_c, 3, 80, 0
2, 447936, Note_on_c, 3, 94, 88
2, 447936, Note_on_c, 3, 82, 88
2, 447937, Note_off_c, 3, 97, 0
2, 447937, Note_off_c, 3, 85, 0
2, 448000, Note_on_c, 3, 95, 87
2, 448000, Note_on_c, 3, 83, 82
2, 448001, Note_off_c, 3, 94, 0
2, 448001, Note_off_c, 3, 82, 0
2, 448064, Note_on_c, 3, 92, 76
2, 448064, Note_on_c, 3, 80, 72
2, 448065, Note_off_c, 3, 95, 0
2, 448065, Note_off_c, 3, 83, 0
2, 448128, Note_on_c, 3, 101, 103
2, 448128, Note_on_c, 3, 89, 97
2, 448129, Note_off_c, 3, 92, 0
2, 448129, Note_off_c, 3, 80, 0
2, 448188, Note_off_c, 3, 101, 0
2, 448188, Note_off_c, 3, 89, 0
2, 448256, Note_on_c, 3, 85, 76
2, 448256, Note_on_c, 3, 73, 78
2, 448320, Note_on_c, 3, 90, 88
2, 448320, Note_on_c, 3, 78, 84
2, 448321, Note_off_c, 3, 85, 0
2, 448321, Note_off_c, 3, 73, 0
2, 448384, Note_on_c, 3, 95, 99
2, 448384, Note_on_c, 3, 83, 96
2, 448385, Note_off_c, 3, 90, 0
2, 448385, Note_off_c, 3, 78, 0
2, 448448, Note_on_c, 3, 92, 93
2, 448448, Note_on_c, 3, 80, 90
2, 448449, Note_off_c, 3, 95, 0
2, 448449, Note_off_c, 3, 83, 0
2, 448512, Note_on_c, 3, 100, 100
2, 448512, Note_on_c, 3, 88, 102
2, 448513, Note_off_c, 3, 92, 0
2, 448513, Note_off_c, 3, 80, 0
2, 448576, Note_on_c, 3, 94, 89
2, 448576, Note_on_c, 3, 82, 86
2, 448577, Note_off_c, 3, 100, 0
2, 448577, Note_off_c, 3, 88, 0
2, 448636, Note_off_c, 3, 94, 0
2, 448636, Note_off_c, 3, 82, 0
2, 448768, Note_on_c, 3, 94, 74
2, 448768, Note_on_c, 3, 82, 74
2, 448853, Note_on_c, 3, 90, 65
2, 448853, Note_on_c, 3, 78, 69
2, 448854, Note_off_c, 3, 94, 0
2, 448854, Note_off_c, 3, 82, 0
2, 448938, Note_on_c, 3, 82, 66
2, 448938, Note_on_c, 3, 70, 65
2, 448939, Note_off_c, 3, 90, 0
2, 448939, Note_off_c, 3, 78, 0
2, 449024, Note_on_c, 3, 92, 82
2, 449024, Note_on_c, 3, 80, 74
2, 449025, Note_off_c, 3, 82, 0
2, 449025, Note_off_c, 3, 70, 0
2, 449109, Note_on_c, 3, 88, 80
2, 449109, Note_on_c, 3, 76, 78
2, 449110, Note_off_c, 3, 92, 0
2, 449110, Note_off_c, 3, 80, 0
2, 449194, Note_on_c, 3, 85, 68
2, 449194, Note_on_c, 3, 73, 76
2, 449195, Note_off_c, 3, 88, 0
2, 449195, Note_off_c, 3, 76, 0
2, 449216, Note_on_c, 3, 96, 105
2, 449216, Note_on_c, 3, 84, 107
2, 449280, Note_on_c, 3, 93, 100
2, 449280, Note_on_c, 3, 81, 99
2, 449281, Note_off_c, 3, 85, 0
2, 449281, Note_off_c, 3, 96, 0
2, 449281, Note_off_c, 3, 73, 0
2, 449281, Note_off_c, 3, 84, 0
2, 449344, Note_on_c, 3, 90, 75
2, 449344, Note_on_c, 3, 78, 75
2, 449345, Note_off_c, 3, 93, 0
2, 449345, Note_off_c, 3, 81, 0
2, 449408, Note_on_c, 3, 88, 68
2, 449408, Note_on_c, 3, 76, 70
2, 449409, Note_off_c, 3, 90, 0
2, 449409, Note_off_c, 3, 78, 0
2, 449472, Note_on_c, 3, 85, 69
2, 449472, Note_on_c, 3, 73, 78
2, 449473, Note_off_c, 3, 88, 0
2, 449473, Note_off_c, 3, 76, 0
2, 449532, Note_off_c, 3, 85, 0
2, 449532, Note_off_c, 3, 73, 0
2, 449664, Note_on_c, 3, 94, 75
2, 449664, Note_on_c, 3, 82, 75
2, 449728, Note_on_c, 3, 90, 69
2, 449728, Note_on_c, 3, 78, 65
2, 449729, Note_off_c, 3, 94, 0
2, 449729, Note_off_c, 3, 82, 0
2, 449792, Note_on_c, 3, 82, 64
2, 449792, Note_on_c, 3, 70, 68
2, 449793, Note_off_c, 3, 90, 0
2, 449793, Note_off_c, 3, 78, 0
2, 449856, Note_on_c, 3, 92, 79
2, 449856, Note_on_c, 3, 80, 78
2, 449857, Note_off_c, 3, 82, 0
2, 449857, Note_off_c, 3, 70, 0
2, 449920, Note_on_c, 3, 88, 78
2, 449920, Note_on_c, 3, 76, 78
2, 449921, Note_off_c, 3, 92, 0
2, 449921, Note_off_c, 3, 80, 0
2, 449984, Note_on_c, 3, 85, 75
2, 449984, Note_on_c, 3, 73, 70
2, 449985, Note_off_c, 3, 88, 0
2, 449985, Note_off_c, 3, 76, 0
2, 450048, Note_off_c, 3, 85, 0
2, 450048, Note_off_c, 3, 73, 0
2, 450048, Note_on_c, 3, 85, 82
2, 450048, Note_on_c, 3, 73, 86
2, 450112, Note_on_c, 3, 90, 95
2, 450112, Note_on_c, 3, 78, 99
2, 450113, Note_off_c, 3, 85, 0
2, 450113, Note_off_c, 3, 73, 0
2, 450176, Note_on_c, 3, 94, 91
2, 450176, Note_on_c, 3, 82, 95
2, 450177, Note_off_c, 3, 90, 0
2, 450177, Note_off_c, 3, 78, 0
2, 450240, Note_on_c, 3, 92, 91
2, 450240, Note_on_c, 3, 80, 93
2, 450241, Note_off_c, 3, 94, 0
2, 450241, Note_off_c, 3, 82, 0
2, 450304, Note_on_c, 3, 100, 99
2, 450304, Note_on_c, 3, 88, 103
2, 450305, Note_off_c, 3, 92, 0
2, 450305, Note_off_c, 3, 80, 0
2, 450364, Note_off_c, 3, 100, 0
2, 450364, Note_off_c, 3, 88, 0
2, 450944, Note_on_c, 3, 69, 88
2, 451008, Note_on_c, 3, 71, 96
2, 451009, Note_off_c, 3, 69, 0
2, 451072, Note_on_c, 3, 90, 69
2, 451072, Note_on_c, 3, 72, 102
2, 451073, Note_off_c, 3, 71, 0
2, 451136, Note_on_c, 3, 69, 95
2, 451137, Note_off_c, 3, 72, 0
2, 451157, Note_on_c, 3, 93, 77
2, 451158, Note_off_c, 3, 90, 0
2, 451200, Note_on_c, 3, 71, 105
2, 451201, Note_off_c, 3, 69, 0
2, 451242, Note_on_c, 3, 90, 90
2, 451242, Note_on_c, 3, 98, 90
2, 451243, Note_off_c, 3, 93, 0
2, 451264, Note_on_c, 3, 74, 114
2, 451265, Note_off_c, 3, 71, 0
2, 451328, Note_on_c, 3, 93, 78
2, 451328, Note_on_c, 3, 76, 92
2, 451328, Note_on_c, 3, 76, 102
2, 451329, Note_off_c, 3, 90, 0
2, 451329, Note_off_c, 3, 98, 0
2, 451329, Note_off_c, 3, 74, 0
2, 451392, Note_on_c, 3, 74, 89
2, 451392, Note_on_c, 3, 74, 94
2, 451393, Note_off_c, 3, 76, 0
2, 451393, Note_off_c, 3, 76, 0
2, 451413, Note_on_c, 3, 98, 95
2, 451414, Note_off_c, 3, 93, 0
2, 451452, Note_off_c, 3, 74, 0
2, 451456, Note_on_c, 3, 78, 102
2, 451457, Note_off_c, 3, 74, 0
2, 451498, Note_on_c, 3, 93, 90
2, 451498, Note_on_c, 3, 96, 90
2, 451499, Note_off_c, 3, 98, 0
2, 451520, Note_on_c, 3, 80, 107
2, 451521, Note_off_c, 3, 78, 0
2, 451580, Note_off_c, 3, 80, 0
2, 451584, Note_on_c, 3, 98, 85
2, 451585, Note_off_c, 3, 93, 0
2, 451585, Note_off_c, 3, 96, 0
2, 451664, Note_off_c, 3, 98, 0
2, 451669, Note_on_c, 3, 96, 82
2, 451712, Note_on_c, 3, 66, 88
2, 451754, Note_off_c, 3, 96, 0
2, 451776, Note_on_c, 3, 72, 102
2, 451777, Note_off_c, 3, 66, 0
2, 451840, Note_on_c, 3, 76, 110
2, 451841, Note_off_c, 3, 72, 0
2, 451904, Note_on_c, 3, 74, 107
2, 451905, Note_off_c, 3, 76, 0
2, 451968, Note_on_c, 3, 73, 95
2, 451969, Note_off_c, 3, 74, 0
2, 452032, Note_on_c, 3, 78, 106
2, 452033, Note_off_c, 3, 73, 0
2, 452092, Note_off_c, 3, 78, 0
2, 452096, Note_on_c, 3, 90, 72
2, 452181, Note_on_c, 3, 92, 77
2, 452182, Note_off_c, 3, 90, 0
2, 452266, Note_on_c, 3, 98, 97
2, 452267, Note_off_c, 3, 92, 0
2, 452352, Note_on_c, 3, 96, 90
2, 452352, Note_on_c, 3, 73, 93
2, 452353, Note_off_c, 3, 98, 0
2, 452416, Note_on_c, 3, 74, 95
2, 452417, Note_off_c, 3, 73, 0
2, 452437, Note_on_c, 3, 90, 75
2, 452437, Note_on_c, 3, 93, 75
2, 452438, Note_off_c, 3, 96, 0
2, 452480, Note_on_c, 3, 73, 94
2, 452481, Note_off_c, 3, 74, 0
2, 452522, Note_on_c, 3, 92, 86
2, 452522, Note_on_c, 3, 100, 86
2, 452523, Note_off_c, 3, 90, 0
2, 452523, Note_off_c, 3, 93, 0
2, 452544, Note_on_c, 3, 76, 102
2, 452545, Note_off_c, 3, 73, 0
2, 452608, Note_on_c, 3, 95, 77
2, 452608, Note_on_c, 3, 98, 77
2, 452608, Note_on_c, 3, 78, 109
2, 452609, Note_off_c, 3, 92, 0
2, 452609, Note_off_c, 3, 100, 0
2, 452609, Note_off_c, 3, 76, 0
2, 452672, Note_on_c, 3, 84, 123
2, 452673, Note_off_c, 3, 78, 0
2, 452693, Note_on_c, 3, 96, 72
2, 452694, Note_off_c, 3, 95, 0
2, 452694, Note_off_c, 3, 98, 0
2, 452732, Note_off_c, 3, 84, 0
2, 452778, Note_on_c, 3, 93, 72
2, 452779, Note_off_c, 3, 96, 0
2, 452864, Note_on_c, 3, 100, 84
2, 452864, Note_on_c, 3, 81, 90
2, 452865, Note_off_c, 3, 93, 0
2, 452928, Note_on_c, 3, 80, 82
2, 452929, Note_off_c, 3, 81, 0
2, 452944, Note_off_c, 3, 100, 0
2, 452992, Note_on_c, 3, 86, 109
2, 452993, Note_off_c, 3, 80, 0
2, 453056, Note_on_c, 3, 78, 94
2, 453057, Note_off_c, 3, 86, 0
2, 453120, Note_on_c, 3, 76, 87
2, 453121, Note_off_c, 3, 78, 0
2, 453184, Note_on_c, 3, 71, 68
2, 453185, Note_off_c, 3, 76, 0
2, 453205, Note_on_c, 3, 80, 75
2, 453248, Note_on_c, 3, 76, 106
2, 453249, Note_off_c, 3, 71, 0
2, 453290, Note_on_c, 3, 88, 92
2, 453291, Note_off_c, 3, 80, 0
2, 453312, Note_on_c, 3, 68, 87
2, 453313, Note_off_c, 3, 76, 0
2, 453372, Note_off_c, 3, 68, 0
2, 453376, Note_on_c, 3, 93, 96
2, 453377, Note_off_c, 3, 88, 0
2, 453440, Note_on_c, 3, 78, 88
2, 453461, Note_on_c, 3, 80, 113
2, 453461, Note_on_c, 3, 98, 113
2, 453462, Note_off_c, 3, 93, 0
2, 453504, Note_on_c, 3, 73, 75
2, 453505, Note_off_c, 3, 78, 0
2, 453546, Note_on_c, 3, 88, 75
2, 453546, Note_on_c, 3, 93, 75
2, 453547, Note_off_c, 3, 80, 0
2, 453547, Note_off_c, 3, 98, 0
2, 453568, Note_on_c, 3, 83, 115
2, 453569, Note_off_c, 3, 73, 0
2, 453632, Note_off_c, 3, 93, 0
2, 453632, Note_on_c, 3, 93, 88
2, 453632, Note_on_c, 3, 100, 88
2, 453632, Note_on_c, 3, 81, 113
2, 453633, Note_off_c, 3, 88, 0
2, 453633, Note_off_c, 3, 83, 0
2, 453696, Note_on_c, 3, 72, 77
2, 453697, Note_off_c, 3, 81, 0
2, 453717, Note_on_c, 3, 96, 78
2, 453717, Note_on_c, 3, 98, 78
2, 453718, Note_off_c, 3, 93, 0
2, 453718, Note_off_c, 3, 100, 0
2, 453760, Note_on_c, 3, 69, 64
2, 453761, Note_off_c, 3, 72, 0
2, 453802, Note_on_c, 3, 93, 68
2, 453803, Note_off_c, 3, 96, 0
2, 453803, Note_off_c, 3, 98, 0
2, 453824, Note_on_c, 3, 65, 87
2, 453825, Note_off_c, 3, 69, 0
2, 453884, Note_off_c, 3, 65, 0
2, 453888, Note_on_c, 3, 100, 98
2, 453889, Note_off_c, 3, 93, 0
2, 453952, Note_on_c, 3, 81, 85
2, 453973, Note_on_c, 3, 92, 90
2, 453973, Note_on_c, 3, 96, 90
2, 453974, Note_off_c, 3, 100, 0
2, 454016, Note_on_c, 3, 78, 71
2, 454017, Note_off_c, 3, 81, 0
2, 454058, Note_on_c, 3, 93, 89
2, 454058, Note_on_c, 3, 98, 89
2, 454059, Note_off_c, 3, 92, 0
2, 454059, Note_off_c, 3, 96, 0
2, 454080, Note_on_c, 3, 71, 85
2, 454081, Note_off_c, 3, 78, 0
2, 454139, Note_off_c, 3, 93, 0
2, 454139, Note_off_c, 3, 98, 0
2, 454140, Note_off_c, 3, 71, 0
2, 454144, Note_on_c, 3, 86, 116
2, 454208, Note_on_c, 3, 80, 101
2, 454209, Note_off_c, 3, 86, 0
2, 454272, Note_on_c, 3, 78, 89
2, 454273, Note_off_c, 3, 80, 0
2, 454336, Note_on_c, 3, 73, 74
2, 454337, Note_off_c, 3, 78, 0
2, 454400, Note_on_c, 3, 90, 80
2, 454400, Note_on_c, 3, 76, 104
2, 454401, Note_off_c, 3, 73, 0
2, 454464, Note_on_c, 3, 71, 93
2, 454465, Note_off_c, 3, 76, 0
2, 454485, Note_on_c, 3, 95, 92
2, 454486, Note_off_c, 3, 90, 0
2, 454524, Note_off_c, 3, 71, 0
2, 454570, Note_on_c, 3, 90, 76
2, 454571, Note_off_c, 3, 95, 0
2, 454656, Note_off_c, 3, 90, 0
2, 454656, Note_on_c, 3, 90, 96
2, 454656, Note_on_c, 3, 98, 96
2, 454741, Note_on_c, 3, 93, 88
2, 454741, Note_on_c, 3, 95, 88
2, 454742, Note_off_c, 3, 90, 0
2, 454742, Note_off_c, 3, 98, 0
2, 454784, Note_on_c, 3, 86, 85
2, 454826, Note_on_c, 3, 92, 91
2, 454826, Note_on_c, 3, 100, 91
2, 454827, Note_off_c, 3, 93, 0
2, 454827, Note_off_c, 3, 95, 0
2, 454848, Note_on_c, 3, 80, 71
2, 454849, Note_off_c, 3, 86, 0
2, 454912, Note_on_c, 3, 96, 87
2, 454912, Note_on_c, 3, 98, 87
2, 454912, Note_on_c, 3, 78, 88
2, 454913, Note_off_c, 3, 92, 0
2, 454913, Note_off_c, 3, 100, 0
2, 454913, Note_off_c, 3, 80, 0
2, 454976, Note_on_c, 3, 72, 74
2, 454977, Note_off_c, 3, 78, 0
2, 454997, Note_on_c, 3, 95, 75
2, 454998, Note_off_c, 3, 96, 0
2, 454998, Note_off_c, 3, 98, 0
2, 455040, Note_on_c, 3, 74, 95
2, 455041, Note_off_c, 3, 72, 0
2, 455082, Note_on_c, 3, 90, 84
2, 455082, Note_on_c, 3, 100, 84
2, 455083, Note_off_c, 3, 95, 0
2, 455104, Note_on_c, 3, 71, 88
2, 455105, Note_off_c, 3, 74, 0
2, 455168, Note_on_c, 3, 96, 79
2, 455168, Note_on_c, 3, 98, 79
2, 455168, Note_on_c, 3, 67, 81
2, 455169, Note_off_c, 3, 90, 0
2, 455169, Note_off_c, 3, 100, 0
2, 455169, Note_off_c, 3, 71, 0
2, 455228, Note_off_c, 3, 67, 0
2, 455253, Note_off_c, 3, 98, 0
2, 455253, Note_on_c, 3, 98, 76
2, 455254, Note_off_c, 3, 96, 0
2, 455338, Note_on_c, 3, 90, 72
2, 455338, Note_on_c, 3, 93, 72
2, 455339, Note_off_c, 3, 98, 0
2, 455360, Note_on_c, 3, 88, 91
2, 455424, Note_on_c, 3, 92, 82
2, 455424, Note_on_c, 3, 98, 82
2, 455424, Note_on_c, 3, 82, 76
2, 455425, Note_off_c, 3, 90, 0
2, 455425, Note_off_c, 3, 93, 0
2, 455425, Note_off_c, 3, 88, 0
2, 455488, Note_on_c, 3, 80, 88
2, 455489, Note_off_c, 3, 82, 0
2, 455509, Note_on_c, 3, 97, 83
2, 455510, Note_off_c, 3, 92, 0
2, 455510, Note_off_c, 3, 98, 0
2, 455548, Note_off_c, 3, 80, 0
2, 455594, Note_on_c, 3, 92, 71
2, 455595, Note_off_c, 3, 97, 0
2, 455680, Note_on_c, 3, 98, 91
2, 455681, Note_off_c, 3, 92, 0
2, 455765, Note_on_c, 3, 95, 89
2, 455766, Note_off_c, 3, 98, 0
2, 455808, Note_on_c, 3, 93, 88
2, 455808, Note_on_c, 3, 81, 85
2, 455850, Note_on_c, 3, 92, 77
2, 455851, Note_off_c, 3, 95, 0
2, 455936, Note_on_c, 3, 86, 66
2, 455937, Note_off_c, 3, 92, 0
2, 456021, Note_on_c, 3, 90, 93
2, 456022, Note_off_c, 3, 86, 0
2, 456064, Note_off_c, 3, 93, 0
2, 456064, Note_off_c, 3, 81, 0
2, 456064, Note_on_c, 3, 93, 97
2, 456064, Note_on_c, 3, 85, 110
2, 456106, Note_on_c, 3, 93, 101
2, 456107, Note_off_c, 3, 90, 0
2, 456192, Note_on_c, 3, 98, 99
2, 456193, Note_off_c, 3, 93, 0
2, 456272, Note_off_c, 3, 98, 0
2, 456320, Note_off_c, 3, 93, 0
2, 456320, Note_off_c, 3, 85, 0
2, 456320, Note_on_c, 3, 93, 96
2, 456320, Note_on_c, 3, 83, 93
2, 456362, Note_on_c, 3, 93, 74
2, 456384, Note_off_c, 3, 93, 0
2, 456384, Note_off_c, 3, 83, 0
2, 456448, Note_on_c, 3, 86, 67
2, 456448, Note_on_c, 3, 90, 67
2, 456448, Note_on_c, 3, 93, 98
2, 456448, Note_on_c, 3, 86, 106
2, 456449, Note_off_c, 3, 93, 0
2, 456533, Note_off_c, 3, 90, 0
2, 456533, Note_on_c, 3, 90, 96
2, 456533, Note_on_c, 3, 97, 96
2, 456534, Note_off_c, 3, 86, 0
2, 456618, Note_on_c, 3, 92, 85
2, 456618, Note_on_c, 3, 93, 85
2, 456619, Note_off_c, 3, 90, 0
2, 456619, Note_off_c, 3, 97, 0
2, 456704, Note_off_c, 3, 93, 0
2, 456704, Note_off_c, 3, 86, 0
2, 456704, Note_on_c, 3, 85, 93
2, 456704, Note_on_c, 3, 98, 93
2, 456704, Note_on_c, 3, 93, 103
2, 456704, Note_on_c, 3, 86, 102
2, 456705, Note_off_c, 3, 92, 0
2, 456705, Note_off_c, 3, 93, 0
2, 456789, Note_on_c, 3, 90, 90
2, 456789, Note_on_c, 3, 97, 90
2, 456790, Note_off_c, 3, 85, 0
2, 456790, Note_off_c, 3, 98, 0
2, 456874, Note_on_c, 3, 88, 76
2, 456874, Note_on_c, 3, 93, 76
2, 456875, Note_off_c, 3, 90, 0
2, 456875, Note_off_c, 3, 97, 0
2, 456960, Note_off_c, 3, 93, 0
2, 456960, Note_off_c, 3, 86, 0
2, 456960, Note_on_c, 3, 90, 83
2, 456960, Note_on_c, 3, 98, 83
2, 456960, Note_on_c, 3, 93, 101
2, 456960, Note_on_c, 3, 86, 97
2, 456961, Note_off_c, 3, 88, 0
2, 456961, Note_off_c, 3, 93, 0
2, 457045, Note_on_c, 3, 93, 81
2, 457045, Note_on_c, 3, 95, 81
2, 457046, Note_off_c, 3, 90, 0
2, 457046, Note_off_c, 3, 98, 0
2, 457130, Note_on_c, 3, 92, 98
2, 457130, Note_on_c, 3, 100, 98
2, 457131, Note_off_c, 3, 93, 0
2, 457131, Note_off_c, 3, 95, 0
2, 457216, Note_off_c, 3, 93, 0
2, 457216, Note_off_c, 3, 86, 0
2, 457216, Note_on_c, 3, 85, 72
2, 457216, Note_on_c, 3, 93, 72
2, 457216, Note_on_c, 3, 93, 101
2, 457216, Note_on_c, 3, 86, 100
2, 457217, Note_off_c, 3, 92, 0
2, 457217, Note_off_c, 3, 100, 0
2, 457301, Note_on_c, 3, 90, 67
2, 457302, Note_off_c, 3, 85, 0
2, 457302, Note_off_c, 3, 93, 0
2, 457344, Note_off_c, 3, 93, 0
2, 457344, Note_off_c, 3, 86, 0
2, 457344, Note_on_c, 3, 93, 93
2, 457344, Note_on_c, 3, 86, 95
2, 457386, Note_on_c, 3, 88, 77
2, 457387, Note_off_c, 3, 90, 0
2, 457472, Note_on_c, 3, 98, 95
2, 457473, Note_off_c, 3, 88, 0
2, 457557, Note_on_c, 3, 93, 76
2, 457558, Note_off_c, 3, 98, 0
2, 457600, Note_off_c, 3, 93, 0
2, 457600, Note_off_c, 3, 86, 0
2, 457600, Note_on_c, 3, 93, 94
2, 457600, Note_on_c, 3, 86, 95
2, 457637, Note_off_c, 3, 93, 0
2, 457728, Note_off_c, 3, 93, 0
2, 457728, Note_off_c, 3, 86, 0
2, 457813, Note_on_c, 3, 86, 76
2, 457898, Note_on_c, 3, 92, 92
2, 457899, Note_off_c, 3, 86, 0
2, 457984, Note_on_c, 3, 90, 93
2, 457984, Note_on_c, 3, 95, 93
2, 457985, Note_off_c, 3, 92, 0
2, 458069, Note_on_c, 3, 98, 107
2, 458070, Note_off_c, 3, 90, 0
2, 458070, Note_off_c, 3, 95, 0
2, 458154, Note_on_c, 3, 93, 100
2, 458154, Note_on_c, 3, 104, 100
2, 458155, Note_off_c, 3, 98, 0
2, 458240, Note_on_c, 3, 86, 79
2, 458241, Note_off_c, 3, 93, 0
2, 458241, Note_off_c, 3, 104, 0
2, 458325, Note_on_c, 3, 100, 103
2, 458326, Note_off_c, 3, 86, 0
2, 458410, Note_on_c, 3, 90, 86
2, 458410, Note_on_c, 3, 93, 86
2, 458411, Note_off_c, 3, 100, 0
2, 458496, Note_on_c, 3, 95, 88
2, 458496, Note_on_c, 3, 97, 88
2, 458497, Note_off_c, 3, 90, 0
2, 458497, Note_off_c, 3, 93, 0
2, 458581, Note_on_c, 3, 92, 77
2, 458582, Note_off_c, 3, 95, 0
2, 458582, Note_off_c, 3, 97, 0
2, 458666, Note_on_c, 3, 84, 81
2, 458666, Note_on_c, 3, 93, 81
2, 458667, Note_off_c, 3, 92, 0
2, 458752, Note_on_c, 3, 86, 66
2, 458753, Note_off_c, 3, 84, 0
2, 458753, Note_off_c, 3, 93, 0
2, 458832, Note_off_c, 3, 86, 0
2, 458922, Note_on_c, 3, 90, 77
2, 459008, Note_on_c, 3, 95, 85
2, 459009, Note_off_c, 3, 90, 0
2, 459093, Note_on_c, 3, 92, 81
2, 459094, Note_off_c, 3, 95, 0
2, 459178, Note_on_c, 3, 88, 69
2, 459179, Note_off_c, 3, 92, 0
2, 459264, Note_on_c, 3, 100, 108
2, 459265, Note_off_c, 3, 88, 0
2, 459349, Note_on_c, 3, 93, 93
2, 459350, Note_off_c, 3, 100, 0
2, 459429, Note_off_c, 3, 93, 0
2, 459520, Note_on_c, 3, 84, 78
2, 459605, Note_on_c, 3, 86, 90
2, 459605, Note_on_c, 3, 95, 90
2, 459606, Note_off_c, 3, 84, 0
2, 459690, Note_on_c, 3, 90, 80
2, 459690, Note_on_c, 3, 93, 80
2, 459691, Note_off_c, 3, 86, 0
2, 459691, Note_off_c, 3, 95, 0
2, 459776, Note_on_c, 3, 88, 88
2, 459776, Note_on_c, 3, 96, 88
2, 459777, Note_off_c, 3, 90, 0
2, 459777, Note_off_c, 3, 93, 0
2, 459861, Note_off_c, 3, 96, 0
2, 459861, Note_on_c, 3, 96, 100
2, 459861, Note_on_c, 3, 102, 100
2, 459862, Note_off_c, 3, 88, 0
2, 459946, Note_off_c, 3, 96, 0
2, 459946, Note_on_c, 3, 93, 85
2, 459946, Note_on_c, 3, 96, 85
2, 459947, Note_off_c, 3, 102, 0
2, 460032, Note_off_c, 3, 93, 0
2, 460032, Note_on_c, 3, 93, 74
2, 460032, Note_on_c, 3, 93, 127
2, 460033, Note_off_c, 3, 96, 0
2, 460117, Note_on_c, 3, 84, 71
2, 460117, Note_on_c, 3, 90, 71
2, 460118, Note_off_c, 3, 93, 0
2, 460160, Note_off_c, 3, 93, 0
2, 460202, Note_on_c, 3, 86, 88
2, 460202, Note_on_c, 3, 92, 88
2, 460203, Note_off_c, 3, 84, 0
2, 460203, Note_off_c, 3, 90, 0
2, 460288, Note_on_c, 3, 93, 96
2, 460288, Note_on_c, 3, 93, 127
2, 460289, Note_off_c, 3, 86, 0
2, 460289, Note_off_c, 3, 92, 0
2, 460373, Note_on_c, 3, 96, 92
2, 460374, Note_off_c, 3, 93, 0
2, 460416, Note_off_c, 3, 93, 0
2, 460458, Note_on_c, 3, 98, 106
2, 460458, Note_on_c, 3, 102, 106
2, 460459, Note_off_c, 3, 96, 0
2, 460544, Note_on_c, 3, 96, 71
2, 460544, Note_on_c, 3, 93, 127
2, 460545, Note_off_c, 3, 98, 0
2, 460545, Note_off_c, 3, 102, 0
2, 460629, Note_on_c, 3, 93, 61
2, 460630, Note_off_c, 3, 96, 0
2, 460672, Note_off_c, 3, 93, 0
2, 460714, Note_on_c, 3, 90, 74
2, 460715, Note_off_c, 3, 93, 0
2, 460795, Note_off_c, 3, 90, 0
2, 460800, Note_on_c, 3, 92, 127
2, 460864, Note_off_c, 3, 92, 0
2, 460864, Note_on_c, 3, 92, 127
2, 460928, Note_off_c, 3, 92, 0
2, 460928, Note_on_c, 3, 92, 127
2, 460992, Note_off_c, 3, 92, 0
2, 461056, Note_on_c, 3, 87, 78
2, 461056, Note_on_c, 3, 92, 127
2, 461141, Note_on_c, 3, 90, 82
2, 461142, Note_off_c, 3, 87, 0
2, 461184, Note_off_c, 3, 92, 0
2, 461226, Note_on_c, 3, 93, 93
2, 461227, Note_off_c, 3, 90, 0
2, 461312, Note_on_c, 3, 96, 103
2, 461312, Note_on_c, 3, 95, 127
2, 461313, Note_off_c, 3, 93, 0
2, 461397, Note_on_c, 3, 98, 89
2, 461398, Note_off_c, 3, 96, 0
2, 461440, Note_off_c, 3, 95, 0
2, 461440, Note_on_c, 3, 97, 127
2, 461482, Note_on_c, 3, 96, 87
2, 461483, Note_off_c, 3, 98, 0
2, 461568, Note_off_c, 3, 97, 0
2, 461568, Note_on_c, 3, 90, 77
2, 461568, Note_on_c, 3, 93, 77
2, 461569, Note_off_c, 3, 96, 0
2, 461653, Note_off_c, 3, 93, 0
2, 461653, Note_on_c, 3, 93, 88
2, 461653, Note_on_c, 3, 100, 88
2, 461654, Note_off_c, 3, 90, 0
2, 461696, Note_on_c, 3, 97, 127
2, 461738, Note_on_c, 3, 96, 80
2, 461739, Note_off_c, 3, 93, 0
2, 461739, Note_off_c, 3, 100, 0
2, 461824, Note_off_c, 3, 97, 0
2, 461824, Note_on_c, 3, 93, 86
2, 461824, Note_on_c, 3, 98, 86
2, 461824, Note_on_c, 3, 96, 127
2, 461825, Note_off_c, 3, 96, 0
2, 461909, Note_on_c, 3, 87, 81
2, 461909, Note_on_c, 3, 96, 81
2, 461910, Note_off_c, 3, 93, 0
2, 461910, Note_off_c, 3, 98, 0
2, 461952, Note_off_c, 3, 96, 0
2, 461994, Note_on_c, 3, 90, 75
2, 461994, Note_on_c, 3, 93, 75
2, 461995, Note_off_c, 3, 87, 0
2, 461995, Note_off_c, 3, 96, 0
2, 462080, Note_off_c, 3, 93, 0
2, 462080, Note_on_c, 3, 93, 95
2, 462080, Note_on_c, 3, 100, 95
2, 462081, Note_off_c, 3, 90, 0
2, 462165, Note_on_c, 3, 96, 83
2, 462166, Note_off_c, 3, 93, 0
2, 462166, Note_off_c, 3, 100, 0
2, 462250, Note_on_c, 3, 93, 99
2, 462250, Note_on_c, 3, 102, 99
2, 462251, Note_off_c, 3, 96, 0
2, 462336, Note_on_c, 3, 87, 76
2, 462336, Note_on_c, 3, 95, 127
2, 462337, Note_off_c, 3, 93, 0
2, 462337, Note_off_c, 3, 102, 0
2, 462421, Note_on_c, 3, 90, 82
2, 462422, Note_off_c, 3, 87, 0
2, 462464, Note_off_c, 3, 95, 0
2, 462501, Note_off_c, 3, 90, 0
2, 462592, Note_on_c, 3, 96, 127
2, 462656, Note_off_c, 3, 96, 0
2, 462656, Note_on_c, 3, 96, 127
2, 462720, Note_off_c, 3, 96, 0
2, 462848, Note_on_c, 3, 86, 73
2, 462933, Note_on_c, 3, 90, 82
2, 462934, Note_off_c, 3, 86, 0
2, 462976, Note_on_c, 3, 95, 127
2, 463018, Note_on_c, 3, 93, 95
2, 463019, Note_off_c, 3, 90, 0
2, 463104, Note_off_c, 3, 95, 0
2, 463104, Note_on_c, 3, 96, 105
2, 463104, Note_on_c, 3, 95, 127
2, 463105, Note_off_c, 3, 93, 0
2, 463189, Note_on_c, 3, 88, 91
2, 463189, Note_on_c, 3, 98, 91
2, 463190, Note_off_c, 3, 96, 0
2, 463232, Note_off_c, 3, 95, 0
2, 463274, Note_on_c, 3, 92, 84
2, 463274, Note_on_c, 3, 96, 84
2, 463275, Note_off_c, 3, 88, 0
2, 463275, Note_off_c, 3, 98, 0
2, 463360, Note_on_c, 3, 95, 87
2, 463360, Note_on_c, 3, 98, 87
2, 463360, Note_on_c, 3, 96, 127
2, 463361, Note_off_c, 3, 92, 0
2, 463361, Note_off_c, 3, 96, 0
2, 463424, Note_off_c, 3, 96, 0
2, 463424, Note_on_c, 3, 96, 127
2, 463445, Note_off_c, 3, 98, 0
2, 463445, Note_on_c, 3, 90, 87
2, 463445, Note_on_c, 3, 98, 87
2, 463446, Note_off_c, 3, 95, 0
2, 463488, Note_off_c, 3, 96, 0
2, 463530, Note_on_c, 3, 93, 87
2, 463530, Note_on_c, 3, 100, 87
2, 463531, Note_off_c, 3, 90, 0
2, 463531, Note_off_c, 3, 98, 0
2, 463616, Note_on_c, 3, 98, 88
2, 463616, Note_on_c, 3, 101, 88
2, 463616, Note_on_c, 3, 96, 127
2, 463617, Note_off_c, 3, 93, 0
2, 463617, Note_off_c, 3, 100, 0
2, 463701, Note_on_c, 3, 100, 84
2, 463702, Note_off_c, 3, 98, 0
2, 463702, Note_off_c, 3, 101, 0
2, 463744, Note_off_c, 3, 96, 0
2, 463786, Note_on_c, 3, 90, 69
2, 463786, Note_on_c, 3, 92, 69
2, 463787, Note_off_c, 3, 100, 0
2, 463872, Note_off_c, 3, 92, 0
2, 463872, Note_on_c, 3, 92, 87
2, 463872, Note_on_c, 3, 95, 87
2, 463873, Note_off_c, 3, 90, 0
2, 463957, Note_on_c, 3, 96, 105
2, 463957, Note_on_c, 3, 103, 105
2, 463958, Note_off_c, 3, 92, 0
2, 463958, Note_off_c, 3, 95, 0
2, 464042, Note_on_c, 3, 98, 80
2, 464043, Note_off_c, 3, 96, 0
2, 464043, Note_off_c, 3, 103, 0
2, 464128, Note_on_c, 3, 92, 75
2, 464128, Note_on_c, 3, 96, 75
2, 464128, Note_on_c, 3, 96, 127
2, 464129, Note_off_c, 3, 98, 0
2, 464192, Note_off_c, 3, 96, 0
2, 464192, Note_on_c, 3, 96, 127
2, 464213, Note_on_c, 3, 94, 82
2, 464214, Note_off_c, 3, 92, 0
2, 464214, Note_off_c, 3, 96, 0
2, 464256, Note_off_c, 3, 96, 0
2, 464298, Note_on_c, 3, 98, 99
2, 464298, Note_on_c, 3, 102, 99
2, 464299, Note_off_c, 3, 94, 0
2, 464384, Note_on_c, 3, 100, 82
2, 464384, Note_on_c, 3, 96, 127
2, 464385, Note_off_c, 3, 98, 0
2, 464385, Note_off_c, 3, 102, 0
2, 464469, Note_on_c, 3, 98, 79
2, 464470, Note_off_c, 3, 100, 0
2, 464512, Note_off_c, 3, 96, 0
2, 464549, Note_off_c, 3, 98, 0
2, 464640, Note_on_c, 3, 104, 75
2, 464725, Note_off_c, 3, 104, 0
2, 464768, Note_on_c, 3, 96, 127
2, 464832, Note_off_c, 3, 96, 0
2, 464832, Note_on_c, 3, 96, 127
2, 464896, Note_off_c, 3, 96, 0
2, 464896, Note_on_c, 3, 102, 78
2, 464981, Note_on_c, 3, 96, 66
2, 464982, Note_off_c, 3, 102, 0
2, 465024, Note_on_c, 3, 96, 127
2, 465066, Note_on_c, 3, 92, 99
2, 465066, Note_on_c, 3, 102, 99
2, 465067, Note_off_c, 3, 96, 0
2, 465152, Note_off_c, 3, 96, 0
2, 465152, Note_on_c, 3, 90, 85
2, 465152, Note_on_c, 3, 96, 85
2, 465152, Note_on_c, 3, 93, 127
2, 465153, Note_off_c, 3, 92, 0
2, 465153, Note_off_c, 3, 102, 0
2, 465216, Note_off_c, 3, 93, 0
2, 465216, Note_on_c, 3, 93, 127
2, 465237, Note_on_c, 3, 92, 73
2, 465238, Note_off_c, 3, 90, 0
2, 465238, Note_off_c, 3, 96, 0
2, 465280, Note_off_c, 3, 93, 0
2, 465322, Note_on_c, 3, 90, 69
2, 465323, Note_off_c, 3, 92, 0
2, 465403, Note_off_c, 3, 90, 0
2, 465408, Note_on_c, 3, 93, 127
2, 465536, Note_off_c, 3, 93, 0
2, 465578, Note_on_c, 3, 102, 70
2, 465664, Note_on_c, 3, 96, 52
2, 465664, Note_on_c, 3, 93, 127
2, 465665, Note_off_c, 3, 102, 0
2, 465728, Note_off_c, 3, 93, 0
2, 465728, Note_on_c, 3, 93, 127
2, 465749, Note_on_c, 3, 93, 94
2, 465749, Note_on_c, 3, 102, 94
2, 465750, Note_off_c, 3, 96, 0
2, 465792, Note_off_c, 3, 93, 0
2, 465834, Note_on_c, 3, 92, 82
2, 465834, Note_on_c, 3, 96, 82
2, 465835, Note_off_c, 3, 93, 0
2, 465835, Note_off_c, 3, 102, 0
2, 465920, Note_on_c, 3, 88, 74
2, 465920, Note_on_c, 3, 93, 74
2, 465921, Note_off_c, 3, 92, 0
2, 465921, Note_off_c, 3, 96, 0
2, 466005, Note_on_c, 3, 92, 85
2, 466005, Note_on_c, 3, 100, 85
2, 466006, Note_off_c, 3, 88, 0
2, 466006, Note_off_c, 3, 93, 0
2, 466090, Note_on_c, 3, 88, 77
2, 466090, Note_on_c, 3, 96, 77
2, 466091, Note_off_c, 3, 92, 0
2, 466091, Note_off_c, 3, 100, 0
2, 466176, Note_on_c, 3, 93, 84
2, 466176, Note_on_c, 3, 100, 84
2, 466176, Note_on_c, 3, 93, 127
2, 466177, Note_off_c, 3, 88, 0
2, 466177, Note_off_c, 3, 96, 0
2, 466240, Note_off_c, 3, 93, 0
2, 466240, Note_on_c, 3, 93, 127
2, 466261, Note_on_c, 3, 86, 76
2, 466261, Note_on_c, 3, 96, 76
2, 466262, Note_off_c, 3, 93, 0
2, 466262, Note_off_c, 3, 100, 0
2, 466304, Note_off_c, 3, 93, 0
2, 466304, Note_on_c, 3, 93, 127
2, 466346, Note_on_c, 3, 90, 61
2, 466347, Note_off_c, 3, 86, 0
2, 466347, Note_off_c, 3, 96, 0
2, 466368, Note_off_c, 3, 93, 0
2, 466432, Note_on_c, 3, 92, 87
2, 466432, Note_on_c, 3, 93, 127
2, 466433, Note_off_c, 3, 90, 0
2, 466496, Note_off_c, 3, 93, 0
2, 466496, Note_on_c, 3, 93, 127
2, 466512, Note_off_c, 3, 92, 0
2, 466560, Note_off_c, 3, 93, 0
2, 466560, Note_on_c, 3, 93, 127
2, 466624, Note_off_c, 3, 93, 0
2, 466773, Note_on_c, 3, 85, 73
2, 466816, Note_on_c, 3, 93, 127
2, 466858, Note_on_c, 3, 90, 81
2, 466859, Note_off_c, 3, 85, 0
2, 466944, Note_off_c, 3, 93, 0
2, 466944, Note_on_c, 3, 98, 102
2, 466944, Note_on_c, 3, 93, 127
2, 466945, Note_off_c, 3, 90, 0
2, 467029, Note_on_c, 3, 85, 100
2, 467029, Note_on_c, 3, 96, 100
2, 467030, Note_off_c, 3, 98, 0
2, 467072, Note_off_c, 3, 93, 0
2, 467114, Note_on_c, 3, 90, 79
2, 467114, Note_on_c, 3, 93, 79
2, 467115, Note_off_c, 3, 85, 0
2, 467115, Note_off_c, 3, 96, 0
2, 467136, Note_on_c, 3, 93, 127
2, 467200, Note_off_c, 3, 90, 0
2, 467200, Note_off_c, 3, 93, 0
2, 467200, Note_on_c, 3, 90, 90
2, 467200, Note_on_c, 3, 98, 90
2, 467200, Note_on_c, 3, 93, 127
2, 467201, Note_off_c, 3, 93, 0
2, 467285, Note_on_c, 3, 82, 82
2, 467285, Note_on_c, 3, 96, 82
2, 467286, Note_off_c, 3, 90, 0
2, 467286, Note_off_c, 3, 98, 0
2, 467328, Note_off_c, 3, 93, 0
2, 467370, Note_on_c, 3, 90, 74
2, 467370, Note_on_c, 3, 93, 74
2, 467371, Note_off_c, 3, 82, 0
2, 467371, Note_off_c, 3, 96, 0
2, 467392, Note_on_c, 3, 93, 127
2, 467456, Note_off_c, 3, 90, 0
2, 467456, Note_off_c, 3, 93, 0
2, 467456, Note_on_c, 3, 90, 90
2, 467456, Note_on_c, 3, 96, 90
2, 467456, Note_on_c, 3, 93, 127
2, 467457, Note_off_c, 3, 93, 0
2, 467520, Note_off_c, 3, 93, 0
2, 467520, Note_on_c, 3, 93, 127
2, 467541, Note_on_c, 3, 82, 63
2, 467542, Note_off_c, 3, 90, 0
2, 467542, Note_off_c, 3, 96, 0
2, 467584, Note_off_c, 3, 93, 0
2, 467626, Note_on_c, 3, 84, 95
2, 467626, Note_on_c, 3, 90, 95
2, 467627, Note_off_c, 3, 82, 0
2, 467712, Note_off_c, 3, 90, 0
2, 467712, Note_on_c, 3, 90, 121
2, 467712, Note_on_c, 3, 100, 121
2, 467712, Note_on_c, 3, 93, 127
2, 467713, Note_off_c, 3, 84, 0
2, 467776, Note_off_c, 3, 93, 0
2, 467776, Note_on_c, 3, 93, 127
2, 467797, Note_on_c, 3, 84, 68
2, 467798, Note_off_c, 3, 90, 0
2, 467798, Note_off_c, 3, 100, 0
2, 467836, Note_off_c, 3, 84, 0
2, 467840, Note_off_c, 3, 93, 0
2, 467882, Note_on_c, 3, 93, 99
2, 467968, Note_on_c, 3, 102, 125
2, 467968, Note_on_c, 3, 93, 127
2, 467969, Note_off_c, 3, 93, 0
2, 468089, Note_off_c, 3, 102, 0
2, 468096, Note_off_c, 3, 93, 0
2, 468097, End_track
3, 0, Start_track
3, 0, Program_c, 4, 68
3, 0, Control_c, 4, 121, 0
3, 0, Control_c, 4, 64, 0
3, 0, Control_c, 4, 91, 55
3, 0, Control_c, 4, 10, 54
3, 0, Control_c, 4, 7, 84
3, 0, Control_c, 4, 121, 0
3, 0, Control_c, 4, 64, 0
3, 0, Control_c, 4, 91, 55
3, 0, Control_c, 4, 10, 54
3, 0, Control_c, 4, 7, 84
3, 0, Control_c, 4, 121, 0
3, 0, Control_c, 4, 64, 0
3, 0, Control_c, 4, 91, 55
3, 0, Control_c, 4, 10, 54
3, 0, Control_c, 4, 7, 84
3, 0, Title_t, "Oboe"
3, 576, Note_on_c, 4, 65, 64
3, 640, Note_on_c, 4, 68, 65
3, 641, Note_off_c, 4, 65, 0
3, 832, Note_on_c, 4, 70, 74
3, 835, Note_off_c, 4, 68, 0
3, 896, Note_on_c, 4, 80, 92
3, 897, Note_off_c, 4, 70, 0
3, 1109, Note_on_c, 4, 72, 59
3, 1113, Note_off_c, 4, 80, 0
3, 1453, Note_off_c, 4, 72, 0
3, 1472, Note_on_c, 4, 80, 79
3, 1600, Note_on_c, 4, 82, 85
3, 1602, Note_off_c, 4, 80, 0
3, 1664, Note_on_c, 4, 78, 68
3, 1665, Note_off_c, 4, 82, 0
3, 1856, Note_on_c, 4, 76, 61
3, 1859, Note_off_c, 4, 78, 0
3, 1984, Note_on_c, 4, 75, 68
3, 1986, Note_off_c, 4, 76, 0
3, 2112, Note_on_c, 4, 73, 64
3, 2114, Note_off_c, 4, 75, 0
3, 2240, Note_on_c, 4, 72, 60
3, 2242, Note_off_c, 4, 73, 0
3, 2368, Note_on_c, 4, 70, 58
3, 2370, Note_off_c, 4, 72, 0
3, 2550, Note_off_c, 4, 70, 0
3, 2560, Note_on_c, 4, 70, 56
3, 2624, Note_on_c, 4, 72, 63
3, 2625, Note_off_c, 4, 70, 0
3, 2752, Note_on_c, 4, 73, 69
3, 2754, Note_off_c, 4, 72, 0
3, 2816, Note_on_c, 4, 82, 86
3, 2817, Note_off_c, 4, 73, 0
3, 3008, Note_on_c, 4, 84, 76
3, 3011, Note_off_c, 4, 82, 0
3, 3413, Note_on_c, 4, 86, 79
3, 3421, Note_off_c, 4, 84, 0
3, 3498, Note_on_c, 4, 82, 57
3, 3499, Note_off_c, 4, 86, 0
3, 3669, Note_on_c, 4, 80, 51
3, 3672, Note_off_c, 4, 82, 0
3, 3904, Note_on_c, 4, 78, 68
3, 3908, Note_off_c, 4, 80, 0
3, 4086, Note_off_c, 4, 78, 0
3, 4096, Note_on_c, 4, 77, 68
3, 4160, Note_on_c, 4, 75, 62
3, 4161, Note_off_c, 4, 77, 0
3, 4288, Note_on_c, 4, 73, 67
3, 4290, Note_off_c, 4, 75, 0
3, 4352, Note_on_c, 4, 72, 63
3, 4353, Note_off_c, 4, 73, 0
3, 4480, Note_on_c, 4, 70, 67
3, 4482, Note_off_c, 4, 72, 0
3, 4544, Note_on_c, 4, 68, 61
3, 4545, Note_off_c, 4, 70, 0
3, 4693, Note_on_c, 4, 66, 64
3, 4695, Note_off_c, 4, 68, 0
3, 5098, Note_off_c, 4, 66, 0
3, 5120, Note_on_c, 4, 61, 53
3, 5184, Note_on_c, 4, 62, 70
3, 5185, Note_off_c, 4, 61, 0
3, 5312, Note_on_c, 4, 64, 83
3, 5314, Note_off_c, 4, 62, 0
3, 5376, Note_on_c, 4, 72, 101
3, 5377, Note_off_c, 4, 64, 0
3, 5632, Note_on_c, 4, 70, 97
3, 5637, Note_off_c, 4, 72, 0
3, 5875, Note_off_c, 4, 70, 0
3, 5888, Note_on_c, 4, 65, 78
3, 5952, Note_on_c, 4, 66, 79
3, 5953, Note_off_c, 4, 65, 0
3, 6080, Note_on_c, 4, 68, 90
3, 6082, Note_off_c, 4, 66, 0
3, 6144, Note_on_c, 4, 76, 108
3, 6145, Note_off_c, 4, 68, 0
3, 6400, Note_on_c, 4, 74, 79
3, 6405, Note_off_c, 4, 76, 0
3, 6582, Note_off_c, 4, 74, 0
3, 6592, Note_on_c, 4, 69, 76
3, 6656, Note_on_c, 4, 70, 85
3, 6657, Note_off_c, 4, 69, 0
3, 6848, Note_on_c, 4, 72, 80
3, 6851, Note_off_c, 4, 70, 0
3, 6912, Note_on_c, 4, 80, 89
3, 6913, Note_off_c, 4, 72, 0
3, 7104, Note_on_c, 4, 78, 63
3, 7107, Note_off_c, 4, 80, 0
3, 7326, Note_off_c, 4, 78, 0
3, 7338, Note_on_c, 4, 71, 42
3, 7509, Note_off_c, 4, 71, 0
3, 8896, Note_on_c, 4, 84, 56
3, 8960, Note_on_c, 4, 85, 60
3, 8961, Note_off_c, 4, 84, 0
3, 9024, Note_on_c, 4, 82, 58
3, 9025, Note_off_c, 4, 85, 0
3, 9088, Note_on_c, 4, 80, 51
3, 9089, Note_off_c, 4, 82, 0
3, 9216, Note_on_c, 4, 82, 62
3, 9218, Note_off_c, 4, 80, 0
3, 9280, Note_on_c, 4, 79, 67
3, 9281, Note_off_c, 4, 82, 0
3, 9408, Note_on_c, 4, 77, 56
3, 9410, Note_off_c, 4, 79, 0
3, 9590, Note_off_c, 4, 77, 0
3, 9600, Note_on_c, 4, 75, 57
3, 9642, Note_off_c, 4, 75, 0
3, 9642, Note_on_c, 4, 77, 62
3, 9728, Note_on_c, 4, 73, 56
3, 9729, Note_off_c, 4, 77, 0
3, 9920, Note_on_c, 4, 71, 62
3, 9923, Note_off_c, 4, 73, 0
3, 10020, Note_off_c, 4, 71, 0
3, 10026, Note_on_c, 4, 70, 60
3, 10069, Note_off_c, 4, 70, 0
3, 10069, Note_on_c, 4, 71, 61
3, 10154, Note_on_c, 4, 70, 56
3, 10155, Note_off_c, 4, 71, 0
3, 10197, Note_off_c, 4, 70, 0
3, 10197, Note_on_c, 4, 71, 66
3, 10282, Note_on_c, 4, 68, 53
3, 10283, Note_off_c, 4, 71, 0
3, 10325, Note_off_c, 4, 68, 0
3, 10325, Note_on_c, 4, 65, 55
3, 10410, Note_on_c, 4, 66, 70
3, 10411, Note_off_c, 4, 65, 0
3, 10453, Note_off_c, 4, 66, 0
3, 10453, Note_on_c, 4, 68, 64
3, 10538, Note_on_c, 4, 66, 59
3, 10539, Note_off_c, 4, 68, 0
3, 10581, Note_off_c, 4, 66, 0
3, 10581, Note_on_c, 4, 68, 69
3, 10666, Note_on_c, 4, 73, 77
3, 10667, Note_off_c, 4, 68, 0
3, 10709, Note_off_c, 4, 73, 0
3, 10709, Note_on_c, 4, 71, 65
3, 10830, Note_off_c, 4, 71, 0
3, 10837, Note_on_c, 4, 61, 51
3, 10922, Note_on_c, 4, 63, 53
3, 10923, Note_off_c, 4, 61, 0
3, 11008, Note_on_c, 4, 64, 76
3, 11009, Note_off_c, 4, 63, 0
3, 11093, Note_on_c, 4, 65, 80
3, 11094, Note_off_c, 4, 64, 0
3, 11178, Note_on_c, 4, 66, 74
3, 11179, Note_off_c, 4, 65, 0
3, 11264, Note_on_c, 4, 81, 96
3, 11265, Note_off_c, 4, 66, 0
3, 11434, Note_on_c, 4, 77, 66
3, 11437, Note_off_c, 4, 81, 0
3, 11758, Note_off_c, 4, 77, 0
3, 11776, Note_on_c, 4, 67, 52
3, 11861, Note_on_c, 4, 68, 54
3, 11862, Note_off_c, 4, 67, 0
3, 11946, Note_on_c, 4, 80, 90
3, 11947, Note_off_c, 4, 68, 0
3, 12032, Note_on_c, 4, 83, 102
3, 12033, Note_off_c, 4, 80, 0
3, 12224, Note_on_c, 4, 79, 65
3, 12227, Note_off_c, 4, 83, 0
3, 12588, Note_off_c, 4, 79, 0
3, 12608, Note_on_c, 4, 72, 58
3, 12672, Note_on_c, 4, 73, 65
3, 12673, Note_off_c, 4, 72, 0
3, 12864, Note_on_c, 4, 76, 69
3, 12867, Note_off_c, 4, 73, 0
3, 12928, Note_on_c, 4, 85, 79
3, 12929, Note_off_c, 4, 76, 0
3, 13120, Note_on_c, 4, 86, 62
3, 13123, Note_off_c, 4, 85, 0
3, 13302, Note_off_c, 4, 86, 0
3, 13696, Note_on_c, 4, 85, 51
3, 13738, Note_off_c, 4, 85, 0
3, 13738, Note_on_c, 4, 83, 57
3, 13781, Note_off_c, 4, 83, 0
3, 13781, Note_on_c, 4, 81, 55
3, 13852, Note_off_c, 4, 81, 0
3, 13856, Note_on_c, 4, 81, 59
3, 13888, Note_off_c, 4, 81, 0
3, 13888, Note_on_c, 4, 79, 54
3, 13948, Note_off_c, 4, 79, 0
3, 13952, Note_on_c, 4, 77, 60
3, 13984, Note_off_c, 4, 77, 0
3, 13984, Note_on_c, 4, 75, 56
3, 14016, Note_off_c, 4, 75, 0
3, 14016, Note_on_c, 4, 73, 53
3, 14112, Note_on_c, 4, 72, 50
3, 14113, Note_off_c, 4, 73, 0
3, 14144, Note_off_c, 4, 72, 0
3, 14144, Note_on_c, 4, 70, 57
3, 14208, Note_on_c, 4, 73, 65
3, 14209, Note_off_c, 4, 70, 0
3, 14329, Note_off_c, 4, 73, 0
3, 14336, Note_on_c, 4, 71, 57
3, 14400, Note_on_c, 4, 70, 60
3, 14401, Note_off_c, 4, 71, 0
3, 14464, Note_on_c, 4, 69, 59
3, 14465, Note_off_c, 4, 70, 0
3, 14528, Note_on_c, 4, 68, 66
3, 14529, Note_off_c, 4, 69, 0
3, 14592, Note_on_c, 4, 67, 75
3, 14593, Note_off_c, 4, 68, 0
3, 14656, Note_on_c, 4, 66, 76
3, 14657, Note_off_c, 4, 67, 0
3, 14784, Note_on_c, 4, 69, 90
3, 14786, Note_off_c, 4, 66, 0
3, 14905, Note_off_c, 4, 69, 0
3, 14912, Note_on_c, 4, 60, 64
3, 15040, Note_on_c, 4, 61, 71
3, 15042, Note_off_c, 4, 60, 0
3, 15104, Note_on_c, 4, 63, 85
3, 15105, Note_off_c, 4, 61, 0
3, 15189, Note_on_c, 4, 64, 91
3, 15190, Note_off_c, 4, 63, 0
3, 15274, Note_on_c, 4, 67, 90
3, 15275, Note_off_c, 4, 64, 0
3, 15360, Note_on_c, 4, 75, 108
3, 15361, Note_off_c, 4, 67, 0
3, 15616, Note_on_c, 4, 71, 77
3, 15621, Note_off_c, 4, 75, 0
3, 15808, Note_on_c, 4, 69, 74
3, 15811, Note_off_c, 4, 71, 0
3, 15957, Note_on_c, 4, 70, 92
3, 15959, Note_off_c, 4, 69, 0
3, 16042, Note_on_c, 4, 80, 112
3, 16043, Note_off_c, 4, 70, 0
3, 16213, Note_on_c, 4, 71, 68
3, 16216, Note_off_c, 4, 80, 0
3, 16375, Note_off_c, 4, 71, 0
3, 16384, Note_on_c, 4, 75, 94
3, 16469, Note_on_c, 4, 76, 94
3, 16470, Note_off_c, 4, 75, 0
3, 16554, Note_on_c, 4, 86, 101
3, 16555, Note_off_c, 4, 76, 0
3, 16725, Note_on_c, 4, 84, 91
3, 16728, Note_off_c, 4, 86, 0
3, 16948, Note_off_c, 4, 84, 0
3, 17216, Note_on_c, 4, 69, 76
3, 17280, Note_on_c, 4, 75, 85
3, 17281, Note_off_c, 4, 69, 0
3, 17472, Note_on_c, 4, 86, 108
3, 17475, Note_off_c, 4, 75, 0
3, 17536, Note_on_c, 4, 82, 97
3, 17537, Note_off_c, 4, 86, 0
3, 17657, Note_off_c, 4, 82, 0
3, 17664, Note_on_c, 4, 63, 60
3, 17749, Note_on_c, 4, 71, 69
3, 17750, Note_off_c, 4, 63, 0
3, 17834, Note_on_c, 4, 81, 110
3, 17835, Note_off_c, 4, 71, 0
3, 17920, Note_on_c, 4, 77, 101
3, 17921, Note_off_c, 4, 81, 0
3, 18041, Note_off_c, 4, 77, 0
3, 18048, Note_on_c, 4, 67, 63
3, 18112, Note_on_c, 4, 70, 68
3, 18113, Note_off_c, 4, 67, 0
3, 18240, Note_on_c, 4, 77, 102
3, 18242, Note_off_c, 4, 70, 0
3, 18304, Note_on_c, 4, 74, 94
3, 18305, Note_off_c, 4, 77, 0
3, 18425, Note_off_c, 4, 74, 0
3, 18432, Note_on_c, 4, 65, 65
3, 18517, Note_on_c, 4, 68, 68
3, 18518, Note_off_c, 4, 65, 0
3, 18602, Note_on_c, 4, 71, 93
3, 18603, Note_off_c, 4, 68, 0
3, 18688, Note_on_c, 4, 80, 116
3, 18689, Note_off_c, 4, 71, 0
3, 18773, Note_on_c, 4, 79, 84
3, 18774, Note_off_c, 4, 80, 0
3, 19029, Note_on_c, 4, 75, 72
3, 19034, Note_off_c, 4, 79, 0
3, 19738, Note_off_c, 4, 75, 0
3, 19776, Note_on_c, 4, 66, 64
3, 19840, Note_on_c, 4, 68, 65
3, 19841, Note_off_c, 4, 66, 0
3, 20032, Note_on_c, 4, 69, 84
3, 20035, Note_off_c, 4, 68, 0
3, 20096, Note_on_c, 4, 81, 105
3, 20097, Note_off_c, 4, 69, 0
3, 20309, Note_on_c, 4, 76, 71
3, 20313, Note_off_c, 4, 81, 0
3, 20532, Note_off_c, 4, 76, 0
3, 20544, Note_on_c, 4, 81, 94
3, 20672, Note_on_c, 4, 83, 100
3, 20674, Note_off_c, 4, 81, 0
3, 20736, Note_on_c, 4, 79, 76
3, 20737, Note_off_c, 4, 83, 0
3, 20928, Note_on_c, 4, 77, 68
3, 20931, Note_off_c, 4, 79, 0
3, 21056, Note_on_c, 4, 76, 85
3, 21058, Note_off_c, 4, 77, 0
3, 21184, Note_on_c, 4, 73, 82
3, 21186, Note_off_c, 4, 76, 0
3, 21312, Note_on_c, 4, 72, 80
3, 21314, Note_off_c, 4, 73, 0
3, 21440, Note_on_c, 4, 70, 75
3, 21442, Note_off_c, 4, 72, 0
3, 21568, Note_on_c, 4, 69, 81
3, 21570, Note_off_c, 4, 70, 0
3, 21696, Note_on_c, 4, 70, 87
3, 21698, Note_off_c, 4, 69, 0
3, 21824, Note_on_c, 4, 72, 90
3, 21826, Note_off_c, 4, 70, 0
3, 21952, Note_on_c, 4, 70, 85
3, 21954, Note_off_c, 4, 72, 0
3, 22080, Note_on_c, 4, 72, 84
3, 22082, Note_off_c, 4, 70, 0
3, 22208, Note_on_c, 4, 73, 87
3, 22210, Note_off_c, 4, 72, 0
3, 22272, Note_on_c, 4, 82, 101
3, 22273, Note_off_c, 4, 73, 0
3, 22464, Note_on_c, 4, 84, 111
3, 22467, Note_off_c, 4, 82, 0
3, 22848, Note_off_c, 4, 84, 0
3, 22869, Note_on_c, 4, 86, 90
3, 22954, Note_on_c, 4, 82, 79
3, 22955, Note_off_c, 4, 86, 0
3, 23125, Note_on_c, 4, 80, 81
3, 23128, Note_off_c, 4, 82, 0
3, 23360, Note_on_c, 4, 79, 77
3, 23364, Note_off_c, 4, 80, 0
3, 23552, Note_on_c, 4, 77, 79
3, 23555, Note_off_c, 4, 79, 0
3, 23616, Note_on_c, 4, 76, 74
3, 23617, Note_off_c, 4, 77, 0
3, 23744, Note_on_c, 4, 74, 76
3, 23746, Note_off_c, 4, 76, 0
3, 23808, Note_on_c, 4, 73, 71
3, 23809, Note_off_c, 4, 74, 0
3, 23936, Note_on_c, 4, 71, 78
3, 23938, Note_off_c, 4, 73, 0
3, 24000, Note_on_c, 4, 69, 71
3, 24001, Note_off_c, 4, 71, 0
3, 24141, Note_off_c, 4, 69, 0
3, 25216, Note_on_c, 4, 64, 65
3, 25280, Note_on_c, 4, 66, 69
3, 25281, Note_off_c, 4, 64, 0
3, 25408, Note_on_c, 4, 67, 75
3, 25410, Note_off_c, 4, 66, 0
3, 25472, Note_on_c, 4, 70, 83
3, 25473, Note_off_c, 4, 67, 0
3, 25685, Note_on_c, 4, 77, 84
3, 25689, Note_off_c, 4, 70, 0
3, 25908, Note_off_c, 4, 77, 0
3, 25920, Note_on_c, 4, 69, 57
3, 25984, Note_on_c, 4, 70, 57
3, 25985, Note_off_c, 4, 69, 0
3, 26112, Note_on_c, 4, 72, 77
3, 26114, Note_off_c, 4, 70, 0
3, 26176, Note_on_c, 4, 80, 95
3, 26177, Note_off_c, 4, 72, 0
3, 26368, Note_on_c, 4, 78, 73
3, 26371, Note_off_c, 4, 80, 0
3, 26550, Note_off_c, 4, 78, 0
3, 26560, Note_on_c, 4, 71, 62
3, 26624, Note_on_c, 4, 73, 67
3, 26625, Note_off_c, 4, 71, 0
3, 26806, Note_off_c, 4, 73, 0
3, 28032, Note_on_c, 4, 84, 56
3, 28096, Note_on_c, 4, 85, 58
3, 28097, Note_off_c, 4, 84, 0
3, 28160, Note_on_c, 4, 82, 66
3, 28161, Note_off_c, 4, 85, 0
3, 28224, Note_on_c, 4, 80, 64
3, 28225, Note_off_c, 4, 82, 0
3, 28352, Note_on_c, 4, 82, 79
3, 28354, Note_off_c, 4, 80, 0
3, 28416, Note_on_c, 4, 78, 72
3, 28417, Note_off_c, 4, 82, 0
3, 28544, Note_on_c, 4, 77, 68
3, 28546, Note_off_c, 4, 78, 0
3, 28726, Note_off_c, 4, 77, 0
3, 28736, Note_on_c, 4, 75, 68
3, 28768, Note_off_c, 4, 75, 0
3, 28768, Note_on_c, 4, 77, 76
3, 28864, Note_on_c, 4, 73, 65
3, 28865, Note_off_c, 4, 77, 0
3, 29056, Note_on_c, 4, 71, 69
3, 29059, Note_off_c, 4, 73, 0
3, 29258, Note_off_c, 4, 71, 0
3, 29269, Note_on_c, 4, 61, 54
3, 29354, Note_on_c, 4, 63, 76
3, 29355, Note_off_c, 4, 61, 0
3, 29440, Note_on_c, 4, 64, 80
3, 29441, Note_off_c, 4, 63, 0
3, 29525, Note_on_c, 4, 65, 81
3, 29526, Note_off_c, 4, 64, 0
3, 29610, Note_on_c, 4, 66, 84
3, 29611, Note_off_c, 4, 65, 0
3, 29696, Note_on_c, 4, 81, 106
3, 29697, Note_off_c, 4, 66, 0
3, 29866, Note_on_c, 4, 77, 75
3, 29869, Note_off_c, 4, 81, 0
3, 30190, Note_off_c, 4, 77, 0
3, 30208, Note_on_c, 4, 67, 57
3, 30293, Note_on_c, 4, 68, 76
3, 30294, Note_off_c, 4, 67, 0
3, 30378, Note_on_c, 4, 80, 99
3, 30379, Note_off_c, 4, 68, 0
3, 30464, Note_on_c, 4, 83, 90
3, 30465, Note_off_c, 4, 80, 0
3, 30656, Note_on_c, 4, 79, 79
3, 30659, Note_off_c, 4, 83, 0
3, 30899, Note_off_c, 4, 79, 0
3, 30912, Note_on_c, 4, 72, 56
3, 30976, Note_on_c, 4, 73, 71
3, 30977, Note_off_c, 4, 72, 0
3, 31104, Note_on_c, 4, 76, 75
3, 31106, Note_off_c, 4, 73, 0
3, 31168, Note_on_c, 4, 85, 90
3, 31169, Note_off_c, 4, 76, 0
3, 31296, Note_on_c, 4, 87, 81
3, 31298, Note_off_c, 4, 85, 0
3, 31478, Note_off_c, 4, 87, 0
3, 33024, Note_on_c, 4, 61, 81
3, 33088, Note_on_c, 4, 63, 85
3, 33089, Note_off_c, 4, 61, 0
3, 33216, Note_on_c, 4, 64, 87
3, 33218, Note_off_c, 4, 63, 0
3, 33280, Note_on_c, 4, 79, 114
3, 33281, Note_off_c, 4, 64, 0
3, 33472, Note_on_c, 4, 69, 69
3, 33475, Note_off_c, 4, 79, 0
3, 33654, Note_off_c, 4, 69, 0
3, 33664, Note_on_c, 4, 64, 74
3, 33792, Note_on_c, 4, 67, 77
3, 33794, Note_off_c, 4, 64, 0
3, 33877, Note_on_c, 4, 70, 93
3, 33878, Note_off_c, 4, 67, 0
3, 33962, Note_on_c, 4, 81, 117
3, 33963, Note_off_c, 4, 70, 0
3, 34133, Note_on_c, 4, 83, 88
3, 34136, Note_off_c, 4, 81, 0
3, 34477, Note_off_c, 4, 83, 0
3, 34560, Note_on_c, 4, 78, 71
3, 34645, Note_on_c, 4, 74, 64
3, 34646, Note_off_c, 4, 78, 0
3, 34730, Note_on_c, 4, 70, 72
3, 34731, Note_off_c, 4, 74, 0
3, 34901, Note_on_c, 4, 69, 66
3, 34904, Note_off_c, 4, 70, 0
3, 35063, Note_off_c, 4, 69, 0
3, 35072, Note_on_c, 4, 60, 64
3, 35136, Note_on_c, 4, 80, 84
3, 35137, Note_off_c, 4, 60, 0
3, 35264, Note_on_c, 4, 75, 78
3, 35266, Note_off_c, 4, 80, 0
3, 35328, Note_on_c, 4, 73, 78
3, 35329, Note_off_c, 4, 75, 0
3, 35456, Note_on_c, 4, 72, 82
3, 35458, Note_off_c, 4, 73, 0
3, 35516, Note_off_c, 4, 72, 0
3, 35520, Note_on_c, 4, 61, 64
3, 35584, Note_on_c, 4, 81, 78
3, 35585, Note_off_c, 4, 61, 0
3, 35712, Note_on_c, 4, 80, 86
3, 35714, Note_off_c, 4, 81, 0
3, 35776, Note_on_c, 4, 79, 81
3, 35777, Note_off_c, 4, 80, 0
3, 35882, Note_on_c, 4, 78, 80
3, 35884, Note_off_c, 4, 79, 0
3, 35968, Note_on_c, 4, 88, 100
3, 35969, Note_off_c, 4, 78, 0
3, 36032, Note_on_c, 4, 84, 76
3, 36033, Note_off_c, 4, 88, 0
3, 36132, Note_off_c, 4, 84, 0
3, 44992, Note_on_c, 4, 76, 54
3, 45312, Note_on_c, 4, 78, 54
3, 45318, Note_off_c, 4, 76, 0
3, 45798, Note_off_c, 4, 78, 0
3, 45824, Note_on_c, 4, 78, 57
3, 45952, Note_on_c, 4, 79, 56
3, 45954, Note_off_c, 4, 78, 0
3, 46316, Note_off_c, 4, 79, 0
3, 46336, Note_on_c, 4, 69, 47
3, 46400, Note_on_c, 4, 78, 51
3, 46401, Note_off_c, 4, 69, 0
3, 46592, Note_on_c, 4, 79, 64
3, 46595, Note_off_c, 4, 78, 0
3, 46713, Note_off_c, 4, 79, 0
3, 46720, Note_on_c, 4, 69, 47
3, 46784, Note_on_c, 4, 78, 56
3, 46785, Note_off_c, 4, 69, 0
3, 46912, Note_on_c, 4, 79, 70
3, 46914, Note_off_c, 4, 78, 0
3, 46972, Note_off_c, 4, 79, 0
3, 46976, Note_on_c, 4, 69, 44
3, 47040, Note_on_c, 4, 78, 50
3, 47041, Note_off_c, 4, 69, 0
3, 47168, Note_on_c, 4, 79, 64
3, 47170, Note_off_c, 4, 78, 0
3, 47228, Note_off_c, 4, 79, 0
3, 47232, Note_on_c, 4, 69, 51
3, 47296, Note_on_c, 4, 83, 60
3, 47297, Note_off_c, 4, 69, 0
3, 47488, Note_on_c, 4, 70, 48
3, 47491, Note_off_c, 4, 83, 0
3, 47680, Note_on_c, 4, 81, 61
3, 47683, Note_off_c, 4, 70, 0
3, 47862, Note_off_c, 4, 81, 0
3, 47872, Note_on_c, 4, 72, 49
3, 47936, Note_on_c, 4, 81, 60
3, 47937, Note_off_c, 4, 72, 0
3, 48064, Note_on_c, 4, 82, 62
3, 48066, Note_off_c, 4, 81, 0
3, 48124, Note_off_c, 4, 82, 0
3, 48128, Note_on_c, 4, 73, 44
3, 48192, Note_on_c, 4, 81, 56
3, 48193, Note_off_c, 4, 73, 0
3, 48320, Note_on_c, 4, 82, 70
3, 48322, Note_off_c, 4, 81, 0
3, 48380, Note_off_c, 4, 82, 0
3, 48384, Note_on_c, 4, 73, 52
3, 48448, Note_on_c, 4, 86, 63
3, 48449, Note_off_c, 4, 73, 0
3, 48569, Note_off_c, 4, 86, 0
3, 48576, Note_on_c, 4, 66, 47
3, 48640, Note_on_c, 4, 84, 60
3, 48641, Note_off_c, 4, 66, 0
3, 48883, Note_off_c, 4, 84, 0
3, 48960, Note_on_c, 4, 73, 52
3, 49024, Note_on_c, 4, 84, 64
3, 49025, Note_off_c, 4, 73, 0
3, 49088, Note_on_c, 4, 87, 71
3, 49089, Note_off_c, 4, 84, 0
3, 49152, Note_on_c, 4, 85, 68
3, 49153, Note_off_c, 4, 87, 0
3, 49280, Note_on_c, 4, 84, 58
3, 49282, Note_off_c, 4, 85, 0
3, 49401, Note_off_c, 4, 84, 0
3, 51626, Note_on_c, 4, 69, 77
3, 51669, Note_off_c, 4, 69, 0
3, 51669, Note_on_c, 4, 70, 87
3, 51712, Note_off_c, 4, 70, 0
3, 51712, Note_on_c, 4, 72, 89
3, 51754, Note_off_c, 4, 72, 0
3, 51754, Note_on_c, 4, 73, 89
3, 51797, Note_off_c, 4, 73, 0
3, 51797, Note_on_c, 4, 75, 88
3, 51882, Note_on_c, 4, 77, 94
3, 51883, Note_off_c, 4, 75, 0
3, 51968, Note_on_c, 4, 80, 90
3, 51969, Note_off_c, 4, 77, 0
3, 52028, Note_off_c, 4, 80, 0
3, 52160, Note_on_c, 4, 81, 79
3, 52288, Note_off_c, 4, 81, 0
3, 52288, Note_on_c, 4, 63, 60
3, 52416, Note_off_c, 4, 63, 0
3, 52416, Note_on_c, 4, 87, 100
3, 52480, Note_off_c, 4, 87, 0
3, 53077, Note_on_c, 4, 62, 82
3, 53248, Note_off_c, 4, 62, 0
3, 53248, Note_on_c, 4, 82, 119
3, 53333, Note_off_c, 4, 82, 0
3, 53504, Note_on_c, 4, 84, 86
3, 53589, Note_off_c, 4, 84, 0
3, 53674, Note_on_c, 4, 85, 80
3, 53760, Note_off_c, 4, 85, 0
3, 55936, Note_on_c, 4, 75, 89
3, 56320, Note_off_c, 4, 75, 0
3, 56832, Note_on_c, 4, 75, 88
3, 57344, Note_off_c, 4, 75, 0
3, 57664, Note_on_c, 4, 75, 89
3, 57856, Note_off_c, 4, 75, 0
3, 57856, Note_on_c, 4, 76, 100
3, 57984, Note_on_c, 4, 73, 93
3, 57986, Note_off_c, 4, 76, 0
3, 58186, Note_off_c, 4, 73, 0
3, 58197, Note_on_c, 4, 72, 91
3, 58410, Note_on_c, 4, 70, 87
3, 58414, Note_off_c, 4, 72, 0
3, 58688, Note_on_c, 4, 69, 91
3, 58693, Note_off_c, 4, 70, 0
3, 58809, Note_off_c, 4, 69, 0
3, 58816, Note_on_c, 4, 75, 113
3, 59136, Note_off_c, 4, 75, 0
3, 59136, Note_on_c, 4, 75, 96
3, 59392, Note_off_c, 4, 75, 0
3, 59584, Note_on_c, 4, 75, 92
3, 59776, Note_on_c, 4, 79, 100
3, 59779, Note_off_c, 4, 75, 0
3, 59958, Note_off_c, 4, 79, 0
3, 59968, Note_on_c, 4, 73, 84
3, 60192, Note_on_c, 4, 72, 82
3, 60196, Note_off_c, 4, 73, 0
3, 60404, Note_off_c, 4, 72, 0
3, 60416, Note_on_c, 4, 70, 90
3, 60544, Note_on_c, 4, 69, 84
3, 60546, Note_off_c, 4, 70, 0
3, 60608, Note_on_c, 4, 70, 97
3, 60609, Note_off_c, 4, 69, 0
3, 60704, Note_on_c, 4, 72, 100
3, 60705, Note_off_c, 4, 70, 0
3, 60800, Note_on_c, 4, 73, 108
3, 60801, Note_off_c, 4, 72, 0
3, 60921, Note_off_c, 4, 73, 0
3, 60928, Note_on_c, 4, 75, 105
3, 60992, Note_on_c, 4, 73, 101
3, 60993, Note_off_c, 4, 75, 0
3, 61056, Note_on_c, 4, 75, 105
3, 61057, Note_off_c, 4, 73, 0
3, 61120, Note_on_c, 4, 73, 99
3, 61121, Note_off_c, 4, 75, 0
3, 61248, Note_on_c, 4, 75, 105
3, 61250, Note_off_c, 4, 73, 0
3, 61376, Note_on_c, 4, 77, 115
3, 61378, Note_off_c, 4, 75, 0
3, 61680, Note_off_c, 4, 77, 0
3, 61696, Note_on_c, 4, 78, 100
3, 61866, Note_on_c, 4, 80, 108
3, 61869, Note_off_c, 4, 78, 0
3, 62190, Note_off_c, 4, 80, 0
3, 62208, Note_on_c, 4, 82, 107
3, 62378, Note_on_c, 4, 80, 101
3, 62381, Note_off_c, 4, 82, 0
3, 62702, Note_off_c, 4, 80, 0
3, 62720, Note_on_c, 4, 84, 111
3, 62976, Note_on_c, 4, 85, 113
3, 62981, Note_off_c, 4, 84, 0
3, 63168, Note_on_c, 4, 82, 93
3, 63171, Note_off_c, 4, 85, 0
3, 63360, Note_on_c, 4, 80, 88
3, 63363, Note_off_c, 4, 82, 0
3, 63552, Note_on_c, 4, 78, 91
3, 63555, Note_off_c, 4, 80, 0
3, 63680, Note_on_c, 4, 77, 89
3, 63682, Note_off_c, 4, 78, 0
3, 63862, Note_off_c, 4, 77, 0
3, 63872, Note_on_c, 4, 75, 95
3, 64000, Note_on_c, 4, 73, 82
3, 64002, Note_off_c, 4, 75, 0
3, 64170, Note_on_c, 4, 71, 93
3, 64173, Note_off_c, 4, 73, 0
3, 64373, Note_off_c, 4, 71, 0
3, 64384, Note_on_c, 4, 70, 95
3, 64597, Note_off_c, 4, 70, 0
3, 64597, Note_on_c, 4, 68, 90
3, 64682, Note_on_c, 4, 70, 97
3, 64683, Note_off_c, 4, 68, 0
3, 64768, Note_on_c, 4, 66, 87
3, 64769, Note_off_c, 4, 70, 0
3, 64853, Note_on_c, 4, 64, 80
3, 64854, Note_off_c, 4, 66, 0
3, 64938, Note_on_c, 4, 63, 95
3, 64939, Note_off_c, 4, 64, 0
3, 65024, Note_on_c, 4, 61, 86
3, 65025, Note_off_c, 4, 63, 0
3, 65109, Note_on_c, 4, 60, 91
3, 65110, Note_off_c, 4, 61, 0
3, 65194, Note_on_c, 4, 61, 97
3, 65195, Note_off_c, 4, 60, 0
3, 65280, Note_on_c, 4, 63, 104
3, 65281, Note_off_c, 4, 61, 0
3, 65365, Note_on_c, 4, 64, 116
3, 65366, Note_off_c, 4, 63, 0
3, 65450, Note_on_c, 4, 66, 108
3, 65451, Note_off_c, 4, 64, 0
3, 65536, Note_on_c, 4, 68, 111
3, 65537, Note_off_c, 4, 66, 0
3, 65621, Note_on_c, 4, 70, 104
3, 65622, Note_off_c, 4, 68, 0
3, 65706, Note_on_c, 4, 68, 103
3, 65707, Note_off_c, 4, 70, 0
3, 65792, Note_on_c, 4, 71, 106
3, 65793, Note_off_c, 4, 68, 0
3, 65852, Note_off_c, 4, 71, 0
3, 65920, Note_on_c, 4, 70, 88
3, 66048, Note_on_c, 4, 71, 93
3, 66050, Note_off_c, 4, 70, 0
3, 66150, Note_on_c, 4, 73, 106
3, 66152, Note_off_c, 4, 71, 0
3, 66252, Note_on_c, 4, 75, 115
3, 66254, Note_off_c, 4, 73, 0
3, 66355, Note_on_c, 4, 73, 91
3, 66357, Note_off_c, 4, 75, 0
3, 66457, Note_on_c, 4, 78, 104
3, 66459, Note_off_c, 4, 73, 0
3, 66560, Note_on_c, 4, 80, 103
3, 66562, Note_off_c, 4, 78, 0
3, 66681, Note_off_c, 4, 80, 0
3, 66688, Note_on_c, 4, 82, 102
3, 66901, Note_on_c, 4, 80, 96
3, 66905, Note_off_c, 4, 82, 0
3, 67029, Note_on_c, 4, 83, 105
3, 67031, Note_off_c, 4, 80, 0
3, 67328, Note_on_c, 4, 84, 107
3, 67333, Note_off_c, 4, 83, 0
3, 67510, Note_off_c, 4, 84, 0
3, 67520, Note_on_c, 4, 86, 102
3, 67712, Note_on_c, 4, 84, 93
3, 67715, Note_off_c, 4, 86, 0
3, 67904, Note_on_c, 4, 87, 108
3, 67907, Note_off_c, 4, 84, 0
3, 68032, Note_on_c, 4, 84, 99
3, 68034, Note_off_c, 4, 87, 0
3, 68160, Note_on_c, 4, 82, 90
3, 68162, Note_off_c, 4, 84, 0
3, 68352, Note_on_c, 4, 80, 81
3, 68355, Note_off_c, 4, 82, 0
3, 68544, Note_on_c, 4, 79, 93
3, 68547, Note_off_c, 4, 80, 0
3, 68672, Note_on_c, 4, 77, 85
3, 68674, Note_off_c, 4, 79, 0
3, 68915, Note_off_c, 4, 77, 0
3, 68928, Note_on_c, 4, 76, 97
3, 69056, Note_on_c, 4, 78, 101
3, 69058, Note_off_c, 4, 76, 0
3, 69184, Note_on_c, 4, 79, 102
3, 69186, Note_off_c, 4, 78, 0
3, 69312, Note_on_c, 4, 81, 109
3, 69314, Note_off_c, 4, 79, 0
3, 69440, Note_on_c, 4, 82, 100
3, 69442, Note_off_c, 4, 81, 0
3, 69568, Note_on_c, 4, 81, 95
3, 69570, Note_off_c, 4, 82, 0
3, 69696, Note_on_c, 4, 79, 95
3, 69698, Note_off_c, 4, 81, 0
3, 69802, Note_on_c, 4, 78, 89
3, 69804, Note_off_c, 4, 79, 0
3, 69888, Note_on_c, 4, 82, 106
3, 69889, Note_off_c, 4, 78, 0
3, 69968, Note_off_c, 4, 82, 0
3, 69973, Note_on_c, 4, 72, 78
3, 70058, Note_on_c, 4, 75, 80
3, 70059, Note_off_c, 4, 72, 0
3, 70144, Note_on_c, 4, 77, 107
3, 70145, Note_off_c, 4, 75, 0
3, 70229, Note_on_c, 4, 75, 99
3, 70230, Note_off_c, 4, 77, 0
3, 70314, Note_on_c, 4, 78, 105
3, 70315, Note_off_c, 4, 75, 0
3, 70400, Note_on_c, 4, 79, 115
3, 70401, Note_off_c, 4, 78, 0
3, 70485, Note_on_c, 4, 82, 101
3, 70486, Note_off_c, 4, 79, 0
3, 70570, Note_on_c, 4, 83, 110
3, 70571, Note_off_c, 4, 82, 0
3, 70656, Note_on_c, 4, 84, 106
3, 70657, Note_off_c, 4, 83, 0
3, 70741, Note_on_c, 4, 83, 100
3, 70742, Note_off_c, 4, 84, 0
3, 70826, Note_on_c, 4, 80, 92
3, 70827, Note_off_c, 4, 83, 0
3, 70907, Note_off_c, 4, 80, 0
3, 70912, Note_on_c, 4, 89, 121
3, 70997, Note_on_c, 4, 87, 118
3, 70998, Note_off_c, 4, 89, 0
3, 71082, Note_on_c, 4, 84, 92
3, 71083, Note_off_c, 4, 87, 0
3, 71168, Note_on_c, 4, 82, 86
3, 71169, Note_off_c, 4, 84, 0
3, 71253, Note_on_c, 4, 81, 92
3, 71254, Note_off_c, 4, 82, 0
3, 71338, Note_on_c, 4, 79, 85
3, 71339, Note_off_c, 4, 81, 0
3, 71424, Note_on_c, 4, 77, 86
3, 71425, Note_off_c, 4, 79, 0
3, 71488, Note_on_c, 4, 76, 79
3, 71489, Note_off_c, 4, 77, 0
3, 71552, Note_on_c, 4, 75, 93
3, 71553, Note_off_c, 4, 76, 0
3, 71616, Note_on_c, 4, 73, 85
3, 71617, Note_off_c, 4, 75, 0
3, 71680, Note_on_c, 4, 74, 121
3, 71680, Note_on_c, 4, 86, 121
3, 71681, Note_off_c, 4, 73, 0
3, 71731, Note_on_c, 4, 72, 118
3, 71731, Note_on_c, 4, 84, 118
3, 71732, Note_off_c, 4, 74, 0
3, 71732, Note_off_c, 4, 86, 0
3, 71782, Note_on_c, 4, 71, 94
3, 71782, Note_on_c, 4, 83, 94
3, 71783, Note_off_c, 4, 72, 0
3, 71783, Note_off_c, 4, 84, 0
3, 71833, Note_on_c, 4, 69, 90
3, 71833, Note_on_c, 4, 81, 90
3, 71834, Note_off_c, 4, 71, 0
3, 71834, Note_off_c, 4, 83, 0
3, 71884, Note_on_c, 4, 68, 94
3, 71884, Note_on_c, 4, 80, 94
3, 71885, Note_off_c, 4, 69, 0
3, 71885, Note_off_c, 4, 81, 0
3, 71936, Note_on_c, 4, 66, 92
3, 71936, Note_on_c, 4, 78, 92
3, 71937, Note_off_c, 4, 68, 0
3, 71937, Note_off_c, 4, 80, 0
3, 71987, Note_on_c, 4, 64, 90
3, 71987, Note_on_c, 4, 76, 90
3, 71988, Note_off_c, 4, 66, 0
3, 71988, Note_off_c, 4, 78, 0
3, 72038, Note_on_c, 4, 63, 87
3, 72038, Note_on_c, 4, 75, 87
3, 72039, Note_off_c, 4, 64, 0
3, 72039, Note_off_c, 4, 76, 0
3, 72089, Note_on_c, 4, 62, 89
3, 72089, Note_on_c, 4, 74, 89
3, 72090, Note_off_c, 4, 63, 0
3, 72090, Note_off_c, 4, 75, 0
3, 72140, Note_on_c, 4, 60, 80
3, 72140, Note_on_c, 4, 72, 80
3, 72141, Note_off_c, 4, 62, 0
3, 72141, Note_off_c, 4, 74, 0
3, 72189, Note_off_c, 4, 60, 0
3, 72189, Note_off_c, 4, 72, 0
3, 72192, Note_on_c, 4, 76, 126
3, 72224, Note_off_c, 4, 76, 0
3, 72224, Note_on_c, 4, 71, 85
3, 72256, Note_off_c, 4, 71, 0
3, 72256, Note_on_c, 4, 69, 86
3, 72288, Note_off_c, 4, 69, 0
3, 72288, Note_on_c, 4, 67, 92
3, 72320, Note_off_c, 4, 67, 0
3, 72320, Note_on_c, 4, 66, 97
3, 72352, Note_off_c, 4, 66, 0
3, 72352, Note_on_c, 4, 64, 92
3, 72384, Note_off_c, 4, 64, 0
3, 72384, Note_on_c, 4, 63, 92
3, 72416, Note_off_c, 4, 63, 0
3, 72416, Note_on_c, 4, 61, 91
3, 72448, Note_off_c, 4, 61, 0
3, 72448, Note_on_c, 4, 60, 94
3, 72478, Note_off_c, 4, 60, 0
3, 72768, Note_on_c, 4, 63, 84
3, 72800, Note_off_c, 4, 63, 0
3, 72800, Note_on_c, 4, 64, 103
3, 72832, Note_off_c, 4, 64, 0
3, 72832, Note_on_c, 4, 66, 102
3, 72864, Note_off_c, 4, 66, 0
3, 72864, Note_on_c, 4, 67, 98
3, 72896, Note_off_c, 4, 67, 0
3, 72896, Note_on_c, 4, 69, 103
3, 72928, Note_off_c, 4, 69, 0
3, 72928, Note_on_c, 4, 71, 106
3, 72960, Note_off_c, 4, 71, 0
3, 72960, Note_on_c, 4, 75, 112
3, 72990, Note_off_c, 4, 75, 0
3, 72992, Note_on_c, 4, 72, 92
3, 73024, Note_off_c, 4, 72, 0
3, 73024, Note_on_c, 4, 74, 101
3, 73056, Note_off_c, 4, 74, 0
3, 73056, Note_on_c, 4, 75, 105
3, 73088, Note_off_c, 4, 75, 0
3, 73088, Note_on_c, 4, 64, 106
3, 73088, Note_on_c, 4, 76, 106
3, 73120, Note_off_c, 4, 64, 0
3, 73120, Note_off_c, 4, 76, 0
3, 73120, Note_on_c, 4, 66, 102
3, 73120, Note_on_c, 4, 78, 102
3, 73152, Note_off_c, 4, 66, 0
3, 73152, Note_off_c, 4, 78, 0
3, 73152, Note_on_c, 4, 68, 104
3, 73152, Note_on_c, 4, 80, 104
3, 73184, Note_off_c, 4, 68, 0
3, 73184, Note_off_c, 4, 80, 0
3, 73184, Note_on_c, 4, 69, 104
3, 73184, Note_on_c, 4, 81, 104
3, 73216, Note_off_c, 4, 69, 0
3, 73216, Note_off_c, 4, 81, 0
3, 73216, Note_on_c, 4, 71, 108
3, 73216, Note_on_c, 4, 83, 108
3, 73248, Note_off_c, 4, 71, 0
3, 73248, Note_off_c, 4, 83, 0
3, 73248, Note_on_c, 4, 72, 105
3, 73248, Note_on_c, 4, 84, 105
3, 73280, Note_off_c, 4, 72, 0
3, 73280, Note_off_c, 4, 84, 0
3, 73280, Note_on_c, 4, 74, 108
3, 73280, Note_on_c, 4, 86, 108
3, 73310, Note_off_c, 4, 74, 0
3, 73310, Note_off_c, 4, 86, 0
3, 76992, Note_on_c, 4, 65, 72
3, 77056, Note_on_c, 4, 68, 79
3, 77057, Note_off_c, 4, 65, 0
3, 77248, Note_on_c, 4, 70, 92
3, 77251, Note_off_c, 4, 68, 0
3, 77312, Note_on_c, 4, 80, 110
3, 77313, Note_off_c, 4, 70, 0
3, 77504, Note_on_c, 4, 72, 71
3, 77507, Note_off_c, 4, 80, 0
3, 77760, Note_on_c, 4, 73, 73
3, 77765, Note_off_c, 4, 72, 0
3, 78064, Note_off_c, 4, 73, 0
3, 78272, Note_on_c, 4, 65, 68
3, 78336, Note_on_c, 4, 68, 73
3, 78337, Note_off_c, 4, 65, 0
3, 78528, Note_on_c, 4, 70, 89
3, 78531, Note_off_c, 4, 68, 0
3, 78592, Note_on_c, 4, 82, 115
3, 78593, Note_off_c, 4, 70, 0
3, 78784, Note_on_c, 4, 73, 69
3, 78787, Note_off_c, 4, 82, 0
3, 78912, Note_on_c, 4, 75, 71
3, 78914, Note_off_c, 4, 73, 0
3, 79216, Note_off_c, 4, 75, 0
3, 79296, Note_on_c, 4, 68, 78
3, 79360, Note_on_c, 4, 72, 81
3, 79361, Note_off_c, 4, 68, 0
3, 79552, Note_on_c, 4, 73, 85
3, 79555, Note_off_c, 4, 72, 0
3, 79616, Note_on_c, 4, 87, 113
3, 79617, Note_off_c, 4, 73, 0
3, 79808, Note_on_c, 4, 83, 77
3, 79811, Note_off_c, 4, 87, 0
3, 80064, Note_on_c, 4, 84, 80
3, 80069, Note_off_c, 4, 83, 0
3, 80256, Note_on_c, 4, 85, 89
3, 80259, Note_off_c, 4, 84, 0
3, 80448, Note_on_c, 4, 86, 90
3, 80451, Note_off_c, 4, 85, 0
3, 80512, Note_on_c, 4, 87, 86
3, 80513, Note_off_c, 4, 86, 0
3, 80714, Note_off_c, 4, 87, 0
3, 80725, Note_on_c, 4, 83, 70
3, 80810, Note_on_c, 4, 84, 72
3, 80811, Note_off_c, 4, 83, 0
3, 80960, Note_on_c, 4, 85, 86
3, 80963, Note_off_c, 4, 84, 0
3, 81088, Note_on_c, 4, 86, 91
3, 81090, Note_off_c, 4, 85, 0
3, 81152, Note_on_c, 4, 87, 86
3, 81153, Note_off_c, 4, 86, 0
3, 81232, Note_off_c, 4, 87, 0
3, 81237, Note_on_c, 4, 82, 68
3, 81322, Note_on_c, 4, 83, 74
3, 81323, Note_off_c, 4, 82, 0
3, 81408, Note_on_c, 4, 84, 91
3, 81409, Note_off_c, 4, 83, 0
3, 81493, Note_on_c, 4, 85, 93
3, 81494, Note_off_c, 4, 84, 0
3, 81578, Note_on_c, 4, 86, 84
3, 81579, Note_off_c, 4, 85, 0
3, 81664, Note_on_c, 4, 87, 93
3, 81665, Note_off_c, 4, 86, 0
3, 81724, Note_off_c, 4, 87, 0
3, 81728, Note_on_c, 4, 77, 66
3, 81792, Note_on_c, 4, 79, 67
3, 81793, Note_off_c, 4, 77, 0
3, 81856, Note_on_c, 4, 80, 89
3, 81857, Note_off_c, 4, 79, 0
3, 81920, Note_on_c, 4, 82, 95
3, 81921, Note_off_c, 4, 80, 0
3, 81980, Note_off_c, 4, 82, 0
3, 81984, Note_on_c, 4, 72, 62
3, 82048, Note_on_c, 4, 73, 61
3, 82049, Note_off_c, 4, 72, 0
3, 82112, Note_on_c, 4, 75, 88
3, 82113, Note_off_c, 4, 73, 0
3, 82176, Note_on_c, 4, 76, 93
3, 82177, Note_off_c, 4, 75, 0
3, 82256, Note_off_c, 4, 76, 0
3, 82261, Note_on_c, 4, 67, 67
3, 82346, Note_on_c, 4, 70, 70
3, 82347, Note_off_c, 4, 67, 0
3, 82432, Note_on_c, 4, 73, 93
3, 82433, Note_off_c, 4, 70, 0
3, 82512, Note_off_c, 4, 73, 0
3, 82517, Note_on_c, 4, 63, 65
3, 82602, Note_on_c, 4, 65, 69
3, 82603, Note_off_c, 4, 63, 0
3, 82688, Note_on_c, 4, 66, 86
3, 82689, Note_off_c, 4, 65, 0
3, 82752, Note_on_c, 4, 67, 88
3, 82753, Note_off_c, 4, 66, 0
3, 82816, Note_on_c, 4, 68, 83
3, 82817, Note_off_c, 4, 67, 0
3, 82876, Note_off_c, 4, 68, 0
3, 82880, Note_on_c, 4, 60, 67
3, 82944, Note_on_c, 4, 61, 65
3, 82945, Note_off_c, 4, 60, 0
3, 83008, Note_on_c, 4, 64, 91
3, 83009, Note_off_c, 4, 61, 0
3, 83072, Note_on_c, 4, 66, 100
3, 83073, Note_off_c, 4, 64, 0
3, 83136, Note_on_c, 4, 68, 90
3, 83137, Note_off_c, 4, 66, 0
3, 83200, Note_on_c, 4, 69, 93
3, 83201, Note_off_c, 4, 68, 0
3, 83264, Note_on_c, 4, 70, 89
3, 83265, Note_off_c, 4, 69, 0
3, 83328, Note_on_c, 4, 71, 88
3, 83329, Note_off_c, 4, 70, 0
3, 83392, Note_on_c, 4, 72, 90
3, 83393, Note_off_c, 4, 71, 0
3, 83456, Note_on_c, 4, 73, 99
3, 83457, Note_off_c, 4, 72, 0
3, 83541, Note_on_c, 4, 74, 90
3, 83542, Note_off_c, 4, 73, 0
3, 83626, Note_on_c, 4, 75, 92
3, 83627, Note_off_c, 4, 74, 0
3, 83712, Note_on_c, 4, 77, 90
3, 83713, Note_off_c, 4, 75, 0
3, 83797, Note_on_c, 4, 78, 93
3, 83798, Note_off_c, 4, 77, 0
3, 83877, Note_off_c, 4, 78, 0
3, 83882, Note_on_c, 4, 69, 74
3, 83968, Note_on_c, 4, 80, 121
3, 83969, Note_off_c, 4, 69, 0
3, 84138, Note_on_c, 4, 81, 127
3, 84141, Note_off_c, 4, 80, 0
3, 84219, Note_off_c, 4, 81, 0
3, 84224, Note_on_c, 4, 68, 64
3, 84416, Note_on_c, 4, 67, 58
3, 84419, Note_off_c, 4, 68, 0
3, 84537, Note_off_c, 4, 67, 0
3, 84821, Note_on_c, 4, 73, 87
3, 84906, Note_on_c, 4, 72, 80
3, 84907, Note_off_c, 4, 73, 0
3, 84987, Note_off_c, 4, 72, 0
3, 85248, Note_on_c, 4, 68, 89
3, 85418, Note_off_c, 4, 68, 0
3, 85418, Note_on_c, 4, 67, 92
3, 85546, Note_off_c, 4, 67, 0
3, 85546, Note_on_c, 4, 66, 97
3, 85674, Note_off_c, 4, 66, 0
3, 85674, Note_on_c, 4, 65, 92
3, 85760, Note_off_c, 4, 65, 0
3, 86869, Note_on_c, 4, 66, 90
3, 87040, Note_off_c, 4, 66, 0
3, 87040, Note_on_c, 4, 78, 121
3, 87125, Note_off_c, 4, 78, 0
3, 87125, Note_on_c, 4, 81, 112
3, 87296, Note_off_c, 4, 81, 0
3, 87296, Note_on_c, 4, 65, 69
3, 87466, Note_off_c, 4, 65, 0
3, 87466, Note_on_c, 4, 64, 88
3, 87872, Note_off_c, 4, 64, 0
3, 87872, Note_on_c, 4, 65, 104
3, 88000, Note_off_c, 4, 65, 0
3, 88000, Note_on_c, 4, 66, 102
3, 88149, Note_off_c, 4, 66, 0
3, 88149, Note_on_c, 4, 67, 101
3, 88234, Note_off_c, 4, 67, 0
3, 88234, Note_on_c, 4, 70, 117
3, 88448, Note_off_c, 4, 70, 0
3, 88448, Note_on_c, 4, 66, 84
3, 88896, Note_off_c, 4, 66, 0
3, 88896, Note_on_c, 4, 83, 127
3, 89024, Note_off_c, 4, 83, 0
3, 89024, Note_on_c, 4, 65, 79
3, 89216, Note_off_c, 4, 65, 0
3, 89216, Note_on_c, 4, 83, 127
3, 89344, Note_off_c, 4, 83, 0
3, 89344, Note_on_c, 4, 65, 78
3, 89536, Note_off_c, 4, 65, 0
3, 89536, Note_on_c, 4, 83, 127
3, 89664, Note_off_c, 4, 83, 0
3, 89664, Note_on_c, 4, 65, 72
3, 89856, Note_off_c, 4, 65, 0
3, 89856, Note_on_c, 4, 83, 127
3, 89984, Note_off_c, 4, 83, 0
3, 89984, Note_on_c, 4, 65, 76
3, 90304, Note_off_c, 4, 65, 0
3, 90304, Note_on_c, 4, 65, 92
3, 90560, Note_off_c, 4, 65, 0
3, 90624, Note_on_c, 4, 74, 85
3, 90666, Note_off_c, 4, 74, 0
3, 90666, Note_on_c, 4, 83, 118
3, 90752, Note_on_c, 4, 86, 127
3, 90753, Note_off_c, 4, 83, 0
3, 90995, Note_off_c, 4, 86, 0
3, 91072, Note_on_c, 4, 72, 87
3, 91136, Note_on_c, 4, 83, 107
3, 91137, Note_off_c, 4, 72, 0
3, 91200, Note_on_c, 4, 86, 110
3, 91201, Note_off_c, 4, 83, 0
3, 91321, Note_off_c, 4, 86, 0
3, 91328, Note_on_c, 4, 82, 91
3, 91456, Note_off_c, 4, 82, 0
3, 91712, Note_on_c, 4, 78, 88
3, 91904, Note_off_c, 4, 78, 0
3, 92032, Note_on_c, 4, 78, 89
3, 92160, Note_off_c, 4, 78, 0
3, 92224, Note_on_c, 4, 78, 85
3, 92352, Note_on_c, 4, 81, 88
3, 92354, Note_off_c, 4, 78, 0
3, 92534, Note_off_c, 4, 81, 0
3, 92608, Note_on_c, 4, 78, 85
3, 92672, Note_on_c, 4, 81, 92
3, 92673, Note_off_c, 4, 78, 0
3, 92793, Note_off_c, 4, 81, 0
3, 92864, Note_on_c, 4, 82, 90
3, 93098, Note_off_c, 4, 82, 0
3, 93098, Note_on_c, 4, 70, 72
3, 93184, Note_on_c, 4, 75, 81
3, 93185, Note_off_c, 4, 70, 0
3, 93264, Note_off_c, 4, 75, 0
3, 93354, Note_on_c, 4, 66, 89
3, 93440, Note_on_c, 4, 69, 99
3, 93441, Note_off_c, 4, 66, 0
3, 93520, Note_off_c, 4, 69, 0
3, 93525, Note_on_c, 4, 60, 73
3, 93610, Note_on_c, 4, 73, 88
3, 93611, Note_off_c, 4, 60, 0
3, 93696, Note_on_c, 4, 77, 112
3, 93697, Note_off_c, 4, 73, 0
3, 93857, Note_off_c, 4, 77, 0
3, 93866, Note_on_c, 4, 81, 113
3, 94037, Note_off_c, 4, 81, 0
3, 94037, Note_on_c, 4, 61, 70
3, 94208, Note_off_c, 4, 61, 0
3, 94208, Note_on_c, 4, 84, 120
3, 94528, Note_off_c, 4, 84, 0
3, 94528, Note_on_c, 4, 85, 100
3, 94848, Note_off_c, 4, 85, 0
3, 94848, Note_on_c, 4, 62, 71
3, 95104, Note_off_c, 4, 62, 0
3, 95232, Note_on_c, 4, 73, 77
3, 95264, Note_off_c, 4, 73, 0
3, 95264, Note_on_c, 4, 77, 89
3, 95296, Note_off_c, 4, 77, 0
3, 95296, Note_on_c, 4, 80, 93
3, 95328, Note_off_c, 4, 80, 0
3, 95328, Note_on_c, 4, 83, 91
3, 95360, Note_off_c, 4, 83, 0
3, 95360, Note_on_c, 4, 84, 93
3, 95390, Note_off_c, 4, 84, 0
3, 95424, Note_on_c, 4, 73, 76
3, 95456, Note_off_c, 4, 73, 0
3, 95456, Note_on_c, 4, 77, 95
3, 95488, Note_off_c, 4, 77, 0
3, 95488, Note_on_c, 4, 80, 92
3, 95520, Note_off_c, 4, 80, 0
3, 95520, Note_on_c, 4, 83, 98
3, 95552, Note_off_c, 4, 83, 0
3, 95552, Note_on_c, 4, 84, 90
3, 95584, Note_off_c, 4, 84, 0
3, 95584, Note_on_c, 4, 85, 86
3, 95614, Note_off_c, 4, 85, 0
3, 95616, Note_on_c, 4, 71, 62
3, 95648, Note_off_c, 4, 71, 0
3, 95648, Note_on_c, 4, 73, 85
3, 95680, Note_off_c, 4, 73, 0
3, 95680, Note_on_c, 4, 77, 88
3, 95712, Note_off_c, 4, 77, 0
3, 95712, Note_on_c, 4, 80, 99
3, 95744, Note_off_c, 4, 80, 0
3, 95744, Note_on_c, 4, 83, 90
3, 95774, Note_off_c, 4, 83, 0
3, 95808, Note_on_c, 4, 73, 74
3, 95840, Note_off_c, 4, 73, 0
3, 95840, Note_on_c, 4, 77, 90
3, 95872, Note_off_c, 4, 77, 0
3, 95872, Note_on_c, 4, 80, 90
3, 95904, Note_off_c, 4, 80, 0
3, 95904, Note_on_c, 4, 83, 95
3, 95936, Note_off_c, 4, 83, 0
3, 95936, Note_on_c, 4, 84, 85
3, 95966, Note_off_c, 4, 84, 0
3, 95968, Note_on_c, 4, 71, 68
3, 96000, Note_off_c, 4, 71, 0
3, 96000, Note_on_c, 4, 73, 86
3, 96032, Note_off_c, 4, 73, 0
3, 96032, Note_on_c, 4, 79, 97
3, 96064, Note_off_c, 4, 79, 0
3, 96064, Note_on_c, 4, 83, 96
3, 96096, Note_off_c, 4, 83, 0
3, 96096, Note_on_c, 4, 86, 91
3, 96126, Note_off_c, 4, 86, 0
3, 96160, Note_on_c, 4, 73, 76
3, 96192, Note_off_c, 4, 73, 0
3, 96192, Note_on_c, 4, 77, 90
3, 96224, Note_off_c, 4, 77, 0
3, 96224, Note_on_c, 4, 80, 92
3, 96256, Note_off_c, 4, 80, 0
3, 96256, Note_on_c, 4, 79, 83
3, 96288, Note_off_c, 4, 79, 0
3, 96288, Note_on_c, 4, 73, 72
3, 96320, Note_off_c, 4, 73, 0
3, 96320, Note_on_c, 4, 77, 90
3, 96352, Note_off_c, 4, 77, 0
3, 96352, Note_on_c, 4, 79, 86
3, 96384, Note_off_c, 4, 79, 0
3, 96384, Note_on_c, 4, 83, 101
3, 96416, Note_off_c, 4, 83, 0
3, 96416, Note_on_c, 4, 77, 73
3, 96448, Note_off_c, 4, 77, 0
3, 96448, Note_on_c, 4, 80, 86
3, 96480, Note_off_c, 4, 80, 0
3, 96480, Note_on_c, 4, 83, 91
3, 96512, Note_off_c, 4, 83, 0
3, 96512, Note_on_c, 4, 85, 92
3, 96544, Note_off_c, 4, 85, 0
3, 96544, Note_on_c, 4, 77, 70
3, 96576, Note_off_c, 4, 77, 0
3, 96576, Note_on_c, 4, 80, 87
3, 96608, Note_off_c, 4, 80, 0
3, 96608, Note_on_c, 4, 83, 94
3, 96640, Note_off_c, 4, 83, 0
3, 96640, Note_on_c, 4, 86, 95
3, 96672, Note_off_c, 4, 86, 0
3, 96672, Note_on_c, 4, 77, 68
3, 96704, Note_off_c, 4, 77, 0
3, 96704, Note_on_c, 4, 79, 86
3, 96736, Note_off_c, 4, 79, 0
3, 96736, Note_on_c, 4, 83, 94
3, 96768, Note_off_c, 4, 83, 0
3, 96768, Note_on_c, 4, 77, 68
3, 96800, Note_off_c, 4, 77, 0
3, 96800, Note_on_c, 4, 79, 89
3, 96832, Note_off_c, 4, 79, 0
3, 96832, Note_on_c, 4, 83, 88
3, 96864, Note_off_c, 4, 83, 0
3, 96864, Note_on_c, 4, 86, 91
3, 96894, Note_off_c, 4, 86, 0
3, 96960, Note_on_c, 4, 73, 78
3, 96992, Note_off_c, 4, 73, 0
3, 96992, Note_on_c, 4, 77, 93
3, 97024, Note_off_c, 4, 77, 0
3, 97024, Note_on_c, 4, 80, 92
3, 97056, Note_off_c, 4, 80, 0
3, 97056, Note_on_c, 4, 83, 90
3, 97088, Note_off_c, 4, 83, 0
3, 97088, Note_on_c, 4, 86, 95
3, 97118, Note_off_c, 4, 86, 0
3, 97152, Note_on_c, 4, 72, 75
3, 97184, Note_off_c, 4, 72, 0
3, 97184, Note_on_c, 4, 74, 92
3, 97216, Note_off_c, 4, 74, 0
3, 97216, Note_on_c, 4, 75, 91
3, 97248, Note_off_c, 4, 75, 0
3, 97248, Note_on_c, 4, 80, 97
3, 97280, Note_off_c, 4, 80, 0
3, 97280, Note_on_c, 4, 85, 96
3, 97310, Note_off_c, 4, 85, 0
3, 97344, Note_on_c, 4, 70, 75
3, 97376, Note_off_c, 4, 70, 0
3, 97376, Note_on_c, 4, 72, 85
3, 97408, Note_off_c, 4, 72, 0
3, 97408, Note_on_c, 4, 76, 93
3, 97440, Note_off_c, 4, 76, 0
3, 97440, Note_on_c, 4, 80, 98
3, 97470, Note_off_c, 4, 80, 0
3, 97504, Note_on_c, 4, 83, 78
3, 97536, Note_off_c, 4, 83, 0
3, 97536, Note_on_c, 4, 73, 66
3, 97568, Note_off_c, 4, 73, 0
3, 97568, Note_on_c, 4, 76, 90
3, 97600, Note_off_c, 4, 76, 0
3, 97600, Note_on_c, 4, 80, 93
3, 97632, Note_off_c, 4, 80, 0
3, 97632, Note_on_c, 4, 82, 91
3, 97664, Note_off_c, 4, 82, 0
3, 97664, Note_on_c, 4, 88, 98
3, 97694, Note_off_c, 4, 88, 0
3, 97728, Note_on_c, 4, 72, 76
3, 97760, Note_off_c, 4, 72, 0
3, 97760, Note_on_c, 4, 75, 90
3, 97792, Note_off_c, 4, 75, 0
3, 97792, Note_on_c, 4, 78, 96
3, 97824, Note_off_c, 4, 78, 0
3, 97824, Note_on_c, 4, 79, 91
3, 97856, Note_off_c, 4, 79, 0
3, 97856, Note_on_c, 4, 75, 75
3, 97888, Note_off_c, 4, 75, 0
3, 97888, Note_on_c, 4, 84, 105
3, 97920, Note_off_c, 4, 84, 0
3, 97920, Note_on_c, 4, 68, 65
3, 97952, Note_off_c, 4, 68, 0
3, 97952, Note_on_c, 4, 73, 91
3, 97984, Note_off_c, 4, 73, 0
3, 97984, Note_on_c, 4, 76, 95
3, 98016, Note_off_c, 4, 76, 0
3, 98016, Note_on_c, 4, 80, 94
3, 98046, Note_off_c, 4, 80, 0
3, 98080, Note_on_c, 4, 82, 75
3, 98112, Note_off_c, 4, 82, 0
3, 98112, Note_on_c, 4, 70, 58
3, 98144, Note_off_c, 4, 70, 0
3, 98144, Note_on_c, 4, 72, 84
3, 98176, Note_off_c, 4, 72, 0
3, 98176, Note_on_c, 4, 75, 93
3, 98208, Note_off_c, 4, 75, 0
3, 98208, Note_on_c, 4, 80, 96
3, 98240, Note_off_c, 4, 80, 0
3, 98240, Note_on_c, 4, 84, 96
3, 98272, Note_off_c, 4, 84, 0
3, 98272, Note_on_c, 4, 83, 84
3, 98304, Note_off_c, 4, 83, 0
3, 98304, Note_on_c, 4, 68, 64
3, 98336, Note_off_c, 4, 68, 0
3, 98336, Note_on_c, 4, 73, 97
3, 98368, Note_off_c, 4, 73, 0
3, 98368, Note_on_c, 4, 76, 91
3, 98400, Note_off_c, 4, 76, 0
3, 98400, Note_on_c, 4, 77, 91
3, 98430, Note_off_c, 4, 77, 0
3, 98464, Note_on_c, 4, 83, 73
3, 98496, Note_off_c, 4, 83, 0
3, 98496, Note_on_c, 4, 73, 59
3, 98528, Note_off_c, 4, 73, 0
3, 98528, Note_on_c, 4, 77, 93
3, 98560, Note_off_c, 4, 77, 0
3, 98560, Note_on_c, 4, 80, 95
3, 98592, Note_off_c, 4, 80, 0
3, 98592, Note_on_c, 4, 77, 81
3, 98624, Note_off_c, 4, 77, 0
3, 98624, Note_on_c, 4, 84, 95
3, 98654, Note_off_c, 4, 84, 0
3, 98688, Note_on_c, 4, 68, 71
3, 98720, Note_off_c, 4, 68, 0
3, 98720, Note_on_c, 4, 73, 96
3, 98752, Note_off_c, 4, 73, 0
3, 98752, Note_on_c, 4, 76, 92
3, 98784, Note_off_c, 4, 76, 0
3, 98784, Note_on_c, 4, 77, 93
3, 98814, Note_off_c, 4, 77, 0
3, 98848, Note_on_c, 4, 83, 78
3, 98880, Note_off_c, 4, 83, 0
3, 98880, Note_on_c, 4, 73, 61
3, 98912, Note_off_c, 4, 73, 0
3, 98912, Note_on_c, 4, 77, 90
3, 98944, Note_off_c, 4, 77, 0
3, 98944, Note_on_c, 4, 80, 92
3, 98976, Note_off_c, 4, 80, 0
3, 98976, Note_on_c, 4, 77, 78
3, 99008, Note_off_c, 4, 77, 0
3, 99008, Note_on_c, 4, 88, 104
3, 99038, Note_off_c, 4, 88, 0
3, 99072, Note_on_c, 4, 73, 74
3, 99104, Note_off_c, 4, 73, 0
3, 99104, Note_on_c, 4, 77, 95
3, 99136, Note_off_c, 4, 77, 0
3, 99136, Note_on_c, 4, 80, 91
3, 99168, Note_off_c, 4, 80, 0
3, 99168, Note_on_c, 4, 77, 81
3, 99200, Note_off_c, 4, 77, 0
3, 99200, Note_on_c, 4, 83, 98
3, 99230, Note_off_c, 4, 83, 0
3, 99264, Note_on_c, 4, 73, 75
3, 99296, Note_off_c, 4, 73, 0
3, 99296, Note_on_c, 4, 77, 96
3, 99328, Note_off_c, 4, 77, 0
3, 99328, Note_on_c, 4, 80, 92
3, 99360, Note_off_c, 4, 80, 0
3, 99360, Note_on_c, 4, 73, 73
3, 99392, Note_off_c, 4, 73, 0
3, 99392, Note_on_c, 4, 83, 104
3, 99424, Note_off_c, 4, 83, 0
3, 99424, Note_on_c, 4, 71, 63
3, 99456, Note_off_c, 4, 71, 0
3, 99456, Note_on_c, 4, 73, 86
3, 99488, Note_off_c, 4, 73, 0
3, 99488, Note_on_c, 4, 77, 95
3, 99520, Note_off_c, 4, 77, 0
3, 99520, Note_on_c, 4, 80, 92
3, 99552, Note_off_c, 4, 80, 0
3, 99552, Note_on_c, 4, 77, 82
3, 99584, Note_off_c, 4, 77, 0
3, 99584, Note_on_c, 4, 71, 69
3, 99616, Note_off_c, 4, 71, 0
3, 99616, Note_on_c, 4, 73, 90
3, 99648, Note_off_c, 4, 73, 0
3, 99648, Note_on_c, 4, 77, 94
3, 99680, Note_off_c, 4, 77, 0
3, 99680, Note_on_c, 4, 79, 94
3, 99712, Note_off_c, 4, 79, 0
3, 99712, Note_on_c, 4, 80, 89
3, 99744, Note_off_c, 4, 80, 0
3, 99744, Note_on_c, 4, 83, 93
3, 99776, Note_off_c, 4, 83, 0
3, 99776, Note_on_c, 4, 84, 87
3, 99806, Note_off_c, 4, 84, 0
3, 99840, Note_on_c, 4, 71, 73
3, 99872, Note_off_c, 4, 71, 0
3, 99872, Note_on_c, 4, 75, 95
3, 99904, Note_off_c, 4, 75, 0
3, 99904, Note_on_c, 4, 79, 93
3, 99936, Note_off_c, 4, 79, 0
3, 99936, Note_on_c, 4, 73, 64
3, 99968, Note_off_c, 4, 73, 0
3, 99968, Note_on_c, 4, 81, 96
3, 100000, Note_off_c, 4, 81, 0
3, 100000, Note_on_c, 4, 73, 70
3, 100032, Note_off_c, 4, 73, 0
3, 100032, Note_on_c, 4, 77, 92
3, 100064, Note_off_c, 4, 77, 0
3, 100064, Note_on_c, 4, 79, 93
3, 100096, Note_off_c, 4, 79, 0
3, 100096, Note_on_c, 4, 80, 92
3, 100128, Note_off_c, 4, 80, 0
3, 100128, Note_on_c, 4, 77, 73
3, 100160, Note_off_c, 4, 77, 0
3, 100160, Note_on_c, 4, 83, 98
3, 100190, Note_off_c, 4, 83, 0
3, 100224, Note_on_c, 4, 72, 75
3, 100256, Note_off_c, 4, 72, 0
3, 100256, Note_on_c, 4, 78, 92
3, 100288, Note_off_c, 4, 78, 0
3, 100288, Note_on_c, 4, 81, 92
3, 100320, Note_off_c, 4, 81, 0
3, 100320, Note_on_c, 4, 76, 77
3, 100352, Note_off_c, 4, 76, 0
3, 100352, Note_on_c, 4, 84, 99
3, 100382, Note_off_c, 4, 84, 0
3, 100416, Note_on_c, 4, 85, 74
3, 100448, Note_off_c, 4, 85, 0
3, 100448, Note_on_c, 4, 76, 64
3, 100480, Note_off_c, 4, 76, 0
3, 100480, Note_on_c, 4, 78, 87
3, 100512, Note_off_c, 4, 78, 0
3, 100512, Note_on_c, 4, 75, 75
3, 100544, Note_off_c, 4, 75, 0
3, 100544, Note_on_c, 4, 87, 103
3, 100574, Note_off_c, 4, 87, 0
3, 100608, Note_on_c, 4, 81, 77
3, 100640, Note_off_c, 4, 81, 0
3, 100640, Note_on_c, 4, 72, 63
3, 100672, Note_off_c, 4, 72, 0
3, 100672, Note_on_c, 4, 78, 89
3, 100704, Note_off_c, 4, 78, 0
3, 100704, Note_on_c, 4, 74, 77
3, 100736, Note_off_c, 4, 74, 0
3, 100736, Note_on_c, 4, 84, 106
3, 100768, Note_off_c, 4, 84, 0
3, 100768, Note_on_c, 4, 85, 92
3, 100798, Note_off_c, 4, 85, 0
3, 100832, Note_on_c, 4, 77, 76
3, 100864, Note_off_c, 4, 77, 0
3, 100864, Note_on_c, 4, 81, 96
3, 100896, Note_off_c, 4, 81, 0
3, 100896, Note_on_c, 4, 84, 94
3, 100926, Note_off_c, 4, 84, 0
3, 100960, Note_on_c, 4, 76, 73
3, 100992, Note_off_c, 4, 76, 0
3, 100992, Note_on_c, 4, 73, 77
3, 101024, Note_off_c, 4, 73, 0
3, 101024, Note_on_c, 4, 77, 92
3, 101056, Note_off_c, 4, 77, 0
3, 101056, Note_on_c, 4, 80, 91
3, 101088, Note_off_c, 4, 80, 0
3, 101088, Note_on_c, 4, 83, 93
3, 101120, Note_off_c, 4, 83, 0
3, 101120, Note_on_c, 4, 84, 91
3, 101150, Note_off_c, 4, 84, 0
3, 101184, Note_on_c, 4, 85, 73
3, 101216, Note_off_c, 4, 85, 0
3, 101216, Note_on_c, 4, 78, 69
3, 101248, Note_off_c, 4, 78, 0
3, 101248, Note_on_c, 4, 81, 91
3, 101280, Note_off_c, 4, 81, 0
3, 101280, Note_on_c, 4, 84, 95
3, 101312, Note_off_c, 4, 84, 0
3, 101312, Note_on_c, 4, 70, 57
3, 101344, Note_off_c, 4, 70, 0
3, 101344, Note_on_c, 4, 72, 90
3, 101376, Note_off_c, 4, 72, 0
3, 101376, Note_on_c, 4, 76, 92
3, 101408, Note_off_c, 4, 76, 0
3, 101408, Note_on_c, 4, 82, 97
3, 101440, Note_off_c, 4, 82, 0
3, 101440, Note_on_c, 4, 72, 66
3, 101472, Note_off_c, 4, 72, 0
3, 101472, Note_on_c, 4, 78, 94
3, 101504, Note_off_c, 4, 78, 0
3, 101504, Note_on_c, 4, 82, 94
3, 101536, Note_off_c, 4, 82, 0
3, 101536, Note_on_c, 4, 88, 99
3, 101568, Note_off_c, 4, 88, 0
3, 101568, Note_on_c, 4, 66, 62
3, 101600, Note_off_c, 4, 66, 0
3, 101600, Note_on_c, 4, 70, 89
3, 101632, Note_off_c, 4, 70, 0
3, 101632, Note_on_c, 4, 76, 99
3, 101664, Note_off_c, 4, 76, 0
3, 101664, Note_on_c, 4, 72, 76
3, 101694, Note_off_c, 4, 72, 0
3, 101728, Note_on_c, 4, 80, 77
3, 101760, Note_off_c, 4, 80, 0
3, 101760, Note_on_c, 4, 75, 69
3, 101790, Note_off_c, 4, 75, 0
3, 101824, Note_on_c, 4, 78, 77
3, 101856, Note_off_c, 4, 78, 0
3, 101856, Note_on_c, 4, 82, 93
3, 101888, Note_off_c, 4, 82, 0
3, 101888, Note_on_c, 4, 84, 93
3, 101918, Note_off_c, 4, 84, 0
3, 101952, Note_on_c, 4, 73, 82
3, 101984, Note_off_c, 4, 73, 0
3, 101984, Note_on_c, 4, 77, 86
3, 102016, Note_off_c, 4, 77, 0
3, 102016, Note_on_c, 4, 80, 97
3, 102048, Note_off_c, 4, 80, 0
3, 102048, Note_on_c, 4, 83, 91
3, 102080, Note_off_c, 4, 83, 0
3, 102080, Note_on_c, 4, 87, 90
3, 102110, Note_off_c, 4, 87, 0
3, 102176, Note_on_c, 4, 73, 79
3, 102208, Note_off_c, 4, 73, 0
3, 102208, Note_on_c, 4, 77, 93
3, 102240, Note_off_c, 4, 77, 0
3, 102240, Note_on_c, 4, 80, 91
3, 102272, Note_off_c, 4, 80, 0
3, 102272, Note_on_c, 4, 87, 99
3, 102304, Note_off_c, 4, 87, 0
3, 102304, Note_on_c, 4, 88, 91
3, 102336, Note_off_c, 4, 88, 0
3, 102336, Note_on_c, 4, 82, 73
3, 102368, Note_off_c, 4, 82, 0
3, 102368, Note_on_c, 4, 76, 67
3, 102398, Note_off_c, 4, 76, 0
3, 102432, Note_on_c, 4, 83, 75
3, 102464, Note_off_c, 4, 83, 0
3, 102464, Note_on_c, 4, 82, 79
3, 102496, Note_off_c, 4, 82, 0
3, 102496, Note_on_c, 4, 78, 72
3, 102528, Note_off_c, 4, 78, 0
3, 102528, Note_on_c, 4, 76, 75
3, 102560, Note_off_c, 4, 76, 0
3, 102560, Note_on_c, 4, 73, 73
3, 102592, Note_off_c, 4, 73, 0
3, 102592, Note_on_c, 4, 72, 80
3, 102624, Note_off_c, 4, 72, 0
3, 102624, Note_on_c, 4, 64, 64
3, 102654, Note_off_c, 4, 64, 0
3, 112192, Note_on_c, 4, 86, 33
3, 112256, Note_on_c, 4, 82, 29
3, 112257, Note_off_c, 4, 86, 0
3, 112469, Note_on_c, 4, 80, 40
3, 112473, Note_off_c, 4, 82, 0
3, 112704, Note_on_c, 4, 78, 39
3, 112708, Note_off_c, 4, 80, 0
3, 112886, Note_off_c, 4, 78, 0
3, 112896, Note_on_c, 4, 77, 42
3, 112960, Note_on_c, 4, 75, 40
3, 112961, Note_off_c, 4, 77, 0
3, 113088, Note_on_c, 4, 73, 32
3, 113090, Note_off_c, 4, 75, 0
3, 113152, Note_on_c, 4, 72, 27
3, 113153, Note_off_c, 4, 73, 0
3, 113280, Note_on_c, 4, 70, 34
3, 113282, Note_off_c, 4, 72, 0
3, 113344, Note_on_c, 4, 68, 31
3, 113345, Note_off_c, 4, 70, 0
3, 113472, Note_on_c, 4, 66, 36
3, 113474, Note_off_c, 4, 68, 0
3, 113897, Note_off_c, 4, 66, 0
3, 113920, Note_on_c, 4, 61, 35
3, 113984, Note_on_c, 4, 62, 36
3, 113985, Note_off_c, 4, 61, 0
3, 114112, Note_on_c, 4, 64, 41
3, 114114, Note_off_c, 4, 62, 0
3, 114176, Note_on_c, 4, 72, 47
3, 114177, Note_off_c, 4, 64, 0
3, 114432, Note_on_c, 4, 70, 42
3, 114437, Note_off_c, 4, 72, 0
3, 114675, Note_off_c, 4, 70, 0
3, 114688, Note_on_c, 4, 65, 37
3, 114752, Note_on_c, 4, 66, 42
3, 114753, Note_off_c, 4, 65, 0
3, 114880, Note_on_c, 4, 68, 40
3, 114882, Note_off_c, 4, 66, 0
3, 114944, Note_on_c, 4, 80, 50
3, 114945, Note_off_c, 4, 68, 0
3, 115200, Note_on_c, 4, 74, 35
3, 115205, Note_off_c, 4, 80, 0
3, 115504, Note_off_c, 4, 74, 0
3, 115520, Note_on_c, 4, 69, 29
3, 115584, Note_on_c, 4, 70, 28
3, 115585, Note_off_c, 4, 69, 0
3, 115776, Note_on_c, 4, 72, 42
3, 115779, Note_off_c, 4, 70, 0
3, 115840, Note_on_c, 4, 84, 58
3, 115841, Note_off_c, 4, 72, 0
3, 116032, Note_on_c, 4, 76, 34
3, 116035, Note_off_c, 4, 84, 0
3, 116275, Note_off_c, 4, 76, 0
3, 131840, Note_on_c, 4, 70, 38
3, 131840, Note_on_c, 4, 78, 38
3, 131872, Note_off_c, 4, 70, 0
3, 131872, Note_off_c, 4, 78, 0
3, 132096, Note_on_c, 4, 70, 37
3, 132096, Note_on_c, 4, 78, 37
3, 132352, Note_off_c, 4, 70, 0
3, 132352, Note_off_c, 4, 78, 0
3, 132352, Note_on_c, 4, 70, 38
3, 132352, Note_on_c, 4, 78, 38
3, 132384, Note_off_c, 4, 70, 0
3, 132384, Note_off_c, 4, 78, 0
3, 132608, Note_on_c, 4, 70, 41
3, 132608, Note_on_c, 4, 78, 41
3, 132864, Note_off_c, 4, 70, 0
3, 132864, Note_off_c, 4, 78, 0
3, 133888, Note_on_c, 4, 70, 44
3, 133888, Note_on_c, 4, 78, 44
3, 134144, Note_off_c, 4, 70, 0
3, 134144, Note_off_c, 4, 78, 0
3, 134144, Note_on_c, 4, 70, 39
3, 134144, Note_on_c, 4, 78, 39
3, 134176, Note_off_c, 4, 70, 0
3, 134176, Note_off_c, 4, 78, 0
3, 134400, Note_on_c, 4, 70, 33
3, 134400, Note_on_c, 4, 78, 33
3, 134432, Note_off_c, 4, 70, 0
3, 134432, Note_off_c, 4, 78, 0
3, 134656, Note_on_c, 4, 70, 39
3, 134656, Note_on_c, 4, 78, 39
3, 134912, Note_off_c, 4, 70, 0
3, 134912, Note_off_c, 4, 78, 0
3, 135936, Note_on_c, 4, 70, 42
3, 135936, Note_on_c, 4, 78, 42
3, 136192, Note_off_c, 4, 70, 0
3, 136192, Note_off_c, 4, 78, 0
3, 136192, Note_on_c, 4, 70, 38
3, 136192, Note_on_c, 4, 78, 38
3, 136224, Note_off_c, 4, 70, 0
3, 136224, Note_off_c, 4, 78, 0
3, 136960, Note_on_c, 4, 70, 33
3, 136960, Note_on_c, 4, 78, 33
3, 136992, Note_off_c, 4, 70, 0
3, 136992, Note_off_c, 4, 78, 0
3, 137216, Note_on_c, 4, 70, 35
3, 137216, Note_on_c, 4, 78, 35
3, 137472, Note_off_c, 4, 70, 0
3, 137472, Note_off_c, 4, 78, 0
3, 137472, Note_on_c, 4, 70, 42
3, 137472, Note_on_c, 4, 78, 42
3, 137504, Note_off_c, 4, 70, 0
3, 137504, Note_off_c, 4, 78, 0
3, 137728, Note_on_c, 4, 70, 35
3, 137728, Note_on_c, 4, 78, 35
3, 137984, Note_off_c, 4, 70, 0
3, 137984, Note_off_c, 4, 78, 0
3, 139008, Note_on_c, 4, 70, 39
3, 139008, Note_on_c, 4, 78, 39
3, 139264, Note_off_c, 4, 70, 0
3, 139264, Note_off_c, 4, 78, 0
3, 139264, Note_on_c, 4, 70, 43
3, 139264, Note_on_c, 4, 78, 43
3, 139520, Note_off_c, 4, 70, 0
3, 139520, Note_off_c, 4, 78, 0
3, 139520, Note_on_c, 4, 70, 41
3, 139520, Note_on_c, 4, 78, 41
3, 139552, Note_off_c, 4, 70, 0
3, 139552, Note_off_c, 4, 78, 0
3, 139776, Note_on_c, 4, 70, 35
3, 139776, Note_on_c, 4, 78, 35
3, 140032, Note_off_c, 4, 70, 0
3, 140032, Note_off_c, 4, 78, 0
3, 141056, Note_on_c, 4, 70, 42
3, 141056, Note_on_c, 4, 78, 42
3, 141056, Note_on_c, 4, 69, 75
3, 141120, Note_off_c, 4, 69, 0
3, 141184, Note_on_c, 4, 69, 87
3, 141248, Note_off_c, 4, 69, 0
3, 141312, Note_off_c, 4, 70, 0
3, 141312, Note_off_c, 4, 78, 0
3, 141312, Note_on_c, 4, 69, 39
3, 141312, Note_on_c, 4, 78, 39
3, 141312, Note_on_c, 4, 69, 83
3, 141344, Note_off_c, 4, 69, 0
3, 141344, Note_off_c, 4, 78, 0
3, 141376, Note_off_c, 4, 69, 0
3, 141440, Note_on_c, 4, 69, 82
3, 141504, Note_off_c, 4, 69, 0
3, 141568, Note_on_c, 4, 69, 37
3, 141568, Note_on_c, 4, 78, 37
3, 141568, Note_on_c, 4, 69, 81
3, 141600, Note_off_c, 4, 69, 0
3, 141600, Note_off_c, 4, 78, 0
3, 141632, Note_off_c, 4, 69, 0
3, 141696, Note_on_c, 4, 69, 85
3, 141760, Note_off_c, 4, 69, 0
3, 141824, Note_on_c, 4, 69, 37
3, 141824, Note_on_c, 4, 78, 37
3, 141824, Note_on_c, 4, 69, 80
3, 141856, Note_off_c, 4, 69, 0
3, 141856, Note_off_c, 4, 78, 0
3, 141888, Note_off_c, 4, 69, 0
3, 141952, Note_on_c, 4, 69, 87
3, 142016, Note_off_c, 4, 69, 0
3, 142208, Note_on_c, 4, 69, 76
3, 142272, Note_off_c, 4, 69, 0
3, 142336, Note_on_c, 4, 69, 82
3, 142400, Note_off_c, 4, 69, 0
3, 142464, Note_on_c, 4, 69, 81
3, 142528, Note_off_c, 4, 69, 0
3, 142592, Note_on_c, 4, 69, 35
3, 142592, Note_on_c, 4, 78, 35
3, 142592, Note_on_c, 4, 69, 86
3, 142624, Note_off_c, 4, 69, 0
3, 142624, Note_off_c, 4, 78, 0
3, 142656, Note_off_c, 4, 69, 0
3, 142720, Note_on_c, 4, 69, 80
3, 142784, Note_off_c, 4, 69, 0
3, 142848, Note_on_c, 4, 69, 31
3, 142848, Note_on_c, 4, 78, 31
3, 142848, Note_on_c, 4, 69, 87
3, 142880, Note_off_c, 4, 69, 0
3, 142880, Note_off_c, 4, 78, 0
3, 142912, Note_off_c, 4, 69, 0
3, 143104, Note_on_c, 4, 69, 37
3, 143104, Note_on_c, 4, 78, 37
3, 143104, Note_on_c, 4, 69, 77
3, 143136, Note_off_c, 4, 69, 0
3, 143136, Note_off_c, 4, 78, 0
3, 143168, Note_off_c, 4, 69, 0
3, 143232, Note_on_c, 4, 69, 86
3, 143296, Note_off_c, 4, 69, 0
3, 143360, Note_on_c, 4, 69, 37
3, 143360, Note_on_c, 4, 78, 37
3, 143360, Note_on_c, 4, 69, 83
3, 143392, Note_off_c, 4, 69, 0
3, 143392, Note_off_c, 4, 78, 0
3, 143424, Note_off_c, 4, 69, 0
3, 143488, Note_on_c, 4, 69, 86
3, 143552, Note_off_c, 4, 69, 0
3, 143616, Note_on_c, 4, 69, 36
3, 143616, Note_on_c, 4, 78, 36
3, 143616, Note_on_c, 4, 69, 77
3, 143648, Note_off_c, 4, 69, 0
3, 143648, Note_off_c, 4, 78, 0
3, 143680, Note_off_c, 4, 69, 0
3, 143744, Note_on_c, 4, 69, 85
3, 143808, Note_off_c, 4, 69, 0
3, 143872, Note_on_c, 4, 69, 36
3, 143872, Note_on_c, 4, 78, 36
3, 143872, Note_on_c, 4, 69, 86
3, 143904, Note_off_c, 4, 69, 0
3, 143904, Note_off_c, 4, 78, 0
3, 143936, Note_off_c, 4, 69, 0
3, 144000, Note_on_c, 4, 69, 78
3, 144064, Note_off_c, 4, 69, 0
3, 144256, Note_on_c, 4, 72, 36
3, 144256, Note_on_c, 4, 69, 77
3, 144320, Note_off_c, 4, 69, 0
3, 144320, Note_on_c, 4, 79, 39
3, 144321, Note_off_c, 4, 72, 0
3, 144380, Note_off_c, 4, 79, 0
3, 144384, Note_on_c, 4, 81, 47
3, 144384, Note_on_c, 4, 69, 82
3, 144448, Note_off_c, 4, 69, 0
3, 144512, Note_off_c, 4, 81, 0
3, 144512, Note_on_c, 4, 79, 34
3, 144512, Note_on_c, 4, 69, 85
3, 144544, Note_off_c, 4, 79, 0
3, 144576, Note_off_c, 4, 69, 0
3, 144768, Note_on_c, 4, 72, 38
3, 144768, Note_on_c, 4, 69, 75
3, 144832, Note_off_c, 4, 69, 0
3, 144832, Note_on_c, 4, 79, 42
3, 144833, Note_off_c, 4, 72, 0
3, 144892, Note_off_c, 4, 79, 0
3, 144896, Note_on_c, 4, 81, 50
3, 144896, Note_on_c, 4, 69, 77
3, 144960, Note_off_c, 4, 69, 0
3, 145024, Note_off_c, 4, 81, 0
3, 145024, Note_on_c, 4, 79, 31
3, 145024, Note_on_c, 4, 69, 86
3, 145056, Note_off_c, 4, 79, 0
3, 145088, Note_off_c, 4, 69, 0
3, 145152, Note_on_c, 4, 69, 82
3, 145216, Note_off_c, 4, 69, 0
3, 145280, Note_on_c, 4, 72, 34
3, 145280, Note_on_c, 4, 69, 86
3, 145344, Note_off_c, 4, 69, 0
3, 145344, Note_on_c, 4, 79, 44
3, 145345, Note_off_c, 4, 72, 0
3, 145404, Note_off_c, 4, 79, 0
3, 145408, Note_on_c, 4, 81, 47
3, 145408, Note_on_c, 4, 69, 86
3, 145472, Note_off_c, 4, 69, 0
3, 145536, Note_off_c, 4, 81, 0
3, 145536, Note_on_c, 4, 79, 37
3, 145568, Note_off_c, 4, 79, 0
3, 145664, Note_on_c, 4, 69, 77
3, 145728, Note_off_c, 4, 69, 0
3, 145792, Note_on_c, 4, 72, 36
3, 145792, Note_on_c, 4, 69, 81
3, 145856, Note_off_c, 4, 69, 0
3, 145856, Note_on_c, 4, 79, 41
3, 145857, Note_off_c, 4, 72, 0
3, 145916, Note_off_c, 4, 79, 0
3, 145920, Note_on_c, 4, 81, 42
3, 145920, Note_on_c, 4, 69, 84
3, 145984, Note_off_c, 4, 69, 0
3, 146048, Note_off_c, 4, 81, 0
3, 146048, Note_on_c, 4, 79, 35
3, 146048, Note_on_c, 4, 69, 86
3, 146080, Note_off_c, 4, 79, 0
3, 146112, Note_off_c, 4, 69, 0
3, 146176, Note_on_c, 4, 69, 92
3, 146240, Note_off_c, 4, 69, 0
3, 146304, Note_on_c, 4, 72, 37
3, 146304, Note_on_c, 4, 69, 100
3, 146368, Note_off_c, 4, 69, 0
3, 146368, Note_on_c, 4, 79, 46
3, 146369, Note_off_c, 4, 72, 0
3, 146428, Note_off_c, 4, 79, 0
3, 146432, Note_on_c, 4, 81, 45
3, 146560, Note_off_c, 4, 81, 0
3, 146560, Note_on_c, 4, 79, 36
3, 146592, Note_off_c, 4, 79, 0
3, 146816, Note_on_c, 4, 72, 39
3, 146880, Note_on_c, 4, 79, 47
3, 146881, Note_off_c, 4, 72, 0
3, 146940, Note_off_c, 4, 79, 0
3, 146944, Note_on_c, 4, 81, 46
3, 147072, Note_off_c, 4, 81, 0
3, 147072, Note_on_c, 4, 79, 37
3, 147104, Note_off_c, 4, 79, 0
3, 147328, Note_on_c, 4, 72, 38
3, 147392, Note_on_c, 4, 79, 41
3, 147393, Note_off_c, 4, 72, 0
3, 147452, Note_off_c, 4, 79, 0
3, 147456, Note_on_c, 4, 81, 49
3, 147584, Note_off_c, 4, 81, 0
3, 147584, Note_on_c, 4, 79, 38
3, 147616, Note_off_c, 4, 79, 0
3, 147840, Note_on_c, 4, 72, 35
3, 147904, Note_on_c, 4, 79, 38
3, 147905, Note_off_c, 4, 72, 0
3, 147964, Note_off_c, 4, 79, 0
3, 147968, Note_on_c, 4, 81, 49
3, 148096, Note_off_c, 4, 81, 0
3, 148096, Note_on_c, 4, 79, 41
3, 148128, Note_off_c, 4, 79, 0
3, 148352, Note_on_c, 4, 72, 35
3, 148416, Note_on_c, 4, 79, 44
3, 148417, Note_off_c, 4, 72, 0
3, 148476, Note_off_c, 4, 79, 0
3, 148480, Note_on_c, 4, 81, 46
3, 148608, Note_off_c, 4, 81, 0
3, 148608, Note_on_c, 4, 79, 39
3, 148640, Note_off_c, 4, 79, 0
3, 148864, Note_on_c, 4, 72, 37
3, 148928, Note_on_c, 4, 79, 42
3, 148929, Note_off_c, 4, 72, 0
3, 148988, Note_off_c, 4, 79, 0
3, 148992, Note_on_c, 4, 81, 45
3, 149120, Note_off_c, 4, 81, 0
3, 149120, Note_on_c, 4, 79, 37
3, 149152, Note_off_c, 4, 79, 0
3, 149376, Note_on_c, 4, 72, 37
3, 149440, Note_on_c, 4, 79, 41
3, 149441, Note_off_c, 4, 72, 0
3, 149500, Note_off_c, 4, 79, 0
3, 149504, Note_on_c, 4, 81, 47
3, 149632, Note_off_c, 4, 81, 0
3, 149632, Note_on_c, 4, 79, 38
3, 149664, Note_off_c, 4, 79, 0
3, 150144, Note_on_c, 4, 72, 36
3, 150208, Note_on_c, 4, 79, 40
3, 150209, Note_off_c, 4, 72, 0
3, 150268, Note_off_c, 4, 79, 0
3, 150272, Note_on_c, 4, 81, 46
3, 150400, Note_off_c, 4, 81, 0
3, 150400, Note_on_c, 4, 79, 37
3, 150432, Note_off_c, 4, 79, 0
3, 150912, Note_on_c, 4, 72, 33
3, 150976, Note_on_c, 4, 79, 37
3, 150977, Note_off_c, 4, 72, 0
3, 151036, Note_off_c, 4, 79, 0
3, 151040, Note_on_c, 4, 81, 46
3, 151168, Note_off_c, 4, 81, 0
3, 151168, Note_on_c, 4, 79, 40
3, 151200, Note_off_c, 4, 79, 0
3, 151424, Note_on_c, 4, 81, 42
3, 151552, Note_off_c, 4, 81, 0
3, 151552, Note_on_c, 4, 79, 42
3, 151680, Note_off_c, 4, 79, 0
3, 151680, Note_on_c, 4, 72, 27
3, 151744, Note_on_c, 4, 79, 31
3, 151745, Note_off_c, 4, 72, 0
3, 151804, Note_off_c, 4, 79, 0
3, 151808, Note_on_c, 4, 81, 45
3, 151936, Note_off_c, 4, 81, 0
3, 151936, Note_on_c, 4, 79, 35
3, 151968, Note_off_c, 4, 79, 0
3, 152064, Note_on_c, 4, 81, 39
3, 152192, Note_off_c, 4, 81, 0
3, 152192, Note_on_c, 4, 79, 35
3, 152224, Note_off_c, 4, 79, 0
3, 152448, Note_on_c, 4, 72, 35
3, 152512, Note_on_c, 4, 79, 38
3, 152513, Note_off_c, 4, 72, 0
3, 152572, Note_off_c, 4, 79, 0
3, 152576, Note_on_c, 4, 81, 48
3, 152704, Note_off_c, 4, 81, 0
3, 152704, Note_on_c, 4, 79, 40
3, 152736, Note_off_c, 4, 79, 0
3, 152960, Note_on_c, 4, 72, 35
3, 153024, Note_on_c, 4, 79, 40
3, 153025, Note_off_c, 4, 72, 0
3, 153084, Note_off_c, 4, 79, 0
3, 153088, Note_on_c, 4, 81, 48
3, 153216, Note_off_c, 4, 81, 0
3, 153216, Note_on_c, 4, 79, 37
3, 153248, Note_off_c, 4, 79, 0
3, 153344, Note_on_c, 4, 81, 38
3, 153472, Note_off_c, 4, 81, 0
3, 153472, Note_on_c, 4, 79, 39
3, 153504, Note_off_c, 4, 79, 0
3, 153728, Note_on_c, 4, 72, 33
3, 153792, Note_on_c, 4, 79, 34
3, 153793, Note_off_c, 4, 72, 0
3, 153852, Note_off_c, 4, 79, 0
3, 153856, Note_on_c, 4, 81, 48
3, 153984, Note_off_c, 4, 81, 0
3, 153984, Note_on_c, 4, 79, 34
3, 154016, Note_off_c, 4, 79, 0
3, 154112, Note_on_c, 4, 81, 41
3, 154240, Note_off_c, 4, 81, 0
3, 154240, Note_on_c, 4, 79, 37
3, 154272, Note_off_c, 4, 79, 0
3, 154368, Note_on_c, 4, 81, 37
3, 154496, Note_off_c, 4, 81, 0
3, 154496, Note_on_c, 4, 79, 35
3, 154528, Note_off_c, 4, 79, 0
3, 154624, Note_on_c, 4, 81, 40
3, 154752, Note_off_c, 4, 81, 0
3, 154752, Note_on_c, 4, 79, 39
3, 154784, Note_off_c, 4, 79, 0
3, 155008, Note_on_c, 4, 72, 36
3, 155072, Note_on_c, 4, 79, 41
3, 155073, Note_off_c, 4, 72, 0
3, 155132, Note_off_c, 4, 79, 0
3, 155136, Note_on_c, 4, 81, 48
3, 155264, Note_off_c, 4, 81, 0
3, 155264, Note_on_c, 4, 79, 37
3, 155296, Note_off_c, 4, 79, 0
3, 155904, Note_on_c, 4, 81, 37
3, 156032, Note_off_c, 4, 81, 0
3, 156032, Note_on_c, 4, 79, 37
3, 156064, Note_off_c, 4, 79, 0
3, 156416, Note_on_c, 4, 81, 41
3, 156544, Note_off_c, 4, 81, 0
3, 156544, Note_on_c, 4, 79, 40
3, 156576, Note_off_c, 4, 79, 0
3, 156928, Note_on_c, 4, 81, 35
3, 157056, Note_off_c, 4, 81, 0
3, 157056, Note_on_c, 4, 79, 35
3, 157088, Note_off_c, 4, 79, 0
3, 157440, Note_on_c, 4, 81, 36
3, 157568, Note_off_c, 4, 81, 0
3, 157568, Note_on_c, 4, 79, 34
3, 157600, Note_off_c, 4, 79, 0
3, 166400, Note_on_c, 4, 70, 86
3, 166464, Note_on_c, 4, 74, 92
3, 166465, Note_off_c, 4, 70, 0
3, 166585, Note_off_c, 4, 74, 0
3, 166592, Note_on_c, 4, 77, 107
3, 166656, Note_on_c, 4, 79, 116
3, 166657, Note_off_c, 4, 77, 0
3, 166720, Note_on_c, 4, 77, 93
3, 166721, Note_off_c, 4, 79, 0
3, 166841, Note_off_c, 4, 77, 0
3, 166848, Note_on_c, 4, 74, 93
3, 166912, Note_on_c, 4, 77, 99
3, 166913, Note_off_c, 4, 74, 0
3, 166976, Note_on_c, 4, 74, 88
3, 166977, Note_off_c, 4, 77, 0
3, 167097, Note_off_c, 4, 74, 0
3, 167104, Note_on_c, 4, 65, 73
3, 167168, Note_on_c, 4, 67, 73
3, 167169, Note_off_c, 4, 65, 0
3, 167232, Note_on_c, 4, 70, 104
3, 167233, Note_off_c, 4, 67, 0
3, 167353, Note_off_c, 4, 70, 0
3, 167360, Note_on_c, 4, 74, 108
3, 167424, Note_on_c, 4, 82, 127
3, 167425, Note_off_c, 4, 74, 0
3, 167488, Note_on_c, 4, 77, 90
3, 167489, Note_off_c, 4, 82, 0
3, 167609, Note_off_c, 4, 77, 0
3, 167616, Note_on_c, 4, 74, 86
3, 167680, Note_on_c, 4, 70, 75
3, 167681, Note_off_c, 4, 74, 0
3, 167744, Note_on_c, 4, 67, 89
3, 167745, Note_off_c, 4, 70, 0
3, 167865, Note_off_c, 4, 67, 0
3, 167872, Note_on_c, 4, 70, 102
3, 167936, Note_on_c, 4, 74, 115
3, 167937, Note_off_c, 4, 70, 0
3, 168000, Note_on_c, 4, 77, 111
3, 168001, Note_off_c, 4, 74, 0
3, 168121, Note_off_c, 4, 77, 0
3, 168128, Note_on_c, 4, 74, 92
3, 168192, Note_on_c, 4, 65, 75
3, 168193, Note_off_c, 4, 74, 0
3, 168256, Note_on_c, 4, 67, 98
3, 168257, Note_off_c, 4, 65, 0
3, 168377, Note_off_c, 4, 67, 0
3, 168384, Note_on_c, 4, 70, 108
3, 168448, Note_on_c, 4, 74, 119
3, 168449, Note_off_c, 4, 70, 0
3, 168512, Note_on_c, 4, 78, 110
3, 168513, Note_off_c, 4, 74, 0
3, 168633, Note_off_c, 4, 78, 0
3, 168640, Note_on_c, 4, 79, 105
3, 168704, Note_on_c, 4, 78, 103
3, 168705, Note_off_c, 4, 79, 0
3, 168768, Note_on_c, 4, 74, 87
3, 168769, Note_off_c, 4, 78, 0
3, 168889, Note_off_c, 4, 74, 0
3, 168896, Note_on_c, 4, 71, 87
3, 168960, Note_on_c, 4, 66, 75
3, 168961, Note_off_c, 4, 71, 0
3, 169024, Note_on_c, 4, 67, 97
3, 169025, Note_off_c, 4, 66, 0
3, 169145, Note_off_c, 4, 67, 0
3, 169152, Note_on_c, 4, 69, 100
3, 169216, Note_on_c, 4, 74, 119
3, 169217, Note_off_c, 4, 69, 0
3, 169280, Note_on_c, 4, 78, 112
3, 169281, Note_off_c, 4, 74, 0
3, 169401, Note_off_c, 4, 78, 0
3, 169408, Note_on_c, 4, 74, 91
3, 169472, Note_on_c, 4, 78, 104
3, 169473, Note_off_c, 4, 74, 0
3, 169536, Note_on_c, 4, 79, 101
3, 169537, Note_off_c, 4, 78, 0
3, 169657, Note_off_c, 4, 79, 0
3, 169664, Note_on_c, 4, 78, 99
3, 169728, Note_on_c, 4, 74, 91
3, 169729, Note_off_c, 4, 78, 0
3, 169792, Note_on_c, 4, 71, 85
3, 169793, Note_off_c, 4, 74, 0
3, 169913, Note_off_c, 4, 71, 0
3, 169920, Note_on_c, 4, 66, 84
3, 170048, Note_on_c, 4, 74, 98
3, 170050, Note_off_c, 4, 66, 0
3, 170169, Note_off_c, 4, 74, 0
3, 170176, Note_on_c, 4, 70, 94
3, 170240, Note_on_c, 4, 74, 106
3, 170241, Note_off_c, 4, 70, 0
3, 170304, Note_on_c, 4, 82, 119
3, 170305, Note_off_c, 4, 74, 0
3, 170425, Note_off_c, 4, 82, 0
3, 170432, Note_on_c, 4, 77, 91
3, 170496, Note_on_c, 4, 74, 84
3, 170497, Note_off_c, 4, 77, 0
3, 170560, Note_on_c, 4, 70, 86
3, 170561, Note_off_c, 4, 74, 0
3, 170681, Note_off_c, 4, 70, 0
3, 170688, Note_on_c, 4, 67, 85
3, 170752, Note_on_c, 4, 70, 94
3, 170753, Note_off_c, 4, 67, 0
3, 170816, Note_on_c, 4, 74, 107
3, 170817, Note_off_c, 4, 70, 0
3, 170937, Note_off_c, 4, 74, 0
3, 170944, Note_on_c, 4, 77, 105
3, 171008, Note_on_c, 4, 74, 99
3, 171009, Note_off_c, 4, 77, 0
3, 171072, Note_on_c, 4, 65, 77
3, 171073, Note_off_c, 4, 74, 0
3, 171193, Note_off_c, 4, 65, 0
3, 171200, Note_on_c, 4, 67, 95
3, 171264, Note_on_c, 4, 65, 88
3, 171265, Note_off_c, 4, 67, 0
3, 171328, Note_on_c, 4, 67, 106
3, 171329, Note_off_c, 4, 65, 0
3, 171449, Note_off_c, 4, 67, 0
3, 171456, Note_on_c, 4, 70, 112
3, 171520, Note_on_c, 4, 74, 127
3, 171521, Note_off_c, 4, 70, 0
3, 171584, Note_on_c, 4, 65, 79
3, 171585, Note_off_c, 4, 74, 0
3, 171705, Note_off_c, 4, 65, 0
3, 171712, Note_on_c, 4, 67, 101
3, 171776, Note_on_c, 4, 65, 96
3, 171777, Note_off_c, 4, 67, 0
3, 171840, Note_on_c, 4, 67, 103
3, 171841, Note_off_c, 4, 65, 0
3, 171961, Note_off_c, 4, 67, 0
3, 171968, Note_on_c, 4, 70, 109
3, 172032, Note_on_c, 4, 74, 121
3, 172033, Note_off_c, 4, 70, 0
3, 172096, Note_on_c, 4, 65, 76
3, 172097, Note_off_c, 4, 74, 0
3, 172217, Note_off_c, 4, 65, 0
3, 172224, Note_on_c, 4, 67, 96
3, 172288, Note_on_c, 4, 65, 92
3, 172289, Note_off_c, 4, 67, 0
3, 172352, Note_on_c, 4, 67, 103
3, 172353, Note_off_c, 4, 65, 0
3, 172473, Note_off_c, 4, 67, 0
3, 172480, Note_on_c, 4, 70, 108
3, 172544, Note_on_c, 4, 74, 122
3, 172545, Note_off_c, 4, 70, 0
3, 172608, Note_on_c, 4, 65, 80
3, 172609, Note_off_c, 4, 74, 0
3, 172729, Note_off_c, 4, 65, 0
3, 172736, Note_on_c, 4, 67, 101
3, 172800, Note_on_c, 4, 65, 95
3, 172801, Note_off_c, 4, 67, 0
3, 172864, Note_on_c, 4, 67, 110
3, 172865, Note_off_c, 4, 65, 0
3, 172985, Note_off_c, 4, 67, 0
3, 172992, Note_on_c, 4, 70, 107
3, 173056, Note_on_c, 4, 74, 119
3, 173057, Note_off_c, 4, 70, 0
3, 173120, Note_on_c, 4, 65, 78
3, 173121, Note_off_c, 4, 74, 0
3, 173241, Note_off_c, 4, 65, 0
3, 173248, Note_on_c, 4, 67, 104
3, 173312, Note_on_c, 4, 74, 123
3, 173313, Note_off_c, 4, 67, 0
3, 173376, Note_on_c, 4, 67, 79
3, 173377, Note_off_c, 4, 74, 0
3, 173497, Note_off_c, 4, 67, 0
3, 173504, Note_on_c, 4, 70, 108
3, 173568, Note_on_c, 4, 74, 122
3, 173569, Note_off_c, 4, 70, 0
3, 173632, Note_on_c, 4, 65, 76
3, 173633, Note_off_c, 4, 74, 0
3, 173753, Note_off_c, 4, 65, 0
3, 173760, Note_on_c, 4, 67, 102
3, 173824, Note_on_c, 4, 74, 122
3, 173825, Note_off_c, 4, 67, 0
3, 173888, Note_on_c, 4, 67, 83
3, 173889, Note_off_c, 4, 74, 0
3, 174009, Note_off_c, 4, 67, 0
3, 174016, Note_on_c, 4, 70, 102
3, 174080, Note_on_c, 4, 74, 113
3, 174081, Note_off_c, 4, 70, 0
3, 174144, Note_on_c, 4, 65, 80
3, 174145, Note_off_c, 4, 74, 0
3, 174265, Note_off_c, 4, 65, 0
3, 174272, Note_on_c, 4, 67, 100
3, 174336, Note_on_c, 4, 74, 120
3, 174337, Note_off_c, 4, 67, 0
3, 174400, Note_on_c, 4, 67, 83
3, 174401, Note_off_c, 4, 74, 0
3, 174521, Note_off_c, 4, 67, 0
3, 174528, Note_on_c, 4, 70, 105
3, 174592, Note_on_c, 4, 74, 117
3, 174593, Note_off_c, 4, 70, 0
3, 174656, Note_on_c, 4, 65, 77
3, 174657, Note_off_c, 4, 74, 0
3, 174777, Note_off_c, 4, 65, 0
3, 174784, Note_on_c, 4, 67, 97
3, 174848, Note_on_c, 4, 74, 115
3, 174849, Note_off_c, 4, 67, 0
3, 174912, Note_on_c, 4, 67, 84
3, 174913, Note_off_c, 4, 74, 0
3, 175033, Note_off_c, 4, 67, 0
3, 175040, Note_on_c, 4, 70, 103
3, 175104, Note_on_c, 4, 74, 113
3, 175105, Note_off_c, 4, 70, 0
3, 175168, Note_on_c, 4, 65, 80
3, 175169, Note_off_c, 4, 74, 0
3, 175289, Note_off_c, 4, 65, 0
3, 175296, Note_on_c, 4, 67, 102
3, 175360, Note_on_c, 4, 74, 121
3, 175361, Note_off_c, 4, 67, 0
3, 175424, Note_on_c, 4, 67, 86
3, 175425, Note_off_c, 4, 74, 0
3, 175545, Note_off_c, 4, 67, 0
3, 175552, Note_on_c, 4, 70, 102
3, 175616, Note_on_c, 4, 74, 110
3, 175617, Note_off_c, 4, 70, 0
3, 175680, Note_on_c, 4, 65, 80
3, 175681, Note_off_c, 4, 74, 0
3, 175801, Note_off_c, 4, 65, 0
3, 175808, Note_on_c, 4, 67, 103
3, 175872, Note_on_c, 4, 74, 123
3, 175873, Note_off_c, 4, 67, 0
3, 175936, Note_on_c, 4, 67, 85
3, 175937, Note_off_c, 4, 74, 0
3, 176057, Note_off_c, 4, 67, 0
3, 176064, Note_on_c, 4, 70, 104
3, 176128, Note_off_c, 4, 70, 0
3, 184320, Note_on_c, 4, 67, 73
3, 184320, Note_on_c, 4, 71, 73
3, 184320, Note_on_c, 4, 72, 73
3, 184371, Note_off_c, 4, 67, 0
3, 184371, Note_off_c, 4, 71, 0
3, 184371, Note_off_c, 4, 72, 0
3, 184661, Note_on_c, 4, 67, 72
3, 184661, Note_on_c, 4, 71, 72
3, 184661, Note_on_c, 4, 72, 72
3, 184712, Note_off_c, 4, 67, 0
3, 184712, Note_off_c, 4, 71, 0
3, 184712, Note_off_c, 4, 72, 0
3, 185002, Note_on_c, 4, 67, 76
3, 185002, Note_on_c, 4, 71, 76
3, 185002, Note_on_c, 4, 72, 76
3, 185053, Note_off_c, 4, 67, 0
3, 185053, Note_off_c, 4, 71, 0
3, 185053, Note_off_c, 4, 72, 0
3, 185344, Note_on_c, 4, 67, 75
3, 185344, Note_on_c, 4, 71, 75
3, 185344, Note_on_c, 4, 72, 75
3, 185395, Note_off_c, 4, 67, 0
3, 185395, Note_off_c, 4, 71, 0
3, 185395, Note_off_c, 4, 72, 0
3, 185685, Note_on_c, 4, 67, 76
3, 185685, Note_on_c, 4, 71, 76
3, 185685, Note_on_c, 4, 72, 76
3, 185736, Note_off_c, 4, 67, 0
3, 185736, Note_off_c, 4, 71, 0
3, 185736, Note_off_c, 4, 72, 0
3, 186026, Note_on_c, 4, 67, 73
3, 186026, Note_on_c, 4, 71, 73
3, 186026, Note_on_c, 4, 72, 73
3, 186077, Note_off_c, 4, 67, 0
3, 186077, Note_off_c, 4, 71, 0
3, 186077, Note_off_c, 4, 72, 0
3, 186368, Note_on_c, 4, 67, 75
3, 186368, Note_on_c, 4, 71, 75
3, 186368, Note_on_c, 4, 72, 75
3, 186419, Note_off_c, 4, 67, 0
3, 186419, Note_off_c, 4, 71, 0
3, 186419, Note_off_c, 4, 72, 0
3, 186709, Note_on_c, 4, 67, 73
3, 186709, Note_on_c, 4, 71, 73
3, 186709, Note_on_c, 4, 72, 73
3, 186760, Note_off_c, 4, 67, 0
3, 186760, Note_off_c, 4, 71, 0
3, 186760, Note_off_c, 4, 72, 0
3, 187050, Note_on_c, 4, 67, 78
3, 187050, Note_on_c, 4, 71, 78
3, 187050, Note_on_c, 4, 72, 78
3, 187101, Note_off_c, 4, 67, 0
3, 187101, Note_off_c, 4, 71, 0
3, 187101, Note_off_c, 4, 72, 0
3, 187392, Note_on_c, 4, 67, 77
3, 187392, Note_on_c, 4, 71, 77
3, 187392, Note_on_c, 4, 72, 77
3, 187443, Note_off_c, 4, 67, 0
3, 187443, Note_off_c, 4, 71, 0
3, 187443, Note_off_c, 4, 72, 0
3, 187733, Note_on_c, 4, 67, 72
3, 187733, Note_on_c, 4, 71, 72
3, 187733, Note_on_c, 4, 72, 72
3, 187784, Note_off_c, 4, 67, 0
3, 187784, Note_off_c, 4, 71, 0
3, 187784, Note_off_c, 4, 72, 0
3, 188074, Note_on_c, 4, 67, 72
3, 188074, Note_on_c, 4, 71, 72
3, 188074, Note_on_c, 4, 72, 72
3, 188125, Note_off_c, 4, 67, 0
3, 188125, Note_off_c, 4, 71, 0
3, 188125, Note_off_c, 4, 72, 0
3, 188416, Note_on_c, 4, 67, 77
3, 188416, Note_on_c, 4, 71, 77
3, 188416, Note_on_c, 4, 72, 77
3, 188467, Note_off_c, 4, 67, 0
3, 188467, Note_off_c, 4, 71, 0
3, 188467, Note_off_c, 4, 72, 0
3, 188757, Note_on_c, 4, 67, 79
3, 188757, Note_on_c, 4, 71, 79
3, 188757, Note_on_c, 4, 72, 79
3, 188808, Note_off_c, 4, 67, 0
3, 188808, Note_off_c, 4, 71, 0
3, 188808, Note_off_c, 4, 72, 0
3, 189098, Note_on_c, 4, 67, 72
3, 189098, Note_on_c, 4, 71, 72
3, 189098, Note_on_c, 4, 72, 72
3, 189149, Note_off_c, 4, 67, 0
3, 189149, Note_off_c, 4, 71, 0
3, 189149, Note_off_c, 4, 72, 0
3, 189440, Note_on_c, 4, 77, 62
3, 189440, Note_on_c, 4, 79, 62
3, 189525, Note_on_c, 4, 67, 49
3, 189525, Note_on_c, 4, 71, 49
3, 189526, Note_off_c, 4, 77, 0
3, 189526, Note_off_c, 4, 79, 0
3, 189610, Note_on_c, 4, 77, 76
3, 189610, Note_on_c, 4, 79, 76
3, 189611, Note_off_c, 4, 67, 0
3, 189611, Note_off_c, 4, 71, 0
3, 189696, Note_on_c, 4, 67, 67
3, 189696, Note_on_c, 4, 71, 67
3, 189697, Note_off_c, 4, 77, 0
3, 189697, Note_off_c, 4, 79, 0
3, 189776, Note_off_c, 4, 67, 0
3, 189776, Note_off_c, 4, 71, 0
3, 189781, Note_on_c, 4, 77, 80
3, 189866, Note_on_c, 4, 71, 70
3, 189867, Note_off_c, 4, 77, 0
3, 189952, Note_on_c, 4, 77, 80
3, 189952, Note_on_c, 4, 79, 80
3, 189953, Note_off_c, 4, 71, 0
3, 190037, Note_on_c, 4, 67, 67
3, 190037, Note_on_c, 4, 70, 67
3, 190038, Note_off_c, 4, 77, 0
3, 190038, Note_off_c, 4, 79, 0
3, 190122, Note_on_c, 4, 77, 84
3, 190122, Note_on_c, 4, 79, 84
3, 190123, Note_off_c, 4, 67, 0
3, 190123, Note_off_c, 4, 70, 0
3, 190208, Note_on_c, 4, 67, 72
3, 190208, Note_on_c, 4, 70, 72
3, 190209, Note_off_c, 4, 77, 0
3, 190209, Note_off_c, 4, 79, 0
3, 190288, Note_off_c, 4, 67, 0
3, 190288, Note_off_c, 4, 70, 0
3, 190293, Note_on_c, 4, 77, 79
3, 190378, Note_off_c, 4, 77, 0
3, 190378, Note_on_c, 4, 70, 79
3, 190378, Note_on_c, 4, 77, 79
3, 190378, Note_on_c, 4, 79, 79
3, 190464, Note_off_c, 4, 70, 0
3, 190464, Note_off_c, 4, 77, 0
3, 190464, Note_on_c, 4, 67, 79
3, 190464, Note_on_c, 4, 70, 79
3, 190464, Note_on_c, 4, 77, 79
3, 190465, Note_off_c, 4, 79, 0
3, 190549, Note_off_c, 4, 77, 0
3, 190549, Note_on_c, 4, 77, 74
3, 190549, Note_on_c, 4, 79, 74
3, 190550, Note_off_c, 4, 67, 0
3, 190550, Note_off_c, 4, 70, 0
3, 190629, Note_off_c, 4, 77, 0
3, 190629, Note_off_c, 4, 79, 0
3, 190634, Note_on_c, 4, 70, 52
3, 190720, Note_on_c, 4, 77, 57
3, 190721, Note_off_c, 4, 70, 0
3, 190805, Note_on_c, 4, 67, 63
3, 190805, Note_on_c, 4, 70, 63
3, 190806, Note_off_c, 4, 77, 0
3, 190890, Note_on_c, 4, 77, 76
3, 190890, Note_on_c, 4, 79, 76
3, 190891, Note_off_c, 4, 67, 0
3, 190891, Note_off_c, 4, 70, 0
3, 190976, Note_on_c, 4, 67, 56
3, 190976, Note_on_c, 4, 70, 56
3, 190977, Note_off_c, 4, 77, 0
3, 190977, Note_off_c, 4, 79, 0
3, 191061, Note_on_c, 4, 77, 73
3, 191061, Note_on_c, 4, 79, 73
3, 191062, Note_off_c, 4, 67, 0
3, 191062, Note_off_c, 4, 70, 0
3, 191146, Note_on_c, 4, 67, 57
3, 191146, Note_on_c, 4, 70, 57
3, 191147, Note_off_c, 4, 77, 0
3, 191147, Note_off_c, 4, 79, 0
3, 191232, Note_on_c, 4, 77, 67
3, 191233, Note_off_c, 4, 67, 0
3, 191233, Note_off_c, 4, 70, 0
3, 191317, Note_on_c, 4, 70, 60
3, 191318, Note_off_c, 4, 77, 0
3, 191402, Note_on_c, 4, 77, 72
3, 191402, Note_on_c, 4, 79, 72
3, 191403, Note_off_c, 4, 70, 0
3, 191488, Note_on_c, 4, 67, 59
3, 191488, Note_on_c, 4, 70, 59
3, 191489, Note_off_c, 4, 77, 0
3, 191489, Note_off_c, 4, 79, 0
3, 191568, Note_off_c, 4, 67, 0
3, 191568, Note_off_c, 4, 70, 0
3, 191744, Note_on_c, 4, 77, 68
3, 191744, Note_on_c, 4, 79, 68
3, 191829, Note_on_c, 4, 67, 50
3, 191829, Note_on_c, 4, 70, 50
3, 191830, Note_off_c, 4, 77, 0
3, 191830, Note_off_c, 4, 79, 0
3, 191914, Note_on_c, 4, 77, 79
3, 191914, Note_on_c, 4, 79, 79
3, 191915, Note_off_c, 4, 67, 0
3, 191915, Note_off_c, 4, 70, 0
3, 192000, Note_on_c, 4, 67, 58
3, 192000, Note_on_c, 4, 70, 58
3, 192001, Note_off_c, 4, 77, 0
3, 192001, Note_off_c, 4, 79, 0
3, 192085, Note_on_c, 4, 77, 84
3, 192085, Note_on_c, 4, 79, 84
3, 192086, Note_off_c, 4, 67, 0
3, 192086, Note_off_c, 4, 70, 0
3, 192170, Note_on_c, 4, 67, 68
3, 192170, Note_on_c, 4, 70, 68
3, 192171, Note_off_c, 4, 77, 0
3, 192171, Note_off_c, 4, 79, 0
3, 192256, Note_on_c, 4, 77, 83
3, 192257, Note_off_c, 4, 67, 0
3, 192257, Note_off_c, 4, 70, 0
3, 192341, Note_on_c, 4, 70, 67
3, 192342, Note_off_c, 4, 77, 0
3, 192426, Note_on_c, 4, 77, 88
3, 192426, Note_on_c, 4, 79, 88
3, 192427, Note_off_c, 4, 70, 0
3, 192512, Note_on_c, 4, 67, 72
3, 192512, Note_on_c, 4, 70, 72
3, 192513, Note_off_c, 4, 77, 0
3, 192513, Note_off_c, 4, 79, 0
3, 192597, Note_on_c, 4, 77, 87
3, 192597, Note_on_c, 4, 79, 87
3, 192598, Note_off_c, 4, 67, 0
3, 192598, Note_off_c, 4, 70, 0
3, 192682, Note_on_c, 4, 67, 72
3, 192682, Note_on_c, 4, 70, 72
3, 192683, Note_off_c, 4, 77, 0
3, 192683, Note_off_c, 4, 79, 0
3, 192763, Note_off_c, 4, 67, 0
3, 192763, Note_off_c, 4, 70, 0
3, 192768, Note_on_c, 4, 77, 80
3, 192853, Note_on_c, 4, 70, 66
3, 192854, Note_off_c, 4, 77, 0
3, 192938, Note_on_c, 4, 77, 79
3, 192939, Note_off_c, 4, 70, 0
3, 193024, Note_off_c, 4, 77, 0
3, 193024, Note_on_c, 4, 70, 78
3, 193024, Note_on_c, 4, 77, 78
3, 193024, Note_on_c, 4, 79, 78
3, 193109, Note_off_c, 4, 70, 0
3, 193109, Note_on_c, 4, 67, 60
3, 193109, Note_on_c, 4, 70, 60
3, 193110, Note_off_c, 4, 77, 0
3, 193110, Note_off_c, 4, 79, 0
3, 193194, Note_on_c, 4, 77, 82
3, 193194, Note_on_c, 4, 79, 82
3, 193195, Note_off_c, 4, 67, 0
3, 193195, Note_off_c, 4, 70, 0
3, 193280, Note_on_c, 4, 67, 67
3, 193280, Note_on_c, 4, 70, 67
3, 193281, Note_off_c, 4, 77, 0
3, 193281, Note_off_c, 4, 79, 0
3, 193360, Note_off_c, 4, 67, 0
3, 193360, Note_off_c, 4, 70, 0
3, 193365, Note_on_c, 4, 77, 85
3, 193450, Note_on_c, 4, 70, 75
3, 193451, Note_off_c, 4, 77, 0
3, 193536, Note_on_c, 4, 77, 86
3, 193536, Note_on_c, 4, 79, 86
3, 193537, Note_off_c, 4, 70, 0
3, 193621, Note_on_c, 4, 67, 71
3, 193621, Note_on_c, 4, 70, 71
3, 193622, Note_off_c, 4, 77, 0
3, 193622, Note_off_c, 4, 79, 0
3, 193706, Note_on_c, 4, 77, 88
3, 193706, Note_on_c, 4, 79, 88
3, 193707, Note_off_c, 4, 67, 0
3, 193707, Note_off_c, 4, 70, 0
3, 193792, Note_on_c, 4, 67, 67
3, 193792, Note_on_c, 4, 70, 67
3, 193793, Note_off_c, 4, 77, 0
3, 193793, Note_off_c, 4, 79, 0
3, 193877, Note_on_c, 4, 77, 85
3, 193877, Note_on_c, 4, 79, 85
3, 193878, Note_off_c, 4, 67, 0
3, 193878, Note_off_c, 4, 70, 0
3, 193962, Note_on_c, 4, 70, 70
3, 193963, Note_off_c, 4, 77, 0
3, 193963, Note_off_c, 4, 79, 0
3, 194048, Note_off_c, 4, 70, 0
3, 194048, Note_on_c, 4, 67, 82
3, 194048, Note_on_c, 4, 70, 82
3, 194048, Note_on_c, 4, 77, 82
3, 194133, Note_off_c, 4, 77, 0
3, 194133, Note_on_c, 4, 77, 91
3, 194133, Note_on_c, 4, 79, 91
3, 194134, Note_off_c, 4, 67, 0
3, 194134, Note_off_c, 4, 70, 0
3, 194218, Note_on_c, 4, 67, 57
3, 194218, Note_on_c, 4, 70, 57
3, 194219, Note_off_c, 4, 77, 0
3, 194219, Note_off_c, 4, 79, 0
3, 194304, Note_on_c, 4, 77, 61
3, 194305, Note_off_c, 4, 67, 0
3, 194305, Note_off_c, 4, 70, 0
3, 194389, Note_on_c, 4, 70, 57
3, 194390, Note_off_c, 4, 77, 0
3, 194474, Note_on_c, 4, 77, 64
3, 194475, Note_off_c, 4, 70, 0
3, 194560, Note_off_c, 4, 77, 0
3, 194560, Note_on_c, 4, 70, 76
3, 194560, Note_on_c, 4, 77, 76
3, 194560, Note_on_c, 4, 79, 76
3, 194645, Note_off_c, 4, 70, 0
3, 194645, Note_on_c, 4, 67, 59
3, 194645, Note_on_c, 4, 70, 59
3, 194646, Note_off_c, 4, 77, 0
3, 194646, Note_off_c, 4, 79, 0
3, 194730, Note_on_c, 4, 77, 84
3, 194730, Note_on_c, 4, 79, 84
3, 194731, Note_off_c, 4, 67, 0
3, 194731, Note_off_c, 4, 70, 0
3, 194816, Note_off_c, 4, 79, 0
3, 194816, Note_on_c, 4, 67, 80
3, 194816, Note_on_c, 4, 70, 80
3, 194816, Note_on_c, 4, 79, 80
3, 194817, Note_off_c, 4, 77, 0
3, 194901, Note_off_c, 4, 70, 0
3, 194901, Note_off_c, 4, 79, 0
3, 194901, Note_on_c, 4, 70, 68
3, 194901, Note_on_c, 4, 77, 68
3, 194901, Note_on_c, 4, 79, 68
3, 194902, Note_off_c, 4, 67, 0
3, 194986, Note_off_c, 4, 70, 0
3, 194986, Note_off_c, 4, 79, 0
3, 194986, Note_on_c, 4, 67, 67
3, 194986, Note_on_c, 4, 70, 67
3, 194986, Note_on_c, 4, 79, 67
3, 194987, Note_off_c, 4, 77, 0
3, 195072, Note_off_c, 4, 70, 0
3, 195072, Note_off_c, 4, 79, 0
3, 195072, Note_on_c, 4, 70, 68
3, 195072, Note_on_c, 4, 77, 68
3, 195072, Note_on_c, 4, 79, 68
3, 195073, Note_off_c, 4, 67, 0
3, 195157, Note_off_c, 4, 70, 0
3, 195157, Note_off_c, 4, 79, 0
3, 195157, Note_on_c, 4, 67, 68
3, 195157, Note_on_c, 4, 70, 68
3, 195157, Note_on_c, 4, 79, 68
3, 195158, Note_off_c, 4, 77, 0
3, 195242, Note_off_c, 4, 70, 0
3, 195242, Note_off_c, 4, 79, 0
3, 195242, Note_on_c, 4, 70, 71
3, 195242, Note_on_c, 4, 77, 71
3, 195242, Note_on_c, 4, 79, 71
3, 195243, Note_off_c, 4, 67, 0
3, 195328, Note_off_c, 4, 70, 0
3, 195328, Note_off_c, 4, 79, 0
3, 195328, Note_on_c, 4, 67, 70
3, 195328, Note_on_c, 4, 70, 70
3, 195328, Note_on_c, 4, 79, 70
3, 195329, Note_off_c, 4, 77, 0
3, 195413, Note_off_c, 4, 70, 0
3, 195413, Note_off_c, 4, 79, 0
3, 195413, Note_on_c, 4, 70, 72
3, 195413, Note_on_c, 4, 77, 72
3, 195413, Note_on_c, 4, 79, 72
3, 195414, Note_off_c, 4, 67, 0
3, 195498, Note_off_c, 4, 70, 0
3, 195498, Note_off_c, 4, 79, 0
3, 195498, Note_on_c, 4, 67, 74
3, 195498, Note_on_c, 4, 70, 74
3, 195498, Note_on_c, 4, 79, 74
3, 195499, Note_off_c, 4, 77, 0
3, 195584, Note_off_c, 4, 70, 0
3, 195584, Note_off_c, 4, 79, 0
3, 195584, Note_on_c, 4, 70, 69
3, 195584, Note_on_c, 4, 77, 69
3, 195584, Note_on_c, 4, 79, 69
3, 195585, Note_off_c, 4, 67, 0
3, 195669, Note_off_c, 4, 70, 0
3, 195669, Note_off_c, 4, 79, 0
3, 195669, Note_on_c, 4, 67, 67
3, 195669, Note_on_c, 4, 70, 67
3, 195669, Note_on_c, 4, 79, 67
3, 195670, Note_off_c, 4, 77, 0
3, 195754, Note_off_c, 4, 70, 0
3, 195754, Note_on_c, 4, 70, 52
3, 195755, Note_off_c, 4, 67, 0
3, 195755, Note_off_c, 4, 79, 0
3, 195840, Note_on_c, 4, 79, 66
3, 195841, Note_off_c, 4, 70, 0
3, 195925, Note_off_c, 4, 79, 0
3, 195925, Note_on_c, 4, 70, 77
3, 195925, Note_on_c, 4, 77, 77
3, 195925, Note_on_c, 4, 79, 77
3, 196010, Note_off_c, 4, 70, 0
3, 196010, Note_off_c, 4, 79, 0
3, 196010, Note_on_c, 4, 67, 78
3, 196010, Note_on_c, 4, 70, 78
3, 196010, Note_on_c, 4, 79, 78
3, 196011, Note_off_c, 4, 77, 0
3, 196096, Note_off_c, 4, 79, 0
3, 196096, Note_on_c, 4, 77, 70
3, 196096, Note_on_c, 4, 79, 70
3, 196097, Note_off_c, 4, 67, 0
3, 196097, Note_off_c, 4, 70, 0
3, 196181, Note_on_c, 4, 67, 52
3, 196181, Note_on_c, 4, 70, 52
3, 196182, Note_off_c, 4, 77, 0
3, 196182, Note_off_c, 4, 79, 0
3, 196266, Note_off_c, 4, 70, 0
3, 196266, Note_on_c, 4, 70, 84
3, 196266, Note_on_c, 4, 77, 84
3, 196266, Note_on_c, 4, 79, 84
3, 196267, Note_off_c, 4, 67, 0
3, 196352, Note_off_c, 4, 70, 0
3, 196352, Note_off_c, 4, 79, 0
3, 196352, Note_on_c, 4, 67, 93
3, 196352, Note_on_c, 4, 70, 93
3, 196352, Note_on_c, 4, 79, 93
3, 196353, Note_off_c, 4, 77, 0
3, 196437, Note_off_c, 4, 70, 0
3, 196437, Note_off_c, 4, 79, 0
3, 196437, Note_on_c, 4, 70, 74
3, 196437, Note_on_c, 4, 77, 74
3, 196437, Note_on_c, 4, 79, 74
3, 196438, Note_off_c, 4, 67, 0
3, 196522, Note_off_c, 4, 70, 0
3, 196522, Note_off_c, 4, 79, 0
3, 196522, Note_on_c, 4, 67, 74
3, 196522, Note_on_c, 4, 70, 74
3, 196522, Note_on_c, 4, 79, 74
3, 196523, Note_off_c, 4, 77, 0
3, 196608, Note_off_c, 4, 70, 0
3, 196608, Note_off_c, 4, 79, 0
3, 196608, Note_on_c, 4, 70, 76
3, 196608, Note_on_c, 4, 79, 76
3, 196608, Note_on_c, 4, 81, 76
3, 196609, Note_off_c, 4, 67, 0
3, 196693, Note_off_c, 4, 70, 0
3, 196693, Note_off_c, 4, 79, 0
3, 196693, Note_on_c, 4, 69, 71
3, 196693, Note_on_c, 4, 70, 71
3, 196693, Note_on_c, 4, 79, 71
3, 196694, Note_off_c, 4, 81, 0
3, 196778, Note_off_c, 4, 79, 0
3, 196778, Note_on_c, 4, 79, 76
3, 196778, Note_on_c, 4, 81, 76
3, 196779, Note_off_c, 4, 69, 0
3, 196779, Note_off_c, 4, 70, 0
3, 196864, Note_on_c, 4, 69, 68
3, 196864, Note_on_c, 4, 70, 68
3, 196864, Note_on_c, 4, 77, 68
3, 196865, Note_off_c, 4, 79, 0
3, 196865, Note_off_c, 4, 81, 0
3, 196949, Note_off_c, 4, 70, 0
3, 196949, Note_on_c, 4, 70, 82
3, 196949, Note_on_c, 4, 79, 82
3, 196949, Note_on_c, 4, 81, 82
3, 196950, Note_off_c, 4, 69, 0
3, 196950, Note_off_c, 4, 77, 0
3, 197034, Note_off_c, 4, 70, 0
3, 197034, Note_on_c, 4, 69, 74
3, 197034, Note_on_c, 4, 70, 74
3, 197034, Note_on_c, 4, 77, 74
3, 197035, Note_off_c, 4, 79, 0
3, 197035, Note_off_c, 4, 81, 0
3, 197120, Note_off_c, 4, 70, 0
3, 197120, Note_on_c, 4, 70, 80
3, 197120, Note_on_c, 4, 79, 80
3, 197120, Note_on_c, 4, 81, 80
3, 197121, Note_off_c, 4, 69, 0
3, 197121, Note_off_c, 4, 77, 0
3, 197205, Note_off_c, 4, 70, 0
3, 197205, Note_on_c, 4, 69, 74
3, 197205, Note_on_c, 4, 70, 74
3, 197205, Note_on_c, 4, 77, 74
3, 197206, Note_off_c, 4, 79, 0
3, 197206, Note_off_c, 4, 81, 0
3, 197290, Note_off_c, 4, 70, 0
3, 197290, Note_on_c, 4, 70, 77
3, 197290, Note_on_c, 4, 79, 77
3, 197290, Note_on_c, 4, 81, 77
3, 197291, Note_off_c, 4, 69, 0
3, 197291, Note_off_c, 4, 77, 0
3, 197376, Note_off_c, 4, 70, 0
3, 197376, Note_off_c, 4, 81, 0
3, 197376, Note_on_c, 4, 69, 74
3, 197376, Note_on_c, 4, 70, 74
3, 197376, Note_on_c, 4, 81, 74
3, 197377, Note_off_c, 4, 79, 0
3, 197461, Note_off_c, 4, 70, 0
3, 197461, Note_off_c, 4, 81, 0
3, 197461, Note_on_c, 4, 70, 71
3, 197461, Note_on_c, 4, 79, 71
3, 197461, Note_on_c, 4, 81, 71
3, 197462, Note_off_c, 4, 69, 0
3, 197546, Note_off_c, 4, 70, 0
3, 197546, Note_off_c, 4, 81, 0
3, 197546, Note_on_c, 4, 69, 69
3, 197546, Note_on_c, 4, 70, 69
3, 197546, Note_on_c, 4, 81, 69
3, 197547, Note_off_c, 4, 79, 0
3, 197632, Note_off_c, 4, 70, 0
3, 197632, Note_off_c, 4, 81, 0
3, 197632, Note_on_c, 4, 70, 73
3, 197632, Note_on_c, 4, 79, 73
3, 197632, Note_on_c, 4, 81, 73
3, 197633, Note_off_c, 4, 69, 0
3, 197717, Note_off_c, 4, 81, 0
3, 197717, Note_on_c, 4, 81, 72
3, 197718, Note_off_c, 4, 70, 0
3, 197718, Note_off_c, 4, 79, 0
3, 197802, Note_on_c, 4, 70, 56
3, 197803, Note_off_c, 4, 81, 0
3, 197888, Note_off_c, 4, 70, 0
3, 197888, Note_on_c, 4, 69, 82
3, 197888, Note_on_c, 4, 70, 82
3, 197888, Note_on_c, 4, 81, 82
3, 197973, Note_off_c, 4, 70, 0
3, 197973, Note_off_c, 4, 81, 0
3, 197973, Note_on_c, 4, 70, 82
3, 197973, Note_on_c, 4, 79, 82
3, 197973, Note_on_c, 4, 81, 82
3, 197974, Note_off_c, 4, 69, 0
3, 198058, Note_off_c, 4, 70, 0
3, 198058, Note_off_c, 4, 81, 0
3, 198058, Note_on_c, 4, 69, 71
3, 198058, Note_on_c, 4, 70, 71
3, 198058, Note_on_c, 4, 81, 71
3, 198059, Note_off_c, 4, 79, 0
3, 198144, Note_off_c, 4, 81, 0
3, 198144, Note_on_c, 4, 79, 73
3, 198144, Note_on_c, 4, 81, 73
3, 198145, Note_off_c, 4, 69, 0
3, 198145, Note_off_c, 4, 70, 0
3, 198229, Note_on_c, 4, 69, 53
3, 198229, Note_on_c, 4, 70, 53
3, 198230, Note_off_c, 4, 79, 0
3, 198230, Note_off_c, 4, 81, 0
3, 198309, Note_off_c, 4, 69, 0
3, 198309, Note_off_c, 4, 70, 0
3, 198314, Note_on_c, 4, 70, 66
3, 198400, Note_off_c, 4, 70, 0
3, 198400, Note_on_c, 4, 69, 89
3, 198400, Note_on_c, 4, 70, 89
3, 198400, Note_on_c, 4, 81, 89
3, 198485, Note_off_c, 4, 70, 0
3, 198485, Note_off_c, 4, 81, 0
3, 198485, Note_on_c, 4, 70, 90
3, 198485, Note_on_c, 4, 79, 90
3, 198485, Note_on_c, 4, 81, 90
3, 198486, Note_off_c, 4, 69, 0
3, 198570, Note_off_c, 4, 70, 0
3, 198570, Note_off_c, 4, 81, 0
3, 198570, Note_on_c, 4, 69, 75
3, 198570, Note_on_c, 4, 70, 75
3, 198570, Note_on_c, 4, 81, 75
3, 198571, Note_off_c, 4, 79, 0
3, 198656, Note_off_c, 4, 70, 0
3, 198656, Note_on_c, 4, 70, 61
3, 198656, Note_on_c, 4, 76, 61
3, 198656, Note_on_c, 4, 77, 61
3, 198657, Note_off_c, 4, 69, 0
3, 198657, Note_off_c, 4, 81, 0
3, 198741, Note_off_c, 4, 70, 0
3, 198741, Note_on_c, 4, 69, 76
3, 198741, Note_on_c, 4, 70, 76
3, 198741, Note_on_c, 4, 81, 76
3, 198742, Note_off_c, 4, 76, 0
3, 198742, Note_off_c, 4, 77, 0
3, 198826, Note_off_c, 4, 70, 0
3, 198826, Note_on_c, 4, 70, 67
3, 198826, Note_on_c, 4, 76, 67
3, 198826, Note_on_c, 4, 77, 67
3, 198827, Note_off_c, 4, 69, 0
3, 198827, Note_off_c, 4, 81, 0
3, 198912, Note_off_c, 4, 70, 0
3, 198912, Note_on_c, 4, 69, 83
3, 198912, Note_on_c, 4, 70, 83
3, 198912, Note_on_c, 4, 81, 83
3, 198913, Note_off_c, 4, 76, 0
3, 198913, Note_off_c, 4, 77, 0
3, 198997, Note_off_c, 4, 70, 0
3, 198997, Note_on_c, 4, 70, 73
3, 198997, Note_on_c, 4, 76, 73
3, 198997, Note_on_c, 4, 77, 73
3, 198998, Note_off_c, 4, 69, 0
3, 198998, Note_off_c, 4, 81, 0
3, 199082, Note_off_c, 4, 70, 0
3, 199082, Note_on_c, 4, 69, 76
3, 199082, Note_on_c, 4, 70, 76
3, 199082, Note_on_c, 4, 81, 76
3, 199083, Note_off_c, 4, 76, 0
3, 199083, Note_off_c, 4, 77, 0
3, 199168, Note_off_c, 4, 70, 0
3, 199168, Note_on_c, 4, 70, 66
3, 199168, Note_on_c, 4, 76, 66
3, 199168, Note_on_c, 4, 77, 66
3, 199169, Note_off_c, 4, 69, 0
3, 199169, Note_off_c, 4, 81, 0
3, 199253, Note_off_c, 4, 70, 0
3, 199253, Note_on_c, 4, 69, 57
3, 199253, Note_on_c, 4, 70, 57
3, 199254, Note_off_c, 4, 76, 0
3, 199254, Note_off_c, 4, 77, 0
3, 199338, Note_off_c, 4, 70, 0
3, 199338, Note_on_c, 4, 70, 66
3, 199338, Note_on_c, 4, 76, 66
3, 199338, Note_on_c, 4, 77, 66
3, 199339, Note_off_c, 4, 69, 0
3, 199424, Note_off_c, 4, 70, 0
3, 199424, Note_on_c, 4, 69, 81
3, 199424, Note_on_c, 4, 70, 81
3, 199424, Note_on_c, 4, 81, 81
3, 199425, Note_off_c, 4, 76, 0
3, 199425, Note_off_c, 4, 77, 0
3, 199509, Note_off_c, 4, 70, 0
3, 199509, Note_on_c, 4, 70, 74
3, 199509, Note_on_c, 4, 76, 74
3, 199509, Note_on_c, 4, 77, 74
3, 199510, Note_off_c, 4, 69, 0
3, 199510, Note_off_c, 4, 81, 0
3, 199594, Note_off_c, 4, 70, 0
3, 199594, Note_on_c, 4, 69, 76
3, 199594, Note_on_c, 4, 70, 76
3, 199594, Note_on_c, 4, 81, 76
3, 199595, Note_off_c, 4, 76, 0
3, 199595, Note_off_c, 4, 77, 0
3, 199680, Note_off_c, 4, 70, 0
3, 199680, Note_on_c, 4, 70, 58
3, 199681, Note_off_c, 4, 69, 0
3, 199681, Note_off_c, 4, 81, 0
3, 199765, Note_on_c, 4, 81, 87
3, 199766, Note_off_c, 4, 70, 0
3, 199850, Note_on_c, 4, 70, 83
3, 199850, Note_on_c, 4, 77, 83
3, 199850, Note_on_c, 4, 79, 83
3, 199851, Note_off_c, 4, 81, 0
3, 199936, Note_off_c, 4, 70, 0
3, 199936, Note_on_c, 4, 69, 73
3, 199936, Note_on_c, 4, 70, 73
3, 199936, Note_on_c, 4, 81, 73
3, 199937, Note_off_c, 4, 77, 0
3, 199937, Note_off_c, 4, 79, 0
3, 200021, Note_off_c, 4, 70, 0
3, 200021, Note_on_c, 4, 70, 69
3, 200021, Note_on_c, 4, 77, 69
3, 200021, Note_on_c, 4, 79, 69
3, 200022, Note_off_c, 4, 69, 0
3, 200022, Note_off_c, 4, 81, 0
3, 200106, Note_off_c, 4, 70, 0
3, 200106, Note_on_c, 4, 69, 79
3, 200106, Note_on_c, 4, 70, 79
3, 200106, Note_on_c, 4, 81, 79
3, 200107, Note_off_c, 4, 77, 0
3, 200107, Note_off_c, 4, 79, 0
3, 200192, Note_off_c, 4, 70, 0
3, 200192, Note_on_c, 4, 70, 75
3, 200192, Note_on_c, 4, 77, 75
3, 200192, Note_on_c, 4, 79, 75
3, 200193, Note_off_c, 4, 69, 0
3, 200193, Note_off_c, 4, 81, 0
3, 200277, Note_off_c, 4, 70, 0
3, 200277, Note_on_c, 4, 69, 74
3, 200277, Note_on_c, 4, 70, 74
3, 200277, Note_on_c, 4, 81, 74
3, 200278, Note_off_c, 4, 77, 0
3, 200278, Note_off_c, 4, 79, 0
3, 200362, Note_off_c, 4, 70, 0
3, 200362, Note_on_c, 4, 70, 66
3, 200362, Note_on_c, 4, 77, 66
3, 200362, Note_on_c, 4, 79, 66
3, 200363, Note_off_c, 4, 69, 0
3, 200363, Note_off_c, 4, 81, 0
3, 200448, Note_off_c, 4, 70, 0
3, 200448, Note_on_c, 4, 69, 54
3, 200448, Note_on_c, 4, 70, 54
3, 200449, Note_off_c, 4, 77, 0
3, 200449, Note_off_c, 4, 79, 0
3, 200533, Note_on_c, 4, 79, 64
3, 200533, Note_on_c, 4, 81, 64
3, 200534, Note_off_c, 4, 69, 0
3, 200534, Note_off_c, 4, 70, 0
3, 200618, Note_off_c, 4, 81, 0
3, 200618, Note_on_c, 4, 69, 75
3, 200618, Note_on_c, 4, 70, 75
3, 200618, Note_on_c, 4, 81, 75
3, 200619, Note_off_c, 4, 79, 0
3, 200704, Note_off_c, 4, 70, 0
3, 200704, Note_off_c, 4, 81, 0
3, 200704, Note_on_c, 4, 70, 74
3, 200704, Note_on_c, 4, 79, 74
3, 200704, Note_on_c, 4, 81, 74
3, 200705, Note_off_c, 4, 69, 0
3, 200789, Note_off_c, 4, 70, 0
3, 200789, Note_off_c, 4, 81, 0
3, 200789, Note_on_c, 4, 69, 75
3, 200789, Note_on_c, 4, 70, 75
3, 200789, Note_on_c, 4, 81, 75
3, 200790, Note_off_c, 4, 79, 0
3, 200874, Note_off_c, 4, 81, 0
3, 200874, Note_on_c, 4, 72, 78
3, 200874, Note_on_c, 4, 79, 78
3, 200874, Note_on_c, 4, 81, 78
3, 200875, Note_off_c, 4, 69, 0
3, 200875, Note_off_c, 4, 70, 0
3, 200960, Note_off_c, 4, 81, 0
3, 200960, Note_on_c, 4, 69, 70
3, 200960, Note_on_c, 4, 70, 70
3, 200960, Note_on_c, 4, 81, 70
3, 200961, Note_off_c, 4, 72, 0
3, 200961, Note_off_c, 4, 79, 0
3, 201045, Note_off_c, 4, 81, 0
3, 201045, Note_on_c, 4, 72, 69
3, 201045, Note_on_c, 4, 79, 69
3, 201045, Note_on_c, 4, 81, 69
3, 201046, Note_off_c, 4, 69, 0
3, 201046, Note_off_c, 4, 70, 0
3, 201130, Note_off_c, 4, 81, 0
3, 201130, Note_on_c, 4, 69, 70
3, 201130, Note_on_c, 4, 70, 70
3, 201130, Note_on_c, 4, 81, 70
3, 201131, Note_off_c, 4, 72, 0
3, 201131, Note_off_c, 4, 79, 0
3, 201216, Note_off_c, 4, 81, 0
3, 201216, Note_on_c, 4, 72, 67
3, 201216, Note_on_c, 4, 79, 67
3, 201216, Note_on_c, 4, 81, 67
3, 201217, Note_off_c, 4, 69, 0
3, 201217, Note_off_c, 4, 70, 0
3, 201301, Note_off_c, 4, 81, 0
3, 201301, Note_on_c, 4, 69, 71
3, 201301, Note_on_c, 4, 70, 71
3, 201301, Note_on_c, 4, 81, 71
3, 201302, Note_off_c, 4, 72, 0
3, 201302, Note_off_c, 4, 79, 0
3, 201386, Note_off_c, 4, 81, 0
3, 201386, Note_on_c, 4, 72, 69
3, 201386, Note_on_c, 4, 79, 69
3, 201386, Note_on_c, 4, 81, 69
3, 201387, Note_off_c, 4, 69, 0
3, 201387, Note_off_c, 4, 70, 0
3, 201472, Note_off_c, 4, 81, 0
3, 201472, Note_on_c, 4, 81, 71
3, 201473, Note_off_c, 4, 72, 0
3, 201473, Note_off_c, 4, 79, 0
3, 201557, Note_on_c, 4, 72, 56
3, 201558, Note_off_c, 4, 81, 0
3, 201642, Note_on_c, 4, 81, 84
3, 201643, Note_off_c, 4, 72, 0
3, 201723, Note_off_c, 4, 81, 0
3, 201728, Note_on_c, 4, 81, 77
3, 201728, Note_on_c, 4, 82, 77
3, 201813, Note_off_c, 4, 81, 0
3, 201813, Note_on_c, 4, 72, 67
3, 201813, Note_on_c, 4, 74, 67
3, 201813, Note_on_c, 4, 81, 67
3, 201814, Note_off_c, 4, 82, 0
3, 201898, Note_off_c, 4, 72, 0
3, 201898, Note_off_c, 4, 81, 0
3, 201898, Note_on_c, 4, 72, 70
3, 201898, Note_on_c, 4, 81, 70
3, 201898, Note_on_c, 4, 82, 70
3, 201899, Note_off_c, 4, 74, 0
3, 201984, Note_off_c, 4, 72, 0
3, 201984, Note_off_c, 4, 82, 0
3, 201984, Note_on_c, 4, 72, 75
3, 201984, Note_on_c, 4, 74, 75
3, 201984, Note_on_c, 4, 82, 75
3, 201985, Note_off_c, 4, 81, 0
3, 202069, Note_off_c, 4, 74, 0
3, 202069, Note_off_c, 4, 82, 0
3, 202069, Note_on_c, 4, 74, 71
3, 202069, Note_on_c, 4, 81, 71
3, 202069, Note_on_c, 4, 82, 71
3, 202070, Note_off_c, 4, 72, 0
3, 202154, Note_off_c, 4, 74, 0
3, 202154, Note_off_c, 4, 82, 0
3, 202154, Note_on_c, 4, 72, 74
3, 202154, Note_on_c, 4, 74, 74
3, 202154, Note_on_c, 4, 82, 74
3, 202155, Note_off_c, 4, 81, 0
3, 202240, Note_off_c, 4, 74, 0
3, 202240, Note_off_c, 4, 82, 0
3, 202240, Note_on_c, 4, 74, 70
3, 202240, Note_on_c, 4, 81, 70
3, 202240, Note_on_c, 4, 82, 70
3, 202241, Note_off_c, 4, 72, 0
3, 202325, Note_off_c, 4, 74, 0
3, 202325, Note_off_c, 4, 82, 0
3, 202325, Note_on_c, 4, 72, 74
3, 202325, Note_on_c, 4, 74, 74
3, 202325, Note_on_c, 4, 82, 74
3, 202326, Note_off_c, 4, 81, 0
3, 202410, Note_off_c, 4, 74, 0
3, 202410, Note_off_c, 4, 82, 0
3, 202410, Note_on_c, 4, 74, 74
3, 202410, Note_on_c, 4, 82, 74
3, 202410, Note_on_c, 4, 86, 74
3, 202411, Note_off_c, 4, 72, 0
3, 202496, Note_off_c, 4, 74, 0
3, 202496, Note_off_c, 4, 82, 0
3, 202496, Note_on_c, 4, 74, 65
3, 202496, Note_on_c, 4, 76, 65
3, 202496, Note_on_c, 4, 82, 65
3, 202497, Note_off_c, 4, 86, 0
3, 202581, Note_off_c, 4, 74, 0
3, 202581, Note_off_c, 4, 82, 0
3, 202581, Note_on_c, 4, 74, 68
3, 202581, Note_on_c, 4, 81, 68
3, 202581, Note_on_c, 4, 82, 68
3, 202582, Note_off_c, 4, 76, 0
3, 202666, Note_on_c, 4, 86, 72
3, 202667, Note_off_c, 4, 74, 0
3, 202667, Note_off_c, 4, 81, 0
3, 202667, Note_off_c, 4, 82, 0
3, 202752, Note_on_c, 4, 74, 51
3, 202753, Note_off_c, 4, 86, 0
3, 202837, Note_off_c, 4, 74, 0
3, 202837, Note_on_c, 4, 74, 85
3, 202837, Note_on_c, 4, 76, 85
3, 202837, Note_on_c, 4, 86, 85
3, 202922, Note_off_c, 4, 76, 0
3, 202922, Note_on_c, 4, 76, 77
3, 202922, Note_on_c, 4, 81, 77
3, 202922, Note_on_c, 4, 82, 77
3, 202923, Note_off_c, 4, 74, 0
3, 202923, Note_off_c, 4, 86, 0
3, 203008, Note_on_c, 4, 72, 78
3, 203008, Note_on_c, 4, 74, 78
3, 203008, Note_on_c, 4, 88, 78
3, 203009, Note_off_c, 4, 76, 0
3, 203009, Note_off_c, 4, 81, 0
3, 203009, Note_off_c, 4, 82, 0
3, 203093, Note_on_c, 4, 76, 75
3, 203093, Note_on_c, 4, 82, 75
3, 203093, Note_on_c, 4, 86, 75
3, 203094, Note_off_c, 4, 72, 0
3, 203094, Note_off_c, 4, 74, 0
3, 203094, Note_off_c, 4, 88, 0
3, 203178, Note_off_c, 4, 76, 0
3, 203178, Note_on_c, 4, 74, 52
3, 203178, Note_on_c, 4, 76, 52
3, 203179, Note_off_c, 4, 82, 0
3, 203179, Note_off_c, 4, 86, 0
3, 203264, Note_on_c, 4, 81, 58
3, 203264, Note_on_c, 4, 82, 58
3, 203265, Note_off_c, 4, 74, 0
3, 203265, Note_off_c, 4, 76, 0
3, 203349, Note_on_c, 4, 72, 57
3, 203349, Note_on_c, 4, 74, 57
3, 203350, Note_off_c, 4, 81, 0
3, 203350, Note_off_c, 4, 82, 0
3, 203434, Note_on_c, 4, 76, 70
3, 203434, Note_on_c, 4, 82, 70
3, 203434, Note_on_c, 4, 86, 70
3, 203435, Note_off_c, 4, 72, 0
3, 203435, Note_off_c, 4, 74, 0
3, 203520, Note_off_c, 4, 76, 0
3, 203520, Note_off_c, 4, 82, 0
3, 203520, Note_on_c, 4, 74, 67
3, 203520, Note_on_c, 4, 76, 67
3, 203520, Note_on_c, 4, 82, 67
3, 203521, Note_off_c, 4, 86, 0
3, 203605, Note_off_c, 4, 74, 0
3, 203605, Note_on_c, 4, 74, 56
3, 203606, Note_off_c, 4, 76, 0
3, 203606, Note_off_c, 4, 82, 0
3, 203690, Note_on_c, 4, 86, 93
3, 203691, Note_off_c, 4, 74, 0
3, 203776, Note_off_c, 4, 86, 0
3, 203776, Note_on_c, 4, 76, 74
3, 203776, Note_on_c, 4, 82, 74
3, 203776, Note_on_c, 4, 86, 74
3, 203861, Note_off_c, 4, 76, 0
3, 203861, Note_off_c, 4, 82, 0
3, 203861, Note_on_c, 4, 74, 64
3, 203861, Note_on_c, 4, 76, 64
3, 203861, Note_on_c, 4, 82, 64
3, 203862, Note_off_c, 4, 86, 0
3, 203946, Note_off_c, 4, 74, 0
3, 203946, Note_off_c, 4, 82, 0
3, 203946, Note_on_c, 4, 74, 72
3, 203946, Note_on_c, 4, 81, 72
3, 203946, Note_on_c, 4, 82, 72
3, 203947, Note_off_c, 4, 76, 0
3, 204032, Note_off_c, 4, 74, 0
3, 204032, Note_on_c, 4, 72, 81
3, 204032, Note_on_c, 4, 74, 81
3, 204032, Note_on_c, 4, 86, 81
3, 204033, Note_off_c, 4, 81, 0
3, 204033, Note_off_c, 4, 82, 0
3, 204117, Note_on_c, 4, 76, 77
3, 204117, Note_on_c, 4, 82, 77
3, 204117, Note_on_c, 4, 88, 77
3, 204118, Note_off_c, 4, 72, 0
3, 204118, Note_off_c, 4, 74, 0
3, 204118, Note_off_c, 4, 86, 0
3, 204202, Note_off_c, 4, 76, 0
3, 204202, Note_off_c, 4, 82, 0
3, 204202, Note_on_c, 4, 74, 65
3, 204202, Note_on_c, 4, 76, 65
3, 204202, Note_on_c, 4, 82, 65
3, 204203, Note_off_c, 4, 88, 0
3, 204288, Note_off_c, 4, 74, 0
3, 204288, Note_off_c, 4, 82, 0
3, 204288, Note_on_c, 4, 74, 70
3, 204288, Note_on_c, 4, 81, 70
3, 204288, Note_on_c, 4, 82, 70
3, 204289, Note_off_c, 4, 76, 0
3, 204373, Note_off_c, 4, 74, 0
3, 204373, Note_on_c, 4, 72, 72
3, 204373, Note_on_c, 4, 74, 72
3, 204373, Note_on_c, 4, 86, 72
3, 204374, Note_off_c, 4, 81, 0
3, 204374, Note_off_c, 4, 82, 0
3, 204458, Note_off_c, 4, 86, 0
3, 204458, Note_on_c, 4, 76, 72
3, 204458, Note_on_c, 4, 82, 72
3, 204458, Note_on_c, 4, 86, 72
3, 204459, Note_off_c, 4, 72, 0
3, 204459, Note_off_c, 4, 74, 0
3, 204544, Note_off_c, 4, 76, 0
3, 204544, Note_off_c, 4, 82, 0
3, 204544, Note_on_c, 4, 74, 60
3, 204544, Note_on_c, 4, 76, 60
3, 204544, Note_on_c, 4, 82, 60
3, 204545, Note_off_c, 4, 86, 0
3, 204629, Note_off_c, 4, 74, 0
3, 204629, Note_off_c, 4, 82, 0
3, 204629, Note_on_c, 4, 74, 68
3, 204629, Note_on_c, 4, 81, 68
3, 204629, Note_on_c, 4, 82, 68
3, 204630, Note_off_c, 4, 76, 0
3, 204714, Note_off_c, 4, 74, 0
3, 204714, Note_on_c, 4, 72, 80
3, 204714, Note_on_c, 4, 74, 80
3, 204714, Note_on_c, 4, 86, 80
3, 204715, Note_off_c, 4, 81, 0
3, 204715, Note_off_c, 4, 82, 0
3, 204800, Note_on_c, 4, 76, 63
3, 204800, Note_on_c, 4, 81, 63
3, 204800, Note_on_c, 4, 82, 63
3, 204801, Note_off_c, 4, 72, 0
3, 204801, Note_off_c, 4, 74, 0
3, 204801, Note_off_c, 4, 86, 0
3, 204885, Note_off_c, 4, 82, 0
3, 204885, Note_on_c, 4, 72, 67
3, 204885, Note_on_c, 4, 74, 67
3, 204885, Note_on_c, 4, 82, 67
3, 204886, Note_off_c, 4, 76, 0
3, 204886, Note_off_c, 4, 81, 0
3, 204970, Note_off_c, 4, 74, 0
3, 204970, Note_off_c, 4, 82, 0
3, 204970, Note_on_c, 4, 74, 80
3, 204970, Note_on_c, 4, 82, 80
3, 204970, Note_on_c, 4, 86, 80
3, 204971, Note_off_c, 4, 72, 0
3, 205051, Note_off_c, 4, 74, 0
3, 205051, Note_off_c, 4, 82, 0
3, 205051, Note_off_c, 4, 86, 0
3, 207360, Note_on_c, 4, 82, 63
3, 207360, Note_on_c, 4, 86, 63
3, 207360, Note_on_c, 4, 89, 63
3, 207462, Note_on_c, 4, 77, 54
3, 207462, Note_on_c, 4, 84, 54
3, 207464, Note_off_c, 4, 82, 0
3, 207464, Note_off_c, 4, 86, 0
3, 207464, Note_off_c, 4, 89, 0
3, 207564, Note_on_c, 4, 76, 60
3, 207566, Note_off_c, 4, 77, 0
3, 207566, Note_off_c, 4, 84, 0
3, 207667, Note_on_c, 4, 69, 43
3, 207669, Note_off_c, 4, 76, 0
3, 207769, Note_on_c, 4, 62, 52
3, 207771, Note_off_c, 4, 69, 0
3, 207866, Note_off_c, 4, 62, 0
3, 207872, Note_on_c, 4, 82, 89
3, 207872, Note_on_c, 4, 86, 89
3, 207872, Note_on_c, 4, 89, 89
3, 207974, Note_on_c, 4, 77, 80
3, 207974, Note_on_c, 4, 84, 80
3, 207976, Note_off_c, 4, 82, 0
3, 207976, Note_off_c, 4, 86, 0
3, 207976, Note_off_c, 4, 89, 0
3, 208076, Note_on_c, 4, 76, 60
3, 208078, Note_off_c, 4, 77, 0
3, 208078, Note_off_c, 4, 84, 0
3, 208179, Note_on_c, 4, 69, 46
3, 208181, Note_off_c, 4, 76, 0
3, 208281, Note_on_c, 4, 62, 54
3, 208283, Note_off_c, 4, 69, 0
3, 208378, Note_off_c, 4, 62, 0
3, 208384, Note_on_c, 4, 82, 90
3, 208384, Note_on_c, 4, 86, 90
3, 208384, Note_on_c, 4, 89, 90
3, 208486, Note_on_c, 4, 77, 88
3, 208486, Note_on_c, 4, 84, 88
3, 208488, Note_off_c, 4, 82, 0
3, 208488, Note_off_c, 4, 86, 0
3, 208488, Note_off_c, 4, 89, 0
3, 208588, Note_on_c, 4, 76, 56
3, 208590, Note_off_c, 4, 77, 0
3, 208590, Note_off_c, 4, 84, 0
3, 208691, Note_on_c, 4, 69, 44
3, 208693, Note_off_c, 4, 76, 0
3, 208793, Note_on_c, 4, 62, 60
3, 208795, Note_off_c, 4, 69, 0
3, 208890, Note_off_c, 4, 62, 0
3, 208896, Note_on_c, 4, 82, 87
3, 208896, Note_on_c, 4, 86, 87
3, 208896, Note_on_c, 4, 89, 87
3, 208998, Note_on_c, 4, 77, 87
3, 208998, Note_on_c, 4, 84, 87
3, 209000, Note_off_c, 4, 82, 0
3, 209000, Note_off_c, 4, 86, 0
3, 209000, Note_off_c, 4, 89, 0
3, 209100, Note_on_c, 4, 76, 57
3, 209102, Note_off_c, 4, 77, 0
3, 209102, Note_off_c, 4, 84, 0
3, 209203, Note_on_c, 4, 69, 41
3, 209205, Note_off_c, 4, 76, 0
3, 209305, Note_on_c, 4, 62, 59
3, 209307, Note_off_c, 4, 69, 0
3, 209402, Note_off_c, 4, 62, 0
3, 209408, Note_on_c, 4, 82, 91
3, 209408, Note_on_c, 4, 86, 91
3, 209408, Note_on_c, 4, 89, 91
3, 209510, Note_on_c, 4, 77, 86
3, 209510, Note_on_c, 4, 84, 86
3, 209512, Note_off_c, 4, 82, 0
3, 209512, Note_off_c, 4, 86, 0
3, 209512, Note_off_c, 4, 89, 0
3, 209612, Note_on_c, 4, 76, 54
3, 209614, Note_off_c, 4, 77, 0
3, 209614, Note_off_c, 4, 84, 0
3, 209715, Note_on_c, 4, 69, 44
3, 209717, Note_off_c, 4, 76, 0
3, 209817, Note_on_c, 4, 62, 53
3, 209819, Note_off_c, 4, 69, 0
3, 209914, Note_off_c, 4, 62, 0
3, 209920, Note_on_c, 4, 82, 90
3, 209920, Note_on_c, 4, 86, 90
3, 209920, Note_on_c, 4, 89, 90
3, 210022, Note_on_c, 4, 77, 78
3, 210022, Note_on_c, 4, 84, 78
3, 210024, Note_off_c, 4, 82, 0
3, 210024, Note_off_c, 4, 86, 0
3, 210024, Note_off_c, 4, 89, 0
3, 210124, Note_on_c, 4, 76, 56
3, 210126, Note_off_c, 4, 77, 0
3, 210126, Note_off_c, 4, 84, 0
3, 210227, Note_on_c, 4, 69, 48
3, 210229, Note_off_c, 4, 76, 0
3, 210323, Note_off_c, 4, 69, 0
3, 210329, Note_on_c, 4, 84, 85
3, 210329, Note_on_c, 4, 88, 85
3, 210432, Note_on_c, 4, 82, 92
3, 210432, Note_on_c, 4, 86, 92
3, 210432, Note_on_c, 4, 89, 92
3, 210434, Note_off_c, 4, 84, 0
3, 210434, Note_off_c, 4, 88, 0
3, 210534, Note_on_c, 4, 77, 61
3, 210534, Note_on_c, 4, 84, 61
3, 210536, Note_off_c, 4, 82, 0
3, 210536, Note_off_c, 4, 86, 0
3, 210536, Note_off_c, 4, 89, 0
3, 210636, Note_on_c, 4, 76, 46
3, 210638, Note_off_c, 4, 77, 0
3, 210638, Note_off_c, 4, 84, 0
3, 210739, Note_on_c, 4, 69, 54
3, 210741, Note_off_c, 4, 76, 0
3, 210835, Note_off_c, 4, 69, 0
3, 210841, Note_on_c, 4, 84, 92
3, 210841, Note_on_c, 4, 88, 92
3, 210944, Note_on_c, 4, 82, 98
3, 210944, Note_on_c, 4, 86, 98
3, 210944, Note_on_c, 4, 89, 98
3, 210946, Note_off_c, 4, 84, 0
3, 210946, Note_off_c, 4, 88, 0
3, 211046, Note_on_c, 4, 77, 60
3, 211046, Note_on_c, 4, 84, 60
3, 211048, Note_off_c, 4, 82, 0
3, 211048, Note_off_c, 4, 86, 0
3, 211048, Note_off_c, 4, 89, 0
3, 211148, Note_on_c, 4, 76, 47
3, 211150, Note_off_c, 4, 77, 0
3, 211150, Note_off_c, 4, 84, 0
3, 211251, Note_on_c, 4, 69, 53
3, 211253, Note_off_c, 4, 76, 0
3, 211347, Note_off_c, 4, 69, 0
3, 211353, Note_on_c, 4, 84, 83
3, 211353, Note_on_c, 4, 88, 83
3, 211456, Note_on_c, 4, 82, 92
3, 211456, Note_on_c, 4, 86, 92
3, 211456, Note_on_c, 4, 89, 92
3, 211458, Note_off_c, 4, 84, 0
3, 211458, Note_off_c, 4, 88, 0
3, 211558, Note_on_c, 4, 77, 62
3, 211558, Note_on_c, 4, 84, 62
3, 211560, Note_off_c, 4, 82, 0
3, 211560, Note_off_c, 4, 86, 0
3, 211560, Note_off_c, 4, 89, 0
3, 211660, Note_on_c, 4, 76, 49
3, 211662, Note_off_c, 4, 77, 0
3, 211662, Note_off_c, 4, 84, 0
3, 211763, Note_on_c, 4, 69, 53
3, 211765, Note_off_c, 4, 76, 0
3, 211859, Note_off_c, 4, 69, 0
3, 211865, Note_on_c, 4, 84, 88
3, 211865, Note_on_c, 4, 88, 88
3, 211968, Note_on_c, 4, 82, 95
3, 211968, Note_on_c, 4, 86, 95
3, 211968, Note_on_c, 4, 89, 95
3, 211970, Note_off_c, 4, 84, 0
3, 211970, Note_off_c, 4, 88, 0
3, 212070, Note_on_c, 4, 77, 63
3, 212070, Note_on_c, 4, 84, 63
3, 212072, Note_off_c, 4, 82, 0
3, 212072, Note_off_c, 4, 86, 0
3, 212072, Note_off_c, 4, 89, 0
3, 212172, Note_on_c, 4, 76, 51
3, 212174, Note_off_c, 4, 77, 0
3, 212174, Note_off_c, 4, 84, 0
3, 212275, Note_on_c, 4, 69, 59
3, 212277, Note_off_c, 4, 76, 0
3, 212371, Note_off_c, 4, 69, 0
3, 212377, Note_on_c, 4, 84, 94
3, 212377, Note_on_c, 4, 88, 94
3, 212480, Note_on_c, 4, 82, 96
3, 212480, Note_on_c, 4, 86, 96
3, 212480, Note_on_c, 4, 89, 96
3, 212482, Note_off_c, 4, 84, 0
3, 212482, Note_off_c, 4, 88, 0
3, 212582, Note_on_c, 4, 77, 65
3, 212582, Note_on_c, 4, 84, 65
3, 212584, Note_off_c, 4, 82, 0
3, 212584, Note_off_c, 4, 86, 0
3, 212584, Note_off_c, 4, 89, 0
3, 212684, Note_on_c, 4, 76, 51
3, 212686, Note_off_c, 4, 77, 0
3, 212686, Note_off_c, 4, 84, 0
3, 212787, Note_on_c, 4, 69, 52
3, 212789, Note_off_c, 4, 76, 0
3, 212883, Note_off_c, 4, 69, 0
3, 212889, Note_on_c, 4, 84, 87
3, 212889, Note_on_c, 4, 88, 87
3, 212992, Note_on_c, 4, 82, 98
3, 212992, Note_on_c, 4, 86, 98
3, 212992, Note_on_c, 4, 89, 98
3, 212994, Note_off_c, 4, 84, 0
3, 212994, Note_off_c, 4, 88, 0
3, 213094, Note_on_c, 4, 77, 63
3, 213094, Note_on_c, 4, 84, 63
3, 213096, Note_off_c, 4, 82, 0
3, 213096, Note_off_c, 4, 86, 0
3, 213096, Note_off_c, 4, 89, 0
3, 213196, Note_on_c, 4, 76, 52
3, 213198, Note_off_c, 4, 77, 0
3, 213198, Note_off_c, 4, 84, 0
3, 213299, Note_on_c, 4, 69, 55
3, 213301, Note_off_c, 4, 76, 0
3, 213395, Note_off_c, 4, 69, 0
3, 213401, Note_on_c, 4, 84, 90
3, 213401, Note_on_c, 4, 88, 90
3, 213504, Note_on_c, 4, 82, 101
3, 213504, Note_on_c, 4, 86, 101
3, 213504, Note_on_c, 4, 89, 101
3, 213506, Note_off_c, 4, 84, 0
3, 213506, Note_off_c, 4, 88, 0
3, 213606, Note_on_c, 4, 77, 64
3, 213606, Note_on_c, 4, 84, 64
3, 213608, Note_off_c, 4, 82, 0
3, 213608, Note_off_c, 4, 86, 0
3, 213608, Note_off_c, 4, 89, 0
3, 213708, Note_on_c, 4, 76, 53
3, 213710, Note_off_c, 4, 77, 0
3, 213710, Note_off_c, 4, 84, 0
3, 213811, Note_on_c, 4, 69, 60
3, 213813, Note_off_c, 4, 76, 0
3, 213907, Note_off_c, 4, 69, 0
3, 213913, Note_on_c, 4, 84, 89
3, 213913, Note_on_c, 4, 88, 89
3, 214016, Note_on_c, 4, 82, 100
3, 214016, Note_on_c, 4, 86, 100
3, 214016, Note_on_c, 4, 89, 100
3, 214018, Note_off_c, 4, 84, 0
3, 214018, Note_off_c, 4, 88, 0
3, 214118, Note_on_c, 4, 77, 63
3, 214118, Note_on_c, 4, 84, 63
3, 214120, Note_off_c, 4, 82, 0
3, 214120, Note_off_c, 4, 86, 0
3, 214120, Note_off_c, 4, 89, 0
3, 214220, Note_on_c, 4, 76, 45
3, 214222, Note_off_c, 4, 77, 0
3, 214222, Note_off_c, 4, 84, 0
3, 214323, Note_on_c, 4, 69, 57
3, 214325, Note_off_c, 4, 76, 0
3, 214419, Note_off_c, 4, 69, 0
3, 214425, Note_on_c, 4, 84, 85
3, 214425, Note_on_c, 4, 88, 85
3, 214528, Note_on_c, 4, 82, 94
3, 214528, Note_on_c, 4, 86, 94
3, 214528, Note_on_c, 4, 89, 94
3, 214530, Note_off_c, 4, 84, 0
3, 214530, Note_off_c, 4, 88, 0
3, 214649, Note_off_c, 4, 82, 0
3, 214649, Note_off_c, 4, 86, 0
3, 214649, Note_off_c, 4, 89, 0
3, 218624, Note_on_c, 4, 81, 67
3, 218624, Note_on_c, 4, 78, 60
3, 218624, Note_on_c, 4, 74, 64
3, 218709, Note_on_c, 4, 70, 47
3, 218709, Note_on_c, 4, 71, 49
3, 218709, Note_on_c, 4, 70, 58
3, 218710, Note_off_c, 4, 81, 0
3, 218710, Note_off_c, 4, 78, 0
3, 218710, Note_off_c, 4, 74, 0
3, 218794, Note_on_c, 4, 81, 88
3, 218794, Note_on_c, 4, 78, 84
3, 218794, Note_on_c, 4, 74, 78
3, 218795, Note_off_c, 4, 70, 0
3, 218795, Note_off_c, 4, 71, 0
3, 218795, Note_off_c, 4, 70, 0
3, 218880, Note_on_c, 4, 70, 68
3, 218880, Note_on_c, 4, 69, 70
3, 218880, Note_on_c, 4, 70, 70
3, 218881, Note_off_c, 4, 81, 0
3, 218881, Note_off_c, 4, 78, 0
3, 218881, Note_off_c, 4, 74, 0
3, 218965, Note_on_c, 4, 82, 91
3, 218965, Note_on_c, 4, 79, 84
3, 218965, Note_on_c, 4, 76, 82
3, 218966, Note_off_c, 4, 70, 0
3, 218966, Note_off_c, 4, 69, 0
3, 218966, Note_off_c, 4, 70, 0
3, 219050, Note_on_c, 4, 81, 90
3, 219050, Note_on_c, 4, 78, 86
3, 219050, Note_on_c, 4, 74, 75
3, 219051, Note_off_c, 4, 82, 0
3, 219051, Note_off_c, 4, 79, 0
3, 219051, Note_off_c, 4, 76, 0
3, 219136, Note_on_c, 4, 70, 49
3, 219136, Note_on_c, 4, 69, 56
3, 219136, Note_on_c, 4, 70, 66
3, 219137, Note_off_c, 4, 81, 0
3, 219137, Note_off_c, 4, 78, 0
3, 219137, Note_off_c, 4, 74, 0
3, 219221, Note_on_c, 4, 81, 61
3, 219221, Note_on_c, 4, 78, 65
3, 219221, Note_on_c, 4, 74, 75
3, 219222, Note_off_c, 4, 70, 0
3, 219222, Note_off_c, 4, 69, 0
3, 219222, Note_off_c, 4, 70, 0
3, 219306, Note_on_c, 4, 70, 53
3, 219306, Note_on_c, 4, 69, 52
3, 219306, Note_on_c, 4, 70, 64
3, 219307, Note_off_c, 4, 81, 0
3, 219307, Note_off_c, 4, 78, 0
3, 219307, Note_off_c, 4, 74, 0
3, 219392, Note_on_c, 4, 82, 68
3, 219392, Note_on_c, 4, 79, 60
3, 219392, Note_on_c, 4, 76, 72
3, 219393, Note_off_c, 4, 70, 0
3, 219393, Note_off_c, 4, 69, 0
3, 219393, Note_off_c, 4, 70, 0
3, 219477, Note_on_c, 4, 81, 71
3, 219477, Note_on_c, 4, 78, 70
3, 219477, Note_on_c, 4, 74, 71
3, 219478, Note_off_c, 4, 82, 0
3, 219478, Note_off_c, 4, 79, 0
3, 219478, Note_off_c, 4, 76, 0
3, 219562, Note_on_c, 4, 70, 56
3, 219562, Note_on_c, 4, 69, 56
3, 219562, Note_on_c, 4, 70, 64
3, 219563, Note_off_c, 4, 81, 0
3, 219563, Note_off_c, 4, 78, 0
3, 219563, Note_off_c, 4, 74, 0
3, 219648, Note_on_c, 4, 81, 85
3, 219648, Note_on_c, 4, 78, 79
3, 219648, Note_on_c, 4, 74, 75
3, 219649, Note_off_c, 4, 70, 0
3, 219649, Note_off_c, 4, 69, 0
3, 219649, Note_off_c, 4, 70, 0
3, 219733, Note_on_c, 4, 70, 67
3, 219733, Note_on_c, 4, 69, 63
3, 219733, Note_on_c, 4, 70, 65
3, 219734, Note_off_c, 4, 81, 0
3, 219734, Note_off_c, 4, 78, 0
3, 219734, Note_off_c, 4, 74, 0
3, 219818, Note_on_c, 4, 82, 85
3, 219818, Note_on_c, 4, 79, 84
3, 219818, Note_on_c, 4, 76, 82
3, 219819, Note_off_c, 4, 70, 0
3, 219819, Note_off_c, 4, 69, 0
3, 219819, Note_off_c, 4, 70, 0
3, 219904, Note_on_c, 4, 81, 85
3, 219904, Note_on_c, 4, 78, 83
3, 219904, Note_on_c, 4, 74, 80
3, 219905, Note_off_c, 4, 82, 0
3, 219905, Note_off_c, 4, 79, 0
3, 219905, Note_off_c, 4, 76, 0
3, 219989, Note_on_c, 4, 70, 53
3, 219989, Note_on_c, 4, 69, 55
3, 219989, Note_on_c, 4, 70, 62
3, 219990, Note_off_c, 4, 81, 0
3, 219990, Note_off_c, 4, 78, 0
3, 219990, Note_off_c, 4, 74, 0
3, 220074, Note_on_c, 4, 81, 62
3, 220074, Note_on_c, 4, 78, 68
3, 220074, Note_on_c, 4, 74, 64
3, 220075, Note_off_c, 4, 70, 0
3, 220075, Note_off_c, 4, 69, 0
3, 220075, Note_off_c, 4, 70, 0
3, 220155, Note_off_c, 4, 81, 0
3, 220155, Note_off_c, 4, 78, 0
3, 220155, Note_off_c, 4, 74, 0
3, 220245, Note_on_c, 4, 82, 65
3, 220245, Note_on_c, 4, 79, 63
3, 220245, Note_on_c, 4, 76, 68
3, 220330, Note_on_c, 4, 81, 63
3, 220330, Note_on_c, 4, 78, 59
3, 220330, Note_on_c, 4, 74, 61
3, 220331, Note_off_c, 4, 82, 0
3, 220331, Note_off_c, 4, 79, 0
3, 220331, Note_off_c, 4, 76, 0
3, 220416, Note_on_c, 4, 70, 53
3, 220416, Note_on_c, 4, 69, 56
3, 220416, Note_on_c, 4, 70, 61
3, 220417, Note_off_c, 4, 81, 0
3, 220417, Note_off_c, 4, 78, 0
3, 220417, Note_off_c, 4, 74, 0
3, 220501, Note_on_c, 4, 81, 64
3, 220501, Note_on_c, 4, 78, 65
3, 220501, Note_on_c, 4, 74, 70
3, 220502, Note_off_c, 4, 70, 0
3, 220502, Note_off_c, 4, 69, 0
3, 220502, Note_off_c, 4, 70, 0
3, 220586, Note_on_c, 4, 70, 56
3, 220586, Note_on_c, 4, 69, 56
3, 220586, Note_on_c, 4, 70, 60
3, 220587, Note_off_c, 4, 81, 0
3, 220587, Note_off_c, 4, 78, 0
3, 220587, Note_off_c, 4, 74, 0
3, 220672, Note_on_c, 4, 82, 69
3, 220672, Note_on_c, 4, 79, 66
3, 220672, Note_on_c, 4, 76, 67
3, 220673, Note_off_c, 4, 70, 0
3, 220673, Note_off_c, 4, 69, 0
3, 220673, Note_off_c, 4, 70, 0
3, 220757, Note_on_c, 4, 81, 74
3, 220757, Note_on_c, 4, 78, 72
3, 220757, Note_on_c, 4, 74, 75
3, 220758, Note_off_c, 4, 82, 0
3, 220758, Note_off_c, 4, 79, 0
3, 220758, Note_off_c, 4, 76, 0
3, 220842, Note_on_c, 4, 70, 53
3, 220842, Note_on_c, 4, 69, 57
3, 220842, Note_on_c, 4, 70, 65
3, 220843, Note_off_c, 4, 81, 0
3, 220843, Note_off_c, 4, 78, 0
3, 220843, Note_off_c, 4, 74, 0
3, 220928, Note_on_c, 4, 81, 85
3, 220928, Note_on_c, 4, 78, 86
3, 220928, Note_on_c, 4, 74, 73
3, 220929, Note_off_c, 4, 70, 0
3, 220929, Note_off_c, 4, 69, 0
3, 220929, Note_off_c, 4, 70, 0
3, 221013, Note_on_c, 4, 70, 62
3, 221013, Note_on_c, 4, 69, 74
3, 221013, Note_on_c, 4, 70, 64
3, 221014, Note_off_c, 4, 81, 0
3, 221014, Note_off_c, 4, 78, 0
3, 221014, Note_off_c, 4, 74, 0
3, 221098, Note_on_c, 4, 82, 86
3, 221098, Note_on_c, 4, 79, 87
3, 221098, Note_on_c, 4, 76, 82
3, 221099, Note_off_c, 4, 70, 0
3, 221099, Note_off_c, 4, 69, 0
3, 221099, Note_off_c, 4, 70, 0
3, 221184, Note_on_c, 4, 81, 87
3, 221184, Note_on_c, 4, 78, 87
3, 221184, Note_on_c, 4, 74, 74
3, 221185, Note_off_c, 4, 82, 0
3, 221185, Note_off_c, 4, 79, 0
3, 221185, Note_off_c, 4, 76, 0
3, 221269, Note_on_c, 4, 70, 60
3, 221269, Note_on_c, 4, 69, 54
3, 221269, Note_on_c, 4, 70, 69
3, 221270, Note_off_c, 4, 81, 0
3, 221270, Note_off_c, 4, 78, 0
3, 221270, Note_off_c, 4, 74, 0
3, 221349, Note_off_c, 4, 70, 0
3, 221349, Note_off_c, 4, 69, 0
3, 221349, Note_off_c, 4, 70, 0
3, 221440, Note_on_c, 4, 70, 62
3, 221440, Note_on_c, 4, 69, 63
3, 221440, Note_on_c, 4, 70, 67
3, 221525, Note_on_c, 4, 82, 77
3, 221525, Note_on_c, 4, 79, 80
3, 221525, Note_on_c, 4, 76, 77
3, 221526, Note_off_c, 4, 70, 0
3, 221526, Note_off_c, 4, 69, 0
3, 221526, Note_off_c, 4, 70, 0
3, 221610, Note_on_c, 4, 81, 74
3, 221610, Note_on_c, 4, 78, 69
3, 221610, Note_on_c, 4, 74, 68
3, 221611, Note_off_c, 4, 82, 0
3, 221611, Note_off_c, 4, 79, 0
3, 221611, Note_off_c, 4, 76, 0
3, 221696, Note_on_c, 4, 70, 57
3, 221696, Note_on_c, 4, 69, 55
3, 221696, Note_on_c, 4, 70, 57
3, 221697, Note_off_c, 4, 81, 0
3, 221697, Note_off_c, 4, 78, 0
3, 221697, Note_off_c, 4, 74, 0
3, 221781, Note_on_c, 4, 81, 87
3, 221781, Note_on_c, 4, 78, 85
3, 221781, Note_on_c, 4, 74, 76
3, 221782, Note_off_c, 4, 70, 0
3, 221782, Note_off_c, 4, 69, 0
3, 221782, Note_off_c, 4, 70, 0
3, 221866, Note_on_c, 4, 70, 71
3, 221866, Note_on_c, 4, 69, 68
3, 221866, Note_on_c, 4, 70, 67
3, 221867, Note_off_c, 4, 81, 0
3, 221867, Note_off_c, 4, 78, 0
3, 221867, Note_off_c, 4, 74, 0
3, 221952, Note_on_c, 4, 82, 92
3, 221952, Note_on_c, 4, 79, 87
3, 221952, Note_on_c, 4, 76, 80
3, 221953, Note_off_c, 4, 70, 0
3, 221953, Note_off_c, 4, 69, 0
3, 221953, Note_off_c, 4, 70, 0
3, 222037, Note_on_c, 4, 81, 93
3, 222037, Note_on_c, 4, 78, 81
3, 222037, Note_on_c, 4, 74, 79
3, 222038, Note_off_c, 4, 82, 0
3, 222038, Note_off_c, 4, 79, 0
3, 222038, Note_off_c, 4, 76, 0
3, 222122, Note_on_c, 4, 70, 53
3, 222122, Note_on_c, 4, 69, 56
3, 222122, Note_on_c, 4, 70, 66
3, 222123, Note_off_c, 4, 81, 0
3, 222123, Note_off_c, 4, 78, 0
3, 222123, Note_off_c, 4, 74, 0
3, 222208, Note_on_c, 4, 81, 63
3, 222208, Note_on_c, 4, 78, 67
3, 222208, Note_on_c, 4, 74, 71
3, 222209, Note_off_c, 4, 70, 0
3, 222209, Note_off_c, 4, 69, 0
3, 222209, Note_off_c, 4, 70, 0
3, 222293, Note_on_c, 4, 70, 56
3, 222293, Note_on_c, 4, 69, 60
3, 222293, Note_on_c, 4, 70, 66
3, 222294, Note_off_c, 4, 81, 0
3, 222294, Note_off_c, 4, 78, 0
3, 222294, Note_off_c, 4, 74, 0
3, 222378, Note_on_c, 4, 82, 71
3, 222378, Note_on_c, 4, 79, 73
3, 222378, Note_on_c, 4, 76, 73
3, 222379, Note_off_c, 4, 70, 0
3, 222379, Note_off_c, 4, 69, 0
3, 222379, Note_off_c, 4, 70, 0
3, 222464, Note_on_c, 4, 81, 67
3, 222464, Note_on_c, 4, 78, 68
3, 222464, Note_on_c, 4, 74, 71
3, 222465, Note_off_c, 4, 82, 0
3, 222465, Note_off_c, 4, 79, 0
3, 222465, Note_off_c, 4, 76, 0
3, 222549, Note_on_c, 4, 70, 54
3, 222549, Note_on_c, 4, 69, 51
3, 222549, Note_on_c, 4, 70, 63
3, 222550, Note_off_c, 4, 81, 0
3, 222550, Note_off_c, 4, 78, 0
3, 222550, Note_off_c, 4, 74, 0
3, 222634, Note_on_c, 4, 81, 87
3, 222634, Note_on_c, 4, 78, 84
3, 222634, Note_on_c, 4, 74, 77
3, 222635, Note_off_c, 4, 70, 0
3, 222635, Note_off_c, 4, 69, 0
3, 222635, Note_off_c, 4, 70, 0
3, 222720, Note_on_c, 4, 70, 66
3, 222720, Note_on_c, 4, 69, 70
3, 222720, Note_on_c, 4, 70, 72
3, 222721, Note_off_c, 4, 81, 0
3, 222721, Note_off_c, 4, 78, 0
3, 222721, Note_off_c, 4, 74, 0
3, 222805, Note_on_c, 4, 82, 85
3, 222805, Note_on_c, 4, 79, 85
3, 222805, Note_on_c, 4, 76, 82
3, 222806, Note_off_c, 4, 70, 0
3, 222806, Note_off_c, 4, 69, 0
3, 222806, Note_off_c, 4, 70, 0
3, 222890, Note_on_c, 4, 81, 85
3, 222890, Note_on_c, 4, 78, 87
3, 222890, Note_on_c, 4, 74, 86
3, 222891, Note_off_c, 4, 82, 0
3, 222891, Note_off_c, 4, 79, 0
3, 222891, Note_off_c, 4, 76, 0
3, 222976, Note_on_c, 4, 70, 52
3, 222976, Note_on_c, 4, 69, 56
3, 222976, Note_on_c, 4, 70, 62
3, 222977, Note_off_c, 4, 81, 0
3, 222977, Note_off_c, 4, 78, 0
3, 222977, Note_off_c, 4, 74, 0
3, 223061, Note_on_c, 4, 81, 64
3, 223061, Note_on_c, 4, 78, 62
3, 223061, Note_on_c, 4, 74, 72
3, 223062, Note_off_c, 4, 70, 0
3, 223062, Note_off_c, 4, 69, 0
3, 223062, Note_off_c, 4, 70, 0
3, 223146, Note_on_c, 4, 70, 52
3, 223146, Note_on_c, 4, 69, 57
3, 223146, Note_on_c, 4, 70, 63
3, 223147, Note_off_c, 4, 81, 0
3, 223147, Note_off_c, 4, 78, 0
3, 223147, Note_off_c, 4, 74, 0
3, 223232, Note_on_c, 4, 82, 62
3, 223232, Note_on_c, 4, 79, 64
3, 223232, Note_on_c, 4, 76, 74
3, 223233, Note_off_c, 4, 70, 0
3, 223233, Note_off_c, 4, 69, 0
3, 223233, Note_off_c, 4, 70, 0
3, 223317, Note_on_c, 4, 81, 69
3, 223317, Note_on_c, 4, 78, 71
3, 223317, Note_on_c, 4, 74, 69
3, 223318, Note_off_c, 4, 82, 0
3, 223318, Note_off_c, 4, 79, 0
3, 223318, Note_off_c, 4, 76, 0
3, 223402, Note_on_c, 4, 70, 54
3, 223402, Note_on_c, 4, 69, 57
3, 223402, Note_on_c, 4, 70, 62
3, 223403, Note_off_c, 4, 81, 0
3, 223403, Note_off_c, 4, 78, 0
3, 223403, Note_off_c, 4, 74, 0
3, 223488, Note_on_c, 4, 81, 85
3, 223488, Note_on_c, 4, 78, 82
3, 223488, Note_on_c, 4, 74, 79
3, 223489, Note_off_c, 4, 70, 0
3, 223489, Note_off_c, 4, 69, 0
3, 223489, Note_off_c, 4, 70, 0
3, 223573, Note_on_c, 4, 70, 68
3, 223573, Note_on_c, 4, 69, 63
3, 223573, Note_on_c, 4, 70, 70
3, 223574, Note_off_c, 4, 81, 0
3, 223574, Note_off_c, 4, 78, 0
3, 223574, Note_off_c, 4, 74, 0
3, 223658, Note_on_c, 4, 82, 90
3, 223658, Note_on_c, 4, 79, 86
3, 223658, Note_on_c, 4, 76, 77
3, 223659, Note_off_c, 4, 70, 0
3, 223659, Note_off_c, 4, 69, 0
3, 223659, Note_off_c, 4, 70, 0
3, 223739, Note_off_c, 4, 82, 0
3, 223739, Note_off_c, 4, 79, 0
3, 223739, Note_off_c, 4, 76, 0
3, 229888, Note_on_c, 4, 81, 77
3, 229952, Note_on_c, 4, 78, 71
3, 229953, Note_off_c, 4, 81, 0
3, 230016, Note_on_c, 4, 80, 89
3, 230017, Note_off_c, 4, 78, 0
3, 230080, Note_on_c, 4, 78, 87
3, 230081, Note_off_c, 4, 80, 0
3, 230144, Note_on_c, 4, 80, 92
3, 230145, Note_off_c, 4, 78, 0
3, 230208, Note_on_c, 4, 78, 91
3, 230209, Note_off_c, 4, 80, 0
3, 230272, Note_on_c, 4, 80, 89
3, 230273, Note_off_c, 4, 78, 0
3, 230336, Note_on_c, 4, 76, 78
3, 230337, Note_off_c, 4, 80, 0
3, 230400, Note_on_c, 4, 79, 90
3, 230401, Note_off_c, 4, 76, 0
3, 230464, Note_on_c, 4, 78, 88
3, 230465, Note_off_c, 4, 79, 0
3, 230528, Note_on_c, 4, 79, 87
3, 230529, Note_off_c, 4, 78, 0
3, 230592, Note_on_c, 4, 78, 83
3, 230593, Note_off_c, 4, 79, 0
3, 230656, Note_on_c, 4, 81, 87
3, 230657, Note_off_c, 4, 78, 0
3, 230720, Note_on_c, 4, 78, 84
3, 230721, Note_off_c, 4, 81, 0
3, 230784, Note_on_c, 4, 83, 94
3, 230785, Note_off_c, 4, 78, 0
3, 230848, Note_on_c, 4, 78, 81
3, 230849, Note_off_c, 4, 83, 0
3, 230912, Note_on_c, 4, 83, 102
3, 230912, Note_on_c, 4, 80, 76
3, 230913, Note_off_c, 4, 78, 0
3, 230976, Note_on_c, 4, 78, 89
3, 230976, Note_on_c, 4, 74, 63
3, 230977, Note_off_c, 4, 83, 0
3, 230977, Note_off_c, 4, 80, 0
3, 231040, Note_on_c, 4, 81, 88
3, 231040, Note_on_c, 4, 76, 86
3, 231041, Note_off_c, 4, 78, 0
3, 231041, Note_off_c, 4, 74, 0
3, 231104, Note_on_c, 4, 77, 79
3, 231104, Note_on_c, 4, 72, 78
3, 231105, Note_off_c, 4, 81, 0
3, 231105, Note_off_c, 4, 76, 0
3, 231168, Note_on_c, 4, 84, 97
3, 231168, Note_on_c, 4, 81, 101
3, 231169, Note_off_c, 4, 77, 0
3, 231169, Note_off_c, 4, 72, 0
3, 231232, Note_on_c, 4, 78, 79
3, 231232, Note_on_c, 4, 73, 82
3, 231233, Note_off_c, 4, 84, 0
3, 231233, Note_off_c, 4, 81, 0
3, 231296, Note_on_c, 4, 86, 97
3, 231296, Note_on_c, 4, 79, 94
3, 231297, Note_off_c, 4, 78, 0
3, 231297, Note_off_c, 4, 73, 0
3, 231360, Note_on_c, 4, 78, 84
3, 231360, Note_on_c, 4, 73, 76
3, 231361, Note_off_c, 4, 86, 0
3, 231361, Note_off_c, 4, 79, 0
3, 231424, Note_on_c, 4, 84, 93
3, 231424, Note_on_c, 4, 81, 101
3, 231425, Note_off_c, 4, 78, 0
3, 231425, Note_off_c, 4, 73, 0
3, 231488, Note_on_c, 4, 78, 80
3, 231488, Note_on_c, 4, 73, 85
3, 231489, Note_off_c, 4, 84, 0
3, 231489, Note_off_c, 4, 81, 0
3, 231552, Note_on_c, 4, 84, 96
3, 231552, Note_on_c, 4, 80, 97
3, 231553, Note_off_c, 4, 78, 0
3, 231553, Note_off_c, 4, 73, 0
3, 231616, Note_on_c, 4, 78, 83
3, 231616, Note_on_c, 4, 74, 86
3, 231617, Note_off_c, 4, 84, 0
3, 231617, Note_off_c, 4, 80, 0
3, 231680, Note_on_c, 4, 83, 92
3, 231680, Note_on_c, 4, 80, 95
3, 231681, Note_off_c, 4, 78, 0
3, 231681, Note_off_c, 4, 74, 0
3, 231744, Note_on_c, 4, 78, 81
3, 231744, Note_on_c, 4, 74, 82
3, 231745, Note_off_c, 4, 83, 0
3, 231745, Note_off_c, 4, 80, 0
3, 231808, Note_on_c, 4, 81, 88
3, 231808, Note_on_c, 4, 76, 91
3, 231809, Note_off_c, 4, 78, 0
3, 231809, Note_off_c, 4, 74, 0
3, 231872, Note_on_c, 4, 76, 78
3, 231872, Note_on_c, 4, 74, 87
3, 231873, Note_off_c, 4, 81, 0
3, 231873, Note_off_c, 4, 76, 0
3, 231936, Note_on_c, 4, 84, 100
3, 231936, Note_on_c, 4, 79, 93
3, 231937, Note_off_c, 4, 76, 0
3, 231937, Note_off_c, 4, 74, 0
3, 232000, Note_on_c, 4, 79, 93
3, 232000, Note_on_c, 4, 74, 81
3, 232001, Note_off_c, 4, 84, 0
3, 232001, Note_off_c, 4, 79, 0
3, 232064, Note_on_c, 4, 84, 97
3, 232064, Note_on_c, 4, 79, 87
3, 232065, Note_off_c, 4, 79, 0
3, 232065, Note_off_c, 4, 74, 0
3, 232128, Note_on_c, 4, 78, 85
3, 232128, Note_on_c, 4, 73, 77
3, 232129, Note_off_c, 4, 84, 0
3, 232129, Note_off_c, 4, 79, 0
3, 232192, Note_on_c, 4, 82, 97
3, 232192, Note_on_c, 4, 77, 91
3, 232193, Note_off_c, 4, 78, 0
3, 232193, Note_off_c, 4, 73, 0
3, 232252, Note_off_c, 4, 77, 0
3, 232256, Note_on_c, 4, 77, 85
3, 232257, Note_off_c, 4, 82, 0
3, 232320, Note_on_c, 4, 79, 85
3, 232321, Note_off_c, 4, 77, 0
3, 232384, Note_on_c, 4, 75, 76
3, 232385, Note_off_c, 4, 79, 0
3, 232448, Note_on_c, 4, 79, 88
3, 232449, Note_off_c, 4, 75, 0
3, 232512, Note_on_c, 4, 78, 87
3, 232513, Note_off_c, 4, 79, 0
3, 232576, Note_on_c, 4, 81, 90
3, 232577, Note_off_c, 4, 78, 0
3, 232640, Note_on_c, 4, 77, 78
3, 232641, Note_off_c, 4, 81, 0
3, 232704, Note_on_c, 4, 80, 86
3, 232705, Note_off_c, 4, 77, 0
3, 232768, Note_on_c, 4, 85, 96
3, 232769, Note_off_c, 4, 80, 0
3, 232832, Note_on_c, 4, 80, 76
3, 232833, Note_off_c, 4, 85, 0
3, 232896, Note_on_c, 4, 85, 85
3, 232897, Note_off_c, 4, 80, 0
3, 232960, Note_on_c, 4, 80, 72
3, 232960, Note_on_c, 4, 74, 76
3, 232961, Note_off_c, 4, 85, 0
3, 233024, Note_off_c, 4, 74, 0
3, 233024, Note_on_c, 4, 83, 79
3, 233024, Note_on_c, 4, 77, 91
3, 233025, Note_off_c, 4, 80, 0
3, 233088, Note_off_c, 4, 77, 0
3, 233088, Note_on_c, 4, 80, 78
3, 233088, Note_on_c, 4, 74, 81
3, 233089, Note_off_c, 4, 83, 0
3, 233152, Note_off_c, 4, 74, 0
3, 233152, Note_on_c, 4, 85, 87
3, 233152, Note_on_c, 4, 80, 98
3, 233153, Note_off_c, 4, 80, 0
3, 233216, Note_off_c, 4, 85, 0
3, 233216, Note_off_c, 4, 80, 0
3, 233216, Note_on_c, 4, 85, 84
3, 233216, Note_on_c, 4, 82, 90
3, 233280, Note_off_c, 4, 82, 0
3, 233280, Note_on_c, 4, 76, 64
3, 233281, Note_off_c, 4, 85, 0
3, 233344, Note_on_c, 4, 78, 84
3, 233345, Note_off_c, 4, 76, 0
3, 233408, Note_on_c, 4, 80, 87
3, 233409, Note_off_c, 4, 78, 0
3, 233472, Note_on_c, 4, 81, 87
3, 233472, Note_on_c, 4, 75, 77
3, 233473, Note_off_c, 4, 80, 0
3, 233536, Note_on_c, 4, 82, 87
3, 233536, Note_on_c, 4, 76, 80
3, 233537, Note_off_c, 4, 81, 0
3, 233537, Note_off_c, 4, 75, 0
3, 233600, Note_on_c, 4, 84, 95
3, 233600, Note_on_c, 4, 77, 82
3, 233601, Note_off_c, 4, 82, 0
3, 233601, Note_off_c, 4, 76, 0
3, 233664, Note_on_c, 4, 78, 81
3, 233664, Note_on_c, 4, 74, 78
3, 233665, Note_off_c, 4, 84, 0
3, 233665, Note_off_c, 4, 77, 0
3, 233728, Note_on_c, 4, 80, 88
3, 233728, Note_on_c, 4, 76, 88
3, 233729, Note_off_c, 4, 78, 0
3, 233729, Note_off_c, 4, 74, 0
3, 233792, Note_on_c, 4, 76, 77
3, 233792, Note_on_c, 4, 74, 78
3, 233793, Note_off_c, 4, 80, 0
3, 233793, Note_off_c, 4, 76, 0
3, 233856, Note_on_c, 4, 78, 87
3, 233856, Note_on_c, 4, 76, 84
3, 233857, Note_off_c, 4, 76, 0
3, 233857, Note_off_c, 4, 74, 0
3, 233920, Note_on_c, 4, 80, 96
3, 233920, Note_on_c, 4, 78, 93
3, 233921, Note_off_c, 4, 78, 0
3, 233921, Note_off_c, 4, 76, 0
3, 233984, Note_on_c, 4, 83, 91
3, 233984, Note_on_c, 4, 80, 90
3, 233985, Note_off_c, 4, 80, 0
3, 233985, Note_off_c, 4, 78, 0
3, 234048, Note_on_c, 4, 78, 77
3, 234048, Note_on_c, 4, 73, 75
3, 234049, Note_off_c, 4, 83, 0
3, 234049, Note_off_c, 4, 80, 0
3, 234112, Note_on_c, 4, 80, 87
3, 234112, Note_on_c, 4, 77, 92
3, 234113, Note_off_c, 4, 78, 0
3, 234113, Note_off_c, 4, 73, 0
3, 234176, Note_on_c, 4, 83, 97
3, 234176, Note_on_c, 4, 80, 99
3, 234177, Note_off_c, 4, 80, 0
3, 234177, Note_off_c, 4, 77, 0
3, 234240, Note_on_c, 4, 82, 81
3, 234240, Note_on_c, 4, 79, 79
3, 234241, Note_off_c, 4, 83, 0
3, 234241, Note_off_c, 4, 80, 0
3, 234300, Note_off_c, 4, 79, 0
3, 234304, Note_on_c, 4, 79, 80
3, 234305, Note_off_c, 4, 82, 0
3, 234368, Note_off_c, 4, 79, 0
3, 234368, Note_on_c, 4, 79, 81
3, 234432, Note_on_c, 4, 78, 76
3, 234433, Note_off_c, 4, 79, 0
3, 234496, Note_on_c, 4, 79, 88
3, 234497, Note_off_c, 4, 78, 0
3, 234560, Note_on_c, 4, 73, 75
3, 234561, Note_off_c, 4, 79, 0
3, 234624, Note_on_c, 4, 74, 90
3, 234624, Note_on_c, 4, 70, 72
3, 234625, Note_off_c, 4, 73, 0
3, 234688, Note_on_c, 4, 78, 101
3, 234688, Note_on_c, 4, 73, 74
3, 234689, Note_off_c, 4, 74, 0
3, 234689, Note_off_c, 4, 70, 0
3, 234752, Note_on_c, 4, 77, 83
3, 234752, Note_on_c, 4, 74, 91
3, 234753, Note_off_c, 4, 78, 0
3, 234753, Note_off_c, 4, 73, 0
3, 234816, Note_on_c, 4, 78, 83
3, 234816, Note_on_c, 4, 73, 90
3, 234817, Note_off_c, 4, 77, 0
3, 234817, Note_off_c, 4, 74, 0
3, 234880, Note_on_c, 4, 79, 87
3, 234880, Note_on_c, 4, 76, 92
3, 234881, Note_off_c, 4, 78, 0
3, 234881, Note_off_c, 4, 73, 0
3, 234944, Note_on_c, 4, 80, 90
3, 234944, Note_on_c, 4, 77, 97
3, 234945, Note_off_c, 4, 79, 0
3, 234945, Note_off_c, 4, 76, 0
3, 235008, Note_on_c, 4, 82, 86
3, 235008, Note_on_c, 4, 79, 91
3, 235009, Note_off_c, 4, 80, 0
3, 235009, Note_off_c, 4, 77, 0
3, 235072, Note_on_c, 4, 76, 71
3, 235072, Note_on_c, 4, 73, 77
3, 235073, Note_off_c, 4, 82, 0
3, 235073, Note_off_c, 4, 79, 0
3, 235136, Note_on_c, 4, 77, 85
3, 235136, Note_on_c, 4, 74, 91
3, 235137, Note_off_c, 4, 76, 0
3, 235137, Note_off_c, 4, 73, 0
3, 235200, Note_on_c, 4, 78, 94
3, 235200, Note_on_c, 4, 73, 88
3, 235201, Note_off_c, 4, 77, 0
3, 235201, Note_off_c, 4, 74, 0
3, 235264, Note_on_c, 4, 83, 97
3, 235264, Note_on_c, 4, 80, 104
3, 235265, Note_off_c, 4, 78, 0
3, 235265, Note_off_c, 4, 73, 0
3, 235324, Note_off_c, 4, 80, 0
3, 235328, Note_on_c, 4, 79, 89
3, 235329, Note_off_c, 4, 83, 0
3, 235392, Note_on_c, 4, 80, 89
3, 235393, Note_off_c, 4, 79, 0
3, 235456, Note_on_c, 4, 79, 82
3, 235457, Note_off_c, 4, 80, 0
3, 235520, Note_on_c, 4, 77, 74
3, 235520, Note_on_c, 4, 74, 75
3, 235521, Note_off_c, 4, 79, 0
3, 235584, Note_on_c, 4, 78, 79
3, 235584, Note_on_c, 4, 73, 69
3, 235585, Note_off_c, 4, 77, 0
3, 235585, Note_off_c, 4, 74, 0
3, 235648, Note_on_c, 4, 79, 91
3, 235648, Note_on_c, 4, 76, 92
3, 235649, Note_off_c, 4, 78, 0
3, 235649, Note_off_c, 4, 73, 0
3, 235712, Note_on_c, 4, 80, 97
3, 235712, Note_on_c, 4, 77, 95
3, 235713, Note_off_c, 4, 79, 0
3, 235713, Note_off_c, 4, 76, 0
3, 235776, Note_on_c, 4, 82, 88
3, 235776, Note_on_c, 4, 79, 91
3, 235777, Note_off_c, 4, 80, 0
3, 235777, Note_off_c, 4, 77, 0
3, 235840, Note_on_c, 4, 76, 80
3, 235840, Note_on_c, 4, 73, 81
3, 235841, Note_off_c, 4, 82, 0
3, 235841, Note_off_c, 4, 79, 0
3, 235904, Note_on_c, 4, 77, 86
3, 235904, Note_on_c, 4, 74, 90
3, 235905, Note_off_c, 4, 76, 0
3, 235905, Note_off_c, 4, 73, 0
3, 235968, Note_on_c, 4, 78, 95
3, 235968, Note_on_c, 4, 73, 86
3, 235969, Note_off_c, 4, 77, 0
3, 235969, Note_off_c, 4, 74, 0
3, 236032, Note_on_c, 4, 83, 95
3, 236032, Note_on_c, 4, 80, 97
3, 236033, Note_off_c, 4, 78, 0
3, 236033, Note_off_c, 4, 73, 0
3, 236096, Note_on_c, 4, 79, 87
3, 236096, Note_on_c, 4, 74, 82
3, 236097, Note_off_c, 4, 83, 0
3, 236097, Note_off_c, 4, 80, 0
3, 236160, Note_on_c, 4, 80, 87
3, 236160, Note_on_c, 4, 77, 92
3, 236161, Note_off_c, 4, 79, 0
3, 236161, Note_off_c, 4, 74, 0
3, 236224, Note_on_c, 4, 79, 86
3, 236224, Note_on_c, 4, 74, 89
3, 236225, Note_off_c, 4, 80, 0
3, 236225, Note_off_c, 4, 77, 0
3, 236284, Note_off_c, 4, 74, 0
3, 236288, Note_on_c, 4, 77, 77
3, 236289, Note_off_c, 4, 79, 0
3, 236352, Note_on_c, 4, 78, 82
3, 236353, Note_off_c, 4, 77, 0
3, 236416, Note_on_c, 4, 79, 89
3, 236417, Note_off_c, 4, 78, 0
3, 236480, Note_on_c, 4, 80, 92
3, 236481, Note_off_c, 4, 79, 0
3, 236544, Note_on_c, 4, 82, 89
3, 236545, Note_off_c, 4, 80, 0
3, 236608, Note_on_c, 4, 76, 79
3, 236609, Note_off_c, 4, 82, 0
3, 236672, Note_on_c, 4, 77, 87
3, 236673, Note_off_c, 4, 76, 0
3, 236736, Note_on_c, 4, 78, 90
3, 236737, Note_off_c, 4, 77, 0
3, 236800, Note_on_c, 4, 83, 100
3, 236801, Note_off_c, 4, 78, 0
3, 236864, Note_on_c, 4, 79, 93
3, 236865, Note_off_c, 4, 83, 0
3, 236928, Note_on_c, 4, 80, 89
3, 236929, Note_off_c, 4, 79, 0
3, 236992, Note_on_c, 4, 79, 84
3, 236993, Note_off_c, 4, 80, 0
3, 237056, Note_on_c, 4, 83, 92
3, 237057, Note_off_c, 4, 79, 0
3, 237120, Note_on_c, 4, 77, 76
3, 237121, Note_off_c, 4, 83, 0
3, 237184, Note_on_c, 4, 78, 80
3, 237185, Note_off_c, 4, 77, 0
3, 237248, Note_on_c, 4, 83, 87
3, 237249, Note_off_c, 4, 78, 0
3, 237312, Note_on_c, 4, 84, 92
3, 237313, Note_off_c, 4, 83, 0
3, 237376, Note_on_c, 4, 80, 86
3, 237377, Note_off_c, 4, 84, 0
3, 237440, Note_on_c, 4, 83, 88
3, 237441, Note_off_c, 4, 80, 0
3, 237504, Note_on_c, 4, 85, 94
3, 237505, Note_off_c, 4, 83, 0
3, 237568, Note_on_c, 4, 83, 80
3, 237569, Note_off_c, 4, 85, 0
3, 237632, Note_on_c, 4, 77, 67
3, 237633, Note_off_c, 4, 83, 0
3, 237696, Note_on_c, 4, 78, 89
3, 237697, Note_off_c, 4, 77, 0
3, 237760, Note_on_c, 4, 83, 101
3, 237761, Note_off_c, 4, 78, 0
3, 237824, Note_off_c, 4, 83, 0
3, 237824, Note_on_c, 4, 83, 83
3, 237824, Note_on_c, 4, 82, 75
3, 237888, Note_on_c, 4, 80, 69
3, 237888, Note_on_c, 4, 77, 64
3, 237889, Note_off_c, 4, 83, 0
3, 237889, Note_off_c, 4, 82, 0
3, 237952, Note_on_c, 4, 83, 89
3, 237952, Note_on_c, 4, 80, 88
3, 237953, Note_off_c, 4, 80, 0
3, 237953, Note_off_c, 4, 77, 0
3, 238016, Note_on_c, 4, 85, 95
3, 238016, Note_on_c, 4, 82, 91
3, 238017, Note_off_c, 4, 83, 0
3, 238017, Note_off_c, 4, 80, 0
3, 238080, Note_off_c, 4, 85, 0
3, 238080, Note_on_c, 4, 85, 83
3, 238080, Note_on_c, 4, 83, 92
3, 238081, Note_off_c, 4, 82, 0
3, 238144, Note_on_c, 4, 73, 61
3, 238144, Note_on_c, 4, 70, 68
3, 238145, Note_off_c, 4, 85, 0
3, 238145, Note_off_c, 4, 83, 0
3, 238204, Note_off_c, 4, 70, 0
3, 238208, Note_on_c, 4, 74, 86
3, 238209, Note_off_c, 4, 73, 0
3, 238272, Note_on_c, 4, 79, 98
3, 238273, Note_off_c, 4, 74, 0
3, 238336, Note_on_c, 4, 77, 75
3, 238337, Note_off_c, 4, 79, 0
3, 238400, Note_on_c, 4, 79, 80
3, 238401, Note_off_c, 4, 77, 0
3, 238464, Note_on_c, 4, 82, 90
3, 238465, Note_off_c, 4, 79, 0
3, 238528, Note_on_c, 4, 80, 89
3, 238528, Note_on_c, 4, 77, 78
3, 238529, Note_off_c, 4, 82, 0
3, 238592, Note_on_c, 4, 82, 90
3, 238592, Note_on_c, 4, 74, 71
3, 238593, Note_off_c, 4, 80, 0
3, 238593, Note_off_c, 4, 77, 0
3, 238656, Note_on_c, 4, 77, 76
3, 238656, Note_on_c, 4, 73, 77
3, 238657, Note_off_c, 4, 82, 0
3, 238657, Note_off_c, 4, 74, 0
3, 238716, Note_off_c, 4, 77, 0
3, 238720, Note_on_c, 4, 77, 79
3, 238720, Note_on_c, 4, 70, 76
3, 238721, Note_off_c, 4, 73, 0
3, 238784, Note_on_c, 4, 79, 85
3, 238784, Note_on_c, 4, 73, 88
3, 238785, Note_off_c, 4, 77, 0
3, 238785, Note_off_c, 4, 70, 0
3, 238848, Note_on_c, 4, 80, 85
3, 238848, Note_on_c, 4, 71, 82
3, 238849, Note_off_c, 4, 79, 0
3, 238849, Note_off_c, 4, 73, 0
3, 238908, Note_off_c, 4, 80, 0
3, 238912, Note_on_c, 4, 80, 89
3, 238912, Note_on_c, 4, 74, 88
3, 238913, Note_off_c, 4, 71, 0
3, 238976, Note_on_c, 4, 79, 85
3, 238976, Note_on_c, 4, 70, 79
3, 238977, Note_off_c, 4, 80, 0
3, 238977, Note_off_c, 4, 74, 0
3, 239036, Note_off_c, 4, 79, 0
3, 239040, Note_on_c, 4, 79, 86
3, 239040, Note_on_c, 4, 73, 92
3, 239041, Note_off_c, 4, 70, 0
3, 239104, Note_on_c, 4, 77, 84
3, 239104, Note_on_c, 4, 70, 86
3, 239105, Note_off_c, 4, 79, 0
3, 239105, Note_off_c, 4, 73, 0
3, 239164, Note_off_c, 4, 77, 0
3, 239164, Note_off_c, 4, 70, 0
3, 239168, Note_on_c, 4, 77, 81
3, 239232, Note_off_c, 4, 77, 0
3, 239232, Note_on_c, 4, 77, 85
3, 239296, Note_off_c, 4, 77, 0
3, 239296, Note_on_c, 4, 77, 85
3, 239360, Note_on_c, 4, 76, 81
3, 239361, Note_off_c, 4, 77, 0
3, 239420, Note_off_c, 4, 76, 0
3, 239424, Note_on_c, 4, 74, 77
3, 239488, Note_off_c, 4, 74, 0
3, 239488, Note_on_c, 4, 73, 77
3, 239552, Note_off_c, 4, 73, 0
3, 239552, Note_on_c, 4, 73, 85
3, 239616, Note_on_c, 4, 76, 96
3, 239617, Note_off_c, 4, 73, 0
3, 239676, Note_off_c, 4, 76, 0
3, 239680, Note_on_c, 4, 76, 86
3, 239744, Note_on_c, 4, 74, 81
3, 239745, Note_off_c, 4, 76, 0
3, 239804, Note_off_c, 4, 74, 0
3, 239808, Note_on_c, 4, 74, 82
3, 239872, Note_on_c, 4, 71, 74
3, 239873, Note_off_c, 4, 74, 0
3, 239932, Note_off_c, 4, 71, 0
3, 239936, Note_on_c, 4, 71, 77
3, 240000, Note_on_c, 4, 70, 66
3, 240001, Note_off_c, 4, 71, 0
3, 240060, Note_off_c, 4, 70, 0
3, 240064, Note_on_c, 4, 70, 83
3, 240128, Note_on_c, 4, 68, 80
3, 240129, Note_off_c, 4, 70, 0
3, 240188, Note_off_c, 4, 68, 0
3, 240192, Note_on_c, 4, 69, 84
3, 240256, Note_on_c, 4, 65, 74
3, 240257, Note_off_c, 4, 69, 0
3, 240320, Note_on_c, 4, 69, 96
3, 240321, Note_off_c, 4, 65, 0
3, 240384, Note_on_c, 4, 67, 91
3, 240385, Note_off_c, 4, 69, 0
3, 240444, Note_off_c, 4, 67, 0
3, 240448, Note_on_c, 4, 70, 87
3, 240512, Note_off_c, 4, 70, 0
3, 240512, Note_on_c, 4, 71, 83
3, 240512, Note_on_c, 4, 70, 83
3, 240576, Note_on_c, 4, 65, 82
3, 240576, Note_on_c, 4, 67, 82
3, 240577, Note_off_c, 4, 71, 0
3, 240577, Note_off_c, 4, 70, 0
3, 240636, Note_off_c, 4, 65, 0
3, 240636, Note_off_c, 4, 67, 0
3, 240704, Note_on_c, 4, 70, 73
3, 240704, Note_on_c, 4, 68, 76
3, 240768, Note_on_c, 4, 79, 85
3, 240768, Note_on_c, 4, 74, 88
3, 240769, Note_off_c, 4, 70, 0
3, 240769, Note_off_c, 4, 68, 0
3, 240832, Note_on_c, 4, 74, 77
3, 240832, Note_on_c, 4, 68, 77
3, 240833, Note_off_c, 4, 79, 0
3, 240833, Note_off_c, 4, 74, 0
3, 240892, Note_off_c, 4, 74, 0
3, 240897, Note_off_c, 4, 68, 0
3, 240960, Note_on_c, 4, 79, 74
3, 240960, Note_on_c, 4, 71, 78
3, 241024, Note_on_c, 4, 77, 80
3, 241024, Note_on_c, 4, 83, 80
3, 241024, Note_on_c, 4, 77, 91
3, 241025, Note_off_c, 4, 79, 0
3, 241025, Note_off_c, 4, 71, 0
3, 241088, Note_off_c, 4, 77, 0
3, 241088, Note_on_c, 4, 77, 70
3, 241088, Note_on_c, 4, 67, 71
3, 241089, Note_off_c, 4, 83, 0
3, 241089, Note_off_c, 4, 77, 0
3, 241148, Note_off_c, 4, 77, 0
3, 241152, Note_on_c, 4, 71, 71
3, 241152, Note_on_c, 4, 68, 73
3, 241153, Note_off_c, 4, 67, 0
3, 241216, Note_on_c, 4, 74, 76
3, 241216, Note_on_c, 4, 70, 89
3, 241217, Note_off_c, 4, 71, 0
3, 241217, Note_off_c, 4, 68, 0
3, 241280, Note_on_c, 4, 80, 95
3, 241280, Note_on_c, 4, 76, 100
3, 241281, Note_off_c, 4, 74, 0
3, 241281, Note_off_c, 4, 70, 0
3, 241344, Note_on_c, 4, 79, 92
3, 241344, Note_on_c, 4, 73, 77
3, 241345, Note_off_c, 4, 80, 0
3, 241345, Note_off_c, 4, 76, 0
3, 241408, Note_on_c, 4, 80, 85
3, 241408, Note_on_c, 4, 74, 82
3, 241409, Note_off_c, 4, 79, 0
3, 241409, Note_off_c, 4, 73, 0
3, 241472, Note_on_c, 4, 82, 89
3, 241472, Note_on_c, 4, 77, 97
3, 241473, Note_off_c, 4, 80, 0
3, 241473, Note_off_c, 4, 74, 0
3, 241536, Note_on_c, 4, 83, 88
3, 241536, Note_on_c, 4, 80, 105
3, 241537, Note_off_c, 4, 82, 0
3, 241537, Note_off_c, 4, 77, 0
3, 241600, Note_on_c, 4, 82, 81
3, 241600, Note_on_c, 4, 77, 77
3, 241601, Note_off_c, 4, 83, 0
3, 241601, Note_off_c, 4, 80, 0
3, 241660, Note_off_c, 4, 77, 0
3, 241664, Note_on_c, 4, 73, 65
3, 241665, Note_off_c, 4, 82, 0
3, 241728, Note_on_c, 4, 76, 65
3, 241729, Note_off_c, 4, 73, 0
3, 241792, Note_on_c, 4, 83, 102
3, 241793, Note_off_c, 4, 76, 0
3, 241856, Note_on_c, 4, 80, 100
3, 241857, Note_off_c, 4, 83, 0
3, 241916, Note_off_c, 4, 80, 0
3, 241984, Note_on_c, 4, 71, 77
3, 242048, Note_on_c, 4, 79, 96
3, 242049, Note_off_c, 4, 71, 0
3, 242112, Note_on_c, 4, 74, 75
3, 242113, Note_off_c, 4, 79, 0
3, 242176, Note_on_c, 4, 71, 68
3, 242177, Note_off_c, 4, 74, 0
3, 242240, Note_on_c, 4, 76, 93
3, 242241, Note_off_c, 4, 71, 0
3, 242304, Note_on_c, 4, 82, 112
3, 242305, Note_off_c, 4, 76, 0
3, 242368, Note_on_c, 4, 77, 75
3, 242369, Note_off_c, 4, 82, 0
3, 242432, Note_off_c, 4, 77, 0
3, 242432, Note_on_c, 4, 77, 81
3, 242496, Note_on_c, 4, 80, 89
3, 242497, Note_off_c, 4, 77, 0
3, 242560, Note_on_c, 4, 83, 91
3, 242561, Note_off_c, 4, 80, 0
3, 242624, Note_on_c, 4, 80, 87
3, 242625, Note_off_c, 4, 83, 0
3, 242688, Note_on_c, 4, 86, 98
3, 242689, Note_off_c, 4, 80, 0
3, 242752, Note_on_c, 4, 80, 83
3, 242753, Note_off_c, 4, 86, 0
3, 242812, Note_off_c, 4, 80, 0
3, 242816, Note_on_c, 4, 85, 75
3, 242880, Note_on_c, 4, 82, 70
3, 242881, Note_off_c, 4, 85, 0
3, 242944, Note_on_c, 4, 77, 72
3, 242945, Note_off_c, 4, 82, 0
3, 243008, Note_on_c, 4, 71, 56
3, 243009, Note_off_c, 4, 77, 0
3, 243068, Note_off_c, 4, 71, 0
3, 243072, Note_on_c, 4, 82, 70
3, 243072, Note_on_c, 4, 82, 101
3, 243136, Note_on_c, 4, 79, 62
3, 243136, Note_on_c, 4, 79, 94
3, 243137, Note_off_c, 4, 82, 0
3, 243137, Note_off_c, 4, 82, 0
3, 243200, Note_on_c, 4, 71, 69
3, 243200, Note_on_c, 4, 71, 62
3, 243201, Note_off_c, 4, 79, 0
3, 243201, Note_off_c, 4, 79, 0
3, 243264, Note_on_c, 4, 68, 60
3, 243264, Note_on_c, 4, 68, 54
3, 243265, Note_off_c, 4, 71, 0
3, 243265, Note_off_c, 4, 71, 0
3, 243328, Note_on_c, 4, 79, 103
3, 243328, Note_on_c, 4, 79, 107
3, 243329, Note_off_c, 4, 68, 0
3, 243329, Note_off_c, 4, 68, 0
3, 243392, Note_on_c, 4, 74, 95
3, 243392, Note_on_c, 4, 74, 95
3, 243393, Note_off_c, 4, 79, 0
3, 243393, Note_off_c, 4, 79, 0
3, 243456, Note_on_c, 4, 68, 70
3, 243456, Note_on_c, 4, 68, 69
3, 243457, Note_off_c, 4, 74, 0
3, 243457, Note_off_c, 4, 74, 0
3, 243520, Note_on_c, 4, 65, 63
3, 243520, Note_on_c, 4, 65, 65
3, 243521, Note_off_c, 4, 68, 0
3, 243521, Note_off_c, 4, 68, 0
3, 243584, Note_on_c, 4, 73, 98
3, 243584, Note_on_c, 4, 73, 97
3, 243585, Note_off_c, 4, 65, 0
3, 243585, Note_off_c, 4, 65, 0
3, 243648, Note_on_c, 4, 70, 97
3, 243648, Note_on_c, 4, 70, 94
3, 243649, Note_off_c, 4, 73, 0
3, 243649, Note_off_c, 4, 73, 0
3, 243708, Note_off_c, 4, 70, 0
3, 243708, Note_off_c, 4, 70, 0
3, 243776, Note_on_c, 4, 68, 74
3, 243776, Note_on_c, 4, 64, 72
3, 243840, Note_on_c, 4, 71, 78
3, 243840, Note_on_c, 4, 67, 75
3, 243841, Note_off_c, 4, 68, 0
3, 243841, Note_off_c, 4, 64, 0
3, 243904, Note_on_c, 4, 76, 96
3, 243904, Note_on_c, 4, 70, 95
3, 243905, Note_off_c, 4, 71, 0
3, 243905, Note_off_c, 4, 67, 0
3, 243968, Note_on_c, 4, 79, 109
3, 243968, Note_on_c, 4, 73, 111
3, 243969, Note_off_c, 4, 76, 0
3, 243969, Note_off_c, 4, 70, 0
3, 244032, Note_on_c, 4, 82, 91
3, 244032, Note_on_c, 4, 77, 94
3, 244033, Note_off_c, 4, 79, 0
3, 244033, Note_off_c, 4, 73, 0
3, 244096, Note_on_c, 4, 83, 97
3, 244096, Note_on_c, 4, 80, 102
3, 244097, Note_off_c, 4, 82, 0
3, 244097, Note_off_c, 4, 77, 0
3, 244156, Note_off_c, 4, 83, 0
3, 244156, Note_off_c, 4, 80, 0
3, 244224, Note_on_c, 4, 71, 75
3, 244224, Note_on_c, 4, 67, 74
3, 244288, Note_on_c, 4, 74, 79
3, 244288, Note_on_c, 4, 70, 80
3, 244289, Note_off_c, 4, 71, 0
3, 244289, Note_off_c, 4, 67, 0
3, 244352, Note_on_c, 4, 80, 94
3, 244352, Note_on_c, 4, 74, 93
3, 244353, Note_off_c, 4, 74, 0
3, 244353, Note_off_c, 4, 70, 0
3, 244416, Note_on_c, 4, 82, 104
3, 244416, Note_on_c, 4, 77, 101
3, 244417, Note_off_c, 4, 80, 0
3, 244417, Note_off_c, 4, 74, 0
3, 244480, Note_on_c, 4, 85, 92
3, 244480, Note_on_c, 4, 80, 92
3, 244481, Note_off_c, 4, 82, 0
3, 244481, Note_off_c, 4, 77, 0
3, 244540, Note_off_c, 4, 85, 0
3, 244544, Note_on_c, 4, 83, 103
3, 244545, Note_off_c, 4, 80, 0
3, 244608, Note_on_c, 4, 85, 90
3, 244609, Note_off_c, 4, 83, 0
3, 244668, Note_off_c, 4, 85, 0
3, 244736, Note_on_c, 4, 71, 78
3, 244800, Note_on_c, 4, 77, 88
3, 244801, Note_off_c, 4, 71, 0
3, 244864, Note_on_c, 4, 80, 95
3, 244865, Note_off_c, 4, 77, 0
3, 244928, Note_on_c, 4, 83, 101
3, 244929, Note_off_c, 4, 80, 0
3, 244992, Note_on_c, 4, 89, 101
3, 244993, Note_off_c, 4, 83, 0
3, 245052, Note_off_c, 4, 89, 0
3, 245120, Note_on_c, 4, 73, 74
3, 245184, Note_on_c, 4, 77, 85
3, 245185, Note_off_c, 4, 73, 0
3, 245248, Note_on_c, 4, 82, 107
3, 245248, Note_on_c, 4, 88, 107
3, 245249, Note_off_c, 4, 77, 0
3, 245312, Note_on_c, 4, 86, 103
3, 245313, Note_off_c, 4, 82, 0
3, 245313, Note_off_c, 4, 88, 0
3, 245376, Note_on_c, 4, 83, 77
3, 245377, Note_off_c, 4, 86, 0
3, 245440, Note_on_c, 4, 77, 71
3, 245440, Note_on_c, 4, 82, 71
3, 245441, Note_off_c, 4, 83, 0
3, 245504, Note_on_c, 4, 80, 89
3, 245504, Note_on_c, 4, 85, 89
3, 245505, Note_off_c, 4, 77, 0
3, 245505, Note_off_c, 4, 82, 0
3, 245568, Note_on_c, 4, 82, 87
3, 245569, Note_off_c, 4, 80, 0
3, 245569, Note_off_c, 4, 85, 0
3, 245632, Note_on_c, 4, 80, 76
3, 245633, Note_off_c, 4, 82, 0
3, 245696, Note_on_c, 4, 74, 68
3, 245697, Note_off_c, 4, 80, 0
3, 245760, Note_on_c, 4, 82, 96
3, 245760, Note_on_c, 4, 77, 72
3, 245761, Note_off_c, 4, 74, 0
3, 245824, Note_on_c, 4, 86, 105
3, 245824, Note_on_c, 4, 80, 81
3, 245825, Note_off_c, 4, 82, 0
3, 245825, Note_off_c, 4, 77, 0
3, 245888, Note_on_c, 4, 83, 82
3, 245888, Note_on_c, 4, 77, 74
3, 245889, Note_off_c, 4, 86, 0
3, 245889, Note_off_c, 4, 80, 0
3, 245952, Note_on_c, 4, 77, 68
3, 245952, Note_on_c, 4, 71, 60
3, 245953, Note_off_c, 4, 83, 0
3, 245953, Note_off_c, 4, 77, 0
3, 246016, Note_on_c, 4, 80, 89
3, 246016, Note_on_c, 4, 73, 88
3, 246017, Note_off_c, 4, 77, 0
3, 246017, Note_off_c, 4, 71, 0
3, 246080, Note_on_c, 4, 83, 96
3, 246080, Note_on_c, 4, 77, 96
3, 246081, Note_off_c, 4, 80, 0
3, 246081, Note_off_c, 4, 73, 0
3, 246144, Note_on_c, 4, 80, 77
3, 246144, Note_on_c, 4, 74, 77
3, 246145, Note_off_c, 4, 83, 0
3, 246145, Note_off_c, 4, 77, 0
3, 246208, Note_on_c, 4, 73, 65
3, 246208, Note_on_c, 4, 68, 59
3, 246209, Note_off_c, 4, 80, 0
3, 246209, Note_off_c, 4, 74, 0
3, 246272, Note_on_c, 4, 77, 90
3, 246272, Note_on_c, 4, 71, 93
3, 246273, Note_off_c, 4, 73, 0
3, 246273, Note_off_c, 4, 68, 0
3, 246336, Note_on_c, 4, 82, 108
3, 246336, Note_on_c, 4, 76, 110
3, 246337, Note_off_c, 4, 77, 0
3, 246337, Note_off_c, 4, 71, 0
3, 246400, Note_on_c, 4, 79, 78
3, 246400, Note_on_c, 4, 71, 76
3, 246401, Note_off_c, 4, 82, 0
3, 246401, Note_off_c, 4, 76, 0
3, 246464, Note_on_c, 4, 71, 62
3, 246464, Note_on_c, 4, 67, 68
3, 246465, Note_off_c, 4, 79, 0
3, 246465, Note_off_c, 4, 71, 0
3, 246528, Note_on_c, 4, 80, 100
3, 246528, Note_on_c, 4, 71, 87
3, 246529, Note_off_c, 4, 71, 0
3, 246529, Note_off_c, 4, 67, 0
3, 246592, Note_on_c, 4, 82, 110
3, 246592, Note_on_c, 4, 77, 99
3, 246593, Note_off_c, 4, 80, 0
3, 246593, Note_off_c, 4, 71, 0
3, 246656, Note_on_c, 4, 80, 75
3, 246656, Note_on_c, 4, 73, 76
3, 246657, Note_off_c, 4, 82, 0
3, 246657, Note_off_c, 4, 77, 0
3, 246720, Note_on_c, 4, 73, 60
3, 246720, Note_on_c, 4, 68, 66
3, 246721, Note_off_c, 4, 80, 0
3, 246721, Note_off_c, 4, 73, 0
3, 246784, Note_on_c, 4, 77, 89
3, 246784, Note_on_c, 4, 70, 85
3, 246785, Note_off_c, 4, 73, 0
3, 246785, Note_off_c, 4, 68, 0
3, 246848, Note_on_c, 4, 80, 101
3, 246848, Note_on_c, 4, 73, 91
3, 246849, Note_off_c, 4, 77, 0
3, 246849, Note_off_c, 4, 70, 0
3, 246912, Note_on_c, 4, 77, 81
3, 246912, Note_on_c, 4, 70, 75
3, 246913, Note_off_c, 4, 80, 0
3, 246913, Note_off_c, 4, 73, 0
3, 246976, Note_on_c, 4, 70, 71
3, 246976, Note_on_c, 4, 65, 67
3, 246977, Note_off_c, 4, 77, 0
3, 246977, Note_off_c, 4, 70, 0
3, 247040, Note_on_c, 4, 71, 86
3, 247040, Note_on_c, 4, 68, 83
3, 247041, Note_off_c, 4, 70, 0
3, 247041, Note_off_c, 4, 65, 0
3, 247104, Note_on_c, 4, 77, 97
3, 247104, Note_on_c, 4, 70, 89
3, 247105, Note_off_c, 4, 71, 0
3, 247105, Note_off_c, 4, 68, 0
3, 247168, Note_on_c, 4, 73, 75
3, 247168, Note_on_c, 4, 68, 79
3, 247169, Note_off_c, 4, 77, 0
3, 247169, Note_off_c, 4, 70, 0
3, 247228, Note_off_c, 4, 68, 0
3, 247232, Note_on_c, 4, 68, 60
3, 247233, Note_off_c, 4, 73, 0
3, 247296, Note_on_c, 4, 70, 89
3, 247296, Note_on_c, 4, 65, 79
3, 247297, Note_off_c, 4, 68, 0
3, 247360, Note_on_c, 4, 76, 107
3, 247360, Note_on_c, 4, 70, 87
3, 247361, Note_off_c, 4, 70, 0
3, 247361, Note_off_c, 4, 65, 0
3, 247424, Note_on_c, 4, 70, 75
3, 247424, Note_on_c, 4, 67, 77
3, 247425, Note_off_c, 4, 76, 0
3, 247425, Note_off_c, 4, 70, 0
3, 247484, Note_off_c, 4, 67, 0
3, 247488, Note_on_c, 4, 67, 64
3, 247489, Note_off_c, 4, 70, 0
3, 247552, Note_on_c, 4, 70, 100
3, 247552, Note_on_c, 4, 77, 100
3, 247552, Note_on_c, 4, 65, 77
3, 247553, Note_off_c, 4, 67, 0
3, 247616, Note_on_c, 4, 67, 97
3, 247616, Note_on_c, 4, 74, 97
3, 247617, Note_off_c, 4, 70, 0
3, 247617, Note_off_c, 4, 77, 0
3, 247637, Note_on_c, 4, 62, 64
3, 247638, Note_off_c, 4, 65, 0
3, 247676, Note_off_c, 4, 67, 0
3, 247676, Note_off_c, 4, 74, 0
3, 247722, Note_on_c, 4, 65, 89
3, 247723, Note_off_c, 4, 62, 0
3, 247744, Note_on_c, 4, 70, 72
3, 247744, Note_on_c, 4, 77, 72
3, 247808, Note_on_c, 4, 76, 70
3, 247808, Note_on_c, 4, 79, 70
3, 247808, Note_on_c, 4, 71, 102
3, 247809, Note_off_c, 4, 70, 0
3, 247809, Note_off_c, 4, 77, 0
3, 247809, Note_off_c, 4, 65, 0
3, 247872, Note_off_c, 4, 76, 0
3, 247872, Note_on_c, 4, 71, 77
3, 247872, Note_on_c, 4, 76, 77
3, 247873, Note_off_c, 4, 79, 0
3, 247893, Note_on_c, 4, 68, 78
3, 247894, Note_off_c, 4, 71, 0
3, 247932, Note_off_c, 4, 71, 0
3, 247932, Note_off_c, 4, 76, 0
3, 247978, Note_on_c, 4, 65, 69
3, 247979, Note_off_c, 4, 68, 0
3, 248000, Note_on_c, 4, 70, 74
3, 248000, Note_on_c, 4, 71, 74
3, 248064, Note_off_c, 4, 71, 0
3, 248064, Note_on_c, 4, 71, 81
3, 248064, Note_on_c, 4, 76, 81
3, 248064, Note_on_c, 4, 68, 90
3, 248065, Note_off_c, 4, 70, 0
3, 248065, Note_off_c, 4, 65, 0
3, 248128, Note_on_c, 4, 79, 98
3, 248128, Note_on_c, 4, 82, 98
3, 248129, Note_off_c, 4, 71, 0
3, 248129, Note_off_c, 4, 76, 0
3, 248149, Note_on_c, 4, 74, 110
3, 248150, Note_off_c, 4, 68, 0
3, 248188, Note_off_c, 4, 79, 0
3, 248188, Note_off_c, 4, 82, 0
3, 248234, Note_on_c, 4, 73, 83
3, 248235, Note_off_c, 4, 74, 0
3, 248256, Note_on_c, 4, 77, 75
3, 248256, Note_on_c, 4, 80, 75
3, 248320, Note_on_c, 4, 71, 67
3, 248320, Note_on_c, 4, 76, 67
3, 248320, Note_on_c, 4, 68, 73
3, 248321, Note_off_c, 4, 77, 0
3, 248321, Note_off_c, 4, 80, 0
3, 248321, Note_off_c, 4, 73, 0
3, 248384, Note_off_c, 4, 76, 0
3, 248384, Note_on_c, 4, 76, 95
3, 248384, Note_on_c, 4, 79, 95
3, 248385, Note_off_c, 4, 71, 0
3, 248405, Note_on_c, 4, 71, 90
3, 248406, Note_off_c, 4, 68, 0
3, 248444, Note_off_c, 4, 76, 0
3, 248444, Note_off_c, 4, 79, 0
3, 248490, Note_on_c, 4, 77, 109
3, 248491, Note_off_c, 4, 71, 0
3, 248512, Note_on_c, 4, 82, 71
3, 248576, Note_on_c, 4, 79, 66
3, 248576, Note_on_c, 4, 74, 79
3, 248577, Note_off_c, 4, 82, 0
3, 248577, Note_off_c, 4, 77, 0
3, 248640, Note_on_c, 4, 71, 66
3, 248641, Note_off_c, 4, 79, 0
3, 248661, Note_on_c, 4, 68, 59
3, 248662, Note_off_c, 4, 74, 0
3, 248700, Note_off_c, 4, 71, 0
3, 248746, Note_on_c, 4, 74, 96
3, 248747, Note_off_c, 4, 68, 0
3, 248768, Note_on_c, 4, 79, 78
3, 248827, Note_off_c, 4, 74, 0
3, 248832, Note_on_c, 4, 71, 57
3, 248833, Note_off_c, 4, 79, 0
3, 248892, Note_off_c, 4, 71, 0
3, 249088, Note_on_c, 4, 71, 71
3, 249088, Note_on_c, 4, 77, 71
3, 249152, Note_off_c, 4, 77, 0
3, 249152, Note_on_c, 4, 77, 79
3, 249152, Note_on_c, 4, 82, 79
3, 249153, Note_off_c, 4, 71, 0
3, 249216, Note_on_c, 4, 80, 90
3, 249216, Note_on_c, 4, 85, 90
3, 249217, Note_off_c, 4, 77, 0
3, 249217, Note_off_c, 4, 82, 0
3, 249280, Note_on_c, 4, 83, 85
3, 249281, Note_off_c, 4, 80, 0
3, 249281, Note_off_c, 4, 85, 0
3, 249340, Note_off_c, 4, 83, 0
3, 249472, Note_on_c, 4, 79, 69
3, 249536, Note_on_c, 4, 82, 69
3, 249537, Note_off_c, 4, 79, 0
3, 249600, Note_on_c, 4, 88, 95
3, 249601, Note_off_c, 4, 82, 0
3, 249660, Note_off_c, 4, 88, 0
3, 250560, Note_on_c, 4, 77, 76
3, 250560, Note_on_c, 4, 82, 76
3, 250624, Note_on_c, 4, 80, 86
3, 250624, Note_on_c, 4, 86, 86
3, 250625, Note_off_c, 4, 77, 0
3, 250625, Note_off_c, 4, 82, 0
3, 250688, Note_on_c, 4, 77, 77
3, 250688, Note_on_c, 4, 83, 77
3, 250689, Note_off_c, 4, 80, 0
3, 250689, Note_off_c, 4, 86, 0
3, 250752, Note_off_c, 4, 77, 0
3, 250752, Note_on_c, 4, 77, 65
3, 250753, Note_off_c, 4, 83, 0
3, 250816, Note_on_c, 4, 73, 74
3, 250817, Note_off_c, 4, 77, 0
3, 250880, Note_on_c, 4, 77, 92
3, 250880, Note_on_c, 4, 83, 92
3, 250881, Note_off_c, 4, 73, 0
3, 250944, Note_on_c, 4, 74, 78
3, 250944, Note_on_c, 4, 80, 78
3, 250945, Note_off_c, 4, 77, 0
3, 250945, Note_off_c, 4, 83, 0
3, 251008, Note_on_c, 4, 68, 63
3, 251008, Note_on_c, 4, 73, 63
3, 251009, Note_off_c, 4, 74, 0
3, 251009, Note_off_c, 4, 80, 0
3, 251072, Note_on_c, 4, 71, 87
3, 251072, Note_on_c, 4, 77, 87
3, 251073, Note_off_c, 4, 68, 0
3, 251073, Note_off_c, 4, 73, 0
3, 251136, Note_on_c, 4, 76, 100
3, 251136, Note_on_c, 4, 82, 100
3, 251136, Note_on_c, 4, 82, 74
3, 251137, Note_off_c, 4, 71, 0
3, 251137, Note_off_c, 4, 77, 0
3, 251200, Note_on_c, 4, 72, 67
3, 251200, Note_on_c, 4, 79, 68
3, 251201, Note_off_c, 4, 76, 0
3, 251201, Note_off_c, 4, 82, 0
3, 251201, Note_off_c, 4, 82, 0
3, 251264, Note_on_c, 4, 67, 51
3, 251264, Note_on_c, 4, 71, 69
3, 251265, Note_off_c, 4, 72, 0
3, 251265, Note_off_c, 4, 79, 0
3, 251324, Note_off_c, 4, 67, 0
3, 251324, Note_off_c, 4, 71, 0
3, 251456, Note_on_c, 4, 82, 75
3, 251520, Note_on_c, 4, 79, 65
3, 251521, Note_off_c, 4, 82, 0
3, 251580, Note_off_c, 4, 79, 0
3, 251584, Note_on_c, 4, 71, 72
3, 251648, Note_on_c, 4, 76, 79
3, 251648, Note_on_c, 4, 76, 68
3, 251649, Note_off_c, 4, 71, 0
3, 251712, Note_on_c, 4, 79, 96
3, 251712, Note_on_c, 4, 80, 96
3, 251712, Note_on_c, 4, 79, 69
3, 251713, Note_off_c, 4, 76, 0
3, 251713, Note_off_c, 4, 76, 0
3, 251776, Note_on_c, 4, 76, 88
3, 251776, Note_on_c, 4, 76, 77
3, 251777, Note_off_c, 4, 79, 0
3, 251777, Note_off_c, 4, 80, 0
3, 251777, Note_off_c, 4, 79, 0
3, 251840, Note_on_c, 4, 79, 94
3, 251840, Note_on_c, 4, 68, 57
3, 251841, Note_off_c, 4, 76, 0
3, 251841, Note_off_c, 4, 76, 0
3, 251904, Note_on_c, 4, 68, 89
3, 251904, Note_on_c, 4, 77, 89
3, 251904, Note_on_c, 4, 64, 68
3, 251905, Note_off_c, 4, 79, 0
3, 251905, Note_off_c, 4, 68, 0
3, 251964, Note_off_c, 4, 68, 0
3, 251964, Note_off_c, 4, 77, 0
3, 251964, Note_off_c, 4, 64, 0
3, 252096, Note_on_c, 4, 80, 81
3, 252160, Note_off_c, 4, 80, 0
3, 252160, Note_on_c, 4, 73, 78
3, 252160, Note_on_c, 4, 80, 78
3, 252224, Note_on_c, 4, 74, 87
3, 252224, Note_on_c, 4, 85, 87
3, 252225, Note_off_c, 4, 73, 0
3, 252225, Note_off_c, 4, 80, 0
3, 252288, Note_on_c, 4, 80, 75
3, 252289, Note_off_c, 4, 74, 0
3, 252289, Note_off_c, 4, 85, 0
3, 252352, Note_on_c, 4, 77, 83
3, 252352, Note_on_c, 4, 85, 83
3, 252353, Note_off_c, 4, 80, 0
3, 252416, Note_off_c, 4, 77, 0
3, 252416, Note_on_c, 4, 68, 73
3, 252416, Note_on_c, 4, 77, 73
3, 252417, Note_off_c, 4, 85, 0
3, 252480, Note_on_c, 4, 73, 75
3, 252480, Note_on_c, 4, 80, 75
3, 252481, Note_off_c, 4, 68, 0
3, 252481, Note_off_c, 4, 77, 0
3, 252544, Note_on_c, 4, 77, 72
3, 252545, Note_off_c, 4, 73, 0
3, 252545, Note_off_c, 4, 80, 0
3, 252608, Note_on_c, 4, 73, 81
3, 252608, Note_on_c, 4, 82, 81
3, 252609, Note_off_c, 4, 77, 0
3, 252672, Note_on_c, 4, 68, 74
3, 252672, Note_on_c, 4, 77, 74
3, 252672, Note_on_c, 4, 65, 73
3, 252673, Note_off_c, 4, 73, 0
3, 252673, Note_off_c, 4, 82, 0
3, 252736, Note_on_c, 4, 65, 66
3, 252736, Note_on_c, 4, 74, 66
3, 252736, Note_on_c, 4, 68, 78
3, 252737, Note_off_c, 4, 68, 0
3, 252737, Note_off_c, 4, 77, 0
3, 252737, Note_off_c, 4, 65, 0
3, 252796, Note_off_c, 4, 65, 0
3, 252796, Note_off_c, 4, 74, 0
3, 252800, Note_on_c, 4, 74, 96
3, 252801, Note_off_c, 4, 68, 0
3, 252864, Note_on_c, 4, 71, 94
3, 252865, Note_off_c, 4, 74, 0
3, 252924, Note_off_c, 4, 71, 0
3, 252928, Note_on_c, 4, 80, 70
3, 253030, Note_off_c, 4, 80, 0
3, 253030, Note_on_c, 4, 80, 75
3, 253132, Note_on_c, 4, 73, 65
3, 253134, Note_off_c, 4, 80, 0
3, 253229, Note_off_c, 4, 73, 0
3, 253235, Note_on_c, 4, 74, 74
3, 253312, Note_on_c, 4, 74, 64
3, 253337, Note_on_c, 4, 80, 86
3, 253339, Note_off_c, 4, 74, 0
3, 253376, Note_on_c, 4, 68, 54
3, 253377, Note_off_c, 4, 74, 0
3, 253440, Note_on_c, 4, 77, 63
3, 253440, Note_on_c, 4, 62, 57
3, 253441, Note_off_c, 4, 68, 0
3, 253442, Note_off_c, 4, 80, 0
3, 253504, Note_on_c, 4, 61, 51
3, 253505, Note_off_c, 4, 62, 0
3, 253542, Note_on_c, 4, 68, 51
3, 253544, Note_off_c, 4, 77, 0
3, 253568, Note_on_c, 4, 59, 71
3, 253569, Note_off_c, 4, 61, 0
3, 253628, Note_off_c, 4, 59, 0
3, 253644, Note_on_c, 4, 73, 83
3, 253646, Note_off_c, 4, 68, 0
3, 253747, Note_on_c, 4, 77, 99
3, 253749, Note_off_c, 4, 73, 0
3, 253849, Note_on_c, 4, 73, 67
3, 253851, Note_off_c, 4, 77, 0
3, 253952, Note_on_c, 4, 68, 55
3, 253954, Note_off_c, 4, 73, 0
3, 254054, Note_on_c, 4, 61, 58
3, 254056, Note_off_c, 4, 68, 0
3, 254156, Note_on_c, 4, 62, 55
3, 254158, Note_off_c, 4, 61, 0
3, 254259, Note_on_c, 4, 68, 83
3, 254261, Note_off_c, 4, 62, 0
3, 254361, Note_on_c, 4, 65, 76
3, 254363, Note_off_c, 4, 68, 0
3, 254464, Note_on_c, 4, 61, 61
3, 254466, Note_off_c, 4, 65, 0
3, 254560, Note_off_c, 4, 61, 0
3, 346880, Note_on_c, 4, 73, 79
3, 347050, Note_on_c, 4, 83, 97
3, 347053, Note_off_c, 4, 73, 0
3, 347221, Note_on_c, 4, 79, 79
3, 347224, Note_off_c, 4, 83, 0
3, 347505, Note_off_c, 4, 79, 0
3, 347520, Note_on_c, 4, 76, 74
3, 347648, Note_on_c, 4, 77, 72
3, 347650, Note_off_c, 4, 76, 0
3, 347968, Note_on_c, 4, 80, 94
3, 347974, Note_off_c, 4, 77, 0
3, 348272, Note_off_c, 4, 80, 0
3, 348288, Note_on_c, 4, 81, 82
3, 348416, Note_on_c, 4, 88, 98
3, 348418, Note_off_c, 4, 81, 0
3, 348902, Note_off_c, 4, 88, 0
3, 348928, Note_on_c, 4, 84, 78
3, 349440, Note_on_c, 4, 89, 83
3, 349450, Note_off_c, 4, 84, 0
3, 349781, Note_on_c, 4, 90, 90
3, 349787, Note_off_c, 4, 89, 0
3, 351402, Note_off_c, 4, 90, 0
3, 368640, Note_on_c, 4, 77, 56
3, 368682, Note_off_c, 4, 77, 0
3, 368682, Note_on_c, 4, 76, 58
3, 368725, Note_off_c, 4, 76, 0
3, 368725, Note_on_c, 4, 70, 48
3, 368768, Note_off_c, 4, 70, 0
3, 368768, Note_on_c, 4, 68, 58
3, 368810, Note_off_c, 4, 68, 0
3, 368810, Note_on_c, 4, 67, 58
3, 368853, Note_off_c, 4, 67, 0
3, 368853, Note_on_c, 4, 65, 61
3, 368896, Note_off_c, 4, 65, 0
3, 368896, Note_on_c, 4, 64, 59
3, 368935, Note_off_c, 4, 64, 0
3, 369600, Note_on_c, 4, 74, 57
3, 369664, Note_on_c, 4, 76, 60
3, 369664, Note_on_c, 4, 68, 54
3, 369665, Note_off_c, 4, 74, 0
3, 369715, Note_on_c, 4, 70, 52
3, 369716, Note_off_c, 4, 68, 0
3, 369728, Note_on_c, 4, 78, 63
3, 369729, Note_off_c, 4, 76, 0
3, 369766, Note_on_c, 4, 74, 70
3, 369767, Note_off_c, 4, 70, 0
3, 369792, Note_on_c, 4, 81, 71
3, 369793, Note_off_c, 4, 78, 0
3, 369817, Note_on_c, 4, 75, 75
3, 369818, Note_off_c, 4, 74, 0
3, 369856, Note_on_c, 4, 84, 65
3, 369857, Note_off_c, 4, 81, 0
3, 369868, Note_on_c, 4, 77, 64
3, 369869, Note_off_c, 4, 75, 0
3, 369920, Note_on_c, 4, 86, 73
3, 369920, Note_on_c, 4, 78, 64
3, 369921, Note_off_c, 4, 84, 0
3, 369921, Note_off_c, 4, 77, 0
3, 369971, Note_on_c, 4, 80, 66
3, 369972, Note_off_c, 4, 78, 0
3, 369984, Note_on_c, 4, 87, 62
3, 369985, Note_off_c, 4, 86, 0
3, 370022, Note_on_c, 4, 82, 72
3, 370023, Note_off_c, 4, 80, 0
3, 370048, Note_on_c, 4, 88, 66
3, 370049, Note_off_c, 4, 87, 0
3, 370070, Note_off_c, 4, 82, 0
3, 370108, Note_off_c, 4, 88, 0
3, 370585, Note_on_c, 4, 84, 56
3, 370636, Note_on_c, 4, 80, 49
3, 370637, Note_off_c, 4, 84, 0
3, 370688, Note_on_c, 4, 79, 57
3, 370689, Note_off_c, 4, 80, 0
3, 370739, Note_on_c, 4, 78, 52
3, 370740, Note_off_c, 4, 79, 0
3, 370790, Note_on_c, 4, 70, 52
3, 370791, Note_off_c, 4, 78, 0
3, 370816, Note_on_c, 4, 84, 55
3, 370841, Note_on_c, 4, 64, 46
3, 370842, Note_off_c, 4, 70, 0
3, 370858, Note_off_c, 4, 84, 0
3, 370858, Note_on_c, 4, 80, 51
3, 370889, Note_off_c, 4, 64, 0
3, 370901, Note_off_c, 4, 80, 0
3, 370901, Note_on_c, 4, 79, 57
3, 370944, Note_off_c, 4, 79, 0
3, 370944, Note_on_c, 4, 78, 58
3, 370986, Note_off_c, 4, 78, 0
3, 370986, Note_on_c, 4, 73, 50
3, 371029, Note_off_c, 4, 73, 0
3, 371029, Note_on_c, 4, 64, 45
3, 371069, Note_off_c, 4, 64, 0
3, 371968, Note_on_c, 4, 66, 57
3, 372032, Note_on_c, 4, 68, 60
3, 372033, Note_off_c, 4, 66, 0
3, 372096, Note_on_c, 4, 69, 64
3, 372097, Note_off_c, 4, 68, 0
3, 372160, Note_on_c, 4, 73, 65
3, 372161, Note_off_c, 4, 69, 0
3, 372224, Note_on_c, 4, 63, 59
3, 372224, Note_on_c, 4, 81, 76
3, 372225, Note_off_c, 4, 73, 0
3, 372275, Note_on_c, 4, 66, 61
3, 372276, Note_off_c, 4, 63, 0
3, 372284, Note_off_c, 4, 81, 0
3, 372326, Note_on_c, 4, 68, 66
3, 372327, Note_off_c, 4, 66, 0
3, 372377, Note_on_c, 4, 69, 72
3, 372378, Note_off_c, 4, 68, 0
3, 372428, Note_on_c, 4, 73, 69
3, 372429, Note_off_c, 4, 69, 0
3, 372480, Note_on_c, 4, 80, 86
3, 372481, Note_off_c, 4, 73, 0
3, 372531, Note_on_c, 4, 81, 65
3, 372532, Note_off_c, 4, 80, 0
3, 372579, Note_off_c, 4, 81, 0
3, 373299, Note_on_c, 4, 63, 62
3, 373350, Note_on_c, 4, 66, 69
3, 373351, Note_off_c, 4, 63, 0
3, 373401, Note_on_c, 4, 68, 76
3, 373402, Note_off_c, 4, 66, 0
3, 373452, Note_on_c, 4, 68, 50
3, 373452, Note_on_c, 4, 73, 87
3, 373453, Note_off_c, 4, 68, 0
3, 373504, Note_on_c, 4, 75, 61
3, 373504, Note_on_c, 4, 75, 79
3, 373505, Note_off_c, 4, 68, 0
3, 373505, Note_off_c, 4, 73, 0
3, 373555, Note_on_c, 4, 81, 72
3, 373555, Note_on_c, 4, 80, 95
3, 373556, Note_off_c, 4, 75, 0
3, 373556, Note_off_c, 4, 75, 0
3, 373606, Note_on_c, 4, 85, 84
3, 373606, Note_on_c, 4, 81, 81
3, 373607, Note_off_c, 4, 81, 0
3, 373607, Note_off_c, 4, 80, 0
3, 373654, Note_off_c, 4, 81, 0
3, 373657, Note_on_c, 4, 87, 73
3, 373658, Note_off_c, 4, 85, 0
3, 373705, Note_off_c, 4, 87, 0
3, 374169, Note_on_c, 4, 68, 66
3, 374220, Note_on_c, 4, 69, 72
3, 374221, Note_off_c, 4, 68, 0
3, 374272, Note_on_c, 4, 72, 75
3, 374273, Note_off_c, 4, 69, 0
3, 374323, Note_on_c, 4, 73, 79
3, 374324, Note_off_c, 4, 72, 0
3, 374374, Note_on_c, 4, 75, 78
3, 374375, Note_off_c, 4, 73, 0
3, 374425, Note_on_c, 4, 76, 83
3, 374426, Note_off_c, 4, 75, 0
3, 374476, Note_on_c, 4, 80, 82
3, 374477, Note_off_c, 4, 76, 0
3, 374528, Note_on_c, 4, 85, 59
3, 374528, Note_on_c, 4, 81, 88
3, 374529, Note_off_c, 4, 80, 0
3, 374579, Note_on_c, 4, 83, 52
3, 374579, Note_on_c, 4, 83, 71
3, 374580, Note_off_c, 4, 85, 0
3, 374580, Note_off_c, 4, 81, 0
3, 374627, Note_off_c, 4, 83, 0
3, 374630, Note_on_c, 4, 81, 58
3, 374631, Note_off_c, 4, 83, 0
3, 374681, Note_on_c, 4, 80, 57
3, 374682, Note_off_c, 4, 81, 0
3, 374732, Note_on_c, 4, 77, 58
3, 374733, Note_off_c, 4, 80, 0
3, 374781, Note_off_c, 4, 77, 0
3, 374784, Note_on_c, 4, 77, 59
3, 374848, Note_on_c, 4, 73, 53
3, 374849, Note_off_c, 4, 77, 0
3, 374912, Note_on_c, 4, 72, 66
3, 374913, Note_off_c, 4, 73, 0
3, 374976, Note_on_c, 4, 71, 64
3, 374977, Note_off_c, 4, 72, 0
3, 375036, Note_off_c, 4, 71, 0
3, 375424, Note_on_c, 4, 64, 55
3, 375488, Note_on_c, 4, 69, 58
3, 375488, Note_on_c, 4, 64, 62
3, 375489, Note_off_c, 4, 64, 0
3, 375552, Note_on_c, 4, 72, 70
3, 375552, Note_on_c, 4, 69, 68
3, 375553, Note_off_c, 4, 69, 0
3, 375553, Note_off_c, 4, 64, 0
3, 375616, Note_on_c, 4, 73, 72
3, 375616, Note_on_c, 4, 72, 74
3, 375617, Note_off_c, 4, 72, 0
3, 375617, Note_off_c, 4, 69, 0
3, 375680, Note_on_c, 4, 76, 69
3, 375680, Note_on_c, 4, 73, 81
3, 375681, Note_off_c, 4, 73, 0
3, 375681, Note_off_c, 4, 72, 0
3, 375744, Note_on_c, 4, 77, 69
3, 375744, Note_on_c, 4, 76, 77
3, 375745, Note_off_c, 4, 76, 0
3, 375745, Note_off_c, 4, 73, 0
3, 375808, Note_on_c, 4, 81, 73
3, 375808, Note_on_c, 4, 77, 83
3, 375809, Note_off_c, 4, 77, 0
3, 375809, Note_off_c, 4, 76, 0
3, 375872, Note_on_c, 4, 84, 78
3, 375872, Note_on_c, 4, 81, 80
3, 375873, Note_off_c, 4, 81, 0
3, 375873, Note_off_c, 4, 77, 0
3, 375932, Note_off_c, 4, 84, 0
3, 375936, Note_on_c, 4, 85, 90
3, 375937, Note_off_c, 4, 81, 0
3, 375996, Note_off_c, 4, 85, 0
3, 376320, Note_on_c, 4, 85, 55
3, 376320, Note_on_c, 4, 81, 66
3, 376371, Note_on_c, 4, 81, 48
3, 376371, Note_on_c, 4, 77, 52
3, 376372, Note_off_c, 4, 85, 0
3, 376372, Note_off_c, 4, 81, 0
3, 376422, Note_on_c, 4, 79, 56
3, 376422, Note_on_c, 4, 76, 65
3, 376423, Note_off_c, 4, 81, 0
3, 376423, Note_off_c, 4, 77, 0
3, 376473, Note_on_c, 4, 77, 47
3, 376473, Note_on_c, 4, 73, 59
3, 376474, Note_off_c, 4, 79, 0
3, 376474, Note_off_c, 4, 76, 0
3, 376524, Note_on_c, 4, 76, 57
3, 376524, Note_on_c, 4, 72, 68
3, 376525, Note_off_c, 4, 77, 0
3, 376525, Note_off_c, 4, 73, 0
3, 376576, Note_on_c, 4, 73, 51
3, 376576, Note_on_c, 4, 69, 61
3, 376577, Note_off_c, 4, 76, 0
3, 376577, Note_off_c, 4, 72, 0
3, 376627, Note_on_c, 4, 72, 58
3, 376627, Note_on_c, 4, 65, 62
3, 376628, Note_off_c, 4, 73, 0
3, 376628, Note_off_c, 4, 69, 0
3, 376678, Note_on_c, 4, 69, 52
3, 376678, Note_on_c, 4, 61, 56
3, 376679, Note_off_c, 4, 72, 0
3, 376679, Note_off_c, 4, 65, 0
3, 376726, Note_off_c, 4, 69, 0
3, 376726, Note_off_c, 4, 61, 0
3, 377216, Note_on_c, 4, 64, 67
3, 377258, Note_off_c, 4, 64, 0
3, 377258, Note_on_c, 4, 65, 73
3, 377301, Note_off_c, 4, 65, 0
3, 377301, Note_on_c, 4, 67, 74
3, 377344, Note_off_c, 4, 67, 0
3, 377344, Note_on_c, 4, 69, 74
3, 377386, Note_off_c, 4, 69, 0
3, 377386, Note_on_c, 4, 73, 84
3, 377429, Note_off_c, 4, 73, 0
3, 377429, Note_on_c, 4, 79, 85
3, 377469, Note_off_c, 4, 79, 0
3, 377472, Note_on_c, 4, 76, 53
3, 377514, Note_off_c, 4, 76, 0
3, 377514, Note_on_c, 4, 77, 67
3, 377557, Note_off_c, 4, 77, 0
3, 377557, Note_on_c, 4, 79, 63
3, 377600, Note_off_c, 4, 79, 0
3, 377600, Note_on_c, 4, 81, 69
3, 377642, Note_off_c, 4, 81, 0
3, 377642, Note_on_c, 4, 84, 65
3, 377685, Note_off_c, 4, 84, 0
3, 377685, Note_on_c, 4, 85, 69
3, 377725, Note_off_c, 4, 85, 0
3, 384256, Note_on_c, 4, 72, 62
3, 384320, Note_on_c, 4, 67, 58
3, 384321, Note_off_c, 4, 72, 0
3, 384384, Note_on_c, 4, 70, 78
3, 384385, Note_off_c, 4, 67, 0
3, 384448, Note_on_c, 4, 73, 83
3, 384449, Note_off_c, 4, 70, 0
3, 384512, Note_on_c, 4, 79, 81
3, 384513, Note_off_c, 4, 73, 0
3, 384576, Note_on_c, 4, 84, 95
3, 384577, Note_off_c, 4, 79, 0
3, 384636, Note_off_c, 4, 84, 0
3, 385280, Note_on_c, 4, 83, 63
3, 385344, Note_on_c, 4, 80, 59
3, 385345, Note_off_c, 4, 83, 0
3, 385408, Note_on_c, 4, 78, 67
3, 385409, Note_off_c, 4, 80, 0
3, 385472, Note_on_c, 4, 76, 67
3, 385473, Note_off_c, 4, 78, 0
3, 385536, Note_on_c, 4, 75, 66
3, 385537, Note_off_c, 4, 76, 0
3, 385600, Note_on_c, 4, 70, 61
3, 385601, Note_off_c, 4, 75, 0
3, 385660, Note_off_c, 4, 70, 0
3, 386645, Note_on_c, 4, 69, 63
3, 386730, Note_on_c, 4, 79, 78
3, 386731, Note_off_c, 4, 69, 0
3, 386816, Note_on_c, 4, 82, 78
3, 386817, Note_off_c, 4, 79, 0
3, 386901, Note_on_c, 4, 79, 74
3, 386902, Note_off_c, 4, 82, 0
3, 386986, Note_on_c, 4, 85, 83
3, 386987, Note_off_c, 4, 79, 0
3, 387067, Note_off_c, 4, 85, 0
3, 387669, Note_on_c, 4, 69, 63
3, 387754, Note_on_c, 4, 73, 71
3, 387755, Note_off_c, 4, 69, 0
3, 387840, Note_on_c, 4, 78, 80
3, 387841, Note_off_c, 4, 73, 0
3, 387925, Note_on_c, 4, 85, 97
3, 387926, Note_off_c, 4, 78, 0
3, 388010, Note_on_c, 4, 90, 79
3, 388011, Note_off_c, 4, 85, 0
3, 388091, Note_off_c, 4, 90, 0
3, 388693, Note_on_c, 4, 73, 62
3, 388778, Note_on_c, 4, 82, 77
3, 388779, Note_off_c, 4, 73, 0
3, 388864, Note_on_c, 4, 83, 78
3, 388865, Note_off_c, 4, 82, 0
3, 388949, Note_on_c, 4, 76, 66
3, 388950, Note_off_c, 4, 83, 0
3, 389029, Note_off_c, 4, 76, 0
3, 389632, Note_on_c, 4, 55, 78
3, 389696, Note_off_c, 4, 55, 0
3, 389760, Note_on_c, 4, 55, 77
3, 389824, Note_off_c, 4, 55, 0
3, 389888, Note_on_c, 4, 58, 90
3, 389952, Note_off_c, 4, 58, 0
3, 390016, Note_on_c, 4, 58, 87
3, 390058, Note_on_c, 4, 85, 60
3, 390080, Note_off_c, 4, 58, 0
3, 390144, Note_on_c, 4, 81, 46
3, 390144, Note_on_c, 4, 58, 87
3, 390145, Note_off_c, 4, 85, 0
3, 390208, Note_off_c, 4, 58, 0
3, 390229, Note_on_c, 4, 73, 55
3, 390230, Note_off_c, 4, 81, 0
3, 390272, Note_on_c, 4, 58, 86
3, 390314, Note_on_c, 4, 79, 62
3, 390315, Note_off_c, 4, 73, 0
3, 390336, Note_off_c, 4, 58, 0
3, 390395, Note_off_c, 4, 79, 0
3, 390400, Note_on_c, 4, 60, 87
3, 390464, Note_off_c, 4, 60, 0
3, 390485, Note_on_c, 4, 76, 63
3, 390528, Note_on_c, 4, 60, 84
3, 390570, Note_on_c, 4, 87, 73
3, 390571, Note_off_c, 4, 76, 0
3, 390592, Note_off_c, 4, 60, 0
3, 390651, Note_off_c, 4, 87, 0
3, 390656, Note_on_c, 4, 61, 81
3, 390720, Note_off_c, 4, 61, 0
3, 390784, Note_on_c, 4, 61, 84
3, 390848, Note_off_c, 4, 61, 0
3, 390912, Note_on_c, 4, 61, 80
3, 390976, Note_off_c, 4, 61, 0
3, 391040, Note_on_c, 4, 61, 86
3, 391104, Note_off_c, 4, 61, 0
3, 391168, Note_on_c, 4, 64, 88
3, 391232, Note_off_c, 4, 64, 0
3, 391253, Note_on_c, 4, 84, 65
3, 391296, Note_on_c, 4, 64, 86
3, 391338, Note_on_c, 4, 75, 50
3, 391339, Note_off_c, 4, 84, 0
3, 391360, Note_off_c, 4, 64, 0
3, 391419, Note_off_c, 4, 75, 0
3, 391424, Note_on_c, 4, 67, 92
3, 391488, Note_off_c, 4, 67, 0
3, 391552, Note_on_c, 4, 67, 91
3, 391616, Note_off_c, 4, 67, 0
3, 391680, Note_on_c, 4, 70, 100
3, 391744, Note_off_c, 4, 70, 0
3, 391808, Note_on_c, 4, 70, 93
3, 391872, Note_off_c, 4, 70, 0
3, 391936, Note_on_c, 4, 73, 103
3, 392000, Note_off_c, 4, 73, 0
3, 392064, Note_on_c, 4, 73, 97
3, 392128, Note_off_c, 4, 73, 0
3, 393728, Note_on_c, 4, 82, 75
3, 393728, Note_on_c, 4, 72, 75
3, 393792, Note_off_c, 4, 82, 0
3, 393792, Note_off_c, 4, 72, 0
3, 393856, Note_on_c, 4, 82, 81
3, 393856, Note_on_c, 4, 70, 79
3, 393920, Note_off_c, 4, 82, 0
3, 393920, Note_off_c, 4, 70, 0
3, 393984, Note_on_c, 4, 82, 81
3, 393984, Note_on_c, 4, 70, 88
3, 394048, Note_off_c, 4, 82, 0
3, 394048, Note_off_c, 4, 70, 0
3, 394112, Note_on_c, 4, 82, 85
3, 394112, Note_on_c, 4, 72, 87
3, 394176, Note_off_c, 4, 82, 0
3, 394176, Note_off_c, 4, 72, 0
3, 394240, Note_on_c, 4, 82, 84
3, 394240, Note_on_c, 4, 70, 73
3, 394304, Note_off_c, 4, 82, 0
3, 394304, Note_off_c, 4, 70, 0
3, 394368, Note_on_c, 4, 82, 82
3, 394368, Note_on_c, 4, 70, 87
3, 394432, Note_off_c, 4, 82, 0
3, 394432, Note_off_c, 4, 70, 0
3, 394496, Note_on_c, 4, 79, 87
3, 394496, Note_on_c, 4, 82, 87
3, 394496, Note_on_c, 4, 72, 91
3, 394560, Note_off_c, 4, 79, 0
3, 394560, Note_off_c, 4, 82, 0
3, 394560, Note_off_c, 4, 72, 0
3, 394624, Note_on_c, 4, 79, 82
3, 394624, Note_on_c, 4, 82, 82
3, 394624, Note_on_c, 4, 70, 81
3, 394688, Note_off_c, 4, 79, 0
3, 394688, Note_off_c, 4, 82, 0
3, 394688, Note_off_c, 4, 70, 0
3, 394752, Note_on_c, 4, 79, 88
3, 394752, Note_on_c, 4, 82, 88
3, 394752, Note_on_c, 4, 70, 82
3, 394816, Note_off_c, 4, 79, 0
3, 394816, Note_off_c, 4, 82, 0
3, 394816, Note_off_c, 4, 70, 0
3, 394880, Note_on_c, 4, 79, 84
3, 394880, Note_on_c, 4, 82, 84
3, 394880, Note_on_c, 4, 72, 88
3, 394944, Note_off_c, 4, 79, 0
3, 394944, Note_off_c, 4, 82, 0
3, 394944, Note_off_c, 4, 72, 0
3, 395264, Note_on_c, 4, 79, 76
3, 395264, Note_on_c, 4, 82, 76
3, 395264, Note_on_c, 4, 70, 77
3, 395328, Note_off_c, 4, 79, 0
3, 395328, Note_off_c, 4, 82, 0
3, 395328, Note_off_c, 4, 70, 0
3, 395392, Note_on_c, 4, 79, 78
3, 395392, Note_on_c, 4, 82, 78
3, 395392, Note_on_c, 4, 70, 80
3, 395456, Note_off_c, 4, 79, 0
3, 395456, Note_off_c, 4, 82, 0
3, 395456, Note_off_c, 4, 70, 0
3, 395520, Note_on_c, 4, 79, 86
3, 395520, Note_on_c, 4, 82, 86
3, 395520, Note_on_c, 4, 72, 89
3, 395584, Note_off_c, 4, 79, 0
3, 395584, Note_off_c, 4, 82, 0
3, 395584, Note_off_c, 4, 72, 0
3, 395648, Note_on_c, 4, 79, 85
3, 395648, Note_on_c, 4, 82, 85
3, 395648, Note_on_c, 4, 70, 81
3, 395712, Note_off_c, 4, 79, 0
3, 395712, Note_off_c, 4, 82, 0
3, 395712, Note_off_c, 4, 70, 0
3, 395904, Note_on_c, 4, 79, 76
3, 395904, Note_on_c, 4, 82, 76
3, 395904, Note_on_c, 4, 72, 73
3, 395968, Note_off_c, 4, 79, 0
3, 395968, Note_off_c, 4, 82, 0
3, 395968, Note_off_c, 4, 72, 0
3, 396032, Note_on_c, 4, 79, 82
3, 396032, Note_on_c, 4, 82, 82
3, 396032, Note_on_c, 4, 70, 74
3, 396096, Note_off_c, 4, 79, 0
3, 396096, Note_off_c, 4, 82, 0
3, 396096, Note_off_c, 4, 70, 0
3, 396288, Note_on_c, 4, 79, 76
3, 396288, Note_on_c, 4, 82, 76
3, 396288, Note_on_c, 4, 72, 75
3, 396352, Note_off_c, 4, 79, 0
3, 396352, Note_off_c, 4, 82, 0
3, 396352, Note_off_c, 4, 72, 0
3, 396416, Note_on_c, 4, 79, 83
3, 396416, Note_on_c, 4, 82, 83
3, 396416, Note_on_c, 4, 70, 80
3, 396480, Note_off_c, 4, 79, 0
3, 396480, Note_off_c, 4, 82, 0
3, 396480, Note_off_c, 4, 70, 0
3, 396672, Note_on_c, 4, 79, 80
3, 396672, Note_on_c, 4, 82, 80
3, 396672, Note_on_c, 4, 72, 83
3, 396736, Note_off_c, 4, 79, 0
3, 396736, Note_off_c, 4, 82, 0
3, 396736, Note_off_c, 4, 72, 0
3, 397184, Note_on_c, 4, 79, 77
3, 397184, Note_on_c, 4, 82, 77
3, 397184, Note_on_c, 4, 70, 71
3, 397248, Note_off_c, 4, 79, 0
3, 397248, Note_off_c, 4, 82, 0
3, 397248, Note_off_c, 4, 70, 0
3, 397312, Note_on_c, 4, 79, 83
3, 397312, Note_on_c, 4, 82, 83
3, 397312, Note_on_c, 4, 70, 84
3, 397376, Note_off_c, 4, 79, 0
3, 397376, Note_off_c, 4, 82, 0
3, 397376, Note_off_c, 4, 70, 0
3, 397440, Note_on_c, 4, 79, 84
3, 397440, Note_on_c, 4, 82, 84
3, 397440, Note_on_c, 4, 72, 90
3, 397504, Note_off_c, 4, 79, 0
3, 397504, Note_off_c, 4, 82, 0
3, 397504, Note_off_c, 4, 72, 0
3, 397568, Note_on_c, 4, 79, 86
3, 397568, Note_on_c, 4, 82, 86
3, 397568, Note_on_c, 4, 70, 80
3, 397632, Note_off_c, 4, 79, 0
3, 397632, Note_off_c, 4, 82, 0
3, 397632, Note_off_c, 4, 70, 0
3, 397824, Note_on_c, 4, 79, 75
3, 397824, Note_on_c, 4, 82, 75
3, 397824, Note_on_c, 4, 72, 73
3, 397888, Note_off_c, 4, 79, 0
3, 397888, Note_off_c, 4, 82, 0
3, 397888, Note_off_c, 4, 72, 0
3, 397952, Note_on_c, 4, 79, 84
3, 397952, Note_on_c, 4, 82, 84
3, 397952, Note_on_c, 4, 70, 78
3, 398016, Note_off_c, 4, 79, 0
3, 398016, Note_off_c, 4, 82, 0
3, 398016, Note_off_c, 4, 70, 0
3, 398208, Note_on_c, 4, 79, 81
3, 398208, Note_on_c, 4, 82, 81
3, 398208, Note_on_c, 4, 72, 83
3, 398272, Note_off_c, 4, 79, 0
3, 398272, Note_off_c, 4, 82, 0
3, 398272, Note_off_c, 4, 72, 0
3, 398336, Note_on_c, 4, 79, 87
3, 398336, Note_on_c, 4, 82, 87
3, 398336, Note_on_c, 4, 70, 84
3, 398400, Note_off_c, 4, 79, 0
3, 398400, Note_off_c, 4, 82, 0
3, 398400, Note_off_c, 4, 70, 0
3, 398592, Note_on_c, 4, 79, 88
3, 398592, Note_on_c, 4, 82, 88
3, 398592, Note_on_c, 4, 72, 90
3, 398656, Note_off_c, 4, 79, 0
3, 398656, Note_off_c, 4, 82, 0
3, 398656, Note_off_c, 4, 72, 0
3, 406016, Note_on_c, 4, 63, 89
3, 406067, Note_on_c, 4, 64, 103
3, 406068, Note_off_c, 4, 63, 0
3, 406118, Note_on_c, 4, 66, 107
3, 406119, Note_off_c, 4, 64, 0
3, 406169, Note_on_c, 4, 69, 113
3, 406170, Note_off_c, 4, 66, 0
3, 406220, Note_on_c, 4, 73, 121
3, 406221, Note_off_c, 4, 69, 0
3, 406272, Note_on_c, 4, 75, 115
3, 406273, Note_off_c, 4, 73, 0
3, 406323, Note_on_c, 4, 78, 121
3, 406324, Note_off_c, 4, 75, 0
3, 406374, Note_on_c, 4, 81, 124
3, 406375, Note_off_c, 4, 78, 0
3, 406425, Note_on_c, 4, 84, 124
3, 406426, Note_off_c, 4, 81, 0
3, 406476, Note_on_c, 4, 81, 102
3, 406477, Note_off_c, 4, 84, 0
3, 406528, Note_on_c, 4, 78, 97
3, 406529, Note_off_c, 4, 81, 0
3, 406579, Note_on_c, 4, 73, 91
3, 406580, Note_off_c, 4, 78, 0
3, 406630, Note_on_c, 4, 69, 93
3, 406631, Note_off_c, 4, 73, 0
3, 406681, Note_on_c, 4, 64, 87
3, 406682, Note_off_c, 4, 69, 0
3, 406732, Note_on_c, 4, 63, 90
3, 406733, Note_off_c, 4, 64, 0
3, 406781, Note_off_c, 4, 63, 0
3, 409088, Note_on_c, 4, 63, 100
3, 409139, Note_on_c, 4, 64, 105
3, 409140, Note_off_c, 4, 63, 0
3, 409190, Note_on_c, 4, 66, 106
3, 409191, Note_off_c, 4, 64, 0
3, 409241, Note_on_c, 4, 69, 120
3, 409242, Note_off_c, 4, 66, 0
3, 409292, Note_on_c, 4, 73, 117
3, 409293, Note_off_c, 4, 69, 0
3, 409344, Note_on_c, 4, 75, 113
3, 409345, Note_off_c, 4, 73, 0
3, 409395, Note_on_c, 4, 78, 122
3, 409396, Note_off_c, 4, 75, 0
3, 409446, Note_on_c, 4, 81, 119
3, 409447, Note_off_c, 4, 78, 0
3, 409497, Note_on_c, 4, 84, 127
3, 409498, Note_off_c, 4, 81, 0
3, 409548, Note_on_c, 4, 81, 108
3, 409549, Note_off_c, 4, 84, 0
3, 409600, Note_on_c, 4, 78, 99
3, 409601, Note_off_c, 4, 81, 0
3, 409651, Note_on_c, 4, 73, 96
3, 409652, Note_off_c, 4, 78, 0
3, 409702, Note_on_c, 4, 69, 86
3, 409703, Note_off_c, 4, 73, 0
3, 409753, Note_on_c, 4, 64, 83
3, 409754, Note_off_c, 4, 69, 0
3, 409804, Note_on_c, 4, 63, 93
3, 409805, Note_off_c, 4, 64, 0
3, 409853, Note_off_c, 4, 63, 0
3, 411136, Note_on_c, 4, 64, 88
3, 411187, Note_on_c, 4, 65, 90
3, 411188, Note_off_c, 4, 64, 0
3, 411238, Note_on_c, 4, 67, 108
3, 411239, Note_off_c, 4, 65, 0
3, 411289, Note_on_c, 4, 70, 116
3, 411290, Note_off_c, 4, 67, 0
3, 411340, Note_on_c, 4, 73, 115
3, 411341, Note_off_c, 4, 70, 0
3, 411392, Note_on_c, 4, 76, 125
3, 411393, Note_off_c, 4, 73, 0
3, 411443, Note_on_c, 4, 79, 106
3, 411444, Note_off_c, 4, 76, 0
3, 411494, Note_on_c, 4, 82, 117
3, 411495, Note_off_c, 4, 79, 0
3, 411545, Note_on_c, 4, 83, 100
3, 411546, Note_off_c, 4, 82, 0
3, 411593, Note_off_c, 4, 83, 0
3, 412723, Note_on_c, 4, 66, 87
3, 412774, Note_on_c, 4, 69, 96
3, 412775, Note_off_c, 4, 66, 0
3, 412825, Note_on_c, 4, 76, 117
3, 412826, Note_off_c, 4, 69, 0
3, 412876, Note_on_c, 4, 78, 124
3, 412877, Note_off_c, 4, 76, 0
3, 412928, Note_on_c, 4, 82, 105
3, 412929, Note_off_c, 4, 78, 0
3, 412992, Note_on_c, 4, 88, 122
3, 412993, Note_off_c, 4, 82, 0
3, 413052, Note_off_c, 4, 88, 0
3, 414771, Note_on_c, 4, 63, 89
3, 414822, Note_on_c, 4, 68, 104
3, 414823, Note_off_c, 4, 63, 0
3, 414873, Note_on_c, 4, 69, 99
3, 414874, Note_off_c, 4, 68, 0
3, 414924, Note_on_c, 4, 73, 110
3, 414925, Note_off_c, 4, 69, 0
3, 414976, Note_on_c, 4, 78, 109
3, 414977, Note_off_c, 4, 73, 0
3, 415027, Note_on_c, 4, 75, 102
3, 415028, Note_off_c, 4, 78, 0
3, 415078, Note_on_c, 4, 69, 79
3, 415079, Note_off_c, 4, 75, 0
3, 415126, Note_off_c, 4, 69, 0
3, 415283, Note_on_c, 4, 70, 87
3, 415334, Note_on_c, 4, 75, 95
3, 415335, Note_off_c, 4, 70, 0
3, 415385, Note_on_c, 4, 78, 107
3, 415386, Note_off_c, 4, 75, 0
3, 415436, Note_on_c, 4, 80, 116
3, 415437, Note_off_c, 4, 78, 0
3, 415488, Note_on_c, 4, 81, 103
3, 415489, Note_off_c, 4, 80, 0
3, 415539, Note_on_c, 4, 75, 85
3, 415540, Note_off_c, 4, 81, 0
3, 415587, Note_off_c, 4, 75, 0
3, 415641, Note_on_c, 4, 78, 88
3, 415692, Note_on_c, 4, 80, 91
3, 415693, Note_off_c, 4, 78, 0
3, 415744, Note_on_c, 4, 81, 103
3, 415745, Note_off_c, 4, 80, 0
3, 415795, Note_on_c, 4, 85, 110
3, 415796, Note_off_c, 4, 81, 0
3, 415846, Note_on_c, 4, 87, 107
3, 415847, Note_off_c, 4, 85, 0
3, 415894, Note_off_c, 4, 87, 0
3, 416768, Note_on_c, 4, 87, 89
3, 416819, Note_on_c, 4, 85, 82
3, 416820, Note_off_c, 4, 87, 0
3, 416870, Note_on_c, 4, 81, 83
3, 416871, Note_off_c, 4, 85, 0
3, 416921, Note_on_c, 4, 80, 79
3, 416922, Note_off_c, 4, 81, 0
3, 416972, Note_on_c, 4, 78, 93
3, 416973, Note_off_c, 4, 80, 0
3, 417021, Note_off_c, 4, 78, 0
3, 417126, Note_on_c, 4, 75, 89
3, 417177, Note_on_c, 4, 81, 101
3, 417178, Note_off_c, 4, 75, 0
3, 417228, Note_on_c, 4, 80, 93
3, 417229, Note_off_c, 4, 81, 0
3, 417280, Note_on_c, 4, 78, 86
3, 417281, Note_off_c, 4, 80, 0
3, 417331, Note_on_c, 4, 75, 88
3, 417332, Note_off_c, 4, 78, 0
3, 417382, Note_on_c, 4, 70, 77
3, 417383, Note_off_c, 4, 75, 0
3, 417430, Note_off_c, 4, 70, 0
3, 417536, Note_on_c, 4, 70, 88
3, 417587, Note_on_c, 4, 75, 101
3, 417588, Note_off_c, 4, 70, 0
3, 417638, Note_on_c, 4, 78, 104
3, 417639, Note_off_c, 4, 75, 0
3, 417689, Note_on_c, 4, 85, 122
3, 417690, Note_off_c, 4, 78, 0
3, 417740, Note_on_c, 4, 81, 92
3, 417741, Note_off_c, 4, 85, 0
3, 417792, Note_on_c, 4, 80, 88
3, 417793, Note_off_c, 4, 81, 0
3, 417843, Note_on_c, 4, 85, 108
3, 417844, Note_off_c, 4, 80, 0
3, 417891, Note_off_c, 4, 85, 0
3, 418432, Note_on_c, 4, 70, 94
3, 418496, Note_on_c, 4, 71, 93
3, 418497, Note_off_c, 4, 70, 0
3, 418560, Note_on_c, 4, 73, 102
3, 418561, Note_off_c, 4, 71, 0
3, 418624, Note_on_c, 4, 74, 106
3, 418625, Note_off_c, 4, 73, 0
3, 418688, Note_on_c, 4, 76, 112
3, 418689, Note_off_c, 4, 74, 0
3, 418752, Note_on_c, 4, 77, 118
3, 418753, Note_off_c, 4, 76, 0
3, 418816, Note_on_c, 4, 79, 104
3, 418817, Note_off_c, 4, 77, 0
3, 418880, Note_on_c, 4, 81, 108
3, 418881, Note_off_c, 4, 79, 0
3, 418944, Note_on_c, 4, 78, 91
3, 418945, Note_off_c, 4, 81, 0
3, 419008, Note_on_c, 4, 80, 99
3, 419009, Note_off_c, 4, 78, 0
3, 419072, Note_on_c, 4, 81, 108
3, 419073, Note_off_c, 4, 80, 0
3, 419136, Note_on_c, 4, 83, 115
3, 419137, Note_off_c, 4, 81, 0
3, 419200, Note_on_c, 4, 85, 102
3, 419201, Note_off_c, 4, 83, 0
3, 419264, Note_on_c, 4, 82, 89
3, 419265, Note_off_c, 4, 85, 0
3, 419328, Note_on_c, 4, 83, 101
3, 419329, Note_off_c, 4, 82, 0
3, 419392, Note_on_c, 4, 85, 108
3, 419393, Note_off_c, 4, 83, 0
3, 419456, Note_on_c, 4, 86, 101
3, 419457, Note_off_c, 4, 85, 0
3, 419520, Note_on_c, 4, 88, 111
3, 419521, Note_off_c, 4, 86, 0
3, 419580, Note_off_c, 4, 88, 0
3, 419648, Note_on_c, 4, 78, 89
3, 419712, Note_on_c, 4, 87, 108
3, 419713, Note_off_c, 4, 78, 0
3, 419776, Note_on_c, 4, 85, 99
3, 419777, Note_off_c, 4, 87, 0
3, 419840, Note_on_c, 4, 84, 94
3, 419841, Note_off_c, 4, 85, 0
3, 419904, Note_on_c, 4, 82, 91
3, 419905, Note_off_c, 4, 84, 0
3, 419968, Note_on_c, 4, 81, 88
3, 419969, Note_off_c, 4, 82, 0
3, 420032, Note_on_c, 4, 79, 91
3, 420033, Note_off_c, 4, 81, 0
3, 420096, Note_on_c, 4, 78, 84
3, 420097, Note_off_c, 4, 79, 0
3, 420160, Note_on_c, 4, 76, 90
3, 420161, Note_off_c, 4, 78, 0
3, 420224, Note_on_c, 4, 75, 80
3, 420225, Note_off_c, 4, 76, 0
3, 420288, Note_on_c, 4, 73, 92
3, 420289, Note_off_c, 4, 75, 0
3, 420352, Note_on_c, 4, 76, 96
3, 420353, Note_off_c, 4, 73, 0
3, 420416, Note_on_c, 4, 72, 89
3, 420417, Note_off_c, 4, 76, 0
3, 420480, Note_on_c, 4, 69, 84
3, 420481, Note_off_c, 4, 72, 0
3, 420544, Note_on_c, 4, 67, 88
3, 420545, Note_off_c, 4, 69, 0
3, 420608, Note_on_c, 4, 66, 84
3, 420609, Note_off_c, 4, 67, 0
3, 420672, Note_on_c, 4, 70, 108
3, 420673, Note_off_c, 4, 66, 0
3, 420736, Note_on_c, 4, 64, 92
3, 420737, Note_off_c, 4, 70, 0
3, 420800, Note_on_c, 4, 61, 88
3, 420801, Note_off_c, 4, 64, 0
3, 420860, Note_off_c, 4, 61, 0
3, 424960, Note_on_c, 4, 60, 89
3, 425024, Note_on_c, 4, 64, 96
3, 425025, Note_off_c, 4, 60, 0
3, 425088, Note_on_c, 4, 66, 109
3, 425089, Note_off_c, 4, 64, 0
3, 425152, Note_on_c, 4, 67, 115
3, 425153, Note_off_c, 4, 66, 0
3, 425216, Note_on_c, 4, 71, 86
3, 425216, Note_on_c, 4, 71, 112
3, 425217, Note_off_c, 4, 67, 0
3, 425280, Note_on_c, 4, 73, 88
3, 425280, Note_on_c, 4, 73, 124
3, 425281, Note_off_c, 4, 71, 0
3, 425281, Note_off_c, 4, 71, 0
3, 425340, Note_off_c, 4, 73, 0
3, 425344, Note_on_c, 4, 76, 109
3, 425345, Note_off_c, 4, 73, 0
3, 425408, Note_on_c, 4, 83, 127
3, 425409, Note_off_c, 4, 76, 0
3, 425468, Note_off_c, 4, 83, 0
3, 425600, Note_on_c, 4, 61, 84
3, 425664, Note_on_c, 4, 62, 83
3, 425665, Note_off_c, 4, 61, 0
3, 425728, Note_on_c, 4, 66, 91
3, 425728, Note_on_c, 4, 66, 105
3, 425729, Note_off_c, 4, 62, 0
3, 425792, Note_on_c, 4, 69, 95
3, 425792, Note_on_c, 4, 69, 117
3, 425793, Note_off_c, 4, 66, 0
3, 425793, Note_off_c, 4, 66, 0
3, 425856, Note_on_c, 4, 66, 90
3, 425856, Note_on_c, 4, 66, 91
3, 425857, Note_off_c, 4, 69, 0
3, 425857, Note_off_c, 4, 69, 0
3, 425916, Note_off_c, 4, 66, 0
3, 425920, Note_on_c, 4, 73, 110
3, 425921, Note_off_c, 4, 66, 0
3, 425984, Note_on_c, 4, 74, 110
3, 425985, Note_off_c, 4, 73, 0
3, 426048, Note_on_c, 4, 66, 91
3, 426048, Note_on_c, 4, 66, 88
3, 426049, Note_off_c, 4, 74, 0
3, 426112, Note_on_c, 4, 71, 109
3, 426112, Note_on_c, 4, 71, 100
3, 426113, Note_off_c, 4, 66, 0
3, 426113, Note_off_c, 4, 66, 0
3, 426176, Note_on_c, 4, 69, 103
3, 426176, Note_on_c, 4, 69, 94
3, 426177, Note_off_c, 4, 71, 0
3, 426177, Note_off_c, 4, 71, 0
3, 426240, Note_on_c, 4, 66, 93
3, 426240, Note_on_c, 4, 66, 84
3, 426241, Note_off_c, 4, 69, 0
3, 426241, Note_off_c, 4, 69, 0
3, 426300, Note_off_c, 4, 66, 0
3, 426304, Note_on_c, 4, 73, 109
3, 426305, Note_off_c, 4, 66, 0
3, 426368, Note_on_c, 4, 76, 105
3, 426369, Note_off_c, 4, 73, 0
3, 426432, Note_on_c, 4, 74, 99
3, 426433, Note_off_c, 4, 76, 0
3, 426496, Note_on_c, 4, 80, 113
3, 426497, Note_off_c, 4, 74, 0
3, 426560, Note_on_c, 4, 78, 108
3, 426561, Note_off_c, 4, 80, 0
3, 426620, Note_off_c, 4, 78, 0
3, 426624, Note_on_c, 4, 61, 88
3, 426688, Note_on_c, 4, 59, 83
3, 426689, Note_off_c, 4, 61, 0
3, 426752, Note_on_c, 4, 62, 86
3, 426752, Note_on_c, 4, 62, 102
3, 426753, Note_off_c, 4, 59, 0
3, 426816, Note_on_c, 4, 69, 102
3, 426816, Note_on_c, 4, 69, 120
3, 426817, Note_off_c, 4, 62, 0
3, 426817, Note_off_c, 4, 62, 0
3, 426880, Note_on_c, 4, 71, 108
3, 426880, Note_on_c, 4, 71, 106
3, 426881, Note_off_c, 4, 69, 0
3, 426881, Note_off_c, 4, 69, 0
3, 426940, Note_off_c, 4, 71, 0
3, 426944, Note_on_c, 4, 74, 119
3, 426945, Note_off_c, 4, 71, 0
3, 427008, Note_on_c, 4, 78, 110
3, 427009, Note_off_c, 4, 74, 0
3, 427072, Note_on_c, 4, 81, 122
3, 427073, Note_off_c, 4, 78, 0
3, 427136, Note_on_c, 4, 84, 107
3, 427137, Note_off_c, 4, 81, 0
3, 427196, Note_off_c, 4, 84, 0
3, 427328, Note_on_c, 4, 60, 89
3, 427392, Note_on_c, 4, 62, 91
3, 427393, Note_off_c, 4, 60, 0
3, 427456, Note_on_c, 4, 66, 110
3, 427457, Note_off_c, 4, 62, 0
3, 427520, Note_on_c, 4, 71, 121
3, 427521, Note_off_c, 4, 66, 0
3, 427584, Note_on_c, 4, 69, 95
3, 427585, Note_off_c, 4, 71, 0
3, 427648, Note_on_c, 4, 73, 104
3, 427649, Note_off_c, 4, 69, 0
3, 427712, Note_on_c, 4, 71, 94
3, 427713, Note_off_c, 4, 73, 0
3, 427772, Note_off_c, 4, 71, 0
3, 427840, Note_on_c, 4, 78, 89
3, 427904, Note_on_c, 4, 75, 81
3, 427905, Note_off_c, 4, 78, 0
3, 427968, Note_on_c, 4, 76, 98
3, 427969, Note_off_c, 4, 75, 0
3, 428028, Note_off_c, 4, 76, 0
3, 428096, Note_on_c, 4, 83, 89
3, 428160, Note_on_c, 4, 79, 76
3, 428161, Note_off_c, 4, 83, 0
3, 428224, Note_on_c, 4, 75, 82
3, 428225, Note_off_c, 4, 79, 0
3, 428284, Note_off_c, 4, 75, 0
3, 428352, Note_on_c, 4, 61, 89
3, 428352, Note_on_c, 4, 59, 89
3, 428416, Note_on_c, 4, 64, 94
3, 428416, Note_on_c, 4, 62, 97
3, 428417, Note_off_c, 4, 61, 0
3, 428417, Note_off_c, 4, 59, 0
3, 428480, Note_on_c, 4, 68, 107
3, 428480, Note_on_c, 4, 66, 109
3, 428481, Note_off_c, 4, 64, 0
3, 428481, Note_off_c, 4, 62, 0
3, 428544, Note_on_c, 4, 64, 97
3, 428544, Note_on_c, 4, 64, 106
3, 428545, Note_off_c, 4, 68, 0
3, 428545, Note_off_c, 4, 66, 0
3, 428604, Note_off_c, 4, 64, 0
3, 428608, Note_on_c, 4, 66, 100
3, 428609, Note_off_c, 4, 64, 0
3, 428672, Note_on_c, 4, 69, 109
3, 428673, Note_off_c, 4, 66, 0
3, 428736, Note_on_c, 4, 71, 104
3, 428737, Note_off_c, 4, 69, 0
3, 428800, Note_on_c, 4, 70, 101
3, 428801, Note_off_c, 4, 71, 0
3, 428864, Note_on_c, 4, 73, 109
3, 428865, Note_off_c, 4, 70, 0
3, 428928, Note_on_c, 4, 78, 127
3, 428929, Note_off_c, 4, 73, 0
3, 428992, Note_on_c, 4, 81, 112
3, 428993, Note_off_c, 4, 78, 0
3, 429056, Note_on_c, 4, 73, 95
3, 429057, Note_off_c, 4, 81, 0
3, 429120, Note_on_c, 4, 66, 80
3, 429120, Note_on_c, 4, 66, 87
3, 429121, Note_off_c, 4, 73, 0
3, 429184, Note_on_c, 4, 68, 75
3, 429184, Note_on_c, 4, 68, 92
3, 429185, Note_off_c, 4, 66, 0
3, 429185, Note_off_c, 4, 66, 0
3, 429248, Note_on_c, 4, 70, 104
3, 429248, Note_on_c, 4, 70, 99
3, 429249, Note_off_c, 4, 68, 0
3, 429249, Note_off_c, 4, 68, 0
3, 429308, Note_off_c, 4, 70, 0
3, 429312, Note_on_c, 4, 73, 112
3, 429313, Note_off_c, 4, 70, 0
3, 429372, Note_off_c, 4, 73, 0
3, 429504, Note_on_c, 4, 59, 87
3, 429568, Note_on_c, 4, 61, 93
3, 429569, Note_off_c, 4, 59, 0
3, 429632, Note_on_c, 4, 69, 87
3, 429632, Note_on_c, 4, 70, 123
3, 429633, Note_off_c, 4, 61, 0
3, 429696, Note_on_c, 4, 73, 98
3, 429696, Note_on_c, 4, 73, 127
3, 429697, Note_off_c, 4, 69, 0
3, 429697, Note_off_c, 4, 70, 0
3, 429756, Note_off_c, 4, 73, 0
3, 429760, Note_on_c, 4, 76, 111
3, 429761, Note_off_c, 4, 73, 0
3, 429824, Note_on_c, 4, 78, 121
3, 429825, Note_off_c, 4, 76, 0
3, 429888, Note_on_c, 4, 61, 70
3, 429888, Note_on_c, 4, 61, 86
3, 429889, Note_off_c, 4, 78, 0
3, 429952, Note_on_c, 4, 64, 73
3, 429952, Note_on_c, 4, 64, 91
3, 429953, Note_off_c, 4, 61, 0
3, 429953, Note_off_c, 4, 61, 0
3, 430016, Note_on_c, 4, 66, 101
3, 430016, Note_on_c, 4, 66, 104
3, 430017, Note_off_c, 4, 64, 0
3, 430017, Note_off_c, 4, 64, 0
3, 430080, Note_on_c, 4, 71, 118
3, 430080, Note_on_c, 4, 71, 115
3, 430081, Note_off_c, 4, 66, 0
3, 430081, Note_off_c, 4, 66, 0
3, 430144, Note_on_c, 4, 66, 84
3, 430144, Note_on_c, 4, 66, 85
3, 430145, Note_off_c, 4, 71, 0
3, 430145, Note_off_c, 4, 71, 0
3, 430204, Note_off_c, 4, 66, 0
3, 430208, Note_on_c, 4, 74, 101
3, 430209, Note_off_c, 4, 66, 0
3, 430272, Note_on_c, 4, 78, 110
3, 430273, Note_off_c, 4, 74, 0
3, 430336, Note_on_c, 4, 83, 127
3, 430337, Note_off_c, 4, 78, 0
3, 430400, Note_on_c, 4, 81, 90
3, 430401, Note_off_c, 4, 83, 0
3, 430460, Note_off_c, 4, 81, 0
3, 430592, Note_on_c, 4, 59, 88
3, 430656, Note_on_c, 4, 61, 92
3, 430657, Note_off_c, 4, 59, 0
3, 430720, Note_on_c, 4, 66, 112
3, 430721, Note_off_c, 4, 61, 0
3, 430784, Note_on_c, 4, 70, 127
3, 430785, Note_off_c, 4, 66, 0
3, 430844, Note_off_c, 4, 70, 0
3, 430848, Note_on_c, 4, 71, 91
3, 430912, Note_on_c, 4, 74, 100
3, 430913, Note_off_c, 4, 71, 0
3, 430976, Note_on_c, 4, 78, 115
3, 430977, Note_off_c, 4, 74, 0
3, 431040, Note_on_c, 4, 81, 127
3, 431041, Note_off_c, 4, 78, 0
3, 431100, Note_off_c, 4, 81, 0
3, 431104, Note_on_c, 4, 65, 85
3, 431168, Note_on_c, 4, 69, 91
3, 431169, Note_off_c, 4, 65, 0
3, 431232, Note_on_c, 4, 72, 87
3, 431232, Note_on_c, 4, 72, 105
3, 431233, Note_off_c, 4, 69, 0
3, 431296, Note_on_c, 4, 74, 93
3, 431296, Note_on_c, 4, 74, 113
3, 431297, Note_off_c, 4, 72, 0
3, 431297, Note_off_c, 4, 72, 0
3, 431356, Note_off_c, 4, 74, 0
3, 431360, Note_on_c, 4, 78, 108
3, 431361, Note_off_c, 4, 74, 0
3, 431424, Note_on_c, 4, 69, 87
3, 431425, Note_off_c, 4, 78, 0
3, 431488, Note_on_c, 4, 72, 102
3, 431489, Note_off_c, 4, 69, 0
3, 431552, Note_on_c, 4, 74, 109
3, 431553, Note_off_c, 4, 72, 0
3, 431616, Note_on_c, 4, 73, 92
3, 431617, Note_off_c, 4, 74, 0
3, 431680, Note_on_c, 4, 74, 91
3, 431681, Note_off_c, 4, 73, 0
3, 431744, Note_on_c, 4, 76, 109
3, 431745, Note_off_c, 4, 74, 0
3, 431808, Note_on_c, 4, 78, 117
3, 431809, Note_off_c, 4, 76, 0
3, 431872, Note_on_c, 4, 80, 105
3, 431873, Note_off_c, 4, 78, 0
3, 431932, Note_off_c, 4, 80, 0
3, 432064, Note_on_c, 4, 59, 93
3, 432128, Note_on_c, 4, 61, 99
3, 432129, Note_off_c, 4, 59, 0
3, 432192, Note_on_c, 4, 66, 89
3, 432192, Note_on_c, 4, 66, 115
3, 432193, Note_off_c, 4, 61, 0
3, 432252, Note_off_c, 4, 66, 0
3, 432256, Note_on_c, 4, 71, 97
3, 432257, Note_off_c, 4, 66, 0
3, 432320, Note_on_c, 4, 74, 109
3, 432321, Note_off_c, 4, 71, 0
3, 432380, Note_off_c, 4, 74, 0
3, 432384, Note_on_c, 4, 59, 84
3, 432448, Note_on_c, 4, 62, 90
3, 432449, Note_off_c, 4, 59, 0
3, 432512, Note_on_c, 4, 64, 101
3, 432513, Note_off_c, 4, 62, 0
3, 432576, Note_on_c, 4, 66, 109
3, 432577, Note_off_c, 4, 64, 0
3, 432640, Note_on_c, 4, 68, 91
3, 432640, Note_on_c, 4, 68, 102
3, 432641, Note_off_c, 4, 66, 0
3, 432704, Note_on_c, 4, 69, 93
3, 432704, Note_on_c, 4, 69, 105
3, 432705, Note_off_c, 4, 68, 0
3, 432705, Note_off_c, 4, 68, 0
3, 432764, Note_off_c, 4, 69, 0
3, 432768, Note_on_c, 4, 73, 108
3, 432769, Note_off_c, 4, 69, 0
3, 432832, Note_on_c, 4, 74, 113
3, 432833, Note_off_c, 4, 73, 0
3, 432896, Note_on_c, 4, 77, 102
3, 432897, Note_off_c, 4, 74, 0
3, 432960, Note_on_c, 4, 81, 115
3, 432961, Note_off_c, 4, 77, 0
3, 433024, Note_on_c, 4, 83, 106
3, 433025, Note_off_c, 4, 81, 0
3, 433084, Note_off_c, 4, 83, 0
3, 433216, Note_on_c, 4, 55, 85
3, 433280, Note_on_c, 4, 59, 88
3, 433281, Note_off_c, 4, 55, 0
3, 433344, Note_on_c, 4, 64, 85
3, 433344, Note_on_c, 4, 64, 113
3, 433345, Note_off_c, 4, 59, 0
3, 433408, Note_on_c, 4, 65, 89
3, 433408, Note_on_c, 4, 65, 120
3, 433409, Note_off_c, 4, 64, 0
3, 433409, Note_off_c, 4, 64, 0
3, 433468, Note_off_c, 4, 65, 0
3, 433472, Note_on_c, 4, 67, 109
3, 433473, Note_off_c, 4, 65, 0
3, 433536, Note_on_c, 4, 71, 122
3, 433537, Note_off_c, 4, 67, 0
3, 433600, Note_on_c, 4, 74, 108
3, 433601, Note_off_c, 4, 71, 0
3, 433660, Note_off_c, 4, 74, 0
3, 433664, Note_on_c, 4, 59, 88
3, 433728, Note_on_c, 4, 62, 92
3, 433728, Note_on_c, 4, 62, 97
3, 433729, Note_off_c, 4, 59, 0
3, 433792, Note_on_c, 4, 64, 96
3, 433792, Note_on_c, 4, 64, 104
3, 433793, Note_off_c, 4, 62, 0
3, 433793, Note_off_c, 4, 62, 0
3, 433856, Note_on_c, 4, 66, 100
3, 433856, Note_on_c, 4, 66, 111
3, 433857, Note_off_c, 4, 64, 0
3, 433857, Note_off_c, 4, 64, 0
3, 433920, Note_on_c, 4, 68, 104
3, 433920, Note_on_c, 4, 68, 102
3, 433921, Note_off_c, 4, 66, 0
3, 433921, Note_off_c, 4, 66, 0
3, 433984, Note_on_c, 4, 69, 105
3, 433984, Note_on_c, 4, 69, 109
3, 433985, Note_off_c, 4, 68, 0
3, 433985, Note_off_c, 4, 68, 0
3, 434048, Note_on_c, 4, 73, 113
3, 434048, Note_on_c, 4, 73, 112
3, 434049, Note_off_c, 4, 69, 0
3, 434049, Note_off_c, 4, 69, 0
3, 434112, Note_on_c, 4, 74, 107
3, 434112, Note_on_c, 4, 74, 120
3, 434113, Note_off_c, 4, 73, 0
3, 434113, Note_off_c, 4, 73, 0
3, 434172, Note_off_c, 4, 74, 0
3, 434176, Note_on_c, 4, 78, 120
3, 434177, Note_off_c, 4, 74, 0
3, 434240, Note_on_c, 4, 80, 106
3, 434241, Note_off_c, 4, 78, 0
3, 434304, Note_on_c, 4, 81, 114
3, 434305, Note_off_c, 4, 80, 0
3, 434368, Note_on_c, 4, 82, 104
3, 434369, Note_off_c, 4, 81, 0
3, 434432, Note_on_c, 4, 81, 104
3, 434433, Note_off_c, 4, 82, 0
3, 434496, Note_on_c, 4, 78, 89
3, 434497, Note_off_c, 4, 81, 0
3, 434560, Note_on_c, 4, 76, 79
3, 434560, Note_on_c, 4, 76, 87
3, 434561, Note_off_c, 4, 78, 0
3, 434624, Note_on_c, 4, 74, 94
3, 434624, Note_on_c, 4, 74, 81
3, 434625, Note_off_c, 4, 76, 0
3, 434625, Note_off_c, 4, 76, 0
3, 434688, Note_on_c, 4, 72, 89
3, 434688, Note_on_c, 4, 73, 96
3, 434689, Note_off_c, 4, 74, 0
3, 434689, Note_off_c, 4, 74, 0
3, 434752, Note_on_c, 4, 76, 110
3, 434752, Note_on_c, 4, 76, 101
3, 434753, Note_off_c, 4, 72, 0
3, 434753, Note_off_c, 4, 73, 0
3, 434816, Note_on_c, 4, 70, 92
3, 434816, Note_on_c, 4, 70, 81
3, 434817, Note_off_c, 4, 76, 0
3, 434817, Note_off_c, 4, 76, 0
3, 434877, Note_off_c, 4, 70, 0
3, 434880, Note_on_c, 4, 68, 90
3, 434880, Note_on_c, 4, 68, 73
3, 434881, Note_off_c, 4, 70, 0
3, 434944, Note_on_c, 4, 66, 80
3, 434944, Note_on_c, 4, 66, 89
3, 434945, Note_off_c, 4, 68, 0
3, 434945, Note_off_c, 4, 68, 0
3, 435004, Note_off_c, 4, 66, 0
3, 435008, Note_on_c, 4, 70, 108
3, 435009, Note_off_c, 4, 66, 0
3, 435072, Note_on_c, 4, 64, 95
3, 435073, Note_off_c, 4, 70, 0
3, 435136, Note_on_c, 4, 62, 88
3, 435136, Note_on_c, 4, 65, 85
3, 435137, Note_off_c, 4, 64, 0
3, 435196, Note_off_c, 4, 62, 0
3, 435200, Note_on_c, 4, 61, 75
3, 435201, Note_off_c, 4, 65, 0
3, 435264, Note_on_c, 4, 59, 89
3, 435265, Note_off_c, 4, 61, 0
3, 435328, Note_on_c, 4, 57, 87
3, 435329, Note_off_c, 4, 59, 0
3, 435392, Note_on_c, 4, 56, 90
3, 435393, Note_off_c, 4, 57, 0
3, 435452, Note_off_c, 4, 56, 0
3, 435520, Note_on_c, 4, 66, 89
3, 435520, Note_on_c, 4, 66, 91
3, 435584, Note_on_c, 4, 69, 95
3, 435584, Note_on_c, 4, 69, 98
3, 435585, Note_off_c, 4, 66, 0
3, 435585, Note_off_c, 4, 66, 0
3, 435648, Note_on_c, 4, 71, 105
3, 435648, Note_on_c, 4, 71, 101
3, 435649, Note_off_c, 4, 69, 0
3, 435649, Note_off_c, 4, 69, 0
3, 435712, Note_on_c, 4, 72, 110
3, 435712, Note_on_c, 4, 72, 105
3, 435713, Note_off_c, 4, 71, 0
3, 435713, Note_off_c, 4, 71, 0
3, 435772, Note_off_c, 4, 72, 0
3, 435776, Note_on_c, 4, 74, 100
3, 435777, Note_off_c, 4, 72, 0
3, 435840, Note_on_c, 4, 78, 110
3, 435841, Note_off_c, 4, 74, 0
3, 435904, Note_on_c, 4, 81, 109
3, 435905, Note_off_c, 4, 78, 0
3, 435964, Note_off_c, 4, 81, 0
3, 436032, Note_on_c, 4, 66, 83
3, 436032, Note_on_c, 4, 66, 86
3, 436096, Note_on_c, 4, 69, 86
3, 436096, Note_on_c, 4, 69, 93
3, 436097, Note_off_c, 4, 66, 0
3, 436097, Note_off_c, 4, 66, 0
3, 436160, Note_on_c, 4, 70, 106
3, 436160, Note_on_c, 4, 70, 104
3, 436161, Note_off_c, 4, 69, 0
3, 436161, Note_off_c, 4, 69, 0
3, 436224, Note_on_c, 4, 72, 115
3, 436224, Note_on_c, 4, 72, 111
3, 436225, Note_off_c, 4, 70, 0
3, 436225, Note_off_c, 4, 70, 0
3, 436284, Note_off_c, 4, 72, 0
3, 436288, Note_on_c, 4, 71, 96
3, 436289, Note_off_c, 4, 72, 0
3, 436352, Note_on_c, 4, 74, 103
3, 436353, Note_off_c, 4, 71, 0
3, 436416, Note_on_c, 4, 76, 106
3, 436417, Note_off_c, 4, 74, 0
3, 436480, Note_on_c, 4, 66, 84
3, 436480, Note_on_c, 4, 66, 86
3, 436481, Note_off_c, 4, 76, 0
3, 436544, Note_on_c, 4, 69, 103
3, 436544, Note_on_c, 4, 69, 93
3, 436545, Note_off_c, 4, 66, 0
3, 436545, Note_off_c, 4, 66, 0
3, 436608, Note_on_c, 4, 73, 118
3, 436608, Note_on_c, 4, 73, 109
3, 436609, Note_off_c, 4, 69, 0
3, 436609, Note_off_c, 4, 69, 0
3, 436668, Note_off_c, 4, 73, 0
3, 436672, Note_on_c, 4, 71, 97
3, 436673, Note_off_c, 4, 73, 0
3, 436736, Note_on_c, 4, 78, 114
3, 436737, Note_off_c, 4, 71, 0
3, 436800, Note_on_c, 4, 80, 110
3, 436801, Note_off_c, 4, 78, 0
3, 436860, Note_off_c, 4, 80, 0
3, 450304, Note_on_c, 4, 63, 90
3, 450304, Note_on_c, 4, 63, 87
3, 450368, Note_on_c, 4, 65, 94
3, 450368, Note_on_c, 4, 65, 90
3, 450369, Note_off_c, 4, 63, 0
3, 450369, Note_off_c, 4, 63, 0
3, 450432, Note_on_c, 4, 66, 103
3, 450432, Note_on_c, 4, 66, 102
3, 450433, Note_off_c, 4, 65, 0
3, 450433, Note_off_c, 4, 65, 0
3, 450496, Note_on_c, 4, 68, 111
3, 450496, Note_on_c, 4, 68, 112
3, 450497, Note_off_c, 4, 66, 0
3, 450497, Note_off_c, 4, 66, 0
3, 450560, Note_on_c, 4, 69, 104
3, 450560, Note_on_c, 4, 69, 101
3, 450561, Note_off_c, 4, 68, 0
3, 450561, Note_off_c, 4, 68, 0
3, 450624, Note_on_c, 4, 66, 96
3, 450624, Note_on_c, 4, 66, 92
3, 450625, Note_off_c, 4, 69, 0
3, 450625, Note_off_c, 4, 69, 0
3, 450688, Note_on_c, 4, 70, 108
3, 450688, Note_on_c, 4, 70, 107
3, 450689, Note_off_c, 4, 66, 0
3, 450689, Note_off_c, 4, 66, 0
3, 450752, Note_on_c, 4, 72, 116
3, 450752, Note_on_c, 4, 72, 114
3, 450753, Note_off_c, 4, 70, 0
3, 450753, Note_off_c, 4, 70, 0
3, 450812, Note_off_c, 4, 72, 0
3, 450812, Note_off_c, 4, 72, 0
3, 450944, Note_on_c, 4, 69, 89
3, 451008, Note_on_c, 4, 71, 94
3, 451009, Note_off_c, 4, 69, 0
3, 451072, Note_on_c, 4, 72, 102
3, 451073, Note_off_c, 4, 71, 0
3, 451136, Note_on_c, 4, 69, 96
3, 451137, Note_off_c, 4, 72, 0
3, 451200, Note_on_c, 4, 71, 106
3, 451201, Note_off_c, 4, 69, 0
3, 451264, Note_on_c, 4, 74, 116
3, 451265, Note_off_c, 4, 71, 0
3, 451328, Note_on_c, 4, 76, 110
3, 451329, Note_off_c, 4, 74, 0
3, 451392, Note_on_c, 4, 74, 104
3, 451393, Note_off_c, 4, 76, 0
3, 451456, Note_on_c, 4, 78, 111
3, 451457, Note_off_c, 4, 74, 0
3, 451520, Note_on_c, 4, 80, 123
3, 451521, Note_off_c, 4, 78, 0
3, 451580, Note_off_c, 4, 80, 0
3, 451712, Note_on_c, 4, 66, 87
3, 451712, Note_on_c, 4, 66, 82
3, 451776, Note_on_c, 4, 72, 100
3, 451776, Note_on_c, 4, 72, 93
3, 451777, Note_off_c, 4, 66, 0
3, 451777, Note_off_c, 4, 66, 0
3, 451840, Note_on_c, 4, 76, 114
3, 451840, Note_on_c, 4, 76, 111
3, 451841, Note_off_c, 4, 72, 0
3, 451841, Note_off_c, 4, 72, 0
3, 451900, Note_off_c, 4, 76, 0
3, 451904, Note_on_c, 4, 74, 111
3, 451905, Note_off_c, 4, 76, 0
3, 451968, Note_on_c, 4, 73, 95
3, 451969, Note_off_c, 4, 74, 0
3, 452032, Note_on_c, 4, 78, 105
3, 452033, Note_off_c, 4, 73, 0
3, 452092, Note_off_c, 4, 78, 0
3, 452096, Note_on_c, 4, 61, 83
3, 452160, Note_on_c, 4, 64, 84
3, 452161, Note_off_c, 4, 61, 0
3, 452224, Note_on_c, 4, 67, 90
3, 452224, Note_on_c, 4, 67, 104
3, 452225, Note_off_c, 4, 64, 0
3, 452288, Note_on_c, 4, 71, 94
3, 452288, Note_on_c, 4, 71, 116
3, 452289, Note_off_c, 4, 67, 0
3, 452289, Note_off_c, 4, 67, 0
3, 452352, Note_on_c, 4, 73, 108
3, 452352, Note_on_c, 4, 73, 104
3, 452353, Note_off_c, 4, 71, 0
3, 452353, Note_off_c, 4, 71, 0
3, 452412, Note_off_c, 4, 73, 0
3, 452416, Note_on_c, 4, 74, 116
3, 452417, Note_off_c, 4, 73, 0
3, 452480, Note_on_c, 4, 73, 93
3, 452481, Note_off_c, 4, 74, 0
3, 452544, Note_on_c, 4, 76, 101
3, 452545, Note_off_c, 4, 73, 0
3, 452608, Note_on_c, 4, 78, 104
3, 452609, Note_off_c, 4, 76, 0
3, 452672, Note_on_c, 4, 84, 117
3, 452673, Note_off_c, 4, 78, 0
3, 452732, Note_off_c, 4, 84, 0
3, 452864, Note_on_c, 4, 81, 85
3, 452928, Note_on_c, 4, 80, 80
3, 452929, Note_off_c, 4, 81, 0
3, 452992, Note_on_c, 4, 86, 115
3, 452993, Note_off_c, 4, 80, 0
3, 453056, Note_on_c, 4, 78, 94
3, 453057, Note_off_c, 4, 86, 0
3, 453120, Note_on_c, 4, 74, 84
3, 453121, Note_off_c, 4, 78, 0
3, 453184, Note_on_c, 4, 71, 77
3, 453185, Note_off_c, 4, 74, 0
3, 453248, Note_on_c, 4, 76, 111
3, 453249, Note_off_c, 4, 71, 0
3, 453312, Note_on_c, 4, 68, 96
3, 453313, Note_off_c, 4, 76, 0
3, 453372, Note_off_c, 4, 68, 0
3, 453440, Note_on_c, 4, 78, 90
3, 453504, Note_on_c, 4, 73, 77
3, 453505, Note_off_c, 4, 78, 0
3, 453568, Note_on_c, 4, 83, 117
3, 453569, Note_off_c, 4, 73, 0
3, 453632, Note_on_c, 4, 81, 114
3, 453633, Note_off_c, 4, 83, 0
3, 453696, Note_on_c, 4, 72, 74
3, 453697, Note_off_c, 4, 81, 0
3, 453760, Note_on_c, 4, 69, 64
3, 453761, Note_off_c, 4, 72, 0
3, 453824, Note_on_c, 4, 65, 87
3, 453825, Note_off_c, 4, 69, 0
3, 453884, Note_off_c, 4, 65, 0
3, 453952, Note_on_c, 4, 81, 85
3, 454016, Note_on_c, 4, 78, 76
3, 454017, Note_off_c, 4, 81, 0
3, 454080, Note_on_c, 4, 71, 80
3, 454081, Note_off_c, 4, 78, 0
3, 454144, Note_on_c, 4, 86, 99
3, 454145, Note_off_c, 4, 71, 0
3, 454208, Note_on_c, 4, 80, 89
3, 454209, Note_off_c, 4, 86, 0
3, 454272, Note_on_c, 4, 78, 84
3, 454273, Note_off_c, 4, 80, 0
3, 454336, Note_on_c, 4, 73, 86
3, 454337, Note_off_c, 4, 78, 0
3, 454400, Note_on_c, 4, 76, 91
3, 454401, Note_off_c, 4, 73, 0
3, 454464, Note_on_c, 4, 71, 84
3, 454465, Note_off_c, 4, 76, 0
3, 454528, Note_on_c, 4, 70, 80
3, 454529, Note_off_c, 4, 71, 0
3, 454592, Note_on_c, 4, 66, 89
3, 454593, Note_off_c, 4, 70, 0
3, 454652, Note_off_c, 4, 66, 0
3, 454912, Note_on_c, 4, 78, 92
3, 454976, Note_on_c, 4, 72, 80
3, 454977, Note_off_c, 4, 78, 0
3, 455040, Note_on_c, 4, 74, 99
3, 455041, Note_off_c, 4, 72, 0
3, 455104, Note_on_c, 4, 71, 86
3, 455105, Note_off_c, 4, 74, 0
3, 455168, Note_on_c, 4, 67, 82
3, 455169, Note_off_c, 4, 71, 0
3, 455232, Note_on_c, 4, 66, 74
3, 455233, Note_off_c, 4, 67, 0
3, 455292, Note_off_c, 4, 66, 0
3, 455424, Note_on_c, 4, 82, 90
3, 455488, Note_on_c, 4, 80, 80
3, 455489, Note_off_c, 4, 82, 0
3, 455552, Note_on_c, 4, 75, 83
3, 455553, Note_off_c, 4, 80, 0
3, 455616, Note_on_c, 4, 78, 91
3, 455617, Note_off_c, 4, 75, 0
3, 455680, Note_on_c, 4, 80, 102
3, 455681, Note_off_c, 4, 78, 0
3, 455744, Note_on_c, 4, 70, 80
3, 455745, Note_off_c, 4, 80, 0
3, 455804, Note_off_c, 4, 70, 0
3, 455808, Note_on_c, 4, 69, 104
3, 455808, Note_on_c, 4, 74, 104
3, 455808, Note_on_c, 4, 66, 89
3, 456064, Note_off_c, 4, 69, 0
3, 456064, Note_off_c, 4, 74, 0
3, 456064, Note_off_c, 4, 66, 0
3, 456064, Note_on_c, 4, 70, 103
3, 456064, Note_on_c, 4, 76, 103
3, 456064, Note_on_c, 4, 67, 102
3, 456320, Note_off_c, 4, 70, 0
3, 456320, Note_off_c, 4, 76, 0
3, 456320, Note_off_c, 4, 67, 0
3, 456320, Note_on_c, 4, 69, 91
3, 456320, Note_on_c, 4, 74, 91
3, 456320, Note_on_c, 4, 65, 90
3, 456384, Note_off_c, 4, 69, 0
3, 456384, Note_off_c, 4, 74, 0
3, 456384, Note_off_c, 4, 65, 0
3, 456448, Note_on_c, 4, 76, 112
3, 456448, Note_on_c, 4, 80, 112
3, 456448, Note_on_c, 4, 69, 108
3, 456576, Note_off_c, 4, 69, 0
3, 456704, Note_off_c, 4, 76, 0
3, 456704, Note_off_c, 4, 80, 0
3, 456704, Note_on_c, 4, 76, 100
3, 456704, Note_on_c, 4, 80, 100
3, 456704, Note_on_c, 4, 69, 97
3, 456960, Note_off_c, 4, 76, 0
3, 456960, Note_off_c, 4, 80, 0
3, 456960, Note_off_c, 4, 69, 0
3, 456960, Note_on_c, 4, 74, 117
3, 456960, Note_on_c, 4, 86, 117
3, 456960, Note_on_c, 4, 71, 106
3, 457216, Note_off_c, 4, 74, 0
3, 457216, Note_off_c, 4, 86, 0
3, 457216, Note_off_c, 4, 71, 0
3, 457216, Note_on_c, 4, 78, 85
3, 457216, Note_on_c, 4, 73, 104
3, 457344, Note_off_c, 4, 78, 0
3, 457344, Note_off_c, 4, 73, 0
3, 457344, Note_on_c, 4, 72, 99
3, 457344, Note_on_c, 4, 81, 99
3, 457344, Note_on_c, 4, 69, 88
3, 457600, Note_off_c, 4, 72, 0
3, 457600, Note_off_c, 4, 81, 0
3, 457600, Note_off_c, 4, 69, 0
3, 457600, Note_on_c, 4, 72, 101
3, 457600, Note_on_c, 4, 81, 101
3, 457600, Note_on_c, 4, 69, 97
3, 457728, Note_off_c, 4, 72, 0
3, 457728, Note_off_c, 4, 81, 0
3, 457728, Note_off_c, 4, 69, 0
3, 457856, Note_on_c, 4, 64, 87
3, 457920, Note_on_c, 4, 67, 90
3, 457921, Note_off_c, 4, 64, 0
3, 457984, Note_on_c, 4, 69, 104
3, 457985, Note_off_c, 4, 67, 0
3, 458048, Note_on_c, 4, 71, 111
3, 458049, Note_off_c, 4, 69, 0
3, 458112, Note_on_c, 4, 74, 108
3, 458113, Note_off_c, 4, 71, 0
3, 458176, Note_on_c, 4, 72, 105
3, 458177, Note_off_c, 4, 74, 0
3, 458240, Note_on_c, 4, 81, 120
3, 458241, Note_off_c, 4, 72, 0
3, 458304, Note_on_c, 4, 78, 115
3, 458305, Note_off_c, 4, 81, 0
3, 458364, Note_off_c, 4, 78, 0
3, 458432, Note_on_c, 4, 66, 85
3, 458496, Note_on_c, 4, 70, 94
3, 458497, Note_off_c, 4, 66, 0
3, 458560, Note_on_c, 4, 74, 109
3, 458561, Note_off_c, 4, 70, 0
3, 458624, Note_on_c, 4, 72, 107
3, 458625, Note_off_c, 4, 74, 0
3, 458688, Note_on_c, 4, 78, 115
3, 458689, Note_off_c, 4, 72, 0
3, 458752, Note_on_c, 4, 81, 126
3, 458753, Note_off_c, 4, 78, 0
3, 458816, Note_on_c, 4, 82, 102
3, 458817, Note_off_c, 4, 81, 0
3, 458876, Note_off_c, 4, 82, 0
3, 458944, Note_on_c, 4, 64, 89
3, 459008, Note_on_c, 4, 67, 96
3, 459009, Note_off_c, 4, 64, 0
3, 459072, Note_on_c, 4, 73, 114
3, 459073, Note_off_c, 4, 67, 0
3, 459132, Note_off_c, 4, 73, 0
3, 459136, Note_on_c, 4, 60, 89
3, 459200, Note_on_c, 4, 67, 89
3, 459200, Note_on_c, 4, 67, 103
3, 459201, Note_off_c, 4, 60, 0
3, 459264, Note_on_c, 4, 71, 96
3, 459264, Note_on_c, 4, 71, 113
3, 459265, Note_off_c, 4, 67, 0
3, 459265, Note_off_c, 4, 67, 0
3, 459328, Note_on_c, 4, 74, 101
3, 459328, Note_on_c, 4, 74, 124
3, 459329, Note_off_c, 4, 71, 0
3, 459329, Note_off_c, 4, 71, 0
3, 459388, Note_off_c, 4, 74, 0
3, 459388, Note_off_c, 4, 74, 0
3, 459648, Note_on_c, 4, 67, 85
3, 459712, Note_on_c, 4, 65, 78
3, 459713, Note_off_c, 4, 67, 0
3, 459776, Note_on_c, 4, 72, 115
3, 459777, Note_off_c, 4, 65, 0
3, 459836, Note_off_c, 4, 72, 0
3, 459840, Note_on_c, 4, 78, 88
3, 459904, Note_on_c, 4, 81, 96
3, 459905, Note_off_c, 4, 78, 0
3, 459968, Note_on_c, 4, 73, 79
3, 459969, Note_off_c, 4, 81, 0
3, 460032, Note_on_c, 4, 72, 98
3, 460032, Note_on_c, 4, 86, 98
3, 460032, Note_on_c, 4, 68, 89
3, 460033, Note_off_c, 4, 73, 0
3, 460275, Note_off_c, 4, 72, 0
3, 460275, Note_off_c, 4, 86, 0
3, 460288, Note_off_c, 4, 68, 0
3, 460288, Note_on_c, 4, 72, 102
3, 460288, Note_on_c, 4, 86, 102
3, 460288, Note_on_c, 4, 69, 102
3, 460544, Note_off_c, 4, 72, 0
3, 460544, Note_off_c, 4, 86, 0
3, 460544, Note_off_c, 4, 69, 0
3, 460544, Note_on_c, 4, 70, 102
3, 460544, Note_on_c, 4, 86, 102
3, 460544, Note_on_c, 4, 67, 94
3, 460800, Note_off_c, 4, 70, 0
3, 460800, Note_off_c, 4, 86, 0
3, 460800, Note_off_c, 4, 67, 0
3, 460800, Note_on_c, 4, 71, 106
3, 460800, Note_on_c, 4, 89, 106
3, 460800, Note_on_c, 4, 67, 96
3, 461056, Note_off_c, 4, 71, 0
3, 461056, Note_off_c, 4, 89, 0
3, 461056, Note_off_c, 4, 67, 0
3, 461056, Note_on_c, 4, 74, 91
3, 461056, Note_on_c, 4, 87, 91
3, 461056, Note_on_c, 4, 69, 106
3, 461312, Note_off_c, 4, 74, 0
3, 461312, Note_off_c, 4, 87, 0
3, 461312, Note_off_c, 4, 69, 0
3, 461312, Note_on_c, 4, 78, 96
3, 461312, Note_on_c, 4, 87, 96
3, 461312, Note_on_c, 4, 72, 109
3, 461440, Note_off_c, 4, 78, 0
3, 461440, Note_off_c, 4, 87, 0
3, 461440, Note_off_c, 4, 72, 0
3, 461440, Note_on_c, 4, 78, 105
3, 461440, Note_on_c, 4, 88, 105
3, 461440, Note_on_c, 4, 72, 103
3, 461824, Note_off_c, 4, 78, 0
3, 461824, Note_off_c, 4, 88, 0
3, 461824, Note_off_c, 4, 72, 0
3, 461824, Note_on_c, 4, 75, 108
3, 461824, Note_on_c, 4, 90, 108
3, 461824, Note_on_c, 4, 72, 96
3, 462080, Note_off_c, 4, 75, 0
3, 462080, Note_off_c, 4, 90, 0
3, 462080, Note_off_c, 4, 72, 0
3, 462336, Note_on_c, 4, 78, 88
3, 462336, Note_on_c, 4, 87, 88
3, 462336, Note_on_c, 4, 72, 89
3, 462592, Note_off_c, 4, 78, 0
3, 462592, Note_off_c, 4, 87, 0
3, 462592, Note_off_c, 4, 72, 0
3, 462592, Note_on_c, 4, 80, 93
3, 462592, Note_on_c, 4, 86, 93
3, 462592, Note_on_c, 4, 73, 99
3, 462848, Note_off_c, 4, 80, 0
3, 462848, Note_off_c, 4, 86, 0
3, 462848, Note_off_c, 4, 73, 0
3, 462976, Note_on_c, 4, 78, 84
3, 462976, Note_on_c, 4, 87, 84
3, 462976, Note_on_c, 4, 72, 91
3, 463232, Note_off_c, 4, 78, 0
3, 463232, Note_off_c, 4, 87, 0
3, 463232, Note_off_c, 4, 72, 0
3, 463232, Note_on_c, 4, 80, 91
3, 463232, Note_on_c, 4, 86, 91
3, 463232, Note_on_c, 4, 73, 99
3, 463616, Note_off_c, 4, 80, 0
3, 463616, Note_off_c, 4, 86, 0
3, 463616, Note_off_c, 4, 73, 0
3, 463744, Note_on_c, 4, 80, 88
3, 463744, Note_on_c, 4, 86, 88
3, 463744, Note_on_c, 4, 73, 89
3, 464000, Note_off_c, 4, 80, 0
3, 464000, Note_off_c, 4, 86, 0
3, 464000, Note_off_c, 4, 73, 0
3, 464128, Note_on_c, 4, 80, 88
3, 464128, Note_on_c, 4, 86, 88
3, 464128, Note_on_c, 4, 73, 85
3, 464512, Note_off_c, 4, 80, 0
3, 464512, Note_off_c, 4, 86, 0
3, 464512, Note_off_c, 4, 73, 0
3, 464768, Note_on_c, 4, 80, 88
3, 464768, Note_on_c, 4, 86, 88
3, 464768, Note_on_c, 4, 73, 87
3, 465536, Note_off_c, 4, 80, 0
3, 465536, Note_off_c, 4, 86, 0
3, 465536, Note_off_c, 4, 73, 0
3, 465536, Note_on_c, 4, 80, 101
3, 465536, Note_on_c, 4, 86, 101
3, 465536, Note_on_c, 4, 73, 98
3, 465792, Note_off_c, 4, 80, 0
3, 465792, Note_off_c, 4, 86, 0
3, 465792, Note_off_c, 4, 73, 0
3, 466176, Note_on_c, 4, 86, 89
3, 466176, Note_on_c, 4, 90, 89
3, 466176, Note_on_c, 4, 73, 91
3, 466688, Note_off_c, 4, 86, 0
3, 466688, Note_off_c, 4, 90, 0
3, 466688, Note_off_c, 4, 73, 0
3, 466816, Note_on_c, 4, 86, 92
3, 466816, Note_on_c, 4, 90, 92
3, 466816, Note_on_c, 4, 73, 90
3, 467328, Note_off_c, 4, 86, 0
3, 467328, Note_off_c, 4, 90, 0
3, 467328, Note_off_c, 4, 73, 0
3, 467456, Note_on_c, 4, 86, 88
3, 467456, Note_on_c, 4, 90, 88
3, 467456, Note_on_c, 4, 73, 87
3, 468096, Note_off_c, 4, 86, 0
3, 468096, Note_off_c, 4, 90, 0
3, 468096, Note_off_c, 4, 73, 0
3, 468097, End_track
4, 0, Start_track
4, 0, Program_c, 4, 68
4, 0, Control_c, 4, 121, 0
4, 0, Control_c, 4, 64, 0
4, 0, Control_c, 4, 91, 55
4, 0, Control_c, 4, 10, 73
4, 0, Control_c, 4, 7, 86
4, 0, Control_c, 4, 121, 0
4, 0, Control_c, 4, 64, 0
4, 0, Control_c, 4, 91, 55
4, 0, Control_c, 4, 10, 73
4, 0, Control_c, 4, 7, 86
4, 0, Title_t, "English Horn"
4, 23936, Note_on_c, 4, 71, 63
4, 24000, Note_on_c, 4, 69, 64
4, 24001, Note_off_c, 4, 71, 0
4, 24149, Note_on_c, 4, 56, 63
4, 24151, Note_off_c, 4, 69, 0
4, 24433, Note_off_c, 4, 56, 0
4, 24448, Note_on_c, 4, 61, 82
4, 24512, Note_on_c, 4, 62, 83
4, 24513, Note_off_c, 4, 61, 0
4, 24640, Note_on_c, 4, 64, 76
4, 24642, Note_off_c, 4, 62, 0
4, 24704, Note_on_c, 4, 72, 93
4, 24705, Note_off_c, 4, 64, 0
4, 24917, Note_on_c, 4, 70, 63
4, 24921, Note_off_c, 4, 72, 0
4, 25216, Note_on_c, 4, 64, 52
4, 25221, Note_off_c, 4, 70, 0
4, 25280, Note_on_c, 4, 66, 71
4, 25281, Note_off_c, 4, 64, 0
4, 25408, Note_on_c, 4, 67, 73
4, 25410, Note_off_c, 4, 66, 0
4, 25472, Note_on_c, 4, 70, 82
4, 25473, Note_off_c, 4, 67, 0
4, 25674, Note_off_c, 4, 70, 0
4, 50176, Program_c, 5, 71
4, 50176, Control_c, 5, 7, 86
4, 50176, Control_c, 5, 10, 73
4, 50176, Control_c, 5, 91, 55
4, 50176, Control_c, 5, 7, 86
4, 50176, Control_c, 5, 10, 73
4, 50176, Control_c, 5, 91, 55
4, 51029, Note_on_c, 5, 57, 80
4, 51114, Note_on_c, 5, 58, 78
4, 51115, Note_off_c, 5, 57, 0
4, 51200, Note_on_c, 5, 60, 89
4, 51201, Note_off_c, 5, 58, 0
4, 51285, Note_on_c, 5, 65, 101
4, 51286, Note_off_c, 5, 60, 0
4, 51370, Note_on_c, 5, 62, 78
4, 51371, Note_off_c, 5, 65, 0
4, 51456, Note_on_c, 5, 63, 79
4, 51457, Note_off_c, 5, 62, 0
4, 51541, Note_on_c, 5, 65, 93
4, 51542, Note_off_c, 5, 63, 0
4, 51626, Note_on_c, 5, 69, 109
4, 51627, Note_off_c, 5, 65, 0
4, 51669, Note_off_c, 5, 69, 0
4, 51669, Note_on_c, 5, 70, 88
4, 51712, Note_off_c, 5, 70, 0
4, 51712, Note_on_c, 5, 72, 85
4, 51754, Note_off_c, 5, 72, 0
4, 51754, Note_on_c, 5, 73, 85
4, 51797, Note_off_c, 5, 73, 0
4, 51797, Note_on_c, 5, 75, 88
4, 51882, Note_on_c, 5, 77, 92
4, 51883, Note_off_c, 5, 75, 0
4, 51968, Note_on_c, 5, 80, 91
4, 51969, Note_off_c, 5, 77, 0
4, 52028, Note_off_c, 5, 80, 0
4, 52032, Note_on_c, 5, 60, 62
4, 52160, Note_on_c, 5, 81, 74
4, 52162, Note_off_c, 5, 60, 0
4, 52281, Note_off_c, 5, 81, 0
4, 52288, Note_on_c, 5, 63, 58
4, 52416, Note_off_c, 5, 63, 0
4, 52480, Note_on_c, 5, 66, 73
4, 52608, Note_on_c, 5, 68, 78
4, 52610, Note_off_c, 5, 66, 0
4, 52672, Note_on_c, 5, 69, 89
4, 52673, Note_off_c, 5, 68, 0
4, 52778, Note_on_c, 5, 73, 92
4, 52780, Note_off_c, 5, 69, 0
4, 52864, Note_on_c, 5, 77, 98
4, 52865, Note_off_c, 5, 73, 0
4, 52985, Note_off_c, 5, 77, 0
4, 52992, Note_on_c, 5, 81, 78
4, 53077, Note_off_c, 5, 81, 0
4, 53077, Note_on_c, 5, 62, 70
4, 53248, Note_off_c, 5, 62, 0
4, 53248, Note_on_c, 5, 82, 84
4, 53333, Note_off_c, 5, 82, 0
4, 53333, Note_on_c, 5, 60, 71
4, 53504, Note_off_c, 5, 60, 0
4, 53589, Note_on_c, 5, 58, 78
4, 53674, Note_off_c, 5, 58, 0
4, 53760, Note_on_c, 5, 57, 86
4, 53845, Note_off_c, 5, 57, 0
4, 71168, Note_on_c, 5, 82, 91
4, 71253, Note_on_c, 5, 81, 83
4, 71254, Note_off_c, 5, 82, 0
4, 71338, Note_on_c, 5, 79, 91
4, 71339, Note_off_c, 5, 81, 0
4, 71424, Note_on_c, 5, 77, 80
4, 71425, Note_off_c, 5, 79, 0
4, 71488, Note_on_c, 5, 76, 93
4, 71489, Note_off_c, 5, 77, 0
4, 71552, Note_on_c, 5, 75, 92
4, 71553, Note_off_c, 5, 76, 0
4, 71616, Note_on_c, 5, 73, 89
4, 71617, Note_off_c, 5, 75, 0
4, 71680, Note_on_c, 5, 74, 108
4, 71681, Note_off_c, 5, 73, 0
4, 71731, Note_on_c, 5, 72, 101
4, 71732, Note_off_c, 5, 74, 0
4, 71782, Note_on_c, 5, 71, 92
4, 71783, Note_off_c, 5, 72, 0
4, 71833, Note_on_c, 5, 69, 86
4, 71834, Note_off_c, 5, 71, 0
4, 71884, Note_on_c, 5, 68, 91
4, 71885, Note_off_c, 5, 69, 0
4, 71936, Note_on_c, 5, 66, 87
4, 71937, Note_off_c, 5, 68, 0
4, 71987, Note_on_c, 5, 64, 91
4, 71988, Note_off_c, 5, 66, 0
4, 72038, Note_on_c, 5, 63, 88
4, 72039, Note_off_c, 5, 64, 0
4, 72089, Note_on_c, 5, 62, 91
4, 72090, Note_off_c, 5, 63, 0
4, 72140, Note_on_c, 5, 60, 83
4, 72141, Note_off_c, 5, 62, 0
4, 72189, Note_off_c, 5, 60, 0
4, 72192, Note_on_c, 5, 63, 127
4, 72192, Note_on_c, 5, 75, 127
4, 72224, Note_off_c, 5, 63, 0
4, 72224, Note_off_c, 5, 75, 0
4, 72224, Note_on_c, 5, 59, 95
4, 72224, Note_on_c, 5, 71, 95
4, 72256, Note_off_c, 5, 59, 0
4, 72256, Note_off_c, 5, 71, 0
4, 72256, Note_on_c, 5, 57, 95
4, 72256, Note_on_c, 5, 69, 95
4, 72288, Note_off_c, 5, 57, 0
4, 72288, Note_off_c, 5, 69, 0
4, 72288, Note_on_c, 5, 55, 91
4, 72288, Note_on_c, 5, 67, 91
4, 72320, Note_off_c, 5, 55, 0
4, 72320, Note_off_c, 5, 67, 0
4, 72320, Note_on_c, 5, 54, 89
4, 72320, Note_on_c, 5, 66, 89
4, 72352, Note_off_c, 5, 54, 0
4, 72352, Note_off_c, 5, 66, 0
4, 72352, Note_on_c, 5, 52, 96
4, 72352, Note_on_c, 5, 64, 96
4, 72384, Note_off_c, 5, 52, 0
4, 72384, Note_off_c, 5, 64, 0
4, 72384, Note_on_c, 5, 51, 91
4, 72384, Note_on_c, 5, 63, 91
4, 72416, Note_off_c, 5, 51, 0
4, 72416, Note_off_c, 5, 63, 0
4, 72416, Note_on_c, 5, 49, 92
4, 72416, Note_on_c, 5, 61, 92
4, 72446, Note_off_c, 5, 49, 0
4, 72446, Note_off_c, 5, 61, 0
4, 72448, Note_on_c, 5, 48, 88
4, 72448, Note_on_c, 5, 60, 88
4, 72473, Note_off_c, 5, 48, 0
4, 72473, Note_off_c, 5, 60, 0
4, 72473, Note_on_c, 5, 46, 91
4, 72473, Note_on_c, 5, 58, 91
4, 72499, Note_off_c, 5, 46, 0
4, 72499, Note_off_c, 5, 58, 0
4, 72499, Note_on_c, 5, 44, 91
4, 72499, Note_on_c, 5, 56, 91
4, 72524, Note_off_c, 5, 44, 0
4, 72524, Note_off_c, 5, 56, 0
4, 72524, Note_on_c, 5, 42, 97
4, 72524, Note_on_c, 5, 54, 97
4, 72550, Note_off_c, 5, 42, 0
4, 72550, Note_off_c, 5, 54, 0
4, 72550, Note_on_c, 5, 40, 96
4, 72550, Note_on_c, 5, 52, 96
4, 72576, Note_off_c, 5, 40, 0
4, 72576, Note_off_c, 5, 52, 0
4, 72576, Note_on_c, 5, 38, 96
4, 72576, Note_on_c, 5, 50, 96
4, 72601, Note_off_c, 5, 38, 0
4, 72601, Note_off_c, 5, 50, 0
4, 72601, Note_on_c, 5, 40, 98
4, 72601, Note_on_c, 5, 52, 98
4, 72627, Note_off_c, 5, 40, 0
4, 72627, Note_off_c, 5, 52, 0
4, 72627, Note_on_c, 5, 42, 101
4, 72627, Note_on_c, 5, 54, 101
4, 72652, Note_off_c, 5, 42, 0
4, 72652, Note_off_c, 5, 54, 0
4, 72652, Note_on_c, 5, 44, 100
4, 72652, Note_on_c, 5, 56, 100
4, 72678, Note_off_c, 5, 44, 0
4, 72678, Note_off_c, 5, 56, 0
4, 72678, Note_on_c, 5, 46, 96
4, 72678, Note_on_c, 5, 58, 96
4, 72704, Note_off_c, 5, 46, 0
4, 72704, Note_off_c, 5, 58, 0
4, 72704, Note_on_c, 5, 48, 102
4, 72704, Note_on_c, 5, 60, 102
4, 72736, Note_off_c, 5, 48, 0
4, 72736, Note_off_c, 5, 60, 0
4, 72736, Note_on_c, 5, 49, 107
4, 72736, Note_on_c, 5, 61, 107
4, 72768, Note_off_c, 5, 49, 0
4, 72768, Note_off_c, 5, 61, 0
4, 72768, Note_on_c, 5, 51, 101
4, 72768, Note_on_c, 5, 63, 101
4, 72800, Note_off_c, 5, 51, 0
4, 72800, Note_off_c, 5, 63, 0
4, 72800, Note_on_c, 5, 52, 105
4, 72800, Note_on_c, 5, 64, 105
4, 72832, Note_off_c, 5, 52, 0
4, 72832, Note_off_c, 5, 64, 0
4, 72832, Note_on_c, 5, 54, 106
4, 72832, Note_on_c, 5, 66, 106
4, 72864, Note_off_c, 5, 54, 0
4, 72864, Note_off_c, 5, 66, 0
4, 72864, Note_on_c, 5, 55, 103
4, 72864, Note_on_c, 5, 67, 103
4, 72896, Note_off_c, 5, 55, 0
4, 72896, Note_off_c, 5, 67, 0
4, 72896, Note_on_c, 5, 57, 108
4, 72896, Note_on_c, 5, 69, 108
4, 72928, Note_off_c, 5, 57, 0
4, 72928, Note_off_c, 5, 69, 0
4, 72928, Note_on_c, 5, 59, 108
4, 72928, Note_on_c, 5, 71, 108
4, 72960, Note_off_c, 5, 59, 0
4, 72960, Note_off_c, 5, 71, 0
4, 72960, Note_on_c, 5, 63, 107
4, 72960, Note_on_c, 5, 75, 107
4, 72990, Note_off_c, 5, 63, 0
4, 72990, Note_off_c, 5, 75, 0
4, 72992, Note_on_c, 5, 60, 92
4, 72992, Note_on_c, 5, 72, 92
4, 73024, Note_off_c, 5, 60, 0
4, 73024, Note_off_c, 5, 72, 0
4, 73024, Note_on_c, 5, 62, 104
4, 73024, Note_on_c, 5, 74, 104
4, 73056, Note_off_c, 5, 62, 0
4, 73056, Note_off_c, 5, 74, 0
4, 73056, Note_on_c, 5, 63, 105
4, 73056, Note_on_c, 5, 75, 105
4, 73088, Note_off_c, 5, 63, 0
4, 73088, Note_off_c, 5, 75, 0
4, 73088, Note_on_c, 5, 64, 102
4, 73088, Note_on_c, 5, 76, 102
4, 73120, Note_off_c, 5, 64, 0
4, 73120, Note_off_c, 5, 76, 0
4, 73120, Note_on_c, 5, 66, 105
4, 73120, Note_on_c, 5, 78, 105
4, 73152, Note_off_c, 5, 66, 0
4, 73152, Note_off_c, 5, 78, 0
4, 73152, Note_on_c, 5, 68, 105
4, 73152, Note_on_c, 5, 80, 105
4, 73184, Note_off_c, 5, 68, 0
4, 73184, Note_off_c, 5, 80, 0
4, 73184, Note_on_c, 5, 69, 106
4, 73184, Note_on_c, 5, 81, 106
4, 73216, Note_off_c, 5, 69, 0
4, 73216, Note_off_c, 5, 81, 0
4, 73216, Note_on_c, 5, 71, 105
4, 73216, Note_on_c, 5, 83, 105
4, 73248, Note_off_c, 5, 71, 0
4, 73248, Note_off_c, 5, 83, 0
4, 73248, Note_on_c, 5, 72, 104
4, 73248, Note_on_c, 5, 84, 104
4, 73280, Note_off_c, 5, 72, 0
4, 73280, Note_off_c, 5, 84, 0
4, 73280, Note_on_c, 5, 74, 102
4, 73280, Note_on_c, 5, 86, 102
4, 73310, Note_off_c, 5, 74, 0
4, 73310, Note_off_c, 5, 86, 0
4, 81920, Note_on_c, 5, 58, 75
4, 81920, Note_on_c, 5, 70, 75
4, 81952, Note_off_c, 5, 58, 0
4, 81952, Note_off_c, 5, 70, 0
4, 81952, Note_on_c, 5, 56, 77
4, 81952, Note_on_c, 5, 68, 77
4, 81984, Note_off_c, 5, 56, 0
4, 81984, Note_off_c, 5, 68, 0
4, 81984, Note_on_c, 5, 55, 79
4, 81984, Note_on_c, 5, 67, 79
4, 82016, Note_off_c, 5, 55, 0
4, 82016, Note_off_c, 5, 67, 0
4, 82016, Note_on_c, 5, 56, 86
4, 82016, Note_on_c, 5, 68, 86
4, 82048, Note_off_c, 5, 56, 0
4, 82048, Note_off_c, 5, 68, 0
4, 82048, Note_on_c, 5, 58, 91
4, 82048, Note_on_c, 5, 70, 91
4, 82080, Note_off_c, 5, 58, 0
4, 82080, Note_off_c, 5, 70, 0
4, 82080, Note_on_c, 5, 59, 92
4, 82080, Note_on_c, 5, 71, 92
4, 82112, Note_off_c, 5, 59, 0
4, 82112, Note_off_c, 5, 71, 0
4, 82112, Note_on_c, 5, 61, 89
4, 82112, Note_on_c, 5, 73, 89
4, 82144, Note_off_c, 5, 61, 0
4, 82144, Note_off_c, 5, 73, 0
4, 82144, Note_on_c, 5, 63, 89
4, 82144, Note_on_c, 5, 75, 89
4, 82176, Note_off_c, 5, 63, 0
4, 82176, Note_off_c, 5, 75, 0
4, 82176, Note_on_c, 5, 64, 84
4, 82176, Note_on_c, 5, 76, 84
4, 82208, Note_off_c, 5, 64, 0
4, 82208, Note_off_c, 5, 76, 0
4, 82208, Note_on_c, 5, 65, 87
4, 82208, Note_on_c, 5, 77, 87
4, 82240, Note_off_c, 5, 65, 0
4, 82240, Note_off_c, 5, 77, 0
4, 82240, Note_on_c, 5, 67, 88
4, 82240, Note_on_c, 5, 79, 88
4, 82272, Note_off_c, 5, 67, 0
4, 82272, Note_off_c, 5, 79, 0
4, 82272, Note_on_c, 5, 68, 87
4, 82272, Note_on_c, 5, 80, 87
4, 82304, Note_off_c, 5, 68, 0
4, 82304, Note_off_c, 5, 80, 0
4, 82304, Note_on_c, 5, 70, 90
4, 82304, Note_on_c, 5, 82, 90
4, 82336, Note_off_c, 5, 70, 0
4, 82336, Note_off_c, 5, 82, 0
4, 82336, Note_on_c, 5, 73, 65
4, 82368, Note_off_c, 5, 73, 0
4, 82368, Note_on_c, 5, 75, 87
4, 82400, Note_off_c, 5, 75, 0
4, 82400, Note_on_c, 5, 76, 88
4, 82432, Note_off_c, 5, 76, 0
4, 82432, Note_on_c, 5, 77, 88
4, 82464, Note_off_c, 5, 77, 0
4, 82464, Note_on_c, 5, 78, 87
4, 82496, Note_off_c, 5, 78, 0
4, 82496, Note_on_c, 5, 80, 89
4, 82528, Note_off_c, 5, 80, 0
4, 82528, Note_on_c, 5, 78, 79
4, 82560, Note_off_c, 5, 78, 0
4, 82560, Note_on_c, 5, 77, 80
4, 82592, Note_off_c, 5, 77, 0
4, 82592, Note_on_c, 5, 75, 76
4, 82624, Note_off_c, 5, 75, 0
4, 82624, Note_on_c, 5, 70, 70
4, 82656, Note_off_c, 5, 70, 0
4, 82656, Note_on_c, 5, 71, 88
4, 82688, Note_off_c, 5, 71, 0
4, 82688, Note_on_c, 5, 66, 72
4, 82720, Note_off_c, 5, 66, 0
4, 82720, Note_on_c, 5, 68, 106
4, 82720, Note_on_c, 5, 80, 106
4, 82752, Note_off_c, 5, 68, 0
4, 82752, Note_off_c, 5, 80, 0
4, 82752, Note_on_c, 5, 65, 81
4, 82752, Note_on_c, 5, 77, 81
4, 82784, Note_off_c, 5, 65, 0
4, 82784, Note_off_c, 5, 77, 0
4, 82784, Note_on_c, 5, 64, 80
4, 82784, Note_on_c, 5, 76, 80
4, 82816, Note_off_c, 5, 64, 0
4, 82816, Note_off_c, 5, 76, 0
4, 82816, Note_on_c, 5, 61, 76
4, 82816, Note_on_c, 5, 73, 76
4, 82848, Note_off_c, 5, 61, 0
4, 82848, Note_off_c, 5, 73, 0
4, 82848, Note_on_c, 5, 59, 79
4, 82848, Note_on_c, 5, 71, 79
4, 82880, Note_off_c, 5, 59, 0
4, 82880, Note_off_c, 5, 71, 0
4, 82880, Note_on_c, 5, 58, 71
4, 82880, Note_on_c, 5, 70, 71
4, 82912, Note_off_c, 5, 58, 0
4, 82912, Note_off_c, 5, 70, 0
4, 82912, Note_on_c, 5, 56, 80
4, 82912, Note_on_c, 5, 68, 80
4, 82944, Note_off_c, 5, 56, 0
4, 82944, Note_off_c, 5, 68, 0
4, 82944, Note_on_c, 5, 55, 76
4, 82944, Note_on_c, 5, 67, 76
4, 82976, Note_off_c, 5, 55, 0
4, 82976, Note_off_c, 5, 67, 0
4, 82976, Note_on_c, 5, 53, 79
4, 82976, Note_on_c, 5, 65, 79
4, 83008, Note_off_c, 5, 53, 0
4, 83008, Note_off_c, 5, 65, 0
4, 83008, Note_on_c, 5, 52, 77
4, 83008, Note_on_c, 5, 64, 77
4, 83040, Note_off_c, 5, 52, 0
4, 83040, Note_off_c, 5, 64, 0
4, 83040, Note_on_c, 5, 50, 77
4, 83040, Note_on_c, 5, 62, 77
4, 83070, Note_off_c, 5, 50, 0
4, 83070, Note_off_c, 5, 62, 0
4, 84821, Note_on_c, 5, 61, 85
4, 84906, Note_on_c, 5, 60, 79
4, 84907, Note_off_c, 5, 61, 0
4, 84987, Note_off_c, 5, 60, 0
4, 85248, Note_on_c, 5, 56, 87
4, 85418, Note_off_c, 5, 56, 0
4, 85418, Note_on_c, 5, 55, 92
4, 85546, Note_off_c, 5, 55, 0
4, 85546, Note_on_c, 5, 54, 95
4, 85674, Note_off_c, 5, 54, 0
4, 85674, Note_on_c, 5, 53, 100
4, 85760, Note_off_c, 5, 53, 0
4, 88448, Note_on_c, 5, 54, 85
4, 88896, Note_off_c, 5, 54, 0
4, 88896, Note_on_c, 5, 71, 127
4, 89024, Note_off_c, 5, 71, 0
4, 89024, Note_on_c, 5, 53, 92
4, 89216, Note_off_c, 5, 53, 0
4, 89216, Note_on_c, 5, 71, 127
4, 89344, Note_off_c, 5, 71, 0
4, 89344, Note_on_c, 5, 53, 90
4, 89536, Note_off_c, 5, 53, 0
4, 89536, Note_on_c, 5, 71, 127
4, 89664, Note_off_c, 5, 71, 0
4, 89664, Note_on_c, 5, 53, 84
4, 89856, Note_off_c, 5, 53, 0
4, 89856, Note_on_c, 5, 71, 127
4, 89984, Note_off_c, 5, 71, 0
4, 89984, Note_on_c, 5, 53, 91
4, 90304, Note_off_c, 5, 53, 0
4, 90304, Note_on_c, 5, 53, 95
4, 90560, Note_off_c, 5, 53, 0
4, 90560, Note_on_c, 5, 59, 106
4, 90624, Note_on_c, 5, 62, 117
4, 90625, Note_off_c, 5, 59, 0
4, 90666, Note_off_c, 5, 62, 0
4, 90666, Note_on_c, 5, 71, 120
4, 90752, Note_on_c, 5, 74, 127
4, 90753, Note_off_c, 5, 71, 0
4, 90995, Note_off_c, 5, 74, 0
4, 91008, Note_on_c, 5, 58, 80
4, 91072, Note_on_c, 5, 60, 86
4, 91073, Note_off_c, 5, 58, 0
4, 91136, Note_on_c, 5, 71, 119
4, 91137, Note_off_c, 5, 60, 0
4, 91200, Note_on_c, 5, 74, 127
4, 91201, Note_off_c, 5, 71, 0
4, 91321, Note_off_c, 5, 74, 0
4, 91328, Note_on_c, 5, 70, 91
4, 91456, Note_on_c, 5, 84, 113
4, 91458, Note_off_c, 5, 70, 0
4, 91699, Note_off_c, 5, 84, 0
4, 91712, Note_on_c, 5, 78, 85
4, 91904, Note_on_c, 5, 60, 59
4, 91907, Note_off_c, 5, 78, 0
4, 92025, Note_off_c, 5, 60, 0
4, 92032, Note_on_c, 5, 78, 121
4, 92160, Note_on_c, 5, 60, 92
4, 92162, Note_off_c, 5, 78, 0
4, 92220, Note_off_c, 5, 60, 0
4, 92224, Note_on_c, 5, 78, 120
4, 92352, Note_on_c, 5, 81, 127
4, 92354, Note_off_c, 5, 78, 0
4, 92534, Note_off_c, 5, 81, 0
4, 92544, Note_on_c, 5, 57, 85
4, 92608, Note_on_c, 5, 78, 109
4, 92609, Note_off_c, 5, 57, 0
4, 92672, Note_on_c, 5, 81, 113
4, 92673, Note_off_c, 5, 78, 0
4, 92793, Note_off_c, 5, 81, 0
4, 92800, Note_on_c, 5, 54, 90
4, 92864, Note_on_c, 5, 82, 114
4, 92865, Note_off_c, 5, 54, 0
4, 93005, Note_off_c, 5, 82, 0
4, 93013, Note_on_c, 5, 60, 69
4, 93098, Note_on_c, 5, 70, 80
4, 93099, Note_off_c, 5, 60, 0
4, 93184, Note_on_c, 5, 75, 113
4, 93185, Note_off_c, 5, 70, 0
4, 93264, Note_off_c, 5, 75, 0
4, 93269, Note_on_c, 5, 55, 88
4, 93354, Note_on_c, 5, 66, 111
4, 93355, Note_off_c, 5, 55, 0
4, 93440, Note_on_c, 5, 69, 107
4, 93441, Note_off_c, 5, 66, 0
4, 93520, Note_off_c, 5, 69, 0
4, 93525, Note_on_c, 5, 60, 79
4, 93610, Note_on_c, 5, 73, 98
4, 93611, Note_off_c, 5, 60, 0
4, 93696, Note_on_c, 5, 77, 115
4, 93697, Note_off_c, 5, 73, 0
4, 93857, Note_off_c, 5, 77, 0
4, 93866, Note_on_c, 5, 81, 111
4, 94037, Note_off_c, 5, 81, 0
4, 94037, Note_on_c, 5, 61, 69
4, 94208, Note_off_c, 5, 61, 0
4, 94208, Note_on_c, 5, 84, 118
4, 94528, Note_off_c, 5, 84, 0
4, 94528, Note_on_c, 5, 85, 102
4, 94848, Note_off_c, 5, 85, 0
4, 94848, Note_on_c, 5, 62, 70
4, 95104, Note_off_c, 5, 62, 0
4, 95104, Note_on_c, 5, 88, 118
4, 95402, Note_on_c, 5, 87, 111
4, 95407, Note_off_c, 5, 88, 0
4, 95726, Note_off_c, 5, 87, 0
4, 95744, Note_on_c, 5, 71, 71
4, 95936, Note_off_c, 5, 71, 0
4, 95936, Note_on_c, 5, 89, 118
4, 96256, Note_off_c, 5, 89, 0
4, 96256, Note_on_c, 5, 91, 118
4, 97792, Note_off_c, 5, 91, 0
4, 122048, Note_on_c, 5, 55, 54
4, 122080, Note_off_c, 5, 55, 0
4, 122080, Note_on_c, 5, 57, 62
4, 122112, Note_off_c, 5, 57, 0
4, 122112, Note_on_c, 5, 60, 70
4, 122144, Note_off_c, 5, 60, 0
4, 122144, Note_on_c, 5, 62, 69
4, 122176, Note_off_c, 5, 62, 0
4, 122176, Note_on_c, 5, 64, 67
4, 122208, Note_off_c, 5, 64, 0
4, 122208, Note_on_c, 5, 62, 54
4, 122240, Note_off_c, 5, 62, 0
4, 122240, Note_on_c, 5, 66, 69
4, 122272, Note_off_c, 5, 66, 0
4, 122272, Note_on_c, 5, 67, 65
4, 122304, Note_off_c, 5, 67, 0
4, 122304, Note_on_c, 5, 66, 57
4, 122336, Note_off_c, 5, 66, 0
4, 122336, Note_on_c, 5, 67, 64
4, 122368, Note_off_c, 5, 67, 0
4, 122368, Note_on_c, 5, 69, 65
4, 122400, Note_off_c, 5, 69, 0
4, 122400, Note_on_c, 5, 67, 59
4, 122432, Note_off_c, 5, 67, 0
4, 122432, Note_on_c, 5, 71, 67
4, 122464, Note_off_c, 5, 71, 0
4, 122464, Note_on_c, 5, 72, 68
4, 122494, Note_off_c, 5, 72, 0
4, 122624, Note_on_c, 5, 54, 56
4, 122656, Note_off_c, 5, 54, 0
4, 122656, Note_on_c, 5, 55, 54
4, 122688, Note_off_c, 5, 55, 0
4, 122688, Note_on_c, 5, 57, 65
4, 122720, Note_off_c, 5, 57, 0
4, 122720, Note_on_c, 5, 55, 63
4, 122752, Note_off_c, 5, 55, 0
4, 122752, Note_on_c, 5, 57, 61
4, 122784, Note_off_c, 5, 57, 0
4, 122784, Note_on_c, 5, 60, 66
4, 122816, Note_off_c, 5, 60, 0
4, 122816, Note_on_c, 5, 62, 62
4, 122848, Note_off_c, 5, 62, 0
4, 122848, Note_on_c, 5, 60, 57
4, 122880, Note_off_c, 5, 60, 0
4, 122880, Note_on_c, 5, 62, 68
4, 122912, Note_off_c, 5, 62, 0
4, 122912, Note_on_c, 5, 64, 65
4, 122944, Note_off_c, 5, 64, 0
4, 122944, Note_on_c, 5, 66, 63
4, 122976, Note_off_c, 5, 66, 0
4, 122976, Note_on_c, 5, 64, 60
4, 123008, Note_off_c, 5, 64, 0
4, 123008, Note_on_c, 5, 67, 63
4, 123040, Note_off_c, 5, 67, 0
4, 123040, Note_on_c, 5, 69, 62
4, 123072, Note_off_c, 5, 69, 0
4, 123072, Note_on_c, 5, 60, 48
4, 123104, Note_off_c, 5, 60, 0
4, 123104, Note_on_c, 5, 64, 59
4, 123136, Note_off_c, 5, 64, 0
4, 123136, Note_on_c, 5, 66, 62
4, 123168, Note_off_c, 5, 66, 0
4, 123168, Note_on_c, 5, 64, 57
4, 123200, Note_off_c, 5, 64, 0
4, 123200, Note_on_c, 5, 67, 64
4, 123232, Note_off_c, 5, 67, 0
4, 123232, Note_on_c, 5, 69, 67
4, 123264, Note_off_c, 5, 69, 0
4, 123264, Note_on_c, 5, 71, 66
4, 123296, Note_off_c, 5, 71, 0
4, 123296, Note_on_c, 5, 72, 63
4, 123328, Note_off_c, 5, 72, 0
4, 123328, Note_on_c, 5, 74, 67
4, 123360, Note_off_c, 5, 74, 0
4, 123360, Note_on_c, 5, 75, 64
4, 123390, Note_off_c, 5, 75, 0
4, 123456, Note_on_c, 5, 51, 57
4, 123488, Note_off_c, 5, 51, 0
4, 123488, Note_on_c, 5, 52, 60
4, 123520, Note_off_c, 5, 52, 0
4, 123520, Note_on_c, 5, 54, 62
4, 123552, Note_off_c, 5, 54, 0
4, 123552, Note_on_c, 5, 55, 62
4, 123584, Note_off_c, 5, 55, 0
4, 123584, Note_on_c, 5, 57, 62
4, 123616, Note_off_c, 5, 57, 0
4, 123616, Note_on_c, 5, 55, 60
4, 123648, Note_off_c, 5, 55, 0
4, 123648, Note_on_c, 5, 59, 65
4, 123680, Note_off_c, 5, 59, 0
4, 123680, Note_on_c, 5, 60, 65
4, 123712, Note_off_c, 5, 60, 0
4, 123712, Note_on_c, 5, 62, 66
4, 123744, Note_off_c, 5, 62, 0
4, 123744, Note_on_c, 5, 64, 58
4, 123776, Note_off_c, 5, 64, 0
4, 123776, Note_on_c, 5, 66, 68
4, 123808, Note_off_c, 5, 66, 0
4, 123808, Note_on_c, 5, 67, 64
4, 123840, Note_off_c, 5, 67, 0
4, 123840, Note_on_c, 5, 71, 63
4, 123872, Note_off_c, 5, 71, 0
4, 123872, Note_on_c, 5, 67, 58
4, 123904, Note_off_c, 5, 67, 0
4, 123904, Note_on_c, 5, 74, 70
4, 123936, Note_off_c, 5, 74, 0
4, 123936, Note_on_c, 5, 76, 67
4, 123968, Note_off_c, 5, 76, 0
4, 123968, Note_on_c, 5, 78, 66
4, 124000, Note_off_c, 5, 78, 0
4, 124000, Note_on_c, 5, 76, 57
4, 124030, Note_off_c, 5, 76, 0
4, 124064, Note_on_c, 5, 60, 55
4, 124096, Note_off_c, 5, 60, 0
4, 124096, Note_on_c, 5, 62, 66
4, 124128, Note_off_c, 5, 62, 0
4, 124128, Note_on_c, 5, 64, 62
4, 124160, Note_off_c, 5, 64, 0
4, 124160, Note_on_c, 5, 66, 66
4, 124192, Note_off_c, 5, 66, 0
4, 124192, Note_on_c, 5, 64, 55
4, 124224, Note_off_c, 5, 64, 0
4, 124224, Note_on_c, 5, 67, 65
4, 124256, Note_off_c, 5, 67, 0
4, 124256, Note_on_c, 5, 69, 64
4, 124288, Note_off_c, 5, 69, 0
4, 124288, Note_on_c, 5, 71, 69
4, 124320, Note_off_c, 5, 71, 0
4, 124320, Note_on_c, 5, 69, 57
4, 124352, Note_off_c, 5, 69, 0
4, 124352, Note_on_c, 5, 72, 66
4, 124384, Note_off_c, 5, 72, 0
4, 124384, Note_on_c, 5, 74, 64
4, 124416, Note_off_c, 5, 74, 0
4, 124416, Note_on_c, 5, 66, 53
4, 124448, Note_off_c, 5, 66, 0
4, 124448, Note_on_c, 5, 67, 61
4, 124480, Note_off_c, 5, 67, 0
4, 124480, Note_on_c, 5, 69, 66
4, 124512, Note_off_c, 5, 69, 0
4, 124512, Note_on_c, 5, 67, 58
4, 124544, Note_off_c, 5, 67, 0
4, 124544, Note_on_c, 5, 71, 69
4, 124576, Note_off_c, 5, 71, 0
4, 124576, Note_on_c, 5, 69, 59
4, 124608, Note_off_c, 5, 69, 0
4, 124608, Note_on_c, 5, 72, 64
4, 124640, Note_off_c, 5, 72, 0
4, 124640, Note_on_c, 5, 76, 68
4, 124672, Note_off_c, 5, 76, 0
4, 124672, Note_on_c, 5, 78, 63
4, 124704, Note_off_c, 5, 78, 0
4, 124704, Note_on_c, 5, 76, 59
4, 124736, Note_off_c, 5, 76, 0
4, 124736, Note_on_c, 5, 78, 63
4, 124768, Note_off_c, 5, 78, 0
4, 124768, Note_on_c, 5, 79, 66
4, 124798, Note_off_c, 5, 79, 0
4, 124864, Note_on_c, 5, 51, 56
4, 124896, Note_off_c, 5, 51, 0
4, 124896, Note_on_c, 5, 52, 64
4, 124928, Note_off_c, 5, 52, 0
4, 124928, Note_on_c, 5, 54, 63
4, 124960, Note_off_c, 5, 54, 0
4, 124960, Note_on_c, 5, 55, 63
4, 124992, Note_off_c, 5, 55, 0
4, 124992, Note_on_c, 5, 57, 62
4, 125024, Note_off_c, 5, 57, 0
4, 125024, Note_on_c, 5, 55, 62
4, 125056, Note_off_c, 5, 55, 0
4, 125056, Note_on_c, 5, 59, 65
4, 125088, Note_off_c, 5, 59, 0
4, 125088, Note_on_c, 5, 60, 67
4, 125120, Note_off_c, 5, 60, 0
4, 125120, Note_on_c, 5, 62, 64
4, 125152, Note_off_c, 5, 62, 0
4, 125152, Note_on_c, 5, 64, 64
4, 125184, Note_off_c, 5, 64, 0
4, 125184, Note_on_c, 5, 66, 65
4, 125216, Note_off_c, 5, 66, 0
4, 125216, Note_on_c, 5, 67, 63
4, 125248, Note_off_c, 5, 67, 0
4, 125248, Note_on_c, 5, 71, 70
4, 125280, Note_off_c, 5, 71, 0
4, 125280, Note_on_c, 5, 67, 54
4, 125312, Note_off_c, 5, 67, 0
4, 125312, Note_on_c, 5, 74, 68
4, 125344, Note_off_c, 5, 74, 0
4, 125344, Note_on_c, 5, 76, 64
4, 125376, Note_off_c, 5, 76, 0
4, 125376, Note_on_c, 5, 78, 65
4, 125408, Note_off_c, 5, 78, 0
4, 125408, Note_on_c, 5, 76, 55
4, 125438, Note_off_c, 5, 76, 0
4, 125536, Note_on_c, 5, 60, 62
4, 125568, Note_off_c, 5, 60, 0
4, 125568, Note_on_c, 5, 62, 64
4, 125600, Note_off_c, 5, 62, 0
4, 125600, Note_on_c, 5, 64, 67
4, 125632, Note_off_c, 5, 64, 0
4, 125632, Note_on_c, 5, 66, 69
4, 125664, Note_off_c, 5, 66, 0
4, 125664, Note_on_c, 5, 64, 52
4, 125696, Note_off_c, 5, 64, 0
4, 125696, Note_on_c, 5, 67, 67
4, 125728, Note_off_c, 5, 67, 0
4, 125728, Note_on_c, 5, 69, 62
4, 125760, Note_off_c, 5, 69, 0
4, 125760, Note_on_c, 5, 71, 64
4, 125792, Note_off_c, 5, 71, 0
4, 125792, Note_on_c, 5, 69, 56
4, 125824, Note_off_c, 5, 69, 0
4, 125824, Note_on_c, 5, 72, 68
4, 125856, Note_off_c, 5, 72, 0
4, 125856, Note_on_c, 5, 74, 65
4, 125886, Note_off_c, 5, 74, 0
4, 125888, Note_on_c, 5, 62, 42
4, 125920, Note_off_c, 5, 62, 0
4, 125920, Note_on_c, 5, 64, 59
4, 125952, Note_off_c, 5, 64, 0
4, 125952, Note_on_c, 5, 62, 59
4, 125984, Note_off_c, 5, 62, 0
4, 125984, Note_on_c, 5, 66, 69
4, 126016, Note_off_c, 5, 66, 0
4, 126016, Note_on_c, 5, 67, 64
4, 126048, Note_off_c, 5, 67, 0
4, 126048, Note_on_c, 5, 66, 55
4, 126080, Note_off_c, 5, 66, 0
4, 126080, Note_on_c, 5, 67, 67
4, 126112, Note_off_c, 5, 67, 0
4, 126112, Note_on_c, 5, 69, 66
4, 126144, Note_off_c, 5, 69, 0
4, 126144, Note_on_c, 5, 67, 58
4, 126176, Note_off_c, 5, 67, 0
4, 126176, Note_on_c, 5, 71, 67
4, 126208, Note_off_c, 5, 71, 0
4, 126208, Note_on_c, 5, 72, 65
4, 126238, Note_off_c, 5, 72, 0
4, 126240, Note_on_c, 5, 60, 43
4, 126272, Note_off_c, 5, 60, 0
4, 126272, Note_on_c, 5, 62, 66
4, 126304, Note_off_c, 5, 62, 0
4, 126304, Note_on_c, 5, 64, 64
4, 126336, Note_off_c, 5, 64, 0
4, 126336, Note_on_c, 5, 66, 63
4, 126368, Note_off_c, 5, 66, 0
4, 126368, Note_on_c, 5, 64, 59
4, 126400, Note_off_c, 5, 64, 0
4, 126400, Note_on_c, 5, 67, 68
4, 126432, Note_off_c, 5, 67, 0
4, 126432, Note_on_c, 5, 69, 65
4, 126464, Note_off_c, 5, 69, 0
4, 126464, Note_on_c, 5, 71, 70
4, 126496, Note_off_c, 5, 71, 0
4, 126496, Note_on_c, 5, 69, 54
4, 126526, Note_off_c, 5, 69, 0
4, 126720, Note_on_c, 5, 54, 53
4, 126752, Note_off_c, 5, 54, 0
4, 126752, Note_on_c, 5, 55, 62
4, 126784, Note_off_c, 5, 55, 0
4, 126784, Note_on_c, 5, 57, 66
4, 126816, Note_off_c, 5, 57, 0
4, 126816, Note_on_c, 5, 55, 59
4, 126848, Note_off_c, 5, 55, 0
4, 126848, Note_on_c, 5, 57, 59
4, 126880, Note_off_c, 5, 57, 0
4, 126880, Note_on_c, 5, 60, 69
4, 126912, Note_off_c, 5, 60, 0
4, 126912, Note_on_c, 5, 62, 67
4, 126944, Note_off_c, 5, 62, 0
4, 126944, Note_on_c, 5, 60, 59
4, 126976, Note_off_c, 5, 60, 0
4, 126976, Note_on_c, 5, 62, 65
4, 127008, Note_off_c, 5, 62, 0
4, 127008, Note_on_c, 5, 64, 66
4, 127040, Note_off_c, 5, 64, 0
4, 127040, Note_on_c, 5, 66, 65
4, 127072, Note_off_c, 5, 66, 0
4, 127072, Note_on_c, 5, 64, 60
4, 127104, Note_off_c, 5, 64, 0
4, 127104, Note_on_c, 5, 67, 65
4, 127136, Note_off_c, 5, 67, 0
4, 127136, Note_on_c, 5, 69, 64
4, 127166, Note_off_c, 5, 69, 0
4, 127232, Note_on_c, 5, 51, 55
4, 127264, Note_off_c, 5, 51, 0
4, 127264, Note_on_c, 5, 52, 63
4, 127296, Note_off_c, 5, 52, 0
4, 127296, Note_on_c, 5, 54, 64
4, 127328, Note_off_c, 5, 54, 0
4, 127328, Note_on_c, 5, 55, 65
4, 127360, Note_off_c, 5, 55, 0
4, 127360, Note_on_c, 5, 57, 61
4, 127392, Note_off_c, 5, 57, 0
4, 127392, Note_on_c, 5, 55, 58
4, 127424, Note_off_c, 5, 55, 0
4, 127424, Note_on_c, 5, 59, 66
4, 127456, Note_off_c, 5, 59, 0
4, 127456, Note_on_c, 5, 60, 66
4, 127488, Note_off_c, 5, 60, 0
4, 127488, Note_on_c, 5, 62, 64
4, 127520, Note_off_c, 5, 62, 0
4, 127520, Note_on_c, 5, 64, 65
4, 127552, Note_off_c, 5, 64, 0
4, 127552, Note_on_c, 5, 66, 66
4, 127584, Note_off_c, 5, 66, 0
4, 127584, Note_on_c, 5, 67, 62
4, 127616, Note_off_c, 5, 67, 0
4, 127616, Note_on_c, 5, 71, 70
4, 127648, Note_off_c, 5, 71, 0
4, 127648, Note_on_c, 5, 67, 56
4, 127678, Note_off_c, 5, 67, 0
4, 166400, Note_on_c, 5, 74, 88
4, 166464, Note_on_c, 5, 70, 75
4, 166465, Note_off_c, 5, 74, 0
4, 166585, Note_off_c, 5, 70, 0
4, 166592, Note_on_c, 5, 70, 94
4, 166656, Note_on_c, 5, 74, 103
4, 166657, Note_off_c, 5, 70, 0
4, 166720, Note_on_c, 5, 77, 108
4, 166721, Note_off_c, 5, 74, 0
4, 166841, Note_off_c, 5, 77, 0
4, 166848, Note_on_c, 5, 79, 104
4, 166912, Note_on_c, 5, 77, 99
4, 166913, Note_off_c, 5, 79, 0
4, 166976, Note_on_c, 5, 74, 94
4, 166977, Note_off_c, 5, 77, 0
4, 167097, Note_off_c, 5, 74, 0
4, 167104, Note_on_c, 5, 65, 79
4, 167168, Note_on_c, 5, 67, 80
4, 167169, Note_off_c, 5, 65, 0
4, 167232, Note_on_c, 5, 70, 108
4, 167233, Note_off_c, 5, 67, 0
4, 167353, Note_off_c, 5, 70, 0
4, 167360, Note_on_c, 5, 74, 112
4, 167424, Note_on_c, 5, 82, 127
4, 167425, Note_off_c, 5, 74, 0
4, 167488, Note_on_c, 5, 77, 89
4, 167489, Note_off_c, 5, 82, 0
4, 167609, Note_off_c, 5, 77, 0
4, 167616, Note_on_c, 5, 74, 86
4, 167680, Note_on_c, 5, 70, 75
4, 167681, Note_off_c, 5, 74, 0
4, 167744, Note_on_c, 5, 67, 86
4, 167745, Note_off_c, 5, 70, 0
4, 167865, Note_off_c, 5, 67, 0
4, 167872, Note_on_c, 5, 70, 104
4, 167936, Note_on_c, 5, 74, 119
4, 167937, Note_off_c, 5, 70, 0
4, 168000, Note_on_c, 5, 77, 107
4, 168001, Note_off_c, 5, 74, 0
4, 168121, Note_off_c, 5, 77, 0
4, 168128, Note_on_c, 5, 74, 86
4, 168192, Note_on_c, 5, 65, 68
4, 168193, Note_off_c, 5, 74, 0
4, 168256, Note_on_c, 5, 67, 102
4, 168257, Note_off_c, 5, 65, 0
4, 168377, Note_off_c, 5, 67, 0
4, 168384, Note_on_c, 5, 70, 108
4, 168448, Note_on_c, 5, 74, 124
4, 168449, Note_off_c, 5, 70, 0
4, 168512, Note_on_c, 5, 78, 109
4, 168513, Note_off_c, 5, 74, 0
4, 168633, Note_off_c, 5, 78, 0
4, 168640, Note_on_c, 5, 79, 103
4, 168704, Note_on_c, 5, 78, 99
4, 168705, Note_off_c, 5, 79, 0
4, 168768, Note_on_c, 5, 74, 88
4, 168769, Note_off_c, 5, 78, 0
4, 168889, Note_off_c, 5, 74, 0
4, 168896, Note_on_c, 5, 71, 90
4, 168960, Note_on_c, 5, 66, 78
4, 168961, Note_off_c, 5, 71, 0
4, 169024, Note_on_c, 5, 67, 99
4, 169025, Note_off_c, 5, 66, 0
4, 169145, Note_off_c, 5, 67, 0
4, 169152, Note_on_c, 5, 69, 103
4, 169216, Note_on_c, 5, 74, 122
4, 169217, Note_off_c, 5, 69, 0
4, 169280, Note_on_c, 5, 78, 110
4, 169281, Note_off_c, 5, 74, 0
4, 169401, Note_off_c, 5, 78, 0
4, 169408, Note_on_c, 5, 74, 91
4, 169472, Note_on_c, 5, 78, 101
4, 169473, Note_off_c, 5, 74, 0
4, 169536, Note_on_c, 5, 79, 105
4, 169537, Note_off_c, 5, 78, 0
4, 169657, Note_off_c, 5, 79, 0
4, 169664, Note_on_c, 5, 78, 99
4, 169728, Note_on_c, 5, 74, 83
4, 169729, Note_off_c, 5, 78, 0
4, 169792, Note_on_c, 5, 71, 89
4, 169793, Note_off_c, 5, 74, 0
4, 169913, Note_off_c, 5, 71, 0
4, 169920, Note_on_c, 5, 66, 87
4, 170048, Note_on_c, 5, 74, 103
4, 170050, Note_off_c, 5, 66, 0
4, 170169, Note_off_c, 5, 74, 0
4, 170176, Note_on_c, 5, 70, 91
4, 170240, Note_on_c, 5, 74, 104
4, 170241, Note_off_c, 5, 70, 0
4, 170304, Note_on_c, 5, 82, 119
4, 170305, Note_off_c, 5, 74, 0
4, 170425, Note_off_c, 5, 82, 0
4, 170432, Note_on_c, 5, 77, 92
4, 170496, Note_on_c, 5, 74, 87
4, 170497, Note_off_c, 5, 77, 0
4, 170560, Note_on_c, 5, 70, 85
4, 170561, Note_off_c, 5, 74, 0
4, 170681, Note_off_c, 5, 70, 0
4, 170688, Note_on_c, 5, 67, 85
4, 170752, Note_on_c, 5, 70, 91
4, 170753, Note_off_c, 5, 67, 0
4, 170816, Note_on_c, 5, 74, 105
4, 170817, Note_off_c, 5, 70, 0
4, 170937, Note_off_c, 5, 74, 0
4, 170944, Note_on_c, 5, 77, 105
4, 171008, Note_on_c, 5, 74, 93
4, 171009, Note_off_c, 5, 77, 0
4, 171072, Note_on_c, 5, 65, 76
4, 171073, Note_off_c, 5, 74, 0
4, 171193, Note_off_c, 5, 65, 0
4, 171200, Note_on_c, 5, 67, 105
4, 171264, Note_on_c, 5, 65, 100
4, 171265, Note_off_c, 5, 67, 0
4, 171328, Note_on_c, 5, 67, 101
4, 171329, Note_off_c, 5, 65, 0
4, 171449, Note_off_c, 5, 67, 0
4, 171456, Note_on_c, 5, 70, 106
4, 171520, Note_on_c, 5, 74, 124
4, 171521, Note_off_c, 5, 70, 0
4, 171584, Note_on_c, 5, 65, 74
4, 171585, Note_off_c, 5, 74, 0
4, 171705, Note_off_c, 5, 65, 0
4, 171712, Note_on_c, 5, 67, 98
4, 171776, Note_on_c, 5, 65, 88
4, 171777, Note_off_c, 5, 67, 0
4, 171840, Note_on_c, 5, 67, 100
4, 171841, Note_off_c, 5, 65, 0
4, 171961, Note_off_c, 5, 67, 0
4, 171968, Note_on_c, 5, 70, 112
4, 172032, Note_on_c, 5, 74, 125
4, 172033, Note_off_c, 5, 70, 0
4, 172096, Note_on_c, 5, 65, 77
4, 172097, Note_off_c, 5, 74, 0
4, 172217, Note_off_c, 5, 65, 0
4, 172224, Note_on_c, 5, 67, 104
4, 172288, Note_on_c, 5, 65, 100
4, 172289, Note_off_c, 5, 67, 0
4, 172352, Note_on_c, 5, 67, 101
4, 172353, Note_off_c, 5, 65, 0
4, 172473, Note_off_c, 5, 67, 0
4, 172480, Note_on_c, 5, 70, 102
4, 172544, Note_on_c, 5, 74, 114
4, 172545, Note_off_c, 5, 70, 0
4, 172608, Note_on_c, 5, 65, 80
4, 172609, Note_off_c, 5, 74, 0
4, 172729, Note_off_c, 5, 65, 0
4, 172736, Note_on_c, 5, 67, 99
4, 172800, Note_on_c, 5, 65, 95
4, 172801, Note_off_c, 5, 67, 0
4, 172864, Note_on_c, 5, 67, 104
4, 172865, Note_off_c, 5, 65, 0
4, 172985, Note_off_c, 5, 67, 0
4, 172992, Note_on_c, 5, 70, 106
4, 173056, Note_on_c, 5, 74, 117
4, 173057, Note_off_c, 5, 70, 0
4, 173120, Note_on_c, 5, 65, 78
4, 173121, Note_off_c, 5, 74, 0
4, 173241, Note_off_c, 5, 65, 0
4, 173248, Note_on_c, 5, 67, 101
4, 173312, Note_on_c, 5, 74, 116
4, 173313, Note_off_c, 5, 67, 0
4, 173376, Note_on_c, 5, 67, 79
4, 173377, Note_off_c, 5, 74, 0
4, 173497, Note_off_c, 5, 67, 0
4, 173504, Note_on_c, 5, 70, 110
4, 173568, Note_on_c, 5, 74, 121
4, 173569, Note_off_c, 5, 70, 0
4, 173632, Note_on_c, 5, 65, 77
4, 173633, Note_off_c, 5, 74, 0
4, 173753, Note_off_c, 5, 65, 0
4, 173760, Note_on_c, 5, 67, 103
4, 173824, Note_on_c, 5, 74, 123
4, 173825, Note_off_c, 5, 67, 0
4, 173888, Note_on_c, 5, 67, 85
4, 173889, Note_off_c, 5, 74, 0
4, 174009, Note_off_c, 5, 67, 0
4, 174016, Note_on_c, 5, 70, 105
4, 174080, Note_on_c, 5, 74, 117
4, 174081, Note_off_c, 5, 70, 0
4, 174144, Note_on_c, 5, 65, 72
4, 174145, Note_off_c, 5, 74, 0
4, 174265, Note_off_c, 5, 65, 0
4, 174272, Note_on_c, 5, 67, 101
4, 174336, Note_on_c, 5, 74, 121
4, 174337, Note_off_c, 5, 67, 0
4, 174400, Note_on_c, 5, 67, 82
4, 174401, Note_off_c, 5, 74, 0
4, 174521, Note_off_c, 5, 67, 0
4, 174528, Note_on_c, 5, 70, 105
4, 174592, Note_on_c, 5, 74, 120
4, 174593, Note_off_c, 5, 70, 0
4, 174656, Note_on_c, 5, 65, 79
4, 174657, Note_off_c, 5, 74, 0
4, 174777, Note_off_c, 5, 65, 0
4, 174784, Note_on_c, 5, 67, 99
4, 174848, Note_on_c, 5, 74, 112
4, 174849, Note_off_c, 5, 67, 0
4, 174912, Note_on_c, 5, 67, 86
4, 174913, Note_off_c, 5, 74, 0
4, 175033, Note_off_c, 5, 67, 0
4, 175040, Note_on_c, 5, 70, 107
4, 175104, Note_on_c, 5, 74, 116
4, 175105, Note_off_c, 5, 70, 0
4, 175168, Note_on_c, 5, 65, 80
4, 175169, Note_off_c, 5, 74, 0
4, 175289, Note_off_c, 5, 65, 0
4, 175296, Note_on_c, 5, 67, 102
4, 175360, Note_on_c, 5, 74, 122
4, 175361, Note_off_c, 5, 67, 0
4, 175424, Note_on_c, 5, 67, 82
4, 175425, Note_off_c, 5, 74, 0
4, 175545, Note_off_c, 5, 67, 0
4, 175552, Note_on_c, 5, 70, 105
4, 175616, Note_on_c, 5, 74, 120
4, 175617, Note_off_c, 5, 70, 0
4, 175680, Note_on_c, 5, 65, 79
4, 175681, Note_off_c, 5, 74, 0
4, 175801, Note_off_c, 5, 65, 0
4, 175808, Note_on_c, 5, 67, 97
4, 175872, Note_on_c, 5, 74, 118
4, 175873, Note_off_c, 5, 67, 0
4, 175936, Note_on_c, 5, 67, 85
4, 175937, Note_off_c, 5, 74, 0
4, 176057, Note_off_c, 5, 67, 0
4, 176064, Note_on_c, 5, 70, 102
4, 176128, Note_off_c, 5, 70, 0
4, 184320, Note_on_c, 5, 74, 108
4, 184320, Note_on_c, 5, 83, 108
4, 184371, Note_off_c, 5, 74, 0
4, 184371, Note_off_c, 5, 83, 0
4, 184661, Note_on_c, 5, 74, 77
4, 184661, Note_on_c, 5, 83, 77
4, 184712, Note_off_c, 5, 74, 0
4, 184712, Note_off_c, 5, 83, 0
4, 185002, Note_on_c, 5, 74, 75
4, 185002, Note_on_c, 5, 83, 75
4, 185053, Note_off_c, 5, 74, 0
4, 185053, Note_off_c, 5, 83, 0
4, 185344, Note_on_c, 5, 74, 73
4, 185344, Note_on_c, 5, 83, 73
4, 185395, Note_off_c, 5, 74, 0
4, 185395, Note_off_c, 5, 83, 0
4, 185685, Note_on_c, 5, 74, 73
4, 185685, Note_on_c, 5, 83, 73
4, 185736, Note_off_c, 5, 74, 0
4, 185736, Note_off_c, 5, 83, 0
4, 186026, Note_on_c, 5, 74, 74
4, 186026, Note_on_c, 5, 83, 74
4, 186077, Note_off_c, 5, 74, 0
4, 186077, Note_off_c, 5, 83, 0
4, 186368, Note_on_c, 5, 74, 79
4, 186368, Note_on_c, 5, 83, 79
4, 186419, Note_off_c, 5, 74, 0
4, 186419, Note_off_c, 5, 83, 0
4, 186709, Note_on_c, 5, 74, 77
4, 186709, Note_on_c, 5, 83, 77
4, 186760, Note_off_c, 5, 74, 0
4, 186760, Note_off_c, 5, 83, 0
4, 187050, Note_on_c, 5, 74, 74
4, 187050, Note_on_c, 5, 83, 74
4, 187101, Note_off_c, 5, 74, 0
4, 187101, Note_off_c, 5, 83, 0
4, 187392, Note_on_c, 5, 74, 75
4, 187392, Note_on_c, 5, 83, 75
4, 187443, Note_off_c, 5, 74, 0
4, 187443, Note_off_c, 5, 83, 0
4, 187733, Note_on_c, 5, 74, 75
4, 187733, Note_on_c, 5, 83, 75
4, 187784, Note_off_c, 5, 74, 0
4, 187784, Note_off_c, 5, 83, 0
4, 188074, Note_on_c, 5, 74, 77
4, 188074, Note_on_c, 5, 83, 77
4, 188125, Note_off_c, 5, 74, 0
4, 188125, Note_off_c, 5, 83, 0
4, 188416, Note_on_c, 5, 74, 74
4, 188416, Note_on_c, 5, 83, 74
4, 188467, Note_off_c, 5, 74, 0
4, 188467, Note_off_c, 5, 83, 0
4, 188757, Note_on_c, 5, 74, 78
4, 188757, Note_on_c, 5, 83, 78
4, 188808, Note_off_c, 5, 74, 0
4, 188808, Note_off_c, 5, 83, 0
4, 189098, Note_on_c, 5, 74, 74
4, 189098, Note_on_c, 5, 83, 74
4, 189149, Note_off_c, 5, 74, 0
4, 189149, Note_off_c, 5, 83, 0
4, 189440, Note_on_c, 5, 77, 64
4, 189525, Note_on_c, 5, 71, 50
4, 189526, Note_off_c, 5, 77, 0
4, 189610, Note_on_c, 5, 77, 81
4, 189611, Note_off_c, 5, 71, 0
4, 189696, Note_on_c, 5, 71, 70
4, 189697, Note_off_c, 5, 77, 0
4, 189776, Note_off_c, 5, 71, 0
4, 189781, Note_on_c, 5, 79, 83
4, 189866, Note_on_c, 5, 72, 71
4, 189867, Note_off_c, 5, 79, 0
4, 189952, Note_on_c, 5, 77, 82
4, 189952, Note_on_c, 5, 79, 82
4, 189953, Note_off_c, 5, 72, 0
4, 190037, Note_on_c, 5, 70, 70
4, 190037, Note_on_c, 5, 72, 70
4, 190038, Note_off_c, 5, 77, 0
4, 190038, Note_off_c, 5, 79, 0
4, 190122, Note_on_c, 5, 77, 78
4, 190123, Note_off_c, 5, 70, 0
4, 190123, Note_off_c, 5, 72, 0
4, 190208, Note_on_c, 5, 70, 63
4, 190209, Note_off_c, 5, 77, 0
4, 190288, Note_off_c, 5, 70, 0
4, 190293, Note_on_c, 5, 79, 84
4, 190378, Note_on_c, 5, 72, 84
4, 190378, Note_on_c, 5, 77, 84
4, 190379, Note_off_c, 5, 79, 0
4, 190464, Note_on_c, 5, 70, 68
4, 190464, Note_on_c, 5, 75, 68
4, 190465, Note_off_c, 5, 72, 0
4, 190465, Note_off_c, 5, 77, 0
4, 190549, Note_on_c, 5, 77, 72
4, 190550, Note_off_c, 5, 70, 0
4, 190550, Note_off_c, 5, 75, 0
4, 190629, Note_off_c, 5, 77, 0
4, 190634, Note_on_c, 5, 72, 63
4, 190720, Note_on_c, 5, 79, 72
4, 190721, Note_off_c, 5, 72, 0
4, 190805, Note_on_c, 5, 70, 60
4, 190805, Note_on_c, 5, 72, 60
4, 190806, Note_off_c, 5, 79, 0
4, 190890, Note_on_c, 5, 77, 68
4, 190890, Note_on_c, 5, 79, 68
4, 190891, Note_off_c, 5, 70, 0
4, 190891, Note_off_c, 5, 72, 0
4, 190976, Note_on_c, 5, 70, 60
4, 190977, Note_off_c, 5, 77, 0
4, 190977, Note_off_c, 5, 79, 0
4, 191061, Note_on_c, 5, 77, 68
4, 191062, Note_off_c, 5, 70, 0
4, 191146, Note_on_c, 5, 70, 62
4, 191146, Note_on_c, 5, 72, 62
4, 191147, Note_off_c, 5, 77, 0
4, 191232, Note_on_c, 5, 79, 69
4, 191233, Note_off_c, 5, 70, 0
4, 191233, Note_off_c, 5, 72, 0
4, 191317, Note_on_c, 5, 72, 58
4, 191318, Note_off_c, 5, 79, 0
4, 191402, Note_on_c, 5, 77, 67
4, 191402, Note_on_c, 5, 79, 67
4, 191403, Note_off_c, 5, 72, 0
4, 191488, Note_on_c, 5, 70, 68
4, 191488, Note_on_c, 5, 72, 68
4, 191489, Note_off_c, 5, 77, 0
4, 191489, Note_off_c, 5, 79, 0
4, 191568, Note_off_c, 5, 70, 0
4, 191568, Note_off_c, 5, 72, 0
4, 191744, Note_on_c, 5, 77, 66
4, 191744, Note_on_c, 5, 79, 66
4, 191829, Note_on_c, 5, 70, 52
4, 191829, Note_on_c, 5, 72, 52
4, 191830, Note_off_c, 5, 77, 0
4, 191830, Note_off_c, 5, 79, 0
4, 191914, Note_on_c, 5, 77, 78
4, 191915, Note_off_c, 5, 70, 0
4, 191915, Note_off_c, 5, 72, 0
4, 192000, Note_on_c, 5, 70, 67
4, 192001, Note_off_c, 5, 77, 0
4, 192085, Note_on_c, 5, 77, 87
4, 192085, Note_on_c, 5, 79, 87
4, 192086, Note_off_c, 5, 70, 0
4, 192170, Note_on_c, 5, 70, 75
4, 192170, Note_on_c, 5, 72, 75
4, 192171, Note_off_c, 5, 77, 0
4, 192171, Note_off_c, 5, 79, 0
4, 192256, Note_on_c, 5, 79, 83
4, 192257, Note_off_c, 5, 70, 0
4, 192257, Note_off_c, 5, 72, 0
4, 192341, Note_on_c, 5, 72, 71
4, 192342, Note_off_c, 5, 79, 0
4, 192426, Note_on_c, 5, 77, 85
4, 192426, Note_on_c, 5, 79, 85
4, 192427, Note_off_c, 5, 72, 0
4, 192512, Note_on_c, 5, 70, 71
4, 192512, Note_on_c, 5, 72, 71
4, 192513, Note_off_c, 5, 77, 0
4, 192513, Note_off_c, 5, 79, 0
4, 192597, Note_on_c, 5, 77, 80
4, 192598, Note_off_c, 5, 70, 0
4, 192598, Note_off_c, 5, 72, 0
4, 192682, Note_on_c, 5, 70, 65
4, 192683, Note_off_c, 5, 77, 0
4, 192768, Note_on_c, 5, 79, 87
4, 192769, Note_off_c, 5, 70, 0
4, 192853, Note_on_c, 5, 72, 78
4, 192854, Note_off_c, 5, 79, 0
4, 192938, Note_on_c, 5, 81, 85
4, 192939, Note_off_c, 5, 72, 0
4, 193024, Note_on_c, 5, 72, 74
4, 193024, Note_on_c, 5, 77, 74
4, 193025, Note_off_c, 5, 81, 0
4, 193109, Note_on_c, 5, 70, 55
4, 193110, Note_off_c, 5, 72, 0
4, 193110, Note_off_c, 5, 77, 0
4, 193194, Note_on_c, 5, 77, 62
4, 193195, Note_off_c, 5, 70, 0
4, 193280, Note_on_c, 5, 70, 62
4, 193281, Note_off_c, 5, 77, 0
4, 193365, Note_on_c, 5, 79, 71
4, 193366, Note_off_c, 5, 70, 0
4, 193450, Note_on_c, 5, 72, 65
4, 193451, Note_off_c, 5, 79, 0
4, 193536, Note_on_c, 5, 77, 78
4, 193536, Note_on_c, 5, 79, 78
4, 193537, Note_off_c, 5, 72, 0
4, 193621, Note_on_c, 5, 69, 53
4, 193621, Note_on_c, 5, 70, 53
4, 193622, Note_off_c, 5, 77, 0
4, 193622, Note_off_c, 5, 79, 0
4, 193706, Note_on_c, 5, 77, 64
4, 193707, Note_off_c, 5, 69, 0
4, 193707, Note_off_c, 5, 70, 0
4, 193792, Note_on_c, 5, 70, 56
4, 193793, Note_off_c, 5, 77, 0
4, 193877, Note_on_c, 5, 77, 68
4, 193877, Note_on_c, 5, 79, 68
4, 193878, Note_off_c, 5, 70, 0
4, 193962, Note_on_c, 5, 72, 57
4, 193963, Note_off_c, 5, 77, 0
4, 193963, Note_off_c, 5, 79, 0
4, 194048, Note_on_c, 5, 70, 71
4, 194048, Note_on_c, 5, 79, 71
4, 194049, Note_off_c, 5, 72, 0
4, 194133, Note_on_c, 5, 77, 72
4, 194134, Note_off_c, 5, 70, 0
4, 194134, Note_off_c, 5, 79, 0
4, 194218, Note_on_c, 5, 70, 65
4, 194218, Note_on_c, 5, 72, 65
4, 194219, Note_off_c, 5, 77, 0
4, 194304, Note_on_c, 5, 79, 86
4, 194305, Note_off_c, 5, 70, 0
4, 194305, Note_off_c, 5, 72, 0
4, 194389, Note_on_c, 5, 72, 70
4, 194390, Note_off_c, 5, 79, 0
4, 194474, Note_on_c, 5, 79, 80
4, 194475, Note_off_c, 5, 72, 0
4, 194560, Note_on_c, 5, 72, 77
4, 194560, Note_on_c, 5, 77, 77
4, 194561, Note_off_c, 5, 79, 0
4, 194645, Note_on_c, 5, 70, 57
4, 194646, Note_off_c, 5, 72, 0
4, 194646, Note_off_c, 5, 77, 0
4, 194730, Note_on_c, 5, 77, 67
4, 194731, Note_off_c, 5, 70, 0
4, 194816, Note_off_c, 5, 77, 0
4, 194816, Note_on_c, 5, 67, 74
4, 194816, Note_on_c, 5, 77, 74
4, 194901, Note_off_c, 5, 67, 0
4, 194901, Note_off_c, 5, 77, 0
4, 194901, Note_on_c, 5, 67, 71
4, 194901, Note_on_c, 5, 77, 71
4, 194986, Note_off_c, 5, 67, 0
4, 194986, Note_off_c, 5, 77, 0
4, 194986, Note_on_c, 5, 67, 72
4, 194986, Note_on_c, 5, 77, 72
4, 195072, Note_off_c, 5, 67, 0
4, 195072, Note_off_c, 5, 77, 0
4, 195072, Note_on_c, 5, 67, 67
4, 195072, Note_on_c, 5, 77, 67
4, 195157, Note_off_c, 5, 67, 0
4, 195157, Note_off_c, 5, 77, 0
4, 195157, Note_on_c, 5, 67, 70
4, 195157, Note_on_c, 5, 77, 70
4, 195242, Note_off_c, 5, 67, 0
4, 195242, Note_off_c, 5, 77, 0
4, 195242, Note_on_c, 5, 67, 72
4, 195242, Note_on_c, 5, 77, 72
4, 195328, Note_off_c, 5, 67, 0
4, 195328, Note_off_c, 5, 77, 0
4, 195328, Note_on_c, 5, 67, 71
4, 195328, Note_on_c, 5, 77, 71
4, 195413, Note_off_c, 5, 67, 0
4, 195413, Note_off_c, 5, 77, 0
4, 195413, Note_on_c, 5, 67, 73
4, 195413, Note_on_c, 5, 77, 73
4, 195498, Note_off_c, 5, 67, 0
4, 195498, Note_off_c, 5, 77, 0
4, 195498, Note_on_c, 5, 67, 70
4, 195498, Note_on_c, 5, 77, 70
4, 195584, Note_off_c, 5, 67, 0
4, 195584, Note_off_c, 5, 77, 0
4, 195584, Note_on_c, 5, 67, 70
4, 195584, Note_on_c, 5, 77, 70
4, 195669, Note_off_c, 5, 77, 0
4, 195669, Note_on_c, 5, 70, 68
4, 195669, Note_on_c, 5, 77, 68
4, 195670, Note_off_c, 5, 67, 0
4, 195754, Note_on_c, 5, 67, 54
4, 195755, Note_off_c, 5, 70, 0
4, 195755, Note_off_c, 5, 77, 0
4, 195840, Note_on_c, 5, 77, 63
4, 195841, Note_off_c, 5, 67, 0
4, 195925, Note_off_c, 5, 77, 0
4, 195925, Note_on_c, 5, 67, 71
4, 195925, Note_on_c, 5, 77, 71
4, 196010, Note_off_c, 5, 77, 0
4, 196010, Note_on_c, 5, 70, 74
4, 196010, Note_on_c, 5, 77, 74
4, 196011, Note_off_c, 5, 67, 0
4, 196096, Note_off_c, 5, 77, 0
4, 196096, Note_on_c, 5, 77, 68
4, 196097, Note_off_c, 5, 70, 0
4, 196181, Note_on_c, 5, 70, 56
4, 196182, Note_off_c, 5, 77, 0
4, 196266, Note_on_c, 5, 67, 84
4, 196266, Note_on_c, 5, 77, 84
4, 196267, Note_off_c, 5, 70, 0
4, 196352, Note_off_c, 5, 77, 0
4, 196352, Note_on_c, 5, 70, 86
4, 196352, Note_on_c, 5, 77, 86
4, 196353, Note_off_c, 5, 67, 0
4, 196437, Note_off_c, 5, 77, 0
4, 196437, Note_on_c, 5, 67, 72
4, 196437, Note_on_c, 5, 77, 72
4, 196438, Note_off_c, 5, 70, 0
4, 196522, Note_off_c, 5, 77, 0
4, 196522, Note_on_c, 5, 70, 73
4, 196522, Note_on_c, 5, 77, 73
4, 196523, Note_off_c, 5, 67, 0
4, 196608, Note_on_c, 5, 67, 74
4, 196608, Note_on_c, 5, 79, 74
4, 196609, Note_off_c, 5, 70, 0
4, 196609, Note_off_c, 5, 77, 0
4, 196693, Note_on_c, 5, 72, 70
4, 196693, Note_on_c, 5, 77, 70
4, 196694, Note_off_c, 5, 67, 0
4, 196694, Note_off_c, 5, 79, 0
4, 196778, Note_on_c, 5, 79, 72
4, 196779, Note_off_c, 5, 72, 0
4, 196779, Note_off_c, 5, 77, 0
4, 196864, Note_on_c, 5, 69, 64
4, 196864, Note_on_c, 5, 76, 64
4, 196865, Note_off_c, 5, 79, 0
4, 196949, Note_on_c, 5, 67, 76
4, 196949, Note_on_c, 5, 79, 76
4, 196950, Note_off_c, 5, 69, 0
4, 196950, Note_off_c, 5, 76, 0
4, 197034, Note_on_c, 5, 69, 71
4, 197034, Note_on_c, 5, 76, 71
4, 197035, Note_off_c, 5, 67, 0
4, 197035, Note_off_c, 5, 79, 0
4, 197120, Note_off_c, 5, 69, 0
4, 197120, Note_on_c, 5, 69, 76
4, 197120, Note_on_c, 5, 79, 76
4, 197121, Note_off_c, 5, 76, 0
4, 197205, Note_on_c, 5, 72, 71
4, 197205, Note_on_c, 5, 77, 71
4, 197206, Note_off_c, 5, 69, 0
4, 197206, Note_off_c, 5, 79, 0
4, 197290, Note_on_c, 5, 69, 70
4, 197290, Note_on_c, 5, 79, 70
4, 197291, Note_off_c, 5, 72, 0
4, 197291, Note_off_c, 5, 77, 0
4, 197376, Note_on_c, 5, 72, 61
4, 197376, Note_on_c, 5, 77, 61
4, 197377, Note_off_c, 5, 69, 0
4, 197377, Note_off_c, 5, 79, 0
4, 197461, Note_on_c, 5, 69, 69
4, 197461, Note_on_c, 5, 79, 69
4, 197462, Note_off_c, 5, 72, 0
4, 197462, Note_off_c, 5, 77, 0
4, 197546, Note_on_c, 5, 72, 59
4, 197546, Note_on_c, 5, 77, 59
4, 197547, Note_off_c, 5, 69, 0
4, 197547, Note_off_c, 5, 79, 0
4, 197632, Note_off_c, 5, 77, 0
4, 197632, Note_on_c, 5, 69, 67
4, 197632, Note_on_c, 5, 77, 67
4, 197633, Note_off_c, 5, 72, 0
4, 197717, Note_off_c, 5, 77, 0
4, 197717, Note_on_c, 5, 77, 66
4, 197718, Note_off_c, 5, 69, 0
4, 197802, Note_on_c, 5, 69, 56
4, 197803, Note_off_c, 5, 77, 0
4, 197888, Note_on_c, 5, 72, 67
4, 197888, Note_on_c, 5, 77, 67
4, 197889, Note_off_c, 5, 69, 0
4, 197973, Note_on_c, 5, 69, 76
4, 197973, Note_on_c, 5, 79, 76
4, 197974, Note_off_c, 5, 72, 0
4, 197974, Note_off_c, 5, 77, 0
4, 198058, Note_on_c, 5, 72, 72
4, 198058, Note_on_c, 5, 77, 72
4, 198059, Note_off_c, 5, 69, 0
4, 198059, Note_off_c, 5, 79, 0
4, 198144, Note_on_c, 5, 79, 75
4, 198145, Note_off_c, 5, 72, 0
4, 198145, Note_off_c, 5, 77, 0
4, 198229, Note_on_c, 5, 72, 58
4, 198230, Note_off_c, 5, 79, 0
4, 198314, Note_on_c, 5, 69, 66
4, 198315, Note_off_c, 5, 72, 0
4, 198400, Note_off_c, 5, 69, 0
4, 198400, Note_on_c, 5, 69, 82
4, 198400, Note_on_c, 5, 77, 82
4, 198485, Note_on_c, 5, 79, 90
4, 198486, Note_off_c, 5, 69, 0
4, 198486, Note_off_c, 5, 77, 0
4, 198570, Note_on_c, 5, 72, 70
4, 198570, Note_on_c, 5, 77, 70
4, 198571, Note_off_c, 5, 79, 0
4, 198656, Note_on_c, 5, 69, 65
4, 198656, Note_on_c, 5, 76, 65
4, 198657, Note_off_c, 5, 72, 0
4, 198657, Note_off_c, 5, 77, 0
4, 198741, Note_on_c, 5, 72, 76
4, 198741, Note_on_c, 5, 77, 76
4, 198742, Note_off_c, 5, 69, 0
4, 198742, Note_off_c, 5, 76, 0
4, 198826, Note_on_c, 5, 69, 73
4, 198826, Note_on_c, 5, 76, 73
4, 198827, Note_off_c, 5, 72, 0
4, 198827, Note_off_c, 5, 77, 0
4, 198912, Note_on_c, 5, 72, 73
4, 198912, Note_on_c, 5, 77, 73
4, 198913, Note_off_c, 5, 69, 0
4, 198913, Note_off_c, 5, 76, 0
4, 198997, Note_on_c, 5, 69, 67
4, 198997, Note_on_c, 5, 76, 67
4, 198998, Note_off_c, 5, 72, 0
4, 198998, Note_off_c, 5, 77, 0
4, 199082, Note_on_c, 5, 72, 78
4, 199082, Note_on_c, 5, 77, 78
4, 199083, Note_off_c, 5, 69, 0
4, 199083, Note_off_c, 5, 76, 0
4, 199168, Note_on_c, 5, 69, 77
4, 199168, Note_on_c, 5, 76, 77
4, 199169, Note_off_c, 5, 72, 0
4, 199169, Note_off_c, 5, 77, 0
4, 199253, Note_on_c, 5, 72, 62
4, 199254, Note_off_c, 5, 69, 0
4, 199254, Note_off_c, 5, 76, 0
4, 199338, Note_on_c, 5, 69, 68
4, 199338, Note_on_c, 5, 76, 68
4, 199339, Note_off_c, 5, 72, 0
4, 199424, Note_on_c, 5, 72, 76
4, 199424, Note_on_c, 5, 77, 76
4, 199425, Note_off_c, 5, 69, 0
4, 199425, Note_off_c, 5, 76, 0
4, 199509, Note_on_c, 5, 69, 70
4, 199509, Note_on_c, 5, 76, 70
4, 199510, Note_off_c, 5, 72, 0
4, 199510, Note_off_c, 5, 77, 0
4, 199594, Note_on_c, 5, 72, 74
4, 199594, Note_on_c, 5, 77, 74
4, 199595, Note_off_c, 5, 69, 0
4, 199595, Note_off_c, 5, 76, 0
4, 199680, Note_on_c, 5, 69, 58
4, 199681, Note_off_c, 5, 72, 0
4, 199681, Note_off_c, 5, 77, 0
4, 199765, Note_on_c, 5, 77, 82
4, 199766, Note_off_c, 5, 69, 0
4, 199850, Note_on_c, 5, 69, 83
4, 199850, Note_on_c, 5, 76, 83
4, 199851, Note_off_c, 5, 77, 0
4, 199936, Note_on_c, 5, 72, 77
4, 199936, Note_on_c, 5, 77, 77
4, 199937, Note_off_c, 5, 69, 0
4, 199937, Note_off_c, 5, 76, 0
4, 200021, Note_on_c, 5, 69, 75
4, 200021, Note_on_c, 5, 76, 75
4, 200022, Note_off_c, 5, 72, 0
4, 200022, Note_off_c, 5, 77, 0
4, 200106, Note_on_c, 5, 72, 76
4, 200106, Note_on_c, 5, 77, 76
4, 200107, Note_off_c, 5, 69, 0
4, 200107, Note_off_c, 5, 76, 0
4, 200192, Note_on_c, 5, 69, 73
4, 200192, Note_on_c, 5, 76, 73
4, 200193, Note_off_c, 5, 72, 0
4, 200193, Note_off_c, 5, 77, 0
4, 200277, Note_on_c, 5, 72, 75
4, 200277, Note_on_c, 5, 77, 75
4, 200278, Note_off_c, 5, 69, 0
4, 200278, Note_off_c, 5, 76, 0
4, 200362, Note_off_c, 5, 77, 0
4, 200362, Note_on_c, 5, 69, 73
4, 200362, Note_on_c, 5, 77, 73
4, 200363, Note_off_c, 5, 72, 0
4, 200448, Note_on_c, 5, 70, 58
4, 200449, Note_off_c, 5, 69, 0
4, 200449, Note_off_c, 5, 77, 0
4, 200533, Note_on_c, 5, 77, 66
4, 200534, Note_off_c, 5, 70, 0
4, 200618, Note_off_c, 5, 77, 0
4, 200618, Note_on_c, 5, 70, 75
4, 200618, Note_on_c, 5, 77, 75
4, 200704, Note_off_c, 5, 77, 0
4, 200704, Note_on_c, 5, 69, 77
4, 200704, Note_on_c, 5, 77, 77
4, 200705, Note_off_c, 5, 70, 0
4, 200789, Note_on_c, 5, 70, 75
4, 200789, Note_on_c, 5, 79, 75
4, 200790, Note_off_c, 5, 69, 0
4, 200790, Note_off_c, 5, 77, 0
4, 200874, Note_on_c, 5, 72, 74
4, 200874, Note_on_c, 5, 77, 74
4, 200875, Note_off_c, 5, 70, 0
4, 200875, Note_off_c, 5, 79, 0
4, 200960, Note_on_c, 5, 70, 70
4, 200960, Note_on_c, 5, 79, 70
4, 200961, Note_off_c, 5, 72, 0
4, 200961, Note_off_c, 5, 77, 0
4, 201045, Note_on_c, 5, 72, 68
4, 201045, Note_on_c, 5, 77, 68
4, 201046, Note_off_c, 5, 70, 0
4, 201046, Note_off_c, 5, 79, 0
4, 201130, Note_on_c, 5, 70, 80
4, 201130, Note_on_c, 5, 79, 80
4, 201131, Note_off_c, 5, 72, 0
4, 201131, Note_off_c, 5, 77, 0
4, 201216, Note_on_c, 5, 72, 75
4, 201216, Note_on_c, 5, 77, 75
4, 201217, Note_off_c, 5, 70, 0
4, 201217, Note_off_c, 5, 79, 0
4, 201301, Note_on_c, 5, 70, 75
4, 201301, Note_on_c, 5, 79, 75
4, 201302, Note_off_c, 5, 72, 0
4, 201302, Note_off_c, 5, 77, 0
4, 201386, Note_on_c, 5, 72, 68
4, 201386, Note_on_c, 5, 77, 68
4, 201387, Note_off_c, 5, 70, 0
4, 201387, Note_off_c, 5, 79, 0
4, 201472, Note_on_c, 5, 79, 72
4, 201473, Note_off_c, 5, 72, 0
4, 201473, Note_off_c, 5, 77, 0
4, 201557, Note_on_c, 5, 72, 63
4, 201558, Note_off_c, 5, 79, 0
4, 201642, Note_on_c, 5, 79, 76
4, 201643, Note_off_c, 5, 72, 0
4, 201723, Note_off_c, 5, 79, 0
4, 201728, Note_on_c, 5, 81, 79
4, 201813, Note_on_c, 5, 76, 73
4, 201813, Note_on_c, 5, 77, 73
4, 201814, Note_off_c, 5, 81, 0
4, 201898, Note_on_c, 5, 70, 81
4, 201898, Note_on_c, 5, 81, 81
4, 201899, Note_off_c, 5, 76, 0
4, 201899, Note_off_c, 5, 77, 0
4, 201984, Note_off_c, 5, 81, 0
4, 201984, Note_on_c, 5, 76, 83
4, 201984, Note_on_c, 5, 81, 83
4, 201985, Note_off_c, 5, 70, 0
4, 202069, Note_off_c, 5, 81, 0
4, 202069, Note_on_c, 5, 72, 71
4, 202069, Note_on_c, 5, 81, 71
4, 202070, Note_off_c, 5, 76, 0
4, 202154, Note_off_c, 5, 81, 0
4, 202154, Note_on_c, 5, 76, 76
4, 202154, Note_on_c, 5, 81, 76
4, 202155, Note_off_c, 5, 72, 0
4, 202240, Note_off_c, 5, 81, 0
4, 202240, Note_on_c, 5, 72, 68
4, 202240, Note_on_c, 5, 81, 68
4, 202241, Note_off_c, 5, 76, 0
4, 202325, Note_off_c, 5, 81, 0
4, 202325, Note_on_c, 5, 76, 64
4, 202325, Note_on_c, 5, 81, 64
4, 202326, Note_off_c, 5, 72, 0
4, 202410, Note_off_c, 5, 81, 0
4, 202410, Note_on_c, 5, 72, 70
4, 202410, Note_on_c, 5, 81, 70
4, 202411, Note_off_c, 5, 76, 0
4, 202496, Note_off_c, 5, 81, 0
4, 202496, Note_on_c, 5, 76, 73
4, 202496, Note_on_c, 5, 81, 73
4, 202497, Note_off_c, 5, 72, 0
4, 202581, Note_off_c, 5, 81, 0
4, 202581, Note_on_c, 5, 72, 71
4, 202581, Note_on_c, 5, 81, 71
4, 202582, Note_off_c, 5, 76, 0
4, 202666, Note_on_c, 5, 84, 72
4, 202667, Note_off_c, 5, 72, 0
4, 202667, Note_off_c, 5, 81, 0
4, 202752, Note_on_c, 5, 76, 65
4, 202753, Note_off_c, 5, 84, 0
4, 202837, Note_off_c, 5, 76, 0
4, 202837, Note_on_c, 5, 76, 79
4, 202837, Note_on_c, 5, 82, 79
4, 202922, Note_on_c, 5, 72, 74
4, 202922, Note_on_c, 5, 79, 74
4, 202923, Note_off_c, 5, 76, 0
4, 202923, Note_off_c, 5, 82, 0
4, 203008, Note_on_c, 5, 76, 79
4, 203008, Note_on_c, 5, 84, 79
4, 203009, Note_off_c, 5, 72, 0
4, 203009, Note_off_c, 5, 79, 0
4, 203093, Note_on_c, 5, 74, 74
4, 203093, Note_on_c, 5, 81, 74
4, 203094, Note_off_c, 5, 76, 0
4, 203094, Note_off_c, 5, 84, 0
4, 203178, Note_on_c, 5, 77, 60
4, 203179, Note_off_c, 5, 74, 0
4, 203179, Note_off_c, 5, 81, 0
4, 203264, Note_on_c, 5, 79, 63
4, 203265, Note_off_c, 5, 77, 0
4, 203349, Note_on_c, 5, 76, 66
4, 203350, Note_off_c, 5, 79, 0
4, 203434, Note_on_c, 5, 74, 71
4, 203434, Note_on_c, 5, 81, 71
4, 203435, Note_off_c, 5, 76, 0
4, 203520, Note_on_c, 5, 76, 75
4, 203520, Note_on_c, 5, 82, 75
4, 203521, Note_off_c, 5, 74, 0
4, 203521, Note_off_c, 5, 81, 0
4, 203605, Note_on_c, 5, 72, 61
4, 203606, Note_off_c, 5, 76, 0
4, 203606, Note_off_c, 5, 82, 0
4, 203690, Note_on_c, 5, 82, 86
4, 203691, Note_off_c, 5, 72, 0
4, 203776, Note_on_c, 5, 74, 81
4, 203776, Note_on_c, 5, 81, 81
4, 203777, Note_off_c, 5, 82, 0
4, 203861, Note_on_c, 5, 77, 65
4, 203861, Note_on_c, 5, 79, 65
4, 203862, Note_off_c, 5, 74, 0
4, 203862, Note_off_c, 5, 81, 0
4, 203946, Note_off_c, 5, 79, 0
4, 203946, Note_on_c, 5, 72, 65
4, 203946, Note_on_c, 5, 79, 65
4, 203947, Note_off_c, 5, 77, 0
4, 204032, Note_on_c, 5, 76, 77
4, 204032, Note_on_c, 5, 82, 77
4, 204033, Note_off_c, 5, 72, 0
4, 204033, Note_off_c, 5, 79, 0
4, 204117, Note_on_c, 5, 74, 77
4, 204117, Note_on_c, 5, 81, 77
4, 204118, Note_off_c, 5, 76, 0
4, 204118, Note_off_c, 5, 82, 0
4, 204202, Note_off_c, 5, 81, 0
4, 204202, Note_on_c, 5, 77, 72
4, 204202, Note_on_c, 5, 81, 72
4, 204203, Note_off_c, 5, 74, 0
4, 204288, Note_on_c, 5, 72, 66
4, 204288, Note_on_c, 5, 79, 66
4, 204289, Note_off_c, 5, 77, 0
4, 204289, Note_off_c, 5, 81, 0
4, 204373, Note_on_c, 5, 76, 77
4, 204373, Note_on_c, 5, 82, 77
4, 204374, Note_off_c, 5, 72, 0
4, 204374, Note_off_c, 5, 79, 0
4, 204458, Note_on_c, 5, 74, 69
4, 204458, Note_on_c, 5, 81, 69
4, 204459, Note_off_c, 5, 76, 0
4, 204459, Note_off_c, 5, 82, 0
4, 204544, Note_off_c, 5, 81, 0
4, 204544, Note_on_c, 5, 77, 78
4, 204544, Note_on_c, 5, 81, 78
4, 204545, Note_off_c, 5, 74, 0
4, 204629, Note_on_c, 5, 72, 78
4, 204629, Note_on_c, 5, 79, 78
4, 204630, Note_off_c, 5, 77, 0
4, 204630, Note_off_c, 5, 81, 0
4, 204714, Note_on_c, 5, 76, 80
4, 204714, Note_on_c, 5, 82, 80
4, 204715, Note_off_c, 5, 72, 0
4, 204715, Note_off_c, 5, 79, 0
4, 204800, Note_on_c, 5, 74, 73
4, 204800, Note_on_c, 5, 79, 73
4, 204801, Note_off_c, 5, 76, 0
4, 204801, Note_off_c, 5, 82, 0
4, 204885, Note_on_c, 5, 76, 75
4, 204885, Note_on_c, 5, 81, 75
4, 204886, Note_off_c, 5, 74, 0
4, 204886, Note_off_c, 5, 79, 0
4, 204970, Note_off_c, 5, 81, 0
4, 204970, Note_on_c, 5, 72, 77
4, 204970, Note_on_c, 5, 81, 77
4, 204971, Note_off_c, 5, 76, 0
4, 205051, Note_off_c, 5, 72, 0
4, 205051, Note_off_c, 5, 81, 0
4, 218624, Note_on_c, 5, 81, 62
4, 218624, Note_on_c, 5, 72, 65
4, 218709, Note_on_c, 5, 70, 46
4, 218709, Note_on_c, 5, 69, 59
4, 218710, Note_off_c, 5, 81, 0
4, 218710, Note_off_c, 5, 72, 0
4, 218794, Note_on_c, 5, 81, 82
4, 218794, Note_on_c, 5, 72, 78
4, 218795, Note_off_c, 5, 70, 0
4, 218795, Note_off_c, 5, 69, 0
4, 218880, Note_on_c, 5, 70, 65
4, 218880, Note_on_c, 5, 69, 72
4, 218881, Note_off_c, 5, 81, 0
4, 218881, Note_off_c, 5, 72, 0
4, 218965, Note_on_c, 5, 82, 87
4, 218965, Note_on_c, 5, 74, 77
4, 218966, Note_off_c, 5, 70, 0
4, 218966, Note_off_c, 5, 69, 0
4, 219050, Note_on_c, 5, 81, 89
4, 219050, Note_on_c, 5, 72, 73
4, 219051, Note_off_c, 5, 82, 0
4, 219051, Note_off_c, 5, 74, 0
4, 219136, Note_on_c, 5, 70, 54
4, 219136, Note_on_c, 5, 69, 69
4, 219137, Note_off_c, 5, 81, 0
4, 219137, Note_off_c, 5, 72, 0
4, 219221, Note_on_c, 5, 81, 64
4, 219221, Note_on_c, 5, 72, 72
4, 219222, Note_off_c, 5, 70, 0
4, 219222, Note_off_c, 5, 69, 0
4, 219306, Note_on_c, 5, 70, 55
4, 219306, Note_on_c, 5, 69, 66
4, 219307, Note_off_c, 5, 81, 0
4, 219307, Note_off_c, 5, 72, 0
4, 219392, Note_on_c, 5, 82, 66
4, 219392, Note_on_c, 5, 74, 71
4, 219393, Note_off_c, 5, 70, 0
4, 219393, Note_off_c, 5, 69, 0
4, 219477, Note_on_c, 5, 81, 70
4, 219477, Note_on_c, 5, 72, 61
4, 219478, Note_off_c, 5, 82, 0
4, 219478, Note_off_c, 5, 74, 0
4, 219562, Note_on_c, 5, 70, 53
4, 219562, Note_on_c, 5, 69, 58
4, 219563, Note_off_c, 5, 81, 0
4, 219563, Note_off_c, 5, 72, 0
4, 219648, Note_on_c, 5, 81, 81
4, 219648, Note_on_c, 5, 72, 73
4, 219649, Note_off_c, 5, 70, 0
4, 219649, Note_off_c, 5, 69, 0
4, 219733, Note_on_c, 5, 70, 59
4, 219733, Note_on_c, 5, 69, 68
4, 219734, Note_off_c, 5, 81, 0
4, 219734, Note_off_c, 5, 72, 0
4, 219818, Note_on_c, 5, 82, 84
4, 219818, Note_on_c, 5, 74, 81
4, 219819, Note_off_c, 5, 70, 0
4, 219819, Note_off_c, 5, 69, 0
4, 219904, Note_on_c, 5, 81, 83
4, 219904, Note_on_c, 5, 72, 79
4, 219905, Note_off_c, 5, 82, 0
4, 219905, Note_off_c, 5, 74, 0
4, 219989, Note_on_c, 5, 70, 52
4, 219989, Note_on_c, 5, 69, 67
4, 219990, Note_off_c, 5, 81, 0
4, 219990, Note_off_c, 5, 72, 0
4, 220074, Note_on_c, 5, 81, 65
4, 220074, Note_on_c, 5, 72, 69
4, 220075, Note_off_c, 5, 70, 0
4, 220075, Note_off_c, 5, 69, 0
4, 220155, Note_off_c, 5, 81, 0
4, 220155, Note_off_c, 5, 72, 0
4, 220245, Note_on_c, 5, 82, 59
4, 220245, Note_on_c, 5, 74, 65
4, 220330, Note_on_c, 5, 81, 56
4, 220330, Note_on_c, 5, 72, 55
4, 220331, Note_off_c, 5, 82, 0
4, 220331, Note_off_c, 5, 74, 0
4, 220416, Note_on_c, 5, 70, 54
4, 220416, Note_on_c, 5, 69, 62
4, 220417, Note_off_c, 5, 81, 0
4, 220417, Note_off_c, 5, 72, 0
4, 220501, Note_on_c, 5, 81, 64
4, 220501, Note_on_c, 5, 72, 68
4, 220502, Note_off_c, 5, 70, 0
4, 220502, Note_off_c, 5, 69, 0
4, 220586, Note_on_c, 5, 70, 56
4, 220586, Note_on_c, 5, 69, 64
4, 220587, Note_off_c, 5, 81, 0
4, 220587, Note_off_c, 5, 72, 0
4, 220672, Note_on_c, 5, 82, 71
4, 220672, Note_on_c, 5, 74, 76
4, 220673, Note_off_c, 5, 70, 0
4, 220673, Note_off_c, 5, 69, 0
4, 220757, Note_on_c, 5, 81, 70
4, 220757, Note_on_c, 5, 72, 68
4, 220758, Note_off_c, 5, 82, 0
4, 220758, Note_off_c, 5, 74, 0
4, 220842, Note_on_c, 5, 70, 53
4, 220842, Note_on_c, 5, 69, 61
4, 220843, Note_off_c, 5, 81, 0
4, 220843, Note_off_c, 5, 72, 0
4, 220928, Note_on_c, 5, 81, 91
4, 220928, Note_on_c, 5, 72, 77
4, 220929, Note_off_c, 5, 70, 0
4, 220929, Note_off_c, 5, 69, 0
4, 221013, Note_on_c, 5, 70, 65
4, 221013, Note_on_c, 5, 69, 72
4, 221014, Note_off_c, 5, 81, 0
4, 221014, Note_off_c, 5, 72, 0
4, 221098, Note_on_c, 5, 82, 87
4, 221098, Note_on_c, 5, 74, 77
4, 221099, Note_off_c, 5, 70, 0
4, 221099, Note_off_c, 5, 69, 0
4, 221184, Note_on_c, 5, 81, 84
4, 221184, Note_on_c, 5, 72, 73
4, 221185, Note_off_c, 5, 82, 0
4, 221185, Note_off_c, 5, 74, 0
4, 221269, Note_on_c, 5, 70, 53
4, 221269, Note_on_c, 5, 69, 64
4, 221270, Note_off_c, 5, 81, 0
4, 221270, Note_off_c, 5, 72, 0
4, 221349, Note_off_c, 5, 70, 0
4, 221349, Note_off_c, 5, 69, 0
4, 221440, Note_on_c, 5, 70, 61
4, 221440, Note_on_c, 5, 69, 58
4, 221525, Note_on_c, 5, 82, 75
4, 221525, Note_on_c, 5, 74, 65
4, 221526, Note_off_c, 5, 70, 0
4, 221526, Note_off_c, 5, 69, 0
4, 221610, Note_on_c, 5, 81, 73
4, 221610, Note_on_c, 5, 72, 70
4, 221611, Note_off_c, 5, 82, 0
4, 221611, Note_off_c, 5, 74, 0
4, 221696, Note_on_c, 5, 70, 55
4, 221696, Note_on_c, 5, 69, 66
4, 221697, Note_off_c, 5, 81, 0
4, 221697, Note_off_c, 5, 72, 0
4, 221781, Note_on_c, 5, 81, 84
4, 221781, Note_on_c, 5, 72, 80
4, 221782, Note_off_c, 5, 70, 0
4, 221782, Note_off_c, 5, 69, 0
4, 221866, Note_on_c, 5, 70, 61
4, 221866, Note_on_c, 5, 69, 76
4, 221867, Note_off_c, 5, 81, 0
4, 221867, Note_off_c, 5, 72, 0
4, 221952, Note_on_c, 5, 82, 87
4, 221952, Note_on_c, 5, 74, 81
4, 221953, Note_off_c, 5, 70, 0
4, 221953, Note_off_c, 5, 69, 0
4, 222037, Note_on_c, 5, 81, 80
4, 222037, Note_on_c, 5, 72, 78
4, 222038, Note_off_c, 5, 82, 0
4, 222038, Note_off_c, 5, 74, 0
4, 222122, Note_on_c, 5, 70, 52
4, 222122, Note_on_c, 5, 69, 65
4, 222123, Note_off_c, 5, 81, 0
4, 222123, Note_off_c, 5, 72, 0
4, 222208, Note_on_c, 5, 81, 59
4, 222208, Note_on_c, 5, 72, 65
4, 222209, Note_off_c, 5, 70, 0
4, 222209, Note_off_c, 5, 69, 0
4, 222293, Note_on_c, 5, 70, 55
4, 222293, Note_on_c, 5, 69, 64
4, 222294, Note_off_c, 5, 81, 0
4, 222294, Note_off_c, 5, 72, 0
4, 222378, Note_on_c, 5, 82, 67
4, 222378, Note_on_c, 5, 74, 76
4, 222379, Note_off_c, 5, 70, 0
4, 222379, Note_off_c, 5, 69, 0
4, 222464, Note_on_c, 5, 81, 67
4, 222464, Note_on_c, 5, 72, 64
4, 222465, Note_off_c, 5, 82, 0
4, 222465, Note_off_c, 5, 74, 0
4, 222549, Note_on_c, 5, 70, 51
4, 222549, Note_on_c, 5, 69, 61
4, 222550, Note_off_c, 5, 81, 0
4, 222550, Note_off_c, 5, 72, 0
4, 222634, Note_on_c, 5, 81, 85
4, 222634, Note_on_c, 5, 72, 77
4, 222635, Note_off_c, 5, 70, 0
4, 222635, Note_off_c, 5, 69, 0
4, 222720, Note_on_c, 5, 70, 68
4, 222720, Note_on_c, 5, 69, 69
4, 222721, Note_off_c, 5, 81, 0
4, 222721, Note_off_c, 5, 72, 0
4, 222805, Note_on_c, 5, 82, 89
4, 222805, Note_on_c, 5, 74, 81
4, 222806, Note_off_c, 5, 70, 0
4, 222806, Note_off_c, 5, 69, 0
4, 222890, Note_on_c, 5, 81, 90
4, 222890, Note_on_c, 5, 72, 74
4, 222891, Note_off_c, 5, 82, 0
4, 222891, Note_off_c, 5, 74, 0
4, 222976, Note_on_c, 5, 70, 52
4, 222976, Note_on_c, 5, 69, 66
4, 222977, Note_off_c, 5, 81, 0
4, 222977, Note_off_c, 5, 72, 0
4, 223061, Note_on_c, 5, 81, 62
4, 223061, Note_on_c, 5, 72, 72
4, 223062, Note_off_c, 5, 70, 0
4, 223062, Note_off_c, 5, 69, 0
4, 223146, Note_on_c, 5, 70, 52
4, 223146, Note_on_c, 5, 69, 68
4, 223147, Note_off_c, 5, 81, 0
4, 223147, Note_off_c, 5, 72, 0
4, 223232, Note_on_c, 5, 82, 62
4, 223232, Note_on_c, 5, 74, 79
4, 223233, Note_off_c, 5, 70, 0
4, 223233, Note_off_c, 5, 69, 0
4, 223317, Note_on_c, 5, 81, 70
4, 223317, Note_on_c, 5, 72, 66
4, 223318, Note_off_c, 5, 82, 0
4, 223318, Note_off_c, 5, 74, 0
4, 223402, Note_on_c, 5, 70, 48
4, 223402, Note_on_c, 5, 69, 55
4, 223403, Note_off_c, 5, 81, 0
4, 223403, Note_off_c, 5, 72, 0
4, 223488, Note_on_c, 5, 81, 88
4, 223488, Note_on_c, 5, 72, 80
4, 223489, Note_off_c, 5, 70, 0
4, 223489, Note_off_c, 5, 69, 0
4, 223573, Note_on_c, 5, 70, 74
4, 223573, Note_on_c, 5, 69, 76
4, 223574, Note_off_c, 5, 81, 0
4, 223574, Note_off_c, 5, 72, 0
4, 223658, Note_on_c, 5, 82, 86
4, 223658, Note_on_c, 5, 74, 84
4, 223659, Note_off_c, 5, 70, 0
4, 223659, Note_off_c, 5, 69, 0
4, 223739, Note_off_c, 5, 82, 0
4, 223739, Note_off_c, 5, 74, 0
4, 229888, Note_on_c, 5, 71, 85
4, 229952, Note_on_c, 5, 67, 73
4, 229953, Note_off_c, 5, 71, 0
4, 230016, Note_on_c, 5, 72, 112
4, 230017, Note_off_c, 5, 67, 0
4, 230080, Note_on_c, 5, 69, 105
4, 230081, Note_off_c, 5, 72, 0
4, 230144, Note_on_c, 5, 72, 101
4, 230145, Note_off_c, 5, 69, 0
4, 230208, Note_on_c, 5, 69, 94
4, 230209, Note_off_c, 5, 72, 0
4, 230272, Note_on_c, 5, 71, 105
4, 230273, Note_off_c, 5, 69, 0
4, 230336, Note_on_c, 5, 67, 95
4, 230337, Note_off_c, 5, 71, 0
4, 230400, Note_on_c, 5, 70, 106
4, 230401, Note_off_c, 5, 67, 0
4, 230464, Note_on_c, 5, 68, 101
4, 230465, Note_off_c, 5, 70, 0
4, 230528, Note_on_c, 5, 70, 96
4, 230529, Note_off_c, 5, 68, 0
4, 230592, Note_on_c, 5, 68, 87
4, 230593, Note_off_c, 5, 70, 0
4, 230656, Note_on_c, 5, 73, 112
4, 230657, Note_off_c, 5, 68, 0
4, 230720, Note_on_c, 5, 71, 104
4, 230721, Note_off_c, 5, 73, 0
4, 230784, Note_on_c, 5, 75, 113
4, 230785, Note_off_c, 5, 71, 0
4, 230848, Note_on_c, 5, 69, 94
4, 230849, Note_off_c, 5, 75, 0
4, 230912, Note_on_c, 5, 75, 112
4, 230913, Note_off_c, 5, 69, 0
4, 230972, Note_off_c, 5, 75, 0
4, 232192, Note_on_c, 5, 72, 88
4, 232256, Note_on_c, 5, 68, 76
4, 232257, Note_off_c, 5, 72, 0
4, 232320, Note_on_c, 5, 70, 98
4, 232321, Note_off_c, 5, 68, 0
4, 232384, Note_off_c, 5, 70, 0
4, 232384, Note_on_c, 5, 70, 104
4, 232448, Note_on_c, 5, 71, 108
4, 232449, Note_off_c, 5, 70, 0
4, 232512, Note_on_c, 5, 68, 92
4, 232513, Note_off_c, 5, 71, 0
4, 232576, Note_on_c, 5, 70, 101
4, 232577, Note_off_c, 5, 68, 0
4, 232640, Note_on_c, 5, 69, 97
4, 232641, Note_off_c, 5, 70, 0
4, 232704, Note_on_c, 5, 73, 105
4, 232705, Note_off_c, 5, 69, 0
4, 232768, Note_on_c, 5, 75, 106
4, 232769, Note_off_c, 5, 73, 0
4, 232832, Note_on_c, 5, 73, 103
4, 232833, Note_off_c, 5, 75, 0
4, 232896, Note_on_c, 5, 75, 101
4, 232897, Note_off_c, 5, 73, 0
4, 232960, Note_on_c, 5, 69, 86
4, 232961, Note_off_c, 5, 75, 0
4, 233020, Note_off_c, 5, 69, 0
4, 233216, Note_on_c, 5, 77, 90
4, 233280, Note_on_c, 5, 68, 70
4, 233281, Note_off_c, 5, 77, 0
4, 233344, Note_on_c, 5, 70, 102
4, 233345, Note_off_c, 5, 68, 0
4, 233408, Note_on_c, 5, 71, 107
4, 233409, Note_off_c, 5, 70, 0
4, 233472, Note_on_c, 5, 70, 95
4, 233473, Note_off_c, 5, 71, 0
4, 233532, Note_off_c, 5, 70, 0
4, 234240, Note_on_c, 5, 74, 87
4, 234304, Note_on_c, 5, 66, 68
4, 234305, Note_off_c, 5, 74, 0
4, 234368, Note_on_c, 5, 71, 113
4, 234369, Note_off_c, 5, 66, 0
4, 234432, Note_on_c, 5, 67, 100
4, 234433, Note_off_c, 5, 71, 0
4, 234496, Note_on_c, 5, 69, 107
4, 234497, Note_off_c, 5, 67, 0
4, 234560, Note_on_c, 5, 63, 94
4, 234561, Note_off_c, 5, 69, 0
4, 234620, Note_off_c, 5, 63, 0
4, 235264, Note_on_c, 5, 75, 91
4, 235328, Note_on_c, 5, 69, 76
4, 235329, Note_off_c, 5, 75, 0
4, 235392, Note_on_c, 5, 72, 104
4, 235393, Note_off_c, 5, 69, 0
4, 235456, Note_on_c, 5, 69, 95
4, 235457, Note_off_c, 5, 72, 0
4, 235516, Note_off_c, 5, 69, 0
4, 236288, Note_on_c, 5, 69, 90
4, 236352, Note_on_c, 5, 68, 83
4, 236353, Note_off_c, 5, 69, 0
4, 236416, Note_on_c, 5, 71, 103
4, 236417, Note_off_c, 5, 68, 0
4, 236480, Note_on_c, 5, 72, 106
4, 236481, Note_off_c, 5, 71, 0
4, 236544, Note_on_c, 5, 74, 99
4, 236545, Note_off_c, 5, 72, 0
4, 236608, Note_on_c, 5, 68, 87
4, 236609, Note_off_c, 5, 74, 0
4, 236672, Note_on_c, 5, 69, 101
4, 236673, Note_off_c, 5, 68, 0
4, 236736, Note_on_c, 5, 68, 100
4, 236737, Note_off_c, 5, 69, 0
4, 236800, Note_on_c, 5, 75, 113
4, 236801, Note_off_c, 5, 68, 0
4, 236864, Note_on_c, 5, 69, 94
4, 236865, Note_off_c, 5, 75, 0
4, 236928, Note_on_c, 5, 72, 102
4, 236929, Note_off_c, 5, 69, 0
4, 236992, Note_on_c, 5, 69, 93
4, 236993, Note_off_c, 5, 72, 0
4, 237056, Note_on_c, 5, 75, 111
4, 237057, Note_off_c, 5, 69, 0
4, 237120, Note_on_c, 5, 69, 90
4, 237121, Note_off_c, 5, 75, 0
4, 237184, Note_on_c, 5, 70, 102
4, 237185, Note_off_c, 5, 69, 0
4, 237248, Note_on_c, 5, 75, 119
4, 237249, Note_off_c, 5, 70, 0
4, 237312, Note_on_c, 5, 76, 103
4, 237313, Note_off_c, 5, 75, 0
4, 237376, Note_on_c, 5, 72, 92
4, 237377, Note_off_c, 5, 76, 0
4, 237440, Note_on_c, 5, 75, 105
4, 237441, Note_off_c, 5, 72, 0
4, 237504, Note_on_c, 5, 77, 113
4, 237505, Note_off_c, 5, 75, 0
4, 237568, Note_on_c, 5, 75, 93
4, 237569, Note_off_c, 5, 77, 0
4, 237632, Note_on_c, 5, 69, 77
4, 237633, Note_off_c, 5, 75, 0
4, 237696, Note_on_c, 5, 70, 100
4, 237697, Note_off_c, 5, 69, 0
4, 237760, Note_on_c, 5, 75, 112
4, 237761, Note_off_c, 5, 70, 0
4, 237824, Note_on_c, 5, 77, 108
4, 237825, Note_off_c, 5, 75, 0
4, 237884, Note_off_c, 5, 77, 0
4, 238208, Note_on_c, 5, 65, 93
4, 238272, Note_on_c, 5, 68, 97
4, 238273, Note_off_c, 5, 65, 0
4, 238336, Note_on_c, 5, 69, 105
4, 238337, Note_off_c, 5, 68, 0
4, 238400, Note_on_c, 5, 68, 102
4, 238401, Note_off_c, 5, 69, 0
4, 238464, Note_on_c, 5, 72, 112
4, 238465, Note_off_c, 5, 68, 0
4, 238524, Note_off_c, 5, 72, 0
4, 239104, Note_on_c, 5, 65, 85
4, 239168, Note_on_c, 5, 66, 85
4, 239169, Note_off_c, 5, 65, 0
4, 239232, Note_on_c, 5, 63, 87
4, 239233, Note_off_c, 5, 66, 0
4, 239296, Note_on_c, 5, 66, 89
4, 239297, Note_off_c, 5, 63, 0
4, 239360, Note_on_c, 5, 62, 87
4, 239361, Note_off_c, 5, 66, 0
4, 239424, Note_on_c, 5, 65, 99
4, 239425, Note_off_c, 5, 62, 0
4, 239488, Note_on_c, 5, 60, 77
4, 239489, Note_off_c, 5, 65, 0
4, 239552, Note_on_c, 5, 63, 76
4, 239553, Note_off_c, 5, 60, 0
4, 239616, Note_off_c, 5, 63, 0
4, 239616, Note_on_c, 5, 63, 103
4, 239680, Note_on_c, 5, 65, 108
4, 239681, Note_off_c, 5, 63, 0
4, 239744, Note_on_c, 5, 62, 91
4, 239745, Note_off_c, 5, 65, 0
4, 239808, Note_on_c, 5, 65, 99
4, 239809, Note_off_c, 5, 62, 0
4, 239872, Note_on_c, 5, 60, 84
4, 239873, Note_off_c, 5, 65, 0
4, 239936, Note_on_c, 5, 63, 93
4, 239937, Note_off_c, 5, 60, 0
4, 240000, Note_on_c, 5, 56, 90
4, 240001, Note_off_c, 5, 63, 0
4, 240064, Note_on_c, 5, 60, 97
4, 240065, Note_off_c, 5, 56, 0
4, 240128, Note_on_c, 5, 54, 94
4, 240129, Note_off_c, 5, 60, 0
4, 240192, Note_on_c, 5, 59, 101
4, 240193, Note_off_c, 5, 54, 0
4, 240256, Note_on_c, 5, 54, 94
4, 240257, Note_off_c, 5, 59, 0
4, 240320, Note_on_c, 5, 57, 97
4, 240321, Note_off_c, 5, 54, 0
4, 240384, Note_on_c, 5, 53, 92
4, 240385, Note_off_c, 5, 57, 0
4, 240448, Note_on_c, 5, 54, 91
4, 240449, Note_off_c, 5, 53, 0
4, 240512, Note_on_c, 5, 59, 101
4, 240513, Note_off_c, 5, 54, 0
4, 240576, Note_on_c, 5, 54, 99
4, 240577, Note_off_c, 5, 59, 0
4, 240636, Note_off_c, 5, 54, 0
4, 241152, Note_on_c, 5, 59, 92
4, 241152, Note_on_c, 5, 56, 88
4, 241216, Note_on_c, 5, 62, 100
4, 241216, Note_on_c, 5, 58, 92
4, 241217, Note_off_c, 5, 59, 0
4, 241217, Note_off_c, 5, 56, 0
4, 241280, Note_on_c, 5, 68, 112
4, 241280, Note_on_c, 5, 64, 113
4, 241281, Note_off_c, 5, 62, 0
4, 241281, Note_off_c, 5, 58, 0
4, 241344, Note_on_c, 5, 67, 106
4, 241344, Note_on_c, 5, 61, 104
4, 241345, Note_off_c, 5, 68, 0
4, 241345, Note_off_c, 5, 64, 0
4, 241408, Note_on_c, 5, 68, 101
4, 241408, Note_on_c, 5, 62, 104
4, 241409, Note_off_c, 5, 67, 0
4, 241409, Note_off_c, 5, 61, 0
4, 241472, Note_on_c, 5, 70, 112
4, 241472, Note_on_c, 5, 65, 116
4, 241473, Note_off_c, 5, 68, 0
4, 241473, Note_off_c, 5, 62, 0
4, 241536, Note_on_c, 5, 71, 99
4, 241536, Note_on_c, 5, 68, 102
4, 241537, Note_off_c, 5, 70, 0
4, 241537, Note_off_c, 5, 65, 0
4, 241600, Note_on_c, 5, 70, 94
4, 241600, Note_on_c, 5, 65, 100
4, 241601, Note_off_c, 5, 71, 0
4, 241601, Note_off_c, 5, 68, 0
4, 241664, Note_on_c, 5, 67, 87
4, 241664, Note_on_c, 5, 61, 89
4, 241665, Note_off_c, 5, 70, 0
4, 241665, Note_off_c, 5, 65, 0
4, 241728, Note_on_c, 5, 68, 93
4, 241728, Note_on_c, 5, 64, 95
4, 241729, Note_off_c, 5, 67, 0
4, 241729, Note_off_c, 5, 61, 0
4, 241792, Note_on_c, 5, 77, 121
4, 241792, Note_on_c, 5, 71, 112
4, 241793, Note_off_c, 5, 68, 0
4, 241793, Note_off_c, 5, 64, 0
4, 241856, Note_on_c, 5, 71, 107
4, 241856, Note_on_c, 5, 68, 107
4, 241857, Note_off_c, 5, 77, 0
4, 241857, Note_off_c, 5, 71, 0
4, 241920, Note_on_c, 5, 70, 89
4, 241920, Note_on_c, 5, 65, 96
4, 241921, Note_off_c, 5, 71, 0
4, 241921, Note_off_c, 5, 68, 0
4, 241984, Note_on_c, 5, 71, 91
4, 241984, Note_on_c, 5, 67, 102
4, 241985, Note_off_c, 5, 70, 0
4, 241985, Note_off_c, 5, 65, 0
4, 242048, Note_on_c, 5, 79, 114
4, 242048, Note_on_c, 5, 73, 110
4, 242049, Note_off_c, 5, 71, 0
4, 242049, Note_off_c, 5, 67, 0
4, 242112, Note_on_c, 5, 72, 95
4, 242112, Note_on_c, 5, 70, 105
4, 242113, Note_off_c, 5, 79, 0
4, 242113, Note_off_c, 5, 73, 0
4, 242176, Note_off_c, 5, 72, 0
4, 242176, Note_on_c, 5, 72, 95
4, 242176, Note_on_c, 5, 68, 93
4, 242177, Note_off_c, 5, 70, 0
4, 242240, Note_on_c, 5, 74, 103
4, 242240, Note_on_c, 5, 70, 102
4, 242241, Note_off_c, 5, 72, 0
4, 242241, Note_off_c, 5, 68, 0
4, 242304, Note_on_c, 5, 82, 119
4, 242304, Note_on_c, 5, 77, 119
4, 242305, Note_off_c, 5, 74, 0
4, 242305, Note_off_c, 5, 70, 0
4, 242368, Note_on_c, 5, 77, 110
4, 242368, Note_on_c, 5, 71, 104
4, 242369, Note_off_c, 5, 82, 0
4, 242369, Note_off_c, 5, 77, 0
4, 242432, Note_off_c, 5, 77, 0
4, 242432, Note_off_c, 5, 71, 0
4, 242432, Note_on_c, 5, 77, 95
4, 242432, Note_on_c, 5, 71, 92
4, 242496, Note_on_c, 5, 80, 100
4, 242496, Note_on_c, 5, 74, 101
4, 242497, Note_off_c, 5, 77, 0
4, 242497, Note_off_c, 5, 71, 0
4, 242560, Note_on_c, 5, 83, 108
4, 242560, Note_on_c, 5, 80, 116
4, 242561, Note_off_c, 5, 80, 0
4, 242561, Note_off_c, 5, 74, 0
4, 242624, Note_on_c, 5, 80, 104
4, 242624, Note_on_c, 5, 76, 110
4, 242625, Note_off_c, 5, 83, 0
4, 242625, Note_off_c, 5, 80, 0
4, 242684, Note_off_c, 5, 80, 0
4, 242688, Note_on_c, 5, 82, 112
4, 242689, Note_off_c, 5, 76, 0
4, 242752, Note_on_c, 5, 76, 99
4, 242753, Note_off_c, 5, 82, 0
4, 242816, Note_on_c, 5, 85, 114
4, 242817, Note_off_c, 5, 76, 0
4, 242876, Note_off_c, 5, 85, 0
4, 242944, Note_on_c, 5, 82, 86
4, 242944, Note_on_c, 5, 76, 87
4, 243008, Note_on_c, 5, 77, 71
4, 243008, Note_on_c, 5, 71, 76
4, 243009, Note_off_c, 5, 82, 0
4, 243009, Note_off_c, 5, 76, 0
4, 243072, Note_on_c, 5, 88, 121
4, 243072, Note_on_c, 5, 82, 126
4, 243073, Note_off_c, 5, 77, 0
4, 243073, Note_off_c, 5, 71, 0
4, 243132, Note_off_c, 5, 88, 0
4, 243136, Note_on_c, 5, 79, 123
4, 243137, Note_off_c, 5, 82, 0
4, 243200, Note_on_c, 5, 77, 90
4, 243200, Note_on_c, 5, 71, 78
4, 243201, Note_off_c, 5, 79, 0
4, 243264, Note_on_c, 5, 73, 79
4, 243264, Note_on_c, 5, 68, 68
4, 243265, Note_off_c, 5, 77, 0
4, 243265, Note_off_c, 5, 71, 0
4, 243328, Note_on_c, 5, 83, 114
4, 243328, Note_on_c, 5, 79, 125
4, 243329, Note_off_c, 5, 73, 0
4, 243329, Note_off_c, 5, 68, 0
4, 243392, Note_on_c, 5, 80, 107
4, 243392, Note_on_c, 5, 74, 113
4, 243393, Note_off_c, 5, 83, 0
4, 243393, Note_off_c, 5, 79, 0
4, 243456, Note_on_c, 5, 71, 72
4, 243456, Note_on_c, 5, 68, 80
4, 243457, Note_off_c, 5, 80, 0
4, 243457, Note_off_c, 5, 74, 0
4, 243520, Note_on_c, 5, 70, 66
4, 243520, Note_on_c, 5, 65, 73
4, 243521, Note_off_c, 5, 71, 0
4, 243521, Note_off_c, 5, 68, 0
4, 243584, Note_on_c, 5, 79, 121
4, 243584, Note_on_c, 5, 73, 118
4, 243585, Note_off_c, 5, 70, 0
4, 243585, Note_off_c, 5, 65, 0
4, 243648, Note_on_c, 5, 76, 115
4, 243648, Note_on_c, 5, 70, 107
4, 243649, Note_off_c, 5, 79, 0
4, 243649, Note_off_c, 5, 73, 0
4, 243708, Note_off_c, 5, 76, 0
4, 243708, Note_off_c, 5, 70, 0
4, 243776, Note_on_c, 5, 68, 82
4, 243776, Note_on_c, 5, 64, 88
4, 243840, Note_on_c, 5, 71, 89
4, 243840, Note_on_c, 5, 67, 91
4, 243841, Note_off_c, 5, 68, 0
4, 243841, Note_off_c, 5, 64, 0
4, 243904, Note_on_c, 5, 76, 114
4, 243904, Note_on_c, 5, 70, 108
4, 243905, Note_off_c, 5, 71, 0
4, 243905, Note_off_c, 5, 67, 0
4, 243968, Note_on_c, 5, 79, 126
4, 243968, Note_on_c, 5, 73, 117
4, 243969, Note_off_c, 5, 76, 0
4, 243969, Note_off_c, 5, 70, 0
4, 244032, Note_on_c, 5, 82, 106
4, 244032, Note_on_c, 5, 77, 109
4, 244033, Note_off_c, 5, 79, 0
4, 244033, Note_off_c, 5, 73, 0
4, 244096, Note_on_c, 5, 83, 115
4, 244096, Note_on_c, 5, 80, 119
4, 244097, Note_off_c, 5, 82, 0
4, 244097, Note_off_c, 5, 77, 0
4, 244156, Note_off_c, 5, 83, 0
4, 244156, Note_off_c, 5, 80, 0
4, 244224, Note_on_c, 5, 71, 88
4, 244224, Note_on_c, 5, 67, 85
4, 244288, Note_on_c, 5, 74, 92
4, 244288, Note_on_c, 5, 70, 92
4, 244289, Note_off_c, 5, 71, 0
4, 244289, Note_off_c, 5, 67, 0
4, 244352, Note_on_c, 5, 80, 112
4, 244352, Note_on_c, 5, 74, 108
4, 244353, Note_off_c, 5, 74, 0
4, 244353, Note_off_c, 5, 70, 0
4, 244416, Note_on_c, 5, 82, 123
4, 244416, Note_on_c, 5, 77, 120
4, 244417, Note_off_c, 5, 80, 0
4, 244417, Note_off_c, 5, 74, 0
4, 244480, Note_on_c, 5, 85, 108
4, 244480, Note_on_c, 5, 80, 106
4, 244481, Note_off_c, 5, 82, 0
4, 244481, Note_off_c, 5, 77, 0
4, 244540, Note_off_c, 5, 85, 0
4, 244544, Note_on_c, 5, 83, 112
4, 244545, Note_off_c, 5, 80, 0
4, 244604, Note_off_c, 5, 83, 0
4, 244672, Note_on_c, 5, 74, 87
4, 244672, Note_on_c, 5, 70, 89
4, 244736, Note_on_c, 5, 77, 93
4, 244736, Note_on_c, 5, 71, 88
4, 244737, Note_off_c, 5, 74, 0
4, 244737, Note_off_c, 5, 70, 0
4, 244800, Note_on_c, 5, 82, 112
4, 244800, Note_on_c, 5, 77, 114
4, 244801, Note_off_c, 5, 77, 0
4, 244801, Note_off_c, 5, 71, 0
4, 244864, Note_on_c, 5, 85, 127
4, 244864, Note_on_c, 5, 80, 125
4, 244865, Note_off_c, 5, 82, 0
4, 244865, Note_off_c, 5, 77, 0
4, 244924, Note_off_c, 5, 85, 0
4, 244928, Note_on_c, 5, 83, 110
4, 244929, Note_off_c, 5, 80, 0
4, 244988, Note_off_c, 5, 83, 0
4, 245120, Note_on_c, 5, 79, 82
4, 245120, Note_on_c, 5, 73, 84
4, 245184, Note_on_c, 5, 82, 86
4, 245184, Note_on_c, 5, 77, 90
4, 245185, Note_off_c, 5, 79, 0
4, 245185, Note_off_c, 5, 73, 0
4, 245248, Note_on_c, 5, 87, 109
4, 245248, Note_on_c, 5, 82, 108
4, 245249, Note_off_c, 5, 82, 0
4, 245249, Note_off_c, 5, 77, 0
4, 245308, Note_off_c, 5, 87, 0
4, 245312, Note_on_c, 5, 86, 122
4, 245313, Note_off_c, 5, 82, 0
4, 245376, Note_on_c, 5, 83, 89
4, 245377, Note_off_c, 5, 86, 0
4, 245440, Note_on_c, 5, 82, 84
4, 245440, Note_on_c, 5, 77, 75
4, 245441, Note_off_c, 5, 83, 0
4, 245504, Note_on_c, 5, 85, 90
4, 245504, Note_on_c, 5, 80, 102
4, 245505, Note_off_c, 5, 82, 0
4, 245505, Note_off_c, 5, 77, 0
4, 245564, Note_off_c, 5, 85, 0
4, 245568, Note_on_c, 5, 83, 112
4, 245569, Note_off_c, 5, 80, 0
4, 245632, Note_on_c, 5, 86, 90
4, 245632, Note_on_c, 5, 80, 98
4, 245633, Note_off_c, 5, 83, 0
4, 245696, Note_on_c, 5, 80, 76
4, 245696, Note_on_c, 5, 74, 83
4, 245697, Note_off_c, 5, 86, 0
4, 245697, Note_off_c, 5, 80, 0
4, 245760, Note_on_c, 5, 82, 105
4, 245760, Note_on_c, 5, 77, 104
4, 245761, Note_off_c, 5, 80, 0
4, 245761, Note_off_c, 5, 74, 0
4, 245824, Note_on_c, 5, 86, 120
4, 245824, Note_on_c, 5, 80, 115
4, 245825, Note_off_c, 5, 82, 0
4, 245825, Note_off_c, 5, 77, 0
4, 245888, Note_on_c, 5, 83, 89
4, 245888, Note_on_c, 5, 77, 89
4, 245889, Note_off_c, 5, 86, 0
4, 245889, Note_off_c, 5, 80, 0
4, 245952, Note_on_c, 5, 77, 74
4, 245952, Note_on_c, 5, 71, 67
4, 245953, Note_off_c, 5, 83, 0
4, 245953, Note_off_c, 5, 77, 0
4, 246016, Note_on_c, 5, 80, 102
4, 246016, Note_on_c, 5, 73, 103
4, 246017, Note_off_c, 5, 77, 0
4, 246017, Note_off_c, 5, 71, 0
4, 246080, Note_on_c, 5, 83, 108
4, 246080, Note_on_c, 5, 77, 111
4, 246081, Note_off_c, 5, 80, 0
4, 246081, Note_off_c, 5, 73, 0
4, 246144, Note_on_c, 5, 80, 96
4, 246144, Note_on_c, 5, 74, 93
4, 246145, Note_off_c, 5, 83, 0
4, 246145, Note_off_c, 5, 77, 0
4, 246208, Note_on_c, 5, 73, 74
4, 246208, Note_on_c, 5, 68, 81
4, 246209, Note_off_c, 5, 80, 0
4, 246209, Note_off_c, 5, 74, 0
4, 246272, Note_on_c, 5, 77, 106
4, 246272, Note_on_c, 5, 71, 102
4, 246273, Note_off_c, 5, 73, 0
4, 246273, Note_off_c, 5, 68, 0
4, 246336, Note_on_c, 5, 82, 122
4, 246336, Note_on_c, 5, 76, 116
4, 246337, Note_off_c, 5, 77, 0
4, 246337, Note_off_c, 5, 71, 0
4, 246400, Note_on_c, 5, 79, 92
4, 246400, Note_on_c, 5, 71, 87
4, 246401, Note_off_c, 5, 82, 0
4, 246401, Note_off_c, 5, 76, 0
4, 246464, Note_on_c, 5, 71, 73
4, 246464, Note_on_c, 5, 67, 77
4, 246465, Note_off_c, 5, 79, 0
4, 246465, Note_off_c, 5, 71, 0
4, 246528, Note_off_c, 5, 71, 0
4, 246528, Note_on_c, 5, 71, 94
4, 246528, Note_on_c, 5, 68, 103
4, 246529, Note_off_c, 5, 67, 0
4, 246592, Note_on_c, 5, 77, 108
4, 246592, Note_on_c, 5, 70, 108
4, 246593, Note_off_c, 5, 71, 0
4, 246593, Note_off_c, 5, 68, 0
4, 246656, Note_on_c, 5, 73, 92
4, 246656, Note_on_c, 5, 68, 91
4, 246657, Note_off_c, 5, 77, 0
4, 246657, Note_off_c, 5, 70, 0
4, 246720, Note_on_c, 5, 68, 78
4, 246720, Note_on_c, 5, 61, 75
4, 246721, Note_off_c, 5, 73, 0
4, 246721, Note_off_c, 5, 68, 0
4, 246784, Note_on_c, 5, 70, 104
4, 246784, Note_on_c, 5, 65, 102
4, 246785, Note_off_c, 5, 68, 0
4, 246785, Note_off_c, 5, 61, 0
4, 246848, Note_on_c, 5, 73, 113
4, 246848, Note_on_c, 5, 68, 111
4, 246849, Note_off_c, 5, 70, 0
4, 246849, Note_off_c, 5, 65, 0
4, 246912, Note_on_c, 5, 70, 90
4, 246912, Note_on_c, 5, 65, 93
4, 246913, Note_off_c, 5, 73, 0
4, 246913, Note_off_c, 5, 68, 0
4, 246976, Note_on_c, 5, 65, 76
4, 246976, Note_on_c, 5, 58, 80
4, 246977, Note_off_c, 5, 70, 0
4, 246977, Note_off_c, 5, 65, 0
4, 247040, Note_on_c, 5, 68, 104
4, 247040, Note_on_c, 5, 59, 98
4, 247041, Note_off_c, 5, 65, 0
4, 247041, Note_off_c, 5, 58, 0
4, 247104, Note_on_c, 5, 70, 105
4, 247104, Note_on_c, 5, 65, 120
4, 247105, Note_off_c, 5, 68, 0
4, 247105, Note_off_c, 5, 59, 0
4, 247168, Note_on_c, 5, 68, 89
4, 247168, Note_on_c, 5, 61, 97
4, 247169, Note_off_c, 5, 70, 0
4, 247169, Note_off_c, 5, 65, 0
4, 247232, Note_on_c, 5, 59, 79
4, 247232, Note_on_c, 5, 56, 88
4, 247233, Note_off_c, 5, 68, 0
4, 247233, Note_off_c, 5, 61, 0
4, 247296, Note_on_c, 5, 65, 112
4, 247296, Note_on_c, 5, 58, 98
4, 247297, Note_off_c, 5, 59, 0
4, 247297, Note_off_c, 5, 56, 0
4, 247360, Note_on_c, 5, 70, 127
4, 247360, Note_on_c, 5, 64, 115
4, 247361, Note_off_c, 5, 65, 0
4, 247361, Note_off_c, 5, 58, 0
4, 247424, Note_on_c, 5, 67, 91
4, 247424, Note_on_c, 5, 58, 91
4, 247425, Note_off_c, 5, 70, 0
4, 247425, Note_off_c, 5, 64, 0
4, 247488, Note_on_c, 5, 58, 78
4, 247488, Note_on_c, 5, 55, 89
4, 247489, Note_off_c, 5, 67, 0
4, 247489, Note_off_c, 5, 58, 0
4, 247548, Note_off_c, 5, 58, 0
4, 247548, Note_off_c, 5, 55, 0
4, 247552, Note_on_c, 5, 59, 99
4, 247552, Note_on_c, 5, 58, 104
4, 247637, Note_on_c, 5, 58, 92
4, 247637, Note_on_c, 5, 55, 96
4, 247638, Note_off_c, 5, 59, 0
4, 247638, Note_off_c, 5, 58, 0
4, 247722, Note_on_c, 5, 59, 101
4, 247722, Note_on_c, 5, 58, 100
4, 247723, Note_off_c, 5, 58, 0
4, 247723, Note_off_c, 5, 55, 0
4, 247808, Note_on_c, 5, 67, 121
4, 247808, Note_on_c, 5, 64, 119
4, 247809, Note_off_c, 5, 59, 0
4, 247809, Note_off_c, 5, 58, 0
4, 247893, Note_on_c, 5, 64, 90
4, 247893, Note_on_c, 5, 59, 91
4, 247894, Note_off_c, 5, 67, 0
4, 247894, Note_off_c, 5, 64, 0
4, 247978, Note_on_c, 5, 59, 81
4, 247978, Note_on_c, 5, 58, 88
4, 247979, Note_off_c, 5, 64, 0
4, 247979, Note_off_c, 5, 59, 0
4, 248064, Note_on_c, 5, 64, 112
4, 248064, Note_on_c, 5, 59, 101
4, 248065, Note_off_c, 5, 59, 0
4, 248065, Note_off_c, 5, 58, 0
4, 248149, Note_on_c, 5, 70, 127
4, 248149, Note_on_c, 5, 67, 122
4, 248150, Note_off_c, 5, 64, 0
4, 248150, Note_off_c, 5, 59, 0
4, 248234, Note_on_c, 5, 68, 91
4, 248234, Note_on_c, 5, 65, 94
4, 248235, Note_off_c, 5, 70, 0
4, 248235, Note_off_c, 5, 67, 0
4, 248320, Note_on_c, 5, 64, 81
4, 248320, Note_on_c, 5, 59, 85
4, 248321, Note_off_c, 5, 68, 0
4, 248321, Note_off_c, 5, 65, 0
4, 248405, Note_on_c, 5, 67, 106
4, 248405, Note_on_c, 5, 64, 107
4, 248406, Note_off_c, 5, 64, 0
4, 248406, Note_off_c, 5, 59, 0
4, 248490, Note_on_c, 5, 71, 118
4, 248490, Note_on_c, 5, 70, 127
4, 248491, Note_off_c, 5, 67, 0
4, 248491, Note_off_c, 5, 64, 0
4, 248576, Note_on_c, 5, 70, 93
4, 248576, Note_on_c, 5, 67, 95
4, 248577, Note_off_c, 5, 71, 0
4, 248577, Note_off_c, 5, 70, 0
4, 248661, Note_on_c, 5, 63, 74
4, 248661, Note_on_c, 5, 59, 90
4, 248662, Note_off_c, 5, 70, 0
4, 248662, Note_off_c, 5, 67, 0
4, 248746, Note_on_c, 5, 70, 116
4, 248746, Note_on_c, 5, 67, 112
4, 248747, Note_off_c, 5, 63, 0
4, 248747, Note_off_c, 5, 59, 0
4, 248827, Note_off_c, 5, 70, 0
4, 248827, Note_off_c, 5, 67, 0
4, 249088, Note_on_c, 5, 71, 87
4, 249152, Note_on_c, 5, 77, 99
4, 249153, Note_off_c, 5, 71, 0
4, 249216, Note_on_c, 5, 80, 108
4, 249217, Note_off_c, 5, 77, 0
4, 249280, Note_on_c, 5, 83, 117
4, 249281, Note_off_c, 5, 80, 0
4, 249340, Note_off_c, 5, 83, 0
4, 249472, Note_on_c, 5, 73, 88
4, 249536, Note_on_c, 5, 77, 100
4, 249537, Note_off_c, 5, 73, 0
4, 249600, Note_on_c, 5, 82, 114
4, 249601, Note_off_c, 5, 77, 0
4, 249664, Note_on_c, 5, 86, 127
4, 249665, Note_off_c, 5, 82, 0
4, 249724, Note_off_c, 5, 86, 0
4, 250560, Note_on_c, 5, 82, 86
4, 250560, Note_on_c, 5, 77, 82
4, 250624, Note_on_c, 5, 86, 93
4, 250624, Note_on_c, 5, 80, 96
4, 250625, Note_off_c, 5, 82, 0
4, 250625, Note_off_c, 5, 77, 0
4, 250684, Note_off_c, 5, 80, 0
4, 250688, Note_on_c, 5, 83, 91
4, 250689, Note_off_c, 5, 86, 0
4, 250748, Note_off_c, 5, 83, 0
4, 250752, Note_on_c, 5, 71, 84
4, 250816, Note_on_c, 5, 80, 91
4, 250816, Note_on_c, 5, 73, 89
4, 250817, Note_off_c, 5, 71, 0
4, 250880, Note_on_c, 5, 83, 101
4, 250880, Note_on_c, 5, 77, 109
4, 250881, Note_off_c, 5, 80, 0
4, 250881, Note_off_c, 5, 73, 0
4, 250940, Note_off_c, 5, 83, 0
4, 250944, Note_on_c, 5, 74, 103
4, 250945, Note_off_c, 5, 77, 0
4, 251008, Note_on_c, 5, 68, 83
4, 251009, Note_off_c, 5, 74, 0
4, 251072, Note_on_c, 5, 71, 90
4, 251073, Note_off_c, 5, 68, 0
4, 251136, Note_on_c, 5, 76, 88
4, 251136, Note_on_c, 5, 76, 113
4, 251137, Note_off_c, 5, 71, 0
4, 251196, Note_off_c, 5, 76, 0
4, 251200, Note_on_c, 5, 71, 80
4, 251201, Note_off_c, 5, 76, 0
4, 251264, Note_on_c, 5, 67, 88
4, 251265, Note_off_c, 5, 71, 0
4, 251328, Note_on_c, 5, 68, 90
4, 251329, Note_off_c, 5, 67, 0
4, 251388, Note_off_c, 5, 68, 0
4, 251456, Note_on_c, 5, 71, 87
4, 251520, Note_on_c, 5, 70, 81
4, 251521, Note_off_c, 5, 71, 0
4, 251584, Note_on_c, 5, 64, 80
4, 251585, Note_off_c, 5, 70, 0
4, 251648, Note_on_c, 5, 65, 83
4, 251649, Note_off_c, 5, 64, 0
4, 251712, Note_on_c, 5, 70, 112
4, 251713, Note_off_c, 5, 65, 0
4, 251776, Note_on_c, 5, 76, 127
4, 251776, Note_on_c, 5, 67, 88
4, 251777, Note_off_c, 5, 70, 0
4, 251840, Note_on_c, 5, 68, 80
4, 251840, Note_on_c, 5, 59, 82
4, 251841, Note_off_c, 5, 76, 0
4, 251841, Note_off_c, 5, 67, 0
4, 251904, Note_on_c, 5, 71, 87
4, 251904, Note_on_c, 5, 64, 109
4, 251905, Note_off_c, 5, 68, 0
4, 251905, Note_off_c, 5, 59, 0
4, 251968, Note_on_c, 5, 77, 119
4, 251968, Note_on_c, 5, 68, 119
4, 251969, Note_off_c, 5, 71, 0
4, 251969, Note_off_c, 5, 64, 0
4, 252032, Note_on_c, 5, 74, 112
4, 252032, Note_on_c, 5, 64, 91
4, 252033, Note_off_c, 5, 77, 0
4, 252033, Note_off_c, 5, 68, 0
4, 252096, Note_on_c, 5, 67, 75
4, 252096, Note_on_c, 5, 61, 83
4, 252097, Note_off_c, 5, 74, 0
4, 252097, Note_off_c, 5, 64, 0
4, 252160, Note_on_c, 5, 65, 67
4, 252160, Note_on_c, 5, 56, 93
4, 252161, Note_off_c, 5, 67, 0
4, 252161, Note_off_c, 5, 61, 0
4, 252220, Note_off_c, 5, 65, 0
4, 252220, Note_off_c, 5, 56, 0
4, 252288, Note_on_c, 5, 68, 88
4, 252352, Note_off_c, 5, 68, 0
4, 252352, Note_on_c, 5, 68, 95
4, 252416, Note_on_c, 5, 61, 81
4, 252417, Note_off_c, 5, 68, 0
4, 252480, Note_on_c, 5, 62, 99
4, 252481, Note_off_c, 5, 61, 0
4, 252544, Note_on_c, 5, 68, 116
4, 252545, Note_off_c, 5, 62, 0
4, 252608, Note_on_c, 5, 65, 90
4, 252609, Note_off_c, 5, 68, 0
4, 252672, Note_on_c, 5, 56, 77
4, 252673, Note_off_c, 5, 65, 0
4, 252736, Note_on_c, 5, 61, 111
4, 252737, Note_off_c, 5, 56, 0
4, 252800, Note_on_c, 5, 74, 88
4, 252800, Note_on_c, 5, 65, 125
4, 252801, Note_off_c, 5, 61, 0
4, 252864, Note_on_c, 5, 71, 85
4, 252864, Note_on_c, 5, 61, 91
4, 252865, Note_off_c, 5, 74, 0
4, 252865, Note_off_c, 5, 65, 0
4, 252928, Note_on_c, 5, 65, 85
4, 252928, Note_on_c, 5, 56, 84
4, 252929, Note_off_c, 5, 71, 0
4, 252929, Note_off_c, 5, 61, 0
4, 252992, Note_on_c, 5, 62, 76
4, 252992, Note_on_c, 5, 53, 91
4, 252993, Note_off_c, 5, 65, 0
4, 252993, Note_off_c, 5, 56, 0
4, 253052, Note_off_c, 5, 62, 0
4, 253052, Note_off_c, 5, 53, 0
4, 253312, Note_on_c, 5, 71, 76
4, 253312, Note_on_c, 5, 68, 76
4, 253376, Note_on_c, 5, 68, 73
4, 253376, Note_on_c, 5, 65, 68
4, 253377, Note_off_c, 5, 71, 0
4, 253377, Note_off_c, 5, 68, 0
4, 253440, Note_on_c, 5, 62, 67
4, 253440, Note_on_c, 5, 59, 72
4, 253441, Note_off_c, 5, 68, 0
4, 253441, Note_off_c, 5, 65, 0
4, 253504, Note_on_c, 5, 61, 62
4, 253504, Note_on_c, 5, 58, 67
4, 253505, Note_off_c, 5, 62, 0
4, 253505, Note_off_c, 5, 59, 0
4, 253568, Note_on_c, 5, 59, 79
4, 253568, Note_on_c, 5, 56, 79
4, 253569, Note_off_c, 5, 61, 0
4, 253569, Note_off_c, 5, 58, 0
4, 253632, Note_on_c, 5, 56, 77
4, 253632, Note_on_c, 5, 53, 78
4, 253633, Note_off_c, 5, 59, 0
4, 253633, Note_off_c, 5, 56, 0
4, 253692, Note_off_c, 5, 56, 0
4, 253692, Note_off_c, 5, 53, 0
4, 254016, Note_on_c, 5, 68, 78
4, 254016, Note_on_c, 5, 65, 78
4, 254080, Note_on_c, 5, 65, 70
4, 254080, Note_on_c, 5, 61, 63
4, 254081, Note_off_c, 5, 68, 0
4, 254081, Note_off_c, 5, 65, 0
4, 254144, Note_on_c, 5, 61, 75
4, 254144, Note_on_c, 5, 58, 79
4, 254145, Note_off_c, 5, 65, 0
4, 254145, Note_off_c, 5, 61, 0
4, 254208, Note_on_c, 5, 56, 70
4, 254208, Note_on_c, 5, 53, 75
4, 254209, Note_off_c, 5, 61, 0
4, 254209, Note_off_c, 5, 58, 0
4, 254268, Note_off_c, 5, 56, 0
4, 254268, Note_off_c, 5, 53, 0
4, 254464, Note_on_c, 5, 71, 78
4, 254464, Note_on_c, 5, 61, 75
4, 254566, Note_on_c, 5, 65, 66
4, 254566, Note_on_c, 5, 56, 73
4, 254568, Note_off_c, 5, 71, 0
4, 254568, Note_off_c, 5, 61, 0
4, 254662, Note_off_c, 5, 56, 0
4, 254668, Note_on_c, 5, 56, 70
4, 254670, Note_off_c, 5, 65, 0
4, 254771, Note_on_c, 5, 61, 80
4, 254771, Note_on_c, 5, 50, 75
4, 254773, Note_off_c, 5, 56, 0
4, 254873, Note_on_c, 5, 65, 95
4, 254873, Note_on_c, 5, 56, 79
4, 254875, Note_off_c, 5, 61, 0
4, 254875, Note_off_c, 5, 50, 0
4, 254970, Note_off_c, 5, 65, 0
4, 254970, Note_off_c, 5, 56, 0
4, 265088, Note_on_c, 5, 60, 57
4, 265216, Note_on_c, 5, 63, 62
4, 265218, Note_off_c, 5, 60, 0
4, 265600, Note_on_c, 5, 65, 68
4, 265607, Note_off_c, 5, 63, 0
4, 265728, Note_on_c, 5, 75, 84
4, 265730, Note_off_c, 5, 65, 0
4, 266368, Note_on_c, 5, 67, 51
4, 266380, Note_off_c, 5, 75, 0
4, 267340, Note_off_c, 5, 67, 0
4, 267392, Note_on_c, 5, 75, 75
4, 267648, Note_on_c, 5, 77, 83
4, 267653, Note_off_c, 5, 75, 0
4, 267776, Note_on_c, 5, 73, 57
4, 267778, Note_off_c, 5, 77, 0
4, 268160, Note_on_c, 5, 71, 52
4, 268167, Note_off_c, 5, 73, 0
4, 268544, Note_on_c, 5, 70, 62
4, 268551, Note_off_c, 5, 71, 0
4, 268928, Note_on_c, 5, 68, 57
4, 268935, Note_off_c, 5, 70, 0
4, 269312, Note_on_c, 5, 67, 57
4, 269319, Note_off_c, 5, 68, 0
4, 269696, Note_on_c, 5, 65, 52
4, 269703, Note_off_c, 5, 67, 0
4, 270060, Note_off_c, 5, 65, 0
4, 270080, Note_on_c, 5, 65, 59
4, 270208, Note_on_c, 5, 67, 65
4, 270210, Note_off_c, 5, 65, 0
4, 270464, Note_on_c, 5, 68, 59
4, 270469, Note_off_c, 5, 67, 0
4, 270592, Note_on_c, 5, 78, 81
4, 270594, Note_off_c, 5, 68, 0
4, 270976, Note_on_c, 5, 80, 74
4, 270983, Note_off_c, 5, 78, 0
4, 271664, Note_off_c, 5, 80, 0
4, 271701, Note_on_c, 5, 82, 86
4, 271957, Note_on_c, 5, 78, 77
4, 271962, Note_off_c, 5, 82, 0
4, 272280, Note_off_c, 5, 78, 0
4, 272298, Note_on_c, 5, 76, 82
4, 272768, Note_on_c, 5, 75, 79
4, 272777, Note_off_c, 5, 76, 0
4, 273152, Note_on_c, 5, 73, 79
4, 273159, Note_off_c, 5, 75, 0
4, 273280, Note_on_c, 5, 71, 81
4, 273282, Note_off_c, 5, 73, 0
4, 273536, Note_on_c, 5, 69, 74
4, 273541, Note_off_c, 5, 71, 0
4, 273664, Note_on_c, 5, 67, 70
4, 273666, Note_off_c, 5, 69, 0
4, 273920, Note_on_c, 5, 65, 66
4, 273925, Note_off_c, 5, 67, 0
4, 274048, Note_on_c, 5, 64, 65
4, 274050, Note_off_c, 5, 65, 0
4, 274304, Note_on_c, 5, 62, 55
4, 274309, Note_off_c, 5, 64, 0
4, 275155, Note_off_c, 5, 62, 0
4, 275200, Note_on_c, 5, 61, 54
4, 275328, Note_on_c, 5, 62, 51
4, 275330, Note_off_c, 5, 61, 0
4, 275584, Note_on_c, 5, 64, 63
4, 275589, Note_off_c, 5, 62, 0
4, 275712, Note_on_c, 5, 72, 75
4, 275714, Note_off_c, 5, 64, 0
4, 276138, Note_on_c, 5, 70, 56
4, 276146, Note_off_c, 5, 72, 0
4, 276462, Note_off_c, 5, 70, 0
4, 276736, Note_on_c, 5, 60, 65
4, 276864, Note_on_c, 5, 61, 67
4, 276866, Note_off_c, 5, 60, 0
4, 277120, Note_on_c, 5, 63, 76
4, 277125, Note_off_c, 5, 61, 0
4, 277248, Note_on_c, 5, 71, 91
4, 277250, Note_off_c, 5, 63, 0
4, 277674, Note_on_c, 5, 69, 69
4, 277682, Note_off_c, 5, 71, 0
4, 278120, Note_off_c, 5, 69, 0
4, 278144, Note_on_c, 5, 64, 64
4, 278272, Note_on_c, 5, 65, 62
4, 278274, Note_off_c, 5, 64, 0
4, 278656, Note_on_c, 5, 67, 75
4, 278663, Note_off_c, 5, 65, 0
4, 278784, Note_on_c, 5, 75, 90
4, 278786, Note_off_c, 5, 67, 0
4, 279168, Note_on_c, 5, 73, 66
4, 279175, Note_off_c, 5, 75, 0
4, 279654, Note_off_c, 5, 73, 0
4, 284160, Note_on_c, 5, 70, 55
4, 284245, Note_on_c, 5, 72, 59
4, 284246, Note_off_c, 5, 70, 0
4, 284416, Note_on_c, 5, 68, 57
4, 284419, Note_off_c, 5, 72, 0
4, 284800, Note_on_c, 5, 66, 52
4, 284807, Note_off_c, 5, 68, 0
4, 285013, Note_on_c, 5, 65, 54
4, 285017, Note_off_c, 5, 66, 0
4, 285098, Note_on_c, 5, 66, 56
4, 285099, Note_off_c, 5, 65, 0
4, 285269, Note_on_c, 5, 65, 60
4, 285272, Note_off_c, 5, 66, 0
4, 285354, Note_on_c, 5, 66, 66
4, 285355, Note_off_c, 5, 65, 0
4, 285525, Note_on_c, 5, 63, 53
4, 285528, Note_off_c, 5, 66, 0
4, 285610, Note_on_c, 5, 60, 50
4, 285611, Note_off_c, 5, 63, 0
4, 285781, Note_on_c, 5, 61, 63
4, 285784, Note_off_c, 5, 60, 0
4, 285866, Note_on_c, 5, 63, 64
4, 285867, Note_off_c, 5, 61, 0
4, 286037, Note_on_c, 5, 61, 58
4, 286040, Note_off_c, 5, 63, 0
4, 286122, Note_on_c, 5, 63, 68
4, 286123, Note_off_c, 5, 61, 0
4, 286293, Note_on_c, 5, 68, 78
4, 286296, Note_off_c, 5, 63, 0
4, 286378, Note_on_c, 5, 66, 64
4, 286379, Note_off_c, 5, 68, 0
4, 286581, Note_off_c, 5, 66, 0
4, 286592, Note_on_c, 5, 56, 67
4, 286805, Note_on_c, 5, 58, 72
4, 286809, Note_off_c, 5, 56, 0
4, 286976, Note_on_c, 5, 59, 72
4, 286979, Note_off_c, 5, 58, 0
4, 287146, Note_on_c, 5, 60, 75
4, 287149, Note_off_c, 5, 59, 0
4, 287317, Note_on_c, 5, 61, 75
4, 287320, Note_off_c, 5, 60, 0
4, 287488, Note_on_c, 5, 76, 98
4, 287491, Note_off_c, 5, 61, 0
4, 287914, Note_on_c, 5, 72, 64
4, 287922, Note_off_c, 5, 76, 0
4, 288482, Note_off_c, 5, 72, 0
4, 288512, Note_on_c, 5, 62, 51
4, 288682, Note_on_c, 5, 63, 52
4, 288685, Note_off_c, 5, 62, 0
4, 288853, Note_on_c, 5, 75, 88
4, 288856, Note_off_c, 5, 63, 0
4, 289024, Note_on_c, 5, 78, 99
4, 289027, Note_off_c, 5, 75, 0
4, 289450, Note_on_c, 5, 74, 63
4, 289458, Note_off_c, 5, 78, 0
4, 290139, Note_off_c, 5, 74, 0
4, 290176, Note_on_c, 5, 67, 53
4, 290304, Note_on_c, 5, 68, 70
4, 290306, Note_off_c, 5, 67, 0
4, 290688, Note_on_c, 5, 71, 72
4, 290695, Note_off_c, 5, 68, 0
4, 290816, Note_on_c, 5, 80, 75
4, 290818, Note_off_c, 5, 71, 0
4, 291157, Note_on_c, 5, 81, 55
4, 291163, Note_off_c, 5, 80, 0
4, 291562, Note_off_c, 5, 81, 0
4, 291584, Note_on_c, 5, 83, 43
4, 291712, Note_on_c, 5, 81, 42
4, 291714, Note_off_c, 5, 83, 0
4, 291968, Note_on_c, 5, 86, 49
4, 291973, Note_off_c, 5, 81, 0
4, 292096, Note_on_c, 5, 82, 41
4, 292098, Note_off_c, 5, 86, 0
4, 292352, Note_on_c, 5, 80, 33
4, 292357, Note_off_c, 5, 82, 0
4, 292522, Note_on_c, 5, 78, 29
4, 292525, Note_off_c, 5, 80, 0
4, 292693, Note_on_c, 5, 76, 35
4, 292696, Note_off_c, 5, 78, 0
4, 293248, Note_on_c, 5, 74, 33
4, 293259, Note_off_c, 5, 76, 0
4, 293504, Note_on_c, 5, 72, 39
4, 293509, Note_off_c, 5, 74, 0
4, 293760, Note_on_c, 5, 69, 37
4, 293765, Note_off_c, 5, 72, 0
4, 293888, Note_on_c, 5, 68, 33
4, 293890, Note_off_c, 5, 69, 0
4, 294252, Note_off_c, 5, 68, 0
4, 294272, Note_on_c, 5, 67, 41
4, 294400, Note_on_c, 5, 65, 36
4, 294402, Note_off_c, 5, 67, 0
4, 294784, Note_on_c, 5, 68, 59
4, 294791, Note_off_c, 5, 65, 0
4, 295168, Note_on_c, 5, 66, 63
4, 295175, Note_off_c, 5, 68, 0
4, 295296, Note_on_c, 5, 65, 70
4, 295298, Note_off_c, 5, 66, 0
4, 295579, Note_off_c, 5, 65, 0
4, 295594, Note_on_c, 5, 64, 77
4, 295765, Note_on_c, 5, 63, 75
4, 295768, Note_off_c, 5, 64, 0
4, 296277, Note_on_c, 5, 62, 80
4, 296287, Note_off_c, 5, 63, 0
4, 296789, Note_on_c, 5, 61, 80
4, 296799, Note_off_c, 5, 62, 0
4, 297301, Note_on_c, 5, 64, 90
4, 297311, Note_off_c, 5, 61, 0
4, 297624, Note_off_c, 5, 64, 0
4, 297642, Note_on_c, 5, 55, 75
4, 298154, Note_off_c, 5, 55, 0
4, 298154, Note_on_c, 5, 56, 86
4, 298325, Note_on_c, 5, 58, 94
4, 298328, Note_off_c, 5, 56, 0
4, 298496, Note_on_c, 5, 59, 90
4, 298499, Note_off_c, 5, 58, 0
4, 298666, Note_on_c, 5, 62, 99
4, 298669, Note_off_c, 5, 59, 0
4, 298837, Note_on_c, 5, 70, 97
4, 298840, Note_off_c, 5, 62, 0
4, 299178, Note_on_c, 5, 66, 86
4, 299184, Note_off_c, 5, 70, 0
4, 299867, Note_off_c, 5, 66, 0
4, 299904, Note_on_c, 5, 64, 76
4, 300202, Note_off_c, 5, 64, 0
4, 300202, Note_on_c, 5, 65, 86
4, 300714, Note_on_c, 5, 75, 100
4, 300724, Note_off_c, 5, 65, 0
4, 301184, Note_on_c, 5, 66, 65
4, 301193, Note_off_c, 5, 75, 0
4, 301710, Note_off_c, 5, 66, 0
4, 301738, Note_on_c, 5, 70, 90
4, 301909, Note_on_c, 5, 71, 95
4, 301912, Note_off_c, 5, 70, 0
4, 302080, Note_on_c, 5, 81, 106
4, 302083, Note_off_c, 5, 71, 0
4, 302336, Note_on_c, 5, 79, 106
4, 302341, Note_off_c, 5, 81, 0
4, 302822, Note_off_c, 5, 79, 0
4, 302848, Note_on_c, 5, 86, 100
4, 303104, Note_on_c, 5, 78, 85
4, 303109, Note_off_c, 5, 86, 0
4, 303347, Note_off_c, 5, 78, 0
4, 303360, Note_on_c, 5, 64, 56
4, 303488, Note_on_c, 5, 70, 64
4, 303490, Note_off_c, 5, 64, 0
4, 303852, Note_off_c, 5, 70, 0
4, 303872, Note_on_c, 5, 81, 107
4, 304000, Note_on_c, 5, 77, 107
4, 304002, Note_off_c, 5, 81, 0
4, 304243, Note_off_c, 5, 77, 0
4, 304256, Note_on_c, 5, 58, 70
4, 304384, Note_on_c, 5, 66, 81
4, 304386, Note_off_c, 5, 58, 0
4, 304640, Note_on_c, 5, 76, 107
4, 304645, Note_off_c, 5, 66, 0
4, 304768, Note_on_c, 5, 72, 98
4, 304770, Note_off_c, 5, 76, 0
4, 305011, Note_off_c, 5, 72, 0
4, 305024, Note_on_c, 5, 62, 62
4, 305152, Note_on_c, 5, 65, 64
4, 305154, Note_off_c, 5, 62, 0
4, 305408, Note_on_c, 5, 72, 100
4, 305413, Note_off_c, 5, 65, 0
4, 305536, Note_on_c, 5, 69, 95
4, 305538, Note_off_c, 5, 72, 0
4, 305779, Note_off_c, 5, 69, 0
4, 305792, Note_on_c, 5, 60, 63
4, 306176, Note_on_c, 5, 63, 69
4, 306183, Note_off_c, 5, 60, 0
4, 306304, Note_on_c, 5, 66, 90
4, 306306, Note_off_c, 5, 63, 0
4, 306432, Note_on_c, 5, 75, 109
4, 306434, Note_off_c, 5, 66, 0
4, 306816, Note_on_c, 5, 74, 83
4, 306823, Note_off_c, 5, 75, 0
4, 307910, Note_off_c, 5, 74, 0
4, 339968, Note_on_c, 5, 56, 55
4, 340096, Note_on_c, 5, 58, 53
4, 340098, Note_off_c, 5, 56, 0
4, 340460, Note_off_c, 5, 58, 0
4, 340480, Note_on_c, 5, 59, 64
4, 340608, Note_on_c, 5, 74, 81
4, 340610, Note_off_c, 5, 59, 0
4, 341094, Note_off_c, 5, 74, 0
4, 341120, Note_on_c, 5, 64, 46
4, 341589, Note_off_c, 5, 64, 0
4, 341589, Note_on_c, 5, 59, 55
4, 341930, Note_off_c, 5, 59, 0
4, 341930, Note_on_c, 5, 62, 75
4, 342101, Note_off_c, 5, 62, 0
4, 342101, Note_on_c, 5, 65, 73
4, 342272, Note_off_c, 5, 65, 0
4, 342272, Note_on_c, 5, 76, 77
4, 342656, Note_on_c, 5, 78, 87
4, 342663, Note_off_c, 5, 76, 0
4, 343457, Note_off_c, 5, 78, 0
4, 343500, Note_on_c, 5, 56, 56
4, 343705, Note_off_c, 5, 56, 0
4, 343705, Note_on_c, 5, 73, 84
4, 343910, Note_off_c, 5, 73, 0
4, 343910, Note_on_c, 5, 69, 60
4, 344115, Note_off_c, 5, 69, 0
4, 344115, Note_on_c, 5, 65, 65
4, 344512, Note_on_c, 5, 64, 82
4, 344519, Note_off_c, 5, 65, 0
4, 344937, Note_off_c, 5, 64, 0
4, 344960, Note_on_c, 5, 55, 90
4, 345088, Note_on_c, 5, 75, 117
4, 345090, Note_off_c, 5, 55, 0
4, 345331, Note_off_c, 5, 75, 0
4, 345344, Note_on_c, 5, 70, 94
4, 345514, Note_on_c, 5, 68, 87
4, 345517, Note_off_c, 5, 70, 0
4, 345838, Note_off_c, 5, 68, 0
4, 345856, Note_on_c, 5, 67, 101
4, 346026, Note_off_c, 5, 67, 0
4, 346026, Note_on_c, 5, 56, 90
4, 346197, Note_off_c, 5, 56, 0
4, 346197, Note_on_c, 5, 76, 117
4, 346496, Note_off_c, 5, 76, 0
4, 346496, Note_on_c, 5, 75, 81
4, 346624, Note_on_c, 5, 74, 79
4, 346626, Note_off_c, 5, 75, 0
4, 346867, Note_off_c, 5, 74, 0
4, 355904, Note_on_c, 5, 60, 31
4, 355968, Note_on_c, 5, 67, 35
4, 355969, Note_off_c, 5, 60, 0
4, 356032, Note_on_c, 5, 66, 37
4, 356033, Note_off_c, 5, 67, 0
4, 356096, Note_on_c, 5, 72, 44
4, 356097, Note_off_c, 5, 66, 0
4, 356160, Note_on_c, 5, 68, 37
4, 356161, Note_off_c, 5, 72, 0
4, 356224, Note_on_c, 5, 67, 34
4, 356225, Note_off_c, 5, 68, 0
4, 356288, Note_on_c, 5, 60, 36
4, 356289, Note_off_c, 5, 67, 0
4, 356352, Note_on_c, 5, 72, 44
4, 356353, Note_off_c, 5, 60, 0
4, 356416, Note_on_c, 5, 66, 32
4, 356417, Note_off_c, 5, 72, 0
4, 356480, Note_on_c, 5, 67, 32
4, 356481, Note_off_c, 5, 66, 0
4, 356544, Note_on_c, 5, 68, 41
4, 356545, Note_off_c, 5, 67, 0
4, 356608, Note_on_c, 5, 72, 48
4, 356609, Note_off_c, 5, 68, 0
4, 356672, Note_on_c, 5, 60, 29
4, 356673, Note_off_c, 5, 72, 0
4, 356736, Note_on_c, 5, 67, 34
4, 356737, Note_off_c, 5, 60, 0
4, 356800, Note_on_c, 5, 66, 39
4, 356801, Note_off_c, 5, 67, 0
4, 356864, Note_on_c, 5, 72, 45
4, 356865, Note_off_c, 5, 66, 0
4, 356928, Note_on_c, 5, 68, 34
4, 356929, Note_off_c, 5, 72, 0
4, 356992, Note_on_c, 5, 67, 28
4, 356993, Note_off_c, 5, 68, 0
4, 357056, Note_on_c, 5, 60, 33
4, 357057, Note_off_c, 5, 67, 0
4, 357120, Note_on_c, 5, 72, 36
4, 357121, Note_off_c, 5, 60, 0
4, 357184, Note_on_c, 5, 66, 33
4, 357185, Note_off_c, 5, 72, 0
4, 357248, Note_on_c, 5, 67, 34
4, 357249, Note_off_c, 5, 66, 0
4, 357312, Note_on_c, 5, 68, 42
4, 357313, Note_off_c, 5, 67, 0
4, 357376, Note_on_c, 5, 72, 49
4, 357377, Note_off_c, 5, 68, 0
4, 357440, Note_on_c, 5, 61, 26
4, 357441, Note_off_c, 5, 72, 0
4, 357504, Note_on_c, 5, 67, 29
4, 357505, Note_off_c, 5, 61, 0
4, 357568, Note_on_c, 5, 66, 38
4, 357569, Note_off_c, 5, 67, 0
4, 357632, Note_on_c, 5, 72, 41
4, 357633, Note_off_c, 5, 66, 0
4, 357696, Note_on_c, 5, 68, 35
4, 357697, Note_off_c, 5, 72, 0
4, 357760, Note_on_c, 5, 67, 32
4, 357761, Note_off_c, 5, 68, 0
4, 357824, Note_on_c, 5, 61, 33
4, 357825, Note_off_c, 5, 67, 0
4, 357888, Note_on_c, 5, 72, 38
4, 357889, Note_off_c, 5, 61, 0
4, 357952, Note_on_c, 5, 66, 39
4, 357953, Note_off_c, 5, 72, 0
4, 358016, Note_on_c, 5, 67, 39
4, 358017, Note_off_c, 5, 66, 0
4, 358080, Note_on_c, 5, 68, 37
4, 358081, Note_off_c, 5, 67, 0
4, 358144, Note_on_c, 5, 72, 41
4, 358145, Note_off_c, 5, 68, 0
4, 358208, Note_on_c, 5, 61, 26
4, 358209, Note_off_c, 5, 72, 0
4, 358272, Note_on_c, 5, 67, 34
4, 358273, Note_off_c, 5, 61, 0
4, 358336, Note_on_c, 5, 66, 40
4, 358337, Note_off_c, 5, 67, 0
4, 358400, Note_on_c, 5, 72, 47
4, 358401, Note_off_c, 5, 66, 0
4, 358464, Note_on_c, 5, 68, 33
4, 358465, Note_off_c, 5, 72, 0
4, 358528, Note_on_c, 5, 67, 29
4, 358529, Note_off_c, 5, 68, 0
4, 358592, Note_on_c, 5, 61, 34
4, 358593, Note_off_c, 5, 67, 0
4, 358656, Note_on_c, 5, 72, 40
4, 358657, Note_off_c, 5, 61, 0
4, 358720, Note_on_c, 5, 66, 35
4, 358721, Note_off_c, 5, 72, 0
4, 358784, Note_on_c, 5, 67, 38
4, 358785, Note_off_c, 5, 66, 0
4, 358848, Note_on_c, 5, 68, 40
4, 358849, Note_off_c, 5, 67, 0
4, 358912, Note_on_c, 5, 72, 49
4, 358913, Note_off_c, 5, 68, 0
4, 358976, Note_on_c, 5, 61, 33
4, 358977, Note_off_c, 5, 72, 0
4, 359040, Note_on_c, 5, 67, 37
4, 359041, Note_off_c, 5, 61, 0
4, 359104, Note_on_c, 5, 66, 35
4, 359105, Note_off_c, 5, 67, 0
4, 359168, Note_on_c, 5, 72, 40
4, 359169, Note_off_c, 5, 66, 0
4, 359232, Note_on_c, 5, 68, 35
4, 359233, Note_off_c, 5, 72, 0
4, 359296, Note_on_c, 5, 67, 33
4, 359297, Note_off_c, 5, 68, 0
4, 359360, Note_on_c, 5, 61, 37
4, 359361, Note_off_c, 5, 67, 0
4, 359424, Note_on_c, 5, 72, 47
4, 359425, Note_off_c, 5, 61, 0
4, 359488, Note_on_c, 5, 66, 35
4, 359489, Note_off_c, 5, 72, 0
4, 359552, Note_on_c, 5, 67, 34
4, 359553, Note_off_c, 5, 66, 0
4, 359616, Note_on_c, 5, 68, 38
4, 359617, Note_off_c, 5, 67, 0
4, 359680, Note_on_c, 5, 72, 47
4, 359681, Note_off_c, 5, 68, 0
4, 359744, Note_on_c, 5, 61, 29
4, 359745, Note_off_c, 5, 72, 0
4, 359808, Note_on_c, 5, 67, 33
4, 359809, Note_off_c, 5, 61, 0
4, 359872, Note_on_c, 5, 66, 43
4, 359873, Note_off_c, 5, 67, 0
4, 359936, Note_on_c, 5, 72, 55
4, 359937, Note_off_c, 5, 66, 0
4, 360000, Note_on_c, 5, 68, 34
4, 360001, Note_off_c, 5, 72, 0
4, 360064, Note_on_c, 5, 76, 39
4, 360065, Note_off_c, 5, 68, 0
4, 360128, Note_on_c, 5, 61, 34
4, 360129, Note_off_c, 5, 76, 0
4, 360192, Note_on_c, 5, 67, 32
4, 360193, Note_off_c, 5, 61, 0
4, 360256, Note_on_c, 5, 63, 38
4, 360257, Note_off_c, 5, 67, 0
4, 360320, Note_on_c, 5, 70, 44
4, 360321, Note_off_c, 5, 63, 0
4, 360384, Note_on_c, 5, 76, 45
4, 360385, Note_off_c, 5, 70, 0
4, 360448, Note_on_c, 5, 78, 52
4, 360449, Note_off_c, 5, 76, 0
4, 360512, Note_on_c, 5, 61, 29
4, 360513, Note_off_c, 5, 78, 0
4, 360576, Note_on_c, 5, 67, 30
4, 360577, Note_off_c, 5, 61, 0
4, 360640, Note_on_c, 5, 63, 36
4, 360641, Note_off_c, 5, 67, 0
4, 360704, Note_on_c, 5, 70, 43
4, 360705, Note_off_c, 5, 63, 0
4, 360768, Note_on_c, 5, 64, 34
4, 360769, Note_off_c, 5, 70, 0
4, 360828, Note_off_c, 5, 64, 0
4, 360896, Note_on_c, 5, 61, 34
4, 360960, Note_on_c, 5, 67, 39
4, 360961, Note_off_c, 5, 61, 0
4, 361024, Note_on_c, 5, 63, 36
4, 361025, Note_off_c, 5, 67, 0
4, 361088, Note_on_c, 5, 70, 41
4, 361089, Note_off_c, 5, 63, 0
4, 361152, Note_on_c, 5, 64, 35
4, 361153, Note_off_c, 5, 70, 0
4, 361216, Note_on_c, 5, 78, 44
4, 361217, Note_off_c, 5, 64, 0
4, 361280, Note_on_c, 5, 61, 28
4, 361281, Note_off_c, 5, 78, 0
4, 361344, Note_on_c, 5, 67, 34
4, 361345, Note_off_c, 5, 61, 0
4, 361408, Note_on_c, 5, 63, 35
4, 361409, Note_off_c, 5, 67, 0
4, 361472, Note_on_c, 5, 70, 42
4, 361473, Note_off_c, 5, 63, 0
4, 361536, Note_on_c, 5, 64, 34
4, 361537, Note_off_c, 5, 70, 0
4, 361596, Note_off_c, 5, 64, 0
4, 361664, Note_on_c, 5, 61, 33
4, 361728, Note_on_c, 5, 67, 35
4, 361729, Note_off_c, 5, 61, 0
4, 361792, Note_on_c, 5, 63, 36
4, 361793, Note_off_c, 5, 67, 0
4, 361856, Note_on_c, 5, 70, 43
4, 361857, Note_off_c, 5, 63, 0
4, 361920, Note_on_c, 5, 64, 35
4, 361921, Note_off_c, 5, 70, 0
4, 361984, Note_on_c, 5, 78, 45
4, 361985, Note_off_c, 5, 64, 0
4, 362048, Note_on_c, 5, 61, 31
4, 362049, Note_off_c, 5, 78, 0
4, 362112, Note_on_c, 5, 67, 37
4, 362113, Note_off_c, 5, 61, 0
4, 362176, Note_on_c, 5, 63, 36
4, 362177, Note_off_c, 5, 67, 0
4, 362240, Note_on_c, 5, 70, 47
4, 362241, Note_off_c, 5, 63, 0
4, 362304, Note_on_c, 5, 64, 34
4, 362305, Note_off_c, 5, 70, 0
4, 362364, Note_off_c, 5, 64, 0
4, 362432, Note_on_c, 5, 61, 37
4, 362496, Note_on_c, 5, 67, 40
4, 362497, Note_off_c, 5, 61, 0
4, 362560, Note_on_c, 5, 63, 39
4, 362561, Note_off_c, 5, 67, 0
4, 362624, Note_on_c, 5, 70, 44
4, 362625, Note_off_c, 5, 63, 0
4, 362688, Note_on_c, 5, 64, 41
4, 362689, Note_off_c, 5, 70, 0
4, 362752, Note_on_c, 5, 78, 51
4, 362753, Note_off_c, 5, 64, 0
4, 362816, Note_on_c, 5, 61, 30
4, 362817, Note_off_c, 5, 78, 0
4, 362880, Note_on_c, 5, 67, 32
4, 362881, Note_off_c, 5, 61, 0
4, 362944, Note_on_c, 5, 63, 35
4, 362945, Note_off_c, 5, 67, 0
4, 363008, Note_on_c, 5, 70, 45
4, 363009, Note_off_c, 5, 63, 0
4, 363072, Note_on_c, 5, 64, 35
4, 363073, Note_off_c, 5, 70, 0
4, 363132, Note_off_c, 5, 64, 0
4, 363200, Note_on_c, 5, 60, 35
4, 363264, Note_on_c, 5, 67, 40
4, 363265, Note_off_c, 5, 60, 0
4, 363328, Note_on_c, 5, 63, 37
4, 363329, Note_off_c, 5, 67, 0
4, 363392, Note_on_c, 5, 70, 44
4, 363393, Note_off_c, 5, 63, 0
4, 363456, Note_on_c, 5, 64, 38
4, 363457, Note_off_c, 5, 70, 0
4, 363520, Note_on_c, 5, 78, 48
4, 363521, Note_off_c, 5, 64, 0
4, 363584, Note_on_c, 5, 60, 33
4, 363585, Note_off_c, 5, 78, 0
4, 363648, Note_on_c, 5, 67, 35
4, 363649, Note_off_c, 5, 60, 0
4, 363712, Note_on_c, 5, 63, 38
4, 363713, Note_off_c, 5, 67, 0
4, 363776, Note_on_c, 5, 70, 46
4, 363777, Note_off_c, 5, 63, 0
4, 363840, Note_on_c, 5, 64, 33
4, 363841, Note_off_c, 5, 70, 0
4, 363904, Note_on_c, 5, 76, 40
4, 363905, Note_off_c, 5, 64, 0
4, 363968, Note_on_c, 5, 60, 34
4, 363969, Note_off_c, 5, 76, 0
4, 364032, Note_on_c, 5, 67, 39
4, 364033, Note_off_c, 5, 60, 0
4, 364096, Note_on_c, 5, 63, 35
4, 364097, Note_off_c, 5, 67, 0
4, 364160, Note_on_c, 5, 70, 39
4, 364161, Note_off_c, 5, 63, 0
4, 364224, Note_on_c, 5, 64, 33
4, 364225, Note_off_c, 5, 70, 0
4, 364288, Note_on_c, 5, 78, 42
4, 364289, Note_off_c, 5, 64, 0
4, 364352, Note_on_c, 5, 60, 32
4, 364353, Note_off_c, 5, 78, 0
4, 364416, Note_on_c, 5, 67, 39
4, 364417, Note_off_c, 5, 60, 0
4, 364480, Note_on_c, 5, 63, 37
4, 364481, Note_off_c, 5, 67, 0
4, 364544, Note_on_c, 5, 70, 43
4, 364545, Note_off_c, 5, 63, 0
4, 364608, Note_on_c, 5, 64, 30
4, 364609, Note_off_c, 5, 70, 0
4, 364672, Note_on_c, 5, 76, 41
4, 364673, Note_off_c, 5, 64, 0
4, 364736, Note_on_c, 5, 60, 31
4, 364737, Note_off_c, 5, 76, 0
4, 364800, Note_on_c, 5, 67, 40
4, 364801, Note_off_c, 5, 60, 0
4, 364864, Note_on_c, 5, 63, 39
4, 364865, Note_off_c, 5, 67, 0
4, 364928, Note_on_c, 5, 70, 46
4, 364929, Note_off_c, 5, 63, 0
4, 364992, Note_on_c, 5, 64, 35
4, 364993, Note_off_c, 5, 70, 0
4, 365056, Note_on_c, 5, 78, 46
4, 365057, Note_off_c, 5, 64, 0
4, 365120, Note_on_c, 5, 60, 29
4, 365121, Note_off_c, 5, 78, 0
4, 365184, Note_on_c, 5, 67, 32
4, 365185, Note_off_c, 5, 60, 0
4, 365248, Note_on_c, 5, 63, 38
4, 365249, Note_off_c, 5, 67, 0
4, 365312, Note_on_c, 5, 70, 47
4, 365313, Note_off_c, 5, 63, 0
4, 365376, Note_on_c, 5, 67, 38
4, 365377, Note_off_c, 5, 70, 0
4, 365436, Note_off_c, 5, 67, 0
4, 365504, Note_on_c, 5, 61, 33
4, 365568, Note_on_c, 5, 69, 39
4, 365569, Note_off_c, 5, 61, 0
4, 365632, Note_on_c, 5, 66, 35
4, 365633, Note_off_c, 5, 69, 0
4, 365696, Note_on_c, 5, 73, 40
4, 365697, Note_off_c, 5, 66, 0
4, 365760, Note_on_c, 5, 67, 30
4, 365761, Note_off_c, 5, 73, 0
4, 365824, Note_on_c, 5, 79, 36
4, 365825, Note_off_c, 5, 67, 0
4, 365888, Note_on_c, 5, 61, 35
4, 365889, Note_off_c, 5, 79, 0
4, 365952, Note_on_c, 5, 69, 37
4, 365953, Note_off_c, 5, 61, 0
4, 366016, Note_on_c, 5, 66, 39
4, 366017, Note_off_c, 5, 69, 0
4, 366080, Note_on_c, 5, 73, 43
4, 366081, Note_off_c, 5, 66, 0
4, 366144, Note_on_c, 5, 67, 32
4, 366145, Note_off_c, 5, 73, 0
4, 366208, Note_on_c, 5, 81, 40
4, 366209, Note_off_c, 5, 67, 0
4, 366272, Note_on_c, 5, 61, 29
4, 366273, Note_off_c, 5, 81, 0
4, 366336, Note_on_c, 5, 69, 36
4, 366337, Note_off_c, 5, 61, 0
4, 366400, Note_on_c, 5, 66, 36
4, 366401, Note_off_c, 5, 69, 0
4, 366464, Note_on_c, 5, 73, 42
4, 366465, Note_off_c, 5, 66, 0
4, 366528, Note_on_c, 5, 67, 34
4, 366529, Note_off_c, 5, 73, 0
4, 366592, Note_on_c, 5, 79, 46
4, 366593, Note_off_c, 5, 67, 0
4, 366656, Note_on_c, 5, 61, 32
4, 366657, Note_off_c, 5, 79, 0
4, 366720, Note_on_c, 5, 69, 34
4, 366721, Note_off_c, 5, 61, 0
4, 366784, Note_on_c, 5, 66, 40
4, 366785, Note_off_c, 5, 69, 0
4, 366848, Note_on_c, 5, 73, 48
4, 366849, Note_off_c, 5, 66, 0
4, 366912, Note_on_c, 5, 67, 33
4, 366913, Note_off_c, 5, 73, 0
4, 366972, Note_off_c, 5, 67, 0
4, 367040, Note_on_c, 5, 61, 36
4, 367104, Note_on_c, 5, 69, 39
4, 367105, Note_off_c, 5, 61, 0
4, 367168, Note_on_c, 5, 66, 32
4, 367169, Note_off_c, 5, 69, 0
4, 367232, Note_on_c, 5, 73, 39
4, 367233, Note_off_c, 5, 66, 0
4, 367296, Note_on_c, 5, 67, 33
4, 367297, Note_off_c, 5, 73, 0
4, 367360, Note_on_c, 5, 79, 41
4, 367361, Note_off_c, 5, 67, 0
4, 367424, Note_on_c, 5, 61, 33
4, 367425, Note_off_c, 5, 79, 0
4, 367488, Note_on_c, 5, 69, 41
4, 367489, Note_off_c, 5, 61, 0
4, 367552, Note_on_c, 5, 66, 38
4, 367553, Note_off_c, 5, 69, 0
4, 367616, Note_on_c, 5, 73, 47
4, 367617, Note_off_c, 5, 66, 0
4, 367680, Note_on_c, 5, 67, 40
4, 367681, Note_off_c, 5, 73, 0
4, 367744, Note_on_c, 5, 81, 50
4, 367745, Note_off_c, 5, 67, 0
4, 367808, Note_on_c, 5, 61, 30
4, 367809, Note_off_c, 5, 81, 0
4, 367872, Note_on_c, 5, 69, 34
4, 367873, Note_off_c, 5, 61, 0
4, 367936, Note_on_c, 5, 66, 34
4, 367937, Note_off_c, 5, 69, 0
4, 368000, Note_on_c, 5, 73, 41
4, 368001, Note_off_c, 5, 66, 0
4, 368064, Note_on_c, 5, 67, 38
4, 368065, Note_off_c, 5, 73, 0
4, 368128, Note_on_c, 5, 79, 48
4, 368129, Note_off_c, 5, 67, 0
4, 368188, Note_off_c, 5, 79, 0
4, 368256, Note_on_c, 5, 69, 37
4, 368320, Note_on_c, 5, 66, 35
4, 368321, Note_off_c, 5, 69, 0
4, 368384, Note_on_c, 5, 58, 56
4, 368385, Note_off_c, 5, 66, 0
4, 368416, Note_off_c, 5, 58, 0
4, 368416, Note_on_c, 5, 62, 64
4, 368448, Note_off_c, 5, 62, 0
4, 368448, Note_on_c, 5, 64, 69
4, 368480, Note_off_c, 5, 64, 0
4, 368480, Note_on_c, 5, 65, 64
4, 368512, Note_off_c, 5, 65, 0
4, 368512, Note_on_c, 5, 67, 65
4, 368544, Note_off_c, 5, 67, 0
4, 368544, Note_on_c, 5, 68, 67
4, 368576, Note_off_c, 5, 68, 0
4, 368576, Note_on_c, 5, 70, 65
4, 368608, Note_off_c, 5, 70, 0
4, 368608, Note_on_c, 5, 74, 69
4, 368640, Note_off_c, 5, 74, 0
4, 368640, Note_on_c, 5, 77, 63
4, 368670, Note_off_c, 5, 77, 0
4, 369152, Note_on_c, 5, 76, 53
4, 369194, Note_off_c, 5, 76, 0
4, 369194, Note_on_c, 5, 74, 58
4, 369237, Note_off_c, 5, 74, 0
4, 369237, Note_on_c, 5, 70, 58
4, 369280, Note_off_c, 5, 70, 0
4, 369280, Note_on_c, 5, 68, 53
4, 369280, Note_on_c, 5, 52, 57
4, 369312, Note_off_c, 5, 52, 0
4, 369312, Note_on_c, 5, 56, 58
4, 369322, Note_off_c, 5, 68, 0
4, 369322, Note_on_c, 5, 67, 57
4, 369344, Note_off_c, 5, 56, 0
4, 369344, Note_on_c, 5, 58, 63
4, 369365, Note_off_c, 5, 67, 0
4, 369365, Note_on_c, 5, 62, 53
4, 369376, Note_off_c, 5, 58, 0
4, 369376, Note_on_c, 5, 60, 60
4, 369408, Note_off_c, 5, 62, 0
4, 369408, Note_off_c, 5, 60, 0
4, 369408, Note_on_c, 5, 56, 55
4, 369408, Note_on_c, 5, 61, 67
4, 369438, Note_off_c, 5, 56, 0
4, 369440, Note_off_c, 5, 61, 0
4, 369440, Note_on_c, 5, 62, 65
4, 369472, Note_off_c, 5, 62, 0
4, 369472, Note_on_c, 5, 64, 65
4, 369504, Note_off_c, 5, 64, 0
4, 369504, Note_on_c, 5, 68, 65
4, 369536, Note_off_c, 5, 68, 0
4, 369536, Note_on_c, 5, 72, 66
4, 369566, Note_off_c, 5, 72, 0
4, 369920, Note_on_c, 5, 58, 56
4, 369962, Note_off_c, 5, 58, 0
4, 369962, Note_on_c, 5, 62, 70
4, 370005, Note_off_c, 5, 62, 0
4, 370005, Note_on_c, 5, 64, 63
4, 370048, Note_off_c, 5, 64, 0
4, 370048, Note_on_c, 5, 65, 66
4, 370090, Note_off_c, 5, 65, 0
4, 370090, Note_on_c, 5, 67, 65
4, 370133, Note_off_c, 5, 67, 0
4, 370133, Note_on_c, 5, 68, 64
4, 370176, Note_off_c, 5, 68, 0
4, 370176, Note_on_c, 5, 74, 72
4, 370176, Note_on_c, 5, 70, 52
4, 370218, Note_off_c, 5, 74, 0
4, 370218, Note_on_c, 5, 77, 63
4, 370227, Note_on_c, 5, 72, 58
4, 370228, Note_off_c, 5, 70, 0
4, 370258, Note_off_c, 5, 77, 0
4, 370278, Note_on_c, 5, 74, 64
4, 370279, Note_off_c, 5, 72, 0
4, 370329, Note_on_c, 5, 75, 66
4, 370330, Note_off_c, 5, 74, 0
4, 370380, Note_on_c, 5, 76, 64
4, 370381, Note_off_c, 5, 75, 0
4, 370432, Note_on_c, 5, 78, 71
4, 370433, Note_off_c, 5, 76, 0
4, 370483, Note_on_c, 5, 70, 55
4, 370483, Note_on_c, 5, 81, 69
4, 370484, Note_off_c, 5, 78, 0
4, 370534, Note_on_c, 5, 72, 56
4, 370534, Note_on_c, 5, 84, 76
4, 370535, Note_off_c, 5, 70, 0
4, 370535, Note_off_c, 5, 81, 0
4, 370582, Note_off_c, 5, 84, 0
4, 370585, Note_on_c, 5, 74, 70
4, 370586, Note_off_c, 5, 72, 0
4, 370636, Note_on_c, 5, 75, 74
4, 370637, Note_off_c, 5, 74, 0
4, 370688, Note_on_c, 5, 76, 60
4, 370689, Note_off_c, 5, 75, 0
4, 370739, Note_on_c, 5, 78, 64
4, 370740, Note_off_c, 5, 76, 0
4, 370790, Note_on_c, 5, 81, 60
4, 370791, Note_off_c, 5, 78, 0
4, 370841, Note_on_c, 5, 84, 64
4, 370842, Note_off_c, 5, 81, 0
4, 370889, Note_off_c, 5, 84, 0
4, 371456, Note_on_c, 5, 81, 56
4, 371498, Note_off_c, 5, 81, 0
4, 371498, Note_on_c, 5, 80, 60
4, 371541, Note_off_c, 5, 80, 0
4, 371541, Note_on_c, 5, 75, 53
4, 371584, Note_off_c, 5, 75, 0
4, 371584, Note_on_c, 5, 73, 57
4, 371626, Note_off_c, 5, 73, 0
4, 371626, Note_on_c, 5, 70, 59
4, 371669, Note_off_c, 5, 70, 0
4, 371669, Note_on_c, 5, 68, 56
4, 371712, Note_off_c, 5, 68, 0
4, 371712, Note_on_c, 5, 69, 53
4, 371712, Note_on_c, 5, 61, 54
4, 371744, Note_off_c, 5, 69, 0
4, 371744, Note_on_c, 5, 68, 53
4, 371754, Note_off_c, 5, 61, 0
4, 371776, Note_off_c, 5, 68, 0
4, 371776, Note_on_c, 5, 66, 56
4, 371808, Note_off_c, 5, 66, 0
4, 371808, Note_on_c, 5, 63, 56
4, 371840, Note_off_c, 5, 63, 0
4, 371840, Note_on_c, 5, 61, 60
4, 371872, Note_off_c, 5, 61, 0
4, 371872, Note_on_c, 5, 57, 60
4, 371904, Note_off_c, 5, 57, 0
4, 371904, Note_on_c, 5, 56, 55
4, 371936, Note_off_c, 5, 56, 0
4, 371936, Note_on_c, 5, 54, 60
4, 371968, Note_off_c, 5, 54, 0
4, 371968, Note_on_c, 5, 51, 60
4, 371998, Note_off_c, 5, 51, 0
4, 372736, Note_on_c, 5, 80, 57
4, 372778, Note_off_c, 5, 80, 0
4, 372778, Note_on_c, 5, 76, 51
4, 372787, Note_on_c, 5, 80, 53
4, 372821, Note_off_c, 5, 76, 0
4, 372821, Note_on_c, 5, 75, 55
4, 372838, Note_on_c, 5, 76, 42
4, 372839, Note_off_c, 5, 80, 0
4, 372864, Note_off_c, 5, 75, 0
4, 372864, Note_on_c, 5, 73, 55
4, 372889, Note_on_c, 5, 75, 54
4, 372890, Note_off_c, 5, 76, 0
4, 372906, Note_off_c, 5, 73, 0
4, 372906, Note_on_c, 5, 69, 53
4, 372940, Note_on_c, 5, 73, 54
4, 372941, Note_off_c, 5, 75, 0
4, 372949, Note_off_c, 5, 69, 0
4, 372949, Note_on_c, 5, 68, 57
4, 372992, Note_off_c, 5, 68, 0
4, 372992, Note_on_c, 5, 63, 55
4, 372992, Note_on_c, 5, 69, 50
4, 372993, Note_off_c, 5, 73, 0
4, 373034, Note_off_c, 5, 63, 0
4, 373034, Note_on_c, 5, 57, 54
4, 373056, Note_on_c, 5, 68, 46
4, 373057, Note_off_c, 5, 69, 0
4, 373077, Note_off_c, 5, 57, 0
4, 373077, Note_on_c, 5, 56, 58
4, 373117, Note_off_c, 5, 56, 0
4, 373120, Note_on_c, 5, 63, 57
4, 373121, Note_off_c, 5, 68, 0
4, 373184, Note_on_c, 5, 57, 54
4, 373185, Note_off_c, 5, 63, 0
4, 373244, Note_off_c, 5, 57, 0
4, 373888, Note_on_c, 5, 51, 50
4, 373930, Note_off_c, 5, 51, 0
4, 373930, Note_on_c, 5, 54, 65
4, 373973, Note_off_c, 5, 54, 0
4, 373973, Note_on_c, 5, 56, 66
4, 374016, Note_off_c, 5, 56, 0
4, 374016, Note_on_c, 5, 57, 60
4, 374058, Note_off_c, 5, 57, 0
4, 374058, Note_on_c, 5, 61, 67
4, 374098, Note_off_c, 5, 61, 0
4, 374144, Note_on_c, 5, 63, 52
4, 374186, Note_off_c, 5, 63, 0
4, 374186, Note_on_c, 5, 66, 65
4, 374229, Note_off_c, 5, 66, 0
4, 374229, Note_on_c, 5, 68, 64
4, 374272, Note_off_c, 5, 68, 0
4, 374272, Note_on_c, 5, 61, 54
4, 374272, Note_on_c, 5, 69, 61
4, 374314, Note_off_c, 5, 61, 0
4, 374314, Note_on_c, 5, 63, 64
4, 374336, Note_on_c, 5, 73, 69
4, 374337, Note_off_c, 5, 69, 0
4, 374357, Note_off_c, 5, 63, 0
4, 374357, Note_on_c, 5, 64, 65
4, 374400, Note_off_c, 5, 64, 0
4, 374400, Note_on_c, 5, 66, 62
4, 374400, Note_on_c, 5, 78, 66
4, 374401, Note_off_c, 5, 73, 0
4, 374442, Note_off_c, 5, 66, 0
4, 374442, Note_on_c, 5, 68, 63
4, 374464, Note_on_c, 5, 81, 74
4, 374465, Note_off_c, 5, 78, 0
4, 374485, Note_off_c, 5, 68, 0
4, 374485, Note_on_c, 5, 69, 63
4, 374524, Note_off_c, 5, 81, 0
4, 374528, Note_off_c, 5, 69, 0
4, 374528, Note_on_c, 5, 71, 68
4, 374570, Note_off_c, 5, 71, 0
4, 374570, Note_on_c, 5, 73, 67
4, 374613, Note_off_c, 5, 73, 0
4, 374613, Note_on_c, 5, 75, 66
4, 374656, Note_off_c, 5, 75, 0
4, 374656, Note_on_c, 5, 76, 63
4, 374698, Note_off_c, 5, 76, 0
4, 374698, Note_on_c, 5, 78, 67
4, 374741, Note_off_c, 5, 78, 0
4, 374741, Note_on_c, 5, 80, 64
4, 374784, Note_off_c, 5, 80, 0
4, 374784, Note_on_c, 5, 84, 68
4, 374826, Note_off_c, 5, 84, 0
4, 374826, Note_on_c, 5, 85, 65
4, 374866, Note_off_c, 5, 85, 0
4, 375040, Note_on_c, 5, 60, 55
4, 375091, Note_on_c, 5, 61, 54
4, 375092, Note_off_c, 5, 60, 0
4, 375142, Note_on_c, 5, 64, 67
4, 375143, Note_off_c, 5, 61, 0
4, 375193, Note_on_c, 5, 65, 68
4, 375194, Note_off_c, 5, 64, 0
4, 375244, Note_on_c, 5, 69, 68
4, 375245, Note_off_c, 5, 65, 0
4, 375296, Note_on_c, 5, 72, 76
4, 375297, Note_off_c, 5, 69, 0
4, 375347, Note_on_c, 5, 73, 61
4, 375348, Note_off_c, 5, 72, 0
4, 375398, Note_on_c, 5, 76, 66
4, 375399, Note_off_c, 5, 73, 0
4, 375449, Note_on_c, 5, 77, 63
4, 375450, Note_off_c, 5, 76, 0
4, 375497, Note_off_c, 5, 77, 0
4, 376576, Note_on_c, 5, 64, 55
4, 376618, Note_off_c, 5, 64, 0
4, 376618, Note_on_c, 5, 65, 61
4, 376661, Note_off_c, 5, 65, 0
4, 376661, Note_on_c, 5, 67, 63
4, 376704, Note_off_c, 5, 67, 0
4, 376704, Note_on_c, 5, 69, 71
4, 376746, Note_off_c, 5, 69, 0
4, 376746, Note_on_c, 5, 73, 65
4, 376789, Note_off_c, 5, 73, 0
4, 376789, Note_on_c, 5, 79, 69
4, 376832, Note_off_c, 5, 79, 0
4, 376832, Note_on_c, 5, 76, 61
4, 376874, Note_off_c, 5, 76, 0
4, 376874, Note_on_c, 5, 77, 64
4, 376917, Note_off_c, 5, 77, 0
4, 376917, Note_on_c, 5, 79, 69
4, 376960, Note_off_c, 5, 79, 0
4, 376960, Note_on_c, 5, 81, 61
4, 376999, Note_off_c, 5, 81, 0
4, 393728, Note_on_c, 5, 76, 77
4, 393792, Note_off_c, 5, 76, 0
4, 393856, Note_on_c, 5, 75, 80
4, 393920, Note_off_c, 5, 75, 0
4, 393984, Note_on_c, 5, 75, 82
4, 394048, Note_off_c, 5, 75, 0
4, 394112, Note_on_c, 5, 76, 83
4, 394176, Note_off_c, 5, 76, 0
4, 394240, Note_on_c, 5, 75, 84
4, 394304, Note_off_c, 5, 75, 0
4, 394368, Note_on_c, 5, 75, 82
4, 394432, Note_off_c, 5, 75, 0
4, 394496, Note_on_c, 5, 76, 92
4, 394560, Note_off_c, 5, 76, 0
4, 394624, Note_on_c, 5, 75, 85
4, 394688, Note_off_c, 5, 75, 0
4, 394752, Note_on_c, 5, 75, 88
4, 394816, Note_off_c, 5, 75, 0
4, 394880, Note_on_c, 5, 76, 87
4, 394944, Note_off_c, 5, 76, 0
4, 395264, Note_on_c, 5, 75, 76
4, 395328, Note_off_c, 5, 75, 0
4, 395392, Note_on_c, 5, 75, 85
4, 395456, Note_off_c, 5, 75, 0
4, 395520, Note_on_c, 5, 76, 85
4, 395584, Note_off_c, 5, 76, 0
4, 395648, Note_on_c, 5, 75, 76
4, 395712, Note_off_c, 5, 75, 0
4, 395904, Note_on_c, 5, 76, 72
4, 395968, Note_off_c, 5, 76, 0
4, 396032, Note_on_c, 5, 75, 80
4, 396096, Note_off_c, 5, 75, 0
4, 396288, Note_on_c, 5, 76, 76
4, 396352, Note_off_c, 5, 76, 0
4, 396416, Note_on_c, 5, 75, 84
4, 396480, Note_off_c, 5, 75, 0
4, 396672, Note_on_c, 5, 76, 67
4, 396736, Note_off_c, 5, 76, 0
4, 397184, Note_on_c, 5, 75, 72
4, 397248, Note_off_c, 5, 75, 0
4, 397312, Note_on_c, 5, 75, 86
4, 397376, Note_off_c, 5, 75, 0
4, 397440, Note_on_c, 5, 76, 86
4, 397504, Note_off_c, 5, 76, 0
4, 397568, Note_on_c, 5, 75, 81
4, 397632, Note_off_c, 5, 75, 0
4, 397824, Note_on_c, 5, 76, 76
4, 397888, Note_off_c, 5, 76, 0
4, 397952, Note_on_c, 5, 75, 75
4, 398016, Note_off_c, 5, 75, 0
4, 398208, Note_on_c, 5, 76, 81
4, 398272, Note_off_c, 5, 76, 0
4, 398336, Note_on_c, 5, 75, 87
4, 398400, Note_off_c, 5, 75, 0
4, 398592, Note_on_c, 5, 76, 86
4, 398656, Note_off_c, 5, 76, 0
4, 405760, Note_on_c, 5, 54, 78
4, 405824, Note_on_c, 5, 57, 87
4, 405824, Note_on_c, 5, 52, 70
4, 405825, Note_off_c, 5, 54, 0
4, 405888, Note_on_c, 5, 63, 101
4, 405888, Note_on_c, 5, 58, 85
4, 405889, Note_off_c, 5, 57, 0
4, 405889, Note_off_c, 5, 52, 0
4, 405952, Note_on_c, 5, 64, 89
4, 405952, Note_on_c, 5, 60, 92
4, 405953, Note_off_c, 5, 63, 0
4, 405953, Note_off_c, 5, 58, 0
4, 406016, Note_on_c, 5, 66, 98
4, 406016, Note_on_c, 5, 61, 94
4, 406017, Note_off_c, 5, 64, 0
4, 406017, Note_off_c, 5, 60, 0
4, 406080, Note_on_c, 5, 69, 98
4, 406080, Note_on_c, 5, 64, 96
4, 406081, Note_off_c, 5, 66, 0
4, 406081, Note_off_c, 5, 61, 0
4, 406144, Note_on_c, 5, 73, 99
4, 406144, Note_on_c, 5, 69, 104
4, 406145, Note_off_c, 5, 69, 0
4, 406145, Note_off_c, 5, 64, 0
4, 406208, Note_on_c, 5, 75, 103
4, 406208, Note_on_c, 5, 70, 103
4, 406209, Note_off_c, 5, 73, 0
4, 406209, Note_off_c, 5, 69, 0
4, 406272, Note_on_c, 5, 78, 105
4, 406272, Note_on_c, 5, 73, 104
4, 406273, Note_off_c, 5, 75, 0
4, 406273, Note_off_c, 5, 70, 0
4, 406336, Note_on_c, 5, 81, 100
4, 406336, Note_on_c, 5, 76, 103
4, 406337, Note_off_c, 5, 78, 0
4, 406337, Note_off_c, 5, 73, 0
4, 406400, Note_on_c, 5, 84, 109
4, 406400, Note_on_c, 5, 79, 110
4, 406401, Note_off_c, 5, 81, 0
4, 406401, Note_off_c, 5, 76, 0
4, 406464, Note_on_c, 5, 81, 106
4, 406464, Note_on_c, 5, 76, 101
4, 406465, Note_off_c, 5, 84, 0
4, 406465, Note_off_c, 5, 79, 0
4, 406528, Note_on_c, 5, 78, 85
4, 406528, Note_on_c, 5, 73, 89
4, 406529, Note_off_c, 5, 81, 0
4, 406529, Note_off_c, 5, 76, 0
4, 406592, Note_on_c, 5, 75, 73
4, 406592, Note_on_c, 5, 69, 76
4, 406593, Note_off_c, 5, 78, 0
4, 406593, Note_off_c, 5, 73, 0
4, 406656, Note_on_c, 5, 69, 80
4, 406656, Note_on_c, 5, 64, 82
4, 406657, Note_off_c, 5, 75, 0
4, 406657, Note_off_c, 5, 69, 0
4, 406720, Note_on_c, 5, 64, 78
4, 406720, Note_on_c, 5, 60, 82
4, 406721, Note_off_c, 5, 69, 0
4, 406721, Note_off_c, 5, 64, 0
4, 406784, Note_on_c, 5, 61, 82
4, 406784, Note_on_c, 5, 57, 84
4, 406785, Note_off_c, 5, 64, 0
4, 406785, Note_off_c, 5, 60, 0
4, 406848, Note_on_c, 5, 58, 80
4, 406848, Note_on_c, 5, 54, 79
4, 406849, Note_off_c, 5, 61, 0
4, 406849, Note_off_c, 5, 57, 0
4, 406908, Note_off_c, 5, 54, 0
4, 406912, Note_on_c, 5, 54, 82
4, 406913, Note_off_c, 5, 58, 0
4, 406976, Note_on_c, 5, 51, 83
4, 406977, Note_off_c, 5, 54, 0
4, 407036, Note_off_c, 5, 51, 0
4, 408832, Note_on_c, 5, 54, 79
4, 408896, Note_on_c, 5, 57, 89
4, 408896, Note_on_c, 5, 52, 77
4, 408897, Note_off_c, 5, 54, 0
4, 408960, Note_on_c, 5, 63, 99
4, 408960, Note_on_c, 5, 58, 89
4, 408961, Note_off_c, 5, 57, 0
4, 408961, Note_off_c, 5, 52, 0
4, 409024, Note_on_c, 5, 64, 88
4, 409024, Note_on_c, 5, 60, 94
4, 409025, Note_off_c, 5, 63, 0
4, 409025, Note_off_c, 5, 58, 0
4, 409088, Note_on_c, 5, 66, 95
4, 409088, Note_on_c, 5, 61, 94
4, 409089, Note_off_c, 5, 64, 0
4, 409089, Note_off_c, 5, 60, 0
4, 409152, Note_on_c, 5, 69, 96
4, 409152, Note_on_c, 5, 64, 99
4, 409153, Note_off_c, 5, 66, 0
4, 409153, Note_off_c, 5, 61, 0
4, 409216, Note_on_c, 5, 73, 107
4, 409216, Note_on_c, 5, 69, 105
4, 409217, Note_off_c, 5, 69, 0
4, 409217, Note_off_c, 5, 64, 0
4, 409280, Note_on_c, 5, 75, 100
4, 409280, Note_on_c, 5, 70, 98
4, 409281, Note_off_c, 5, 73, 0
4, 409281, Note_off_c, 5, 69, 0
4, 409344, Note_on_c, 5, 78, 100
4, 409344, Note_on_c, 5, 73, 103
4, 409345, Note_off_c, 5, 75, 0
4, 409345, Note_off_c, 5, 70, 0
4, 409408, Note_on_c, 5, 81, 99
4, 409408, Note_on_c, 5, 76, 103
4, 409409, Note_off_c, 5, 78, 0
4, 409409, Note_off_c, 5, 73, 0
4, 409472, Note_on_c, 5, 84, 111
4, 409472, Note_on_c, 5, 79, 104
4, 409473, Note_off_c, 5, 81, 0
4, 409473, Note_off_c, 5, 76, 0
4, 409536, Note_on_c, 5, 81, 104
4, 409536, Note_on_c, 5, 76, 96
4, 409537, Note_off_c, 5, 84, 0
4, 409537, Note_off_c, 5, 79, 0
4, 409600, Note_on_c, 5, 78, 90
4, 409600, Note_on_c, 5, 73, 91
4, 409601, Note_off_c, 5, 81, 0
4, 409601, Note_off_c, 5, 76, 0
4, 409664, Note_on_c, 5, 75, 79
4, 409664, Note_on_c, 5, 69, 78
4, 409665, Note_off_c, 5, 78, 0
4, 409665, Note_off_c, 5, 73, 0
4, 409728, Note_on_c, 5, 69, 81
4, 409728, Note_on_c, 5, 64, 86
4, 409729, Note_off_c, 5, 75, 0
4, 409729, Note_off_c, 5, 69, 0
4, 409792, Note_on_c, 5, 64, 78
4, 409792, Note_on_c, 5, 60, 84
4, 409793, Note_off_c, 5, 69, 0
4, 409793, Note_off_c, 5, 64, 0
4, 409856, Note_on_c, 5, 61, 86
4, 409856, Note_on_c, 5, 57, 84
4, 409857, Note_off_c, 5, 64, 0
4, 409857, Note_off_c, 5, 60, 0
4, 409920, Note_on_c, 5, 58, 80
4, 409920, Note_on_c, 5, 54, 78
4, 409921, Note_off_c, 5, 61, 0
4, 409921, Note_off_c, 5, 57, 0
4, 409980, Note_off_c, 5, 54, 0
4, 409984, Note_on_c, 5, 54, 87
4, 409985, Note_off_c, 5, 58, 0
4, 410048, Note_on_c, 5, 51, 81
4, 410049, Note_off_c, 5, 54, 0
4, 410108, Note_off_c, 5, 51, 0
4, 410880, Note_on_c, 5, 55, 91
4, 410880, Note_on_c, 5, 52, 86
4, 410944, Note_on_c, 5, 58, 97
4, 410944, Note_on_c, 5, 55, 88
4, 410945, Note_off_c, 5, 55, 0
4, 410945, Note_off_c, 5, 52, 0
4, 411008, Note_on_c, 5, 64, 115
4, 411008, Note_on_c, 5, 59, 106
4, 411009, Note_off_c, 5, 58, 0
4, 411009, Note_off_c, 5, 55, 0
4, 411072, Note_on_c, 5, 65, 124
4, 411072, Note_on_c, 5, 61, 114
4, 411073, Note_off_c, 5, 64, 0
4, 411073, Note_off_c, 5, 59, 0
4, 411136, Note_on_c, 5, 67, 101
4, 411136, Note_on_c, 5, 64, 113
4, 411137, Note_off_c, 5, 65, 0
4, 411137, Note_off_c, 5, 61, 0
4, 411200, Note_on_c, 5, 70, 114
4, 411200, Note_on_c, 5, 67, 126
4, 411201, Note_off_c, 5, 67, 0
4, 411201, Note_off_c, 5, 64, 0
4, 411264, Note_on_c, 5, 73, 105
4, 411264, Note_on_c, 5, 70, 108
4, 411265, Note_off_c, 5, 70, 0
4, 411265, Note_off_c, 5, 67, 0
4, 411328, Note_on_c, 5, 76, 113
4, 411328, Note_on_c, 5, 71, 112
4, 411329, Note_off_c, 5, 73, 0
4, 411329, Note_off_c, 5, 70, 0
4, 411392, Note_on_c, 5, 79, 110
4, 411392, Note_on_c, 5, 76, 109
4, 411393, Note_off_c, 5, 76, 0
4, 411393, Note_off_c, 5, 71, 0
4, 411456, Note_on_c, 5, 82, 125
4, 411456, Note_on_c, 5, 79, 119
4, 411457, Note_off_c, 5, 79, 0
4, 411457, Note_off_c, 5, 76, 0
4, 411520, Note_on_c, 5, 83, 107
4, 411520, Note_on_c, 5, 80, 107
4, 411521, Note_off_c, 5, 82, 0
4, 411521, Note_off_c, 5, 79, 0
4, 411580, Note_off_c, 5, 83, 0
4, 411580, Note_off_c, 5, 80, 0
4, 412736, Note_on_c, 5, 69, 91
4, 412736, Note_on_c, 5, 66, 90
4, 412800, Note_on_c, 5, 73, 101
4, 412800, Note_on_c, 5, 69, 97
4, 412801, Note_off_c, 5, 69, 0
4, 412801, Note_off_c, 5, 66, 0
4, 412864, Note_on_c, 5, 78, 111
4, 412864, Note_on_c, 5, 76, 112
4, 412865, Note_off_c, 5, 73, 0
4, 412865, Note_off_c, 5, 69, 0
4, 412928, Note_on_c, 5, 81, 122
4, 412928, Note_on_c, 5, 78, 127
4, 412929, Note_off_c, 5, 78, 0
4, 412929, Note_off_c, 5, 76, 0
4, 412992, Note_on_c, 5, 88, 118
4, 412992, Note_on_c, 5, 82, 112
4, 412993, Note_off_c, 5, 81, 0
4, 412993, Note_off_c, 5, 78, 0
4, 413052, Note_off_c, 5, 88, 0
4, 413052, Note_off_c, 5, 82, 0
4, 414784, Note_on_c, 5, 63, 87
4, 414805, Note_on_c, 5, 58, 89
4, 414848, Note_on_c, 5, 68, 93
4, 414849, Note_off_c, 5, 63, 0
4, 414890, Note_on_c, 5, 64, 99
4, 414891, Note_off_c, 5, 58, 0
4, 414912, Note_on_c, 5, 69, 107
4, 414913, Note_off_c, 5, 68, 0
4, 414976, Note_on_c, 5, 73, 125
4, 414976, Note_on_c, 5, 69, 115
4, 414977, Note_off_c, 5, 69, 0
4, 414977, Note_off_c, 5, 64, 0
4, 415040, Note_on_c, 5, 78, 114
4, 415041, Note_off_c, 5, 73, 0
4, 415061, Note_on_c, 5, 73, 127
4, 415062, Note_off_c, 5, 69, 0
4, 415104, Note_on_c, 5, 75, 102
4, 415105, Note_off_c, 5, 78, 0
4, 415141, Note_off_c, 5, 73, 0
4, 415168, Note_on_c, 5, 69, 81
4, 415169, Note_off_c, 5, 75, 0
4, 415232, Note_on_c, 5, 70, 82
4, 415232, Note_on_c, 5, 66, 89
4, 415233, Note_off_c, 5, 69, 0
4, 415296, Note_on_c, 5, 75, 112
4, 415297, Note_off_c, 5, 70, 0
4, 415317, Note_on_c, 5, 73, 104
4, 415318, Note_off_c, 5, 66, 0
4, 415360, Note_on_c, 5, 78, 123
4, 415361, Note_off_c, 5, 75, 0
4, 415402, Note_on_c, 5, 75, 110
4, 415403, Note_off_c, 5, 73, 0
4, 415424, Note_on_c, 5, 80, 106
4, 415425, Note_off_c, 5, 78, 0
4, 415488, Note_on_c, 5, 81, 111
4, 415488, Note_on_c, 5, 76, 116
4, 415489, Note_off_c, 5, 80, 0
4, 415489, Note_off_c, 5, 75, 0
4, 415552, Note_on_c, 5, 75, 84
4, 415553, Note_off_c, 5, 81, 0
4, 415573, Note_on_c, 5, 73, 91
4, 415574, Note_off_c, 5, 76, 0
4, 415616, Note_on_c, 5, 78, 90
4, 415617, Note_off_c, 5, 75, 0
4, 415658, Note_on_c, 5, 75, 100
4, 415659, Note_off_c, 5, 73, 0
4, 415680, Note_on_c, 5, 80, 109
4, 415681, Note_off_c, 5, 78, 0
4, 415744, Note_on_c, 5, 81, 114
4, 415744, Note_on_c, 5, 76, 102
4, 415745, Note_off_c, 5, 80, 0
4, 415745, Note_off_c, 5, 75, 0
4, 415808, Note_on_c, 5, 85, 107
4, 415809, Note_off_c, 5, 81, 0
4, 415829, Note_on_c, 5, 82, 120
4, 415830, Note_off_c, 5, 76, 0
4, 415872, Note_on_c, 5, 86, 114
4, 415873, Note_off_c, 5, 85, 0
4, 415909, Note_off_c, 5, 82, 0
4, 415932, Note_off_c, 5, 86, 0
4, 416768, Note_on_c, 5, 87, 88
4, 416768, Note_on_c, 5, 82, 83
4, 416832, Note_on_c, 5, 85, 78
4, 416833, Note_off_c, 5, 87, 0
4, 416853, Note_on_c, 5, 76, 72
4, 416854, Note_off_c, 5, 82, 0
4, 416896, Note_on_c, 5, 81, 88
4, 416897, Note_off_c, 5, 85, 0
4, 416938, Note_on_c, 5, 75, 94
4, 416939, Note_off_c, 5, 76, 0
4, 416960, Note_on_c, 5, 80, 83
4, 416961, Note_off_c, 5, 81, 0
4, 417024, Note_on_c, 5, 78, 91
4, 417024, Note_on_c, 5, 73, 85
4, 417025, Note_off_c, 5, 80, 0
4, 417025, Note_off_c, 5, 75, 0
4, 417088, Note_on_c, 5, 75, 82
4, 417089, Note_off_c, 5, 78, 0
4, 417109, Note_on_c, 5, 76, 109
4, 417110, Note_off_c, 5, 73, 0
4, 417152, Note_on_c, 5, 81, 115
4, 417153, Note_off_c, 5, 75, 0
4, 417194, Note_on_c, 5, 75, 104
4, 417195, Note_off_c, 5, 76, 0
4, 417216, Note_on_c, 5, 80, 112
4, 417217, Note_off_c, 5, 81, 0
4, 417280, Note_on_c, 5, 78, 94
4, 417280, Note_on_c, 5, 73, 88
4, 417281, Note_off_c, 5, 80, 0
4, 417281, Note_off_c, 5, 75, 0
4, 417344, Note_on_c, 5, 75, 85
4, 417345, Note_off_c, 5, 78, 0
4, 417365, Note_on_c, 5, 66, 71
4, 417366, Note_off_c, 5, 73, 0
4, 417408, Note_on_c, 5, 70, 82
4, 417409, Note_off_c, 5, 75, 0
4, 417450, Note_on_c, 5, 73, 117
4, 417451, Note_off_c, 5, 66, 0
4, 417472, Note_on_c, 5, 69, 79
4, 417473, Note_off_c, 5, 70, 0
4, 417536, Note_on_c, 5, 75, 110
4, 417536, Note_on_c, 5, 69, 109
4, 417537, Note_off_c, 5, 69, 0
4, 417537, Note_off_c, 5, 73, 0
4, 417600, Note_on_c, 5, 78, 120
4, 417601, Note_off_c, 5, 75, 0
4, 417621, Note_on_c, 5, 64, 83
4, 417622, Note_off_c, 5, 69, 0
4, 417664, Note_on_c, 5, 85, 119
4, 417665, Note_off_c, 5, 78, 0
4, 417706, Note_on_c, 5, 58, 76
4, 417707, Note_off_c, 5, 64, 0
4, 417728, Note_on_c, 5, 81, 111
4, 417729, Note_off_c, 5, 85, 0
4, 417787, Note_off_c, 5, 58, 0
4, 417792, Note_on_c, 5, 68, 72
4, 417793, Note_off_c, 5, 81, 0
4, 417856, Note_on_c, 5, 69, 72
4, 417857, Note_off_c, 5, 68, 0
4, 417916, Note_off_c, 5, 69, 0
4, 418432, Note_on_c, 5, 70, 86
4, 418496, Note_on_c, 5, 71, 91
4, 418497, Note_off_c, 5, 70, 0
4, 418560, Note_on_c, 5, 73, 103
4, 418561, Note_off_c, 5, 71, 0
4, 418624, Note_on_c, 5, 74, 111
4, 418625, Note_off_c, 5, 73, 0
4, 418688, Note_on_c, 5, 76, 105
4, 418689, Note_off_c, 5, 74, 0
4, 418752, Note_on_c, 5, 77, 113
4, 418753, Note_off_c, 5, 76, 0
4, 418816, Note_on_c, 5, 79, 106
4, 418817, Note_off_c, 5, 77, 0
4, 418880, Note_on_c, 5, 81, 116
4, 418881, Note_off_c, 5, 79, 0
4, 418944, Note_on_c, 5, 78, 88
4, 418945, Note_off_c, 5, 81, 0
4, 419008, Note_on_c, 5, 80, 92
4, 419009, Note_off_c, 5, 78, 0
4, 419072, Note_on_c, 5, 81, 103
4, 419073, Note_off_c, 5, 80, 0
4, 419136, Note_on_c, 5, 83, 111
4, 419137, Note_off_c, 5, 81, 0
4, 419200, Note_on_c, 5, 85, 105
4, 419201, Note_off_c, 5, 83, 0
4, 419264, Note_on_c, 5, 82, 100
4, 419265, Note_off_c, 5, 85, 0
4, 419328, Note_on_c, 5, 83, 100
4, 419329, Note_off_c, 5, 82, 0
4, 419392, Note_on_c, 5, 85, 107
4, 419393, Note_off_c, 5, 83, 0
4, 419456, Note_on_c, 5, 86, 101
4, 419457, Note_off_c, 5, 85, 0
4, 419520, Note_on_c, 5, 88, 108
4, 419521, Note_off_c, 5, 86, 0
4, 419580, Note_off_c, 5, 88, 0
4, 419648, Note_on_c, 5, 78, 89
4, 419648, Note_on_c, 5, 90, 89
4, 419712, Note_on_c, 5, 87, 80
4, 419713, Note_off_c, 5, 78, 0
4, 419713, Note_off_c, 5, 90, 0
4, 419776, Note_on_c, 5, 85, 92
4, 419777, Note_off_c, 5, 87, 0
4, 419840, Note_on_c, 5, 84, 85
4, 419841, Note_off_c, 5, 85, 0
4, 419904, Note_on_c, 5, 82, 96
4, 419905, Note_off_c, 5, 84, 0
4, 419968, Note_on_c, 5, 81, 91
4, 419969, Note_off_c, 5, 82, 0
4, 420032, Note_on_c, 5, 79, 86
4, 420033, Note_off_c, 5, 81, 0
4, 420096, Note_on_c, 5, 78, 80
4, 420097, Note_off_c, 5, 79, 0
4, 420160, Note_on_c, 5, 76, 95
4, 420161, Note_off_c, 5, 78, 0
4, 420224, Note_on_c, 5, 75, 97
4, 420225, Note_off_c, 5, 76, 0
4, 420288, Note_on_c, 5, 73, 92
4, 420289, Note_off_c, 5, 75, 0
4, 420352, Note_on_c, 5, 76, 98
4, 420353, Note_off_c, 5, 73, 0
4, 420416, Note_on_c, 5, 72, 88
4, 420417, Note_off_c, 5, 76, 0
4, 420480, Note_on_c, 5, 69, 82
4, 420481, Note_off_c, 5, 72, 0
4, 420544, Note_on_c, 5, 67, 92
4, 420545, Note_off_c, 5, 69, 0
4, 420608, Note_on_c, 5, 66, 84
4, 420609, Note_off_c, 5, 67, 0
4, 420672, Note_on_c, 5, 70, 103
4, 420673, Note_off_c, 5, 66, 0
4, 420736, Note_on_c, 5, 64, 89
4, 420737, Note_off_c, 5, 70, 0
4, 420800, Note_on_c, 5, 61, 92
4, 420801, Note_off_c, 5, 64, 0
4, 420860, Note_off_c, 5, 61, 0
4, 424960, Note_on_c, 5, 60, 93
4, 425024, Note_on_c, 5, 64, 102
4, 425025, Note_off_c, 5, 60, 0
4, 425088, Note_on_c, 5, 66, 106
4, 425089, Note_off_c, 5, 64, 0
4, 425152, Note_on_c, 5, 67, 115
4, 425153, Note_off_c, 5, 66, 0
4, 425216, Note_on_c, 5, 71, 111
4, 425217, Note_off_c, 5, 67, 0
4, 425280, Note_on_c, 5, 72, 120
4, 425281, Note_off_c, 5, 71, 0
4, 425344, Note_on_c, 5, 76, 109
4, 425345, Note_off_c, 5, 72, 0
4, 425404, Note_off_c, 5, 76, 0
4, 425600, Note_on_c, 5, 61, 89
4, 425664, Note_on_c, 5, 62, 94
4, 425665, Note_off_c, 5, 61, 0
4, 425728, Note_on_c, 5, 66, 112
4, 425729, Note_off_c, 5, 62, 0
4, 425792, Note_on_c, 5, 69, 123
4, 425793, Note_off_c, 5, 66, 0
4, 425856, Note_on_c, 5, 66, 93
4, 425857, Note_off_c, 5, 69, 0
4, 425920, Note_on_c, 5, 73, 114
4, 425921, Note_off_c, 5, 66, 0
4, 425984, Note_on_c, 5, 74, 111
4, 425985, Note_off_c, 5, 73, 0
4, 426048, Note_on_c, 5, 66, 91
4, 426049, Note_off_c, 5, 74, 0
4, 426112, Note_on_c, 5, 71, 110
4, 426113, Note_off_c, 5, 66, 0
4, 426176, Note_on_c, 5, 69, 105
4, 426177, Note_off_c, 5, 71, 0
4, 426240, Note_on_c, 5, 66, 90
4, 426241, Note_off_c, 5, 69, 0
4, 426304, Note_on_c, 5, 73, 103
4, 426305, Note_off_c, 5, 66, 0
4, 426368, Note_on_c, 5, 76, 108
4, 426369, Note_off_c, 5, 73, 0
4, 426432, Note_on_c, 5, 74, 108
4, 426433, Note_off_c, 5, 76, 0
4, 426496, Note_on_c, 5, 80, 107
4, 426497, Note_off_c, 5, 74, 0
4, 426560, Note_on_c, 5, 78, 105
4, 426561, Note_off_c, 5, 80, 0
4, 426624, Note_on_c, 5, 61, 74
4, 426625, Note_off_c, 5, 78, 0
4, 426688, Note_on_c, 5, 59, 67
4, 426689, Note_off_c, 5, 61, 0
4, 426752, Note_on_c, 5, 62, 103
4, 426753, Note_off_c, 5, 59, 0
4, 426816, Note_on_c, 5, 69, 121
4, 426817, Note_off_c, 5, 62, 0
4, 426880, Note_on_c, 5, 71, 109
4, 426881, Note_off_c, 5, 69, 0
4, 426944, Note_on_c, 5, 74, 118
4, 426945, Note_off_c, 5, 71, 0
4, 427008, Note_on_c, 5, 78, 112
4, 427009, Note_off_c, 5, 74, 0
4, 427072, Note_on_c, 5, 81, 121
4, 427073, Note_off_c, 5, 78, 0
4, 427136, Note_on_c, 5, 84, 107
4, 427137, Note_off_c, 5, 81, 0
4, 427196, Note_off_c, 5, 84, 0
4, 427328, Note_on_c, 5, 60, 89
4, 427392, Note_on_c, 5, 62, 93
4, 427393, Note_off_c, 5, 60, 0
4, 427456, Note_on_c, 5, 66, 108
4, 427457, Note_off_c, 5, 62, 0
4, 427520, Note_on_c, 5, 71, 124
4, 427521, Note_off_c, 5, 66, 0
4, 427584, Note_on_c, 5, 69, 91
4, 427585, Note_off_c, 5, 71, 0
4, 427648, Note_on_c, 5, 73, 99
4, 427649, Note_off_c, 5, 69, 0
4, 427712, Note_on_c, 5, 71, 93
4, 427713, Note_off_c, 5, 73, 0
4, 427772, Note_off_c, 5, 71, 0
4, 427840, Note_on_c, 5, 78, 87
4, 427904, Note_on_c, 5, 73, 77
4, 427905, Note_off_c, 5, 78, 0
4, 427968, Note_on_c, 5, 74, 101
4, 427969, Note_off_c, 5, 73, 0
4, 428028, Note_off_c, 5, 74, 0
4, 428096, Note_on_c, 5, 81, 85
4, 428160, Note_on_c, 5, 78, 75
4, 428161, Note_off_c, 5, 81, 0
4, 428224, Note_on_c, 5, 73, 79
4, 428225, Note_off_c, 5, 78, 0
4, 428284, Note_off_c, 5, 73, 0
4, 428352, Note_on_c, 5, 59, 88
4, 428416, Note_on_c, 5, 62, 93
4, 428417, Note_off_c, 5, 59, 0
4, 428480, Note_on_c, 5, 66, 111
4, 428481, Note_off_c, 5, 62, 0
4, 428544, Note_on_c, 5, 64, 106
4, 428545, Note_off_c, 5, 66, 0
4, 428608, Note_on_c, 5, 66, 100
4, 428609, Note_off_c, 5, 64, 0
4, 428672, Note_on_c, 5, 69, 109
4, 428673, Note_off_c, 5, 66, 0
4, 428736, Note_on_c, 5, 71, 107
4, 428737, Note_off_c, 5, 69, 0
4, 428800, Note_on_c, 5, 70, 103
4, 428801, Note_off_c, 5, 71, 0
4, 428864, Note_on_c, 5, 73, 106
4, 428865, Note_off_c, 5, 70, 0
4, 428928, Note_on_c, 5, 78, 115
4, 428929, Note_off_c, 5, 73, 0
4, 428992, Note_on_c, 5, 81, 109
4, 428993, Note_off_c, 5, 78, 0
4, 429056, Note_on_c, 5, 73, 87
4, 429057, Note_off_c, 5, 81, 0
4, 429120, Note_on_c, 5, 71, 85
4, 429121, Note_off_c, 5, 73, 0
4, 429184, Note_on_c, 5, 73, 89
4, 429185, Note_off_c, 5, 71, 0
4, 429248, Note_on_c, 5, 75, 104
4, 429249, Note_off_c, 5, 73, 0
4, 429308, Note_off_c, 5, 75, 0
4, 429376, Note_on_c, 5, 66, 87
4, 429440, Note_on_c, 5, 69, 96
4, 429441, Note_off_c, 5, 66, 0
4, 429504, Note_on_c, 5, 59, 91
4, 429505, Note_off_c, 5, 69, 0
4, 429568, Note_on_c, 5, 61, 98
4, 429569, Note_off_c, 5, 59, 0
4, 429632, Note_on_c, 5, 69, 116
4, 429633, Note_off_c, 5, 61, 0
4, 429696, Note_on_c, 5, 73, 127
4, 429697, Note_off_c, 5, 69, 0
4, 429760, Note_on_c, 5, 76, 107
4, 429761, Note_off_c, 5, 73, 0
4, 429824, Note_on_c, 5, 78, 116
4, 429825, Note_off_c, 5, 76, 0
4, 429888, Note_on_c, 5, 66, 73
4, 429889, Note_off_c, 5, 78, 0
4, 429952, Note_on_c, 5, 69, 76
4, 429953, Note_off_c, 5, 66, 0
4, 430016, Note_on_c, 5, 71, 104
4, 430017, Note_off_c, 5, 69, 0
4, 430080, Note_on_c, 5, 76, 119
4, 430081, Note_off_c, 5, 71, 0
4, 430144, Note_on_c, 5, 71, 85
4, 430145, Note_off_c, 5, 76, 0
4, 430208, Note_on_c, 5, 66, 75
4, 430209, Note_off_c, 5, 71, 0
4, 430272, Note_on_c, 5, 74, 114
4, 430273, Note_off_c, 5, 66, 0
4, 430336, Note_on_c, 5, 78, 127
4, 430337, Note_off_c, 5, 74, 0
4, 430396, Note_off_c, 5, 78, 0
4, 430592, Note_on_c, 5, 59, 92
4, 430656, Note_on_c, 5, 61, 94
4, 430657, Note_off_c, 5, 59, 0
4, 430720, Note_on_c, 5, 66, 110
4, 430721, Note_off_c, 5, 61, 0
4, 430784, Note_on_c, 5, 70, 126
4, 430785, Note_off_c, 5, 66, 0
4, 430848, Note_on_c, 5, 71, 103
4, 430849, Note_off_c, 5, 70, 0
4, 430912, Note_on_c, 5, 74, 115
4, 430913, Note_off_c, 5, 71, 0
4, 430976, Note_on_c, 5, 78, 110
4, 430977, Note_off_c, 5, 74, 0
4, 431040, Note_on_c, 5, 81, 119
4, 431041, Note_off_c, 5, 78, 0
4, 431104, Note_on_c, 5, 65, 72
4, 431105, Note_off_c, 5, 81, 0
4, 431168, Note_on_c, 5, 69, 76
4, 431169, Note_off_c, 5, 65, 0
4, 431232, Note_on_c, 5, 72, 107
4, 431233, Note_off_c, 5, 69, 0
4, 431296, Note_on_c, 5, 74, 114
4, 431297, Note_off_c, 5, 72, 0
4, 431360, Note_on_c, 5, 78, 109
4, 431361, Note_off_c, 5, 74, 0
4, 431424, Note_on_c, 5, 69, 88
4, 431425, Note_off_c, 5, 78, 0
4, 431488, Note_on_c, 5, 72, 102
4, 431489, Note_off_c, 5, 69, 0
4, 431552, Note_on_c, 5, 74, 109
4, 431553, Note_off_c, 5, 72, 0
4, 431616, Note_on_c, 5, 73, 94
4, 431617, Note_off_c, 5, 74, 0
4, 431676, Note_off_c, 5, 73, 0
4, 431936, Note_on_c, 5, 54, 85
4, 432000, Note_on_c, 5, 57, 87
4, 432001, Note_off_c, 5, 54, 0
4, 432064, Note_on_c, 5, 59, 104
4, 432065, Note_off_c, 5, 57, 0
4, 432128, Note_on_c, 5, 61, 111
4, 432129, Note_off_c, 5, 59, 0
4, 432192, Note_on_c, 5, 66, 110
4, 432193, Note_off_c, 5, 61, 0
4, 432256, Note_on_c, 5, 71, 127
4, 432257, Note_off_c, 5, 66, 0
4, 432320, Note_on_c, 5, 74, 107
4, 432321, Note_off_c, 5, 71, 0
4, 432384, Note_on_c, 5, 59, 94
4, 432385, Note_off_c, 5, 74, 0
4, 432448, Note_on_c, 5, 62, 102
4, 432449, Note_off_c, 5, 59, 0
4, 432512, Note_on_c, 5, 64, 107
4, 432513, Note_off_c, 5, 62, 0
4, 432576, Note_on_c, 5, 66, 104
4, 432577, Note_off_c, 5, 64, 0
4, 432640, Note_on_c, 5, 68, 116
4, 432641, Note_off_c, 5, 66, 0
4, 432704, Note_on_c, 5, 69, 100
4, 432705, Note_off_c, 5, 68, 0
4, 432768, Note_on_c, 5, 73, 114
4, 432769, Note_off_c, 5, 69, 0
4, 432832, Note_on_c, 5, 74, 104
4, 432833, Note_off_c, 5, 73, 0
4, 432896, Note_on_c, 5, 77, 113
4, 432897, Note_off_c, 5, 74, 0
4, 432960, Note_on_c, 5, 81, 110
4, 432961, Note_off_c, 5, 77, 0
4, 433024, Note_on_c, 5, 83, 118
4, 433025, Note_off_c, 5, 81, 0
4, 433084, Note_off_c, 5, 83, 0
4, 433216, Note_on_c, 5, 55, 85
4, 433280, Note_on_c, 5, 59, 87
4, 433281, Note_off_c, 5, 55, 0
4, 433344, Note_on_c, 5, 64, 116
4, 433345, Note_off_c, 5, 59, 0
4, 433408, Note_on_c, 5, 65, 127
4, 433409, Note_off_c, 5, 64, 0
4, 433472, Note_on_c, 5, 67, 103
4, 433473, Note_off_c, 5, 65, 0
4, 433536, Note_on_c, 5, 71, 116
4, 433537, Note_off_c, 5, 67, 0
4, 433600, Note_on_c, 5, 74, 110
4, 433601, Note_off_c, 5, 71, 0
4, 433664, Note_on_c, 5, 59, 96
4, 433665, Note_off_c, 5, 74, 0
4, 433728, Note_on_c, 5, 62, 101
4, 433729, Note_off_c, 5, 59, 0
4, 433792, Note_on_c, 5, 64, 107
4, 433793, Note_off_c, 5, 62, 0
4, 433856, Note_on_c, 5, 66, 104
4, 433857, Note_off_c, 5, 64, 0
4, 433920, Note_on_c, 5, 68, 109
4, 433921, Note_off_c, 5, 66, 0
4, 433984, Note_on_c, 5, 69, 99
4, 433985, Note_off_c, 5, 68, 0
4, 434048, Note_on_c, 5, 73, 111
4, 434049, Note_off_c, 5, 69, 0
4, 434112, Note_on_c, 5, 74, 105
4, 434113, Note_off_c, 5, 73, 0
4, 434176, Note_on_c, 5, 78, 118
4, 434177, Note_off_c, 5, 74, 0
4, 434240, Note_on_c, 5, 80, 110
4, 434241, Note_off_c, 5, 78, 0
4, 434304, Note_on_c, 5, 81, 112
4, 434305, Note_off_c, 5, 80, 0
4, 434368, Note_on_c, 5, 82, 101
4, 434369, Note_off_c, 5, 81, 0
4, 434432, Note_on_c, 5, 80, 92
4, 434433, Note_off_c, 5, 82, 0
4, 434496, Note_on_c, 5, 78, 88
4, 434497, Note_off_c, 5, 80, 0
4, 434560, Note_on_c, 5, 76, 76
4, 434561, Note_off_c, 5, 78, 0
4, 434624, Note_on_c, 5, 74, 91
4, 434625, Note_off_c, 5, 76, 0
4, 434688, Note_on_c, 5, 72, 86
4, 434689, Note_off_c, 5, 74, 0
4, 434752, Note_on_c, 5, 76, 105
4, 434753, Note_off_c, 5, 72, 0
4, 434816, Note_on_c, 5, 70, 91
4, 434817, Note_off_c, 5, 76, 0
4, 434880, Note_on_c, 5, 68, 83
4, 434881, Note_off_c, 5, 70, 0
4, 434944, Note_on_c, 5, 66, 77
4, 434945, Note_off_c, 5, 68, 0
4, 435008, Note_on_c, 5, 70, 110
4, 435009, Note_off_c, 5, 66, 0
4, 435072, Note_on_c, 5, 64, 98
4, 435073, Note_off_c, 5, 70, 0
4, 435136, Note_on_c, 5, 62, 89
4, 435137, Note_off_c, 5, 64, 0
4, 435200, Note_on_c, 5, 61, 81
4, 435201, Note_off_c, 5, 62, 0
4, 435264, Note_on_c, 5, 59, 91
4, 435265, Note_off_c, 5, 61, 0
4, 435328, Note_on_c, 5, 57, 85
4, 435329, Note_off_c, 5, 59, 0
4, 435392, Note_on_c, 5, 56, 98
4, 435393, Note_off_c, 5, 57, 0
4, 435452, Note_off_c, 5, 56, 0
4, 435520, Note_on_c, 5, 66, 88
4, 435584, Note_on_c, 5, 69, 93
4, 435585, Note_off_c, 5, 66, 0
4, 435648, Note_on_c, 5, 71, 105
4, 435649, Note_off_c, 5, 69, 0
4, 435712, Note_on_c, 5, 72, 109
4, 435713, Note_off_c, 5, 71, 0
4, 435776, Note_on_c, 5, 74, 107
4, 435777, Note_off_c, 5, 72, 0
4, 435840, Note_on_c, 5, 78, 121
4, 435841, Note_off_c, 5, 74, 0
4, 435904, Note_on_c, 5, 81, 109
4, 435905, Note_off_c, 5, 78, 0
4, 435964, Note_off_c, 5, 81, 0
4, 436032, Note_on_c, 5, 66, 90
4, 436096, Note_on_c, 5, 69, 96
4, 436097, Note_off_c, 5, 66, 0
4, 436160, Note_on_c, 5, 70, 104
4, 436161, Note_off_c, 5, 69, 0
4, 436224, Note_on_c, 5, 72, 112
4, 436225, Note_off_c, 5, 70, 0
4, 436288, Note_on_c, 5, 71, 93
4, 436289, Note_off_c, 5, 72, 0
4, 436352, Note_on_c, 5, 74, 99
4, 436353, Note_off_c, 5, 71, 0
4, 436416, Note_on_c, 5, 76, 104
4, 436417, Note_off_c, 5, 74, 0
4, 436480, Note_on_c, 5, 66, 75
4, 436481, Note_off_c, 5, 76, 0
4, 436544, Note_on_c, 5, 69, 102
4, 436545, Note_off_c, 5, 66, 0
4, 436608, Note_on_c, 5, 73, 119
4, 436609, Note_off_c, 5, 69, 0
4, 436672, Note_on_c, 5, 71, 90
4, 436673, Note_off_c, 5, 73, 0
4, 436736, Note_on_c, 5, 78, 108
4, 436737, Note_off_c, 5, 71, 0
4, 436800, Note_on_c, 5, 80, 106
4, 436801, Note_off_c, 5, 78, 0
4, 436860, Note_off_c, 5, 80, 0
4, 450304, Note_on_c, 5, 63, 87
4, 450368, Note_on_c, 5, 65, 84
4, 450369, Note_off_c, 5, 63, 0
4, 450432, Note_on_c, 5, 66, 103
4, 450433, Note_off_c, 5, 65, 0
4, 450496, Note_on_c, 5, 68, 109
4, 450497, Note_off_c, 5, 66, 0
4, 450560, Note_on_c, 5, 69, 105
4, 450561, Note_off_c, 5, 68, 0
4, 450624, Note_on_c, 5, 66, 93
4, 450625, Note_off_c, 5, 69, 0
4, 450688, Note_on_c, 5, 70, 106
4, 450689, Note_off_c, 5, 66, 0
4, 450752, Note_on_c, 5, 72, 110
4, 450753, Note_off_c, 5, 70, 0
4, 450812, Note_off_c, 5, 72, 0
4, 450944, Note_on_c, 5, 69, 86
4, 451008, Note_on_c, 5, 71, 91
4, 451009, Note_off_c, 5, 69, 0
4, 451072, Note_on_c, 5, 72, 104
4, 451073, Note_off_c, 5, 71, 0
4, 451136, Note_on_c, 5, 69, 97
4, 451137, Note_off_c, 5, 72, 0
4, 451200, Note_on_c, 5, 71, 103
4, 451201, Note_off_c, 5, 69, 0
4, 451264, Note_on_c, 5, 74, 110
4, 451265, Note_off_c, 5, 71, 0
4, 451328, Note_on_c, 5, 76, 106
4, 451329, Note_off_c, 5, 74, 0
4, 451392, Note_on_c, 5, 74, 94
4, 451393, Note_off_c, 5, 76, 0
4, 451456, Note_on_c, 5, 78, 106
4, 451457, Note_off_c, 5, 74, 0
4, 451520, Note_on_c, 5, 80, 117
4, 451521, Note_off_c, 5, 78, 0
4, 451580, Note_off_c, 5, 80, 0
4, 451712, Note_on_c, 5, 66, 89
4, 451776, Note_on_c, 5, 72, 100
4, 451777, Note_off_c, 5, 66, 0
4, 451840, Note_on_c, 5, 76, 115
4, 451841, Note_off_c, 5, 72, 0
4, 451904, Note_on_c, 5, 74, 112
4, 451905, Note_off_c, 5, 76, 0
4, 451968, Note_on_c, 5, 73, 94
4, 451969, Note_off_c, 5, 74, 0
4, 452032, Note_on_c, 5, 78, 102
4, 452033, Note_off_c, 5, 73, 0
4, 452096, Note_on_c, 5, 61, 72
4, 452097, Note_off_c, 5, 78, 0
4, 452160, Note_on_c, 5, 64, 80
4, 452161, Note_off_c, 5, 61, 0
4, 452224, Note_on_c, 5, 67, 102
4, 452225, Note_off_c, 5, 64, 0
4, 452288, Note_on_c, 5, 71, 115
4, 452289, Note_off_c, 5, 67, 0
4, 452352, Note_on_c, 5, 73, 104
4, 452353, Note_off_c, 5, 71, 0
4, 452416, Note_on_c, 5, 74, 112
4, 452417, Note_off_c, 5, 73, 0
4, 452480, Note_on_c, 5, 73, 94
4, 452481, Note_off_c, 5, 74, 0
4, 452544, Note_on_c, 5, 76, 99
4, 452545, Note_off_c, 5, 73, 0
4, 452608, Note_on_c, 5, 78, 106
4, 452609, Note_off_c, 5, 76, 0
4, 452668, Note_off_c, 5, 78, 0
4, 453120, Note_on_c, 5, 76, 86
4, 453184, Note_on_c, 5, 71, 73
4, 453185, Note_off_c, 5, 76, 0
4, 453248, Note_on_c, 5, 76, 111
4, 453249, Note_off_c, 5, 71, 0
4, 453312, Note_on_c, 5, 68, 89
4, 453313, Note_off_c, 5, 76, 0
4, 453372, Note_off_c, 5, 68, 0
4, 453632, Note_on_c, 5, 81, 89
4, 453696, Note_on_c, 5, 72, 69
4, 453697, Note_off_c, 5, 81, 0
4, 453760, Note_on_c, 5, 69, 83
4, 453761, Note_off_c, 5, 72, 0
4, 453824, Note_on_c, 5, 65, 74
4, 453825, Note_off_c, 5, 69, 0
4, 453884, Note_off_c, 5, 65, 0
4, 453952, Note_on_c, 5, 81, 82
4, 454016, Note_on_c, 5, 78, 75
4, 454017, Note_off_c, 5, 81, 0
4, 454080, Note_on_c, 5, 71, 79
4, 454081, Note_off_c, 5, 78, 0
4, 454144, Note_on_c, 5, 86, 101
4, 454145, Note_off_c, 5, 71, 0
4, 454174, Note_off_c, 5, 86, 0
4, 454272, Note_on_c, 5, 78, 88
4, 454336, Note_on_c, 5, 73, 73
4, 454337, Note_off_c, 5, 78, 0
4, 454400, Note_on_c, 5, 76, 104
4, 454401, Note_off_c, 5, 73, 0
4, 454464, Note_on_c, 5, 71, 92
4, 454465, Note_off_c, 5, 76, 0
4, 454528, Note_on_c, 5, 70, 92
4, 454529, Note_off_c, 5, 71, 0
4, 454592, Note_on_c, 5, 66, 79
4, 454593, Note_off_c, 5, 70, 0
4, 454652, Note_off_c, 5, 66, 0
4, 454784, Note_on_c, 5, 86, 85
4, 454848, Note_on_c, 5, 81, 74
4, 454849, Note_off_c, 5, 86, 0
4, 454912, Note_on_c, 5, 78, 90
4, 454913, Note_off_c, 5, 81, 0
4, 454976, Note_on_c, 5, 72, 73
4, 454977, Note_off_c, 5, 78, 0
4, 455040, Note_on_c, 5, 74, 101
4, 455041, Note_off_c, 5, 72, 0
4, 455104, Note_on_c, 5, 71, 93
4, 455105, Note_off_c, 5, 74, 0
4, 455168, Note_on_c, 5, 67, 91
4, 455169, Note_off_c, 5, 71, 0
4, 455232, Note_on_c, 5, 66, 88
4, 455233, Note_off_c, 5, 67, 0
4, 455292, Note_off_c, 5, 66, 0
4, 455424, Note_on_c, 5, 82, 89
4, 455488, Note_on_c, 5, 80, 80
4, 455489, Note_off_c, 5, 82, 0
4, 455552, Note_on_c, 5, 75, 82
4, 455553, Note_off_c, 5, 80, 0
4, 455616, Note_on_c, 5, 78, 86
4, 455617, Note_off_c, 5, 75, 0
4, 455680, Note_on_c, 5, 80, 100
4, 455681, Note_off_c, 5, 78, 0
4, 455744, Note_on_c, 5, 70, 75
4, 455745, Note_off_c, 5, 80, 0
4, 455804, Note_off_c, 5, 70, 0
4, 457856, Note_on_c, 5, 64, 91
4, 457920, Note_off_c, 5, 64, 0
4, 457920, Note_on_c, 5, 67, 101
4, 457984, Note_off_c, 5, 67, 0
4, 457984, Note_on_c, 5, 69, 104
4, 458048, Note_off_c, 5, 69, 0
4, 458048, Note_on_c, 5, 71, 101
4, 458112, Note_off_c, 5, 71, 0
4, 458112, Note_on_c, 5, 74, 108
4, 458176, Note_off_c, 5, 74, 0
4, 458176, Note_on_c, 5, 72, 93
4, 458240, Note_off_c, 5, 72, 0
4, 458240, Note_on_c, 5, 81, 120
4, 458304, Note_off_c, 5, 81, 0
4, 458304, Note_on_c, 5, 78, 90
4, 458368, Note_off_c, 5, 78, 0
4, 458432, Note_on_c, 5, 66, 86
4, 458496, Note_off_c, 5, 66, 0
4, 458496, Note_on_c, 5, 70, 109
4, 458560, Note_off_c, 5, 70, 0
4, 458560, Note_on_c, 5, 74, 106
4, 458624, Note_off_c, 5, 74, 0
4, 458624, Note_on_c, 5, 72, 93
4, 458688, Note_off_c, 5, 72, 0
4, 458688, Note_on_c, 5, 78, 117
4, 458752, Note_off_c, 5, 78, 0
4, 458752, Note_on_c, 5, 81, 108
4, 458816, Note_off_c, 5, 81, 0
4, 458816, Note_on_c, 5, 82, 101
4, 458880, Note_off_c, 5, 82, 0
4, 458944, Note_on_c, 5, 64, 89
4, 459008, Note_off_c, 5, 64, 0
4, 459008, Note_on_c, 5, 67, 106
4, 459072, Note_off_c, 5, 67, 0
4, 459072, Note_on_c, 5, 73, 111
4, 459136, Note_off_c, 5, 73, 0
4, 459136, Note_on_c, 5, 60, 73
4, 459200, Note_off_c, 5, 60, 0
4, 459200, Note_on_c, 5, 67, 110
4, 459264, Note_off_c, 5, 67, 0
4, 459264, Note_on_c, 5, 71, 111
4, 459328, Note_off_c, 5, 71, 0
4, 459328, Note_on_c, 5, 74, 109
4, 459392, Note_off_c, 5, 74, 0
4, 459520, Note_on_c, 5, 60, 84
4, 459584, Note_off_c, 5, 60, 0
4, 459584, Note_on_c, 5, 66, 108
4, 459648, Note_off_c, 5, 66, 0
4, 459648, Note_on_c, 5, 67, 109
4, 459712, Note_off_c, 5, 67, 0
4, 459712, Note_on_c, 5, 65, 89
4, 459776, Note_off_c, 5, 65, 0
4, 459776, Note_on_c, 5, 72, 118
4, 459840, Note_off_c, 5, 72, 0
4, 459840, Note_on_c, 5, 78, 115
4, 459904, Note_off_c, 5, 78, 0
4, 459904, Note_on_c, 5, 81, 107
4, 459968, Note_off_c, 5, 81, 0
4, 460032, Note_on_c, 5, 72, 113
4, 460032, Note_on_c, 5, 86, 113
4, 460160, Note_off_c, 5, 72, 0
4, 460160, Note_off_c, 5, 86, 0
4, 460288, Note_on_c, 5, 72, 116
4, 460288, Note_on_c, 5, 86, 116
4, 460416, Note_off_c, 5, 72, 0
4, 460416, Note_off_c, 5, 86, 0
4, 460544, Note_on_c, 5, 72, 118
4, 460544, Note_on_c, 5, 86, 118
4, 460672, Note_off_c, 5, 72, 0
4, 460672, Note_off_c, 5, 86, 0
4, 460800, Note_on_c, 5, 71, 119
4, 460800, Note_on_c, 5, 89, 119
4, 460864, Note_off_c, 5, 71, 0
4, 460864, Note_off_c, 5, 89, 0
4, 460864, Note_on_c, 5, 71, 127
4, 460864, Note_on_c, 5, 89, 127
4, 460928, Note_off_c, 5, 71, 0
4, 460928, Note_off_c, 5, 89, 0
4, 460928, Note_on_c, 5, 71, 127
4, 460928, Note_on_c, 5, 89, 127
4, 460992, Note_off_c, 5, 71, 0
4, 460992, Note_off_c, 5, 89, 0
4, 461056, Note_on_c, 5, 74, 123
4, 461056, Note_on_c, 5, 87, 123
4, 461184, Note_off_c, 5, 74, 0
4, 461184, Note_off_c, 5, 87, 0
4, 461312, Note_on_c, 5, 78, 119
4, 461312, Note_on_c, 5, 87, 119
4, 461440, Note_off_c, 5, 78, 0
4, 461440, Note_off_c, 5, 87, 0
4, 461440, Note_on_c, 5, 78, 127
4, 461440, Note_on_c, 5, 88, 127
4, 461568, Note_off_c, 5, 78, 0
4, 461568, Note_off_c, 5, 88, 0
4, 461696, Note_on_c, 5, 78, 117
4, 461696, Note_on_c, 5, 86, 117
4, 461824, Note_off_c, 5, 78, 0
4, 461824, Note_off_c, 5, 86, 0
4, 461824, Note_on_c, 5, 75, 127
4, 461824, Note_on_c, 5, 90, 127
4, 461952, Note_off_c, 5, 75, 0
4, 461952, Note_off_c, 5, 90, 0
4, 462336, Note_on_c, 5, 78, 121
4, 462336, Note_on_c, 5, 87, 121
4, 462464, Note_off_c, 5, 78, 0
4, 462464, Note_off_c, 5, 87, 0
4, 462592, Note_on_c, 5, 80, 122
4, 462592, Note_on_c, 5, 86, 122
4, 462656, Note_off_c, 5, 80, 0
4, 462656, Note_off_c, 5, 86, 0
4, 462656, Note_on_c, 5, 80, 127
4, 462656, Note_on_c, 5, 86, 127
4, 462720, Note_off_c, 5, 80, 0
4, 462720, Note_off_c, 5, 86, 0
4, 462976, Note_on_c, 5, 78, 120
4, 462976, Note_on_c, 5, 87, 120
4, 463104, Note_off_c, 5, 78, 0
4, 463104, Note_off_c, 5, 87, 0
4, 463104, Note_on_c, 5, 78, 127
4, 463104, Note_on_c, 5, 87, 127
4, 463232, Note_off_c, 5, 78, 0
4, 463232, Note_off_c, 5, 87, 0
4, 463360, Note_on_c, 5, 80, 122
4, 463360, Note_on_c, 5, 86, 122
4, 463424, Note_off_c, 5, 80, 0
4, 463424, Note_off_c, 5, 86, 0
4, 463424, Note_on_c, 5, 80, 127
4, 463424, Note_on_c, 5, 86, 127
4, 463488, Note_off_c, 5, 80, 0
4, 463488, Note_off_c, 5, 86, 0
4, 463616, Note_on_c, 5, 80, 122
4, 463616, Note_on_c, 5, 86, 122
4, 463744, Note_off_c, 5, 80, 0
4, 463744, Note_off_c, 5, 86, 0
4, 464128, Note_on_c, 5, 80, 118
4, 464128, Note_on_c, 5, 86, 118
4, 464192, Note_off_c, 5, 80, 0
4, 464192, Note_off_c, 5, 86, 0
4, 464192, Note_on_c, 5, 80, 127
4, 464192, Note_on_c, 5, 86, 127
4, 464256, Note_off_c, 5, 80, 0
4, 464256, Note_off_c, 5, 86, 0
4, 464384, Note_on_c, 5, 80, 118
4, 464384, Note_on_c, 5, 86, 118
4, 464512, Note_off_c, 5, 80, 0
4, 464512, Note_off_c, 5, 86, 0
4, 464768, Note_on_c, 5, 80, 121
4, 464768, Note_on_c, 5, 86, 121
4, 464832, Note_off_c, 5, 80, 0
4, 464832, Note_off_c, 5, 86, 0
4, 464832, Note_on_c, 5, 80, 127
4, 464832, Note_on_c, 5, 86, 127
4, 464896, Note_off_c, 5, 80, 0
4, 464896, Note_off_c, 5, 86, 0
4, 465024, Note_on_c, 5, 80, 119
4, 465024, Note_on_c, 5, 86, 119
4, 465152, Note_off_c, 5, 80, 0
4, 465152, Note_off_c, 5, 86, 0
4, 465152, Note_on_c, 5, 80, 127
4, 465152, Note_on_c, 5, 86, 127
4, 465216, Note_off_c, 5, 80, 0
4, 465216, Note_off_c, 5, 86, 0
4, 465216, Note_on_c, 5, 80, 127
4, 465216, Note_on_c, 5, 86, 127
4, 465280, Note_off_c, 5, 80, 0
4, 465280, Note_off_c, 5, 86, 0
4, 465408, Note_on_c, 5, 80, 120
4, 465408, Note_on_c, 5, 86, 120
4, 465536, Note_off_c, 5, 80, 0
4, 465536, Note_off_c, 5, 86, 0
4, 465664, Note_on_c, 5, 80, 115
4, 465664, Note_on_c, 5, 86, 115
4, 465728, Note_off_c, 5, 80, 0
4, 465728, Note_off_c, 5, 86, 0
4, 465728, Note_on_c, 5, 80, 125
4, 465728, Note_on_c, 5, 86, 125
4, 465792, Note_off_c, 5, 80, 0
4, 465792, Note_off_c, 5, 86, 0
4, 466176, Note_on_c, 5, 85, 120
4, 466176, Note_on_c, 5, 86, 120
4, 466240, Note_off_c, 5, 85, 0
4, 466240, Note_off_c, 5, 86, 0
4, 466240, Note_on_c, 5, 85, 127
4, 466240, Note_on_c, 5, 86, 127
4, 466304, Note_off_c, 5, 85, 0
4, 466304, Note_off_c, 5, 86, 0
4, 466304, Note_on_c, 5, 85, 127
4, 466304, Note_on_c, 5, 86, 127
4, 466368, Note_off_c, 5, 85, 0
4, 466368, Note_off_c, 5, 86, 0
4, 466432, Note_on_c, 5, 85, 120
4, 466432, Note_on_c, 5, 86, 120
4, 466496, Note_off_c, 5, 85, 0
4, 466496, Note_off_c, 5, 86, 0
4, 466496, Note_on_c, 5, 85, 127
4, 466496, Note_on_c, 5, 86, 127
4, 466560, Note_off_c, 5, 85, 0
4, 466560, Note_off_c, 5, 86, 0
4, 466560, Note_on_c, 5, 85, 127
4, 466560, Note_on_c, 5, 86, 127
4, 466624, Note_off_c, 5, 85, 0
4, 466624, Note_off_c, 5, 86, 0
4, 466816, Note_on_c, 5, 85, 117
4, 466816, Note_on_c, 5, 86, 117
4, 466944, Note_off_c, 5, 85, 0
4, 466944, Note_off_c, 5, 86, 0
4, 466944, Note_on_c, 5, 85, 127
4, 466944, Note_on_c, 5, 86, 127
4, 467072, Note_off_c, 5, 85, 0
4, 467072, Note_off_c, 5, 86, 0
4, 467136, Note_on_c, 5, 85, 119
4, 467136, Note_on_c, 5, 86, 119
4, 467200, Note_off_c, 5, 85, 0
4, 467200, Note_off_c, 5, 86, 0
4, 467200, Note_on_c, 5, 85, 127
4, 467200, Note_on_c, 5, 86, 127
4, 467328, Note_off_c, 5, 85, 0
4, 467328, Note_off_c, 5, 86, 0
4, 467392, Note_on_c, 5, 85, 118
4, 467392, Note_on_c, 5, 86, 118
4, 467456, Note_off_c, 5, 85, 0
4, 467456, Note_off_c, 5, 86, 0
4, 467456, Note_on_c, 5, 85, 127
4, 467456, Note_on_c, 5, 86, 127
4, 467520, Note_off_c, 5, 85, 0
4, 467520, Note_off_c, 5, 86, 0
4, 467520, Note_on_c, 5, 85, 127
4, 467520, Note_on_c, 5, 86, 127
4, 467584, Note_off_c, 5, 85, 0
4, 467584, Note_off_c, 5, 86, 0
4, 467712, Note_on_c, 5, 85, 121
4, 467712, Note_on_c, 5, 86, 121
4, 467776, Note_off_c, 5, 85, 0
4, 467776, Note_off_c, 5, 86, 0
4, 467776, Note_on_c, 5, 85, 127
4, 467776, Note_on_c, 5, 86, 127
4, 467840, Note_off_c, 5, 85, 0
4, 467840, Note_off_c, 5, 86, 0
4, 467968, Note_on_c, 5, 85, 113
4, 467968, Note_on_c, 5, 86, 113
4, 468096, Note_off_c, 5, 85, 0
4, 468096, Note_off_c, 5, 86, 0
4, 468097, End_track
5, 0, Start_track
5, 0, Program_c, 5, 71
5, 0, Control_c, 5, 121, 0
5, 0, Control_c, 5, 64, 0
5, 0, Control_c, 5, 91, 57
5, 0, Control_c, 5, 10, 60
5, 0, Control_c, 5, 7, 86
5, 0, Control_c, 5, 121, 0
5, 0, Control_c, 5, 64, 0
5, 0, Control_c, 5, 91, 57
5, 0, Control_c, 5, 10, 60
5, 0, Control_c, 5, 7, 86
5, 0, Title_t, "Clarinet in Bb"
5, 9984, Note_on_c, 5, 50, 33
5, 9984, Note_on_c, 5, 35, 36
5, 9984, Note_on_c, 5, 42, 36
5, 11008, Note_off_c, 5, 50, 0
5, 11008, Note_off_c, 5, 35, 0
5, 11008, Note_off_c, 5, 42, 0
5, 11008, Note_on_c, 5, 52, 38
5, 11008, Note_on_c, 5, 55, 38
5, 11008, Note_on_c, 5, 45, 40
5, 11008, Note_on_c, 5, 49, 40
5, 11264, Note_on_c, 5, 48, 35
5, 11648, Note_off_c, 5, 52, 0
5, 11648, Note_off_c, 5, 55, 0
5, 11648, Note_off_c, 5, 45, 0
5, 11648, Note_off_c, 5, 48, 0
5, 11648, Note_on_c, 5, 55, 43
5, 11648, Note_on_c, 5, 35, 41
5, 11648, Note_on_c, 5, 50, 41
5, 12032, Note_off_c, 5, 55, 0
5, 12032, Note_off_c, 5, 35, 0
5, 12032, Note_off_c, 5, 50, 0
5, 12032, Note_on_c, 5, 52, 36
5, 12032, Note_on_c, 5, 55, 36
5, 12032, Note_on_c, 5, 45, 38
5, 12288, Note_on_c, 5, 48, 37
5, 12672, Note_off_c, 5, 52, 0
5, 12672, Note_off_c, 5, 55, 0
5, 12672, Note_off_c, 5, 45, 0
5, 12672, Note_off_c, 5, 48, 0
5, 12672, Note_on_c, 5, 55, 35
5, 12672, Note_on_c, 5, 35, 45
5, 12672, Note_on_c, 5, 50, 45
5, 12800, Note_off_c, 5, 55, 0
5, 12800, Note_off_c, 5, 35, 0
5, 12800, Note_off_c, 5, 50, 0
5, 12800, Note_on_c, 5, 52, 41
5, 12800, Note_on_c, 5, 55, 41
5, 12800, Note_on_c, 5, 45, 38
5, 13043, Note_off_c, 5, 52, 0
5, 13043, Note_off_c, 5, 55, 0
5, 13056, Note_off_c, 5, 49, 0
5, 13056, Note_off_c, 5, 45, 0
5, 13056, Note_on_c, 5, 50, 44
5, 13056, Note_on_c, 5, 55, 44
5, 13056, Note_on_c, 5, 43, 38
5, 13056, Note_on_c, 5, 46, 38
5, 13824, Note_off_c, 5, 50, 0
5, 13824, Note_off_c, 5, 55, 0
5, 13824, Note_on_c, 5, 57, 64
5, 14080, Note_off_c, 5, 43, 0
5, 14080, Note_off_c, 5, 46, 0
5, 14080, Note_on_c, 5, 56, 68
5, 14080, Note_on_c, 5, 58, 68
5, 14080, Note_on_c, 5, 45, 42
5, 14080, Note_on_c, 5, 49, 42
5, 14085, Note_off_c, 5, 57, 0
5, 14336, Note_off_c, 5, 58, 0
5, 14336, Note_on_c, 5, 55, 61
5, 14336, Note_on_c, 5, 58, 61
5, 14341, Note_off_c, 5, 56, 0
5, 14566, Note_off_c, 5, 55, 0
5, 14592, Note_off_c, 5, 45, 0
5, 14592, Note_off_c, 5, 49, 0
5, 14592, Note_on_c, 5, 46, 41
5, 14592, Note_on_c, 5, 50, 41
5, 14797, Note_off_c, 5, 58, 0
5, 14848, Note_off_c, 5, 46, 0
5, 14848, Note_off_c, 5, 50, 0
5, 15488, Note_on_c, 5, 55, 33
5, 15488, Note_on_c, 5, 35, 36
5, 15488, Note_on_c, 5, 39, 36
5, 15744, Note_off_c, 5, 55, 0
5, 15744, Note_off_c, 5, 35, 0
5, 15744, Note_off_c, 5, 39, 0
5, 16256, Note_on_c, 5, 55, 33
5, 16256, Note_on_c, 5, 35, 37
5, 16256, Note_on_c, 5, 39, 37
5, 16512, Note_off_c, 5, 55, 0
5, 16512, Note_off_c, 5, 35, 0
5, 16512, Note_off_c, 5, 39, 0
5, 16640, Note_on_c, 5, 53, 31
5, 16640, Note_on_c, 5, 55, 31
5, 16640, Note_on_c, 5, 47, 33
5, 16640, Note_on_c, 5, 50, 33
5, 16896, Note_off_c, 5, 53, 0
5, 16896, Note_off_c, 5, 55, 0
5, 16896, Note_off_c, 5, 47, 0
5, 16896, Note_off_c, 5, 50, 0
5, 17152, Note_on_c, 5, 53, 37
5, 17152, Note_on_c, 5, 55, 37
5, 17152, Note_on_c, 5, 41, 35
5, 17152, Note_on_c, 5, 50, 35
5, 17408, Note_off_c, 5, 53, 0
5, 17408, Note_off_c, 5, 55, 0
5, 17408, Note_off_c, 5, 41, 0
5, 17408, Note_off_c, 5, 50, 0
5, 17664, Note_on_c, 5, 53, 38
5, 17664, Note_on_c, 5, 55, 38
5, 17664, Note_on_c, 5, 35, 37
5, 17664, Note_on_c, 5, 51, 37
5, 18176, Note_off_c, 5, 53, 0
5, 18176, Note_off_c, 5, 55, 0
5, 18176, Note_off_c, 5, 35, 0
5, 18176, Note_off_c, 5, 51, 0
5, 18560, Note_on_c, 5, 53, 34
5, 18560, Note_on_c, 5, 55, 34
5, 18560, Note_on_c, 5, 36, 38
5, 18560, Note_on_c, 5, 51, 38
5, 19072, Note_off_c, 5, 53, 0
5, 19072, Note_off_c, 5, 55, 0
5, 19072, Note_off_c, 5, 36, 0
5, 19072, Note_off_c, 5, 51, 0
5, 19200, Note_on_c, 5, 54, 33
5, 19200, Note_on_c, 5, 56, 33
5, 19200, Note_on_c, 5, 48, 41
5, 19200, Note_on_c, 5, 51, 41
5, 19712, Note_off_c, 5, 54, 0
5, 19712, Note_off_c, 5, 56, 0
5, 19712, Note_off_c, 5, 48, 0
5, 19712, Note_off_c, 5, 51, 0
5, 19968, Note_on_c, 5, 55, 33
5, 19968, Note_on_c, 5, 57, 33
5, 19968, Note_on_c, 5, 37, 35
5, 19968, Note_on_c, 5, 52, 35
5, 20480, Note_off_c, 5, 55, 0
5, 20480, Note_off_c, 5, 57, 0
5, 20480, Note_off_c, 5, 37, 0
5, 20480, Note_off_c, 5, 52, 0
5, 20992, Note_on_c, 5, 56, 34
5, 20992, Note_on_c, 5, 58, 34
5, 20992, Note_on_c, 5, 49, 33
5, 20992, Note_on_c, 5, 52, 33
5, 21504, Note_off_c, 5, 56, 0
5, 21504, Note_off_c, 5, 58, 0
5, 21504, Note_off_c, 5, 49, 0
5, 21504, Note_off_c, 5, 52, 0
5, 22016, Note_on_c, 5, 56, 36
5, 22016, Note_on_c, 5, 58, 36
5, 22016, Note_on_c, 5, 38, 37
5, 22016, Note_on_c, 5, 53, 37
5, 22528, Note_off_c, 5, 56, 0
5, 22528, Note_off_c, 5, 58, 0
5, 22528, Note_off_c, 5, 38, 0
5, 22528, Note_off_c, 5, 53, 0
5, 23040, Note_on_c, 5, 53, 36
5, 23040, Note_on_c, 5, 59, 36
5, 23040, Note_on_c, 5, 50, 36
5, 23040, Note_on_c, 5, 53, 36
5, 23552, Note_off_c, 5, 53, 0
5, 23552, Note_off_c, 5, 59, 0
5, 23552, Note_off_c, 5, 50, 0
5, 23552, Note_off_c, 5, 53, 0
5, 23552, Note_on_c, 5, 77, 89
5, 23616, Note_on_c, 5, 76, 94
5, 23617, Note_off_c, 5, 77, 0
5, 23744, Note_on_c, 5, 74, 64
5, 23746, Note_off_c, 5, 76, 0
5, 23808, Note_on_c, 5, 73, 61
5, 23809, Note_off_c, 5, 74, 0
5, 23936, Note_on_c, 5, 71, 65
5, 23938, Note_off_c, 5, 73, 0
5, 24000, Note_on_c, 5, 69, 59
5, 24001, Note_off_c, 5, 71, 0
5, 24064, Note_on_c, 5, 41, 36
5, 24064, Note_on_c, 5, 46, 36
5, 24064, Note_on_c, 5, 59, 36
5, 24149, Note_on_c, 5, 56, 61
5, 24151, Note_off_c, 5, 69, 0
5, 24433, Note_off_c, 5, 56, 0
5, 24448, Note_on_c, 5, 61, 81
5, 24512, Note_on_c, 5, 62, 90
5, 24513, Note_off_c, 5, 61, 0
5, 24576, Note_off_c, 5, 41, 0
5, 24576, Note_off_c, 5, 46, 0
5, 24576, Note_off_c, 5, 59, 0
5, 24640, Note_on_c, 5, 64, 74
5, 24642, Note_off_c, 5, 62, 0
5, 24704, Note_on_c, 5, 72, 88
5, 24705, Note_off_c, 5, 64, 0
5, 24917, Note_on_c, 5, 70, 65
5, 24921, Note_off_c, 5, 72, 0
5, 24960, Note_on_c, 5, 50, 34
5, 24960, Note_on_c, 5, 55, 34
5, 24960, Note_on_c, 5, 58, 34
5, 25216, Note_on_c, 5, 64, 51
5, 25221, Note_off_c, 5, 70, 0
5, 25280, Note_on_c, 5, 66, 73
5, 25281, Note_off_c, 5, 64, 0
5, 25344, Note_off_c, 5, 50, 0
5, 25344, Note_off_c, 5, 55, 0
5, 25344, Note_off_c, 5, 58, 0
5, 25408, Note_on_c, 5, 67, 74
5, 25410, Note_off_c, 5, 66, 0
5, 25472, Note_on_c, 5, 70, 78
5, 25473, Note_off_c, 5, 67, 0
5, 25685, Note_on_c, 5, 77, 92
5, 25689, Note_off_c, 5, 70, 0
5, 25908, Note_off_c, 5, 77, 0
5, 25920, Note_on_c, 5, 69, 57
5, 25984, Note_on_c, 5, 70, 57
5, 25984, Note_on_c, 5, 46, 32
5, 25984, Note_on_c, 5, 50, 32
5, 25984, Note_on_c, 5, 53, 32
5, 25985, Note_off_c, 5, 69, 0
5, 26112, Note_on_c, 5, 72, 77
5, 26114, Note_off_c, 5, 70, 0
5, 26176, Note_on_c, 5, 80, 91
5, 26177, Note_off_c, 5, 72, 0
5, 26368, Note_on_c, 5, 78, 69
5, 26371, Note_off_c, 5, 80, 0
5, 26496, Note_off_c, 5, 46, 0
5, 26496, Note_off_c, 5, 50, 0
5, 26496, Note_off_c, 5, 53, 0
5, 26550, Note_off_c, 5, 78, 0
5, 26880, Note_on_c, 5, 62, 35
5, 26880, Note_on_c, 5, 65, 35
5, 26880, Note_on_c, 5, 43, 34
5, 26880, Note_on_c, 5, 46, 34
5, 27392, Note_off_c, 5, 62, 0
5, 27392, Note_off_c, 5, 65, 0
5, 27392, Note_off_c, 5, 43, 0
5, 27392, Note_off_c, 5, 46, 0
5, 31488, Note_on_c, 5, 62, 62
5, 31573, Note_on_c, 5, 63, 64
5, 31574, Note_off_c, 5, 62, 0
5, 31658, Note_on_c, 5, 65, 75
5, 31659, Note_off_c, 5, 63, 0
5, 31744, Note_on_c, 5, 66, 77
5, 31745, Note_off_c, 5, 65, 0
5, 31829, Note_on_c, 5, 68, 73
5, 31830, Note_off_c, 5, 66, 0
5, 31914, Note_on_c, 5, 81, 91
5, 31915, Note_off_c, 5, 68, 0
5, 32000, Note_on_c, 5, 78, 72
5, 32001, Note_off_c, 5, 81, 0
5, 32080, Note_off_c, 5, 78, 0
5, 32085, Note_on_c, 5, 68, 57
5, 32170, Note_on_c, 5, 69, 53
5, 32171, Note_off_c, 5, 68, 0
5, 32256, Note_on_c, 5, 81, 88
5, 32257, Note_off_c, 5, 69, 0
5, 32341, Note_on_c, 5, 84, 97
5, 32342, Note_off_c, 5, 81, 0
5, 32576, Note_on_c, 5, 80, 62
5, 32580, Note_off_c, 5, 84, 0
5, 33001, Note_off_c, 5, 80, 0
5, 33024, Note_on_c, 5, 61, 59
5, 33088, Note_on_c, 5, 63, 59
5, 33089, Note_off_c, 5, 61, 0
5, 33216, Note_on_c, 5, 64, 82
5, 33218, Note_off_c, 5, 63, 0
5, 33280, Note_on_c, 5, 79, 111
5, 33281, Note_off_c, 5, 64, 0
5, 33472, Note_on_c, 5, 69, 71
5, 33475, Note_off_c, 5, 79, 0
5, 33654, Note_off_c, 5, 69, 0
5, 33664, Note_on_c, 5, 64, 75
5, 33792, Note_on_c, 5, 67, 77
5, 33794, Note_off_c, 5, 64, 0
5, 33877, Note_on_c, 5, 70, 94
5, 33878, Note_off_c, 5, 67, 0
5, 33962, Note_on_c, 5, 81, 121
5, 33963, Note_off_c, 5, 70, 0
5, 34133, Note_on_c, 5, 83, 88
5, 34136, Note_off_c, 5, 81, 0
5, 34477, Note_off_c, 5, 83, 0
5, 34496, Note_on_c, 5, 56, 100
5, 34560, Note_off_c, 5, 56, 0
5, 34560, Note_on_c, 5, 78, 106
5, 34645, Note_on_c, 5, 74, 98
5, 34646, Note_off_c, 5, 78, 0
5, 34730, Note_on_c, 5, 70, 66
5, 34731, Note_off_c, 5, 74, 0
5, 34901, Note_on_c, 5, 69, 59
5, 34904, Note_off_c, 5, 70, 0
5, 35063, Note_off_c, 5, 69, 0
5, 35072, Note_on_c, 5, 60, 66
5, 35136, Note_on_c, 5, 80, 82
5, 35137, Note_off_c, 5, 60, 0
5, 35264, Note_on_c, 5, 75, 76
5, 35266, Note_off_c, 5, 80, 0
5, 35328, Note_on_c, 5, 73, 65
5, 35329, Note_off_c, 5, 75, 0
5, 35456, Note_on_c, 5, 72, 79
5, 35458, Note_off_c, 5, 73, 0
5, 35516, Note_off_c, 5, 72, 0
5, 35520, Note_on_c, 5, 61, 63
5, 35584, Note_on_c, 5, 81, 79
5, 35585, Note_off_c, 5, 61, 0
5, 35712, Note_on_c, 5, 80, 83
5, 35714, Note_off_c, 5, 81, 0
5, 35776, Note_on_c, 5, 79, 81
5, 35777, Note_off_c, 5, 80, 0
5, 35876, Note_off_c, 5, 79, 0
5, 38912, Note_on_c, 5, 58, 61
5, 38912, Note_on_c, 5, 60, 61
5, 38912, Note_on_c, 5, 48, 53
5, 38912, Note_on_c, 5, 52, 53
5, 39680, Note_off_c, 5, 58, 0
5, 39680, Note_off_c, 5, 60, 0
5, 39680, Note_off_c, 5, 48, 0
5, 39680, Note_off_c, 5, 52, 0
5, 39680, Note_on_c, 5, 53, 52
5, 39680, Note_on_c, 5, 56, 52
5, 39680, Note_on_c, 5, 37, 56
5, 39680, Note_on_c, 5, 47, 56
5, 40704, Note_off_c, 5, 53, 0
5, 40704, Note_off_c, 5, 56, 0
5, 40704, Note_off_c, 5, 37, 0
5, 40704, Note_off_c, 5, 47, 0
5, 40704, Note_on_c, 5, 56, 69
5, 40704, Note_on_c, 5, 60, 69
5, 40704, Note_on_c, 5, 41, 63
5, 40704, Note_on_c, 5, 50, 63
5, 41472, Note_off_c, 5, 56, 0
5, 41472, Note_off_c, 5, 60, 0
5, 41472, Note_off_c, 5, 41, 0
5, 41472, Note_off_c, 5, 50, 0
5, 41472, Note_on_c, 5, 56, 61
5, 41472, Note_on_c, 5, 60, 61
5, 41472, Note_on_c, 5, 51, 62
5, 41472, Note_on_c, 5, 53, 62
5, 42240, Note_off_c, 5, 56, 0
5, 42240, Note_off_c, 5, 60, 0
5, 42240, Note_off_c, 5, 51, 0
5, 42240, Note_off_c, 5, 53, 0
5, 42240, Note_on_c, 5, 50, 58
5, 42240, Note_on_c, 5, 53, 58
5, 42240, Note_on_c, 5, 43, 58
5, 42240, Note_on_c, 5, 46, 58
5, 43264, Note_off_c, 5, 50, 0
5, 43264, Note_off_c, 5, 53, 0
5, 43264, Note_off_c, 5, 43, 0
5, 43264, Note_off_c, 5, 46, 0
5, 43264, Note_on_c, 5, 59, 74
5, 43264, Note_on_c, 5, 62, 74
5, 43264, Note_on_c, 5, 53, 71
5, 43264, Note_on_c, 5, 57, 71
5, 44032, Note_off_c, 5, 59, 0
5, 44032, Note_off_c, 5, 62, 0
5, 44032, Note_off_c, 5, 53, 0
5, 44032, Note_off_c, 5, 57, 0
5, 44032, Note_on_c, 5, 59, 64
5, 44032, Note_on_c, 5, 63, 64
5, 44032, Note_on_c, 5, 53, 59
5, 44032, Note_on_c, 5, 56, 59
5, 45056, Note_off_c, 5, 59, 0
5, 45056, Note_off_c, 5, 63, 0
5, 45056, Note_off_c, 5, 53, 0
5, 45056, Note_off_c, 5, 56, 0
5, 45056, Note_on_c, 5, 54, 60
5, 45056, Note_on_c, 5, 62, 60
5, 45056, Note_on_c, 5, 36, 61
5, 45056, Note_on_c, 5, 52, 61
5, 45824, Note_off_c, 5, 52, 0
5, 45824, Note_on_c, 5, 51, 60
5, 46080, Note_off_c, 5, 54, 0
5, 46080, Note_off_c, 5, 62, 0
5, 46080, Note_off_c, 5, 36, 0
5, 46080, Note_off_c, 5, 51, 0
5, 46080, Note_on_c, 5, 57, 54
5, 46080, Note_on_c, 5, 60, 54
5, 46080, Note_on_c, 5, 52, 62
5, 46080, Note_on_c, 5, 54, 62
5, 47104, Note_off_c, 5, 57, 0
5, 47104, Note_off_c, 5, 60, 0
5, 47104, Note_off_c, 5, 52, 0
5, 47104, Note_off_c, 5, 54, 0
5, 47104, Note_on_c, 5, 57, 55
5, 47104, Note_on_c, 5, 59, 55
5, 47104, Note_on_c, 5, 40, 63
5, 47104, Note_on_c, 5, 53, 63
5, 48128, Note_off_c, 5, 40, 0
5, 48128, Note_on_c, 5, 39, 68
5, 48256, Note_off_c, 5, 57, 0
5, 48256, Note_off_c, 5, 59, 0
5, 48256, Note_off_c, 5, 53, 0
5, 48256, Note_off_c, 5, 39, 0
5, 48256, Note_on_c, 5, 54, 63
5, 48256, Note_on_c, 5, 60, 63
5, 48256, Note_on_c, 5, 42, 58
5, 48256, Note_on_c, 5, 46, 58
5, 49536, Note_off_c, 5, 54, 0
5, 49536, Note_off_c, 5, 60, 0
5, 49536, Note_off_c, 5, 42, 0
5, 49536, Note_off_c, 5, 46, 0
5, 49536, Note_on_c, 5, 53, 59
5, 49536, Note_on_c, 5, 57, 59
5, 49536, Note_on_c, 5, 37, 59
5, 49536, Note_on_c, 5, 41, 59
5, 50560, Note_off_c, 5, 53, 0
5, 50560, Note_off_c, 5, 57, 0
5, 50560, Note_off_c, 5, 37, 0
5, 50560, Note_off_c, 5, 41, 0
5, 50560, Note_on_c, 5, 45, 64
5, 50560, Note_on_c, 5, 49, 64
5, 51584, Note_off_c, 5, 45, 0
5, 51584, Note_off_c, 5, 49, 0
5, 55744, Note_on_c, 5, 52, 67
5, 55765, Note_off_c, 5, 52, 0
5, 55765, Note_on_c, 5, 57, 74
5, 55786, Note_off_c, 5, 57, 0
5, 55786, Note_on_c, 5, 58, 74
5, 55808, Note_off_c, 5, 58, 0
5, 55808, Note_on_c, 5, 60, 74
5, 55829, Note_off_c, 5, 60, 0
5, 55829, Note_on_c, 5, 61, 74
5, 55850, Note_off_c, 5, 61, 0
5, 55850, Note_on_c, 5, 63, 79
5, 55872, Note_off_c, 5, 63, 0
5, 55872, Note_on_c, 5, 72, 85
5, 55902, Note_off_c, 5, 72, 0
5, 56128, Note_on_c, 5, 52, 64
5, 56149, Note_off_c, 5, 52, 0
5, 56149, Note_on_c, 5, 57, 76
5, 56170, Note_off_c, 5, 57, 0
5, 56170, Note_on_c, 5, 58, 74
5, 56192, Note_off_c, 5, 58, 0
5, 56192, Note_on_c, 5, 60, 69
5, 56213, Note_off_c, 5, 60, 0
5, 56213, Note_on_c, 5, 61, 75
5, 56234, Note_off_c, 5, 61, 0
5, 56234, Note_on_c, 5, 63, 77
5, 56256, Note_off_c, 5, 63, 0
5, 56256, Note_on_c, 5, 72, 88
5, 56286, Note_off_c, 5, 72, 0
5, 56576, Note_on_c, 5, 52, 65
5, 56597, Note_off_c, 5, 52, 0
5, 56597, Note_on_c, 5, 57, 77
5, 56618, Note_off_c, 5, 57, 0
5, 56618, Note_on_c, 5, 58, 74
5, 56640, Note_off_c, 5, 58, 0
5, 56640, Note_on_c, 5, 60, 75
5, 56661, Note_off_c, 5, 60, 0
5, 56661, Note_on_c, 5, 61, 75
5, 56682, Note_off_c, 5, 61, 0
5, 56682, Note_on_c, 5, 63, 77
5, 56704, Note_off_c, 5, 63, 0
5, 56704, Note_on_c, 5, 72, 85
5, 56725, Note_off_c, 5, 72, 0
5, 56725, Note_on_c, 5, 69, 72
5, 56746, Note_off_c, 5, 69, 0
5, 56746, Note_on_c, 5, 75, 80
5, 56768, Note_off_c, 5, 75, 0
5, 56768, Note_on_c, 5, 73, 64
5, 56789, Note_off_c, 5, 73, 0
5, 56789, Note_on_c, 5, 72, 65
5, 56810, Note_off_c, 5, 72, 0
5, 56810, Note_on_c, 5, 69, 62
5, 56832, Note_off_c, 5, 69, 0
5, 56832, Note_on_c, 5, 65, 67
5, 56853, Note_off_c, 5, 65, 0
5, 56853, Note_on_c, 5, 63, 63
5, 56874, Note_off_c, 5, 63, 0
5, 56874, Note_on_c, 5, 55, 62
5, 56894, Note_off_c, 5, 55, 0
5, 57024, Note_on_c, 5, 52, 60
5, 57045, Note_off_c, 5, 52, 0
5, 57045, Note_on_c, 5, 57, 76
5, 57066, Note_off_c, 5, 57, 0
5, 57066, Note_on_c, 5, 58, 68
5, 57088, Note_off_c, 5, 58, 0
5, 57088, Note_on_c, 5, 60, 79
5, 57109, Note_off_c, 5, 60, 0
5, 57109, Note_on_c, 5, 61, 74
5, 57130, Note_off_c, 5, 61, 0
5, 57130, Note_on_c, 5, 63, 76
5, 57152, Note_off_c, 5, 63, 0
5, 57152, Note_on_c, 5, 72, 84
5, 57173, Note_off_c, 5, 72, 0
5, 57173, Note_on_c, 5, 69, 67
5, 57194, Note_off_c, 5, 69, 0
5, 57194, Note_on_c, 5, 75, 80
5, 57216, Note_off_c, 5, 75, 0
5, 57216, Note_on_c, 5, 73, 66
5, 57237, Note_off_c, 5, 73, 0
5, 57237, Note_on_c, 5, 72, 64
5, 57258, Note_off_c, 5, 72, 0
5, 57258, Note_on_c, 5, 73, 72
5, 57280, Note_off_c, 5, 73, 0
5, 57280, Note_on_c, 5, 75, 76
5, 57301, Note_off_c, 5, 75, 0
5, 57301, Note_on_c, 5, 73, 70
5, 57322, Note_off_c, 5, 73, 0
5, 57322, Note_on_c, 5, 77, 78
5, 57342, Note_off_c, 5, 77, 0
5, 57514, Note_on_c, 5, 50, 65
5, 57536, Note_off_c, 5, 50, 0
5, 57536, Note_on_c, 5, 60, 87
5, 57557, Note_off_c, 5, 60, 0
5, 57557, Note_on_c, 5, 61, 82
5, 57578, Note_off_c, 5, 61, 0
5, 57578, Note_on_c, 5, 63, 75
5, 57600, Note_off_c, 5, 63, 0
5, 57600, Note_on_c, 5, 64, 75
5, 57621, Note_off_c, 5, 64, 0
5, 57621, Note_on_c, 5, 65, 77
5, 57642, Note_off_c, 5, 65, 0
5, 57642, Note_on_c, 5, 69, 77
5, 57664, Note_off_c, 5, 69, 0
5, 57664, Note_on_c, 5, 72, 80
5, 57685, Note_off_c, 5, 72, 0
5, 57685, Note_on_c, 5, 78, 81
5, 57706, Note_off_c, 5, 78, 0
5, 57706, Note_on_c, 5, 76, 70
5, 57728, Note_off_c, 5, 76, 0
5, 57728, Note_on_c, 5, 75, 65
5, 57749, Note_off_c, 5, 75, 0
5, 57749, Note_on_c, 5, 72, 65
5, 57770, Note_off_c, 5, 72, 0
5, 57770, Note_on_c, 5, 68, 62
5, 57792, Note_off_c, 5, 68, 0
5, 57792, Note_on_c, 5, 65, 65
5, 57813, Note_off_c, 5, 65, 0
5, 57813, Note_on_c, 5, 61, 61
5, 57834, Note_off_c, 5, 61, 0
5, 57834, Note_on_c, 5, 55, 67
5, 57854, Note_off_c, 5, 55, 0
5, 57984, Note_on_c, 5, 52, 67
5, 58005, Note_off_c, 5, 52, 0
5, 58005, Note_on_c, 5, 57, 73
5, 58026, Note_off_c, 5, 57, 0
5, 58026, Note_on_c, 5, 58, 73
5, 58048, Note_off_c, 5, 58, 0
5, 58048, Note_on_c, 5, 60, 74
5, 58069, Note_off_c, 5, 60, 0
5, 58069, Note_on_c, 5, 61, 73
5, 58090, Note_off_c, 5, 61, 0
5, 58090, Note_on_c, 5, 63, 73
5, 58112, Note_off_c, 5, 63, 0
5, 58112, Note_on_c, 5, 72, 84
5, 58142, Note_off_c, 5, 72, 0
5, 58240, Note_on_c, 5, 52, 67
5, 58261, Note_off_c, 5, 52, 0
5, 58261, Note_on_c, 5, 57, 76
5, 58282, Note_off_c, 5, 57, 0
5, 58282, Note_on_c, 5, 58, 77
5, 58304, Note_off_c, 5, 58, 0
5, 58304, Note_on_c, 5, 60, 76
5, 58325, Note_off_c, 5, 60, 0
5, 58325, Note_on_c, 5, 61, 76
5, 58346, Note_off_c, 5, 61, 0
5, 58346, Note_on_c, 5, 63, 69
5, 58368, Note_off_c, 5, 63, 0
5, 58368, Note_on_c, 5, 72, 88
5, 58389, Note_off_c, 5, 72, 0
5, 58389, Note_on_c, 5, 69, 68
5, 58410, Note_off_c, 5, 69, 0
5, 58410, Note_on_c, 5, 75, 82
5, 58432, Note_off_c, 5, 75, 0
5, 58432, Note_on_c, 5, 73, 64
5, 58453, Note_off_c, 5, 73, 0
5, 58453, Note_on_c, 5, 72, 67
5, 58474, Note_off_c, 5, 72, 0
5, 58474, Note_on_c, 5, 73, 77
5, 58496, Note_off_c, 5, 73, 0
5, 58496, Note_on_c, 5, 75, 77
5, 58517, Note_off_c, 5, 75, 0
5, 58517, Note_on_c, 5, 77, 72
5, 58536, Note_off_c, 5, 77, 0
5, 58624, Note_on_c, 5, 52, 61
5, 58645, Note_off_c, 5, 52, 0
5, 58645, Note_on_c, 5, 57, 76
5, 58666, Note_off_c, 5, 57, 0
5, 58666, Note_on_c, 5, 58, 74
5, 58688, Note_off_c, 5, 58, 0
5, 58688, Note_on_c, 5, 60, 78
5, 58709, Note_off_c, 5, 60, 0
5, 58709, Note_on_c, 5, 61, 69
5, 58730, Note_off_c, 5, 61, 0
5, 58730, Note_on_c, 5, 63, 79
5, 58752, Note_off_c, 5, 63, 0
5, 58752, Note_on_c, 5, 72, 87
5, 58773, Note_off_c, 5, 72, 0
5, 58773, Note_on_c, 5, 69, 69
5, 58794, Note_off_c, 5, 69, 0
5, 58794, Note_on_c, 5, 75, 82
5, 58816, Note_off_c, 5, 75, 0
5, 58816, Note_on_c, 5, 73, 67
5, 58837, Note_off_c, 5, 73, 0
5, 58837, Note_on_c, 5, 72, 67
5, 58858, Note_off_c, 5, 72, 0
5, 58858, Note_on_c, 5, 69, 69
5, 58880, Note_off_c, 5, 69, 0
5, 58880, Note_on_c, 5, 65, 60
5, 58901, Note_off_c, 5, 65, 0
5, 58901, Note_on_c, 5, 61, 66
5, 58922, Note_off_c, 5, 61, 0
5, 58922, Note_on_c, 5, 60, 66
5, 58942, Note_off_c, 5, 60, 0
5, 59200, Note_on_c, 5, 56, 60
5, 59221, Note_off_c, 5, 56, 0
5, 59221, Note_on_c, 5, 58, 74
5, 59242, Note_off_c, 5, 58, 0
5, 59242, Note_on_c, 5, 60, 77
5, 59264, Note_off_c, 5, 60, 0
5, 59264, Note_on_c, 5, 61, 81
5, 59285, Note_off_c, 5, 61, 0
5, 59285, Note_on_c, 5, 63, 76
5, 59306, Note_off_c, 5, 63, 0
5, 59306, Note_on_c, 5, 72, 88
5, 59328, Note_off_c, 5, 72, 0
5, 59328, Note_on_c, 5, 73, 75
5, 59358, Note_off_c, 5, 73, 0
5, 59584, Note_on_c, 5, 56, 64
5, 59605, Note_off_c, 5, 56, 0
5, 59605, Note_on_c, 5, 58, 71
5, 59626, Note_off_c, 5, 58, 0
5, 59626, Note_on_c, 5, 60, 74
5, 59648, Note_off_c, 5, 60, 0
5, 59648, Note_on_c, 5, 61, 74
5, 59669, Note_off_c, 5, 61, 0
5, 59669, Note_on_c, 5, 63, 83
5, 59690, Note_off_c, 5, 63, 0
5, 59690, Note_on_c, 5, 72, 86
5, 59712, Note_off_c, 5, 72, 0
5, 59712, Note_on_c, 5, 75, 82
5, 59754, Note_off_c, 5, 75, 0
5, 59968, Note_on_c, 5, 52, 63
5, 59989, Note_off_c, 5, 52, 0
5, 59989, Note_on_c, 5, 57, 78
5, 60010, Note_off_c, 5, 57, 0
5, 60010, Note_on_c, 5, 58, 71
5, 60032, Note_off_c, 5, 58, 0
5, 60032, Note_on_c, 5, 60, 71
5, 60053, Note_off_c, 5, 60, 0
5, 60053, Note_on_c, 5, 63, 71
5, 60074, Note_off_c, 5, 63, 0
5, 60074, Note_on_c, 5, 61, 69
5, 60096, Note_off_c, 5, 61, 0
5, 60096, Note_on_c, 5, 69, 91
5, 60126, Note_off_c, 5, 69, 0
5, 60416, Note_on_c, 5, 52, 63
5, 60437, Note_off_c, 5, 52, 0
5, 60437, Note_on_c, 5, 57, 71
5, 60458, Note_off_c, 5, 57, 0
5, 60458, Note_on_c, 5, 58, 75
5, 60480, Note_off_c, 5, 58, 0
5, 60480, Note_on_c, 5, 63, 80
5, 60501, Note_off_c, 5, 63, 0
5, 60501, Note_on_c, 5, 65, 78
5, 60522, Note_off_c, 5, 65, 0
5, 60522, Note_on_c, 5, 68, 75
5, 60544, Note_off_c, 5, 68, 0
5, 60544, Note_on_c, 5, 75, 85
5, 60583, Note_off_c, 5, 75, 0
5, 60672, Note_on_c, 5, 52, 64
5, 60693, Note_off_c, 5, 52, 0
5, 60693, Note_on_c, 5, 57, 79
5, 60714, Note_off_c, 5, 57, 0
5, 60714, Note_on_c, 5, 58, 76
5, 60736, Note_off_c, 5, 58, 0
5, 60736, Note_on_c, 5, 60, 72
5, 60757, Note_off_c, 5, 60, 0
5, 60757, Note_on_c, 5, 61, 74
5, 60778, Note_off_c, 5, 61, 0
5, 60778, Note_on_c, 5, 63, 76
5, 60800, Note_off_c, 5, 63, 0
5, 60800, Note_on_c, 5, 72, 82
5, 60821, Note_off_c, 5, 72, 0
5, 60821, Note_on_c, 5, 68, 65
5, 60842, Note_off_c, 5, 68, 0
5, 60842, Note_on_c, 5, 75, 83
5, 60864, Note_off_c, 5, 75, 0
5, 60864, Note_on_c, 5, 73, 71
5, 60885, Note_off_c, 5, 73, 0
5, 60885, Note_on_c, 5, 72, 65
5, 60906, Note_off_c, 5, 72, 0
5, 60906, Note_on_c, 5, 68, 66
5, 60928, Note_off_c, 5, 68, 0
5, 60928, Note_on_c, 5, 65, 63
5, 60949, Note_off_c, 5, 65, 0
5, 60949, Note_on_c, 5, 63, 64
5, 60970, Note_off_c, 5, 63, 0
5, 60970, Note_on_c, 5, 55, 58
5, 60990, Note_off_c, 5, 55, 0
5, 61184, Note_on_c, 5, 64, 66
5, 61205, Note_off_c, 5, 64, 0
5, 61205, Note_on_c, 5, 57, 63
5, 61226, Note_off_c, 5, 57, 0
5, 61226, Note_on_c, 5, 58, 75
5, 61248, Note_off_c, 5, 58, 0
5, 61248, Note_on_c, 5, 60, 78
5, 61269, Note_off_c, 5, 60, 0
5, 61269, Note_on_c, 5, 61, 80
5, 61290, Note_off_c, 5, 61, 0
5, 61290, Note_on_c, 5, 63, 76
5, 61312, Note_off_c, 5, 63, 0
5, 61312, Note_on_c, 5, 72, 88
5, 61333, Note_off_c, 5, 72, 0
5, 61333, Note_on_c, 5, 68, 66
5, 61354, Note_off_c, 5, 68, 0
5, 61354, Note_on_c, 5, 75, 86
5, 61376, Note_off_c, 5, 75, 0
5, 61376, Note_on_c, 5, 73, 71
5, 61397, Note_off_c, 5, 73, 0
5, 61397, Note_on_c, 5, 72, 67
5, 61418, Note_off_c, 5, 72, 0
5, 61418, Note_on_c, 5, 68, 58
5, 61440, Note_off_c, 5, 68, 0
5, 61440, Note_on_c, 5, 65, 56
5, 61461, Note_off_c, 5, 65, 0
5, 61461, Note_on_c, 5, 68, 75
5, 61482, Note_off_c, 5, 68, 0
5, 61482, Note_on_c, 5, 72, 78
5, 61504, Note_off_c, 5, 72, 0
5, 61504, Note_on_c, 5, 75, 79
5, 61525, Note_off_c, 5, 75, 0
5, 61525, Note_on_c, 5, 72, 69
5, 61546, Note_off_c, 5, 72, 0
5, 61546, Note_on_c, 5, 77, 79
5, 61568, Note_off_c, 5, 77, 0
5, 61568, Note_on_c, 5, 78, 75
5, 61589, Note_off_c, 5, 78, 0
5, 61589, Note_on_c, 5, 75, 65
5, 61610, Note_off_c, 5, 75, 0
5, 61610, Note_on_c, 5, 80, 83
5, 61630, Note_off_c, 5, 80, 0
5, 61952, Note_on_c, 5, 57, 59
5, 61977, Note_off_c, 5, 57, 0
5, 61977, Note_on_c, 5, 58, 73
5, 62003, Note_off_c, 5, 58, 0
5, 62003, Note_on_c, 5, 60, 80
5, 62028, Note_off_c, 5, 60, 0
5, 62028, Note_on_c, 5, 61, 75
5, 62054, Note_off_c, 5, 61, 0
5, 62054, Note_on_c, 5, 63, 76
5, 62080, Note_off_c, 5, 63, 0
5, 62080, Note_on_c, 5, 65, 83
5, 62105, Note_off_c, 5, 65, 0
5, 62105, Note_on_c, 5, 60, 62
5, 62131, Note_off_c, 5, 60, 0
5, 62131, Note_on_c, 5, 61, 75
5, 62156, Note_off_c, 5, 61, 0
5, 62156, Note_on_c, 5, 63, 79
5, 62182, Note_off_c, 5, 63, 0
5, 62182, Note_on_c, 5, 65, 73
5, 62208, Note_off_c, 5, 65, 0
5, 62208, Note_on_c, 5, 68, 78
5, 62233, Note_off_c, 5, 68, 0
5, 62233, Note_on_c, 5, 72, 80
5, 62259, Note_off_c, 5, 72, 0
5, 62259, Note_on_c, 5, 73, 76
5, 62284, Note_off_c, 5, 73, 0
5, 62284, Note_on_c, 5, 75, 81
5, 62310, Note_off_c, 5, 75, 0
5, 62310, Note_on_c, 5, 70, 63
5, 62336, Note_off_c, 5, 70, 0
5, 62336, Note_on_c, 5, 72, 76
5, 62361, Note_off_c, 5, 72, 0
5, 62361, Note_on_c, 5, 73, 75
5, 62387, Note_off_c, 5, 73, 0
5, 62387, Note_on_c, 5, 68, 64
5, 62412, Note_off_c, 5, 68, 0
5, 62412, Note_on_c, 5, 70, 74
5, 62438, Note_off_c, 5, 70, 0
5, 62438, Note_on_c, 5, 72, 80
5, 62464, Note_off_c, 5, 72, 0
5, 62464, Note_on_c, 5, 73, 81
5, 62489, Note_off_c, 5, 73, 0
5, 62489, Note_on_c, 5, 74, 77
5, 62515, Note_off_c, 5, 74, 0
5, 62515, Note_on_c, 5, 76, 81
5, 62540, Note_off_c, 5, 76, 0
5, 62540, Note_on_c, 5, 78, 76
5, 62566, Note_off_c, 5, 78, 0
5, 62566, Note_on_c, 5, 80, 80
5, 62592, Note_off_c, 5, 80, 0
5, 62592, Note_on_c, 5, 83, 79
5, 62617, Note_off_c, 5, 83, 0
5, 62617, Note_on_c, 5, 81, 71
5, 62643, Note_off_c, 5, 81, 0
5, 62643, Note_on_c, 5, 80, 65
5, 62668, Note_off_c, 5, 80, 0
5, 62668, Note_on_c, 5, 78, 66
5, 62694, Note_off_c, 5, 78, 0
5, 62694, Note_on_c, 5, 76, 66
5, 62720, Note_off_c, 5, 76, 0
5, 62720, Note_on_c, 5, 74, 64
5, 62745, Note_off_c, 5, 74, 0
5, 62745, Note_on_c, 5, 72, 71
5, 62771, Note_off_c, 5, 72, 0
5, 62771, Note_on_c, 5, 74, 71
5, 62796, Note_off_c, 5, 74, 0
5, 62796, Note_on_c, 5, 69, 60
5, 62822, Note_off_c, 5, 69, 0
5, 62822, Note_on_c, 5, 66, 61
5, 62848, Note_off_c, 5, 66, 0
5, 62848, Note_on_c, 5, 64, 67
5, 62873, Note_off_c, 5, 64, 0
5, 62873, Note_on_c, 5, 61, 62
5, 62899, Note_off_c, 5, 61, 0
5, 62899, Note_on_c, 5, 62, 72
5, 62924, Note_off_c, 5, 62, 0
5, 62924, Note_on_c, 5, 57, 65
5, 62950, Note_off_c, 5, 57, 0
5, 62950, Note_on_c, 5, 56, 70
5, 62976, Note_off_c, 5, 56, 0
5, 62976, Note_on_c, 5, 59, 73
5, 62997, Note_off_c, 5, 59, 0
5, 62997, Note_on_c, 5, 61, 76
5, 63018, Note_off_c, 5, 61, 0
5, 63018, Note_on_c, 5, 62, 74
5, 63040, Note_off_c, 5, 62, 0
5, 63040, Note_on_c, 5, 64, 73
5, 63061, Note_off_c, 5, 64, 0
5, 63061, Note_on_c, 5, 62, 70
5, 63082, Note_off_c, 5, 62, 0
5, 63082, Note_on_c, 5, 66, 76
5, 63104, Note_off_c, 5, 66, 0
5, 63104, Note_on_c, 5, 61, 68
5, 63125, Note_off_c, 5, 61, 0
5, 63125, Note_on_c, 5, 62, 76
5, 63146, Note_off_c, 5, 62, 0
5, 63146, Note_on_c, 5, 64, 74
5, 63168, Note_off_c, 5, 64, 0
5, 63168, Note_on_c, 5, 70, 82
5, 63189, Note_off_c, 5, 70, 0
5, 63189, Note_on_c, 5, 68, 69
5, 63210, Note_off_c, 5, 68, 0
5, 63210, Note_on_c, 5, 69, 74
5, 63232, Note_off_c, 5, 69, 0
5, 63232, Note_on_c, 5, 71, 75
5, 63253, Note_off_c, 5, 71, 0
5, 63253, Note_on_c, 5, 73, 78
5, 63274, Note_off_c, 5, 73, 0
5, 63274, Note_on_c, 5, 74, 73
5, 63296, Note_off_c, 5, 74, 0
5, 63296, Note_on_c, 5, 76, 74
5, 63317, Note_off_c, 5, 76, 0
5, 63317, Note_on_c, 5, 73, 66
5, 63338, Note_off_c, 5, 73, 0
5, 63338, Note_on_c, 5, 74, 73
5, 63360, Note_off_c, 5, 74, 0
5, 63360, Note_on_c, 5, 76, 79
5, 63381, Note_off_c, 5, 76, 0
5, 63381, Note_on_c, 5, 78, 80
5, 63402, Note_off_c, 5, 78, 0
5, 63402, Note_on_c, 5, 80, 74
5, 63424, Note_off_c, 5, 80, 0
5, 63424, Note_on_c, 5, 81, 78
5, 63445, Note_off_c, 5, 81, 0
5, 63445, Note_on_c, 5, 83, 68
5, 63466, Note_off_c, 5, 83, 0
5, 63466, Note_on_c, 5, 81, 70
5, 63488, Note_off_c, 5, 81, 0
5, 63488, Note_on_c, 5, 85, 80
5, 63520, Note_off_c, 5, 85, 0
5, 63520, Note_on_c, 5, 81, 65
5, 63552, Note_off_c, 5, 81, 0
5, 63552, Note_on_c, 5, 78, 62
5, 63582, Note_off_c, 5, 78, 0
5, 63744, Note_on_c, 5, 51, 66
5, 63776, Note_off_c, 5, 51, 0
5, 63776, Note_on_c, 5, 53, 74
5, 63808, Note_off_c, 5, 53, 0
5, 63808, Note_on_c, 5, 55, 72
5, 63840, Note_off_c, 5, 55, 0
5, 63840, Note_on_c, 5, 57, 78
5, 63872, Note_off_c, 5, 57, 0
5, 63872, Note_on_c, 5, 58, 73
5, 63904, Note_off_c, 5, 58, 0
5, 63904, Note_on_c, 5, 51, 68
5, 63936, Note_off_c, 5, 51, 0
5, 63936, Note_on_c, 5, 53, 69
5, 63968, Note_off_c, 5, 53, 0
5, 63968, Note_on_c, 5, 51, 65
5, 64000, Note_off_c, 5, 51, 0
5, 64000, Note_on_c, 5, 55, 75
5, 64032, Note_off_c, 5, 55, 0
5, 64032, Note_on_c, 5, 57, 75
5, 64064, Note_off_c, 5, 57, 0
5, 64064, Note_on_c, 5, 60, 75
5, 64096, Note_off_c, 5, 60, 0
5, 64096, Note_on_c, 5, 57, 69
5, 64128, Note_off_c, 5, 57, 0
5, 64128, Note_on_c, 5, 61, 83
5, 64160, Note_off_c, 5, 61, 0
5, 64160, Note_on_c, 5, 54, 64
5, 64192, Note_off_c, 5, 54, 0
5, 64192, Note_on_c, 5, 55, 71
5, 64224, Note_off_c, 5, 55, 0
5, 64224, Note_on_c, 5, 57, 73
5, 64256, Note_off_c, 5, 57, 0
5, 64256, Note_on_c, 5, 60, 78
5, 64288, Note_off_c, 5, 60, 0
5, 64288, Note_on_c, 5, 58, 73
5, 64320, Note_off_c, 5, 58, 0
5, 64320, Note_on_c, 5, 61, 77
5, 64352, Note_off_c, 5, 61, 0
5, 64352, Note_on_c, 5, 63, 77
5, 64384, Note_off_c, 5, 63, 0
5, 64384, Note_on_c, 5, 65, 78
5, 64416, Note_off_c, 5, 65, 0
5, 64416, Note_on_c, 5, 62, 62
5, 64448, Note_off_c, 5, 62, 0
5, 64448, Note_on_c, 5, 63, 73
5, 64480, Note_off_c, 5, 63, 0
5, 64480, Note_on_c, 5, 66, 74
5, 64512, Note_off_c, 5, 66, 0
5, 64512, Note_on_c, 5, 67, 76
5, 64544, Note_off_c, 5, 67, 0
5, 64544, Note_on_c, 5, 68, 72
5, 64576, Note_off_c, 5, 68, 0
5, 64576, Note_on_c, 5, 71, 76
5, 64606, Note_off_c, 5, 71, 0
5, 64608, Note_on_c, 5, 63, 54
5, 64640, Note_off_c, 5, 63, 0
5, 64640, Note_on_c, 5, 67, 77
5, 64672, Note_off_c, 5, 67, 0
5, 64672, Note_on_c, 5, 70, 78
5, 64704, Note_off_c, 5, 70, 0
5, 64704, Note_on_c, 5, 71, 75
5, 64736, Note_off_c, 5, 71, 0
5, 64736, Note_on_c, 5, 73, 78
5, 64768, Note_off_c, 5, 73, 0
5, 64768, Note_on_c, 5, 75, 79
5, 64800, Note_off_c, 5, 75, 0
5, 64800, Note_on_c, 5, 73, 67
5, 64832, Note_off_c, 5, 73, 0
5, 64832, Note_on_c, 5, 78, 79
5, 64864, Note_off_c, 5, 78, 0
5, 64864, Note_on_c, 5, 76, 70
5, 64896, Note_off_c, 5, 76, 0
5, 64896, Note_on_c, 5, 75, 66
5, 64928, Note_off_c, 5, 75, 0
5, 64928, Note_on_c, 5, 73, 67
5, 64960, Note_off_c, 5, 73, 0
5, 64960, Note_on_c, 5, 71, 67
5, 64992, Note_off_c, 5, 71, 0
5, 64992, Note_on_c, 5, 70, 67
5, 65024, Note_off_c, 5, 70, 0
5, 65024, Note_on_c, 5, 68, 61
5, 65056, Note_off_c, 5, 68, 0
5, 65056, Note_on_c, 5, 66, 65
5, 65088, Note_off_c, 5, 66, 0
5, 65088, Note_on_c, 5, 64, 68
5, 65120, Note_off_c, 5, 64, 0
5, 65120, Note_on_c, 5, 63, 67
5, 65152, Note_off_c, 5, 63, 0
5, 65152, Note_on_c, 5, 61, 67
5, 65184, Note_off_c, 5, 61, 0
5, 65184, Note_on_c, 5, 56, 65
5, 65216, Note_off_c, 5, 56, 0
5, 65216, Note_on_c, 5, 59, 75
5, 65248, Note_off_c, 5, 59, 0
5, 65248, Note_on_c, 5, 61, 75
5, 65280, Note_off_c, 5, 61, 0
5, 65280, Note_on_c, 5, 63, 75
5, 65312, Note_off_c, 5, 63, 0
5, 65312, Note_on_c, 5, 64, 77
5, 65344, Note_off_c, 5, 64, 0
5, 65344, Note_on_c, 5, 66, 79
5, 65376, Note_off_c, 5, 66, 0
5, 65376, Note_on_c, 5, 68, 77
5, 65408, Note_off_c, 5, 68, 0
5, 65408, Note_on_c, 5, 72, 82
5, 65440, Note_off_c, 5, 72, 0
5, 65440, Note_on_c, 5, 73, 77
5, 65472, Note_off_c, 5, 73, 0
5, 65472, Note_on_c, 5, 75, 74
5, 65504, Note_off_c, 5, 75, 0
5, 65504, Note_on_c, 5, 76, 75
5, 65536, Note_off_c, 5, 76, 0
5, 65536, Note_on_c, 5, 78, 80
5, 65568, Note_off_c, 5, 78, 0
5, 65568, Note_on_c, 5, 80, 74
5, 65600, Note_off_c, 5, 80, 0
5, 65600, Note_on_c, 5, 78, 70
5, 65632, Note_off_c, 5, 78, 0
5, 65632, Note_on_c, 5, 76, 70
5, 65664, Note_off_c, 5, 76, 0
5, 65664, Note_on_c, 5, 75, 64
5, 65696, Note_off_c, 5, 75, 0
5, 65696, Note_on_c, 5, 73, 61
5, 65728, Note_off_c, 5, 73, 0
5, 65728, Note_on_c, 5, 71, 63
5, 65760, Note_off_c, 5, 71, 0
5, 65760, Note_on_c, 5, 70, 70
5, 65792, Note_off_c, 5, 70, 0
5, 65792, Note_on_c, 5, 68, 68
5, 65824, Note_off_c, 5, 68, 0
5, 65824, Note_on_c, 5, 66, 66
5, 65856, Note_off_c, 5, 66, 0
5, 65856, Note_on_c, 5, 63, 62
5, 65888, Note_off_c, 5, 63, 0
5, 65888, Note_on_c, 5, 64, 70
5, 65920, Note_off_c, 5, 64, 0
5, 65920, Note_on_c, 5, 68, 80
5, 65952, Note_off_c, 5, 68, 0
5, 65952, Note_on_c, 5, 56, 63
5, 66043, Note_off_c, 5, 56, 0
5, 66048, Note_on_c, 5, 63, 86
5, 66080, Note_off_c, 5, 63, 0
5, 66080, Note_on_c, 5, 64, 73
5, 66112, Note_off_c, 5, 64, 0
5, 66112, Note_on_c, 5, 68, 79
5, 66144, Note_off_c, 5, 68, 0
5, 66144, Note_on_c, 5, 56, 59
5, 66240, Note_on_c, 5, 64, 72
5, 66241, Note_off_c, 5, 56, 0
5, 66272, Note_off_c, 5, 64, 0
5, 66272, Note_on_c, 5, 66, 80
5, 66302, Note_off_c, 5, 66, 0
5, 66304, Note_on_c, 5, 71, 84
5, 66336, Note_off_c, 5, 71, 0
5, 66336, Note_on_c, 5, 63, 63
5, 66432, Note_on_c, 5, 68, 70
5, 66433, Note_off_c, 5, 63, 0
5, 66464, Note_off_c, 5, 68, 0
5, 66464, Note_on_c, 5, 70, 76
5, 66496, Note_off_c, 5, 70, 0
5, 66496, Note_on_c, 5, 75, 80
5, 66528, Note_off_c, 5, 75, 0
5, 66528, Note_on_c, 5, 59, 60
5, 66588, Note_off_c, 5, 59, 0
5, 66592, Note_on_c, 5, 70, 87
5, 66624, Note_off_c, 5, 70, 0
5, 66624, Note_on_c, 5, 71, 78
5, 66656, Note_off_c, 5, 71, 0
5, 66656, Note_on_c, 5, 70, 67
5, 66688, Note_off_c, 5, 70, 0
5, 66688, Note_on_c, 5, 68, 68
5, 66720, Note_off_c, 5, 68, 0
5, 66720, Note_on_c, 5, 66, 72
5, 66752, Note_off_c, 5, 66, 0
5, 66752, Note_on_c, 5, 64, 64
5, 66784, Note_off_c, 5, 64, 0
5, 66784, Note_on_c, 5, 63, 64
5, 66816, Note_off_c, 5, 63, 0
5, 66816, Note_on_c, 5, 61, 66
5, 66848, Note_off_c, 5, 61, 0
5, 66848, Note_on_c, 5, 59, 72
5, 66880, Note_off_c, 5, 59, 0
5, 66880, Note_on_c, 5, 58, 71
5, 66912, Note_off_c, 5, 58, 0
5, 66912, Note_on_c, 5, 56, 65
5, 66944, Note_off_c, 5, 56, 0
5, 66944, Note_on_c, 5, 54, 69
5, 66976, Note_off_c, 5, 54, 0
5, 66976, Note_on_c, 5, 52, 68
5, 67008, Note_off_c, 5, 52, 0
5, 67008, Note_on_c, 5, 51, 69
5, 67040, Note_off_c, 5, 51, 0
5, 67040, Note_on_c, 5, 52, 72
5, 67072, Note_off_c, 5, 52, 0
5, 67072, Note_on_c, 5, 54, 74
5, 67104, Note_off_c, 5, 54, 0
5, 67104, Note_on_c, 5, 56, 77
5, 67136, Note_off_c, 5, 56, 0
5, 67136, Note_on_c, 5, 58, 77
5, 67168, Note_off_c, 5, 58, 0
5, 67168, Note_on_c, 5, 59, 74
5, 67200, Note_off_c, 5, 59, 0
5, 67200, Note_on_c, 5, 60, 78
5, 67232, Note_off_c, 5, 60, 0
5, 67232, Note_on_c, 5, 64, 82
5, 67264, Note_off_c, 5, 64, 0
5, 67264, Note_on_c, 5, 66, 78
5, 67296, Note_off_c, 5, 66, 0
5, 67296, Note_on_c, 5, 67, 73
5, 67328, Note_off_c, 5, 67, 0
5, 67328, Note_on_c, 5, 69, 79
5, 67358, Note_off_c, 5, 69, 0
5, 77619, Note_on_c, 5, 53, 52
5, 77619, Note_on_c, 5, 56, 52
5, 77644, Note_off_c, 5, 53, 0
5, 77644, Note_off_c, 5, 56, 0
5, 77644, Note_on_c, 5, 56, 65
5, 77644, Note_on_c, 5, 60, 65
5, 77670, Note_off_c, 5, 56, 0
5, 77670, Note_off_c, 5, 60, 0
5, 77670, Note_on_c, 5, 61, 67
5, 77670, Note_on_c, 5, 65, 67
5, 77696, Note_off_c, 5, 61, 0
5, 77696, Note_off_c, 5, 65, 0
5, 77696, Note_on_c, 5, 65, 68
5, 77696, Note_on_c, 5, 68, 68
5, 77721, Note_off_c, 5, 65, 0
5, 77721, Note_off_c, 5, 68, 0
5, 77721, Note_on_c, 5, 68, 69
5, 77721, Note_on_c, 5, 72, 69
5, 77747, Note_off_c, 5, 68, 0
5, 77747, Note_off_c, 5, 72, 0
5, 77747, Note_on_c, 5, 73, 67
5, 77747, Note_on_c, 5, 77, 67
5, 77772, Note_off_c, 5, 73, 0
5, 77772, Note_off_c, 5, 77, 0
5, 77772, Note_on_c, 5, 77, 60
5, 77796, Note_off_c, 5, 77, 0
5, 78003, Note_on_c, 5, 53, 67
5, 78003, Note_on_c, 5, 57, 67
5, 78028, Note_off_c, 5, 53, 0
5, 78028, Note_off_c, 5, 57, 0
5, 78028, Note_on_c, 5, 57, 80
5, 78028, Note_on_c, 5, 64, 80
5, 78054, Note_off_c, 5, 57, 0
5, 78054, Note_off_c, 5, 64, 0
5, 78054, Note_on_c, 5, 65, 84
5, 78054, Note_on_c, 5, 69, 84
5, 78080, Note_off_c, 5, 65, 0
5, 78080, Note_off_c, 5, 69, 0
5, 78080, Note_on_c, 5, 69, 75
5, 78080, Note_on_c, 5, 72, 75
5, 78105, Note_off_c, 5, 69, 0
5, 78105, Note_off_c, 5, 72, 0
5, 78105, Note_on_c, 5, 72, 80
5, 78105, Note_on_c, 5, 76, 80
5, 78131, Note_off_c, 5, 72, 0
5, 78131, Note_off_c, 5, 76, 0
5, 78131, Note_on_c, 5, 77, 77
5, 78131, Note_on_c, 5, 81, 77
5, 78156, Note_off_c, 5, 77, 0
5, 78156, Note_off_c, 5, 81, 0
5, 78156, Note_on_c, 5, 81, 79
5, 78156, Note_on_c, 5, 84, 79
5, 78180, Note_off_c, 5, 81, 0
5, 78180, Note_off_c, 5, 84, 0
5, 78336, Note_on_c, 5, 51, 61
5, 78336, Note_on_c, 5, 53, 61
5, 78361, Note_off_c, 5, 51, 0
5, 78361, Note_off_c, 5, 53, 0
5, 78361, Note_on_c, 5, 53, 77
5, 78361, Note_on_c, 5, 58, 77
5, 78387, Note_off_c, 5, 53, 0
5, 78387, Note_off_c, 5, 58, 0
5, 78387, Note_on_c, 5, 58, 83
5, 78387, Note_on_c, 5, 63, 83
5, 78412, Note_off_c, 5, 58, 0
5, 78412, Note_off_c, 5, 63, 0
5, 78412, Note_on_c, 5, 65, 84
5, 78412, Note_on_c, 5, 70, 84
5, 78438, Note_off_c, 5, 65, 0
5, 78438, Note_off_c, 5, 70, 0
5, 78438, Note_on_c, 5, 70, 80
5, 78438, Note_on_c, 5, 75, 80
5, 78464, Note_off_c, 5, 70, 0
5, 78464, Note_off_c, 5, 75, 0
5, 78464, Note_on_c, 5, 75, 70
5, 78464, Note_on_c, 5, 77, 70
5, 78489, Note_off_c, 5, 75, 0
5, 78489, Note_off_c, 5, 77, 0
5, 78489, Note_on_c, 5, 77, 83
5, 78489, Note_on_c, 5, 82, 83
5, 78515, Note_off_c, 5, 77, 0
5, 78515, Note_off_c, 5, 82, 0
5, 78515, Note_on_c, 5, 82, 75
5, 78538, Note_off_c, 5, 82, 0
5, 78848, Note_on_c, 5, 51, 62
5, 78848, Note_on_c, 5, 53, 62
5, 78873, Note_off_c, 5, 51, 0
5, 78873, Note_off_c, 5, 53, 0
5, 78873, Note_on_c, 5, 53, 73
5, 78873, Note_on_c, 5, 58, 73
5, 78899, Note_off_c, 5, 53, 0
5, 78899, Note_off_c, 5, 58, 0
5, 78899, Note_on_c, 5, 58, 81
5, 78899, Note_on_c, 5, 63, 81
5, 78924, Note_off_c, 5, 58, 0
5, 78924, Note_off_c, 5, 63, 0
5, 78924, Note_on_c, 5, 63, 79
5, 78924, Note_on_c, 5, 65, 79
5, 78950, Note_off_c, 5, 63, 0
5, 78950, Note_off_c, 5, 65, 0
5, 78950, Note_on_c, 5, 70, 89
5, 78950, Note_on_c, 5, 75, 89
5, 78976, Note_off_c, 5, 70, 0
5, 78976, Note_off_c, 5, 75, 0
5, 78976, Note_on_c, 5, 75, 83
5, 78976, Note_on_c, 5, 77, 83
5, 79001, Note_off_c, 5, 75, 0
5, 79001, Note_off_c, 5, 77, 0
5, 79001, Note_on_c, 5, 77, 79
5, 79001, Note_on_c, 5, 82, 79
5, 79025, Note_off_c, 5, 77, 0
5, 79025, Note_off_c, 5, 82, 0
5, 79129, Note_on_c, 5, 80, 61
5, 79129, Note_on_c, 5, 84, 61
5, 79155, Note_off_c, 5, 80, 0
5, 79155, Note_off_c, 5, 84, 0
5, 79155, Note_on_c, 5, 73, 61
5, 79155, Note_on_c, 5, 80, 61
5, 79180, Note_off_c, 5, 73, 0
5, 79180, Note_off_c, 5, 80, 0
5, 79180, Note_on_c, 5, 68, 55
5, 79180, Note_on_c, 5, 72, 55
5, 79206, Note_off_c, 5, 68, 0
5, 79206, Note_off_c, 5, 72, 0
5, 79206, Note_on_c, 5, 65, 59
5, 79206, Note_on_c, 5, 68, 59
5, 79232, Note_off_c, 5, 65, 0
5, 79232, Note_off_c, 5, 68, 0
5, 79232, Note_on_c, 5, 61, 66
5, 79232, Note_on_c, 5, 65, 66
5, 79257, Note_off_c, 5, 61, 0
5, 79257, Note_off_c, 5, 65, 0
5, 79257, Note_on_c, 5, 56, 61
5, 79257, Note_on_c, 5, 60, 61
5, 79283, Note_off_c, 5, 56, 0
5, 79283, Note_off_c, 5, 60, 0
5, 79283, Note_on_c, 5, 53, 65
5, 79283, Note_on_c, 5, 56, 65
5, 79306, Note_off_c, 5, 53, 0
5, 79306, Note_off_c, 5, 56, 0
5, 79334, Note_on_c, 5, 76, 67
5, 79334, Note_on_c, 5, 80, 67
5, 79360, Note_off_c, 5, 76, 0
5, 79360, Note_off_c, 5, 80, 0
5, 79360, Note_on_c, 5, 71, 61
5, 79360, Note_on_c, 5, 75, 61
5, 79385, Note_off_c, 5, 71, 0
5, 79385, Note_off_c, 5, 75, 0
5, 79385, Note_on_c, 5, 68, 63
5, 79385, Note_on_c, 5, 71, 63
5, 79411, Note_off_c, 5, 68, 0
5, 79411, Note_off_c, 5, 71, 0
5, 79411, Note_on_c, 5, 64, 67
5, 79411, Note_on_c, 5, 68, 67
5, 79434, Note_off_c, 5, 64, 0
5, 79434, Note_off_c, 5, 68, 0
5, 79436, Note_on_c, 5, 80, 90
5, 79436, Note_on_c, 5, 84, 90
5, 79462, Note_off_c, 5, 80, 0
5, 79462, Note_off_c, 5, 84, 0
5, 79462, Note_on_c, 5, 77, 64
5, 79462, Note_on_c, 5, 80, 64
5, 79488, Note_off_c, 5, 77, 0
5, 79488, Note_off_c, 5, 80, 0
5, 79488, Note_on_c, 5, 73, 69
5, 79488, Note_on_c, 5, 77, 69
5, 79513, Note_off_c, 5, 73, 0
5, 79513, Note_off_c, 5, 77, 0
5, 79513, Note_on_c, 5, 68, 58
5, 79513, Note_on_c, 5, 72, 58
5, 79539, Note_off_c, 5, 68, 0
5, 79539, Note_off_c, 5, 72, 0
5, 79539, Note_on_c, 5, 65, 61
5, 79539, Note_on_c, 5, 68, 61
5, 79564, Note_off_c, 5, 65, 0
5, 79564, Note_off_c, 5, 68, 0
5, 79564, Note_on_c, 5, 56, 52
5, 79564, Note_on_c, 5, 60, 52
5, 79590, Note_off_c, 5, 56, 0
5, 79590, Note_off_c, 5, 60, 0
5, 79590, Note_on_c, 5, 53, 62
5, 79590, Note_on_c, 5, 56, 62
5, 79614, Note_off_c, 5, 53, 0
5, 79614, Note_off_c, 5, 56, 0
5, 79872, Note_on_c, 5, 52, 78
5, 79872, Note_on_c, 5, 55, 78
5, 79897, Note_off_c, 5, 52, 0
5, 79897, Note_off_c, 5, 55, 0
5, 79897, Note_on_c, 5, 55, 100
5, 79897, Note_on_c, 5, 62, 100
5, 79923, Note_off_c, 5, 55, 0
5, 79923, Note_off_c, 5, 62, 0
5, 79923, Note_on_c, 5, 58, 93
5, 79923, Note_on_c, 5, 64, 93
5, 79948, Note_off_c, 5, 58, 0
5, 79948, Note_off_c, 5, 64, 0
5, 79948, Note_on_c, 5, 62, 86
5, 79948, Note_on_c, 5, 65, 86
5, 79974, Note_off_c, 5, 62, 0
5, 79974, Note_off_c, 5, 65, 0
5, 79974, Note_on_c, 5, 67, 104
5, 79974, Note_on_c, 5, 74, 104
5, 80000, Note_off_c, 5, 67, 0
5, 80000, Note_off_c, 5, 74, 0
5, 80000, Note_on_c, 5, 70, 95
5, 80000, Note_on_c, 5, 76, 95
5, 80025, Note_off_c, 5, 70, 0
5, 80025, Note_off_c, 5, 76, 0
5, 80025, Note_on_c, 5, 72, 90
5, 80025, Note_on_c, 5, 77, 90
5, 80051, Note_off_c, 5, 72, 0
5, 80051, Note_off_c, 5, 77, 0
5, 80051, Note_on_c, 5, 74, 93
5, 80051, Note_on_c, 5, 80, 93
5, 80074, Note_off_c, 5, 74, 0
5, 80074, Note_off_c, 5, 80, 0
5, 80128, Note_on_c, 5, 55, 74
5, 80128, Note_on_c, 5, 61, 74
5, 80153, Note_off_c, 5, 55, 0
5, 80153, Note_off_c, 5, 61, 0
5, 80153, Note_on_c, 5, 58, 87
5, 80153, Note_on_c, 5, 65, 87
5, 80179, Note_off_c, 5, 58, 0
5, 80179, Note_off_c, 5, 65, 0
5, 80179, Note_on_c, 5, 61, 91
5, 80179, Note_on_c, 5, 67, 91
5, 80204, Note_off_c, 5, 61, 0
5, 80204, Note_off_c, 5, 67, 0
5, 80204, Note_on_c, 5, 67, 92
5, 80204, Note_on_c, 5, 70, 92
5, 80230, Note_off_c, 5, 67, 0
5, 80230, Note_off_c, 5, 70, 0
5, 80230, Note_on_c, 5, 70, 104
5, 80230, Note_on_c, 5, 77, 104
5, 80256, Note_off_c, 5, 70, 0
5, 80256, Note_off_c, 5, 77, 0
5, 80256, Note_on_c, 5, 74, 94
5, 80256, Note_on_c, 5, 79, 94
5, 80281, Note_off_c, 5, 74, 0
5, 80281, Note_off_c, 5, 79, 0
5, 80281, Note_on_c, 5, 76, 89
5, 80281, Note_on_c, 5, 81, 89
5, 80307, Note_off_c, 5, 76, 0
5, 80307, Note_off_c, 5, 81, 0
5, 80307, Note_on_c, 5, 77, 89
5, 80307, Note_on_c, 5, 83, 89
5, 80332, Note_off_c, 5, 77, 0
5, 80332, Note_off_c, 5, 83, 0
5, 80332, Note_on_c, 5, 79, 95
5, 80332, Note_on_c, 5, 87, 95
5, 80356, Note_off_c, 5, 79, 0
5, 80356, Note_off_c, 5, 87, 0
5, 80512, Note_on_c, 5, 52, 77
5, 80512, Note_on_c, 5, 56, 77
5, 80548, Note_off_c, 5, 52, 0
5, 80548, Note_off_c, 5, 56, 0
5, 80548, Note_on_c, 5, 56, 93
5, 80548, Note_on_c, 5, 60, 93
5, 80585, Note_off_c, 5, 56, 0
5, 80585, Note_off_c, 5, 60, 0
5, 80585, Note_on_c, 5, 60, 93
5, 80585, Note_on_c, 5, 64, 93
5, 80621, Note_off_c, 5, 60, 0
5, 80621, Note_off_c, 5, 64, 0
5, 80621, Note_on_c, 5, 60, 90
5, 80621, Note_on_c, 5, 66, 90
5, 80658, Note_off_c, 5, 60, 0
5, 80658, Note_off_c, 5, 66, 0
5, 80658, Note_on_c, 5, 64, 92
5, 80658, Note_on_c, 5, 68, 92
5, 80694, Note_off_c, 5, 64, 0
5, 80694, Note_off_c, 5, 68, 0
5, 80694, Note_on_c, 5, 66, 93
5, 80694, Note_on_c, 5, 72, 93
5, 80731, Note_off_c, 5, 66, 0
5, 80731, Note_off_c, 5, 72, 0
5, 80731, Note_on_c, 5, 68, 93
5, 80731, Note_on_c, 5, 76, 93
5, 80768, Note_off_c, 5, 68, 0
5, 80768, Note_off_c, 5, 76, 0
5, 80768, Note_on_c, 5, 66, 76
5, 80768, Note_on_c, 5, 71, 76
5, 80802, Note_off_c, 5, 66, 0
5, 80802, Note_off_c, 5, 71, 0
5, 80804, Note_on_c, 5, 76, 104
5, 80804, Note_on_c, 5, 81, 104
5, 80832, Note_on_c, 5, 45, 87
5, 80841, Note_off_c, 5, 76, 0
5, 80841, Note_off_c, 5, 81, 0
5, 80841, Note_on_c, 5, 71, 81
5, 80841, Note_on_c, 5, 78, 81
5, 80877, Note_off_c, 5, 71, 0
5, 80877, Note_off_c, 5, 78, 0
5, 80877, Note_on_c, 5, 80, 94
5, 80877, Note_on_c, 5, 84, 94
5, 80914, Note_off_c, 5, 80, 0
5, 80914, Note_off_c, 5, 84, 0
5, 80914, Note_on_c, 5, 77, 75
5, 80914, Note_on_c, 5, 80, 75
5, 80950, Note_off_c, 5, 77, 0
5, 80950, Note_off_c, 5, 80, 0
5, 80950, Note_on_c, 5, 73, 77
5, 80950, Note_on_c, 5, 77, 77
5, 80960, Note_off_c, 5, 45, 0
5, 80960, Note_on_c, 5, 45, 97
5, 80987, Note_off_c, 5, 73, 0
5, 80987, Note_off_c, 5, 77, 0
5, 80987, Note_on_c, 5, 68, 71
5, 80987, Note_on_c, 5, 72, 71
5, 81024, Note_off_c, 5, 68, 0
5, 81024, Note_off_c, 5, 72, 0
5, 81024, Note_on_c, 5, 65, 74
5, 81024, Note_on_c, 5, 68, 74
5, 81060, Note_off_c, 5, 65, 0
5, 81060, Note_off_c, 5, 68, 0
5, 81060, Note_on_c, 5, 61, 73
5, 81060, Note_on_c, 5, 65, 73
5, 81088, Note_off_c, 5, 45, 0
5, 81088, Note_on_c, 5, 45, 99
5, 81097, Note_off_c, 5, 61, 0
5, 81097, Note_off_c, 5, 65, 0
5, 81097, Note_on_c, 5, 60, 78
5, 81097, Note_on_c, 5, 63, 78
5, 81133, Note_off_c, 5, 60, 0
5, 81133, Note_off_c, 5, 63, 0
5, 81133, Note_on_c, 5, 58, 76
5, 81133, Note_on_c, 5, 61, 76
5, 81170, Note_off_c, 5, 58, 0
5, 81170, Note_off_c, 5, 61, 0
5, 81170, Note_on_c, 5, 56, 82
5, 81170, Note_on_c, 5, 59, 82
5, 81206, Note_off_c, 5, 56, 0
5, 81206, Note_off_c, 5, 59, 0
5, 81206, Note_on_c, 5, 52, 78
5, 81206, Note_on_c, 5, 56, 78
5, 81216, Note_off_c, 5, 45, 0
5, 81216, Note_on_c, 5, 45, 98
5, 81243, Note_off_c, 5, 52, 0
5, 81243, Note_off_c, 5, 56, 0
5, 81243, Note_on_c, 5, 51, 79
5, 81243, Note_on_c, 5, 55, 79
5, 81278, Note_off_c, 5, 51, 0
5, 81278, Note_off_c, 5, 55, 0
5, 81344, Note_off_c, 5, 45, 0
5, 81344, Note_on_c, 5, 45, 98
5, 81472, Note_off_c, 5, 45, 0
5, 81472, Note_on_c, 5, 45, 98
5, 81536, Note_on_c, 5, 70, 73
5, 81536, Note_on_c, 5, 75, 73
5, 81572, Note_off_c, 5, 70, 0
5, 81572, Note_off_c, 5, 75, 0
5, 81572, Note_on_c, 5, 65, 73
5, 81572, Note_on_c, 5, 71, 73
5, 81600, Note_off_c, 5, 45, 0
5, 81600, Note_on_c, 5, 38, 98
5, 81600, Note_on_c, 5, 45, 98
5, 81609, Note_off_c, 5, 65, 0
5, 81609, Note_off_c, 5, 71, 0
5, 81609, Note_on_c, 5, 63, 68
5, 81609, Note_on_c, 5, 65, 68
5, 81645, Note_off_c, 5, 63, 0
5, 81645, Note_off_c, 5, 65, 0
5, 81645, Note_on_c, 5, 61, 76
5, 81645, Note_on_c, 5, 63, 76
5, 81682, Note_off_c, 5, 61, 0
5, 81682, Note_off_c, 5, 63, 0
5, 81682, Note_on_c, 5, 59, 77
5, 81682, Note_on_c, 5, 61, 77
5, 81718, Note_off_c, 5, 59, 0
5, 81718, Note_off_c, 5, 61, 0
5, 81718, Note_on_c, 5, 56, 77
5, 81718, Note_on_c, 5, 59, 77
5, 81728, Note_off_c, 5, 38, 0
5, 81728, Note_off_c, 5, 45, 0
5, 81728, Note_on_c, 5, 38, 97
5, 81728, Note_on_c, 5, 45, 97
5, 81753, Note_off_c, 5, 56, 0
5, 81753, Note_off_c, 5, 59, 0
5, 81856, Note_off_c, 5, 38, 0
5, 81856, Note_off_c, 5, 45, 0
5, 81856, Note_on_c, 5, 38, 97
5, 81856, Note_on_c, 5, 45, 97
5, 81984, Note_off_c, 5, 38, 0
5, 81984, Note_off_c, 5, 45, 0
5, 81984, Note_on_c, 5, 38, 88
5, 82112, Note_off_c, 5, 38, 0
5, 82112, Note_on_c, 5, 38, 93
5, 82240, Note_off_c, 5, 38, 0
5, 82240, Note_on_c, 5, 38, 96
5, 82368, Note_off_c, 5, 38, 0
5, 82368, Note_on_c, 5, 38, 99
5, 82496, Note_off_c, 5, 38, 0
5, 82496, Note_on_c, 5, 38, 100
5, 82624, Note_off_c, 5, 38, 0
5, 82624, Note_on_c, 5, 38, 97
5, 82752, Note_off_c, 5, 38, 0
5, 82752, Note_on_c, 5, 43, 102
5, 82880, Note_off_c, 5, 43, 0
5, 82880, Note_on_c, 5, 43, 100
5, 83008, Note_off_c, 5, 43, 0
5, 83008, Note_on_c, 5, 43, 99
5, 83136, Note_off_c, 5, 43, 0
5, 83136, Note_on_c, 5, 43, 102
5, 83264, Note_off_c, 5, 43, 0
5, 83264, Note_on_c, 5, 43, 98
5, 83392, Note_off_c, 5, 43, 0
5, 83392, Note_on_c, 5, 43, 98
5, 83520, Note_off_c, 5, 43, 0
5, 83520, Note_on_c, 5, 43, 94
5, 83648, Note_off_c, 5, 43, 0
5, 83648, Note_on_c, 5, 43, 97
5, 83776, Note_off_c, 5, 43, 0
5, 83776, Note_on_c, 5, 43, 98
5, 83904, Note_off_c, 5, 43, 0
5, 83904, Note_on_c, 5, 43, 97
5, 84032, Note_off_c, 5, 43, 0
5, 84032, Note_on_c, 5, 43, 99
5, 84160, Note_off_c, 5, 43, 0
5, 84160, Note_on_c, 5, 43, 97
5, 84288, Note_off_c, 5, 43, 0
5, 84288, Note_on_c, 5, 48, 109
5, 84416, Note_off_c, 5, 48, 0
5, 84416, Note_on_c, 5, 48, 101
5, 84544, Note_off_c, 5, 48, 0
5, 84544, Note_on_c, 5, 48, 95
5, 84672, Note_off_c, 5, 48, 0
5, 84672, Note_on_c, 5, 48, 100
5, 84800, Note_off_c, 5, 48, 0
5, 84800, Note_on_c, 5, 48, 97
5, 84928, Note_off_c, 5, 48, 0
5, 84928, Note_on_c, 5, 48, 97
5, 85120, Note_off_c, 5, 48, 0
5, 85120, Note_on_c, 5, 48, 97
5, 85312, Note_off_c, 5, 48, 0
5, 85312, Note_on_c, 5, 48, 93
5, 85440, Note_off_c, 5, 48, 0
5, 85440, Note_on_c, 5, 48, 95
5, 85504, Note_off_c, 5, 48, 0
5, 85504, Note_on_c, 5, 48, 100
5, 85632, Note_off_c, 5, 48, 0
5, 85632, Note_on_c, 5, 48, 96
5, 85824, Note_off_c, 5, 48, 0
5, 85824, Note_on_c, 5, 48, 98
5, 85952, Note_off_c, 5, 48, 0
5, 85952, Note_on_c, 5, 48, 96
5, 86080, Note_off_c, 5, 48, 0
5, 86080, Note_on_c, 5, 48, 101
5, 86208, Note_off_c, 5, 48, 0
5, 86208, Note_on_c, 5, 48, 96
5, 86272, Note_off_c, 5, 48, 0
5, 86272, Note_on_c, 5, 48, 94
5, 86400, Note_off_c, 5, 48, 0
5, 86400, Note_on_c, 5, 48, 98
5, 86592, Note_off_c, 5, 48, 0
5, 86592, Note_on_c, 5, 48, 102
5, 86720, Note_off_c, 5, 48, 0
5, 86720, Note_on_c, 5, 48, 90
5, 86848, Note_off_c, 5, 48, 0
5, 86848, Note_on_c, 5, 48, 94
5, 86976, Note_off_c, 5, 48, 0
5, 86976, Note_on_c, 5, 48, 97
5, 87104, Note_off_c, 5, 48, 0
5, 87104, Note_on_c, 5, 48, 94
5, 87232, Note_off_c, 5, 48, 0
5, 87232, Note_on_c, 5, 48, 97
5, 87360, Note_off_c, 5, 48, 0
5, 87360, Note_on_c, 5, 48, 98
5, 87488, Note_off_c, 5, 48, 0
5, 87488, Note_on_c, 5, 48, 92
5, 87616, Note_off_c, 5, 48, 0
5, 87616, Note_on_c, 5, 48, 96
5, 87744, Note_off_c, 5, 48, 0
5, 87744, Note_on_c, 5, 48, 97
5, 87808, Note_off_c, 5, 48, 0
5, 87808, Note_on_c, 5, 48, 98
5, 87936, Note_off_c, 5, 48, 0
5, 87936, Note_on_c, 5, 48, 95
5, 88064, Note_off_c, 5, 48, 0
5, 88064, Note_on_c, 5, 48, 98
5, 88256, Note_off_c, 5, 48, 0
5, 88256, Note_on_c, 5, 48, 97
5, 88384, Note_off_c, 5, 48, 0
5, 88384, Note_on_c, 5, 48, 100
5, 88512, Note_off_c, 5, 48, 0
5, 88512, Note_on_c, 5, 45, 93
5, 88576, Note_off_c, 5, 45, 0
5, 88576, Note_on_c, 5, 45, 98
5, 88704, Note_off_c, 5, 45, 0
5, 88704, Note_on_c, 5, 45, 96
5, 88896, Note_off_c, 5, 45, 0
5, 88896, Note_on_c, 5, 45, 101
5, 89024, Note_off_c, 5, 45, 0
5, 89024, Note_on_c, 5, 45, 97
5, 89152, Note_off_c, 5, 45, 0
5, 89152, Note_on_c, 5, 45, 101
5, 89216, Note_off_c, 5, 45, 0
5, 89216, Note_on_c, 5, 39, 89
5, 89408, Note_off_c, 5, 39, 0
5, 89408, Note_on_c, 5, 39, 93
5, 89536, Note_off_c, 5, 39, 0
5, 89536, Note_on_c, 5, 39, 92
5, 89664, Note_off_c, 5, 39, 0
5, 89664, Note_on_c, 5, 39, 98
5, 89792, Note_off_c, 5, 39, 0
5, 89792, Note_on_c, 5, 39, 96
5, 89984, Note_off_c, 5, 39, 0
5, 89984, Note_on_c, 5, 39, 103
5, 90112, Note_off_c, 5, 39, 0
5, 90112, Note_on_c, 5, 39, 100
5, 90304, Note_off_c, 5, 39, 0
5, 90304, Note_on_c, 5, 39, 95
5, 90432, Note_off_c, 5, 39, 0
5, 90432, Note_on_c, 5, 39, 96
5, 90560, Note_off_c, 5, 39, 0
5, 90560, Note_on_c, 5, 39, 97
5, 90688, Note_off_c, 5, 39, 0
5, 90688, Note_on_c, 5, 39, 97
5, 90752, Note_off_c, 5, 39, 0
5, 90752, Note_on_c, 5, 58, 110
5, 90944, Note_off_c, 5, 58, 0
5, 90944, Note_on_c, 5, 58, 100
5, 91072, Note_off_c, 5, 58, 0
5, 91072, Note_on_c, 5, 48, 86
5, 91136, Note_off_c, 5, 48, 0
5, 91136, Note_on_c, 5, 48, 99
5, 91264, Note_off_c, 5, 48, 0
5, 91264, Note_on_c, 5, 48, 99
5, 91456, Note_off_c, 5, 48, 0
5, 91456, Note_on_c, 5, 48, 97
5, 91584, Note_off_c, 5, 48, 0
5, 91584, Note_on_c, 5, 48, 102
5, 91712, Note_off_c, 5, 48, 0
5, 91712, Note_on_c, 5, 48, 99
5, 91840, Note_off_c, 5, 48, 0
5, 91840, Note_on_c, 5, 48, 101
5, 91968, Note_off_c, 5, 48, 0
5, 91968, Note_on_c, 5, 48, 102
5, 92032, Note_off_c, 5, 48, 0
5, 92032, Note_on_c, 5, 48, 96
5, 92160, Note_off_c, 5, 48, 0
5, 92160, Note_on_c, 5, 48, 97
5, 92288, Note_off_c, 5, 48, 0
5, 92288, Note_on_c, 5, 42, 94
5, 92416, Note_off_c, 5, 42, 0
5, 92416, Note_on_c, 5, 42, 96
5, 92544, Note_off_c, 5, 42, 0
5, 92544, Note_on_c, 5, 42, 97
5, 92608, Note_off_c, 5, 42, 0
5, 92608, Note_on_c, 5, 42, 100
5, 92736, Note_off_c, 5, 42, 0
5, 92736, Note_on_c, 5, 42, 101
5, 92864, Note_off_c, 5, 42, 0
5, 92864, Note_on_c, 5, 42, 96
5, 93056, Note_off_c, 5, 42, 0
5, 93056, Note_on_c, 5, 42, 98
5, 93184, Note_off_c, 5, 42, 0
5, 93184, Note_on_c, 5, 45, 103
5, 93312, Note_off_c, 5, 45, 0
5, 93312, Note_on_c, 5, 45, 100
5, 93440, Note_off_c, 5, 45, 0
5, 93440, Note_on_c, 5, 45, 102
5, 93504, Note_off_c, 5, 45, 0
5, 93504, Note_on_c, 5, 45, 98
5, 93696, Note_off_c, 5, 45, 0
5, 93696, Note_on_c, 5, 45, 101
5, 93824, Note_off_c, 5, 45, 0
5, 93824, Note_on_c, 5, 45, 103
5, 93888, Note_off_c, 5, 45, 0
5, 93888, Note_on_c, 5, 45, 106
5, 94016, Note_off_c, 5, 45, 0
5, 94016, Note_on_c, 5, 45, 96
5, 94208, Note_off_c, 5, 45, 0
5, 94208, Note_on_c, 5, 45, 93
5, 94272, Note_off_c, 5, 45, 0
5, 94272, Note_on_c, 5, 46, 103
5, 94528, Note_off_c, 5, 46, 0
5, 94528, Note_on_c, 5, 46, 101
5, 94656, Note_off_c, 5, 46, 0
5, 94656, Note_on_c, 5, 46, 92
5, 94720, Note_off_c, 5, 46, 0
5, 94720, Note_on_c, 5, 46, 96
5, 94912, Note_off_c, 5, 46, 0
5, 94912, Note_on_c, 5, 46, 100
5, 95104, Note_off_c, 5, 46, 0
5, 95104, Note_on_c, 5, 46, 100
5, 95296, Note_off_c, 5, 46, 0
5, 95296, Note_on_c, 5, 47, 97
5, 95680, Note_off_c, 5, 47, 0
5, 95680, Note_on_c, 5, 47, 95
5, 95808, Note_off_c, 5, 47, 0
5, 95808, Note_on_c, 5, 47, 100
5, 96000, Note_off_c, 5, 47, 0
5, 96064, Note_on_c, 5, 40, 90
5, 96064, Note_on_c, 5, 47, 90
5, 96192, Note_off_c, 5, 40, 0
5, 96192, Note_off_c, 5, 47, 0
5, 96192, Note_on_c, 5, 40, 90
5, 96192, Note_on_c, 5, 47, 90
5, 96320, Note_off_c, 5, 40, 0
5, 96320, Note_off_c, 5, 47, 0
5, 96320, Note_on_c, 5, 47, 117
5, 96448, Note_off_c, 5, 47, 0
5, 96448, Note_on_c, 5, 47, 114
5, 96576, Note_off_c, 5, 47, 0
5, 96576, Note_on_c, 5, 47, 116
5, 96704, Note_off_c, 5, 47, 0
5, 96704, Note_on_c, 5, 40, 116
5, 96704, Note_on_c, 5, 47, 116
5, 96832, Note_off_c, 5, 40, 0
5, 96832, Note_off_c, 5, 47, 0
5, 96832, Note_on_c, 5, 47, 114
5, 96960, Note_off_c, 5, 47, 0
5, 96960, Note_on_c, 5, 47, 116
5, 97088, Note_off_c, 5, 47, 0
5, 97088, Note_on_c, 5, 42, 106
5, 97216, Note_off_c, 5, 42, 0
5, 97216, Note_on_c, 5, 48, 122
5, 97344, Note_off_c, 5, 48, 0
5, 97344, Note_on_c, 5, 48, 113
5, 97472, Note_off_c, 5, 48, 0
5, 97472, Note_on_c, 5, 48, 108
5, 97600, Note_off_c, 5, 48, 0
5, 97600, Note_on_c, 5, 48, 118
5, 97728, Note_off_c, 5, 48, 0
5, 97728, Note_on_c, 5, 42, 103
5, 97856, Note_off_c, 5, 42, 0
5, 97856, Note_on_c, 5, 48, 124
5, 97984, Note_off_c, 5, 48, 0
5, 97984, Note_on_c, 5, 48, 116
5, 98112, Note_off_c, 5, 48, 0
5, 98112, Note_on_c, 5, 48, 114
5, 98240, Note_off_c, 5, 48, 0
5, 98240, Note_on_c, 5, 48, 113
5, 98368, Note_off_c, 5, 48, 0
5, 98368, Note_on_c, 5, 49, 114
5, 98496, Note_off_c, 5, 49, 0
5, 98496, Note_on_c, 5, 49, 111
5, 98624, Note_off_c, 5, 49, 0
5, 98624, Note_on_c, 5, 49, 115
5, 98752, Note_off_c, 5, 49, 0
5, 98752, Note_on_c, 5, 49, 112
5, 98880, Note_off_c, 5, 49, 0
5, 98880, Note_on_c, 5, 49, 114
5, 99008, Note_off_c, 5, 49, 0
5, 99008, Note_on_c, 5, 49, 110
5, 99136, Note_off_c, 5, 49, 0
5, 99136, Note_on_c, 5, 49, 113
5, 99264, Note_off_c, 5, 49, 0
5, 99264, Note_on_c, 5, 49, 112
5, 99392, Note_off_c, 5, 49, 0
5, 99392, Note_on_c, 5, 49, 114
5, 99520, Note_off_c, 5, 49, 0
5, 99520, Note_on_c, 5, 49, 111
5, 99648, Note_off_c, 5, 49, 0
5, 99648, Note_on_c, 5, 49, 113
5, 99776, Note_off_c, 5, 49, 0
5, 99776, Note_on_c, 5, 49, 118
5, 99904, Note_off_c, 5, 49, 0
5, 99904, Note_on_c, 5, 49, 115
5, 100032, Note_off_c, 5, 49, 0
5, 100032, Note_on_c, 5, 49, 116
5, 100160, Note_off_c, 5, 49, 0
5, 100160, Note_on_c, 5, 49, 111
5, 100288, Note_off_c, 5, 49, 0
5, 100288, Note_on_c, 5, 49, 112
5, 100416, Note_off_c, 5, 49, 0
5, 100416, Note_on_c, 5, 49, 114
5, 100544, Note_off_c, 5, 49, 0
5, 100544, Note_on_c, 5, 49, 111
5, 100672, Note_off_c, 5, 49, 0
5, 100672, Note_on_c, 5, 49, 116
5, 100800, Note_off_c, 5, 49, 0
5, 100800, Note_on_c, 5, 49, 115
5, 100928, Note_off_c, 5, 49, 0
5, 100928, Note_on_c, 5, 49, 115
5, 101056, Note_off_c, 5, 49, 0
5, 101056, Note_on_c, 5, 49, 113
5, 101184, Note_off_c, 5, 49, 0
5, 101184, Note_on_c, 5, 49, 111
5, 101312, Note_off_c, 5, 49, 0
5, 101312, Note_on_c, 5, 37, 99
5, 101440, Note_off_c, 5, 37, 0
5, 101440, Note_on_c, 5, 37, 113
5, 101568, Note_off_c, 5, 37, 0
5, 101568, Note_on_c, 5, 37, 108
5, 101696, Note_off_c, 5, 37, 0
5, 101696, Note_on_c, 5, 37, 103
5, 101824, Note_off_c, 5, 37, 0
5, 101824, Note_on_c, 5, 37, 104
5, 101952, Note_off_c, 5, 37, 0
5, 101952, Note_on_c, 5, 37, 99
5, 102080, Note_off_c, 5, 37, 0
5, 102080, Note_on_c, 5, 37, 100
5, 102208, Note_off_c, 5, 37, 0
5, 102208, Note_on_c, 5, 37, 97
5, 102336, Note_off_c, 5, 37, 0
5, 102336, Note_on_c, 5, 37, 93
5, 102464, Note_off_c, 5, 37, 0
5, 102464, Note_on_c, 5, 37, 92
5, 102592, Note_off_c, 5, 37, 0
5, 102592, Note_on_c, 5, 42, 96
5, 102720, Note_off_c, 5, 42, 0
5, 102720, Note_on_c, 5, 42, 84
5, 102848, Note_off_c, 5, 42, 0
5, 102848, Note_on_c, 5, 42, 80
5, 102976, Note_off_c, 5, 42, 0
5, 102976, Note_on_c, 5, 42, 78
5, 103104, Note_off_c, 5, 42, 0
5, 103104, Note_on_c, 5, 42, 77
5, 103232, Note_off_c, 5, 42, 0
5, 103232, Note_on_c, 5, 42, 74
5, 103360, Note_off_c, 5, 42, 0
5, 103360, Note_on_c, 5, 41, 69
5, 103808, Note_off_c, 5, 41, 0
5, 104533, Note_on_c, 5, 49, 66
5, 105045, Note_off_c, 5, 49, 0
5, 105045, Note_on_c, 5, 38, 52
5, 105642, Note_off_c, 5, 38, 0
5, 105642, Note_on_c, 5, 36, 39
5, 106496, Note_off_c, 5, 36, 0
5, 144896, Note_on_c, 5, 42, 118
5, 145024, Note_off_c, 5, 42, 0
5, 145280, Note_on_c, 5, 42, 121
5, 145408, Note_off_c, 5, 42, 0
5, 145664, Note_on_c, 5, 42, 118
5, 145792, Note_off_c, 5, 42, 0
5, 146048, Note_on_c, 5, 42, 116
5, 146176, Note_off_c, 5, 42, 0
5, 146944, Note_on_c, 5, 42, 121
5, 147072, Note_off_c, 5, 42, 0
5, 147328, Note_on_c, 5, 42, 121
5, 147456, Note_off_c, 5, 42, 0
5, 147712, Note_on_c, 5, 42, 120
5, 147840, Note_off_c, 5, 42, 0
5, 148096, Note_on_c, 5, 42, 121
5, 148224, Note_off_c, 5, 42, 0
5, 148992, Note_on_c, 5, 42, 117
5, 149120, Note_off_c, 5, 42, 0
5, 149376, Note_on_c, 5, 42, 124
5, 149504, Note_off_c, 5, 42, 0
5, 149760, Note_on_c, 5, 42, 119
5, 149888, Note_off_c, 5, 42, 0
5, 150144, Note_on_c, 5, 43, 122
5, 150272, Note_off_c, 5, 43, 0
5, 150528, Note_on_c, 5, 45, 124
5, 150656, Note_off_c, 5, 45, 0
5, 151552, Note_on_c, 5, 42, 88
5, 151680, Note_off_c, 5, 42, 0
5, 151936, Note_on_c, 5, 43, 87
5, 152064, Note_off_c, 5, 43, 0
5, 152320, Note_on_c, 5, 45, 93
5, 152448, Note_off_c, 5, 45, 0
5, 153600, Note_on_c, 5, 42, 86
5, 153728, Note_off_c, 5, 42, 0
5, 153984, Note_on_c, 5, 43, 91
5, 154112, Note_off_c, 5, 43, 0
5, 154368, Note_on_c, 5, 45, 90
5, 154496, Note_off_c, 5, 45, 0
5, 154752, Note_on_c, 5, 42, 89
5, 154880, Note_off_c, 5, 42, 0
5, 155136, Note_on_c, 5, 43, 87
5, 155264, Note_off_c, 5, 43, 0
5, 155648, Note_on_c, 5, 45, 90
5, 155904, Note_off_c, 5, 45, 0
5, 156416, Note_on_c, 5, 42, 90
5, 156544, Note_off_c, 5, 42, 0
5, 156800, Note_on_c, 5, 43, 89
5, 156928, Note_off_c, 5, 43, 0
5, 157184, Note_on_c, 5, 45, 87
5, 157312, Note_off_c, 5, 45, 0
5, 157568, Note_on_c, 5, 47, 89
5, 157696, Note_off_c, 5, 47, 0
5, 158080, Note_on_c, 5, 42, 84
5, 158208, Note_off_c, 5, 42, 0
5, 158976, Note_on_c, 5, 42, 91
5, 159104, Note_off_c, 5, 42, 0
5, 159360, Note_on_c, 5, 43, 89
5, 159488, Note_off_c, 5, 43, 0
5, 160512, Note_on_c, 5, 57, 116
5, 160640, Note_off_c, 5, 57, 0
5, 160896, Note_on_c, 5, 59, 117
5, 161024, Note_off_c, 5, 59, 0
5, 161536, Note_on_c, 5, 54, 122
5, 161664, Note_off_c, 5, 54, 0
5, 162432, Note_on_c, 5, 54, 119
5, 162560, Note_off_c, 5, 54, 0
5, 163328, Note_on_c, 5, 52, 122
5, 163456, Note_off_c, 5, 52, 0
5, 163840, Note_on_c, 5, 54, 118
5, 163968, Note_off_c, 5, 54, 0
5, 164608, Note_on_c, 5, 52, 121
5, 164736, Note_off_c, 5, 52, 0
5, 165120, Note_on_c, 5, 54, 117
5, 165248, Note_off_c, 5, 54, 0
5, 165632, Note_on_c, 5, 52, 118
5, 165760, Note_off_c, 5, 52, 0
5, 166144, Note_on_c, 5, 52, 117
5, 166272, Note_off_c, 5, 52, 0
5, 166400, Note_on_c, 5, 54, 116
5, 166528, Note_off_c, 5, 54, 0
5, 166656, Note_on_c, 5, 55, 124
5, 166784, Note_off_c, 5, 55, 0
5, 166912, Note_on_c, 5, 53, 120
5, 167040, Note_off_c, 5, 53, 0
5, 167168, Note_on_c, 5, 55, 117
5, 167296, Note_off_c, 5, 55, 0
5, 167424, Note_on_c, 5, 53, 117
5, 167552, Note_off_c, 5, 53, 0
5, 167680, Note_on_c, 5, 55, 116
5, 167808, Note_off_c, 5, 55, 0
5, 167936, Note_on_c, 5, 53, 92
5, 167987, Note_off_c, 5, 53, 0
5, 168106, Note_on_c, 5, 55, 99
5, 168157, Note_off_c, 5, 55, 0
5, 168277, Note_on_c, 5, 53, 94
5, 168328, Note_off_c, 5, 53, 0
5, 168448, Note_on_c, 5, 55, 103
5, 168499, Note_off_c, 5, 55, 0
5, 168618, Note_on_c, 5, 53, 96
5, 168669, Note_off_c, 5, 53, 0
5, 168789, Note_on_c, 5, 55, 106
5, 168840, Note_off_c, 5, 55, 0
5, 168960, Note_on_c, 5, 54, 99
5, 169011, Note_off_c, 5, 54, 0
5, 169130, Note_on_c, 5, 57, 103
5, 169181, Note_off_c, 5, 57, 0
5, 169301, Note_on_c, 5, 52, 91
5, 169352, Note_off_c, 5, 52, 0
5, 169472, Note_on_c, 5, 53, 101
5, 169523, Note_off_c, 5, 53, 0
5, 169642, Note_on_c, 5, 55, 99
5, 169693, Note_off_c, 5, 55, 0
5, 169813, Note_on_c, 5, 57, 101
5, 169864, Note_off_c, 5, 57, 0
5, 169984, Note_on_c, 5, 54, 99
5, 170035, Note_off_c, 5, 54, 0
5, 170154, Note_on_c, 5, 57, 102
5, 170205, Note_off_c, 5, 57, 0
5, 170325, Note_on_c, 5, 52, 91
5, 170376, Note_off_c, 5, 52, 0
5, 170496, Note_on_c, 5, 53, 100
5, 170547, Note_off_c, 5, 53, 0
5, 170666, Note_on_c, 5, 55, 102
5, 170717, Note_off_c, 5, 55, 0
5, 170837, Note_on_c, 5, 57, 100
5, 170888, Note_off_c, 5, 57, 0
5, 171008, Note_on_c, 5, 55, 93
5, 171050, Note_off_c, 5, 55, 0
5, 171093, Note_on_c, 5, 57, 102
5, 171135, Note_off_c, 5, 57, 0
5, 171264, Note_on_c, 5, 53, 88
5, 171340, Note_off_c, 5, 53, 0
5, 171520, Note_on_c, 5, 57, 103
5, 171571, Note_off_c, 5, 57, 0
5, 171690, Note_on_c, 5, 57, 94
5, 171741, Note_off_c, 5, 57, 0
5, 171861, Note_on_c, 5, 58, 99
5, 171912, Note_off_c, 5, 58, 0
5, 172032, Note_on_c, 5, 58, 97
5, 172083, Note_off_c, 5, 58, 0
5, 172202, Note_on_c, 5, 57, 96
5, 172253, Note_off_c, 5, 57, 0
5, 172373, Note_on_c, 5, 58, 98
5, 172424, Note_off_c, 5, 58, 0
5, 172544, Note_on_c, 5, 60, 104
5, 172595, Note_off_c, 5, 60, 0
5, 172714, Note_on_c, 5, 57, 96
5, 172765, Note_off_c, 5, 57, 0
5, 172885, Note_on_c, 5, 58, 102
5, 172936, Note_off_c, 5, 58, 0
5, 173056, Note_on_c, 5, 58, 100
5, 173107, Note_off_c, 5, 58, 0
5, 173226, Note_on_c, 5, 60, 107
5, 173277, Note_off_c, 5, 60, 0
5, 173397, Note_on_c, 5, 57, 100
5, 173448, Note_off_c, 5, 57, 0
5, 173568, Note_on_c, 5, 58, 97
5, 173593, Note_off_c, 5, 58, 0
5, 173653, Note_on_c, 5, 52, 88
5, 173678, Note_off_c, 5, 52, 0
5, 173824, Note_on_c, 5, 53, 90
5, 173900, Note_off_c, 5, 53, 0
5, 174080, Note_on_c, 5, 52, 96
5, 174131, Note_off_c, 5, 52, 0
5, 174250, Note_on_c, 5, 54, 100
5, 174301, Note_off_c, 5, 54, 0
5, 174421, Note_on_c, 5, 55, 96
5, 174472, Note_off_c, 5, 55, 0
5, 174592, Note_on_c, 5, 57, 101
5, 174617, Note_off_c, 5, 57, 0
5, 174762, Note_on_c, 5, 55, 90
5, 174787, Note_off_c, 5, 55, 0
5, 174848, Note_on_c, 5, 57, 97
5, 174873, Note_off_c, 5, 57, 0
5, 175018, Note_on_c, 5, 58, 87
5, 175043, Note_off_c, 5, 58, 0
5, 175189, Note_on_c, 5, 60, 90
5, 175214, Note_off_c, 5, 60, 0
5, 175360, Note_on_c, 5, 62, 87
5, 175385, Note_off_c, 5, 62, 0
5, 175616, Note_on_c, 5, 62, 84
5, 175641, Note_off_c, 5, 62, 0
5, 175701, Note_on_c, 5, 62, 99
5, 175726, Note_off_c, 5, 62, 0
5, 175957, Note_on_c, 5, 62, 88
5, 175982, Note_off_c, 5, 62, 0
5, 176213, Note_on_c, 5, 43, 88
5, 176238, Note_off_c, 5, 43, 0
5, 176554, Note_on_c, 5, 43, 86
5, 176579, Note_off_c, 5, 43, 0
5, 176981, Note_on_c, 5, 43, 90
5, 177006, Note_off_c, 5, 43, 0
5, 177322, Note_on_c, 5, 43, 91
5, 177347, Note_off_c, 5, 43, 0
5, 177578, Note_on_c, 5, 43, 84
5, 177689, Note_off_c, 5, 43, 0
5, 177749, Note_on_c, 5, 43, 97
5, 177774, Note_off_c, 5, 43, 0
5, 178090, Note_on_c, 5, 43, 84
5, 178115, Note_off_c, 5, 43, 0
5, 178602, Note_on_c, 5, 43, 91
5, 178627, Note_off_c, 5, 43, 0
5, 178944, Note_on_c, 5, 43, 89
5, 178969, Note_off_c, 5, 43, 0
5, 179200, Note_on_c, 5, 43, 91
5, 179225, Note_off_c, 5, 43, 0
5, 179541, Note_on_c, 5, 43, 87
5, 179566, Note_off_c, 5, 43, 0
5, 179882, Note_on_c, 5, 43, 89
5, 179933, Note_off_c, 5, 43, 0
5, 180053, Note_on_c, 5, 43, 98
5, 180104, Note_off_c, 5, 43, 0
5, 180224, Note_on_c, 5, 43, 98
5, 180275, Note_off_c, 5, 43, 0
5, 180394, Note_on_c, 5, 41, 94
5, 180445, Note_off_c, 5, 41, 0
5, 180736, Note_on_c, 5, 41, 87
5, 180787, Note_off_c, 5, 41, 0
5, 181077, Note_on_c, 5, 41, 84
5, 181128, Note_off_c, 5, 41, 0
5, 181248, Note_on_c, 5, 41, 98
5, 181299, Note_off_c, 5, 41, 0
5, 210752, Note_on_c, 5, 34, 101
5, 213248, Note_off_c, 5, 34, 0
5, 213248, Note_on_c, 5, 34, 114
5, 214144, Note_off_c, 5, 34, 0
5, 214144, Note_on_c, 5, 34, 119
5, 214144, Note_on_c, 5, 36, 119
5, 217216, Note_off_c, 5, 34, 0
5, 218112, Note_on_c, 5, 33, 109
5, 218624, Note_off_c, 5, 36, 0
5, 218624, Note_off_c, 5, 33, 0
5, 218880, Note_on_c, 5, 48, 122
5, 219008, Note_off_c, 5, 48, 0
5, 219520, Note_on_c, 5, 48, 122
5, 219648, Note_off_c, 5, 48, 0
5, 220330, Note_on_c, 5, 48, 124
5, 220501, Note_off_c, 5, 48, 0
5, 221098, Note_on_c, 5, 48, 120
5, 221269, Note_off_c, 5, 48, 0
5, 221866, Note_on_c, 5, 48, 119
5, 222208, Note_off_c, 5, 48, 0
5, 222592, Note_on_c, 5, 48, 120
5, 222848, Note_off_c, 5, 48, 0
5, 223402, Note_on_c, 5, 48, 121
5, 223573, Note_off_c, 5, 48, 0
5, 223744, Note_on_c, 5, 36, 122
5, 224000, Note_off_c, 5, 36, 0
5, 224256, Note_on_c, 5, 48, 127
5, 224384, Note_on_c, 5, 36, 127
5, 224386, Note_off_c, 5, 48, 0
5, 224505, Note_off_c, 5, 36, 0
5, 224768, Note_on_c, 5, 48, 127
5, 224896, Note_off_c, 5, 48, 0
5, 225024, Note_on_c, 5, 48, 127
5, 225152, Note_on_c, 5, 36, 127
5, 225154, Note_off_c, 5, 48, 0
5, 225273, Note_off_c, 5, 36, 0
5, 225621, Note_on_c, 5, 48, 123
5, 225706, Note_off_c, 5, 48, 0
5, 225920, Note_on_c, 5, 48, 124
5, 226048, Note_on_c, 5, 36, 127
5, 226050, Note_off_c, 5, 48, 0
5, 226169, Note_off_c, 5, 36, 0
5, 226432, Note_on_c, 5, 48, 119
5, 226560, Note_off_c, 5, 48, 0
5, 226816, Note_on_c, 5, 48, 124
5, 226986, Note_off_c, 5, 48, 0
5, 226986, Note_on_c, 5, 36, 116
5, 227157, Note_off_c, 5, 36, 0
5, 227456, Note_on_c, 5, 48, 125
5, 227584, Note_off_c, 5, 48, 0
5, 227712, Note_on_c, 5, 48, 122
5, 227882, Note_off_c, 5, 48, 0
5, 227882, Note_on_c, 5, 36, 119
5, 228096, Note_off_c, 5, 36, 0
5, 228224, Note_on_c, 5, 48, 123
5, 228352, Note_off_c, 5, 48, 0
5, 228608, Note_on_c, 5, 48, 127
5, 228864, Note_on_c, 5, 36, 127
5, 228869, Note_off_c, 5, 48, 0
5, 228985, Note_off_c, 5, 36, 0
5, 229248, Note_on_c, 5, 48, 127
5, 229376, Note_off_c, 5, 48, 0
5, 229504, Note_on_c, 5, 36, 127
5, 229632, Note_off_c, 5, 36, 0
5, 229760, Note_on_c, 5, 48, 127
5, 229888, Note_off_c, 5, 48, 0
5, 230144, Note_on_c, 5, 44, 127
5, 230272, Note_off_c, 5, 44, 0
5, 230528, Note_on_c, 5, 44, 127
5, 230656, Note_off_c, 5, 44, 0
5, 230912, Note_on_c, 5, 44, 127
5, 231040, Note_off_c, 5, 44, 0
5, 231296, Note_on_c, 5, 44, 127
5, 231424, Note_off_c, 5, 44, 0
5, 231680, Note_on_c, 5, 44, 127
5, 231808, Note_off_c, 5, 44, 0
5, 232064, Note_on_c, 5, 47, 127
5, 232192, Note_off_c, 5, 47, 0
5, 232448, Note_on_c, 5, 45, 127
5, 232576, Note_off_c, 5, 45, 0
5, 232832, Note_on_c, 5, 36, 127
5, 232960, Note_off_c, 5, 36, 0
5, 233344, Note_on_c, 5, 39, 127
5, 233472, Note_off_c, 5, 39, 0
5, 233856, Note_on_c, 5, 40, 127
5, 233984, Note_off_c, 5, 40, 0
5, 234240, Note_on_c, 5, 39, 127
5, 234368, Note_off_c, 5, 39, 0
5, 234880, Note_on_c, 5, 41, 127
5, 235008, Note_off_c, 5, 41, 0
5, 235264, Note_on_c, 5, 41, 127
5, 235392, Note_off_c, 5, 41, 0
5, 235648, Note_on_c, 5, 41, 127
5, 235776, Note_off_c, 5, 41, 0
5, 236032, Note_on_c, 5, 41, 127
5, 236160, Note_off_c, 5, 41, 0
5, 236416, Note_on_c, 5, 41, 127
5, 236544, Note_off_c, 5, 41, 0
5, 236800, Note_on_c, 5, 41, 127
5, 236928, Note_off_c, 5, 41, 0
5, 237184, Note_on_c, 5, 41, 127
5, 237312, Note_off_c, 5, 41, 0
5, 237568, Note_on_c, 5, 41, 127
5, 237696, Note_off_c, 5, 41, 0
5, 237824, Note_on_c, 5, 38, 127
5, 238016, Note_off_c, 5, 38, 0
5, 238208, Note_on_c, 5, 35, 127
5, 238400, Note_off_c, 5, 35, 0
5, 238592, Note_on_c, 5, 44, 127
5, 238784, Note_off_c, 5, 44, 0
5, 238976, Note_on_c, 5, 41, 127
5, 239168, Note_off_c, 5, 41, 0
5, 239360, Note_on_c, 5, 38, 127
5, 239552, Note_off_c, 5, 38, 0
5, 239680, Note_on_c, 5, 37, 127
5, 239872, Note_off_c, 5, 37, 0
5, 251136, Note_on_c, 5, 43, 65
5, 260608, Note_on_c, 5, 51, 71
5, 261632, Note_off_c, 5, 43, 0
5, 262656, Note_on_c, 5, 44, 71
5, 265472, Note_off_c, 5, 51, 0
5, 265472, Note_off_c, 5, 44, 0
5, 379392, Note_on_c, 5, 51, 101
5, 379456, Note_off_c, 5, 51, 0
5, 379520, Note_on_c, 5, 51, 111
5, 379584, Note_off_c, 5, 51, 0
5, 379648, Note_on_c, 5, 52, 113
5, 379712, Note_off_c, 5, 52, 0
5, 379776, Note_on_c, 5, 52, 113
5, 379840, Note_off_c, 5, 52, 0
5, 379904, Note_on_c, 5, 54, 115
5, 379968, Note_off_c, 5, 54, 0
5, 380032, Note_on_c, 5, 54, 114
5, 380096, Note_off_c, 5, 54, 0
5, 380160, Note_on_c, 5, 55, 117
5, 380224, Note_off_c, 5, 55, 0
5, 380288, Note_on_c, 5, 55, 109
5, 380352, Note_off_c, 5, 55, 0
5, 380416, Note_on_c, 5, 55, 113
5, 380480, Note_off_c, 5, 55, 0
5, 380544, Note_on_c, 5, 57, 116
5, 380608, Note_off_c, 5, 57, 0
5, 380672, Note_on_c, 5, 57, 113
5, 380736, Note_off_c, 5, 57, 0
5, 380800, Note_on_c, 5, 58, 117
5, 380864, Note_off_c, 5, 58, 0
5, 380928, Note_on_c, 5, 58, 114
5, 380992, Note_off_c, 5, 58, 0
5, 381056, Note_on_c, 5, 64, 127
5, 381120, Note_off_c, 5, 64, 0
5, 381184, Note_on_c, 5, 64, 121
5, 381248, Note_off_c, 5, 64, 0
5, 381312, Note_on_c, 5, 66, 120
5, 381376, Note_off_c, 5, 66, 0
5, 381696, Note_on_c, 5, 54, 100
5, 381760, Note_off_c, 5, 54, 0
5, 381824, Note_on_c, 5, 54, 115
5, 381888, Note_off_c, 5, 54, 0
5, 381952, Note_on_c, 5, 55, 117
5, 382016, Note_off_c, 5, 55, 0
5, 382080, Note_on_c, 5, 55, 112
5, 382144, Note_off_c, 5, 55, 0
5, 382208, Note_on_c, 5, 57, 116
5, 382272, Note_off_c, 5, 57, 0
5, 382336, Note_on_c, 5, 57, 114
5, 382400, Note_off_c, 5, 57, 0
5, 382464, Note_on_c, 5, 58, 115
5, 382528, Note_off_c, 5, 58, 0
5, 382592, Note_on_c, 5, 60, 122
5, 382656, Note_off_c, 5, 60, 0
5, 382720, Note_on_c, 5, 60, 110
5, 382784, Note_off_c, 5, 60, 0
5, 382848, Note_on_c, 5, 61, 116
5, 382912, Note_off_c, 5, 61, 0
5, 382976, Note_on_c, 5, 61, 114
5, 383040, Note_off_c, 5, 61, 0
5, 383104, Note_on_c, 5, 63, 121
5, 383168, Note_off_c, 5, 63, 0
5, 383232, Note_on_c, 5, 52, 102
5, 383296, Note_off_c, 5, 52, 0
5, 383360, Note_on_c, 5, 52, 113
5, 383424, Note_off_c, 5, 52, 0
5, 383488, Note_on_c, 5, 54, 116
5, 383552, Note_off_c, 5, 54, 0
5, 383616, Note_on_c, 5, 54, 115
5, 383680, Note_off_c, 5, 54, 0
5, 383744, Note_on_c, 5, 55, 114
5, 383808, Note_off_c, 5, 55, 0
5, 383872, Note_on_c, 5, 55, 108
5, 383936, Note_off_c, 5, 55, 0
5, 384000, Note_on_c, 5, 56, 111
5, 384064, Note_off_c, 5, 56, 0
5, 384128, Note_on_c, 5, 56, 113
5, 384192, Note_off_c, 5, 56, 0
5, 384256, Note_on_c, 5, 58, 117
5, 384320, Note_off_c, 5, 58, 0
5, 384384, Note_on_c, 5, 58, 113
5, 384448, Note_off_c, 5, 58, 0
5, 384512, Note_on_c, 5, 60, 115
5, 384576, Note_off_c, 5, 60, 0
5, 384640, Note_on_c, 5, 60, 114
5, 384704, Note_off_c, 5, 60, 0
5, 384768, Note_on_c, 5, 61, 115
5, 384832, Note_off_c, 5, 61, 0
5, 384896, Note_on_c, 5, 63, 121
5, 384960, Note_off_c, 5, 63, 0
5, 385024, Note_on_c, 5, 63, 116
5, 385088, Note_off_c, 5, 63, 0
5, 385152, Note_on_c, 5, 63, 113
5, 385216, Note_off_c, 5, 63, 0
5, 385280, Note_on_c, 5, 64, 117
5, 385344, Note_off_c, 5, 64, 0
5, 385408, Note_on_c, 5, 64, 114
5, 385472, Note_off_c, 5, 64, 0
5, 385664, Note_on_c, 5, 48, 99
5, 385728, Note_off_c, 5, 48, 0
5, 385792, Note_on_c, 5, 49, 115
5, 385856, Note_off_c, 5, 49, 0
5, 385920, Note_on_c, 5, 49, 115
5, 385984, Note_off_c, 5, 49, 0
5, 386048, Note_on_c, 5, 49, 115
5, 386112, Note_off_c, 5, 49, 0
5, 386176, Note_on_c, 5, 51, 119
5, 386240, Note_off_c, 5, 51, 0
5, 386304, Note_on_c, 5, 51, 115
5, 386368, Note_off_c, 5, 51, 0
5, 386432, Note_on_c, 5, 52, 114
5, 386496, Note_off_c, 5, 52, 0
5, 386560, Note_on_c, 5, 52, 113
5, 386624, Note_off_c, 5, 52, 0
5, 386688, Note_on_c, 5, 52, 116
5, 386752, Note_off_c, 5, 52, 0
5, 386816, Note_on_c, 5, 54, 115
5, 386880, Note_off_c, 5, 54, 0
5, 386944, Note_on_c, 5, 54, 111
5, 387008, Note_off_c, 5, 54, 0
5, 387200, Note_on_c, 5, 55, 102
5, 387264, Note_off_c, 5, 55, 0
5, 387328, Note_on_c, 5, 55, 109
5, 387392, Note_off_c, 5, 55, 0
5, 387456, Note_on_c, 5, 57, 115
5, 387520, Note_off_c, 5, 57, 0
5, 387584, Note_on_c, 5, 57, 116
5, 387648, Note_off_c, 5, 57, 0
5, 387712, Note_on_c, 5, 58, 119
5, 387776, Note_off_c, 5, 58, 0
5, 388096, Note_on_c, 5, 60, 100
5, 388160, Note_off_c, 5, 60, 0
5, 388224, Note_on_c, 5, 61, 117
5, 388288, Note_off_c, 5, 61, 0
5, 388352, Note_on_c, 5, 63, 121
5, 388416, Note_off_c, 5, 63, 0
5, 388480, Note_on_c, 5, 64, 116
5, 388544, Note_off_c, 5, 64, 0
5, 388608, Note_on_c, 5, 66, 118
5, 388672, Note_off_c, 5, 66, 0
5, 388736, Note_on_c, 5, 67, 119
5, 388800, Note_off_c, 5, 67, 0
5, 388864, Note_on_c, 5, 55, 100
5, 388928, Note_off_c, 5, 55, 0
5, 388992, Note_on_c, 5, 58, 111
5, 389056, Note_off_c, 5, 58, 0
5, 389120, Note_on_c, 5, 58, 114
5, 389184, Note_off_c, 5, 58, 0
5, 389248, Note_on_c, 5, 58, 109
5, 389312, Note_off_c, 5, 58, 0
5, 389376, Note_on_c, 5, 58, 115
5, 389440, Note_off_c, 5, 58, 0
5, 389504, Note_on_c, 5, 58, 116
5, 389568, Note_off_c, 5, 58, 0
5, 389632, Note_on_c, 5, 58, 109
5, 389696, Note_off_c, 5, 58, 0
5, 389760, Note_on_c, 5, 60, 116
5, 389824, Note_off_c, 5, 60, 0
5, 389888, Note_on_c, 5, 60, 116
5, 389952, Note_off_c, 5, 60, 0
5, 390016, Note_on_c, 5, 61, 114
5, 390080, Note_off_c, 5, 61, 0
5, 390144, Note_on_c, 5, 61, 109
5, 390208, Note_off_c, 5, 61, 0
5, 390272, Note_on_c, 5, 61, 113
5, 390336, Note_off_c, 5, 61, 0
5, 390400, Note_on_c, 5, 61, 111
5, 390464, Note_off_c, 5, 61, 0
5, 390528, Note_on_c, 5, 63, 122
5, 390592, Note_off_c, 5, 63, 0
5, 390656, Note_on_c, 5, 63, 114
5, 390720, Note_off_c, 5, 63, 0
5, 390784, Note_on_c, 5, 63, 110
5, 390848, Note_off_c, 5, 63, 0
5, 390912, Note_on_c, 5, 52, 99
5, 390976, Note_off_c, 5, 52, 0
5, 391040, Note_on_c, 5, 52, 115
5, 391104, Note_off_c, 5, 52, 0
5, 391168, Note_on_c, 5, 54, 119
5, 391232, Note_off_c, 5, 54, 0
5, 391296, Note_on_c, 5, 54, 109
5, 391360, Note_off_c, 5, 54, 0
5, 391424, Note_on_c, 5, 55, 119
5, 391488, Note_off_c, 5, 55, 0
5, 391552, Note_on_c, 5, 55, 112
5, 391616, Note_off_c, 5, 55, 0
5, 391680, Note_on_c, 5, 58, 117
5, 391744, Note_off_c, 5, 58, 0
5, 391808, Note_on_c, 5, 58, 112
5, 391872, Note_off_c, 5, 58, 0
5, 391936, Note_on_c, 5, 58, 112
5, 392000, Note_off_c, 5, 58, 0
5, 392064, Note_on_c, 5, 58, 111
5, 392128, Note_off_c, 5, 58, 0
5, 392192, Note_on_c, 5, 60, 122
5, 392256, Note_off_c, 5, 60, 0
5, 392320, Note_on_c, 5, 60, 117
5, 392384, Note_off_c, 5, 60, 0
5, 392448, Note_on_c, 5, 61, 122
5, 392512, Note_off_c, 5, 61, 0
5, 392576, Note_on_c, 5, 61, 113
5, 392640, Note_off_c, 5, 61, 0
5, 392704, Note_on_c, 5, 63, 122
5, 392768, Note_off_c, 5, 63, 0
5, 392832, Note_on_c, 5, 63, 115
5, 392896, Note_off_c, 5, 63, 0
5, 392960, Note_on_c, 5, 64, 114
5, 393024, Note_off_c, 5, 64, 0
5, 393088, Note_on_c, 5, 64, 111
5, 393152, Note_off_c, 5, 64, 0
5, 393216, Note_on_c, 5, 67, 120
5, 393280, Note_off_c, 5, 67, 0
5, 393344, Note_on_c, 5, 70, 126
5, 393408, Note_off_c, 5, 70, 0
5, 393984, Note_on_c, 5, 66, 96
5, 394048, Note_off_c, 5, 66, 0
5, 394112, Note_on_c, 5, 58, 98
5, 394176, Note_off_c, 5, 58, 0
5, 394240, Note_on_c, 5, 70, 127
5, 394304, Note_off_c, 5, 70, 0
5, 394368, Note_on_c, 5, 72, 127
5, 394432, Note_off_c, 5, 72, 0
5, 394496, Note_on_c, 5, 58, 95
5, 394560, Note_off_c, 5, 58, 0
5, 394752, Note_on_c, 5, 72, 99
5, 394816, Note_off_c, 5, 72, 0
5, 394880, Note_on_c, 5, 73, 115
5, 394944, Note_off_c, 5, 73, 0
5, 395008, Note_on_c, 5, 61, 85
5, 395072, Note_off_c, 5, 61, 0
5, 395136, Note_on_c, 5, 75, 127
5, 395200, Note_off_c, 5, 75, 0
5, 395520, Note_on_c, 5, 67, 99
5, 395584, Note_off_c, 5, 67, 0
5, 395648, Note_on_c, 5, 60, 93
5, 395712, Note_off_c, 5, 60, 0
5, 395776, Note_on_c, 5, 72, 127
5, 395840, Note_off_c, 5, 72, 0
5, 395904, Note_on_c, 5, 73, 126
5, 395968, Note_off_c, 5, 73, 0
5, 396032, Note_on_c, 5, 60, 85
5, 396096, Note_off_c, 5, 60, 0
5, 396288, Note_on_c, 5, 73, 105
5, 396352, Note_off_c, 5, 73, 0
5, 396416, Note_on_c, 5, 73, 115
5, 396480, Note_off_c, 5, 73, 0
5, 396544, Note_on_c, 5, 61, 83
5, 396608, Note_off_c, 5, 61, 0
5, 396672, Note_on_c, 5, 76, 127
5, 396736, Note_off_c, 5, 76, 0
5, 397440, Note_on_c, 5, 61, 100
5, 397504, Note_off_c, 5, 61, 0
5, 397568, Note_on_c, 5, 58, 106
5, 397632, Note_off_c, 5, 58, 0
5, 397696, Note_on_c, 5, 70, 127
5, 397760, Note_off_c, 5, 70, 0
5, 397824, Note_on_c, 5, 55, 108
5, 397888, Note_off_c, 5, 55, 0
5, 397952, Note_on_c, 5, 66, 127
5, 398016, Note_off_c, 5, 66, 0
5, 398080, Note_on_c, 5, 55, 103
5, 398144, Note_off_c, 5, 55, 0
5, 398208, Note_on_c, 5, 52, 104
5, 398272, Note_off_c, 5, 52, 0
5, 398336, Note_on_c, 5, 52, 109
5, 398400, Note_off_c, 5, 52, 0
5, 398464, Note_on_c, 5, 55, 120
5, 398528, Note_off_c, 5, 55, 0
5, 398592, Note_on_c, 5, 49, 104
5, 398656, Note_off_c, 5, 49, 0
5, 398720, Note_on_c, 5, 61, 127
5, 398784, Note_off_c, 5, 61, 0
5, 398848, Note_on_c, 5, 49, 102
5, 398912, Note_off_c, 5, 49, 0
5, 398976, Note_on_c, 5, 46, 109
5, 399040, Note_off_c, 5, 46, 0
5, 399104, Note_on_c, 5, 58, 126
5, 399168, Note_off_c, 5, 58, 0
5, 400256, Note_on_c, 5, 51, 108
5, 400320, Note_off_c, 5, 51, 0
5, 400384, Note_on_c, 5, 51, 110
5, 400448, Note_off_c, 5, 51, 0
5, 400512, Note_on_c, 5, 52, 117
5, 400576, Note_off_c, 5, 52, 0
5, 400640, Note_on_c, 5, 52, 114
5, 400704, Note_off_c, 5, 52, 0
5, 400768, Note_on_c, 5, 54, 118
5, 400832, Note_off_c, 5, 54, 0
5, 400896, Note_on_c, 5, 54, 115
5, 400960, Note_off_c, 5, 54, 0
5, 401024, Note_on_c, 5, 55, 117
5, 401088, Note_off_c, 5, 55, 0
5, 401152, Note_on_c, 5, 55, 115
5, 401216, Note_off_c, 5, 55, 0
5, 401280, Note_on_c, 5, 56, 114
5, 401344, Note_off_c, 5, 56, 0
5, 401408, Note_on_c, 5, 56, 113
5, 401472, Note_off_c, 5, 56, 0
5, 401536, Note_on_c, 5, 57, 112
5, 401600, Note_off_c, 5, 57, 0
5, 401792, Note_on_c, 5, 58, 103
5, 401856, Note_off_c, 5, 58, 0
5, 401920, Note_on_c, 5, 58, 109
5, 401984, Note_off_c, 5, 58, 0
5, 402048, Note_on_c, 5, 60, 126
5, 402112, Note_off_c, 5, 60, 0
5, 402176, Note_on_c, 5, 60, 114
5, 402240, Note_off_c, 5, 60, 0
5, 402304, Note_on_c, 5, 61, 118
5, 402368, Note_off_c, 5, 61, 0
5, 402432, Note_on_c, 5, 61, 115
5, 402496, Note_off_c, 5, 61, 0
5, 402560, Note_on_c, 5, 63, 122
5, 402624, Note_off_c, 5, 63, 0
5, 402688, Note_on_c, 5, 63, 114
5, 402752, Note_off_c, 5, 63, 0
5, 402816, Note_on_c, 5, 66, 127
5, 402880, Note_off_c, 5, 66, 0
5, 402944, Note_on_c, 5, 67, 118
5, 403008, Note_off_c, 5, 67, 0
5, 403072, Note_on_c, 5, 72, 127
5, 403136, Note_off_c, 5, 72, 0
5, 403328, Note_on_c, 5, 57, 101
5, 403392, Note_off_c, 5, 57, 0
5, 403456, Note_on_c, 5, 61, 126
5, 403520, Note_off_c, 5, 61, 0
5, 403584, Note_on_c, 5, 63, 120
5, 403648, Note_off_c, 5, 63, 0
5, 403840, Note_on_c, 5, 52, 100
5, 403904, Note_off_c, 5, 52, 0
5, 403968, Note_on_c, 5, 54, 119
5, 404032, Note_off_c, 5, 54, 0
5, 404096, Note_on_c, 5, 57, 115
5, 404160, Note_off_c, 5, 57, 0
5, 404224, Note_on_c, 5, 61, 122
5, 404288, Note_off_c, 5, 61, 0
5, 404352, Note_on_c, 5, 63, 117
5, 404416, Note_off_c, 5, 63, 0
5, 404608, Note_on_c, 5, 52, 100
5, 404672, Note_off_c, 5, 52, 0
5, 404736, Note_on_c, 5, 54, 115
5, 404800, Note_off_c, 5, 54, 0
5, 404864, Note_on_c, 5, 57, 118
5, 404928, Note_off_c, 5, 57, 0
5, 404992, Note_on_c, 5, 61, 124
5, 405056, Note_off_c, 5, 61, 0
5, 405120, Note_on_c, 5, 63, 121
5, 405184, Note_off_c, 5, 63, 0
5, 405376, Note_on_c, 5, 52, 99
5, 405440, Note_off_c, 5, 52, 0
5, 405504, Note_on_c, 5, 54, 114
5, 405568, Note_off_c, 5, 54, 0
5, 405632, Note_on_c, 5, 57, 117
5, 405696, Note_off_c, 5, 57, 0
5, 405760, Note_on_c, 5, 61, 127
5, 405824, Note_off_c, 5, 61, 0
5, 405888, Note_on_c, 5, 63, 119
5, 405952, Note_off_c, 5, 63, 0
5, 406144, Note_on_c, 5, 52, 102
5, 406208, Note_off_c, 5, 52, 0
5, 406272, Note_on_c, 5, 54, 116
5, 406336, Note_off_c, 5, 54, 0
5, 406400, Note_on_c, 5, 57, 119
5, 406464, Note_off_c, 5, 57, 0
5, 406528, Note_on_c, 5, 61, 127
5, 406592, Note_off_c, 5, 61, 0
5, 406656, Note_on_c, 5, 63, 123
5, 406720, Note_off_c, 5, 63, 0
5, 406912, Note_on_c, 5, 52, 101
5, 406976, Note_off_c, 5, 52, 0
5, 407040, Note_on_c, 5, 54, 114
5, 407104, Note_off_c, 5, 54, 0
5, 407168, Note_on_c, 5, 57, 118
5, 407232, Note_off_c, 5, 57, 0
5, 407296, Note_on_c, 5, 61, 123
5, 407360, Note_off_c, 5, 61, 0
5, 407424, Note_on_c, 5, 63, 123
5, 407488, Note_off_c, 5, 63, 0
5, 407680, Note_on_c, 5, 52, 98
5, 407744, Note_off_c, 5, 52, 0
5, 407808, Note_on_c, 5, 54, 115
5, 407872, Note_off_c, 5, 54, 0
5, 407936, Note_on_c, 5, 57, 113
5, 408000, Note_off_c, 5, 57, 0
5, 408064, Note_on_c, 5, 61, 125
5, 408128, Note_off_c, 5, 61, 0
5, 408192, Note_on_c, 5, 63, 118
5, 408256, Note_off_c, 5, 63, 0
5, 408448, Note_on_c, 5, 52, 106
5, 408512, Note_off_c, 5, 52, 0
5, 408576, Note_on_c, 5, 54, 115
5, 408640, Note_off_c, 5, 54, 0
5, 408704, Note_on_c, 5, 57, 116
5, 408768, Note_off_c, 5, 57, 0
5, 408832, Note_on_c, 5, 61, 122
5, 408896, Note_off_c, 5, 61, 0
5, 408960, Note_on_c, 5, 63, 115
5, 409024, Note_off_c, 5, 63, 0
5, 409216, Note_on_c, 5, 52, 99
5, 409280, Note_off_c, 5, 52, 0
5, 409344, Note_on_c, 5, 54, 116
5, 409408, Note_off_c, 5, 54, 0
5, 409472, Note_on_c, 5, 57, 116
5, 409536, Note_off_c, 5, 57, 0
5, 409600, Note_on_c, 5, 61, 123
5, 409664, Note_off_c, 5, 61, 0
5, 409728, Note_on_c, 5, 63, 122
5, 409792, Note_off_c, 5, 63, 0
5, 409984, Note_on_c, 5, 52, 100
5, 410048, Note_off_c, 5, 52, 0
5, 410112, Note_on_c, 5, 54, 115
5, 410176, Note_off_c, 5, 54, 0
5, 410240, Note_on_c, 5, 57, 120
5, 410304, Note_off_c, 5, 57, 0
5, 410368, Note_on_c, 5, 61, 127
5, 410432, Note_off_c, 5, 61, 0
5, 410496, Note_on_c, 5, 65, 127
5, 410560, Note_off_c, 5, 65, 0
5, 410624, Note_on_c, 5, 68, 125
5, 410688, Note_off_c, 5, 68, 0
5, 410880, Note_on_c, 5, 53, 100
5, 410944, Note_off_c, 5, 53, 0
5, 411008, Note_on_c, 5, 56, 113
5, 411072, Note_off_c, 5, 56, 0
5, 411136, Note_on_c, 5, 58, 117
5, 411200, Note_off_c, 5, 58, 0
5, 411264, Note_on_c, 5, 61, 121
5, 411328, Note_off_c, 5, 61, 0
5, 411392, Note_on_c, 5, 65, 124
5, 411456, Note_off_c, 5, 65, 0
5, 411520, Note_on_c, 5, 68, 125
5, 411584, Note_off_c, 5, 68, 0
5, 411776, Note_on_c, 5, 53, 104
5, 411840, Note_off_c, 5, 53, 0
5, 411904, Note_on_c, 5, 56, 118
5, 411968, Note_off_c, 5, 56, 0
5, 412032, Note_on_c, 5, 58, 117
5, 412096, Note_off_c, 5, 58, 0
5, 412160, Note_on_c, 5, 61, 123
5, 412224, Note_off_c, 5, 61, 0
5, 412288, Note_on_c, 5, 65, 127
5, 412352, Note_off_c, 5, 65, 0
5, 412416, Note_on_c, 5, 68, 127
5, 412480, Note_off_c, 5, 68, 0
5, 412672, Note_on_c, 5, 53, 103
5, 412736, Note_off_c, 5, 53, 0
5, 412800, Note_on_c, 5, 56, 111
5, 412864, Note_off_c, 5, 56, 0
5, 412928, Note_on_c, 5, 58, 115
5, 412992, Note_off_c, 5, 58, 0
5, 413056, Note_on_c, 5, 61, 121
5, 413120, Note_off_c, 5, 61, 0
5, 413184, Note_on_c, 5, 65, 127
5, 413248, Note_off_c, 5, 65, 0
5, 413312, Note_on_c, 5, 68, 124
5, 413376, Note_off_c, 5, 68, 0
5, 413568, Note_on_c, 5, 53, 103
5, 413632, Note_off_c, 5, 53, 0
5, 413696, Note_on_c, 5, 56, 121
5, 413760, Note_off_c, 5, 56, 0
5, 413824, Note_on_c, 5, 58, 116
5, 413888, Note_off_c, 5, 58, 0
5, 413952, Note_on_c, 5, 61, 122
5, 414016, Note_off_c, 5, 61, 0
5, 414080, Note_on_c, 5, 65, 127
5, 414144, Note_off_c, 5, 65, 0
5, 414208, Note_on_c, 5, 65, 113
5, 414272, Note_off_c, 5, 65, 0
5, 414336, Note_on_c, 5, 49, 98
5, 414400, Note_off_c, 5, 49, 0
5, 414464, Note_on_c, 5, 53, 117
5, 414528, Note_off_c, 5, 53, 0
5, 414592, Note_on_c, 5, 56, 111
5, 414656, Note_off_c, 5, 56, 0
5, 414720, Note_on_c, 5, 58, 116
5, 414784, Note_off_c, 5, 58, 0
5, 414848, Note_on_c, 5, 61, 122
5, 414912, Note_off_c, 5, 61, 0
5, 414976, Note_on_c, 5, 64, 124
5, 415040, Note_off_c, 5, 64, 0
5, 415232, Note_on_c, 5, 49, 97
5, 415296, Note_off_c, 5, 49, 0
5, 415360, Note_on_c, 5, 52, 116
5, 415424, Note_off_c, 5, 52, 0
5, 415488, Note_on_c, 5, 57, 116
5, 415552, Note_off_c, 5, 57, 0
5, 415616, Note_on_c, 5, 58, 118
5, 415680, Note_off_c, 5, 58, 0
5, 415744, Note_on_c, 5, 61, 114
5, 415808, Note_off_c, 5, 61, 0
5, 415872, Note_on_c, 5, 63, 125
5, 415936, Note_off_c, 5, 63, 0
5, 416128, Note_on_c, 5, 49, 101
5, 416192, Note_off_c, 5, 49, 0
5, 416256, Note_on_c, 5, 52, 119
5, 416320, Note_off_c, 5, 52, 0
5, 416384, Note_on_c, 5, 57, 118
5, 416448, Note_off_c, 5, 57, 0
5, 416512, Note_on_c, 5, 63, 127
5, 416576, Note_off_c, 5, 63, 0
5, 416640, Note_on_c, 5, 69, 127
5, 416704, Note_off_c, 5, 69, 0
5, 416768, Note_on_c, 5, 51, 101
5, 416832, Note_off_c, 5, 51, 0
5, 416896, Note_on_c, 5, 57, 118
5, 416960, Note_off_c, 5, 57, 0
5, 417024, Note_on_c, 5, 61, 123
5, 417088, Note_off_c, 5, 61, 0
5, 417152, Note_on_c, 5, 63, 127
5, 417216, Note_off_c, 5, 63, 0
5, 417280, Note_on_c, 5, 69, 127
5, 417344, Note_off_c, 5, 69, 0
5, 417536, Note_on_c, 5, 73, 102
5, 417600, Note_off_c, 5, 73, 0
5, 417664, Note_on_c, 5, 51, 99
5, 417728, Note_off_c, 5, 51, 0
5, 417792, Note_on_c, 5, 57, 122
5, 417856, Note_off_c, 5, 57, 0
5, 417920, Note_on_c, 5, 61, 127
5, 417984, Note_off_c, 5, 61, 0
5, 418048, Note_on_c, 5, 63, 120
5, 418112, Note_off_c, 5, 63, 0
5, 418176, Note_on_c, 5, 69, 127
5, 418240, Note_off_c, 5, 69, 0
5, 418304, Note_on_c, 5, 69, 120
5, 418368, Note_off_c, 5, 69, 0
5, 418432, Note_on_c, 5, 73, 125
5, 418496, Note_off_c, 5, 73, 0
5, 418560, Note_on_c, 5, 57, 102
5, 418624, Note_off_c, 5, 57, 0
5, 418688, Note_on_c, 5, 61, 123
5, 418752, Note_off_c, 5, 61, 0
5, 418816, Note_on_c, 5, 63, 120
5, 418880, Note_off_c, 5, 63, 0
5, 418944, Note_on_c, 5, 68, 127
5, 419008, Note_off_c, 5, 68, 0
5, 419072, Note_on_c, 5, 73, 127
5, 419136, Note_off_c, 5, 73, 0
5, 419200, Note_on_c, 5, 75, 126
5, 419264, Note_off_c, 5, 75, 0
5, 419328, Note_on_c, 5, 57, 101
5, 419392, Note_off_c, 5, 57, 0
5, 419456, Note_on_c, 5, 61, 121
5, 419520, Note_off_c, 5, 61, 0
5, 419584, Note_on_c, 5, 61, 115
5, 419648, Note_off_c, 5, 61, 0
5, 419712, Note_on_c, 5, 64, 120
5, 419776, Note_off_c, 5, 64, 0
5, 419840, Note_on_c, 5, 69, 127
5, 419904, Note_off_c, 5, 69, 0
5, 419968, Note_on_c, 5, 73, 127
5, 420032, Note_off_c, 5, 73, 0
5, 420096, Note_on_c, 5, 76, 124
5, 420160, Note_off_c, 5, 76, 0
5, 420352, Note_on_c, 5, 54, 99
5, 420416, Note_off_c, 5, 54, 0
5, 420480, Note_on_c, 5, 61, 127
5, 420544, Note_off_c, 5, 61, 0
5, 420608, Note_on_c, 5, 64, 124
5, 420672, Note_off_c, 5, 64, 0
5, 420736, Note_on_c, 5, 66, 125
5, 420800, Note_off_c, 5, 66, 0
5, 420864, Note_on_c, 5, 73, 127
5, 420928, Note_off_c, 5, 73, 0
5, 420992, Note_on_c, 5, 76, 124
5, 421056, Note_off_c, 5, 76, 0
5, 421248, Note_on_c, 5, 54, 100
5, 421312, Note_off_c, 5, 54, 0
5, 421376, Note_on_c, 5, 61, 127
5, 421440, Note_off_c, 5, 61, 0
5, 421504, Note_on_c, 5, 66, 127
5, 421568, Note_off_c, 5, 66, 0
5, 421632, Note_on_c, 5, 69, 127
5, 421696, Note_off_c, 5, 69, 0
5, 421760, Note_on_c, 5, 75, 127
5, 421824, Note_off_c, 5, 75, 0
5, 421888, Note_on_c, 5, 57, 102
5, 421952, Note_off_c, 5, 57, 0
5, 422016, Note_on_c, 5, 66, 127
5, 422080, Note_off_c, 5, 66, 0
5, 422144, Note_on_c, 5, 69, 127
5, 422208, Note_off_c, 5, 69, 0
5, 422272, Note_on_c, 5, 73, 126
5, 422336, Note_off_c, 5, 73, 0
5, 422400, Note_on_c, 5, 78, 127
5, 422464, Note_off_c, 5, 78, 0
5, 422528, Note_on_c, 5, 69, 94
5, 422592, Note_off_c, 5, 69, 0
5, 422656, Note_on_c, 5, 69, 111
5, 422720, Note_off_c, 5, 69, 0
5, 422784, Note_on_c, 5, 60, 88
5, 422848, Note_off_c, 5, 60, 0
5, 422912, Note_on_c, 5, 66, 127
5, 422976, Note_off_c, 5, 66, 0
5, 423040, Note_on_c, 5, 72, 127
5, 423104, Note_off_c, 5, 72, 0
5, 423168, Note_on_c, 5, 76, 127
5, 423232, Note_off_c, 5, 76, 0
5, 423296, Note_on_c, 5, 78, 122
5, 423360, Note_off_c, 5, 78, 0
5, 423552, Note_on_c, 5, 66, 100
5, 423616, Note_off_c, 5, 66, 0
5, 423680, Note_on_c, 5, 66, 111
5, 423744, Note_off_c, 5, 66, 0
5, 423808, Note_on_c, 5, 67, 118
5, 423872, Note_off_c, 5, 67, 0
5, 423936, Note_on_c, 5, 67, 115
5, 424000, Note_off_c, 5, 67, 0
5, 424064, Note_on_c, 5, 71, 127
5, 424128, Note_off_c, 5, 71, 0
5, 424192, Note_on_c, 5, 71, 113
5, 424256, Note_off_c, 5, 71, 0
5, 424320, Note_on_c, 5, 72, 121
5, 424384, Note_off_c, 5, 72, 0
5, 424448, Note_on_c, 5, 72, 112
5, 424512, Note_off_c, 5, 72, 0
5, 424576, Note_on_c, 5, 73, 120
5, 424640, Note_off_c, 5, 73, 0
5, 425856, Note_on_c, 5, 69, 101
5, 425856, Note_on_c, 5, 74, 101
5, 425920, Note_off_c, 5, 69, 0
5, 425920, Note_off_c, 5, 74, 0
5, 425984, Note_on_c, 5, 71, 109
5, 425984, Note_on_c, 5, 74, 109
5, 426240, Note_off_c, 5, 71, 0
5, 426240, Note_off_c, 5, 74, 0
5, 426624, Note_on_c, 5, 69, 103
5, 426624, Note_on_c, 5, 74, 103
5, 426688, Note_off_c, 5, 69, 0
5, 426688, Note_off_c, 5, 74, 0
5, 426752, Note_on_c, 5, 71, 109
5, 426752, Note_on_c, 5, 74, 109
5, 427008, Note_off_c, 5, 71, 0
5, 427008, Note_off_c, 5, 74, 0
5, 427392, Note_on_c, 5, 69, 99
5, 427392, Note_on_c, 5, 74, 99
5, 427456, Note_off_c, 5, 69, 0
5, 427456, Note_off_c, 5, 74, 0
5, 427520, Note_on_c, 5, 71, 110
5, 427520, Note_on_c, 5, 74, 110
5, 427776, Note_off_c, 5, 71, 0
5, 427776, Note_off_c, 5, 74, 0
5, 428160, Note_on_c, 5, 69, 103
5, 428160, Note_on_c, 5, 74, 103
5, 428224, Note_off_c, 5, 69, 0
5, 428224, Note_off_c, 5, 74, 0
5, 428288, Note_on_c, 5, 71, 110
5, 428288, Note_on_c, 5, 74, 110
5, 428544, Note_off_c, 5, 71, 0
5, 428544, Note_off_c, 5, 74, 0
5, 428928, Note_on_c, 5, 69, 101
5, 428928, Note_on_c, 5, 74, 101
5, 428992, Note_off_c, 5, 69, 0
5, 428992, Note_off_c, 5, 74, 0
5, 429056, Note_on_c, 5, 71, 111
5, 429056, Note_on_c, 5, 74, 111
5, 429312, Note_off_c, 5, 71, 0
5, 429312, Note_off_c, 5, 74, 0
5, 429440, Note_on_c, 5, 69, 102
5, 429440, Note_on_c, 5, 74, 102
5, 429504, Note_off_c, 5, 69, 0
5, 429504, Note_off_c, 5, 74, 0
5, 429568, Note_on_c, 5, 71, 111
5, 429568, Note_on_c, 5, 74, 111
5, 429824, Note_off_c, 5, 71, 0
5, 429824, Note_off_c, 5, 74, 0
5, 430208, Note_on_c, 5, 69, 103
5, 430208, Note_on_c, 5, 74, 103
5, 430272, Note_off_c, 5, 69, 0
5, 430272, Note_off_c, 5, 74, 0
5, 430336, Note_on_c, 5, 71, 113
5, 430336, Note_on_c, 5, 74, 113
5, 430592, Note_off_c, 5, 71, 0
5, 430592, Note_off_c, 5, 74, 0
5, 430848, Note_on_c, 5, 69, 102
5, 430848, Note_on_c, 5, 74, 102
5, 430912, Note_off_c, 5, 69, 0
5, 430912, Note_off_c, 5, 74, 0
5, 430976, Note_on_c, 5, 72, 117
5, 430976, Note_on_c, 5, 74, 117
5, 431232, Note_off_c, 5, 72, 0
5, 431232, Note_off_c, 5, 74, 0
5, 431616, Note_on_c, 5, 69, 105
5, 431616, Note_on_c, 5, 74, 105
5, 431680, Note_off_c, 5, 69, 0
5, 431680, Note_off_c, 5, 74, 0
5, 431744, Note_on_c, 5, 71, 127
5, 431744, Note_on_c, 5, 76, 127
5, 432000, Note_off_c, 5, 71, 0
5, 432000, Note_off_c, 5, 76, 0
5, 432384, Note_on_c, 5, 69, 102
5, 432384, Note_on_c, 5, 74, 102
5, 432448, Note_off_c, 5, 69, 0
5, 432448, Note_off_c, 5, 74, 0
5, 432512, Note_on_c, 5, 71, 121
5, 432512, Note_on_c, 5, 74, 121
5, 432768, Note_off_c, 5, 71, 0
5, 432768, Note_off_c, 5, 74, 0
5, 433152, Note_on_c, 5, 69, 99
5, 433152, Note_on_c, 5, 74, 99
5, 433216, Note_off_c, 5, 69, 0
5, 433216, Note_off_c, 5, 74, 0
5, 433280, Note_on_c, 5, 72, 122
5, 433280, Note_on_c, 5, 74, 122
5, 433536, Note_off_c, 5, 72, 0
5, 433536, Note_off_c, 5, 74, 0
5, 433792, Note_on_c, 5, 69, 99
5, 433792, Note_on_c, 5, 74, 99
5, 433856, Note_off_c, 5, 69, 0
5, 433856, Note_off_c, 5, 74, 0
5, 433920, Note_on_c, 5, 71, 121
5, 433920, Note_on_c, 5, 74, 121
5, 434176, Note_off_c, 5, 71, 0
5, 434176, Note_off_c, 5, 74, 0
5, 434304, Note_on_c, 5, 69, 101
5, 434304, Note_on_c, 5, 73, 101
5, 434368, Note_off_c, 5, 69, 0
5, 434368, Note_off_c, 5, 73, 0
5, 434432, Note_on_c, 5, 71, 127
5, 434432, Note_on_c, 5, 78, 127
5, 434688, Note_off_c, 5, 71, 0
5, 434688, Note_off_c, 5, 78, 0
5, 435072, Note_on_c, 5, 69, 105
5, 435072, Note_on_c, 5, 74, 105
5, 435136, Note_off_c, 5, 69, 0
5, 435136, Note_off_c, 5, 74, 0
5, 435200, Note_on_c, 5, 71, 125
5, 435200, Note_on_c, 5, 74, 125
5, 435456, Note_off_c, 5, 71, 0
5, 435456, Note_off_c, 5, 74, 0
5, 435712, Note_on_c, 5, 72, 103
5, 435712, Note_on_c, 5, 75, 103
5, 435776, Note_off_c, 5, 72, 0
5, 435776, Note_off_c, 5, 75, 0
5, 435840, Note_on_c, 5, 74, 127
5, 435840, Note_on_c, 5, 77, 127
5, 436096, Note_off_c, 5, 74, 0
5, 436096, Note_off_c, 5, 77, 0
5, 436480, Note_on_c, 5, 76, 105
5, 436480, Note_on_c, 5, 79, 105
5, 436544, Note_off_c, 5, 76, 0
5, 436544, Note_off_c, 5, 79, 0
5, 436608, Note_on_c, 5, 78, 127
5, 436608, Note_on_c, 5, 81, 127
5, 436864, Note_off_c, 5, 78, 0
5, 436864, Note_off_c, 5, 81, 0
5, 437120, Note_on_c, 5, 78, 102
5, 437184, Note_off_c, 5, 78, 0
5, 437248, Note_on_c, 5, 79, 127
5, 437504, Note_off_c, 5, 79, 0
5, 437760, Note_on_c, 5, 79, 106
5, 437824, Note_off_c, 5, 79, 0
5, 437888, Note_on_c, 5, 81, 127
5, 438144, Note_off_c, 5, 81, 0
5, 459520, Note_on_c, 5, 74, 93
5, 459520, Note_on_c, 5, 57, 89
5, 459648, Note_on_c, 5, 72, 80
5, 459648, Note_on_c, 5, 55, 88
5, 459650, Note_off_c, 5, 74, 0
5, 459650, Note_off_c, 5, 57, 0
5, 459776, Note_on_c, 5, 70, 90
5, 459776, Note_on_c, 5, 53, 93
5, 459778, Note_off_c, 5, 72, 0
5, 459778, Note_off_c, 5, 55, 0
5, 459904, Note_on_c, 5, 68, 87
5, 459904, Note_on_c, 5, 51, 93
5, 459906, Note_off_c, 5, 70, 0
5, 459906, Note_off_c, 5, 53, 0
5, 460032, Note_on_c, 5, 67, 93
5, 460032, Note_on_c, 5, 50, 88
5, 460034, Note_off_c, 5, 68, 0
5, 460034, Note_off_c, 5, 51, 0
5, 460160, Note_on_c, 5, 66, 84
5, 460162, Note_off_c, 5, 67, 0
5, 460288, Note_on_c, 5, 64, 87
5, 460288, Note_on_c, 5, 47, 89
5, 460290, Note_off_c, 5, 66, 0
5, 460293, Note_off_c, 5, 50, 0
5, 460416, Note_on_c, 5, 62, 80
5, 460416, Note_on_c, 5, 45, 96
5, 460418, Note_off_c, 5, 64, 0
5, 460418, Note_off_c, 5, 47, 0
5, 460544, Note_on_c, 5, 68, 107
5, 460544, Note_on_c, 5, 51, 108
5, 460546, Note_off_c, 5, 62, 0
5, 460546, Note_off_c, 5, 45, 0
5, 460672, Note_on_c, 5, 67, 105
5, 460672, Note_on_c, 5, 50, 99
5, 460674, Note_off_c, 5, 68, 0
5, 460674, Note_off_c, 5, 51, 0
5, 460800, Note_on_c, 5, 66, 91
5, 460802, Note_off_c, 5, 67, 0
5, 460928, Note_on_c, 5, 75, 107
5, 460928, Note_on_c, 5, 58, 108
5, 460930, Note_off_c, 5, 66, 0
5, 460933, Note_off_c, 5, 50, 0
5, 461056, Note_on_c, 5, 73, 98
5, 461056, Note_on_c, 5, 56, 94
5, 461058, Note_off_c, 5, 75, 0
5, 461058, Note_off_c, 5, 58, 0
5, 461184, Note_on_c, 5, 71, 92
5, 461184, Note_on_c, 5, 54, 91
5, 461186, Note_off_c, 5, 73, 0
5, 461186, Note_off_c, 5, 56, 0
5, 461312, Note_on_c, 5, 69, 91
5, 461312, Note_on_c, 5, 52, 95
5, 461314, Note_off_c, 5, 71, 0
5, 461314, Note_off_c, 5, 54, 0
5, 461440, Note_on_c, 5, 68, 89
5, 461440, Note_on_c, 5, 51, 95
5, 461442, Note_off_c, 5, 69, 0
5, 461442, Note_off_c, 5, 52, 0
5, 461568, Note_on_c, 5, 79, 122
5, 461568, Note_on_c, 5, 63, 124
5, 461570, Note_off_c, 5, 68, 0
5, 461570, Note_off_c, 5, 51, 0
5, 461696, Note_on_c, 5, 78, 121
5, 461696, Note_on_c, 5, 61, 125
5, 461698, Note_off_c, 5, 79, 0
5, 461698, Note_off_c, 5, 63, 0
5, 461824, Note_on_c, 5, 76, 93
5, 461824, Note_on_c, 5, 59, 93
5, 461826, Note_off_c, 5, 78, 0
5, 461826, Note_off_c, 5, 61, 0
5, 461952, Note_on_c, 5, 74, 81
5, 461952, Note_on_c, 5, 58, 89
5, 461954, Note_off_c, 5, 76, 0
5, 461954, Note_off_c, 5, 59, 0
5, 462080, Note_on_c, 5, 73, 93
5, 462080, Note_on_c, 5, 56, 89
5, 462082, Note_off_c, 5, 74, 0
5, 462082, Note_off_c, 5, 58, 0
5, 462208, Note_on_c, 5, 71, 88
5, 462208, Note_on_c, 5, 54, 83
5, 462210, Note_off_c, 5, 73, 0
5, 462210, Note_off_c, 5, 56, 0
5, 462336, Note_on_c, 5, 70, 91
5, 462336, Note_on_c, 5, 53, 94
5, 462338, Note_off_c, 5, 71, 0
5, 462338, Note_off_c, 5, 54, 0
5, 462464, Note_on_c, 5, 68, 83
5, 462464, Note_on_c, 5, 51, 91
5, 462466, Note_off_c, 5, 70, 0
5, 462466, Note_off_c, 5, 53, 0
5, 462592, Note_on_c, 5, 73, 110
5, 462592, Note_on_c, 5, 56, 106
5, 462594, Note_off_c, 5, 68, 0
5, 462594, Note_off_c, 5, 51, 0
5, 462720, Note_on_c, 5, 71, 104
5, 462720, Note_on_c, 5, 55, 104
5, 462722, Note_off_c, 5, 73, 0
5, 462722, Note_off_c, 5, 56, 0
5, 462848, Note_on_c, 5, 69, 89
5, 462848, Note_on_c, 5, 53, 92
5, 462850, Note_off_c, 5, 71, 0
5, 462850, Note_off_c, 5, 55, 0
5, 462976, Note_on_c, 5, 68, 85
5, 462976, Note_on_c, 5, 52, 93
5, 462978, Note_off_c, 5, 69, 0
5, 462978, Note_off_c, 5, 53, 0
5, 463104, Note_on_c, 5, 66, 91
5, 463104, Note_on_c, 5, 49, 99
5, 463106, Note_off_c, 5, 68, 0
5, 463106, Note_off_c, 5, 52, 0
5, 463232, Note_on_c, 5, 64, 86
5, 463232, Note_on_c, 5, 47, 98
5, 463234, Note_off_c, 5, 66, 0
5, 463234, Note_off_c, 5, 49, 0
5, 463360, Note_on_c, 5, 69, 108
5, 463360, Note_on_c, 5, 54, 106
5, 463362, Note_off_c, 5, 64, 0
5, 463362, Note_off_c, 5, 47, 0
5, 463488, Note_on_c, 5, 68, 105
5, 463488, Note_on_c, 5, 51, 101
5, 463490, Note_off_c, 5, 69, 0
5, 463490, Note_off_c, 5, 54, 0
5, 463616, Note_on_c, 5, 66, 86
5, 463616, Note_on_c, 5, 49, 93
5, 463618, Note_off_c, 5, 68, 0
5, 463618, Note_off_c, 5, 51, 0
5, 463737, Note_off_c, 5, 66, 0
5, 463744, Note_on_c, 5, 47, 90
5, 463746, Note_off_c, 5, 49, 0
5, 463872, Note_on_c, 5, 77, 85
5, 463872, Note_on_c, 5, 60, 126
5, 463874, Note_off_c, 5, 47, 0
5, 464000, Note_on_c, 5, 75, 77
5, 464000, Note_on_c, 5, 58, 125
5, 464002, Note_off_c, 5, 77, 0
5, 464002, Note_off_c, 5, 60, 0
5, 464128, Note_on_c, 5, 73, 88
5, 464128, Note_on_c, 5, 56, 96
5, 464130, Note_off_c, 5, 75, 0
5, 464130, Note_off_c, 5, 58, 0
5, 464256, Note_on_c, 5, 71, 83
5, 464256, Note_on_c, 5, 54, 94
5, 464258, Note_off_c, 5, 73, 0
5, 464258, Note_off_c, 5, 56, 0
5, 464384, Note_on_c, 5, 70, 91
5, 464384, Note_on_c, 5, 53, 94
5, 464386, Note_off_c, 5, 71, 0
5, 464386, Note_off_c, 5, 54, 0
5, 464505, Note_off_c, 5, 53, 0
5, 464512, Note_on_c, 5, 69, 84
5, 464514, Note_off_c, 5, 70, 0
5, 464640, Note_on_c, 5, 67, 86
5, 464640, Note_on_c, 5, 50, 86
5, 464642, Note_off_c, 5, 69, 0
5, 464768, Note_on_c, 5, 64, 79
5, 464768, Note_on_c, 5, 49, 85
5, 464770, Note_off_c, 5, 67, 0
5, 464770, Note_off_c, 5, 50, 0
5, 464896, Note_on_c, 5, 63, 93
5, 464896, Note_on_c, 5, 46, 94
5, 464898, Note_off_c, 5, 64, 0
5, 464898, Note_off_c, 5, 49, 0
5, 465024, Note_on_c, 5, 61, 84
5, 465024, Note_on_c, 5, 44, 90
5, 465026, Note_off_c, 5, 63, 0
5, 465026, Note_off_c, 5, 46, 0
5, 465152, Note_on_c, 5, 60, 93
5, 465152, Note_on_c, 5, 43, 94
5, 465154, Note_off_c, 5, 61, 0
5, 465154, Note_off_c, 5, 44, 0
5, 465280, Note_on_c, 5, 58, 92
5, 465280, Note_on_c, 5, 42, 92
5, 465282, Note_off_c, 5, 60, 0
5, 465282, Note_off_c, 5, 43, 0
5, 465401, Note_off_c, 5, 42, 0
5, 465408, Note_on_c, 5, 68, 122
5, 465410, Note_off_c, 5, 58, 0
5, 465536, Note_on_c, 5, 66, 119
5, 465536, Note_on_c, 5, 49, 88
5, 465538, Note_off_c, 5, 68, 0
5, 465664, Note_on_c, 5, 64, 95
5, 465664, Note_on_c, 5, 47, 84
5, 465666, Note_off_c, 5, 66, 0
5, 465666, Note_off_c, 5, 49, 0
5, 465792, Note_on_c, 5, 69, 109
5, 465792, Note_on_c, 5, 52, 104
5, 465794, Note_off_c, 5, 64, 0
5, 465794, Note_off_c, 5, 47, 0
5, 465920, Note_on_c, 5, 67, 97
5, 465920, Note_on_c, 5, 50, 103
5, 465922, Note_off_c, 5, 69, 0
5, 465922, Note_off_c, 5, 52, 0
5, 466048, Note_on_c, 5, 65, 91
5, 466048, Note_on_c, 5, 48, 96
5, 466050, Note_off_c, 5, 67, 0
5, 466050, Note_off_c, 5, 50, 0
5, 466176, Note_on_c, 5, 70, 109
5, 466176, Note_on_c, 5, 53, 101
5, 466178, Note_off_c, 5, 65, 0
5, 466178, Note_off_c, 5, 48, 0
5, 466304, Note_on_c, 5, 68, 102
5, 466304, Note_on_c, 5, 51, 97
5, 466306, Note_off_c, 5, 70, 0
5, 466306, Note_off_c, 5, 53, 0
5, 466425, Note_off_c, 5, 68, 0
5, 466432, Note_on_c, 5, 49, 93
5, 466434, Note_off_c, 5, 51, 0
5, 466560, Note_on_c, 5, 72, 84
5, 466560, Note_on_c, 5, 55, 104
5, 466562, Note_off_c, 5, 49, 0
5, 466688, Note_on_c, 5, 70, 78
5, 466688, Note_on_c, 5, 54, 104
5, 466690, Note_off_c, 5, 72, 0
5, 466690, Note_off_c, 5, 55, 0
5, 466816, Note_on_c, 5, 68, 89
5, 466816, Note_on_c, 5, 52, 99
5, 466818, Note_off_c, 5, 70, 0
5, 466818, Note_off_c, 5, 54, 0
5, 466944, Note_on_c, 5, 67, 80
5, 466944, Note_on_c, 5, 51, 97
5, 466946, Note_off_c, 5, 68, 0
5, 466946, Note_off_c, 5, 52, 0
5, 467072, Note_on_c, 5, 65, 93
5, 467072, Note_on_c, 5, 49, 91
5, 467074, Note_off_c, 5, 67, 0
5, 467074, Note_off_c, 5, 51, 0
5, 467200, Note_on_c, 5, 63, 89
5, 467200, Note_on_c, 5, 48, 91
5, 467202, Note_off_c, 5, 65, 0
5, 467202, Note_off_c, 5, 49, 0
5, 467328, Note_on_c, 5, 66, 101
5, 467328, Note_on_c, 5, 50, 101
5, 467330, Note_off_c, 5, 63, 0
5, 467330, Note_off_c, 5, 48, 0
5, 467456, Note_on_c, 5, 62, 90
5, 467456, Note_on_c, 5, 45, 91
5, 467458, Note_off_c, 5, 66, 0
5, 467458, Note_off_c, 5, 50, 0
5, 467584, Note_on_c, 5, 70, 116
5, 467584, Note_on_c, 5, 53, 104
5, 467586, Note_off_c, 5, 62, 0
5, 467586, Note_off_c, 5, 45, 0
5, 467712, Note_on_c, 5, 68, 111
5, 467712, Note_on_c, 5, 51, 100
5, 467714, Note_off_c, 5, 70, 0
5, 467714, Note_off_c, 5, 53, 0
5, 467840, Note_on_c, 5, 66, 88
5, 467840, Note_on_c, 5, 50, 91
5, 467842, Note_off_c, 5, 68, 0
5, 467842, Note_off_c, 5, 51, 0
5, 467968, Note_on_c, 5, 62, 73
5, 467968, Note_on_c, 5, 45, 82
5, 467970, Note_off_c, 5, 66, 0
5, 467970, Note_off_c, 5, 50, 0
5, 468096, Note_on_c, 5, 57, 93
5, 468096, Note_on_c, 5, 42, 93
5, 468098, Note_off_c, 5, 62, 0
5, 468098, Note_off_c, 5, 45, 0
5, 468156, Note_off_c, 5, 57, 0
5, 468156, Note_off_c, 5, 42, 0
5, 468157, End_track
6, 0, Start_track
6, 0, Program_c, 6, 70
6, 0, Control_c, 6, 121, 0
6, 0, Control_c, 6, 64, 0
6, 0, Control_c, 6, 91, 57
6, 0, Control_c, 6, 10, 70
6, 0, Control_c, 6, 7, 98
6, 0, Control_c, 6, 121, 0
6, 0, Control_c, 6, 64, 0
6, 0, Control_c, 6, 91, 57
6, 0, Control_c, 6, 10, 70
6, 0, Control_c, 6, 7, 98
6, 0, Title_t, "Bassoon"
6, 55616, Note_on_c, 6, 58, 60
6, 55744, Note_off_c, 6, 58, 0
6, 55872, Note_on_c, 6, 58, 56
6, 56000, Note_off_c, 6, 58, 0
6, 56128, Note_on_c, 6, 58, 66
6, 56256, Note_off_c, 6, 58, 0
6, 56384, Note_on_c, 6, 58, 57
6, 56512, Note_off_c, 6, 58, 0
6, 56640, Note_on_c, 6, 58, 59
6, 56768, Note_off_c, 6, 58, 0
6, 56896, Note_on_c, 6, 58, 61
6, 57024, Note_off_c, 6, 58, 0
6, 57024, Note_on_c, 6, 57, 62
6, 57152, Note_off_c, 6, 57, 0
6, 57280, Note_on_c, 6, 57, 62
6, 57408, Note_off_c, 6, 57, 0
6, 57536, Note_on_c, 6, 57, 59
6, 57664, Note_off_c, 6, 57, 0
6, 57664, Note_on_c, 6, 58, 65
6, 57792, Note_off_c, 6, 58, 0
6, 57920, Note_on_c, 6, 58, 56
6, 58048, Note_off_c, 6, 58, 0
6, 58176, Note_on_c, 6, 58, 60
6, 58304, Note_off_c, 6, 58, 0
6, 58432, Note_on_c, 6, 58, 63
6, 58560, Note_off_c, 6, 58, 0
6, 58560, Note_on_c, 6, 57, 65
6, 58688, Note_off_c, 6, 57, 0
6, 58816, Note_on_c, 6, 57, 62
6, 58944, Note_off_c, 6, 57, 0
6, 59072, Note_on_c, 6, 57, 58
6, 59200, Note_off_c, 6, 57, 0
6, 59200, Note_on_c, 6, 58, 67
6, 59328, Note_off_c, 6, 58, 0
6, 59456, Note_on_c, 6, 58, 60
6, 59584, Note_off_c, 6, 58, 0
6, 59712, Note_on_c, 6, 58, 58
6, 59840, Note_off_c, 6, 58, 0
6, 59968, Note_on_c, 6, 61, 65
6, 60096, Note_off_c, 6, 61, 0
6, 60224, Note_on_c, 6, 61, 64
6, 60352, Note_off_c, 6, 61, 0
6, 60480, Note_on_c, 6, 61, 54
6, 60608, Note_off_c, 6, 61, 0
6, 60736, Note_on_c, 6, 61, 61
6, 60864, Note_off_c, 6, 61, 0
6, 60992, Note_on_c, 6, 61, 59
6, 61120, Note_off_c, 6, 61, 0
6, 61120, Note_on_c, 6, 61, 68
6, 61248, Note_off_c, 6, 61, 0
6, 61376, Note_on_c, 6, 61, 60
6, 61504, Note_off_c, 6, 61, 0
6, 61632, Note_on_c, 6, 61, 58
6, 61760, Note_off_c, 6, 61, 0
6, 61888, Note_on_c, 6, 61, 58
6, 62016, Note_off_c, 6, 61, 0
6, 62144, Note_on_c, 6, 61, 59
6, 62272, Note_off_c, 6, 61, 0
6, 62400, Note_on_c, 6, 61, 58
6, 62528, Note_off_c, 6, 61, 0
6, 62528, Note_on_c, 6, 62, 69
6, 62656, Note_off_c, 6, 62, 0
6, 62784, Note_on_c, 6, 62, 58
6, 62912, Note_off_c, 6, 62, 0
6, 63040, Note_on_c, 6, 62, 60
6, 63168, Note_off_c, 6, 62, 0
6, 63296, Note_on_c, 6, 62, 62
6, 63424, Note_off_c, 6, 62, 0
6, 63552, Note_on_c, 6, 62, 62
6, 63680, Note_off_c, 6, 62, 0
6, 63680, Note_on_c, 6, 63, 70
6, 63808, Note_off_c, 6, 63, 0
6, 63936, Note_on_c, 6, 63, 58
6, 64064, Note_off_c, 6, 63, 0
6, 64192, Note_on_c, 6, 63, 64
6, 64320, Note_off_c, 6, 63, 0
6, 64448, Note_on_c, 6, 63, 59
6, 64576, Note_off_c, 6, 63, 0
6, 64704, Note_on_c, 6, 63, 60
6, 64768, Note_on_c, 6, 64, 67
6, 64769, Note_off_c, 6, 63, 0
6, 64828, Note_off_c, 6, 64, 0
6, 64960, Note_on_c, 6, 63, 58
6, 64960, Note_on_c, 6, 64, 58
6, 65856, Note_off_c, 6, 63, 0
6, 65856, Note_off_c, 6, 64, 0
6, 65984, Note_on_c, 6, 63, 62
6, 65984, Note_on_c, 6, 64, 62
6, 66304, Note_off_c, 6, 63, 0
6, 66304, Note_off_c, 6, 64, 0
6, 66304, Note_on_c, 6, 63, 85
6, 66304, Note_on_c, 6, 64, 85
6, 66560, Note_off_c, 6, 63, 0
6, 66560, Note_off_c, 6, 64, 0
6, 66560, Note_on_c, 6, 63, 61
6, 66560, Note_on_c, 6, 64, 61
6, 66880, Note_off_c, 6, 63, 0
6, 66880, Note_off_c, 6, 64, 0
6, 67008, Note_on_c, 6, 63, 56
6, 67008, Note_on_c, 6, 64, 56
6, 67264, Note_off_c, 6, 63, 0
6, 67264, Note_off_c, 6, 64, 0
6, 67264, Note_on_c, 6, 66, 65
6, 67264, Note_on_c, 6, 67, 65
6, 68096, Note_off_c, 6, 66, 0
6, 68096, Note_off_c, 6, 67, 0
6, 68096, Note_on_c, 6, 66, 83
6, 68096, Note_on_c, 6, 67, 83
6, 68736, Note_off_c, 6, 66, 0
6, 68736, Note_off_c, 6, 67, 0
6, 68736, Note_on_c, 6, 66, 62
6, 68736, Note_on_c, 6, 67, 62
6, 69120, Note_off_c, 6, 66, 0
6, 69120, Note_off_c, 6, 67, 0
6, 69120, Note_on_c, 6, 66, 86
6, 69120, Note_on_c, 6, 67, 86
6, 69888, Note_off_c, 6, 66, 0
6, 69888, Note_off_c, 6, 67, 0
6, 72192, Note_on_c, 6, 64, 107
6, 72224, Note_off_c, 6, 64, 0
6, 72224, Note_on_c, 6, 59, 88
6, 72256, Note_off_c, 6, 59, 0
6, 72256, Note_on_c, 6, 57, 92
6, 72288, Note_off_c, 6, 57, 0
6, 72288, Note_on_c, 6, 55, 90
6, 72320, Note_off_c, 6, 55, 0
6, 72320, Note_on_c, 6, 54, 95
6, 72352, Note_off_c, 6, 54, 0
6, 72352, Note_on_c, 6, 52, 96
6, 72384, Note_off_c, 6, 52, 0
6, 72384, Note_on_c, 6, 51, 95
6, 72416, Note_off_c, 6, 51, 0
6, 72416, Note_on_c, 6, 49, 95
6, 72446, Note_off_c, 6, 49, 0
6, 72448, Note_on_c, 6, 48, 123
6, 72448, Note_on_c, 6, 60, 123
6, 72473, Note_off_c, 6, 48, 0
6, 72473, Note_off_c, 6, 60, 0
6, 72473, Note_on_c, 6, 46, 101
6, 72473, Note_on_c, 6, 58, 101
6, 72499, Note_off_c, 6, 46, 0
6, 72499, Note_off_c, 6, 58, 0
6, 72499, Note_on_c, 6, 44, 97
6, 72499, Note_on_c, 6, 56, 97
6, 72524, Note_off_c, 6, 44, 0
6, 72524, Note_off_c, 6, 56, 0
6, 72524, Note_on_c, 6, 42, 93
6, 72524, Note_on_c, 6, 54, 93
6, 72550, Note_off_c, 6, 42, 0
6, 72550, Note_off_c, 6, 54, 0
6, 72550, Note_on_c, 6, 40, 95
6, 72550, Note_on_c, 6, 52, 95
6, 72576, Note_off_c, 6, 40, 0
6, 72576, Note_off_c, 6, 52, 0
6, 72576, Note_on_c, 6, 38, 92
6, 72576, Note_on_c, 6, 50, 92
6, 72601, Note_off_c, 6, 38, 0
6, 72601, Note_off_c, 6, 50, 0
6, 72601, Note_on_c, 6, 40, 102
6, 72601, Note_on_c, 6, 52, 102
6, 72627, Note_off_c, 6, 40, 0
6, 72627, Note_off_c, 6, 52, 0
6, 72627, Note_on_c, 6, 42, 101
6, 72627, Note_on_c, 6, 54, 101
6, 72652, Note_off_c, 6, 42, 0
6, 72652, Note_off_c, 6, 54, 0
6, 72652, Note_on_c, 6, 44, 99
6, 72652, Note_on_c, 6, 56, 99
6, 72678, Note_off_c, 6, 44, 0
6, 72678, Note_off_c, 6, 56, 0
6, 72678, Note_on_c, 6, 46, 101
6, 72678, Note_on_c, 6, 58, 101
6, 72702, Note_off_c, 6, 46, 0
6, 72702, Note_off_c, 6, 58, 0
6, 72704, Note_on_c, 6, 48, 100
6, 72704, Note_on_c, 6, 60, 100
6, 72736, Note_off_c, 6, 48, 0
6, 72736, Note_off_c, 6, 60, 0
6, 72736, Note_on_c, 6, 49, 85
6, 72768, Note_off_c, 6, 49, 0
6, 72768, Note_on_c, 6, 51, 99
6, 72800, Note_off_c, 6, 51, 0
6, 72800, Note_on_c, 6, 52, 101
6, 72832, Note_off_c, 6, 52, 0
6, 72832, Note_on_c, 6, 54, 97
6, 72864, Note_off_c, 6, 54, 0
6, 72864, Note_on_c, 6, 55, 99
6, 72896, Note_off_c, 6, 55, 0
6, 72896, Note_on_c, 6, 57, 95
6, 72928, Note_off_c, 6, 57, 0
6, 72928, Note_on_c, 6, 59, 101
6, 72960, Note_off_c, 6, 59, 0
6, 72960, Note_on_c, 6, 63, 110
6, 72992, Note_off_c, 6, 63, 0
6, 72992, Note_on_c, 6, 60, 93
6, 73024, Note_off_c, 6, 60, 0
6, 73024, Note_on_c, 6, 62, 101
6, 73056, Note_off_c, 6, 62, 0
6, 73056, Note_on_c, 6, 63, 104
6, 73088, Note_off_c, 6, 63, 0
6, 73088, Note_on_c, 6, 64, 104
6, 73118, Note_off_c, 6, 64, 0
6, 76992, Note_on_c, 6, 53, 85
6, 77056, Note_on_c, 6, 56, 86
6, 77057, Note_off_c, 6, 53, 0
6, 77248, Note_on_c, 6, 58, 99
6, 77251, Note_off_c, 6, 56, 0
6, 77312, Note_on_c, 6, 68, 117
6, 77313, Note_off_c, 6, 58, 0
6, 77504, Note_on_c, 6, 60, 81
6, 77507, Note_off_c, 6, 68, 0
6, 77760, Note_on_c, 6, 61, 85
6, 77765, Note_off_c, 6, 60, 0
6, 78064, Note_off_c, 6, 61, 0
6, 78272, Note_on_c, 6, 53, 85
6, 78336, Note_on_c, 6, 56, 84
6, 78337, Note_off_c, 6, 53, 0
6, 78528, Note_on_c, 6, 58, 95
6, 78531, Note_off_c, 6, 56, 0
6, 78592, Note_on_c, 6, 70, 120
6, 78593, Note_off_c, 6, 58, 0
6, 78784, Note_on_c, 6, 61, 75
6, 78787, Note_off_c, 6, 70, 0
6, 78912, Note_on_c, 6, 63, 80
6, 78914, Note_off_c, 6, 61, 0
6, 79276, Note_off_c, 6, 63, 0
6, 80832, Note_on_c, 6, 45, 90
6, 80960, Note_off_c, 6, 45, 0
6, 80960, Note_on_c, 6, 45, 98
6, 81088, Note_off_c, 6, 45, 0
6, 81088, Note_on_c, 6, 45, 96
6, 81216, Note_off_c, 6, 45, 0
6, 81216, Note_on_c, 6, 45, 99
6, 81344, Note_off_c, 6, 45, 0
6, 81344, Note_on_c, 6, 45, 93
6, 81472, Note_off_c, 6, 45, 0
6, 81472, Note_on_c, 6, 45, 94
6, 81600, Note_off_c, 6, 45, 0
6, 81600, Note_on_c, 6, 38, 99
6, 81600, Note_on_c, 6, 45, 99
6, 81728, Note_off_c, 6, 38, 0
6, 81728, Note_off_c, 6, 45, 0
6, 81728, Note_on_c, 6, 38, 101
6, 81728, Note_on_c, 6, 45, 101
6, 81856, Note_off_c, 6, 38, 0
6, 81856, Note_off_c, 6, 45, 0
6, 81856, Note_on_c, 6, 38, 97
6, 81856, Note_on_c, 6, 45, 97
6, 81984, Note_off_c, 6, 38, 0
6, 81984, Note_off_c, 6, 45, 0
6, 81984, Note_on_c, 6, 38, 92
6, 82112, Note_off_c, 6, 38, 0
6, 82112, Note_on_c, 6, 38, 92
6, 82240, Note_off_c, 6, 38, 0
6, 82240, Note_on_c, 6, 38, 99
6, 82368, Note_off_c, 6, 38, 0
6, 82368, Note_on_c, 6, 38, 99
6, 82496, Note_off_c, 6, 38, 0
6, 82496, Note_on_c, 6, 38, 97
6, 82624, Note_off_c, 6, 38, 0
6, 82624, Note_on_c, 6, 38, 97
6, 82752, Note_off_c, 6, 38, 0
6, 82752, Note_on_c, 6, 43, 110
6, 82880, Note_off_c, 6, 43, 0
6, 82880, Note_on_c, 6, 43, 99
6, 83008, Note_off_c, 6, 43, 0
6, 83008, Note_on_c, 6, 43, 99
6, 83136, Note_off_c, 6, 43, 0
6, 83136, Note_on_c, 6, 43, 102
6, 83264, Note_off_c, 6, 43, 0
6, 83264, Note_on_c, 6, 43, 97
6, 83392, Note_off_c, 6, 43, 0
6, 83392, Note_on_c, 6, 43, 104
6, 83520, Note_off_c, 6, 43, 0
6, 83520, Note_on_c, 6, 43, 98
6, 83648, Note_off_c, 6, 43, 0
6, 83648, Note_on_c, 6, 43, 95
6, 83776, Note_off_c, 6, 43, 0
6, 83776, Note_on_c, 6, 43, 101
6, 83904, Note_off_c, 6, 43, 0
6, 83904, Note_on_c, 6, 43, 97
6, 84032, Note_off_c, 6, 43, 0
6, 84032, Note_on_c, 6, 43, 98
6, 84160, Note_off_c, 6, 43, 0
6, 84160, Note_on_c, 6, 43, 96
6, 84288, Note_off_c, 6, 43, 0
6, 84288, Note_on_c, 6, 48, 104
6, 84288, Note_on_c, 6, 36, 111
6, 84416, Note_off_c, 6, 48, 0
6, 84416, Note_off_c, 6, 36, 0
6, 84416, Note_on_c, 6, 48, 97
6, 84416, Note_on_c, 6, 36, 117
6, 84544, Note_off_c, 6, 48, 0
6, 84544, Note_off_c, 6, 36, 0
6, 84544, Note_on_c, 6, 48, 98
6, 84544, Note_on_c, 6, 36, 118
6, 84672, Note_off_c, 6, 48, 0
6, 84672, Note_off_c, 6, 36, 0
6, 84672, Note_on_c, 6, 48, 104
6, 84672, Note_on_c, 6, 36, 115
6, 84800, Note_off_c, 6, 48, 0
6, 84800, Note_off_c, 6, 36, 0
6, 84800, Note_on_c, 6, 48, 97
6, 84800, Note_on_c, 6, 36, 122
6, 84928, Note_off_c, 6, 48, 0
6, 84928, Note_off_c, 6, 36, 0
6, 84928, Note_on_c, 6, 48, 90
6, 84928, Note_on_c, 6, 36, 119
6, 85120, Note_off_c, 6, 48, 0
6, 85120, Note_off_c, 6, 36, 0
6, 85120, Note_on_c, 6, 48, 103
6, 85120, Note_on_c, 6, 36, 117
6, 85312, Note_off_c, 6, 48, 0
6, 85312, Note_off_c, 6, 36, 0
6, 85312, Note_on_c, 6, 48, 98
6, 85312, Note_on_c, 6, 36, 118
6, 85440, Note_off_c, 6, 48, 0
6, 85440, Note_off_c, 6, 36, 0
6, 85440, Note_on_c, 6, 48, 97
6, 85440, Note_on_c, 6, 36, 117
6, 85504, Note_off_c, 6, 48, 0
6, 85504, Note_off_c, 6, 36, 0
6, 85504, Note_on_c, 6, 48, 98
6, 85504, Note_on_c, 6, 36, 119
6, 85632, Note_off_c, 6, 48, 0
6, 85632, Note_off_c, 6, 36, 0
6, 85632, Note_on_c, 6, 48, 97
6, 85632, Note_on_c, 6, 36, 116
6, 85824, Note_off_c, 6, 48, 0
6, 85824, Note_off_c, 6, 36, 0
6, 85824, Note_on_c, 6, 48, 97
6, 85824, Note_on_c, 6, 36, 116
6, 85952, Note_off_c, 6, 48, 0
6, 85952, Note_off_c, 6, 36, 0
6, 85952, Note_on_c, 6, 48, 97
6, 85952, Note_on_c, 6, 36, 115
6, 86080, Note_off_c, 6, 48, 0
6, 86080, Note_off_c, 6, 36, 0
6, 86080, Note_on_c, 6, 48, 98
6, 86080, Note_on_c, 6, 36, 120
6, 86208, Note_off_c, 6, 48, 0
6, 86208, Note_off_c, 6, 36, 0
6, 86208, Note_on_c, 6, 48, 99
6, 86208, Note_on_c, 6, 36, 118
6, 86272, Note_off_c, 6, 48, 0
6, 86272, Note_off_c, 6, 36, 0
6, 86272, Note_on_c, 6, 48, 96
6, 86272, Note_on_c, 6, 36, 119
6, 86400, Note_off_c, 6, 48, 0
6, 86400, Note_off_c, 6, 36, 0
6, 86400, Note_on_c, 6, 48, 95
6, 86400, Note_on_c, 6, 36, 122
6, 86592, Note_off_c, 6, 48, 0
6, 86592, Note_off_c, 6, 36, 0
6, 86592, Note_on_c, 6, 48, 100
6, 86592, Note_on_c, 6, 36, 118
6, 86720, Note_off_c, 6, 48, 0
6, 86720, Note_off_c, 6, 36, 0
6, 86720, Note_on_c, 6, 48, 96
6, 86720, Note_on_c, 6, 36, 115
6, 86848, Note_off_c, 6, 48, 0
6, 86848, Note_off_c, 6, 36, 0
6, 86848, Note_on_c, 6, 48, 99
6, 86848, Note_on_c, 6, 36, 115
6, 86976, Note_off_c, 6, 48, 0
6, 86976, Note_off_c, 6, 36, 0
6, 86976, Note_on_c, 6, 48, 99
6, 86976, Note_on_c, 6, 36, 116
6, 87104, Note_off_c, 6, 48, 0
6, 87104, Note_off_c, 6, 36, 0
6, 87104, Note_on_c, 6, 48, 95
6, 87104, Note_on_c, 6, 36, 119
6, 87232, Note_off_c, 6, 48, 0
6, 87232, Note_off_c, 6, 36, 0
6, 87232, Note_on_c, 6, 48, 100
6, 87232, Note_on_c, 6, 36, 119
6, 87360, Note_off_c, 6, 48, 0
6, 87360, Note_off_c, 6, 36, 0
6, 87360, Note_on_c, 6, 48, 98
6, 87360, Note_on_c, 6, 36, 118
6, 87488, Note_off_c, 6, 48, 0
6, 87488, Note_off_c, 6, 36, 0
6, 87488, Note_on_c, 6, 48, 99
6, 87488, Note_on_c, 6, 36, 117
6, 87616, Note_off_c, 6, 48, 0
6, 87616, Note_off_c, 6, 36, 0
6, 87616, Note_on_c, 6, 48, 94
6, 87616, Note_on_c, 6, 36, 116
6, 87744, Note_off_c, 6, 48, 0
6, 87744, Note_off_c, 6, 36, 0
6, 87744, Note_on_c, 6, 48, 101
6, 87744, Note_on_c, 6, 36, 120
6, 87808, Note_off_c, 6, 48, 0
6, 87808, Note_off_c, 6, 36, 0
6, 87808, Note_on_c, 6, 48, 101
6, 87808, Note_on_c, 6, 36, 119
6, 87936, Note_off_c, 6, 48, 0
6, 87936, Note_off_c, 6, 36, 0
6, 87936, Note_on_c, 6, 48, 95
6, 87936, Note_on_c, 6, 36, 117
6, 88064, Note_off_c, 6, 48, 0
6, 88064, Note_off_c, 6, 36, 0
6, 88064, Note_on_c, 6, 48, 98
6, 88064, Note_on_c, 6, 48, 127
6, 88256, Note_off_c, 6, 48, 0
6, 88256, Note_off_c, 6, 48, 0
6, 88256, Note_on_c, 6, 48, 98
6, 88256, Note_on_c, 6, 48, 121
6, 88384, Note_off_c, 6, 48, 0
6, 88384, Note_off_c, 6, 48, 0
6, 88384, Note_on_c, 6, 48, 95
6, 88384, Note_on_c, 6, 48, 118
6, 88512, Note_off_c, 6, 48, 0
6, 88512, Note_off_c, 6, 48, 0
6, 88512, Note_on_c, 6, 45, 94
6, 88512, Note_on_c, 6, 45, 110
6, 88576, Note_off_c, 6, 45, 0
6, 88576, Note_off_c, 6, 45, 0
6, 88576, Note_on_c, 6, 45, 100
6, 88576, Note_on_c, 6, 45, 117
6, 88704, Note_off_c, 6, 45, 0
6, 88704, Note_off_c, 6, 45, 0
6, 88704, Note_on_c, 6, 45, 95
6, 88704, Note_on_c, 6, 45, 125
6, 88896, Note_off_c, 6, 45, 0
6, 88896, Note_off_c, 6, 45, 0
6, 88896, Note_on_c, 6, 45, 98
6, 88896, Note_on_c, 6, 45, 113
6, 89024, Note_off_c, 6, 45, 0
6, 89024, Note_off_c, 6, 45, 0
6, 89024, Note_on_c, 6, 45, 98
6, 89024, Note_on_c, 6, 45, 116
6, 89152, Note_off_c, 6, 45, 0
6, 89152, Note_off_c, 6, 45, 0
6, 89152, Note_on_c, 6, 33, 113
6, 89152, Note_on_c, 6, 45, 113
6, 89216, Note_off_c, 6, 33, 0
6, 89216, Note_off_c, 6, 45, 0
6, 89216, Note_on_c, 6, 27, 103
6, 89216, Note_on_c, 6, 39, 103
6, 89408, Note_off_c, 6, 27, 0
6, 89408, Note_off_c, 6, 39, 0
6, 89408, Note_on_c, 6, 27, 113
6, 89408, Note_on_c, 6, 39, 113
6, 89536, Note_off_c, 6, 27, 0
6, 89536, Note_off_c, 6, 39, 0
6, 89536, Note_on_c, 6, 27, 118
6, 89536, Note_on_c, 6, 39, 118
6, 89664, Note_off_c, 6, 27, 0
6, 89664, Note_off_c, 6, 39, 0
6, 89664, Note_on_c, 6, 27, 112
6, 89664, Note_on_c, 6, 39, 112
6, 89792, Note_off_c, 6, 27, 0
6, 89792, Note_off_c, 6, 39, 0
6, 89792, Note_on_c, 6, 27, 114
6, 89792, Note_on_c, 6, 39, 114
6, 89984, Note_off_c, 6, 27, 0
6, 89984, Note_off_c, 6, 39, 0
6, 89984, Note_on_c, 6, 27, 111
6, 89984, Note_on_c, 6, 39, 111
6, 90112, Note_off_c, 6, 27, 0
6, 90112, Note_off_c, 6, 39, 0
6, 90112, Note_on_c, 6, 27, 114
6, 90112, Note_on_c, 6, 39, 114
6, 90304, Note_off_c, 6, 27, 0
6, 90304, Note_off_c, 6, 39, 0
6, 90304, Note_on_c, 6, 27, 114
6, 90304, Note_on_c, 6, 39, 114
6, 90368, Note_off_c, 6, 27, 0
6, 90368, Note_off_c, 6, 39, 0
6, 90368, Note_on_c, 6, 27, 118
6, 90368, Note_on_c, 6, 39, 118
6, 90496, Note_off_c, 6, 27, 0
6, 90496, Note_off_c, 6, 39, 0
6, 90496, Note_on_c, 6, 27, 115
6, 90496, Note_on_c, 6, 39, 115
6, 90688, Note_off_c, 6, 27, 0
6, 90688, Note_off_c, 6, 39, 0
6, 90688, Note_on_c, 6, 27, 114
6, 90688, Note_on_c, 6, 39, 114
6, 90752, Note_off_c, 6, 27, 0
6, 90752, Note_off_c, 6, 39, 0
6, 90752, Note_on_c, 6, 46, 127
6, 90752, Note_on_c, 6, 58, 127
6, 90944, Note_off_c, 6, 46, 0
6, 90944, Note_off_c, 6, 58, 0
6, 90944, Note_on_c, 6, 46, 109
6, 90944, Note_on_c, 6, 58, 109
6, 91072, Note_off_c, 6, 46, 0
6, 91072, Note_off_c, 6, 58, 0
6, 91072, Note_on_c, 6, 36, 102
6, 91072, Note_on_c, 6, 48, 102
6, 91136, Note_off_c, 6, 36, 0
6, 91136, Note_off_c, 6, 48, 0
6, 91136, Note_on_c, 6, 36, 113
6, 91136, Note_on_c, 6, 48, 113
6, 91264, Note_off_c, 6, 36, 0
6, 91264, Note_off_c, 6, 48, 0
6, 91264, Note_on_c, 6, 36, 118
6, 91264, Note_on_c, 6, 48, 118
6, 91456, Note_off_c, 6, 36, 0
6, 91456, Note_off_c, 6, 48, 0
6, 91456, Note_on_c, 6, 36, 116
6, 91456, Note_on_c, 6, 48, 116
6, 91584, Note_off_c, 6, 36, 0
6, 91584, Note_off_c, 6, 48, 0
6, 91584, Note_on_c, 6, 36, 109
6, 91584, Note_on_c, 6, 48, 109
6, 91712, Note_off_c, 6, 36, 0
6, 91712, Note_off_c, 6, 48, 0
6, 91712, Note_on_c, 6, 36, 108
6, 91712, Note_on_c, 6, 48, 108
6, 91840, Note_off_c, 6, 36, 0
6, 91840, Note_off_c, 6, 48, 0
6, 91840, Note_on_c, 6, 36, 114
6, 91840, Note_on_c, 6, 48, 114
6, 91968, Note_off_c, 6, 36, 0
6, 91968, Note_off_c, 6, 48, 0
6, 91968, Note_on_c, 6, 36, 115
6, 91968, Note_on_c, 6, 48, 115
6, 92032, Note_off_c, 6, 36, 0
6, 92032, Note_off_c, 6, 48, 0
6, 92032, Note_on_c, 6, 36, 114
6, 92032, Note_on_c, 6, 48, 114
6, 92160, Note_off_c, 6, 36, 0
6, 92160, Note_off_c, 6, 48, 0
6, 92160, Note_on_c, 6, 36, 114
6, 92160, Note_on_c, 6, 48, 114
6, 92288, Note_off_c, 6, 36, 0
6, 92288, Note_off_c, 6, 48, 0
6, 92288, Note_on_c, 6, 30, 103
6, 92288, Note_on_c, 6, 42, 103
6, 92416, Note_off_c, 6, 30, 0
6, 92416, Note_off_c, 6, 42, 0
6, 92416, Note_on_c, 6, 30, 111
6, 92416, Note_on_c, 6, 42, 111
6, 92544, Note_off_c, 6, 30, 0
6, 92544, Note_off_c, 6, 42, 0
6, 92544, Note_on_c, 6, 30, 113
6, 92544, Note_on_c, 6, 42, 113
6, 92608, Note_off_c, 6, 30, 0
6, 92608, Note_off_c, 6, 42, 0
6, 92608, Note_on_c, 6, 30, 116
6, 92608, Note_on_c, 6, 42, 116
6, 92736, Note_off_c, 6, 30, 0
6, 92736, Note_off_c, 6, 42, 0
6, 92736, Note_on_c, 6, 30, 114
6, 92736, Note_on_c, 6, 42, 114
6, 92864, Note_off_c, 6, 30, 0
6, 92864, Note_off_c, 6, 42, 0
6, 92864, Note_on_c, 6, 30, 113
6, 92864, Note_on_c, 6, 42, 113
6, 93056, Note_off_c, 6, 30, 0
6, 93056, Note_off_c, 6, 42, 0
6, 93056, Note_on_c, 6, 30, 110
6, 93056, Note_on_c, 6, 42, 110
6, 93184, Note_off_c, 6, 30, 0
6, 93184, Note_off_c, 6, 42, 0
6, 93184, Note_on_c, 6, 33, 120
6, 93184, Note_on_c, 6, 45, 120
6, 93312, Note_off_c, 6, 33, 0
6, 93312, Note_off_c, 6, 45, 0
6, 93312, Note_on_c, 6, 33, 117
6, 93312, Note_on_c, 6, 45, 117
6, 93440, Note_off_c, 6, 33, 0
6, 93440, Note_off_c, 6, 45, 0
6, 93440, Note_on_c, 6, 33, 113
6, 93440, Note_on_c, 6, 45, 113
6, 93504, Note_off_c, 6, 33, 0
6, 93504, Note_off_c, 6, 45, 0
6, 93504, Note_on_c, 6, 33, 112
6, 93504, Note_on_c, 6, 45, 112
6, 93696, Note_off_c, 6, 33, 0
6, 93696, Note_off_c, 6, 45, 0
6, 93696, Note_on_c, 6, 33, 114
6, 93696, Note_on_c, 6, 45, 114
6, 93824, Note_off_c, 6, 33, 0
6, 93824, Note_off_c, 6, 45, 0
6, 93824, Note_on_c, 6, 33, 116
6, 93824, Note_on_c, 6, 45, 116
6, 93888, Note_off_c, 6, 33, 0
6, 93888, Note_off_c, 6, 45, 0
6, 93888, Note_on_c, 6, 33, 116
6, 93888, Note_on_c, 6, 45, 116
6, 94016, Note_off_c, 6, 33, 0
6, 94016, Note_off_c, 6, 45, 0
6, 94016, Note_on_c, 6, 33, 116
6, 94016, Note_on_c, 6, 45, 116
6, 94208, Note_off_c, 6, 33, 0
6, 94208, Note_off_c, 6, 45, 0
6, 94208, Note_on_c, 6, 33, 115
6, 94208, Note_on_c, 6, 45, 115
6, 94272, Note_off_c, 6, 33, 0
6, 94272, Note_off_c, 6, 45, 0
6, 94272, Note_on_c, 6, 34, 115
6, 94272, Note_on_c, 6, 46, 115
6, 94528, Note_off_c, 6, 34, 0
6, 94528, Note_off_c, 6, 46, 0
6, 94528, Note_on_c, 6, 34, 113
6, 94528, Note_on_c, 6, 46, 113
6, 94656, Note_off_c, 6, 34, 0
6, 94656, Note_off_c, 6, 46, 0
6, 94656, Note_on_c, 6, 34, 112
6, 94656, Note_on_c, 6, 46, 112
6, 94720, Note_off_c, 6, 34, 0
6, 94720, Note_off_c, 6, 46, 0
6, 94720, Note_on_c, 6, 34, 109
6, 94720, Note_on_c, 6, 46, 109
6, 94912, Note_off_c, 6, 34, 0
6, 94912, Note_off_c, 6, 46, 0
6, 94912, Note_on_c, 6, 34, 111
6, 94912, Note_on_c, 6, 46, 111
6, 95104, Note_off_c, 6, 34, 0
6, 95104, Note_off_c, 6, 46, 0
6, 95104, Note_on_c, 6, 34, 113
6, 95104, Note_on_c, 6, 46, 113
6, 95296, Note_off_c, 6, 34, 0
6, 95296, Note_off_c, 6, 46, 0
6, 95296, Note_on_c, 6, 35, 114
6, 95296, Note_on_c, 6, 47, 114
6, 95680, Note_off_c, 6, 35, 0
6, 95680, Note_off_c, 6, 47, 0
6, 95680, Note_on_c, 6, 35, 113
6, 95680, Note_on_c, 6, 47, 113
6, 95808, Note_off_c, 6, 35, 0
6, 95808, Note_off_c, 6, 47, 0
6, 95808, Note_on_c, 6, 35, 110
6, 95808, Note_on_c, 6, 47, 110
6, 96000, Note_off_c, 6, 35, 0
6, 96000, Note_off_c, 6, 47, 0
6, 96064, Note_on_c, 6, 28, 98
6, 96064, Note_on_c, 6, 40, 98
6, 96064, Note_on_c, 6, 47, 98
6, 96192, Note_off_c, 6, 28, 0
6, 96192, Note_off_c, 6, 40, 0
6, 96192, Note_off_c, 6, 47, 0
6, 96192, Note_on_c, 6, 28, 110
6, 96192, Note_on_c, 6, 40, 110
6, 96192, Note_on_c, 6, 47, 110
6, 96320, Note_off_c, 6, 28, 0
6, 96320, Note_off_c, 6, 40, 0
6, 96320, Note_off_c, 6, 47, 0
6, 96320, Note_on_c, 6, 35, 110
6, 96320, Note_on_c, 6, 47, 110
6, 96448, Note_off_c, 6, 35, 0
6, 96448, Note_off_c, 6, 47, 0
6, 96448, Note_on_c, 6, 35, 113
6, 96448, Note_on_c, 6, 47, 113
6, 96576, Note_off_c, 6, 35, 0
6, 96576, Note_off_c, 6, 47, 0
6, 96576, Note_on_c, 6, 35, 110
6, 96576, Note_on_c, 6, 47, 110
6, 96704, Note_off_c, 6, 35, 0
6, 96704, Note_off_c, 6, 47, 0
6, 96704, Note_on_c, 6, 28, 111
6, 96704, Note_on_c, 6, 40, 111
6, 96704, Note_on_c, 6, 47, 111
6, 96832, Note_off_c, 6, 28, 0
6, 96832, Note_off_c, 6, 40, 0
6, 96832, Note_off_c, 6, 47, 0
6, 96832, Note_on_c, 6, 35, 115
6, 96832, Note_on_c, 6, 47, 115
6, 96960, Note_off_c, 6, 35, 0
6, 96960, Note_off_c, 6, 47, 0
6, 96960, Note_on_c, 6, 35, 111
6, 96960, Note_on_c, 6, 47, 111
6, 97088, Note_off_c, 6, 35, 0
6, 97088, Note_off_c, 6, 47, 0
6, 97088, Note_on_c, 6, 30, 108
6, 97088, Note_on_c, 6, 42, 108
6, 97216, Note_off_c, 6, 30, 0
6, 97216, Note_off_c, 6, 42, 0
6, 97216, Note_on_c, 6, 36, 121
6, 97216, Note_on_c, 6, 48, 121
6, 97344, Note_off_c, 6, 36, 0
6, 97344, Note_off_c, 6, 48, 0
6, 97344, Note_on_c, 6, 36, 116
6, 97344, Note_on_c, 6, 48, 116
6, 97472, Note_off_c, 6, 36, 0
6, 97472, Note_off_c, 6, 48, 0
6, 97472, Note_on_c, 6, 36, 108
6, 97472, Note_on_c, 6, 48, 108
6, 97600, Note_off_c, 6, 36, 0
6, 97600, Note_off_c, 6, 48, 0
6, 97600, Note_on_c, 6, 36, 111
6, 97600, Note_on_c, 6, 48, 111
6, 97728, Note_off_c, 6, 36, 0
6, 97728, Note_off_c, 6, 48, 0
6, 97728, Note_on_c, 6, 30, 102
6, 97728, Note_on_c, 6, 42, 102
6, 97856, Note_off_c, 6, 30, 0
6, 97856, Note_off_c, 6, 42, 0
6, 97856, Note_on_c, 6, 36, 121
6, 97856, Note_on_c, 6, 48, 121
6, 97984, Note_off_c, 6, 36, 0
6, 97984, Note_off_c, 6, 48, 0
6, 97984, Note_on_c, 6, 36, 114
6, 97984, Note_on_c, 6, 48, 114
6, 98112, Note_off_c, 6, 36, 0
6, 98112, Note_off_c, 6, 48, 0
6, 98112, Note_on_c, 6, 36, 109
6, 98112, Note_on_c, 6, 48, 109
6, 98240, Note_off_c, 6, 36, 0
6, 98240, Note_off_c, 6, 48, 0
6, 98240, Note_on_c, 6, 36, 111
6, 98240, Note_on_c, 6, 48, 111
6, 98368, Note_off_c, 6, 36, 0
6, 98368, Note_off_c, 6, 48, 0
6, 98368, Note_on_c, 6, 37, 114
6, 98368, Note_on_c, 6, 49, 114
6, 98496, Note_off_c, 6, 37, 0
6, 98496, Note_off_c, 6, 49, 0
6, 98496, Note_on_c, 6, 37, 118
6, 98496, Note_on_c, 6, 49, 118
6, 98624, Note_off_c, 6, 37, 0
6, 98624, Note_off_c, 6, 49, 0
6, 98624, Note_on_c, 6, 37, 115
6, 98624, Note_on_c, 6, 49, 115
6, 98752, Note_off_c, 6, 37, 0
6, 98752, Note_off_c, 6, 49, 0
6, 98752, Note_on_c, 6, 37, 117
6, 98752, Note_on_c, 6, 49, 117
6, 98880, Note_off_c, 6, 37, 0
6, 98880, Note_off_c, 6, 49, 0
6, 98880, Note_on_c, 6, 37, 117
6, 98880, Note_on_c, 6, 49, 117
6, 99008, Note_off_c, 6, 37, 0
6, 99008, Note_off_c, 6, 49, 0
6, 99008, Note_on_c, 6, 37, 112
6, 99008, Note_on_c, 6, 49, 112
6, 99136, Note_off_c, 6, 37, 0
6, 99136, Note_off_c, 6, 49, 0
6, 99136, Note_on_c, 6, 37, 114
6, 99136, Note_on_c, 6, 49, 114
6, 99264, Note_off_c, 6, 37, 0
6, 99264, Note_off_c, 6, 49, 0
6, 99264, Note_on_c, 6, 37, 108
6, 99264, Note_on_c, 6, 49, 108
6, 99392, Note_off_c, 6, 37, 0
6, 99392, Note_off_c, 6, 49, 0
6, 99392, Note_on_c, 6, 37, 119
6, 99392, Note_on_c, 6, 49, 119
6, 99520, Note_off_c, 6, 37, 0
6, 99520, Note_off_c, 6, 49, 0
6, 99520, Note_on_c, 6, 37, 114
6, 99520, Note_on_c, 6, 49, 114
6, 99648, Note_off_c, 6, 37, 0
6, 99648, Note_off_c, 6, 49, 0
6, 99648, Note_on_c, 6, 37, 114
6, 99648, Note_on_c, 6, 49, 114
6, 99776, Note_off_c, 6, 37, 0
6, 99776, Note_off_c, 6, 49, 0
6, 99776, Note_on_c, 6, 37, 109
6, 99776, Note_on_c, 6, 49, 109
6, 99904, Note_off_c, 6, 37, 0
6, 99904, Note_off_c, 6, 49, 0
6, 99904, Note_on_c, 6, 37, 110
6, 99904, Note_on_c, 6, 49, 110
6, 100032, Note_off_c, 6, 37, 0
6, 100032, Note_off_c, 6, 49, 0
6, 100032, Note_on_c, 6, 37, 114
6, 100032, Note_on_c, 6, 49, 114
6, 100160, Note_off_c, 6, 37, 0
6, 100160, Note_off_c, 6, 49, 0
6, 100160, Note_on_c, 6, 37, 110
6, 100160, Note_on_c, 6, 49, 110
6, 100288, Note_off_c, 6, 37, 0
6, 100288, Note_off_c, 6, 49, 0
6, 100288, Note_on_c, 6, 37, 115
6, 100288, Note_on_c, 6, 49, 115
6, 100416, Note_off_c, 6, 37, 0
6, 100416, Note_off_c, 6, 49, 0
6, 100416, Note_on_c, 6, 37, 114
6, 100416, Note_on_c, 6, 49, 114
6, 100544, Note_off_c, 6, 37, 0
6, 100544, Note_off_c, 6, 49, 0
6, 100544, Note_on_c, 6, 37, 114
6, 100544, Note_on_c, 6, 49, 114
6, 100672, Note_off_c, 6, 37, 0
6, 100672, Note_off_c, 6, 49, 0
6, 100672, Note_on_c, 6, 37, 112
6, 100672, Note_on_c, 6, 49, 112
6, 100800, Note_off_c, 6, 37, 0
6, 100800, Note_off_c, 6, 49, 0
6, 100800, Note_on_c, 6, 37, 114
6, 100800, Note_on_c, 6, 49, 114
6, 100928, Note_off_c, 6, 37, 0
6, 100928, Note_off_c, 6, 49, 0
6, 100928, Note_on_c, 6, 37, 114
6, 100928, Note_on_c, 6, 49, 114
6, 101056, Note_off_c, 6, 37, 0
6, 101056, Note_off_c, 6, 49, 0
6, 101056, Note_on_c, 6, 37, 112
6, 101056, Note_on_c, 6, 49, 112
6, 101184, Note_off_c, 6, 37, 0
6, 101184, Note_off_c, 6, 49, 0
6, 101184, Note_on_c, 6, 37, 114
6, 101184, Note_on_c, 6, 49, 114
6, 101312, Note_off_c, 6, 37, 0
6, 101312, Note_off_c, 6, 49, 0
6, 101312, Note_on_c, 6, 25, 94
6, 101312, Note_on_c, 6, 37, 94
6, 101440, Note_off_c, 6, 25, 0
6, 101440, Note_off_c, 6, 37, 0
6, 101440, Note_on_c, 6, 25, 109
6, 101440, Note_on_c, 6, 37, 109
6, 101568, Note_off_c, 6, 25, 0
6, 101568, Note_off_c, 6, 37, 0
6, 101568, Note_on_c, 6, 25, 104
6, 101568, Note_on_c, 6, 37, 104
6, 101696, Note_off_c, 6, 25, 0
6, 101696, Note_off_c, 6, 37, 0
6, 101696, Note_on_c, 6, 25, 109
6, 101696, Note_on_c, 6, 37, 109
6, 101824, Note_off_c, 6, 25, 0
6, 101824, Note_off_c, 6, 37, 0
6, 101824, Note_on_c, 6, 25, 105
6, 101824, Note_on_c, 6, 37, 105
6, 101952, Note_off_c, 6, 25, 0
6, 101952, Note_off_c, 6, 37, 0
6, 101952, Note_on_c, 6, 25, 99
6, 101952, Note_on_c, 6, 37, 99
6, 102080, Note_off_c, 6, 25, 0
6, 102080, Note_off_c, 6, 37, 0
6, 102080, Note_on_c, 6, 25, 99
6, 102080, Note_on_c, 6, 37, 99
6, 102208, Note_off_c, 6, 25, 0
6, 102208, Note_off_c, 6, 37, 0
6, 102208, Note_on_c, 6, 25, 94
6, 102208, Note_on_c, 6, 37, 94
6, 102336, Note_off_c, 6, 25, 0
6, 102336, Note_off_c, 6, 37, 0
6, 102336, Note_on_c, 6, 25, 90
6, 102336, Note_on_c, 6, 37, 90
6, 102464, Note_off_c, 6, 25, 0
6, 102464, Note_off_c, 6, 37, 0
6, 102464, Note_on_c, 6, 37, 91
6, 102592, Note_off_c, 6, 37, 0
6, 102592, Note_on_c, 6, 42, 93
6, 102720, Note_off_c, 6, 42, 0
6, 102720, Note_on_c, 6, 42, 80
6, 102848, Note_off_c, 6, 42, 0
6, 102848, Note_on_c, 6, 42, 82
6, 102976, Note_off_c, 6, 42, 0
6, 102976, Note_on_c, 6, 42, 81
6, 103104, Note_off_c, 6, 42, 0
6, 103104, Note_on_c, 6, 42, 78
6, 103232, Note_off_c, 6, 42, 0
6, 103232, Note_on_c, 6, 42, 69
6, 103360, Note_off_c, 6, 42, 0
6, 103360, Note_on_c, 6, 41, 70
6, 103808, Note_off_c, 6, 41, 0
6, 106112, Note_on_c, 6, 56, 52
6, 106112, Note_on_c, 6, 60, 52
6, 106112, Note_on_c, 6, 63, 52
6, 106144, Note_off_c, 6, 56, 0
6, 106144, Note_off_c, 6, 60, 0
6, 106144, Note_off_c, 6, 63, 0
6, 106432, Note_on_c, 6, 56, 53
6, 106432, Note_on_c, 6, 60, 53
6, 106432, Note_on_c, 6, 63, 53
6, 106464, Note_off_c, 6, 56, 0
6, 106464, Note_off_c, 6, 60, 0
6, 106464, Note_off_c, 6, 63, 0
6, 106752, Note_on_c, 6, 56, 56
6, 106752, Note_on_c, 6, 60, 56
6, 106752, Note_on_c, 6, 63, 56
6, 106784, Note_off_c, 6, 56, 0
6, 106784, Note_off_c, 6, 60, 0
6, 106784, Note_off_c, 6, 63, 0
6, 107072, Note_on_c, 6, 56, 53
6, 107072, Note_on_c, 6, 60, 53
6, 107072, Note_on_c, 6, 63, 53
6, 107104, Note_off_c, 6, 56, 0
6, 107104, Note_off_c, 6, 60, 0
6, 107104, Note_off_c, 6, 63, 0
6, 107392, Note_on_c, 6, 56, 53
6, 107392, Note_on_c, 6, 60, 53
6, 107392, Note_on_c, 6, 63, 53
6, 107424, Note_off_c, 6, 56, 0
6, 107424, Note_off_c, 6, 60, 0
6, 107424, Note_off_c, 6, 63, 0
6, 107712, Note_on_c, 6, 56, 57
6, 107712, Note_on_c, 6, 60, 57
6, 107712, Note_on_c, 6, 63, 57
6, 107744, Note_off_c, 6, 56, 0
6, 107744, Note_off_c, 6, 60, 0
6, 107744, Note_off_c, 6, 63, 0
6, 108032, Note_on_c, 6, 56, 56
6, 108032, Note_on_c, 6, 60, 56
6, 108032, Note_on_c, 6, 63, 56
6, 108064, Note_off_c, 6, 56, 0
6, 108064, Note_off_c, 6, 60, 0
6, 108064, Note_off_c, 6, 63, 0
6, 108352, Note_on_c, 6, 56, 60
6, 108352, Note_on_c, 6, 60, 60
6, 108352, Note_on_c, 6, 63, 60
6, 108384, Note_off_c, 6, 56, 0
6, 108384, Note_off_c, 6, 60, 0
6, 108384, Note_off_c, 6, 63, 0
6, 108672, Note_on_c, 6, 56, 53
6, 108672, Note_on_c, 6, 60, 53
6, 108672, Note_on_c, 6, 63, 53
6, 108704, Note_off_c, 6, 56, 0
6, 108704, Note_off_c, 6, 60, 0
6, 108704, Note_off_c, 6, 63, 0
6, 108992, Note_on_c, 6, 56, 50
6, 108992, Note_on_c, 6, 60, 50
6, 108992, Note_on_c, 6, 63, 50
6, 109024, Note_off_c, 6, 56, 0
6, 109024, Note_off_c, 6, 60, 0
6, 109024, Note_off_c, 6, 63, 0
6, 109312, Note_on_c, 6, 56, 58
6, 109312, Note_on_c, 6, 60, 58
6, 109312, Note_on_c, 6, 63, 58
6, 109344, Note_off_c, 6, 56, 0
6, 109344, Note_off_c, 6, 60, 0
6, 109344, Note_off_c, 6, 63, 0
6, 109632, Note_on_c, 6, 56, 56
6, 109632, Note_on_c, 6, 60, 56
6, 109632, Note_on_c, 6, 63, 56
6, 109664, Note_off_c, 6, 56, 0
6, 109664, Note_off_c, 6, 60, 0
6, 109664, Note_off_c, 6, 63, 0
6, 109952, Note_on_c, 6, 56, 59
6, 109952, Note_on_c, 6, 60, 59
6, 109952, Note_on_c, 6, 63, 59
6, 109984, Note_off_c, 6, 56, 0
6, 109984, Note_off_c, 6, 60, 0
6, 109984, Note_off_c, 6, 63, 0
6, 110272, Note_on_c, 6, 56, 57
6, 110272, Note_on_c, 6, 60, 57
6, 110272, Note_on_c, 6, 63, 57
6, 110304, Note_off_c, 6, 56, 0
6, 110304, Note_off_c, 6, 60, 0
6, 110304, Note_off_c, 6, 63, 0
6, 110592, Note_on_c, 6, 56, 56
6, 110592, Note_on_c, 6, 60, 56
6, 110592, Note_on_c, 6, 63, 56
6, 110624, Note_off_c, 6, 56, 0
6, 110624, Note_off_c, 6, 60, 0
6, 110624, Note_off_c, 6, 63, 0
6, 110912, Note_on_c, 6, 56, 54
6, 110912, Note_on_c, 6, 60, 54
6, 110912, Note_on_c, 6, 63, 54
6, 110944, Note_off_c, 6, 56, 0
6, 110944, Note_off_c, 6, 60, 0
6, 110944, Note_off_c, 6, 63, 0
6, 111232, Note_on_c, 6, 56, 58
6, 111232, Note_on_c, 6, 60, 58
6, 111232, Note_on_c, 6, 65, 58
6, 111264, Note_off_c, 6, 56, 0
6, 111264, Note_off_c, 6, 60, 0
6, 111264, Note_off_c, 6, 65, 0
6, 111552, Note_on_c, 6, 56, 60
6, 111552, Note_on_c, 6, 60, 60
6, 111552, Note_on_c, 6, 65, 60
6, 111584, Note_off_c, 6, 56, 0
6, 111584, Note_off_c, 6, 60, 0
6, 111584, Note_off_c, 6, 65, 0
6, 111872, Note_on_c, 6, 57, 55
6, 111872, Note_on_c, 6, 60, 55
6, 111872, Note_on_c, 6, 65, 55
6, 111904, Note_off_c, 6, 57, 0
6, 111904, Note_off_c, 6, 60, 0
6, 111904, Note_off_c, 6, 65, 0
6, 112192, Note_on_c, 6, 57, 54
6, 112192, Note_on_c, 6, 62, 54
6, 112192, Note_on_c, 6, 65, 54
6, 112224, Note_off_c, 6, 57, 0
6, 112224, Note_off_c, 6, 62, 0
6, 112224, Note_off_c, 6, 65, 0
6, 112512, Note_on_c, 6, 57, 52
6, 112512, Note_on_c, 6, 62, 52
6, 112512, Note_on_c, 6, 65, 52
6, 112544, Note_off_c, 6, 57, 0
6, 112544, Note_off_c, 6, 62, 0
6, 112544, Note_off_c, 6, 65, 0
6, 112832, Note_on_c, 6, 57, 53
6, 112832, Note_on_c, 6, 62, 53
6, 112832, Note_on_c, 6, 65, 53
6, 112864, Note_off_c, 6, 57, 0
6, 112864, Note_off_c, 6, 62, 0
6, 112864, Note_off_c, 6, 65, 0
6, 113152, Note_on_c, 6, 57, 52
6, 113152, Note_on_c, 6, 62, 52
6, 113152, Note_on_c, 6, 65, 52
6, 113184, Note_off_c, 6, 57, 0
6, 113184, Note_off_c, 6, 62, 0
6, 113184, Note_off_c, 6, 65, 0
6, 113472, Note_on_c, 6, 57, 54
6, 113472, Note_on_c, 6, 61, 54
6, 113472, Note_on_c, 6, 66, 54
6, 113504, Note_off_c, 6, 57, 0
6, 113504, Note_off_c, 6, 61, 0
6, 113504, Note_off_c, 6, 66, 0
6, 113792, Note_on_c, 6, 57, 54
6, 113792, Note_on_c, 6, 61, 54
6, 113792, Note_on_c, 6, 66, 54
6, 113824, Note_off_c, 6, 57, 0
6, 113824, Note_off_c, 6, 61, 0
6, 113824, Note_off_c, 6, 66, 0
6, 114112, Note_on_c, 6, 58, 54
6, 114112, Note_on_c, 6, 61, 54
6, 114112, Note_on_c, 6, 66, 54
6, 114144, Note_off_c, 6, 58, 0
6, 114144, Note_off_c, 6, 61, 0
6, 114144, Note_off_c, 6, 66, 0
6, 114432, Note_on_c, 6, 58, 59
6, 114432, Note_on_c, 6, 61, 59
6, 114432, Note_on_c, 6, 66, 59
6, 114464, Note_off_c, 6, 58, 0
6, 114464, Note_off_c, 6, 61, 0
6, 114464, Note_off_c, 6, 66, 0
6, 114752, Note_on_c, 6, 58, 57
6, 114752, Note_on_c, 6, 61, 57
6, 114752, Note_on_c, 6, 66, 57
6, 114784, Note_off_c, 6, 58, 0
6, 114784, Note_off_c, 6, 61, 0
6, 114784, Note_off_c, 6, 66, 0
6, 115072, Note_on_c, 6, 57, 51
6, 115072, Note_on_c, 6, 62, 51
6, 115072, Note_on_c, 6, 66, 51
6, 115104, Note_off_c, 6, 57, 0
6, 115104, Note_off_c, 6, 62, 0
6, 115104, Note_off_c, 6, 66, 0
6, 115392, Note_on_c, 6, 57, 53
6, 115392, Note_on_c, 6, 62, 53
6, 115392, Note_on_c, 6, 66, 53
6, 115424, Note_off_c, 6, 57, 0
6, 115424, Note_off_c, 6, 62, 0
6, 115424, Note_off_c, 6, 66, 0
6, 115712, Note_on_c, 6, 57, 54
6, 115712, Note_on_c, 6, 61, 54
6, 115712, Note_on_c, 6, 66, 54
6, 115744, Note_off_c, 6, 57, 0
6, 115744, Note_off_c, 6, 61, 0
6, 115744, Note_off_c, 6, 66, 0
6, 116032, Note_on_c, 6, 57, 58
6, 116032, Note_on_c, 6, 61, 58
6, 116032, Note_on_c, 6, 66, 58
6, 116064, Note_off_c, 6, 57, 0
6, 116064, Note_off_c, 6, 61, 0
6, 116064, Note_off_c, 6, 66, 0
6, 116352, Note_on_c, 6, 58, 53
6, 116352, Note_on_c, 6, 61, 53
6, 116352, Note_on_c, 6, 65, 53
6, 116384, Note_off_c, 6, 58, 0
6, 116384, Note_off_c, 6, 61, 0
6, 116384, Note_off_c, 6, 65, 0
6, 116672, Note_on_c, 6, 58, 55
6, 116672, Note_on_c, 6, 61, 55
6, 116672, Note_on_c, 6, 65, 55
6, 116704, Note_off_c, 6, 58, 0
6, 116704, Note_off_c, 6, 61, 0
6, 116704, Note_off_c, 6, 65, 0
6, 116992, Note_on_c, 6, 58, 53
6, 116992, Note_on_c, 6, 61, 53
6, 116992, Note_on_c, 6, 65, 53
6, 117024, Note_off_c, 6, 58, 0
6, 117024, Note_off_c, 6, 61, 0
6, 117024, Note_off_c, 6, 65, 0
6, 117312, Note_on_c, 6, 58, 56
6, 117312, Note_on_c, 6, 61, 56
6, 117312, Note_on_c, 6, 65, 56
6, 117344, Note_off_c, 6, 58, 0
6, 117344, Note_off_c, 6, 61, 0
6, 117344, Note_off_c, 6, 65, 0
6, 117632, Note_on_c, 6, 58, 54
6, 117632, Note_on_c, 6, 61, 54
6, 117632, Note_on_c, 6, 65, 54
6, 117664, Note_off_c, 6, 58, 0
6, 117664, Note_off_c, 6, 61, 0
6, 117664, Note_off_c, 6, 65, 0
6, 117952, Note_on_c, 6, 58, 53
6, 117952, Note_on_c, 6, 61, 53
6, 117952, Note_on_c, 6, 65, 53
6, 117984, Note_off_c, 6, 58, 0
6, 117984, Note_off_c, 6, 61, 0
6, 117984, Note_off_c, 6, 65, 0
6, 118272, Note_on_c, 6, 58, 56
6, 118272, Note_on_c, 6, 61, 56
6, 118272, Note_on_c, 6, 65, 56
6, 118304, Note_off_c, 6, 58, 0
6, 118304, Note_off_c, 6, 61, 0
6, 118304, Note_off_c, 6, 65, 0
6, 118592, Note_on_c, 6, 58, 50
6, 118592, Note_on_c, 6, 61, 50
6, 118592, Note_on_c, 6, 65, 50
6, 118624, Note_off_c, 6, 58, 0
6, 118624, Note_off_c, 6, 61, 0
6, 118624, Note_off_c, 6, 65, 0
6, 118912, Note_on_c, 6, 58, 57
6, 118912, Note_on_c, 6, 61, 57
6, 118912, Note_on_c, 6, 65, 57
6, 118944, Note_off_c, 6, 58, 0
6, 118944, Note_off_c, 6, 61, 0
6, 118944, Note_off_c, 6, 65, 0
6, 119232, Note_on_c, 6, 58, 58
6, 119232, Note_on_c, 6, 61, 58
6, 119232, Note_on_c, 6, 65, 58
6, 119264, Note_off_c, 6, 58, 0
6, 119264, Note_off_c, 6, 61, 0
6, 119264, Note_off_c, 6, 65, 0
6, 119552, Note_on_c, 6, 58, 54
6, 119552, Note_on_c, 6, 61, 54
6, 119552, Note_on_c, 6, 65, 54
6, 119584, Note_off_c, 6, 58, 0
6, 119584, Note_off_c, 6, 61, 0
6, 119584, Note_off_c, 6, 65, 0
6, 119872, Note_on_c, 6, 58, 52
6, 119872, Note_on_c, 6, 61, 52
6, 119872, Note_on_c, 6, 65, 52
6, 119904, Note_off_c, 6, 58, 0
6, 119904, Note_off_c, 6, 61, 0
6, 119904, Note_off_c, 6, 65, 0
6, 120192, Note_on_c, 6, 58, 55
6, 120192, Note_on_c, 6, 61, 55
6, 120192, Note_on_c, 6, 65, 55
6, 120224, Note_off_c, 6, 58, 0
6, 120224, Note_off_c, 6, 61, 0
6, 120224, Note_off_c, 6, 65, 0
6, 120512, Note_on_c, 6, 58, 58
6, 120512, Note_on_c, 6, 61, 58
6, 120512, Note_on_c, 6, 65, 58
6, 120544, Note_off_c, 6, 58, 0
6, 120544, Note_off_c, 6, 61, 0
6, 120544, Note_off_c, 6, 65, 0
6, 120832, Note_on_c, 6, 58, 52
6, 120832, Note_on_c, 6, 61, 52
6, 120832, Note_on_c, 6, 65, 52
6, 120864, Note_off_c, 6, 58, 0
6, 120864, Note_off_c, 6, 61, 0
6, 120864, Note_off_c, 6, 65, 0
6, 121152, Note_on_c, 6, 58, 53
6, 121152, Note_on_c, 6, 61, 53
6, 121152, Note_on_c, 6, 65, 53
6, 121184, Note_off_c, 6, 58, 0
6, 121184, Note_off_c, 6, 61, 0
6, 121184, Note_off_c, 6, 65, 0
6, 121472, Note_on_c, 6, 59, 56
6, 121472, Note_on_c, 6, 60, 56
6, 121472, Note_on_c, 6, 66, 56
6, 121504, Note_off_c, 6, 59, 0
6, 121504, Note_off_c, 6, 60, 0
6, 121504, Note_off_c, 6, 66, 0
6, 121792, Note_on_c, 6, 59, 58
6, 121792, Note_on_c, 6, 60, 58
6, 121792, Note_on_c, 6, 66, 58
6, 121824, Note_off_c, 6, 59, 0
6, 121824, Note_off_c, 6, 60, 0
6, 121824, Note_off_c, 6, 66, 0
6, 122112, Note_on_c, 6, 59, 57
6, 122112, Note_on_c, 6, 60, 57
6, 122112, Note_on_c, 6, 66, 57
6, 122144, Note_off_c, 6, 59, 0
6, 122144, Note_off_c, 6, 60, 0
6, 122144, Note_off_c, 6, 66, 0
6, 122432, Note_on_c, 6, 59, 53
6, 122432, Note_on_c, 6, 60, 53
6, 122432, Note_on_c, 6, 66, 53
6, 122464, Note_off_c, 6, 59, 0
6, 122464, Note_off_c, 6, 60, 0
6, 122464, Note_off_c, 6, 66, 0
6, 122752, Note_on_c, 6, 59, 54
6, 122752, Note_on_c, 6, 60, 54
6, 122752, Note_on_c, 6, 66, 54
6, 122784, Note_off_c, 6, 59, 0
6, 122784, Note_off_c, 6, 60, 0
6, 122784, Note_off_c, 6, 66, 0
6, 123072, Note_on_c, 6, 59, 56
6, 123072, Note_on_c, 6, 60, 56
6, 123072, Note_on_c, 6, 66, 56
6, 123104, Note_off_c, 6, 59, 0
6, 123104, Note_off_c, 6, 60, 0
6, 123104, Note_off_c, 6, 66, 0
6, 137216, Note_on_c, 6, 60, 75
6, 137216, Note_on_c, 6, 70, 75
6, 137280, Note_off_c, 6, 60, 0
6, 137280, Note_off_c, 6, 70, 0
6, 137344, Note_on_c, 6, 60, 80
6, 137344, Note_on_c, 6, 70, 80
6, 137408, Note_off_c, 6, 60, 0
6, 137408, Note_off_c, 6, 70, 0
6, 137600, Note_on_c, 6, 60, 80
6, 137600, Note_on_c, 6, 70, 80
6, 137664, Note_off_c, 6, 60, 0
6, 137664, Note_off_c, 6, 70, 0
6, 137728, Note_on_c, 6, 60, 85
6, 137728, Note_on_c, 6, 70, 85
6, 137792, Note_off_c, 6, 60, 0
6, 137792, Note_off_c, 6, 70, 0
6, 137984, Note_on_c, 6, 60, 74
6, 137984, Note_on_c, 6, 70, 74
6, 138048, Note_off_c, 6, 60, 0
6, 138048, Note_off_c, 6, 70, 0
6, 138112, Note_on_c, 6, 60, 81
6, 138112, Note_on_c, 6, 70, 81
6, 138176, Note_off_c, 6, 60, 0
6, 138176, Note_off_c, 6, 70, 0
6, 138368, Note_on_c, 6, 60, 76
6, 138368, Note_on_c, 6, 70, 76
6, 138432, Note_off_c, 6, 60, 0
6, 138432, Note_off_c, 6, 70, 0
6, 138496, Note_on_c, 6, 60, 85
6, 138496, Note_on_c, 6, 70, 85
6, 138560, Note_off_c, 6, 60, 0
6, 138560, Note_off_c, 6, 70, 0
6, 138752, Note_on_c, 6, 60, 75
6, 138752, Note_on_c, 6, 70, 75
6, 138816, Note_off_c, 6, 60, 0
6, 138816, Note_off_c, 6, 70, 0
6, 138880, Note_on_c, 6, 60, 79
6, 138880, Note_on_c, 6, 70, 79
6, 138944, Note_off_c, 6, 60, 0
6, 138944, Note_off_c, 6, 70, 0
6, 139136, Note_on_c, 6, 60, 78
6, 139136, Note_on_c, 6, 70, 78
6, 139200, Note_off_c, 6, 60, 0
6, 139200, Note_off_c, 6, 70, 0
6, 139264, Note_on_c, 6, 60, 81
6, 139264, Note_on_c, 6, 70, 81
6, 139328, Note_off_c, 6, 60, 0
6, 139328, Note_off_c, 6, 70, 0
6, 139520, Note_on_c, 6, 60, 77
6, 139520, Note_on_c, 6, 70, 77
6, 139584, Note_off_c, 6, 60, 0
6, 139584, Note_off_c, 6, 70, 0
6, 139648, Note_on_c, 6, 60, 77
6, 139648, Note_on_c, 6, 70, 77
6, 139712, Note_off_c, 6, 60, 0
6, 139712, Note_off_c, 6, 70, 0
6, 139904, Note_on_c, 6, 60, 73
6, 139904, Note_on_c, 6, 70, 73
6, 139968, Note_off_c, 6, 60, 0
6, 139968, Note_off_c, 6, 70, 0
6, 140032, Note_on_c, 6, 60, 83
6, 140032, Note_on_c, 6, 70, 83
6, 140096, Note_off_c, 6, 60, 0
6, 140096, Note_off_c, 6, 70, 0
6, 140288, Note_on_c, 6, 60, 72
6, 140288, Note_on_c, 6, 70, 72
6, 140352, Note_off_c, 6, 60, 0
6, 140352, Note_off_c, 6, 70, 0
6, 140416, Note_on_c, 6, 60, 84
6, 140416, Note_on_c, 6, 70, 84
6, 140480, Note_off_c, 6, 60, 0
6, 140480, Note_off_c, 6, 70, 0
6, 140672, Note_on_c, 6, 60, 72
6, 140672, Note_on_c, 6, 70, 72
6, 140736, Note_off_c, 6, 60, 0
6, 140736, Note_off_c, 6, 70, 0
6, 140800, Note_on_c, 6, 60, 84
6, 140800, Note_on_c, 6, 70, 84
6, 140864, Note_off_c, 6, 60, 0
6, 140864, Note_off_c, 6, 70, 0
6, 141056, Note_on_c, 6, 60, 78
6, 141056, Note_on_c, 6, 70, 78
6, 141120, Note_off_c, 6, 60, 0
6, 141120, Note_off_c, 6, 70, 0
6, 141184, Note_on_c, 6, 60, 86
6, 141184, Note_on_c, 6, 70, 86
6, 141248, Note_off_c, 6, 60, 0
6, 141248, Note_off_c, 6, 70, 0
6, 141312, Note_on_c, 6, 57, 74
6, 141312, Note_on_c, 6, 60, 74
6, 141376, Note_off_c, 6, 57, 0
6, 141376, Note_off_c, 6, 60, 0
6, 141440, Note_on_c, 6, 57, 98
6, 141440, Note_on_c, 6, 60, 98
6, 141504, Note_off_c, 6, 57, 0
6, 141504, Note_off_c, 6, 60, 0
6, 141568, Note_on_c, 6, 57, 97
6, 141568, Note_on_c, 6, 60, 97
6, 141632, Note_off_c, 6, 57, 0
6, 141632, Note_off_c, 6, 60, 0
6, 141696, Note_on_c, 6, 57, 99
6, 141696, Note_on_c, 6, 60, 99
6, 141760, Note_off_c, 6, 57, 0
6, 141760, Note_off_c, 6, 60, 0
6, 141824, Note_on_c, 6, 57, 97
6, 141824, Note_on_c, 6, 60, 97
6, 141888, Note_off_c, 6, 57, 0
6, 141888, Note_off_c, 6, 60, 0
6, 142080, Note_on_c, 6, 57, 91
6, 142080, Note_on_c, 6, 60, 91
6, 142208, Note_off_c, 6, 57, 0
6, 142208, Note_off_c, 6, 60, 0
6, 142336, Note_on_c, 6, 57, 98
6, 142336, Note_on_c, 6, 60, 98
6, 142400, Note_off_c, 6, 57, 0
6, 142400, Note_off_c, 6, 60, 0
6, 142464, Note_on_c, 6, 57, 98
6, 142464, Note_on_c, 6, 60, 98
6, 142528, Note_off_c, 6, 57, 0
6, 142528, Note_off_c, 6, 60, 0
6, 142592, Note_on_c, 6, 57, 102
6, 142592, Note_on_c, 6, 60, 102
6, 142656, Note_off_c, 6, 57, 0
6, 142656, Note_off_c, 6, 60, 0
6, 142720, Note_on_c, 6, 57, 95
6, 142720, Note_on_c, 6, 60, 95
6, 142784, Note_off_c, 6, 57, 0
6, 142784, Note_off_c, 6, 60, 0
6, 142848, Note_on_c, 6, 57, 97
6, 142848, Note_on_c, 6, 60, 97
6, 142912, Note_off_c, 6, 57, 0
6, 142912, Note_off_c, 6, 60, 0
6, 143104, Note_on_c, 6, 57, 88
6, 143104, Note_on_c, 6, 60, 88
6, 143168, Note_off_c, 6, 57, 0
6, 143168, Note_off_c, 6, 60, 0
6, 143232, Note_on_c, 6, 57, 101
6, 143232, Note_on_c, 6, 60, 101
6, 143296, Note_off_c, 6, 57, 0
6, 143296, Note_off_c, 6, 60, 0
6, 143360, Note_on_c, 6, 57, 97
6, 143360, Note_on_c, 6, 60, 97
6, 143424, Note_off_c, 6, 57, 0
6, 143424, Note_off_c, 6, 60, 0
6, 143488, Note_on_c, 6, 57, 94
6, 143488, Note_on_c, 6, 60, 94
6, 143552, Note_off_c, 6, 57, 0
6, 143552, Note_off_c, 6, 60, 0
6, 143616, Note_on_c, 6, 57, 95
6, 143616, Note_on_c, 6, 60, 95
6, 143680, Note_off_c, 6, 57, 0
6, 143680, Note_off_c, 6, 60, 0
6, 143744, Note_on_c, 6, 57, 101
6, 143744, Note_on_c, 6, 60, 101
6, 143808, Note_off_c, 6, 57, 0
6, 143808, Note_off_c, 6, 60, 0
6, 143872, Note_on_c, 6, 57, 94
6, 143872, Note_on_c, 6, 60, 94
6, 143936, Note_off_c, 6, 57, 0
6, 143936, Note_off_c, 6, 60, 0
6, 144000, Note_on_c, 6, 57, 93
6, 144000, Note_on_c, 6, 60, 93
6, 144064, Note_off_c, 6, 57, 0
6, 144064, Note_off_c, 6, 60, 0
6, 144256, Note_on_c, 6, 57, 88
6, 144256, Note_on_c, 6, 60, 88
6, 144320, Note_off_c, 6, 57, 0
6, 144320, Note_off_c, 6, 60, 0
6, 144384, Note_on_c, 6, 57, 93
6, 144384, Note_on_c, 6, 60, 93
6, 144448, Note_off_c, 6, 57, 0
6, 144448, Note_off_c, 6, 60, 0
6, 144512, Note_on_c, 6, 57, 96
6, 144512, Note_on_c, 6, 60, 96
6, 144512, Note_on_c, 6, 28, 127
6, 144576, Note_off_c, 6, 57, 0
6, 144576, Note_off_c, 6, 60, 0
6, 144640, Note_off_c, 6, 28, 0
6, 144768, Note_on_c, 6, 57, 89
6, 144768, Note_on_c, 6, 60, 89
6, 144768, Note_on_c, 6, 42, 127
6, 144832, Note_off_c, 6, 57, 0
6, 144832, Note_off_c, 6, 60, 0
6, 144896, Note_off_c, 6, 42, 0
6, 144896, Note_on_c, 6, 57, 95
6, 144896, Note_on_c, 6, 60, 95
6, 144896, Note_on_c, 6, 30, 127
6, 144960, Note_off_c, 6, 57, 0
6, 144960, Note_off_c, 6, 60, 0
6, 145024, Note_off_c, 6, 30, 0
6, 145024, Note_on_c, 6, 57, 98
6, 145024, Note_on_c, 6, 60, 98
6, 145088, Note_off_c, 6, 57, 0
6, 145088, Note_off_c, 6, 60, 0
6, 145152, Note_on_c, 6, 57, 94
6, 145152, Note_on_c, 6, 60, 94
6, 145216, Note_off_c, 6, 57, 0
6, 145216, Note_off_c, 6, 60, 0
6, 145280, Note_on_c, 6, 57, 96
6, 145280, Note_on_c, 6, 60, 96
6, 145280, Note_on_c, 6, 42, 127
6, 145344, Note_off_c, 6, 57, 0
6, 145344, Note_off_c, 6, 60, 0
6, 145408, Note_off_c, 6, 42, 0
6, 145408, Note_on_c, 6, 57, 97
6, 145408, Note_on_c, 6, 60, 97
6, 145408, Note_on_c, 6, 28, 127
6, 145472, Note_off_c, 6, 57, 0
6, 145472, Note_off_c, 6, 60, 0
6, 145536, Note_off_c, 6, 28, 0
6, 145664, Note_on_c, 6, 57, 85
6, 145664, Note_on_c, 6, 60, 85
6, 145664, Note_on_c, 6, 42, 127
6, 145728, Note_off_c, 6, 57, 0
6, 145728, Note_off_c, 6, 60, 0
6, 145792, Note_off_c, 6, 42, 0
6, 145792, Note_on_c, 6, 57, 101
6, 145792, Note_on_c, 6, 60, 101
6, 145792, Note_on_c, 6, 30, 127
6, 145856, Note_off_c, 6, 57, 0
6, 145856, Note_off_c, 6, 60, 0
6, 145920, Note_off_c, 6, 30, 0
6, 145920, Note_on_c, 6, 57, 107
6, 145920, Note_on_c, 6, 60, 107
6, 145984, Note_off_c, 6, 57, 0
6, 145984, Note_off_c, 6, 60, 0
6, 146048, Note_on_c, 6, 57, 106
6, 146048, Note_on_c, 6, 60, 106
6, 146048, Note_on_c, 6, 42, 127
6, 146112, Note_off_c, 6, 57, 0
6, 146112, Note_off_c, 6, 60, 0
6, 146176, Note_off_c, 6, 42, 0
6, 146176, Note_on_c, 6, 57, 112
6, 146176, Note_on_c, 6, 60, 112
6, 146240, Note_off_c, 6, 57, 0
6, 146240, Note_off_c, 6, 60, 0
6, 146304, Note_on_c, 6, 57, 93
6, 146304, Note_on_c, 6, 60, 93
6, 146368, Note_off_c, 6, 57, 0
6, 146368, Note_off_c, 6, 60, 0
6, 146688, Note_on_c, 6, 28, 127
6, 146816, Note_off_c, 6, 28, 0
6, 146944, Note_on_c, 6, 42, 119
6, 146944, Note_on_c, 6, 42, 127
6, 147072, Note_off_c, 6, 42, 0
6, 147072, Note_off_c, 6, 42, 0
6, 147072, Note_on_c, 6, 30, 127
6, 147200, Note_off_c, 6, 30, 0
6, 147328, Note_on_c, 6, 42, 123
6, 147328, Note_on_c, 6, 42, 127
6, 147456, Note_off_c, 6, 42, 0
6, 147456, Note_off_c, 6, 42, 0
6, 147456, Note_on_c, 6, 28, 127
6, 147584, Note_off_c, 6, 28, 0
6, 147712, Note_on_c, 6, 42, 115
6, 147712, Note_on_c, 6, 42, 127
6, 147840, Note_off_c, 6, 42, 0
6, 147840, Note_off_c, 6, 42, 0
6, 147840, Note_on_c, 6, 30, 127
6, 147968, Note_off_c, 6, 30, 0
6, 148096, Note_on_c, 6, 42, 122
6, 148096, Note_on_c, 6, 42, 127
6, 148224, Note_off_c, 6, 42, 0
6, 148224, Note_off_c, 6, 42, 0
6, 148736, Note_on_c, 6, 28, 127
6, 148864, Note_off_c, 6, 28, 0
6, 148992, Note_on_c, 6, 42, 118
6, 148992, Note_on_c, 6, 42, 127
6, 149120, Note_off_c, 6, 42, 0
6, 149120, Note_off_c, 6, 42, 0
6, 149120, Note_on_c, 6, 30, 126
6, 149248, Note_off_c, 6, 30, 0
6, 149376, Note_on_c, 6, 42, 123
6, 149376, Note_on_c, 6, 42, 127
6, 149504, Note_off_c, 6, 42, 0
6, 149504, Note_off_c, 6, 42, 0
6, 149504, Note_on_c, 6, 28, 127
6, 149632, Note_off_c, 6, 28, 0
6, 149760, Note_on_c, 6, 42, 117
6, 149760, Note_on_c, 6, 42, 127
6, 149888, Note_off_c, 6, 42, 0
6, 149888, Note_off_c, 6, 42, 0
6, 149888, Note_on_c, 6, 30, 127
6, 150016, Note_off_c, 6, 30, 0
6, 150144, Note_on_c, 6, 43, 116
6, 150144, Note_on_c, 6, 43, 127
6, 150272, Note_off_c, 6, 43, 0
6, 150272, Note_off_c, 6, 43, 0
6, 150272, Note_on_c, 6, 31, 127
6, 150400, Note_off_c, 6, 31, 0
6, 150528, Note_on_c, 6, 45, 126
6, 150528, Note_on_c, 6, 45, 127
6, 150656, Note_off_c, 6, 45, 0
6, 150656, Note_off_c, 6, 45, 0
6, 151296, Note_on_c, 6, 28, 127
6, 151424, Note_off_c, 6, 28, 0
6, 151552, Note_on_c, 6, 42, 91
6, 151552, Note_on_c, 6, 42, 127
6, 151680, Note_off_c, 6, 42, 0
6, 151680, Note_off_c, 6, 42, 0
6, 151680, Note_on_c, 6, 30, 127
6, 151808, Note_off_c, 6, 30, 0
6, 151936, Note_on_c, 6, 43, 87
6, 151936, Note_on_c, 6, 43, 127
6, 152064, Note_off_c, 6, 43, 0
6, 152064, Note_off_c, 6, 43, 0
6, 152064, Note_on_c, 6, 31, 127
6, 152192, Note_off_c, 6, 31, 0
6, 152320, Note_on_c, 6, 45, 87
6, 152320, Note_on_c, 6, 45, 127
6, 152448, Note_off_c, 6, 45, 0
6, 152448, Note_off_c, 6, 45, 0
6, 153344, Note_on_c, 6, 28, 127
6, 153472, Note_off_c, 6, 28, 0
6, 153600, Note_on_c, 6, 42, 87
6, 153600, Note_on_c, 6, 42, 127
6, 153728, Note_off_c, 6, 42, 0
6, 153728, Note_off_c, 6, 42, 0
6, 153728, Note_on_c, 6, 30, 127
6, 153856, Note_off_c, 6, 30, 0
6, 153984, Note_on_c, 6, 43, 91
6, 153984, Note_on_c, 6, 43, 127
6, 154112, Note_off_c, 6, 43, 0
6, 154112, Note_off_c, 6, 43, 0
6, 154112, Note_on_c, 6, 31, 127
6, 154240, Note_off_c, 6, 31, 0
6, 154368, Note_on_c, 6, 45, 84
6, 154368, Note_on_c, 6, 45, 127
6, 154496, Note_off_c, 6, 45, 0
6, 154496, Note_off_c, 6, 45, 0
6, 154496, Note_on_c, 6, 28, 127
6, 154624, Note_off_c, 6, 28, 0
6, 154752, Note_on_c, 6, 42, 88
6, 154752, Note_on_c, 6, 42, 127
6, 154880, Note_off_c, 6, 42, 0
6, 154880, Note_off_c, 6, 42, 0
6, 154880, Note_on_c, 6, 30, 127
6, 155008, Note_off_c, 6, 30, 0
6, 155136, Note_on_c, 6, 43, 86
6, 155136, Note_on_c, 6, 43, 127
6, 155264, Note_off_c, 6, 43, 0
6, 155264, Note_off_c, 6, 43, 0
6, 155392, Note_on_c, 6, 31, 127
6, 155520, Note_off_c, 6, 31, 0
6, 155648, Note_on_c, 6, 45, 85
6, 155648, Note_on_c, 6, 45, 127
6, 155776, Note_off_c, 6, 45, 0
6, 155904, Note_off_c, 6, 45, 0
6, 156032, Note_on_c, 6, 30, 127
6, 156160, Note_off_c, 6, 30, 0
6, 156416, Note_on_c, 6, 42, 88
6, 156416, Note_on_c, 6, 42, 127
6, 156544, Note_off_c, 6, 42, 0
6, 156544, Note_off_c, 6, 42, 0
6, 156544, Note_on_c, 6, 30, 127
6, 156672, Note_off_c, 6, 30, 0
6, 156800, Note_on_c, 6, 43, 89
6, 156800, Note_on_c, 6, 43, 127
6, 156928, Note_off_c, 6, 43, 0
6, 156928, Note_off_c, 6, 43, 0
6, 156928, Note_on_c, 6, 31, 127
6, 157056, Note_off_c, 6, 31, 0
6, 157184, Note_on_c, 6, 45, 87
6, 157184, Note_on_c, 6, 45, 127
6, 157312, Note_off_c, 6, 45, 0
6, 157312, Note_off_c, 6, 45, 0
6, 157312, Note_on_c, 6, 33, 127
6, 157440, Note_off_c, 6, 33, 0
6, 157568, Note_on_c, 6, 47, 85
6, 157568, Note_on_c, 6, 47, 127
6, 157696, Note_off_c, 6, 47, 0
6, 157696, Note_off_c, 6, 47, 0
6, 157824, Note_on_c, 6, 28, 127
6, 157952, Note_off_c, 6, 28, 0
6, 158080, Note_on_c, 6, 42, 86
6, 158080, Note_on_c, 6, 42, 127
6, 158208, Note_off_c, 6, 42, 0
6, 158208, Note_off_c, 6, 42, 0
6, 158720, Note_on_c, 6, 28, 127
6, 158848, Note_off_c, 6, 28, 0
6, 158976, Note_on_c, 6, 42, 86
6, 158976, Note_on_c, 6, 42, 127
6, 159104, Note_off_c, 6, 42, 0
6, 159104, Note_off_c, 6, 42, 0
6, 159104, Note_on_c, 6, 30, 127
6, 159232, Note_off_c, 6, 30, 0
6, 159360, Note_on_c, 6, 43, 88
6, 159360, Note_on_c, 6, 43, 127
6, 159488, Note_off_c, 6, 43, 0
6, 159488, Note_off_c, 6, 43, 0
6, 160256, Note_on_c, 6, 31, 127
6, 160384, Note_off_c, 6, 31, 0
6, 160512, Note_on_c, 6, 45, 127
6, 160640, Note_off_c, 6, 45, 0
6, 160640, Note_on_c, 6, 33, 127
6, 160768, Note_off_c, 6, 33, 0
6, 160896, Note_on_c, 6, 47, 127
6, 161024, Note_off_c, 6, 47, 0
6, 161280, Note_on_c, 6, 28, 127
6, 161408, Note_off_c, 6, 28, 0
6, 161536, Note_on_c, 6, 42, 127
6, 161664, Note_off_c, 6, 42, 0
6, 162432, Note_on_c, 6, 42, 127
6, 162560, Note_off_c, 6, 42, 0
6, 163328, Note_on_c, 6, 28, 119
6, 163328, Note_on_c, 6, 52, 119
6, 163456, Note_off_c, 6, 28, 0
6, 163456, Note_off_c, 6, 52, 0
6, 163840, Note_on_c, 6, 30, 117
6, 163840, Note_on_c, 6, 54, 117
6, 163968, Note_off_c, 6, 30, 0
6, 163968, Note_off_c, 6, 54, 0
6, 164608, Note_on_c, 6, 28, 122
6, 164608, Note_on_c, 6, 52, 122
6, 164736, Note_off_c, 6, 28, 0
6, 164736, Note_off_c, 6, 52, 0
6, 165120, Note_on_c, 6, 30, 115
6, 165120, Note_on_c, 6, 54, 115
6, 165248, Note_off_c, 6, 30, 0
6, 165248, Note_off_c, 6, 54, 0
6, 165632, Note_on_c, 6, 28, 113
6, 165632, Note_on_c, 6, 52, 113
6, 165760, Note_off_c, 6, 28, 0
6, 165760, Note_off_c, 6, 52, 0
6, 166144, Note_on_c, 6, 28, 123
6, 166144, Note_on_c, 6, 52, 123
6, 166272, Note_off_c, 6, 28, 0
6, 166272, Note_off_c, 6, 52, 0
6, 166400, Note_on_c, 6, 30, 117
6, 166400, Note_on_c, 6, 54, 117
6, 166528, Note_off_c, 6, 30, 0
6, 166528, Note_off_c, 6, 54, 0
6, 166656, Note_on_c, 6, 31, 118
6, 166656, Note_on_c, 6, 55, 118
6, 166784, Note_off_c, 6, 31, 0
6, 166784, Note_off_c, 6, 55, 0
6, 166912, Note_on_c, 6, 29, 117
6, 166912, Note_on_c, 6, 53, 117
6, 167040, Note_off_c, 6, 29, 0
6, 167040, Note_off_c, 6, 53, 0
6, 167168, Note_on_c, 6, 31, 115
6, 167168, Note_on_c, 6, 55, 115
6, 167296, Note_off_c, 6, 31, 0
6, 167296, Note_off_c, 6, 55, 0
6, 167424, Note_on_c, 6, 29, 122
6, 167424, Note_on_c, 6, 53, 122
6, 167552, Note_off_c, 6, 29, 0
6, 167552, Note_off_c, 6, 53, 0
6, 167680, Note_on_c, 6, 31, 115
6, 167680, Note_on_c, 6, 55, 115
6, 167808, Note_off_c, 6, 31, 0
6, 167808, Note_off_c, 6, 55, 0
6, 167936, Note_on_c, 6, 29, 86
6, 167936, Note_on_c, 6, 53, 86
6, 167987, Note_off_c, 6, 29, 0
6, 167987, Note_off_c, 6, 53, 0
6, 168106, Note_on_c, 6, 31, 103
6, 168106, Note_on_c, 6, 55, 103
6, 168157, Note_off_c, 6, 31, 0
6, 168157, Note_off_c, 6, 55, 0
6, 168277, Note_on_c, 6, 29, 91
6, 168277, Note_on_c, 6, 53, 91
6, 168328, Note_off_c, 6, 29, 0
6, 168328, Note_off_c, 6, 53, 0
6, 168448, Note_on_c, 6, 31, 99
6, 168448, Note_on_c, 6, 55, 99
6, 168499, Note_off_c, 6, 31, 0
6, 168499, Note_off_c, 6, 55, 0
6, 168618, Note_on_c, 6, 29, 95
6, 168618, Note_on_c, 6, 53, 95
6, 168669, Note_off_c, 6, 29, 0
6, 168669, Note_off_c, 6, 53, 0
6, 168789, Note_on_c, 6, 31, 103
6, 168789, Note_on_c, 6, 55, 103
6, 168840, Note_off_c, 6, 31, 0
6, 168840, Note_off_c, 6, 55, 0
6, 168960, Note_on_c, 6, 30, 94
6, 168960, Note_on_c, 6, 54, 94
6, 169011, Note_off_c, 6, 30, 0
6, 169011, Note_off_c, 6, 54, 0
6, 169130, Note_on_c, 6, 33, 98
6, 169130, Note_on_c, 6, 57, 98
6, 169181, Note_off_c, 6, 33, 0
6, 169181, Note_off_c, 6, 57, 0
6, 169301, Note_on_c, 6, 28, 90
6, 169301, Note_on_c, 6, 52, 90
6, 169352, Note_off_c, 6, 28, 0
6, 169352, Note_off_c, 6, 52, 0
6, 169472, Note_on_c, 6, 29, 102
6, 169472, Note_on_c, 6, 53, 102
6, 169523, Note_off_c, 6, 29, 0
6, 169523, Note_off_c, 6, 53, 0
6, 169642, Note_on_c, 6, 31, 102
6, 169642, Note_on_c, 6, 55, 102
6, 169693, Note_off_c, 6, 31, 0
6, 169693, Note_off_c, 6, 55, 0
6, 169813, Note_on_c, 6, 33, 102
6, 169813, Note_on_c, 6, 57, 102
6, 169864, Note_off_c, 6, 33, 0
6, 169864, Note_off_c, 6, 57, 0
6, 169984, Note_on_c, 6, 30, 92
6, 169984, Note_on_c, 6, 54, 92
6, 170035, Note_off_c, 6, 30, 0
6, 170035, Note_off_c, 6, 54, 0
6, 170154, Note_on_c, 6, 33, 102
6, 170154, Note_on_c, 6, 57, 102
6, 170205, Note_off_c, 6, 33, 0
6, 170205, Note_off_c, 6, 57, 0
6, 170325, Note_on_c, 6, 28, 92
6, 170325, Note_on_c, 6, 52, 92
6, 170376, Note_off_c, 6, 28, 0
6, 170376, Note_off_c, 6, 52, 0
6, 170496, Note_on_c, 6, 29, 99
6, 170496, Note_on_c, 6, 53, 99
6, 170547, Note_off_c, 6, 29, 0
6, 170547, Note_off_c, 6, 53, 0
6, 170666, Note_on_c, 6, 31, 99
6, 170666, Note_on_c, 6, 55, 99
6, 170717, Note_off_c, 6, 31, 0
6, 170717, Note_off_c, 6, 55, 0
6, 170837, Note_on_c, 6, 33, 100
6, 170837, Note_on_c, 6, 57, 100
6, 170888, Note_off_c, 6, 33, 0
6, 170888, Note_off_c, 6, 57, 0
6, 171008, Note_on_c, 6, 31, 94
6, 171008, Note_on_c, 6, 55, 94
6, 171050, Note_off_c, 6, 31, 0
6, 171050, Note_off_c, 6, 55, 0
6, 171093, Note_on_c, 6, 33, 101
6, 171093, Note_on_c, 6, 57, 101
6, 171135, Note_off_c, 6, 33, 0
6, 171135, Note_off_c, 6, 57, 0
6, 171264, Note_on_c, 6, 29, 90
6, 171264, Note_on_c, 6, 53, 90
6, 171340, Note_off_c, 6, 29, 0
6, 171340, Note_off_c, 6, 53, 0
6, 171520, Note_on_c, 6, 33, 103
6, 171520, Note_on_c, 6, 57, 103
6, 171571, Note_off_c, 6, 33, 0
6, 171571, Note_off_c, 6, 57, 0
6, 171690, Note_on_c, 6, 33, 95
6, 171690, Note_on_c, 6, 57, 95
6, 171741, Note_off_c, 6, 33, 0
6, 171741, Note_off_c, 6, 57, 0
6, 171861, Note_on_c, 6, 34, 104
6, 171861, Note_on_c, 6, 58, 104
6, 171912, Note_off_c, 6, 34, 0
6, 171912, Note_off_c, 6, 58, 0
6, 172032, Note_on_c, 6, 34, 93
6, 172032, Note_on_c, 6, 58, 93
6, 172083, Note_off_c, 6, 34, 0
6, 172083, Note_off_c, 6, 58, 0
6, 172202, Note_on_c, 6, 33, 93
6, 172202, Note_on_c, 6, 57, 93
6, 172253, Note_off_c, 6, 33, 0
6, 172253, Note_off_c, 6, 57, 0
6, 172373, Note_on_c, 6, 34, 101
6, 172373, Note_on_c, 6, 58, 101
6, 172424, Note_off_c, 6, 34, 0
6, 172424, Note_off_c, 6, 58, 0
6, 172544, Note_on_c, 6, 36, 107
6, 172544, Note_on_c, 6, 60, 107
6, 172595, Note_off_c, 6, 36, 0
6, 172595, Note_off_c, 6, 60, 0
6, 172714, Note_on_c, 6, 33, 96
6, 172714, Note_on_c, 6, 57, 96
6, 172765, Note_off_c, 6, 33, 0
6, 172765, Note_off_c, 6, 57, 0
6, 172885, Note_on_c, 6, 34, 100
6, 172885, Note_on_c, 6, 58, 100
6, 172936, Note_off_c, 6, 34, 0
6, 172936, Note_off_c, 6, 58, 0
6, 173056, Note_on_c, 6, 34, 99
6, 173056, Note_on_c, 6, 58, 99
6, 173107, Note_off_c, 6, 34, 0
6, 173107, Note_off_c, 6, 58, 0
6, 173226, Note_on_c, 6, 36, 101
6, 173226, Note_on_c, 6, 60, 101
6, 173277, Note_off_c, 6, 36, 0
6, 173277, Note_off_c, 6, 60, 0
6, 173397, Note_on_c, 6, 33, 94
6, 173397, Note_on_c, 6, 57, 94
6, 173448, Note_off_c, 6, 33, 0
6, 173448, Note_off_c, 6, 57, 0
6, 173568, Note_on_c, 6, 34, 100
6, 173568, Note_on_c, 6, 58, 100
6, 173593, Note_off_c, 6, 34, 0
6, 173593, Note_off_c, 6, 58, 0
6, 173653, Note_on_c, 6, 28, 88
6, 173653, Note_on_c, 6, 52, 88
6, 173678, Note_off_c, 6, 28, 0
6, 173678, Note_off_c, 6, 52, 0
6, 173824, Note_on_c, 6, 29, 88
6, 173824, Note_on_c, 6, 53, 88
6, 173900, Note_off_c, 6, 29, 0
6, 173900, Note_off_c, 6, 53, 0
6, 174080, Note_on_c, 6, 28, 91
6, 174080, Note_on_c, 6, 52, 91
6, 174131, Note_off_c, 6, 28, 0
6, 174131, Note_off_c, 6, 52, 0
6, 174250, Note_on_c, 6, 30, 100
6, 174250, Note_on_c, 6, 54, 100
6, 174301, Note_off_c, 6, 30, 0
6, 174301, Note_off_c, 6, 54, 0
6, 174421, Note_on_c, 6, 31, 100
6, 174421, Note_on_c, 6, 55, 100
6, 174472, Note_off_c, 6, 31, 0
6, 174472, Note_off_c, 6, 55, 0
6, 174592, Note_on_c, 6, 33, 101
6, 174592, Note_on_c, 6, 57, 101
6, 174617, Note_off_c, 6, 33, 0
6, 174617, Note_off_c, 6, 57, 0
6, 174762, Note_on_c, 6, 31, 86
6, 174762, Note_on_c, 6, 55, 86
6, 174787, Note_off_c, 6, 31, 0
6, 174787, Note_off_c, 6, 55, 0
6, 174848, Note_on_c, 6, 33, 100
6, 174848, Note_on_c, 6, 57, 100
6, 174873, Note_off_c, 6, 33, 0
6, 174873, Note_off_c, 6, 57, 0
6, 175018, Note_on_c, 6, 34, 90
6, 175018, Note_on_c, 6, 58, 90
6, 175043, Note_off_c, 6, 34, 0
6, 175043, Note_off_c, 6, 58, 0
6, 175189, Note_on_c, 6, 36, 87
6, 175189, Note_on_c, 6, 60, 87
6, 175214, Note_off_c, 6, 36, 0
6, 175214, Note_off_c, 6, 60, 0
6, 175360, Note_on_c, 6, 38, 88
6, 175360, Note_on_c, 6, 62, 88
6, 175385, Note_off_c, 6, 38, 0
6, 175385, Note_off_c, 6, 62, 0
6, 175616, Note_on_c, 6, 38, 87
6, 175616, Note_on_c, 6, 62, 87
6, 175641, Note_off_c, 6, 38, 0
6, 175641, Note_off_c, 6, 62, 0
6, 175701, Note_on_c, 6, 38, 102
6, 175701, Note_on_c, 6, 62, 102
6, 175726, Note_off_c, 6, 38, 0
6, 175726, Note_off_c, 6, 62, 0
6, 175957, Note_on_c, 6, 38, 87
6, 175957, Note_on_c, 6, 62, 87
6, 175982, Note_off_c, 6, 38, 0
6, 175982, Note_off_c, 6, 62, 0
6, 176213, Note_on_c, 6, 43, 92
6, 176238, Note_off_c, 6, 43, 0
6, 176554, Note_on_c, 6, 43, 87
6, 176579, Note_off_c, 6, 43, 0
6, 176981, Note_on_c, 6, 43, 83
6, 177006, Note_off_c, 6, 43, 0
6, 177322, Note_on_c, 6, 43, 85
6, 177347, Note_off_c, 6, 43, 0
6, 177578, Note_on_c, 6, 43, 88
6, 177689, Note_off_c, 6, 43, 0
6, 177749, Note_on_c, 6, 43, 96
6, 177774, Note_off_c, 6, 43, 0
6, 178090, Note_on_c, 6, 43, 90
6, 178115, Note_off_c, 6, 43, 0
6, 178602, Note_on_c, 6, 43, 88
6, 178627, Note_off_c, 6, 43, 0
6, 178944, Note_on_c, 6, 43, 88
6, 178969, Note_off_c, 6, 43, 0
6, 179200, Note_on_c, 6, 43, 87
6, 179225, Note_off_c, 6, 43, 0
6, 179541, Note_on_c, 6, 43, 84
6, 179566, Note_off_c, 6, 43, 0
6, 179882, Note_on_c, 6, 43, 88
6, 179933, Note_off_c, 6, 43, 0
6, 180053, Note_on_c, 6, 43, 97
6, 180104, Note_off_c, 6, 43, 0
6, 180224, Note_on_c, 6, 43, 102
6, 180275, Note_off_c, 6, 43, 0
6, 180394, Note_on_c, 6, 41, 94
6, 180445, Note_off_c, 6, 41, 0
6, 180736, Note_on_c, 6, 41, 92
6, 180787, Note_off_c, 6, 41, 0
6, 181077, Note_on_c, 6, 41, 89
6, 181128, Note_off_c, 6, 41, 0
6, 181248, Note_on_c, 6, 41, 95
6, 181299, Note_off_c, 6, 41, 0
6, 210752, Note_on_c, 6, 34, 101
6, 213248, Note_off_c, 6, 34, 0
6, 213248, Note_on_c, 6, 34, 110
6, 214144, Note_off_c, 6, 34, 0
6, 214144, Note_on_c, 6, 34, 115
6, 214144, Note_on_c, 6, 36, 115
6, 217216, Note_off_c, 6, 34, 0
6, 218624, Note_off_c, 6, 36, 0
6, 218880, Note_on_c, 6, 48, 121
6, 219008, Note_off_c, 6, 48, 0
6, 219520, Note_on_c, 6, 48, 122
6, 219648, Note_off_c, 6, 48, 0
6, 220330, Note_on_c, 6, 48, 123
6, 220501, Note_off_c, 6, 48, 0
6, 221098, Note_on_c, 6, 48, 122
6, 221269, Note_off_c, 6, 48, 0
6, 221866, Note_on_c, 6, 48, 122
6, 222208, Note_off_c, 6, 48, 0
6, 222592, Note_on_c, 6, 48, 125
6, 222848, Note_off_c, 6, 48, 0
6, 223402, Note_on_c, 6, 48, 121
6, 223573, Note_off_c, 6, 48, 0
6, 223744, Note_on_c, 6, 36, 122
6, 224000, Note_off_c, 6, 36, 0
6, 224256, Note_on_c, 6, 48, 127
6, 224384, Note_on_c, 6, 36, 127
6, 224386, Note_off_c, 6, 48, 0
6, 224505, Note_off_c, 6, 36, 0
6, 224768, Note_on_c, 6, 48, 127
6, 224896, Note_off_c, 6, 48, 0
6, 225024, Note_on_c, 6, 48, 127
6, 225152, Note_on_c, 6, 36, 127
6, 225154, Note_off_c, 6, 48, 0
6, 225273, Note_off_c, 6, 36, 0
6, 225621, Note_on_c, 6, 48, 121
6, 225706, Note_off_c, 6, 48, 0
6, 225920, Note_on_c, 6, 48, 122
6, 226048, Note_on_c, 6, 36, 127
6, 226050, Note_off_c, 6, 48, 0
6, 226169, Note_off_c, 6, 36, 0
6, 226432, Note_on_c, 6, 48, 120
6, 226560, Note_off_c, 6, 48, 0
6, 226816, Note_on_c, 6, 48, 120
6, 226986, Note_off_c, 6, 48, 0
6, 226986, Note_on_c, 6, 36, 115
6, 227157, Note_off_c, 6, 36, 0
6, 227456, Note_on_c, 6, 48, 124
6, 227584, Note_off_c, 6, 48, 0
6, 227712, Note_on_c, 6, 48, 124
6, 227882, Note_off_c, 6, 48, 0
6, 227882, Note_on_c, 6, 36, 120
6, 228096, Note_off_c, 6, 36, 0
6, 228224, Note_on_c, 6, 48, 118
6, 228352, Note_off_c, 6, 48, 0
6, 228608, Note_on_c, 6, 48, 127
6, 228864, Note_on_c, 6, 36, 127
6, 228869, Note_off_c, 6, 48, 0
6, 228985, Note_off_c, 6, 36, 0
6, 229248, Note_on_c, 6, 48, 127
6, 229376, Note_off_c, 6, 48, 0
6, 229504, Note_on_c, 6, 36, 127
6, 229632, Note_off_c, 6, 36, 0
6, 229760, Note_on_c, 6, 48, 127
6, 229888, Note_off_c, 6, 48, 0
6, 230144, Note_on_c, 6, 44, 127
6, 230144, Note_on_c, 6, 32, 127
6, 230272, Note_off_c, 6, 44, 0
6, 230272, Note_off_c, 6, 32, 0
6, 230528, Note_on_c, 6, 44, 127
6, 230528, Note_on_c, 6, 32, 127
6, 230656, Note_off_c, 6, 44, 0
6, 230656, Note_off_c, 6, 32, 0
6, 230912, Note_on_c, 6, 44, 127
6, 230912, Note_on_c, 6, 32, 127
6, 231040, Note_off_c, 6, 44, 0
6, 231040, Note_off_c, 6, 32, 0
6, 231296, Note_on_c, 6, 44, 127
6, 231296, Note_on_c, 6, 32, 127
6, 231424, Note_off_c, 6, 44, 0
6, 231424, Note_off_c, 6, 32, 0
6, 231680, Note_on_c, 6, 44, 127
6, 231680, Note_on_c, 6, 32, 127
6, 231808, Note_off_c, 6, 44, 0
6, 231808, Note_off_c, 6, 32, 0
6, 232064, Note_on_c, 6, 47, 127
6, 232064, Note_on_c, 6, 35, 127
6, 232192, Note_off_c, 6, 47, 0
6, 232192, Note_off_c, 6, 35, 0
6, 232448, Note_on_c, 6, 45, 127
6, 232448, Note_on_c, 6, 33, 127
6, 232576, Note_off_c, 6, 45, 0
6, 232576, Note_off_c, 6, 33, 0
6, 232832, Note_on_c, 6, 36, 127
6, 232832, Note_on_c, 6, 36, 127
6, 232960, Note_off_c, 6, 36, 0
6, 232960, Note_off_c, 6, 36, 0
6, 233344, Note_on_c, 6, 39, 127
6, 233344, Note_on_c, 6, 39, 127
6, 233472, Note_off_c, 6, 39, 0
6, 233472, Note_off_c, 6, 39, 0
6, 233856, Note_on_c, 6, 40, 127
6, 233856, Note_on_c, 6, 40, 127
6, 233984, Note_off_c, 6, 40, 0
6, 233984, Note_off_c, 6, 40, 0
6, 234240, Note_on_c, 6, 39, 127
6, 234240, Note_on_c, 6, 39, 127
6, 234368, Note_off_c, 6, 39, 0
6, 234368, Note_off_c, 6, 39, 0
6, 234880, Note_on_c, 6, 41, 127
6, 234880, Note_on_c, 6, 41, 127
6, 235008, Note_off_c, 6, 41, 0
6, 235008, Note_off_c, 6, 41, 0
6, 235264, Note_on_c, 6, 41, 127
6, 235264, Note_on_c, 6, 41, 127
6, 235392, Note_off_c, 6, 41, 0
6, 235392, Note_off_c, 6, 41, 0
6, 235648, Note_on_c, 6, 41, 127
6, 235648, Note_on_c, 6, 41, 127
6, 235776, Note_off_c, 6, 41, 0
6, 235776, Note_off_c, 6, 41, 0
6, 236032, Note_on_c, 6, 41, 127
6, 236032, Note_on_c, 6, 41, 127
6, 236160, Note_off_c, 6, 41, 0
6, 236160, Note_off_c, 6, 41, 0
6, 236416, Note_on_c, 6, 41, 127
6, 236416, Note_on_c, 6, 41, 127
6, 236544, Note_off_c, 6, 41, 0
6, 236544, Note_off_c, 6, 41, 0
6, 236800, Note_on_c, 6, 41, 127
6, 236800, Note_on_c, 6, 41, 127
6, 236928, Note_off_c, 6, 41, 0
6, 236928, Note_off_c, 6, 41, 0
6, 237184, Note_on_c, 6, 41, 127
6, 237184, Note_on_c, 6, 41, 127
6, 237312, Note_off_c, 6, 41, 0
6, 237312, Note_off_c, 6, 41, 0
6, 237568, Note_on_c, 6, 41, 127
6, 237568, Note_on_c, 6, 41, 127
6, 237696, Note_off_c, 6, 41, 0
6, 237696, Note_off_c, 6, 41, 0
6, 237824, Note_on_c, 6, 38, 127
6, 237824, Note_on_c, 6, 38, 127
6, 238016, Note_off_c, 6, 38, 0
6, 238016, Note_off_c, 6, 38, 0
6, 238208, Note_on_c, 6, 47, 127
6, 238208, Note_on_c, 6, 35, 127
6, 238400, Note_off_c, 6, 47, 0
6, 238400, Note_off_c, 6, 35, 0
6, 238592, Note_on_c, 6, 44, 127
6, 238592, Note_on_c, 6, 32, 127
6, 238784, Note_off_c, 6, 44, 0
6, 238784, Note_off_c, 6, 32, 0
6, 238976, Note_on_c, 6, 41, 127
6, 238976, Note_on_c, 6, 29, 127
6, 239168, Note_off_c, 6, 41, 0
6, 239168, Note_off_c, 6, 29, 0
6, 239360, Note_on_c, 6, 38, 127
6, 239360, Note_on_c, 6, 26, 127
6, 239552, Note_off_c, 6, 38, 0
6, 239552, Note_off_c, 6, 26, 0
6, 239680, Note_on_c, 6, 37, 127
6, 239680, Note_on_c, 6, 25, 127
6, 239872, Note_off_c, 6, 37, 0
6, 239872, Note_off_c, 6, 25, 0
6, 246144, Note_on_c, 6, 31, 102
6, 248576, Note_off_c, 6, 31, 0
6, 248704, Note_on_c, 6, 31, 81
6, 251904, Note_off_c, 6, 31, 0
6, 252160, Note_on_c, 6, 31, 60
6, 253440, Note_on_c, 6, 59, 79
6, 253440, Note_on_c, 6, 62, 79
6, 253504, Note_on_c, 6, 58, 87
6, 253504, Note_on_c, 6, 61, 87
6, 253505, Note_off_c, 6, 59, 0
6, 253505, Note_off_c, 6, 62, 0
6, 253568, Note_on_c, 6, 56, 84
6, 253568, Note_on_c, 6, 59, 84
6, 253569, Note_off_c, 6, 58, 0
6, 253569, Note_off_c, 6, 61, 0
6, 253632, Note_off_c, 6, 56, 0
6, 253632, Note_on_c, 6, 53, 97
6, 253632, Note_on_c, 6, 56, 97
6, 253633, Note_off_c, 6, 59, 0
6, 253696, Note_off_c, 6, 53, 0
6, 253696, Note_on_c, 6, 49, 83
6, 253696, Note_on_c, 6, 53, 83
6, 253697, Note_off_c, 6, 56, 0
6, 253760, Note_on_c, 6, 44, 90
6, 253760, Note_on_c, 6, 47, 90
6, 253761, Note_off_c, 6, 49, 0
6, 253761, Note_off_c, 6, 53, 0
6, 253820, Note_off_c, 6, 44, 0
6, 253820, Note_off_c, 6, 47, 0
6, 254080, Note_on_c, 6, 61, 76
6, 254144, Note_on_c, 6, 58, 86
6, 254145, Note_off_c, 6, 61, 0
6, 254208, Note_on_c, 6, 53, 80
6, 254209, Note_off_c, 6, 58, 0
6, 254272, Note_off_c, 6, 53, 0
6, 254272, Note_on_c, 6, 49, 84
6, 254272, Note_on_c, 6, 53, 84
6, 254336, Note_on_c, 6, 44, 89
6, 254336, Note_on_c, 6, 47, 89
6, 254337, Note_off_c, 6, 49, 0
6, 254337, Note_off_c, 6, 53, 0
6, 254400, Note_off_c, 6, 44, 0
6, 254400, Note_on_c, 6, 38, 82
6, 254400, Note_on_c, 6, 44, 82
6, 254401, Note_off_c, 6, 47, 0
6, 254460, Note_off_c, 6, 38, 0
6, 254460, Note_off_c, 6, 44, 0
6, 254720, Note_on_c, 6, 64, 74
6, 254720, Note_on_c, 6, 68, 74
6, 254805, Note_on_c, 6, 59, 85
6, 254805, Note_on_c, 6, 65, 85
6, 254806, Note_off_c, 6, 64, 0
6, 254806, Note_off_c, 6, 68, 0
6, 254890, Note_off_c, 6, 59, 0
6, 254890, Note_on_c, 6, 49, 75
6, 254890, Note_on_c, 6, 59, 75
6, 254891, Note_off_c, 6, 65, 0
6, 254976, Note_on_c, 6, 44, 77
6, 254976, Note_on_c, 6, 47, 77
6, 254977, Note_off_c, 6, 49, 0
6, 254977, Note_off_c, 6, 59, 0
6, 255040, Note_on_c, 6, 38, 76
6, 255040, Note_on_c, 6, 41, 76
6, 255041, Note_off_c, 6, 44, 0
6, 255041, Note_off_c, 6, 47, 0
6, 255100, Note_off_c, 6, 38, 0
6, 255100, Note_off_c, 6, 41, 0
6, 255488, Note_off_c, 6, 31, 0
6, 264064, Note_on_c, 6, 62, 64
6, 264128, Note_off_c, 6, 62, 0
6, 264192, Note_on_c, 6, 63, 68
6, 264256, Note_off_c, 6, 63, 0
6, 264832, Note_on_c, 6, 62, 67
6, 264896, Note_off_c, 6, 62, 0
6, 264960, Note_on_c, 6, 63, 76
6, 265024, Note_off_c, 6, 63, 0
6, 265600, Note_on_c, 6, 62, 63
6, 265664, Note_off_c, 6, 62, 0
6, 265728, Note_on_c, 6, 63, 73
6, 265792, Note_off_c, 6, 63, 0
6, 266368, Note_on_c, 6, 62, 63
6, 266432, Note_off_c, 6, 62, 0
6, 266496, Note_on_c, 6, 63, 73
6, 266560, Note_off_c, 6, 63, 0
6, 267136, Note_on_c, 6, 62, 65
6, 267200, Note_off_c, 6, 62, 0
6, 267264, Note_on_c, 6, 63, 73
6, 267328, Note_off_c, 6, 63, 0
6, 267904, Note_on_c, 6, 62, 65
6, 267968, Note_off_c, 6, 62, 0
6, 268032, Note_on_c, 6, 63, 70
6, 268096, Note_off_c, 6, 63, 0
6, 268672, Note_on_c, 6, 62, 66
6, 268736, Note_off_c, 6, 62, 0
6, 268800, Note_on_c, 6, 63, 76
6, 268864, Note_off_c, 6, 63, 0
6, 269440, Note_on_c, 6, 62, 62
6, 269504, Note_off_c, 6, 62, 0
6, 269568, Note_on_c, 6, 63, 71
6, 269632, Note_off_c, 6, 63, 0
6, 270208, Note_on_c, 6, 62, 61
6, 270272, Note_off_c, 6, 62, 0
6, 270336, Note_on_c, 6, 63, 76
6, 270400, Note_off_c, 6, 63, 0
6, 270976, Note_on_c, 6, 66, 60
6, 271040, Note_off_c, 6, 66, 0
6, 271104, Note_on_c, 6, 64, 65
6, 271168, Note_off_c, 6, 64, 0
6, 271744, Note_on_c, 6, 64, 63
6, 271808, Note_off_c, 6, 64, 0
6, 271872, Note_on_c, 6, 63, 67
6, 271936, Note_off_c, 6, 63, 0
6, 272512, Note_on_c, 6, 63, 63
6, 272576, Note_off_c, 6, 63, 0
6, 272640, Note_on_c, 6, 64, 69
6, 272704, Note_off_c, 6, 64, 0
6, 273408, Note_on_c, 6, 64, 60
6, 273472, Note_off_c, 6, 64, 0
6, 273536, Note_on_c, 6, 65, 73
6, 273600, Note_off_c, 6, 65, 0
6, 274048, Note_on_c, 6, 65, 64
6, 274112, Note_off_c, 6, 65, 0
6, 274176, Note_on_c, 6, 64, 66
6, 274240, Note_off_c, 6, 64, 0
6, 274816, Note_on_c, 6, 64, 63
6, 274880, Note_off_c, 6, 64, 0
6, 274944, Note_on_c, 6, 66, 75
6, 275008, Note_off_c, 6, 66, 0
6, 276864, Note_on_c, 6, 53, 62
6, 276928, Note_off_c, 6, 53, 0
6, 276992, Note_on_c, 6, 61, 79
6, 277056, Note_off_c, 6, 61, 0
6, 277376, Note_on_c, 6, 60, 57
6, 277440, Note_off_c, 6, 60, 0
6, 277504, Note_on_c, 6, 64, 68
6, 277568, Note_off_c, 6, 64, 0
6, 277888, Note_on_c, 6, 57, 46
6, 277952, Note_off_c, 6, 57, 0
6, 278016, Note_on_c, 6, 64, 61
6, 278080, Note_off_c, 6, 64, 0
6, 278656, Note_on_c, 6, 64, 31
6, 278720, Note_off_c, 6, 64, 0
6, 389376, Note_on_c, 6, 49, 91
6, 389440, Note_off_c, 6, 49, 0
6, 389504, Note_on_c, 6, 49, 95
6, 389568, Note_off_c, 6, 49, 0
6, 389632, Note_on_c, 6, 51, 104
6, 389696, Note_off_c, 6, 51, 0
6, 389760, Note_on_c, 6, 51, 97
6, 389824, Note_off_c, 6, 51, 0
6, 389888, Note_on_c, 6, 52, 103
6, 389952, Note_off_c, 6, 52, 0
6, 390016, Note_on_c, 6, 52, 103
6, 390080, Note_off_c, 6, 52, 0
6, 390144, Note_on_c, 6, 54, 99
6, 390208, Note_off_c, 6, 54, 0
6, 390272, Note_on_c, 6, 54, 99
6, 390336, Note_off_c, 6, 54, 0
6, 390400, Note_on_c, 6, 55, 99
6, 390464, Note_off_c, 6, 55, 0
6, 390528, Note_on_c, 6, 55, 96
6, 390592, Note_off_c, 6, 55, 0
6, 390656, Note_on_c, 6, 58, 103
6, 390720, Note_off_c, 6, 58, 0
6, 390784, Note_on_c, 6, 58, 100
6, 390848, Note_off_c, 6, 58, 0
6, 390912, Note_on_c, 6, 58, 98
6, 390912, Note_on_c, 6, 40, 102
6, 390976, Note_off_c, 6, 58, 0
6, 390976, Note_off_c, 6, 40, 0
6, 391040, Note_on_c, 6, 58, 101
6, 391040, Note_on_c, 6, 40, 113
6, 391104, Note_off_c, 6, 58, 0
6, 391104, Note_off_c, 6, 40, 0
6, 391168, Note_on_c, 6, 60, 103
6, 391168, Note_on_c, 6, 42, 116
6, 391232, Note_off_c, 6, 60, 0
6, 391232, Note_off_c, 6, 42, 0
6, 391296, Note_on_c, 6, 60, 101
6, 391296, Note_on_c, 6, 42, 116
6, 391360, Note_off_c, 6, 60, 0
6, 391360, Note_off_c, 6, 42, 0
6, 391424, Note_on_c, 6, 61, 101
6, 391424, Note_on_c, 6, 43, 119
6, 391488, Note_off_c, 6, 61, 0
6, 391488, Note_off_c, 6, 43, 0
6, 391552, Note_on_c, 6, 61, 100
6, 391552, Note_on_c, 6, 43, 110
6, 391616, Note_off_c, 6, 61, 0
6, 391616, Note_off_c, 6, 43, 0
6, 391680, Note_on_c, 6, 61, 98
6, 391680, Note_on_c, 6, 46, 118
6, 391744, Note_off_c, 6, 61, 0
6, 391744, Note_off_c, 6, 46, 0
6, 391808, Note_on_c, 6, 61, 100
6, 391808, Note_on_c, 6, 46, 112
6, 391872, Note_off_c, 6, 61, 0
6, 391872, Note_off_c, 6, 46, 0
6, 391936, Note_on_c, 6, 64, 109
6, 391936, Note_on_c, 6, 46, 113
6, 392000, Note_off_c, 6, 64, 0
6, 392000, Note_off_c, 6, 46, 0
6, 392064, Note_on_c, 6, 64, 107
6, 392064, Note_on_c, 6, 46, 115
6, 392128, Note_off_c, 6, 64, 0
6, 392128, Note_off_c, 6, 46, 0
6, 392192, Note_on_c, 6, 67, 115
6, 392192, Note_on_c, 6, 48, 114
6, 392256, Note_off_c, 6, 67, 0
6, 392256, Note_off_c, 6, 48, 0
6, 392320, Note_on_c, 6, 67, 113
6, 392320, Note_on_c, 6, 48, 114
6, 392384, Note_off_c, 6, 67, 0
6, 392384, Note_off_c, 6, 48, 0
6, 392448, Note_on_c, 6, 70, 123
6, 392448, Note_on_c, 6, 49, 117
6, 392512, Note_off_c, 6, 70, 0
6, 392512, Note_off_c, 6, 49, 0
6, 392576, Note_on_c, 6, 70, 114
6, 392576, Note_on_c, 6, 49, 116
6, 392640, Note_off_c, 6, 70, 0
6, 392640, Note_off_c, 6, 49, 0
6, 392704, Note_on_c, 6, 51, 116
6, 392768, Note_off_c, 6, 51, 0
6, 392832, Note_on_c, 6, 51, 114
6, 392896, Note_off_c, 6, 51, 0
6, 392960, Note_on_c, 6, 52, 115
6, 393024, Note_off_c, 6, 52, 0
6, 393088, Note_on_c, 6, 52, 111
6, 393152, Note_off_c, 6, 52, 0
6, 393216, Note_on_c, 6, 55, 119
6, 393280, Note_off_c, 6, 55, 0
6, 393344, Note_on_c, 6, 58, 119
6, 393408, Note_off_c, 6, 58, 0
6, 393600, Note_on_c, 6, 42, 102
6, 393664, Note_off_c, 6, 42, 0
6, 393728, Note_on_c, 6, 43, 115
6, 393792, Note_off_c, 6, 43, 0
6, 393856, Note_on_c, 6, 43, 112
6, 393856, Note_on_c, 6, 40, 103
6, 393920, Note_off_c, 6, 43, 0
6, 393920, Note_off_c, 6, 40, 0
6, 393984, Note_on_c, 6, 46, 119
6, 393984, Note_on_c, 6, 42, 114
6, 394048, Note_off_c, 6, 46, 0
6, 394048, Note_off_c, 6, 42, 0
6, 394112, Note_on_c, 6, 46, 110
6, 394112, Note_on_c, 6, 42, 111
6, 394176, Note_off_c, 6, 46, 0
6, 394176, Note_off_c, 6, 42, 0
6, 394240, Note_on_c, 6, 48, 119
6, 394240, Note_on_c, 6, 43, 116
6, 394304, Note_off_c, 6, 48, 0
6, 394304, Note_off_c, 6, 43, 0
6, 394368, Note_on_c, 6, 48, 113
6, 394368, Note_on_c, 6, 43, 115
6, 394432, Note_off_c, 6, 48, 0
6, 394432, Note_off_c, 6, 43, 0
6, 394496, Note_on_c, 6, 49, 116
6, 394496, Note_on_c, 6, 46, 115
6, 394560, Note_off_c, 6, 49, 0
6, 394560, Note_off_c, 6, 46, 0
6, 394624, Note_on_c, 6, 49, 116
6, 394624, Note_on_c, 6, 46, 118
6, 394688, Note_off_c, 6, 49, 0
6, 394688, Note_off_c, 6, 46, 0
6, 394752, Note_on_c, 6, 49, 109
6, 394752, Note_on_c, 6, 46, 110
6, 394816, Note_off_c, 6, 49, 0
6, 394816, Note_off_c, 6, 46, 0
6, 394880, Note_on_c, 6, 51, 117
6, 394880, Note_on_c, 6, 48, 115
6, 394944, Note_off_c, 6, 51, 0
6, 394944, Note_off_c, 6, 48, 0
6, 395008, Note_on_c, 6, 52, 119
6, 395008, Note_on_c, 6, 49, 115
6, 395072, Note_off_c, 6, 52, 0
6, 395072, Note_off_c, 6, 49, 0
6, 395136, Note_on_c, 6, 52, 115
6, 395136, Note_on_c, 6, 49, 116
6, 395200, Note_off_c, 6, 52, 0
6, 395200, Note_off_c, 6, 49, 0
6, 395264, Note_on_c, 6, 52, 115
6, 395264, Note_on_c, 6, 49, 114
6, 395328, Note_off_c, 6, 52, 0
6, 395328, Note_off_c, 6, 49, 0
6, 395392, Note_on_c, 6, 54, 115
6, 395392, Note_on_c, 6, 49, 114
6, 395456, Note_off_c, 6, 54, 0
6, 395456, Note_off_c, 6, 49, 0
6, 395520, Note_on_c, 6, 54, 113
6, 395584, Note_off_c, 6, 54, 0
6, 395648, Note_on_c, 6, 58, 121
6, 395648, Note_on_c, 6, 31, 104
6, 395712, Note_off_c, 6, 58, 0
6, 395712, Note_off_c, 6, 31, 0
6, 395776, Note_on_c, 6, 60, 118
6, 395776, Note_on_c, 6, 31, 111
6, 395840, Note_off_c, 6, 60, 0
6, 395840, Note_off_c, 6, 31, 0
6, 395904, Note_on_c, 6, 55, 104
6, 395904, Note_on_c, 6, 33, 119
6, 395968, Note_off_c, 6, 55, 0
6, 395968, Note_off_c, 6, 33, 0
6, 396032, Note_on_c, 6, 48, 98
6, 396032, Note_on_c, 6, 33, 114
6, 396096, Note_off_c, 6, 48, 0
6, 396096, Note_off_c, 6, 33, 0
6, 396160, Note_on_c, 6, 60, 127
6, 396160, Note_on_c, 6, 33, 113
6, 396224, Note_off_c, 6, 60, 0
6, 396224, Note_off_c, 6, 33, 0
6, 396288, Note_on_c, 6, 61, 124
6, 396288, Note_on_c, 6, 36, 117
6, 396352, Note_off_c, 6, 61, 0
6, 396352, Note_off_c, 6, 36, 0
6, 396416, Note_on_c, 6, 48, 101
6, 396416, Note_on_c, 6, 36, 118
6, 396480, Note_off_c, 6, 48, 0
6, 396480, Note_off_c, 6, 36, 0
6, 396544, Note_on_c, 6, 36, 119
6, 396608, Note_off_c, 6, 36, 0
6, 396672, Note_on_c, 6, 61, 101
6, 396672, Note_on_c, 6, 37, 116
6, 396736, Note_off_c, 6, 61, 0
6, 396736, Note_off_c, 6, 37, 0
6, 396800, Note_on_c, 6, 61, 109
6, 396800, Note_on_c, 6, 37, 114
6, 396864, Note_off_c, 6, 61, 0
6, 396864, Note_off_c, 6, 37, 0
6, 396928, Note_on_c, 6, 49, 97
6, 396928, Note_on_c, 6, 37, 109
6, 396992, Note_off_c, 6, 49, 0
6, 396992, Note_off_c, 6, 37, 0
6, 397056, Note_on_c, 6, 49, 109
6, 397056, Note_on_c, 6, 36, 107
6, 397120, Note_off_c, 6, 49, 0
6, 397120, Note_off_c, 6, 36, 0
6, 397184, Note_on_c, 6, 64, 127
6, 397184, Note_on_c, 6, 36, 111
6, 397248, Note_off_c, 6, 64, 0
6, 397248, Note_off_c, 6, 36, 0
6, 397312, Note_on_c, 6, 58, 109
6, 397312, Note_on_c, 6, 36, 115
6, 397376, Note_off_c, 6, 58, 0
6, 397376, Note_off_c, 6, 36, 0
6, 397440, Note_on_c, 6, 51, 106
6, 397440, Note_on_c, 6, 37, 119
6, 397504, Note_off_c, 6, 51, 0
6, 397504, Note_off_c, 6, 37, 0
6, 397568, Note_on_c, 6, 63, 127
6, 397568, Note_on_c, 6, 37, 113
6, 397632, Note_off_c, 6, 63, 0
6, 397632, Note_off_c, 6, 37, 0
6, 397696, Note_on_c, 6, 64, 124
6, 397696, Note_on_c, 6, 37, 110
6, 397760, Note_off_c, 6, 64, 0
6, 397760, Note_off_c, 6, 37, 0
6, 397824, Note_on_c, 6, 63, 111
6, 397824, Note_on_c, 6, 39, 119
6, 397888, Note_off_c, 6, 63, 0
6, 397888, Note_off_c, 6, 39, 0
6, 397952, Note_on_c, 6, 39, 115
6, 398016, Note_off_c, 6, 39, 0
6, 398080, Note_on_c, 6, 64, 98
6, 398080, Note_on_c, 6, 39, 115
6, 398144, Note_off_c, 6, 64, 0
6, 398144, Note_off_c, 6, 39, 0
6, 398208, Note_on_c, 6, 64, 110
6, 398208, Note_on_c, 6, 40, 115
6, 398272, Note_off_c, 6, 64, 0
6, 398272, Note_off_c, 6, 40, 0
6, 398336, Note_on_c, 6, 52, 95
6, 398336, Note_on_c, 6, 40, 115
6, 398400, Note_off_c, 6, 52, 0
6, 398400, Note_off_c, 6, 40, 0
6, 398464, Note_on_c, 6, 67, 127
6, 398464, Note_on_c, 6, 42, 119
6, 398528, Note_off_c, 6, 67, 0
6, 398528, Note_off_c, 6, 42, 0
6, 398592, Note_on_c, 6, 42, 115
6, 398656, Note_off_c, 6, 42, 0
6, 398720, Note_on_c, 6, 43, 117
6, 398784, Note_off_c, 6, 43, 0
6, 398848, Note_on_c, 6, 37, 102
6, 398848, Note_on_c, 6, 43, 112
6, 398912, Note_off_c, 6, 37, 0
6, 398912, Note_off_c, 6, 43, 0
6, 398976, Note_on_c, 6, 39, 112
6, 398976, Note_on_c, 6, 44, 112
6, 399040, Note_off_c, 6, 39, 0
6, 399040, Note_off_c, 6, 44, 0
6, 399104, Note_on_c, 6, 39, 109
6, 399104, Note_on_c, 6, 44, 113
6, 399168, Note_off_c, 6, 39, 0
6, 399168, Note_off_c, 6, 44, 0
6, 399232, Note_on_c, 6, 39, 112
6, 399232, Note_on_c, 6, 45, 116
6, 399296, Note_off_c, 6, 39, 0
6, 399296, Note_off_c, 6, 45, 0
6, 399360, Note_on_c, 6, 40, 116
6, 399424, Note_off_c, 6, 40, 0
6, 399488, Note_on_c, 6, 40, 115
6, 399488, Note_on_c, 6, 33, 105
6, 399552, Note_off_c, 6, 40, 0
6, 399552, Note_off_c, 6, 33, 0
6, 399616, Note_on_c, 6, 42, 118
6, 399616, Note_on_c, 6, 33, 112
6, 399680, Note_off_c, 6, 42, 0
6, 399680, Note_off_c, 6, 33, 0
6, 399744, Note_on_c, 6, 42, 113
6, 399744, Note_on_c, 6, 33, 115
6, 399808, Note_off_c, 6, 42, 0
6, 399808, Note_off_c, 6, 33, 0
6, 399872, Note_on_c, 6, 43, 115
6, 399872, Note_on_c, 6, 34, 117
6, 399936, Note_off_c, 6, 43, 0
6, 399936, Note_off_c, 6, 34, 0
6, 400000, Note_on_c, 6, 43, 114
6, 400000, Note_on_c, 6, 34, 114
6, 400064, Note_off_c, 6, 43, 0
6, 400064, Note_off_c, 6, 34, 0
6, 400128, Note_on_c, 6, 36, 113
6, 400192, Note_off_c, 6, 36, 0
6, 400256, Note_on_c, 6, 39, 98
6, 400256, Note_on_c, 6, 36, 112
6, 400320, Note_off_c, 6, 39, 0
6, 400320, Note_off_c, 6, 36, 0
6, 400384, Note_on_c, 6, 39, 110
6, 400384, Note_on_c, 6, 36, 111
6, 400448, Note_off_c, 6, 39, 0
6, 400448, Note_off_c, 6, 36, 0
6, 400512, Note_on_c, 6, 40, 113
6, 400512, Note_on_c, 6, 36, 114
6, 400576, Note_off_c, 6, 40, 0
6, 400576, Note_off_c, 6, 36, 0
6, 400640, Note_on_c, 6, 40, 112
6, 400640, Note_on_c, 6, 37, 114
6, 400704, Note_off_c, 6, 40, 0
6, 400704, Note_off_c, 6, 37, 0
6, 400768, Note_on_c, 6, 42, 120
6, 400768, Note_on_c, 6, 37, 111
6, 400832, Note_off_c, 6, 42, 0
6, 400832, Note_off_c, 6, 37, 0
6, 400896, Note_on_c, 6, 42, 112
6, 400896, Note_on_c, 6, 39, 119
6, 400960, Note_off_c, 6, 42, 0
6, 400960, Note_off_c, 6, 39, 0
6, 401024, Note_on_c, 6, 43, 118
6, 401024, Note_on_c, 6, 39, 118
6, 401088, Note_off_c, 6, 43, 0
6, 401088, Note_off_c, 6, 39, 0
6, 401152, Note_on_c, 6, 43, 116
6, 401152, Note_on_c, 6, 40, 116
6, 401216, Note_off_c, 6, 43, 0
6, 401216, Note_off_c, 6, 40, 0
6, 401280, Note_on_c, 6, 44, 112
6, 401280, Note_on_c, 6, 40, 117
6, 401344, Note_off_c, 6, 44, 0
6, 401344, Note_off_c, 6, 40, 0
6, 401408, Note_on_c, 6, 44, 117
6, 401472, Note_off_c, 6, 44, 0
6, 401536, Note_on_c, 6, 45, 116
6, 401536, Note_on_c, 6, 40, 103
6, 401600, Note_off_c, 6, 45, 0
6, 401600, Note_off_c, 6, 40, 0
6, 401664, Note_on_c, 6, 42, 117
6, 401728, Note_off_c, 6, 42, 0
6, 401792, Note_on_c, 6, 46, 102
6, 401792, Note_on_c, 6, 45, 118
6, 401856, Note_off_c, 6, 46, 0
6, 401856, Note_off_c, 6, 45, 0
6, 401920, Note_on_c, 6, 46, 111
6, 401920, Note_on_c, 6, 49, 120
6, 401984, Note_off_c, 6, 46, 0
6, 401984, Note_off_c, 6, 49, 0
6, 402048, Note_on_c, 6, 48, 118
6, 402048, Note_on_c, 6, 51, 113
6, 402112, Note_off_c, 6, 48, 0
6, 402112, Note_off_c, 6, 51, 0
6, 402176, Note_on_c, 6, 48, 116
6, 402240, Note_off_c, 6, 48, 0
6, 402304, Note_on_c, 6, 49, 118
6, 402304, Note_on_c, 6, 40, 98
6, 402368, Note_off_c, 6, 49, 0
6, 402368, Note_off_c, 6, 40, 0
6, 402432, Note_on_c, 6, 49, 114
6, 402432, Note_on_c, 6, 42, 113
6, 402496, Note_off_c, 6, 49, 0
6, 402496, Note_off_c, 6, 42, 0
6, 402560, Note_on_c, 6, 51, 114
6, 402560, Note_on_c, 6, 45, 120
6, 402624, Note_off_c, 6, 51, 0
6, 402624, Note_off_c, 6, 45, 0
6, 402688, Note_on_c, 6, 51, 113
6, 402688, Note_on_c, 6, 49, 120
6, 402752, Note_off_c, 6, 51, 0
6, 402752, Note_off_c, 6, 49, 0
6, 402816, Note_on_c, 6, 54, 116
6, 402816, Note_on_c, 6, 51, 121
6, 402880, Note_off_c, 6, 54, 0
6, 402880, Note_off_c, 6, 51, 0
6, 402944, Note_on_c, 6, 55, 114
6, 403008, Note_off_c, 6, 55, 0
6, 403072, Note_on_c, 6, 60, 127
6, 403072, Note_on_c, 6, 40, 99
6, 403136, Note_off_c, 6, 60, 0
6, 403136, Note_off_c, 6, 40, 0
6, 403200, Note_on_c, 6, 42, 115
6, 403264, Note_off_c, 6, 42, 0
6, 403328, Note_on_c, 6, 45, 104
6, 403328, Note_on_c, 6, 45, 120
6, 403392, Note_off_c, 6, 45, 0
6, 403392, Note_off_c, 6, 45, 0
6, 403456, Note_on_c, 6, 49, 120
6, 403456, Note_on_c, 6, 49, 120
6, 403520, Note_off_c, 6, 49, 0
6, 403520, Note_off_c, 6, 49, 0
6, 403584, Note_on_c, 6, 51, 115
6, 403584, Note_on_c, 6, 51, 115
6, 403648, Note_off_c, 6, 51, 0
6, 403648, Note_off_c, 6, 51, 0
6, 403712, Note_on_c, 6, 36, 100
6, 403776, Note_off_c, 6, 36, 0
6, 403840, Note_on_c, 6, 40, 119
6, 403840, Note_on_c, 6, 40, 104
6, 403904, Note_off_c, 6, 40, 0
6, 403904, Note_off_c, 6, 40, 0
6, 403968, Note_on_c, 6, 42, 118
6, 403968, Note_on_c, 6, 42, 111
6, 404032, Note_off_c, 6, 42, 0
6, 404032, Note_off_c, 6, 42, 0
6, 404096, Note_on_c, 6, 45, 120
6, 404096, Note_on_c, 6, 45, 117
6, 404160, Note_off_c, 6, 45, 0
6, 404160, Note_off_c, 6, 45, 0
6, 404224, Note_on_c, 6, 49, 121
6, 404224, Note_on_c, 6, 49, 118
6, 404288, Note_off_c, 6, 49, 0
6, 404288, Note_off_c, 6, 49, 0
6, 404352, Note_on_c, 6, 51, 121
6, 404352, Note_on_c, 6, 51, 121
6, 404416, Note_off_c, 6, 51, 0
6, 404416, Note_off_c, 6, 51, 0
6, 404480, Note_on_c, 6, 36, 96
6, 404544, Note_off_c, 6, 36, 0
6, 404608, Note_on_c, 6, 40, 117
6, 404608, Note_on_c, 6, 40, 101
6, 404672, Note_off_c, 6, 40, 0
6, 404672, Note_off_c, 6, 40, 0
6, 404736, Note_on_c, 6, 42, 116
6, 404736, Note_on_c, 6, 42, 113
6, 404800, Note_off_c, 6, 42, 0
6, 404800, Note_off_c, 6, 42, 0
6, 404864, Note_on_c, 6, 45, 119
6, 404864, Note_on_c, 6, 45, 118
6, 404928, Note_off_c, 6, 45, 0
6, 404928, Note_off_c, 6, 45, 0
6, 404992, Note_on_c, 6, 49, 117
6, 404992, Note_on_c, 6, 49, 123
6, 405056, Note_off_c, 6, 49, 0
6, 405056, Note_off_c, 6, 49, 0
6, 405120, Note_on_c, 6, 51, 122
6, 405120, Note_on_c, 6, 51, 118
6, 405184, Note_off_c, 6, 51, 0
6, 405184, Note_off_c, 6, 51, 0
6, 405248, Note_on_c, 6, 36, 96
6, 405312, Note_off_c, 6, 36, 0
6, 405376, Note_on_c, 6, 40, 121
6, 405376, Note_on_c, 6, 40, 100
6, 405440, Note_off_c, 6, 40, 0
6, 405440, Note_off_c, 6, 40, 0
6, 405504, Note_on_c, 6, 42, 118
6, 405504, Note_on_c, 6, 42, 118
6, 405568, Note_off_c, 6, 42, 0
6, 405568, Note_off_c, 6, 42, 0
6, 405632, Note_on_c, 6, 45, 118
6, 405632, Note_on_c, 6, 45, 114
6, 405696, Note_off_c, 6, 45, 0
6, 405696, Note_off_c, 6, 45, 0
6, 405760, Note_on_c, 6, 49, 120
6, 405760, Note_on_c, 6, 49, 114
6, 405824, Note_off_c, 6, 49, 0
6, 405824, Note_off_c, 6, 49, 0
6, 405888, Note_on_c, 6, 51, 116
6, 405888, Note_on_c, 6, 51, 123
6, 405952, Note_off_c, 6, 51, 0
6, 405952, Note_off_c, 6, 51, 0
6, 406016, Note_on_c, 6, 36, 100
6, 406080, Note_off_c, 6, 36, 0
6, 406144, Note_on_c, 6, 40, 117
6, 406144, Note_on_c, 6, 40, 102
6, 406208, Note_off_c, 6, 40, 0
6, 406208, Note_off_c, 6, 40, 0
6, 406272, Note_on_c, 6, 42, 115
6, 406272, Note_on_c, 6, 42, 117
6, 406336, Note_off_c, 6, 42, 0
6, 406336, Note_off_c, 6, 42, 0
6, 406400, Note_on_c, 6, 45, 114
6, 406400, Note_on_c, 6, 45, 119
6, 406464, Note_off_c, 6, 45, 0
6, 406464, Note_off_c, 6, 45, 0
6, 406528, Note_on_c, 6, 49, 120
6, 406528, Note_on_c, 6, 49, 122
6, 406592, Note_off_c, 6, 49, 0
6, 406592, Note_off_c, 6, 49, 0
6, 406656, Note_on_c, 6, 51, 116
6, 406656, Note_on_c, 6, 51, 117
6, 406720, Note_off_c, 6, 51, 0
6, 406720, Note_off_c, 6, 51, 0
6, 406784, Note_on_c, 6, 36, 98
6, 406848, Note_off_c, 6, 36, 0
6, 406912, Note_on_c, 6, 40, 112
6, 406912, Note_on_c, 6, 40, 106
6, 406976, Note_off_c, 6, 40, 0
6, 406976, Note_off_c, 6, 40, 0
6, 407040, Note_on_c, 6, 42, 117
6, 407040, Note_on_c, 6, 42, 111
6, 407104, Note_off_c, 6, 42, 0
6, 407104, Note_off_c, 6, 42, 0
6, 407168, Note_on_c, 6, 45, 118
6, 407168, Note_on_c, 6, 45, 117
6, 407232, Note_off_c, 6, 45, 0
6, 407232, Note_off_c, 6, 45, 0
6, 407296, Note_on_c, 6, 49, 116
6, 407296, Note_on_c, 6, 49, 122
6, 407360, Note_off_c, 6, 49, 0
6, 407360, Note_off_c, 6, 49, 0
6, 407424, Note_on_c, 6, 51, 121
6, 407424, Note_on_c, 6, 51, 118
6, 407488, Note_off_c, 6, 51, 0
6, 407488, Note_off_c, 6, 51, 0
6, 407552, Note_on_c, 6, 36, 98
6, 407616, Note_off_c, 6, 36, 0
6, 407680, Note_on_c, 6, 40, 114
6, 407680, Note_on_c, 6, 40, 102
6, 407744, Note_off_c, 6, 40, 0
6, 407744, Note_off_c, 6, 40, 0
6, 407808, Note_on_c, 6, 42, 113
6, 407808, Note_on_c, 6, 42, 113
6, 407872, Note_off_c, 6, 42, 0
6, 407872, Note_off_c, 6, 42, 0
6, 407936, Note_on_c, 6, 45, 119
6, 407936, Note_on_c, 6, 45, 116
6, 408000, Note_off_c, 6, 45, 0
6, 408000, Note_off_c, 6, 45, 0
6, 408064, Note_on_c, 6, 49, 120
6, 408064, Note_on_c, 6, 49, 120
6, 408128, Note_off_c, 6, 49, 0
6, 408128, Note_off_c, 6, 49, 0
6, 408192, Note_on_c, 6, 51, 114
6, 408192, Note_on_c, 6, 51, 114
6, 408256, Note_off_c, 6, 51, 0
6, 408256, Note_off_c, 6, 51, 0
6, 408320, Note_on_c, 6, 36, 97
6, 408384, Note_off_c, 6, 36, 0
6, 408448, Note_on_c, 6, 40, 111
6, 408448, Note_on_c, 6, 40, 99
6, 408512, Note_off_c, 6, 40, 0
6, 408512, Note_off_c, 6, 40, 0
6, 408576, Note_on_c, 6, 42, 120
6, 408576, Note_on_c, 6, 42, 113
6, 408640, Note_off_c, 6, 42, 0
6, 408640, Note_off_c, 6, 42, 0
6, 408704, Note_on_c, 6, 45, 116
6, 408704, Note_on_c, 6, 45, 124
6, 408768, Note_off_c, 6, 45, 0
6, 408768, Note_off_c, 6, 45, 0
6, 408832, Note_on_c, 6, 49, 118
6, 408832, Note_on_c, 6, 49, 119
6, 408896, Note_off_c, 6, 49, 0
6, 408896, Note_off_c, 6, 49, 0
6, 408960, Note_on_c, 6, 51, 119
6, 408960, Note_on_c, 6, 51, 113
6, 409024, Note_off_c, 6, 51, 0
6, 409024, Note_off_c, 6, 51, 0
6, 409088, Note_on_c, 6, 36, 97
6, 409152, Note_off_c, 6, 36, 0
6, 409216, Note_on_c, 6, 40, 117
6, 409216, Note_on_c, 6, 40, 104
6, 409280, Note_off_c, 6, 40, 0
6, 409280, Note_off_c, 6, 40, 0
6, 409344, Note_on_c, 6, 42, 120
6, 409344, Note_on_c, 6, 42, 115
6, 409408, Note_off_c, 6, 42, 0
6, 409408, Note_off_c, 6, 42, 0
6, 409472, Note_on_c, 6, 45, 116
6, 409472, Note_on_c, 6, 45, 117
6, 409536, Note_off_c, 6, 45, 0
6, 409536, Note_off_c, 6, 45, 0
6, 409600, Note_on_c, 6, 49, 122
6, 409600, Note_on_c, 6, 49, 117
6, 409664, Note_off_c, 6, 49, 0
6, 409664, Note_off_c, 6, 49, 0
6, 409728, Note_on_c, 6, 51, 119
6, 409728, Note_on_c, 6, 51, 120
6, 409792, Note_off_c, 6, 51, 0
6, 409792, Note_off_c, 6, 51, 0
6, 409984, Note_on_c, 6, 40, 102
6, 409984, Note_on_c, 6, 28, 104
6, 410048, Note_off_c, 6, 40, 0
6, 410048, Note_off_c, 6, 28, 0
6, 410112, Note_on_c, 6, 42, 115
6, 410112, Note_on_c, 6, 30, 115
6, 410176, Note_off_c, 6, 42, 0
6, 410176, Note_off_c, 6, 30, 0
6, 410240, Note_on_c, 6, 45, 119
6, 410240, Note_on_c, 6, 33, 117
6, 410304, Note_off_c, 6, 45, 0
6, 410304, Note_off_c, 6, 33, 0
6, 410368, Note_on_c, 6, 49, 117
6, 410368, Note_on_c, 6, 37, 112
6, 410432, Note_off_c, 6, 49, 0
6, 410432, Note_off_c, 6, 37, 0
6, 410496, Note_on_c, 6, 53, 120
6, 410496, Note_on_c, 6, 41, 125
6, 410560, Note_off_c, 6, 53, 0
6, 410560, Note_off_c, 6, 41, 0
6, 410624, Note_on_c, 6, 56, 117
6, 410624, Note_on_c, 6, 44, 117
6, 410688, Note_off_c, 6, 56, 0
6, 410688, Note_off_c, 6, 44, 0
6, 410880, Note_on_c, 6, 41, 101
6, 410880, Note_on_c, 6, 29, 101
6, 410944, Note_off_c, 6, 41, 0
6, 410944, Note_off_c, 6, 29, 0
6, 411008, Note_on_c, 6, 44, 114
6, 411008, Note_on_c, 6, 32, 115
6, 411072, Note_off_c, 6, 44, 0
6, 411072, Note_off_c, 6, 32, 0
6, 411136, Note_on_c, 6, 46, 115
6, 411136, Note_on_c, 6, 34, 119
6, 411200, Note_off_c, 6, 46, 0
6, 411200, Note_off_c, 6, 34, 0
6, 411264, Note_on_c, 6, 49, 114
6, 411264, Note_on_c, 6, 37, 119
6, 411328, Note_off_c, 6, 49, 0
6, 411328, Note_off_c, 6, 37, 0
6, 411392, Note_on_c, 6, 53, 119
6, 411392, Note_on_c, 6, 41, 120
6, 411456, Note_off_c, 6, 53, 0
6, 411456, Note_off_c, 6, 41, 0
6, 411520, Note_on_c, 6, 56, 121
6, 411520, Note_on_c, 6, 44, 116
6, 411584, Note_off_c, 6, 56, 0
6, 411584, Note_off_c, 6, 44, 0
6, 411776, Note_on_c, 6, 41, 99
6, 411776, Note_on_c, 6, 29, 102
6, 411840, Note_off_c, 6, 41, 0
6, 411840, Note_off_c, 6, 29, 0
6, 411904, Note_on_c, 6, 44, 111
6, 411904, Note_on_c, 6, 32, 115
6, 411968, Note_off_c, 6, 44, 0
6, 411968, Note_off_c, 6, 32, 0
6, 412032, Note_on_c, 6, 46, 116
6, 412032, Note_on_c, 6, 34, 118
6, 412096, Note_off_c, 6, 46, 0
6, 412096, Note_off_c, 6, 34, 0
6, 412160, Note_on_c, 6, 49, 119
6, 412160, Note_on_c, 6, 37, 119
6, 412224, Note_off_c, 6, 49, 0
6, 412224, Note_off_c, 6, 37, 0
6, 412288, Note_on_c, 6, 53, 117
6, 412288, Note_on_c, 6, 41, 121
6, 412352, Note_off_c, 6, 53, 0
6, 412352, Note_off_c, 6, 41, 0
6, 412416, Note_on_c, 6, 56, 118
6, 412480, Note_off_c, 6, 56, 0
6, 412544, Note_on_c, 6, 35, 103
6, 412608, Note_off_c, 6, 35, 0
6, 412672, Note_on_c, 6, 41, 102
6, 412672, Note_on_c, 6, 29, 97
6, 412736, Note_off_c, 6, 41, 0
6, 412736, Note_off_c, 6, 29, 0
6, 412800, Note_on_c, 6, 44, 115
6, 412800, Note_on_c, 6, 32, 110
6, 412864, Note_off_c, 6, 44, 0
6, 412864, Note_off_c, 6, 32, 0
6, 412928, Note_on_c, 6, 46, 118
6, 412928, Note_on_c, 6, 34, 118
6, 412992, Note_off_c, 6, 46, 0
6, 412992, Note_off_c, 6, 34, 0
6, 413056, Note_on_c, 6, 49, 115
6, 413056, Note_on_c, 6, 37, 115
6, 413120, Note_off_c, 6, 49, 0
6, 413120, Note_off_c, 6, 37, 0
6, 413184, Note_on_c, 6, 53, 119
6, 413184, Note_on_c, 6, 41, 117
6, 413248, Note_off_c, 6, 53, 0
6, 413248, Note_off_c, 6, 41, 0
6, 413312, Note_on_c, 6, 56, 119
6, 413312, Note_on_c, 6, 44, 115
6, 413376, Note_off_c, 6, 56, 0
6, 413376, Note_off_c, 6, 44, 0
6, 413440, Note_on_c, 6, 35, 100
6, 413504, Note_off_c, 6, 35, 0
6, 413568, Note_on_c, 6, 41, 115
6, 413568, Note_on_c, 6, 29, 101
6, 413632, Note_off_c, 6, 41, 0
6, 413632, Note_off_c, 6, 29, 0
6, 413696, Note_on_c, 6, 44, 118
6, 413696, Note_on_c, 6, 32, 116
6, 413760, Note_off_c, 6, 44, 0
6, 413760, Note_off_c, 6, 32, 0
6, 413824, Note_on_c, 6, 46, 117
6, 413824, Note_on_c, 6, 34, 111
6, 413888, Note_off_c, 6, 46, 0
6, 413888, Note_off_c, 6, 34, 0
6, 413952, Note_on_c, 6, 49, 115
6, 413952, Note_on_c, 6, 37, 116
6, 414016, Note_off_c, 6, 49, 0
6, 414016, Note_off_c, 6, 37, 0
6, 414080, Note_on_c, 6, 53, 118
6, 414080, Note_on_c, 6, 41, 117
6, 414144, Note_off_c, 6, 53, 0
6, 414144, Note_off_c, 6, 41, 0
6, 414208, Note_on_c, 6, 53, 114
6, 414208, Note_on_c, 6, 41, 114
6, 414272, Note_off_c, 6, 53, 0
6, 414272, Note_off_c, 6, 41, 0
6, 414336, Note_on_c, 6, 37, 97
6, 414400, Note_off_c, 6, 37, 0
6, 414464, Note_on_c, 6, 41, 121
6, 414464, Note_on_c, 6, 29, 102
6, 414528, Note_off_c, 6, 41, 0
6, 414528, Note_off_c, 6, 29, 0
6, 414592, Note_on_c, 6, 44, 113
6, 414592, Note_on_c, 6, 32, 116
6, 414656, Note_off_c, 6, 44, 0
6, 414656, Note_off_c, 6, 32, 0
6, 414720, Note_on_c, 6, 46, 119
6, 414720, Note_on_c, 6, 34, 119
6, 414784, Note_off_c, 6, 46, 0
6, 414784, Note_off_c, 6, 34, 0
6, 414848, Note_on_c, 6, 49, 119
6, 414848, Note_on_c, 6, 37, 117
6, 414912, Note_off_c, 6, 49, 0
6, 414912, Note_off_c, 6, 37, 0
6, 414976, Note_on_c, 6, 52, 120
6, 414976, Note_on_c, 6, 40, 117
6, 415040, Note_off_c, 6, 52, 0
6, 415040, Note_off_c, 6, 40, 0
6, 415104, Note_on_c, 6, 57, 121
6, 415104, Note_on_c, 6, 45, 120
6, 415168, Note_off_c, 6, 57, 0
6, 415168, Note_off_c, 6, 45, 0
6, 415232, Note_on_c, 6, 37, 96
6, 415232, Note_on_c, 6, 25, 104
6, 415296, Note_off_c, 6, 37, 0
6, 415296, Note_off_c, 6, 25, 0
6, 415360, Note_on_c, 6, 40, 110
6, 415360, Note_on_c, 6, 28, 113
6, 415424, Note_off_c, 6, 40, 0
6, 415424, Note_off_c, 6, 28, 0
6, 415488, Note_on_c, 6, 45, 121
6, 415488, Note_on_c, 6, 33, 119
6, 415552, Note_off_c, 6, 45, 0
6, 415552, Note_off_c, 6, 33, 0
6, 415616, Note_on_c, 6, 46, 116
6, 415616, Note_on_c, 6, 34, 116
6, 415680, Note_off_c, 6, 46, 0
6, 415680, Note_off_c, 6, 34, 0
6, 415744, Note_on_c, 6, 49, 114
6, 415744, Note_on_c, 6, 37, 117
6, 415808, Note_off_c, 6, 49, 0
6, 415808, Note_off_c, 6, 37, 0
6, 415872, Note_on_c, 6, 51, 116
6, 415872, Note_on_c, 6, 39, 118
6, 415936, Note_off_c, 6, 51, 0
6, 415936, Note_off_c, 6, 39, 0
6, 416000, Note_on_c, 6, 57, 126
6, 416000, Note_on_c, 6, 45, 118
6, 416064, Note_off_c, 6, 57, 0
6, 416064, Note_off_c, 6, 45, 0
6, 416128, Note_on_c, 6, 37, 102
6, 416192, Note_off_c, 6, 37, 0
6, 416256, Note_on_c, 6, 40, 115
6, 416256, Note_on_c, 6, 28, 105
6, 416320, Note_off_c, 6, 40, 0
6, 416320, Note_off_c, 6, 28, 0
6, 416384, Note_on_c, 6, 45, 117
6, 416384, Note_on_c, 6, 33, 122
6, 416448, Note_off_c, 6, 45, 0
6, 416448, Note_off_c, 6, 33, 0
6, 416512, Note_on_c, 6, 51, 118
6, 416512, Note_on_c, 6, 39, 126
6, 416576, Note_off_c, 6, 51, 0
6, 416576, Note_off_c, 6, 39, 0
6, 416640, Note_on_c, 6, 57, 122
6, 416640, Note_on_c, 6, 45, 124
6, 416704, Note_off_c, 6, 57, 0
6, 416704, Note_off_c, 6, 45, 0
6, 416768, Note_on_c, 6, 39, 101
6, 416768, Note_on_c, 6, 27, 101
6, 416832, Note_off_c, 6, 39, 0
6, 416832, Note_off_c, 6, 27, 0
6, 416896, Note_on_c, 6, 45, 124
6, 416896, Note_on_c, 6, 33, 123
6, 416960, Note_off_c, 6, 45, 0
6, 416960, Note_off_c, 6, 33, 0
6, 417024, Note_on_c, 6, 49, 125
6, 417024, Note_on_c, 6, 37, 119
6, 417088, Note_off_c, 6, 49, 0
6, 417088, Note_off_c, 6, 37, 0
6, 417152, Note_on_c, 6, 51, 121
6, 417152, Note_on_c, 6, 39, 119
6, 417216, Note_off_c, 6, 51, 0
6, 417216, Note_off_c, 6, 39, 0
6, 417280, Note_on_c, 6, 57, 122
6, 417280, Note_on_c, 6, 45, 119
6, 417344, Note_off_c, 6, 57, 0
6, 417344, Note_off_c, 6, 45, 0
6, 417408, Note_on_c, 6, 57, 118
6, 417408, Note_on_c, 6, 45, 113
6, 417472, Note_off_c, 6, 57, 0
6, 417472, Note_off_c, 6, 45, 0
6, 417536, Note_on_c, 6, 61, 125
6, 417600, Note_off_c, 6, 61, 0
6, 417664, Note_on_c, 6, 39, 104
6, 417664, Note_on_c, 6, 27, 100
6, 417728, Note_off_c, 6, 39, 0
6, 417728, Note_off_c, 6, 27, 0
6, 417792, Note_on_c, 6, 45, 119
6, 417792, Note_on_c, 6, 33, 117
6, 417856, Note_off_c, 6, 45, 0
6, 417856, Note_off_c, 6, 33, 0
6, 417920, Note_on_c, 6, 49, 125
6, 417920, Note_on_c, 6, 37, 123
6, 417984, Note_off_c, 6, 49, 0
6, 417984, Note_off_c, 6, 37, 0
6, 418048, Note_on_c, 6, 51, 113
6, 418048, Note_on_c, 6, 39, 116
6, 418112, Note_off_c, 6, 51, 0
6, 418112, Note_off_c, 6, 39, 0
6, 418176, Note_on_c, 6, 57, 125
6, 418176, Note_on_c, 6, 45, 115
6, 418240, Note_off_c, 6, 57, 0
6, 418240, Note_off_c, 6, 45, 0
6, 418304, Note_on_c, 6, 57, 111
6, 418304, Note_on_c, 6, 45, 112
6, 418368, Note_off_c, 6, 57, 0
6, 418368, Note_off_c, 6, 45, 0
6, 418432, Note_on_c, 6, 61, 124
6, 418432, Note_on_c, 6, 49, 124
6, 418496, Note_off_c, 6, 61, 0
6, 418496, Note_off_c, 6, 49, 0
6, 418560, Note_on_c, 6, 45, 99
6, 418560, Note_on_c, 6, 33, 99
6, 418624, Note_off_c, 6, 45, 0
6, 418624, Note_off_c, 6, 33, 0
6, 418688, Note_on_c, 6, 49, 114
6, 418688, Note_on_c, 6, 37, 118
6, 418752, Note_off_c, 6, 49, 0
6, 418752, Note_off_c, 6, 37, 0
6, 418816, Note_on_c, 6, 51, 119
6, 418816, Note_on_c, 6, 39, 120
6, 418880, Note_off_c, 6, 51, 0
6, 418880, Note_off_c, 6, 39, 0
6, 418944, Note_on_c, 6, 56, 117
6, 418944, Note_on_c, 6, 44, 120
6, 419008, Note_off_c, 6, 56, 0
6, 419008, Note_off_c, 6, 44, 0
6, 419072, Note_on_c, 6, 61, 127
6, 419072, Note_on_c, 6, 49, 116
6, 419136, Note_off_c, 6, 61, 0
6, 419136, Note_off_c, 6, 49, 0
6, 419328, Note_on_c, 6, 45, 103
6, 419328, Note_on_c, 6, 33, 102
6, 419392, Note_off_c, 6, 45, 0
6, 419392, Note_off_c, 6, 33, 0
6, 419456, Note_on_c, 6, 49, 119
6, 419456, Note_on_c, 6, 37, 116
6, 419520, Note_off_c, 6, 49, 0
6, 419520, Note_off_c, 6, 37, 0
6, 419584, Note_on_c, 6, 49, 112
6, 419584, Note_on_c, 6, 37, 114
6, 419648, Note_off_c, 6, 49, 0
6, 419648, Note_off_c, 6, 37, 0
6, 419712, Note_on_c, 6, 52, 115
6, 419712, Note_on_c, 6, 40, 113
6, 419776, Note_off_c, 6, 52, 0
6, 419776, Note_off_c, 6, 40, 0
6, 419840, Note_on_c, 6, 57, 122
6, 419840, Note_on_c, 6, 45, 119
6, 419904, Note_off_c, 6, 57, 0
6, 419904, Note_off_c, 6, 45, 0
6, 419968, Note_on_c, 6, 61, 127
6, 419968, Note_on_c, 6, 49, 122
6, 420032, Note_off_c, 6, 61, 0
6, 420032, Note_off_c, 6, 49, 0
6, 420096, Note_on_c, 6, 64, 127
6, 420096, Note_on_c, 6, 52, 117
6, 420160, Note_off_c, 6, 64, 0
6, 420160, Note_off_c, 6, 52, 0
6, 420352, Note_on_c, 6, 42, 99
6, 420352, Note_on_c, 6, 30, 102
6, 420416, Note_off_c, 6, 42, 0
6, 420416, Note_off_c, 6, 30, 0
6, 420480, Note_on_c, 6, 49, 120
6, 420480, Note_on_c, 6, 37, 122
6, 420544, Note_off_c, 6, 49, 0
6, 420544, Note_off_c, 6, 37, 0
6, 420608, Note_on_c, 6, 52, 118
6, 420608, Note_on_c, 6, 40, 120
6, 420672, Note_off_c, 6, 52, 0
6, 420672, Note_off_c, 6, 40, 0
6, 420736, Note_on_c, 6, 54, 117
6, 420736, Note_on_c, 6, 42, 119
6, 420800, Note_off_c, 6, 54, 0
6, 420800, Note_off_c, 6, 42, 0
6, 420864, Note_on_c, 6, 61, 127
6, 420864, Note_on_c, 6, 49, 124
6, 420928, Note_off_c, 6, 61, 0
6, 420928, Note_off_c, 6, 49, 0
6, 420992, Note_on_c, 6, 64, 124
6, 420992, Note_on_c, 6, 52, 119
6, 421056, Note_off_c, 6, 64, 0
6, 421056, Note_off_c, 6, 52, 0
6, 421120, Note_on_c, 6, 64, 114
6, 421184, Note_off_c, 6, 64, 0
6, 421248, Note_on_c, 6, 42, 99
6, 421248, Note_on_c, 6, 42, 98
6, 421312, Note_off_c, 6, 42, 0
6, 421312, Note_off_c, 6, 42, 0
6, 421376, Note_on_c, 6, 49, 120
6, 421376, Note_on_c, 6, 49, 124
6, 421440, Note_off_c, 6, 49, 0
6, 421440, Note_off_c, 6, 49, 0
6, 421504, Note_on_c, 6, 54, 119
6, 421504, Note_on_c, 6, 54, 119
6, 421568, Note_off_c, 6, 54, 0
6, 421568, Note_off_c, 6, 54, 0
6, 421632, Note_on_c, 6, 57, 118
6, 421696, Note_off_c, 6, 57, 0
6, 421760, Note_on_c, 6, 63, 127
6, 421824, Note_off_c, 6, 63, 0
6, 421888, Note_on_c, 6, 45, 104
6, 421888, Note_on_c, 6, 45, 102
6, 421952, Note_off_c, 6, 45, 0
6, 421952, Note_off_c, 6, 45, 0
6, 422016, Note_on_c, 6, 54, 115
6, 422016, Note_on_c, 6, 54, 124
6, 422080, Note_off_c, 6, 54, 0
6, 422080, Note_off_c, 6, 54, 0
6, 422144, Note_on_c, 6, 57, 121
6, 422208, Note_off_c, 6, 57, 0
6, 422272, Note_on_c, 6, 61, 126
6, 422336, Note_off_c, 6, 61, 0
6, 422400, Note_on_c, 6, 66, 127
6, 422464, Note_off_c, 6, 66, 0
6, 422528, Note_on_c, 6, 57, 100
6, 422592, Note_off_c, 6, 57, 0
6, 422656, Note_on_c, 6, 57, 115
6, 422720, Note_off_c, 6, 57, 0
6, 422784, Note_on_c, 6, 48, 99
6, 422784, Note_on_c, 6, 48, 102
6, 422848, Note_off_c, 6, 48, 0
6, 422848, Note_off_c, 6, 48, 0
6, 422912, Note_on_c, 6, 54, 120
6, 422912, Note_on_c, 6, 54, 119
6, 422976, Note_off_c, 6, 54, 0
6, 422976, Note_off_c, 6, 54, 0
6, 423040, Note_on_c, 6, 60, 127
6, 423104, Note_off_c, 6, 60, 0
6, 423168, Note_on_c, 6, 64, 127
6, 423232, Note_off_c, 6, 64, 0
6, 423296, Note_on_c, 6, 66, 122
6, 423360, Note_off_c, 6, 66, 0
6, 423552, Note_on_c, 6, 54, 104
6, 423616, Note_off_c, 6, 54, 0
6, 423680, Note_on_c, 6, 54, 112
6, 423744, Note_off_c, 6, 54, 0
6, 423808, Note_on_c, 6, 55, 117
6, 423872, Note_off_c, 6, 55, 0
6, 423936, Note_on_c, 6, 55, 112
6, 424000, Note_off_c, 6, 55, 0
6, 424064, Note_on_c, 6, 59, 120
6, 424128, Note_off_c, 6, 59, 0
6, 424192, Note_on_c, 6, 59, 116
6, 424256, Note_off_c, 6, 59, 0
6, 424320, Note_on_c, 6, 60, 126
6, 424384, Note_off_c, 6, 60, 0
6, 424448, Note_on_c, 6, 60, 121
6, 424512, Note_off_c, 6, 60, 0
6, 424576, Note_on_c, 6, 61, 127
6, 424640, Note_off_c, 6, 61, 0
6, 425856, Note_on_c, 6, 66, 101
6, 425856, Note_on_c, 6, 69, 101
6, 425920, Note_off_c, 6, 66, 0
6, 425920, Note_off_c, 6, 69, 0
6, 425984, Note_on_c, 6, 66, 127
6, 425984, Note_on_c, 6, 71, 127
6, 426240, Note_off_c, 6, 66, 0
6, 426240, Note_off_c, 6, 71, 0
6, 426624, Note_on_c, 6, 66, 101
6, 426624, Note_on_c, 6, 69, 101
6, 426688, Note_off_c, 6, 66, 0
6, 426688, Note_off_c, 6, 69, 0
6, 426752, Note_on_c, 6, 66, 127
6, 426752, Note_on_c, 6, 71, 127
6, 427008, Note_off_c, 6, 66, 0
6, 427008, Note_off_c, 6, 71, 0
6, 427392, Note_on_c, 6, 66, 103
6, 427392, Note_on_c, 6, 69, 103
6, 427456, Note_off_c, 6, 66, 0
6, 427456, Note_off_c, 6, 69, 0
6, 427520, Note_on_c, 6, 66, 127
6, 427520, Note_on_c, 6, 71, 127
6, 427776, Note_off_c, 6, 66, 0
6, 427776, Note_off_c, 6, 71, 0
6, 428160, Note_on_c, 6, 66, 102
6, 428160, Note_on_c, 6, 69, 102
6, 428224, Note_off_c, 6, 66, 0
6, 428224, Note_off_c, 6, 69, 0
6, 428288, Note_on_c, 6, 66, 127
6, 428288, Note_on_c, 6, 71, 127
6, 428544, Note_off_c, 6, 66, 0
6, 428544, Note_off_c, 6, 71, 0
6, 428928, Note_on_c, 6, 66, 101
6, 428928, Note_on_c, 6, 69, 101
6, 428992, Note_off_c, 6, 66, 0
6, 428992, Note_off_c, 6, 69, 0
6, 429056, Note_on_c, 6, 66, 127
6, 429056, Note_on_c, 6, 71, 127
6, 429312, Note_off_c, 6, 66, 0
6, 429312, Note_off_c, 6, 71, 0
6, 429440, Note_on_c, 6, 66, 100
6, 429440, Note_on_c, 6, 69, 100
6, 429504, Note_off_c, 6, 66, 0
6, 429504, Note_off_c, 6, 69, 0
6, 429568, Note_on_c, 6, 66, 127
6, 429568, Note_on_c, 6, 71, 127
6, 429824, Note_off_c, 6, 66, 0
6, 429824, Note_off_c, 6, 71, 0
6, 430208, Note_on_c, 6, 66, 100
6, 430208, Note_on_c, 6, 69, 100
6, 430272, Note_off_c, 6, 66, 0
6, 430272, Note_off_c, 6, 69, 0
6, 430336, Note_on_c, 6, 66, 127
6, 430336, Note_on_c, 6, 71, 127
6, 430592, Note_off_c, 6, 66, 0
6, 430592, Note_off_c, 6, 71, 0
6, 430848, Note_on_c, 6, 66, 103
6, 430848, Note_on_c, 6, 69, 103
6, 430912, Note_off_c, 6, 66, 0
6, 430912, Note_off_c, 6, 69, 0
6, 430976, Note_on_c, 6, 66, 127
6, 430976, Note_on_c, 6, 72, 127
6, 431232, Note_off_c, 6, 66, 0
6, 431232, Note_off_c, 6, 72, 0
6, 431616, Note_on_c, 6, 66, 106
6, 431616, Note_on_c, 6, 69, 106
6, 431680, Note_off_c, 6, 66, 0
6, 431680, Note_off_c, 6, 69, 0
6, 431744, Note_on_c, 6, 68, 127
6, 431744, Note_on_c, 6, 71, 127
6, 432000, Note_off_c, 6, 68, 0
6, 432000, Note_off_c, 6, 71, 0
6, 432384, Note_on_c, 6, 66, 105
6, 432384, Note_on_c, 6, 69, 105
6, 432448, Note_off_c, 6, 66, 0
6, 432448, Note_off_c, 6, 69, 0
6, 432512, Note_on_c, 6, 66, 126
6, 432512, Note_on_c, 6, 71, 126
6, 432768, Note_off_c, 6, 66, 0
6, 432768, Note_off_c, 6, 71, 0
6, 433152, Note_on_c, 6, 65, 103
6, 433152, Note_on_c, 6, 69, 103
6, 433216, Note_off_c, 6, 65, 0
6, 433216, Note_off_c, 6, 69, 0
6, 433280, Note_on_c, 6, 67, 127
6, 433280, Note_on_c, 6, 71, 127
6, 433536, Note_off_c, 6, 67, 0
6, 433536, Note_off_c, 6, 71, 0
6, 433792, Note_on_c, 6, 66, 103
6, 433792, Note_on_c, 6, 69, 103
6, 433856, Note_off_c, 6, 66, 0
6, 433856, Note_off_c, 6, 69, 0
6, 433920, Note_on_c, 6, 67, 127
6, 433920, Note_on_c, 6, 71, 127
6, 434176, Note_off_c, 6, 67, 0
6, 434176, Note_off_c, 6, 71, 0
6, 434304, Note_on_c, 6, 64, 97
6, 434304, Note_on_c, 6, 68, 97
6, 434368, Note_off_c, 6, 64, 0
6, 434368, Note_off_c, 6, 68, 0
6, 434432, Note_on_c, 6, 66, 123
6, 434432, Note_on_c, 6, 69, 123
6, 434688, Note_off_c, 6, 66, 0
6, 434688, Note_off_c, 6, 69, 0
6, 435072, Note_on_c, 6, 66, 103
6, 435072, Note_on_c, 6, 69, 103
6, 435136, Note_off_c, 6, 66, 0
6, 435136, Note_off_c, 6, 69, 0
6, 435200, Note_on_c, 6, 66, 127
6, 435200, Note_on_c, 6, 71, 127
6, 435456, Note_off_c, 6, 66, 0
6, 435456, Note_off_c, 6, 71, 0
6, 435712, Note_on_c, 6, 65, 104
6, 435712, Note_on_c, 6, 69, 104
6, 435776, Note_off_c, 6, 65, 0
6, 435776, Note_off_c, 6, 69, 0
6, 435840, Note_on_c, 6, 70, 127
6, 435840, Note_on_c, 6, 72, 127
6, 436096, Note_off_c, 6, 70, 0
6, 436096, Note_off_c, 6, 72, 0
6, 436480, Note_on_c, 6, 71, 103
6, 436480, Note_on_c, 6, 72, 103
6, 436544, Note_off_c, 6, 71, 0
6, 436544, Note_off_c, 6, 72, 0
6, 436608, Note_on_c, 6, 69, 127
6, 436608, Note_on_c, 6, 73, 127
6, 436864, Note_off_c, 6, 69, 0
6, 436864, Note_off_c, 6, 73, 0
6, 437120, Note_on_c, 6, 71, 103
6, 437120, Note_on_c, 6, 73, 103
6, 437184, Note_off_c, 6, 71, 0
6, 437184, Note_off_c, 6, 73, 0
6, 437248, Note_on_c, 6, 70, 127
6, 437248, Note_on_c, 6, 74, 127
6, 437504, Note_off_c, 6, 70, 0
6, 437504, Note_off_c, 6, 74, 0
6, 437760, Note_on_c, 6, 70, 103
6, 437824, Note_off_c, 6, 70, 0
6, 437888, Note_on_c, 6, 69, 117
6, 438144, Note_off_c, 6, 69, 0
6, 456448, Note_on_c, 6, 69, 101
6, 456704, Note_off_c, 6, 69, 0
6, 456704, Note_on_c, 6, 69, 109
6, 456960, Note_off_c, 6, 69, 0
6, 456960, Note_on_c, 6, 67, 104
6, 457216, Note_off_c, 6, 67, 0
6, 457216, Note_on_c, 6, 66, 108
6, 457344, Note_off_c, 6, 66, 0
6, 457344, Note_on_c, 6, 65, 105
6, 457600, Note_off_c, 6, 65, 0
6, 457600, Note_on_c, 6, 65, 111
6, 457728, Note_off_c, 6, 65, 0
6, 459520, Note_on_c, 6, 54, 102
6, 459648, Note_on_c, 6, 52, 94
6, 459650, Note_off_c, 6, 54, 0
6, 459776, Note_on_c, 6, 50, 106
6, 459778, Note_off_c, 6, 52, 0
6, 459904, Note_on_c, 6, 48, 102
6, 459906, Note_off_c, 6, 50, 0
6, 460032, Note_on_c, 6, 64, 102
6, 460032, Note_on_c, 6, 46, 112
6, 460034, Note_off_c, 6, 48, 0
6, 460160, Note_on_c, 6, 45, 111
6, 460162, Note_off_c, 6, 46, 0
6, 460288, Note_off_c, 6, 64, 0
6, 460288, Note_on_c, 6, 64, 110
6, 460288, Note_on_c, 6, 43, 114
6, 460290, Note_off_c, 6, 45, 0
6, 460416, Note_on_c, 6, 42, 110
6, 460418, Note_off_c, 6, 43, 0
6, 460544, Note_off_c, 6, 64, 0
6, 460544, Note_on_c, 6, 65, 119
6, 460544, Note_on_c, 6, 48, 122
6, 460546, Note_off_c, 6, 42, 0
6, 460672, Note_on_c, 6, 46, 118
6, 460674, Note_off_c, 6, 48, 0
6, 460800, Note_off_c, 6, 65, 0
6, 460800, Note_on_c, 6, 63, 110
6, 460800, Note_on_c, 6, 45, 111
6, 460802, Note_off_c, 6, 46, 0
6, 460928, Note_on_c, 6, 55, 126
6, 460930, Note_off_c, 6, 45, 0
6, 461056, Note_off_c, 6, 63, 0
6, 461056, Note_on_c, 6, 64, 121
6, 461056, Note_on_c, 6, 53, 116
6, 461058, Note_off_c, 6, 55, 0
6, 461184, Note_on_c, 6, 51, 117
6, 461186, Note_off_c, 6, 53, 0
6, 461312, Note_off_c, 6, 64, 0
6, 461312, Note_on_c, 6, 68, 123
6, 461312, Note_on_c, 6, 49, 111
6, 461314, Note_off_c, 6, 51, 0
6, 461440, Note_off_c, 6, 68, 0
6, 461440, Note_on_c, 6, 68, 115
6, 461440, Note_on_c, 6, 44, 99
6, 461442, Note_off_c, 6, 49, 0
6, 461568, Note_on_c, 6, 58, 124
6, 461570, Note_off_c, 6, 44, 0
6, 461696, Note_on_c, 6, 57, 124
6, 461698, Note_off_c, 6, 58, 0
6, 461824, Note_off_c, 6, 68, 0
6, 461824, Note_on_c, 6, 68, 110
6, 461824, Note_on_c, 6, 56, 110
6, 461826, Note_off_c, 6, 57, 0
6, 461952, Note_on_c, 6, 53, 105
6, 461954, Note_off_c, 6, 56, 0
6, 462080, Note_off_c, 6, 68, 0
6, 462080, Note_on_c, 6, 52, 113
6, 462082, Note_off_c, 6, 53, 0
6, 462208, Note_on_c, 6, 51, 109
6, 462210, Note_off_c, 6, 52, 0
6, 462336, Note_on_c, 6, 68, 105
6, 462336, Note_on_c, 6, 50, 112
6, 462338, Note_off_c, 6, 51, 0
6, 462457, Note_off_c, 6, 50, 0
6, 462592, Note_off_c, 6, 68, 0
6, 462592, Note_on_c, 6, 69, 120
6, 462592, Note_on_c, 6, 53, 100
6, 462720, Note_on_c, 6, 50, 96
6, 462722, Note_off_c, 6, 53, 0
6, 462848, Note_off_c, 6, 69, 0
6, 462976, Note_on_c, 6, 68, 102
6, 462976, Note_on_c, 6, 47, 111
6, 462981, Note_off_c, 6, 50, 0
6, 463104, Note_on_c, 6, 45, 105
6, 463106, Note_off_c, 6, 47, 0
6, 463232, Note_off_c, 6, 68, 0
6, 463232, Note_on_c, 6, 69, 113
6, 463232, Note_on_c, 6, 44, 110
6, 463234, Note_off_c, 6, 45, 0
6, 463360, Note_on_c, 6, 49, 117
6, 463362, Note_off_c, 6, 44, 0
6, 463488, Note_on_c, 6, 47, 113
6, 463490, Note_off_c, 6, 49, 0
6, 463616, Note_off_c, 6, 69, 0
6, 463616, Note_on_c, 6, 45, 112
6, 463618, Note_off_c, 6, 47, 0
6, 463744, Note_on_c, 6, 69, 98
6, 463744, Note_on_c, 6, 44, 116
6, 463746, Note_off_c, 6, 45, 0
6, 463872, Note_on_c, 6, 57, 127
6, 463874, Note_off_c, 6, 44, 0
6, 464000, Note_off_c, 6, 69, 0
6, 464000, Note_on_c, 6, 55, 110
6, 464002, Note_off_c, 6, 57, 0
6, 464128, Note_on_c, 6, 69, 103
6, 464128, Note_on_c, 6, 53, 107
6, 464130, Note_off_c, 6, 55, 0
6, 464256, Note_on_c, 6, 51, 113
6, 464258, Note_off_c, 6, 53, 0
6, 464384, Note_on_c, 6, 49, 107
6, 464386, Note_off_c, 6, 51, 0
6, 464512, Note_off_c, 6, 69, 0
6, 464512, Note_on_c, 6, 48, 112
6, 464514, Note_off_c, 6, 49, 0
6, 464640, Note_on_c, 6, 46, 105
6, 464642, Note_off_c, 6, 48, 0
6, 464768, Note_on_c, 6, 69, 99
6, 464768, Note_on_c, 6, 45, 108
6, 464770, Note_off_c, 6, 46, 0
6, 464896, Note_on_c, 6, 43, 103
6, 464898, Note_off_c, 6, 45, 0
6, 465024, Note_on_c, 6, 41, 109
6, 465026, Note_off_c, 6, 43, 0
6, 465152, Note_on_c, 6, 39, 102
6, 465154, Note_off_c, 6, 41, 0
6, 465280, Note_on_c, 6, 37, 112
6, 465282, Note_off_c, 6, 39, 0
6, 465401, Note_off_c, 6, 37, 0
6, 465536, Note_off_c, 6, 69, 0
6, 465536, Note_on_c, 6, 69, 112
6, 465536, Note_on_c, 6, 46, 99
6, 465664, Note_on_c, 6, 44, 91
6, 465666, Note_off_c, 6, 46, 0
6, 465792, Note_off_c, 6, 69, 0
6, 465792, Note_on_c, 6, 48, 116
6, 465794, Note_off_c, 6, 44, 0
6, 465920, Note_on_c, 6, 47, 117
6, 465922, Note_off_c, 6, 48, 0
6, 466048, Note_on_c, 6, 45, 109
6, 466050, Note_off_c, 6, 47, 0
6, 466176, Note_on_c, 6, 69, 99
6, 466176, Note_on_c, 6, 49, 115
6, 466178, Note_off_c, 6, 45, 0
6, 466304, Note_on_c, 6, 48, 115
6, 466306, Note_off_c, 6, 49, 0
6, 466432, Note_on_c, 6, 46, 115
6, 466434, Note_off_c, 6, 48, 0
6, 466560, Note_on_c, 6, 51, 120
6, 466562, Note_off_c, 6, 46, 0
6, 466688, Note_off_c, 6, 69, 0
6, 466688, Note_on_c, 6, 49, 118
6, 466690, Note_off_c, 6, 51, 0
6, 466816, Note_on_c, 6, 69, 105
6, 466816, Note_on_c, 6, 47, 110
6, 466818, Note_off_c, 6, 49, 0
6, 466944, Note_on_c, 6, 46, 109
6, 466946, Note_off_c, 6, 47, 0
6, 467072, Note_on_c, 6, 44, 109
6, 467074, Note_off_c, 6, 46, 0
6, 467200, Note_on_c, 6, 43, 107
6, 467202, Note_off_c, 6, 44, 0
6, 467328, Note_off_c, 6, 69, 0
6, 467328, Note_on_c, 6, 45, 115
6, 467330, Note_off_c, 6, 43, 0
6, 467456, Note_on_c, 6, 69, 102
6, 467456, Note_on_c, 6, 42, 113
6, 467458, Note_off_c, 6, 45, 0
6, 467584, Note_on_c, 6, 50, 121
6, 467586, Note_off_c, 6, 42, 0
6, 467712, Note_on_c, 6, 48, 120
6, 467714, Note_off_c, 6, 50, 0
6, 467840, Note_on_c, 6, 45, 105
6, 467842, Note_off_c, 6, 48, 0
6, 467968, Note_on_c, 6, 42, 102
6, 467970, Note_off_c, 6, 45, 0
6, 468096, Note_off_c, 6, 69, 0
6, 468096, Note_on_c, 6, 38, 108
6, 468098, Note_off_c, 6, 42, 0
6, 468156, Note_off_c, 6, 38, 0
6, 468157, End_track
7, 0, Start_track
7, 0, Program_c, 8, 60
7, 0, Control_c, 8, 121, 0
7, 0, Control_c, 8, 64, 0
7, 0, Control_c, 8, 91, 62
7, 0, Control_c, 8, 10, 46
7, 0, Control_c, 8, 7, 98
7, 0, Control_c, 8, 121, 0
7, 0, Control_c, 8, 64, 0
7, 0, Control_c, 8, 91, 62
7, 0, Control_c, 8, 10, 46
7, 0, Control_c, 8, 7, 98
7, 0, Control_c, 8, 121, 0
7, 0, Control_c, 8, 64, 0
7, 0, Control_c, 8, 91, 62
7, 0, Control_c, 8, 10, 46
7, 0, Control_c, 8, 7, 98
7, 0, Control_c, 8, 121, 0
7, 0, Control_c, 8, 64, 0
7, 0, Control_c, 8, 91, 62
7, 0, Control_c, 8, 10, 46
7, 0, Control_c, 8, 7, 98
7, 0, Title_t, "Horn in F"
7, 26368, Note_on_c, 8, 68, 67
7, 26496, Note_on_c, 8, 70, 75
7, 26500, Note_off_c, 8, 68, 0
7, 26560, Note_on_c, 8, 67, 62
7, 26562, Note_off_c, 8, 70, 0
7, 26683, Note_off_c, 8, 67, 0
7, 26688, Note_on_c, 8, 65, 65
7, 26816, Note_on_c, 8, 63, 61
7, 26818, Note_off_c, 8, 65, 0
7, 26880, Note_on_c, 8, 61, 65
7, 26881, Note_off_c, 8, 63, 0
7, 27008, Note_on_c, 8, 60, 59
7, 27010, Note_off_c, 8, 61, 0
7, 27072, Note_on_c, 8, 61, 75
7, 27073, Note_off_c, 8, 60, 0
7, 27136, Note_on_c, 8, 58, 68
7, 27137, Note_off_c, 8, 61, 0
7, 27200, Note_on_c, 8, 56, 68
7, 27201, Note_off_c, 8, 58, 0
7, 27328, Note_on_c, 8, 58, 71
7, 27330, Note_off_c, 8, 56, 0
7, 27392, Note_on_c, 8, 55, 66
7, 27393, Note_off_c, 8, 58, 0
7, 27520, Note_on_c, 8, 53, 61
7, 27522, Note_off_c, 8, 55, 0
7, 27702, Note_off_c, 8, 53, 0
7, 27712, Note_on_c, 8, 51, 68
7, 27776, Note_on_c, 8, 53, 70
7, 27777, Note_off_c, 8, 51, 0
7, 27840, Note_on_c, 8, 49, 67
7, 27841, Note_off_c, 8, 53, 0
7, 27968, Note_on_c, 8, 39, 60
7, 27970, Note_off_c, 8, 49, 0
7, 28150, Note_off_c, 8, 39, 0
7, 28288, Note_on_c, 8, 48, 66
7, 28352, Note_on_c, 8, 50, 67
7, 28353, Note_off_c, 8, 48, 0
7, 28416, Note_on_c, 8, 46, 66
7, 28417, Note_off_c, 8, 50, 0
7, 28480, Note_on_c, 8, 45, 64
7, 28481, Note_off_c, 8, 46, 0
7, 28608, Note_on_c, 8, 46, 70
7, 28610, Note_off_c, 8, 45, 0
7, 28672, Note_on_c, 8, 43, 68
7, 28673, Note_off_c, 8, 46, 0
7, 28800, Note_on_c, 8, 41, 69
7, 28802, Note_off_c, 8, 43, 0
7, 28992, Note_on_c, 8, 39, 71
7, 28995, Note_off_c, 8, 41, 0
7, 29056, Note_on_c, 8, 41, 75
7, 29057, Note_off_c, 8, 39, 0
7, 29120, Note_on_c, 8, 37, 67
7, 29121, Note_off_c, 8, 41, 0
7, 29312, Note_on_c, 8, 35, 72
7, 29315, Note_off_c, 8, 37, 0
7, 29433, Note_off_c, 8, 35, 0
7, 29568, Note_on_c, 8, 37, 64
7, 29696, Note_on_c, 8, 39, 65
7, 29698, Note_off_c, 8, 37, 0
7, 29781, Note_on_c, 8, 40, 69
7, 29782, Note_off_c, 8, 39, 0
7, 29866, Note_on_c, 8, 41, 73
7, 29867, Note_off_c, 8, 40, 0
7, 29952, Note_on_c, 8, 42, 72
7, 29953, Note_off_c, 8, 41, 0
7, 30032, Note_off_c, 8, 42, 0
7, 30037, Note_on_c, 8, 57, 77
7, 30208, Note_on_c, 8, 53, 75
7, 30211, Note_off_c, 8, 57, 0
7, 30531, Note_off_c, 8, 53, 0
7, 30549, Note_on_c, 8, 43, 60
7, 30634, Note_on_c, 8, 44, 61
7, 30635, Note_off_c, 8, 43, 0
7, 30720, Note_on_c, 8, 56, 77
7, 30721, Note_off_c, 8, 44, 0
7, 30805, Note_on_c, 8, 59, 83
7, 30806, Note_off_c, 8, 56, 0
7, 30976, Note_on_c, 8, 51, 66
7, 30979, Note_off_c, 8, 59, 0
7, 31219, Note_off_c, 8, 51, 0
7, 31232, Note_on_c, 8, 41, 61
7, 31424, Note_on_c, 8, 42, 64
7, 31427, Note_off_c, 8, 41, 0
7, 31606, Note_off_c, 8, 42, 0
7, 31616, Note_on_c, 8, 44, 73
7, 31808, Note_on_c, 8, 47, 76
7, 31811, Note_off_c, 8, 44, 0
7, 32000, Note_on_c, 8, 48, 74
7, 32003, Note_off_c, 8, 47, 0
7, 32128, Note_on_c, 8, 51, 79
7, 32130, Note_off_c, 8, 48, 0
7, 32256, Note_on_c, 8, 54, 76
7, 32258, Note_off_c, 8, 51, 0
7, 32384, Note_on_c, 8, 55, 78
7, 32386, Note_off_c, 8, 54, 0
7, 32512, Note_on_c, 8, 61, 85
7, 32514, Note_off_c, 8, 55, 0
7, 32704, Note_on_c, 8, 63, 92
7, 32707, Note_off_c, 8, 61, 0
7, 32832, Note_on_c, 8, 66, 79
7, 32834, Note_off_c, 8, 63, 0
7, 33136, Note_off_c, 8, 66, 0
7, 33344, Note_on_c, 8, 37, 66
7, 33408, Note_on_c, 8, 39, 65
7, 33409, Note_off_c, 8, 37, 0
7, 33529, Note_off_c, 8, 39, 0
7, 33536, Note_on_c, 8, 40, 73
7, 33600, Note_on_c, 8, 55, 84
7, 33601, Note_off_c, 8, 40, 0
7, 33728, Note_on_c, 8, 45, 66
7, 33730, Note_off_c, 8, 55, 0
7, 34032, Note_off_c, 8, 45, 0
7, 34048, Note_on_c, 8, 39, 65
7, 34112, Note_on_c, 8, 43, 69
7, 34113, Note_off_c, 8, 39, 0
7, 34233, Note_off_c, 8, 43, 0
7, 34240, Note_on_c, 8, 44, 77
7, 34304, Note_on_c, 8, 56, 90
7, 34305, Note_off_c, 8, 44, 0
7, 34432, Note_on_c, 8, 57, 73
7, 34434, Note_off_c, 8, 56, 0
7, 34796, Note_off_c, 8, 57, 0
7, 34816, Note_on_c, 8, 37, 58
7, 34880, Note_on_c, 8, 39, 59
7, 34881, Note_off_c, 8, 37, 0
7, 34944, Note_on_c, 8, 40, 75
7, 34945, Note_off_c, 8, 39, 0
7, 35008, Note_on_c, 8, 41, 77
7, 35009, Note_off_c, 8, 40, 0
7, 35136, Note_on_c, 8, 44, 74
7, 35138, Note_off_c, 8, 41, 0
7, 35200, Note_on_c, 8, 37, 67
7, 35201, Note_off_c, 8, 44, 0
7, 35264, Note_on_c, 8, 49, 77
7, 35265, Note_off_c, 8, 37, 0
7, 35385, Note_off_c, 8, 49, 0
7, 35392, Note_on_c, 8, 51, 77
7, 35520, Note_on_c, 8, 52, 80
7, 35522, Note_off_c, 8, 51, 0
7, 35648, Note_on_c, 8, 53, 74
7, 35650, Note_off_c, 8, 52, 0
7, 35776, Note_on_c, 8, 44, 62
7, 35778, Note_off_c, 8, 53, 0
7, 35836, Note_off_c, 8, 44, 0
7, 35840, Note_on_c, 8, 56, 82
7, 36032, Note_on_c, 8, 57, 80
7, 36035, Note_off_c, 8, 56, 0
7, 36288, Note_on_c, 8, 58, 83
7, 36293, Note_off_c, 8, 57, 0
7, 36544, Note_on_c, 8, 59, 84
7, 36549, Note_off_c, 8, 58, 0
7, 36800, Note_on_c, 8, 61, 91
7, 36805, Note_off_c, 8, 59, 0
7, 36992, Note_on_c, 8, 65, 91
7, 36995, Note_off_c, 8, 61, 0
7, 37184, Note_on_c, 8, 67, 84
7, 37187, Note_off_c, 8, 65, 0
7, 37376, Note_on_c, 8, 69, 85
7, 37379, Note_off_c, 8, 67, 0
7, 37760, Note_on_c, 8, 70, 74
7, 37774, Note_off_c, 8, 69, 0
7, 37874, Note_off_c, 8, 70, 0
7, 55616, Note_on_c, 8, 53, 41
7, 55616, Note_on_c, 8, 61, 41
7, 55616, Note_on_c, 8, 65, 41
7, 55616, Note_on_c, 8, 68, 41
7, 55744, Note_off_c, 8, 53, 0
7, 55744, Note_off_c, 8, 61, 0
7, 55744, Note_off_c, 8, 65, 0
7, 55744, Note_off_c, 8, 68, 0
7, 55872, Note_on_c, 8, 53, 38
7, 55872, Note_on_c, 8, 61, 38
7, 55872, Note_on_c, 8, 65, 38
7, 55872, Note_on_c, 8, 68, 38
7, 56000, Note_off_c, 8, 53, 0
7, 56000, Note_off_c, 8, 61, 0
7, 56000, Note_off_c, 8, 65, 0
7, 56000, Note_off_c, 8, 68, 0
7, 56128, Note_on_c, 8, 53, 39
7, 56128, Note_on_c, 8, 61, 39
7, 56128, Note_on_c, 8, 65, 39
7, 56128, Note_on_c, 8, 68, 39
7, 56256, Note_off_c, 8, 53, 0
7, 56256, Note_off_c, 8, 61, 0
7, 56256, Note_off_c, 8, 65, 0
7, 56256, Note_off_c, 8, 68, 0
7, 56384, Note_on_c, 8, 53, 38
7, 56384, Note_on_c, 8, 61, 38
7, 56384, Note_on_c, 8, 65, 38
7, 56384, Note_on_c, 8, 68, 38
7, 56512, Note_off_c, 8, 53, 0
7, 56512, Note_off_c, 8, 61, 0
7, 56512, Note_off_c, 8, 65, 0
7, 56512, Note_off_c, 8, 68, 0
7, 56640, Note_on_c, 8, 53, 41
7, 56640, Note_on_c, 8, 61, 41
7, 56640, Note_on_c, 8, 65, 41
7, 56640, Note_on_c, 8, 68, 41
7, 56768, Note_off_c, 8, 53, 0
7, 56768, Note_off_c, 8, 61, 0
7, 56768, Note_off_c, 8, 65, 0
7, 56768, Note_off_c, 8, 68, 0
7, 56896, Note_on_c, 8, 53, 41
7, 56896, Note_on_c, 8, 61, 41
7, 56896, Note_on_c, 8, 65, 41
7, 56896, Note_on_c, 8, 68, 41
7, 57024, Note_off_c, 8, 53, 0
7, 57024, Note_off_c, 8, 61, 0
7, 57024, Note_off_c, 8, 65, 0
7, 57024, Note_off_c, 8, 68, 0
7, 57024, Note_on_c, 8, 53, 40
7, 57024, Note_on_c, 8, 61, 40
7, 57024, Note_on_c, 8, 66, 40
7, 57024, Note_on_c, 8, 69, 40
7, 57152, Note_off_c, 8, 53, 0
7, 57152, Note_off_c, 8, 61, 0
7, 57152, Note_off_c, 8, 66, 0
7, 57152, Note_off_c, 8, 69, 0
7, 57280, Note_on_c, 8, 53, 42
7, 57280, Note_on_c, 8, 61, 42
7, 57280, Note_on_c, 8, 66, 42
7, 57280, Note_on_c, 8, 69, 42
7, 57408, Note_off_c, 8, 53, 0
7, 57408, Note_off_c, 8, 61, 0
7, 57408, Note_off_c, 8, 66, 0
7, 57408, Note_off_c, 8, 69, 0
7, 57536, Note_on_c, 8, 53, 37
7, 57536, Note_on_c, 8, 61, 37
7, 57536, Note_on_c, 8, 66, 37
7, 57536, Note_on_c, 8, 69, 37
7, 57664, Note_off_c, 8, 53, 0
7, 57664, Note_off_c, 8, 61, 0
7, 57664, Note_off_c, 8, 66, 0
7, 57664, Note_off_c, 8, 69, 0
7, 57664, Note_on_c, 8, 53, 44
7, 57664, Note_on_c, 8, 61, 44
7, 57664, Note_on_c, 8, 65, 44
7, 57664, Note_on_c, 8, 68, 44
7, 57792, Note_off_c, 8, 53, 0
7, 57792, Note_off_c, 8, 61, 0
7, 57792, Note_off_c, 8, 65, 0
7, 57792, Note_off_c, 8, 68, 0
7, 57920, Note_on_c, 8, 53, 39
7, 57920, Note_on_c, 8, 61, 39
7, 57920, Note_on_c, 8, 65, 39
7, 57920, Note_on_c, 8, 68, 39
7, 58048, Note_off_c, 8, 53, 0
7, 58048, Note_off_c, 8, 61, 0
7, 58048, Note_off_c, 8, 65, 0
7, 58048, Note_off_c, 8, 68, 0
7, 58176, Note_on_c, 8, 53, 42
7, 58176, Note_on_c, 8, 61, 42
7, 58176, Note_on_c, 8, 65, 42
7, 58176, Note_on_c, 8, 68, 42
7, 58304, Note_off_c, 8, 53, 0
7, 58304, Note_off_c, 8, 61, 0
7, 58304, Note_off_c, 8, 65, 0
7, 58304, Note_off_c, 8, 68, 0
7, 58432, Note_on_c, 8, 53, 38
7, 58432, Note_on_c, 8, 61, 38
7, 58432, Note_on_c, 8, 65, 38
7, 58432, Note_on_c, 8, 68, 38
7, 58560, Note_off_c, 8, 53, 0
7, 58560, Note_off_c, 8, 61, 0
7, 58560, Note_off_c, 8, 65, 0
7, 58560, Note_off_c, 8, 68, 0
7, 58560, Note_on_c, 8, 53, 42
7, 58560, Note_on_c, 8, 62, 42
7, 58560, Note_on_c, 8, 66, 42
7, 58560, Note_on_c, 8, 69, 42
7, 58688, Note_off_c, 8, 53, 0
7, 58688, Note_off_c, 8, 62, 0
7, 58688, Note_off_c, 8, 66, 0
7, 58688, Note_off_c, 8, 69, 0
7, 58816, Note_on_c, 8, 53, 42
7, 58816, Note_on_c, 8, 62, 42
7, 58816, Note_on_c, 8, 66, 42
7, 58816, Note_on_c, 8, 69, 42
7, 58944, Note_off_c, 8, 53, 0
7, 58944, Note_off_c, 8, 62, 0
7, 58944, Note_off_c, 8, 66, 0
7, 58944, Note_off_c, 8, 69, 0
7, 59072, Note_on_c, 8, 53, 37
7, 59072, Note_on_c, 8, 62, 37
7, 59072, Note_on_c, 8, 66, 37
7, 59072, Note_on_c, 8, 69, 37
7, 59200, Note_off_c, 8, 53, 0
7, 59200, Note_off_c, 8, 62, 0
7, 59200, Note_off_c, 8, 66, 0
7, 59200, Note_off_c, 8, 69, 0
7, 59200, Note_on_c, 8, 53, 39
7, 59200, Note_on_c, 8, 61, 39
7, 59200, Note_on_c, 8, 65, 39
7, 59200, Note_on_c, 8, 68, 39
7, 59328, Note_off_c, 8, 53, 0
7, 59328, Note_off_c, 8, 61, 0
7, 59328, Note_off_c, 8, 65, 0
7, 59328, Note_off_c, 8, 68, 0
7, 59456, Note_on_c, 8, 53, 34
7, 59456, Note_on_c, 8, 61, 34
7, 59456, Note_on_c, 8, 65, 34
7, 59456, Note_on_c, 8, 68, 34
7, 59584, Note_off_c, 8, 53, 0
7, 59584, Note_off_c, 8, 61, 0
7, 59584, Note_off_c, 8, 65, 0
7, 59584, Note_off_c, 8, 68, 0
7, 59712, Note_on_c, 8, 53, 40
7, 59712, Note_on_c, 8, 61, 40
7, 59712, Note_on_c, 8, 65, 40
7, 59712, Note_on_c, 8, 68, 40
7, 59840, Note_off_c, 8, 53, 0
7, 59840, Note_off_c, 8, 61, 0
7, 59840, Note_off_c, 8, 65, 0
7, 59840, Note_off_c, 8, 68, 0
7, 59968, Note_on_c, 8, 57, 38
7, 59968, Note_on_c, 8, 65, 38
7, 59968, Note_on_c, 8, 69, 38
7, 59968, Note_on_c, 8, 72, 38
7, 60096, Note_off_c, 8, 57, 0
7, 60096, Note_off_c, 8, 65, 0
7, 60096, Note_off_c, 8, 69, 0
7, 60096, Note_off_c, 8, 72, 0
7, 60224, Note_on_c, 8, 57, 38
7, 60224, Note_on_c, 8, 65, 38
7, 60224, Note_on_c, 8, 69, 38
7, 60224, Note_on_c, 8, 72, 38
7, 60352, Note_off_c, 8, 57, 0
7, 60352, Note_off_c, 8, 65, 0
7, 60352, Note_off_c, 8, 69, 0
7, 60352, Note_off_c, 8, 72, 0
7, 60480, Note_on_c, 8, 57, 39
7, 60480, Note_on_c, 8, 65, 39
7, 60480, Note_on_c, 8, 69, 39
7, 60480, Note_on_c, 8, 72, 39
7, 60608, Note_off_c, 8, 57, 0
7, 60608, Note_off_c, 8, 65, 0
7, 60608, Note_off_c, 8, 69, 0
7, 60608, Note_off_c, 8, 72, 0
7, 60736, Note_on_c, 8, 57, 35
7, 60736, Note_on_c, 8, 65, 35
7, 60736, Note_on_c, 8, 69, 35
7, 60736, Note_on_c, 8, 72, 35
7, 60864, Note_off_c, 8, 57, 0
7, 60864, Note_off_c, 8, 65, 0
7, 60864, Note_off_c, 8, 69, 0
7, 60864, Note_off_c, 8, 72, 0
7, 60992, Note_on_c, 8, 57, 41
7, 60992, Note_on_c, 8, 65, 41
7, 60992, Note_on_c, 8, 69, 41
7, 60992, Note_on_c, 8, 72, 41
7, 61120, Note_off_c, 8, 57, 0
7, 61120, Note_off_c, 8, 65, 0
7, 61120, Note_off_c, 8, 69, 0
7, 61120, Note_off_c, 8, 72, 0
7, 61120, Note_on_c, 8, 58, 39
7, 61120, Note_on_c, 8, 65, 39
7, 61120, Note_on_c, 8, 69, 39
7, 61120, Note_on_c, 8, 72, 39
7, 61248, Note_off_c, 8, 58, 0
7, 61248, Note_off_c, 8, 65, 0
7, 61248, Note_off_c, 8, 69, 0
7, 61248, Note_off_c, 8, 72, 0
7, 61376, Note_on_c, 8, 58, 38
7, 61376, Note_on_c, 8, 65, 38
7, 61376, Note_on_c, 8, 69, 38
7, 61376, Note_on_c, 8, 72, 38
7, 61504, Note_off_c, 8, 58, 0
7, 61504, Note_off_c, 8, 65, 0
7, 61504, Note_off_c, 8, 69, 0
7, 61504, Note_off_c, 8, 72, 0
7, 61632, Note_on_c, 8, 58, 43
7, 61632, Note_on_c, 8, 65, 43
7, 61632, Note_on_c, 8, 68, 43
7, 61632, Note_on_c, 8, 73, 43
7, 61760, Note_off_c, 8, 58, 0
7, 61760, Note_off_c, 8, 65, 0
7, 61760, Note_off_c, 8, 68, 0
7, 61760, Note_off_c, 8, 73, 0
7, 61888, Note_on_c, 8, 58, 39
7, 61888, Note_on_c, 8, 65, 39
7, 61888, Note_on_c, 8, 68, 39
7, 61888, Note_on_c, 8, 73, 39
7, 62016, Note_off_c, 8, 58, 0
7, 62016, Note_off_c, 8, 65, 0
7, 62016, Note_off_c, 8, 68, 0
7, 62016, Note_off_c, 8, 73, 0
7, 62144, Note_on_c, 8, 58, 39
7, 62144, Note_on_c, 8, 65, 39
7, 62144, Note_on_c, 8, 68, 39
7, 62144, Note_on_c, 8, 73, 39
7, 62272, Note_off_c, 8, 58, 0
7, 62272, Note_off_c, 8, 65, 0
7, 62272, Note_off_c, 8, 68, 0
7, 62272, Note_off_c, 8, 73, 0
7, 62400, Note_on_c, 8, 58, 37
7, 62400, Note_on_c, 8, 65, 37
7, 62400, Note_on_c, 8, 68, 37
7, 62400, Note_on_c, 8, 73, 37
7, 62528, Note_off_c, 8, 58, 0
7, 62528, Note_off_c, 8, 65, 0
7, 62528, Note_off_c, 8, 68, 0
7, 62528, Note_off_c, 8, 73, 0
7, 62528, Note_on_c, 8, 57, 55
7, 62656, Note_off_c, 8, 57, 0
7, 62784, Note_on_c, 8, 57, 52
7, 62912, Note_off_c, 8, 57, 0
7, 63040, Note_on_c, 8, 57, 53
7, 63168, Note_off_c, 8, 57, 0
7, 63296, Note_on_c, 8, 57, 59
7, 63424, Note_off_c, 8, 57, 0
7, 63552, Note_on_c, 8, 57, 55
7, 63680, Note_off_c, 8, 57, 0
7, 63680, Note_on_c, 8, 57, 60
7, 63808, Note_off_c, 8, 57, 0
7, 63936, Note_on_c, 8, 57, 53
7, 64064, Note_off_c, 8, 57, 0
7, 64192, Note_on_c, 8, 57, 53
7, 64320, Note_off_c, 8, 57, 0
7, 64448, Note_on_c, 8, 57, 55
7, 64576, Note_off_c, 8, 57, 0
7, 64704, Note_on_c, 8, 56, 53
7, 64832, Note_off_c, 8, 56, 0
7, 64960, Note_on_c, 8, 56, 57
7, 65280, Note_off_c, 8, 56, 0
7, 65280, Note_on_c, 8, 56, 90
7, 65856, Note_off_c, 8, 56, 0
7, 65984, Note_on_c, 8, 56, 67
7, 66304, Note_off_c, 8, 56, 0
7, 66304, Note_on_c, 8, 56, 94
7, 66560, Note_off_c, 8, 56, 0
7, 66560, Note_on_c, 8, 56, 62
7, 66880, Note_off_c, 8, 56, 0
7, 67008, Note_on_c, 8, 56, 56
7, 67264, Note_off_c, 8, 56, 0
7, 67264, Note_on_c, 8, 60, 69
7, 68096, Note_off_c, 8, 60, 0
7, 68096, Note_on_c, 8, 60, 85
7, 68736, Note_off_c, 8, 60, 0
7, 68736, Note_on_c, 8, 60, 66
7, 69120, Note_off_c, 8, 60, 0
7, 69120, Note_on_c, 8, 60, 91
7, 69632, Note_off_c, 8, 60, 0
7, 69632, Note_on_c, 8, 60, 41
7, 69888, Note_off_c, 8, 60, 0
7, 74816, Note_on_c, 8, 70, 127
7, 74880, Note_off_c, 8, 70, 0
7, 75008, Note_on_c, 8, 70, 127
7, 75072, Note_off_c, 8, 70, 0
7, 75200, Note_on_c, 8, 71, 127
7, 75264, Note_off_c, 8, 71, 0
7, 75328, Note_on_c, 8, 70, 127
7, 75392, Note_off_c, 8, 70, 0
7, 75520, Note_on_c, 8, 71, 127
7, 75584, Note_off_c, 8, 71, 0
7, 75648, Note_on_c, 8, 70, 127
7, 75712, Note_off_c, 8, 70, 0
7, 75776, Note_on_c, 8, 71, 127
7, 75840, Note_off_c, 8, 71, 0
7, 75904, Note_on_c, 8, 70, 127
7, 75968, Note_off_c, 8, 70, 0
7, 76032, Note_on_c, 8, 71, 127
7, 76096, Note_off_c, 8, 71, 0
7, 76160, Note_on_c, 8, 70, 52
7, 76224, Note_off_c, 8, 70, 0
7, 76288, Note_on_c, 8, 71, 48
7, 76352, Note_off_c, 8, 71, 0
7, 76416, Note_on_c, 8, 75, 48
7, 76480, Note_off_c, 8, 75, 0
7, 80768, Note_on_c, 8, 45, 81
7, 80768, Note_on_c, 8, 52, 81
7, 80768, Note_on_c, 8, 61, 81
7, 80768, Note_on_c, 8, 65, 81
7, 80768, Note_on_c, 8, 68, 81
7, 80768, Note_on_c, 8, 72, 81
7, 80960, Note_off_c, 8, 45, 0
7, 80960, Note_off_c, 8, 52, 0
7, 80960, Note_off_c, 8, 61, 0
7, 80960, Note_off_c, 8, 72, 0
7, 80960, Note_on_c, 8, 45, 99
7, 80960, Note_on_c, 8, 52, 99
7, 80960, Note_on_c, 8, 61, 99
7, 80960, Note_on_c, 8, 72, 99
7, 81216, Note_off_c, 8, 45, 0
7, 81216, Note_off_c, 8, 61, 0
7, 81216, Note_off_c, 8, 72, 0
7, 81216, Note_on_c, 8, 38, 86
7, 81216, Note_on_c, 8, 45, 86
7, 81216, Note_on_c, 8, 61, 86
7, 81216, Note_on_c, 8, 72, 86
7, 81221, Note_off_c, 8, 52, 0
7, 81520, Note_off_c, 8, 38, 0
7, 81520, Note_off_c, 8, 45, 0
7, 81520, Note_off_c, 8, 61, 0
7, 81520, Note_off_c, 8, 72, 0
7, 81536, Note_on_c, 8, 31, 72
7, 81536, Note_on_c, 8, 38, 72
7, 81536, Note_on_c, 8, 61, 72
7, 81536, Note_on_c, 8, 65, 72
7, 81536, Note_on_c, 8, 68, 72
7, 81536, Note_on_c, 8, 71, 72
7, 81551, Note_off_c, 8, 65, 0
7, 81551, Note_off_c, 8, 68, 0
7, 81920, Note_off_c, 8, 31, 0
7, 81920, Note_off_c, 8, 38, 0
7, 81920, Note_off_c, 8, 61, 0
7, 81920, Note_off_c, 8, 65, 0
7, 81920, Note_off_c, 8, 68, 0
7, 81920, Note_off_c, 8, 71, 0
7, 81920, Note_on_c, 8, 31, 98
7, 81920, Note_on_c, 8, 38, 98
7, 81920, Note_on_c, 8, 61, 98
7, 81920, Note_on_c, 8, 65, 98
7, 81920, Note_on_c, 8, 68, 98
7, 81920, Note_on_c, 8, 71, 98
7, 82176, Note_off_c, 8, 31, 0
7, 82176, Note_off_c, 8, 38, 0
7, 82176, Note_off_c, 8, 61, 0
7, 82176, Note_off_c, 8, 65, 0
7, 82176, Note_off_c, 8, 68, 0
7, 82176, Note_off_c, 8, 71, 0
7, 82176, Note_on_c, 8, 31, 117
7, 82176, Note_on_c, 8, 38, 117
7, 82176, Note_on_c, 8, 61, 117
7, 82176, Note_on_c, 8, 65, 117
7, 82176, Note_on_c, 8, 68, 117
7, 82176, Note_on_c, 8, 71, 117
7, 82624, Note_off_c, 8, 31, 0
7, 82624, Note_off_c, 8, 38, 0
7, 82624, Note_off_c, 8, 61, 0
7, 82624, Note_off_c, 8, 65, 0
7, 82624, Note_off_c, 8, 68, 0
7, 82624, Note_off_c, 8, 71, 0
7, 82624, Note_on_c, 8, 31, 86
7, 82624, Note_on_c, 8, 38, 86
7, 82624, Note_on_c, 8, 61, 86
7, 82624, Note_on_c, 8, 65, 86
7, 82624, Note_on_c, 8, 68, 86
7, 82624, Note_on_c, 8, 71, 86
7, 82944, Note_off_c, 8, 31, 0
7, 82944, Note_off_c, 8, 38, 0
7, 82944, Note_off_c, 8, 61, 0
7, 82944, Note_off_c, 8, 65, 0
7, 82944, Note_off_c, 8, 68, 0
7, 82944, Note_off_c, 8, 71, 0
7, 82944, Note_on_c, 8, 36, 72
7, 82944, Note_on_c, 8, 43, 72
7, 82944, Note_on_c, 8, 52, 72
7, 82944, Note_on_c, 8, 61, 72
7, 82944, Note_on_c, 8, 65, 72
7, 82944, Note_on_c, 8, 68, 72
7, 82944, Note_on_c, 8, 71, 72
7, 83584, Note_off_c, 8, 36, 0
7, 83584, Note_off_c, 8, 43, 0
7, 83584, Note_off_c, 8, 65, 0
7, 83584, Note_off_c, 8, 68, 0
7, 83584, Note_off_c, 8, 71, 0
7, 83584, Note_on_c, 8, 36, 96
7, 83584, Note_on_c, 8, 43, 96
7, 83584, Note_on_c, 8, 65, 96
7, 83584, Note_on_c, 8, 68, 96
7, 83584, Note_on_c, 8, 71, 96
7, 83968, Note_off_c, 8, 52, 0
7, 83968, Note_off_c, 8, 61, 0
7, 83968, Note_off_c, 8, 36, 0
7, 83968, Note_off_c, 8, 43, 0
7, 83968, Note_off_c, 8, 65, 0
7, 83968, Note_off_c, 8, 68, 0
7, 83968, Note_off_c, 8, 71, 0
7, 84224, Note_on_c, 8, 36, 127
7, 84224, Note_on_c, 8, 48, 127
7, 84224, Note_on_c, 8, 58, 127
7, 84224, Note_on_c, 8, 61, 127
7, 84224, Note_on_c, 8, 65, 127
7, 84224, Note_on_c, 8, 68, 127
7, 84224, Note_on_c, 8, 71, 127
7, 84288, Note_off_c, 8, 36, 0
7, 84288, Note_off_c, 8, 48, 0
7, 84288, Note_off_c, 8, 58, 0
7, 84288, Note_off_c, 8, 61, 0
7, 84288, Note_off_c, 8, 65, 0
7, 84288, Note_off_c, 8, 68, 0
7, 84288, Note_off_c, 8, 71, 0
7, 84672, Note_on_c, 8, 36, 127
7, 84672, Note_on_c, 8, 48, 127
7, 84672, Note_on_c, 8, 58, 127
7, 84672, Note_on_c, 8, 61, 127
7, 84672, Note_on_c, 8, 65, 127
7, 84672, Note_on_c, 8, 68, 127
7, 84672, Note_on_c, 8, 71, 127
7, 84736, Note_off_c, 8, 36, 0
7, 84736, Note_off_c, 8, 48, 0
7, 84736, Note_off_c, 8, 58, 0
7, 84736, Note_off_c, 8, 61, 0
7, 84736, Note_off_c, 8, 65, 0
7, 84736, Note_off_c, 8, 68, 0
7, 84736, Note_off_c, 8, 71, 0
7, 85312, Note_on_c, 8, 36, 127
7, 85312, Note_on_c, 8, 48, 127
7, 85312, Note_on_c, 8, 58, 127
7, 85312, Note_on_c, 8, 61, 127
7, 85312, Note_on_c, 8, 65, 127
7, 85312, Note_on_c, 8, 68, 127
7, 85312, Note_on_c, 8, 71, 127
7, 85376, Note_off_c, 8, 36, 0
7, 85376, Note_off_c, 8, 48, 0
7, 85376, Note_off_c, 8, 58, 0
7, 85376, Note_off_c, 8, 61, 0
7, 85376, Note_off_c, 8, 65, 0
7, 85376, Note_off_c, 8, 68, 0
7, 85376, Note_off_c, 8, 71, 0
7, 85568, Note_on_c, 8, 48, 76
7, 85568, Note_on_c, 8, 58, 76
7, 85568, Note_on_c, 8, 62, 76
7, 85568, Note_on_c, 8, 66, 76
7, 85568, Note_on_c, 8, 69, 76
7, 85568, Note_on_c, 8, 72, 76
7, 86528, Note_off_c, 8, 48, 0
7, 86528, Note_off_c, 8, 58, 0
7, 86528, Note_off_c, 8, 62, 0
7, 86528, Note_off_c, 8, 66, 0
7, 86528, Note_off_c, 8, 69, 0
7, 86528, Note_off_c, 8, 72, 0
7, 86656, Note_on_c, 8, 36, 127
7, 86656, Note_on_c, 8, 48, 127
7, 86656, Note_on_c, 8, 58, 127
7, 86656, Note_on_c, 8, 61, 127
7, 86656, Note_on_c, 8, 65, 127
7, 86656, Note_on_c, 8, 68, 127
7, 86656, Note_on_c, 8, 71, 127
7, 86720, Note_off_c, 8, 36, 0
7, 86720, Note_off_c, 8, 48, 0
7, 86720, Note_off_c, 8, 58, 0
7, 86720, Note_off_c, 8, 61, 0
7, 86720, Note_off_c, 8, 65, 0
7, 86720, Note_off_c, 8, 68, 0
7, 86720, Note_off_c, 8, 71, 0
7, 87104, Note_on_c, 8, 36, 127
7, 87104, Note_on_c, 8, 48, 127
7, 87104, Note_on_c, 8, 58, 127
7, 87104, Note_on_c, 8, 61, 127
7, 87104, Note_on_c, 8, 65, 127
7, 87104, Note_on_c, 8, 68, 127
7, 87104, Note_on_c, 8, 71, 127
7, 87168, Note_off_c, 8, 36, 0
7, 87168, Note_off_c, 8, 48, 0
7, 87168, Note_off_c, 8, 58, 0
7, 87168, Note_off_c, 8, 61, 0
7, 87168, Note_off_c, 8, 65, 0
7, 87168, Note_off_c, 8, 68, 0
7, 87168, Note_off_c, 8, 71, 0
7, 87360, Note_on_c, 8, 36, 127
7, 87360, Note_on_c, 8, 48, 127
7, 87360, Note_on_c, 8, 58, 127
7, 87360, Note_on_c, 8, 61, 127
7, 87360, Note_on_c, 8, 65, 127
7, 87360, Note_on_c, 8, 68, 127
7, 87360, Note_on_c, 8, 71, 127
7, 87424, Note_off_c, 8, 36, 0
7, 87424, Note_off_c, 8, 48, 0
7, 87424, Note_off_c, 8, 58, 0
7, 87424, Note_off_c, 8, 61, 0
7, 87424, Note_off_c, 8, 65, 0
7, 87424, Note_off_c, 8, 68, 0
7, 87424, Note_off_c, 8, 71, 0
7, 87616, Note_on_c, 8, 48, 73
7, 87616, Note_on_c, 8, 58, 73
7, 87616, Note_on_c, 8, 62, 73
7, 87616, Note_on_c, 8, 66, 73
7, 87616, Note_on_c, 8, 69, 73
7, 87616, Note_on_c, 8, 72, 73
7, 88512, Note_off_c, 8, 48, 0
7, 88512, Note_off_c, 8, 58, 0
7, 88512, Note_off_c, 8, 62, 0
7, 88512, Note_off_c, 8, 66, 0
7, 88512, Note_off_c, 8, 69, 0
7, 88512, Note_off_c, 8, 72, 0
7, 88512, Note_on_c, 8, 45, 106
7, 88512, Note_on_c, 8, 52, 106
7, 88512, Note_on_c, 8, 59, 106
7, 88512, Note_on_c, 8, 64, 106
7, 88512, Note_on_c, 8, 65, 106
7, 88512, Note_on_c, 8, 68, 106
7, 88512, Note_on_c, 8, 71, 106
7, 88544, Note_off_c, 8, 45, 0
7, 88544, Note_off_c, 8, 52, 0
7, 88544, Note_off_c, 8, 59, 0
7, 88544, Note_off_c, 8, 64, 0
7, 88544, Note_off_c, 8, 65, 0
7, 88544, Note_off_c, 8, 68, 0
7, 88544, Note_off_c, 8, 71, 0
7, 88640, Note_on_c, 8, 45, 101
7, 88640, Note_on_c, 8, 52, 101
7, 88640, Note_on_c, 8, 59, 101
7, 88640, Note_on_c, 8, 64, 101
7, 88640, Note_on_c, 8, 65, 101
7, 88640, Note_on_c, 8, 68, 101
7, 88640, Note_on_c, 8, 71, 101
7, 88672, Note_off_c, 8, 45, 0
7, 88672, Note_off_c, 8, 52, 0
7, 88672, Note_off_c, 8, 59, 0
7, 88672, Note_off_c, 8, 64, 0
7, 88672, Note_off_c, 8, 65, 0
7, 88672, Note_off_c, 8, 68, 0
7, 88672, Note_off_c, 8, 71, 0
7, 88896, Note_on_c, 8, 45, 100
7, 88896, Note_on_c, 8, 52, 100
7, 88896, Note_on_c, 8, 59, 100
7, 88896, Note_on_c, 8, 64, 100
7, 88896, Note_on_c, 8, 65, 100
7, 88896, Note_on_c, 8, 68, 100
7, 88896, Note_on_c, 8, 71, 100
7, 88928, Note_off_c, 8, 45, 0
7, 88928, Note_off_c, 8, 52, 0
7, 88928, Note_off_c, 8, 59, 0
7, 88928, Note_off_c, 8, 64, 0
7, 88928, Note_off_c, 8, 65, 0
7, 88928, Note_off_c, 8, 68, 0
7, 88928, Note_off_c, 8, 71, 0
7, 89216, Note_on_c, 8, 39, 69
7, 89216, Note_on_c, 8, 46, 69
7, 89216, Note_on_c, 8, 65, 69
7, 89216, Note_on_c, 8, 70, 69
7, 89216, Note_on_c, 8, 74, 69
7, 89408, Note_off_c, 8, 39, 0
7, 89408, Note_off_c, 8, 46, 0
7, 89408, Note_off_c, 8, 65, 0
7, 89408, Note_off_c, 8, 70, 0
7, 89408, Note_off_c, 8, 74, 0
7, 89600, Note_on_c, 8, 39, 89
7, 89600, Note_on_c, 8, 46, 89
7, 89600, Note_on_c, 8, 65, 89
7, 89792, Note_off_c, 8, 39, 0
7, 89792, Note_off_c, 8, 46, 0
7, 89792, Note_off_c, 8, 65, 0
7, 89920, Note_on_c, 8, 39, 87
7, 89920, Note_on_c, 8, 46, 87
7, 89920, Note_on_c, 8, 65, 87
7, 90112, Note_off_c, 8, 39, 0
7, 90112, Note_off_c, 8, 46, 0
7, 90112, Note_off_c, 8, 65, 0
7, 90752, Note_on_c, 8, 48, 71
7, 90752, Note_on_c, 8, 58, 71
7, 90752, Note_on_c, 8, 61, 71
7, 90752, Note_on_c, 8, 66, 71
7, 90944, Note_off_c, 8, 48, 0
7, 90944, Note_off_c, 8, 58, 0
7, 90944, Note_off_c, 8, 61, 0
7, 90944, Note_off_c, 8, 66, 0
7, 91264, Note_on_c, 8, 48, 77
7, 91264, Note_on_c, 8, 58, 77
7, 91264, Note_on_c, 8, 61, 77
7, 91264, Note_on_c, 8, 66, 77
7, 91456, Note_off_c, 8, 48, 0
7, 91456, Note_off_c, 8, 58, 0
7, 91456, Note_off_c, 8, 61, 0
7, 91456, Note_off_c, 8, 66, 0
7, 92096, Note_on_c, 8, 48, 73
7, 92096, Note_on_c, 8, 58, 73
7, 92096, Note_on_c, 8, 61, 73
7, 92096, Note_on_c, 8, 66, 73
7, 92928, Note_off_c, 8, 48, 0
7, 92928, Note_off_c, 8, 58, 0
7, 92928, Note_off_c, 8, 61, 0
7, 92928, Note_off_c, 8, 66, 0
7, 93120, Note_on_c, 8, 45, 74
7, 93120, Note_on_c, 8, 55, 74
7, 93120, Note_on_c, 8, 69, 74
7, 93120, Note_on_c, 8, 72, 74
7, 94144, Note_off_c, 8, 45, 0
7, 94144, Note_off_c, 8, 55, 0
7, 94144, Note_off_c, 8, 69, 0
7, 94144, Note_off_c, 8, 72, 0
7, 94464, Note_on_c, 8, 46, 87
7, 94464, Note_on_c, 8, 56, 87
7, 94464, Note_on_c, 8, 62, 87
7, 94464, Note_on_c, 8, 65, 87
7, 94464, Note_on_c, 8, 67, 87
7, 94464, Note_on_c, 8, 72, 87
7, 94656, Note_off_c, 8, 46, 0
7, 94656, Note_off_c, 8, 56, 0
7, 94656, Note_off_c, 8, 62, 0
7, 94656, Note_off_c, 8, 65, 0
7, 94656, Note_off_c, 8, 67, 0
7, 94656, Note_off_c, 8, 72, 0
7, 94848, Note_on_c, 8, 46, 86
7, 94848, Note_on_c, 8, 56, 86
7, 94848, Note_on_c, 8, 62, 86
7, 94848, Note_on_c, 8, 65, 86
7, 94848, Note_on_c, 8, 67, 86
7, 94848, Note_on_c, 8, 72, 86
7, 95040, Note_off_c, 8, 46, 0
7, 95040, Note_off_c, 8, 56, 0
7, 95040, Note_off_c, 8, 62, 0
7, 95040, Note_off_c, 8, 65, 0
7, 95040, Note_off_c, 8, 67, 0
7, 95040, Note_off_c, 8, 72, 0
7, 95232, Note_on_c, 8, 35, 87
7, 95232, Note_on_c, 8, 47, 87
7, 95232, Note_on_c, 8, 57, 87
7, 95232, Note_on_c, 8, 61, 87
7, 95232, Note_on_c, 8, 65, 87
7, 95232, Note_on_c, 8, 68, 87
7, 95232, Note_on_c, 8, 71, 87
7, 95424, Note_off_c, 8, 35, 0
7, 95424, Note_off_c, 8, 47, 0
7, 95424, Note_off_c, 8, 57, 0
7, 95424, Note_off_c, 8, 61, 0
7, 95424, Note_off_c, 8, 65, 0
7, 95424, Note_off_c, 8, 68, 0
7, 95424, Note_off_c, 8, 71, 0
7, 95616, Note_on_c, 8, 35, 87
7, 95616, Note_on_c, 8, 47, 87
7, 95616, Note_on_c, 8, 57, 87
7, 95616, Note_on_c, 8, 61, 87
7, 95616, Note_on_c, 8, 65, 87
7, 95616, Note_on_c, 8, 68, 87
7, 95616, Note_on_c, 8, 71, 87
7, 95808, Note_off_c, 8, 35, 0
7, 95808, Note_off_c, 8, 47, 0
7, 95808, Note_off_c, 8, 57, 0
7, 95808, Note_off_c, 8, 61, 0
7, 95808, Note_off_c, 8, 65, 0
7, 95808, Note_off_c, 8, 68, 0
7, 95808, Note_off_c, 8, 71, 0
7, 96000, Note_on_c, 8, 40, 90
7, 96000, Note_on_c, 8, 47, 90
7, 96000, Note_on_c, 8, 62, 90
7, 96000, Note_on_c, 8, 65, 90
7, 96000, Note_on_c, 8, 67, 90
7, 96000, Note_on_c, 8, 71, 90
7, 96192, Note_off_c, 8, 40, 0
7, 96192, Note_off_c, 8, 47, 0
7, 96192, Note_off_c, 8, 62, 0
7, 96192, Note_off_c, 8, 65, 0
7, 96192, Note_off_c, 8, 67, 0
7, 96192, Note_off_c, 8, 71, 0
7, 96384, Note_on_c, 8, 35, 105
7, 96384, Note_on_c, 8, 47, 105
7, 96384, Note_on_c, 8, 57, 105
7, 96384, Note_on_c, 8, 61, 105
7, 96384, Note_on_c, 8, 65, 105
7, 96384, Note_on_c, 8, 68, 105
7, 96384, Note_on_c, 8, 71, 105
7, 96512, Note_off_c, 8, 35, 0
7, 96512, Note_off_c, 8, 47, 0
7, 96512, Note_off_c, 8, 57, 0
7, 96512, Note_off_c, 8, 61, 0
7, 96512, Note_off_c, 8, 65, 0
7, 96512, Note_off_c, 8, 68, 0
7, 96512, Note_off_c, 8, 71, 0
7, 96768, Note_on_c, 8, 40, 103
7, 96768, Note_on_c, 8, 47, 103
7, 96768, Note_on_c, 8, 50, 103
7, 96768, Note_on_c, 8, 62, 103
7, 96768, Note_on_c, 8, 65, 103
7, 96768, Note_on_c, 8, 68, 103
7, 96768, Note_on_c, 8, 71, 103
7, 96896, Note_off_c, 8, 40, 0
7, 96896, Note_off_c, 8, 47, 0
7, 96896, Note_off_c, 8, 50, 0
7, 96896, Note_off_c, 8, 62, 0
7, 96896, Note_off_c, 8, 65, 0
7, 96896, Note_off_c, 8, 68, 0
7, 96896, Note_off_c, 8, 71, 0
7, 97152, Note_on_c, 8, 42, 102
7, 97152, Note_on_c, 8, 52, 102
7, 97152, Note_on_c, 8, 62, 102
7, 97152, Note_on_c, 8, 65, 102
7, 97152, Note_on_c, 8, 68, 102
7, 97152, Note_on_c, 8, 72, 102
7, 97280, Note_off_c, 8, 68, 0
7, 97280, Note_on_c, 8, 36, 107
7, 97280, Note_on_c, 8, 48, 107
7, 97280, Note_on_c, 8, 58, 107
7, 97280, Note_on_c, 8, 64, 107
7, 97280, Note_on_c, 8, 68, 107
7, 97280, Note_on_c, 8, 73, 107
7, 97280, Note_on_c, 8, 76, 107
7, 97282, Note_off_c, 8, 42, 0
7, 97282, Note_off_c, 8, 52, 0
7, 97282, Note_off_c, 8, 62, 0
7, 97282, Note_off_c, 8, 65, 0
7, 97282, Note_off_c, 8, 72, 0
7, 97401, Note_off_c, 8, 36, 0
7, 97401, Note_off_c, 8, 48, 0
7, 97401, Note_off_c, 8, 58, 0
7, 97401, Note_off_c, 8, 64, 0
7, 97401, Note_off_c, 8, 68, 0
7, 97401, Note_off_c, 8, 73, 0
7, 97401, Note_off_c, 8, 76, 0
7, 97664, Note_on_c, 8, 36, 100
7, 97664, Note_on_c, 8, 48, 100
7, 97664, Note_on_c, 8, 58, 100
7, 97664, Note_on_c, 8, 64, 100
7, 97664, Note_on_c, 8, 68, 100
7, 97664, Note_on_c, 8, 73, 100
7, 97664, Note_on_c, 8, 76, 100
7, 97792, Note_on_c, 8, 42, 90
7, 97792, Note_on_c, 8, 52, 90
7, 97792, Note_on_c, 8, 63, 90
7, 97792, Note_on_c, 8, 67, 90
7, 97792, Note_on_c, 8, 72, 90
7, 97792, Note_on_c, 8, 75, 90
7, 97794, Note_off_c, 8, 36, 0
7, 97794, Note_off_c, 8, 48, 0
7, 97794, Note_off_c, 8, 58, 0
7, 97794, Note_off_c, 8, 64, 0
7, 97794, Note_off_c, 8, 68, 0
7, 97794, Note_off_c, 8, 73, 0
7, 97794, Note_off_c, 8, 76, 0
7, 97913, Note_off_c, 8, 42, 0
7, 97913, Note_off_c, 8, 52, 0
7, 97913, Note_off_c, 8, 63, 0
7, 97913, Note_off_c, 8, 67, 0
7, 97913, Note_off_c, 8, 72, 0
7, 97913, Note_off_c, 8, 75, 0
7, 98176, Note_on_c, 8, 36, 104
7, 98176, Note_on_c, 8, 48, 104
7, 98176, Note_on_c, 8, 58, 104
7, 98176, Note_on_c, 8, 64, 104
7, 98176, Note_on_c, 8, 68, 104
7, 98176, Note_on_c, 8, 73, 104
7, 98176, Note_on_c, 8, 76, 104
7, 98304, Note_off_c, 8, 36, 0
7, 98304, Note_off_c, 8, 48, 0
7, 98304, Note_off_c, 8, 58, 0
7, 98304, Note_off_c, 8, 64, 0
7, 98304, Note_off_c, 8, 68, 0
7, 98304, Note_off_c, 8, 73, 0
7, 98304, Note_off_c, 8, 76, 0
7, 98560, Note_on_c, 8, 49, 103
7, 98560, Note_on_c, 8, 59, 103
7, 98560, Note_on_c, 8, 65, 103
7, 98560, Note_on_c, 8, 68, 103
7, 98560, Note_on_c, 8, 71, 103
7, 98560, Note_on_c, 8, 76, 103
7, 98688, Note_off_c, 8, 49, 0
7, 98688, Note_off_c, 8, 59, 0
7, 98688, Note_off_c, 8, 65, 0
7, 98688, Note_off_c, 8, 68, 0
7, 98688, Note_off_c, 8, 71, 0
7, 98688, Note_off_c, 8, 76, 0
7, 98816, Note_on_c, 8, 49, 101
7, 98816, Note_on_c, 8, 59, 101
7, 98816, Note_on_c, 8, 65, 101
7, 98816, Note_on_c, 8, 68, 101
7, 98816, Note_on_c, 8, 71, 101
7, 98816, Note_on_c, 8, 76, 101
7, 98944, Note_off_c, 8, 49, 0
7, 98944, Note_off_c, 8, 59, 0
7, 98944, Note_off_c, 8, 65, 0
7, 98944, Note_off_c, 8, 68, 0
7, 98944, Note_off_c, 8, 71, 0
7, 98944, Note_off_c, 8, 76, 0
7, 99328, Note_on_c, 8, 49, 102
7, 99328, Note_on_c, 8, 59, 102
7, 99328, Note_on_c, 8, 65, 102
7, 99328, Note_on_c, 8, 68, 102
7, 99328, Note_on_c, 8, 71, 102
7, 99328, Note_on_c, 8, 76, 102
7, 99347, Note_off_c, 8, 49, 0
7, 99347, Note_off_c, 8, 59, 0
7, 99347, Note_off_c, 8, 65, 0
7, 99347, Note_off_c, 8, 68, 0
7, 99347, Note_off_c, 8, 71, 0
7, 99347, Note_off_c, 8, 76, 0
7, 99520, Note_on_c, 8, 49, 101
7, 99520, Note_on_c, 8, 59, 101
7, 99520, Note_on_c, 8, 65, 101
7, 99520, Note_on_c, 8, 68, 101
7, 99520, Note_on_c, 8, 71, 101
7, 99520, Note_on_c, 8, 76, 101
7, 99539, Note_off_c, 8, 49, 0
7, 99539, Note_off_c, 8, 59, 0
7, 99539, Note_off_c, 8, 65, 0
7, 99539, Note_off_c, 8, 68, 0
7, 99539, Note_off_c, 8, 71, 0
7, 99539, Note_off_c, 8, 76, 0
7, 99712, Note_on_c, 8, 49, 104
7, 99712, Note_on_c, 8, 59, 104
7, 99712, Note_on_c, 8, 65, 104
7, 99712, Note_on_c, 8, 68, 104
7, 99712, Note_on_c, 8, 71, 104
7, 99712, Note_on_c, 8, 76, 104
7, 99731, Note_off_c, 8, 49, 0
7, 99731, Note_off_c, 8, 59, 0
7, 99731, Note_off_c, 8, 65, 0
7, 99731, Note_off_c, 8, 68, 0
7, 99731, Note_off_c, 8, 71, 0
7, 99731, Note_off_c, 8, 76, 0
7, 99904, Note_on_c, 8, 49, 106
7, 99904, Note_on_c, 8, 59, 106
7, 99904, Note_on_c, 8, 65, 106
7, 99904, Note_on_c, 8, 68, 106
7, 99904, Note_on_c, 8, 71, 106
7, 99904, Note_on_c, 8, 76, 106
7, 99923, Note_off_c, 8, 49, 0
7, 99923, Note_off_c, 8, 59, 0
7, 99923, Note_off_c, 8, 65, 0
7, 99923, Note_off_c, 8, 68, 0
7, 99923, Note_off_c, 8, 71, 0
7, 99923, Note_off_c, 8, 76, 0
7, 100096, Note_on_c, 8, 49, 102
7, 100096, Note_on_c, 8, 59, 102
7, 100096, Note_on_c, 8, 65, 102
7, 100096, Note_on_c, 8, 68, 102
7, 100096, Note_on_c, 8, 71, 102
7, 100096, Note_on_c, 8, 76, 102
7, 100115, Note_off_c, 8, 49, 0
7, 100115, Note_off_c, 8, 59, 0
7, 100115, Note_off_c, 8, 65, 0
7, 100115, Note_off_c, 8, 68, 0
7, 100115, Note_off_c, 8, 71, 0
7, 100115, Note_off_c, 8, 76, 0
7, 100288, Note_on_c, 8, 49, 99
7, 100288, Note_on_c, 8, 60, 99
7, 100288, Note_on_c, 8, 66, 99
7, 100288, Note_on_c, 8, 69, 99
7, 100288, Note_on_c, 8, 72, 99
7, 100288, Note_on_c, 8, 76, 99
7, 100307, Note_off_c, 8, 49, 0
7, 100307, Note_off_c, 8, 60, 0
7, 100307, Note_off_c, 8, 66, 0
7, 100307, Note_off_c, 8, 69, 0
7, 100307, Note_off_c, 8, 72, 0
7, 100307, Note_off_c, 8, 76, 0
7, 100480, Note_on_c, 8, 49, 102
7, 100480, Note_on_c, 8, 60, 102
7, 100480, Note_on_c, 8, 66, 102
7, 100480, Note_on_c, 8, 69, 102
7, 100480, Note_on_c, 8, 72, 102
7, 100480, Note_on_c, 8, 76, 102
7, 100499, Note_off_c, 8, 49, 0
7, 100499, Note_off_c, 8, 60, 0
7, 100499, Note_off_c, 8, 66, 0
7, 100499, Note_off_c, 8, 69, 0
7, 100499, Note_off_c, 8, 72, 0
7, 100499, Note_off_c, 8, 76, 0
7, 100608, Note_on_c, 8, 49, 100
7, 100608, Note_on_c, 8, 60, 100
7, 100608, Note_on_c, 8, 66, 100
7, 100608, Note_on_c, 8, 69, 100
7, 100608, Note_on_c, 8, 72, 100
7, 100608, Note_on_c, 8, 76, 100
7, 100627, Note_off_c, 8, 49, 0
7, 100627, Note_off_c, 8, 60, 0
7, 100627, Note_off_c, 8, 66, 0
7, 100627, Note_off_c, 8, 69, 0
7, 100627, Note_off_c, 8, 72, 0
7, 100627, Note_off_c, 8, 76, 0
7, 100800, Note_on_c, 8, 49, 107
7, 100800, Note_on_c, 8, 60, 107
7, 100800, Note_on_c, 8, 66, 107
7, 100800, Note_on_c, 8, 69, 107
7, 100800, Note_on_c, 8, 72, 107
7, 100800, Note_on_c, 8, 76, 107
7, 100819, Note_off_c, 8, 49, 0
7, 100819, Note_off_c, 8, 60, 0
7, 100819, Note_off_c, 8, 66, 0
7, 100819, Note_off_c, 8, 69, 0
7, 100819, Note_off_c, 8, 72, 0
7, 100819, Note_off_c, 8, 76, 0
7, 100992, Note_on_c, 8, 49, 101
7, 100992, Note_on_c, 8, 60, 101
7, 100992, Note_on_c, 8, 66, 101
7, 100992, Note_on_c, 8, 69, 101
7, 100992, Note_on_c, 8, 72, 101
7, 100992, Note_on_c, 8, 76, 101
7, 101011, Note_off_c, 8, 49, 0
7, 101011, Note_off_c, 8, 60, 0
7, 101011, Note_off_c, 8, 66, 0
7, 101011, Note_off_c, 8, 69, 0
7, 101011, Note_off_c, 8, 72, 0
7, 101011, Note_off_c, 8, 76, 0
7, 101184, Note_on_c, 8, 49, 100
7, 101184, Note_on_c, 8, 60, 100
7, 101184, Note_on_c, 8, 66, 100
7, 101184, Note_on_c, 8, 69, 100
7, 101184, Note_on_c, 8, 72, 100
7, 101184, Note_on_c, 8, 76, 100
7, 101203, Note_off_c, 8, 49, 0
7, 101203, Note_off_c, 8, 60, 0
7, 101203, Note_off_c, 8, 66, 0
7, 101203, Note_off_c, 8, 69, 0
7, 101203, Note_off_c, 8, 72, 0
7, 101203, Note_off_c, 8, 76, 0
7, 101376, Note_on_c, 8, 49, 114
7, 101376, Note_on_c, 8, 60, 114
7, 101376, Note_on_c, 8, 66, 114
7, 101376, Note_on_c, 8, 70, 114
7, 101376, Note_on_c, 8, 72, 114
7, 101376, Note_on_c, 8, 76, 114
7, 101440, Note_off_c, 8, 49, 0
7, 101440, Note_off_c, 8, 60, 0
7, 101440, Note_off_c, 8, 66, 0
7, 101440, Note_off_c, 8, 70, 0
7, 101440, Note_off_c, 8, 72, 0
7, 101440, Note_off_c, 8, 76, 0
7, 101440, Note_on_c, 8, 49, 121
7, 101440, Note_on_c, 8, 60, 121
7, 101440, Note_on_c, 8, 66, 121
7, 101440, Note_on_c, 8, 70, 121
7, 101440, Note_on_c, 8, 72, 121
7, 101440, Note_on_c, 8, 76, 121
7, 101504, Note_off_c, 8, 49, 0
7, 101504, Note_off_c, 8, 60, 0
7, 101504, Note_off_c, 8, 66, 0
7, 101504, Note_off_c, 8, 70, 0
7, 101504, Note_off_c, 8, 72, 0
7, 101504, Note_off_c, 8, 76, 0
7, 101632, Note_on_c, 8, 49, 112
7, 101632, Note_on_c, 8, 60, 112
7, 101632, Note_on_c, 8, 66, 112
7, 101632, Note_on_c, 8, 70, 112
7, 101632, Note_on_c, 8, 72, 112
7, 101632, Note_on_c, 8, 76, 112
7, 101696, Note_off_c, 8, 49, 0
7, 101696, Note_off_c, 8, 60, 0
7, 101696, Note_off_c, 8, 66, 0
7, 101696, Note_off_c, 8, 70, 0
7, 101696, Note_off_c, 8, 72, 0
7, 101696, Note_off_c, 8, 76, 0
7, 101696, Note_on_c, 8, 49, 125
7, 101696, Note_on_c, 8, 60, 125
7, 101696, Note_on_c, 8, 66, 125
7, 101696, Note_on_c, 8, 70, 125
7, 101696, Note_on_c, 8, 72, 125
7, 101696, Note_on_c, 8, 76, 125
7, 101760, Note_off_c, 8, 49, 0
7, 101760, Note_off_c, 8, 60, 0
7, 101760, Note_off_c, 8, 66, 0
7, 101760, Note_off_c, 8, 70, 0
7, 101760, Note_off_c, 8, 72, 0
7, 101760, Note_off_c, 8, 76, 0
7, 101824, Note_on_c, 8, 49, 113
7, 101824, Note_on_c, 8, 60, 113
7, 101824, Note_on_c, 8, 66, 113
7, 101824, Note_on_c, 8, 70, 113
7, 101824, Note_on_c, 8, 72, 113
7, 101824, Note_on_c, 8, 76, 113
7, 101952, Note_off_c, 8, 49, 0
7, 101952, Note_off_c, 8, 60, 0
7, 101952, Note_off_c, 8, 66, 0
7, 101952, Note_off_c, 8, 70, 0
7, 101952, Note_off_c, 8, 72, 0
7, 101952, Note_off_c, 8, 76, 0
7, 102016, Note_on_c, 8, 49, 111
7, 102016, Note_on_c, 8, 60, 111
7, 102016, Note_on_c, 8, 66, 111
7, 102016, Note_on_c, 8, 70, 111
7, 102016, Note_on_c, 8, 72, 111
7, 102016, Note_on_c, 8, 76, 111
7, 102080, Note_off_c, 8, 49, 0
7, 102080, Note_off_c, 8, 60, 0
7, 102080, Note_off_c, 8, 66, 0
7, 102080, Note_off_c, 8, 70, 0
7, 102080, Note_off_c, 8, 72, 0
7, 102080, Note_off_c, 8, 76, 0
7, 102144, Note_on_c, 8, 49, 100
7, 102144, Note_on_c, 8, 60, 100
7, 102144, Note_on_c, 8, 66, 100
7, 102144, Note_on_c, 8, 70, 100
7, 102144, Note_on_c, 8, 72, 100
7, 102144, Note_on_c, 8, 76, 100
7, 102163, Note_off_c, 8, 49, 0
7, 102163, Note_off_c, 8, 60, 0
7, 102163, Note_off_c, 8, 66, 0
7, 102163, Note_off_c, 8, 70, 0
7, 102163, Note_off_c, 8, 72, 0
7, 102163, Note_off_c, 8, 76, 0
7, 102400, Note_on_c, 8, 49, 96
7, 102400, Note_on_c, 8, 60, 96
7, 102400, Note_on_c, 8, 66, 96
7, 102400, Note_on_c, 8, 70, 96
7, 102400, Note_on_c, 8, 72, 96
7, 102400, Note_on_c, 8, 76, 96
7, 102419, Note_off_c, 8, 49, 0
7, 102419, Note_off_c, 8, 60, 0
7, 102419, Note_off_c, 8, 66, 0
7, 102419, Note_off_c, 8, 70, 0
7, 102419, Note_off_c, 8, 72, 0
7, 102419, Note_off_c, 8, 76, 0
7, 102592, Note_on_c, 8, 30, 86
7, 102592, Note_on_c, 8, 42, 86
7, 103040, Note_off_c, 8, 30, 0
7, 103040, Note_off_c, 8, 42, 0
7, 103040, Note_on_c, 8, 67, 104
7, 103168, Note_on_c, 8, 30, 89
7, 103168, Note_on_c, 8, 42, 89
7, 103253, Note_off_c, 8, 67, 0
7, 103253, Note_on_c, 8, 68, 122
7, 103360, Note_off_c, 8, 30, 0
7, 103360, Note_off_c, 8, 42, 0
7, 103360, Note_on_c, 8, 29, 92
7, 103360, Note_on_c, 8, 41, 92
7, 103616, Note_off_c, 8, 68, 0
7, 103616, Note_on_c, 8, 71, 127
7, 103808, Note_off_c, 8, 71, 0
7, 103808, Note_on_c, 8, 57, 87
7, 103872, Note_off_c, 8, 29, 0
7, 103872, Note_off_c, 8, 41, 0
7, 103872, Note_on_c, 8, 30, 99
7, 103872, Note_on_c, 8, 42, 99
7, 104000, Note_off_c, 8, 30, 0
7, 104000, Note_off_c, 8, 42, 0
7, 104000, Note_on_c, 8, 29, 93
7, 104000, Note_on_c, 8, 41, 93
7, 104106, Note_off_c, 8, 57, 0
7, 104106, Note_on_c, 8, 60, 92
7, 104256, Note_off_c, 8, 29, 0
7, 104256, Note_off_c, 8, 41, 0
7, 104256, Note_on_c, 8, 30, 82
7, 104256, Note_on_c, 8, 42, 82
7, 104384, Note_off_c, 8, 30, 0
7, 104384, Note_off_c, 8, 42, 0
7, 104384, Note_on_c, 8, 29, 81
7, 104384, Note_on_c, 8, 41, 81
7, 104533, Note_off_c, 8, 60, 0
7, 104533, Note_on_c, 8, 49, 60
7, 104576, Note_off_c, 8, 29, 0
7, 104576, Note_off_c, 8, 41, 0
7, 104576, Note_on_c, 8, 30, 72
7, 104576, Note_on_c, 8, 42, 72
7, 105045, Note_off_c, 8, 49, 0
7, 105045, Note_on_c, 8, 38, 57
7, 105472, Note_off_c, 8, 42, 0
7, 105472, Note_on_c, 8, 41, 44
7, 105600, Note_off_c, 8, 30, 0
7, 105600, Note_off_c, 8, 41, 0
7, 105600, Note_on_c, 8, 36, 34
7, 105642, Note_off_c, 8, 38, 0
7, 106752, Note_off_c, 8, 36, 0
7, 116608, Note_on_c, 8, 60, 78
7, 116940, Note_off_c, 8, 60, 0
7, 116940, Note_on_c, 8, 61, 92
7, 117145, Note_off_c, 8, 61, 0
7, 117145, Note_on_c, 8, 63, 94
7, 117350, Note_off_c, 8, 63, 0
7, 117350, Note_on_c, 8, 65, 94
7, 117555, Note_off_c, 8, 65, 0
7, 117555, Note_on_c, 8, 67, 92
7, 117760, Note_off_c, 8, 67, 0
7, 117760, Note_on_c, 8, 65, 80
7, 117930, Note_off_c, 8, 65, 0
7, 117930, Note_on_c, 8, 68, 90
7, 118101, Note_off_c, 8, 68, 0
7, 118101, Note_on_c, 8, 70, 89
7, 118272, Note_off_c, 8, 70, 0
7, 118272, Note_on_c, 8, 66, 74
7, 118464, Note_off_c, 8, 66, 0
7, 118464, Note_on_c, 8, 64, 79
7, 118720, Note_off_c, 8, 64, 0
7, 118720, Note_on_c, 8, 63, 79
7, 118954, Note_off_c, 8, 63, 0
7, 118954, Note_on_c, 8, 65, 90
7, 119125, Note_off_c, 8, 65, 0
7, 119125, Note_on_c, 8, 60, 92
7, 119125, Note_on_c, 8, 67, 92
7, 119360, Note_off_c, 8, 60, 0
7, 119360, Note_off_c, 8, 67, 0
7, 119360, Note_on_c, 8, 58, 79
7, 119360, Note_on_c, 8, 65, 79
7, 119552, Note_off_c, 8, 58, 0
7, 119552, Note_off_c, 8, 65, 0
7, 119552, Note_on_c, 8, 61, 96
7, 119552, Note_on_c, 8, 68, 96
7, 119744, Note_off_c, 8, 61, 0
7, 119744, Note_off_c, 8, 68, 0
7, 119744, Note_on_c, 8, 65, 95
7, 119744, Note_on_c, 8, 70, 95
7, 119936, Note_off_c, 8, 65, 0
7, 119936, Note_off_c, 8, 70, 0
7, 119936, Note_on_c, 8, 68, 113
7, 119936, Note_on_c, 8, 75, 113
7, 120149, Note_off_c, 8, 68, 0
7, 120149, Note_off_c, 8, 75, 0
7, 120149, Note_on_c, 8, 61, 78
7, 120149, Note_on_c, 8, 68, 78
7, 120320, Note_off_c, 8, 61, 0
7, 120320, Note_off_c, 8, 68, 0
7, 120320, Note_on_c, 8, 65, 103
7, 120320, Note_on_c, 8, 72, 103
7, 120490, Note_off_c, 8, 65, 0
7, 120490, Note_off_c, 8, 72, 0
7, 120490, Note_on_c, 8, 60, 75
7, 120490, Note_on_c, 8, 65, 75
7, 120661, Note_off_c, 8, 60, 0
7, 120661, Note_off_c, 8, 65, 0
7, 120661, Note_on_c, 8, 65, 94
7, 120661, Note_on_c, 8, 68, 94
7, 120896, Note_off_c, 8, 65, 0
7, 120896, Note_off_c, 8, 68, 0
7, 120896, Note_on_c, 8, 53, 67
7, 120896, Note_on_c, 8, 60, 67
7, 121088, Note_off_c, 8, 53, 0
7, 121088, Note_off_c, 8, 60, 0
7, 121088, Note_on_c, 8, 56, 88
7, 121088, Note_on_c, 8, 63, 88
7, 121173, Note_off_c, 8, 56, 0
7, 121173, Note_off_c, 8, 63, 0
7, 121173, Note_on_c, 8, 57, 90
7, 121173, Note_on_c, 8, 64, 90
7, 121429, Note_off_c, 8, 64, 0
7, 121429, Note_on_c, 8, 66, 95
7, 121514, Note_off_c, 8, 57, 0
7, 121514, Note_off_c, 8, 66, 0
7, 129920, Note_on_c, 8, 60, 74
7, 129920, Note_on_c, 8, 64, 74
7, 130176, Note_off_c, 8, 60, 0
7, 130176, Note_off_c, 8, 64, 0
7, 131328, Note_on_c, 8, 60, 75
7, 131328, Note_on_c, 8, 64, 75
7, 131584, Note_off_c, 8, 60, 0
7, 131584, Note_off_c, 8, 64, 0
7, 132608, Note_on_c, 8, 60, 74
7, 132608, Note_on_c, 8, 64, 74
7, 132864, Note_off_c, 8, 60, 0
7, 132864, Note_off_c, 8, 64, 0
7, 133888, Note_on_c, 8, 60, 75
7, 133888, Note_on_c, 8, 64, 75
7, 134144, Note_off_c, 8, 60, 0
7, 134144, Note_off_c, 8, 64, 0
7, 134656, Note_on_c, 8, 60, 87
7, 134656, Note_on_c, 8, 64, 87
7, 134720, Note_off_c, 8, 60, 0
7, 134720, Note_off_c, 8, 64, 0
7, 134912, Note_on_c, 8, 70, 97
7, 135040, Note_on_c, 8, 72, 105
7, 135680, Note_on_c, 8, 60, 88
7, 135680, Note_on_c, 8, 64, 88
7, 135744, Note_off_c, 8, 60, 0
7, 135744, Note_off_c, 8, 64, 0
7, 136576, Note_on_c, 8, 55, 87
7, 136576, Note_on_c, 8, 60, 87
7, 136640, Note_off_c, 8, 55, 0
7, 136640, Note_off_c, 8, 60, 0
7, 136960, Note_on_c, 8, 60, 89
7, 136960, Note_on_c, 8, 64, 89
7, 137024, Note_off_c, 8, 60, 0
7, 137024, Note_off_c, 8, 64, 0
7, 137216, Note_off_c, 8, 70, 0
7, 137216, Note_off_c, 8, 72, 0
7, 137216, Note_on_c, 8, 70, 114
7, 137216, Note_on_c, 8, 72, 114
7, 137600, Note_on_c, 8, 55, 89
7, 137600, Note_on_c, 8, 60, 89
7, 137664, Note_off_c, 8, 55, 0
7, 137664, Note_off_c, 8, 60, 0
7, 137728, Note_off_c, 8, 72, 0
7, 137856, Note_on_c, 8, 72, 120
7, 137984, Note_off_c, 8, 70, 0
7, 137984, Note_on_c, 8, 60, 86
7, 137984, Note_on_c, 8, 64, 86
7, 138048, Note_off_c, 8, 60, 0
7, 138048, Note_off_c, 8, 64, 0
7, 138112, Note_on_c, 8, 70, 111
7, 138368, Note_off_c, 8, 72, 0
7, 138368, Note_off_c, 8, 70, 0
7, 138368, Note_on_c, 8, 72, 120
7, 138368, Note_on_c, 8, 73, 120
7, 138624, Note_on_c, 8, 55, 90
7, 138624, Note_on_c, 8, 60, 90
7, 138688, Note_off_c, 8, 55, 0
7, 138688, Note_off_c, 8, 60, 0
7, 139008, Note_on_c, 8, 60, 90
7, 139008, Note_on_c, 8, 64, 90
7, 139072, Note_off_c, 8, 60, 0
7, 139072, Note_off_c, 8, 64, 0
7, 139264, Note_off_c, 8, 72, 0
7, 139264, Note_off_c, 8, 73, 0
7, 139264, Note_on_c, 8, 72, 114
7, 139264, Note_on_c, 8, 73, 114
7, 139648, Note_on_c, 8, 55, 86
7, 139648, Note_on_c, 8, 60, 86
7, 139712, Note_off_c, 8, 55, 0
7, 139712, Note_off_c, 8, 60, 0
7, 139776, Note_off_c, 8, 72, 0
7, 139776, Note_off_c, 8, 73, 0
7, 139776, Note_on_c, 8, 72, 113
7, 139776, Note_on_c, 8, 73, 113
7, 140032, Note_on_c, 8, 60, 90
7, 140032, Note_on_c, 8, 64, 90
7, 140096, Note_off_c, 8, 60, 0
7, 140096, Note_off_c, 8, 64, 0
7, 140288, Note_off_c, 8, 72, 0
7, 140288, Note_off_c, 8, 73, 0
7, 140288, Note_on_c, 8, 72, 113
7, 140288, Note_on_c, 8, 73, 113
7, 140544, Note_off_c, 8, 72, 0
7, 140544, Note_off_c, 8, 73, 0
7, 140544, Note_on_c, 8, 72, 112
7, 140544, Note_on_c, 8, 73, 112
7, 140672, Note_on_c, 8, 55, 90
7, 140672, Note_on_c, 8, 60, 90
7, 140736, Note_off_c, 8, 55, 0
7, 140736, Note_off_c, 8, 60, 0
7, 140800, Note_on_c, 8, 76, 124
7, 141056, Note_on_c, 8, 60, 88
7, 141056, Note_on_c, 8, 64, 88
7, 141120, Note_off_c, 8, 60, 0
7, 141120, Note_off_c, 8, 64, 0
7, 141312, Note_off_c, 8, 72, 0
7, 141312, Note_off_c, 8, 73, 0
7, 141312, Note_off_c, 8, 76, 0
7, 141312, Note_on_c, 8, 72, 112
7, 141312, Note_on_c, 8, 73, 112
7, 141312, Note_on_c, 8, 76, 112
7, 141312, Note_on_c, 8, 55, 90
7, 141312, Note_on_c, 8, 60, 90
7, 141376, Note_off_c, 8, 55, 0
7, 141376, Note_off_c, 8, 60, 0
7, 141824, Note_off_c, 8, 72, 0
7, 141824, Note_off_c, 8, 73, 0
7, 141824, Note_off_c, 8, 76, 0
7, 141824, Note_on_c, 8, 72, 114
7, 141824, Note_on_c, 8, 73, 114
7, 141824, Note_on_c, 8, 76, 114
7, 142080, Note_on_c, 8, 60, 92
7, 142080, Note_on_c, 8, 64, 92
7, 142144, Note_off_c, 8, 60, 0
7, 142144, Note_off_c, 8, 64, 0
7, 142336, Note_off_c, 8, 72, 0
7, 142336, Note_off_c, 8, 73, 0
7, 142336, Note_off_c, 8, 76, 0
7, 142336, Note_on_c, 8, 72, 113
7, 142336, Note_on_c, 8, 74, 113
7, 142336, Note_on_c, 8, 76, 113
7, 142336, Note_on_c, 8, 55, 95
7, 142336, Note_on_c, 8, 60, 95
7, 142400, Note_off_c, 8, 55, 0
7, 142400, Note_off_c, 8, 60, 0
7, 142720, Note_on_c, 8, 55, 85
7, 142720, Note_on_c, 8, 60, 85
7, 142784, Note_off_c, 8, 55, 0
7, 142784, Note_off_c, 8, 60, 0
7, 142848, Note_off_c, 8, 72, 0
7, 142848, Note_off_c, 8, 74, 0
7, 142848, Note_off_c, 8, 76, 0
7, 142848, Note_on_c, 8, 72, 108
7, 142848, Note_on_c, 8, 74, 108
7, 142848, Note_on_c, 8, 76, 108
7, 143104, Note_on_c, 8, 60, 88
7, 143104, Note_on_c, 8, 64, 88
7, 143168, Note_off_c, 8, 60, 0
7, 143168, Note_off_c, 8, 64, 0
7, 143360, Note_off_c, 8, 72, 0
7, 143360, Note_off_c, 8, 74, 0
7, 143360, Note_off_c, 8, 76, 0
7, 143360, Note_on_c, 8, 72, 113
7, 143360, Note_on_c, 8, 74, 113
7, 143360, Note_on_c, 8, 76, 113
7, 143360, Note_on_c, 8, 55, 87
7, 143360, Note_on_c, 8, 60, 87
7, 143424, Note_off_c, 8, 55, 0
7, 143424, Note_off_c, 8, 60, 0
7, 143744, Note_on_c, 8, 55, 80
7, 143744, Note_on_c, 8, 60, 80
7, 143808, Note_off_c, 8, 55, 0
7, 143808, Note_off_c, 8, 60, 0
7, 144128, Note_on_c, 8, 60, 68
7, 144128, Note_on_c, 8, 64, 68
7, 144192, Note_off_c, 8, 60, 0
7, 144192, Note_off_c, 8, 64, 0
7, 144384, Note_off_c, 8, 72, 0
7, 144384, Note_off_c, 8, 74, 0
7, 144384, Note_off_c, 8, 76, 0
7, 144384, Note_on_c, 8, 55, 65
7, 144384, Note_on_c, 8, 60, 65
7, 144448, Note_off_c, 8, 55, 0
7, 144448, Note_off_c, 8, 60, 0
7, 144640, Note_on_c, 8, 55, 68
7, 144640, Note_on_c, 8, 28, 127
7, 144704, Note_off_c, 8, 55, 0
7, 144704, Note_off_c, 8, 28, 0
7, 144768, Note_on_c, 8, 60, 79
7, 144832, Note_off_c, 8, 60, 0
7, 145024, Note_on_c, 8, 60, 65
7, 145024, Note_on_c, 8, 64, 65
7, 145024, Note_on_c, 8, 30, 127
7, 145088, Note_off_c, 8, 60, 0
7, 145088, Note_off_c, 8, 64, 0
7, 145088, Note_off_c, 8, 30, 0
7, 145280, Note_on_c, 8, 55, 66
7, 145280, Note_on_c, 8, 60, 66
7, 145344, Note_off_c, 8, 55, 0
7, 145344, Note_off_c, 8, 60, 0
7, 145408, Note_on_c, 8, 28, 127
7, 145472, Note_off_c, 8, 28, 0
7, 145664, Note_on_c, 8, 55, 67
7, 145728, Note_off_c, 8, 55, 0
7, 145792, Note_on_c, 8, 60, 79
7, 145792, Note_on_c, 8, 30, 127
7, 145856, Note_off_c, 8, 60, 0
7, 145856, Note_off_c, 8, 30, 0
7, 146048, Note_on_c, 8, 60, 63
7, 146048, Note_on_c, 8, 64, 63
7, 146112, Note_off_c, 8, 60, 0
7, 146112, Note_off_c, 8, 64, 0
7, 146304, Note_on_c, 8, 55, 64
7, 146304, Note_on_c, 8, 60, 64
7, 146368, Note_off_c, 8, 55, 0
7, 146368, Note_off_c, 8, 60, 0
7, 146688, Note_on_c, 8, 55, 60
7, 146688, Note_on_c, 8, 28, 127
7, 146752, Note_off_c, 8, 55, 0
7, 146752, Note_off_c, 8, 28, 0
7, 146816, Note_on_c, 8, 60, 74
7, 146880, Note_off_c, 8, 60, 0
7, 147072, Note_on_c, 8, 60, 66
7, 147072, Note_on_c, 8, 64, 66
7, 147072, Note_on_c, 8, 30, 127
7, 147136, Note_off_c, 8, 60, 0
7, 147136, Note_off_c, 8, 64, 0
7, 147136, Note_off_c, 8, 30, 0
7, 147328, Note_on_c, 8, 55, 65
7, 147328, Note_on_c, 8, 60, 65
7, 147392, Note_off_c, 8, 55, 0
7, 147392, Note_off_c, 8, 60, 0
7, 147456, Note_on_c, 8, 28, 127
7, 147520, Note_off_c, 8, 28, 0
7, 147712, Note_on_c, 8, 55, 68
7, 147776, Note_off_c, 8, 55, 0
7, 147840, Note_on_c, 8, 60, 77
7, 147840, Note_on_c, 8, 30, 127
7, 147904, Note_off_c, 8, 60, 0
7, 147904, Note_off_c, 8, 30, 0
7, 148096, Note_on_c, 8, 57, 101
7, 148096, Note_on_c, 8, 60, 101
7, 148096, Note_on_c, 8, 62, 101
7, 148352, Note_off_c, 8, 57, 0
7, 148352, Note_off_c, 8, 60, 0
7, 148352, Note_off_c, 8, 62, 0
7, 148608, Note_on_c, 8, 57, 105
7, 148608, Note_on_c, 8, 60, 105
7, 148608, Note_on_c, 8, 62, 105
7, 148736, Note_on_c, 8, 28, 127
7, 148864, Note_off_c, 8, 57, 0
7, 148864, Note_off_c, 8, 60, 0
7, 148864, Note_off_c, 8, 62, 0
7, 148864, Note_off_c, 8, 28, 0
7, 149120, Note_on_c, 8, 57, 104
7, 149120, Note_on_c, 8, 60, 104
7, 149120, Note_on_c, 8, 62, 104
7, 149248, Note_on_c, 8, 30, 127
7, 149376, Note_off_c, 8, 57, 0
7, 149376, Note_off_c, 8, 60, 0
7, 149376, Note_off_c, 8, 62, 0
7, 149376, Note_off_c, 8, 30, 0
7, 149504, Note_on_c, 8, 28, 127
7, 149632, Note_off_c, 8, 28, 0
7, 149632, Note_on_c, 8, 57, 96
7, 149632, Note_on_c, 8, 60, 96
7, 149632, Note_on_c, 8, 62, 96
7, 149888, Note_off_c, 8, 57, 0
7, 149888, Note_off_c, 8, 60, 0
7, 149888, Note_off_c, 8, 62, 0
7, 149888, Note_on_c, 8, 30, 127
7, 150016, Note_off_c, 8, 30, 0
7, 150144, Note_on_c, 8, 57, 105
7, 150144, Note_on_c, 8, 60, 105
7, 150144, Note_on_c, 8, 62, 105
7, 150272, Note_on_c, 8, 31, 127
7, 150400, Note_off_c, 8, 57, 0
7, 150400, Note_off_c, 8, 60, 0
7, 150400, Note_off_c, 8, 62, 0
7, 150400, Note_off_c, 8, 31, 0
7, 150656, Note_on_c, 8, 57, 100
7, 150656, Note_on_c, 8, 60, 100
7, 150656, Note_on_c, 8, 62, 100
7, 150912, Note_off_c, 8, 57, 0
7, 150912, Note_off_c, 8, 60, 0
7, 150912, Note_off_c, 8, 62, 0
7, 151168, Note_on_c, 8, 57, 107
7, 151168, Note_on_c, 8, 60, 107
7, 151168, Note_on_c, 8, 62, 107
7, 151296, Note_on_c, 8, 28, 127
7, 151424, Note_off_c, 8, 57, 0
7, 151424, Note_off_c, 8, 60, 0
7, 151424, Note_off_c, 8, 62, 0
7, 151424, Note_off_c, 8, 28, 0
7, 151680, Note_on_c, 8, 57, 99
7, 151680, Note_on_c, 8, 60, 99
7, 151680, Note_on_c, 8, 62, 99
7, 151680, Note_on_c, 8, 30, 127
7, 151808, Note_off_c, 8, 30, 0
7, 151936, Note_off_c, 8, 57, 0
7, 151936, Note_off_c, 8, 60, 0
7, 151936, Note_off_c, 8, 62, 0
7, 152192, Note_on_c, 8, 57, 103
7, 152192, Note_on_c, 8, 60, 103
7, 152192, Note_on_c, 8, 62, 103
7, 152192, Note_on_c, 8, 31, 127
7, 152320, Note_off_c, 8, 31, 0
7, 152448, Note_off_c, 8, 57, 0
7, 152448, Note_off_c, 8, 60, 0
7, 152448, Note_off_c, 8, 62, 0
7, 152704, Note_on_c, 8, 57, 101
7, 152704, Note_on_c, 8, 60, 101
7, 152704, Note_on_c, 8, 62, 101
7, 152960, Note_off_c, 8, 57, 0
7, 152960, Note_off_c, 8, 60, 0
7, 152960, Note_off_c, 8, 62, 0
7, 153216, Note_on_c, 8, 57, 101
7, 153216, Note_on_c, 8, 60, 101
7, 153216, Note_on_c, 8, 62, 101
7, 153344, Note_on_c, 8, 28, 127
7, 153472, Note_off_c, 8, 57, 0
7, 153472, Note_off_c, 8, 60, 0
7, 153472, Note_off_c, 8, 62, 0
7, 153472, Note_off_c, 8, 28, 0
7, 153728, Note_on_c, 8, 57, 104
7, 153728, Note_on_c, 8, 60, 104
7, 153728, Note_on_c, 8, 62, 104
7, 153728, Note_on_c, 8, 30, 127
7, 153856, Note_off_c, 8, 30, 0
7, 153984, Note_off_c, 8, 57, 0
7, 153984, Note_off_c, 8, 60, 0
7, 153984, Note_off_c, 8, 62, 0
7, 154112, Note_on_c, 8, 31, 127
7, 154240, Note_off_c, 8, 31, 0
7, 154240, Note_on_c, 8, 57, 100
7, 154240, Note_on_c, 8, 60, 100
7, 154240, Note_on_c, 8, 62, 100
7, 154496, Note_off_c, 8, 57, 0
7, 154496, Note_off_c, 8, 60, 0
7, 154496, Note_off_c, 8, 62, 0
7, 154496, Note_on_c, 8, 28, 127
7, 154624, Note_off_c, 8, 28, 0
7, 154752, Note_on_c, 8, 57, 101
7, 154752, Note_on_c, 8, 60, 101
7, 154752, Note_on_c, 8, 62, 101
7, 154880, Note_on_c, 8, 30, 127
7, 155008, Note_off_c, 8, 57, 0
7, 155008, Note_off_c, 8, 60, 0
7, 155008, Note_off_c, 8, 62, 0
7, 155008, Note_off_c, 8, 30, 0
7, 155264, Note_on_c, 8, 57, 106
7, 155264, Note_on_c, 8, 60, 106
7, 155264, Note_on_c, 8, 62, 106
7, 155392, Note_on_c, 8, 31, 127
7, 155520, Note_off_c, 8, 57, 0
7, 155520, Note_off_c, 8, 60, 0
7, 155520, Note_off_c, 8, 62, 0
7, 155520, Note_off_c, 8, 31, 0
7, 155776, Note_on_c, 8, 57, 100
7, 155776, Note_on_c, 8, 60, 100
7, 155776, Note_on_c, 8, 62, 100
7, 156032, Note_off_c, 8, 57, 0
7, 156032, Note_off_c, 8, 60, 0
7, 156032, Note_off_c, 8, 62, 0
7, 156032, Note_on_c, 8, 30, 127
7, 156160, Note_off_c, 8, 30, 0
7, 156288, Note_on_c, 8, 57, 106
7, 156288, Note_on_c, 8, 60, 106
7, 156288, Note_on_c, 8, 62, 106
7, 156544, Note_off_c, 8, 57, 0
7, 156544, Note_off_c, 8, 60, 0
7, 156544, Note_off_c, 8, 62, 0
7, 156544, Note_on_c, 8, 30, 127
7, 156672, Note_off_c, 8, 30, 0
7, 156800, Note_on_c, 8, 57, 101
7, 156800, Note_on_c, 8, 60, 101
7, 156800, Note_on_c, 8, 62, 101
7, 156928, Note_on_c, 8, 31, 127
7, 157056, Note_off_c, 8, 57, 0
7, 157056, Note_off_c, 8, 60, 0
7, 157056, Note_off_c, 8, 62, 0
7, 157056, Note_off_c, 8, 31, 0
7, 157312, Note_on_c, 8, 57, 100
7, 157312, Note_on_c, 8, 60, 100
7, 157312, Note_on_c, 8, 62, 100
7, 157312, Note_on_c, 8, 33, 127
7, 157440, Note_off_c, 8, 33, 0
7, 157568, Note_off_c, 8, 57, 0
7, 157568, Note_off_c, 8, 60, 0
7, 157568, Note_off_c, 8, 62, 0
7, 157824, Note_on_c, 8, 57, 107
7, 157824, Note_on_c, 8, 60, 107
7, 157824, Note_on_c, 8, 62, 107
7, 157824, Note_on_c, 8, 28, 127
7, 157952, Note_off_c, 8, 28, 0
7, 158080, Note_off_c, 8, 57, 0
7, 158080, Note_off_c, 8, 60, 0
7, 158080, Note_off_c, 8, 62, 0
7, 158336, Note_on_c, 8, 57, 100
7, 158336, Note_on_c, 8, 60, 100
7, 158336, Note_on_c, 8, 62, 100
7, 158592, Note_off_c, 8, 57, 0
7, 158592, Note_off_c, 8, 60, 0
7, 158592, Note_off_c, 8, 62, 0
7, 158720, Note_on_c, 8, 28, 127
7, 158848, Note_off_c, 8, 28, 0
7, 159104, Note_on_c, 8, 57, 100
7, 159104, Note_on_c, 8, 60, 100
7, 159104, Note_on_c, 8, 62, 100
7, 159104, Note_on_c, 8, 30, 127
7, 159232, Note_off_c, 8, 30, 0
7, 159360, Note_off_c, 8, 57, 0
7, 159360, Note_off_c, 8, 60, 0
7, 159360, Note_off_c, 8, 62, 0
7, 160128, Note_on_c, 8, 57, 100
7, 160128, Note_on_c, 8, 60, 100
7, 160128, Note_on_c, 8, 62, 100
7, 160384, Note_off_c, 8, 57, 0
7, 160384, Note_off_c, 8, 60, 0
7, 160384, Note_off_c, 8, 62, 0
7, 161024, Note_on_c, 8, 57, 97
7, 161024, Note_on_c, 8, 60, 97
7, 161024, Note_on_c, 8, 62, 97
7, 161024, Note_on_c, 8, 69, 97
7, 161280, Note_off_c, 8, 57, 0
7, 161280, Note_off_c, 8, 60, 0
7, 161280, Note_off_c, 8, 62, 0
7, 161280, Note_off_c, 8, 69, 0
7, 161962, Note_on_c, 8, 71, 101
7, 162133, Note_on_c, 8, 57, 85
7, 162133, Note_on_c, 8, 60, 85
7, 162133, Note_on_c, 8, 62, 85
7, 162133, Note_on_c, 8, 64, 85
7, 162133, Note_on_c, 8, 57, 103
7, 162133, Note_on_c, 8, 60, 103
7, 162133, Note_on_c, 8, 62, 103
7, 162136, Note_off_c, 8, 71, 0
7, 162295, Note_off_c, 8, 57, 0
7, 162295, Note_off_c, 8, 60, 0
7, 162295, Note_off_c, 8, 62, 0
7, 162295, Note_off_c, 8, 64, 0
7, 162304, Note_off_c, 8, 57, 0
7, 162304, Note_off_c, 8, 60, 0
7, 162304, Note_off_c, 8, 62, 0
7, 162304, Note_on_c, 8, 71, 127
7, 162560, Note_off_c, 8, 71, 0
7, 162986, Note_on_c, 8, 71, 105
7, 163157, Note_on_c, 8, 57, 88
7, 163157, Note_on_c, 8, 60, 88
7, 163157, Note_on_c, 8, 62, 88
7, 163157, Note_on_c, 8, 64, 88
7, 163157, Note_on_c, 8, 57, 102
7, 163157, Note_on_c, 8, 60, 102
7, 163157, Note_on_c, 8, 62, 102
7, 163160, Note_off_c, 8, 71, 0
7, 163319, Note_off_c, 8, 57, 0
7, 163319, Note_off_c, 8, 60, 0
7, 163319, Note_off_c, 8, 62, 0
7, 163319, Note_off_c, 8, 64, 0
7, 163328, Note_off_c, 8, 57, 0
7, 163328, Note_off_c, 8, 60, 0
7, 163328, Note_off_c, 8, 62, 0
7, 163328, Note_on_c, 8, 71, 127
7, 163584, Note_off_c, 8, 71, 0
7, 164010, Note_on_c, 8, 57, 97
7, 164010, Note_on_c, 8, 60, 97
7, 164010, Note_on_c, 8, 62, 97
7, 164010, Note_on_c, 8, 64, 97
7, 164010, Note_on_c, 8, 57, 102
7, 164010, Note_on_c, 8, 60, 102
7, 164010, Note_on_c, 8, 62, 102
7, 164181, Note_off_c, 8, 57, 0
7, 164181, Note_off_c, 8, 60, 0
7, 164181, Note_off_c, 8, 62, 0
7, 164181, Note_on_c, 8, 71, 116
7, 164184, Note_off_c, 8, 57, 0
7, 164184, Note_off_c, 8, 60, 0
7, 164184, Note_off_c, 8, 62, 0
7, 164184, Note_off_c, 8, 64, 0
7, 164343, Note_off_c, 8, 71, 0
7, 164778, Note_on_c, 8, 71, 104
7, 164949, Note_off_c, 8, 71, 0
7, 165034, Note_on_c, 8, 57, 104
7, 165034, Note_on_c, 8, 60, 104
7, 165034, Note_on_c, 8, 62, 104
7, 165034, Note_on_c, 8, 64, 104
7, 165034, Note_on_c, 8, 57, 113
7, 165034, Note_on_c, 8, 60, 113
7, 165034, Note_on_c, 8, 62, 113
7, 165205, Note_off_c, 8, 57, 0
7, 165205, Note_off_c, 8, 60, 0
7, 165205, Note_off_c, 8, 62, 0
7, 165205, Note_off_c, 8, 64, 0
7, 165205, Note_off_c, 8, 57, 0
7, 165205, Note_off_c, 8, 60, 0
7, 165205, Note_off_c, 8, 62, 0
7, 165290, Note_on_c, 8, 71, 100
7, 165461, Note_off_c, 8, 71, 0
7, 165546, Note_on_c, 8, 57, 104
7, 165546, Note_on_c, 8, 60, 104
7, 165546, Note_on_c, 8, 62, 104
7, 165546, Note_on_c, 8, 65, 104
7, 165546, Note_on_c, 8, 57, 116
7, 165546, Note_on_c, 8, 60, 116
7, 165546, Note_on_c, 8, 62, 116
7, 165632, Note_off_c, 8, 65, 0
7, 165632, Note_on_c, 8, 64, 89
7, 165717, Note_off_c, 8, 57, 0
7, 165717, Note_off_c, 8, 60, 0
7, 165717, Note_off_c, 8, 62, 0
7, 165717, Note_off_c, 8, 64, 0
7, 165717, Note_off_c, 8, 57, 0
7, 165717, Note_off_c, 8, 60, 0
7, 165717, Note_off_c, 8, 62, 0
7, 165802, Note_on_c, 8, 71, 99
7, 166016, Note_off_c, 8, 71, 0
7, 166656, Note_on_c, 8, 60, 114
7, 166656, Note_on_c, 8, 62, 114
7, 166656, Note_on_c, 8, 67, 114
7, 166656, Note_on_c, 8, 55, 125
7, 166656, Note_on_c, 8, 60, 125
7, 166656, Note_on_c, 8, 62, 125
7, 166912, Note_off_c, 8, 60, 0
7, 166912, Note_off_c, 8, 62, 0
7, 166912, Note_off_c, 8, 67, 0
7, 166912, Note_off_c, 8, 55, 0
7, 166912, Note_off_c, 8, 60, 0
7, 166912, Note_off_c, 8, 62, 0
7, 167168, Note_on_c, 8, 60, 112
7, 167168, Note_on_c, 8, 62, 112
7, 167168, Note_on_c, 8, 67, 112
7, 167168, Note_on_c, 8, 55, 125
7, 167168, Note_on_c, 8, 60, 125
7, 167168, Note_on_c, 8, 62, 125
7, 167424, Note_off_c, 8, 60, 0
7, 167424, Note_off_c, 8, 62, 0
7, 167424, Note_off_c, 8, 67, 0
7, 167424, Note_off_c, 8, 55, 0
7, 167424, Note_off_c, 8, 60, 0
7, 167424, Note_off_c, 8, 62, 0
7, 168192, Note_on_c, 8, 60, 110
7, 168192, Note_on_c, 8, 62, 110
7, 168192, Note_on_c, 8, 67, 110
7, 168192, Note_on_c, 8, 55, 122
7, 168192, Note_on_c, 8, 60, 122
7, 168192, Note_on_c, 8, 62, 122
7, 168448, Note_off_c, 8, 60, 0
7, 168448, Note_off_c, 8, 62, 0
7, 168448, Note_off_c, 8, 67, 0
7, 168448, Note_off_c, 8, 55, 0
7, 168448, Note_off_c, 8, 60, 0
7, 168448, Note_off_c, 8, 62, 0
7, 168960, Note_on_c, 8, 59, 104
7, 168960, Note_on_c, 8, 62, 104
7, 168960, Note_on_c, 8, 66, 104
7, 168960, Note_on_c, 8, 55, 121
7, 168960, Note_on_c, 8, 59, 121
7, 168960, Note_on_c, 8, 62, 121
7, 169130, Note_off_c, 8, 59, 0
7, 169130, Note_off_c, 8, 62, 0
7, 169130, Note_off_c, 8, 66, 0
7, 169130, Note_off_c, 8, 55, 0
7, 169130, Note_off_c, 8, 59, 0
7, 169130, Note_off_c, 8, 62, 0
7, 169472, Note_on_c, 8, 59, 100
7, 169472, Note_on_c, 8, 62, 100
7, 169472, Note_on_c, 8, 66, 100
7, 169472, Note_on_c, 8, 55, 125
7, 169472, Note_on_c, 8, 59, 125
7, 169472, Note_on_c, 8, 62, 125
7, 169642, Note_off_c, 8, 59, 0
7, 169642, Note_off_c, 8, 62, 0
7, 169642, Note_off_c, 8, 66, 0
7, 169642, Note_off_c, 8, 55, 0
7, 169642, Note_off_c, 8, 59, 0
7, 169642, Note_off_c, 8, 62, 0
7, 170496, Note_on_c, 8, 60, 102
7, 170496, Note_on_c, 8, 62, 102
7, 170496, Note_on_c, 8, 67, 102
7, 170496, Note_on_c, 8, 55, 115
7, 170496, Note_on_c, 8, 60, 115
7, 170496, Note_on_c, 8, 62, 115
7, 170581, Note_off_c, 8, 60, 0
7, 170581, Note_off_c, 8, 62, 0
7, 170581, Note_off_c, 8, 67, 0
7, 170581, Note_off_c, 8, 55, 0
7, 170581, Note_off_c, 8, 60, 0
7, 170581, Note_off_c, 8, 62, 0
7, 171008, Note_on_c, 8, 60, 100
7, 171008, Note_on_c, 8, 62, 100
7, 171008, Note_on_c, 8, 67, 100
7, 171008, Note_on_c, 8, 55, 118
7, 171008, Note_on_c, 8, 60, 118
7, 171008, Note_on_c, 8, 62, 118
7, 171093, Note_off_c, 8, 60, 0
7, 171093, Note_off_c, 8, 62, 0
7, 171093, Note_off_c, 8, 67, 0
7, 171093, Note_off_c, 8, 55, 0
7, 171093, Note_off_c, 8, 60, 0
7, 171093, Note_off_c, 8, 62, 0
7, 171520, Note_on_c, 8, 60, 100
7, 171520, Note_on_c, 8, 62, 100
7, 171520, Note_on_c, 8, 67, 100
7, 171520, Note_on_c, 8, 55, 112
7, 171520, Note_on_c, 8, 60, 112
7, 171520, Note_on_c, 8, 62, 112
7, 171690, Note_off_c, 8, 60, 0
7, 171690, Note_off_c, 8, 62, 0
7, 171690, Note_off_c, 8, 67, 0
7, 171690, Note_off_c, 8, 55, 0
7, 171690, Note_off_c, 8, 60, 0
7, 171690, Note_off_c, 8, 62, 0
7, 172288, Note_on_c, 8, 60, 99
7, 172288, Note_on_c, 8, 62, 99
7, 172288, Note_on_c, 8, 67, 99
7, 172288, Note_on_c, 8, 55, 112
7, 172288, Note_on_c, 8, 60, 112
7, 172288, Note_on_c, 8, 62, 112
7, 172458, Note_off_c, 8, 60, 0
7, 172458, Note_off_c, 8, 62, 0
7, 172458, Note_off_c, 8, 67, 0
7, 172458, Note_off_c, 8, 55, 0
7, 172458, Note_off_c, 8, 60, 0
7, 172458, Note_off_c, 8, 62, 0
7, 172970, Note_on_c, 8, 69, 104
7, 172970, Note_on_c, 8, 70, 104
7, 173056, Note_on_c, 8, 55, 116
7, 173056, Note_on_c, 8, 60, 116
7, 173056, Note_on_c, 8, 62, 116
7, 173056, Note_on_c, 8, 67, 116
7, 173056, Note_on_c, 8, 55, 127
7, 173056, Note_on_c, 8, 60, 127
7, 173056, Note_on_c, 8, 62, 127
7, 173057, Note_off_c, 8, 69, 0
7, 173057, Note_off_c, 8, 70, 0
7, 173136, Note_off_c, 8, 55, 0
7, 173136, Note_off_c, 8, 60, 0
7, 173136, Note_off_c, 8, 62, 0
7, 173136, Note_off_c, 8, 67, 0
7, 173141, Note_off_c, 8, 55, 0
7, 173141, Note_off_c, 8, 60, 0
7, 173141, Note_off_c, 8, 62, 0
7, 173226, Note_on_c, 8, 69, 99
7, 173226, Note_on_c, 8, 70, 99
7, 173312, Note_on_c, 8, 55, 104
7, 173312, Note_on_c, 8, 60, 104
7, 173312, Note_on_c, 8, 62, 104
7, 173312, Note_on_c, 8, 67, 104
7, 173312, Note_on_c, 8, 55, 127
7, 173312, Note_on_c, 8, 60, 127
7, 173312, Note_on_c, 8, 62, 127
7, 173313, Note_off_c, 8, 69, 0
7, 173313, Note_off_c, 8, 70, 0
7, 173392, Note_off_c, 8, 55, 0
7, 173392, Note_off_c, 8, 60, 0
7, 173392, Note_off_c, 8, 62, 0
7, 173392, Note_off_c, 8, 67, 0
7, 173397, Note_off_c, 8, 55, 0
7, 173397, Note_off_c, 8, 60, 0
7, 173397, Note_off_c, 8, 62, 0
7, 173482, Note_on_c, 8, 69, 102
7, 173482, Note_on_c, 8, 70, 102
7, 173568, Note_on_c, 8, 55, 111
7, 173568, Note_on_c, 8, 60, 111
7, 173568, Note_on_c, 8, 62, 111
7, 173568, Note_on_c, 8, 67, 111
7, 173568, Note_on_c, 8, 55, 127
7, 173568, Note_on_c, 8, 60, 127
7, 173568, Note_on_c, 8, 62, 127
7, 173569, Note_off_c, 8, 69, 0
7, 173569, Note_off_c, 8, 70, 0
7, 173648, Note_off_c, 8, 55, 0
7, 173648, Note_off_c, 8, 60, 0
7, 173648, Note_off_c, 8, 62, 0
7, 173648, Note_off_c, 8, 67, 0
7, 173653, Note_off_c, 8, 55, 0
7, 173653, Note_off_c, 8, 60, 0
7, 173653, Note_off_c, 8, 62, 0
7, 173738, Note_on_c, 8, 69, 102
7, 173738, Note_on_c, 8, 70, 102
7, 173824, Note_off_c, 8, 69, 0
7, 173824, Note_off_c, 8, 70, 0
7, 173994, Note_on_c, 8, 69, 100
7, 173994, Note_on_c, 8, 70, 100
7, 174080, Note_on_c, 8, 55, 103
7, 174080, Note_on_c, 8, 60, 103
7, 174080, Note_on_c, 8, 62, 103
7, 174080, Note_on_c, 8, 67, 103
7, 174080, Note_on_c, 8, 55, 127
7, 174080, Note_on_c, 8, 60, 127
7, 174080, Note_on_c, 8, 62, 127
7, 174081, Note_off_c, 8, 69, 0
7, 174081, Note_off_c, 8, 70, 0
7, 174160, Note_off_c, 8, 55, 0
7, 174160, Note_off_c, 8, 60, 0
7, 174160, Note_off_c, 8, 62, 0
7, 174160, Note_off_c, 8, 67, 0
7, 174165, Note_off_c, 8, 55, 0
7, 174165, Note_off_c, 8, 60, 0
7, 174165, Note_off_c, 8, 62, 0
7, 174250, Note_on_c, 8, 69, 104
7, 174250, Note_on_c, 8, 70, 104
7, 174336, Note_on_c, 8, 55, 110
7, 174336, Note_on_c, 8, 60, 110
7, 174336, Note_on_c, 8, 62, 110
7, 174336, Note_on_c, 8, 67, 110
7, 174336, Note_on_c, 8, 55, 116
7, 174336, Note_on_c, 8, 60, 116
7, 174336, Note_on_c, 8, 62, 116
7, 174337, Note_off_c, 8, 69, 0
7, 174337, Note_off_c, 8, 70, 0
7, 174416, Note_off_c, 8, 55, 0
7, 174416, Note_off_c, 8, 60, 0
7, 174416, Note_off_c, 8, 62, 0
7, 174416, Note_off_c, 8, 67, 0
7, 174421, Note_off_c, 8, 55, 0
7, 174421, Note_off_c, 8, 60, 0
7, 174421, Note_off_c, 8, 62, 0
7, 174506, Note_on_c, 8, 69, 105
7, 174506, Note_on_c, 8, 70, 105
7, 174592, Note_on_c, 8, 55, 109
7, 174592, Note_on_c, 8, 60, 109
7, 174592, Note_on_c, 8, 62, 109
7, 174592, Note_on_c, 8, 67, 109
7, 174592, Note_on_c, 8, 55, 127
7, 174592, Note_on_c, 8, 60, 127
7, 174592, Note_on_c, 8, 62, 127
7, 174593, Note_off_c, 8, 69, 0
7, 174593, Note_off_c, 8, 70, 0
7, 174672, Note_off_c, 8, 55, 0
7, 174672, Note_off_c, 8, 60, 0
7, 174672, Note_off_c, 8, 62, 0
7, 174672, Note_off_c, 8, 67, 0
7, 174677, Note_off_c, 8, 55, 0
7, 174677, Note_off_c, 8, 60, 0
7, 174677, Note_off_c, 8, 62, 0
7, 174762, Note_on_c, 8, 69, 95
7, 174762, Note_on_c, 8, 70, 95
7, 174848, Note_on_c, 8, 55, 106
7, 174848, Note_on_c, 8, 60, 106
7, 174848, Note_on_c, 8, 62, 106
7, 174848, Note_on_c, 8, 67, 106
7, 174848, Note_on_c, 8, 55, 127
7, 174848, Note_on_c, 8, 60, 127
7, 174848, Note_on_c, 8, 62, 127
7, 174849, Note_off_c, 8, 69, 0
7, 174849, Note_off_c, 8, 70, 0
7, 174928, Note_off_c, 8, 55, 0
7, 174928, Note_off_c, 8, 60, 0
7, 174928, Note_off_c, 8, 62, 0
7, 174928, Note_off_c, 8, 67, 0
7, 174933, Note_off_c, 8, 55, 0
7, 174933, Note_off_c, 8, 60, 0
7, 174933, Note_off_c, 8, 62, 0
7, 175018, Note_on_c, 8, 69, 105
7, 175018, Note_on_c, 8, 70, 105
7, 175104, Note_on_c, 8, 60, 107
7, 175104, Note_on_c, 8, 62, 107
7, 175104, Note_on_c, 8, 64, 107
7, 175104, Note_on_c, 8, 65, 107
7, 175104, Note_on_c, 8, 60, 127
7, 175104, Note_on_c, 8, 62, 127
7, 175104, Note_on_c, 8, 64, 127
7, 175105, Note_off_c, 8, 69, 0
7, 175105, Note_off_c, 8, 70, 0
7, 175184, Note_off_c, 8, 60, 0
7, 175184, Note_off_c, 8, 62, 0
7, 175184, Note_off_c, 8, 64, 0
7, 175184, Note_off_c, 8, 65, 0
7, 175189, Note_off_c, 8, 60, 0
7, 175189, Note_off_c, 8, 62, 0
7, 175189, Note_off_c, 8, 64, 0
7, 175274, Note_on_c, 8, 69, 104
7, 175274, Note_on_c, 8, 70, 104
7, 175274, Note_on_c, 8, 74, 104
7, 175360, Note_on_c, 8, 60, 96
7, 175360, Note_on_c, 8, 62, 96
7, 175360, Note_on_c, 8, 64, 96
7, 175360, Note_on_c, 8, 65, 96
7, 175360, Note_on_c, 8, 60, 127
7, 175360, Note_on_c, 8, 62, 127
7, 175360, Note_on_c, 8, 64, 127
7, 175361, Note_off_c, 8, 69, 0
7, 175361, Note_off_c, 8, 70, 0
7, 175361, Note_off_c, 8, 74, 0
7, 175440, Note_off_c, 8, 60, 0
7, 175440, Note_off_c, 8, 62, 0
7, 175440, Note_off_c, 8, 64, 0
7, 175440, Note_off_c, 8, 65, 0
7, 175445, Note_off_c, 8, 60, 0
7, 175445, Note_off_c, 8, 62, 0
7, 175445, Note_off_c, 8, 64, 0
7, 175530, Note_on_c, 8, 69, 106
7, 175530, Note_on_c, 8, 70, 106
7, 175530, Note_on_c, 8, 74, 106
7, 175616, Note_on_c, 8, 60, 95
7, 175616, Note_on_c, 8, 62, 95
7, 175616, Note_on_c, 8, 64, 95
7, 175616, Note_on_c, 8, 65, 95
7, 175616, Note_on_c, 8, 60, 127
7, 175616, Note_on_c, 8, 62, 127
7, 175616, Note_on_c, 8, 64, 127
7, 175617, Note_off_c, 8, 69, 0
7, 175617, Note_off_c, 8, 70, 0
7, 175617, Note_off_c, 8, 74, 0
7, 175696, Note_off_c, 8, 60, 0
7, 175696, Note_off_c, 8, 62, 0
7, 175696, Note_off_c, 8, 64, 0
7, 175696, Note_off_c, 8, 65, 0
7, 175701, Note_off_c, 8, 60, 0
7, 175701, Note_off_c, 8, 62, 0
7, 175701, Note_off_c, 8, 64, 0
7, 175786, Note_on_c, 8, 69, 101
7, 175786, Note_on_c, 8, 70, 101
7, 175786, Note_on_c, 8, 74, 101
7, 175872, Note_off_c, 8, 69, 0
7, 175872, Note_off_c, 8, 70, 0
7, 175872, Note_off_c, 8, 74, 0
7, 175872, Note_on_c, 8, 60, 102
7, 175872, Note_on_c, 8, 62, 102
7, 175872, Note_on_c, 8, 64, 102
7, 175872, Note_on_c, 8, 65, 102
7, 175872, Note_on_c, 8, 60, 127
7, 175872, Note_on_c, 8, 62, 127
7, 175872, Note_on_c, 8, 64, 127
7, 175957, Note_off_c, 8, 60, 0
7, 175957, Note_off_c, 8, 62, 0
7, 175957, Note_off_c, 8, 64, 0
7, 175957, Note_off_c, 8, 65, 0
7, 175957, Note_off_c, 8, 60, 0
7, 175957, Note_off_c, 8, 62, 0
7, 175957, Note_off_c, 8, 64, 0
7, 176042, Note_on_c, 8, 69, 102
7, 176042, Note_on_c, 8, 70, 102
7, 176042, Note_on_c, 8, 74, 102
7, 176128, Note_off_c, 8, 69, 0
7, 176128, Note_off_c, 8, 70, 0
7, 176128, Note_off_c, 8, 74, 0
7, 176213, Note_on_c, 8, 65, 104
7, 176213, Note_on_c, 8, 43, 99
7, 176213, Note_on_c, 8, 57, 99
7, 176213, Note_on_c, 8, 62, 99
7, 176213, Note_on_c, 8, 64, 99
7, 176255, Note_off_c, 8, 65, 0
7, 176255, Note_off_c, 8, 43, 0
7, 176255, Note_off_c, 8, 57, 0
7, 176255, Note_off_c, 8, 62, 0
7, 176255, Note_off_c, 8, 64, 0
7, 176384, Note_on_c, 8, 65, 103
7, 176384, Note_on_c, 8, 57, 102
7, 176384, Note_on_c, 8, 62, 102
7, 176384, Note_on_c, 8, 64, 102
7, 176469, Note_off_c, 8, 65, 0
7, 176469, Note_off_c, 8, 57, 0
7, 176469, Note_off_c, 8, 62, 0
7, 176469, Note_off_c, 8, 64, 0
7, 176554, Note_on_c, 8, 65, 109
7, 176554, Note_on_c, 8, 43, 109
7, 176554, Note_on_c, 8, 57, 109
7, 176554, Note_on_c, 8, 62, 109
7, 176554, Note_on_c, 8, 64, 109
7, 176639, Note_off_c, 8, 65, 0
7, 176639, Note_off_c, 8, 43, 0
7, 176639, Note_off_c, 8, 57, 0
7, 176639, Note_off_c, 8, 62, 0
7, 176639, Note_off_c, 8, 64, 0
7, 176725, Note_on_c, 8, 65, 114
7, 176725, Note_on_c, 8, 57, 113
7, 176725, Note_on_c, 8, 62, 113
7, 176725, Note_on_c, 8, 64, 113
7, 176810, Note_off_c, 8, 65, 0
7, 176810, Note_off_c, 8, 57, 0
7, 176810, Note_off_c, 8, 62, 0
7, 176810, Note_off_c, 8, 64, 0
7, 176981, Note_on_c, 8, 65, 102
7, 176981, Note_on_c, 8, 43, 98
7, 176981, Note_on_c, 8, 57, 98
7, 176981, Note_on_c, 8, 62, 98
7, 176981, Note_on_c, 8, 64, 98
7, 177023, Note_off_c, 8, 65, 0
7, 177023, Note_off_c, 8, 43, 0
7, 177023, Note_off_c, 8, 57, 0
7, 177023, Note_off_c, 8, 62, 0
7, 177023, Note_off_c, 8, 64, 0
7, 177152, Note_on_c, 8, 65, 106
7, 177152, Note_on_c, 8, 57, 99
7, 177152, Note_on_c, 8, 60, 99
7, 177152, Note_on_c, 8, 62, 99
7, 177194, Note_off_c, 8, 65, 0
7, 177194, Note_off_c, 8, 57, 0
7, 177194, Note_off_c, 8, 60, 0
7, 177194, Note_off_c, 8, 62, 0
7, 177322, Note_on_c, 8, 65, 97
7, 177322, Note_on_c, 8, 43, 104
7, 177322, Note_on_c, 8, 57, 104
7, 177322, Note_on_c, 8, 60, 104
7, 177322, Note_on_c, 8, 62, 104
7, 177365, Note_off_c, 8, 65, 0
7, 177365, Note_off_c, 8, 43, 0
7, 177365, Note_off_c, 8, 57, 0
7, 177365, Note_off_c, 8, 60, 0
7, 177365, Note_off_c, 8, 62, 0
7, 177408, Note_on_c, 8, 65, 111
7, 177408, Note_on_c, 8, 57, 111
7, 177408, Note_on_c, 8, 60, 111
7, 177408, Note_on_c, 8, 62, 111
7, 177493, Note_off_c, 8, 65, 0
7, 177493, Note_off_c, 8, 57, 0
7, 177493, Note_off_c, 8, 60, 0
7, 177493, Note_off_c, 8, 62, 0
7, 177578, Note_on_c, 8, 65, 111
7, 177578, Note_on_c, 8, 43, 112
7, 177578, Note_on_c, 8, 57, 112
7, 177578, Note_on_c, 8, 60, 112
7, 177578, Note_on_c, 8, 62, 112
7, 177663, Note_off_c, 8, 65, 0
7, 177663, Note_off_c, 8, 43, 0
7, 177663, Note_off_c, 8, 57, 0
7, 177663, Note_off_c, 8, 60, 0
7, 177663, Note_off_c, 8, 62, 0
7, 177749, Note_on_c, 8, 65, 115
7, 177749, Note_on_c, 8, 43, 116
7, 177749, Note_on_c, 8, 57, 116
7, 177749, Note_on_c, 8, 60, 116
7, 177749, Note_on_c, 8, 62, 116
7, 177834, Note_off_c, 8, 65, 0
7, 177834, Note_off_c, 8, 43, 0
7, 177834, Note_off_c, 8, 57, 0
7, 177834, Note_off_c, 8, 60, 0
7, 177834, Note_off_c, 8, 62, 0
7, 177920, Note_on_c, 8, 65, 112
7, 177920, Note_on_c, 8, 57, 113
7, 177920, Note_on_c, 8, 60, 113
7, 177920, Note_on_c, 8, 62, 113
7, 178005, Note_off_c, 8, 65, 0
7, 178005, Note_off_c, 8, 57, 0
7, 178005, Note_off_c, 8, 60, 0
7, 178005, Note_off_c, 8, 62, 0
7, 178090, Note_on_c, 8, 65, 117
7, 178090, Note_on_c, 8, 43, 110
7, 178090, Note_on_c, 8, 57, 110
7, 178090, Note_on_c, 8, 60, 110
7, 178090, Note_on_c, 8, 62, 110
7, 178175, Note_off_c, 8, 65, 0
7, 178175, Note_off_c, 8, 43, 0
7, 178175, Note_off_c, 8, 57, 0
7, 178175, Note_off_c, 8, 60, 0
7, 178175, Note_off_c, 8, 62, 0
7, 178261, Note_on_c, 8, 65, 113
7, 178261, Note_on_c, 8, 57, 115
7, 178261, Note_on_c, 8, 60, 115
7, 178261, Note_on_c, 8, 62, 115
7, 178346, Note_off_c, 8, 65, 0
7, 178346, Note_off_c, 8, 57, 0
7, 178346, Note_off_c, 8, 60, 0
7, 178346, Note_off_c, 8, 62, 0
7, 178432, Note_on_c, 8, 65, 108
7, 178432, Note_on_c, 8, 57, 113
7, 178432, Note_on_c, 8, 60, 113
7, 178432, Note_on_c, 8, 62, 113
7, 178517, Note_off_c, 8, 65, 0
7, 178517, Note_off_c, 8, 57, 0
7, 178517, Note_off_c, 8, 60, 0
7, 178517, Note_off_c, 8, 62, 0
7, 178602, Note_on_c, 8, 65, 116
7, 178602, Note_on_c, 8, 43, 110
7, 178602, Note_on_c, 8, 57, 110
7, 178602, Note_on_c, 8, 60, 110
7, 178602, Note_on_c, 8, 62, 110
7, 178687, Note_off_c, 8, 65, 0
7, 178687, Note_off_c, 8, 43, 0
7, 178687, Note_off_c, 8, 57, 0
7, 178687, Note_off_c, 8, 60, 0
7, 178687, Note_off_c, 8, 62, 0
7, 178773, Note_on_c, 8, 65, 110
7, 178773, Note_on_c, 8, 57, 114
7, 178773, Note_on_c, 8, 60, 114
7, 178773, Note_on_c, 8, 62, 114
7, 178858, Note_off_c, 8, 65, 0
7, 178858, Note_off_c, 8, 57, 0
7, 178858, Note_off_c, 8, 60, 0
7, 178858, Note_off_c, 8, 62, 0
7, 178944, Note_on_c, 8, 65, 113
7, 178944, Note_on_c, 8, 43, 109
7, 178944, Note_on_c, 8, 57, 109
7, 178944, Note_on_c, 8, 60, 109
7, 178944, Note_on_c, 8, 62, 109
7, 178986, Note_off_c, 8, 65, 0
7, 178986, Note_off_c, 8, 43, 0
7, 178986, Note_off_c, 8, 57, 0
7, 178986, Note_off_c, 8, 60, 0
7, 178986, Note_off_c, 8, 62, 0
7, 179114, Note_on_c, 8, 65, 99
7, 179114, Note_on_c, 8, 57, 101
7, 179114, Note_on_c, 8, 60, 101
7, 179114, Note_on_c, 8, 62, 101
7, 179157, Note_off_c, 8, 65, 0
7, 179157, Note_off_c, 8, 57, 0
7, 179157, Note_off_c, 8, 60, 0
7, 179157, Note_off_c, 8, 62, 0
7, 179200, Note_on_c, 8, 65, 116
7, 179200, Note_on_c, 8, 43, 115
7, 179200, Note_on_c, 8, 57, 115
7, 179200, Note_on_c, 8, 60, 115
7, 179200, Note_on_c, 8, 62, 115
7, 179285, Note_off_c, 8, 65, 0
7, 179285, Note_off_c, 8, 43, 0
7, 179285, Note_off_c, 8, 57, 0
7, 179285, Note_off_c, 8, 60, 0
7, 179285, Note_off_c, 8, 62, 0
7, 179370, Note_on_c, 8, 65, 113
7, 179370, Note_on_c, 8, 57, 113
7, 179370, Note_on_c, 8, 60, 113
7, 179370, Note_on_c, 8, 62, 113
7, 179455, Note_off_c, 8, 65, 0
7, 179455, Note_off_c, 8, 57, 0
7, 179455, Note_off_c, 8, 60, 0
7, 179455, Note_off_c, 8, 62, 0
7, 179541, Note_on_c, 8, 65, 115
7, 179541, Note_on_c, 8, 43, 114
7, 179541, Note_on_c, 8, 57, 114
7, 179541, Note_on_c, 8, 60, 114
7, 179541, Note_on_c, 8, 62, 114
7, 179626, Note_off_c, 8, 65, 0
7, 179626, Note_off_c, 8, 43, 0
7, 179626, Note_off_c, 8, 57, 0
7, 179626, Note_off_c, 8, 60, 0
7, 179626, Note_off_c, 8, 62, 0
7, 179712, Note_on_c, 8, 65, 111
7, 179712, Note_on_c, 8, 57, 114
7, 179712, Note_on_c, 8, 60, 114
7, 179712, Note_on_c, 8, 62, 114
7, 179797, Note_off_c, 8, 65, 0
7, 179797, Note_off_c, 8, 57, 0
7, 179797, Note_off_c, 8, 60, 0
7, 179797, Note_off_c, 8, 62, 0
7, 179882, Note_on_c, 8, 65, 115
7, 179882, Note_on_c, 8, 43, 115
7, 179882, Note_on_c, 8, 57, 115
7, 179882, Note_on_c, 8, 60, 115
7, 179882, Note_on_c, 8, 62, 115
7, 179967, Note_off_c, 8, 65, 0
7, 179967, Note_off_c, 8, 43, 0
7, 179967, Note_off_c, 8, 57, 0
7, 179967, Note_off_c, 8, 60, 0
7, 179967, Note_off_c, 8, 62, 0
7, 180053, Note_on_c, 8, 65, 111
7, 180053, Note_on_c, 8, 43, 115
7, 180053, Note_on_c, 8, 57, 115
7, 180053, Note_on_c, 8, 60, 115
7, 180053, Note_on_c, 8, 62, 115
7, 180138, Note_off_c, 8, 65, 0
7, 180138, Note_off_c, 8, 43, 0
7, 180138, Note_off_c, 8, 57, 0
7, 180138, Note_off_c, 8, 60, 0
7, 180138, Note_off_c, 8, 62, 0
7, 180224, Note_on_c, 8, 65, 111
7, 180224, Note_on_c, 8, 43, 109
7, 180224, Note_on_c, 8, 57, 109
7, 180224, Note_on_c, 8, 60, 109
7, 180224, Note_on_c, 8, 62, 109
7, 180309, Note_off_c, 8, 65, 0
7, 180309, Note_off_c, 8, 43, 0
7, 180309, Note_off_c, 8, 57, 0
7, 180309, Note_off_c, 8, 60, 0
7, 180309, Note_off_c, 8, 62, 0
7, 180394, Note_on_c, 8, 62, 112
7, 180394, Note_on_c, 8, 65, 112
7, 180394, Note_on_c, 8, 41, 109
7, 180394, Note_on_c, 8, 59, 109
7, 180394, Note_on_c, 8, 60, 109
7, 180394, Note_on_c, 8, 62, 109
7, 180479, Note_off_c, 8, 62, 0
7, 180479, Note_off_c, 8, 65, 0
7, 180479, Note_off_c, 8, 41, 0
7, 180479, Note_off_c, 8, 59, 0
7, 180479, Note_off_c, 8, 60, 0
7, 180479, Note_off_c, 8, 62, 0
7, 180565, Note_on_c, 8, 62, 107
7, 180565, Note_on_c, 8, 65, 107
7, 180565, Note_on_c, 8, 59, 110
7, 180565, Note_on_c, 8, 60, 110
7, 180565, Note_on_c, 8, 62, 110
7, 180650, Note_off_c, 8, 62, 0
7, 180650, Note_off_c, 8, 65, 0
7, 180650, Note_off_c, 8, 59, 0
7, 180650, Note_off_c, 8, 60, 0
7, 180650, Note_off_c, 8, 62, 0
7, 180736, Note_on_c, 8, 62, 112
7, 180736, Note_on_c, 8, 65, 112
7, 180736, Note_on_c, 8, 41, 114
7, 180736, Note_on_c, 8, 59, 114
7, 180736, Note_on_c, 8, 60, 114
7, 180736, Note_on_c, 8, 62, 114
7, 180821, Note_off_c, 8, 62, 0
7, 180821, Note_off_c, 8, 65, 0
7, 180821, Note_off_c, 8, 41, 0
7, 180821, Note_off_c, 8, 59, 0
7, 180821, Note_off_c, 8, 60, 0
7, 180821, Note_off_c, 8, 62, 0
7, 180906, Note_on_c, 8, 62, 111
7, 180906, Note_on_c, 8, 65, 111
7, 180906, Note_on_c, 8, 59, 113
7, 180906, Note_on_c, 8, 60, 113
7, 180906, Note_on_c, 8, 62, 113
7, 180991, Note_off_c, 8, 62, 0
7, 180991, Note_off_c, 8, 65, 0
7, 180991, Note_off_c, 8, 59, 0
7, 180991, Note_off_c, 8, 60, 0
7, 180991, Note_off_c, 8, 62, 0
7, 181077, Note_on_c, 8, 62, 117
7, 181077, Note_on_c, 8, 65, 117
7, 181077, Note_on_c, 8, 41, 111
7, 181077, Note_on_c, 8, 59, 111
7, 181077, Note_on_c, 8, 60, 111
7, 181077, Note_on_c, 8, 62, 111
7, 181162, Note_off_c, 8, 62, 0
7, 181162, Note_off_c, 8, 65, 0
7, 181162, Note_off_c, 8, 41, 0
7, 181162, Note_off_c, 8, 59, 0
7, 181162, Note_off_c, 8, 60, 0
7, 181162, Note_off_c, 8, 62, 0
7, 181248, Note_on_c, 8, 62, 111
7, 181248, Note_on_c, 8, 65, 111
7, 181248, Note_on_c, 8, 41, 114
7, 181248, Note_on_c, 8, 59, 114
7, 181248, Note_on_c, 8, 60, 114
7, 181248, Note_on_c, 8, 62, 114
7, 181333, Note_off_c, 8, 62, 0
7, 181333, Note_off_c, 8, 65, 0
7, 181333, Note_off_c, 8, 41, 0
7, 181333, Note_off_c, 8, 59, 0
7, 181333, Note_off_c, 8, 60, 0
7, 181333, Note_off_c, 8, 62, 0
7, 181418, Note_on_c, 8, 62, 113
7, 181418, Note_on_c, 8, 65, 113
7, 181418, Note_on_c, 8, 59, 116
7, 181418, Note_on_c, 8, 60, 116
7, 181418, Note_on_c, 8, 62, 116
7, 181503, Note_off_c, 8, 62, 0
7, 181503, Note_off_c, 8, 65, 0
7, 181503, Note_off_c, 8, 59, 0
7, 181503, Note_off_c, 8, 60, 0
7, 181503, Note_off_c, 8, 62, 0
7, 181589, Note_on_c, 8, 62, 113
7, 181589, Note_on_c, 8, 65, 113
7, 181589, Note_on_c, 8, 59, 114
7, 181589, Note_on_c, 8, 60, 114
7, 181589, Note_on_c, 8, 62, 114
7, 181674, Note_off_c, 8, 62, 0
7, 181674, Note_off_c, 8, 65, 0
7, 181674, Note_off_c, 8, 59, 0
7, 181674, Note_off_c, 8, 60, 0
7, 181674, Note_off_c, 8, 62, 0
7, 181760, Note_on_c, 8, 62, 115
7, 181760, Note_on_c, 8, 65, 115
7, 181760, Note_on_c, 8, 59, 115
7, 181760, Note_on_c, 8, 60, 115
7, 181760, Note_on_c, 8, 62, 115
7, 181845, Note_off_c, 8, 62, 0
7, 181845, Note_off_c, 8, 65, 0
7, 181845, Note_off_c, 8, 59, 0
7, 181845, Note_off_c, 8, 60, 0
7, 181845, Note_off_c, 8, 62, 0
7, 181930, Note_on_c, 8, 62, 113
7, 181930, Note_on_c, 8, 65, 113
7, 181930, Note_on_c, 8, 59, 111
7, 181930, Note_on_c, 8, 60, 111
7, 181930, Note_on_c, 8, 62, 111
7, 182015, Note_off_c, 8, 62, 0
7, 182015, Note_off_c, 8, 65, 0
7, 182015, Note_off_c, 8, 59, 0
7, 182015, Note_off_c, 8, 60, 0
7, 182015, Note_off_c, 8, 62, 0
7, 182101, Note_on_c, 8, 62, 117
7, 182101, Note_on_c, 8, 65, 117
7, 182101, Note_on_c, 8, 59, 115
7, 182101, Note_on_c, 8, 60, 115
7, 182101, Note_on_c, 8, 62, 115
7, 182186, Note_off_c, 8, 62, 0
7, 182186, Note_off_c, 8, 65, 0
7, 182186, Note_off_c, 8, 59, 0
7, 182186, Note_off_c, 8, 60, 0
7, 182186, Note_off_c, 8, 62, 0
7, 182272, Note_on_c, 8, 62, 115
7, 182272, Note_on_c, 8, 65, 115
7, 182272, Note_on_c, 8, 59, 109
7, 182272, Note_on_c, 8, 60, 109
7, 182272, Note_on_c, 8, 62, 109
7, 182357, Note_off_c, 8, 62, 0
7, 182357, Note_off_c, 8, 65, 0
7, 182357, Note_off_c, 8, 59, 0
7, 182357, Note_off_c, 8, 60, 0
7, 182357, Note_off_c, 8, 62, 0
7, 182442, Note_on_c, 8, 62, 116
7, 182442, Note_on_c, 8, 65, 116
7, 182442, Note_on_c, 8, 59, 115
7, 182442, Note_on_c, 8, 60, 115
7, 182442, Note_on_c, 8, 62, 115
7, 182527, Note_off_c, 8, 62, 0
7, 182527, Note_off_c, 8, 65, 0
7, 182527, Note_off_c, 8, 59, 0
7, 182527, Note_off_c, 8, 60, 0
7, 182527, Note_off_c, 8, 62, 0
7, 182613, Note_on_c, 8, 62, 113
7, 182613, Note_on_c, 8, 65, 113
7, 182613, Note_on_c, 8, 59, 110
7, 182613, Note_on_c, 8, 60, 110
7, 182613, Note_on_c, 8, 62, 110
7, 182698, Note_off_c, 8, 62, 0
7, 182698, Note_off_c, 8, 65, 0
7, 182698, Note_off_c, 8, 59, 0
7, 182698, Note_off_c, 8, 60, 0
7, 182698, Note_off_c, 8, 62, 0
7, 182784, Note_on_c, 8, 62, 109
7, 182784, Note_on_c, 8, 65, 109
7, 182784, Note_on_c, 8, 59, 118
7, 182784, Note_on_c, 8, 60, 118
7, 182784, Note_on_c, 8, 62, 118
7, 182869, Note_off_c, 8, 62, 0
7, 182869, Note_off_c, 8, 65, 0
7, 182869, Note_off_c, 8, 59, 0
7, 182869, Note_off_c, 8, 60, 0
7, 182869, Note_off_c, 8, 62, 0
7, 182954, Note_on_c, 8, 62, 116
7, 182954, Note_on_c, 8, 65, 116
7, 182954, Note_on_c, 8, 59, 113
7, 182954, Note_on_c, 8, 60, 113
7, 182954, Note_on_c, 8, 62, 113
7, 183039, Note_off_c, 8, 62, 0
7, 183039, Note_off_c, 8, 65, 0
7, 183039, Note_off_c, 8, 59, 0
7, 183039, Note_off_c, 8, 60, 0
7, 183039, Note_off_c, 8, 62, 0
7, 183125, Note_on_c, 8, 62, 112
7, 183125, Note_on_c, 8, 65, 112
7, 183125, Note_on_c, 8, 60, 123
7, 183125, Note_on_c, 8, 62, 123
7, 183125, Note_on_c, 8, 65, 123
7, 183210, Note_off_c, 8, 62, 0
7, 183210, Note_off_c, 8, 65, 0
7, 183210, Note_off_c, 8, 60, 0
7, 183210, Note_off_c, 8, 62, 0
7, 183210, Note_off_c, 8, 65, 0
7, 183296, Note_on_c, 8, 62, 115
7, 183296, Note_on_c, 8, 65, 115
7, 183296, Note_on_c, 8, 60, 115
7, 183296, Note_on_c, 8, 62, 115
7, 183296, Note_on_c, 8, 65, 115
7, 183424, Note_off_c, 8, 62, 0
7, 183424, Note_off_c, 8, 65, 0
7, 183424, Note_off_c, 8, 60, 0
7, 183424, Note_off_c, 8, 62, 0
7, 183424, Note_off_c, 8, 65, 0
7, 183552, Note_on_c, 8, 62, 117
7, 183552, Note_on_c, 8, 65, 117
7, 183552, Note_on_c, 8, 60, 112
7, 183552, Note_on_c, 8, 62, 112
7, 183552, Note_on_c, 8, 65, 112
7, 183680, Note_off_c, 8, 62, 0
7, 183680, Note_off_c, 8, 65, 0
7, 183680, Note_off_c, 8, 60, 0
7, 183680, Note_off_c, 8, 62, 0
7, 183680, Note_off_c, 8, 65, 0
7, 183808, Note_on_c, 8, 62, 112
7, 183808, Note_on_c, 8, 65, 112
7, 183808, Note_on_c, 8, 70, 127
7, 183808, Note_on_c, 8, 60, 113
7, 183808, Note_on_c, 8, 62, 113
7, 183808, Note_on_c, 8, 65, 113
7, 183936, Note_off_c, 8, 62, 0
7, 183936, Note_off_c, 8, 65, 0
7, 183936, Note_off_c, 8, 60, 0
7, 183936, Note_off_c, 8, 62, 0
7, 183936, Note_off_c, 8, 65, 0
7, 184064, Note_on_c, 8, 62, 108
7, 184064, Note_on_c, 8, 65, 108
7, 184064, Note_on_c, 8, 60, 117
7, 184064, Note_on_c, 8, 62, 117
7, 184064, Note_on_c, 8, 65, 117
7, 184192, Note_off_c, 8, 62, 0
7, 184192, Note_off_c, 8, 65, 0
7, 184192, Note_off_c, 8, 60, 0
7, 184192, Note_off_c, 8, 62, 0
7, 184192, Note_off_c, 8, 65, 0
7, 184320, Note_on_c, 8, 62, 103
7, 184320, Note_on_c, 8, 60, 115
7, 184320, Note_on_c, 8, 62, 115
7, 184320, Note_on_c, 8, 65, 115
7, 184448, Note_off_c, 8, 62, 0
7, 184448, Note_off_c, 8, 60, 0
7, 184448, Note_off_c, 8, 62, 0
7, 184448, Note_off_c, 8, 65, 0
7, 184576, Note_on_c, 8, 62, 111
7, 184576, Note_on_c, 8, 60, 119
7, 184576, Note_on_c, 8, 62, 119
7, 184576, Note_on_c, 8, 65, 119
7, 184704, Note_off_c, 8, 62, 0
7, 184704, Note_off_c, 8, 60, 0
7, 184704, Note_off_c, 8, 62, 0
7, 184704, Note_off_c, 8, 65, 0
7, 184832, Note_on_c, 8, 62, 113
7, 184832, Note_on_c, 8, 71, 127
7, 184832, Note_on_c, 8, 60, 121
7, 184832, Note_on_c, 8, 62, 121
7, 184832, Note_on_c, 8, 65, 121
7, 184960, Note_off_c, 8, 62, 0
7, 184960, Note_off_c, 8, 60, 0
7, 184960, Note_off_c, 8, 62, 0
7, 184960, Note_off_c, 8, 65, 0
7, 185088, Note_on_c, 8, 62, 114
7, 185088, Note_on_c, 8, 60, 118
7, 185088, Note_on_c, 8, 62, 118
7, 185088, Note_on_c, 8, 65, 118
7, 185216, Note_off_c, 8, 62, 0
7, 185216, Note_off_c, 8, 60, 0
7, 185216, Note_off_c, 8, 62, 0
7, 185216, Note_off_c, 8, 65, 0
7, 185344, Note_on_c, 8, 67, 123
7, 185344, Note_on_c, 8, 60, 119
7, 185344, Note_on_c, 8, 62, 119
7, 185344, Note_on_c, 8, 65, 119
7, 185472, Note_off_c, 8, 60, 0
7, 185472, Note_off_c, 8, 62, 0
7, 185472, Note_off_c, 8, 65, 0
7, 185600, Note_on_c, 8, 60, 124
7, 185600, Note_on_c, 8, 62, 124
7, 185600, Note_on_c, 8, 65, 124
7, 185728, Note_off_c, 8, 60, 0
7, 185728, Note_off_c, 8, 62, 0
7, 185728, Note_off_c, 8, 65, 0
7, 185856, Note_off_c, 8, 70, 0
7, 185856, Note_on_c, 8, 70, 127
7, 185856, Note_on_c, 8, 60, 125
7, 185856, Note_on_c, 8, 62, 125
7, 185856, Note_on_c, 8, 65, 125
7, 185984, Note_off_c, 8, 60, 0
7, 185984, Note_off_c, 8, 62, 0
7, 185984, Note_off_c, 8, 65, 0
7, 186112, Note_on_c, 8, 60, 126
7, 186112, Note_on_c, 8, 62, 126
7, 186112, Note_on_c, 8, 65, 126
7, 186240, Note_off_c, 8, 60, 0
7, 186240, Note_off_c, 8, 62, 0
7, 186240, Note_off_c, 8, 65, 0
7, 186368, Note_on_c, 8, 65, 125
7, 186624, Note_off_c, 8, 71, 0
7, 187392, Note_off_c, 8, 70, 0
7, 187733, Note_off_c, 8, 67, 0
7, 188074, Note_on_c, 8, 71, 127
7, 188757, Note_on_c, 8, 64, 127
7, 189098, Note_on_c, 8, 62, 114
7, 189440, Note_on_c, 8, 67, 126
7, 189696, Note_off_c, 8, 71, 0
7, 189952, Note_off_c, 8, 65, 0
7, 189952, Note_off_c, 8, 64, 0
7, 189952, Note_on_c, 8, 69, 127
7, 190464, Note_off_c, 8, 69, 0
7, 190464, Note_on_c, 8, 65, 122
7, 190634, Note_on_c, 8, 60, 120
7, 190976, Note_on_c, 8, 59, 118
7, 191146, Note_off_c, 8, 62, 0
7, 191146, Note_on_c, 8, 55, 113
7, 191488, Note_off_c, 8, 67, 0
7, 191658, Note_off_c, 8, 65, 0
7, 191658, Note_on_c, 8, 64, 120
7, 192000, Note_off_c, 8, 60, 0
7, 192000, Note_on_c, 8, 62, 127
7, 192170, Note_on_c, 8, 60, 127
7, 192512, Note_off_c, 8, 59, 0
7, 192512, Note_off_c, 8, 55, 0
7, 192682, Note_on_c, 8, 59, 121
7, 193024, Note_on_c, 8, 55, 112
7, 193365, Note_off_c, 8, 59, 0
7, 193365, Note_on_c, 8, 53, 127
7, 193706, Note_off_c, 8, 60, 0
7, 193706, Note_on_c, 8, 50, 125
7, 194048, Note_on_c, 8, 48, 113
7, 194304, Note_off_c, 8, 48, 0
7, 194304, Note_on_c, 8, 47, 114
7, 194560, Note_off_c, 8, 64, 0
7, 194560, Note_off_c, 8, 62, 0
7, 194730, Note_on_c, 8, 59, 127
7, 195072, Note_off_c, 8, 53, 0
7, 195072, Note_off_c, 8, 55, 0
7, 195072, Note_on_c, 8, 65, 127
7, 195413, Note_off_c, 8, 59, 0
7, 195413, Note_off_c, 8, 65, 0
7, 195413, Note_on_c, 8, 58, 124
7, 195413, Note_on_c, 8, 59, 124
7, 195413, Note_on_c, 8, 65, 124
7, 195584, Note_off_c, 8, 50, 0
7, 195584, Note_off_c, 8, 47, 0
7, 195754, Note_on_c, 8, 46, 127
7, 196096, Note_off_c, 8, 59, 0
7, 196096, Note_on_c, 8, 43, 117
7, 196437, Note_on_c, 8, 52, 127
7, 196778, Note_on_c, 8, 53, 127
7, 196864, Note_off_c, 8, 65, 0
7, 196864, Note_off_c, 8, 46, 0
7, 197120, Note_off_c, 8, 58, 0
7, 197120, Note_on_c, 8, 48, 116
7, 197632, Note_on_c, 8, 43, 112
7, 198314, Note_on_c, 8, 38, 125
7, 198656, Note_on_c, 8, 53, 119
7, 198826, Note_off_c, 8, 53, 0
7, 198826, Note_on_c, 8, 46, 111
7, 200192, Note_off_c, 8, 52, 0
7, 200192, Note_off_c, 8, 38, 0
7, 200192, Note_on_c, 8, 36, 116
7, 200362, Note_on_c, 8, 34, 115
7, 200533, Note_on_c, 8, 40, 108
7, 202880, Note_off_c, 8, 48, 0
7, 202880, Note_off_c, 8, 43, 0
7, 202880, Note_off_c, 8, 53, 0
7, 202880, Note_off_c, 8, 43, 0
7, 202880, Note_off_c, 8, 46, 0
7, 202880, Note_off_c, 8, 40, 0
7, 202880, Note_off_c, 8, 36, 0
7, 202880, Note_off_c, 8, 34, 0
7, 218752, Note_on_c, 8, 60, 88
7, 218752, Note_on_c, 8, 66, 88
7, 218752, Note_on_c, 8, 69, 88
7, 218816, Note_off_c, 8, 60, 0
7, 218816, Note_off_c, 8, 66, 0
7, 218816, Note_off_c, 8, 69, 0
7, 218880, Note_on_c, 8, 60, 96
7, 218880, Note_on_c, 8, 66, 96
7, 218880, Note_on_c, 8, 69, 96
7, 218944, Note_off_c, 8, 60, 0
7, 218944, Note_off_c, 8, 66, 0
7, 218944, Note_off_c, 8, 69, 0
7, 219008, Note_on_c, 8, 60, 101
7, 219008, Note_on_c, 8, 66, 101
7, 219008, Note_on_c, 8, 69, 101
7, 219072, Note_off_c, 8, 60, 0
7, 219072, Note_off_c, 8, 66, 0
7, 219072, Note_off_c, 8, 69, 0
7, 219136, Note_on_c, 8, 60, 97
7, 219136, Note_on_c, 8, 66, 97
7, 219136, Note_on_c, 8, 69, 97
7, 219136, Note_on_c, 8, 55, 113
7, 219136, Note_on_c, 8, 58, 113
7, 219136, Note_on_c, 8, 60, 113
7, 219174, Note_off_c, 8, 55, 0
7, 219174, Note_off_c, 8, 58, 0
7, 219174, Note_off_c, 8, 60, 0
7, 219200, Note_off_c, 8, 60, 0
7, 219200, Note_off_c, 8, 66, 0
7, 219200, Note_off_c, 8, 69, 0
7, 219264, Note_on_c, 8, 60, 99
7, 219264, Note_on_c, 8, 66, 99
7, 219264, Note_on_c, 8, 69, 99
7, 219328, Note_off_c, 8, 60, 0
7, 219328, Note_off_c, 8, 66, 0
7, 219328, Note_off_c, 8, 69, 0
7, 219392, Note_on_c, 8, 60, 97
7, 219392, Note_on_c, 8, 66, 97
7, 219392, Note_on_c, 8, 69, 97
7, 219456, Note_off_c, 8, 60, 0
7, 219456, Note_off_c, 8, 66, 0
7, 219456, Note_off_c, 8, 69, 0
7, 219520, Note_on_c, 8, 60, 99
7, 219520, Note_on_c, 8, 66, 99
7, 219520, Note_on_c, 8, 69, 99
7, 219520, Note_on_c, 8, 55, 114
7, 219520, Note_on_c, 8, 58, 114
7, 219520, Note_on_c, 8, 60, 114
7, 219558, Note_off_c, 8, 55, 0
7, 219558, Note_off_c, 8, 58, 0
7, 219558, Note_off_c, 8, 60, 0
7, 219584, Note_off_c, 8, 60, 0
7, 219584, Note_off_c, 8, 66, 0
7, 219584, Note_off_c, 8, 69, 0
7, 219648, Note_on_c, 8, 60, 101
7, 219648, Note_on_c, 8, 66, 101
7, 219648, Note_on_c, 8, 69, 101
7, 219712, Note_off_c, 8, 60, 0
7, 219712, Note_off_c, 8, 66, 0
7, 219712, Note_off_c, 8, 69, 0
7, 219776, Note_on_c, 8, 60, 96
7, 219776, Note_on_c, 8, 66, 96
7, 219776, Note_on_c, 8, 69, 96
7, 219840, Note_off_c, 8, 60, 0
7, 219840, Note_off_c, 8, 66, 0
7, 219840, Note_off_c, 8, 69, 0
7, 219904, Note_on_c, 8, 60, 102
7, 219904, Note_on_c, 8, 66, 102
7, 219904, Note_on_c, 8, 69, 102
7, 219904, Note_on_c, 8, 55, 116
7, 219904, Note_on_c, 8, 58, 116
7, 219904, Note_on_c, 8, 60, 116
7, 219942, Note_off_c, 8, 55, 0
7, 219942, Note_off_c, 8, 58, 0
7, 219942, Note_off_c, 8, 60, 0
7, 219968, Note_off_c, 8, 60, 0
7, 219968, Note_off_c, 8, 66, 0
7, 219968, Note_off_c, 8, 69, 0
7, 220032, Note_on_c, 8, 60, 91
7, 220032, Note_on_c, 8, 66, 91
7, 220032, Note_on_c, 8, 69, 91
7, 220096, Note_off_c, 8, 60, 0
7, 220096, Note_off_c, 8, 66, 0
7, 220096, Note_off_c, 8, 69, 0
7, 220160, Note_on_c, 8, 60, 101
7, 220160, Note_on_c, 8, 66, 101
7, 220160, Note_on_c, 8, 69, 101
7, 220224, Note_off_c, 8, 60, 0
7, 220224, Note_off_c, 8, 66, 0
7, 220224, Note_off_c, 8, 69, 0
7, 220288, Note_on_c, 8, 60, 97
7, 220288, Note_on_c, 8, 66, 97
7, 220288, Note_on_c, 8, 69, 97
7, 220288, Note_on_c, 8, 55, 112
7, 220288, Note_on_c, 8, 58, 112
7, 220288, Note_on_c, 8, 60, 112
7, 220326, Note_off_c, 8, 55, 0
7, 220326, Note_off_c, 8, 58, 0
7, 220326, Note_off_c, 8, 60, 0
7, 220352, Note_off_c, 8, 60, 0
7, 220352, Note_off_c, 8, 66, 0
7, 220352, Note_off_c, 8, 69, 0
7, 220416, Note_on_c, 8, 60, 97
7, 220416, Note_on_c, 8, 66, 97
7, 220416, Note_on_c, 8, 69, 97
7, 220480, Note_off_c, 8, 60, 0
7, 220480, Note_off_c, 8, 66, 0
7, 220480, Note_off_c, 8, 69, 0
7, 220544, Note_on_c, 8, 60, 97
7, 220544, Note_on_c, 8, 66, 97
7, 220544, Note_on_c, 8, 69, 97
7, 220608, Note_off_c, 8, 60, 0
7, 220608, Note_off_c, 8, 66, 0
7, 220608, Note_off_c, 8, 69, 0
7, 220672, Note_on_c, 8, 60, 98
7, 220672, Note_on_c, 8, 66, 98
7, 220672, Note_on_c, 8, 69, 98
7, 220672, Note_on_c, 8, 55, 116
7, 220672, Note_on_c, 8, 58, 116
7, 220672, Note_on_c, 8, 60, 116
7, 220710, Note_off_c, 8, 55, 0
7, 220710, Note_off_c, 8, 58, 0
7, 220710, Note_off_c, 8, 60, 0
7, 220736, Note_off_c, 8, 60, 0
7, 220736, Note_off_c, 8, 66, 0
7, 220736, Note_off_c, 8, 69, 0
7, 220800, Note_on_c, 8, 60, 99
7, 220800, Note_on_c, 8, 66, 99
7, 220800, Note_on_c, 8, 69, 99
7, 220864, Note_off_c, 8, 60, 0
7, 220864, Note_off_c, 8, 66, 0
7, 220864, Note_off_c, 8, 69, 0
7, 220928, Note_on_c, 8, 60, 92
7, 220928, Note_on_c, 8, 66, 92
7, 220928, Note_on_c, 8, 69, 92
7, 220992, Note_off_c, 8, 60, 0
7, 220992, Note_off_c, 8, 66, 0
7, 220992, Note_off_c, 8, 69, 0
7, 221056, Note_on_c, 8, 60, 102
7, 221056, Note_on_c, 8, 66, 102
7, 221056, Note_on_c, 8, 69, 102
7, 221056, Note_on_c, 8, 55, 112
7, 221056, Note_on_c, 8, 58, 112
7, 221056, Note_on_c, 8, 60, 112
7, 221094, Note_off_c, 8, 55, 0
7, 221094, Note_off_c, 8, 58, 0
7, 221094, Note_off_c, 8, 60, 0
7, 221120, Note_off_c, 8, 60, 0
7, 221120, Note_off_c, 8, 66, 0
7, 221120, Note_off_c, 8, 69, 0
7, 221184, Note_on_c, 8, 60, 101
7, 221184, Note_on_c, 8, 66, 101
7, 221184, Note_on_c, 8, 69, 101
7, 221248, Note_off_c, 8, 60, 0
7, 221248, Note_off_c, 8, 66, 0
7, 221248, Note_off_c, 8, 69, 0
7, 221312, Note_on_c, 8, 60, 101
7, 221312, Note_on_c, 8, 66, 101
7, 221312, Note_on_c, 8, 69, 101
7, 221376, Note_off_c, 8, 60, 0
7, 221376, Note_off_c, 8, 66, 0
7, 221376, Note_off_c, 8, 69, 0
7, 221440, Note_on_c, 8, 60, 97
7, 221440, Note_on_c, 8, 66, 97
7, 221440, Note_on_c, 8, 69, 97
7, 221440, Note_on_c, 8, 55, 113
7, 221440, Note_on_c, 8, 58, 113
7, 221440, Note_on_c, 8, 60, 113
7, 221478, Note_off_c, 8, 55, 0
7, 221478, Note_off_c, 8, 58, 0
7, 221478, Note_off_c, 8, 60, 0
7, 221504, Note_off_c, 8, 60, 0
7, 221504, Note_off_c, 8, 66, 0
7, 221504, Note_off_c, 8, 69, 0
7, 221568, Note_on_c, 8, 60, 99
7, 221568, Note_on_c, 8, 66, 99
7, 221568, Note_on_c, 8, 69, 99
7, 221568, Note_on_c, 8, 57, 127
7, 221568, Note_on_c, 8, 60, 127
7, 221568, Note_on_c, 8, 64, 127
7, 221606, Note_off_c, 8, 57, 0
7, 221606, Note_off_c, 8, 60, 0
7, 221606, Note_off_c, 8, 64, 0
7, 221632, Note_off_c, 8, 60, 0
7, 221632, Note_off_c, 8, 66, 0
7, 221632, Note_off_c, 8, 69, 0
7, 221696, Note_on_c, 8, 60, 97
7, 221696, Note_on_c, 8, 66, 97
7, 221696, Note_on_c, 8, 69, 97
7, 221760, Note_off_c, 8, 60, 0
7, 221760, Note_off_c, 8, 66, 0
7, 221760, Note_off_c, 8, 69, 0
7, 221824, Note_on_c, 8, 60, 95
7, 221824, Note_on_c, 8, 66, 95
7, 221824, Note_on_c, 8, 69, 95
7, 221824, Note_on_c, 8, 55, 111
7, 221824, Note_on_c, 8, 58, 111
7, 221824, Note_on_c, 8, 60, 111
7, 221862, Note_off_c, 8, 55, 0
7, 221862, Note_off_c, 8, 58, 0
7, 221862, Note_off_c, 8, 60, 0
7, 221888, Note_off_c, 8, 60, 0
7, 221888, Note_off_c, 8, 66, 0
7, 221888, Note_off_c, 8, 69, 0
7, 221952, Note_on_c, 8, 62, 97
7, 221952, Note_on_c, 8, 66, 97
7, 221952, Note_on_c, 8, 69, 97
7, 222016, Note_off_c, 8, 62, 0
7, 222016, Note_off_c, 8, 66, 0
7, 222016, Note_off_c, 8, 69, 0
7, 222080, Note_on_c, 8, 60, 94
7, 222080, Note_on_c, 8, 66, 94
7, 222080, Note_on_c, 8, 69, 94
7, 222144, Note_off_c, 8, 60, 0
7, 222144, Note_off_c, 8, 66, 0
7, 222144, Note_off_c, 8, 69, 0
7, 222208, Note_on_c, 8, 55, 115
7, 222208, Note_on_c, 8, 58, 115
7, 222208, Note_on_c, 8, 60, 115
7, 222246, Note_off_c, 8, 55, 0
7, 222246, Note_off_c, 8, 58, 0
7, 222246, Note_off_c, 8, 60, 0
7, 222336, Note_on_c, 8, 60, 127
7, 222336, Note_on_c, 8, 66, 127
7, 222336, Note_on_c, 8, 69, 127
7, 222400, Note_off_c, 8, 60, 0
7, 222400, Note_off_c, 8, 66, 0
7, 222400, Note_off_c, 8, 69, 0
7, 222464, Note_on_c, 8, 60, 95
7, 222464, Note_on_c, 8, 66, 95
7, 222464, Note_on_c, 8, 69, 95
7, 222528, Note_off_c, 8, 60, 0
7, 222528, Note_off_c, 8, 66, 0
7, 222528, Note_off_c, 8, 69, 0
7, 222592, Note_on_c, 8, 60, 127
7, 222592, Note_on_c, 8, 66, 127
7, 222592, Note_on_c, 8, 69, 127
7, 222592, Note_on_c, 8, 55, 110
7, 222592, Note_on_c, 8, 58, 110
7, 222592, Note_on_c, 8, 60, 110
7, 222630, Note_off_c, 8, 55, 0
7, 222630, Note_off_c, 8, 58, 0
7, 222630, Note_off_c, 8, 60, 0
7, 222656, Note_off_c, 8, 60, 0
7, 222656, Note_off_c, 8, 66, 0
7, 222656, Note_off_c, 8, 69, 0
7, 222720, Note_on_c, 8, 60, 98
7, 222720, Note_on_c, 8, 66, 98
7, 222720, Note_on_c, 8, 69, 98
7, 222720, Note_on_c, 8, 57, 127
7, 222720, Note_on_c, 8, 60, 127
7, 222720, Note_on_c, 8, 64, 127
7, 222758, Note_off_c, 8, 57, 0
7, 222758, Note_off_c, 8, 60, 0
7, 222758, Note_off_c, 8, 64, 0
7, 222784, Note_off_c, 8, 60, 0
7, 222784, Note_off_c, 8, 66, 0
7, 222784, Note_off_c, 8, 69, 0
7, 222848, Note_on_c, 8, 60, 98
7, 222848, Note_on_c, 8, 66, 98
7, 222848, Note_on_c, 8, 69, 98
7, 222912, Note_off_c, 8, 60, 0
7, 222912, Note_off_c, 8, 66, 0
7, 222912, Note_off_c, 8, 69, 0
7, 222976, Note_on_c, 8, 60, 96
7, 222976, Note_on_c, 8, 66, 96
7, 222976, Note_on_c, 8, 69, 96
7, 222976, Note_on_c, 8, 55, 120
7, 222976, Note_on_c, 8, 58, 120
7, 222976, Note_on_c, 8, 60, 120
7, 223014, Note_off_c, 8, 55, 0
7, 223014, Note_off_c, 8, 58, 0
7, 223014, Note_off_c, 8, 60, 0
7, 223040, Note_off_c, 8, 60, 0
7, 223040, Note_off_c, 8, 66, 0
7, 223040, Note_off_c, 8, 69, 0
7, 223104, Note_on_c, 8, 60, 97
7, 223104, Note_on_c, 8, 66, 97
7, 223104, Note_on_c, 8, 69, 97
7, 223168, Note_off_c, 8, 60, 0
7, 223168, Note_off_c, 8, 66, 0
7, 223168, Note_off_c, 8, 69, 0
7, 223360, Note_on_c, 8, 60, 127
7, 223360, Note_on_c, 8, 66, 127
7, 223360, Note_on_c, 8, 69, 127
7, 223424, Note_off_c, 8, 60, 0
7, 223424, Note_off_c, 8, 66, 0
7, 223424, Note_off_c, 8, 69, 0
7, 223488, Note_on_c, 8, 60, 96
7, 223488, Note_on_c, 8, 66, 96
7, 223488, Note_on_c, 8, 69, 96
7, 223488, Note_on_c, 8, 55, 114
7, 223488, Note_on_c, 8, 58, 114
7, 223488, Note_on_c, 8, 60, 114
7, 223526, Note_off_c, 8, 55, 0
7, 223526, Note_off_c, 8, 58, 0
7, 223526, Note_off_c, 8, 60, 0
7, 223552, Note_off_c, 8, 60, 0
7, 223552, Note_off_c, 8, 66, 0
7, 223552, Note_off_c, 8, 69, 0
7, 223616, Note_on_c, 8, 60, 127
7, 223616, Note_on_c, 8, 66, 127
7, 223616, Note_on_c, 8, 69, 127
7, 223680, Note_off_c, 8, 60, 0
7, 223680, Note_off_c, 8, 66, 0
7, 223680, Note_off_c, 8, 69, 0
7, 223744, Note_on_c, 8, 60, 96
7, 223744, Note_on_c, 8, 66, 96
7, 223744, Note_on_c, 8, 69, 96
7, 223808, Note_off_c, 8, 60, 0
7, 223808, Note_off_c, 8, 66, 0
7, 223808, Note_off_c, 8, 69, 0
7, 223872, Note_on_c, 8, 60, 99
7, 223872, Note_on_c, 8, 66, 99
7, 223872, Note_on_c, 8, 69, 99
7, 223872, Note_on_c, 8, 55, 117
7, 223872, Note_on_c, 8, 58, 117
7, 223872, Note_on_c, 8, 60, 117
7, 223910, Note_off_c, 8, 55, 0
7, 223910, Note_off_c, 8, 58, 0
7, 223910, Note_off_c, 8, 60, 0
7, 223936, Note_off_c, 8, 60, 0
7, 223936, Note_off_c, 8, 66, 0
7, 223936, Note_off_c, 8, 69, 0
7, 224000, Note_on_c, 8, 60, 96
7, 224000, Note_on_c, 8, 66, 96
7, 224000, Note_on_c, 8, 69, 96
7, 224000, Note_on_c, 8, 57, 127
7, 224000, Note_on_c, 8, 60, 127
7, 224000, Note_on_c, 8, 64, 127
7, 224038, Note_off_c, 8, 57, 0
7, 224038, Note_off_c, 8, 60, 0
7, 224038, Note_off_c, 8, 64, 0
7, 224064, Note_off_c, 8, 60, 0
7, 224064, Note_off_c, 8, 66, 0
7, 224064, Note_off_c, 8, 69, 0
7, 224128, Note_on_c, 8, 60, 97
7, 224128, Note_on_c, 8, 66, 97
7, 224128, Note_on_c, 8, 69, 97
7, 224192, Note_off_c, 8, 60, 0
7, 224192, Note_off_c, 8, 66, 0
7, 224192, Note_off_c, 8, 69, 0
7, 224256, Note_on_c, 8, 55, 116
7, 224256, Note_on_c, 8, 58, 116
7, 224256, Note_on_c, 8, 60, 116
7, 224294, Note_off_c, 8, 55, 0
7, 224294, Note_off_c, 8, 58, 0
7, 224294, Note_off_c, 8, 60, 0
7, 224384, Note_on_c, 8, 60, 91
7, 224384, Note_on_c, 8, 66, 91
7, 224384, Note_on_c, 8, 69, 91
7, 224448, Note_off_c, 8, 60, 0
7, 224448, Note_off_c, 8, 66, 0
7, 224448, Note_off_c, 8, 69, 0
7, 224512, Note_on_c, 8, 60, 127
7, 224512, Note_on_c, 8, 66, 127
7, 224512, Note_on_c, 8, 69, 127
7, 224576, Note_off_c, 8, 60, 0
7, 224576, Note_off_c, 8, 66, 0
7, 224576, Note_off_c, 8, 69, 0
7, 224640, Note_on_c, 8, 55, 118
7, 224640, Note_on_c, 8, 58, 118
7, 224640, Note_on_c, 8, 60, 118
7, 224678, Note_off_c, 8, 55, 0
7, 224678, Note_off_c, 8, 58, 0
7, 224678, Note_off_c, 8, 60, 0
7, 224768, Note_on_c, 8, 60, 87
7, 224768, Note_on_c, 8, 66, 87
7, 224768, Note_on_c, 8, 69, 87
7, 224832, Note_off_c, 8, 60, 0
7, 224832, Note_off_c, 8, 66, 0
7, 224832, Note_off_c, 8, 69, 0
7, 224896, Note_on_c, 8, 60, 127
7, 224896, Note_on_c, 8, 66, 127
7, 224896, Note_on_c, 8, 69, 127
7, 224960, Note_off_c, 8, 60, 0
7, 224960, Note_off_c, 8, 66, 0
7, 224960, Note_off_c, 8, 69, 0
7, 225024, Note_on_c, 8, 55, 117
7, 225024, Note_on_c, 8, 58, 117
7, 225024, Note_on_c, 8, 60, 117
7, 225062, Note_off_c, 8, 55, 0
7, 225062, Note_off_c, 8, 58, 0
7, 225062, Note_off_c, 8, 60, 0
7, 225152, Note_on_c, 8, 60, 84
7, 225152, Note_on_c, 8, 66, 84
7, 225152, Note_on_c, 8, 69, 84
7, 225216, Note_off_c, 8, 60, 0
7, 225216, Note_off_c, 8, 66, 0
7, 225216, Note_off_c, 8, 69, 0
7, 225280, Note_on_c, 8, 57, 113
7, 225280, Note_on_c, 8, 60, 113
7, 225280, Note_on_c, 8, 64, 113
7, 225318, Note_off_c, 8, 57, 0
7, 225318, Note_off_c, 8, 60, 0
7, 225318, Note_off_c, 8, 64, 0
7, 225408, Note_on_c, 8, 60, 127
7, 225408, Note_on_c, 8, 66, 127
7, 225408, Note_on_c, 8, 69, 127
7, 225472, Note_off_c, 8, 60, 0
7, 225472, Note_off_c, 8, 66, 0
7, 225472, Note_off_c, 8, 69, 0
7, 225536, Note_on_c, 8, 55, 113
7, 225536, Note_on_c, 8, 58, 113
7, 225536, Note_on_c, 8, 60, 113
7, 225574, Note_off_c, 8, 55, 0
7, 225574, Note_off_c, 8, 58, 0
7, 225574, Note_off_c, 8, 60, 0
7, 225664, Note_on_c, 8, 60, 127
7, 225664, Note_on_c, 8, 66, 127
7, 225664, Note_on_c, 8, 69, 127
7, 225728, Note_off_c, 8, 60, 0
7, 225728, Note_off_c, 8, 66, 0
7, 225728, Note_off_c, 8, 69, 0
7, 225792, Note_on_c, 8, 60, 96
7, 225792, Note_on_c, 8, 66, 96
7, 225792, Note_on_c, 8, 69, 96
7, 225856, Note_off_c, 8, 60, 0
7, 225856, Note_off_c, 8, 66, 0
7, 225856, Note_off_c, 8, 69, 0
7, 225920, Note_on_c, 8, 60, 100
7, 225920, Note_on_c, 8, 66, 100
7, 225920, Note_on_c, 8, 69, 100
7, 225920, Note_on_c, 8, 57, 117
7, 225920, Note_on_c, 8, 60, 117
7, 225920, Note_on_c, 8, 64, 117
7, 225958, Note_off_c, 8, 57, 0
7, 225958, Note_off_c, 8, 60, 0
7, 225958, Note_off_c, 8, 64, 0
7, 225984, Note_off_c, 8, 60, 0
7, 225984, Note_off_c, 8, 66, 0
7, 225984, Note_off_c, 8, 69, 0
7, 226048, Note_on_c, 8, 60, 99
7, 226048, Note_on_c, 8, 66, 99
7, 226048, Note_on_c, 8, 69, 99
7, 226112, Note_off_c, 8, 60, 0
7, 226112, Note_off_c, 8, 66, 0
7, 226112, Note_off_c, 8, 69, 0
7, 226176, Note_on_c, 8, 60, 94
7, 226176, Note_on_c, 8, 66, 94
7, 226176, Note_on_c, 8, 69, 94
7, 226240, Note_off_c, 8, 60, 0
7, 226240, Note_off_c, 8, 66, 0
7, 226240, Note_off_c, 8, 69, 0
7, 226304, Note_on_c, 8, 55, 112
7, 226304, Note_on_c, 8, 58, 112
7, 226304, Note_on_c, 8, 60, 112
7, 226342, Note_off_c, 8, 55, 0
7, 226342, Note_off_c, 8, 58, 0
7, 226342, Note_off_c, 8, 60, 0
7, 226432, Note_on_c, 8, 60, 127
7, 226432, Note_on_c, 8, 66, 127
7, 226432, Note_on_c, 8, 69, 127
7, 226496, Note_off_c, 8, 60, 0
7, 226496, Note_off_c, 8, 66, 0
7, 226496, Note_off_c, 8, 69, 0
7, 226560, Note_on_c, 8, 60, 94
7, 226560, Note_on_c, 8, 66, 94
7, 226560, Note_on_c, 8, 69, 94
7, 226560, Note_on_c, 8, 57, 114
7, 226560, Note_on_c, 8, 60, 114
7, 226560, Note_on_c, 8, 64, 114
7, 226598, Note_off_c, 8, 57, 0
7, 226598, Note_off_c, 8, 60, 0
7, 226598, Note_off_c, 8, 64, 0
7, 226624, Note_off_c, 8, 60, 0
7, 226624, Note_off_c, 8, 66, 0
7, 226624, Note_off_c, 8, 69, 0
7, 226688, Note_on_c, 8, 60, 94
7, 226688, Note_on_c, 8, 66, 94
7, 226688, Note_on_c, 8, 69, 94
7, 226752, Note_off_c, 8, 60, 0
7, 226752, Note_off_c, 8, 66, 0
7, 226752, Note_off_c, 8, 69, 0
7, 226944, Note_on_c, 8, 60, 127
7, 226944, Note_on_c, 8, 66, 127
7, 226944, Note_on_c, 8, 69, 127
7, 226944, Note_on_c, 8, 55, 118
7, 226944, Note_on_c, 8, 58, 118
7, 226944, Note_on_c, 8, 60, 118
7, 226982, Note_off_c, 8, 55, 0
7, 226982, Note_off_c, 8, 58, 0
7, 226982, Note_off_c, 8, 60, 0
7, 227008, Note_off_c, 8, 60, 0
7, 227008, Note_off_c, 8, 66, 0
7, 227008, Note_off_c, 8, 69, 0
7, 227200, Note_on_c, 8, 60, 88
7, 227200, Note_on_c, 8, 66, 88
7, 227200, Note_on_c, 8, 69, 88
7, 227264, Note_off_c, 8, 60, 0
7, 227264, Note_off_c, 8, 66, 0
7, 227264, Note_off_c, 8, 69, 0
7, 227328, Note_on_c, 8, 60, 127
7, 227328, Note_on_c, 8, 66, 127
7, 227328, Note_on_c, 8, 69, 127
7, 227328, Note_on_c, 8, 55, 116
7, 227328, Note_on_c, 8, 58, 116
7, 227328, Note_on_c, 8, 60, 116
7, 227366, Note_off_c, 8, 55, 0
7, 227366, Note_off_c, 8, 58, 0
7, 227366, Note_off_c, 8, 60, 0
7, 227392, Note_off_c, 8, 60, 0
7, 227392, Note_off_c, 8, 66, 0
7, 227392, Note_off_c, 8, 69, 0
7, 227456, Note_on_c, 8, 57, 127
7, 227456, Note_on_c, 8, 60, 127
7, 227456, Note_on_c, 8, 64, 127
7, 227494, Note_off_c, 8, 57, 0
7, 227494, Note_off_c, 8, 60, 0
7, 227494, Note_off_c, 8, 64, 0
7, 227584, Note_on_c, 8, 60, 85
7, 227584, Note_on_c, 8, 66, 85
7, 227584, Note_on_c, 8, 69, 85
7, 227648, Note_off_c, 8, 60, 0
7, 227648, Note_off_c, 8, 66, 0
7, 227648, Note_off_c, 8, 69, 0
7, 227712, Note_on_c, 8, 60, 127
7, 227712, Note_on_c, 8, 66, 127
7, 227712, Note_on_c, 8, 69, 127
7, 227776, Note_off_c, 8, 60, 0
7, 227776, Note_off_c, 8, 66, 0
7, 227776, Note_off_c, 8, 69, 0
7, 227968, Note_on_c, 8, 60, 90
7, 227968, Note_on_c, 8, 66, 90
7, 227968, Note_on_c, 8, 69, 90
7, 227968, Note_on_c, 8, 55, 117
7, 227968, Note_on_c, 8, 58, 117
7, 227968, Note_on_c, 8, 60, 117
7, 228006, Note_off_c, 8, 55, 0
7, 228006, Note_off_c, 8, 58, 0
7, 228006, Note_off_c, 8, 60, 0
7, 228032, Note_off_c, 8, 60, 0
7, 228032, Note_off_c, 8, 66, 0
7, 228032, Note_off_c, 8, 69, 0
7, 228096, Note_on_c, 8, 60, 127
7, 228096, Note_on_c, 8, 66, 127
7, 228096, Note_on_c, 8, 69, 127
7, 228160, Note_off_c, 8, 60, 0
7, 228160, Note_off_c, 8, 66, 0
7, 228160, Note_off_c, 8, 69, 0
7, 228160, Note_on_c, 8, 57, 112
7, 228160, Note_on_c, 8, 60, 112
7, 228160, Note_on_c, 8, 64, 112
7, 228198, Note_off_c, 8, 57, 0
7, 228198, Note_off_c, 8, 60, 0
7, 228198, Note_off_c, 8, 64, 0
7, 228352, Note_on_c, 8, 60, 127
7, 228352, Note_on_c, 8, 66, 127
7, 228352, Note_on_c, 8, 69, 127
7, 228352, Note_on_c, 8, 55, 114
7, 228352, Note_on_c, 8, 58, 114
7, 228352, Note_on_c, 8, 60, 114
7, 228390, Note_off_c, 8, 55, 0
7, 228390, Note_off_c, 8, 58, 0
7, 228390, Note_off_c, 8, 60, 0
7, 228416, Note_off_c, 8, 60, 0
7, 228416, Note_off_c, 8, 66, 0
7, 228416, Note_off_c, 8, 69, 0
7, 228480, Note_on_c, 8, 60, 93
7, 228480, Note_on_c, 8, 66, 93
7, 228480, Note_on_c, 8, 69, 93
7, 228544, Note_off_c, 8, 60, 0
7, 228544, Note_off_c, 8, 66, 0
7, 228544, Note_off_c, 8, 69, 0
7, 228544, Note_on_c, 8, 57, 112
7, 228544, Note_on_c, 8, 60, 112
7, 228544, Note_on_c, 8, 64, 112
7, 228582, Note_off_c, 8, 57, 0
7, 228582, Note_off_c, 8, 60, 0
7, 228582, Note_off_c, 8, 64, 0
7, 228736, Note_on_c, 8, 60, 86
7, 228736, Note_on_c, 8, 66, 86
7, 228736, Note_on_c, 8, 69, 86
7, 228800, Note_off_c, 8, 60, 0
7, 228800, Note_off_c, 8, 66, 0
7, 228800, Note_off_c, 8, 69, 0
7, 228864, Note_on_c, 8, 60, 127
7, 228864, Note_on_c, 8, 66, 127
7, 228864, Note_on_c, 8, 69, 127
7, 228928, Note_off_c, 8, 60, 0
7, 228928, Note_off_c, 8, 66, 0
7, 228928, Note_off_c, 8, 69, 0
7, 228992, Note_on_c, 8, 57, 113
7, 228992, Note_on_c, 8, 60, 113
7, 228992, Note_on_c, 8, 64, 113
7, 229030, Note_off_c, 8, 57, 0
7, 229030, Note_off_c, 8, 60, 0
7, 229030, Note_off_c, 8, 64, 0
7, 229120, Note_on_c, 8, 60, 127
7, 229120, Note_on_c, 8, 66, 127
7, 229120, Note_on_c, 8, 69, 127
7, 229184, Note_off_c, 8, 60, 0
7, 229184, Note_off_c, 8, 66, 0
7, 229184, Note_off_c, 8, 69, 0
7, 229248, Note_on_c, 8, 60, 95
7, 229248, Note_on_c, 8, 66, 95
7, 229248, Note_on_c, 8, 69, 95
7, 229312, Note_off_c, 8, 60, 0
7, 229312, Note_off_c, 8, 66, 0
7, 229312, Note_off_c, 8, 69, 0
7, 229504, Note_on_c, 8, 60, 90
7, 229504, Note_on_c, 8, 66, 90
7, 229504, Note_on_c, 8, 69, 90
7, 229568, Note_off_c, 8, 60, 0
7, 229568, Note_off_c, 8, 66, 0
7, 229568, Note_off_c, 8, 69, 0
7, 229632, Note_on_c, 8, 60, 127
7, 229632, Note_on_c, 8, 66, 127
7, 229632, Note_on_c, 8, 69, 127
7, 229696, Note_off_c, 8, 60, 0
7, 229696, Note_off_c, 8, 66, 0
7, 229696, Note_off_c, 8, 69, 0
7, 229888, Note_on_c, 8, 54, 117
7, 229888, Note_on_c, 8, 60, 117
7, 229888, Note_on_c, 8, 64, 117
7, 229888, Note_on_c, 8, 69, 117
7, 230016, Note_on_c, 8, 56, 117
7, 230016, Note_on_c, 8, 62, 117
7, 230016, Note_on_c, 8, 66, 117
7, 230016, Note_on_c, 8, 71, 117
7, 230018, Note_off_c, 8, 54, 0
7, 230018, Note_off_c, 8, 60, 0
7, 230018, Note_off_c, 8, 64, 0
7, 230018, Note_off_c, 8, 69, 0
7, 230076, Note_off_c, 8, 56, 0
7, 230076, Note_off_c, 8, 62, 0
7, 230076, Note_off_c, 8, 66, 0
7, 230076, Note_off_c, 8, 71, 0
7, 230272, Note_on_c, 8, 54, 111
7, 230272, Note_on_c, 8, 60, 111
7, 230272, Note_on_c, 8, 64, 111
7, 230272, Note_on_c, 8, 69, 111
7, 230400, Note_on_c, 8, 57, 117
7, 230400, Note_on_c, 8, 63, 117
7, 230400, Note_on_c, 8, 67, 117
7, 230400, Note_on_c, 8, 72, 117
7, 230402, Note_off_c, 8, 54, 0
7, 230402, Note_off_c, 8, 60, 0
7, 230402, Note_off_c, 8, 64, 0
7, 230402, Note_off_c, 8, 69, 0
7, 230460, Note_off_c, 8, 57, 0
7, 230460, Note_off_c, 8, 63, 0
7, 230460, Note_off_c, 8, 67, 0
7, 230460, Note_off_c, 8, 72, 0
7, 230656, Note_on_c, 8, 54, 116
7, 230656, Note_on_c, 8, 60, 116
7, 230656, Note_on_c, 8, 64, 116
7, 230656, Note_on_c, 8, 69, 116
7, 230784, Note_on_c, 8, 56, 123
7, 230784, Note_on_c, 8, 62, 123
7, 230784, Note_on_c, 8, 66, 123
7, 230784, Note_on_c, 8, 71, 123
7, 230786, Note_off_c, 8, 54, 0
7, 230786, Note_off_c, 8, 60, 0
7, 230786, Note_off_c, 8, 64, 0
7, 230786, Note_off_c, 8, 69, 0
7, 230844, Note_off_c, 8, 56, 0
7, 230844, Note_off_c, 8, 62, 0
7, 230844, Note_off_c, 8, 66, 0
7, 230844, Note_off_c, 8, 71, 0
7, 231040, Note_on_c, 8, 54, 110
7, 231040, Note_on_c, 8, 60, 110
7, 231040, Note_on_c, 8, 64, 110
7, 231040, Note_on_c, 8, 69, 110
7, 231168, Note_on_c, 8, 57, 121
7, 231168, Note_on_c, 8, 63, 121
7, 231168, Note_on_c, 8, 67, 121
7, 231168, Note_on_c, 8, 72, 121
7, 231170, Note_off_c, 8, 54, 0
7, 231170, Note_off_c, 8, 60, 0
7, 231170, Note_off_c, 8, 64, 0
7, 231170, Note_off_c, 8, 69, 0
7, 231228, Note_off_c, 8, 57, 0
7, 231228, Note_off_c, 8, 63, 0
7, 231228, Note_off_c, 8, 67, 0
7, 231228, Note_off_c, 8, 72, 0
7, 231424, Note_on_c, 8, 54, 115
7, 231424, Note_on_c, 8, 60, 115
7, 231424, Note_on_c, 8, 64, 115
7, 231424, Note_on_c, 8, 69, 115
7, 231552, Note_on_c, 8, 56, 117
7, 231552, Note_on_c, 8, 62, 117
7, 231552, Note_on_c, 8, 66, 117
7, 231552, Note_on_c, 8, 71, 117
7, 231554, Note_off_c, 8, 54, 0
7, 231554, Note_off_c, 8, 60, 0
7, 231554, Note_off_c, 8, 64, 0
7, 231554, Note_off_c, 8, 69, 0
7, 231612, Note_off_c, 8, 56, 0
7, 231612, Note_off_c, 8, 62, 0
7, 231612, Note_off_c, 8, 66, 0
7, 231612, Note_off_c, 8, 71, 0
7, 231808, Note_on_c, 8, 56, 113
7, 231808, Note_on_c, 8, 62, 113
7, 231808, Note_on_c, 8, 64, 113
7, 231808, Note_on_c, 8, 69, 113
7, 231936, Note_on_c, 8, 59, 119
7, 231936, Note_on_c, 8, 65, 119
7, 231936, Note_on_c, 8, 67, 119
7, 231936, Note_on_c, 8, 72, 119
7, 231938, Note_off_c, 8, 56, 0
7, 231938, Note_off_c, 8, 62, 0
7, 231938, Note_off_c, 8, 64, 0
7, 231938, Note_off_c, 8, 69, 0
7, 231996, Note_off_c, 8, 59, 0
7, 231996, Note_off_c, 8, 65, 0
7, 231996, Note_off_c, 8, 67, 0
7, 231996, Note_off_c, 8, 72, 0
7, 232192, Note_on_c, 8, 55, 118
7, 232192, Note_on_c, 8, 61, 118
7, 232192, Note_on_c, 8, 65, 118
7, 232192, Note_on_c, 8, 70, 118
7, 232320, Note_on_c, 8, 57, 121
7, 232320, Note_on_c, 8, 63, 121
7, 232320, Note_on_c, 8, 67, 121
7, 232320, Note_on_c, 8, 72, 121
7, 232322, Note_off_c, 8, 55, 0
7, 232322, Note_off_c, 8, 61, 0
7, 232322, Note_off_c, 8, 65, 0
7, 232322, Note_off_c, 8, 70, 0
7, 232380, Note_off_c, 8, 57, 0
7, 232380, Note_off_c, 8, 63, 0
7, 232380, Note_off_c, 8, 67, 0
7, 232380, Note_off_c, 8, 72, 0
7, 232576, Note_on_c, 8, 57, 117
7, 232576, Note_on_c, 8, 63, 117
7, 232576, Note_on_c, 8, 65, 117
7, 232576, Note_on_c, 8, 70, 117
7, 232704, Note_on_c, 8, 60, 127
7, 232704, Note_on_c, 8, 66, 127
7, 232704, Note_on_c, 8, 68, 127
7, 232704, Note_on_c, 8, 73, 127
7, 232706, Note_off_c, 8, 57, 0
7, 232706, Note_off_c, 8, 63, 0
7, 232706, Note_off_c, 8, 65, 0
7, 232706, Note_off_c, 8, 70, 0
7, 232764, Note_off_c, 8, 60, 0
7, 232764, Note_off_c, 8, 66, 0
7, 232764, Note_off_c, 8, 68, 0
7, 232764, Note_off_c, 8, 73, 0
7, 232960, Note_on_c, 8, 58, 117
7, 232960, Note_on_c, 8, 62, 117
7, 232960, Note_on_c, 8, 65, 117
7, 232960, Note_on_c, 8, 68, 117
7, 233088, Note_off_c, 8, 65, 0
7, 233088, Note_off_c, 8, 68, 0
7, 233088, Note_on_c, 8, 61, 121
7, 233088, Note_on_c, 8, 65, 121
7, 233088, Note_on_c, 8, 68, 121
7, 233088, Note_on_c, 8, 71, 121
7, 233090, Note_off_c, 8, 58, 0
7, 233090, Note_off_c, 8, 62, 0
7, 233216, Note_on_c, 8, 63, 127
7, 233216, Note_on_c, 8, 66, 127
7, 233216, Note_on_c, 8, 70, 127
7, 233216, Note_on_c, 8, 73, 127
7, 233218, Note_off_c, 8, 61, 0
7, 233218, Note_off_c, 8, 65, 0
7, 233218, Note_off_c, 8, 68, 0
7, 233218, Note_off_c, 8, 71, 0
7, 233276, Note_off_c, 8, 63, 0
7, 233276, Note_off_c, 8, 66, 0
7, 233276, Note_off_c, 8, 70, 0
7, 233276, Note_off_c, 8, 73, 0
7, 233472, Note_on_c, 8, 59, 115
7, 233472, Note_on_c, 8, 63, 115
7, 233472, Note_on_c, 8, 66, 115
7, 233472, Note_on_c, 8, 69, 115
7, 233600, Note_off_c, 8, 66, 0
7, 233600, Note_off_c, 8, 69, 0
7, 233600, Note_on_c, 8, 62, 118
7, 233600, Note_on_c, 8, 66, 118
7, 233600, Note_on_c, 8, 69, 118
7, 233600, Note_on_c, 8, 72, 118
7, 233602, Note_off_c, 8, 59, 0
7, 233602, Note_off_c, 8, 63, 0
7, 233728, Note_on_c, 8, 64, 127
7, 233728, Note_on_c, 8, 68, 127
7, 233728, Note_on_c, 8, 71, 127
7, 233728, Note_on_c, 8, 74, 127
7, 233730, Note_off_c, 8, 62, 0
7, 233730, Note_off_c, 8, 66, 0
7, 233730, Note_off_c, 8, 69, 0
7, 233730, Note_off_c, 8, 72, 0
7, 233788, Note_off_c, 8, 64, 0
7, 233788, Note_off_c, 8, 68, 0
7, 233788, Note_off_c, 8, 71, 0
7, 233788, Note_off_c, 8, 74, 0
7, 233984, Note_on_c, 8, 58, 115
7, 233984, Note_on_c, 8, 62, 115
7, 233984, Note_on_c, 8, 65, 115
7, 233984, Note_on_c, 8, 68, 115
7, 234112, Note_off_c, 8, 65, 0
7, 234112, Note_off_c, 8, 68, 0
7, 234112, Note_on_c, 8, 61, 126
7, 234112, Note_on_c, 8, 65, 126
7, 234112, Note_on_c, 8, 68, 126
7, 234112, Note_on_c, 8, 71, 126
7, 234114, Note_off_c, 8, 58, 0
7, 234114, Note_off_c, 8, 62, 0
7, 234240, Note_on_c, 8, 63, 127
7, 234240, Note_on_c, 8, 66, 127
7, 234240, Note_on_c, 8, 70, 127
7, 234240, Note_on_c, 8, 73, 127
7, 234242, Note_off_c, 8, 61, 0
7, 234242, Note_off_c, 8, 65, 0
7, 234242, Note_off_c, 8, 68, 0
7, 234242, Note_off_c, 8, 71, 0
7, 234300, Note_off_c, 8, 63, 0
7, 234300, Note_off_c, 8, 66, 0
7, 234300, Note_off_c, 8, 70, 0
7, 234300, Note_off_c, 8, 73, 0
7, 234496, Note_on_c, 8, 59, 117
7, 234496, Note_on_c, 8, 64, 117
7, 234496, Note_on_c, 8, 67, 117
7, 234496, Note_on_c, 8, 70, 117
7, 234624, Note_off_c, 8, 67, 0
7, 234624, Note_off_c, 8, 70, 0
7, 234624, Note_on_c, 8, 62, 123
7, 234624, Note_on_c, 8, 67, 123
7, 234624, Note_on_c, 8, 70, 123
7, 234624, Note_on_c, 8, 71, 123
7, 234626, Note_off_c, 8, 59, 0
7, 234626, Note_off_c, 8, 64, 0
7, 234752, Note_off_c, 8, 71, 0
7, 234752, Note_on_c, 8, 65, 127
7, 234752, Note_on_c, 8, 68, 127
7, 234752, Note_on_c, 8, 71, 127
7, 234752, Note_on_c, 8, 74, 127
7, 234754, Note_off_c, 8, 62, 0
7, 234754, Note_off_c, 8, 67, 0
7, 234754, Note_off_c, 8, 70, 0
7, 234812, Note_off_c, 8, 65, 0
7, 234812, Note_off_c, 8, 68, 0
7, 234812, Note_off_c, 8, 71, 0
7, 234812, Note_off_c, 8, 74, 0
7, 235136, Note_on_c, 8, 65, 127
7, 235136, Note_on_c, 8, 68, 127
7, 235136, Note_on_c, 8, 71, 127
7, 235136, Note_on_c, 8, 74, 127
7, 235264, Note_off_c, 8, 65, 0
7, 235264, Note_off_c, 8, 68, 0
7, 235264, Note_off_c, 8, 71, 0
7, 235264, Note_off_c, 8, 74, 0
7, 235520, Note_on_c, 8, 65, 127
7, 235520, Note_on_c, 8, 68, 127
7, 235520, Note_on_c, 8, 71, 127
7, 235520, Note_on_c, 8, 74, 127
7, 235648, Note_off_c, 8, 65, 0
7, 235648, Note_off_c, 8, 68, 0
7, 235648, Note_off_c, 8, 71, 0
7, 235648, Note_off_c, 8, 74, 0
7, 235904, Note_on_c, 8, 65, 127
7, 235904, Note_on_c, 8, 68, 127
7, 235904, Note_on_c, 8, 71, 127
7, 235904, Note_on_c, 8, 74, 127
7, 236032, Note_off_c, 8, 65, 0
7, 236032, Note_off_c, 8, 68, 0
7, 236032, Note_off_c, 8, 71, 0
7, 236032, Note_off_c, 8, 74, 0
7, 236288, Note_on_c, 8, 65, 127
7, 236288, Note_on_c, 8, 68, 127
7, 236288, Note_on_c, 8, 71, 127
7, 236288, Note_on_c, 8, 74, 127
7, 236416, Note_off_c, 8, 65, 0
7, 236416, Note_off_c, 8, 68, 0
7, 236416, Note_off_c, 8, 71, 0
7, 236416, Note_off_c, 8, 74, 0
7, 236672, Note_on_c, 8, 65, 127
7, 236672, Note_on_c, 8, 68, 127
7, 236672, Note_on_c, 8, 71, 127
7, 236672, Note_on_c, 8, 74, 127
7, 236800, Note_off_c, 8, 65, 0
7, 236800, Note_off_c, 8, 68, 0
7, 236800, Note_off_c, 8, 71, 0
7, 236800, Note_off_c, 8, 74, 0
7, 237056, Note_on_c, 8, 65, 127
7, 237056, Note_on_c, 8, 68, 127
7, 237056, Note_on_c, 8, 71, 127
7, 237056, Note_on_c, 8, 74, 127
7, 237184, Note_off_c, 8, 65, 0
7, 237184, Note_off_c, 8, 68, 0
7, 237184, Note_off_c, 8, 71, 0
7, 237184, Note_off_c, 8, 74, 0
7, 237440, Note_on_c, 8, 65, 127
7, 237440, Note_on_c, 8, 68, 127
7, 237440, Note_on_c, 8, 71, 127
7, 237440, Note_on_c, 8, 74, 127
7, 237568, Note_off_c, 8, 65, 0
7, 237568, Note_off_c, 8, 68, 0
7, 237568, Note_off_c, 8, 71, 0
7, 237568, Note_off_c, 8, 74, 0
7, 237696, Note_on_c, 8, 62, 127
7, 237696, Note_on_c, 8, 67, 127
7, 237696, Note_on_c, 8, 70, 127
7, 237888, Note_off_c, 8, 62, 0
7, 237888, Note_off_c, 8, 67, 0
7, 237888, Note_off_c, 8, 70, 0
7, 238080, Note_on_c, 8, 59, 127
7, 238080, Note_on_c, 8, 65, 127
7, 238080, Note_on_c, 8, 68, 127
7, 238272, Note_off_c, 8, 59, 0
7, 238272, Note_off_c, 8, 65, 0
7, 238272, Note_off_c, 8, 68, 0
7, 238464, Note_on_c, 8, 56, 127
7, 238464, Note_on_c, 8, 62, 127
7, 238464, Note_on_c, 8, 65, 127
7, 238464, Note_on_c, 8, 70, 127
7, 238656, Note_off_c, 8, 56, 0
7, 238656, Note_off_c, 8, 62, 0
7, 238656, Note_off_c, 8, 65, 0
7, 238656, Note_off_c, 8, 70, 0
7, 238848, Note_on_c, 8, 53, 127
7, 238848, Note_on_c, 8, 59, 127
7, 238848, Note_on_c, 8, 62, 127
7, 238848, Note_on_c, 8, 68, 127
7, 239040, Note_off_c, 8, 53, 0
7, 239040, Note_off_c, 8, 59, 0
7, 239040, Note_off_c, 8, 62, 0
7, 239040, Note_off_c, 8, 68, 0
7, 239232, Note_on_c, 8, 50, 127
7, 239232, Note_on_c, 8, 56, 127
7, 239232, Note_on_c, 8, 59, 127
7, 239232, Note_on_c, 8, 65, 127
7, 239424, Note_off_c, 8, 50, 0
7, 239424, Note_off_c, 8, 56, 0
7, 239424, Note_off_c, 8, 59, 0
7, 239424, Note_off_c, 8, 65, 0
7, 239616, Note_on_c, 8, 49, 127
7, 239616, Note_on_c, 8, 56, 127
7, 239616, Note_on_c, 8, 58, 127
7, 239616, Note_on_c, 8, 64, 127
7, 239808, Note_off_c, 8, 49, 0
7, 239808, Note_off_c, 8, 56, 0
7, 239808, Note_off_c, 8, 58, 0
7, 239808, Note_off_c, 8, 64, 0
7, 240000, Note_on_c, 8, 58, 102
7, 240000, Note_on_c, 8, 65, 102
7, 240000, Note_on_c, 8, 44, 99
7, 240000, Note_on_c, 8, 49, 99
7, 240000, Note_on_c, 8, 53, 99
7, 240000, Note_on_c, 8, 58, 99
7, 240256, Note_off_c, 8, 58, 0
7, 240256, Note_off_c, 8, 65, 0
7, 240256, Note_off_c, 8, 44, 0
7, 240256, Note_off_c, 8, 49, 0
7, 240256, Note_off_c, 8, 53, 0
7, 240256, Note_off_c, 8, 58, 0
7, 240256, Note_on_c, 8, 59, 111
7, 240256, Note_on_c, 8, 65, 111
7, 240256, Note_on_c, 8, 44, 116
7, 240256, Note_on_c, 8, 52, 116
7, 240256, Note_on_c, 8, 53, 116
7, 240256, Note_on_c, 8, 59, 116
7, 240384, Note_off_c, 8, 44, 0
7, 240384, Note_off_c, 8, 52, 0
7, 240384, Note_off_c, 8, 53, 0
7, 240384, Note_on_c, 8, 67, 116
7, 240384, Note_on_c, 8, 46, 121
7, 240384, Note_on_c, 8, 53, 121
7, 240384, Note_on_c, 8, 55, 121
7, 240386, Note_off_c, 8, 65, 0
7, 240627, Note_off_c, 8, 67, 0
7, 240640, Note_off_c, 8, 59, 0
7, 240640, Note_off_c, 8, 46, 0
7, 240640, Note_off_c, 8, 53, 0
7, 240640, Note_off_c, 8, 55, 0
7, 240640, Note_on_c, 8, 68, 127
7, 240640, Note_on_c, 8, 46, 120
7, 240640, Note_on_c, 8, 53, 120
7, 240640, Note_on_c, 8, 56, 120
7, 240640, Note_on_c, 8, 61, 120
7, 240647, Note_off_c, 8, 59, 0
7, 240768, Note_off_c, 8, 68, 0
7, 240768, Note_off_c, 8, 56, 0
7, 240768, Note_on_c, 8, 68, 119
7, 240768, Note_on_c, 8, 47, 127
7, 240768, Note_on_c, 8, 55, 127
7, 240768, Note_on_c, 8, 56, 127
7, 240768, Note_on_c, 8, 62, 127
7, 240770, Note_off_c, 8, 46, 0
7, 240770, Note_off_c, 8, 53, 0
7, 240770, Note_off_c, 8, 61, 0
7, 240896, Note_off_c, 8, 55, 0
7, 240896, Note_on_c, 8, 67, 116
7, 240896, Note_on_c, 8, 46, 113
7, 240896, Note_on_c, 8, 53, 113
7, 240896, Note_on_c, 8, 55, 113
7, 240896, Note_on_c, 8, 59, 113
7, 240898, Note_off_c, 8, 68, 0
7, 240898, Note_off_c, 8, 47, 0
7, 240898, Note_off_c, 8, 56, 0
7, 240898, Note_off_c, 8, 62, 0
7, 241139, Note_off_c, 8, 67, 0
7, 241139, Note_off_c, 8, 46, 0
7, 241139, Note_off_c, 8, 53, 0
7, 241139, Note_off_c, 8, 55, 0
7, 241139, Note_off_c, 8, 59, 0
7, 241152, Note_on_c, 8, 68, 127
7, 241152, Note_on_c, 8, 46, 121
7, 241152, Note_on_c, 8, 53, 121
7, 241152, Note_on_c, 8, 56, 121
7, 241152, Note_on_c, 8, 61, 121
7, 241280, Note_off_c, 8, 68, 0
7, 241280, Note_off_c, 8, 56, 0
7, 241280, Note_on_c, 8, 68, 113
7, 241280, Note_on_c, 8, 47, 127
7, 241280, Note_on_c, 8, 55, 127
7, 241280, Note_on_c, 8, 56, 127
7, 241280, Note_on_c, 8, 62, 127
7, 241282, Note_off_c, 8, 46, 0
7, 241282, Note_off_c, 8, 53, 0
7, 241282, Note_off_c, 8, 61, 0
7, 241408, Note_off_c, 8, 47, 0
7, 241408, Note_off_c, 8, 56, 0
7, 241408, Note_on_c, 8, 70, 122
7, 241408, Note_on_c, 8, 47, 118
7, 241408, Note_on_c, 8, 56, 118
7, 241408, Note_on_c, 8, 58, 118
7, 241408, Note_on_c, 8, 64, 118
7, 241410, Note_off_c, 8, 68, 0
7, 241410, Note_off_c, 8, 55, 0
7, 241410, Note_off_c, 8, 62, 0
7, 241651, Note_off_c, 8, 70, 0
7, 241651, Note_off_c, 8, 47, 0
7, 241651, Note_off_c, 8, 56, 0
7, 241651, Note_off_c, 8, 58, 0
7, 241651, Note_off_c, 8, 64, 0
7, 241664, Note_on_c, 8, 70, 116
7, 241664, Note_on_c, 8, 49, 118
7, 241664, Note_on_c, 8, 56, 118
7, 241664, Note_on_c, 8, 58, 118
7, 241664, Note_on_c, 8, 65, 118
7, 241792, Note_off_c, 8, 58, 0
7, 241792, Note_off_c, 8, 65, 0
7, 241792, Note_on_c, 8, 71, 123
7, 241792, Note_on_c, 8, 50, 121
7, 241792, Note_on_c, 8, 58, 121
7, 241792, Note_on_c, 8, 59, 121
7, 241792, Note_on_c, 8, 65, 121
7, 241794, Note_off_c, 8, 70, 0
7, 241794, Note_off_c, 8, 49, 0
7, 241794, Note_off_c, 8, 56, 0
7, 241920, Note_off_c, 8, 58, 0
7, 241920, Note_on_c, 8, 70, 108
7, 241920, Note_on_c, 8, 47, 103
7, 241920, Note_on_c, 8, 56, 103
7, 241920, Note_on_c, 8, 58, 103
7, 241920, Note_on_c, 8, 64, 103
7, 241922, Note_off_c, 8, 71, 0
7, 241922, Note_off_c, 8, 50, 0
7, 241922, Note_off_c, 8, 59, 0
7, 241922, Note_off_c, 8, 65, 0
7, 242163, Note_off_c, 8, 70, 0
7, 242163, Note_off_c, 8, 47, 0
7, 242163, Note_off_c, 8, 56, 0
7, 242163, Note_off_c, 8, 58, 0
7, 242163, Note_off_c, 8, 64, 0
7, 242176, Note_on_c, 8, 70, 112
7, 242176, Note_on_c, 8, 49, 120
7, 242176, Note_on_c, 8, 56, 120
7, 242176, Note_on_c, 8, 58, 120
7, 242176, Note_on_c, 8, 65, 120
7, 242304, Note_off_c, 8, 58, 0
7, 242304, Note_off_c, 8, 65, 0
7, 242304, Note_on_c, 8, 71, 118
7, 242304, Note_on_c, 8, 50, 127
7, 242304, Note_on_c, 8, 58, 127
7, 242304, Note_on_c, 8, 59, 127
7, 242304, Note_on_c, 8, 65, 127
7, 242306, Note_off_c, 8, 70, 0
7, 242306, Note_off_c, 8, 49, 0
7, 242306, Note_off_c, 8, 56, 0
7, 242432, Note_off_c, 8, 71, 0
7, 242432, Note_off_c, 8, 58, 0
7, 242432, Note_off_c, 8, 59, 0
7, 242432, Note_on_c, 8, 71, 127
7, 242432, Note_on_c, 8, 52, 117
7, 242432, Note_on_c, 8, 58, 117
7, 242432, Note_on_c, 8, 59, 117
7, 242432, Note_on_c, 8, 67, 117
7, 242434, Note_off_c, 8, 50, 0
7, 242434, Note_off_c, 8, 65, 0
7, 242675, Note_off_c, 8, 71, 0
7, 242675, Note_off_c, 8, 52, 0
7, 242675, Note_off_c, 8, 58, 0
7, 242675, Note_off_c, 8, 59, 0
7, 242675, Note_off_c, 8, 67, 0
7, 242688, Note_on_c, 8, 68, 122
7, 242688, Note_on_c, 8, 73, 122
7, 242688, Note_on_c, 8, 53, 98
7, 242688, Note_on_c, 8, 59, 98
7, 242688, Note_on_c, 8, 61, 98
7, 242816, Note_off_c, 8, 68, 0
7, 242816, Note_off_c, 8, 53, 0
7, 242816, Note_off_c, 8, 59, 0
7, 242816, Note_off_c, 8, 61, 0
7, 242816, Note_on_c, 8, 68, 127
7, 242816, Note_on_c, 8, 74, 127
7, 242816, Note_on_c, 8, 53, 112
7, 242816, Note_on_c, 8, 59, 112
7, 242816, Note_on_c, 8, 62, 112
7, 242818, Note_off_c, 8, 73, 0
7, 243059, Note_off_c, 8, 68, 0
7, 243059, Note_off_c, 8, 74, 0
7, 243072, Note_off_c, 8, 53, 0
7, 243072, Note_off_c, 8, 59, 0
7, 243072, Note_off_c, 8, 62, 0
7, 243072, Note_on_c, 8, 68, 100
7, 243072, Note_on_c, 8, 53, 107
7, 243072, Note_on_c, 8, 59, 107
7, 243072, Note_on_c, 8, 61, 107
7, 243200, Note_off_c, 8, 53, 0
7, 243200, Note_off_c, 8, 59, 0
7, 243200, Note_off_c, 8, 61, 0
7, 243200, Note_on_c, 8, 70, 127
7, 243200, Note_on_c, 8, 56, 124
7, 243200, Note_on_c, 8, 62, 124
7, 243200, Note_on_c, 8, 65, 124
7, 243202, Note_off_c, 8, 68, 0
7, 243443, Note_off_c, 8, 70, 0
7, 243456, Note_off_c, 8, 56, 0
7, 243456, Note_off_c, 8, 62, 0
7, 243456, Note_off_c, 8, 65, 0
7, 243456, Note_on_c, 8, 56, 111
7, 243456, Note_on_c, 8, 64, 111
7, 243584, Note_off_c, 8, 56, 0
7, 243584, Note_off_c, 8, 64, 0
7, 243584, Note_on_c, 8, 58, 115
7, 243584, Note_on_c, 8, 65, 115
7, 243840, Note_off_c, 8, 58, 0
7, 243840, Note_off_c, 8, 65, 0
7, 243840, Note_on_c, 8, 56, 106
7, 243840, Note_on_c, 8, 62, 106
7, 243968, Note_off_c, 8, 56, 0
7, 243968, Note_off_c, 8, 62, 0
7, 243968, Note_on_c, 8, 58, 125
7, 243968, Note_on_c, 8, 65, 125
7, 244224, Note_off_c, 8, 58, 0
7, 244224, Note_off_c, 8, 65, 0
7, 244224, Note_on_c, 8, 55, 106
7, 244224, Note_on_c, 8, 61, 106
7, 244352, Note_off_c, 8, 55, 0
7, 244352, Note_off_c, 8, 61, 0
7, 244352, Note_on_c, 8, 59, 127
7, 244352, Note_on_c, 8, 67, 127
7, 244608, Note_off_c, 8, 59, 0
7, 244608, Note_off_c, 8, 67, 0
7, 244608, Note_on_c, 8, 62, 109
7, 244736, Note_off_c, 8, 62, 0
7, 244736, Note_on_c, 8, 56, 104
7, 244736, Note_on_c, 8, 64, 104
7, 244736, Note_on_c, 8, 65, 104
7, 244736, Note_on_c, 8, 56, 116
7, 244864, Note_off_c, 8, 56, 0
7, 244864, Note_off_c, 8, 64, 0
7, 244864, Note_off_c, 8, 65, 0
7, 244864, Note_off_c, 8, 56, 0
7, 244864, Note_on_c, 8, 61, 127
7, 244864, Note_on_c, 8, 68, 127
7, 244864, Note_on_c, 8, 70, 127
7, 244864, Note_on_c, 8, 61, 127
7, 245120, Note_off_c, 8, 61, 0
7, 245120, Note_off_c, 8, 68, 0
7, 245120, Note_off_c, 8, 70, 0
7, 245120, Note_off_c, 8, 61, 0
7, 245120, Note_on_c, 8, 65, 127
7, 245120, Note_on_c, 8, 71, 127
7, 245120, Note_on_c, 8, 73, 127
7, 245120, Note_on_c, 8, 65, 127
7, 245248, Note_off_c, 8, 65, 0
7, 245248, Note_off_c, 8, 71, 0
7, 245248, Note_off_c, 8, 73, 0
7, 245248, Note_off_c, 8, 65, 0
7, 245504, Note_on_c, 8, 65, 127
7, 245504, Note_on_c, 8, 71, 127
7, 245504, Note_on_c, 8, 73, 127
7, 245504, Note_on_c, 8, 65, 127
7, 245632, Note_off_c, 8, 65, 0
7, 245632, Note_off_c, 8, 71, 0
7, 245632, Note_off_c, 8, 73, 0
7, 245632, Note_off_c, 8, 65, 0
7, 245888, Note_on_c, 8, 67, 127
7, 245888, Note_on_c, 8, 71, 127
7, 245888, Note_on_c, 8, 67, 127
7, 246016, Note_off_c, 8, 67, 0
7, 246016, Note_off_c, 8, 71, 0
7, 246016, Note_off_c, 8, 67, 0
7, 246016, Note_on_c, 8, 55, 112
7, 246016, Note_on_c, 8, 62, 112
7, 246016, Note_on_c, 8, 43, 127
7, 246016, Note_on_c, 8, 50, 127
7, 246144, Note_off_c, 8, 55, 0
7, 246144, Note_off_c, 8, 62, 0
7, 246144, Note_off_c, 8, 43, 0
7, 246144, Note_off_c, 8, 50, 0
7, 246272, Note_on_c, 8, 67, 127
7, 246272, Note_on_c, 8, 71, 127
7, 246272, Note_on_c, 8, 67, 127
7, 246400, Note_off_c, 8, 67, 0
7, 246400, Note_off_c, 8, 71, 0
7, 246400, Note_off_c, 8, 67, 0
7, 246528, Note_on_c, 8, 55, 127
7, 246528, Note_on_c, 8, 62, 127
7, 246528, Note_on_c, 8, 43, 127
7, 246528, Note_on_c, 8, 50, 127
7, 246656, Note_off_c, 8, 55, 0
7, 246656, Note_off_c, 8, 62, 0
7, 246656, Note_off_c, 8, 43, 0
7, 246656, Note_off_c, 8, 50, 0
7, 246656, Note_on_c, 8, 67, 127
7, 246656, Note_on_c, 8, 71, 127
7, 246656, Note_on_c, 8, 67, 127
7, 246784, Note_off_c, 8, 67, 0
7, 246784, Note_off_c, 8, 71, 0
7, 246784, Note_off_c, 8, 67, 0
7, 247040, Note_on_c, 8, 55, 127
7, 247040, Note_on_c, 8, 62, 127
7, 247040, Note_on_c, 8, 67, 127
7, 247040, Note_on_c, 8, 71, 127
7, 247040, Note_on_c, 8, 43, 127
7, 247040, Note_on_c, 8, 50, 127
7, 247040, Note_on_c, 8, 67, 127
7, 247210, Note_off_c, 8, 55, 0
7, 247210, Note_off_c, 8, 62, 0
7, 247210, Note_off_c, 8, 67, 0
7, 247210, Note_off_c, 8, 71, 0
7, 247210, Note_off_c, 8, 43, 0
7, 247210, Note_off_c, 8, 50, 0
7, 247210, Note_off_c, 8, 67, 0
7, 247296, Note_on_c, 8, 59, 127
7, 247296, Note_on_c, 8, 64, 127
7, 247381, Note_on_c, 8, 52, 127
7, 247552, Note_off_c, 8, 59, 0
7, 247552, Note_off_c, 8, 64, 0
7, 247552, Note_off_c, 8, 52, 0
7, 247552, Note_on_c, 8, 55, 127
7, 247552, Note_on_c, 8, 62, 127
7, 247552, Note_on_c, 8, 43, 127
7, 247552, Note_on_c, 8, 50, 127
7, 247680, Note_off_c, 8, 55, 0
7, 247680, Note_off_c, 8, 62, 0
7, 247808, Note_off_c, 8, 43, 0
7, 247808, Note_off_c, 8, 50, 0
7, 247808, Note_on_c, 8, 67, 127
7, 247808, Note_on_c, 8, 71, 127
7, 247808, Note_on_c, 8, 67, 127
7, 247978, Note_off_c, 8, 67, 0
7, 247978, Note_off_c, 8, 71, 0
7, 247978, Note_off_c, 8, 67, 0
7, 248064, Note_on_c, 8, 55, 127
7, 248064, Note_on_c, 8, 62, 127
7, 248064, Note_on_c, 8, 43, 127
7, 248064, Note_on_c, 8, 50, 127
7, 248149, Note_off_c, 8, 55, 0
7, 248149, Note_off_c, 8, 62, 0
7, 248149, Note_off_c, 8, 43, 0
7, 248149, Note_off_c, 8, 50, 0
7, 248149, Note_on_c, 8, 59, 127
7, 248149, Note_on_c, 8, 64, 127
7, 248149, Note_on_c, 8, 52, 127
7, 248320, Note_off_c, 8, 59, 0
7, 248320, Note_off_c, 8, 64, 0
7, 248320, Note_off_c, 8, 52, 0
7, 248576, Note_on_c, 8, 55, 127
7, 248576, Note_on_c, 8, 62, 127
7, 248576, Note_on_c, 8, 43, 127
7, 248576, Note_on_c, 8, 50, 127
7, 248704, Note_off_c, 8, 55, 0
7, 248704, Note_off_c, 8, 62, 0
7, 248704, Note_off_c, 8, 43, 0
7, 248704, Note_off_c, 8, 50, 0
7, 248832, Note_on_c, 8, 67, 120
7, 248832, Note_on_c, 8, 71, 120
7, 248832, Note_on_c, 8, 67, 123
7, 249002, Note_off_c, 8, 67, 0
7, 249002, Note_off_c, 8, 71, 0
7, 249002, Note_off_c, 8, 67, 0
7, 249088, Note_on_c, 8, 55, 127
7, 249088, Note_on_c, 8, 62, 127
7, 249088, Note_on_c, 8, 43, 122
7, 249088, Note_on_c, 8, 50, 122
7, 249173, Note_off_c, 8, 55, 0
7, 249173, Note_off_c, 8, 62, 0
7, 249173, Note_off_c, 8, 43, 0
7, 249173, Note_off_c, 8, 50, 0
7, 249173, Note_on_c, 8, 59, 127
7, 249173, Note_on_c, 8, 64, 127
7, 249173, Note_on_c, 8, 52, 127
7, 249344, Note_off_c, 8, 59, 0
7, 249344, Note_off_c, 8, 64, 0
7, 249344, Note_off_c, 8, 52, 0
7, 249344, Note_on_c, 8, 55, 127
7, 249344, Note_on_c, 8, 62, 127
7, 249344, Note_on_c, 8, 65, 127
7, 249344, Note_on_c, 8, 68, 127
7, 249344, Note_on_c, 8, 43, 127
7, 249344, Note_on_c, 8, 50, 127
7, 249344, Note_on_c, 8, 67, 127
7, 249514, Note_off_c, 8, 55, 0
7, 249514, Note_off_c, 8, 62, 0
7, 249514, Note_off_c, 8, 65, 0
7, 249514, Note_off_c, 8, 68, 0
7, 249514, Note_off_c, 8, 43, 0
7, 249514, Note_off_c, 8, 50, 0
7, 249514, Note_off_c, 8, 67, 0
7, 249685, Note_on_c, 8, 49, 109
7, 249856, Note_off_c, 8, 49, 0
7, 250112, Note_on_c, 8, 61, 106
7, 250282, Note_off_c, 8, 61, 0
7, 250453, Note_on_c, 8, 53, 109
7, 250624, Note_off_c, 8, 53, 0
7, 251136, Note_on_c, 8, 63, 72
7, 251136, Note_on_c, 8, 70, 72
7, 251264, Note_on_c, 8, 58, 73
7, 251264, Note_on_c, 8, 62, 73
7, 251328, Note_off_c, 8, 58, 0
7, 251328, Note_off_c, 8, 62, 0
7, 252160, Note_on_c, 8, 50, 66
7, 252160, Note_on_c, 8, 55, 66
7, 252224, Note_off_c, 8, 50, 0
7, 252224, Note_off_c, 8, 55, 0
7, 252416, Note_on_c, 8, 31, 73
7, 253952, Note_on_c, 8, 43, 74
7, 254976, Note_off_c, 8, 63, 0
7, 254976, Note_off_c, 8, 70, 0
7, 254976, Note_on_c, 8, 63, 70
7, 254976, Note_on_c, 8, 70, 70
7, 256000, Note_off_c, 8, 31, 0
7, 256000, Note_off_c, 8, 43, 0
7, 256000, Note_off_c, 8, 63, 0
7, 256000, Note_off_c, 8, 70, 0
7, 256000, Note_on_c, 8, 31, 49
7, 256000, Note_on_c, 8, 43, 49
7, 257024, Note_off_c, 8, 43, 0
7, 257536, Note_on_c, 8, 34, 42
7, 259072, Note_on_c, 8, 46, 53
7, 260096, Note_off_c, 8, 34, 0
7, 260352, Note_on_c, 8, 34, 53
7, 260608, Note_on_c, 8, 51, 57
7, 261632, Note_on_c, 8, 39, 56
7, 263168, Note_off_c, 8, 46, 0
7, 263424, Note_off_c, 8, 31, 0
7, 263424, Note_on_c, 8, 46, 59
7, 263680, Note_on_c, 8, 31, 62
7, 265472, Note_off_c, 8, 34, 0
7, 265472, Note_off_c, 8, 51, 0
7, 265472, Note_off_c, 8, 39, 0
7, 265472, Note_off_c, 8, 46, 0
7, 265472, Note_off_c, 8, 31, 0
7, 351232, Note_on_c, 8, 50, 90
7, 351360, Note_on_c, 8, 51, 93
7, 351362, Note_off_c, 8, 50, 0
7, 351603, Note_off_c, 8, 51, 0
7, 351616, Note_on_c, 8, 52, 100
7, 351744, Note_on_c, 8, 64, 127
7, 351746, Note_off_c, 8, 52, 0
7, 352391, Note_off_c, 8, 64, 0
7, 352426, Note_on_c, 8, 61, 93
7, 352597, Note_on_c, 8, 62, 92
7, 352600, Note_off_c, 8, 61, 0
7, 353326, Note_off_c, 8, 62, 0
7, 353365, Note_on_c, 8, 55, 78
7, 353706, Note_on_c, 8, 56, 92
7, 353712, Note_off_c, 8, 55, 0
7, 353877, Note_on_c, 8, 57, 96
7, 353880, Note_off_c, 8, 56, 0
7, 354048, Note_on_c, 8, 71, 127
7, 354051, Note_off_c, 8, 57, 0
7, 354412, Note_off_c, 8, 71, 0
7, 354432, Note_on_c, 8, 67, 86
7, 354688, Note_on_c, 8, 68, 101
7, 354693, Note_off_c, 8, 67, 0
7, 355296, Note_off_c, 8, 68, 0
7, 355328, Note_on_c, 8, 52, 71
7, 355669, Note_on_c, 8, 53, 100
7, 355675, Note_off_c, 8, 52, 0
7, 355953, Note_off_c, 8, 53, 0
7, 355968, Note_on_c, 8, 55, 102
7, 356224, Note_on_c, 8, 56, 105
7, 356229, Note_off_c, 8, 55, 0
7, 356832, Note_off_c, 8, 56, 0
7, 356864, Note_on_c, 8, 68, 127
7, 357632, Note_off_c, 8, 68, 0
7, 357632, Note_on_c, 8, 75, 127
7, 358656, Note_off_c, 8, 75, 0
7, 363648, Note_on_c, 8, 61, 75
7, 363648, Note_on_c, 8, 64, 75
7, 363648, Note_on_c, 8, 65, 75
7, 363648, Note_on_c, 8, 67, 75
7, 363712, Note_off_c, 8, 61, 0
7, 363712, Note_off_c, 8, 64, 0
7, 363712, Note_off_c, 8, 65, 0
7, 363712, Note_off_c, 8, 67, 0
7, 364160, Note_on_c, 8, 61, 75
7, 364160, Note_on_c, 8, 64, 75
7, 364160, Note_on_c, 8, 65, 75
7, 364160, Note_on_c, 8, 67, 75
7, 364224, Note_off_c, 8, 61, 0
7, 364224, Note_off_c, 8, 64, 0
7, 364224, Note_off_c, 8, 65, 0
7, 364224, Note_off_c, 8, 67, 0
7, 364672, Note_on_c, 8, 61, 78
7, 364672, Note_on_c, 8, 64, 78
7, 364672, Note_on_c, 8, 65, 78
7, 364672, Note_on_c, 8, 67, 78
7, 364736, Note_off_c, 8, 61, 0
7, 364736, Note_off_c, 8, 64, 0
7, 364736, Note_off_c, 8, 65, 0
7, 364736, Note_off_c, 8, 67, 0
7, 365184, Note_on_c, 8, 61, 73
7, 365184, Note_on_c, 8, 64, 73
7, 365184, Note_on_c, 8, 65, 73
7, 365184, Note_on_c, 8, 67, 73
7, 365248, Note_off_c, 8, 61, 0
7, 365248, Note_off_c, 8, 64, 0
7, 365248, Note_off_c, 8, 65, 0
7, 365248, Note_off_c, 8, 67, 0
7, 365440, Note_on_c, 8, 61, 74
7, 365440, Note_on_c, 8, 66, 74
7, 365440, Note_on_c, 8, 67, 74
7, 365440, Note_on_c, 8, 69, 74
7, 365504, Note_off_c, 8, 61, 0
7, 365504, Note_off_c, 8, 66, 0
7, 365504, Note_off_c, 8, 67, 0
7, 365504, Note_off_c, 8, 69, 0
7, 365952, Note_on_c, 8, 61, 74
7, 365952, Note_on_c, 8, 66, 74
7, 365952, Note_on_c, 8, 67, 74
7, 365952, Note_on_c, 8, 69, 74
7, 366016, Note_off_c, 8, 61, 0
7, 366016, Note_off_c, 8, 66, 0
7, 366016, Note_off_c, 8, 67, 0
7, 366016, Note_off_c, 8, 69, 0
7, 366464, Note_on_c, 8, 61, 80
7, 366464, Note_on_c, 8, 66, 80
7, 366464, Note_on_c, 8, 67, 80
7, 366464, Note_on_c, 8, 69, 80
7, 366528, Note_off_c, 8, 61, 0
7, 366528, Note_off_c, 8, 66, 0
7, 366528, Note_off_c, 8, 67, 0
7, 366528, Note_off_c, 8, 69, 0
7, 366976, Note_on_c, 8, 61, 77
7, 366976, Note_on_c, 8, 66, 77
7, 366976, Note_on_c, 8, 67, 77
7, 366976, Note_on_c, 8, 69, 77
7, 367040, Note_off_c, 8, 61, 0
7, 367040, Note_off_c, 8, 66, 0
7, 367040, Note_off_c, 8, 67, 0
7, 367040, Note_off_c, 8, 69, 0
7, 367488, Note_on_c, 8, 61, 78
7, 367488, Note_on_c, 8, 66, 78
7, 367488, Note_on_c, 8, 67, 78
7, 367488, Note_on_c, 8, 69, 78
7, 367552, Note_off_c, 8, 61, 0
7, 367552, Note_off_c, 8, 66, 0
7, 367552, Note_off_c, 8, 67, 0
7, 367552, Note_off_c, 8, 69, 0
7, 367744, Note_on_c, 8, 61, 73
7, 367744, Note_on_c, 8, 66, 73
7, 367744, Note_on_c, 8, 67, 73
7, 367744, Note_on_c, 8, 69, 73
7, 367808, Note_off_c, 8, 61, 0
7, 367808, Note_off_c, 8, 66, 0
7, 367808, Note_off_c, 8, 67, 0
7, 367808, Note_off_c, 8, 69, 0
7, 368256, Note_on_c, 8, 61, 73
7, 368256, Note_on_c, 8, 66, 73
7, 368256, Note_on_c, 8, 67, 73
7, 368256, Note_on_c, 8, 69, 73
7, 368320, Note_off_c, 8, 61, 0
7, 368320, Note_off_c, 8, 66, 0
7, 368320, Note_off_c, 8, 67, 0
7, 368320, Note_off_c, 8, 69, 0
7, 368512, Note_on_c, 8, 62, 78
7, 368512, Note_on_c, 8, 67, 78
7, 368512, Note_on_c, 8, 68, 78
7, 368512, Note_on_c, 8, 70, 78
7, 368576, Note_off_c, 8, 62, 0
7, 368576, Note_off_c, 8, 67, 0
7, 368576, Note_off_c, 8, 68, 0
7, 368576, Note_off_c, 8, 70, 0
7, 369024, Note_on_c, 8, 62, 72
7, 369024, Note_on_c, 8, 67, 72
7, 369024, Note_on_c, 8, 68, 72
7, 369024, Note_on_c, 8, 70, 72
7, 369088, Note_off_c, 8, 62, 0
7, 369088, Note_off_c, 8, 67, 0
7, 369088, Note_off_c, 8, 68, 0
7, 369088, Note_off_c, 8, 70, 0
7, 369536, Note_on_c, 8, 62, 78
7, 369536, Note_on_c, 8, 67, 78
7, 369536, Note_on_c, 8, 68, 78
7, 369536, Note_on_c, 8, 70, 78
7, 369600, Note_off_c, 8, 62, 0
7, 369600, Note_off_c, 8, 67, 0
7, 369600, Note_off_c, 8, 68, 0
7, 369600, Note_off_c, 8, 70, 0
7, 370048, Note_on_c, 8, 62, 74
7, 370048, Note_on_c, 8, 67, 74
7, 370048, Note_on_c, 8, 68, 74
7, 370048, Note_on_c, 8, 70, 74
7, 370112, Note_off_c, 8, 62, 0
7, 370112, Note_off_c, 8, 67, 0
7, 370112, Note_off_c, 8, 68, 0
7, 370112, Note_off_c, 8, 70, 0
7, 370560, Note_on_c, 8, 62, 75
7, 370560, Note_on_c, 8, 67, 75
7, 370560, Note_on_c, 8, 68, 75
7, 370560, Note_on_c, 8, 70, 75
7, 371072, Note_off_c, 8, 62, 0
7, 371072, Note_off_c, 8, 67, 0
7, 371072, Note_off_c, 8, 68, 0
7, 371072, Note_off_c, 8, 70, 0
7, 371072, Note_on_c, 8, 62, 83
7, 371072, Note_on_c, 8, 67, 83
7, 371072, Note_on_c, 8, 68, 83
7, 371072, Note_on_c, 8, 70, 83
7, 371584, Note_off_c, 8, 62, 0
7, 371584, Note_off_c, 8, 67, 0
7, 371584, Note_off_c, 8, 68, 0
7, 371584, Note_off_c, 8, 70, 0
7, 371584, Note_on_c, 8, 61, 78
7, 371584, Note_on_c, 8, 63, 78
7, 371584, Note_on_c, 8, 68, 78
7, 371584, Note_on_c, 8, 69, 78
7, 372608, Note_off_c, 8, 61, 0
7, 372608, Note_off_c, 8, 63, 0
7, 372608, Note_off_c, 8, 68, 0
7, 372608, Note_off_c, 8, 69, 0
7, 372608, Note_on_c, 8, 61, 83
7, 372608, Note_on_c, 8, 63, 83
7, 372608, Note_on_c, 8, 68, 83
7, 372608, Note_on_c, 8, 69, 83
7, 373120, Note_off_c, 8, 61, 0
7, 373120, Note_off_c, 8, 63, 0
7, 373120, Note_off_c, 8, 68, 0
7, 373120, Note_off_c, 8, 69, 0
7, 373120, Note_on_c, 8, 61, 84
7, 373120, Note_on_c, 8, 63, 84
7, 373120, Note_on_c, 8, 68, 84
7, 373120, Note_on_c, 8, 69, 84
7, 373632, Note_off_c, 8, 61, 0
7, 373632, Note_off_c, 8, 63, 0
7, 373632, Note_off_c, 8, 68, 0
7, 373632, Note_off_c, 8, 69, 0
7, 373632, Note_on_c, 8, 61, 96
7, 373632, Note_on_c, 8, 63, 96
7, 373632, Note_on_c, 8, 68, 96
7, 373632, Note_on_c, 8, 69, 96
7, 373760, Note_off_c, 8, 61, 0
7, 373760, Note_off_c, 8, 63, 0
7, 373760, Note_off_c, 8, 68, 0
7, 373760, Note_off_c, 8, 69, 0
7, 373760, Note_on_c, 8, 61, 83
7, 373760, Note_on_c, 8, 63, 83
7, 373760, Note_on_c, 8, 68, 83
7, 373760, Note_on_c, 8, 69, 83
7, 374144, Note_off_c, 8, 61, 0
7, 374144, Note_off_c, 8, 63, 0
7, 374144, Note_off_c, 8, 68, 0
7, 374144, Note_off_c, 8, 69, 0
7, 374144, Note_on_c, 8, 61, 83
7, 374144, Note_on_c, 8, 63, 83
7, 374144, Note_on_c, 8, 68, 83
7, 374144, Note_on_c, 8, 69, 83
7, 374656, Note_off_c, 8, 61, 0
7, 374656, Note_off_c, 8, 63, 0
7, 374656, Note_off_c, 8, 68, 0
7, 374656, Note_off_c, 8, 69, 0
7, 374656, Note_on_c, 8, 61, 83
7, 374656, Note_on_c, 8, 63, 83
7, 374656, Note_on_c, 8, 68, 83
7, 374656, Note_on_c, 8, 69, 83
7, 374784, Note_off_c, 8, 69, 0
7, 374784, Note_on_c, 8, 64, 90
7, 374784, Note_on_c, 8, 69, 90
7, 374784, Note_on_c, 8, 72, 90
7, 374786, Note_off_c, 8, 61, 0
7, 374786, Note_off_c, 8, 63, 0
7, 374786, Note_off_c, 8, 68, 0
7, 375635, Note_off_c, 8, 64, 0
7, 375635, Note_off_c, 8, 69, 0
7, 375635, Note_off_c, 8, 72, 0
7, 375680, Note_on_c, 8, 64, 79
7, 375680, Note_on_c, 8, 69, 79
7, 375680, Note_on_c, 8, 72, 79
7, 375744, Note_off_c, 8, 64, 0
7, 375744, Note_off_c, 8, 69, 0
7, 375744, Note_off_c, 8, 72, 0
7, 375808, Note_on_c, 8, 64, 81
7, 375808, Note_on_c, 8, 69, 81
7, 375808, Note_on_c, 8, 72, 81
7, 375872, Note_off_c, 8, 64, 0
7, 375872, Note_off_c, 8, 69, 0
7, 375872, Note_off_c, 8, 72, 0
7, 376064, Note_on_c, 8, 64, 77
7, 376064, Note_on_c, 8, 69, 77
7, 376064, Note_on_c, 8, 72, 77
7, 376128, Note_off_c, 8, 64, 0
7, 376128, Note_off_c, 8, 69, 0
7, 376128, Note_off_c, 8, 72, 0
7, 376192, Note_on_c, 8, 64, 86
7, 376192, Note_on_c, 8, 69, 86
7, 376192, Note_on_c, 8, 72, 86
7, 376256, Note_off_c, 8, 64, 0
7, 376256, Note_off_c, 8, 69, 0
7, 376256, Note_off_c, 8, 72, 0
7, 376320, Note_on_c, 8, 64, 81
7, 376320, Note_on_c, 8, 69, 81
7, 376320, Note_on_c, 8, 72, 81
7, 376384, Note_off_c, 8, 64, 0
7, 376384, Note_off_c, 8, 69, 0
7, 376384, Note_off_c, 8, 72, 0
7, 376448, Note_on_c, 8, 64, 84
7, 376448, Note_on_c, 8, 69, 84
7, 376448, Note_on_c, 8, 72, 84
7, 376512, Note_off_c, 8, 64, 0
7, 376512, Note_off_c, 8, 69, 0
7, 376512, Note_off_c, 8, 72, 0
7, 376704, Note_on_c, 8, 64, 73
7, 376704, Note_on_c, 8, 69, 73
7, 376704, Note_on_c, 8, 72, 73
7, 376768, Note_off_c, 8, 64, 0
7, 376768, Note_off_c, 8, 69, 0
7, 376768, Note_off_c, 8, 72, 0
7, 376832, Note_on_c, 8, 64, 85
7, 376832, Note_on_c, 8, 69, 85
7, 376832, Note_on_c, 8, 72, 85
7, 376896, Note_off_c, 8, 64, 0
7, 376896, Note_off_c, 8, 69, 0
7, 376896, Note_off_c, 8, 72, 0
7, 376960, Note_on_c, 8, 64, 85
7, 376960, Note_on_c, 8, 69, 85
7, 376960, Note_on_c, 8, 72, 85
7, 377024, Note_off_c, 8, 64, 0
7, 377024, Note_off_c, 8, 69, 0
7, 377024, Note_off_c, 8, 72, 0
7, 377088, Note_on_c, 8, 64, 79
7, 377088, Note_on_c, 8, 69, 79
7, 377088, Note_on_c, 8, 72, 79
7, 377152, Note_off_c, 8, 64, 0
7, 377152, Note_off_c, 8, 69, 0
7, 377152, Note_off_c, 8, 72, 0
7, 377216, Note_on_c, 8, 64, 82
7, 377216, Note_on_c, 8, 69, 82
7, 377216, Note_on_c, 8, 72, 82
7, 377280, Note_off_c, 8, 64, 0
7, 377280, Note_off_c, 8, 69, 0
7, 377280, Note_off_c, 8, 72, 0
7, 377344, Note_on_c, 8, 64, 75
7, 377344, Note_on_c, 8, 69, 75
7, 377408, Note_off_c, 8, 64, 0
7, 377408, Note_off_c, 8, 69, 0
7, 377472, Note_on_c, 8, 64, 77
7, 377472, Note_on_c, 8, 69, 77
7, 377536, Note_off_c, 8, 64, 0
7, 377536, Note_off_c, 8, 69, 0
7, 377728, Note_on_c, 8, 64, 76
7, 377728, Note_on_c, 8, 69, 76
7, 377792, Note_off_c, 8, 64, 0
7, 377792, Note_off_c, 8, 69, 0
7, 377856, Note_on_c, 8, 64, 83
7, 377856, Note_on_c, 8, 69, 83
7, 377920, Note_off_c, 8, 64, 0
7, 377920, Note_off_c, 8, 69, 0
7, 378112, Note_on_c, 8, 64, 66
7, 378112, Note_on_c, 8, 69, 66
7, 378176, Note_off_c, 8, 64, 0
7, 378176, Note_off_c, 8, 69, 0
7, 378240, Note_on_c, 8, 64, 71
7, 378240, Note_on_c, 8, 69, 71
7, 378304, Note_off_c, 8, 64, 0
7, 378304, Note_off_c, 8, 69, 0
7, 378368, Note_on_c, 8, 64, 69
7, 378368, Note_on_c, 8, 69, 69
7, 378432, Note_off_c, 8, 64, 0
7, 378432, Note_off_c, 8, 69, 0
7, 378496, Note_on_c, 8, 64, 65
7, 378496, Note_on_c, 8, 69, 65
7, 378560, Note_off_c, 8, 64, 0
7, 378560, Note_off_c, 8, 69, 0
7, 378624, Note_on_c, 8, 64, 60
7, 378624, Note_on_c, 8, 69, 60
7, 378688, Note_off_c, 8, 64, 0
7, 378688, Note_off_c, 8, 69, 0
7, 378752, Note_on_c, 8, 64, 60
7, 378752, Note_on_c, 8, 69, 60
7, 378816, Note_off_c, 8, 64, 0
7, 378816, Note_off_c, 8, 69, 0
7, 379008, Note_on_c, 8, 64, 55
7, 379008, Note_on_c, 8, 69, 55
7, 379072, Note_off_c, 8, 64, 0
7, 379072, Note_off_c, 8, 69, 0
7, 379136, Note_on_c, 8, 64, 61
7, 379136, Note_on_c, 8, 69, 61
7, 379200, Note_off_c, 8, 64, 0
7, 379200, Note_off_c, 8, 69, 0
7, 379392, Note_on_c, 8, 64, 56
7, 379392, Note_on_c, 8, 69, 56
7, 379456, Note_off_c, 8, 64, 0
7, 379456, Note_off_c, 8, 69, 0
7, 379520, Note_on_c, 8, 64, 60
7, 379520, Note_on_c, 8, 69, 60
7, 379584, Note_off_c, 8, 64, 0
7, 379584, Note_off_c, 8, 69, 0
7, 379776, Note_on_c, 8, 64, 53
7, 379776, Note_on_c, 8, 69, 53
7, 379840, Note_off_c, 8, 64, 0
7, 379840, Note_off_c, 8, 69, 0
7, 379904, Note_on_c, 8, 64, 57
7, 379904, Note_on_c, 8, 69, 57
7, 379968, Note_off_c, 8, 64, 0
7, 379968, Note_off_c, 8, 69, 0
7, 380160, Note_on_c, 8, 64, 57
7, 380160, Note_on_c, 8, 69, 57
7, 380224, Note_off_c, 8, 64, 0
7, 380224, Note_off_c, 8, 69, 0
7, 380288, Note_on_c, 8, 64, 54
7, 380288, Note_on_c, 8, 69, 54
7, 380352, Note_off_c, 8, 64, 0
7, 380352, Note_off_c, 8, 69, 0
7, 380544, Note_on_c, 8, 64, 49
7, 380544, Note_on_c, 8, 69, 49
7, 380608, Note_off_c, 8, 64, 0
7, 380608, Note_off_c, 8, 69, 0
7, 380672, Note_on_c, 8, 64, 63
7, 380672, Note_on_c, 8, 69, 63
7, 380736, Note_off_c, 8, 64, 0
7, 380736, Note_off_c, 8, 69, 0
7, 380928, Note_on_c, 8, 64, 54
7, 380928, Note_on_c, 8, 69, 54
7, 380992, Note_off_c, 8, 64, 0
7, 380992, Note_off_c, 8, 69, 0
7, 381056, Note_on_c, 8, 64, 59
7, 381056, Note_on_c, 8, 69, 59
7, 381120, Note_off_c, 8, 64, 0
7, 381120, Note_off_c, 8, 69, 0
7, 381312, Note_on_c, 8, 64, 42
7, 381312, Note_on_c, 8, 69, 42
7, 381376, Note_off_c, 8, 64, 0
7, 381376, Note_off_c, 8, 69, 0
7, 381440, Note_on_c, 8, 64, 54
7, 381440, Note_on_c, 8, 69, 54
7, 381504, Note_off_c, 8, 64, 0
7, 381504, Note_off_c, 8, 69, 0
7, 381696, Note_on_c, 8, 64, 44
7, 381696, Note_on_c, 8, 69, 44
7, 381760, Note_off_c, 8, 64, 0
7, 381760, Note_off_c, 8, 69, 0
7, 381824, Note_on_c, 8, 64, 47
7, 381824, Note_on_c, 8, 69, 47
7, 381888, Note_off_c, 8, 64, 0
7, 381888, Note_off_c, 8, 69, 0
7, 382080, Note_on_c, 8, 64, 45
7, 382080, Note_on_c, 8, 69, 45
7, 382144, Note_off_c, 8, 64, 0
7, 382144, Note_off_c, 8, 69, 0
7, 382208, Note_on_c, 8, 64, 45
7, 382208, Note_on_c, 8, 69, 45
7, 382272, Note_off_c, 8, 64, 0
7, 382272, Note_off_c, 8, 69, 0
7, 382464, Note_on_c, 8, 64, 37
7, 382464, Note_on_c, 8, 69, 37
7, 382528, Note_off_c, 8, 64, 0
7, 382528, Note_off_c, 8, 69, 0
7, 382592, Note_on_c, 8, 64, 43
7, 382592, Note_on_c, 8, 69, 43
7, 382656, Note_off_c, 8, 64, 0
7, 382656, Note_off_c, 8, 69, 0
7, 391040, Note_on_c, 8, 64, 100
7, 391040, Note_on_c, 8, 70, 100
7, 391040, Note_on_c, 8, 75, 100
7, 391040, Note_on_c, 8, 64, 105
7, 391104, Note_off_c, 8, 64, 0
7, 391104, Note_off_c, 8, 70, 0
7, 391104, Note_off_c, 8, 75, 0
7, 391104, Note_off_c, 8, 64, 0
7, 391808, Note_on_c, 8, 64, 105
7, 391808, Note_on_c, 8, 70, 105
7, 391808, Note_on_c, 8, 75, 105
7, 391808, Note_on_c, 8, 64, 103
7, 391872, Note_off_c, 8, 64, 0
7, 391872, Note_off_c, 8, 70, 0
7, 391872, Note_off_c, 8, 75, 0
7, 391872, Note_off_c, 8, 64, 0
7, 392576, Note_on_c, 8, 64, 100
7, 392576, Note_on_c, 8, 70, 100
7, 392576, Note_on_c, 8, 75, 100
7, 392576, Note_on_c, 8, 64, 103
7, 392640, Note_off_c, 8, 64, 0
7, 392640, Note_off_c, 8, 70, 0
7, 392640, Note_off_c, 8, 75, 0
7, 392640, Note_off_c, 8, 64, 0
7, 393216, Note_on_c, 8, 64, 100
7, 393216, Note_on_c, 8, 70, 100
7, 393216, Note_on_c, 8, 75, 100
7, 393216, Note_on_c, 8, 64, 103
7, 393280, Note_off_c, 8, 64, 0
7, 393280, Note_off_c, 8, 70, 0
7, 393280, Note_off_c, 8, 75, 0
7, 393280, Note_off_c, 8, 64, 0
7, 393856, Note_on_c, 8, 64, 100
7, 393856, Note_on_c, 8, 70, 100
7, 393856, Note_on_c, 8, 75, 100
7, 393856, Note_on_c, 8, 64, 103
7, 393920, Note_off_c, 8, 64, 0
7, 393920, Note_off_c, 8, 70, 0
7, 393920, Note_off_c, 8, 75, 0
7, 393920, Note_off_c, 8, 64, 0
7, 394368, Note_on_c, 8, 64, 102
7, 394368, Note_on_c, 8, 70, 102
7, 394368, Note_on_c, 8, 75, 102
7, 394368, Note_on_c, 8, 64, 104
7, 394432, Note_off_c, 8, 64, 0
7, 394432, Note_off_c, 8, 70, 0
7, 394432, Note_off_c, 8, 75, 0
7, 394432, Note_off_c, 8, 64, 0
7, 395136, Note_on_c, 8, 64, 101
7, 395136, Note_on_c, 8, 70, 101
7, 395136, Note_on_c, 8, 75, 101
7, 395136, Note_on_c, 8, 64, 99
7, 395200, Note_off_c, 8, 64, 0
7, 395200, Note_off_c, 8, 70, 0
7, 395200, Note_off_c, 8, 75, 0
7, 395200, Note_off_c, 8, 64, 0
7, 395520, Note_on_c, 8, 64, 100
7, 395520, Note_on_c, 8, 70, 100
7, 395520, Note_on_c, 8, 75, 100
7, 395520, Note_on_c, 8, 64, 101
7, 395584, Note_off_c, 8, 64, 0
7, 395584, Note_off_c, 8, 70, 0
7, 395584, Note_off_c, 8, 75, 0
7, 395584, Note_off_c, 8, 64, 0
7, 396288, Note_on_c, 8, 64, 108
7, 396288, Note_on_c, 8, 70, 108
7, 396288, Note_on_c, 8, 75, 108
7, 396288, Note_on_c, 8, 64, 106
7, 396352, Note_off_c, 8, 64, 0
7, 396352, Note_off_c, 8, 70, 0
7, 396352, Note_off_c, 8, 75, 0
7, 396352, Note_off_c, 8, 64, 0
7, 397568, Note_on_c, 8, 63, 125
7, 397568, Note_on_c, 8, 70, 125
7, 397568, Note_on_c, 8, 75, 125
7, 397824, Note_off_c, 8, 63, 0
7, 397824, Note_off_c, 8, 70, 0
7, 397824, Note_off_c, 8, 75, 0
7, 398336, Note_on_c, 8, 63, 124
7, 398336, Note_on_c, 8, 70, 124
7, 398336, Note_on_c, 8, 75, 124
7, 398592, Note_off_c, 8, 63, 0
7, 398592, Note_off_c, 8, 70, 0
7, 398592, Note_off_c, 8, 75, 0
7, 399104, Note_on_c, 8, 63, 123
7, 399104, Note_on_c, 8, 70, 123
7, 399104, Note_on_c, 8, 75, 123
7, 399360, Note_off_c, 8, 63, 0
7, 399360, Note_off_c, 8, 70, 0
7, 399360, Note_off_c, 8, 75, 0
7, 399872, Note_on_c, 8, 63, 127
7, 399872, Note_on_c, 8, 70, 127
7, 399872, Note_on_c, 8, 75, 127
7, 400128, Note_off_c, 8, 63, 0
7, 400128, Note_off_c, 8, 70, 0
7, 400128, Note_off_c, 8, 75, 0
7, 400640, Note_on_c, 8, 63, 118
7, 400640, Note_on_c, 8, 70, 118
7, 400640, Note_on_c, 8, 75, 118
7, 400896, Note_off_c, 8, 63, 0
7, 400896, Note_off_c, 8, 70, 0
7, 400896, Note_off_c, 8, 75, 0
7, 401408, Note_on_c, 8, 63, 126
7, 401408, Note_on_c, 8, 70, 126
7, 401408, Note_on_c, 8, 75, 126
7, 401664, Note_off_c, 8, 63, 0
7, 401664, Note_off_c, 8, 70, 0
7, 401664, Note_off_c, 8, 75, 0
7, 402304, Note_on_c, 8, 63, 122
7, 402304, Note_on_c, 8, 70, 122
7, 402304, Note_on_c, 8, 75, 122
7, 402560, Note_off_c, 8, 63, 0
7, 402560, Note_off_c, 8, 70, 0
7, 402560, Note_off_c, 8, 75, 0
7, 402944, Note_on_c, 8, 63, 127
7, 402944, Note_on_c, 8, 36, 116
7, 402944, Note_on_c, 8, 39, 116
7, 403072, Note_off_c, 8, 63, 0
7, 403200, Note_on_c, 8, 70, 113
7, 403200, Note_on_c, 8, 75, 113
7, 403456, Note_off_c, 8, 70, 0
7, 403456, Note_off_c, 8, 75, 0
7, 403712, Note_on_c, 8, 63, 127
7, 403840, Note_off_c, 8, 63, 0
7, 404224, Note_off_c, 8, 36, 0
7, 404224, Note_off_c, 8, 39, 0
7, 404480, Note_on_c, 8, 63, 127
7, 404608, Note_off_c, 8, 63, 0
7, 404736, Note_on_c, 8, 36, 108
7, 404736, Note_on_c, 8, 39, 108
7, 405248, Note_on_c, 8, 63, 127
7, 405376, Note_off_c, 8, 63, 0
7, 405504, Note_off_c, 8, 36, 0
7, 405504, Note_off_c, 8, 39, 0
7, 406016, Note_on_c, 8, 63, 127
7, 406144, Note_off_c, 8, 63, 0
7, 406272, Note_on_c, 8, 36, 105
7, 406272, Note_on_c, 8, 39, 105
7, 406656, Note_on_c, 8, 61, 127
7, 406784, Note_off_c, 8, 61, 0
7, 406784, Note_off_c, 8, 36, 0
7, 406784, Note_off_c, 8, 39, 0
7, 406784, Note_on_c, 8, 63, 127
7, 406784, Note_on_c, 8, 36, 127
7, 406784, Note_on_c, 8, 39, 127
7, 406912, Note_off_c, 8, 63, 0
7, 407552, Note_off_c, 8, 36, 0
7, 407552, Note_off_c, 8, 39, 0
7, 407552, Note_on_c, 8, 63, 127
7, 407680, Note_off_c, 8, 63, 0
7, 407808, Note_on_c, 8, 36, 127
7, 407808, Note_on_c, 8, 39, 127
7, 408320, Note_on_c, 8, 63, 127
7, 408384, Note_off_c, 8, 36, 0
7, 408384, Note_off_c, 8, 39, 0
7, 408448, Note_off_c, 8, 63, 0
7, 409088, Note_on_c, 8, 63, 127
7, 409216, Note_off_c, 8, 63, 0
7, 409344, Note_on_c, 8, 36, 115
7, 409344, Note_on_c, 8, 39, 115
7, 409728, Note_on_c, 8, 61, 127
7, 409856, Note_off_c, 8, 61, 0
7, 409856, Note_off_c, 8, 36, 0
7, 409856, Note_off_c, 8, 39, 0
7, 409856, Note_on_c, 8, 63, 127
7, 409856, Note_on_c, 8, 36, 122
7, 409856, Note_on_c, 8, 39, 122
7, 409984, Note_off_c, 8, 63, 0
7, 410496, Note_on_c, 8, 61, 127
7, 410624, Note_off_c, 8, 61, 0
7, 410624, Note_off_c, 8, 36, 0
7, 410624, Note_off_c, 8, 39, 0
7, 410624, Note_on_c, 8, 63, 127
7, 410752, Note_off_c, 8, 63, 0
7, 410880, Note_on_c, 8, 35, 127
7, 410880, Note_on_c, 8, 40, 127
7, 411392, Note_off_c, 8, 35, 0
7, 411392, Note_off_c, 8, 40, 0
7, 411392, Note_on_c, 8, 37, 127
7, 411392, Note_on_c, 8, 41, 127
7, 411648, Note_on_c, 8, 65, 127
7, 411776, Note_off_c, 8, 65, 0
7, 411776, Note_on_c, 8, 68, 127
7, 411904, Note_off_c, 8, 68, 0
7, 411904, Note_off_c, 8, 37, 0
7, 411904, Note_off_c, 8, 41, 0
7, 412416, Note_on_c, 8, 37, 116
7, 412416, Note_on_c, 8, 41, 116
7, 412544, Note_on_c, 8, 65, 127
7, 412672, Note_off_c, 8, 65, 0
7, 412672, Note_on_c, 8, 68, 127
7, 412800, Note_off_c, 8, 68, 0
7, 413440, Note_off_c, 8, 37, 0
7, 413440, Note_off_c, 8, 41, 0
7, 413440, Note_on_c, 8, 65, 127
7, 413440, Note_on_c, 8, 41, 127
7, 413440, Note_on_c, 8, 44, 127
7, 413568, Note_off_c, 8, 65, 0
7, 413568, Note_on_c, 8, 68, 127
7, 413696, Note_off_c, 8, 68, 0
7, 413760, Note_off_c, 8, 41, 0
7, 413760, Note_off_c, 8, 44, 0
7, 414208, Note_on_c, 8, 37, 116
7, 414208, Note_on_c, 8, 41, 116
7, 414336, Note_on_c, 8, 65, 127
7, 414464, Note_off_c, 8, 65, 0
7, 414464, Note_on_c, 8, 68, 127
7, 414592, Note_off_c, 8, 68, 0
7, 415232, Note_off_c, 8, 37, 0
7, 415232, Note_off_c, 8, 41, 0
7, 415232, Note_on_c, 8, 63, 127
7, 415360, Note_off_c, 8, 63, 0
7, 415360, Note_on_c, 8, 68, 127
7, 415488, Note_off_c, 8, 68, 0
7, 415488, Note_on_c, 8, 37, 112
7, 415488, Note_on_c, 8, 40, 112
7, 416128, Note_on_c, 8, 64, 127
7, 416256, Note_off_c, 8, 64, 0
7, 416256, Note_on_c, 8, 69, 127
7, 416320, Note_off_c, 8, 37, 0
7, 416320, Note_off_c, 8, 40, 0
7, 416384, Note_off_c, 8, 69, 0
7, 416512, Note_on_c, 8, 37, 118
7, 416512, Note_on_c, 8, 40, 118
7, 416896, Note_on_c, 8, 61, 127
7, 417024, Note_off_c, 8, 61, 0
7, 417024, Note_on_c, 8, 63, 127
7, 417152, Note_off_c, 8, 63, 0
7, 417152, Note_on_c, 8, 69, 127
7, 417280, Note_off_c, 8, 69, 0
7, 417280, Note_off_c, 8, 37, 0
7, 417280, Note_off_c, 8, 40, 0
7, 417536, Note_on_c, 8, 40, 109
7, 417536, Note_on_c, 8, 44, 109
7, 417664, Note_on_c, 8, 63, 127
7, 417792, Note_off_c, 8, 63, 0
7, 417792, Note_on_c, 8, 69, 127
7, 417920, Note_off_c, 8, 69, 0
7, 418304, Note_off_c, 8, 40, 0
7, 418304, Note_off_c, 8, 44, 0
7, 418304, Note_on_c, 8, 46, 127
7, 418304, Note_on_c, 8, 49, 127
7, 418432, Note_on_c, 8, 69, 127
7, 418560, Note_off_c, 8, 69, 0
7, 418560, Note_on_c, 8, 69, 127
7, 418688, Note_off_c, 8, 69, 0
7, 418688, Note_on_c, 8, 73, 127
7, 418816, Note_off_c, 8, 73, 0
7, 418816, Note_on_c, 8, 51, 127
7, 418944, Note_off_c, 8, 51, 0
7, 418944, Note_on_c, 8, 57, 127
7, 419072, Note_off_c, 8, 57, 0
7, 419072, Note_on_c, 8, 61, 127
7, 419200, Note_off_c, 8, 61, 0
7, 419200, Note_on_c, 8, 63, 127
7, 419328, Note_off_c, 8, 63, 0
7, 419328, Note_off_c, 8, 46, 0
7, 419328, Note_off_c, 8, 49, 0
7, 419328, Note_on_c, 8, 69, 127
7, 419328, Note_on_c, 8, 46, 127
7, 419328, Note_on_c, 8, 49, 127
7, 419456, Note_off_c, 8, 69, 0
7, 419456, Note_on_c, 8, 69, 127
7, 419584, Note_off_c, 8, 69, 0
7, 419584, Note_on_c, 8, 72, 127
7, 419712, Note_off_c, 8, 72, 0
7, 419712, Note_on_c, 8, 55, 127
7, 419840, Note_off_c, 8, 55, 0
7, 419840, Note_off_c, 8, 46, 0
7, 419840, Note_off_c, 8, 49, 0
7, 419840, Note_on_c, 8, 61, 127
7, 419840, Note_on_c, 8, 48, 127
7, 419840, Note_on_c, 8, 52, 127
7, 419968, Note_off_c, 8, 61, 0
7, 419968, Note_on_c, 8, 61, 127
7, 420096, Note_off_c, 8, 61, 0
7, 420096, Note_on_c, 8, 64, 127
7, 420160, Note_off_c, 8, 48, 0
7, 420160, Note_off_c, 8, 52, 0
7, 420224, Note_off_c, 8, 64, 0
7, 420224, Note_on_c, 8, 69, 127
7, 420352, Note_off_c, 8, 69, 0
7, 420352, Note_on_c, 8, 73, 127
7, 420480, Note_off_c, 8, 73, 0
7, 420480, Note_on_c, 8, 54, 127
7, 420608, Note_off_c, 8, 54, 0
7, 420608, Note_on_c, 8, 61, 127
7, 420608, Note_on_c, 8, 42, 113
7, 420608, Note_on_c, 8, 45, 113
7, 420736, Note_off_c, 8, 61, 0
7, 420736, Note_on_c, 8, 61, 127
7, 420864, Note_off_c, 8, 61, 0
7, 420864, Note_on_c, 8, 64, 127
7, 420992, Note_off_c, 8, 64, 0
7, 420992, Note_on_c, 8, 69, 127
7, 421120, Note_off_c, 8, 69, 0
7, 421120, Note_on_c, 8, 73, 127
7, 421248, Note_off_c, 8, 73, 0
7, 421248, Note_on_c, 8, 76, 127
7, 421376, Note_off_c, 8, 76, 0
7, 421376, Note_off_c, 8, 42, 0
7, 421376, Note_off_c, 8, 45, 0
7, 421376, Note_on_c, 8, 76, 127
7, 421376, Note_on_c, 8, 48, 127
7, 421376, Note_on_c, 8, 52, 127
7, 421504, Note_off_c, 8, 76, 0
7, 421504, Note_on_c, 8, 54, 127
7, 421632, Note_off_c, 8, 54, 0
7, 421632, Note_on_c, 8, 61, 127
7, 421760, Note_off_c, 8, 61, 0
7, 421760, Note_off_c, 8, 48, 0
7, 421760, Note_off_c, 8, 52, 0
7, 421760, Note_on_c, 8, 64, 127
7, 421760, Note_on_c, 8, 54, 127
7, 421760, Note_on_c, 8, 57, 127
7, 421888, Note_off_c, 8, 64, 0
7, 421888, Note_on_c, 8, 66, 127
7, 422016, Note_off_c, 8, 66, 0
7, 422016, Note_off_c, 8, 54, 0
7, 422016, Note_off_c, 8, 57, 0
7, 422016, Note_on_c, 8, 73, 127
7, 422016, Note_on_c, 8, 57, 127
7, 422016, Note_on_c, 8, 61, 127
7, 422144, Note_off_c, 8, 73, 0
7, 422144, Note_on_c, 8, 76, 127
7, 422272, Note_off_c, 8, 76, 0
7, 422272, Note_on_c, 8, 76, 127
7, 422400, Note_off_c, 8, 76, 0
7, 422400, Note_on_c, 8, 54, 127
7, 422528, Note_off_c, 8, 54, 0
7, 422528, Note_off_c, 8, 57, 0
7, 422528, Note_off_c, 8, 61, 0
7, 422528, Note_on_c, 8, 61, 127
7, 422528, Note_on_c, 8, 64, 127
7, 422528, Note_on_c, 8, 66, 127
7, 422656, Note_off_c, 8, 61, 0
7, 422656, Note_on_c, 8, 66, 127
7, 422784, Note_off_c, 8, 66, 0
7, 422784, Note_on_c, 8, 71, 127
7, 422912, Note_off_c, 8, 71, 0
7, 422912, Note_off_c, 8, 64, 0
7, 422912, Note_off_c, 8, 66, 0
7, 422912, Note_on_c, 8, 76, 127
7, 422912, Note_on_c, 8, 55, 119
7, 422912, Note_on_c, 8, 59, 119
7, 423040, Note_off_c, 8, 76, 0
7, 423040, Note_on_c, 8, 60, 127
7, 423168, Note_off_c, 8, 60, 0
7, 423168, Note_on_c, 8, 66, 127
7, 423296, Note_off_c, 8, 66, 0
7, 423296, Note_off_c, 8, 55, 0
7, 423296, Note_off_c, 8, 59, 0
7, 423296, Note_on_c, 8, 72, 127
7, 423296, Note_on_c, 8, 61, 127
7, 423296, Note_on_c, 8, 64, 127
7, 423424, Note_off_c, 8, 72, 0
7, 423424, Note_on_c, 8, 73, 127
7, 423552, Note_off_c, 8, 73, 0
7, 423680, Note_off_c, 8, 61, 0
7, 423680, Note_off_c, 8, 64, 0
7, 423680, Note_on_c, 8, 63, 127
7, 423680, Note_on_c, 8, 66, 127
7, 423936, Note_on_c, 8, 60, 127
7, 424064, Note_off_c, 8, 60, 0
7, 424064, Note_off_c, 8, 63, 0
7, 424064, Note_off_c, 8, 66, 0
7, 424064, Note_on_c, 8, 66, 127
7, 424064, Note_on_c, 8, 66, 127
7, 424064, Note_on_c, 8, 71, 127
7, 424192, Note_off_c, 8, 66, 0
7, 424192, Note_on_c, 8, 72, 127
7, 424320, Note_off_c, 8, 72, 0
7, 424320, Note_off_c, 8, 66, 0
7, 424320, Note_off_c, 8, 71, 0
7, 424448, Note_on_c, 8, 60, 109
7, 424448, Note_on_c, 8, 64, 109
7, 424448, Note_on_c, 8, 60, 114
7, 424448, Note_on_c, 8, 64, 114
7, 424704, Note_off_c, 8, 60, 0
7, 424704, Note_off_c, 8, 64, 0
7, 424704, Note_on_c, 8, 66, 123
7, 424704, Note_on_c, 8, 69, 123
7, 424704, Note_on_c, 8, 66, 127
7, 424704, Note_on_c, 8, 69, 127
7, 424709, Note_off_c, 8, 60, 0
7, 424709, Note_off_c, 8, 64, 0
7, 424960, Note_off_c, 8, 66, 0
7, 424960, Note_off_c, 8, 69, 0
7, 424960, Note_on_c, 8, 67, 127
7, 424960, Note_on_c, 8, 71, 127
7, 424960, Note_on_c, 8, 67, 127
7, 424960, Note_on_c, 8, 71, 127
7, 424965, Note_off_c, 8, 66, 0
7, 424965, Note_off_c, 8, 69, 0
7, 425216, Note_off_c, 8, 71, 0
7, 425216, Note_off_c, 8, 67, 0
7, 425216, Note_off_c, 8, 71, 0
7, 425216, Note_on_c, 8, 71, 127
7, 425216, Note_on_c, 8, 76, 127
7, 425221, Note_off_c, 8, 67, 0
7, 425337, Note_off_c, 8, 71, 0
7, 425337, Note_off_c, 8, 76, 0
7, 425600, Note_on_c, 8, 69, 118
7, 425600, Note_on_c, 8, 74, 118
7, 425856, Note_off_c, 8, 69, 0
7, 425856, Note_off_c, 8, 74, 0
7, 426240, Note_on_c, 8, 69, 114
7, 426240, Note_on_c, 8, 74, 114
7, 426496, Note_off_c, 8, 69, 0
7, 426496, Note_off_c, 8, 74, 0
7, 427136, Note_on_c, 8, 72, 119
7, 427136, Note_on_c, 8, 74, 119
7, 427136, Note_on_c, 8, 68, 115
7, 427392, Note_off_c, 8, 72, 0
7, 427392, Note_off_c, 8, 74, 0
7, 427392, Note_off_c, 8, 68, 0
7, 428032, Note_on_c, 8, 71, 110
7, 428032, Note_on_c, 8, 74, 110
7, 428032, Note_on_c, 8, 67, 111
7, 428288, Note_off_c, 8, 71, 0
7, 428288, Note_off_c, 8, 74, 0
7, 428288, Note_off_c, 8, 67, 0
7, 428800, Note_on_c, 8, 68, 116
7, 428800, Note_on_c, 8, 70, 116
7, 428800, Note_on_c, 8, 66, 116
7, 429056, Note_off_c, 8, 68, 0
7, 429056, Note_off_c, 8, 70, 0
7, 429056, Note_off_c, 8, 66, 0
7, 429568, Note_on_c, 8, 69, 110
7, 429568, Note_on_c, 8, 74, 110
7, 429568, Note_on_c, 8, 69, 113
7, 429824, Note_off_c, 8, 69, 0
7, 429824, Note_off_c, 8, 74, 0
7, 429824, Note_off_c, 8, 69, 0
7, 430080, Note_on_c, 8, 67, 111
7, 430080, Note_on_c, 8, 71, 111
7, 430080, Note_on_c, 8, 67, 110
7, 430336, Note_off_c, 8, 67, 0
7, 430336, Note_off_c, 8, 71, 0
7, 430336, Note_off_c, 8, 67, 0
7, 430592, Note_on_c, 8, 66, 112
7, 430592, Note_on_c, 8, 70, 112
7, 430592, Note_on_c, 8, 66, 115
7, 430848, Note_off_c, 8, 66, 0
7, 430848, Note_off_c, 8, 70, 0
7, 430848, Note_off_c, 8, 66, 0
7, 431104, Note_on_c, 8, 65, 115
7, 431104, Note_on_c, 8, 69, 115
7, 431104, Note_on_c, 8, 65, 109
7, 431360, Note_off_c, 8, 65, 0
7, 431360, Note_off_c, 8, 69, 0
7, 431360, Note_off_c, 8, 65, 0
7, 431616, Note_on_c, 8, 73, 112
7, 431616, Note_on_c, 8, 74, 112
7, 431616, Note_on_c, 8, 69, 118
7, 431872, Note_off_c, 8, 73, 0
7, 431872, Note_off_c, 8, 74, 0
7, 431872, Note_off_c, 8, 69, 0
7, 432256, Note_on_c, 8, 67, 113
7, 432256, Note_on_c, 8, 71, 113
7, 432256, Note_on_c, 8, 67, 115
7, 432512, Note_off_c, 8, 67, 0
7, 432512, Note_off_c, 8, 71, 0
7, 432512, Note_off_c, 8, 67, 0
7, 432640, Note_on_c, 8, 66, 113
7, 432640, Note_on_c, 8, 73, 113
7, 432640, Note_on_c, 8, 66, 112
7, 432896, Note_off_c, 8, 66, 0
7, 432896, Note_off_c, 8, 73, 0
7, 432896, Note_off_c, 8, 66, 0
7, 433152, Note_on_c, 8, 65, 110
7, 433152, Note_on_c, 8, 72, 110
7, 433152, Note_on_c, 8, 65, 111
7, 433408, Note_off_c, 8, 65, 0
7, 433408, Note_off_c, 8, 72, 0
7, 433408, Note_off_c, 8, 65, 0
7, 433664, Note_on_c, 8, 64, 115
7, 433664, Note_on_c, 8, 69, 115
7, 433664, Note_on_c, 8, 64, 109
7, 433920, Note_off_c, 8, 64, 0
7, 433920, Note_off_c, 8, 69, 0
7, 433920, Note_off_c, 8, 64, 0
7, 434304, Note_on_c, 8, 69, 113
7, 434304, Note_on_c, 8, 74, 113
7, 434304, Note_on_c, 8, 69, 115
7, 434560, Note_off_c, 8, 69, 0
7, 434560, Note_off_c, 8, 74, 0
7, 434560, Note_off_c, 8, 69, 0
7, 434688, Note_on_c, 8, 69, 114
7, 434688, Note_on_c, 8, 70, 114
7, 434688, Note_on_c, 8, 69, 109
7, 434944, Note_off_c, 8, 69, 0
7, 434944, Note_off_c, 8, 70, 0
7, 434944, Note_off_c, 8, 69, 0
7, 435328, Note_on_c, 8, 68, 113
7, 435328, Note_on_c, 8, 69, 113
7, 435328, Note_on_c, 8, 71, 113
7, 435328, Note_on_c, 8, 68, 115
7, 435584, Note_off_c, 8, 68, 0
7, 435584, Note_off_c, 8, 69, 0
7, 435584, Note_off_c, 8, 71, 0
7, 435584, Note_off_c, 8, 68, 0
7, 435712, Note_on_c, 8, 65, 114
7, 435712, Note_on_c, 8, 69, 114
7, 435712, Note_on_c, 8, 70, 114
7, 435712, Note_on_c, 8, 63, 115
7, 435968, Note_off_c, 8, 65, 0
7, 435968, Note_off_c, 8, 69, 0
7, 435968, Note_off_c, 8, 70, 0
7, 435968, Note_off_c, 8, 63, 0
7, 436224, Note_on_c, 8, 64, 113
7, 436224, Note_on_c, 8, 69, 113
7, 436224, Note_on_c, 8, 71, 113
7, 436224, Note_on_c, 8, 64, 112
7, 436480, Note_off_c, 8, 64, 0
7, 436480, Note_off_c, 8, 69, 0
7, 436480, Note_off_c, 8, 71, 0
7, 436480, Note_off_c, 8, 64, 0
7, 436864, Note_on_c, 8, 69, 114
7, 436864, Note_on_c, 8, 71, 114
7, 436864, Note_on_c, 8, 72, 114
7, 437120, Note_off_c, 8, 69, 0
7, 437120, Note_off_c, 8, 71, 0
7, 437120, Note_off_c, 8, 72, 0
7, 437504, Note_on_c, 8, 67, 118
7, 437504, Note_on_c, 8, 71, 118
7, 437504, Note_on_c, 8, 73, 118
7, 437504, Note_on_c, 8, 67, 113
7, 437760, Note_off_c, 8, 67, 0
7, 437760, Note_off_c, 8, 71, 0
7, 437760, Note_off_c, 8, 73, 0
7, 437760, Note_off_c, 8, 67, 0
7, 438016, Note_on_c, 8, 69, 116
7, 438016, Note_on_c, 8, 73, 116
7, 438016, Note_on_c, 8, 74, 116
7, 438016, Note_on_c, 8, 69, 113
7, 438272, Note_off_c, 8, 69, 0
7, 438272, Note_off_c, 8, 73, 0
7, 438272, Note_off_c, 8, 74, 0
7, 438272, Note_off_c, 8, 69, 0
7, 438400, Note_on_c, 8, 67, 119
7, 438400, Note_on_c, 8, 71, 119
7, 438400, Note_on_c, 8, 67, 117
7, 438656, Note_off_c, 8, 67, 0
7, 438656, Note_off_c, 8, 71, 0
7, 438656, Note_off_c, 8, 67, 0
7, 438912, Note_on_c, 8, 66, 113
7, 438912, Note_on_c, 8, 68, 113
7, 438912, Note_on_c, 8, 70, 113
7, 438912, Note_on_c, 8, 66, 111
7, 439168, Note_off_c, 8, 66, 0
7, 439168, Note_off_c, 8, 68, 0
7, 439168, Note_off_c, 8, 70, 0
7, 439168, Note_off_c, 8, 66, 0
7, 439296, Note_on_c, 8, 65, 117
7, 439296, Note_on_c, 8, 69, 117
7, 439296, Note_on_c, 8, 72, 117
7, 439296, Note_on_c, 8, 65, 114
7, 439552, Note_off_c, 8, 65, 0
7, 439552, Note_off_c, 8, 69, 0
7, 439552, Note_off_c, 8, 72, 0
7, 439552, Note_off_c, 8, 65, 0
7, 439808, Note_on_c, 8, 64, 114
7, 439808, Note_on_c, 8, 67, 114
7, 439808, Note_on_c, 8, 69, 114
7, 439808, Note_on_c, 8, 71, 114
7, 439808, Note_on_c, 8, 64, 119
7, 439808, Note_on_c, 8, 67, 119
7, 440064, Note_off_c, 8, 64, 0
7, 440064, Note_off_c, 8, 67, 0
7, 440064, Note_off_c, 8, 69, 0
7, 440064, Note_off_c, 8, 71, 0
7, 440064, Note_off_c, 8, 64, 0
7, 440064, Note_off_c, 8, 67, 0
7, 440320, Note_on_c, 8, 63, 114
7, 440320, Note_on_c, 8, 69, 114
7, 440320, Note_on_c, 8, 70, 114
7, 440320, Note_on_c, 8, 63, 114
7, 440320, Note_on_c, 8, 66, 114
7, 440576, Note_off_c, 8, 63, 0
7, 440576, Note_off_c, 8, 69, 0
7, 440576, Note_off_c, 8, 70, 0
7, 440576, Note_off_c, 8, 63, 0
7, 440576, Note_off_c, 8, 66, 0
7, 440832, Note_on_c, 8, 61, 113
7, 440832, Note_on_c, 8, 64, 113
7, 440832, Note_on_c, 8, 68, 113
7, 440832, Note_on_c, 8, 69, 113
7, 440832, Note_on_c, 8, 61, 115
7, 440832, Note_on_c, 8, 64, 115
7, 441088, Note_off_c, 8, 61, 0
7, 441088, Note_off_c, 8, 64, 0
7, 441088, Note_off_c, 8, 68, 0
7, 441088, Note_off_c, 8, 69, 0
7, 441088, Note_off_c, 8, 61, 0
7, 441088, Note_off_c, 8, 64, 0
7, 441088, Note_on_c, 8, 59, 120
7, 441088, Note_on_c, 8, 62, 120
7, 441088, Note_on_c, 8, 66, 120
7, 441088, Note_on_c, 8, 67, 120
7, 441088, Note_on_c, 8, 59, 114
7, 441088, Note_on_c, 8, 62, 114
7, 441344, Note_off_c, 8, 59, 0
7, 441344, Note_off_c, 8, 62, 0
7, 441344, Note_off_c, 8, 66, 0
7, 441344, Note_off_c, 8, 67, 0
7, 441344, Note_off_c, 8, 59, 0
7, 441344, Note_off_c, 8, 62, 0
7, 441600, Note_on_c, 8, 61, 113
7, 441600, Note_on_c, 8, 62, 113
7, 441600, Note_on_c, 8, 68, 113
7, 441600, Note_on_c, 8, 61, 113
7, 441600, Note_on_c, 8, 62, 113
7, 441856, Note_off_c, 8, 61, 0
7, 441856, Note_off_c, 8, 62, 0
7, 441856, Note_off_c, 8, 68, 0
7, 441856, Note_off_c, 8, 61, 0
7, 441856, Note_off_c, 8, 62, 0
7, 442368, Note_on_c, 8, 69, 114
7, 442368, Note_on_c, 8, 73, 114
7, 442368, Note_on_c, 8, 76, 114
7, 442368, Note_on_c, 8, 69, 119
7, 442624, Note_off_c, 8, 69, 0
7, 442624, Note_off_c, 8, 73, 0
7, 442624, Note_off_c, 8, 76, 0
7, 442624, Note_off_c, 8, 69, 0
7, 442624, Note_on_c, 8, 67, 117
7, 442624, Note_on_c, 8, 71, 117
7, 442624, Note_on_c, 8, 74, 117
7, 442624, Note_on_c, 8, 67, 114
7, 442880, Note_off_c, 8, 67, 0
7, 442880, Note_off_c, 8, 71, 0
7, 442880, Note_off_c, 8, 74, 0
7, 442880, Note_off_c, 8, 67, 0
7, 442880, Note_on_c, 8, 66, 108
7, 442880, Note_on_c, 8, 68, 108
7, 442880, Note_on_c, 8, 70, 108
7, 442880, Note_on_c, 8, 66, 114
7, 443136, Note_off_c, 8, 66, 0
7, 443136, Note_off_c, 8, 68, 0
7, 443136, Note_off_c, 8, 70, 0
7, 443136, Note_off_c, 8, 66, 0
7, 443264, Note_on_c, 8, 65, 111
7, 443264, Note_on_c, 8, 69, 111
7, 443264, Note_on_c, 8, 65, 112
7, 443520, Note_off_c, 8, 65, 0
7, 443520, Note_off_c, 8, 69, 0
7, 443520, Note_off_c, 8, 65, 0
7, 443648, Note_on_c, 8, 64, 116
7, 443648, Note_on_c, 8, 71, 116
7, 443648, Note_on_c, 8, 72, 116
7, 443648, Note_on_c, 8, 64, 116
7, 443904, Note_off_c, 8, 64, 0
7, 443904, Note_off_c, 8, 71, 0
7, 443904, Note_off_c, 8, 72, 0
7, 443904, Note_off_c, 8, 64, 0
7, 444160, Note_on_c, 8, 63, 113
7, 444160, Note_on_c, 8, 66, 113
7, 444160, Note_on_c, 8, 69, 113
7, 444160, Note_on_c, 8, 70, 113
7, 444160, Note_on_c, 8, 63, 113
7, 444160, Note_on_c, 8, 66, 113
7, 444416, Note_off_c, 8, 63, 0
7, 444416, Note_off_c, 8, 66, 0
7, 444416, Note_off_c, 8, 69, 0
7, 444416, Note_off_c, 8, 70, 0
7, 444416, Note_off_c, 8, 63, 0
7, 444416, Note_off_c, 8, 66, 0
7, 444544, Note_on_c, 8, 61, 112
7, 444544, Note_on_c, 8, 64, 112
7, 444544, Note_on_c, 8, 68, 112
7, 444544, Note_on_c, 8, 61, 113
7, 444544, Note_on_c, 8, 64, 113
7, 444800, Note_off_c, 8, 61, 0
7, 444800, Note_off_c, 8, 64, 0
7, 444800, Note_off_c, 8, 68, 0
7, 444800, Note_off_c, 8, 61, 0
7, 444800, Note_off_c, 8, 64, 0
7, 444800, Note_on_c, 8, 54, 106
7, 444800, Note_on_c, 8, 57, 106
7, 444800, Note_on_c, 8, 62, 106
7, 444800, Note_on_c, 8, 54, 115
7, 444800, Note_on_c, 8, 57, 115
7, 445056, Note_off_c, 8, 54, 0
7, 445056, Note_off_c, 8, 57, 0
7, 445056, Note_off_c, 8, 62, 0
7, 445056, Note_off_c, 8, 54, 0
7, 445056, Note_off_c, 8, 57, 0
7, 445056, Note_on_c, 8, 52, 115
7, 445056, Note_on_c, 8, 55, 115
7, 445056, Note_on_c, 8, 59, 115
7, 445056, Note_on_c, 8, 61, 115
7, 445056, Note_on_c, 8, 52, 121
7, 445056, Note_on_c, 8, 55, 121
7, 445312, Note_off_c, 8, 52, 0
7, 445312, Note_off_c, 8, 55, 0
7, 445312, Note_off_c, 8, 59, 0
7, 445312, Note_off_c, 8, 61, 0
7, 445312, Note_off_c, 8, 52, 0
7, 445312, Note_off_c, 8, 55, 0
7, 445312, Note_on_c, 8, 55, 127
7, 445312, Note_on_c, 8, 58, 127
7, 445312, Note_on_c, 8, 62, 127
7, 445312, Note_on_c, 8, 64, 127
7, 445312, Note_on_c, 8, 55, 127
7, 445312, Note_on_c, 8, 58, 127
7, 445696, Note_off_c, 8, 55, 0
7, 445696, Note_off_c, 8, 58, 0
7, 445696, Note_off_c, 8, 62, 0
7, 445696, Note_off_c, 8, 64, 0
7, 445696, Note_off_c, 8, 55, 0
7, 445696, Note_off_c, 8, 58, 0
7, 445696, Note_on_c, 8, 69, 127
7, 445952, Note_off_c, 8, 69, 0
7, 446208, Note_on_c, 8, 67, 115
7, 446464, Note_off_c, 8, 67, 0
7, 446720, Note_on_c, 8, 70, 117
7, 446976, Note_off_c, 8, 70, 0
7, 446976, Note_on_c, 8, 69, 124
7, 447232, Note_off_c, 8, 69, 0
7, 447360, Note_on_c, 8, 69, 113
7, 447360, Note_on_c, 8, 73, 113
7, 447616, Note_off_c, 8, 69, 0
7, 447616, Note_off_c, 8, 73, 0
7, 447744, Note_on_c, 8, 67, 115
7, 447744, Note_on_c, 8, 71, 115
7, 448000, Note_off_c, 8, 67, 0
7, 448000, Note_off_c, 8, 71, 0
7, 448128, Note_on_c, 8, 66, 117
7, 448128, Note_on_c, 8, 68, 117
7, 448384, Note_off_c, 8, 66, 0
7, 448384, Note_off_c, 8, 68, 0
7, 448640, Note_on_c, 8, 65, 113
7, 448640, Note_on_c, 8, 67, 113
7, 448640, Note_on_c, 8, 69, 113
7, 448640, Note_on_c, 8, 65, 115
7, 448640, Note_on_c, 8, 67, 115
7, 448896, Note_off_c, 8, 65, 0
7, 448896, Note_off_c, 8, 67, 0
7, 448896, Note_off_c, 8, 69, 0
7, 448896, Note_off_c, 8, 65, 0
7, 448896, Note_off_c, 8, 67, 0
7, 448896, Note_on_c, 8, 67, 125
7, 448896, Note_on_c, 8, 69, 125
7, 448896, Note_on_c, 8, 64, 127
7, 448896, Note_on_c, 8, 67, 127
7, 449152, Note_off_c, 8, 67, 0
7, 449152, Note_off_c, 8, 69, 0
7, 449152, Note_off_c, 8, 64, 0
7, 449152, Note_off_c, 8, 67, 0
7, 449280, Note_on_c, 8, 73, 113
7, 449280, Note_on_c, 8, 74, 113
7, 449536, Note_off_c, 8, 73, 0
7, 449536, Note_off_c, 8, 74, 0
7, 449664, Note_on_c, 8, 69, 116
7, 449664, Note_on_c, 8, 70, 116
7, 449920, Note_off_c, 8, 69, 0
7, 449920, Note_off_c, 8, 70, 0
7, 450048, Note_on_c, 8, 69, 113
7, 450048, Note_on_c, 8, 68, 113
7, 450048, Note_on_c, 8, 70, 113
7, 450048, Note_on_c, 8, 71, 113
7, 450304, Note_off_c, 8, 69, 0
7, 450304, Note_off_c, 8, 68, 0
7, 450304, Note_off_c, 8, 70, 0
7, 450304, Note_off_c, 8, 71, 0
7, 450304, Note_on_c, 8, 63, 117
7, 450304, Note_on_c, 8, 65, 117
7, 450304, Note_on_c, 8, 69, 117
7, 450304, Note_on_c, 8, 70, 117
7, 450304, Note_on_c, 8, 63, 118
7, 450304, Note_on_c, 8, 65, 118
7, 450560, Note_off_c, 8, 63, 0
7, 450560, Note_off_c, 8, 65, 0
7, 450560, Note_off_c, 8, 69, 0
7, 450560, Note_off_c, 8, 70, 0
7, 450560, Note_off_c, 8, 63, 0
7, 450560, Note_off_c, 8, 65, 0
7, 450816, Note_on_c, 8, 63, 112
7, 450816, Note_on_c, 8, 67, 112
7, 450816, Note_on_c, 8, 69, 112
7, 450816, Note_on_c, 8, 71, 112
7, 450816, Note_on_c, 8, 64, 119
7, 450816, Note_on_c, 8, 67, 119
7, 451072, Note_off_c, 8, 63, 0
7, 451072, Note_off_c, 8, 67, 0
7, 451072, Note_off_c, 8, 69, 0
7, 451072, Note_off_c, 8, 71, 0
7, 451072, Note_off_c, 8, 64, 0
7, 451072, Note_off_c, 8, 67, 0
7, 451456, Note_on_c, 8, 69, 115
7, 451456, Note_on_c, 8, 71, 115
7, 451456, Note_on_c, 8, 72, 115
7, 451456, Note_on_c, 8, 69, 113
7, 451712, Note_off_c, 8, 69, 0
7, 451712, Note_off_c, 8, 71, 0
7, 451712, Note_off_c, 8, 72, 0
7, 451712, Note_off_c, 8, 69, 0
7, 451968, Note_on_c, 8, 67, 111
7, 451968, Note_on_c, 8, 71, 111
7, 451968, Note_on_c, 8, 73, 111
7, 451968, Note_on_c, 8, 67, 112
7, 452224, Note_off_c, 8, 67, 0
7, 452224, Note_off_c, 8, 71, 0
7, 452224, Note_off_c, 8, 73, 0
7, 452224, Note_off_c, 8, 67, 0
7, 452480, Note_on_c, 8, 69, 114
7, 452480, Note_on_c, 8, 73, 114
7, 452480, Note_on_c, 8, 74, 114
7, 452480, Note_on_c, 8, 69, 117
7, 452736, Note_off_c, 8, 69, 0
7, 452736, Note_off_c, 8, 73, 0
7, 452736, Note_off_c, 8, 74, 0
7, 452736, Note_off_c, 8, 69, 0
7, 452864, Note_on_c, 8, 67, 114
7, 452864, Note_on_c, 8, 71, 114
7, 452864, Note_on_c, 8, 67, 117
7, 453120, Note_off_c, 8, 67, 0
7, 453120, Note_off_c, 8, 71, 0
7, 453120, Note_off_c, 8, 67, 0
7, 453376, Note_on_c, 8, 66, 118
7, 453376, Note_on_c, 8, 68, 118
7, 453376, Note_on_c, 8, 70, 118
7, 453376, Note_on_c, 8, 66, 114
7, 453632, Note_off_c, 8, 66, 0
7, 453632, Note_off_c, 8, 68, 0
7, 453632, Note_off_c, 8, 70, 0
7, 453632, Note_off_c, 8, 66, 0
7, 453632, Note_on_c, 8, 65, 127
7, 453632, Note_on_c, 8, 69, 127
7, 453632, Note_on_c, 8, 72, 127
7, 453632, Note_on_c, 8, 65, 118
7, 453888, Note_off_c, 8, 65, 0
7, 453888, Note_off_c, 8, 69, 0
7, 453888, Note_off_c, 8, 72, 0
7, 453888, Note_off_c, 8, 65, 0
7, 454016, Note_on_c, 8, 64, 116
7, 454016, Note_on_c, 8, 67, 116
7, 454016, Note_on_c, 8, 69, 116
7, 454016, Note_on_c, 8, 72, 116
7, 454016, Note_on_c, 8, 64, 121
7, 454272, Note_off_c, 8, 64, 0
7, 454272, Note_off_c, 8, 67, 0
7, 454272, Note_off_c, 8, 69, 0
7, 454272, Note_off_c, 8, 72, 0
7, 454272, Note_off_c, 8, 64, 0
7, 454528, Note_on_c, 8, 63, 117
7, 454528, Note_on_c, 8, 66, 117
7, 454528, Note_on_c, 8, 69, 117
7, 454528, Note_on_c, 8, 72, 117
7, 454528, Note_on_c, 8, 63, 115
7, 454912, Note_off_c, 8, 63, 0
7, 454912, Note_off_c, 8, 66, 0
7, 454912, Note_off_c, 8, 69, 0
7, 454912, Note_off_c, 8, 72, 0
7, 454912, Note_off_c, 8, 63, 0
7, 454912, Note_on_c, 8, 61, 110
7, 454912, Note_on_c, 8, 64, 110
7, 454912, Note_on_c, 8, 68, 110
7, 454912, Note_on_c, 8, 61, 118
7, 455168, Note_off_c, 8, 61, 0
7, 455168, Note_off_c, 8, 64, 0
7, 455168, Note_off_c, 8, 68, 0
7, 455168, Note_off_c, 8, 61, 0
7, 455168, Note_on_c, 8, 59, 117
7, 455168, Note_on_c, 8, 62, 117
7, 455168, Note_on_c, 8, 66, 117
7, 455168, Note_on_c, 8, 59, 127
7, 455168, Note_on_c, 8, 62, 127
7, 455424, Note_off_c, 8, 59, 0
7, 455424, Note_off_c, 8, 62, 0
7, 455424, Note_off_c, 8, 66, 0
7, 455424, Note_off_c, 8, 59, 0
7, 455424, Note_off_c, 8, 62, 0
7, 455424, Note_on_c, 8, 54, 111
7, 455424, Note_on_c, 8, 57, 111
7, 455424, Note_on_c, 8, 61, 111
7, 455424, Note_on_c, 8, 62, 111
7, 455424, Note_on_c, 8, 54, 120
7, 455424, Note_on_c, 8, 57, 120
7, 455680, Note_off_c, 8, 54, 0
7, 455680, Note_off_c, 8, 57, 0
7, 455680, Note_off_c, 8, 61, 0
7, 455680, Note_off_c, 8, 62, 0
7, 455680, Note_off_c, 8, 54, 0
7, 455680, Note_off_c, 8, 57, 0
7, 455680, Note_on_c, 8, 47, 123
7, 455680, Note_on_c, 8, 54, 123
7, 455680, Note_on_c, 8, 61, 123
7, 455680, Note_on_c, 8, 62, 123
7, 455680, Note_on_c, 8, 47, 124
7, 455680, Note_on_c, 8, 54, 124
7, 455936, Note_off_c, 8, 47, 0
7, 455936, Note_off_c, 8, 54, 0
7, 455936, Note_off_c, 8, 61, 0
7, 455936, Note_off_c, 8, 62, 0
7, 455936, Note_off_c, 8, 47, 0
7, 455936, Note_off_c, 8, 54, 0
7, 455936, Note_on_c, 8, 50, 127
7, 455936, Note_on_c, 8, 57, 127
7, 455936, Note_on_c, 8, 60, 127
7, 455936, Note_on_c, 8, 64, 127
7, 455936, Note_on_c, 8, 50, 127
7, 455936, Note_on_c, 8, 57, 127
7, 456192, Note_off_c, 8, 50, 0
7, 456192, Note_off_c, 8, 57, 0
7, 456192, Note_off_c, 8, 60, 0
7, 456192, Note_off_c, 8, 64, 0
7, 456192, Note_off_c, 8, 50, 0
7, 456192, Note_off_c, 8, 57, 0
7, 456576, Note_on_c, 8, 69, 117
7, 456576, Note_on_c, 8, 73, 117
7, 456576, Note_on_c, 8, 74, 117
7, 456832, Note_off_c, 8, 69, 0
7, 456832, Note_off_c, 8, 73, 0
7, 456832, Note_off_c, 8, 74, 0
7, 456832, Note_on_c, 8, 67, 125
7, 456832, Note_on_c, 8, 71, 125
7, 456832, Note_on_c, 8, 74, 125
7, 457088, Note_off_c, 8, 67, 0
7, 457088, Note_off_c, 8, 71, 0
7, 457088, Note_off_c, 8, 74, 0
7, 457088, Note_on_c, 8, 66, 117
7, 457088, Note_on_c, 8, 68, 117
7, 457088, Note_on_c, 8, 70, 117
7, 457344, Note_off_c, 8, 66, 0
7, 457344, Note_off_c, 8, 68, 0
7, 457344, Note_off_c, 8, 70, 0
7, 457472, Note_on_c, 8, 65, 113
7, 457472, Note_on_c, 8, 69, 113
7, 457472, Note_on_c, 8, 65, 63
7, 457728, Note_off_c, 8, 65, 0
7, 457728, Note_off_c, 8, 69, 0
7, 457728, Note_off_c, 8, 65, 0
7, 457856, Note_on_c, 8, 64, 114
7, 457856, Note_on_c, 8, 67, 114
7, 457856, Note_on_c, 8, 69, 114
7, 457856, Note_on_c, 8, 71, 114
7, 457856, Note_on_c, 8, 64, 61
7, 458112, Note_off_c, 8, 64, 0
7, 458112, Note_off_c, 8, 67, 0
7, 458112, Note_off_c, 8, 69, 0
7, 458112, Note_off_c, 8, 71, 0
7, 458112, Note_off_c, 8, 64, 0
7, 458240, Note_on_c, 8, 69, 127
7, 458240, Note_on_c, 8, 70, 127
7, 458240, Note_on_c, 8, 63, 76
7, 458240, Note_on_c, 8, 66, 76
7, 459136, Note_off_c, 8, 69, 0
7, 459136, Note_off_c, 8, 70, 0
7, 459136, Note_off_c, 8, 63, 0
7, 459136, Note_off_c, 8, 66, 0
7, 459136, Note_on_c, 8, 60, 127
7, 459136, Note_on_c, 8, 64, 127
7, 459136, Note_on_c, 8, 67, 127
7, 459136, Note_on_c, 8, 70, 127
7, 459136, Note_on_c, 8, 60, 80
7, 459136, Note_on_c, 8, 64, 80
7, 459520, Note_on_c, 8, 54, 115
7, 459520, Note_on_c, 8, 57, 115
7, 459520, Note_on_c, 8, 62, 115
7, 459648, Note_on_c, 8, 52, 103
7, 459648, Note_on_c, 8, 55, 103
7, 459648, Note_on_c, 8, 60, 103
7, 459650, Note_off_c, 8, 54, 0
7, 459650, Note_off_c, 8, 57, 0
7, 459650, Note_off_c, 8, 62, 0
7, 459776, Note_off_c, 8, 60, 0
7, 459776, Note_off_c, 8, 64, 0
7, 459776, Note_off_c, 8, 67, 0
7, 459776, Note_off_c, 8, 70, 0
7, 459776, Note_off_c, 8, 60, 0
7, 459776, Note_off_c, 8, 64, 0
7, 459776, Note_on_c, 8, 50, 121
7, 459776, Note_on_c, 8, 53, 121
7, 459776, Note_on_c, 8, 58, 121
7, 459778, Note_off_c, 8, 52, 0
7, 459778, Note_off_c, 8, 55, 0
7, 459778, Note_off_c, 8, 60, 0
7, 459904, Note_on_c, 8, 48, 112
7, 459904, Note_on_c, 8, 51, 112
7, 459904, Note_on_c, 8, 56, 112
7, 459906, Note_off_c, 8, 50, 0
7, 459906, Note_off_c, 8, 53, 0
7, 459906, Note_off_c, 8, 58, 0
7, 460032, Note_on_c, 8, 66, 127
7, 460032, Note_on_c, 8, 68, 127
7, 460032, Note_on_c, 8, 69, 127
7, 460032, Note_on_c, 8, 72, 127
7, 460032, Note_on_c, 8, 62, 73
7, 460032, Note_on_c, 8, 64, 73
7, 460032, Note_on_c, 8, 46, 123
7, 460032, Note_on_c, 8, 50, 123
7, 460032, Note_on_c, 8, 55, 123
7, 460034, Note_off_c, 8, 48, 0
7, 460034, Note_off_c, 8, 51, 0
7, 460034, Note_off_c, 8, 56, 0
7, 460160, Note_on_c, 8, 45, 115
7, 460160, Note_on_c, 8, 54, 115
7, 460162, Note_off_c, 8, 46, 0
7, 460162, Note_off_c, 8, 50, 0
7, 460162, Note_off_c, 8, 55, 0
7, 460288, Note_on_c, 8, 43, 127
7, 460288, Note_on_c, 8, 47, 127
7, 460288, Note_on_c, 8, 52, 127
7, 460290, Note_off_c, 8, 45, 0
7, 460290, Note_off_c, 8, 54, 0
7, 460373, Note_off_c, 8, 66, 0
7, 460373, Note_off_c, 8, 68, 0
7, 460373, Note_off_c, 8, 69, 0
7, 460373, Note_off_c, 8, 72, 0
7, 460373, Note_off_c, 8, 62, 0
7, 460373, Note_off_c, 8, 64, 0
7, 460373, Note_on_c, 8, 59, 127
7, 460373, Note_on_c, 8, 64, 127
7, 460373, Note_on_c, 8, 65, 127
7, 460373, Note_on_c, 8, 67, 127
7, 460373, Note_on_c, 8, 59, 77
7, 460373, Note_on_c, 8, 61, 77
7, 460416, Note_on_c, 8, 42, 125
7, 460416, Note_on_c, 8, 45, 125
7, 460416, Note_on_c, 8, 50, 125
7, 460418, Note_off_c, 8, 43, 0
7, 460418, Note_off_c, 8, 47, 0
7, 460418, Note_off_c, 8, 52, 0
7, 460544, Note_on_c, 8, 48, 127
7, 460544, Note_on_c, 8, 51, 127
7, 460544, Note_on_c, 8, 56, 127
7, 460546, Note_off_c, 8, 42, 0
7, 460546, Note_off_c, 8, 45, 0
7, 460546, Note_off_c, 8, 50, 0
7, 460672, Note_on_c, 8, 46, 121
7, 460672, Note_on_c, 8, 50, 121
7, 460672, Note_on_c, 8, 55, 121
7, 460674, Note_off_c, 8, 48, 0
7, 460674, Note_off_c, 8, 51, 0
7, 460674, Note_off_c, 8, 56, 0
7, 460714, Note_off_c, 8, 59, 0
7, 460714, Note_off_c, 8, 64, 0
7, 460714, Note_off_c, 8, 65, 0
7, 460714, Note_off_c, 8, 67, 0
7, 460714, Note_off_c, 8, 59, 0
7, 460714, Note_off_c, 8, 61, 0
7, 460714, Note_on_c, 8, 65, 127
7, 460714, Note_on_c, 8, 67, 127
7, 460714, Note_on_c, 8, 68, 127
7, 460714, Note_on_c, 8, 71, 127
7, 460714, Note_on_c, 8, 61, 84
7, 460714, Note_on_c, 8, 63, 84
7, 460800, Note_on_c, 8, 45, 121
7, 460800, Note_on_c, 8, 54, 121
7, 460802, Note_off_c, 8, 46, 0
7, 460802, Note_off_c, 8, 50, 0
7, 460802, Note_off_c, 8, 55, 0
7, 460928, Note_on_c, 8, 55, 127
7, 460928, Note_on_c, 8, 58, 127
7, 460930, Note_off_c, 8, 45, 0
7, 460930, Note_off_c, 8, 54, 0
7, 461056, Note_off_c, 8, 65, 0
7, 461056, Note_off_c, 8, 67, 0
7, 461056, Note_off_c, 8, 68, 0
7, 461056, Note_off_c, 8, 71, 0
7, 461056, Note_off_c, 8, 61, 0
7, 461056, Note_off_c, 8, 63, 0
7, 461056, Note_on_c, 8, 66, 127
7, 461056, Note_on_c, 8, 68, 127
7, 461056, Note_on_c, 8, 69, 127
7, 461056, Note_on_c, 8, 72, 127
7, 461056, Note_on_c, 8, 62, 91
7, 461056, Note_on_c, 8, 64, 91
7, 461056, Note_on_c, 8, 53, 127
7, 461056, Note_on_c, 8, 56, 127
7, 461056, Note_on_c, 8, 61, 127
7, 461058, Note_off_c, 8, 55, 0
7, 461058, Note_off_c, 8, 58, 0
7, 461184, Note_on_c, 8, 51, 120
7, 461184, Note_on_c, 8, 54, 120
7, 461184, Note_on_c, 8, 59, 120
7, 461186, Note_off_c, 8, 53, 0
7, 461186, Note_off_c, 8, 56, 0
7, 461186, Note_off_c, 8, 61, 0
7, 461312, Note_on_c, 8, 49, 126
7, 461312, Note_on_c, 8, 52, 126
7, 461312, Note_on_c, 8, 57, 126
7, 461314, Note_off_c, 8, 51, 0
7, 461314, Note_off_c, 8, 54, 0
7, 461314, Note_off_c, 8, 59, 0
7, 461397, Note_off_c, 8, 66, 0
7, 461397, Note_off_c, 8, 68, 0
7, 461397, Note_off_c, 8, 69, 0
7, 461397, Note_off_c, 8, 72, 0
7, 461397, Note_off_c, 8, 62, 0
7, 461397, Note_off_c, 8, 64, 0
7, 461397, Note_on_c, 8, 67, 127
7, 461397, Note_on_c, 8, 68, 127
7, 461397, Note_on_c, 8, 71, 127
7, 461397, Note_on_c, 8, 70, 127
7, 461397, Note_on_c, 8, 62, 88
7, 461397, Note_on_c, 8, 65, 88
7, 461440, Note_on_c, 8, 47, 123
7, 461440, Note_on_c, 8, 51, 123
7, 461440, Note_on_c, 8, 56, 123
7, 461442, Note_off_c, 8, 49, 0
7, 461442, Note_off_c, 8, 52, 0
7, 461442, Note_off_c, 8, 57, 0
7, 461568, Note_on_c, 8, 58, 127
7, 461568, Note_on_c, 8, 63, 127
7, 461568, Note_on_c, 8, 67, 127
7, 461570, Note_off_c, 8, 47, 0
7, 461570, Note_off_c, 8, 51, 0
7, 461570, Note_off_c, 8, 56, 0
7, 461696, Note_on_c, 8, 57, 127
7, 461696, Note_on_c, 8, 61, 127
7, 461696, Note_on_c, 8, 66, 127
7, 461698, Note_off_c, 8, 58, 0
7, 461698, Note_off_c, 8, 63, 0
7, 461698, Note_off_c, 8, 67, 0
7, 461738, Note_off_c, 8, 67, 0
7, 461738, Note_off_c, 8, 68, 0
7, 461738, Note_off_c, 8, 71, 0
7, 461738, Note_off_c, 8, 70, 0
7, 461738, Note_off_c, 8, 62, 0
7, 461738, Note_off_c, 8, 65, 0
7, 461738, Note_on_c, 8, 64, 127
7, 461738, Note_on_c, 8, 69, 127
7, 461738, Note_on_c, 8, 69, 127
7, 461738, Note_on_c, 8, 72, 127
7, 461738, Note_on_c, 8, 62, 82
7, 461738, Note_on_c, 8, 64, 82
7, 461824, Note_on_c, 8, 56, 122
7, 461824, Note_on_c, 8, 59, 122
7, 461824, Note_on_c, 8, 64, 122
7, 461826, Note_off_c, 8, 57, 0
7, 461826, Note_off_c, 8, 61, 0
7, 461826, Note_off_c, 8, 66, 0
7, 461952, Note_on_c, 8, 58, 114
7, 461952, Note_on_c, 8, 62, 114
7, 461954, Note_off_c, 8, 56, 0
7, 461954, Note_off_c, 8, 59, 0
7, 461954, Note_off_c, 8, 64, 0
7, 462080, Note_off_c, 8, 64, 0
7, 462080, Note_off_c, 8, 69, 0
7, 462080, Note_off_c, 8, 69, 0
7, 462080, Note_off_c, 8, 72, 0
7, 462080, Note_off_c, 8, 62, 0
7, 462080, Note_off_c, 8, 64, 0
7, 462080, Note_on_c, 8, 68, 127
7, 462080, Note_on_c, 8, 70, 127
7, 462080, Note_on_c, 8, 71, 127
7, 462080, Note_on_c, 8, 74, 127
7, 462080, Note_on_c, 8, 64, 92
7, 462080, Note_on_c, 8, 66, 92
7, 462080, Note_on_c, 8, 52, 123
7, 462080, Note_on_c, 8, 56, 123
7, 462080, Note_on_c, 8, 61, 123
7, 462082, Note_off_c, 8, 58, 0
7, 462082, Note_off_c, 8, 62, 0
7, 462208, Note_on_c, 8, 51, 115
7, 462208, Note_on_c, 8, 59, 115
7, 462210, Note_off_c, 8, 52, 0
7, 462210, Note_off_c, 8, 56, 0
7, 462210, Note_off_c, 8, 61, 0
7, 462336, Note_on_c, 8, 50, 125
7, 462336, Note_on_c, 8, 53, 125
7, 462336, Note_on_c, 8, 58, 125
7, 462338, Note_off_c, 8, 51, 0
7, 462338, Note_off_c, 8, 59, 0
7, 462421, Note_off_c, 8, 68, 0
7, 462421, Note_off_c, 8, 70, 0
7, 462421, Note_off_c, 8, 71, 0
7, 462421, Note_off_c, 8, 74, 0
7, 462421, Note_off_c, 8, 64, 0
7, 462421, Note_off_c, 8, 66, 0
7, 462421, Note_on_c, 8, 65, 122
7, 462421, Note_on_c, 8, 67, 122
7, 462421, Note_on_c, 8, 68, 122
7, 462421, Note_on_c, 8, 71, 122
7, 462421, Note_on_c, 8, 61, 68
7, 462421, Note_on_c, 8, 63, 68
7, 462464, Note_on_c, 8, 48, 118
7, 462464, Note_on_c, 8, 51, 118
7, 462466, Note_off_c, 8, 50, 0
7, 462466, Note_off_c, 8, 53, 0
7, 462466, Note_off_c, 8, 58, 0
7, 462506, Note_off_c, 8, 65, 0
7, 462506, Note_off_c, 8, 67, 0
7, 462506, Note_off_c, 8, 68, 0
7, 462506, Note_off_c, 8, 71, 0
7, 462506, Note_off_c, 8, 61, 0
7, 462506, Note_off_c, 8, 63, 0
7, 462592, Note_on_c, 8, 53, 127
7, 462592, Note_on_c, 8, 56, 127
7, 462592, Note_on_c, 8, 61, 127
7, 462594, Note_off_c, 8, 48, 0
7, 462594, Note_off_c, 8, 51, 0
7, 462720, Note_on_c, 8, 50, 127
7, 462720, Note_on_c, 8, 55, 127
7, 462720, Note_on_c, 8, 59, 127
7, 462722, Note_off_c, 8, 53, 0
7, 462722, Note_off_c, 8, 56, 0
7, 462722, Note_off_c, 8, 61, 0
7, 462848, Note_on_c, 8, 66, 117
7, 462848, Note_on_c, 8, 68, 117
7, 462848, Note_on_c, 8, 69, 117
7, 462848, Note_on_c, 8, 72, 117
7, 462848, Note_on_c, 8, 62, 59
7, 462848, Note_on_c, 8, 64, 59
7, 462848, Note_on_c, 8, 53, 127
7, 462848, Note_on_c, 8, 57, 127
7, 462850, Note_off_c, 8, 55, 0
7, 462850, Note_off_c, 8, 59, 0
7, 462912, Note_off_c, 8, 66, 0
7, 462912, Note_off_c, 8, 68, 0
7, 462912, Note_off_c, 8, 69, 0
7, 462912, Note_off_c, 8, 72, 0
7, 462912, Note_off_c, 8, 62, 0
7, 462912, Note_off_c, 8, 64, 0
7, 462976, Note_on_c, 8, 47, 123
7, 462976, Note_on_c, 8, 52, 123
7, 462976, Note_on_c, 8, 56, 123
7, 462978, Note_off_c, 8, 53, 0
7, 462978, Note_off_c, 8, 57, 0
7, 462981, Note_off_c, 8, 50, 0
7, 463104, Note_on_c, 8, 45, 125
7, 463104, Note_on_c, 8, 49, 125
7, 463104, Note_on_c, 8, 54, 125
7, 463106, Note_off_c, 8, 47, 0
7, 463106, Note_off_c, 8, 52, 0
7, 463106, Note_off_c, 8, 56, 0
7, 463232, Note_on_c, 8, 44, 122
7, 463232, Note_on_c, 8, 47, 122
7, 463232, Note_on_c, 8, 52, 122
7, 463234, Note_off_c, 8, 45, 0
7, 463234, Note_off_c, 8, 49, 0
7, 463234, Note_off_c, 8, 54, 0
7, 463360, Note_on_c, 8, 46, 127
7, 463360, Note_on_c, 8, 51, 127
7, 463360, Note_on_c, 8, 53, 127
7, 463362, Note_off_c, 8, 44, 0
7, 463362, Note_off_c, 8, 47, 0
7, 463362, Note_off_c, 8, 52, 0
7, 463488, Note_off_c, 8, 51, 0
7, 463488, Note_on_c, 8, 69, 116
7, 463488, Note_on_c, 8, 71, 116
7, 463488, Note_on_c, 8, 72, 116
7, 463488, Note_on_c, 8, 75, 116
7, 463488, Note_on_c, 8, 65, 62
7, 463488, Note_on_c, 8, 67, 62
7, 463488, Note_on_c, 8, 47, 127
7, 463488, Note_on_c, 8, 51, 127
7, 463488, Note_on_c, 8, 56, 127
7, 463490, Note_off_c, 8, 46, 0
7, 463490, Note_off_c, 8, 53, 0
7, 463552, Note_off_c, 8, 69, 0
7, 463552, Note_off_c, 8, 71, 0
7, 463552, Note_off_c, 8, 72, 0
7, 463552, Note_off_c, 8, 75, 0
7, 463552, Note_off_c, 8, 65, 0
7, 463552, Note_off_c, 8, 67, 0
7, 463616, Note_on_c, 8, 45, 124
7, 463616, Note_on_c, 8, 49, 124
7, 463616, Note_on_c, 8, 54, 124
7, 463618, Note_off_c, 8, 47, 0
7, 463618, Note_off_c, 8, 51, 0
7, 463618, Note_off_c, 8, 56, 0
7, 463744, Note_on_c, 8, 44, 115
7, 463744, Note_on_c, 8, 47, 115
7, 463744, Note_on_c, 8, 52, 115
7, 463746, Note_off_c, 8, 45, 0
7, 463746, Note_off_c, 8, 49, 0
7, 463746, Note_off_c, 8, 54, 0
7, 463872, Note_on_c, 8, 57, 127
7, 463872, Note_on_c, 8, 60, 127
7, 463874, Note_off_c, 8, 44, 0
7, 463874, Note_off_c, 8, 47, 0
7, 463874, Note_off_c, 8, 52, 0
7, 464000, Note_on_c, 8, 55, 127
7, 464000, Note_on_c, 8, 58, 127
7, 464000, Note_on_c, 8, 63, 127
7, 464002, Note_off_c, 8, 57, 0
7, 464002, Note_off_c, 8, 60, 0
7, 464128, Note_on_c, 8, 53, 120
7, 464128, Note_on_c, 8, 56, 120
7, 464128, Note_on_c, 8, 61, 120
7, 464130, Note_off_c, 8, 55, 0
7, 464130, Note_off_c, 8, 58, 0
7, 464130, Note_off_c, 8, 63, 0
7, 464256, Note_on_c, 8, 51, 116
7, 464256, Note_on_c, 8, 54, 116
7, 464256, Note_on_c, 8, 59, 116
7, 464258, Note_off_c, 8, 53, 0
7, 464258, Note_off_c, 8, 56, 0
7, 464258, Note_off_c, 8, 61, 0
7, 464384, Note_on_c, 8, 49, 127
7, 464384, Note_on_c, 8, 53, 127
7, 464384, Note_on_c, 8, 58, 127
7, 464386, Note_off_c, 8, 51, 0
7, 464386, Note_off_c, 8, 54, 0
7, 464386, Note_off_c, 8, 59, 0
7, 464512, Note_on_c, 8, 48, 124
7, 464512, Note_on_c, 8, 57, 124
7, 464514, Note_off_c, 8, 49, 0
7, 464514, Note_off_c, 8, 53, 0
7, 464514, Note_off_c, 8, 58, 0
7, 464640, Note_on_c, 8, 69, 113
7, 464640, Note_on_c, 8, 71, 113
7, 464640, Note_on_c, 8, 72, 113
7, 464640, Note_on_c, 8, 77, 113
7, 464640, Note_on_c, 8, 46, 125
7, 464640, Note_on_c, 8, 50, 125
7, 464640, Note_on_c, 8, 55, 125
7, 464642, Note_off_c, 8, 48, 0
7, 464642, Note_off_c, 8, 57, 0
7, 464678, Note_off_c, 8, 69, 0
7, 464678, Note_off_c, 8, 71, 0
7, 464678, Note_off_c, 8, 72, 0
7, 464678, Note_off_c, 8, 77, 0
7, 464768, Note_on_c, 8, 49, 121
7, 464768, Note_on_c, 8, 52, 121
7, 464770, Note_off_c, 8, 46, 0
7, 464770, Note_off_c, 8, 50, 0
7, 464770, Note_off_c, 8, 55, 0
7, 464896, Note_on_c, 8, 43, 125
7, 464896, Note_on_c, 8, 46, 125
7, 464896, Note_on_c, 8, 51, 125
7, 464898, Note_off_c, 8, 49, 0
7, 464898, Note_off_c, 8, 52, 0
7, 465024, Note_on_c, 8, 41, 119
7, 465024, Note_on_c, 8, 44, 119
7, 465024, Note_on_c, 8, 49, 119
7, 465026, Note_off_c, 8, 43, 0
7, 465026, Note_off_c, 8, 46, 0
7, 465026, Note_off_c, 8, 51, 0
7, 465152, Note_on_c, 8, 39, 126
7, 465152, Note_on_c, 8, 43, 126
7, 465152, Note_on_c, 8, 48, 126
7, 465154, Note_off_c, 8, 41, 0
7, 465154, Note_off_c, 8, 44, 0
7, 465154, Note_off_c, 8, 49, 0
7, 465280, Note_on_c, 8, 37, 118
7, 465280, Note_on_c, 8, 42, 118
7, 465282, Note_off_c, 8, 39, 0
7, 465282, Note_off_c, 8, 43, 0
7, 465282, Note_off_c, 8, 48, 0
7, 465408, Note_on_c, 8, 47, 127
7, 465408, Note_on_c, 8, 51, 127
7, 465408, Note_on_c, 8, 56, 127
7, 465410, Note_off_c, 8, 37, 0
7, 465410, Note_off_c, 8, 42, 0
7, 465536, Note_off_c, 8, 51, 0
7, 465536, Note_off_c, 8, 56, 0
7, 465536, Note_on_c, 8, 46, 127
7, 465536, Note_on_c, 8, 51, 127
7, 465536, Note_on_c, 8, 56, 127
7, 465538, Note_off_c, 8, 47, 0
7, 465664, Note_on_c, 8, 66, 117
7, 465664, Note_on_c, 8, 68, 117
7, 465664, Note_on_c, 8, 69, 117
7, 465664, Note_on_c, 8, 72, 117
7, 465664, Note_on_c, 8, 44, 120
7, 465664, Note_on_c, 8, 47, 120
7, 465664, Note_on_c, 8, 52, 120
7, 465666, Note_off_c, 8, 46, 0
7, 465666, Note_off_c, 8, 51, 0
7, 465666, Note_off_c, 8, 56, 0
7, 465702, Note_off_c, 8, 66, 0
7, 465702, Note_off_c, 8, 68, 0
7, 465702, Note_off_c, 8, 69, 0
7, 465702, Note_off_c, 8, 72, 0
7, 465792, Note_off_c, 8, 52, 0
7, 465792, Note_on_c, 8, 48, 124
7, 465792, Note_on_c, 8, 52, 124
7, 465792, Note_on_c, 8, 57, 124
7, 465794, Note_off_c, 8, 44, 0
7, 465794, Note_off_c, 8, 47, 0
7, 465920, Note_on_c, 8, 47, 125
7, 465920, Note_on_c, 8, 50, 125
7, 465920, Note_on_c, 8, 55, 125
7, 465922, Note_off_c, 8, 48, 0
7, 465922, Note_off_c, 8, 52, 0
7, 465922, Note_off_c, 8, 57, 0
7, 466048, Note_on_c, 8, 48, 119
7, 466048, Note_on_c, 8, 53, 119
7, 466050, Note_off_c, 8, 47, 0
7, 466050, Note_off_c, 8, 50, 0
7, 466050, Note_off_c, 8, 55, 0
7, 466176, Note_off_c, 8, 53, 0
7, 466176, Note_on_c, 8, 49, 127
7, 466176, Note_on_c, 8, 53, 127
7, 466176, Note_on_c, 8, 58, 127
7, 466178, Note_off_c, 8, 48, 0
7, 466304, Note_on_c, 8, 48, 124
7, 466304, Note_on_c, 8, 51, 124
7, 466304, Note_on_c, 8, 56, 124
7, 466306, Note_off_c, 8, 49, 0
7, 466306, Note_off_c, 8, 53, 0
7, 466306, Note_off_c, 8, 58, 0
7, 466432, Note_on_c, 8, 46, 124
7, 466432, Note_on_c, 8, 49, 124
7, 466432, Note_on_c, 8, 54, 124
7, 466434, Note_off_c, 8, 48, 0
7, 466434, Note_off_c, 8, 51, 0
7, 466434, Note_off_c, 8, 56, 0
7, 466560, Note_on_c, 8, 51, 127
7, 466560, Note_on_c, 8, 55, 127
7, 466560, Note_on_c, 8, 60, 127
7, 466562, Note_off_c, 8, 46, 0
7, 466562, Note_off_c, 8, 49, 0
7, 466562, Note_off_c, 8, 54, 0
7, 466688, Note_on_c, 8, 66, 127
7, 466688, Note_on_c, 8, 68, 127
7, 466688, Note_on_c, 8, 69, 127
7, 466688, Note_on_c, 8, 72, 127
7, 466688, Note_on_c, 8, 49, 127
7, 466688, Note_on_c, 8, 54, 127
7, 466688, Note_on_c, 8, 58, 127
7, 466690, Note_off_c, 8, 51, 0
7, 466690, Note_off_c, 8, 55, 0
7, 466690, Note_off_c, 8, 60, 0
7, 466816, Note_on_c, 8, 47, 125
7, 466816, Note_on_c, 8, 56, 125
7, 466818, Note_off_c, 8, 49, 0
7, 466818, Note_off_c, 8, 54, 0
7, 466818, Note_off_c, 8, 58, 0
7, 466944, Note_on_c, 8, 46, 124
7, 466944, Note_on_c, 8, 51, 124
7, 466944, Note_on_c, 8, 55, 124
7, 466946, Note_off_c, 8, 47, 0
7, 466946, Note_off_c, 8, 56, 0
7, 467072, Note_on_c, 8, 44, 121
7, 467072, Note_on_c, 8, 49, 121
7, 467072, Note_on_c, 8, 53, 121
7, 467074, Note_off_c, 8, 46, 0
7, 467074, Note_off_c, 8, 51, 0
7, 467074, Note_off_c, 8, 55, 0
7, 467200, Note_on_c, 8, 43, 121
7, 467200, Note_on_c, 8, 48, 121
7, 467200, Note_on_c, 8, 51, 121
7, 467202, Note_off_c, 8, 44, 0
7, 467202, Note_off_c, 8, 49, 0
7, 467202, Note_off_c, 8, 53, 0
7, 467328, Note_on_c, 8, 45, 124
7, 467328, Note_on_c, 8, 50, 124
7, 467328, Note_on_c, 8, 54, 124
7, 467330, Note_off_c, 8, 43, 0
7, 467330, Note_off_c, 8, 48, 0
7, 467330, Note_off_c, 8, 51, 0
7, 467456, Note_off_c, 8, 45, 0
7, 467456, Note_off_c, 8, 50, 0
7, 467456, Note_on_c, 8, 42, 122
7, 467456, Note_on_c, 8, 45, 122
7, 467456, Note_on_c, 8, 50, 122
7, 467458, Note_off_c, 8, 54, 0
7, 467584, Note_off_c, 8, 50, 0
7, 467584, Note_on_c, 8, 50, 127
7, 467584, Note_on_c, 8, 53, 127
7, 467584, Note_on_c, 8, 58, 127
7, 467586, Note_off_c, 8, 42, 0
7, 467586, Note_off_c, 8, 45, 0
7, 467712, Note_on_c, 8, 48, 124
7, 467712, Note_on_c, 8, 51, 124
7, 467712, Note_on_c, 8, 56, 124
7, 467714, Note_off_c, 8, 50, 0
7, 467714, Note_off_c, 8, 53, 0
7, 467714, Note_off_c, 8, 58, 0
7, 467840, Note_on_c, 8, 45, 123
7, 467840, Note_on_c, 8, 50, 123
7, 467840, Note_on_c, 8, 54, 123
7, 467842, Note_off_c, 8, 48, 0
7, 467842, Note_off_c, 8, 51, 0
7, 467842, Note_off_c, 8, 56, 0
7, 467968, Note_off_c, 8, 45, 0
7, 467968, Note_off_c, 8, 50, 0
7, 467968, Note_on_c, 8, 42, 122
7, 467968, Note_on_c, 8, 45, 122
7, 467968, Note_on_c, 8, 50, 122
7, 467970, Note_off_c, 8, 54, 0
7, 468096, Note_off_c, 8, 66, 0
7, 468096, Note_off_c, 8, 68, 0
7, 468096, Note_off_c, 8, 69, 0
7, 468096, Note_off_c, 8, 72, 0
7, 468096, Note_off_c, 8, 42, 0
7, 468096, Note_off_c, 8, 45, 0
7, 468096, Note_on_c, 8, 38, 120
7, 468096, Note_on_c, 8, 42, 120
7, 468096, Note_on_c, 8, 45, 120
7, 468098, Note_off_c, 8, 50, 0
7, 468156, Note_off_c, 8, 38, 0
7, 468156, Note_off_c, 8, 42, 0
7, 468156, Note_off_c, 8, 45, 0
7, 468157, End_track
8, 0, Start_track
8, 0, Program_c, 7, 56
8, 0, Control_c, 7, 121, 0
8, 0, Control_c, 7, 64, 0
8, 0, Control_c, 7, 91, 62
8, 0, Control_c, 7, 10, 81
8, 0, Control_c, 7, 7, 103
8, 0, Control_c, 7, 121, 0
8, 0, Control_c, 7, 64, 0
8, 0, Control_c, 7, 91, 62
8, 0, Control_c, 7, 10, 81
8, 0, Control_c, 7, 7, 103
8, 0, Title_t, "Trumpet in C"
8, 62528, Note_on_c, 7, 66, 58
8, 62528, Note_on_c, 7, 69, 58
8, 62528, Note_on_c, 7, 73, 58
8, 62656, Note_off_c, 7, 66, 0
8, 62656, Note_off_c, 7, 69, 0
8, 62656, Note_off_c, 7, 73, 0
8, 62784, Note_on_c, 7, 66, 59
8, 62784, Note_on_c, 7, 69, 59
8, 62784, Note_on_c, 7, 73, 59
8, 62912, Note_off_c, 7, 66, 0
8, 62912, Note_off_c, 7, 69, 0
8, 62912, Note_off_c, 7, 73, 0
8, 63040, Note_on_c, 7, 66, 62
8, 63040, Note_on_c, 7, 69, 62
8, 63040, Note_on_c, 7, 73, 62
8, 63168, Note_off_c, 7, 66, 0
8, 63168, Note_off_c, 7, 69, 0
8, 63168, Note_off_c, 7, 73, 0
8, 63296, Note_on_c, 7, 66, 58
8, 63296, Note_on_c, 7, 69, 58
8, 63296, Note_on_c, 7, 73, 58
8, 63424, Note_off_c, 7, 66, 0
8, 63424, Note_off_c, 7, 69, 0
8, 63424, Note_off_c, 7, 73, 0
8, 63552, Note_on_c, 7, 66, 65
8, 63552, Note_on_c, 7, 69, 65
8, 63552, Note_on_c, 7, 73, 65
8, 63680, Note_off_c, 7, 66, 0
8, 63680, Note_off_c, 7, 69, 0
8, 63680, Note_off_c, 7, 73, 0
8, 63680, Note_on_c, 7, 67, 72
8, 63680, Note_on_c, 7, 70, 72
8, 63680, Note_on_c, 7, 75, 72
8, 63808, Note_off_c, 7, 67, 0
8, 63808, Note_off_c, 7, 70, 0
8, 63808, Note_off_c, 7, 75, 0
8, 63936, Note_on_c, 7, 67, 57
8, 63936, Note_on_c, 7, 70, 57
8, 63936, Note_on_c, 7, 75, 57
8, 64064, Note_off_c, 7, 67, 0
8, 64064, Note_off_c, 7, 70, 0
8, 64064, Note_off_c, 7, 75, 0
8, 64192, Note_on_c, 7, 67, 59
8, 64192, Note_on_c, 7, 70, 59
8, 64192, Note_on_c, 7, 75, 59
8, 64320, Note_off_c, 7, 67, 0
8, 64320, Note_off_c, 7, 70, 0
8, 64320, Note_off_c, 7, 75, 0
8, 64448, Note_on_c, 7, 67, 61
8, 64448, Note_on_c, 7, 70, 61
8, 64448, Note_on_c, 7, 75, 61
8, 64576, Note_off_c, 7, 67, 0
8, 64576, Note_off_c, 7, 70, 0
8, 64576, Note_off_c, 7, 75, 0
8, 64704, Note_on_c, 7, 67, 60
8, 64704, Note_on_c, 7, 70, 60
8, 64704, Note_on_c, 7, 75, 60
8, 64768, Note_on_c, 7, 68, 62
8, 64768, Note_on_c, 7, 71, 62
8, 64768, Note_on_c, 7, 76, 62
8, 64769, Note_off_c, 7, 67, 0
8, 64769, Note_off_c, 7, 70, 0
8, 64769, Note_off_c, 7, 75, 0
8, 64828, Note_off_c, 7, 68, 0
8, 64828, Note_off_c, 7, 71, 0
8, 64828, Note_off_c, 7, 76, 0
8, 64960, Note_on_c, 7, 68, 55
8, 64960, Note_on_c, 7, 71, 55
8, 64960, Note_on_c, 7, 76, 55
8, 65856, Note_off_c, 7, 68, 0
8, 65856, Note_off_c, 7, 71, 0
8, 65856, Note_off_c, 7, 76, 0
8, 65984, Note_on_c, 7, 67, 55
8, 65984, Note_on_c, 7, 71, 55
8, 65984, Note_on_c, 7, 76, 55
8, 66880, Note_off_c, 7, 67, 0
8, 66880, Note_off_c, 7, 71, 0
8, 66880, Note_off_c, 7, 76, 0
8, 67008, Note_on_c, 7, 68, 59
8, 67008, Note_on_c, 7, 71, 59
8, 67008, Note_on_c, 7, 76, 59
8, 67264, Note_off_c, 7, 68, 0
8, 67264, Note_off_c, 7, 71, 0
8, 67264, Note_off_c, 7, 76, 0
8, 67264, Note_on_c, 7, 72, 67
8, 67264, Note_on_c, 7, 76, 67
8, 67264, Note_on_c, 7, 79, 67
8, 68736, Note_off_c, 7, 72, 0
8, 68736, Note_off_c, 7, 76, 0
8, 68736, Note_off_c, 7, 79, 0
8, 68736, Note_on_c, 7, 72, 61
8, 68736, Note_on_c, 7, 76, 61
8, 68736, Note_on_c, 7, 79, 61
8, 69888, Note_off_c, 7, 72, 0
8, 69888, Note_off_c, 7, 76, 0
8, 69888, Note_off_c, 7, 79, 0
8, 75584, Note_on_c, 7, 82, 104
8, 75776, Note_off_c, 7, 82, 0
8, 75776, Note_on_c, 7, 82, 115
8, 76140, Note_off_c, 7, 82, 0
8, 76160, Note_on_c, 7, 82, 97
8, 76288, Note_off_c, 7, 82, 0
8, 76288, Note_on_c, 7, 82, 113
8, 76774, Note_off_c, 7, 82, 0
8, 89216, Note_on_c, 7, 65, 78
8, 89216, Note_on_c, 7, 70, 78
8, 89216, Note_on_c, 7, 74, 78
8, 89216, Note_on_c, 7, 77, 78
8, 89408, Note_off_c, 7, 65, 0
8, 89408, Note_off_c, 7, 70, 0
8, 89408, Note_off_c, 7, 74, 0
8, 89408, Note_off_c, 7, 77, 0
8, 89600, Note_on_c, 7, 70, 88
8, 89600, Note_on_c, 7, 74, 88
8, 89600, Note_on_c, 7, 77, 88
8, 89600, Note_on_c, 7, 82, 88
8, 89792, Note_off_c, 7, 70, 0
8, 89792, Note_off_c, 7, 74, 0
8, 89792, Note_off_c, 7, 77, 0
8, 89792, Note_off_c, 7, 82, 0
8, 89920, Note_on_c, 7, 70, 87
8, 89920, Note_on_c, 7, 74, 87
8, 89920, Note_on_c, 7, 77, 87
8, 89920, Note_on_c, 7, 82, 87
8, 90112, Note_off_c, 7, 70, 0
8, 90112, Note_off_c, 7, 74, 0
8, 90112, Note_off_c, 7, 77, 0
8, 90112, Note_off_c, 7, 82, 0
8, 90752, Note_on_c, 7, 61, 75
8, 90752, Note_on_c, 7, 66, 75
8, 90752, Note_on_c, 7, 69, 75
8, 90752, Note_on_c, 7, 72, 75
8, 90944, Note_off_c, 7, 61, 0
8, 90944, Note_off_c, 7, 66, 0
8, 90944, Note_off_c, 7, 69, 0
8, 90944, Note_off_c, 7, 72, 0
8, 91264, Note_on_c, 7, 61, 79
8, 91264, Note_on_c, 7, 66, 79
8, 91264, Note_on_c, 7, 69, 79
8, 91264, Note_on_c, 7, 72, 79
8, 91456, Note_off_c, 7, 61, 0
8, 91456, Note_off_c, 7, 66, 0
8, 91456, Note_off_c, 7, 69, 0
8, 91456, Note_off_c, 7, 72, 0
8, 92096, Note_on_c, 7, 61, 70
8, 92096, Note_on_c, 7, 66, 70
8, 92096, Note_on_c, 7, 69, 70
8, 92096, Note_on_c, 7, 72, 70
8, 92928, Note_off_c, 7, 61, 0
8, 92928, Note_off_c, 7, 66, 0
8, 92928, Note_off_c, 7, 69, 0
8, 92928, Note_off_c, 7, 72, 0
8, 93120, Note_on_c, 7, 69, 76
8, 93120, Note_on_c, 7, 72, 76
8, 93120, Note_on_c, 7, 79, 76
8, 94144, Note_off_c, 7, 69, 0
8, 94144, Note_off_c, 7, 72, 0
8, 94144, Note_off_c, 7, 79, 0
8, 97408, Note_on_c, 7, 73, 102
8, 97856, Note_on_c, 7, 76, 127
8, 97864, Note_off_c, 7, 73, 0
8, 98048, Note_on_c, 7, 82, 127
8, 98051, Note_off_c, 7, 76, 0
8, 98304, Note_on_c, 7, 85, 127
8, 98309, Note_off_c, 7, 82, 0
8, 98560, Note_on_c, 7, 71, 68
8, 98560, Note_on_c, 7, 76, 68
8, 98668, Note_off_c, 7, 85, 0
8, 98688, Note_off_c, 7, 71, 0
8, 98688, Note_off_c, 7, 76, 0
8, 98688, Note_on_c, 7, 76, 99
8, 98816, Note_on_c, 7, 75, 93
8, 98816, Note_on_c, 7, 71, 72
8, 98816, Note_on_c, 7, 76, 72
8, 98818, Note_off_c, 7, 76, 0
8, 98944, Note_off_c, 7, 71, 0
8, 98944, Note_off_c, 7, 76, 0
8, 99008, Note_on_c, 7, 82, 127
8, 99011, Note_off_c, 7, 75, 0
8, 99328, Note_on_c, 7, 81, 122
8, 99328, Note_on_c, 7, 71, 69
8, 99328, Note_on_c, 7, 76, 69
8, 99334, Note_off_c, 7, 82, 0
8, 99347, Note_off_c, 7, 71, 0
8, 99347, Note_off_c, 7, 76, 0
8, 99520, Note_on_c, 7, 85, 127
8, 99520, Note_on_c, 7, 71, 74
8, 99520, Note_on_c, 7, 76, 74
8, 99523, Note_off_c, 7, 81, 0
8, 99539, Note_off_c, 7, 71, 0
8, 99539, Note_off_c, 7, 76, 0
8, 99712, Note_on_c, 7, 71, 70
8, 99712, Note_on_c, 7, 76, 70
8, 99731, Note_off_c, 7, 71, 0
8, 99731, Note_off_c, 7, 76, 0
8, 99884, Note_off_c, 7, 85, 0
8, 99904, Note_on_c, 7, 71, 71
8, 99904, Note_on_c, 7, 76, 71
8, 99923, Note_off_c, 7, 71, 0
8, 99923, Note_off_c, 7, 76, 0
8, 99968, Note_on_c, 7, 76, 120
8, 100096, Note_on_c, 7, 75, 112
8, 100096, Note_on_c, 7, 71, 67
8, 100096, Note_on_c, 7, 76, 67
8, 100098, Note_off_c, 7, 76, 0
8, 100115, Note_off_c, 7, 71, 0
8, 100115, Note_off_c, 7, 76, 0
8, 100224, Note_on_c, 7, 82, 127
8, 100226, Note_off_c, 7, 75, 0
8, 100288, Note_on_c, 7, 72, 64
8, 100288, Note_on_c, 7, 76, 64
8, 100307, Note_off_c, 7, 72, 0
8, 100307, Note_off_c, 7, 76, 0
8, 100437, Note_on_c, 7, 85, 127
8, 100441, Note_off_c, 7, 82, 0
8, 100480, Note_on_c, 7, 72, 70
8, 100480, Note_on_c, 7, 76, 70
8, 100499, Note_off_c, 7, 72, 0
8, 100499, Note_off_c, 7, 76, 0
8, 100608, Note_on_c, 7, 72, 66
8, 100608, Note_on_c, 7, 76, 66
8, 100627, Note_off_c, 7, 72, 0
8, 100627, Note_off_c, 7, 76, 0
8, 100736, Note_on_c, 7, 86, 127
8, 100741, Note_off_c, 7, 85, 0
8, 100800, Note_on_c, 7, 72, 71
8, 100800, Note_on_c, 7, 76, 71
8, 100819, Note_off_c, 7, 72, 0
8, 100819, Note_off_c, 7, 76, 0
8, 100992, Note_on_c, 7, 72, 69
8, 100992, Note_on_c, 7, 76, 69
8, 101011, Note_off_c, 7, 72, 0
8, 101011, Note_off_c, 7, 76, 0
8, 101100, Note_off_c, 7, 86, 0
8, 101120, Note_on_c, 7, 82, 112
8, 101184, Note_on_c, 7, 72, 73
8, 101184, Note_on_c, 7, 76, 73
8, 101203, Note_off_c, 7, 72, 0
8, 101203, Note_off_c, 7, 76, 0
8, 101376, Note_on_c, 7, 72, 73
8, 101376, Note_on_c, 7, 76, 73
8, 101440, Note_off_c, 7, 82, 0
8, 101440, Note_off_c, 7, 72, 0
8, 101440, Note_off_c, 7, 76, 0
8, 101440, Note_on_c, 7, 74, 103
8, 101440, Note_on_c, 7, 72, 81
8, 101440, Note_on_c, 7, 76, 81
8, 101504, Note_off_c, 7, 72, 0
8, 101504, Note_off_c, 7, 76, 0
8, 101568, Note_on_c, 7, 75, 101
8, 101570, Note_off_c, 7, 74, 0
8, 101632, Note_on_c, 7, 72, 76
8, 101632, Note_on_c, 7, 76, 76
8, 101696, Note_off_c, 7, 72, 0
8, 101696, Note_off_c, 7, 76, 0
8, 101696, Note_on_c, 7, 82, 127
8, 101696, Note_on_c, 7, 72, 84
8, 101696, Note_on_c, 7, 76, 84
8, 101698, Note_off_c, 7, 75, 0
8, 101760, Note_off_c, 7, 72, 0
8, 101760, Note_off_c, 7, 76, 0
8, 101824, Note_on_c, 7, 72, 72
8, 101824, Note_on_c, 7, 76, 72
8, 101878, Note_off_c, 7, 82, 0
8, 101888, Note_on_c, 7, 71, 100
8, 101952, Note_off_c, 7, 72, 0
8, 101952, Note_off_c, 7, 76, 0
8, 102016, Note_on_c, 7, 72, 74
8, 102016, Note_on_c, 7, 76, 74
8, 102080, Note_on_c, 7, 74, 101
8, 102083, Note_off_c, 7, 71, 0
8, 102144, Note_off_c, 7, 72, 0
8, 102144, Note_off_c, 7, 76, 0
8, 102208, Note_on_c, 7, 72, 66
8, 102208, Note_on_c, 7, 76, 66
8, 102227, Note_off_c, 7, 72, 0
8, 102227, Note_off_c, 7, 76, 0
8, 102336, Note_on_c, 7, 75, 127
8, 102341, Note_off_c, 7, 74, 0
8, 102400, Note_on_c, 7, 72, 72
8, 102400, Note_on_c, 7, 76, 72
8, 102419, Note_off_c, 7, 72, 0
8, 102419, Note_off_c, 7, 76, 0
8, 102570, Note_on_c, 7, 85, 127
8, 102574, Note_off_c, 7, 75, 0
8, 103016, Note_off_c, 7, 85, 0
8, 129920, Note_on_c, 7, 67, 75
8, 129920, Note_on_c, 7, 72, 75
8, 129920, Note_on_c, 7, 76, 75
8, 129920, Note_on_c, 7, 79, 75
8, 130176, Note_off_c, 7, 67, 0
8, 130176, Note_off_c, 7, 72, 0
8, 130176, Note_off_c, 7, 76, 0
8, 130176, Note_off_c, 7, 79, 0
8, 131328, Note_on_c, 7, 67, 80
8, 131328, Note_on_c, 7, 72, 80
8, 131328, Note_on_c, 7, 76, 80
8, 131328, Note_on_c, 7, 79, 80
8, 131584, Note_off_c, 7, 67, 0
8, 131584, Note_off_c, 7, 72, 0
8, 131584, Note_off_c, 7, 76, 0
8, 131584, Note_off_c, 7, 79, 0
8, 132608, Note_on_c, 7, 67, 73
8, 132608, Note_on_c, 7, 72, 73
8, 132608, Note_on_c, 7, 76, 73
8, 132608, Note_on_c, 7, 79, 73
8, 132864, Note_off_c, 7, 67, 0
8, 132864, Note_off_c, 7, 72, 0
8, 132864, Note_off_c, 7, 76, 0
8, 132864, Note_off_c, 7, 79, 0
8, 133888, Note_on_c, 7, 67, 76
8, 133888, Note_on_c, 7, 72, 76
8, 133888, Note_on_c, 7, 76, 76
8, 133888, Note_on_c, 7, 79, 76
8, 134144, Note_off_c, 7, 67, 0
8, 134144, Note_off_c, 7, 72, 0
8, 134144, Note_off_c, 7, 76, 0
8, 134144, Note_off_c, 7, 79, 0
8, 134656, Note_on_c, 7, 67, 90
8, 134656, Note_on_c, 7, 72, 90
8, 134656, Note_on_c, 7, 76, 90
8, 134656, Note_on_c, 7, 79, 90
8, 134720, Note_off_c, 7, 67, 0
8, 134720, Note_off_c, 7, 72, 0
8, 134720, Note_off_c, 7, 76, 0
8, 134720, Note_off_c, 7, 79, 0
8, 135680, Note_on_c, 7, 67, 89
8, 135680, Note_on_c, 7, 72, 89
8, 135680, Note_on_c, 7, 76, 89
8, 135680, Note_on_c, 7, 79, 89
8, 135744, Note_off_c, 7, 67, 0
8, 135744, Note_off_c, 7, 72, 0
8, 135744, Note_off_c, 7, 76, 0
8, 135744, Note_off_c, 7, 79, 0
8, 136576, Note_on_c, 7, 64, 86
8, 136576, Note_on_c, 7, 67, 86
8, 136576, Note_on_c, 7, 72, 86
8, 136576, Note_on_c, 7, 76, 86
8, 136640, Note_off_c, 7, 64, 0
8, 136640, Note_off_c, 7, 67, 0
8, 136640, Note_off_c, 7, 72, 0
8, 136640, Note_off_c, 7, 76, 0
8, 136960, Note_on_c, 7, 67, 84
8, 136960, Note_on_c, 7, 72, 84
8, 136960, Note_on_c, 7, 76, 84
8, 136960, Note_on_c, 7, 79, 84
8, 137024, Note_off_c, 7, 67, 0
8, 137024, Note_off_c, 7, 72, 0
8, 137024, Note_off_c, 7, 76, 0
8, 137024, Note_off_c, 7, 79, 0
8, 137600, Note_on_c, 7, 64, 87
8, 137600, Note_on_c, 7, 67, 87
8, 137600, Note_on_c, 7, 72, 87
8, 137600, Note_on_c, 7, 76, 87
8, 137664, Note_off_c, 7, 64, 0
8, 137664, Note_off_c, 7, 67, 0
8, 137664, Note_off_c, 7, 72, 0
8, 137664, Note_off_c, 7, 76, 0
8, 137984, Note_on_c, 7, 67, 94
8, 137984, Note_on_c, 7, 72, 94
8, 137984, Note_on_c, 7, 76, 94
8, 137984, Note_on_c, 7, 79, 94
8, 138048, Note_off_c, 7, 67, 0
8, 138048, Note_off_c, 7, 72, 0
8, 138048, Note_off_c, 7, 76, 0
8, 138048, Note_off_c, 7, 79, 0
8, 138624, Note_on_c, 7, 64, 89
8, 138624, Note_on_c, 7, 67, 89
8, 138624, Note_on_c, 7, 72, 89
8, 138624, Note_on_c, 7, 76, 89
8, 138688, Note_off_c, 7, 64, 0
8, 138688, Note_off_c, 7, 67, 0
8, 138688, Note_off_c, 7, 72, 0
8, 138688, Note_off_c, 7, 76, 0
8, 139008, Note_on_c, 7, 67, 92
8, 139008, Note_on_c, 7, 72, 92
8, 139008, Note_on_c, 7, 76, 92
8, 139008, Note_on_c, 7, 79, 92
8, 139072, Note_off_c, 7, 67, 0
8, 139072, Note_off_c, 7, 72, 0
8, 139072, Note_off_c, 7, 76, 0
8, 139072, Note_off_c, 7, 79, 0
8, 139648, Note_on_c, 7, 64, 84
8, 139648, Note_on_c, 7, 67, 84
8, 139648, Note_on_c, 7, 72, 84
8, 139648, Note_on_c, 7, 76, 84
8, 139712, Note_off_c, 7, 64, 0
8, 139712, Note_off_c, 7, 67, 0
8, 139712, Note_off_c, 7, 72, 0
8, 139712, Note_off_c, 7, 76, 0
8, 140032, Note_on_c, 7, 67, 87
8, 140032, Note_on_c, 7, 72, 87
8, 140032, Note_on_c, 7, 76, 87
8, 140032, Note_on_c, 7, 79, 87
8, 140096, Note_off_c, 7, 67, 0
8, 140096, Note_off_c, 7, 72, 0
8, 140096, Note_off_c, 7, 76, 0
8, 140096, Note_off_c, 7, 79, 0
8, 140672, Note_on_c, 7, 64, 85
8, 140672, Note_on_c, 7, 67, 85
8, 140672, Note_on_c, 7, 72, 85
8, 140672, Note_on_c, 7, 76, 85
8, 140736, Note_off_c, 7, 64, 0
8, 140736, Note_off_c, 7, 67, 0
8, 140736, Note_off_c, 7, 72, 0
8, 140736, Note_off_c, 7, 76, 0
8, 141056, Note_on_c, 7, 67, 87
8, 141056, Note_on_c, 7, 72, 87
8, 141056, Note_on_c, 7, 76, 87
8, 141056, Note_on_c, 7, 79, 87
8, 141120, Note_off_c, 7, 67, 0
8, 141120, Note_off_c, 7, 72, 0
8, 141120, Note_off_c, 7, 76, 0
8, 141120, Note_off_c, 7, 79, 0
8, 141312, Note_on_c, 7, 64, 91
8, 141312, Note_on_c, 7, 67, 91
8, 141312, Note_on_c, 7, 72, 91
8, 141312, Note_on_c, 7, 76, 91
8, 141376, Note_off_c, 7, 64, 0
8, 141376, Note_off_c, 7, 67, 0
8, 141376, Note_off_c, 7, 72, 0
8, 141376, Note_off_c, 7, 76, 0
8, 141696, Note_on_c, 7, 64, 91
8, 141696, Note_on_c, 7, 67, 91
8, 141696, Note_on_c, 7, 72, 91
8, 141696, Note_on_c, 7, 76, 91
8, 141760, Note_off_c, 7, 64, 0
8, 141760, Note_off_c, 7, 67, 0
8, 141760, Note_off_c, 7, 72, 0
8, 141760, Note_off_c, 7, 76, 0
8, 142080, Note_on_c, 7, 67, 91
8, 142080, Note_on_c, 7, 72, 91
8, 142080, Note_on_c, 7, 76, 91
8, 142080, Note_on_c, 7, 79, 91
8, 142144, Note_off_c, 7, 67, 0
8, 142144, Note_off_c, 7, 72, 0
8, 142144, Note_off_c, 7, 76, 0
8, 142144, Note_off_c, 7, 79, 0
8, 142336, Note_on_c, 7, 64, 90
8, 142336, Note_on_c, 7, 67, 90
8, 142336, Note_on_c, 7, 72, 90
8, 142336, Note_on_c, 7, 76, 90
8, 142400, Note_off_c, 7, 64, 0
8, 142400, Note_off_c, 7, 67, 0
8, 142400, Note_off_c, 7, 72, 0
8, 142400, Note_off_c, 7, 76, 0
8, 142720, Note_on_c, 7, 64, 88
8, 142720, Note_on_c, 7, 67, 88
8, 142720, Note_on_c, 7, 72, 88
8, 142720, Note_on_c, 7, 76, 88
8, 142784, Note_off_c, 7, 64, 0
8, 142784, Note_off_c, 7, 67, 0
8, 142784, Note_off_c, 7, 72, 0
8, 142784, Note_off_c, 7, 76, 0
8, 143104, Note_on_c, 7, 67, 87
8, 143104, Note_on_c, 7, 72, 87
8, 143104, Note_on_c, 7, 76, 87
8, 143104, Note_on_c, 7, 79, 87
8, 143168, Note_off_c, 7, 67, 0
8, 143168, Note_off_c, 7, 72, 0
8, 143168, Note_off_c, 7, 76, 0
8, 143168, Note_off_c, 7, 79, 0
8, 143360, Note_on_c, 7, 64, 85
8, 143360, Note_on_c, 7, 67, 85
8, 143360, Note_on_c, 7, 72, 85
8, 143360, Note_on_c, 7, 76, 85
8, 143424, Note_off_c, 7, 64, 0
8, 143424, Note_off_c, 7, 67, 0
8, 143424, Note_off_c, 7, 72, 0
8, 143424, Note_off_c, 7, 76, 0
8, 143744, Note_on_c, 7, 64, 74
8, 143744, Note_on_c, 7, 67, 74
8, 143744, Note_on_c, 7, 72, 74
8, 143744, Note_on_c, 7, 76, 74
8, 143808, Note_off_c, 7, 64, 0
8, 143808, Note_off_c, 7, 67, 0
8, 143808, Note_off_c, 7, 72, 0
8, 143808, Note_off_c, 7, 76, 0
8, 144128, Note_on_c, 7, 67, 74
8, 144128, Note_on_c, 7, 72, 74
8, 144128, Note_on_c, 7, 76, 74
8, 144128, Note_on_c, 7, 79, 74
8, 144192, Note_off_c, 7, 67, 0
8, 144192, Note_off_c, 7, 72, 0
8, 144192, Note_off_c, 7, 76, 0
8, 144192, Note_off_c, 7, 79, 0
8, 144384, Note_on_c, 7, 64, 65
8, 144384, Note_on_c, 7, 67, 65
8, 144384, Note_on_c, 7, 72, 65
8, 144384, Note_on_c, 7, 76, 65
8, 144448, Note_off_c, 7, 64, 0
8, 144448, Note_off_c, 7, 67, 0
8, 144448, Note_off_c, 7, 72, 0
8, 144448, Note_off_c, 7, 76, 0
8, 144640, Note_on_c, 7, 67, 61
8, 144640, Note_on_c, 7, 72, 61
8, 144640, Note_on_c, 7, 76, 61
8, 144704, Note_off_c, 7, 67, 0
8, 144704, Note_off_c, 7, 72, 0
8, 144704, Note_off_c, 7, 76, 0
8, 144768, Note_on_c, 7, 64, 46
8, 144832, Note_off_c, 7, 64, 0
8, 145024, Note_on_c, 7, 67, 66
8, 145024, Note_on_c, 7, 72, 66
8, 145024, Note_on_c, 7, 76, 66
8, 145024, Note_on_c, 7, 79, 66
8, 145088, Note_off_c, 7, 67, 0
8, 145088, Note_off_c, 7, 72, 0
8, 145088, Note_off_c, 7, 76, 0
8, 145088, Note_off_c, 7, 79, 0
8, 145280, Note_on_c, 7, 64, 63
8, 145280, Note_on_c, 7, 67, 63
8, 145280, Note_on_c, 7, 72, 63
8, 145280, Note_on_c, 7, 76, 63
8, 145344, Note_off_c, 7, 64, 0
8, 145344, Note_off_c, 7, 67, 0
8, 145344, Note_off_c, 7, 72, 0
8, 145344, Note_off_c, 7, 76, 0
8, 145664, Note_on_c, 7, 67, 66
8, 145664, Note_on_c, 7, 72, 66
8, 145664, Note_on_c, 7, 76, 66
8, 145728, Note_off_c, 7, 67, 0
8, 145728, Note_off_c, 7, 72, 0
8, 145728, Note_off_c, 7, 76, 0
8, 145792, Note_on_c, 7, 64, 54
8, 145856, Note_off_c, 7, 64, 0
8, 146048, Note_on_c, 7, 67, 66
8, 146048, Note_on_c, 7, 72, 66
8, 146048, Note_on_c, 7, 76, 66
8, 146048, Note_on_c, 7, 79, 66
8, 146112, Note_off_c, 7, 67, 0
8, 146112, Note_off_c, 7, 72, 0
8, 146112, Note_off_c, 7, 76, 0
8, 146112, Note_off_c, 7, 79, 0
8, 146304, Note_on_c, 7, 64, 65
8, 146304, Note_on_c, 7, 67, 65
8, 146304, Note_on_c, 7, 72, 65
8, 146304, Note_on_c, 7, 76, 65
8, 146368, Note_off_c, 7, 64, 0
8, 146368, Note_off_c, 7, 67, 0
8, 146368, Note_off_c, 7, 72, 0
8, 146368, Note_off_c, 7, 76, 0
8, 146688, Note_on_c, 7, 67, 66
8, 146688, Note_on_c, 7, 72, 66
8, 146688, Note_on_c, 7, 76, 66
8, 146752, Note_off_c, 7, 67, 0
8, 146752, Note_off_c, 7, 72, 0
8, 146752, Note_off_c, 7, 76, 0
8, 146816, Note_on_c, 7, 64, 54
8, 146880, Note_off_c, 7, 64, 0
8, 147072, Note_on_c, 7, 67, 60
8, 147072, Note_on_c, 7, 72, 60
8, 147072, Note_on_c, 7, 76, 60
8, 147072, Note_on_c, 7, 79, 60
8, 147136, Note_off_c, 7, 67, 0
8, 147136, Note_off_c, 7, 72, 0
8, 147136, Note_off_c, 7, 76, 0
8, 147136, Note_off_c, 7, 79, 0
8, 147328, Note_on_c, 7, 64, 62
8, 147328, Note_on_c, 7, 67, 62
8, 147328, Note_on_c, 7, 72, 62
8, 147328, Note_on_c, 7, 76, 62
8, 147392, Note_off_c, 7, 64, 0
8, 147392, Note_off_c, 7, 67, 0
8, 147392, Note_off_c, 7, 72, 0
8, 147392, Note_off_c, 7, 76, 0
8, 147712, Note_on_c, 7, 67, 62
8, 147712, Note_on_c, 7, 72, 62
8, 147712, Note_on_c, 7, 76, 62
8, 147776, Note_off_c, 7, 67, 0
8, 147776, Note_off_c, 7, 72, 0
8, 147776, Note_off_c, 7, 76, 0
8, 147840, Note_on_c, 7, 64, 52
8, 147904, Note_off_c, 7, 64, 0
8, 148224, Note_on_c, 7, 69, 83
8, 148224, Note_on_c, 7, 74, 83
8, 148224, Note_on_c, 7, 78, 83
8, 148224, Note_on_c, 7, 81, 83
8, 148480, Note_off_c, 7, 69, 0
8, 148480, Note_off_c, 7, 74, 0
8, 148480, Note_off_c, 7, 78, 0
8, 148480, Note_off_c, 7, 81, 0
8, 148736, Note_on_c, 7, 69, 87
8, 148736, Note_on_c, 7, 74, 87
8, 148736, Note_on_c, 7, 78, 87
8, 148736, Note_on_c, 7, 81, 87
8, 148992, Note_off_c, 7, 69, 0
8, 148992, Note_off_c, 7, 74, 0
8, 148992, Note_off_c, 7, 78, 0
8, 148992, Note_off_c, 7, 81, 0
8, 149248, Note_on_c, 7, 69, 90
8, 149248, Note_on_c, 7, 74, 90
8, 149248, Note_on_c, 7, 78, 90
8, 149248, Note_on_c, 7, 81, 90
8, 149504, Note_off_c, 7, 69, 0
8, 149504, Note_off_c, 7, 74, 0
8, 149504, Note_off_c, 7, 78, 0
8, 149504, Note_off_c, 7, 81, 0
8, 149632, Note_on_c, 7, 69, 87
8, 149632, Note_on_c, 7, 74, 87
8, 149632, Note_on_c, 7, 78, 87
8, 149632, Note_on_c, 7, 81, 87
8, 149888, Note_off_c, 7, 69, 0
8, 149888, Note_off_c, 7, 74, 0
8, 149888, Note_off_c, 7, 78, 0
8, 149888, Note_off_c, 7, 81, 0
8, 150144, Note_on_c, 7, 69, 92
8, 150144, Note_on_c, 7, 74, 92
8, 150144, Note_on_c, 7, 78, 92
8, 150144, Note_on_c, 7, 81, 92
8, 150400, Note_off_c, 7, 69, 0
8, 150400, Note_off_c, 7, 74, 0
8, 150400, Note_off_c, 7, 78, 0
8, 150400, Note_off_c, 7, 81, 0
8, 150656, Note_on_c, 7, 69, 87
8, 150656, Note_on_c, 7, 74, 87
8, 150656, Note_on_c, 7, 78, 87
8, 150656, Note_on_c, 7, 81, 87
8, 150912, Note_off_c, 7, 69, 0
8, 150912, Note_off_c, 7, 74, 0
8, 150912, Note_off_c, 7, 78, 0
8, 150912, Note_off_c, 7, 81, 0
8, 151168, Note_on_c, 7, 69, 91
8, 151168, Note_on_c, 7, 74, 91
8, 151168, Note_on_c, 7, 78, 91
8, 151168, Note_on_c, 7, 81, 91
8, 151424, Note_off_c, 7, 69, 0
8, 151424, Note_off_c, 7, 74, 0
8, 151424, Note_off_c, 7, 78, 0
8, 151424, Note_off_c, 7, 81, 0
8, 151680, Note_on_c, 7, 69, 82
8, 151680, Note_on_c, 7, 74, 82
8, 151680, Note_on_c, 7, 78, 82
8, 151680, Note_on_c, 7, 81, 82
8, 151936, Note_off_c, 7, 69, 0
8, 151936, Note_off_c, 7, 74, 0
8, 151936, Note_off_c, 7, 78, 0
8, 151936, Note_off_c, 7, 81, 0
8, 152192, Note_on_c, 7, 69, 88
8, 152192, Note_on_c, 7, 74, 88
8, 152192, Note_on_c, 7, 78, 88
8, 152192, Note_on_c, 7, 81, 88
8, 152448, Note_off_c, 7, 69, 0
8, 152448, Note_off_c, 7, 74, 0
8, 152448, Note_off_c, 7, 78, 0
8, 152448, Note_off_c, 7, 81, 0
8, 152704, Note_on_c, 7, 69, 89
8, 152704, Note_on_c, 7, 74, 89
8, 152704, Note_on_c, 7, 78, 89
8, 152704, Note_on_c, 7, 81, 89
8, 152960, Note_off_c, 7, 69, 0
8, 152960, Note_off_c, 7, 74, 0
8, 152960, Note_off_c, 7, 78, 0
8, 152960, Note_off_c, 7, 81, 0
8, 153216, Note_on_c, 7, 69, 88
8, 153216, Note_on_c, 7, 74, 88
8, 153216, Note_on_c, 7, 78, 88
8, 153216, Note_on_c, 7, 81, 88
8, 153472, Note_off_c, 7, 69, 0
8, 153472, Note_off_c, 7, 74, 0
8, 153472, Note_off_c, 7, 78, 0
8, 153472, Note_off_c, 7, 81, 0
8, 153728, Note_on_c, 7, 69, 91
8, 153728, Note_on_c, 7, 74, 91
8, 153728, Note_on_c, 7, 78, 91
8, 153728, Note_on_c, 7, 81, 91
8, 153984, Note_off_c, 7, 69, 0
8, 153984, Note_off_c, 7, 74, 0
8, 153984, Note_off_c, 7, 78, 0
8, 153984, Note_off_c, 7, 81, 0
8, 154240, Note_on_c, 7, 69, 91
8, 154240, Note_on_c, 7, 74, 91
8, 154240, Note_on_c, 7, 78, 91
8, 154240, Note_on_c, 7, 81, 91
8, 154496, Note_off_c, 7, 69, 0
8, 154496, Note_off_c, 7, 74, 0
8, 154496, Note_off_c, 7, 78, 0
8, 154496, Note_off_c, 7, 81, 0
8, 154752, Note_on_c, 7, 69, 85
8, 154752, Note_on_c, 7, 74, 85
8, 154752, Note_on_c, 7, 78, 85
8, 154752, Note_on_c, 7, 81, 85
8, 155008, Note_off_c, 7, 69, 0
8, 155008, Note_off_c, 7, 74, 0
8, 155008, Note_off_c, 7, 78, 0
8, 155008, Note_off_c, 7, 81, 0
8, 155264, Note_on_c, 7, 69, 84
8, 155264, Note_on_c, 7, 74, 84
8, 155264, Note_on_c, 7, 78, 84
8, 155264, Note_on_c, 7, 81, 84
8, 155520, Note_off_c, 7, 69, 0
8, 155520, Note_off_c, 7, 74, 0
8, 155520, Note_off_c, 7, 78, 0
8, 155520, Note_off_c, 7, 81, 0
8, 155776, Note_on_c, 7, 69, 81
8, 155776, Note_on_c, 7, 74, 81
8, 155776, Note_on_c, 7, 78, 81
8, 155776, Note_on_c, 7, 81, 81
8, 156032, Note_off_c, 7, 69, 0
8, 156032, Note_off_c, 7, 74, 0
8, 156032, Note_off_c, 7, 78, 0
8, 156032, Note_off_c, 7, 81, 0
8, 156288, Note_on_c, 7, 69, 75
8, 156288, Note_on_c, 7, 74, 75
8, 156288, Note_on_c, 7, 78, 75
8, 156288, Note_on_c, 7, 81, 75
8, 156544, Note_off_c, 7, 69, 0
8, 156544, Note_off_c, 7, 74, 0
8, 156544, Note_off_c, 7, 78, 0
8, 156544, Note_off_c, 7, 81, 0
8, 156800, Note_on_c, 7, 69, 75
8, 156800, Note_on_c, 7, 74, 75
8, 156800, Note_on_c, 7, 78, 75
8, 156800, Note_on_c, 7, 81, 75
8, 157056, Note_off_c, 7, 69, 0
8, 157056, Note_off_c, 7, 74, 0
8, 157056, Note_off_c, 7, 78, 0
8, 157056, Note_off_c, 7, 81, 0
8, 157312, Note_on_c, 7, 69, 61
8, 157312, Note_on_c, 7, 74, 61
8, 157312, Note_on_c, 7, 78, 61
8, 157312, Note_on_c, 7, 81, 61
8, 157568, Note_off_c, 7, 69, 0
8, 157568, Note_off_c, 7, 74, 0
8, 157568, Note_off_c, 7, 78, 0
8, 157568, Note_off_c, 7, 81, 0
8, 157824, Note_on_c, 7, 69, 60
8, 157824, Note_on_c, 7, 74, 60
8, 157824, Note_on_c, 7, 78, 60
8, 157824, Note_on_c, 7, 81, 60
8, 158080, Note_off_c, 7, 69, 0
8, 158080, Note_off_c, 7, 74, 0
8, 158080, Note_off_c, 7, 78, 0
8, 158080, Note_off_c, 7, 81, 0
8, 158336, Note_on_c, 7, 69, 62
8, 158336, Note_on_c, 7, 74, 62
8, 158336, Note_on_c, 7, 78, 62
8, 158336, Note_on_c, 7, 81, 62
8, 158592, Note_off_c, 7, 69, 0
8, 158592, Note_off_c, 7, 74, 0
8, 158592, Note_off_c, 7, 78, 0
8, 158592, Note_off_c, 7, 81, 0
8, 159104, Note_on_c, 7, 69, 65
8, 159104, Note_on_c, 7, 74, 65
8, 159104, Note_on_c, 7, 78, 65
8, 159104, Note_on_c, 7, 81, 65
8, 159360, Note_off_c, 7, 69, 0
8, 159360, Note_off_c, 7, 74, 0
8, 159360, Note_off_c, 7, 78, 0
8, 159360, Note_off_c, 7, 81, 0
8, 160128, Note_on_c, 7, 69, 66
8, 160128, Note_on_c, 7, 74, 66
8, 160128, Note_on_c, 7, 78, 66
8, 160128, Note_on_c, 7, 81, 66
8, 160384, Note_off_c, 7, 69, 0
8, 160384, Note_off_c, 7, 74, 0
8, 160384, Note_off_c, 7, 78, 0
8, 160384, Note_off_c, 7, 81, 0
8, 161024, Note_on_c, 7, 71, 67
8, 161024, Note_on_c, 7, 74, 67
8, 161024, Note_on_c, 7, 78, 67
8, 161024, Note_on_c, 7, 81, 67
8, 161280, Note_off_c, 7, 71, 0
8, 161280, Note_off_c, 7, 74, 0
8, 161280, Note_off_c, 7, 78, 0
8, 161280, Note_off_c, 7, 81, 0
8, 161962, Note_on_c, 7, 71, 88
8, 161962, Note_on_c, 7, 74, 88
8, 161962, Note_on_c, 7, 78, 88
8, 161962, Note_on_c, 7, 81, 88
8, 162133, Note_on_c, 7, 62, 104
8, 162133, Note_on_c, 7, 64, 104
8, 162136, Note_off_c, 7, 71, 0
8, 162136, Note_off_c, 7, 74, 0
8, 162136, Note_off_c, 7, 78, 0
8, 162136, Note_off_c, 7, 81, 0
8, 162295, Note_off_c, 7, 62, 0
8, 162295, Note_off_c, 7, 64, 0
8, 162304, Note_on_c, 7, 71, 122
8, 162304, Note_on_c, 7, 74, 122
8, 162304, Note_on_c, 7, 78, 122
8, 162304, Note_on_c, 7, 81, 122
8, 162560, Note_off_c, 7, 71, 0
8, 162560, Note_off_c, 7, 74, 0
8, 162560, Note_off_c, 7, 78, 0
8, 162560, Note_off_c, 7, 81, 0
8, 162986, Note_on_c, 7, 71, 92
8, 162986, Note_on_c, 7, 74, 92
8, 162986, Note_on_c, 7, 78, 92
8, 162986, Note_on_c, 7, 81, 92
8, 163157, Note_off_c, 7, 71, 0
8, 163157, Note_off_c, 7, 74, 0
8, 163157, Note_off_c, 7, 78, 0
8, 163157, Note_off_c, 7, 81, 0
8, 163157, Note_on_c, 7, 62, 90
8, 163157, Note_on_c, 7, 64, 90
8, 163328, Note_off_c, 7, 62, 0
8, 163328, Note_off_c, 7, 64, 0
8, 163328, Note_on_c, 7, 71, 120
8, 163328, Note_on_c, 7, 74, 120
8, 163328, Note_on_c, 7, 78, 120
8, 163328, Note_on_c, 7, 81, 120
8, 163584, Note_off_c, 7, 71, 0
8, 163584, Note_off_c, 7, 74, 0
8, 163584, Note_off_c, 7, 78, 0
8, 163584, Note_off_c, 7, 81, 0
8, 164010, Note_on_c, 7, 62, 112
8, 164010, Note_on_c, 7, 64, 112
8, 164181, Note_on_c, 7, 71, 125
8, 164181, Note_on_c, 7, 74, 125
8, 164181, Note_on_c, 7, 78, 125
8, 164181, Note_on_c, 7, 81, 125
8, 164184, Note_off_c, 7, 62, 0
8, 164184, Note_off_c, 7, 64, 0
8, 164343, Note_off_c, 7, 71, 0
8, 164343, Note_off_c, 7, 74, 0
8, 164343, Note_off_c, 7, 78, 0
8, 164343, Note_off_c, 7, 81, 0
8, 164778, Note_on_c, 7, 71, 103
8, 164778, Note_on_c, 7, 74, 103
8, 164778, Note_on_c, 7, 78, 103
8, 164778, Note_on_c, 7, 81, 103
8, 164949, Note_off_c, 7, 71, 0
8, 164949, Note_off_c, 7, 74, 0
8, 164949, Note_off_c, 7, 78, 0
8, 164949, Note_off_c, 7, 81, 0
8, 165034, Note_on_c, 7, 62, 127
8, 165034, Note_on_c, 7, 64, 127
8, 165205, Note_off_c, 7, 62, 0
8, 165205, Note_off_c, 7, 64, 0
8, 165290, Note_on_c, 7, 71, 102
8, 165290, Note_on_c, 7, 74, 102
8, 165290, Note_on_c, 7, 78, 102
8, 165290, Note_on_c, 7, 81, 102
8, 165461, Note_off_c, 7, 71, 0
8, 165461, Note_off_c, 7, 74, 0
8, 165461, Note_off_c, 7, 78, 0
8, 165461, Note_off_c, 7, 81, 0
8, 165546, Note_on_c, 7, 62, 127
8, 165546, Note_on_c, 7, 64, 127
8, 165717, Note_off_c, 7, 62, 0
8, 165717, Note_off_c, 7, 64, 0
8, 165802, Note_on_c, 7, 71, 103
8, 165802, Note_on_c, 7, 74, 103
8, 165802, Note_on_c, 7, 78, 103
8, 165802, Note_on_c, 7, 81, 103
8, 165973, Note_off_c, 7, 71, 0
8, 165973, Note_off_c, 7, 74, 0
8, 165973, Note_off_c, 7, 78, 0
8, 165973, Note_off_c, 7, 81, 0
8, 166400, Note_on_c, 7, 72, 102
8, 166400, Note_on_c, 7, 74, 102
8, 166400, Note_on_c, 7, 79, 102
8, 166400, Note_on_c, 7, 81, 102
8, 166438, Note_off_c, 7, 72, 0
8, 166438, Note_off_c, 7, 74, 0
8, 166438, Note_off_c, 7, 79, 0
8, 166438, Note_off_c, 7, 81, 0
8, 166912, Note_on_c, 7, 72, 104
8, 166912, Note_on_c, 7, 74, 104
8, 166912, Note_on_c, 7, 79, 104
8, 166912, Note_on_c, 7, 81, 104
8, 166950, Note_off_c, 7, 72, 0
8, 166950, Note_off_c, 7, 74, 0
8, 166950, Note_off_c, 7, 79, 0
8, 166950, Note_off_c, 7, 81, 0
8, 167424, Note_on_c, 7, 72, 101
8, 167424, Note_on_c, 7, 74, 101
8, 167424, Note_on_c, 7, 79, 101
8, 167424, Note_on_c, 7, 81, 101
8, 167462, Note_off_c, 7, 72, 0
8, 167462, Note_off_c, 7, 74, 0
8, 167462, Note_off_c, 7, 79, 0
8, 167462, Note_off_c, 7, 81, 0
8, 167936, Note_on_c, 7, 72, 102
8, 167936, Note_on_c, 7, 74, 102
8, 167936, Note_on_c, 7, 79, 102
8, 167936, Note_on_c, 7, 81, 102
8, 167974, Note_off_c, 7, 72, 0
8, 167974, Note_off_c, 7, 74, 0
8, 167974, Note_off_c, 7, 79, 0
8, 167974, Note_off_c, 7, 81, 0
8, 168618, Note_on_c, 7, 71, 113
8, 168618, Note_on_c, 7, 74, 113
8, 168618, Note_on_c, 7, 78, 113
8, 168618, Note_on_c, 7, 81, 113
8, 168789, Note_off_c, 7, 71, 0
8, 168789, Note_off_c, 7, 74, 0
8, 168789, Note_off_c, 7, 78, 0
8, 168789, Note_off_c, 7, 81, 0
8, 168874, Note_on_c, 7, 71, 113
8, 168874, Note_on_c, 7, 74, 113
8, 168874, Note_on_c, 7, 78, 113
8, 168874, Note_on_c, 7, 81, 113
8, 168960, Note_on_c, 7, 62, 80
8, 168960, Note_on_c, 7, 66, 80
8, 168961, Note_off_c, 7, 71, 0
8, 168961, Note_off_c, 7, 74, 0
8, 168961, Note_off_c, 7, 78, 0
8, 168961, Note_off_c, 7, 81, 0
8, 169121, Note_off_c, 7, 62, 0
8, 169121, Note_off_c, 7, 66, 0
8, 169130, Note_on_c, 7, 71, 127
8, 169130, Note_on_c, 7, 74, 127
8, 169130, Note_on_c, 7, 78, 127
8, 169130, Note_on_c, 7, 81, 127
8, 169216, Note_off_c, 7, 71, 0
8, 169216, Note_off_c, 7, 74, 0
8, 169216, Note_off_c, 7, 78, 0
8, 169216, Note_off_c, 7, 81, 0
8, 169386, Note_on_c, 7, 71, 113
8, 169386, Note_on_c, 7, 74, 113
8, 169386, Note_on_c, 7, 78, 113
8, 169386, Note_on_c, 7, 81, 113
8, 169472, Note_on_c, 7, 62, 79
8, 169472, Note_on_c, 7, 66, 79
8, 169473, Note_off_c, 7, 71, 0
8, 169473, Note_off_c, 7, 74, 0
8, 169473, Note_off_c, 7, 78, 0
8, 169473, Note_off_c, 7, 81, 0
8, 169633, Note_off_c, 7, 62, 0
8, 169633, Note_off_c, 7, 66, 0
8, 169642, Note_on_c, 7, 71, 127
8, 169642, Note_on_c, 7, 74, 127
8, 169642, Note_on_c, 7, 78, 127
8, 169642, Note_on_c, 7, 81, 127
8, 169728, Note_off_c, 7, 71, 0
8, 169728, Note_off_c, 7, 74, 0
8, 169728, Note_off_c, 7, 78, 0
8, 169728, Note_off_c, 7, 81, 0
8, 169898, Note_on_c, 7, 71, 115
8, 169898, Note_on_c, 7, 74, 115
8, 169898, Note_on_c, 7, 78, 115
8, 169898, Note_on_c, 7, 81, 115
8, 169984, Note_off_c, 7, 71, 0
8, 169984, Note_off_c, 7, 74, 0
8, 169984, Note_off_c, 7, 78, 0
8, 169984, Note_off_c, 7, 81, 0
8, 170154, Note_on_c, 7, 66, 111
8, 170154, Note_on_c, 7, 71, 111
8, 170154, Note_on_c, 7, 74, 111
8, 170154, Note_on_c, 7, 77, 111
8, 170240, Note_off_c, 7, 66, 0
8, 170240, Note_off_c, 7, 71, 0
8, 170240, Note_off_c, 7, 74, 0
8, 170240, Note_off_c, 7, 77, 0
8, 170410, Note_on_c, 7, 72, 112
8, 170410, Note_on_c, 7, 74, 112
8, 170410, Note_on_c, 7, 79, 112
8, 170410, Note_on_c, 7, 81, 112
8, 170496, Note_on_c, 7, 62, 81
8, 170496, Note_on_c, 7, 66, 81
8, 170497, Note_off_c, 7, 72, 0
8, 170497, Note_off_c, 7, 74, 0
8, 170497, Note_off_c, 7, 79, 0
8, 170497, Note_off_c, 7, 81, 0
8, 170576, Note_off_c, 7, 62, 0
8, 170576, Note_off_c, 7, 66, 0
8, 170752, Note_on_c, 7, 72, 113
8, 170752, Note_on_c, 7, 74, 113
8, 170752, Note_on_c, 7, 79, 113
8, 170752, Note_on_c, 7, 81, 113
8, 170837, Note_off_c, 7, 72, 0
8, 170837, Note_off_c, 7, 74, 0
8, 170837, Note_off_c, 7, 79, 0
8, 170837, Note_off_c, 7, 81, 0
8, 170922, Note_on_c, 7, 72, 110
8, 170922, Note_on_c, 7, 74, 110
8, 170922, Note_on_c, 7, 79, 110
8, 170922, Note_on_c, 7, 81, 110
8, 171008, Note_on_c, 7, 62, 83
8, 171008, Note_on_c, 7, 67, 83
8, 171009, Note_off_c, 7, 72, 0
8, 171009, Note_off_c, 7, 74, 0
8, 171009, Note_off_c, 7, 79, 0
8, 171009, Note_off_c, 7, 81, 0
8, 171088, Note_off_c, 7, 62, 0
8, 171088, Note_off_c, 7, 67, 0
8, 171264, Note_on_c, 7, 72, 120
8, 171264, Note_on_c, 7, 74, 120
8, 171264, Note_on_c, 7, 79, 120
8, 171264, Note_on_c, 7, 81, 120
8, 171349, Note_off_c, 7, 72, 0
8, 171349, Note_off_c, 7, 74, 0
8, 171349, Note_off_c, 7, 79, 0
8, 171349, Note_off_c, 7, 81, 0
8, 171434, Note_on_c, 7, 72, 121
8, 171434, Note_on_c, 7, 74, 121
8, 171434, Note_on_c, 7, 79, 121
8, 171434, Note_on_c, 7, 81, 121
8, 171520, Note_on_c, 7, 62, 87
8, 171520, Note_on_c, 7, 67, 87
8, 171521, Note_off_c, 7, 72, 0
8, 171521, Note_off_c, 7, 74, 0
8, 171521, Note_off_c, 7, 79, 0
8, 171521, Note_off_c, 7, 81, 0
8, 171690, Note_on_c, 7, 72, 127
8, 171690, Note_on_c, 7, 74, 127
8, 171690, Note_on_c, 7, 79, 127
8, 171690, Note_on_c, 7, 81, 127
8, 171693, Note_off_c, 7, 62, 0
8, 171693, Note_off_c, 7, 67, 0
8, 171771, Note_off_c, 7, 72, 0
8, 171771, Note_off_c, 7, 74, 0
8, 171771, Note_off_c, 7, 79, 0
8, 171771, Note_off_c, 7, 81, 0
8, 172032, Note_on_c, 7, 72, 114
8, 172032, Note_on_c, 7, 74, 114
8, 172032, Note_on_c, 7, 79, 114
8, 172032, Note_on_c, 7, 81, 114
8, 172117, Note_off_c, 7, 72, 0
8, 172117, Note_off_c, 7, 74, 0
8, 172117, Note_off_c, 7, 79, 0
8, 172117, Note_off_c, 7, 81, 0
8, 172288, Note_on_c, 7, 62, 113
8, 172288, Note_on_c, 7, 67, 113
8, 172458, Note_on_c, 7, 72, 127
8, 172458, Note_on_c, 7, 74, 127
8, 172458, Note_on_c, 7, 79, 127
8, 172458, Note_on_c, 7, 81, 127
8, 172461, Note_off_c, 7, 62, 0
8, 172461, Note_off_c, 7, 67, 0
8, 172539, Note_off_c, 7, 72, 0
8, 172539, Note_off_c, 7, 74, 0
8, 172539, Note_off_c, 7, 79, 0
8, 172539, Note_off_c, 7, 81, 0
8, 172800, Note_on_c, 7, 72, 114
8, 172800, Note_on_c, 7, 74, 114
8, 172800, Note_on_c, 7, 79, 114
8, 172800, Note_on_c, 7, 81, 114
8, 172885, Note_off_c, 7, 72, 0
8, 172885, Note_off_c, 7, 74, 0
8, 172885, Note_off_c, 7, 79, 0
8, 172885, Note_off_c, 7, 81, 0
8, 172970, Note_on_c, 7, 69, 113
8, 172970, Note_on_c, 7, 70, 113
8, 172970, Note_on_c, 7, 74, 113
8, 172970, Note_on_c, 7, 77, 113
8, 173056, Note_on_c, 7, 60, 114
8, 173056, Note_on_c, 7, 62, 114
8, 173056, Note_on_c, 7, 67, 114
8, 173057, Note_off_c, 7, 69, 0
8, 173057, Note_off_c, 7, 70, 0
8, 173057, Note_off_c, 7, 74, 0
8, 173057, Note_off_c, 7, 77, 0
8, 173136, Note_off_c, 7, 60, 0
8, 173136, Note_off_c, 7, 62, 0
8, 173136, Note_off_c, 7, 67, 0
8, 173226, Note_on_c, 7, 69, 114
8, 173226, Note_on_c, 7, 70, 114
8, 173226, Note_on_c, 7, 74, 114
8, 173226, Note_on_c, 7, 77, 114
8, 173312, Note_on_c, 7, 60, 107
8, 173312, Note_on_c, 7, 62, 107
8, 173312, Note_on_c, 7, 67, 107
8, 173313, Note_off_c, 7, 69, 0
8, 173313, Note_off_c, 7, 70, 0
8, 173313, Note_off_c, 7, 74, 0
8, 173313, Note_off_c, 7, 77, 0
8, 173392, Note_off_c, 7, 60, 0
8, 173392, Note_off_c, 7, 62, 0
8, 173392, Note_off_c, 7, 67, 0
8, 173482, Note_on_c, 7, 69, 115
8, 173482, Note_on_c, 7, 70, 115
8, 173482, Note_on_c, 7, 74, 115
8, 173482, Note_on_c, 7, 77, 115
8, 173568, Note_on_c, 7, 60, 107
8, 173568, Note_on_c, 7, 62, 107
8, 173568, Note_on_c, 7, 67, 107
8, 173569, Note_off_c, 7, 69, 0
8, 173569, Note_off_c, 7, 70, 0
8, 173569, Note_off_c, 7, 74, 0
8, 173569, Note_off_c, 7, 77, 0
8, 173648, Note_off_c, 7, 60, 0
8, 173648, Note_off_c, 7, 62, 0
8, 173648, Note_off_c, 7, 67, 0
8, 173738, Note_on_c, 7, 69, 117
8, 173738, Note_on_c, 7, 70, 117
8, 173738, Note_on_c, 7, 74, 117
8, 173738, Note_on_c, 7, 77, 117
8, 173824, Note_off_c, 7, 69, 0
8, 173824, Note_off_c, 7, 70, 0
8, 173824, Note_off_c, 7, 74, 0
8, 173824, Note_off_c, 7, 77, 0
8, 173994, Note_on_c, 7, 69, 116
8, 173994, Note_on_c, 7, 70, 116
8, 173994, Note_on_c, 7, 74, 116
8, 173994, Note_on_c, 7, 77, 116
8, 174080, Note_on_c, 7, 60, 102
8, 174080, Note_on_c, 7, 62, 102
8, 174080, Note_on_c, 7, 67, 102
8, 174081, Note_off_c, 7, 69, 0
8, 174081, Note_off_c, 7, 70, 0
8, 174081, Note_off_c, 7, 74, 0
8, 174081, Note_off_c, 7, 77, 0
8, 174160, Note_off_c, 7, 60, 0
8, 174160, Note_off_c, 7, 62, 0
8, 174160, Note_off_c, 7, 67, 0
8, 174250, Note_on_c, 7, 69, 115
8, 174250, Note_on_c, 7, 70, 115
8, 174250, Note_on_c, 7, 74, 115
8, 174250, Note_on_c, 7, 77, 115
8, 174336, Note_on_c, 7, 60, 105
8, 174336, Note_on_c, 7, 62, 105
8, 174336, Note_on_c, 7, 67, 105
8, 174337, Note_off_c, 7, 69, 0
8, 174337, Note_off_c, 7, 70, 0
8, 174337, Note_off_c, 7, 74, 0
8, 174337, Note_off_c, 7, 77, 0
8, 174416, Note_off_c, 7, 60, 0
8, 174416, Note_off_c, 7, 62, 0
8, 174416, Note_off_c, 7, 67, 0
8, 174506, Note_on_c, 7, 69, 112
8, 174506, Note_on_c, 7, 70, 112
8, 174506, Note_on_c, 7, 74, 112
8, 174506, Note_on_c, 7, 77, 112
8, 174592, Note_on_c, 7, 60, 105
8, 174592, Note_on_c, 7, 62, 105
8, 174592, Note_on_c, 7, 67, 105
8, 174593, Note_off_c, 7, 69, 0
8, 174593, Note_off_c, 7, 70, 0
8, 174593, Note_off_c, 7, 74, 0
8, 174593, Note_off_c, 7, 77, 0
8, 174672, Note_off_c, 7, 60, 0
8, 174672, Note_off_c, 7, 62, 0
8, 174672, Note_off_c, 7, 67, 0
8, 174762, Note_on_c, 7, 69, 110
8, 174762, Note_on_c, 7, 70, 110
8, 174762, Note_on_c, 7, 74, 110
8, 174762, Note_on_c, 7, 77, 110
8, 174848, Note_on_c, 7, 60, 101
8, 174848, Note_on_c, 7, 62, 101
8, 174848, Note_on_c, 7, 67, 101
8, 174849, Note_off_c, 7, 69, 0
8, 174849, Note_off_c, 7, 70, 0
8, 174849, Note_off_c, 7, 74, 0
8, 174849, Note_off_c, 7, 77, 0
8, 174928, Note_off_c, 7, 60, 0
8, 174928, Note_off_c, 7, 62, 0
8, 174928, Note_off_c, 7, 67, 0
8, 175018, Note_on_c, 7, 69, 116
8, 175018, Note_on_c, 7, 70, 116
8, 175018, Note_on_c, 7, 74, 116
8, 175018, Note_on_c, 7, 77, 116
8, 175104, Note_on_c, 7, 60, 98
8, 175104, Note_on_c, 7, 62, 98
8, 175104, Note_on_c, 7, 64, 98
8, 175104, Note_on_c, 7, 65, 98
8, 175105, Note_off_c, 7, 69, 0
8, 175105, Note_off_c, 7, 70, 0
8, 175105, Note_off_c, 7, 74, 0
8, 175105, Note_off_c, 7, 77, 0
8, 175184, Note_off_c, 7, 60, 0
8, 175184, Note_off_c, 7, 62, 0
8, 175184, Note_off_c, 7, 64, 0
8, 175184, Note_off_c, 7, 65, 0
8, 175274, Note_on_c, 7, 69, 109
8, 175274, Note_on_c, 7, 70, 109
8, 175274, Note_on_c, 7, 74, 109
8, 175360, Note_on_c, 7, 60, 98
8, 175360, Note_on_c, 7, 62, 98
8, 175360, Note_on_c, 7, 64, 98
8, 175360, Note_on_c, 7, 65, 98
8, 175361, Note_off_c, 7, 69, 0
8, 175361, Note_off_c, 7, 70, 0
8, 175361, Note_off_c, 7, 74, 0
8, 175440, Note_off_c, 7, 60, 0
8, 175440, Note_off_c, 7, 62, 0
8, 175440, Note_off_c, 7, 64, 0
8, 175440, Note_off_c, 7, 65, 0
8, 175530, Note_on_c, 7, 69, 114
8, 175530, Note_on_c, 7, 70, 114
8, 175530, Note_on_c, 7, 74, 114
8, 175616, Note_on_c, 7, 60, 109
8, 175616, Note_on_c, 7, 62, 109
8, 175616, Note_on_c, 7, 64, 109
8, 175616, Note_on_c, 7, 65, 109
8, 175617, Note_off_c, 7, 69, 0
8, 175617, Note_off_c, 7, 70, 0
8, 175617, Note_off_c, 7, 74, 0
8, 175696, Note_off_c, 7, 60, 0
8, 175696, Note_off_c, 7, 62, 0
8, 175696, Note_off_c, 7, 64, 0
8, 175696, Note_off_c, 7, 65, 0
8, 175786, Note_on_c, 7, 69, 112
8, 175786, Note_on_c, 7, 70, 112
8, 175786, Note_on_c, 7, 74, 112
8, 175872, Note_on_c, 7, 60, 104
8, 175872, Note_on_c, 7, 62, 104
8, 175872, Note_on_c, 7, 64, 104
8, 175872, Note_on_c, 7, 65, 104
8, 175873, Note_off_c, 7, 69, 0
8, 175873, Note_off_c, 7, 70, 0
8, 175873, Note_off_c, 7, 74, 0
8, 175952, Note_off_c, 7, 60, 0
8, 175952, Note_off_c, 7, 62, 0
8, 175952, Note_off_c, 7, 64, 0
8, 175952, Note_off_c, 7, 65, 0
8, 176042, Note_on_c, 7, 69, 117
8, 176042, Note_on_c, 7, 70, 117
8, 176042, Note_on_c, 7, 74, 117
8, 176128, Note_off_c, 7, 69, 0
8, 176128, Note_off_c, 7, 70, 0
8, 176128, Note_off_c, 7, 74, 0
8, 176213, Note_on_c, 7, 67, 104
8, 176213, Note_on_c, 7, 70, 104
8, 176213, Note_on_c, 7, 74, 104
8, 176213, Note_on_c, 7, 77, 104
8, 176255, Note_off_c, 7, 67, 0
8, 176255, Note_off_c, 7, 70, 0
8, 176255, Note_off_c, 7, 74, 0
8, 176255, Note_off_c, 7, 77, 0
8, 176384, Note_on_c, 7, 67, 104
8, 176384, Note_on_c, 7, 70, 104
8, 176384, Note_on_c, 7, 74, 104
8, 176384, Note_on_c, 7, 77, 104
8, 176469, Note_off_c, 7, 67, 0
8, 176469, Note_off_c, 7, 70, 0
8, 176469, Note_off_c, 7, 74, 0
8, 176469, Note_off_c, 7, 77, 0
8, 176554, Note_on_c, 7, 67, 110
8, 176554, Note_on_c, 7, 70, 110
8, 176554, Note_on_c, 7, 74, 110
8, 176554, Note_on_c, 7, 77, 110
8, 176639, Note_off_c, 7, 67, 0
8, 176639, Note_off_c, 7, 70, 0
8, 176639, Note_off_c, 7, 74, 0
8, 176639, Note_off_c, 7, 77, 0
8, 176725, Note_on_c, 7, 67, 117
8, 176725, Note_on_c, 7, 70, 117
8, 176725, Note_on_c, 7, 74, 117
8, 176725, Note_on_c, 7, 77, 117
8, 176810, Note_off_c, 7, 67, 0
8, 176810, Note_off_c, 7, 70, 0
8, 176810, Note_off_c, 7, 74, 0
8, 176810, Note_off_c, 7, 77, 0
8, 176981, Note_on_c, 7, 67, 100
8, 176981, Note_on_c, 7, 70, 100
8, 176981, Note_on_c, 7, 74, 100
8, 176981, Note_on_c, 7, 77, 100
8, 177023, Note_off_c, 7, 67, 0
8, 177023, Note_off_c, 7, 70, 0
8, 177023, Note_off_c, 7, 74, 0
8, 177023, Note_off_c, 7, 77, 0
8, 177152, Note_on_c, 7, 67, 103
8, 177152, Note_on_c, 7, 70, 103
8, 177152, Note_on_c, 7, 74, 103
8, 177152, Note_on_c, 7, 77, 103
8, 177194, Note_off_c, 7, 67, 0
8, 177194, Note_off_c, 7, 70, 0
8, 177194, Note_off_c, 7, 74, 0
8, 177194, Note_off_c, 7, 77, 0
8, 177322, Note_on_c, 7, 67, 98
8, 177322, Note_on_c, 7, 70, 98
8, 177322, Note_on_c, 7, 74, 98
8, 177322, Note_on_c, 7, 77, 98
8, 177365, Note_off_c, 7, 67, 0
8, 177365, Note_off_c, 7, 70, 0
8, 177365, Note_off_c, 7, 74, 0
8, 177365, Note_off_c, 7, 77, 0
8, 177408, Note_on_c, 7, 67, 109
8, 177408, Note_on_c, 7, 70, 109
8, 177408, Note_on_c, 7, 74, 109
8, 177408, Note_on_c, 7, 77, 109
8, 177493, Note_off_c, 7, 67, 0
8, 177493, Note_off_c, 7, 70, 0
8, 177493, Note_off_c, 7, 74, 0
8, 177493, Note_off_c, 7, 77, 0
8, 177578, Note_on_c, 7, 67, 113
8, 177578, Note_on_c, 7, 70, 113
8, 177578, Note_on_c, 7, 74, 113
8, 177578, Note_on_c, 7, 77, 113
8, 177663, Note_off_c, 7, 67, 0
8, 177663, Note_off_c, 7, 70, 0
8, 177663, Note_off_c, 7, 74, 0
8, 177663, Note_off_c, 7, 77, 0
8, 177749, Note_on_c, 7, 67, 114
8, 177749, Note_on_c, 7, 70, 114
8, 177749, Note_on_c, 7, 74, 114
8, 177749, Note_on_c, 7, 77, 114
8, 177834, Note_off_c, 7, 67, 0
8, 177834, Note_off_c, 7, 70, 0
8, 177834, Note_off_c, 7, 74, 0
8, 177834, Note_off_c, 7, 77, 0
8, 177920, Note_on_c, 7, 67, 113
8, 177920, Note_on_c, 7, 70, 113
8, 177920, Note_on_c, 7, 74, 113
8, 177920, Note_on_c, 7, 77, 113
8, 178005, Note_off_c, 7, 67, 0
8, 178005, Note_off_c, 7, 70, 0
8, 178005, Note_off_c, 7, 74, 0
8, 178005, Note_off_c, 7, 77, 0
8, 178090, Note_on_c, 7, 67, 111
8, 178090, Note_on_c, 7, 70, 111
8, 178090, Note_on_c, 7, 74, 111
8, 178090, Note_on_c, 7, 77, 111
8, 178175, Note_off_c, 7, 67, 0
8, 178175, Note_off_c, 7, 70, 0
8, 178175, Note_off_c, 7, 74, 0
8, 178175, Note_off_c, 7, 77, 0
8, 178261, Note_on_c, 7, 67, 115
8, 178261, Note_on_c, 7, 70, 115
8, 178261, Note_on_c, 7, 74, 115
8, 178261, Note_on_c, 7, 77, 115
8, 178346, Note_off_c, 7, 67, 0
8, 178346, Note_off_c, 7, 70, 0
8, 178346, Note_off_c, 7, 74, 0
8, 178346, Note_off_c, 7, 77, 0
8, 178432, Note_on_c, 7, 67, 111
8, 178432, Note_on_c, 7, 70, 111
8, 178432, Note_on_c, 7, 74, 111
8, 178432, Note_on_c, 7, 77, 111
8, 178517, Note_off_c, 7, 67, 0
8, 178517, Note_off_c, 7, 70, 0
8, 178517, Note_off_c, 7, 74, 0
8, 178517, Note_off_c, 7, 77, 0
8, 178602, Note_on_c, 7, 67, 115
8, 178602, Note_on_c, 7, 70, 115
8, 178602, Note_on_c, 7, 74, 115
8, 178602, Note_on_c, 7, 77, 115
8, 178687, Note_off_c, 7, 67, 0
8, 178687, Note_off_c, 7, 70, 0
8, 178687, Note_off_c, 7, 74, 0
8, 178687, Note_off_c, 7, 77, 0
8, 178773, Note_on_c, 7, 67, 114
8, 178773, Note_on_c, 7, 70, 114
8, 178773, Note_on_c, 7, 74, 114
8, 178773, Note_on_c, 7, 77, 114
8, 178858, Note_off_c, 7, 67, 0
8, 178858, Note_off_c, 7, 70, 0
8, 178858, Note_off_c, 7, 74, 0
8, 178858, Note_off_c, 7, 77, 0
8, 178944, Note_on_c, 7, 67, 112
8, 178944, Note_on_c, 7, 70, 112
8, 178944, Note_on_c, 7, 74, 112
8, 178944, Note_on_c, 7, 77, 112
8, 178986, Note_off_c, 7, 67, 0
8, 178986, Note_off_c, 7, 70, 0
8, 178986, Note_off_c, 7, 74, 0
8, 178986, Note_off_c, 7, 77, 0
8, 179114, Note_on_c, 7, 67, 105
8, 179114, Note_on_c, 7, 70, 105
8, 179114, Note_on_c, 7, 74, 105
8, 179114, Note_on_c, 7, 77, 105
8, 179157, Note_off_c, 7, 67, 0
8, 179157, Note_off_c, 7, 70, 0
8, 179157, Note_off_c, 7, 74, 0
8, 179157, Note_off_c, 7, 77, 0
8, 179200, Note_on_c, 7, 67, 112
8, 179200, Note_on_c, 7, 70, 112
8, 179200, Note_on_c, 7, 74, 112
8, 179200, Note_on_c, 7, 77, 112
8, 179285, Note_off_c, 7, 67, 0
8, 179285, Note_off_c, 7, 70, 0
8, 179285, Note_off_c, 7, 74, 0
8, 179285, Note_off_c, 7, 77, 0
8, 179370, Note_on_c, 7, 67, 111
8, 179370, Note_on_c, 7, 70, 111
8, 179370, Note_on_c, 7, 74, 111
8, 179370, Note_on_c, 7, 77, 111
8, 179455, Note_off_c, 7, 67, 0
8, 179455, Note_off_c, 7, 70, 0
8, 179455, Note_off_c, 7, 74, 0
8, 179455, Note_off_c, 7, 77, 0
8, 179541, Note_on_c, 7, 67, 110
8, 179541, Note_on_c, 7, 70, 110
8, 179541, Note_on_c, 7, 74, 110
8, 179541, Note_on_c, 7, 77, 110
8, 179626, Note_off_c, 7, 67, 0
8, 179626, Note_off_c, 7, 70, 0
8, 179626, Note_off_c, 7, 74, 0
8, 179626, Note_off_c, 7, 77, 0
8, 179712, Note_on_c, 7, 67, 118
8, 179712, Note_on_c, 7, 70, 118
8, 179712, Note_on_c, 7, 74, 118
8, 179712, Note_on_c, 7, 77, 118
8, 179797, Note_off_c, 7, 67, 0
8, 179797, Note_off_c, 7, 70, 0
8, 179797, Note_off_c, 7, 74, 0
8, 179797, Note_off_c, 7, 77, 0
8, 179882, Note_on_c, 7, 67, 116
8, 179882, Note_on_c, 7, 70, 116
8, 179882, Note_on_c, 7, 74, 116
8, 179882, Note_on_c, 7, 77, 116
8, 179967, Note_off_c, 7, 67, 0
8, 179967, Note_off_c, 7, 70, 0
8, 179967, Note_off_c, 7, 74, 0
8, 179967, Note_off_c, 7, 77, 0
8, 180053, Note_on_c, 7, 67, 112
8, 180053, Note_on_c, 7, 70, 112
8, 180053, Note_on_c, 7, 74, 112
8, 180053, Note_on_c, 7, 77, 112
8, 180138, Note_off_c, 7, 67, 0
8, 180138, Note_off_c, 7, 70, 0
8, 180138, Note_off_c, 7, 74, 0
8, 180138, Note_off_c, 7, 77, 0
8, 180224, Note_on_c, 7, 67, 115
8, 180224, Note_on_c, 7, 70, 115
8, 180224, Note_on_c, 7, 74, 115
8, 180224, Note_on_c, 7, 77, 115
8, 180309, Note_off_c, 7, 67, 0
8, 180309, Note_off_c, 7, 70, 0
8, 180309, Note_off_c, 7, 74, 0
8, 180309, Note_off_c, 7, 77, 0
8, 180394, Note_on_c, 7, 67, 114
8, 180394, Note_on_c, 7, 71, 114
8, 180394, Note_on_c, 7, 74, 114
8, 180394, Note_on_c, 7, 77, 114
8, 180479, Note_off_c, 7, 67, 0
8, 180479, Note_off_c, 7, 71, 0
8, 180479, Note_off_c, 7, 74, 0
8, 180479, Note_off_c, 7, 77, 0
8, 180565, Note_on_c, 7, 67, 113
8, 180565, Note_on_c, 7, 71, 113
8, 180565, Note_on_c, 7, 74, 113
8, 180565, Note_on_c, 7, 77, 113
8, 180650, Note_off_c, 7, 67, 0
8, 180650, Note_off_c, 7, 71, 0
8, 180650, Note_off_c, 7, 74, 0
8, 180650, Note_off_c, 7, 77, 0
8, 180736, Note_on_c, 7, 67, 115
8, 180736, Note_on_c, 7, 71, 115
8, 180736, Note_on_c, 7, 74, 115
8, 180736, Note_on_c, 7, 77, 115
8, 180821, Note_off_c, 7, 67, 0
8, 180821, Note_off_c, 7, 71, 0
8, 180821, Note_off_c, 7, 74, 0
8, 180821, Note_off_c, 7, 77, 0
8, 180906, Note_on_c, 7, 67, 115
8, 180906, Note_on_c, 7, 71, 115
8, 180906, Note_on_c, 7, 74, 115
8, 180906, Note_on_c, 7, 77, 115
8, 180991, Note_off_c, 7, 67, 0
8, 180991, Note_off_c, 7, 71, 0
8, 180991, Note_off_c, 7, 74, 0
8, 180991, Note_off_c, 7, 77, 0
8, 181077, Note_on_c, 7, 67, 113
8, 181077, Note_on_c, 7, 71, 113
8, 181077, Note_on_c, 7, 74, 113
8, 181077, Note_on_c, 7, 77, 113
8, 181162, Note_off_c, 7, 67, 0
8, 181162, Note_off_c, 7, 71, 0
8, 181162, Note_off_c, 7, 74, 0
8, 181162, Note_off_c, 7, 77, 0
8, 181248, Note_on_c, 7, 67, 110
8, 181248, Note_on_c, 7, 71, 110
8, 181248, Note_on_c, 7, 74, 110
8, 181248, Note_on_c, 7, 77, 110
8, 181333, Note_off_c, 7, 67, 0
8, 181333, Note_off_c, 7, 71, 0
8, 181333, Note_off_c, 7, 74, 0
8, 181333, Note_off_c, 7, 77, 0
8, 181418, Note_on_c, 7, 67, 111
8, 181418, Note_on_c, 7, 71, 111
8, 181418, Note_on_c, 7, 74, 111
8, 181418, Note_on_c, 7, 77, 111
8, 181503, Note_off_c, 7, 67, 0
8, 181503, Note_off_c, 7, 71, 0
8, 181503, Note_off_c, 7, 74, 0
8, 181503, Note_off_c, 7, 77, 0
8, 181589, Note_on_c, 7, 67, 110
8, 181589, Note_on_c, 7, 71, 110
8, 181589, Note_on_c, 7, 74, 110
8, 181589, Note_on_c, 7, 77, 110
8, 181674, Note_off_c, 7, 67, 0
8, 181674, Note_off_c, 7, 71, 0
8, 181674, Note_off_c, 7, 74, 0
8, 181674, Note_off_c, 7, 77, 0
8, 181760, Note_on_c, 7, 67, 113
8, 181760, Note_on_c, 7, 71, 113
8, 181760, Note_on_c, 7, 74, 113
8, 181760, Note_on_c, 7, 77, 113
8, 181845, Note_off_c, 7, 67, 0
8, 181845, Note_off_c, 7, 71, 0
8, 181845, Note_off_c, 7, 74, 0
8, 181845, Note_off_c, 7, 77, 0
8, 181930, Note_on_c, 7, 67, 112
8, 181930, Note_on_c, 7, 71, 112
8, 181930, Note_on_c, 7, 74, 112
8, 181930, Note_on_c, 7, 77, 112
8, 182015, Note_off_c, 7, 67, 0
8, 182015, Note_off_c, 7, 71, 0
8, 182015, Note_off_c, 7, 74, 0
8, 182015, Note_off_c, 7, 77, 0
8, 182101, Note_on_c, 7, 67, 109
8, 182101, Note_on_c, 7, 71, 109
8, 182101, Note_on_c, 7, 74, 109
8, 182101, Note_on_c, 7, 77, 109
8, 182186, Note_off_c, 7, 67, 0
8, 182186, Note_off_c, 7, 71, 0
8, 182186, Note_off_c, 7, 74, 0
8, 182186, Note_off_c, 7, 77, 0
8, 182272, Note_on_c, 7, 67, 110
8, 182272, Note_on_c, 7, 71, 110
8, 182272, Note_on_c, 7, 74, 110
8, 182272, Note_on_c, 7, 77, 110
8, 182357, Note_off_c, 7, 67, 0
8, 182357, Note_off_c, 7, 71, 0
8, 182357, Note_off_c, 7, 74, 0
8, 182357, Note_off_c, 7, 77, 0
8, 182442, Note_on_c, 7, 67, 117
8, 182442, Note_on_c, 7, 71, 117
8, 182442, Note_on_c, 7, 74, 117
8, 182442, Note_on_c, 7, 77, 117
8, 182527, Note_off_c, 7, 67, 0
8, 182527, Note_off_c, 7, 71, 0
8, 182527, Note_off_c, 7, 74, 0
8, 182527, Note_off_c, 7, 77, 0
8, 182613, Note_on_c, 7, 67, 113
8, 182613, Note_on_c, 7, 71, 113
8, 182613, Note_on_c, 7, 74, 113
8, 182613, Note_on_c, 7, 77, 113
8, 182698, Note_off_c, 7, 67, 0
8, 182698, Note_off_c, 7, 71, 0
8, 182698, Note_off_c, 7, 74, 0
8, 182698, Note_off_c, 7, 77, 0
8, 182784, Note_on_c, 7, 67, 109
8, 182784, Note_on_c, 7, 71, 109
8, 182784, Note_on_c, 7, 74, 109
8, 182784, Note_on_c, 7, 77, 109
8, 182869, Note_off_c, 7, 67, 0
8, 182869, Note_off_c, 7, 71, 0
8, 182869, Note_off_c, 7, 74, 0
8, 182869, Note_off_c, 7, 77, 0
8, 182954, Note_on_c, 7, 67, 115
8, 182954, Note_on_c, 7, 71, 115
8, 182954, Note_on_c, 7, 74, 115
8, 182954, Note_on_c, 7, 77, 115
8, 183039, Note_off_c, 7, 67, 0
8, 183039, Note_off_c, 7, 71, 0
8, 183039, Note_off_c, 7, 74, 0
8, 183039, Note_off_c, 7, 77, 0
8, 183125, Note_on_c, 7, 71, 120
8, 183125, Note_on_c, 7, 74, 120
8, 183125, Note_on_c, 7, 77, 120
8, 183125, Note_on_c, 7, 79, 120
8, 183210, Note_off_c, 7, 71, 0
8, 183210, Note_off_c, 7, 74, 0
8, 183210, Note_off_c, 7, 77, 0
8, 183210, Note_off_c, 7, 79, 0
8, 183296, Note_on_c, 7, 71, 113
8, 183296, Note_on_c, 7, 74, 113
8, 183296, Note_on_c, 7, 77, 113
8, 183296, Note_on_c, 7, 79, 113
8, 183360, Note_off_c, 7, 71, 0
8, 183360, Note_off_c, 7, 74, 0
8, 183360, Note_off_c, 7, 77, 0
8, 183360, Note_off_c, 7, 79, 0
8, 183552, Note_on_c, 7, 71, 107
8, 183552, Note_on_c, 7, 74, 107
8, 183552, Note_on_c, 7, 77, 107
8, 183552, Note_on_c, 7, 79, 107
8, 183616, Note_off_c, 7, 71, 0
8, 183616, Note_off_c, 7, 74, 0
8, 183616, Note_off_c, 7, 77, 0
8, 183616, Note_off_c, 7, 79, 0
8, 183808, Note_on_c, 7, 71, 107
8, 183808, Note_on_c, 7, 74, 107
8, 183808, Note_on_c, 7, 77, 107
8, 183808, Note_on_c, 7, 79, 107
8, 183872, Note_off_c, 7, 71, 0
8, 183872, Note_off_c, 7, 74, 0
8, 183872, Note_off_c, 7, 77, 0
8, 183872, Note_off_c, 7, 79, 0
8, 184064, Note_on_c, 7, 71, 107
8, 184064, Note_on_c, 7, 74, 107
8, 184064, Note_on_c, 7, 77, 107
8, 184064, Note_on_c, 7, 79, 107
8, 184128, Note_off_c, 7, 71, 0
8, 184128, Note_off_c, 7, 74, 0
8, 184128, Note_off_c, 7, 77, 0
8, 184128, Note_off_c, 7, 79, 0
8, 184320, Note_on_c, 7, 71, 102
8, 184320, Note_on_c, 7, 74, 102
8, 184320, Note_on_c, 7, 77, 102
8, 184320, Note_on_c, 7, 79, 102
8, 184384, Note_off_c, 7, 71, 0
8, 184384, Note_off_c, 7, 74, 0
8, 184384, Note_off_c, 7, 77, 0
8, 184384, Note_off_c, 7, 79, 0
8, 184576, Note_on_c, 7, 71, 112
8, 184576, Note_on_c, 7, 74, 112
8, 184576, Note_on_c, 7, 77, 112
8, 184576, Note_on_c, 7, 79, 112
8, 184640, Note_off_c, 7, 71, 0
8, 184640, Note_off_c, 7, 74, 0
8, 184640, Note_off_c, 7, 77, 0
8, 184640, Note_off_c, 7, 79, 0
8, 184832, Note_on_c, 7, 71, 109
8, 184832, Note_on_c, 7, 74, 109
8, 184832, Note_on_c, 7, 77, 109
8, 184832, Note_on_c, 7, 79, 109
8, 184896, Note_off_c, 7, 71, 0
8, 184896, Note_off_c, 7, 74, 0
8, 184896, Note_off_c, 7, 77, 0
8, 184896, Note_off_c, 7, 79, 0
8, 185088, Note_on_c, 7, 71, 112
8, 185088, Note_on_c, 7, 74, 112
8, 185088, Note_on_c, 7, 77, 112
8, 185088, Note_on_c, 7, 79, 112
8, 185152, Note_off_c, 7, 71, 0
8, 185152, Note_off_c, 7, 74, 0
8, 185152, Note_off_c, 7, 77, 0
8, 185152, Note_off_c, 7, 79, 0
8, 185344, Note_on_c, 7, 71, 110
8, 185344, Note_on_c, 7, 74, 110
8, 185344, Note_on_c, 7, 77, 110
8, 185344, Note_on_c, 7, 79, 110
8, 185408, Note_off_c, 7, 71, 0
8, 185408, Note_off_c, 7, 74, 0
8, 185408, Note_off_c, 7, 77, 0
8, 185408, Note_off_c, 7, 79, 0
8, 185600, Note_on_c, 7, 71, 112
8, 185600, Note_on_c, 7, 74, 112
8, 185600, Note_on_c, 7, 77, 112
8, 185600, Note_on_c, 7, 79, 112
8, 185664, Note_off_c, 7, 71, 0
8, 185664, Note_off_c, 7, 74, 0
8, 185664, Note_off_c, 7, 77, 0
8, 185664, Note_off_c, 7, 79, 0
8, 185856, Note_on_c, 7, 71, 109
8, 185856, Note_on_c, 7, 74, 109
8, 185856, Note_on_c, 7, 77, 109
8, 185856, Note_on_c, 7, 79, 109
8, 185920, Note_off_c, 7, 71, 0
8, 185920, Note_off_c, 7, 74, 0
8, 185920, Note_off_c, 7, 77, 0
8, 185920, Note_off_c, 7, 79, 0
8, 186112, Note_on_c, 7, 71, 115
8, 186112, Note_on_c, 7, 74, 115
8, 186112, Note_on_c, 7, 77, 115
8, 186112, Note_on_c, 7, 79, 115
8, 186176, Note_off_c, 7, 71, 0
8, 186176, Note_off_c, 7, 74, 0
8, 186176, Note_off_c, 7, 77, 0
8, 186176, Note_off_c, 7, 79, 0
8, 218752, Note_on_c, 7, 72, 91
8, 218752, Note_on_c, 7, 74, 91
8, 218752, Note_on_c, 7, 78, 91
8, 218752, Note_on_c, 7, 81, 91
8, 218816, Note_off_c, 7, 72, 0
8, 218816, Note_off_c, 7, 74, 0
8, 218816, Note_off_c, 7, 78, 0
8, 218816, Note_off_c, 7, 81, 0
8, 218880, Note_on_c, 7, 72, 98
8, 218880, Note_on_c, 7, 74, 98
8, 218880, Note_on_c, 7, 78, 98
8, 218880, Note_on_c, 7, 81, 98
8, 218944, Note_off_c, 7, 72, 0
8, 218944, Note_off_c, 7, 74, 0
8, 218944, Note_off_c, 7, 78, 0
8, 218944, Note_off_c, 7, 81, 0
8, 219008, Note_on_c, 7, 72, 99
8, 219008, Note_on_c, 7, 74, 99
8, 219008, Note_on_c, 7, 78, 99
8, 219008, Note_on_c, 7, 81, 99
8, 219072, Note_off_c, 7, 72, 0
8, 219072, Note_off_c, 7, 74, 0
8, 219072, Note_off_c, 7, 78, 0
8, 219072, Note_off_c, 7, 81, 0
8, 219136, Note_on_c, 7, 72, 104
8, 219136, Note_on_c, 7, 74, 104
8, 219136, Note_on_c, 7, 78, 104
8, 219136, Note_on_c, 7, 81, 104
8, 219200, Note_off_c, 7, 72, 0
8, 219200, Note_off_c, 7, 74, 0
8, 219200, Note_off_c, 7, 78, 0
8, 219200, Note_off_c, 7, 81, 0
8, 219264, Note_on_c, 7, 72, 98
8, 219264, Note_on_c, 7, 74, 98
8, 219264, Note_on_c, 7, 78, 98
8, 219264, Note_on_c, 7, 81, 98
8, 219328, Note_off_c, 7, 72, 0
8, 219328, Note_off_c, 7, 74, 0
8, 219328, Note_off_c, 7, 78, 0
8, 219328, Note_off_c, 7, 81, 0
8, 219392, Note_on_c, 7, 72, 99
8, 219392, Note_on_c, 7, 74, 99
8, 219392, Note_on_c, 7, 78, 99
8, 219392, Note_on_c, 7, 81, 99
8, 219456, Note_off_c, 7, 72, 0
8, 219456, Note_off_c, 7, 74, 0
8, 219456, Note_off_c, 7, 78, 0
8, 219456, Note_off_c, 7, 81, 0
8, 219520, Note_on_c, 7, 72, 97
8, 219520, Note_on_c, 7, 74, 97
8, 219520, Note_on_c, 7, 78, 97
8, 219520, Note_on_c, 7, 81, 97
8, 219584, Note_off_c, 7, 72, 0
8, 219584, Note_off_c, 7, 74, 0
8, 219584, Note_off_c, 7, 78, 0
8, 219584, Note_off_c, 7, 81, 0
8, 219648, Note_on_c, 7, 72, 95
8, 219648, Note_on_c, 7, 74, 95
8, 219648, Note_on_c, 7, 78, 95
8, 219648, Note_on_c, 7, 81, 95
8, 219712, Note_off_c, 7, 72, 0
8, 219712, Note_off_c, 7, 74, 0
8, 219712, Note_off_c, 7, 78, 0
8, 219712, Note_off_c, 7, 81, 0
8, 219776, Note_on_c, 7, 72, 96
8, 219776, Note_on_c, 7, 74, 96
8, 219776, Note_on_c, 7, 78, 96
8, 219776, Note_on_c, 7, 81, 96
8, 219840, Note_off_c, 7, 72, 0
8, 219840, Note_off_c, 7, 74, 0
8, 219840, Note_off_c, 7, 78, 0
8, 219840, Note_off_c, 7, 81, 0
8, 219904, Note_on_c, 7, 72, 94
8, 219904, Note_on_c, 7, 74, 94
8, 219904, Note_on_c, 7, 78, 94
8, 219904, Note_on_c, 7, 81, 94
8, 219968, Note_off_c, 7, 72, 0
8, 219968, Note_off_c, 7, 74, 0
8, 219968, Note_off_c, 7, 78, 0
8, 219968, Note_off_c, 7, 81, 0
8, 220032, Note_on_c, 7, 72, 101
8, 220032, Note_on_c, 7, 74, 101
8, 220032, Note_on_c, 7, 78, 101
8, 220032, Note_on_c, 7, 81, 101
8, 220096, Note_off_c, 7, 72, 0
8, 220096, Note_off_c, 7, 74, 0
8, 220096, Note_off_c, 7, 78, 0
8, 220096, Note_off_c, 7, 81, 0
8, 220160, Note_on_c, 7, 72, 102
8, 220160, Note_on_c, 7, 74, 102
8, 220160, Note_on_c, 7, 78, 102
8, 220160, Note_on_c, 7, 81, 102
8, 220224, Note_off_c, 7, 72, 0
8, 220224, Note_off_c, 7, 74, 0
8, 220224, Note_off_c, 7, 78, 0
8, 220224, Note_off_c, 7, 81, 0
8, 220288, Note_on_c, 7, 72, 99
8, 220288, Note_on_c, 7, 74, 99
8, 220288, Note_on_c, 7, 78, 99
8, 220288, Note_on_c, 7, 81, 99
8, 220352, Note_off_c, 7, 72, 0
8, 220352, Note_off_c, 7, 74, 0
8, 220352, Note_off_c, 7, 78, 0
8, 220352, Note_off_c, 7, 81, 0
8, 220416, Note_on_c, 7, 72, 97
8, 220416, Note_on_c, 7, 74, 97
8, 220416, Note_on_c, 7, 78, 97
8, 220416, Note_on_c, 7, 81, 97
8, 220480, Note_off_c, 7, 72, 0
8, 220480, Note_off_c, 7, 74, 0
8, 220480, Note_off_c, 7, 78, 0
8, 220480, Note_off_c, 7, 81, 0
8, 220544, Note_on_c, 7, 72, 95
8, 220544, Note_on_c, 7, 74, 95
8, 220544, Note_on_c, 7, 78, 95
8, 220544, Note_on_c, 7, 81, 95
8, 220608, Note_off_c, 7, 72, 0
8, 220608, Note_off_c, 7, 74, 0
8, 220608, Note_off_c, 7, 78, 0
8, 220608, Note_off_c, 7, 81, 0
8, 220672, Note_on_c, 7, 72, 98
8, 220672, Note_on_c, 7, 74, 98
8, 220672, Note_on_c, 7, 78, 98
8, 220672, Note_on_c, 7, 81, 98
8, 220736, Note_off_c, 7, 72, 0
8, 220736, Note_off_c, 7, 74, 0
8, 220736, Note_off_c, 7, 78, 0
8, 220736, Note_off_c, 7, 81, 0
8, 220800, Note_on_c, 7, 72, 94
8, 220800, Note_on_c, 7, 74, 94
8, 220800, Note_on_c, 7, 78, 94
8, 220800, Note_on_c, 7, 81, 94
8, 220864, Note_off_c, 7, 72, 0
8, 220864, Note_off_c, 7, 74, 0
8, 220864, Note_off_c, 7, 78, 0
8, 220864, Note_off_c, 7, 81, 0
8, 220928, Note_on_c, 7, 72, 96
8, 220928, Note_on_c, 7, 74, 96
8, 220928, Note_on_c, 7, 78, 96
8, 220928, Note_on_c, 7, 81, 96
8, 220992, Note_off_c, 7, 72, 0
8, 220992, Note_off_c, 7, 74, 0
8, 220992, Note_off_c, 7, 78, 0
8, 220992, Note_off_c, 7, 81, 0
8, 221056, Note_on_c, 7, 72, 92
8, 221056, Note_on_c, 7, 74, 92
8, 221056, Note_on_c, 7, 78, 92
8, 221056, Note_on_c, 7, 81, 92
8, 221120, Note_off_c, 7, 72, 0
8, 221120, Note_off_c, 7, 74, 0
8, 221120, Note_off_c, 7, 78, 0
8, 221120, Note_off_c, 7, 81, 0
8, 221184, Note_on_c, 7, 72, 99
8, 221184, Note_on_c, 7, 74, 99
8, 221184, Note_on_c, 7, 78, 99
8, 221184, Note_on_c, 7, 81, 99
8, 221248, Note_off_c, 7, 72, 0
8, 221248, Note_off_c, 7, 74, 0
8, 221248, Note_off_c, 7, 78, 0
8, 221248, Note_off_c, 7, 81, 0
8, 221312, Note_on_c, 7, 72, 96
8, 221312, Note_on_c, 7, 74, 96
8, 221312, Note_on_c, 7, 78, 96
8, 221312, Note_on_c, 7, 81, 96
8, 221376, Note_off_c, 7, 72, 0
8, 221376, Note_off_c, 7, 74, 0
8, 221376, Note_off_c, 7, 78, 0
8, 221376, Note_off_c, 7, 81, 0
8, 221440, Note_on_c, 7, 72, 100
8, 221440, Note_on_c, 7, 74, 100
8, 221440, Note_on_c, 7, 78, 100
8, 221440, Note_on_c, 7, 81, 100
8, 221504, Note_off_c, 7, 72, 0
8, 221504, Note_off_c, 7, 74, 0
8, 221504, Note_off_c, 7, 78, 0
8, 221504, Note_off_c, 7, 81, 0
8, 221568, Note_on_c, 7, 72, 99
8, 221568, Note_on_c, 7, 74, 99
8, 221568, Note_on_c, 7, 78, 99
8, 221568, Note_on_c, 7, 81, 99
8, 221632, Note_off_c, 7, 72, 0
8, 221632, Note_off_c, 7, 74, 0
8, 221632, Note_off_c, 7, 78, 0
8, 221632, Note_off_c, 7, 81, 0
8, 221696, Note_on_c, 7, 72, 92
8, 221696, Note_on_c, 7, 74, 92
8, 221696, Note_on_c, 7, 78, 92
8, 221696, Note_on_c, 7, 81, 92
8, 221760, Note_off_c, 7, 72, 0
8, 221760, Note_off_c, 7, 74, 0
8, 221760, Note_off_c, 7, 78, 0
8, 221760, Note_off_c, 7, 81, 0
8, 221824, Note_on_c, 7, 72, 99
8, 221824, Note_on_c, 7, 74, 99
8, 221824, Note_on_c, 7, 78, 99
8, 221824, Note_on_c, 7, 81, 99
8, 221888, Note_off_c, 7, 72, 0
8, 221888, Note_off_c, 7, 74, 0
8, 221888, Note_off_c, 7, 78, 0
8, 221888, Note_off_c, 7, 81, 0
8, 221952, Note_on_c, 7, 72, 100
8, 221952, Note_on_c, 7, 74, 100
8, 221952, Note_on_c, 7, 78, 100
8, 221952, Note_on_c, 7, 81, 100
8, 222016, Note_off_c, 7, 72, 0
8, 222016, Note_off_c, 7, 74, 0
8, 222016, Note_off_c, 7, 78, 0
8, 222016, Note_off_c, 7, 81, 0
8, 222080, Note_on_c, 7, 72, 97
8, 222080, Note_on_c, 7, 74, 97
8, 222080, Note_on_c, 7, 78, 97
8, 222080, Note_on_c, 7, 81, 97
8, 222144, Note_off_c, 7, 72, 0
8, 222144, Note_off_c, 7, 74, 0
8, 222144, Note_off_c, 7, 78, 0
8, 222144, Note_off_c, 7, 81, 0
8, 222336, Note_on_c, 7, 72, 127
8, 222336, Note_on_c, 7, 74, 127
8, 222336, Note_on_c, 7, 78, 127
8, 222336, Note_on_c, 7, 81, 127
8, 222400, Note_off_c, 7, 72, 0
8, 222400, Note_off_c, 7, 74, 0
8, 222400, Note_off_c, 7, 78, 0
8, 222400, Note_off_c, 7, 81, 0
8, 222464, Note_on_c, 7, 72, 102
8, 222464, Note_on_c, 7, 74, 102
8, 222464, Note_on_c, 7, 78, 102
8, 222464, Note_on_c, 7, 81, 102
8, 222528, Note_off_c, 7, 72, 0
8, 222528, Note_off_c, 7, 74, 0
8, 222528, Note_off_c, 7, 78, 0
8, 222528, Note_off_c, 7, 81, 0
8, 222592, Note_on_c, 7, 72, 127
8, 222592, Note_on_c, 7, 74, 127
8, 222592, Note_on_c, 7, 78, 127
8, 222592, Note_on_c, 7, 81, 127
8, 222656, Note_off_c, 7, 72, 0
8, 222656, Note_off_c, 7, 74, 0
8, 222656, Note_off_c, 7, 78, 0
8, 222656, Note_off_c, 7, 81, 0
8, 222720, Note_on_c, 7, 72, 97
8, 222720, Note_on_c, 7, 74, 97
8, 222720, Note_on_c, 7, 78, 97
8, 222720, Note_on_c, 7, 81, 97
8, 222784, Note_off_c, 7, 72, 0
8, 222784, Note_off_c, 7, 74, 0
8, 222784, Note_off_c, 7, 78, 0
8, 222784, Note_off_c, 7, 81, 0
8, 222848, Note_on_c, 7, 72, 100
8, 222848, Note_on_c, 7, 74, 100
8, 222848, Note_on_c, 7, 78, 100
8, 222848, Note_on_c, 7, 81, 100
8, 222912, Note_off_c, 7, 72, 0
8, 222912, Note_off_c, 7, 74, 0
8, 222912, Note_off_c, 7, 78, 0
8, 222912, Note_off_c, 7, 81, 0
8, 222976, Note_on_c, 7, 72, 100
8, 222976, Note_on_c, 7, 74, 100
8, 222976, Note_on_c, 7, 78, 100
8, 222976, Note_on_c, 7, 81, 100
8, 223040, Note_off_c, 7, 72, 0
8, 223040, Note_off_c, 7, 74, 0
8, 223040, Note_off_c, 7, 78, 0
8, 223040, Note_off_c, 7, 81, 0
8, 223104, Note_on_c, 7, 72, 91
8, 223104, Note_on_c, 7, 74, 91
8, 223104, Note_on_c, 7, 78, 91
8, 223104, Note_on_c, 7, 81, 91
8, 223168, Note_off_c, 7, 72, 0
8, 223168, Note_off_c, 7, 74, 0
8, 223168, Note_off_c, 7, 78, 0
8, 223168, Note_off_c, 7, 81, 0
8, 223360, Note_on_c, 7, 72, 127
8, 223360, Note_on_c, 7, 74, 127
8, 223360, Note_on_c, 7, 78, 127
8, 223360, Note_on_c, 7, 81, 127
8, 223424, Note_off_c, 7, 72, 0
8, 223424, Note_off_c, 7, 74, 0
8, 223424, Note_off_c, 7, 78, 0
8, 223424, Note_off_c, 7, 81, 0
8, 223488, Note_on_c, 7, 72, 96
8, 223488, Note_on_c, 7, 74, 96
8, 223488, Note_on_c, 7, 78, 96
8, 223488, Note_on_c, 7, 81, 96
8, 223552, Note_off_c, 7, 72, 0
8, 223552, Note_off_c, 7, 74, 0
8, 223552, Note_off_c, 7, 78, 0
8, 223552, Note_off_c, 7, 81, 0
8, 223616, Note_on_c, 7, 72, 127
8, 223616, Note_on_c, 7, 74, 127
8, 223616, Note_on_c, 7, 78, 127
8, 223616, Note_on_c, 7, 81, 127
8, 223680, Note_off_c, 7, 72, 0
8, 223680, Note_off_c, 7, 74, 0
8, 223680, Note_off_c, 7, 78, 0
8, 223680, Note_off_c, 7, 81, 0
8, 223744, Note_on_c, 7, 72, 97
8, 223744, Note_on_c, 7, 74, 97
8, 223744, Note_on_c, 7, 78, 97
8, 223744, Note_on_c, 7, 81, 97
8, 223808, Note_off_c, 7, 72, 0
8, 223808, Note_off_c, 7, 74, 0
8, 223808, Note_off_c, 7, 78, 0
8, 223808, Note_off_c, 7, 81, 0
8, 223872, Note_on_c, 7, 72, 95
8, 223872, Note_on_c, 7, 74, 95
8, 223872, Note_on_c, 7, 78, 95
8, 223872, Note_on_c, 7, 81, 95
8, 223936, Note_off_c, 7, 72, 0
8, 223936, Note_off_c, 7, 74, 0
8, 223936, Note_off_c, 7, 78, 0
8, 223936, Note_off_c, 7, 81, 0
8, 224000, Note_on_c, 7, 72, 101
8, 224000, Note_on_c, 7, 74, 101
8, 224000, Note_on_c, 7, 78, 101
8, 224000, Note_on_c, 7, 81, 101
8, 224064, Note_off_c, 7, 72, 0
8, 224064, Note_off_c, 7, 74, 0
8, 224064, Note_off_c, 7, 78, 0
8, 224064, Note_off_c, 7, 81, 0
8, 224128, Note_on_c, 7, 72, 99
8, 224128, Note_on_c, 7, 74, 99
8, 224128, Note_on_c, 7, 78, 99
8, 224128, Note_on_c, 7, 81, 99
8, 224192, Note_off_c, 7, 72, 0
8, 224192, Note_off_c, 7, 74, 0
8, 224192, Note_off_c, 7, 78, 0
8, 224192, Note_off_c, 7, 81, 0
8, 224384, Note_on_c, 7, 72, 90
8, 224384, Note_on_c, 7, 74, 90
8, 224384, Note_on_c, 7, 78, 90
8, 224384, Note_on_c, 7, 81, 90
8, 224448, Note_off_c, 7, 72, 0
8, 224448, Note_off_c, 7, 74, 0
8, 224448, Note_off_c, 7, 78, 0
8, 224448, Note_off_c, 7, 81, 0
8, 224512, Note_on_c, 7, 72, 127
8, 224512, Note_on_c, 7, 74, 127
8, 224512, Note_on_c, 7, 78, 127
8, 224512, Note_on_c, 7, 81, 127
8, 224576, Note_off_c, 7, 72, 0
8, 224576, Note_off_c, 7, 74, 0
8, 224576, Note_off_c, 7, 78, 0
8, 224576, Note_off_c, 7, 81, 0
8, 224768, Note_on_c, 7, 72, 87
8, 224768, Note_on_c, 7, 74, 87
8, 224768, Note_on_c, 7, 78, 87
8, 224768, Note_on_c, 7, 81, 87
8, 224832, Note_off_c, 7, 72, 0
8, 224832, Note_off_c, 7, 74, 0
8, 224832, Note_off_c, 7, 78, 0
8, 224832, Note_off_c, 7, 81, 0
8, 224896, Note_on_c, 7, 72, 127
8, 224896, Note_on_c, 7, 74, 127
8, 224896, Note_on_c, 7, 78, 127
8, 224896, Note_on_c, 7, 81, 127
8, 224960, Note_off_c, 7, 72, 0
8, 224960, Note_off_c, 7, 74, 0
8, 224960, Note_off_c, 7, 78, 0
8, 224960, Note_off_c, 7, 81, 0
8, 225152, Note_on_c, 7, 72, 85
8, 225152, Note_on_c, 7, 74, 85
8, 225152, Note_on_c, 7, 78, 85
8, 225152, Note_on_c, 7, 81, 85
8, 225216, Note_off_c, 7, 72, 0
8, 225216, Note_off_c, 7, 74, 0
8, 225216, Note_off_c, 7, 78, 0
8, 225216, Note_off_c, 7, 81, 0
8, 225408, Note_on_c, 7, 72, 103
8, 225408, Note_on_c, 7, 74, 103
8, 225408, Note_on_c, 7, 78, 103
8, 225408, Note_on_c, 7, 81, 103
8, 225472, Note_off_c, 7, 72, 0
8, 225472, Note_off_c, 7, 74, 0
8, 225472, Note_off_c, 7, 78, 0
8, 225472, Note_off_c, 7, 81, 0
8, 225664, Note_on_c, 7, 72, 106
8, 225664, Note_on_c, 7, 74, 106
8, 225664, Note_on_c, 7, 78, 106
8, 225664, Note_on_c, 7, 81, 106
8, 225728, Note_off_c, 7, 72, 0
8, 225728, Note_off_c, 7, 74, 0
8, 225728, Note_off_c, 7, 78, 0
8, 225728, Note_off_c, 7, 81, 0
8, 225792, Note_on_c, 7, 72, 95
8, 225792, Note_on_c, 7, 74, 95
8, 225792, Note_on_c, 7, 78, 95
8, 225792, Note_on_c, 7, 81, 95
8, 225856, Note_off_c, 7, 72, 0
8, 225856, Note_off_c, 7, 74, 0
8, 225856, Note_off_c, 7, 78, 0
8, 225856, Note_off_c, 7, 81, 0
8, 225920, Note_on_c, 7, 72, 99
8, 225920, Note_on_c, 7, 74, 99
8, 225920, Note_on_c, 7, 78, 99
8, 225920, Note_on_c, 7, 81, 99
8, 225984, Note_off_c, 7, 72, 0
8, 225984, Note_off_c, 7, 74, 0
8, 225984, Note_off_c, 7, 78, 0
8, 225984, Note_off_c, 7, 81, 0
8, 226048, Note_on_c, 7, 72, 93
8, 226048, Note_on_c, 7, 74, 93
8, 226048, Note_on_c, 7, 78, 93
8, 226048, Note_on_c, 7, 81, 93
8, 226112, Note_off_c, 7, 72, 0
8, 226112, Note_off_c, 7, 74, 0
8, 226112, Note_off_c, 7, 78, 0
8, 226112, Note_off_c, 7, 81, 0
8, 226176, Note_on_c, 7, 72, 102
8, 226176, Note_on_c, 7, 74, 102
8, 226176, Note_on_c, 7, 78, 102
8, 226176, Note_on_c, 7, 81, 102
8, 226240, Note_off_c, 7, 72, 0
8, 226240, Note_off_c, 7, 74, 0
8, 226240, Note_off_c, 7, 78, 0
8, 226240, Note_off_c, 7, 81, 0
8, 226432, Note_on_c, 7, 72, 127
8, 226432, Note_on_c, 7, 74, 127
8, 226432, Note_on_c, 7, 78, 127
8, 226432, Note_on_c, 7, 81, 127
8, 226496, Note_off_c, 7, 72, 0
8, 226496, Note_off_c, 7, 74, 0
8, 226496, Note_off_c, 7, 78, 0
8, 226496, Note_off_c, 7, 81, 0
8, 226560, Note_on_c, 7, 72, 91
8, 226560, Note_on_c, 7, 74, 91
8, 226560, Note_on_c, 7, 78, 91
8, 226560, Note_on_c, 7, 81, 91
8, 226624, Note_off_c, 7, 72, 0
8, 226624, Note_off_c, 7, 74, 0
8, 226624, Note_off_c, 7, 78, 0
8, 226624, Note_off_c, 7, 81, 0
8, 226688, Note_on_c, 7, 72, 97
8, 226688, Note_on_c, 7, 74, 97
8, 226688, Note_on_c, 7, 78, 97
8, 226688, Note_on_c, 7, 81, 97
8, 226752, Note_off_c, 7, 72, 0
8, 226752, Note_off_c, 7, 74, 0
8, 226752, Note_off_c, 7, 78, 0
8, 226752, Note_off_c, 7, 81, 0
8, 226944, Note_on_c, 7, 72, 127
8, 226944, Note_on_c, 7, 74, 127
8, 226944, Note_on_c, 7, 78, 127
8, 226944, Note_on_c, 7, 81, 127
8, 227008, Note_off_c, 7, 72, 0
8, 227008, Note_off_c, 7, 74, 0
8, 227008, Note_off_c, 7, 78, 0
8, 227008, Note_off_c, 7, 81, 0
8, 227200, Note_on_c, 7, 72, 85
8, 227200, Note_on_c, 7, 74, 85
8, 227200, Note_on_c, 7, 78, 85
8, 227200, Note_on_c, 7, 81, 85
8, 227264, Note_off_c, 7, 72, 0
8, 227264, Note_off_c, 7, 74, 0
8, 227264, Note_off_c, 7, 78, 0
8, 227264, Note_off_c, 7, 81, 0
8, 227328, Note_on_c, 7, 72, 127
8, 227328, Note_on_c, 7, 74, 127
8, 227328, Note_on_c, 7, 78, 127
8, 227328, Note_on_c, 7, 81, 127
8, 227392, Note_off_c, 7, 72, 0
8, 227392, Note_off_c, 7, 74, 0
8, 227392, Note_off_c, 7, 78, 0
8, 227392, Note_off_c, 7, 81, 0
8, 227584, Note_on_c, 7, 72, 90
8, 227584, Note_on_c, 7, 74, 90
8, 227584, Note_on_c, 7, 78, 90
8, 227584, Note_on_c, 7, 81, 90
8, 227648, Note_off_c, 7, 72, 0
8, 227648, Note_off_c, 7, 74, 0
8, 227648, Note_off_c, 7, 78, 0
8, 227648, Note_off_c, 7, 81, 0
8, 227712, Note_on_c, 7, 72, 127
8, 227712, Note_on_c, 7, 74, 127
8, 227712, Note_on_c, 7, 78, 127
8, 227712, Note_on_c, 7, 81, 127
8, 227776, Note_off_c, 7, 72, 0
8, 227776, Note_off_c, 7, 74, 0
8, 227776, Note_off_c, 7, 78, 0
8, 227776, Note_off_c, 7, 81, 0
8, 227968, Note_on_c, 7, 72, 85
8, 227968, Note_on_c, 7, 74, 85
8, 227968, Note_on_c, 7, 78, 85
8, 227968, Note_on_c, 7, 81, 85
8, 228032, Note_off_c, 7, 72, 0
8, 228032, Note_off_c, 7, 74, 0
8, 228032, Note_off_c, 7, 78, 0
8, 228032, Note_off_c, 7, 81, 0
8, 228096, Note_on_c, 7, 72, 127
8, 228096, Note_on_c, 7, 74, 127
8, 228096, Note_on_c, 7, 78, 127
8, 228096, Note_on_c, 7, 81, 127
8, 228160, Note_off_c, 7, 72, 0
8, 228160, Note_off_c, 7, 74, 0
8, 228160, Note_off_c, 7, 78, 0
8, 228160, Note_off_c, 7, 81, 0
8, 228352, Note_on_c, 7, 72, 127
8, 228352, Note_on_c, 7, 74, 127
8, 228352, Note_on_c, 7, 78, 127
8, 228352, Note_on_c, 7, 81, 127
8, 228416, Note_off_c, 7, 72, 0
8, 228416, Note_off_c, 7, 74, 0
8, 228416, Note_off_c, 7, 78, 0
8, 228416, Note_off_c, 7, 81, 0
8, 228480, Note_on_c, 7, 72, 98
8, 228480, Note_on_c, 7, 74, 98
8, 228480, Note_on_c, 7, 78, 98
8, 228480, Note_on_c, 7, 81, 98
8, 228544, Note_off_c, 7, 72, 0
8, 228544, Note_off_c, 7, 74, 0
8, 228544, Note_off_c, 7, 78, 0
8, 228544, Note_off_c, 7, 81, 0
8, 228736, Note_on_c, 7, 72, 88
8, 228736, Note_on_c, 7, 74, 88
8, 228736, Note_on_c, 7, 78, 88
8, 228736, Note_on_c, 7, 81, 88
8, 228800, Note_off_c, 7, 72, 0
8, 228800, Note_off_c, 7, 74, 0
8, 228800, Note_off_c, 7, 78, 0
8, 228800, Note_off_c, 7, 81, 0
8, 228864, Note_on_c, 7, 72, 127
8, 228864, Note_on_c, 7, 74, 127
8, 228864, Note_on_c, 7, 78, 127
8, 228864, Note_on_c, 7, 81, 127
8, 228928, Note_off_c, 7, 72, 0
8, 228928, Note_off_c, 7, 74, 0
8, 228928, Note_off_c, 7, 78, 0
8, 228928, Note_off_c, 7, 81, 0
8, 229120, Note_on_c, 7, 72, 127
8, 229120, Note_on_c, 7, 74, 127
8, 229120, Note_on_c, 7, 78, 127
8, 229120, Note_on_c, 7, 81, 127
8, 229184, Note_off_c, 7, 72, 0
8, 229184, Note_off_c, 7, 74, 0
8, 229184, Note_off_c, 7, 78, 0
8, 229184, Note_off_c, 7, 81, 0
8, 229248, Note_on_c, 7, 72, 98
8, 229248, Note_on_c, 7, 74, 98
8, 229248, Note_on_c, 7, 78, 98
8, 229248, Note_on_c, 7, 81, 98
8, 229312, Note_off_c, 7, 72, 0
8, 229312, Note_off_c, 7, 74, 0
8, 229312, Note_off_c, 7, 78, 0
8, 229312, Note_off_c, 7, 81, 0
8, 229504, Note_on_c, 7, 72, 86
8, 229504, Note_on_c, 7, 74, 86
8, 229504, Note_on_c, 7, 78, 86
8, 229504, Note_on_c, 7, 81, 86
8, 229568, Note_off_c, 7, 72, 0
8, 229568, Note_off_c, 7, 74, 0
8, 229568, Note_off_c, 7, 78, 0
8, 229568, Note_off_c, 7, 81, 0
8, 229632, Note_on_c, 7, 72, 127
8, 229632, Note_on_c, 7, 74, 127
8, 229632, Note_on_c, 7, 78, 127
8, 229632, Note_on_c, 7, 81, 127
8, 229696, Note_off_c, 7, 72, 0
8, 229696, Note_off_c, 7, 74, 0
8, 229696, Note_off_c, 7, 78, 0
8, 229696, Note_off_c, 7, 81, 0
8, 229888, Note_on_c, 7, 64, 116
8, 229888, Note_on_c, 7, 69, 116
8, 229888, Note_on_c, 7, 70, 116
8, 229888, Note_on_c, 7, 72, 116
8, 230016, Note_off_c, 7, 72, 0
8, 230016, Note_on_c, 7, 66, 123
8, 230016, Note_on_c, 7, 71, 123
8, 230016, Note_on_c, 7, 72, 123
8, 230016, Note_on_c, 7, 74, 123
8, 230018, Note_off_c, 7, 64, 0
8, 230018, Note_off_c, 7, 69, 0
8, 230018, Note_off_c, 7, 70, 0
8, 230076, Note_off_c, 7, 66, 0
8, 230076, Note_off_c, 7, 71, 0
8, 230076, Note_off_c, 7, 72, 0
8, 230076, Note_off_c, 7, 74, 0
8, 230272, Note_on_c, 7, 64, 117
8, 230272, Note_on_c, 7, 69, 117
8, 230272, Note_on_c, 7, 70, 117
8, 230272, Note_on_c, 7, 72, 117
8, 230400, Note_off_c, 7, 72, 0
8, 230400, Note_on_c, 7, 67, 125
8, 230400, Note_on_c, 7, 72, 125
8, 230400, Note_on_c, 7, 73, 125
8, 230400, Note_on_c, 7, 75, 125
8, 230402, Note_off_c, 7, 64, 0
8, 230402, Note_off_c, 7, 69, 0
8, 230402, Note_off_c, 7, 70, 0
8, 230460, Note_off_c, 7, 67, 0
8, 230460, Note_off_c, 7, 72, 0
8, 230460, Note_off_c, 7, 73, 0
8, 230460, Note_off_c, 7, 75, 0
8, 230656, Note_on_c, 7, 64, 114
8, 230656, Note_on_c, 7, 69, 114
8, 230656, Note_on_c, 7, 70, 114
8, 230656, Note_on_c, 7, 72, 114
8, 230784, Note_off_c, 7, 72, 0
8, 230784, Note_on_c, 7, 66, 120
8, 230784, Note_on_c, 7, 71, 120
8, 230784, Note_on_c, 7, 72, 120
8, 230784, Note_on_c, 7, 74, 120
8, 230786, Note_off_c, 7, 64, 0
8, 230786, Note_off_c, 7, 69, 0
8, 230786, Note_off_c, 7, 70, 0
8, 230844, Note_off_c, 7, 66, 0
8, 230844, Note_off_c, 7, 71, 0
8, 230844, Note_off_c, 7, 72, 0
8, 230844, Note_off_c, 7, 74, 0
8, 231040, Note_on_c, 7, 64, 112
8, 231040, Note_on_c, 7, 69, 112
8, 231040, Note_on_c, 7, 70, 112
8, 231040, Note_on_c, 7, 72, 112
8, 231168, Note_off_c, 7, 72, 0
8, 231168, Note_on_c, 7, 67, 120
8, 231168, Note_on_c, 7, 72, 120
8, 231168, Note_on_c, 7, 73, 120
8, 231168, Note_on_c, 7, 75, 120
8, 231170, Note_off_c, 7, 64, 0
8, 231170, Note_off_c, 7, 69, 0
8, 231170, Note_off_c, 7, 70, 0
8, 231228, Note_off_c, 7, 67, 0
8, 231228, Note_off_c, 7, 72, 0
8, 231228, Note_off_c, 7, 73, 0
8, 231228, Note_off_c, 7, 75, 0
8, 231424, Note_on_c, 7, 64, 114
8, 231424, Note_on_c, 7, 69, 114
8, 231424, Note_on_c, 7, 70, 114
8, 231424, Note_on_c, 7, 72, 114
8, 231552, Note_off_c, 7, 72, 0
8, 231552, Note_on_c, 7, 66, 118
8, 231552, Note_on_c, 7, 71, 118
8, 231552, Note_on_c, 7, 72, 118
8, 231552, Note_on_c, 7, 74, 118
8, 231554, Note_off_c, 7, 64, 0
8, 231554, Note_off_c, 7, 69, 0
8, 231554, Note_off_c, 7, 70, 0
8, 231612, Note_off_c, 7, 66, 0
8, 231612, Note_off_c, 7, 71, 0
8, 231612, Note_off_c, 7, 72, 0
8, 231612, Note_off_c, 7, 74, 0
8, 231808, Note_on_c, 7, 64, 113
8, 231808, Note_on_c, 7, 69, 113
8, 231808, Note_on_c, 7, 71, 113
8, 231808, Note_on_c, 7, 73, 113
8, 231936, Note_on_c, 7, 67, 122
8, 231936, Note_on_c, 7, 72, 122
8, 231936, Note_on_c, 7, 74, 122
8, 231936, Note_on_c, 7, 76, 122
8, 231938, Note_off_c, 7, 64, 0
8, 231938, Note_off_c, 7, 69, 0
8, 231938, Note_off_c, 7, 71, 0
8, 231938, Note_off_c, 7, 73, 0
8, 231996, Note_off_c, 7, 67, 0
8, 231996, Note_off_c, 7, 72, 0
8, 231996, Note_off_c, 7, 74, 0
8, 231996, Note_off_c, 7, 76, 0
8, 232192, Note_on_c, 7, 65, 116
8, 232192, Note_on_c, 7, 70, 116
8, 232192, Note_on_c, 7, 71, 116
8, 232192, Note_on_c, 7, 73, 116
8, 232320, Note_off_c, 7, 73, 0
8, 232320, Note_on_c, 7, 67, 123
8, 232320, Note_on_c, 7, 72, 123
8, 232320, Note_on_c, 7, 73, 123
8, 232320, Note_on_c, 7, 75, 123
8, 232322, Note_off_c, 7, 65, 0
8, 232322, Note_off_c, 7, 70, 0
8, 232322, Note_off_c, 7, 71, 0
8, 232380, Note_off_c, 7, 67, 0
8, 232380, Note_off_c, 7, 72, 0
8, 232380, Note_off_c, 7, 73, 0
8, 232380, Note_off_c, 7, 75, 0
8, 232576, Note_on_c, 7, 65, 118
8, 232576, Note_on_c, 7, 70, 118
8, 232576, Note_on_c, 7, 72, 118
8, 232576, Note_on_c, 7, 74, 118
8, 232704, Note_on_c, 7, 68, 124
8, 232704, Note_on_c, 7, 73, 124
8, 232704, Note_on_c, 7, 75, 124
8, 232704, Note_on_c, 7, 77, 124
8, 232706, Note_off_c, 7, 65, 0
8, 232706, Note_off_c, 7, 70, 0
8, 232706, Note_off_c, 7, 72, 0
8, 232706, Note_off_c, 7, 74, 0
8, 232764, Note_off_c, 7, 68, 0
8, 232764, Note_off_c, 7, 73, 0
8, 232764, Note_off_c, 7, 75, 0
8, 232764, Note_off_c, 7, 77, 0
8, 232960, Note_on_c, 7, 65, 112
8, 232960, Note_on_c, 7, 68, 112
8, 232960, Note_on_c, 7, 71, 112
8, 232960, Note_on_c, 7, 77, 112
8, 233088, Note_off_c, 7, 68, 0
8, 233088, Note_off_c, 7, 71, 0
8, 233088, Note_on_c, 7, 68, 117
8, 233088, Note_on_c, 7, 71, 117
8, 233088, Note_on_c, 7, 74, 117
8, 233088, Note_on_c, 7, 80, 117
8, 233090, Note_off_c, 7, 65, 0
8, 233090, Note_off_c, 7, 77, 0
8, 233216, Note_on_c, 7, 70, 127
8, 233216, Note_on_c, 7, 73, 127
8, 233216, Note_on_c, 7, 76, 127
8, 233216, Note_on_c, 7, 82, 127
8, 233218, Note_off_c, 7, 68, 0
8, 233218, Note_off_c, 7, 71, 0
8, 233218, Note_off_c, 7, 74, 0
8, 233218, Note_off_c, 7, 80, 0
8, 233276, Note_off_c, 7, 70, 0
8, 233276, Note_off_c, 7, 73, 0
8, 233276, Note_off_c, 7, 76, 0
8, 233276, Note_off_c, 7, 82, 0
8, 233472, Note_on_c, 7, 66, 113
8, 233472, Note_on_c, 7, 69, 113
8, 233472, Note_on_c, 7, 72, 113
8, 233472, Note_on_c, 7, 78, 113
8, 233600, Note_off_c, 7, 69, 0
8, 233600, Note_off_c, 7, 72, 0
8, 233600, Note_on_c, 7, 69, 124
8, 233600, Note_on_c, 7, 72, 124
8, 233600, Note_on_c, 7, 75, 124
8, 233600, Note_on_c, 7, 81, 124
8, 233602, Note_off_c, 7, 66, 0
8, 233602, Note_off_c, 7, 78, 0
8, 233728, Note_on_c, 7, 71, 127
8, 233728, Note_on_c, 7, 74, 127
8, 233728, Note_on_c, 7, 77, 127
8, 233728, Note_on_c, 7, 83, 127
8, 233730, Note_off_c, 7, 69, 0
8, 233730, Note_off_c, 7, 72, 0
8, 233730, Note_off_c, 7, 75, 0
8, 233730, Note_off_c, 7, 81, 0
8, 233788, Note_off_c, 7, 71, 0
8, 233788, Note_off_c, 7, 74, 0
8, 233788, Note_off_c, 7, 77, 0
8, 233788, Note_off_c, 7, 83, 0
8, 233984, Note_on_c, 7, 65, 115
8, 233984, Note_on_c, 7, 68, 115
8, 233984, Note_on_c, 7, 71, 115
8, 233984, Note_on_c, 7, 77, 115
8, 234112, Note_off_c, 7, 68, 0
8, 234112, Note_off_c, 7, 71, 0
8, 234112, Note_on_c, 7, 68, 127
8, 234112, Note_on_c, 7, 71, 127
8, 234112, Note_on_c, 7, 74, 127
8, 234112, Note_on_c, 7, 80, 127
8, 234114, Note_off_c, 7, 65, 0
8, 234114, Note_off_c, 7, 77, 0
8, 234240, Note_on_c, 7, 70, 127
8, 234240, Note_on_c, 7, 73, 127
8, 234240, Note_on_c, 7, 76, 127
8, 234240, Note_on_c, 7, 82, 127
8, 234242, Note_off_c, 7, 68, 0
8, 234242, Note_off_c, 7, 71, 0
8, 234242, Note_off_c, 7, 74, 0
8, 234242, Note_off_c, 7, 80, 0
8, 234300, Note_off_c, 7, 70, 0
8, 234300, Note_off_c, 7, 73, 0
8, 234300, Note_off_c, 7, 76, 0
8, 234300, Note_off_c, 7, 82, 0
8, 234496, Note_on_c, 7, 67, 114
8, 234496, Note_on_c, 7, 70, 114
8, 234496, Note_on_c, 7, 71, 114
8, 234496, Note_on_c, 7, 79, 114
8, 234624, Note_off_c, 7, 70, 0
8, 234624, Note_off_c, 7, 71, 0
8, 234624, Note_on_c, 7, 70, 118
8, 234624, Note_on_c, 7, 71, 118
8, 234624, Note_on_c, 7, 76, 118
8, 234624, Note_on_c, 7, 82, 118
8, 234626, Note_off_c, 7, 67, 0
8, 234626, Note_off_c, 7, 79, 0
8, 234752, Note_off_c, 7, 71, 0
8, 234752, Note_on_c, 7, 71, 127
8, 234752, Note_on_c, 7, 74, 127
8, 234752, Note_on_c, 7, 77, 127
8, 234752, Note_on_c, 7, 85, 127
8, 234754, Note_off_c, 7, 70, 0
8, 234754, Note_off_c, 7, 76, 0
8, 234754, Note_off_c, 7, 82, 0
8, 234812, Note_off_c, 7, 71, 0
8, 234812, Note_off_c, 7, 74, 0
8, 234812, Note_off_c, 7, 77, 0
8, 234812, Note_off_c, 7, 85, 0
8, 235136, Note_on_c, 7, 71, 127
8, 235136, Note_on_c, 7, 74, 127
8, 235136, Note_on_c, 7, 77, 127
8, 235136, Note_on_c, 7, 85, 127
8, 235264, Note_off_c, 7, 71, 0
8, 235264, Note_off_c, 7, 74, 0
8, 235264, Note_off_c, 7, 77, 0
8, 235264, Note_off_c, 7, 85, 0
8, 235520, Note_on_c, 7, 71, 127
8, 235520, Note_on_c, 7, 74, 127
8, 235520, Note_on_c, 7, 77, 127
8, 235520, Note_on_c, 7, 85, 127
8, 235648, Note_off_c, 7, 71, 0
8, 235648, Note_off_c, 7, 74, 0
8, 235648, Note_off_c, 7, 77, 0
8, 235648, Note_off_c, 7, 85, 0
8, 235904, Note_on_c, 7, 71, 127
8, 235904, Note_on_c, 7, 74, 127
8, 235904, Note_on_c, 7, 77, 127
8, 235904, Note_on_c, 7, 85, 127
8, 236032, Note_off_c, 7, 71, 0
8, 236032, Note_off_c, 7, 74, 0
8, 236032, Note_off_c, 7, 77, 0
8, 236032, Note_off_c, 7, 85, 0
8, 236288, Note_on_c, 7, 71, 127
8, 236288, Note_on_c, 7, 74, 127
8, 236288, Note_on_c, 7, 77, 127
8, 236288, Note_on_c, 7, 85, 127
8, 236416, Note_off_c, 7, 71, 0
8, 236416, Note_off_c, 7, 74, 0
8, 236416, Note_off_c, 7, 77, 0
8, 236416, Note_off_c, 7, 85, 0
8, 236672, Note_on_c, 7, 71, 127
8, 236672, Note_on_c, 7, 74, 127
8, 236672, Note_on_c, 7, 77, 127
8, 236672, Note_on_c, 7, 85, 127
8, 236800, Note_off_c, 7, 71, 0
8, 236800, Note_off_c, 7, 74, 0
8, 236800, Note_off_c, 7, 77, 0
8, 236800, Note_off_c, 7, 85, 0
8, 237056, Note_on_c, 7, 71, 127
8, 237056, Note_on_c, 7, 74, 127
8, 237056, Note_on_c, 7, 77, 127
8, 237056, Note_on_c, 7, 85, 127
8, 237184, Note_off_c, 7, 71, 0
8, 237184, Note_off_c, 7, 74, 0
8, 237184, Note_off_c, 7, 77, 0
8, 237184, Note_off_c, 7, 85, 0
8, 237440, Note_on_c, 7, 71, 127
8, 237440, Note_on_c, 7, 74, 127
8, 237440, Note_on_c, 7, 77, 127
8, 237440, Note_on_c, 7, 85, 127
8, 237568, Note_off_c, 7, 71, 0
8, 237568, Note_off_c, 7, 74, 0
8, 237568, Note_off_c, 7, 77, 0
8, 237568, Note_off_c, 7, 85, 0
8, 237696, Note_on_c, 7, 67, 127
8, 237696, Note_on_c, 7, 70, 127
8, 237696, Note_on_c, 7, 76, 127
8, 237696, Note_on_c, 7, 82, 127
8, 237888, Note_off_c, 7, 67, 0
8, 237888, Note_off_c, 7, 70, 0
8, 237888, Note_off_c, 7, 76, 0
8, 237888, Note_off_c, 7, 82, 0
8, 238080, Note_on_c, 7, 65, 127
8, 238080, Note_on_c, 7, 68, 127
8, 238080, Note_on_c, 7, 73, 127
8, 238080, Note_on_c, 7, 80, 127
8, 238272, Note_off_c, 7, 65, 0
8, 238272, Note_off_c, 7, 68, 0
8, 238272, Note_off_c, 7, 73, 0
8, 238272, Note_off_c, 7, 80, 0
8, 238464, Note_on_c, 7, 64, 127
8, 238464, Note_on_c, 7, 67, 127
8, 238464, Note_on_c, 7, 70, 127
8, 238464, Note_on_c, 7, 77, 127
8, 238656, Note_off_c, 7, 64, 0
8, 238656, Note_off_c, 7, 67, 0
8, 238656, Note_off_c, 7, 70, 0
8, 238656, Note_off_c, 7, 77, 0
8, 238848, Note_on_c, 7, 59, 127
8, 238848, Note_on_c, 7, 62, 127
8, 238848, Note_on_c, 7, 68, 127
8, 238848, Note_on_c, 7, 74, 127
8, 239040, Note_off_c, 7, 59, 0
8, 239040, Note_off_c, 7, 62, 0
8, 239040, Note_off_c, 7, 68, 0
8, 239040, Note_off_c, 7, 74, 0
8, 239232, Note_on_c, 7, 56, 127
8, 239232, Note_on_c, 7, 59, 127
8, 239232, Note_on_c, 7, 65, 127
8, 239232, Note_on_c, 7, 71, 127
8, 239424, Note_off_c, 7, 56, 0
8, 239424, Note_off_c, 7, 59, 0
8, 239424, Note_off_c, 7, 65, 0
8, 239424, Note_off_c, 7, 71, 0
8, 239616, Note_on_c, 7, 56, 127
8, 239616, Note_on_c, 7, 58, 127
8, 239616, Note_on_c, 7, 64, 127
8, 239616, Note_on_c, 7, 70, 127
8, 239808, Note_off_c, 7, 56, 0
8, 239808, Note_off_c, 7, 58, 0
8, 239808, Note_off_c, 7, 64, 0
8, 239808, Note_off_c, 7, 70, 0
8, 242176, Note_on_c, 7, 65, 101
8, 242176, Note_on_c, 7, 70, 101
8, 242304, Note_off_c, 7, 65, 0
8, 242304, Note_on_c, 7, 65, 105
8, 242304, Note_on_c, 7, 71, 105
8, 242306, Note_off_c, 7, 70, 0
8, 242432, Note_off_c, 7, 71, 0
8, 242432, Note_on_c, 7, 67, 114
8, 242432, Note_on_c, 7, 71, 114
8, 242434, Note_off_c, 7, 65, 0
8, 242675, Note_off_c, 7, 67, 0
8, 242675, Note_off_c, 7, 71, 0
8, 242688, Note_on_c, 7, 68, 123
8, 242688, Note_on_c, 7, 73, 123
8, 242816, Note_off_c, 7, 68, 0
8, 242816, Note_on_c, 7, 68, 127
8, 242816, Note_on_c, 7, 74, 127
8, 242818, Note_off_c, 7, 73, 0
8, 243059, Note_off_c, 7, 68, 0
8, 243059, Note_off_c, 7, 74, 0
8, 243072, Note_on_c, 7, 68, 107
8, 243072, Note_on_c, 7, 73, 107
8, 243200, Note_on_c, 7, 70, 115
8, 243200, Note_on_c, 7, 77, 115
8, 243202, Note_off_c, 7, 68, 0
8, 243202, Note_off_c, 7, 73, 0
8, 243443, Note_off_c, 7, 70, 0
8, 243443, Note_off_c, 7, 77, 0
8, 243456, Note_on_c, 7, 65, 118
8, 243456, Note_on_c, 7, 71, 118
8, 243456, Note_on_c, 7, 77, 118
8, 243584, Note_off_c, 7, 71, 0
8, 243584, Note_on_c, 7, 67, 126
8, 243584, Note_on_c, 7, 71, 126
8, 243584, Note_on_c, 7, 79, 126
8, 243586, Note_off_c, 7, 65, 0
8, 243586, Note_off_c, 7, 77, 0
8, 243827, Note_off_c, 7, 67, 0
8, 243827, Note_off_c, 7, 71, 0
8, 243827, Note_off_c, 7, 79, 0
8, 243840, Note_on_c, 7, 65, 105
8, 243840, Note_on_c, 7, 70, 105
8, 243840, Note_on_c, 7, 77, 105
8, 243968, Note_on_c, 7, 68, 127
8, 243968, Note_on_c, 7, 73, 127
8, 243968, Note_on_c, 7, 80, 127
8, 243970, Note_off_c, 7, 65, 0
8, 243970, Note_off_c, 7, 70, 0
8, 243970, Note_off_c, 7, 77, 0
8, 244211, Note_off_c, 7, 68, 0
8, 244211, Note_off_c, 7, 73, 0
8, 244211, Note_off_c, 7, 80, 0
8, 244224, Note_on_c, 7, 64, 109
8, 244224, Note_on_c, 7, 70, 109
8, 244224, Note_on_c, 7, 76, 109
8, 244352, Note_on_c, 7, 68, 127
8, 244352, Note_on_c, 7, 74, 127
8, 244352, Note_on_c, 7, 81, 127
8, 244354, Note_off_c, 7, 64, 0
8, 244354, Note_off_c, 7, 70, 0
8, 244354, Note_off_c, 7, 76, 0
8, 244595, Note_off_c, 7, 68, 0
8, 244595, Note_off_c, 7, 74, 0
8, 244595, Note_off_c, 7, 81, 0
8, 244608, Note_on_c, 7, 71, 127
8, 244608, Note_on_c, 7, 70, 127
8, 244608, Note_on_c, 7, 77, 127
8, 244608, Note_on_c, 7, 83, 127
8, 244736, Note_off_c, 7, 77, 0
8, 244736, Note_on_c, 7, 64, 106
8, 244736, Note_on_c, 7, 65, 106
8, 244736, Note_on_c, 7, 72, 106
8, 244736, Note_on_c, 7, 77, 106
8, 244738, Note_off_c, 7, 71, 0
8, 244738, Note_off_c, 7, 70, 0
8, 244738, Note_off_c, 7, 83, 0
8, 244864, Note_off_c, 7, 77, 0
8, 244864, Note_on_c, 7, 68, 127
8, 244864, Note_on_c, 7, 70, 127
8, 244864, Note_on_c, 7, 77, 127
8, 244864, Note_on_c, 7, 82, 127
8, 244866, Note_off_c, 7, 64, 0
8, 244866, Note_off_c, 7, 65, 0
8, 244866, Note_off_c, 7, 72, 0
8, 245107, Note_off_c, 7, 68, 0
8, 245107, Note_off_c, 7, 70, 0
8, 245107, Note_off_c, 7, 77, 0
8, 245107, Note_off_c, 7, 82, 0
8, 245120, Note_on_c, 7, 71, 127
8, 245120, Note_on_c, 7, 73, 127
8, 245120, Note_on_c, 7, 80, 127
8, 245120, Note_on_c, 7, 85, 127
8, 245248, Note_off_c, 7, 71, 0
8, 245248, Note_off_c, 7, 73, 0
8, 245248, Note_off_c, 7, 80, 0
8, 245248, Note_off_c, 7, 85, 0
8, 245504, Note_on_c, 7, 71, 127
8, 245504, Note_on_c, 7, 73, 127
8, 245504, Note_on_c, 7, 80, 127
8, 245504, Note_on_c, 7, 85, 127
8, 245632, Note_off_c, 7, 71, 0
8, 245632, Note_off_c, 7, 73, 0
8, 245632, Note_off_c, 7, 80, 0
8, 245632, Note_off_c, 7, 85, 0
8, 245888, Note_on_c, 7, 71, 127
8, 245888, Note_on_c, 7, 74, 127
8, 245888, Note_on_c, 7, 80, 127
8, 245888, Note_on_c, 7, 85, 127
8, 246016, Note_off_c, 7, 71, 0
8, 246016, Note_off_c, 7, 74, 0
8, 246016, Note_off_c, 7, 80, 0
8, 246016, Note_off_c, 7, 85, 0
8, 246272, Note_on_c, 7, 71, 127
8, 246272, Note_on_c, 7, 74, 127
8, 246272, Note_on_c, 7, 80, 127
8, 246272, Note_on_c, 7, 85, 127
8, 246400, Note_off_c, 7, 71, 0
8, 246400, Note_off_c, 7, 74, 0
8, 246400, Note_off_c, 7, 80, 0
8, 246400, Note_off_c, 7, 85, 0
8, 246656, Note_on_c, 7, 71, 127
8, 246656, Note_on_c, 7, 74, 127
8, 246656, Note_on_c, 7, 80, 127
8, 246656, Note_on_c, 7, 85, 127
8, 246784, Note_off_c, 7, 71, 0
8, 246784, Note_off_c, 7, 74, 0
8, 246784, Note_off_c, 7, 80, 0
8, 246784, Note_off_c, 7, 85, 0
8, 247040, Note_on_c, 7, 71, 127
8, 247040, Note_on_c, 7, 74, 127
8, 247040, Note_on_c, 7, 80, 127
8, 247040, Note_on_c, 7, 85, 127
8, 247210, Note_off_c, 7, 71, 0
8, 247210, Note_off_c, 7, 74, 0
8, 247210, Note_off_c, 7, 80, 0
8, 247210, Note_off_c, 7, 85, 0
8, 247381, Note_on_c, 7, 64, 127
8, 247381, Note_on_c, 7, 67, 127
8, 247381, Note_on_c, 7, 71, 127
8, 247381, Note_on_c, 7, 79, 127
8, 247552, Note_off_c, 7, 64, 0
8, 247552, Note_off_c, 7, 67, 0
8, 247552, Note_off_c, 7, 71, 0
8, 247552, Note_off_c, 7, 79, 0
8, 247808, Note_on_c, 7, 71, 127
8, 247808, Note_on_c, 7, 74, 127
8, 247808, Note_on_c, 7, 80, 127
8, 247808, Note_on_c, 7, 85, 127
8, 247978, Note_off_c, 7, 71, 0
8, 247978, Note_off_c, 7, 74, 0
8, 247978, Note_off_c, 7, 80, 0
8, 247978, Note_off_c, 7, 85, 0
8, 248149, Note_on_c, 7, 64, 127
8, 248149, Note_on_c, 7, 67, 127
8, 248149, Note_on_c, 7, 71, 127
8, 248149, Note_on_c, 7, 79, 127
8, 248320, Note_off_c, 7, 64, 0
8, 248320, Note_off_c, 7, 67, 0
8, 248320, Note_off_c, 7, 71, 0
8, 248320, Note_off_c, 7, 79, 0
8, 248832, Note_on_c, 7, 71, 125
8, 248832, Note_on_c, 7, 74, 125
8, 248832, Note_on_c, 7, 80, 125
8, 248832, Note_on_c, 7, 85, 125
8, 249002, Note_off_c, 7, 71, 0
8, 249002, Note_off_c, 7, 74, 0
8, 249002, Note_off_c, 7, 80, 0
8, 249002, Note_off_c, 7, 85, 0
8, 249173, Note_on_c, 7, 64, 120
8, 249173, Note_on_c, 7, 67, 120
8, 249173, Note_on_c, 7, 71, 120
8, 249173, Note_on_c, 7, 79, 120
8, 249344, Note_off_c, 7, 64, 0
8, 249344, Note_off_c, 7, 67, 0
8, 249344, Note_off_c, 7, 71, 0
8, 249344, Note_off_c, 7, 79, 0
8, 249344, Note_on_c, 7, 68, 127
8, 249344, Note_on_c, 7, 71, 127
8, 249344, Note_on_c, 7, 77, 127
8, 249344, Note_on_c, 7, 83, 127
8, 249514, Note_off_c, 7, 68, 0
8, 249514, Note_off_c, 7, 71, 0
8, 249514, Note_off_c, 7, 77, 0
8, 249514, Note_off_c, 7, 83, 0
8, 249685, Note_on_c, 7, 61, 109
8, 249685, Note_on_c, 7, 65, 109
8, 249685, Note_on_c, 7, 68, 109
8, 249685, Note_on_c, 7, 77, 109
8, 249856, Note_off_c, 7, 61, 0
8, 249856, Note_off_c, 7, 65, 0
8, 249856, Note_off_c, 7, 68, 0
8, 249856, Note_off_c, 7, 77, 0
8, 250112, Note_on_c, 7, 65, 104
8, 250112, Note_on_c, 7, 68, 104
8, 250112, Note_on_c, 7, 74, 104
8, 250112, Note_on_c, 7, 80, 104
8, 250282, Note_off_c, 7, 65, 0
8, 250282, Note_off_c, 7, 68, 0
8, 250282, Note_off_c, 7, 74, 0
8, 250282, Note_off_c, 7, 80, 0
8, 250453, Note_on_c, 7, 58, 103
8, 250453, Note_on_c, 7, 61, 103
8, 250453, Note_on_c, 7, 65, 103
8, 250453, Note_on_c, 7, 73, 103
8, 250624, Note_off_c, 7, 58, 0
8, 250624, Note_off_c, 7, 61, 0
8, 250624, Note_off_c, 7, 65, 0
8, 250624, Note_off_c, 7, 73, 0
8, 251264, Note_on_c, 7, 65, 74
8, 251264, Note_on_c, 7, 71, 74
8, 251264, Note_on_c, 7, 77, 74
8, 251328, Note_off_c, 7, 65, 0
8, 251328, Note_off_c, 7, 71, 0
8, 251328, Note_off_c, 7, 77, 0
8, 252160, Note_on_c, 7, 58, 65
8, 252160, Note_on_c, 7, 62, 65
8, 252160, Note_on_c, 7, 70, 65
8, 252224, Note_off_c, 7, 58, 0
8, 252224, Note_off_c, 7, 62, 0
8, 252224, Note_off_c, 7, 70, 0
8, 363648, Note_on_c, 7, 72, 79
8, 363712, Note_off_c, 7, 72, 0
8, 364160, Note_on_c, 7, 72, 72
8, 364224, Note_off_c, 7, 72, 0
8, 364672, Note_on_c, 7, 72, 77
8, 364736, Note_off_c, 7, 72, 0
8, 365184, Note_on_c, 7, 72, 76
8, 365248, Note_off_c, 7, 72, 0
8, 365440, Note_on_c, 7, 72, 75
8, 365440, Note_on_c, 7, 73, 75
8, 365504, Note_off_c, 7, 72, 0
8, 365504, Note_off_c, 7, 73, 0
8, 365952, Note_on_c, 7, 72, 72
8, 365952, Note_on_c, 7, 73, 72
8, 366016, Note_off_c, 7, 72, 0
8, 366016, Note_off_c, 7, 73, 0
8, 366464, Note_on_c, 7, 72, 77
8, 366464, Note_on_c, 7, 73, 77
8, 366528, Note_off_c, 7, 72, 0
8, 366528, Note_off_c, 7, 73, 0
8, 366976, Note_on_c, 7, 72, 71
8, 366976, Note_on_c, 7, 73, 71
8, 367040, Note_off_c, 7, 72, 0
8, 367040, Note_off_c, 7, 73, 0
8, 367488, Note_on_c, 7, 72, 74
8, 367488, Note_on_c, 7, 73, 74
8, 367552, Note_off_c, 7, 72, 0
8, 367552, Note_off_c, 7, 73, 0
8, 367744, Note_on_c, 7, 73, 79
8, 367744, Note_on_c, 7, 72, 79
8, 367808, Note_off_c, 7, 73, 0
8, 367808, Note_off_c, 7, 72, 0
8, 368256, Note_on_c, 7, 72, 77
8, 368256, Note_on_c, 7, 73, 77
8, 368320, Note_off_c, 7, 72, 0
8, 368320, Note_off_c, 7, 73, 0
8, 368512, Note_on_c, 7, 72, 74
8, 368512, Note_on_c, 7, 74, 74
8, 368576, Note_off_c, 7, 72, 0
8, 368576, Note_off_c, 7, 74, 0
8, 369024, Note_on_c, 7, 72, 76
8, 369024, Note_on_c, 7, 74, 76
8, 369088, Note_off_c, 7, 72, 0
8, 369088, Note_off_c, 7, 74, 0
8, 369536, Note_on_c, 7, 72, 74
8, 369536, Note_on_c, 7, 74, 74
8, 369600, Note_off_c, 7, 72, 0
8, 369600, Note_off_c, 7, 74, 0
8, 370048, Note_on_c, 7, 72, 76
8, 370048, Note_on_c, 7, 74, 76
8, 370112, Note_off_c, 7, 72, 0
8, 370112, Note_off_c, 7, 74, 0
8, 370560, Note_on_c, 7, 72, 86
8, 370560, Note_on_c, 7, 74, 86
8, 371072, Note_off_c, 7, 72, 0
8, 371072, Note_off_c, 7, 74, 0
8, 371072, Note_on_c, 7, 72, 96
8, 371072, Note_on_c, 7, 74, 96
8, 371584, Note_off_c, 7, 72, 0
8, 371584, Note_off_c, 7, 74, 0
8, 371584, Note_on_c, 7, 73, 101
8, 371584, Note_on_c, 7, 75, 101
8, 372608, Note_off_c, 7, 73, 0
8, 372608, Note_off_c, 7, 75, 0
8, 372608, Note_on_c, 7, 73, 96
8, 372608, Note_on_c, 7, 75, 96
8, 373120, Note_off_c, 7, 73, 0
8, 373120, Note_off_c, 7, 75, 0
8, 373120, Note_on_c, 7, 73, 98
8, 373120, Note_on_c, 7, 75, 98
8, 373632, Note_off_c, 7, 73, 0
8, 373632, Note_off_c, 7, 75, 0
8, 373632, Note_on_c, 7, 73, 109
8, 373632, Note_on_c, 7, 76, 109
8, 373760, Note_off_c, 7, 73, 0
8, 373760, Note_off_c, 7, 76, 0
8, 373760, Note_on_c, 7, 73, 100
8, 373760, Note_on_c, 7, 76, 100
8, 374144, Note_off_c, 7, 73, 0
8, 374144, Note_off_c, 7, 76, 0
8, 374144, Note_on_c, 7, 73, 99
8, 374144, Note_on_c, 7, 76, 99
8, 374656, Note_off_c, 7, 73, 0
8, 374656, Note_off_c, 7, 76, 0
8, 374656, Note_on_c, 7, 73, 90
8, 374656, Note_on_c, 7, 76, 90
8, 374784, Note_on_c, 7, 77, 96
8, 374786, Note_off_c, 7, 76, 0
8, 375635, Note_off_c, 7, 77, 0
8, 375680, Note_on_c, 7, 64, 82
8, 375680, Note_on_c, 7, 69, 82
8, 375680, Note_on_c, 7, 73, 82
8, 375680, Note_on_c, 7, 77, 82
8, 375700, Note_off_c, 7, 73, 0
8, 375744, Note_off_c, 7, 64, 0
8, 375744, Note_off_c, 7, 69, 0
8, 375744, Note_off_c, 7, 73, 0
8, 375744, Note_off_c, 7, 77, 0
8, 375808, Note_on_c, 7, 64, 84
8, 375808, Note_on_c, 7, 69, 84
8, 375808, Note_on_c, 7, 73, 84
8, 375808, Note_on_c, 7, 77, 84
8, 375872, Note_off_c, 7, 64, 0
8, 375872, Note_off_c, 7, 69, 0
8, 375872, Note_off_c, 7, 73, 0
8, 375872, Note_off_c, 7, 77, 0
8, 376064, Note_on_c, 7, 64, 77
8, 376064, Note_on_c, 7, 69, 77
8, 376064, Note_on_c, 7, 73, 77
8, 376064, Note_on_c, 7, 77, 77
8, 376128, Note_off_c, 7, 64, 0
8, 376128, Note_off_c, 7, 69, 0
8, 376128, Note_off_c, 7, 73, 0
8, 376128, Note_off_c, 7, 77, 0
8, 376192, Note_on_c, 7, 64, 83
8, 376192, Note_on_c, 7, 69, 83
8, 376192, Note_on_c, 7, 73, 83
8, 376192, Note_on_c, 7, 77, 83
8, 376256, Note_off_c, 7, 64, 0
8, 376256, Note_off_c, 7, 69, 0
8, 376256, Note_off_c, 7, 73, 0
8, 376256, Note_off_c, 7, 77, 0
8, 376320, Note_on_c, 7, 64, 85
8, 376320, Note_on_c, 7, 69, 85
8, 376320, Note_on_c, 7, 73, 85
8, 376320, Note_on_c, 7, 77, 85
8, 376384, Note_off_c, 7, 64, 0
8, 376384, Note_off_c, 7, 69, 0
8, 376384, Note_off_c, 7, 73, 0
8, 376384, Note_off_c, 7, 77, 0
8, 376448, Note_on_c, 7, 64, 82
8, 376448, Note_on_c, 7, 69, 82
8, 376448, Note_on_c, 7, 73, 82
8, 376448, Note_on_c, 7, 77, 82
8, 376512, Note_off_c, 7, 64, 0
8, 376512, Note_off_c, 7, 69, 0
8, 376512, Note_off_c, 7, 73, 0
8, 376512, Note_off_c, 7, 77, 0
8, 376704, Note_on_c, 7, 64, 72
8, 376704, Note_on_c, 7, 69, 72
8, 376704, Note_on_c, 7, 73, 72
8, 376704, Note_on_c, 7, 77, 72
8, 376768, Note_off_c, 7, 64, 0
8, 376768, Note_off_c, 7, 69, 0
8, 376768, Note_off_c, 7, 73, 0
8, 376768, Note_off_c, 7, 77, 0
8, 376832, Note_on_c, 7, 64, 83
8, 376832, Note_on_c, 7, 69, 83
8, 376832, Note_on_c, 7, 73, 83
8, 376832, Note_on_c, 7, 77, 83
8, 376896, Note_off_c, 7, 64, 0
8, 376896, Note_off_c, 7, 69, 0
8, 376896, Note_off_c, 7, 73, 0
8, 376896, Note_off_c, 7, 77, 0
8, 376960, Note_on_c, 7, 64, 86
8, 376960, Note_on_c, 7, 69, 86
8, 376960, Note_on_c, 7, 73, 86
8, 376960, Note_on_c, 7, 77, 86
8, 377024, Note_off_c, 7, 64, 0
8, 377024, Note_off_c, 7, 69, 0
8, 377024, Note_off_c, 7, 73, 0
8, 377024, Note_off_c, 7, 77, 0
8, 377088, Note_on_c, 7, 64, 85
8, 377088, Note_on_c, 7, 69, 85
8, 377088, Note_on_c, 7, 73, 85
8, 377088, Note_on_c, 7, 77, 85
8, 377152, Note_off_c, 7, 64, 0
8, 377152, Note_off_c, 7, 69, 0
8, 377152, Note_off_c, 7, 73, 0
8, 377152, Note_off_c, 7, 77, 0
8, 377216, Note_on_c, 7, 64, 83
8, 377216, Note_on_c, 7, 69, 83
8, 377216, Note_on_c, 7, 73, 83
8, 377216, Note_on_c, 7, 77, 83
8, 377280, Note_off_c, 7, 64, 0
8, 377280, Note_off_c, 7, 69, 0
8, 377280, Note_off_c, 7, 73, 0
8, 377280, Note_off_c, 7, 77, 0
8, 377344, Note_on_c, 7, 72, 84
8, 377344, Note_on_c, 7, 73, 84
8, 377344, Note_on_c, 7, 77, 84
8, 377344, Note_on_c, 7, 79, 84
8, 377408, Note_off_c, 7, 72, 0
8, 377408, Note_off_c, 7, 73, 0
8, 377408, Note_off_c, 7, 77, 0
8, 377408, Note_off_c, 7, 79, 0
8, 377472, Note_on_c, 7, 72, 85
8, 377472, Note_on_c, 7, 73, 85
8, 377472, Note_on_c, 7, 77, 85
8, 377472, Note_on_c, 7, 79, 85
8, 377536, Note_off_c, 7, 72, 0
8, 377536, Note_off_c, 7, 73, 0
8, 377536, Note_off_c, 7, 77, 0
8, 377536, Note_off_c, 7, 79, 0
8, 377728, Note_on_c, 7, 72, 73
8, 377728, Note_on_c, 7, 73, 73
8, 377728, Note_on_c, 7, 77, 73
8, 377728, Note_on_c, 7, 79, 73
8, 377792, Note_off_c, 7, 72, 0
8, 377792, Note_off_c, 7, 73, 0
8, 377792, Note_off_c, 7, 77, 0
8, 377792, Note_off_c, 7, 79, 0
8, 377856, Note_on_c, 7, 72, 78
8, 377856, Note_on_c, 7, 73, 78
8, 377856, Note_on_c, 7, 77, 78
8, 377856, Note_on_c, 7, 79, 78
8, 377920, Note_off_c, 7, 72, 0
8, 377920, Note_off_c, 7, 73, 0
8, 377920, Note_off_c, 7, 77, 0
8, 377920, Note_off_c, 7, 79, 0
8, 378112, Note_on_c, 7, 72, 69
8, 378112, Note_on_c, 7, 73, 69
8, 378112, Note_on_c, 7, 77, 69
8, 378112, Note_on_c, 7, 79, 69
8, 378176, Note_off_c, 7, 72, 0
8, 378176, Note_off_c, 7, 73, 0
8, 378176, Note_off_c, 7, 77, 0
8, 378176, Note_off_c, 7, 79, 0
8, 378240, Note_on_c, 7, 72, 68
8, 378240, Note_on_c, 7, 73, 68
8, 378240, Note_on_c, 7, 77, 68
8, 378240, Note_on_c, 7, 79, 68
8, 378304, Note_off_c, 7, 72, 0
8, 378304, Note_off_c, 7, 73, 0
8, 378304, Note_off_c, 7, 77, 0
8, 378304, Note_off_c, 7, 79, 0
8, 378368, Note_on_c, 7, 72, 71
8, 378368, Note_on_c, 7, 73, 71
8, 378368, Note_on_c, 7, 77, 71
8, 378368, Note_on_c, 7, 79, 71
8, 378432, Note_off_c, 7, 72, 0
8, 378432, Note_off_c, 7, 73, 0
8, 378432, Note_off_c, 7, 77, 0
8, 378432, Note_off_c, 7, 79, 0
8, 378496, Note_on_c, 7, 72, 69
8, 378496, Note_on_c, 7, 73, 69
8, 378496, Note_on_c, 7, 77, 69
8, 378496, Note_on_c, 7, 79, 69
8, 378560, Note_off_c, 7, 72, 0
8, 378560, Note_off_c, 7, 73, 0
8, 378560, Note_off_c, 7, 77, 0
8, 378560, Note_off_c, 7, 79, 0
8, 378624, Note_on_c, 7, 72, 64
8, 378624, Note_on_c, 7, 73, 64
8, 378624, Note_on_c, 7, 77, 64
8, 378624, Note_on_c, 7, 79, 64
8, 378688, Note_off_c, 7, 72, 0
8, 378688, Note_off_c, 7, 73, 0
8, 378688, Note_off_c, 7, 77, 0
8, 378688, Note_off_c, 7, 79, 0
8, 378752, Note_on_c, 7, 72, 62
8, 378752, Note_on_c, 7, 73, 62
8, 378752, Note_on_c, 7, 77, 62
8, 378752, Note_on_c, 7, 79, 62
8, 378816, Note_off_c, 7, 72, 0
8, 378816, Note_off_c, 7, 73, 0
8, 378816, Note_off_c, 7, 77, 0
8, 378816, Note_off_c, 7, 79, 0
8, 379008, Note_on_c, 7, 72, 57
8, 379008, Note_on_c, 7, 73, 57
8, 379008, Note_on_c, 7, 77, 57
8, 379008, Note_on_c, 7, 79, 57
8, 379072, Note_off_c, 7, 72, 0
8, 379072, Note_off_c, 7, 73, 0
8, 379072, Note_off_c, 7, 77, 0
8, 379072, Note_off_c, 7, 79, 0
8, 379136, Note_on_c, 7, 72, 57
8, 379136, Note_on_c, 7, 73, 57
8, 379136, Note_on_c, 7, 77, 57
8, 379136, Note_on_c, 7, 79, 57
8, 379200, Note_off_c, 7, 72, 0
8, 379200, Note_off_c, 7, 73, 0
8, 379200, Note_off_c, 7, 77, 0
8, 379200, Note_off_c, 7, 79, 0
8, 379392, Note_on_c, 7, 72, 57
8, 379392, Note_on_c, 7, 73, 57
8, 379392, Note_on_c, 7, 77, 57
8, 379392, Note_on_c, 7, 79, 57
8, 379456, Note_off_c, 7, 72, 0
8, 379456, Note_off_c, 7, 73, 0
8, 379456, Note_off_c, 7, 77, 0
8, 379456, Note_off_c, 7, 79, 0
8, 379520, Note_on_c, 7, 72, 58
8, 379520, Note_on_c, 7, 73, 58
8, 379520, Note_on_c, 7, 77, 58
8, 379520, Note_on_c, 7, 79, 58
8, 379584, Note_off_c, 7, 72, 0
8, 379584, Note_off_c, 7, 73, 0
8, 379584, Note_off_c, 7, 77, 0
8, 379584, Note_off_c, 7, 79, 0
8, 379776, Note_on_c, 7, 72, 57
8, 379776, Note_on_c, 7, 73, 57
8, 379776, Note_on_c, 7, 77, 57
8, 379776, Note_on_c, 7, 79, 57
8, 379840, Note_off_c, 7, 72, 0
8, 379840, Note_off_c, 7, 73, 0
8, 379840, Note_off_c, 7, 77, 0
8, 379840, Note_off_c, 7, 79, 0
8, 379904, Note_on_c, 7, 72, 63
8, 379904, Note_on_c, 7, 73, 63
8, 379904, Note_on_c, 7, 77, 63
8, 379904, Note_on_c, 7, 79, 63
8, 379968, Note_off_c, 7, 72, 0
8, 379968, Note_off_c, 7, 73, 0
8, 379968, Note_off_c, 7, 77, 0
8, 379968, Note_off_c, 7, 79, 0
8, 380160, Note_on_c, 7, 72, 53
8, 380160, Note_on_c, 7, 73, 53
8, 380160, Note_on_c, 7, 77, 53
8, 380160, Note_on_c, 7, 79, 53
8, 380224, Note_off_c, 7, 72, 0
8, 380224, Note_off_c, 7, 73, 0
8, 380224, Note_off_c, 7, 77, 0
8, 380224, Note_off_c, 7, 79, 0
8, 380288, Note_on_c, 7, 72, 60
8, 380288, Note_on_c, 7, 73, 60
8, 380288, Note_on_c, 7, 77, 60
8, 380288, Note_on_c, 7, 79, 60
8, 380352, Note_off_c, 7, 72, 0
8, 380352, Note_off_c, 7, 73, 0
8, 380352, Note_off_c, 7, 77, 0
8, 380352, Note_off_c, 7, 79, 0
8, 380544, Note_on_c, 7, 69, 60
8, 380544, Note_on_c, 7, 72, 60
8, 380544, Note_on_c, 7, 73, 60
8, 380544, Note_on_c, 7, 77, 60
8, 380608, Note_off_c, 7, 69, 0
8, 380608, Note_off_c, 7, 72, 0
8, 380608, Note_off_c, 7, 73, 0
8, 380608, Note_off_c, 7, 77, 0
8, 380672, Note_on_c, 7, 72, 64
8, 380672, Note_on_c, 7, 73, 64
8, 380672, Note_on_c, 7, 77, 64
8, 380672, Note_on_c, 7, 79, 64
8, 380736, Note_off_c, 7, 72, 0
8, 380736, Note_off_c, 7, 73, 0
8, 380736, Note_off_c, 7, 77, 0
8, 380736, Note_off_c, 7, 79, 0
8, 380928, Note_on_c, 7, 72, 53
8, 380928, Note_on_c, 7, 73, 53
8, 380928, Note_on_c, 7, 77, 53
8, 380928, Note_on_c, 7, 79, 53
8, 380992, Note_off_c, 7, 72, 0
8, 380992, Note_off_c, 7, 73, 0
8, 380992, Note_off_c, 7, 77, 0
8, 380992, Note_off_c, 7, 79, 0
8, 381056, Note_on_c, 7, 72, 55
8, 381056, Note_on_c, 7, 73, 55
8, 381056, Note_on_c, 7, 77, 55
8, 381056, Note_on_c, 7, 79, 55
8, 381120, Note_off_c, 7, 72, 0
8, 381120, Note_off_c, 7, 73, 0
8, 381120, Note_off_c, 7, 77, 0
8, 381120, Note_off_c, 7, 79, 0
8, 381312, Note_on_c, 7, 69, 51
8, 381312, Note_on_c, 7, 72, 51
8, 381312, Note_on_c, 7, 73, 51
8, 381312, Note_on_c, 7, 77, 51
8, 381376, Note_off_c, 7, 69, 0
8, 381376, Note_off_c, 7, 72, 0
8, 381376, Note_off_c, 7, 73, 0
8, 381376, Note_off_c, 7, 77, 0
8, 381440, Note_on_c, 7, 72, 56
8, 381440, Note_on_c, 7, 73, 56
8, 381440, Note_on_c, 7, 77, 56
8, 381440, Note_on_c, 7, 79, 56
8, 381504, Note_off_c, 7, 72, 0
8, 381504, Note_off_c, 7, 73, 0
8, 381504, Note_off_c, 7, 77, 0
8, 381504, Note_off_c, 7, 79, 0
8, 381696, Note_on_c, 7, 72, 42
8, 381696, Note_on_c, 7, 73, 42
8, 381696, Note_on_c, 7, 77, 42
8, 381696, Note_on_c, 7, 79, 42
8, 381760, Note_off_c, 7, 72, 0
8, 381760, Note_off_c, 7, 73, 0
8, 381760, Note_off_c, 7, 77, 0
8, 381760, Note_off_c, 7, 79, 0
8, 381824, Note_on_c, 7, 72, 50
8, 381824, Note_on_c, 7, 73, 50
8, 381824, Note_on_c, 7, 77, 50
8, 381824, Note_on_c, 7, 79, 50
8, 381888, Note_off_c, 7, 72, 0
8, 381888, Note_off_c, 7, 73, 0
8, 381888, Note_off_c, 7, 77, 0
8, 381888, Note_off_c, 7, 79, 0
8, 382080, Note_on_c, 7, 69, 43
8, 382080, Note_on_c, 7, 72, 43
8, 382080, Note_on_c, 7, 73, 43
8, 382080, Note_on_c, 7, 77, 43
8, 382144, Note_off_c, 7, 69, 0
8, 382144, Note_off_c, 7, 72, 0
8, 382144, Note_off_c, 7, 73, 0
8, 382144, Note_off_c, 7, 77, 0
8, 382208, Note_on_c, 7, 72, 46
8, 382208, Note_on_c, 7, 73, 46
8, 382208, Note_on_c, 7, 77, 46
8, 382208, Note_on_c, 7, 79, 46
8, 382272, Note_off_c, 7, 72, 0
8, 382272, Note_off_c, 7, 73, 0
8, 382272, Note_off_c, 7, 77, 0
8, 382272, Note_off_c, 7, 79, 0
8, 382464, Note_on_c, 7, 72, 38
8, 382464, Note_on_c, 7, 73, 38
8, 382464, Note_on_c, 7, 77, 38
8, 382464, Note_on_c, 7, 79, 38
8, 382528, Note_off_c, 7, 72, 0
8, 382528, Note_off_c, 7, 73, 0
8, 382528, Note_off_c, 7, 77, 0
8, 382528, Note_off_c, 7, 79, 0
8, 382592, Note_on_c, 7, 72, 38
8, 382592, Note_on_c, 7, 73, 38
8, 382592, Note_on_c, 7, 77, 38
8, 382592, Note_on_c, 7, 79, 38
8, 382656, Note_off_c, 7, 72, 0
8, 382656, Note_off_c, 7, 73, 0
8, 382656, Note_off_c, 7, 77, 0
8, 382656, Note_off_c, 7, 79, 0
8, 391040, Note_on_c, 7, 75, 97
8, 391040, Note_on_c, 7, 82, 97
8, 391104, Note_off_c, 7, 75, 0
8, 391104, Note_off_c, 7, 82, 0
8, 391808, Note_on_c, 7, 75, 102
8, 391808, Note_on_c, 7, 82, 102
8, 391872, Note_off_c, 7, 75, 0
8, 391872, Note_off_c, 7, 82, 0
8, 392576, Note_on_c, 7, 75, 103
8, 392576, Note_on_c, 7, 82, 103
8, 392640, Note_off_c, 7, 75, 0
8, 392640, Note_off_c, 7, 82, 0
8, 393216, Note_on_c, 7, 75, 101
8, 393216, Note_on_c, 7, 82, 101
8, 393280, Note_off_c, 7, 75, 0
8, 393280, Note_off_c, 7, 82, 0
8, 393856, Note_on_c, 7, 75, 99
8, 393856, Note_on_c, 7, 82, 99
8, 393920, Note_off_c, 7, 75, 0
8, 393920, Note_off_c, 7, 82, 0
8, 394368, Note_on_c, 7, 75, 98
8, 394368, Note_on_c, 7, 82, 98
8, 394432, Note_off_c, 7, 75, 0
8, 394432, Note_off_c, 7, 82, 0
8, 395136, Note_on_c, 7, 75, 101
8, 395136, Note_on_c, 7, 82, 101
8, 395200, Note_off_c, 7, 75, 0
8, 395200, Note_off_c, 7, 82, 0
8, 395520, Note_on_c, 7, 75, 102
8, 395520, Note_on_c, 7, 82, 102
8, 395584, Note_off_c, 7, 75, 0
8, 395584, Note_off_c, 7, 82, 0
8, 396288, Note_on_c, 7, 75, 98
8, 396288, Note_on_c, 7, 82, 98
8, 396352, Note_off_c, 7, 75, 0
8, 396352, Note_off_c, 7, 82, 0
8, 397568, Note_on_c, 7, 63, 125
8, 397568, Note_on_c, 7, 70, 125
8, 397568, Note_on_c, 7, 75, 125
8, 397568, Note_on_c, 7, 82, 125
8, 397824, Note_off_c, 7, 63, 0
8, 397824, Note_off_c, 7, 70, 0
8, 397824, Note_off_c, 7, 75, 0
8, 397824, Note_off_c, 7, 82, 0
8, 398336, Note_on_c, 7, 63, 127
8, 398336, Note_on_c, 7, 70, 127
8, 398336, Note_on_c, 7, 75, 127
8, 398336, Note_on_c, 7, 82, 127
8, 398592, Note_off_c, 7, 63, 0
8, 398592, Note_off_c, 7, 70, 0
8, 398592, Note_off_c, 7, 75, 0
8, 398592, Note_off_c, 7, 82, 0
8, 399104, Note_on_c, 7, 63, 125
8, 399104, Note_on_c, 7, 70, 125
8, 399104, Note_on_c, 7, 75, 125
8, 399104, Note_on_c, 7, 82, 125
8, 399360, Note_off_c, 7, 63, 0
8, 399360, Note_off_c, 7, 70, 0
8, 399360, Note_off_c, 7, 75, 0
8, 399360, Note_off_c, 7, 82, 0
8, 399872, Note_on_c, 7, 63, 124
8, 399872, Note_on_c, 7, 70, 124
8, 399872, Note_on_c, 7, 75, 124
8, 399872, Note_on_c, 7, 82, 124
8, 400128, Note_off_c, 7, 63, 0
8, 400128, Note_off_c, 7, 70, 0
8, 400128, Note_off_c, 7, 75, 0
8, 400128, Note_off_c, 7, 82, 0
8, 400640, Note_on_c, 7, 63, 125
8, 400640, Note_on_c, 7, 70, 125
8, 400640, Note_on_c, 7, 75, 125
8, 400640, Note_on_c, 7, 82, 125
8, 400896, Note_off_c, 7, 63, 0
8, 400896, Note_off_c, 7, 70, 0
8, 400896, Note_off_c, 7, 75, 0
8, 400896, Note_off_c, 7, 82, 0
8, 401408, Note_on_c, 7, 63, 124
8, 401408, Note_on_c, 7, 70, 124
8, 401408, Note_on_c, 7, 75, 124
8, 401408, Note_on_c, 7, 82, 124
8, 401664, Note_off_c, 7, 63, 0
8, 401664, Note_off_c, 7, 70, 0
8, 401664, Note_off_c, 7, 75, 0
8, 401664, Note_off_c, 7, 82, 0
8, 402304, Note_on_c, 7, 63, 115
8, 402304, Note_on_c, 7, 70, 115
8, 402304, Note_on_c, 7, 75, 115
8, 402304, Note_on_c, 7, 82, 115
8, 402560, Note_off_c, 7, 63, 0
8, 402560, Note_off_c, 7, 70, 0
8, 402560, Note_off_c, 7, 75, 0
8, 402560, Note_off_c, 7, 82, 0
8, 403200, Note_on_c, 7, 63, 121
8, 403200, Note_on_c, 7, 70, 121
8, 403200, Note_on_c, 7, 75, 121
8, 403200, Note_on_c, 7, 82, 121
8, 403456, Note_off_c, 7, 63, 0
8, 403456, Note_off_c, 7, 70, 0
8, 403456, Note_off_c, 7, 75, 0
8, 403456, Note_off_c, 7, 82, 0
8, 420992, Note_on_c, 7, 69, 112
8, 421120, Note_off_c, 7, 69, 0
8, 421120, Note_on_c, 7, 73, 127
8, 421248, Note_off_c, 7, 73, 0
8, 421248, Note_on_c, 7, 76, 127
8, 421376, Note_off_c, 7, 76, 0
8, 421376, Note_on_c, 7, 76, 126
8, 421504, Note_off_c, 7, 76, 0
8, 422016, Note_on_c, 7, 73, 116
8, 422144, Note_off_c, 7, 73, 0
8, 422144, Note_on_c, 7, 76, 127
8, 422272, Note_off_c, 7, 76, 0
8, 422272, Note_on_c, 7, 76, 124
8, 422400, Note_off_c, 7, 76, 0
8, 422784, Note_on_c, 7, 71, 112
8, 422912, Note_off_c, 7, 71, 0
8, 422912, Note_on_c, 7, 76, 127
8, 423040, Note_off_c, 7, 76, 0
8, 423296, Note_on_c, 7, 72, 114
8, 423424, Note_off_c, 7, 72, 0
8, 423424, Note_on_c, 7, 73, 127
8, 423552, Note_off_c, 7, 73, 0
8, 423552, Note_on_c, 7, 78, 127
8, 423680, Note_off_c, 7, 78, 0
8, 423680, Note_on_c, 7, 84, 127
8, 423808, Note_off_c, 7, 84, 0
8, 423808, Note_on_c, 7, 84, 127
8, 423936, Note_off_c, 7, 84, 0
8, 424192, Note_on_c, 7, 72, 115
8, 424320, Note_off_c, 7, 72, 0
8, 424320, Note_on_c, 7, 76, 127
8, 424448, Note_off_c, 7, 76, 0
8, 424448, Note_on_c, 7, 78, 127
8, 424448, Note_on_c, 7, 60, 115
8, 424448, Note_on_c, 7, 64, 115
8, 424576, Note_off_c, 7, 78, 0
8, 424576, Note_on_c, 7, 83, 127
8, 424704, Note_off_c, 7, 83, 0
8, 424704, Note_on_c, 7, 66, 127
8, 424704, Note_on_c, 7, 69, 127
8, 424709, Note_off_c, 7, 60, 0
8, 424709, Note_off_c, 7, 64, 0
8, 424960, Note_on_c, 7, 67, 127
8, 424960, Note_on_c, 7, 71, 127
8, 424965, Note_off_c, 7, 66, 0
8, 424965, Note_off_c, 7, 69, 0
8, 425216, Note_off_c, 7, 71, 0
8, 425216, Note_on_c, 7, 71, 127
8, 425216, Note_on_c, 7, 76, 127
8, 425221, Note_off_c, 7, 67, 0
8, 425337, Note_off_c, 7, 71, 0
8, 425337, Note_off_c, 7, 76, 0
8, 425600, Note_on_c, 7, 73, 119
8, 425600, Note_on_c, 7, 76, 119
8, 425600, Note_on_c, 7, 78, 119
8, 425600, Note_on_c, 7, 81, 119
8, 425856, Note_off_c, 7, 73, 0
8, 425856, Note_off_c, 7, 76, 0
8, 425856, Note_off_c, 7, 78, 0
8, 425856, Note_off_c, 7, 81, 0
8, 426240, Note_on_c, 7, 73, 116
8, 426240, Note_on_c, 7, 76, 116
8, 426240, Note_on_c, 7, 78, 116
8, 426240, Note_on_c, 7, 81, 116
8, 426496, Note_off_c, 7, 73, 0
8, 426496, Note_off_c, 7, 76, 0
8, 426496, Note_off_c, 7, 78, 0
8, 426496, Note_off_c, 7, 81, 0
8, 427136, Note_on_c, 7, 75, 109
8, 427136, Note_on_c, 7, 78, 109
8, 427136, Note_on_c, 7, 80, 109
8, 427136, Note_on_c, 7, 81, 109
8, 427392, Note_off_c, 7, 75, 0
8, 427392, Note_off_c, 7, 78, 0
8, 427392, Note_off_c, 7, 80, 0
8, 427392, Note_off_c, 7, 81, 0
8, 428032, Note_on_c, 7, 74, 113
8, 428032, Note_on_c, 7, 78, 113
8, 428032, Note_on_c, 7, 80, 113
8, 428032, Note_on_c, 7, 81, 113
8, 428288, Note_off_c, 7, 74, 0
8, 428288, Note_off_c, 7, 78, 0
8, 428288, Note_off_c, 7, 80, 0
8, 428288, Note_off_c, 7, 81, 0
8, 428800, Note_on_c, 7, 73, 114
8, 428800, Note_on_c, 7, 74, 114
8, 428800, Note_on_c, 7, 78, 114
8, 428800, Note_on_c, 7, 81, 114
8, 429056, Note_off_c, 7, 73, 0
8, 429056, Note_off_c, 7, 74, 0
8, 429056, Note_off_c, 7, 78, 0
8, 429056, Note_off_c, 7, 81, 0
8, 429568, Note_on_c, 7, 73, 116
8, 429568, Note_on_c, 7, 76, 116
8, 429568, Note_on_c, 7, 78, 116
8, 429568, Note_on_c, 7, 81, 116
8, 429824, Note_off_c, 7, 73, 0
8, 429824, Note_off_c, 7, 76, 0
8, 429824, Note_off_c, 7, 78, 0
8, 429824, Note_off_c, 7, 81, 0
8, 430080, Note_on_c, 7, 74, 110
8, 430080, Note_on_c, 7, 78, 110
8, 430080, Note_on_c, 7, 81, 110
8, 430336, Note_off_c, 7, 74, 0
8, 430336, Note_off_c, 7, 78, 0
8, 430336, Note_off_c, 7, 81, 0
8, 430592, Note_on_c, 7, 73, 112
8, 430592, Note_on_c, 7, 74, 112
8, 430592, Note_on_c, 7, 78, 112
8, 430592, Note_on_c, 7, 81, 112
8, 430848, Note_off_c, 7, 73, 0
8, 430848, Note_off_c, 7, 74, 0
8, 430848, Note_off_c, 7, 78, 0
8, 430848, Note_off_c, 7, 81, 0
8, 431104, Note_on_c, 7, 72, 112
8, 431104, Note_on_c, 7, 74, 112
8, 431104, Note_on_c, 7, 78, 112
8, 431104, Note_on_c, 7, 81, 112
8, 431360, Note_off_c, 7, 72, 0
8, 431360, Note_off_c, 7, 74, 0
8, 431360, Note_off_c, 7, 78, 0
8, 431360, Note_off_c, 7, 81, 0
8, 431616, Note_on_c, 7, 76, 110
8, 431616, Note_on_c, 7, 78, 110
8, 431616, Note_on_c, 7, 80, 110
8, 431616, Note_on_c, 7, 81, 110
8, 431872, Note_off_c, 7, 76, 0
8, 431872, Note_off_c, 7, 78, 0
8, 431872, Note_off_c, 7, 80, 0
8, 431872, Note_off_c, 7, 81, 0
8, 432256, Note_on_c, 7, 71, 112
8, 432256, Note_on_c, 7, 74, 112
8, 432256, Note_on_c, 7, 78, 112
8, 432256, Note_on_c, 7, 81, 112
8, 432512, Note_off_c, 7, 71, 0
8, 432512, Note_off_c, 7, 74, 0
8, 432512, Note_off_c, 7, 78, 0
8, 432512, Note_off_c, 7, 81, 0
8, 432640, Note_on_c, 7, 68, 112
8, 432640, Note_on_c, 7, 74, 112
8, 432640, Note_on_c, 7, 78, 112
8, 432640, Note_on_c, 7, 81, 112
8, 432896, Note_off_c, 7, 68, 0
8, 432896, Note_off_c, 7, 74, 0
8, 432896, Note_off_c, 7, 78, 0
8, 432896, Note_off_c, 7, 81, 0
8, 433152, Note_on_c, 7, 67, 114
8, 433152, Note_on_c, 7, 74, 114
8, 433152, Note_on_c, 7, 78, 114
8, 433152, Note_on_c, 7, 81, 114
8, 433408, Note_off_c, 7, 67, 0
8, 433408, Note_off_c, 7, 74, 0
8, 433408, Note_off_c, 7, 78, 0
8, 433408, Note_off_c, 7, 81, 0
8, 433664, Note_on_c, 7, 67, 115
8, 433664, Note_on_c, 7, 74, 115
8, 433664, Note_on_c, 7, 78, 115
8, 433664, Note_on_c, 7, 81, 115
8, 433920, Note_off_c, 7, 67, 0
8, 433920, Note_off_c, 7, 74, 0
8, 433920, Note_off_c, 7, 78, 0
8, 433920, Note_off_c, 7, 81, 0
8, 434304, Note_on_c, 7, 76, 115
8, 434304, Note_on_c, 7, 78, 115
8, 434304, Note_on_c, 7, 80, 115
8, 434304, Note_on_c, 7, 81, 115
8, 434560, Note_off_c, 7, 76, 0
8, 434560, Note_off_c, 7, 78, 0
8, 434560, Note_off_c, 7, 80, 0
8, 434560, Note_off_c, 7, 81, 0
8, 434688, Note_on_c, 7, 74, 110
8, 434688, Note_on_c, 7, 76, 110
8, 434944, Note_off_c, 7, 74, 0
8, 434944, Note_off_c, 7, 76, 0
8, 435328, Note_on_c, 7, 73, 115
8, 435328, Note_on_c, 7, 74, 115
8, 435328, Note_on_c, 7, 77, 115
8, 435328, Note_on_c, 7, 81, 115
8, 435584, Note_off_c, 7, 73, 0
8, 435584, Note_off_c, 7, 74, 0
8, 435584, Note_off_c, 7, 77, 0
8, 435584, Note_off_c, 7, 81, 0
8, 435712, Note_on_c, 7, 72, 114
8, 435712, Note_on_c, 7, 74, 114
8, 435712, Note_on_c, 7, 78, 114
8, 435712, Note_on_c, 7, 81, 114
8, 435968, Note_off_c, 7, 72, 0
8, 435968, Note_off_c, 7, 74, 0
8, 435968, Note_off_c, 7, 78, 0
8, 435968, Note_off_c, 7, 81, 0
8, 436224, Note_on_c, 7, 72, 112
8, 436224, Note_on_c, 7, 74, 112
8, 436224, Note_on_c, 7, 78, 112
8, 436224, Note_on_c, 7, 81, 112
8, 436480, Note_off_c, 7, 72, 0
8, 436480, Note_off_c, 7, 74, 0
8, 436480, Note_off_c, 7, 78, 0
8, 436480, Note_off_c, 7, 81, 0
8, 436864, Note_on_c, 7, 74, 119
8, 436864, Note_on_c, 7, 78, 119
8, 436864, Note_on_c, 7, 81, 119
8, 436864, Note_on_c, 7, 86, 119
8, 437120, Note_off_c, 7, 74, 0
8, 437120, Note_off_c, 7, 78, 0
8, 437120, Note_off_c, 7, 81, 0
8, 437120, Note_off_c, 7, 86, 0
8, 437504, Note_on_c, 7, 74, 112
8, 437504, Note_on_c, 7, 78, 112
8, 437504, Note_on_c, 7, 81, 112
8, 437504, Note_on_c, 7, 83, 112
8, 437760, Note_off_c, 7, 74, 0
8, 437760, Note_off_c, 7, 78, 0
8, 437760, Note_off_c, 7, 81, 0
8, 437760, Note_off_c, 7, 83, 0
8, 438016, Note_on_c, 7, 76, 106
8, 438016, Note_on_c, 7, 78, 106
8, 438016, Note_on_c, 7, 80, 106
8, 438016, Note_on_c, 7, 81, 106
8, 438272, Note_off_c, 7, 76, 0
8, 438272, Note_off_c, 7, 78, 0
8, 438272, Note_off_c, 7, 80, 0
8, 438272, Note_off_c, 7, 81, 0
8, 438400, Note_on_c, 7, 71, 111
8, 438400, Note_on_c, 7, 74, 111
8, 438400, Note_on_c, 7, 78, 111
8, 438400, Note_on_c, 7, 81, 111
8, 438656, Note_off_c, 7, 71, 0
8, 438656, Note_off_c, 7, 74, 0
8, 438656, Note_off_c, 7, 78, 0
8, 438656, Note_off_c, 7, 81, 0
8, 438912, Note_on_c, 7, 73, 112
8, 438912, Note_on_c, 7, 74, 112
8, 438912, Note_on_c, 7, 78, 112
8, 438912, Note_on_c, 7, 81, 112
8, 439168, Note_off_c, 7, 73, 0
8, 439168, Note_off_c, 7, 74, 0
8, 439168, Note_off_c, 7, 78, 0
8, 439168, Note_off_c, 7, 81, 0
8, 439296, Note_on_c, 7, 74, 113
8, 439296, Note_on_c, 7, 78, 113
8, 439296, Note_on_c, 7, 81, 113
8, 439552, Note_off_c, 7, 74, 0
8, 439552, Note_off_c, 7, 78, 0
8, 439552, Note_off_c, 7, 81, 0
8, 439808, Note_on_c, 7, 72, 114
8, 439808, Note_on_c, 7, 74, 114
8, 439808, Note_on_c, 7, 78, 114
8, 439808, Note_on_c, 7, 81, 114
8, 440064, Note_off_c, 7, 72, 0
8, 440064, Note_off_c, 7, 74, 0
8, 440064, Note_off_c, 7, 78, 0
8, 440064, Note_off_c, 7, 81, 0
8, 440320, Note_on_c, 7, 72, 114
8, 440320, Note_on_c, 7, 74, 114
8, 440320, Note_on_c, 7, 78, 114
8, 440320, Note_on_c, 7, 81, 114
8, 440576, Note_off_c, 7, 72, 0
8, 440576, Note_off_c, 7, 74, 0
8, 440576, Note_off_c, 7, 78, 0
8, 440576, Note_off_c, 7, 81, 0
8, 440832, Note_on_c, 7, 72, 109
8, 440832, Note_on_c, 7, 74, 109
8, 440832, Note_on_c, 7, 78, 109
8, 441088, Note_off_c, 7, 72, 0
8, 441088, Note_off_c, 7, 74, 0
8, 441088, Note_off_c, 7, 78, 0
8, 441088, Note_on_c, 7, 72, 127
8, 441088, Note_on_c, 7, 74, 127
8, 441088, Note_on_c, 7, 78, 127
8, 441344, Note_off_c, 7, 72, 0
8, 441344, Note_off_c, 7, 74, 0
8, 441344, Note_off_c, 7, 78, 0
8, 441600, Note_on_c, 7, 70, 116
8, 441600, Note_on_c, 7, 73, 116
8, 441856, Note_off_c, 7, 70, 0
8, 441856, Note_off_c, 7, 73, 0
8, 442368, Note_on_c, 7, 74, 113
8, 442368, Note_on_c, 7, 78, 113
8, 442368, Note_on_c, 7, 80, 113
8, 442368, Note_on_c, 7, 81, 113
8, 442624, Note_off_c, 7, 74, 0
8, 442624, Note_off_c, 7, 78, 0
8, 442624, Note_off_c, 7, 80, 0
8, 442624, Note_off_c, 7, 81, 0
8, 442624, Note_on_c, 7, 72, 127
8, 442624, Note_on_c, 7, 76, 127
8, 442624, Note_on_c, 7, 80, 127
8, 442624, Note_on_c, 7, 83, 127
8, 442880, Note_off_c, 7, 72, 0
8, 442880, Note_off_c, 7, 76, 0
8, 442880, Note_off_c, 7, 80, 0
8, 442880, Note_off_c, 7, 83, 0
8, 442880, Note_on_c, 7, 73, 118
8, 442880, Note_on_c, 7, 74, 118
8, 442880, Note_on_c, 7, 78, 118
8, 442880, Note_on_c, 7, 81, 118
8, 443136, Note_off_c, 7, 73, 0
8, 443136, Note_off_c, 7, 74, 0
8, 443136, Note_off_c, 7, 78, 0
8, 443136, Note_off_c, 7, 81, 0
8, 443264, Note_on_c, 7, 72, 115
8, 443264, Note_on_c, 7, 74, 115
8, 443264, Note_on_c, 7, 78, 115
8, 443264, Note_on_c, 7, 81, 115
8, 443520, Note_off_c, 7, 72, 0
8, 443520, Note_off_c, 7, 74, 0
8, 443520, Note_off_c, 7, 78, 0
8, 443520, Note_off_c, 7, 81, 0
8, 443648, Note_on_c, 7, 69, 119
8, 443648, Note_on_c, 7, 74, 119
8, 443648, Note_on_c, 7, 78, 119
8, 443648, Note_on_c, 7, 81, 119
8, 443904, Note_off_c, 7, 69, 0
8, 443904, Note_off_c, 7, 74, 0
8, 443904, Note_off_c, 7, 78, 0
8, 443904, Note_off_c, 7, 81, 0
8, 444160, Note_on_c, 7, 72, 109
8, 444160, Note_on_c, 7, 74, 109
8, 444160, Note_on_c, 7, 78, 109
8, 444160, Note_on_c, 7, 81, 109
8, 444416, Note_off_c, 7, 72, 0
8, 444416, Note_off_c, 7, 74, 0
8, 444416, Note_off_c, 7, 78, 0
8, 444416, Note_off_c, 7, 81, 0
8, 444544, Note_on_c, 7, 69, 114
8, 444544, Note_on_c, 7, 72, 114
8, 444544, Note_on_c, 7, 74, 114
8, 444544, Note_on_c, 7, 78, 114
8, 444800, Note_off_c, 7, 69, 0
8, 444800, Note_off_c, 7, 72, 0
8, 444800, Note_off_c, 7, 74, 0
8, 444800, Note_off_c, 7, 78, 0
8, 444800, Note_on_c, 7, 61, 107
8, 444800, Note_on_c, 7, 68, 107
8, 444800, Note_on_c, 7, 70, 107
8, 444800, Note_on_c, 7, 73, 107
8, 445056, Note_off_c, 7, 61, 0
8, 445056, Note_off_c, 7, 68, 0
8, 445056, Note_off_c, 7, 70, 0
8, 445056, Note_off_c, 7, 73, 0
8, 445056, Note_on_c, 7, 61, 111
8, 445056, Note_on_c, 7, 66, 111
8, 445056, Note_on_c, 7, 68, 111
8, 445056, Note_on_c, 7, 71, 111
8, 445312, Note_off_c, 7, 61, 0
8, 445312, Note_off_c, 7, 66, 0
8, 445312, Note_off_c, 7, 68, 0
8, 445312, Note_off_c, 7, 71, 0
8, 445312, Note_on_c, 7, 64, 127
8, 445312, Note_on_c, 7, 69, 127
8, 445312, Note_on_c, 7, 71, 127
8, 445312, Note_on_c, 7, 74, 127
8, 445696, Note_off_c, 7, 64, 0
8, 445696, Note_off_c, 7, 69, 0
8, 445696, Note_off_c, 7, 71, 0
8, 445696, Note_off_c, 7, 74, 0
8, 445696, Note_on_c, 7, 73, 127
8, 445696, Note_on_c, 7, 76, 127
8, 445696, Note_on_c, 7, 78, 127
8, 445696, Note_on_c, 7, 81, 127
8, 445952, Note_off_c, 7, 73, 0
8, 445952, Note_off_c, 7, 76, 0
8, 445952, Note_off_c, 7, 78, 0
8, 445952, Note_off_c, 7, 81, 0
8, 446208, Note_on_c, 7, 71, 113
8, 446208, Note_on_c, 7, 74, 113
8, 446208, Note_on_c, 7, 78, 113
8, 446208, Note_on_c, 7, 81, 113
8, 446464, Note_off_c, 7, 71, 0
8, 446464, Note_off_c, 7, 74, 0
8, 446464, Note_off_c, 7, 78, 0
8, 446464, Note_off_c, 7, 81, 0
8, 446720, Note_on_c, 7, 73, 116
8, 446720, Note_on_c, 7, 74, 116
8, 446720, Note_on_c, 7, 78, 116
8, 446720, Note_on_c, 7, 81, 116
8, 446976, Note_off_c, 7, 73, 0
8, 446976, Note_off_c, 7, 74, 0
8, 446976, Note_off_c, 7, 78, 0
8, 446976, Note_off_c, 7, 81, 0
8, 446976, Note_on_c, 7, 72, 121
8, 446976, Note_on_c, 7, 74, 121
8, 446976, Note_on_c, 7, 78, 121
8, 446976, Note_on_c, 7, 81, 121
8, 447232, Note_off_c, 7, 72, 0
8, 447232, Note_off_c, 7, 74, 0
8, 447232, Note_off_c, 7, 78, 0
8, 447232, Note_off_c, 7, 81, 0
8, 447360, Note_on_c, 7, 76, 113
8, 447360, Note_on_c, 7, 78, 113
8, 447360, Note_on_c, 7, 80, 113
8, 447360, Note_on_c, 7, 81, 113
8, 447616, Note_off_c, 7, 76, 0
8, 447616, Note_off_c, 7, 78, 0
8, 447616, Note_off_c, 7, 80, 0
8, 447616, Note_off_c, 7, 81, 0
8, 447744, Note_on_c, 7, 71, 116
8, 447744, Note_on_c, 7, 74, 116
8, 447744, Note_on_c, 7, 78, 116
8, 447744, Note_on_c, 7, 81, 116
8, 448000, Note_off_c, 7, 71, 0
8, 448000, Note_off_c, 7, 74, 0
8, 448000, Note_off_c, 7, 78, 0
8, 448000, Note_off_c, 7, 81, 0
8, 448128, Note_on_c, 7, 66, 117
8, 448128, Note_on_c, 7, 74, 117
8, 448128, Note_on_c, 7, 78, 117
8, 448128, Note_on_c, 7, 81, 117
8, 448384, Note_off_c, 7, 66, 0
8, 448384, Note_off_c, 7, 74, 0
8, 448384, Note_off_c, 7, 78, 0
8, 448384, Note_off_c, 7, 81, 0
8, 448640, Note_on_c, 7, 72, 119
8, 448640, Note_on_c, 7, 74, 119
8, 448640, Note_on_c, 7, 78, 119
8, 448896, Note_off_c, 7, 72, 0
8, 448896, Note_off_c, 7, 74, 0
8, 448896, Note_off_c, 7, 78, 0
8, 448896, Note_on_c, 7, 74, 127
8, 448896, Note_on_c, 7, 76, 127
8, 448896, Note_on_c, 7, 80, 127
8, 449152, Note_off_c, 7, 74, 0
8, 449152, Note_off_c, 7, 76, 0
8, 449152, Note_off_c, 7, 80, 0
8, 449280, Note_on_c, 7, 76, 112
8, 449280, Note_on_c, 7, 78, 112
8, 449280, Note_on_c, 7, 80, 112
8, 449280, Note_on_c, 7, 81, 112
8, 449536, Note_off_c, 7, 76, 0
8, 449536, Note_off_c, 7, 78, 0
8, 449536, Note_off_c, 7, 80, 0
8, 449536, Note_off_c, 7, 81, 0
8, 449664, Note_on_c, 7, 72, 114
8, 449664, Note_on_c, 7, 74, 114
8, 449664, Note_on_c, 7, 76, 114
8, 449664, Note_on_c, 7, 78, 114
8, 449920, Note_off_c, 7, 72, 0
8, 449920, Note_off_c, 7, 74, 0
8, 449920, Note_off_c, 7, 76, 0
8, 449920, Note_off_c, 7, 78, 0
8, 450048, Note_on_c, 7, 73, 114
8, 450048, Note_on_c, 7, 74, 114
8, 450048, Note_on_c, 7, 78, 114
8, 450048, Note_on_c, 7, 80, 114
8, 450304, Note_off_c, 7, 73, 0
8, 450304, Note_off_c, 7, 74, 0
8, 450304, Note_off_c, 7, 78, 0
8, 450304, Note_off_c, 7, 80, 0
8, 450304, Note_on_c, 7, 72, 127
8, 450304, Note_on_c, 7, 74, 127
8, 450304, Note_on_c, 7, 78, 127
8, 450304, Note_on_c, 7, 81, 127
8, 450560, Note_off_c, 7, 72, 0
8, 450560, Note_off_c, 7, 74, 0
8, 450560, Note_off_c, 7, 78, 0
8, 450560, Note_off_c, 7, 81, 0
8, 450816, Note_on_c, 7, 72, 114
8, 450816, Note_on_c, 7, 74, 114
8, 450816, Note_on_c, 7, 78, 114
8, 450816, Note_on_c, 7, 81, 114
8, 451072, Note_off_c, 7, 72, 0
8, 451072, Note_off_c, 7, 74, 0
8, 451072, Note_off_c, 7, 78, 0
8, 451072, Note_off_c, 7, 81, 0
8, 451456, Note_on_c, 7, 74, 110
8, 451456, Note_on_c, 7, 78, 110
8, 451456, Note_on_c, 7, 81, 110
8, 451456, Note_on_c, 7, 86, 110
8, 451712, Note_off_c, 7, 74, 0
8, 451712, Note_off_c, 7, 78, 0
8, 451712, Note_off_c, 7, 81, 0
8, 451712, Note_off_c, 7, 86, 0
8, 451968, Note_on_c, 7, 74, 108
8, 451968, Note_on_c, 7, 78, 108
8, 451968, Note_on_c, 7, 81, 108
8, 451968, Note_on_c, 7, 83, 108
8, 452224, Note_off_c, 7, 74, 0
8, 452224, Note_off_c, 7, 78, 0
8, 452224, Note_off_c, 7, 81, 0
8, 452224, Note_off_c, 7, 83, 0
8, 452480, Note_on_c, 7, 76, 116
8, 452480, Note_on_c, 7, 78, 116
8, 452480, Note_on_c, 7, 80, 116
8, 452480, Note_on_c, 7, 81, 116
8, 452736, Note_off_c, 7, 76, 0
8, 452736, Note_off_c, 7, 78, 0
8, 452736, Note_off_c, 7, 80, 0
8, 452736, Note_off_c, 7, 81, 0
8, 452864, Note_on_c, 7, 71, 112
8, 452864, Note_on_c, 7, 74, 112
8, 452864, Note_on_c, 7, 78, 112
8, 452864, Note_on_c, 7, 81, 112
8, 453120, Note_off_c, 7, 71, 0
8, 453120, Note_off_c, 7, 74, 0
8, 453120, Note_off_c, 7, 78, 0
8, 453120, Note_off_c, 7, 81, 0
8, 453376, Note_on_c, 7, 73, 116
8, 453376, Note_on_c, 7, 74, 116
8, 453376, Note_on_c, 7, 78, 116
8, 453376, Note_on_c, 7, 81, 116
8, 453632, Note_off_c, 7, 73, 0
8, 453632, Note_off_c, 7, 74, 0
8, 453632, Note_off_c, 7, 78, 0
8, 453632, Note_off_c, 7, 81, 0
8, 453632, Note_on_c, 7, 72, 127
8, 453632, Note_on_c, 7, 74, 127
8, 453632, Note_on_c, 7, 78, 127
8, 453632, Note_on_c, 7, 81, 127
8, 453888, Note_off_c, 7, 72, 0
8, 453888, Note_off_c, 7, 74, 0
8, 453888, Note_off_c, 7, 78, 0
8, 453888, Note_off_c, 7, 81, 0
8, 454016, Note_on_c, 7, 71, 113
8, 454016, Note_on_c, 7, 74, 113
8, 454016, Note_on_c, 7, 78, 113
8, 454016, Note_on_c, 7, 81, 113
8, 454272, Note_off_c, 7, 71, 0
8, 454272, Note_off_c, 7, 74, 0
8, 454272, Note_off_c, 7, 78, 0
8, 454272, Note_off_c, 7, 81, 0
8, 454528, Note_on_c, 7, 70, 112
8, 454528, Note_on_c, 7, 74, 112
8, 454528, Note_on_c, 7, 78, 112
8, 454528, Note_on_c, 7, 81, 112
8, 454912, Note_off_c, 7, 70, 0
8, 454912, Note_off_c, 7, 74, 0
8, 454912, Note_off_c, 7, 78, 0
8, 454912, Note_off_c, 7, 81, 0
8, 454912, Note_on_c, 7, 69, 112
8, 454912, Note_on_c, 7, 72, 112
8, 454912, Note_on_c, 7, 74, 112
8, 454912, Note_on_c, 7, 78, 112
8, 455168, Note_off_c, 7, 69, 0
8, 455168, Note_off_c, 7, 72, 0
8, 455168, Note_off_c, 7, 74, 0
8, 455168, Note_off_c, 7, 78, 0
8, 455168, Note_on_c, 7, 67, 123
8, 455168, Note_on_c, 7, 72, 123
8, 455168, Note_on_c, 7, 74, 123
8, 455168, Note_on_c, 7, 78, 123
8, 455424, Note_off_c, 7, 67, 0
8, 455424, Note_off_c, 7, 72, 0
8, 455424, Note_off_c, 7, 74, 0
8, 455424, Note_off_c, 7, 78, 0
8, 455424, Note_on_c, 7, 68, 107
8, 455424, Note_on_c, 7, 70, 107
8, 455424, Note_on_c, 7, 73, 107
8, 455680, Note_off_c, 7, 68, 0
8, 455680, Note_off_c, 7, 70, 0
8, 455680, Note_off_c, 7, 73, 0
8, 455680, Note_on_c, 7, 62, 107
8, 455680, Note_on_c, 7, 66, 107
8, 455680, Note_on_c, 7, 68, 107
8, 455936, Note_off_c, 7, 62, 0
8, 455936, Note_off_c, 7, 66, 0
8, 455936, Note_off_c, 7, 68, 0
8, 455936, Note_on_c, 7, 66, 127
8, 455936, Note_on_c, 7, 67, 127
8, 455936, Note_on_c, 7, 71, 127
8, 456192, Note_off_c, 7, 66, 0
8, 456192, Note_off_c, 7, 67, 0
8, 456192, Note_off_c, 7, 71, 0
8, 456576, Note_on_c, 7, 76, 111
8, 456576, Note_on_c, 7, 78, 111
8, 456576, Note_on_c, 7, 80, 111
8, 456576, Note_on_c, 7, 81, 111
8, 456832, Note_off_c, 7, 76, 0
8, 456832, Note_off_c, 7, 78, 0
8, 456832, Note_off_c, 7, 80, 0
8, 456832, Note_off_c, 7, 81, 0
8, 456832, Note_on_c, 7, 71, 127
8, 456832, Note_on_c, 7, 74, 127
8, 456832, Note_on_c, 7, 78, 127
8, 456832, Note_on_c, 7, 81, 127
8, 457088, Note_off_c, 7, 71, 0
8, 457088, Note_off_c, 7, 74, 0
8, 457088, Note_off_c, 7, 78, 0
8, 457088, Note_off_c, 7, 81, 0
8, 457088, Note_on_c, 7, 73, 127
8, 457088, Note_on_c, 7, 74, 127
8, 457088, Note_on_c, 7, 78, 127
8, 457088, Note_on_c, 7, 81, 127
8, 457344, Note_off_c, 7, 73, 0
8, 457344, Note_off_c, 7, 74, 0
8, 457344, Note_off_c, 7, 78, 0
8, 457344, Note_off_c, 7, 81, 0
8, 457472, Note_on_c, 7, 72, 117
8, 457472, Note_on_c, 7, 74, 117
8, 457472, Note_on_c, 7, 78, 117
8, 457472, Note_on_c, 7, 81, 117
8, 457728, Note_off_c, 7, 72, 0
8, 457728, Note_off_c, 7, 74, 0
8, 457728, Note_off_c, 7, 78, 0
8, 457728, Note_off_c, 7, 81, 0
8, 457856, Note_on_c, 7, 72, 116
8, 457856, Note_on_c, 7, 74, 116
8, 457856, Note_on_c, 7, 78, 116
8, 457856, Note_on_c, 7, 81, 116
8, 458112, Note_off_c, 7, 72, 0
8, 458112, Note_off_c, 7, 74, 0
8, 458112, Note_off_c, 7, 78, 0
8, 458112, Note_off_c, 7, 81, 0
8, 458240, Note_on_c, 7, 72, 127
8, 458240, Note_on_c, 7, 74, 127
8, 458240, Note_on_c, 7, 78, 127
8, 458240, Note_on_c, 7, 81, 127
8, 459136, Note_off_c, 7, 72, 0
8, 459136, Note_off_c, 7, 74, 0
8, 459136, Note_off_c, 7, 78, 0
8, 459136, Note_off_c, 7, 81, 0
8, 459136, Note_on_c, 7, 73, 127
8, 459136, Note_on_c, 7, 74, 127
8, 459136, Note_on_c, 7, 78, 127
8, 459136, Note_on_c, 7, 81, 127
8, 459776, Note_off_c, 7, 73, 0
8, 459776, Note_off_c, 7, 74, 0
8, 459776, Note_off_c, 7, 78, 0
8, 459776, Note_off_c, 7, 81, 0
8, 460032, Note_on_c, 7, 74, 113
8, 460032, Note_on_c, 7, 75, 113
8, 460032, Note_on_c, 7, 77, 113
8, 460032, Note_on_c, 7, 82, 113
8, 460373, Note_off_c, 7, 74, 0
8, 460373, Note_off_c, 7, 75, 0
8, 460373, Note_off_c, 7, 77, 0
8, 460373, Note_off_c, 7, 82, 0
8, 460373, Note_on_c, 7, 70, 113
8, 460373, Note_on_c, 7, 71, 113
8, 460373, Note_on_c, 7, 76, 113
8, 460373, Note_on_c, 7, 79, 113
8, 460714, Note_off_c, 7, 70, 0
8, 460714, Note_off_c, 7, 71, 0
8, 460714, Note_off_c, 7, 76, 0
8, 460714, Note_off_c, 7, 79, 0
8, 460714, Note_on_c, 7, 73, 127
8, 460714, Note_on_c, 7, 74, 127
8, 460714, Note_on_c, 7, 77, 127
8, 460714, Note_on_c, 7, 80, 127
8, 461056, Note_off_c, 7, 73, 0
8, 461056, Note_off_c, 7, 74, 0
8, 461056, Note_off_c, 7, 77, 0
8, 461056, Note_off_c, 7, 80, 0
8, 461056, Note_on_c, 7, 75, 127
8, 461056, Note_on_c, 7, 74, 127
8, 461056, Note_on_c, 7, 78, 127
8, 461056, Note_on_c, 7, 81, 127
8, 461397, Note_off_c, 7, 75, 0
8, 461397, Note_off_c, 7, 74, 0
8, 461397, Note_off_c, 7, 78, 0
8, 461397, Note_off_c, 7, 81, 0
8, 461397, Note_on_c, 7, 74, 127
8, 461397, Note_on_c, 7, 76, 127
8, 461397, Note_on_c, 7, 79, 127
8, 461397, Note_on_c, 7, 82, 127
8, 461738, Note_off_c, 7, 74, 0
8, 461738, Note_off_c, 7, 76, 0
8, 461738, Note_off_c, 7, 79, 0
8, 461738, Note_off_c, 7, 82, 0
8, 461738, Note_on_c, 7, 75, 120
8, 461738, Note_on_c, 7, 74, 120
8, 461738, Note_on_c, 7, 78, 120
8, 461738, Note_on_c, 7, 81, 120
8, 462080, Note_off_c, 7, 75, 0
8, 462080, Note_off_c, 7, 74, 0
8, 462080, Note_off_c, 7, 78, 0
8, 462080, Note_off_c, 7, 81, 0
8, 462080, Note_on_c, 7, 76, 127
8, 462080, Note_on_c, 7, 77, 127
8, 462080, Note_on_c, 7, 80, 127
8, 462080, Note_on_c, 7, 83, 127
8, 462421, Note_off_c, 7, 76, 0
8, 462421, Note_off_c, 7, 77, 0
8, 462421, Note_off_c, 7, 80, 0
8, 462421, Note_off_c, 7, 83, 0
8, 462421, Note_on_c, 7, 73, 118
8, 462421, Note_on_c, 7, 74, 118
8, 462421, Note_on_c, 7, 77, 118
8, 462421, Note_on_c, 7, 80, 118
8, 462506, Note_off_c, 7, 73, 0
8, 462506, Note_off_c, 7, 74, 0
8, 462506, Note_off_c, 7, 77, 0
8, 462506, Note_off_c, 7, 80, 0
8, 462848, Note_on_c, 7, 75, 112
8, 462848, Note_on_c, 7, 74, 112
8, 462848, Note_on_c, 7, 78, 112
8, 462848, Note_on_c, 7, 81, 112
8, 462912, Note_off_c, 7, 75, 0
8, 462912, Note_off_c, 7, 74, 0
8, 462912, Note_off_c, 7, 78, 0
8, 462912, Note_off_c, 7, 81, 0
8, 463488, Note_on_c, 7, 78, 116
8, 463488, Note_on_c, 7, 77, 116
8, 463488, Note_on_c, 7, 81, 116
8, 463488, Note_on_c, 7, 84, 116
8, 463552, Note_off_c, 7, 78, 0
8, 463552, Note_off_c, 7, 77, 0
8, 463552, Note_off_c, 7, 81, 0
8, 463552, Note_off_c, 7, 84, 0
8, 464640, Note_on_c, 7, 75, 112
8, 464640, Note_on_c, 7, 78, 112
8, 464640, Note_on_c, 7, 81, 112
8, 464640, Note_on_c, 7, 84, 112
8, 464704, Note_off_c, 7, 75, 0
8, 464704, Note_off_c, 7, 78, 0
8, 464704, Note_off_c, 7, 81, 0
8, 464704, Note_off_c, 7, 84, 0
8, 465664, Note_on_c, 7, 74, 118
8, 465664, Note_on_c, 7, 75, 118
8, 465664, Note_on_c, 7, 78, 118
8, 465664, Note_on_c, 7, 81, 118
8, 465728, Note_off_c, 7, 74, 0
8, 465728, Note_off_c, 7, 75, 0
8, 465728, Note_off_c, 7, 78, 0
8, 465728, Note_off_c, 7, 81, 0
8, 466688, Note_on_c, 7, 74, 112
8, 466688, Note_on_c, 7, 75, 112
8, 466688, Note_on_c, 7, 78, 112
8, 466688, Note_on_c, 7, 81, 112
8, 468096, Note_off_c, 7, 74, 0
8, 468096, Note_off_c, 7, 75, 0
8, 468096, Note_off_c, 7, 78, 0
8, 468096, Note_off_c, 7, 81, 0
8, 468097, End_track
9, 0, Start_track
9, 0, Program_c, 2, 47
9, 0, Control_c, 2, 121, 0
9, 0, Control_c, 2, 64, 0
9, 0, Control_c, 2, 91, 72
9, 0, Control_c, 2, 10, 89
9, 0, Control_c, 2, 7, 127
9, 0, Control_c, 2, 121, 0
9, 0, Control_c, 2, 64, 0
9, 0, Control_c, 2, 91, 72
9, 0, Control_c, 2, 10, 89
9, 0, Control_c, 2, 7, 127
9, 0, Title_t, "Timpani"
9, 84544, Note_on_c, 2, 48, 127
9, 84608, Note_off_c, 2, 48, 0
9, 84800, Note_on_c, 2, 48, 127
9, 84864, Note_off_c, 2, 48, 0
9, 85184, Note_on_c, 2, 48, 127
9, 85248, Note_off_c, 2, 48, 0
9, 85440, Note_on_c, 2, 48, 127
9, 85504, Note_off_c, 2, 48, 0
9, 85824, Note_on_c, 2, 48, 127
9, 85888, Note_off_c, 2, 48, 0
9, 86080, Note_on_c, 2, 48, 127
9, 86208, Note_off_c, 2, 48, 0
9, 86208, Note_on_c, 2, 48, 127
9, 86272, Note_off_c, 2, 48, 0
9, 86592, Note_on_c, 2, 48, 127
9, 86656, Note_off_c, 2, 48, 0
9, 87104, Note_on_c, 2, 48, 127
9, 87168, Note_off_c, 2, 48, 0
9, 87360, Note_on_c, 2, 48, 127
9, 87424, Note_off_c, 2, 48, 0
9, 87680, Note_on_c, 2, 48, 127
9, 87744, Note_off_c, 2, 48, 0
9, 88000, Note_on_c, 2, 48, 127
9, 88064, Note_off_c, 2, 48, 0
9, 88768, Note_on_c, 2, 48, 127
9, 88832, Note_off_c, 2, 48, 0
9, 89280, Note_on_c, 2, 48, 127
9, 89344, Note_off_c, 2, 48, 0
9, 90688, Note_on_c, 2, 48, 127
9, 90752, Note_off_c, 2, 48, 0
9, 90944, Note_on_c, 2, 48, 127
9, 91008, Note_off_c, 2, 48, 0
9, 91200, Note_on_c, 2, 48, 127
9, 91264, Note_off_c, 2, 48, 0
9, 91456, Note_on_c, 2, 48, 127
9, 91520, Note_off_c, 2, 48, 0
9, 91712, Note_on_c, 2, 48, 127
9, 91776, Note_off_c, 2, 48, 0
9, 91968, Note_on_c, 2, 48, 127
9, 92032, Note_off_c, 2, 48, 0
9, 92224, Note_on_c, 2, 48, 127
9, 92288, Note_off_c, 2, 48, 0
9, 92480, Note_on_c, 2, 48, 127
9, 92544, Note_off_c, 2, 48, 0
9, 92736, Note_on_c, 2, 48, 127
9, 92800, Note_off_c, 2, 48, 0
9, 92992, Note_on_c, 2, 48, 127
9, 93056, Note_off_c, 2, 48, 0
9, 93248, Note_on_c, 2, 48, 127
9, 93312, Note_off_c, 2, 48, 0
9, 93504, Note_on_c, 2, 48, 127
9, 93568, Note_off_c, 2, 48, 0
9, 93760, Note_on_c, 2, 48, 127
9, 93824, Note_off_c, 2, 48, 0
9, 94016, Note_on_c, 2, 48, 127
9, 94080, Note_off_c, 2, 48, 0
9, 94208, Note_on_c, 2, 48, 127
9, 94272, Note_off_c, 2, 48, 0
9, 94464, Note_on_c, 2, 46, 127
9, 94528, Note_off_c, 2, 46, 0
9, 94720, Note_on_c, 2, 46, 127
9, 94784, Note_off_c, 2, 46, 0
9, 94976, Note_on_c, 2, 40, 127
9, 95040, Note_off_c, 2, 40, 0
9, 95232, Note_on_c, 2, 40, 127
9, 95296, Note_off_c, 2, 40, 0
9, 95488, Note_on_c, 2, 40, 127
9, 95552, Note_off_c, 2, 40, 0
9, 95744, Note_on_c, 2, 40, 127
9, 95808, Note_off_c, 2, 40, 0
9, 96000, Note_on_c, 2, 40, 127
9, 96064, Note_off_c, 2, 40, 0
9, 96256, Note_on_c, 2, 40, 127
9, 96320, Note_off_c, 2, 40, 0
9, 96512, Note_on_c, 2, 40, 127
9, 96576, Note_off_c, 2, 40, 0
9, 96768, Note_on_c, 2, 40, 127
9, 96832, Note_off_c, 2, 40, 0
9, 97024, Note_on_c, 2, 40, 127
9, 97088, Note_off_c, 2, 40, 0
9, 97280, Note_on_c, 2, 48, 127
9, 97344, Note_off_c, 2, 48, 0
9, 97472, Note_on_c, 2, 48, 127
9, 97536, Note_off_c, 2, 48, 0
9, 97664, Note_on_c, 2, 48, 127
9, 97728, Note_off_c, 2, 48, 0
9, 97920, Note_on_c, 2, 48, 127
9, 97984, Note_off_c, 2, 48, 0
9, 98112, Note_on_c, 2, 48, 127
9, 98176, Note_off_c, 2, 48, 0
9, 98304, Note_on_c, 2, 48, 127
9, 98368, Note_off_c, 2, 48, 0
9, 98560, Note_on_c, 2, 49, 127
9, 98624, Note_off_c, 2, 49, 0
9, 98752, Note_on_c, 2, 49, 127
9, 98816, Note_off_c, 2, 49, 0
9, 98944, Note_on_c, 2, 49, 127
9, 99008, Note_off_c, 2, 49, 0
9, 99200, Note_on_c, 2, 49, 127
9, 99264, Note_off_c, 2, 49, 0
9, 99392, Note_on_c, 2, 49, 127
9, 99456, Note_off_c, 2, 49, 0
9, 99584, Note_on_c, 2, 49, 127
9, 99648, Note_off_c, 2, 49, 0
9, 99840, Note_on_c, 2, 49, 127
9, 99904, Note_off_c, 2, 49, 0
9, 100032, Note_on_c, 2, 49, 127
9, 100096, Note_off_c, 2, 49, 0
9, 100160, Note_on_c, 2, 49, 127
9, 100224, Note_off_c, 2, 49, 0
9, 100352, Note_on_c, 2, 49, 127
9, 100416, Note_off_c, 2, 49, 0
9, 100544, Note_on_c, 2, 49, 127
9, 100608, Note_off_c, 2, 49, 0
9, 100736, Note_on_c, 2, 49, 127
9, 100800, Note_off_c, 2, 49, 0
9, 100928, Note_on_c, 2, 49, 127
9, 100992, Note_off_c, 2, 49, 0
9, 101120, Note_on_c, 2, 49, 127
9, 101184, Note_off_c, 2, 49, 0
9, 101376, Note_on_c, 2, 49, 127
9, 101440, Note_off_c, 2, 49, 0
9, 101568, Note_on_c, 2, 49, 127
9, 101632, Note_off_c, 2, 49, 0
9, 101696, Note_on_c, 2, 49, 127
9, 101760, Note_off_c, 2, 49, 0
9, 101888, Note_on_c, 2, 49, 127
9, 101952, Note_off_c, 2, 49, 0
9, 102144, Note_on_c, 2, 49, 127
9, 102208, Note_off_c, 2, 49, 0
9, 102336, Note_on_c, 2, 49, 127
9, 102400, Note_off_c, 2, 49, 0
9, 102528, Note_on_c, 2, 48, 127
9, 102592, Note_off_c, 2, 48, 0
9, 102720, Note_on_c, 2, 48, 127
9, 102784, Note_off_c, 2, 48, 0
9, 102848, Note_on_c, 2, 48, 127
9, 102912, Note_off_c, 2, 48, 0
9, 103040, Note_on_c, 2, 48, 127
9, 103104, Note_off_c, 2, 48, 0
9, 103232, Note_on_c, 2, 48, 127
9, 103296, Note_off_c, 2, 48, 0
9, 103488, Note_on_c, 2, 48, 89
9, 103552, Note_off_c, 2, 48, 0
9, 103872, Note_on_c, 2, 48, 90
9, 103936, Note_off_c, 2, 48, 0
9, 104192, Note_on_c, 2, 48, 77
9, 104256, Note_off_c, 2, 48, 0
9, 104512, Note_on_c, 2, 48, 79
9, 104576, Note_off_c, 2, 48, 0
9, 137088, Note_on_c, 2, 42, 102
9, 137216, Note_off_c, 2, 42, 0
9, 138112, Note_on_c, 2, 42, 102
9, 138240, Note_off_c, 2, 42, 0
9, 140160, Note_on_c, 2, 42, 99
9, 140288, Note_off_c, 2, 42, 0
9, 141184, Note_on_c, 2, 42, 100
9, 141312, Note_off_c, 2, 42, 0
9, 142208, Note_on_c, 2, 42, 101
9, 142336, Note_off_c, 2, 42, 0
9, 143232, Note_on_c, 2, 42, 104
9, 143360, Note_off_c, 2, 42, 0
9, 144256, Note_on_c, 2, 42, 95
9, 144384, Note_off_c, 2, 42, 0
9, 145280, Note_on_c, 2, 42, 98
9, 145408, Note_off_c, 2, 42, 0
9, 146304, Note_on_c, 2, 42, 96
9, 146432, Note_off_c, 2, 42, 0
9, 147456, Note_on_c, 2, 43, 112
9, 147584, Note_off_c, 2, 43, 0
9, 148480, Note_on_c, 2, 42, 100
9, 148608, Note_off_c, 2, 42, 0
9, 148864, Note_on_c, 2, 50, 99
9, 148992, Note_off_c, 2, 50, 0
9, 149120, Note_on_c, 2, 46, 98
9, 149248, Note_off_c, 2, 46, 0
9, 149888, Note_on_c, 2, 42, 98
9, 150016, Note_off_c, 2, 42, 0
9, 150400, Note_on_c, 2, 50, 101
9, 150528, Note_off_c, 2, 50, 0
9, 150656, Note_on_c, 2, 42, 99
9, 150784, Note_off_c, 2, 42, 0
9, 151168, Note_on_c, 2, 42, 100
9, 151296, Note_off_c, 2, 42, 0
9, 151680, Note_on_c, 2, 50, 99
9, 151808, Note_off_c, 2, 50, 0
9, 151936, Note_on_c, 2, 42, 102
9, 152064, Note_off_c, 2, 42, 0
9, 152576, Note_on_c, 2, 43, 98
9, 152704, Note_off_c, 2, 43, 0
9, 152960, Note_on_c, 2, 50, 96
9, 153088, Note_off_c, 2, 50, 0
9, 153216, Note_on_c, 2, 42, 96
9, 153344, Note_off_c, 2, 42, 0
9, 153856, Note_on_c, 2, 42, 98
9, 153984, Note_off_c, 2, 42, 0
9, 154240, Note_on_c, 2, 50, 100
9, 154368, Note_off_c, 2, 50, 0
9, 154368, Note_on_c, 2, 48, 105
9, 154496, Note_off_c, 2, 48, 0
9, 154496, Note_on_c, 2, 42, 101
9, 154624, Note_off_c, 2, 42, 0
9, 155008, Note_on_c, 2, 42, 99
9, 155136, Note_off_c, 2, 42, 0
9, 155776, Note_on_c, 2, 50, 127
9, 155904, Note_off_c, 2, 50, 0
9, 155904, Note_on_c, 2, 48, 127
9, 156032, Note_off_c, 2, 48, 0
9, 156032, Note_on_c, 2, 42, 127
9, 156160, Note_off_c, 2, 42, 0
9, 156544, Note_on_c, 2, 42, 122
9, 156672, Note_off_c, 2, 42, 0
9, 157824, Note_on_c, 2, 43, 86
9, 157952, Note_off_c, 2, 43, 0
9, 158592, Note_on_c, 2, 50, 84
9, 158720, Note_off_c, 2, 50, 0
9, 159744, Note_on_c, 2, 42, 58
9, 159872, Note_off_c, 2, 42, 0
9, 176213, Note_on_c, 2, 43, 127
9, 176298, Note_off_c, 2, 43, 0
9, 176554, Note_on_c, 2, 43, 127
9, 176640, Note_off_c, 2, 43, 0
9, 176981, Note_on_c, 2, 43, 127
9, 177066, Note_off_c, 2, 43, 0
9, 177322, Note_on_c, 2, 43, 127
9, 177408, Note_off_c, 2, 43, 0
9, 177578, Note_on_c, 2, 43, 127
9, 177749, Note_off_c, 2, 43, 0
9, 177749, Note_on_c, 2, 43, 127
9, 177834, Note_off_c, 2, 43, 0
9, 178090, Note_on_c, 2, 43, 127
9, 178176, Note_off_c, 2, 43, 0
9, 178602, Note_on_c, 2, 43, 127
9, 178688, Note_off_c, 2, 43, 0
9, 178944, Note_on_c, 2, 43, 127
9, 179029, Note_off_c, 2, 43, 0
9, 179200, Note_on_c, 2, 43, 127
9, 179285, Note_off_c, 2, 43, 0
9, 179541, Note_on_c, 2, 43, 127
9, 179626, Note_off_c, 2, 43, 0
9, 179882, Note_on_c, 2, 43, 127
9, 180053, Note_off_c, 2, 43, 0
9, 180053, Note_on_c, 2, 43, 127
9, 180224, Note_off_c, 2, 43, 0
9, 180224, Note_on_c, 2, 43, 127
9, 180394, Note_off_c, 2, 43, 0
9, 180394, Note_on_c, 2, 41, 127
9, 180565, Note_off_c, 2, 41, 0
9, 180736, Note_on_c, 2, 41, 127
9, 180906, Note_off_c, 2, 41, 0
9, 181077, Note_on_c, 2, 41, 127
9, 181248, Note_off_c, 2, 41, 0
9, 181248, Note_on_c, 2, 41, 127
9, 181418, Note_off_c, 2, 41, 0
9, 210752, Note_on_c, 2, 46, 127
9, 210816, Note_off_c, 2, 46, 0
9, 211136, Note_on_c, 2, 46, 127
9, 211200, Note_off_c, 2, 46, 0
9, 211456, Note_on_c, 2, 46, 127
9, 211520, Note_off_c, 2, 46, 0
9, 211776, Note_on_c, 2, 46, 127
9, 211840, Note_off_c, 2, 46, 0
9, 212160, Note_on_c, 2, 46, 127
9, 212224, Note_off_c, 2, 46, 0
9, 212480, Note_on_c, 2, 46, 127
9, 212544, Note_off_c, 2, 46, 0
9, 212800, Note_on_c, 2, 46, 127
9, 212864, Note_off_c, 2, 46, 0
9, 213184, Note_on_c, 2, 46, 127
9, 213248, Note_off_c, 2, 46, 0
9, 213504, Note_on_c, 2, 46, 127
9, 213568, Note_off_c, 2, 46, 0
9, 213824, Note_on_c, 2, 46, 127
9, 213888, Note_off_c, 2, 46, 0
9, 214208, Note_on_c, 2, 46, 127
9, 214272, Note_off_c, 2, 46, 0
9, 214528, Note_on_c, 2, 46, 127
9, 214720, Note_off_c, 2, 46, 0
9, 214720, Note_on_c, 2, 46, 127
9, 214848, Note_off_c, 2, 46, 0
9, 214848, Note_on_c, 2, 46, 127
9, 215040, Note_off_c, 2, 46, 0
9, 215040, Note_on_c, 2, 46, 127
9, 215232, Note_off_c, 2, 46, 0
9, 215232, Note_on_c, 2, 46, 127
9, 215360, Note_off_c, 2, 46, 0
9, 215360, Note_on_c, 2, 46, 127
9, 215552, Note_off_c, 2, 46, 0
9, 215552, Note_on_c, 2, 46, 127
9, 215744, Note_off_c, 2, 46, 0
9, 215744, Note_on_c, 2, 46, 127
9, 215872, Note_off_c, 2, 46, 0
9, 215872, Note_on_c, 2, 46, 127
9, 216064, Note_off_c, 2, 46, 0
9, 216064, Note_on_c, 2, 46, 127
9, 216256, Note_off_c, 2, 46, 0
9, 216256, Note_on_c, 2, 46, 127
9, 216384, Note_off_c, 2, 46, 0
9, 216384, Note_on_c, 2, 46, 127
9, 216576, Note_off_c, 2, 46, 0
9, 216576, Note_on_c, 2, 46, 127
9, 216768, Note_off_c, 2, 46, 0
9, 216768, Note_on_c, 2, 46, 127
9, 216896, Note_off_c, 2, 46, 0
9, 216896, Note_on_c, 2, 46, 127
9, 217088, Note_off_c, 2, 46, 0
9, 217344, Note_on_c, 2, 46, 127
9, 217536, Note_off_c, 2, 46, 0
9, 217536, Note_on_c, 2, 46, 127
9, 217664, Note_off_c, 2, 46, 0
9, 217664, Note_on_c, 2, 46, 127
9, 217856, Note_off_c, 2, 46, 0
9, 217856, Note_on_c, 2, 46, 127
9, 218048, Note_off_c, 2, 46, 0
9, 218048, Note_on_c, 2, 46, 127
9, 218176, Note_off_c, 2, 46, 0
9, 218176, Note_on_c, 2, 46, 127
9, 218368, Note_off_c, 2, 46, 0
9, 218880, Note_on_c, 2, 48, 127
9, 219008, Note_off_c, 2, 48, 0
9, 219264, Note_on_c, 2, 48, 127
9, 219392, Note_off_c, 2, 48, 0
9, 219648, Note_on_c, 2, 48, 127
9, 219776, Note_off_c, 2, 48, 0
9, 220032, Note_on_c, 2, 48, 127
9, 220160, Note_off_c, 2, 48, 0
9, 220416, Note_on_c, 2, 48, 127
9, 220544, Note_off_c, 2, 48, 0
9, 220800, Note_on_c, 2, 48, 127
9, 220928, Note_off_c, 2, 48, 0
9, 221184, Note_on_c, 2, 48, 127
9, 221312, Note_off_c, 2, 48, 0
9, 221568, Note_on_c, 2, 48, 127
9, 221696, Note_off_c, 2, 48, 0
9, 221952, Note_on_c, 2, 48, 127
9, 222080, Note_off_c, 2, 48, 0
9, 222336, Note_on_c, 2, 48, 127
9, 222464, Note_off_c, 2, 48, 0
9, 222848, Note_on_c, 2, 48, 127
9, 222976, Note_off_c, 2, 48, 0
9, 223232, Note_on_c, 2, 48, 127
9, 223360, Note_off_c, 2, 48, 0
9, 223616, Note_on_c, 2, 48, 127
9, 223744, Note_off_c, 2, 48, 0
9, 224000, Note_on_c, 2, 48, 127
9, 224128, Note_off_c, 2, 48, 0
9, 224384, Note_on_c, 2, 48, 127
9, 224512, Note_off_c, 2, 48, 0
9, 224896, Note_on_c, 2, 48, 127
9, 225024, Note_off_c, 2, 48, 0
9, 225280, Note_on_c, 2, 48, 127
9, 225408, Note_off_c, 2, 48, 0
9, 225664, Note_on_c, 2, 48, 127
9, 225792, Note_off_c, 2, 48, 0
9, 226176, Note_on_c, 2, 48, 127
9, 226304, Note_off_c, 2, 48, 0
9, 226560, Note_on_c, 2, 48, 127
9, 226688, Note_off_c, 2, 48, 0
9, 234880, Note_on_c, 2, 41, 114
9, 235008, Note_off_c, 2, 41, 0
9, 235264, Note_on_c, 2, 41, 112
9, 235392, Note_off_c, 2, 41, 0
9, 235648, Note_on_c, 2, 41, 116
9, 235776, Note_off_c, 2, 41, 0
9, 236032, Note_on_c, 2, 41, 111
9, 236160, Note_off_c, 2, 41, 0
9, 236416, Note_on_c, 2, 41, 118
9, 236544, Note_off_c, 2, 41, 0
9, 236800, Note_on_c, 2, 41, 116
9, 236928, Note_off_c, 2, 41, 0
9, 237184, Note_on_c, 2, 41, 109
9, 237312, Note_off_c, 2, 41, 0
9, 237568, Note_on_c, 2, 41, 119
9, 237696, Note_off_c, 2, 41, 0
9, 238080, Note_on_c, 2, 41, 111
9, 238208, Note_off_c, 2, 41, 0
9, 246144, Note_on_c, 2, 43, 89
9, 246272, Note_off_c, 2, 43, 0
9, 246272, Note_on_c, 2, 43, 102
9, 246323, Note_off_c, 2, 43, 0
9, 246336, Note_on_c, 2, 43, 102
9, 246387, Note_off_c, 2, 43, 0
9, 246400, Note_on_c, 2, 43, 102
9, 246451, Note_off_c, 2, 43, 0
9, 246464, Note_on_c, 2, 43, 102
9, 246515, Note_off_c, 2, 43, 0
9, 246528, Note_on_c, 2, 43, 102
9, 246579, Note_off_c, 2, 43, 0
9, 246592, Note_on_c, 2, 43, 102
9, 246643, Note_off_c, 2, 43, 0
9, 246656, Note_on_c, 2, 43, 102
9, 246707, Note_off_c, 2, 43, 0
9, 246720, Note_on_c, 2, 43, 102
9, 246771, Note_off_c, 2, 43, 0
9, 246784, Note_on_c, 2, 43, 102
9, 246835, Note_off_c, 2, 43, 0
9, 246848, Note_on_c, 2, 43, 102
9, 246899, Note_off_c, 2, 43, 0
9, 246912, Note_on_c, 2, 43, 102
9, 246963, Note_off_c, 2, 43, 0
9, 246976, Note_on_c, 2, 43, 102
9, 247027, Note_off_c, 2, 43, 0
9, 247040, Note_on_c, 2, 43, 96
9, 247091, Note_off_c, 2, 43, 0
9, 247104, Note_on_c, 2, 43, 96
9, 247155, Note_off_c, 2, 43, 0
9, 247168, Note_on_c, 2, 43, 96
9, 247219, Note_off_c, 2, 43, 0
9, 247232, Note_on_c, 2, 43, 96
9, 247283, Note_off_c, 2, 43, 0
9, 247296, Note_on_c, 2, 43, 96
9, 247347, Note_off_c, 2, 43, 0
9, 247360, Note_on_c, 2, 43, 96
9, 247411, Note_off_c, 2, 43, 0
9, 247424, Note_on_c, 2, 43, 96
9, 247475, Note_off_c, 2, 43, 0
9, 247488, Note_on_c, 2, 43, 96
9, 247539, Note_off_c, 2, 43, 0
9, 247552, Note_on_c, 2, 43, 96
9, 247603, Note_off_c, 2, 43, 0
9, 247616, Note_on_c, 2, 43, 96
9, 247667, Note_off_c, 2, 43, 0
9, 247680, Note_on_c, 2, 43, 96
9, 247731, Note_off_c, 2, 43, 0
9, 247744, Note_on_c, 2, 43, 96
9, 247795, Note_off_c, 2, 43, 0
9, 247808, Note_on_c, 2, 43, 98
9, 247859, Note_off_c, 2, 43, 0
9, 247872, Note_on_c, 2, 43, 98
9, 247923, Note_off_c, 2, 43, 0
9, 247936, Note_on_c, 2, 43, 98
9, 247987, Note_off_c, 2, 43, 0
9, 248000, Note_on_c, 2, 43, 98
9, 248051, Note_off_c, 2, 43, 0
9, 248064, Note_on_c, 2, 43, 98
9, 248115, Note_off_c, 2, 43, 0
9, 248128, Note_on_c, 2, 43, 98
9, 248179, Note_off_c, 2, 43, 0
9, 248192, Note_on_c, 2, 43, 98
9, 248243, Note_off_c, 2, 43, 0
9, 248256, Note_on_c, 2, 43, 98
9, 248307, Note_off_c, 2, 43, 0
9, 248320, Note_on_c, 2, 43, 98
9, 248371, Note_off_c, 2, 43, 0
9, 248384, Note_on_c, 2, 43, 98
9, 248435, Note_off_c, 2, 43, 0
9, 248448, Note_on_c, 2, 43, 98
9, 248499, Note_off_c, 2, 43, 0
9, 248512, Note_on_c, 2, 43, 98
9, 248563, Note_off_c, 2, 43, 0
9, 248576, Note_on_c, 2, 43, 99
9, 248627, Note_off_c, 2, 43, 0
9, 248640, Note_on_c, 2, 43, 99
9, 248691, Note_off_c, 2, 43, 0
9, 248704, Note_on_c, 2, 43, 97
9, 248755, Note_off_c, 2, 43, 0
9, 248768, Note_on_c, 2, 43, 97
9, 248819, Note_off_c, 2, 43, 0
9, 248832, Note_on_c, 2, 43, 96
9, 248883, Note_off_c, 2, 43, 0
9, 248896, Note_on_c, 2, 43, 96
9, 248947, Note_off_c, 2, 43, 0
9, 248960, Note_on_c, 2, 43, 95
9, 249011, Note_off_c, 2, 43, 0
9, 249024, Note_on_c, 2, 43, 95
9, 249075, Note_off_c, 2, 43, 0
9, 249088, Note_on_c, 2, 43, 94
9, 249139, Note_off_c, 2, 43, 0
9, 249152, Note_on_c, 2, 43, 94
9, 249203, Note_off_c, 2, 43, 0
9, 249216, Note_on_c, 2, 43, 93
9, 249267, Note_off_c, 2, 43, 0
9, 249280, Note_on_c, 2, 43, 93
9, 249331, Note_off_c, 2, 43, 0
9, 249344, Note_on_c, 2, 43, 90
9, 249395, Note_off_c, 2, 43, 0
9, 249408, Note_on_c, 2, 43, 91
9, 249459, Note_off_c, 2, 43, 0
9, 249472, Note_on_c, 2, 43, 91
9, 249523, Note_off_c, 2, 43, 0
9, 249536, Note_on_c, 2, 43, 90
9, 249587, Note_off_c, 2, 43, 0
9, 249600, Note_on_c, 2, 43, 90
9, 249651, Note_off_c, 2, 43, 0
9, 249664, Note_on_c, 2, 43, 89
9, 249715, Note_off_c, 2, 43, 0
9, 249728, Note_on_c, 2, 43, 89
9, 249779, Note_off_c, 2, 43, 0
9, 249792, Note_on_c, 2, 43, 88
9, 249843, Note_off_c, 2, 43, 0
9, 249856, Note_on_c, 2, 43, 88
9, 249907, Note_off_c, 2, 43, 0
9, 249920, Note_on_c, 2, 43, 87
9, 249971, Note_off_c, 2, 43, 0
9, 249984, Note_on_c, 2, 43, 87
9, 250035, Note_off_c, 2, 43, 0
9, 250048, Note_on_c, 2, 43, 86
9, 250099, Note_off_c, 2, 43, 0
9, 250112, Note_on_c, 2, 43, 86
9, 250163, Note_off_c, 2, 43, 0
9, 250176, Note_on_c, 2, 43, 86
9, 250227, Note_off_c, 2, 43, 0
9, 250240, Note_on_c, 2, 43, 86
9, 250291, Note_off_c, 2, 43, 0
9, 250304, Note_on_c, 2, 43, 86
9, 250355, Note_off_c, 2, 43, 0
9, 250368, Note_on_c, 2, 43, 86
9, 250419, Note_off_c, 2, 43, 0
9, 250432, Note_on_c, 2, 43, 86
9, 250483, Note_off_c, 2, 43, 0
9, 250496, Note_on_c, 2, 43, 86
9, 250547, Note_off_c, 2, 43, 0
9, 250560, Note_on_c, 2, 43, 86
9, 250611, Note_off_c, 2, 43, 0
9, 250624, Note_on_c, 2, 43, 86
9, 250675, Note_off_c, 2, 43, 0
9, 250688, Note_on_c, 2, 43, 86
9, 250739, Note_off_c, 2, 43, 0
9, 250752, Note_on_c, 2, 43, 86
9, 250803, Note_off_c, 2, 43, 0
9, 250816, Note_on_c, 2, 43, 86
9, 250867, Note_off_c, 2, 43, 0
9, 250880, Note_on_c, 2, 43, 82
9, 250931, Note_off_c, 2, 43, 0
9, 250944, Note_on_c, 2, 43, 82
9, 250995, Note_off_c, 2, 43, 0
9, 251008, Note_on_c, 2, 43, 82
9, 251059, Note_off_c, 2, 43, 0
9, 251072, Note_on_c, 2, 43, 82
9, 251123, Note_off_c, 2, 43, 0
9, 251136, Note_on_c, 2, 43, 82
9, 251187, Note_off_c, 2, 43, 0
9, 251200, Note_on_c, 2, 43, 82
9, 251251, Note_off_c, 2, 43, 0
9, 251264, Note_on_c, 2, 43, 82
9, 251315, Note_off_c, 2, 43, 0
9, 251328, Note_on_c, 2, 43, 82
9, 251379, Note_off_c, 2, 43, 0
9, 251392, Note_on_c, 2, 43, 82
9, 251443, Note_off_c, 2, 43, 0
9, 251456, Note_on_c, 2, 43, 82
9, 251507, Note_off_c, 2, 43, 0
9, 251520, Note_on_c, 2, 43, 82
9, 251571, Note_off_c, 2, 43, 0
9, 251584, Note_on_c, 2, 43, 82
9, 251635, Note_off_c, 2, 43, 0
9, 251648, Note_on_c, 2, 43, 82
9, 251699, Note_off_c, 2, 43, 0
9, 251712, Note_on_c, 2, 43, 82
9, 251763, Note_off_c, 2, 43, 0
9, 251776, Note_on_c, 2, 43, 82
9, 251827, Note_off_c, 2, 43, 0
9, 251840, Note_on_c, 2, 43, 82
9, 251891, Note_off_c, 2, 43, 0
9, 251904, Note_on_c, 2, 43, 82
9, 251955, Note_off_c, 2, 43, 0
9, 251968, Note_on_c, 2, 43, 82
9, 252019, Note_off_c, 2, 43, 0
9, 252032, Note_on_c, 2, 43, 80
9, 252083, Note_off_c, 2, 43, 0
9, 252096, Note_on_c, 2, 43, 78
9, 252147, Note_off_c, 2, 43, 0
9, 252160, Note_on_c, 2, 43, 75
9, 252211, Note_off_c, 2, 43, 0
9, 252224, Note_on_c, 2, 43, 73
9, 252275, Note_off_c, 2, 43, 0
9, 252288, Note_on_c, 2, 43, 71
9, 252339, Note_off_c, 2, 43, 0
9, 252352, Note_on_c, 2, 43, 68
9, 252403, Note_off_c, 2, 43, 0
9, 252416, Note_on_c, 2, 43, 66
9, 252467, Note_off_c, 2, 43, 0
9, 252480, Note_on_c, 2, 43, 64
9, 252531, Note_off_c, 2, 43, 0
9, 252544, Note_on_c, 2, 43, 62
9, 252595, Note_off_c, 2, 43, 0
9, 252608, Note_on_c, 2, 43, 59
9, 252659, Note_off_c, 2, 43, 0
9, 252672, Note_on_c, 2, 43, 57
9, 252723, Note_off_c, 2, 43, 0
9, 252736, Note_on_c, 2, 43, 55
9, 252787, Note_off_c, 2, 43, 0
9, 252800, Note_on_c, 2, 43, 52
9, 252851, Note_off_c, 2, 43, 0
9, 252864, Note_on_c, 2, 43, 50
9, 252915, Note_off_c, 2, 43, 0
9, 252928, Note_on_c, 2, 43, 49
9, 252979, Note_off_c, 2, 43, 0
9, 252992, Note_on_c, 2, 43, 46
9, 253043, Note_off_c, 2, 43, 0
9, 253056, Note_on_c, 2, 43, 43
9, 253107, Note_off_c, 2, 43, 0
9, 253120, Note_on_c, 2, 43, 41
9, 253171, Note_off_c, 2, 43, 0
9, 253184, Note_on_c, 2, 43, 40
9, 253235, Note_off_c, 2, 43, 0
9, 253248, Note_on_c, 2, 43, 36
9, 253299, Note_off_c, 2, 43, 0
9, 253312, Note_on_c, 2, 43, 34
9, 253363, Note_off_c, 2, 43, 0
9, 253376, Note_on_c, 2, 43, 32
9, 253427, Note_off_c, 2, 43, 0
9, 253440, Note_on_c, 2, 43, 23
9, 253491, Note_off_c, 2, 43, 0
9, 253504, Note_on_c, 2, 43, 27
9, 253555, Note_off_c, 2, 43, 0
9, 253568, Note_on_c, 2, 43, 25
9, 253619, Note_off_c, 2, 43, 0
9, 253632, Note_on_c, 2, 43, 23
9, 253683, Note_off_c, 2, 43, 0
9, 253696, Note_on_c, 2, 43, 22
9, 253747, Note_off_c, 2, 43, 0
9, 253760, Note_on_c, 2, 43, 22
9, 253811, Note_off_c, 2, 43, 0
9, 253824, Note_on_c, 2, 43, 22
9, 253875, Note_off_c, 2, 43, 0
9, 253888, Note_on_c, 2, 43, 22
9, 253939, Note_off_c, 2, 43, 0
9, 401920, Note_on_c, 2, 48, 97
9, 402048, Note_off_c, 2, 48, 0
9, 402688, Note_on_c, 2, 48, 98
9, 402816, Note_off_c, 2, 48, 0
9, 402944, Note_on_c, 2, 33, 53
9, 403029, Note_off_c, 2, 33, 0
9, 403029, Note_on_c, 2, 33, 58
9, 403114, Note_off_c, 2, 33, 0
9, 403114, Note_on_c, 2, 33, 63
9, 403200, Note_off_c, 2, 33, 0
9, 403200, Note_on_c, 2, 33, 64
9, 403285, Note_off_c, 2, 33, 0
9, 403285, Note_on_c, 2, 33, 60
9, 403370, Note_off_c, 2, 33, 0
9, 403370, Note_on_c, 2, 33, 61
9, 403456, Note_off_c, 2, 33, 0
9, 403456, Note_on_c, 2, 48, 101
9, 403456, Note_on_c, 2, 33, 62
9, 403541, Note_off_c, 2, 33, 0
9, 403541, Note_on_c, 2, 33, 61
9, 403584, Note_off_c, 2, 48, 0
9, 403626, Note_off_c, 2, 33, 0
9, 403626, Note_on_c, 2, 33, 62
9, 403712, Note_off_c, 2, 33, 0
9, 403712, Note_on_c, 2, 33, 57
9, 403797, Note_off_c, 2, 33, 0
9, 403797, Note_on_c, 2, 33, 61
9, 403882, Note_off_c, 2, 33, 0
9, 403882, Note_on_c, 2, 33, 63
9, 403968, Note_off_c, 2, 33, 0
9, 403968, Note_on_c, 2, 33, 58
9, 404053, Note_off_c, 2, 33, 0
9, 404053, Note_on_c, 2, 33, 57
9, 404138, Note_off_c, 2, 33, 0
9, 404138, Note_on_c, 2, 33, 61
9, 404224, Note_off_c, 2, 33, 0
9, 404224, Note_on_c, 2, 48, 101
9, 404224, Note_on_c, 2, 33, 63
9, 404309, Note_off_c, 2, 33, 0
9, 404309, Note_on_c, 2, 33, 61
9, 404352, Note_off_c, 2, 48, 0
9, 404394, Note_off_c, 2, 33, 0
9, 404394, Note_on_c, 2, 33, 62
9, 404480, Note_off_c, 2, 33, 0
9, 404480, Note_on_c, 2, 33, 63
9, 404565, Note_off_c, 2, 33, 0
9, 404565, Note_on_c, 2, 33, 62
9, 404650, Note_off_c, 2, 33, 0
9, 404650, Note_on_c, 2, 33, 65
9, 404736, Note_off_c, 2, 33, 0
9, 404736, Note_on_c, 2, 33, 64
9, 404821, Note_off_c, 2, 33, 0
9, 404821, Note_on_c, 2, 33, 57
9, 404906, Note_off_c, 2, 33, 0
9, 404906, Note_on_c, 2, 33, 57
9, 404992, Note_off_c, 2, 33, 0
9, 404992, Note_on_c, 2, 48, 100
9, 404992, Note_on_c, 2, 33, 61
9, 405077, Note_off_c, 2, 33, 0
9, 405077, Note_on_c, 2, 33, 62
9, 405120, Note_off_c, 2, 48, 0
9, 405162, Note_off_c, 2, 33, 0
9, 405162, Note_on_c, 2, 33, 59
9, 405248, Note_off_c, 2, 33, 0
9, 405248, Note_on_c, 2, 33, 61
9, 405333, Note_off_c, 2, 33, 0
9, 405333, Note_on_c, 2, 33, 62
9, 405418, Note_off_c, 2, 33, 0
9, 405418, Note_on_c, 2, 33, 60
9, 405504, Note_off_c, 2, 33, 0
9, 405504, Note_on_c, 2, 33, 61
9, 405589, Note_off_c, 2, 33, 0
9, 405589, Note_on_c, 2, 33, 67
9, 405674, Note_off_c, 2, 33, 0
9, 405674, Note_on_c, 2, 33, 66
9, 405760, Note_off_c, 2, 33, 0
9, 405760, Note_on_c, 2, 48, 97
9, 405760, Note_on_c, 2, 33, 59
9, 405845, Note_off_c, 2, 33, 0
9, 405845, Note_on_c, 2, 33, 60
9, 405888, Note_off_c, 2, 48, 0
9, 405930, Note_off_c, 2, 33, 0
9, 405930, Note_on_c, 2, 33, 61
9, 406016, Note_off_c, 2, 33, 0
9, 406016, Note_on_c, 2, 33, 60
9, 406101, Note_off_c, 2, 33, 0
9, 406101, Note_on_c, 2, 33, 56
9, 406186, Note_off_c, 2, 33, 0
9, 406186, Note_on_c, 2, 33, 66
9, 406272, Note_off_c, 2, 33, 0
9, 406272, Note_on_c, 2, 33, 63
9, 406357, Note_off_c, 2, 33, 0
9, 406357, Note_on_c, 2, 33, 72
9, 406442, Note_off_c, 2, 33, 0
9, 406442, Note_on_c, 2, 33, 84
9, 406528, Note_off_c, 2, 33, 0
9, 406528, Note_on_c, 2, 48, 97
9, 406528, Note_on_c, 2, 33, 94
9, 406613, Note_off_c, 2, 33, 0
9, 406613, Note_on_c, 2, 33, 106
9, 406656, Note_off_c, 2, 48, 0
9, 406698, Note_off_c, 2, 33, 0
9, 406698, Note_on_c, 2, 33, 119
9, 406784, Note_off_c, 2, 33, 0
9, 406784, Note_on_c, 2, 33, 127
9, 406869, Note_off_c, 2, 33, 0
9, 406869, Note_on_c, 2, 33, 126
9, 406954, Note_off_c, 2, 33, 0
9, 406954, Note_on_c, 2, 33, 115
9, 407040, Note_off_c, 2, 33, 0
9, 407040, Note_on_c, 2, 33, 101
9, 407125, Note_off_c, 2, 33, 0
9, 407125, Note_on_c, 2, 33, 101
9, 407210, Note_off_c, 2, 33, 0
9, 407210, Note_on_c, 2, 33, 93
9, 407296, Note_off_c, 2, 33, 0
9, 407296, Note_on_c, 2, 48, 100
9, 407296, Note_on_c, 2, 33, 84
9, 407381, Note_off_c, 2, 33, 0
9, 407381, Note_on_c, 2, 33, 77
9, 407424, Note_off_c, 2, 48, 0
9, 407466, Note_off_c, 2, 33, 0
9, 407466, Note_on_c, 2, 33, 68
9, 407552, Note_off_c, 2, 33, 0
9, 407552, Note_on_c, 2, 33, 61
9, 407637, Note_off_c, 2, 33, 0
9, 407637, Note_on_c, 2, 33, 59
9, 407722, Note_off_c, 2, 33, 0
9, 407722, Note_on_c, 2, 33, 63
9, 407808, Note_off_c, 2, 33, 0
9, 407808, Note_on_c, 2, 33, 62
9, 407893, Note_off_c, 2, 33, 0
9, 407893, Note_on_c, 2, 33, 74
9, 407978, Note_off_c, 2, 33, 0
9, 407978, Note_on_c, 2, 33, 77
9, 408064, Note_off_c, 2, 33, 0
9, 408064, Note_on_c, 2, 48, 100
9, 408064, Note_on_c, 2, 33, 91
9, 408149, Note_off_c, 2, 33, 0
9, 408149, Note_on_c, 2, 33, 102
9, 408192, Note_off_c, 2, 48, 0
9, 408234, Note_off_c, 2, 33, 0
9, 408234, Note_on_c, 2, 33, 115
9, 408320, Note_off_c, 2, 33, 0
9, 408320, Note_on_c, 2, 33, 127
9, 408405, Note_off_c, 2, 33, 0
9, 408405, Note_on_c, 2, 33, 113
9, 408490, Note_off_c, 2, 33, 0
9, 408490, Note_on_c, 2, 33, 102
9, 408576, Note_off_c, 2, 33, 0
9, 408576, Note_on_c, 2, 33, 95
9, 408661, Note_off_c, 2, 33, 0
9, 408661, Note_on_c, 2, 33, 81
9, 408746, Note_off_c, 2, 33, 0
9, 408746, Note_on_c, 2, 33, 73
9, 408832, Note_off_c, 2, 33, 0
9, 408832, Note_on_c, 2, 48, 99
9, 408832, Note_on_c, 2, 33, 62
9, 408917, Note_off_c, 2, 33, 0
9, 408917, Note_on_c, 2, 33, 72
9, 408960, Note_off_c, 2, 48, 0
9, 409002, Note_off_c, 2, 33, 0
9, 409002, Note_on_c, 2, 33, 83
9, 409088, Note_off_c, 2, 33, 0
9, 409088, Note_on_c, 2, 33, 94
9, 409173, Note_off_c, 2, 33, 0
9, 409173, Note_on_c, 2, 33, 106
9, 409258, Note_off_c, 2, 33, 0
9, 409258, Note_on_c, 2, 33, 120
9, 409344, Note_off_c, 2, 33, 0
9, 409344, Note_on_c, 2, 33, 127
9, 409429, Note_off_c, 2, 33, 0
9, 409429, Note_on_c, 2, 33, 115
9, 409514, Note_off_c, 2, 33, 0
9, 409514, Note_on_c, 2, 33, 107
9, 409600, Note_off_c, 2, 33, 0
9, 409600, Note_on_c, 2, 48, 100
9, 409600, Note_on_c, 2, 33, 100
9, 409685, Note_off_c, 2, 33, 0
9, 409685, Note_on_c, 2, 33, 77
9, 409728, Note_off_c, 2, 48, 0
9, 409770, Note_off_c, 2, 33, 0
9, 409770, Note_on_c, 2, 33, 70
9, 409856, Note_off_c, 2, 33, 0
9, 409856, Note_on_c, 2, 33, 63
9, 409941, Note_off_c, 2, 33, 0
9, 409941, Note_on_c, 2, 33, 72
9, 410026, Note_off_c, 2, 33, 0
9, 410026, Note_on_c, 2, 33, 82
9, 410112, Note_off_c, 2, 33, 0
9, 410112, Note_on_c, 2, 33, 86
9, 410197, Note_off_c, 2, 33, 0
9, 410197, Note_on_c, 2, 33, 98
9, 410282, Note_off_c, 2, 33, 0
9, 410282, Note_on_c, 2, 33, 111
9, 410368, Note_off_c, 2, 33, 0
9, 410368, Note_on_c, 2, 47, 94
9, 410368, Note_on_c, 2, 33, 114
9, 410453, Note_off_c, 2, 33, 0
9, 410453, Note_on_c, 2, 33, 127
9, 410496, Note_off_c, 2, 47, 0
9, 410538, Note_off_c, 2, 33, 0
9, 410538, Note_on_c, 2, 33, 111
9, 410624, Note_off_c, 2, 33, 0
9, 410624, Note_on_c, 2, 33, 105
9, 410709, Note_off_c, 2, 33, 0
9, 410709, Note_on_c, 2, 33, 91
9, 410794, Note_off_c, 2, 33, 0
9, 410794, Note_on_c, 2, 33, 72
9, 410880, Note_off_c, 2, 33, 0
9, 410880, Note_on_c, 2, 33, 58
9, 410965, Note_off_c, 2, 33, 0
9, 410965, Note_on_c, 2, 33, 61
9, 411050, Note_off_c, 2, 33, 0
9, 411050, Note_on_c, 2, 33, 58
9, 411136, Note_off_c, 2, 33, 0
9, 411136, Note_on_c, 2, 33, 61
9, 411221, Note_off_c, 2, 33, 0
9, 411221, Note_on_c, 2, 33, 85
9, 411264, Note_on_c, 2, 47, 100
9, 411306, Note_off_c, 2, 33, 0
9, 411306, Note_on_c, 2, 33, 105
9, 411392, Note_off_c, 2, 47, 0
9, 411392, Note_off_c, 2, 33, 0
9, 411392, Note_on_c, 2, 33, 126
9, 411477, Note_off_c, 2, 33, 0
9, 411477, Note_on_c, 2, 33, 108
9, 411562, Note_off_c, 2, 33, 0
9, 411562, Note_on_c, 2, 33, 98
9, 411648, Note_off_c, 2, 33, 0
9, 411648, Note_on_c, 2, 33, 75
9, 411733, Note_off_c, 2, 33, 0
9, 411733, Note_on_c, 2, 33, 61
9, 411818, Note_off_c, 2, 33, 0
9, 411818, Note_on_c, 2, 33, 57
9, 411904, Note_off_c, 2, 33, 0
9, 411904, Note_on_c, 2, 33, 56
9, 411989, Note_off_c, 2, 33, 0
9, 411989, Note_on_c, 2, 33, 62
9, 412074, Note_off_c, 2, 33, 0
9, 412074, Note_on_c, 2, 33, 62
9, 412160, Note_off_c, 2, 33, 0
9, 412160, Note_on_c, 2, 47, 106
9, 412160, Note_on_c, 2, 33, 64
9, 412245, Note_off_c, 2, 33, 0
9, 412245, Note_on_c, 2, 33, 63
9, 412288, Note_off_c, 2, 47, 0
9, 412330, Note_off_c, 2, 33, 0
9, 412330, Note_on_c, 2, 33, 64
9, 412416, Note_off_c, 2, 33, 0
9, 412416, Note_on_c, 2, 33, 60
9, 412501, Note_off_c, 2, 33, 0
9, 412501, Note_on_c, 2, 33, 71
9, 412586, Note_off_c, 2, 33, 0
9, 412586, Note_on_c, 2, 33, 81
9, 412672, Note_off_c, 2, 33, 0
9, 412672, Note_on_c, 2, 33, 95
9, 412757, Note_off_c, 2, 33, 0
9, 412757, Note_on_c, 2, 33, 104
9, 412842, Note_off_c, 2, 33, 0
9, 412842, Note_on_c, 2, 33, 114
9, 412928, Note_off_c, 2, 33, 0
9, 412928, Note_on_c, 2, 33, 124
9, 413013, Note_off_c, 2, 33, 0
9, 413013, Note_on_c, 2, 33, 109
9, 413056, Note_on_c, 2, 47, 96
9, 413098, Note_off_c, 2, 33, 0
9, 413098, Note_on_c, 2, 33, 93
9, 413184, Note_off_c, 2, 47, 0
9, 413184, Note_off_c, 2, 33, 0
9, 413184, Note_on_c, 2, 33, 74
9, 413269, Note_off_c, 2, 33, 0
9, 413269, Note_on_c, 2, 33, 60
9, 413354, Note_off_c, 2, 33, 0
9, 413354, Note_on_c, 2, 33, 67
9, 413440, Note_off_c, 2, 33, 0
9, 413440, Note_on_c, 2, 33, 65
9, 413525, Note_off_c, 2, 33, 0
9, 413525, Note_on_c, 2, 33, 86
9, 413610, Note_off_c, 2, 33, 0
9, 413610, Note_on_c, 2, 33, 104
9, 413696, Note_off_c, 2, 33, 0
9, 413696, Note_on_c, 2, 33, 126
9, 413781, Note_off_c, 2, 33, 0
9, 413781, Note_on_c, 2, 33, 105
9, 413866, Note_off_c, 2, 33, 0
9, 413866, Note_on_c, 2, 33, 84
9, 413952, Note_off_c, 2, 33, 0
9, 413952, Note_on_c, 2, 47, 100
9, 413952, Note_on_c, 2, 33, 65
9, 414037, Note_off_c, 2, 33, 0
9, 414037, Note_on_c, 2, 33, 62
9, 414080, Note_off_c, 2, 47, 0
9, 414122, Note_off_c, 2, 33, 0
9, 414122, Note_on_c, 2, 33, 64
9, 414208, Note_off_c, 2, 33, 0
9, 414208, Note_on_c, 2, 33, 86
9, 414293, Note_off_c, 2, 33, 0
9, 414293, Note_on_c, 2, 33, 104
9, 414378, Note_off_c, 2, 33, 0
9, 414378, Note_on_c, 2, 33, 127
9, 414464, Note_off_c, 2, 33, 0
9, 414464, Note_on_c, 2, 33, 125
9, 414549, Note_off_c, 2, 33, 0
9, 414549, Note_on_c, 2, 33, 123
9, 414634, Note_off_c, 2, 33, 0
9, 414634, Note_on_c, 2, 33, 124
9, 414720, Note_off_c, 2, 33, 0
9, 414720, Note_on_c, 2, 33, 106
9, 414805, Note_off_c, 2, 33, 0
9, 414805, Note_on_c, 2, 33, 80
9, 414848, Note_on_c, 2, 49, 100
9, 414890, Note_off_c, 2, 33, 0
9, 414890, Note_on_c, 2, 33, 64
9, 414976, Note_off_c, 2, 49, 0
9, 414976, Note_off_c, 2, 33, 0
9, 414976, Note_on_c, 2, 33, 57
9, 415061, Note_off_c, 2, 33, 0
9, 415061, Note_on_c, 2, 33, 94
9, 415146, Note_off_c, 2, 33, 0
9, 415146, Note_on_c, 2, 33, 127
9, 415232, Note_off_c, 2, 33, 0
9, 415232, Note_on_c, 2, 33, 127
9, 415317, Note_off_c, 2, 33, 0
9, 415317, Note_on_c, 2, 33, 127
9, 415402, Note_off_c, 2, 33, 0
9, 415402, Note_on_c, 2, 33, 127
9, 415488, Note_off_c, 2, 33, 0
9, 415488, Note_on_c, 2, 33, 127
9, 415573, Note_off_c, 2, 33, 0
9, 415573, Note_on_c, 2, 33, 105
9, 415658, Note_off_c, 2, 33, 0
9, 415658, Note_on_c, 2, 33, 83
9, 415744, Note_off_c, 2, 33, 0
9, 415744, Note_on_c, 2, 49, 99
9, 415744, Note_on_c, 2, 33, 61
9, 415829, Note_off_c, 2, 33, 0
9, 415829, Note_on_c, 2, 33, 72
9, 415872, Note_off_c, 2, 49, 0
9, 415914, Note_off_c, 2, 33, 0
9, 415914, Note_on_c, 2, 33, 83
9, 416000, Note_off_c, 2, 33, 0
9, 416000, Note_on_c, 2, 33, 96
9, 416085, Note_off_c, 2, 33, 0
9, 416085, Note_on_c, 2, 33, 106
9, 416170, Note_off_c, 2, 33, 0
9, 416170, Note_on_c, 2, 33, 114
9, 416256, Note_off_c, 2, 33, 0
9, 416256, Note_on_c, 2, 33, 127
9, 416341, Note_off_c, 2, 33, 0
9, 416341, Note_on_c, 2, 33, 127
9, 416426, Note_off_c, 2, 33, 0
9, 416426, Note_on_c, 2, 33, 122
9, 416512, Note_off_c, 2, 33, 0
9, 416512, Note_on_c, 2, 33, 114
9, 416597, Note_off_c, 2, 33, 0
9, 416597, Note_on_c, 2, 33, 103
9, 416640, Note_on_c, 2, 49, 100
9, 416682, Note_off_c, 2, 33, 0
9, 416682, Note_on_c, 2, 33, 93
9, 416768, Note_off_c, 2, 49, 0
9, 416768, Note_off_c, 2, 33, 0
9, 416768, Note_on_c, 2, 33, 87
9, 416853, Note_off_c, 2, 33, 0
9, 416853, Note_on_c, 2, 33, 80
9, 416938, Note_off_c, 2, 33, 0
9, 416938, Note_on_c, 2, 33, 69
9, 417024, Note_off_c, 2, 33, 0
9, 417024, Note_on_c, 2, 33, 63
9, 417109, Note_off_c, 2, 33, 0
9, 417109, Note_on_c, 2, 33, 59
9, 417194, Note_off_c, 2, 33, 0
9, 417194, Note_on_c, 2, 33, 55
9, 417280, Note_off_c, 2, 33, 0
9, 417280, Note_on_c, 2, 51, 100
9, 417280, Note_on_c, 2, 33, 63
9, 417365, Note_off_c, 2, 33, 0
9, 417365, Note_on_c, 2, 33, 83
9, 417408, Note_off_c, 2, 51, 0
9, 417450, Note_off_c, 2, 33, 0
9, 417450, Note_on_c, 2, 33, 106
9, 417536, Note_off_c, 2, 33, 0
9, 417536, Note_on_c, 2, 33, 127
9, 417621, Note_off_c, 2, 33, 0
9, 417621, Note_on_c, 2, 33, 103
9, 417706, Note_off_c, 2, 33, 0
9, 417706, Note_on_c, 2, 33, 80
9, 417792, Note_off_c, 2, 33, 0
9, 417792, Note_on_c, 2, 33, 62
9, 417877, Note_off_c, 2, 33, 0
9, 417877, Note_on_c, 2, 33, 62
9, 417962, Note_off_c, 2, 33, 0
9, 417962, Note_on_c, 2, 33, 70
9, 418048, Note_off_c, 2, 33, 0
9, 418048, Note_on_c, 2, 33, 83
9, 418133, Note_off_c, 2, 33, 0
9, 418133, Note_on_c, 2, 33, 92
9, 418176, Note_on_c, 2, 51, 97
9, 418218, Note_off_c, 2, 33, 0
9, 418218, Note_on_c, 2, 33, 105
9, 418304, Note_off_c, 2, 51, 0
9, 418304, Note_off_c, 2, 33, 0
9, 418304, Note_on_c, 2, 33, 113
9, 418389, Note_off_c, 2, 33, 0
9, 418389, Note_on_c, 2, 33, 114
9, 418474, Note_off_c, 2, 33, 0
9, 418474, Note_on_c, 2, 33, 125
9, 418560, Note_off_c, 2, 33, 0
9, 418560, Note_on_c, 2, 33, 126
9, 418645, Note_off_c, 2, 33, 0
9, 418645, Note_on_c, 2, 33, 109
9, 418730, Note_off_c, 2, 33, 0
9, 418730, Note_on_c, 2, 33, 93
9, 418816, Note_off_c, 2, 33, 0
9, 418816, Note_on_c, 2, 33, 76
9, 418901, Note_off_c, 2, 33, 0
9, 418901, Note_on_c, 2, 33, 58
9, 418986, Note_off_c, 2, 33, 0
9, 418986, Note_on_c, 2, 33, 62
9, 419072, Note_off_c, 2, 33, 0
9, 419072, Note_on_c, 2, 33, 60
9, 419157, Note_off_c, 2, 33, 0
9, 419157, Note_on_c, 2, 33, 85
9, 419200, Note_on_c, 2, 51, 99
9, 419242, Note_off_c, 2, 33, 0
9, 419242, Note_on_c, 2, 33, 107
9, 419328, Note_off_c, 2, 51, 0
9, 419328, Note_off_c, 2, 33, 0
9, 419328, Note_on_c, 2, 33, 127
9, 419413, Note_off_c, 2, 33, 0
9, 419413, Note_on_c, 2, 33, 127
9, 419498, Note_off_c, 2, 33, 0
9, 419498, Note_on_c, 2, 33, 122
9, 419584, Note_off_c, 2, 33, 0
9, 419584, Note_on_c, 2, 33, 94
9, 419669, Note_off_c, 2, 33, 0
9, 419669, Note_on_c, 2, 33, 61
9, 419754, Note_off_c, 2, 33, 0
9, 419754, Note_on_c, 2, 33, 64
9, 419840, Note_off_c, 2, 33, 0
9, 419840, Note_on_c, 2, 51, 100
9, 419840, Note_on_c, 2, 33, 59
9, 419925, Note_off_c, 2, 33, 0
9, 419925, Note_on_c, 2, 33, 86
9, 419968, Note_off_c, 2, 51, 0
9, 420010, Note_off_c, 2, 33, 0
9, 420010, Note_on_c, 2, 33, 109
9, 420096, Note_off_c, 2, 33, 0
9, 420096, Note_on_c, 2, 33, 126
9, 420181, Note_off_c, 2, 33, 0
9, 420181, Note_on_c, 2, 33, 103
9, 420266, Note_off_c, 2, 33, 0
9, 420266, Note_on_c, 2, 33, 85
9, 420352, Note_off_c, 2, 33, 0
9, 420352, Note_on_c, 2, 33, 61
9, 420437, Note_off_c, 2, 33, 0
9, 420437, Note_on_c, 2, 33, 69
9, 420522, Note_off_c, 2, 33, 0
9, 420522, Note_on_c, 2, 33, 88
9, 420608, Note_off_c, 2, 33, 0
9, 420608, Note_on_c, 2, 33, 95
9, 420693, Note_off_c, 2, 33, 0
9, 420693, Note_on_c, 2, 33, 104
9, 420778, Note_off_c, 2, 33, 0
9, 420778, Note_on_c, 2, 33, 117
9, 420864, Note_off_c, 2, 33, 0
9, 420864, Note_on_c, 2, 51, 104
9, 420864, Note_on_c, 2, 33, 127
9, 420949, Note_off_c, 2, 33, 0
9, 420949, Note_on_c, 2, 33, 127
9, 420992, Note_off_c, 2, 51, 0
9, 421034, Note_off_c, 2, 33, 0
9, 421034, Note_on_c, 2, 33, 127
9, 421120, Note_off_c, 2, 33, 0
9, 421120, Note_on_c, 2, 33, 127
9, 421205, Note_off_c, 2, 33, 0
9, 421205, Note_on_c, 2, 33, 127
9, 421290, Note_off_c, 2, 33, 0
9, 421290, Note_on_c, 2, 33, 127
9, 421376, Note_off_c, 2, 33, 0
9, 421376, Note_on_c, 2, 33, 127
9, 421461, Note_off_c, 2, 33, 0
9, 421461, Note_on_c, 2, 33, 127
9, 421546, Note_off_c, 2, 33, 0
9, 421546, Note_on_c, 2, 33, 127
9, 421632, Note_off_c, 2, 33, 0
9, 421632, Note_on_c, 2, 33, 127
9, 421717, Note_off_c, 2, 33, 0
9, 421717, Note_on_c, 2, 33, 127
9, 421760, Note_on_c, 2, 49, 98
9, 421802, Note_off_c, 2, 33, 0
9, 421802, Note_on_c, 2, 33, 127
9, 421888, Note_off_c, 2, 49, 0
9, 421888, Note_off_c, 2, 33, 0
9, 421888, Note_on_c, 2, 33, 127
9, 421973, Note_off_c, 2, 33, 0
9, 421973, Note_on_c, 2, 33, 127
9, 422058, Note_off_c, 2, 33, 0
9, 422058, Note_on_c, 2, 33, 127
9, 422144, Note_off_c, 2, 33, 0
9, 422144, Note_on_c, 2, 33, 127
9, 422229, Note_off_c, 2, 33, 0
9, 422229, Note_on_c, 2, 33, 127
9, 422314, Note_off_c, 2, 33, 0
9, 422314, Note_on_c, 2, 33, 127
9, 422400, Note_off_c, 2, 33, 0
9, 422400, Note_on_c, 2, 46, 98
9, 422400, Note_on_c, 2, 33, 127
9, 422485, Note_off_c, 2, 33, 0
9, 422485, Note_on_c, 2, 33, 118
9, 422528, Note_off_c, 2, 46, 0
9, 422570, Note_off_c, 2, 33, 0
9, 422570, Note_on_c, 2, 33, 111
9, 422656, Note_off_c, 2, 33, 0
9, 422656, Note_on_c, 2, 33, 109
9, 422741, Note_off_c, 2, 33, 0
9, 422741, Note_on_c, 2, 33, 100
9, 422826, Note_off_c, 2, 33, 0
9, 422826, Note_on_c, 2, 33, 95
9, 422912, Note_off_c, 2, 33, 0
9, 422912, Note_on_c, 2, 33, 87
9, 422997, Note_off_c, 2, 33, 0
9, 422997, Note_on_c, 2, 33, 79
9, 423082, Note_off_c, 2, 33, 0
9, 423082, Note_on_c, 2, 33, 75
9, 423168, Note_off_c, 2, 33, 0
9, 423168, Note_on_c, 2, 46, 100
9, 423168, Note_on_c, 2, 33, 73
9, 423253, Note_off_c, 2, 33, 0
9, 423253, Note_on_c, 2, 33, 78
9, 423296, Note_off_c, 2, 46, 0
9, 423338, Note_off_c, 2, 33, 0
9, 423338, Note_on_c, 2, 33, 78
9, 423424, Note_off_c, 2, 33, 0
9, 423424, Note_on_c, 2, 33, 78
9, 423509, Note_off_c, 2, 33, 0
9, 423509, Note_on_c, 2, 33, 80
9, 423594, Note_off_c, 2, 33, 0
9, 423594, Note_on_c, 2, 33, 86
9, 423680, Note_off_c, 2, 33, 0
9, 423680, Note_on_c, 2, 33, 92
9, 423765, Note_off_c, 2, 33, 0
9, 423765, Note_on_c, 2, 33, 85
9, 423850, Note_off_c, 2, 33, 0
9, 423850, Note_on_c, 2, 33, 93
9, 423936, Note_off_c, 2, 33, 0
9, 423936, Note_on_c, 2, 49, 102
9, 423936, Note_on_c, 2, 33, 101
9, 424021, Note_off_c, 2, 33, 0
9, 424021, Note_on_c, 2, 33, 94
9, 424064, Note_off_c, 2, 49, 0
9, 424106, Note_off_c, 2, 33, 0
9, 424106, Note_on_c, 2, 33, 98
9, 424192, Note_off_c, 2, 33, 0
9, 424192, Note_on_c, 2, 33, 102
9, 424277, Note_off_c, 2, 33, 0
9, 424277, Note_on_c, 2, 33, 106
9, 424362, Note_off_c, 2, 33, 0
9, 424362, Note_on_c, 2, 33, 106
9, 424448, Note_off_c, 2, 33, 0
9, 424448, Note_on_c, 2, 33, 114
9, 424533, Note_off_c, 2, 33, 0
9, 424533, Note_on_c, 2, 33, 112
9, 424576, Note_on_c, 2, 46, 94
9, 424618, Note_off_c, 2, 33, 0
9, 424618, Note_on_c, 2, 33, 113
9, 424704, Note_off_c, 2, 46, 0
9, 424704, Note_off_c, 2, 33, 0
9, 424704, Note_on_c, 2, 33, 117
9, 424789, Note_off_c, 2, 33, 0
9, 424789, Note_on_c, 2, 33, 122
9, 424874, Note_off_c, 2, 33, 0
9, 424874, Note_on_c, 2, 33, 125
9, 424960, Note_off_c, 2, 33, 0
9, 424960, Note_on_c, 2, 33, 127
9, 425045, Note_off_c, 2, 33, 0
9, 425045, Note_on_c, 2, 33, 127
9, 425130, Note_off_c, 2, 33, 0
9, 425130, Note_on_c, 2, 33, 127
9, 425216, Note_off_c, 2, 33, 0
9, 425216, Note_on_c, 2, 33, 127
9, 425301, Note_off_c, 2, 33, 0
9, 425301, Note_on_c, 2, 33, 127
9, 425386, Note_off_c, 2, 33, 0
9, 425386, Note_on_c, 2, 33, 127
9, 425472, Note_off_c, 2, 33, 0
9, 439296, Note_on_c, 2, 50, 127
9, 439552, Note_off_c, 2, 50, 0
9, 439808, Note_on_c, 2, 50, 127
9, 440064, Note_off_c, 2, 50, 0
9, 440320, Note_on_c, 2, 50, 127
9, 440576, Note_off_c, 2, 50, 0
9, 440832, Note_on_c, 2, 50, 127
9, 441088, Note_off_c, 2, 50, 0
9, 441344, Note_on_c, 2, 50, 127
9, 441600, Note_off_c, 2, 50, 0
9, 441856, Note_on_c, 2, 50, 127
9, 442112, Note_off_c, 2, 50, 0
9, 442368, Note_on_c, 2, 50, 127
9, 442624, Note_off_c, 2, 50, 0
9, 442880, Note_on_c, 2, 50, 127
9, 443136, Note_off_c, 2, 50, 0
9, 443392, Note_on_c, 2, 50, 127
9, 443648, Note_off_c, 2, 50, 0
9, 443904, Note_on_c, 2, 50, 127
9, 444160, Note_off_c, 2, 50, 0
9, 444416, Note_on_c, 2, 50, 127
9, 444672, Note_off_c, 2, 50, 0
9, 444928, Note_on_c, 2, 50, 127
9, 445184, Note_off_c, 2, 50, 0
9, 445440, Note_on_c, 2, 50, 127
9, 445696, Note_off_c, 2, 50, 0
9, 445952, Note_on_c, 2, 50, 127
9, 446208, Note_off_c, 2, 50, 0
9, 446464, Note_on_c, 2, 50, 127
9, 446720, Note_off_c, 2, 50, 0
9, 446976, Note_on_c, 2, 50, 127
9, 447232, Note_off_c, 2, 50, 0
9, 447488, Note_on_c, 2, 50, 127
9, 447744, Note_off_c, 2, 50, 0
9, 448000, Note_on_c, 2, 50, 127
9, 448256, Note_off_c, 2, 50, 0
9, 448640, Note_on_c, 2, 50, 127
9, 448768, Note_off_c, 2, 50, 0
9, 449024, Note_on_c, 2, 42, 127
9, 449280, Note_off_c, 2, 42, 0
9, 449408, Note_on_c, 2, 50, 127
9, 449536, Note_off_c, 2, 50, 0
9, 449920, Note_on_c, 2, 50, 127
9, 450048, Note_off_c, 2, 50, 0
9, 450432, Note_on_c, 2, 50, 127
9, 450560, Note_off_c, 2, 50, 0
9, 450944, Note_on_c, 2, 50, 127
9, 451072, Note_off_c, 2, 50, 0
9, 451456, Note_on_c, 2, 50, 127
9, 451584, Note_off_c, 2, 50, 0
9, 451968, Note_on_c, 2, 50, 127
9, 452096, Note_off_c, 2, 50, 0
9, 452096, Note_on_c, 2, 42, 127
9, 452352, Note_off_c, 2, 42, 0
9, 452352, Note_on_c, 2, 40, 127
9, 452480, Note_off_c, 2, 40, 0
9, 452480, Note_on_c, 2, 50, 127
9, 452608, Note_off_c, 2, 50, 0
9, 452992, Note_on_c, 2, 50, 127
9, 453120, Note_off_c, 2, 50, 0
9, 453504, Note_on_c, 2, 50, 127
9, 453632, Note_off_c, 2, 50, 0
9, 454016, Note_on_c, 2, 42, 127
9, 454144, Note_off_c, 2, 42, 0
9, 454400, Note_on_c, 2, 40, 127
9, 454528, Note_off_c, 2, 40, 0
9, 454528, Note_on_c, 2, 50, 127
9, 454656, Note_off_c, 2, 50, 0
9, 455040, Note_on_c, 2, 50, 127
9, 455168, Note_off_c, 2, 50, 0
9, 455552, Note_on_c, 2, 50, 127
9, 455680, Note_off_c, 2, 50, 0
9, 456064, Note_on_c, 2, 50, 127
9, 456192, Note_off_c, 2, 50, 0
9, 456448, Note_on_c, 2, 42, 127
9, 456704, Note_off_c, 2, 42, 0
9, 457088, Note_on_c, 2, 50, 127
9, 457216, Note_off_c, 2, 50, 0
9, 457344, Note_on_c, 2, 42, 127
9, 457472, Note_off_c, 2, 42, 0
9, 457984, Note_on_c, 2, 50, 127
9, 458240, Note_off_c, 2, 50, 0
9, 458496, Note_on_c, 2, 50, 127
9, 458752, Note_off_c, 2, 50, 0
9, 459008, Note_on_c, 2, 50, 127
9, 459264, Note_off_c, 2, 50, 0
9, 459520, Note_on_c, 2, 50, 127
9, 459776, Note_off_c, 2, 50, 0
9, 460032, Note_on_c, 2, 50, 127
9, 460288, Note_off_c, 2, 50, 0
9, 460544, Note_on_c, 2, 50, 127
9, 460800, Note_off_c, 2, 50, 0
9, 461056, Note_on_c, 2, 49, 127
9, 461312, Note_off_c, 2, 49, 0
9, 461440, Note_on_c, 2, 42, 127
9, 461568, Note_off_c, 2, 42, 0
9, 461824, Note_on_c, 2, 44, 127
9, 462080, Note_off_c, 2, 44, 0
9, 462592, Note_on_c, 2, 44, 127
9, 462848, Note_off_c, 2, 44, 0
9, 462848, Note_on_c, 2, 50, 127
9, 463104, Note_off_c, 2, 50, 0
9, 463360, Note_on_c, 2, 42, 127
9, 463616, Note_off_c, 2, 42, 0
9, 463872, Note_on_c, 2, 50, 127
9, 464128, Note_off_c, 2, 50, 0
9, 464384, Note_on_c, 2, 50, 127
9, 464640, Note_off_c, 2, 50, 0
9, 464768, Note_on_c, 2, 44, 127
9, 464896, Note_off_c, 2, 44, 0
9, 465280, Note_on_c, 2, 42, 127
9, 465408, Note_off_c, 2, 42, 0
9, 465664, Note_on_c, 2, 40, 127
9, 465920, Note_off_c, 2, 40, 0
9, 465920, Note_on_c, 2, 50, 127
9, 466176, Note_off_c, 2, 50, 0
9, 466304, Note_on_c, 2, 50, 127
9, 466432, Note_off_c, 2, 50, 0
9, 466816, Note_on_c, 2, 50, 127
9, 466944, Note_off_c, 2, 50, 0
9, 467200, Note_on_c, 2, 40, 127
9, 467456, Note_off_c, 2, 40, 0
9, 467584, Note_on_c, 2, 50, 127
9, 467712, Note_off_c, 2, 50, 0
9, 468096, Note_on_c, 2, 50, 127
9, 468224, Note_off_c, 2, 50, 0
9, 468225, End_track
10, 0, Start_track
10, 0, Program_c, 9, 0
10, 0, Control_c, 9, 121, 0
10, 0, Control_c, 9, 64, 0
10, 0, Control_c, 9, 91, 72
10, 0, Control_c, 9, 10, 64
10, 0, Control_c, 9, 7, 101
10, 0, Title_t, "Triangle"
10, 425472, Note_on_c, 9, 81, 64
10, 425600, Note_off_c, 9, 81, 0
10, 425600, Note_on_c, 9, 81, 69
10, 425728, Note_off_c, 9, 81, 0
10, 425728, Note_on_c, 9, 81, 72
10, 425856, Note_off_c, 9, 81, 0
10, 425856, Note_on_c, 9, 81, 66
10, 425984, Note_off_c, 9, 81, 0
10, 425984, Note_on_c, 9, 81, 70
10, 426112, Note_off_c, 9, 81, 0
10, 426112, Note_on_c, 9, 81, 74
10, 426240, Note_off_c, 9, 81, 0
10, 426240, Note_on_c, 9, 81, 68
10, 426368, Note_off_c, 9, 81, 0
10, 426368, Note_on_c, 9, 81, 73
10, 426496, Note_off_c, 9, 81, 0
10, 426496, Note_on_c, 9, 81, 72
10, 426624, Note_off_c, 9, 81, 0
10, 426624, Note_on_c, 9, 81, 72
10, 426752, Note_off_c, 9, 81, 0
10, 426752, Note_on_c, 9, 81, 68
10, 426880, Note_off_c, 9, 81, 0
10, 426880, Note_on_c, 9, 81, 72
10, 427008, Note_off_c, 9, 81, 0
10, 427008, Note_on_c, 9, 81, 66
10, 427136, Note_off_c, 9, 81, 0
10, 427136, Note_on_c, 9, 81, 70
10, 427264, Note_off_c, 9, 81, 0
10, 427264, Note_on_c, 9, 81, 72
10, 427392, Note_off_c, 9, 81, 0
10, 427392, Note_on_c, 9, 81, 68
10, 427520, Note_off_c, 9, 81, 0
10, 427520, Note_on_c, 9, 81, 69
10, 427648, Note_off_c, 9, 81, 0
10, 427648, Note_on_c, 9, 81, 68
10, 427776, Note_off_c, 9, 81, 0
10, 427776, Note_on_c, 9, 81, 66
10, 427904, Note_off_c, 9, 81, 0
10, 427904, Note_on_c, 9, 81, 72
10, 428032, Note_off_c, 9, 81, 0
10, 428032, Note_on_c, 9, 81, 71
10, 428160, Note_off_c, 9, 81, 0
10, 428160, Note_on_c, 9, 81, 73
10, 428288, Note_off_c, 9, 81, 0
10, 428288, Note_on_c, 9, 81, 68
10, 428416, Note_off_c, 9, 81, 0
10, 428416, Note_on_c, 9, 81, 67
10, 428544, Note_off_c, 9, 81, 0
10, 428544, Note_on_c, 9, 81, 71
10, 428672, Note_off_c, 9, 81, 0
10, 428672, Note_on_c, 9, 81, 75
10, 428800, Note_off_c, 9, 81, 0
10, 428800, Note_on_c, 9, 81, 66
10, 428928, Note_off_c, 9, 81, 0
10, 428928, Note_on_c, 9, 81, 73
10, 429056, Note_off_c, 9, 81, 0
10, 429056, Note_on_c, 9, 81, 74
10, 429184, Note_off_c, 9, 81, 0
10, 429184, Note_on_c, 9, 81, 74
10, 429312, Note_off_c, 9, 81, 0
10, 429312, Note_on_c, 9, 81, 67
10, 429440, Note_off_c, 9, 81, 0
10, 429440, Note_on_c, 9, 81, 71
10, 429568, Note_off_c, 9, 81, 0
10, 429568, Note_on_c, 9, 81, 66
10, 429696, Note_off_c, 9, 81, 0
10, 429696, Note_on_c, 9, 81, 68
10, 429824, Note_off_c, 9, 81, 0
10, 429824, Note_on_c, 9, 81, 71
10, 429952, Note_off_c, 9, 81, 0
10, 429952, Note_on_c, 9, 81, 72
10, 430080, Note_off_c, 9, 81, 0
10, 430080, Note_on_c, 9, 81, 70
10, 430208, Note_off_c, 9, 81, 0
10, 430208, Note_on_c, 9, 81, 75
10, 430336, Note_off_c, 9, 81, 0
10, 430336, Note_on_c, 9, 81, 78
10, 430464, Note_off_c, 9, 81, 0
10, 430464, Note_on_c, 9, 81, 67
10, 430592, Note_off_c, 9, 81, 0
10, 430592, Note_on_c, 9, 81, 68
10, 430720, Note_off_c, 9, 81, 0
10, 430720, Note_on_c, 9, 81, 70
10, 430848, Note_off_c, 9, 81, 0
10, 430848, Note_on_c, 9, 81, 68
10, 430976, Note_off_c, 9, 81, 0
10, 430976, Note_on_c, 9, 81, 70
10, 431104, Note_off_c, 9, 81, 0
10, 431104, Note_on_c, 9, 81, 71
10, 431232, Note_off_c, 9, 81, 0
10, 431232, Note_on_c, 9, 81, 68
10, 431360, Note_off_c, 9, 81, 0
10, 431360, Note_on_c, 9, 81, 73
10, 431488, Note_off_c, 9, 81, 0
10, 431488, Note_on_c, 9, 81, 73
10, 431616, Note_off_c, 9, 81, 0
10, 431616, Note_on_c, 9, 81, 70
10, 431744, Note_off_c, 9, 81, 0
10, 431744, Note_on_c, 9, 81, 69
10, 431872, Note_off_c, 9, 81, 0
10, 431872, Note_on_c, 9, 81, 73
10, 432000, Note_off_c, 9, 81, 0
10, 432000, Note_on_c, 9, 81, 75
10, 432128, Note_off_c, 9, 81, 0
10, 432128, Note_on_c, 9, 81, 71
10, 432256, Note_off_c, 9, 81, 0
10, 432256, Note_on_c, 9, 81, 68
10, 432384, Note_off_c, 9, 81, 0
10, 432384, Note_on_c, 9, 81, 69
10, 432512, Note_off_c, 9, 81, 0
10, 432512, Note_on_c, 9, 81, 68
10, 432640, Note_off_c, 9, 81, 0
10, 432640, Note_on_c, 9, 81, 70
10, 432768, Note_off_c, 9, 81, 0
10, 432768, Note_on_c, 9, 81, 71
10, 432896, Note_off_c, 9, 81, 0
10, 432896, Note_on_c, 9, 81, 69
10, 433024, Note_off_c, 9, 81, 0
10, 433024, Note_on_c, 9, 81, 71
10, 433152, Note_off_c, 9, 81, 0
10, 433152, Note_on_c, 9, 81, 67
10, 433280, Note_off_c, 9, 81, 0
10, 433280, Note_on_c, 9, 81, 77
10, 433408, Note_off_c, 9, 81, 0
10, 433408, Note_on_c, 9, 81, 73
10, 433536, Note_off_c, 9, 81, 0
10, 433536, Note_on_c, 9, 81, 73
10, 433664, Note_off_c, 9, 81, 0
10, 433664, Note_on_c, 9, 81, 70
10, 433792, Note_off_c, 9, 81, 0
10, 433792, Note_on_c, 9, 81, 71
10, 433920, Note_off_c, 9, 81, 0
10, 433920, Note_on_c, 9, 81, 70
10, 434048, Note_off_c, 9, 81, 0
10, 434048, Note_on_c, 9, 81, 69
10, 434176, Note_off_c, 9, 81, 0
10, 434176, Note_on_c, 9, 81, 75
10, 434304, Note_off_c, 9, 81, 0
10, 434304, Note_on_c, 9, 81, 73
10, 434432, Note_off_c, 9, 81, 0
10, 434432, Note_on_c, 9, 81, 71
10, 434560, Note_off_c, 9, 81, 0
10, 434560, Note_on_c, 9, 81, 70
10, 434688, Note_off_c, 9, 81, 0
10, 434688, Note_on_c, 9, 81, 70
10, 434816, Note_off_c, 9, 81, 0
10, 434816, Note_on_c, 9, 81, 74
10, 434944, Note_off_c, 9, 81, 0
10, 434944, Note_on_c, 9, 81, 71
10, 435072, Note_off_c, 9, 81, 0
10, 435072, Note_on_c, 9, 81, 71
10, 435200, Note_off_c, 9, 81, 0
10, 435200, Note_on_c, 9, 81, 70
10, 435328, Note_off_c, 9, 81, 0
10, 435328, Note_on_c, 9, 81, 71
10, 435456, Note_off_c, 9, 81, 0
10, 435456, Note_on_c, 9, 81, 71
10, 435584, Note_off_c, 9, 81, 0
10, 435584, Note_on_c, 9, 81, 65
10, 435712, Note_off_c, 9, 81, 0
10, 435712, Note_on_c, 9, 81, 73
10, 435840, Note_off_c, 9, 81, 0
10, 435840, Note_on_c, 9, 81, 74
10, 435968, Note_off_c, 9, 81, 0
10, 435968, Note_on_c, 9, 81, 70
10, 436096, Note_off_c, 9, 81, 0
10, 436096, Note_on_c, 9, 81, 72
10, 436224, Note_off_c, 9, 81, 0
10, 436224, Note_on_c, 9, 81, 71
10, 436352, Note_off_c, 9, 81, 0
10, 436352, Note_on_c, 9, 81, 72
10, 436480, Note_off_c, 9, 81, 0
10, 436480, Note_on_c, 9, 81, 75
10, 436608, Note_off_c, 9, 81, 0
10, 436608, Note_on_c, 9, 81, 72
10, 436736, Note_off_c, 9, 81, 0
10, 436736, Note_on_c, 9, 81, 69
10, 436864, Note_off_c, 9, 81, 0
10, 436864, Note_on_c, 9, 81, 76
10, 436992, Note_off_c, 9, 81, 0
10, 437120, Note_on_c, 9, 81, 67
10, 437248, Note_off_c, 9, 81, 0
10, 437248, Note_on_c, 9, 81, 70
10, 437376, Note_off_c, 9, 81, 0
10, 437504, Note_on_c, 9, 81, 64
10, 437632, Note_off_c, 9, 81, 0
10, 437888, Note_on_c, 9, 81, 61
10, 438016, Note_off_c, 9, 81, 0
10, 438016, Note_on_c, 9, 81, 76
10, 438144, Note_off_c, 9, 81, 0
10, 438272, Note_on_c, 9, 81, 65
10, 438400, Note_off_c, 9, 81, 0
10, 438528, Note_on_c, 9, 81, 61
10, 438656, Note_off_c, 9, 81, 0
10, 439552, Note_on_c, 9, 81, 63
10, 439680, Note_off_c, 9, 81, 0
10, 440064, Note_on_c, 9, 81, 65
10, 440192, Note_off_c, 9, 81, 0
10, 441258, Note_on_c, 9, 81, 67
10, 441429, Note_off_c, 9, 81, 0
10, 442624, Note_on_c, 9, 81, 64
10, 442794, Note_off_c, 9, 81, 0
10, 442965, Note_on_c, 9, 81, 65
10, 443136, Note_off_c, 9, 81, 0
10, 443904, Note_on_c, 9, 81, 70
10, 444032, Note_off_c, 9, 81, 0
10, 445568, Note_on_c, 9, 81, 62
10, 445696, Note_off_c, 9, 81, 0
10, 445824, Note_on_c, 9, 81, 66
10, 445952, Note_off_c, 9, 81, 0
10, 447104, Note_on_c, 9, 81, 64
10, 447232, Note_off_c, 9, 81, 0
10, 447744, Note_on_c, 9, 81, 64
10, 447914, Note_off_c, 9, 81, 0
10, 448896, Note_on_c, 9, 81, 65
10, 449024, Note_off_c, 9, 81, 0
10, 449280, Note_on_c, 9, 81, 71
10, 449450, Note_off_c, 9, 81, 0
10, 451200, Note_on_c, 9, 81, 63
10, 451328, Note_off_c, 9, 81, 0
10, 452224, Note_on_c, 9, 81, 66
10, 452352, Note_off_c, 9, 81, 0
10, 453504, Note_on_c, 9, 81, 64
10, 453632, Note_off_c, 9, 81, 0
10, 455040, Note_on_c, 9, 81, 63
10, 455168, Note_off_c, 9, 81, 0
10, 456320, Note_on_c, 9, 81, 64
10, 456448, Note_off_c, 9, 81, 0
10, 458368, Note_on_c, 9, 81, 58
10, 458496, Note_off_c, 9, 81, 0
10, 458880, Note_on_c, 9, 81, 59
10, 459008, Note_off_c, 9, 81, 0
10, 459392, Note_on_c, 9, 81, 66
10, 459520, Note_off_c, 9, 81, 0
10, 459904, Note_on_c, 9, 81, 64
10, 460032, Note_off_c, 9, 81, 0
10, 462848, Note_on_c, 9, 81, 66
10, 463018, Note_off_c, 9, 81, 0
10, 463360, Note_on_c, 9, 81, 64
10, 463445, Note_off_c, 9, 81, 0
10, 463701, Note_on_c, 9, 81, 68
10, 463786, Note_off_c, 9, 81, 0
10, 464042, Note_on_c, 9, 81, 65
10, 464213, Note_off_c, 9, 81, 0
10, 464384, Note_on_c, 9, 81, 63
10, 464554, Note_off_c, 9, 81, 0
10, 464725, Note_on_c, 9, 81, 66
10, 464896, Note_off_c, 9, 81, 0
10, 465152, Note_on_c, 9, 81, 62
10, 465322, Note_off_c, 9, 81, 0
10, 465493, Note_on_c, 9, 81, 65
10, 465664, Note_off_c, 9, 81, 0
10, 465834, Note_on_c, 9, 81, 61
10, 465920, Note_off_c, 9, 81, 0
10, 466176, Note_on_c, 9, 81, 67
10, 466346, Note_off_c, 9, 81, 0
10, 466517, Note_on_c, 9, 81, 66
10, 466688, Note_off_c, 9, 81, 0
10, 466858, Note_on_c, 9, 81, 68
10, 467029, Note_off_c, 9, 81, 0
10, 467370, Note_on_c, 9, 81, 65
10, 467456, Note_off_c, 9, 81, 0
10, 467457, End_track
11, 0, Start_track
11, 0, Program_c, 9, 0
11, 0, Control_c, 9, 121, 0
11, 0, Control_c, 9, 64, 0
11, 0, Control_c, 9, 91, 72
11, 0, Control_c, 9, 10, 64
11, 0, Control_c, 9, 7, 101
11, 0, Title_t, "Bass Drum"
11, 1, End_track
12, 0, Start_track
12, 0, Program_c, 9, 0
12, 0, Control_c, 9, 121, 0
12, 0, Control_c, 9, 64, 0
12, 0, Control_c, 9, 91, 72
12, 0, Control_c, 9, 10, 64
12, 0, Control_c, 9, 7, 101
12, 0, Title_t, "Cymbals"
12, 1, End_track
13, 0, Start_track
13, 0, Program_c, 9, 0
13, 0, Control_c, 9, 121, 0
13, 0, Control_c, 9, 64, 0
13, 0, Control_c, 9, 91, 72
13, 0, Control_c, 9, 10, 64
13, 0, Control_c, 9, 7, 101
13, 0, Title_t, "Anvil"
13, 1, End_track
14, 0, Start_track
14, 0, Program_c, 9, 0
14, 0, Control_c, 9, 121, 0
14, 0, Control_c, 9, 64, 0
14, 0, Control_c, 9, 91, 72
14, 0, Control_c, 9, 10, 64
14, 0, Control_c, 9, 7, 101
14, 0, Title_t, "Sleigh Bells"
14, 438528, Note_on_c, 9, 83, 73
14, 438656, Note_off_c, 9, 83, 0
14, 438656, Note_on_c, 9, 83, 82
14, 438784, Note_off_c, 9, 83, 0
14, 438912, Note_on_c, 9, 83, 73
14, 439040, Note_off_c, 9, 83, 0
14, 439040, Note_on_c, 9, 83, 83
14, 439168, Note_off_c, 9, 83, 0
14, 439168, Note_on_c, 9, 83, 85
14, 439296, Note_off_c, 9, 83, 0
14, 439296, Note_on_c, 9, 83, 79
14, 439424, Note_off_c, 9, 83, 0
14, 439424, Note_on_c, 9, 83, 83
14, 439552, Note_off_c, 9, 83, 0
14, 439680, Note_on_c, 9, 83, 73
14, 439808, Note_off_c, 9, 83, 0
14, 439808, Note_on_c, 9, 83, 78
14, 439936, Note_off_c, 9, 83, 0
14, 439936, Note_on_c, 9, 83, 82
14, 440064, Note_off_c, 9, 83, 0
14, 440192, Note_on_c, 9, 83, 77
14, 440320, Note_off_c, 9, 83, 0
14, 440320, Note_on_c, 9, 83, 85
14, 440576, Note_off_c, 9, 83, 0
14, 440576, Note_on_c, 9, 83, 82
14, 440661, Note_off_c, 9, 83, 0
14, 440746, Note_on_c, 9, 83, 76
14, 440832, Note_off_c, 9, 83, 0
14, 440917, Note_on_c, 9, 83, 74
14, 441002, Note_off_c, 9, 83, 0
14, 441088, Note_on_c, 9, 83, 70
14, 441173, Note_off_c, 9, 83, 0
14, 441429, Note_on_c, 9, 83, 76
14, 441514, Note_off_c, 9, 83, 0
14, 441600, Note_on_c, 9, 83, 73
14, 441728, Note_off_c, 9, 83, 0
14, 441856, Note_on_c, 9, 83, 77
14, 441984, Note_off_c, 9, 83, 0
14, 442112, Note_on_c, 9, 83, 71
14, 442240, Note_off_c, 9, 83, 0
14, 442240, Note_on_c, 9, 83, 82
14, 442368, Note_off_c, 9, 83, 0
14, 442496, Note_on_c, 9, 83, 76
14, 442624, Note_off_c, 9, 83, 0
14, 442794, Note_on_c, 9, 83, 74
14, 442880, Note_off_c, 9, 83, 0
14, 443392, Note_on_c, 9, 83, 73
14, 443520, Note_off_c, 9, 83, 0
14, 443520, Note_on_c, 9, 83, 84
14, 443648, Note_off_c, 9, 83, 0
14, 443776, Note_on_c, 9, 83, 79
14, 443904, Note_off_c, 9, 83, 0
14, 444032, Note_on_c, 9, 83, 80
14, 444160, Note_off_c, 9, 83, 0
14, 444160, Note_on_c, 9, 83, 79
14, 444288, Note_off_c, 9, 83, 0
14, 444416, Note_on_c, 9, 83, 70
14, 444544, Note_off_c, 9, 83, 0
14, 444672, Note_on_c, 9, 83, 79
14, 444757, Note_off_c, 9, 83, 0
14, 444842, Note_on_c, 9, 83, 80
14, 444928, Note_off_c, 9, 83, 0
14, 445013, Note_on_c, 9, 83, 77
14, 445098, Note_off_c, 9, 83, 0
14, 445312, Note_on_c, 9, 83, 73
14, 445440, Note_off_c, 9, 83, 0
14, 445440, Note_on_c, 9, 83, 82
14, 445568, Note_off_c, 9, 83, 0
14, 445696, Note_on_c, 9, 83, 79
14, 445824, Note_off_c, 9, 83, 0
14, 445952, Note_on_c, 9, 83, 74
14, 446080, Note_off_c, 9, 83, 0
14, 446080, Note_on_c, 9, 83, 80
14, 446208, Note_off_c, 9, 83, 0
14, 446336, Note_on_c, 9, 83, 81
14, 446464, Note_off_c, 9, 83, 0
14, 446592, Note_on_c, 9, 83, 71
14, 446720, Note_off_c, 9, 83, 0
14, 446720, Note_on_c, 9, 83, 81
14, 446848, Note_off_c, 9, 83, 0
14, 447232, Note_on_c, 9, 83, 74
14, 447360, Note_off_c, 9, 83, 0
14, 447360, Note_on_c, 9, 83, 82
14, 447488, Note_off_c, 9, 83, 0
14, 447616, Note_on_c, 9, 83, 76
14, 447744, Note_off_c, 9, 83, 0
14, 447914, Note_on_c, 9, 83, 76
14, 448000, Note_off_c, 9, 83, 0
14, 448085, Note_on_c, 9, 83, 72
14, 448170, Note_off_c, 9, 83, 0
14, 448256, Note_on_c, 9, 83, 73
14, 448341, Note_off_c, 9, 83, 0
14, 448426, Note_on_c, 9, 83, 77
14, 448512, Note_off_c, 9, 83, 0
14, 448640, Note_on_c, 9, 83, 71
14, 448768, Note_off_c, 9, 83, 0
14, 449024, Note_on_c, 9, 83, 75
14, 449152, Note_off_c, 9, 83, 0
14, 449152, Note_on_c, 9, 83, 82
14, 449280, Note_off_c, 9, 83, 0
14, 449450, Note_on_c, 9, 83, 75
14, 449536, Note_off_c, 9, 83, 0
14, 449621, Note_on_c, 9, 83, 78
14, 449706, Note_off_c, 9, 83, 0
14, 449920, Note_on_c, 9, 83, 75
14, 450048, Note_off_c, 9, 83, 0
14, 450048, Note_on_c, 9, 83, 83
14, 450176, Note_off_c, 9, 83, 0
14, 450432, Note_on_c, 9, 83, 77
14, 450560, Note_off_c, 9, 83, 0
14, 450560, Note_on_c, 9, 83, 82
14, 450645, Note_off_c, 9, 83, 0
14, 450730, Note_on_c, 9, 83, 76
14, 450816, Note_off_c, 9, 83, 0
14, 450901, Note_on_c, 9, 83, 77
14, 450986, Note_off_c, 9, 83, 0
14, 451328, Note_on_c, 9, 83, 76
14, 451456, Note_off_c, 9, 83, 0
14, 451456, Note_on_c, 9, 83, 85
14, 451584, Note_off_c, 9, 83, 0
14, 451712, Note_on_c, 9, 83, 72
14, 451840, Note_off_c, 9, 83, 0
14, 451968, Note_on_c, 9, 83, 75
14, 452096, Note_off_c, 9, 83, 0
14, 452096, Note_on_c, 9, 83, 81
14, 452224, Note_off_c, 9, 83, 0
14, 452352, Note_on_c, 9, 83, 77
14, 452480, Note_off_c, 9, 83, 0
14, 452608, Note_on_c, 9, 83, 80
14, 452736, Note_off_c, 9, 83, 0
14, 452736, Note_on_c, 9, 83, 83
14, 452864, Note_off_c, 9, 83, 0
14, 452992, Note_on_c, 9, 83, 78
14, 453120, Note_off_c, 9, 83, 0
14, 453248, Note_on_c, 9, 83, 76
14, 453376, Note_off_c, 9, 83, 0
14, 453376, Note_on_c, 9, 83, 81
14, 453504, Note_off_c, 9, 83, 0
14, 453632, Note_on_c, 9, 83, 77
14, 453760, Note_off_c, 9, 83, 0
14, 453888, Note_on_c, 9, 83, 74
14, 454016, Note_off_c, 9, 83, 0
14, 454016, Note_on_c, 9, 83, 80
14, 454144, Note_off_c, 9, 83, 0
14, 454144, Note_on_c, 9, 83, 81
14, 454229, Note_off_c, 9, 83, 0
14, 454314, Note_on_c, 9, 83, 79
14, 454400, Note_off_c, 9, 83, 0
14, 454485, Note_on_c, 9, 83, 73
14, 454570, Note_off_c, 9, 83, 0
14, 454656, Note_on_c, 9, 83, 68
14, 454784, Note_off_c, 9, 83, 0
14, 454784, Note_on_c, 9, 83, 85
14, 454912, Note_off_c, 9, 83, 0
14, 454912, Note_on_c, 9, 83, 81
14, 455040, Note_off_c, 9, 83, 0
14, 455168, Note_on_c, 9, 83, 73
14, 455296, Note_off_c, 9, 83, 0
14, 455296, Note_on_c, 9, 83, 82
14, 455424, Note_off_c, 9, 83, 0
14, 455552, Note_on_c, 9, 83, 76
14, 455680, Note_off_c, 9, 83, 0
14, 455680, Note_on_c, 9, 83, 82
14, 455765, Note_off_c, 9, 83, 0
14, 455850, Note_on_c, 9, 83, 75
14, 455936, Note_off_c, 9, 83, 0
14, 456021, Note_on_c, 9, 83, 75
14, 456106, Note_off_c, 9, 83, 0
14, 456448, Note_on_c, 9, 83, 75
14, 456576, Note_off_c, 9, 83, 0
14, 456576, Note_on_c, 9, 83, 88
14, 456704, Note_off_c, 9, 83, 0
14, 456832, Note_on_c, 9, 83, 77
14, 456960, Note_off_c, 9, 83, 0
14, 457216, Note_on_c, 9, 83, 76
14, 457301, Note_off_c, 9, 83, 0
14, 457386, Note_on_c, 9, 83, 73
14, 457472, Note_off_c, 9, 83, 0
14, 457557, Note_on_c, 9, 83, 74
14, 457642, Note_off_c, 9, 83, 0
14, 457728, Note_on_c, 9, 83, 75
14, 457813, Note_off_c, 9, 83, 0
14, 457898, Note_on_c, 9, 83, 76
14, 457984, Note_off_c, 9, 83, 0
14, 458069, Note_on_c, 9, 83, 76
14, 458154, Note_off_c, 9, 83, 0
14, 458496, Note_on_c, 9, 83, 74
14, 458624, Note_off_c, 9, 83, 0
14, 458624, Note_on_c, 9, 83, 85
14, 458752, Note_off_c, 9, 83, 0
14, 458752, Note_on_c, 9, 83, 86
14, 458880, Note_off_c, 9, 83, 0
14, 459008, Note_on_c, 9, 83, 76
14, 459136, Note_off_c, 9, 83, 0
14, 459136, Note_on_c, 9, 83, 83
14, 459264, Note_off_c, 9, 83, 0
14, 459520, Note_on_c, 9, 83, 75
14, 459648, Note_off_c, 9, 83, 0
14, 459648, Note_on_c, 9, 83, 82
14, 459776, Note_off_c, 9, 83, 0
14, 459776, Note_on_c, 9, 83, 83
14, 459904, Note_off_c, 9, 83, 0
14, 460202, Note_on_c, 9, 83, 79
14, 460288, Note_off_c, 9, 83, 0
14, 460373, Note_on_c, 9, 83, 77
14, 460458, Note_off_c, 9, 83, 0
14, 460544, Note_on_c, 9, 83, 79
14, 460629, Note_off_c, 9, 83, 0
14, 460714, Note_on_c, 9, 83, 73
14, 460800, Note_off_c, 9, 83, 0
14, 460885, Note_on_c, 9, 83, 74
14, 460970, Note_off_c, 9, 83, 0
14, 461184, Note_on_c, 9, 83, 78
14, 461312, Note_off_c, 9, 83, 0
14, 461312, Note_on_c, 9, 83, 87
14, 461440, Note_off_c, 9, 83, 0
14, 461440, Note_on_c, 9, 83, 85
14, 461568, Note_off_c, 9, 83, 0
14, 461568, Note_on_c, 9, 83, 83
14, 461696, Note_off_c, 9, 83, 0
14, 461696, Note_on_c, 9, 83, 87
14, 461824, Note_off_c, 9, 83, 0
14, 461824, Note_on_c, 9, 83, 84
14, 461952, Note_off_c, 9, 83, 0
14, 461952, Note_on_c, 9, 83, 85
14, 462080, Note_off_c, 9, 83, 0
14, 462080, Note_on_c, 9, 83, 80
14, 462208, Note_off_c, 9, 83, 0
14, 462208, Note_on_c, 9, 83, 80
14, 462336, Note_off_c, 9, 83, 0
14, 462464, Note_on_c, 9, 83, 72
14, 462592, Note_off_c, 9, 83, 0
14, 462592, Note_on_c, 9, 83, 85
14, 462720, Note_off_c, 9, 83, 0
14, 462720, Note_on_c, 9, 83, 86
14, 462848, Note_off_c, 9, 83, 0
14, 463189, Note_on_c, 9, 83, 78
14, 463274, Note_off_c, 9, 83, 0
14, 463530, Note_on_c, 9, 83, 74
14, 463616, Note_off_c, 9, 83, 0
14, 463701, Note_on_c, 9, 83, 77
14, 463786, Note_off_c, 9, 83, 0
14, 463872, Note_on_c, 9, 83, 75
14, 463957, Note_off_c, 9, 83, 0
14, 464213, Note_on_c, 9, 83, 78
14, 464298, Note_off_c, 9, 83, 0
14, 464554, Note_on_c, 9, 83, 77
14, 464640, Note_off_c, 9, 83, 0
14, 465322, Note_on_c, 9, 83, 78
14, 465493, Note_off_c, 9, 83, 0
14, 465664, Note_on_c, 9, 83, 72
14, 465749, Note_off_c, 9, 83, 0
14, 466005, Note_on_c, 9, 83, 73
14, 466090, Note_off_c, 9, 83, 0
14, 466346, Note_on_c, 9, 83, 74
14, 466432, Note_off_c, 9, 83, 0
14, 466688, Note_on_c, 9, 83, 71
14, 466773, Note_off_c, 9, 83, 0
14, 467029, Note_on_c, 9, 83, 76
14, 467114, Note_off_c, 9, 83, 0
14, 467200, Note_on_c, 9, 83, 75
14, 467285, Note_off_c, 9, 83, 0
14, 467370, Note_on_c, 9, 83, 78
14, 467456, Note_off_c, 9, 83, 0
14, 467457, End_track
15, 0, Start_track
15, 0, Program_c, 9, 0
15, 0, Control_c, 9, 121, 0
15, 0, Control_c, 9, 64, 0
15, 0, Control_c, 9, 91, 72
15, 0, Control_c, 9, 10, 64
15, 0, Control_c, 9, 7, 101
15, 0, Title_t, "Shaker"
15, 137216, Note_on_c, 9, 82, 85
15, 137408, Note_off_c, 9, 82, 0
15, 137408, Note_on_c, 9, 82, 96
15, 137600, Note_off_c, 9, 82, 0
15, 137600, Note_on_c, 9, 82, 94
15, 137792, Note_off_c, 9, 82, 0
15, 137792, Note_on_c, 9, 82, 98
15, 137984, Note_off_c, 9, 82, 0
15, 138752, Note_on_c, 9, 82, 84
15, 138944, Note_off_c, 9, 82, 0
15, 138944, Note_on_c, 9, 82, 93
15, 139136, Note_off_c, 9, 82, 0
15, 139136, Note_on_c, 9, 82, 104
15, 139328, Note_off_c, 9, 82, 0
15, 139328, Note_on_c, 9, 82, 98
15, 139520, Note_off_c, 9, 82, 0
15, 139776, Note_on_c, 9, 82, 85
15, 139968, Note_off_c, 9, 82, 0
15, 139968, Note_on_c, 9, 82, 97
15, 140160, Note_off_c, 9, 82, 0
15, 140160, Note_on_c, 9, 82, 99
15, 140352, Note_off_c, 9, 82, 0
15, 140352, Note_on_c, 9, 82, 98
15, 140544, Note_off_c, 9, 82, 0
15, 141824, Note_on_c, 9, 82, 88
15, 142016, Note_off_c, 9, 82, 0
15, 142016, Note_on_c, 9, 82, 98
15, 142208, Note_off_c, 9, 82, 0
15, 142208, Note_on_c, 9, 82, 102
15, 142400, Note_off_c, 9, 82, 0
15, 142400, Note_on_c, 9, 82, 96
15, 142592, Note_off_c, 9, 82, 0
15, 143616, Note_on_c, 9, 82, 90
15, 143808, Note_off_c, 9, 82, 0
15, 143808, Note_on_c, 9, 82, 99
15, 144000, Note_off_c, 9, 82, 0
15, 144000, Note_on_c, 9, 82, 98
15, 144192, Note_off_c, 9, 82, 0
15, 144192, Note_on_c, 9, 82, 95
15, 144384, Note_off_c, 9, 82, 0
15, 144385, End_track
16, 0, Start_track
16, 0, Program_c, 0, 11
16, 0, Control_c, 0, 121, 0
16, 0, Control_c, 0, 64, 0
16, 0, Control_c, 0, 91, 72
16, 0, Control_c, 0, 10, 90
16, 0, Control_c, 0, 7, 91
16, 0, Control_c, 0, 121, 0
16, 0, Control_c, 0, 64, 0
16, 0, Control_c, 0, 91, 72
16, 0, Control_c, 0, 10, 90
16, 0, Control_c, 0, 7, 91
16, 0, Control_c, 0, 121, 0
16, 0, Control_c, 0, 64, 0
16, 0, Control_c, 0, 91, 72
16, 0, Control_c, 0, 10, 90
16, 0, Control_c, 0, 7, 91
16, 0, Control_c, 0, 121, 0
16, 0, Control_c, 0, 64, 0
16, 0, Control_c, 0, 91, 72
16, 0, Control_c, 0, 10, 90
16, 0, Control_c, 0, 7, 91
16, 0, Title_t, "Vibraphone"
16, 44224, Note_on_c, 0, 65, 56
16, 44224, Note_on_c, 0, 68, 56
16, 44224, Note_on_c, 0, 71, 56
16, 44224, Note_on_c, 0, 75, 56
16, 44352, Note_off_c, 0, 65, 0
16, 44352, Note_off_c, 0, 68, 0
16, 44352, Note_off_c, 0, 71, 0
16, 44352, Note_off_c, 0, 75, 0
16, 44352, Note_on_c, 0, 65, 60
16, 44352, Note_on_c, 0, 68, 60
16, 44352, Note_on_c, 0, 71, 60
16, 44352, Note_on_c, 0, 75, 60
16, 44480, Note_off_c, 0, 65, 0
16, 44480, Note_off_c, 0, 68, 0
16, 44480, Note_off_c, 0, 71, 0
16, 44480, Note_off_c, 0, 75, 0
16, 44480, Note_on_c, 0, 65, 59
16, 44480, Note_on_c, 0, 68, 59
16, 44480, Note_on_c, 0, 71, 59
16, 44480, Note_on_c, 0, 75, 59
16, 44608, Note_off_c, 0, 65, 0
16, 44608, Note_off_c, 0, 68, 0
16, 44608, Note_off_c, 0, 71, 0
16, 44608, Note_off_c, 0, 75, 0
16, 44608, Note_on_c, 0, 65, 57
16, 44608, Note_on_c, 0, 68, 57
16, 44608, Note_on_c, 0, 71, 57
16, 44608, Note_on_c, 0, 75, 57
16, 44736, Note_off_c, 0, 65, 0
16, 44736, Note_off_c, 0, 68, 0
16, 44736, Note_off_c, 0, 71, 0
16, 44736, Note_off_c, 0, 75, 0
16, 44736, Note_on_c, 0, 65, 65
16, 44736, Note_on_c, 0, 68, 65
16, 44736, Note_on_c, 0, 71, 65
16, 44736, Note_on_c, 0, 75, 65
16, 44864, Note_off_c, 0, 65, 0
16, 44864, Note_off_c, 0, 68, 0
16, 44864, Note_off_c, 0, 71, 0
16, 44864, Note_off_c, 0, 75, 0
16, 44864, Note_on_c, 0, 65, 64
16, 44864, Note_on_c, 0, 68, 64
16, 44864, Note_on_c, 0, 71, 64
16, 44864, Note_on_c, 0, 75, 64
16, 44992, Note_off_c, 0, 65, 0
16, 44992, Note_off_c, 0, 68, 0
16, 44992, Note_off_c, 0, 71, 0
16, 44992, Note_off_c, 0, 75, 0
16, 44992, Note_on_c, 0, 66, 60
16, 44992, Note_on_c, 0, 72, 60
16, 44992, Note_on_c, 0, 74, 60
16, 44992, Note_on_c, 0, 76, 60
16, 45120, Note_off_c, 0, 66, 0
16, 45120, Note_off_c, 0, 72, 0
16, 45120, Note_off_c, 0, 74, 0
16, 45120, Note_off_c, 0, 76, 0
16, 45120, Note_on_c, 0, 66, 62
16, 45120, Note_on_c, 0, 72, 62
16, 45120, Note_on_c, 0, 74, 62
16, 45120, Note_on_c, 0, 76, 62
16, 45248, Note_off_c, 0, 66, 0
16, 45248, Note_off_c, 0, 72, 0
16, 45248, Note_off_c, 0, 74, 0
16, 45248, Note_off_c, 0, 76, 0
16, 45248, Note_on_c, 0, 66, 62
16, 45248, Note_on_c, 0, 72, 62
16, 45248, Note_on_c, 0, 74, 62
16, 45248, Note_on_c, 0, 76, 62
16, 45376, Note_off_c, 0, 66, 0
16, 45376, Note_off_c, 0, 72, 0
16, 45376, Note_off_c, 0, 74, 0
16, 45376, Note_off_c, 0, 76, 0
16, 45376, Note_on_c, 0, 66, 66
16, 45376, Note_on_c, 0, 72, 66
16, 45376, Note_on_c, 0, 74, 66
16, 45376, Note_on_c, 0, 76, 66
16, 45504, Note_off_c, 0, 66, 0
16, 45504, Note_off_c, 0, 72, 0
16, 45504, Note_off_c, 0, 74, 0
16, 45504, Note_off_c, 0, 76, 0
16, 45504, Note_on_c, 0, 66, 59
16, 45504, Note_on_c, 0, 72, 59
16, 45504, Note_on_c, 0, 74, 59
16, 45504, Note_on_c, 0, 76, 59
16, 45632, Note_off_c, 0, 66, 0
16, 45632, Note_off_c, 0, 72, 0
16, 45632, Note_off_c, 0, 74, 0
16, 45632, Note_off_c, 0, 76, 0
16, 45632, Note_on_c, 0, 66, 61
16, 45632, Note_on_c, 0, 72, 61
16, 45632, Note_on_c, 0, 74, 61
16, 45632, Note_on_c, 0, 76, 61
16, 45760, Note_off_c, 0, 66, 0
16, 45760, Note_off_c, 0, 72, 0
16, 45760, Note_off_c, 0, 74, 0
16, 45760, Note_off_c, 0, 76, 0
16, 45760, Note_on_c, 0, 66, 62
16, 45760, Note_on_c, 0, 72, 62
16, 45760, Note_on_c, 0, 74, 62
16, 45760, Note_on_c, 0, 76, 62
16, 45888, Note_off_c, 0, 66, 0
16, 45888, Note_off_c, 0, 72, 0
16, 45888, Note_off_c, 0, 74, 0
16, 45888, Note_off_c, 0, 76, 0
16, 45888, Note_on_c, 0, 66, 65
16, 45888, Note_on_c, 0, 72, 65
16, 45888, Note_on_c, 0, 74, 65
16, 45888, Note_on_c, 0, 76, 65
16, 46016, Note_off_c, 0, 66, 0
16, 46016, Note_off_c, 0, 72, 0
16, 46016, Note_off_c, 0, 74, 0
16, 46016, Note_off_c, 0, 76, 0
16, 46016, Note_on_c, 0, 66, 64
16, 46016, Note_on_c, 0, 69, 64
16, 46016, Note_on_c, 0, 72, 64
16, 46016, Note_on_c, 0, 76, 64
16, 46144, Note_off_c, 0, 66, 0
16, 46144, Note_off_c, 0, 69, 0
16, 46144, Note_off_c, 0, 72, 0
16, 46144, Note_off_c, 0, 76, 0
16, 46144, Note_on_c, 0, 66, 61
16, 46144, Note_on_c, 0, 69, 61
16, 46144, Note_on_c, 0, 72, 61
16, 46144, Note_on_c, 0, 76, 61
16, 46272, Note_off_c, 0, 66, 0
16, 46272, Note_off_c, 0, 69, 0
16, 46272, Note_off_c, 0, 72, 0
16, 46272, Note_off_c, 0, 76, 0
16, 46272, Note_on_c, 0, 66, 62
16, 46272, Note_on_c, 0, 69, 62
16, 46272, Note_on_c, 0, 72, 62
16, 46272, Note_on_c, 0, 76, 62
16, 46400, Note_off_c, 0, 66, 0
16, 46400, Note_off_c, 0, 69, 0
16, 46400, Note_off_c, 0, 72, 0
16, 46400, Note_off_c, 0, 76, 0
16, 46400, Note_on_c, 0, 66, 61
16, 46400, Note_on_c, 0, 69, 61
16, 46400, Note_on_c, 0, 72, 61
16, 46400, Note_on_c, 0, 76, 61
16, 46528, Note_off_c, 0, 66, 0
16, 46528, Note_off_c, 0, 69, 0
16, 46528, Note_off_c, 0, 72, 0
16, 46528, Note_off_c, 0, 76, 0
16, 46528, Note_on_c, 0, 66, 60
16, 46528, Note_on_c, 0, 69, 60
16, 46528, Note_on_c, 0, 72, 60
16, 46528, Note_on_c, 0, 76, 60
16, 46656, Note_off_c, 0, 66, 0
16, 46656, Note_off_c, 0, 69, 0
16, 46656, Note_off_c, 0, 72, 0
16, 46656, Note_off_c, 0, 76, 0
16, 46656, Note_on_c, 0, 66, 58
16, 46656, Note_on_c, 0, 69, 58
16, 46656, Note_on_c, 0, 72, 58
16, 46656, Note_on_c, 0, 76, 58
16, 46784, Note_off_c, 0, 66, 0
16, 46784, Note_off_c, 0, 69, 0
16, 46784, Note_off_c, 0, 72, 0
16, 46784, Note_off_c, 0, 76, 0
16, 46784, Note_on_c, 0, 66, 63
16, 46784, Note_on_c, 0, 69, 63
16, 46784, Note_on_c, 0, 72, 63
16, 46784, Note_on_c, 0, 76, 63
16, 46912, Note_off_c, 0, 66, 0
16, 46912, Note_off_c, 0, 69, 0
16, 46912, Note_off_c, 0, 72, 0
16, 46912, Note_off_c, 0, 76, 0
16, 46912, Note_on_c, 0, 66, 59
16, 46912, Note_on_c, 0, 69, 59
16, 46912, Note_on_c, 0, 72, 59
16, 46912, Note_on_c, 0, 76, 59
16, 47040, Note_off_c, 0, 66, 0
16, 47040, Note_off_c, 0, 69, 0
16, 47040, Note_off_c, 0, 72, 0
16, 47040, Note_off_c, 0, 76, 0
16, 47040, Note_on_c, 0, 66, 63
16, 47040, Note_on_c, 0, 69, 63
16, 47040, Note_on_c, 0, 72, 63
16, 47040, Note_on_c, 0, 76, 63
16, 47168, Note_off_c, 0, 66, 0
16, 47168, Note_off_c, 0, 69, 0
16, 47168, Note_off_c, 0, 72, 0
16, 47168, Note_off_c, 0, 76, 0
16, 47168, Note_on_c, 0, 65, 61
16, 47168, Note_on_c, 0, 69, 61
16, 47168, Note_on_c, 0, 71, 61
16, 47168, Note_on_c, 0, 76, 61
16, 47296, Note_off_c, 0, 65, 0
16, 47296, Note_off_c, 0, 69, 0
16, 47296, Note_off_c, 0, 71, 0
16, 47296, Note_off_c, 0, 76, 0
16, 47296, Note_on_c, 0, 65, 60
16, 47296, Note_on_c, 0, 69, 60
16, 47296, Note_on_c, 0, 71, 60
16, 47296, Note_on_c, 0, 76, 60
16, 47424, Note_off_c, 0, 65, 0
16, 47424, Note_off_c, 0, 69, 0
16, 47424, Note_off_c, 0, 71, 0
16, 47424, Note_off_c, 0, 76, 0
16, 47424, Note_on_c, 0, 65, 63
16, 47424, Note_on_c, 0, 69, 63
16, 47424, Note_on_c, 0, 71, 63
16, 47424, Note_on_c, 0, 76, 63
16, 47552, Note_off_c, 0, 65, 0
16, 47552, Note_off_c, 0, 69, 0
16, 47552, Note_off_c, 0, 71, 0
16, 47552, Note_off_c, 0, 76, 0
16, 47552, Note_on_c, 0, 65, 62
16, 47552, Note_on_c, 0, 69, 62
16, 47552, Note_on_c, 0, 71, 62
16, 47552, Note_on_c, 0, 76, 62
16, 47680, Note_off_c, 0, 65, 0
16, 47680, Note_off_c, 0, 69, 0
16, 47680, Note_off_c, 0, 71, 0
16, 47680, Note_off_c, 0, 76, 0
16, 47680, Note_on_c, 0, 65, 60
16, 47680, Note_on_c, 0, 69, 60
16, 47680, Note_on_c, 0, 71, 60
16, 47680, Note_on_c, 0, 76, 60
16, 47808, Note_off_c, 0, 65, 0
16, 47808, Note_off_c, 0, 69, 0
16, 47808, Note_off_c, 0, 71, 0
16, 47808, Note_off_c, 0, 76, 0
16, 47808, Note_on_c, 0, 65, 63
16, 47808, Note_on_c, 0, 69, 63
16, 47808, Note_on_c, 0, 71, 63
16, 47808, Note_on_c, 0, 76, 63
16, 47936, Note_off_c, 0, 65, 0
16, 47936, Note_off_c, 0, 69, 0
16, 47936, Note_off_c, 0, 71, 0
16, 47936, Note_off_c, 0, 76, 0
16, 47936, Note_on_c, 0, 65, 57
16, 47936, Note_on_c, 0, 69, 57
16, 47936, Note_on_c, 0, 71, 57
16, 47936, Note_on_c, 0, 76, 57
16, 48064, Note_off_c, 0, 65, 0
16, 48064, Note_off_c, 0, 69, 0
16, 48064, Note_off_c, 0, 71, 0
16, 48064, Note_off_c, 0, 76, 0
16, 48064, Note_on_c, 0, 65, 63
16, 48064, Note_on_c, 0, 69, 63
16, 48064, Note_on_c, 0, 71, 63
16, 48064, Note_on_c, 0, 76, 63
16, 48192, Note_off_c, 0, 65, 0
16, 48192, Note_off_c, 0, 69, 0
16, 48192, Note_off_c, 0, 71, 0
16, 48192, Note_off_c, 0, 76, 0
16, 48192, Note_on_c, 0, 65, 59
16, 48192, Note_on_c, 0, 69, 59
16, 48192, Note_on_c, 0, 71, 59
16, 48192, Note_on_c, 0, 76, 59
16, 48320, Note_off_c, 0, 65, 0
16, 48320, Note_off_c, 0, 69, 0
16, 48320, Note_off_c, 0, 71, 0
16, 48320, Note_off_c, 0, 76, 0
16, 48320, Note_on_c, 0, 66, 62
16, 48320, Note_on_c, 0, 69, 62
16, 48320, Note_on_c, 0, 70, 62
16, 48320, Note_on_c, 0, 77, 62
16, 48448, Note_off_c, 0, 66, 0
16, 48448, Note_off_c, 0, 69, 0
16, 48448, Note_off_c, 0, 70, 0
16, 48448, Note_off_c, 0, 77, 0
16, 48448, Note_on_c, 0, 66, 59
16, 48448, Note_on_c, 0, 69, 59
16, 48448, Note_on_c, 0, 70, 59
16, 48448, Note_on_c, 0, 77, 59
16, 48576, Note_off_c, 0, 66, 0
16, 48576, Note_off_c, 0, 69, 0
16, 48576, Note_off_c, 0, 70, 0
16, 48576, Note_off_c, 0, 77, 0
16, 48576, Note_on_c, 0, 66, 61
16, 48576, Note_on_c, 0, 69, 61
16, 48576, Note_on_c, 0, 70, 61
16, 48576, Note_on_c, 0, 77, 61
16, 48704, Note_off_c, 0, 66, 0
16, 48704, Note_off_c, 0, 69, 0
16, 48704, Note_off_c, 0, 70, 0
16, 48704, Note_off_c, 0, 77, 0
16, 48704, Note_on_c, 0, 66, 61
16, 48704, Note_on_c, 0, 69, 61
16, 48704, Note_on_c, 0, 70, 61
16, 48704, Note_on_c, 0, 77, 61
16, 48832, Note_off_c, 0, 66, 0
16, 48832, Note_off_c, 0, 69, 0
16, 48832, Note_off_c, 0, 70, 0
16, 48832, Note_off_c, 0, 77, 0
16, 48832, Note_on_c, 0, 66, 64
16, 48832, Note_on_c, 0, 69, 64
16, 48832, Note_on_c, 0, 70, 64
16, 48832, Note_on_c, 0, 77, 64
16, 48960, Note_off_c, 0, 66, 0
16, 48960, Note_off_c, 0, 69, 0
16, 48960, Note_off_c, 0, 70, 0
16, 48960, Note_off_c, 0, 77, 0
16, 48960, Note_on_c, 0, 66, 60
16, 48960, Note_on_c, 0, 69, 60
16, 48960, Note_on_c, 0, 70, 60
16, 48960, Note_on_c, 0, 77, 60
16, 49088, Note_off_c, 0, 66, 0
16, 49088, Note_off_c, 0, 69, 0
16, 49088, Note_off_c, 0, 70, 0
16, 49088, Note_off_c, 0, 77, 0
16, 49088, Note_on_c, 0, 66, 68
16, 49088, Note_on_c, 0, 69, 68
16, 49088, Note_on_c, 0, 70, 68
16, 49088, Note_on_c, 0, 77, 68
16, 49216, Note_off_c, 0, 66, 0
16, 49216, Note_off_c, 0, 69, 0
16, 49216, Note_off_c, 0, 70, 0
16, 49216, Note_off_c, 0, 77, 0
16, 49216, Note_on_c, 0, 66, 60
16, 49216, Note_on_c, 0, 69, 60
16, 49216, Note_on_c, 0, 70, 60
16, 49216, Note_on_c, 0, 77, 60
16, 49344, Note_off_c, 0, 66, 0
16, 49344, Note_off_c, 0, 69, 0
16, 49344, Note_off_c, 0, 70, 0
16, 49344, Note_off_c, 0, 77, 0
16, 49344, Note_on_c, 0, 61, 65
16, 49344, Note_on_c, 0, 65, 65
16, 49344, Note_on_c, 0, 73, 65
16, 49344, Note_on_c, 0, 78, 65
16, 49472, Note_off_c, 0, 61, 0
16, 49472, Note_off_c, 0, 65, 0
16, 49472, Note_off_c, 0, 73, 0
16, 49472, Note_off_c, 0, 78, 0
16, 49472, Note_on_c, 0, 61, 60
16, 49472, Note_on_c, 0, 65, 60
16, 49472, Note_on_c, 0, 73, 60
16, 49472, Note_on_c, 0, 78, 60
16, 49600, Note_off_c, 0, 61, 0
16, 49600, Note_off_c, 0, 65, 0
16, 49600, Note_off_c, 0, 73, 0
16, 49600, Note_off_c, 0, 78, 0
16, 49600, Note_on_c, 0, 61, 59
16, 49600, Note_on_c, 0, 65, 59
16, 49600, Note_on_c, 0, 73, 59
16, 49600, Note_on_c, 0, 78, 59
16, 49728, Note_off_c, 0, 61, 0
16, 49728, Note_off_c, 0, 65, 0
16, 49728, Note_off_c, 0, 73, 0
16, 49728, Note_off_c, 0, 78, 0
16, 49728, Note_on_c, 0, 61, 59
16, 49728, Note_on_c, 0, 65, 59
16, 49728, Note_on_c, 0, 73, 59
16, 49728, Note_on_c, 0, 78, 59
16, 49856, Note_off_c, 0, 61, 0
16, 49856, Note_off_c, 0, 65, 0
16, 49856, Note_off_c, 0, 73, 0
16, 49856, Note_off_c, 0, 78, 0
16, 49856, Note_on_c, 0, 61, 61
16, 49856, Note_on_c, 0, 65, 61
16, 49856, Note_on_c, 0, 73, 61
16, 49856, Note_on_c, 0, 78, 61
16, 49984, Note_off_c, 0, 61, 0
16, 49984, Note_off_c, 0, 65, 0
16, 49984, Note_off_c, 0, 73, 0
16, 49984, Note_off_c, 0, 78, 0
16, 49984, Note_on_c, 0, 61, 63
16, 49984, Note_on_c, 0, 65, 63
16, 49984, Note_on_c, 0, 73, 63
16, 49984, Note_on_c, 0, 78, 63
16, 50112, Note_off_c, 0, 61, 0
16, 50112, Note_off_c, 0, 65, 0
16, 50112, Note_off_c, 0, 73, 0
16, 50112, Note_off_c, 0, 78, 0
16, 50112, Note_on_c, 0, 61, 59
16, 50112, Note_on_c, 0, 65, 59
16, 50112, Note_on_c, 0, 73, 59
16, 50112, Note_on_c, 0, 78, 59
16, 50240, Note_off_c, 0, 61, 0
16, 50240, Note_off_c, 0, 65, 0
16, 50240, Note_off_c, 0, 73, 0
16, 50240, Note_off_c, 0, 78, 0
16, 50240, Note_on_c, 0, 61, 60
16, 50240, Note_on_c, 0, 65, 60
16, 50240, Note_on_c, 0, 73, 60
16, 50240, Note_on_c, 0, 78, 60
16, 50368, Note_off_c, 0, 61, 0
16, 50368, Note_off_c, 0, 65, 0
16, 50368, Note_off_c, 0, 73, 0
16, 50368, Note_off_c, 0, 78, 0
16, 50368, Note_on_c, 0, 61, 59
16, 50368, Note_on_c, 0, 65, 59
16, 50368, Note_on_c, 0, 73, 59
16, 50368, Note_on_c, 0, 78, 59
16, 50496, Note_off_c, 0, 61, 0
16, 50496, Note_off_c, 0, 65, 0
16, 50496, Note_off_c, 0, 73, 0
16, 50496, Note_off_c, 0, 78, 0
16, 50496, Note_on_c, 0, 61, 66
16, 50496, Note_on_c, 0, 65, 66
16, 50496, Note_on_c, 0, 73, 66
16, 50496, Note_on_c, 0, 78, 66
16, 50624, Note_off_c, 0, 61, 0
16, 50624, Note_off_c, 0, 65, 0
16, 50624, Note_off_c, 0, 73, 0
16, 50624, Note_off_c, 0, 78, 0
16, 50624, Note_on_c, 0, 57, 61
16, 50624, Note_on_c, 0, 61, 61
16, 50624, Note_on_c, 0, 70, 61
16, 50624, Note_on_c, 0, 77, 61
16, 50752, Note_off_c, 0, 57, 0
16, 50752, Note_off_c, 0, 61, 0
16, 50752, Note_off_c, 0, 70, 0
16, 50752, Note_off_c, 0, 77, 0
16, 50752, Note_on_c, 0, 57, 66
16, 50752, Note_on_c, 0, 61, 66
16, 50752, Note_on_c, 0, 70, 66
16, 50752, Note_on_c, 0, 77, 66
16, 50880, Note_off_c, 0, 57, 0
16, 50880, Note_off_c, 0, 61, 0
16, 50880, Note_off_c, 0, 70, 0
16, 50880, Note_off_c, 0, 77, 0
16, 50880, Note_on_c, 0, 57, 59
16, 50880, Note_on_c, 0, 61, 59
16, 50880, Note_on_c, 0, 70, 59
16, 50880, Note_on_c, 0, 77, 59
16, 51008, Note_off_c, 0, 57, 0
16, 51008, Note_off_c, 0, 61, 0
16, 51008, Note_off_c, 0, 70, 0
16, 51008, Note_off_c, 0, 77, 0
16, 51008, Note_on_c, 0, 57, 65
16, 51008, Note_on_c, 0, 61, 65
16, 51008, Note_on_c, 0, 70, 65
16, 51008, Note_on_c, 0, 77, 65
16, 51136, Note_off_c, 0, 57, 0
16, 51136, Note_off_c, 0, 61, 0
16, 51136, Note_off_c, 0, 70, 0
16, 51136, Note_off_c, 0, 77, 0
16, 51136, Note_on_c, 0, 57, 62
16, 51136, Note_on_c, 0, 61, 62
16, 51136, Note_on_c, 0, 70, 62
16, 51136, Note_on_c, 0, 77, 62
16, 51264, Note_off_c, 0, 57, 0
16, 51264, Note_off_c, 0, 61, 0
16, 51264, Note_off_c, 0, 70, 0
16, 51264, Note_off_c, 0, 77, 0
16, 51264, Note_on_c, 0, 57, 62
16, 51264, Note_on_c, 0, 61, 62
16, 51264, Note_on_c, 0, 70, 62
16, 51264, Note_on_c, 0, 77, 62
16, 51392, Note_off_c, 0, 57, 0
16, 51392, Note_off_c, 0, 61, 0
16, 51392, Note_off_c, 0, 70, 0
16, 51392, Note_off_c, 0, 77, 0
16, 51392, Note_on_c, 0, 57, 66
16, 51392, Note_on_c, 0, 61, 66
16, 51392, Note_on_c, 0, 70, 66
16, 51392, Note_on_c, 0, 77, 66
16, 51520, Note_off_c, 0, 57, 0
16, 51520, Note_off_c, 0, 61, 0
16, 51520, Note_off_c, 0, 70, 0
16, 51520, Note_off_c, 0, 77, 0
16, 51520, Note_on_c, 0, 57, 62
16, 51520, Note_on_c, 0, 61, 62
16, 51520, Note_on_c, 0, 70, 62
16, 51520, Note_on_c, 0, 77, 62
16, 51648, Note_off_c, 0, 57, 0
16, 51648, Note_off_c, 0, 61, 0
16, 51648, Note_off_c, 0, 70, 0
16, 51648, Note_off_c, 0, 77, 0
16, 51648, Note_on_c, 0, 57, 62
16, 51648, Note_on_c, 0, 61, 62
16, 51648, Note_on_c, 0, 70, 62
16, 51648, Note_on_c, 0, 77, 62
16, 51776, Note_off_c, 0, 57, 0
16, 51776, Note_off_c, 0, 61, 0
16, 51776, Note_off_c, 0, 70, 0
16, 51776, Note_off_c, 0, 77, 0
16, 51776, Note_on_c, 0, 57, 60
16, 51776, Note_on_c, 0, 61, 60
16, 51776, Note_on_c, 0, 70, 60
16, 51776, Note_on_c, 0, 77, 60
16, 51904, Note_off_c, 0, 57, 0
16, 51904, Note_off_c, 0, 61, 0
16, 51904, Note_off_c, 0, 70, 0
16, 51904, Note_off_c, 0, 77, 0
16, 51904, Note_on_c, 0, 58, 52
16, 51904, Note_on_c, 0, 66, 52
16, 51904, Note_on_c, 0, 69, 52
16, 51904, Note_on_c, 0, 73, 52
16, 52032, Note_off_c, 0, 58, 0
16, 52032, Note_off_c, 0, 66, 0
16, 52032, Note_off_c, 0, 69, 0
16, 52032, Note_off_c, 0, 73, 0
16, 52032, Note_on_c, 0, 58, 59
16, 52032, Note_on_c, 0, 66, 59
16, 52032, Note_on_c, 0, 69, 59
16, 52032, Note_on_c, 0, 73, 59
16, 52160, Note_off_c, 0, 58, 0
16, 52160, Note_off_c, 0, 66, 0
16, 52160, Note_off_c, 0, 69, 0
16, 52160, Note_off_c, 0, 73, 0
16, 52160, Note_on_c, 0, 58, 60
16, 52160, Note_on_c, 0, 66, 60
16, 52160, Note_on_c, 0, 69, 60
16, 52160, Note_on_c, 0, 73, 60
16, 52288, Note_off_c, 0, 58, 0
16, 52288, Note_off_c, 0, 66, 0
16, 52288, Note_off_c, 0, 69, 0
16, 52288, Note_off_c, 0, 73, 0
16, 52288, Note_on_c, 0, 58, 61
16, 52288, Note_on_c, 0, 66, 61
16, 52288, Note_on_c, 0, 69, 61
16, 52288, Note_on_c, 0, 73, 61
16, 52416, Note_off_c, 0, 58, 0
16, 52416, Note_off_c, 0, 66, 0
16, 52416, Note_off_c, 0, 69, 0
16, 52416, Note_off_c, 0, 73, 0
16, 52416, Note_on_c, 0, 58, 60
16, 52416, Note_on_c, 0, 66, 60
16, 52416, Note_on_c, 0, 69, 60
16, 52416, Note_on_c, 0, 73, 60
16, 52544, Note_off_c, 0, 58, 0
16, 52544, Note_off_c, 0, 66, 0
16, 52544, Note_off_c, 0, 69, 0
16, 52544, Note_off_c, 0, 73, 0
16, 52544, Note_on_c, 0, 58, 62
16, 52544, Note_on_c, 0, 66, 62
16, 52544, Note_on_c, 0, 69, 62
16, 52544, Note_on_c, 0, 73, 62
16, 52672, Note_off_c, 0, 58, 0
16, 52672, Note_off_c, 0, 66, 0
16, 52672, Note_off_c, 0, 69, 0
16, 52672, Note_off_c, 0, 73, 0
16, 52672, Note_on_c, 0, 58, 58
16, 52672, Note_on_c, 0, 66, 58
16, 52672, Note_on_c, 0, 69, 58
16, 52672, Note_on_c, 0, 73, 58
16, 52800, Note_off_c, 0, 58, 0
16, 52800, Note_off_c, 0, 66, 0
16, 52800, Note_off_c, 0, 69, 0
16, 52800, Note_off_c, 0, 73, 0
16, 52800, Note_on_c, 0, 58, 63
16, 52800, Note_on_c, 0, 66, 63
16, 52800, Note_on_c, 0, 69, 63
16, 52800, Note_on_c, 0, 73, 63
16, 52928, Note_off_c, 0, 58, 0
16, 52928, Note_off_c, 0, 66, 0
16, 52928, Note_off_c, 0, 69, 0
16, 52928, Note_off_c, 0, 73, 0
16, 52928, Note_on_c, 0, 55, 57
16, 52928, Note_on_c, 0, 62, 57
16, 52928, Note_on_c, 0, 66, 57
16, 52928, Note_on_c, 0, 69, 57
16, 53056, Note_off_c, 0, 55, 0
16, 53056, Note_off_c, 0, 62, 0
16, 53056, Note_off_c, 0, 66, 0
16, 53056, Note_off_c, 0, 69, 0
16, 53056, Note_on_c, 0, 55, 61
16, 53056, Note_on_c, 0, 62, 61
16, 53056, Note_on_c, 0, 66, 61
16, 53056, Note_on_c, 0, 69, 61
16, 53184, Note_off_c, 0, 55, 0
16, 53184, Note_off_c, 0, 62, 0
16, 53184, Note_off_c, 0, 66, 0
16, 53184, Note_off_c, 0, 69, 0
16, 53184, Note_on_c, 0, 55, 63
16, 53184, Note_on_c, 0, 62, 63
16, 53184, Note_on_c, 0, 66, 63
16, 53184, Note_on_c, 0, 69, 63
16, 53312, Note_off_c, 0, 55, 0
16, 53312, Note_off_c, 0, 62, 0
16, 53312, Note_off_c, 0, 66, 0
16, 53312, Note_off_c, 0, 69, 0
16, 53312, Note_on_c, 0, 55, 63
16, 53312, Note_on_c, 0, 62, 63
16, 53312, Note_on_c, 0, 66, 63
16, 53312, Note_on_c, 0, 69, 63
16, 53440, Note_off_c, 0, 55, 0
16, 53440, Note_off_c, 0, 62, 0
16, 53440, Note_off_c, 0, 66, 0
16, 53440, Note_off_c, 0, 69, 0
16, 53440, Note_on_c, 0, 55, 60
16, 53440, Note_on_c, 0, 62, 60
16, 53440, Note_on_c, 0, 66, 60
16, 53440, Note_on_c, 0, 69, 60
16, 53568, Note_off_c, 0, 55, 0
16, 53568, Note_off_c, 0, 62, 0
16, 53568, Note_off_c, 0, 66, 0
16, 53568, Note_off_c, 0, 69, 0
16, 53568, Note_on_c, 0, 55, 61
16, 53568, Note_on_c, 0, 62, 61
16, 53568, Note_on_c, 0, 66, 61
16, 53568, Note_on_c, 0, 69, 61
16, 53696, Note_off_c, 0, 55, 0
16, 53696, Note_off_c, 0, 62, 0
16, 53696, Note_off_c, 0, 66, 0
16, 53696, Note_off_c, 0, 69, 0
16, 53696, Note_on_c, 0, 55, 62
16, 53696, Note_on_c, 0, 62, 62
16, 53696, Note_on_c, 0, 66, 62
16, 53696, Note_on_c, 0, 69, 62
16, 53824, Note_off_c, 0, 55, 0
16, 53824, Note_off_c, 0, 62, 0
16, 53824, Note_off_c, 0, 66, 0
16, 53824, Note_off_c, 0, 69, 0
16, 53824, Note_on_c, 0, 55, 57
16, 53824, Note_on_c, 0, 62, 57
16, 53824, Note_on_c, 0, 66, 57
16, 53824, Note_on_c, 0, 69, 57
16, 53952, Note_off_c, 0, 55, 0
16, 53952, Note_off_c, 0, 62, 0
16, 53952, Note_off_c, 0, 66, 0
16, 53952, Note_off_c, 0, 69, 0
16, 53952, Note_on_c, 0, 55, 63
16, 53952, Note_on_c, 0, 62, 63
16, 53952, Note_on_c, 0, 66, 63
16, 53952, Note_on_c, 0, 69, 63
16, 54080, Note_off_c, 0, 55, 0
16, 54080, Note_off_c, 0, 62, 0
16, 54080, Note_off_c, 0, 66, 0
16, 54080, Note_off_c, 0, 69, 0
16, 54080, Note_on_c, 0, 58, 67
16, 54080, Note_on_c, 0, 62, 67
16, 54080, Note_on_c, 0, 66, 67
16, 54080, Note_on_c, 0, 69, 67
16, 54144, Note_on_c, 0, 52, 66
16, 54208, Note_off_c, 0, 58, 0
16, 54208, Note_off_c, 0, 62, 0
16, 54208, Note_off_c, 0, 66, 0
16, 54208, Note_off_c, 0, 69, 0
16, 54208, Note_on_c, 0, 58, 61
16, 54208, Note_on_c, 0, 62, 61
16, 54208, Note_on_c, 0, 66, 61
16, 54208, Note_on_c, 0, 69, 61
16, 54336, Note_off_c, 0, 58, 0
16, 54336, Note_off_c, 0, 62, 0
16, 54336, Note_off_c, 0, 66, 0
16, 54336, Note_off_c, 0, 69, 0
16, 54336, Note_off_c, 0, 52, 0
16, 54336, Note_on_c, 0, 58, 57
16, 54336, Note_on_c, 0, 62, 57
16, 54336, Note_on_c, 0, 66, 57
16, 54336, Note_on_c, 0, 69, 57
16, 54336, Note_on_c, 0, 52, 76
16, 54464, Note_off_c, 0, 58, 0
16, 54464, Note_off_c, 0, 62, 0
16, 54464, Note_off_c, 0, 66, 0
16, 54464, Note_off_c, 0, 69, 0
16, 54464, Note_on_c, 0, 58, 57
16, 54464, Note_on_c, 0, 62, 57
16, 54464, Note_on_c, 0, 66, 57
16, 54464, Note_on_c, 0, 69, 57
16, 54528, Note_off_c, 0, 52, 0
16, 54528, Note_on_c, 0, 52, 71
16, 54592, Note_off_c, 0, 58, 0
16, 54592, Note_off_c, 0, 62, 0
16, 54592, Note_off_c, 0, 66, 0
16, 54592, Note_off_c, 0, 69, 0
16, 54592, Note_on_c, 0, 58, 53
16, 54592, Note_on_c, 0, 62, 53
16, 54592, Note_on_c, 0, 66, 53
16, 54592, Note_on_c, 0, 69, 53
16, 54720, Note_off_c, 0, 58, 0
16, 54720, Note_off_c, 0, 62, 0
16, 54720, Note_off_c, 0, 66, 0
16, 54720, Note_off_c, 0, 69, 0
16, 54720, Note_off_c, 0, 52, 0
16, 54720, Note_on_c, 0, 58, 45
16, 54720, Note_on_c, 0, 62, 45
16, 54720, Note_on_c, 0, 66, 45
16, 54720, Note_on_c, 0, 52, 71
16, 54848, Note_off_c, 0, 58, 0
16, 54848, Note_off_c, 0, 62, 0
16, 54848, Note_off_c, 0, 66, 0
16, 54848, Note_on_c, 0, 58, 48
16, 54848, Note_on_c, 0, 62, 48
16, 54848, Note_on_c, 0, 66, 48
16, 54912, Note_off_c, 0, 52, 0
16, 54912, Note_on_c, 0, 52, 70
16, 54976, Note_off_c, 0, 58, 0
16, 54976, Note_off_c, 0, 62, 0
16, 54976, Note_off_c, 0, 66, 0
16, 54976, Note_on_c, 0, 58, 45
16, 54976, Note_on_c, 0, 62, 45
16, 54976, Note_on_c, 0, 66, 45
16, 55104, Note_off_c, 0, 58, 0
16, 55104, Note_off_c, 0, 62, 0
16, 55104, Note_off_c, 0, 66, 0
16, 55104, Note_off_c, 0, 52, 0
16, 55104, Note_on_c, 0, 58, 46
16, 55104, Note_on_c, 0, 62, 46
16, 55104, Note_on_c, 0, 66, 46
16, 55104, Note_on_c, 0, 52, 72
16, 55232, Note_off_c, 0, 58, 0
16, 55232, Note_off_c, 0, 62, 0
16, 55232, Note_off_c, 0, 66, 0
16, 55232, Note_on_c, 0, 58, 45
16, 55232, Note_on_c, 0, 62, 45
16, 55232, Note_on_c, 0, 66, 45
16, 55296, Note_off_c, 0, 52, 0
16, 55296, Note_on_c, 0, 52, 73
16, 55360, Note_off_c, 0, 58, 0
16, 55360, Note_off_c, 0, 62, 0
16, 55360, Note_off_c, 0, 66, 0
16, 55360, Note_on_c, 0, 58, 39
16, 55360, Note_on_c, 0, 62, 39
16, 55360, Note_on_c, 0, 66, 39
16, 55488, Note_off_c, 0, 58, 0
16, 55488, Note_off_c, 0, 62, 0
16, 55488, Note_off_c, 0, 66, 0
16, 55488, Note_off_c, 0, 52, 0
16, 55488, Note_on_c, 0, 58, 44
16, 55488, Note_on_c, 0, 62, 44
16, 55488, Note_on_c, 0, 66, 44
16, 55488, Note_on_c, 0, 52, 73
16, 55552, Note_off_c, 0, 58, 0
16, 55552, Note_off_c, 0, 62, 0
16, 55552, Note_off_c, 0, 66, 0
16, 55552, Note_off_c, 0, 52, 0
16, 55552, Note_on_c, 0, 53, 76
16, 55680, Note_on_c, 0, 65, 54
16, 55680, Note_on_c, 0, 72, 54
16, 55744, Note_off_c, 0, 53, 0
16, 55744, Note_off_c, 0, 65, 0
16, 55744, Note_off_c, 0, 72, 0
16, 55744, Note_on_c, 0, 53, 71
16, 55872, Note_on_c, 0, 65, 53
16, 55872, Note_on_c, 0, 72, 53
16, 55936, Note_off_c, 0, 53, 0
16, 55936, Note_off_c, 0, 65, 0
16, 55936, Note_off_c, 0, 72, 0
16, 55936, Note_on_c, 0, 53, 71
16, 56064, Note_on_c, 0, 65, 54
16, 56064, Note_on_c, 0, 72, 54
16, 56128, Note_off_c, 0, 53, 0
16, 56128, Note_off_c, 0, 65, 0
16, 56128, Note_off_c, 0, 72, 0
16, 56128, Note_on_c, 0, 53, 74
16, 56256, Note_on_c, 0, 65, 63
16, 56256, Note_on_c, 0, 72, 63
16, 56320, Note_off_c, 0, 53, 0
16, 56320, Note_off_c, 0, 65, 0
16, 56320, Note_off_c, 0, 72, 0
16, 56320, Note_on_c, 0, 53, 78
16, 56448, Note_on_c, 0, 65, 57
16, 56448, Note_on_c, 0, 72, 57
16, 56512, Note_off_c, 0, 53, 0
16, 56512, Note_off_c, 0, 65, 0
16, 56512, Note_off_c, 0, 72, 0
16, 56512, Note_on_c, 0, 53, 71
16, 56640, Note_on_c, 0, 65, 53
16, 56640, Note_on_c, 0, 72, 53
16, 56704, Note_off_c, 0, 53, 0
16, 56704, Note_off_c, 0, 65, 0
16, 56704, Note_off_c, 0, 72, 0
16, 56704, Note_on_c, 0, 53, 67
16, 56832, Note_on_c, 0, 65, 55
16, 56832, Note_on_c, 0, 72, 55
16, 56896, Note_off_c, 0, 53, 0
16, 56896, Note_off_c, 0, 65, 0
16, 56896, Note_off_c, 0, 72, 0
16, 56896, Note_on_c, 0, 53, 71
16, 57024, Note_on_c, 0, 65, 54
16, 57024, Note_on_c, 0, 72, 54
16, 57088, Note_off_c, 0, 53, 0
16, 57088, Note_off_c, 0, 65, 0
16, 57088, Note_off_c, 0, 72, 0
16, 57088, Note_on_c, 0, 53, 73
16, 57216, Note_on_c, 0, 65, 59
16, 57216, Note_on_c, 0, 72, 59
16, 57280, Note_off_c, 0, 53, 0
16, 57280, Note_off_c, 0, 65, 0
16, 57280, Note_off_c, 0, 72, 0
16, 57280, Note_on_c, 0, 53, 69
16, 57408, Note_on_c, 0, 65, 53
16, 57408, Note_on_c, 0, 72, 53
16, 57472, Note_off_c, 0, 53, 0
16, 57472, Note_off_c, 0, 65, 0
16, 57472, Note_off_c, 0, 72, 0
16, 57472, Note_on_c, 0, 53, 75
16, 57600, Note_on_c, 0, 65, 57
16, 57600, Note_on_c, 0, 72, 57
16, 57664, Note_off_c, 0, 53, 0
16, 57664, Note_off_c, 0, 65, 0
16, 57664, Note_off_c, 0, 72, 0
16, 57664, Note_on_c, 0, 53, 70
16, 57792, Note_on_c, 0, 65, 55
16, 57792, Note_on_c, 0, 72, 55
16, 57856, Note_off_c, 0, 53, 0
16, 57856, Note_off_c, 0, 65, 0
16, 57856, Note_off_c, 0, 72, 0
16, 57856, Note_on_c, 0, 53, 71
16, 57984, Note_on_c, 0, 65, 52
16, 57984, Note_on_c, 0, 72, 52
16, 58048, Note_off_c, 0, 53, 0
16, 58048, Note_off_c, 0, 65, 0
16, 58048, Note_off_c, 0, 72, 0
16, 58048, Note_on_c, 0, 53, 72
16, 58176, Note_on_c, 0, 65, 52
16, 58176, Note_on_c, 0, 72, 52
16, 58240, Note_off_c, 0, 53, 0
16, 58240, Note_off_c, 0, 65, 0
16, 58240, Note_off_c, 0, 72, 0
16, 58240, Note_on_c, 0, 53, 74
16, 58432, Note_off_c, 0, 53, 0
16, 58432, Note_on_c, 0, 53, 79
16, 58432, Note_on_c, 0, 65, 57
16, 58432, Note_on_c, 0, 72, 57
16, 58496, Note_off_c, 0, 65, 0
16, 58496, Note_off_c, 0, 72, 0
16, 58624, Note_off_c, 0, 53, 0
16, 58624, Note_on_c, 0, 53, 72
16, 58624, Note_on_c, 0, 65, 56
16, 58624, Note_on_c, 0, 72, 56
16, 58688, Note_off_c, 0, 65, 0
16, 58688, Note_off_c, 0, 72, 0
16, 58816, Note_off_c, 0, 53, 0
16, 58816, Note_on_c, 0, 53, 71
16, 58816, Note_on_c, 0, 65, 51
16, 58816, Note_on_c, 0, 72, 51
16, 58880, Note_off_c, 0, 65, 0
16, 58880, Note_off_c, 0, 72, 0
16, 59008, Note_off_c, 0, 53, 0
16, 59008, Note_on_c, 0, 53, 72
16, 59008, Note_on_c, 0, 65, 53
16, 59008, Note_on_c, 0, 72, 53
16, 59072, Note_off_c, 0, 65, 0
16, 59072, Note_off_c, 0, 72, 0
16, 59200, Note_off_c, 0, 53, 0
16, 59200, Note_on_c, 0, 53, 75
16, 59200, Note_on_c, 0, 65, 56
16, 59200, Note_on_c, 0, 72, 56
16, 59264, Note_off_c, 0, 65, 0
16, 59264, Note_off_c, 0, 72, 0
16, 59392, Note_off_c, 0, 53, 0
16, 59392, Note_on_c, 0, 53, 78
16, 59392, Note_on_c, 0, 65, 56
16, 59392, Note_on_c, 0, 72, 56
16, 59456, Note_off_c, 0, 65, 0
16, 59456, Note_off_c, 0, 72, 0
16, 59584, Note_off_c, 0, 53, 0
16, 59584, Note_on_c, 0, 53, 71
16, 59584, Note_on_c, 0, 65, 56
16, 59584, Note_on_c, 0, 72, 56
16, 59648, Note_off_c, 0, 65, 0
16, 59648, Note_off_c, 0, 72, 0
16, 59776, Note_off_c, 0, 53, 0
16, 59776, Note_on_c, 0, 53, 69
16, 59776, Note_on_c, 0, 65, 56
16, 59776, Note_on_c, 0, 72, 56
16, 59840, Note_off_c, 0, 65, 0
16, 59840, Note_off_c, 0, 72, 0
16, 59968, Note_off_c, 0, 53, 0
16, 59968, Note_on_c, 0, 57, 78
16, 59968, Note_on_c, 0, 65, 52
16, 59968, Note_on_c, 0, 72, 52
16, 60032, Note_off_c, 0, 65, 0
16, 60032, Note_off_c, 0, 72, 0
16, 60160, Note_off_c, 0, 57, 0
16, 60160, Note_on_c, 0, 57, 74
16, 60160, Note_on_c, 0, 65, 51
16, 60160, Note_on_c, 0, 72, 51
16, 60224, Note_off_c, 0, 65, 0
16, 60224, Note_off_c, 0, 72, 0
16, 60352, Note_off_c, 0, 57, 0
16, 60352, Note_on_c, 0, 57, 73
16, 60352, Note_on_c, 0, 65, 61
16, 60352, Note_on_c, 0, 72, 61
16, 60416, Note_off_c, 0, 65, 0
16, 60416, Note_off_c, 0, 72, 0
16, 60544, Note_off_c, 0, 57, 0
16, 60544, Note_on_c, 0, 57, 77
16, 60544, Note_on_c, 0, 65, 57
16, 60544, Note_on_c, 0, 72, 57
16, 60608, Note_off_c, 0, 65, 0
16, 60608, Note_off_c, 0, 72, 0
16, 60736, Note_off_c, 0, 57, 0
16, 60736, Note_on_c, 0, 57, 75
16, 60736, Note_on_c, 0, 65, 55
16, 60736, Note_on_c, 0, 72, 55
16, 60800, Note_off_c, 0, 65, 0
16, 60800, Note_off_c, 0, 72, 0
16, 60928, Note_off_c, 0, 57, 0
16, 60928, Note_on_c, 0, 57, 76
16, 60928, Note_on_c, 0, 65, 58
16, 60928, Note_on_c, 0, 72, 58
16, 60992, Note_off_c, 0, 65, 0
16, 60992, Note_off_c, 0, 72, 0
16, 61120, Note_off_c, 0, 57, 0
16, 61120, Note_on_c, 0, 58, 78
16, 61184, Note_on_c, 0, 72, 56
16, 61248, Note_off_c, 0, 72, 0
16, 61312, Note_off_c, 0, 58, 0
16, 61312, Note_on_c, 0, 58, 72
16, 61440, Note_on_c, 0, 72, 53
16, 61440, Note_on_c, 0, 77, 53
16, 61504, Note_off_c, 0, 58, 0
16, 61504, Note_off_c, 0, 72, 0
16, 61504, Note_off_c, 0, 77, 0
16, 61504, Note_on_c, 0, 58, 68
16, 61632, Note_on_c, 0, 72, 54
16, 61632, Note_on_c, 0, 77, 54
16, 61696, Note_off_c, 0, 58, 0
16, 61696, Note_off_c, 0, 72, 0
16, 61696, Note_off_c, 0, 77, 0
16, 61696, Note_on_c, 0, 58, 74
16, 61888, Note_off_c, 0, 58, 0
16, 61888, Note_on_c, 0, 58, 71
16, 61952, Note_on_c, 0, 65, 56
16, 61952, Note_on_c, 0, 73, 56
16, 62016, Note_off_c, 0, 65, 0
16, 62016, Note_off_c, 0, 73, 0
16, 62080, Note_off_c, 0, 58, 0
16, 62080, Note_on_c, 0, 58, 77
16, 62144, Note_on_c, 0, 65, 56
16, 62144, Note_on_c, 0, 73, 56
16, 62208, Note_off_c, 0, 65, 0
16, 62208, Note_off_c, 0, 73, 0
16, 62272, Note_off_c, 0, 58, 0
16, 62272, Note_on_c, 0, 58, 74
16, 62336, Note_on_c, 0, 65, 57
16, 62336, Note_on_c, 0, 73, 57
16, 62400, Note_off_c, 0, 65, 0
16, 62400, Note_off_c, 0, 73, 0
16, 62464, Note_off_c, 0, 58, 0
16, 62464, Note_on_c, 0, 57, 72
16, 62528, Note_on_c, 0, 66, 58
16, 62528, Note_on_c, 0, 73, 58
16, 62592, Note_off_c, 0, 66, 0
16, 62592, Note_off_c, 0, 73, 0
16, 62656, Note_off_c, 0, 57, 0
16, 62656, Note_on_c, 0, 57, 70
16, 62720, Note_on_c, 0, 66, 56
16, 62720, Note_on_c, 0, 73, 56
16, 62784, Note_off_c, 0, 66, 0
16, 62784, Note_off_c, 0, 73, 0
16, 62848, Note_off_c, 0, 57, 0
16, 62848, Note_on_c, 0, 57, 71
16, 62912, Note_on_c, 0, 66, 56
16, 62912, Note_on_c, 0, 73, 56
16, 62976, Note_off_c, 0, 66, 0
16, 62976, Note_off_c, 0, 73, 0
16, 63040, Note_off_c, 0, 57, 0
16, 63040, Note_on_c, 0, 57, 70
16, 63104, Note_on_c, 0, 66, 56
16, 63104, Note_on_c, 0, 73, 56
16, 63168, Note_off_c, 0, 66, 0
16, 63168, Note_off_c, 0, 73, 0
16, 63232, Note_off_c, 0, 57, 0
16, 63232, Note_on_c, 0, 57, 73
16, 63296, Note_on_c, 0, 66, 49
16, 63296, Note_on_c, 0, 73, 49
16, 63360, Note_off_c, 0, 66, 0
16, 63360, Note_off_c, 0, 73, 0
16, 63424, Note_off_c, 0, 57, 0
16, 63424, Note_on_c, 0, 57, 74
16, 63488, Note_on_c, 0, 66, 50
16, 63488, Note_on_c, 0, 73, 50
16, 63552, Note_off_c, 0, 66, 0
16, 63552, Note_off_c, 0, 73, 0
16, 63616, Note_off_c, 0, 57, 0
16, 63616, Note_on_c, 0, 57, 70
16, 63680, Note_on_c, 0, 67, 54
16, 63680, Note_on_c, 0, 75, 54
16, 63744, Note_off_c, 0, 67, 0
16, 63744, Note_off_c, 0, 75, 0
16, 63808, Note_off_c, 0, 57, 0
16, 63808, Note_on_c, 0, 57, 73
16, 63872, Note_on_c, 0, 67, 54
16, 63872, Note_on_c, 0, 75, 54
16, 63936, Note_off_c, 0, 67, 0
16, 63936, Note_off_c, 0, 75, 0
16, 64000, Note_off_c, 0, 57, 0
16, 64000, Note_on_c, 0, 57, 71
16, 64064, Note_on_c, 0, 67, 54
16, 64064, Note_on_c, 0, 75, 54
16, 64128, Note_off_c, 0, 67, 0
16, 64128, Note_off_c, 0, 75, 0
16, 64192, Note_off_c, 0, 57, 0
16, 64192, Note_on_c, 0, 57, 72
16, 64256, Note_on_c, 0, 67, 54
16, 64256, Note_on_c, 0, 75, 54
16, 64320, Note_off_c, 0, 67, 0
16, 64320, Note_off_c, 0, 75, 0
16, 64384, Note_off_c, 0, 57, 0
16, 64384, Note_on_c, 0, 57, 75
16, 64448, Note_on_c, 0, 67, 59
16, 64448, Note_on_c, 0, 75, 59
16, 64512, Note_off_c, 0, 67, 0
16, 64512, Note_off_c, 0, 75, 0
16, 64576, Note_off_c, 0, 57, 0
16, 64576, Note_on_c, 0, 57, 74
16, 64640, Note_on_c, 0, 67, 53
16, 64640, Note_on_c, 0, 75, 53
16, 64704, Note_off_c, 0, 67, 0
16, 64704, Note_off_c, 0, 75, 0
16, 64768, Note_off_c, 0, 57, 0
16, 64768, Note_on_c, 0, 56, 73
16, 64896, Note_off_c, 0, 56, 0
16, 64896, Note_on_c, 0, 56, 72
16, 64896, Note_on_c, 0, 68, 55
16, 64896, Note_on_c, 0, 76, 55
16, 64960, Note_off_c, 0, 68, 0
16, 64960, Note_off_c, 0, 76, 0
16, 65024, Note_off_c, 0, 56, 0
16, 65024, Note_on_c, 0, 56, 76
16, 65088, Note_on_c, 0, 68, 58
16, 65088, Note_on_c, 0, 76, 58
16, 65152, Note_off_c, 0, 56, 0
16, 65152, Note_off_c, 0, 68, 0
16, 65152, Note_off_c, 0, 76, 0
16, 65152, Note_on_c, 0, 56, 73
16, 65280, Note_off_c, 0, 56, 0
16, 65280, Note_on_c, 0, 56, 69
16, 65280, Note_on_c, 0, 68, 57
16, 65280, Note_on_c, 0, 76, 57
16, 65344, Note_off_c, 0, 68, 0
16, 65344, Note_off_c, 0, 76, 0
16, 65408, Note_off_c, 0, 56, 0
16, 65408, Note_on_c, 0, 56, 73
16, 65472, Note_on_c, 0, 68, 56
16, 65472, Note_on_c, 0, 76, 56
16, 65536, Note_off_c, 0, 56, 0
16, 65536, Note_off_c, 0, 68, 0
16, 65536, Note_off_c, 0, 76, 0
16, 65536, Note_on_c, 0, 56, 76
16, 65664, Note_off_c, 0, 56, 0
16, 65664, Note_on_c, 0, 56, 71
16, 65664, Note_on_c, 0, 68, 51
16, 65664, Note_on_c, 0, 76, 51
16, 65728, Note_off_c, 0, 68, 0
16, 65728, Note_off_c, 0, 76, 0
16, 65792, Note_off_c, 0, 56, 0
16, 65792, Note_on_c, 0, 56, 71
16, 65856, Note_on_c, 0, 68, 54
16, 65856, Note_on_c, 0, 76, 54
16, 65920, Note_off_c, 0, 56, 0
16, 65920, Note_off_c, 0, 68, 0
16, 65920, Note_off_c, 0, 76, 0
16, 65920, Note_on_c, 0, 56, 73
16, 66048, Note_off_c, 0, 56, 0
16, 66048, Note_on_c, 0, 56, 74
16, 66048, Note_on_c, 0, 68, 59
16, 66048, Note_on_c, 0, 76, 59
16, 66112, Note_off_c, 0, 68, 0
16, 66112, Note_off_c, 0, 76, 0
16, 66176, Note_off_c, 0, 56, 0
16, 66176, Note_on_c, 0, 56, 75
16, 66240, Note_on_c, 0, 68, 57
16, 66240, Note_on_c, 0, 76, 57
16, 66304, Note_off_c, 0, 56, 0
16, 66304, Note_off_c, 0, 68, 0
16, 66304, Note_off_c, 0, 76, 0
16, 66304, Note_on_c, 0, 56, 75
16, 66432, Note_off_c, 0, 56, 0
16, 66432, Note_on_c, 0, 56, 76
16, 66432, Note_on_c, 0, 68, 56
16, 66432, Note_on_c, 0, 76, 56
16, 66496, Note_off_c, 0, 68, 0
16, 66496, Note_off_c, 0, 76, 0
16, 66560, Note_off_c, 0, 56, 0
16, 66560, Note_on_c, 0, 56, 73
16, 66688, Note_off_c, 0, 56, 0
16, 66688, Note_on_c, 0, 56, 73
16, 66688, Note_on_c, 0, 68, 56
16, 66688, Note_on_c, 0, 76, 56
16, 66752, Note_off_c, 0, 68, 0
16, 66752, Note_off_c, 0, 76, 0
16, 66816, Note_off_c, 0, 56, 0
16, 66816, Note_on_c, 0, 56, 71
16, 66880, Note_on_c, 0, 68, 55
16, 66880, Note_on_c, 0, 76, 55
16, 66944, Note_off_c, 0, 56, 0
16, 66944, Note_off_c, 0, 68, 0
16, 66944, Note_off_c, 0, 76, 0
16, 66944, Note_on_c, 0, 56, 76
16, 67072, Note_off_c, 0, 56, 0
16, 67072, Note_on_c, 0, 56, 86
16, 67200, Note_off_c, 0, 56, 0
16, 67328, Note_on_c, 0, 60, 78
16, 67456, Note_off_c, 0, 60, 0
16, 67712, Note_on_c, 0, 60, 74
16, 67840, Note_off_c, 0, 60, 0
16, 68096, Note_on_c, 0, 60, 59
16, 68224, Note_off_c, 0, 60, 0
16, 68480, Note_on_c, 0, 60, 42
16, 68608, Note_off_c, 0, 60, 0
16, 68864, Note_on_c, 0, 60, 19
16, 68992, Note_off_c, 0, 60, 0
16, 74368, Note_on_c, 0, 70, 127
16, 74368, Note_on_c, 0, 82, 127
16, 74496, Note_off_c, 0, 70, 0
16, 74496, Note_off_c, 0, 82, 0
16, 74560, Note_on_c, 0, 70, 127
16, 74560, Note_on_c, 0, 82, 127
16, 74624, Note_off_c, 0, 70, 0
16, 74624, Note_off_c, 0, 82, 0
16, 74752, Note_on_c, 0, 70, 127
16, 74752, Note_on_c, 0, 82, 127
16, 74816, Note_off_c, 0, 70, 0
16, 74816, Note_off_c, 0, 82, 0
16, 74944, Note_on_c, 0, 70, 127
16, 74944, Note_on_c, 0, 82, 127
16, 75008, Note_off_c, 0, 70, 0
16, 75008, Note_off_c, 0, 82, 0
16, 75136, Note_on_c, 0, 70, 127
16, 75136, Note_on_c, 0, 82, 127
16, 75200, Note_off_c, 0, 70, 0
16, 75200, Note_off_c, 0, 82, 0
16, 75328, Note_on_c, 0, 70, 127
16, 75328, Note_on_c, 0, 82, 127
16, 75392, Note_off_c, 0, 70, 0
16, 75392, Note_off_c, 0, 82, 0
16, 75520, Note_on_c, 0, 70, 127
16, 75520, Note_on_c, 0, 82, 127
16, 75584, Note_off_c, 0, 70, 0
16, 75584, Note_off_c, 0, 82, 0
16, 75712, Note_on_c, 0, 70, 127
16, 75712, Note_on_c, 0, 82, 127
16, 75776, Note_off_c, 0, 70, 0
16, 75776, Note_off_c, 0, 82, 0
16, 75840, Note_on_c, 0, 70, 127
16, 75840, Note_on_c, 0, 82, 127
16, 75904, Note_off_c, 0, 70, 0
16, 75904, Note_off_c, 0, 82, 0
16, 75904, Note_on_c, 0, 70, 127
16, 75904, Note_on_c, 0, 82, 127
16, 75968, Note_off_c, 0, 70, 0
16, 75968, Note_off_c, 0, 82, 0
16, 76032, Note_on_c, 0, 70, 127
16, 76032, Note_on_c, 0, 82, 127
16, 76096, Note_off_c, 0, 70, 0
16, 76096, Note_off_c, 0, 82, 0
16, 76992, Control_c, 0, 64, 127
16, 76992, Note_on_c, 0, 65, 65
16, 77056, Note_on_c, 0, 68, 68
16, 77057, Note_off_c, 0, 65, 0
16, 77248, Note_on_c, 0, 70, 79
16, 77251, Note_off_c, 0, 68, 0
16, 77312, Note_on_c, 0, 80, 98
16, 77313, Note_off_c, 0, 70, 0
16, 77504, Note_on_c, 0, 72, 60
16, 77507, Note_off_c, 0, 80, 0
16, 77760, Note_on_c, 0, 73, 67
16, 77765, Note_off_c, 0, 72, 0
16, 78064, Note_off_c, 0, 73, 0
16, 78080, Control_c, 0, 64, 0
16, 78272, Control_c, 0, 64, 127
16, 78272, Note_on_c, 0, 65, 63
16, 78336, Note_on_c, 0, 68, 66
16, 78337, Note_off_c, 0, 65, 0
16, 78528, Note_on_c, 0, 70, 76
16, 78531, Note_off_c, 0, 68, 0
16, 78592, Note_on_c, 0, 82, 101
16, 78593, Note_off_c, 0, 70, 0
16, 78784, Note_on_c, 0, 73, 59
16, 78787, Note_off_c, 0, 82, 0
16, 78912, Note_on_c, 0, 75, 66
16, 78914, Note_off_c, 0, 73, 0
16, 79216, Note_off_c, 0, 75, 0
16, 79232, Control_c, 0, 64, 0
16, 79296, Control_c, 0, 64, 127
16, 79296, Note_on_c, 0, 68, 64
16, 79360, Note_on_c, 0, 72, 73
16, 79361, Note_off_c, 0, 68, 0
16, 79552, Note_on_c, 0, 73, 78
16, 79555, Note_off_c, 0, 72, 0
16, 79616, Note_on_c, 0, 87, 101
16, 79617, Note_off_c, 0, 73, 0
16, 79808, Note_on_c, 0, 83, 61
16, 79811, Note_off_c, 0, 87, 0
16, 79872, Control_c, 0, 64, 0
16, 80051, Note_off_c, 0, 83, 0
16, 84544, Note_on_c, 0, 48, 127
16, 84608, Note_off_c, 0, 48, 0
16, 84800, Note_on_c, 0, 48, 127
16, 84864, Note_off_c, 0, 48, 0
16, 85184, Note_on_c, 0, 48, 127
16, 85248, Note_off_c, 0, 48, 0
16, 85440, Note_on_c, 0, 48, 127
16, 85504, Note_off_c, 0, 48, 0
16, 85824, Note_on_c, 0, 48, 127
16, 85888, Note_off_c, 0, 48, 0
16, 86080, Note_on_c, 0, 48, 127
16, 86208, Note_off_c, 0, 48, 0
16, 86208, Note_on_c, 0, 48, 127
16, 86272, Note_off_c, 0, 48, 0
16, 86592, Note_on_c, 0, 48, 127
16, 86656, Note_off_c, 0, 48, 0
16, 87104, Note_on_c, 0, 48, 127
16, 87168, Note_off_c, 0, 48, 0
16, 87360, Note_on_c, 0, 48, 127
16, 87424, Note_off_c, 0, 48, 0
16, 87680, Note_on_c, 0, 48, 127
16, 87744, Note_off_c, 0, 48, 0
16, 88000, Note_on_c, 0, 48, 127
16, 88064, Note_off_c, 0, 48, 0
16, 88768, Note_on_c, 0, 48, 127
16, 88832, Note_off_c, 0, 48, 0
16, 89280, Note_on_c, 0, 48, 127
16, 89344, Note_off_c, 0, 48, 0
16, 90688, Note_on_c, 0, 48, 127
16, 90752, Note_off_c, 0, 48, 0
16, 90944, Note_on_c, 0, 48, 127
16, 91008, Note_off_c, 0, 48, 0
16, 91200, Note_on_c, 0, 48, 127
16, 91264, Note_off_c, 0, 48, 0
16, 91456, Note_on_c, 0, 48, 127
16, 91520, Note_off_c, 0, 48, 0
16, 91712, Note_on_c, 0, 48, 127
16, 91776, Note_off_c, 0, 48, 0
16, 91968, Note_on_c, 0, 48, 127
16, 92032, Note_off_c, 0, 48, 0
16, 92224, Note_on_c, 0, 48, 127
16, 92288, Note_off_c, 0, 48, 0
16, 92480, Note_on_c, 0, 48, 127
16, 92544, Note_off_c, 0, 48, 0
16, 92736, Note_on_c, 0, 48, 127
16, 92800, Note_off_c, 0, 48, 0
16, 92992, Note_on_c, 0, 48, 127
16, 93056, Note_off_c, 0, 48, 0
16, 93248, Note_on_c, 0, 48, 127
16, 93312, Note_off_c, 0, 48, 0
16, 93504, Note_on_c, 0, 48, 127
16, 93568, Note_off_c, 0, 48, 0
16, 93760, Note_on_c, 0, 48, 127
16, 93824, Note_off_c, 0, 48, 0
16, 94016, Note_on_c, 0, 48, 127
16, 94080, Note_off_c, 0, 48, 0
16, 94208, Note_on_c, 0, 48, 127
16, 94272, Note_off_c, 0, 48, 0
16, 95360, Control_c, 0, 64, 127
16, 95360, Note_on_c, 0, 77, 88
16, 95402, Note_off_c, 0, 77, 0
16, 95402, Note_on_c, 0, 83, 117
16, 95488, Note_off_c, 0, 83, 0
16, 95488, Note_on_c, 0, 73, 79
16, 95590, Note_off_c, 0, 73, 0
16, 95590, Note_on_c, 0, 84, 120
16, 95641, Note_off_c, 0, 84, 0
16, 95641, Note_on_c, 0, 71, 73
16, 95744, Note_off_c, 0, 71, 0
16, 95744, Note_on_c, 0, 79, 115
16, 95914, Note_off_c, 0, 79, 0
16, 95914, Note_on_c, 0, 80, 109
16, 96000, Note_off_c, 0, 80, 0
16, 96000, Note_on_c, 0, 80, 97
16, 96064, Control_c, 0, 64, 0
16, 96128, Note_off_c, 0, 80, 0
16, 96128, Control_c, 0, 64, 127
16, 96128, Note_on_c, 0, 79, 92
16, 96170, Note_off_c, 0, 79, 0
16, 96170, Note_on_c, 0, 83, 110
16, 96256, Note_off_c, 0, 83, 0
16, 96384, Note_on_c, 0, 77, 101
16, 96426, Note_off_c, 0, 77, 0
16, 96426, Note_on_c, 0, 83, 127
16, 96512, Note_off_c, 0, 83, 0
16, 96512, Note_on_c, 0, 80, 103
16, 96640, Note_off_c, 0, 80, 0
16, 96640, Note_on_c, 0, 77, 102
16, 96682, Note_off_c, 0, 77, 0
16, 96682, Note_on_c, 0, 86, 127
16, 96768, Note_off_c, 0, 86, 0
16, 96896, Note_on_c, 0, 79, 103
16, 97024, Note_off_c, 0, 79, 0
16, 97024, Note_on_c, 0, 73, 94
16, 97152, Note_off_c, 0, 73, 0
16, 97152, Note_on_c, 0, 83, 127
16, 97194, Note_off_c, 0, 83, 0
16, 97194, Note_on_c, 0, 72, 89
16, 97280, Note_off_c, 0, 72, 0
16, 97280, Note_on_c, 0, 88, 127
16, 97450, Note_off_c, 0, 88, 0
16, 97450, Note_on_c, 0, 88, 115
16, 97536, Note_off_c, 0, 88, 0
16, 97600, Control_c, 0, 64, 0
16, 97664, Control_c, 0, 64, 127
16, 97664, Note_on_c, 0, 80, 95
16, 97706, Note_off_c, 0, 80, 0
16, 97706, Note_on_c, 0, 88, 127
16, 97792, Note_off_c, 0, 88, 0
16, 97792, Note_on_c, 0, 72, 82
16, 97920, Note_off_c, 0, 72, 0
16, 97920, Note_on_c, 0, 79, 127
16, 97962, Note_off_c, 0, 79, 0
16, 97962, Note_on_c, 0, 68, 83
16, 98048, Note_off_c, 0, 68, 0
16, 98112, Control_c, 0, 64, 0
16, 98176, Control_c, 0, 64, 127
16, 98176, Note_on_c, 0, 70, 101
16, 98218, Note_off_c, 0, 70, 0
16, 98218, Note_on_c, 0, 76, 127
16, 98304, Note_off_c, 0, 76, 0
16, 98304, Note_on_c, 0, 83, 127
16, 98474, Note_off_c, 0, 83, 0
16, 98474, Note_on_c, 0, 76, 96
16, 98602, Note_off_c, 0, 76, 0
16, 98602, Note_on_c, 0, 73, 102
16, 98730, Note_off_c, 0, 73, 0
16, 98730, Note_on_c, 0, 77, 126
16, 98816, Note_off_c, 0, 77, 0
16, 98816, Note_on_c, 0, 76, 106
16, 98944, Note_off_c, 0, 76, 0
16, 98944, Note_on_c, 0, 83, 127
16, 98986, Note_off_c, 0, 83, 0
16, 98986, Note_on_c, 0, 77, 99
16, 99200, Note_off_c, 0, 77, 0
16, 99200, Note_on_c, 0, 80, 120
16, 99328, Note_off_c, 0, 80, 0
16, 99328, Note_on_c, 0, 73, 96
16, 99456, Note_off_c, 0, 73, 0
16, 99456, Note_on_c, 0, 73, 113
16, 99498, Note_off_c, 0, 73, 0
16, 99498, Note_on_c, 0, 71, 103
16, 99584, Note_off_c, 0, 71, 0
16, 99584, Note_on_c, 0, 80, 127
16, 99712, Note_off_c, 0, 80, 0
16, 99712, Note_on_c, 0, 73, 98
16, 99754, Note_off_c, 0, 73, 0
16, 99754, Note_on_c, 0, 80, 127
16, 99840, Note_off_c, 0, 80, 0
16, 99904, Control_c, 0, 64, 0
16, 99968, Control_c, 0, 64, 127
16, 99968, Note_on_c, 0, 75, 100
16, 100010, Note_off_c, 0, 75, 0
16, 100010, Note_on_c, 0, 73, 105
16, 100096, Note_off_c, 0, 73, 0
16, 100096, Note_on_c, 0, 77, 127
16, 100224, Note_off_c, 0, 77, 0
16, 100224, Note_on_c, 0, 83, 127
16, 100352, Note_off_c, 0, 83, 0
16, 100352, Note_on_c, 0, 76, 103
16, 100498, Note_off_c, 0, 76, 0
16, 100498, Note_on_c, 0, 76, 110
16, 100644, Note_off_c, 0, 76, 0
16, 100644, Note_on_c, 0, 78, 119
16, 100790, Note_off_c, 0, 78, 0
16, 100790, Note_on_c, 0, 74, 102
16, 100937, Note_off_c, 0, 74, 0
16, 100937, Note_on_c, 0, 76, 118
16, 101083, Note_off_c, 0, 76, 0
16, 101083, Note_on_c, 0, 83, 127
16, 101229, Note_off_c, 0, 83, 0
16, 101229, Note_on_c, 0, 81, 109
16, 101376, Note_off_c, 0, 81, 0
16, 101376, Note_on_c, 0, 70, 84
16, 101632, Note_off_c, 0, 70, 0
16, 101632, Note_on_c, 0, 72, 111
16, 101696, Note_on_c, 0, 68, 105
16, 101717, Note_off_c, 0, 72, 0
16, 101717, Note_on_c, 0, 82, 127
16, 101888, Note_off_c, 0, 82, 0
16, 101888, Note_off_c, 0, 68, 0
16, 101888, Note_on_c, 0, 66, 90
16, 101888, Note_on_c, 0, 70, 119
16, 101973, Note_off_c, 0, 66, 0
16, 101973, Note_on_c, 0, 80, 127
16, 102058, Note_off_c, 0, 80, 0
16, 102058, Note_on_c, 0, 78, 113
16, 102080, Note_off_c, 0, 70, 0
16, 102080, Note_on_c, 0, 70, 111
16, 102144, Note_off_c, 0, 78, 0
16, 102144, Control_c, 0, 64, 0
16, 102144, Note_on_c, 0, 81, 119
16, 102229, Note_off_c, 0, 81, 0
16, 102272, Note_off_c, 0, 70, 0
16, 102272, Note_on_c, 0, 73, 100
16, 102272, Note_on_c, 0, 70, 115
16, 102314, Note_off_c, 0, 73, 0
16, 102314, Note_on_c, 0, 87, 127
16, 102400, Note_off_c, 0, 87, 0
16, 102400, Note_on_c, 0, 76, 90
16, 102464, Note_off_c, 0, 70, 0
16, 102464, Note_on_c, 0, 68, 106
16, 102528, Note_off_c, 0, 76, 0
16, 102656, Note_off_c, 0, 68, 0
16, 102656, Note_on_c, 0, 64, 76
16, 102656, Note_on_c, 0, 70, 115
16, 102784, Note_off_c, 0, 64, 0
16, 102912, Note_off_c, 0, 70, 0
16, 102912, Note_on_c, 0, 70, 112
16, 103104, Note_off_c, 0, 70, 0
16, 103104, Note_on_c, 0, 70, 114
16, 103296, Note_off_c, 0, 70, 0
16, 103296, Note_on_c, 0, 70, 111
16, 103424, Note_on_c, 0, 63, 70
16, 103424, Note_on_c, 0, 67, 70
16, 103424, Note_on_c, 0, 69, 70
16, 103424, Note_on_c, 0, 73, 70
16, 103424, Note_on_c, 0, 51, 113
16, 103488, Note_off_c, 0, 70, 0
16, 103488, Note_on_c, 0, 68, 98
16, 103552, Note_off_c, 0, 63, 0
16, 103552, Note_off_c, 0, 67, 0
16, 103552, Note_off_c, 0, 69, 0
16, 103552, Note_off_c, 0, 73, 0
16, 103552, Note_off_c, 0, 51, 0
16, 103552, Note_on_c, 0, 63, 81
16, 103552, Note_on_c, 0, 67, 81
16, 103552, Note_on_c, 0, 69, 81
16, 103552, Note_on_c, 0, 73, 81
16, 103552, Note_on_c, 0, 51, 124
16, 103680, Note_off_c, 0, 63, 0
16, 103680, Note_off_c, 0, 67, 0
16, 103680, Note_off_c, 0, 69, 0
16, 103680, Note_off_c, 0, 73, 0
16, 103680, Note_off_c, 0, 51, 0
16, 103680, Note_off_c, 0, 68, 0
16, 103680, Note_on_c, 0, 63, 82
16, 103680, Note_on_c, 0, 67, 82
16, 103680, Note_on_c, 0, 69, 82
16, 103680, Note_on_c, 0, 73, 82
16, 103680, Note_on_c, 0, 51, 127
16, 103680, Note_on_c, 0, 70, 103
16, 103808, Note_off_c, 0, 63, 0
16, 103808, Note_off_c, 0, 67, 0
16, 103808, Note_off_c, 0, 69, 0
16, 103808, Note_off_c, 0, 73, 0
16, 103808, Note_off_c, 0, 51, 0
16, 103808, Note_on_c, 0, 64, 84
16, 103808, Note_on_c, 0, 68, 84
16, 103808, Note_on_c, 0, 70, 84
16, 103808, Note_on_c, 0, 73, 84
16, 103808, Note_on_c, 0, 52, 127
16, 103936, Note_off_c, 0, 64, 0
16, 103936, Note_off_c, 0, 68, 0
16, 103936, Note_off_c, 0, 70, 0
16, 103936, Note_off_c, 0, 73, 0
16, 103936, Note_off_c, 0, 52, 0
16, 103936, Note_off_c, 0, 70, 0
16, 103936, Note_on_c, 0, 63, 88
16, 103936, Note_on_c, 0, 67, 88
16, 103936, Note_on_c, 0, 69, 88
16, 103936, Note_on_c, 0, 73, 88
16, 103936, Note_on_c, 0, 51, 123
16, 103936, Note_on_c, 0, 70, 94
16, 104064, Note_off_c, 0, 63, 0
16, 104064, Note_off_c, 0, 67, 0
16, 104064, Note_off_c, 0, 69, 0
16, 104064, Note_off_c, 0, 73, 0
16, 104064, Note_off_c, 0, 51, 0
16, 104064, Note_on_c, 0, 63, 79
16, 104064, Note_on_c, 0, 67, 79
16, 104064, Note_on_c, 0, 69, 79
16, 104064, Note_on_c, 0, 73, 79
16, 104064, Note_on_c, 0, 51, 124
16, 104192, Note_off_c, 0, 63, 0
16, 104192, Note_off_c, 0, 67, 0
16, 104192, Note_off_c, 0, 69, 0
16, 104192, Note_off_c, 0, 73, 0
16, 104192, Note_off_c, 0, 51, 0
16, 104192, Note_on_c, 0, 64, 82
16, 104192, Note_on_c, 0, 68, 82
16, 104192, Note_on_c, 0, 70, 82
16, 104192, Note_on_c, 0, 73, 82
16, 104192, Note_on_c, 0, 52, 127
16, 104320, Note_off_c, 0, 64, 0
16, 104320, Note_off_c, 0, 68, 0
16, 104320, Note_off_c, 0, 70, 0
16, 104320, Note_off_c, 0, 73, 0
16, 104320, Note_off_c, 0, 52, 0
16, 104320, Note_on_c, 0, 63, 85
16, 104320, Note_on_c, 0, 67, 85
16, 104320, Note_on_c, 0, 69, 85
16, 104320, Note_on_c, 0, 73, 85
16, 104320, Note_on_c, 0, 51, 125
16, 104384, Note_off_c, 0, 70, 0
16, 104384, Note_on_c, 0, 70, 93
16, 104448, Note_off_c, 0, 63, 0
16, 104448, Note_off_c, 0, 67, 0
16, 104448, Note_off_c, 0, 69, 0
16, 104448, Note_off_c, 0, 73, 0
16, 104448, Note_off_c, 0, 51, 0
16, 104448, Note_on_c, 0, 63, 79
16, 104448, Note_on_c, 0, 67, 79
16, 104448, Note_on_c, 0, 69, 79
16, 104448, Note_on_c, 0, 73, 79
16, 104448, Note_on_c, 0, 51, 127
16, 104576, Note_off_c, 0, 63, 0
16, 104576, Note_off_c, 0, 67, 0
16, 104576, Note_off_c, 0, 69, 0
16, 104576, Note_off_c, 0, 73, 0
16, 104576, Note_off_c, 0, 51, 0
16, 104576, Note_on_c, 0, 64, 83
16, 104576, Note_on_c, 0, 66, 83
16, 104576, Note_on_c, 0, 68, 83
16, 104576, Note_on_c, 0, 73, 83
16, 104618, Note_off_c, 0, 70, 0
16, 104618, Note_on_c, 0, 70, 83
16, 104704, Note_off_c, 0, 64, 0
16, 104704, Note_off_c, 0, 66, 0
16, 104704, Note_off_c, 0, 68, 0
16, 104704, Note_off_c, 0, 73, 0
16, 104704, Note_on_c, 0, 64, 82
16, 104704, Note_on_c, 0, 66, 82
16, 104704, Note_on_c, 0, 68, 82
16, 104704, Note_on_c, 0, 73, 82
16, 104832, Note_off_c, 0, 64, 0
16, 104832, Note_off_c, 0, 66, 0
16, 104832, Note_off_c, 0, 68, 0
16, 104832, Note_off_c, 0, 73, 0
16, 104832, Note_on_c, 0, 64, 85
16, 104832, Note_on_c, 0, 66, 85
16, 104832, Note_on_c, 0, 68, 85
16, 104832, Note_on_c, 0, 73, 85
16, 104960, Note_off_c, 0, 64, 0
16, 104960, Note_off_c, 0, 66, 0
16, 104960, Note_off_c, 0, 68, 0
16, 104960, Note_off_c, 0, 73, 0
16, 104960, Note_on_c, 0, 64, 86
16, 104960, Note_on_c, 0, 66, 86
16, 104960, Note_on_c, 0, 68, 86
16, 104960, Note_on_c, 0, 73, 86
16, 105024, Note_off_c, 0, 70, 0
16, 105024, Note_on_c, 0, 70, 81
16, 105088, Note_off_c, 0, 64, 0
16, 105088, Note_off_c, 0, 66, 0
16, 105088, Note_off_c, 0, 68, 0
16, 105088, Note_off_c, 0, 73, 0
16, 105088, Note_on_c, 0, 64, 87
16, 105088, Note_on_c, 0, 66, 87
16, 105088, Note_on_c, 0, 68, 87
16, 105088, Note_on_c, 0, 73, 87
16, 105216, Note_off_c, 0, 64, 0
16, 105216, Note_off_c, 0, 66, 0
16, 105216, Note_off_c, 0, 68, 0
16, 105216, Note_off_c, 0, 73, 0
16, 105216, Note_on_c, 0, 64, 82
16, 105216, Note_on_c, 0, 66, 82
16, 105216, Note_on_c, 0, 68, 82
16, 105216, Note_on_c, 0, 73, 82
16, 105280, Note_off_c, 0, 70, 0
16, 105280, Note_on_c, 0, 70, 68
16, 105344, Note_off_c, 0, 64, 0
16, 105344, Note_off_c, 0, 66, 0
16, 105344, Note_off_c, 0, 68, 0
16, 105344, Note_off_c, 0, 73, 0
16, 105344, Note_on_c, 0, 64, 86
16, 105344, Note_on_c, 0, 66, 86
16, 105344, Note_on_c, 0, 68, 86
16, 105344, Note_on_c, 0, 73, 86
16, 105472, Note_off_c, 0, 64, 0
16, 105472, Note_off_c, 0, 66, 0
16, 105472, Note_off_c, 0, 68, 0
16, 105472, Note_off_c, 0, 73, 0
16, 105472, Note_off_c, 0, 70, 0
16, 105472, Note_on_c, 0, 64, 82
16, 105472, Note_on_c, 0, 66, 82
16, 105472, Note_on_c, 0, 68, 82
16, 105472, Note_on_c, 0, 73, 82
16, 105472, Note_on_c, 0, 70, 72
16, 105600, Note_off_c, 0, 64, 0
16, 105600, Note_off_c, 0, 66, 0
16, 105600, Note_off_c, 0, 68, 0
16, 105600, Note_off_c, 0, 73, 0
16, 105600, Note_on_c, 0, 64, 79
16, 105600, Note_on_c, 0, 66, 79
16, 105600, Note_on_c, 0, 68, 79
16, 105600, Note_on_c, 0, 73, 79
16, 105642, Note_off_c, 0, 70, 0
16, 105642, Note_on_c, 0, 70, 60
16, 105728, Note_off_c, 0, 64, 0
16, 105728, Note_off_c, 0, 66, 0
16, 105728, Note_off_c, 0, 68, 0
16, 105728, Note_off_c, 0, 73, 0
16, 105728, Note_on_c, 0, 64, 79
16, 105728, Note_on_c, 0, 66, 79
16, 105728, Note_on_c, 0, 68, 79
16, 105728, Note_on_c, 0, 73, 79
16, 105856, Note_off_c, 0, 64, 0
16, 105856, Note_off_c, 0, 66, 0
16, 105856, Note_off_c, 0, 68, 0
16, 105856, Note_off_c, 0, 73, 0
16, 105856, Note_on_c, 0, 64, 76
16, 105856, Note_on_c, 0, 66, 76
16, 105856, Note_on_c, 0, 68, 76
16, 105856, Note_on_c, 0, 73, 76
16, 105984, Note_off_c, 0, 64, 0
16, 105984, Note_off_c, 0, 66, 0
16, 105984, Note_off_c, 0, 68, 0
16, 105984, Note_off_c, 0, 73, 0
16, 105984, Note_on_c, 0, 64, 75
16, 105984, Note_on_c, 0, 66, 75
16, 105984, Note_on_c, 0, 68, 75
16, 105984, Note_on_c, 0, 73, 75
16, 106112, Note_off_c, 0, 64, 0
16, 106112, Note_off_c, 0, 66, 0
16, 106112, Note_off_c, 0, 68, 0
16, 106112, Note_off_c, 0, 73, 0
16, 106112, Note_on_c, 0, 64, 73
16, 106112, Note_on_c, 0, 66, 73
16, 106112, Note_on_c, 0, 68, 73
16, 106112, Note_on_c, 0, 73, 73
16, 106240, Note_off_c, 0, 64, 0
16, 106240, Note_off_c, 0, 66, 0
16, 106240, Note_off_c, 0, 68, 0
16, 106240, Note_off_c, 0, 73, 0
16, 106240, Note_on_c, 0, 64, 68
16, 106240, Note_on_c, 0, 66, 68
16, 106240, Note_on_c, 0, 68, 68
16, 106240, Note_on_c, 0, 73, 68
16, 106368, Note_off_c, 0, 64, 0
16, 106368, Note_off_c, 0, 66, 0
16, 106368, Note_off_c, 0, 68, 0
16, 106368, Note_off_c, 0, 73, 0
16, 106368, Note_on_c, 0, 64, 61
16, 106368, Note_on_c, 0, 66, 61
16, 106368, Note_on_c, 0, 68, 61
16, 106368, Note_on_c, 0, 73, 61
16, 106496, Note_off_c, 0, 64, 0
16, 106496, Note_off_c, 0, 66, 0
16, 106496, Note_off_c, 0, 68, 0
16, 106496, Note_off_c, 0, 73, 0
16, 106496, Note_off_c, 0, 70, 0
16, 106496, Note_on_c, 0, 64, 60
16, 106496, Note_on_c, 0, 66, 60
16, 106496, Note_on_c, 0, 68, 60
16, 106496, Note_on_c, 0, 73, 60
16, 106624, Note_off_c, 0, 64, 0
16, 106624, Note_off_c, 0, 66, 0
16, 106624, Note_off_c, 0, 68, 0
16, 106624, Note_off_c, 0, 73, 0
16, 106624, Note_on_c, 0, 64, 61
16, 106624, Note_on_c, 0, 66, 61
16, 106624, Note_on_c, 0, 68, 61
16, 106624, Note_on_c, 0, 73, 61
16, 106752, Note_off_c, 0, 64, 0
16, 106752, Note_off_c, 0, 66, 0
16, 106752, Note_off_c, 0, 68, 0
16, 106752, Note_off_c, 0, 73, 0
16, 106752, Note_on_c, 0, 64, 59
16, 106752, Note_on_c, 0, 66, 59
16, 106752, Note_on_c, 0, 68, 59
16, 106752, Note_on_c, 0, 73, 59
16, 106880, Note_off_c, 0, 64, 0
16, 106880, Note_off_c, 0, 66, 0
16, 106880, Note_off_c, 0, 68, 0
16, 106880, Note_off_c, 0, 73, 0
16, 106880, Note_on_c, 0, 64, 54
16, 106880, Note_on_c, 0, 66, 54
16, 106880, Note_on_c, 0, 68, 54
16, 106880, Note_on_c, 0, 73, 54
16, 107008, Note_off_c, 0, 64, 0
16, 107008, Note_off_c, 0, 66, 0
16, 107008, Note_off_c, 0, 68, 0
16, 107008, Note_off_c, 0, 73, 0
16, 107008, Note_on_c, 0, 64, 48
16, 107008, Note_on_c, 0, 66, 48
16, 107008, Note_on_c, 0, 68, 48
16, 107008, Note_on_c, 0, 73, 48
16, 107136, Note_off_c, 0, 64, 0
16, 107136, Note_off_c, 0, 66, 0
16, 107136, Note_off_c, 0, 68, 0
16, 107136, Note_off_c, 0, 73, 0
16, 107136, Note_on_c, 0, 64, 46
16, 107136, Note_on_c, 0, 66, 46
16, 107136, Note_on_c, 0, 68, 46
16, 107136, Note_on_c, 0, 73, 46
16, 107264, Note_off_c, 0, 64, 0
16, 107264, Note_off_c, 0, 66, 0
16, 107264, Note_off_c, 0, 68, 0
16, 107264, Note_off_c, 0, 73, 0
16, 107264, Note_on_c, 0, 64, 49
16, 107264, Note_on_c, 0, 66, 49
16, 107264, Note_on_c, 0, 68, 49
16, 107264, Note_on_c, 0, 73, 49
16, 107392, Note_off_c, 0, 64, 0
16, 107392, Note_off_c, 0, 66, 0
16, 107392, Note_off_c, 0, 68, 0
16, 107392, Note_off_c, 0, 73, 0
16, 107392, Note_on_c, 0, 64, 45
16, 107392, Note_on_c, 0, 66, 45
16, 107392, Note_on_c, 0, 68, 45
16, 107392, Note_on_c, 0, 73, 45
16, 107520, Note_off_c, 0, 64, 0
16, 107520, Note_off_c, 0, 66, 0
16, 107520, Note_off_c, 0, 68, 0
16, 107520, Note_off_c, 0, 73, 0
16, 107520, Note_on_c, 0, 64, 41
16, 107520, Note_on_c, 0, 66, 41
16, 107520, Note_on_c, 0, 68, 41
16, 107520, Note_on_c, 0, 73, 41
16, 107648, Note_off_c, 0, 64, 0
16, 107648, Note_off_c, 0, 66, 0
16, 107648, Note_off_c, 0, 68, 0
16, 107648, Note_off_c, 0, 73, 0
16, 118016, Note_on_c, 0, 58, 52
16, 118016, Note_on_c, 0, 61, 52
16, 118016, Note_on_c, 0, 65, 52
16, 118272, Note_off_c, 0, 58, 0
16, 118272, Note_off_c, 0, 61, 0
16, 118272, Note_off_c, 0, 65, 0
16, 118272, Note_on_c, 0, 58, 64
16, 118272, Note_on_c, 0, 61, 64
16, 118272, Note_on_c, 0, 65, 64
16, 118336, Note_off_c, 0, 58, 0
16, 118336, Note_off_c, 0, 61, 0
16, 118336, Note_off_c, 0, 65, 0
16, 118336, Note_on_c, 0, 58, 58
16, 118336, Note_on_c, 0, 61, 58
16, 118336, Note_on_c, 0, 65, 58
16, 118592, Note_off_c, 0, 58, 0
16, 118592, Note_off_c, 0, 61, 0
16, 118592, Note_off_c, 0, 65, 0
16, 118592, Note_on_c, 0, 58, 63
16, 118592, Note_on_c, 0, 61, 63
16, 118592, Note_on_c, 0, 65, 63
16, 118912, Note_off_c, 0, 58, 0
16, 118912, Note_off_c, 0, 61, 0
16, 118912, Note_off_c, 0, 65, 0
16, 118912, Note_on_c, 0, 58, 63
16, 118912, Note_on_c, 0, 61, 63
16, 118912, Note_on_c, 0, 65, 63
16, 119168, Note_off_c, 0, 58, 0
16, 119168, Note_off_c, 0, 61, 0
16, 119168, Note_off_c, 0, 65, 0
16, 119168, Note_on_c, 0, 58, 63
16, 119168, Note_on_c, 0, 61, 63
16, 119168, Note_on_c, 0, 65, 63
16, 119296, Note_off_c, 0, 58, 0
16, 119296, Note_off_c, 0, 61, 0
16, 119296, Note_off_c, 0, 65, 0
16, 119296, Note_on_c, 0, 58, 63
16, 119296, Note_on_c, 0, 61, 63
16, 119296, Note_on_c, 0, 65, 63
16, 119488, Note_off_c, 0, 58, 0
16, 119488, Note_off_c, 0, 61, 0
16, 119488, Note_off_c, 0, 65, 0
16, 119488, Note_on_c, 0, 58, 63
16, 119488, Note_on_c, 0, 61, 63
16, 119488, Note_on_c, 0, 65, 63
16, 119744, Note_off_c, 0, 58, 0
16, 119744, Note_off_c, 0, 61, 0
16, 119744, Note_off_c, 0, 65, 0
16, 119744, Note_on_c, 0, 58, 63
16, 119744, Note_on_c, 0, 61, 63
16, 119744, Note_on_c, 0, 65, 63
16, 120064, Note_off_c, 0, 58, 0
16, 120064, Note_off_c, 0, 61, 0
16, 120064, Note_off_c, 0, 65, 0
16, 120064, Note_on_c, 0, 58, 59
16, 120064, Note_on_c, 0, 61, 59
16, 120064, Note_on_c, 0, 65, 59
16, 120320, Note_off_c, 0, 58, 0
16, 120320, Note_off_c, 0, 61, 0
16, 120320, Note_off_c, 0, 65, 0
16, 120320, Note_on_c, 0, 58, 64
16, 120320, Note_on_c, 0, 61, 64
16, 120320, Note_on_c, 0, 65, 64
16, 120640, Note_off_c, 0, 58, 0
16, 120640, Note_off_c, 0, 61, 0
16, 120640, Note_off_c, 0, 65, 0
16, 120640, Note_on_c, 0, 58, 62
16, 120640, Note_on_c, 0, 61, 62
16, 120640, Note_on_c, 0, 65, 62
16, 120896, Note_off_c, 0, 58, 0
16, 120896, Note_off_c, 0, 61, 0
16, 120896, Note_off_c, 0, 65, 0
16, 120896, Note_on_c, 0, 58, 62
16, 120896, Note_on_c, 0, 61, 62
16, 120896, Note_on_c, 0, 65, 62
16, 121216, Note_off_c, 0, 58, 0
16, 121216, Note_off_c, 0, 61, 0
16, 121216, Note_off_c, 0, 65, 0
16, 121216, Note_on_c, 0, 59, 67
16, 121216, Note_on_c, 0, 60, 67
16, 121216, Note_on_c, 0, 66, 67
16, 121472, Note_off_c, 0, 59, 0
16, 121472, Note_off_c, 0, 60, 0
16, 121472, Note_off_c, 0, 66, 0
16, 121472, Note_on_c, 0, 59, 64
16, 121472, Note_on_c, 0, 60, 64
16, 121472, Note_on_c, 0, 66, 64
16, 121792, Note_off_c, 0, 59, 0
16, 121792, Note_off_c, 0, 60, 0
16, 121792, Note_off_c, 0, 66, 0
16, 121792, Note_on_c, 0, 59, 61
16, 121792, Note_on_c, 0, 60, 61
16, 121792, Note_on_c, 0, 66, 61
16, 122048, Note_off_c, 0, 59, 0
16, 122048, Note_off_c, 0, 60, 0
16, 122048, Note_off_c, 0, 66, 0
16, 122048, Note_on_c, 0, 59, 58
16, 122048, Note_on_c, 0, 60, 58
16, 122048, Note_on_c, 0, 66, 58
16, 122432, Note_off_c, 0, 59, 0
16, 122432, Note_off_c, 0, 60, 0
16, 122432, Note_off_c, 0, 66, 0
16, 122432, Note_on_c, 0, 59, 61
16, 122432, Note_on_c, 0, 60, 61
16, 122432, Note_on_c, 0, 66, 61
16, 122688, Note_off_c, 0, 59, 0
16, 122688, Note_off_c, 0, 60, 0
16, 122688, Note_off_c, 0, 66, 0
16, 122688, Note_on_c, 0, 59, 59
16, 122688, Note_on_c, 0, 60, 59
16, 122688, Note_on_c, 0, 66, 59
16, 123008, Note_off_c, 0, 59, 0
16, 123008, Note_off_c, 0, 60, 0
16, 123008, Note_off_c, 0, 66, 0
16, 123008, Note_on_c, 0, 59, 60
16, 123008, Note_on_c, 0, 60, 60
16, 123008, Note_on_c, 0, 66, 60
16, 123264, Note_off_c, 0, 59, 0
16, 123264, Note_off_c, 0, 60, 0
16, 123264, Note_off_c, 0, 66, 0
16, 123264, Note_on_c, 0, 59, 63
16, 123264, Note_on_c, 0, 60, 63
16, 123264, Note_on_c, 0, 66, 63
16, 123584, Note_off_c, 0, 59, 0
16, 123584, Note_off_c, 0, 60, 0
16, 123584, Note_off_c, 0, 66, 0
16, 123584, Note_on_c, 0, 59, 59
16, 123584, Note_on_c, 0, 60, 59
16, 123584, Note_on_c, 0, 66, 59
16, 123840, Note_off_c, 0, 59, 0
16, 123840, Note_off_c, 0, 60, 0
16, 123840, Note_off_c, 0, 66, 0
16, 123840, Note_on_c, 0, 59, 43
16, 123840, Note_on_c, 0, 60, 43
16, 123840, Note_on_c, 0, 66, 43
16, 124160, Note_off_c, 0, 59, 0
16, 124160, Note_off_c, 0, 60, 0
16, 124160, Note_off_c, 0, 66, 0
16, 124160, Note_on_c, 0, 59, 38
16, 124160, Note_on_c, 0, 60, 38
16, 124160, Note_on_c, 0, 66, 38
16, 124416, Note_off_c, 0, 59, 0
16, 124416, Note_off_c, 0, 60, 0
16, 124416, Note_off_c, 0, 66, 0
16, 135360, Note_on_c, 0, 66, 66
16, 135808, Note_off_c, 0, 66, 0
16, 136576, Note_on_c, 0, 67, 64
16, 136704, Note_on_c, 0, 72, 84
16, 136960, Note_off_c, 0, 67, 0
16, 136960, Note_on_c, 0, 79, 78
16, 136960, Note_on_c, 0, 88, 78
16, 136979, Note_off_c, 0, 79, 0
16, 136979, Note_off_c, 0, 88, 0
16, 137088, Note_off_c, 0, 72, 0
16, 137088, Note_on_c, 0, 74, 77
16, 137216, Note_on_c, 0, 79, 76
16, 137216, Note_on_c, 0, 88, 76
16, 137235, Note_off_c, 0, 79, 0
16, 137235, Note_off_c, 0, 88, 0
16, 137344, Note_on_c, 0, 67, 77
16, 137344, Note_on_c, 0, 73, 77
16, 137363, Note_off_c, 0, 67, 0
16, 137363, Note_off_c, 0, 73, 0
16, 137472, Note_off_c, 0, 74, 0
16, 137472, Note_on_c, 0, 66, 53
16, 137600, Note_off_c, 0, 66, 0
16, 137600, Note_on_c, 0, 67, 77
16, 137600, Note_on_c, 0, 73, 77
16, 137600, Note_on_c, 0, 66, 63
16, 137619, Note_off_c, 0, 67, 0
16, 137619, Note_off_c, 0, 73, 0
16, 137728, Note_on_c, 0, 79, 77
16, 137728, Note_on_c, 0, 88, 77
16, 137747, Note_off_c, 0, 79, 0
16, 137747, Note_off_c, 0, 88, 0
16, 137856, Note_off_c, 0, 66, 0
16, 137856, Note_on_c, 0, 67, 78
16, 137856, Note_on_c, 0, 73, 78
16, 137856, Note_on_c, 0, 66, 63
16, 137875, Note_off_c, 0, 67, 0
16, 137875, Note_off_c, 0, 73, 0
16, 137984, Note_off_c, 0, 66, 0
16, 138112, Note_on_c, 0, 67, 79
16, 138112, Note_on_c, 0, 73, 79
16, 138131, Note_off_c, 0, 67, 0
16, 138131, Note_off_c, 0, 73, 0
16, 138368, Note_on_c, 0, 67, 76
16, 138368, Note_on_c, 0, 73, 76
16, 138387, Note_off_c, 0, 67, 0
16, 138387, Note_off_c, 0, 73, 0
16, 138410, Note_on_c, 0, 67, 58
16, 138752, Note_off_c, 0, 67, 0
16, 139008, Note_on_c, 0, 72, 54
16, 139264, Note_off_c, 0, 72, 0
16, 139264, Note_on_c, 0, 79, 78
16, 139264, Note_on_c, 0, 88, 78
16, 139283, Note_off_c, 0, 79, 0
16, 139283, Note_off_c, 0, 88, 0
16, 139392, Note_on_c, 0, 74, 55
16, 139456, Note_on_c, 0, 66, 58
16, 139520, Note_on_c, 0, 79, 80
16, 139520, Note_on_c, 0, 88, 80
16, 139539, Note_off_c, 0, 79, 0
16, 139539, Note_off_c, 0, 88, 0
16, 139584, Note_off_c, 0, 74, 0
16, 139648, Note_off_c, 0, 66, 0
16, 139648, Note_on_c, 0, 67, 74
16, 139648, Note_on_c, 0, 73, 74
16, 139667, Note_off_c, 0, 67, 0
16, 139667, Note_off_c, 0, 73, 0
16, 139861, Note_on_c, 0, 66, 57
16, 139904, Note_on_c, 0, 67, 77
16, 139904, Note_on_c, 0, 73, 77
16, 139923, Note_off_c, 0, 67, 0
16, 139923, Note_off_c, 0, 73, 0
16, 140032, Note_off_c, 0, 66, 0
16, 140032, Note_on_c, 0, 79, 74
16, 140032, Note_on_c, 0, 88, 74
16, 140051, Note_off_c, 0, 79, 0
16, 140051, Note_off_c, 0, 88, 0
16, 140202, Note_on_c, 0, 64, 57
16, 140288, Note_off_c, 0, 64, 0
16, 140288, Note_on_c, 0, 79, 80
16, 140288, Note_on_c, 0, 88, 80
16, 140307, Note_off_c, 0, 79, 0
16, 140307, Note_off_c, 0, 88, 0
16, 140416, Note_on_c, 0, 67, 79
16, 140416, Note_on_c, 0, 73, 79
16, 140435, Note_off_c, 0, 67, 0
16, 140435, Note_off_c, 0, 73, 0
16, 140480, Note_on_c, 0, 69, 53
16, 140672, Note_on_c, 0, 67, 76
16, 140672, Note_on_c, 0, 73, 76
16, 140691, Note_off_c, 0, 67, 0
16, 140691, Note_off_c, 0, 73, 0
16, 140800, Note_off_c, 0, 69, 0
16, 141312, Note_on_c, 0, 66, 54
16, 141568, Note_off_c, 0, 66, 0
16, 141568, Note_on_c, 0, 79, 73
16, 141568, Note_on_c, 0, 88, 73
16, 141632, Note_off_c, 0, 79, 0
16, 141632, Note_off_c, 0, 88, 0
16, 141824, Note_on_c, 0, 79, 74
16, 141824, Note_on_c, 0, 88, 74
16, 141824, Note_on_c, 0, 72, 57
16, 141888, Note_off_c, 0, 79, 0
16, 141888, Note_off_c, 0, 88, 0
16, 141952, Note_on_c, 0, 67, 77
16, 141952, Note_on_c, 0, 74, 77
16, 142016, Note_off_c, 0, 67, 0
16, 142016, Note_off_c, 0, 74, 0
16, 142080, Note_off_c, 0, 72, 0
16, 142144, Note_on_c, 0, 67, 55
16, 142208, Note_on_c, 0, 67, 76
16, 142208, Note_on_c, 0, 74, 76
16, 142208, Note_on_c, 0, 74, 65
16, 142272, Note_off_c, 0, 67, 0
16, 142272, Note_off_c, 0, 74, 0
16, 142304, Note_on_c, 0, 67, 88
16, 142304, Note_on_c, 0, 74, 88
16, 142336, Note_off_c, 0, 67, 0
16, 142336, Note_off_c, 0, 74, 0
16, 142336, Note_off_c, 0, 67, 0
16, 142336, Note_on_c, 0, 79, 75
16, 142336, Note_on_c, 0, 88, 75
16, 142336, Note_on_c, 0, 79, 111
16, 142400, Note_off_c, 0, 79, 0
16, 142400, Note_off_c, 0, 88, 0
16, 142400, Note_off_c, 0, 74, 0
16, 142560, Note_off_c, 0, 79, 0
16, 142560, Note_on_c, 0, 67, 88
16, 142560, Note_on_c, 0, 74, 88
16, 142592, Note_off_c, 0, 67, 0
16, 142592, Note_off_c, 0, 74, 0
16, 142592, Note_on_c, 0, 79, 74
16, 142592, Note_on_c, 0, 88, 74
16, 142592, Note_on_c, 0, 81, 116
16, 142592, Note_on_c, 0, 66, 73
16, 142656, Note_off_c, 0, 79, 0
16, 142656, Note_off_c, 0, 88, 0
16, 142720, Note_on_c, 0, 67, 79
16, 142720, Note_on_c, 0, 74, 79
16, 142784, Note_off_c, 0, 67, 0
16, 142784, Note_off_c, 0, 74, 0
16, 142816, Note_off_c, 0, 81, 0
16, 142816, Note_on_c, 0, 67, 86
16, 142816, Note_on_c, 0, 74, 86
16, 142848, Note_off_c, 0, 67, 0
16, 142848, Note_off_c, 0, 74, 0
16, 142848, Note_off_c, 0, 66, 0
16, 142848, Note_on_c, 0, 79, 111
16, 142933, Note_on_c, 0, 66, 76
16, 142976, Note_on_c, 0, 67, 78
16, 142976, Note_on_c, 0, 74, 78
16, 142976, Note_on_c, 0, 64, 79
16, 143040, Note_off_c, 0, 67, 0
16, 143040, Note_off_c, 0, 74, 0
16, 143072, Note_off_c, 0, 79, 0
16, 143072, Note_on_c, 0, 67, 86
16, 143072, Note_on_c, 0, 74, 86
16, 143104, Note_off_c, 0, 67, 0
16, 143104, Note_off_c, 0, 74, 0
16, 143104, Note_off_c, 0, 66, 0
16, 143104, Note_off_c, 0, 64, 0
16, 143104, Note_on_c, 0, 81, 117
16, 143328, Note_off_c, 0, 81, 0
16, 143328, Note_on_c, 0, 67, 85
16, 143328, Note_on_c, 0, 74, 85
16, 143360, Note_off_c, 0, 67, 0
16, 143360, Note_off_c, 0, 74, 0
16, 143360, Note_on_c, 0, 79, 113
16, 143584, Note_off_c, 0, 79, 0
16, 143584, Note_on_c, 0, 67, 87
16, 143584, Note_on_c, 0, 74, 87
16, 143616, Note_off_c, 0, 67, 0
16, 143616, Note_off_c, 0, 74, 0
16, 143616, Note_on_c, 0, 81, 117
16, 143744, Note_on_c, 0, 67, 73
16, 143840, Note_off_c, 0, 81, 0
16, 143840, Note_on_c, 0, 67, 85
16, 143840, Note_on_c, 0, 74, 85
16, 143872, Note_off_c, 0, 67, 0
16, 143872, Note_off_c, 0, 74, 0
16, 143872, Note_on_c, 0, 79, 71
16, 143872, Note_on_c, 0, 88, 71
16, 143872, Note_on_c, 0, 79, 111
16, 143936, Note_off_c, 0, 79, 0
16, 143936, Note_off_c, 0, 88, 0
16, 144000, Note_off_c, 0, 67, 0
16, 144000, Note_on_c, 0, 72, 90
16, 144096, Note_off_c, 0, 79, 0
16, 144096, Note_on_c, 0, 67, 87
16, 144096, Note_on_c, 0, 74, 87
16, 144128, Note_off_c, 0, 67, 0
16, 144128, Note_off_c, 0, 74, 0
16, 144128, Note_on_c, 0, 79, 73
16, 144128, Note_on_c, 0, 88, 73
16, 144128, Note_on_c, 0, 81, 116
16, 144192, Note_off_c, 0, 79, 0
16, 144192, Note_off_c, 0, 88, 0
16, 144256, Note_off_c, 0, 72, 0
16, 144256, Note_on_c, 0, 67, 77
16, 144256, Note_on_c, 0, 74, 77
16, 144320, Note_off_c, 0, 67, 0
16, 144320, Note_off_c, 0, 74, 0
16, 144352, Note_off_c, 0, 81, 0
16, 144352, Note_on_c, 0, 67, 82
16, 144352, Note_on_c, 0, 74, 82
16, 144384, Note_off_c, 0, 67, 0
16, 144384, Note_off_c, 0, 74, 0
16, 144384, Note_on_c, 0, 79, 112
16, 144384, Note_on_c, 0, 66, 74
16, 144448, Note_on_c, 0, 74, 82
16, 144512, Note_on_c, 0, 67, 74
16, 144512, Note_on_c, 0, 74, 74
16, 144576, Note_off_c, 0, 67, 0
16, 144576, Note_off_c, 0, 74, 0
16, 144608, Note_off_c, 0, 79, 0
16, 144608, Note_on_c, 0, 67, 88
16, 144608, Note_on_c, 0, 74, 88
16, 144640, Note_off_c, 0, 67, 0
16, 144640, Note_off_c, 0, 74, 0
16, 144640, Note_off_c, 0, 66, 0
16, 144640, Note_off_c, 0, 74, 0
16, 144640, Note_on_c, 0, 79, 77
16, 144640, Note_on_c, 0, 88, 77
16, 144640, Note_on_c, 0, 81, 116
16, 144704, Note_off_c, 0, 79, 0
16, 144704, Note_off_c, 0, 88, 0
16, 144725, Note_on_c, 0, 66, 74
16, 144864, Note_off_c, 0, 81, 0
16, 144864, Note_on_c, 0, 67, 87
16, 144864, Note_on_c, 0, 74, 87
16, 144896, Note_off_c, 0, 67, 0
16, 144896, Note_off_c, 0, 74, 0
16, 144896, Note_off_c, 0, 66, 0
16, 144896, Note_on_c, 0, 79, 77
16, 144896, Note_on_c, 0, 88, 77
16, 144896, Note_on_c, 0, 79, 94
16, 144960, Note_off_c, 0, 79, 0
16, 144960, Note_off_c, 0, 88, 0
16, 145024, Note_on_c, 0, 67, 77
16, 145024, Note_on_c, 0, 74, 77
16, 145088, Note_off_c, 0, 67, 0
16, 145088, Note_off_c, 0, 74, 0
16, 145120, Note_off_c, 0, 79, 0
16, 145120, Note_on_c, 0, 67, 77
16, 145120, Note_on_c, 0, 74, 77
16, 145152, Note_off_c, 0, 67, 0
16, 145152, Note_off_c, 0, 74, 0
16, 145152, Note_on_c, 0, 81, 98
16, 145152, Note_on_c, 0, 67, 74
16, 145280, Note_on_c, 0, 67, 75
16, 145280, Note_on_c, 0, 74, 75
16, 145344, Note_off_c, 0, 67, 0
16, 145344, Note_off_c, 0, 74, 0
16, 145376, Note_off_c, 0, 81, 0
16, 145376, Note_on_c, 0, 67, 65
16, 145376, Note_on_c, 0, 74, 65
16, 145408, Note_off_c, 0, 67, 0
16, 145408, Note_off_c, 0, 74, 0
16, 145408, Note_off_c, 0, 67, 0
16, 145408, Note_on_c, 0, 79, 90
16, 145632, Note_off_c, 0, 79, 0
16, 145632, Note_on_c, 0, 67, 69
16, 145632, Note_on_c, 0, 74, 69
16, 145664, Note_off_c, 0, 67, 0
16, 145664, Note_off_c, 0, 74, 0
16, 145664, Note_on_c, 0, 81, 84
16, 145888, Note_off_c, 0, 81, 0
16, 145888, Note_on_c, 0, 67, 63
16, 145888, Note_on_c, 0, 74, 63
16, 145920, Note_off_c, 0, 67, 0
16, 145920, Note_off_c, 0, 74, 0
16, 145920, Note_on_c, 0, 71, 78
16, 145920, Note_on_c, 0, 83, 78
16, 145920, Note_on_c, 0, 79, 79
16, 145920, Note_on_c, 0, 72, 65
16, 146048, Note_off_c, 0, 71, 0
16, 146048, Note_off_c, 0, 83, 0
16, 146048, Note_on_c, 0, 66, 64
16, 146144, Note_off_c, 0, 79, 0
16, 146144, Note_on_c, 0, 67, 62
16, 146144, Note_on_c, 0, 74, 62
16, 146176, Note_off_c, 0, 67, 0
16, 146176, Note_off_c, 0, 74, 0
16, 146176, Note_on_c, 0, 81, 77
16, 146304, Note_off_c, 0, 72, 0
16, 146304, Note_off_c, 0, 66, 0
16, 146304, Note_on_c, 0, 67, 73
16, 146304, Note_on_c, 0, 74, 73
16, 146304, Note_on_c, 0, 71, 75
16, 146304, Note_on_c, 0, 83, 75
16, 146304, Note_on_c, 0, 74, 75
16, 146368, Note_off_c, 0, 67, 0
16, 146368, Note_off_c, 0, 74, 0
16, 146400, Note_off_c, 0, 81, 0
16, 146400, Note_on_c, 0, 67, 65
16, 146400, Note_on_c, 0, 74, 65
16, 146432, Note_off_c, 0, 71, 0
16, 146432, Note_off_c, 0, 83, 0
16, 146432, Note_off_c, 0, 67, 0
16, 146432, Note_off_c, 0, 74, 0
16, 146432, Note_on_c, 0, 79, 78
16, 146560, Note_off_c, 0, 74, 0
16, 146656, Note_off_c, 0, 79, 0
16, 146656, Note_on_c, 0, 67, 59
16, 146656, Note_on_c, 0, 74, 59
16, 146688, Note_off_c, 0, 67, 0
16, 146688, Note_off_c, 0, 74, 0
16, 146688, Note_on_c, 0, 71, 73
16, 146688, Note_on_c, 0, 83, 73
16, 146688, Note_on_c, 0, 81, 81
16, 146688, Note_on_c, 0, 66, 60
16, 146816, Note_off_c, 0, 71, 0
16, 146816, Note_off_c, 0, 83, 0
16, 146816, Note_on_c, 0, 67, 59
16, 146912, Note_off_c, 0, 81, 0
16, 146912, Note_on_c, 0, 67, 57
16, 146912, Note_on_c, 0, 74, 57
16, 146944, Note_off_c, 0, 67, 0
16, 146944, Note_off_c, 0, 74, 0
16, 146944, Note_on_c, 0, 79, 82
16, 147072, Note_off_c, 0, 66, 0
16, 147072, Note_off_c, 0, 67, 0
16, 147072, Note_on_c, 0, 71, 75
16, 147072, Note_on_c, 0, 83, 75
16, 147072, Note_on_c, 0, 64, 64
16, 147168, Note_off_c, 0, 79, 0
16, 147168, Note_on_c, 0, 67, 63
16, 147168, Note_on_c, 0, 74, 63
16, 147200, Note_off_c, 0, 71, 0
16, 147200, Note_off_c, 0, 83, 0
16, 147200, Note_off_c, 0, 67, 0
16, 147200, Note_off_c, 0, 74, 0
16, 147200, Note_on_c, 0, 81, 86
16, 147328, Note_off_c, 0, 64, 0
16, 147424, Note_off_c, 0, 81, 0
16, 147424, Note_on_c, 0, 67, 61
16, 147424, Note_on_c, 0, 74, 61
16, 147456, Note_off_c, 0, 67, 0
16, 147456, Note_off_c, 0, 74, 0
16, 147456, Note_on_c, 0, 71, 69
16, 147456, Note_on_c, 0, 83, 69
16, 147456, Note_on_c, 0, 79, 75
16, 147456, Note_on_c, 0, 66, 64
16, 147584, Note_off_c, 0, 71, 0
16, 147584, Note_off_c, 0, 83, 0
16, 147680, Note_off_c, 0, 79, 0
16, 147680, Note_on_c, 0, 67, 64
16, 147680, Note_on_c, 0, 74, 64
16, 147712, Note_off_c, 0, 67, 0
16, 147712, Note_off_c, 0, 74, 0
16, 147712, Note_off_c, 0, 66, 0
16, 147712, Note_on_c, 0, 81, 84
16, 147840, Note_on_c, 0, 71, 70
16, 147840, Note_on_c, 0, 83, 70
16, 147840, Note_on_c, 0, 64, 61
16, 147936, Note_off_c, 0, 81, 0
16, 147936, Note_on_c, 0, 67, 57
16, 147936, Note_on_c, 0, 74, 57
16, 147968, Note_off_c, 0, 71, 0
16, 147968, Note_off_c, 0, 83, 0
16, 147968, Note_off_c, 0, 67, 0
16, 147968, Note_off_c, 0, 74, 0
16, 147968, Note_off_c, 0, 64, 0
16, 147968, Note_on_c, 0, 79, 77
16, 148192, Note_off_c, 0, 79, 0
16, 148192, Note_on_c, 0, 67, 63
16, 148192, Note_on_c, 0, 74, 63
16, 148224, Note_off_c, 0, 67, 0
16, 148224, Note_off_c, 0, 74, 0
16, 148224, Note_on_c, 0, 71, 73
16, 148224, Note_on_c, 0, 72, 73
16, 148224, Note_on_c, 0, 83, 73
16, 148224, Note_on_c, 0, 84, 73
16, 148224, Note_on_c, 0, 81, 85
16, 148352, Note_off_c, 0, 71, 0
16, 148352, Note_off_c, 0, 72, 0
16, 148352, Note_off_c, 0, 83, 0
16, 148352, Note_off_c, 0, 84, 0
16, 148352, Note_on_c, 0, 67, 65
16, 148448, Note_off_c, 0, 81, 0
16, 148448, Note_on_c, 0, 67, 58
16, 148448, Note_on_c, 0, 74, 58
16, 148480, Note_off_c, 0, 67, 0
16, 148480, Note_off_c, 0, 74, 0
16, 148480, Note_off_c, 0, 67, 0
16, 148480, Note_on_c, 0, 79, 75
16, 148608, Note_on_c, 0, 71, 76
16, 148608, Note_on_c, 0, 72, 76
16, 148608, Note_on_c, 0, 83, 76
16, 148608, Note_on_c, 0, 84, 76
16, 148704, Note_off_c, 0, 79, 0
16, 148704, Note_on_c, 0, 67, 66
16, 148704, Note_on_c, 0, 74, 66
16, 148736, Note_off_c, 0, 71, 0
16, 148736, Note_off_c, 0, 72, 0
16, 148736, Note_off_c, 0, 83, 0
16, 148736, Note_off_c, 0, 84, 0
16, 148736, Note_off_c, 0, 67, 0
16, 148736, Note_off_c, 0, 74, 0
16, 148736, Note_on_c, 0, 81, 82
16, 148960, Note_off_c, 0, 81, 0
16, 148960, Note_on_c, 0, 67, 62
16, 148960, Note_on_c, 0, 74, 62
16, 148992, Note_off_c, 0, 67, 0
16, 148992, Note_off_c, 0, 74, 0
16, 148992, Note_on_c, 0, 71, 78
16, 148992, Note_on_c, 0, 72, 78
16, 148992, Note_on_c, 0, 83, 78
16, 148992, Note_on_c, 0, 84, 78
16, 148992, Note_on_c, 0, 74, 71
16, 148992, Note_on_c, 0, 66, 61
16, 149120, Note_off_c, 0, 71, 0
16, 149120, Note_off_c, 0, 72, 0
16, 149120, Note_off_c, 0, 83, 0
16, 149120, Note_off_c, 0, 84, 0
16, 149120, Note_off_c, 0, 66, 0
16, 149120, Note_on_c, 0, 66, 73
16, 149216, Note_off_c, 0, 74, 0
16, 149216, Note_on_c, 0, 67, 67
16, 149216, Note_on_c, 0, 74, 67
16, 149248, Note_off_c, 0, 67, 0
16, 149248, Note_off_c, 0, 74, 0
16, 149248, Note_on_c, 0, 76, 75
16, 149376, Note_off_c, 0, 66, 0
16, 149376, Note_on_c, 0, 71, 79
16, 149376, Note_on_c, 0, 72, 79
16, 149376, Note_on_c, 0, 83, 79
16, 149376, Note_on_c, 0, 84, 79
16, 149376, Note_on_c, 0, 64, 64
16, 149472, Note_off_c, 0, 76, 0
16, 149472, Note_on_c, 0, 67, 70
16, 149472, Note_on_c, 0, 74, 70
16, 149504, Note_off_c, 0, 71, 0
16, 149504, Note_off_c, 0, 72, 0
16, 149504, Note_off_c, 0, 83, 0
16, 149504, Note_off_c, 0, 84, 0
16, 149504, Note_off_c, 0, 67, 0
16, 149504, Note_off_c, 0, 74, 0
16, 149504, Note_on_c, 0, 74, 73
16, 149632, Note_off_c, 0, 64, 0
16, 149728, Note_off_c, 0, 74, 0
16, 149728, Note_on_c, 0, 67, 73
16, 149728, Note_on_c, 0, 74, 73
16, 149760, Note_off_c, 0, 67, 0
16, 149760, Note_off_c, 0, 74, 0
16, 149760, Note_on_c, 0, 71, 71
16, 149760, Note_on_c, 0, 72, 71
16, 149760, Note_on_c, 0, 83, 71
16, 149760, Note_on_c, 0, 84, 71
16, 149760, Note_on_c, 0, 76, 74
16, 149845, Note_on_c, 0, 67, 64
16, 149888, Note_off_c, 0, 71, 0
16, 149888, Note_off_c, 0, 72, 0
16, 149888, Note_off_c, 0, 83, 0
16, 149888, Note_off_c, 0, 84, 0
16, 149984, Note_off_c, 0, 76, 0
16, 149984, Note_on_c, 0, 67, 69
16, 149984, Note_on_c, 0, 74, 69
16, 150016, Note_off_c, 0, 67, 0
16, 150016, Note_off_c, 0, 74, 0
16, 150016, Note_off_c, 0, 67, 0
16, 150016, Note_on_c, 0, 74, 71
16, 150144, Note_on_c, 0, 71, 74
16, 150144, Note_on_c, 0, 72, 74
16, 150144, Note_on_c, 0, 83, 74
16, 150144, Note_on_c, 0, 84, 74
16, 150144, Note_on_c, 0, 72, 62
16, 150240, Note_off_c, 0, 74, 0
16, 150240, Note_on_c, 0, 67, 55
16, 150272, Note_off_c, 0, 71, 0
16, 150272, Note_off_c, 0, 72, 0
16, 150272, Note_off_c, 0, 83, 0
16, 150272, Note_off_c, 0, 84, 0
16, 150272, Note_off_c, 0, 67, 0
16, 150272, Note_on_c, 0, 76, 84
16, 150400, Note_off_c, 0, 72, 0
16, 150496, Note_off_c, 0, 76, 0
16, 150496, Note_on_c, 0, 64, 64
16, 150496, Note_on_c, 0, 71, 64
16, 150528, Note_off_c, 0, 64, 0
16, 150528, Note_off_c, 0, 71, 0
16, 150528, Note_on_c, 0, 71, 80
16, 150528, Note_on_c, 0, 72, 80
16, 150528, Note_on_c, 0, 83, 80
16, 150528, Note_on_c, 0, 84, 80
16, 150528, Note_on_c, 0, 74, 74
16, 150656, Note_off_c, 0, 71, 0
16, 150656, Note_off_c, 0, 72, 0
16, 150656, Note_off_c, 0, 83, 0
16, 150656, Note_off_c, 0, 84, 0
16, 150656, Note_on_c, 0, 74, 68
16, 150720, Note_on_c, 0, 66, 69
16, 150752, Note_off_c, 0, 74, 0
16, 150752, Note_on_c, 0, 64, 63
16, 150752, Note_on_c, 0, 71, 63
16, 150784, Note_off_c, 0, 64, 0
16, 150784, Note_off_c, 0, 71, 0
16, 150784, Note_on_c, 0, 76, 78
16, 150848, Note_off_c, 0, 74, 0
16, 150848, Note_off_c, 0, 66, 0
16, 150912, Note_on_c, 0, 71, 73
16, 150912, Note_on_c, 0, 72, 73
16, 150912, Note_on_c, 0, 83, 73
16, 150912, Note_on_c, 0, 84, 73
16, 151008, Note_off_c, 0, 76, 0
16, 151008, Note_on_c, 0, 64, 64
16, 151008, Note_on_c, 0, 71, 64
16, 151040, Note_off_c, 0, 71, 0
16, 151040, Note_off_c, 0, 72, 0
16, 151040, Note_off_c, 0, 83, 0
16, 151040, Note_off_c, 0, 84, 0
16, 151040, Note_off_c, 0, 64, 0
16, 151040, Note_off_c, 0, 71, 0
16, 151040, Note_on_c, 0, 74, 75
16, 151040, Note_on_c, 0, 66, 65
16, 151264, Note_off_c, 0, 74, 0
16, 151264, Note_on_c, 0, 64, 66
16, 151264, Note_on_c, 0, 71, 66
16, 151296, Note_off_c, 0, 64, 0
16, 151296, Note_off_c, 0, 71, 0
16, 151296, Note_off_c, 0, 66, 0
16, 151296, Note_on_c, 0, 71, 74
16, 151296, Note_on_c, 0, 72, 74
16, 151296, Note_on_c, 0, 83, 74
16, 151296, Note_on_c, 0, 84, 74
16, 151296, Note_on_c, 0, 76, 79
16, 151424, Note_off_c, 0, 71, 0
16, 151424, Note_off_c, 0, 72, 0
16, 151424, Note_off_c, 0, 83, 0
16, 151424, Note_off_c, 0, 84, 0
16, 151520, Note_off_c, 0, 76, 0
16, 151520, Note_on_c, 0, 64, 64
16, 151520, Note_on_c, 0, 71, 64
16, 151552, Note_off_c, 0, 64, 0
16, 151552, Note_off_c, 0, 71, 0
16, 151552, Note_on_c, 0, 74, 72
16, 151616, Note_on_c, 0, 64, 65
16, 151616, Note_on_c, 0, 67, 65
16, 151680, Note_on_c, 0, 71, 72
16, 151680, Note_on_c, 0, 74, 72
16, 151680, Note_on_c, 0, 83, 72
16, 151680, Note_on_c, 0, 86, 72
16, 151776, Note_off_c, 0, 74, 0
16, 151776, Note_on_c, 0, 64, 67
16, 151776, Note_on_c, 0, 71, 67
16, 151808, Note_off_c, 0, 71, 0
16, 151808, Note_off_c, 0, 74, 0
16, 151808, Note_off_c, 0, 83, 0
16, 151808, Note_off_c, 0, 86, 0
16, 151808, Note_off_c, 0, 64, 0
16, 151808, Note_off_c, 0, 71, 0
16, 151808, Note_off_c, 0, 64, 0
16, 151808, Note_off_c, 0, 67, 0
16, 151808, Note_on_c, 0, 76, 82
16, 152032, Note_off_c, 0, 76, 0
16, 152032, Note_on_c, 0, 64, 68
16, 152032, Note_on_c, 0, 71, 68
16, 152064, Note_off_c, 0, 64, 0
16, 152064, Note_off_c, 0, 71, 0
16, 152064, Note_on_c, 0, 71, 77
16, 152064, Note_on_c, 0, 74, 77
16, 152064, Note_on_c, 0, 83, 77
16, 152064, Note_on_c, 0, 86, 77
16, 152064, Note_on_c, 0, 74, 77
16, 152064, Note_on_c, 0, 64, 65
16, 152192, Note_off_c, 0, 71, 0
16, 152192, Note_off_c, 0, 74, 0
16, 152192, Note_off_c, 0, 83, 0
16, 152192, Note_off_c, 0, 86, 0
16, 152288, Note_off_c, 0, 74, 0
16, 152288, Note_on_c, 0, 64, 67
16, 152288, Note_on_c, 0, 71, 67
16, 152320, Note_off_c, 0, 64, 0
16, 152320, Note_off_c, 0, 71, 0
16, 152320, Note_off_c, 0, 64, 0
16, 152320, Note_on_c, 0, 76, 76
16, 152384, Note_on_c, 0, 66, 60
16, 152448, Note_on_c, 0, 71, 78
16, 152448, Note_on_c, 0, 74, 78
16, 152448, Note_on_c, 0, 83, 78
16, 152448, Note_on_c, 0, 86, 78
16, 152544, Note_off_c, 0, 76, 0
16, 152544, Note_on_c, 0, 64, 66
16, 152544, Note_on_c, 0, 71, 66
16, 152576, Note_off_c, 0, 71, 0
16, 152576, Note_off_c, 0, 74, 0
16, 152576, Note_off_c, 0, 83, 0
16, 152576, Note_off_c, 0, 86, 0
16, 152576, Note_off_c, 0, 64, 0
16, 152576, Note_off_c, 0, 71, 0
16, 152576, Note_off_c, 0, 66, 0
16, 152576, Note_on_c, 0, 74, 75
16, 152800, Note_off_c, 0, 74, 0
16, 152800, Note_on_c, 0, 64, 64
16, 152800, Note_on_c, 0, 71, 64
16, 152832, Note_off_c, 0, 64, 0
16, 152832, Note_off_c, 0, 71, 0
16, 152832, Note_on_c, 0, 71, 82
16, 152832, Note_on_c, 0, 74, 82
16, 152832, Note_on_c, 0, 83, 82
16, 152832, Note_on_c, 0, 86, 82
16, 152832, Note_on_c, 0, 76, 75
16, 152960, Note_off_c, 0, 71, 0
16, 152960, Note_off_c, 0, 74, 0
16, 152960, Note_off_c, 0, 83, 0
16, 152960, Note_off_c, 0, 86, 0
16, 152960, Note_on_c, 0, 64, 60
16, 152960, Note_on_c, 0, 67, 60
16, 153056, Note_off_c, 0, 76, 0
16, 153056, Note_on_c, 0, 64, 55
16, 153056, Note_on_c, 0, 71, 55
16, 153088, Note_off_c, 0, 64, 0
16, 153088, Note_off_c, 0, 71, 0
16, 153088, Note_on_c, 0, 74, 68
16, 153088, Note_on_c, 0, 66, 62
16, 153216, Note_on_c, 0, 71, 77
16, 153216, Note_on_c, 0, 74, 77
16, 153216, Note_on_c, 0, 83, 77
16, 153216, Note_on_c, 0, 86, 77
16, 153312, Note_off_c, 0, 74, 0
16, 153312, Note_on_c, 0, 64, 56
16, 153312, Note_on_c, 0, 71, 56
16, 153344, Note_off_c, 0, 71, 0
16, 153344, Note_off_c, 0, 74, 0
16, 153344, Note_off_c, 0, 83, 0
16, 153344, Note_off_c, 0, 86, 0
16, 153344, Note_off_c, 0, 64, 0
16, 153344, Note_off_c, 0, 71, 0
16, 153344, Note_off_c, 0, 64, 0
16, 153344, Note_off_c, 0, 67, 0
16, 153344, Note_off_c, 0, 66, 0
16, 153344, Note_on_c, 0, 76, 65
16, 153568, Note_off_c, 0, 76, 0
16, 153568, Note_on_c, 0, 64, 45
16, 153568, Note_on_c, 0, 71, 45
16, 153600, Note_off_c, 0, 64, 0
16, 153600, Note_off_c, 0, 71, 0
16, 153600, Note_on_c, 0, 71, 74
16, 153600, Note_on_c, 0, 74, 74
16, 153600, Note_on_c, 0, 83, 74
16, 153600, Note_on_c, 0, 86, 74
16, 153600, Note_on_c, 0, 74, 58
16, 153728, Note_off_c, 0, 71, 0
16, 153728, Note_off_c, 0, 74, 0
16, 153728, Note_off_c, 0, 83, 0
16, 153728, Note_off_c, 0, 86, 0
16, 153824, Note_off_c, 0, 74, 0
16, 153824, Note_on_c, 0, 64, 41
16, 153824, Note_on_c, 0, 71, 41
16, 153856, Note_off_c, 0, 64, 0
16, 153856, Note_off_c, 0, 71, 0
16, 153856, Note_on_c, 0, 76, 52
16, 153941, Note_on_c, 0, 66, 42
16, 153984, Note_on_c, 0, 71, 76
16, 153984, Note_on_c, 0, 74, 76
16, 153984, Note_on_c, 0, 83, 76
16, 153984, Note_on_c, 0, 86, 76
16, 153984, Note_on_c, 0, 64, 49
16, 154080, Note_off_c, 0, 76, 0
16, 154080, Note_on_c, 0, 64, 40
16, 154080, Note_on_c, 0, 71, 40
16, 154112, Note_off_c, 0, 71, 0
16, 154112, Note_off_c, 0, 74, 0
16, 154112, Note_off_c, 0, 83, 0
16, 154112, Note_off_c, 0, 86, 0
16, 154112, Note_off_c, 0, 64, 0
16, 154112, Note_off_c, 0, 71, 0
16, 154112, Note_off_c, 0, 66, 0
16, 154112, Note_off_c, 0, 64, 0
16, 154112, Note_on_c, 0, 74, 48
16, 154336, Note_off_c, 0, 74, 0
16, 154336, Note_on_c, 0, 64, 38
16, 154336, Note_on_c, 0, 71, 38
16, 154368, Note_off_c, 0, 64, 0
16, 154368, Note_off_c, 0, 71, 0
16, 154368, Note_on_c, 0, 71, 81
16, 154368, Note_on_c, 0, 74, 81
16, 154368, Note_on_c, 0, 83, 81
16, 154368, Note_on_c, 0, 86, 81
16, 154368, Note_on_c, 0, 76, 46
16, 154496, Note_off_c, 0, 71, 0
16, 154496, Note_off_c, 0, 74, 0
16, 154496, Note_off_c, 0, 83, 0
16, 154496, Note_off_c, 0, 86, 0
16, 154592, Note_off_c, 0, 76, 0
16, 154592, Note_on_c, 0, 64, 34
16, 154592, Note_on_c, 0, 71, 34
16, 154624, Note_off_c, 0, 64, 0
16, 154624, Note_off_c, 0, 71, 0
16, 154624, Note_on_c, 0, 74, 44
16, 154752, Note_on_c, 0, 71, 74
16, 154752, Note_on_c, 0, 74, 74
16, 154752, Note_on_c, 0, 83, 74
16, 154752, Note_on_c, 0, 86, 74
16, 154816, Note_on_c, 0, 64, 36
16, 154816, Note_on_c, 0, 67, 36
16, 154848, Note_off_c, 0, 74, 0
16, 154848, Note_on_c, 0, 64, 39
16, 154848, Note_on_c, 0, 71, 39
16, 154880, Note_off_c, 0, 71, 0
16, 154880, Note_off_c, 0, 74, 0
16, 154880, Note_off_c, 0, 83, 0
16, 154880, Note_off_c, 0, 86, 0
16, 154880, Note_off_c, 0, 64, 0
16, 154880, Note_off_c, 0, 71, 0
16, 154880, Note_on_c, 0, 76, 44
16, 155008, Note_off_c, 0, 64, 0
16, 155008, Note_off_c, 0, 67, 0
16, 155104, Note_off_c, 0, 76, 0
16, 155104, Note_on_c, 0, 64, 37
16, 155104, Note_on_c, 0, 71, 37
16, 155136, Note_off_c, 0, 64, 0
16, 155136, Note_off_c, 0, 71, 0
16, 155136, Note_on_c, 0, 71, 74
16, 155136, Note_on_c, 0, 74, 74
16, 155136, Note_on_c, 0, 83, 74
16, 155136, Note_on_c, 0, 86, 74
16, 155136, Note_on_c, 0, 76, 44
16, 155264, Note_off_c, 0, 71, 0
16, 155264, Note_off_c, 0, 74, 0
16, 155264, Note_off_c, 0, 83, 0
16, 155264, Note_off_c, 0, 86, 0
16, 155360, Note_off_c, 0, 76, 0
16, 155360, Note_on_c, 0, 64, 39
16, 155360, Note_on_c, 0, 71, 39
16, 155392, Note_off_c, 0, 64, 0
16, 155392, Note_off_c, 0, 71, 0
16, 155392, Note_on_c, 0, 76, 45
16, 155520, Note_on_c, 0, 71, 73
16, 155520, Note_on_c, 0, 74, 73
16, 155520, Note_on_c, 0, 83, 73
16, 155520, Note_on_c, 0, 86, 73
16, 155648, Note_off_c, 0, 71, 0
16, 155648, Note_off_c, 0, 74, 0
16, 155648, Note_off_c, 0, 83, 0
16, 155648, Note_off_c, 0, 86, 0
16, 155648, Note_off_c, 0, 76, 0
16, 155840, Note_on_c, 0, 66, 35
16, 155904, Note_on_c, 0, 71, 78
16, 155904, Note_on_c, 0, 74, 78
16, 155904, Note_on_c, 0, 83, 78
16, 155904, Note_on_c, 0, 86, 78
16, 156032, Note_off_c, 0, 71, 0
16, 156032, Note_off_c, 0, 74, 0
16, 156032, Note_off_c, 0, 83, 0
16, 156032, Note_off_c, 0, 86, 0
16, 156032, Note_off_c, 0, 66, 0
16, 156288, Note_on_c, 0, 71, 71
16, 156288, Note_on_c, 0, 74, 71
16, 156288, Note_on_c, 0, 83, 71
16, 156288, Note_on_c, 0, 86, 71
16, 156416, Note_off_c, 0, 71, 0
16, 156416, Note_off_c, 0, 74, 0
16, 156416, Note_off_c, 0, 83, 0
16, 156416, Note_off_c, 0, 86, 0
16, 156672, Note_on_c, 0, 71, 60
16, 156672, Note_on_c, 0, 74, 60
16, 156672, Note_on_c, 0, 83, 60
16, 156672, Note_on_c, 0, 86, 60
16, 156800, Note_off_c, 0, 71, 0
16, 156800, Note_off_c, 0, 74, 0
16, 156800, Note_off_c, 0, 83, 0
16, 156800, Note_off_c, 0, 86, 0
16, 157056, Note_on_c, 0, 71, 62
16, 157056, Note_on_c, 0, 74, 62
16, 157056, Note_on_c, 0, 83, 62
16, 157056, Note_on_c, 0, 86, 62
16, 157184, Note_off_c, 0, 71, 0
16, 157184, Note_off_c, 0, 74, 0
16, 157184, Note_off_c, 0, 83, 0
16, 157184, Note_off_c, 0, 86, 0
16, 157440, Note_on_c, 0, 71, 54
16, 157440, Note_on_c, 0, 74, 54
16, 157440, Note_on_c, 0, 83, 54
16, 157440, Note_on_c, 0, 86, 54
16, 157568, Note_off_c, 0, 71, 0
16, 157568, Note_off_c, 0, 74, 0
16, 157568, Note_off_c, 0, 83, 0
16, 157568, Note_off_c, 0, 86, 0
16, 157824, Note_on_c, 0, 71, 50
16, 157824, Note_on_c, 0, 74, 50
16, 157824, Note_on_c, 0, 83, 50
16, 157824, Note_on_c, 0, 86, 50
16, 157952, Note_off_c, 0, 71, 0
16, 157952, Note_off_c, 0, 74, 0
16, 157952, Note_off_c, 0, 83, 0
16, 157952, Note_off_c, 0, 86, 0
16, 158208, Note_on_c, 0, 71, 39
16, 158208, Note_on_c, 0, 74, 39
16, 158208, Note_on_c, 0, 83, 39
16, 158208, Note_on_c, 0, 86, 39
16, 158336, Note_off_c, 0, 71, 0
16, 158336, Note_off_c, 0, 74, 0
16, 158336, Note_off_c, 0, 83, 0
16, 158336, Note_off_c, 0, 86, 0
16, 158592, Note_on_c, 0, 71, 32
16, 158592, Note_on_c, 0, 74, 32
16, 158592, Note_on_c, 0, 83, 32
16, 158592, Note_on_c, 0, 86, 32
16, 158720, Note_off_c, 0, 71, 0
16, 158720, Note_off_c, 0, 74, 0
16, 158720, Note_off_c, 0, 83, 0
16, 158720, Note_off_c, 0, 86, 0
16, 177237, Note_on_c, 0, 67, 83
16, 177237, Note_on_c, 0, 70, 83
16, 177578, Note_off_c, 0, 67, 0
16, 177578, Note_off_c, 0, 70, 0
16, 177578, Note_on_c, 0, 67, 94
16, 177578, Note_on_c, 0, 70, 94
16, 177792, Note_off_c, 0, 67, 0
16, 177792, Note_off_c, 0, 70, 0
16, 178005, Note_on_c, 0, 67, 88
16, 178005, Note_on_c, 0, 70, 88
16, 178176, Note_off_c, 0, 70, 0
16, 178176, Note_on_c, 0, 70, 90
16, 178346, Note_off_c, 0, 67, 0
16, 178346, Note_off_c, 0, 70, 0
16, 178346, Note_on_c, 0, 67, 99
16, 178346, Note_on_c, 0, 70, 99
16, 178602, Note_off_c, 0, 67, 0
16, 178602, Note_off_c, 0, 70, 0
16, 178602, Note_on_c, 0, 67, 99
16, 178602, Note_on_c, 0, 70, 99
16, 178773, Note_off_c, 0, 67, 0
16, 178773, Note_off_c, 0, 70, 0
16, 178773, Note_on_c, 0, 67, 98
16, 178773, Note_on_c, 0, 70, 98
16, 178944, Note_off_c, 0, 67, 0
16, 178944, Note_off_c, 0, 70, 0
16, 179114, Note_on_c, 0, 67, 87
16, 179114, Note_on_c, 0, 70, 87
16, 179456, Note_off_c, 0, 67, 0
16, 179456, Note_off_c, 0, 70, 0
16, 179626, Note_on_c, 0, 67, 90
16, 179626, Note_on_c, 0, 70, 90
16, 179968, Note_off_c, 0, 67, 0
16, 179968, Note_off_c, 0, 70, 0
16, 179968, Note_on_c, 0, 67, 94
16, 179968, Note_on_c, 0, 70, 94
16, 180138, Note_off_c, 0, 67, 0
16, 180138, Note_off_c, 0, 70, 0
16, 180224, Note_on_c, 0, 67, 90
16, 180224, Note_on_c, 0, 70, 90
16, 180394, Note_off_c, 0, 67, 0
16, 180394, Note_off_c, 0, 70, 0
16, 180565, Note_on_c, 0, 67, 84
16, 180565, Note_on_c, 0, 70, 84
16, 180736, Note_off_c, 0, 67, 0
16, 180736, Note_off_c, 0, 70, 0
16, 180906, Note_on_c, 0, 67, 83
16, 180906, Note_on_c, 0, 70, 83
16, 181077, Note_off_c, 0, 67, 0
16, 181077, Note_off_c, 0, 70, 0
16, 181077, Note_on_c, 0, 67, 102
16, 181077, Note_on_c, 0, 70, 102
16, 181248, Note_off_c, 0, 67, 0
16, 181248, Note_off_c, 0, 70, 0
16, 181248, Note_on_c, 0, 67, 99
16, 181248, Note_on_c, 0, 70, 99
16, 181418, Note_off_c, 0, 67, 0
16, 181418, Note_off_c, 0, 70, 0
16, 184320, Note_on_c, 0, 65, 79
16, 184320, Note_on_c, 0, 67, 79
16, 184320, Note_on_c, 0, 71, 79
16, 184320, Note_on_c, 0, 72, 79
16, 184320, Note_on_c, 0, 74, 79
16, 184490, Note_off_c, 0, 65, 0
16, 184490, Note_off_c, 0, 67, 0
16, 184490, Note_off_c, 0, 71, 0
16, 184490, Note_off_c, 0, 72, 0
16, 184490, Note_off_c, 0, 74, 0
16, 184661, Note_on_c, 0, 65, 76
16, 184661, Note_on_c, 0, 67, 76
16, 184661, Note_on_c, 0, 71, 76
16, 184661, Note_on_c, 0, 72, 76
16, 184661, Note_on_c, 0, 74, 76
16, 184832, Note_off_c, 0, 65, 0
16, 184832, Note_off_c, 0, 67, 0
16, 184832, Note_off_c, 0, 71, 0
16, 184832, Note_off_c, 0, 72, 0
16, 184832, Note_off_c, 0, 74, 0
16, 185002, Note_on_c, 0, 65, 76
16, 185002, Note_on_c, 0, 67, 76
16, 185002, Note_on_c, 0, 71, 76
16, 185002, Note_on_c, 0, 72, 76
16, 185002, Note_on_c, 0, 74, 76
16, 185173, Note_off_c, 0, 65, 0
16, 185173, Note_off_c, 0, 67, 0
16, 185173, Note_off_c, 0, 71, 0
16, 185173, Note_off_c, 0, 72, 0
16, 185173, Note_off_c, 0, 74, 0
16, 185344, Note_on_c, 0, 65, 77
16, 185344, Note_on_c, 0, 67, 77
16, 185344, Note_on_c, 0, 71, 77
16, 185344, Note_on_c, 0, 72, 77
16, 185344, Note_on_c, 0, 74, 77
16, 185514, Note_off_c, 0, 65, 0
16, 185514, Note_off_c, 0, 67, 0
16, 185514, Note_off_c, 0, 71, 0
16, 185514, Note_off_c, 0, 72, 0
16, 185514, Note_off_c, 0, 74, 0
16, 185685, Note_on_c, 0, 65, 76
16, 185685, Note_on_c, 0, 67, 76
16, 185685, Note_on_c, 0, 71, 76
16, 185685, Note_on_c, 0, 72, 76
16, 185685, Note_on_c, 0, 74, 76
16, 185856, Note_off_c, 0, 65, 0
16, 185856, Note_off_c, 0, 67, 0
16, 185856, Note_off_c, 0, 71, 0
16, 185856, Note_off_c, 0, 72, 0
16, 185856, Note_off_c, 0, 74, 0
16, 186026, Note_on_c, 0, 65, 73
16, 186026, Note_on_c, 0, 67, 73
16, 186026, Note_on_c, 0, 71, 73
16, 186026, Note_on_c, 0, 72, 73
16, 186026, Note_on_c, 0, 74, 73
16, 186197, Note_off_c, 0, 65, 0
16, 186197, Note_off_c, 0, 67, 0
16, 186197, Note_off_c, 0, 71, 0
16, 186197, Note_off_c, 0, 72, 0
16, 186197, Note_off_c, 0, 74, 0
16, 186368, Note_on_c, 0, 65, 78
16, 186368, Note_on_c, 0, 67, 78
16, 186368, Note_on_c, 0, 71, 78
16, 186368, Note_on_c, 0, 72, 78
16, 186368, Note_on_c, 0, 74, 78
16, 186538, Note_off_c, 0, 65, 0
16, 186538, Note_off_c, 0, 67, 0
16, 186538, Note_off_c, 0, 71, 0
16, 186538, Note_off_c, 0, 72, 0
16, 186538, Note_off_c, 0, 74, 0
16, 186709, Note_on_c, 0, 65, 73
16, 186709, Note_on_c, 0, 67, 73
16, 186709, Note_on_c, 0, 71, 73
16, 186709, Note_on_c, 0, 72, 73
16, 186709, Note_on_c, 0, 74, 73
16, 186880, Note_off_c, 0, 65, 0
16, 186880, Note_off_c, 0, 67, 0
16, 186880, Note_off_c, 0, 71, 0
16, 186880, Note_off_c, 0, 72, 0
16, 186880, Note_off_c, 0, 74, 0
16, 187050, Note_on_c, 0, 65, 73
16, 187050, Note_on_c, 0, 67, 73
16, 187050, Note_on_c, 0, 71, 73
16, 187050, Note_on_c, 0, 72, 73
16, 187050, Note_on_c, 0, 74, 73
16, 187221, Note_off_c, 0, 65, 0
16, 187221, Note_off_c, 0, 67, 0
16, 187221, Note_off_c, 0, 71, 0
16, 187221, Note_off_c, 0, 72, 0
16, 187221, Note_off_c, 0, 74, 0
16, 187392, Note_on_c, 0, 65, 79
16, 187392, Note_on_c, 0, 67, 79
16, 187392, Note_on_c, 0, 71, 79
16, 187392, Note_on_c, 0, 72, 79
16, 187392, Note_on_c, 0, 74, 79
16, 187562, Note_off_c, 0, 65, 0
16, 187562, Note_off_c, 0, 67, 0
16, 187562, Note_off_c, 0, 71, 0
16, 187562, Note_off_c, 0, 72, 0
16, 187562, Note_off_c, 0, 74, 0
16, 187733, Note_on_c, 0, 65, 78
16, 187733, Note_on_c, 0, 67, 78
16, 187733, Note_on_c, 0, 71, 78
16, 187733, Note_on_c, 0, 72, 78
16, 187733, Note_on_c, 0, 74, 78
16, 187904, Note_off_c, 0, 65, 0
16, 187904, Note_off_c, 0, 67, 0
16, 187904, Note_off_c, 0, 71, 0
16, 187904, Note_off_c, 0, 72, 0
16, 187904, Note_off_c, 0, 74, 0
16, 188074, Note_on_c, 0, 65, 75
16, 188074, Note_on_c, 0, 67, 75
16, 188074, Note_on_c, 0, 71, 75
16, 188074, Note_on_c, 0, 72, 75
16, 188074, Note_on_c, 0, 74, 75
16, 188245, Note_off_c, 0, 65, 0
16, 188245, Note_off_c, 0, 67, 0
16, 188245, Note_off_c, 0, 71, 0
16, 188245, Note_off_c, 0, 72, 0
16, 188245, Note_off_c, 0, 74, 0
16, 188416, Note_on_c, 0, 65, 72
16, 188416, Note_on_c, 0, 67, 72
16, 188416, Note_on_c, 0, 71, 72
16, 188416, Note_on_c, 0, 72, 72
16, 188416, Note_on_c, 0, 74, 72
16, 188586, Note_off_c, 0, 65, 0
16, 188586, Note_off_c, 0, 67, 0
16, 188586, Note_off_c, 0, 71, 0
16, 188586, Note_off_c, 0, 72, 0
16, 188586, Note_off_c, 0, 74, 0
16, 188757, Note_on_c, 0, 65, 76
16, 188757, Note_on_c, 0, 67, 76
16, 188757, Note_on_c, 0, 71, 76
16, 188757, Note_on_c, 0, 72, 76
16, 188757, Note_on_c, 0, 74, 76
16, 188928, Note_off_c, 0, 65, 0
16, 188928, Note_off_c, 0, 67, 0
16, 188928, Note_off_c, 0, 71, 0
16, 188928, Note_off_c, 0, 72, 0
16, 188928, Note_off_c, 0, 74, 0
16, 189098, Note_on_c, 0, 65, 75
16, 189098, Note_on_c, 0, 67, 75
16, 189098, Note_on_c, 0, 71, 75
16, 189098, Note_on_c, 0, 72, 75
16, 189098, Note_on_c, 0, 74, 75
16, 189269, Note_off_c, 0, 65, 0
16, 189269, Note_off_c, 0, 67, 0
16, 189269, Note_off_c, 0, 71, 0
16, 189269, Note_off_c, 0, 72, 0
16, 189269, Note_off_c, 0, 74, 0
16, 189440, Note_on_c, 0, 65, 76
16, 189440, Note_on_c, 0, 67, 76
16, 189440, Note_on_c, 0, 71, 76
16, 189440, Note_on_c, 0, 72, 76
16, 189440, Note_on_c, 0, 74, 76
16, 189610, Note_off_c, 0, 65, 0
16, 189610, Note_off_c, 0, 67, 0
16, 189610, Note_off_c, 0, 71, 0
16, 189610, Note_off_c, 0, 72, 0
16, 189610, Note_off_c, 0, 74, 0
16, 190122, Note_on_c, 0, 65, 77
16, 190122, Note_on_c, 0, 67, 77
16, 190122, Note_on_c, 0, 71, 77
16, 190122, Note_on_c, 0, 72, 77
16, 190122, Note_on_c, 0, 74, 77
16, 190293, Note_off_c, 0, 65, 0
16, 190293, Note_off_c, 0, 67, 0
16, 190293, Note_off_c, 0, 71, 0
16, 190293, Note_off_c, 0, 72, 0
16, 190293, Note_off_c, 0, 74, 0
16, 190805, Note_on_c, 0, 65, 77
16, 190805, Note_on_c, 0, 67, 77
16, 190805, Note_on_c, 0, 71, 77
16, 190805, Note_on_c, 0, 72, 77
16, 190805, Note_on_c, 0, 74, 77
16, 190976, Note_off_c, 0, 65, 0
16, 190976, Note_off_c, 0, 67, 0
16, 190976, Note_off_c, 0, 71, 0
16, 190976, Note_off_c, 0, 72, 0
16, 190976, Note_off_c, 0, 74, 0
16, 191488, Note_on_c, 0, 65, 78
16, 191488, Note_on_c, 0, 67, 78
16, 191488, Note_on_c, 0, 71, 78
16, 191488, Note_on_c, 0, 72, 78
16, 191488, Note_on_c, 0, 74, 78
16, 191658, Note_off_c, 0, 65, 0
16, 191658, Note_off_c, 0, 67, 0
16, 191658, Note_off_c, 0, 71, 0
16, 191658, Note_off_c, 0, 72, 0
16, 191658, Note_off_c, 0, 74, 0
16, 192170, Note_on_c, 0, 65, 76
16, 192170, Note_on_c, 0, 67, 76
16, 192170, Note_on_c, 0, 71, 76
16, 192170, Note_on_c, 0, 72, 76
16, 192170, Note_on_c, 0, 74, 76
16, 192341, Note_off_c, 0, 65, 0
16, 192341, Note_off_c, 0, 67, 0
16, 192341, Note_off_c, 0, 71, 0
16, 192341, Note_off_c, 0, 72, 0
16, 192341, Note_off_c, 0, 74, 0
16, 218752, Note_on_c, 0, 74, 72
16, 218752, Note_on_c, 0, 81, 72
16, 218790, Note_off_c, 0, 74, 0
16, 218790, Note_off_c, 0, 81, 0
16, 219392, Note_on_c, 0, 74, 78
16, 219392, Note_on_c, 0, 81, 78
16, 219430, Note_off_c, 0, 74, 0
16, 219430, Note_off_c, 0, 81, 0
16, 220032, Note_on_c, 0, 74, 72
16, 220032, Note_on_c, 0, 81, 72
16, 220070, Note_off_c, 0, 74, 0
16, 220070, Note_off_c, 0, 81, 0
16, 220672, Note_on_c, 0, 74, 75
16, 220672, Note_on_c, 0, 81, 75
16, 220710, Note_off_c, 0, 74, 0
16, 220710, Note_off_c, 0, 81, 0
16, 221312, Note_on_c, 0, 74, 75
16, 221312, Note_on_c, 0, 81, 75
16, 221350, Note_off_c, 0, 74, 0
16, 221350, Note_off_c, 0, 81, 0
16, 221952, Note_on_c, 0, 74, 75
16, 221952, Note_on_c, 0, 81, 75
16, 221990, Note_off_c, 0, 74, 0
16, 221990, Note_off_c, 0, 81, 0
16, 222592, Note_on_c, 0, 74, 76
16, 222592, Note_on_c, 0, 81, 76
16, 222630, Note_off_c, 0, 74, 0
16, 222630, Note_off_c, 0, 81, 0
16, 222848, Note_on_c, 0, 74, 76
16, 222848, Note_on_c, 0, 81, 76
16, 222886, Note_off_c, 0, 74, 0
16, 222886, Note_off_c, 0, 81, 0
16, 223232, Note_on_c, 0, 74, 76
16, 223232, Note_on_c, 0, 81, 76
16, 223270, Note_off_c, 0, 74, 0
16, 223270, Note_off_c, 0, 81, 0
16, 223488, Note_on_c, 0, 74, 76
16, 223488, Note_on_c, 0, 81, 76
16, 223526, Note_off_c, 0, 74, 0
16, 223526, Note_off_c, 0, 81, 0
16, 223872, Note_on_c, 0, 74, 76
16, 223872, Note_on_c, 0, 81, 76
16, 223910, Note_off_c, 0, 74, 0
16, 223910, Note_off_c, 0, 81, 0
16, 224128, Note_on_c, 0, 74, 75
16, 224128, Note_on_c, 0, 81, 75
16, 224166, Note_off_c, 0, 74, 0
16, 224166, Note_off_c, 0, 81, 0
16, 224512, Note_on_c, 0, 74, 78
16, 224512, Note_on_c, 0, 81, 78
16, 224550, Note_off_c, 0, 74, 0
16, 224550, Note_off_c, 0, 81, 0
16, 224768, Note_on_c, 0, 74, 72
16, 224768, Note_on_c, 0, 81, 72
16, 224806, Note_off_c, 0, 74, 0
16, 224806, Note_off_c, 0, 81, 0
16, 225152, Note_on_c, 0, 74, 77
16, 225152, Note_on_c, 0, 81, 77
16, 225190, Note_off_c, 0, 74, 0
16, 225190, Note_off_c, 0, 81, 0
16, 225280, Note_on_c, 0, 63, 84
16, 225280, Note_on_c, 0, 66, 84
16, 225344, Note_off_c, 0, 63, 0
16, 225344, Note_off_c, 0, 66, 0
16, 225408, Note_on_c, 0, 74, 79
16, 225408, Note_on_c, 0, 81, 79
16, 225446, Note_off_c, 0, 74, 0
16, 225446, Note_off_c, 0, 81, 0
16, 225472, Note_on_c, 0, 63, 102
16, 225472, Note_on_c, 0, 66, 102
16, 225536, Note_off_c, 0, 63, 0
16, 225536, Note_off_c, 0, 66, 0
16, 225664, Note_on_c, 0, 63, 102
16, 225664, Note_on_c, 0, 66, 102
16, 225728, Note_off_c, 0, 63, 0
16, 225728, Note_off_c, 0, 66, 0
16, 225792, Note_on_c, 0, 74, 73
16, 225792, Note_on_c, 0, 81, 73
16, 225830, Note_off_c, 0, 74, 0
16, 225830, Note_off_c, 0, 81, 0
16, 225856, Note_on_c, 0, 63, 102
16, 225856, Note_on_c, 0, 66, 102
16, 225920, Note_off_c, 0, 63, 0
16, 225920, Note_off_c, 0, 66, 0
16, 226048, Note_on_c, 0, 74, 82
16, 226048, Note_on_c, 0, 81, 82
16, 226048, Note_on_c, 0, 63, 100
16, 226048, Note_on_c, 0, 66, 100
16, 226086, Note_off_c, 0, 74, 0
16, 226086, Note_off_c, 0, 81, 0
16, 226112, Note_off_c, 0, 63, 0
16, 226112, Note_off_c, 0, 66, 0
16, 226432, Note_on_c, 0, 74, 81
16, 226432, Note_on_c, 0, 81, 81
16, 226470, Note_off_c, 0, 74, 0
16, 226470, Note_off_c, 0, 81, 0
16, 226688, Note_on_c, 0, 74, 75
16, 226688, Note_on_c, 0, 81, 75
16, 226726, Note_off_c, 0, 74, 0
16, 226726, Note_off_c, 0, 81, 0
16, 226880, Note_on_c, 0, 63, 102
16, 226880, Note_on_c, 0, 66, 102
16, 226944, Note_off_c, 0, 63, 0
16, 226944, Note_off_c, 0, 66, 0
16, 227072, Note_on_c, 0, 63, 101
16, 227072, Note_on_c, 0, 66, 101
16, 227136, Note_off_c, 0, 63, 0
16, 227136, Note_off_c, 0, 66, 0
16, 227264, Note_on_c, 0, 63, 104
16, 227264, Note_on_c, 0, 66, 104
16, 227328, Note_off_c, 0, 63, 0
16, 227328, Note_off_c, 0, 66, 0
16, 227456, Note_on_c, 0, 63, 104
16, 227456, Note_on_c, 0, 66, 104
16, 227520, Note_off_c, 0, 63, 0
16, 227520, Note_off_c, 0, 66, 0
16, 227648, Note_on_c, 0, 63, 101
16, 227648, Note_on_c, 0, 66, 101
16, 227712, Note_off_c, 0, 63, 0
16, 227712, Note_off_c, 0, 66, 0
16, 228352, Note_on_c, 0, 63, 100
16, 228352, Note_on_c, 0, 66, 100
16, 228416, Note_off_c, 0, 63, 0
16, 228416, Note_off_c, 0, 66, 0
16, 228544, Note_on_c, 0, 63, 104
16, 228544, Note_on_c, 0, 66, 104
16, 228608, Note_off_c, 0, 63, 0
16, 228608, Note_off_c, 0, 66, 0
16, 228736, Note_on_c, 0, 63, 103
16, 228736, Note_on_c, 0, 66, 103
16, 228800, Note_off_c, 0, 63, 0
16, 228800, Note_off_c, 0, 66, 0
16, 228928, Note_on_c, 0, 63, 100
16, 228928, Note_on_c, 0, 66, 100
16, 228992, Note_off_c, 0, 63, 0
16, 228992, Note_off_c, 0, 66, 0
16, 229120, Note_on_c, 0, 63, 100
16, 229120, Note_on_c, 0, 66, 100
16, 229184, Note_off_c, 0, 63, 0
16, 229184, Note_off_c, 0, 66, 0
16, 229888, Note_on_c, 0, 63, 100
16, 229888, Note_on_c, 0, 66, 100
16, 229952, Note_off_c, 0, 63, 0
16, 229952, Note_off_c, 0, 66, 0
16, 230080, Note_on_c, 0, 63, 104
16, 230080, Note_on_c, 0, 66, 104
16, 230144, Note_off_c, 0, 63, 0
16, 230144, Note_off_c, 0, 66, 0
16, 230272, Note_on_c, 0, 63, 105
16, 230272, Note_on_c, 0, 66, 105
16, 230336, Note_off_c, 0, 63, 0
16, 230336, Note_off_c, 0, 66, 0
16, 230464, Note_on_c, 0, 63, 103
16, 230464, Note_on_c, 0, 66, 103
16, 230528, Note_off_c, 0, 63, 0
16, 230528, Note_off_c, 0, 66, 0
16, 230656, Note_on_c, 0, 63, 101
16, 230656, Note_on_c, 0, 66, 101
16, 230720, Note_off_c, 0, 63, 0
16, 230720, Note_off_c, 0, 66, 0
16, 230848, Note_on_c, 0, 63, 101
16, 230848, Note_on_c, 0, 66, 101
16, 230912, Note_off_c, 0, 63, 0
16, 230912, Note_off_c, 0, 66, 0
16, 231040, Note_on_c, 0, 63, 105
16, 231040, Note_on_c, 0, 66, 105
16, 231104, Note_off_c, 0, 63, 0
16, 231104, Note_off_c, 0, 66, 0
16, 231232, Note_on_c, 0, 63, 103
16, 231232, Note_on_c, 0, 66, 103
16, 231296, Note_off_c, 0, 63, 0
16, 231296, Note_off_c, 0, 66, 0
16, 231424, Note_on_c, 0, 63, 100
16, 231424, Note_on_c, 0, 66, 100
16, 231488, Note_off_c, 0, 63, 0
16, 231488, Note_off_c, 0, 66, 0
16, 231616, Note_on_c, 0, 63, 100
16, 231616, Note_on_c, 0, 66, 100
16, 231680, Note_off_c, 0, 63, 0
16, 231680, Note_off_c, 0, 66, 0
16, 231808, Note_on_c, 0, 63, 101
16, 231808, Note_on_c, 0, 66, 101
16, 231872, Note_off_c, 0, 63, 0
16, 231872, Note_off_c, 0, 66, 0
16, 234752, Note_on_c, 0, 65, 123
16, 234752, Note_on_c, 0, 70, 123
16, 234880, Note_off_c, 0, 65, 0
16, 234880, Note_off_c, 0, 70, 0
16, 235136, Note_on_c, 0, 65, 116
16, 235136, Note_on_c, 0, 70, 116
16, 235264, Note_off_c, 0, 65, 0
16, 235264, Note_off_c, 0, 70, 0
16, 235520, Note_on_c, 0, 65, 117
16, 235520, Note_on_c, 0, 70, 117
16, 235648, Note_off_c, 0, 65, 0
16, 235648, Note_off_c, 0, 70, 0
16, 235904, Note_on_c, 0, 65, 115
16, 235904, Note_on_c, 0, 70, 115
16, 236032, Note_off_c, 0, 65, 0
16, 236032, Note_off_c, 0, 70, 0
16, 236288, Note_on_c, 0, 65, 119
16, 236288, Note_on_c, 0, 70, 119
16, 236416, Note_off_c, 0, 65, 0
16, 236416, Note_off_c, 0, 70, 0
16, 236672, Note_on_c, 0, 65, 119
16, 236672, Note_on_c, 0, 70, 119
16, 236800, Note_off_c, 0, 65, 0
16, 236800, Note_off_c, 0, 70, 0
16, 237056, Note_on_c, 0, 65, 120
16, 237056, Note_on_c, 0, 70, 120
16, 237184, Note_off_c, 0, 65, 0
16, 237184, Note_off_c, 0, 70, 0
16, 237440, Note_on_c, 0, 65, 119
16, 237440, Note_on_c, 0, 70, 119
16, 237568, Note_off_c, 0, 65, 0
16, 237568, Note_off_c, 0, 70, 0
16, 237824, Note_on_c, 0, 65, 119
16, 237824, Note_on_c, 0, 70, 119
16, 237952, Note_off_c, 0, 65, 0
16, 237952, Note_off_c, 0, 70, 0
16, 291328, Note_on_c, 0, 65, 33
16, 291456, Note_off_c, 0, 65, 0
16, 291456, Note_on_c, 0, 69, 39
16, 291584, Note_off_c, 0, 69, 0
16, 291584, Note_on_c, 0, 74, 45
16, 291712, Note_off_c, 0, 74, 0
16, 291712, Note_on_c, 0, 76, 45
16, 291840, Note_off_c, 0, 76, 0
16, 292224, Note_on_c, 0, 64, 36
16, 292352, Note_off_c, 0, 64, 0
16, 292352, Note_on_c, 0, 69, 44
16, 292480, Note_off_c, 0, 69, 0
16, 292480, Note_on_c, 0, 74, 45
16, 292608, Note_off_c, 0, 74, 0
16, 292608, Note_on_c, 0, 65, 32
16, 292736, Note_off_c, 0, 65, 0
16, 293376, Note_on_c, 0, 64, 35
16, 293504, Note_off_c, 0, 64, 0
16, 293504, Note_on_c, 0, 65, 40
16, 293632, Note_off_c, 0, 65, 0
16, 293632, Note_on_c, 0, 69, 46
16, 293760, Note_off_c, 0, 69, 0
16, 293760, Note_on_c, 0, 74, 44
16, 293888, Note_off_c, 0, 74, 0
16, 294272, Note_on_c, 0, 68, 37
16, 294400, Note_off_c, 0, 68, 0
16, 294528, Note_on_c, 0, 68, 37
16, 294656, Note_off_c, 0, 68, 0
16, 294656, Note_on_c, 0, 74, 47
16, 294784, Note_off_c, 0, 74, 0
16, 294784, Note_on_c, 0, 59, 37
16, 294912, Note_off_c, 0, 59, 0
16, 295552, Note_on_c, 0, 74, 35
16, 295680, Note_off_c, 0, 74, 0
16, 295680, Note_on_c, 0, 68, 35
16, 295808, Note_off_c, 0, 68, 0
16, 296576, Note_on_c, 0, 74, 42
16, 296704, Note_off_c, 0, 74, 0
16, 296704, Note_on_c, 0, 65, 32
16, 296832, Note_off_c, 0, 65, 0
16, 296832, Note_on_c, 0, 64, 38
16, 296960, Note_off_c, 0, 64, 0
16, 297216, Note_on_c, 0, 59, 35
16, 297344, Note_off_c, 0, 59, 0
16, 297344, Note_on_c, 0, 60, 43
16, 297472, Note_off_c, 0, 60, 0
16, 297856, Note_on_c, 0, 69, 37
16, 297984, Note_off_c, 0, 69, 0
16, 297984, Note_on_c, 0, 74, 44
16, 298112, Note_off_c, 0, 74, 0
16, 298112, Note_on_c, 0, 73, 41
16, 298240, Note_off_c, 0, 73, 0
16, 298240, Note_on_c, 0, 76, 42
16, 298368, Note_off_c, 0, 76, 0
16, 299264, Note_on_c, 0, 66, 34
16, 299392, Note_off_c, 0, 66, 0
16, 299392, Note_on_c, 0, 69, 43
16, 299520, Note_off_c, 0, 69, 0
16, 299520, Note_on_c, 0, 70, 45
16, 299648, Note_off_c, 0, 70, 0
16, 299648, Note_on_c, 0, 74, 47
16, 299776, Note_off_c, 0, 74, 0
16, 300416, Note_on_c, 0, 64, 32
16, 300544, Note_off_c, 0, 64, 0
16, 300544, Note_on_c, 0, 66, 45
16, 300672, Note_off_c, 0, 66, 0
16, 300672, Note_on_c, 0, 69, 45
16, 300800, Note_off_c, 0, 69, 0
16, 300800, Note_on_c, 0, 70, 42
16, 300928, Note_off_c, 0, 70, 0
16, 301440, Note_on_c, 0, 66, 35
16, 301568, Note_off_c, 0, 66, 0
16, 301568, Note_on_c, 0, 72, 44
16, 301696, Note_off_c, 0, 72, 0
16, 301952, Note_on_c, 0, 66, 36
16, 302080, Note_off_c, 0, 66, 0
16, 302080, Note_on_c, 0, 70, 43
16, 302208, Note_off_c, 0, 70, 0
16, 302208, Note_on_c, 0, 74, 41
16, 302336, Note_off_c, 0, 74, 0
16, 302336, Note_on_c, 0, 72, 35
16, 302464, Note_off_c, 0, 72, 0
16, 303232, Note_on_c, 0, 66, 33
16, 303360, Note_off_c, 0, 66, 0
16, 303360, Note_on_c, 0, 74, 46
16, 303488, Note_off_c, 0, 74, 0
16, 303488, Note_on_c, 0, 66, 28
16, 303616, Note_off_c, 0, 66, 0
16, 304000, Note_on_c, 0, 74, 34
16, 304128, Note_off_c, 0, 74, 0
16, 304384, Note_on_c, 0, 70, 30
16, 304512, Note_off_c, 0, 70, 0
16, 304512, Note_on_c, 0, 72, 40
16, 304640, Note_off_c, 0, 72, 0
16, 304640, Note_on_c, 0, 74, 40
16, 304768, Note_off_c, 0, 74, 0
16, 305536, Note_on_c, 0, 74, 35
16, 305664, Note_off_c, 0, 74, 0
16, 305664, Note_on_c, 0, 70, 44
16, 305792, Note_off_c, 0, 70, 0
16, 305792, Note_on_c, 0, 72, 41
16, 305920, Note_off_c, 0, 72, 0
16, 305920, Note_on_c, 0, 74, 42
16, 306048, Note_off_c, 0, 74, 0
16, 306304, Note_on_c, 0, 72, 29
16, 306432, Note_off_c, 0, 72, 0
16, 306432, Note_on_c, 0, 74, 33
16, 306560, Note_off_c, 0, 74, 0
16, 306816, Note_on_c, 0, 70, 26
16, 306944, Note_off_c, 0, 70, 0
16, 307072, Note_on_c, 0, 74, 21
16, 307200, Note_off_c, 0, 74, 0
16, 307200, Note_on_c, 0, 66, 19
16, 307328, Note_off_c, 0, 66, 0
16, 307584, Note_on_c, 0, 72, 16
16, 307712, Note_off_c, 0, 72, 0
16, 332288, Note_on_c, 0, 63, 63
16, 333440, Note_off_c, 0, 63, 0
16, 334720, Note_on_c, 0, 63, 64
16, 335616, Note_off_c, 0, 63, 0
16, 335616, Note_on_c, 0, 64, 70
16, 336384, Note_off_c, 0, 64, 0
16, 336384, Note_on_c, 0, 63, 72
16, 337664, Note_off_c, 0, 63, 0
16, 337664, Note_on_c, 0, 64, 75
16, 338944, Note_off_c, 0, 64, 0
16, 339200, Note_on_c, 0, 66, 68
16, 340480, Note_off_c, 0, 66, 0
16, 340608, Note_on_c, 0, 63, 67
16, 340736, Note_on_c, 0, 64, 70
16, 341760, Note_off_c, 0, 63, 0
16, 341760, Note_off_c, 0, 64, 0
16, 342528, Note_on_c, 0, 62, 64
16, 342656, Note_on_c, 0, 63, 66
16, 343552, Note_off_c, 0, 62, 0
16, 343552, Note_off_c, 0, 63, 0
16, 343936, Note_on_c, 0, 63, 67
16, 343936, Note_on_c, 0, 64, 67
16, 344832, Note_off_c, 0, 63, 0
16, 344832, Note_off_c, 0, 64, 0
16, 345856, Note_on_c, 0, 60, 58
16, 345856, Note_on_c, 0, 65, 58
16, 346880, Note_off_c, 0, 60, 0
16, 346880, Note_off_c, 0, 65, 0
16, 347221, Note_on_c, 0, 63, 64
16, 347562, Note_on_c, 0, 65, 65
16, 347733, Note_off_c, 0, 63, 0
16, 348160, Note_off_c, 0, 65, 0
16, 348245, Note_on_c, 0, 66, 65
16, 349184, Note_off_c, 0, 66, 0
16, 350720, Note_on_c, 0, 67, 62
16, 352256, Note_off_c, 0, 67, 0
16, 368896, Note_on_c, 0, 62, 64
16, 369280, Note_on_c, 0, 64, 68
16, 369664, Note_on_c, 0, 65, 66
16, 369792, Note_off_c, 0, 62, 0
16, 370304, Note_on_c, 0, 67, 76
16, 370816, Note_off_c, 0, 64, 0
16, 370816, Note_on_c, 0, 68, 80
16, 371072, Note_on_c, 0, 62, 82
16, 371456, Note_off_c, 0, 65, 0
16, 371456, Note_on_c, 0, 61, 84
16, 371840, Note_off_c, 0, 67, 0
16, 371840, Note_on_c, 0, 63, 74
16, 372352, Note_off_c, 0, 68, 0
16, 372352, Note_off_c, 0, 62, 0
16, 372352, Note_on_c, 0, 68, 79
16, 372864, Note_off_c, 0, 61, 0
16, 372864, Note_on_c, 0, 69, 82
16, 373248, Note_off_c, 0, 63, 0
16, 373248, Note_on_c, 0, 63, 75
16, 373888, Note_off_c, 0, 68, 0
16, 373888, Note_on_c, 0, 64, 78
16, 374272, Note_off_c, 0, 69, 0
16, 374272, Note_off_c, 0, 63, 0
16, 374272, Note_off_c, 0, 64, 0
16, 374784, Note_on_c, 0, 61, 68
16, 374784, Note_on_c, 0, 69, 68
16, 374784, Note_on_c, 0, 76, 68
16, 374784, Note_on_c, 0, 81, 68
16, 374848, Note_off_c, 0, 61, 0
16, 374848, Note_off_c, 0, 69, 0
16, 374848, Note_off_c, 0, 76, 0
16, 374848, Note_off_c, 0, 81, 0
16, 374976, Note_on_c, 0, 61, 69
16, 374976, Note_on_c, 0, 69, 69
16, 374976, Note_on_c, 0, 76, 69
16, 374976, Note_on_c, 0, 81, 69
16, 375040, Note_off_c, 0, 61, 0
16, 375040, Note_off_c, 0, 69, 0
16, 375040, Note_off_c, 0, 76, 0
16, 375040, Note_off_c, 0, 81, 0
16, 375168, Note_on_c, 0, 61, 61
16, 375168, Note_on_c, 0, 69, 61
16, 375168, Note_on_c, 0, 76, 61
16, 375168, Note_on_c, 0, 81, 61
16, 375232, Note_off_c, 0, 61, 0
16, 375232, Note_off_c, 0, 69, 0
16, 375232, Note_off_c, 0, 76, 0
16, 375232, Note_off_c, 0, 81, 0
16, 375296, Note_on_c, 0, 61, 65
16, 375296, Note_on_c, 0, 69, 65
16, 375296, Note_on_c, 0, 76, 65
16, 375296, Note_on_c, 0, 81, 65
16, 375360, Note_off_c, 0, 61, 0
16, 375360, Note_off_c, 0, 69, 0
16, 375360, Note_off_c, 0, 76, 0
16, 375360, Note_off_c, 0, 81, 0
16, 376064, Note_on_c, 0, 61, 66
16, 376064, Note_on_c, 0, 69, 66
16, 376064, Note_on_c, 0, 76, 66
16, 376064, Note_on_c, 0, 81, 66
16, 376128, Note_off_c, 0, 61, 0
16, 376128, Note_off_c, 0, 69, 0
16, 376128, Note_off_c, 0, 76, 0
16, 376128, Note_off_c, 0, 81, 0
16, 376256, Note_on_c, 0, 61, 62
16, 376256, Note_on_c, 0, 69, 62
16, 376256, Note_on_c, 0, 76, 62
16, 376256, Note_on_c, 0, 81, 62
16, 376320, Note_off_c, 0, 61, 0
16, 376320, Note_off_c, 0, 69, 0
16, 376320, Note_off_c, 0, 76, 0
16, 376320, Note_off_c, 0, 81, 0
16, 376448, Note_on_c, 0, 61, 63
16, 376448, Note_on_c, 0, 69, 63
16, 376448, Note_on_c, 0, 76, 63
16, 376448, Note_on_c, 0, 81, 63
16, 376512, Note_off_c, 0, 61, 0
16, 376512, Note_off_c, 0, 69, 0
16, 376512, Note_off_c, 0, 76, 0
16, 376512, Note_off_c, 0, 81, 0
16, 376576, Note_on_c, 0, 61, 63
16, 376576, Note_on_c, 0, 69, 63
16, 376576, Note_on_c, 0, 76, 63
16, 376576, Note_on_c, 0, 81, 63
16, 376640, Note_off_c, 0, 61, 0
16, 376640, Note_off_c, 0, 69, 0
16, 376640, Note_off_c, 0, 76, 0
16, 376640, Note_off_c, 0, 81, 0
16, 377344, Note_on_c, 0, 61, 66
16, 377344, Note_on_c, 0, 69, 66
16, 377344, Note_on_c, 0, 76, 66
16, 377344, Note_on_c, 0, 81, 66
16, 377408, Note_off_c, 0, 61, 0
16, 377408, Note_off_c, 0, 69, 0
16, 377408, Note_off_c, 0, 76, 0
16, 377408, Note_off_c, 0, 81, 0
16, 377536, Note_on_c, 0, 61, 65
16, 377536, Note_on_c, 0, 69, 65
16, 377536, Note_on_c, 0, 76, 65
16, 377536, Note_on_c, 0, 81, 65
16, 377600, Note_off_c, 0, 61, 0
16, 377600, Note_off_c, 0, 69, 0
16, 377600, Note_off_c, 0, 76, 0
16, 377600, Note_off_c, 0, 81, 0
16, 377728, Note_on_c, 0, 61, 66
16, 377728, Note_on_c, 0, 69, 66
16, 377728, Note_on_c, 0, 76, 66
16, 377728, Note_on_c, 0, 81, 66
16, 377792, Note_off_c, 0, 61, 0
16, 377792, Note_off_c, 0, 69, 0
16, 377792, Note_off_c, 0, 76, 0
16, 377792, Note_off_c, 0, 81, 0
16, 377856, Note_on_c, 0, 61, 66
16, 377856, Note_on_c, 0, 69, 66
16, 377856, Note_on_c, 0, 76, 66
16, 377856, Note_on_c, 0, 81, 66
16, 377920, Note_off_c, 0, 61, 0
16, 377920, Note_off_c, 0, 69, 0
16, 377920, Note_off_c, 0, 76, 0
16, 377920, Note_off_c, 0, 81, 0
16, 378624, Note_on_c, 0, 61, 68
16, 378624, Note_on_c, 0, 69, 68
16, 378624, Note_on_c, 0, 76, 68
16, 378624, Note_on_c, 0, 81, 68
16, 378688, Note_off_c, 0, 61, 0
16, 378688, Note_off_c, 0, 69, 0
16, 378688, Note_off_c, 0, 76, 0
16, 378688, Note_off_c, 0, 81, 0
16, 378816, Note_on_c, 0, 61, 65
16, 378816, Note_on_c, 0, 69, 65
16, 378816, Note_on_c, 0, 76, 65
16, 378816, Note_on_c, 0, 81, 65
16, 378880, Note_off_c, 0, 61, 0
16, 378880, Note_off_c, 0, 69, 0
16, 378880, Note_off_c, 0, 76, 0
16, 378880, Note_off_c, 0, 81, 0
16, 379008, Note_on_c, 0, 61, 67
16, 379008, Note_on_c, 0, 69, 67
16, 379008, Note_on_c, 0, 76, 67
16, 379008, Note_on_c, 0, 81, 67
16, 379072, Note_off_c, 0, 61, 0
16, 379072, Note_off_c, 0, 69, 0
16, 379072, Note_off_c, 0, 76, 0
16, 379072, Note_off_c, 0, 81, 0
16, 379136, Note_on_c, 0, 61, 65
16, 379136, Note_on_c, 0, 69, 65
16, 379136, Note_on_c, 0, 76, 65
16, 379136, Note_on_c, 0, 81, 65
16, 379200, Note_off_c, 0, 61, 0
16, 379200, Note_off_c, 0, 69, 0
16, 379200, Note_off_c, 0, 76, 0
16, 379200, Note_off_c, 0, 81, 0
16, 379392, Note_on_c, 0, 61, 64
16, 379392, Note_on_c, 0, 69, 64
16, 379392, Note_on_c, 0, 76, 64
16, 379392, Note_on_c, 0, 81, 64
16, 379456, Note_off_c, 0, 61, 0
16, 379456, Note_off_c, 0, 69, 0
16, 379456, Note_off_c, 0, 76, 0
16, 379456, Note_off_c, 0, 81, 0
16, 379584, Note_on_c, 0, 61, 65
16, 379584, Note_on_c, 0, 69, 65
16, 379584, Note_on_c, 0, 76, 65
16, 379584, Note_on_c, 0, 81, 65
16, 379648, Note_off_c, 0, 61, 0
16, 379648, Note_off_c, 0, 69, 0
16, 379648, Note_off_c, 0, 76, 0
16, 379648, Note_off_c, 0, 81, 0
16, 379776, Note_on_c, 0, 61, 59
16, 379776, Note_on_c, 0, 69, 59
16, 379776, Note_on_c, 0, 76, 59
16, 379776, Note_on_c, 0, 81, 59
16, 379840, Note_off_c, 0, 61, 0
16, 379840, Note_off_c, 0, 69, 0
16, 379840, Note_off_c, 0, 76, 0
16, 379840, Note_off_c, 0, 81, 0
16, 379904, Note_on_c, 0, 61, 64
16, 379904, Note_on_c, 0, 69, 64
16, 379904, Note_on_c, 0, 76, 64
16, 379904, Note_on_c, 0, 81, 64
16, 379968, Note_off_c, 0, 61, 0
16, 379968, Note_off_c, 0, 69, 0
16, 379968, Note_off_c, 0, 76, 0
16, 379968, Note_off_c, 0, 81, 0
16, 380416, Note_on_c, 0, 61, 66
16, 380416, Note_on_c, 0, 69, 66
16, 380416, Note_on_c, 0, 76, 66
16, 380416, Note_on_c, 0, 81, 66
16, 380480, Note_off_c, 0, 61, 0
16, 380480, Note_off_c, 0, 69, 0
16, 380480, Note_off_c, 0, 76, 0
16, 380480, Note_off_c, 0, 81, 0
16, 380608, Note_on_c, 0, 61, 62
16, 380608, Note_on_c, 0, 69, 62
16, 380608, Note_on_c, 0, 76, 62
16, 380608, Note_on_c, 0, 81, 62
16, 380672, Note_off_c, 0, 61, 0
16, 380672, Note_off_c, 0, 69, 0
16, 380672, Note_off_c, 0, 76, 0
16, 380672, Note_off_c, 0, 81, 0
16, 380800, Note_on_c, 0, 61, 66
16, 380800, Note_on_c, 0, 69, 66
16, 380800, Note_on_c, 0, 76, 66
16, 380800, Note_on_c, 0, 81, 66
16, 380864, Note_off_c, 0, 61, 0
16, 380864, Note_off_c, 0, 69, 0
16, 380864, Note_off_c, 0, 76, 0
16, 380864, Note_off_c, 0, 81, 0
16, 380928, Note_on_c, 0, 61, 64
16, 380928, Note_on_c, 0, 69, 64
16, 380928, Note_on_c, 0, 76, 64
16, 380928, Note_on_c, 0, 81, 64
16, 380992, Note_off_c, 0, 61, 0
16, 380992, Note_off_c, 0, 69, 0
16, 380992, Note_off_c, 0, 76, 0
16, 380992, Note_off_c, 0, 81, 0
16, 381184, Note_on_c, 0, 61, 59
16, 381184, Note_on_c, 0, 69, 59
16, 381184, Note_on_c, 0, 76, 59
16, 381184, Note_on_c, 0, 81, 59
16, 381248, Note_off_c, 0, 61, 0
16, 381248, Note_off_c, 0, 69, 0
16, 381248, Note_off_c, 0, 76, 0
16, 381248, Note_off_c, 0, 81, 0
16, 381376, Note_on_c, 0, 61, 62
16, 381376, Note_on_c, 0, 69, 62
16, 381376, Note_on_c, 0, 76, 62
16, 381376, Note_on_c, 0, 81, 62
16, 381440, Note_off_c, 0, 61, 0
16, 381440, Note_off_c, 0, 69, 0
16, 381440, Note_off_c, 0, 76, 0
16, 381440, Note_off_c, 0, 81, 0
16, 381568, Note_on_c, 0, 61, 64
16, 381568, Note_on_c, 0, 69, 64
16, 381568, Note_on_c, 0, 76, 64
16, 381568, Note_on_c, 0, 81, 64
16, 381632, Note_off_c, 0, 61, 0
16, 381632, Note_off_c, 0, 69, 0
16, 381632, Note_off_c, 0, 76, 0
16, 381632, Note_off_c, 0, 81, 0
16, 381696, Note_on_c, 0, 61, 69
16, 381696, Note_on_c, 0, 69, 69
16, 381696, Note_on_c, 0, 76, 69
16, 381696, Note_on_c, 0, 81, 69
16, 381760, Note_off_c, 0, 61, 0
16, 381760, Note_off_c, 0, 69, 0
16, 381760, Note_off_c, 0, 76, 0
16, 381760, Note_off_c, 0, 81, 0
16, 381952, Note_on_c, 0, 61, 61
16, 381952, Note_on_c, 0, 69, 61
16, 381952, Note_on_c, 0, 76, 61
16, 381952, Note_on_c, 0, 81, 61
16, 382016, Note_off_c, 0, 61, 0
16, 382016, Note_off_c, 0, 69, 0
16, 382016, Note_off_c, 0, 76, 0
16, 382016, Note_off_c, 0, 81, 0
16, 382144, Note_on_c, 0, 61, 64
16, 382144, Note_on_c, 0, 69, 64
16, 382144, Note_on_c, 0, 76, 64
16, 382144, Note_on_c, 0, 81, 64
16, 382208, Note_off_c, 0, 61, 0
16, 382208, Note_off_c, 0, 69, 0
16, 382208, Note_off_c, 0, 76, 0
16, 382208, Note_off_c, 0, 81, 0
16, 382336, Note_on_c, 0, 61, 67
16, 382336, Note_on_c, 0, 69, 67
16, 382336, Note_on_c, 0, 76, 67
16, 382336, Note_on_c, 0, 81, 67
16, 382464, Note_off_c, 0, 61, 0
16, 382464, Note_off_c, 0, 69, 0
16, 382464, Note_off_c, 0, 76, 0
16, 382464, Note_off_c, 0, 81, 0
16, 402560, Note_on_c, 0, 73, 72
16, 402560, Note_on_c, 0, 79, 72
16, 402560, Note_on_c, 0, 81, 72
16, 402560, Note_on_c, 0, 84, 72
16, 402560, Note_on_c, 0, 87, 72
16, 402560, Note_on_c, 0, 93, 72
16, 402688, Note_off_c, 0, 73, 0
16, 402688, Note_off_c, 0, 79, 0
16, 402688, Note_off_c, 0, 81, 0
16, 402688, Note_off_c, 0, 84, 0
16, 402688, Note_off_c, 0, 87, 0
16, 402688, Note_off_c, 0, 93, 0
16, 403328, Note_on_c, 0, 73, 77
16, 403328, Note_on_c, 0, 79, 77
16, 403328, Note_on_c, 0, 81, 77
16, 403328, Note_on_c, 0, 84, 77
16, 403328, Note_on_c, 0, 87, 77
16, 403328, Note_on_c, 0, 93, 77
16, 403456, Note_off_c, 0, 73, 0
16, 403456, Note_off_c, 0, 79, 0
16, 403456, Note_off_c, 0, 81, 0
16, 403456, Note_off_c, 0, 84, 0
16, 403456, Note_off_c, 0, 87, 0
16, 403456, Note_off_c, 0, 93, 0
16, 404096, Note_on_c, 0, 73, 79
16, 404096, Note_on_c, 0, 79, 79
16, 404096, Note_on_c, 0, 81, 79
16, 404096, Note_on_c, 0, 84, 79
16, 404096, Note_on_c, 0, 87, 79
16, 404096, Note_on_c, 0, 93, 79
16, 404224, Note_off_c, 0, 73, 0
16, 404224, Note_off_c, 0, 79, 0
16, 404224, Note_off_c, 0, 81, 0
16, 404224, Note_off_c, 0, 84, 0
16, 404224, Note_off_c, 0, 87, 0
16, 404224, Note_off_c, 0, 93, 0
16, 404864, Note_on_c, 0, 73, 72
16, 404864, Note_on_c, 0, 79, 72
16, 404864, Note_on_c, 0, 81, 72
16, 404864, Note_on_c, 0, 84, 72
16, 404864, Note_on_c, 0, 87, 72
16, 404864, Note_on_c, 0, 93, 72
16, 404992, Note_off_c, 0, 73, 0
16, 404992, Note_off_c, 0, 79, 0
16, 404992, Note_off_c, 0, 81, 0
16, 404992, Note_off_c, 0, 84, 0
16, 404992, Note_off_c, 0, 87, 0
16, 404992, Note_off_c, 0, 93, 0
16, 405632, Note_on_c, 0, 73, 73
16, 405632, Note_on_c, 0, 79, 73
16, 405632, Note_on_c, 0, 81, 73
16, 405632, Note_on_c, 0, 84, 73
16, 405632, Note_on_c, 0, 87, 73
16, 405632, Note_on_c, 0, 93, 73
16, 405760, Note_off_c, 0, 73, 0
16, 405760, Note_off_c, 0, 79, 0
16, 405760, Note_off_c, 0, 81, 0
16, 405760, Note_off_c, 0, 84, 0
16, 405760, Note_off_c, 0, 87, 0
16, 405760, Note_off_c, 0, 93, 0
16, 406400, Note_on_c, 0, 73, 77
16, 406400, Note_on_c, 0, 79, 77
16, 406400, Note_on_c, 0, 81, 77
16, 406400, Note_on_c, 0, 84, 77
16, 406400, Note_on_c, 0, 87, 77
16, 406400, Note_on_c, 0, 93, 77
16, 406528, Note_off_c, 0, 73, 0
16, 406528, Note_off_c, 0, 79, 0
16, 406528, Note_off_c, 0, 81, 0
16, 406528, Note_off_c, 0, 84, 0
16, 406528, Note_off_c, 0, 87, 0
16, 406528, Note_off_c, 0, 93, 0
16, 407168, Note_on_c, 0, 73, 78
16, 407168, Note_on_c, 0, 79, 78
16, 407168, Note_on_c, 0, 81, 78
16, 407168, Note_on_c, 0, 84, 78
16, 407168, Note_on_c, 0, 87, 78
16, 407168, Note_on_c, 0, 93, 78
16, 407296, Note_off_c, 0, 73, 0
16, 407296, Note_off_c, 0, 79, 0
16, 407296, Note_off_c, 0, 81, 0
16, 407296, Note_off_c, 0, 84, 0
16, 407296, Note_off_c, 0, 87, 0
16, 407296, Note_off_c, 0, 93, 0
16, 407936, Note_on_c, 0, 73, 74
16, 407936, Note_on_c, 0, 79, 74
16, 407936, Note_on_c, 0, 81, 74
16, 407936, Note_on_c, 0, 84, 74
16, 407936, Note_on_c, 0, 87, 74
16, 407936, Note_on_c, 0, 93, 74
16, 408064, Note_off_c, 0, 73, 0
16, 408064, Note_off_c, 0, 79, 0
16, 408064, Note_off_c, 0, 81, 0
16, 408064, Note_off_c, 0, 84, 0
16, 408064, Note_off_c, 0, 87, 0
16, 408064, Note_off_c, 0, 93, 0
16, 408704, Note_on_c, 0, 73, 74
16, 408704, Note_on_c, 0, 79, 74
16, 408704, Note_on_c, 0, 81, 74
16, 408704, Note_on_c, 0, 84, 74
16, 408704, Note_on_c, 0, 87, 74
16, 408704, Note_on_c, 0, 93, 74
16, 408832, Note_off_c, 0, 73, 0
16, 408832, Note_off_c, 0, 79, 0
16, 408832, Note_off_c, 0, 81, 0
16, 408832, Note_off_c, 0, 84, 0
16, 408832, Note_off_c, 0, 87, 0
16, 408832, Note_off_c, 0, 93, 0
16, 409472, Note_on_c, 0, 73, 73
16, 409472, Note_on_c, 0, 79, 73
16, 409472, Note_on_c, 0, 81, 73
16, 409472, Note_on_c, 0, 84, 73
16, 409472, Note_on_c, 0, 87, 73
16, 409472, Note_on_c, 0, 93, 73
16, 409600, Note_off_c, 0, 73, 0
16, 409600, Note_off_c, 0, 79, 0
16, 409600, Note_off_c, 0, 81, 0
16, 409600, Note_off_c, 0, 84, 0
16, 409600, Note_off_c, 0, 87, 0
16, 409600, Note_off_c, 0, 93, 0
16, 410240, Note_on_c, 0, 73, 75
16, 410240, Note_on_c, 0, 79, 75
16, 410240, Note_on_c, 0, 81, 75
16, 410240, Note_on_c, 0, 84, 75
16, 410240, Note_on_c, 0, 87, 75
16, 410240, Note_on_c, 0, 93, 75
16, 410368, Note_off_c, 0, 73, 0
16, 410368, Note_off_c, 0, 79, 0
16, 410368, Note_off_c, 0, 81, 0
16, 410368, Note_off_c, 0, 84, 0
16, 410368, Note_off_c, 0, 87, 0
16, 410368, Note_off_c, 0, 93, 0
16, 411008, Note_on_c, 0, 73, 87
16, 411008, Note_on_c, 0, 79, 87
16, 411008, Note_on_c, 0, 81, 87
16, 411008, Note_on_c, 0, 84, 87
16, 411008, Note_on_c, 0, 87, 87
16, 411008, Note_on_c, 0, 93, 87
16, 411136, Note_off_c, 0, 73, 0
16, 411136, Note_off_c, 0, 79, 0
16, 411136, Note_off_c, 0, 81, 0
16, 411136, Note_off_c, 0, 84, 0
16, 411136, Note_off_c, 0, 87, 0
16, 411136, Note_off_c, 0, 93, 0
16, 411776, Note_on_c, 0, 73, 80
16, 411776, Note_on_c, 0, 79, 80
16, 411776, Note_on_c, 0, 81, 80
16, 411776, Note_on_c, 0, 84, 80
16, 411776, Note_on_c, 0, 87, 80
16, 411776, Note_on_c, 0, 93, 80
16, 411904, Note_off_c, 0, 73, 0
16, 411904, Note_off_c, 0, 79, 0
16, 411904, Note_off_c, 0, 81, 0
16, 411904, Note_off_c, 0, 84, 0
16, 411904, Note_off_c, 0, 87, 0
16, 411904, Note_off_c, 0, 93, 0
16, 412544, Note_on_c, 0, 73, 89
16, 412544, Note_on_c, 0, 79, 89
16, 412544, Note_on_c, 0, 81, 89
16, 412544, Note_on_c, 0, 84, 89
16, 412544, Note_on_c, 0, 87, 89
16, 412544, Note_on_c, 0, 93, 89
16, 412672, Note_off_c, 0, 73, 0
16, 412672, Note_off_c, 0, 79, 0
16, 412672, Note_off_c, 0, 81, 0
16, 412672, Note_off_c, 0, 84, 0
16, 412672, Note_off_c, 0, 87, 0
16, 412672, Note_off_c, 0, 93, 0
16, 413312, Note_on_c, 0, 73, 87
16, 413312, Note_on_c, 0, 79, 87
16, 413312, Note_on_c, 0, 81, 87
16, 413312, Note_on_c, 0, 84, 87
16, 413312, Note_on_c, 0, 87, 87
16, 413312, Note_on_c, 0, 93, 87
16, 413440, Note_off_c, 0, 73, 0
16, 413440, Note_off_c, 0, 79, 0
16, 413440, Note_off_c, 0, 81, 0
16, 413440, Note_off_c, 0, 84, 0
16, 413440, Note_off_c, 0, 87, 0
16, 413440, Note_off_c, 0, 93, 0
16, 414080, Note_on_c, 0, 73, 87
16, 414080, Note_on_c, 0, 79, 87
16, 414080, Note_on_c, 0, 81, 87
16, 414080, Note_on_c, 0, 84, 87
16, 414080, Note_on_c, 0, 87, 87
16, 414080, Note_on_c, 0, 93, 87
16, 414208, Note_off_c, 0, 73, 0
16, 414208, Note_off_c, 0, 79, 0
16, 414208, Note_off_c, 0, 81, 0
16, 414208, Note_off_c, 0, 84, 0
16, 414208, Note_off_c, 0, 87, 0
16, 414208, Note_off_c, 0, 93, 0
16, 414848, Note_on_c, 0, 73, 83
16, 414848, Note_on_c, 0, 79, 83
16, 414848, Note_on_c, 0, 81, 83
16, 414848, Note_on_c, 0, 84, 83
16, 414848, Note_on_c, 0, 87, 83
16, 414848, Note_on_c, 0, 93, 83
16, 414976, Note_off_c, 0, 73, 0
16, 414976, Note_off_c, 0, 79, 0
16, 414976, Note_off_c, 0, 81, 0
16, 414976, Note_off_c, 0, 84, 0
16, 414976, Note_off_c, 0, 87, 0
16, 414976, Note_off_c, 0, 93, 0
16, 415616, Note_on_c, 0, 73, 90
16, 415616, Note_on_c, 0, 79, 90
16, 415616, Note_on_c, 0, 81, 90
16, 415616, Note_on_c, 0, 84, 90
16, 415616, Note_on_c, 0, 87, 90
16, 415616, Note_on_c, 0, 93, 90
16, 415744, Note_off_c, 0, 73, 0
16, 415744, Note_off_c, 0, 79, 0
16, 415744, Note_off_c, 0, 81, 0
16, 415744, Note_off_c, 0, 84, 0
16, 415744, Note_off_c, 0, 87, 0
16, 415744, Note_off_c, 0, 93, 0
16, 416384, Note_on_c, 0, 73, 83
16, 416384, Note_on_c, 0, 79, 83
16, 416384, Note_on_c, 0, 81, 83
16, 416384, Note_on_c, 0, 84, 83
16, 416384, Note_on_c, 0, 87, 83
16, 416384, Note_on_c, 0, 93, 83
16, 416512, Note_off_c, 0, 73, 0
16, 416512, Note_off_c, 0, 79, 0
16, 416512, Note_off_c, 0, 81, 0
16, 416512, Note_off_c, 0, 84, 0
16, 416512, Note_off_c, 0, 87, 0
16, 416512, Note_off_c, 0, 93, 0
16, 417152, Note_on_c, 0, 73, 83
16, 417152, Note_on_c, 0, 79, 83
16, 417152, Note_on_c, 0, 81, 83
16, 417152, Note_on_c, 0, 84, 83
16, 417152, Note_on_c, 0, 87, 83
16, 417152, Note_on_c, 0, 93, 83
16, 417280, Note_off_c, 0, 73, 0
16, 417280, Note_off_c, 0, 79, 0
16, 417280, Note_off_c, 0, 81, 0
16, 417280, Note_off_c, 0, 84, 0
16, 417280, Note_off_c, 0, 87, 0
16, 417280, Note_off_c, 0, 93, 0
16, 417920, Note_on_c, 0, 73, 92
16, 417920, Note_on_c, 0, 79, 92
16, 417920, Note_on_c, 0, 81, 92
16, 417920, Note_on_c, 0, 84, 92
16, 417920, Note_on_c, 0, 87, 92
16, 417920, Note_on_c, 0, 93, 92
16, 418048, Note_off_c, 0, 73, 0
16, 418048, Note_off_c, 0, 79, 0
16, 418048, Note_off_c, 0, 81, 0
16, 418048, Note_off_c, 0, 84, 0
16, 418048, Note_off_c, 0, 87, 0
16, 418048, Note_off_c, 0, 93, 0
16, 418688, Note_on_c, 0, 73, 87
16, 418688, Note_on_c, 0, 79, 87
16, 418688, Note_on_c, 0, 81, 87
16, 418688, Note_on_c, 0, 84, 87
16, 418688, Note_on_c, 0, 87, 87
16, 418688, Note_on_c, 0, 93, 87
16, 418816, Note_off_c, 0, 73, 0
16, 418816, Note_off_c, 0, 79, 0
16, 418816, Note_off_c, 0, 81, 0
16, 418816, Note_off_c, 0, 84, 0
16, 418816, Note_off_c, 0, 87, 0
16, 418816, Note_off_c, 0, 93, 0
16, 419072, Note_on_c, 0, 73, 86
16, 419072, Note_on_c, 0, 79, 86
16, 419072, Note_on_c, 0, 81, 86
16, 419072, Note_on_c, 0, 84, 86
16, 419072, Note_on_c, 0, 87, 86
16, 419072, Note_on_c, 0, 93, 86
16, 419200, Note_off_c, 0, 73, 0
16, 419200, Note_off_c, 0, 79, 0
16, 419200, Note_off_c, 0, 81, 0
16, 419200, Note_off_c, 0, 84, 0
16, 419200, Note_off_c, 0, 87, 0
16, 419200, Note_off_c, 0, 93, 0
16, 419456, Note_on_c, 0, 73, 86
16, 419456, Note_on_c, 0, 79, 86
16, 419456, Note_on_c, 0, 81, 86
16, 419456, Note_on_c, 0, 84, 86
16, 419456, Note_on_c, 0, 87, 86
16, 419456, Note_on_c, 0, 93, 86
16, 419584, Note_off_c, 0, 73, 0
16, 419584, Note_off_c, 0, 79, 0
16, 419584, Note_off_c, 0, 81, 0
16, 419584, Note_off_c, 0, 84, 0
16, 419584, Note_off_c, 0, 87, 0
16, 419584, Note_off_c, 0, 93, 0
16, 419840, Note_on_c, 0, 73, 87
16, 419840, Note_on_c, 0, 79, 87
16, 419840, Note_on_c, 0, 81, 87
16, 419840, Note_on_c, 0, 84, 87
16, 419840, Note_on_c, 0, 87, 87
16, 419840, Note_on_c, 0, 93, 87
16, 419968, Note_off_c, 0, 73, 0
16, 419968, Note_off_c, 0, 79, 0
16, 419968, Note_off_c, 0, 81, 0
16, 419968, Note_off_c, 0, 84, 0
16, 419968, Note_off_c, 0, 87, 0
16, 419968, Note_off_c, 0, 93, 0
16, 420224, Note_on_c, 0, 73, 83
16, 420224, Note_on_c, 0, 79, 83
16, 420224, Note_on_c, 0, 81, 83
16, 420224, Note_on_c, 0, 84, 83
16, 420224, Note_on_c, 0, 87, 83
16, 420224, Note_on_c, 0, 93, 83
16, 420352, Note_off_c, 0, 73, 0
16, 420352, Note_off_c, 0, 79, 0
16, 420352, Note_off_c, 0, 81, 0
16, 420352, Note_off_c, 0, 84, 0
16, 420352, Note_off_c, 0, 87, 0
16, 420352, Note_off_c, 0, 93, 0
16, 420608, Note_on_c, 0, 73, 87
16, 420608, Note_on_c, 0, 79, 87
16, 420608, Note_on_c, 0, 81, 87
16, 420608, Note_on_c, 0, 84, 87
16, 420608, Note_on_c, 0, 87, 87
16, 420608, Note_on_c, 0, 93, 87
16, 420736, Note_off_c, 0, 73, 0
16, 420736, Note_off_c, 0, 79, 0
16, 420736, Note_off_c, 0, 81, 0
16, 420736, Note_off_c, 0, 84, 0
16, 420736, Note_off_c, 0, 87, 0
16, 420736, Note_off_c, 0, 93, 0
16, 420992, Note_on_c, 0, 73, 83
16, 420992, Note_on_c, 0, 79, 83
16, 420992, Note_on_c, 0, 81, 83
16, 420992, Note_on_c, 0, 84, 83
16, 420992, Note_on_c, 0, 87, 83
16, 420992, Note_on_c, 0, 93, 83
16, 421120, Note_off_c, 0, 73, 0
16, 421120, Note_off_c, 0, 79, 0
16, 421120, Note_off_c, 0, 81, 0
16, 421120, Note_off_c, 0, 84, 0
16, 421120, Note_off_c, 0, 87, 0
16, 421120, Note_off_c, 0, 93, 0
16, 421376, Note_on_c, 0, 73, 86
16, 421376, Note_on_c, 0, 79, 86
16, 421376, Note_on_c, 0, 81, 86
16, 421376, Note_on_c, 0, 84, 86
16, 421376, Note_on_c, 0, 87, 86
16, 421376, Note_on_c, 0, 93, 86
16, 421504, Note_off_c, 0, 73, 0
16, 421504, Note_off_c, 0, 79, 0
16, 421504, Note_off_c, 0, 81, 0
16, 421504, Note_off_c, 0, 84, 0
16, 421504, Note_off_c, 0, 87, 0
16, 421504, Note_off_c, 0, 93, 0
16, 421760, Note_on_c, 0, 73, 86
16, 421760, Note_on_c, 0, 79, 86
16, 421760, Note_on_c, 0, 81, 86
16, 421760, Note_on_c, 0, 84, 86
16, 421760, Note_on_c, 0, 87, 86
16, 421760, Note_on_c, 0, 93, 86
16, 421888, Note_off_c, 0, 73, 0
16, 421888, Note_off_c, 0, 79, 0
16, 421888, Note_off_c, 0, 81, 0
16, 421888, Note_off_c, 0, 84, 0
16, 421888, Note_off_c, 0, 87, 0
16, 421888, Note_off_c, 0, 93, 0
16, 422144, Note_on_c, 0, 73, 88
16, 422144, Note_on_c, 0, 79, 88
16, 422144, Note_on_c, 0, 81, 88
16, 422144, Note_on_c, 0, 84, 88
16, 422144, Note_on_c, 0, 87, 88
16, 422144, Note_on_c, 0, 93, 88
16, 422272, Note_off_c, 0, 73, 0
16, 422272, Note_off_c, 0, 79, 0
16, 422272, Note_off_c, 0, 81, 0
16, 422272, Note_off_c, 0, 84, 0
16, 422272, Note_off_c, 0, 87, 0
16, 422272, Note_off_c, 0, 93, 0
16, 422528, Note_on_c, 0, 67, 52
16, 422528, Note_on_c, 0, 72, 52
16, 422528, Note_on_c, 0, 81, 52
16, 422528, Note_on_c, 0, 87, 52
16, 422592, Note_off_c, 0, 67, 0
16, 422592, Note_off_c, 0, 72, 0
16, 422592, Note_off_c, 0, 81, 0
16, 422592, Note_off_c, 0, 87, 0
16, 422912, Note_on_c, 0, 67, 54
16, 422912, Note_on_c, 0, 72, 54
16, 422912, Note_on_c, 0, 81, 54
16, 422912, Note_on_c, 0, 87, 54
16, 422976, Note_off_c, 0, 67, 0
16, 422976, Note_off_c, 0, 72, 0
16, 422976, Note_off_c, 0, 81, 0
16, 422976, Note_off_c, 0, 87, 0
16, 423296, Note_on_c, 0, 69, 56
16, 423296, Note_on_c, 0, 72, 56
16, 423296, Note_on_c, 0, 83, 56
16, 423296, Note_on_c, 0, 88, 56
16, 423360, Note_off_c, 0, 69, 0
16, 423360, Note_off_c, 0, 72, 0
16, 423360, Note_off_c, 0, 83, 0
16, 423360, Note_off_c, 0, 88, 0
16, 423680, Note_on_c, 0, 69, 58
16, 423680, Note_on_c, 0, 72, 58
16, 423680, Note_on_c, 0, 83, 58
16, 423680, Note_on_c, 0, 88, 58
16, 423744, Note_off_c, 0, 69, 0
16, 423744, Note_off_c, 0, 72, 0
16, 423744, Note_off_c, 0, 83, 0
16, 423744, Note_off_c, 0, 88, 0
16, 424064, Note_on_c, 0, 69, 56
16, 424064, Note_on_c, 0, 72, 56
16, 424064, Note_on_c, 0, 83, 56
16, 424064, Note_on_c, 0, 88, 56
16, 424128, Note_off_c, 0, 69, 0
16, 424128, Note_off_c, 0, 72, 0
16, 424128, Note_off_c, 0, 83, 0
16, 424128, Note_off_c, 0, 88, 0
16, 424448, Note_on_c, 0, 69, 56
16, 424448, Note_on_c, 0, 72, 56
16, 424448, Note_on_c, 0, 83, 56
16, 424448, Note_on_c, 0, 88, 56
16, 424512, Note_off_c, 0, 69, 0
16, 424512, Note_off_c, 0, 72, 0
16, 424512, Note_off_c, 0, 83, 0
16, 424512, Note_off_c, 0, 88, 0
16, 424832, Note_on_c, 0, 69, 57
16, 424832, Note_on_c, 0, 72, 57
16, 424832, Note_on_c, 0, 83, 57
16, 424832, Note_on_c, 0, 88, 57
16, 424896, Note_off_c, 0, 69, 0
16, 424896, Note_off_c, 0, 72, 0
16, 424896, Note_off_c, 0, 83, 0
16, 424896, Note_off_c, 0, 88, 0
16, 425216, Note_on_c, 0, 69, 55
16, 425216, Note_on_c, 0, 72, 55
16, 425216, Note_on_c, 0, 83, 55
16, 425216, Note_on_c, 0, 88, 55
16, 425280, Note_off_c, 0, 69, 0
16, 425280, Note_off_c, 0, 72, 0
16, 425280, Note_off_c, 0, 83, 0
16, 425280, Note_off_c, 0, 88, 0
16, 425600, Note_on_c, 0, 69, 53
16, 425600, Note_on_c, 0, 72, 53
16, 425600, Note_on_c, 0, 83, 53
16, 425600, Note_on_c, 0, 88, 53
16, 425600, Note_on_c, 0, 67, 65
16, 425664, Note_off_c, 0, 69, 0
16, 425664, Note_off_c, 0, 72, 0
16, 425664, Note_off_c, 0, 83, 0
16, 425664, Note_off_c, 0, 88, 0
16, 425728, Note_off_c, 0, 67, 0
16, 425728, Note_on_c, 0, 69, 76
16, 425856, Note_off_c, 0, 69, 0
16, 425856, Note_on_c, 0, 60, 53
16, 425984, Note_off_c, 0, 60, 0
16, 425984, Note_on_c, 0, 69, 56
16, 425984, Note_on_c, 0, 72, 56
16, 425984, Note_on_c, 0, 83, 56
16, 425984, Note_on_c, 0, 88, 56
16, 425984, Note_on_c, 0, 64, 78
16, 426048, Note_off_c, 0, 69, 0
16, 426048, Note_off_c, 0, 72, 0
16, 426048, Note_off_c, 0, 83, 0
16, 426048, Note_off_c, 0, 88, 0
16, 426112, Note_off_c, 0, 64, 0
16, 426112, Note_on_c, 0, 67, 78
16, 426240, Note_off_c, 0, 67, 0
16, 426240, Note_on_c, 0, 69, 72
16, 426368, Note_off_c, 0, 69, 0
16, 426368, Note_on_c, 0, 69, 52
16, 426368, Note_on_c, 0, 76, 52
16, 426368, Note_on_c, 0, 83, 52
16, 426368, Note_on_c, 0, 88, 52
16, 426368, Note_on_c, 0, 60, 52
16, 426432, Note_off_c, 0, 69, 0
16, 426432, Note_off_c, 0, 76, 0
16, 426432, Note_off_c, 0, 83, 0
16, 426432, Note_off_c, 0, 88, 0
16, 426496, Note_off_c, 0, 60, 0
16, 426496, Note_on_c, 0, 64, 69
16, 426624, Note_off_c, 0, 64, 0
16, 426624, Note_on_c, 0, 67, 74
16, 426752, Note_off_c, 0, 67, 0
16, 426752, Note_on_c, 0, 71, 54
16, 426752, Note_on_c, 0, 76, 54
16, 426752, Note_on_c, 0, 83, 54
16, 426752, Note_on_c, 0, 88, 54
16, 426752, Note_on_c, 0, 69, 78
16, 426816, Note_off_c, 0, 71, 0
16, 426816, Note_off_c, 0, 76, 0
16, 426816, Note_off_c, 0, 83, 0
16, 426816, Note_off_c, 0, 88, 0
16, 426880, Note_off_c, 0, 69, 0
16, 426880, Note_on_c, 0, 60, 55
16, 427008, Note_off_c, 0, 60, 0
16, 427008, Note_on_c, 0, 64, 71
16, 427136, Note_off_c, 0, 64, 0
16, 427136, Note_on_c, 0, 69, 51
16, 427136, Note_on_c, 0, 76, 51
16, 427136, Note_on_c, 0, 83, 51
16, 427136, Note_on_c, 0, 88, 51
16, 427136, Note_on_c, 0, 67, 78
16, 427200, Note_off_c, 0, 69, 0
16, 427200, Note_off_c, 0, 76, 0
16, 427200, Note_off_c, 0, 83, 0
16, 427200, Note_off_c, 0, 88, 0
16, 427264, Note_off_c, 0, 67, 0
16, 427264, Note_on_c, 0, 69, 78
16, 427392, Note_off_c, 0, 69, 0
16, 427392, Note_on_c, 0, 60, 61
16, 427520, Note_off_c, 0, 60, 0
16, 427520, Note_on_c, 0, 71, 56
16, 427520, Note_on_c, 0, 76, 56
16, 427520, Note_on_c, 0, 83, 56
16, 427520, Note_on_c, 0, 88, 56
16, 427520, Note_on_c, 0, 64, 78
16, 427584, Note_off_c, 0, 71, 0
16, 427584, Note_off_c, 0, 76, 0
16, 427584, Note_off_c, 0, 83, 0
16, 427584, Note_off_c, 0, 88, 0
16, 427648, Note_off_c, 0, 64, 0
16, 427648, Note_on_c, 0, 67, 78
16, 427776, Note_off_c, 0, 67, 0
16, 427776, Note_on_c, 0, 69, 77
16, 427904, Note_off_c, 0, 69, 0
16, 427904, Note_on_c, 0, 69, 54
16, 427904, Note_on_c, 0, 76, 54
16, 427904, Note_on_c, 0, 83, 54
16, 427904, Note_on_c, 0, 88, 54
16, 427904, Note_on_c, 0, 60, 57
16, 427968, Note_off_c, 0, 69, 0
16, 427968, Note_off_c, 0, 76, 0
16, 427968, Note_off_c, 0, 83, 0
16, 427968, Note_off_c, 0, 88, 0
16, 428032, Note_off_c, 0, 60, 0
16, 428032, Note_on_c, 0, 64, 72
16, 428160, Note_off_c, 0, 64, 0
16, 428160, Note_on_c, 0, 67, 81
16, 428288, Note_off_c, 0, 67, 0
16, 428288, Note_on_c, 0, 71, 54
16, 428288, Note_on_c, 0, 76, 54
16, 428288, Note_on_c, 0, 83, 54
16, 428288, Note_on_c, 0, 88, 54
16, 428288, Note_on_c, 0, 69, 73
16, 428352, Note_off_c, 0, 71, 0
16, 428352, Note_off_c, 0, 76, 0
16, 428352, Note_off_c, 0, 83, 0
16, 428352, Note_off_c, 0, 88, 0
16, 428416, Note_off_c, 0, 69, 0
16, 428416, Note_on_c, 0, 60, 54
16, 428544, Note_off_c, 0, 60, 0
16, 428544, Note_on_c, 0, 64, 74
16, 428672, Note_off_c, 0, 64, 0
16, 428672, Note_on_c, 0, 69, 57
16, 428672, Note_on_c, 0, 76, 57
16, 428672, Note_on_c, 0, 83, 57
16, 428672, Note_on_c, 0, 88, 57
16, 428672, Note_on_c, 0, 67, 79
16, 428736, Note_off_c, 0, 69, 0
16, 428736, Note_off_c, 0, 76, 0
16, 428736, Note_off_c, 0, 83, 0
16, 428736, Note_off_c, 0, 88, 0
16, 428800, Note_off_c, 0, 67, 0
16, 428800, Note_on_c, 0, 69, 73
16, 428928, Note_off_c, 0, 69, 0
16, 428928, Note_on_c, 0, 60, 55
16, 429056, Note_off_c, 0, 60, 0
16, 429056, Note_on_c, 0, 71, 58
16, 429056, Note_on_c, 0, 76, 58
16, 429056, Note_on_c, 0, 83, 58
16, 429056, Note_on_c, 0, 88, 58
16, 429056, Note_on_c, 0, 64, 76
16, 429120, Note_off_c, 0, 71, 0
16, 429120, Note_off_c, 0, 76, 0
16, 429120, Note_off_c, 0, 83, 0
16, 429120, Note_off_c, 0, 88, 0
16, 429184, Note_off_c, 0, 64, 0
16, 429184, Note_on_c, 0, 67, 77
16, 429312, Note_off_c, 0, 67, 0
16, 429312, Note_on_c, 0, 69, 73
16, 429440, Note_off_c, 0, 69, 0
16, 429440, Note_on_c, 0, 60, 57
16, 429568, Note_off_c, 0, 60, 0
16, 429568, Note_on_c, 0, 64, 77
16, 429696, Note_off_c, 0, 64, 0
16, 429696, Note_on_c, 0, 71, 54
16, 429696, Note_on_c, 0, 76, 54
16, 429696, Note_on_c, 0, 83, 54
16, 429696, Note_on_c, 0, 88, 54
16, 429696, Note_on_c, 0, 67, 76
16, 429760, Note_off_c, 0, 71, 0
16, 429760, Note_off_c, 0, 76, 0
16, 429760, Note_off_c, 0, 83, 0
16, 429760, Note_off_c, 0, 88, 0
16, 429824, Note_off_c, 0, 67, 0
16, 429824, Note_on_c, 0, 69, 78
16, 429952, Note_off_c, 0, 69, 0
16, 429952, Note_on_c, 0, 60, 59
16, 430080, Note_off_c, 0, 60, 0
16, 430080, Note_on_c, 0, 69, 54
16, 430080, Note_on_c, 0, 76, 54
16, 430080, Note_on_c, 0, 81, 54
16, 430080, Note_on_c, 0, 88, 54
16, 430080, Note_on_c, 0, 64, 79
16, 430144, Note_off_c, 0, 69, 0
16, 430144, Note_off_c, 0, 76, 0
16, 430144, Note_off_c, 0, 81, 0
16, 430144, Note_off_c, 0, 88, 0
16, 430208, Note_off_c, 0, 64, 0
16, 430208, Note_on_c, 0, 67, 76
16, 430336, Note_off_c, 0, 67, 0
16, 430336, Note_on_c, 0, 69, 76
16, 430464, Note_off_c, 0, 69, 0
16, 430464, Note_on_c, 0, 60, 57
16, 430592, Note_off_c, 0, 60, 0
16, 430592, Note_on_c, 0, 64, 77
16, 430720, Note_off_c, 0, 64, 0
16, 430720, Note_on_c, 0, 71, 55
16, 430720, Note_on_c, 0, 76, 55
16, 430720, Note_on_c, 0, 83, 55
16, 430720, Note_on_c, 0, 88, 55
16, 430720, Note_on_c, 0, 67, 78
16, 430784, Note_off_c, 0, 71, 0
16, 430784, Note_off_c, 0, 76, 0
16, 430784, Note_off_c, 0, 83, 0
16, 430784, Note_off_c, 0, 88, 0
16, 430848, Note_off_c, 0, 67, 0
16, 430848, Note_on_c, 0, 69, 79
16, 430976, Note_off_c, 0, 69, 0
16, 430976, Note_on_c, 0, 60, 55
16, 431104, Note_off_c, 0, 60, 0
16, 431104, Note_on_c, 0, 69, 55
16, 431104, Note_on_c, 0, 76, 55
16, 431104, Note_on_c, 0, 84, 55
16, 431104, Note_on_c, 0, 89, 55
16, 431104, Note_on_c, 0, 64, 75
16, 431168, Note_off_c, 0, 69, 0
16, 431168, Note_off_c, 0, 76, 0
16, 431168, Note_off_c, 0, 84, 0
16, 431168, Note_off_c, 0, 89, 0
16, 431232, Note_off_c, 0, 64, 0
16, 431232, Note_on_c, 0, 67, 79
16, 431360, Note_off_c, 0, 67, 0
16, 431360, Note_on_c, 0, 69, 78
16, 431488, Note_off_c, 0, 69, 0
16, 431488, Note_on_c, 0, 60, 56
16, 431616, Note_off_c, 0, 60, 0
16, 431616, Note_on_c, 0, 73, 65
16, 431616, Note_on_c, 0, 78, 65
16, 431616, Note_on_c, 0, 83, 65
16, 431616, Note_on_c, 0, 88, 65
16, 431616, Note_on_c, 0, 64, 75
16, 431701, Note_off_c, 0, 73, 0
16, 431701, Note_off_c, 0, 78, 0
16, 431701, Note_off_c, 0, 83, 0
16, 431701, Note_off_c, 0, 88, 0
16, 431744, Note_off_c, 0, 64, 0
16, 431744, Note_on_c, 0, 67, 83
16, 431786, Note_on_c, 0, 73, 66
16, 431786, Note_on_c, 0, 78, 66
16, 431786, Note_on_c, 0, 83, 66
16, 431786, Note_on_c, 0, 88, 66
16, 431871, Note_off_c, 0, 73, 0
16, 431871, Note_off_c, 0, 78, 0
16, 431871, Note_off_c, 0, 83, 0
16, 431871, Note_off_c, 0, 88, 0
16, 431872, Note_off_c, 0, 67, 0
16, 431872, Note_on_c, 0, 69, 77
16, 431957, Note_on_c, 0, 73, 72
16, 431957, Note_on_c, 0, 78, 72
16, 431957, Note_on_c, 0, 83, 72
16, 431957, Note_on_c, 0, 88, 72
16, 432000, Note_off_c, 0, 69, 0
16, 432000, Note_on_c, 0, 60, 55
16, 432042, Note_off_c, 0, 73, 0
16, 432042, Note_off_c, 0, 78, 0
16, 432042, Note_off_c, 0, 83, 0
16, 432042, Note_off_c, 0, 88, 0
16, 432128, Note_off_c, 0, 60, 0
16, 432128, Note_on_c, 0, 64, 74
16, 432256, Note_off_c, 0, 64, 0
16, 432256, Note_on_c, 0, 67, 76
16, 432384, Note_off_c, 0, 67, 0
16, 432384, Note_on_c, 0, 69, 76
16, 432512, Note_off_c, 0, 69, 0
16, 432512, Note_on_c, 0, 60, 55
16, 432640, Note_off_c, 0, 60, 0
16, 432640, Note_on_c, 0, 73, 63
16, 432640, Note_on_c, 0, 78, 63
16, 432640, Note_on_c, 0, 83, 63
16, 432640, Note_on_c, 0, 88, 63
16, 432640, Note_on_c, 0, 64, 80
16, 432725, Note_off_c, 0, 73, 0
16, 432725, Note_off_c, 0, 78, 0
16, 432725, Note_off_c, 0, 83, 0
16, 432725, Note_off_c, 0, 88, 0
16, 432768, Note_off_c, 0, 64, 0
16, 432768, Note_on_c, 0, 67, 76
16, 432810, Note_on_c, 0, 73, 69
16, 432810, Note_on_c, 0, 78, 69
16, 432810, Note_on_c, 0, 83, 69
16, 432810, Note_on_c, 0, 88, 69
16, 432895, Note_off_c, 0, 73, 0
16, 432895, Note_off_c, 0, 78, 0
16, 432895, Note_off_c, 0, 83, 0
16, 432895, Note_off_c, 0, 88, 0
16, 432896, Note_off_c, 0, 67, 0
16, 432896, Note_on_c, 0, 69, 75
16, 432981, Note_on_c, 0, 73, 71
16, 432981, Note_on_c, 0, 78, 71
16, 432981, Note_on_c, 0, 83, 71
16, 432981, Note_on_c, 0, 88, 71
16, 433024, Note_off_c, 0, 69, 0
16, 433024, Note_on_c, 0, 60, 55
16, 433066, Note_off_c, 0, 73, 0
16, 433066, Note_off_c, 0, 78, 0
16, 433066, Note_off_c, 0, 83, 0
16, 433066, Note_off_c, 0, 88, 0
16, 433152, Note_off_c, 0, 60, 0
16, 433152, Note_on_c, 0, 64, 76
16, 433280, Note_off_c, 0, 64, 0
16, 433280, Note_on_c, 0, 67, 80
16, 433408, Note_off_c, 0, 67, 0
16, 433408, Note_on_c, 0, 69, 74
16, 433536, Note_off_c, 0, 69, 0
16, 433536, Note_on_c, 0, 60, 54
16, 433664, Note_off_c, 0, 60, 0
16, 433664, Note_on_c, 0, 73, 65
16, 433664, Note_on_c, 0, 78, 65
16, 433664, Note_on_c, 0, 83, 65
16, 433664, Note_on_c, 0, 88, 65
16, 433664, Note_on_c, 0, 64, 79
16, 433749, Note_off_c, 0, 73, 0
16, 433749, Note_off_c, 0, 78, 0
16, 433749, Note_off_c, 0, 83, 0
16, 433749, Note_off_c, 0, 88, 0
16, 433792, Note_off_c, 0, 64, 0
16, 433792, Note_on_c, 0, 67, 74
16, 433834, Note_on_c, 0, 73, 70
16, 433834, Note_on_c, 0, 78, 70
16, 433834, Note_on_c, 0, 83, 70
16, 433834, Note_on_c, 0, 88, 70
16, 433920, Note_off_c, 0, 67, 0
16, 433920, Note_on_c, 0, 69, 79
16, 433962, Note_off_c, 0, 73, 0
16, 433962, Note_off_c, 0, 78, 0
16, 433962, Note_off_c, 0, 83, 0
16, 433962, Note_off_c, 0, 88, 0
16, 434005, Note_on_c, 0, 73, 70
16, 434005, Note_on_c, 0, 78, 70
16, 434005, Note_on_c, 0, 83, 70
16, 434005, Note_on_c, 0, 88, 70
16, 434048, Note_off_c, 0, 69, 0
16, 434048, Note_on_c, 0, 60, 52
16, 434090, Note_off_c, 0, 73, 0
16, 434090, Note_off_c, 0, 78, 0
16, 434090, Note_off_c, 0, 83, 0
16, 434090, Note_off_c, 0, 88, 0
16, 434176, Note_off_c, 0, 60, 0
16, 434176, Note_on_c, 0, 64, 74
16, 434304, Note_off_c, 0, 64, 0
16, 434304, Note_on_c, 0, 67, 79
16, 434432, Note_off_c, 0, 67, 0
16, 434432, Note_on_c, 0, 69, 78
16, 434560, Note_off_c, 0, 69, 0
16, 434560, Note_on_c, 0, 60, 52
16, 434688, Note_off_c, 0, 60, 0
16, 434688, Note_on_c, 0, 73, 63
16, 434688, Note_on_c, 0, 78, 63
16, 434688, Note_on_c, 0, 83, 63
16, 434688, Note_on_c, 0, 88, 63
16, 434688, Note_on_c, 0, 64, 80
16, 434773, Note_off_c, 0, 73, 0
16, 434773, Note_off_c, 0, 78, 0
16, 434773, Note_off_c, 0, 83, 0
16, 434773, Note_off_c, 0, 88, 0
16, 434816, Note_off_c, 0, 64, 0
16, 434816, Note_on_c, 0, 67, 73
16, 434858, Note_on_c, 0, 73, 69
16, 434858, Note_on_c, 0, 78, 69
16, 434858, Note_on_c, 0, 83, 69
16, 434858, Note_on_c, 0, 88, 69
16, 434943, Note_off_c, 0, 73, 0
16, 434943, Note_off_c, 0, 78, 0
16, 434943, Note_off_c, 0, 83, 0
16, 434943, Note_off_c, 0, 88, 0
16, 434944, Note_off_c, 0, 67, 0
16, 434944, Note_on_c, 0, 69, 76
16, 435029, Note_on_c, 0, 73, 72
16, 435029, Note_on_c, 0, 78, 72
16, 435029, Note_on_c, 0, 83, 72
16, 435029, Note_on_c, 0, 88, 72
16, 435072, Note_off_c, 0, 69, 0
16, 435072, Note_on_c, 0, 60, 55
16, 435114, Note_off_c, 0, 73, 0
16, 435114, Note_off_c, 0, 78, 0
16, 435114, Note_off_c, 0, 83, 0
16, 435114, Note_off_c, 0, 88, 0
16, 435200, Note_off_c, 0, 60, 0
16, 435200, Note_on_c, 0, 64, 74
16, 435328, Note_off_c, 0, 64, 0
16, 435328, Note_on_c, 0, 67, 78
16, 435456, Note_off_c, 0, 67, 0
16, 435456, Note_on_c, 0, 69, 79
16, 435584, Note_off_c, 0, 69, 0
16, 435584, Note_on_c, 0, 60, 58
16, 435712, Note_off_c, 0, 60, 0
16, 435712, Note_on_c, 0, 73, 62
16, 435712, Note_on_c, 0, 78, 62
16, 435712, Note_on_c, 0, 83, 62
16, 435712, Note_on_c, 0, 88, 62
16, 435712, Note_on_c, 0, 64, 73
16, 435797, Note_off_c, 0, 73, 0
16, 435797, Note_off_c, 0, 78, 0
16, 435797, Note_off_c, 0, 83, 0
16, 435797, Note_off_c, 0, 88, 0
16, 435840, Note_off_c, 0, 64, 0
16, 435840, Note_on_c, 0, 67, 81
16, 435882, Note_on_c, 0, 73, 66
16, 435882, Note_on_c, 0, 78, 66
16, 435882, Note_on_c, 0, 83, 66
16, 435882, Note_on_c, 0, 88, 66
16, 435967, Note_off_c, 0, 73, 0
16, 435967, Note_off_c, 0, 78, 0
16, 435967, Note_off_c, 0, 83, 0
16, 435967, Note_off_c, 0, 88, 0
16, 435968, Note_off_c, 0, 67, 0
16, 435968, Note_on_c, 0, 69, 79
16, 436053, Note_on_c, 0, 73, 75
16, 436053, Note_on_c, 0, 78, 75
16, 436053, Note_on_c, 0, 83, 75
16, 436053, Note_on_c, 0, 88, 75
16, 436096, Note_off_c, 0, 69, 0
16, 436096, Note_on_c, 0, 60, 57
16, 436138, Note_off_c, 0, 73, 0
16, 436138, Note_off_c, 0, 78, 0
16, 436138, Note_off_c, 0, 83, 0
16, 436138, Note_off_c, 0, 88, 0
16, 436224, Note_off_c, 0, 60, 0
16, 436224, Note_on_c, 0, 64, 75
16, 436352, Note_off_c, 0, 64, 0
16, 436352, Note_on_c, 0, 67, 76
16, 436480, Note_off_c, 0, 67, 0
16, 436480, Note_on_c, 0, 69, 81
16, 436608, Note_off_c, 0, 69, 0
16, 436608, Note_on_c, 0, 60, 59
16, 436736, Note_off_c, 0, 60, 0
16, 436736, Note_on_c, 0, 73, 68
16, 436736, Note_on_c, 0, 78, 68
16, 436736, Note_on_c, 0, 83, 68
16, 436736, Note_on_c, 0, 88, 68
16, 436736, Note_on_c, 0, 64, 74
16, 436821, Note_off_c, 0, 73, 0
16, 436821, Note_off_c, 0, 78, 0
16, 436821, Note_off_c, 0, 83, 0
16, 436821, Note_off_c, 0, 88, 0
16, 436864, Note_off_c, 0, 64, 0
16, 436864, Note_on_c, 0, 67, 80
16, 436906, Note_on_c, 0, 73, 72
16, 436906, Note_on_c, 0, 78, 72
16, 436906, Note_on_c, 0, 83, 72
16, 436906, Note_on_c, 0, 88, 72
16, 436992, Note_off_c, 0, 67, 0
16, 436992, Note_on_c, 0, 69, 81
16, 437034, Note_off_c, 0, 73, 0
16, 437034, Note_off_c, 0, 78, 0
16, 437034, Note_off_c, 0, 83, 0
16, 437034, Note_off_c, 0, 88, 0
16, 437077, Note_on_c, 0, 73, 71
16, 437077, Note_on_c, 0, 78, 71
16, 437077, Note_on_c, 0, 83, 71
16, 437077, Note_on_c, 0, 88, 71
16, 437120, Note_off_c, 0, 69, 0
16, 437120, Note_on_c, 0, 60, 57
16, 437162, Note_off_c, 0, 73, 0
16, 437162, Note_off_c, 0, 78, 0
16, 437162, Note_off_c, 0, 83, 0
16, 437162, Note_off_c, 0, 88, 0
16, 437248, Note_off_c, 0, 60, 0
16, 437248, Note_on_c, 0, 64, 76
16, 437376, Note_off_c, 0, 64, 0
16, 437376, Note_on_c, 0, 67, 80
16, 437504, Note_off_c, 0, 67, 0
16, 437504, Note_on_c, 0, 69, 73
16, 437632, Note_off_c, 0, 69, 0
16, 437632, Note_on_c, 0, 60, 55
16, 437760, Note_off_c, 0, 60, 0
16, 437760, Note_on_c, 0, 73, 62
16, 437760, Note_on_c, 0, 78, 62
16, 437760, Note_on_c, 0, 83, 62
16, 437760, Note_on_c, 0, 88, 62
16, 437760, Note_on_c, 0, 64, 78
16, 437845, Note_off_c, 0, 73, 0
16, 437845, Note_off_c, 0, 78, 0
16, 437845, Note_off_c, 0, 83, 0
16, 437845, Note_off_c, 0, 88, 0
16, 437888, Note_off_c, 0, 64, 0
16, 437888, Note_on_c, 0, 67, 80
16, 437930, Note_on_c, 0, 73, 67
16, 437930, Note_on_c, 0, 78, 67
16, 437930, Note_on_c, 0, 83, 67
16, 437930, Note_on_c, 0, 88, 67
16, 438015, Note_off_c, 0, 73, 0
16, 438015, Note_off_c, 0, 78, 0
16, 438015, Note_off_c, 0, 83, 0
16, 438015, Note_off_c, 0, 88, 0
16, 438016, Note_off_c, 0, 67, 0
16, 438016, Note_on_c, 0, 69, 79
16, 438101, Note_on_c, 0, 68, 60
16, 438101, Note_on_c, 0, 81, 60
16, 438144, Note_off_c, 0, 69, 0
16, 438144, Note_on_c, 0, 60, 59
16, 438186, Note_off_c, 0, 68, 0
16, 438186, Note_off_c, 0, 81, 0
16, 438272, Note_off_c, 0, 60, 0
16, 438272, Note_on_c, 0, 73, 83
16, 438272, Note_on_c, 0, 78, 83
16, 438272, Note_on_c, 0, 83, 83
16, 438272, Note_on_c, 0, 88, 83
16, 438272, Note_on_c, 0, 64, 77
16, 438357, Note_off_c, 0, 73, 0
16, 438357, Note_off_c, 0, 78, 0
16, 438357, Note_off_c, 0, 83, 0
16, 438357, Note_off_c, 0, 88, 0
16, 438400, Note_off_c, 0, 64, 0
16, 438400, Note_on_c, 0, 67, 79
16, 438442, Note_on_c, 0, 73, 71
16, 438442, Note_on_c, 0, 78, 71
16, 438442, Note_on_c, 0, 83, 71
16, 438442, Note_on_c, 0, 88, 71
16, 438528, Note_off_c, 0, 67, 0
16, 438528, Note_on_c, 0, 69, 79
16, 438592, Note_off_c, 0, 73, 0
16, 438592, Note_off_c, 0, 78, 0
16, 438592, Note_off_c, 0, 83, 0
16, 438592, Note_off_c, 0, 88, 0
16, 438656, Note_off_c, 0, 69, 0
16, 438656, Note_on_c, 0, 60, 57
16, 438784, Note_off_c, 0, 60, 0
16, 438784, Note_on_c, 0, 64, 76
16, 438912, Note_off_c, 0, 64, 0
16, 438912, Note_on_c, 0, 67, 74
16, 439040, Note_off_c, 0, 67, 0
16, 439040, Note_on_c, 0, 69, 76
16, 439168, Note_off_c, 0, 69, 0
16, 439168, Note_on_c, 0, 60, 59
16, 439296, Note_off_c, 0, 60, 0
16, 439424, Note_on_c, 0, 65, 64
16, 439424, Note_on_c, 0, 69, 64
16, 439552, Note_off_c, 0, 65, 0
16, 439552, Note_off_c, 0, 69, 0
16, 439552, Note_on_c, 0, 73, 60
16, 439552, Note_on_c, 0, 78, 60
16, 439552, Note_on_c, 0, 83, 60
16, 439552, Note_on_c, 0, 88, 60
16, 439552, Note_on_c, 0, 60, 51
16, 439637, Note_off_c, 0, 73, 0
16, 439637, Note_off_c, 0, 78, 0
16, 439637, Note_off_c, 0, 83, 0
16, 439637, Note_off_c, 0, 88, 0
16, 439680, Note_off_c, 0, 60, 0
16, 439680, Note_on_c, 0, 65, 83
16, 439680, Note_on_c, 0, 69, 83
16, 439722, Note_on_c, 0, 73, 72
16, 439722, Note_on_c, 0, 78, 72
16, 439722, Note_on_c, 0, 83, 72
16, 439722, Note_on_c, 0, 88, 72
16, 439807, Note_off_c, 0, 73, 0
16, 439807, Note_off_c, 0, 78, 0
16, 439807, Note_off_c, 0, 83, 0
16, 439807, Note_off_c, 0, 88, 0
16, 439808, Note_off_c, 0, 65, 0
16, 439808, Note_off_c, 0, 69, 0
16, 439808, Note_on_c, 0, 64, 59
16, 439893, Note_on_c, 0, 68, 57
16, 439893, Note_on_c, 0, 81, 57
16, 439936, Note_off_c, 0, 64, 0
16, 439936, Note_on_c, 0, 65, 79
16, 439936, Note_on_c, 0, 69, 79
16, 439978, Note_off_c, 0, 68, 0
16, 439978, Note_off_c, 0, 81, 0
16, 440064, Note_off_c, 0, 65, 0
16, 440064, Note_off_c, 0, 69, 0
16, 440064, Note_on_c, 0, 73, 79
16, 440064, Note_on_c, 0, 78, 79
16, 440064, Note_on_c, 0, 83, 79
16, 440064, Note_on_c, 0, 88, 79
16, 440064, Note_on_c, 0, 60, 54
16, 440149, Note_off_c, 0, 73, 0
16, 440149, Note_off_c, 0, 78, 0
16, 440149, Note_off_c, 0, 83, 0
16, 440149, Note_off_c, 0, 88, 0
16, 440192, Note_off_c, 0, 60, 0
16, 440192, Note_on_c, 0, 65, 86
16, 440192, Note_on_c, 0, 69, 86
16, 440234, Note_on_c, 0, 68, 60
16, 440234, Note_on_c, 0, 81, 60
16, 440319, Note_off_c, 0, 68, 0
16, 440319, Note_off_c, 0, 81, 0
16, 440320, Note_off_c, 0, 65, 0
16, 440320, Note_off_c, 0, 69, 0
16, 440320, Note_on_c, 0, 64, 64
16, 440405, Note_on_c, 0, 73, 81
16, 440405, Note_on_c, 0, 78, 81
16, 440405, Note_on_c, 0, 83, 81
16, 440405, Note_on_c, 0, 88, 81
16, 440448, Note_off_c, 0, 64, 0
16, 440448, Note_on_c, 0, 65, 77
16, 440448, Note_on_c, 0, 69, 77
16, 440490, Note_off_c, 0, 73, 0
16, 440490, Note_off_c, 0, 78, 0
16, 440490, Note_off_c, 0, 83, 0
16, 440490, Note_off_c, 0, 88, 0
16, 440576, Note_off_c, 0, 65, 0
16, 440576, Note_off_c, 0, 69, 0
16, 440576, Note_on_c, 0, 60, 55
16, 440704, Note_off_c, 0, 60, 0
16, 440704, Note_on_c, 0, 65, 83
16, 440704, Note_on_c, 0, 69, 83
16, 440832, Note_off_c, 0, 65, 0
16, 440832, Note_off_c, 0, 69, 0
16, 440832, Note_on_c, 0, 64, 63
16, 440960, Note_off_c, 0, 64, 0
16, 440960, Note_on_c, 0, 65, 78
16, 440960, Note_on_c, 0, 69, 78
16, 441088, Note_off_c, 0, 65, 0
16, 441088, Note_off_c, 0, 69, 0
16, 441088, Note_on_c, 0, 60, 60
16, 441216, Note_off_c, 0, 60, 0
16, 441216, Note_on_c, 0, 65, 87
16, 441216, Note_on_c, 0, 69, 87
16, 441258, Note_on_c, 0, 73, 64
16, 441258, Note_on_c, 0, 78, 64
16, 441258, Note_on_c, 0, 83, 64
16, 441258, Note_on_c, 0, 88, 64
16, 441343, Note_off_c, 0, 73, 0
16, 441343, Note_off_c, 0, 78, 0
16, 441343, Note_off_c, 0, 83, 0
16, 441343, Note_off_c, 0, 88, 0
16, 441344, Note_off_c, 0, 65, 0
16, 441344, Note_off_c, 0, 69, 0
16, 441344, Note_on_c, 0, 64, 64
16, 441429, Note_on_c, 0, 73, 68
16, 441429, Note_on_c, 0, 78, 68
16, 441429, Note_on_c, 0, 83, 68
16, 441429, Note_on_c, 0, 88, 68
16, 441472, Note_off_c, 0, 64, 0
16, 441472, Note_on_c, 0, 65, 76
16, 441472, Note_on_c, 0, 69, 76
16, 441514, Note_off_c, 0, 73, 0
16, 441514, Note_off_c, 0, 78, 0
16, 441514, Note_off_c, 0, 83, 0
16, 441514, Note_off_c, 0, 88, 0
16, 441600, Note_off_c, 0, 65, 0
16, 441600, Note_off_c, 0, 69, 0
16, 441600, Note_on_c, 0, 68, 55
16, 441600, Note_on_c, 0, 81, 55
16, 441600, Note_on_c, 0, 60, 56
16, 441685, Note_off_c, 0, 68, 0
16, 441685, Note_off_c, 0, 81, 0
16, 441728, Note_off_c, 0, 60, 0
16, 441728, Note_on_c, 0, 65, 89
16, 441728, Note_on_c, 0, 69, 89
16, 441770, Note_on_c, 0, 73, 76
16, 441770, Note_on_c, 0, 78, 76
16, 441770, Note_on_c, 0, 83, 76
16, 441770, Note_on_c, 0, 88, 76
16, 441855, Note_off_c, 0, 73, 0
16, 441855, Note_off_c, 0, 78, 0
16, 441855, Note_off_c, 0, 83, 0
16, 441855, Note_off_c, 0, 88, 0
16, 441856, Note_off_c, 0, 65, 0
16, 441856, Note_off_c, 0, 69, 0
16, 441856, Note_on_c, 0, 64, 60
16, 441941, Note_on_c, 0, 68, 65
16, 441941, Note_on_c, 0, 81, 65
16, 441984, Note_off_c, 0, 64, 0
16, 441984, Note_on_c, 0, 67, 76
16, 442026, Note_off_c, 0, 68, 0
16, 442026, Note_off_c, 0, 81, 0
16, 442112, Note_off_c, 0, 67, 0
16, 442112, Note_on_c, 0, 73, 81
16, 442112, Note_on_c, 0, 78, 81
16, 442112, Note_on_c, 0, 83, 81
16, 442112, Note_on_c, 0, 88, 81
16, 442112, Note_on_c, 0, 69, 79
16, 442197, Note_off_c, 0, 73, 0
16, 442197, Note_off_c, 0, 78, 0
16, 442197, Note_off_c, 0, 83, 0
16, 442197, Note_off_c, 0, 88, 0
16, 442240, Note_off_c, 0, 69, 0
16, 442240, Note_on_c, 0, 60, 57
16, 442282, Note_on_c, 0, 68, 62
16, 442282, Note_on_c, 0, 81, 62
16, 442368, Note_off_c, 0, 60, 0
16, 442368, Note_on_c, 0, 64, 81
16, 442410, Note_off_c, 0, 68, 0
16, 442410, Note_off_c, 0, 81, 0
16, 442453, Note_on_c, 0, 73, 86
16, 442453, Note_on_c, 0, 78, 86
16, 442453, Note_on_c, 0, 83, 86
16, 442453, Note_on_c, 0, 88, 86
16, 442496, Note_off_c, 0, 64, 0
16, 442496, Note_on_c, 0, 67, 78
16, 442538, Note_off_c, 0, 73, 0
16, 442538, Note_off_c, 0, 78, 0
16, 442538, Note_off_c, 0, 83, 0
16, 442538, Note_off_c, 0, 88, 0
16, 442624, Note_off_c, 0, 67, 0
16, 442624, Note_on_c, 0, 69, 75
16, 442752, Note_off_c, 0, 69, 0
16, 442752, Note_on_c, 0, 60, 54
16, 442880, Note_off_c, 0, 60, 0
16, 442880, Note_on_c, 0, 64, 76
16, 443008, Note_off_c, 0, 64, 0
16, 443008, Note_on_c, 0, 67, 77
16, 443136, Note_off_c, 0, 67, 0
16, 443136, Note_on_c, 0, 69, 80
16, 443264, Note_off_c, 0, 69, 0
16, 443264, Note_on_c, 0, 60, 59
16, 443392, Note_off_c, 0, 60, 0
16, 443392, Note_on_c, 0, 64, 76
16, 443520, Note_off_c, 0, 64, 0
16, 443520, Note_on_c, 0, 67, 78
16, 443648, Note_off_c, 0, 67, 0
16, 443648, Note_on_c, 0, 69, 78
16, 443776, Note_off_c, 0, 69, 0
16, 443776, Note_on_c, 0, 60, 59
16, 443904, Note_off_c, 0, 60, 0
16, 443904, Note_on_c, 0, 73, 62
16, 443904, Note_on_c, 0, 78, 62
16, 443904, Note_on_c, 0, 83, 62
16, 443904, Note_on_c, 0, 88, 62
16, 443904, Note_on_c, 0, 64, 77
16, 443989, Note_off_c, 0, 73, 0
16, 443989, Note_off_c, 0, 78, 0
16, 443989, Note_off_c, 0, 83, 0
16, 443989, Note_off_c, 0, 88, 0
16, 444032, Note_off_c, 0, 64, 0
16, 444032, Note_on_c, 0, 67, 77
16, 444074, Note_on_c, 0, 68, 57
16, 444074, Note_on_c, 0, 81, 57
16, 444159, Note_off_c, 0, 68, 0
16, 444159, Note_off_c, 0, 81, 0
16, 444160, Note_off_c, 0, 67, 0
16, 444160, Note_on_c, 0, 69, 76
16, 444245, Note_on_c, 0, 73, 86
16, 444245, Note_on_c, 0, 78, 86
16, 444245, Note_on_c, 0, 83, 86
16, 444245, Note_on_c, 0, 88, 86
16, 444288, Note_off_c, 0, 69, 0
16, 444288, Note_on_c, 0, 60, 56
16, 444330, Note_off_c, 0, 73, 0
16, 444330, Note_off_c, 0, 78, 0
16, 444330, Note_off_c, 0, 83, 0
16, 444330, Note_off_c, 0, 88, 0
16, 444416, Note_off_c, 0, 60, 0
16, 444416, Note_on_c, 0, 68, 55
16, 444416, Note_on_c, 0, 81, 55
16, 444416, Note_on_c, 0, 64, 76
16, 444501, Note_off_c, 0, 68, 0
16, 444501, Note_off_c, 0, 81, 0
16, 444544, Note_off_c, 0, 64, 0
16, 444544, Note_on_c, 0, 67, 79
16, 444586, Note_on_c, 0, 73, 85
16, 444586, Note_on_c, 0, 78, 85
16, 444586, Note_on_c, 0, 83, 85
16, 444586, Note_on_c, 0, 88, 85
16, 444672, Note_off_c, 0, 67, 0
16, 444672, Note_on_c, 0, 69, 76
16, 444714, Note_off_c, 0, 73, 0
16, 444714, Note_off_c, 0, 78, 0
16, 444714, Note_off_c, 0, 83, 0
16, 444714, Note_off_c, 0, 88, 0
16, 444757, Note_on_c, 0, 68, 61
16, 444757, Note_on_c, 0, 81, 61
16, 444800, Note_off_c, 0, 69, 0
16, 444800, Note_on_c, 0, 60, 53
16, 444842, Note_off_c, 0, 68, 0
16, 444842, Note_off_c, 0, 81, 0
16, 444928, Note_off_c, 0, 60, 0
16, 444928, Note_on_c, 0, 73, 80
16, 444928, Note_on_c, 0, 78, 80
16, 444928, Note_on_c, 0, 83, 80
16, 444928, Note_on_c, 0, 88, 80
16, 444928, Note_on_c, 0, 64, 77
16, 445013, Note_off_c, 0, 73, 0
16, 445013, Note_off_c, 0, 78, 0
16, 445013, Note_off_c, 0, 83, 0
16, 445013, Note_off_c, 0, 88, 0
16, 445056, Note_off_c, 0, 64, 0
16, 445056, Note_on_c, 0, 67, 76
16, 445098, Note_on_c, 0, 68, 60
16, 445098, Note_on_c, 0, 81, 60
16, 445183, Note_off_c, 0, 68, 0
16, 445183, Note_off_c, 0, 81, 0
16, 445184, Note_off_c, 0, 67, 0
16, 445312, Note_on_c, 0, 64, 67
16, 445440, Note_off_c, 0, 64, 0
16, 445440, Note_on_c, 0, 65, 81
16, 445440, Note_on_c, 0, 69, 81
16, 445568, Note_off_c, 0, 65, 0
16, 445568, Note_off_c, 0, 69, 0
16, 445568, Note_on_c, 0, 60, 54
16, 445696, Note_off_c, 0, 60, 0
16, 445696, Note_on_c, 0, 65, 89
16, 445696, Note_on_c, 0, 69, 89
16, 445824, Note_off_c, 0, 65, 0
16, 445824, Note_off_c, 0, 69, 0
16, 445824, Note_on_c, 0, 64, 68
16, 445952, Note_off_c, 0, 64, 0
16, 445952, Note_on_c, 0, 65, 83
16, 445952, Note_on_c, 0, 69, 83
16, 446080, Note_off_c, 0, 65, 0
16, 446080, Note_off_c, 0, 69, 0
16, 446080, Note_on_c, 0, 60, 57
16, 446208, Note_off_c, 0, 60, 0
16, 446208, Note_on_c, 0, 65, 83
16, 446208, Note_on_c, 0, 69, 83
16, 446336, Note_off_c, 0, 65, 0
16, 446336, Note_off_c, 0, 69, 0
16, 446336, Note_on_c, 0, 64, 64
16, 446464, Note_off_c, 0, 64, 0
16, 446464, Note_on_c, 0, 65, 80
16, 446464, Note_on_c, 0, 69, 80
16, 446592, Note_off_c, 0, 65, 0
16, 446592, Note_off_c, 0, 69, 0
16, 446592, Note_on_c, 0, 60, 55
16, 446720, Note_off_c, 0, 60, 0
16, 446720, Note_on_c, 0, 65, 85
16, 446720, Note_on_c, 0, 69, 85
16, 446848, Note_off_c, 0, 65, 0
16, 446848, Note_off_c, 0, 69, 0
16, 446848, Note_on_c, 0, 64, 65
16, 446976, Note_off_c, 0, 64, 0
16, 446976, Note_on_c, 0, 65, 83
16, 446976, Note_on_c, 0, 69, 83
16, 447104, Note_off_c, 0, 65, 0
16, 447104, Note_off_c, 0, 69, 0
16, 447104, Note_on_c, 0, 60, 56
16, 447232, Note_off_c, 0, 60, 0
16, 447232, Note_on_c, 0, 65, 83
16, 447232, Note_on_c, 0, 69, 83
16, 447360, Note_off_c, 0, 65, 0
16, 447360, Note_off_c, 0, 69, 0
16, 447360, Note_on_c, 0, 64, 65
16, 447488, Note_off_c, 0, 64, 0
16, 447488, Note_on_c, 0, 65, 85
16, 447488, Note_on_c, 0, 69, 85
16, 447616, Note_off_c, 0, 65, 0
16, 447616, Note_off_c, 0, 69, 0
16, 447616, Note_on_c, 0, 60, 57
16, 447744, Note_off_c, 0, 60, 0
16, 447744, Note_on_c, 0, 65, 83
16, 447744, Note_on_c, 0, 69, 83
16, 447872, Note_off_c, 0, 65, 0
16, 447872, Note_off_c, 0, 69, 0
16, 447872, Note_on_c, 0, 60, 63
16, 448000, Note_off_c, 0, 60, 0
16, 448000, Note_on_c, 0, 64, 75
16, 448128, Note_off_c, 0, 64, 0
16, 448128, Note_on_c, 0, 67, 75
16, 448256, Note_off_c, 0, 67, 0
16, 448256, Note_on_c, 0, 69, 77
16, 448384, Note_off_c, 0, 69, 0
16, 448384, Note_on_c, 0, 60, 57
16, 448512, Note_off_c, 0, 60, 0
16, 448512, Note_on_c, 0, 64, 71
16, 448640, Note_off_c, 0, 64, 0
16, 448640, Note_on_c, 0, 67, 78
16, 448768, Note_off_c, 0, 67, 0
16, 448768, Note_on_c, 0, 69, 86
16, 448896, Note_off_c, 0, 69, 0
16, 448896, Note_on_c, 0, 60, 55
16, 449024, Note_off_c, 0, 60, 0
16, 449024, Note_on_c, 0, 64, 77
16, 449152, Note_off_c, 0, 64, 0
16, 449152, Note_on_c, 0, 67, 78
16, 449280, Note_off_c, 0, 67, 0
16, 449280, Note_on_c, 0, 69, 79
16, 449408, Note_off_c, 0, 69, 0
16, 449408, Note_on_c, 0, 60, 58
16, 449536, Note_off_c, 0, 60, 0
16, 449536, Note_on_c, 0, 64, 76
16, 449664, Note_off_c, 0, 64, 0
16, 449664, Note_on_c, 0, 67, 78
16, 449792, Note_off_c, 0, 67, 0
16, 449792, Note_on_c, 0, 69, 76
16, 449920, Note_off_c, 0, 69, 0
16, 450048, Note_on_c, 0, 60, 63
16, 450176, Note_off_c, 0, 60, 0
16, 450176, Note_on_c, 0, 65, 88
16, 450176, Note_on_c, 0, 69, 88
16, 450304, Note_off_c, 0, 65, 0
16, 450304, Note_off_c, 0, 69, 0
16, 450304, Note_on_c, 0, 64, 63
16, 450432, Note_off_c, 0, 64, 0
16, 450432, Note_on_c, 0, 65, 81
16, 450432, Note_on_c, 0, 69, 81
16, 450560, Note_off_c, 0, 65, 0
16, 450560, Note_off_c, 0, 69, 0
16, 450560, Note_on_c, 0, 60, 59
16, 450688, Note_off_c, 0, 60, 0
16, 450688, Note_on_c, 0, 65, 88
16, 450688, Note_on_c, 0, 69, 88
16, 450816, Note_off_c, 0, 65, 0
16, 450816, Note_off_c, 0, 69, 0
16, 450816, Note_on_c, 0, 64, 63
16, 450944, Note_off_c, 0, 64, 0
16, 450944, Note_on_c, 0, 65, 79
16, 450944, Note_on_c, 0, 69, 79
16, 451072, Note_off_c, 0, 65, 0
16, 451072, Note_off_c, 0, 69, 0
16, 451072, Note_on_c, 0, 60, 63
16, 451200, Note_off_c, 0, 60, 0
16, 451200, Note_on_c, 0, 65, 88
16, 451200, Note_on_c, 0, 69, 88
16, 451328, Note_off_c, 0, 65, 0
16, 451328, Note_off_c, 0, 69, 0
16, 451328, Note_on_c, 0, 64, 65
16, 451456, Note_off_c, 0, 64, 0
16, 451456, Note_on_c, 0, 65, 76
16, 451456, Note_on_c, 0, 69, 76
16, 451584, Note_off_c, 0, 65, 0
16, 451584, Note_off_c, 0, 69, 0
16, 451584, Note_on_c, 0, 60, 58
16, 451712, Note_off_c, 0, 60, 0
16, 451712, Note_on_c, 0, 65, 83
16, 451712, Note_on_c, 0, 69, 83
16, 451840, Note_off_c, 0, 65, 0
16, 451840, Note_off_c, 0, 69, 0
16, 451840, Note_on_c, 0, 64, 66
16, 451968, Note_off_c, 0, 64, 0
16, 451968, Note_on_c, 0, 67, 77
16, 452096, Note_off_c, 0, 67, 0
16, 452096, Note_on_c, 0, 74, 82
16, 452224, Note_off_c, 0, 74, 0
16, 452224, Note_on_c, 0, 64, 57
16, 452352, Note_off_c, 0, 64, 0
16, 452352, Note_on_c, 0, 67, 81
16, 452480, Note_off_c, 0, 67, 0
16, 452480, Note_on_c, 0, 74, 86
16, 452608, Note_off_c, 0, 74, 0
16, 452608, Note_on_c, 0, 64, 57
16, 452736, Note_off_c, 0, 64, 0
16, 452736, Note_on_c, 0, 67, 76
16, 452864, Note_off_c, 0, 67, 0
16, 452864, Note_on_c, 0, 74, 86
16, 452992, Note_off_c, 0, 74, 0
16, 452992, Note_on_c, 0, 64, 55
16, 453120, Note_off_c, 0, 64, 0
16, 453120, Note_on_c, 0, 67, 73
16, 453248, Note_off_c, 0, 67, 0
16, 453248, Note_on_c, 0, 74, 81
16, 453376, Note_off_c, 0, 74, 0
16, 453376, Note_on_c, 0, 64, 53
16, 453504, Note_off_c, 0, 64, 0
16, 453504, Note_on_c, 0, 67, 70
16, 453632, Note_off_c, 0, 67, 0
16, 453760, Note_on_c, 0, 64, 62
16, 453888, Note_off_c, 0, 64, 0
16, 453888, Note_on_c, 0, 67, 78
16, 454016, Note_off_c, 0, 67, 0
16, 454016, Note_on_c, 0, 74, 83
16, 454144, Note_off_c, 0, 74, 0
16, 454144, Note_on_c, 0, 67, 62
16, 454272, Note_off_c, 0, 67, 0
16, 454272, Note_on_c, 0, 74, 84
16, 454400, Note_off_c, 0, 74, 0
16, 454400, Note_on_c, 0, 64, 57
16, 454528, Note_off_c, 0, 64, 0
16, 454528, Note_on_c, 0, 67, 74
16, 454656, Note_off_c, 0, 67, 0
16, 454656, Note_on_c, 0, 74, 84
16, 454784, Note_off_c, 0, 74, 0
16, 454784, Note_on_c, 0, 64, 54
16, 454912, Note_off_c, 0, 64, 0
16, 454912, Note_on_c, 0, 67, 74
16, 455040, Note_off_c, 0, 67, 0
16, 455040, Note_on_c, 0, 74, 84
16, 455168, Note_off_c, 0, 74, 0
16, 455168, Note_on_c, 0, 67, 59
16, 455296, Note_off_c, 0, 67, 0
16, 455296, Note_on_c, 0, 74, 86
16, 455424, Note_off_c, 0, 74, 0
16, 455424, Note_on_c, 0, 64, 57
16, 455552, Note_off_c, 0, 64, 0
16, 455552, Note_on_c, 0, 67, 75
16, 455680, Note_off_c, 0, 67, 0
16, 455680, Note_on_c, 0, 74, 89
16, 455808, Note_off_c, 0, 74, 0
16, 455808, Note_on_c, 0, 64, 56
16, 455936, Note_off_c, 0, 64, 0
16, 455936, Note_on_c, 0, 67, 78
16, 456064, Note_off_c, 0, 67, 0
16, 456064, Note_on_c, 0, 74, 83
16, 456192, Note_off_c, 0, 74, 0
16, 456192, Note_on_c, 0, 67, 68
16, 456320, Note_off_c, 0, 67, 0
16, 456320, Note_on_c, 0, 74, 83
16, 456448, Note_off_c, 0, 74, 0
16, 456448, Note_on_c, 0, 64, 57
16, 456576, Note_off_c, 0, 64, 0
16, 456576, Note_on_c, 0, 67, 75
16, 456704, Note_off_c, 0, 67, 0
16, 456704, Note_on_c, 0, 74, 81
16, 456832, Note_off_c, 0, 74, 0
16, 456832, Note_on_c, 0, 67, 64
16, 456960, Note_off_c, 0, 67, 0
16, 456960, Note_on_c, 0, 65, 65
16, 457088, Note_off_c, 0, 65, 0
16, 457088, Note_on_c, 0, 74, 82
16, 457216, Note_off_c, 0, 74, 0
16, 457216, Note_on_c, 0, 67, 60
16, 457344, Note_off_c, 0, 67, 0
16, 457344, Note_on_c, 0, 65, 63
16, 457472, Note_off_c, 0, 65, 0
16, 457472, Note_on_c, 0, 74, 90
16, 457600, Note_off_c, 0, 74, 0
16, 457600, Note_on_c, 0, 67, 56
16, 457728, Note_off_c, 0, 67, 0
16, 457856, Note_on_c, 0, 65, 62
16, 457984, Note_off_c, 0, 65, 0
16, 457984, Note_on_c, 0, 71, 82
16, 457984, Note_on_c, 0, 72, 82
16, 458112, Note_off_c, 0, 71, 0
16, 458112, Note_off_c, 0, 72, 0
16, 458112, Note_on_c, 0, 64, 63
16, 458112, Note_on_c, 0, 67, 63
16, 458240, Note_off_c, 0, 64, 0
16, 458240, Note_off_c, 0, 67, 0
16, 458240, Note_on_c, 0, 71, 80
16, 458240, Note_on_c, 0, 72, 80
16, 458368, Note_off_c, 0, 71, 0
16, 458368, Note_off_c, 0, 72, 0
16, 458368, Note_on_c, 0, 64, 64
16, 458368, Note_on_c, 0, 67, 64
16, 458496, Note_off_c, 0, 64, 0
16, 458496, Note_off_c, 0, 67, 0
16, 458496, Note_on_c, 0, 71, 82
16, 458496, Note_on_c, 0, 72, 82
16, 458624, Note_off_c, 0, 71, 0
16, 458624, Note_off_c, 0, 72, 0
16, 458624, Note_on_c, 0, 64, 64
16, 458624, Note_on_c, 0, 67, 64
16, 458752, Note_off_c, 0, 64, 0
16, 458752, Note_off_c, 0, 67, 0
16, 458752, Note_on_c, 0, 71, 80
16, 458752, Note_on_c, 0, 72, 80
16, 458880, Note_off_c, 0, 71, 0
16, 458880, Note_off_c, 0, 72, 0
16, 458880, Note_on_c, 0, 64, 65
16, 458880, Note_on_c, 0, 67, 65
16, 459008, Note_off_c, 0, 64, 0
16, 459008, Note_off_c, 0, 67, 0
16, 459008, Note_on_c, 0, 71, 80
16, 459008, Note_on_c, 0, 72, 80
16, 459136, Note_off_c, 0, 71, 0
16, 459136, Note_off_c, 0, 72, 0
16, 459136, Note_on_c, 0, 64, 66
16, 459136, Note_on_c, 0, 67, 66
16, 459264, Note_off_c, 0, 64, 0
16, 459264, Note_off_c, 0, 67, 0
16, 459264, Note_on_c, 0, 71, 80
16, 459264, Note_on_c, 0, 72, 80
16, 459392, Note_off_c, 0, 71, 0
16, 459392, Note_off_c, 0, 72, 0
16, 459392, Note_on_c, 0, 64, 60
16, 459392, Note_on_c, 0, 67, 60
16, 459520, Note_off_c, 0, 64, 0
16, 459520, Note_off_c, 0, 67, 0
16, 459520, Note_on_c, 0, 71, 81
16, 459520, Note_on_c, 0, 72, 81
16, 459648, Note_off_c, 0, 71, 0
16, 459648, Note_off_c, 0, 72, 0
16, 459648, Note_on_c, 0, 64, 67
16, 459648, Note_on_c, 0, 67, 67
16, 459776, Note_off_c, 0, 64, 0
16, 459776, Note_off_c, 0, 67, 0
16, 459904, Note_on_c, 0, 64, 62
16, 460032, Note_off_c, 0, 64, 0
16, 460032, Note_on_c, 0, 74, 88
16, 460160, Note_off_c, 0, 74, 0
16, 460160, Note_on_c, 0, 67, 58
16, 460288, Note_off_c, 0, 67, 0
16, 460288, Note_on_c, 0, 65, 63
16, 460416, Note_off_c, 0, 65, 0
16, 460416, Note_on_c, 0, 74, 84
16, 460544, Note_off_c, 0, 74, 0
16, 460544, Note_on_c, 0, 67, 59
16, 460672, Note_off_c, 0, 67, 0
16, 460672, Note_on_c, 0, 65, 72
16, 460800, Note_off_c, 0, 65, 0
16, 460800, Note_on_c, 0, 74, 84
16, 460928, Note_off_c, 0, 74, 0
16, 460928, Note_on_c, 0, 67, 63
16, 461056, Note_off_c, 0, 67, 0
16, 461056, Note_on_c, 0, 64, 61
16, 461184, Note_off_c, 0, 64, 0
16, 461184, Note_on_c, 0, 67, 77
16, 461312, Note_off_c, 0, 67, 0
16, 461312, Note_on_c, 0, 74, 81
16, 461440, Note_off_c, 0, 74, 0
16, 461440, Note_on_c, 0, 67, 58
16, 461568, Note_off_c, 0, 67, 0
16, 461568, Note_on_c, 0, 74, 87
16, 461696, Note_off_c, 0, 74, 0
16, 461696, Note_on_c, 0, 64, 55
16, 461824, Note_off_c, 0, 64, 0
16, 461824, Note_on_c, 0, 67, 76
16, 461952, Note_off_c, 0, 67, 0
16, 461952, Note_on_c, 0, 74, 84
16, 462080, Note_off_c, 0, 74, 0
16, 462080, Note_on_c, 0, 67, 65
16, 462208, Note_off_c, 0, 67, 0
16, 462208, Note_on_c, 0, 65, 66
16, 462336, Note_off_c, 0, 65, 0
16, 462336, Note_on_c, 0, 74, 88
16, 462464, Note_off_c, 0, 74, 0
16, 462464, Note_on_c, 0, 67, 63
16, 462592, Note_off_c, 0, 67, 0
16, 462720, Note_on_c, 0, 72, 61
16, 462720, Note_on_c, 0, 74, 61
16, 462848, Note_off_c, 0, 72, 0
16, 462848, Note_off_c, 0, 74, 0
16, 462848, Note_on_c, 0, 72, 69
16, 462848, Note_on_c, 0, 74, 69
16, 462976, Note_off_c, 0, 72, 0
16, 462976, Note_off_c, 0, 74, 0
16, 462976, Note_on_c, 0, 62, 60
16, 462976, Note_on_c, 0, 67, 60
16, 463104, Note_off_c, 0, 62, 0
16, 463104, Note_off_c, 0, 67, 0
16, 463104, Note_on_c, 0, 71, 76
16, 463104, Note_on_c, 0, 72, 76
16, 463232, Note_off_c, 0, 71, 0
16, 463232, Note_off_c, 0, 72, 0
16, 463232, Note_on_c, 0, 64, 62
16, 463232, Note_on_c, 0, 67, 62
16, 463360, Note_off_c, 0, 64, 0
16, 463360, Note_off_c, 0, 67, 0
16, 463360, Note_on_c, 0, 72, 88
16, 463360, Note_on_c, 0, 74, 88
16, 463488, Note_off_c, 0, 72, 0
16, 463488, Note_off_c, 0, 74, 0
16, 463488, Note_on_c, 0, 62, 56
16, 463488, Note_on_c, 0, 67, 56
16, 463616, Note_off_c, 0, 62, 0
16, 463616, Note_off_c, 0, 67, 0
16, 463616, Note_on_c, 0, 71, 81
16, 463616, Note_on_c, 0, 72, 81
16, 463744, Note_off_c, 0, 71, 0
16, 463744, Note_off_c, 0, 72, 0
16, 463744, Note_on_c, 0, 64, 64
16, 463744, Note_on_c, 0, 67, 64
16, 463872, Note_off_c, 0, 64, 0
16, 463872, Note_off_c, 0, 67, 0
16, 463872, Note_on_c, 0, 72, 84
16, 463872, Note_on_c, 0, 74, 84
16, 464000, Note_off_c, 0, 72, 0
16, 464000, Note_off_c, 0, 74, 0
16, 464000, Note_on_c, 0, 64, 61
16, 464000, Note_on_c, 0, 67, 61
16, 464128, Note_off_c, 0, 64, 0
16, 464128, Note_off_c, 0, 67, 0
16, 464128, Note_on_c, 0, 71, 82
16, 464128, Note_on_c, 0, 72, 82
16, 464256, Note_off_c, 0, 71, 0
16, 464256, Note_off_c, 0, 72, 0
16, 464256, Note_on_c, 0, 64, 66
16, 464256, Note_on_c, 0, 67, 66
16, 464384, Note_off_c, 0, 64, 0
16, 464384, Note_off_c, 0, 67, 0
16, 464384, Note_on_c, 0, 72, 81
16, 464384, Note_on_c, 0, 74, 81
16, 464512, Note_off_c, 0, 72, 0
16, 464512, Note_off_c, 0, 74, 0
16, 464512, Note_on_c, 0, 64, 60
16, 464512, Note_on_c, 0, 67, 60
16, 464640, Note_off_c, 0, 64, 0
16, 464640, Note_off_c, 0, 67, 0
16, 464768, Note_on_c, 0, 67, 65
16, 464896, Note_off_c, 0, 67, 0
16, 464896, Note_on_c, 0, 69, 79
16, 465024, Note_off_c, 0, 69, 0
16, 465024, Note_on_c, 0, 60, 57
16, 465152, Note_off_c, 0, 60, 0
16, 465152, Note_on_c, 0, 64, 73
16, 465280, Note_off_c, 0, 64, 0
16, 465280, Note_on_c, 0, 67, 73
16, 465408, Note_off_c, 0, 67, 0
16, 465408, Note_on_c, 0, 69, 76
16, 465536, Note_off_c, 0, 69, 0
16, 465536, Note_on_c, 0, 60, 56
16, 465664, Note_off_c, 0, 60, 0
16, 465664, Note_on_c, 0, 64, 75
16, 465792, Note_off_c, 0, 64, 0
16, 465792, Note_on_c, 0, 67, 78
16, 465920, Note_off_c, 0, 67, 0
16, 465920, Note_on_c, 0, 69, 79
16, 466048, Note_off_c, 0, 69, 0
16, 466048, Note_on_c, 0, 60, 60
16, 466176, Note_off_c, 0, 60, 0
16, 466176, Note_on_c, 0, 64, 77
16, 466304, Note_off_c, 0, 64, 0
16, 466304, Note_on_c, 0, 67, 77
16, 466432, Note_off_c, 0, 67, 0
16, 466432, Note_on_c, 0, 69, 79
16, 466560, Note_off_c, 0, 69, 0
16, 466560, Note_on_c, 0, 60, 58
16, 466688, Note_off_c, 0, 60, 0
16, 466688, Note_on_c, 0, 64, 76
16, 466816, Note_off_c, 0, 64, 0
16, 466816, Note_on_c, 0, 67, 73
16, 466944, Note_off_c, 0, 67, 0
16, 466944, Note_on_c, 0, 69, 79
16, 467072, Note_off_c, 0, 69, 0
16, 467072, Note_on_c, 0, 72, 74
16, 467200, Note_off_c, 0, 72, 0
16, 467200, Note_on_c, 0, 60, 50
16, 467328, Note_off_c, 0, 60, 0
16, 467328, Note_on_c, 0, 62, 72
16, 467456, Note_off_c, 0, 62, 0
16, 467456, Note_on_c, 0, 67, 83
16, 467584, Note_off_c, 0, 67, 0
16, 467584, Note_on_c, 0, 72, 83
16, 467712, Note_off_c, 0, 72, 0
16, 467712, Note_on_c, 0, 60, 51
16, 467840, Note_off_c, 0, 60, 0
16, 467840, Note_on_c, 0, 64, 76
16, 467968, Note_off_c, 0, 64, 0
16, 467969, End_track
17, 0, Start_track
17, 0, Program_c, 11, 0
17, 0, Control_c, 11, 121, 0
17, 0, Control_c, 11, 64, 0
17, 0, Control_c, 11, 91, 48
17, 0, Control_c, 11, 10, 51
17, 0, Control_c, 11, 7, 95
17, 0, Control_c, 11, 121, 0
17, 0, Control_c, 11, 64, 0
17, 0, Control_c, 11, 91, 48
17, 0, Control_c, 11, 10, 51
17, 0, Control_c, 11, 7, 95
17, 0, Title_t, "Piano"
17, 0, Note_on_c, 11, 56, 55
17, 0, Note_on_c, 11, 60, 55
17, 0, Note_on_c, 11, 63, 55
17, 128, Note_off_c, 11, 56, 0
17, 128, Note_off_c, 11, 60, 0
17, 128, Note_off_c, 11, 63, 0
17, 128, Note_on_c, 11, 56, 62
17, 128, Note_on_c, 11, 60, 62
17, 128, Note_on_c, 11, 63, 62
17, 256, Note_off_c, 11, 56, 0
17, 256, Note_off_c, 11, 60, 0
17, 256, Note_off_c, 11, 63, 0
17, 256, Note_on_c, 11, 56, 61
17, 256, Note_on_c, 11, 60, 61
17, 256, Note_on_c, 11, 63, 61
17, 384, Note_off_c, 11, 56, 0
17, 384, Note_off_c, 11, 60, 0
17, 384, Note_off_c, 11, 63, 0
17, 384, Note_on_c, 11, 56, 63
17, 384, Note_on_c, 11, 60, 63
17, 384, Note_on_c, 11, 63, 63
17, 512, Note_off_c, 11, 56, 0
17, 512, Note_off_c, 11, 60, 0
17, 512, Note_off_c, 11, 63, 0
17, 512, Note_on_c, 11, 56, 61
17, 512, Note_on_c, 11, 60, 61
17, 512, Note_on_c, 11, 63, 61
17, 640, Note_off_c, 11, 56, 0
17, 640, Note_off_c, 11, 60, 0
17, 640, Note_off_c, 11, 63, 0
17, 640, Note_on_c, 11, 56, 62
17, 640, Note_on_c, 11, 60, 62
17, 640, Note_on_c, 11, 63, 62
17, 768, Note_off_c, 11, 56, 0
17, 768, Note_off_c, 11, 60, 0
17, 768, Note_off_c, 11, 63, 0
17, 768, Note_on_c, 11, 56, 62
17, 768, Note_on_c, 11, 60, 62
17, 768, Note_on_c, 11, 63, 62
17, 896, Note_off_c, 11, 56, 0
17, 896, Note_off_c, 11, 60, 0
17, 896, Note_off_c, 11, 63, 0
17, 896, Note_on_c, 11, 56, 59
17, 896, Note_on_c, 11, 60, 59
17, 896, Note_on_c, 11, 63, 59
17, 1024, Note_off_c, 11, 56, 0
17, 1024, Note_off_c, 11, 60, 0
17, 1024, Note_off_c, 11, 63, 0
17, 1024, Note_on_c, 11, 56, 62
17, 1024, Note_on_c, 11, 60, 62
17, 1024, Note_on_c, 11, 63, 62
17, 1126, Note_off_c, 11, 56, 0
17, 1126, Note_off_c, 11, 60, 0
17, 1126, Note_off_c, 11, 63, 0
17, 1152, Note_on_c, 11, 56, 62
17, 1152, Note_on_c, 11, 60, 62
17, 1152, Note_on_c, 11, 63, 62
17, 1254, Note_off_c, 11, 56, 0
17, 1254, Note_off_c, 11, 60, 0
17, 1254, Note_off_c, 11, 63, 0
17, 1280, Note_on_c, 11, 56, 62
17, 1280, Note_on_c, 11, 60, 62
17, 1280, Note_on_c, 11, 63, 62
17, 1382, Note_off_c, 11, 56, 0
17, 1382, Note_off_c, 11, 60, 0
17, 1382, Note_off_c, 11, 63, 0
17, 1408, Note_on_c, 11, 56, 62
17, 1408, Note_on_c, 11, 60, 62
17, 1408, Note_on_c, 11, 63, 62
17, 1510, Note_off_c, 11, 56, 0
17, 1510, Note_off_c, 11, 60, 0
17, 1510, Note_off_c, 11, 63, 0
17, 1536, Note_on_c, 11, 56, 64
17, 1536, Note_on_c, 11, 60, 64
17, 1536, Note_on_c, 11, 63, 64
17, 1664, Note_off_c, 11, 56, 0
17, 1664, Note_off_c, 11, 60, 0
17, 1664, Note_off_c, 11, 63, 0
17, 1664, Note_on_c, 11, 56, 65
17, 1664, Note_on_c, 11, 60, 65
17, 1664, Note_on_c, 11, 65, 65
17, 1766, Note_off_c, 11, 56, 0
17, 1766, Note_off_c, 11, 60, 0
17, 1766, Note_off_c, 11, 65, 0
17, 1792, Note_on_c, 11, 56, 65
17, 1792, Note_on_c, 11, 60, 65
17, 1792, Note_on_c, 11, 65, 65
17, 1894, Note_off_c, 11, 56, 0
17, 1894, Note_off_c, 11, 60, 0
17, 1894, Note_off_c, 11, 65, 0
17, 1920, Note_on_c, 11, 56, 65
17, 1920, Note_on_c, 11, 60, 65
17, 1920, Note_on_c, 11, 65, 65
17, 2022, Note_off_c, 11, 56, 0
17, 2022, Note_off_c, 11, 60, 0
17, 2022, Note_off_c, 11, 65, 0
17, 2048, Note_on_c, 11, 56, 63
17, 2048, Note_on_c, 11, 60, 63
17, 2048, Note_on_c, 11, 65, 63
17, 2150, Note_off_c, 11, 56, 0
17, 2150, Note_off_c, 11, 60, 0
17, 2150, Note_off_c, 11, 65, 0
17, 2176, Note_on_c, 11, 56, 63
17, 2176, Note_on_c, 11, 60, 63
17, 2176, Note_on_c, 11, 65, 63
17, 2278, Note_off_c, 11, 56, 0
17, 2278, Note_off_c, 11, 60, 0
17, 2278, Note_off_c, 11, 65, 0
17, 2304, Note_on_c, 11, 56, 63
17, 2304, Note_on_c, 11, 60, 63
17, 2304, Note_on_c, 11, 65, 63
17, 2406, Note_off_c, 11, 56, 0
17, 2406, Note_off_c, 11, 60, 0
17, 2406, Note_off_c, 11, 65, 0
17, 2432, Note_on_c, 11, 57, 56
17, 2432, Note_on_c, 11, 60, 56
17, 2432, Note_on_c, 11, 65, 56
17, 2560, Note_off_c, 11, 57, 0
17, 2560, Note_off_c, 11, 60, 0
17, 2560, Note_off_c, 11, 65, 0
17, 2560, Note_on_c, 11, 57, 58
17, 2560, Note_on_c, 11, 60, 58
17, 2560, Note_on_c, 11, 65, 58
17, 2662, Note_off_c, 11, 57, 0
17, 2662, Note_off_c, 11, 60, 0
17, 2662, Note_off_c, 11, 65, 0
17, 2688, Note_on_c, 11, 57, 58
17, 2688, Note_on_c, 11, 60, 58
17, 2688, Note_on_c, 11, 65, 58
17, 2790, Note_off_c, 11, 57, 0
17, 2790, Note_off_c, 11, 60, 0
17, 2790, Note_off_c, 11, 65, 0
17, 2816, Note_on_c, 11, 57, 58
17, 2816, Note_on_c, 11, 60, 58
17, 2816, Note_on_c, 11, 65, 58
17, 2918, Note_off_c, 11, 57, 0
17, 2918, Note_off_c, 11, 60, 0
17, 2918, Note_off_c, 11, 65, 0
17, 2944, Note_on_c, 11, 57, 58
17, 2944, Note_on_c, 11, 60, 58
17, 2944, Note_on_c, 11, 65, 58
17, 3046, Note_off_c, 11, 57, 0
17, 3046, Note_off_c, 11, 60, 0
17, 3046, Note_off_c, 11, 65, 0
17, 3072, Note_on_c, 11, 57, 60
17, 3072, Note_on_c, 11, 60, 60
17, 3072, Note_on_c, 11, 65, 60
17, 3174, Note_off_c, 11, 57, 0
17, 3174, Note_off_c, 11, 60, 0
17, 3174, Note_off_c, 11, 65, 0
17, 3200, Note_on_c, 11, 57, 60
17, 3200, Note_on_c, 11, 60, 60
17, 3200, Note_on_c, 11, 65, 60
17, 3302, Note_off_c, 11, 57, 0
17, 3302, Note_off_c, 11, 60, 0
17, 3302, Note_off_c, 11, 65, 0
17, 3328, Note_on_c, 11, 57, 64
17, 3328, Note_on_c, 11, 62, 64
17, 3328, Note_on_c, 11, 65, 64
17, 3430, Note_off_c, 11, 57, 0
17, 3430, Note_off_c, 11, 62, 0
17, 3430, Note_off_c, 11, 65, 0
17, 3456, Note_on_c, 11, 57, 64
17, 3456, Note_on_c, 11, 62, 64
17, 3456, Note_on_c, 11, 65, 64
17, 3558, Note_off_c, 11, 57, 0
17, 3558, Note_off_c, 11, 62, 0
17, 3558, Note_off_c, 11, 65, 0
17, 3584, Note_on_c, 11, 57, 64
17, 3584, Note_on_c, 11, 62, 64
17, 3584, Note_on_c, 11, 65, 64
17, 3686, Note_off_c, 11, 57, 0
17, 3686, Note_off_c, 11, 62, 0
17, 3686, Note_off_c, 11, 65, 0
17, 3712, Note_on_c, 11, 57, 64
17, 3712, Note_on_c, 11, 62, 64
17, 3712, Note_on_c, 11, 65, 64
17, 3814, Note_off_c, 11, 57, 0
17, 3814, Note_off_c, 11, 62, 0
17, 3814, Note_off_c, 11, 65, 0
17, 3840, Note_on_c, 11, 57, 64
17, 3840, Note_on_c, 11, 62, 64
17, 3840, Note_on_c, 11, 65, 64
17, 3942, Note_off_c, 11, 57, 0
17, 3942, Note_off_c, 11, 62, 0
17, 3942, Note_off_c, 11, 65, 0
17, 3968, Note_on_c, 11, 57, 64
17, 3968, Note_on_c, 11, 62, 64
17, 3968, Note_on_c, 11, 65, 64
17, 4070, Note_off_c, 11, 57, 0
17, 4070, Note_off_c, 11, 62, 0
17, 4070, Note_off_c, 11, 65, 0
17, 4096, Note_on_c, 11, 57, 63
17, 4096, Note_on_c, 11, 62, 63
17, 4096, Note_on_c, 11, 65, 63
17, 4198, Note_off_c, 11, 57, 0
17, 4198, Note_off_c, 11, 62, 0
17, 4198, Note_off_c, 11, 65, 0
17, 4224, Note_on_c, 11, 57, 63
17, 4224, Note_on_c, 11, 62, 63
17, 4224, Note_on_c, 11, 65, 63
17, 4326, Note_off_c, 11, 57, 0
17, 4326, Note_off_c, 11, 62, 0
17, 4326, Note_off_c, 11, 65, 0
17, 4352, Note_on_c, 11, 57, 63
17, 4352, Note_on_c, 11, 62, 63
17, 4352, Note_on_c, 11, 65, 63
17, 4454, Note_off_c, 11, 57, 0
17, 4454, Note_off_c, 11, 62, 0
17, 4454, Note_off_c, 11, 65, 0
17, 4480, Note_on_c, 11, 57, 66
17, 4480, Note_on_c, 11, 61, 66
17, 4480, Note_on_c, 11, 66, 66
17, 4608, Note_off_c, 11, 57, 0
17, 4608, Note_off_c, 11, 61, 0
17, 4608, Note_off_c, 11, 66, 0
17, 4608, Note_on_c, 11, 57, 62
17, 4608, Note_on_c, 11, 61, 62
17, 4608, Note_on_c, 11, 66, 62
17, 4710, Note_off_c, 11, 57, 0
17, 4710, Note_off_c, 11, 61, 0
17, 4710, Note_off_c, 11, 66, 0
17, 4736, Note_on_c, 11, 57, 62
17, 4736, Note_on_c, 11, 61, 62
17, 4736, Note_on_c, 11, 66, 62
17, 4838, Note_off_c, 11, 57, 0
17, 4838, Note_off_c, 11, 61, 0
17, 4838, Note_off_c, 11, 66, 0
17, 4864, Note_on_c, 11, 57, 62
17, 4864, Note_on_c, 11, 61, 62
17, 4864, Note_on_c, 11, 66, 62
17, 4966, Note_off_c, 11, 57, 0
17, 4966, Note_off_c, 11, 61, 0
17, 4966, Note_off_c, 11, 66, 0
17, 4992, Note_on_c, 11, 57, 62
17, 4992, Note_on_c, 11, 61, 62
17, 4992, Note_on_c, 11, 66, 62
17, 5094, Note_off_c, 11, 57, 0
17, 5094, Note_off_c, 11, 61, 0
17, 5094, Note_off_c, 11, 66, 0
17, 5120, Note_on_c, 11, 57, 63
17, 5120, Note_on_c, 11, 61, 63
17, 5120, Note_on_c, 11, 66, 63
17, 5248, Note_off_c, 11, 57, 0
17, 5248, Note_off_c, 11, 61, 0
17, 5248, Note_off_c, 11, 66, 0
17, 5248, Note_on_c, 11, 58, 59
17, 5248, Note_on_c, 11, 61, 59
17, 5248, Note_on_c, 11, 65, 59
17, 5350, Note_off_c, 11, 58, 0
17, 5350, Note_off_c, 11, 61, 0
17, 5350, Note_off_c, 11, 65, 0
17, 5376, Note_on_c, 11, 58, 59
17, 5376, Note_on_c, 11, 61, 59
17, 5376, Note_on_c, 11, 65, 59
17, 5478, Note_off_c, 11, 58, 0
17, 5478, Note_off_c, 11, 61, 0
17, 5478, Note_off_c, 11, 65, 0
17, 5504, Note_on_c, 11, 58, 59
17, 5504, Note_on_c, 11, 61, 59
17, 5504, Note_on_c, 11, 65, 59
17, 5606, Note_off_c, 11, 58, 0
17, 5606, Note_off_c, 11, 61, 0
17, 5606, Note_off_c, 11, 65, 0
17, 5632, Note_on_c, 11, 58, 59
17, 5632, Note_on_c, 11, 61, 59
17, 5632, Note_on_c, 11, 65, 59
17, 5734, Note_off_c, 11, 58, 0
17, 5734, Note_off_c, 11, 61, 0
17, 5734, Note_off_c, 11, 65, 0
17, 5760, Note_on_c, 11, 58, 59
17, 5760, Note_on_c, 11, 61, 59
17, 5760, Note_on_c, 11, 65, 59
17, 5862, Note_off_c, 11, 58, 0
17, 5862, Note_off_c, 11, 61, 0
17, 5862, Note_off_c, 11, 65, 0
17, 5888, Note_on_c, 11, 58, 59
17, 5888, Note_on_c, 11, 61, 59
17, 5888, Note_on_c, 11, 65, 59
17, 5990, Note_off_c, 11, 58, 0
17, 5990, Note_off_c, 11, 61, 0
17, 5990, Note_off_c, 11, 65, 0
17, 6016, Note_on_c, 11, 58, 59
17, 6016, Note_on_c, 11, 61, 59
17, 6016, Note_on_c, 11, 65, 59
17, 6118, Note_off_c, 11, 58, 0
17, 6118, Note_off_c, 11, 61, 0
17, 6118, Note_off_c, 11, 65, 0
17, 6144, Note_on_c, 11, 58, 61
17, 6144, Note_on_c, 11, 61, 61
17, 6144, Note_on_c, 11, 65, 61
17, 6272, Note_off_c, 11, 58, 0
17, 6272, Note_off_c, 11, 61, 0
17, 6272, Note_off_c, 11, 65, 0
17, 6272, Note_on_c, 11, 57, 62
17, 6272, Note_on_c, 11, 62, 62
17, 6272, Note_on_c, 11, 65, 62
17, 6374, Note_off_c, 11, 57, 0
17, 6374, Note_off_c, 11, 62, 0
17, 6374, Note_off_c, 11, 65, 0
17, 6400, Note_on_c, 11, 57, 62
17, 6400, Note_on_c, 11, 62, 62
17, 6400, Note_on_c, 11, 65, 62
17, 6502, Note_off_c, 11, 57, 0
17, 6502, Note_off_c, 11, 62, 0
17, 6502, Note_off_c, 11, 65, 0
17, 6528, Note_on_c, 11, 57, 62
17, 6528, Note_on_c, 11, 62, 62
17, 6528, Note_on_c, 11, 65, 62
17, 6630, Note_off_c, 11, 57, 0
17, 6630, Note_off_c, 11, 62, 0
17, 6630, Note_off_c, 11, 65, 0
17, 6656, Note_on_c, 11, 57, 62
17, 6656, Note_on_c, 11, 62, 62
17, 6656, Note_on_c, 11, 65, 62
17, 6784, Note_off_c, 11, 57, 0
17, 6784, Note_off_c, 11, 62, 0
17, 6784, Note_off_c, 11, 65, 0
17, 6784, Note_on_c, 11, 57, 66
17, 6784, Note_on_c, 11, 61, 66
17, 6784, Note_on_c, 11, 66, 66
17, 6886, Note_off_c, 11, 57, 0
17, 6886, Note_off_c, 11, 61, 0
17, 6886, Note_off_c, 11, 66, 0
17, 6912, Note_on_c, 11, 57, 66
17, 6912, Note_on_c, 11, 61, 66
17, 6912, Note_on_c, 11, 66, 66
17, 7014, Note_off_c, 11, 57, 0
17, 7014, Note_off_c, 11, 61, 0
17, 7014, Note_off_c, 11, 66, 0
17, 7040, Note_on_c, 11, 57, 66
17, 7040, Note_on_c, 11, 61, 66
17, 7040, Note_on_c, 11, 66, 66
17, 7142, Note_off_c, 11, 57, 0
17, 7142, Note_off_c, 11, 61, 0
17, 7142, Note_off_c, 11, 66, 0
17, 7168, Note_on_c, 11, 57, 59
17, 7168, Note_on_c, 11, 61, 59
17, 7168, Note_on_c, 11, 66, 59
17, 7270, Note_off_c, 11, 57, 0
17, 7270, Note_off_c, 11, 61, 0
17, 7270, Note_off_c, 11, 66, 0
17, 7296, Note_on_c, 11, 57, 59
17, 7296, Note_on_c, 11, 61, 59
17, 7296, Note_on_c, 11, 66, 59
17, 7398, Note_off_c, 11, 57, 0
17, 7398, Note_off_c, 11, 61, 0
17, 7398, Note_off_c, 11, 66, 0
17, 7424, Note_on_c, 11, 57, 59
17, 7424, Note_on_c, 11, 61, 59
17, 7424, Note_on_c, 11, 66, 59
17, 7526, Note_off_c, 11, 57, 0
17, 7526, Note_off_c, 11, 61, 0
17, 7526, Note_off_c, 11, 66, 0
17, 7552, Note_on_c, 11, 58, 56
17, 7552, Note_on_c, 11, 61, 56
17, 7552, Note_on_c, 11, 65, 56
17, 7680, Note_off_c, 11, 58, 0
17, 7680, Note_off_c, 11, 61, 0
17, 7680, Note_off_c, 11, 65, 0
17, 7680, Note_on_c, 11, 58, 58
17, 7680, Note_on_c, 11, 61, 58
17, 7680, Note_on_c, 11, 65, 58
17, 7782, Note_off_c, 11, 58, 0
17, 7782, Note_off_c, 11, 61, 0
17, 7782, Note_off_c, 11, 65, 0
17, 7808, Note_on_c, 11, 58, 58
17, 7808, Note_on_c, 11, 61, 58
17, 7808, Note_on_c, 11, 65, 58
17, 7910, Note_off_c, 11, 58, 0
17, 7910, Note_off_c, 11, 61, 0
17, 7910, Note_off_c, 11, 65, 0
17, 7936, Note_on_c, 11, 58, 58
17, 7936, Note_on_c, 11, 61, 58
17, 7936, Note_on_c, 11, 65, 58
17, 8038, Note_off_c, 11, 58, 0
17, 8038, Note_off_c, 11, 61, 0
17, 8038, Note_off_c, 11, 65, 0
17, 8064, Note_on_c, 11, 58, 58
17, 8064, Note_on_c, 11, 61, 58
17, 8064, Note_on_c, 11, 65, 58
17, 8166, Note_off_c, 11, 58, 0
17, 8166, Note_off_c, 11, 61, 0
17, 8166, Note_off_c, 11, 65, 0
17, 8192, Note_on_c, 11, 58, 62
17, 8192, Note_on_c, 11, 61, 62
17, 8192, Note_on_c, 11, 65, 62
17, 8320, Note_off_c, 11, 58, 0
17, 8320, Note_off_c, 11, 61, 0
17, 8320, Note_off_c, 11, 65, 0
17, 8320, Note_on_c, 11, 59, 67
17, 8320, Note_on_c, 11, 62, 67
17, 8320, Note_on_c, 11, 65, 67
17, 8422, Note_off_c, 11, 59, 0
17, 8422, Note_off_c, 11, 62, 0
17, 8422, Note_off_c, 11, 65, 0
17, 8448, Note_on_c, 11, 59, 67
17, 8448, Note_on_c, 11, 62, 67
17, 8448, Note_on_c, 11, 65, 67
17, 8550, Note_off_c, 11, 59, 0
17, 8550, Note_off_c, 11, 62, 0
17, 8550, Note_off_c, 11, 65, 0
17, 8576, Note_on_c, 11, 59, 67
17, 8576, Note_on_c, 11, 62, 67
17, 8576, Note_on_c, 11, 65, 67
17, 8678, Note_off_c, 11, 59, 0
17, 8678, Note_off_c, 11, 62, 0
17, 8678, Note_off_c, 11, 65, 0
17, 8704, Note_on_c, 11, 59, 61
17, 8704, Note_on_c, 11, 62, 61
17, 8704, Note_on_c, 11, 65, 61
17, 8806, Note_off_c, 11, 59, 0
17, 8806, Note_off_c, 11, 62, 0
17, 8806, Note_off_c, 11, 65, 0
17, 8832, Note_on_c, 11, 59, 61
17, 8832, Note_on_c, 11, 62, 61
17, 8832, Note_on_c, 11, 65, 61
17, 8934, Note_off_c, 11, 59, 0
17, 8934, Note_off_c, 11, 62, 0
17, 8934, Note_off_c, 11, 65, 0
17, 8960, Note_on_c, 11, 59, 61
17, 8960, Note_on_c, 11, 62, 61
17, 8960, Note_on_c, 11, 65, 61
17, 9062, Note_off_c, 11, 59, 0
17, 9062, Note_off_c, 11, 62, 0
17, 9062, Note_off_c, 11, 65, 0
17, 9088, Note_on_c, 11, 59, 61
17, 9088, Note_on_c, 11, 62, 61
17, 9088, Note_on_c, 11, 65, 61
17, 9190, Note_off_c, 11, 59, 0
17, 9190, Note_off_c, 11, 62, 0
17, 9190, Note_off_c, 11, 65, 0
17, 9216, Note_on_c, 11, 59, 57
17, 9216, Note_on_c, 11, 62, 57
17, 9216, Note_on_c, 11, 65, 57
17, 9344, Note_off_c, 11, 59, 0
17, 9344, Note_off_c, 11, 62, 0
17, 9344, Note_off_c, 11, 65, 0
17, 9344, Note_on_c, 11, 59, 61
17, 9344, Note_on_c, 11, 62, 61
17, 9344, Note_on_c, 11, 66, 61
17, 9446, Note_off_c, 11, 59, 0
17, 9446, Note_off_c, 11, 62, 0
17, 9446, Note_off_c, 11, 66, 0
17, 9472, Note_on_c, 11, 59, 61
17, 9472, Note_on_c, 11, 62, 61
17, 9472, Note_on_c, 11, 66, 61
17, 9574, Note_off_c, 11, 59, 0
17, 9574, Note_off_c, 11, 62, 0
17, 9574, Note_off_c, 11, 66, 0
17, 9600, Note_on_c, 11, 59, 61
17, 9600, Note_on_c, 11, 62, 61
17, 9600, Note_on_c, 11, 66, 61
17, 9702, Note_off_c, 11, 59, 0
17, 9702, Note_off_c, 11, 62, 0
17, 9702, Note_off_c, 11, 66, 0
17, 9728, Note_on_c, 11, 59, 61
17, 9728, Note_on_c, 11, 62, 61
17, 9728, Note_on_c, 11, 66, 61
17, 9830, Note_off_c, 11, 59, 0
17, 9830, Note_off_c, 11, 62, 0
17, 9830, Note_off_c, 11, 66, 0
17, 9856, Note_on_c, 11, 59, 61
17, 9856, Note_on_c, 11, 62, 61
17, 9856, Note_on_c, 11, 66, 61
17, 9958, Note_off_c, 11, 59, 0
17, 9958, Note_off_c, 11, 62, 0
17, 9958, Note_off_c, 11, 66, 0
17, 9984, Note_on_c, 11, 59, 61
17, 9984, Note_on_c, 11, 62, 61
17, 9984, Note_on_c, 11, 66, 61
17, 10086, Note_off_c, 11, 59, 0
17, 10086, Note_off_c, 11, 62, 0
17, 10086, Note_off_c, 11, 66, 0
17, 10112, Note_on_c, 11, 59, 63
17, 10112, Note_on_c, 11, 62, 63
17, 10112, Note_on_c, 11, 67, 63
17, 10240, Note_off_c, 11, 59, 0
17, 10240, Note_off_c, 11, 62, 0
17, 10240, Note_off_c, 11, 67, 0
17, 10240, Note_on_c, 11, 59, 63
17, 10240, Note_on_c, 11, 62, 63
17, 10240, Note_on_c, 11, 67, 63
17, 10342, Note_off_c, 11, 59, 0
17, 10342, Note_off_c, 11, 62, 0
17, 10342, Note_off_c, 11, 67, 0
17, 10368, Note_on_c, 11, 59, 63
17, 10368, Note_on_c, 11, 62, 63
17, 10368, Note_on_c, 11, 67, 63
17, 10470, Note_off_c, 11, 59, 0
17, 10470, Note_off_c, 11, 62, 0
17, 10470, Note_off_c, 11, 67, 0
17, 10496, Note_on_c, 11, 59, 63
17, 10496, Note_on_c, 11, 62, 63
17, 10496, Note_on_c, 11, 67, 63
17, 10598, Note_off_c, 11, 59, 0
17, 10598, Note_off_c, 11, 62, 0
17, 10598, Note_off_c, 11, 67, 0
17, 10624, Note_on_c, 11, 59, 63
17, 10624, Note_on_c, 11, 62, 63
17, 10624, Note_on_c, 11, 67, 63
17, 10726, Note_off_c, 11, 59, 0
17, 10726, Note_off_c, 11, 62, 0
17, 10726, Note_off_c, 11, 67, 0
17, 10752, Note_on_c, 11, 59, 63
17, 10752, Note_on_c, 11, 62, 63
17, 10752, Note_on_c, 11, 67, 63
17, 10854, Note_off_c, 11, 59, 0
17, 10854, Note_off_c, 11, 62, 0
17, 10854, Note_off_c, 11, 67, 0
17, 10880, Note_on_c, 11, 59, 63
17, 10880, Note_on_c, 11, 62, 63
17, 10880, Note_on_c, 11, 67, 63
17, 10982, Note_off_c, 11, 59, 0
17, 10982, Note_off_c, 11, 62, 0
17, 10982, Note_off_c, 11, 67, 0
17, 11008, Note_on_c, 11, 57, 61
17, 11008, Note_on_c, 11, 61, 61
17, 11008, Note_on_c, 11, 64, 61
17, 11008, Note_on_c, 11, 67, 61
17, 11110, Note_off_c, 11, 57, 0
17, 11110, Note_off_c, 11, 61, 0
17, 11110, Note_off_c, 11, 64, 0
17, 11110, Note_off_c, 11, 67, 0
17, 11136, Note_on_c, 11, 57, 61
17, 11136, Note_on_c, 11, 61, 61
17, 11136, Note_on_c, 11, 64, 61
17, 11136, Note_on_c, 11, 67, 61
17, 11238, Note_off_c, 11, 57, 0
17, 11238, Note_off_c, 11, 61, 0
17, 11238, Note_off_c, 11, 64, 0
17, 11238, Note_off_c, 11, 67, 0
17, 11264, Note_on_c, 11, 57, 63
17, 11264, Note_on_c, 11, 61, 63
17, 11264, Note_on_c, 11, 64, 63
17, 11264, Note_on_c, 11, 67, 63
17, 11366, Note_off_c, 11, 57, 0
17, 11366, Note_off_c, 11, 61, 0
17, 11366, Note_off_c, 11, 64, 0
17, 11366, Note_off_c, 11, 67, 0
17, 11392, Note_on_c, 11, 57, 63
17, 11392, Note_on_c, 11, 61, 63
17, 11392, Note_on_c, 11, 64, 63
17, 11392, Note_on_c, 11, 67, 63
17, 11494, Note_off_c, 11, 57, 0
17, 11494, Note_off_c, 11, 61, 0
17, 11494, Note_off_c, 11, 64, 0
17, 11494, Note_off_c, 11, 67, 0
17, 11520, Note_on_c, 11, 57, 63
17, 11520, Note_on_c, 11, 61, 63
17, 11520, Note_on_c, 11, 64, 63
17, 11520, Note_on_c, 11, 67, 63
17, 11622, Note_off_c, 11, 57, 0
17, 11622, Note_off_c, 11, 61, 0
17, 11622, Note_off_c, 11, 64, 0
17, 11622, Note_off_c, 11, 67, 0
17, 11648, Note_on_c, 11, 59, 63
17, 11648, Note_on_c, 11, 62, 63
17, 11648, Note_on_c, 11, 67, 63
17, 11776, Note_off_c, 11, 59, 0
17, 11776, Note_off_c, 11, 62, 0
17, 11776, Note_off_c, 11, 67, 0
17, 11776, Note_on_c, 11, 59, 61
17, 11776, Note_on_c, 11, 62, 61
17, 11776, Note_on_c, 11, 67, 61
17, 11878, Note_off_c, 11, 59, 0
17, 11878, Note_off_c, 11, 62, 0
17, 11878, Note_off_c, 11, 67, 0
17, 11904, Note_on_c, 11, 59, 61
17, 11904, Note_on_c, 11, 62, 61
17, 11904, Note_on_c, 11, 67, 61
17, 12006, Note_off_c, 11, 59, 0
17, 12006, Note_off_c, 11, 62, 0
17, 12006, Note_off_c, 11, 67, 0
17, 12032, Note_on_c, 11, 57, 63
17, 12032, Note_on_c, 11, 61, 63
17, 12032, Note_on_c, 11, 64, 63
17, 12032, Note_on_c, 11, 67, 63
17, 12134, Note_off_c, 11, 57, 0
17, 12134, Note_off_c, 11, 61, 0
17, 12134, Note_off_c, 11, 64, 0
17, 12134, Note_off_c, 11, 67, 0
17, 12160, Note_on_c, 11, 57, 63
17, 12160, Note_on_c, 11, 61, 63
17, 12160, Note_on_c, 11, 64, 63
17, 12160, Note_on_c, 11, 67, 63
17, 12262, Note_off_c, 11, 57, 0
17, 12262, Note_off_c, 11, 61, 0
17, 12262, Note_off_c, 11, 64, 0
17, 12262, Note_off_c, 11, 67, 0
17, 12288, Note_on_c, 11, 57, 57
17, 12288, Note_on_c, 11, 61, 57
17, 12288, Note_on_c, 11, 64, 57
17, 12288, Note_on_c, 11, 67, 57
17, 12390, Note_off_c, 11, 57, 0
17, 12390, Note_off_c, 11, 61, 0
17, 12390, Note_off_c, 11, 64, 0
17, 12390, Note_off_c, 11, 67, 0
17, 12416, Note_on_c, 11, 57, 57
17, 12416, Note_on_c, 11, 61, 57
17, 12416, Note_on_c, 11, 64, 57
17, 12416, Note_on_c, 11, 67, 57
17, 12518, Note_off_c, 11, 57, 0
17, 12518, Note_off_c, 11, 61, 0
17, 12518, Note_off_c, 11, 64, 0
17, 12518, Note_off_c, 11, 67, 0
17, 12544, Note_on_c, 11, 57, 57
17, 12544, Note_on_c, 11, 61, 57
17, 12544, Note_on_c, 11, 64, 57
17, 12544, Note_on_c, 11, 67, 57
17, 12646, Note_off_c, 11, 57, 0
17, 12646, Note_off_c, 11, 61, 0
17, 12646, Note_off_c, 11, 64, 0
17, 12646, Note_off_c, 11, 67, 0
17, 12672, Note_on_c, 11, 59, 62
17, 12672, Note_on_c, 11, 62, 62
17, 12672, Note_on_c, 11, 67, 62
17, 12800, Note_off_c, 11, 59, 0
17, 12800, Note_off_c, 11, 62, 0
17, 12800, Note_off_c, 11, 67, 0
17, 12800, Note_on_c, 11, 57, 62
17, 12800, Note_on_c, 11, 61, 62
17, 12800, Note_on_c, 11, 64, 62
17, 12800, Note_on_c, 11, 67, 62
17, 12902, Note_off_c, 11, 57, 0
17, 12902, Note_off_c, 11, 61, 0
17, 12902, Note_off_c, 11, 64, 0
17, 12902, Note_off_c, 11, 67, 0
17, 12928, Note_on_c, 11, 57, 62
17, 12928, Note_on_c, 11, 61, 62
17, 12928, Note_on_c, 11, 64, 62
17, 12928, Note_on_c, 11, 67, 62
17, 13030, Note_off_c, 11, 57, 0
17, 13030, Note_off_c, 11, 61, 0
17, 13030, Note_off_c, 11, 64, 0
17, 13030, Note_off_c, 11, 67, 0
17, 13056, Note_on_c, 11, 57, 61
17, 13056, Note_on_c, 11, 58, 61
17, 13056, Note_on_c, 11, 62, 61
17, 13056, Note_on_c, 11, 67, 61
17, 13158, Note_off_c, 11, 57, 0
17, 13158, Note_off_c, 11, 58, 0
17, 13158, Note_off_c, 11, 62, 0
17, 13158, Note_off_c, 11, 67, 0
17, 13184, Note_on_c, 11, 57, 61
17, 13184, Note_on_c, 11, 58, 61
17, 13184, Note_on_c, 11, 62, 61
17, 13184, Note_on_c, 11, 67, 61
17, 13286, Note_off_c, 11, 57, 0
17, 13286, Note_off_c, 11, 58, 0
17, 13286, Note_off_c, 11, 62, 0
17, 13286, Note_off_c, 11, 67, 0
17, 13312, Note_on_c, 11, 57, 59
17, 13312, Note_on_c, 11, 58, 59
17, 13312, Note_on_c, 11, 62, 59
17, 13312, Note_on_c, 11, 67, 59
17, 13414, Note_off_c, 11, 57, 0
17, 13414, Note_off_c, 11, 58, 0
17, 13414, Note_off_c, 11, 62, 0
17, 13414, Note_off_c, 11, 67, 0
17, 13440, Note_on_c, 11, 57, 59
17, 13440, Note_on_c, 11, 58, 59
17, 13440, Note_on_c, 11, 62, 59
17, 13440, Note_on_c, 11, 67, 59
17, 13542, Note_off_c, 11, 57, 0
17, 13542, Note_off_c, 11, 58, 0
17, 13542, Note_off_c, 11, 62, 0
17, 13542, Note_off_c, 11, 67, 0
17, 13568, Note_on_c, 11, 57, 59
17, 13568, Note_on_c, 11, 58, 59
17, 13568, Note_on_c, 11, 62, 59
17, 13568, Note_on_c, 11, 67, 59
17, 13670, Note_off_c, 11, 57, 0
17, 13670, Note_off_c, 11, 58, 0
17, 13670, Note_off_c, 11, 62, 0
17, 13670, Note_off_c, 11, 67, 0
17, 13696, Note_on_c, 11, 57, 59
17, 13696, Note_on_c, 11, 58, 59
17, 13696, Note_on_c, 11, 62, 59
17, 13696, Note_on_c, 11, 67, 59
17, 13798, Note_off_c, 11, 57, 0
17, 13798, Note_off_c, 11, 58, 0
17, 13798, Note_off_c, 11, 62, 0
17, 13798, Note_off_c, 11, 67, 0
17, 13824, Note_on_c, 11, 57, 59
17, 13824, Note_on_c, 11, 58, 59
17, 13824, Note_on_c, 11, 62, 59
17, 13824, Note_on_c, 11, 67, 59
17, 13926, Note_off_c, 11, 57, 0
17, 13926, Note_off_c, 11, 58, 0
17, 13926, Note_off_c, 11, 62, 0
17, 13926, Note_off_c, 11, 67, 0
17, 13952, Note_on_c, 11, 57, 59
17, 13952, Note_on_c, 11, 58, 59
17, 13952, Note_on_c, 11, 62, 59
17, 13952, Note_on_c, 11, 67, 59
17, 14054, Note_off_c, 11, 57, 0
17, 14054, Note_off_c, 11, 58, 0
17, 14054, Note_off_c, 11, 62, 0
17, 14054, Note_off_c, 11, 67, 0
17, 14080, Note_on_c, 11, 57, 64
17, 14080, Note_on_c, 11, 61, 64
17, 14080, Note_on_c, 11, 64, 64
17, 14080, Note_on_c, 11, 67, 64
17, 14182, Note_off_c, 11, 57, 0
17, 14182, Note_off_c, 11, 61, 0
17, 14182, Note_off_c, 11, 64, 0
17, 14182, Note_off_c, 11, 67, 0
17, 14208, Note_on_c, 11, 57, 64
17, 14208, Note_on_c, 11, 61, 64
17, 14208, Note_on_c, 11, 64, 64
17, 14208, Note_on_c, 11, 67, 64
17, 14310, Note_off_c, 11, 57, 0
17, 14310, Note_off_c, 11, 61, 0
17, 14310, Note_off_c, 11, 64, 0
17, 14310, Note_off_c, 11, 67, 0
17, 14336, Note_on_c, 11, 57, 61
17, 14336, Note_on_c, 11, 61, 61
17, 14336, Note_on_c, 11, 64, 61
17, 14336, Note_on_c, 11, 67, 61
17, 14438, Note_off_c, 11, 57, 0
17, 14438, Note_off_c, 11, 61, 0
17, 14438, Note_off_c, 11, 64, 0
17, 14438, Note_off_c, 11, 67, 0
17, 14464, Note_on_c, 11, 57, 61
17, 14464, Note_on_c, 11, 61, 61
17, 14464, Note_on_c, 11, 64, 61
17, 14464, Note_on_c, 11, 67, 61
17, 14566, Note_off_c, 11, 57, 0
17, 14566, Note_off_c, 11, 61, 0
17, 14566, Note_off_c, 11, 64, 0
17, 14566, Note_off_c, 11, 67, 0
17, 14592, Note_on_c, 11, 58, 62
17, 14592, Note_on_c, 11, 62, 62
17, 14592, Note_on_c, 11, 67, 62
17, 14694, Note_off_c, 11, 58, 0
17, 14694, Note_off_c, 11, 62, 0
17, 14694, Note_off_c, 11, 67, 0
17, 14720, Note_on_c, 11, 58, 62
17, 14720, Note_on_c, 11, 62, 62
17, 14720, Note_on_c, 11, 67, 62
17, 14822, Note_off_c, 11, 58, 0
17, 14822, Note_off_c, 11, 62, 0
17, 14822, Note_off_c, 11, 67, 0
17, 14848, Note_on_c, 11, 58, 62
17, 14848, Note_on_c, 11, 62, 62
17, 14848, Note_on_c, 11, 67, 62
17, 14950, Note_off_c, 11, 58, 0
17, 14950, Note_off_c, 11, 62, 0
17, 14950, Note_off_c, 11, 67, 0
17, 14976, Note_on_c, 11, 58, 62
17, 14976, Note_on_c, 11, 62, 62
17, 14976, Note_on_c, 11, 67, 62
17, 15078, Note_off_c, 11, 58, 0
17, 15078, Note_off_c, 11, 62, 0
17, 15078, Note_off_c, 11, 67, 0
17, 15104, Note_on_c, 11, 58, 62
17, 15104, Note_on_c, 11, 62, 62
17, 15104, Note_on_c, 11, 67, 62
17, 15206, Note_off_c, 11, 58, 0
17, 15206, Note_off_c, 11, 62, 0
17, 15206, Note_off_c, 11, 67, 0
17, 15232, Note_on_c, 11, 58, 62
17, 15232, Note_on_c, 11, 62, 62
17, 15232, Note_on_c, 11, 67, 62
17, 15334, Note_off_c, 11, 58, 0
17, 15334, Note_off_c, 11, 62, 0
17, 15334, Note_off_c, 11, 67, 0
17, 15360, Note_on_c, 11, 58, 56
17, 15360, Note_on_c, 11, 62, 56
17, 15360, Note_on_c, 11, 67, 56
17, 15488, Note_off_c, 11, 58, 0
17, 15488, Note_off_c, 11, 62, 0
17, 15488, Note_off_c, 11, 67, 0
17, 15488, Note_on_c, 11, 59, 62
17, 15488, Note_on_c, 11, 63, 62
17, 15488, Note_on_c, 11, 67, 62
17, 15590, Note_off_c, 11, 59, 0
17, 15590, Note_off_c, 11, 63, 0
17, 15590, Note_off_c, 11, 67, 0
17, 15616, Note_on_c, 11, 59, 62
17, 15616, Note_on_c, 11, 63, 62
17, 15616, Note_on_c, 11, 67, 62
17, 15718, Note_off_c, 11, 59, 0
17, 15718, Note_off_c, 11, 63, 0
17, 15718, Note_off_c, 11, 67, 0
17, 15744, Note_on_c, 11, 59, 62
17, 15744, Note_on_c, 11, 63, 62
17, 15744, Note_on_c, 11, 67, 62
17, 15846, Note_off_c, 11, 59, 0
17, 15846, Note_off_c, 11, 63, 0
17, 15846, Note_off_c, 11, 67, 0
17, 15872, Note_on_c, 11, 59, 65
17, 15872, Note_on_c, 11, 63, 65
17, 15872, Note_on_c, 11, 67, 65
17, 15974, Note_off_c, 11, 59, 0
17, 15974, Note_off_c, 11, 63, 0
17, 15974, Note_off_c, 11, 67, 0
17, 16000, Note_on_c, 11, 59, 65
17, 16000, Note_on_c, 11, 63, 65
17, 16000, Note_on_c, 11, 67, 65
17, 16102, Note_off_c, 11, 59, 0
17, 16102, Note_off_c, 11, 63, 0
17, 16102, Note_off_c, 11, 67, 0
17, 16128, Note_on_c, 11, 59, 65
17, 16128, Note_on_c, 11, 63, 65
17, 16128, Note_on_c, 11, 67, 65
17, 16230, Note_off_c, 11, 59, 0
17, 16230, Note_off_c, 11, 63, 0
17, 16230, Note_off_c, 11, 67, 0
17, 16256, Note_on_c, 11, 59, 65
17, 16256, Note_on_c, 11, 63, 65
17, 16256, Note_on_c, 11, 67, 65
17, 16358, Note_off_c, 11, 59, 0
17, 16358, Note_off_c, 11, 63, 0
17, 16358, Note_off_c, 11, 67, 0
17, 16384, Note_on_c, 11, 59, 60
17, 16384, Note_on_c, 11, 63, 60
17, 16384, Note_on_c, 11, 67, 60
17, 16486, Note_off_c, 11, 59, 0
17, 16486, Note_off_c, 11, 63, 0
17, 16486, Note_off_c, 11, 67, 0
17, 16512, Note_on_c, 11, 59, 60
17, 16512, Note_on_c, 11, 63, 60
17, 16512, Note_on_c, 11, 67, 60
17, 16614, Note_off_c, 11, 59, 0
17, 16614, Note_off_c, 11, 63, 0
17, 16614, Note_off_c, 11, 67, 0
17, 16640, Note_on_c, 11, 59, 63
17, 16640, Note_on_c, 11, 62, 63
17, 16640, Note_on_c, 11, 65, 63
17, 16640, Note_on_c, 11, 67, 63
17, 16742, Note_off_c, 11, 59, 0
17, 16742, Note_off_c, 11, 62, 0
17, 16742, Note_off_c, 11, 65, 0
17, 16742, Note_off_c, 11, 67, 0
17, 16768, Note_on_c, 11, 59, 63
17, 16768, Note_on_c, 11, 62, 63
17, 16768, Note_on_c, 11, 65, 63
17, 16768, Note_on_c, 11, 67, 63
17, 16870, Note_off_c, 11, 59, 0
17, 16870, Note_off_c, 11, 62, 0
17, 16870, Note_off_c, 11, 65, 0
17, 16870, Note_off_c, 11, 67, 0
17, 16896, Note_on_c, 11, 59, 63
17, 16896, Note_on_c, 11, 62, 63
17, 16896, Note_on_c, 11, 65, 63
17, 16896, Note_on_c, 11, 67, 63
17, 16998, Note_off_c, 11, 59, 0
17, 16998, Note_off_c, 11, 62, 0
17, 16998, Note_off_c, 11, 65, 0
17, 16998, Note_off_c, 11, 67, 0
17, 17024, Note_on_c, 11, 59, 63
17, 17024, Note_on_c, 11, 62, 63
17, 17024, Note_on_c, 11, 65, 63
17, 17024, Note_on_c, 11, 67, 63
17, 17126, Note_off_c, 11, 59, 0
17, 17126, Note_off_c, 11, 62, 0
17, 17126, Note_off_c, 11, 65, 0
17, 17126, Note_off_c, 11, 67, 0
17, 17152, Note_on_c, 11, 59, 63
17, 17152, Note_on_c, 11, 62, 63
17, 17152, Note_on_c, 11, 65, 63
17, 17152, Note_on_c, 11, 67, 63
17, 17254, Note_off_c, 11, 59, 0
17, 17254, Note_off_c, 11, 62, 0
17, 17254, Note_off_c, 11, 65, 0
17, 17254, Note_off_c, 11, 67, 0
17, 17280, Note_on_c, 11, 59, 63
17, 17280, Note_on_c, 11, 62, 63
17, 17280, Note_on_c, 11, 65, 63
17, 17280, Note_on_c, 11, 67, 63
17, 17382, Note_off_c, 11, 59, 0
17, 17382, Note_off_c, 11, 62, 0
17, 17382, Note_off_c, 11, 65, 0
17, 17382, Note_off_c, 11, 67, 0
17, 17408, Note_on_c, 11, 59, 59
17, 17408, Note_on_c, 11, 62, 59
17, 17408, Note_on_c, 11, 65, 59
17, 17408, Note_on_c, 11, 67, 59
17, 17510, Note_off_c, 11, 59, 0
17, 17510, Note_off_c, 11, 62, 0
17, 17510, Note_off_c, 11, 65, 0
17, 17510, Note_off_c, 11, 67, 0
17, 17536, Note_on_c, 11, 59, 59
17, 17536, Note_on_c, 11, 62, 59
17, 17536, Note_on_c, 11, 65, 59
17, 17536, Note_on_c, 11, 67, 59
17, 17638, Note_off_c, 11, 59, 0
17, 17638, Note_off_c, 11, 62, 0
17, 17638, Note_off_c, 11, 65, 0
17, 17638, Note_off_c, 11, 67, 0
17, 17664, Note_on_c, 11, 59, 64
17, 17664, Note_on_c, 11, 63, 64
17, 17664, Note_on_c, 11, 65, 64
17, 17664, Note_on_c, 11, 67, 64
17, 17766, Note_off_c, 11, 59, 0
17, 17766, Note_off_c, 11, 63, 0
17, 17766, Note_off_c, 11, 65, 0
17, 17766, Note_off_c, 11, 67, 0
17, 17792, Note_on_c, 11, 59, 64
17, 17792, Note_on_c, 11, 63, 64
17, 17792, Note_on_c, 11, 65, 64
17, 17792, Note_on_c, 11, 67, 64
17, 17894, Note_off_c, 11, 59, 0
17, 17894, Note_off_c, 11, 63, 0
17, 17894, Note_off_c, 11, 65, 0
17, 17894, Note_off_c, 11, 67, 0
17, 17920, Note_on_c, 11, 59, 64
17, 17920, Note_on_c, 11, 63, 64
17, 17920, Note_on_c, 11, 65, 64
17, 17920, Note_on_c, 11, 67, 64
17, 18022, Note_off_c, 11, 59, 0
17, 18022, Note_off_c, 11, 63, 0
17, 18022, Note_off_c, 11, 65, 0
17, 18022, Note_off_c, 11, 67, 0
17, 18048, Note_on_c, 11, 59, 64
17, 18048, Note_on_c, 11, 63, 64
17, 18048, Note_on_c, 11, 65, 64
17, 18048, Note_on_c, 11, 67, 64
17, 18150, Note_off_c, 11, 59, 0
17, 18150, Note_off_c, 11, 63, 0
17, 18150, Note_off_c, 11, 65, 0
17, 18150, Note_off_c, 11, 67, 0
17, 18176, Note_on_c, 11, 59, 64
17, 18176, Note_on_c, 11, 63, 64
17, 18176, Note_on_c, 11, 65, 64
17, 18176, Note_on_c, 11, 67, 64
17, 18278, Note_off_c, 11, 59, 0
17, 18278, Note_off_c, 11, 63, 0
17, 18278, Note_off_c, 11, 65, 0
17, 18278, Note_off_c, 11, 67, 0
17, 18304, Note_on_c, 11, 59, 64
17, 18304, Note_on_c, 11, 63, 64
17, 18304, Note_on_c, 11, 65, 64
17, 18304, Note_on_c, 11, 67, 64
17, 18406, Note_off_c, 11, 59, 0
17, 18406, Note_off_c, 11, 63, 0
17, 18406, Note_off_c, 11, 65, 0
17, 18406, Note_off_c, 11, 67, 0
17, 18432, Note_on_c, 11, 60, 59
17, 18432, Note_on_c, 11, 63, 59
17, 18432, Note_on_c, 11, 65, 59
17, 18432, Note_on_c, 11, 67, 59
17, 18534, Note_off_c, 11, 60, 0
17, 18534, Note_off_c, 11, 63, 0
17, 18534, Note_off_c, 11, 65, 0
17, 18534, Note_off_c, 11, 67, 0
17, 18560, Note_on_c, 11, 60, 59
17, 18560, Note_on_c, 11, 63, 59
17, 18560, Note_on_c, 11, 65, 59
17, 18560, Note_on_c, 11, 67, 59
17, 18662, Note_off_c, 11, 60, 0
17, 18662, Note_off_c, 11, 63, 0
17, 18662, Note_off_c, 11, 65, 0
17, 18662, Note_off_c, 11, 67, 0
17, 18688, Note_on_c, 11, 60, 59
17, 18688, Note_on_c, 11, 63, 59
17, 18688, Note_on_c, 11, 65, 59
17, 18688, Note_on_c, 11, 67, 59
17, 18790, Note_off_c, 11, 60, 0
17, 18790, Note_off_c, 11, 63, 0
17, 18790, Note_off_c, 11, 65, 0
17, 18790, Note_off_c, 11, 67, 0
17, 18816, Note_on_c, 11, 60, 59
17, 18816, Note_on_c, 11, 63, 59
17, 18816, Note_on_c, 11, 65, 59
17, 18816, Note_on_c, 11, 67, 59
17, 18918, Note_off_c, 11, 60, 0
17, 18918, Note_off_c, 11, 63, 0
17, 18918, Note_off_c, 11, 65, 0
17, 18918, Note_off_c, 11, 67, 0
17, 18944, Note_on_c, 11, 60, 59
17, 18944, Note_on_c, 11, 63, 59
17, 18944, Note_on_c, 11, 65, 59
17, 18944, Note_on_c, 11, 67, 59
17, 19046, Note_off_c, 11, 60, 0
17, 19046, Note_off_c, 11, 63, 0
17, 19046, Note_off_c, 11, 65, 0
17, 19046, Note_off_c, 11, 67, 0
17, 19072, Note_on_c, 11, 60, 59
17, 19072, Note_on_c, 11, 63, 59
17, 19072, Note_on_c, 11, 65, 59
17, 19072, Note_on_c, 11, 67, 59
17, 19174, Note_off_c, 11, 60, 0
17, 19174, Note_off_c, 11, 63, 0
17, 19174, Note_off_c, 11, 65, 0
17, 19174, Note_off_c, 11, 67, 0
17, 19200, Note_on_c, 11, 60, 65
17, 19200, Note_on_c, 11, 64, 65
17, 19200, Note_on_c, 11, 66, 65
17, 19200, Note_on_c, 11, 68, 65
17, 19302, Note_off_c, 11, 60, 0
17, 19302, Note_off_c, 11, 64, 0
17, 19302, Note_off_c, 11, 66, 0
17, 19302, Note_off_c, 11, 68, 0
17, 19328, Note_on_c, 11, 60, 65
17, 19328, Note_on_c, 11, 64, 65
17, 19328, Note_on_c, 11, 66, 65
17, 19328, Note_on_c, 11, 68, 65
17, 19430, Note_off_c, 11, 60, 0
17, 19430, Note_off_c, 11, 64, 0
17, 19430, Note_off_c, 11, 66, 0
17, 19430, Note_off_c, 11, 68, 0
17, 19456, Note_on_c, 11, 60, 61
17, 19456, Note_on_c, 11, 63, 61
17, 19456, Note_on_c, 11, 66, 61
17, 19456, Note_on_c, 11, 68, 61
17, 19558, Note_off_c, 11, 60, 0
17, 19558, Note_off_c, 11, 63, 0
17, 19558, Note_off_c, 11, 66, 0
17, 19558, Note_off_c, 11, 68, 0
17, 19584, Note_on_c, 11, 60, 61
17, 19584, Note_on_c, 11, 63, 61
17, 19584, Note_on_c, 11, 66, 61
17, 19584, Note_on_c, 11, 68, 61
17, 19686, Note_off_c, 11, 60, 0
17, 19686, Note_off_c, 11, 63, 0
17, 19686, Note_off_c, 11, 66, 0
17, 19686, Note_off_c, 11, 68, 0
17, 19712, Note_on_c, 11, 60, 61
17, 19712, Note_on_c, 11, 63, 61
17, 19712, Note_on_c, 11, 66, 61
17, 19712, Note_on_c, 11, 68, 61
17, 19814, Note_off_c, 11, 60, 0
17, 19814, Note_off_c, 11, 63, 0
17, 19814, Note_off_c, 11, 66, 0
17, 19814, Note_off_c, 11, 68, 0
17, 19840, Note_on_c, 11, 60, 61
17, 19840, Note_on_c, 11, 63, 61
17, 19840, Note_on_c, 11, 66, 61
17, 19840, Note_on_c, 11, 68, 61
17, 19942, Note_off_c, 11, 60, 0
17, 19942, Note_off_c, 11, 63, 0
17, 19942, Note_off_c, 11, 66, 0
17, 19942, Note_off_c, 11, 68, 0
17, 19968, Note_on_c, 11, 61, 63
17, 19968, Note_on_c, 11, 64, 63
17, 19968, Note_on_c, 11, 67, 63
17, 19968, Note_on_c, 11, 69, 63
17, 20070, Note_off_c, 11, 61, 0
17, 20070, Note_off_c, 11, 64, 0
17, 20070, Note_off_c, 11, 67, 0
17, 20070, Note_off_c, 11, 69, 0
17, 20096, Note_on_c, 11, 61, 63
17, 20096, Note_on_c, 11, 64, 63
17, 20096, Note_on_c, 11, 67, 63
17, 20096, Note_on_c, 11, 69, 63
17, 20198, Note_off_c, 11, 61, 0
17, 20198, Note_off_c, 11, 64, 0
17, 20198, Note_off_c, 11, 67, 0
17, 20198, Note_off_c, 11, 69, 0
17, 20224, Note_on_c, 11, 61, 63
17, 20224, Note_on_c, 11, 64, 63
17, 20224, Note_on_c, 11, 67, 63
17, 20224, Note_on_c, 11, 69, 63
17, 20326, Note_off_c, 11, 61, 0
17, 20326, Note_off_c, 11, 64, 0
17, 20326, Note_off_c, 11, 67, 0
17, 20326, Note_off_c, 11, 69, 0
17, 20352, Note_on_c, 11, 61, 63
17, 20352, Note_on_c, 11, 64, 63
17, 20352, Note_on_c, 11, 67, 63
17, 20352, Note_on_c, 11, 69, 63
17, 20454, Note_off_c, 11, 61, 0
17, 20454, Note_off_c, 11, 64, 0
17, 20454, Note_off_c, 11, 67, 0
17, 20454, Note_off_c, 11, 69, 0
17, 20480, Note_on_c, 11, 61, 61
17, 20480, Note_on_c, 11, 64, 61
17, 20480, Note_on_c, 11, 67, 61
17, 20480, Note_on_c, 11, 69, 61
17, 20582, Note_off_c, 11, 61, 0
17, 20582, Note_off_c, 11, 64, 0
17, 20582, Note_off_c, 11, 67, 0
17, 20582, Note_off_c, 11, 69, 0
17, 20608, Note_on_c, 11, 61, 61
17, 20608, Note_on_c, 11, 64, 61
17, 20608, Note_on_c, 11, 67, 61
17, 20608, Note_on_c, 11, 69, 61
17, 20710, Note_off_c, 11, 61, 0
17, 20710, Note_off_c, 11, 64, 0
17, 20710, Note_off_c, 11, 67, 0
17, 20710, Note_off_c, 11, 69, 0
17, 20736, Note_on_c, 11, 61, 61
17, 20736, Note_on_c, 11, 64, 61
17, 20736, Note_on_c, 11, 67, 61
17, 20736, Note_on_c, 11, 69, 61
17, 20838, Note_off_c, 11, 61, 0
17, 20838, Note_off_c, 11, 64, 0
17, 20838, Note_off_c, 11, 67, 0
17, 20838, Note_off_c, 11, 69, 0
17, 20864, Note_on_c, 11, 61, 61
17, 20864, Note_on_c, 11, 64, 61
17, 20864, Note_on_c, 11, 67, 61
17, 20864, Note_on_c, 11, 69, 61
17, 20966, Note_off_c, 11, 61, 0
17, 20966, Note_off_c, 11, 64, 0
17, 20966, Note_off_c, 11, 67, 0
17, 20966, Note_off_c, 11, 69, 0
17, 20992, Note_on_c, 11, 61, 64
17, 20992, Note_on_c, 11, 64, 64
17, 20992, Note_on_c, 11, 68, 64
17, 20992, Note_on_c, 11, 70, 64
17, 21094, Note_off_c, 11, 61, 0
17, 21094, Note_off_c, 11, 64, 0
17, 21094, Note_off_c, 11, 68, 0
17, 21094, Note_off_c, 11, 70, 0
17, 21120, Note_on_c, 11, 61, 64
17, 21120, Note_on_c, 11, 64, 64
17, 21120, Note_on_c, 11, 68, 64
17, 21120, Note_on_c, 11, 70, 64
17, 21222, Note_off_c, 11, 61, 0
17, 21222, Note_off_c, 11, 64, 0
17, 21222, Note_off_c, 11, 68, 0
17, 21222, Note_off_c, 11, 70, 0
17, 21248, Note_on_c, 11, 61, 64
17, 21248, Note_on_c, 11, 64, 64
17, 21248, Note_on_c, 11, 68, 64
17, 21248, Note_on_c, 11, 70, 64
17, 21350, Note_off_c, 11, 61, 0
17, 21350, Note_off_c, 11, 64, 0
17, 21350, Note_off_c, 11, 68, 0
17, 21350, Note_off_c, 11, 70, 0
17, 21376, Note_on_c, 11, 61, 64
17, 21376, Note_on_c, 11, 64, 64
17, 21376, Note_on_c, 11, 68, 64
17, 21376, Note_on_c, 11, 70, 64
17, 21478, Note_off_c, 11, 61, 0
17, 21478, Note_off_c, 11, 64, 0
17, 21478, Note_off_c, 11, 68, 0
17, 21478, Note_off_c, 11, 70, 0
17, 21504, Note_on_c, 11, 61, 62
17, 21504, Note_on_c, 11, 64, 62
17, 21504, Note_on_c, 11, 68, 62
17, 21504, Note_on_c, 11, 70, 62
17, 21606, Note_off_c, 11, 61, 0
17, 21606, Note_off_c, 11, 64, 0
17, 21606, Note_off_c, 11, 68, 0
17, 21606, Note_off_c, 11, 70, 0
17, 21632, Note_on_c, 11, 61, 62
17, 21632, Note_on_c, 11, 64, 62
17, 21632, Note_on_c, 11, 68, 62
17, 21632, Note_on_c, 11, 70, 62
17, 21734, Note_off_c, 11, 61, 0
17, 21734, Note_off_c, 11, 64, 0
17, 21734, Note_off_c, 11, 68, 0
17, 21734, Note_off_c, 11, 70, 0
17, 21760, Note_on_c, 11, 61, 56
17, 21760, Note_on_c, 11, 65, 56
17, 21760, Note_on_c, 11, 68, 56
17, 21760, Note_on_c, 11, 70, 56
17, 21862, Note_off_c, 11, 61, 0
17, 21862, Note_off_c, 11, 65, 0
17, 21862, Note_off_c, 11, 68, 0
17, 21862, Note_off_c, 11, 70, 0
17, 21888, Note_on_c, 11, 61, 56
17, 21888, Note_on_c, 11, 65, 56
17, 21888, Note_on_c, 11, 68, 56
17, 21888, Note_on_c, 11, 70, 56
17, 21990, Note_off_c, 11, 61, 0
17, 21990, Note_off_c, 11, 65, 0
17, 21990, Note_off_c, 11, 68, 0
17, 21990, Note_off_c, 11, 70, 0
17, 22016, Note_on_c, 11, 62, 63
17, 22016, Note_on_c, 11, 65, 63
17, 22016, Note_on_c, 11, 68, 63
17, 22016, Note_on_c, 11, 70, 63
17, 22118, Note_off_c, 11, 62, 0
17, 22118, Note_off_c, 11, 65, 0
17, 22118, Note_off_c, 11, 68, 0
17, 22118, Note_off_c, 11, 70, 0
17, 22144, Note_on_c, 11, 62, 63
17, 22144, Note_on_c, 11, 65, 63
17, 22144, Note_on_c, 11, 68, 63
17, 22144, Note_on_c, 11, 70, 63
17, 22246, Note_off_c, 11, 62, 0
17, 22246, Note_off_c, 11, 65, 0
17, 22246, Note_off_c, 11, 68, 0
17, 22246, Note_off_c, 11, 70, 0
17, 22272, Note_on_c, 11, 62, 63
17, 22272, Note_on_c, 11, 65, 63
17, 22272, Note_on_c, 11, 68, 63
17, 22272, Note_on_c, 11, 70, 63
17, 22374, Note_off_c, 11, 62, 0
17, 22374, Note_off_c, 11, 65, 0
17, 22374, Note_off_c, 11, 68, 0
17, 22374, Note_off_c, 11, 70, 0
17, 22400, Note_on_c, 11, 62, 63
17, 22400, Note_on_c, 11, 65, 63
17, 22400, Note_on_c, 11, 68, 63
17, 22400, Note_on_c, 11, 70, 63
17, 22502, Note_off_c, 11, 62, 0
17, 22502, Note_off_c, 11, 65, 0
17, 22502, Note_off_c, 11, 68, 0
17, 22502, Note_off_c, 11, 70, 0
17, 22528, Note_on_c, 11, 62, 63
17, 22528, Note_on_c, 11, 65, 63
17, 22528, Note_on_c, 11, 68, 63
17, 22528, Note_on_c, 11, 70, 63
17, 22630, Note_off_c, 11, 62, 0
17, 22630, Note_off_c, 11, 65, 0
17, 22630, Note_off_c, 11, 68, 0
17, 22630, Note_off_c, 11, 70, 0
17, 22656, Note_on_c, 11, 62, 63
17, 22656, Note_on_c, 11, 65, 63
17, 22656, Note_on_c, 11, 68, 63
17, 22656, Note_on_c, 11, 70, 63
17, 22758, Note_off_c, 11, 62, 0
17, 22758, Note_off_c, 11, 65, 0
17, 22758, Note_off_c, 11, 68, 0
17, 22758, Note_off_c, 11, 70, 0
17, 22784, Note_on_c, 11, 62, 63
17, 22784, Note_on_c, 11, 65, 63
17, 22784, Note_on_c, 11, 68, 63
17, 22784, Note_on_c, 11, 70, 63
17, 22886, Note_off_c, 11, 62, 0
17, 22886, Note_off_c, 11, 65, 0
17, 22886, Note_off_c, 11, 68, 0
17, 22886, Note_off_c, 11, 70, 0
17, 22912, Note_on_c, 11, 62, 63
17, 22912, Note_on_c, 11, 65, 63
17, 22912, Note_on_c, 11, 68, 63
17, 22912, Note_on_c, 11, 70, 63
17, 23014, Note_off_c, 11, 62, 0
17, 23014, Note_off_c, 11, 65, 0
17, 23014, Note_off_c, 11, 68, 0
17, 23014, Note_off_c, 11, 70, 0
17, 23040, Note_on_c, 11, 62, 67
17, 23040, Note_on_c, 11, 65, 67
17, 23040, Note_on_c, 11, 69, 67
17, 23040, Note_on_c, 11, 71, 67
17, 23142, Note_off_c, 11, 62, 0
17, 23142, Note_off_c, 11, 65, 0
17, 23142, Note_off_c, 11, 69, 0
17, 23142, Note_off_c, 11, 71, 0
17, 23168, Note_on_c, 11, 62, 67
17, 23168, Note_on_c, 11, 65, 67
17, 23168, Note_on_c, 11, 69, 67
17, 23168, Note_on_c, 11, 71, 67
17, 23270, Note_off_c, 11, 62, 0
17, 23270, Note_off_c, 11, 65, 0
17, 23270, Note_off_c, 11, 69, 0
17, 23270, Note_off_c, 11, 71, 0
17, 23296, Note_on_c, 11, 62, 67
17, 23296, Note_on_c, 11, 65, 67
17, 23296, Note_on_c, 11, 69, 67
17, 23296, Note_on_c, 11, 71, 67
17, 23398, Note_off_c, 11, 62, 0
17, 23398, Note_off_c, 11, 65, 0
17, 23398, Note_off_c, 11, 69, 0
17, 23398, Note_off_c, 11, 71, 0
17, 23424, Note_on_c, 11, 62, 67
17, 23424, Note_on_c, 11, 65, 67
17, 23424, Note_on_c, 11, 69, 67
17, 23424, Note_on_c, 11, 71, 67
17, 23526, Note_off_c, 11, 62, 0
17, 23526, Note_off_c, 11, 65, 0
17, 23526, Note_off_c, 11, 69, 0
17, 23526, Note_off_c, 11, 71, 0
17, 23552, Note_on_c, 11, 62, 64
17, 23552, Note_on_c, 11, 65, 64
17, 23552, Note_on_c, 11, 69, 64
17, 23552, Note_on_c, 11, 71, 64
17, 23654, Note_off_c, 11, 62, 0
17, 23654, Note_off_c, 11, 65, 0
17, 23654, Note_off_c, 11, 69, 0
17, 23654, Note_off_c, 11, 71, 0
17, 23680, Note_on_c, 11, 62, 64
17, 23680, Note_on_c, 11, 65, 64
17, 23680, Note_on_c, 11, 69, 64
17, 23680, Note_on_c, 11, 71, 64
17, 23782, Note_off_c, 11, 62, 0
17, 23782, Note_off_c, 11, 65, 0
17, 23782, Note_off_c, 11, 69, 0
17, 23782, Note_off_c, 11, 71, 0
17, 23808, Note_on_c, 11, 62, 64
17, 23808, Note_on_c, 11, 65, 64
17, 23808, Note_on_c, 11, 69, 64
17, 23808, Note_on_c, 11, 71, 64
17, 23910, Note_off_c, 11, 62, 0
17, 23910, Note_off_c, 11, 65, 0
17, 23910, Note_off_c, 11, 69, 0
17, 23910, Note_off_c, 11, 71, 0
17, 23936, Note_on_c, 11, 62, 64
17, 23936, Note_on_c, 11, 65, 64
17, 23936, Note_on_c, 11, 69, 64
17, 23936, Note_on_c, 11, 71, 64
17, 24038, Note_off_c, 11, 62, 0
17, 24038, Note_off_c, 11, 65, 0
17, 24038, Note_off_c, 11, 69, 0
17, 24038, Note_off_c, 11, 71, 0
17, 24064, Note_on_c, 11, 62, 62
17, 24064, Note_on_c, 11, 66, 62
17, 24064, Note_on_c, 11, 68, 62
17, 24064, Note_on_c, 11, 71, 62
17, 24166, Note_off_c, 11, 62, 0
17, 24166, Note_off_c, 11, 66, 0
17, 24166, Note_off_c, 11, 68, 0
17, 24166, Note_off_c, 11, 71, 0
17, 24192, Note_on_c, 11, 62, 62
17, 24192, Note_on_c, 11, 66, 62
17, 24192, Note_on_c, 11, 68, 62
17, 24192, Note_on_c, 11, 71, 62
17, 24294, Note_off_c, 11, 62, 0
17, 24294, Note_off_c, 11, 66, 0
17, 24294, Note_off_c, 11, 68, 0
17, 24294, Note_off_c, 11, 71, 0
17, 24320, Note_on_c, 11, 62, 62
17, 24320, Note_on_c, 11, 66, 62
17, 24320, Note_on_c, 11, 68, 62
17, 24320, Note_on_c, 11, 71, 62
17, 24422, Note_off_c, 11, 62, 0
17, 24422, Note_off_c, 11, 66, 0
17, 24422, Note_off_c, 11, 68, 0
17, 24422, Note_off_c, 11, 71, 0
17, 24448, Note_on_c, 11, 62, 62
17, 24448, Note_on_c, 11, 66, 62
17, 24448, Note_on_c, 11, 68, 62
17, 24448, Note_on_c, 11, 71, 62
17, 24550, Note_off_c, 11, 62, 0
17, 24550, Note_off_c, 11, 66, 0
17, 24550, Note_off_c, 11, 68, 0
17, 24550, Note_off_c, 11, 71, 0
17, 24576, Note_on_c, 11, 62, 58
17, 24576, Note_on_c, 11, 66, 58
17, 24576, Note_on_c, 11, 68, 58
17, 24576, Note_on_c, 11, 71, 58
17, 24678, Note_off_c, 11, 62, 0
17, 24678, Note_off_c, 11, 66, 0
17, 24678, Note_off_c, 11, 68, 0
17, 24678, Note_off_c, 11, 71, 0
17, 24704, Note_on_c, 11, 62, 58
17, 24704, Note_on_c, 11, 66, 58
17, 24704, Note_on_c, 11, 68, 58
17, 24704, Note_on_c, 11, 71, 58
17, 24806, Note_off_c, 11, 62, 0
17, 24806, Note_off_c, 11, 66, 0
17, 24806, Note_off_c, 11, 68, 0
17, 24806, Note_off_c, 11, 71, 0
17, 24832, Note_on_c, 11, 62, 58
17, 24832, Note_on_c, 11, 66, 58
17, 24832, Note_on_c, 11, 68, 58
17, 24832, Note_on_c, 11, 71, 58
17, 24934, Note_off_c, 11, 62, 0
17, 24934, Note_off_c, 11, 66, 0
17, 24934, Note_off_c, 11, 68, 0
17, 24934, Note_off_c, 11, 71, 0
17, 24960, Note_on_c, 11, 62, 57
17, 24960, Note_on_c, 11, 67, 57
17, 24960, Note_on_c, 11, 70, 57
17, 25088, Note_off_c, 11, 62, 0
17, 25088, Note_off_c, 11, 67, 0
17, 25088, Note_off_c, 11, 70, 0
17, 25088, Note_on_c, 11, 62, 63
17, 25088, Note_on_c, 11, 67, 63
17, 25088, Note_on_c, 11, 70, 63
17, 25190, Note_off_c, 11, 62, 0
17, 25190, Note_off_c, 11, 67, 0
17, 25190, Note_off_c, 11, 70, 0
17, 25216, Note_on_c, 11, 62, 63
17, 25216, Note_on_c, 11, 67, 63
17, 25216, Note_on_c, 11, 70, 63
17, 25318, Note_off_c, 11, 62, 0
17, 25318, Note_off_c, 11, 67, 0
17, 25318, Note_off_c, 11, 70, 0
17, 25344, Note_on_c, 11, 62, 63
17, 25344, Note_on_c, 11, 67, 63
17, 25344, Note_on_c, 11, 70, 63
17, 25446, Note_off_c, 11, 62, 0
17, 25446, Note_off_c, 11, 67, 0
17, 25446, Note_off_c, 11, 70, 0
17, 25472, Note_on_c, 11, 62, 63
17, 25472, Note_on_c, 11, 67, 63
17, 25472, Note_on_c, 11, 70, 63
17, 25574, Note_off_c, 11, 62, 0
17, 25574, Note_off_c, 11, 67, 0
17, 25574, Note_off_c, 11, 70, 0
17, 25600, Note_on_c, 11, 62, 57
17, 25600, Note_on_c, 11, 67, 57
17, 25600, Note_on_c, 11, 70, 57
17, 25702, Note_off_c, 11, 62, 0
17, 25702, Note_off_c, 11, 67, 0
17, 25702, Note_off_c, 11, 70, 0
17, 25728, Note_on_c, 11, 62, 57
17, 25728, Note_on_c, 11, 67, 57
17, 25728, Note_on_c, 11, 70, 57
17, 25830, Note_off_c, 11, 62, 0
17, 25830, Note_off_c, 11, 67, 0
17, 25830, Note_off_c, 11, 70, 0
17, 25856, Note_on_c, 11, 62, 57
17, 25856, Note_on_c, 11, 67, 57
17, 25856, Note_on_c, 11, 70, 57
17, 25958, Note_off_c, 11, 62, 0
17, 25958, Note_off_c, 11, 67, 0
17, 25958, Note_off_c, 11, 70, 0
17, 25984, Note_on_c, 11, 55, 54
17, 25984, Note_on_c, 11, 58, 54
17, 25984, Note_on_c, 11, 62, 54
17, 25984, Note_on_c, 11, 63, 54
17, 26112, Note_off_c, 11, 55, 0
17, 26112, Note_off_c, 11, 58, 0
17, 26112, Note_off_c, 11, 62, 0
17, 26112, Note_off_c, 11, 63, 0
17, 26112, Note_on_c, 11, 55, 60
17, 26112, Note_on_c, 11, 58, 60
17, 26112, Note_on_c, 11, 62, 60
17, 26112, Note_on_c, 11, 63, 60
17, 26214, Note_off_c, 11, 55, 0
17, 26214, Note_off_c, 11, 58, 0
17, 26214, Note_off_c, 11, 62, 0
17, 26214, Note_off_c, 11, 63, 0
17, 26240, Note_on_c, 11, 55, 60
17, 26240, Note_on_c, 11, 58, 60
17, 26240, Note_on_c, 11, 62, 60
17, 26240, Note_on_c, 11, 63, 60
17, 26342, Note_off_c, 11, 55, 0
17, 26342, Note_off_c, 11, 58, 0
17, 26342, Note_off_c, 11, 62, 0
17, 26342, Note_off_c, 11, 63, 0
17, 26368, Note_on_c, 11, 55, 60
17, 26368, Note_on_c, 11, 58, 60
17, 26368, Note_on_c, 11, 62, 60
17, 26368, Note_on_c, 11, 63, 60
17, 26470, Note_off_c, 11, 55, 0
17, 26470, Note_off_c, 11, 58, 0
17, 26470, Note_off_c, 11, 62, 0
17, 26470, Note_off_c, 11, 63, 0
17, 26496, Note_on_c, 11, 55, 60
17, 26496, Note_on_c, 11, 58, 60
17, 26496, Note_on_c, 11, 62, 60
17, 26496, Note_on_c, 11, 63, 60
17, 26598, Note_off_c, 11, 55, 0
17, 26598, Note_off_c, 11, 58, 0
17, 26598, Note_off_c, 11, 62, 0
17, 26598, Note_off_c, 11, 63, 0
17, 26624, Note_on_c, 11, 55, 59
17, 26624, Note_on_c, 11, 58, 59
17, 26624, Note_on_c, 11, 62, 59
17, 26624, Note_on_c, 11, 63, 59
17, 26726, Note_off_c, 11, 55, 0
17, 26726, Note_off_c, 11, 58, 0
17, 26726, Note_off_c, 11, 62, 0
17, 26726, Note_off_c, 11, 63, 0
17, 26752, Note_on_c, 11, 55, 59
17, 26752, Note_on_c, 11, 58, 59
17, 26752, Note_on_c, 11, 62, 59
17, 26752, Note_on_c, 11, 63, 59
17, 26854, Note_off_c, 11, 55, 0
17, 26854, Note_off_c, 11, 58, 0
17, 26854, Note_off_c, 11, 62, 0
17, 26854, Note_off_c, 11, 63, 0
17, 26880, Note_on_c, 11, 55, 70
17, 26880, Note_on_c, 11, 58, 70
17, 26880, Note_on_c, 11, 62, 70
17, 26880, Note_on_c, 11, 65, 70
17, 26982, Note_off_c, 11, 55, 0
17, 26982, Note_off_c, 11, 58, 0
17, 26982, Note_off_c, 11, 62, 0
17, 26982, Note_off_c, 11, 65, 0
17, 27008, Note_on_c, 11, 55, 70
17, 27008, Note_on_c, 11, 58, 70
17, 27008, Note_on_c, 11, 62, 70
17, 27008, Note_on_c, 11, 65, 70
17, 27110, Note_off_c, 11, 55, 0
17, 27110, Note_off_c, 11, 58, 0
17, 27110, Note_off_c, 11, 62, 0
17, 27110, Note_off_c, 11, 65, 0
17, 27136, Note_on_c, 11, 55, 70
17, 27136, Note_on_c, 11, 58, 70
17, 27136, Note_on_c, 11, 62, 70
17, 27136, Note_on_c, 11, 65, 70
17, 27238, Note_off_c, 11, 55, 0
17, 27238, Note_off_c, 11, 58, 0
17, 27238, Note_off_c, 11, 62, 0
17, 27238, Note_off_c, 11, 65, 0
17, 27264, Note_on_c, 11, 55, 70
17, 27264, Note_on_c, 11, 58, 70
17, 27264, Note_on_c, 11, 62, 70
17, 27264, Note_on_c, 11, 65, 70
17, 27366, Note_off_c, 11, 55, 0
17, 27366, Note_off_c, 11, 58, 0
17, 27366, Note_off_c, 11, 62, 0
17, 27366, Note_off_c, 11, 65, 0
17, 27392, Note_on_c, 11, 55, 70
17, 27392, Note_on_c, 11, 58, 70
17, 27392, Note_on_c, 11, 62, 70
17, 27392, Note_on_c, 11, 65, 70
17, 27494, Note_off_c, 11, 55, 0
17, 27494, Note_off_c, 11, 58, 0
17, 27494, Note_off_c, 11, 62, 0
17, 27494, Note_off_c, 11, 65, 0
17, 27520, Note_on_c, 11, 55, 70
17, 27520, Note_on_c, 11, 58, 70
17, 27520, Note_on_c, 11, 62, 70
17, 27520, Note_on_c, 11, 65, 70
17, 27622, Note_off_c, 11, 55, 0
17, 27622, Note_off_c, 11, 58, 0
17, 27622, Note_off_c, 11, 62, 0
17, 27622, Note_off_c, 11, 65, 0
17, 27648, Note_on_c, 11, 55, 64
17, 27648, Note_on_c, 11, 58, 64
17, 27648, Note_on_c, 11, 61, 64
17, 27648, Note_on_c, 11, 65, 64
17, 27750, Note_off_c, 11, 55, 0
17, 27750, Note_off_c, 11, 58, 0
17, 27750, Note_off_c, 11, 61, 0
17, 27750, Note_off_c, 11, 65, 0
17, 27776, Note_on_c, 11, 55, 64
17, 27776, Note_on_c, 11, 58, 64
17, 27776, Note_on_c, 11, 61, 64
17, 27776, Note_on_c, 11, 65, 64
17, 27878, Note_off_c, 11, 55, 0
17, 27878, Note_off_c, 11, 58, 0
17, 27878, Note_off_c, 11, 61, 0
17, 27878, Note_off_c, 11, 65, 0
17, 27904, Note_on_c, 11, 55, 64
17, 27904, Note_on_c, 11, 58, 64
17, 27904, Note_on_c, 11, 61, 64
17, 27904, Note_on_c, 11, 65, 64
17, 28006, Note_off_c, 11, 55, 0
17, 28006, Note_off_c, 11, 58, 0
17, 28006, Note_off_c, 11, 61, 0
17, 28006, Note_off_c, 11, 65, 0
17, 28032, Note_on_c, 11, 57, 65
17, 28032, Note_on_c, 11, 58, 65
17, 28032, Note_on_c, 11, 62, 65
17, 28032, Note_on_c, 11, 66, 65
17, 28160, Note_off_c, 11, 57, 0
17, 28160, Note_off_c, 11, 58, 0
17, 28160, Note_off_c, 11, 62, 0
17, 28160, Note_off_c, 11, 66, 0
17, 28160, Note_on_c, 11, 57, 60
17, 28160, Note_on_c, 11, 58, 60
17, 28160, Note_on_c, 11, 62, 60
17, 28160, Note_on_c, 11, 66, 60
17, 28262, Note_off_c, 11, 57, 0
17, 28262, Note_off_c, 11, 58, 0
17, 28262, Note_off_c, 11, 62, 0
17, 28262, Note_off_c, 11, 66, 0
17, 28288, Note_on_c, 11, 57, 60
17, 28288, Note_on_c, 11, 58, 60
17, 28288, Note_on_c, 11, 62, 60
17, 28288, Note_on_c, 11, 66, 60
17, 28390, Note_off_c, 11, 57, 0
17, 28390, Note_off_c, 11, 58, 0
17, 28390, Note_off_c, 11, 62, 0
17, 28390, Note_off_c, 11, 66, 0
17, 28416, Note_on_c, 11, 57, 60
17, 28416, Note_on_c, 11, 58, 60
17, 28416, Note_on_c, 11, 62, 60
17, 28416, Note_on_c, 11, 66, 60
17, 28518, Note_off_c, 11, 57, 0
17, 28518, Note_off_c, 11, 58, 0
17, 28518, Note_off_c, 11, 62, 0
17, 28518, Note_off_c, 11, 66, 0
17, 28544, Note_on_c, 11, 57, 60
17, 28544, Note_on_c, 11, 58, 60
17, 28544, Note_on_c, 11, 62, 60
17, 28544, Note_on_c, 11, 66, 60
17, 28646, Note_off_c, 11, 57, 0
17, 28646, Note_off_c, 11, 58, 0
17, 28646, Note_off_c, 11, 62, 0
17, 28646, Note_off_c, 11, 66, 0
17, 28672, Note_on_c, 11, 57, 61
17, 28672, Note_on_c, 11, 58, 61
17, 28672, Note_on_c, 11, 62, 61
17, 28672, Note_on_c, 11, 66, 61
17, 28774, Note_off_c, 11, 57, 0
17, 28774, Note_off_c, 11, 58, 0
17, 28774, Note_off_c, 11, 62, 0
17, 28774, Note_off_c, 11, 66, 0
17, 28800, Note_on_c, 11, 57, 61
17, 28800, Note_on_c, 11, 58, 61
17, 28800, Note_on_c, 11, 62, 61
17, 28800, Note_on_c, 11, 66, 61
17, 28902, Note_off_c, 11, 57, 0
17, 28902, Note_off_c, 11, 58, 0
17, 28902, Note_off_c, 11, 62, 0
17, 28902, Note_off_c, 11, 66, 0
17, 28928, Note_on_c, 11, 57, 62
17, 28928, Note_on_c, 11, 59, 62
17, 28928, Note_on_c, 11, 63, 62
17, 28928, Note_on_c, 11, 67, 62
17, 29030, Note_off_c, 11, 57, 0
17, 29030, Note_off_c, 11, 59, 0
17, 29030, Note_off_c, 11, 63, 0
17, 29030, Note_off_c, 11, 67, 0
17, 29056, Note_on_c, 11, 57, 62
17, 29056, Note_on_c, 11, 59, 62
17, 29056, Note_on_c, 11, 63, 62
17, 29056, Note_on_c, 11, 67, 62
17, 29158, Note_off_c, 11, 57, 0
17, 29158, Note_off_c, 11, 59, 0
17, 29158, Note_off_c, 11, 63, 0
17, 29158, Note_off_c, 11, 67, 0
17, 29184, Note_on_c, 11, 57, 62
17, 29184, Note_on_c, 11, 59, 62
17, 29184, Note_on_c, 11, 63, 62
17, 29184, Note_on_c, 11, 67, 62
17, 29286, Note_off_c, 11, 57, 0
17, 29286, Note_off_c, 11, 59, 0
17, 29286, Note_off_c, 11, 63, 0
17, 29286, Note_off_c, 11, 67, 0
17, 29312, Note_on_c, 11, 57, 62
17, 29312, Note_on_c, 11, 59, 62
17, 29312, Note_on_c, 11, 63, 62
17, 29312, Note_on_c, 11, 67, 62
17, 29414, Note_off_c, 11, 57, 0
17, 29414, Note_off_c, 11, 59, 0
17, 29414, Note_off_c, 11, 63, 0
17, 29414, Note_off_c, 11, 67, 0
17, 29440, Note_on_c, 11, 57, 62
17, 29440, Note_on_c, 11, 59, 62
17, 29440, Note_on_c, 11, 63, 62
17, 29440, Note_on_c, 11, 67, 62
17, 29542, Note_off_c, 11, 57, 0
17, 29542, Note_off_c, 11, 59, 0
17, 29542, Note_off_c, 11, 63, 0
17, 29542, Note_off_c, 11, 67, 0
17, 29568, Note_on_c, 11, 57, 62
17, 29568, Note_on_c, 11, 59, 62
17, 29568, Note_on_c, 11, 63, 62
17, 29568, Note_on_c, 11, 67, 62
17, 29670, Note_off_c, 11, 57, 0
17, 29670, Note_off_c, 11, 59, 0
17, 29670, Note_off_c, 11, 63, 0
17, 29670, Note_off_c, 11, 67, 0
17, 29696, Note_on_c, 11, 57, 59
17, 29696, Note_on_c, 11, 59, 59
17, 29696, Note_on_c, 11, 63, 59
17, 29696, Note_on_c, 11, 67, 59
17, 29798, Note_off_c, 11, 57, 0
17, 29798, Note_off_c, 11, 59, 0
17, 29798, Note_off_c, 11, 63, 0
17, 29798, Note_off_c, 11, 67, 0
17, 29824, Note_on_c, 11, 57, 59
17, 29824, Note_on_c, 11, 59, 59
17, 29824, Note_on_c, 11, 63, 59
17, 29824, Note_on_c, 11, 67, 59
17, 29926, Note_off_c, 11, 57, 0
17, 29926, Note_off_c, 11, 59, 0
17, 29926, Note_off_c, 11, 63, 0
17, 29926, Note_off_c, 11, 67, 0
17, 29952, Note_on_c, 11, 57, 63
17, 29952, Note_on_c, 11, 59, 63
17, 29952, Note_on_c, 11, 63, 63
17, 29952, Note_on_c, 11, 68, 63
17, 30054, Note_off_c, 11, 57, 0
17, 30054, Note_off_c, 11, 59, 0
17, 30054, Note_off_c, 11, 63, 0
17, 30054, Note_off_c, 11, 68, 0
17, 30080, Note_on_c, 11, 57, 63
17, 30080, Note_on_c, 11, 59, 63
17, 30080, Note_on_c, 11, 63, 63
17, 30080, Note_on_c, 11, 68, 63
17, 30182, Note_off_c, 11, 57, 0
17, 30182, Note_off_c, 11, 59, 0
17, 30182, Note_off_c, 11, 63, 0
17, 30182, Note_off_c, 11, 68, 0
17, 30208, Note_on_c, 11, 57, 63
17, 30208, Note_on_c, 11, 59, 63
17, 30208, Note_on_c, 11, 63, 63
17, 30208, Note_on_c, 11, 68, 63
17, 30310, Note_off_c, 11, 57, 0
17, 30310, Note_off_c, 11, 59, 0
17, 30310, Note_off_c, 11, 63, 0
17, 30310, Note_off_c, 11, 68, 0
17, 30336, Note_on_c, 11, 57, 63
17, 30336, Note_on_c, 11, 59, 63
17, 30336, Note_on_c, 11, 63, 63
17, 30336, Note_on_c, 11, 68, 63
17, 30438, Note_off_c, 11, 57, 0
17, 30438, Note_off_c, 11, 59, 0
17, 30438, Note_off_c, 11, 63, 0
17, 30438, Note_off_c, 11, 68, 0
17, 30464, Note_on_c, 11, 57, 63
17, 30464, Note_on_c, 11, 59, 63
17, 30464, Note_on_c, 11, 63, 63
17, 30464, Note_on_c, 11, 68, 63
17, 30566, Note_off_c, 11, 57, 0
17, 30566, Note_off_c, 11, 59, 0
17, 30566, Note_off_c, 11, 63, 0
17, 30566, Note_off_c, 11, 68, 0
17, 30592, Note_on_c, 11, 57, 63
17, 30592, Note_on_c, 11, 59, 63
17, 30592, Note_on_c, 11, 63, 63
17, 30592, Note_on_c, 11, 68, 63
17, 30694, Note_off_c, 11, 57, 0
17, 30694, Note_off_c, 11, 59, 0
17, 30694, Note_off_c, 11, 63, 0
17, 30694, Note_off_c, 11, 68, 0
17, 30720, Note_on_c, 11, 57, 59
17, 30720, Note_on_c, 11, 60, 59
17, 30720, Note_on_c, 11, 63, 59
17, 30720, Note_on_c, 11, 68, 59
17, 30822, Note_off_c, 11, 57, 0
17, 30822, Note_off_c, 11, 60, 0
17, 30822, Note_off_c, 11, 63, 0
17, 30822, Note_off_c, 11, 68, 0
17, 30848, Note_on_c, 11, 57, 59
17, 30848, Note_on_c, 11, 60, 59
17, 30848, Note_on_c, 11, 63, 59
17, 30848, Note_on_c, 11, 68, 59
17, 30950, Note_off_c, 11, 57, 0
17, 30950, Note_off_c, 11, 60, 0
17, 30950, Note_off_c, 11, 63, 0
17, 30950, Note_off_c, 11, 68, 0
17, 30976, Note_on_c, 11, 57, 59
17, 30976, Note_on_c, 11, 60, 59
17, 30976, Note_on_c, 11, 63, 59
17, 30976, Note_on_c, 11, 68, 59
17, 31078, Note_off_c, 11, 57, 0
17, 31078, Note_off_c, 11, 60, 0
17, 31078, Note_off_c, 11, 63, 0
17, 31078, Note_off_c, 11, 68, 0
17, 31104, Note_on_c, 11, 57, 64
17, 31104, Note_on_c, 11, 60, 64
17, 31104, Note_on_c, 11, 63, 64
17, 31104, Note_on_c, 11, 69, 64
17, 31232, Note_off_c, 11, 57, 0
17, 31232, Note_off_c, 11, 60, 0
17, 31232, Note_off_c, 11, 63, 0
17, 31232, Note_off_c, 11, 69, 0
17, 31232, Note_on_c, 11, 57, 61
17, 31232, Note_on_c, 11, 60, 61
17, 31232, Note_on_c, 11, 63, 61
17, 31232, Note_on_c, 11, 69, 61
17, 31334, Note_off_c, 11, 57, 0
17, 31334, Note_off_c, 11, 60, 0
17, 31334, Note_off_c, 11, 63, 0
17, 31334, Note_off_c, 11, 69, 0
17, 31360, Note_on_c, 11, 57, 61
17, 31360, Note_on_c, 11, 60, 61
17, 31360, Note_on_c, 11, 63, 61
17, 31360, Note_on_c, 11, 69, 61
17, 31462, Note_off_c, 11, 57, 0
17, 31462, Note_off_c, 11, 60, 0
17, 31462, Note_off_c, 11, 63, 0
17, 31462, Note_off_c, 11, 69, 0
17, 31488, Note_on_c, 11, 57, 57
17, 31488, Note_on_c, 11, 60, 57
17, 31488, Note_on_c, 11, 63, 57
17, 31488, Note_on_c, 11, 68, 57
17, 31590, Note_off_c, 11, 57, 0
17, 31590, Note_off_c, 11, 60, 0
17, 31590, Note_off_c, 11, 63, 0
17, 31590, Note_off_c, 11, 68, 0
17, 31616, Note_on_c, 11, 57, 57
17, 31616, Note_on_c, 11, 60, 57
17, 31616, Note_on_c, 11, 63, 57
17, 31616, Note_on_c, 11, 68, 57
17, 31718, Note_off_c, 11, 57, 0
17, 31718, Note_off_c, 11, 60, 0
17, 31718, Note_off_c, 11, 63, 0
17, 31718, Note_off_c, 11, 68, 0
17, 31744, Note_on_c, 11, 57, 62
17, 31744, Note_on_c, 11, 60, 62
17, 31744, Note_on_c, 11, 63, 62
17, 31744, Note_on_c, 11, 68, 62
17, 31846, Note_off_c, 11, 57, 0
17, 31846, Note_off_c, 11, 60, 0
17, 31846, Note_off_c, 11, 63, 0
17, 31846, Note_off_c, 11, 68, 0
17, 31872, Note_on_c, 11, 57, 62
17, 31872, Note_on_c, 11, 60, 62
17, 31872, Note_on_c, 11, 63, 62
17, 31872, Note_on_c, 11, 68, 62
17, 31974, Note_off_c, 11, 57, 0
17, 31974, Note_off_c, 11, 60, 0
17, 31974, Note_off_c, 11, 63, 0
17, 31974, Note_off_c, 11, 68, 0
17, 32000, Note_on_c, 11, 57, 64
17, 32000, Note_on_c, 11, 60, 64
17, 32000, Note_on_c, 11, 63, 64
17, 32000, Note_on_c, 11, 69, 64
17, 32102, Note_off_c, 11, 57, 0
17, 32102, Note_off_c, 11, 60, 0
17, 32102, Note_off_c, 11, 63, 0
17, 32102, Note_off_c, 11, 69, 0
17, 32128, Note_on_c, 11, 57, 64
17, 32128, Note_on_c, 11, 60, 64
17, 32128, Note_on_c, 11, 63, 64
17, 32128, Note_on_c, 11, 69, 64
17, 32230, Note_off_c, 11, 57, 0
17, 32230, Note_off_c, 11, 60, 0
17, 32230, Note_off_c, 11, 63, 0
17, 32230, Note_off_c, 11, 69, 0
17, 32256, Note_on_c, 11, 57, 64
17, 32256, Note_on_c, 11, 60, 64
17, 32256, Note_on_c, 11, 63, 64
17, 32256, Note_on_c, 11, 69, 64
17, 32358, Note_off_c, 11, 57, 0
17, 32358, Note_off_c, 11, 60, 0
17, 32358, Note_off_c, 11, 63, 0
17, 32358, Note_off_c, 11, 69, 0
17, 32384, Note_on_c, 11, 57, 64
17, 32384, Note_on_c, 11, 60, 64
17, 32384, Note_on_c, 11, 63, 64
17, 32384, Note_on_c, 11, 69, 64
17, 32486, Note_off_c, 11, 57, 0
17, 32486, Note_off_c, 11, 60, 0
17, 32486, Note_off_c, 11, 63, 0
17, 32486, Note_off_c, 11, 69, 0
17, 32512, Note_on_c, 11, 56, 58
17, 32512, Note_on_c, 11, 61, 58
17, 32512, Note_on_c, 11, 63, 58
17, 32512, Note_on_c, 11, 69, 58
17, 32614, Note_off_c, 11, 56, 0
17, 32614, Note_off_c, 11, 61, 0
17, 32614, Note_off_c, 11, 63, 0
17, 32614, Note_off_c, 11, 69, 0
17, 32640, Note_on_c, 11, 56, 58
17, 32640, Note_on_c, 11, 61, 58
17, 32640, Note_on_c, 11, 63, 58
17, 32640, Note_on_c, 11, 69, 58
17, 32742, Note_off_c, 11, 56, 0
17, 32742, Note_off_c, 11, 61, 0
17, 32742, Note_off_c, 11, 63, 0
17, 32742, Note_off_c, 11, 69, 0
17, 32768, Note_on_c, 11, 56, 61
17, 32768, Note_on_c, 11, 61, 61
17, 32768, Note_on_c, 11, 63, 61
17, 32768, Note_on_c, 11, 69, 61
17, 32870, Note_off_c, 11, 56, 0
17, 32870, Note_off_c, 11, 61, 0
17, 32870, Note_off_c, 11, 63, 0
17, 32870, Note_off_c, 11, 69, 0
17, 32896, Note_on_c, 11, 56, 61
17, 32896, Note_on_c, 11, 61, 61
17, 32896, Note_on_c, 11, 63, 61
17, 32896, Note_on_c, 11, 69, 61
17, 32998, Note_off_c, 11, 56, 0
17, 32998, Note_off_c, 11, 61, 0
17, 32998, Note_off_c, 11, 63, 0
17, 32998, Note_off_c, 11, 69, 0
17, 33024, Note_on_c, 11, 56, 61
17, 33024, Note_on_c, 11, 61, 61
17, 33024, Note_on_c, 11, 63, 61
17, 33024, Note_on_c, 11, 69, 61
17, 33126, Note_off_c, 11, 56, 0
17, 33126, Note_off_c, 11, 61, 0
17, 33126, Note_off_c, 11, 63, 0
17, 33126, Note_off_c, 11, 69, 0
17, 33152, Note_on_c, 11, 61, 56
17, 33152, Note_on_c, 11, 63, 56
17, 33152, Note_on_c, 11, 68, 56
17, 33152, Note_on_c, 11, 69, 56
17, 33280, Note_off_c, 11, 61, 0
17, 33280, Note_off_c, 11, 63, 0
17, 33280, Note_off_c, 11, 68, 0
17, 33280, Note_off_c, 11, 69, 0
17, 33280, Note_on_c, 11, 61, 55
17, 33280, Note_on_c, 11, 63, 55
17, 33280, Note_on_c, 11, 68, 55
17, 33280, Note_on_c, 11, 69, 55
17, 33382, Note_off_c, 11, 61, 0
17, 33382, Note_off_c, 11, 63, 0
17, 33382, Note_off_c, 11, 68, 0
17, 33382, Note_off_c, 11, 69, 0
17, 33408, Note_on_c, 11, 61, 55
17, 33408, Note_on_c, 11, 63, 55
17, 33408, Note_on_c, 11, 68, 55
17, 33408, Note_on_c, 11, 69, 55
17, 33510, Note_off_c, 11, 61, 0
17, 33510, Note_off_c, 11, 63, 0
17, 33510, Note_off_c, 11, 68, 0
17, 33510, Note_off_c, 11, 69, 0
17, 33536, Note_on_c, 11, 61, 55
17, 33536, Note_on_c, 11, 63, 55
17, 33536, Note_on_c, 11, 68, 55
17, 33536, Note_on_c, 11, 69, 55
17, 33638, Note_off_c, 11, 61, 0
17, 33638, Note_off_c, 11, 63, 0
17, 33638, Note_off_c, 11, 68, 0
17, 33638, Note_off_c, 11, 69, 0
17, 33664, Note_on_c, 11, 61, 55
17, 33664, Note_on_c, 11, 63, 55
17, 33664, Note_on_c, 11, 68, 55
17, 33664, Note_on_c, 11, 69, 55
17, 33766, Note_off_c, 11, 61, 0
17, 33766, Note_off_c, 11, 63, 0
17, 33766, Note_off_c, 11, 68, 0
17, 33766, Note_off_c, 11, 69, 0
17, 33792, Note_on_c, 11, 61, 59
17, 33792, Note_on_c, 11, 63, 59
17, 33792, Note_on_c, 11, 68, 59
17, 33792, Note_on_c, 11, 69, 59
17, 33894, Note_off_c, 11, 61, 0
17, 33894, Note_off_c, 11, 63, 0
17, 33894, Note_off_c, 11, 68, 0
17, 33894, Note_off_c, 11, 69, 0
17, 33920, Note_on_c, 11, 61, 59
17, 33920, Note_on_c, 11, 63, 59
17, 33920, Note_on_c, 11, 68, 59
17, 33920, Note_on_c, 11, 69, 59
17, 34022, Note_off_c, 11, 61, 0
17, 34022, Note_off_c, 11, 63, 0
17, 34022, Note_off_c, 11, 68, 0
17, 34022, Note_off_c, 11, 69, 0
17, 34048, Note_on_c, 11, 60, 57
17, 34048, Note_on_c, 11, 63, 57
17, 34048, Note_on_c, 11, 67, 57
17, 34048, Note_on_c, 11, 68, 57
17, 34150, Note_off_c, 11, 60, 0
17, 34150, Note_off_c, 11, 63, 0
17, 34150, Note_off_c, 11, 67, 0
17, 34150, Note_off_c, 11, 68, 0
17, 34176, Note_on_c, 11, 60, 57
17, 34176, Note_on_c, 11, 63, 57
17, 34176, Note_on_c, 11, 67, 57
17, 34176, Note_on_c, 11, 68, 57
17, 34278, Note_off_c, 11, 60, 0
17, 34278, Note_off_c, 11, 63, 0
17, 34278, Note_off_c, 11, 67, 0
17, 34278, Note_off_c, 11, 68, 0
17, 34304, Note_on_c, 11, 60, 62
17, 34304, Note_on_c, 11, 63, 62
17, 34304, Note_on_c, 11, 67, 62
17, 34304, Note_on_c, 11, 68, 62
17, 34432, Note_off_c, 11, 60, 0
17, 34432, Note_off_c, 11, 63, 0
17, 34432, Note_off_c, 11, 67, 0
17, 34432, Note_off_c, 11, 68, 0
17, 34432, Note_on_c, 11, 61, 64
17, 34432, Note_on_c, 11, 64, 64
17, 34432, Note_on_c, 11, 68, 64
17, 34432, Note_on_c, 11, 69, 64
17, 34534, Note_off_c, 11, 61, 0
17, 34534, Note_off_c, 11, 64, 0
17, 34534, Note_off_c, 11, 68, 0
17, 34534, Note_off_c, 11, 69, 0
17, 34560, Note_on_c, 11, 61, 64
17, 34560, Note_on_c, 11, 64, 64
17, 34560, Note_on_c, 11, 68, 64
17, 34560, Note_on_c, 11, 69, 64
17, 34662, Note_off_c, 11, 61, 0
17, 34662, Note_off_c, 11, 64, 0
17, 34662, Note_off_c, 11, 68, 0
17, 34662, Note_off_c, 11, 69, 0
17, 34688, Note_on_c, 11, 61, 64
17, 34688, Note_on_c, 11, 64, 64
17, 34688, Note_on_c, 11, 68, 64
17, 34688, Note_on_c, 11, 69, 64
17, 34790, Note_off_c, 11, 61, 0
17, 34790, Note_off_c, 11, 64, 0
17, 34790, Note_off_c, 11, 68, 0
17, 34790, Note_off_c, 11, 69, 0
17, 34816, Note_on_c, 11, 61, 61
17, 34816, Note_on_c, 11, 64, 61
17, 34816, Note_on_c, 11, 68, 61
17, 34816, Note_on_c, 11, 69, 61
17, 34918, Note_off_c, 11, 61, 0
17, 34918, Note_off_c, 11, 64, 0
17, 34918, Note_off_c, 11, 68, 0
17, 34918, Note_off_c, 11, 69, 0
17, 34944, Note_on_c, 11, 61, 61
17, 34944, Note_on_c, 11, 64, 61
17, 34944, Note_on_c, 11, 68, 61
17, 34944, Note_on_c, 11, 69, 61
17, 35046, Note_off_c, 11, 61, 0
17, 35046, Note_off_c, 11, 64, 0
17, 35046, Note_off_c, 11, 68, 0
17, 35046, Note_off_c, 11, 69, 0
17, 35072, Note_on_c, 11, 61, 61
17, 35072, Note_on_c, 11, 64, 61
17, 35072, Note_on_c, 11, 68, 61
17, 35072, Note_on_c, 11, 69, 61
17, 35174, Note_off_c, 11, 61, 0
17, 35174, Note_off_c, 11, 64, 0
17, 35174, Note_off_c, 11, 68, 0
17, 35174, Note_off_c, 11, 69, 0
17, 35200, Note_on_c, 11, 61, 61
17, 35200, Note_on_c, 11, 64, 61
17, 35200, Note_on_c, 11, 68, 61
17, 35200, Note_on_c, 11, 69, 61
17, 35302, Note_off_c, 11, 61, 0
17, 35302, Note_off_c, 11, 64, 0
17, 35302, Note_off_c, 11, 68, 0
17, 35302, Note_off_c, 11, 69, 0
17, 35328, Note_on_c, 11, 61, 61
17, 35328, Note_on_c, 11, 64, 61
17, 35328, Note_on_c, 11, 68, 61
17, 35328, Note_on_c, 11, 69, 61
17, 35430, Note_off_c, 11, 61, 0
17, 35430, Note_off_c, 11, 64, 0
17, 35430, Note_off_c, 11, 68, 0
17, 35430, Note_off_c, 11, 69, 0
17, 35456, Note_on_c, 11, 61, 61
17, 35456, Note_on_c, 11, 64, 61
17, 35456, Note_on_c, 11, 68, 61
17, 35456, Note_on_c, 11, 69, 61
17, 35558, Note_off_c, 11, 61, 0
17, 35558, Note_off_c, 11, 64, 0
17, 35558, Note_off_c, 11, 68, 0
17, 35558, Note_off_c, 11, 69, 0
17, 35584, Note_on_c, 11, 62, 63
17, 35584, Note_on_c, 11, 65, 63
17, 35584, Note_on_c, 11, 68, 63
17, 35584, Note_on_c, 11, 70, 63
17, 35686, Note_off_c, 11, 62, 0
17, 35686, Note_off_c, 11, 65, 0
17, 35686, Note_off_c, 11, 68, 0
17, 35686, Note_off_c, 11, 70, 0
17, 35712, Note_on_c, 11, 62, 63
17, 35712, Note_on_c, 11, 65, 63
17, 35712, Note_on_c, 11, 68, 63
17, 35712, Note_on_c, 11, 70, 63
17, 35814, Note_off_c, 11, 62, 0
17, 35814, Note_off_c, 11, 65, 0
17, 35814, Note_off_c, 11, 68, 0
17, 35814, Note_off_c, 11, 70, 0
17, 35840, Note_on_c, 11, 62, 64
17, 35840, Note_on_c, 11, 65, 64
17, 35840, Note_on_c, 11, 68, 64
17, 35840, Note_on_c, 11, 70, 64
17, 35942, Note_off_c, 11, 62, 0
17, 35942, Note_off_c, 11, 65, 0
17, 35942, Note_off_c, 11, 68, 0
17, 35942, Note_off_c, 11, 70, 0
17, 35968, Note_on_c, 11, 62, 64
17, 35968, Note_on_c, 11, 65, 64
17, 35968, Note_on_c, 11, 68, 64
17, 35968, Note_on_c, 11, 70, 64
17, 36070, Note_off_c, 11, 62, 0
17, 36070, Note_off_c, 11, 65, 0
17, 36070, Note_off_c, 11, 68, 0
17, 36070, Note_off_c, 11, 70, 0
17, 36096, Note_on_c, 11, 62, 64
17, 36096, Note_on_c, 11, 65, 64
17, 36096, Note_on_c, 11, 68, 64
17, 36096, Note_on_c, 11, 70, 64
17, 36198, Note_off_c, 11, 62, 0
17, 36198, Note_off_c, 11, 65, 0
17, 36198, Note_off_c, 11, 68, 0
17, 36198, Note_off_c, 11, 70, 0
17, 36224, Note_on_c, 11, 62, 64
17, 36224, Note_on_c, 11, 65, 64
17, 36224, Note_on_c, 11, 68, 64
17, 36224, Note_on_c, 11, 70, 64
17, 36326, Note_off_c, 11, 62, 0
17, 36326, Note_off_c, 11, 65, 0
17, 36326, Note_off_c, 11, 68, 0
17, 36326, Note_off_c, 11, 70, 0
17, 36352, Note_on_c, 11, 62, 64
17, 36352, Note_on_c, 11, 65, 64
17, 36352, Note_on_c, 11, 68, 64
17, 36352, Note_on_c, 11, 70, 64
17, 36454, Note_off_c, 11, 62, 0
17, 36454, Note_off_c, 11, 65, 0
17, 36454, Note_off_c, 11, 68, 0
17, 36454, Note_off_c, 11, 70, 0
17, 36480, Note_on_c, 11, 62, 64
17, 36480, Note_on_c, 11, 65, 64
17, 36480, Note_on_c, 11, 68, 64
17, 36480, Note_on_c, 11, 70, 64
17, 36582, Note_off_c, 11, 62, 0
17, 36582, Note_off_c, 11, 65, 0
17, 36582, Note_off_c, 11, 68, 0
17, 36582, Note_off_c, 11, 70, 0
17, 36608, Note_on_c, 11, 61, 67
17, 36608, Note_on_c, 11, 65, 67
17, 36608, Note_on_c, 11, 67, 67
17, 36608, Note_on_c, 11, 71, 67
17, 36710, Note_off_c, 11, 61, 0
17, 36710, Note_off_c, 11, 65, 0
17, 36710, Note_off_c, 11, 67, 0
17, 36710, Note_off_c, 11, 71, 0
17, 36736, Note_on_c, 11, 61, 67
17, 36736, Note_on_c, 11, 65, 67
17, 36736, Note_on_c, 11, 67, 67
17, 36736, Note_on_c, 11, 71, 67
17, 36838, Note_off_c, 11, 61, 0
17, 36838, Note_off_c, 11, 65, 0
17, 36838, Note_off_c, 11, 67, 0
17, 36838, Note_off_c, 11, 71, 0
17, 36864, Note_on_c, 11, 61, 62
17, 36864, Note_on_c, 11, 65, 62
17, 36864, Note_on_c, 11, 67, 62
17, 36864, Note_on_c, 11, 71, 62
17, 36966, Note_off_c, 11, 61, 0
17, 36966, Note_off_c, 11, 65, 0
17, 36966, Note_off_c, 11, 67, 0
17, 36966, Note_off_c, 11, 71, 0
17, 36992, Note_on_c, 11, 61, 62
17, 36992, Note_on_c, 11, 65, 62
17, 36992, Note_on_c, 11, 67, 62
17, 36992, Note_on_c, 11, 71, 62
17, 37094, Note_off_c, 11, 61, 0
17, 37094, Note_off_c, 11, 65, 0
17, 37094, Note_off_c, 11, 67, 0
17, 37094, Note_off_c, 11, 71, 0
17, 37120, Note_on_c, 11, 61, 62
17, 37120, Note_on_c, 11, 65, 62
17, 37120, Note_on_c, 11, 67, 62
17, 37120, Note_on_c, 11, 71, 62
17, 37222, Note_off_c, 11, 61, 0
17, 37222, Note_off_c, 11, 65, 0
17, 37222, Note_off_c, 11, 67, 0
17, 37222, Note_off_c, 11, 71, 0
17, 37248, Note_on_c, 11, 61, 62
17, 37248, Note_on_c, 11, 65, 62
17, 37248, Note_on_c, 11, 67, 62
17, 37248, Note_on_c, 11, 71, 62
17, 37350, Note_off_c, 11, 61, 0
17, 37350, Note_off_c, 11, 65, 0
17, 37350, Note_off_c, 11, 67, 0
17, 37350, Note_off_c, 11, 71, 0
17, 37376, Note_on_c, 11, 61, 62
17, 37376, Note_on_c, 11, 65, 62
17, 37376, Note_on_c, 11, 67, 62
17, 37376, Note_on_c, 11, 71, 62
17, 37478, Note_off_c, 11, 61, 0
17, 37478, Note_off_c, 11, 65, 0
17, 37478, Note_off_c, 11, 67, 0
17, 37478, Note_off_c, 11, 71, 0
17, 37504, Note_on_c, 11, 61, 62
17, 37504, Note_on_c, 11, 65, 62
17, 37504, Note_on_c, 11, 67, 62
17, 37504, Note_on_c, 11, 71, 62
17, 37606, Note_off_c, 11, 61, 0
17, 37606, Note_off_c, 11, 65, 0
17, 37606, Note_off_c, 11, 67, 0
17, 37606, Note_off_c, 11, 71, 0
17, 37632, Note_on_c, 11, 60, 64
17, 37632, Note_on_c, 11, 64, 64
17, 37632, Note_on_c, 11, 70, 64
17, 37632, Note_on_c, 11, 72, 64
17, 37734, Note_off_c, 11, 60, 0
17, 37734, Note_off_c, 11, 64, 0
17, 37734, Note_off_c, 11, 70, 0
17, 37734, Note_off_c, 11, 72, 0
17, 37760, Note_on_c, 11, 60, 64
17, 37760, Note_on_c, 11, 64, 64
17, 37760, Note_on_c, 11, 70, 64
17, 37760, Note_on_c, 11, 72, 64
17, 37862, Note_off_c, 11, 60, 0
17, 37862, Note_off_c, 11, 64, 0
17, 37862, Note_off_c, 11, 70, 0
17, 37862, Note_off_c, 11, 72, 0
17, 37888, Note_on_c, 11, 60, 62
17, 37888, Note_on_c, 11, 64, 62
17, 37888, Note_on_c, 11, 70, 62
17, 37888, Note_on_c, 11, 72, 62
17, 37990, Note_off_c, 11, 60, 0
17, 37990, Note_off_c, 11, 64, 0
17, 37990, Note_off_c, 11, 70, 0
17, 37990, Note_off_c, 11, 72, 0
17, 38016, Note_on_c, 11, 60, 62
17, 38016, Note_on_c, 11, 64, 62
17, 38016, Note_on_c, 11, 70, 62
17, 38016, Note_on_c, 11, 72, 62
17, 38118, Note_off_c, 11, 60, 0
17, 38118, Note_off_c, 11, 64, 0
17, 38118, Note_off_c, 11, 70, 0
17, 38118, Note_off_c, 11, 72, 0
17, 38144, Note_on_c, 11, 60, 62
17, 38144, Note_on_c, 11, 64, 62
17, 38144, Note_on_c, 11, 70, 62
17, 38144, Note_on_c, 11, 72, 62
17, 38246, Note_off_c, 11, 60, 0
17, 38246, Note_off_c, 11, 64, 0
17, 38246, Note_off_c, 11, 70, 0
17, 38246, Note_off_c, 11, 72, 0
17, 38272, Note_on_c, 11, 60, 62
17, 38272, Note_on_c, 11, 64, 62
17, 38272, Note_on_c, 11, 70, 62
17, 38272, Note_on_c, 11, 72, 62
17, 38374, Note_off_c, 11, 60, 0
17, 38374, Note_off_c, 11, 64, 0
17, 38374, Note_off_c, 11, 70, 0
17, 38374, Note_off_c, 11, 72, 0
17, 38400, Note_on_c, 11, 60, 60
17, 38400, Note_on_c, 11, 64, 60
17, 38400, Note_on_c, 11, 70, 60
17, 38400, Note_on_c, 11, 72, 60
17, 38502, Note_off_c, 11, 60, 0
17, 38502, Note_off_c, 11, 64, 0
17, 38502, Note_off_c, 11, 70, 0
17, 38502, Note_off_c, 11, 72, 0
17, 38528, Note_on_c, 11, 60, 60
17, 38528, Note_on_c, 11, 64, 60
17, 38528, Note_on_c, 11, 70, 60
17, 38528, Note_on_c, 11, 72, 60
17, 38630, Note_off_c, 11, 60, 0
17, 38630, Note_off_c, 11, 64, 0
17, 38630, Note_off_c, 11, 70, 0
17, 38630, Note_off_c, 11, 72, 0
17, 38656, Note_on_c, 11, 60, 60
17, 38656, Note_on_c, 11, 64, 60
17, 38656, Note_on_c, 11, 70, 60
17, 38656, Note_on_c, 11, 72, 60
17, 38758, Note_off_c, 11, 60, 0
17, 38758, Note_off_c, 11, 64, 0
17, 38758, Note_off_c, 11, 70, 0
17, 38758, Note_off_c, 11, 72, 0
17, 38784, Note_on_c, 11, 60, 60
17, 38784, Note_on_c, 11, 64, 60
17, 38784, Note_on_c, 11, 70, 60
17, 38784, Note_on_c, 11, 72, 60
17, 38886, Note_off_c, 11, 60, 0
17, 38886, Note_off_c, 11, 64, 0
17, 38886, Note_off_c, 11, 70, 0
17, 38886, Note_off_c, 11, 72, 0
17, 38912, Note_on_c, 11, 60, 58
17, 38912, Note_on_c, 11, 64, 58
17, 38912, Note_on_c, 11, 70, 58
17, 38912, Note_on_c, 11, 72, 58
17, 39014, Note_off_c, 11, 60, 0
17, 39014, Note_off_c, 11, 64, 0
17, 39014, Note_off_c, 11, 70, 0
17, 39014, Note_off_c, 11, 72, 0
17, 39040, Note_on_c, 11, 60, 58
17, 39040, Note_on_c, 11, 64, 58
17, 39040, Note_on_c, 11, 70, 58
17, 39040, Note_on_c, 11, 72, 58
17, 39142, Note_off_c, 11, 60, 0
17, 39142, Note_off_c, 11, 64, 0
17, 39142, Note_off_c, 11, 70, 0
17, 39142, Note_off_c, 11, 72, 0
17, 39168, Note_on_c, 11, 60, 58
17, 39168, Note_on_c, 11, 64, 58
17, 39168, Note_on_c, 11, 70, 58
17, 39168, Note_on_c, 11, 72, 58
17, 39270, Note_off_c, 11, 60, 0
17, 39270, Note_off_c, 11, 64, 0
17, 39270, Note_off_c, 11, 70, 0
17, 39270, Note_off_c, 11, 72, 0
17, 39296, Note_on_c, 11, 60, 58
17, 39296, Note_on_c, 11, 64, 58
17, 39296, Note_on_c, 11, 70, 58
17, 39296, Note_on_c, 11, 72, 58
17, 39398, Note_off_c, 11, 60, 0
17, 39398, Note_off_c, 11, 64, 0
17, 39398, Note_off_c, 11, 70, 0
17, 39398, Note_off_c, 11, 72, 0
17, 39424, Note_on_c, 11, 60, 58
17, 39424, Note_on_c, 11, 64, 58
17, 39424, Note_on_c, 11, 70, 58
17, 39424, Note_on_c, 11, 72, 58
17, 39526, Note_off_c, 11, 60, 0
17, 39526, Note_off_c, 11, 64, 0
17, 39526, Note_off_c, 11, 70, 0
17, 39526, Note_off_c, 11, 72, 0
17, 39552, Note_on_c, 11, 60, 58
17, 39552, Note_on_c, 11, 64, 58
17, 39552, Note_on_c, 11, 70, 58
17, 39552, Note_on_c, 11, 72, 58
17, 39654, Note_off_c, 11, 60, 0
17, 39654, Note_off_c, 11, 64, 0
17, 39654, Note_off_c, 11, 70, 0
17, 39654, Note_off_c, 11, 72, 0
17, 39680, Note_on_c, 11, 65, 62
17, 39680, Note_on_c, 11, 68, 62
17, 39680, Note_on_c, 11, 71, 62
17, 39680, Note_on_c, 11, 73, 62
17, 39782, Note_off_c, 11, 65, 0
17, 39782, Note_off_c, 11, 68, 0
17, 39782, Note_off_c, 11, 71, 0
17, 39782, Note_off_c, 11, 73, 0
17, 39808, Note_on_c, 11, 65, 62
17, 39808, Note_on_c, 11, 68, 62
17, 39808, Note_on_c, 11, 71, 62
17, 39808, Note_on_c, 11, 73, 62
17, 39910, Note_off_c, 11, 65, 0
17, 39910, Note_off_c, 11, 68, 0
17, 39910, Note_off_c, 11, 71, 0
17, 39910, Note_off_c, 11, 73, 0
17, 39936, Note_on_c, 11, 65, 64
17, 39936, Note_on_c, 11, 68, 64
17, 39936, Note_on_c, 11, 71, 64
17, 39936, Note_on_c, 11, 73, 64
17, 40038, Note_off_c, 11, 65, 0
17, 40038, Note_off_c, 11, 68, 0
17, 40038, Note_off_c, 11, 71, 0
17, 40038, Note_off_c, 11, 73, 0
17, 40064, Note_on_c, 11, 65, 64
17, 40064, Note_on_c, 11, 68, 64
17, 40064, Note_on_c, 11, 71, 64
17, 40064, Note_on_c, 11, 73, 64
17, 40166, Note_off_c, 11, 65, 0
17, 40166, Note_off_c, 11, 68, 0
17, 40166, Note_off_c, 11, 71, 0
17, 40166, Note_off_c, 11, 73, 0
17, 40192, Note_on_c, 11, 65, 64
17, 40192, Note_on_c, 11, 68, 64
17, 40192, Note_on_c, 11, 71, 64
17, 40192, Note_on_c, 11, 73, 64
17, 40294, Note_off_c, 11, 65, 0
17, 40294, Note_off_c, 11, 68, 0
17, 40294, Note_off_c, 11, 71, 0
17, 40294, Note_off_c, 11, 73, 0
17, 40320, Note_on_c, 11, 65, 64
17, 40320, Note_on_c, 11, 68, 64
17, 40320, Note_on_c, 11, 71, 64
17, 40320, Note_on_c, 11, 73, 64
17, 40422, Note_off_c, 11, 65, 0
17, 40422, Note_off_c, 11, 68, 0
17, 40422, Note_off_c, 11, 71, 0
17, 40422, Note_off_c, 11, 73, 0
17, 40448, Note_on_c, 11, 65, 64
17, 40448, Note_on_c, 11, 68, 64
17, 40448, Note_on_c, 11, 71, 64
17, 40448, Note_on_c, 11, 73, 64
17, 40550, Note_off_c, 11, 65, 0
17, 40550, Note_off_c, 11, 68, 0
17, 40550, Note_off_c, 11, 71, 0
17, 40550, Note_off_c, 11, 73, 0
17, 40576, Note_on_c, 11, 65, 64
17, 40576, Note_on_c, 11, 68, 64
17, 40576, Note_on_c, 11, 71, 64
17, 40576, Note_on_c, 11, 73, 64
17, 40678, Note_off_c, 11, 65, 0
17, 40678, Note_off_c, 11, 68, 0
17, 40678, Note_off_c, 11, 71, 0
17, 40678, Note_off_c, 11, 73, 0
17, 41024, Note_on_c, 11, 65, 78
17, 41024, Note_on_c, 11, 72, 78
17, 41088, Note_on_c, 11, 68, 78
17, 41088, Note_on_c, 11, 74, 78
17, 41089, Note_off_c, 11, 65, 0
17, 41089, Note_off_c, 11, 72, 0
17, 41118, Note_off_c, 11, 68, 0
17, 41118, Note_off_c, 11, 74, 0
17, 41152, Note_on_c, 11, 65, 78
17, 41152, Note_on_c, 11, 72, 78
17, 41216, Note_on_c, 11, 68, 79
17, 41216, Note_on_c, 11, 74, 79
17, 41217, Note_off_c, 11, 65, 0
17, 41217, Note_off_c, 11, 72, 0
17, 41246, Note_off_c, 11, 68, 0
17, 41246, Note_off_c, 11, 74, 0
17, 41280, Note_on_c, 11, 65, 73
17, 41280, Note_on_c, 11, 72, 73
17, 41344, Note_on_c, 11, 68, 80
17, 41344, Note_on_c, 11, 74, 80
17, 41345, Note_off_c, 11, 65, 0
17, 41345, Note_off_c, 11, 72, 0
17, 41374, Note_off_c, 11, 68, 0
17, 41374, Note_off_c, 11, 74, 0
17, 41408, Note_on_c, 11, 65, 76
17, 41408, Note_on_c, 11, 72, 76
17, 41472, Note_on_c, 11, 68, 82
17, 41472, Note_on_c, 11, 74, 82
17, 41473, Note_off_c, 11, 65, 0
17, 41473, Note_off_c, 11, 72, 0
17, 41502, Note_off_c, 11, 68, 0
17, 41502, Note_off_c, 11, 74, 0
17, 41536, Note_on_c, 11, 65, 75
17, 41536, Note_on_c, 11, 72, 75
17, 41600, Note_on_c, 11, 68, 79
17, 41600, Note_on_c, 11, 75, 79
17, 41601, Note_off_c, 11, 65, 0
17, 41601, Note_off_c, 11, 72, 0
17, 41630, Note_off_c, 11, 68, 0
17, 41630, Note_off_c, 11, 75, 0
17, 41664, Note_on_c, 11, 65, 78
17, 41664, Note_on_c, 11, 72, 78
17, 41728, Note_on_c, 11, 68, 89
17, 41728, Note_on_c, 11, 75, 89
17, 41729, Note_off_c, 11, 65, 0
17, 41729, Note_off_c, 11, 72, 0
17, 41758, Note_off_c, 11, 68, 0
17, 41758, Note_off_c, 11, 75, 0
17, 41792, Note_on_c, 11, 65, 72
17, 41792, Note_on_c, 11, 72, 72
17, 41856, Note_on_c, 11, 68, 75
17, 41856, Note_on_c, 11, 75, 75
17, 41857, Note_off_c, 11, 65, 0
17, 41857, Note_off_c, 11, 72, 0
17, 41886, Note_off_c, 11, 68, 0
17, 41886, Note_off_c, 11, 75, 0
17, 41920, Note_on_c, 11, 65, 79
17, 41920, Note_on_c, 11, 72, 79
17, 41984, Note_on_c, 11, 68, 88
17, 41984, Note_on_c, 11, 75, 88
17, 41985, Note_off_c, 11, 65, 0
17, 41985, Note_off_c, 11, 72, 0
17, 42014, Note_off_c, 11, 68, 0
17, 42014, Note_off_c, 11, 75, 0
17, 42048, Note_on_c, 11, 65, 75
17, 42048, Note_on_c, 11, 72, 75
17, 42112, Note_on_c, 11, 68, 80
17, 42112, Note_on_c, 11, 75, 80
17, 42113, Note_off_c, 11, 65, 0
17, 42113, Note_off_c, 11, 72, 0
17, 42142, Note_off_c, 11, 68, 0
17, 42142, Note_off_c, 11, 75, 0
17, 42176, Note_on_c, 11, 65, 75
17, 42176, Note_on_c, 11, 70, 75
17, 42240, Note_on_c, 11, 67, 84
17, 42240, Note_on_c, 11, 74, 84
17, 42241, Note_off_c, 11, 65, 0
17, 42241, Note_off_c, 11, 70, 0
17, 42270, Note_off_c, 11, 67, 0
17, 42270, Note_off_c, 11, 74, 0
17, 42304, Note_on_c, 11, 65, 77
17, 42304, Note_on_c, 11, 70, 77
17, 42368, Note_on_c, 11, 67, 83
17, 42368, Note_on_c, 11, 74, 83
17, 42369, Note_off_c, 11, 65, 0
17, 42369, Note_off_c, 11, 70, 0
17, 42398, Note_off_c, 11, 67, 0
17, 42398, Note_off_c, 11, 74, 0
17, 42432, Note_on_c, 11, 65, 77
17, 42432, Note_on_c, 11, 70, 77
17, 42496, Note_on_c, 11, 67, 82
17, 42496, Note_on_c, 11, 74, 82
17, 42497, Note_off_c, 11, 65, 0
17, 42497, Note_off_c, 11, 70, 0
17, 42526, Note_off_c, 11, 67, 0
17, 42526, Note_off_c, 11, 74, 0
17, 42560, Note_on_c, 11, 65, 73
17, 42560, Note_on_c, 11, 70, 73
17, 42624, Note_on_c, 11, 67, 77
17, 42624, Note_on_c, 11, 74, 77
17, 42625, Note_off_c, 11, 65, 0
17, 42625, Note_off_c, 11, 70, 0
17, 42654, Note_off_c, 11, 67, 0
17, 42654, Note_off_c, 11, 74, 0
17, 42688, Note_on_c, 11, 65, 74
17, 42688, Note_on_c, 11, 70, 74
17, 42752, Note_on_c, 11, 67, 78
17, 42752, Note_on_c, 11, 74, 78
17, 42753, Note_off_c, 11, 65, 0
17, 42753, Note_off_c, 11, 70, 0
17, 42782, Note_off_c, 11, 67, 0
17, 42782, Note_off_c, 11, 74, 0
17, 42816, Note_on_c, 11, 65, 75
17, 42816, Note_on_c, 11, 70, 75
17, 42880, Note_on_c, 11, 67, 85
17, 42880, Note_on_c, 11, 74, 85
17, 42881, Note_off_c, 11, 65, 0
17, 42881, Note_off_c, 11, 70, 0
17, 42910, Note_off_c, 11, 67, 0
17, 42910, Note_off_c, 11, 74, 0
17, 42944, Note_on_c, 11, 65, 75
17, 42944, Note_on_c, 11, 70, 75
17, 43008, Note_on_c, 11, 67, 80
17, 43008, Note_on_c, 11, 74, 80
17, 43009, Note_off_c, 11, 65, 0
17, 43009, Note_off_c, 11, 70, 0
17, 43038, Note_off_c, 11, 67, 0
17, 43038, Note_off_c, 11, 74, 0
17, 43072, Note_on_c, 11, 65, 77
17, 43072, Note_on_c, 11, 70, 77
17, 43136, Note_on_c, 11, 67, 85
17, 43136, Note_on_c, 11, 74, 85
17, 43137, Note_off_c, 11, 65, 0
17, 43137, Note_off_c, 11, 70, 0
17, 43166, Note_off_c, 11, 67, 0
17, 43166, Note_off_c, 11, 74, 0
17, 43200, Note_on_c, 11, 65, 80
17, 43200, Note_on_c, 11, 71, 80
17, 43264, Note_on_c, 11, 69, 83
17, 43264, Note_on_c, 11, 74, 83
17, 43265, Note_off_c, 11, 65, 0
17, 43265, Note_off_c, 11, 71, 0
17, 43294, Note_off_c, 11, 69, 0
17, 43294, Note_off_c, 11, 74, 0
17, 43328, Note_on_c, 11, 65, 75
17, 43328, Note_on_c, 11, 71, 75
17, 43392, Note_on_c, 11, 69, 81
17, 43392, Note_on_c, 11, 74, 81
17, 43393, Note_off_c, 11, 65, 0
17, 43393, Note_off_c, 11, 71, 0
17, 43422, Note_off_c, 11, 69, 0
17, 43422, Note_off_c, 11, 74, 0
17, 43456, Note_on_c, 11, 65, 72
17, 43456, Note_on_c, 11, 71, 72
17, 43520, Note_on_c, 11, 69, 78
17, 43520, Note_on_c, 11, 74, 78
17, 43521, Note_off_c, 11, 65, 0
17, 43521, Note_off_c, 11, 71, 0
17, 43550, Note_off_c, 11, 69, 0
17, 43550, Note_off_c, 11, 74, 0
17, 43584, Note_on_c, 11, 65, 80
17, 43584, Note_on_c, 11, 71, 80
17, 43648, Note_on_c, 11, 69, 84
17, 43648, Note_on_c, 11, 74, 84
17, 43649, Note_off_c, 11, 65, 0
17, 43649, Note_off_c, 11, 71, 0
17, 43678, Note_off_c, 11, 69, 0
17, 43678, Note_off_c, 11, 74, 0
17, 43712, Note_on_c, 11, 65, 73
17, 43712, Note_on_c, 11, 71, 73
17, 43776, Note_on_c, 11, 69, 78
17, 43776, Note_on_c, 11, 74, 78
17, 43777, Note_off_c, 11, 65, 0
17, 43777, Note_off_c, 11, 71, 0
17, 43806, Note_off_c, 11, 69, 0
17, 43806, Note_off_c, 11, 74, 0
17, 43840, Note_on_c, 11, 65, 73
17, 43840, Note_on_c, 11, 71, 73
17, 43904, Note_on_c, 11, 69, 80
17, 43904, Note_on_c, 11, 74, 80
17, 43905, Note_off_c, 11, 65, 0
17, 43905, Note_off_c, 11, 71, 0
17, 43934, Note_off_c, 11, 69, 0
17, 43934, Note_off_c, 11, 74, 0
17, 43968, Note_on_c, 11, 65, 77
17, 43968, Note_on_c, 11, 71, 77
17, 44032, Note_on_c, 11, 70, 85
17, 44032, Note_on_c, 11, 75, 85
17, 44033, Note_off_c, 11, 65, 0
17, 44033, Note_off_c, 11, 71, 0
17, 44062, Note_off_c, 11, 70, 0
17, 44062, Note_off_c, 11, 75, 0
17, 44096, Note_on_c, 11, 65, 77
17, 44096, Note_on_c, 11, 68, 77
17, 44160, Note_on_c, 11, 70, 97
17, 44160, Note_on_c, 11, 75, 97
17, 44161, Note_off_c, 11, 65, 0
17, 44161, Note_off_c, 11, 68, 0
17, 44190, Note_off_c, 11, 70, 0
17, 44190, Note_off_c, 11, 75, 0
17, 44224, Note_on_c, 11, 65, 75
17, 44224, Note_on_c, 11, 68, 75
17, 44288, Note_on_c, 11, 70, 89
17, 44288, Note_on_c, 11, 75, 89
17, 44289, Note_off_c, 11, 65, 0
17, 44289, Note_off_c, 11, 68, 0
17, 44318, Note_off_c, 11, 70, 0
17, 44318, Note_off_c, 11, 75, 0
17, 44352, Note_on_c, 11, 65, 75
17, 44352, Note_on_c, 11, 68, 75
17, 44416, Note_on_c, 11, 70, 88
17, 44416, Note_on_c, 11, 75, 88
17, 44417, Note_off_c, 11, 65, 0
17, 44417, Note_off_c, 11, 68, 0
17, 44446, Note_off_c, 11, 70, 0
17, 44446, Note_off_c, 11, 75, 0
17, 44480, Note_on_c, 11, 65, 77
17, 44480, Note_on_c, 11, 68, 77
17, 44544, Note_on_c, 11, 70, 85
17, 44544, Note_on_c, 11, 75, 85
17, 44545, Note_off_c, 11, 65, 0
17, 44545, Note_off_c, 11, 68, 0
17, 44574, Note_off_c, 11, 70, 0
17, 44574, Note_off_c, 11, 75, 0
17, 44608, Note_on_c, 11, 65, 76
17, 44608, Note_on_c, 11, 68, 76
17, 44672, Note_on_c, 11, 70, 87
17, 44672, Note_on_c, 11, 75, 87
17, 44673, Note_off_c, 11, 65, 0
17, 44673, Note_off_c, 11, 68, 0
17, 44702, Note_off_c, 11, 70, 0
17, 44702, Note_off_c, 11, 75, 0
17, 44736, Note_on_c, 11, 65, 76
17, 44736, Note_on_c, 11, 68, 76
17, 44800, Note_on_c, 11, 70, 86
17, 44800, Note_on_c, 11, 75, 86
17, 44801, Note_off_c, 11, 65, 0
17, 44801, Note_off_c, 11, 68, 0
17, 44830, Note_off_c, 11, 70, 0
17, 44830, Note_off_c, 11, 75, 0
17, 44864, Note_on_c, 11, 65, 67
17, 44864, Note_on_c, 11, 68, 67
17, 44928, Note_on_c, 11, 70, 77
17, 44928, Note_on_c, 11, 75, 77
17, 44929, Note_off_c, 11, 65, 0
17, 44929, Note_off_c, 11, 68, 0
17, 44958, Note_off_c, 11, 70, 0
17, 44958, Note_off_c, 11, 75, 0
17, 44992, Note_on_c, 11, 66, 76
17, 44992, Note_on_c, 11, 72, 76
17, 45056, Note_on_c, 11, 69, 79
17, 45056, Note_on_c, 11, 76, 79
17, 45057, Note_off_c, 11, 66, 0
17, 45057, Note_off_c, 11, 72, 0
17, 45086, Note_off_c, 11, 69, 0
17, 45086, Note_off_c, 11, 76, 0
17, 45120, Note_on_c, 11, 66, 76
17, 45120, Note_on_c, 11, 72, 76
17, 45184, Note_on_c, 11, 69, 83
17, 45184, Note_on_c, 11, 76, 83
17, 45185, Note_off_c, 11, 66, 0
17, 45185, Note_off_c, 11, 72, 0
17, 45214, Note_off_c, 11, 69, 0
17, 45214, Note_off_c, 11, 76, 0
17, 45248, Note_on_c, 11, 66, 75
17, 45248, Note_on_c, 11, 72, 75
17, 45312, Note_on_c, 11, 69, 83
17, 45312, Note_on_c, 11, 76, 83
17, 45313, Note_off_c, 11, 66, 0
17, 45313, Note_off_c, 11, 72, 0
17, 45342, Note_off_c, 11, 69, 0
17, 45342, Note_off_c, 11, 76, 0
17, 45376, Note_on_c, 11, 66, 76
17, 45376, Note_on_c, 11, 72, 76
17, 45440, Note_on_c, 11, 69, 82
17, 45440, Note_on_c, 11, 76, 82
17, 45441, Note_off_c, 11, 66, 0
17, 45441, Note_off_c, 11, 72, 0
17, 45470, Note_off_c, 11, 69, 0
17, 45470, Note_off_c, 11, 76, 0
17, 45504, Note_on_c, 11, 66, 78
17, 45504, Note_on_c, 11, 72, 78
17, 45568, Note_on_c, 11, 69, 85
17, 45568, Note_on_c, 11, 76, 85
17, 45569, Note_off_c, 11, 66, 0
17, 45569, Note_off_c, 11, 72, 0
17, 45598, Note_off_c, 11, 69, 0
17, 45598, Note_off_c, 11, 76, 0
17, 45632, Note_on_c, 11, 66, 78
17, 45632, Note_on_c, 11, 72, 78
17, 45696, Note_on_c, 11, 69, 90
17, 45696, Note_on_c, 11, 76, 90
17, 45697, Note_off_c, 11, 66, 0
17, 45697, Note_off_c, 11, 72, 0
17, 45726, Note_off_c, 11, 69, 0
17, 45726, Note_off_c, 11, 76, 0
17, 45760, Note_on_c, 11, 66, 77
17, 45760, Note_on_c, 11, 72, 77
17, 45824, Note_on_c, 11, 69, 88
17, 45824, Note_on_c, 11, 76, 88
17, 45825, Note_off_c, 11, 66, 0
17, 45825, Note_off_c, 11, 72, 0
17, 45854, Note_off_c, 11, 69, 0
17, 45854, Note_off_c, 11, 76, 0
17, 45888, Note_on_c, 11, 66, 76
17, 45888, Note_on_c, 11, 72, 76
17, 45952, Note_on_c, 11, 69, 84
17, 45952, Note_on_c, 11, 76, 84
17, 45953, Note_off_c, 11, 66, 0
17, 45953, Note_off_c, 11, 72, 0
17, 45982, Note_off_c, 11, 69, 0
17, 45982, Note_off_c, 11, 76, 0
17, 46016, Note_on_c, 11, 66, 77
17, 46016, Note_on_c, 11, 72, 77
17, 46080, Note_on_c, 11, 69, 84
17, 46080, Note_on_c, 11, 76, 84
17, 46081, Note_off_c, 11, 66, 0
17, 46081, Note_off_c, 11, 72, 0
17, 46110, Note_off_c, 11, 69, 0
17, 46110, Note_off_c, 11, 76, 0
17, 46144, Note_on_c, 11, 66, 75
17, 46144, Note_on_c, 11, 72, 75
17, 46208, Note_on_c, 11, 69, 81
17, 46208, Note_on_c, 11, 76, 81
17, 46209, Note_off_c, 11, 66, 0
17, 46209, Note_off_c, 11, 72, 0
17, 46238, Note_off_c, 11, 69, 0
17, 46238, Note_off_c, 11, 76, 0
17, 46272, Note_on_c, 11, 66, 78
17, 46272, Note_on_c, 11, 72, 78
17, 46336, Note_on_c, 11, 69, 86
17, 46336, Note_on_c, 11, 76, 86
17, 46337, Note_off_c, 11, 66, 0
17, 46337, Note_off_c, 11, 72, 0
17, 46366, Note_off_c, 11, 69, 0
17, 46366, Note_off_c, 11, 76, 0
17, 46400, Note_on_c, 11, 66, 74
17, 46400, Note_on_c, 11, 72, 74
17, 46464, Note_on_c, 11, 69, 81
17, 46464, Note_on_c, 11, 76, 81
17, 46465, Note_off_c, 11, 66, 0
17, 46465, Note_off_c, 11, 72, 0
17, 46494, Note_off_c, 11, 69, 0
17, 46494, Note_off_c, 11, 76, 0
17, 46528, Note_on_c, 11, 66, 70
17, 46528, Note_on_c, 11, 72, 70
17, 46592, Note_on_c, 11, 69, 77
17, 46592, Note_on_c, 11, 76, 77
17, 46593, Note_off_c, 11, 66, 0
17, 46593, Note_off_c, 11, 72, 0
17, 46622, Note_off_c, 11, 69, 0
17, 46622, Note_off_c, 11, 76, 0
17, 46656, Note_on_c, 11, 66, 73
17, 46656, Note_on_c, 11, 72, 73
17, 46720, Note_on_c, 11, 69, 80
17, 46720, Note_on_c, 11, 76, 80
17, 46721, Note_off_c, 11, 66, 0
17, 46721, Note_off_c, 11, 72, 0
17, 46750, Note_off_c, 11, 69, 0
17, 46750, Note_off_c, 11, 76, 0
17, 46784, Note_on_c, 11, 66, 77
17, 46784, Note_on_c, 11, 72, 77
17, 46848, Note_on_c, 11, 69, 79
17, 46848, Note_on_c, 11, 76, 79
17, 46849, Note_off_c, 11, 66, 0
17, 46849, Note_off_c, 11, 72, 0
17, 46878, Note_off_c, 11, 69, 0
17, 46878, Note_off_c, 11, 76, 0
17, 46912, Note_on_c, 11, 66, 75
17, 46912, Note_on_c, 11, 72, 75
17, 46976, Note_on_c, 11, 69, 79
17, 46976, Note_on_c, 11, 76, 79
17, 46977, Note_off_c, 11, 66, 0
17, 46977, Note_off_c, 11, 72, 0
17, 47006, Note_off_c, 11, 69, 0
17, 47006, Note_off_c, 11, 76, 0
17, 47040, Note_on_c, 11, 66, 76
17, 47040, Note_on_c, 11, 72, 76
17, 47104, Note_on_c, 11, 69, 85
17, 47104, Note_on_c, 11, 76, 85
17, 47105, Note_off_c, 11, 66, 0
17, 47105, Note_off_c, 11, 72, 0
17, 47134, Note_off_c, 11, 69, 0
17, 47134, Note_off_c, 11, 76, 0
17, 47168, Note_on_c, 11, 65, 74
17, 47168, Note_on_c, 11, 71, 74
17, 47232, Note_on_c, 11, 69, 83
17, 47232, Note_on_c, 11, 76, 83
17, 47233, Note_off_c, 11, 65, 0
17, 47233, Note_off_c, 11, 71, 0
17, 47262, Note_off_c, 11, 69, 0
17, 47262, Note_off_c, 11, 76, 0
17, 47296, Note_on_c, 11, 65, 75
17, 47296, Note_on_c, 11, 71, 75
17, 47360, Note_on_c, 11, 69, 89
17, 47360, Note_on_c, 11, 76, 89
17, 47361, Note_off_c, 11, 65, 0
17, 47361, Note_off_c, 11, 71, 0
17, 47390, Note_off_c, 11, 69, 0
17, 47390, Note_off_c, 11, 76, 0
17, 47424, Note_on_c, 11, 65, 77
17, 47424, Note_on_c, 11, 71, 77
17, 47488, Note_on_c, 11, 69, 80
17, 47488, Note_on_c, 11, 76, 80
17, 47489, Note_off_c, 11, 65, 0
17, 47489, Note_off_c, 11, 71, 0
17, 47518, Note_off_c, 11, 69, 0
17, 47518, Note_off_c, 11, 76, 0
17, 47552, Note_on_c, 11, 65, 69
17, 47552, Note_on_c, 11, 71, 69
17, 47616, Note_on_c, 11, 69, 78
17, 47616, Note_on_c, 11, 76, 78
17, 47617, Note_off_c, 11, 65, 0
17, 47617, Note_off_c, 11, 71, 0
17, 47646, Note_off_c, 11, 69, 0
17, 47646, Note_off_c, 11, 76, 0
17, 47680, Note_on_c, 11, 65, 78
17, 47680, Note_on_c, 11, 71, 78
17, 47744, Note_on_c, 11, 69, 91
17, 47744, Note_on_c, 11, 76, 91
17, 47745, Note_off_c, 11, 65, 0
17, 47745, Note_off_c, 11, 71, 0
17, 47774, Note_off_c, 11, 69, 0
17, 47774, Note_off_c, 11, 76, 0
17, 47808, Note_on_c, 11, 65, 74
17, 47808, Note_on_c, 11, 71, 74
17, 47872, Note_on_c, 11, 69, 86
17, 47872, Note_on_c, 11, 76, 86
17, 47873, Note_off_c, 11, 65, 0
17, 47873, Note_off_c, 11, 71, 0
17, 47902, Note_off_c, 11, 69, 0
17, 47902, Note_off_c, 11, 76, 0
17, 47936, Note_on_c, 11, 65, 76
17, 47936, Note_on_c, 11, 71, 76
17, 48000, Note_on_c, 11, 69, 86
17, 48000, Note_on_c, 11, 76, 86
17, 48001, Note_off_c, 11, 65, 0
17, 48001, Note_off_c, 11, 71, 0
17, 48030, Note_off_c, 11, 69, 0
17, 48030, Note_off_c, 11, 76, 0
17, 48064, Note_on_c, 11, 65, 75
17, 48064, Note_on_c, 11, 71, 75
17, 48128, Note_on_c, 11, 69, 81
17, 48128, Note_on_c, 11, 76, 81
17, 48129, Note_off_c, 11, 65, 0
17, 48129, Note_off_c, 11, 71, 0
17, 48158, Note_off_c, 11, 69, 0
17, 48158, Note_off_c, 11, 76, 0
17, 48192, Note_on_c, 11, 66, 75
17, 48192, Note_on_c, 11, 72, 75
17, 48256, Note_on_c, 11, 70, 80
17, 48256, Note_on_c, 11, 77, 80
17, 48257, Note_off_c, 11, 66, 0
17, 48257, Note_off_c, 11, 72, 0
17, 48286, Note_off_c, 11, 70, 0
17, 48286, Note_off_c, 11, 77, 0
17, 48320, Note_on_c, 11, 66, 77
17, 48320, Note_on_c, 11, 72, 77
17, 48384, Note_on_c, 11, 70, 88
17, 48384, Note_on_c, 11, 77, 88
17, 48385, Note_off_c, 11, 66, 0
17, 48385, Note_off_c, 11, 72, 0
17, 48414, Note_off_c, 11, 70, 0
17, 48414, Note_off_c, 11, 77, 0
17, 48448, Note_on_c, 11, 66, 81
17, 48448, Note_on_c, 11, 72, 81
17, 48512, Note_on_c, 11, 70, 91
17, 48512, Note_on_c, 11, 77, 91
17, 48513, Note_off_c, 11, 66, 0
17, 48513, Note_off_c, 11, 72, 0
17, 48542, Note_off_c, 11, 70, 0
17, 48542, Note_off_c, 11, 77, 0
17, 48576, Note_on_c, 11, 66, 79
17, 48576, Note_on_c, 11, 72, 79
17, 48640, Note_on_c, 11, 70, 90
17, 48640, Note_on_c, 11, 77, 90
17, 48641, Note_off_c, 11, 66, 0
17, 48641, Note_off_c, 11, 72, 0
17, 48670, Note_off_c, 11, 70, 0
17, 48670, Note_off_c, 11, 77, 0
17, 48704, Note_on_c, 11, 66, 73
17, 48704, Note_on_c, 11, 72, 73
17, 48768, Note_on_c, 11, 70, 82
17, 48768, Note_on_c, 11, 77, 82
17, 48769, Note_off_c, 11, 66, 0
17, 48769, Note_off_c, 11, 72, 0
17, 48798, Note_off_c, 11, 70, 0
17, 48798, Note_off_c, 11, 77, 0
17, 48832, Note_on_c, 11, 66, 74
17, 48832, Note_on_c, 11, 72, 74
17, 48896, Note_on_c, 11, 70, 85
17, 48896, Note_on_c, 11, 77, 85
17, 48897, Note_off_c, 11, 66, 0
17, 48897, Note_off_c, 11, 72, 0
17, 48926, Note_off_c, 11, 70, 0
17, 48926, Note_off_c, 11, 77, 0
17, 48960, Note_on_c, 11, 66, 81
17, 48960, Note_on_c, 11, 72, 81
17, 49024, Note_on_c, 11, 70, 96
17, 49024, Note_on_c, 11, 77, 96
17, 49025, Note_off_c, 11, 66, 0
17, 49025, Note_off_c, 11, 72, 0
17, 49054, Note_off_c, 11, 70, 0
17, 49054, Note_off_c, 11, 77, 0
17, 49088, Note_on_c, 11, 66, 77
17, 49088, Note_on_c, 11, 72, 77
17, 49152, Note_on_c, 11, 70, 89
17, 49152, Note_on_c, 11, 77, 89
17, 49153, Note_off_c, 11, 66, 0
17, 49153, Note_off_c, 11, 72, 0
17, 49182, Note_off_c, 11, 70, 0
17, 49182, Note_off_c, 11, 77, 0
17, 49216, Note_on_c, 11, 66, 77
17, 49216, Note_on_c, 11, 72, 77
17, 49280, Note_on_c, 11, 70, 85
17, 49280, Note_on_c, 11, 77, 85
17, 49281, Note_off_c, 11, 66, 0
17, 49281, Note_off_c, 11, 72, 0
17, 49310, Note_off_c, 11, 70, 0
17, 49310, Note_off_c, 11, 77, 0
17, 49344, Note_on_c, 11, 66, 77
17, 49344, Note_on_c, 11, 72, 77
17, 49408, Note_on_c, 11, 70, 85
17, 49408, Note_on_c, 11, 77, 85
17, 49409, Note_off_c, 11, 66, 0
17, 49409, Note_off_c, 11, 72, 0
17, 49438, Note_off_c, 11, 70, 0
17, 49438, Note_off_c, 11, 77, 0
17, 49472, Note_on_c, 11, 66, 74
17, 49472, Note_on_c, 11, 72, 74
17, 49536, Note_on_c, 11, 65, 81
17, 49536, Note_on_c, 11, 77, 81
17, 49537, Note_off_c, 11, 66, 0
17, 49537, Note_off_c, 11, 72, 0
17, 49566, Note_off_c, 11, 65, 0
17, 49566, Note_off_c, 11, 77, 0
17, 49600, Note_on_c, 11, 61, 75
17, 49600, Note_on_c, 11, 69, 75
17, 49664, Note_on_c, 11, 65, 88
17, 49664, Note_on_c, 11, 78, 88
17, 49665, Note_off_c, 11, 61, 0
17, 49665, Note_off_c, 11, 69, 0
17, 49694, Note_off_c, 11, 65, 0
17, 49694, Note_off_c, 11, 78, 0
17, 49728, Note_on_c, 11, 61, 80
17, 49728, Note_on_c, 11, 69, 80
17, 49792, Note_on_c, 11, 65, 100
17, 49792, Note_on_c, 11, 78, 100
17, 49793, Note_off_c, 11, 61, 0
17, 49793, Note_off_c, 11, 69, 0
17, 49822, Note_off_c, 11, 65, 0
17, 49822, Note_off_c, 11, 78, 0
17, 49856, Note_on_c, 11, 61, 71
17, 49856, Note_on_c, 11, 69, 71
17, 49920, Note_on_c, 11, 65, 84
17, 49920, Note_on_c, 11, 78, 84
17, 49921, Note_off_c, 11, 61, 0
17, 49921, Note_off_c, 11, 69, 0
17, 49950, Note_off_c, 11, 65, 0
17, 49950, Note_off_c, 11, 78, 0
17, 49984, Note_on_c, 11, 61, 77
17, 49984, Note_on_c, 11, 69, 77
17, 50048, Note_on_c, 11, 65, 92
17, 50048, Note_on_c, 11, 78, 92
17, 50049, Note_off_c, 11, 61, 0
17, 50049, Note_off_c, 11, 69, 0
17, 50078, Note_off_c, 11, 65, 0
17, 50078, Note_off_c, 11, 78, 0
17, 50112, Note_on_c, 11, 61, 78
17, 50112, Note_on_c, 11, 69, 78
17, 50176, Note_on_c, 11, 65, 93
17, 50176, Note_on_c, 11, 78, 93
17, 50177, Note_off_c, 11, 61, 0
17, 50177, Note_off_c, 11, 69, 0
17, 50206, Note_off_c, 11, 65, 0
17, 50206, Note_off_c, 11, 78, 0
17, 50240, Note_on_c, 11, 65, 74
17, 50240, Note_on_c, 11, 70, 74
17, 50304, Note_on_c, 11, 69, 87
17, 50304, Note_on_c, 11, 78, 87
17, 50305, Note_off_c, 11, 65, 0
17, 50305, Note_off_c, 11, 70, 0
17, 50334, Note_off_c, 11, 69, 0
17, 50334, Note_off_c, 11, 78, 0
17, 50368, Note_on_c, 11, 65, 76
17, 50368, Note_on_c, 11, 70, 76
17, 50432, Note_on_c, 11, 69, 89
17, 50432, Note_on_c, 11, 78, 89
17, 50433, Note_off_c, 11, 65, 0
17, 50433, Note_off_c, 11, 70, 0
17, 50462, Note_off_c, 11, 69, 0
17, 50462, Note_off_c, 11, 78, 0
17, 50496, Note_on_c, 11, 65, 70
17, 50496, Note_on_c, 11, 70, 70
17, 50560, Note_off_c, 11, 70, 0
17, 50560, Note_on_c, 11, 70, 80
17, 50560, Note_on_c, 11, 77, 80
17, 50561, Note_off_c, 11, 65, 0
17, 50590, Note_off_c, 11, 70, 0
17, 50590, Note_off_c, 11, 77, 0
17, 50624, Note_on_c, 11, 57, 78
17, 50624, Note_on_c, 11, 74, 78
17, 50688, Note_on_c, 11, 65, 82
17, 50688, Note_on_c, 11, 77, 82
17, 50689, Note_off_c, 11, 57, 0
17, 50689, Note_off_c, 11, 74, 0
17, 50718, Note_off_c, 11, 65, 0
17, 50718, Note_off_c, 11, 77, 0
17, 50752, Note_on_c, 11, 57, 76
17, 50752, Note_on_c, 11, 66, 76
17, 50816, Note_on_c, 11, 61, 95
17, 50816, Note_on_c, 11, 77, 95
17, 50817, Note_off_c, 11, 57, 0
17, 50817, Note_off_c, 11, 66, 0
17, 50846, Note_off_c, 11, 61, 0
17, 50846, Note_off_c, 11, 77, 0
17, 50880, Note_on_c, 11, 57, 78
17, 50880, Note_on_c, 11, 66, 78
17, 50944, Note_on_c, 11, 61, 97
17, 50944, Note_on_c, 11, 77, 97
17, 50945, Note_off_c, 11, 57, 0
17, 50945, Note_off_c, 11, 66, 0
17, 50974, Note_off_c, 11, 61, 0
17, 50974, Note_off_c, 11, 77, 0
17, 51008, Note_on_c, 11, 57, 79
17, 51008, Note_on_c, 11, 66, 79
17, 51072, Note_on_c, 11, 61, 100
17, 51072, Note_on_c, 11, 77, 100
17, 51073, Note_off_c, 11, 57, 0
17, 51073, Note_off_c, 11, 66, 0
17, 51102, Note_off_c, 11, 61, 0
17, 51102, Note_off_c, 11, 77, 0
17, 51136, Note_on_c, 11, 57, 78
17, 51136, Note_on_c, 11, 66, 78
17, 51200, Note_on_c, 11, 65, 87
17, 51200, Note_on_c, 11, 73, 87
17, 51201, Note_off_c, 11, 57, 0
17, 51201, Note_off_c, 11, 66, 0
17, 51230, Note_off_c, 11, 65, 0
17, 51230, Note_off_c, 11, 73, 0
17, 51264, Note_on_c, 11, 57, 80
17, 51264, Note_on_c, 11, 70, 80
17, 51328, Note_on_c, 11, 65, 83
17, 51328, Note_on_c, 11, 73, 83
17, 51329, Note_off_c, 11, 57, 0
17, 51329, Note_off_c, 11, 70, 0
17, 51358, Note_off_c, 11, 65, 0
17, 51358, Note_off_c, 11, 73, 0
17, 51392, Note_on_c, 11, 57, 75
17, 51392, Note_on_c, 11, 70, 75
17, 51456, Note_on_c, 11, 65, 75
17, 51456, Note_on_c, 11, 73, 75
17, 51457, Note_off_c, 11, 57, 0
17, 51457, Note_off_c, 11, 70, 0
17, 51486, Note_off_c, 11, 65, 0
17, 51486, Note_off_c, 11, 73, 0
17, 51520, Note_on_c, 11, 57, 77
17, 51520, Note_on_c, 11, 70, 77
17, 51584, Note_on_c, 11, 65, 83
17, 51584, Note_on_c, 11, 73, 83
17, 51585, Note_off_c, 11, 57, 0
17, 51585, Note_off_c, 11, 70, 0
17, 51614, Note_off_c, 11, 65, 0
17, 51614, Note_off_c, 11, 73, 0
17, 51648, Note_on_c, 11, 57, 75
17, 51648, Note_on_c, 11, 70, 75
17, 51712, Note_on_c, 11, 65, 78
17, 51712, Note_on_c, 11, 73, 78
17, 51713, Note_off_c, 11, 57, 0
17, 51713, Note_off_c, 11, 70, 0
17, 51742, Note_off_c, 11, 65, 0
17, 51742, Note_off_c, 11, 73, 0
17, 51776, Note_on_c, 11, 57, 78
17, 51776, Note_on_c, 11, 70, 78
17, 51840, Note_off_c, 11, 57, 0
17, 51840, Note_off_c, 11, 70, 0
17, 51840, Note_on_c, 11, 66, 90
17, 51840, Note_on_c, 11, 73, 90
17, 51872, Note_off_c, 11, 66, 0
17, 51872, Note_off_c, 11, 73, 0
17, 51904, Note_on_c, 11, 58, 75
17, 51904, Note_on_c, 11, 61, 75
17, 51968, Note_on_c, 11, 69, 93
17, 51968, Note_on_c, 11, 73, 93
17, 51969, Note_off_c, 11, 58, 0
17, 51969, Note_off_c, 11, 61, 0
17, 51998, Note_off_c, 11, 69, 0
17, 51998, Note_off_c, 11, 73, 0
17, 52032, Note_on_c, 11, 58, 75
17, 52032, Note_on_c, 11, 61, 75
17, 52096, Note_on_c, 11, 69, 93
17, 52096, Note_on_c, 11, 73, 93
17, 52097, Note_off_c, 11, 58, 0
17, 52097, Note_off_c, 11, 61, 0
17, 52126, Note_off_c, 11, 69, 0
17, 52126, Note_off_c, 11, 73, 0
17, 52160, Note_on_c, 11, 58, 77
17, 52160, Note_on_c, 11, 61, 77
17, 52224, Note_on_c, 11, 69, 95
17, 52224, Note_on_c, 11, 73, 95
17, 52225, Note_off_c, 11, 58, 0
17, 52225, Note_off_c, 11, 61, 0
17, 52254, Note_off_c, 11, 69, 0
17, 52254, Note_off_c, 11, 73, 0
17, 52288, Note_on_c, 11, 58, 77
17, 52288, Note_on_c, 11, 61, 77
17, 52352, Note_on_c, 11, 69, 94
17, 52352, Note_on_c, 11, 73, 94
17, 52353, Note_off_c, 11, 58, 0
17, 52353, Note_off_c, 11, 61, 0
17, 52382, Note_off_c, 11, 69, 0
17, 52382, Note_off_c, 11, 73, 0
17, 52416, Note_on_c, 11, 58, 74
17, 52416, Note_on_c, 11, 61, 74
17, 52480, Note_on_c, 11, 69, 94
17, 52480, Note_on_c, 11, 73, 94
17, 52481, Note_off_c, 11, 58, 0
17, 52481, Note_off_c, 11, 61, 0
17, 52510, Note_off_c, 11, 69, 0
17, 52510, Note_off_c, 11, 73, 0
17, 52544, Note_on_c, 11, 58, 75
17, 52544, Note_on_c, 11, 61, 75
17, 52608, Note_on_c, 11, 69, 92
17, 52608, Note_on_c, 11, 73, 92
17, 52609, Note_off_c, 11, 58, 0
17, 52609, Note_off_c, 11, 61, 0
17, 52638, Note_off_c, 11, 69, 0
17, 52638, Note_off_c, 11, 73, 0
17, 52672, Note_on_c, 11, 58, 80
17, 52672, Note_on_c, 11, 61, 80
17, 52736, Note_on_c, 11, 69, 100
17, 52736, Note_on_c, 11, 73, 100
17, 52737, Note_off_c, 11, 58, 0
17, 52737, Note_off_c, 11, 61, 0
17, 52766, Note_off_c, 11, 69, 0
17, 52766, Note_off_c, 11, 73, 0
17, 52800, Note_on_c, 11, 58, 71
17, 52800, Note_on_c, 11, 61, 71
17, 52864, Note_on_c, 11, 62, 81
17, 52864, Note_on_c, 11, 66, 81
17, 52864, Note_on_c, 11, 69, 81
17, 52865, Note_off_c, 11, 58, 0
17, 52865, Note_off_c, 11, 61, 0
17, 52894, Note_off_c, 11, 62, 0
17, 52894, Note_off_c, 11, 66, 0
17, 52894, Note_off_c, 11, 69, 0
17, 52928, Note_on_c, 11, 55, 77
17, 52928, Note_on_c, 11, 58, 77
17, 52992, Note_on_c, 11, 62, 101
17, 52992, Note_on_c, 11, 66, 101
17, 52992, Note_on_c, 11, 69, 101
17, 52993, Note_off_c, 11, 55, 0
17, 52993, Note_off_c, 11, 58, 0
17, 53022, Note_off_c, 11, 62, 0
17, 53022, Note_off_c, 11, 66, 0
17, 53022, Note_off_c, 11, 69, 0
17, 53056, Note_on_c, 11, 55, 74
17, 53056, Note_on_c, 11, 58, 74
17, 53120, Note_on_c, 11, 62, 90
17, 53120, Note_on_c, 11, 66, 90
17, 53120, Note_on_c, 11, 69, 90
17, 53121, Note_off_c, 11, 55, 0
17, 53121, Note_off_c, 11, 58, 0
17, 53150, Note_off_c, 11, 62, 0
17, 53150, Note_off_c, 11, 66, 0
17, 53150, Note_off_c, 11, 69, 0
17, 53184, Note_on_c, 11, 55, 72
17, 53184, Note_on_c, 11, 58, 72
17, 53248, Note_on_c, 11, 62, 92
17, 53248, Note_on_c, 11, 66, 92
17, 53248, Note_on_c, 11, 69, 92
17, 53249, Note_off_c, 11, 55, 0
17, 53249, Note_off_c, 11, 58, 0
17, 53278, Note_off_c, 11, 62, 0
17, 53278, Note_off_c, 11, 66, 0
17, 53278, Note_off_c, 11, 69, 0
17, 53312, Note_on_c, 11, 55, 73
17, 53312, Note_on_c, 11, 58, 73
17, 53376, Note_on_c, 11, 62, 88
17, 53376, Note_on_c, 11, 66, 88
17, 53376, Note_on_c, 11, 69, 88
17, 53377, Note_off_c, 11, 55, 0
17, 53377, Note_off_c, 11, 58, 0
17, 53406, Note_off_c, 11, 62, 0
17, 53406, Note_off_c, 11, 66, 0
17, 53406, Note_off_c, 11, 69, 0
17, 53440, Note_on_c, 11, 55, 74
17, 53440, Note_on_c, 11, 58, 74
17, 53504, Note_on_c, 11, 62, 92
17, 53504, Note_on_c, 11, 66, 92
17, 53504, Note_on_c, 11, 69, 92
17, 53505, Note_off_c, 11, 55, 0
17, 53505, Note_off_c, 11, 58, 0
17, 53534, Note_off_c, 11, 62, 0
17, 53534, Note_off_c, 11, 66, 0
17, 53534, Note_off_c, 11, 69, 0
17, 53568, Note_on_c, 11, 55, 74
17, 53568, Note_on_c, 11, 58, 74
17, 53632, Note_on_c, 11, 62, 92
17, 53632, Note_on_c, 11, 66, 92
17, 53632, Note_on_c, 11, 69, 92
17, 53633, Note_off_c, 11, 55, 0
17, 53633, Note_off_c, 11, 58, 0
17, 53662, Note_off_c, 11, 62, 0
17, 53662, Note_off_c, 11, 66, 0
17, 53662, Note_off_c, 11, 69, 0
17, 53696, Note_on_c, 11, 55, 75
17, 53696, Note_on_c, 11, 58, 75
17, 53760, Note_on_c, 11, 62, 92
17, 53760, Note_on_c, 11, 66, 92
17, 53760, Note_on_c, 11, 69, 92
17, 53761, Note_off_c, 11, 55, 0
17, 53761, Note_off_c, 11, 58, 0
17, 53790, Note_off_c, 11, 62, 0
17, 53790, Note_off_c, 11, 66, 0
17, 53790, Note_off_c, 11, 69, 0
17, 53824, Note_on_c, 11, 55, 79
17, 53824, Note_on_c, 11, 58, 79
17, 53888, Note_on_c, 11, 62, 102
17, 53888, Note_on_c, 11, 66, 102
17, 53888, Note_on_c, 11, 69, 102
17, 53889, Note_off_c, 11, 55, 0
17, 53889, Note_off_c, 11, 58, 0
17, 53918, Note_off_c, 11, 62, 0
17, 53918, Note_off_c, 11, 66, 0
17, 53918, Note_off_c, 11, 69, 0
17, 53952, Note_on_c, 11, 55, 74
17, 53952, Note_on_c, 11, 58, 74
17, 54016, Note_off_c, 11, 55, 0
17, 54016, Note_off_c, 11, 58, 0
17, 54016, Control_c, 11, 64, 127
17, 54016, Note_on_c, 11, 48, 76
17, 54016, Note_on_c, 11, 58, 76
17, 54016, Note_on_c, 11, 62, 76
17, 54016, Note_on_c, 11, 66, 76
17, 54016, Note_on_c, 11, 69, 76
17, 54144, Note_off_c, 11, 48, 0
17, 54144, Note_off_c, 11, 58, 0
17, 54144, Note_off_c, 11, 62, 0
17, 54144, Note_off_c, 11, 66, 0
17, 54144, Note_off_c, 11, 69, 0
17, 54144, Note_on_c, 11, 48, 83
17, 54144, Note_on_c, 11, 58, 83
17, 54144, Note_on_c, 11, 62, 83
17, 54144, Note_on_c, 11, 66, 83
17, 54144, Note_on_c, 11, 69, 83
17, 54272, Note_off_c, 11, 48, 0
17, 54272, Note_off_c, 11, 58, 0
17, 54272, Note_off_c, 11, 62, 0
17, 54272, Note_off_c, 11, 66, 0
17, 54272, Note_off_c, 11, 69, 0
17, 54272, Note_on_c, 11, 48, 87
17, 54272, Note_on_c, 11, 58, 87
17, 54272, Note_on_c, 11, 62, 87
17, 54272, Note_on_c, 11, 66, 87
17, 54272, Note_on_c, 11, 69, 87
17, 54400, Note_off_c, 11, 48, 0
17, 54400, Note_off_c, 11, 58, 0
17, 54400, Note_off_c, 11, 62, 0
17, 54400, Note_off_c, 11, 66, 0
17, 54400, Note_off_c, 11, 69, 0
17, 54400, Note_on_c, 11, 48, 81
17, 54400, Note_on_c, 11, 58, 81
17, 54400, Note_on_c, 11, 62, 81
17, 54400, Note_on_c, 11, 66, 81
17, 54400, Note_on_c, 11, 69, 81
17, 54528, Note_off_c, 11, 48, 0
17, 54528, Note_off_c, 11, 58, 0
17, 54528, Note_off_c, 11, 62, 0
17, 54528, Note_off_c, 11, 66, 0
17, 54528, Note_off_c, 11, 69, 0
17, 54528, Note_on_c, 11, 48, 80
17, 54528, Note_on_c, 11, 58, 80
17, 54528, Note_on_c, 11, 62, 80
17, 54528, Note_on_c, 11, 66, 80
17, 54528, Note_on_c, 11, 69, 80
17, 54656, Note_off_c, 11, 48, 0
17, 54656, Note_off_c, 11, 58, 0
17, 54656, Note_off_c, 11, 62, 0
17, 54656, Note_off_c, 11, 66, 0
17, 54656, Note_off_c, 11, 69, 0
17, 54656, Note_on_c, 11, 48, 78
17, 54656, Note_on_c, 11, 55, 78
17, 54656, Note_on_c, 11, 58, 78
17, 54656, Note_on_c, 11, 62, 78
17, 54656, Note_on_c, 11, 66, 78
17, 54784, Note_off_c, 11, 48, 0
17, 54784, Note_off_c, 11, 55, 0
17, 54784, Note_off_c, 11, 58, 0
17, 54784, Note_off_c, 11, 62, 0
17, 54784, Note_off_c, 11, 66, 0
17, 54784, Note_on_c, 11, 48, 80
17, 54784, Note_on_c, 11, 55, 80
17, 54784, Note_on_c, 11, 58, 80
17, 54784, Note_on_c, 11, 62, 80
17, 54784, Note_on_c, 11, 66, 80
17, 54912, Note_off_c, 11, 48, 0
17, 54912, Note_off_c, 11, 55, 0
17, 54912, Note_off_c, 11, 58, 0
17, 54912, Note_off_c, 11, 62, 0
17, 54912, Note_off_c, 11, 66, 0
17, 54912, Note_on_c, 11, 48, 87
17, 54912, Note_on_c, 11, 55, 87
17, 54912, Note_on_c, 11, 58, 87
17, 54912, Note_on_c, 11, 62, 87
17, 54912, Note_on_c, 11, 66, 87
17, 55040, Note_off_c, 11, 48, 0
17, 55040, Note_off_c, 11, 55, 0
17, 55040, Note_off_c, 11, 58, 0
17, 55040, Note_off_c, 11, 62, 0
17, 55040, Note_off_c, 11, 66, 0
17, 55040, Note_on_c, 11, 48, 83
17, 55040, Note_on_c, 11, 55, 83
17, 55040, Note_on_c, 11, 58, 83
17, 55040, Note_on_c, 11, 62, 83
17, 55040, Note_on_c, 11, 66, 83
17, 55168, Note_off_c, 11, 48, 0
17, 55168, Note_off_c, 11, 55, 0
17, 55168, Note_off_c, 11, 58, 0
17, 55168, Note_off_c, 11, 62, 0
17, 55168, Note_off_c, 11, 66, 0
17, 55168, Note_on_c, 11, 48, 84
17, 55168, Note_on_c, 11, 55, 84
17, 55168, Note_on_c, 11, 58, 84
17, 55168, Note_on_c, 11, 62, 84
17, 55168, Note_on_c, 11, 66, 84
17, 55296, Note_off_c, 11, 48, 0
17, 55296, Note_off_c, 11, 55, 0
17, 55296, Note_off_c, 11, 58, 0
17, 55296, Note_off_c, 11, 62, 0
17, 55296, Note_off_c, 11, 66, 0
17, 55296, Note_on_c, 11, 48, 83
17, 55296, Note_on_c, 11, 55, 83
17, 55296, Note_on_c, 11, 58, 83
17, 55296, Note_on_c, 11, 62, 83
17, 55296, Note_on_c, 11, 66, 83
17, 55424, Note_off_c, 11, 48, 0
17, 55424, Note_off_c, 11, 55, 0
17, 55424, Note_off_c, 11, 58, 0
17, 55424, Note_off_c, 11, 62, 0
17, 55424, Note_off_c, 11, 66, 0
17, 55424, Control_c, 11, 64, 0
17, 55424, Note_on_c, 11, 48, 82
17, 55424, Note_on_c, 11, 55, 82
17, 55424, Note_on_c, 11, 58, 82
17, 55424, Note_on_c, 11, 62, 82
17, 55424, Note_on_c, 11, 66, 82
17, 55552, Note_off_c, 11, 48, 0
17, 55552, Note_off_c, 11, 55, 0
17, 55552, Note_off_c, 11, 58, 0
17, 55552, Note_off_c, 11, 62, 0
17, 55552, Note_off_c, 11, 66, 0
17, 55552, Control_c, 11, 64, 127
17, 55552, Note_on_c, 11, 53, 78
17, 55552, Note_on_c, 11, 58, 78
17, 55552, Note_on_c, 11, 61, 78
17, 55552, Note_on_c, 11, 65, 78
17, 55680, Note_off_c, 11, 53, 0
17, 55680, Note_off_c, 11, 58, 0
17, 55680, Note_off_c, 11, 61, 0
17, 55680, Note_off_c, 11, 65, 0
17, 55680, Note_on_c, 11, 53, 85
17, 55680, Note_on_c, 11, 58, 85
17, 55680, Note_on_c, 11, 61, 85
17, 55680, Note_on_c, 11, 65, 85
17, 55808, Note_off_c, 11, 53, 0
17, 55808, Note_off_c, 11, 58, 0
17, 55808, Note_off_c, 11, 61, 0
17, 55808, Note_off_c, 11, 65, 0
17, 55808, Note_on_c, 11, 53, 86
17, 55808, Note_on_c, 11, 58, 86
17, 55808, Note_on_c, 11, 61, 86
17, 55808, Note_on_c, 11, 65, 86
17, 55936, Note_off_c, 11, 53, 0
17, 55936, Note_off_c, 11, 58, 0
17, 55936, Note_off_c, 11, 61, 0
17, 55936, Note_off_c, 11, 65, 0
17, 55936, Note_on_c, 11, 75, 90
17, 55936, Note_on_c, 11, 87, 90
17, 55936, Note_on_c, 11, 53, 85
17, 55936, Note_on_c, 11, 58, 85
17, 55936, Note_on_c, 11, 61, 85
17, 55936, Note_on_c, 11, 65, 85
17, 56064, Note_off_c, 11, 53, 0
17, 56064, Note_off_c, 11, 58, 0
17, 56064, Note_off_c, 11, 61, 0
17, 56064, Note_off_c, 11, 65, 0
17, 56064, Note_on_c, 11, 53, 87
17, 56064, Note_on_c, 11, 58, 87
17, 56064, Note_on_c, 11, 61, 87
17, 56064, Note_on_c, 11, 65, 87
17, 56192, Note_off_c, 11, 53, 0
17, 56192, Note_off_c, 11, 58, 0
17, 56192, Note_off_c, 11, 61, 0
17, 56192, Note_off_c, 11, 65, 0
17, 56192, Note_on_c, 11, 53, 83
17, 56192, Note_on_c, 11, 58, 83
17, 56192, Note_on_c, 11, 61, 83
17, 56192, Note_on_c, 11, 65, 83
17, 56320, Note_off_c, 11, 75, 0
17, 56320, Note_off_c, 11, 87, 0
17, 56320, Note_off_c, 11, 53, 0
17, 56320, Note_off_c, 11, 58, 0
17, 56320, Note_off_c, 11, 61, 0
17, 56320, Note_off_c, 11, 65, 0
17, 56320, Note_on_c, 11, 53, 84
17, 56320, Note_on_c, 11, 58, 84
17, 56320, Note_on_c, 11, 61, 84
17, 56320, Note_on_c, 11, 65, 84
17, 56448, Note_off_c, 11, 53, 0
17, 56448, Note_off_c, 11, 58, 0
17, 56448, Note_off_c, 11, 61, 0
17, 56448, Note_off_c, 11, 65, 0
17, 56448, Note_on_c, 11, 53, 88
17, 56448, Note_on_c, 11, 58, 88
17, 56448, Note_on_c, 11, 61, 88
17, 56448, Note_on_c, 11, 65, 88
17, 56576, Note_off_c, 11, 53, 0
17, 56576, Note_off_c, 11, 58, 0
17, 56576, Note_off_c, 11, 61, 0
17, 56576, Note_off_c, 11, 65, 0
17, 56576, Note_on_c, 11, 53, 83
17, 56576, Note_on_c, 11, 58, 83
17, 56576, Note_on_c, 11, 61, 83
17, 56576, Note_on_c, 11, 65, 83
17, 56704, Note_off_c, 11, 53, 0
17, 56704, Note_off_c, 11, 58, 0
17, 56704, Note_off_c, 11, 61, 0
17, 56704, Note_off_c, 11, 65, 0
17, 56704, Note_on_c, 11, 53, 89
17, 56704, Note_on_c, 11, 58, 89
17, 56704, Note_on_c, 11, 61, 89
17, 56704, Note_on_c, 11, 65, 89
17, 56832, Note_off_c, 11, 53, 0
17, 56832, Note_off_c, 11, 58, 0
17, 56832, Note_off_c, 11, 61, 0
17, 56832, Note_off_c, 11, 65, 0
17, 56832, Note_on_c, 11, 75, 90
17, 56832, Note_on_c, 11, 87, 90
17, 56832, Note_on_c, 11, 53, 84
17, 56832, Note_on_c, 11, 58, 84
17, 56832, Note_on_c, 11, 61, 84
17, 56832, Note_on_c, 11, 65, 84
17, 56960, Note_off_c, 11, 53, 0
17, 56960, Note_off_c, 11, 58, 0
17, 56960, Note_off_c, 11, 61, 0
17, 56960, Note_off_c, 11, 65, 0
17, 56960, Note_on_c, 11, 53, 80
17, 56960, Note_on_c, 11, 58, 80
17, 56960, Note_on_c, 11, 61, 80
17, 56960, Note_on_c, 11, 65, 80
17, 57045, Control_c, 11, 64, 0
17, 57088, Note_off_c, 11, 53, 0
17, 57088, Note_off_c, 11, 58, 0
17, 57088, Note_off_c, 11, 61, 0
17, 57088, Note_off_c, 11, 65, 0
17, 57088, Control_c, 11, 64, 127
17, 57088, Note_on_c, 11, 53, 85
17, 57088, Note_on_c, 11, 57, 85
17, 57088, Note_on_c, 11, 61, 85
17, 57088, Note_on_c, 11, 66, 85
17, 57216, Note_off_c, 11, 53, 0
17, 57216, Note_off_c, 11, 57, 0
17, 57216, Note_off_c, 11, 61, 0
17, 57216, Note_off_c, 11, 66, 0
17, 57216, Note_on_c, 11, 53, 86
17, 57216, Note_on_c, 11, 57, 86
17, 57216, Note_on_c, 11, 61, 86
17, 57216, Note_on_c, 11, 66, 86
17, 57344, Note_off_c, 11, 75, 0
17, 57344, Note_off_c, 11, 87, 0
17, 57344, Note_off_c, 11, 53, 0
17, 57344, Note_off_c, 11, 57, 0
17, 57344, Note_off_c, 11, 61, 0
17, 57344, Note_off_c, 11, 66, 0
17, 57344, Note_on_c, 11, 53, 85
17, 57344, Note_on_c, 11, 57, 85
17, 57344, Note_on_c, 11, 61, 85
17, 57344, Note_on_c, 11, 66, 85
17, 57472, Note_off_c, 11, 53, 0
17, 57472, Note_off_c, 11, 57, 0
17, 57472, Note_off_c, 11, 61, 0
17, 57472, Note_off_c, 11, 66, 0
17, 57472, Note_on_c, 11, 53, 82
17, 57472, Note_on_c, 11, 57, 82
17, 57472, Note_on_c, 11, 61, 82
17, 57472, Note_on_c, 11, 66, 82
17, 57600, Note_off_c, 11, 53, 0
17, 57600, Note_off_c, 11, 57, 0
17, 57600, Note_off_c, 11, 61, 0
17, 57600, Note_off_c, 11, 66, 0
17, 57600, Control_c, 11, 64, 0
17, 57600, Note_on_c, 11, 53, 81
17, 57600, Note_on_c, 11, 57, 81
17, 57600, Note_on_c, 11, 61, 81
17, 57600, Note_on_c, 11, 66, 81
17, 57664, Note_on_c, 11, 75, 88
17, 57664, Note_on_c, 11, 87, 88
17, 57728, Note_off_c, 11, 53, 0
17, 57728, Note_off_c, 11, 57, 0
17, 57728, Note_off_c, 11, 61, 0
17, 57728, Note_off_c, 11, 66, 0
17, 57728, Note_on_c, 11, 53, 79
17, 57728, Note_on_c, 11, 58, 79
17, 57728, Note_on_c, 11, 61, 79
17, 57728, Note_on_c, 11, 65, 79
17, 57856, Note_off_c, 11, 75, 0
17, 57856, Note_off_c, 11, 87, 0
17, 57856, Note_off_c, 11, 53, 0
17, 57856, Note_off_c, 11, 58, 0
17, 57856, Note_off_c, 11, 61, 0
17, 57856, Note_off_c, 11, 65, 0
17, 57856, Note_on_c, 11, 76, 107
17, 57856, Note_on_c, 11, 88, 107
17, 57856, Note_on_c, 11, 53, 86
17, 57856, Note_on_c, 11, 58, 86
17, 57856, Note_on_c, 11, 61, 86
17, 57856, Note_on_c, 11, 65, 86
17, 57958, Note_off_c, 11, 53, 0
17, 57958, Note_off_c, 11, 58, 0
17, 57958, Note_off_c, 11, 61, 0
17, 57958, Note_off_c, 11, 65, 0
17, 57984, Note_off_c, 11, 76, 0
17, 57984, Note_off_c, 11, 88, 0
17, 57984, Note_on_c, 11, 73, 94
17, 57984, Note_on_c, 11, 85, 94
17, 57984, Note_on_c, 11, 53, 86
17, 57984, Note_on_c, 11, 58, 86
17, 57984, Note_on_c, 11, 61, 86
17, 57984, Note_on_c, 11, 65, 86
17, 58086, Note_off_c, 11, 53, 0
17, 58086, Note_off_c, 11, 58, 0
17, 58086, Note_off_c, 11, 61, 0
17, 58086, Note_off_c, 11, 65, 0
17, 58112, Note_on_c, 11, 53, 86
17, 58112, Note_on_c, 11, 58, 86
17, 58112, Note_on_c, 11, 61, 86
17, 58112, Note_on_c, 11, 65, 86
17, 58197, Note_off_c, 11, 73, 0
17, 58197, Note_off_c, 11, 85, 0
17, 58197, Note_on_c, 11, 72, 93
17, 58197, Note_on_c, 11, 84, 93
17, 58214, Note_off_c, 11, 53, 0
17, 58214, Note_off_c, 11, 58, 0
17, 58214, Note_off_c, 11, 61, 0
17, 58214, Note_off_c, 11, 65, 0
17, 58240, Note_on_c, 11, 53, 86
17, 58240, Note_on_c, 11, 58, 86
17, 58240, Note_on_c, 11, 61, 86
17, 58240, Note_on_c, 11, 65, 86
17, 58342, Note_off_c, 11, 53, 0
17, 58342, Note_off_c, 11, 58, 0
17, 58342, Note_off_c, 11, 61, 0
17, 58342, Note_off_c, 11, 65, 0
17, 58368, Note_on_c, 11, 53, 82
17, 58368, Note_on_c, 11, 58, 82
17, 58368, Note_on_c, 11, 62, 82
17, 58368, Note_on_c, 11, 65, 82
17, 58410, Note_off_c, 11, 72, 0
17, 58410, Note_off_c, 11, 84, 0
17, 58410, Note_on_c, 11, 70, 90
17, 58410, Note_on_c, 11, 82, 90
17, 58470, Note_off_c, 11, 53, 0
17, 58470, Note_off_c, 11, 58, 0
17, 58470, Note_off_c, 11, 62, 0
17, 58470, Note_off_c, 11, 65, 0
17, 58496, Note_on_c, 11, 53, 82
17, 58496, Note_on_c, 11, 58, 82
17, 58496, Note_on_c, 11, 62, 82
17, 58496, Note_on_c, 11, 65, 82
17, 58598, Note_off_c, 11, 53, 0
17, 58598, Note_off_c, 11, 58, 0
17, 58598, Note_off_c, 11, 62, 0
17, 58598, Note_off_c, 11, 65, 0
17, 58624, Note_on_c, 11, 53, 87
17, 58624, Note_on_c, 11, 57, 87
17, 58624, Note_on_c, 11, 62, 87
17, 58624, Note_on_c, 11, 66, 87
17, 58688, Note_off_c, 11, 70, 0
17, 58688, Note_off_c, 11, 82, 0
17, 58688, Note_on_c, 11, 69, 94
17, 58688, Note_on_c, 11, 81, 94
17, 58726, Note_off_c, 11, 53, 0
17, 58726, Note_off_c, 11, 57, 0
17, 58726, Note_off_c, 11, 62, 0
17, 58726, Note_off_c, 11, 66, 0
17, 58752, Note_on_c, 11, 53, 87
17, 58752, Note_on_c, 11, 57, 87
17, 58752, Note_on_c, 11, 62, 87
17, 58752, Note_on_c, 11, 66, 87
17, 58816, Note_off_c, 11, 69, 0
17, 58816, Note_off_c, 11, 81, 0
17, 58816, Note_on_c, 11, 75, 112
17, 58816, Note_on_c, 11, 87, 112
17, 58854, Note_off_c, 11, 53, 0
17, 58854, Note_off_c, 11, 57, 0
17, 58854, Note_off_c, 11, 62, 0
17, 58854, Note_off_c, 11, 66, 0
17, 58880, Note_on_c, 11, 53, 87
17, 58880, Note_on_c, 11, 57, 87
17, 58880, Note_on_c, 11, 62, 87
17, 58880, Note_on_c, 11, 66, 87
17, 58982, Note_off_c, 11, 53, 0
17, 58982, Note_off_c, 11, 57, 0
17, 58982, Note_off_c, 11, 62, 0
17, 58982, Note_off_c, 11, 66, 0
17, 59008, Note_on_c, 11, 53, 88
17, 59008, Note_on_c, 11, 57, 88
17, 59008, Note_on_c, 11, 62, 88
17, 59008, Note_on_c, 11, 66, 88
17, 59110, Note_off_c, 11, 53, 0
17, 59110, Note_off_c, 11, 57, 0
17, 59110, Note_off_c, 11, 62, 0
17, 59110, Note_off_c, 11, 66, 0
17, 59136, Note_off_c, 11, 75, 0
17, 59136, Note_off_c, 11, 87, 0
17, 59136, Note_on_c, 11, 75, 99
17, 59136, Note_on_c, 11, 87, 99
17, 59136, Note_on_c, 11, 53, 88
17, 59136, Note_on_c, 11, 57, 88
17, 59136, Note_on_c, 11, 62, 88
17, 59136, Note_on_c, 11, 66, 88
17, 59238, Note_off_c, 11, 53, 0
17, 59238, Note_off_c, 11, 57, 0
17, 59238, Note_off_c, 11, 62, 0
17, 59238, Note_off_c, 11, 66, 0
17, 59264, Note_on_c, 11, 53, 75
17, 59264, Note_on_c, 11, 58, 75
17, 59264, Note_on_c, 11, 61, 75
17, 59264, Note_on_c, 11, 65, 75
17, 59392, Note_off_c, 11, 75, 0
17, 59392, Note_off_c, 11, 87, 0
17, 59392, Note_off_c, 11, 53, 0
17, 59392, Note_off_c, 11, 58, 0
17, 59392, Note_off_c, 11, 61, 0
17, 59392, Note_off_c, 11, 65, 0
17, 59392, Note_on_c, 11, 53, 84
17, 59392, Note_on_c, 11, 58, 84
17, 59392, Note_on_c, 11, 61, 84
17, 59392, Note_on_c, 11, 65, 84
17, 59494, Note_off_c, 11, 53, 0
17, 59494, Note_off_c, 11, 58, 0
17, 59494, Note_off_c, 11, 61, 0
17, 59494, Note_off_c, 11, 65, 0
17, 59520, Note_on_c, 11, 53, 84
17, 59520, Note_on_c, 11, 58, 84
17, 59520, Note_on_c, 11, 61, 84
17, 59520, Note_on_c, 11, 65, 84
17, 59584, Note_on_c, 11, 75, 88
17, 59584, Note_on_c, 11, 87, 88
17, 59622, Note_off_c, 11, 53, 0
17, 59622, Note_off_c, 11, 58, 0
17, 59622, Note_off_c, 11, 61, 0
17, 59622, Note_off_c, 11, 65, 0
17, 59648, Note_on_c, 11, 53, 84
17, 59648, Note_on_c, 11, 58, 84
17, 59648, Note_on_c, 11, 61, 84
17, 59648, Note_on_c, 11, 65, 84
17, 59750, Note_off_c, 11, 53, 0
17, 59750, Note_off_c, 11, 58, 0
17, 59750, Note_off_c, 11, 61, 0
17, 59750, Note_off_c, 11, 65, 0
17, 59776, Note_off_c, 11, 75, 0
17, 59776, Note_off_c, 11, 87, 0
17, 59776, Note_on_c, 11, 79, 111
17, 59776, Note_on_c, 11, 91, 111
17, 59776, Note_on_c, 11, 53, 84
17, 59776, Note_on_c, 11, 58, 84
17, 59776, Note_on_c, 11, 61, 84
17, 59776, Note_on_c, 11, 65, 84
17, 59878, Note_off_c, 11, 53, 0
17, 59878, Note_off_c, 11, 58, 0
17, 59878, Note_off_c, 11, 61, 0
17, 59878, Note_off_c, 11, 65, 0
17, 59904, Note_on_c, 11, 57, 95
17, 59904, Note_on_c, 11, 61, 95
17, 59904, Note_on_c, 11, 65, 95
17, 59904, Note_on_c, 11, 69, 95
17, 59968, Note_off_c, 11, 79, 0
17, 59968, Note_off_c, 11, 91, 0
17, 59968, Note_on_c, 11, 73, 87
17, 59968, Note_on_c, 11, 85, 87
17, 60006, Note_off_c, 11, 57, 0
17, 60006, Note_off_c, 11, 61, 0
17, 60006, Note_off_c, 11, 65, 0
17, 60006, Note_off_c, 11, 69, 0
17, 60032, Note_on_c, 11, 57, 95
17, 60032, Note_on_c, 11, 61, 95
17, 60032, Note_on_c, 11, 65, 95
17, 60032, Note_on_c, 11, 69, 95
17, 60134, Note_off_c, 11, 57, 0
17, 60134, Note_off_c, 11, 61, 0
17, 60134, Note_off_c, 11, 65, 0
17, 60134, Note_off_c, 11, 69, 0
17, 60160, Note_on_c, 11, 57, 95
17, 60160, Note_on_c, 11, 61, 95
17, 60160, Note_on_c, 11, 65, 95
17, 60160, Note_on_c, 11, 69, 95
17, 60192, Note_off_c, 11, 73, 0
17, 60192, Note_off_c, 11, 85, 0
17, 60192, Note_on_c, 11, 72, 100
17, 60192, Note_on_c, 11, 84, 100
17, 60262, Note_off_c, 11, 57, 0
17, 60262, Note_off_c, 11, 61, 0
17, 60262, Note_off_c, 11, 65, 0
17, 60262, Note_off_c, 11, 69, 0
17, 60288, Note_on_c, 11, 57, 95
17, 60288, Note_on_c, 11, 61, 95
17, 60288, Note_on_c, 11, 65, 95
17, 60288, Note_on_c, 11, 69, 95
17, 60390, Note_off_c, 11, 57, 0
17, 60390, Note_off_c, 11, 61, 0
17, 60390, Note_off_c, 11, 65, 0
17, 60390, Note_off_c, 11, 69, 0
17, 60416, Note_off_c, 11, 72, 0
17, 60416, Note_off_c, 11, 84, 0
17, 60416, Note_on_c, 11, 70, 91
17, 60416, Note_on_c, 11, 82, 91
17, 60416, Note_on_c, 11, 57, 87
17, 60416, Note_on_c, 11, 61, 87
17, 60416, Note_on_c, 11, 65, 87
17, 60416, Note_on_c, 11, 69, 87
17, 60518, Note_off_c, 11, 57, 0
17, 60518, Note_off_c, 11, 61, 0
17, 60518, Note_off_c, 11, 65, 0
17, 60518, Note_off_c, 11, 69, 0
17, 60544, Note_off_c, 11, 70, 0
17, 60544, Note_off_c, 11, 82, 0
17, 60544, Note_on_c, 11, 69, 98
17, 60544, Note_on_c, 11, 81, 98
17, 60544, Note_on_c, 11, 57, 87
17, 60544, Note_on_c, 11, 61, 87
17, 60544, Note_on_c, 11, 65, 87
17, 60544, Note_on_c, 11, 69, 87
17, 60608, Note_off_c, 11, 69, 0
17, 60608, Note_off_c, 11, 81, 0
17, 60608, Note_on_c, 11, 70, 106
17, 60608, Note_on_c, 11, 82, 106
17, 60646, Note_off_c, 11, 57, 0
17, 60646, Note_off_c, 11, 61, 0
17, 60646, Note_off_c, 11, 65, 0
17, 60646, Note_off_c, 11, 69, 0
17, 60672, Note_on_c, 11, 57, 87
17, 60672, Note_on_c, 11, 61, 87
17, 60672, Note_on_c, 11, 65, 87
17, 60672, Note_on_c, 11, 69, 87
17, 60704, Note_off_c, 11, 70, 0
17, 60704, Note_off_c, 11, 82, 0
17, 60704, Note_on_c, 11, 72, 107
17, 60704, Note_on_c, 11, 84, 107
17, 60774, Note_off_c, 11, 57, 0
17, 60774, Note_off_c, 11, 61, 0
17, 60774, Note_off_c, 11, 65, 0
17, 60774, Note_off_c, 11, 69, 0
17, 60800, Note_off_c, 11, 72, 0
17, 60800, Note_off_c, 11, 84, 0
17, 60800, Note_on_c, 11, 73, 105
17, 60800, Note_on_c, 11, 85, 105
17, 60800, Note_on_c, 11, 57, 87
17, 60800, Note_on_c, 11, 61, 87
17, 60800, Note_on_c, 11, 65, 87
17, 60800, Note_on_c, 11, 69, 87
17, 60902, Note_off_c, 11, 57, 0
17, 60902, Note_off_c, 11, 61, 0
17, 60902, Note_off_c, 11, 65, 0
17, 60902, Note_off_c, 11, 69, 0
17, 60928, Note_off_c, 11, 73, 0
17, 60928, Note_off_c, 11, 85, 0
17, 60928, Note_on_c, 11, 75, 107
17, 60928, Note_on_c, 11, 87, 107
17, 60928, Note_on_c, 11, 57, 81
17, 60928, Note_on_c, 11, 61, 81
17, 60928, Note_on_c, 11, 65, 81
17, 60928, Note_on_c, 11, 69, 81
17, 60992, Note_off_c, 11, 75, 0
17, 60992, Note_off_c, 11, 87, 0
17, 60992, Note_on_c, 11, 73, 96
17, 60992, Note_on_c, 11, 85, 96
17, 61056, Note_off_c, 11, 73, 0
17, 61056, Note_off_c, 11, 85, 0
17, 61056, Note_off_c, 11, 57, 0
17, 61056, Note_off_c, 11, 61, 0
17, 61056, Note_off_c, 11, 65, 0
17, 61056, Note_off_c, 11, 69, 0
17, 61056, Note_on_c, 11, 75, 106
17, 61056, Note_on_c, 11, 87, 106
17, 61056, Note_on_c, 11, 58, 83
17, 61056, Note_on_c, 11, 61, 83
17, 61056, Note_on_c, 11, 65, 83
17, 61056, Note_on_c, 11, 69, 83
17, 61120, Note_off_c, 11, 75, 0
17, 61120, Note_off_c, 11, 87, 0
17, 61120, Note_on_c, 11, 73, 91
17, 61120, Note_on_c, 11, 85, 91
17, 61158, Note_off_c, 11, 58, 0
17, 61158, Note_off_c, 11, 61, 0
17, 61158, Note_off_c, 11, 65, 0
17, 61158, Note_off_c, 11, 69, 0
17, 61184, Note_on_c, 11, 58, 83
17, 61184, Note_on_c, 11, 61, 83
17, 61184, Note_on_c, 11, 65, 83
17, 61184, Note_on_c, 11, 69, 83
17, 61248, Note_off_c, 11, 73, 0
17, 61248, Note_off_c, 11, 85, 0
17, 61248, Note_on_c, 11, 75, 102
17, 61248, Note_on_c, 11, 87, 102
17, 61286, Note_off_c, 11, 58, 0
17, 61286, Note_off_c, 11, 61, 0
17, 61286, Note_off_c, 11, 65, 0
17, 61286, Note_off_c, 11, 69, 0
17, 61312, Note_on_c, 11, 58, 83
17, 61312, Note_on_c, 11, 61, 83
17, 61312, Note_on_c, 11, 65, 83
17, 61312, Note_on_c, 11, 69, 83
17, 61376, Note_off_c, 11, 75, 0
17, 61376, Note_off_c, 11, 87, 0
17, 61376, Note_on_c, 11, 77, 108
17, 61376, Note_on_c, 11, 89, 108
17, 61414, Note_off_c, 11, 58, 0
17, 61414, Note_off_c, 11, 61, 0
17, 61414, Note_off_c, 11, 65, 0
17, 61414, Note_off_c, 11, 69, 0
17, 61440, Note_on_c, 11, 58, 83
17, 61440, Note_on_c, 11, 61, 83
17, 61440, Note_on_c, 11, 65, 83
17, 61440, Note_on_c, 11, 69, 83
17, 61542, Note_off_c, 11, 58, 0
17, 61542, Note_off_c, 11, 61, 0
17, 61542, Note_off_c, 11, 65, 0
17, 61542, Note_off_c, 11, 69, 0
17, 61568, Note_on_c, 11, 58, 79
17, 61568, Note_on_c, 11, 61, 79
17, 61568, Note_on_c, 11, 65, 79
17, 61568, Note_on_c, 11, 68, 79
17, 61696, Note_off_c, 11, 77, 0
17, 61696, Note_off_c, 11, 89, 0
17, 61696, Note_off_c, 11, 58, 0
17, 61696, Note_off_c, 11, 61, 0
17, 61696, Note_off_c, 11, 65, 0
17, 61696, Note_off_c, 11, 68, 0
17, 61696, Note_on_c, 11, 78, 105
17, 61696, Note_on_c, 11, 90, 105
17, 61696, Note_on_c, 11, 58, 82
17, 61696, Note_on_c, 11, 61, 82
17, 61696, Note_on_c, 11, 65, 82
17, 61696, Note_on_c, 11, 68, 82
17, 61798, Note_off_c, 11, 58, 0
17, 61798, Note_off_c, 11, 61, 0
17, 61798, Note_off_c, 11, 65, 0
17, 61798, Note_off_c, 11, 68, 0
17, 61824, Note_on_c, 11, 58, 82
17, 61824, Note_on_c, 11, 61, 82
17, 61824, Note_on_c, 11, 65, 82
17, 61824, Note_on_c, 11, 68, 82
17, 61866, Note_off_c, 11, 78, 0
17, 61866, Note_off_c, 11, 90, 0
17, 61866, Note_on_c, 11, 80, 109
17, 61866, Note_on_c, 11, 92, 109
17, 61926, Note_off_c, 11, 58, 0
17, 61926, Note_off_c, 11, 61, 0
17, 61926, Note_off_c, 11, 65, 0
17, 61926, Note_off_c, 11, 68, 0
17, 61952, Note_on_c, 11, 58, 82
17, 61952, Note_on_c, 11, 61, 82
17, 61952, Note_on_c, 11, 65, 82
17, 61952, Note_on_c, 11, 68, 82
17, 62054, Note_off_c, 11, 58, 0
17, 62054, Note_off_c, 11, 61, 0
17, 62054, Note_off_c, 11, 65, 0
17, 62054, Note_off_c, 11, 68, 0
17, 62080, Note_on_c, 11, 58, 82
17, 62080, Note_on_c, 11, 61, 82
17, 62080, Note_on_c, 11, 65, 82
17, 62080, Note_on_c, 11, 68, 82
17, 62182, Note_off_c, 11, 58, 0
17, 62182, Note_off_c, 11, 61, 0
17, 62182, Note_off_c, 11, 65, 0
17, 62182, Note_off_c, 11, 68, 0
17, 62208, Note_off_c, 11, 80, 0
17, 62208, Note_off_c, 11, 92, 0
17, 62208, Note_on_c, 11, 82, 104
17, 62208, Note_on_c, 11, 94, 104
17, 62208, Note_on_c, 11, 58, 82
17, 62208, Note_on_c, 11, 61, 82
17, 62208, Note_on_c, 11, 65, 82
17, 62208, Note_on_c, 11, 68, 82
17, 62310, Note_off_c, 11, 58, 0
17, 62310, Note_off_c, 11, 61, 0
17, 62310, Note_off_c, 11, 65, 0
17, 62310, Note_off_c, 11, 68, 0
17, 62336, Note_on_c, 11, 58, 82
17, 62336, Note_on_c, 11, 61, 82
17, 62336, Note_on_c, 11, 65, 82
17, 62336, Note_on_c, 11, 68, 82
17, 62378, Note_off_c, 11, 82, 0
17, 62378, Note_off_c, 11, 94, 0
17, 62378, Note_on_c, 11, 80, 94
17, 62378, Note_on_c, 11, 92, 94
17, 62438, Note_off_c, 11, 58, 0
17, 62438, Note_off_c, 11, 61, 0
17, 62438, Note_off_c, 11, 65, 0
17, 62438, Note_off_c, 11, 68, 0
17, 62464, Note_on_c, 11, 57, 87
17, 62464, Note_on_c, 11, 62, 87
17, 62464, Note_on_c, 11, 66, 87
17, 62464, Note_on_c, 11, 69, 87
17, 62566, Note_off_c, 11, 57, 0
17, 62566, Note_off_c, 11, 62, 0
17, 62566, Note_off_c, 11, 66, 0
17, 62566, Note_off_c, 11, 69, 0
17, 62592, Note_on_c, 11, 57, 87
17, 62592, Note_on_c, 11, 62, 87
17, 62592, Note_on_c, 11, 66, 87
17, 62592, Note_on_c, 11, 69, 87
17, 62694, Note_off_c, 11, 57, 0
17, 62694, Note_off_c, 11, 62, 0
17, 62694, Note_off_c, 11, 66, 0
17, 62694, Note_off_c, 11, 69, 0
17, 62720, Note_off_c, 11, 80, 0
17, 62720, Note_off_c, 11, 92, 0
17, 62720, Note_on_c, 11, 84, 111
17, 62720, Note_on_c, 11, 96, 111
17, 62720, Note_on_c, 11, 57, 87
17, 62720, Note_on_c, 11, 62, 87
17, 62720, Note_on_c, 11, 66, 87
17, 62720, Note_on_c, 11, 69, 87
17, 62822, Note_off_c, 11, 57, 0
17, 62822, Note_off_c, 11, 62, 0
17, 62822, Note_off_c, 11, 66, 0
17, 62822, Note_off_c, 11, 69, 0
17, 62848, Note_on_c, 11, 57, 87
17, 62848, Note_on_c, 11, 62, 87
17, 62848, Note_on_c, 11, 66, 87
17, 62848, Note_on_c, 11, 69, 87
17, 62950, Note_off_c, 11, 57, 0
17, 62950, Note_off_c, 11, 62, 0
17, 62950, Note_off_c, 11, 66, 0
17, 62950, Note_off_c, 11, 69, 0
17, 62976, Note_off_c, 11, 84, 0
17, 62976, Note_off_c, 11, 96, 0
17, 62976, Note_on_c, 11, 85, 108
17, 62976, Note_on_c, 11, 97, 108
17, 62976, Note_on_c, 11, 57, 83
17, 62976, Note_on_c, 11, 62, 83
17, 62976, Note_on_c, 11, 66, 83
17, 62976, Note_on_c, 11, 69, 83
17, 63078, Note_off_c, 11, 57, 0
17, 63078, Note_off_c, 11, 62, 0
17, 63078, Note_off_c, 11, 66, 0
17, 63078, Note_off_c, 11, 69, 0
17, 63104, Note_on_c, 11, 57, 83
17, 63104, Note_on_c, 11, 62, 83
17, 63104, Note_on_c, 11, 66, 83
17, 63104, Note_on_c, 11, 69, 83
17, 63168, Note_off_c, 11, 85, 0
17, 63168, Note_off_c, 11, 97, 0
17, 63168, Note_on_c, 11, 82, 93
17, 63168, Note_on_c, 11, 94, 93
17, 63206, Note_off_c, 11, 57, 0
17, 63206, Note_off_c, 11, 62, 0
17, 63206, Note_off_c, 11, 66, 0
17, 63206, Note_off_c, 11, 69, 0
17, 63232, Note_on_c, 11, 57, 83
17, 63232, Note_on_c, 11, 62, 83
17, 63232, Note_on_c, 11, 66, 83
17, 63232, Note_on_c, 11, 69, 83
17, 63334, Note_off_c, 11, 57, 0
17, 63334, Note_off_c, 11, 62, 0
17, 63334, Note_off_c, 11, 66, 0
17, 63334, Note_off_c, 11, 69, 0
17, 63360, Note_off_c, 11, 82, 0
17, 63360, Note_off_c, 11, 94, 0
17, 63360, Note_on_c, 11, 80, 91
17, 63360, Note_on_c, 11, 92, 91
17, 63360, Note_on_c, 11, 57, 83
17, 63360, Note_on_c, 11, 62, 83
17, 63360, Note_on_c, 11, 66, 83
17, 63360, Note_on_c, 11, 69, 83
17, 63488, Note_off_c, 11, 57, 0
17, 63488, Note_off_c, 11, 62, 0
17, 63488, Note_off_c, 11, 66, 0
17, 63488, Note_off_c, 11, 69, 0
17, 63488, Note_on_c, 11, 57, 81
17, 63488, Note_on_c, 11, 62, 81
17, 63488, Note_on_c, 11, 66, 81
17, 63488, Note_on_c, 11, 69, 81
17, 63552, Note_off_c, 11, 80, 0
17, 63552, Note_off_c, 11, 92, 0
17, 63552, Note_on_c, 11, 78, 93
17, 63552, Note_on_c, 11, 90, 93
17, 63616, Note_off_c, 11, 57, 0
17, 63616, Note_off_c, 11, 62, 0
17, 63616, Note_off_c, 11, 66, 0
17, 63616, Note_off_c, 11, 69, 0
17, 63616, Note_on_c, 11, 57, 88
17, 63616, Note_on_c, 11, 63, 88
17, 63616, Note_on_c, 11, 70, 88
17, 63680, Note_off_c, 11, 78, 0
17, 63680, Note_off_c, 11, 90, 0
17, 63680, Note_on_c, 11, 77, 97
17, 63680, Note_on_c, 11, 89, 97
17, 63718, Note_off_c, 11, 57, 0
17, 63718, Note_off_c, 11, 63, 0
17, 63718, Note_off_c, 11, 70, 0
17, 63744, Note_on_c, 11, 57, 88
17, 63744, Note_on_c, 11, 63, 88
17, 63744, Note_on_c, 11, 70, 88
17, 63846, Note_off_c, 11, 57, 0
17, 63846, Note_off_c, 11, 63, 0
17, 63846, Note_off_c, 11, 70, 0
17, 63872, Note_off_c, 11, 77, 0
17, 63872, Note_off_c, 11, 89, 0
17, 63872, Note_on_c, 11, 75, 96
17, 63872, Note_on_c, 11, 87, 96
17, 63872, Note_on_c, 11, 57, 88
17, 63872, Note_on_c, 11, 63, 88
17, 63872, Note_on_c, 11, 70, 88
17, 63974, Note_off_c, 11, 57, 0
17, 63974, Note_off_c, 11, 63, 0
17, 63974, Note_off_c, 11, 70, 0
17, 64000, Note_off_c, 11, 75, 0
17, 64000, Note_off_c, 11, 87, 0
17, 64000, Note_on_c, 11, 73, 97
17, 64000, Note_on_c, 11, 85, 97
17, 64000, Note_on_c, 11, 57, 88
17, 64000, Note_on_c, 11, 63, 88
17, 64000, Note_on_c, 11, 70, 88
17, 64102, Note_off_c, 11, 57, 0
17, 64102, Note_off_c, 11, 63, 0
17, 64102, Note_off_c, 11, 70, 0
17, 64128, Note_on_c, 11, 57, 94
17, 64128, Note_on_c, 11, 63, 94
17, 64128, Note_on_c, 11, 71, 94
17, 64170, Note_off_c, 11, 73, 0
17, 64170, Note_off_c, 11, 85, 0
17, 64170, Note_on_c, 11, 71, 94
17, 64170, Note_on_c, 11, 83, 94
17, 64230, Note_off_c, 11, 57, 0
17, 64230, Note_off_c, 11, 63, 0
17, 64230, Note_off_c, 11, 71, 0
17, 64256, Note_on_c, 11, 57, 94
17, 64256, Note_on_c, 11, 63, 94
17, 64256, Note_on_c, 11, 71, 94
17, 64358, Note_off_c, 11, 57, 0
17, 64358, Note_off_c, 11, 63, 0
17, 64358, Note_off_c, 11, 71, 0
17, 64384, Note_off_c, 11, 71, 0
17, 64384, Note_off_c, 11, 83, 0
17, 64384, Note_on_c, 11, 70, 96
17, 64384, Note_on_c, 11, 82, 96
17, 64384, Note_on_c, 11, 57, 69
17, 64384, Note_on_c, 11, 63, 69
17, 64384, Note_on_c, 11, 67, 69
17, 64512, Note_off_c, 11, 57, 0
17, 64512, Note_off_c, 11, 63, 0
17, 64512, Note_off_c, 11, 67, 0
17, 64512, Note_on_c, 11, 57, 80
17, 64512, Note_on_c, 11, 63, 80
17, 64512, Note_on_c, 11, 67, 80
17, 64597, Note_off_c, 11, 70, 0
17, 64597, Note_off_c, 11, 82, 0
17, 64597, Note_on_c, 11, 68, 92
17, 64597, Note_on_c, 11, 80, 92
17, 64640, Note_off_c, 11, 57, 0
17, 64640, Note_off_c, 11, 63, 0
17, 64640, Note_off_c, 11, 67, 0
17, 64640, Note_on_c, 11, 57, 87
17, 64640, Note_on_c, 11, 63, 87
17, 64640, Note_on_c, 11, 67, 87
17, 64682, Note_off_c, 11, 68, 0
17, 64682, Note_off_c, 11, 80, 0
17, 64682, Note_on_c, 11, 70, 105
17, 64682, Note_on_c, 11, 82, 105
17, 64768, Note_off_c, 11, 70, 0
17, 64768, Note_off_c, 11, 82, 0
17, 64768, Note_off_c, 11, 57, 0
17, 64768, Note_off_c, 11, 63, 0
17, 64768, Note_off_c, 11, 67, 0
17, 64768, Note_on_c, 11, 66, 90
17, 64768, Note_on_c, 11, 78, 90
17, 64768, Note_on_c, 11, 56, 77
17, 64768, Note_on_c, 11, 63, 77
17, 64768, Note_on_c, 11, 64, 77
17, 64853, Note_off_c, 11, 66, 0
17, 64853, Note_off_c, 11, 78, 0
17, 64853, Note_on_c, 11, 64, 92
17, 64853, Note_on_c, 11, 76, 92
17, 64938, Note_off_c, 11, 64, 0
17, 64938, Note_off_c, 11, 76, 0
17, 64938, Note_on_c, 11, 63, 93
17, 64938, Note_on_c, 11, 75, 93
17, 65024, Note_off_c, 11, 63, 0
17, 65024, Note_off_c, 11, 75, 0
17, 65024, Note_on_c, 11, 61, 89
17, 65024, Note_on_c, 11, 73, 89
17, 65109, Note_off_c, 11, 61, 0
17, 65109, Note_off_c, 11, 73, 0
17, 65109, Note_on_c, 11, 60, 95
17, 65109, Note_on_c, 11, 72, 95
17, 65194, Note_off_c, 11, 60, 0
17, 65194, Note_off_c, 11, 72, 0
17, 65194, Note_on_c, 11, 61, 106
17, 65194, Note_on_c, 11, 73, 106
17, 65280, Note_off_c, 11, 61, 0
17, 65280, Note_off_c, 11, 73, 0
17, 65280, Note_on_c, 11, 63, 107
17, 65280, Note_on_c, 11, 75, 107
17, 65365, Note_off_c, 11, 63, 0
17, 65365, Note_off_c, 11, 75, 0
17, 65365, Note_on_c, 11, 64, 105
17, 65365, Note_on_c, 11, 76, 105
17, 65450, Note_off_c, 11, 64, 0
17, 65450, Note_off_c, 11, 76, 0
17, 65450, Note_on_c, 11, 66, 106
17, 65450, Note_on_c, 11, 78, 106
17, 65536, Note_off_c, 11, 66, 0
17, 65536, Note_off_c, 11, 78, 0
17, 65536, Note_off_c, 11, 56, 0
17, 65536, Note_off_c, 11, 63, 0
17, 65536, Note_off_c, 11, 64, 0
17, 65536, Note_on_c, 11, 68, 110
17, 65536, Note_on_c, 11, 80, 110
17, 65621, Note_off_c, 11, 68, 0
17, 65621, Note_off_c, 11, 80, 0
17, 65621, Note_on_c, 11, 70, 109
17, 65621, Note_on_c, 11, 82, 109
17, 65706, Note_off_c, 11, 70, 0
17, 65706, Note_off_c, 11, 82, 0
17, 65706, Note_on_c, 11, 68, 95
17, 65706, Note_on_c, 11, 80, 95
17, 65792, Note_off_c, 11, 68, 0
17, 65792, Note_off_c, 11, 80, 0
17, 65792, Note_on_c, 11, 71, 107
17, 65792, Note_on_c, 11, 83, 107
17, 65856, Note_off_c, 11, 71, 0
17, 65856, Note_off_c, 11, 83, 0
17, 65920, Note_on_c, 11, 70, 86
17, 65920, Note_on_c, 11, 82, 86
17, 66048, Note_off_c, 11, 70, 0
17, 66048, Note_off_c, 11, 82, 0
17, 66048, Note_on_c, 11, 71, 105
17, 66048, Note_on_c, 11, 83, 105
17, 66150, Note_off_c, 11, 71, 0
17, 66150, Note_off_c, 11, 83, 0
17, 66150, Note_on_c, 11, 73, 109
17, 66150, Note_on_c, 11, 85, 109
17, 66252, Note_off_c, 11, 73, 0
17, 66252, Note_off_c, 11, 85, 0
17, 66252, Note_on_c, 11, 75, 111
17, 66252, Note_on_c, 11, 87, 111
17, 66355, Note_off_c, 11, 75, 0
17, 66355, Note_off_c, 11, 87, 0
17, 66355, Note_on_c, 11, 73, 97
17, 66355, Note_on_c, 11, 85, 97
17, 66457, Note_off_c, 11, 73, 0
17, 66457, Note_off_c, 11, 85, 0
17, 66457, Note_on_c, 11, 78, 114
17, 66457, Note_on_c, 11, 90, 114
17, 66560, Note_off_c, 11, 78, 0
17, 66560, Note_off_c, 11, 90, 0
17, 66560, Note_on_c, 11, 80, 111
17, 66560, Note_on_c, 11, 92, 111
17, 66688, Note_off_c, 11, 80, 0
17, 66688, Note_off_c, 11, 92, 0
17, 66688, Note_on_c, 11, 82, 108
17, 66688, Note_on_c, 11, 94, 108
17, 66901, Note_off_c, 11, 82, 0
17, 66901, Note_off_c, 11, 94, 0
17, 66901, Note_on_c, 11, 80, 96
17, 66901, Note_on_c, 11, 92, 96
17, 67029, Note_off_c, 11, 80, 0
17, 67029, Note_off_c, 11, 92, 0
17, 67029, Note_on_c, 11, 83, 106
17, 67029, Note_on_c, 11, 95, 106
17, 67328, Note_off_c, 11, 83, 0
17, 67328, Note_off_c, 11, 95, 0
17, 67328, Note_on_c, 11, 84, 108
17, 67328, Note_on_c, 11, 96, 108
17, 67520, Note_off_c, 11, 84, 0
17, 67520, Note_off_c, 11, 96, 0
17, 67520, Note_on_c, 11, 86, 109
17, 67520, Note_on_c, 11, 98, 109
17, 67712, Note_off_c, 11, 86, 0
17, 67712, Note_off_c, 11, 98, 0
17, 67712, Note_on_c, 11, 84, 91
17, 67712, Note_on_c, 11, 96, 91
17, 67904, Note_off_c, 11, 84, 0
17, 67904, Note_off_c, 11, 96, 0
17, 67904, Note_on_c, 11, 87, 108
17, 67904, Note_on_c, 11, 99, 108
17, 68032, Note_off_c, 11, 87, 0
17, 68032, Note_off_c, 11, 99, 0
17, 68032, Note_on_c, 11, 84, 93
17, 68032, Note_on_c, 11, 96, 93
17, 68160, Note_off_c, 11, 84, 0
17, 68160, Note_off_c, 11, 96, 0
17, 68160, Note_on_c, 11, 82, 96
17, 68160, Note_on_c, 11, 94, 96
17, 68352, Note_off_c, 11, 82, 0
17, 68352, Note_off_c, 11, 94, 0
17, 68352, Note_on_c, 11, 80, 90
17, 68352, Note_on_c, 11, 92, 90
17, 68544, Note_off_c, 11, 80, 0
17, 68544, Note_off_c, 11, 92, 0
17, 68544, Note_on_c, 11, 79, 96
17, 68544, Note_on_c, 11, 91, 96
17, 68672, Note_off_c, 11, 79, 0
17, 68672, Note_off_c, 11, 91, 0
17, 68672, Note_on_c, 11, 77, 95
17, 68672, Note_on_c, 11, 89, 95
17, 68928, Note_off_c, 11, 77, 0
17, 68928, Note_off_c, 11, 89, 0
17, 68928, Note_on_c, 11, 76, 99
17, 68928, Note_on_c, 11, 88, 99
17, 69056, Note_off_c, 11, 76, 0
17, 69056, Note_off_c, 11, 88, 0
17, 69056, Note_on_c, 11, 78, 108
17, 69056, Note_on_c, 11, 90, 108
17, 69184, Note_off_c, 11, 78, 0
17, 69184, Note_off_c, 11, 90, 0
17, 69184, Note_on_c, 11, 79, 103
17, 69184, Note_on_c, 11, 91, 103
17, 69312, Note_off_c, 11, 79, 0
17, 69312, Note_off_c, 11, 91, 0
17, 69312, Note_on_c, 11, 81, 112
17, 69312, Note_on_c, 11, 93, 112
17, 69440, Note_off_c, 11, 81, 0
17, 69440, Note_off_c, 11, 93, 0
17, 69440, Note_on_c, 11, 82, 101
17, 69440, Note_on_c, 11, 94, 101
17, 69568, Note_off_c, 11, 82, 0
17, 69568, Note_off_c, 11, 94, 0
17, 69568, Note_on_c, 11, 81, 98
17, 69568, Note_on_c, 11, 93, 98
17, 69696, Note_off_c, 11, 81, 0
17, 69696, Note_off_c, 11, 93, 0
17, 69696, Note_on_c, 11, 79, 96
17, 69696, Note_on_c, 11, 91, 96
17, 69802, Note_off_c, 11, 79, 0
17, 69802, Note_off_c, 11, 91, 0
17, 69802, Note_on_c, 11, 78, 89
17, 69802, Note_on_c, 11, 90, 89
17, 69888, Note_off_c, 11, 78, 0
17, 69888, Note_off_c, 11, 90, 0
17, 69888, Note_on_c, 11, 82, 112
17, 69888, Note_on_c, 11, 94, 112
17, 69973, Note_off_c, 11, 82, 0
17, 69973, Note_off_c, 11, 94, 0
17, 69973, Note_on_c, 11, 72, 77
17, 69973, Note_on_c, 11, 84, 77
17, 70058, Note_off_c, 11, 72, 0
17, 70058, Note_off_c, 11, 84, 0
17, 70058, Note_on_c, 11, 75, 104
17, 70058, Note_on_c, 11, 87, 104
17, 70144, Note_off_c, 11, 75, 0
17, 70144, Note_off_c, 11, 87, 0
17, 70144, Note_on_c, 11, 77, 110
17, 70144, Note_on_c, 11, 89, 110
17, 70229, Note_off_c, 11, 77, 0
17, 70229, Note_off_c, 11, 89, 0
17, 70229, Note_on_c, 11, 75, 97
17, 70229, Note_on_c, 11, 87, 97
17, 70314, Note_off_c, 11, 75, 0
17, 70314, Note_off_c, 11, 87, 0
17, 70314, Note_on_c, 11, 78, 106
17, 70314, Note_on_c, 11, 90, 106
17, 70400, Note_off_c, 11, 78, 0
17, 70400, Note_off_c, 11, 90, 0
17, 70400, Note_on_c, 11, 79, 107
17, 70400, Note_on_c, 11, 91, 107
17, 70485, Note_off_c, 11, 79, 0
17, 70485, Note_off_c, 11, 91, 0
17, 70485, Note_on_c, 11, 82, 111
17, 70485, Note_on_c, 11, 94, 111
17, 70570, Note_off_c, 11, 82, 0
17, 70570, Note_off_c, 11, 94, 0
17, 70570, Note_on_c, 11, 83, 112
17, 70570, Note_on_c, 11, 95, 112
17, 70656, Note_off_c, 11, 83, 0
17, 70656, Note_off_c, 11, 95, 0
17, 70656, Note_on_c, 11, 84, 104
17, 70656, Note_on_c, 11, 96, 104
17, 70741, Note_off_c, 11, 84, 0
17, 70741, Note_off_c, 11, 96, 0
17, 70741, Note_on_c, 11, 83, 97
17, 70741, Note_on_c, 11, 95, 97
17, 70826, Note_off_c, 11, 83, 0
17, 70826, Note_off_c, 11, 95, 0
17, 70826, Note_on_c, 11, 80, 93
17, 70826, Note_on_c, 11, 92, 93
17, 70912, Note_off_c, 11, 80, 0
17, 70912, Note_off_c, 11, 92, 0
17, 70912, Note_on_c, 11, 89, 121
17, 70912, Note_on_c, 11, 101, 121
17, 70997, Note_off_c, 11, 89, 0
17, 70997, Note_off_c, 11, 101, 0
17, 70997, Note_on_c, 11, 87, 99
17, 70997, Note_on_c, 11, 99, 99
17, 71082, Note_off_c, 11, 87, 0
17, 71082, Note_off_c, 11, 99, 0
17, 71082, Note_on_c, 11, 84, 93
17, 71082, Note_on_c, 11, 96, 93
17, 71168, Note_off_c, 11, 84, 0
17, 71168, Note_off_c, 11, 96, 0
17, 71168, Note_on_c, 11, 82, 88
17, 71168, Note_on_c, 11, 94, 88
17, 71253, Note_off_c, 11, 82, 0
17, 71253, Note_off_c, 11, 94, 0
17, 71253, Note_on_c, 11, 81, 95
17, 71253, Note_on_c, 11, 93, 95
17, 71338, Note_off_c, 11, 81, 0
17, 71338, Note_off_c, 11, 93, 0
17, 71338, Note_on_c, 11, 79, 94
17, 71338, Note_on_c, 11, 91, 94
17, 71424, Note_off_c, 11, 79, 0
17, 71424, Note_off_c, 11, 91, 0
17, 71424, Note_on_c, 11, 77, 97
17, 71424, Note_on_c, 11, 89, 97
17, 71488, Note_off_c, 11, 77, 0
17, 71488, Note_off_c, 11, 89, 0
17, 71488, Note_on_c, 11, 76, 93
17, 71488, Note_on_c, 11, 88, 93
17, 71552, Note_off_c, 11, 76, 0
17, 71552, Note_off_c, 11, 88, 0
17, 71552, Note_on_c, 11, 75, 96
17, 71552, Note_on_c, 11, 87, 96
17, 71616, Note_off_c, 11, 75, 0
17, 71616, Note_off_c, 11, 87, 0
17, 71616, Note_on_c, 11, 73, 94
17, 71616, Note_on_c, 11, 85, 94
17, 71680, Note_off_c, 11, 73, 0
17, 71680, Note_off_c, 11, 85, 0
17, 71680, Note_on_c, 11, 74, 113
17, 71680, Note_on_c, 11, 86, 113
17, 71731, Note_on_c, 11, 72, 103
17, 71731, Note_on_c, 11, 84, 103
17, 71732, Note_off_c, 11, 74, 0
17, 71732, Note_off_c, 11, 86, 0
17, 71782, Note_on_c, 11, 71, 108
17, 71782, Note_on_c, 11, 83, 108
17, 71783, Note_off_c, 11, 72, 0
17, 71783, Note_off_c, 11, 84, 0
17, 71833, Note_on_c, 11, 69, 98
17, 71833, Note_on_c, 11, 81, 98
17, 71834, Note_off_c, 11, 71, 0
17, 71834, Note_off_c, 11, 83, 0
17, 71884, Note_on_c, 11, 68, 106
17, 71884, Note_on_c, 11, 80, 106
17, 71885, Note_off_c, 11, 69, 0
17, 71885, Note_off_c, 11, 81, 0
17, 71936, Note_on_c, 11, 66, 97
17, 71936, Note_on_c, 11, 78, 97
17, 71937, Note_off_c, 11, 68, 0
17, 71937, Note_off_c, 11, 80, 0
17, 71987, Note_on_c, 11, 64, 105
17, 71987, Note_on_c, 11, 76, 105
17, 71988, Note_off_c, 11, 66, 0
17, 71988, Note_off_c, 11, 78, 0
17, 72038, Note_on_c, 11, 63, 99
17, 72038, Note_on_c, 11, 75, 99
17, 72039, Note_off_c, 11, 64, 0
17, 72039, Note_off_c, 11, 76, 0
17, 72089, Note_on_c, 11, 62, 107
17, 72089, Note_on_c, 11, 74, 107
17, 72090, Note_off_c, 11, 63, 0
17, 72090, Note_off_c, 11, 75, 0
17, 72140, Note_on_c, 11, 60, 103
17, 72140, Note_on_c, 11, 72, 103
17, 72141, Note_off_c, 11, 62, 0
17, 72141, Note_off_c, 11, 74, 0
17, 72189, Note_off_c, 11, 60, 0
17, 72189, Note_off_c, 11, 72, 0
17, 72192, Note_on_c, 11, 63, 127
17, 72192, Note_on_c, 11, 75, 127
17, 72224, Note_off_c, 11, 63, 0
17, 72224, Note_off_c, 11, 75, 0
17, 72224, Note_on_c, 11, 59, 104
17, 72224, Note_on_c, 11, 71, 104
17, 72256, Note_off_c, 11, 59, 0
17, 72256, Note_off_c, 11, 71, 0
17, 72256, Note_on_c, 11, 57, 107
17, 72256, Note_on_c, 11, 69, 107
17, 72288, Note_off_c, 11, 57, 0
17, 72288, Note_off_c, 11, 69, 0
17, 72288, Note_on_c, 11, 55, 105
17, 72288, Note_on_c, 11, 67, 105
17, 72320, Note_off_c, 11, 55, 0
17, 72320, Note_off_c, 11, 67, 0
17, 72320, Note_on_c, 11, 54, 103
17, 72320, Note_on_c, 11, 66, 103
17, 72352, Note_off_c, 11, 54, 0
17, 72352, Note_off_c, 11, 66, 0
17, 72352, Note_on_c, 11, 52, 103
17, 72352, Note_on_c, 11, 64, 103
17, 72384, Note_off_c, 11, 52, 0
17, 72384, Note_off_c, 11, 64, 0
17, 72384, Note_on_c, 11, 51, 105
17, 72384, Note_on_c, 11, 63, 105
17, 72416, Note_off_c, 11, 51, 0
17, 72416, Note_off_c, 11, 63, 0
17, 72416, Note_on_c, 11, 49, 105
17, 72416, Note_on_c, 11, 61, 105
17, 72448, Note_off_c, 11, 49, 0
17, 72448, Note_off_c, 11, 61, 0
17, 72448, Note_on_c, 11, 48, 109
17, 72448, Note_on_c, 11, 60, 109
17, 72473, Note_off_c, 11, 48, 0
17, 72473, Note_off_c, 11, 60, 0
17, 72473, Note_on_c, 11, 46, 107
17, 72473, Note_on_c, 11, 58, 107
17, 72499, Note_off_c, 11, 46, 0
17, 72499, Note_off_c, 11, 58, 0
17, 72499, Note_on_c, 11, 44, 110
17, 72499, Note_on_c, 11, 56, 110
17, 72524, Note_off_c, 11, 44, 0
17, 72524, Note_off_c, 11, 56, 0
17, 72524, Note_on_c, 11, 42, 111
17, 72524, Note_on_c, 11, 54, 111
17, 72550, Note_off_c, 11, 42, 0
17, 72550, Note_off_c, 11, 54, 0
17, 72550, Note_on_c, 11, 40, 109
17, 72550, Note_on_c, 11, 52, 109
17, 72574, Note_off_c, 11, 40, 0
17, 72574, Note_off_c, 11, 52, 0
17, 72576, Note_on_c, 11, 38, 113
17, 72576, Note_on_c, 11, 50, 113
17, 72601, Note_off_c, 11, 38, 0
17, 72601, Note_off_c, 11, 50, 0
17, 72601, Note_on_c, 11, 40, 115
17, 72601, Note_on_c, 11, 52, 115
17, 72627, Note_off_c, 11, 40, 0
17, 72627, Note_off_c, 11, 52, 0
17, 72627, Note_on_c, 11, 42, 116
17, 72627, Note_on_c, 11, 54, 116
17, 72652, Note_off_c, 11, 42, 0
17, 72652, Note_off_c, 11, 54, 0
17, 72652, Note_on_c, 11, 44, 115
17, 72652, Note_on_c, 11, 56, 115
17, 72678, Note_off_c, 11, 44, 0
17, 72678, Note_off_c, 11, 56, 0
17, 72678, Note_on_c, 11, 46, 113
17, 72678, Note_on_c, 11, 58, 113
17, 72704, Note_off_c, 11, 46, 0
17, 72704, Note_off_c, 11, 58, 0
17, 72704, Note_on_c, 11, 48, 121
17, 72704, Note_on_c, 11, 60, 121
17, 72736, Note_off_c, 11, 48, 0
17, 72736, Note_off_c, 11, 60, 0
17, 72736, Note_on_c, 11, 49, 117
17, 72736, Note_on_c, 11, 61, 117
17, 72768, Note_off_c, 11, 49, 0
17, 72768, Note_off_c, 11, 61, 0
17, 72768, Note_on_c, 11, 51, 122
17, 72768, Note_on_c, 11, 63, 122
17, 72800, Note_off_c, 11, 51, 0
17, 72800, Note_off_c, 11, 63, 0
17, 72800, Note_on_c, 11, 52, 125
17, 72800, Note_on_c, 11, 64, 125
17, 72832, Note_off_c, 11, 52, 0
17, 72832, Note_off_c, 11, 64, 0
17, 72832, Note_on_c, 11, 54, 124
17, 72832, Note_on_c, 11, 66, 124
17, 72864, Note_off_c, 11, 54, 0
17, 72864, Note_off_c, 11, 66, 0
17, 72864, Note_on_c, 11, 55, 121
17, 72864, Note_on_c, 11, 67, 121
17, 72896, Note_off_c, 11, 55, 0
17, 72896, Note_off_c, 11, 67, 0
17, 72896, Note_on_c, 11, 57, 118
17, 72896, Note_on_c, 11, 69, 118
17, 72928, Note_off_c, 11, 57, 0
17, 72928, Note_off_c, 11, 69, 0
17, 72928, Note_on_c, 11, 59, 122
17, 72928, Note_on_c, 11, 71, 122
17, 72960, Note_off_c, 11, 59, 0
17, 72960, Note_off_c, 11, 71, 0
17, 72960, Note_on_c, 11, 63, 124
17, 72960, Note_on_c, 11, 75, 124
17, 72990, Note_off_c, 11, 63, 0
17, 72990, Note_off_c, 11, 75, 0
17, 72992, Note_on_c, 11, 60, 101
17, 72992, Note_on_c, 11, 72, 101
17, 73024, Note_off_c, 11, 60, 0
17, 73024, Note_off_c, 11, 72, 0
17, 73024, Note_on_c, 11, 62, 121
17, 73024, Note_on_c, 11, 74, 121
17, 73056, Note_off_c, 11, 62, 0
17, 73056, Note_off_c, 11, 74, 0
17, 73056, Note_on_c, 11, 63, 118
17, 73056, Note_on_c, 11, 75, 118
17, 73088, Note_off_c, 11, 63, 0
17, 73088, Note_off_c, 11, 75, 0
17, 73088, Note_on_c, 11, 64, 116
17, 73088, Note_on_c, 11, 76, 116
17, 73120, Note_off_c, 11, 64, 0
17, 73120, Note_off_c, 11, 76, 0
17, 73120, Note_on_c, 11, 66, 121
17, 73120, Note_on_c, 11, 78, 121
17, 73152, Note_off_c, 11, 66, 0
17, 73152, Note_off_c, 11, 78, 0
17, 73152, Note_on_c, 11, 68, 121
17, 73152, Note_on_c, 11, 80, 121
17, 73184, Note_off_c, 11, 68, 0
17, 73184, Note_off_c, 11, 80, 0
17, 73184, Note_on_c, 11, 69, 119
17, 73184, Note_on_c, 11, 81, 119
17, 73216, Note_off_c, 11, 69, 0
17, 73216, Note_off_c, 11, 81, 0
17, 73216, Note_on_c, 11, 71, 123
17, 73216, Note_on_c, 11, 83, 123
17, 73248, Note_off_c, 11, 71, 0
17, 73248, Note_off_c, 11, 83, 0
17, 73248, Note_on_c, 11, 72, 119
17, 73248, Note_on_c, 11, 84, 119
17, 73280, Note_off_c, 11, 72, 0
17, 73280, Note_off_c, 11, 84, 0
17, 73280, Note_on_c, 11, 74, 121
17, 73280, Note_on_c, 11, 86, 121
17, 73310, Note_off_c, 11, 74, 0
17, 73310, Note_off_c, 11, 86, 0
17, 73344, Note_on_c, 11, 75, 97
17, 73344, Note_on_c, 11, 87, 97
17, 73376, Note_off_c, 11, 75, 0
17, 73376, Note_off_c, 11, 87, 0
17, 73376, Note_on_c, 11, 77, 116
17, 73376, Note_on_c, 11, 89, 116
17, 73406, Note_off_c, 11, 77, 0
17, 73406, Note_off_c, 11, 89, 0
17, 73440, Note_on_c, 11, 78, 97
17, 73440, Note_on_c, 11, 90, 97
17, 73472, Note_off_c, 11, 78, 0
17, 73472, Note_off_c, 11, 90, 0
17, 73472, Note_on_c, 11, 80, 120
17, 73472, Note_on_c, 11, 92, 120
17, 73502, Note_off_c, 11, 80, 0
17, 73502, Note_off_c, 11, 92, 0
17, 73536, Note_on_c, 11, 82, 99
17, 73536, Note_on_c, 11, 94, 99
17, 73568, Note_off_c, 11, 82, 0
17, 73568, Note_off_c, 11, 94, 0
17, 73568, Note_on_c, 11, 84, 120
17, 73568, Note_on_c, 11, 96, 120
17, 73598, Note_off_c, 11, 84, 0
17, 73598, Note_off_c, 11, 96, 0
17, 73664, Note_on_c, 11, 86, 102
17, 73664, Note_on_c, 11, 98, 102
17, 73728, Note_off_c, 11, 86, 0
17, 73728, Note_off_c, 11, 98, 0
17, 74112, Note_on_c, 11, 58, 71
17, 74112, Note_on_c, 11, 60, 71
17, 74112, Note_on_c, 11, 64, 71
17, 74112, Note_on_c, 11, 67, 71
17, 74112, Note_on_c, 11, 69, 71
17, 74112, Note_on_c, 11, 72, 71
17, 74240, Note_off_c, 11, 58, 0
17, 74240, Note_off_c, 11, 60, 0
17, 74240, Note_off_c, 11, 64, 0
17, 74240, Note_off_c, 11, 67, 0
17, 74240, Note_off_c, 11, 69, 0
17, 74240, Note_off_c, 11, 72, 0
17, 74240, Note_on_c, 11, 58, 83
17, 74240, Note_on_c, 11, 60, 83
17, 74240, Note_on_c, 11, 64, 83
17, 74240, Note_on_c, 11, 67, 83
17, 74240, Note_on_c, 11, 69, 83
17, 74240, Note_on_c, 11, 72, 83
17, 74368, Note_off_c, 11, 58, 0
17, 74368, Note_off_c, 11, 60, 0
17, 74368, Note_off_c, 11, 64, 0
17, 74368, Note_off_c, 11, 67, 0
17, 74368, Note_off_c, 11, 69, 0
17, 74368, Note_off_c, 11, 72, 0
17, 74368, Note_on_c, 11, 59, 92
17, 74368, Note_on_c, 11, 61, 92
17, 74368, Note_on_c, 11, 65, 92
17, 74368, Note_on_c, 11, 68, 92
17, 74368, Note_on_c, 11, 70, 92
17, 74368, Note_on_c, 11, 73, 92
17, 74368, Note_on_c, 11, 75, 92
17, 74470, Note_off_c, 11, 59, 0
17, 74470, Note_off_c, 11, 61, 0
17, 74470, Note_off_c, 11, 65, 0
17, 74470, Note_off_c, 11, 68, 0
17, 74470, Note_off_c, 11, 70, 0
17, 74470, Note_off_c, 11, 73, 0
17, 74470, Note_off_c, 11, 75, 0
17, 74496, Note_on_c, 11, 59, 90
17, 74496, Note_on_c, 11, 61, 90
17, 74496, Note_on_c, 11, 65, 90
17, 74496, Note_on_c, 11, 68, 90
17, 74496, Note_on_c, 11, 70, 90
17, 74496, Note_on_c, 11, 73, 90
17, 74496, Note_on_c, 11, 75, 90
17, 74598, Note_off_c, 11, 59, 0
17, 74598, Note_off_c, 11, 61, 0
17, 74598, Note_off_c, 11, 65, 0
17, 74598, Note_off_c, 11, 68, 0
17, 74598, Note_off_c, 11, 70, 0
17, 74598, Note_off_c, 11, 73, 0
17, 74598, Note_off_c, 11, 75, 0
17, 74624, Note_on_c, 11, 59, 92
17, 74624, Note_on_c, 11, 61, 92
17, 74624, Note_on_c, 11, 65, 92
17, 74624, Note_on_c, 11, 68, 92
17, 74624, Note_on_c, 11, 70, 92
17, 74624, Note_on_c, 11, 73, 92
17, 74624, Note_on_c, 11, 75, 92
17, 74726, Note_off_c, 11, 59, 0
17, 74726, Note_off_c, 11, 61, 0
17, 74726, Note_off_c, 11, 65, 0
17, 74726, Note_off_c, 11, 68, 0
17, 74726, Note_off_c, 11, 70, 0
17, 74726, Note_off_c, 11, 73, 0
17, 74726, Note_off_c, 11, 75, 0
17, 74752, Note_on_c, 11, 58, 110
17, 74752, Note_on_c, 11, 60, 110
17, 74752, Note_on_c, 11, 64, 110
17, 74752, Note_on_c, 11, 67, 110
17, 74752, Note_on_c, 11, 76, 110
17, 74752, Note_on_c, 11, 79, 110
17, 74880, Note_off_c, 11, 58, 0
17, 74880, Note_off_c, 11, 60, 0
17, 74880, Note_off_c, 11, 64, 0
17, 74880, Note_off_c, 11, 67, 0
17, 74880, Note_off_c, 11, 76, 0
17, 74880, Note_off_c, 11, 79, 0
17, 74880, Note_on_c, 11, 57, 79
17, 74880, Note_on_c, 11, 59, 79
17, 74880, Note_on_c, 11, 63, 79
17, 74880, Note_on_c, 11, 66, 79
17, 74880, Note_on_c, 11, 69, 79
17, 74880, Note_on_c, 11, 71, 79
17, 75008, Note_off_c, 11, 57, 0
17, 75008, Note_off_c, 11, 59, 0
17, 75008, Note_off_c, 11, 63, 0
17, 75008, Note_off_c, 11, 66, 0
17, 75008, Note_off_c, 11, 69, 0
17, 75008, Note_off_c, 11, 71, 0
17, 75008, Note_on_c, 11, 56, 93
17, 75008, Note_on_c, 11, 58, 93
17, 75008, Note_on_c, 11, 62, 93
17, 75008, Note_on_c, 11, 65, 93
17, 75008, Note_on_c, 11, 67, 93
17, 75008, Note_on_c, 11, 70, 93
17, 75110, Note_off_c, 11, 56, 0
17, 75110, Note_off_c, 11, 58, 0
17, 75110, Note_off_c, 11, 62, 0
17, 75110, Note_off_c, 11, 65, 0
17, 75110, Note_off_c, 11, 67, 0
17, 75110, Note_off_c, 11, 70, 0
17, 75136, Note_on_c, 11, 56, 101
17, 75136, Note_on_c, 11, 58, 101
17, 75136, Note_on_c, 11, 62, 101
17, 75136, Note_on_c, 11, 65, 101
17, 75136, Note_on_c, 11, 67, 101
17, 75136, Note_on_c, 11, 70, 101
17, 75238, Note_off_c, 11, 56, 0
17, 75238, Note_off_c, 11, 58, 0
17, 75238, Note_off_c, 11, 62, 0
17, 75238, Note_off_c, 11, 65, 0
17, 75238, Note_off_c, 11, 67, 0
17, 75238, Note_off_c, 11, 70, 0
17, 75264, Note_on_c, 11, 57, 106
17, 75264, Note_on_c, 11, 59, 106
17, 75264, Note_on_c, 11, 63, 106
17, 75264, Note_on_c, 11, 66, 106
17, 75264, Note_on_c, 11, 68, 106
17, 75264, Note_on_c, 11, 71, 106
17, 75366, Note_off_c, 11, 57, 0
17, 75366, Note_off_c, 11, 59, 0
17, 75366, Note_off_c, 11, 63, 0
17, 75366, Note_off_c, 11, 66, 0
17, 75366, Note_off_c, 11, 68, 0
17, 75366, Note_off_c, 11, 71, 0
17, 75392, Note_on_c, 11, 57, 106
17, 75392, Note_on_c, 11, 59, 106
17, 75392, Note_on_c, 11, 63, 106
17, 75392, Note_on_c, 11, 66, 106
17, 75392, Note_on_c, 11, 68, 106
17, 75392, Note_on_c, 11, 71, 106
17, 75494, Note_off_c, 11, 57, 0
17, 75494, Note_off_c, 11, 59, 0
17, 75494, Note_off_c, 11, 63, 0
17, 75494, Note_off_c, 11, 66, 0
17, 75494, Note_off_c, 11, 68, 0
17, 75494, Note_off_c, 11, 71, 0
17, 75520, Note_on_c, 11, 53, 117
17, 75520, Note_on_c, 11, 56, 117
17, 75520, Note_on_c, 11, 59, 117
17, 75520, Note_on_c, 11, 63, 117
17, 75520, Note_on_c, 11, 71, 117
17, 75520, Note_on_c, 11, 74, 117
17, 75622, Note_off_c, 11, 53, 0
17, 75622, Note_off_c, 11, 56, 0
17, 75622, Note_off_c, 11, 59, 0
17, 75622, Note_off_c, 11, 63, 0
17, 75622, Note_off_c, 11, 71, 0
17, 75622, Note_off_c, 11, 74, 0
17, 75648, Note_on_c, 11, 53, 110
17, 75648, Note_on_c, 11, 56, 110
17, 75648, Note_on_c, 11, 59, 110
17, 75648, Note_on_c, 11, 63, 110
17, 75648, Note_on_c, 11, 71, 110
17, 75648, Note_on_c, 11, 74, 110
17, 75750, Note_off_c, 11, 53, 0
17, 75750, Note_off_c, 11, 56, 0
17, 75750, Note_off_c, 11, 59, 0
17, 75750, Note_off_c, 11, 63, 0
17, 75750, Note_off_c, 11, 71, 0
17, 75750, Note_off_c, 11, 74, 0
17, 75776, Note_on_c, 11, 50, 126
17, 75776, Note_on_c, 11, 54, 126
17, 75776, Note_on_c, 11, 57, 126
17, 75776, Note_on_c, 11, 60, 126
17, 75776, Note_on_c, 11, 68, 126
17, 75776, Note_on_c, 11, 74, 126
17, 75776, Note_on_c, 11, 77, 126
17, 75904, Note_off_c, 11, 50, 0
17, 75904, Note_off_c, 11, 54, 0
17, 75904, Note_off_c, 11, 57, 0
17, 75904, Note_off_c, 11, 60, 0
17, 75904, Note_off_c, 11, 68, 0
17, 75904, Note_off_c, 11, 74, 0
17, 75904, Note_off_c, 11, 77, 0
17, 75904, Note_on_c, 11, 50, 54
17, 75904, Note_on_c, 11, 54, 54
17, 75904, Note_on_c, 11, 57, 54
17, 75904, Note_on_c, 11, 60, 54
17, 75904, Note_on_c, 11, 64, 54
17, 75904, Note_on_c, 11, 67, 54
17, 76032, Note_off_c, 11, 50, 0
17, 76032, Note_off_c, 11, 54, 0
17, 76032, Note_off_c, 11, 57, 0
17, 76032, Note_off_c, 11, 60, 0
17, 76032, Note_off_c, 11, 64, 0
17, 76032, Note_off_c, 11, 67, 0
17, 76032, Note_on_c, 11, 49, 72
17, 76032, Note_on_c, 11, 53, 72
17, 76032, Note_on_c, 11, 56, 72
17, 76032, Note_on_c, 11, 59, 72
17, 76032, Note_on_c, 11, 65, 72
17, 76032, Note_on_c, 11, 68, 72
17, 76134, Note_off_c, 11, 49, 0
17, 76134, Note_off_c, 11, 53, 0
17, 76134, Note_off_c, 11, 56, 0
17, 76134, Note_off_c, 11, 59, 0
17, 76134, Note_off_c, 11, 65, 0
17, 76134, Note_off_c, 11, 68, 0
17, 76160, Note_on_c, 11, 49, 72
17, 76160, Note_on_c, 11, 53, 72
17, 76160, Note_on_c, 11, 56, 72
17, 76160, Note_on_c, 11, 59, 72
17, 76160, Note_on_c, 11, 65, 72
17, 76160, Note_on_c, 11, 68, 72
17, 76262, Note_off_c, 11, 49, 0
17, 76262, Note_off_c, 11, 53, 0
17, 76262, Note_off_c, 11, 56, 0
17, 76262, Note_off_c, 11, 59, 0
17, 76262, Note_off_c, 11, 65, 0
17, 76262, Note_off_c, 11, 68, 0
17, 76288, Note_on_c, 11, 49, 72
17, 76288, Note_on_c, 11, 53, 72
17, 76288, Note_on_c, 11, 56, 72
17, 76288, Note_on_c, 11, 59, 72
17, 76288, Note_on_c, 11, 65, 72
17, 76288, Note_on_c, 11, 68, 72
17, 76390, Note_off_c, 11, 49, 0
17, 76390, Note_off_c, 11, 53, 0
17, 76390, Note_off_c, 11, 56, 0
17, 76390, Note_off_c, 11, 59, 0
17, 76390, Note_off_c, 11, 65, 0
17, 76390, Note_off_c, 11, 68, 0
17, 76416, Note_on_c, 11, 49, 72
17, 76416, Note_on_c, 11, 53, 72
17, 76416, Note_on_c, 11, 56, 72
17, 76416, Note_on_c, 11, 59, 72
17, 76416, Note_on_c, 11, 65, 72
17, 76416, Note_on_c, 11, 68, 72
17, 76518, Note_off_c, 11, 49, 0
17, 76518, Note_off_c, 11, 53, 0
17, 76518, Note_off_c, 11, 56, 0
17, 76518, Note_off_c, 11, 59, 0
17, 76518, Note_off_c, 11, 65, 0
17, 76518, Note_off_c, 11, 68, 0
17, 76544, Note_on_c, 11, 49, 72
17, 76544, Note_on_c, 11, 53, 72
17, 76544, Note_on_c, 11, 56, 72
17, 76544, Note_on_c, 11, 59, 72
17, 76544, Note_on_c, 11, 65, 72
17, 76544, Note_on_c, 11, 68, 72
17, 76646, Note_off_c, 11, 49, 0
17, 76646, Note_off_c, 11, 53, 0
17, 76646, Note_off_c, 11, 56, 0
17, 76646, Note_off_c, 11, 59, 0
17, 76646, Note_off_c, 11, 65, 0
17, 76646, Note_off_c, 11, 68, 0
17, 76672, Note_on_c, 11, 49, 72
17, 76672, Note_on_c, 11, 53, 72
17, 76672, Note_on_c, 11, 56, 72
17, 76672, Note_on_c, 11, 59, 72
17, 76672, Note_on_c, 11, 65, 72
17, 76672, Note_on_c, 11, 68, 72
17, 76774, Note_off_c, 11, 49, 0
17, 76774, Note_off_c, 11, 53, 0
17, 76774, Note_off_c, 11, 56, 0
17, 76774, Note_off_c, 11, 59, 0
17, 76774, Note_off_c, 11, 65, 0
17, 76774, Note_off_c, 11, 68, 0
17, 76800, Note_on_c, 11, 49, 69
17, 76800, Note_on_c, 11, 53, 69
17, 76800, Note_on_c, 11, 56, 69
17, 76800, Note_on_c, 11, 59, 69
17, 76800, Note_on_c, 11, 65, 69
17, 76800, Note_on_c, 11, 68, 69
17, 76902, Note_off_c, 11, 49, 0
17, 76902, Note_off_c, 11, 53, 0
17, 76902, Note_off_c, 11, 56, 0
17, 76902, Note_off_c, 11, 59, 0
17, 76902, Note_off_c, 11, 65, 0
17, 76902, Note_off_c, 11, 68, 0
17, 76928, Note_on_c, 11, 49, 69
17, 76928, Note_on_c, 11, 53, 69
17, 76928, Note_on_c, 11, 56, 69
17, 76928, Note_on_c, 11, 59, 69
17, 76928, Note_on_c, 11, 65, 69
17, 76928, Note_on_c, 11, 68, 69
17, 77030, Note_off_c, 11, 49, 0
17, 77030, Note_off_c, 11, 53, 0
17, 77030, Note_off_c, 11, 56, 0
17, 77030, Note_off_c, 11, 59, 0
17, 77030, Note_off_c, 11, 65, 0
17, 77030, Note_off_c, 11, 68, 0
17, 77056, Note_on_c, 11, 49, 69
17, 77056, Note_on_c, 11, 53, 69
17, 77056, Note_on_c, 11, 56, 69
17, 77056, Note_on_c, 11, 59, 69
17, 77056, Note_on_c, 11, 65, 69
17, 77056, Note_on_c, 11, 68, 69
17, 77158, Note_off_c, 11, 49, 0
17, 77158, Note_off_c, 11, 53, 0
17, 77158, Note_off_c, 11, 56, 0
17, 77158, Note_off_c, 11, 59, 0
17, 77158, Note_off_c, 11, 65, 0
17, 77158, Note_off_c, 11, 68, 0
17, 77184, Note_on_c, 11, 49, 69
17, 77184, Note_on_c, 11, 53, 69
17, 77184, Note_on_c, 11, 56, 69
17, 77184, Note_on_c, 11, 59, 69
17, 77184, Note_on_c, 11, 65, 69
17, 77184, Note_on_c, 11, 68, 69
17, 77286, Note_off_c, 11, 49, 0
17, 77286, Note_off_c, 11, 53, 0
17, 77286, Note_off_c, 11, 56, 0
17, 77286, Note_off_c, 11, 59, 0
17, 77286, Note_off_c, 11, 65, 0
17, 77286, Note_off_c, 11, 68, 0
17, 77312, Note_on_c, 11, 49, 69
17, 77312, Note_on_c, 11, 53, 69
17, 77312, Note_on_c, 11, 56, 69
17, 77312, Note_on_c, 11, 59, 69
17, 77312, Note_on_c, 11, 65, 69
17, 77312, Note_on_c, 11, 68, 69
17, 77414, Note_off_c, 11, 49, 0
17, 77414, Note_off_c, 11, 53, 0
17, 77414, Note_off_c, 11, 56, 0
17, 77414, Note_off_c, 11, 59, 0
17, 77414, Note_off_c, 11, 65, 0
17, 77414, Note_off_c, 11, 68, 0
17, 77440, Note_on_c, 11, 49, 69
17, 77440, Note_on_c, 11, 53, 69
17, 77440, Note_on_c, 11, 56, 69
17, 77440, Note_on_c, 11, 59, 69
17, 77440, Note_on_c, 11, 65, 69
17, 77440, Note_on_c, 11, 68, 69
17, 77542, Note_off_c, 11, 49, 0
17, 77542, Note_off_c, 11, 53, 0
17, 77542, Note_off_c, 11, 56, 0
17, 77542, Note_off_c, 11, 59, 0
17, 77542, Note_off_c, 11, 65, 0
17, 77542, Note_off_c, 11, 68, 0
17, 77568, Note_on_c, 11, 49, 69
17, 77568, Note_on_c, 11, 53, 69
17, 77568, Note_on_c, 11, 56, 69
17, 77568, Note_on_c, 11, 59, 69
17, 77568, Note_on_c, 11, 65, 69
17, 77568, Note_on_c, 11, 68, 69
17, 77670, Note_off_c, 11, 49, 0
17, 77670, Note_off_c, 11, 53, 0
17, 77670, Note_off_c, 11, 56, 0
17, 77670, Note_off_c, 11, 59, 0
17, 77670, Note_off_c, 11, 65, 0
17, 77670, Note_off_c, 11, 68, 0
17, 77696, Note_on_c, 11, 49, 69
17, 77696, Note_on_c, 11, 53, 69
17, 77696, Note_on_c, 11, 56, 69
17, 77696, Note_on_c, 11, 59, 69
17, 77696, Note_on_c, 11, 65, 69
17, 77696, Note_on_c, 11, 68, 69
17, 77798, Note_off_c, 11, 49, 0
17, 77798, Note_off_c, 11, 53, 0
17, 77798, Note_off_c, 11, 56, 0
17, 77798, Note_off_c, 11, 59, 0
17, 77798, Note_off_c, 11, 65, 0
17, 77798, Note_off_c, 11, 68, 0
17, 77824, Note_on_c, 11, 49, 74
17, 77824, Note_on_c, 11, 53, 74
17, 77824, Note_on_c, 11, 56, 74
17, 77824, Note_on_c, 11, 59, 74
17, 77824, Note_on_c, 11, 65, 74
17, 77824, Note_on_c, 11, 68, 74
17, 77926, Note_off_c, 11, 49, 0
17, 77926, Note_off_c, 11, 53, 0
17, 77926, Note_off_c, 11, 56, 0
17, 77926, Note_off_c, 11, 59, 0
17, 77926, Note_off_c, 11, 65, 0
17, 77926, Note_off_c, 11, 68, 0
17, 77952, Note_on_c, 11, 49, 74
17, 77952, Note_on_c, 11, 53, 74
17, 77952, Note_on_c, 11, 56, 74
17, 77952, Note_on_c, 11, 59, 74
17, 77952, Note_on_c, 11, 65, 74
17, 77952, Note_on_c, 11, 68, 74
17, 78054, Note_off_c, 11, 49, 0
17, 78054, Note_off_c, 11, 53, 0
17, 78054, Note_off_c, 11, 56, 0
17, 78054, Note_off_c, 11, 59, 0
17, 78054, Note_off_c, 11, 65, 0
17, 78054, Note_off_c, 11, 68, 0
17, 78080, Note_on_c, 11, 49, 74
17, 78080, Note_on_c, 11, 53, 74
17, 78080, Note_on_c, 11, 56, 74
17, 78080, Note_on_c, 11, 59, 74
17, 78080, Note_on_c, 11, 65, 74
17, 78080, Note_on_c, 11, 68, 74
17, 78182, Note_off_c, 11, 49, 0
17, 78182, Note_off_c, 11, 53, 0
17, 78182, Note_off_c, 11, 56, 0
17, 78182, Note_off_c, 11, 59, 0
17, 78182, Note_off_c, 11, 65, 0
17, 78182, Note_off_c, 11, 68, 0
17, 78208, Note_on_c, 11, 49, 74
17, 78208, Note_on_c, 11, 53, 74
17, 78208, Note_on_c, 11, 56, 74
17, 78208, Note_on_c, 11, 59, 74
17, 78208, Note_on_c, 11, 65, 74
17, 78208, Note_on_c, 11, 68, 74
17, 78310, Note_off_c, 11, 49, 0
17, 78310, Note_off_c, 11, 53, 0
17, 78310, Note_off_c, 11, 56, 0
17, 78310, Note_off_c, 11, 59, 0
17, 78310, Note_off_c, 11, 65, 0
17, 78310, Note_off_c, 11, 68, 0
17, 78336, Note_on_c, 11, 49, 74
17, 78336, Note_on_c, 11, 53, 74
17, 78336, Note_on_c, 11, 56, 74
17, 78336, Note_on_c, 11, 59, 74
17, 78336, Note_on_c, 11, 65, 74
17, 78336, Note_on_c, 11, 68, 74
17, 78438, Note_off_c, 11, 49, 0
17, 78438, Note_off_c, 11, 53, 0
17, 78438, Note_off_c, 11, 56, 0
17, 78438, Note_off_c, 11, 59, 0
17, 78438, Note_off_c, 11, 65, 0
17, 78438, Note_off_c, 11, 68, 0
17, 78464, Note_on_c, 11, 49, 74
17, 78464, Note_on_c, 11, 53, 74
17, 78464, Note_on_c, 11, 56, 74
17, 78464, Note_on_c, 11, 59, 74
17, 78464, Note_on_c, 11, 65, 74
17, 78464, Note_on_c, 11, 68, 74
17, 78566, Note_off_c, 11, 49, 0
17, 78566, Note_off_c, 11, 53, 0
17, 78566, Note_off_c, 11, 56, 0
17, 78566, Note_off_c, 11, 59, 0
17, 78566, Note_off_c, 11, 65, 0
17, 78566, Note_off_c, 11, 68, 0
17, 78592, Note_on_c, 11, 49, 74
17, 78592, Note_on_c, 11, 53, 74
17, 78592, Note_on_c, 11, 56, 74
17, 78592, Note_on_c, 11, 59, 74
17, 78592, Note_on_c, 11, 65, 74
17, 78592, Note_on_c, 11, 68, 74
17, 78694, Note_off_c, 11, 49, 0
17, 78694, Note_off_c, 11, 53, 0
17, 78694, Note_off_c, 11, 56, 0
17, 78694, Note_off_c, 11, 59, 0
17, 78694, Note_off_c, 11, 65, 0
17, 78694, Note_off_c, 11, 68, 0
17, 78720, Note_on_c, 11, 49, 74
17, 78720, Note_on_c, 11, 53, 74
17, 78720, Note_on_c, 11, 56, 74
17, 78720, Note_on_c, 11, 59, 74
17, 78720, Note_on_c, 11, 65, 74
17, 78720, Note_on_c, 11, 68, 74
17, 78822, Note_off_c, 11, 49, 0
17, 78822, Note_off_c, 11, 53, 0
17, 78822, Note_off_c, 11, 56, 0
17, 78822, Note_off_c, 11, 59, 0
17, 78822, Note_off_c, 11, 65, 0
17, 78822, Note_off_c, 11, 68, 0
17, 78848, Note_on_c, 11, 50, 71
17, 78848, Note_on_c, 11, 54, 71
17, 78848, Note_on_c, 11, 57, 71
17, 78848, Note_on_c, 11, 59, 71
17, 78848, Note_on_c, 11, 65, 71
17, 78848, Note_on_c, 11, 68, 71
17, 78950, Note_off_c, 11, 50, 0
17, 78950, Note_off_c, 11, 54, 0
17, 78950, Note_off_c, 11, 57, 0
17, 78950, Note_off_c, 11, 59, 0
17, 78950, Note_off_c, 11, 65, 0
17, 78950, Note_off_c, 11, 68, 0
17, 78976, Note_on_c, 11, 50, 71
17, 78976, Note_on_c, 11, 54, 71
17, 78976, Note_on_c, 11, 57, 71
17, 78976, Note_on_c, 11, 59, 71
17, 78976, Note_on_c, 11, 65, 71
17, 78976, Note_on_c, 11, 68, 71
17, 79078, Note_off_c, 11, 50, 0
17, 79078, Note_off_c, 11, 54, 0
17, 79078, Note_off_c, 11, 57, 0
17, 79078, Note_off_c, 11, 59, 0
17, 79078, Note_off_c, 11, 65, 0
17, 79078, Note_off_c, 11, 68, 0
17, 79104, Note_on_c, 11, 50, 71
17, 79104, Note_on_c, 11, 54, 71
17, 79104, Note_on_c, 11, 57, 71
17, 79104, Note_on_c, 11, 59, 71
17, 79104, Note_on_c, 11, 65, 71
17, 79104, Note_on_c, 11, 68, 71
17, 79206, Note_off_c, 11, 50, 0
17, 79206, Note_off_c, 11, 54, 0
17, 79206, Note_off_c, 11, 57, 0
17, 79206, Note_off_c, 11, 59, 0
17, 79206, Note_off_c, 11, 65, 0
17, 79206, Note_off_c, 11, 68, 0
17, 79232, Note_on_c, 11, 50, 71
17, 79232, Note_on_c, 11, 54, 71
17, 79232, Note_on_c, 11, 57, 71
17, 79232, Note_on_c, 11, 59, 71
17, 79232, Note_on_c, 11, 65, 71
17, 79232, Note_on_c, 11, 68, 71
17, 79334, Note_off_c, 11, 50, 0
17, 79334, Note_off_c, 11, 54, 0
17, 79334, Note_off_c, 11, 57, 0
17, 79334, Note_off_c, 11, 59, 0
17, 79334, Note_off_c, 11, 65, 0
17, 79334, Note_off_c, 11, 68, 0
17, 79360, Note_on_c, 11, 50, 71
17, 79360, Note_on_c, 11, 54, 71
17, 79360, Note_on_c, 11, 57, 71
17, 79360, Note_on_c, 11, 59, 71
17, 79360, Note_on_c, 11, 65, 71
17, 79360, Note_on_c, 11, 68, 71
17, 79462, Note_off_c, 11, 50, 0
17, 79462, Note_off_c, 11, 54, 0
17, 79462, Note_off_c, 11, 57, 0
17, 79462, Note_off_c, 11, 59, 0
17, 79462, Note_off_c, 11, 65, 0
17, 79462, Note_off_c, 11, 68, 0
17, 79488, Note_on_c, 11, 50, 71
17, 79488, Note_on_c, 11, 54, 71
17, 79488, Note_on_c, 11, 57, 71
17, 79488, Note_on_c, 11, 59, 71
17, 79488, Note_on_c, 11, 65, 71
17, 79488, Note_on_c, 11, 68, 71
17, 79590, Note_off_c, 11, 50, 0
17, 79590, Note_off_c, 11, 54, 0
17, 79590, Note_off_c, 11, 57, 0
17, 79590, Note_off_c, 11, 59, 0
17, 79590, Note_off_c, 11, 65, 0
17, 79590, Note_off_c, 11, 68, 0
17, 79616, Note_on_c, 11, 50, 71
17, 79616, Note_on_c, 11, 54, 71
17, 79616, Note_on_c, 11, 57, 71
17, 79616, Note_on_c, 11, 59, 71
17, 79616, Note_on_c, 11, 65, 71
17, 79616, Note_on_c, 11, 68, 71
17, 79718, Note_off_c, 11, 50, 0
17, 79718, Note_off_c, 11, 54, 0
17, 79718, Note_off_c, 11, 57, 0
17, 79718, Note_off_c, 11, 59, 0
17, 79718, Note_off_c, 11, 65, 0
17, 79718, Note_off_c, 11, 68, 0
17, 79744, Note_on_c, 11, 50, 71
17, 79744, Note_on_c, 11, 54, 71
17, 79744, Note_on_c, 11, 57, 71
17, 79744, Note_on_c, 11, 59, 71
17, 79744, Note_on_c, 11, 65, 71
17, 79744, Note_on_c, 11, 68, 71
17, 79846, Note_off_c, 11, 50, 0
17, 79846, Note_off_c, 11, 54, 0
17, 79846, Note_off_c, 11, 57, 0
17, 79846, Note_off_c, 11, 59, 0
17, 79846, Note_off_c, 11, 65, 0
17, 79846, Note_off_c, 11, 68, 0
17, 79872, Note_on_c, 11, 52, 80
17, 79872, Note_on_c, 11, 55, 80
17, 79872, Note_on_c, 11, 58, 80
17, 79872, Note_on_c, 11, 62, 80
17, 79872, Note_on_c, 11, 65, 80
17, 79872, Note_on_c, 11, 68, 80
17, 79872, Note_on_c, 11, 72, 80
17, 79974, Note_off_c, 11, 52, 0
17, 79974, Note_off_c, 11, 55, 0
17, 79974, Note_off_c, 11, 58, 0
17, 79974, Note_off_c, 11, 62, 0
17, 79974, Note_off_c, 11, 65, 0
17, 79974, Note_off_c, 11, 68, 0
17, 79974, Note_off_c, 11, 72, 0
17, 80000, Note_on_c, 11, 52, 73
17, 80000, Note_on_c, 11, 55, 73
17, 80000, Note_on_c, 11, 58, 73
17, 80000, Note_on_c, 11, 62, 73
17, 80000, Note_on_c, 11, 65, 73
17, 80000, Note_on_c, 11, 68, 73
17, 80000, Note_on_c, 11, 72, 73
17, 80102, Note_off_c, 11, 52, 0
17, 80102, Note_off_c, 11, 55, 0
17, 80102, Note_off_c, 11, 58, 0
17, 80102, Note_off_c, 11, 62, 0
17, 80102, Note_off_c, 11, 65, 0
17, 80102, Note_off_c, 11, 68, 0
17, 80102, Note_off_c, 11, 72, 0
17, 80128, Note_on_c, 11, 52, 75
17, 80128, Note_on_c, 11, 55, 75
17, 80128, Note_on_c, 11, 58, 75
17, 80128, Note_on_c, 11, 62, 75
17, 80128, Note_on_c, 11, 65, 75
17, 80128, Note_on_c, 11, 68, 75
17, 80128, Note_on_c, 11, 72, 75
17, 80230, Note_off_c, 11, 52, 0
17, 80230, Note_off_c, 11, 55, 0
17, 80230, Note_off_c, 11, 58, 0
17, 80230, Note_off_c, 11, 62, 0
17, 80230, Note_off_c, 11, 65, 0
17, 80230, Note_off_c, 11, 68, 0
17, 80230, Note_off_c, 11, 72, 0
17, 80256, Note_on_c, 11, 52, 77
17, 80256, Note_on_c, 11, 55, 77
17, 80256, Note_on_c, 11, 58, 77
17, 80256, Note_on_c, 11, 62, 77
17, 80256, Note_on_c, 11, 65, 77
17, 80256, Note_on_c, 11, 68, 77
17, 80256, Note_on_c, 11, 72, 77
17, 80358, Note_off_c, 11, 52, 0
17, 80358, Note_off_c, 11, 55, 0
17, 80358, Note_off_c, 11, 58, 0
17, 80358, Note_off_c, 11, 62, 0
17, 80358, Note_off_c, 11, 65, 0
17, 80358, Note_off_c, 11, 68, 0
17, 80358, Note_off_c, 11, 72, 0
17, 80384, Note_on_c, 11, 52, 83
17, 80384, Note_on_c, 11, 55, 83
17, 80384, Note_on_c, 11, 58, 83
17, 80384, Note_on_c, 11, 62, 83
17, 80384, Note_on_c, 11, 65, 83
17, 80384, Note_on_c, 11, 68, 83
17, 80384, Note_on_c, 11, 72, 83
17, 80486, Note_off_c, 11, 52, 0
17, 80486, Note_off_c, 11, 55, 0
17, 80486, Note_off_c, 11, 58, 0
17, 80486, Note_off_c, 11, 62, 0
17, 80486, Note_off_c, 11, 65, 0
17, 80486, Note_off_c, 11, 68, 0
17, 80486, Note_off_c, 11, 72, 0
17, 80512, Note_on_c, 11, 52, 81
17, 80512, Note_on_c, 11, 55, 81
17, 80512, Note_on_c, 11, 58, 81
17, 80512, Note_on_c, 11, 62, 81
17, 80512, Note_on_c, 11, 65, 81
17, 80512, Note_on_c, 11, 68, 81
17, 80512, Note_on_c, 11, 72, 81
17, 80614, Note_off_c, 11, 52, 0
17, 80614, Note_off_c, 11, 55, 0
17, 80614, Note_off_c, 11, 58, 0
17, 80614, Note_off_c, 11, 62, 0
17, 80614, Note_off_c, 11, 65, 0
17, 80614, Note_off_c, 11, 68, 0
17, 80614, Note_off_c, 11, 72, 0
17, 80640, Note_on_c, 11, 52, 83
17, 80640, Note_on_c, 11, 55, 83
17, 80640, Note_on_c, 11, 58, 83
17, 80640, Note_on_c, 11, 62, 83
17, 80640, Note_on_c, 11, 65, 83
17, 80640, Note_on_c, 11, 68, 83
17, 80640, Note_on_c, 11, 72, 83
17, 80742, Note_off_c, 11, 52, 0
17, 80742, Note_off_c, 11, 55, 0
17, 80742, Note_off_c, 11, 58, 0
17, 80742, Note_off_c, 11, 62, 0
17, 80742, Note_off_c, 11, 65, 0
17, 80742, Note_off_c, 11, 68, 0
17, 80742, Note_off_c, 11, 72, 0
17, 80768, Note_on_c, 11, 45, 86
17, 80768, Note_on_c, 11, 52, 86
17, 80768, Note_on_c, 11, 61, 86
17, 80768, Note_on_c, 11, 65, 86
17, 80768, Note_on_c, 11, 68, 86
17, 80768, Note_on_c, 11, 72, 86
17, 80896, Note_off_c, 11, 45, 0
17, 80896, Note_off_c, 11, 52, 0
17, 80896, Note_off_c, 11, 61, 0
17, 80896, Note_off_c, 11, 65, 0
17, 80896, Note_off_c, 11, 68, 0
17, 80896, Note_off_c, 11, 72, 0
17, 80896, Note_on_c, 11, 45, 90
17, 80896, Note_on_c, 11, 52, 90
17, 80896, Note_on_c, 11, 61, 90
17, 80896, Note_on_c, 11, 65, 90
17, 80896, Note_on_c, 11, 68, 90
17, 80896, Note_on_c, 11, 72, 90
17, 80998, Note_off_c, 11, 45, 0
17, 80998, Note_off_c, 11, 52, 0
17, 80998, Note_off_c, 11, 61, 0
17, 80998, Note_off_c, 11, 65, 0
17, 80998, Note_off_c, 11, 68, 0
17, 80998, Note_off_c, 11, 72, 0
17, 81024, Note_on_c, 11, 45, 89
17, 81024, Note_on_c, 11, 52, 89
17, 81024, Note_on_c, 11, 61, 89
17, 81024, Note_on_c, 11, 65, 89
17, 81024, Note_on_c, 11, 68, 89
17, 81024, Note_on_c, 11, 72, 89
17, 81126, Note_off_c, 11, 45, 0
17, 81126, Note_off_c, 11, 52, 0
17, 81126, Note_off_c, 11, 61, 0
17, 81126, Note_off_c, 11, 65, 0
17, 81126, Note_off_c, 11, 68, 0
17, 81126, Note_off_c, 11, 72, 0
17, 81152, Note_on_c, 11, 45, 91
17, 81152, Note_on_c, 11, 52, 91
17, 81152, Note_on_c, 11, 61, 91
17, 81152, Note_on_c, 11, 65, 91
17, 81152, Note_on_c, 11, 68, 91
17, 81152, Note_on_c, 11, 72, 91
17, 81254, Note_off_c, 11, 45, 0
17, 81254, Note_off_c, 11, 52, 0
17, 81254, Note_off_c, 11, 61, 0
17, 81254, Note_off_c, 11, 65, 0
17, 81254, Note_off_c, 11, 68, 0
17, 81254, Note_off_c, 11, 72, 0
17, 81280, Note_on_c, 11, 45, 93
17, 81280, Note_on_c, 11, 52, 93
17, 81280, Note_on_c, 11, 61, 93
17, 81280, Note_on_c, 11, 65, 93
17, 81280, Note_on_c, 11, 68, 93
17, 81280, Note_on_c, 11, 72, 93
17, 81382, Note_off_c, 11, 45, 0
17, 81382, Note_off_c, 11, 52, 0
17, 81382, Note_off_c, 11, 61, 0
17, 81382, Note_off_c, 11, 65, 0
17, 81382, Note_off_c, 11, 68, 0
17, 81382, Note_off_c, 11, 72, 0
17, 81408, Note_on_c, 11, 45, 95
17, 81408, Note_on_c, 11, 52, 95
17, 81408, Note_on_c, 11, 61, 95
17, 81408, Note_on_c, 11, 65, 95
17, 81408, Note_on_c, 11, 68, 95
17, 81408, Note_on_c, 11, 72, 95
17, 81536, Note_off_c, 11, 45, 0
17, 81536, Note_off_c, 11, 52, 0
17, 81536, Note_off_c, 11, 61, 0
17, 81536, Note_off_c, 11, 65, 0
17, 81536, Note_off_c, 11, 68, 0
17, 81536, Note_off_c, 11, 72, 0
17, 81536, Note_on_c, 11, 38, 94
17, 81536, Note_on_c, 11, 45, 94
17, 81536, Note_on_c, 11, 61, 94
17, 81536, Note_on_c, 11, 65, 94
17, 81536, Note_on_c, 11, 68, 94
17, 81536, Note_on_c, 11, 71, 94
17, 81638, Note_off_c, 11, 38, 0
17, 81638, Note_off_c, 11, 45, 0
17, 81638, Note_off_c, 11, 61, 0
17, 81638, Note_off_c, 11, 65, 0
17, 81638, Note_off_c, 11, 68, 0
17, 81638, Note_off_c, 11, 71, 0
17, 81664, Note_on_c, 11, 38, 94
17, 81664, Note_on_c, 11, 45, 94
17, 81664, Note_on_c, 11, 61, 94
17, 81664, Note_on_c, 11, 65, 94
17, 81664, Note_on_c, 11, 68, 94
17, 81664, Note_on_c, 11, 71, 94
17, 81766, Note_off_c, 11, 38, 0
17, 81766, Note_off_c, 11, 45, 0
17, 81766, Note_off_c, 11, 61, 0
17, 81766, Note_off_c, 11, 65, 0
17, 81766, Note_off_c, 11, 68, 0
17, 81766, Note_off_c, 11, 71, 0
17, 81792, Note_on_c, 11, 38, 94
17, 81792, Note_on_c, 11, 45, 94
17, 81792, Note_on_c, 11, 61, 94
17, 81792, Note_on_c, 11, 65, 94
17, 81792, Note_on_c, 11, 68, 94
17, 81792, Note_on_c, 11, 71, 94
17, 81894, Note_off_c, 11, 38, 0
17, 81894, Note_off_c, 11, 45, 0
17, 81894, Note_off_c, 11, 61, 0
17, 81894, Note_off_c, 11, 65, 0
17, 81894, Note_off_c, 11, 68, 0
17, 81894, Note_off_c, 11, 71, 0
17, 81920, Note_on_c, 11, 61, 101
17, 81920, Note_on_c, 11, 65, 101
17, 81920, Note_on_c, 11, 68, 101
17, 81920, Note_on_c, 11, 71, 101
17, 81920, Note_on_c, 11, 38, 82
17, 81920, Note_on_c, 11, 45, 82
17, 82022, Note_off_c, 11, 61, 0
17, 82022, Note_off_c, 11, 65, 0
17, 82022, Note_off_c, 11, 68, 0
17, 82022, Note_off_c, 11, 71, 0
17, 82022, Note_off_c, 11, 38, 0
17, 82022, Note_off_c, 11, 45, 0
17, 82048, Note_on_c, 11, 61, 101
17, 82048, Note_on_c, 11, 65, 101
17, 82048, Note_on_c, 11, 68, 101
17, 82048, Note_on_c, 11, 71, 101
17, 82048, Note_on_c, 11, 38, 82
17, 82048, Note_on_c, 11, 45, 82
17, 82150, Note_off_c, 11, 61, 0
17, 82150, Note_off_c, 11, 65, 0
17, 82150, Note_off_c, 11, 68, 0
17, 82150, Note_off_c, 11, 71, 0
17, 82150, Note_off_c, 11, 38, 0
17, 82150, Note_off_c, 11, 45, 0
17, 82176, Note_on_c, 11, 61, 101
17, 82176, Note_on_c, 11, 65, 101
17, 82176, Note_on_c, 11, 68, 101
17, 82176, Note_on_c, 11, 71, 101
17, 82176, Note_on_c, 11, 38, 82
17, 82176, Note_on_c, 11, 45, 82
17, 82278, Note_off_c, 11, 61, 0
17, 82278, Note_off_c, 11, 65, 0
17, 82278, Note_off_c, 11, 68, 0
17, 82278, Note_off_c, 11, 71, 0
17, 82278, Note_off_c, 11, 38, 0
17, 82278, Note_off_c, 11, 45, 0
17, 82304, Note_on_c, 11, 61, 101
17, 82304, Note_on_c, 11, 65, 101
17, 82304, Note_on_c, 11, 68, 101
17, 82304, Note_on_c, 11, 71, 101
17, 82304, Note_on_c, 11, 38, 82
17, 82304, Note_on_c, 11, 45, 82
17, 82406, Note_off_c, 11, 61, 0
17, 82406, Note_off_c, 11, 65, 0
17, 82406, Note_off_c, 11, 68, 0
17, 82406, Note_off_c, 11, 71, 0
17, 82406, Note_off_c, 11, 38, 0
17, 82406, Note_off_c, 11, 45, 0
17, 82432, Note_on_c, 11, 61, 94
17, 82432, Note_on_c, 11, 65, 94
17, 82432, Note_on_c, 11, 68, 94
17, 82432, Note_on_c, 11, 71, 94
17, 82432, Note_on_c, 11, 38, 82
17, 82432, Note_on_c, 11, 45, 82
17, 82534, Note_off_c, 11, 61, 0
17, 82534, Note_off_c, 11, 65, 0
17, 82534, Note_off_c, 11, 68, 0
17, 82534, Note_off_c, 11, 71, 0
17, 82534, Note_off_c, 11, 38, 0
17, 82534, Note_off_c, 11, 45, 0
17, 82560, Note_on_c, 11, 61, 94
17, 82560, Note_on_c, 11, 65, 94
17, 82560, Note_on_c, 11, 68, 94
17, 82560, Note_on_c, 11, 71, 94
17, 82560, Note_on_c, 11, 38, 82
17, 82560, Note_on_c, 11, 45, 82
17, 82662, Note_off_c, 11, 61, 0
17, 82662, Note_off_c, 11, 65, 0
17, 82662, Note_off_c, 11, 68, 0
17, 82662, Note_off_c, 11, 71, 0
17, 82662, Note_off_c, 11, 38, 0
17, 82662, Note_off_c, 11, 45, 0
17, 82688, Note_on_c, 11, 59, 97
17, 82688, Note_on_c, 11, 61, 97
17, 82688, Note_on_c, 11, 65, 97
17, 82688, Note_on_c, 11, 68, 97
17, 82688, Note_on_c, 11, 71, 97
17, 82688, Note_on_c, 11, 43, 100
17, 82688, Note_on_c, 11, 50, 100
17, 82790, Note_off_c, 11, 59, 0
17, 82790, Note_off_c, 11, 61, 0
17, 82790, Note_off_c, 11, 65, 0
17, 82790, Note_off_c, 11, 68, 0
17, 82790, Note_off_c, 11, 71, 0
17, 82790, Note_off_c, 11, 43, 0
17, 82790, Note_off_c, 11, 50, 0
17, 82816, Note_on_c, 11, 59, 97
17, 82816, Note_on_c, 11, 61, 97
17, 82816, Note_on_c, 11, 65, 97
17, 82816, Note_on_c, 11, 68, 97
17, 82816, Note_on_c, 11, 71, 97
17, 82816, Note_on_c, 11, 43, 100
17, 82816, Note_on_c, 11, 50, 100
17, 82918, Note_off_c, 11, 59, 0
17, 82918, Note_off_c, 11, 61, 0
17, 82918, Note_off_c, 11, 65, 0
17, 82918, Note_off_c, 11, 68, 0
17, 82918, Note_off_c, 11, 71, 0
17, 82918, Note_off_c, 11, 43, 0
17, 82918, Note_off_c, 11, 50, 0
17, 82944, Note_on_c, 11, 59, 100
17, 82944, Note_on_c, 11, 61, 100
17, 82944, Note_on_c, 11, 65, 100
17, 82944, Note_on_c, 11, 68, 100
17, 82944, Note_on_c, 11, 71, 100
17, 82944, Note_on_c, 11, 43, 101
17, 82944, Note_on_c, 11, 50, 101
17, 83046, Note_off_c, 11, 59, 0
17, 83046, Note_off_c, 11, 61, 0
17, 83046, Note_off_c, 11, 65, 0
17, 83046, Note_off_c, 11, 68, 0
17, 83046, Note_off_c, 11, 71, 0
17, 83046, Note_off_c, 11, 43, 0
17, 83046, Note_off_c, 11, 50, 0
17, 83072, Note_on_c, 11, 59, 100
17, 83072, Note_on_c, 11, 61, 100
17, 83072, Note_on_c, 11, 65, 100
17, 83072, Note_on_c, 11, 68, 100
17, 83072, Note_on_c, 11, 71, 100
17, 83072, Note_on_c, 11, 43, 101
17, 83072, Note_on_c, 11, 50, 101
17, 83174, Note_off_c, 11, 59, 0
17, 83174, Note_off_c, 11, 61, 0
17, 83174, Note_off_c, 11, 65, 0
17, 83174, Note_off_c, 11, 68, 0
17, 83174, Note_off_c, 11, 71, 0
17, 83174, Note_off_c, 11, 43, 0
17, 83174, Note_off_c, 11, 50, 0
17, 83200, Note_on_c, 11, 59, 100
17, 83200, Note_on_c, 11, 61, 100
17, 83200, Note_on_c, 11, 65, 100
17, 83200, Note_on_c, 11, 68, 100
17, 83200, Note_on_c, 11, 71, 100
17, 83200, Note_on_c, 11, 43, 101
17, 83200, Note_on_c, 11, 50, 101
17, 83302, Note_off_c, 11, 59, 0
17, 83302, Note_off_c, 11, 61, 0
17, 83302, Note_off_c, 11, 65, 0
17, 83302, Note_off_c, 11, 68, 0
17, 83302, Note_off_c, 11, 71, 0
17, 83302, Note_off_c, 11, 43, 0
17, 83302, Note_off_c, 11, 50, 0
17, 83328, Note_on_c, 11, 59, 100
17, 83328, Note_on_c, 11, 61, 100
17, 83328, Note_on_c, 11, 65, 100
17, 83328, Note_on_c, 11, 68, 100
17, 83328, Note_on_c, 11, 71, 100
17, 83328, Note_on_c, 11, 43, 101
17, 83328, Note_on_c, 11, 50, 101
17, 83430, Note_off_c, 11, 59, 0
17, 83430, Note_off_c, 11, 61, 0
17, 83430, Note_off_c, 11, 65, 0
17, 83430, Note_off_c, 11, 68, 0
17, 83430, Note_off_c, 11, 71, 0
17, 83430, Note_off_c, 11, 43, 0
17, 83430, Note_off_c, 11, 50, 0
17, 83456, Note_on_c, 11, 59, 95
17, 83456, Note_on_c, 11, 61, 95
17, 83456, Note_on_c, 11, 65, 95
17, 83456, Note_on_c, 11, 68, 95
17, 83456, Note_on_c, 11, 71, 95
17, 83456, Note_on_c, 11, 43, 99
17, 83456, Note_on_c, 11, 50, 99
17, 83558, Note_off_c, 11, 59, 0
17, 83558, Note_off_c, 11, 61, 0
17, 83558, Note_off_c, 11, 65, 0
17, 83558, Note_off_c, 11, 68, 0
17, 83558, Note_off_c, 11, 71, 0
17, 83558, Note_off_c, 11, 43, 0
17, 83558, Note_off_c, 11, 50, 0
17, 83584, Note_on_c, 11, 59, 95
17, 83584, Note_on_c, 11, 61, 95
17, 83584, Note_on_c, 11, 65, 95
17, 83584, Note_on_c, 11, 68, 95
17, 83584, Note_on_c, 11, 71, 95
17, 83584, Note_on_c, 11, 43, 99
17, 83584, Note_on_c, 11, 50, 99
17, 83686, Note_off_c, 11, 59, 0
17, 83686, Note_off_c, 11, 61, 0
17, 83686, Note_off_c, 11, 65, 0
17, 83686, Note_off_c, 11, 68, 0
17, 83686, Note_off_c, 11, 71, 0
17, 83686, Note_off_c, 11, 43, 0
17, 83686, Note_off_c, 11, 50, 0
17, 83712, Note_on_c, 11, 59, 95
17, 83712, Note_on_c, 11, 61, 95
17, 83712, Note_on_c, 11, 65, 95
17, 83712, Note_on_c, 11, 68, 95
17, 83712, Note_on_c, 11, 71, 95
17, 83712, Note_on_c, 11, 43, 99
17, 83712, Note_on_c, 11, 50, 99
17, 83814, Note_off_c, 11, 59, 0
17, 83814, Note_off_c, 11, 61, 0
17, 83814, Note_off_c, 11, 65, 0
17, 83814, Note_off_c, 11, 68, 0
17, 83814, Note_off_c, 11, 71, 0
17, 83814, Note_off_c, 11, 43, 0
17, 83814, Note_off_c, 11, 50, 0
17, 83840, Note_on_c, 11, 59, 95
17, 83840, Note_on_c, 11, 61, 95
17, 83840, Note_on_c, 11, 65, 95
17, 83840, Note_on_c, 11, 68, 95
17, 83840, Note_on_c, 11, 71, 95
17, 83840, Note_on_c, 11, 43, 99
17, 83840, Note_on_c, 11, 50, 99
17, 83942, Note_off_c, 11, 59, 0
17, 83942, Note_off_c, 11, 61, 0
17, 83942, Note_off_c, 11, 65, 0
17, 83942, Note_off_c, 11, 68, 0
17, 83942, Note_off_c, 11, 71, 0
17, 83942, Note_off_c, 11, 43, 0
17, 83942, Note_off_c, 11, 50, 0
17, 83968, Note_on_c, 11, 59, 94
17, 83968, Note_on_c, 11, 61, 94
17, 83968, Note_on_c, 11, 65, 94
17, 83968, Note_on_c, 11, 68, 94
17, 83968, Note_on_c, 11, 71, 94
17, 83968, Note_on_c, 11, 43, 96
17, 83968, Note_on_c, 11, 50, 96
17, 84070, Note_off_c, 11, 59, 0
17, 84070, Note_off_c, 11, 61, 0
17, 84070, Note_off_c, 11, 65, 0
17, 84070, Note_off_c, 11, 68, 0
17, 84070, Note_off_c, 11, 71, 0
17, 84070, Note_off_c, 11, 43, 0
17, 84070, Note_off_c, 11, 50, 0
17, 84096, Note_on_c, 11, 59, 94
17, 84096, Note_on_c, 11, 61, 94
17, 84096, Note_on_c, 11, 65, 94
17, 84096, Note_on_c, 11, 68, 94
17, 84096, Note_on_c, 11, 71, 94
17, 84096, Note_on_c, 11, 43, 96
17, 84096, Note_on_c, 11, 50, 96
17, 84198, Note_off_c, 11, 59, 0
17, 84198, Note_off_c, 11, 61, 0
17, 84198, Note_off_c, 11, 65, 0
17, 84198, Note_off_c, 11, 68, 0
17, 84198, Note_off_c, 11, 71, 0
17, 84198, Note_off_c, 11, 43, 0
17, 84198, Note_off_c, 11, 50, 0
17, 84224, Note_on_c, 11, 59, 94
17, 84224, Note_on_c, 11, 61, 94
17, 84224, Note_on_c, 11, 65, 94
17, 84224, Note_on_c, 11, 68, 94
17, 84224, Note_on_c, 11, 71, 94
17, 84224, Note_on_c, 11, 48, 106
17, 84224, Note_on_c, 11, 58, 106
17, 84326, Note_off_c, 11, 59, 0
17, 84326, Note_off_c, 11, 61, 0
17, 84326, Note_off_c, 11, 65, 0
17, 84326, Note_off_c, 11, 68, 0
17, 84326, Note_off_c, 11, 71, 0
17, 84326, Note_off_c, 11, 48, 0
17, 84326, Note_off_c, 11, 58, 0
17, 84352, Note_on_c, 11, 59, 94
17, 84352, Note_on_c, 11, 61, 94
17, 84352, Note_on_c, 11, 65, 94
17, 84352, Note_on_c, 11, 68, 94
17, 84352, Note_on_c, 11, 71, 94
17, 84352, Note_on_c, 11, 48, 106
17, 84352, Note_on_c, 11, 58, 106
17, 84454, Note_off_c, 11, 59, 0
17, 84454, Note_off_c, 11, 61, 0
17, 84454, Note_off_c, 11, 65, 0
17, 84454, Note_off_c, 11, 68, 0
17, 84454, Note_off_c, 11, 71, 0
17, 84454, Note_off_c, 11, 48, 0
17, 84454, Note_off_c, 11, 58, 0
17, 84480, Note_on_c, 11, 59, 101
17, 84480, Note_on_c, 11, 61, 101
17, 84480, Note_on_c, 11, 65, 101
17, 84480, Note_on_c, 11, 68, 101
17, 84480, Note_on_c, 11, 71, 101
17, 84480, Note_on_c, 11, 48, 106
17, 84480, Note_on_c, 11, 58, 106
17, 84582, Note_off_c, 11, 59, 0
17, 84582, Note_off_c, 11, 61, 0
17, 84582, Note_off_c, 11, 65, 0
17, 84582, Note_off_c, 11, 68, 0
17, 84582, Note_off_c, 11, 71, 0
17, 84582, Note_off_c, 11, 48, 0
17, 84582, Note_off_c, 11, 58, 0
17, 84608, Note_on_c, 11, 59, 101
17, 84608, Note_on_c, 11, 61, 101
17, 84608, Note_on_c, 11, 65, 101
17, 84608, Note_on_c, 11, 68, 101
17, 84608, Note_on_c, 11, 71, 101
17, 84608, Note_on_c, 11, 48, 106
17, 84608, Note_on_c, 11, 58, 106
17, 84710, Note_off_c, 11, 59, 0
17, 84710, Note_off_c, 11, 61, 0
17, 84710, Note_off_c, 11, 65, 0
17, 84710, Note_off_c, 11, 68, 0
17, 84710, Note_off_c, 11, 71, 0
17, 84710, Note_off_c, 11, 48, 0
17, 84710, Note_off_c, 11, 58, 0
17, 84736, Note_on_c, 11, 59, 101
17, 84736, Note_on_c, 11, 61, 101
17, 84736, Note_on_c, 11, 65, 101
17, 84736, Note_on_c, 11, 68, 101
17, 84736, Note_on_c, 11, 71, 101
17, 84736, Note_on_c, 11, 48, 106
17, 84736, Note_on_c, 11, 58, 106
17, 84838, Note_off_c, 11, 59, 0
17, 84838, Note_off_c, 11, 61, 0
17, 84838, Note_off_c, 11, 65, 0
17, 84838, Note_off_c, 11, 68, 0
17, 84838, Note_off_c, 11, 71, 0
17, 84838, Note_off_c, 11, 48, 0
17, 84838, Note_off_c, 11, 58, 0
17, 84864, Note_on_c, 11, 59, 101
17, 84864, Note_on_c, 11, 61, 101
17, 84864, Note_on_c, 11, 65, 101
17, 84864, Note_on_c, 11, 68, 101
17, 84864, Note_on_c, 11, 71, 101
17, 84864, Note_on_c, 11, 48, 106
17, 84864, Note_on_c, 11, 58, 106
17, 84966, Note_off_c, 11, 59, 0
17, 84966, Note_off_c, 11, 61, 0
17, 84966, Note_off_c, 11, 65, 0
17, 84966, Note_off_c, 11, 68, 0
17, 84966, Note_off_c, 11, 71, 0
17, 84966, Note_off_c, 11, 48, 0
17, 84966, Note_off_c, 11, 58, 0
17, 84992, Note_on_c, 11, 59, 98
17, 84992, Note_on_c, 11, 61, 98
17, 84992, Note_on_c, 11, 65, 98
17, 84992, Note_on_c, 11, 68, 98
17, 84992, Note_on_c, 11, 71, 98
17, 84992, Note_on_c, 11, 48, 102
17, 84992, Note_on_c, 11, 58, 102
17, 85094, Note_off_c, 11, 59, 0
17, 85094, Note_off_c, 11, 61, 0
17, 85094, Note_off_c, 11, 65, 0
17, 85094, Note_off_c, 11, 68, 0
17, 85094, Note_off_c, 11, 71, 0
17, 85094, Note_off_c, 11, 48, 0
17, 85094, Note_off_c, 11, 58, 0
17, 85120, Note_on_c, 11, 59, 98
17, 85120, Note_on_c, 11, 61, 98
17, 85120, Note_on_c, 11, 65, 98
17, 85120, Note_on_c, 11, 68, 98
17, 85120, Note_on_c, 11, 71, 98
17, 85120, Note_on_c, 11, 48, 102
17, 85120, Note_on_c, 11, 58, 102
17, 85222, Note_off_c, 11, 59, 0
17, 85222, Note_off_c, 11, 61, 0
17, 85222, Note_off_c, 11, 65, 0
17, 85222, Note_off_c, 11, 68, 0
17, 85222, Note_off_c, 11, 71, 0
17, 85222, Note_off_c, 11, 48, 0
17, 85222, Note_off_c, 11, 58, 0
17, 85248, Note_on_c, 11, 59, 98
17, 85248, Note_on_c, 11, 61, 98
17, 85248, Note_on_c, 11, 65, 98
17, 85248, Note_on_c, 11, 68, 98
17, 85248, Note_on_c, 11, 71, 98
17, 85248, Note_on_c, 11, 48, 102
17, 85248, Note_on_c, 11, 58, 102
17, 85350, Note_off_c, 11, 59, 0
17, 85350, Note_off_c, 11, 61, 0
17, 85350, Note_off_c, 11, 65, 0
17, 85350, Note_off_c, 11, 68, 0
17, 85350, Note_off_c, 11, 71, 0
17, 85350, Note_off_c, 11, 48, 0
17, 85350, Note_off_c, 11, 58, 0
17, 85376, Note_on_c, 11, 59, 98
17, 85376, Note_on_c, 11, 61, 98
17, 85376, Note_on_c, 11, 65, 98
17, 85376, Note_on_c, 11, 68, 98
17, 85376, Note_on_c, 11, 71, 98
17, 85376, Note_on_c, 11, 48, 102
17, 85376, Note_on_c, 11, 58, 102
17, 85478, Note_off_c, 11, 59, 0
17, 85478, Note_off_c, 11, 61, 0
17, 85478, Note_off_c, 11, 65, 0
17, 85478, Note_off_c, 11, 68, 0
17, 85478, Note_off_c, 11, 71, 0
17, 85478, Note_off_c, 11, 48, 0
17, 85478, Note_off_c, 11, 58, 0
17, 85504, Note_on_c, 11, 62, 105
17, 85504, Note_on_c, 11, 66, 105
17, 85504, Note_on_c, 11, 69, 105
17, 85504, Note_on_c, 11, 72, 105
17, 85504, Note_on_c, 11, 48, 97
17, 85504, Note_on_c, 11, 58, 97
17, 85606, Note_off_c, 11, 62, 0
17, 85606, Note_off_c, 11, 66, 0
17, 85606, Note_off_c, 11, 69, 0
17, 85606, Note_off_c, 11, 72, 0
17, 85606, Note_off_c, 11, 48, 0
17, 85606, Note_off_c, 11, 58, 0
17, 85632, Note_on_c, 11, 62, 105
17, 85632, Note_on_c, 11, 66, 105
17, 85632, Note_on_c, 11, 69, 105
17, 85632, Note_on_c, 11, 72, 105
17, 85632, Note_on_c, 11, 48, 97
17, 85632, Note_on_c, 11, 58, 97
17, 85734, Note_off_c, 11, 62, 0
17, 85734, Note_off_c, 11, 66, 0
17, 85734, Note_off_c, 11, 69, 0
17, 85734, Note_off_c, 11, 72, 0
17, 85734, Note_off_c, 11, 48, 0
17, 85734, Note_off_c, 11, 58, 0
17, 85760, Note_on_c, 11, 62, 105
17, 85760, Note_on_c, 11, 66, 105
17, 85760, Note_on_c, 11, 69, 105
17, 85760, Note_on_c, 11, 72, 105
17, 85760, Note_on_c, 11, 48, 97
17, 85760, Note_on_c, 11, 58, 97
17, 85862, Note_off_c, 11, 62, 0
17, 85862, Note_off_c, 11, 66, 0
17, 85862, Note_off_c, 11, 69, 0
17, 85862, Note_off_c, 11, 72, 0
17, 85862, Note_off_c, 11, 48, 0
17, 85862, Note_off_c, 11, 58, 0
17, 85888, Note_on_c, 11, 62, 105
17, 85888, Note_on_c, 11, 66, 105
17, 85888, Note_on_c, 11, 69, 105
17, 85888, Note_on_c, 11, 72, 105
17, 85888, Note_on_c, 11, 48, 97
17, 85888, Note_on_c, 11, 58, 97
17, 85990, Note_off_c, 11, 62, 0
17, 85990, Note_off_c, 11, 66, 0
17, 85990, Note_off_c, 11, 69, 0
17, 85990, Note_off_c, 11, 72, 0
17, 85990, Note_off_c, 11, 48, 0
17, 85990, Note_off_c, 11, 58, 0
17, 86016, Note_on_c, 11, 62, 100
17, 86016, Note_on_c, 11, 66, 100
17, 86016, Note_on_c, 11, 69, 100
17, 86016, Note_on_c, 11, 72, 100
17, 86016, Note_on_c, 11, 48, 97
17, 86016, Note_on_c, 11, 58, 97
17, 86118, Note_off_c, 11, 62, 0
17, 86118, Note_off_c, 11, 66, 0
17, 86118, Note_off_c, 11, 69, 0
17, 86118, Note_off_c, 11, 72, 0
17, 86118, Note_off_c, 11, 48, 0
17, 86118, Note_off_c, 11, 58, 0
17, 86144, Note_on_c, 11, 62, 100
17, 86144, Note_on_c, 11, 66, 100
17, 86144, Note_on_c, 11, 69, 100
17, 86144, Note_on_c, 11, 72, 100
17, 86144, Note_on_c, 11, 48, 97
17, 86144, Note_on_c, 11, 58, 97
17, 86246, Note_off_c, 11, 62, 0
17, 86246, Note_off_c, 11, 66, 0
17, 86246, Note_off_c, 11, 69, 0
17, 86246, Note_off_c, 11, 72, 0
17, 86246, Note_off_c, 11, 48, 0
17, 86246, Note_off_c, 11, 58, 0
17, 86272, Note_on_c, 11, 62, 100
17, 86272, Note_on_c, 11, 66, 100
17, 86272, Note_on_c, 11, 69, 100
17, 86272, Note_on_c, 11, 72, 100
17, 86272, Note_on_c, 11, 48, 97
17, 86272, Note_on_c, 11, 58, 97
17, 86374, Note_off_c, 11, 62, 0
17, 86374, Note_off_c, 11, 66, 0
17, 86374, Note_off_c, 11, 69, 0
17, 86374, Note_off_c, 11, 72, 0
17, 86374, Note_off_c, 11, 48, 0
17, 86374, Note_off_c, 11, 58, 0
17, 86400, Note_on_c, 11, 62, 100
17, 86400, Note_on_c, 11, 66, 100
17, 86400, Note_on_c, 11, 69, 100
17, 86400, Note_on_c, 11, 72, 100
17, 86400, Note_on_c, 11, 48, 97
17, 86400, Note_on_c, 11, 58, 97
17, 86502, Note_off_c, 11, 62, 0
17, 86502, Note_off_c, 11, 66, 0
17, 86502, Note_off_c, 11, 69, 0
17, 86502, Note_off_c, 11, 72, 0
17, 86502, Note_off_c, 11, 48, 0
17, 86502, Note_off_c, 11, 58, 0
17, 86528, Note_on_c, 11, 62, 91
17, 86528, Note_on_c, 11, 66, 91
17, 86528, Note_on_c, 11, 69, 91
17, 86528, Note_on_c, 11, 72, 91
17, 86528, Note_on_c, 11, 48, 98
17, 86528, Note_on_c, 11, 58, 98
17, 86630, Note_off_c, 11, 48, 0
17, 86630, Note_off_c, 11, 58, 0
17, 86656, Note_off_c, 11, 62, 0
17, 86656, Note_off_c, 11, 66, 0
17, 86656, Note_off_c, 11, 69, 0
17, 86656, Note_off_c, 11, 72, 0
17, 86656, Note_on_c, 11, 61, 94
17, 86656, Note_on_c, 11, 65, 94
17, 86656, Note_on_c, 11, 68, 94
17, 86656, Note_on_c, 11, 71, 94
17, 86656, Note_on_c, 11, 48, 98
17, 86656, Note_on_c, 11, 58, 98
17, 86758, Note_off_c, 11, 48, 0
17, 86758, Note_off_c, 11, 58, 0
17, 86784, Note_on_c, 11, 48, 98
17, 86784, Note_on_c, 11, 58, 98
17, 86886, Note_off_c, 11, 48, 0
17, 86886, Note_off_c, 11, 58, 0
17, 86912, Note_on_c, 11, 48, 98
17, 86912, Note_on_c, 11, 58, 98
17, 87014, Note_off_c, 11, 48, 0
17, 87014, Note_off_c, 11, 58, 0
17, 87040, Note_off_c, 11, 61, 0
17, 87040, Note_off_c, 11, 65, 0
17, 87040, Note_off_c, 11, 68, 0
17, 87040, Note_off_c, 11, 71, 0
17, 87040, Note_on_c, 11, 61, 96
17, 87040, Note_on_c, 11, 65, 96
17, 87040, Note_on_c, 11, 68, 96
17, 87040, Note_on_c, 11, 71, 96
17, 87040, Note_on_c, 11, 48, 98
17, 87040, Note_on_c, 11, 58, 98
17, 87142, Note_off_c, 11, 61, 0
17, 87142, Note_off_c, 11, 65, 0
17, 87142, Note_off_c, 11, 68, 0
17, 87142, Note_off_c, 11, 71, 0
17, 87142, Note_off_c, 11, 48, 0
17, 87142, Note_off_c, 11, 58, 0
17, 87168, Note_on_c, 11, 61, 96
17, 87168, Note_on_c, 11, 65, 96
17, 87168, Note_on_c, 11, 68, 96
17, 87168, Note_on_c, 11, 71, 96
17, 87168, Note_on_c, 11, 48, 98
17, 87168, Note_on_c, 11, 58, 98
17, 87270, Note_off_c, 11, 61, 0
17, 87270, Note_off_c, 11, 65, 0
17, 87270, Note_off_c, 11, 68, 0
17, 87270, Note_off_c, 11, 71, 0
17, 87270, Note_off_c, 11, 48, 0
17, 87270, Note_off_c, 11, 58, 0
17, 87296, Note_on_c, 11, 61, 96
17, 87296, Note_on_c, 11, 65, 96
17, 87296, Note_on_c, 11, 68, 96
17, 87296, Note_on_c, 11, 71, 96
17, 87296, Note_on_c, 11, 48, 98
17, 87296, Note_on_c, 11, 58, 98
17, 87398, Note_off_c, 11, 61, 0
17, 87398, Note_off_c, 11, 65, 0
17, 87398, Note_off_c, 11, 68, 0
17, 87398, Note_off_c, 11, 71, 0
17, 87398, Note_off_c, 11, 48, 0
17, 87398, Note_off_c, 11, 58, 0
17, 87424, Note_on_c, 11, 61, 96
17, 87424, Note_on_c, 11, 65, 96
17, 87424, Note_on_c, 11, 68, 96
17, 87424, Note_on_c, 11, 71, 96
17, 87424, Note_on_c, 11, 48, 98
17, 87424, Note_on_c, 11, 58, 98
17, 87526, Note_off_c, 11, 61, 0
17, 87526, Note_off_c, 11, 65, 0
17, 87526, Note_off_c, 11, 68, 0
17, 87526, Note_off_c, 11, 71, 0
17, 87526, Note_off_c, 11, 48, 0
17, 87526, Note_off_c, 11, 58, 0
17, 87552, Note_on_c, 11, 62, 101
17, 87552, Note_on_c, 11, 66, 101
17, 87552, Note_on_c, 11, 69, 101
17, 87552, Note_on_c, 11, 72, 101
17, 87552, Note_on_c, 11, 48, 102
17, 87552, Note_on_c, 11, 58, 102
17, 87654, Note_off_c, 11, 62, 0
17, 87654, Note_off_c, 11, 66, 0
17, 87654, Note_off_c, 11, 69, 0
17, 87654, Note_off_c, 11, 72, 0
17, 87654, Note_off_c, 11, 48, 0
17, 87654, Note_off_c, 11, 58, 0
17, 87680, Note_on_c, 11, 62, 101
17, 87680, Note_on_c, 11, 66, 101
17, 87680, Note_on_c, 11, 69, 101
17, 87680, Note_on_c, 11, 72, 101
17, 87680, Note_on_c, 11, 48, 102
17, 87680, Note_on_c, 11, 58, 102
17, 87782, Note_off_c, 11, 62, 0
17, 87782, Note_off_c, 11, 66, 0
17, 87782, Note_off_c, 11, 69, 0
17, 87782, Note_off_c, 11, 72, 0
17, 87782, Note_off_c, 11, 48, 0
17, 87782, Note_off_c, 11, 58, 0
17, 87808, Note_on_c, 11, 62, 101
17, 87808, Note_on_c, 11, 66, 101
17, 87808, Note_on_c, 11, 69, 101
17, 87808, Note_on_c, 11, 72, 101
17, 87808, Note_on_c, 11, 48, 102
17, 87808, Note_on_c, 11, 58, 102
17, 87910, Note_off_c, 11, 62, 0
17, 87910, Note_off_c, 11, 66, 0
17, 87910, Note_off_c, 11, 69, 0
17, 87910, Note_off_c, 11, 72, 0
17, 87910, Note_off_c, 11, 48, 0
17, 87910, Note_off_c, 11, 58, 0
17, 87936, Note_on_c, 11, 62, 101
17, 87936, Note_on_c, 11, 66, 101
17, 87936, Note_on_c, 11, 69, 101
17, 87936, Note_on_c, 11, 72, 101
17, 87936, Note_on_c, 11, 48, 102
17, 87936, Note_on_c, 11, 58, 102
17, 88038, Note_off_c, 11, 62, 0
17, 88038, Note_off_c, 11, 66, 0
17, 88038, Note_off_c, 11, 69, 0
17, 88038, Note_off_c, 11, 72, 0
17, 88038, Note_off_c, 11, 48, 0
17, 88038, Note_off_c, 11, 58, 0
17, 88064, Note_on_c, 11, 48, 119
17, 88064, Note_on_c, 11, 58, 119
17, 88064, Note_on_c, 11, 63, 119
17, 88064, Note_on_c, 11, 65, 119
17, 88064, Note_on_c, 11, 69, 119
17, 88166, Note_off_c, 11, 48, 0
17, 88166, Note_off_c, 11, 58, 0
17, 88166, Note_off_c, 11, 63, 0
17, 88166, Note_off_c, 11, 65, 0
17, 88166, Note_off_c, 11, 69, 0
17, 88192, Note_on_c, 11, 48, 119
17, 88192, Note_on_c, 11, 58, 119
17, 88192, Note_on_c, 11, 63, 119
17, 88192, Note_on_c, 11, 65, 119
17, 88192, Note_on_c, 11, 69, 119
17, 88294, Note_off_c, 11, 48, 0
17, 88294, Note_off_c, 11, 58, 0
17, 88294, Note_off_c, 11, 63, 0
17, 88294, Note_off_c, 11, 65, 0
17, 88294, Note_off_c, 11, 69, 0
17, 88320, Note_on_c, 11, 48, 119
17, 88320, Note_on_c, 11, 58, 119
17, 88320, Note_on_c, 11, 63, 119
17, 88320, Note_on_c, 11, 65, 119
17, 88320, Note_on_c, 11, 69, 119
17, 88422, Note_off_c, 11, 48, 0
17, 88422, Note_off_c, 11, 58, 0
17, 88422, Note_off_c, 11, 63, 0
17, 88422, Note_off_c, 11, 65, 0
17, 88422, Note_off_c, 11, 69, 0
17, 88448, Note_on_c, 11, 45, 105
17, 88448, Note_on_c, 11, 52, 105
17, 88448, Note_on_c, 11, 59, 105
17, 88448, Note_on_c, 11, 64, 105
17, 88448, Note_on_c, 11, 65, 105
17, 88448, Note_on_c, 11, 68, 105
17, 88448, Note_on_c, 11, 71, 105
17, 88576, Note_off_c, 11, 45, 0
17, 88576, Note_off_c, 11, 52, 0
17, 88576, Note_off_c, 11, 59, 0
17, 88576, Note_off_c, 11, 64, 0
17, 88576, Note_off_c, 11, 65, 0
17, 88576, Note_off_c, 11, 68, 0
17, 88576, Note_off_c, 11, 71, 0
17, 88576, Note_on_c, 11, 45, 104
17, 88576, Note_on_c, 11, 52, 104
17, 88576, Note_on_c, 11, 59, 104
17, 88576, Note_on_c, 11, 64, 104
17, 88576, Note_on_c, 11, 65, 104
17, 88576, Note_on_c, 11, 68, 104
17, 88576, Note_on_c, 11, 71, 104
17, 88678, Note_off_c, 11, 45, 0
17, 88678, Note_off_c, 11, 52, 0
17, 88678, Note_off_c, 11, 59, 0
17, 88678, Note_off_c, 11, 64, 0
17, 88678, Note_off_c, 11, 65, 0
17, 88678, Note_off_c, 11, 68, 0
17, 88678, Note_off_c, 11, 71, 0
17, 88704, Note_on_c, 11, 45, 104
17, 88704, Note_on_c, 11, 52, 104
17, 88704, Note_on_c, 11, 59, 104
17, 88704, Note_on_c, 11, 64, 104
17, 88704, Note_on_c, 11, 65, 104
17, 88704, Note_on_c, 11, 68, 104
17, 88704, Note_on_c, 11, 71, 104
17, 88806, Note_off_c, 11, 45, 0
17, 88806, Note_off_c, 11, 52, 0
17, 88806, Note_off_c, 11, 59, 0
17, 88806, Note_off_c, 11, 64, 0
17, 88806, Note_off_c, 11, 65, 0
17, 88806, Note_off_c, 11, 68, 0
17, 88806, Note_off_c, 11, 71, 0
17, 88832, Note_on_c, 11, 45, 104
17, 88832, Note_on_c, 11, 52, 104
17, 88832, Note_on_c, 11, 59, 104
17, 88832, Note_on_c, 11, 64, 104
17, 88832, Note_on_c, 11, 65, 104
17, 88832, Note_on_c, 11, 68, 104
17, 88832, Note_on_c, 11, 71, 104
17, 88934, Note_off_c, 11, 45, 0
17, 88934, Note_off_c, 11, 52, 0
17, 88934, Note_off_c, 11, 59, 0
17, 88934, Note_off_c, 11, 64, 0
17, 88934, Note_off_c, 11, 65, 0
17, 88934, Note_off_c, 11, 68, 0
17, 88934, Note_off_c, 11, 71, 0
17, 88960, Note_on_c, 11, 45, 104
17, 88960, Note_on_c, 11, 52, 104
17, 88960, Note_on_c, 11, 59, 104
17, 88960, Note_on_c, 11, 64, 104
17, 88960, Note_on_c, 11, 65, 104
17, 88960, Note_on_c, 11, 68, 104
17, 88960, Note_on_c, 11, 71, 104
17, 89062, Note_off_c, 11, 45, 0
17, 89062, Note_off_c, 11, 52, 0
17, 89062, Note_off_c, 11, 59, 0
17, 89062, Note_off_c, 11, 64, 0
17, 89062, Note_off_c, 11, 65, 0
17, 89062, Note_off_c, 11, 68, 0
17, 89062, Note_off_c, 11, 71, 0
17, 89088, Note_on_c, 11, 45, 96
17, 89088, Note_on_c, 11, 52, 96
17, 89088, Note_on_c, 11, 59, 96
17, 89088, Note_on_c, 11, 64, 96
17, 89088, Note_on_c, 11, 65, 96
17, 89088, Note_on_c, 11, 68, 96
17, 89088, Note_on_c, 11, 71, 96
17, 89216, Note_off_c, 11, 45, 0
17, 89216, Note_off_c, 11, 52, 0
17, 89216, Note_off_c, 11, 59, 0
17, 89216, Note_off_c, 11, 64, 0
17, 89216, Note_off_c, 11, 65, 0
17, 89216, Note_off_c, 11, 68, 0
17, 89216, Note_off_c, 11, 71, 0
17, 89216, Note_on_c, 11, 39, 113
17, 89216, Note_on_c, 11, 46, 113
17, 89216, Note_on_c, 11, 65, 113
17, 89216, Note_on_c, 11, 71, 113
17, 89216, Note_on_c, 11, 70, 113
17, 89216, Note_on_c, 11, 74, 113
17, 89216, Note_on_c, 11, 77, 113
17, 89318, Note_off_c, 11, 39, 0
17, 89318, Note_off_c, 11, 46, 0
17, 89318, Note_off_c, 11, 65, 0
17, 89318, Note_off_c, 11, 71, 0
17, 89318, Note_off_c, 11, 70, 0
17, 89318, Note_off_c, 11, 74, 0
17, 89318, Note_off_c, 11, 77, 0
17, 89344, Note_on_c, 11, 39, 113
17, 89344, Note_on_c, 11, 46, 113
17, 89344, Note_on_c, 11, 65, 113
17, 89344, Note_on_c, 11, 71, 113
17, 89344, Note_on_c, 11, 70, 113
17, 89344, Note_on_c, 11, 74, 113
17, 89344, Note_on_c, 11, 77, 113
17, 89446, Note_off_c, 11, 39, 0
17, 89446, Note_off_c, 11, 46, 0
17, 89446, Note_off_c, 11, 65, 0
17, 89446, Note_off_c, 11, 71, 0
17, 89446, Note_off_c, 11, 70, 0
17, 89446, Note_off_c, 11, 74, 0
17, 89446, Note_off_c, 11, 77, 0
17, 89472, Note_on_c, 11, 39, 113
17, 89472, Note_on_c, 11, 46, 113
17, 89472, Note_on_c, 11, 65, 113
17, 89472, Note_on_c, 11, 71, 113
17, 89472, Note_on_c, 11, 70, 113
17, 89472, Note_on_c, 11, 74, 113
17, 89472, Note_on_c, 11, 77, 113
17, 89574, Note_off_c, 11, 39, 0
17, 89574, Note_off_c, 11, 46, 0
17, 89574, Note_off_c, 11, 65, 0
17, 89574, Note_off_c, 11, 71, 0
17, 89574, Note_off_c, 11, 70, 0
17, 89574, Note_off_c, 11, 74, 0
17, 89574, Note_off_c, 11, 77, 0
17, 89600, Note_on_c, 11, 39, 103
17, 89600, Note_on_c, 11, 46, 103
17, 89600, Note_on_c, 11, 65, 103
17, 89600, Note_on_c, 11, 71, 103
17, 89600, Note_on_c, 11, 70, 103
17, 89600, Note_on_c, 11, 74, 103
17, 89600, Note_on_c, 11, 77, 103
17, 89702, Note_off_c, 11, 39, 0
17, 89702, Note_off_c, 11, 46, 0
17, 89702, Note_off_c, 11, 65, 0
17, 89702, Note_off_c, 11, 71, 0
17, 89702, Note_off_c, 11, 70, 0
17, 89702, Note_off_c, 11, 74, 0
17, 89702, Note_off_c, 11, 77, 0
17, 89728, Note_on_c, 11, 39, 103
17, 89728, Note_on_c, 11, 46, 103
17, 89728, Note_on_c, 11, 65, 103
17, 89728, Note_on_c, 11, 71, 103
17, 89728, Note_on_c, 11, 70, 103
17, 89728, Note_on_c, 11, 74, 103
17, 89728, Note_on_c, 11, 77, 103
17, 89830, Note_off_c, 11, 39, 0
17, 89830, Note_off_c, 11, 46, 0
17, 89830, Note_off_c, 11, 65, 0
17, 89830, Note_off_c, 11, 71, 0
17, 89830, Note_off_c, 11, 70, 0
17, 89830, Note_off_c, 11, 74, 0
17, 89830, Note_off_c, 11, 77, 0
17, 89856, Note_on_c, 11, 39, 103
17, 89856, Note_on_c, 11, 46, 103
17, 89856, Note_on_c, 11, 65, 103
17, 89856, Note_on_c, 11, 71, 103
17, 89856, Note_on_c, 11, 70, 103
17, 89856, Note_on_c, 11, 74, 103
17, 89856, Note_on_c, 11, 77, 103
17, 89958, Note_off_c, 11, 39, 0
17, 89958, Note_off_c, 11, 46, 0
17, 89958, Note_off_c, 11, 65, 0
17, 89958, Note_off_c, 11, 71, 0
17, 89958, Note_off_c, 11, 70, 0
17, 89958, Note_off_c, 11, 74, 0
17, 89958, Note_off_c, 11, 77, 0
17, 89984, Note_on_c, 11, 39, 103
17, 89984, Note_on_c, 11, 46, 103
17, 89984, Note_on_c, 11, 65, 103
17, 89984, Note_on_c, 11, 71, 103
17, 89984, Note_on_c, 11, 70, 103
17, 89984, Note_on_c, 11, 74, 103
17, 89984, Note_on_c, 11, 77, 103
17, 90086, Note_off_c, 11, 39, 0
17, 90086, Note_off_c, 11, 46, 0
17, 90086, Note_off_c, 11, 65, 0
17, 90086, Note_off_c, 11, 71, 0
17, 90086, Note_off_c, 11, 70, 0
17, 90086, Note_off_c, 11, 74, 0
17, 90086, Note_off_c, 11, 77, 0
17, 90112, Note_on_c, 11, 39, 99
17, 90112, Note_on_c, 11, 46, 99
17, 90112, Note_on_c, 11, 65, 99
17, 90112, Note_on_c, 11, 71, 99
17, 90112, Note_on_c, 11, 70, 99
17, 90112, Note_on_c, 11, 74, 99
17, 90112, Note_on_c, 11, 77, 99
17, 90214, Note_off_c, 11, 39, 0
17, 90214, Note_off_c, 11, 46, 0
17, 90214, Note_off_c, 11, 65, 0
17, 90214, Note_off_c, 11, 71, 0
17, 90214, Note_off_c, 11, 70, 0
17, 90214, Note_off_c, 11, 74, 0
17, 90214, Note_off_c, 11, 77, 0
17, 90240, Note_on_c, 11, 39, 99
17, 90240, Note_on_c, 11, 46, 99
17, 90240, Note_on_c, 11, 65, 99
17, 90240, Note_on_c, 11, 71, 99
17, 90240, Note_on_c, 11, 70, 99
17, 90240, Note_on_c, 11, 74, 99
17, 90240, Note_on_c, 11, 77, 99
17, 90342, Note_off_c, 11, 39, 0
17, 90342, Note_off_c, 11, 46, 0
17, 90342, Note_off_c, 11, 65, 0
17, 90342, Note_off_c, 11, 71, 0
17, 90342, Note_off_c, 11, 70, 0
17, 90342, Note_off_c, 11, 74, 0
17, 90342, Note_off_c, 11, 77, 0
17, 90368, Note_on_c, 11, 39, 99
17, 90368, Note_on_c, 11, 46, 99
17, 90368, Note_on_c, 11, 65, 99
17, 90368, Note_on_c, 11, 71, 99
17, 90368, Note_on_c, 11, 70, 99
17, 90368, Note_on_c, 11, 74, 99
17, 90368, Note_on_c, 11, 77, 99
17, 90470, Note_off_c, 11, 39, 0
17, 90470, Note_off_c, 11, 46, 0
17, 90470, Note_off_c, 11, 65, 0
17, 90470, Note_off_c, 11, 71, 0
17, 90470, Note_off_c, 11, 70, 0
17, 90470, Note_off_c, 11, 74, 0
17, 90470, Note_off_c, 11, 77, 0
17, 90496, Note_on_c, 11, 39, 99
17, 90496, Note_on_c, 11, 46, 99
17, 90496, Note_on_c, 11, 65, 99
17, 90496, Note_on_c, 11, 71, 99
17, 90496, Note_on_c, 11, 70, 99
17, 90496, Note_on_c, 11, 74, 99
17, 90496, Note_on_c, 11, 77, 99
17, 90598, Note_off_c, 11, 39, 0
17, 90598, Note_off_c, 11, 46, 0
17, 90598, Note_off_c, 11, 65, 0
17, 90598, Note_off_c, 11, 71, 0
17, 90598, Note_off_c, 11, 70, 0
17, 90598, Note_off_c, 11, 74, 0
17, 90598, Note_off_c, 11, 77, 0
17, 90624, Note_on_c, 11, 39, 102
17, 90624, Note_on_c, 11, 46, 102
17, 90624, Note_on_c, 11, 65, 102
17, 90624, Note_on_c, 11, 70, 102
17, 90624, Note_on_c, 11, 70, 102
17, 90624, Note_on_c, 11, 74, 102
17, 90624, Note_on_c, 11, 77, 102
17, 90752, Note_off_c, 11, 39, 0
17, 90752, Note_off_c, 11, 46, 0
17, 90752, Note_off_c, 11, 65, 0
17, 90752, Note_off_c, 11, 70, 0
17, 90752, Note_off_c, 11, 70, 0
17, 90752, Note_off_c, 11, 74, 0
17, 90752, Note_off_c, 11, 77, 0
17, 90752, Note_on_c, 11, 48, 86
17, 90752, Note_on_c, 11, 58, 86
17, 90752, Note_on_c, 11, 61, 86
17, 90752, Note_on_c, 11, 66, 86
17, 90752, Note_on_c, 11, 69, 86
17, 90752, Note_on_c, 11, 72, 86
17, 91136, Note_off_c, 11, 48, 0
17, 91136, Note_off_c, 11, 58, 0
17, 91136, Note_off_c, 11, 61, 0
17, 91136, Note_off_c, 11, 66, 0
17, 91136, Note_off_c, 11, 69, 0
17, 91136, Note_off_c, 11, 72, 0
17, 91136, Note_on_c, 11, 48, 93
17, 91136, Note_on_c, 11, 58, 93
17, 91136, Note_on_c, 11, 61, 93
17, 91136, Note_on_c, 11, 66, 93
17, 91136, Note_on_c, 11, 69, 93
17, 91136, Note_on_c, 11, 72, 93
17, 91238, Note_off_c, 11, 48, 0
17, 91238, Note_off_c, 11, 58, 0
17, 91238, Note_off_c, 11, 61, 0
17, 91238, Note_off_c, 11, 66, 0
17, 91238, Note_off_c, 11, 69, 0
17, 91238, Note_off_c, 11, 72, 0
17, 91264, Note_on_c, 11, 48, 93
17, 91264, Note_on_c, 11, 58, 93
17, 91264, Note_on_c, 11, 61, 93
17, 91264, Note_on_c, 11, 66, 93
17, 91264, Note_on_c, 11, 69, 93
17, 91264, Note_on_c, 11, 72, 93
17, 91366, Note_off_c, 11, 48, 0
17, 91366, Note_off_c, 11, 58, 0
17, 91366, Note_off_c, 11, 61, 0
17, 91366, Note_off_c, 11, 66, 0
17, 91366, Note_off_c, 11, 69, 0
17, 91366, Note_off_c, 11, 72, 0
17, 91392, Note_on_c, 11, 48, 93
17, 91392, Note_on_c, 11, 58, 93
17, 91392, Note_on_c, 11, 61, 93
17, 91392, Note_on_c, 11, 66, 93
17, 91392, Note_on_c, 11, 69, 93
17, 91392, Note_on_c, 11, 72, 93
17, 91494, Note_off_c, 11, 48, 0
17, 91494, Note_off_c, 11, 58, 0
17, 91494, Note_off_c, 11, 61, 0
17, 91494, Note_off_c, 11, 66, 0
17, 91494, Note_off_c, 11, 69, 0
17, 91494, Note_off_c, 11, 72, 0
17, 91520, Note_on_c, 11, 48, 93
17, 91520, Note_on_c, 11, 58, 93
17, 91520, Note_on_c, 11, 61, 93
17, 91520, Note_on_c, 11, 66, 93
17, 91520, Note_on_c, 11, 69, 93
17, 91520, Note_on_c, 11, 72, 93
17, 91622, Note_off_c, 11, 48, 0
17, 91622, Note_off_c, 11, 58, 0
17, 91622, Note_off_c, 11, 61, 0
17, 91622, Note_off_c, 11, 66, 0
17, 91622, Note_off_c, 11, 69, 0
17, 91622, Note_off_c, 11, 72, 0
17, 91648, Note_on_c, 11, 48, 96
17, 91648, Note_on_c, 11, 58, 96
17, 91648, Note_on_c, 11, 61, 96
17, 91648, Note_on_c, 11, 66, 96
17, 91648, Note_on_c, 11, 69, 96
17, 91648, Note_on_c, 11, 72, 96
17, 91750, Note_off_c, 11, 48, 0
17, 91750, Note_off_c, 11, 58, 0
17, 91750, Note_off_c, 11, 61, 0
17, 91750, Note_off_c, 11, 66, 0
17, 91750, Note_off_c, 11, 69, 0
17, 91750, Note_off_c, 11, 72, 0
17, 91776, Note_on_c, 11, 48, 96
17, 91776, Note_on_c, 11, 58, 96
17, 91776, Note_on_c, 11, 61, 96
17, 91776, Note_on_c, 11, 66, 96
17, 91776, Note_on_c, 11, 69, 96
17, 91776, Note_on_c, 11, 72, 96
17, 91878, Note_off_c, 11, 48, 0
17, 91878, Note_off_c, 11, 58, 0
17, 91878, Note_off_c, 11, 61, 0
17, 91878, Note_off_c, 11, 66, 0
17, 91878, Note_off_c, 11, 69, 0
17, 91878, Note_off_c, 11, 72, 0
17, 91904, Note_on_c, 11, 48, 96
17, 91904, Note_on_c, 11, 58, 96
17, 91904, Note_on_c, 11, 61, 96
17, 91904, Note_on_c, 11, 66, 96
17, 91904, Note_on_c, 11, 69, 96
17, 91904, Note_on_c, 11, 72, 96
17, 92006, Note_off_c, 11, 48, 0
17, 92006, Note_off_c, 11, 58, 0
17, 92006, Note_off_c, 11, 61, 0
17, 92006, Note_off_c, 11, 66, 0
17, 92006, Note_off_c, 11, 69, 0
17, 92006, Note_off_c, 11, 72, 0
17, 92032, Note_on_c, 11, 48, 96
17, 92032, Note_on_c, 11, 58, 96
17, 92032, Note_on_c, 11, 61, 96
17, 92032, Note_on_c, 11, 66, 96
17, 92032, Note_on_c, 11, 69, 96
17, 92032, Note_on_c, 11, 72, 96
17, 92134, Note_off_c, 11, 48, 0
17, 92134, Note_off_c, 11, 58, 0
17, 92134, Note_off_c, 11, 61, 0
17, 92134, Note_off_c, 11, 66, 0
17, 92134, Note_off_c, 11, 69, 0
17, 92134, Note_off_c, 11, 72, 0
17, 92160, Note_on_c, 11, 48, 97
17, 92160, Note_on_c, 11, 58, 97
17, 92160, Note_on_c, 11, 61, 97
17, 92160, Note_on_c, 11, 66, 97
17, 92160, Note_on_c, 11, 69, 97
17, 92160, Note_on_c, 11, 72, 97
17, 92288, Note_off_c, 11, 48, 0
17, 92288, Note_off_c, 11, 58, 0
17, 92288, Note_off_c, 11, 61, 0
17, 92288, Note_off_c, 11, 66, 0
17, 92288, Note_off_c, 11, 69, 0
17, 92288, Note_off_c, 11, 72, 0
17, 92288, Note_on_c, 11, 42, 98
17, 92288, Note_on_c, 11, 52, 98
17, 92288, Note_on_c, 11, 61, 98
17, 92288, Note_on_c, 11, 66, 98
17, 92288, Note_on_c, 11, 69, 98
17, 92288, Note_on_c, 11, 72, 98
17, 92390, Note_off_c, 11, 42, 0
17, 92390, Note_off_c, 11, 52, 0
17, 92390, Note_off_c, 11, 61, 0
17, 92390, Note_off_c, 11, 66, 0
17, 92390, Note_off_c, 11, 69, 0
17, 92390, Note_off_c, 11, 72, 0
17, 92416, Note_on_c, 11, 42, 98
17, 92416, Note_on_c, 11, 52, 98
17, 92416, Note_on_c, 11, 61, 98
17, 92416, Note_on_c, 11, 66, 98
17, 92416, Note_on_c, 11, 69, 98
17, 92416, Note_on_c, 11, 72, 98
17, 92518, Note_off_c, 11, 42, 0
17, 92518, Note_off_c, 11, 52, 0
17, 92518, Note_off_c, 11, 61, 0
17, 92518, Note_off_c, 11, 66, 0
17, 92518, Note_off_c, 11, 69, 0
17, 92518, Note_off_c, 11, 72, 0
17, 92544, Note_on_c, 11, 42, 98
17, 92544, Note_on_c, 11, 52, 98
17, 92544, Note_on_c, 11, 61, 98
17, 92544, Note_on_c, 11, 66, 98
17, 92544, Note_on_c, 11, 69, 98
17, 92544, Note_on_c, 11, 72, 98
17, 92646, Note_off_c, 11, 42, 0
17, 92646, Note_off_c, 11, 52, 0
17, 92646, Note_off_c, 11, 61, 0
17, 92646, Note_off_c, 11, 66, 0
17, 92646, Note_off_c, 11, 69, 0
17, 92646, Note_off_c, 11, 72, 0
17, 92672, Note_on_c, 11, 42, 98
17, 92672, Note_on_c, 11, 52, 98
17, 92672, Note_on_c, 11, 61, 98
17, 92672, Note_on_c, 11, 66, 98
17, 92672, Note_on_c, 11, 69, 98
17, 92672, Note_on_c, 11, 72, 98
17, 92774, Note_off_c, 11, 42, 0
17, 92774, Note_off_c, 11, 52, 0
17, 92774, Note_off_c, 11, 61, 0
17, 92774, Note_off_c, 11, 66, 0
17, 92774, Note_off_c, 11, 69, 0
17, 92774, Note_off_c, 11, 72, 0
17, 92800, Note_on_c, 11, 42, 98
17, 92800, Note_on_c, 11, 52, 98
17, 92800, Note_on_c, 11, 61, 98
17, 92800, Note_on_c, 11, 66, 98
17, 92800, Note_on_c, 11, 69, 98
17, 92800, Note_on_c, 11, 72, 98
17, 92902, Note_off_c, 11, 42, 0
17, 92902, Note_off_c, 11, 52, 0
17, 92902, Note_off_c, 11, 61, 0
17, 92902, Note_off_c, 11, 66, 0
17, 92902, Note_off_c, 11, 69, 0
17, 92902, Note_off_c, 11, 72, 0
17, 92928, Note_on_c, 11, 42, 98
17, 92928, Note_on_c, 11, 52, 98
17, 92928, Note_on_c, 11, 61, 98
17, 92928, Note_on_c, 11, 66, 98
17, 92928, Note_on_c, 11, 69, 98
17, 92928, Note_on_c, 11, 72, 98
17, 93030, Note_off_c, 11, 42, 0
17, 93030, Note_off_c, 11, 52, 0
17, 93030, Note_off_c, 11, 61, 0
17, 93030, Note_off_c, 11, 66, 0
17, 93030, Note_off_c, 11, 69, 0
17, 93030, Note_off_c, 11, 72, 0
17, 93056, Note_on_c, 11, 42, 98
17, 93056, Note_on_c, 11, 52, 98
17, 93056, Note_on_c, 11, 61, 98
17, 93056, Note_on_c, 11, 66, 98
17, 93056, Note_on_c, 11, 69, 98
17, 93056, Note_on_c, 11, 72, 98
17, 93158, Note_off_c, 11, 42, 0
17, 93158, Note_off_c, 11, 52, 0
17, 93158, Note_off_c, 11, 61, 0
17, 93158, Note_off_c, 11, 66, 0
17, 93158, Note_off_c, 11, 69, 0
17, 93158, Note_off_c, 11, 72, 0
17, 93184, Note_on_c, 11, 45, 100
17, 93184, Note_on_c, 11, 55, 100
17, 93184, Note_on_c, 11, 61, 100
17, 93184, Note_on_c, 11, 67, 100
17, 93184, Note_on_c, 11, 69, 100
17, 93184, Note_on_c, 11, 72, 100
17, 93286, Note_off_c, 11, 45, 0
17, 93286, Note_off_c, 11, 55, 0
17, 93286, Note_off_c, 11, 61, 0
17, 93286, Note_off_c, 11, 67, 0
17, 93286, Note_off_c, 11, 69, 0
17, 93286, Note_off_c, 11, 72, 0
17, 93312, Note_on_c, 11, 45, 100
17, 93312, Note_on_c, 11, 55, 100
17, 93312, Note_on_c, 11, 61, 100
17, 93312, Note_on_c, 11, 67, 100
17, 93312, Note_on_c, 11, 69, 100
17, 93312, Note_on_c, 11, 72, 100
17, 93414, Note_off_c, 11, 45, 0
17, 93414, Note_off_c, 11, 55, 0
17, 93414, Note_off_c, 11, 61, 0
17, 93414, Note_off_c, 11, 67, 0
17, 93414, Note_off_c, 11, 69, 0
17, 93414, Note_off_c, 11, 72, 0
17, 93440, Note_on_c, 11, 45, 100
17, 93440, Note_on_c, 11, 55, 100
17, 93440, Note_on_c, 11, 61, 100
17, 93440, Note_on_c, 11, 67, 100
17, 93440, Note_on_c, 11, 69, 100
17, 93440, Note_on_c, 11, 72, 100
17, 93542, Note_off_c, 11, 45, 0
17, 93542, Note_off_c, 11, 55, 0
17, 93542, Note_off_c, 11, 61, 0
17, 93542, Note_off_c, 11, 67, 0
17, 93542, Note_off_c, 11, 69, 0
17, 93542, Note_off_c, 11, 72, 0
17, 93568, Note_on_c, 11, 45, 100
17, 93568, Note_on_c, 11, 55, 100
17, 93568, Note_on_c, 11, 61, 100
17, 93568, Note_on_c, 11, 67, 100
17, 93568, Note_on_c, 11, 69, 100
17, 93568, Note_on_c, 11, 72, 100
17, 93670, Note_off_c, 11, 45, 0
17, 93670, Note_off_c, 11, 55, 0
17, 93670, Note_off_c, 11, 61, 0
17, 93670, Note_off_c, 11, 67, 0
17, 93670, Note_off_c, 11, 69, 0
17, 93670, Note_off_c, 11, 72, 0
17, 93696, Note_on_c, 11, 45, 98
17, 93696, Note_on_c, 11, 55, 98
17, 93696, Note_on_c, 11, 61, 98
17, 93696, Note_on_c, 11, 67, 98
17, 93696, Note_on_c, 11, 69, 98
17, 93696, Note_on_c, 11, 72, 98
17, 93798, Note_off_c, 11, 45, 0
17, 93798, Note_off_c, 11, 55, 0
17, 93798, Note_off_c, 11, 61, 0
17, 93798, Note_off_c, 11, 67, 0
17, 93798, Note_off_c, 11, 69, 0
17, 93798, Note_off_c, 11, 72, 0
17, 93824, Note_on_c, 11, 45, 98
17, 93824, Note_on_c, 11, 55, 98
17, 93824, Note_on_c, 11, 61, 98
17, 93824, Note_on_c, 11, 67, 98
17, 93824, Note_on_c, 11, 69, 98
17, 93824, Note_on_c, 11, 72, 98
17, 93926, Note_off_c, 11, 45, 0
17, 93926, Note_off_c, 11, 55, 0
17, 93926, Note_off_c, 11, 61, 0
17, 93926, Note_off_c, 11, 67, 0
17, 93926, Note_off_c, 11, 69, 0
17, 93926, Note_off_c, 11, 72, 0
17, 93952, Note_on_c, 11, 45, 98
17, 93952, Note_on_c, 11, 55, 98
17, 93952, Note_on_c, 11, 61, 98
17, 93952, Note_on_c, 11, 67, 98
17, 93952, Note_on_c, 11, 69, 98
17, 93952, Note_on_c, 11, 72, 98
17, 94054, Note_off_c, 11, 45, 0
17, 94054, Note_off_c, 11, 55, 0
17, 94054, Note_off_c, 11, 61, 0
17, 94054, Note_off_c, 11, 67, 0
17, 94054, Note_off_c, 11, 69, 0
17, 94054, Note_off_c, 11, 72, 0
17, 94080, Note_on_c, 11, 45, 98
17, 94080, Note_on_c, 11, 55, 98
17, 94080, Note_on_c, 11, 61, 98
17, 94080, Note_on_c, 11, 67, 98
17, 94080, Note_on_c, 11, 69, 98
17, 94080, Note_on_c, 11, 72, 98
17, 94182, Note_off_c, 11, 45, 0
17, 94182, Note_off_c, 11, 55, 0
17, 94182, Note_off_c, 11, 61, 0
17, 94182, Note_off_c, 11, 67, 0
17, 94182, Note_off_c, 11, 69, 0
17, 94182, Note_off_c, 11, 72, 0
17, 94208, Note_on_c, 11, 45, 96
17, 94208, Note_on_c, 11, 55, 96
17, 94208, Note_on_c, 11, 61, 96
17, 94208, Note_on_c, 11, 67, 96
17, 94208, Note_on_c, 11, 69, 96
17, 94208, Note_on_c, 11, 72, 96
17, 94272, Note_off_c, 11, 45, 0
17, 94272, Note_off_c, 11, 55, 0
17, 94272, Note_off_c, 11, 61, 0
17, 94272, Note_off_c, 11, 67, 0
17, 94272, Note_off_c, 11, 69, 0
17, 94272, Note_off_c, 11, 72, 0
17, 94272, Note_on_c, 11, 46, 101
17, 94272, Note_on_c, 11, 56, 101
17, 94272, Note_on_c, 11, 62, 101
17, 94272, Note_on_c, 11, 65, 101
17, 94272, Note_on_c, 11, 67, 101
17, 94272, Note_on_c, 11, 72, 101
17, 94400, Note_off_c, 11, 46, 0
17, 94400, Note_off_c, 11, 56, 0
17, 94400, Note_off_c, 11, 62, 0
17, 94400, Note_off_c, 11, 65, 0
17, 94400, Note_off_c, 11, 67, 0
17, 94400, Note_off_c, 11, 72, 0
17, 94400, Note_on_c, 11, 46, 95
17, 94400, Note_on_c, 11, 56, 95
17, 94400, Note_on_c, 11, 62, 95
17, 94400, Note_on_c, 11, 65, 95
17, 94400, Note_on_c, 11, 67, 95
17, 94400, Note_on_c, 11, 72, 95
17, 94528, Note_off_c, 11, 46, 0
17, 94528, Note_off_c, 11, 56, 0
17, 94528, Note_off_c, 11, 62, 0
17, 94528, Note_off_c, 11, 65, 0
17, 94528, Note_off_c, 11, 67, 0
17, 94528, Note_off_c, 11, 72, 0
17, 94528, Note_on_c, 11, 46, 100
17, 94528, Note_on_c, 11, 56, 100
17, 94528, Note_on_c, 11, 62, 100
17, 94528, Note_on_c, 11, 65, 100
17, 94528, Note_on_c, 11, 67, 100
17, 94528, Note_on_c, 11, 72, 100
17, 94656, Note_off_c, 11, 46, 0
17, 94656, Note_off_c, 11, 56, 0
17, 94656, Note_off_c, 11, 62, 0
17, 94656, Note_off_c, 11, 65, 0
17, 94656, Note_off_c, 11, 67, 0
17, 94656, Note_off_c, 11, 72, 0
17, 94656, Note_on_c, 11, 46, 98
17, 94656, Note_on_c, 11, 56, 98
17, 94656, Note_on_c, 11, 62, 98
17, 94656, Note_on_c, 11, 65, 98
17, 94656, Note_on_c, 11, 67, 98
17, 94656, Note_on_c, 11, 72, 98
17, 94784, Note_off_c, 11, 46, 0
17, 94784, Note_off_c, 11, 56, 0
17, 94784, Note_off_c, 11, 62, 0
17, 94784, Note_off_c, 11, 65, 0
17, 94784, Note_off_c, 11, 67, 0
17, 94784, Note_off_c, 11, 72, 0
17, 94784, Note_on_c, 11, 46, 95
17, 94784, Note_on_c, 11, 56, 95
17, 94784, Note_on_c, 11, 62, 95
17, 94784, Note_on_c, 11, 65, 95
17, 94784, Note_on_c, 11, 67, 95
17, 94784, Note_on_c, 11, 72, 95
17, 94912, Note_off_c, 11, 46, 0
17, 94912, Note_off_c, 11, 56, 0
17, 94912, Note_off_c, 11, 62, 0
17, 94912, Note_off_c, 11, 65, 0
17, 94912, Note_off_c, 11, 67, 0
17, 94912, Note_off_c, 11, 72, 0
17, 94912, Note_on_c, 11, 46, 98
17, 94912, Note_on_c, 11, 56, 98
17, 94912, Note_on_c, 11, 62, 98
17, 94912, Note_on_c, 11, 65, 98
17, 94912, Note_on_c, 11, 67, 98
17, 94912, Note_on_c, 11, 72, 98
17, 95040, Note_off_c, 11, 46, 0
17, 95040, Note_off_c, 11, 56, 0
17, 95040, Note_off_c, 11, 62, 0
17, 95040, Note_off_c, 11, 65, 0
17, 95040, Note_off_c, 11, 67, 0
17, 95040, Note_off_c, 11, 72, 0
17, 95040, Note_on_c, 11, 47, 92
17, 95040, Note_on_c, 11, 57, 92
17, 95040, Note_on_c, 11, 61, 92
17, 95040, Note_on_c, 11, 65, 92
17, 95040, Note_on_c, 11, 68, 92
17, 95040, Note_on_c, 11, 71, 92
17, 95168, Note_off_c, 11, 47, 0
17, 95168, Note_off_c, 11, 57, 0
17, 95168, Note_off_c, 11, 61, 0
17, 95168, Note_off_c, 11, 65, 0
17, 95168, Note_off_c, 11, 68, 0
17, 95168, Note_off_c, 11, 71, 0
17, 95168, Note_on_c, 11, 47, 96
17, 95168, Note_on_c, 11, 57, 96
17, 95168, Note_on_c, 11, 61, 96
17, 95168, Note_on_c, 11, 65, 96
17, 95168, Note_on_c, 11, 68, 96
17, 95168, Note_on_c, 11, 71, 96
17, 95296, Note_off_c, 11, 47, 0
17, 95296, Note_off_c, 11, 57, 0
17, 95296, Note_off_c, 11, 61, 0
17, 95296, Note_off_c, 11, 65, 0
17, 95296, Note_off_c, 11, 68, 0
17, 95296, Note_off_c, 11, 71, 0
17, 95296, Note_on_c, 11, 47, 97
17, 95296, Note_on_c, 11, 57, 97
17, 95296, Note_on_c, 11, 61, 97
17, 95296, Note_on_c, 11, 65, 97
17, 95296, Note_on_c, 11, 68, 97
17, 95296, Note_on_c, 11, 71, 97
17, 95424, Note_off_c, 11, 47, 0
17, 95424, Note_off_c, 11, 57, 0
17, 95424, Note_off_c, 11, 61, 0
17, 95424, Note_off_c, 11, 65, 0
17, 95424, Note_off_c, 11, 68, 0
17, 95424, Note_off_c, 11, 71, 0
17, 95424, Note_on_c, 11, 47, 97
17, 95424, Note_on_c, 11, 57, 97
17, 95424, Note_on_c, 11, 61, 97
17, 95424, Note_on_c, 11, 65, 97
17, 95424, Note_on_c, 11, 68, 97
17, 95424, Note_on_c, 11, 71, 97
17, 95552, Note_off_c, 11, 47, 0
17, 95552, Note_off_c, 11, 57, 0
17, 95552, Note_off_c, 11, 61, 0
17, 95552, Note_off_c, 11, 65, 0
17, 95552, Note_off_c, 11, 68, 0
17, 95552, Note_off_c, 11, 71, 0
17, 95552, Note_on_c, 11, 47, 104
17, 95552, Note_on_c, 11, 57, 104
17, 95552, Note_on_c, 11, 61, 104
17, 95552, Note_on_c, 11, 65, 104
17, 95552, Note_on_c, 11, 68, 104
17, 95552, Note_on_c, 11, 71, 104
17, 95680, Note_off_c, 11, 47, 0
17, 95680, Note_off_c, 11, 57, 0
17, 95680, Note_off_c, 11, 61, 0
17, 95680, Note_off_c, 11, 65, 0
17, 95680, Note_off_c, 11, 68, 0
17, 95680, Note_off_c, 11, 71, 0
17, 95680, Note_on_c, 11, 47, 97
17, 95680, Note_on_c, 11, 57, 97
17, 95680, Note_on_c, 11, 61, 97
17, 95680, Note_on_c, 11, 65, 97
17, 95680, Note_on_c, 11, 68, 97
17, 95680, Note_on_c, 11, 71, 97
17, 95808, Note_off_c, 11, 47, 0
17, 95808, Note_off_c, 11, 57, 0
17, 95808, Note_off_c, 11, 61, 0
17, 95808, Note_off_c, 11, 65, 0
17, 95808, Note_off_c, 11, 68, 0
17, 95808, Note_off_c, 11, 71, 0
17, 95808, Note_on_c, 11, 47, 97
17, 95808, Note_on_c, 11, 57, 97
17, 95808, Note_on_c, 11, 61, 97
17, 95808, Note_on_c, 11, 65, 97
17, 95808, Note_on_c, 11, 68, 97
17, 95808, Note_on_c, 11, 71, 97
17, 95936, Note_off_c, 11, 47, 0
17, 95936, Note_off_c, 11, 57, 0
17, 95936, Note_off_c, 11, 61, 0
17, 95936, Note_off_c, 11, 65, 0
17, 95936, Note_off_c, 11, 68, 0
17, 95936, Note_off_c, 11, 71, 0
17, 95936, Note_on_c, 11, 47, 97
17, 95936, Note_on_c, 11, 57, 97
17, 95936, Note_on_c, 11, 61, 97
17, 95936, Note_on_c, 11, 65, 97
17, 95936, Note_on_c, 11, 68, 97
17, 95936, Note_on_c, 11, 71, 97
17, 96064, Note_off_c, 11, 47, 0
17, 96064, Note_off_c, 11, 57, 0
17, 96064, Note_off_c, 11, 61, 0
17, 96064, Note_off_c, 11, 65, 0
17, 96064, Note_off_c, 11, 68, 0
17, 96064, Note_off_c, 11, 71, 0
17, 96064, Note_on_c, 11, 40, 99
17, 96064, Note_on_c, 11, 47, 99
17, 96064, Note_on_c, 11, 62, 99
17, 96064, Note_on_c, 11, 65, 99
17, 96064, Note_on_c, 11, 67, 99
17, 96064, Note_on_c, 11, 71, 99
17, 96192, Note_off_c, 11, 40, 0
17, 96192, Note_off_c, 11, 47, 0
17, 96192, Note_off_c, 11, 62, 0
17, 96192, Note_off_c, 11, 65, 0
17, 96192, Note_off_c, 11, 67, 0
17, 96192, Note_off_c, 11, 71, 0
17, 96192, Note_on_c, 11, 40, 101
17, 96192, Note_on_c, 11, 47, 101
17, 96192, Note_on_c, 11, 62, 101
17, 96192, Note_on_c, 11, 65, 101
17, 96192, Note_on_c, 11, 67, 101
17, 96192, Note_on_c, 11, 71, 101
17, 96320, Note_off_c, 11, 40, 0
17, 96320, Note_off_c, 11, 47, 0
17, 96320, Note_off_c, 11, 62, 0
17, 96320, Note_off_c, 11, 65, 0
17, 96320, Note_off_c, 11, 67, 0
17, 96320, Note_off_c, 11, 71, 0
17, 96320, Note_on_c, 11, 47, 100
17, 96320, Note_on_c, 11, 57, 100
17, 96320, Note_on_c, 11, 61, 100
17, 96320, Note_on_c, 11, 65, 100
17, 96320, Note_on_c, 11, 68, 100
17, 96320, Note_on_c, 11, 71, 100
17, 96448, Note_off_c, 11, 47, 0
17, 96448, Note_off_c, 11, 57, 0
17, 96448, Note_off_c, 11, 61, 0
17, 96448, Note_off_c, 11, 65, 0
17, 96448, Note_off_c, 11, 68, 0
17, 96448, Note_off_c, 11, 71, 0
17, 96448, Note_on_c, 11, 47, 99
17, 96448, Note_on_c, 11, 57, 99
17, 96448, Note_on_c, 11, 61, 99
17, 96448, Note_on_c, 11, 65, 99
17, 96448, Note_on_c, 11, 68, 99
17, 96448, Note_on_c, 11, 71, 99
17, 96576, Note_off_c, 11, 47, 0
17, 96576, Note_off_c, 11, 57, 0
17, 96576, Note_off_c, 11, 61, 0
17, 96576, Note_off_c, 11, 65, 0
17, 96576, Note_off_c, 11, 68, 0
17, 96576, Note_off_c, 11, 71, 0
17, 96576, Note_on_c, 11, 47, 96
17, 96576, Note_on_c, 11, 57, 96
17, 96576, Note_on_c, 11, 61, 96
17, 96576, Note_on_c, 11, 65, 96
17, 96576, Note_on_c, 11, 68, 96
17, 96576, Note_on_c, 11, 71, 96
17, 96704, Note_off_c, 11, 47, 0
17, 96704, Note_off_c, 11, 57, 0
17, 96704, Note_off_c, 11, 61, 0
17, 96704, Note_off_c, 11, 65, 0
17, 96704, Note_off_c, 11, 68, 0
17, 96704, Note_off_c, 11, 71, 0
17, 96704, Note_on_c, 11, 40, 95
17, 96704, Note_on_c, 11, 47, 95
17, 96704, Note_on_c, 11, 62, 95
17, 96704, Note_on_c, 11, 65, 95
17, 96704, Note_on_c, 11, 67, 95
17, 96704, Note_on_c, 11, 71, 95
17, 96832, Note_off_c, 11, 40, 0
17, 96832, Note_off_c, 11, 47, 0
17, 96832, Note_off_c, 11, 62, 0
17, 96832, Note_off_c, 11, 65, 0
17, 96832, Note_off_c, 11, 67, 0
17, 96832, Note_off_c, 11, 71, 0
17, 96832, Note_on_c, 11, 47, 99
17, 96832, Note_on_c, 11, 57, 99
17, 96832, Note_on_c, 11, 61, 99
17, 96832, Note_on_c, 11, 65, 99
17, 96832, Note_on_c, 11, 68, 99
17, 96832, Note_on_c, 11, 71, 99
17, 96960, Note_off_c, 11, 47, 0
17, 96960, Note_off_c, 11, 57, 0
17, 96960, Note_off_c, 11, 61, 0
17, 96960, Note_off_c, 11, 65, 0
17, 96960, Note_off_c, 11, 68, 0
17, 96960, Note_off_c, 11, 71, 0
17, 96960, Note_on_c, 11, 47, 97
17, 96960, Note_on_c, 11, 57, 97
17, 96960, Note_on_c, 11, 61, 97
17, 96960, Note_on_c, 11, 65, 97
17, 96960, Note_on_c, 11, 68, 97
17, 96960, Note_on_c, 11, 71, 97
17, 97088, Note_off_c, 11, 47, 0
17, 97088, Note_off_c, 11, 57, 0
17, 97088, Note_off_c, 11, 61, 0
17, 97088, Note_off_c, 11, 65, 0
17, 97088, Note_off_c, 11, 68, 0
17, 97088, Note_off_c, 11, 71, 0
17, 97088, Note_on_c, 11, 42, 98
17, 97088, Note_on_c, 11, 52, 98
17, 97088, Note_on_c, 11, 62, 98
17, 97088, Note_on_c, 11, 65, 98
17, 97088, Note_on_c, 11, 68, 98
17, 97088, Note_on_c, 11, 72, 98
17, 97216, Note_off_c, 11, 42, 0
17, 97216, Note_off_c, 11, 52, 0
17, 97216, Note_off_c, 11, 62, 0
17, 97216, Note_off_c, 11, 65, 0
17, 97216, Note_off_c, 11, 68, 0
17, 97216, Note_off_c, 11, 72, 0
17, 97216, Note_on_c, 11, 48, 110
17, 97216, Note_on_c, 11, 58, 110
17, 97216, Note_on_c, 11, 64, 110
17, 97216, Note_on_c, 11, 68, 110
17, 97216, Note_on_c, 11, 73, 110
17, 97216, Note_on_c, 11, 76, 110
17, 97344, Note_off_c, 11, 48, 0
17, 97344, Note_off_c, 11, 58, 0
17, 97344, Note_off_c, 11, 64, 0
17, 97344, Note_off_c, 11, 68, 0
17, 97344, Note_off_c, 11, 73, 0
17, 97344, Note_off_c, 11, 76, 0
17, 97344, Note_on_c, 11, 48, 100
17, 97344, Note_on_c, 11, 58, 100
17, 97344, Note_on_c, 11, 64, 100
17, 97344, Note_on_c, 11, 68, 100
17, 97344, Note_on_c, 11, 73, 100
17, 97344, Note_on_c, 11, 76, 100
17, 97472, Note_off_c, 11, 48, 0
17, 97472, Note_off_c, 11, 58, 0
17, 97472, Note_off_c, 11, 64, 0
17, 97472, Note_off_c, 11, 68, 0
17, 97472, Note_off_c, 11, 73, 0
17, 97472, Note_off_c, 11, 76, 0
17, 97472, Note_on_c, 11, 48, 95
17, 97472, Note_on_c, 11, 58, 95
17, 97472, Note_on_c, 11, 64, 95
17, 97472, Note_on_c, 11, 68, 95
17, 97472, Note_on_c, 11, 73, 95
17, 97472, Note_on_c, 11, 76, 95
17, 97600, Note_off_c, 11, 48, 0
17, 97600, Note_off_c, 11, 58, 0
17, 97600, Note_off_c, 11, 64, 0
17, 97600, Note_off_c, 11, 68, 0
17, 97600, Note_off_c, 11, 73, 0
17, 97600, Note_off_c, 11, 76, 0
17, 97600, Note_on_c, 11, 48, 98
17, 97600, Note_on_c, 11, 58, 98
17, 97600, Note_on_c, 11, 64, 98
17, 97600, Note_on_c, 11, 68, 98
17, 97600, Note_on_c, 11, 73, 98
17, 97600, Note_on_c, 11, 76, 98
17, 97728, Note_off_c, 11, 48, 0
17, 97728, Note_off_c, 11, 58, 0
17, 97728, Note_off_c, 11, 64, 0
17, 97728, Note_off_c, 11, 68, 0
17, 97728, Note_off_c, 11, 73, 0
17, 97728, Note_off_c, 11, 76, 0
17, 97728, Note_on_c, 11, 42, 91
17, 97728, Note_on_c, 11, 52, 91
17, 97728, Note_on_c, 11, 63, 91
17, 97728, Note_on_c, 11, 67, 91
17, 97728, Note_on_c, 11, 72, 91
17, 97728, Note_on_c, 11, 75, 91
17, 97856, Note_off_c, 11, 42, 0
17, 97856, Note_off_c, 11, 52, 0
17, 97856, Note_off_c, 11, 63, 0
17, 97856, Note_off_c, 11, 67, 0
17, 97856, Note_off_c, 11, 72, 0
17, 97856, Note_off_c, 11, 75, 0
17, 97856, Note_on_c, 11, 48, 100
17, 97856, Note_on_c, 11, 58, 100
17, 97856, Note_on_c, 11, 64, 100
17, 97856, Note_on_c, 11, 68, 100
17, 97856, Note_on_c, 11, 73, 100
17, 97856, Note_on_c, 11, 76, 100
17, 97984, Note_off_c, 11, 48, 0
17, 97984, Note_off_c, 11, 58, 0
17, 97984, Note_off_c, 11, 64, 0
17, 97984, Note_off_c, 11, 68, 0
17, 97984, Note_off_c, 11, 73, 0
17, 97984, Note_off_c, 11, 76, 0
17, 97984, Note_on_c, 11, 48, 99
17, 97984, Note_on_c, 11, 58, 99
17, 97984, Note_on_c, 11, 64, 99
17, 97984, Note_on_c, 11, 68, 99
17, 97984, Note_on_c, 11, 73, 99
17, 97984, Note_on_c, 11, 76, 99
17, 98112, Note_off_c, 11, 48, 0
17, 98112, Note_off_c, 11, 58, 0
17, 98112, Note_off_c, 11, 64, 0
17, 98112, Note_off_c, 11, 68, 0
17, 98112, Note_off_c, 11, 73, 0
17, 98112, Note_off_c, 11, 76, 0
17, 98112, Note_on_c, 11, 48, 100
17, 98112, Note_on_c, 11, 58, 100
17, 98112, Note_on_c, 11, 64, 100
17, 98112, Note_on_c, 11, 68, 100
17, 98112, Note_on_c, 11, 73, 100
17, 98112, Note_on_c, 11, 76, 100
17, 98240, Note_off_c, 11, 48, 0
17, 98240, Note_off_c, 11, 58, 0
17, 98240, Note_off_c, 11, 64, 0
17, 98240, Note_off_c, 11, 68, 0
17, 98240, Note_off_c, 11, 73, 0
17, 98240, Note_off_c, 11, 76, 0
17, 98240, Note_on_c, 11, 48, 97
17, 98240, Note_on_c, 11, 58, 97
17, 98240, Note_on_c, 11, 64, 97
17, 98240, Note_on_c, 11, 68, 97
17, 98240, Note_on_c, 11, 73, 97
17, 98240, Note_on_c, 11, 76, 97
17, 98368, Note_off_c, 11, 48, 0
17, 98368, Note_off_c, 11, 58, 0
17, 98368, Note_off_c, 11, 64, 0
17, 98368, Note_off_c, 11, 68, 0
17, 98368, Note_off_c, 11, 73, 0
17, 98368, Note_off_c, 11, 76, 0
17, 98368, Note_on_c, 11, 49, 97
17, 98368, Note_on_c, 11, 59, 97
17, 98368, Note_on_c, 11, 65, 97
17, 98368, Note_on_c, 11, 68, 97
17, 98368, Note_on_c, 11, 71, 97
17, 98368, Note_on_c, 11, 76, 97
17, 98496, Note_off_c, 11, 49, 0
17, 98496, Note_off_c, 11, 59, 0
17, 98496, Note_off_c, 11, 65, 0
17, 98496, Note_off_c, 11, 68, 0
17, 98496, Note_off_c, 11, 71, 0
17, 98496, Note_off_c, 11, 76, 0
17, 98496, Note_on_c, 11, 49, 97
17, 98496, Note_on_c, 11, 59, 97
17, 98496, Note_on_c, 11, 65, 97
17, 98496, Note_on_c, 11, 68, 97
17, 98496, Note_on_c, 11, 71, 97
17, 98496, Note_on_c, 11, 76, 97
17, 98624, Note_off_c, 11, 49, 0
17, 98624, Note_off_c, 11, 59, 0
17, 98624, Note_off_c, 11, 65, 0
17, 98624, Note_off_c, 11, 68, 0
17, 98624, Note_off_c, 11, 71, 0
17, 98624, Note_off_c, 11, 76, 0
17, 98624, Note_on_c, 11, 49, 95
17, 98624, Note_on_c, 11, 59, 95
17, 98624, Note_on_c, 11, 65, 95
17, 98624, Note_on_c, 11, 68, 95
17, 98624, Note_on_c, 11, 71, 95
17, 98624, Note_on_c, 11, 76, 95
17, 98752, Note_off_c, 11, 49, 0
17, 98752, Note_off_c, 11, 59, 0
17, 98752, Note_off_c, 11, 65, 0
17, 98752, Note_off_c, 11, 68, 0
17, 98752, Note_off_c, 11, 71, 0
17, 98752, Note_off_c, 11, 76, 0
17, 98752, Note_on_c, 11, 49, 98
17, 98752, Note_on_c, 11, 59, 98
17, 98752, Note_on_c, 11, 65, 98
17, 98752, Note_on_c, 11, 68, 98
17, 98752, Note_on_c, 11, 71, 98
17, 98752, Note_on_c, 11, 76, 98
17, 98880, Note_off_c, 11, 49, 0
17, 98880, Note_off_c, 11, 59, 0
17, 98880, Note_off_c, 11, 65, 0
17, 98880, Note_off_c, 11, 68, 0
17, 98880, Note_off_c, 11, 71, 0
17, 98880, Note_off_c, 11, 76, 0
17, 98880, Note_on_c, 11, 49, 101
17, 98880, Note_on_c, 11, 59, 101
17, 98880, Note_on_c, 11, 65, 101
17, 98880, Note_on_c, 11, 68, 101
17, 98880, Note_on_c, 11, 71, 101
17, 98880, Note_on_c, 11, 76, 101
17, 99008, Note_off_c, 11, 49, 0
17, 99008, Note_off_c, 11, 59, 0
17, 99008, Note_off_c, 11, 65, 0
17, 99008, Note_off_c, 11, 68, 0
17, 99008, Note_off_c, 11, 71, 0
17, 99008, Note_off_c, 11, 76, 0
17, 99008, Note_on_c, 11, 49, 99
17, 99008, Note_on_c, 11, 59, 99
17, 99008, Note_on_c, 11, 65, 99
17, 99008, Note_on_c, 11, 68, 99
17, 99008, Note_on_c, 11, 71, 99
17, 99008, Note_on_c, 11, 76, 99
17, 99136, Note_off_c, 11, 49, 0
17, 99136, Note_off_c, 11, 59, 0
17, 99136, Note_off_c, 11, 65, 0
17, 99136, Note_off_c, 11, 68, 0
17, 99136, Note_off_c, 11, 71, 0
17, 99136, Note_off_c, 11, 76, 0
17, 99136, Note_on_c, 11, 49, 96
17, 99136, Note_on_c, 11, 59, 96
17, 99136, Note_on_c, 11, 65, 96
17, 99136, Note_on_c, 11, 68, 96
17, 99136, Note_on_c, 11, 71, 96
17, 99136, Note_on_c, 11, 76, 96
17, 99264, Note_off_c, 11, 49, 0
17, 99264, Note_off_c, 11, 59, 0
17, 99264, Note_off_c, 11, 65, 0
17, 99264, Note_off_c, 11, 68, 0
17, 99264, Note_off_c, 11, 71, 0
17, 99264, Note_off_c, 11, 76, 0
17, 99264, Note_on_c, 11, 49, 95
17, 99264, Note_on_c, 11, 59, 95
17, 99264, Note_on_c, 11, 65, 95
17, 99264, Note_on_c, 11, 68, 95
17, 99264, Note_on_c, 11, 71, 95
17, 99264, Note_on_c, 11, 76, 95
17, 99328, Note_off_c, 11, 49, 0
17, 99328, Note_off_c, 11, 59, 0
17, 99328, Note_off_c, 11, 65, 0
17, 99328, Note_off_c, 11, 68, 0
17, 99328, Note_off_c, 11, 71, 0
17, 99328, Note_off_c, 11, 76, 0
17, 99328, Note_on_c, 11, 49, 94
17, 99328, Note_on_c, 11, 59, 94
17, 99328, Note_on_c, 11, 65, 94
17, 99328, Note_on_c, 11, 68, 94
17, 99328, Note_on_c, 11, 71, 94
17, 99328, Note_on_c, 11, 76, 94
17, 99456, Note_off_c, 11, 49, 0
17, 99456, Note_off_c, 11, 59, 0
17, 99456, Note_off_c, 11, 65, 0
17, 99456, Note_off_c, 11, 68, 0
17, 99456, Note_off_c, 11, 71, 0
17, 99456, Note_off_c, 11, 76, 0
17, 99456, Note_on_c, 11, 49, 99
17, 99456, Note_on_c, 11, 59, 99
17, 99456, Note_on_c, 11, 65, 99
17, 99456, Note_on_c, 11, 68, 99
17, 99456, Note_on_c, 11, 71, 99
17, 99456, Note_on_c, 11, 76, 99
17, 99584, Note_off_c, 11, 49, 0
17, 99584, Note_off_c, 11, 59, 0
17, 99584, Note_off_c, 11, 65, 0
17, 99584, Note_off_c, 11, 68, 0
17, 99584, Note_off_c, 11, 71, 0
17, 99584, Note_off_c, 11, 76, 0
17, 99584, Note_on_c, 11, 49, 99
17, 99584, Note_on_c, 11, 59, 99
17, 99584, Note_on_c, 11, 65, 99
17, 99584, Note_on_c, 11, 68, 99
17, 99584, Note_on_c, 11, 71, 99
17, 99584, Note_on_c, 11, 76, 99
17, 99712, Note_off_c, 11, 49, 0
17, 99712, Note_off_c, 11, 59, 0
17, 99712, Note_off_c, 11, 65, 0
17, 99712, Note_off_c, 11, 68, 0
17, 99712, Note_off_c, 11, 71, 0
17, 99712, Note_off_c, 11, 76, 0
17, 99712, Note_on_c, 11, 49, 102
17, 99712, Note_on_c, 11, 59, 102
17, 99712, Note_on_c, 11, 65, 102
17, 99712, Note_on_c, 11, 68, 102
17, 99712, Note_on_c, 11, 71, 102
17, 99712, Note_on_c, 11, 76, 102
17, 99776, Note_off_c, 11, 49, 0
17, 99776, Note_off_c, 11, 59, 0
17, 99776, Note_off_c, 11, 65, 0
17, 99776, Note_off_c, 11, 68, 0
17, 99776, Note_off_c, 11, 71, 0
17, 99776, Note_off_c, 11, 76, 0
17, 99776, Note_on_c, 11, 49, 102
17, 99776, Note_on_c, 11, 59, 102
17, 99776, Note_on_c, 11, 65, 102
17, 99776, Note_on_c, 11, 68, 102
17, 99776, Note_on_c, 11, 71, 102
17, 99776, Note_on_c, 11, 76, 102
17, 99904, Note_off_c, 11, 49, 0
17, 99904, Note_off_c, 11, 59, 0
17, 99904, Note_off_c, 11, 65, 0
17, 99904, Note_off_c, 11, 68, 0
17, 99904, Note_off_c, 11, 71, 0
17, 99904, Note_off_c, 11, 76, 0
17, 99904, Note_on_c, 11, 49, 100
17, 99904, Note_on_c, 11, 59, 100
17, 99904, Note_on_c, 11, 65, 100
17, 99904, Note_on_c, 11, 68, 100
17, 99904, Note_on_c, 11, 71, 100
17, 99904, Note_on_c, 11, 76, 100
17, 100032, Note_off_c, 11, 49, 0
17, 100032, Note_off_c, 11, 59, 0
17, 100032, Note_off_c, 11, 65, 0
17, 100032, Note_off_c, 11, 68, 0
17, 100032, Note_off_c, 11, 71, 0
17, 100032, Note_off_c, 11, 76, 0
17, 100032, Note_on_c, 11, 49, 105
17, 100032, Note_on_c, 11, 59, 105
17, 100032, Note_on_c, 11, 65, 105
17, 100032, Note_on_c, 11, 68, 105
17, 100032, Note_on_c, 11, 71, 105
17, 100032, Note_on_c, 11, 76, 105
17, 100096, Note_off_c, 11, 49, 0
17, 100096, Note_off_c, 11, 59, 0
17, 100096, Note_off_c, 11, 65, 0
17, 100096, Note_off_c, 11, 68, 0
17, 100096, Note_off_c, 11, 71, 0
17, 100096, Note_off_c, 11, 76, 0
17, 100096, Note_on_c, 11, 49, 102
17, 100096, Note_on_c, 11, 59, 102
17, 100096, Note_on_c, 11, 65, 102
17, 100096, Note_on_c, 11, 68, 102
17, 100096, Note_on_c, 11, 71, 102
17, 100096, Note_on_c, 11, 76, 102
17, 100160, Note_off_c, 11, 49, 0
17, 100160, Note_off_c, 11, 59, 0
17, 100160, Note_off_c, 11, 65, 0
17, 100160, Note_off_c, 11, 68, 0
17, 100160, Note_off_c, 11, 71, 0
17, 100160, Note_off_c, 11, 76, 0
17, 100160, Note_on_c, 11, 49, 94
17, 100160, Note_on_c, 11, 59, 94
17, 100160, Note_on_c, 11, 65, 94
17, 100160, Note_on_c, 11, 68, 94
17, 100160, Note_on_c, 11, 71, 94
17, 100160, Note_on_c, 11, 76, 94
17, 100224, Note_off_c, 11, 49, 0
17, 100224, Note_off_c, 11, 59, 0
17, 100224, Note_off_c, 11, 65, 0
17, 100224, Note_off_c, 11, 68, 0
17, 100224, Note_off_c, 11, 71, 0
17, 100224, Note_off_c, 11, 76, 0
17, 100224, Note_on_c, 11, 49, 96
17, 100224, Note_on_c, 11, 60, 96
17, 100224, Note_on_c, 11, 66, 96
17, 100224, Note_on_c, 11, 69, 96
17, 100224, Note_on_c, 11, 72, 96
17, 100224, Note_on_c, 11, 76, 96
17, 100352, Note_off_c, 11, 49, 0
17, 100352, Note_off_c, 11, 60, 0
17, 100352, Note_off_c, 11, 66, 0
17, 100352, Note_off_c, 11, 69, 0
17, 100352, Note_off_c, 11, 72, 0
17, 100352, Note_off_c, 11, 76, 0
17, 100352, Note_on_c, 11, 49, 96
17, 100352, Note_on_c, 11, 60, 96
17, 100352, Note_on_c, 11, 66, 96
17, 100352, Note_on_c, 11, 69, 96
17, 100352, Note_on_c, 11, 72, 96
17, 100352, Note_on_c, 11, 76, 96
17, 100480, Note_off_c, 11, 49, 0
17, 100480, Note_off_c, 11, 60, 0
17, 100480, Note_off_c, 11, 66, 0
17, 100480, Note_off_c, 11, 69, 0
17, 100480, Note_off_c, 11, 72, 0
17, 100480, Note_off_c, 11, 76, 0
17, 100480, Note_on_c, 11, 49, 101
17, 100480, Note_on_c, 11, 60, 101
17, 100480, Note_on_c, 11, 66, 101
17, 100480, Note_on_c, 11, 69, 101
17, 100480, Note_on_c, 11, 72, 101
17, 100480, Note_on_c, 11, 76, 101
17, 100608, Note_off_c, 11, 49, 0
17, 100608, Note_off_c, 11, 60, 0
17, 100608, Note_off_c, 11, 66, 0
17, 100608, Note_off_c, 11, 69, 0
17, 100608, Note_off_c, 11, 72, 0
17, 100608, Note_off_c, 11, 76, 0
17, 100608, Note_on_c, 11, 49, 98
17, 100608, Note_on_c, 11, 60, 98
17, 100608, Note_on_c, 11, 66, 98
17, 100608, Note_on_c, 11, 69, 98
17, 100608, Note_on_c, 11, 72, 98
17, 100608, Note_on_c, 11, 76, 98
17, 100672, Note_off_c, 11, 49, 0
17, 100672, Note_off_c, 11, 60, 0
17, 100672, Note_off_c, 11, 66, 0
17, 100672, Note_off_c, 11, 69, 0
17, 100672, Note_off_c, 11, 72, 0
17, 100672, Note_off_c, 11, 76, 0
17, 100672, Note_on_c, 11, 49, 97
17, 100672, Note_on_c, 11, 60, 97
17, 100672, Note_on_c, 11, 66, 97
17, 100672, Note_on_c, 11, 69, 97
17, 100672, Note_on_c, 11, 72, 97
17, 100672, Note_on_c, 11, 76, 97
17, 100800, Note_off_c, 11, 49, 0
17, 100800, Note_off_c, 11, 60, 0
17, 100800, Note_off_c, 11, 66, 0
17, 100800, Note_off_c, 11, 69, 0
17, 100800, Note_off_c, 11, 72, 0
17, 100800, Note_off_c, 11, 76, 0
17, 100800, Note_on_c, 11, 49, 95
17, 100800, Note_on_c, 11, 60, 95
17, 100800, Note_on_c, 11, 66, 95
17, 100800, Note_on_c, 11, 69, 95
17, 100800, Note_on_c, 11, 72, 95
17, 100800, Note_on_c, 11, 76, 95
17, 100928, Note_off_c, 11, 49, 0
17, 100928, Note_off_c, 11, 60, 0
17, 100928, Note_off_c, 11, 66, 0
17, 100928, Note_off_c, 11, 69, 0
17, 100928, Note_off_c, 11, 72, 0
17, 100928, Note_off_c, 11, 76, 0
17, 100928, Note_on_c, 11, 49, 102
17, 100928, Note_on_c, 11, 60, 102
17, 100928, Note_on_c, 11, 66, 102
17, 100928, Note_on_c, 11, 69, 102
17, 100928, Note_on_c, 11, 72, 102
17, 100928, Note_on_c, 11, 76, 102
17, 100992, Note_off_c, 11, 49, 0
17, 100992, Note_off_c, 11, 60, 0
17, 100992, Note_off_c, 11, 66, 0
17, 100992, Note_off_c, 11, 69, 0
17, 100992, Note_off_c, 11, 72, 0
17, 100992, Note_off_c, 11, 76, 0
17, 100992, Note_on_c, 11, 49, 100
17, 100992, Note_on_c, 11, 60, 100
17, 100992, Note_on_c, 11, 66, 100
17, 100992, Note_on_c, 11, 69, 100
17, 100992, Note_on_c, 11, 72, 100
17, 100992, Note_on_c, 11, 76, 100
17, 101120, Note_off_c, 11, 49, 0
17, 101120, Note_off_c, 11, 60, 0
17, 101120, Note_off_c, 11, 66, 0
17, 101120, Note_off_c, 11, 69, 0
17, 101120, Note_off_c, 11, 72, 0
17, 101120, Note_off_c, 11, 76, 0
17, 101120, Note_on_c, 11, 49, 98
17, 101120, Note_on_c, 11, 60, 98
17, 101120, Note_on_c, 11, 66, 98
17, 101120, Note_on_c, 11, 69, 98
17, 101120, Note_on_c, 11, 72, 98
17, 101120, Note_on_c, 11, 76, 98
17, 101248, Note_off_c, 11, 49, 0
17, 101248, Note_off_c, 11, 60, 0
17, 101248, Note_off_c, 11, 66, 0
17, 101248, Note_off_c, 11, 69, 0
17, 101248, Note_off_c, 11, 72, 0
17, 101248, Note_off_c, 11, 76, 0
17, 101248, Note_on_c, 11, 49, 96
17, 101248, Note_on_c, 11, 60, 96
17, 101248, Note_on_c, 11, 66, 96
17, 101248, Note_on_c, 11, 69, 96
17, 101248, Note_on_c, 11, 72, 96
17, 101248, Note_on_c, 11, 76, 96
17, 101312, Note_off_c, 11, 49, 0
17, 101312, Note_off_c, 11, 60, 0
17, 101312, Note_off_c, 11, 66, 0
17, 101312, Note_off_c, 11, 69, 0
17, 101312, Note_off_c, 11, 72, 0
17, 101312, Note_off_c, 11, 76, 0
17, 101312, Note_on_c, 11, 49, 97
17, 101312, Note_on_c, 11, 60, 97
17, 101312, Note_on_c, 11, 66, 97
17, 101312, Note_on_c, 11, 70, 97
17, 101312, Note_on_c, 11, 72, 97
17, 101312, Note_on_c, 11, 76, 97
17, 101440, Note_off_c, 11, 49, 0
17, 101440, Note_off_c, 11, 60, 0
17, 101440, Note_off_c, 11, 66, 0
17, 101440, Note_off_c, 11, 70, 0
17, 101440, Note_off_c, 11, 72, 0
17, 101440, Note_off_c, 11, 76, 0
17, 101440, Note_on_c, 11, 49, 97
17, 101440, Note_on_c, 11, 60, 97
17, 101440, Note_on_c, 11, 66, 97
17, 101440, Note_on_c, 11, 70, 97
17, 101440, Note_on_c, 11, 72, 97
17, 101440, Note_on_c, 11, 76, 97
17, 101568, Note_off_c, 11, 49, 0
17, 101568, Note_off_c, 11, 60, 0
17, 101568, Note_off_c, 11, 66, 0
17, 101568, Note_off_c, 11, 70, 0
17, 101568, Note_off_c, 11, 72, 0
17, 101568, Note_off_c, 11, 76, 0
17, 101568, Note_on_c, 11, 49, 93
17, 101568, Note_on_c, 11, 60, 93
17, 101568, Note_on_c, 11, 66, 93
17, 101568, Note_on_c, 11, 70, 93
17, 101568, Note_on_c, 11, 72, 93
17, 101568, Note_on_c, 11, 76, 93
17, 101632, Note_off_c, 11, 49, 0
17, 101632, Note_off_c, 11, 60, 0
17, 101632, Note_off_c, 11, 66, 0
17, 101632, Note_off_c, 11, 70, 0
17, 101632, Note_off_c, 11, 72, 0
17, 101632, Note_off_c, 11, 76, 0
17, 101632, Note_on_c, 11, 49, 98
17, 101632, Note_on_c, 11, 60, 98
17, 101632, Note_on_c, 11, 66, 98
17, 101632, Note_on_c, 11, 70, 98
17, 101632, Note_on_c, 11, 72, 98
17, 101632, Note_on_c, 11, 76, 98
17, 101760, Note_off_c, 11, 49, 0
17, 101760, Note_off_c, 11, 60, 0
17, 101760, Note_off_c, 11, 66, 0
17, 101760, Note_off_c, 11, 70, 0
17, 101760, Note_off_c, 11, 72, 0
17, 101760, Note_off_c, 11, 76, 0
17, 101760, Note_on_c, 11, 49, 97
17, 101760, Note_on_c, 11, 60, 97
17, 101760, Note_on_c, 11, 66, 97
17, 101760, Note_on_c, 11, 70, 97
17, 101760, Note_on_c, 11, 72, 97
17, 101760, Note_on_c, 11, 76, 97
17, 101888, Note_off_c, 11, 49, 0
17, 101888, Note_off_c, 11, 60, 0
17, 101888, Note_off_c, 11, 66, 0
17, 101888, Note_off_c, 11, 70, 0
17, 101888, Note_off_c, 11, 72, 0
17, 101888, Note_off_c, 11, 76, 0
17, 101888, Note_on_c, 11, 49, 101
17, 101888, Note_on_c, 11, 60, 101
17, 101888, Note_on_c, 11, 66, 101
17, 101888, Note_on_c, 11, 70, 101
17, 101888, Note_on_c, 11, 72, 101
17, 101888, Note_on_c, 11, 76, 101
17, 102016, Note_off_c, 11, 49, 0
17, 102016, Note_off_c, 11, 60, 0
17, 102016, Note_off_c, 11, 66, 0
17, 102016, Note_off_c, 11, 70, 0
17, 102016, Note_off_c, 11, 72, 0
17, 102016, Note_off_c, 11, 76, 0
17, 102016, Note_on_c, 11, 49, 101
17, 102016, Note_on_c, 11, 60, 101
17, 102016, Note_on_c, 11, 66, 101
17, 102016, Note_on_c, 11, 70, 101
17, 102016, Note_on_c, 11, 72, 101
17, 102016, Note_on_c, 11, 76, 101
17, 102144, Note_off_c, 11, 49, 0
17, 102144, Note_off_c, 11, 60, 0
17, 102144, Note_off_c, 11, 66, 0
17, 102144, Note_off_c, 11, 70, 0
17, 102144, Note_off_c, 11, 72, 0
17, 102144, Note_off_c, 11, 76, 0
17, 102144, Note_on_c, 11, 49, 96
17, 102144, Note_on_c, 11, 60, 96
17, 102144, Note_on_c, 11, 66, 96
17, 102144, Note_on_c, 11, 70, 96
17, 102144, Note_on_c, 11, 72, 96
17, 102144, Note_on_c, 11, 76, 96
17, 102272, Note_off_c, 11, 49, 0
17, 102272, Note_off_c, 11, 60, 0
17, 102272, Note_off_c, 11, 66, 0
17, 102272, Note_off_c, 11, 70, 0
17, 102272, Note_off_c, 11, 72, 0
17, 102272, Note_off_c, 11, 76, 0
17, 102272, Note_on_c, 11, 49, 99
17, 102272, Note_on_c, 11, 60, 99
17, 102272, Note_on_c, 11, 66, 99
17, 102272, Note_on_c, 11, 70, 99
17, 102272, Note_on_c, 11, 72, 99
17, 102272, Note_on_c, 11, 76, 99
17, 102400, Note_off_c, 11, 49, 0
17, 102400, Note_off_c, 11, 60, 0
17, 102400, Note_off_c, 11, 66, 0
17, 102400, Note_off_c, 11, 70, 0
17, 102400, Note_off_c, 11, 72, 0
17, 102400, Note_off_c, 11, 76, 0
17, 102400, Note_on_c, 11, 49, 97
17, 102400, Note_on_c, 11, 60, 97
17, 102400, Note_on_c, 11, 66, 97
17, 102400, Note_on_c, 11, 70, 97
17, 102400, Note_on_c, 11, 72, 97
17, 102400, Note_on_c, 11, 76, 97
17, 102528, Note_off_c, 11, 49, 0
17, 102528, Note_off_c, 11, 60, 0
17, 102528, Note_off_c, 11, 66, 0
17, 102528, Note_off_c, 11, 70, 0
17, 102528, Note_off_c, 11, 72, 0
17, 102528, Note_off_c, 11, 76, 0
17, 102528, Note_on_c, 11, 42, 101
17, 102528, Note_on_c, 11, 52, 101
17, 102528, Note_on_c, 11, 66, 101
17, 102528, Note_on_c, 11, 70, 101
17, 102528, Note_on_c, 11, 72, 101
17, 102528, Note_on_c, 11, 76, 101
17, 102656, Note_off_c, 11, 42, 0
17, 102656, Note_off_c, 11, 52, 0
17, 102656, Note_off_c, 11, 66, 0
17, 102656, Note_off_c, 11, 70, 0
17, 102656, Note_off_c, 11, 72, 0
17, 102656, Note_off_c, 11, 76, 0
17, 102656, Note_on_c, 11, 42, 95
17, 102656, Note_on_c, 11, 52, 95
17, 102656, Note_on_c, 11, 66, 95
17, 102656, Note_on_c, 11, 70, 95
17, 102656, Note_on_c, 11, 72, 95
17, 102656, Note_on_c, 11, 76, 95
17, 102784, Note_off_c, 11, 42, 0
17, 102784, Note_off_c, 11, 52, 0
17, 102784, Note_off_c, 11, 66, 0
17, 102784, Note_off_c, 11, 70, 0
17, 102784, Note_off_c, 11, 72, 0
17, 102784, Note_off_c, 11, 76, 0
17, 102784, Note_on_c, 11, 42, 93
17, 102784, Note_on_c, 11, 52, 93
17, 102784, Note_on_c, 11, 66, 93
17, 102784, Note_on_c, 11, 70, 93
17, 102784, Note_on_c, 11, 72, 93
17, 102784, Note_on_c, 11, 76, 93
17, 102912, Note_off_c, 11, 42, 0
17, 102912, Note_off_c, 11, 52, 0
17, 102912, Note_off_c, 11, 66, 0
17, 102912, Note_off_c, 11, 70, 0
17, 102912, Note_off_c, 11, 72, 0
17, 102912, Note_off_c, 11, 76, 0
17, 102912, Note_on_c, 11, 42, 97
17, 102912, Note_on_c, 11, 52, 97
17, 102912, Note_on_c, 11, 66, 97
17, 102912, Note_on_c, 11, 70, 97
17, 102912, Note_on_c, 11, 72, 97
17, 102912, Note_on_c, 11, 76, 97
17, 103040, Note_off_c, 11, 42, 0
17, 103040, Note_off_c, 11, 52, 0
17, 103040, Note_off_c, 11, 66, 0
17, 103040, Note_off_c, 11, 70, 0
17, 103040, Note_off_c, 11, 72, 0
17, 103040, Note_off_c, 11, 76, 0
17, 103040, Note_on_c, 11, 42, 97
17, 103040, Note_on_c, 11, 52, 97
17, 103040, Note_on_c, 11, 66, 97
17, 103040, Note_on_c, 11, 70, 97
17, 103040, Note_on_c, 11, 72, 97
17, 103040, Note_on_c, 11, 76, 97
17, 103168, Note_off_c, 11, 42, 0
17, 103168, Note_off_c, 11, 52, 0
17, 103168, Note_off_c, 11, 66, 0
17, 103168, Note_off_c, 11, 70, 0
17, 103168, Note_off_c, 11, 72, 0
17, 103168, Note_off_c, 11, 76, 0
17, 103168, Note_on_c, 11, 42, 94
17, 103168, Note_on_c, 11, 52, 94
17, 103168, Note_on_c, 11, 66, 94
17, 103168, Note_on_c, 11, 70, 94
17, 103168, Note_on_c, 11, 72, 94
17, 103168, Note_on_c, 11, 76, 94
17, 103296, Note_off_c, 11, 42, 0
17, 103296, Note_off_c, 11, 52, 0
17, 103296, Note_off_c, 11, 66, 0
17, 103296, Note_off_c, 11, 70, 0
17, 103296, Note_off_c, 11, 72, 0
17, 103296, Note_off_c, 11, 76, 0
17, 103296, Note_on_c, 11, 41, 91
17, 103296, Note_on_c, 11, 51, 91
17, 103296, Note_on_c, 11, 63, 91
17, 103296, Note_on_c, 11, 67, 91
17, 103296, Note_on_c, 11, 69, 91
17, 103296, Note_on_c, 11, 73, 91
17, 103424, Note_off_c, 11, 41, 0
17, 103424, Note_off_c, 11, 51, 0
17, 103424, Note_off_c, 11, 63, 0
17, 103424, Note_off_c, 11, 67, 0
17, 103424, Note_off_c, 11, 69, 0
17, 103424, Note_off_c, 11, 73, 0
17, 103424, Note_on_c, 11, 41, 96
17, 103424, Note_on_c, 11, 51, 96
17, 103424, Note_on_c, 11, 63, 96
17, 103424, Note_on_c, 11, 67, 96
17, 103424, Note_on_c, 11, 69, 96
17, 103424, Note_on_c, 11, 73, 96
17, 103552, Note_off_c, 11, 41, 0
17, 103552, Note_off_c, 11, 51, 0
17, 103552, Note_off_c, 11, 63, 0
17, 103552, Note_off_c, 11, 67, 0
17, 103552, Note_off_c, 11, 69, 0
17, 103552, Note_off_c, 11, 73, 0
17, 103552, Note_on_c, 11, 41, 96
17, 103552, Note_on_c, 11, 51, 96
17, 103552, Note_on_c, 11, 63, 96
17, 103552, Note_on_c, 11, 67, 96
17, 103552, Note_on_c, 11, 69, 96
17, 103552, Note_on_c, 11, 73, 96
17, 103680, Note_off_c, 11, 41, 0
17, 103680, Note_off_c, 11, 51, 0
17, 103680, Note_off_c, 11, 63, 0
17, 103680, Note_off_c, 11, 67, 0
17, 103680, Note_off_c, 11, 69, 0
17, 103680, Note_off_c, 11, 73, 0
17, 103680, Note_on_c, 11, 41, 100
17, 103680, Note_on_c, 11, 51, 100
17, 103680, Note_on_c, 11, 63, 100
17, 103680, Note_on_c, 11, 67, 100
17, 103680, Note_on_c, 11, 69, 100
17, 103680, Note_on_c, 11, 73, 100
17, 103808, Note_off_c, 11, 41, 0
17, 103808, Note_off_c, 11, 51, 0
17, 103808, Note_off_c, 11, 63, 0
17, 103808, Note_off_c, 11, 67, 0
17, 103808, Note_off_c, 11, 69, 0
17, 103808, Note_off_c, 11, 73, 0
17, 103808, Note_on_c, 11, 42, 100
17, 103808, Note_on_c, 11, 52, 100
17, 103808, Note_on_c, 11, 64, 100
17, 103808, Note_on_c, 11, 68, 100
17, 103808, Note_on_c, 11, 70, 100
17, 103808, Note_on_c, 11, 73, 100
17, 103936, Note_off_c, 11, 42, 0
17, 103936, Note_off_c, 11, 52, 0
17, 103936, Note_off_c, 11, 64, 0
17, 103936, Note_off_c, 11, 68, 0
17, 103936, Note_off_c, 11, 70, 0
17, 103936, Note_off_c, 11, 73, 0
17, 103936, Note_on_c, 11, 41, 91
17, 103936, Note_on_c, 11, 51, 91
17, 103936, Note_on_c, 11, 63, 91
17, 103936, Note_on_c, 11, 67, 91
17, 103936, Note_on_c, 11, 68, 91
17, 103936, Note_on_c, 11, 73, 91
17, 104064, Note_off_c, 11, 41, 0
17, 104064, Note_off_c, 11, 51, 0
17, 104064, Note_off_c, 11, 63, 0
17, 104064, Note_off_c, 11, 67, 0
17, 104064, Note_off_c, 11, 68, 0
17, 104064, Note_off_c, 11, 73, 0
17, 104064, Note_on_c, 11, 41, 94
17, 104064, Note_on_c, 11, 51, 94
17, 104064, Note_on_c, 11, 63, 94
17, 104064, Note_on_c, 11, 67, 94
17, 104064, Note_on_c, 11, 68, 94
17, 104064, Note_on_c, 11, 73, 94
17, 104192, Note_off_c, 11, 41, 0
17, 104192, Note_off_c, 11, 51, 0
17, 104192, Note_off_c, 11, 63, 0
17, 104192, Note_off_c, 11, 67, 0
17, 104192, Note_off_c, 11, 68, 0
17, 104192, Note_off_c, 11, 73, 0
17, 104192, Note_on_c, 11, 42, 93
17, 104192, Note_on_c, 11, 52, 93
17, 104192, Note_on_c, 11, 64, 93
17, 104192, Note_on_c, 11, 68, 93
17, 104192, Note_on_c, 11, 70, 93
17, 104192, Note_on_c, 11, 73, 93
17, 104320, Note_off_c, 11, 42, 0
17, 104320, Note_off_c, 11, 52, 0
17, 104320, Note_off_c, 11, 64, 0
17, 104320, Note_off_c, 11, 68, 0
17, 104320, Note_off_c, 11, 70, 0
17, 104320, Note_off_c, 11, 73, 0
17, 104320, Note_on_c, 11, 41, 91
17, 104320, Note_on_c, 11, 51, 91
17, 104320, Note_on_c, 11, 63, 91
17, 104320, Note_on_c, 11, 67, 91
17, 104320, Note_on_c, 11, 68, 91
17, 104320, Note_on_c, 11, 73, 91
17, 104448, Note_off_c, 11, 41, 0
17, 104448, Note_off_c, 11, 51, 0
17, 104448, Note_off_c, 11, 63, 0
17, 104448, Note_off_c, 11, 67, 0
17, 104448, Note_off_c, 11, 68, 0
17, 104448, Note_off_c, 11, 73, 0
17, 104448, Note_on_c, 11, 41, 85
17, 104448, Note_on_c, 11, 51, 85
17, 104448, Note_on_c, 11, 63, 85
17, 104448, Note_on_c, 11, 67, 85
17, 104448, Note_on_c, 11, 69, 85
17, 104448, Note_on_c, 11, 73, 85
17, 104576, Note_off_c, 11, 41, 0
17, 104576, Note_off_c, 11, 51, 0
17, 104576, Note_off_c, 11, 63, 0
17, 104576, Note_off_c, 11, 67, 0
17, 104576, Note_off_c, 11, 69, 0
17, 104576, Note_off_c, 11, 73, 0
17, 104576, Note_on_c, 11, 42, 80
17, 104576, Note_on_c, 11, 52, 80
17, 104576, Note_on_c, 11, 64, 80
17, 104576, Note_on_c, 11, 68, 80
17, 104576, Note_on_c, 11, 70, 80
17, 104576, Note_on_c, 11, 73, 80
17, 104704, Note_off_c, 11, 42, 0
17, 104704, Note_off_c, 11, 52, 0
17, 104704, Note_off_c, 11, 64, 0
17, 104704, Note_off_c, 11, 68, 0
17, 104704, Note_off_c, 11, 70, 0
17, 104704, Note_off_c, 11, 73, 0
17, 104704, Note_on_c, 11, 42, 86
17, 104704, Note_on_c, 11, 52, 86
17, 104704, Note_on_c, 11, 64, 86
17, 104704, Note_on_c, 11, 68, 86
17, 104704, Note_on_c, 11, 70, 86
17, 104704, Note_on_c, 11, 73, 86
17, 104832, Note_off_c, 11, 42, 0
17, 104832, Note_off_c, 11, 52, 0
17, 104832, Note_off_c, 11, 64, 0
17, 104832, Note_off_c, 11, 68, 0
17, 104832, Note_off_c, 11, 70, 0
17, 104832, Note_off_c, 11, 73, 0
17, 104832, Note_on_c, 11, 42, 77
17, 104832, Note_on_c, 11, 52, 77
17, 104832, Note_on_c, 11, 64, 77
17, 104832, Note_on_c, 11, 68, 77
17, 104832, Note_on_c, 11, 70, 77
17, 104832, Note_on_c, 11, 73, 77
17, 104960, Note_off_c, 11, 42, 0
17, 104960, Note_off_c, 11, 52, 0
17, 104960, Note_off_c, 11, 64, 0
17, 104960, Note_off_c, 11, 68, 0
17, 104960, Note_off_c, 11, 70, 0
17, 104960, Note_off_c, 11, 73, 0
17, 104960, Note_on_c, 11, 42, 81
17, 104960, Note_on_c, 11, 52, 81
17, 104960, Note_on_c, 11, 64, 81
17, 104960, Note_on_c, 11, 68, 81
17, 104960, Note_on_c, 11, 70, 81
17, 104960, Note_on_c, 11, 73, 81
17, 105088, Note_off_c, 11, 42, 0
17, 105088, Note_off_c, 11, 52, 0
17, 105088, Note_off_c, 11, 64, 0
17, 105088, Note_off_c, 11, 68, 0
17, 105088, Note_off_c, 11, 70, 0
17, 105088, Note_off_c, 11, 73, 0
17, 105088, Note_on_c, 11, 42, 79
17, 105088, Note_on_c, 11, 52, 79
17, 105088, Note_on_c, 11, 64, 79
17, 105088, Note_on_c, 11, 68, 79
17, 105088, Note_on_c, 11, 70, 79
17, 105088, Note_on_c, 11, 73, 79
17, 105216, Note_off_c, 11, 42, 0
17, 105216, Note_off_c, 11, 52, 0
17, 105216, Note_off_c, 11, 64, 0
17, 105216, Note_off_c, 11, 68, 0
17, 105216, Note_off_c, 11, 70, 0
17, 105216, Note_off_c, 11, 73, 0
17, 105216, Note_on_c, 11, 42, 72
17, 105216, Note_on_c, 11, 52, 72
17, 105216, Note_on_c, 11, 64, 72
17, 105216, Note_on_c, 11, 68, 72
17, 105216, Note_on_c, 11, 70, 72
17, 105216, Note_on_c, 11, 73, 72
17, 105344, Note_off_c, 11, 42, 0
17, 105344, Note_off_c, 11, 52, 0
17, 105344, Note_off_c, 11, 64, 0
17, 105344, Note_off_c, 11, 68, 0
17, 105344, Note_off_c, 11, 70, 0
17, 105344, Note_off_c, 11, 73, 0
17, 105344, Note_on_c, 11, 42, 75
17, 105344, Note_on_c, 11, 52, 75
17, 105344, Note_on_c, 11, 64, 75
17, 105344, Note_on_c, 11, 68, 75
17, 105344, Note_on_c, 11, 70, 75
17, 105344, Note_on_c, 11, 73, 75
17, 105472, Note_off_c, 11, 42, 0
17, 105472, Note_off_c, 11, 52, 0
17, 105472, Note_off_c, 11, 64, 0
17, 105472, Note_off_c, 11, 68, 0
17, 105472, Note_off_c, 11, 70, 0
17, 105472, Note_off_c, 11, 73, 0
17, 105472, Note_on_c, 11, 42, 72
17, 105472, Note_on_c, 11, 52, 72
17, 105472, Note_on_c, 11, 64, 72
17, 105472, Note_on_c, 11, 68, 72
17, 105472, Note_on_c, 11, 70, 72
17, 105472, Note_on_c, 11, 73, 72
17, 105600, Note_off_c, 11, 42, 0
17, 105600, Note_off_c, 11, 52, 0
17, 105600, Note_off_c, 11, 64, 0
17, 105600, Note_off_c, 11, 68, 0
17, 105600, Note_off_c, 11, 70, 0
17, 105600, Note_off_c, 11, 73, 0
17, 105600, Note_on_c, 11, 36, 70
17, 105600, Note_on_c, 11, 58, 70
17, 105600, Note_on_c, 11, 64, 70
17, 105600, Note_on_c, 11, 68, 70
17, 105600, Note_on_c, 11, 70, 70
17, 105600, Note_on_c, 11, 73, 70
17, 105728, Note_off_c, 11, 36, 0
17, 105728, Note_off_c, 11, 58, 0
17, 105728, Note_off_c, 11, 64, 0
17, 105728, Note_off_c, 11, 68, 0
17, 105728, Note_off_c, 11, 70, 0
17, 105728, Note_off_c, 11, 73, 0
17, 105728, Note_on_c, 11, 36, 70
17, 105728, Note_on_c, 11, 58, 70
17, 105728, Note_on_c, 11, 64, 70
17, 105728, Note_on_c, 11, 68, 70
17, 105728, Note_on_c, 11, 70, 70
17, 105728, Note_on_c, 11, 73, 70
17, 105856, Note_off_c, 11, 36, 0
17, 105856, Note_off_c, 11, 58, 0
17, 105856, Note_off_c, 11, 64, 0
17, 105856, Note_off_c, 11, 68, 0
17, 105856, Note_off_c, 11, 70, 0
17, 105856, Note_off_c, 11, 73, 0
17, 105856, Note_on_c, 11, 36, 73
17, 105856, Note_on_c, 11, 58, 73
17, 105856, Note_on_c, 11, 64, 73
17, 105856, Note_on_c, 11, 68, 73
17, 105856, Note_on_c, 11, 70, 73
17, 105856, Note_on_c, 11, 73, 73
17, 105984, Note_off_c, 11, 36, 0
17, 105984, Note_off_c, 11, 58, 0
17, 105984, Note_off_c, 11, 64, 0
17, 105984, Note_off_c, 11, 68, 0
17, 105984, Note_off_c, 11, 70, 0
17, 105984, Note_off_c, 11, 73, 0
17, 105984, Note_on_c, 11, 36, 71
17, 105984, Note_on_c, 11, 58, 71
17, 105984, Note_on_c, 11, 64, 71
17, 105984, Note_on_c, 11, 68, 71
17, 105984, Note_on_c, 11, 70, 71
17, 105984, Note_on_c, 11, 73, 71
17, 106112, Note_off_c, 11, 36, 0
17, 106112, Note_off_c, 11, 58, 0
17, 106112, Note_off_c, 11, 64, 0
17, 106112, Note_off_c, 11, 68, 0
17, 106112, Note_off_c, 11, 70, 0
17, 106112, Note_off_c, 11, 73, 0
17, 106112, Note_on_c, 11, 36, 70
17, 106112, Note_on_c, 11, 58, 70
17, 106112, Note_on_c, 11, 64, 70
17, 106112, Note_on_c, 11, 68, 70
17, 106112, Note_on_c, 11, 70, 70
17, 106112, Note_on_c, 11, 73, 70
17, 106240, Note_off_c, 11, 36, 0
17, 106240, Note_off_c, 11, 58, 0
17, 106240, Note_off_c, 11, 64, 0
17, 106240, Note_off_c, 11, 68, 0
17, 106240, Note_off_c, 11, 70, 0
17, 106240, Note_off_c, 11, 73, 0
17, 106240, Note_on_c, 11, 36, 71
17, 106240, Note_on_c, 11, 58, 71
17, 106240, Note_on_c, 11, 64, 71
17, 106240, Note_on_c, 11, 68, 71
17, 106240, Note_on_c, 11, 70, 71
17, 106240, Note_on_c, 11, 73, 71
17, 106368, Note_off_c, 11, 36, 0
17, 106368, Note_off_c, 11, 58, 0
17, 106368, Note_off_c, 11, 64, 0
17, 106368, Note_off_c, 11, 68, 0
17, 106368, Note_off_c, 11, 70, 0
17, 106368, Note_off_c, 11, 73, 0
17, 106368, Note_on_c, 11, 36, 69
17, 106368, Note_on_c, 11, 58, 69
17, 106368, Note_on_c, 11, 64, 69
17, 106368, Note_on_c, 11, 68, 69
17, 106368, Note_on_c, 11, 70, 69
17, 106368, Note_on_c, 11, 73, 69
17, 106496, Note_off_c, 11, 36, 0
17, 106496, Note_off_c, 11, 58, 0
17, 106496, Note_off_c, 11, 64, 0
17, 106496, Note_off_c, 11, 68, 0
17, 106496, Note_off_c, 11, 70, 0
17, 106496, Note_off_c, 11, 73, 0
17, 106496, Note_on_c, 11, 36, 73
17, 106496, Note_on_c, 11, 58, 73
17, 106496, Note_on_c, 11, 64, 73
17, 106496, Note_on_c, 11, 68, 73
17, 106496, Note_on_c, 11, 70, 73
17, 106496, Note_on_c, 11, 73, 73
17, 106624, Note_off_c, 11, 36, 0
17, 106624, Note_off_c, 11, 58, 0
17, 106624, Note_off_c, 11, 64, 0
17, 106624, Note_off_c, 11, 68, 0
17, 106624, Note_off_c, 11, 70, 0
17, 106624, Note_off_c, 11, 73, 0
17, 106624, Note_on_c, 11, 36, 66
17, 106624, Note_on_c, 11, 58, 66
17, 106624, Note_on_c, 11, 64, 66
17, 106624, Note_on_c, 11, 68, 66
17, 106624, Note_on_c, 11, 70, 66
17, 106624, Note_on_c, 11, 73, 66
17, 106752, Note_off_c, 11, 36, 0
17, 106752, Note_off_c, 11, 58, 0
17, 106752, Note_off_c, 11, 64, 0
17, 106752, Note_off_c, 11, 68, 0
17, 106752, Note_off_c, 11, 70, 0
17, 106752, Note_off_c, 11, 73, 0
17, 106752, Note_on_c, 11, 36, 61
17, 106752, Note_on_c, 11, 58, 61
17, 106752, Note_on_c, 11, 64, 61
17, 106752, Note_on_c, 11, 68, 61
17, 106752, Note_on_c, 11, 70, 61
17, 106752, Note_on_c, 11, 73, 61
17, 106880, Note_off_c, 11, 36, 0
17, 106880, Note_off_c, 11, 58, 0
17, 106880, Note_off_c, 11, 64, 0
17, 106880, Note_off_c, 11, 68, 0
17, 106880, Note_off_c, 11, 70, 0
17, 106880, Note_off_c, 11, 73, 0
17, 106880, Note_on_c, 11, 36, 63
17, 106880, Note_on_c, 11, 58, 63
17, 106880, Note_on_c, 11, 64, 63
17, 106880, Note_on_c, 11, 68, 63
17, 106880, Note_on_c, 11, 70, 63
17, 106880, Note_on_c, 11, 73, 63
17, 107008, Note_off_c, 11, 36, 0
17, 107008, Note_off_c, 11, 58, 0
17, 107008, Note_off_c, 11, 64, 0
17, 107008, Note_off_c, 11, 68, 0
17, 107008, Note_off_c, 11, 70, 0
17, 107008, Note_off_c, 11, 73, 0
17, 107008, Note_on_c, 11, 36, 58
17, 107008, Note_on_c, 11, 58, 58
17, 107008, Note_on_c, 11, 64, 58
17, 107008, Note_on_c, 11, 68, 58
17, 107008, Note_on_c, 11, 70, 58
17, 107008, Note_on_c, 11, 73, 58
17, 107136, Note_off_c, 11, 36, 0
17, 107136, Note_off_c, 11, 58, 0
17, 107136, Note_off_c, 11, 64, 0
17, 107136, Note_off_c, 11, 68, 0
17, 107136, Note_off_c, 11, 70, 0
17, 107136, Note_off_c, 11, 73, 0
17, 107136, Note_on_c, 11, 36, 58
17, 107136, Note_on_c, 11, 58, 58
17, 107136, Note_on_c, 11, 64, 58
17, 107136, Note_on_c, 11, 68, 58
17, 107136, Note_on_c, 11, 70, 58
17, 107136, Note_on_c, 11, 73, 58
17, 107264, Note_off_c, 11, 36, 0
17, 107264, Note_off_c, 11, 58, 0
17, 107264, Note_off_c, 11, 64, 0
17, 107264, Note_off_c, 11, 68, 0
17, 107264, Note_off_c, 11, 70, 0
17, 107264, Note_off_c, 11, 73, 0
17, 107264, Note_on_c, 11, 36, 50
17, 107264, Note_on_c, 11, 58, 50
17, 107264, Note_on_c, 11, 64, 50
17, 107264, Note_on_c, 11, 68, 50
17, 107264, Note_on_c, 11, 70, 50
17, 107264, Note_on_c, 11, 73, 50
17, 107392, Note_off_c, 11, 36, 0
17, 107392, Note_off_c, 11, 58, 0
17, 107392, Note_off_c, 11, 64, 0
17, 107392, Note_off_c, 11, 68, 0
17, 107392, Note_off_c, 11, 70, 0
17, 107392, Note_off_c, 11, 73, 0
17, 107392, Note_on_c, 11, 36, 43
17, 107392, Note_on_c, 11, 58, 43
17, 107392, Note_on_c, 11, 64, 43
17, 107392, Note_on_c, 11, 68, 43
17, 107392, Note_on_c, 11, 70, 43
17, 107392, Note_on_c, 11, 73, 43
17, 107520, Note_off_c, 11, 36, 0
17, 107520, Note_off_c, 11, 58, 0
17, 107520, Note_off_c, 11, 64, 0
17, 107520, Note_off_c, 11, 68, 0
17, 107520, Note_off_c, 11, 70, 0
17, 107520, Note_off_c, 11, 73, 0
17, 107520, Note_on_c, 11, 36, 39
17, 107520, Note_on_c, 11, 58, 39
17, 107520, Note_on_c, 11, 64, 39
17, 107520, Note_on_c, 11, 68, 39
17, 107520, Note_on_c, 11, 70, 39
17, 107520, Note_on_c, 11, 73, 39
17, 107648, Note_off_c, 11, 36, 0
17, 107648, Note_off_c, 11, 58, 0
17, 107648, Note_off_c, 11, 64, 0
17, 107648, Note_off_c, 11, 68, 0
17, 107648, Note_off_c, 11, 70, 0
17, 107648, Note_off_c, 11, 73, 0
17, 107648, Note_on_c, 11, 36, 36
17, 107648, Note_on_c, 11, 58, 36
17, 107648, Note_on_c, 11, 64, 36
17, 107648, Note_on_c, 11, 68, 36
17, 107648, Note_on_c, 11, 70, 36
17, 107648, Note_on_c, 11, 73, 36
17, 107776, Note_off_c, 11, 36, 0
17, 107776, Note_off_c, 11, 58, 0
17, 107776, Note_off_c, 11, 64, 0
17, 107776, Note_off_c, 11, 68, 0
17, 107776, Note_off_c, 11, 70, 0
17, 107776, Note_off_c, 11, 73, 0
17, 107776, Note_on_c, 11, 36, 33
17, 107776, Note_on_c, 11, 58, 33
17, 107776, Note_on_c, 11, 64, 33
17, 107776, Note_on_c, 11, 68, 33
17, 107776, Note_on_c, 11, 70, 33
17, 107776, Note_on_c, 11, 73, 33
17, 107904, Note_off_c, 11, 36, 0
17, 107904, Note_off_c, 11, 58, 0
17, 107904, Note_off_c, 11, 64, 0
17, 107904, Note_off_c, 11, 68, 0
17, 107904, Note_off_c, 11, 70, 0
17, 107904, Note_off_c, 11, 73, 0
17, 107904, Note_on_c, 11, 36, 25
17, 107904, Note_on_c, 11, 58, 25
17, 107904, Note_on_c, 11, 64, 25
17, 107904, Note_on_c, 11, 68, 25
17, 107904, Note_on_c, 11, 70, 25
17, 107904, Note_on_c, 11, 73, 25
17, 108032, Note_off_c, 11, 36, 0
17, 108032, Note_off_c, 11, 58, 0
17, 108032, Note_off_c, 11, 64, 0
17, 108032, Note_off_c, 11, 68, 0
17, 108032, Note_off_c, 11, 70, 0
17, 108032, Note_off_c, 11, 73, 0
17, 108032, Note_on_c, 11, 36, 31
17, 108032, Note_on_c, 11, 58, 31
17, 108032, Note_on_c, 11, 64, 31
17, 108032, Note_on_c, 11, 68, 31
17, 108032, Note_on_c, 11, 70, 31
17, 108032, Note_on_c, 11, 73, 31
17, 108160, Note_off_c, 11, 36, 0
17, 108160, Note_off_c, 11, 58, 0
17, 108160, Note_off_c, 11, 64, 0
17, 108160, Note_off_c, 11, 68, 0
17, 108160, Note_off_c, 11, 70, 0
17, 108160, Note_off_c, 11, 73, 0
17, 108160, Note_on_c, 11, 36, 23
17, 108160, Note_on_c, 11, 58, 23
17, 108160, Note_on_c, 11, 64, 23
17, 108160, Note_on_c, 11, 68, 23
17, 108160, Note_on_c, 11, 70, 23
17, 108160, Note_on_c, 11, 73, 23
17, 108288, Note_off_c, 11, 36, 0
17, 108288, Note_off_c, 11, 58, 0
17, 108288, Note_off_c, 11, 64, 0
17, 108288, Note_off_c, 11, 68, 0
17, 108288, Note_off_c, 11, 70, 0
17, 108288, Note_off_c, 11, 73, 0
17, 108288, Note_on_c, 11, 36, 25
17, 108288, Note_on_c, 11, 58, 25
17, 108288, Note_on_c, 11, 64, 25
17, 108288, Note_on_c, 11, 68, 25
17, 108288, Note_on_c, 11, 70, 25
17, 108288, Note_on_c, 11, 73, 25
17, 108416, Note_off_c, 11, 36, 0
17, 108416, Note_off_c, 11, 58, 0
17, 108416, Note_off_c, 11, 64, 0
17, 108416, Note_off_c, 11, 68, 0
17, 108416, Note_off_c, 11, 70, 0
17, 108416, Note_off_c, 11, 73, 0
17, 111680, Note_on_c, 11, 57, 59
17, 111680, Note_on_c, 11, 60, 59
17, 111680, Note_on_c, 11, 65, 59
17, 111808, Note_off_c, 11, 57, 0
17, 111808, Note_off_c, 11, 60, 0
17, 111808, Note_off_c, 11, 65, 0
17, 111936, Note_on_c, 11, 57, 58
17, 111936, Note_on_c, 11, 60, 58
17, 111936, Note_on_c, 11, 65, 58
17, 112064, Note_off_c, 11, 57, 0
17, 112064, Note_off_c, 11, 60, 0
17, 112064, Note_off_c, 11, 65, 0
17, 112256, Note_on_c, 11, 57, 61
17, 112256, Note_on_c, 11, 60, 61
17, 112256, Note_on_c, 11, 65, 61
17, 112384, Note_off_c, 11, 57, 0
17, 112384, Note_off_c, 11, 60, 0
17, 112384, Note_off_c, 11, 65, 0
17, 112448, Note_on_c, 11, 57, 61
17, 112448, Note_on_c, 11, 62, 61
17, 112448, Note_on_c, 11, 65, 61
17, 112448, Note_on_c, 11, 69, 61
17, 112448, Note_on_c, 11, 74, 61
17, 112448, Note_on_c, 11, 77, 61
17, 112576, Note_off_c, 11, 57, 0
17, 112576, Note_off_c, 11, 62, 0
17, 112576, Note_off_c, 11, 65, 0
17, 112576, Note_off_c, 11, 69, 0
17, 112576, Note_off_c, 11, 74, 0
17, 112576, Note_off_c, 11, 77, 0
17, 112640, Note_on_c, 11, 57, 59
17, 112640, Note_on_c, 11, 62, 59
17, 112640, Note_on_c, 11, 65, 59
17, 112640, Note_on_c, 11, 69, 59
17, 112640, Note_on_c, 11, 74, 59
17, 112640, Note_on_c, 11, 77, 59
17, 112768, Note_off_c, 11, 57, 0
17, 112768, Note_off_c, 11, 62, 0
17, 112768, Note_off_c, 11, 65, 0
17, 112768, Note_off_c, 11, 69, 0
17, 112768, Note_off_c, 11, 74, 0
17, 112768, Note_off_c, 11, 77, 0
17, 112896, Note_on_c, 11, 57, 62
17, 112896, Note_on_c, 11, 62, 62
17, 112896, Note_on_c, 11, 65, 62
17, 112896, Note_on_c, 11, 69, 62
17, 112896, Note_on_c, 11, 74, 62
17, 112896, Note_on_c, 11, 77, 62
17, 113024, Note_off_c, 11, 57, 0
17, 113024, Note_off_c, 11, 62, 0
17, 113024, Note_off_c, 11, 65, 0
17, 113024, Note_off_c, 11, 69, 0
17, 113024, Note_off_c, 11, 74, 0
17, 113024, Note_off_c, 11, 77, 0
17, 113216, Note_on_c, 11, 57, 57
17, 113216, Note_on_c, 11, 62, 57
17, 113216, Note_on_c, 11, 65, 57
17, 113216, Note_on_c, 11, 69, 57
17, 113216, Note_on_c, 11, 74, 57
17, 113216, Note_on_c, 11, 77, 57
17, 113344, Note_off_c, 11, 57, 0
17, 113344, Note_off_c, 11, 62, 0
17, 113344, Note_off_c, 11, 65, 0
17, 113344, Note_off_c, 11, 69, 0
17, 113344, Note_off_c, 11, 74, 0
17, 113344, Note_off_c, 11, 77, 0
17, 113472, Note_on_c, 11, 57, 62
17, 113472, Note_on_c, 11, 61, 62
17, 113472, Note_on_c, 11, 66, 62
17, 113472, Note_on_c, 11, 69, 62
17, 113472, Note_on_c, 11, 73, 62
17, 113472, Note_on_c, 11, 78, 62
17, 113600, Note_off_c, 11, 57, 0
17, 113600, Note_off_c, 11, 61, 0
17, 113600, Note_off_c, 11, 66, 0
17, 113600, Note_off_c, 11, 69, 0
17, 113600, Note_off_c, 11, 73, 0
17, 113600, Note_off_c, 11, 78, 0
17, 113728, Note_on_c, 11, 57, 58
17, 113728, Note_on_c, 11, 61, 58
17, 113728, Note_on_c, 11, 66, 58
17, 113728, Note_on_c, 11, 69, 58
17, 113728, Note_on_c, 11, 73, 58
17, 113728, Note_on_c, 11, 78, 58
17, 113856, Note_off_c, 11, 57, 0
17, 113856, Note_off_c, 11, 61, 0
17, 113856, Note_off_c, 11, 66, 0
17, 113856, Note_off_c, 11, 69, 0
17, 113856, Note_off_c, 11, 73, 0
17, 113856, Note_off_c, 11, 78, 0
17, 113984, Note_on_c, 11, 58, 61
17, 113984, Note_on_c, 11, 61, 61
17, 113984, Note_on_c, 11, 65, 61
17, 113984, Note_on_c, 11, 70, 61
17, 113984, Note_on_c, 11, 73, 61
17, 113984, Note_on_c, 11, 77, 61
17, 114112, Note_off_c, 11, 58, 0
17, 114112, Note_off_c, 11, 61, 0
17, 114112, Note_off_c, 11, 65, 0
17, 114112, Note_off_c, 11, 70, 0
17, 114112, Note_off_c, 11, 73, 0
17, 114112, Note_off_c, 11, 77, 0
17, 114304, Note_on_c, 11, 58, 60
17, 114304, Note_on_c, 11, 61, 60
17, 114304, Note_on_c, 11, 65, 60
17, 114304, Note_on_c, 11, 70, 60
17, 114304, Note_on_c, 11, 73, 60
17, 114304, Note_on_c, 11, 77, 60
17, 114432, Note_off_c, 11, 58, 0
17, 114432, Note_off_c, 11, 61, 0
17, 114432, Note_off_c, 11, 65, 0
17, 114432, Note_off_c, 11, 70, 0
17, 114432, Note_off_c, 11, 73, 0
17, 114432, Note_off_c, 11, 77, 0
17, 114496, Note_on_c, 11, 58, 60
17, 114496, Note_on_c, 11, 61, 60
17, 114496, Note_on_c, 11, 65, 60
17, 114496, Note_on_c, 11, 70, 60
17, 114496, Note_on_c, 11, 73, 60
17, 114496, Note_on_c, 11, 77, 60
17, 114624, Note_off_c, 11, 58, 0
17, 114624, Note_off_c, 11, 61, 0
17, 114624, Note_off_c, 11, 65, 0
17, 114624, Note_off_c, 11, 70, 0
17, 114624, Note_off_c, 11, 73, 0
17, 114624, Note_off_c, 11, 77, 0
17, 114752, Note_on_c, 11, 58, 56
17, 114752, Note_on_c, 11, 61, 56
17, 114752, Note_on_c, 11, 65, 56
17, 114752, Note_on_c, 11, 70, 56
17, 114752, Note_on_c, 11, 73, 56
17, 114752, Note_on_c, 11, 77, 56
17, 114880, Note_off_c, 11, 58, 0
17, 114880, Note_off_c, 11, 61, 0
17, 114880, Note_off_c, 11, 65, 0
17, 114880, Note_off_c, 11, 70, 0
17, 114880, Note_off_c, 11, 73, 0
17, 114880, Note_off_c, 11, 77, 0
17, 114944, Note_on_c, 11, 58, 59
17, 114944, Note_on_c, 11, 61, 59
17, 114944, Note_on_c, 11, 65, 59
17, 114944, Note_on_c, 11, 70, 59
17, 114944, Note_on_c, 11, 73, 59
17, 114944, Note_on_c, 11, 77, 59
17, 115072, Note_off_c, 11, 58, 0
17, 115072, Note_off_c, 11, 61, 0
17, 115072, Note_off_c, 11, 65, 0
17, 115072, Note_off_c, 11, 70, 0
17, 115072, Note_off_c, 11, 73, 0
17, 115072, Note_off_c, 11, 77, 0
17, 115136, Note_on_c, 11, 57, 57
17, 115136, Note_on_c, 11, 62, 57
17, 115136, Note_on_c, 11, 65, 57
17, 115136, Note_on_c, 11, 69, 57
17, 115136, Note_on_c, 11, 74, 57
17, 115136, Note_on_c, 11, 77, 57
17, 115264, Note_off_c, 11, 57, 0
17, 115264, Note_off_c, 11, 62, 0
17, 115264, Note_off_c, 11, 65, 0
17, 115264, Note_off_c, 11, 69, 0
17, 115264, Note_off_c, 11, 74, 0
17, 115264, Note_off_c, 11, 77, 0
17, 115520, Note_on_c, 11, 57, 68
17, 115520, Note_on_c, 11, 62, 68
17, 115520, Note_on_c, 11, 65, 68
17, 115520, Note_on_c, 11, 69, 68
17, 115520, Note_on_c, 11, 74, 68
17, 115520, Note_on_c, 11, 77, 68
17, 115648, Note_off_c, 11, 57, 0
17, 115648, Note_off_c, 11, 62, 0
17, 115648, Note_off_c, 11, 65, 0
17, 115648, Note_off_c, 11, 69, 0
17, 115648, Note_off_c, 11, 74, 0
17, 115648, Note_off_c, 11, 77, 0
17, 115840, Note_on_c, 11, 57, 61
17, 115840, Note_on_c, 11, 61, 61
17, 115840, Note_on_c, 11, 66, 61
17, 115840, Note_on_c, 11, 69, 61
17, 115840, Note_on_c, 11, 73, 61
17, 115840, Note_on_c, 11, 78, 61
17, 115968, Note_off_c, 11, 57, 0
17, 115968, Note_off_c, 11, 61, 0
17, 115968, Note_off_c, 11, 66, 0
17, 115968, Note_off_c, 11, 69, 0
17, 115968, Note_off_c, 11, 73, 0
17, 115968, Note_off_c, 11, 78, 0
17, 116096, Note_on_c, 11, 57, 63
17, 116096, Note_on_c, 11, 61, 63
17, 116096, Note_on_c, 11, 66, 63
17, 116096, Note_on_c, 11, 69, 63
17, 116096, Note_on_c, 11, 73, 63
17, 116096, Note_on_c, 11, 78, 63
17, 116224, Note_off_c, 11, 57, 0
17, 116224, Note_off_c, 11, 61, 0
17, 116224, Note_off_c, 11, 66, 0
17, 116224, Note_off_c, 11, 69, 0
17, 116224, Note_off_c, 11, 73, 0
17, 116224, Note_off_c, 11, 78, 0
17, 116288, Note_on_c, 11, 57, 60
17, 116288, Note_on_c, 11, 61, 60
17, 116288, Note_on_c, 11, 66, 60
17, 116288, Note_on_c, 11, 69, 60
17, 116288, Note_on_c, 11, 73, 60
17, 116288, Note_on_c, 11, 78, 60
17, 116416, Note_off_c, 11, 57, 0
17, 116416, Note_off_c, 11, 61, 0
17, 116416, Note_off_c, 11, 66, 0
17, 116416, Note_off_c, 11, 69, 0
17, 116416, Note_off_c, 11, 73, 0
17, 116416, Note_off_c, 11, 78, 0
17, 116544, Note_on_c, 11, 58, 55
17, 116544, Note_on_c, 11, 61, 55
17, 116544, Note_on_c, 11, 65, 55
17, 116544, Note_on_c, 11, 70, 55
17, 116544, Note_on_c, 11, 73, 55
17, 116544, Note_on_c, 11, 77, 55
17, 116672, Note_off_c, 11, 58, 0
17, 116672, Note_off_c, 11, 61, 0
17, 116672, Note_off_c, 11, 65, 0
17, 116672, Note_off_c, 11, 70, 0
17, 116672, Note_off_c, 11, 73, 0
17, 116672, Note_off_c, 11, 77, 0
17, 116736, Note_on_c, 11, 58, 65
17, 116736, Note_on_c, 11, 61, 65
17, 116736, Note_on_c, 11, 65, 65
17, 116736, Note_on_c, 11, 70, 65
17, 116736, Note_on_c, 11, 73, 65
17, 116736, Note_on_c, 11, 77, 65
17, 116864, Note_off_c, 11, 58, 0
17, 116864, Note_off_c, 11, 61, 0
17, 116864, Note_off_c, 11, 65, 0
17, 116864, Note_off_c, 11, 70, 0
17, 116864, Note_off_c, 11, 73, 0
17, 116864, Note_off_c, 11, 77, 0
17, 116928, Note_on_c, 11, 58, 58
17, 116928, Note_on_c, 11, 61, 58
17, 116928, Note_on_c, 11, 65, 58
17, 116928, Note_on_c, 11, 70, 58
17, 116928, Note_on_c, 11, 73, 58
17, 116928, Note_on_c, 11, 77, 58
17, 117056, Note_off_c, 11, 58, 0
17, 117056, Note_off_c, 11, 61, 0
17, 117056, Note_off_c, 11, 65, 0
17, 117056, Note_off_c, 11, 70, 0
17, 117056, Note_off_c, 11, 73, 0
17, 117056, Note_off_c, 11, 77, 0
17, 117120, Note_on_c, 11, 58, 64
17, 117120, Note_on_c, 11, 61, 64
17, 117120, Note_on_c, 11, 65, 64
17, 117120, Note_on_c, 11, 70, 64
17, 117120, Note_on_c, 11, 73, 64
17, 117120, Note_on_c, 11, 77, 64
17, 117248, Note_off_c, 11, 58, 0
17, 117248, Note_off_c, 11, 61, 0
17, 117248, Note_off_c, 11, 65, 0
17, 117248, Note_off_c, 11, 70, 0
17, 117248, Note_off_c, 11, 73, 0
17, 117248, Note_off_c, 11, 77, 0
17, 117440, Note_on_c, 11, 58, 61
17, 117440, Note_on_c, 11, 61, 61
17, 117440, Note_on_c, 11, 65, 61
17, 117440, Note_on_c, 11, 70, 61
17, 117440, Note_on_c, 11, 73, 61
17, 117440, Note_on_c, 11, 77, 61
17, 117568, Note_off_c, 11, 58, 0
17, 117568, Note_off_c, 11, 61, 0
17, 117568, Note_off_c, 11, 65, 0
17, 117568, Note_off_c, 11, 70, 0
17, 117568, Note_off_c, 11, 73, 0
17, 117568, Note_off_c, 11, 77, 0
17, 117632, Note_on_c, 11, 58, 63
17, 117632, Note_on_c, 11, 61, 63
17, 117632, Note_on_c, 11, 65, 63
17, 117632, Note_on_c, 11, 70, 63
17, 117632, Note_on_c, 11, 73, 63
17, 117632, Note_on_c, 11, 77, 63
17, 117760, Note_off_c, 11, 58, 0
17, 117760, Note_off_c, 11, 61, 0
17, 117760, Note_off_c, 11, 65, 0
17, 117760, Note_off_c, 11, 70, 0
17, 117760, Note_off_c, 11, 73, 0
17, 117760, Note_off_c, 11, 77, 0
17, 117888, Note_on_c, 11, 58, 64
17, 117888, Note_on_c, 11, 61, 64
17, 117888, Note_on_c, 11, 65, 64
17, 117888, Note_on_c, 11, 70, 64
17, 117888, Note_on_c, 11, 73, 64
17, 117888, Note_on_c, 11, 77, 64
17, 118016, Note_off_c, 11, 58, 0
17, 118016, Note_off_c, 11, 61, 0
17, 118016, Note_off_c, 11, 65, 0
17, 118016, Note_off_c, 11, 70, 0
17, 118016, Note_off_c, 11, 73, 0
17, 118016, Note_off_c, 11, 77, 0
17, 118080, Note_on_c, 11, 58, 57
17, 118080, Note_on_c, 11, 61, 57
17, 118080, Note_on_c, 11, 65, 57
17, 118080, Note_on_c, 11, 70, 57
17, 118080, Note_on_c, 11, 73, 57
17, 118080, Note_on_c, 11, 77, 57
17, 118208, Note_off_c, 11, 58, 0
17, 118208, Note_off_c, 11, 61, 0
17, 118208, Note_off_c, 11, 65, 0
17, 118208, Note_off_c, 11, 70, 0
17, 118208, Note_off_c, 11, 73, 0
17, 118208, Note_off_c, 11, 77, 0
17, 118272, Note_on_c, 11, 58, 63
17, 118272, Note_on_c, 11, 61, 63
17, 118272, Note_on_c, 11, 65, 63
17, 118272, Note_on_c, 11, 70, 63
17, 118272, Note_on_c, 11, 73, 63
17, 118272, Note_on_c, 11, 77, 63
17, 118400, Note_off_c, 11, 58, 0
17, 118400, Note_off_c, 11, 61, 0
17, 118400, Note_off_c, 11, 65, 0
17, 118400, Note_off_c, 11, 70, 0
17, 118400, Note_off_c, 11, 73, 0
17, 118400, Note_off_c, 11, 77, 0
17, 118464, Note_on_c, 11, 58, 61
17, 118464, Note_on_c, 11, 61, 61
17, 118464, Note_on_c, 11, 65, 61
17, 118464, Note_on_c, 11, 70, 61
17, 118464, Note_on_c, 11, 73, 61
17, 118464, Note_on_c, 11, 77, 61
17, 118592, Note_off_c, 11, 58, 0
17, 118592, Note_off_c, 11, 61, 0
17, 118592, Note_off_c, 11, 65, 0
17, 118592, Note_off_c, 11, 70, 0
17, 118592, Note_off_c, 11, 73, 0
17, 118592, Note_off_c, 11, 77, 0
17, 118784, Note_on_c, 11, 58, 63
17, 118784, Note_on_c, 11, 61, 63
17, 118784, Note_on_c, 11, 65, 63
17, 118784, Note_on_c, 11, 70, 63
17, 118784, Note_on_c, 11, 73, 63
17, 118784, Note_on_c, 11, 77, 63
17, 118912, Note_off_c, 11, 58, 0
17, 118912, Note_off_c, 11, 61, 0
17, 118912, Note_off_c, 11, 65, 0
17, 118912, Note_off_c, 11, 70, 0
17, 118912, Note_off_c, 11, 73, 0
17, 118912, Note_off_c, 11, 77, 0
17, 118976, Note_on_c, 11, 58, 60
17, 118976, Note_on_c, 11, 61, 60
17, 118976, Note_on_c, 11, 65, 60
17, 118976, Note_on_c, 11, 70, 60
17, 118976, Note_on_c, 11, 73, 60
17, 118976, Note_on_c, 11, 77, 60
17, 119104, Note_off_c, 11, 58, 0
17, 119104, Note_off_c, 11, 61, 0
17, 119104, Note_off_c, 11, 65, 0
17, 119104, Note_off_c, 11, 70, 0
17, 119104, Note_off_c, 11, 73, 0
17, 119104, Note_off_c, 11, 77, 0
17, 119168, Note_on_c, 11, 58, 63
17, 119168, Note_on_c, 11, 61, 63
17, 119168, Note_on_c, 11, 65, 63
17, 119168, Note_on_c, 11, 70, 63
17, 119168, Note_on_c, 11, 73, 63
17, 119168, Note_on_c, 11, 77, 63
17, 119296, Note_off_c, 11, 58, 0
17, 119296, Note_off_c, 11, 61, 0
17, 119296, Note_off_c, 11, 65, 0
17, 119296, Note_off_c, 11, 70, 0
17, 119296, Note_off_c, 11, 73, 0
17, 119296, Note_off_c, 11, 77, 0
17, 119360, Note_on_c, 11, 58, 61
17, 119360, Note_on_c, 11, 61, 61
17, 119360, Note_on_c, 11, 65, 61
17, 119360, Note_on_c, 11, 70, 61
17, 119360, Note_on_c, 11, 73, 61
17, 119360, Note_on_c, 11, 77, 61
17, 119488, Note_off_c, 11, 58, 0
17, 119488, Note_off_c, 11, 61, 0
17, 119488, Note_off_c, 11, 65, 0
17, 119488, Note_off_c, 11, 70, 0
17, 119488, Note_off_c, 11, 73, 0
17, 119488, Note_off_c, 11, 77, 0
17, 119680, Note_on_c, 11, 58, 59
17, 119680, Note_on_c, 11, 61, 59
17, 119680, Note_on_c, 11, 65, 59
17, 119680, Note_on_c, 11, 70, 59
17, 119680, Note_on_c, 11, 73, 59
17, 119680, Note_on_c, 11, 77, 59
17, 119808, Note_off_c, 11, 58, 0
17, 119808, Note_off_c, 11, 61, 0
17, 119808, Note_off_c, 11, 65, 0
17, 119808, Note_off_c, 11, 70, 0
17, 119808, Note_off_c, 11, 73, 0
17, 119808, Note_off_c, 11, 77, 0
17, 119872, Note_on_c, 11, 58, 59
17, 119872, Note_on_c, 11, 61, 59
17, 119872, Note_on_c, 11, 65, 59
17, 119872, Note_on_c, 11, 70, 59
17, 119872, Note_on_c, 11, 73, 59
17, 119872, Note_on_c, 11, 77, 59
17, 120000, Note_off_c, 11, 58, 0
17, 120000, Note_off_c, 11, 61, 0
17, 120000, Note_off_c, 11, 65, 0
17, 120000, Note_off_c, 11, 70, 0
17, 120000, Note_off_c, 11, 73, 0
17, 120000, Note_off_c, 11, 77, 0
17, 120064, Note_on_c, 11, 58, 59
17, 120064, Note_on_c, 11, 61, 59
17, 120064, Note_on_c, 11, 65, 59
17, 120064, Note_on_c, 11, 70, 59
17, 120064, Note_on_c, 11, 73, 59
17, 120064, Note_on_c, 11, 77, 59
17, 120192, Note_off_c, 11, 58, 0
17, 120192, Note_off_c, 11, 61, 0
17, 120192, Note_off_c, 11, 65, 0
17, 120192, Note_off_c, 11, 70, 0
17, 120192, Note_off_c, 11, 73, 0
17, 120192, Note_off_c, 11, 77, 0
17, 120256, Note_on_c, 11, 58, 57
17, 120256, Note_on_c, 11, 61, 57
17, 120256, Note_on_c, 11, 65, 57
17, 120256, Note_on_c, 11, 70, 57
17, 120256, Note_on_c, 11, 73, 57
17, 120256, Note_on_c, 11, 77, 57
17, 120384, Note_off_c, 11, 58, 0
17, 120384, Note_off_c, 11, 61, 0
17, 120384, Note_off_c, 11, 65, 0
17, 120384, Note_off_c, 11, 70, 0
17, 120384, Note_off_c, 11, 73, 0
17, 120384, Note_off_c, 11, 77, 0
17, 121600, Note_on_c, 11, 69, 67
17, 121600, Note_on_c, 11, 76, 67
17, 121600, Note_on_c, 11, 81, 67
17, 121600, Note_on_c, 11, 88, 67
17, 121664, Note_off_c, 11, 69, 0
17, 121664, Note_off_c, 11, 76, 0
17, 121664, Note_off_c, 11, 81, 0
17, 121664, Note_off_c, 11, 88, 0
17, 122240, Note_on_c, 11, 69, 63
17, 122240, Note_on_c, 11, 76, 63
17, 122240, Note_on_c, 11, 81, 63
17, 122240, Note_on_c, 11, 88, 63
17, 122304, Note_off_c, 11, 69, 0
17, 122304, Note_off_c, 11, 76, 0
17, 122304, Note_off_c, 11, 81, 0
17, 122304, Note_off_c, 11, 88, 0
17, 122880, Note_on_c, 11, 69, 66
17, 122880, Note_on_c, 11, 76, 66
17, 122880, Note_on_c, 11, 81, 66
17, 122880, Note_on_c, 11, 88, 66
17, 122944, Note_off_c, 11, 69, 0
17, 122944, Note_off_c, 11, 76, 0
17, 122944, Note_off_c, 11, 81, 0
17, 122944, Note_off_c, 11, 88, 0
17, 123584, Note_on_c, 11, 69, 62
17, 123584, Note_on_c, 11, 76, 62
17, 123584, Note_on_c, 11, 81, 62
17, 123584, Note_on_c, 11, 88, 62
17, 123648, Note_off_c, 11, 69, 0
17, 123648, Note_off_c, 11, 76, 0
17, 123648, Note_off_c, 11, 81, 0
17, 123648, Note_off_c, 11, 88, 0
17, 124224, Note_on_c, 11, 69, 66
17, 124224, Note_on_c, 11, 76, 66
17, 124224, Note_on_c, 11, 81, 66
17, 124224, Note_on_c, 11, 88, 66
17, 124288, Note_off_c, 11, 69, 0
17, 124288, Note_off_c, 11, 76, 0
17, 124288, Note_off_c, 11, 81, 0
17, 124288, Note_off_c, 11, 88, 0
17, 124992, Note_on_c, 11, 69, 64
17, 124992, Note_on_c, 11, 76, 64
17, 124992, Note_on_c, 11, 81, 64
17, 124992, Note_on_c, 11, 88, 64
17, 125056, Note_off_c, 11, 69, 0
17, 125056, Note_off_c, 11, 76, 0
17, 125056, Note_off_c, 11, 81, 0
17, 125056, Note_off_c, 11, 88, 0
17, 125120, Note_on_c, 11, 76, 66
17, 125120, Note_on_c, 11, 81, 66
17, 125120, Note_on_c, 11, 88, 66
17, 125120, Note_on_c, 11, 93, 66
17, 125184, Note_off_c, 11, 76, 0
17, 125184, Note_off_c, 11, 81, 0
17, 125184, Note_off_c, 11, 88, 0
17, 125184, Note_off_c, 11, 93, 0
17, 125504, Note_on_c, 11, 69, 63
17, 125504, Note_on_c, 11, 76, 63
17, 125504, Note_on_c, 11, 81, 63
17, 125504, Note_on_c, 11, 88, 63
17, 125568, Note_off_c, 11, 69, 0
17, 125568, Note_off_c, 11, 76, 0
17, 125568, Note_off_c, 11, 81, 0
17, 125568, Note_off_c, 11, 88, 0
17, 125632, Note_on_c, 11, 76, 67
17, 125632, Note_on_c, 11, 81, 67
17, 125632, Note_on_c, 11, 88, 67
17, 125632, Note_on_c, 11, 93, 67
17, 125696, Note_off_c, 11, 76, 0
17, 125696, Note_off_c, 11, 81, 0
17, 125696, Note_off_c, 11, 88, 0
17, 125696, Note_off_c, 11, 93, 0
17, 126208, Note_on_c, 11, 69, 67
17, 126208, Note_on_c, 11, 76, 67
17, 126208, Note_on_c, 11, 81, 67
17, 126208, Note_on_c, 11, 88, 67
17, 126272, Note_off_c, 11, 69, 0
17, 126272, Note_off_c, 11, 76, 0
17, 126272, Note_off_c, 11, 81, 0
17, 126272, Note_off_c, 11, 88, 0
17, 126336, Note_on_c, 11, 76, 66
17, 126336, Note_on_c, 11, 81, 66
17, 126336, Note_on_c, 11, 88, 66
17, 126336, Note_on_c, 11, 93, 66
17, 126400, Note_off_c, 11, 76, 0
17, 126400, Note_off_c, 11, 81, 0
17, 126400, Note_off_c, 11, 88, 0
17, 126400, Note_off_c, 11, 93, 0
17, 126400, Note_on_c, 11, 69, 62
17, 126400, Note_on_c, 11, 76, 62
17, 126400, Note_on_c, 11, 81, 62
17, 126400, Note_on_c, 11, 88, 62
17, 126464, Note_off_c, 11, 69, 0
17, 126464, Note_off_c, 11, 76, 0
17, 126464, Note_off_c, 11, 81, 0
17, 126464, Note_off_c, 11, 88, 0
17, 126592, Note_on_c, 11, 76, 63
17, 126592, Note_on_c, 11, 81, 63
17, 126592, Note_on_c, 11, 88, 63
17, 126592, Note_on_c, 11, 93, 63
17, 126656, Note_off_c, 11, 76, 0
17, 126656, Note_off_c, 11, 81, 0
17, 126656, Note_off_c, 11, 88, 0
17, 126656, Note_off_c, 11, 93, 0
17, 127040, Note_on_c, 11, 69, 63
17, 127040, Note_on_c, 11, 76, 63
17, 127040, Note_on_c, 11, 81, 63
17, 127040, Note_on_c, 11, 88, 63
17, 127104, Note_off_c, 11, 69, 0
17, 127104, Note_off_c, 11, 76, 0
17, 127104, Note_off_c, 11, 81, 0
17, 127104, Note_off_c, 11, 88, 0
17, 127104, Note_on_c, 11, 76, 80
17, 127104, Note_on_c, 11, 81, 80
17, 127104, Note_on_c, 11, 88, 80
17, 127104, Note_on_c, 11, 93, 80
17, 127168, Note_off_c, 11, 76, 0
17, 127168, Note_off_c, 11, 81, 0
17, 127168, Note_off_c, 11, 88, 0
17, 127168, Note_off_c, 11, 93, 0
17, 127232, Note_on_c, 11, 69, 65
17, 127232, Note_on_c, 11, 76, 65
17, 127232, Note_on_c, 11, 81, 65
17, 127232, Note_on_c, 11, 88, 65
17, 127296, Note_off_c, 11, 69, 0
17, 127296, Note_off_c, 11, 76, 0
17, 127296, Note_off_c, 11, 81, 0
17, 127296, Note_off_c, 11, 88, 0
17, 127360, Note_on_c, 11, 76, 64
17, 127360, Note_on_c, 11, 81, 64
17, 127360, Note_on_c, 11, 88, 64
17, 127360, Note_on_c, 11, 93, 64
17, 127424, Note_off_c, 11, 76, 0
17, 127424, Note_off_c, 11, 81, 0
17, 127424, Note_off_c, 11, 88, 0
17, 127424, Note_off_c, 11, 93, 0
17, 131840, Note_on_c, 11, 70, 76
17, 131840, Note_on_c, 11, 78, 76
17, 131840, Note_on_c, 11, 82, 76
17, 131840, Note_on_c, 11, 85, 76
17, 131840, Note_on_c, 11, 90, 76
17, 131840, Note_on_c, 11, 94, 76
17, 131872, Note_off_c, 11, 70, 0
17, 131872, Note_off_c, 11, 78, 0
17, 131872, Note_off_c, 11, 82, 0
17, 131872, Note_off_c, 11, 85, 0
17, 131872, Note_off_c, 11, 90, 0
17, 131872, Note_off_c, 11, 94, 0
17, 132096, Note_on_c, 11, 70, 78
17, 132096, Note_on_c, 11, 78, 78
17, 132096, Note_on_c, 11, 82, 78
17, 132096, Note_on_c, 11, 85, 78
17, 132096, Note_on_c, 11, 90, 78
17, 132096, Note_on_c, 11, 94, 78
17, 132352, Note_off_c, 11, 70, 0
17, 132352, Note_off_c, 11, 78, 0
17, 132352, Note_off_c, 11, 82, 0
17, 132352, Note_off_c, 11, 85, 0
17, 132352, Note_off_c, 11, 90, 0
17, 132352, Note_off_c, 11, 94, 0
17, 132352, Note_on_c, 11, 70, 84
17, 132352, Note_on_c, 11, 78, 84
17, 132352, Note_on_c, 11, 82, 84
17, 132352, Note_on_c, 11, 85, 84
17, 132352, Note_on_c, 11, 90, 84
17, 132352, Note_on_c, 11, 94, 84
17, 132384, Note_off_c, 11, 70, 0
17, 132384, Note_off_c, 11, 78, 0
17, 132384, Note_off_c, 11, 82, 0
17, 132384, Note_off_c, 11, 85, 0
17, 132384, Note_off_c, 11, 90, 0
17, 132384, Note_off_c, 11, 94, 0
17, 132608, Note_on_c, 11, 70, 84
17, 132608, Note_on_c, 11, 78, 84
17, 132608, Note_on_c, 11, 82, 84
17, 132608, Note_on_c, 11, 85, 84
17, 132608, Note_on_c, 11, 90, 84
17, 132608, Note_on_c, 11, 94, 84
17, 132864, Note_off_c, 11, 70, 0
17, 132864, Note_off_c, 11, 78, 0
17, 132864, Note_off_c, 11, 82, 0
17, 132864, Note_off_c, 11, 85, 0
17, 132864, Note_off_c, 11, 90, 0
17, 132864, Note_off_c, 11, 94, 0
17, 133888, Note_on_c, 11, 70, 78
17, 133888, Note_on_c, 11, 78, 78
17, 133888, Note_on_c, 11, 82, 78
17, 133888, Note_on_c, 11, 85, 78
17, 133888, Note_on_c, 11, 90, 78
17, 133888, Note_on_c, 11, 94, 78
17, 134144, Note_off_c, 11, 70, 0
17, 134144, Note_off_c, 11, 78, 0
17, 134144, Note_off_c, 11, 82, 0
17, 134144, Note_off_c, 11, 85, 0
17, 134144, Note_off_c, 11, 90, 0
17, 134144, Note_off_c, 11, 94, 0
17, 134144, Note_on_c, 11, 70, 86
17, 134144, Note_on_c, 11, 78, 86
17, 134144, Note_on_c, 11, 82, 86
17, 134144, Note_on_c, 11, 85, 86
17, 134144, Note_on_c, 11, 90, 86
17, 134144, Note_on_c, 11, 94, 86
17, 134176, Note_off_c, 11, 70, 0
17, 134176, Note_off_c, 11, 78, 0
17, 134176, Note_off_c, 11, 82, 0
17, 134176, Note_off_c, 11, 85, 0
17, 134176, Note_off_c, 11, 90, 0
17, 134176, Note_off_c, 11, 94, 0
17, 134400, Note_on_c, 11, 70, 73
17, 134400, Note_on_c, 11, 78, 73
17, 134400, Note_on_c, 11, 82, 73
17, 134400, Note_on_c, 11, 85, 73
17, 134400, Note_on_c, 11, 90, 73
17, 134400, Note_on_c, 11, 94, 73
17, 134432, Note_off_c, 11, 70, 0
17, 134432, Note_off_c, 11, 78, 0
17, 134432, Note_off_c, 11, 82, 0
17, 134432, Note_off_c, 11, 85, 0
17, 134432, Note_off_c, 11, 90, 0
17, 134432, Note_off_c, 11, 94, 0
17, 134656, Note_on_c, 11, 70, 83
17, 134656, Note_on_c, 11, 78, 83
17, 134656, Note_on_c, 11, 82, 83
17, 134656, Note_on_c, 11, 85, 83
17, 134656, Note_on_c, 11, 90, 83
17, 134656, Note_on_c, 11, 94, 83
17, 134912, Note_off_c, 11, 70, 0
17, 134912, Note_off_c, 11, 78, 0
17, 134912, Note_off_c, 11, 82, 0
17, 134912, Note_off_c, 11, 85, 0
17, 134912, Note_off_c, 11, 90, 0
17, 134912, Note_off_c, 11, 94, 0
17, 135936, Note_on_c, 11, 70, 82
17, 135936, Note_on_c, 11, 78, 82
17, 135936, Note_on_c, 11, 82, 82
17, 135936, Note_on_c, 11, 85, 82
17, 135936, Note_on_c, 11, 90, 82
17, 135936, Note_on_c, 11, 94, 82
17, 136192, Note_off_c, 11, 70, 0
17, 136192, Note_off_c, 11, 78, 0
17, 136192, Note_off_c, 11, 82, 0
17, 136192, Note_off_c, 11, 85, 0
17, 136192, Note_off_c, 11, 90, 0
17, 136192, Note_off_c, 11, 94, 0
17, 136192, Note_on_c, 11, 70, 84
17, 136192, Note_on_c, 11, 78, 84
17, 136192, Note_on_c, 11, 82, 84
17, 136192, Note_on_c, 11, 85, 84
17, 136192, Note_on_c, 11, 90, 84
17, 136192, Note_on_c, 11, 94, 84
17, 136224, Note_off_c, 11, 70, 0
17, 136224, Note_off_c, 11, 78, 0
17, 136224, Note_off_c, 11, 82, 0
17, 136224, Note_off_c, 11, 85, 0
17, 136224, Note_off_c, 11, 90, 0
17, 136224, Note_off_c, 11, 94, 0
17, 136960, Note_on_c, 11, 70, 73
17, 136960, Note_on_c, 11, 78, 73
17, 136960, Note_on_c, 11, 82, 73
17, 136960, Note_on_c, 11, 85, 73
17, 136960, Note_on_c, 11, 90, 73
17, 136960, Note_on_c, 11, 94, 73
17, 136992, Note_off_c, 11, 70, 0
17, 136992, Note_off_c, 11, 78, 0
17, 136992, Note_off_c, 11, 82, 0
17, 136992, Note_off_c, 11, 85, 0
17, 136992, Note_off_c, 11, 90, 0
17, 136992, Note_off_c, 11, 94, 0
17, 137216, Note_on_c, 11, 70, 85
17, 137216, Note_on_c, 11, 78, 85
17, 137216, Note_on_c, 11, 82, 85
17, 137216, Note_on_c, 11, 85, 85
17, 137216, Note_on_c, 11, 90, 85
17, 137216, Note_on_c, 11, 94, 85
17, 137472, Note_off_c, 11, 70, 0
17, 137472, Note_off_c, 11, 78, 0
17, 137472, Note_off_c, 11, 82, 0
17, 137472, Note_off_c, 11, 85, 0
17, 137472, Note_off_c, 11, 90, 0
17, 137472, Note_off_c, 11, 94, 0
17, 137472, Note_on_c, 11, 70, 80
17, 137472, Note_on_c, 11, 78, 80
17, 137472, Note_on_c, 11, 82, 80
17, 137472, Note_on_c, 11, 85, 80
17, 137472, Note_on_c, 11, 90, 80
17, 137472, Note_on_c, 11, 94, 80
17, 137504, Note_off_c, 11, 70, 0
17, 137504, Note_off_c, 11, 78, 0
17, 137504, Note_off_c, 11, 82, 0
17, 137504, Note_off_c, 11, 85, 0
17, 137504, Note_off_c, 11, 90, 0
17, 137504, Note_off_c, 11, 94, 0
17, 137728, Note_on_c, 11, 70, 88
17, 137728, Note_on_c, 11, 78, 88
17, 137728, Note_on_c, 11, 82, 88
17, 137728, Note_on_c, 11, 85, 88
17, 137728, Note_on_c, 11, 90, 88
17, 137728, Note_on_c, 11, 94, 88
17, 137984, Note_off_c, 11, 70, 0
17, 137984, Note_off_c, 11, 78, 0
17, 137984, Note_off_c, 11, 82, 0
17, 137984, Note_off_c, 11, 85, 0
17, 137984, Note_off_c, 11, 90, 0
17, 137984, Note_off_c, 11, 94, 0
17, 139008, Note_on_c, 11, 70, 83
17, 139008, Note_on_c, 11, 78, 83
17, 139008, Note_on_c, 11, 82, 83
17, 139008, Note_on_c, 11, 85, 83
17, 139008, Note_on_c, 11, 90, 83
17, 139008, Note_on_c, 11, 94, 83
17, 139264, Note_off_c, 11, 70, 0
17, 139264, Note_off_c, 11, 78, 0
17, 139264, Note_off_c, 11, 82, 0
17, 139264, Note_off_c, 11, 85, 0
17, 139264, Note_off_c, 11, 90, 0
17, 139264, Note_off_c, 11, 94, 0
17, 139264, Note_on_c, 11, 70, 83
17, 139264, Note_on_c, 11, 78, 83
17, 139264, Note_on_c, 11, 82, 83
17, 139264, Note_on_c, 11, 85, 83
17, 139264, Note_on_c, 11, 90, 83
17, 139264, Note_on_c, 11, 94, 83
17, 139520, Note_off_c, 11, 70, 0
17, 139520, Note_off_c, 11, 78, 0
17, 139520, Note_off_c, 11, 82, 0
17, 139520, Note_off_c, 11, 85, 0
17, 139520, Note_off_c, 11, 90, 0
17, 139520, Note_off_c, 11, 94, 0
17, 139520, Note_on_c, 11, 70, 84
17, 139520, Note_on_c, 11, 78, 84
17, 139520, Note_on_c, 11, 82, 84
17, 139520, Note_on_c, 11, 85, 84
17, 139520, Note_on_c, 11, 90, 84
17, 139520, Note_on_c, 11, 94, 84
17, 139552, Note_off_c, 11, 70, 0
17, 139552, Note_off_c, 11, 78, 0
17, 139552, Note_off_c, 11, 82, 0
17, 139552, Note_off_c, 11, 85, 0
17, 139552, Note_off_c, 11, 90, 0
17, 139552, Note_off_c, 11, 94, 0
17, 139776, Note_on_c, 11, 70, 87
17, 139776, Note_on_c, 11, 78, 87
17, 139776, Note_on_c, 11, 82, 87
17, 139776, Note_on_c, 11, 85, 87
17, 139776, Note_on_c, 11, 90, 87
17, 139776, Note_on_c, 11, 94, 87
17, 140032, Note_off_c, 11, 70, 0
17, 140032, Note_off_c, 11, 78, 0
17, 140032, Note_off_c, 11, 82, 0
17, 140032, Note_off_c, 11, 85, 0
17, 140032, Note_off_c, 11, 90, 0
17, 140032, Note_off_c, 11, 94, 0
17, 141056, Note_on_c, 11, 70, 81
17, 141056, Note_on_c, 11, 78, 81
17, 141056, Note_on_c, 11, 82, 81
17, 141056, Note_on_c, 11, 85, 81
17, 141056, Note_on_c, 11, 90, 81
17, 141056, Note_on_c, 11, 94, 81
17, 141312, Note_off_c, 11, 70, 0
17, 141312, Note_off_c, 11, 78, 0
17, 141312, Note_off_c, 11, 82, 0
17, 141312, Note_off_c, 11, 85, 0
17, 141312, Note_off_c, 11, 90, 0
17, 141312, Note_off_c, 11, 94, 0
17, 141312, Note_on_c, 11, 69, 102
17, 141312, Note_on_c, 11, 78, 102
17, 141312, Note_on_c, 11, 81, 102
17, 141312, Note_on_c, 11, 86, 102
17, 141312, Note_on_c, 11, 90, 102
17, 141312, Note_on_c, 11, 93, 102
17, 141376, Note_off_c, 11, 69, 0
17, 141376, Note_off_c, 11, 78, 0
17, 141376, Note_off_c, 11, 81, 0
17, 141376, Note_off_c, 11, 86, 0
17, 141376, Note_off_c, 11, 90, 0
17, 141376, Note_off_c, 11, 93, 0
17, 141568, Note_on_c, 11, 69, 102
17, 141568, Note_on_c, 11, 78, 102
17, 141568, Note_on_c, 11, 81, 102
17, 141568, Note_on_c, 11, 86, 102
17, 141568, Note_on_c, 11, 90, 102
17, 141568, Note_on_c, 11, 93, 102
17, 141632, Note_off_c, 11, 69, 0
17, 141632, Note_off_c, 11, 78, 0
17, 141632, Note_off_c, 11, 81, 0
17, 141632, Note_off_c, 11, 86, 0
17, 141632, Note_off_c, 11, 90, 0
17, 141632, Note_off_c, 11, 93, 0
17, 141824, Note_on_c, 11, 69, 104
17, 141824, Note_on_c, 11, 78, 104
17, 141824, Note_on_c, 11, 81, 104
17, 141824, Note_on_c, 11, 86, 104
17, 141824, Note_on_c, 11, 90, 104
17, 141824, Note_on_c, 11, 93, 104
17, 141888, Note_off_c, 11, 69, 0
17, 141888, Note_off_c, 11, 78, 0
17, 141888, Note_off_c, 11, 81, 0
17, 141888, Note_off_c, 11, 86, 0
17, 141888, Note_off_c, 11, 90, 0
17, 141888, Note_off_c, 11, 93, 0
17, 142592, Note_on_c, 11, 69, 100
17, 142592, Note_on_c, 11, 78, 100
17, 142592, Note_on_c, 11, 81, 100
17, 142592, Note_on_c, 11, 86, 100
17, 142592, Note_on_c, 11, 90, 100
17, 142592, Note_on_c, 11, 93, 100
17, 142656, Note_off_c, 11, 69, 0
17, 142656, Note_off_c, 11, 78, 0
17, 142656, Note_off_c, 11, 81, 0
17, 142656, Note_off_c, 11, 86, 0
17, 142656, Note_off_c, 11, 90, 0
17, 142656, Note_off_c, 11, 93, 0
17, 142848, Note_on_c, 11, 69, 103
17, 142848, Note_on_c, 11, 78, 103
17, 142848, Note_on_c, 11, 81, 103
17, 142848, Note_on_c, 11, 86, 103
17, 142848, Note_on_c, 11, 90, 103
17, 142848, Note_on_c, 11, 93, 103
17, 142912, Note_off_c, 11, 69, 0
17, 142912, Note_off_c, 11, 78, 0
17, 142912, Note_off_c, 11, 81, 0
17, 142912, Note_off_c, 11, 86, 0
17, 142912, Note_off_c, 11, 90, 0
17, 142912, Note_off_c, 11, 93, 0
17, 143104, Note_on_c, 11, 69, 100
17, 143104, Note_on_c, 11, 78, 100
17, 143104, Note_on_c, 11, 81, 100
17, 143104, Note_on_c, 11, 86, 100
17, 143104, Note_on_c, 11, 90, 100
17, 143104, Note_on_c, 11, 93, 100
17, 143168, Note_off_c, 11, 69, 0
17, 143168, Note_off_c, 11, 78, 0
17, 143168, Note_off_c, 11, 81, 0
17, 143168, Note_off_c, 11, 86, 0
17, 143168, Note_off_c, 11, 90, 0
17, 143168, Note_off_c, 11, 93, 0
17, 143360, Note_on_c, 11, 69, 105
17, 143360, Note_on_c, 11, 78, 105
17, 143360, Note_on_c, 11, 81, 105
17, 143360, Note_on_c, 11, 86, 105
17, 143360, Note_on_c, 11, 90, 105
17, 143360, Note_on_c, 11, 93, 105
17, 143424, Note_off_c, 11, 69, 0
17, 143424, Note_off_c, 11, 78, 0
17, 143424, Note_off_c, 11, 81, 0
17, 143424, Note_off_c, 11, 86, 0
17, 143424, Note_off_c, 11, 90, 0
17, 143424, Note_off_c, 11, 93, 0
17, 143616, Note_on_c, 11, 69, 100
17, 143616, Note_on_c, 11, 78, 100
17, 143616, Note_on_c, 11, 81, 100
17, 143616, Note_on_c, 11, 86, 100
17, 143616, Note_on_c, 11, 90, 100
17, 143616, Note_on_c, 11, 93, 100
17, 143680, Note_off_c, 11, 69, 0
17, 143680, Note_off_c, 11, 78, 0
17, 143680, Note_off_c, 11, 81, 0
17, 143680, Note_off_c, 11, 86, 0
17, 143680, Note_off_c, 11, 90, 0
17, 143680, Note_off_c, 11, 93, 0
17, 143872, Note_on_c, 11, 69, 100
17, 143872, Note_on_c, 11, 78, 100
17, 143872, Note_on_c, 11, 81, 100
17, 143872, Note_on_c, 11, 86, 100
17, 143872, Note_on_c, 11, 90, 100
17, 143872, Note_on_c, 11, 93, 100
17, 143936, Note_off_c, 11, 69, 0
17, 143936, Note_off_c, 11, 78, 0
17, 143936, Note_off_c, 11, 81, 0
17, 143936, Note_off_c, 11, 86, 0
17, 143936, Note_off_c, 11, 90, 0
17, 143936, Note_off_c, 11, 93, 0
17, 144896, Note_on_c, 11, 69, 99
17, 144896, Note_on_c, 11, 78, 99
17, 144896, Note_on_c, 11, 81, 99
17, 144896, Note_on_c, 11, 86, 99
17, 144896, Note_on_c, 11, 90, 99
17, 144896, Note_on_c, 11, 93, 99
17, 144960, Note_off_c, 11, 69, 0
17, 144960, Note_off_c, 11, 78, 0
17, 144960, Note_off_c, 11, 81, 0
17, 144960, Note_off_c, 11, 86, 0
17, 144960, Note_off_c, 11, 90, 0
17, 144960, Note_off_c, 11, 93, 0
17, 145152, Note_on_c, 11, 69, 101
17, 145152, Note_on_c, 11, 78, 101
17, 145152, Note_on_c, 11, 81, 101
17, 145152, Note_on_c, 11, 86, 101
17, 145152, Note_on_c, 11, 90, 101
17, 145152, Note_on_c, 11, 93, 101
17, 145216, Note_off_c, 11, 69, 0
17, 145216, Note_off_c, 11, 78, 0
17, 145216, Note_off_c, 11, 81, 0
17, 145216, Note_off_c, 11, 86, 0
17, 145216, Note_off_c, 11, 90, 0
17, 145216, Note_off_c, 11, 93, 0
17, 145408, Note_on_c, 11, 69, 98
17, 145408, Note_on_c, 11, 78, 98
17, 145408, Note_on_c, 11, 81, 98
17, 145408, Note_on_c, 11, 86, 98
17, 145408, Note_on_c, 11, 90, 98
17, 145408, Note_on_c, 11, 93, 98
17, 145472, Note_off_c, 11, 69, 0
17, 145472, Note_off_c, 11, 78, 0
17, 145472, Note_off_c, 11, 81, 0
17, 145472, Note_off_c, 11, 86, 0
17, 145472, Note_off_c, 11, 90, 0
17, 145472, Note_off_c, 11, 93, 0
17, 145664, Note_on_c, 11, 69, 96
17, 145664, Note_on_c, 11, 78, 96
17, 145664, Note_on_c, 11, 81, 96
17, 145664, Note_on_c, 11, 86, 96
17, 145664, Note_on_c, 11, 90, 96
17, 145664, Note_on_c, 11, 93, 96
17, 145728, Note_off_c, 11, 69, 0
17, 145728, Note_off_c, 11, 78, 0
17, 145728, Note_off_c, 11, 81, 0
17, 145728, Note_off_c, 11, 86, 0
17, 145728, Note_off_c, 11, 90, 0
17, 145728, Note_off_c, 11, 93, 0
17, 145920, Note_on_c, 11, 69, 102
17, 145920, Note_on_c, 11, 78, 102
17, 145920, Note_on_c, 11, 81, 102
17, 145920, Note_on_c, 11, 86, 102
17, 145920, Note_on_c, 11, 90, 102
17, 145920, Note_on_c, 11, 93, 102
17, 145984, Note_off_c, 11, 69, 0
17, 145984, Note_off_c, 11, 78, 0
17, 145984, Note_off_c, 11, 81, 0
17, 145984, Note_off_c, 11, 86, 0
17, 145984, Note_off_c, 11, 90, 0
17, 145984, Note_off_c, 11, 93, 0
17, 146176, Note_on_c, 11, 69, 104
17, 146176, Note_on_c, 11, 78, 104
17, 146176, Note_on_c, 11, 81, 104
17, 146176, Note_on_c, 11, 86, 104
17, 146176, Note_on_c, 11, 90, 104
17, 146176, Note_on_c, 11, 93, 104
17, 146240, Note_off_c, 11, 69, 0
17, 146240, Note_off_c, 11, 78, 0
17, 146240, Note_off_c, 11, 81, 0
17, 146240, Note_off_c, 11, 86, 0
17, 146240, Note_off_c, 11, 90, 0
17, 146240, Note_off_c, 11, 93, 0
17, 146432, Note_on_c, 11, 91, 74
17, 146432, Note_on_c, 11, 98, 74
17, 146560, Note_on_c, 11, 79, 54
17, 146560, Note_on_c, 11, 86, 54
17, 146562, Note_off_c, 11, 91, 0
17, 146562, Note_off_c, 11, 98, 0
17, 146681, Note_off_c, 11, 79, 0
17, 146681, Note_off_c, 11, 86, 0
17, 146816, Note_on_c, 11, 79, 79
17, 146816, Note_on_c, 11, 86, 79
17, 146944, Note_on_c, 11, 91, 102
17, 146944, Note_on_c, 11, 98, 102
17, 146946, Note_off_c, 11, 79, 0
17, 146946, Note_off_c, 11, 86, 0
17, 147065, Note_off_c, 11, 91, 0
17, 147065, Note_off_c, 11, 98, 0
17, 147200, Note_on_c, 11, 91, 75
17, 147200, Note_on_c, 11, 98, 75
17, 147328, Note_on_c, 11, 79, 52
17, 147328, Note_on_c, 11, 86, 52
17, 147330, Note_off_c, 11, 91, 0
17, 147330, Note_off_c, 11, 98, 0
17, 147449, Note_off_c, 11, 79, 0
17, 147449, Note_off_c, 11, 86, 0
17, 147584, Note_on_c, 11, 79, 79
17, 147584, Note_on_c, 11, 86, 79
17, 147712, Note_on_c, 11, 91, 98
17, 147712, Note_on_c, 11, 98, 98
17, 147714, Note_off_c, 11, 79, 0
17, 147714, Note_off_c, 11, 86, 0
17, 147833, Note_off_c, 11, 91, 0
17, 147833, Note_off_c, 11, 98, 0
17, 147968, Note_on_c, 11, 91, 75
17, 147968, Note_on_c, 11, 98, 75
17, 148096, Note_on_c, 11, 79, 58
17, 148096, Note_on_c, 11, 86, 58
17, 148098, Note_off_c, 11, 91, 0
17, 148098, Note_off_c, 11, 98, 0
17, 148217, Note_off_c, 11, 79, 0
17, 148217, Note_off_c, 11, 86, 0
17, 148352, Note_on_c, 11, 79, 72
17, 148352, Note_on_c, 11, 86, 72
17, 148480, Note_on_c, 11, 91, 89
17, 148480, Note_on_c, 11, 98, 89
17, 148482, Note_off_c, 11, 79, 0
17, 148482, Note_off_c, 11, 86, 0
17, 148601, Note_off_c, 11, 91, 0
17, 148601, Note_off_c, 11, 98, 0
17, 149120, Note_on_c, 11, 79, 76
17, 149120, Note_on_c, 11, 86, 76
17, 149248, Note_on_c, 11, 91, 96
17, 149248, Note_on_c, 11, 98, 96
17, 149250, Note_off_c, 11, 79, 0
17, 149250, Note_off_c, 11, 86, 0
17, 149369, Note_off_c, 11, 91, 0
17, 149369, Note_off_c, 11, 98, 0
17, 149504, Note_on_c, 11, 91, 78
17, 149504, Note_on_c, 11, 98, 78
17, 149632, Note_on_c, 11, 79, 56
17, 149632, Note_on_c, 11, 86, 56
17, 149634, Note_off_c, 11, 91, 0
17, 149634, Note_off_c, 11, 98, 0
17, 149753, Note_off_c, 11, 79, 0
17, 149753, Note_off_c, 11, 86, 0
17, 149888, Note_on_c, 11, 79, 71
17, 149888, Note_on_c, 11, 86, 71
17, 150016, Note_on_c, 11, 91, 90
17, 150016, Note_on_c, 11, 98, 90
17, 150018, Note_off_c, 11, 79, 0
17, 150018, Note_off_c, 11, 86, 0
17, 150137, Note_off_c, 11, 91, 0
17, 150137, Note_off_c, 11, 98, 0
17, 150272, Note_on_c, 11, 91, 70
17, 150272, Note_on_c, 11, 98, 70
17, 150400, Note_on_c, 11, 79, 48
17, 150400, Note_on_c, 11, 86, 48
17, 150402, Note_off_c, 11, 91, 0
17, 150402, Note_off_c, 11, 98, 0
17, 150521, Note_off_c, 11, 79, 0
17, 150521, Note_off_c, 11, 86, 0
17, 150656, Note_on_c, 11, 79, 76
17, 150656, Note_on_c, 11, 86, 76
17, 150784, Note_on_c, 11, 91, 97
17, 150784, Note_on_c, 11, 98, 97
17, 150786, Note_off_c, 11, 79, 0
17, 150786, Note_off_c, 11, 86, 0
17, 150905, Note_off_c, 11, 91, 0
17, 150905, Note_off_c, 11, 98, 0
17, 151040, Note_on_c, 11, 91, 76
17, 151040, Note_on_c, 11, 98, 76
17, 151168, Note_on_c, 11, 79, 52
17, 151168, Note_on_c, 11, 86, 52
17, 151170, Note_off_c, 11, 91, 0
17, 151170, Note_off_c, 11, 98, 0
17, 151289, Note_off_c, 11, 79, 0
17, 151289, Note_off_c, 11, 86, 0
17, 151424, Note_on_c, 11, 79, 75
17, 151424, Note_on_c, 11, 86, 75
17, 151552, Note_off_c, 11, 79, 0
17, 151552, Note_off_c, 11, 86, 0
17, 151936, Note_on_c, 11, 91, 76
17, 151936, Note_on_c, 11, 100, 76
17, 152064, Note_off_c, 11, 91, 0
17, 152064, Note_off_c, 11, 100, 0
17, 152192, Note_on_c, 11, 91, 74
17, 152192, Note_on_c, 11, 100, 74
17, 152320, Note_on_c, 11, 79, 58
17, 152320, Note_on_c, 11, 86, 58
17, 152322, Note_off_c, 11, 91, 0
17, 152322, Note_off_c, 11, 100, 0
17, 152441, Note_off_c, 11, 79, 0
17, 152441, Note_off_c, 11, 86, 0
17, 152576, Note_on_c, 11, 79, 77
17, 152576, Note_on_c, 11, 86, 77
17, 152704, Note_on_c, 11, 91, 95
17, 152704, Note_on_c, 11, 100, 95
17, 152706, Note_off_c, 11, 79, 0
17, 152706, Note_off_c, 11, 86, 0
17, 152825, Note_off_c, 11, 91, 0
17, 152825, Note_off_c, 11, 100, 0
17, 152960, Note_on_c, 11, 91, 73
17, 152960, Note_on_c, 11, 100, 73
17, 153088, Note_on_c, 11, 79, 53
17, 153088, Note_on_c, 11, 86, 53
17, 153090, Note_off_c, 11, 91, 0
17, 153090, Note_off_c, 11, 100, 0
17, 153209, Note_off_c, 11, 79, 0
17, 153209, Note_off_c, 11, 86, 0
17, 153344, Note_on_c, 11, 79, 72
17, 153344, Note_on_c, 11, 86, 72
17, 153472, Note_on_c, 11, 91, 91
17, 153472, Note_on_c, 11, 100, 91
17, 153474, Note_off_c, 11, 79, 0
17, 153474, Note_off_c, 11, 86, 0
17, 153593, Note_off_c, 11, 91, 0
17, 153593, Note_off_c, 11, 100, 0
17, 153728, Note_on_c, 11, 91, 72
17, 153728, Note_on_c, 11, 100, 72
17, 153856, Note_on_c, 11, 79, 49
17, 153856, Note_on_c, 11, 86, 49
17, 153858, Note_off_c, 11, 91, 0
17, 153858, Note_off_c, 11, 100, 0
17, 153977, Note_off_c, 11, 79, 0
17, 153977, Note_off_c, 11, 86, 0
17, 154112, Note_on_c, 11, 79, 78
17, 154112, Note_on_c, 11, 86, 78
17, 154240, Note_off_c, 11, 79, 0
17, 154240, Note_off_c, 11, 86, 0
17, 154624, Note_on_c, 11, 91, 76
17, 154624, Note_on_c, 11, 100, 76
17, 154752, Note_off_c, 11, 91, 0
17, 154752, Note_off_c, 11, 100, 0
17, 155008, Note_on_c, 11, 91, 80
17, 155008, Note_on_c, 11, 100, 80
17, 155264, Note_off_c, 11, 91, 0
17, 155264, Note_off_c, 11, 100, 0
17, 155264, Note_on_c, 11, 79, 62
17, 155264, Note_on_c, 11, 86, 62
17, 155520, Note_off_c, 11, 79, 0
17, 155520, Note_off_c, 11, 86, 0
17, 155520, Note_on_c, 11, 79, 79
17, 155520, Note_on_c, 11, 86, 79
17, 155776, Note_off_c, 11, 79, 0
17, 155776, Note_off_c, 11, 86, 0
17, 155776, Note_on_c, 11, 91, 108
17, 155776, Note_on_c, 11, 100, 108
17, 156160, Note_off_c, 11, 91, 0
17, 156160, Note_off_c, 11, 100, 0
17, 156160, Note_on_c, 11, 91, 92
17, 156160, Note_on_c, 11, 100, 92
17, 156288, Note_off_c, 11, 91, 0
17, 156288, Note_off_c, 11, 100, 0
17, 156288, Note_on_c, 11, 79, 61
17, 156288, Note_on_c, 11, 86, 61
17, 156864, Note_off_c, 11, 79, 0
17, 156864, Note_off_c, 11, 86, 0
17, 156864, Note_on_c, 11, 91, 89
17, 156864, Note_on_c, 11, 100, 89
17, 157312, Note_off_c, 11, 91, 0
17, 157312, Note_off_c, 11, 100, 0
17, 157312, Note_on_c, 11, 91, 67
17, 157312, Note_on_c, 11, 100, 67
17, 157568, Note_off_c, 11, 91, 0
17, 157568, Note_off_c, 11, 100, 0
17, 157568, Note_on_c, 11, 79, 55
17, 157568, Note_on_c, 11, 86, 55
17, 157824, Note_off_c, 11, 79, 0
17, 157824, Note_off_c, 11, 86, 0
17, 157824, Note_on_c, 11, 79, 70
17, 157824, Note_on_c, 11, 86, 70
17, 158208, Note_off_c, 11, 79, 0
17, 158208, Note_off_c, 11, 86, 0
17, 158464, Note_on_c, 11, 91, 64
17, 158464, Note_on_c, 11, 100, 64
17, 158805, Note_off_c, 11, 91, 0
17, 158805, Note_off_c, 11, 100, 0
17, 158805, Note_on_c, 11, 91, 71
17, 158805, Note_on_c, 11, 100, 71
17, 158976, Note_off_c, 11, 91, 0
17, 158976, Note_off_c, 11, 100, 0
17, 159104, Note_on_c, 11, 79, 56
17, 159104, Note_on_c, 11, 86, 56
17, 159402, Note_off_c, 11, 79, 0
17, 159402, Note_off_c, 11, 86, 0
17, 159402, Note_on_c, 11, 79, 64
17, 159402, Note_on_c, 11, 86, 64
17, 159573, Note_off_c, 11, 79, 0
17, 159573, Note_off_c, 11, 86, 0
17, 159573, Note_on_c, 11, 91, 77
17, 159573, Note_on_c, 11, 100, 77
17, 159744, Note_off_c, 11, 91, 0
17, 159744, Note_off_c, 11, 100, 0
17, 161962, Note_on_c, 11, 83, 90
17, 161962, Note_on_c, 11, 86, 90
17, 161962, Note_on_c, 11, 90, 90
17, 161962, Note_on_c, 11, 93, 90
17, 162133, Note_off_c, 11, 83, 0
17, 162133, Note_off_c, 11, 86, 0
17, 162133, Note_off_c, 11, 90, 0
17, 162133, Note_off_c, 11, 93, 0
17, 162133, Note_on_c, 11, 69, 72
17, 162133, Note_on_c, 11, 72, 72
17, 162133, Note_on_c, 11, 74, 72
17, 162133, Note_on_c, 11, 76, 72
17, 162304, Note_off_c, 11, 69, 0
17, 162304, Note_off_c, 11, 72, 0
17, 162304, Note_off_c, 11, 74, 0
17, 162304, Note_off_c, 11, 76, 0
17, 162304, Note_on_c, 11, 83, 121
17, 162304, Note_on_c, 11, 86, 121
17, 162304, Note_on_c, 11, 90, 121
17, 162304, Note_on_c, 11, 93, 121
17, 162560, Note_off_c, 11, 83, 0
17, 162560, Note_off_c, 11, 86, 0
17, 162560, Note_off_c, 11, 90, 0
17, 162560, Note_off_c, 11, 93, 0
17, 162986, Note_on_c, 11, 83, 83
17, 162986, Note_on_c, 11, 86, 83
17, 162986, Note_on_c, 11, 90, 83
17, 162986, Note_on_c, 11, 93, 83
17, 163157, Note_off_c, 11, 83, 0
17, 163157, Note_off_c, 11, 86, 0
17, 163157, Note_off_c, 11, 90, 0
17, 163157, Note_off_c, 11, 93, 0
17, 163157, Note_on_c, 11, 69, 69
17, 163157, Note_on_c, 11, 72, 69
17, 163157, Note_on_c, 11, 74, 69
17, 163157, Note_on_c, 11, 76, 69
17, 163328, Note_off_c, 11, 69, 0
17, 163328, Note_off_c, 11, 72, 0
17, 163328, Note_off_c, 11, 74, 0
17, 163328, Note_off_c, 11, 76, 0
17, 163328, Note_on_c, 11, 83, 119
17, 163328, Note_on_c, 11, 86, 119
17, 163328, Note_on_c, 11, 90, 119
17, 163328, Note_on_c, 11, 93, 119
17, 163584, Note_off_c, 11, 83, 0
17, 163584, Note_off_c, 11, 86, 0
17, 163584, Note_off_c, 11, 90, 0
17, 163584, Note_off_c, 11, 93, 0
17, 164010, Note_on_c, 11, 69, 87
17, 164010, Note_on_c, 11, 72, 87
17, 164010, Note_on_c, 11, 74, 87
17, 164010, Note_on_c, 11, 76, 87
17, 164181, Note_off_c, 11, 69, 0
17, 164181, Note_off_c, 11, 72, 0
17, 164181, Note_off_c, 11, 74, 0
17, 164181, Note_off_c, 11, 76, 0
17, 164181, Note_on_c, 11, 83, 126
17, 164181, Note_on_c, 11, 86, 126
17, 164181, Note_on_c, 11, 90, 126
17, 164181, Note_on_c, 11, 93, 126
17, 164352, Note_off_c, 11, 83, 0
17, 164352, Note_off_c, 11, 86, 0
17, 164352, Note_off_c, 11, 90, 0
17, 164352, Note_off_c, 11, 93, 0
17, 164778, Note_on_c, 11, 83, 88
17, 164778, Note_on_c, 11, 86, 88
17, 164778, Note_on_c, 11, 90, 88
17, 164778, Note_on_c, 11, 93, 88
17, 164949, Note_off_c, 11, 83, 0
17, 164949, Note_off_c, 11, 86, 0
17, 164949, Note_off_c, 11, 90, 0
17, 164949, Note_off_c, 11, 93, 0
17, 165034, Note_on_c, 11, 69, 88
17, 165034, Note_on_c, 11, 72, 88
17, 165034, Note_on_c, 11, 74, 88
17, 165034, Note_on_c, 11, 76, 88
17, 165205, Note_off_c, 11, 69, 0
17, 165205, Note_off_c, 11, 72, 0
17, 165205, Note_off_c, 11, 74, 0
17, 165205, Note_off_c, 11, 76, 0
17, 165290, Note_on_c, 11, 83, 91
17, 165290, Note_on_c, 11, 86, 91
17, 165290, Note_on_c, 11, 90, 91
17, 165290, Note_on_c, 11, 93, 91
17, 165461, Note_off_c, 11, 83, 0
17, 165461, Note_off_c, 11, 86, 0
17, 165461, Note_off_c, 11, 90, 0
17, 165461, Note_off_c, 11, 93, 0
17, 165546, Note_on_c, 11, 69, 89
17, 165546, Note_on_c, 11, 72, 89
17, 165546, Note_on_c, 11, 74, 89
17, 165546, Note_on_c, 11, 76, 89
17, 165717, Note_off_c, 11, 69, 0
17, 165717, Note_off_c, 11, 72, 0
17, 165717, Note_off_c, 11, 74, 0
17, 165717, Note_off_c, 11, 76, 0
17, 165802, Note_on_c, 11, 83, 86
17, 165802, Note_on_c, 11, 86, 86
17, 165802, Note_on_c, 11, 90, 86
17, 165802, Note_on_c, 11, 93, 86
17, 165973, Note_off_c, 11, 83, 0
17, 165973, Note_off_c, 11, 86, 0
17, 165973, Note_off_c, 11, 90, 0
17, 165973, Note_off_c, 11, 93, 0
17, 166400, Note_on_c, 11, 84, 86
17, 166400, Note_on_c, 11, 86, 86
17, 166400, Note_on_c, 11, 91, 86
17, 166400, Note_on_c, 11, 93, 86
17, 166438, Note_off_c, 11, 84, 0
17, 166438, Note_off_c, 11, 86, 0
17, 166438, Note_off_c, 11, 91, 0
17, 166438, Note_off_c, 11, 93, 0
17, 166656, Note_on_c, 11, 67, 93
17, 166656, Note_on_c, 11, 72, 93
17, 166656, Note_on_c, 11, 74, 93
17, 166656, Note_on_c, 11, 79, 93
17, 166912, Note_off_c, 11, 67, 0
17, 166912, Note_off_c, 11, 72, 0
17, 166912, Note_off_c, 11, 74, 0
17, 166912, Note_off_c, 11, 79, 0
17, 166912, Note_on_c, 11, 84, 122
17, 166912, Note_on_c, 11, 86, 122
17, 166912, Note_on_c, 11, 91, 122
17, 166912, Note_on_c, 11, 93, 122
17, 166950, Note_off_c, 11, 84, 0
17, 166950, Note_off_c, 11, 86, 0
17, 166950, Note_off_c, 11, 91, 0
17, 166950, Note_off_c, 11, 93, 0
17, 167168, Note_on_c, 11, 67, 96
17, 167168, Note_on_c, 11, 72, 96
17, 167168, Note_on_c, 11, 74, 96
17, 167168, Note_on_c, 11, 79, 96
17, 167424, Note_off_c, 11, 67, 0
17, 167424, Note_off_c, 11, 72, 0
17, 167424, Note_off_c, 11, 74, 0
17, 167424, Note_off_c, 11, 79, 0
17, 167424, Note_on_c, 11, 84, 122
17, 167424, Note_on_c, 11, 86, 122
17, 167424, Note_on_c, 11, 91, 122
17, 167424, Note_on_c, 11, 93, 122
17, 167462, Note_off_c, 11, 84, 0
17, 167462, Note_off_c, 11, 86, 0
17, 167462, Note_off_c, 11, 91, 0
17, 167462, Note_off_c, 11, 93, 0
17, 167936, Note_on_c, 11, 84, 91
17, 167936, Note_on_c, 11, 86, 91
17, 167936, Note_on_c, 11, 91, 91
17, 167936, Note_on_c, 11, 93, 91
17, 168192, Note_off_c, 11, 84, 0
17, 168192, Note_off_c, 11, 86, 0
17, 168192, Note_off_c, 11, 91, 0
17, 168192, Note_off_c, 11, 93, 0
17, 168192, Note_on_c, 11, 67, 77
17, 168192, Note_on_c, 11, 72, 77
17, 168192, Note_on_c, 11, 74, 77
17, 168192, Note_on_c, 11, 79, 77
17, 168448, Note_off_c, 11, 67, 0
17, 168448, Note_off_c, 11, 72, 0
17, 168448, Note_off_c, 11, 74, 0
17, 168448, Note_off_c, 11, 79, 0
17, 168618, Note_on_c, 11, 83, 89
17, 168618, Note_on_c, 11, 86, 89
17, 168618, Note_on_c, 11, 90, 89
17, 168618, Note_on_c, 11, 93, 89
17, 168789, Note_off_c, 11, 83, 0
17, 168789, Note_off_c, 11, 86, 0
17, 168789, Note_off_c, 11, 90, 0
17, 168789, Note_off_c, 11, 93, 0
17, 168874, Note_on_c, 11, 83, 85
17, 168874, Note_on_c, 11, 86, 85
17, 168874, Note_on_c, 11, 90, 85
17, 168874, Note_on_c, 11, 93, 85
17, 168960, Note_on_c, 11, 67, 60
17, 168960, Note_on_c, 11, 71, 60
17, 168960, Note_on_c, 11, 74, 60
17, 168960, Note_on_c, 11, 78, 60
17, 168961, Note_off_c, 11, 83, 0
17, 168961, Note_off_c, 11, 86, 0
17, 168961, Note_off_c, 11, 90, 0
17, 168961, Note_off_c, 11, 93, 0
17, 169130, Note_on_c, 11, 83, 118
17, 169130, Note_on_c, 11, 86, 118
17, 169130, Note_on_c, 11, 90, 118
17, 169130, Note_on_c, 11, 93, 118
17, 169133, Note_off_c, 11, 67, 0
17, 169133, Note_off_c, 11, 71, 0
17, 169133, Note_off_c, 11, 74, 0
17, 169133, Note_off_c, 11, 78, 0
17, 169211, Note_off_c, 11, 83, 0
17, 169211, Note_off_c, 11, 86, 0
17, 169211, Note_off_c, 11, 90, 0
17, 169211, Note_off_c, 11, 93, 0
17, 169386, Note_on_c, 11, 83, 87
17, 169386, Note_on_c, 11, 86, 87
17, 169386, Note_on_c, 11, 90, 87
17, 169386, Note_on_c, 11, 93, 87
17, 169472, Note_on_c, 11, 67, 66
17, 169472, Note_on_c, 11, 71, 66
17, 169472, Note_on_c, 11, 74, 66
17, 169472, Note_on_c, 11, 78, 66
17, 169473, Note_off_c, 11, 83, 0
17, 169473, Note_off_c, 11, 86, 0
17, 169473, Note_off_c, 11, 90, 0
17, 169473, Note_off_c, 11, 93, 0
17, 169642, Note_on_c, 11, 83, 125
17, 169642, Note_on_c, 11, 86, 125
17, 169642, Note_on_c, 11, 90, 125
17, 169642, Note_on_c, 11, 93, 125
17, 169645, Note_off_c, 11, 67, 0
17, 169645, Note_off_c, 11, 71, 0
17, 169645, Note_off_c, 11, 74, 0
17, 169645, Note_off_c, 11, 78, 0
17, 169723, Note_off_c, 11, 83, 0
17, 169723, Note_off_c, 11, 86, 0
17, 169723, Note_off_c, 11, 90, 0
17, 169723, Note_off_c, 11, 93, 0
17, 169898, Note_on_c, 11, 83, 84
17, 169898, Note_on_c, 11, 86, 84
17, 169898, Note_on_c, 11, 90, 84
17, 169898, Note_on_c, 11, 93, 84
17, 169984, Note_off_c, 11, 83, 0
17, 169984, Note_off_c, 11, 86, 0
17, 169984, Note_off_c, 11, 90, 0
17, 169984, Note_off_c, 11, 93, 0
17, 170154, Note_on_c, 11, 82, 84
17, 170154, Note_on_c, 11, 86, 84
17, 170154, Note_on_c, 11, 89, 84
17, 170154, Note_on_c, 11, 93, 84
17, 170240, Note_off_c, 11, 82, 0
17, 170240, Note_off_c, 11, 86, 0
17, 170240, Note_off_c, 11, 89, 0
17, 170240, Note_off_c, 11, 93, 0
17, 170410, Note_on_c, 11, 84, 91
17, 170410, Note_on_c, 11, 86, 91
17, 170410, Note_on_c, 11, 91, 91
17, 170410, Note_on_c, 11, 93, 91
17, 170496, Note_off_c, 11, 84, 0
17, 170496, Note_off_c, 11, 86, 0
17, 170496, Note_off_c, 11, 91, 0
17, 170496, Note_off_c, 11, 93, 0
17, 170496, Note_on_c, 11, 67, 69
17, 170496, Note_on_c, 11, 72, 69
17, 170496, Note_on_c, 11, 74, 69
17, 170496, Note_on_c, 11, 79, 69
17, 170581, Note_off_c, 11, 67, 0
17, 170581, Note_off_c, 11, 72, 0
17, 170581, Note_off_c, 11, 74, 0
17, 170581, Note_off_c, 11, 79, 0
17, 170752, Note_on_c, 11, 84, 88
17, 170752, Note_on_c, 11, 86, 88
17, 170752, Note_on_c, 11, 91, 88
17, 170752, Note_on_c, 11, 93, 88
17, 170837, Note_off_c, 11, 84, 0
17, 170837, Note_off_c, 11, 86, 0
17, 170837, Note_off_c, 11, 91, 0
17, 170837, Note_off_c, 11, 93, 0
17, 170922, Note_on_c, 11, 84, 89
17, 170922, Note_on_c, 11, 86, 89
17, 170922, Note_on_c, 11, 91, 89
17, 170922, Note_on_c, 11, 93, 89
17, 171008, Note_off_c, 11, 84, 0
17, 171008, Note_off_c, 11, 86, 0
17, 171008, Note_off_c, 11, 91, 0
17, 171008, Note_off_c, 11, 93, 0
17, 171008, Note_on_c, 11, 67, 70
17, 171008, Note_on_c, 11, 72, 70
17, 171008, Note_on_c, 11, 74, 70
17, 171008, Note_on_c, 11, 79, 70
17, 171093, Note_off_c, 11, 67, 0
17, 171093, Note_off_c, 11, 72, 0
17, 171093, Note_off_c, 11, 74, 0
17, 171093, Note_off_c, 11, 79, 0
17, 171264, Note_on_c, 11, 84, 86
17, 171264, Note_on_c, 11, 86, 86
17, 171264, Note_on_c, 11, 91, 86
17, 171264, Note_on_c, 11, 93, 86
17, 171349, Note_off_c, 11, 84, 0
17, 171349, Note_off_c, 11, 86, 0
17, 171349, Note_off_c, 11, 91, 0
17, 171349, Note_off_c, 11, 93, 0
17, 171434, Note_on_c, 11, 84, 90
17, 171434, Note_on_c, 11, 86, 90
17, 171434, Note_on_c, 11, 91, 90
17, 171434, Note_on_c, 11, 93, 90
17, 171520, Note_on_c, 11, 67, 62
17, 171520, Note_on_c, 11, 72, 62
17, 171520, Note_on_c, 11, 74, 62
17, 171520, Note_on_c, 11, 79, 62
17, 171521, Note_off_c, 11, 84, 0
17, 171521, Note_off_c, 11, 86, 0
17, 171521, Note_off_c, 11, 91, 0
17, 171521, Note_off_c, 11, 93, 0
17, 171690, Note_on_c, 11, 84, 122
17, 171690, Note_on_c, 11, 86, 122
17, 171690, Note_on_c, 11, 91, 122
17, 171690, Note_on_c, 11, 93, 122
17, 171693, Note_off_c, 11, 67, 0
17, 171693, Note_off_c, 11, 72, 0
17, 171693, Note_off_c, 11, 74, 0
17, 171693, Note_off_c, 11, 79, 0
17, 171771, Note_off_c, 11, 84, 0
17, 171771, Note_off_c, 11, 86, 0
17, 171771, Note_off_c, 11, 91, 0
17, 171771, Note_off_c, 11, 93, 0
17, 172032, Note_on_c, 11, 84, 88
17, 172032, Note_on_c, 11, 86, 88
17, 172032, Note_on_c, 11, 91, 88
17, 172032, Note_on_c, 11, 93, 88
17, 172117, Note_off_c, 11, 84, 0
17, 172117, Note_off_c, 11, 86, 0
17, 172117, Note_off_c, 11, 91, 0
17, 172117, Note_off_c, 11, 93, 0
17, 172288, Note_on_c, 11, 67, 87
17, 172288, Note_on_c, 11, 72, 87
17, 172288, Note_on_c, 11, 74, 87
17, 172288, Note_on_c, 11, 79, 87
17, 172373, Note_off_c, 11, 67, 0
17, 172373, Note_off_c, 11, 72, 0
17, 172373, Note_off_c, 11, 74, 0
17, 172373, Note_off_c, 11, 79, 0
17, 172458, Note_on_c, 11, 84, 86
17, 172458, Note_on_c, 11, 86, 86
17, 172458, Note_on_c, 11, 91, 86
17, 172458, Note_on_c, 11, 93, 86
17, 172544, Note_off_c, 11, 84, 0
17, 172544, Note_off_c, 11, 86, 0
17, 172544, Note_off_c, 11, 91, 0
17, 172544, Note_off_c, 11, 93, 0
17, 172800, Note_on_c, 11, 84, 87
17, 172800, Note_on_c, 11, 86, 87
17, 172800, Note_on_c, 11, 91, 87
17, 172800, Note_on_c, 11, 93, 87
17, 172885, Note_off_c, 11, 84, 0
17, 172885, Note_off_c, 11, 86, 0
17, 172885, Note_off_c, 11, 91, 0
17, 172885, Note_off_c, 11, 93, 0
17, 172970, Note_on_c, 11, 81, 92
17, 172970, Note_on_c, 11, 82, 92
17, 172970, Note_on_c, 11, 86, 92
17, 172970, Note_on_c, 11, 89, 92
17, 173056, Note_on_c, 11, 67, 70
17, 173056, Note_on_c, 11, 72, 70
17, 173056, Note_on_c, 11, 74, 70
17, 173056, Note_on_c, 11, 79, 70
17, 173057, Note_off_c, 11, 81, 0
17, 173057, Note_off_c, 11, 82, 0
17, 173057, Note_off_c, 11, 86, 0
17, 173057, Note_off_c, 11, 89, 0
17, 173136, Note_off_c, 11, 67, 0
17, 173136, Note_off_c, 11, 72, 0
17, 173136, Note_off_c, 11, 74, 0
17, 173136, Note_off_c, 11, 79, 0
17, 173226, Note_on_c, 11, 81, 91
17, 173226, Note_on_c, 11, 82, 91
17, 173226, Note_on_c, 11, 86, 91
17, 173226, Note_on_c, 11, 89, 91
17, 173312, Note_on_c, 11, 67, 68
17, 173312, Note_on_c, 11, 72, 68
17, 173312, Note_on_c, 11, 74, 68
17, 173312, Note_on_c, 11, 79, 68
17, 173313, Note_off_c, 11, 81, 0
17, 173313, Note_off_c, 11, 82, 0
17, 173313, Note_off_c, 11, 86, 0
17, 173313, Note_off_c, 11, 89, 0
17, 173392, Note_off_c, 11, 67, 0
17, 173392, Note_off_c, 11, 72, 0
17, 173392, Note_off_c, 11, 74, 0
17, 173392, Note_off_c, 11, 79, 0
17, 173482, Note_on_c, 11, 81, 93
17, 173482, Note_on_c, 11, 82, 93
17, 173482, Note_on_c, 11, 86, 93
17, 173482, Note_on_c, 11, 89, 93
17, 173568, Note_on_c, 11, 67, 69
17, 173568, Note_on_c, 11, 72, 69
17, 173568, Note_on_c, 11, 74, 69
17, 173568, Note_on_c, 11, 79, 69
17, 173569, Note_off_c, 11, 81, 0
17, 173569, Note_off_c, 11, 82, 0
17, 173569, Note_off_c, 11, 86, 0
17, 173569, Note_off_c, 11, 89, 0
17, 173648, Note_off_c, 11, 67, 0
17, 173648, Note_off_c, 11, 72, 0
17, 173648, Note_off_c, 11, 74, 0
17, 173648, Note_off_c, 11, 79, 0
17, 173738, Note_on_c, 11, 81, 84
17, 173738, Note_on_c, 11, 82, 84
17, 173738, Note_on_c, 11, 86, 84
17, 173738, Note_on_c, 11, 89, 84
17, 173824, Note_on_c, 11, 67, 61
17, 173824, Note_on_c, 11, 72, 61
17, 173824, Note_on_c, 11, 74, 61
17, 173824, Note_on_c, 11, 79, 61
17, 173825, Note_off_c, 11, 81, 0
17, 173825, Note_off_c, 11, 82, 0
17, 173825, Note_off_c, 11, 86, 0
17, 173825, Note_off_c, 11, 89, 0
17, 173904, Note_off_c, 11, 67, 0
17, 173904, Note_off_c, 11, 72, 0
17, 173904, Note_off_c, 11, 74, 0
17, 173904, Note_off_c, 11, 79, 0
17, 173994, Note_on_c, 11, 81, 90
17, 173994, Note_on_c, 11, 82, 90
17, 173994, Note_on_c, 11, 86, 90
17, 173994, Note_on_c, 11, 89, 90
17, 174080, Note_on_c, 11, 67, 72
17, 174080, Note_on_c, 11, 72, 72
17, 174080, Note_on_c, 11, 74, 72
17, 174080, Note_on_c, 11, 79, 72
17, 174081, Note_off_c, 11, 81, 0
17, 174081, Note_off_c, 11, 82, 0
17, 174081, Note_off_c, 11, 86, 0
17, 174081, Note_off_c, 11, 89, 0
17, 174160, Note_off_c, 11, 67, 0
17, 174160, Note_off_c, 11, 72, 0
17, 174160, Note_off_c, 11, 74, 0
17, 174160, Note_off_c, 11, 79, 0
17, 174250, Note_on_c, 11, 81, 92
17, 174250, Note_on_c, 11, 82, 92
17, 174250, Note_on_c, 11, 86, 92
17, 174250, Note_on_c, 11, 89, 92
17, 174336, Note_on_c, 11, 67, 68
17, 174336, Note_on_c, 11, 72, 68
17, 174336, Note_on_c, 11, 74, 68
17, 174336, Note_on_c, 11, 79, 68
17, 174337, Note_off_c, 11, 81, 0
17, 174337, Note_off_c, 11, 82, 0
17, 174337, Note_off_c, 11, 86, 0
17, 174337, Note_off_c, 11, 89, 0
17, 174416, Note_off_c, 11, 67, 0
17, 174416, Note_off_c, 11, 72, 0
17, 174416, Note_off_c, 11, 74, 0
17, 174416, Note_off_c, 11, 79, 0
17, 174506, Note_on_c, 11, 81, 88
17, 174506, Note_on_c, 11, 82, 88
17, 174506, Note_on_c, 11, 86, 88
17, 174506, Note_on_c, 11, 89, 88
17, 174592, Note_on_c, 11, 67, 66
17, 174592, Note_on_c, 11, 72, 66
17, 174592, Note_on_c, 11, 74, 66
17, 174592, Note_on_c, 11, 79, 66
17, 174593, Note_off_c, 11, 81, 0
17, 174593, Note_off_c, 11, 82, 0
17, 174593, Note_off_c, 11, 86, 0
17, 174593, Note_off_c, 11, 89, 0
17, 174672, Note_off_c, 11, 67, 0
17, 174672, Note_off_c, 11, 72, 0
17, 174672, Note_off_c, 11, 74, 0
17, 174672, Note_off_c, 11, 79, 0
17, 174762, Note_on_c, 11, 81, 86
17, 174762, Note_on_c, 11, 82, 86
17, 174762, Note_on_c, 11, 86, 86
17, 174762, Note_on_c, 11, 89, 86
17, 174848, Note_on_c, 11, 67, 62
17, 174848, Note_on_c, 11, 72, 62
17, 174848, Note_on_c, 11, 74, 62
17, 174848, Note_on_c, 11, 79, 62
17, 174849, Note_off_c, 11, 81, 0
17, 174849, Note_off_c, 11, 82, 0
17, 174849, Note_off_c, 11, 86, 0
17, 174849, Note_off_c, 11, 89, 0
17, 174928, Note_off_c, 11, 67, 0
17, 174928, Note_off_c, 11, 72, 0
17, 174928, Note_off_c, 11, 74, 0
17, 174928, Note_off_c, 11, 79, 0
17, 175018, Note_on_c, 11, 81, 89
17, 175018, Note_on_c, 11, 82, 89
17, 175018, Note_on_c, 11, 86, 89
17, 175018, Note_on_c, 11, 89, 89
17, 175104, Note_on_c, 11, 72, 64
17, 175104, Note_on_c, 11, 74, 64
17, 175104, Note_on_c, 11, 76, 64
17, 175104, Note_on_c, 11, 77, 64
17, 175105, Note_off_c, 11, 81, 0
17, 175105, Note_off_c, 11, 82, 0
17, 175105, Note_off_c, 11, 86, 0
17, 175105, Note_off_c, 11, 89, 0
17, 175184, Note_off_c, 11, 72, 0
17, 175184, Note_off_c, 11, 74, 0
17, 175184, Note_off_c, 11, 76, 0
17, 175184, Note_off_c, 11, 77, 0
17, 175274, Note_on_c, 11, 81, 89
17, 175274, Note_on_c, 11, 82, 89
17, 175274, Note_on_c, 11, 86, 89
17, 175360, Note_on_c, 11, 72, 71
17, 175360, Note_on_c, 11, 74, 71
17, 175360, Note_on_c, 11, 76, 71
17, 175360, Note_on_c, 11, 77, 71
17, 175361, Note_off_c, 11, 81, 0
17, 175361, Note_off_c, 11, 82, 0
17, 175361, Note_off_c, 11, 86, 0
17, 175440, Note_off_c, 11, 72, 0
17, 175440, Note_off_c, 11, 74, 0
17, 175440, Note_off_c, 11, 76, 0
17, 175440, Note_off_c, 11, 77, 0
17, 175530, Note_on_c, 11, 81, 91
17, 175530, Note_on_c, 11, 82, 91
17, 175530, Note_on_c, 11, 86, 91
17, 175616, Note_on_c, 11, 72, 69
17, 175616, Note_on_c, 11, 74, 69
17, 175616, Note_on_c, 11, 76, 69
17, 175616, Note_on_c, 11, 77, 69
17, 175617, Note_off_c, 11, 81, 0
17, 175617, Note_off_c, 11, 82, 0
17, 175617, Note_off_c, 11, 86, 0
17, 175696, Note_off_c, 11, 72, 0
17, 175696, Note_off_c, 11, 74, 0
17, 175696, Note_off_c, 11, 76, 0
17, 175696, Note_off_c, 11, 77, 0
17, 175786, Note_on_c, 11, 81, 88
17, 175786, Note_on_c, 11, 82, 88
17, 175786, Note_on_c, 11, 86, 88
17, 175872, Note_on_c, 11, 72, 63
17, 175872, Note_on_c, 11, 74, 63
17, 175872, Note_on_c, 11, 76, 63
17, 175872, Note_on_c, 11, 77, 63
17, 175873, Note_off_c, 11, 81, 0
17, 175873, Note_off_c, 11, 82, 0
17, 175873, Note_off_c, 11, 86, 0
17, 175952, Note_off_c, 11, 72, 0
17, 175952, Note_off_c, 11, 74, 0
17, 175952, Note_off_c, 11, 76, 0
17, 175952, Note_off_c, 11, 77, 0
17, 176042, Note_on_c, 11, 81, 84
17, 176042, Note_on_c, 11, 82, 84
17, 176042, Note_on_c, 11, 86, 84
17, 176128, Note_off_c, 11, 81, 0
17, 176128, Note_off_c, 11, 82, 0
17, 176128, Note_off_c, 11, 86, 0
17, 176213, Note_on_c, 11, 69, 87
17, 176213, Note_on_c, 11, 72, 87
17, 176213, Note_on_c, 11, 74, 87
17, 176213, Note_on_c, 11, 77, 87
17, 176213, Note_on_c, 11, 79, 87
17, 176213, Note_on_c, 11, 82, 87
17, 176213, Note_on_c, 11, 86, 87
17, 176213, Note_on_c, 11, 89, 87
17, 176298, Note_off_c, 11, 69, 0
17, 176298, Note_off_c, 11, 72, 0
17, 176298, Note_off_c, 11, 74, 0
17, 176298, Note_off_c, 11, 77, 0
17, 176298, Note_off_c, 11, 79, 0
17, 176298, Note_off_c, 11, 82, 0
17, 176298, Note_off_c, 11, 86, 0
17, 176298, Note_off_c, 11, 89, 0
17, 176384, Note_on_c, 11, 69, 87
17, 176384, Note_on_c, 11, 72, 87
17, 176384, Note_on_c, 11, 74, 87
17, 176384, Note_on_c, 11, 77, 87
17, 176384, Note_on_c, 11, 79, 87
17, 176384, Note_on_c, 11, 82, 87
17, 176384, Note_on_c, 11, 86, 87
17, 176384, Note_on_c, 11, 89, 87
17, 176554, Note_off_c, 11, 69, 0
17, 176554, Note_off_c, 11, 72, 0
17, 176554, Note_off_c, 11, 74, 0
17, 176554, Note_off_c, 11, 77, 0
17, 176554, Note_off_c, 11, 79, 0
17, 176554, Note_off_c, 11, 82, 0
17, 176554, Note_off_c, 11, 86, 0
17, 176554, Note_off_c, 11, 89, 0
17, 176554, Note_on_c, 11, 69, 96
17, 176554, Note_on_c, 11, 72, 96
17, 176554, Note_on_c, 11, 74, 96
17, 176554, Note_on_c, 11, 77, 96
17, 176554, Note_on_c, 11, 79, 96
17, 176554, Note_on_c, 11, 82, 96
17, 176554, Note_on_c, 11, 86, 96
17, 176554, Note_on_c, 11, 89, 96
17, 176725, Note_off_c, 11, 69, 0
17, 176725, Note_off_c, 11, 72, 0
17, 176725, Note_off_c, 11, 74, 0
17, 176725, Note_off_c, 11, 77, 0
17, 176725, Note_off_c, 11, 79, 0
17, 176725, Note_off_c, 11, 82, 0
17, 176725, Note_off_c, 11, 86, 0
17, 176725, Note_off_c, 11, 89, 0
17, 176725, Note_on_c, 11, 69, 99
17, 176725, Note_on_c, 11, 72, 99
17, 176725, Note_on_c, 11, 74, 99
17, 176725, Note_on_c, 11, 77, 99
17, 176725, Note_on_c, 11, 79, 99
17, 176725, Note_on_c, 11, 82, 99
17, 176725, Note_on_c, 11, 86, 99
17, 176725, Note_on_c, 11, 89, 99
17, 176896, Note_off_c, 11, 69, 0
17, 176896, Note_off_c, 11, 72, 0
17, 176896, Note_off_c, 11, 74, 0
17, 176896, Note_off_c, 11, 77, 0
17, 176896, Note_off_c, 11, 79, 0
17, 176896, Note_off_c, 11, 82, 0
17, 176896, Note_off_c, 11, 86, 0
17, 176896, Note_off_c, 11, 89, 0
17, 176981, Note_on_c, 11, 69, 89
17, 176981, Note_on_c, 11, 72, 89
17, 176981, Note_on_c, 11, 74, 89
17, 176981, Note_on_c, 11, 77, 89
17, 176981, Note_on_c, 11, 79, 89
17, 176981, Note_on_c, 11, 82, 89
17, 176981, Note_on_c, 11, 86, 89
17, 176981, Note_on_c, 11, 89, 89
17, 177066, Note_off_c, 11, 69, 0
17, 177066, Note_off_c, 11, 72, 0
17, 177066, Note_off_c, 11, 74, 0
17, 177066, Note_off_c, 11, 77, 0
17, 177066, Note_off_c, 11, 79, 0
17, 177066, Note_off_c, 11, 82, 0
17, 177066, Note_off_c, 11, 86, 0
17, 177066, Note_off_c, 11, 89, 0
17, 177152, Note_on_c, 11, 69, 87
17, 177152, Note_on_c, 11, 72, 87
17, 177152, Note_on_c, 11, 74, 87
17, 177152, Note_on_c, 11, 77, 87
17, 177152, Note_on_c, 11, 79, 87
17, 177152, Note_on_c, 11, 82, 87
17, 177152, Note_on_c, 11, 86, 87
17, 177152, Note_on_c, 11, 89, 87
17, 177237, Note_off_c, 11, 69, 0
17, 177237, Note_off_c, 11, 72, 0
17, 177237, Note_off_c, 11, 74, 0
17, 177237, Note_off_c, 11, 77, 0
17, 177237, Note_off_c, 11, 79, 0
17, 177237, Note_off_c, 11, 82, 0
17, 177237, Note_off_c, 11, 86, 0
17, 177237, Note_off_c, 11, 89, 0
17, 177322, Note_on_c, 11, 69, 89
17, 177322, Note_on_c, 11, 72, 89
17, 177322, Note_on_c, 11, 74, 89
17, 177322, Note_on_c, 11, 77, 89
17, 177322, Note_on_c, 11, 79, 89
17, 177322, Note_on_c, 11, 82, 89
17, 177322, Note_on_c, 11, 86, 89
17, 177322, Note_on_c, 11, 89, 89
17, 177408, Note_off_c, 11, 69, 0
17, 177408, Note_off_c, 11, 72, 0
17, 177408, Note_off_c, 11, 74, 0
17, 177408, Note_off_c, 11, 77, 0
17, 177408, Note_off_c, 11, 79, 0
17, 177408, Note_off_c, 11, 82, 0
17, 177408, Note_off_c, 11, 86, 0
17, 177408, Note_off_c, 11, 89, 0
17, 177408, Note_on_c, 11, 69, 99
17, 177408, Note_on_c, 11, 72, 99
17, 177408, Note_on_c, 11, 74, 99
17, 177408, Note_on_c, 11, 77, 99
17, 177408, Note_on_c, 11, 79, 99
17, 177408, Note_on_c, 11, 82, 99
17, 177408, Note_on_c, 11, 86, 99
17, 177408, Note_on_c, 11, 89, 99
17, 177578, Note_off_c, 11, 69, 0
17, 177578, Note_off_c, 11, 72, 0
17, 177578, Note_off_c, 11, 74, 0
17, 177578, Note_off_c, 11, 77, 0
17, 177578, Note_off_c, 11, 79, 0
17, 177578, Note_off_c, 11, 82, 0
17, 177578, Note_off_c, 11, 86, 0
17, 177578, Note_off_c, 11, 89, 0
17, 177578, Note_on_c, 11, 69, 98
17, 177578, Note_on_c, 11, 72, 98
17, 177578, Note_on_c, 11, 74, 98
17, 177578, Note_on_c, 11, 77, 98
17, 177578, Note_on_c, 11, 79, 98
17, 177578, Note_on_c, 11, 82, 98
17, 177578, Note_on_c, 11, 86, 98
17, 177578, Note_on_c, 11, 89, 98
17, 177749, Note_off_c, 11, 69, 0
17, 177749, Note_off_c, 11, 72, 0
17, 177749, Note_off_c, 11, 74, 0
17, 177749, Note_off_c, 11, 77, 0
17, 177749, Note_off_c, 11, 79, 0
17, 177749, Note_off_c, 11, 82, 0
17, 177749, Note_off_c, 11, 86, 0
17, 177749, Note_off_c, 11, 89, 0
17, 177749, Note_on_c, 11, 69, 100
17, 177749, Note_on_c, 11, 72, 100
17, 177749, Note_on_c, 11, 74, 100
17, 177749, Note_on_c, 11, 77, 100
17, 177749, Note_on_c, 11, 79, 100
17, 177749, Note_on_c, 11, 82, 100
17, 177749, Note_on_c, 11, 86, 100
17, 177749, Note_on_c, 11, 89, 100
17, 177920, Note_off_c, 11, 69, 0
17, 177920, Note_off_c, 11, 72, 0
17, 177920, Note_off_c, 11, 74, 0
17, 177920, Note_off_c, 11, 77, 0
17, 177920, Note_off_c, 11, 79, 0
17, 177920, Note_off_c, 11, 82, 0
17, 177920, Note_off_c, 11, 86, 0
17, 177920, Note_off_c, 11, 89, 0
17, 177920, Note_on_c, 11, 69, 96
17, 177920, Note_on_c, 11, 72, 96
17, 177920, Note_on_c, 11, 74, 96
17, 177920, Note_on_c, 11, 77, 96
17, 177920, Note_on_c, 11, 79, 96
17, 177920, Note_on_c, 11, 82, 96
17, 177920, Note_on_c, 11, 86, 96
17, 177920, Note_on_c, 11, 89, 96
17, 178090, Note_off_c, 11, 69, 0
17, 178090, Note_off_c, 11, 72, 0
17, 178090, Note_off_c, 11, 74, 0
17, 178090, Note_off_c, 11, 77, 0
17, 178090, Note_off_c, 11, 79, 0
17, 178090, Note_off_c, 11, 82, 0
17, 178090, Note_off_c, 11, 86, 0
17, 178090, Note_off_c, 11, 89, 0
17, 178090, Note_on_c, 11, 69, 99
17, 178090, Note_on_c, 11, 72, 99
17, 178090, Note_on_c, 11, 74, 99
17, 178090, Note_on_c, 11, 77, 99
17, 178090, Note_on_c, 11, 79, 99
17, 178090, Note_on_c, 11, 82, 99
17, 178090, Note_on_c, 11, 86, 99
17, 178090, Note_on_c, 11, 89, 99
17, 178261, Note_off_c, 11, 69, 0
17, 178261, Note_off_c, 11, 72, 0
17, 178261, Note_off_c, 11, 74, 0
17, 178261, Note_off_c, 11, 77, 0
17, 178261, Note_off_c, 11, 79, 0
17, 178261, Note_off_c, 11, 82, 0
17, 178261, Note_off_c, 11, 86, 0
17, 178261, Note_off_c, 11, 89, 0
17, 178261, Note_on_c, 11, 69, 99
17, 178261, Note_on_c, 11, 72, 99
17, 178261, Note_on_c, 11, 74, 99
17, 178261, Note_on_c, 11, 77, 99
17, 178261, Note_on_c, 11, 79, 99
17, 178261, Note_on_c, 11, 82, 99
17, 178261, Note_on_c, 11, 86, 99
17, 178261, Note_on_c, 11, 89, 99
17, 178432, Note_off_c, 11, 69, 0
17, 178432, Note_off_c, 11, 72, 0
17, 178432, Note_off_c, 11, 74, 0
17, 178432, Note_off_c, 11, 77, 0
17, 178432, Note_off_c, 11, 79, 0
17, 178432, Note_off_c, 11, 82, 0
17, 178432, Note_off_c, 11, 86, 0
17, 178432, Note_off_c, 11, 89, 0
17, 178432, Note_on_c, 11, 69, 97
17, 178432, Note_on_c, 11, 72, 97
17, 178432, Note_on_c, 11, 74, 97
17, 178432, Note_on_c, 11, 77, 97
17, 178432, Note_on_c, 11, 79, 97
17, 178432, Note_on_c, 11, 82, 97
17, 178432, Note_on_c, 11, 86, 97
17, 178432, Note_on_c, 11, 89, 97
17, 178602, Note_off_c, 11, 69, 0
17, 178602, Note_off_c, 11, 72, 0
17, 178602, Note_off_c, 11, 74, 0
17, 178602, Note_off_c, 11, 77, 0
17, 178602, Note_off_c, 11, 79, 0
17, 178602, Note_off_c, 11, 82, 0
17, 178602, Note_off_c, 11, 86, 0
17, 178602, Note_off_c, 11, 89, 0
17, 178602, Note_on_c, 11, 69, 97
17, 178602, Note_on_c, 11, 72, 97
17, 178602, Note_on_c, 11, 74, 97
17, 178602, Note_on_c, 11, 77, 97
17, 178602, Note_on_c, 11, 79, 97
17, 178602, Note_on_c, 11, 82, 97
17, 178602, Note_on_c, 11, 86, 97
17, 178602, Note_on_c, 11, 89, 97
17, 178773, Note_off_c, 11, 69, 0
17, 178773, Note_off_c, 11, 72, 0
17, 178773, Note_off_c, 11, 74, 0
17, 178773, Note_off_c, 11, 77, 0
17, 178773, Note_off_c, 11, 79, 0
17, 178773, Note_off_c, 11, 82, 0
17, 178773, Note_off_c, 11, 86, 0
17, 178773, Note_off_c, 11, 89, 0
17, 178773, Note_on_c, 11, 69, 100
17, 178773, Note_on_c, 11, 72, 100
17, 178773, Note_on_c, 11, 74, 100
17, 178773, Note_on_c, 11, 77, 100
17, 178773, Note_on_c, 11, 79, 100
17, 178773, Note_on_c, 11, 82, 100
17, 178773, Note_on_c, 11, 86, 100
17, 178773, Note_on_c, 11, 89, 100
17, 178944, Note_off_c, 11, 69, 0
17, 178944, Note_off_c, 11, 72, 0
17, 178944, Note_off_c, 11, 74, 0
17, 178944, Note_off_c, 11, 77, 0
17, 178944, Note_off_c, 11, 79, 0
17, 178944, Note_off_c, 11, 82, 0
17, 178944, Note_off_c, 11, 86, 0
17, 178944, Note_off_c, 11, 89, 0
17, 178944, Note_on_c, 11, 69, 99
17, 178944, Note_on_c, 11, 72, 99
17, 178944, Note_on_c, 11, 74, 99
17, 178944, Note_on_c, 11, 77, 99
17, 178944, Note_on_c, 11, 79, 99
17, 178944, Note_on_c, 11, 82, 99
17, 178944, Note_on_c, 11, 86, 99
17, 178944, Note_on_c, 11, 89, 99
17, 179029, Note_off_c, 11, 69, 0
17, 179029, Note_off_c, 11, 72, 0
17, 179029, Note_off_c, 11, 74, 0
17, 179029, Note_off_c, 11, 77, 0
17, 179029, Note_off_c, 11, 79, 0
17, 179029, Note_off_c, 11, 82, 0
17, 179029, Note_off_c, 11, 86, 0
17, 179029, Note_off_c, 11, 89, 0
17, 179114, Note_on_c, 11, 69, 92
17, 179114, Note_on_c, 11, 72, 92
17, 179114, Note_on_c, 11, 74, 92
17, 179114, Note_on_c, 11, 77, 92
17, 179114, Note_on_c, 11, 79, 92
17, 179114, Note_on_c, 11, 82, 92
17, 179114, Note_on_c, 11, 86, 92
17, 179114, Note_on_c, 11, 89, 92
17, 179200, Note_off_c, 11, 69, 0
17, 179200, Note_off_c, 11, 72, 0
17, 179200, Note_off_c, 11, 74, 0
17, 179200, Note_off_c, 11, 77, 0
17, 179200, Note_off_c, 11, 79, 0
17, 179200, Note_off_c, 11, 82, 0
17, 179200, Note_off_c, 11, 86, 0
17, 179200, Note_off_c, 11, 89, 0
17, 179200, Note_on_c, 11, 69, 96
17, 179200, Note_on_c, 11, 72, 96
17, 179200, Note_on_c, 11, 74, 96
17, 179200, Note_on_c, 11, 77, 96
17, 179200, Note_on_c, 11, 79, 96
17, 179200, Note_on_c, 11, 82, 96
17, 179200, Note_on_c, 11, 86, 96
17, 179200, Note_on_c, 11, 89, 96
17, 179370, Note_off_c, 11, 69, 0
17, 179370, Note_off_c, 11, 72, 0
17, 179370, Note_off_c, 11, 74, 0
17, 179370, Note_off_c, 11, 77, 0
17, 179370, Note_off_c, 11, 79, 0
17, 179370, Note_off_c, 11, 82, 0
17, 179370, Note_off_c, 11, 86, 0
17, 179370, Note_off_c, 11, 89, 0
17, 179370, Note_on_c, 11, 69, 101
17, 179370, Note_on_c, 11, 72, 101
17, 179370, Note_on_c, 11, 74, 101
17, 179370, Note_on_c, 11, 77, 101
17, 179370, Note_on_c, 11, 79, 101
17, 179370, Note_on_c, 11, 82, 101
17, 179370, Note_on_c, 11, 86, 101
17, 179370, Note_on_c, 11, 89, 101
17, 179541, Note_off_c, 11, 69, 0
17, 179541, Note_off_c, 11, 72, 0
17, 179541, Note_off_c, 11, 74, 0
17, 179541, Note_off_c, 11, 77, 0
17, 179541, Note_off_c, 11, 79, 0
17, 179541, Note_off_c, 11, 82, 0
17, 179541, Note_off_c, 11, 86, 0
17, 179541, Note_off_c, 11, 89, 0
17, 179541, Note_on_c, 11, 69, 100
17, 179541, Note_on_c, 11, 72, 100
17, 179541, Note_on_c, 11, 74, 100
17, 179541, Note_on_c, 11, 77, 100
17, 179541, Note_on_c, 11, 79, 100
17, 179541, Note_on_c, 11, 82, 100
17, 179541, Note_on_c, 11, 86, 100
17, 179541, Note_on_c, 11, 89, 100
17, 179712, Note_off_c, 11, 69, 0
17, 179712, Note_off_c, 11, 72, 0
17, 179712, Note_off_c, 11, 74, 0
17, 179712, Note_off_c, 11, 77, 0
17, 179712, Note_off_c, 11, 79, 0
17, 179712, Note_off_c, 11, 82, 0
17, 179712, Note_off_c, 11, 86, 0
17, 179712, Note_off_c, 11, 89, 0
17, 179712, Note_on_c, 11, 69, 99
17, 179712, Note_on_c, 11, 72, 99
17, 179712, Note_on_c, 11, 74, 99
17, 179712, Note_on_c, 11, 77, 99
17, 179712, Note_on_c, 11, 79, 99
17, 179712, Note_on_c, 11, 82, 99
17, 179712, Note_on_c, 11, 86, 99
17, 179712, Note_on_c, 11, 89, 99
17, 179882, Note_off_c, 11, 69, 0
17, 179882, Note_off_c, 11, 72, 0
17, 179882, Note_off_c, 11, 74, 0
17, 179882, Note_off_c, 11, 77, 0
17, 179882, Note_off_c, 11, 79, 0
17, 179882, Note_off_c, 11, 82, 0
17, 179882, Note_off_c, 11, 86, 0
17, 179882, Note_off_c, 11, 89, 0
17, 179882, Note_on_c, 11, 69, 95
17, 179882, Note_on_c, 11, 72, 95
17, 179882, Note_on_c, 11, 74, 95
17, 179882, Note_on_c, 11, 77, 95
17, 179882, Note_on_c, 11, 79, 95
17, 179882, Note_on_c, 11, 82, 95
17, 179882, Note_on_c, 11, 86, 95
17, 179882, Note_on_c, 11, 89, 95
17, 180053, Note_off_c, 11, 69, 0
17, 180053, Note_off_c, 11, 72, 0
17, 180053, Note_off_c, 11, 74, 0
17, 180053, Note_off_c, 11, 77, 0
17, 180053, Note_off_c, 11, 79, 0
17, 180053, Note_off_c, 11, 82, 0
17, 180053, Note_off_c, 11, 86, 0
17, 180053, Note_off_c, 11, 89, 0
17, 180053, Note_on_c, 11, 69, 101
17, 180053, Note_on_c, 11, 72, 101
17, 180053, Note_on_c, 11, 74, 101
17, 180053, Note_on_c, 11, 77, 101
17, 180053, Note_on_c, 11, 79, 101
17, 180053, Note_on_c, 11, 82, 101
17, 180053, Note_on_c, 11, 86, 101
17, 180053, Note_on_c, 11, 89, 101
17, 180224, Note_off_c, 11, 69, 0
17, 180224, Note_off_c, 11, 72, 0
17, 180224, Note_off_c, 11, 74, 0
17, 180224, Note_off_c, 11, 77, 0
17, 180224, Note_off_c, 11, 79, 0
17, 180224, Note_off_c, 11, 82, 0
17, 180224, Note_off_c, 11, 86, 0
17, 180224, Note_off_c, 11, 89, 0
17, 180224, Note_on_c, 11, 69, 102
17, 180224, Note_on_c, 11, 72, 102
17, 180224, Note_on_c, 11, 74, 102
17, 180224, Note_on_c, 11, 77, 102
17, 180224, Note_on_c, 11, 79, 102
17, 180224, Note_on_c, 11, 82, 102
17, 180224, Note_on_c, 11, 86, 102
17, 180224, Note_on_c, 11, 89, 102
17, 180394, Note_off_c, 11, 69, 0
17, 180394, Note_off_c, 11, 72, 0
17, 180394, Note_off_c, 11, 74, 0
17, 180394, Note_off_c, 11, 77, 0
17, 180394, Note_off_c, 11, 79, 0
17, 180394, Note_off_c, 11, 82, 0
17, 180394, Note_off_c, 11, 86, 0
17, 180394, Note_off_c, 11, 89, 0
17, 180394, Note_on_c, 11, 71, 96
17, 180394, Note_on_c, 11, 72, 96
17, 180394, Note_on_c, 11, 74, 96
17, 180394, Note_on_c, 11, 77, 96
17, 180394, Note_on_c, 11, 79, 96
17, 180394, Note_on_c, 11, 83, 96
17, 180394, Note_on_c, 11, 86, 96
17, 180394, Note_on_c, 11, 89, 96
17, 180565, Note_off_c, 11, 71, 0
17, 180565, Note_off_c, 11, 72, 0
17, 180565, Note_off_c, 11, 74, 0
17, 180565, Note_off_c, 11, 77, 0
17, 180565, Note_off_c, 11, 79, 0
17, 180565, Note_off_c, 11, 83, 0
17, 180565, Note_off_c, 11, 86, 0
17, 180565, Note_off_c, 11, 89, 0
17, 180565, Note_on_c, 11, 71, 100
17, 180565, Note_on_c, 11, 72, 100
17, 180565, Note_on_c, 11, 74, 100
17, 180565, Note_on_c, 11, 77, 100
17, 180565, Note_on_c, 11, 79, 100
17, 180565, Note_on_c, 11, 83, 100
17, 180565, Note_on_c, 11, 86, 100
17, 180565, Note_on_c, 11, 89, 100
17, 180736, Note_off_c, 11, 71, 0
17, 180736, Note_off_c, 11, 72, 0
17, 180736, Note_off_c, 11, 74, 0
17, 180736, Note_off_c, 11, 77, 0
17, 180736, Note_off_c, 11, 79, 0
17, 180736, Note_off_c, 11, 83, 0
17, 180736, Note_off_c, 11, 86, 0
17, 180736, Note_off_c, 11, 89, 0
17, 180736, Note_on_c, 11, 71, 97
17, 180736, Note_on_c, 11, 72, 97
17, 180736, Note_on_c, 11, 74, 97
17, 180736, Note_on_c, 11, 77, 97
17, 180736, Note_on_c, 11, 79, 97
17, 180736, Note_on_c, 11, 83, 97
17, 180736, Note_on_c, 11, 86, 97
17, 180736, Note_on_c, 11, 89, 97
17, 180906, Note_off_c, 11, 71, 0
17, 180906, Note_off_c, 11, 72, 0
17, 180906, Note_off_c, 11, 74, 0
17, 180906, Note_off_c, 11, 77, 0
17, 180906, Note_off_c, 11, 79, 0
17, 180906, Note_off_c, 11, 83, 0
17, 180906, Note_off_c, 11, 86, 0
17, 180906, Note_off_c, 11, 89, 0
17, 180906, Note_on_c, 11, 71, 96
17, 180906, Note_on_c, 11, 72, 96
17, 180906, Note_on_c, 11, 74, 96
17, 180906, Note_on_c, 11, 77, 96
17, 180906, Note_on_c, 11, 79, 96
17, 180906, Note_on_c, 11, 83, 96
17, 180906, Note_on_c, 11, 86, 96
17, 180906, Note_on_c, 11, 89, 96
17, 181077, Note_off_c, 11, 71, 0
17, 181077, Note_off_c, 11, 72, 0
17, 181077, Note_off_c, 11, 74, 0
17, 181077, Note_off_c, 11, 77, 0
17, 181077, Note_off_c, 11, 79, 0
17, 181077, Note_off_c, 11, 83, 0
17, 181077, Note_off_c, 11, 86, 0
17, 181077, Note_off_c, 11, 89, 0
17, 181077, Note_on_c, 11, 71, 97
17, 181077, Note_on_c, 11, 72, 97
17, 181077, Note_on_c, 11, 74, 97
17, 181077, Note_on_c, 11, 77, 97
17, 181077, Note_on_c, 11, 79, 97
17, 181077, Note_on_c, 11, 83, 97
17, 181077, Note_on_c, 11, 86, 97
17, 181077, Note_on_c, 11, 89, 97
17, 181248, Note_off_c, 11, 71, 0
17, 181248, Note_off_c, 11, 72, 0
17, 181248, Note_off_c, 11, 74, 0
17, 181248, Note_off_c, 11, 77, 0
17, 181248, Note_off_c, 11, 79, 0
17, 181248, Note_off_c, 11, 83, 0
17, 181248, Note_off_c, 11, 86, 0
17, 181248, Note_off_c, 11, 89, 0
17, 181248, Note_on_c, 11, 71, 93
17, 181248, Note_on_c, 11, 72, 93
17, 181248, Note_on_c, 11, 74, 93
17, 181248, Note_on_c, 11, 77, 93
17, 181248, Note_on_c, 11, 79, 93
17, 181248, Note_on_c, 11, 83, 93
17, 181248, Note_on_c, 11, 86, 93
17, 181248, Note_on_c, 11, 89, 93
17, 181418, Note_off_c, 11, 71, 0
17, 181418, Note_off_c, 11, 72, 0
17, 181418, Note_off_c, 11, 74, 0
17, 181418, Note_off_c, 11, 77, 0
17, 181418, Note_off_c, 11, 79, 0
17, 181418, Note_off_c, 11, 83, 0
17, 181418, Note_off_c, 11, 86, 0
17, 181418, Note_off_c, 11, 89, 0
17, 181418, Note_on_c, 11, 71, 90
17, 181418, Note_on_c, 11, 72, 90
17, 181418, Note_on_c, 11, 74, 90
17, 181418, Note_on_c, 11, 77, 90
17, 181418, Note_on_c, 11, 79, 90
17, 181418, Note_on_c, 11, 83, 90
17, 181418, Note_on_c, 11, 86, 90
17, 181418, Note_on_c, 11, 89, 90
17, 181589, Note_off_c, 11, 71, 0
17, 181589, Note_off_c, 11, 72, 0
17, 181589, Note_off_c, 11, 74, 0
17, 181589, Note_off_c, 11, 77, 0
17, 181589, Note_off_c, 11, 79, 0
17, 181589, Note_off_c, 11, 83, 0
17, 181589, Note_off_c, 11, 86, 0
17, 181589, Note_off_c, 11, 89, 0
17, 181589, Note_on_c, 11, 71, 98
17, 181589, Note_on_c, 11, 72, 98
17, 181589, Note_on_c, 11, 74, 98
17, 181589, Note_on_c, 11, 77, 98
17, 181589, Note_on_c, 11, 79, 98
17, 181589, Note_on_c, 11, 83, 98
17, 181589, Note_on_c, 11, 86, 98
17, 181589, Note_on_c, 11, 89, 98
17, 181760, Note_off_c, 11, 71, 0
17, 181760, Note_off_c, 11, 72, 0
17, 181760, Note_off_c, 11, 74, 0
17, 181760, Note_off_c, 11, 77, 0
17, 181760, Note_off_c, 11, 79, 0
17, 181760, Note_off_c, 11, 83, 0
17, 181760, Note_off_c, 11, 86, 0
17, 181760, Note_off_c, 11, 89, 0
17, 181760, Note_on_c, 11, 71, 98
17, 181760, Note_on_c, 11, 72, 98
17, 181760, Note_on_c, 11, 74, 98
17, 181760, Note_on_c, 11, 77, 98
17, 181760, Note_on_c, 11, 79, 98
17, 181760, Note_on_c, 11, 83, 98
17, 181760, Note_on_c, 11, 86, 98
17, 181760, Note_on_c, 11, 89, 98
17, 181930, Note_off_c, 11, 71, 0
17, 181930, Note_off_c, 11, 72, 0
17, 181930, Note_off_c, 11, 74, 0
17, 181930, Note_off_c, 11, 77, 0
17, 181930, Note_off_c, 11, 79, 0
17, 181930, Note_off_c, 11, 83, 0
17, 181930, Note_off_c, 11, 86, 0
17, 181930, Note_off_c, 11, 89, 0
17, 181930, Note_on_c, 11, 71, 102
17, 181930, Note_on_c, 11, 72, 102
17, 181930, Note_on_c, 11, 74, 102
17, 181930, Note_on_c, 11, 77, 102
17, 181930, Note_on_c, 11, 79, 102
17, 181930, Note_on_c, 11, 83, 102
17, 181930, Note_on_c, 11, 86, 102
17, 181930, Note_on_c, 11, 89, 102
17, 182101, Note_off_c, 11, 71, 0
17, 182101, Note_off_c, 11, 72, 0
17, 182101, Note_off_c, 11, 74, 0
17, 182101, Note_off_c, 11, 77, 0
17, 182101, Note_off_c, 11, 79, 0
17, 182101, Note_off_c, 11, 83, 0
17, 182101, Note_off_c, 11, 86, 0
17, 182101, Note_off_c, 11, 89, 0
17, 182101, Note_on_c, 11, 71, 95
17, 182101, Note_on_c, 11, 72, 95
17, 182101, Note_on_c, 11, 74, 95
17, 182101, Note_on_c, 11, 77, 95
17, 182101, Note_on_c, 11, 79, 95
17, 182101, Note_on_c, 11, 83, 95
17, 182101, Note_on_c, 11, 86, 95
17, 182101, Note_on_c, 11, 89, 95
17, 182272, Note_off_c, 11, 71, 0
17, 182272, Note_off_c, 11, 72, 0
17, 182272, Note_off_c, 11, 74, 0
17, 182272, Note_off_c, 11, 77, 0
17, 182272, Note_off_c, 11, 79, 0
17, 182272, Note_off_c, 11, 83, 0
17, 182272, Note_off_c, 11, 86, 0
17, 182272, Note_off_c, 11, 89, 0
17, 182272, Note_on_c, 11, 71, 96
17, 182272, Note_on_c, 11, 72, 96
17, 182272, Note_on_c, 11, 74, 96
17, 182272, Note_on_c, 11, 77, 96
17, 182272, Note_on_c, 11, 79, 96
17, 182272, Note_on_c, 11, 83, 96
17, 182272, Note_on_c, 11, 86, 96
17, 182272, Note_on_c, 11, 89, 96
17, 182442, Note_off_c, 11, 71, 0
17, 182442, Note_off_c, 11, 72, 0
17, 182442, Note_off_c, 11, 74, 0
17, 182442, Note_off_c, 11, 77, 0
17, 182442, Note_off_c, 11, 79, 0
17, 182442, Note_off_c, 11, 83, 0
17, 182442, Note_off_c, 11, 86, 0
17, 182442, Note_off_c, 11, 89, 0
17, 182442, Note_on_c, 11, 71, 98
17, 182442, Note_on_c, 11, 72, 98
17, 182442, Note_on_c, 11, 74, 98
17, 182442, Note_on_c, 11, 77, 98
17, 182442, Note_on_c, 11, 79, 98
17, 182442, Note_on_c, 11, 83, 98
17, 182442, Note_on_c, 11, 86, 98
17, 182442, Note_on_c, 11, 89, 98
17, 182613, Note_off_c, 11, 71, 0
17, 182613, Note_off_c, 11, 72, 0
17, 182613, Note_off_c, 11, 74, 0
17, 182613, Note_off_c, 11, 77, 0
17, 182613, Note_off_c, 11, 79, 0
17, 182613, Note_off_c, 11, 83, 0
17, 182613, Note_off_c, 11, 86, 0
17, 182613, Note_off_c, 11, 89, 0
17, 182613, Note_on_c, 11, 71, 95
17, 182613, Note_on_c, 11, 72, 95
17, 182613, Note_on_c, 11, 74, 95
17, 182613, Note_on_c, 11, 77, 95
17, 182613, Note_on_c, 11, 79, 95
17, 182613, Note_on_c, 11, 83, 95
17, 182613, Note_on_c, 11, 86, 95
17, 182613, Note_on_c, 11, 89, 95
17, 182784, Note_off_c, 11, 71, 0
17, 182784, Note_off_c, 11, 72, 0
17, 182784, Note_off_c, 11, 74, 0
17, 182784, Note_off_c, 11, 77, 0
17, 182784, Note_off_c, 11, 79, 0
17, 182784, Note_off_c, 11, 83, 0
17, 182784, Note_off_c, 11, 86, 0
17, 182784, Note_off_c, 11, 89, 0
17, 182784, Note_on_c, 11, 71, 96
17, 182784, Note_on_c, 11, 72, 96
17, 182784, Note_on_c, 11, 74, 96
17, 182784, Note_on_c, 11, 77, 96
17, 182784, Note_on_c, 11, 79, 96
17, 182784, Note_on_c, 11, 83, 96
17, 182784, Note_on_c, 11, 86, 96
17, 182784, Note_on_c, 11, 89, 96
17, 182954, Note_off_c, 11, 71, 0
17, 182954, Note_off_c, 11, 72, 0
17, 182954, Note_off_c, 11, 74, 0
17, 182954, Note_off_c, 11, 77, 0
17, 182954, Note_off_c, 11, 79, 0
17, 182954, Note_off_c, 11, 83, 0
17, 182954, Note_off_c, 11, 86, 0
17, 182954, Note_off_c, 11, 89, 0
17, 182954, Note_on_c, 11, 71, 100
17, 182954, Note_on_c, 11, 72, 100
17, 182954, Note_on_c, 11, 74, 100
17, 182954, Note_on_c, 11, 77, 100
17, 182954, Note_on_c, 11, 79, 100
17, 182954, Note_on_c, 11, 83, 100
17, 182954, Note_on_c, 11, 86, 100
17, 182954, Note_on_c, 11, 89, 100
17, 183125, Note_off_c, 11, 71, 0
17, 183125, Note_off_c, 11, 72, 0
17, 183125, Note_off_c, 11, 74, 0
17, 183125, Note_off_c, 11, 77, 0
17, 183125, Note_off_c, 11, 79, 0
17, 183125, Note_off_c, 11, 83, 0
17, 183125, Note_off_c, 11, 86, 0
17, 183125, Note_off_c, 11, 89, 0
17, 183125, Note_on_c, 11, 72, 106
17, 183125, Note_on_c, 11, 74, 106
17, 183125, Note_on_c, 11, 77, 106
17, 183125, Note_on_c, 11, 79, 106
17, 183125, Note_on_c, 11, 83, 106
17, 183125, Note_on_c, 11, 86, 106
17, 183125, Note_on_c, 11, 89, 106
17, 183125, Note_on_c, 11, 93, 106
17, 183296, Note_off_c, 11, 72, 0
17, 183296, Note_off_c, 11, 74, 0
17, 183296, Note_off_c, 11, 77, 0
17, 183296, Note_off_c, 11, 79, 0
17, 183296, Note_off_c, 11, 83, 0
17, 183296, Note_off_c, 11, 86, 0
17, 183296, Note_off_c, 11, 89, 0
17, 183296, Note_off_c, 11, 93, 0
17, 183296, Note_on_c, 11, 72, 100
17, 183296, Note_on_c, 11, 74, 100
17, 183296, Note_on_c, 11, 77, 100
17, 183296, Note_on_c, 11, 79, 100
17, 183296, Note_on_c, 11, 83, 100
17, 183296, Note_on_c, 11, 86, 100
17, 183296, Note_on_c, 11, 89, 100
17, 183296, Note_on_c, 11, 93, 100
17, 183552, Note_off_c, 11, 72, 0
17, 183552, Note_off_c, 11, 74, 0
17, 183552, Note_off_c, 11, 77, 0
17, 183552, Note_off_c, 11, 79, 0
17, 183552, Note_off_c, 11, 83, 0
17, 183552, Note_off_c, 11, 86, 0
17, 183552, Note_off_c, 11, 89, 0
17, 183552, Note_off_c, 11, 93, 0
17, 183552, Note_on_c, 11, 72, 94
17, 183552, Note_on_c, 11, 74, 94
17, 183552, Note_on_c, 11, 77, 94
17, 183552, Note_on_c, 11, 79, 94
17, 183552, Note_on_c, 11, 83, 94
17, 183552, Note_on_c, 11, 86, 94
17, 183552, Note_on_c, 11, 89, 94
17, 183552, Note_on_c, 11, 93, 94
17, 183808, Note_off_c, 11, 72, 0
17, 183808, Note_off_c, 11, 74, 0
17, 183808, Note_off_c, 11, 77, 0
17, 183808, Note_off_c, 11, 79, 0
17, 183808, Note_off_c, 11, 83, 0
17, 183808, Note_off_c, 11, 86, 0
17, 183808, Note_off_c, 11, 89, 0
17, 183808, Note_off_c, 11, 93, 0
17, 183808, Note_on_c, 11, 72, 100
17, 183808, Note_on_c, 11, 74, 100
17, 183808, Note_on_c, 11, 77, 100
17, 183808, Note_on_c, 11, 79, 100
17, 183808, Note_on_c, 11, 83, 100
17, 183808, Note_on_c, 11, 86, 100
17, 183808, Note_on_c, 11, 89, 100
17, 183808, Note_on_c, 11, 93, 100
17, 184064, Note_off_c, 11, 72, 0
17, 184064, Note_off_c, 11, 74, 0
17, 184064, Note_off_c, 11, 77, 0
17, 184064, Note_off_c, 11, 79, 0
17, 184064, Note_off_c, 11, 83, 0
17, 184064, Note_off_c, 11, 86, 0
17, 184064, Note_off_c, 11, 89, 0
17, 184064, Note_off_c, 11, 93, 0
17, 184064, Note_on_c, 11, 72, 97
17, 184064, Note_on_c, 11, 74, 97
17, 184064, Note_on_c, 11, 77, 97
17, 184064, Note_on_c, 11, 79, 97
17, 184064, Note_on_c, 11, 83, 97
17, 184064, Note_on_c, 11, 86, 97
17, 184064, Note_on_c, 11, 89, 97
17, 184064, Note_on_c, 11, 93, 97
17, 184320, Note_off_c, 11, 72, 0
17, 184320, Note_off_c, 11, 74, 0
17, 184320, Note_off_c, 11, 77, 0
17, 184320, Note_off_c, 11, 79, 0
17, 184320, Note_off_c, 11, 83, 0
17, 184320, Note_off_c, 11, 86, 0
17, 184320, Note_off_c, 11, 89, 0
17, 184320, Note_off_c, 11, 93, 0
17, 184320, Note_on_c, 11, 72, 102
17, 184320, Note_on_c, 11, 74, 102
17, 184320, Note_on_c, 11, 77, 102
17, 184320, Note_on_c, 11, 79, 102
17, 184320, Note_on_c, 11, 83, 102
17, 184320, Note_on_c, 11, 86, 102
17, 184320, Note_on_c, 11, 89, 102
17, 184320, Note_on_c, 11, 93, 102
17, 184576, Note_off_c, 11, 72, 0
17, 184576, Note_off_c, 11, 74, 0
17, 184576, Note_off_c, 11, 77, 0
17, 184576, Note_off_c, 11, 79, 0
17, 184576, Note_off_c, 11, 83, 0
17, 184576, Note_off_c, 11, 86, 0
17, 184576, Note_off_c, 11, 89, 0
17, 184576, Note_off_c, 11, 93, 0
17, 184576, Note_on_c, 11, 72, 93
17, 184576, Note_on_c, 11, 74, 93
17, 184576, Note_on_c, 11, 77, 93
17, 184576, Note_on_c, 11, 79, 93
17, 184576, Note_on_c, 11, 83, 93
17, 184576, Note_on_c, 11, 86, 93
17, 184576, Note_on_c, 11, 89, 93
17, 184576, Note_on_c, 11, 93, 93
17, 184832, Note_off_c, 11, 72, 0
17, 184832, Note_off_c, 11, 74, 0
17, 184832, Note_off_c, 11, 77, 0
17, 184832, Note_off_c, 11, 79, 0
17, 184832, Note_off_c, 11, 83, 0
17, 184832, Note_off_c, 11, 86, 0
17, 184832, Note_off_c, 11, 89, 0
17, 184832, Note_off_c, 11, 93, 0
17, 184832, Note_on_c, 11, 72, 99
17, 184832, Note_on_c, 11, 74, 99
17, 184832, Note_on_c, 11, 77, 99
17, 184832, Note_on_c, 11, 79, 99
17, 184832, Note_on_c, 11, 83, 99
17, 184832, Note_on_c, 11, 86, 99
17, 184832, Note_on_c, 11, 89, 99
17, 184832, Note_on_c, 11, 93, 99
17, 185088, Note_off_c, 11, 72, 0
17, 185088, Note_off_c, 11, 74, 0
17, 185088, Note_off_c, 11, 77, 0
17, 185088, Note_off_c, 11, 79, 0
17, 185088, Note_off_c, 11, 83, 0
17, 185088, Note_off_c, 11, 86, 0
17, 185088, Note_off_c, 11, 89, 0
17, 185088, Note_off_c, 11, 93, 0
17, 185088, Note_on_c, 11, 72, 99
17, 185088, Note_on_c, 11, 74, 99
17, 185088, Note_on_c, 11, 77, 99
17, 185088, Note_on_c, 11, 79, 99
17, 185088, Note_on_c, 11, 83, 99
17, 185088, Note_on_c, 11, 86, 99
17, 185088, Note_on_c, 11, 89, 99
17, 185088, Note_on_c, 11, 93, 99
17, 185344, Note_off_c, 11, 72, 0
17, 185344, Note_off_c, 11, 74, 0
17, 185344, Note_off_c, 11, 77, 0
17, 185344, Note_off_c, 11, 79, 0
17, 185344, Note_off_c, 11, 83, 0
17, 185344, Note_off_c, 11, 86, 0
17, 185344, Note_off_c, 11, 89, 0
17, 185344, Note_off_c, 11, 93, 0
17, 185344, Note_on_c, 11, 72, 95
17, 185344, Note_on_c, 11, 74, 95
17, 185344, Note_on_c, 11, 77, 95
17, 185344, Note_on_c, 11, 79, 95
17, 185344, Note_on_c, 11, 83, 95
17, 185344, Note_on_c, 11, 86, 95
17, 185344, Note_on_c, 11, 89, 95
17, 185344, Note_on_c, 11, 93, 95
17, 185600, Note_off_c, 11, 72, 0
17, 185600, Note_off_c, 11, 74, 0
17, 185600, Note_off_c, 11, 77, 0
17, 185600, Note_off_c, 11, 79, 0
17, 185600, Note_off_c, 11, 83, 0
17, 185600, Note_off_c, 11, 86, 0
17, 185600, Note_off_c, 11, 89, 0
17, 185600, Note_off_c, 11, 93, 0
17, 185600, Note_on_c, 11, 72, 101
17, 185600, Note_on_c, 11, 74, 101
17, 185600, Note_on_c, 11, 77, 101
17, 185600, Note_on_c, 11, 79, 101
17, 185600, Note_on_c, 11, 83, 101
17, 185600, Note_on_c, 11, 86, 101
17, 185600, Note_on_c, 11, 89, 101
17, 185600, Note_on_c, 11, 93, 101
17, 185856, Note_off_c, 11, 72, 0
17, 185856, Note_off_c, 11, 74, 0
17, 185856, Note_off_c, 11, 77, 0
17, 185856, Note_off_c, 11, 79, 0
17, 185856, Note_off_c, 11, 83, 0
17, 185856, Note_off_c, 11, 86, 0
17, 185856, Note_off_c, 11, 89, 0
17, 185856, Note_off_c, 11, 93, 0
17, 185856, Note_on_c, 11, 72, 95
17, 185856, Note_on_c, 11, 74, 95
17, 185856, Note_on_c, 11, 77, 95
17, 185856, Note_on_c, 11, 79, 95
17, 185856, Note_on_c, 11, 83, 95
17, 185856, Note_on_c, 11, 86, 95
17, 185856, Note_on_c, 11, 89, 95
17, 185856, Note_on_c, 11, 93, 95
17, 186112, Note_off_c, 11, 72, 0
17, 186112, Note_off_c, 11, 74, 0
17, 186112, Note_off_c, 11, 77, 0
17, 186112, Note_off_c, 11, 79, 0
17, 186112, Note_off_c, 11, 83, 0
17, 186112, Note_off_c, 11, 86, 0
17, 186112, Note_off_c, 11, 89, 0
17, 186112, Note_off_c, 11, 93, 0
17, 186112, Note_on_c, 11, 72, 100
17, 186112, Note_on_c, 11, 74, 100
17, 186112, Note_on_c, 11, 77, 100
17, 186112, Note_on_c, 11, 79, 100
17, 186112, Note_on_c, 11, 83, 100
17, 186112, Note_on_c, 11, 86, 100
17, 186112, Note_on_c, 11, 89, 100
17, 186112, Note_on_c, 11, 93, 100
17, 186368, Note_off_c, 11, 72, 0
17, 186368, Note_off_c, 11, 74, 0
17, 186368, Note_off_c, 11, 77, 0
17, 186368, Note_off_c, 11, 79, 0
17, 186368, Note_off_c, 11, 83, 0
17, 186368, Note_off_c, 11, 86, 0
17, 186368, Note_off_c, 11, 89, 0
17, 186368, Note_off_c, 11, 93, 0
17, 189440, Note_on_c, 11, 77, 69
17, 189440, Note_on_c, 11, 79, 69
17, 189440, Note_on_c, 11, 83, 69
17, 189440, Note_on_c, 11, 86, 69
17, 189525, Note_off_c, 11, 77, 0
17, 189525, Note_off_c, 11, 79, 0
17, 189525, Note_off_c, 11, 83, 0
17, 189525, Note_off_c, 11, 86, 0
17, 189525, Note_on_c, 11, 67, 62
17, 189525, Note_on_c, 11, 71, 62
17, 189525, Note_on_c, 11, 72, 62
17, 189525, Note_on_c, 11, 74, 62
17, 189610, Note_off_c, 11, 67, 0
17, 189610, Note_off_c, 11, 71, 0
17, 189610, Note_off_c, 11, 72, 0
17, 189610, Note_off_c, 11, 74, 0
17, 189610, Note_on_c, 11, 77, 103
17, 189610, Note_on_c, 11, 79, 103
17, 189610, Note_on_c, 11, 83, 103
17, 189610, Note_on_c, 11, 86, 103
17, 189696, Note_off_c, 11, 77, 0
17, 189696, Note_off_c, 11, 79, 0
17, 189696, Note_off_c, 11, 83, 0
17, 189696, Note_off_c, 11, 86, 0
17, 189696, Note_on_c, 11, 67, 67
17, 189696, Note_on_c, 11, 71, 67
17, 189696, Note_on_c, 11, 72, 67
17, 189696, Note_on_c, 11, 74, 67
17, 189781, Note_off_c, 11, 67, 0
17, 189781, Note_off_c, 11, 71, 0
17, 189781, Note_off_c, 11, 72, 0
17, 189781, Note_off_c, 11, 74, 0
17, 189952, Note_on_c, 11, 77, 77
17, 189952, Note_on_c, 11, 79, 77
17, 189952, Note_on_c, 11, 82, 77
17, 189952, Note_on_c, 11, 86, 77
17, 190037, Note_off_c, 11, 77, 0
17, 190037, Note_off_c, 11, 79, 0
17, 190037, Note_off_c, 11, 82, 0
17, 190037, Note_off_c, 11, 86, 0
17, 190037, Note_on_c, 11, 67, 60
17, 190037, Note_on_c, 11, 70, 60
17, 190037, Note_on_c, 11, 72, 60
17, 190037, Note_on_c, 11, 74, 60
17, 190122, Note_off_c, 11, 67, 0
17, 190122, Note_off_c, 11, 70, 0
17, 190122, Note_off_c, 11, 72, 0
17, 190122, Note_off_c, 11, 74, 0
17, 190122, Note_on_c, 11, 77, 104
17, 190122, Note_on_c, 11, 79, 104
17, 190122, Note_on_c, 11, 82, 104
17, 190122, Note_on_c, 11, 86, 104
17, 190208, Note_off_c, 11, 77, 0
17, 190208, Note_off_c, 11, 79, 0
17, 190208, Note_off_c, 11, 82, 0
17, 190208, Note_off_c, 11, 86, 0
17, 190208, Note_on_c, 11, 67, 64
17, 190208, Note_on_c, 11, 70, 64
17, 190208, Note_on_c, 11, 72, 64
17, 190208, Note_on_c, 11, 74, 64
17, 190293, Note_off_c, 11, 67, 0
17, 190293, Note_off_c, 11, 70, 0
17, 190293, Note_off_c, 11, 72, 0
17, 190293, Note_off_c, 11, 74, 0
17, 190378, Note_on_c, 11, 77, 78
17, 190378, Note_on_c, 11, 79, 78
17, 190378, Note_on_c, 11, 82, 78
17, 190378, Note_on_c, 11, 86, 78
17, 190464, Note_off_c, 11, 77, 0
17, 190464, Note_off_c, 11, 79, 0
17, 190464, Note_off_c, 11, 82, 0
17, 190464, Note_off_c, 11, 86, 0
17, 190464, Note_on_c, 11, 67, 65
17, 190464, Note_on_c, 11, 70, 65
17, 190464, Note_on_c, 11, 72, 65
17, 190464, Note_on_c, 11, 74, 65
17, 190549, Note_off_c, 11, 67, 0
17, 190549, Note_off_c, 11, 70, 0
17, 190549, Note_off_c, 11, 72, 0
17, 190549, Note_off_c, 11, 74, 0
17, 190549, Note_on_c, 11, 77, 101
17, 190549, Note_on_c, 11, 79, 101
17, 190549, Note_on_c, 11, 82, 101
17, 190549, Note_on_c, 11, 86, 101
17, 190634, Note_off_c, 11, 77, 0
17, 190634, Note_off_c, 11, 79, 0
17, 190634, Note_off_c, 11, 82, 0
17, 190634, Note_off_c, 11, 86, 0
17, 190805, Note_on_c, 11, 67, 72
17, 190805, Note_on_c, 11, 70, 72
17, 190805, Note_on_c, 11, 72, 72
17, 190805, Note_on_c, 11, 74, 72
17, 190890, Note_off_c, 11, 67, 0
17, 190890, Note_off_c, 11, 70, 0
17, 190890, Note_off_c, 11, 72, 0
17, 190890, Note_off_c, 11, 74, 0
17, 190890, Note_on_c, 11, 77, 105
17, 190890, Note_on_c, 11, 79, 105
17, 190890, Note_on_c, 11, 82, 105
17, 190890, Note_on_c, 11, 86, 105
17, 190976, Note_off_c, 11, 77, 0
17, 190976, Note_off_c, 11, 79, 0
17, 190976, Note_off_c, 11, 82, 0
17, 190976, Note_off_c, 11, 86, 0
17, 190976, Note_on_c, 11, 67, 68
17, 190976, Note_on_c, 11, 70, 68
17, 190976, Note_on_c, 11, 72, 68
17, 190976, Note_on_c, 11, 74, 68
17, 191061, Note_off_c, 11, 67, 0
17, 191061, Note_off_c, 11, 70, 0
17, 191061, Note_off_c, 11, 72, 0
17, 191061, Note_off_c, 11, 74, 0
17, 191061, Note_on_c, 11, 77, 101
17, 191061, Note_on_c, 11, 79, 101
17, 191061, Note_on_c, 11, 82, 101
17, 191061, Note_on_c, 11, 86, 101
17, 191146, Note_off_c, 11, 77, 0
17, 191146, Note_off_c, 11, 79, 0
17, 191146, Note_off_c, 11, 82, 0
17, 191146, Note_off_c, 11, 86, 0
17, 191146, Note_on_c, 11, 67, 64
17, 191146, Note_on_c, 11, 70, 64
17, 191146, Note_on_c, 11, 72, 64
17, 191146, Note_on_c, 11, 74, 64
17, 191232, Note_off_c, 11, 67, 0
17, 191232, Note_off_c, 11, 70, 0
17, 191232, Note_off_c, 11, 72, 0
17, 191232, Note_off_c, 11, 74, 0
17, 191402, Note_on_c, 11, 77, 78
17, 191402, Note_on_c, 11, 79, 78
17, 191402, Note_on_c, 11, 82, 78
17, 191402, Note_on_c, 11, 86, 78
17, 191488, Note_off_c, 11, 77, 0
17, 191488, Note_off_c, 11, 79, 0
17, 191488, Note_off_c, 11, 82, 0
17, 191488, Note_off_c, 11, 86, 0
17, 191488, Note_on_c, 11, 67, 58
17, 191488, Note_on_c, 11, 70, 58
17, 191488, Note_on_c, 11, 72, 58
17, 191488, Note_on_c, 11, 74, 58
17, 191573, Note_off_c, 11, 67, 0
17, 191573, Note_off_c, 11, 70, 0
17, 191573, Note_off_c, 11, 72, 0
17, 191573, Note_off_c, 11, 74, 0
17, 191744, Note_on_c, 11, 77, 77
17, 191744, Note_on_c, 11, 79, 77
17, 191744, Note_on_c, 11, 82, 77
17, 191744, Note_on_c, 11, 86, 77
17, 191829, Note_off_c, 11, 77, 0
17, 191829, Note_off_c, 11, 79, 0
17, 191829, Note_off_c, 11, 82, 0
17, 191829, Note_off_c, 11, 86, 0
17, 191829, Note_on_c, 11, 67, 59
17, 191829, Note_on_c, 11, 70, 59
17, 191829, Note_on_c, 11, 72, 59
17, 191829, Note_on_c, 11, 74, 59
17, 191914, Note_off_c, 11, 67, 0
17, 191914, Note_off_c, 11, 70, 0
17, 191914, Note_off_c, 11, 72, 0
17, 191914, Note_off_c, 11, 74, 0
17, 191914, Note_on_c, 11, 77, 106
17, 191914, Note_on_c, 11, 79, 106
17, 191914, Note_on_c, 11, 82, 106
17, 191914, Note_on_c, 11, 86, 106
17, 192000, Note_off_c, 11, 77, 0
17, 192000, Note_off_c, 11, 79, 0
17, 192000, Note_off_c, 11, 82, 0
17, 192000, Note_off_c, 11, 86, 0
17, 192000, Note_on_c, 11, 67, 63
17, 192000, Note_on_c, 11, 70, 63
17, 192000, Note_on_c, 11, 72, 63
17, 192000, Note_on_c, 11, 74, 63
17, 192085, Note_off_c, 11, 67, 0
17, 192085, Note_off_c, 11, 70, 0
17, 192085, Note_off_c, 11, 72, 0
17, 192085, Note_off_c, 11, 74, 0
17, 192085, Note_on_c, 11, 77, 109
17, 192085, Note_on_c, 11, 79, 109
17, 192085, Note_on_c, 11, 82, 109
17, 192085, Note_on_c, 11, 86, 109
17, 192170, Note_off_c, 11, 77, 0
17, 192170, Note_off_c, 11, 79, 0
17, 192170, Note_off_c, 11, 82, 0
17, 192170, Note_off_c, 11, 86, 0
17, 192170, Note_on_c, 11, 67, 61
17, 192170, Note_on_c, 11, 70, 61
17, 192170, Note_on_c, 11, 72, 61
17, 192170, Note_on_c, 11, 74, 61
17, 192256, Note_off_c, 11, 67, 0
17, 192256, Note_off_c, 11, 70, 0
17, 192256, Note_off_c, 11, 72, 0
17, 192256, Note_off_c, 11, 74, 0
17, 192426, Note_on_c, 11, 77, 77
17, 192426, Note_on_c, 11, 79, 77
17, 192426, Note_on_c, 11, 82, 77
17, 192426, Note_on_c, 11, 86, 77
17, 192512, Note_off_c, 11, 77, 0
17, 192512, Note_off_c, 11, 79, 0
17, 192512, Note_off_c, 11, 82, 0
17, 192512, Note_off_c, 11, 86, 0
17, 192512, Note_on_c, 11, 67, 60
17, 192512, Note_on_c, 11, 70, 60
17, 192512, Note_on_c, 11, 72, 60
17, 192512, Note_on_c, 11, 74, 60
17, 192597, Note_off_c, 11, 67, 0
17, 192597, Note_off_c, 11, 70, 0
17, 192597, Note_off_c, 11, 72, 0
17, 192597, Note_off_c, 11, 74, 0
17, 192597, Note_on_c, 11, 77, 105
17, 192597, Note_on_c, 11, 79, 105
17, 192597, Note_on_c, 11, 82, 105
17, 192597, Note_on_c, 11, 86, 105
17, 192682, Note_off_c, 11, 77, 0
17, 192682, Note_off_c, 11, 79, 0
17, 192682, Note_off_c, 11, 82, 0
17, 192682, Note_off_c, 11, 86, 0
17, 192682, Note_on_c, 11, 67, 66
17, 192682, Note_on_c, 11, 70, 66
17, 192682, Note_on_c, 11, 72, 66
17, 192682, Note_on_c, 11, 74, 66
17, 192768, Note_off_c, 11, 67, 0
17, 192768, Note_off_c, 11, 70, 0
17, 192768, Note_off_c, 11, 72, 0
17, 192768, Note_off_c, 11, 74, 0
17, 193024, Note_on_c, 11, 77, 73
17, 193024, Note_on_c, 11, 79, 73
17, 193024, Note_on_c, 11, 82, 73
17, 193024, Note_on_c, 11, 86, 73
17, 193109, Note_off_c, 11, 77, 0
17, 193109, Note_off_c, 11, 79, 0
17, 193109, Note_off_c, 11, 82, 0
17, 193109, Note_off_c, 11, 86, 0
17, 193109, Note_on_c, 11, 67, 55
17, 193109, Note_on_c, 11, 70, 55
17, 193109, Note_on_c, 11, 72, 55
17, 193109, Note_on_c, 11, 74, 55
17, 193194, Note_off_c, 11, 67, 0
17, 193194, Note_off_c, 11, 70, 0
17, 193194, Note_off_c, 11, 72, 0
17, 193194, Note_off_c, 11, 74, 0
17, 193194, Note_on_c, 11, 77, 100
17, 193194, Note_on_c, 11, 79, 100
17, 193194, Note_on_c, 11, 82, 100
17, 193194, Note_on_c, 11, 86, 100
17, 193280, Note_off_c, 11, 77, 0
17, 193280, Note_off_c, 11, 79, 0
17, 193280, Note_off_c, 11, 82, 0
17, 193280, Note_off_c, 11, 86, 0
17, 193280, Note_on_c, 11, 67, 61
17, 193280, Note_on_c, 11, 70, 61
17, 193280, Note_on_c, 11, 72, 61
17, 193280, Note_on_c, 11, 74, 61
17, 193365, Note_off_c, 11, 67, 0
17, 193365, Note_off_c, 11, 70, 0
17, 193365, Note_off_c, 11, 72, 0
17, 193365, Note_off_c, 11, 74, 0
17, 193536, Note_on_c, 11, 77, 77
17, 193536, Note_on_c, 11, 79, 77
17, 193536, Note_on_c, 11, 82, 77
17, 193536, Note_on_c, 11, 86, 77
17, 193621, Note_off_c, 11, 77, 0
17, 193621, Note_off_c, 11, 79, 0
17, 193621, Note_off_c, 11, 82, 0
17, 193621, Note_off_c, 11, 86, 0
17, 193621, Note_on_c, 11, 67, 57
17, 193621, Note_on_c, 11, 70, 57
17, 193621, Note_on_c, 11, 72, 57
17, 193621, Note_on_c, 11, 74, 57
17, 193706, Note_off_c, 11, 67, 0
17, 193706, Note_off_c, 11, 70, 0
17, 193706, Note_off_c, 11, 72, 0
17, 193706, Note_off_c, 11, 74, 0
17, 193706, Note_on_c, 11, 77, 102
17, 193706, Note_on_c, 11, 79, 102
17, 193706, Note_on_c, 11, 82, 102
17, 193706, Note_on_c, 11, 86, 102
17, 193792, Note_off_c, 11, 77, 0
17, 193792, Note_off_c, 11, 79, 0
17, 193792, Note_off_c, 11, 82, 0
17, 193792, Note_off_c, 11, 86, 0
17, 193792, Note_on_c, 11, 67, 65
17, 193792, Note_on_c, 11, 70, 65
17, 193792, Note_on_c, 11, 72, 65
17, 193792, Note_on_c, 11, 74, 65
17, 193877, Note_off_c, 11, 67, 0
17, 193877, Note_off_c, 11, 70, 0
17, 193877, Note_off_c, 11, 72, 0
17, 193877, Note_off_c, 11, 74, 0
17, 193877, Note_on_c, 11, 77, 106
17, 193877, Note_on_c, 11, 79, 106
17, 193877, Note_on_c, 11, 82, 106
17, 193877, Note_on_c, 11, 86, 106
17, 193962, Note_off_c, 11, 77, 0
17, 193962, Note_off_c, 11, 79, 0
17, 193962, Note_off_c, 11, 82, 0
17, 193962, Note_off_c, 11, 86, 0
17, 194048, Note_on_c, 11, 67, 74
17, 194048, Note_on_c, 11, 70, 74
17, 194048, Note_on_c, 11, 72, 74
17, 194048, Note_on_c, 11, 74, 74
17, 194133, Note_off_c, 11, 67, 0
17, 194133, Note_off_c, 11, 70, 0
17, 194133, Note_off_c, 11, 72, 0
17, 194133, Note_off_c, 11, 74, 0
17, 194133, Note_on_c, 11, 77, 106
17, 194133, Note_on_c, 11, 79, 106
17, 194133, Note_on_c, 11, 82, 106
17, 194133, Note_on_c, 11, 86, 106
17, 194218, Note_off_c, 11, 77, 0
17, 194218, Note_off_c, 11, 79, 0
17, 194218, Note_off_c, 11, 82, 0
17, 194218, Note_off_c, 11, 86, 0
17, 194218, Note_on_c, 11, 67, 67
17, 194218, Note_on_c, 11, 70, 67
17, 194218, Note_on_c, 11, 72, 67
17, 194218, Note_on_c, 11, 74, 67
17, 194304, Note_off_c, 11, 67, 0
17, 194304, Note_off_c, 11, 70, 0
17, 194304, Note_off_c, 11, 72, 0
17, 194304, Note_off_c, 11, 74, 0
17, 194560, Note_on_c, 11, 77, 81
17, 194560, Note_on_c, 11, 79, 81
17, 194560, Note_on_c, 11, 81, 81
17, 194560, Note_on_c, 11, 86, 81
17, 194645, Note_off_c, 11, 77, 0
17, 194645, Note_off_c, 11, 79, 0
17, 194645, Note_off_c, 11, 81, 0
17, 194645, Note_off_c, 11, 86, 0
17, 194645, Note_on_c, 11, 67, 59
17, 194645, Note_on_c, 11, 70, 59
17, 194645, Note_on_c, 11, 72, 59
17, 194645, Note_on_c, 11, 76, 59
17, 194730, Note_off_c, 11, 67, 0
17, 194730, Note_off_c, 11, 70, 0
17, 194730, Note_off_c, 11, 72, 0
17, 194730, Note_off_c, 11, 76, 0
17, 194730, Note_on_c, 11, 77, 100
17, 194730, Note_on_c, 11, 79, 100
17, 194730, Note_on_c, 11, 81, 100
17, 194730, Note_on_c, 11, 86, 100
17, 194816, Note_off_c, 11, 77, 0
17, 194816, Note_off_c, 11, 79, 0
17, 194816, Note_off_c, 11, 81, 0
17, 194816, Note_off_c, 11, 86, 0
17, 194816, Note_on_c, 11, 67, 68
17, 194816, Note_on_c, 11, 70, 68
17, 194816, Note_on_c, 11, 72, 68
17, 194816, Note_on_c, 11, 76, 68
17, 194901, Note_off_c, 11, 67, 0
17, 194901, Note_off_c, 11, 70, 0
17, 194901, Note_off_c, 11, 72, 0
17, 194901, Note_off_c, 11, 76, 0
17, 194901, Note_on_c, 11, 77, 99
17, 194901, Note_on_c, 11, 79, 99
17, 194901, Note_on_c, 11, 81, 99
17, 194901, Note_on_c, 11, 86, 99
17, 194986, Note_off_c, 11, 77, 0
17, 194986, Note_off_c, 11, 79, 0
17, 194986, Note_off_c, 11, 81, 0
17, 194986, Note_off_c, 11, 86, 0
17, 194986, Note_on_c, 11, 67, 67
17, 194986, Note_on_c, 11, 70, 67
17, 194986, Note_on_c, 11, 72, 67
17, 194986, Note_on_c, 11, 76, 67
17, 195072, Note_off_c, 11, 67, 0
17, 195072, Note_off_c, 11, 70, 0
17, 195072, Note_off_c, 11, 72, 0
17, 195072, Note_off_c, 11, 76, 0
17, 195072, Note_on_c, 11, 77, 101
17, 195072, Note_on_c, 11, 79, 101
17, 195072, Note_on_c, 11, 81, 101
17, 195072, Note_on_c, 11, 86, 101
17, 195157, Note_off_c, 11, 77, 0
17, 195157, Note_off_c, 11, 79, 0
17, 195157, Note_off_c, 11, 81, 0
17, 195157, Note_off_c, 11, 86, 0
17, 195157, Note_on_c, 11, 67, 69
17, 195157, Note_on_c, 11, 70, 69
17, 195157, Note_on_c, 11, 72, 69
17, 195157, Note_on_c, 11, 76, 69
17, 195242, Note_off_c, 11, 67, 0
17, 195242, Note_off_c, 11, 70, 0
17, 195242, Note_off_c, 11, 72, 0
17, 195242, Note_off_c, 11, 76, 0
17, 195242, Note_on_c, 11, 77, 100
17, 195242, Note_on_c, 11, 79, 100
17, 195242, Note_on_c, 11, 81, 100
17, 195242, Note_on_c, 11, 86, 100
17, 195328, Note_off_c, 11, 77, 0
17, 195328, Note_off_c, 11, 79, 0
17, 195328, Note_off_c, 11, 81, 0
17, 195328, Note_off_c, 11, 86, 0
17, 195328, Note_on_c, 11, 67, 66
17, 195328, Note_on_c, 11, 70, 66
17, 195328, Note_on_c, 11, 72, 66
17, 195328, Note_on_c, 11, 76, 66
17, 195413, Note_off_c, 11, 67, 0
17, 195413, Note_off_c, 11, 70, 0
17, 195413, Note_off_c, 11, 72, 0
17, 195413, Note_off_c, 11, 76, 0
17, 195413, Note_on_c, 11, 77, 103
17, 195413, Note_on_c, 11, 79, 103
17, 195413, Note_on_c, 11, 81, 103
17, 195413, Note_on_c, 11, 86, 103
17, 195498, Note_off_c, 11, 77, 0
17, 195498, Note_off_c, 11, 79, 0
17, 195498, Note_off_c, 11, 81, 0
17, 195498, Note_off_c, 11, 86, 0
17, 195498, Note_on_c, 11, 67, 68
17, 195498, Note_on_c, 11, 70, 68
17, 195498, Note_on_c, 11, 72, 68
17, 195498, Note_on_c, 11, 76, 68
17, 195584, Note_off_c, 11, 67, 0
17, 195584, Note_off_c, 11, 70, 0
17, 195584, Note_off_c, 11, 72, 0
17, 195584, Note_off_c, 11, 76, 0
17, 195584, Note_on_c, 11, 77, 104
17, 195584, Note_on_c, 11, 79, 104
17, 195584, Note_on_c, 11, 81, 104
17, 195584, Note_on_c, 11, 86, 104
17, 195669, Note_off_c, 11, 77, 0
17, 195669, Note_off_c, 11, 79, 0
17, 195669, Note_off_c, 11, 81, 0
17, 195669, Note_off_c, 11, 86, 0
17, 195669, Note_on_c, 11, 67, 68
17, 195669, Note_on_c, 11, 70, 68
17, 195669, Note_on_c, 11, 72, 68
17, 195669, Note_on_c, 11, 76, 68
17, 195754, Note_off_c, 11, 67, 0
17, 195754, Note_off_c, 11, 70, 0
17, 195754, Note_off_c, 11, 72, 0
17, 195754, Note_off_c, 11, 76, 0
17, 195925, Note_on_c, 11, 77, 78
17, 195925, Note_on_c, 11, 79, 78
17, 195925, Note_on_c, 11, 81, 78
17, 195925, Note_on_c, 11, 86, 78
17, 196010, Note_off_c, 11, 77, 0
17, 196010, Note_off_c, 11, 79, 0
17, 196010, Note_off_c, 11, 81, 0
17, 196010, Note_off_c, 11, 86, 0
17, 196010, Note_on_c, 11, 67, 61
17, 196010, Note_on_c, 11, 70, 61
17, 196010, Note_on_c, 11, 72, 61
17, 196010, Note_on_c, 11, 76, 61
17, 196096, Note_off_c, 11, 67, 0
17, 196096, Note_off_c, 11, 70, 0
17, 196096, Note_off_c, 11, 72, 0
17, 196096, Note_off_c, 11, 76, 0
17, 196096, Note_on_c, 11, 77, 93
17, 196096, Note_on_c, 11, 79, 93
17, 196096, Note_on_c, 11, 81, 93
17, 196096, Note_on_c, 11, 86, 93
17, 196181, Note_off_c, 11, 77, 0
17, 196181, Note_off_c, 11, 79, 0
17, 196181, Note_off_c, 11, 81, 0
17, 196181, Note_off_c, 11, 86, 0
17, 196181, Note_on_c, 11, 67, 65
17, 196181, Note_on_c, 11, 70, 65
17, 196181, Note_on_c, 11, 72, 65
17, 196181, Note_on_c, 11, 76, 65
17, 196266, Note_off_c, 11, 67, 0
17, 196266, Note_off_c, 11, 70, 0
17, 196266, Note_off_c, 11, 72, 0
17, 196266, Note_off_c, 11, 76, 0
17, 196266, Note_on_c, 11, 77, 99
17, 196266, Note_on_c, 11, 79, 99
17, 196266, Note_on_c, 11, 81, 99
17, 196266, Note_on_c, 11, 86, 99
17, 196352, Note_off_c, 11, 77, 0
17, 196352, Note_off_c, 11, 79, 0
17, 196352, Note_off_c, 11, 81, 0
17, 196352, Note_off_c, 11, 86, 0
17, 196352, Note_on_c, 11, 67, 69
17, 196352, Note_on_c, 11, 70, 69
17, 196352, Note_on_c, 11, 72, 69
17, 196352, Note_on_c, 11, 76, 69
17, 196437, Note_off_c, 11, 67, 0
17, 196437, Note_off_c, 11, 70, 0
17, 196437, Note_off_c, 11, 72, 0
17, 196437, Note_off_c, 11, 76, 0
17, 196437, Note_on_c, 11, 77, 104
17, 196437, Note_on_c, 11, 79, 104
17, 196437, Note_on_c, 11, 81, 104
17, 196437, Note_on_c, 11, 86, 104
17, 196522, Note_off_c, 11, 77, 0
17, 196522, Note_off_c, 11, 79, 0
17, 196522, Note_off_c, 11, 81, 0
17, 196522, Note_off_c, 11, 86, 0
17, 196522, Note_on_c, 11, 67, 66
17, 196522, Note_on_c, 11, 70, 66
17, 196522, Note_on_c, 11, 72, 66
17, 196522, Note_on_c, 11, 76, 66
17, 196608, Note_off_c, 11, 67, 0
17, 196608, Note_off_c, 11, 70, 0
17, 196608, Note_off_c, 11, 72, 0
17, 196608, Note_off_c, 11, 76, 0
17, 196608, Note_on_c, 11, 79, 101
17, 196608, Note_on_c, 11, 81, 101
17, 196608, Note_on_c, 11, 82, 101
17, 196608, Note_on_c, 11, 84, 101
17, 196693, Note_off_c, 11, 79, 0
17, 196693, Note_off_c, 11, 81, 0
17, 196693, Note_off_c, 11, 82, 0
17, 196693, Note_off_c, 11, 84, 0
17, 196693, Note_on_c, 11, 69, 68
17, 196693, Note_on_c, 11, 70, 68
17, 196693, Note_on_c, 11, 72, 68
17, 196693, Note_on_c, 11, 76, 68
17, 196778, Note_off_c, 11, 69, 0
17, 196778, Note_off_c, 11, 70, 0
17, 196778, Note_off_c, 11, 72, 0
17, 196778, Note_off_c, 11, 76, 0
17, 196778, Note_on_c, 11, 79, 97
17, 196778, Note_on_c, 11, 81, 97
17, 196778, Note_on_c, 11, 82, 97
17, 196778, Note_on_c, 11, 84, 97
17, 196864, Note_off_c, 11, 79, 0
17, 196864, Note_off_c, 11, 81, 0
17, 196864, Note_off_c, 11, 82, 0
17, 196864, Note_off_c, 11, 84, 0
17, 196864, Note_on_c, 11, 69, 72
17, 196864, Note_on_c, 11, 70, 72
17, 196864, Note_on_c, 11, 72, 72
17, 196864, Note_on_c, 11, 76, 72
17, 196949, Note_off_c, 11, 69, 0
17, 196949, Note_off_c, 11, 70, 0
17, 196949, Note_off_c, 11, 72, 0
17, 196949, Note_off_c, 11, 76, 0
17, 196949, Note_on_c, 11, 79, 99
17, 196949, Note_on_c, 11, 81, 99
17, 196949, Note_on_c, 11, 82, 99
17, 196949, Note_on_c, 11, 84, 99
17, 197034, Note_off_c, 11, 79, 0
17, 197034, Note_off_c, 11, 81, 0
17, 197034, Note_off_c, 11, 82, 0
17, 197034, Note_off_c, 11, 84, 0
17, 197034, Note_on_c, 11, 69, 67
17, 197034, Note_on_c, 11, 70, 67
17, 197034, Note_on_c, 11, 72, 67
17, 197034, Note_on_c, 11, 76, 67
17, 197120, Note_off_c, 11, 69, 0
17, 197120, Note_off_c, 11, 70, 0
17, 197120, Note_off_c, 11, 72, 0
17, 197120, Note_off_c, 11, 76, 0
17, 197120, Note_on_c, 11, 79, 101
17, 197120, Note_on_c, 11, 81, 101
17, 197120, Note_on_c, 11, 82, 101
17, 197120, Note_on_c, 11, 84, 101
17, 197205, Note_off_c, 11, 79, 0
17, 197205, Note_off_c, 11, 81, 0
17, 197205, Note_off_c, 11, 82, 0
17, 197205, Note_off_c, 11, 84, 0
17, 197205, Note_on_c, 11, 69, 68
17, 197205, Note_on_c, 11, 70, 68
17, 197205, Note_on_c, 11, 72, 68
17, 197205, Note_on_c, 11, 76, 68
17, 197290, Note_off_c, 11, 69, 0
17, 197290, Note_off_c, 11, 70, 0
17, 197290, Note_off_c, 11, 72, 0
17, 197290, Note_off_c, 11, 76, 0
17, 197290, Note_on_c, 11, 79, 93
17, 197290, Note_on_c, 11, 81, 93
17, 197290, Note_on_c, 11, 82, 93
17, 197290, Note_on_c, 11, 84, 93
17, 197376, Note_off_c, 11, 79, 0
17, 197376, Note_off_c, 11, 81, 0
17, 197376, Note_off_c, 11, 82, 0
17, 197376, Note_off_c, 11, 84, 0
17, 197376, Note_on_c, 11, 69, 69
17, 197376, Note_on_c, 11, 70, 69
17, 197376, Note_on_c, 11, 72, 69
17, 197376, Note_on_c, 11, 76, 69
17, 197461, Note_off_c, 11, 69, 0
17, 197461, Note_off_c, 11, 70, 0
17, 197461, Note_off_c, 11, 72, 0
17, 197461, Note_off_c, 11, 76, 0
17, 197461, Note_on_c, 11, 79, 96
17, 197461, Note_on_c, 11, 81, 96
17, 197461, Note_on_c, 11, 82, 96
17, 197461, Note_on_c, 11, 84, 96
17, 197546, Note_off_c, 11, 79, 0
17, 197546, Note_off_c, 11, 81, 0
17, 197546, Note_off_c, 11, 82, 0
17, 197546, Note_off_c, 11, 84, 0
17, 197546, Note_on_c, 11, 69, 69
17, 197546, Note_on_c, 11, 70, 69
17, 197546, Note_on_c, 11, 72, 69
17, 197546, Note_on_c, 11, 76, 69
17, 197632, Note_off_c, 11, 69, 0
17, 197632, Note_off_c, 11, 70, 0
17, 197632, Note_off_c, 11, 72, 0
17, 197632, Note_off_c, 11, 76, 0
17, 197632, Note_on_c, 11, 79, 96
17, 197632, Note_on_c, 11, 81, 96
17, 197632, Note_on_c, 11, 82, 96
17, 197632, Note_on_c, 11, 84, 96
17, 197717, Note_off_c, 11, 79, 0
17, 197717, Note_off_c, 11, 81, 0
17, 197717, Note_off_c, 11, 82, 0
17, 197717, Note_off_c, 11, 84, 0
17, 197888, Note_on_c, 11, 69, 81
17, 197888, Note_on_c, 11, 70, 81
17, 197888, Note_on_c, 11, 72, 81
17, 197888, Note_on_c, 11, 76, 81
17, 197973, Note_off_c, 11, 69, 0
17, 197973, Note_off_c, 11, 70, 0
17, 197973, Note_off_c, 11, 72, 0
17, 197973, Note_off_c, 11, 76, 0
17, 197973, Note_on_c, 11, 77, 98
17, 197973, Note_on_c, 11, 79, 98
17, 197973, Note_on_c, 11, 81, 98
17, 197973, Note_on_c, 11, 82, 98
17, 197973, Note_on_c, 11, 84, 98
17, 198058, Note_off_c, 11, 77, 0
17, 198058, Note_off_c, 11, 79, 0
17, 198058, Note_off_c, 11, 81, 0
17, 198058, Note_off_c, 11, 82, 0
17, 198058, Note_off_c, 11, 84, 0
17, 198058, Note_on_c, 11, 69, 73
17, 198058, Note_on_c, 11, 70, 73
17, 198058, Note_on_c, 11, 72, 73
17, 198058, Note_on_c, 11, 76, 73
17, 198144, Note_off_c, 11, 69, 0
17, 198144, Note_off_c, 11, 70, 0
17, 198144, Note_off_c, 11, 72, 0
17, 198144, Note_off_c, 11, 76, 0
17, 198144, Note_on_c, 11, 77, 101
17, 198144, Note_on_c, 11, 79, 101
17, 198144, Note_on_c, 11, 81, 101
17, 198144, Note_on_c, 11, 82, 101
17, 198144, Note_on_c, 11, 84, 101
17, 198229, Note_off_c, 11, 77, 0
17, 198229, Note_off_c, 11, 79, 0
17, 198229, Note_off_c, 11, 81, 0
17, 198229, Note_off_c, 11, 82, 0
17, 198229, Note_off_c, 11, 84, 0
17, 198229, Note_on_c, 11, 69, 71
17, 198229, Note_on_c, 11, 70, 71
17, 198229, Note_on_c, 11, 72, 71
17, 198229, Note_on_c, 11, 76, 71
17, 198314, Note_off_c, 11, 69, 0
17, 198314, Note_off_c, 11, 70, 0
17, 198314, Note_off_c, 11, 72, 0
17, 198314, Note_off_c, 11, 76, 0
17, 198400, Note_on_c, 11, 69, 82
17, 198400, Note_on_c, 11, 70, 82
17, 198400, Note_on_c, 11, 72, 82
17, 198400, Note_on_c, 11, 76, 82
17, 198485, Note_off_c, 11, 69, 0
17, 198485, Note_off_c, 11, 70, 0
17, 198485, Note_off_c, 11, 72, 0
17, 198485, Note_off_c, 11, 76, 0
17, 198485, Note_on_c, 11, 77, 95
17, 198485, Note_on_c, 11, 79, 95
17, 198485, Note_on_c, 11, 81, 95
17, 198485, Note_on_c, 11, 82, 95
17, 198485, Note_on_c, 11, 84, 95
17, 198570, Note_off_c, 11, 77, 0
17, 198570, Note_off_c, 11, 79, 0
17, 198570, Note_off_c, 11, 81, 0
17, 198570, Note_off_c, 11, 82, 0
17, 198570, Note_off_c, 11, 84, 0
17, 198570, Note_on_c, 11, 69, 70
17, 198570, Note_on_c, 11, 70, 70
17, 198570, Note_on_c, 11, 72, 70
17, 198570, Note_on_c, 11, 76, 70
17, 198656, Note_off_c, 11, 69, 0
17, 198656, Note_off_c, 11, 70, 0
17, 198656, Note_off_c, 11, 72, 0
17, 198656, Note_off_c, 11, 76, 0
17, 198656, Note_on_c, 11, 76, 100
17, 198656, Note_on_c, 11, 77, 100
17, 198656, Note_on_c, 11, 79, 100
17, 198656, Note_on_c, 11, 81, 100
17, 198656, Note_on_c, 11, 82, 100
17, 198741, Note_off_c, 11, 76, 0
17, 198741, Note_off_c, 11, 77, 0
17, 198741, Note_off_c, 11, 79, 0
17, 198741, Note_off_c, 11, 81, 0
17, 198741, Note_off_c, 11, 82, 0
17, 198741, Note_on_c, 11, 69, 72
17, 198741, Note_on_c, 11, 70, 72
17, 198741, Note_on_c, 11, 72, 72
17, 198741, Note_on_c, 11, 76, 72
17, 198826, Note_off_c, 11, 69, 0
17, 198826, Note_off_c, 11, 70, 0
17, 198826, Note_off_c, 11, 72, 0
17, 198826, Note_off_c, 11, 76, 0
17, 198826, Note_on_c, 11, 76, 93
17, 198826, Note_on_c, 11, 77, 93
17, 198826, Note_on_c, 11, 79, 93
17, 198826, Note_on_c, 11, 81, 93
17, 198826, Note_on_c, 11, 82, 93
17, 198912, Note_off_c, 11, 76, 0
17, 198912, Note_off_c, 11, 77, 0
17, 198912, Note_off_c, 11, 79, 0
17, 198912, Note_off_c, 11, 81, 0
17, 198912, Note_off_c, 11, 82, 0
17, 198912, Note_on_c, 11, 69, 70
17, 198912, Note_on_c, 11, 70, 70
17, 198912, Note_on_c, 11, 72, 70
17, 198912, Note_on_c, 11, 76, 70
17, 198997, Note_off_c, 11, 69, 0
17, 198997, Note_off_c, 11, 70, 0
17, 198997, Note_off_c, 11, 72, 0
17, 198997, Note_off_c, 11, 76, 0
17, 198997, Note_on_c, 11, 76, 96
17, 198997, Note_on_c, 11, 77, 96
17, 198997, Note_on_c, 11, 79, 96
17, 198997, Note_on_c, 11, 81, 96
17, 198997, Note_on_c, 11, 82, 96
17, 199082, Note_off_c, 11, 76, 0
17, 199082, Note_off_c, 11, 77, 0
17, 199082, Note_off_c, 11, 79, 0
17, 199082, Note_off_c, 11, 81, 0
17, 199082, Note_off_c, 11, 82, 0
17, 199082, Note_on_c, 11, 69, 76
17, 199082, Note_on_c, 11, 70, 76
17, 199082, Note_on_c, 11, 72, 76
17, 199082, Note_on_c, 11, 76, 76
17, 199168, Note_off_c, 11, 69, 0
17, 199168, Note_off_c, 11, 70, 0
17, 199168, Note_off_c, 11, 72, 0
17, 199168, Note_off_c, 11, 76, 0
17, 199168, Note_on_c, 11, 76, 97
17, 199168, Note_on_c, 11, 77, 97
17, 199168, Note_on_c, 11, 79, 97
17, 199168, Note_on_c, 11, 81, 97
17, 199168, Note_on_c, 11, 82, 97
17, 199253, Note_off_c, 11, 76, 0
17, 199253, Note_off_c, 11, 77, 0
17, 199253, Note_off_c, 11, 79, 0
17, 199253, Note_off_c, 11, 81, 0
17, 199253, Note_off_c, 11, 82, 0
17, 199253, Note_on_c, 11, 69, 71
17, 199253, Note_on_c, 11, 70, 71
17, 199253, Note_on_c, 11, 72, 71
17, 199253, Note_on_c, 11, 76, 71
17, 199338, Note_off_c, 11, 69, 0
17, 199338, Note_off_c, 11, 70, 0
17, 199338, Note_off_c, 11, 72, 0
17, 199338, Note_off_c, 11, 76, 0
17, 199338, Note_on_c, 11, 76, 92
17, 199338, Note_on_c, 11, 77, 92
17, 199338, Note_on_c, 11, 79, 92
17, 199338, Note_on_c, 11, 81, 92
17, 199338, Note_on_c, 11, 82, 92
17, 199424, Note_off_c, 11, 76, 0
17, 199424, Note_off_c, 11, 77, 0
17, 199424, Note_off_c, 11, 79, 0
17, 199424, Note_off_c, 11, 81, 0
17, 199424, Note_off_c, 11, 82, 0
17, 199424, Note_on_c, 11, 69, 69
17, 199424, Note_on_c, 11, 70, 69
17, 199424, Note_on_c, 11, 72, 69
17, 199424, Note_on_c, 11, 76, 69
17, 199509, Note_off_c, 11, 69, 0
17, 199509, Note_off_c, 11, 70, 0
17, 199509, Note_off_c, 11, 72, 0
17, 199509, Note_off_c, 11, 76, 0
17, 199509, Note_on_c, 11, 76, 95
17, 199509, Note_on_c, 11, 77, 95
17, 199509, Note_on_c, 11, 79, 95
17, 199509, Note_on_c, 11, 81, 95
17, 199509, Note_on_c, 11, 82, 95
17, 199594, Note_off_c, 11, 76, 0
17, 199594, Note_off_c, 11, 77, 0
17, 199594, Note_off_c, 11, 79, 0
17, 199594, Note_off_c, 11, 81, 0
17, 199594, Note_off_c, 11, 82, 0
17, 199594, Note_on_c, 11, 69, 76
17, 199594, Note_on_c, 11, 70, 76
17, 199594, Note_on_c, 11, 72, 76
17, 199594, Note_on_c, 11, 76, 76
17, 199680, Note_off_c, 11, 69, 0
17, 199680, Note_off_c, 11, 70, 0
17, 199680, Note_off_c, 11, 72, 0
17, 199680, Note_off_c, 11, 76, 0
17, 199850, Note_on_c, 11, 76, 75
17, 199850, Note_on_c, 11, 77, 75
17, 199850, Note_on_c, 11, 79, 75
17, 199850, Note_on_c, 11, 81, 75
17, 199850, Note_on_c, 11, 82, 75
17, 199936, Note_off_c, 11, 76, 0
17, 199936, Note_off_c, 11, 77, 0
17, 199936, Note_off_c, 11, 79, 0
17, 199936, Note_off_c, 11, 81, 0
17, 199936, Note_off_c, 11, 82, 0
17, 199936, Note_on_c, 11, 69, 66
17, 199936, Note_on_c, 11, 70, 66
17, 199936, Note_on_c, 11, 72, 66
17, 199936, Note_on_c, 11, 76, 66
17, 200021, Note_off_c, 11, 69, 0
17, 200021, Note_off_c, 11, 70, 0
17, 200021, Note_off_c, 11, 72, 0
17, 200021, Note_off_c, 11, 76, 0
17, 200021, Note_on_c, 11, 76, 94
17, 200021, Note_on_c, 11, 77, 94
17, 200021, Note_on_c, 11, 79, 94
17, 200021, Note_on_c, 11, 81, 94
17, 200021, Note_on_c, 11, 82, 94
17, 200106, Note_off_c, 11, 76, 0
17, 200106, Note_off_c, 11, 77, 0
17, 200106, Note_off_c, 11, 79, 0
17, 200106, Note_off_c, 11, 81, 0
17, 200106, Note_off_c, 11, 82, 0
17, 200106, Note_on_c, 11, 69, 71
17, 200106, Note_on_c, 11, 70, 71
17, 200106, Note_on_c, 11, 72, 71
17, 200106, Note_on_c, 11, 76, 71
17, 200192, Note_off_c, 11, 69, 0
17, 200192, Note_off_c, 11, 70, 0
17, 200192, Note_off_c, 11, 72, 0
17, 200192, Note_off_c, 11, 76, 0
17, 200192, Note_on_c, 11, 76, 97
17, 200192, Note_on_c, 11, 77, 97
17, 200192, Note_on_c, 11, 79, 97
17, 200192, Note_on_c, 11, 81, 97
17, 200192, Note_on_c, 11, 82, 97
17, 200277, Note_off_c, 11, 76, 0
17, 200277, Note_off_c, 11, 77, 0
17, 200277, Note_off_c, 11, 79, 0
17, 200277, Note_off_c, 11, 81, 0
17, 200277, Note_off_c, 11, 82, 0
17, 200277, Note_on_c, 11, 69, 69
17, 200277, Note_on_c, 11, 70, 69
17, 200277, Note_on_c, 11, 72, 69
17, 200277, Note_on_c, 11, 76, 69
17, 200362, Note_off_c, 11, 69, 0
17, 200362, Note_off_c, 11, 70, 0
17, 200362, Note_off_c, 11, 72, 0
17, 200362, Note_off_c, 11, 76, 0
17, 200362, Note_on_c, 11, 77, 96
17, 200362, Note_on_c, 11, 79, 96
17, 200362, Note_on_c, 11, 81, 96
17, 200362, Note_on_c, 11, 82, 96
17, 200362, Note_on_c, 11, 84, 96
17, 200448, Note_off_c, 11, 77, 0
17, 200448, Note_off_c, 11, 79, 0
17, 200448, Note_off_c, 11, 81, 0
17, 200448, Note_off_c, 11, 82, 0
17, 200448, Note_off_c, 11, 84, 0
17, 200448, Note_on_c, 11, 69, 68
17, 200448, Note_on_c, 11, 70, 68
17, 200448, Note_on_c, 11, 72, 68
17, 200448, Note_on_c, 11, 76, 68
17, 200533, Note_off_c, 11, 69, 0
17, 200533, Note_off_c, 11, 70, 0
17, 200533, Note_off_c, 11, 72, 0
17, 200533, Note_off_c, 11, 76, 0
17, 200533, Note_on_c, 11, 77, 96
17, 200533, Note_on_c, 11, 79, 96
17, 200533, Note_on_c, 11, 81, 96
17, 200533, Note_on_c, 11, 82, 96
17, 200533, Note_on_c, 11, 84, 96
17, 200618, Note_off_c, 11, 77, 0
17, 200618, Note_off_c, 11, 79, 0
17, 200618, Note_off_c, 11, 81, 0
17, 200618, Note_off_c, 11, 82, 0
17, 200618, Note_off_c, 11, 84, 0
17, 200618, Note_on_c, 11, 69, 70
17, 200618, Note_on_c, 11, 70, 70
17, 200618, Note_on_c, 11, 72, 70
17, 200618, Note_on_c, 11, 76, 70
17, 200704, Note_off_c, 11, 69, 0
17, 200704, Note_off_c, 11, 70, 0
17, 200704, Note_off_c, 11, 72, 0
17, 200704, Note_off_c, 11, 76, 0
17, 200704, Note_on_c, 11, 77, 101
17, 200704, Note_on_c, 11, 79, 101
17, 200704, Note_on_c, 11, 81, 101
17, 200704, Note_on_c, 11, 82, 101
17, 200704, Note_on_c, 11, 84, 101
17, 200789, Note_off_c, 11, 77, 0
17, 200789, Note_off_c, 11, 79, 0
17, 200789, Note_off_c, 11, 81, 0
17, 200789, Note_off_c, 11, 82, 0
17, 200789, Note_off_c, 11, 84, 0
17, 200789, Note_on_c, 11, 69, 69
17, 200789, Note_on_c, 11, 70, 69
17, 200789, Note_on_c, 11, 72, 69
17, 200789, Note_on_c, 11, 76, 69
17, 200874, Note_off_c, 11, 69, 0
17, 200874, Note_off_c, 11, 70, 0
17, 200874, Note_off_c, 11, 72, 0
17, 200874, Note_off_c, 11, 76, 0
17, 200874, Note_on_c, 11, 77, 96
17, 200874, Note_on_c, 11, 79, 96
17, 200874, Note_on_c, 11, 81, 96
17, 200874, Note_on_c, 11, 82, 96
17, 200874, Note_on_c, 11, 84, 96
17, 200960, Note_off_c, 11, 77, 0
17, 200960, Note_off_c, 11, 79, 0
17, 200960, Note_off_c, 11, 81, 0
17, 200960, Note_off_c, 11, 82, 0
17, 200960, Note_off_c, 11, 84, 0
17, 200960, Note_on_c, 11, 69, 67
17, 200960, Note_on_c, 11, 70, 67
17, 200960, Note_on_c, 11, 72, 67
17, 200960, Note_on_c, 11, 76, 67
17, 201045, Note_off_c, 11, 69, 0
17, 201045, Note_off_c, 11, 70, 0
17, 201045, Note_off_c, 11, 72, 0
17, 201045, Note_off_c, 11, 76, 0
17, 201045, Note_on_c, 11, 77, 100
17, 201045, Note_on_c, 11, 79, 100
17, 201045, Note_on_c, 11, 81, 100
17, 201045, Note_on_c, 11, 82, 100
17, 201045, Note_on_c, 11, 84, 100
17, 201130, Note_off_c, 11, 77, 0
17, 201130, Note_off_c, 11, 79, 0
17, 201130, Note_off_c, 11, 81, 0
17, 201130, Note_off_c, 11, 82, 0
17, 201130, Note_off_c, 11, 84, 0
17, 201130, Note_on_c, 11, 69, 71
17, 201130, Note_on_c, 11, 70, 71
17, 201130, Note_on_c, 11, 72, 71
17, 201130, Note_on_c, 11, 76, 71
17, 201216, Note_off_c, 11, 69, 0
17, 201216, Note_off_c, 11, 70, 0
17, 201216, Note_off_c, 11, 72, 0
17, 201216, Note_off_c, 11, 76, 0
17, 201216, Note_on_c, 11, 77, 99
17, 201216, Note_on_c, 11, 79, 99
17, 201216, Note_on_c, 11, 81, 99
17, 201216, Note_on_c, 11, 82, 99
17, 201216, Note_on_c, 11, 84, 99
17, 201301, Note_off_c, 11, 77, 0
17, 201301, Note_off_c, 11, 79, 0
17, 201301, Note_off_c, 11, 81, 0
17, 201301, Note_off_c, 11, 82, 0
17, 201301, Note_off_c, 11, 84, 0
17, 201301, Note_on_c, 11, 69, 69
17, 201301, Note_on_c, 11, 70, 69
17, 201301, Note_on_c, 11, 72, 69
17, 201301, Note_on_c, 11, 76, 69
17, 201386, Note_off_c, 11, 69, 0
17, 201386, Note_off_c, 11, 70, 0
17, 201386, Note_off_c, 11, 72, 0
17, 201386, Note_off_c, 11, 76, 0
17, 201386, Note_on_c, 11, 77, 98
17, 201386, Note_on_c, 11, 79, 98
17, 201386, Note_on_c, 11, 81, 98
17, 201386, Note_on_c, 11, 82, 98
17, 201386, Note_on_c, 11, 84, 98
17, 201472, Note_off_c, 11, 77, 0
17, 201472, Note_off_c, 11, 79, 0
17, 201472, Note_off_c, 11, 81, 0
17, 201472, Note_off_c, 11, 82, 0
17, 201472, Note_off_c, 11, 84, 0
17, 201728, Note_on_c, 11, 79, 75
17, 201728, Note_on_c, 11, 81, 75
17, 201728, Note_on_c, 11, 82, 75
17, 201728, Note_on_c, 11, 86, 75
17, 201728, Note_on_c, 11, 88, 75
17, 201813, Note_off_c, 11, 79, 0
17, 201813, Note_off_c, 11, 81, 0
17, 201813, Note_off_c, 11, 82, 0
17, 201813, Note_off_c, 11, 86, 0
17, 201813, Note_off_c, 11, 88, 0
17, 201813, Note_on_c, 11, 72, 61
17, 201813, Note_on_c, 11, 74, 61
17, 201813, Note_on_c, 11, 76, 61
17, 201813, Note_on_c, 11, 77, 61
17, 201898, Note_off_c, 11, 72, 0
17, 201898, Note_off_c, 11, 74, 0
17, 201898, Note_off_c, 11, 76, 0
17, 201898, Note_off_c, 11, 77, 0
17, 201898, Note_on_c, 11, 79, 99
17, 201898, Note_on_c, 11, 81, 99
17, 201898, Note_on_c, 11, 82, 99
17, 201898, Note_on_c, 11, 86, 99
17, 201898, Note_on_c, 11, 88, 99
17, 201984, Note_off_c, 11, 79, 0
17, 201984, Note_off_c, 11, 81, 0
17, 201984, Note_off_c, 11, 82, 0
17, 201984, Note_off_c, 11, 86, 0
17, 201984, Note_off_c, 11, 88, 0
17, 201984, Note_on_c, 11, 72, 64
17, 201984, Note_on_c, 11, 74, 64
17, 201984, Note_on_c, 11, 76, 64
17, 201984, Note_on_c, 11, 77, 64
17, 202069, Note_off_c, 11, 72, 0
17, 202069, Note_off_c, 11, 74, 0
17, 202069, Note_off_c, 11, 76, 0
17, 202069, Note_off_c, 11, 77, 0
17, 202069, Note_on_c, 11, 79, 102
17, 202069, Note_on_c, 11, 81, 102
17, 202069, Note_on_c, 11, 82, 102
17, 202069, Note_on_c, 11, 86, 102
17, 202069, Note_on_c, 11, 88, 102
17, 202154, Note_off_c, 11, 79, 0
17, 202154, Note_off_c, 11, 81, 0
17, 202154, Note_off_c, 11, 82, 0
17, 202154, Note_off_c, 11, 86, 0
17, 202154, Note_off_c, 11, 88, 0
17, 202154, Note_on_c, 11, 72, 63
17, 202154, Note_on_c, 11, 74, 63
17, 202154, Note_on_c, 11, 76, 63
17, 202154, Note_on_c, 11, 77, 63
17, 202240, Note_off_c, 11, 72, 0
17, 202240, Note_off_c, 11, 74, 0
17, 202240, Note_off_c, 11, 76, 0
17, 202240, Note_off_c, 11, 77, 0
17, 202240, Note_on_c, 11, 79, 102
17, 202240, Note_on_c, 11, 81, 102
17, 202240, Note_on_c, 11, 82, 102
17, 202240, Note_on_c, 11, 86, 102
17, 202240, Note_on_c, 11, 88, 102
17, 202325, Note_off_c, 11, 79, 0
17, 202325, Note_off_c, 11, 81, 0
17, 202325, Note_off_c, 11, 82, 0
17, 202325, Note_off_c, 11, 86, 0
17, 202325, Note_off_c, 11, 88, 0
17, 202325, Note_on_c, 11, 72, 66
17, 202325, Note_on_c, 11, 74, 66
17, 202325, Note_on_c, 11, 76, 66
17, 202325, Note_on_c, 11, 77, 66
17, 202410, Note_off_c, 11, 72, 0
17, 202410, Note_off_c, 11, 74, 0
17, 202410, Note_off_c, 11, 76, 0
17, 202410, Note_off_c, 11, 77, 0
17, 202410, Note_on_c, 11, 81, 101
17, 202410, Note_on_c, 11, 82, 101
17, 202410, Note_on_c, 11, 86, 101
17, 202410, Note_on_c, 11, 88, 101
17, 202410, Note_on_c, 11, 89, 101
17, 202496, Note_off_c, 11, 81, 0
17, 202496, Note_off_c, 11, 82, 0
17, 202496, Note_off_c, 11, 86, 0
17, 202496, Note_off_c, 11, 88, 0
17, 202496, Note_off_c, 11, 89, 0
17, 202496, Note_on_c, 11, 74, 70
17, 202496, Note_on_c, 11, 76, 70
17, 202496, Note_on_c, 11, 77, 70
17, 202496, Note_on_c, 11, 79, 70
17, 202581, Note_off_c, 11, 74, 0
17, 202581, Note_off_c, 11, 76, 0
17, 202581, Note_off_c, 11, 77, 0
17, 202581, Note_off_c, 11, 79, 0
17, 202581, Note_on_c, 11, 79, 96
17, 202581, Note_on_c, 11, 81, 96
17, 202581, Note_on_c, 11, 82, 96
17, 202581, Note_on_c, 11, 86, 96
17, 202581, Note_on_c, 11, 88, 96
17, 202666, Note_off_c, 11, 79, 0
17, 202666, Note_off_c, 11, 81, 0
17, 202666, Note_off_c, 11, 82, 0
17, 202666, Note_off_c, 11, 86, 0
17, 202666, Note_off_c, 11, 88, 0
17, 202837, Note_on_c, 11, 74, 81
17, 202837, Note_on_c, 11, 76, 81
17, 202837, Note_on_c, 11, 77, 81
17, 202837, Note_on_c, 11, 79, 81
17, 202922, Note_off_c, 11, 74, 0
17, 202922, Note_off_c, 11, 76, 0
17, 202922, Note_off_c, 11, 77, 0
17, 202922, Note_off_c, 11, 79, 0
17, 202922, Note_on_c, 11, 79, 102
17, 202922, Note_on_c, 11, 81, 102
17, 202922, Note_on_c, 11, 82, 102
17, 202922, Note_on_c, 11, 86, 102
17, 202922, Note_on_c, 11, 88, 102
17, 203008, Note_off_c, 11, 79, 0
17, 203008, Note_off_c, 11, 81, 0
17, 203008, Note_off_c, 11, 82, 0
17, 203008, Note_off_c, 11, 86, 0
17, 203008, Note_off_c, 11, 88, 0
17, 203008, Note_on_c, 11, 72, 67
17, 203008, Note_on_c, 11, 74, 67
17, 203008, Note_on_c, 11, 76, 67
17, 203008, Note_on_c, 11, 77, 67
17, 203093, Note_off_c, 11, 72, 0
17, 203093, Note_off_c, 11, 74, 0
17, 203093, Note_off_c, 11, 76, 0
17, 203093, Note_off_c, 11, 77, 0
17, 203093, Note_on_c, 11, 81, 104
17, 203093, Note_on_c, 11, 82, 104
17, 203093, Note_on_c, 11, 86, 104
17, 203093, Note_on_c, 11, 88, 104
17, 203093, Note_on_c, 11, 89, 104
17, 203178, Note_off_c, 11, 81, 0
17, 203178, Note_off_c, 11, 82, 0
17, 203178, Note_off_c, 11, 86, 0
17, 203178, Note_off_c, 11, 88, 0
17, 203178, Note_off_c, 11, 89, 0
17, 203178, Note_on_c, 11, 74, 66
17, 203178, Note_on_c, 11, 76, 66
17, 203178, Note_on_c, 11, 77, 66
17, 203178, Note_on_c, 11, 79, 66
17, 203264, Note_off_c, 11, 74, 0
17, 203264, Note_off_c, 11, 76, 0
17, 203264, Note_off_c, 11, 77, 0
17, 203264, Note_off_c, 11, 79, 0
17, 203264, Note_on_c, 11, 79, 96
17, 203264, Note_on_c, 11, 81, 96
17, 203264, Note_on_c, 11, 82, 96
17, 203264, Note_on_c, 11, 86, 96
17, 203264, Note_on_c, 11, 88, 96
17, 203349, Note_off_c, 11, 79, 0
17, 203349, Note_off_c, 11, 81, 0
17, 203349, Note_off_c, 11, 82, 0
17, 203349, Note_off_c, 11, 86, 0
17, 203349, Note_off_c, 11, 88, 0
17, 203349, Note_on_c, 11, 72, 70
17, 203349, Note_on_c, 11, 74, 70
17, 203349, Note_on_c, 11, 76, 70
17, 203349, Note_on_c, 11, 77, 70
17, 203434, Note_off_c, 11, 72, 0
17, 203434, Note_off_c, 11, 74, 0
17, 203434, Note_off_c, 11, 76, 0
17, 203434, Note_off_c, 11, 77, 0
17, 203434, Note_on_c, 11, 81, 108
17, 203434, Note_on_c, 11, 82, 108
17, 203434, Note_on_c, 11, 86, 108
17, 203434, Note_on_c, 11, 88, 108
17, 203434, Note_on_c, 11, 89, 108
17, 203520, Note_off_c, 11, 81, 0
17, 203520, Note_off_c, 11, 82, 0
17, 203520, Note_off_c, 11, 86, 0
17, 203520, Note_off_c, 11, 88, 0
17, 203520, Note_off_c, 11, 89, 0
17, 203520, Note_on_c, 11, 74, 66
17, 203520, Note_on_c, 11, 76, 66
17, 203520, Note_on_c, 11, 77, 66
17, 203520, Note_on_c, 11, 79, 66
17, 203605, Note_off_c, 11, 74, 0
17, 203605, Note_off_c, 11, 76, 0
17, 203605, Note_off_c, 11, 77, 0
17, 203605, Note_off_c, 11, 79, 0
17, 203776, Note_on_c, 11, 81, 74
17, 203776, Note_on_c, 11, 82, 74
17, 203776, Note_on_c, 11, 86, 74
17, 203776, Note_on_c, 11, 88, 74
17, 203776, Note_on_c, 11, 89, 74
17, 203861, Note_off_c, 11, 81, 0
17, 203861, Note_off_c, 11, 82, 0
17, 203861, Note_off_c, 11, 86, 0
17, 203861, Note_off_c, 11, 88, 0
17, 203861, Note_off_c, 11, 89, 0
17, 203861, Note_on_c, 11, 74, 64
17, 203861, Note_on_c, 11, 76, 64
17, 203861, Note_on_c, 11, 77, 64
17, 203861, Note_on_c, 11, 79, 64
17, 203946, Note_off_c, 11, 74, 0
17, 203946, Note_off_c, 11, 76, 0
17, 203946, Note_off_c, 11, 77, 0
17, 203946, Note_off_c, 11, 79, 0
17, 203946, Note_on_c, 11, 79, 99
17, 203946, Note_on_c, 11, 81, 99
17, 203946, Note_on_c, 11, 82, 99
17, 203946, Note_on_c, 11, 86, 99
17, 203946, Note_on_c, 11, 88, 99
17, 204032, Note_off_c, 11, 79, 0
17, 204032, Note_off_c, 11, 81, 0
17, 204032, Note_off_c, 11, 82, 0
17, 204032, Note_off_c, 11, 86, 0
17, 204032, Note_off_c, 11, 88, 0
17, 204032, Note_on_c, 11, 72, 63
17, 204032, Note_on_c, 11, 74, 63
17, 204032, Note_on_c, 11, 76, 63
17, 204032, Note_on_c, 11, 77, 63
17, 204117, Note_off_c, 11, 72, 0
17, 204117, Note_off_c, 11, 74, 0
17, 204117, Note_off_c, 11, 76, 0
17, 204117, Note_off_c, 11, 77, 0
17, 204117, Note_on_c, 11, 81, 105
17, 204117, Note_on_c, 11, 82, 105
17, 204117, Note_on_c, 11, 86, 105
17, 204117, Note_on_c, 11, 88, 105
17, 204117, Note_on_c, 11, 89, 105
17, 204202, Note_off_c, 11, 81, 0
17, 204202, Note_off_c, 11, 82, 0
17, 204202, Note_off_c, 11, 86, 0
17, 204202, Note_off_c, 11, 88, 0
17, 204202, Note_off_c, 11, 89, 0
17, 204202, Note_on_c, 11, 74, 67
17, 204202, Note_on_c, 11, 76, 67
17, 204202, Note_on_c, 11, 77, 67
17, 204202, Note_on_c, 11, 79, 67
17, 204288, Note_off_c, 11, 74, 0
17, 204288, Note_off_c, 11, 76, 0
17, 204288, Note_off_c, 11, 77, 0
17, 204288, Note_off_c, 11, 79, 0
17, 204288, Note_on_c, 11, 79, 99
17, 204288, Note_on_c, 11, 81, 99
17, 204288, Note_on_c, 11, 82, 99
17, 204288, Note_on_c, 11, 86, 99
17, 204288, Note_on_c, 11, 88, 99
17, 204373, Note_off_c, 11, 79, 0
17, 204373, Note_off_c, 11, 81, 0
17, 204373, Note_off_c, 11, 82, 0
17, 204373, Note_off_c, 11, 86, 0
17, 204373, Note_off_c, 11, 88, 0
17, 204373, Note_on_c, 11, 72, 66
17, 204373, Note_on_c, 11, 74, 66
17, 204373, Note_on_c, 11, 76, 66
17, 204373, Note_on_c, 11, 77, 66
17, 204458, Note_off_c, 11, 72, 0
17, 204458, Note_off_c, 11, 74, 0
17, 204458, Note_off_c, 11, 76, 0
17, 204458, Note_off_c, 11, 77, 0
17, 204458, Note_on_c, 11, 81, 105
17, 204458, Note_on_c, 11, 82, 105
17, 204458, Note_on_c, 11, 86, 105
17, 204458, Note_on_c, 11, 88, 105
17, 204458, Note_on_c, 11, 89, 105
17, 204544, Note_off_c, 11, 81, 0
17, 204544, Note_off_c, 11, 82, 0
17, 204544, Note_off_c, 11, 86, 0
17, 204544, Note_off_c, 11, 88, 0
17, 204544, Note_off_c, 11, 89, 0
17, 204544, Note_on_c, 11, 74, 68
17, 204544, Note_on_c, 11, 76, 68
17, 204544, Note_on_c, 11, 77, 68
17, 204544, Note_on_c, 11, 79, 68
17, 204629, Note_off_c, 11, 74, 0
17, 204629, Note_off_c, 11, 76, 0
17, 204629, Note_off_c, 11, 77, 0
17, 204629, Note_off_c, 11, 79, 0
17, 204629, Note_on_c, 11, 79, 97
17, 204629, Note_on_c, 11, 81, 97
17, 204629, Note_on_c, 11, 82, 97
17, 204629, Note_on_c, 11, 86, 97
17, 204629, Note_on_c, 11, 88, 97
17, 204714, Note_off_c, 11, 79, 0
17, 204714, Note_off_c, 11, 81, 0
17, 204714, Note_off_c, 11, 82, 0
17, 204714, Note_off_c, 11, 86, 0
17, 204714, Note_off_c, 11, 88, 0
17, 204714, Note_on_c, 11, 72, 67
17, 204714, Note_on_c, 11, 74, 67
17, 204714, Note_on_c, 11, 76, 67
17, 204714, Note_on_c, 11, 77, 67
17, 204800, Note_off_c, 11, 72, 0
17, 204800, Note_off_c, 11, 74, 0
17, 204800, Note_off_c, 11, 76, 0
17, 204800, Note_off_c, 11, 77, 0
17, 204800, Note_on_c, 11, 79, 109
17, 204800, Note_on_c, 11, 81, 109
17, 204800, Note_on_c, 11, 82, 109
17, 204800, Note_on_c, 11, 86, 109
17, 204800, Note_on_c, 11, 88, 109
17, 204885, Note_off_c, 11, 79, 0
17, 204885, Note_off_c, 11, 81, 0
17, 204885, Note_off_c, 11, 82, 0
17, 204885, Note_off_c, 11, 86, 0
17, 204885, Note_off_c, 11, 88, 0
17, 204885, Note_on_c, 11, 72, 66
17, 204885, Note_on_c, 11, 74, 66
17, 204885, Note_on_c, 11, 76, 66
17, 204885, Note_on_c, 11, 77, 66
17, 204970, Note_off_c, 11, 72, 0
17, 204970, Note_off_c, 11, 74, 0
17, 204970, Note_off_c, 11, 76, 0
17, 204970, Note_off_c, 11, 77, 0
17, 204970, Note_on_c, 11, 81, 103
17, 204970, Note_on_c, 11, 82, 103
17, 204970, Note_on_c, 11, 86, 103
17, 204970, Note_on_c, 11, 88, 103
17, 204970, Note_on_c, 11, 89, 103
17, 205056, Note_off_c, 11, 81, 0
17, 205056, Note_off_c, 11, 82, 0
17, 205056, Note_off_c, 11, 86, 0
17, 205056, Note_off_c, 11, 88, 0
17, 205056, Note_off_c, 11, 89, 0
17, 207360, Note_on_c, 11, 82, 76
17, 207360, Note_on_c, 11, 86, 76
17, 207360, Note_on_c, 11, 89, 76
17, 207462, Note_on_c, 11, 77, 68
17, 207462, Note_on_c, 11, 84, 68
17, 207464, Note_off_c, 11, 82, 0
17, 207464, Note_off_c, 11, 86, 0
17, 207464, Note_off_c, 11, 89, 0
17, 207564, Note_on_c, 11, 76, 73
17, 207566, Note_off_c, 11, 77, 0
17, 207566, Note_off_c, 11, 84, 0
17, 207667, Note_on_c, 11, 69, 58
17, 207669, Note_off_c, 11, 76, 0
17, 207769, Note_on_c, 11, 62, 65
17, 207771, Note_off_c, 11, 69, 0
17, 207866, Note_off_c, 11, 62, 0
17, 207872, Note_on_c, 11, 82, 105
17, 207872, Note_on_c, 11, 86, 105
17, 207872, Note_on_c, 11, 89, 105
17, 207974, Note_on_c, 11, 77, 96
17, 207974, Note_on_c, 11, 84, 96
17, 207976, Note_off_c, 11, 82, 0
17, 207976, Note_off_c, 11, 86, 0
17, 207976, Note_off_c, 11, 89, 0
17, 208076, Note_on_c, 11, 76, 63
17, 208078, Note_off_c, 11, 77, 0
17, 208078, Note_off_c, 11, 84, 0
17, 208179, Note_on_c, 11, 69, 53
17, 208181, Note_off_c, 11, 76, 0
17, 208281, Note_on_c, 11, 62, 66
17, 208283, Note_off_c, 11, 69, 0
17, 208378, Note_off_c, 11, 62, 0
17, 208384, Note_on_c, 11, 82, 104
17, 208384, Note_on_c, 11, 86, 104
17, 208384, Note_on_c, 11, 89, 104
17, 208486, Note_on_c, 11, 77, 98
17, 208486, Note_on_c, 11, 84, 98
17, 208488, Note_off_c, 11, 82, 0
17, 208488, Note_off_c, 11, 86, 0
17, 208488, Note_off_c, 11, 89, 0
17, 208588, Note_on_c, 11, 76, 66
17, 208590, Note_off_c, 11, 77, 0
17, 208590, Note_off_c, 11, 84, 0
17, 208691, Note_on_c, 11, 69, 54
17, 208693, Note_off_c, 11, 76, 0
17, 208793, Note_on_c, 11, 62, 68
17, 208795, Note_off_c, 11, 69, 0
17, 208890, Note_off_c, 11, 62, 0
17, 208896, Note_on_c, 11, 82, 102
17, 208896, Note_on_c, 11, 86, 102
17, 208896, Note_on_c, 11, 89, 102
17, 208998, Note_on_c, 11, 77, 91
17, 208998, Note_on_c, 11, 84, 91
17, 209000, Note_off_c, 11, 82, 0
17, 209000, Note_off_c, 11, 86, 0
17, 209000, Note_off_c, 11, 89, 0
17, 209100, Note_on_c, 11, 76, 62
17, 209102, Note_off_c, 11, 77, 0
17, 209102, Note_off_c, 11, 84, 0
17, 209203, Note_on_c, 11, 69, 50
17, 209205, Note_off_c, 11, 76, 0
17, 209305, Note_on_c, 11, 62, 65
17, 209307, Note_off_c, 11, 69, 0
17, 209402, Note_off_c, 11, 62, 0
17, 209408, Note_on_c, 11, 82, 102
17, 209408, Note_on_c, 11, 86, 102
17, 209408, Note_on_c, 11, 89, 102
17, 209510, Note_on_c, 11, 77, 90
17, 209510, Note_on_c, 11, 84, 90
17, 209512, Note_off_c, 11, 82, 0
17, 209512, Note_off_c, 11, 86, 0
17, 209512, Note_off_c, 11, 89, 0
17, 209612, Note_on_c, 11, 76, 68
17, 209614, Note_off_c, 11, 77, 0
17, 209614, Note_off_c, 11, 84, 0
17, 209715, Note_on_c, 11, 69, 53
17, 209717, Note_off_c, 11, 76, 0
17, 209817, Note_on_c, 11, 62, 62
17, 209819, Note_off_c, 11, 69, 0
17, 209914, Note_off_c, 11, 62, 0
17, 209920, Note_on_c, 11, 82, 106
17, 209920, Note_on_c, 11, 86, 106
17, 209920, Note_on_c, 11, 89, 106
17, 210022, Note_on_c, 11, 77, 95
17, 210022, Note_on_c, 11, 84, 95
17, 210024, Note_off_c, 11, 82, 0
17, 210024, Note_off_c, 11, 86, 0
17, 210024, Note_off_c, 11, 89, 0
17, 210124, Note_on_c, 11, 76, 65
17, 210126, Note_off_c, 11, 77, 0
17, 210126, Note_off_c, 11, 84, 0
17, 210227, Note_on_c, 11, 69, 47
17, 210229, Note_off_c, 11, 76, 0
17, 210323, Note_off_c, 11, 69, 0
17, 210329, Note_on_c, 11, 84, 107
17, 210329, Note_on_c, 11, 88, 107
17, 210432, Note_on_c, 11, 82, 123
17, 210432, Note_on_c, 11, 86, 123
17, 210432, Note_on_c, 11, 89, 123
17, 210434, Note_off_c, 11, 84, 0
17, 210434, Note_off_c, 11, 88, 0
17, 210534, Note_on_c, 11, 77, 76
17, 210534, Note_on_c, 11, 84, 76
17, 210536, Note_off_c, 11, 82, 0
17, 210536, Note_off_c, 11, 86, 0
17, 210536, Note_off_c, 11, 89, 0
17, 210636, Note_on_c, 11, 76, 59
17, 210638, Note_off_c, 11, 77, 0
17, 210638, Note_off_c, 11, 84, 0
17, 210739, Note_on_c, 11, 69, 69
17, 210741, Note_off_c, 11, 76, 0
17, 210835, Note_off_c, 11, 69, 0
17, 210841, Note_on_c, 11, 84, 111
17, 210841, Note_on_c, 11, 88, 111
17, 210944, Note_on_c, 11, 82, 122
17, 210944, Note_on_c, 11, 86, 122
17, 210944, Note_on_c, 11, 89, 122
17, 210946, Note_off_c, 11, 84, 0
17, 210946, Note_off_c, 11, 88, 0
17, 211046, Note_on_c, 11, 77, 73
17, 211046, Note_on_c, 11, 84, 73
17, 211048, Note_off_c, 11, 82, 0
17, 211048, Note_off_c, 11, 86, 0
17, 211048, Note_off_c, 11, 89, 0
17, 211148, Note_on_c, 11, 76, 55
17, 211150, Note_off_c, 11, 77, 0
17, 211150, Note_off_c, 11, 84, 0
17, 211251, Note_on_c, 11, 69, 67
17, 211253, Note_off_c, 11, 76, 0
17, 211347, Note_off_c, 11, 69, 0
17, 211353, Note_on_c, 11, 84, 104
17, 211353, Note_on_c, 11, 88, 104
17, 211456, Note_on_c, 11, 82, 114
17, 211456, Note_on_c, 11, 86, 114
17, 211456, Note_on_c, 11, 89, 114
17, 211458, Note_off_c, 11, 84, 0
17, 211458, Note_off_c, 11, 88, 0
17, 211558, Note_on_c, 11, 77, 73
17, 211558, Note_on_c, 11, 84, 73
17, 211560, Note_off_c, 11, 82, 0
17, 211560, Note_off_c, 11, 86, 0
17, 211560, Note_off_c, 11, 89, 0
17, 211660, Note_on_c, 11, 76, 60
17, 211662, Note_off_c, 11, 77, 0
17, 211662, Note_off_c, 11, 84, 0
17, 211763, Note_on_c, 11, 69, 64
17, 211765, Note_off_c, 11, 76, 0
17, 211859, Note_off_c, 11, 69, 0
17, 211865, Note_on_c, 11, 84, 109
17, 211865, Note_on_c, 11, 88, 109
17, 211968, Note_on_c, 11, 82, 117
17, 211968, Note_on_c, 11, 86, 117
17, 211968, Note_on_c, 11, 89, 117
17, 211970, Note_off_c, 11, 84, 0
17, 211970, Note_off_c, 11, 88, 0
17, 212070, Note_on_c, 11, 77, 71
17, 212070, Note_on_c, 11, 84, 71
17, 212072, Note_off_c, 11, 82, 0
17, 212072, Note_off_c, 11, 86, 0
17, 212072, Note_off_c, 11, 89, 0
17, 212172, Note_on_c, 11, 76, 56
17, 212174, Note_off_c, 11, 77, 0
17, 212174, Note_off_c, 11, 84, 0
17, 212275, Note_on_c, 11, 69, 66
17, 212277, Note_off_c, 11, 76, 0
17, 212371, Note_off_c, 11, 69, 0
17, 212377, Note_on_c, 11, 84, 107
17, 212377, Note_on_c, 11, 88, 107
17, 212480, Note_on_c, 11, 82, 112
17, 212480, Note_on_c, 11, 86, 112
17, 212480, Note_on_c, 11, 89, 112
17, 212482, Note_off_c, 11, 84, 0
17, 212482, Note_off_c, 11, 88, 0
17, 212582, Note_on_c, 11, 77, 77
17, 212582, Note_on_c, 11, 84, 77
17, 212584, Note_off_c, 11, 82, 0
17, 212584, Note_off_c, 11, 86, 0
17, 212584, Note_off_c, 11, 89, 0
17, 212684, Note_on_c, 11, 76, 60
17, 212686, Note_off_c, 11, 77, 0
17, 212686, Note_off_c, 11, 84, 0
17, 212787, Note_on_c, 11, 69, 66
17, 212789, Note_off_c, 11, 76, 0
17, 212883, Note_off_c, 11, 69, 0
17, 212889, Note_on_c, 11, 84, 105
17, 212889, Note_on_c, 11, 88, 105
17, 212992, Note_on_c, 11, 82, 113
17, 212992, Note_on_c, 11, 86, 113
17, 212992, Note_on_c, 11, 89, 113
17, 212994, Note_off_c, 11, 84, 0
17, 212994, Note_off_c, 11, 88, 0
17, 213094, Note_on_c, 11, 77, 76
17, 213094, Note_on_c, 11, 84, 76
17, 213096, Note_off_c, 11, 82, 0
17, 213096, Note_off_c, 11, 86, 0
17, 213096, Note_off_c, 11, 89, 0
17, 213196, Note_on_c, 11, 76, 61
17, 213198, Note_off_c, 11, 77, 0
17, 213198, Note_off_c, 11, 84, 0
17, 213299, Note_on_c, 11, 69, 64
17, 213301, Note_off_c, 11, 76, 0
17, 213395, Note_off_c, 11, 69, 0
17, 213401, Note_on_c, 11, 84, 108
17, 213401, Note_on_c, 11, 88, 108
17, 213504, Note_on_c, 11, 82, 117
17, 213504, Note_on_c, 11, 86, 117
17, 213504, Note_on_c, 11, 89, 117
17, 213506, Note_off_c, 11, 84, 0
17, 213506, Note_off_c, 11, 88, 0
17, 213606, Note_on_c, 11, 77, 84
17, 213606, Note_on_c, 11, 84, 84
17, 213608, Note_off_c, 11, 82, 0
17, 213608, Note_off_c, 11, 86, 0
17, 213608, Note_off_c, 11, 89, 0
17, 213708, Note_on_c, 11, 76, 65
17, 213710, Note_off_c, 11, 77, 0
17, 213710, Note_off_c, 11, 84, 0
17, 213811, Note_on_c, 11, 69, 69
17, 213813, Note_off_c, 11, 76, 0
17, 213907, Note_off_c, 11, 69, 0
17, 213913, Note_on_c, 11, 84, 105
17, 213913, Note_on_c, 11, 88, 105
17, 214016, Note_on_c, 11, 82, 110
17, 214016, Note_on_c, 11, 86, 110
17, 214016, Note_on_c, 11, 89, 110
17, 214018, Note_off_c, 11, 84, 0
17, 214018, Note_off_c, 11, 88, 0
17, 214118, Note_on_c, 11, 77, 75
17, 214118, Note_on_c, 11, 84, 75
17, 214120, Note_off_c, 11, 82, 0
17, 214120, Note_off_c, 11, 86, 0
17, 214120, Note_off_c, 11, 89, 0
17, 214220, Note_on_c, 11, 76, 57
17, 214222, Note_off_c, 11, 77, 0
17, 214222, Note_off_c, 11, 84, 0
17, 214323, Note_on_c, 11, 69, 65
17, 214325, Note_off_c, 11, 76, 0
17, 214419, Note_off_c, 11, 69, 0
17, 214425, Note_on_c, 11, 84, 108
17, 214425, Note_on_c, 11, 88, 108
17, 214528, Note_on_c, 11, 82, 119
17, 214528, Note_on_c, 11, 86, 119
17, 214528, Note_on_c, 11, 89, 119
17, 214530, Note_off_c, 11, 84, 0
17, 214530, Note_off_c, 11, 88, 0
17, 214649, Note_off_c, 11, 82, 0
17, 214649, Note_off_c, 11, 86, 0
17, 214649, Note_off_c, 11, 89, 0
17, 219520, Note_on_c, 11, 72, 76
17, 219520, Note_on_c, 11, 74, 76
17, 219520, Note_on_c, 11, 78, 76
17, 219520, Note_on_c, 11, 81, 76
17, 219520, Note_on_c, 11, 84, 76
17, 219520, Note_on_c, 11, 86, 76
17, 219520, Note_on_c, 11, 90, 76
17, 219520, Note_on_c, 11, 93, 76
17, 219558, Note_off_c, 11, 72, 0
17, 219558, Note_off_c, 11, 74, 0
17, 219558, Note_off_c, 11, 78, 0
17, 219558, Note_off_c, 11, 81, 0
17, 219558, Note_off_c, 11, 84, 0
17, 219558, Note_off_c, 11, 86, 0
17, 219558, Note_off_c, 11, 90, 0
17, 219558, Note_off_c, 11, 93, 0
17, 220032, Note_on_c, 11, 72, 78
17, 220032, Note_on_c, 11, 74, 78
17, 220032, Note_on_c, 11, 78, 78
17, 220032, Note_on_c, 11, 81, 78
17, 220032, Note_on_c, 11, 84, 78
17, 220032, Note_on_c, 11, 86, 78
17, 220032, Note_on_c, 11, 90, 78
17, 220032, Note_on_c, 11, 93, 78
17, 220070, Note_off_c, 11, 72, 0
17, 220070, Note_off_c, 11, 74, 0
17, 220070, Note_off_c, 11, 78, 0
17, 220070, Note_off_c, 11, 81, 0
17, 220070, Note_off_c, 11, 84, 0
17, 220070, Note_off_c, 11, 86, 0
17, 220070, Note_off_c, 11, 90, 0
17, 220070, Note_off_c, 11, 93, 0
17, 220672, Note_on_c, 11, 72, 76
17, 220672, Note_on_c, 11, 74, 76
17, 220672, Note_on_c, 11, 78, 76
17, 220672, Note_on_c, 11, 81, 76
17, 220672, Note_on_c, 11, 84, 76
17, 220672, Note_on_c, 11, 86, 76
17, 220672, Note_on_c, 11, 90, 76
17, 220672, Note_on_c, 11, 93, 76
17, 220710, Note_off_c, 11, 72, 0
17, 220710, Note_off_c, 11, 74, 0
17, 220710, Note_off_c, 11, 78, 0
17, 220710, Note_off_c, 11, 81, 0
17, 220710, Note_off_c, 11, 84, 0
17, 220710, Note_off_c, 11, 86, 0
17, 220710, Note_off_c, 11, 90, 0
17, 220710, Note_off_c, 11, 93, 0
17, 221184, Note_on_c, 11, 72, 76
17, 221184, Note_on_c, 11, 74, 76
17, 221184, Note_on_c, 11, 78, 76
17, 221184, Note_on_c, 11, 81, 76
17, 221184, Note_on_c, 11, 84, 76
17, 221184, Note_on_c, 11, 86, 76
17, 221184, Note_on_c, 11, 90, 76
17, 221184, Note_on_c, 11, 93, 76
17, 221222, Note_off_c, 11, 72, 0
17, 221222, Note_off_c, 11, 74, 0
17, 221222, Note_off_c, 11, 78, 0
17, 221222, Note_off_c, 11, 81, 0
17, 221222, Note_off_c, 11, 84, 0
17, 221222, Note_off_c, 11, 86, 0
17, 221222, Note_off_c, 11, 90, 0
17, 221222, Note_off_c, 11, 93, 0
17, 221696, Note_on_c, 11, 72, 75
17, 221696, Note_on_c, 11, 74, 75
17, 221696, Note_on_c, 11, 78, 75
17, 221696, Note_on_c, 11, 81, 75
17, 221696, Note_on_c, 11, 84, 75
17, 221696, Note_on_c, 11, 86, 75
17, 221696, Note_on_c, 11, 90, 75
17, 221696, Note_on_c, 11, 93, 75
17, 221734, Note_off_c, 11, 72, 0
17, 221734, Note_off_c, 11, 74, 0
17, 221734, Note_off_c, 11, 78, 0
17, 221734, Note_off_c, 11, 81, 0
17, 221734, Note_off_c, 11, 84, 0
17, 221734, Note_off_c, 11, 86, 0
17, 221734, Note_off_c, 11, 90, 0
17, 221734, Note_off_c, 11, 93, 0
17, 222208, Note_on_c, 11, 72, 81
17, 222208, Note_on_c, 11, 74, 81
17, 222208, Note_on_c, 11, 78, 81
17, 222208, Note_on_c, 11, 81, 81
17, 222208, Note_on_c, 11, 84, 81
17, 222208, Note_on_c, 11, 86, 81
17, 222208, Note_on_c, 11, 90, 81
17, 222208, Note_on_c, 11, 93, 81
17, 222246, Note_off_c, 11, 72, 0
17, 222246, Note_off_c, 11, 74, 0
17, 222246, Note_off_c, 11, 78, 0
17, 222246, Note_off_c, 11, 81, 0
17, 222246, Note_off_c, 11, 84, 0
17, 222246, Note_off_c, 11, 86, 0
17, 222246, Note_off_c, 11, 90, 0
17, 222246, Note_off_c, 11, 93, 0
17, 222848, Note_on_c, 11, 72, 70
17, 222848, Note_on_c, 11, 74, 70
17, 222848, Note_on_c, 11, 78, 70
17, 222848, Note_on_c, 11, 81, 70
17, 222848, Note_on_c, 11, 84, 70
17, 222848, Note_on_c, 11, 86, 70
17, 222848, Note_on_c, 11, 90, 70
17, 222848, Note_on_c, 11, 93, 70
17, 222886, Note_off_c, 11, 72, 0
17, 222886, Note_off_c, 11, 74, 0
17, 222886, Note_off_c, 11, 78, 0
17, 222886, Note_off_c, 11, 81, 0
17, 222886, Note_off_c, 11, 84, 0
17, 222886, Note_off_c, 11, 86, 0
17, 222886, Note_off_c, 11, 90, 0
17, 222886, Note_off_c, 11, 93, 0
17, 223360, Note_on_c, 11, 72, 72
17, 223360, Note_on_c, 11, 74, 72
17, 223360, Note_on_c, 11, 78, 72
17, 223360, Note_on_c, 11, 81, 72
17, 223360, Note_on_c, 11, 84, 72
17, 223360, Note_on_c, 11, 86, 72
17, 223360, Note_on_c, 11, 90, 72
17, 223360, Note_on_c, 11, 93, 72
17, 223398, Note_off_c, 11, 72, 0
17, 223398, Note_off_c, 11, 74, 0
17, 223398, Note_off_c, 11, 78, 0
17, 223398, Note_off_c, 11, 81, 0
17, 223398, Note_off_c, 11, 84, 0
17, 223398, Note_off_c, 11, 86, 0
17, 223398, Note_off_c, 11, 90, 0
17, 223398, Note_off_c, 11, 93, 0
17, 223872, Note_on_c, 11, 72, 74
17, 223872, Note_on_c, 11, 74, 74
17, 223872, Note_on_c, 11, 78, 74
17, 223872, Note_on_c, 11, 81, 74
17, 223872, Note_on_c, 11, 84, 74
17, 223872, Note_on_c, 11, 86, 74
17, 223872, Note_on_c, 11, 90, 74
17, 223872, Note_on_c, 11, 93, 74
17, 223910, Note_off_c, 11, 72, 0
17, 223910, Note_off_c, 11, 74, 0
17, 223910, Note_off_c, 11, 78, 0
17, 223910, Note_off_c, 11, 81, 0
17, 223910, Note_off_c, 11, 84, 0
17, 223910, Note_off_c, 11, 86, 0
17, 223910, Note_off_c, 11, 90, 0
17, 223910, Note_off_c, 11, 93, 0
17, 224128, Note_on_c, 11, 72, 79
17, 224128, Note_on_c, 11, 74, 79
17, 224128, Note_on_c, 11, 78, 79
17, 224128, Note_on_c, 11, 81, 79
17, 224128, Note_on_c, 11, 84, 79
17, 224128, Note_on_c, 11, 86, 79
17, 224128, Note_on_c, 11, 90, 79
17, 224128, Note_on_c, 11, 93, 79
17, 224166, Note_off_c, 11, 72, 0
17, 224166, Note_off_c, 11, 74, 0
17, 224166, Note_off_c, 11, 78, 0
17, 224166, Note_off_c, 11, 81, 0
17, 224166, Note_off_c, 11, 84, 0
17, 224166, Note_off_c, 11, 86, 0
17, 224166, Note_off_c, 11, 90, 0
17, 224166, Note_off_c, 11, 93, 0
17, 224640, Note_on_c, 11, 72, 76
17, 224640, Note_on_c, 11, 74, 76
17, 224640, Note_on_c, 11, 78, 76
17, 224640, Note_on_c, 11, 81, 76
17, 224640, Note_on_c, 11, 84, 76
17, 224640, Note_on_c, 11, 86, 76
17, 224640, Note_on_c, 11, 90, 76
17, 224640, Note_on_c, 11, 93, 76
17, 224678, Note_off_c, 11, 72, 0
17, 224678, Note_off_c, 11, 74, 0
17, 224678, Note_off_c, 11, 78, 0
17, 224678, Note_off_c, 11, 81, 0
17, 224678, Note_off_c, 11, 84, 0
17, 224678, Note_off_c, 11, 86, 0
17, 224678, Note_off_c, 11, 90, 0
17, 224678, Note_off_c, 11, 93, 0
17, 225152, Note_on_c, 11, 72, 68
17, 225152, Note_on_c, 11, 74, 68
17, 225152, Note_on_c, 11, 78, 68
17, 225152, Note_on_c, 11, 81, 68
17, 225152, Note_on_c, 11, 84, 68
17, 225152, Note_on_c, 11, 86, 68
17, 225152, Note_on_c, 11, 90, 68
17, 225152, Note_on_c, 11, 93, 68
17, 225190, Note_off_c, 11, 72, 0
17, 225190, Note_off_c, 11, 74, 0
17, 225190, Note_off_c, 11, 78, 0
17, 225190, Note_off_c, 11, 81, 0
17, 225190, Note_off_c, 11, 84, 0
17, 225190, Note_off_c, 11, 86, 0
17, 225190, Note_off_c, 11, 90, 0
17, 225190, Note_off_c, 11, 93, 0
17, 225408, Note_on_c, 11, 72, 77
17, 225408, Note_on_c, 11, 74, 77
17, 225408, Note_on_c, 11, 78, 77
17, 225408, Note_on_c, 11, 81, 77
17, 225408, Note_on_c, 11, 84, 77
17, 225408, Note_on_c, 11, 86, 77
17, 225408, Note_on_c, 11, 90, 77
17, 225408, Note_on_c, 11, 93, 77
17, 225446, Note_off_c, 11, 72, 0
17, 225446, Note_off_c, 11, 74, 0
17, 225446, Note_off_c, 11, 78, 0
17, 225446, Note_off_c, 11, 81, 0
17, 225446, Note_off_c, 11, 84, 0
17, 225446, Note_off_c, 11, 86, 0
17, 225446, Note_off_c, 11, 90, 0
17, 225446, Note_off_c, 11, 93, 0
17, 225664, Note_on_c, 11, 72, 73
17, 225664, Note_on_c, 11, 74, 73
17, 225664, Note_on_c, 11, 78, 73
17, 225664, Note_on_c, 11, 81, 73
17, 225664, Note_on_c, 11, 84, 73
17, 225664, Note_on_c, 11, 86, 73
17, 225664, Note_on_c, 11, 90, 73
17, 225664, Note_on_c, 11, 93, 73
17, 225702, Note_off_c, 11, 72, 0
17, 225702, Note_off_c, 11, 74, 0
17, 225702, Note_off_c, 11, 78, 0
17, 225702, Note_off_c, 11, 81, 0
17, 225702, Note_off_c, 11, 84, 0
17, 225702, Note_off_c, 11, 86, 0
17, 225702, Note_off_c, 11, 90, 0
17, 225702, Note_off_c, 11, 93, 0
17, 226176, Note_on_c, 11, 72, 74
17, 226176, Note_on_c, 11, 74, 74
17, 226176, Note_on_c, 11, 78, 74
17, 226176, Note_on_c, 11, 81, 74
17, 226176, Note_on_c, 11, 84, 74
17, 226176, Note_on_c, 11, 86, 74
17, 226176, Note_on_c, 11, 90, 74
17, 226176, Note_on_c, 11, 93, 74
17, 226214, Note_off_c, 11, 72, 0
17, 226214, Note_off_c, 11, 74, 0
17, 226214, Note_off_c, 11, 78, 0
17, 226214, Note_off_c, 11, 81, 0
17, 226214, Note_off_c, 11, 84, 0
17, 226214, Note_off_c, 11, 86, 0
17, 226214, Note_off_c, 11, 90, 0
17, 226214, Note_off_c, 11, 93, 0
17, 226688, Note_on_c, 11, 72, 76
17, 226688, Note_on_c, 11, 74, 76
17, 226688, Note_on_c, 11, 78, 76
17, 226688, Note_on_c, 11, 81, 76
17, 226688, Note_on_c, 11, 84, 76
17, 226688, Note_on_c, 11, 86, 76
17, 226688, Note_on_c, 11, 90, 76
17, 226688, Note_on_c, 11, 93, 76
17, 226726, Note_off_c, 11, 72, 0
17, 226726, Note_off_c, 11, 74, 0
17, 226726, Note_off_c, 11, 78, 0
17, 226726, Note_off_c, 11, 81, 0
17, 226726, Note_off_c, 11, 84, 0
17, 226726, Note_off_c, 11, 86, 0
17, 226726, Note_off_c, 11, 90, 0
17, 226726, Note_off_c, 11, 93, 0
17, 226944, Note_on_c, 11, 72, 78
17, 226944, Note_on_c, 11, 74, 78
17, 226944, Note_on_c, 11, 78, 78
17, 226944, Note_on_c, 11, 81, 78
17, 226944, Note_on_c, 11, 84, 78
17, 226944, Note_on_c, 11, 86, 78
17, 226944, Note_on_c, 11, 90, 78
17, 226944, Note_on_c, 11, 93, 78
17, 226982, Note_off_c, 11, 72, 0
17, 226982, Note_off_c, 11, 74, 0
17, 226982, Note_off_c, 11, 78, 0
17, 226982, Note_off_c, 11, 81, 0
17, 226982, Note_off_c, 11, 84, 0
17, 226982, Note_off_c, 11, 86, 0
17, 226982, Note_off_c, 11, 90, 0
17, 226982, Note_off_c, 11, 93, 0
17, 227200, Note_on_c, 11, 72, 79
17, 227200, Note_on_c, 11, 74, 79
17, 227200, Note_on_c, 11, 78, 79
17, 227200, Note_on_c, 11, 81, 79
17, 227200, Note_on_c, 11, 84, 79
17, 227200, Note_on_c, 11, 86, 79
17, 227200, Note_on_c, 11, 90, 79
17, 227200, Note_on_c, 11, 93, 79
17, 227238, Note_off_c, 11, 72, 0
17, 227238, Note_off_c, 11, 74, 0
17, 227238, Note_off_c, 11, 78, 0
17, 227238, Note_off_c, 11, 81, 0
17, 227238, Note_off_c, 11, 84, 0
17, 227238, Note_off_c, 11, 86, 0
17, 227238, Note_off_c, 11, 90, 0
17, 227238, Note_off_c, 11, 93, 0
17, 229888, Note_on_c, 11, 84, 104
17, 229952, Note_off_c, 11, 84, 0
17, 229952, Note_on_c, 11, 82, 107
17, 230016, Note_off_c, 11, 82, 0
17, 230016, Note_on_c, 11, 84, 117
17, 230080, Note_off_c, 11, 84, 0
17, 230080, Note_on_c, 11, 83, 113
17, 230144, Note_off_c, 11, 83, 0
17, 230144, Note_on_c, 11, 84, 123
17, 230208, Note_off_c, 11, 84, 0
17, 230208, Note_on_c, 11, 83, 108
17, 230272, Note_off_c, 11, 83, 0
17, 230272, Note_on_c, 11, 84, 119
17, 230336, Note_off_c, 11, 84, 0
17, 230336, Note_on_c, 11, 82, 104
17, 230400, Note_off_c, 11, 82, 0
17, 230400, Note_on_c, 11, 85, 123
17, 230464, Note_off_c, 11, 85, 0
17, 230464, Note_on_c, 11, 84, 106
17, 230528, Note_off_c, 11, 84, 0
17, 230528, Note_on_c, 11, 85, 123
17, 230592, Note_off_c, 11, 85, 0
17, 230592, Note_on_c, 11, 84, 106
17, 230656, Note_off_c, 11, 84, 0
17, 230656, Note_on_c, 11, 88, 126
17, 230720, Note_off_c, 11, 88, 0
17, 230720, Note_on_c, 11, 84, 100
17, 230784, Note_off_c, 11, 84, 0
17, 230784, Note_on_c, 11, 86, 120
17, 230848, Note_off_c, 11, 86, 0
17, 230848, Note_on_c, 11, 83, 108
17, 230912, Note_off_c, 11, 83, 0
17, 230912, Note_on_c, 11, 86, 116
17, 230976, Note_off_c, 11, 86, 0
17, 230976, Note_on_c, 11, 83, 104
17, 231040, Note_off_c, 11, 83, 0
17, 231040, Note_on_c, 11, 84, 119
17, 231104, Note_off_c, 11, 84, 0
17, 231104, Note_on_c, 11, 82, 108
17, 231168, Note_off_c, 11, 82, 0
17, 231168, Note_on_c, 11, 87, 127
17, 231232, Note_off_c, 11, 87, 0
17, 231232, Note_on_c, 11, 82, 103
17, 231296, Note_off_c, 11, 82, 0
17, 231296, Note_on_c, 11, 87, 127
17, 231360, Note_off_c, 11, 87, 0
17, 231360, Note_on_c, 11, 82, 103
17, 231424, Note_off_c, 11, 82, 0
17, 231424, Note_on_c, 11, 90, 127
17, 231488, Note_off_c, 11, 90, 0
17, 231488, Note_on_c, 11, 82, 98
17, 231552, Note_off_c, 11, 82, 0
17, 231552, Note_on_c, 11, 86, 124
17, 231616, Note_off_c, 11, 86, 0
17, 231616, Note_on_c, 11, 83, 105
17, 231680, Note_off_c, 11, 83, 0
17, 231680, Note_on_c, 11, 86, 120
17, 231744, Note_off_c, 11, 86, 0
17, 231744, Note_on_c, 11, 83, 100
17, 231808, Note_off_c, 11, 83, 0
17, 231808, Note_on_c, 11, 85, 123
17, 231872, Note_off_c, 11, 85, 0
17, 231872, Note_on_c, 11, 83, 107
17, 231936, Note_off_c, 11, 83, 0
17, 231936, Note_on_c, 11, 88, 127
17, 232000, Note_off_c, 11, 88, 0
17, 232000, Note_on_c, 11, 84, 102
17, 232064, Note_off_c, 11, 84, 0
17, 232064, Note_on_c, 11, 90, 127
17, 232128, Note_off_c, 11, 90, 0
17, 232128, Note_on_c, 11, 82, 93
17, 232192, Note_off_c, 11, 82, 0
17, 232192, Note_on_c, 11, 85, 119
17, 232256, Note_off_c, 11, 85, 0
17, 232256, Note_on_c, 11, 82, 106
17, 232320, Note_off_c, 11, 82, 0
17, 232320, Note_on_c, 11, 87, 124
17, 232384, Note_off_c, 11, 87, 0
17, 232384, Note_on_c, 11, 85, 106
17, 232448, Note_off_c, 11, 85, 0
17, 232448, Note_on_c, 11, 84, 106
17, 232512, Note_off_c, 11, 84, 0
17, 232512, Note_on_c, 11, 82, 105
17, 232576, Note_off_c, 11, 82, 0
17, 232576, Note_on_c, 11, 86, 123
17, 232640, Note_off_c, 11, 86, 0
17, 232640, Note_on_c, 11, 84, 112
17, 232704, Note_off_c, 11, 84, 0
17, 232704, Note_on_c, 11, 87, 121
17, 232768, Note_off_c, 11, 87, 0
17, 232768, Note_on_c, 11, 89, 117
17, 232832, Note_off_c, 11, 89, 0
17, 232832, Note_on_c, 11, 87, 106
17, 232896, Note_off_c, 11, 87, 0
17, 232896, Note_on_c, 11, 89, 117
17, 232960, Note_off_c, 11, 89, 0
17, 232960, Note_on_c, 11, 83, 93
17, 233024, Note_off_c, 11, 83, 0
17, 233024, Note_on_c, 11, 86, 119
17, 233088, Note_off_c, 11, 86, 0
17, 233088, Note_on_c, 11, 85, 108
17, 233152, Note_off_c, 11, 85, 0
17, 233152, Note_on_c, 11, 89, 123
17, 233216, Note_off_c, 11, 89, 0
17, 233216, Note_on_c, 11, 91, 118
17, 233280, Note_off_c, 11, 91, 0
17, 233280, Note_on_c, 11, 82, 92
17, 233344, Note_off_c, 11, 82, 0
17, 233344, Note_on_c, 11, 84, 119
17, 233408, Note_off_c, 11, 84, 0
17, 233408, Note_on_c, 11, 86, 124
17, 233472, Note_off_c, 11, 86, 0
17, 233472, Note_on_c, 11, 84, 106
17, 233536, Note_off_c, 11, 84, 0
17, 233536, Note_on_c, 11, 85, 120
17, 233600, Note_off_c, 11, 85, 0
17, 233600, Note_on_c, 11, 87, 122
17, 233664, Note_off_c, 11, 87, 0
17, 233664, Note_on_c, 11, 84, 108
17, 233728, Note_off_c, 11, 84, 0
17, 233728, Note_on_c, 11, 86, 124
17, 233792, Note_off_c, 11, 86, 0
17, 233792, Note_on_c, 11, 83, 105
17, 233856, Note_off_c, 11, 83, 0
17, 233856, Note_on_c, 11, 85, 114
17, 233920, Note_off_c, 11, 85, 0
17, 233920, Note_on_c, 11, 87, 119
17, 233984, Note_off_c, 11, 87, 0
17, 233984, Note_on_c, 11, 89, 120
17, 234048, Note_off_c, 11, 89, 0
17, 234048, Note_on_c, 11, 82, 93
17, 234112, Note_off_c, 11, 82, 0
17, 234112, Note_on_c, 11, 83, 120
17, 234176, Note_off_c, 11, 83, 0
17, 234176, Note_on_c, 11, 86, 124
17, 234240, Note_off_c, 11, 86, 0
17, 234240, Note_on_c, 11, 88, 117
17, 234304, Note_off_c, 11, 88, 0
17, 234304, Note_on_c, 11, 82, 93
17, 234368, Note_off_c, 11, 82, 0
17, 234368, Note_on_c, 11, 83, 113
17, 234432, Note_off_c, 11, 83, 0
17, 234432, Note_on_c, 11, 82, 112
17, 234496, Note_off_c, 11, 82, 0
17, 234496, Note_on_c, 11, 84, 115
17, 234560, Note_off_c, 11, 84, 0
17, 234560, Note_on_c, 11, 78, 96
17, 234624, Note_off_c, 11, 78, 0
17, 234624, Note_on_c, 11, 79, 118
17, 234688, Note_off_c, 11, 79, 0
17, 234688, Note_on_c, 11, 82, 123
17, 234752, Note_off_c, 11, 82, 0
17, 234752, Note_on_c, 11, 85, 125
17, 234816, Note_off_c, 11, 85, 0
17, 234816, Note_on_c, 11, 82, 103
17, 234880, Note_off_c, 11, 82, 0
17, 234880, Note_on_c, 11, 84, 122
17, 234944, Note_off_c, 11, 84, 0
17, 234944, Note_on_c, 11, 85, 121
17, 235008, Note_off_c, 11, 85, 0
17, 235008, Note_on_c, 11, 87, 119
17, 235072, Note_off_c, 11, 87, 0
17, 235072, Note_on_c, 11, 84, 105
17, 235136, Note_off_c, 11, 84, 0
17, 235136, Note_on_c, 11, 85, 119
17, 235200, Note_off_c, 11, 85, 0
17, 235200, Note_on_c, 11, 82, 102
17, 235264, Note_off_c, 11, 82, 0
17, 235264, Note_on_c, 11, 88, 126
17, 235328, Note_off_c, 11, 88, 0
17, 235328, Note_on_c, 11, 83, 107
17, 235392, Note_off_c, 11, 83, 0
17, 235392, Note_on_c, 11, 85, 113
17, 235456, Note_off_c, 11, 85, 0
17, 235456, Note_on_c, 11, 83, 110
17, 235520, Note_off_c, 11, 83, 0
17, 235520, Note_on_c, 11, 85, 118
17, 235584, Note_off_c, 11, 85, 0
17, 235584, Note_on_c, 11, 82, 99
17, 235648, Note_off_c, 11, 82, 0
17, 235648, Note_on_c, 11, 84, 120
17, 235712, Note_off_c, 11, 84, 0
17, 235712, Note_on_c, 11, 85, 122
17, 235776, Note_off_c, 11, 85, 0
17, 235776, Note_on_c, 11, 87, 119
17, 235840, Note_off_c, 11, 87, 0
17, 235840, Note_on_c, 11, 84, 108
17, 235904, Note_off_c, 11, 84, 0
17, 235904, Note_on_c, 11, 85, 119
17, 235968, Note_off_c, 11, 85, 0
17, 235968, Note_on_c, 11, 82, 102
17, 236032, Note_off_c, 11, 82, 0
17, 236032, Note_on_c, 11, 88, 125
17, 236096, Note_off_c, 11, 88, 0
17, 236096, Note_on_c, 11, 83, 101
17, 236160, Note_off_c, 11, 83, 0
17, 236160, Note_on_c, 11, 85, 121
17, 236224, Note_off_c, 11, 85, 0
17, 236224, Note_on_c, 11, 83, 108
17, 236288, Note_off_c, 11, 83, 0
17, 236288, Note_on_c, 11, 85, 116
17, 236352, Note_off_c, 11, 85, 0
17, 236352, Note_on_c, 11, 82, 108
17, 236416, Note_off_c, 11, 82, 0
17, 236416, Note_on_c, 11, 84, 115
17, 236480, Note_off_c, 11, 84, 0
17, 236480, Note_on_c, 11, 85, 118
17, 236544, Note_off_c, 11, 85, 0
17, 236544, Note_on_c, 11, 87, 124
17, 236608, Note_off_c, 11, 87, 0
17, 236608, Note_on_c, 11, 84, 106
17, 236672, Note_off_c, 11, 84, 0
17, 236672, Note_on_c, 11, 85, 112
17, 236736, Note_off_c, 11, 85, 0
17, 236736, Note_on_c, 11, 82, 100
17, 236800, Note_off_c, 11, 82, 0
17, 236800, Note_on_c, 11, 88, 127
17, 236864, Note_off_c, 11, 88, 0
17, 236864, Note_on_c, 11, 83, 99
17, 236928, Note_off_c, 11, 83, 0
17, 236928, Note_on_c, 11, 85, 120
17, 236992, Note_off_c, 11, 85, 0
17, 236992, Note_on_c, 11, 83, 105
17, 237056, Note_off_c, 11, 83, 0
17, 237056, Note_on_c, 11, 89, 127
17, 237120, Note_off_c, 11, 89, 0
17, 237120, Note_on_c, 11, 85, 105
17, 237184, Note_off_c, 11, 85, 0
17, 237184, Note_on_c, 11, 85, 113
17, 237248, Note_off_c, 11, 85, 0
17, 237248, Note_on_c, 11, 89, 127
17, 237312, Note_off_c, 11, 89, 0
17, 237312, Note_on_c, 11, 90, 123
17, 237376, Note_off_c, 11, 90, 0
17, 237376, Note_on_c, 11, 85, 104
17, 237440, Note_off_c, 11, 85, 0
17, 237440, Note_on_c, 11, 89, 119
17, 237504, Note_off_c, 11, 89, 0
17, 237504, Note_on_c, 11, 91, 118
17, 237568, Note_off_c, 11, 91, 0
17, 237568, Note_on_c, 11, 89, 106
17, 237632, Note_off_c, 11, 89, 0
17, 237632, Note_on_c, 11, 85, 98
17, 237696, Note_off_c, 11, 85, 0
17, 237696, Note_on_c, 11, 86, 119
17, 237760, Note_off_c, 11, 86, 0
17, 237760, Note_on_c, 11, 89, 127
17, 237824, Note_off_c, 11, 89, 0
17, 237824, Note_on_c, 11, 88, 109
17, 237888, Note_off_c, 11, 88, 0
17, 237888, Note_on_c, 11, 85, 100
17, 237952, Note_off_c, 11, 85, 0
17, 237952, Note_on_c, 11, 89, 122
17, 238016, Note_off_c, 11, 89, 0
17, 238016, Note_on_c, 11, 92, 126
17, 238080, Note_off_c, 11, 92, 0
17, 238080, Note_on_c, 11, 92, 112
17, 238144, Note_off_c, 11, 92, 0
17, 238144, Note_on_c, 11, 79, 77
17, 238208, Note_off_c, 11, 79, 0
17, 238208, Note_on_c, 11, 80, 112
17, 238272, Note_off_c, 11, 80, 0
17, 238272, Note_on_c, 11, 82, 126
17, 238336, Note_off_c, 11, 82, 0
17, 238336, Note_on_c, 11, 85, 123
17, 238400, Note_off_c, 11, 85, 0
17, 238400, Note_on_c, 11, 82, 106
17, 238464, Note_off_c, 11, 82, 0
17, 238464, Note_on_c, 11, 86, 125
17, 238528, Note_off_c, 11, 86, 0
17, 238528, Note_on_c, 11, 85, 109
17, 238592, Note_off_c, 11, 85, 0
17, 238592, Note_on_c, 11, 89, 123
17, 238656, Note_off_c, 11, 89, 0
17, 238656, Note_on_c, 11, 83, 94
17, 238720, Note_off_c, 11, 83, 0
17, 238720, Note_on_c, 11, 86, 120
17, 238784, Note_off_c, 11, 86, 0
17, 238784, Note_on_c, 11, 82, 101
17, 238848, Note_off_c, 11, 82, 0
17, 238848, Note_on_c, 11, 86, 127
17, 238912, Note_off_c, 11, 86, 0
17, 238912, Note_on_c, 11, 83, 104
17, 238976, Note_off_c, 11, 83, 0
17, 238976, Note_on_c, 11, 85, 119
17, 239040, Note_off_c, 11, 85, 0
17, 239040, Note_on_c, 11, 82, 104
17, 239104, Note_off_c, 11, 82, 0
17, 239104, Note_on_c, 11, 83, 117
17, 239168, Note_off_c, 11, 83, 0
17, 239168, Note_on_c, 11, 82, 103
17, 239232, Note_off_c, 11, 82, 0
17, 239232, Note_on_c, 11, 83, 115
17, 239296, Note_off_c, 11, 83, 0
17, 239296, Note_on_c, 11, 80, 101
17, 239360, Note_off_c, 11, 80, 0
17, 239360, Note_on_c, 11, 82, 117
17, 239424, Note_off_c, 11, 82, 0
17, 239424, Note_on_c, 11, 79, 105
17, 239488, Note_off_c, 11, 79, 0
17, 239488, Note_on_c, 11, 80, 117
17, 239552, Note_off_c, 11, 80, 0
17, 239552, Note_on_c, 11, 77, 103
17, 239616, Note_off_c, 11, 77, 0
17, 239616, Note_on_c, 11, 82, 127
17, 239680, Note_off_c, 11, 82, 0
17, 239680, Note_on_c, 11, 80, 106
17, 239744, Note_off_c, 11, 80, 0
17, 239744, Note_on_c, 11, 82, 119
17, 239808, Note_off_c, 11, 82, 0
17, 239808, Note_on_c, 11, 79, 99
17, 239872, Note_off_c, 11, 79, 0
17, 239872, Note_on_c, 11, 80, 117
17, 239936, Note_off_c, 11, 80, 0
17, 239936, Note_on_c, 11, 77, 104
17, 240000, Note_off_c, 11, 77, 0
17, 240000, Note_on_c, 11, 77, 111
17, 240064, Note_off_c, 11, 77, 0
17, 240064, Note_on_c, 11, 70, 98
17, 240128, Note_off_c, 11, 70, 0
17, 240128, Note_on_c, 11, 76, 125
17, 240192, Note_off_c, 11, 76, 0
17, 240192, Note_on_c, 11, 71, 101
17, 240256, Note_off_c, 11, 71, 0
17, 240256, Note_on_c, 11, 74, 120
17, 240320, Note_off_c, 11, 74, 0
17, 240320, Note_on_c, 11, 71, 107
17, 240384, Note_off_c, 11, 71, 0
17, 240384, Note_on_c, 11, 71, 114
17, 240448, Note_off_c, 11, 71, 0
17, 240448, Note_on_c, 11, 70, 105
17, 240512, Note_off_c, 11, 70, 0
17, 240512, Note_on_c, 11, 71, 114
17, 240576, Note_off_c, 11, 71, 0
17, 240576, Note_on_c, 11, 67, 98
17, 240640, Note_off_c, 11, 67, 0
17, 240704, Note_on_c, 11, 77, 101
17, 240768, Note_off_c, 11, 77, 0
17, 240768, Note_on_c, 11, 82, 122
17, 240832, Note_off_c, 11, 82, 0
17, 240832, Note_on_c, 11, 83, 123
17, 240896, Note_off_c, 11, 83, 0
17, 240960, Note_on_c, 11, 82, 102
17, 241024, Note_off_c, 11, 82, 0
17, 241024, Note_on_c, 11, 83, 117
17, 241088, Note_off_c, 11, 83, 0
17, 241088, Note_on_c, 11, 77, 91
17, 241152, Note_off_c, 11, 77, 0
17, 241152, Note_on_c, 11, 71, 91
17, 241216, Note_off_c, 11, 71, 0
17, 241216, Note_on_c, 11, 74, 119
17, 241280, Note_off_c, 11, 74, 0
17, 241280, Note_on_c, 11, 80, 127
17, 241344, Note_off_c, 11, 80, 0
17, 241344, Note_on_c, 11, 79, 113
17, 241408, Note_off_c, 11, 79, 0
17, 241408, Note_on_c, 11, 80, 119
17, 241472, Note_off_c, 11, 80, 0
17, 241472, Note_on_c, 11, 82, 118
17, 241536, Note_off_c, 11, 82, 0
17, 241536, Note_on_c, 11, 83, 118
17, 241600, Note_off_c, 11, 83, 0
17, 241600, Note_on_c, 11, 82, 108
17, 241664, Note_off_c, 11, 82, 0
17, 241664, Note_on_c, 11, 79, 100
17, 241728, Note_off_c, 11, 79, 0
17, 241728, Note_on_c, 11, 80, 114
17, 241792, Note_off_c, 11, 80, 0
17, 241792, Note_on_c, 11, 89, 127
17, 241856, Note_off_c, 11, 89, 0
17, 241856, Note_on_c, 11, 83, 97
17, 241920, Note_off_c, 11, 83, 0
17, 241920, Note_on_c, 11, 82, 107
17, 241984, Note_off_c, 11, 82, 0
17, 241984, Note_on_c, 11, 83, 116
17, 242048, Note_off_c, 11, 83, 0
17, 242048, Note_on_c, 11, 91, 127
17, 242112, Note_off_c, 11, 91, 0
17, 242112, Note_on_c, 11, 86, 102
17, 242176, Note_off_c, 11, 86, 0
17, 242176, Note_on_c, 11, 83, 101
17, 242240, Note_off_c, 11, 83, 0
17, 242240, Note_on_c, 11, 88, 125
17, 242304, Note_off_c, 11, 88, 0
17, 242304, Note_on_c, 11, 94, 127
17, 242368, Note_off_c, 11, 94, 0
17, 242368, Note_on_c, 11, 89, 102
17, 242432, Note_off_c, 11, 89, 0
17, 242432, Note_on_c, 11, 89, 114
17, 242496, Note_off_c, 11, 89, 0
17, 242496, Note_on_c, 11, 92, 124
17, 242560, Note_off_c, 11, 92, 0
17, 242560, Note_on_c, 11, 95, 127
17, 242624, Note_off_c, 11, 95, 0
17, 242624, Note_on_c, 11, 92, 106
17, 242688, Note_off_c, 11, 92, 0
17, 242688, Note_on_c, 11, 98, 127
17, 242752, Note_off_c, 11, 98, 0
17, 242752, Note_on_c, 11, 92, 95
17, 242816, Note_off_c, 11, 92, 0
17, 242816, Note_on_c, 11, 103, 127
17, 242880, Note_off_c, 11, 103, 0
17, 242880, Note_on_c, 11, 98, 104
17, 242944, Note_off_c, 11, 98, 0
17, 242944, Note_on_c, 11, 94, 96
17, 243008, Note_off_c, 11, 94, 0
17, 243008, Note_on_c, 11, 89, 93
17, 243072, Note_off_c, 11, 89, 0
17, 243072, Note_on_c, 11, 100, 127
17, 243136, Note_off_c, 11, 100, 0
17, 243136, Note_on_c, 11, 95, 103
17, 243200, Note_off_c, 11, 95, 0
17, 243200, Note_on_c, 11, 89, 94
17, 243264, Note_off_c, 11, 89, 0
17, 243264, Note_on_c, 11, 85, 98
17, 243328, Note_off_c, 11, 85, 0
17, 243328, Note_on_c, 11, 95, 127
17, 243392, Note_off_c, 11, 95, 0
17, 243392, Note_on_c, 11, 92, 111
17, 243456, Note_off_c, 11, 92, 0
17, 243456, Note_on_c, 11, 83, 91
17, 243520, Note_off_c, 11, 83, 0
17, 243520, Note_on_c, 11, 82, 102
17, 243584, Note_off_c, 11, 82, 0
17, 243584, Note_on_c, 11, 91, 127
17, 243648, Note_off_c, 11, 91, 0
17, 243648, Note_on_c, 11, 88, 103
17, 243712, Note_off_c, 11, 88, 0
17, 243776, Note_on_c, 11, 80, 99
17, 243840, Note_off_c, 11, 80, 0
17, 243840, Note_on_c, 11, 83, 125
17, 243904, Note_off_c, 11, 83, 0
17, 243904, Note_on_c, 11, 88, 127
17, 243968, Note_off_c, 11, 88, 0
17, 243968, Note_on_c, 11, 91, 127
17, 244032, Note_off_c, 11, 91, 0
17, 244032, Note_on_c, 11, 94, 122
17, 244096, Note_off_c, 11, 94, 0
17, 244096, Note_on_c, 11, 95, 124
17, 244160, Note_off_c, 11, 95, 0
17, 244224, Note_on_c, 11, 83, 100
17, 244288, Note_off_c, 11, 83, 0
17, 244288, Note_on_c, 11, 86, 122
17, 244352, Note_off_c, 11, 86, 0
17, 244352, Note_on_c, 11, 92, 127
17, 244416, Note_off_c, 11, 92, 0
17, 244416, Note_on_c, 11, 94, 127
17, 244480, Note_off_c, 11, 94, 0
17, 244480, Note_on_c, 11, 97, 127
17, 244544, Note_off_c, 11, 97, 0
17, 244544, Note_on_c, 11, 101, 127
17, 244608, Note_off_c, 11, 101, 0
17, 244608, Note_on_c, 11, 104, 126
17, 244672, Note_off_c, 11, 104, 0
17, 244736, Note_on_c, 11, 89, 103
17, 244800, Note_off_c, 11, 89, 0
17, 244800, Note_on_c, 11, 94, 125
17, 244864, Note_off_c, 11, 94, 0
17, 244864, Note_on_c, 11, 97, 124
17, 244928, Note_off_c, 11, 97, 0
17, 244928, Note_on_c, 11, 101, 127
17, 244992, Note_off_c, 11, 101, 0
17, 244992, Note_on_c, 11, 106, 126
17, 245056, Note_off_c, 11, 106, 0
17, 245120, Note_on_c, 11, 91, 105
17, 245184, Note_off_c, 11, 91, 0
17, 245184, Note_on_c, 11, 94, 120
17, 245248, Note_off_c, 11, 94, 0
17, 245248, Note_on_c, 11, 100, 127
17, 245312, Note_off_c, 11, 100, 0
17, 245312, Note_on_c, 11, 104, 127
17, 245376, Note_off_c, 11, 104, 0
17, 245376, Note_on_c, 11, 101, 104
17, 245440, Note_off_c, 11, 101, 0
17, 245440, Note_on_c, 11, 94, 92
17, 245504, Note_off_c, 11, 94, 0
17, 245504, Note_on_c, 11, 97, 116
17, 245568, Note_off_c, 11, 97, 0
17, 245568, Note_on_c, 11, 101, 123
17, 245632, Note_off_c, 11, 101, 0
17, 245632, Note_on_c, 11, 98, 105
17, 245696, Note_off_c, 11, 98, 0
17, 245696, Note_on_c, 11, 92, 94
17, 245760, Note_off_c, 11, 92, 0
17, 245760, Note_on_c, 11, 94, 113
17, 245824, Note_off_c, 11, 94, 0
17, 245824, Note_on_c, 11, 98, 126
17, 245888, Note_off_c, 11, 98, 0
17, 245888, Note_on_c, 11, 95, 103
17, 245952, Note_off_c, 11, 95, 0
17, 245952, Note_on_c, 11, 89, 98
17, 246016, Note_off_c, 11, 89, 0
17, 246016, Note_on_c, 11, 92, 121
17, 246080, Note_off_c, 11, 92, 0
17, 246080, Note_on_c, 11, 95, 120
17, 246144, Note_off_c, 11, 95, 0
17, 246144, Note_on_c, 11, 92, 107
17, 246208, Note_off_c, 11, 92, 0
17, 246208, Note_on_c, 11, 85, 92
17, 246272, Note_off_c, 11, 85, 0
17, 246272, Note_on_c, 11, 89, 123
17, 246336, Note_off_c, 11, 89, 0
17, 246336, Note_on_c, 11, 94, 127
17, 246400, Note_off_c, 11, 94, 0
17, 246400, Note_on_c, 11, 91, 110
17, 246464, Note_off_c, 11, 91, 0
17, 246464, Note_on_c, 11, 83, 89
17, 246528, Note_off_c, 11, 83, 0
17, 246528, Note_on_c, 11, 83, 108
17, 246592, Note_off_c, 11, 83, 0
17, 246592, Note_on_c, 11, 89, 127
17, 246656, Note_off_c, 11, 89, 0
17, 246656, Note_on_c, 11, 85, 100
17, 246720, Note_off_c, 11, 85, 0
17, 246720, Note_on_c, 11, 80, 97
17, 246784, Note_off_c, 11, 80, 0
17, 246784, Note_on_c, 11, 83, 121
17, 246848, Note_off_c, 11, 83, 0
17, 246848, Note_on_c, 11, 85, 120
17, 246912, Note_off_c, 11, 85, 0
17, 246912, Note_on_c, 11, 83, 111
17, 246976, Note_off_c, 11, 83, 0
17, 246976, Note_on_c, 11, 77, 95
17, 247040, Note_off_c, 11, 77, 0
17, 247040, Note_on_c, 11, 80, 117
17, 247104, Note_off_c, 11, 80, 0
17, 247104, Note_on_c, 11, 82, 125
17, 247168, Note_off_c, 11, 82, 0
17, 247168, Note_on_c, 11, 80, 106
17, 247232, Note_off_c, 11, 80, 0
17, 247232, Note_on_c, 11, 71, 87
17, 247296, Note_off_c, 11, 71, 0
17, 247296, Note_on_c, 11, 77, 127
17, 247360, Note_off_c, 11, 77, 0
17, 247360, Note_on_c, 11, 82, 127
17, 247424, Note_off_c, 11, 82, 0
17, 247424, Note_on_c, 11, 79, 104
17, 247488, Note_off_c, 11, 79, 0
17, 247488, Note_on_c, 11, 70, 87
17, 247552, Note_off_c, 11, 70, 0
17, 247552, Note_on_c, 11, 70, 127
17, 247552, Note_on_c, 11, 71, 127
17, 247552, Note_on_c, 11, 77, 127
17, 247616, Note_on_c, 11, 74, 120
17, 247617, Note_off_c, 11, 70, 0
17, 247617, Note_off_c, 11, 71, 0
17, 247617, Note_off_c, 11, 77, 0
17, 247676, Note_off_c, 11, 74, 0
17, 247744, Note_on_c, 11, 70, 103
17, 247744, Note_on_c, 11, 71, 103
17, 247744, Note_on_c, 11, 77, 103
17, 247808, Note_on_c, 11, 76, 117
17, 247808, Note_on_c, 11, 83, 117
17, 247809, Note_off_c, 11, 70, 0
17, 247809, Note_off_c, 11, 71, 0
17, 247809, Note_off_c, 11, 77, 0
17, 247872, Note_on_c, 11, 71, 104
17, 247872, Note_on_c, 11, 80, 104
17, 247873, Note_off_c, 11, 76, 0
17, 247873, Note_off_c, 11, 83, 0
17, 247932, Note_off_c, 11, 71, 0
17, 247932, Note_off_c, 11, 80, 0
17, 248000, Note_on_c, 11, 70, 98
17, 248000, Note_on_c, 11, 77, 98
17, 248064, Note_on_c, 11, 71, 100
17, 248064, Note_on_c, 11, 80, 100
17, 248065, Note_off_c, 11, 70, 0
17, 248065, Note_off_c, 11, 77, 0
17, 248128, Note_on_c, 11, 79, 127
17, 248128, Note_on_c, 11, 86, 127
17, 248129, Note_off_c, 11, 71, 0
17, 248129, Note_off_c, 11, 80, 0
17, 248188, Note_off_c, 11, 79, 0
17, 248188, Note_off_c, 11, 86, 0
17, 248256, Note_on_c, 11, 77, 97
17, 248256, Note_on_c, 11, 85, 97
17, 248320, Note_on_c, 11, 71, 87
17, 248320, Note_on_c, 11, 80, 87
17, 248321, Note_off_c, 11, 77, 0
17, 248321, Note_off_c, 11, 85, 0
17, 248384, Note_on_c, 11, 76, 120
17, 248384, Note_on_c, 11, 83, 120
17, 248385, Note_off_c, 11, 71, 0
17, 248385, Note_off_c, 11, 80, 0
17, 248444, Note_off_c, 11, 76, 0
17, 248444, Note_off_c, 11, 83, 0
17, 248512, Note_on_c, 11, 82, 104
17, 248512, Note_on_c, 11, 89, 104
17, 248576, Note_on_c, 11, 79, 95
17, 248576, Note_on_c, 11, 86, 95
17, 248577, Note_off_c, 11, 82, 0
17, 248577, Note_off_c, 11, 89, 0
17, 248640, Note_on_c, 11, 71, 97
17, 248640, Note_on_c, 11, 80, 97
17, 248641, Note_off_c, 11, 79, 0
17, 248641, Note_off_c, 11, 86, 0
17, 248700, Note_off_c, 11, 71, 0
17, 248700, Note_off_c, 11, 80, 0
17, 248768, Note_on_c, 11, 79, 101
17, 248768, Note_on_c, 11, 86, 101
17, 248832, Note_on_c, 11, 83, 107
17, 248832, Note_on_c, 11, 89, 107
17, 248833, Note_off_c, 11, 79, 0
17, 248833, Note_off_c, 11, 86, 0
17, 248896, Note_off_c, 11, 89, 0
17, 248896, Note_on_c, 11, 89, 127
17, 248896, Note_on_c, 11, 95, 127
17, 248897, Note_off_c, 11, 83, 0
17, 248960, Note_on_c, 11, 92, 127
17, 248960, Note_on_c, 11, 99, 127
17, 248961, Note_off_c, 11, 89, 0
17, 248961, Note_off_c, 11, 95, 0
17, 249024, Note_on_c, 11, 95, 123
17, 249024, Note_on_c, 11, 101, 123
17, 249025, Note_off_c, 11, 92, 0
17, 249025, Note_off_c, 11, 99, 0
17, 249088, Note_off_c, 11, 101, 0
17, 249088, Note_on_c, 11, 101, 127
17, 249088, Note_on_c, 11, 106, 127
17, 249089, Note_off_c, 11, 95, 0
17, 249148, Note_off_c, 11, 101, 0
17, 249148, Note_off_c, 11, 106, 0
17, 249216, Note_on_c, 11, 85, 103
17, 249216, Note_on_c, 11, 91, 103
17, 249280, Note_on_c, 11, 89, 110
17, 249280, Note_on_c, 11, 95, 110
17, 249281, Note_off_c, 11, 85, 0
17, 249281, Note_off_c, 11, 91, 0
17, 249344, Note_on_c, 11, 94, 127
17, 249344, Note_on_c, 11, 100, 127
17, 249345, Note_off_c, 11, 89, 0
17, 249345, Note_off_c, 11, 95, 0
17, 249408, Note_on_c, 11, 98, 127
17, 249408, Note_on_c, 11, 104, 127
17, 249409, Note_off_c, 11, 94, 0
17, 249409, Note_off_c, 11, 100, 0
17, 249468, Note_off_c, 11, 98, 0
17, 249468, Note_off_c, 11, 104, 0
17, 249600, Note_on_c, 11, 85, 102
17, 249600, Note_on_c, 11, 91, 102
17, 249664, Note_on_c, 11, 89, 112
17, 249664, Note_on_c, 11, 94, 112
17, 249665, Note_off_c, 11, 85, 0
17, 249665, Note_off_c, 11, 91, 0
17, 249728, Note_off_c, 11, 94, 0
17, 249728, Note_on_c, 11, 94, 127
17, 249728, Note_on_c, 11, 100, 127
17, 249729, Note_off_c, 11, 89, 0
17, 249792, Note_on_c, 11, 98, 127
17, 249792, Note_on_c, 11, 104, 127
17, 249793, Note_off_c, 11, 94, 0
17, 249793, Note_off_c, 11, 100, 0
17, 249856, Note_on_c, 11, 95, 102
17, 249856, Note_on_c, 11, 101, 102
17, 249857, Note_off_c, 11, 98, 0
17, 249857, Note_off_c, 11, 104, 0
17, 249920, Note_on_c, 11, 89, 82
17, 249920, Note_on_c, 11, 94, 82
17, 249921, Note_off_c, 11, 95, 0
17, 249921, Note_off_c, 11, 101, 0
17, 249980, Note_off_c, 11, 89, 0
17, 249980, Note_off_c, 11, 94, 0
17, 250112, Note_on_c, 11, 95, 101
17, 250176, Note_off_c, 11, 95, 0
17, 250176, Note_on_c, 11, 92, 99
17, 250240, Note_off_c, 11, 92, 0
17, 250240, Note_on_c, 11, 86, 91
17, 250304, Note_off_c, 11, 86, 0
17, 250304, Note_on_c, 11, 89, 118
17, 250368, Note_off_c, 11, 89, 0
17, 250368, Note_on_c, 11, 92, 123
17, 250432, Note_off_c, 11, 92, 0
17, 250432, Note_on_c, 11, 89, 105
17, 250496, Note_off_c, 11, 89, 0
17, 250496, Note_on_c, 11, 83, 95
17, 250560, Note_off_c, 11, 83, 0
17, 250560, Note_on_c, 11, 85, 117
17, 250624, Note_off_c, 11, 85, 0
17, 250624, Note_on_c, 11, 89, 125
17, 250688, Note_off_c, 11, 89, 0
17, 250688, Note_on_c, 11, 86, 102
17, 250752, Note_off_c, 11, 86, 0
17, 250752, Note_on_c, 11, 80, 97
17, 250816, Note_off_c, 11, 80, 0
17, 250816, Note_on_c, 11, 83, 119
17, 250880, Note_off_c, 11, 83, 0
17, 250880, Note_on_c, 11, 94, 127
17, 250944, Note_off_c, 11, 94, 0
17, 250944, Note_on_c, 11, 91, 111
17, 251008, Note_off_c, 11, 91, 0
17, 251008, Note_on_c, 11, 83, 88
17, 251072, Note_off_c, 11, 83, 0
17, 251200, Note_on_c, 11, 94, 101
17, 251264, Note_off_c, 11, 94, 0
17, 251264, Note_on_c, 11, 91, 104
17, 251328, Note_off_c, 11, 91, 0
17, 251328, Note_on_c, 11, 83, 92
17, 251392, Note_off_c, 11, 83, 0
17, 251392, Note_on_c, 11, 88, 126
17, 251456, Note_off_c, 11, 88, 0
17, 251456, Note_on_c, 11, 91, 123
17, 251520, Note_off_c, 11, 91, 0
17, 251520, Note_on_c, 11, 88, 107
17, 251584, Note_off_c, 11, 88, 0
17, 251584, Note_on_c, 11, 80, 89
17, 251648, Note_off_c, 11, 80, 0
17, 251648, Note_on_c, 11, 83, 115
17, 251712, Note_off_c, 11, 83, 0
17, 251712, Note_on_c, 11, 89, 127
17, 251776, Note_off_c, 11, 89, 0
17, 251776, Note_on_c, 11, 86, 104
17, 251840, Note_off_c, 11, 86, 0
17, 251840, Note_on_c, 11, 79, 88
17, 251904, Note_off_c, 11, 79, 0
17, 251904, Note_on_c, 11, 77, 102
17, 251968, Note_off_c, 11, 77, 0
17, 252032, Note_on_c, 11, 92, 100
17, 252096, Note_off_c, 11, 92, 0
17, 252096, Note_on_c, 11, 89, 96
17, 252160, Note_off_c, 11, 89, 0
17, 252160, Note_on_c, 11, 80, 81
17, 252224, Note_off_c, 11, 80, 0
17, 252224, Note_on_c, 11, 85, 120
17, 252288, Note_off_c, 11, 85, 0
17, 252288, Note_on_c, 11, 89, 119
17, 252352, Note_off_c, 11, 89, 0
17, 252352, Note_on_c, 11, 85, 93
17, 252416, Note_off_c, 11, 85, 0
17, 252416, Note_on_c, 11, 77, 81
17, 252480, Note_off_c, 11, 77, 0
17, 252480, Note_on_c, 11, 80, 101
17, 252544, Note_off_c, 11, 80, 0
17, 252544, Note_on_c, 11, 86, 109
17, 252608, Note_off_c, 11, 86, 0
17, 252608, Note_on_c, 11, 83, 87
17, 252672, Note_off_c, 11, 83, 0
17, 252672, Note_on_c, 11, 77, 70
17, 252736, Note_off_c, 11, 77, 0
17, 252736, Note_on_c, 11, 74, 75
17, 252800, Note_off_c, 11, 74, 0
17, 252928, Note_on_c, 11, 80, 75
17, 252928, Note_on_c, 11, 92, 75
17, 253030, Note_off_c, 11, 80, 0
17, 253030, Note_on_c, 11, 80, 68
17, 253030, Note_on_c, 11, 89, 68
17, 253032, Note_off_c, 11, 92, 0
17, 253132, Note_on_c, 11, 73, 68
17, 253132, Note_on_c, 11, 81, 68
17, 253134, Note_off_c, 11, 80, 0
17, 253134, Note_off_c, 11, 89, 0
17, 253235, Note_on_c, 11, 74, 77
17, 253235, Note_on_c, 11, 85, 77
17, 253237, Note_off_c, 11, 73, 0
17, 253237, Note_off_c, 11, 81, 0
17, 253337, Note_on_c, 11, 81, 94
17, 253337, Note_on_c, 11, 89, 94
17, 253339, Note_off_c, 11, 74, 0
17, 253339, Note_off_c, 11, 85, 0
17, 253440, Note_on_c, 11, 77, 88
17, 253440, Note_on_c, 11, 85, 88
17, 253442, Note_off_c, 11, 81, 0
17, 253442, Note_off_c, 11, 89, 0
17, 253542, Note_off_c, 11, 77, 0
17, 253542, Note_on_c, 11, 68, 69
17, 253542, Note_on_c, 11, 77, 69
17, 253544, Note_off_c, 11, 85, 0
17, 253644, Note_on_c, 11, 73, 73
17, 253644, Note_on_c, 11, 81, 73
17, 253646, Note_off_c, 11, 68, 0
17, 253646, Note_off_c, 11, 77, 0
17, 253747, Note_on_c, 11, 77, 96
17, 253747, Note_on_c, 11, 86, 96
17, 253749, Note_off_c, 11, 73, 0
17, 253749, Note_off_c, 11, 81, 0
17, 253849, Note_on_c, 11, 73, 91
17, 253849, Note_on_c, 11, 83, 91
17, 253851, Note_off_c, 11, 77, 0
17, 253851, Note_off_c, 11, 86, 0
17, 253952, Note_on_c, 11, 68, 73
17, 253952, Note_on_c, 11, 77, 73
17, 253954, Note_off_c, 11, 73, 0
17, 253954, Note_off_c, 11, 83, 0
17, 254054, Note_off_c, 11, 68, 0
17, 254054, Note_on_c, 11, 61, 55
17, 254054, Note_on_c, 11, 68, 55
17, 254056, Note_off_c, 11, 77, 0
17, 254156, Note_on_c, 11, 62, 94
17, 254156, Note_on_c, 11, 73, 94
17, 254158, Note_off_c, 11, 61, 0
17, 254158, Note_off_c, 11, 68, 0
17, 254259, Note_on_c, 11, 68, 103
17, 254259, Note_on_c, 11, 77, 103
17, 254261, Note_off_c, 11, 62, 0
17, 254261, Note_off_c, 11, 73, 0
17, 254361, Note_on_c, 11, 65, 77
17, 254361, Note_on_c, 11, 73, 77
17, 254363, Note_off_c, 11, 68, 0
17, 254363, Note_off_c, 11, 77, 0
17, 254464, Note_on_c, 11, 61, 66
17, 254464, Note_on_c, 11, 71, 66
17, 254466, Note_off_c, 11, 65, 0
17, 254466, Note_off_c, 11, 73, 0
17, 254566, Note_on_c, 11, 56, 64
17, 254566, Note_on_c, 11, 65, 64
17, 254568, Note_off_c, 11, 61, 0
17, 254568, Note_off_c, 11, 71, 0
17, 254668, Note_off_c, 11, 56, 0
17, 254668, Note_on_c, 11, 49, 55
17, 254668, Note_on_c, 11, 56, 55
17, 254670, Note_off_c, 11, 65, 0
17, 254771, Note_on_c, 11, 50, 94
17, 254771, Note_on_c, 11, 61, 94
17, 254773, Note_off_c, 11, 49, 0
17, 254773, Note_off_c, 11, 56, 0
17, 254873, Note_on_c, 11, 56, 105
17, 254873, Note_on_c, 11, 65, 105
17, 254875, Note_off_c, 11, 50, 0
17, 254875, Note_off_c, 11, 61, 0
17, 254970, Note_off_c, 11, 56, 0
17, 254970, Note_off_c, 11, 65, 0
17, 355840, Note_on_c, 11, 84, 97
17, 355904, Note_off_c, 11, 84, 0
17, 355904, Note_on_c, 11, 72, 58
17, 355968, Note_off_c, 11, 72, 0
17, 355968, Note_on_c, 11, 79, 77
17, 356032, Note_off_c, 11, 79, 0
17, 356032, Note_on_c, 11, 78, 65
17, 356096, Note_off_c, 11, 78, 0
17, 356096, Note_on_c, 11, 84, 83
17, 356160, Note_off_c, 11, 84, 0
17, 356352, Note_on_c, 11, 84, 60
17, 356416, Note_off_c, 11, 84, 0
17, 356416, Note_on_c, 11, 78, 58
17, 356480, Note_off_c, 11, 78, 0
17, 356480, Note_on_c, 11, 79, 69
17, 356544, Note_off_c, 11, 79, 0
17, 356544, Note_on_c, 11, 80, 76
17, 356608, Note_off_c, 11, 80, 0
17, 356608, Note_on_c, 11, 84, 80
17, 356672, Note_off_c, 11, 84, 0
17, 356672, Note_on_c, 11, 72, 52
17, 356736, Note_off_c, 11, 72, 0
17, 356736, Note_on_c, 11, 79, 80
17, 356800, Note_off_c, 11, 79, 0
17, 356800, Note_on_c, 11, 78, 68
17, 356864, Note_off_c, 11, 78, 0
17, 356864, Note_on_c, 11, 84, 85
17, 356928, Note_off_c, 11, 84, 0
17, 356928, Note_on_c, 11, 80, 66
17, 356992, Note_off_c, 11, 80, 0
17, 356992, Note_on_c, 11, 79, 70
17, 357056, Note_off_c, 11, 79, 0
17, 357184, Note_on_c, 11, 78, 64
17, 357248, Note_off_c, 11, 78, 0
17, 357248, Note_on_c, 11, 79, 74
17, 357312, Note_off_c, 11, 79, 0
17, 357312, Note_on_c, 11, 80, 74
17, 357376, Note_off_c, 11, 80, 0
17, 357376, Note_on_c, 11, 84, 80
17, 357440, Note_off_c, 11, 84, 0
17, 357440, Note_on_c, 11, 72, 54
17, 357504, Note_off_c, 11, 72, 0
17, 357760, Note_on_c, 11, 79, 61
17, 357824, Note_off_c, 11, 79, 0
17, 357824, Note_on_c, 11, 72, 57
17, 357888, Note_off_c, 11, 72, 0
17, 357888, Note_on_c, 11, 84, 89
17, 357952, Note_off_c, 11, 84, 0
17, 357952, Note_on_c, 11, 78, 65
17, 358016, Note_off_c, 11, 78, 0
17, 358016, Note_on_c, 11, 79, 73
17, 358080, Note_off_c, 11, 79, 0
17, 358080, Note_on_c, 11, 80, 77
17, 358144, Note_off_c, 11, 80, 0
17, 358144, Note_on_c, 11, 84, 74
17, 358208, Note_off_c, 11, 84, 0
17, 358336, Note_on_c, 11, 78, 66
17, 358400, Note_off_c, 11, 78, 0
17, 358400, Note_on_c, 11, 84, 82
17, 358464, Note_off_c, 11, 84, 0
17, 358464, Note_on_c, 11, 80, 66
17, 358528, Note_off_c, 11, 80, 0
17, 358528, Note_on_c, 11, 79, 65
17, 358592, Note_off_c, 11, 79, 0
17, 358592, Note_on_c, 11, 73, 59
17, 358656, Note_off_c, 11, 73, 0
17, 358656, Note_on_c, 11, 84, 89
17, 358720, Note_off_c, 11, 84, 0
17, 358848, Note_on_c, 11, 80, 61
17, 358912, Note_off_c, 11, 80, 0
17, 358912, Note_on_c, 11, 84, 79
17, 358976, Note_off_c, 11, 84, 0
17, 358976, Note_on_c, 11, 73, 56
17, 359040, Note_off_c, 11, 73, 0
17, 359040, Note_on_c, 11, 79, 80
17, 359104, Note_off_c, 11, 79, 0
17, 359104, Note_on_c, 11, 78, 66
17, 359168, Note_off_c, 11, 78, 0
17, 359168, Note_on_c, 11, 84, 84
17, 359232, Note_off_c, 11, 84, 0
17, 359232, Note_on_c, 11, 80, 64
17, 359296, Note_off_c, 11, 80, 0
17, 359296, Note_on_c, 11, 79, 65
17, 359360, Note_off_c, 11, 79, 0
17, 359360, Note_on_c, 11, 73, 59
17, 359424, Note_off_c, 11, 73, 0
17, 359552, Note_on_c, 11, 79, 63
17, 359616, Note_off_c, 11, 79, 0
17, 359616, Note_on_c, 11, 80, 69
17, 359680, Note_off_c, 11, 80, 0
17, 359680, Note_on_c, 11, 84, 83
17, 359744, Note_off_c, 11, 84, 0
17, 359744, Note_on_c, 11, 73, 56
17, 359808, Note_off_c, 11, 73, 0
17, 359808, Note_on_c, 11, 79, 82
17, 359872, Note_off_c, 11, 79, 0
17, 359872, Note_on_c, 11, 78, 72
17, 359936, Note_off_c, 11, 78, 0
17, 359936, Note_on_c, 11, 84, 83
17, 360000, Note_off_c, 11, 84, 0
17, 360000, Note_on_c, 11, 80, 67
17, 360064, Note_off_c, 11, 80, 0
17, 360064, Note_on_c, 11, 88, 85
17, 360128, Note_off_c, 11, 88, 0
17, 360256, Note_on_c, 11, 75, 58
17, 360320, Note_off_c, 11, 75, 0
17, 360320, Note_on_c, 11, 82, 86
17, 360384, Note_off_c, 11, 82, 0
17, 360384, Note_on_c, 11, 76, 61
17, 360448, Note_off_c, 11, 76, 0
17, 360448, Note_on_c, 11, 90, 88
17, 360512, Note_off_c, 11, 90, 0
17, 360512, Note_on_c, 11, 73, 54
17, 360576, Note_off_c, 11, 73, 0
17, 360704, Note_on_c, 11, 82, 62
17, 360768, Note_off_c, 11, 82, 0
17, 360768, Note_on_c, 11, 76, 61
17, 360832, Note_off_c, 11, 76, 0
17, 360832, Note_on_c, 11, 88, 87
17, 360896, Note_off_c, 11, 88, 0
17, 360896, Note_on_c, 11, 73, 50
17, 360960, Note_off_c, 11, 73, 0
17, 360960, Note_on_c, 11, 79, 79
17, 361024, Note_off_c, 11, 79, 0
17, 361024, Note_on_c, 11, 75, 65
17, 361088, Note_off_c, 11, 75, 0
17, 361088, Note_on_c, 11, 82, 80
17, 361152, Note_off_c, 11, 82, 0
17, 361152, Note_on_c, 11, 76, 63
17, 361216, Note_off_c, 11, 76, 0
17, 361216, Note_on_c, 11, 90, 91
17, 361280, Note_off_c, 11, 90, 0
17, 361280, Note_on_c, 11, 73, 54
17, 361344, Note_off_c, 11, 73, 0
17, 361344, Note_on_c, 11, 79, 82
17, 361408, Note_off_c, 11, 79, 0
17, 361408, Note_on_c, 11, 75, 68
17, 361472, Note_off_c, 11, 75, 0
17, 361536, Note_on_c, 11, 76, 64
17, 361600, Note_off_c, 11, 76, 0
17, 361600, Note_on_c, 11, 88, 93
17, 361664, Note_off_c, 11, 88, 0
17, 361664, Note_on_c, 11, 73, 54
17, 361728, Note_off_c, 11, 73, 0
17, 361728, Note_on_c, 11, 79, 79
17, 361792, Note_off_c, 11, 79, 0
17, 361792, Note_on_c, 11, 75, 65
17, 361856, Note_off_c, 11, 75, 0
17, 361856, Note_on_c, 11, 82, 82
17, 361920, Note_off_c, 11, 82, 0
17, 361984, Note_on_c, 11, 90, 65
17, 362048, Note_off_c, 11, 90, 0
17, 362048, Note_on_c, 11, 73, 50
17, 362112, Note_off_c, 11, 73, 0
17, 362112, Note_on_c, 11, 79, 81
17, 362176, Note_off_c, 11, 79, 0
17, 362176, Note_on_c, 11, 75, 64
17, 362240, Note_off_c, 11, 75, 0
17, 362304, Note_on_c, 11, 76, 65
17, 362368, Note_off_c, 11, 76, 0
17, 362368, Note_on_c, 11, 88, 90
17, 362432, Note_off_c, 11, 88, 0
17, 362432, Note_on_c, 11, 73, 55
17, 362496, Note_off_c, 11, 73, 0
17, 362496, Note_on_c, 11, 79, 79
17, 362560, Note_off_c, 11, 79, 0
17, 362688, Note_on_c, 11, 76, 61
17, 362752, Note_off_c, 11, 76, 0
17, 362752, Note_on_c, 11, 90, 88
17, 362816, Note_off_c, 11, 90, 0
17, 362816, Note_on_c, 11, 72, 57
17, 362880, Note_off_c, 11, 72, 0
17, 362880, Note_on_c, 11, 79, 81
17, 362944, Note_off_c, 11, 79, 0
17, 363136, Note_on_c, 11, 88, 64
17, 363200, Note_off_c, 11, 88, 0
17, 363200, Note_on_c, 11, 72, 50
17, 363264, Note_off_c, 11, 72, 0
17, 363264, Note_on_c, 11, 79, 83
17, 363328, Note_off_c, 11, 79, 0
17, 363328, Note_on_c, 11, 75, 66
17, 363392, Note_off_c, 11, 75, 0
17, 363392, Note_on_c, 11, 82, 84
17, 363456, Note_off_c, 11, 82, 0
17, 363456, Note_on_c, 11, 76, 59
17, 363520, Note_off_c, 11, 76, 0
17, 363520, Note_on_c, 11, 90, 89
17, 363584, Note_off_c, 11, 90, 0
17, 363712, Note_on_c, 11, 75, 62
17, 363776, Note_off_c, 11, 75, 0
17, 363776, Note_on_c, 11, 82, 80
17, 363840, Note_off_c, 11, 82, 0
17, 363840, Note_on_c, 11, 76, 63
17, 363904, Note_off_c, 11, 76, 0
17, 363904, Note_on_c, 11, 88, 88
17, 363968, Note_off_c, 11, 88, 0
17, 364096, Note_on_c, 11, 75, 64
17, 364160, Note_off_c, 11, 75, 0
17, 364160, Note_on_c, 11, 82, 79
17, 364224, Note_off_c, 11, 82, 0
17, 364224, Note_on_c, 11, 76, 65
17, 364288, Note_off_c, 11, 76, 0
17, 364288, Note_on_c, 11, 90, 89
17, 364352, Note_off_c, 11, 90, 0
17, 364480, Note_on_c, 11, 75, 64
17, 364544, Note_off_c, 11, 75, 0
17, 364544, Note_on_c, 11, 82, 84
17, 364608, Note_off_c, 11, 82, 0
17, 364608, Note_on_c, 11, 76, 62
17, 364672, Note_off_c, 11, 76, 0
17, 364672, Note_on_c, 11, 88, 87
17, 364736, Note_off_c, 11, 88, 0
17, 364864, Note_on_c, 11, 75, 64
17, 364928, Note_off_c, 11, 75, 0
17, 364928, Note_on_c, 11, 82, 75
17, 364992, Note_off_c, 11, 82, 0
17, 364992, Note_on_c, 11, 76, 63
17, 365056, Note_off_c, 11, 76, 0
17, 365056, Note_on_c, 11, 90, 90
17, 365120, Note_off_c, 11, 90, 0
17, 365120, Note_on_c, 11, 72, 56
17, 365184, Note_off_c, 11, 72, 0
17, 365248, Note_on_c, 11, 75, 62
17, 365312, Note_off_c, 11, 75, 0
17, 365312, Note_on_c, 11, 82, 89
17, 365376, Note_off_c, 11, 82, 0
17, 365376, Note_on_c, 11, 79, 65
17, 365440, Note_off_c, 11, 79, 0
17, 365440, Note_on_c, 11, 93, 88
17, 365504, Note_off_c, 11, 93, 0
17, 365632, Note_on_c, 11, 78, 62
17, 365696, Note_off_c, 11, 78, 0
17, 365696, Note_on_c, 11, 85, 81
17, 365760, Note_off_c, 11, 85, 0
17, 365760, Note_on_c, 11, 79, 58
17, 365824, Note_off_c, 11, 79, 0
17, 365824, Note_on_c, 11, 91, 96
17, 365888, Note_off_c, 11, 91, 0
17, 366080, Note_on_c, 11, 85, 66
17, 366144, Note_off_c, 11, 85, 0
17, 366144, Note_on_c, 11, 79, 59
17, 366208, Note_off_c, 11, 79, 0
17, 366208, Note_on_c, 11, 93, 89
17, 366272, Note_off_c, 11, 93, 0
17, 366272, Note_on_c, 11, 73, 51
17, 366336, Note_off_c, 11, 73, 0
17, 366400, Note_on_c, 11, 78, 65
17, 366464, Note_off_c, 11, 78, 0
17, 366464, Note_on_c, 11, 85, 78
17, 366528, Note_off_c, 11, 85, 0
17, 366528, Note_on_c, 11, 79, 63
17, 366592, Note_off_c, 11, 79, 0
17, 366592, Note_on_c, 11, 91, 88
17, 366656, Note_off_c, 11, 91, 0
17, 366656, Note_on_c, 11, 73, 55
17, 366720, Note_off_c, 11, 73, 0
17, 366720, Note_on_c, 11, 81, 84
17, 366784, Note_off_c, 11, 81, 0
17, 366848, Note_on_c, 11, 85, 70
17, 366912, Note_off_c, 11, 85, 0
17, 366912, Note_on_c, 11, 79, 62
17, 366976, Note_off_c, 11, 79, 0
17, 366976, Note_on_c, 11, 95, 88
17, 367040, Note_off_c, 11, 95, 0
17, 367040, Note_on_c, 11, 73, 59
17, 367104, Note_off_c, 11, 73, 0
17, 367168, Note_on_c, 11, 78, 64
17, 367232, Note_off_c, 11, 78, 0
17, 367232, Note_on_c, 11, 85, 85
17, 367296, Note_off_c, 11, 85, 0
17, 367296, Note_on_c, 11, 79, 63
17, 367360, Note_off_c, 11, 79, 0
17, 367360, Note_on_c, 11, 91, 94
17, 367424, Note_off_c, 11, 91, 0
17, 367424, Note_on_c, 11, 73, 60
17, 367488, Note_off_c, 11, 73, 0
17, 367488, Note_on_c, 11, 81, 79
17, 367552, Note_off_c, 11, 81, 0
17, 367552, Note_on_c, 11, 78, 65
17, 367616, Note_off_c, 11, 78, 0
17, 367616, Note_on_c, 11, 85, 80
17, 367680, Note_off_c, 11, 85, 0
17, 367744, Note_on_c, 11, 93, 69
17, 367808, Note_off_c, 11, 93, 0
17, 367808, Note_on_c, 11, 73, 53
17, 367872, Note_off_c, 11, 73, 0
17, 367872, Note_on_c, 11, 81, 82
17, 367936, Note_off_c, 11, 81, 0
17, 368000, Note_on_c, 11, 85, 62
17, 368064, Note_off_c, 11, 85, 0
17, 368064, Note_on_c, 11, 79, 60
17, 368128, Note_off_c, 11, 79, 0
17, 368128, Note_on_c, 11, 91, 87
17, 368192, Note_off_c, 11, 91, 0
17, 368256, Note_on_c, 11, 81, 63
17, 368320, Note_off_c, 11, 81, 0
17, 368320, Note_on_c, 11, 78, 70
17, 368384, Note_off_c, 11, 78, 0
17, 383232, Note_on_c, 11, 67, 88
17, 383232, Note_on_c, 11, 75, 88
17, 383232, Note_on_c, 11, 79, 88
17, 383232, Note_on_c, 11, 82, 88
17, 383232, Note_on_c, 11, 87, 88
17, 383296, Note_off_c, 11, 67, 0
17, 383296, Note_off_c, 11, 75, 0
17, 383296, Note_off_c, 11, 79, 0
17, 383296, Note_off_c, 11, 82, 0
17, 383296, Note_off_c, 11, 87, 0
17, 383360, Note_on_c, 11, 67, 95
17, 383360, Note_on_c, 11, 75, 95
17, 383360, Note_on_c, 11, 79, 95
17, 383360, Note_on_c, 11, 82, 95
17, 383360, Note_on_c, 11, 87, 95
17, 383424, Note_off_c, 11, 67, 0
17, 383424, Note_off_c, 11, 75, 0
17, 383424, Note_off_c, 11, 79, 0
17, 383424, Note_off_c, 11, 82, 0
17, 383424, Note_off_c, 11, 87, 0
17, 383488, Note_on_c, 11, 67, 95
17, 383488, Note_on_c, 11, 75, 95
17, 383488, Note_on_c, 11, 79, 95
17, 383488, Note_on_c, 11, 82, 95
17, 383488, Note_on_c, 11, 87, 95
17, 383552, Note_off_c, 11, 67, 0
17, 383552, Note_off_c, 11, 75, 0
17, 383552, Note_off_c, 11, 79, 0
17, 383552, Note_off_c, 11, 82, 0
17, 383552, Note_off_c, 11, 87, 0
17, 383616, Note_on_c, 11, 67, 100
17, 383616, Note_on_c, 11, 75, 100
17, 383616, Note_on_c, 11, 79, 100
17, 383616, Note_on_c, 11, 82, 100
17, 383616, Note_on_c, 11, 87, 100
17, 383680, Note_off_c, 11, 67, 0
17, 383680, Note_off_c, 11, 75, 0
17, 383680, Note_off_c, 11, 79, 0
17, 383680, Note_off_c, 11, 82, 0
17, 383680, Note_off_c, 11, 87, 0
17, 383744, Note_on_c, 11, 67, 100
17, 383744, Note_on_c, 11, 75, 100
17, 383744, Note_on_c, 11, 79, 100
17, 383744, Note_on_c, 11, 82, 100
17, 383744, Note_on_c, 11, 87, 100
17, 383808, Note_off_c, 11, 67, 0
17, 383808, Note_off_c, 11, 75, 0
17, 383808, Note_off_c, 11, 79, 0
17, 383808, Note_off_c, 11, 82, 0
17, 383808, Note_off_c, 11, 87, 0
17, 383872, Note_on_c, 11, 67, 93
17, 383872, Note_on_c, 11, 75, 93
17, 383872, Note_on_c, 11, 79, 93
17, 383872, Note_on_c, 11, 82, 93
17, 383872, Note_on_c, 11, 87, 93
17, 383936, Note_off_c, 11, 67, 0
17, 383936, Note_off_c, 11, 75, 0
17, 383936, Note_off_c, 11, 79, 0
17, 383936, Note_off_c, 11, 82, 0
17, 383936, Note_off_c, 11, 87, 0
17, 384000, Note_on_c, 11, 67, 94
17, 384000, Note_on_c, 11, 75, 94
17, 384000, Note_on_c, 11, 79, 94
17, 384000, Note_on_c, 11, 82, 94
17, 384000, Note_on_c, 11, 87, 94
17, 384064, Note_off_c, 11, 67, 0
17, 384064, Note_off_c, 11, 75, 0
17, 384064, Note_off_c, 11, 79, 0
17, 384064, Note_off_c, 11, 82, 0
17, 384064, Note_off_c, 11, 87, 0
17, 384128, Note_on_c, 11, 67, 97
17, 384128, Note_on_c, 11, 75, 97
17, 384128, Note_on_c, 11, 79, 97
17, 384128, Note_on_c, 11, 82, 97
17, 384128, Note_on_c, 11, 87, 97
17, 384192, Note_off_c, 11, 67, 0
17, 384192, Note_off_c, 11, 75, 0
17, 384192, Note_off_c, 11, 79, 0
17, 384192, Note_off_c, 11, 82, 0
17, 384192, Note_off_c, 11, 87, 0
17, 384256, Note_on_c, 11, 67, 95
17, 384256, Note_on_c, 11, 75, 95
17, 384256, Note_on_c, 11, 79, 95
17, 384256, Note_on_c, 11, 82, 95
17, 384256, Note_on_c, 11, 87, 95
17, 384320, Note_off_c, 11, 67, 0
17, 384320, Note_off_c, 11, 75, 0
17, 384320, Note_off_c, 11, 79, 0
17, 384320, Note_off_c, 11, 82, 0
17, 384320, Note_off_c, 11, 87, 0
17, 384384, Note_on_c, 11, 67, 100
17, 384384, Note_on_c, 11, 75, 100
17, 384384, Note_on_c, 11, 79, 100
17, 384384, Note_on_c, 11, 82, 100
17, 384384, Note_on_c, 11, 87, 100
17, 384448, Note_off_c, 11, 67, 0
17, 384448, Note_off_c, 11, 75, 0
17, 384448, Note_off_c, 11, 79, 0
17, 384448, Note_off_c, 11, 82, 0
17, 384448, Note_off_c, 11, 87, 0
17, 384512, Note_on_c, 11, 67, 101
17, 384512, Note_on_c, 11, 75, 101
17, 384512, Note_on_c, 11, 79, 101
17, 384512, Note_on_c, 11, 82, 101
17, 384512, Note_on_c, 11, 87, 101
17, 384576, Note_off_c, 11, 67, 0
17, 384576, Note_off_c, 11, 75, 0
17, 384576, Note_off_c, 11, 79, 0
17, 384576, Note_off_c, 11, 82, 0
17, 384576, Note_off_c, 11, 87, 0
17, 384640, Note_on_c, 11, 67, 100
17, 384640, Note_on_c, 11, 75, 100
17, 384640, Note_on_c, 11, 79, 100
17, 384640, Note_on_c, 11, 82, 100
17, 384640, Note_on_c, 11, 87, 100
17, 384704, Note_off_c, 11, 67, 0
17, 384704, Note_off_c, 11, 75, 0
17, 384704, Note_off_c, 11, 79, 0
17, 384704, Note_off_c, 11, 82, 0
17, 384704, Note_off_c, 11, 87, 0
17, 384768, Note_on_c, 11, 67, 100
17, 384768, Note_on_c, 11, 75, 100
17, 384768, Note_on_c, 11, 79, 100
17, 384768, Note_on_c, 11, 82, 100
17, 384768, Note_on_c, 11, 87, 100
17, 384832, Note_off_c, 11, 67, 0
17, 384832, Note_off_c, 11, 75, 0
17, 384832, Note_off_c, 11, 79, 0
17, 384832, Note_off_c, 11, 82, 0
17, 384832, Note_off_c, 11, 87, 0
17, 384896, Note_on_c, 11, 67, 100
17, 384896, Note_on_c, 11, 75, 100
17, 384896, Note_on_c, 11, 79, 100
17, 384896, Note_on_c, 11, 82, 100
17, 384896, Note_on_c, 11, 87, 100
17, 384960, Note_off_c, 11, 67, 0
17, 384960, Note_off_c, 11, 75, 0
17, 384960, Note_off_c, 11, 79, 0
17, 384960, Note_off_c, 11, 82, 0
17, 384960, Note_off_c, 11, 87, 0
17, 385024, Note_on_c, 11, 67, 102
17, 385024, Note_on_c, 11, 75, 102
17, 385024, Note_on_c, 11, 79, 102
17, 385024, Note_on_c, 11, 82, 102
17, 385024, Note_on_c, 11, 87, 102
17, 385088, Note_off_c, 11, 67, 0
17, 385088, Note_off_c, 11, 75, 0
17, 385088, Note_off_c, 11, 79, 0
17, 385088, Note_off_c, 11, 82, 0
17, 385088, Note_off_c, 11, 87, 0
17, 385152, Note_on_c, 11, 67, 111
17, 385152, Note_on_c, 11, 75, 111
17, 385152, Note_on_c, 11, 79, 111
17, 385152, Note_on_c, 11, 82, 111
17, 385152, Note_on_c, 11, 87, 111
17, 385216, Note_off_c, 11, 67, 0
17, 385216, Note_off_c, 11, 75, 0
17, 385216, Note_off_c, 11, 79, 0
17, 385216, Note_off_c, 11, 82, 0
17, 385216, Note_off_c, 11, 87, 0
17, 385280, Note_on_c, 11, 67, 113
17, 385280, Note_on_c, 11, 75, 113
17, 385280, Note_on_c, 11, 79, 113
17, 385280, Note_on_c, 11, 82, 113
17, 385280, Note_on_c, 11, 87, 113
17, 385344, Note_off_c, 11, 67, 0
17, 385344, Note_off_c, 11, 75, 0
17, 385344, Note_off_c, 11, 79, 0
17, 385344, Note_off_c, 11, 82, 0
17, 385344, Note_off_c, 11, 87, 0
17, 385408, Note_on_c, 11, 67, 111
17, 385408, Note_on_c, 11, 75, 111
17, 385408, Note_on_c, 11, 79, 111
17, 385408, Note_on_c, 11, 82, 111
17, 385408, Note_on_c, 11, 87, 111
17, 385472, Note_off_c, 11, 67, 0
17, 385472, Note_off_c, 11, 75, 0
17, 385472, Note_off_c, 11, 79, 0
17, 385472, Note_off_c, 11, 82, 0
17, 385472, Note_off_c, 11, 87, 0
17, 386304, Note_on_c, 11, 67, 95
17, 386304, Note_on_c, 11, 75, 95
17, 386304, Note_on_c, 11, 79, 95
17, 386304, Note_on_c, 11, 82, 95
17, 386304, Note_on_c, 11, 87, 95
17, 386368, Note_off_c, 11, 67, 0
17, 386368, Note_off_c, 11, 75, 0
17, 386368, Note_off_c, 11, 79, 0
17, 386368, Note_off_c, 11, 82, 0
17, 386368, Note_off_c, 11, 87, 0
17, 386432, Note_on_c, 11, 67, 97
17, 386432, Note_on_c, 11, 75, 97
17, 386432, Note_on_c, 11, 79, 97
17, 386432, Note_on_c, 11, 82, 97
17, 386432, Note_on_c, 11, 87, 97
17, 386496, Note_off_c, 11, 67, 0
17, 386496, Note_off_c, 11, 75, 0
17, 386496, Note_off_c, 11, 79, 0
17, 386496, Note_off_c, 11, 82, 0
17, 386496, Note_off_c, 11, 87, 0
17, 386560, Note_on_c, 11, 67, 97
17, 386560, Note_on_c, 11, 75, 97
17, 386560, Note_on_c, 11, 79, 97
17, 386560, Note_on_c, 11, 82, 97
17, 386560, Note_on_c, 11, 87, 97
17, 386624, Note_off_c, 11, 67, 0
17, 386624, Note_off_c, 11, 75, 0
17, 386624, Note_off_c, 11, 79, 0
17, 386624, Note_off_c, 11, 82, 0
17, 386624, Note_off_c, 11, 87, 0
17, 386688, Note_on_c, 11, 67, 96
17, 386688, Note_on_c, 11, 75, 96
17, 386688, Note_on_c, 11, 79, 96
17, 386688, Note_on_c, 11, 82, 96
17, 386688, Note_on_c, 11, 87, 96
17, 386752, Note_off_c, 11, 67, 0
17, 386752, Note_off_c, 11, 75, 0
17, 386752, Note_off_c, 11, 79, 0
17, 386752, Note_off_c, 11, 82, 0
17, 386752, Note_off_c, 11, 87, 0
17, 386816, Note_on_c, 11, 67, 99
17, 386816, Note_on_c, 11, 75, 99
17, 386816, Note_on_c, 11, 79, 99
17, 386816, Note_on_c, 11, 82, 99
17, 386816, Note_on_c, 11, 87, 99
17, 386880, Note_off_c, 11, 67, 0
17, 386880, Note_off_c, 11, 75, 0
17, 386880, Note_off_c, 11, 79, 0
17, 386880, Note_off_c, 11, 82, 0
17, 386880, Note_off_c, 11, 87, 0
17, 386944, Note_on_c, 11, 67, 101
17, 386944, Note_on_c, 11, 75, 101
17, 386944, Note_on_c, 11, 79, 101
17, 386944, Note_on_c, 11, 82, 101
17, 386944, Note_on_c, 11, 87, 101
17, 387008, Note_off_c, 11, 67, 0
17, 387008, Note_off_c, 11, 75, 0
17, 387008, Note_off_c, 11, 79, 0
17, 387008, Note_off_c, 11, 82, 0
17, 387008, Note_off_c, 11, 87, 0
17, 387072, Note_on_c, 11, 67, 101
17, 387072, Note_on_c, 11, 75, 101
17, 387072, Note_on_c, 11, 79, 101
17, 387072, Note_on_c, 11, 82, 101
17, 387072, Note_on_c, 11, 87, 101
17, 387136, Note_off_c, 11, 67, 0
17, 387136, Note_off_c, 11, 75, 0
17, 387136, Note_off_c, 11, 79, 0
17, 387136, Note_off_c, 11, 82, 0
17, 387136, Note_off_c, 11, 87, 0
17, 387200, Note_on_c, 11, 67, 108
17, 387200, Note_on_c, 11, 75, 108
17, 387200, Note_on_c, 11, 79, 108
17, 387200, Note_on_c, 11, 82, 108
17, 387200, Note_on_c, 11, 87, 108
17, 387264, Note_off_c, 11, 67, 0
17, 387264, Note_off_c, 11, 75, 0
17, 387264, Note_off_c, 11, 79, 0
17, 387264, Note_off_c, 11, 82, 0
17, 387264, Note_off_c, 11, 87, 0
17, 387328, Note_on_c, 11, 67, 107
17, 387328, Note_on_c, 11, 75, 107
17, 387328, Note_on_c, 11, 79, 107
17, 387328, Note_on_c, 11, 82, 107
17, 387328, Note_on_c, 11, 87, 107
17, 387392, Note_off_c, 11, 67, 0
17, 387392, Note_off_c, 11, 75, 0
17, 387392, Note_off_c, 11, 79, 0
17, 387392, Note_off_c, 11, 82, 0
17, 387392, Note_off_c, 11, 87, 0
17, 387456, Note_on_c, 11, 67, 110
17, 387456, Note_on_c, 11, 75, 110
17, 387456, Note_on_c, 11, 79, 110
17, 387456, Note_on_c, 11, 82, 110
17, 387456, Note_on_c, 11, 87, 110
17, 387520, Note_off_c, 11, 67, 0
17, 387520, Note_off_c, 11, 75, 0
17, 387520, Note_off_c, 11, 79, 0
17, 387520, Note_off_c, 11, 82, 0
17, 387520, Note_off_c, 11, 87, 0
17, 388608, Note_on_c, 11, 67, 89
17, 388608, Note_on_c, 11, 75, 89
17, 388608, Note_on_c, 11, 79, 89
17, 388608, Note_on_c, 11, 82, 89
17, 388608, Note_on_c, 11, 87, 89
17, 388672, Note_off_c, 11, 67, 0
17, 388672, Note_off_c, 11, 75, 0
17, 388672, Note_off_c, 11, 79, 0
17, 388672, Note_off_c, 11, 82, 0
17, 388672, Note_off_c, 11, 87, 0
17, 388736, Note_on_c, 11, 67, 96
17, 388736, Note_on_c, 11, 75, 96
17, 388736, Note_on_c, 11, 79, 96
17, 388736, Note_on_c, 11, 82, 96
17, 388736, Note_on_c, 11, 87, 96
17, 388800, Note_off_c, 11, 67, 0
17, 388800, Note_off_c, 11, 75, 0
17, 388800, Note_off_c, 11, 79, 0
17, 388800, Note_off_c, 11, 82, 0
17, 388800, Note_off_c, 11, 87, 0
17, 388864, Note_on_c, 11, 67, 100
17, 388864, Note_on_c, 11, 75, 100
17, 388864, Note_on_c, 11, 79, 100
17, 388864, Note_on_c, 11, 82, 100
17, 388864, Note_on_c, 11, 87, 100
17, 388928, Note_off_c, 11, 67, 0
17, 388928, Note_off_c, 11, 75, 0
17, 388928, Note_off_c, 11, 79, 0
17, 388928, Note_off_c, 11, 82, 0
17, 388928, Note_off_c, 11, 87, 0
17, 388992, Note_on_c, 11, 67, 98
17, 388992, Note_on_c, 11, 75, 98
17, 388992, Note_on_c, 11, 79, 98
17, 388992, Note_on_c, 11, 82, 98
17, 388992, Note_on_c, 11, 87, 98
17, 389056, Note_off_c, 11, 67, 0
17, 389056, Note_off_c, 11, 75, 0
17, 389056, Note_off_c, 11, 79, 0
17, 389056, Note_off_c, 11, 82, 0
17, 389056, Note_off_c, 11, 87, 0
17, 389120, Note_on_c, 11, 67, 101
17, 389120, Note_on_c, 11, 75, 101
17, 389120, Note_on_c, 11, 79, 101
17, 389120, Note_on_c, 11, 82, 101
17, 389120, Note_on_c, 11, 87, 101
17, 389184, Note_off_c, 11, 67, 0
17, 389184, Note_off_c, 11, 75, 0
17, 389184, Note_off_c, 11, 79, 0
17, 389184, Note_off_c, 11, 82, 0
17, 389184, Note_off_c, 11, 87, 0
17, 389248, Note_on_c, 11, 67, 93
17, 389248, Note_on_c, 11, 75, 93
17, 389248, Note_on_c, 11, 79, 93
17, 389248, Note_on_c, 11, 82, 93
17, 389248, Note_on_c, 11, 87, 93
17, 389312, Note_off_c, 11, 67, 0
17, 389312, Note_off_c, 11, 75, 0
17, 389312, Note_off_c, 11, 79, 0
17, 389312, Note_off_c, 11, 82, 0
17, 389312, Note_off_c, 11, 87, 0
17, 389376, Note_on_c, 11, 67, 99
17, 389376, Note_on_c, 11, 75, 99
17, 389376, Note_on_c, 11, 79, 99
17, 389376, Note_on_c, 11, 82, 99
17, 389376, Note_on_c, 11, 87, 99
17, 389440, Note_off_c, 11, 67, 0
17, 389440, Note_off_c, 11, 75, 0
17, 389440, Note_off_c, 11, 79, 0
17, 389440, Note_off_c, 11, 82, 0
17, 389440, Note_off_c, 11, 87, 0
17, 389504, Note_on_c, 11, 67, 99
17, 389504, Note_on_c, 11, 75, 99
17, 389504, Note_on_c, 11, 79, 99
17, 389504, Note_on_c, 11, 82, 99
17, 389504, Note_on_c, 11, 87, 99
17, 389568, Note_off_c, 11, 67, 0
17, 389568, Note_off_c, 11, 75, 0
17, 389568, Note_off_c, 11, 79, 0
17, 389568, Note_off_c, 11, 82, 0
17, 389568, Note_off_c, 11, 87, 0
17, 389632, Note_on_c, 11, 67, 101
17, 389632, Note_on_c, 11, 75, 101
17, 389632, Note_on_c, 11, 79, 101
17, 389632, Note_on_c, 11, 82, 101
17, 389632, Note_on_c, 11, 87, 101
17, 389696, Note_off_c, 11, 67, 0
17, 389696, Note_off_c, 11, 75, 0
17, 389696, Note_off_c, 11, 79, 0
17, 389696, Note_off_c, 11, 82, 0
17, 389696, Note_off_c, 11, 87, 0
17, 389760, Note_on_c, 11, 67, 107
17, 389760, Note_on_c, 11, 75, 107
17, 389760, Note_on_c, 11, 79, 107
17, 389760, Note_on_c, 11, 82, 107
17, 389760, Note_on_c, 11, 87, 107
17, 389824, Note_off_c, 11, 67, 0
17, 389824, Note_off_c, 11, 75, 0
17, 389824, Note_off_c, 11, 79, 0
17, 389824, Note_off_c, 11, 82, 0
17, 389824, Note_off_c, 11, 87, 0
17, 389888, Note_on_c, 11, 67, 109
17, 389888, Note_on_c, 11, 75, 109
17, 389888, Note_on_c, 11, 79, 109
17, 389888, Note_on_c, 11, 82, 109
17, 389888, Note_on_c, 11, 87, 109
17, 389952, Note_off_c, 11, 67, 0
17, 389952, Note_off_c, 11, 75, 0
17, 389952, Note_off_c, 11, 79, 0
17, 389952, Note_off_c, 11, 82, 0
17, 389952, Note_off_c, 11, 87, 0
17, 390016, Note_on_c, 11, 67, 112
17, 390016, Note_on_c, 11, 75, 112
17, 390016, Note_on_c, 11, 79, 112
17, 390016, Note_on_c, 11, 82, 112
17, 390016, Note_on_c, 11, 87, 112
17, 390080, Note_off_c, 11, 67, 0
17, 390080, Note_off_c, 11, 75, 0
17, 390080, Note_off_c, 11, 79, 0
17, 390080, Note_off_c, 11, 82, 0
17, 390080, Note_off_c, 11, 87, 0
17, 390656, Note_on_c, 11, 67, 87
17, 390656, Note_on_c, 11, 75, 87
17, 390656, Note_on_c, 11, 79, 87
17, 390656, Note_on_c, 11, 82, 87
17, 390656, Note_on_c, 11, 87, 87
17, 390720, Note_off_c, 11, 67, 0
17, 390720, Note_off_c, 11, 75, 0
17, 390720, Note_off_c, 11, 79, 0
17, 390720, Note_off_c, 11, 82, 0
17, 390720, Note_off_c, 11, 87, 0
17, 390784, Note_on_c, 11, 67, 97
17, 390784, Note_on_c, 11, 75, 97
17, 390784, Note_on_c, 11, 79, 97
17, 390784, Note_on_c, 11, 82, 97
17, 390784, Note_on_c, 11, 87, 97
17, 390848, Note_off_c, 11, 67, 0
17, 390848, Note_off_c, 11, 75, 0
17, 390848, Note_off_c, 11, 79, 0
17, 390848, Note_off_c, 11, 82, 0
17, 390848, Note_off_c, 11, 87, 0
17, 390912, Note_on_c, 11, 70, 112
17, 390912, Note_on_c, 11, 75, 112
17, 390912, Note_on_c, 11, 77, 112
17, 390912, Note_on_c, 11, 79, 112
17, 390912, Note_on_c, 11, 82, 112
17, 390912, Note_on_c, 11, 87, 112
17, 390912, Note_on_c, 11, 91, 112
17, 390976, Note_off_c, 11, 70, 0
17, 390976, Note_off_c, 11, 75, 0
17, 390976, Note_off_c, 11, 77, 0
17, 390976, Note_off_c, 11, 79, 0
17, 390976, Note_off_c, 11, 82, 0
17, 390976, Note_off_c, 11, 87, 0
17, 390976, Note_off_c, 11, 91, 0
17, 391040, Note_on_c, 11, 67, 90
17, 391040, Note_on_c, 11, 75, 90
17, 391040, Note_on_c, 11, 79, 90
17, 391040, Note_on_c, 11, 82, 90
17, 391040, Note_on_c, 11, 87, 90
17, 391104, Note_off_c, 11, 67, 0
17, 391104, Note_off_c, 11, 75, 0
17, 391104, Note_off_c, 11, 79, 0
17, 391104, Note_off_c, 11, 82, 0
17, 391104, Note_off_c, 11, 87, 0
17, 391168, Note_on_c, 11, 67, 97
17, 391168, Note_on_c, 11, 75, 97
17, 391168, Note_on_c, 11, 79, 97
17, 391168, Note_on_c, 11, 82, 97
17, 391168, Note_on_c, 11, 87, 97
17, 391232, Note_off_c, 11, 67, 0
17, 391232, Note_off_c, 11, 75, 0
17, 391232, Note_off_c, 11, 79, 0
17, 391232, Note_off_c, 11, 82, 0
17, 391232, Note_off_c, 11, 87, 0
17, 391296, Note_on_c, 11, 70, 111
17, 391296, Note_on_c, 11, 75, 111
17, 391296, Note_on_c, 11, 77, 111
17, 391296, Note_on_c, 11, 79, 111
17, 391296, Note_on_c, 11, 82, 111
17, 391296, Note_on_c, 11, 87, 111
17, 391296, Note_on_c, 11, 91, 111
17, 391360, Note_off_c, 11, 70, 0
17, 391360, Note_off_c, 11, 75, 0
17, 391360, Note_off_c, 11, 77, 0
17, 391360, Note_off_c, 11, 79, 0
17, 391360, Note_off_c, 11, 82, 0
17, 391360, Note_off_c, 11, 87, 0
17, 391360, Note_off_c, 11, 91, 0
17, 391424, Note_on_c, 11, 67, 88
17, 391424, Note_on_c, 11, 75, 88
17, 391424, Note_on_c, 11, 79, 88
17, 391424, Note_on_c, 11, 82, 88
17, 391424, Note_on_c, 11, 87, 88
17, 391488, Note_off_c, 11, 67, 0
17, 391488, Note_off_c, 11, 75, 0
17, 391488, Note_off_c, 11, 79, 0
17, 391488, Note_off_c, 11, 82, 0
17, 391488, Note_off_c, 11, 87, 0
17, 391552, Note_on_c, 11, 67, 96
17, 391552, Note_on_c, 11, 75, 96
17, 391552, Note_on_c, 11, 79, 96
17, 391552, Note_on_c, 11, 82, 96
17, 391552, Note_on_c, 11, 87, 96
17, 391616, Note_off_c, 11, 67, 0
17, 391616, Note_off_c, 11, 75, 0
17, 391616, Note_off_c, 11, 79, 0
17, 391616, Note_off_c, 11, 82, 0
17, 391616, Note_off_c, 11, 87, 0
17, 391680, Note_on_c, 11, 70, 113
17, 391680, Note_on_c, 11, 75, 113
17, 391680, Note_on_c, 11, 77, 113
17, 391680, Note_on_c, 11, 79, 113
17, 391680, Note_on_c, 11, 82, 113
17, 391680, Note_on_c, 11, 87, 113
17, 391680, Note_on_c, 11, 91, 113
17, 391744, Note_off_c, 11, 70, 0
17, 391744, Note_off_c, 11, 75, 0
17, 391744, Note_off_c, 11, 77, 0
17, 391744, Note_off_c, 11, 79, 0
17, 391744, Note_off_c, 11, 82, 0
17, 391744, Note_off_c, 11, 87, 0
17, 391744, Note_off_c, 11, 91, 0
17, 391808, Note_on_c, 11, 67, 87
17, 391808, Note_on_c, 11, 75, 87
17, 391808, Note_on_c, 11, 79, 87
17, 391808, Note_on_c, 11, 82, 87
17, 391808, Note_on_c, 11, 87, 87
17, 391872, Note_off_c, 11, 67, 0
17, 391872, Note_off_c, 11, 75, 0
17, 391872, Note_off_c, 11, 79, 0
17, 391872, Note_off_c, 11, 82, 0
17, 391872, Note_off_c, 11, 87, 0
17, 391936, Note_on_c, 11, 67, 99
17, 391936, Note_on_c, 11, 75, 99
17, 391936, Note_on_c, 11, 79, 99
17, 391936, Note_on_c, 11, 82, 99
17, 391936, Note_on_c, 11, 87, 99
17, 392000, Note_off_c, 11, 67, 0
17, 392000, Note_off_c, 11, 75, 0
17, 392000, Note_off_c, 11, 79, 0
17, 392000, Note_off_c, 11, 82, 0
17, 392000, Note_off_c, 11, 87, 0
17, 392064, Note_on_c, 11, 70, 113
17, 392064, Note_on_c, 11, 75, 113
17, 392064, Note_on_c, 11, 77, 113
17, 392064, Note_on_c, 11, 79, 113
17, 392064, Note_on_c, 11, 82, 113
17, 392064, Note_on_c, 11, 87, 113
17, 392064, Note_on_c, 11, 91, 113
17, 392128, Note_off_c, 11, 70, 0
17, 392128, Note_off_c, 11, 75, 0
17, 392128, Note_off_c, 11, 77, 0
17, 392128, Note_off_c, 11, 79, 0
17, 392128, Note_off_c, 11, 82, 0
17, 392128, Note_off_c, 11, 87, 0
17, 392128, Note_off_c, 11, 91, 0
17, 392192, Note_on_c, 11, 67, 94
17, 392192, Note_on_c, 11, 75, 94
17, 392192, Note_on_c, 11, 79, 94
17, 392192, Note_on_c, 11, 82, 94
17, 392192, Note_on_c, 11, 87, 94
17, 392256, Note_off_c, 11, 67, 0
17, 392256, Note_off_c, 11, 75, 0
17, 392256, Note_off_c, 11, 79, 0
17, 392256, Note_off_c, 11, 82, 0
17, 392256, Note_off_c, 11, 87, 0
17, 392320, Note_on_c, 11, 67, 101
17, 392320, Note_on_c, 11, 75, 101
17, 392320, Note_on_c, 11, 79, 101
17, 392320, Note_on_c, 11, 82, 101
17, 392320, Note_on_c, 11, 87, 101
17, 392384, Note_off_c, 11, 67, 0
17, 392384, Note_off_c, 11, 75, 0
17, 392384, Note_off_c, 11, 79, 0
17, 392384, Note_off_c, 11, 82, 0
17, 392384, Note_off_c, 11, 87, 0
17, 392448, Note_on_c, 11, 70, 114
17, 392448, Note_on_c, 11, 75, 114
17, 392448, Note_on_c, 11, 77, 114
17, 392448, Note_on_c, 11, 79, 114
17, 392448, Note_on_c, 11, 82, 114
17, 392448, Note_on_c, 11, 87, 114
17, 392448, Note_on_c, 11, 91, 114
17, 392512, Note_off_c, 11, 70, 0
17, 392512, Note_off_c, 11, 75, 0
17, 392512, Note_off_c, 11, 77, 0
17, 392512, Note_off_c, 11, 79, 0
17, 392512, Note_off_c, 11, 82, 0
17, 392512, Note_off_c, 11, 87, 0
17, 392512, Note_off_c, 11, 91, 0
17, 392576, Note_on_c, 11, 67, 99
17, 392576, Note_on_c, 11, 75, 99
17, 392576, Note_on_c, 11, 79, 99
17, 392576, Note_on_c, 11, 82, 99
17, 392576, Note_on_c, 11, 87, 99
17, 392640, Note_off_c, 11, 67, 0
17, 392640, Note_off_c, 11, 75, 0
17, 392640, Note_off_c, 11, 79, 0
17, 392640, Note_off_c, 11, 82, 0
17, 392640, Note_off_c, 11, 87, 0
17, 392704, Note_on_c, 11, 67, 106
17, 392704, Note_on_c, 11, 75, 106
17, 392704, Note_on_c, 11, 79, 106
17, 392704, Note_on_c, 11, 82, 106
17, 392704, Note_on_c, 11, 87, 106
17, 392768, Note_off_c, 11, 67, 0
17, 392768, Note_off_c, 11, 75, 0
17, 392768, Note_off_c, 11, 79, 0
17, 392768, Note_off_c, 11, 82, 0
17, 392768, Note_off_c, 11, 87, 0
17, 392832, Note_on_c, 11, 70, 119
17, 392832, Note_on_c, 11, 75, 119
17, 392832, Note_on_c, 11, 77, 119
17, 392832, Note_on_c, 11, 79, 119
17, 392832, Note_on_c, 11, 82, 119
17, 392832, Note_on_c, 11, 87, 119
17, 392832, Note_on_c, 11, 91, 119
17, 392896, Note_off_c, 11, 70, 0
17, 392896, Note_off_c, 11, 75, 0
17, 392896, Note_off_c, 11, 77, 0
17, 392896, Note_off_c, 11, 79, 0
17, 392896, Note_off_c, 11, 82, 0
17, 392896, Note_off_c, 11, 87, 0
17, 392896, Note_off_c, 11, 91, 0
17, 392960, Note_on_c, 11, 70, 109
17, 392960, Note_on_c, 11, 75, 109
17, 392960, Note_on_c, 11, 77, 109
17, 392960, Note_on_c, 11, 79, 109
17, 392960, Note_on_c, 11, 82, 109
17, 392960, Note_on_c, 11, 87, 109
17, 392960, Note_on_c, 11, 91, 109
17, 393024, Note_off_c, 11, 70, 0
17, 393024, Note_off_c, 11, 75, 0
17, 393024, Note_off_c, 11, 77, 0
17, 393024, Note_off_c, 11, 79, 0
17, 393024, Note_off_c, 11, 82, 0
17, 393024, Note_off_c, 11, 87, 0
17, 393024, Note_off_c, 11, 91, 0
17, 393088, Note_on_c, 11, 67, 99
17, 393088, Note_on_c, 11, 75, 99
17, 393088, Note_on_c, 11, 79, 99
17, 393088, Note_on_c, 11, 82, 99
17, 393088, Note_on_c, 11, 87, 99
17, 393152, Note_off_c, 11, 67, 0
17, 393152, Note_off_c, 11, 75, 0
17, 393152, Note_off_c, 11, 79, 0
17, 393152, Note_off_c, 11, 82, 0
17, 393152, Note_off_c, 11, 87, 0
17, 393472, Note_on_c, 11, 67, 97
17, 393472, Note_on_c, 11, 70, 97
17, 393472, Note_on_c, 11, 75, 97
17, 393472, Note_on_c, 11, 79, 97
17, 393472, Note_on_c, 11, 82, 97
17, 393472, Note_on_c, 11, 87, 97
17, 393536, Note_off_c, 11, 67, 0
17, 393536, Note_off_c, 11, 70, 0
17, 393536, Note_off_c, 11, 75, 0
17, 393536, Note_off_c, 11, 79, 0
17, 393536, Note_off_c, 11, 82, 0
17, 393536, Note_off_c, 11, 87, 0
17, 393600, Note_on_c, 11, 67, 111
17, 393600, Note_on_c, 11, 70, 111
17, 393600, Note_on_c, 11, 75, 111
17, 393600, Note_on_c, 11, 79, 111
17, 393600, Note_on_c, 11, 82, 111
17, 393600, Note_on_c, 11, 87, 111
17, 393664, Note_off_c, 11, 67, 0
17, 393664, Note_off_c, 11, 70, 0
17, 393664, Note_off_c, 11, 75, 0
17, 393664, Note_off_c, 11, 79, 0
17, 393664, Note_off_c, 11, 82, 0
17, 393664, Note_off_c, 11, 87, 0
17, 393728, Note_on_c, 11, 70, 127
17, 393728, Note_on_c, 11, 76, 127
17, 393728, Note_on_c, 11, 79, 127
17, 393728, Note_on_c, 11, 82, 127
17, 393728, Note_on_c, 11, 87, 127
17, 393728, Note_on_c, 11, 91, 127
17, 393792, Note_off_c, 11, 70, 0
17, 393792, Note_off_c, 11, 76, 0
17, 393792, Note_off_c, 11, 79, 0
17, 393792, Note_off_c, 11, 82, 0
17, 393792, Note_off_c, 11, 87, 0
17, 393792, Note_off_c, 11, 91, 0
17, 393856, Note_on_c, 11, 67, 104
17, 393856, Note_on_c, 11, 70, 104
17, 393856, Note_on_c, 11, 75, 104
17, 393856, Note_on_c, 11, 79, 104
17, 393856, Note_on_c, 11, 82, 104
17, 393856, Note_on_c, 11, 87, 104
17, 393920, Note_off_c, 11, 67, 0
17, 393920, Note_off_c, 11, 70, 0
17, 393920, Note_off_c, 11, 75, 0
17, 393920, Note_off_c, 11, 79, 0
17, 393920, Note_off_c, 11, 82, 0
17, 393920, Note_off_c, 11, 87, 0
17, 393984, Note_on_c, 11, 67, 110
17, 393984, Note_on_c, 11, 70, 110
17, 393984, Note_on_c, 11, 75, 110
17, 393984, Note_on_c, 11, 79, 110
17, 393984, Note_on_c, 11, 82, 110
17, 393984, Note_on_c, 11, 87, 110
17, 394048, Note_off_c, 11, 67, 0
17, 394048, Note_off_c, 11, 70, 0
17, 394048, Note_off_c, 11, 75, 0
17, 394048, Note_off_c, 11, 79, 0
17, 394048, Note_off_c, 11, 82, 0
17, 394048, Note_off_c, 11, 87, 0
17, 394112, Note_on_c, 11, 70, 127
17, 394112, Note_on_c, 11, 76, 127
17, 394112, Note_on_c, 11, 79, 127
17, 394112, Note_on_c, 11, 82, 127
17, 394112, Note_on_c, 11, 87, 127
17, 394112, Note_on_c, 11, 91, 127
17, 394176, Note_off_c, 11, 70, 0
17, 394176, Note_off_c, 11, 76, 0
17, 394176, Note_off_c, 11, 79, 0
17, 394176, Note_off_c, 11, 82, 0
17, 394176, Note_off_c, 11, 87, 0
17, 394176, Note_off_c, 11, 91, 0
17, 394240, Note_on_c, 11, 67, 94
17, 394240, Note_on_c, 11, 70, 94
17, 394240, Note_on_c, 11, 75, 94
17, 394240, Note_on_c, 11, 79, 94
17, 394240, Note_on_c, 11, 82, 94
17, 394240, Note_on_c, 11, 87, 94
17, 394304, Note_off_c, 11, 67, 0
17, 394304, Note_off_c, 11, 70, 0
17, 394304, Note_off_c, 11, 75, 0
17, 394304, Note_off_c, 11, 79, 0
17, 394304, Note_off_c, 11, 82, 0
17, 394304, Note_off_c, 11, 87, 0
17, 394368, Note_on_c, 11, 67, 113
17, 394368, Note_on_c, 11, 70, 113
17, 394368, Note_on_c, 11, 75, 113
17, 394368, Note_on_c, 11, 79, 113
17, 394368, Note_on_c, 11, 82, 113
17, 394368, Note_on_c, 11, 87, 113
17, 394432, Note_off_c, 11, 67, 0
17, 394432, Note_off_c, 11, 70, 0
17, 394432, Note_off_c, 11, 75, 0
17, 394432, Note_off_c, 11, 79, 0
17, 394432, Note_off_c, 11, 82, 0
17, 394432, Note_off_c, 11, 87, 0
17, 394496, Note_on_c, 11, 70, 125
17, 394496, Note_on_c, 11, 76, 125
17, 394496, Note_on_c, 11, 79, 125
17, 394496, Note_on_c, 11, 82, 125
17, 394496, Note_on_c, 11, 87, 125
17, 394496, Note_on_c, 11, 91, 125
17, 394560, Note_off_c, 11, 70, 0
17, 394560, Note_off_c, 11, 76, 0
17, 394560, Note_off_c, 11, 79, 0
17, 394560, Note_off_c, 11, 82, 0
17, 394560, Note_off_c, 11, 87, 0
17, 394560, Note_off_c, 11, 91, 0
17, 394624, Note_on_c, 11, 67, 102
17, 394624, Note_on_c, 11, 70, 102
17, 394624, Note_on_c, 11, 75, 102
17, 394624, Note_on_c, 11, 79, 102
17, 394624, Note_on_c, 11, 82, 102
17, 394624, Note_on_c, 11, 87, 102
17, 394688, Note_off_c, 11, 67, 0
17, 394688, Note_off_c, 11, 70, 0
17, 394688, Note_off_c, 11, 75, 0
17, 394688, Note_off_c, 11, 79, 0
17, 394688, Note_off_c, 11, 82, 0
17, 394688, Note_off_c, 11, 87, 0
17, 394752, Note_on_c, 11, 67, 112
17, 394752, Note_on_c, 11, 70, 112
17, 394752, Note_on_c, 11, 75, 112
17, 394752, Note_on_c, 11, 79, 112
17, 394752, Note_on_c, 11, 82, 112
17, 394752, Note_on_c, 11, 87, 112
17, 394816, Note_off_c, 11, 67, 0
17, 394816, Note_off_c, 11, 70, 0
17, 394816, Note_off_c, 11, 75, 0
17, 394816, Note_off_c, 11, 79, 0
17, 394816, Note_off_c, 11, 82, 0
17, 394816, Note_off_c, 11, 87, 0
17, 394880, Note_on_c, 11, 70, 125
17, 394880, Note_on_c, 11, 76, 125
17, 394880, Note_on_c, 11, 79, 125
17, 394880, Note_on_c, 11, 82, 125
17, 394880, Note_on_c, 11, 87, 125
17, 394880, Note_on_c, 11, 91, 125
17, 394944, Note_off_c, 11, 70, 0
17, 394944, Note_off_c, 11, 76, 0
17, 394944, Note_off_c, 11, 79, 0
17, 394944, Note_off_c, 11, 82, 0
17, 394944, Note_off_c, 11, 87, 0
17, 394944, Note_off_c, 11, 91, 0
17, 395264, Note_on_c, 11, 67, 103
17, 395264, Note_on_c, 11, 70, 103
17, 395264, Note_on_c, 11, 75, 103
17, 395264, Note_on_c, 11, 79, 103
17, 395264, Note_on_c, 11, 82, 103
17, 395264, Note_on_c, 11, 87, 103
17, 395328, Note_off_c, 11, 67, 0
17, 395328, Note_off_c, 11, 70, 0
17, 395328, Note_off_c, 11, 75, 0
17, 395328, Note_off_c, 11, 79, 0
17, 395328, Note_off_c, 11, 82, 0
17, 395328, Note_off_c, 11, 87, 0
17, 395392, Note_on_c, 11, 67, 109
17, 395392, Note_on_c, 11, 70, 109
17, 395392, Note_on_c, 11, 75, 109
17, 395392, Note_on_c, 11, 79, 109
17, 395392, Note_on_c, 11, 82, 109
17, 395392, Note_on_c, 11, 87, 109
17, 395456, Note_off_c, 11, 67, 0
17, 395456, Note_off_c, 11, 70, 0
17, 395456, Note_off_c, 11, 75, 0
17, 395456, Note_off_c, 11, 79, 0
17, 395456, Note_off_c, 11, 82, 0
17, 395456, Note_off_c, 11, 87, 0
17, 395520, Note_on_c, 11, 70, 123
17, 395520, Note_on_c, 11, 76, 123
17, 395520, Note_on_c, 11, 79, 123
17, 395520, Note_on_c, 11, 82, 123
17, 395520, Note_on_c, 11, 87, 123
17, 395520, Note_on_c, 11, 91, 123
17, 395584, Note_off_c, 11, 70, 0
17, 395584, Note_off_c, 11, 76, 0
17, 395584, Note_off_c, 11, 79, 0
17, 395584, Note_off_c, 11, 82, 0
17, 395584, Note_off_c, 11, 87, 0
17, 395584, Note_off_c, 11, 91, 0
17, 395648, Note_on_c, 11, 67, 102
17, 395648, Note_on_c, 11, 70, 102
17, 395648, Note_on_c, 11, 75, 102
17, 395648, Note_on_c, 11, 79, 102
17, 395648, Note_on_c, 11, 82, 102
17, 395648, Note_on_c, 11, 87, 102
17, 395712, Note_off_c, 11, 67, 0
17, 395712, Note_off_c, 11, 70, 0
17, 395712, Note_off_c, 11, 75, 0
17, 395712, Note_off_c, 11, 79, 0
17, 395712, Note_off_c, 11, 82, 0
17, 395712, Note_off_c, 11, 87, 0
17, 395904, Note_on_c, 11, 70, 104
17, 395904, Note_on_c, 11, 76, 104
17, 395904, Note_on_c, 11, 79, 104
17, 395904, Note_on_c, 11, 82, 104
17, 395904, Note_on_c, 11, 87, 104
17, 395904, Note_on_c, 11, 91, 104
17, 395968, Note_off_c, 11, 70, 0
17, 395968, Note_off_c, 11, 76, 0
17, 395968, Note_off_c, 11, 79, 0
17, 395968, Note_off_c, 11, 82, 0
17, 395968, Note_off_c, 11, 87, 0
17, 395968, Note_off_c, 11, 91, 0
17, 396032, Note_on_c, 11, 67, 103
17, 396032, Note_on_c, 11, 70, 103
17, 396032, Note_on_c, 11, 75, 103
17, 396032, Note_on_c, 11, 79, 103
17, 396032, Note_on_c, 11, 82, 103
17, 396032, Note_on_c, 11, 87, 103
17, 396096, Note_off_c, 11, 67, 0
17, 396096, Note_off_c, 11, 70, 0
17, 396096, Note_off_c, 11, 75, 0
17, 396096, Note_off_c, 11, 79, 0
17, 396096, Note_off_c, 11, 82, 0
17, 396096, Note_off_c, 11, 87, 0
17, 396288, Note_on_c, 11, 70, 104
17, 396288, Note_on_c, 11, 76, 104
17, 396288, Note_on_c, 11, 79, 104
17, 396288, Note_on_c, 11, 82, 104
17, 396288, Note_on_c, 11, 87, 104
17, 396288, Note_on_c, 11, 91, 104
17, 396352, Note_off_c, 11, 70, 0
17, 396352, Note_off_c, 11, 76, 0
17, 396352, Note_off_c, 11, 79, 0
17, 396352, Note_off_c, 11, 82, 0
17, 396352, Note_off_c, 11, 87, 0
17, 396352, Note_off_c, 11, 91, 0
17, 396416, Note_on_c, 11, 67, 98
17, 396416, Note_on_c, 11, 70, 98
17, 396416, Note_on_c, 11, 75, 98
17, 396416, Note_on_c, 11, 79, 98
17, 396416, Note_on_c, 11, 82, 98
17, 396416, Note_on_c, 11, 87, 98
17, 396480, Note_off_c, 11, 67, 0
17, 396480, Note_off_c, 11, 70, 0
17, 396480, Note_off_c, 11, 75, 0
17, 396480, Note_off_c, 11, 79, 0
17, 396480, Note_off_c, 11, 82, 0
17, 396480, Note_off_c, 11, 87, 0
17, 396672, Note_on_c, 11, 70, 102
17, 396672, Note_on_c, 11, 76, 102
17, 396672, Note_on_c, 11, 79, 102
17, 396672, Note_on_c, 11, 82, 102
17, 396672, Note_on_c, 11, 87, 102
17, 396672, Note_on_c, 11, 91, 102
17, 396736, Note_off_c, 11, 70, 0
17, 396736, Note_off_c, 11, 76, 0
17, 396736, Note_off_c, 11, 79, 0
17, 396736, Note_off_c, 11, 82, 0
17, 396736, Note_off_c, 11, 87, 0
17, 396736, Note_off_c, 11, 91, 0
17, 397184, Note_on_c, 11, 67, 96
17, 397184, Note_on_c, 11, 70, 96
17, 397184, Note_on_c, 11, 75, 96
17, 397184, Note_on_c, 11, 79, 96
17, 397184, Note_on_c, 11, 82, 96
17, 397184, Note_on_c, 11, 87, 96
17, 397248, Note_off_c, 11, 67, 0
17, 397248, Note_off_c, 11, 70, 0
17, 397248, Note_off_c, 11, 75, 0
17, 397248, Note_off_c, 11, 79, 0
17, 397248, Note_off_c, 11, 82, 0
17, 397248, Note_off_c, 11, 87, 0
17, 397312, Note_on_c, 11, 67, 106
17, 397312, Note_on_c, 11, 70, 106
17, 397312, Note_on_c, 11, 75, 106
17, 397312, Note_on_c, 11, 79, 106
17, 397312, Note_on_c, 11, 82, 106
17, 397312, Note_on_c, 11, 87, 106
17, 397376, Note_off_c, 11, 67, 0
17, 397376, Note_off_c, 11, 70, 0
17, 397376, Note_off_c, 11, 75, 0
17, 397376, Note_off_c, 11, 79, 0
17, 397376, Note_off_c, 11, 82, 0
17, 397376, Note_off_c, 11, 87, 0
17, 397440, Note_on_c, 11, 70, 126
17, 397440, Note_on_c, 11, 76, 126
17, 397440, Note_on_c, 11, 79, 126
17, 397440, Note_on_c, 11, 82, 126
17, 397440, Note_on_c, 11, 87, 126
17, 397440, Note_on_c, 11, 91, 126
17, 397504, Note_off_c, 11, 70, 0
17, 397504, Note_off_c, 11, 76, 0
17, 397504, Note_off_c, 11, 79, 0
17, 397504, Note_off_c, 11, 82, 0
17, 397504, Note_off_c, 11, 87, 0
17, 397504, Note_off_c, 11, 91, 0
17, 397568, Note_on_c, 11, 67, 103
17, 397568, Note_on_c, 11, 70, 103
17, 397568, Note_on_c, 11, 75, 103
17, 397568, Note_on_c, 11, 79, 103
17, 397568, Note_on_c, 11, 82, 103
17, 397568, Note_on_c, 11, 87, 103
17, 397632, Note_off_c, 11, 67, 0
17, 397632, Note_off_c, 11, 70, 0
17, 397632, Note_off_c, 11, 75, 0
17, 397632, Note_off_c, 11, 79, 0
17, 397632, Note_off_c, 11, 82, 0
17, 397632, Note_off_c, 11, 87, 0
17, 397824, Note_on_c, 11, 70, 104
17, 397824, Note_on_c, 11, 76, 104
17, 397824, Note_on_c, 11, 79, 104
17, 397824, Note_on_c, 11, 82, 104
17, 397824, Note_on_c, 11, 87, 104
17, 397824, Note_on_c, 11, 91, 104
17, 397888, Note_off_c, 11, 70, 0
17, 397888, Note_off_c, 11, 76, 0
17, 397888, Note_off_c, 11, 79, 0
17, 397888, Note_off_c, 11, 82, 0
17, 397888, Note_off_c, 11, 87, 0
17, 397888, Note_off_c, 11, 91, 0
17, 397952, Note_on_c, 11, 67, 102
17, 397952, Note_on_c, 11, 70, 102
17, 397952, Note_on_c, 11, 75, 102
17, 397952, Note_on_c, 11, 79, 102
17, 397952, Note_on_c, 11, 82, 102
17, 397952, Note_on_c, 11, 87, 102
17, 398016, Note_off_c, 11, 67, 0
17, 398016, Note_off_c, 11, 70, 0
17, 398016, Note_off_c, 11, 75, 0
17, 398016, Note_off_c, 11, 79, 0
17, 398016, Note_off_c, 11, 82, 0
17, 398016, Note_off_c, 11, 87, 0
17, 398208, Note_on_c, 11, 70, 105
17, 398208, Note_on_c, 11, 76, 105
17, 398208, Note_on_c, 11, 79, 105
17, 398208, Note_on_c, 11, 82, 105
17, 398208, Note_on_c, 11, 87, 105
17, 398208, Note_on_c, 11, 91, 105
17, 398272, Note_off_c, 11, 70, 0
17, 398272, Note_off_c, 11, 76, 0
17, 398272, Note_off_c, 11, 79, 0
17, 398272, Note_off_c, 11, 82, 0
17, 398272, Note_off_c, 11, 87, 0
17, 398272, Note_off_c, 11, 91, 0
17, 398336, Note_on_c, 11, 67, 104
17, 398336, Note_on_c, 11, 70, 104
17, 398336, Note_on_c, 11, 75, 104
17, 398336, Note_on_c, 11, 79, 104
17, 398336, Note_on_c, 11, 82, 104
17, 398336, Note_on_c, 11, 87, 104
17, 398400, Note_off_c, 11, 67, 0
17, 398400, Note_off_c, 11, 70, 0
17, 398400, Note_off_c, 11, 75, 0
17, 398400, Note_off_c, 11, 79, 0
17, 398400, Note_off_c, 11, 82, 0
17, 398400, Note_off_c, 11, 87, 0
17, 398592, Note_on_c, 11, 70, 115
17, 398592, Note_on_c, 11, 76, 115
17, 398592, Note_on_c, 11, 79, 115
17, 398592, Note_on_c, 11, 82, 115
17, 398592, Note_on_c, 11, 87, 115
17, 398592, Note_on_c, 11, 91, 115
17, 398656, Note_off_c, 11, 70, 0
17, 398656, Note_off_c, 11, 76, 0
17, 398656, Note_off_c, 11, 79, 0
17, 398656, Note_off_c, 11, 82, 0
17, 398656, Note_off_c, 11, 87, 0
17, 398656, Note_off_c, 11, 91, 0
17, 402560, Note_on_c, 11, 61, 127
17, 402560, Note_on_c, 11, 67, 127
17, 402560, Note_on_c, 11, 72, 127
17, 402560, Note_on_c, 11, 81, 127
17, 402560, Note_on_c, 11, 87, 127
17, 402560, Note_on_c, 11, 93, 127
17, 402688, Note_off_c, 11, 61, 0
17, 402688, Note_off_c, 11, 67, 0
17, 402688, Note_off_c, 11, 72, 0
17, 402688, Note_off_c, 11, 81, 0
17, 402688, Note_off_c, 11, 87, 0
17, 402688, Note_off_c, 11, 93, 0
17, 403328, Note_on_c, 11, 61, 127
17, 403328, Note_on_c, 11, 67, 127
17, 403328, Note_on_c, 11, 72, 127
17, 403328, Note_on_c, 11, 81, 127
17, 403328, Note_on_c, 11, 87, 127
17, 403328, Note_on_c, 11, 93, 127
17, 403456, Note_off_c, 11, 61, 0
17, 403456, Note_off_c, 11, 67, 0
17, 403456, Note_off_c, 11, 72, 0
17, 403456, Note_off_c, 11, 81, 0
17, 403456, Note_off_c, 11, 87, 0
17, 403456, Note_off_c, 11, 93, 0
17, 404096, Note_on_c, 11, 61, 127
17, 404096, Note_on_c, 11, 67, 127
17, 404096, Note_on_c, 11, 72, 127
17, 404096, Note_on_c, 11, 81, 127
17, 404096, Note_on_c, 11, 87, 127
17, 404096, Note_on_c, 11, 93, 127
17, 404224, Note_off_c, 11, 61, 0
17, 404224, Note_off_c, 11, 67, 0
17, 404224, Note_off_c, 11, 72, 0
17, 404224, Note_off_c, 11, 81, 0
17, 404224, Note_off_c, 11, 87, 0
17, 404224, Note_off_c, 11, 93, 0
17, 404864, Note_on_c, 11, 61, 127
17, 404864, Note_on_c, 11, 67, 127
17, 404864, Note_on_c, 11, 72, 127
17, 404864, Note_on_c, 11, 81, 127
17, 404864, Note_on_c, 11, 87, 127
17, 404864, Note_on_c, 11, 93, 127
17, 404992, Note_off_c, 11, 61, 0
17, 404992, Note_off_c, 11, 67, 0
17, 404992, Note_off_c, 11, 72, 0
17, 404992, Note_off_c, 11, 81, 0
17, 404992, Note_off_c, 11, 87, 0
17, 404992, Note_off_c, 11, 93, 0
17, 405632, Note_on_c, 11, 61, 127
17, 405632, Note_on_c, 11, 67, 127
17, 405632, Note_on_c, 11, 72, 127
17, 405632, Note_on_c, 11, 81, 127
17, 405632, Note_on_c, 11, 87, 127
17, 405632, Note_on_c, 11, 93, 127
17, 405760, Note_off_c, 11, 61, 0
17, 405760, Note_off_c, 11, 67, 0
17, 405760, Note_off_c, 11, 72, 0
17, 405760, Note_off_c, 11, 81, 0
17, 405760, Note_off_c, 11, 87, 0
17, 405760, Note_off_c, 11, 93, 0
17, 406400, Note_on_c, 11, 61, 127
17, 406400, Note_on_c, 11, 67, 127
17, 406400, Note_on_c, 11, 72, 127
17, 406400, Note_on_c, 11, 81, 127
17, 406400, Note_on_c, 11, 87, 127
17, 406400, Note_on_c, 11, 93, 127
17, 406528, Note_off_c, 11, 61, 0
17, 406528, Note_off_c, 11, 67, 0
17, 406528, Note_off_c, 11, 72, 0
17, 406528, Note_off_c, 11, 81, 0
17, 406528, Note_off_c, 11, 87, 0
17, 406528, Note_off_c, 11, 93, 0
17, 407168, Note_on_c, 11, 61, 127
17, 407168, Note_on_c, 11, 67, 127
17, 407168, Note_on_c, 11, 72, 127
17, 407168, Note_on_c, 11, 81, 127
17, 407168, Note_on_c, 11, 87, 127
17, 407168, Note_on_c, 11, 93, 127
17, 407296, Note_off_c, 11, 61, 0
17, 407296, Note_off_c, 11, 67, 0
17, 407296, Note_off_c, 11, 72, 0
17, 407296, Note_off_c, 11, 81, 0
17, 407296, Note_off_c, 11, 87, 0
17, 407296, Note_off_c, 11, 93, 0
17, 407936, Note_on_c, 11, 61, 127
17, 407936, Note_on_c, 11, 67, 127
17, 407936, Note_on_c, 11, 72, 127
17, 407936, Note_on_c, 11, 81, 127
17, 407936, Note_on_c, 11, 87, 127
17, 407936, Note_on_c, 11, 93, 127
17, 408064, Note_off_c, 11, 61, 0
17, 408064, Note_off_c, 11, 67, 0
17, 408064, Note_off_c, 11, 72, 0
17, 408064, Note_off_c, 11, 81, 0
17, 408064, Note_off_c, 11, 87, 0
17, 408064, Note_off_c, 11, 93, 0
17, 408704, Note_on_c, 11, 61, 127
17, 408704, Note_on_c, 11, 67, 127
17, 408704, Note_on_c, 11, 72, 127
17, 408704, Note_on_c, 11, 81, 127
17, 408704, Note_on_c, 11, 87, 127
17, 408704, Note_on_c, 11, 93, 127
17, 408832, Note_off_c, 11, 61, 0
17, 408832, Note_off_c, 11, 67, 0
17, 408832, Note_off_c, 11, 72, 0
17, 408832, Note_off_c, 11, 81, 0
17, 408832, Note_off_c, 11, 87, 0
17, 408832, Note_off_c, 11, 93, 0
17, 409472, Note_on_c, 11, 61, 127
17, 409472, Note_on_c, 11, 67, 127
17, 409472, Note_on_c, 11, 72, 127
17, 409472, Note_on_c, 11, 81, 127
17, 409472, Note_on_c, 11, 87, 127
17, 409472, Note_on_c, 11, 93, 127
17, 409600, Note_off_c, 11, 61, 0
17, 409600, Note_off_c, 11, 67, 0
17, 409600, Note_off_c, 11, 72, 0
17, 409600, Note_off_c, 11, 81, 0
17, 409600, Note_off_c, 11, 87, 0
17, 409600, Note_off_c, 11, 93, 0
17, 410240, Note_on_c, 11, 61, 127
17, 410240, Note_on_c, 11, 67, 127
17, 410240, Note_on_c, 11, 72, 127
17, 410240, Note_on_c, 11, 81, 127
17, 410240, Note_on_c, 11, 87, 127
17, 410240, Note_on_c, 11, 93, 127
17, 410368, Note_off_c, 11, 61, 0
17, 410368, Note_off_c, 11, 67, 0
17, 410368, Note_off_c, 11, 72, 0
17, 410368, Note_off_c, 11, 81, 0
17, 410368, Note_off_c, 11, 87, 0
17, 410368, Note_off_c, 11, 93, 0
17, 411008, Note_on_c, 11, 61, 127
17, 411008, Note_on_c, 11, 67, 127
17, 411008, Note_on_c, 11, 72, 127
17, 411008, Note_on_c, 11, 81, 127
17, 411008, Note_on_c, 11, 87, 127
17, 411008, Note_on_c, 11, 93, 127
17, 411136, Note_off_c, 11, 61, 0
17, 411136, Note_off_c, 11, 67, 0
17, 411136, Note_off_c, 11, 72, 0
17, 411136, Note_off_c, 11, 81, 0
17, 411136, Note_off_c, 11, 87, 0
17, 411136, Note_off_c, 11, 93, 0
17, 411776, Note_on_c, 11, 61, 127
17, 411776, Note_on_c, 11, 67, 127
17, 411776, Note_on_c, 11, 72, 127
17, 411776, Note_on_c, 11, 81, 127
17, 411776, Note_on_c, 11, 87, 127
17, 411776, Note_on_c, 11, 93, 127
17, 411904, Note_off_c, 11, 61, 0
17, 411904, Note_off_c, 11, 67, 0
17, 411904, Note_off_c, 11, 72, 0
17, 411904, Note_off_c, 11, 81, 0
17, 411904, Note_off_c, 11, 87, 0
17, 411904, Note_off_c, 11, 93, 0
17, 412544, Note_on_c, 11, 61, 127
17, 412544, Note_on_c, 11, 67, 127
17, 412544, Note_on_c, 11, 72, 127
17, 412544, Note_on_c, 11, 81, 127
17, 412544, Note_on_c, 11, 87, 127
17, 412544, Note_on_c, 11, 93, 127
17, 412672, Note_off_c, 11, 61, 0
17, 412672, Note_off_c, 11, 67, 0
17, 412672, Note_off_c, 11, 72, 0
17, 412672, Note_off_c, 11, 81, 0
17, 412672, Note_off_c, 11, 87, 0
17, 412672, Note_off_c, 11, 93, 0
17, 413312, Note_on_c, 11, 61, 127
17, 413312, Note_on_c, 11, 67, 127
17, 413312, Note_on_c, 11, 72, 127
17, 413312, Note_on_c, 11, 81, 127
17, 413312, Note_on_c, 11, 87, 127
17, 413312, Note_on_c, 11, 93, 127
17, 413440, Note_off_c, 11, 61, 0
17, 413440, Note_off_c, 11, 67, 0
17, 413440, Note_off_c, 11, 72, 0
17, 413440, Note_off_c, 11, 81, 0
17, 413440, Note_off_c, 11, 87, 0
17, 413440, Note_off_c, 11, 93, 0
17, 414080, Note_on_c, 11, 61, 127
17, 414080, Note_on_c, 11, 67, 127
17, 414080, Note_on_c, 11, 72, 127
17, 414080, Note_on_c, 11, 81, 127
17, 414080, Note_on_c, 11, 87, 127
17, 414080, Note_on_c, 11, 93, 127
17, 414208, Note_off_c, 11, 61, 0
17, 414208, Note_off_c, 11, 67, 0
17, 414208, Note_off_c, 11, 72, 0
17, 414208, Note_off_c, 11, 81, 0
17, 414208, Note_off_c, 11, 87, 0
17, 414208, Note_off_c, 11, 93, 0
17, 414848, Note_on_c, 11, 61, 127
17, 414848, Note_on_c, 11, 67, 127
17, 414848, Note_on_c, 11, 72, 127
17, 414848, Note_on_c, 11, 81, 127
17, 414848, Note_on_c, 11, 87, 127
17, 414848, Note_on_c, 11, 93, 127
17, 414976, Note_off_c, 11, 61, 0
17, 414976, Note_off_c, 11, 67, 0
17, 414976, Note_off_c, 11, 72, 0
17, 414976, Note_off_c, 11, 81, 0
17, 414976, Note_off_c, 11, 87, 0
17, 414976, Note_off_c, 11, 93, 0
17, 415616, Note_on_c, 11, 61, 127
17, 415616, Note_on_c, 11, 67, 127
17, 415616, Note_on_c, 11, 72, 127
17, 415616, Note_on_c, 11, 81, 127
17, 415616, Note_on_c, 11, 87, 127
17, 415616, Note_on_c, 11, 93, 127
17, 415744, Note_off_c, 11, 61, 0
17, 415744, Note_off_c, 11, 67, 0
17, 415744, Note_off_c, 11, 72, 0
17, 415744, Note_off_c, 11, 81, 0
17, 415744, Note_off_c, 11, 87, 0
17, 415744, Note_off_c, 11, 93, 0
17, 416640, Note_on_c, 11, 61, 127
17, 416640, Note_on_c, 11, 67, 127
17, 416640, Note_on_c, 11, 72, 127
17, 416640, Note_on_c, 11, 81, 127
17, 416640, Note_on_c, 11, 87, 127
17, 416640, Note_on_c, 11, 93, 127
17, 416768, Note_off_c, 11, 61, 0
17, 416768, Note_off_c, 11, 67, 0
17, 416768, Note_off_c, 11, 72, 0
17, 416768, Note_off_c, 11, 81, 0
17, 416768, Note_off_c, 11, 87, 0
17, 416768, Note_off_c, 11, 93, 0
17, 417152, Note_on_c, 11, 61, 127
17, 417152, Note_on_c, 11, 67, 127
17, 417152, Note_on_c, 11, 72, 127
17, 417152, Note_on_c, 11, 81, 127
17, 417152, Note_on_c, 11, 87, 127
17, 417152, Note_on_c, 11, 93, 127
17, 417280, Note_off_c, 11, 61, 0
17, 417280, Note_off_c, 11, 67, 0
17, 417280, Note_off_c, 11, 72, 0
17, 417280, Note_off_c, 11, 81, 0
17, 417280, Note_off_c, 11, 87, 0
17, 417280, Note_off_c, 11, 93, 0
17, 417920, Note_on_c, 11, 61, 127
17, 417920, Note_on_c, 11, 67, 127
17, 417920, Note_on_c, 11, 72, 127
17, 417920, Note_on_c, 11, 81, 127
17, 417920, Note_on_c, 11, 87, 127
17, 417920, Note_on_c, 11, 93, 127
17, 418048, Note_off_c, 11, 61, 0
17, 418048, Note_off_c, 11, 67, 0
17, 418048, Note_off_c, 11, 72, 0
17, 418048, Note_off_c, 11, 81, 0
17, 418048, Note_off_c, 11, 87, 0
17, 418048, Note_off_c, 11, 93, 0
17, 418688, Note_on_c, 11, 61, 127
17, 418688, Note_on_c, 11, 67, 127
17, 418688, Note_on_c, 11, 72, 127
17, 418688, Note_on_c, 11, 81, 127
17, 418688, Note_on_c, 11, 87, 127
17, 418688, Note_on_c, 11, 93, 127
17, 418816, Note_off_c, 11, 61, 0
17, 418816, Note_off_c, 11, 67, 0
17, 418816, Note_off_c, 11, 72, 0
17, 418816, Note_off_c, 11, 81, 0
17, 418816, Note_off_c, 11, 87, 0
17, 418816, Note_off_c, 11, 93, 0
17, 419456, Note_on_c, 11, 61, 127
17, 419456, Note_on_c, 11, 67, 127
17, 419456, Note_on_c, 11, 72, 127
17, 419456, Note_on_c, 11, 81, 127
17, 419456, Note_on_c, 11, 87, 127
17, 419456, Note_on_c, 11, 93, 127
17, 419584, Note_off_c, 11, 61, 0
17, 419584, Note_off_c, 11, 67, 0
17, 419584, Note_off_c, 11, 72, 0
17, 419584, Note_off_c, 11, 81, 0
17, 419584, Note_off_c, 11, 87, 0
17, 419584, Note_off_c, 11, 93, 0
17, 419840, Note_on_c, 11, 61, 127
17, 419840, Note_on_c, 11, 67, 127
17, 419840, Note_on_c, 11, 72, 127
17, 419840, Note_on_c, 11, 81, 127
17, 419840, Note_on_c, 11, 87, 127
17, 419840, Note_on_c, 11, 93, 127
17, 419968, Note_off_c, 11, 61, 0
17, 419968, Note_off_c, 11, 67, 0
17, 419968, Note_off_c, 11, 72, 0
17, 419968, Note_off_c, 11, 81, 0
17, 419968, Note_off_c, 11, 87, 0
17, 419968, Note_off_c, 11, 93, 0
17, 420224, Note_on_c, 11, 61, 127
17, 420224, Note_on_c, 11, 67, 127
17, 420224, Note_on_c, 11, 72, 127
17, 420224, Note_on_c, 11, 81, 127
17, 420224, Note_on_c, 11, 87, 127
17, 420224, Note_on_c, 11, 93, 127
17, 420352, Note_off_c, 11, 61, 0
17, 420352, Note_off_c, 11, 67, 0
17, 420352, Note_off_c, 11, 72, 0
17, 420352, Note_off_c, 11, 81, 0
17, 420352, Note_off_c, 11, 87, 0
17, 420352, Note_off_c, 11, 93, 0
17, 420608, Note_on_c, 11, 61, 127
17, 420608, Note_on_c, 11, 67, 127
17, 420608, Note_on_c, 11, 72, 127
17, 420608, Note_on_c, 11, 81, 127
17, 420608, Note_on_c, 11, 87, 127
17, 420608, Note_on_c, 11, 93, 127
17, 420736, Note_off_c, 11, 61, 0
17, 420736, Note_off_c, 11, 67, 0
17, 420736, Note_off_c, 11, 72, 0
17, 420736, Note_off_c, 11, 81, 0
17, 420736, Note_off_c, 11, 87, 0
17, 420736, Note_off_c, 11, 93, 0
17, 420992, Note_on_c, 11, 61, 127
17, 420992, Note_on_c, 11, 67, 127
17, 420992, Note_on_c, 11, 72, 127
17, 420992, Note_on_c, 11, 81, 127
17, 420992, Note_on_c, 11, 87, 127
17, 420992, Note_on_c, 11, 93, 127
17, 421120, Note_off_c, 11, 61, 0
17, 421120, Note_off_c, 11, 67, 0
17, 421120, Note_off_c, 11, 72, 0
17, 421120, Note_off_c, 11, 81, 0
17, 421120, Note_off_c, 11, 87, 0
17, 421120, Note_off_c, 11, 93, 0
17, 421376, Note_on_c, 11, 61, 127
17, 421376, Note_on_c, 11, 67, 127
17, 421376, Note_on_c, 11, 72, 127
17, 421376, Note_on_c, 11, 81, 127
17, 421376, Note_on_c, 11, 87, 127
17, 421376, Note_on_c, 11, 93, 127
17, 421504, Note_off_c, 11, 61, 0
17, 421504, Note_off_c, 11, 67, 0
17, 421504, Note_off_c, 11, 72, 0
17, 421504, Note_off_c, 11, 81, 0
17, 421504, Note_off_c, 11, 87, 0
17, 421504, Note_off_c, 11, 93, 0
17, 421760, Note_on_c, 11, 61, 127
17, 421760, Note_on_c, 11, 67, 127
17, 421760, Note_on_c, 11, 72, 127
17, 421760, Note_on_c, 11, 81, 127
17, 421760, Note_on_c, 11, 87, 127
17, 421760, Note_on_c, 11, 93, 127
17, 421888, Note_off_c, 11, 61, 0
17, 421888, Note_off_c, 11, 67, 0
17, 421888, Note_off_c, 11, 72, 0
17, 421888, Note_off_c, 11, 81, 0
17, 421888, Note_off_c, 11, 87, 0
17, 421888, Note_off_c, 11, 93, 0
17, 422144, Note_on_c, 11, 61, 127
17, 422144, Note_on_c, 11, 67, 127
17, 422144, Note_on_c, 11, 72, 127
17, 422144, Note_on_c, 11, 81, 127
17, 422144, Note_on_c, 11, 87, 127
17, 422144, Note_on_c, 11, 93, 127
17, 422272, Note_off_c, 11, 61, 0
17, 422272, Note_off_c, 11, 67, 0
17, 422272, Note_off_c, 11, 72, 0
17, 422272, Note_off_c, 11, 81, 0
17, 422272, Note_off_c, 11, 87, 0
17, 422272, Note_off_c, 11, 93, 0
17, 425856, Note_on_c, 11, 57, 102
17, 425856, Note_on_c, 11, 62, 102
17, 425856, Note_on_c, 11, 66, 102
17, 425856, Note_on_c, 11, 69, 102
17, 425856, Note_on_c, 11, 74, 102
17, 425856, Note_on_c, 11, 78, 102
17, 425856, Note_on_c, 11, 81, 102
17, 425920, Note_off_c, 11, 57, 0
17, 425920, Note_off_c, 11, 62, 0
17, 425920, Note_off_c, 11, 66, 0
17, 425920, Note_off_c, 11, 69, 0
17, 425920, Note_off_c, 11, 74, 0
17, 425920, Note_off_c, 11, 78, 0
17, 425920, Note_off_c, 11, 81, 0
17, 425984, Note_on_c, 11, 59, 124
17, 425984, Note_on_c, 11, 62, 124
17, 425984, Note_on_c, 11, 66, 124
17, 425984, Note_on_c, 11, 71, 124
17, 425984, Note_on_c, 11, 74, 124
17, 425984, Note_on_c, 11, 78, 124
17, 425984, Note_on_c, 11, 83, 124
17, 426240, Note_off_c, 11, 59, 0
17, 426240, Note_off_c, 11, 62, 0
17, 426240, Note_off_c, 11, 66, 0
17, 426240, Note_off_c, 11, 71, 0
17, 426240, Note_off_c, 11, 74, 0
17, 426240, Note_off_c, 11, 78, 0
17, 426240, Note_off_c, 11, 83, 0
17, 426624, Note_on_c, 11, 57, 101
17, 426624, Note_on_c, 11, 62, 101
17, 426624, Note_on_c, 11, 66, 101
17, 426624, Note_on_c, 11, 69, 101
17, 426624, Note_on_c, 11, 74, 101
17, 426624, Note_on_c, 11, 78, 101
17, 426624, Note_on_c, 11, 81, 101
17, 426688, Note_off_c, 11, 57, 0
17, 426688, Note_off_c, 11, 62, 0
17, 426688, Note_off_c, 11, 66, 0
17, 426688, Note_off_c, 11, 69, 0
17, 426688, Note_off_c, 11, 74, 0
17, 426688, Note_off_c, 11, 78, 0
17, 426688, Note_off_c, 11, 81, 0
17, 426752, Note_on_c, 11, 59, 127
17, 426752, Note_on_c, 11, 62, 127
17, 426752, Note_on_c, 11, 66, 127
17, 426752, Note_on_c, 11, 71, 127
17, 426752, Note_on_c, 11, 74, 127
17, 426752, Note_on_c, 11, 78, 127
17, 426752, Note_on_c, 11, 83, 127
17, 427008, Note_off_c, 11, 59, 0
17, 427008, Note_off_c, 11, 62, 0
17, 427008, Note_off_c, 11, 66, 0
17, 427008, Note_off_c, 11, 71, 0
17, 427008, Note_off_c, 11, 74, 0
17, 427008, Note_off_c, 11, 78, 0
17, 427008, Note_off_c, 11, 83, 0
17, 427392, Note_on_c, 11, 57, 104
17, 427392, Note_on_c, 11, 62, 104
17, 427392, Note_on_c, 11, 66, 104
17, 427392, Note_on_c, 11, 69, 104
17, 427392, Note_on_c, 11, 74, 104
17, 427392, Note_on_c, 11, 78, 104
17, 427392, Note_on_c, 11, 81, 104
17, 427456, Note_off_c, 11, 57, 0
17, 427456, Note_off_c, 11, 62, 0
17, 427456, Note_off_c, 11, 66, 0
17, 427456, Note_off_c, 11, 69, 0
17, 427456, Note_off_c, 11, 74, 0
17, 427456, Note_off_c, 11, 78, 0
17, 427456, Note_off_c, 11, 81, 0
17, 427520, Note_on_c, 11, 59, 127
17, 427520, Note_on_c, 11, 62, 127
17, 427520, Note_on_c, 11, 66, 127
17, 427520, Note_on_c, 11, 71, 127
17, 427520, Note_on_c, 11, 74, 127
17, 427520, Note_on_c, 11, 78, 127
17, 427520, Note_on_c, 11, 83, 127
17, 427776, Note_off_c, 11, 59, 0
17, 427776, Note_off_c, 11, 62, 0
17, 427776, Note_off_c, 11, 66, 0
17, 427776, Note_off_c, 11, 71, 0
17, 427776, Note_off_c, 11, 74, 0
17, 427776, Note_off_c, 11, 78, 0
17, 427776, Note_off_c, 11, 83, 0
17, 428160, Note_on_c, 11, 69, 100
17, 428160, Note_on_c, 11, 74, 100
17, 428160, Note_on_c, 11, 78, 100
17, 428160, Note_on_c, 11, 81, 100
17, 428160, Note_on_c, 11, 86, 100
17, 428160, Note_on_c, 11, 90, 100
17, 428160, Note_on_c, 11, 93, 100
17, 428224, Note_off_c, 11, 69, 0
17, 428224, Note_off_c, 11, 74, 0
17, 428224, Note_off_c, 11, 78, 0
17, 428224, Note_off_c, 11, 81, 0
17, 428224, Note_off_c, 11, 86, 0
17, 428224, Note_off_c, 11, 90, 0
17, 428224, Note_off_c, 11, 93, 0
17, 428288, Note_on_c, 11, 71, 124
17, 428288, Note_on_c, 11, 74, 124
17, 428288, Note_on_c, 11, 78, 124
17, 428288, Note_on_c, 11, 83, 124
17, 428288, Note_on_c, 11, 86, 124
17, 428288, Note_on_c, 11, 90, 124
17, 428288, Note_on_c, 11, 95, 124
17, 428544, Note_off_c, 11, 71, 0
17, 428544, Note_off_c, 11, 74, 0
17, 428544, Note_off_c, 11, 78, 0
17, 428544, Note_off_c, 11, 83, 0
17, 428544, Note_off_c, 11, 86, 0
17, 428544, Note_off_c, 11, 90, 0
17, 428544, Note_off_c, 11, 95, 0
17, 428928, Note_on_c, 11, 69, 104
17, 428928, Note_on_c, 11, 74, 104
17, 428928, Note_on_c, 11, 78, 104
17, 428928, Note_on_c, 11, 81, 104
17, 428928, Note_on_c, 11, 86, 104
17, 428928, Note_on_c, 11, 90, 104
17, 428928, Note_on_c, 11, 93, 104
17, 428992, Note_off_c, 11, 69, 0
17, 428992, Note_off_c, 11, 74, 0
17, 428992, Note_off_c, 11, 78, 0
17, 428992, Note_off_c, 11, 81, 0
17, 428992, Note_off_c, 11, 86, 0
17, 428992, Note_off_c, 11, 90, 0
17, 428992, Note_off_c, 11, 93, 0
17, 429056, Note_on_c, 11, 71, 127
17, 429056, Note_on_c, 11, 74, 127
17, 429056, Note_on_c, 11, 78, 127
17, 429056, Note_on_c, 11, 83, 127
17, 429056, Note_on_c, 11, 86, 127
17, 429056, Note_on_c, 11, 90, 127
17, 429056, Note_on_c, 11, 95, 127
17, 429312, Note_off_c, 11, 71, 0
17, 429312, Note_off_c, 11, 74, 0
17, 429312, Note_off_c, 11, 78, 0
17, 429312, Note_off_c, 11, 83, 0
17, 429312, Note_off_c, 11, 86, 0
17, 429312, Note_off_c, 11, 90, 0
17, 429312, Note_off_c, 11, 95, 0
17, 429440, Note_on_c, 11, 69, 103
17, 429440, Note_on_c, 11, 74, 103
17, 429440, Note_on_c, 11, 78, 103
17, 429440, Note_on_c, 11, 81, 103
17, 429440, Note_on_c, 11, 86, 103
17, 429440, Note_on_c, 11, 90, 103
17, 429440, Note_on_c, 11, 93, 103
17, 429504, Note_off_c, 11, 69, 0
17, 429504, Note_off_c, 11, 74, 0
17, 429504, Note_off_c, 11, 78, 0
17, 429504, Note_off_c, 11, 81, 0
17, 429504, Note_off_c, 11, 86, 0
17, 429504, Note_off_c, 11, 90, 0
17, 429504, Note_off_c, 11, 93, 0
17, 429568, Note_on_c, 11, 71, 127
17, 429568, Note_on_c, 11, 74, 127
17, 429568, Note_on_c, 11, 78, 127
17, 429568, Note_on_c, 11, 83, 127
17, 429568, Note_on_c, 11, 86, 127
17, 429568, Note_on_c, 11, 90, 127
17, 429568, Note_on_c, 11, 95, 127
17, 429824, Note_off_c, 11, 71, 0
17, 429824, Note_off_c, 11, 74, 0
17, 429824, Note_off_c, 11, 78, 0
17, 429824, Note_off_c, 11, 83, 0
17, 429824, Note_off_c, 11, 86, 0
17, 429824, Note_off_c, 11, 90, 0
17, 429824, Note_off_c, 11, 95, 0
17, 430208, Note_on_c, 11, 69, 101
17, 430208, Note_on_c, 11, 74, 101
17, 430208, Note_on_c, 11, 78, 101
17, 430208, Note_on_c, 11, 81, 101
17, 430208, Note_on_c, 11, 86, 101
17, 430208, Note_on_c, 11, 90, 101
17, 430208, Note_on_c, 11, 93, 101
17, 430272, Note_off_c, 11, 69, 0
17, 430272, Note_off_c, 11, 74, 0
17, 430272, Note_off_c, 11, 78, 0
17, 430272, Note_off_c, 11, 81, 0
17, 430272, Note_off_c, 11, 86, 0
17, 430272, Note_off_c, 11, 90, 0
17, 430272, Note_off_c, 11, 93, 0
17, 430336, Note_on_c, 11, 71, 127
17, 430336, Note_on_c, 11, 74, 127
17, 430336, Note_on_c, 11, 78, 127
17, 430336, Note_on_c, 11, 83, 127
17, 430336, Note_on_c, 11, 86, 127
17, 430336, Note_on_c, 11, 90, 127
17, 430336, Note_on_c, 11, 95, 127
17, 430592, Note_off_c, 11, 71, 0
17, 430592, Note_off_c, 11, 74, 0
17, 430592, Note_off_c, 11, 78, 0
17, 430592, Note_off_c, 11, 83, 0
17, 430592, Note_off_c, 11, 86, 0
17, 430592, Note_off_c, 11, 90, 0
17, 430592, Note_off_c, 11, 95, 0
17, 430848, Note_on_c, 11, 69, 97
17, 430848, Note_on_c, 11, 74, 97
17, 430848, Note_on_c, 11, 78, 97
17, 430848, Note_on_c, 11, 81, 97
17, 430848, Note_on_c, 11, 86, 97
17, 430848, Note_on_c, 11, 90, 97
17, 430848, Note_on_c, 11, 93, 97
17, 430912, Note_off_c, 11, 69, 0
17, 430912, Note_off_c, 11, 74, 0
17, 430912, Note_off_c, 11, 78, 0
17, 430912, Note_off_c, 11, 81, 0
17, 430912, Note_off_c, 11, 86, 0
17, 430912, Note_off_c, 11, 90, 0
17, 430912, Note_off_c, 11, 93, 0
17, 430976, Note_on_c, 11, 72, 127
17, 430976, Note_on_c, 11, 74, 127
17, 430976, Note_on_c, 11, 77, 127
17, 430976, Note_on_c, 11, 83, 127
17, 430976, Note_on_c, 11, 86, 127
17, 430976, Note_on_c, 11, 90, 127
17, 430976, Note_on_c, 11, 95, 127
17, 431232, Note_off_c, 11, 72, 0
17, 431232, Note_off_c, 11, 74, 0
17, 431232, Note_off_c, 11, 77, 0
17, 431232, Note_off_c, 11, 83, 0
17, 431232, Note_off_c, 11, 86, 0
17, 431232, Note_off_c, 11, 90, 0
17, 431232, Note_off_c, 11, 95, 0
17, 431616, Note_on_c, 11, 69, 98
17, 431616, Note_on_c, 11, 74, 98
17, 431616, Note_on_c, 11, 78, 98
17, 431616, Note_on_c, 11, 81, 98
17, 431616, Note_on_c, 11, 86, 98
17, 431616, Note_on_c, 11, 90, 98
17, 431616, Note_on_c, 11, 93, 98
17, 431680, Note_off_c, 11, 69, 0
17, 431680, Note_off_c, 11, 74, 0
17, 431680, Note_off_c, 11, 78, 0
17, 431680, Note_off_c, 11, 81, 0
17, 431680, Note_off_c, 11, 86, 0
17, 431680, Note_off_c, 11, 90, 0
17, 431680, Note_off_c, 11, 93, 0
17, 431744, Note_on_c, 11, 71, 127
17, 431744, Note_on_c, 11, 76, 127
17, 431744, Note_on_c, 11, 81, 127
17, 431744, Note_on_c, 11, 83, 127
17, 431744, Note_on_c, 11, 86, 127
17, 431744, Note_on_c, 11, 90, 127
17, 431744, Note_on_c, 11, 95, 127
17, 432000, Note_off_c, 11, 71, 0
17, 432000, Note_off_c, 11, 76, 0
17, 432000, Note_off_c, 11, 81, 0
17, 432000, Note_off_c, 11, 83, 0
17, 432000, Note_off_c, 11, 86, 0
17, 432000, Note_off_c, 11, 90, 0
17, 432000, Note_off_c, 11, 95, 0
17, 432384, Note_on_c, 11, 69, 104
17, 432384, Note_on_c, 11, 74, 104
17, 432384, Note_on_c, 11, 78, 104
17, 432384, Note_on_c, 11, 81, 104
17, 432384, Note_on_c, 11, 86, 104
17, 432384, Note_on_c, 11, 90, 104
17, 432384, Note_on_c, 11, 93, 104
17, 432448, Note_off_c, 11, 69, 0
17, 432448, Note_off_c, 11, 74, 0
17, 432448, Note_off_c, 11, 78, 0
17, 432448, Note_off_c, 11, 81, 0
17, 432448, Note_off_c, 11, 86, 0
17, 432448, Note_off_c, 11, 90, 0
17, 432448, Note_off_c, 11, 93, 0
17, 432512, Note_on_c, 11, 71, 127
17, 432512, Note_on_c, 11, 76, 127
17, 432512, Note_on_c, 11, 81, 127
17, 432512, Note_on_c, 11, 83, 127
17, 432512, Note_on_c, 11, 86, 127
17, 432512, Note_on_c, 11, 90, 127
17, 432512, Note_on_c, 11, 95, 127
17, 432768, Note_off_c, 11, 71, 0
17, 432768, Note_off_c, 11, 76, 0
17, 432768, Note_off_c, 11, 81, 0
17, 432768, Note_off_c, 11, 83, 0
17, 432768, Note_off_c, 11, 86, 0
17, 432768, Note_off_c, 11, 90, 0
17, 432768, Note_off_c, 11, 95, 0
17, 433152, Note_on_c, 11, 69, 104
17, 433152, Note_on_c, 11, 74, 104
17, 433152, Note_on_c, 11, 78, 104
17, 433152, Note_on_c, 11, 81, 104
17, 433152, Note_on_c, 11, 86, 104
17, 433152, Note_on_c, 11, 90, 104
17, 433152, Note_on_c, 11, 93, 104
17, 433216, Note_off_c, 11, 69, 0
17, 433216, Note_off_c, 11, 74, 0
17, 433216, Note_off_c, 11, 78, 0
17, 433216, Note_off_c, 11, 81, 0
17, 433216, Note_off_c, 11, 86, 0
17, 433216, Note_off_c, 11, 90, 0
17, 433216, Note_off_c, 11, 93, 0
17, 433280, Note_on_c, 11, 72, 127
17, 433280, Note_on_c, 11, 74, 127
17, 433280, Note_on_c, 11, 78, 127
17, 433280, Note_on_c, 11, 81, 127
17, 433280, Note_on_c, 11, 84, 127
17, 433280, Note_on_c, 11, 86, 127
17, 433280, Note_on_c, 11, 90, 127
17, 433280, Note_on_c, 11, 95, 127
17, 433536, Note_off_c, 11, 72, 0
17, 433536, Note_off_c, 11, 74, 0
17, 433536, Note_off_c, 11, 78, 0
17, 433536, Note_off_c, 11, 81, 0
17, 433536, Note_off_c, 11, 84, 0
17, 433536, Note_off_c, 11, 86, 0
17, 433536, Note_off_c, 11, 90, 0
17, 433536, Note_off_c, 11, 95, 0
17, 433792, Note_on_c, 11, 69, 97
17, 433792, Note_on_c, 11, 74, 97
17, 433792, Note_on_c, 11, 78, 97
17, 433792, Note_on_c, 11, 81, 97
17, 433792, Note_on_c, 11, 86, 97
17, 433792, Note_on_c, 11, 90, 97
17, 433792, Note_on_c, 11, 93, 97
17, 433856, Note_off_c, 11, 69, 0
17, 433856, Note_off_c, 11, 74, 0
17, 433856, Note_off_c, 11, 78, 0
17, 433856, Note_off_c, 11, 81, 0
17, 433856, Note_off_c, 11, 86, 0
17, 433856, Note_off_c, 11, 90, 0
17, 433856, Note_off_c, 11, 93, 0
17, 433920, Note_on_c, 11, 71, 127
17, 433920, Note_on_c, 11, 74, 127
17, 433920, Note_on_c, 11, 78, 127
17, 433920, Note_on_c, 11, 83, 127
17, 433920, Note_on_c, 11, 86, 127
17, 433920, Note_on_c, 11, 90, 127
17, 433920, Note_on_c, 11, 95, 127
17, 434176, Note_off_c, 11, 71, 0
17, 434176, Note_off_c, 11, 74, 0
17, 434176, Note_off_c, 11, 78, 0
17, 434176, Note_off_c, 11, 83, 0
17, 434176, Note_off_c, 11, 86, 0
17, 434176, Note_off_c, 11, 90, 0
17, 434176, Note_off_c, 11, 95, 0
17, 434304, Note_on_c, 11, 68, 100
17, 434304, Note_on_c, 11, 73, 100
17, 434304, Note_on_c, 11, 78, 100
17, 434304, Note_on_c, 11, 81, 100
17, 434304, Note_on_c, 11, 86, 100
17, 434304, Note_on_c, 11, 90, 100
17, 434304, Note_on_c, 11, 93, 100
17, 434368, Note_off_c, 11, 68, 0
17, 434368, Note_off_c, 11, 73, 0
17, 434368, Note_off_c, 11, 78, 0
17, 434368, Note_off_c, 11, 81, 0
17, 434368, Note_off_c, 11, 86, 0
17, 434368, Note_off_c, 11, 90, 0
17, 434368, Note_off_c, 11, 93, 0
17, 434432, Note_on_c, 11, 71, 127
17, 434432, Note_on_c, 11, 74, 127
17, 434432, Note_on_c, 11, 78, 127
17, 434432, Note_on_c, 11, 83, 127
17, 434432, Note_on_c, 11, 86, 127
17, 434432, Note_on_c, 11, 90, 127
17, 434432, Note_on_c, 11, 95, 127
17, 434688, Note_off_c, 11, 71, 0
17, 434688, Note_off_c, 11, 74, 0
17, 434688, Note_off_c, 11, 78, 0
17, 434688, Note_off_c, 11, 83, 0
17, 434688, Note_off_c, 11, 86, 0
17, 434688, Note_off_c, 11, 90, 0
17, 434688, Note_off_c, 11, 95, 0
17, 435072, Note_on_c, 11, 69, 101
17, 435072, Note_on_c, 11, 74, 101
17, 435072, Note_on_c, 11, 78, 101
17, 435072, Note_on_c, 11, 81, 101
17, 435072, Note_on_c, 11, 86, 101
17, 435072, Note_on_c, 11, 90, 101
17, 435072, Note_on_c, 11, 93, 101
17, 435136, Note_off_c, 11, 69, 0
17, 435136, Note_off_c, 11, 74, 0
17, 435136, Note_off_c, 11, 78, 0
17, 435136, Note_off_c, 11, 81, 0
17, 435136, Note_off_c, 11, 86, 0
17, 435136, Note_off_c, 11, 90, 0
17, 435136, Note_off_c, 11, 93, 0
17, 435200, Note_on_c, 11, 71, 127
17, 435200, Note_on_c, 11, 74, 127
17, 435200, Note_on_c, 11, 78, 127
17, 435200, Note_on_c, 11, 83, 127
17, 435200, Note_on_c, 11, 86, 127
17, 435200, Note_on_c, 11, 90, 127
17, 435200, Note_on_c, 11, 95, 127
17, 435456, Note_off_c, 11, 71, 0
17, 435456, Note_off_c, 11, 74, 0
17, 435456, Note_off_c, 11, 78, 0
17, 435456, Note_off_c, 11, 83, 0
17, 435456, Note_off_c, 11, 86, 0
17, 435456, Note_off_c, 11, 90, 0
17, 435456, Note_off_c, 11, 95, 0
17, 435712, Note_on_c, 11, 69, 101
17, 435712, Note_on_c, 11, 74, 101
17, 435712, Note_on_c, 11, 78, 101
17, 435712, Note_on_c, 11, 81, 101
17, 435712, Note_on_c, 11, 86, 101
17, 435712, Note_on_c, 11, 90, 101
17, 435712, Note_on_c, 11, 93, 101
17, 435776, Note_off_c, 11, 69, 0
17, 435776, Note_off_c, 11, 74, 0
17, 435776, Note_off_c, 11, 78, 0
17, 435776, Note_off_c, 11, 81, 0
17, 435776, Note_off_c, 11, 86, 0
17, 435776, Note_off_c, 11, 90, 0
17, 435776, Note_off_c, 11, 93, 0
17, 435840, Note_on_c, 11, 74, 127
17, 435840, Note_on_c, 11, 77, 127
17, 435840, Note_on_c, 11, 82, 127
17, 435840, Note_on_c, 11, 84, 127
17, 435840, Note_on_c, 11, 86, 127
17, 435840, Note_on_c, 11, 90, 127
17, 435840, Note_on_c, 11, 93, 127
17, 435840, Note_on_c, 11, 96, 127
17, 436096, Note_off_c, 11, 74, 0
17, 436096, Note_off_c, 11, 77, 0
17, 436096, Note_off_c, 11, 82, 0
17, 436096, Note_off_c, 11, 84, 0
17, 436096, Note_off_c, 11, 86, 0
17, 436096, Note_off_c, 11, 90, 0
17, 436096, Note_off_c, 11, 93, 0
17, 436096, Note_off_c, 11, 96, 0
17, 436480, Note_on_c, 11, 76, 99
17, 436480, Note_on_c, 11, 79, 99
17, 436480, Note_on_c, 11, 83, 99
17, 436480, Note_on_c, 11, 88, 99
17, 436480, Note_on_c, 11, 91, 99
17, 436480, Note_on_c, 11, 95, 99
17, 436480, Note_on_c, 11, 96, 99
17, 436544, Note_off_c, 11, 76, 0
17, 436544, Note_off_c, 11, 79, 0
17, 436544, Note_off_c, 11, 83, 0
17, 436544, Note_off_c, 11, 88, 0
17, 436544, Note_off_c, 11, 91, 0
17, 436544, Note_off_c, 11, 95, 0
17, 436544, Note_off_c, 11, 96, 0
17, 436608, Note_on_c, 11, 78, 127
17, 436608, Note_on_c, 11, 81, 127
17, 436608, Note_on_c, 11, 85, 127
17, 436608, Note_on_c, 11, 90, 127
17, 436608, Note_on_c, 11, 93, 127
17, 436608, Note_on_c, 11, 97, 127
17, 436608, Note_on_c, 11, 102, 127
17, 436864, Note_off_c, 11, 78, 0
17, 436864, Note_off_c, 11, 81, 0
17, 436864, Note_off_c, 11, 85, 0
17, 436864, Note_off_c, 11, 90, 0
17, 436864, Note_off_c, 11, 93, 0
17, 436864, Note_off_c, 11, 97, 0
17, 436864, Note_off_c, 11, 102, 0
17, 437120, Note_on_c, 11, 66, 99
17, 437120, Note_on_c, 11, 72, 99
17, 437120, Note_on_c, 11, 72, 99
17, 437120, Note_on_c, 11, 78, 99
17, 437120, Note_on_c, 11, 83, 99
17, 437120, Note_on_c, 11, 85, 99
17, 437120, Note_on_c, 11, 90, 99
17, 437184, Note_off_c, 11, 66, 0
17, 437184, Note_off_c, 11, 72, 0
17, 437184, Note_off_c, 11, 72, 0
17, 437184, Note_off_c, 11, 78, 0
17, 437184, Note_off_c, 11, 83, 0
17, 437184, Note_off_c, 11, 85, 0
17, 437184, Note_off_c, 11, 90, 0
17, 437248, Note_on_c, 11, 67, 127
17, 437248, Note_on_c, 11, 70, 127
17, 437248, Note_on_c, 11, 74, 127
17, 437248, Note_on_c, 11, 79, 127
17, 437248, Note_on_c, 11, 82, 127
17, 437248, Note_on_c, 11, 86, 127
17, 437248, Note_on_c, 11, 91, 127
17, 437504, Note_off_c, 11, 67, 0
17, 437504, Note_off_c, 11, 70, 0
17, 437504, Note_off_c, 11, 74, 0
17, 437504, Note_off_c, 11, 79, 0
17, 437504, Note_off_c, 11, 82, 0
17, 437504, Note_off_c, 11, 86, 0
17, 437504, Note_off_c, 11, 91, 0
17, 437760, Note_on_c, 11, 66, 101
17, 437760, Note_on_c, 11, 70, 101
17, 437760, Note_on_c, 11, 73, 101
17, 437760, Note_on_c, 11, 75, 101
17, 437760, Note_on_c, 11, 79, 101
17, 437760, Note_on_c, 11, 82, 101
17, 437760, Note_on_c, 11, 85, 101
17, 437760, Note_on_c, 11, 87, 101
17, 437824, Note_off_c, 11, 66, 0
17, 437824, Note_off_c, 11, 70, 0
17, 437824, Note_off_c, 11, 73, 0
17, 437824, Note_off_c, 11, 75, 0
17, 437824, Note_off_c, 11, 79, 0
17, 437824, Note_off_c, 11, 82, 0
17, 437824, Note_off_c, 11, 85, 0
17, 437824, Note_off_c, 11, 87, 0
17, 437888, Note_on_c, 11, 69, 127
17, 437888, Note_on_c, 11, 76, 127
17, 437888, Note_on_c, 11, 78, 127
17, 437888, Note_on_c, 11, 80, 127
17, 437888, Note_on_c, 11, 81, 127
17, 437888, Note_on_c, 11, 88, 127
17, 437888, Note_on_c, 11, 90, 127
17, 437888, Note_on_c, 11, 92, 127
17, 438144, Note_off_c, 11, 69, 0
17, 438144, Note_off_c, 11, 76, 0
17, 438144, Note_off_c, 11, 78, 0
17, 438144, Note_off_c, 11, 80, 0
17, 438144, Note_off_c, 11, 81, 0
17, 438144, Note_off_c, 11, 88, 0
17, 438144, Note_off_c, 11, 90, 0
17, 438144, Note_off_c, 11, 92, 0
17, 438272, Note_on_c, 11, 69, 101
17, 438272, Note_on_c, 11, 73, 101
17, 438272, Note_on_c, 11, 76, 101
17, 438272, Note_on_c, 11, 81, 101
17, 438272, Note_on_c, 11, 85, 101
17, 438272, Note_on_c, 11, 88, 101
17, 438336, Note_off_c, 11, 69, 0
17, 438336, Note_off_c, 11, 73, 0
17, 438336, Note_off_c, 11, 76, 0
17, 438336, Note_off_c, 11, 81, 0
17, 438336, Note_off_c, 11, 85, 0
17, 438336, Note_off_c, 11, 88, 0
17, 438656, Note_on_c, 11, 71, 127
17, 438656, Note_on_c, 11, 74, 127
17, 438656, Note_on_c, 11, 90, 127
17, 438656, Note_on_c, 11, 93, 127
17, 438784, Note_off_c, 11, 71, 0
17, 438784, Note_off_c, 11, 74, 0
17, 438784, Note_off_c, 11, 90, 0
17, 438784, Note_off_c, 11, 93, 0
17, 438784, Note_on_c, 11, 71, 127
17, 438784, Note_on_c, 11, 74, 127
17, 438784, Note_on_c, 11, 90, 127
17, 438784, Note_on_c, 11, 93, 127
17, 438912, Note_off_c, 11, 71, 0
17, 438912, Note_off_c, 11, 74, 0
17, 438912, Note_off_c, 11, 90, 0
17, 438912, Note_off_c, 11, 93, 0
17, 438912, Note_on_c, 11, 68, 127
17, 438912, Note_on_c, 11, 70, 127
17, 438912, Note_on_c, 11, 86, 127
17, 438912, Note_on_c, 11, 92, 127
17, 439040, Note_off_c, 11, 68, 0
17, 439040, Note_off_c, 11, 70, 0
17, 439040, Note_off_c, 11, 86, 0
17, 439040, Note_off_c, 11, 92, 0
17, 439168, Note_on_c, 11, 68, 105
17, 439168, Note_on_c, 11, 70, 105
17, 439168, Note_on_c, 11, 86, 105
17, 439168, Note_on_c, 11, 91, 105
17, 439424, Note_off_c, 11, 68, 0
17, 439424, Note_off_c, 11, 70, 0
17, 439424, Note_off_c, 11, 86, 0
17, 439424, Note_off_c, 11, 91, 0
17, 439424, Note_on_c, 11, 65, 124
17, 439424, Note_on_c, 11, 72, 124
17, 439424, Note_on_c, 11, 86, 124
17, 439424, Note_on_c, 11, 93, 124
17, 439680, Note_off_c, 11, 65, 0
17, 439680, Note_off_c, 11, 72, 0
17, 439680, Note_off_c, 11, 86, 0
17, 439680, Note_off_c, 11, 93, 0
17, 439680, Note_on_c, 11, 65, 115
17, 439680, Note_on_c, 11, 72, 115
17, 439680, Note_on_c, 11, 86, 115
17, 439680, Note_on_c, 11, 93, 115
17, 439936, Note_off_c, 11, 65, 0
17, 439936, Note_off_c, 11, 72, 0
17, 439936, Note_off_c, 11, 86, 0
17, 439936, Note_off_c, 11, 93, 0
17, 439936, Note_on_c, 11, 67, 117
17, 439936, Note_on_c, 11, 72, 117
17, 439936, Note_on_c, 11, 86, 117
17, 439936, Note_on_c, 11, 93, 117
17, 440192, Note_off_c, 11, 67, 0
17, 440192, Note_off_c, 11, 72, 0
17, 440192, Note_off_c, 11, 86, 0
17, 440192, Note_off_c, 11, 93, 0
17, 440192, Note_on_c, 11, 65, 111
17, 440192, Note_on_c, 11, 72, 111
17, 440192, Note_on_c, 11, 86, 111
17, 440192, Note_on_c, 11, 93, 111
17, 440448, Note_off_c, 11, 65, 0
17, 440448, Note_off_c, 11, 72, 0
17, 440448, Note_off_c, 11, 86, 0
17, 440448, Note_off_c, 11, 93, 0
17, 440448, Note_on_c, 11, 58, 91
17, 440448, Note_on_c, 11, 66, 91
17, 440448, Note_on_c, 11, 80, 91
17, 440448, Note_on_c, 11, 84, 91
17, 440704, Note_off_c, 11, 58, 0
17, 440704, Note_off_c, 11, 66, 0
17, 440704, Note_off_c, 11, 80, 0
17, 440704, Note_off_c, 11, 84, 0
17, 440704, Note_on_c, 11, 63, 127
17, 440704, Note_on_c, 11, 70, 127
17, 440704, Note_on_c, 11, 84, 127
17, 440704, Note_on_c, 11, 93, 127
17, 440960, Note_off_c, 11, 63, 0
17, 440960, Note_off_c, 11, 70, 0
17, 440960, Note_off_c, 11, 84, 0
17, 440960, Note_off_c, 11, 93, 0
17, 440960, Note_on_c, 11, 61, 108
17, 440960, Note_on_c, 11, 69, 108
17, 440960, Note_on_c, 11, 81, 108
17, 440960, Note_on_c, 11, 92, 108
17, 441216, Note_off_c, 11, 61, 0
17, 441216, Note_off_c, 11, 69, 0
17, 441216, Note_off_c, 11, 81, 0
17, 441216, Note_off_c, 11, 92, 0
17, 441216, Note_on_c, 11, 59, 104
17, 441216, Note_on_c, 11, 67, 104
17, 441216, Note_on_c, 11, 81, 104
17, 441216, Note_on_c, 11, 90, 104
17, 441472, Note_off_c, 11, 59, 0
17, 441472, Note_off_c, 11, 67, 0
17, 441472, Note_off_c, 11, 81, 0
17, 441472, Note_off_c, 11, 90, 0
17, 441472, Note_on_c, 11, 59, 102
17, 441472, Note_on_c, 11, 66, 102
17, 441472, Note_on_c, 11, 80, 102
17, 441472, Note_on_c, 11, 86, 102
17, 441728, Note_off_c, 11, 59, 0
17, 441728, Note_off_c, 11, 66, 0
17, 441728, Note_off_c, 11, 80, 0
17, 441728, Note_off_c, 11, 86, 0
17, 441728, Note_on_c, 11, 57, 101
17, 441728, Note_on_c, 11, 62, 101
17, 441728, Note_on_c, 11, 78, 101
17, 441728, Note_on_c, 11, 82, 101
17, 441984, Note_off_c, 11, 57, 0
17, 441984, Note_off_c, 11, 62, 0
17, 441984, Note_off_c, 11, 78, 0
17, 441984, Note_off_c, 11, 82, 0
17, 441984, Note_on_c, 11, 58, 119
17, 441984, Note_on_c, 11, 66, 119
17, 441984, Note_on_c, 11, 80, 119
17, 441984, Note_on_c, 11, 84, 119
17, 442240, Note_off_c, 11, 58, 0
17, 442240, Note_off_c, 11, 66, 0
17, 442240, Note_off_c, 11, 80, 0
17, 442240, Note_off_c, 11, 84, 0
17, 442240, Note_on_c, 11, 64, 127
17, 442240, Note_on_c, 11, 71, 127
17, 442240, Note_on_c, 11, 81, 127
17, 442240, Note_on_c, 11, 90, 127
17, 442496, Note_off_c, 11, 64, 0
17, 442496, Note_off_c, 11, 71, 0
17, 442496, Note_off_c, 11, 81, 0
17, 442496, Note_off_c, 11, 90, 0
17, 442496, Note_on_c, 11, 73, 124
17, 442496, Note_on_c, 11, 76, 124
17, 442496, Note_on_c, 11, 86, 124
17, 442496, Note_on_c, 11, 93, 124
17, 442752, Note_off_c, 11, 73, 0
17, 442752, Note_off_c, 11, 76, 0
17, 442752, Note_off_c, 11, 86, 0
17, 442752, Note_off_c, 11, 93, 0
17, 442752, Note_on_c, 11, 71, 118
17, 442752, Note_on_c, 11, 76, 118
17, 442752, Note_on_c, 11, 86, 118
17, 442752, Note_on_c, 11, 93, 118
17, 443008, Note_off_c, 11, 71, 0
17, 443008, Note_off_c, 11, 76, 0
17, 443008, Note_off_c, 11, 86, 0
17, 443008, Note_off_c, 11, 93, 0
17, 443008, Note_on_c, 11, 70, 106
17, 443008, Note_on_c, 11, 74, 106
17, 443008, Note_on_c, 11, 80, 106
17, 443008, Note_on_c, 11, 93, 106
17, 443264, Note_off_c, 11, 70, 0
17, 443264, Note_off_c, 11, 74, 0
17, 443264, Note_off_c, 11, 80, 0
17, 443264, Note_off_c, 11, 93, 0
17, 443264, Note_on_c, 11, 65, 114
17, 443264, Note_on_c, 11, 72, 114
17, 443264, Note_on_c, 11, 81, 114
17, 443264, Note_on_c, 11, 93, 114
17, 443520, Note_off_c, 11, 65, 0
17, 443520, Note_off_c, 11, 72, 0
17, 443520, Note_off_c, 11, 81, 0
17, 443520, Note_off_c, 11, 93, 0
17, 443520, Note_on_c, 11, 65, 105
17, 443520, Note_on_c, 11, 72, 105
17, 443520, Note_on_c, 11, 81, 105
17, 443520, Note_on_c, 11, 90, 105
17, 443776, Note_off_c, 11, 65, 0
17, 443776, Note_off_c, 11, 72, 0
17, 443776, Note_off_c, 11, 81, 0
17, 443776, Note_off_c, 11, 90, 0
17, 443776, Note_on_c, 11, 64, 110
17, 443776, Note_on_c, 11, 72, 110
17, 443776, Note_on_c, 11, 81, 110
17, 443776, Note_on_c, 11, 90, 110
17, 444032, Note_off_c, 11, 64, 0
17, 444032, Note_off_c, 11, 72, 0
17, 444032, Note_off_c, 11, 81, 0
17, 444032, Note_off_c, 11, 90, 0
17, 444032, Note_on_c, 11, 65, 102
17, 444032, Note_on_c, 11, 71, 102
17, 444032, Note_on_c, 11, 81, 102
17, 444032, Note_on_c, 11, 86, 102
17, 444288, Note_off_c, 11, 65, 0
17, 444288, Note_off_c, 11, 71, 0
17, 444288, Note_off_c, 11, 81, 0
17, 444288, Note_off_c, 11, 86, 0
17, 444288, Note_on_c, 11, 66, 114
17, 444288, Note_on_c, 11, 72, 114
17, 444288, Note_on_c, 11, 81, 114
17, 444288, Note_on_c, 11, 86, 114
17, 444544, Note_off_c, 11, 66, 0
17, 444544, Note_off_c, 11, 72, 0
17, 444544, Note_off_c, 11, 81, 0
17, 444544, Note_off_c, 11, 86, 0
17, 444544, Note_on_c, 11, 64, 96
17, 444544, Note_on_c, 11, 68, 96
17, 444544, Note_on_c, 11, 78, 96
17, 444544, Note_on_c, 11, 81, 96
17, 444800, Note_off_c, 11, 64, 0
17, 444800, Note_off_c, 11, 68, 0
17, 444800, Note_off_c, 11, 78, 0
17, 444800, Note_off_c, 11, 81, 0
17, 444800, Note_on_c, 11, 66, 124
17, 444800, Note_on_c, 11, 70, 124
17, 444800, Note_on_c, 11, 80, 124
17, 444800, Note_on_c, 11, 85, 124
17, 445056, Note_off_c, 11, 66, 0
17, 445056, Note_off_c, 11, 70, 0
17, 445056, Note_off_c, 11, 80, 0
17, 445056, Note_off_c, 11, 85, 0
17, 445056, Note_on_c, 11, 59, 127
17, 445056, Note_on_c, 11, 66, 127
17, 445056, Note_on_c, 11, 83, 127
17, 445056, Note_on_c, 11, 90, 127
17, 445312, Note_off_c, 11, 59, 0
17, 445312, Note_off_c, 11, 66, 0
17, 445312, Note_off_c, 11, 83, 0
17, 445312, Note_off_c, 11, 90, 0
17, 445312, Note_on_c, 11, 66, 104
17, 445312, Note_on_c, 11, 71, 104
17, 445312, Note_on_c, 11, 81, 104
17, 445312, Note_on_c, 11, 86, 104
17, 445568, Note_off_c, 11, 66, 0
17, 445568, Note_off_c, 11, 71, 0
17, 445568, Note_off_c, 11, 81, 0
17, 445568, Note_off_c, 11, 86, 0
17, 445568, Note_on_c, 11, 73, 113
17, 445568, Note_on_c, 11, 78, 113
17, 445568, Note_on_c, 11, 81, 113
17, 445568, Note_on_c, 11, 86, 113
17, 445824, Note_off_c, 11, 73, 0
17, 445824, Note_off_c, 11, 78, 0
17, 445824, Note_off_c, 11, 81, 0
17, 445824, Note_off_c, 11, 86, 0
17, 445824, Note_on_c, 11, 73, 112
17, 445824, Note_on_c, 11, 78, 112
17, 445824, Note_on_c, 11, 81, 112
17, 445824, Note_on_c, 11, 86, 112
17, 446080, Note_off_c, 11, 73, 0
17, 446080, Note_off_c, 11, 78, 0
17, 446080, Note_off_c, 11, 81, 0
17, 446080, Note_off_c, 11, 86, 0
17, 446080, Note_on_c, 11, 66, 100
17, 446080, Note_on_c, 11, 71, 100
17, 446080, Note_on_c, 11, 73, 100
17, 446080, Note_on_c, 11, 81, 100
17, 446336, Note_off_c, 11, 66, 0
17, 446336, Note_off_c, 11, 71, 0
17, 446336, Note_off_c, 11, 73, 0
17, 446336, Note_off_c, 11, 81, 0
17, 446336, Note_on_c, 11, 67, 109
17, 446336, Note_on_c, 11, 71, 109
17, 446336, Note_on_c, 11, 73, 109
17, 446336, Note_on_c, 11, 81, 109
17, 446592, Note_off_c, 11, 67, 0
17, 446592, Note_off_c, 11, 71, 0
17, 446592, Note_off_c, 11, 73, 0
17, 446592, Note_off_c, 11, 81, 0
17, 446592, Note_on_c, 11, 67, 111
17, 446592, Note_on_c, 11, 71, 111
17, 446592, Note_on_c, 11, 73, 111
17, 446592, Note_on_c, 11, 81, 111
17, 446720, Note_off_c, 11, 67, 0
17, 446720, Note_off_c, 11, 71, 0
17, 446720, Note_off_c, 11, 73, 0
17, 446720, Note_off_c, 11, 81, 0
17, 446720, Note_on_c, 11, 66, 127
17, 446720, Note_on_c, 11, 70, 127
17, 446720, Note_on_c, 11, 73, 127
17, 446720, Note_on_c, 11, 81, 127
17, 446720, Note_on_c, 11, 93, 127
17, 446848, Note_off_c, 11, 66, 0
17, 446848, Note_off_c, 11, 70, 0
17, 446848, Note_off_c, 11, 73, 0
17, 446848, Note_off_c, 11, 81, 0
17, 446848, Note_off_c, 11, 93, 0
17, 446848, Note_on_c, 11, 66, 125
17, 446848, Note_on_c, 11, 70, 125
17, 446848, Note_on_c, 11, 73, 125
17, 446848, Note_on_c, 11, 81, 125
17, 446848, Note_on_c, 11, 93, 125
17, 447104, Note_off_c, 11, 66, 0
17, 447104, Note_off_c, 11, 70, 0
17, 447104, Note_off_c, 11, 73, 0
17, 447104, Note_off_c, 11, 81, 0
17, 447104, Note_off_c, 11, 93, 0
17, 447104, Note_on_c, 11, 65, 109
17, 447104, Note_on_c, 11, 69, 109
17, 447104, Note_on_c, 11, 72, 109
17, 447104, Note_on_c, 11, 81, 109
17, 447104, Note_on_c, 11, 93, 109
17, 447488, Note_off_c, 11, 65, 0
17, 447488, Note_off_c, 11, 69, 0
17, 447488, Note_off_c, 11, 72, 0
17, 447488, Note_off_c, 11, 81, 0
17, 447488, Note_off_c, 11, 93, 0
17, 447488, Note_on_c, 11, 69, 114
17, 447488, Note_on_c, 11, 73, 114
17, 447488, Note_on_c, 11, 75, 114
17, 447488, Note_on_c, 11, 80, 114
17, 447488, Note_on_c, 11, 93, 114
17, 447744, Note_off_c, 11, 69, 0
17, 447744, Note_off_c, 11, 73, 0
17, 447744, Note_off_c, 11, 75, 0
17, 447744, Note_off_c, 11, 80, 0
17, 447744, Note_off_c, 11, 93, 0
17, 447744, Note_on_c, 11, 69, 108
17, 447744, Note_on_c, 11, 73, 108
17, 447744, Note_on_c, 11, 75, 108
17, 447744, Note_on_c, 11, 80, 108
17, 447744, Note_on_c, 11, 93, 108
17, 448000, Note_off_c, 11, 69, 0
17, 448000, Note_off_c, 11, 73, 0
17, 448000, Note_off_c, 11, 75, 0
17, 448000, Note_off_c, 11, 80, 0
17, 448000, Note_off_c, 11, 93, 0
17, 448000, Note_on_c, 11, 67, 108
17, 448000, Note_on_c, 11, 71, 108
17, 448000, Note_on_c, 11, 73, 108
17, 448000, Note_on_c, 11, 78, 108
17, 448000, Note_on_c, 11, 93, 108
17, 448256, Note_off_c, 11, 67, 0
17, 448256, Note_off_c, 11, 71, 0
17, 448256, Note_off_c, 11, 73, 0
17, 448256, Note_off_c, 11, 78, 0
17, 448256, Note_off_c, 11, 93, 0
17, 448256, Note_on_c, 11, 66, 113
17, 448256, Note_on_c, 11, 68, 113
17, 448256, Note_on_c, 11, 73, 113
17, 448256, Note_on_c, 11, 78, 113
17, 448256, Note_on_c, 11, 93, 113
17, 448512, Note_off_c, 11, 66, 0
17, 448512, Note_off_c, 11, 68, 0
17, 448512, Note_off_c, 11, 73, 0
17, 448512, Note_off_c, 11, 78, 0
17, 448512, Note_off_c, 11, 93, 0
17, 448512, Note_on_c, 11, 66, 116
17, 448512, Note_on_c, 11, 68, 116
17, 448512, Note_on_c, 11, 73, 116
17, 448512, Note_on_c, 11, 78, 116
17, 448512, Note_on_c, 11, 93, 116
17, 448768, Note_off_c, 11, 66, 0
17, 448768, Note_off_c, 11, 68, 0
17, 448768, Note_off_c, 11, 73, 0
17, 448768, Note_off_c, 11, 78, 0
17, 448768, Note_off_c, 11, 93, 0
17, 448768, Note_on_c, 11, 65, 116
17, 448768, Note_on_c, 11, 73, 116
17, 448768, Note_on_c, 11, 74, 116
17, 448768, Note_on_c, 11, 93, 116
17, 448896, Note_off_c, 11, 65, 0
17, 448896, Note_off_c, 11, 73, 0
17, 448896, Note_off_c, 11, 74, 0
17, 448896, Note_off_c, 11, 93, 0
17, 448896, Note_on_c, 11, 67, 113
17, 448896, Note_on_c, 11, 74, 113
17, 448896, Note_on_c, 11, 76, 113
17, 448896, Note_on_c, 11, 93, 113
17, 449152, Note_off_c, 11, 67, 0
17, 449152, Note_off_c, 11, 74, 0
17, 449152, Note_off_c, 11, 76, 0
17, 449152, Note_off_c, 11, 93, 0
17, 449152, Note_on_c, 11, 64, 117
17, 449152, Note_on_c, 11, 73, 117
17, 449152, Note_on_c, 11, 81, 117
17, 449152, Note_on_c, 11, 88, 117
17, 449152, Note_on_c, 11, 93, 117
17, 449408, Note_off_c, 11, 64, 0
17, 449408, Note_off_c, 11, 73, 0
17, 449408, Note_off_c, 11, 81, 0
17, 449408, Note_off_c, 11, 88, 0
17, 449408, Note_off_c, 11, 93, 0
17, 449408, Note_on_c, 11, 69, 113
17, 449408, Note_on_c, 11, 73, 113
17, 449408, Note_on_c, 11, 76, 113
17, 449408, Note_on_c, 11, 80, 113
17, 449408, Note_on_c, 11, 93, 113
17, 449536, Note_off_c, 11, 69, 0
17, 449536, Note_off_c, 11, 73, 0
17, 449536, Note_off_c, 11, 76, 0
17, 449536, Note_off_c, 11, 80, 0
17, 449536, Note_off_c, 11, 93, 0
17, 449536, Note_on_c, 11, 69, 114
17, 449536, Note_on_c, 11, 73, 114
17, 449536, Note_on_c, 11, 76, 114
17, 449536, Note_on_c, 11, 80, 114
17, 449536, Note_on_c, 11, 93, 114
17, 449664, Note_off_c, 11, 69, 0
17, 449664, Note_off_c, 11, 73, 0
17, 449664, Note_off_c, 11, 76, 0
17, 449664, Note_off_c, 11, 80, 0
17, 449664, Note_off_c, 11, 93, 0
17, 449664, Note_on_c, 11, 70, 106
17, 449664, Note_on_c, 11, 72, 106
17, 449664, Note_on_c, 11, 76, 106
17, 449664, Note_on_c, 11, 78, 106
17, 449664, Note_on_c, 11, 93, 106
17, 449920, Note_off_c, 11, 70, 0
17, 449920, Note_off_c, 11, 72, 0
17, 449920, Note_off_c, 11, 76, 0
17, 449920, Note_off_c, 11, 78, 0
17, 449920, Note_off_c, 11, 93, 0
17, 449920, Note_on_c, 11, 67, 112
17, 449920, Note_on_c, 11, 70, 112
17, 449920, Note_on_c, 11, 72, 112
17, 449920, Note_on_c, 11, 76, 112
17, 449920, Note_on_c, 11, 93, 112
17, 450176, Note_off_c, 11, 67, 0
17, 450176, Note_off_c, 11, 70, 0
17, 450176, Note_off_c, 11, 72, 0
17, 450176, Note_off_c, 11, 76, 0
17, 450176, Note_off_c, 11, 93, 0
17, 450176, Note_on_c, 11, 69, 111
17, 450176, Note_on_c, 11, 70, 111
17, 450176, Note_on_c, 11, 74, 111
17, 450176, Note_on_c, 11, 78, 111
17, 450176, Note_on_c, 11, 93, 111
17, 450432, Note_off_c, 11, 69, 0
17, 450432, Note_off_c, 11, 70, 0
17, 450432, Note_off_c, 11, 74, 0
17, 450432, Note_off_c, 11, 78, 0
17, 450432, Note_off_c, 11, 93, 0
17, 450432, Note_on_c, 11, 63, 113
17, 450432, Note_on_c, 11, 72, 113
17, 450432, Note_on_c, 11, 78, 113
17, 450432, Note_on_c, 11, 86, 113
17, 450432, Note_on_c, 11, 93, 113
17, 450688, Note_off_c, 11, 63, 0
17, 450688, Note_off_c, 11, 72, 0
17, 450688, Note_off_c, 11, 78, 0
17, 450688, Note_off_c, 11, 86, 0
17, 450688, Note_off_c, 11, 93, 0
17, 450688, Note_on_c, 11, 64, 120
17, 450688, Note_on_c, 11, 70, 120
17, 450688, Note_on_c, 11, 74, 120
17, 450688, Note_on_c, 11, 80, 120
17, 450688, Note_on_c, 11, 95, 120
17, 450944, Note_off_c, 11, 64, 0
17, 450944, Note_off_c, 11, 70, 0
17, 450944, Note_off_c, 11, 74, 0
17, 450944, Note_off_c, 11, 80, 0
17, 450944, Note_off_c, 11, 95, 0
17, 450944, Note_on_c, 11, 69, 105
17, 450944, Note_on_c, 11, 71, 105
17, 450944, Note_on_c, 11, 76, 105
17, 450944, Note_on_c, 11, 80, 105
17, 450944, Note_on_c, 11, 92, 105
17, 451200, Note_off_c, 11, 69, 0
17, 451200, Note_off_c, 11, 71, 0
17, 451200, Note_off_c, 11, 76, 0
17, 451200, Note_off_c, 11, 80, 0
17, 451200, Note_off_c, 11, 92, 0
17, 451200, Note_on_c, 11, 64, 118
17, 451200, Note_on_c, 11, 71, 118
17, 451200, Note_on_c, 11, 72, 118
17, 451200, Note_on_c, 11, 86, 118
17, 451200, Note_on_c, 11, 93, 118
17, 451456, Note_off_c, 11, 64, 0
17, 451456, Note_off_c, 11, 71, 0
17, 451456, Note_off_c, 11, 72, 0
17, 451456, Note_off_c, 11, 86, 0
17, 451456, Note_off_c, 11, 93, 0
17, 451456, Note_on_c, 11, 71, 114
17, 451456, Note_on_c, 11, 72, 114
17, 451456, Note_on_c, 11, 78, 114
17, 451456, Note_on_c, 11, 86, 114
17, 451456, Note_on_c, 11, 93, 114
17, 451712, Note_off_c, 11, 71, 0
17, 451712, Note_off_c, 11, 72, 0
17, 451712, Note_off_c, 11, 78, 0
17, 451712, Note_off_c, 11, 86, 0
17, 451712, Note_off_c, 11, 93, 0
17, 451712, Note_on_c, 11, 71, 110
17, 451712, Note_on_c, 11, 72, 110
17, 451712, Note_on_c, 11, 78, 110
17, 451712, Note_on_c, 11, 86, 110
17, 451712, Note_on_c, 11, 93, 110
17, 451840, Note_off_c, 11, 71, 0
17, 451840, Note_off_c, 11, 72, 0
17, 451840, Note_off_c, 11, 78, 0
17, 451840, Note_off_c, 11, 86, 0
17, 451840, Note_off_c, 11, 93, 0
17, 451840, Note_on_c, 11, 69, 114
17, 451840, Note_on_c, 11, 71, 114
17, 451840, Note_on_c, 11, 74, 114
17, 451840, Note_on_c, 11, 83, 114
17, 451840, Note_on_c, 11, 93, 114
17, 452096, Note_off_c, 11, 69, 0
17, 452096, Note_off_c, 11, 71, 0
17, 452096, Note_off_c, 11, 74, 0
17, 452096, Note_off_c, 11, 83, 0
17, 452096, Note_off_c, 11, 93, 0
17, 452096, Note_on_c, 11, 67, 115
17, 452096, Note_on_c, 11, 70, 115
17, 452096, Note_on_c, 11, 78, 115
17, 452096, Note_on_c, 11, 85, 115
17, 452096, Note_on_c, 11, 93, 115
17, 452352, Note_off_c, 11, 67, 0
17, 452352, Note_off_c, 11, 70, 0
17, 452352, Note_off_c, 11, 78, 0
17, 452352, Note_off_c, 11, 85, 0
17, 452352, Note_off_c, 11, 93, 0
17, 452352, Note_on_c, 11, 67, 124
17, 452352, Note_on_c, 11, 71, 124
17, 452352, Note_on_c, 11, 73, 124
17, 452352, Note_on_c, 11, 83, 124
17, 452352, Note_on_c, 11, 95, 124
17, 452480, Note_off_c, 11, 67, 0
17, 452480, Note_off_c, 11, 71, 0
17, 452480, Note_off_c, 11, 73, 0
17, 452480, Note_off_c, 11, 83, 0
17, 452480, Note_off_c, 11, 95, 0
17, 452480, Note_on_c, 11, 69, 106
17, 452480, Note_on_c, 11, 73, 106
17, 452480, Note_on_c, 11, 78, 106
17, 452480, Note_on_c, 11, 81, 106
17, 452480, Note_on_c, 11, 92, 106
17, 452608, Note_off_c, 11, 69, 0
17, 452608, Note_off_c, 11, 73, 0
17, 452608, Note_off_c, 11, 78, 0
17, 452608, Note_off_c, 11, 81, 0
17, 452608, Note_off_c, 11, 92, 0
17, 452608, Note_on_c, 11, 71, 120
17, 452608, Note_on_c, 11, 73, 120
17, 452608, Note_on_c, 11, 78, 120
17, 452608, Note_on_c, 11, 86, 120
17, 452608, Note_on_c, 11, 93, 120
17, 452736, Note_off_c, 11, 71, 0
17, 452736, Note_off_c, 11, 73, 0
17, 452736, Note_off_c, 11, 78, 0
17, 452736, Note_off_c, 11, 86, 0
17, 452736, Note_off_c, 11, 93, 0
17, 452736, Note_on_c, 11, 69, 112
17, 452736, Note_on_c, 11, 71, 112
17, 452736, Note_on_c, 11, 76, 112
17, 452736, Note_on_c, 11, 92, 112
17, 452736, Note_on_c, 11, 93, 112
17, 452992, Note_off_c, 11, 69, 0
17, 452992, Note_off_c, 11, 71, 0
17, 452992, Note_off_c, 11, 76, 0
17, 452992, Note_off_c, 11, 92, 0
17, 452992, Note_off_c, 11, 93, 0
17, 452992, Note_on_c, 11, 67, 114
17, 452992, Note_on_c, 11, 74, 114
17, 452992, Note_on_c, 11, 77, 114
17, 452992, Note_on_c, 11, 90, 114
17, 452992, Note_on_c, 11, 93, 114
17, 453248, Note_off_c, 11, 67, 0
17, 453248, Note_off_c, 11, 74, 0
17, 453248, Note_off_c, 11, 77, 0
17, 453248, Note_off_c, 11, 90, 0
17, 453248, Note_off_c, 11, 93, 0
17, 453248, Note_on_c, 11, 69, 109
17, 453248, Note_on_c, 11, 71, 109
17, 453248, Note_on_c, 11, 76, 109
17, 453248, Note_on_c, 11, 92, 109
17, 453248, Note_on_c, 11, 93, 109
17, 453504, Note_off_c, 11, 69, 0
17, 453504, Note_off_c, 11, 71, 0
17, 453504, Note_off_c, 11, 76, 0
17, 453504, Note_off_c, 11, 92, 0
17, 453504, Note_off_c, 11, 93, 0
17, 453504, Note_on_c, 11, 69, 109
17, 453504, Note_on_c, 11, 72, 109
17, 453504, Note_on_c, 11, 78, 109
17, 453504, Note_on_c, 11, 90, 109
17, 453504, Note_on_c, 11, 93, 109
17, 453760, Note_off_c, 11, 69, 0
17, 453760, Note_off_c, 11, 72, 0
17, 453760, Note_off_c, 11, 78, 0
17, 453760, Note_off_c, 11, 90, 0
17, 453760, Note_off_c, 11, 93, 0
17, 453760, Note_on_c, 11, 65, 111
17, 453760, Note_on_c, 11, 69, 111
17, 453760, Note_on_c, 11, 72, 111
17, 453760, Note_on_c, 11, 86, 111
17, 453760, Note_on_c, 11, 93, 111
17, 454016, Note_off_c, 11, 65, 0
17, 454016, Note_off_c, 11, 69, 0
17, 454016, Note_off_c, 11, 72, 0
17, 454016, Note_off_c, 11, 86, 0
17, 454016, Note_off_c, 11, 93, 0
17, 454016, Note_on_c, 11, 64, 109
17, 454016, Note_on_c, 11, 69, 109
17, 454016, Note_on_c, 11, 72, 109
17, 454016, Note_on_c, 11, 86, 109
17, 454016, Note_on_c, 11, 93, 109
17, 454272, Note_off_c, 11, 64, 0
17, 454272, Note_off_c, 11, 69, 0
17, 454272, Note_off_c, 11, 72, 0
17, 454272, Note_off_c, 11, 86, 0
17, 454272, Note_off_c, 11, 93, 0
17, 454272, Note_on_c, 11, 65, 114
17, 454272, Note_on_c, 11, 69, 114
17, 454272, Note_on_c, 11, 74, 114
17, 454272, Note_on_c, 11, 83, 114
17, 454272, Note_on_c, 11, 93, 114
17, 454528, Note_off_c, 11, 65, 0
17, 454528, Note_off_c, 11, 69, 0
17, 454528, Note_off_c, 11, 74, 0
17, 454528, Note_off_c, 11, 83, 0
17, 454528, Note_off_c, 11, 93, 0
17, 454528, Note_on_c, 11, 69, 111
17, 454528, Note_on_c, 11, 76, 111
17, 454528, Note_on_c, 11, 78, 111
17, 454528, Note_on_c, 11, 86, 111
17, 454528, Note_on_c, 11, 93, 111
17, 454656, Note_off_c, 11, 69, 0
17, 454656, Note_off_c, 11, 76, 0
17, 454656, Note_off_c, 11, 78, 0
17, 454656, Note_off_c, 11, 86, 0
17, 454656, Note_off_c, 11, 93, 0
17, 454656, Note_on_c, 11, 66, 84
17, 454656, Note_on_c, 11, 70, 84
17, 454656, Note_on_c, 11, 74, 84
17, 454784, Note_off_c, 11, 66, 0
17, 454784, Note_off_c, 11, 70, 0
17, 454784, Note_off_c, 11, 74, 0
17, 454784, Note_on_c, 11, 68, 127
17, 454784, Note_on_c, 11, 72, 127
17, 454784, Note_on_c, 11, 78, 127
17, 454784, Note_on_c, 11, 86, 127
17, 454784, Note_on_c, 11, 93, 127
17, 455040, Note_off_c, 11, 68, 0
17, 455040, Note_off_c, 11, 72, 0
17, 455040, Note_off_c, 11, 78, 0
17, 455040, Note_off_c, 11, 86, 0
17, 455040, Note_off_c, 11, 93, 0
17, 455040, Note_on_c, 11, 63, 113
17, 455040, Note_on_c, 11, 69, 113
17, 455040, Note_on_c, 11, 86, 113
17, 455040, Note_on_c, 11, 93, 113
17, 455296, Note_off_c, 11, 63, 0
17, 455296, Note_off_c, 11, 69, 0
17, 455296, Note_off_c, 11, 86, 0
17, 455296, Note_off_c, 11, 93, 0
17, 455296, Note_on_c, 11, 59, 112
17, 455296, Note_on_c, 11, 65, 112
17, 455296, Note_on_c, 11, 67, 112
17, 455296, Note_on_c, 11, 86, 112
17, 455296, Note_on_c, 11, 93, 112
17, 455552, Note_off_c, 11, 59, 0
17, 455552, Note_off_c, 11, 65, 0
17, 455552, Note_off_c, 11, 67, 0
17, 455552, Note_off_c, 11, 86, 0
17, 455552, Note_off_c, 11, 93, 0
17, 455552, Note_on_c, 11, 57, 115
17, 455552, Note_on_c, 11, 63, 115
17, 455552, Note_on_c, 11, 68, 115
17, 455552, Note_on_c, 11, 82, 115
17, 455552, Note_on_c, 11, 93, 115
17, 455808, Note_off_c, 11, 57, 0
17, 455808, Note_off_c, 11, 63, 0
17, 455808, Note_off_c, 11, 68, 0
17, 455808, Note_off_c, 11, 82, 0
17, 455808, Note_off_c, 11, 93, 0
17, 455808, Note_on_c, 11, 66, 110
17, 455808, Note_on_c, 11, 69, 110
17, 455808, Note_on_c, 11, 74, 110
17, 455808, Note_on_c, 11, 81, 110
17, 455808, Note_on_c, 11, 93, 110
17, 456064, Note_off_c, 11, 66, 0
17, 456064, Note_off_c, 11, 69, 0
17, 456064, Note_off_c, 11, 74, 0
17, 456064, Note_off_c, 11, 81, 0
17, 456064, Note_off_c, 11, 93, 0
17, 456064, Note_on_c, 11, 67, 115
17, 456064, Note_on_c, 11, 71, 115
17, 456064, Note_on_c, 11, 76, 115
17, 456064, Note_on_c, 11, 88, 115
17, 456064, Note_on_c, 11, 93, 115
17, 456320, Note_off_c, 11, 67, 0
17, 456320, Note_off_c, 11, 71, 0
17, 456320, Note_off_c, 11, 76, 0
17, 456320, Note_off_c, 11, 88, 0
17, 456320, Note_off_c, 11, 93, 0
17, 456320, Note_on_c, 11, 65, 111
17, 456320, Note_on_c, 11, 69, 111
17, 456320, Note_on_c, 11, 74, 111
17, 456320, Note_on_c, 11, 83, 111
17, 456320, Note_on_c, 11, 93, 111
17, 456448, Note_off_c, 11, 65, 0
17, 456448, Note_off_c, 11, 69, 0
17, 456448, Note_off_c, 11, 74, 0
17, 456448, Note_off_c, 11, 83, 0
17, 456448, Note_off_c, 11, 93, 0
17, 456448, Note_on_c, 11, 69, 115
17, 456448, Note_on_c, 11, 76, 115
17, 456448, Note_on_c, 11, 80, 115
17, 456448, Note_on_c, 11, 86, 115
17, 456448, Note_on_c, 11, 93, 115
17, 456704, Note_off_c, 11, 69, 0
17, 456704, Note_off_c, 11, 76, 0
17, 456704, Note_off_c, 11, 80, 0
17, 456704, Note_off_c, 11, 86, 0
17, 456704, Note_off_c, 11, 93, 0
17, 456704, Note_on_c, 11, 69, 113
17, 456704, Note_on_c, 11, 76, 113
17, 456704, Note_on_c, 11, 80, 113
17, 456704, Note_on_c, 11, 86, 113
17, 456704, Note_on_c, 11, 93, 113
17, 456960, Note_off_c, 11, 69, 0
17, 456960, Note_off_c, 11, 76, 0
17, 456960, Note_off_c, 11, 80, 0
17, 456960, Note_off_c, 11, 86, 0
17, 456960, Note_off_c, 11, 93, 0
17, 456960, Note_on_c, 11, 67, 110
17, 456960, Note_on_c, 11, 71, 110
17, 456960, Note_on_c, 11, 74, 110
17, 456960, Note_on_c, 11, 86, 110
17, 456960, Note_on_c, 11, 93, 110
17, 457216, Note_off_c, 11, 67, 0
17, 457216, Note_off_c, 11, 71, 0
17, 457216, Note_off_c, 11, 74, 0
17, 457216, Note_off_c, 11, 86, 0
17, 457216, Note_off_c, 11, 93, 0
17, 457216, Note_on_c, 11, 66, 112
17, 457216, Note_on_c, 11, 73, 112
17, 457216, Note_on_c, 11, 78, 112
17, 457216, Note_on_c, 11, 86, 112
17, 457216, Note_on_c, 11, 93, 112
17, 457344, Note_off_c, 11, 66, 0
17, 457344, Note_off_c, 11, 73, 0
17, 457344, Note_off_c, 11, 78, 0
17, 457344, Note_off_c, 11, 86, 0
17, 457344, Note_off_c, 11, 93, 0
17, 457344, Note_on_c, 11, 65, 115
17, 457344, Note_on_c, 11, 69, 115
17, 457344, Note_on_c, 11, 72, 115
17, 457344, Note_on_c, 11, 86, 115
17, 457344, Note_on_c, 11, 93, 115
17, 457600, Note_off_c, 11, 65, 0
17, 457600, Note_off_c, 11, 69, 0
17, 457600, Note_off_c, 11, 72, 0
17, 457600, Note_off_c, 11, 86, 0
17, 457600, Note_off_c, 11, 93, 0
17, 457600, Note_on_c, 11, 65, 112
17, 457600, Note_on_c, 11, 69, 112
17, 457600, Note_on_c, 11, 72, 112
17, 457600, Note_on_c, 11, 86, 112
17, 457600, Note_on_c, 11, 93, 112
17, 457728, Note_off_c, 11, 65, 0
17, 457728, Note_off_c, 11, 69, 0
17, 457728, Note_off_c, 11, 72, 0
17, 457728, Note_off_c, 11, 86, 0
17, 457728, Note_off_c, 11, 93, 0
17, 457728, Note_on_c, 11, 64, 113
17, 457728, Note_on_c, 11, 71, 113
17, 457728, Note_on_c, 11, 72, 113
17, 457728, Note_on_c, 11, 86, 113
17, 457728, Note_on_c, 11, 93, 113
17, 457984, Note_off_c, 11, 64, 0
17, 457984, Note_off_c, 11, 71, 0
17, 457984, Note_off_c, 11, 72, 0
17, 457984, Note_off_c, 11, 86, 0
17, 457984, Note_off_c, 11, 93, 0
17, 457984, Note_on_c, 11, 64, 112
17, 457984, Note_on_c, 11, 71, 112
17, 457984, Note_on_c, 11, 72, 112
17, 457984, Note_on_c, 11, 86, 112
17, 457984, Note_on_c, 11, 93, 112
17, 458112, Note_off_c, 11, 64, 0
17, 458112, Note_off_c, 11, 71, 0
17, 458112, Note_off_c, 11, 72, 0
17, 458112, Note_off_c, 11, 86, 0
17, 458112, Note_off_c, 11, 93, 0
17, 458112, Note_on_c, 11, 64, 92
17, 458112, Note_on_c, 11, 71, 92
17, 458112, Note_on_c, 11, 72, 92
17, 458112, Note_on_c, 11, 81, 92
17, 458112, Note_on_c, 11, 86, 92
17, 458368, Note_off_c, 11, 64, 0
17, 458368, Note_off_c, 11, 71, 0
17, 458368, Note_off_c, 11, 72, 0
17, 458368, Note_off_c, 11, 81, 0
17, 458368, Note_off_c, 11, 86, 0
17, 458368, Note_on_c, 11, 66, 107
17, 458368, Note_on_c, 11, 72, 107
17, 458368, Note_on_c, 11, 78, 107
17, 458368, Note_on_c, 11, 82, 107
17, 458368, Note_on_c, 11, 86, 107
17, 458496, Note_off_c, 11, 66, 0
17, 458496, Note_off_c, 11, 72, 0
17, 458496, Note_off_c, 11, 78, 0
17, 458496, Note_off_c, 11, 82, 0
17, 458496, Note_off_c, 11, 86, 0
17, 458496, Note_on_c, 11, 63, 127
17, 458496, Note_on_c, 11, 69, 127
17, 458496, Note_on_c, 11, 70, 127
17, 458496, Note_on_c, 11, 86, 127
17, 458496, Note_on_c, 11, 93, 127
17, 458752, Note_off_c, 11, 63, 0
17, 458752, Note_off_c, 11, 69, 0
17, 458752, Note_off_c, 11, 70, 0
17, 458752, Note_off_c, 11, 86, 0
17, 458752, Note_off_c, 11, 93, 0
17, 458752, Note_on_c, 11, 65, 119
17, 458752, Note_on_c, 11, 69, 119
17, 458752, Note_on_c, 11, 72, 119
17, 458752, Note_on_c, 11, 86, 119
17, 458752, Note_on_c, 11, 93, 119
17, 458880, Note_off_c, 11, 65, 0
17, 458880, Note_off_c, 11, 69, 0
17, 458880, Note_off_c, 11, 72, 0
17, 458880, Note_off_c, 11, 86, 0
17, 458880, Note_off_c, 11, 93, 0
17, 458880, Note_on_c, 11, 72, 117
17, 458880, Note_on_c, 11, 74, 117
17, 458880, Note_on_c, 11, 82, 117
17, 458880, Note_on_c, 11, 86, 117
17, 458880, Note_on_c, 11, 93, 117
17, 459136, Note_off_c, 11, 72, 0
17, 459136, Note_off_c, 11, 74, 0
17, 459136, Note_off_c, 11, 82, 0
17, 459136, Note_off_c, 11, 86, 0
17, 459136, Note_off_c, 11, 93, 0
17, 459136, Note_on_c, 11, 72, 112
17, 459136, Note_on_c, 11, 74, 112
17, 459136, Note_on_c, 11, 82, 112
17, 459136, Note_on_c, 11, 86, 112
17, 459136, Note_on_c, 11, 93, 112
17, 459264, Note_off_c, 11, 72, 0
17, 459264, Note_off_c, 11, 74, 0
17, 459264, Note_off_c, 11, 82, 0
17, 459264, Note_off_c, 11, 86, 0
17, 459264, Note_off_c, 11, 93, 0
17, 459264, Note_on_c, 11, 60, 115
17, 459264, Note_on_c, 11, 74, 115
17, 459264, Note_on_c, 11, 76, 115
17, 459264, Note_on_c, 11, 85, 115
17, 459264, Note_on_c, 11, 86, 115
17, 459264, Note_on_c, 11, 93, 115
17, 459520, Note_off_c, 11, 60, 0
17, 459520, Note_off_c, 11, 74, 0
17, 459520, Note_off_c, 11, 76, 0
17, 459520, Note_off_c, 11, 85, 0
17, 459520, Note_off_c, 11, 86, 0
17, 459520, Note_off_c, 11, 93, 0
17, 459520, Note_on_c, 11, 54, 92
17, 459520, Note_on_c, 11, 62, 92
17, 459648, Note_off_c, 11, 54, 0
17, 459648, Note_off_c, 11, 62, 0
17, 459648, Note_on_c, 11, 52, 110
17, 459648, Note_on_c, 11, 60, 110
17, 459776, Note_off_c, 11, 52, 0
17, 459776, Note_off_c, 11, 60, 0
17, 459776, Note_on_c, 11, 50, 121
17, 459776, Note_on_c, 11, 58, 121
17, 459904, Note_off_c, 11, 50, 0
17, 459904, Note_off_c, 11, 58, 0
17, 459904, Note_on_c, 11, 48, 119
17, 459904, Note_on_c, 11, 56, 119
17, 460032, Note_off_c, 11, 48, 0
17, 460032, Note_off_c, 11, 56, 0
17, 460032, Note_on_c, 11, 46, 121
17, 460032, Note_on_c, 11, 55, 121
17, 460160, Note_off_c, 11, 46, 0
17, 460160, Note_off_c, 11, 55, 0
17, 460160, Note_on_c, 11, 45, 127
17, 460160, Note_on_c, 11, 54, 127
17, 460288, Note_off_c, 11, 45, 0
17, 460288, Note_off_c, 11, 54, 0
17, 460288, Note_on_c, 11, 43, 120
17, 460288, Note_on_c, 11, 52, 120
17, 460416, Note_off_c, 11, 43, 0
17, 460416, Note_off_c, 11, 52, 0
17, 460416, Note_on_c, 11, 42, 127
17, 460416, Note_on_c, 11, 50, 127
17, 460544, Note_off_c, 11, 42, 0
17, 460544, Note_off_c, 11, 50, 0
17, 460544, Note_on_c, 11, 48, 127
17, 460544, Note_on_c, 11, 56, 127
17, 460672, Note_off_c, 11, 48, 0
17, 460672, Note_off_c, 11, 56, 0
17, 460672, Note_on_c, 11, 46, 123
17, 460672, Note_on_c, 11, 55, 123
17, 460800, Note_off_c, 11, 46, 0
17, 460800, Note_off_c, 11, 55, 0
17, 460800, Note_on_c, 11, 45, 126
17, 460800, Note_on_c, 11, 54, 126
17, 460928, Note_off_c, 11, 45, 0
17, 460928, Note_off_c, 11, 54, 0
17, 460928, Note_on_c, 11, 55, 127
17, 460928, Note_on_c, 11, 63, 127
17, 461056, Note_off_c, 11, 55, 0
17, 461056, Note_off_c, 11, 63, 0
17, 461056, Note_on_c, 11, 53, 127
17, 461056, Note_on_c, 11, 61, 127
17, 461184, Note_off_c, 11, 53, 0
17, 461184, Note_off_c, 11, 61, 0
17, 461184, Note_on_c, 11, 51, 124
17, 461184, Note_on_c, 11, 59, 124
17, 461312, Note_off_c, 11, 51, 0
17, 461312, Note_off_c, 11, 59, 0
17, 461312, Note_on_c, 11, 49, 124
17, 461312, Note_on_c, 11, 57, 124
17, 461440, Note_off_c, 11, 49, 0
17, 461440, Note_off_c, 11, 57, 0
17, 461440, Note_on_c, 11, 47, 125
17, 461440, Note_on_c, 11, 56, 125
17, 461568, Note_off_c, 11, 47, 0
17, 461568, Note_off_c, 11, 56, 0
17, 461568, Note_on_c, 11, 58, 127
17, 461568, Note_on_c, 11, 66, 127
17, 461696, Note_off_c, 11, 58, 0
17, 461696, Note_off_c, 11, 66, 0
17, 461696, Note_on_c, 11, 57, 127
17, 461696, Note_on_c, 11, 66, 127
17, 461824, Note_off_c, 11, 57, 0
17, 461824, Note_off_c, 11, 66, 0
17, 461824, Note_on_c, 11, 56, 120
17, 461824, Note_on_c, 11, 64, 120
17, 461952, Note_off_c, 11, 56, 0
17, 461952, Note_off_c, 11, 64, 0
17, 461952, Note_on_c, 11, 53, 114
17, 461952, Note_on_c, 11, 62, 114
17, 462080, Note_off_c, 11, 53, 0
17, 462080, Note_off_c, 11, 62, 0
17, 462080, Note_on_c, 11, 52, 122
17, 462080, Note_on_c, 11, 61, 122
17, 462208, Note_off_c, 11, 52, 0
17, 462208, Note_off_c, 11, 61, 0
17, 462208, Note_on_c, 11, 51, 122
17, 462208, Note_on_c, 11, 59, 122
17, 462336, Note_off_c, 11, 51, 0
17, 462336, Note_off_c, 11, 59, 0
17, 462336, Note_on_c, 11, 50, 125
17, 462336, Note_on_c, 11, 58, 125
17, 462464, Note_off_c, 11, 50, 0
17, 462464, Note_off_c, 11, 58, 0
17, 462464, Note_on_c, 11, 48, 124
17, 462464, Note_on_c, 11, 56, 124
17, 462592, Note_off_c, 11, 48, 0
17, 462592, Note_off_c, 11, 56, 0
17, 462592, Note_on_c, 11, 53, 127
17, 462592, Note_on_c, 11, 61, 127
17, 462720, Note_off_c, 11, 53, 0
17, 462720, Note_off_c, 11, 61, 0
17, 462720, Note_on_c, 11, 50, 126
17, 462720, Note_on_c, 11, 59, 126
17, 462848, Note_off_c, 11, 50, 0
17, 462848, Note_off_c, 11, 59, 0
17, 462848, Note_on_c, 11, 50, 124
17, 462848, Note_on_c, 11, 57, 124
17, 462976, Note_off_c, 11, 50, 0
17, 462976, Note_off_c, 11, 57, 0
17, 462976, Note_on_c, 11, 47, 121
17, 462976, Note_on_c, 11, 56, 121
17, 463104, Note_off_c, 11, 47, 0
17, 463104, Note_off_c, 11, 56, 0
17, 463104, Note_on_c, 11, 45, 124
17, 463104, Note_on_c, 11, 54, 124
17, 463232, Note_off_c, 11, 45, 0
17, 463232, Note_off_c, 11, 54, 0
17, 463232, Note_on_c, 11, 44, 123
17, 463232, Note_on_c, 11, 52, 123
17, 463360, Note_off_c, 11, 44, 0
17, 463360, Note_off_c, 11, 52, 0
17, 463360, Note_on_c, 11, 49, 127
17, 463360, Note_on_c, 11, 57, 127
17, 463488, Note_off_c, 11, 49, 0
17, 463488, Note_off_c, 11, 57, 0
17, 463488, Note_on_c, 11, 47, 127
17, 463488, Note_on_c, 11, 56, 127
17, 463616, Note_off_c, 11, 47, 0
17, 463616, Note_off_c, 11, 56, 0
17, 463616, Note_on_c, 11, 45, 122
17, 463616, Note_on_c, 11, 54, 122
17, 463744, Note_off_c, 11, 45, 0
17, 463744, Note_off_c, 11, 54, 0
17, 463744, Note_on_c, 11, 44, 125
17, 463744, Note_on_c, 11, 52, 125
17, 463872, Note_off_c, 11, 44, 0
17, 463872, Note_off_c, 11, 52, 0
17, 463872, Note_on_c, 11, 57, 127
17, 463872, Note_on_c, 11, 65, 127
17, 464000, Note_off_c, 11, 57, 0
17, 464000, Note_off_c, 11, 65, 0
17, 464000, Note_on_c, 11, 55, 124
17, 464000, Note_on_c, 11, 63, 124
17, 464128, Note_off_c, 11, 55, 0
17, 464128, Note_off_c, 11, 63, 0
17, 464128, Note_on_c, 11, 53, 123
17, 464128, Note_on_c, 11, 61, 123
17, 464256, Note_off_c, 11, 53, 0
17, 464256, Note_off_c, 11, 61, 0
17, 464256, Note_on_c, 11, 51, 122
17, 464256, Note_on_c, 11, 59, 122
17, 464384, Note_off_c, 11, 51, 0
17, 464384, Note_off_c, 11, 59, 0
17, 464384, Note_on_c, 11, 49, 122
17, 464384, Note_on_c, 11, 58, 122
17, 464512, Note_off_c, 11, 49, 0
17, 464512, Note_off_c, 11, 58, 0
17, 464512, Note_on_c, 11, 48, 121
17, 464512, Note_on_c, 11, 57, 121
17, 464640, Note_off_c, 11, 48, 0
17, 464640, Note_off_c, 11, 57, 0
17, 464640, Note_on_c, 11, 46, 122
17, 464640, Note_on_c, 11, 55, 122
17, 464768, Note_off_c, 11, 46, 0
17, 464768, Note_off_c, 11, 55, 0
17, 464768, Note_on_c, 11, 45, 122
17, 464768, Note_on_c, 11, 53, 122
17, 464896, Note_off_c, 11, 45, 0
17, 464896, Note_off_c, 11, 53, 0
17, 464896, Note_on_c, 11, 43, 123
17, 464896, Note_on_c, 11, 51, 123
17, 465024, Note_off_c, 11, 43, 0
17, 465024, Note_off_c, 11, 51, 0
17, 465024, Note_on_c, 11, 41, 122
17, 465024, Note_on_c, 11, 49, 122
17, 465152, Note_off_c, 11, 41, 0
17, 465152, Note_off_c, 11, 49, 0
17, 465152, Note_on_c, 11, 39, 121
17, 465152, Note_on_c, 11, 48, 121
17, 465280, Note_off_c, 11, 39, 0
17, 465280, Note_off_c, 11, 48, 0
17, 465280, Note_on_c, 11, 37, 121
17, 465280, Note_on_c, 11, 46, 121
17, 465408, Note_off_c, 11, 37, 0
17, 465408, Note_off_c, 11, 46, 0
17, 465408, Note_on_c, 11, 47, 127
17, 465408, Note_on_c, 11, 56, 127
17, 465536, Note_off_c, 11, 47, 0
17, 465536, Note_off_c, 11, 56, 0
17, 465536, Note_on_c, 11, 46, 121
17, 465536, Note_on_c, 11, 54, 121
17, 465664, Note_off_c, 11, 46, 0
17, 465664, Note_off_c, 11, 54, 0
17, 465664, Note_on_c, 11, 44, 126
17, 465664, Note_on_c, 11, 52, 126
17, 465792, Note_off_c, 11, 44, 0
17, 465792, Note_off_c, 11, 52, 0
17, 465792, Note_on_c, 11, 48, 127
17, 465792, Note_on_c, 11, 57, 127
17, 465920, Note_off_c, 11, 48, 0
17, 465920, Note_off_c, 11, 57, 0
17, 465920, Note_on_c, 11, 47, 122
17, 465920, Note_on_c, 11, 55, 122
17, 466048, Note_off_c, 11, 47, 0
17, 466048, Note_off_c, 11, 55, 0
17, 466048, Note_on_c, 11, 45, 122
17, 466048, Note_on_c, 11, 53, 122
17, 466176, Note_off_c, 11, 45, 0
17, 466176, Note_off_c, 11, 53, 0
17, 466176, Note_on_c, 11, 49, 127
17, 466176, Note_on_c, 11, 58, 127
17, 466304, Note_off_c, 11, 49, 0
17, 466304, Note_off_c, 11, 58, 0
17, 466304, Note_on_c, 11, 48, 125
17, 466304, Note_on_c, 11, 56, 125
17, 466432, Note_off_c, 11, 48, 0
17, 466432, Note_off_c, 11, 56, 0
17, 466432, Note_on_c, 11, 46, 123
17, 466432, Note_on_c, 11, 54, 123
17, 466560, Note_off_c, 11, 46, 0
17, 466560, Note_off_c, 11, 54, 0
17, 466560, Note_on_c, 11, 51, 127
17, 466560, Note_on_c, 11, 60, 127
17, 466688, Note_off_c, 11, 51, 0
17, 466688, Note_off_c, 11, 60, 0
17, 466688, Note_on_c, 11, 49, 127
17, 466688, Note_on_c, 11, 58, 127
17, 466816, Note_off_c, 11, 49, 0
17, 466816, Note_off_c, 11, 58, 0
17, 466816, Note_on_c, 11, 47, 119
17, 466816, Note_on_c, 11, 56, 119
17, 466944, Note_off_c, 11, 47, 0
17, 466944, Note_off_c, 11, 56, 0
17, 466944, Note_on_c, 11, 46, 123
17, 466944, Note_on_c, 11, 55, 123
17, 467072, Note_off_c, 11, 46, 0
17, 467072, Note_off_c, 11, 55, 0
17, 467072, Note_on_c, 11, 44, 127
17, 467072, Note_on_c, 11, 53, 127
17, 467200, Note_off_c, 11, 44, 0
17, 467200, Note_off_c, 11, 53, 0
17, 467200, Note_on_c, 11, 43, 126
17, 467200, Note_on_c, 11, 51, 126
17, 467328, Note_off_c, 11, 43, 0
17, 467328, Note_off_c, 11, 51, 0
17, 467328, Note_on_c, 11, 45, 127
17, 467328, Note_on_c, 11, 54, 127
17, 467456, Note_off_c, 11, 45, 0
17, 467456, Note_off_c, 11, 54, 0
17, 467456, Note_on_c, 11, 42, 117
17, 467456, Note_on_c, 11, 50, 117
17, 467584, Note_off_c, 11, 42, 0
17, 467584, Note_off_c, 11, 50, 0
17, 467584, Note_on_c, 11, 50, 127
17, 467584, Note_on_c, 11, 58, 127
17, 467712, Note_off_c, 11, 50, 0
17, 467712, Note_off_c, 11, 58, 0
17, 467712, Note_on_c, 11, 48, 127
17, 467712, Note_on_c, 11, 56, 127
17, 467840, Note_off_c, 11, 48, 0
17, 467840, Note_off_c, 11, 56, 0
17, 467840, Note_on_c, 11, 45, 124
17, 467840, Note_on_c, 11, 54, 124
17, 467968, Note_off_c, 11, 45, 0
17, 467968, Note_off_c, 11, 54, 0
17, 467968, Note_on_c, 11, 42, 122
17, 467968, Note_on_c, 11, 50, 122
17, 468096, Note_off_c, 11, 42, 0
17, 468096, Note_off_c, 11, 50, 0
17, 468096, Note_on_c, 11, 38, 120
17, 468096, Note_on_c, 11, 45, 120
17, 468160, Note_off_c, 11, 38, 0
17, 468160, Note_off_c, 11, 45, 0
17, 468161, End_track
18, 0, Start_track
18, 0, Program_c, 10, 8
18, 0, Control_c, 10, 121, 0
18, 0, Control_c, 10, 64, 0
18, 0, Control_c, 10, 91, 48
18, 0, Control_c, 10, 10, 38
18, 0, Control_c, 10, 7, 78
18, 0, Control_c, 10, 121, 0
18, 0, Control_c, 10, 64, 0
18, 0, Control_c, 10, 91, 48
18, 0, Control_c, 10, 10, 38
18, 0, Control_c, 10, 7, 78
18, 0, Title_t, "Celesta"
18, 55744, Control_c, 10, 64, 127
18, 55744, Note_on_c, 10, 69, 63
18, 55776, Note_off_c, 10, 69, 0
18, 55776, Note_on_c, 10, 70, 75
18, 55808, Note_off_c, 10, 70, 0
18, 55808, Note_on_c, 10, 72, 77
18, 55840, Note_off_c, 10, 72, 0
18, 55840, Note_on_c, 10, 73, 72
18, 55872, Note_off_c, 10, 73, 0
18, 55872, Note_on_c, 10, 75, 77
18, 55904, Note_off_c, 10, 75, 0
18, 55904, Note_on_c, 10, 84, 87
18, 55934, Note_off_c, 10, 84, 0
18, 56064, Control_c, 10, 64, 0
18, 56128, Control_c, 10, 64, 127
18, 56128, Note_on_c, 10, 64, 60
18, 56149, Note_off_c, 10, 64, 0
18, 56149, Note_on_c, 10, 69, 78
18, 56170, Note_off_c, 10, 69, 0
18, 56170, Note_on_c, 10, 70, 75
18, 56192, Note_off_c, 10, 70, 0
18, 56192, Note_on_c, 10, 72, 76
18, 56213, Note_off_c, 10, 72, 0
18, 56213, Note_on_c, 10, 73, 78
18, 56234, Note_off_c, 10, 73, 0
18, 56234, Note_on_c, 10, 84, 88
18, 56254, Note_off_c, 10, 84, 0
18, 56512, Control_c, 10, 64, 0
18, 56576, Control_c, 10, 64, 127
18, 56576, Note_on_c, 10, 64, 63
18, 56601, Note_off_c, 10, 64, 0
18, 56601, Note_on_c, 10, 69, 79
18, 56627, Note_off_c, 10, 69, 0
18, 56627, Note_on_c, 10, 70, 72
18, 56652, Note_off_c, 10, 70, 0
18, 56652, Note_on_c, 10, 73, 79
18, 56678, Note_off_c, 10, 73, 0
18, 56678, Note_on_c, 10, 75, 78
18, 56704, Note_off_c, 10, 75, 0
18, 56704, Note_on_c, 10, 84, 88
18, 56729, Note_off_c, 10, 84, 0
18, 56729, Note_on_c, 10, 81, 64
18, 56755, Note_off_c, 10, 81, 0
18, 56755, Note_on_c, 10, 87, 82
18, 56780, Note_off_c, 10, 87, 0
18, 56780, Note_on_c, 10, 84, 69
18, 56806, Note_off_c, 10, 84, 0
18, 56806, Note_on_c, 10, 81, 69
18, 56832, Note_off_c, 10, 81, 0
18, 56832, Note_on_c, 10, 77, 68
18, 56857, Note_off_c, 10, 77, 0
18, 56857, Note_on_c, 10, 75, 62
18, 56883, Note_off_c, 10, 75, 0
18, 56883, Note_on_c, 10, 67, 54
18, 56906, Note_off_c, 10, 67, 0
18, 56960, Control_c, 10, 64, 0
18, 57011, Control_c, 10, 64, 127
18, 57011, Note_on_c, 10, 64, 63
18, 57036, Note_off_c, 10, 64, 0
18, 57036, Note_on_c, 10, 69, 81
18, 57062, Note_off_c, 10, 69, 0
18, 57062, Note_on_c, 10, 70, 73
18, 57088, Note_off_c, 10, 70, 0
18, 57088, Note_on_c, 10, 72, 81
18, 57113, Note_off_c, 10, 72, 0
18, 57113, Note_on_c, 10, 73, 77
18, 57139, Note_off_c, 10, 73, 0
18, 57139, Note_on_c, 10, 84, 92
18, 57164, Note_off_c, 10, 84, 0
18, 57164, Note_on_c, 10, 81, 75
18, 57190, Note_off_c, 10, 81, 0
18, 57190, Note_on_c, 10, 87, 82
18, 57216, Note_off_c, 10, 87, 0
18, 57216, Note_on_c, 10, 85, 71
18, 57241, Note_off_c, 10, 85, 0
18, 57241, Note_on_c, 10, 84, 68
18, 57267, Note_off_c, 10, 84, 0
18, 57267, Note_on_c, 10, 85, 76
18, 57292, Note_off_c, 10, 85, 0
18, 57292, Note_on_c, 10, 87, 78
18, 57318, Note_off_c, 10, 87, 0
18, 57318, Note_on_c, 10, 89, 73
18, 57342, Note_off_c, 10, 89, 0
18, 57514, Control_c, 10, 64, 0
18, 57536, Control_c, 10, 64, 127
18, 57536, Note_on_c, 10, 72, 60
18, 57557, Note_off_c, 10, 72, 0
18, 57557, Note_on_c, 10, 73, 75
18, 57578, Note_off_c, 10, 73, 0
18, 57578, Note_on_c, 10, 75, 74
18, 57600, Note_off_c, 10, 75, 0
18, 57600, Note_on_c, 10, 76, 71
18, 57625, Note_off_c, 10, 76, 0
18, 57625, Note_on_c, 10, 78, 74
18, 57651, Note_off_c, 10, 78, 0
18, 57651, Note_on_c, 10, 81, 76
18, 57676, Note_off_c, 10, 81, 0
18, 57676, Note_on_c, 10, 90, 85
18, 57702, Note_off_c, 10, 90, 0
18, 57702, Note_on_c, 10, 88, 68
18, 57728, Note_off_c, 10, 88, 0
18, 57728, Note_on_c, 10, 87, 71
18, 57753, Note_off_c, 10, 87, 0
18, 57753, Note_on_c, 10, 84, 62
18, 57779, Note_off_c, 10, 84, 0
18, 57779, Note_on_c, 10, 77, 53
18, 57804, Note_off_c, 10, 77, 0
18, 57804, Note_on_c, 10, 73, 60
18, 57830, Note_off_c, 10, 73, 0
18, 57830, Note_on_c, 10, 67, 60
18, 57854, Note_off_c, 10, 67, 0
18, 57944, Control_c, 10, 64, 0
18, 57984, Control_c, 10, 64, 127
18, 57984, Note_on_c, 10, 64, 65
18, 58009, Note_off_c, 10, 64, 0
18, 58009, Note_on_c, 10, 69, 75
18, 58035, Note_off_c, 10, 69, 0
18, 58035, Note_on_c, 10, 72, 79
18, 58060, Note_off_c, 10, 72, 0
18, 58060, Note_on_c, 10, 73, 78
18, 58086, Note_off_c, 10, 73, 0
18, 58086, Note_on_c, 10, 75, 76
18, 58112, Note_off_c, 10, 75, 0
18, 58112, Note_on_c, 10, 84, 86
18, 58151, Note_off_c, 10, 84, 0
18, 58197, Control_c, 10, 64, 0
18, 58240, Control_c, 10, 64, 127
18, 58240, Note_on_c, 10, 64, 63
18, 58265, Note_off_c, 10, 64, 0
18, 58265, Note_on_c, 10, 69, 80
18, 58291, Note_off_c, 10, 69, 0
18, 58291, Note_on_c, 10, 70, 72
18, 58316, Note_off_c, 10, 70, 0
18, 58316, Note_on_c, 10, 73, 75
18, 58342, Note_off_c, 10, 73, 0
18, 58342, Note_on_c, 10, 75, 73
18, 58368, Note_off_c, 10, 75, 0
18, 58368, Note_on_c, 10, 84, 84
18, 58393, Note_off_c, 10, 84, 0
18, 58393, Note_on_c, 10, 81, 64
18, 58419, Note_off_c, 10, 81, 0
18, 58419, Note_on_c, 10, 87, 85
18, 58444, Note_off_c, 10, 87, 0
18, 58444, Note_on_c, 10, 84, 69
18, 58470, Note_off_c, 10, 84, 0
18, 58470, Note_on_c, 10, 85, 72
18, 58496, Note_off_c, 10, 85, 0
18, 58496, Note_on_c, 10, 87, 72
18, 58521, Note_off_c, 10, 87, 0
18, 58521, Note_on_c, 10, 89, 73
18, 58545, Note_off_c, 10, 89, 0
18, 58666, Control_c, 10, 64, 0
18, 58688, Control_c, 10, 64, 127
18, 58688, Note_on_c, 10, 64, 66
18, 58709, Note_off_c, 10, 64, 0
18, 58709, Note_on_c, 10, 69, 81
18, 58730, Note_off_c, 10, 69, 0
18, 58730, Note_on_c, 10, 70, 75
18, 58752, Note_off_c, 10, 70, 0
18, 58752, Note_on_c, 10, 72, 77
18, 58777, Note_off_c, 10, 72, 0
18, 58777, Note_on_c, 10, 73, 72
18, 58803, Note_off_c, 10, 73, 0
18, 58803, Note_on_c, 10, 75, 80
18, 58828, Note_off_c, 10, 75, 0
18, 58828, Note_on_c, 10, 81, 81
18, 58854, Note_off_c, 10, 81, 0
18, 58854, Note_on_c, 10, 87, 87
18, 58880, Note_off_c, 10, 87, 0
18, 58880, Note_on_c, 10, 85, 68
18, 58905, Note_off_c, 10, 85, 0
18, 58905, Note_on_c, 10, 84, 67
18, 58931, Note_off_c, 10, 84, 0
18, 58931, Note_on_c, 10, 81, 65
18, 58956, Note_off_c, 10, 81, 0
18, 58956, Note_on_c, 10, 77, 61
18, 58982, Note_off_c, 10, 77, 0
18, 58982, Note_on_c, 10, 72, 62
18, 59006, Note_off_c, 10, 72, 0
18, 59136, Control_c, 10, 64, 0
18, 59200, Control_c, 10, 64, 127
18, 59200, Note_on_c, 10, 68, 69
18, 59221, Note_off_c, 10, 68, 0
18, 59221, Note_on_c, 10, 70, 72
18, 59242, Note_off_c, 10, 70, 0
18, 59242, Note_on_c, 10, 72, 76
18, 59264, Note_off_c, 10, 72, 0
18, 59264, Note_on_c, 10, 73, 75
18, 59285, Note_off_c, 10, 73, 0
18, 59285, Note_on_c, 10, 75, 75
18, 59306, Note_off_c, 10, 75, 0
18, 59306, Note_on_c, 10, 85, 86
18, 59326, Note_off_c, 10, 85, 0
18, 59392, Control_c, 10, 64, 0
18, 59584, Control_c, 10, 64, 127
18, 59584, Note_on_c, 10, 68, 62
18, 59605, Note_off_c, 10, 68, 0
18, 59605, Note_on_c, 10, 70, 78
18, 59626, Note_off_c, 10, 70, 0
18, 59626, Note_on_c, 10, 72, 78
18, 59648, Note_off_c, 10, 72, 0
18, 59648, Note_on_c, 10, 73, 79
18, 59669, Note_off_c, 10, 73, 0
18, 59669, Note_on_c, 10, 75, 76
18, 59690, Note_off_c, 10, 75, 0
18, 59690, Control_c, 10, 64, 0
18, 59690, Note_on_c, 10, 87, 90
18, 59710, Note_off_c, 10, 87, 0
18, 60032, Control_c, 10, 64, 127
18, 60032, Note_on_c, 10, 64, 63
18, 60057, Note_off_c, 10, 64, 0
18, 60057, Note_on_c, 10, 69, 80
18, 60083, Note_off_c, 10, 69, 0
18, 60083, Note_on_c, 10, 72, 79
18, 60108, Note_off_c, 10, 72, 0
18, 60108, Note_on_c, 10, 76, 78
18, 60134, Note_off_c, 10, 76, 0
18, 60134, Note_on_c, 10, 73, 66
18, 60160, Note_off_c, 10, 73, 0
18, 60160, Control_c, 10, 64, 0
18, 60160, Note_on_c, 10, 81, 83
18, 60220, Note_off_c, 10, 81, 0
18, 60416, Control_c, 10, 64, 127
18, 60416, Note_on_c, 10, 64, 61
18, 60441, Note_off_c, 10, 64, 0
18, 60441, Note_on_c, 10, 69, 80
18, 60467, Note_off_c, 10, 69, 0
18, 60467, Note_on_c, 10, 73, 77
18, 60492, Note_off_c, 10, 73, 0
18, 60492, Note_on_c, 10, 75, 76
18, 60518, Note_off_c, 10, 75, 0
18, 60518, Note_on_c, 10, 80, 79
18, 60544, Note_off_c, 10, 80, 0
18, 60544, Control_c, 10, 64, 0
18, 60544, Note_on_c, 10, 87, 87
18, 60583, Note_off_c, 10, 87, 0
18, 60672, Control_c, 10, 64, 127
18, 60672, Note_on_c, 10, 64, 63
18, 60697, Note_off_c, 10, 64, 0
18, 60697, Note_on_c, 10, 69, 81
18, 60723, Note_off_c, 10, 69, 0
18, 60723, Note_on_c, 10, 72, 78
18, 60748, Note_off_c, 10, 72, 0
18, 60748, Note_on_c, 10, 73, 76
18, 60774, Note_off_c, 10, 73, 0
18, 60774, Note_on_c, 10, 75, 76
18, 60800, Note_off_c, 10, 75, 0
18, 60800, Note_on_c, 10, 84, 90
18, 60825, Note_off_c, 10, 84, 0
18, 60825, Note_on_c, 10, 81, 64
18, 60851, Note_off_c, 10, 81, 0
18, 60851, Note_on_c, 10, 87, 82
18, 60876, Note_off_c, 10, 87, 0
18, 60876, Note_on_c, 10, 84, 64
18, 60902, Note_off_c, 10, 84, 0
18, 60902, Note_on_c, 10, 81, 61
18, 60928, Note_off_c, 10, 81, 0
18, 60928, Note_on_c, 10, 77, 64
18, 60953, Note_off_c, 10, 77, 0
18, 60953, Note_on_c, 10, 75, 69
18, 60979, Note_off_c, 10, 75, 0
18, 60979, Control_c, 10, 64, 0
18, 60979, Note_on_c, 10, 67, 52
18, 61002, Note_off_c, 10, 67, 0
18, 61184, Control_c, 10, 64, 127
18, 61184, Note_on_c, 10, 75, 59
18, 61209, Note_off_c, 10, 75, 0
18, 61209, Note_on_c, 10, 69, 60
18, 61235, Note_off_c, 10, 69, 0
18, 61235, Note_on_c, 10, 72, 79
18, 61260, Note_off_c, 10, 72, 0
18, 61260, Note_on_c, 10, 73, 72
18, 61286, Note_off_c, 10, 73, 0
18, 61286, Note_on_c, 10, 75, 76
18, 61312, Note_off_c, 10, 75, 0
18, 61312, Note_on_c, 10, 84, 89
18, 61337, Note_off_c, 10, 84, 0
18, 61337, Note_on_c, 10, 81, 66
18, 61363, Note_off_c, 10, 81, 0
18, 61363, Note_on_c, 10, 87, 83
18, 61388, Note_off_c, 10, 87, 0
18, 61388, Note_on_c, 10, 85, 64
18, 61414, Note_off_c, 10, 85, 0
18, 61414, Note_on_c, 10, 81, 67
18, 61440, Note_off_c, 10, 81, 0
18, 61440, Note_on_c, 10, 77, 61
18, 61465, Note_off_c, 10, 77, 0
18, 61465, Note_on_c, 10, 81, 78
18, 61491, Note_off_c, 10, 81, 0
18, 61491, Note_on_c, 10, 84, 78
18, 61516, Note_off_c, 10, 84, 0
18, 61516, Note_on_c, 10, 87, 77
18, 61542, Note_off_c, 10, 87, 0
18, 61542, Note_on_c, 10, 89, 79
18, 61568, Note_off_c, 10, 89, 0
18, 61568, Note_on_c, 10, 90, 75
18, 61593, Note_off_c, 10, 90, 0
18, 61593, Note_on_c, 10, 87, 64
18, 61619, Note_off_c, 10, 87, 0
18, 61619, Control_c, 10, 64, 0
18, 61619, Note_on_c, 10, 92, 84
18, 61642, Note_off_c, 10, 92, 0
18, 61952, Control_c, 10, 64, 127
18, 61952, Note_on_c, 10, 69, 64
18, 61984, Note_off_c, 10, 69, 0
18, 61984, Note_on_c, 10, 70, 78
18, 62016, Note_off_c, 10, 70, 0
18, 62016, Note_on_c, 10, 72, 75
18, 62048, Note_off_c, 10, 72, 0
18, 62048, Note_on_c, 10, 75, 78
18, 62080, Note_off_c, 10, 75, 0
18, 62080, Note_on_c, 10, 77, 78
18, 62112, Note_off_c, 10, 77, 0
18, 62112, Note_on_c, 10, 72, 62
18, 62144, Note_off_c, 10, 72, 0
18, 62144, Note_on_c, 10, 75, 74
18, 62176, Note_off_c, 10, 75, 0
18, 62176, Note_on_c, 10, 77, 81
18, 62208, Note_off_c, 10, 77, 0
18, 62208, Note_on_c, 10, 80, 75
18, 62240, Note_off_c, 10, 80, 0
18, 62240, Note_on_c, 10, 84, 81
18, 62272, Note_off_c, 10, 84, 0
18, 62272, Note_on_c, 10, 87, 78
18, 62304, Note_off_c, 10, 87, 0
18, 62304, Note_on_c, 10, 82, 59
18, 62336, Note_off_c, 10, 82, 0
18, 62336, Note_on_c, 10, 84, 74
18, 62368, Note_off_c, 10, 84, 0
18, 62368, Note_on_c, 10, 85, 75
18, 62400, Note_off_c, 10, 85, 0
18, 62400, Note_on_c, 10, 80, 66
18, 62432, Note_off_c, 10, 80, 0
18, 62432, Note_on_c, 10, 84, 80
18, 62464, Note_off_c, 10, 84, 0
18, 62464, Note_on_c, 10, 85, 74
18, 62496, Note_off_c, 10, 85, 0
18, 62496, Note_on_c, 10, 86, 76
18, 62528, Note_off_c, 10, 86, 0
18, 62528, Note_on_c, 10, 88, 79
18, 62560, Note_off_c, 10, 88, 0
18, 62560, Note_on_c, 10, 92, 79
18, 62592, Note_off_c, 10, 92, 0
18, 62592, Note_on_c, 10, 95, 79
18, 62624, Note_off_c, 10, 95, 0
18, 62624, Note_on_c, 10, 93, 67
18, 62656, Note_off_c, 10, 93, 0
18, 62656, Note_on_c, 10, 92, 69
18, 62688, Note_off_c, 10, 92, 0
18, 62688, Note_on_c, 10, 88, 61
18, 62720, Note_off_c, 10, 88, 0
18, 62720, Note_on_c, 10, 86, 65
18, 62752, Note_off_c, 10, 86, 0
18, 62752, Note_on_c, 10, 84, 64
18, 62784, Note_off_c, 10, 84, 0
18, 62784, Note_on_c, 10, 81, 64
18, 62816, Note_off_c, 10, 81, 0
18, 62816, Note_on_c, 10, 78, 62
18, 62848, Note_off_c, 10, 78, 0
18, 62848, Note_on_c, 10, 76, 63
18, 62880, Note_off_c, 10, 76, 0
18, 62880, Note_on_c, 10, 73, 65
18, 62912, Note_off_c, 10, 73, 0
18, 62912, Note_on_c, 10, 69, 62
18, 62944, Note_off_c, 10, 69, 0
18, 62944, Note_on_c, 10, 68, 67
18, 62976, Note_off_c, 10, 68, 0
18, 62976, Note_on_c, 10, 71, 80
18, 63001, Note_off_c, 10, 71, 0
18, 63001, Note_on_c, 10, 73, 71
18, 63027, Note_off_c, 10, 73, 0
18, 63027, Note_on_c, 10, 74, 75
18, 63052, Note_off_c, 10, 74, 0
18, 63052, Note_on_c, 10, 76, 77
18, 63078, Note_off_c, 10, 76, 0
18, 63078, Note_on_c, 10, 78, 71
18, 63104, Note_off_c, 10, 78, 0
18, 63104, Note_on_c, 10, 73, 62
18, 63129, Note_off_c, 10, 73, 0
18, 63129, Note_on_c, 10, 74, 72
18, 63155, Note_off_c, 10, 74, 0
18, 63155, Note_on_c, 10, 76, 74
18, 63180, Note_off_c, 10, 76, 0
18, 63180, Note_on_c, 10, 80, 77
18, 63206, Note_off_c, 10, 80, 0
18, 63206, Note_on_c, 10, 81, 78
18, 63232, Note_off_c, 10, 81, 0
18, 63232, Note_on_c, 10, 83, 77
18, 63257, Note_off_c, 10, 83, 0
18, 63257, Note_on_c, 10, 85, 78
18, 63283, Note_off_c, 10, 85, 0
18, 63283, Note_on_c, 10, 86, 78
18, 63308, Note_off_c, 10, 86, 0
18, 63308, Note_on_c, 10, 85, 71
18, 63334, Note_off_c, 10, 85, 0
18, 63334, Note_on_c, 10, 86, 74
18, 63360, Note_off_c, 10, 86, 0
18, 63360, Note_on_c, 10, 88, 77
18, 63385, Note_off_c, 10, 88, 0
18, 63385, Note_on_c, 10, 90, 79
18, 63411, Note_off_c, 10, 90, 0
18, 63411, Note_on_c, 10, 92, 77
18, 63436, Note_off_c, 10, 92, 0
18, 63436, Note_on_c, 10, 95, 78
18, 63462, Note_off_c, 10, 95, 0
18, 63462, Note_on_c, 10, 93, 70
18, 63488, Note_off_c, 10, 93, 0
18, 63488, Note_on_c, 10, 97, 78
18, 63509, Note_off_c, 10, 97, 0
18, 63509, Note_on_c, 10, 93, 68
18, 63520, Control_c, 10, 64, 0
18, 63530, Note_off_c, 10, 93, 0
18, 63530, Note_on_c, 10, 90, 65
18, 63550, Note_off_c, 10, 90, 0
18, 63744, Note_on_c, 10, 75, 64
18, 63786, Note_off_c, 10, 75, 0
18, 63786, Note_on_c, 10, 77, 73
18, 63829, Note_off_c, 10, 77, 0
18, 63829, Note_on_c, 10, 81, 81
18, 63872, Note_off_c, 10, 81, 0
18, 63872, Note_on_c, 10, 82, 75
18, 63914, Note_off_c, 10, 82, 0
18, 63914, Note_on_c, 10, 75, 60
18, 63957, Note_off_c, 10, 75, 0
18, 63957, Note_on_c, 10, 77, 75
18, 64000, Note_off_c, 10, 77, 0
18, 64000, Note_on_c, 10, 79, 78
18, 64042, Note_off_c, 10, 79, 0
18, 64042, Note_on_c, 10, 81, 80
18, 64085, Note_off_c, 10, 81, 0
18, 64085, Note_on_c, 10, 84, 77
18, 64128, Note_off_c, 10, 84, 0
18, 64128, Note_on_c, 10, 85, 73
18, 64170, Note_off_c, 10, 85, 0
18, 64170, Note_on_c, 10, 78, 59
18, 64213, Note_off_c, 10, 78, 0
18, 64213, Note_on_c, 10, 79, 72
18, 64256, Note_off_c, 10, 79, 0
18, 64256, Note_on_c, 10, 84, 80
18, 64298, Note_off_c, 10, 84, 0
18, 64298, Note_on_c, 10, 82, 72
18, 64341, Note_off_c, 10, 82, 0
18, 64341, Note_on_c, 10, 87, 76
18, 64384, Note_off_c, 10, 87, 0
18, 64384, Note_on_c, 10, 89, 82
18, 64426, Note_off_c, 10, 89, 0
18, 64426, Note_on_c, 10, 86, 66
18, 64469, Note_off_c, 10, 86, 0
18, 64469, Note_on_c, 10, 87, 77
18, 64512, Note_off_c, 10, 87, 0
18, 64512, Note_on_c, 10, 91, 77
18, 64554, Note_off_c, 10, 91, 0
18, 64554, Note_on_c, 10, 92, 80
18, 64597, Note_off_c, 10, 92, 0
18, 64597, Note_on_c, 10, 95, 78
18, 64640, Note_off_c, 10, 95, 0
18, 64640, Note_on_c, 10, 92, 61
18, 64682, Note_off_c, 10, 92, 0
18, 64682, Note_on_c, 10, 94, 74
18, 64725, Note_off_c, 10, 94, 0
18, 64725, Note_on_c, 10, 95, 74
18, 64768, Note_off_c, 10, 95, 0
18, 64768, Note_on_c, 10, 99, 78
18, 64810, Note_off_c, 10, 99, 0
18, 64810, Note_on_c, 10, 97, 66
18, 64853, Note_off_c, 10, 97, 0
18, 64853, Note_on_c, 10, 102, 80
18, 64896, Note_off_c, 10, 102, 0
18, 64896, Note_on_c, 10, 99, 61
18, 64938, Note_off_c, 10, 99, 0
18, 64938, Note_on_c, 10, 97, 64
18, 64981, Note_off_c, 10, 97, 0
18, 64981, Note_on_c, 10, 95, 67
18, 65024, Note_off_c, 10, 95, 0
18, 65024, Note_on_c, 10, 92, 66
18, 65066, Note_off_c, 10, 92, 0
18, 65066, Note_on_c, 10, 90, 67
18, 65109, Note_off_c, 10, 90, 0
18, 65109, Note_on_c, 10, 88, 61
18, 65152, Note_off_c, 10, 88, 0
18, 65152, Note_on_c, 10, 85, 66
18, 65194, Note_off_c, 10, 85, 0
18, 65194, Note_on_c, 10, 80, 62
18, 65237, Note_off_c, 10, 80, 0
18, 65237, Note_on_c, 10, 85, 79
18, 65280, Note_off_c, 10, 85, 0
18, 65280, Note_on_c, 10, 87, 79
18, 65322, Note_off_c, 10, 87, 0
18, 65322, Note_on_c, 10, 88, 74
18, 65365, Note_off_c, 10, 88, 0
18, 65365, Note_on_c, 10, 90, 72
18, 65408, Note_off_c, 10, 90, 0
18, 65408, Note_on_c, 10, 96, 82
18, 65450, Note_off_c, 10, 96, 0
18, 65450, Note_on_c, 10, 97, 76
18, 65493, Note_off_c, 10, 97, 0
18, 65493, Note_on_c, 10, 99, 74
18, 65536, Note_off_c, 10, 99, 0
18, 65536, Note_on_c, 10, 102, 79
18, 65578, Note_off_c, 10, 102, 0
18, 65578, Note_on_c, 10, 102, 79
18, 65621, Note_off_c, 10, 102, 0
18, 65621, Note_on_c, 10, 100, 68
18, 65664, Note_off_c, 10, 100, 0
18, 65664, Note_on_c, 10, 99, 71
18, 65706, Note_off_c, 10, 99, 0
18, 65706, Note_on_c, 10, 97, 65
18, 65749, Note_off_c, 10, 97, 0
18, 65749, Note_on_c, 10, 94, 62
18, 65792, Note_off_c, 10, 94, 0
18, 65792, Note_on_c, 10, 92, 69
18, 65824, Note_off_c, 10, 92, 0
18, 65824, Note_on_c, 10, 90, 67
18, 65856, Note_off_c, 10, 90, 0
18, 65856, Note_on_c, 10, 87, 57
18, 65888, Note_off_c, 10, 87, 0
18, 65888, Note_on_c, 10, 88, 74
18, 65920, Note_off_c, 10, 88, 0
18, 65920, Note_on_c, 10, 92, 81
18, 65952, Note_off_c, 10, 92, 0
18, 65952, Note_on_c, 10, 80, 53
18, 66048, Note_off_c, 10, 80, 0
18, 66048, Note_on_c, 10, 87, 79
18, 66080, Note_off_c, 10, 87, 0
18, 66080, Note_on_c, 10, 88, 80
18, 66112, Note_off_c, 10, 88, 0
18, 66112, Note_on_c, 10, 92, 78
18, 66144, Note_off_c, 10, 92, 0
18, 66144, Note_on_c, 10, 80, 56
18, 66240, Note_off_c, 10, 80, 0
18, 66240, Note_on_c, 10, 88, 86
18, 66272, Note_off_c, 10, 88, 0
18, 66272, Note_on_c, 10, 90, 76
18, 66304, Note_off_c, 10, 90, 0
18, 66304, Note_on_c, 10, 95, 81
18, 66336, Note_off_c, 10, 95, 0
18, 66336, Note_on_c, 10, 87, 59
18, 66432, Note_off_c, 10, 87, 0
18, 66432, Note_on_c, 10, 92, 74
18, 66464, Note_off_c, 10, 92, 0
18, 66464, Note_on_c, 10, 94, 73
18, 66496, Note_off_c, 10, 94, 0
18, 66496, Note_on_c, 10, 99, 81
18, 66528, Note_off_c, 10, 99, 0
18, 66528, Note_on_c, 10, 83, 55
18, 66592, Note_off_c, 10, 83, 0
18, 66592, Note_on_c, 10, 82, 67
18, 66624, Note_off_c, 10, 82, 0
18, 66624, Note_on_c, 10, 83, 76
18, 66656, Note_off_c, 10, 83, 0
18, 66656, Note_on_c, 10, 82, 70
18, 66688, Note_off_c, 10, 82, 0
18, 66688, Note_on_c, 10, 80, 67
18, 66720, Note_off_c, 10, 80, 0
18, 66720, Note_on_c, 10, 78, 70
18, 66752, Note_off_c, 10, 78, 0
18, 66752, Note_on_c, 10, 76, 66
18, 66784, Note_off_c, 10, 76, 0
18, 66784, Note_on_c, 10, 75, 67
18, 66816, Note_off_c, 10, 75, 0
18, 66816, Note_on_c, 10, 73, 64
18, 66848, Note_off_c, 10, 73, 0
18, 66848, Note_on_c, 10, 71, 66
18, 66880, Note_off_c, 10, 71, 0
18, 66880, Note_on_c, 10, 70, 67
18, 66912, Note_off_c, 10, 70, 0
18, 66912, Note_on_c, 10, 68, 63
18, 66944, Note_off_c, 10, 68, 0
18, 66944, Note_on_c, 10, 66, 67
18, 66976, Note_off_c, 10, 66, 0
18, 66976, Note_on_c, 10, 64, 63
18, 67008, Note_off_c, 10, 64, 0
18, 67008, Note_on_c, 10, 63, 71
18, 67040, Note_off_c, 10, 63, 0
18, 67040, Note_on_c, 10, 64, 75
18, 67072, Note_off_c, 10, 64, 0
18, 67072, Note_on_c, 10, 66, 72
18, 67104, Note_off_c, 10, 66, 0
18, 67104, Note_on_c, 10, 68, 78
18, 67136, Note_off_c, 10, 68, 0
18, 67136, Note_on_c, 10, 70, 76
18, 67168, Note_off_c, 10, 70, 0
18, 67168, Note_on_c, 10, 71, 75
18, 67200, Note_off_c, 10, 71, 0
18, 67200, Note_on_c, 10, 72, 78
18, 67232, Note_off_c, 10, 72, 0
18, 67232, Note_on_c, 10, 76, 80
18, 67264, Note_off_c, 10, 76, 0
18, 67264, Note_on_c, 10, 78, 76
18, 67296, Note_off_c, 10, 78, 0
18, 67296, Note_on_c, 10, 79, 73
18, 67328, Note_off_c, 10, 79, 0
18, 67328, Note_on_c, 10, 81, 74
18, 67360, Note_off_c, 10, 81, 0
18, 77619, Control_c, 10, 64, 127
18, 77619, Note_on_c, 10, 79, 77
18, 77644, Note_off_c, 10, 79, 0
18, 77644, Note_on_c, 10, 80, 93
18, 77670, Note_off_c, 10, 80, 0
18, 77670, Note_on_c, 10, 85, 95
18, 77696, Note_off_c, 10, 85, 0
18, 77696, Note_on_c, 10, 89, 94
18, 77721, Note_off_c, 10, 89, 0
18, 77721, Note_on_c, 10, 92, 95
18, 77747, Note_off_c, 10, 92, 0
18, 77747, Note_on_c, 10, 97, 97
18, 77772, Note_off_c, 10, 97, 0
18, 77772, Note_on_c, 10, 101, 94
18, 77798, Note_off_c, 10, 101, 0
18, 77798, Note_on_c, 10, 104, 91
18, 77824, Note_off_c, 10, 104, 0
18, 77824, Control_c, 10, 64, 0
18, 77824, Note_on_c, 10, 108, 92
18, 77856, Note_off_c, 10, 108, 0
18, 77952, Control_c, 10, 64, 127
18, 77952, Note_on_c, 10, 60, 78
18, 77984, Note_off_c, 10, 60, 0
18, 77984, Note_on_c, 10, 64, 91
18, 78016, Note_off_c, 10, 64, 0
18, 78016, Note_on_c, 10, 69, 101
18, 78048, Note_off_c, 10, 69, 0
18, 78048, Note_on_c, 10, 76, 100
18, 78080, Note_off_c, 10, 76, 0
18, 78080, Note_on_c, 10, 81, 94
18, 78105, Note_off_c, 10, 81, 0
18, 78105, Note_on_c, 10, 84, 90
18, 78131, Note_off_c, 10, 84, 0
18, 78131, Note_on_c, 10, 88, 94
18, 78156, Note_off_c, 10, 88, 0
18, 78156, Note_on_c, 10, 93, 96
18, 78182, Note_off_c, 10, 93, 0
18, 78182, Note_on_c, 10, 96, 93
18, 78208, Note_off_c, 10, 96, 0
18, 78304, Control_c, 10, 64, 0
18, 78336, Control_c, 10, 64, 127
18, 78336, Note_on_c, 10, 75, 70
18, 78361, Note_off_c, 10, 75, 0
18, 78361, Note_on_c, 10, 77, 84
18, 78387, Note_off_c, 10, 77, 0
18, 78387, Note_on_c, 10, 82, 95
18, 78412, Note_off_c, 10, 82, 0
18, 78412, Note_on_c, 10, 87, 98
18, 78438, Note_off_c, 10, 87, 0
18, 78438, Note_on_c, 10, 94, 99
18, 78464, Note_off_c, 10, 94, 0
18, 78464, Note_on_c, 10, 99, 99
18, 78496, Note_off_c, 10, 99, 0
18, 78496, Note_on_c, 10, 101, 90
18, 78528, Note_off_c, 10, 101, 0
18, 78528, Note_on_c, 10, 106, 96
18, 78560, Note_off_c, 10, 106, 0
18, 78847, Control_c, 10, 64, 0
18, 78848, Control_c, 10, 64, 127
18, 78848, Note_on_c, 10, 75, 79
18, 78873, Note_off_c, 10, 75, 0
18, 78873, Note_on_c, 10, 77, 89
18, 78899, Note_off_c, 10, 77, 0
18, 78899, Note_on_c, 10, 82, 97
18, 78924, Note_off_c, 10, 82, 0
18, 78924, Note_on_c, 10, 87, 101
18, 78950, Note_off_c, 10, 87, 0
18, 78950, Note_on_c, 10, 94, 101
18, 78976, Note_off_c, 10, 94, 0
18, 78976, Note_on_c, 10, 99, 98
18, 79008, Note_off_c, 10, 99, 0
18, 79008, Note_on_c, 10, 101, 92
18, 79040, Note_off_c, 10, 101, 0
18, 79040, Note_on_c, 10, 106, 98
18, 79072, Note_off_c, 10, 106, 0
18, 79072, Note_on_c, 10, 108, 99
18, 79129, Note_off_c, 10, 108, 0
18, 79129, Note_on_c, 10, 104, 77
18, 79155, Note_off_c, 10, 104, 0
18, 79155, Note_on_c, 10, 101, 75
18, 79180, Note_off_c, 10, 101, 0
18, 79180, Note_on_c, 10, 92, 64
18, 79206, Note_off_c, 10, 92, 0
18, 79206, Control_c, 10, 64, 0
18, 79206, Note_on_c, 10, 89, 72
18, 79232, Note_off_c, 10, 89, 0
18, 79232, Control_c, 10, 64, 127
18, 79232, Note_on_c, 10, 85, 72
18, 79257, Note_off_c, 10, 85, 0
18, 79257, Note_on_c, 10, 99, 101
18, 79283, Note_off_c, 10, 99, 0
18, 79283, Note_on_c, 10, 93, 74
18, 79308, Note_off_c, 10, 93, 0
18, 79308, Note_on_c, 10, 92, 76
18, 79334, Note_off_c, 10, 92, 0
18, 79334, Control_c, 10, 64, 0
18, 79334, Note_on_c, 10, 87, 74
18, 79360, Note_off_c, 10, 87, 0
18, 79360, Control_c, 10, 64, 127
18, 79360, Note_on_c, 10, 101, 106
18, 79385, Note_off_c, 10, 101, 0
18, 79385, Note_on_c, 10, 96, 81
18, 79411, Note_off_c, 10, 96, 0
18, 79411, Note_on_c, 10, 92, 73
18, 79436, Note_off_c, 10, 92, 0
18, 79436, Note_on_c, 10, 89, 70
18, 79462, Note_off_c, 10, 89, 0
18, 79462, Note_on_c, 10, 84, 67
18, 79488, Note_off_c, 10, 84, 0
18, 79488, Note_on_c, 10, 80, 72
18, 79513, Note_off_c, 10, 80, 0
18, 79513, Note_on_c, 10, 77, 76
18, 79539, Note_off_c, 10, 77, 0
18, 79539, Note_on_c, 10, 72, 70
18, 79564, Note_off_c, 10, 72, 0
18, 79564, Control_c, 10, 64, 0
18, 79872, Control_c, 10, 64, 127
18, 79872, Note_on_c, 10, 70, 76
18, 79897, Note_off_c, 10, 70, 0
18, 79897, Note_on_c, 10, 74, 95
18, 79923, Note_off_c, 10, 74, 0
18, 79923, Note_on_c, 10, 76, 88
18, 79948, Note_off_c, 10, 76, 0
18, 79948, Note_on_c, 10, 79, 91
18, 79974, Note_off_c, 10, 79, 0
18, 79974, Note_on_c, 10, 82, 93
18, 80000, Note_off_c, 10, 82, 0
18, 80000, Note_on_c, 10, 86, 92
18, 80032, Note_off_c, 10, 86, 0
18, 80032, Note_on_c, 10, 89, 91
18, 80064, Note_off_c, 10, 89, 0
18, 80064, Note_on_c, 10, 91, 96
18, 80096, Note_off_c, 10, 91, 0
18, 80096, Control_c, 10, 64, 0
18, 80096, Note_on_c, 10, 94, 92
18, 80128, Note_off_c, 10, 94, 0
18, 80128, Control_c, 10, 64, 127
18, 80128, Note_on_c, 10, 73, 65
18, 80153, Note_off_c, 10, 73, 0
18, 80153, Note_on_c, 10, 77, 87
18, 80179, Note_off_c, 10, 77, 0
18, 80179, Note_on_c, 10, 79, 88
18, 80204, Note_off_c, 10, 79, 0
18, 80204, Note_on_c, 10, 82, 96
18, 80230, Note_off_c, 10, 82, 0
18, 80230, Note_on_c, 10, 89, 102
18, 80256, Note_off_c, 10, 89, 0
18, 80256, Note_on_c, 10, 91, 92
18, 80281, Note_off_c, 10, 91, 0
18, 80281, Note_on_c, 10, 92, 84
18, 80307, Note_off_c, 10, 92, 0
18, 80307, Note_on_c, 10, 95, 87
18, 80332, Note_off_c, 10, 95, 0
18, 80332, Control_c, 10, 64, 0
18, 80332, Note_on_c, 10, 99, 93
18, 80358, Note_off_c, 10, 99, 0
18, 81920, Note_on_c, 10, 70, 71
18, 81952, Note_off_c, 10, 70, 0
18, 81952, Note_on_c, 10, 68, 78
18, 81984, Note_off_c, 10, 68, 0
18, 81984, Note_on_c, 10, 67, 80
18, 82016, Note_off_c, 10, 67, 0
18, 82016, Note_on_c, 10, 68, 90
18, 82048, Note_off_c, 10, 68, 0
18, 82048, Note_on_c, 10, 70, 87
18, 82080, Note_off_c, 10, 70, 0
18, 82080, Note_on_c, 10, 71, 92
18, 82112, Note_off_c, 10, 71, 0
18, 82112, Note_on_c, 10, 73, 90
18, 82144, Note_off_c, 10, 73, 0
18, 82144, Note_on_c, 10, 75, 88
18, 82176, Note_off_c, 10, 75, 0
18, 82176, Note_on_c, 10, 76, 91
18, 82208, Note_off_c, 10, 76, 0
18, 82208, Note_on_c, 10, 77, 84
18, 82240, Note_off_c, 10, 77, 0
18, 82240, Note_on_c, 10, 79, 92
18, 82272, Note_off_c, 10, 79, 0
18, 82272, Note_on_c, 10, 80, 84
18, 82304, Note_off_c, 10, 80, 0
18, 82304, Note_on_c, 10, 82, 90
18, 82336, Note_off_c, 10, 82, 0
18, 82336, Note_on_c, 10, 85, 89
18, 82368, Note_off_c, 10, 85, 0
18, 82368, Note_on_c, 10, 87, 91
18, 82400, Note_off_c, 10, 87, 0
18, 82400, Note_on_c, 10, 88, 87
18, 82432, Note_off_c, 10, 88, 0
18, 82432, Note_on_c, 10, 89, 88
18, 82464, Note_off_c, 10, 89, 0
18, 82464, Note_on_c, 10, 90, 89
18, 82496, Note_off_c, 10, 90, 0
18, 82496, Note_on_c, 10, 92, 84
18, 82528, Note_off_c, 10, 92, 0
18, 82528, Note_on_c, 10, 90, 75
18, 82560, Note_off_c, 10, 90, 0
18, 82560, Note_on_c, 10, 89, 80
18, 82592, Note_off_c, 10, 89, 0
18, 82592, Note_on_c, 10, 87, 78
18, 82624, Note_off_c, 10, 87, 0
18, 82624, Note_on_c, 10, 82, 74
18, 82656, Note_off_c, 10, 82, 0
18, 82656, Note_on_c, 10, 83, 89
18, 82688, Note_off_c, 10, 83, 0
18, 82688, Note_on_c, 10, 78, 72
18, 82720, Note_off_c, 10, 78, 0
18, 82720, Note_on_c, 10, 80, 80
18, 82752, Note_off_c, 10, 80, 0
18, 82752, Note_on_c, 10, 77, 74
18, 82784, Note_off_c, 10, 77, 0
18, 82784, Note_on_c, 10, 75, 77
18, 82816, Note_off_c, 10, 75, 0
18, 82816, Note_on_c, 10, 73, 76
18, 82848, Note_off_c, 10, 73, 0
18, 82848, Note_on_c, 10, 71, 80
18, 82880, Note_off_c, 10, 71, 0
18, 82880, Note_on_c, 10, 70, 76
18, 82912, Note_off_c, 10, 70, 0
18, 82912, Note_on_c, 10, 68, 76
18, 82944, Note_off_c, 10, 68, 0
18, 82944, Note_on_c, 10, 67, 79
18, 82976, Note_off_c, 10, 67, 0
18, 82976, Note_on_c, 10, 65, 74
18, 83008, Note_off_c, 10, 65, 0
18, 83008, Note_on_c, 10, 64, 77
18, 83040, Note_off_c, 10, 64, 0
18, 83040, Note_on_c, 10, 62, 81
18, 83070, Note_off_c, 10, 62, 0
18, 95232, Note_on_c, 10, 85, 74
18, 95283, Note_off_c, 10, 85, 0
18, 95283, Note_on_c, 10, 92, 101
18, 95334, Note_off_c, 10, 92, 0
18, 95334, Note_on_c, 10, 96, 95
18, 95385, Note_off_c, 10, 96, 0
18, 95436, Note_on_c, 10, 89, 71
18, 95488, Note_off_c, 10, 89, 0
18, 95488, Note_on_c, 10, 92, 89
18, 95539, Note_off_c, 10, 92, 0
18, 95539, Note_on_c, 10, 95, 94
18, 95590, Note_off_c, 10, 95, 0
18, 95590, Note_on_c, 10, 97, 93
18, 95641, Note_off_c, 10, 97, 0
18, 95641, Note_on_c, 10, 85, 61
18, 95692, Note_off_c, 10, 85, 0
18, 95692, Note_on_c, 10, 89, 86
18, 95744, Note_off_c, 10, 89, 0
18, 95744, Note_on_c, 10, 95, 103
18, 95795, Note_off_c, 10, 95, 0
18, 95795, Note_on_c, 10, 85, 67
18, 95846, Note_off_c, 10, 85, 0
18, 95846, Note_on_c, 10, 89, 88
18, 95897, Note_off_c, 10, 89, 0
18, 95897, Note_on_c, 10, 95, 102
18, 95948, Note_off_c, 10, 95, 0
18, 95948, Note_on_c, 10, 96, 91
18, 96000, Note_off_c, 10, 96, 0
18, 96000, Note_on_c, 10, 83, 64
18, 96051, Note_off_c, 10, 83, 0
18, 96051, Note_on_c, 10, 85, 90
18, 96102, Note_off_c, 10, 85, 0
18, 96102, Note_on_c, 10, 98, 112
18, 96153, Note_off_c, 10, 98, 0
18, 96153, Note_on_c, 10, 85, 75
18, 96204, Note_off_c, 10, 85, 0
18, 96204, Note_on_c, 10, 89, 96
18, 96256, Note_off_c, 10, 89, 0
18, 96256, Note_on_c, 10, 91, 102
18, 96307, Note_off_c, 10, 91, 0
18, 96307, Note_on_c, 10, 85, 75
18, 96358, Note_off_c, 10, 85, 0
18, 96358, Note_on_c, 10, 91, 108
18, 96409, Note_off_c, 10, 91, 0
18, 96409, Note_on_c, 10, 89, 95
18, 96460, Note_off_c, 10, 89, 0
18, 96460, Note_on_c, 10, 95, 113
18, 96512, Note_off_c, 10, 95, 0
18, 96512, Note_on_c, 10, 97, 106
18, 96563, Note_off_c, 10, 97, 0
18, 96563, Note_on_c, 10, 92, 86
18, 96614, Note_off_c, 10, 92, 0
18, 96614, Note_on_c, 10, 95, 106
18, 96665, Note_off_c, 10, 95, 0
18, 96665, Note_on_c, 10, 89, 82
18, 96716, Note_off_c, 10, 89, 0
18, 96716, Note_on_c, 10, 91, 99
18, 96768, Note_off_c, 10, 91, 0
18, 96768, Note_on_c, 10, 89, 93
18, 96819, Note_off_c, 10, 89, 0
18, 96819, Note_on_c, 10, 95, 112
18, 96870, Note_off_c, 10, 95, 0
18, 96870, Note_on_c, 10, 98, 108
18, 96921, Note_off_c, 10, 98, 0
18, 96921, Note_on_c, 10, 97, 91
18, 96972, Note_off_c, 10, 97, 0
18, 96972, Note_on_c, 10, 89, 77
18, 97024, Note_off_c, 10, 89, 0
18, 97024, Note_on_c, 10, 92, 106
18, 97075, Note_off_c, 10, 92, 0
18, 97075, Note_on_c, 10, 98, 117
18, 97126, Note_off_c, 10, 98, 0
18, 97126, Note_on_c, 10, 102, 110
18, 97177, Note_off_c, 10, 102, 0
18, 97177, Note_on_c, 10, 86, 75
18, 97228, Note_off_c, 10, 86, 0
18, 97228, Note_on_c, 10, 92, 105
18, 97280, Note_off_c, 10, 92, 0
18, 97280, Note_on_c, 10, 97, 115
18, 97331, Note_off_c, 10, 97, 0
18, 97331, Note_on_c, 10, 82, 71
18, 97382, Note_off_c, 10, 82, 0
18, 97382, Note_on_c, 10, 84, 101
18, 97433, Note_off_c, 10, 84, 0
18, 97433, Note_on_c, 10, 92, 118
18, 97484, Note_off_c, 10, 92, 0
18, 97484, Note_on_c, 10, 95, 108
18, 97536, Note_off_c, 10, 95, 0
18, 97536, Note_on_c, 10, 85, 74
18, 97587, Note_off_c, 10, 85, 0
18, 97587, Note_on_c, 10, 88, 100
18, 97638, Note_off_c, 10, 88, 0
18, 97638, Note_on_c, 10, 94, 112
18, 97689, Note_off_c, 10, 94, 0
18, 97689, Note_on_c, 10, 87, 80
18, 97740, Note_off_c, 10, 87, 0
18, 97792, Note_on_c, 10, 90, 87
18, 97843, Note_off_c, 10, 90, 0
18, 97843, Note_on_c, 10, 87, 85
18, 97894, Note_off_c, 10, 87, 0
18, 97894, Note_on_c, 10, 96, 115
18, 97945, Note_off_c, 10, 96, 0
18, 97945, Note_on_c, 10, 85, 73
18, 97996, Note_off_c, 10, 85, 0
18, 97996, Note_on_c, 10, 88, 100
18, 98048, Note_off_c, 10, 88, 0
18, 98099, Note_on_c, 10, 94, 87
18, 98150, Note_off_c, 10, 94, 0
18, 98150, Note_on_c, 10, 84, 72
18, 98201, Note_off_c, 10, 84, 0
18, 98201, Note_on_c, 10, 92, 108
18, 98252, Note_off_c, 10, 92, 0
18, 98252, Note_on_c, 10, 96, 109
18, 98304, Note_off_c, 10, 96, 0
18, 98304, Note_on_c, 10, 80, 73
18, 98355, Note_off_c, 10, 80, 0
18, 98355, Note_on_c, 10, 85, 103
18, 98406, Note_off_c, 10, 85, 0
18, 98406, Note_on_c, 10, 89, 110
18, 98457, Note_off_c, 10, 89, 0
18, 98457, Note_on_c, 10, 95, 120
18, 98508, Note_off_c, 10, 95, 0
18, 98508, Note_on_c, 10, 89, 88
18, 98560, Note_off_c, 10, 89, 0
18, 98560, Note_on_c, 10, 92, 104
18, 98611, Note_off_c, 10, 92, 0
18, 98611, Note_on_c, 10, 96, 104
18, 98662, Note_off_c, 10, 96, 0
18, 98662, Note_on_c, 10, 80, 70
18, 98713, Note_off_c, 10, 80, 0
18, 98713, Note_on_c, 10, 85, 108
18, 98764, Note_off_c, 10, 85, 0
18, 98764, Note_on_c, 10, 89, 110
18, 98816, Note_off_c, 10, 89, 0
18, 98867, Note_on_c, 10, 85, 90
18, 98918, Note_off_c, 10, 85, 0
18, 98918, Note_on_c, 10, 92, 116
18, 98969, Note_off_c, 10, 92, 0
18, 98969, Note_on_c, 10, 89, 92
18, 99020, Note_off_c, 10, 89, 0
18, 99020, Note_on_c, 10, 100, 127
18, 99072, Note_off_c, 10, 100, 0
18, 99072, Note_on_c, 10, 85, 74
18, 99123, Note_off_c, 10, 85, 0
18, 99123, Note_on_c, 10, 89, 101
18, 99174, Note_off_c, 10, 89, 0
18, 99174, Note_on_c, 10, 95, 116
18, 99225, Note_off_c, 10, 95, 0
18, 99276, Note_on_c, 10, 89, 87
18, 99328, Note_off_c, 10, 89, 0
18, 99328, Note_on_c, 10, 92, 105
18, 99379, Note_off_c, 10, 92, 0
18, 99379, Note_on_c, 10, 95, 106
18, 99430, Note_off_c, 10, 95, 0
18, 99430, Note_on_c, 10, 85, 76
18, 99481, Note_off_c, 10, 85, 0
18, 99481, Note_on_c, 10, 89, 105
18, 99532, Note_off_c, 10, 89, 0
18, 99532, Note_on_c, 10, 91, 103
18, 99584, Note_off_c, 10, 91, 0
18, 99584, Note_on_c, 10, 82, 77
18, 99635, Note_off_c, 10, 82, 0
18, 99635, Note_on_c, 10, 89, 115
18, 99686, Note_off_c, 10, 89, 0
18, 99686, Note_on_c, 10, 91, 106
18, 99737, Note_off_c, 10, 91, 0
18, 99737, Note_on_c, 10, 95, 107
18, 99788, Note_off_c, 10, 95, 0
18, 99788, Note_on_c, 10, 96, 108
18, 99840, Note_off_c, 10, 96, 0
18, 99840, Note_on_c, 10, 82, 69
18, 99891, Note_off_c, 10, 82, 0
18, 99891, Note_on_c, 10, 91, 114
18, 99942, Note_off_c, 10, 91, 0
18, 99942, Note_on_c, 10, 93, 110
18, 99993, Note_off_c, 10, 93, 0
18, 99993, Note_on_c, 10, 85, 82
18, 100044, Note_off_c, 10, 85, 0
18, 100044, Note_on_c, 10, 91, 110
18, 100096, Note_off_c, 10, 91, 0
18, 100096, Note_on_c, 10, 92, 105
18, 100147, Note_off_c, 10, 92, 0
18, 100147, Note_on_c, 10, 89, 88
18, 100198, Note_off_c, 10, 89, 0
18, 100198, Note_on_c, 10, 84, 86
18, 100249, Note_off_c, 10, 84, 0
18, 100249, Note_on_c, 10, 90, 111
18, 100300, Note_off_c, 10, 90, 0
18, 100300, Note_on_c, 10, 93, 111
18, 100352, Note_off_c, 10, 93, 0
18, 100352, Note_on_c, 10, 96, 108
18, 100403, Note_off_c, 10, 96, 0
18, 100403, Note_on_c, 10, 97, 108
18, 100454, Note_off_c, 10, 97, 0
18, 100454, Note_on_c, 10, 90, 82
18, 100505, Note_off_c, 10, 90, 0
18, 100505, Note_on_c, 10, 87, 88
18, 100556, Note_off_c, 10, 87, 0
18, 100556, Note_on_c, 10, 99, 122
18, 100608, Note_off_c, 10, 99, 0
18, 100608, Note_on_c, 10, 93, 86
18, 100659, Note_off_c, 10, 93, 0
18, 100659, Note_on_c, 10, 84, 74
18, 100710, Note_off_c, 10, 84, 0
18, 100710, Note_on_c, 10, 96, 121
18, 100761, Note_off_c, 10, 96, 0
18, 100761, Note_on_c, 10, 97, 103
18, 100812, Note_off_c, 10, 97, 0
18, 100812, Note_on_c, 10, 89, 82
18, 100864, Note_off_c, 10, 89, 0
18, 100864, Note_on_c, 10, 91, 96
18, 100915, Note_off_c, 10, 91, 0
18, 100915, Note_on_c, 10, 96, 105
18, 100966, Note_off_c, 10, 96, 0
18, 100966, Note_on_c, 10, 85, 75
18, 101017, Note_off_c, 10, 85, 0
18, 101017, Note_on_c, 10, 90, 112
18, 101068, Note_off_c, 10, 90, 0
18, 101068, Note_on_c, 10, 92, 110
18, 101120, Note_off_c, 10, 92, 0
18, 101120, Note_on_c, 10, 96, 108
18, 101171, Note_off_c, 10, 96, 0
18, 101171, Note_on_c, 10, 97, 103
18, 101222, Note_off_c, 10, 97, 0
18, 101222, Note_on_c, 10, 90, 80
18, 101273, Note_off_c, 10, 90, 0
18, 101273, Note_on_c, 10, 96, 109
18, 101324, Note_off_c, 10, 96, 0
18, 101324, Note_on_c, 10, 84, 72
18, 101376, Note_off_c, 10, 84, 0
18, 101376, Note_on_c, 10, 88, 107
18, 101427, Note_off_c, 10, 88, 0
18, 101427, Note_on_c, 10, 94, 120
18, 101478, Note_off_c, 10, 94, 0
18, 101478, Note_on_c, 10, 87, 81
18, 101529, Note_off_c, 10, 87, 0
18, 101529, Note_on_c, 10, 100, 123
18, 101580, Note_off_c, 10, 100, 0
18, 101580, Note_on_c, 10, 82, 75
18, 101632, Note_off_c, 10, 82, 0
18, 101632, Note_on_c, 10, 88, 111
18, 101683, Note_off_c, 10, 88, 0
18, 101683, Note_on_c, 10, 84, 89
18, 101734, Note_off_c, 10, 84, 0
18, 101785, Note_on_c, 10, 87, 89
18, 101836, Note_off_c, 10, 87, 0
18, 101836, Note_on_c, 10, 94, 112
18, 101888, Note_off_c, 10, 94, 0
18, 101888, Note_on_c, 10, 96, 105
18, 101939, Note_off_c, 10, 96, 0
18, 101939, Note_on_c, 10, 85, 76
18, 101990, Note_off_c, 10, 85, 0
18, 101990, Note_on_c, 10, 89, 102
18, 102041, Note_off_c, 10, 89, 0
18, 102041, Note_on_c, 10, 95, 114
18, 102092, Note_off_c, 10, 95, 0
18, 102092, Note_on_c, 10, 99, 111
18, 102144, Note_off_c, 10, 99, 0
18, 102195, Note_on_c, 10, 90, 87
18, 102246, Note_off_c, 10, 90, 0
18, 102246, Note_on_c, 10, 92, 105
18, 102297, Note_off_c, 10, 92, 0
18, 102297, Note_on_c, 10, 100, 120
18, 102348, Note_off_c, 10, 100, 0
18, 102348, Note_on_c, 10, 94, 85
18, 102400, Note_off_c, 10, 94, 0
18, 102451, Note_on_c, 10, 95, 87
18, 102502, Note_off_c, 10, 95, 0
18, 102502, Note_on_c, 10, 90, 83
18, 102553, Note_off_c, 10, 90, 0
18, 102553, Note_on_c, 10, 85, 86
18, 102604, Note_off_c, 10, 85, 0
18, 102604, Note_on_c, 10, 84, 91
18, 102656, Note_off_c, 10, 84, 0
18, 121152, Note_on_c, 10, 85, 103
18, 121152, Note_on_c, 10, 92, 103
18, 121152, Note_on_c, 10, 99, 103
18, 121216, Note_off_c, 10, 85, 0
18, 121216, Note_off_c, 10, 92, 0
18, 121216, Note_off_c, 10, 99, 0
18, 121792, Note_on_c, 10, 84, 106
18, 121792, Note_on_c, 10, 93, 106
18, 121792, Note_on_c, 10, 100, 106
18, 121856, Note_off_c, 10, 84, 0
18, 121856, Note_off_c, 10, 93, 0
18, 121856, Note_off_c, 10, 100, 0
18, 122560, Note_on_c, 10, 84, 106
18, 122560, Note_on_c, 10, 93, 106
18, 122560, Note_on_c, 10, 100, 106
18, 122624, Note_off_c, 10, 84, 0
18, 122624, Note_off_c, 10, 93, 0
18, 122624, Note_off_c, 10, 100, 0
18, 123200, Note_on_c, 10, 84, 102
18, 123200, Note_on_c, 10, 93, 102
18, 123200, Note_on_c, 10, 100, 102
18, 123264, Note_off_c, 10, 84, 0
18, 123264, Note_off_c, 10, 93, 0
18, 123264, Note_off_c, 10, 100, 0
18, 123904, Note_on_c, 10, 84, 102
18, 123904, Note_on_c, 10, 93, 102
18, 123904, Note_on_c, 10, 100, 102
18, 123968, Note_off_c, 10, 84, 0
18, 123968, Note_off_c, 10, 93, 0
18, 123968, Note_off_c, 10, 100, 0
18, 124480, Note_on_c, 10, 84, 104
18, 124480, Note_on_c, 10, 93, 104
18, 124480, Note_on_c, 10, 100, 104
18, 124544, Note_off_c, 10, 84, 0
18, 124544, Note_off_c, 10, 93, 0
18, 124544, Note_off_c, 10, 100, 0
18, 125269, Note_on_c, 10, 84, 106
18, 125269, Note_on_c, 10, 93, 106
18, 125269, Note_on_c, 10, 100, 106
18, 125312, Note_off_c, 10, 84, 0
18, 125312, Note_off_c, 10, 93, 0
18, 125312, Note_off_c, 10, 100, 0
18, 126293, Note_on_c, 10, 84, 98
18, 126293, Note_on_c, 10, 93, 98
18, 126336, Note_off_c, 10, 84, 0
18, 126336, Note_off_c, 10, 93, 0
18, 126549, Note_on_c, 10, 81, 100
18, 126549, Note_on_c, 10, 88, 100
18, 126592, Note_off_c, 10, 81, 0
18, 126592, Note_off_c, 10, 88, 0
18, 127317, Note_on_c, 10, 84, 101
18, 127317, Note_on_c, 10, 93, 101
18, 127360, Note_off_c, 10, 84, 0
18, 127360, Note_off_c, 10, 93, 0
18, 127573, Note_on_c, 10, 81, 107
18, 127573, Note_on_c, 10, 88, 107
18, 127616, Note_off_c, 10, 81, 0
18, 127616, Note_off_c, 10, 88, 0
18, 128448, Note_on_c, 10, 72, 66
18, 128448, Note_on_c, 10, 82, 66
18, 128448, Note_on_c, 10, 84, 66
18, 128448, Note_on_c, 10, 94, 66
18, 128512, Note_off_c, 10, 72, 0
18, 128512, Note_off_c, 10, 82, 0
18, 128512, Note_off_c, 10, 84, 0
18, 128512, Note_off_c, 10, 94, 0
18, 128512, Note_on_c, 10, 84, 72
18, 128512, Note_on_c, 10, 94, 72
18, 128576, Note_off_c, 10, 84, 0
18, 128576, Note_off_c, 10, 94, 0
18, 128576, Note_on_c, 10, 72, 73
18, 128576, Note_on_c, 10, 82, 73
18, 128576, Note_on_c, 10, 84, 73
18, 128576, Note_on_c, 10, 94, 73
18, 128640, Note_off_c, 10, 72, 0
18, 128640, Note_off_c, 10, 82, 0
18, 128640, Note_off_c, 10, 84, 0
18, 128640, Note_off_c, 10, 94, 0
18, 128640, Note_on_c, 10, 72, 73
18, 128640, Note_on_c, 10, 82, 73
18, 128640, Note_on_c, 10, 84, 73
18, 128640, Note_on_c, 10, 94, 73
18, 128704, Note_off_c, 10, 72, 0
18, 128704, Note_off_c, 10, 82, 0
18, 128704, Note_off_c, 10, 84, 0
18, 128704, Note_off_c, 10, 94, 0
18, 128704, Note_on_c, 10, 84, 77
18, 128704, Note_on_c, 10, 94, 77
18, 128768, Note_off_c, 10, 84, 0
18, 128768, Note_off_c, 10, 94, 0
18, 128768, Note_on_c, 10, 72, 74
18, 128768, Note_on_c, 10, 82, 74
18, 128768, Note_on_c, 10, 84, 74
18, 128768, Note_on_c, 10, 94, 74
18, 128832, Note_off_c, 10, 72, 0
18, 128832, Note_off_c, 10, 82, 0
18, 128832, Note_off_c, 10, 84, 0
18, 128832, Note_off_c, 10, 94, 0
18, 128832, Note_on_c, 10, 84, 81
18, 128832, Note_on_c, 10, 94, 81
18, 128896, Note_off_c, 10, 84, 0
18, 128896, Note_off_c, 10, 94, 0
18, 128896, Note_on_c, 10, 72, 79
18, 128896, Note_on_c, 10, 82, 79
18, 128896, Note_on_c, 10, 84, 79
18, 128896, Note_on_c, 10, 94, 79
18, 128960, Note_off_c, 10, 72, 0
18, 128960, Note_off_c, 10, 82, 0
18, 128960, Note_off_c, 10, 84, 0
18, 128960, Note_off_c, 10, 94, 0
18, 128960, Note_on_c, 10, 72, 80
18, 128960, Note_on_c, 10, 82, 80
18, 128960, Note_on_c, 10, 84, 80
18, 128960, Note_on_c, 10, 94, 80
18, 129024, Note_off_c, 10, 72, 0
18, 129024, Note_off_c, 10, 82, 0
18, 129024, Note_off_c, 10, 84, 0
18, 129024, Note_off_c, 10, 94, 0
18, 129024, Note_on_c, 10, 84, 83
18, 129024, Note_on_c, 10, 94, 83
18, 129152, Note_off_c, 10, 84, 0
18, 129152, Note_off_c, 10, 94, 0
18, 129152, Note_on_c, 10, 84, 85
18, 129152, Note_on_c, 10, 94, 85
18, 129280, Note_off_c, 10, 84, 0
18, 129280, Note_off_c, 10, 94, 0
18, 129280, Note_on_c, 10, 84, 82
18, 129280, Note_on_c, 10, 94, 82
18, 129408, Note_off_c, 10, 84, 0
18, 129408, Note_off_c, 10, 94, 0
18, 129408, Note_on_c, 10, 72, 87
18, 129408, Note_on_c, 10, 82, 87
18, 129408, Note_on_c, 10, 84, 87
18, 129408, Note_on_c, 10, 94, 87
18, 129536, Note_off_c, 10, 72, 0
18, 129536, Note_off_c, 10, 82, 0
18, 129536, Note_off_c, 10, 84, 0
18, 129536, Note_off_c, 10, 94, 0
18, 129536, Note_on_c, 10, 84, 83
18, 129536, Note_on_c, 10, 94, 83
18, 129664, Note_off_c, 10, 84, 0
18, 129664, Note_off_c, 10, 94, 0
18, 129664, Note_on_c, 10, 84, 86
18, 129664, Note_on_c, 10, 94, 86
18, 129792, Note_off_c, 10, 84, 0
18, 129792, Note_off_c, 10, 94, 0
18, 129792, Note_on_c, 10, 72, 84
18, 129792, Note_on_c, 10, 82, 84
18, 129792, Note_on_c, 10, 84, 84
18, 129792, Note_on_c, 10, 94, 84
18, 129920, Note_off_c, 10, 72, 0
18, 129920, Note_off_c, 10, 82, 0
18, 129920, Note_off_c, 10, 84, 0
18, 129920, Note_off_c, 10, 94, 0
18, 129920, Note_on_c, 10, 72, 82
18, 129920, Note_on_c, 10, 82, 82
18, 129920, Note_on_c, 10, 84, 82
18, 129920, Note_on_c, 10, 94, 82
18, 130048, Note_off_c, 10, 72, 0
18, 130048, Note_off_c, 10, 82, 0
18, 130048, Note_off_c, 10, 84, 0
18, 130048, Note_off_c, 10, 94, 0
18, 130048, Note_on_c, 10, 72, 86
18, 130048, Note_on_c, 10, 82, 86
18, 130048, Note_on_c, 10, 84, 86
18, 130048, Note_on_c, 10, 94, 86
18, 130176, Note_off_c, 10, 72, 0
18, 130176, Note_off_c, 10, 82, 0
18, 130176, Note_off_c, 10, 84, 0
18, 130176, Note_off_c, 10, 94, 0
18, 130176, Note_on_c, 10, 72, 82
18, 130176, Note_on_c, 10, 82, 82
18, 130176, Note_on_c, 10, 84, 82
18, 130176, Note_on_c, 10, 94, 82
18, 130304, Note_off_c, 10, 72, 0
18, 130304, Note_off_c, 10, 82, 0
18, 130304, Note_off_c, 10, 84, 0
18, 130304, Note_off_c, 10, 94, 0
18, 130304, Note_on_c, 10, 72, 83
18, 130304, Note_on_c, 10, 82, 83
18, 130304, Note_on_c, 10, 84, 83
18, 130304, Note_on_c, 10, 94, 83
18, 130432, Note_off_c, 10, 72, 0
18, 130432, Note_off_c, 10, 82, 0
18, 130432, Note_off_c, 10, 84, 0
18, 130432, Note_off_c, 10, 94, 0
18, 130432, Note_on_c, 10, 72, 81
18, 130432, Note_on_c, 10, 82, 81
18, 130432, Note_on_c, 10, 84, 81
18, 130432, Note_on_c, 10, 94, 81
18, 130560, Note_off_c, 10, 72, 0
18, 130560, Note_off_c, 10, 82, 0
18, 130560, Note_off_c, 10, 84, 0
18, 130560, Note_off_c, 10, 94, 0
18, 130560, Note_on_c, 10, 72, 83
18, 130560, Note_on_c, 10, 82, 83
18, 130560, Note_on_c, 10, 84, 83
18, 130560, Note_on_c, 10, 94, 83
18, 130688, Note_off_c, 10, 72, 0
18, 130688, Note_off_c, 10, 82, 0
18, 130688, Note_off_c, 10, 84, 0
18, 130688, Note_off_c, 10, 94, 0
18, 130688, Note_on_c, 10, 72, 85
18, 130688, Note_on_c, 10, 82, 85
18, 130688, Note_on_c, 10, 84, 85
18, 130688, Note_on_c, 10, 94, 85
18, 130816, Note_off_c, 10, 72, 0
18, 130816, Note_off_c, 10, 82, 0
18, 130816, Note_off_c, 10, 84, 0
18, 130816, Note_off_c, 10, 94, 0
18, 130816, Note_on_c, 10, 72, 79
18, 130816, Note_on_c, 10, 82, 79
18, 130816, Note_on_c, 10, 84, 79
18, 130816, Note_on_c, 10, 94, 79
18, 130944, Note_off_c, 10, 72, 0
18, 130944, Note_off_c, 10, 82, 0
18, 130944, Note_off_c, 10, 84, 0
18, 130944, Note_off_c, 10, 94, 0
18, 130944, Note_on_c, 10, 72, 84
18, 130944, Note_on_c, 10, 82, 84
18, 130944, Note_on_c, 10, 84, 84
18, 130944, Note_on_c, 10, 94, 84
18, 131072, Note_off_c, 10, 72, 0
18, 131072, Note_off_c, 10, 82, 0
18, 131072, Note_off_c, 10, 84, 0
18, 131072, Note_off_c, 10, 94, 0
18, 131072, Note_on_c, 10, 72, 86
18, 131072, Note_on_c, 10, 82, 86
18, 131072, Note_on_c, 10, 84, 86
18, 131072, Note_on_c, 10, 94, 86
18, 131200, Note_off_c, 10, 72, 0
18, 131200, Note_off_c, 10, 82, 0
18, 131200, Note_off_c, 10, 84, 0
18, 131200, Note_off_c, 10, 94, 0
18, 131200, Note_on_c, 10, 72, 85
18, 131200, Note_on_c, 10, 82, 85
18, 131200, Note_on_c, 10, 84, 85
18, 131200, Note_on_c, 10, 94, 85
18, 131328, Note_off_c, 10, 72, 0
18, 131328, Note_off_c, 10, 82, 0
18, 131328, Note_off_c, 10, 84, 0
18, 131328, Note_off_c, 10, 94, 0
18, 131328, Note_on_c, 10, 72, 86
18, 131328, Note_on_c, 10, 82, 86
18, 131328, Note_on_c, 10, 84, 86
18, 131328, Note_on_c, 10, 94, 86
18, 131456, Note_off_c, 10, 72, 0
18, 131456, Note_off_c, 10, 82, 0
18, 131456, Note_off_c, 10, 84, 0
18, 131456, Note_off_c, 10, 94, 0
18, 131456, Note_on_c, 10, 72, 86
18, 131456, Note_on_c, 10, 82, 86
18, 131456, Note_on_c, 10, 84, 86
18, 131456, Note_on_c, 10, 94, 86
18, 131584, Note_off_c, 10, 72, 0
18, 131584, Note_off_c, 10, 82, 0
18, 131584, Note_off_c, 10, 84, 0
18, 131584, Note_off_c, 10, 94, 0
18, 131584, Note_on_c, 10, 72, 83
18, 131584, Note_on_c, 10, 82, 83
18, 131584, Note_on_c, 10, 84, 83
18, 131584, Note_on_c, 10, 94, 83
18, 131712, Note_off_c, 10, 72, 0
18, 131712, Note_off_c, 10, 82, 0
18, 131712, Note_off_c, 10, 84, 0
18, 131712, Note_off_c, 10, 94, 0
18, 131712, Note_on_c, 10, 72, 85
18, 131712, Note_on_c, 10, 82, 85
18, 131712, Note_on_c, 10, 84, 85
18, 131712, Note_on_c, 10, 94, 85
18, 131840, Note_off_c, 10, 72, 0
18, 131840, Note_off_c, 10, 82, 0
18, 131840, Note_off_c, 10, 84, 0
18, 131840, Note_off_c, 10, 94, 0
18, 131840, Note_on_c, 10, 72, 85
18, 131840, Note_on_c, 10, 82, 85
18, 131840, Note_on_c, 10, 84, 85
18, 131840, Note_on_c, 10, 94, 85
18, 131968, Note_off_c, 10, 72, 0
18, 131968, Note_off_c, 10, 82, 0
18, 131968, Note_off_c, 10, 84, 0
18, 131968, Note_off_c, 10, 94, 0
18, 131968, Note_on_c, 10, 72, 85
18, 131968, Note_on_c, 10, 82, 85
18, 131968, Note_on_c, 10, 84, 85
18, 131968, Note_on_c, 10, 94, 85
18, 132096, Note_off_c, 10, 72, 0
18, 132096, Note_off_c, 10, 82, 0
18, 132096, Note_off_c, 10, 84, 0
18, 132096, Note_off_c, 10, 94, 0
18, 132096, Note_on_c, 10, 72, 84
18, 132096, Note_on_c, 10, 82, 84
18, 132096, Note_on_c, 10, 84, 84
18, 132096, Note_on_c, 10, 94, 84
18, 132224, Note_off_c, 10, 72, 0
18, 132224, Note_off_c, 10, 82, 0
18, 132224, Note_off_c, 10, 84, 0
18, 132224, Note_off_c, 10, 94, 0
18, 132224, Note_on_c, 10, 72, 86
18, 132224, Note_on_c, 10, 82, 86
18, 132224, Note_on_c, 10, 84, 86
18, 132224, Note_on_c, 10, 94, 86
18, 132352, Note_off_c, 10, 72, 0
18, 132352, Note_off_c, 10, 82, 0
18, 132352, Note_off_c, 10, 84, 0
18, 132352, Note_off_c, 10, 94, 0
18, 132352, Note_on_c, 10, 72, 80
18, 132352, Note_on_c, 10, 82, 80
18, 132352, Note_on_c, 10, 84, 80
18, 132352, Note_on_c, 10, 94, 80
18, 132480, Note_off_c, 10, 72, 0
18, 132480, Note_off_c, 10, 82, 0
18, 132480, Note_off_c, 10, 84, 0
18, 132480, Note_off_c, 10, 94, 0
18, 132480, Note_on_c, 10, 72, 79
18, 132480, Note_on_c, 10, 82, 79
18, 132480, Note_on_c, 10, 84, 79
18, 132480, Note_on_c, 10, 94, 79
18, 132608, Note_off_c, 10, 72, 0
18, 132608, Note_off_c, 10, 82, 0
18, 132608, Note_off_c, 10, 84, 0
18, 132608, Note_off_c, 10, 94, 0
18, 132608, Note_on_c, 10, 72, 86
18, 132608, Note_on_c, 10, 82, 86
18, 132608, Note_on_c, 10, 84, 86
18, 132608, Note_on_c, 10, 94, 86
18, 132736, Note_off_c, 10, 72, 0
18, 132736, Note_off_c, 10, 82, 0
18, 132736, Note_off_c, 10, 84, 0
18, 132736, Note_off_c, 10, 94, 0
18, 132736, Note_on_c, 10, 72, 78
18, 132736, Note_on_c, 10, 82, 78
18, 132736, Note_on_c, 10, 84, 78
18, 132736, Note_on_c, 10, 94, 78
18, 132864, Note_off_c, 10, 72, 0
18, 132864, Note_off_c, 10, 82, 0
18, 132864, Note_off_c, 10, 84, 0
18, 132864, Note_off_c, 10, 94, 0
18, 132864, Note_on_c, 10, 72, 83
18, 132864, Note_on_c, 10, 82, 83
18, 132864, Note_on_c, 10, 84, 83
18, 132864, Note_on_c, 10, 94, 83
18, 132992, Note_off_c, 10, 72, 0
18, 132992, Note_off_c, 10, 82, 0
18, 132992, Note_off_c, 10, 84, 0
18, 132992, Note_off_c, 10, 94, 0
18, 132992, Note_on_c, 10, 72, 82
18, 132992, Note_on_c, 10, 82, 82
18, 132992, Note_on_c, 10, 84, 82
18, 132992, Note_on_c, 10, 94, 82
18, 133120, Note_off_c, 10, 72, 0
18, 133120, Note_off_c, 10, 82, 0
18, 133120, Note_off_c, 10, 84, 0
18, 133120, Note_off_c, 10, 94, 0
18, 133120, Note_on_c, 10, 72, 80
18, 133120, Note_on_c, 10, 82, 80
18, 133120, Note_on_c, 10, 84, 80
18, 133120, Note_on_c, 10, 94, 80
18, 133248, Note_off_c, 10, 72, 0
18, 133248, Note_off_c, 10, 82, 0
18, 133248, Note_off_c, 10, 84, 0
18, 133248, Note_off_c, 10, 94, 0
18, 133248, Note_on_c, 10, 72, 82
18, 133248, Note_on_c, 10, 82, 82
18, 133248, Note_on_c, 10, 84, 82
18, 133248, Note_on_c, 10, 94, 82
18, 133376, Note_off_c, 10, 72, 0
18, 133376, Note_off_c, 10, 82, 0
18, 133376, Note_off_c, 10, 84, 0
18, 133376, Note_off_c, 10, 94, 0
18, 133376, Note_on_c, 10, 72, 87
18, 133376, Note_on_c, 10, 82, 87
18, 133376, Note_on_c, 10, 84, 87
18, 133376, Note_on_c, 10, 94, 87
18, 133504, Note_off_c, 10, 72, 0
18, 133504, Note_off_c, 10, 82, 0
18, 133504, Note_off_c, 10, 84, 0
18, 133504, Note_off_c, 10, 94, 0
18, 133504, Note_on_c, 10, 72, 82
18, 133504, Note_on_c, 10, 82, 82
18, 133504, Note_on_c, 10, 84, 82
18, 133504, Note_on_c, 10, 94, 82
18, 133632, Note_off_c, 10, 72, 0
18, 133632, Note_off_c, 10, 82, 0
18, 133632, Note_off_c, 10, 84, 0
18, 133632, Note_off_c, 10, 94, 0
18, 133632, Note_on_c, 10, 72, 86
18, 133632, Note_on_c, 10, 82, 86
18, 133632, Note_on_c, 10, 84, 86
18, 133632, Note_on_c, 10, 94, 86
18, 133760, Note_off_c, 10, 72, 0
18, 133760, Note_off_c, 10, 82, 0
18, 133760, Note_off_c, 10, 84, 0
18, 133760, Note_off_c, 10, 94, 0
18, 133760, Note_on_c, 10, 72, 84
18, 133760, Note_on_c, 10, 82, 84
18, 133760, Note_on_c, 10, 84, 84
18, 133760, Note_on_c, 10, 94, 84
18, 133888, Note_off_c, 10, 72, 0
18, 133888, Note_off_c, 10, 82, 0
18, 133888, Note_off_c, 10, 84, 0
18, 133888, Note_off_c, 10, 94, 0
18, 133888, Note_on_c, 10, 72, 82
18, 133888, Note_on_c, 10, 82, 82
18, 133888, Note_on_c, 10, 84, 82
18, 133888, Note_on_c, 10, 94, 82
18, 134016, Note_off_c, 10, 72, 0
18, 134016, Note_off_c, 10, 82, 0
18, 134016, Note_off_c, 10, 84, 0
18, 134016, Note_off_c, 10, 94, 0
18, 134016, Note_on_c, 10, 72, 82
18, 134016, Note_on_c, 10, 82, 82
18, 134016, Note_on_c, 10, 84, 82
18, 134016, Note_on_c, 10, 94, 82
18, 134144, Note_off_c, 10, 72, 0
18, 134144, Note_off_c, 10, 82, 0
18, 134144, Note_off_c, 10, 84, 0
18, 134144, Note_off_c, 10, 94, 0
18, 134144, Note_on_c, 10, 72, 80
18, 134144, Note_on_c, 10, 82, 80
18, 134144, Note_on_c, 10, 84, 80
18, 134144, Note_on_c, 10, 94, 80
18, 134272, Note_off_c, 10, 72, 0
18, 134272, Note_off_c, 10, 82, 0
18, 134272, Note_off_c, 10, 84, 0
18, 134272, Note_off_c, 10, 94, 0
18, 134272, Note_on_c, 10, 72, 84
18, 134272, Note_on_c, 10, 82, 84
18, 134272, Note_on_c, 10, 84, 84
18, 134272, Note_on_c, 10, 94, 84
18, 134400, Note_off_c, 10, 72, 0
18, 134400, Note_off_c, 10, 82, 0
18, 134400, Note_off_c, 10, 84, 0
18, 134400, Note_off_c, 10, 94, 0
18, 134400, Note_on_c, 10, 72, 85
18, 134400, Note_on_c, 10, 82, 85
18, 134400, Note_on_c, 10, 84, 85
18, 134400, Note_on_c, 10, 94, 85
18, 134528, Note_off_c, 10, 72, 0
18, 134528, Note_off_c, 10, 82, 0
18, 134528, Note_off_c, 10, 84, 0
18, 134528, Note_off_c, 10, 94, 0
18, 134528, Note_on_c, 10, 72, 86
18, 134528, Note_on_c, 10, 82, 86
18, 134528, Note_on_c, 10, 84, 86
18, 134528, Note_on_c, 10, 94, 86
18, 134656, Note_off_c, 10, 72, 0
18, 134656, Note_off_c, 10, 82, 0
18, 134656, Note_off_c, 10, 84, 0
18, 134656, Note_off_c, 10, 94, 0
18, 134656, Note_on_c, 10, 72, 83
18, 134656, Note_on_c, 10, 82, 83
18, 134656, Note_on_c, 10, 84, 83
18, 134656, Note_on_c, 10, 94, 83
18, 134784, Note_off_c, 10, 72, 0
18, 134784, Note_off_c, 10, 82, 0
18, 134784, Note_off_c, 10, 84, 0
18, 134784, Note_off_c, 10, 94, 0
18, 134784, Note_on_c, 10, 72, 83
18, 134784, Note_on_c, 10, 82, 83
18, 134784, Note_on_c, 10, 84, 83
18, 134784, Note_on_c, 10, 94, 83
18, 134912, Note_off_c, 10, 72, 0
18, 134912, Note_off_c, 10, 82, 0
18, 134912, Note_off_c, 10, 84, 0
18, 134912, Note_off_c, 10, 94, 0
18, 134912, Note_on_c, 10, 72, 82
18, 134912, Note_on_c, 10, 82, 82
18, 134912, Note_on_c, 10, 84, 82
18, 134912, Note_on_c, 10, 94, 82
18, 135040, Note_off_c, 10, 72, 0
18, 135040, Note_off_c, 10, 82, 0
18, 135040, Note_off_c, 10, 84, 0
18, 135040, Note_off_c, 10, 94, 0
18, 135040, Note_on_c, 10, 72, 89
18, 135040, Note_on_c, 10, 82, 89
18, 135040, Note_on_c, 10, 84, 89
18, 135040, Note_on_c, 10, 94, 89
18, 135168, Note_off_c, 10, 72, 0
18, 135168, Note_off_c, 10, 82, 0
18, 135168, Note_off_c, 10, 84, 0
18, 135168, Note_off_c, 10, 94, 0
18, 135168, Note_on_c, 10, 72, 80
18, 135168, Note_on_c, 10, 82, 80
18, 135168, Note_on_c, 10, 84, 80
18, 135168, Note_on_c, 10, 94, 80
18, 135296, Note_off_c, 10, 72, 0
18, 135296, Note_off_c, 10, 82, 0
18, 135296, Note_off_c, 10, 84, 0
18, 135296, Note_off_c, 10, 94, 0
18, 135296, Note_on_c, 10, 72, 84
18, 135296, Note_on_c, 10, 82, 84
18, 135296, Note_on_c, 10, 84, 84
18, 135296, Note_on_c, 10, 94, 84
18, 135424, Note_off_c, 10, 72, 0
18, 135424, Note_off_c, 10, 82, 0
18, 135424, Note_off_c, 10, 84, 0
18, 135424, Note_off_c, 10, 94, 0
18, 135424, Note_on_c, 10, 72, 84
18, 135424, Note_on_c, 10, 82, 84
18, 135424, Note_on_c, 10, 84, 84
18, 135424, Note_on_c, 10, 94, 84
18, 135552, Note_off_c, 10, 72, 0
18, 135552, Note_off_c, 10, 82, 0
18, 135552, Note_off_c, 10, 84, 0
18, 135552, Note_off_c, 10, 94, 0
18, 135552, Note_on_c, 10, 72, 86
18, 135552, Note_on_c, 10, 82, 86
18, 135552, Note_on_c, 10, 84, 86
18, 135552, Note_on_c, 10, 94, 86
18, 135680, Note_off_c, 10, 72, 0
18, 135680, Note_off_c, 10, 82, 0
18, 135680, Note_off_c, 10, 84, 0
18, 135680, Note_off_c, 10, 94, 0
18, 135680, Note_on_c, 10, 67, 83
18, 135680, Note_on_c, 10, 72, 83
18, 135680, Note_on_c, 10, 82, 83
18, 135680, Note_on_c, 10, 84, 83
18, 135680, Note_on_c, 10, 94, 83
18, 135808, Note_off_c, 10, 67, 0
18, 135808, Note_off_c, 10, 72, 0
18, 135808, Note_off_c, 10, 82, 0
18, 135808, Note_off_c, 10, 84, 0
18, 135808, Note_off_c, 10, 94, 0
18, 135808, Note_on_c, 10, 67, 86
18, 135808, Note_on_c, 10, 72, 86
18, 135808, Note_on_c, 10, 82, 86
18, 135808, Note_on_c, 10, 84, 86
18, 135808, Note_on_c, 10, 94, 86
18, 135936, Note_off_c, 10, 67, 0
18, 135936, Note_off_c, 10, 72, 0
18, 135936, Note_off_c, 10, 82, 0
18, 135936, Note_off_c, 10, 84, 0
18, 135936, Note_off_c, 10, 94, 0
18, 135936, Note_on_c, 10, 67, 88
18, 135936, Note_on_c, 10, 72, 88
18, 135936, Note_on_c, 10, 82, 88
18, 135936, Note_on_c, 10, 84, 88
18, 135936, Note_on_c, 10, 94, 88
18, 136064, Note_off_c, 10, 67, 0
18, 136064, Note_off_c, 10, 72, 0
18, 136064, Note_off_c, 10, 82, 0
18, 136064, Note_off_c, 10, 84, 0
18, 136064, Note_off_c, 10, 94, 0
18, 136064, Note_on_c, 10, 67, 87
18, 136064, Note_on_c, 10, 72, 87
18, 136064, Note_on_c, 10, 82, 87
18, 136064, Note_on_c, 10, 84, 87
18, 136064, Note_on_c, 10, 94, 87
18, 136192, Note_off_c, 10, 67, 0
18, 136192, Note_off_c, 10, 72, 0
18, 136192, Note_off_c, 10, 82, 0
18, 136192, Note_off_c, 10, 84, 0
18, 136192, Note_off_c, 10, 94, 0
18, 136192, Note_on_c, 10, 67, 84
18, 136192, Note_on_c, 10, 72, 84
18, 136192, Note_on_c, 10, 82, 84
18, 136192, Note_on_c, 10, 84, 84
18, 136192, Note_on_c, 10, 94, 84
18, 136320, Note_off_c, 10, 67, 0
18, 136320, Note_off_c, 10, 72, 0
18, 136320, Note_off_c, 10, 82, 0
18, 136320, Note_off_c, 10, 84, 0
18, 136320, Note_off_c, 10, 94, 0
18, 136320, Note_on_c, 10, 67, 82
18, 136320, Note_on_c, 10, 72, 82
18, 136320, Note_on_c, 10, 82, 82
18, 136320, Note_on_c, 10, 84, 82
18, 136320, Note_on_c, 10, 94, 82
18, 136448, Note_off_c, 10, 67, 0
18, 136448, Note_off_c, 10, 72, 0
18, 136448, Note_off_c, 10, 82, 0
18, 136448, Note_off_c, 10, 84, 0
18, 136448, Note_off_c, 10, 94, 0
18, 136448, Note_on_c, 10, 67, 86
18, 136448, Note_on_c, 10, 72, 86
18, 136448, Note_on_c, 10, 82, 86
18, 136448, Note_on_c, 10, 84, 86
18, 136448, Note_on_c, 10, 94, 86
18, 136576, Note_off_c, 10, 67, 0
18, 136576, Note_off_c, 10, 72, 0
18, 136576, Note_off_c, 10, 82, 0
18, 136576, Note_off_c, 10, 84, 0
18, 136576, Note_off_c, 10, 94, 0
18, 136576, Note_on_c, 10, 67, 85
18, 136576, Note_on_c, 10, 72, 85
18, 136576, Note_on_c, 10, 82, 85
18, 136576, Note_on_c, 10, 84, 85
18, 136576, Note_on_c, 10, 94, 85
18, 136704, Note_off_c, 10, 67, 0
18, 136704, Note_off_c, 10, 72, 0
18, 136704, Note_off_c, 10, 82, 0
18, 136704, Note_off_c, 10, 84, 0
18, 136704, Note_off_c, 10, 94, 0
18, 136704, Note_on_c, 10, 67, 83
18, 136704, Note_on_c, 10, 72, 83
18, 136704, Note_on_c, 10, 82, 83
18, 136704, Note_on_c, 10, 84, 83
18, 136704, Note_on_c, 10, 94, 83
18, 136832, Note_off_c, 10, 67, 0
18, 136832, Note_off_c, 10, 72, 0
18, 136832, Note_off_c, 10, 82, 0
18, 136832, Note_off_c, 10, 84, 0
18, 136832, Note_off_c, 10, 94, 0
18, 136832, Note_on_c, 10, 67, 84
18, 136832, Note_on_c, 10, 72, 84
18, 136832, Note_on_c, 10, 82, 84
18, 136832, Note_on_c, 10, 84, 84
18, 136832, Note_on_c, 10, 94, 84
18, 136960, Note_off_c, 10, 67, 0
18, 136960, Note_off_c, 10, 72, 0
18, 136960, Note_off_c, 10, 82, 0
18, 136960, Note_off_c, 10, 84, 0
18, 136960, Note_off_c, 10, 94, 0
18, 136960, Note_on_c, 10, 67, 83
18, 136960, Note_on_c, 10, 72, 83
18, 136960, Note_on_c, 10, 82, 83
18, 136960, Note_on_c, 10, 84, 83
18, 136960, Note_on_c, 10, 94, 83
18, 137088, Note_off_c, 10, 67, 0
18, 137088, Note_off_c, 10, 72, 0
18, 137088, Note_off_c, 10, 82, 0
18, 137088, Note_off_c, 10, 84, 0
18, 137088, Note_off_c, 10, 94, 0
18, 137088, Note_on_c, 10, 67, 84
18, 137088, Note_on_c, 10, 72, 84
18, 137088, Note_on_c, 10, 82, 84
18, 137088, Note_on_c, 10, 84, 84
18, 137088, Note_on_c, 10, 94, 84
18, 137216, Note_off_c, 10, 67, 0
18, 137216, Note_off_c, 10, 72, 0
18, 137216, Note_off_c, 10, 82, 0
18, 137216, Note_off_c, 10, 84, 0
18, 137216, Note_off_c, 10, 94, 0
18, 137216, Note_on_c, 10, 67, 82
18, 137216, Note_on_c, 10, 72, 82
18, 137216, Note_on_c, 10, 82, 82
18, 137216, Note_on_c, 10, 84, 82
18, 137216, Note_on_c, 10, 94, 82
18, 137344, Note_off_c, 10, 67, 0
18, 137344, Note_off_c, 10, 72, 0
18, 137344, Note_off_c, 10, 82, 0
18, 137344, Note_off_c, 10, 84, 0
18, 137344, Note_off_c, 10, 94, 0
18, 137344, Note_on_c, 10, 67, 85
18, 137344, Note_on_c, 10, 72, 85
18, 137344, Note_on_c, 10, 82, 85
18, 137344, Note_on_c, 10, 84, 85
18, 137344, Note_on_c, 10, 94, 85
18, 137472, Note_off_c, 10, 67, 0
18, 137472, Note_off_c, 10, 72, 0
18, 137472, Note_off_c, 10, 82, 0
18, 137472, Note_off_c, 10, 84, 0
18, 137472, Note_off_c, 10, 94, 0
18, 137472, Note_on_c, 10, 67, 82
18, 137472, Note_on_c, 10, 72, 82
18, 137472, Note_on_c, 10, 82, 82
18, 137472, Note_on_c, 10, 84, 82
18, 137472, Note_on_c, 10, 94, 82
18, 137600, Note_off_c, 10, 67, 0
18, 137600, Note_off_c, 10, 72, 0
18, 137600, Note_off_c, 10, 82, 0
18, 137600, Note_off_c, 10, 84, 0
18, 137600, Note_off_c, 10, 94, 0
18, 137600, Note_on_c, 10, 67, 88
18, 137600, Note_on_c, 10, 72, 88
18, 137600, Note_on_c, 10, 82, 88
18, 137600, Note_on_c, 10, 84, 88
18, 137600, Note_on_c, 10, 94, 88
18, 137728, Note_off_c, 10, 67, 0
18, 137728, Note_off_c, 10, 72, 0
18, 137728, Note_off_c, 10, 82, 0
18, 137728, Note_off_c, 10, 84, 0
18, 137728, Note_off_c, 10, 94, 0
18, 137728, Note_on_c, 10, 67, 80
18, 137728, Note_on_c, 10, 72, 80
18, 137728, Note_on_c, 10, 82, 80
18, 137728, Note_on_c, 10, 84, 80
18, 137728, Note_on_c, 10, 94, 80
18, 137856, Note_off_c, 10, 67, 0
18, 137856, Note_off_c, 10, 72, 0
18, 137856, Note_off_c, 10, 82, 0
18, 137856, Note_off_c, 10, 84, 0
18, 137856, Note_off_c, 10, 94, 0
18, 137856, Note_on_c, 10, 67, 86
18, 137856, Note_on_c, 10, 72, 86
18, 137856, Note_on_c, 10, 82, 86
18, 137856, Note_on_c, 10, 84, 86
18, 137856, Note_on_c, 10, 94, 86
18, 137984, Note_off_c, 10, 67, 0
18, 137984, Note_off_c, 10, 72, 0
18, 137984, Note_off_c, 10, 82, 0
18, 137984, Note_off_c, 10, 84, 0
18, 137984, Note_off_c, 10, 94, 0
18, 137984, Note_on_c, 10, 67, 88
18, 137984, Note_on_c, 10, 72, 88
18, 137984, Note_on_c, 10, 82, 88
18, 137984, Note_on_c, 10, 84, 88
18, 137984, Note_on_c, 10, 94, 88
18, 138112, Note_off_c, 10, 67, 0
18, 138112, Note_off_c, 10, 72, 0
18, 138112, Note_off_c, 10, 82, 0
18, 138112, Note_off_c, 10, 84, 0
18, 138112, Note_off_c, 10, 94, 0
18, 138112, Note_on_c, 10, 67, 83
18, 138112, Note_on_c, 10, 72, 83
18, 138112, Note_on_c, 10, 82, 83
18, 138112, Note_on_c, 10, 84, 83
18, 138112, Note_on_c, 10, 94, 83
18, 138240, Note_off_c, 10, 67, 0
18, 138240, Note_off_c, 10, 72, 0
18, 138240, Note_off_c, 10, 82, 0
18, 138240, Note_off_c, 10, 84, 0
18, 138240, Note_off_c, 10, 94, 0
18, 138240, Note_on_c, 10, 67, 81
18, 138240, Note_on_c, 10, 72, 81
18, 138240, Note_on_c, 10, 82, 81
18, 138240, Note_on_c, 10, 84, 81
18, 138240, Note_on_c, 10, 94, 81
18, 138368, Note_off_c, 10, 67, 0
18, 138368, Note_off_c, 10, 72, 0
18, 138368, Note_off_c, 10, 82, 0
18, 138368, Note_off_c, 10, 84, 0
18, 138368, Note_off_c, 10, 94, 0
18, 138368, Note_on_c, 10, 67, 88
18, 138368, Note_on_c, 10, 72, 88
18, 138368, Note_on_c, 10, 82, 88
18, 138368, Note_on_c, 10, 84, 88
18, 138368, Note_on_c, 10, 94, 88
18, 138496, Note_off_c, 10, 67, 0
18, 138496, Note_off_c, 10, 72, 0
18, 138496, Note_off_c, 10, 82, 0
18, 138496, Note_off_c, 10, 84, 0
18, 138496, Note_off_c, 10, 94, 0
18, 138496, Note_on_c, 10, 67, 83
18, 138496, Note_on_c, 10, 72, 83
18, 138496, Note_on_c, 10, 82, 83
18, 138496, Note_on_c, 10, 84, 83
18, 138496, Note_on_c, 10, 94, 83
18, 138624, Note_off_c, 10, 67, 0
18, 138624, Note_off_c, 10, 72, 0
18, 138624, Note_off_c, 10, 82, 0
18, 138624, Note_off_c, 10, 84, 0
18, 138624, Note_off_c, 10, 94, 0
18, 138624, Note_on_c, 10, 67, 83
18, 138624, Note_on_c, 10, 72, 83
18, 138624, Note_on_c, 10, 82, 83
18, 138624, Note_on_c, 10, 84, 83
18, 138624, Note_on_c, 10, 94, 83
18, 138752, Note_off_c, 10, 67, 0
18, 138752, Note_off_c, 10, 72, 0
18, 138752, Note_off_c, 10, 82, 0
18, 138752, Note_off_c, 10, 84, 0
18, 138752, Note_off_c, 10, 94, 0
18, 138752, Note_on_c, 10, 67, 86
18, 138752, Note_on_c, 10, 72, 86
18, 138752, Note_on_c, 10, 82, 86
18, 138752, Note_on_c, 10, 84, 86
18, 138752, Note_on_c, 10, 94, 86
18, 138880, Note_off_c, 10, 67, 0
18, 138880, Note_off_c, 10, 72, 0
18, 138880, Note_off_c, 10, 82, 0
18, 138880, Note_off_c, 10, 84, 0
18, 138880, Note_off_c, 10, 94, 0
18, 138880, Note_on_c, 10, 67, 84
18, 138880, Note_on_c, 10, 72, 84
18, 138880, Note_on_c, 10, 82, 84
18, 138880, Note_on_c, 10, 84, 84
18, 138880, Note_on_c, 10, 94, 84
18, 139008, Note_off_c, 10, 67, 0
18, 139008, Note_off_c, 10, 72, 0
18, 139008, Note_off_c, 10, 82, 0
18, 139008, Note_off_c, 10, 84, 0
18, 139008, Note_off_c, 10, 94, 0
18, 139008, Note_on_c, 10, 67, 86
18, 139008, Note_on_c, 10, 72, 86
18, 139008, Note_on_c, 10, 82, 86
18, 139008, Note_on_c, 10, 84, 86
18, 139008, Note_on_c, 10, 94, 86
18, 139136, Note_off_c, 10, 67, 0
18, 139136, Note_off_c, 10, 72, 0
18, 139136, Note_off_c, 10, 82, 0
18, 139136, Note_off_c, 10, 84, 0
18, 139136, Note_off_c, 10, 94, 0
18, 139136, Note_on_c, 10, 67, 85
18, 139136, Note_on_c, 10, 72, 85
18, 139136, Note_on_c, 10, 82, 85
18, 139136, Note_on_c, 10, 84, 85
18, 139136, Note_on_c, 10, 94, 85
18, 139264, Note_off_c, 10, 67, 0
18, 139264, Note_off_c, 10, 72, 0
18, 139264, Note_off_c, 10, 82, 0
18, 139264, Note_off_c, 10, 84, 0
18, 139264, Note_off_c, 10, 94, 0
18, 139264, Note_on_c, 10, 67, 87
18, 139264, Note_on_c, 10, 72, 87
18, 139264, Note_on_c, 10, 82, 87
18, 139264, Note_on_c, 10, 84, 87
18, 139264, Note_on_c, 10, 94, 87
18, 139392, Note_off_c, 10, 67, 0
18, 139392, Note_off_c, 10, 72, 0
18, 139392, Note_off_c, 10, 82, 0
18, 139392, Note_off_c, 10, 84, 0
18, 139392, Note_off_c, 10, 94, 0
18, 139392, Note_on_c, 10, 67, 83
18, 139392, Note_on_c, 10, 72, 83
18, 139392, Note_on_c, 10, 82, 83
18, 139392, Note_on_c, 10, 84, 83
18, 139392, Note_on_c, 10, 94, 83
18, 139520, Note_off_c, 10, 67, 0
18, 139520, Note_off_c, 10, 72, 0
18, 139520, Note_off_c, 10, 82, 0
18, 139520, Note_off_c, 10, 84, 0
18, 139520, Note_off_c, 10, 94, 0
18, 139520, Note_on_c, 10, 67, 80
18, 139520, Note_on_c, 10, 72, 80
18, 139520, Note_on_c, 10, 82, 80
18, 139520, Note_on_c, 10, 84, 80
18, 139520, Note_on_c, 10, 94, 80
18, 139648, Note_off_c, 10, 67, 0
18, 139648, Note_off_c, 10, 72, 0
18, 139648, Note_off_c, 10, 82, 0
18, 139648, Note_off_c, 10, 84, 0
18, 139648, Note_off_c, 10, 94, 0
18, 139648, Note_on_c, 10, 67, 85
18, 139648, Note_on_c, 10, 72, 85
18, 139648, Note_on_c, 10, 82, 85
18, 139648, Note_on_c, 10, 84, 85
18, 139648, Note_on_c, 10, 94, 85
18, 139776, Note_off_c, 10, 67, 0
18, 139776, Note_off_c, 10, 72, 0
18, 139776, Note_off_c, 10, 82, 0
18, 139776, Note_off_c, 10, 84, 0
18, 139776, Note_off_c, 10, 94, 0
18, 139776, Note_on_c, 10, 67, 83
18, 139776, Note_on_c, 10, 72, 83
18, 139776, Note_on_c, 10, 82, 83
18, 139776, Note_on_c, 10, 84, 83
18, 139776, Note_on_c, 10, 94, 83
18, 139904, Note_off_c, 10, 67, 0
18, 139904, Note_off_c, 10, 72, 0
18, 139904, Note_off_c, 10, 82, 0
18, 139904, Note_off_c, 10, 84, 0
18, 139904, Note_off_c, 10, 94, 0
18, 139904, Note_on_c, 10, 67, 84
18, 139904, Note_on_c, 10, 72, 84
18, 139904, Note_on_c, 10, 82, 84
18, 139904, Note_on_c, 10, 84, 84
18, 139904, Note_on_c, 10, 94, 84
18, 140032, Note_off_c, 10, 67, 0
18, 140032, Note_off_c, 10, 72, 0
18, 140032, Note_off_c, 10, 82, 0
18, 140032, Note_off_c, 10, 84, 0
18, 140032, Note_off_c, 10, 94, 0
18, 140032, Note_on_c, 10, 67, 83
18, 140032, Note_on_c, 10, 72, 83
18, 140032, Note_on_c, 10, 82, 83
18, 140032, Note_on_c, 10, 84, 83
18, 140032, Note_on_c, 10, 94, 83
18, 140160, Note_off_c, 10, 67, 0
18, 140160, Note_off_c, 10, 72, 0
18, 140160, Note_off_c, 10, 82, 0
18, 140160, Note_off_c, 10, 84, 0
18, 140160, Note_off_c, 10, 94, 0
18, 140160, Note_on_c, 10, 67, 83
18, 140160, Note_on_c, 10, 72, 83
18, 140160, Note_on_c, 10, 82, 83
18, 140160, Note_on_c, 10, 84, 83
18, 140160, Note_on_c, 10, 94, 83
18, 140288, Note_off_c, 10, 67, 0
18, 140288, Note_off_c, 10, 72, 0
18, 140288, Note_off_c, 10, 82, 0
18, 140288, Note_off_c, 10, 84, 0
18, 140288, Note_off_c, 10, 94, 0
18, 140288, Note_on_c, 10, 67, 87
18, 140288, Note_on_c, 10, 72, 87
18, 140288, Note_on_c, 10, 82, 87
18, 140288, Note_on_c, 10, 84, 87
18, 140288, Note_on_c, 10, 94, 87
18, 140416, Note_off_c, 10, 67, 0
18, 140416, Note_off_c, 10, 72, 0
18, 140416, Note_off_c, 10, 82, 0
18, 140416, Note_off_c, 10, 84, 0
18, 140416, Note_off_c, 10, 94, 0
18, 140416, Note_on_c, 10, 67, 84
18, 140416, Note_on_c, 10, 72, 84
18, 140416, Note_on_c, 10, 82, 84
18, 140416, Note_on_c, 10, 84, 84
18, 140416, Note_on_c, 10, 94, 84
18, 140544, Note_off_c, 10, 67, 0
18, 140544, Note_off_c, 10, 72, 0
18, 140544, Note_off_c, 10, 82, 0
18, 140544, Note_off_c, 10, 84, 0
18, 140544, Note_off_c, 10, 94, 0
18, 140544, Note_on_c, 10, 67, 84
18, 140544, Note_on_c, 10, 72, 84
18, 140544, Note_on_c, 10, 82, 84
18, 140544, Note_on_c, 10, 84, 84
18, 140544, Note_on_c, 10, 94, 84
18, 140672, Note_off_c, 10, 67, 0
18, 140672, Note_off_c, 10, 72, 0
18, 140672, Note_off_c, 10, 82, 0
18, 140672, Note_off_c, 10, 84, 0
18, 140672, Note_off_c, 10, 94, 0
18, 140672, Note_on_c, 10, 67, 84
18, 140672, Note_on_c, 10, 72, 84
18, 140672, Note_on_c, 10, 82, 84
18, 140672, Note_on_c, 10, 84, 84
18, 140672, Note_on_c, 10, 94, 84
18, 140800, Note_off_c, 10, 67, 0
18, 140800, Note_off_c, 10, 72, 0
18, 140800, Note_off_c, 10, 82, 0
18, 140800, Note_off_c, 10, 84, 0
18, 140800, Note_off_c, 10, 94, 0
18, 140800, Note_on_c, 10, 67, 81
18, 140800, Note_on_c, 10, 72, 81
18, 140800, Note_on_c, 10, 82, 81
18, 140800, Note_on_c, 10, 84, 81
18, 140800, Note_on_c, 10, 94, 81
18, 140928, Note_off_c, 10, 67, 0
18, 140928, Note_off_c, 10, 72, 0
18, 140928, Note_off_c, 10, 82, 0
18, 140928, Note_off_c, 10, 84, 0
18, 140928, Note_off_c, 10, 94, 0
18, 140928, Note_on_c, 10, 67, 84
18, 140928, Note_on_c, 10, 72, 84
18, 140928, Note_on_c, 10, 82, 84
18, 140928, Note_on_c, 10, 84, 84
18, 140928, Note_on_c, 10, 94, 84
18, 141056, Note_off_c, 10, 67, 0
18, 141056, Note_off_c, 10, 72, 0
18, 141056, Note_off_c, 10, 82, 0
18, 141056, Note_off_c, 10, 84, 0
18, 141056, Note_off_c, 10, 94, 0
18, 141056, Note_on_c, 10, 67, 82
18, 141056, Note_on_c, 10, 72, 82
18, 141056, Note_on_c, 10, 82, 82
18, 141056, Note_on_c, 10, 84, 82
18, 141056, Note_on_c, 10, 94, 82
18, 141184, Note_off_c, 10, 67, 0
18, 141184, Note_off_c, 10, 72, 0
18, 141184, Note_off_c, 10, 82, 0
18, 141184, Note_off_c, 10, 84, 0
18, 141184, Note_off_c, 10, 94, 0
18, 141184, Note_on_c, 10, 67, 82
18, 141184, Note_on_c, 10, 72, 82
18, 141184, Note_on_c, 10, 82, 82
18, 141184, Note_on_c, 10, 84, 82
18, 141184, Note_on_c, 10, 94, 82
18, 141312, Note_off_c, 10, 67, 0
18, 141312, Note_off_c, 10, 72, 0
18, 141312, Note_off_c, 10, 82, 0
18, 141312, Note_off_c, 10, 84, 0
18, 141312, Note_off_c, 10, 94, 0
18, 141312, Note_on_c, 10, 67, 82
18, 141312, Note_on_c, 10, 72, 82
18, 141312, Note_on_c, 10, 81, 82
18, 141312, Note_on_c, 10, 84, 82
18, 141312, Note_on_c, 10, 93, 82
18, 141440, Note_off_c, 10, 67, 0
18, 141440, Note_off_c, 10, 72, 0
18, 141440, Note_off_c, 10, 81, 0
18, 141440, Note_off_c, 10, 84, 0
18, 141440, Note_off_c, 10, 93, 0
18, 141440, Note_on_c, 10, 67, 84
18, 141440, Note_on_c, 10, 72, 84
18, 141440, Note_on_c, 10, 81, 84
18, 141440, Note_on_c, 10, 84, 84
18, 141440, Note_on_c, 10, 93, 84
18, 141568, Note_off_c, 10, 67, 0
18, 141568, Note_off_c, 10, 72, 0
18, 141568, Note_off_c, 10, 81, 0
18, 141568, Note_off_c, 10, 84, 0
18, 141568, Note_off_c, 10, 93, 0
18, 141568, Note_on_c, 10, 67, 84
18, 141568, Note_on_c, 10, 72, 84
18, 141568, Note_on_c, 10, 81, 84
18, 141568, Note_on_c, 10, 84, 84
18, 141568, Note_on_c, 10, 93, 84
18, 141696, Note_off_c, 10, 67, 0
18, 141696, Note_off_c, 10, 72, 0
18, 141696, Note_off_c, 10, 81, 0
18, 141696, Note_off_c, 10, 84, 0
18, 141696, Note_off_c, 10, 93, 0
18, 141696, Note_on_c, 10, 67, 88
18, 141696, Note_on_c, 10, 72, 88
18, 141696, Note_on_c, 10, 81, 88
18, 141696, Note_on_c, 10, 84, 88
18, 141696, Note_on_c, 10, 93, 88
18, 141824, Note_off_c, 10, 67, 0
18, 141824, Note_off_c, 10, 72, 0
18, 141824, Note_off_c, 10, 81, 0
18, 141824, Note_off_c, 10, 84, 0
18, 141824, Note_off_c, 10, 93, 0
18, 141824, Note_on_c, 10, 67, 83
18, 141824, Note_on_c, 10, 72, 83
18, 141824, Note_on_c, 10, 81, 83
18, 141824, Note_on_c, 10, 84, 83
18, 141824, Note_on_c, 10, 93, 83
18, 141952, Note_off_c, 10, 67, 0
18, 141952, Note_off_c, 10, 72, 0
18, 141952, Note_off_c, 10, 81, 0
18, 141952, Note_off_c, 10, 84, 0
18, 141952, Note_off_c, 10, 93, 0
18, 141952, Note_on_c, 10, 67, 83
18, 141952, Note_on_c, 10, 72, 83
18, 141952, Note_on_c, 10, 81, 83
18, 141952, Note_on_c, 10, 84, 83
18, 141952, Note_on_c, 10, 93, 83
18, 142080, Note_off_c, 10, 67, 0
18, 142080, Note_off_c, 10, 72, 0
18, 142080, Note_off_c, 10, 81, 0
18, 142080, Note_off_c, 10, 84, 0
18, 142080, Note_off_c, 10, 93, 0
18, 142080, Note_on_c, 10, 67, 79
18, 142080, Note_on_c, 10, 72, 79
18, 142080, Note_on_c, 10, 81, 79
18, 142080, Note_on_c, 10, 84, 79
18, 142080, Note_on_c, 10, 93, 79
18, 142208, Note_off_c, 10, 67, 0
18, 142208, Note_off_c, 10, 72, 0
18, 142208, Note_off_c, 10, 81, 0
18, 142208, Note_off_c, 10, 84, 0
18, 142208, Note_off_c, 10, 93, 0
18, 142208, Note_on_c, 10, 67, 85
18, 142208, Note_on_c, 10, 72, 85
18, 142208, Note_on_c, 10, 81, 85
18, 142208, Note_on_c, 10, 84, 85
18, 142208, Note_on_c, 10, 93, 85
18, 142336, Note_off_c, 10, 67, 0
18, 142336, Note_off_c, 10, 72, 0
18, 142336, Note_off_c, 10, 81, 0
18, 142336, Note_off_c, 10, 84, 0
18, 142336, Note_off_c, 10, 93, 0
18, 142464, Note_on_c, 10, 67, 72
18, 142464, Note_on_c, 10, 72, 72
18, 142464, Note_on_c, 10, 81, 72
18, 142464, Note_on_c, 10, 84, 72
18, 142464, Note_on_c, 10, 93, 72
18, 142592, Note_off_c, 10, 67, 0
18, 142592, Note_off_c, 10, 72, 0
18, 142592, Note_off_c, 10, 81, 0
18, 142592, Note_off_c, 10, 84, 0
18, 142592, Note_off_c, 10, 93, 0
18, 142592, Note_on_c, 10, 67, 81
18, 142592, Note_on_c, 10, 72, 81
18, 142592, Note_on_c, 10, 81, 81
18, 142592, Note_on_c, 10, 84, 81
18, 142592, Note_on_c, 10, 93, 81
18, 142720, Note_off_c, 10, 67, 0
18, 142720, Note_off_c, 10, 72, 0
18, 142720, Note_off_c, 10, 81, 0
18, 142720, Note_off_c, 10, 84, 0
18, 142720, Note_off_c, 10, 93, 0
18, 142720, Note_on_c, 10, 67, 83
18, 142720, Note_on_c, 10, 72, 83
18, 142720, Note_on_c, 10, 81, 83
18, 142720, Note_on_c, 10, 84, 83
18, 142720, Note_on_c, 10, 93, 83
18, 142848, Note_off_c, 10, 67, 0
18, 142848, Note_off_c, 10, 72, 0
18, 142848, Note_off_c, 10, 81, 0
18, 142848, Note_off_c, 10, 84, 0
18, 142848, Note_off_c, 10, 93, 0
18, 142848, Note_on_c, 10, 67, 86
18, 142848, Note_on_c, 10, 72, 86
18, 142848, Note_on_c, 10, 81, 86
18, 142848, Note_on_c, 10, 84, 86
18, 142848, Note_on_c, 10, 93, 86
18, 142976, Note_off_c, 10, 67, 0
18, 142976, Note_off_c, 10, 72, 0
18, 142976, Note_off_c, 10, 81, 0
18, 142976, Note_off_c, 10, 84, 0
18, 142976, Note_off_c, 10, 93, 0
18, 142976, Note_on_c, 10, 67, 78
18, 142976, Note_on_c, 10, 72, 78
18, 142976, Note_on_c, 10, 81, 78
18, 142976, Note_on_c, 10, 84, 78
18, 142976, Note_on_c, 10, 93, 78
18, 143104, Note_off_c, 10, 67, 0
18, 143104, Note_off_c, 10, 72, 0
18, 143104, Note_off_c, 10, 81, 0
18, 143104, Note_off_c, 10, 84, 0
18, 143104, Note_off_c, 10, 93, 0
18, 143232, Note_on_c, 10, 67, 73
18, 143232, Note_on_c, 10, 72, 73
18, 143232, Note_on_c, 10, 81, 73
18, 143232, Note_on_c, 10, 84, 73
18, 143232, Note_on_c, 10, 93, 73
18, 143360, Note_off_c, 10, 67, 0
18, 143360, Note_off_c, 10, 72, 0
18, 143360, Note_off_c, 10, 81, 0
18, 143360, Note_off_c, 10, 84, 0
18, 143360, Note_off_c, 10, 93, 0
18, 143360, Note_on_c, 10, 67, 81
18, 143360, Note_on_c, 10, 72, 81
18, 143360, Note_on_c, 10, 81, 81
18, 143360, Note_on_c, 10, 84, 81
18, 143360, Note_on_c, 10, 93, 81
18, 143488, Note_off_c, 10, 67, 0
18, 143488, Note_off_c, 10, 72, 0
18, 143488, Note_off_c, 10, 81, 0
18, 143488, Note_off_c, 10, 84, 0
18, 143488, Note_off_c, 10, 93, 0
18, 143488, Note_on_c, 10, 67, 84
18, 143488, Note_on_c, 10, 72, 84
18, 143488, Note_on_c, 10, 81, 84
18, 143488, Note_on_c, 10, 84, 84
18, 143488, Note_on_c, 10, 93, 84
18, 143616, Note_off_c, 10, 67, 0
18, 143616, Note_off_c, 10, 72, 0
18, 143616, Note_off_c, 10, 81, 0
18, 143616, Note_off_c, 10, 84, 0
18, 143616, Note_off_c, 10, 93, 0
18, 143616, Note_on_c, 10, 67, 86
18, 143616, Note_on_c, 10, 72, 86
18, 143616, Note_on_c, 10, 81, 86
18, 143616, Note_on_c, 10, 84, 86
18, 143616, Note_on_c, 10, 93, 86
18, 143744, Note_off_c, 10, 67, 0
18, 143744, Note_off_c, 10, 72, 0
18, 143744, Note_off_c, 10, 81, 0
18, 143744, Note_off_c, 10, 84, 0
18, 143744, Note_off_c, 10, 93, 0
18, 143744, Note_on_c, 10, 67, 87
18, 143744, Note_on_c, 10, 72, 87
18, 143744, Note_on_c, 10, 81, 87
18, 143744, Note_on_c, 10, 84, 87
18, 143744, Note_on_c, 10, 93, 87
18, 143872, Note_off_c, 10, 67, 0
18, 143872, Note_off_c, 10, 72, 0
18, 143872, Note_off_c, 10, 81, 0
18, 143872, Note_off_c, 10, 84, 0
18, 143872, Note_off_c, 10, 93, 0
18, 144000, Note_on_c, 10, 67, 78
18, 144000, Note_on_c, 10, 72, 78
18, 144000, Note_on_c, 10, 81, 78
18, 144000, Note_on_c, 10, 84, 78
18, 144000, Note_on_c, 10, 93, 78
18, 144128, Note_off_c, 10, 67, 0
18, 144128, Note_off_c, 10, 72, 0
18, 144128, Note_off_c, 10, 81, 0
18, 144128, Note_off_c, 10, 84, 0
18, 144128, Note_off_c, 10, 93, 0
18, 144128, Note_on_c, 10, 67, 83
18, 144128, Note_on_c, 10, 72, 83
18, 144128, Note_on_c, 10, 81, 83
18, 144128, Note_on_c, 10, 84, 83
18, 144128, Note_on_c, 10, 93, 83
18, 144256, Note_off_c, 10, 67, 0
18, 144256, Note_off_c, 10, 72, 0
18, 144256, Note_off_c, 10, 81, 0
18, 144256, Note_off_c, 10, 84, 0
18, 144256, Note_off_c, 10, 93, 0
18, 144256, Note_on_c, 10, 67, 83
18, 144256, Note_on_c, 10, 72, 83
18, 144256, Note_on_c, 10, 81, 83
18, 144256, Note_on_c, 10, 84, 83
18, 144256, Note_on_c, 10, 93, 83
18, 144384, Note_off_c, 10, 67, 0
18, 144384, Note_off_c, 10, 72, 0
18, 144384, Note_off_c, 10, 81, 0
18, 144384, Note_off_c, 10, 84, 0
18, 144384, Note_off_c, 10, 93, 0
18, 189781, Note_on_c, 10, 89, 78
18, 189781, Note_on_c, 10, 91, 78
18, 189781, Note_on_c, 10, 95, 78
18, 189781, Note_on_c, 10, 98, 78
18, 189866, Note_off_c, 10, 89, 0
18, 189866, Note_off_c, 10, 91, 0
18, 189866, Note_off_c, 10, 95, 0
18, 189866, Note_off_c, 10, 98, 0
18, 189866, Note_on_c, 10, 79, 63
18, 189866, Note_on_c, 10, 83, 63
18, 189866, Note_on_c, 10, 84, 63
18, 189866, Note_on_c, 10, 86, 63
18, 189952, Note_off_c, 10, 79, 0
18, 189952, Note_off_c, 10, 83, 0
18, 189952, Note_off_c, 10, 84, 0
18, 189952, Note_off_c, 10, 86, 0
18, 189952, Note_on_c, 10, 89, 102
18, 189952, Note_on_c, 10, 91, 102
18, 189952, Note_on_c, 10, 94, 102
18, 189952, Note_on_c, 10, 98, 102
18, 190037, Note_off_c, 10, 89, 0
18, 190037, Note_off_c, 10, 91, 0
18, 190037, Note_off_c, 10, 94, 0
18, 190037, Note_off_c, 10, 98, 0
18, 190037, Note_on_c, 10, 79, 62
18, 190037, Note_on_c, 10, 82, 62
18, 190037, Note_on_c, 10, 84, 62
18, 190037, Note_on_c, 10, 86, 62
18, 190122, Note_off_c, 10, 79, 0
18, 190122, Note_off_c, 10, 82, 0
18, 190122, Note_off_c, 10, 84, 0
18, 190122, Note_off_c, 10, 86, 0
18, 190293, Note_on_c, 10, 89, 77
18, 190293, Note_on_c, 10, 91, 77
18, 190293, Note_on_c, 10, 94, 77
18, 190293, Note_on_c, 10, 98, 77
18, 190378, Note_off_c, 10, 89, 0
18, 190378, Note_off_c, 10, 91, 0
18, 190378, Note_off_c, 10, 94, 0
18, 190378, Note_off_c, 10, 98, 0
18, 190378, Note_on_c, 10, 79, 55
18, 190378, Note_on_c, 10, 82, 55
18, 190378, Note_on_c, 10, 84, 55
18, 190378, Note_on_c, 10, 86, 55
18, 190464, Note_off_c, 10, 79, 0
18, 190464, Note_off_c, 10, 82, 0
18, 190464, Note_off_c, 10, 84, 0
18, 190464, Note_off_c, 10, 86, 0
18, 190464, Note_on_c, 10, 89, 104
18, 190464, Note_on_c, 10, 91, 104
18, 190464, Note_on_c, 10, 94, 104
18, 190464, Note_on_c, 10, 98, 104
18, 190549, Note_off_c, 10, 89, 0
18, 190549, Note_off_c, 10, 91, 0
18, 190549, Note_off_c, 10, 94, 0
18, 190549, Note_off_c, 10, 98, 0
18, 190634, Note_on_c, 10, 79, 74
18, 190634, Note_on_c, 10, 82, 74
18, 190634, Note_on_c, 10, 84, 74
18, 190634, Note_on_c, 10, 86, 74
18, 190720, Note_off_c, 10, 79, 0
18, 190720, Note_off_c, 10, 82, 0
18, 190720, Note_off_c, 10, 84, 0
18, 190720, Note_off_c, 10, 86, 0
18, 190720, Note_on_c, 10, 89, 110
18, 190720, Note_on_c, 10, 91, 110
18, 190720, Note_on_c, 10, 94, 110
18, 190720, Note_on_c, 10, 98, 110
18, 190805, Note_off_c, 10, 89, 0
18, 190805, Note_off_c, 10, 91, 0
18, 190805, Note_off_c, 10, 94, 0
18, 190805, Note_off_c, 10, 98, 0
18, 190805, Note_on_c, 10, 79, 61
18, 190805, Note_on_c, 10, 82, 61
18, 190805, Note_on_c, 10, 84, 61
18, 190805, Note_on_c, 10, 86, 61
18, 190890, Note_off_c, 10, 79, 0
18, 190890, Note_off_c, 10, 82, 0
18, 190890, Note_off_c, 10, 84, 0
18, 190890, Note_off_c, 10, 86, 0
18, 190890, Note_on_c, 10, 89, 101
18, 190890, Note_on_c, 10, 91, 101
18, 190890, Note_on_c, 10, 94, 101
18, 190890, Note_on_c, 10, 98, 101
18, 190976, Note_off_c, 10, 89, 0
18, 190976, Note_off_c, 10, 91, 0
18, 190976, Note_off_c, 10, 94, 0
18, 190976, Note_off_c, 10, 98, 0
18, 191146, Note_on_c, 10, 79, 71
18, 191146, Note_on_c, 10, 82, 71
18, 191146, Note_on_c, 10, 84, 71
18, 191146, Note_on_c, 10, 86, 71
18, 191232, Note_off_c, 10, 79, 0
18, 191232, Note_off_c, 10, 82, 0
18, 191232, Note_off_c, 10, 84, 0
18, 191232, Note_off_c, 10, 86, 0
18, 191232, Note_on_c, 10, 89, 107
18, 191232, Note_on_c, 10, 91, 107
18, 191232, Note_on_c, 10, 94, 107
18, 191232, Note_on_c, 10, 98, 107
18, 191317, Note_off_c, 10, 89, 0
18, 191317, Note_off_c, 10, 91, 0
18, 191317, Note_off_c, 10, 94, 0
18, 191317, Note_off_c, 10, 98, 0
18, 191317, Note_on_c, 10, 79, 63
18, 191317, Note_on_c, 10, 82, 63
18, 191317, Note_on_c, 10, 84, 63
18, 191317, Note_on_c, 10, 86, 63
18, 191402, Note_off_c, 10, 79, 0
18, 191402, Note_off_c, 10, 82, 0
18, 191402, Note_off_c, 10, 84, 0
18, 191402, Note_off_c, 10, 86, 0
18, 191402, Note_on_c, 10, 89, 102
18, 191402, Note_on_c, 10, 91, 102
18, 191402, Note_on_c, 10, 94, 102
18, 191402, Note_on_c, 10, 98, 102
18, 191488, Note_off_c, 10, 89, 0
18, 191488, Note_off_c, 10, 91, 0
18, 191488, Note_off_c, 10, 94, 0
18, 191488, Note_off_c, 10, 98, 0
18, 191488, Note_on_c, 10, 79, 64
18, 191488, Note_on_c, 10, 82, 64
18, 191488, Note_on_c, 10, 84, 64
18, 191488, Note_on_c, 10, 86, 64
18, 191573, Note_off_c, 10, 79, 0
18, 191573, Note_off_c, 10, 82, 0
18, 191573, Note_off_c, 10, 84, 0
18, 191573, Note_off_c, 10, 86, 0
18, 191744, Note_on_c, 10, 89, 72
18, 191744, Note_on_c, 10, 91, 72
18, 191744, Note_on_c, 10, 94, 72
18, 191744, Note_on_c, 10, 98, 72
18, 191829, Note_off_c, 10, 89, 0
18, 191829, Note_off_c, 10, 91, 0
18, 191829, Note_off_c, 10, 94, 0
18, 191829, Note_off_c, 10, 98, 0
18, 191829, Note_on_c, 10, 79, 61
18, 191829, Note_on_c, 10, 82, 61
18, 191829, Note_on_c, 10, 84, 61
18, 191829, Note_on_c, 10, 86, 61
18, 191914, Note_off_c, 10, 79, 0
18, 191914, Note_off_c, 10, 82, 0
18, 191914, Note_off_c, 10, 84, 0
18, 191914, Note_off_c, 10, 86, 0
18, 192085, Note_on_c, 10, 89, 74
18, 192085, Note_on_c, 10, 91, 74
18, 192085, Note_on_c, 10, 94, 74
18, 192085, Note_on_c, 10, 98, 74
18, 192170, Note_off_c, 10, 89, 0
18, 192170, Note_off_c, 10, 91, 0
18, 192170, Note_off_c, 10, 94, 0
18, 192170, Note_off_c, 10, 98, 0
18, 192170, Note_on_c, 10, 79, 55
18, 192170, Note_on_c, 10, 82, 55
18, 192170, Note_on_c, 10, 84, 55
18, 192170, Note_on_c, 10, 86, 55
18, 192256, Note_off_c, 10, 79, 0
18, 192256, Note_off_c, 10, 82, 0
18, 192256, Note_off_c, 10, 84, 0
18, 192256, Note_off_c, 10, 86, 0
18, 192256, Note_on_c, 10, 89, 100
18, 192256, Note_on_c, 10, 91, 100
18, 192256, Note_on_c, 10, 94, 100
18, 192256, Note_on_c, 10, 98, 100
18, 192341, Note_off_c, 10, 89, 0
18, 192341, Note_off_c, 10, 91, 0
18, 192341, Note_off_c, 10, 94, 0
18, 192341, Note_off_c, 10, 98, 0
18, 192341, Note_on_c, 10, 79, 62
18, 192341, Note_on_c, 10, 82, 62
18, 192341, Note_on_c, 10, 84, 62
18, 192341, Note_on_c, 10, 86, 62
18, 192426, Note_off_c, 10, 79, 0
18, 192426, Note_off_c, 10, 82, 0
18, 192426, Note_off_c, 10, 84, 0
18, 192426, Note_off_c, 10, 86, 0
18, 192426, Note_on_c, 10, 89, 103
18, 192426, Note_on_c, 10, 91, 103
18, 192426, Note_on_c, 10, 94, 103
18, 192426, Note_on_c, 10, 98, 103
18, 192512, Note_off_c, 10, 89, 0
18, 192512, Note_off_c, 10, 91, 0
18, 192512, Note_off_c, 10, 94, 0
18, 192512, Note_off_c, 10, 98, 0
18, 192512, Note_on_c, 10, 79, 65
18, 192512, Note_on_c, 10, 82, 65
18, 192512, Note_on_c, 10, 84, 65
18, 192512, Note_on_c, 10, 86, 65
18, 192597, Note_off_c, 10, 79, 0
18, 192597, Note_off_c, 10, 82, 0
18, 192597, Note_off_c, 10, 84, 0
18, 192597, Note_off_c, 10, 86, 0
18, 192768, Note_on_c, 10, 89, 75
18, 192768, Note_on_c, 10, 91, 75
18, 192768, Note_on_c, 10, 94, 75
18, 192768, Note_on_c, 10, 98, 75
18, 192853, Note_off_c, 10, 89, 0
18, 192853, Note_off_c, 10, 91, 0
18, 192853, Note_off_c, 10, 94, 0
18, 192853, Note_off_c, 10, 98, 0
18, 192853, Note_on_c, 10, 79, 59
18, 192853, Note_on_c, 10, 82, 59
18, 192853, Note_on_c, 10, 84, 59
18, 192853, Note_on_c, 10, 86, 59
18, 192938, Note_off_c, 10, 79, 0
18, 192938, Note_off_c, 10, 82, 0
18, 192938, Note_off_c, 10, 84, 0
18, 192938, Note_off_c, 10, 86, 0
18, 192938, Note_on_c, 10, 89, 104
18, 192938, Note_on_c, 10, 91, 104
18, 192938, Note_on_c, 10, 94, 104
18, 192938, Note_on_c, 10, 98, 104
18, 193024, Note_off_c, 10, 89, 0
18, 193024, Note_off_c, 10, 91, 0
18, 193024, Note_off_c, 10, 94, 0
18, 193024, Note_off_c, 10, 98, 0
18, 193024, Note_on_c, 10, 79, 66
18, 193024, Note_on_c, 10, 82, 66
18, 193024, Note_on_c, 10, 84, 66
18, 193024, Note_on_c, 10, 86, 66
18, 193109, Note_off_c, 10, 79, 0
18, 193109, Note_off_c, 10, 82, 0
18, 193109, Note_off_c, 10, 84, 0
18, 193109, Note_off_c, 10, 86, 0
18, 193365, Note_on_c, 10, 89, 74
18, 193365, Note_on_c, 10, 91, 74
18, 193365, Note_on_c, 10, 94, 74
18, 193365, Note_on_c, 10, 98, 74
18, 193450, Note_off_c, 10, 89, 0
18, 193450, Note_off_c, 10, 91, 0
18, 193450, Note_off_c, 10, 94, 0
18, 193450, Note_off_c, 10, 98, 0
18, 193450, Note_on_c, 10, 79, 55
18, 193450, Note_on_c, 10, 82, 55
18, 193450, Note_on_c, 10, 84, 55
18, 193450, Note_on_c, 10, 86, 55
18, 193536, Note_off_c, 10, 79, 0
18, 193536, Note_off_c, 10, 82, 0
18, 193536, Note_off_c, 10, 84, 0
18, 193536, Note_off_c, 10, 86, 0
18, 193536, Note_on_c, 10, 89, 103
18, 193536, Note_on_c, 10, 91, 103
18, 193536, Note_on_c, 10, 94, 103
18, 193536, Note_on_c, 10, 98, 103
18, 193621, Note_off_c, 10, 89, 0
18, 193621, Note_off_c, 10, 91, 0
18, 193621, Note_off_c, 10, 94, 0
18, 193621, Note_off_c, 10, 98, 0
18, 193621, Note_on_c, 10, 79, 61
18, 193621, Note_on_c, 10, 82, 61
18, 193621, Note_on_c, 10, 84, 61
18, 193621, Note_on_c, 10, 86, 61
18, 193706, Note_off_c, 10, 79, 0
18, 193706, Note_off_c, 10, 82, 0
18, 193706, Note_off_c, 10, 84, 0
18, 193706, Note_off_c, 10, 86, 0
18, 193877, Note_on_c, 10, 89, 74
18, 193877, Note_on_c, 10, 91, 74
18, 193877, Note_on_c, 10, 94, 74
18, 193877, Note_on_c, 10, 98, 74
18, 193962, Note_off_c, 10, 89, 0
18, 193962, Note_off_c, 10, 91, 0
18, 193962, Note_off_c, 10, 94, 0
18, 193962, Note_off_c, 10, 98, 0
18, 193962, Note_on_c, 10, 79, 62
18, 193962, Note_on_c, 10, 82, 62
18, 193962, Note_on_c, 10, 84, 62
18, 193962, Note_on_c, 10, 86, 62
18, 194048, Note_off_c, 10, 79, 0
18, 194048, Note_off_c, 10, 82, 0
18, 194048, Note_off_c, 10, 84, 0
18, 194048, Note_off_c, 10, 86, 0
18, 194048, Note_on_c, 10, 89, 103
18, 194048, Note_on_c, 10, 91, 103
18, 194048, Note_on_c, 10, 94, 103
18, 194048, Note_on_c, 10, 98, 103
18, 194133, Note_off_c, 10, 89, 0
18, 194133, Note_off_c, 10, 91, 0
18, 194133, Note_off_c, 10, 94, 0
18, 194133, Note_off_c, 10, 98, 0
18, 194218, Note_on_c, 10, 79, 79
18, 194218, Note_on_c, 10, 82, 79
18, 194218, Note_on_c, 10, 84, 79
18, 194218, Note_on_c, 10, 86, 79
18, 194304, Note_off_c, 10, 79, 0
18, 194304, Note_off_c, 10, 82, 0
18, 194304, Note_off_c, 10, 84, 0
18, 194304, Note_off_c, 10, 86, 0
18, 194304, Note_on_c, 10, 89, 108
18, 194304, Note_on_c, 10, 91, 108
18, 194304, Note_on_c, 10, 94, 108
18, 194304, Note_on_c, 10, 98, 108
18, 194389, Note_off_c, 10, 89, 0
18, 194389, Note_off_c, 10, 91, 0
18, 194389, Note_off_c, 10, 94, 0
18, 194389, Note_off_c, 10, 98, 0
18, 194389, Note_on_c, 10, 79, 66
18, 194389, Note_on_c, 10, 82, 66
18, 194389, Note_on_c, 10, 84, 66
18, 194389, Note_on_c, 10, 86, 66
18, 194474, Note_off_c, 10, 79, 0
18, 194474, Note_off_c, 10, 82, 0
18, 194474, Note_off_c, 10, 84, 0
18, 194474, Note_off_c, 10, 86, 0
18, 194474, Note_on_c, 10, 89, 105
18, 194474, Note_on_c, 10, 91, 105
18, 194474, Note_on_c, 10, 94, 105
18, 194474, Note_on_c, 10, 98, 105
18, 194560, Note_off_c, 10, 89, 0
18, 194560, Note_off_c, 10, 91, 0
18, 194560, Note_off_c, 10, 94, 0
18, 194560, Note_off_c, 10, 98, 0
18, 194560, Note_on_c, 10, 79, 66
18, 194560, Note_on_c, 10, 82, 66
18, 194560, Note_on_c, 10, 84, 66
18, 194560, Note_on_c, 10, 86, 66
18, 194645, Note_off_c, 10, 79, 0
18, 194645, Note_off_c, 10, 82, 0
18, 194645, Note_off_c, 10, 84, 0
18, 194645, Note_off_c, 10, 86, 0
18, 194816, Note_on_c, 10, 89, 74
18, 194816, Note_on_c, 10, 91, 74
18, 194816, Note_on_c, 10, 93, 74
18, 194816, Note_on_c, 10, 98, 74
18, 194901, Note_off_c, 10, 89, 0
18, 194901, Note_off_c, 10, 91, 0
18, 194901, Note_off_c, 10, 93, 0
18, 194901, Note_off_c, 10, 98, 0
18, 194901, Note_on_c, 10, 79, 65
18, 194901, Note_on_c, 10, 82, 65
18, 194901, Note_on_c, 10, 84, 65
18, 194901, Note_on_c, 10, 88, 65
18, 194986, Note_off_c, 10, 79, 0
18, 194986, Note_off_c, 10, 82, 0
18, 194986, Note_off_c, 10, 84, 0
18, 194986, Note_off_c, 10, 88, 0
18, 194986, Note_on_c, 10, 89, 99
18, 194986, Note_on_c, 10, 91, 99
18, 194986, Note_on_c, 10, 93, 99
18, 194986, Note_on_c, 10, 98, 99
18, 195072, Note_off_c, 10, 89, 0
18, 195072, Note_off_c, 10, 91, 0
18, 195072, Note_off_c, 10, 93, 0
18, 195072, Note_off_c, 10, 98, 0
18, 195072, Note_on_c, 10, 79, 71
18, 195072, Note_on_c, 10, 82, 71
18, 195072, Note_on_c, 10, 84, 71
18, 195072, Note_on_c, 10, 88, 71
18, 195157, Note_off_c, 10, 79, 0
18, 195157, Note_off_c, 10, 82, 0
18, 195157, Note_off_c, 10, 84, 0
18, 195157, Note_off_c, 10, 88, 0
18, 195157, Note_on_c, 10, 89, 102
18, 195157, Note_on_c, 10, 91, 102
18, 195157, Note_on_c, 10, 93, 102
18, 195157, Note_on_c, 10, 98, 102
18, 195242, Note_off_c, 10, 89, 0
18, 195242, Note_off_c, 10, 91, 0
18, 195242, Note_off_c, 10, 93, 0
18, 195242, Note_off_c, 10, 98, 0
18, 195242, Note_on_c, 10, 79, 71
18, 195242, Note_on_c, 10, 82, 71
18, 195242, Note_on_c, 10, 84, 71
18, 195242, Note_on_c, 10, 88, 71
18, 195328, Note_off_c, 10, 79, 0
18, 195328, Note_off_c, 10, 82, 0
18, 195328, Note_off_c, 10, 84, 0
18, 195328, Note_off_c, 10, 88, 0
18, 195328, Note_on_c, 10, 89, 100
18, 195328, Note_on_c, 10, 91, 100
18, 195328, Note_on_c, 10, 93, 100
18, 195328, Note_on_c, 10, 98, 100
18, 195413, Note_off_c, 10, 89, 0
18, 195413, Note_off_c, 10, 91, 0
18, 195413, Note_off_c, 10, 93, 0
18, 195413, Note_off_c, 10, 98, 0
18, 195413, Note_on_c, 10, 79, 67
18, 195413, Note_on_c, 10, 82, 67
18, 195413, Note_on_c, 10, 84, 67
18, 195413, Note_on_c, 10, 88, 67
18, 195498, Note_off_c, 10, 79, 0
18, 195498, Note_off_c, 10, 82, 0
18, 195498, Note_off_c, 10, 84, 0
18, 195498, Note_off_c, 10, 88, 0
18, 195498, Note_on_c, 10, 89, 96
18, 195498, Note_on_c, 10, 91, 96
18, 195498, Note_on_c, 10, 93, 96
18, 195498, Note_on_c, 10, 98, 96
18, 195584, Note_off_c, 10, 89, 0
18, 195584, Note_off_c, 10, 91, 0
18, 195584, Note_off_c, 10, 93, 0
18, 195584, Note_off_c, 10, 98, 0
18, 195584, Note_on_c, 10, 79, 71
18, 195584, Note_on_c, 10, 82, 71
18, 195584, Note_on_c, 10, 84, 71
18, 195584, Note_on_c, 10, 88, 71
18, 195669, Note_off_c, 10, 79, 0
18, 195669, Note_off_c, 10, 82, 0
18, 195669, Note_off_c, 10, 84, 0
18, 195669, Note_off_c, 10, 88, 0
18, 195669, Note_on_c, 10, 89, 98
18, 195669, Note_on_c, 10, 91, 98
18, 195669, Note_on_c, 10, 93, 98
18, 195669, Note_on_c, 10, 98, 98
18, 195754, Note_off_c, 10, 89, 0
18, 195754, Note_off_c, 10, 91, 0
18, 195754, Note_off_c, 10, 93, 0
18, 195754, Note_off_c, 10, 98, 0
18, 195754, Note_on_c, 10, 79, 68
18, 195754, Note_on_c, 10, 82, 68
18, 195754, Note_on_c, 10, 84, 68
18, 195754, Note_on_c, 10, 88, 68
18, 195840, Note_off_c, 10, 79, 0
18, 195840, Note_off_c, 10, 82, 0
18, 195840, Note_off_c, 10, 84, 0
18, 195840, Note_off_c, 10, 88, 0
18, 195840, Note_on_c, 10, 89, 98
18, 195840, Note_on_c, 10, 91, 98
18, 195840, Note_on_c, 10, 93, 98
18, 195840, Note_on_c, 10, 98, 98
18, 195925, Note_off_c, 10, 89, 0
18, 195925, Note_off_c, 10, 91, 0
18, 195925, Note_off_c, 10, 93, 0
18, 195925, Note_off_c, 10, 98, 0
18, 195925, Note_on_c, 10, 79, 69
18, 195925, Note_on_c, 10, 82, 69
18, 195925, Note_on_c, 10, 84, 69
18, 195925, Note_on_c, 10, 88, 69
18, 196010, Note_off_c, 10, 79, 0
18, 196010, Note_off_c, 10, 82, 0
18, 196010, Note_off_c, 10, 84, 0
18, 196010, Note_off_c, 10, 88, 0
18, 196010, Note_on_c, 10, 89, 100
18, 196010, Note_on_c, 10, 91, 100
18, 196010, Note_on_c, 10, 93, 100
18, 196010, Note_on_c, 10, 98, 100
18, 196096, Note_off_c, 10, 89, 0
18, 196096, Note_off_c, 10, 91, 0
18, 196096, Note_off_c, 10, 93, 0
18, 196096, Note_off_c, 10, 98, 0
18, 196266, Note_on_c, 10, 79, 76
18, 196266, Note_on_c, 10, 82, 76
18, 196266, Note_on_c, 10, 84, 76
18, 196266, Note_on_c, 10, 88, 76
18, 196352, Note_off_c, 10, 79, 0
18, 196352, Note_off_c, 10, 82, 0
18, 196352, Note_off_c, 10, 84, 0
18, 196352, Note_off_c, 10, 88, 0
18, 196352, Note_on_c, 10, 89, 105
18, 196352, Note_on_c, 10, 91, 105
18, 196352, Note_on_c, 10, 93, 105
18, 196352, Note_on_c, 10, 98, 105
18, 196437, Note_off_c, 10, 89, 0
18, 196437, Note_off_c, 10, 91, 0
18, 196437, Note_off_c, 10, 93, 0
18, 196437, Note_off_c, 10, 98, 0
18, 196437, Note_on_c, 10, 79, 66
18, 196437, Note_on_c, 10, 82, 66
18, 196437, Note_on_c, 10, 84, 66
18, 196437, Note_on_c, 10, 88, 66
18, 196522, Note_off_c, 10, 79, 0
18, 196522, Note_off_c, 10, 82, 0
18, 196522, Note_off_c, 10, 84, 0
18, 196522, Note_off_c, 10, 88, 0
18, 196522, Note_on_c, 10, 89, 101
18, 196522, Note_on_c, 10, 91, 101
18, 196522, Note_on_c, 10, 93, 101
18, 196522, Note_on_c, 10, 98, 101
18, 196608, Note_off_c, 10, 89, 0
18, 196608, Note_off_c, 10, 91, 0
18, 196608, Note_off_c, 10, 93, 0
18, 196608, Note_off_c, 10, 98, 0
18, 196608, Note_on_c, 10, 79, 71
18, 196608, Note_on_c, 10, 82, 71
18, 196608, Note_on_c, 10, 84, 71
18, 196608, Note_on_c, 10, 88, 71
18, 196693, Note_off_c, 10, 79, 0
18, 196693, Note_off_c, 10, 82, 0
18, 196693, Note_off_c, 10, 84, 0
18, 196693, Note_off_c, 10, 88, 0
18, 196693, Note_on_c, 10, 89, 103
18, 196693, Note_on_c, 10, 91, 103
18, 196693, Note_on_c, 10, 93, 103
18, 196693, Note_on_c, 10, 98, 103
18, 196778, Note_off_c, 10, 89, 0
18, 196778, Note_off_c, 10, 91, 0
18, 196778, Note_off_c, 10, 93, 0
18, 196778, Note_off_c, 10, 98, 0
18, 196864, Note_on_c, 10, 88, 78
18, 196864, Note_on_c, 10, 89, 78
18, 196864, Note_on_c, 10, 93, 78
18, 196864, Note_on_c, 10, 96, 78
18, 196949, Note_off_c, 10, 88, 0
18, 196949, Note_off_c, 10, 89, 0
18, 196949, Note_off_c, 10, 93, 0
18, 196949, Note_off_c, 10, 96, 0
18, 196949, Note_on_c, 10, 79, 67
18, 196949, Note_on_c, 10, 82, 67
18, 196949, Note_on_c, 10, 84, 67
18, 196949, Note_on_c, 10, 88, 67
18, 197034, Note_off_c, 10, 79, 0
18, 197034, Note_off_c, 10, 82, 0
18, 197034, Note_off_c, 10, 84, 0
18, 197034, Note_off_c, 10, 88, 0
18, 197034, Note_on_c, 10, 88, 96
18, 197034, Note_on_c, 10, 89, 96
18, 197034, Note_on_c, 10, 93, 96
18, 197034, Note_on_c, 10, 96, 96
18, 197120, Note_off_c, 10, 88, 0
18, 197120, Note_off_c, 10, 89, 0
18, 197120, Note_off_c, 10, 93, 0
18, 197120, Note_off_c, 10, 96, 0
18, 197120, Note_on_c, 10, 79, 67
18, 197120, Note_on_c, 10, 82, 67
18, 197120, Note_on_c, 10, 84, 67
18, 197120, Note_on_c, 10, 88, 67
18, 197205, Note_off_c, 10, 79, 0
18, 197205, Note_off_c, 10, 82, 0
18, 197205, Note_off_c, 10, 84, 0
18, 197205, Note_off_c, 10, 88, 0
18, 197205, Note_on_c, 10, 88, 96
18, 197205, Note_on_c, 10, 89, 96
18, 197205, Note_on_c, 10, 93, 96
18, 197205, Note_on_c, 10, 96, 96
18, 197290, Note_off_c, 10, 88, 0
18, 197290, Note_off_c, 10, 89, 0
18, 197290, Note_off_c, 10, 93, 0
18, 197290, Note_off_c, 10, 96, 0
18, 197290, Note_on_c, 10, 79, 74
18, 197290, Note_on_c, 10, 82, 74
18, 197290, Note_on_c, 10, 84, 74
18, 197290, Note_on_c, 10, 88, 74
18, 197376, Note_off_c, 10, 79, 0
18, 197376, Note_off_c, 10, 82, 0
18, 197376, Note_off_c, 10, 84, 0
18, 197376, Note_off_c, 10, 88, 0
18, 197376, Note_on_c, 10, 89, 96
18, 197376, Note_on_c, 10, 93, 96
18, 197376, Note_on_c, 10, 94, 96
18, 197376, Note_on_c, 10, 96, 96
18, 197461, Note_off_c, 10, 89, 0
18, 197461, Note_off_c, 10, 93, 0
18, 197461, Note_off_c, 10, 94, 0
18, 197461, Note_off_c, 10, 96, 0
18, 197461, Note_on_c, 10, 81, 66
18, 197461, Note_on_c, 10, 82, 66
18, 197461, Note_on_c, 10, 84, 66
18, 197461, Note_on_c, 10, 88, 66
18, 197546, Note_off_c, 10, 81, 0
18, 197546, Note_off_c, 10, 82, 0
18, 197546, Note_off_c, 10, 84, 0
18, 197546, Note_off_c, 10, 88, 0
18, 197546, Note_on_c, 10, 89, 98
18, 197546, Note_on_c, 10, 93, 98
18, 197546, Note_on_c, 10, 94, 98
18, 197546, Note_on_c, 10, 96, 98
18, 197632, Note_off_c, 10, 89, 0
18, 197632, Note_off_c, 10, 93, 0
18, 197632, Note_off_c, 10, 94, 0
18, 197632, Note_off_c, 10, 96, 0
18, 197632, Note_on_c, 10, 81, 65
18, 197632, Note_on_c, 10, 82, 65
18, 197632, Note_on_c, 10, 84, 65
18, 197632, Note_on_c, 10, 88, 65
18, 197717, Note_off_c, 10, 81, 0
18, 197717, Note_off_c, 10, 82, 0
18, 197717, Note_off_c, 10, 84, 0
18, 197717, Note_off_c, 10, 88, 0
18, 197717, Note_on_c, 10, 89, 97
18, 197717, Note_on_c, 10, 93, 97
18, 197717, Note_on_c, 10, 94, 97
18, 197717, Note_on_c, 10, 96, 97
18, 197802, Note_off_c, 10, 89, 0
18, 197802, Note_off_c, 10, 93, 0
18, 197802, Note_off_c, 10, 94, 0
18, 197802, Note_off_c, 10, 96, 0
18, 197802, Note_on_c, 10, 81, 71
18, 197802, Note_on_c, 10, 82, 71
18, 197802, Note_on_c, 10, 84, 71
18, 197802, Note_on_c, 10, 88, 71
18, 197888, Note_off_c, 10, 81, 0
18, 197888, Note_off_c, 10, 82, 0
18, 197888, Note_off_c, 10, 84, 0
18, 197888, Note_off_c, 10, 88, 0
18, 197888, Note_on_c, 10, 89, 98
18, 197888, Note_on_c, 10, 93, 98
18, 197888, Note_on_c, 10, 94, 98
18, 197888, Note_on_c, 10, 96, 98
18, 197973, Note_off_c, 10, 89, 0
18, 197973, Note_off_c, 10, 93, 0
18, 197973, Note_off_c, 10, 94, 0
18, 197973, Note_off_c, 10, 96, 0
18, 197973, Note_on_c, 10, 81, 71
18, 197973, Note_on_c, 10, 82, 71
18, 197973, Note_on_c, 10, 84, 71
18, 197973, Note_on_c, 10, 88, 71
18, 198058, Note_off_c, 10, 81, 0
18, 198058, Note_off_c, 10, 82, 0
18, 198058, Note_off_c, 10, 84, 0
18, 198058, Note_off_c, 10, 88, 0
18, 198058, Note_on_c, 10, 89, 97
18, 198058, Note_on_c, 10, 93, 97
18, 198058, Note_on_c, 10, 94, 97
18, 198058, Note_on_c, 10, 96, 97
18, 198144, Note_off_c, 10, 89, 0
18, 198144, Note_off_c, 10, 93, 0
18, 198144, Note_off_c, 10, 94, 0
18, 198144, Note_off_c, 10, 96, 0
18, 198314, Note_on_c, 10, 81, 75
18, 198314, Note_on_c, 10, 82, 75
18, 198314, Note_on_c, 10, 84, 75
18, 198314, Note_on_c, 10, 88, 75
18, 198400, Note_off_c, 10, 81, 0
18, 198400, Note_off_c, 10, 82, 0
18, 198400, Note_off_c, 10, 84, 0
18, 198400, Note_off_c, 10, 88, 0
18, 198400, Note_on_c, 10, 89, 99
18, 198400, Note_on_c, 10, 93, 99
18, 198400, Note_on_c, 10, 94, 99
18, 198400, Note_on_c, 10, 96, 99
18, 198485, Note_off_c, 10, 89, 0
18, 198485, Note_off_c, 10, 93, 0
18, 198485, Note_off_c, 10, 94, 0
18, 198485, Note_off_c, 10, 96, 0
18, 198485, Note_on_c, 10, 81, 71
18, 198485, Note_on_c, 10, 82, 71
18, 198485, Note_on_c, 10, 84, 71
18, 198485, Note_on_c, 10, 88, 71
18, 198570, Note_off_c, 10, 81, 0
18, 198570, Note_off_c, 10, 82, 0
18, 198570, Note_off_c, 10, 84, 0
18, 198570, Note_off_c, 10, 88, 0
18, 198570, Note_on_c, 10, 89, 97
18, 198570, Note_on_c, 10, 93, 97
18, 198570, Note_on_c, 10, 94, 97
18, 198570, Note_on_c, 10, 96, 97
18, 198656, Note_off_c, 10, 89, 0
18, 198656, Note_off_c, 10, 93, 0
18, 198656, Note_off_c, 10, 94, 0
18, 198656, Note_off_c, 10, 96, 0
18, 198656, Note_on_c, 10, 81, 72
18, 198656, Note_on_c, 10, 82, 72
18, 198656, Note_on_c, 10, 84, 72
18, 198656, Note_on_c, 10, 88, 72
18, 198741, Note_off_c, 10, 81, 0
18, 198741, Note_off_c, 10, 82, 0
18, 198741, Note_off_c, 10, 84, 0
18, 198741, Note_off_c, 10, 88, 0
18, 198741, Note_on_c, 10, 89, 100
18, 198741, Note_on_c, 10, 93, 100
18, 198741, Note_on_c, 10, 94, 100
18, 198741, Note_on_c, 10, 96, 100
18, 198826, Note_off_c, 10, 89, 0
18, 198826, Note_off_c, 10, 93, 0
18, 198826, Note_off_c, 10, 94, 0
18, 198826, Note_off_c, 10, 96, 0
18, 198826, Note_on_c, 10, 81, 71
18, 198826, Note_on_c, 10, 82, 71
18, 198826, Note_on_c, 10, 84, 71
18, 198826, Note_on_c, 10, 88, 71
18, 198912, Note_off_c, 10, 81, 0
18, 198912, Note_off_c, 10, 82, 0
18, 198912, Note_off_c, 10, 84, 0
18, 198912, Note_off_c, 10, 88, 0
18, 198912, Note_on_c, 10, 89, 96
18, 198912, Note_on_c, 10, 93, 96
18, 198912, Note_on_c, 10, 94, 96
18, 198912, Note_on_c, 10, 96, 96
18, 198997, Note_off_c, 10, 89, 0
18, 198997, Note_off_c, 10, 93, 0
18, 198997, Note_off_c, 10, 94, 0
18, 198997, Note_off_c, 10, 96, 0
18, 198997, Note_on_c, 10, 81, 72
18, 198997, Note_on_c, 10, 82, 72
18, 198997, Note_on_c, 10, 84, 72
18, 198997, Note_on_c, 10, 88, 72
18, 199082, Note_off_c, 10, 81, 0
18, 199082, Note_off_c, 10, 82, 0
18, 199082, Note_off_c, 10, 84, 0
18, 199082, Note_off_c, 10, 88, 0
18, 199082, Note_on_c, 10, 89, 98
18, 199082, Note_on_c, 10, 93, 98
18, 199082, Note_on_c, 10, 94, 98
18, 199082, Note_on_c, 10, 96, 98
18, 199168, Note_off_c, 10, 89, 0
18, 199168, Note_off_c, 10, 93, 0
18, 199168, Note_off_c, 10, 94, 0
18, 199168, Note_off_c, 10, 96, 0
18, 199168, Note_on_c, 10, 81, 68
18, 199168, Note_on_c, 10, 82, 68
18, 199168, Note_on_c, 10, 84, 68
18, 199168, Note_on_c, 10, 88, 68
18, 199253, Note_off_c, 10, 81, 0
18, 199253, Note_off_c, 10, 82, 0
18, 199253, Note_off_c, 10, 84, 0
18, 199253, Note_off_c, 10, 88, 0
18, 199338, Note_on_c, 10, 81, 74
18, 199338, Note_on_c, 10, 82, 74
18, 199338, Note_on_c, 10, 84, 74
18, 199338, Note_on_c, 10, 88, 74
18, 199424, Note_off_c, 10, 81, 0
18, 199424, Note_off_c, 10, 82, 0
18, 199424, Note_off_c, 10, 84, 0
18, 199424, Note_off_c, 10, 88, 0
18, 199424, Note_on_c, 10, 89, 98
18, 199424, Note_on_c, 10, 93, 98
18, 199424, Note_on_c, 10, 94, 98
18, 199424, Note_on_c, 10, 96, 98
18, 199509, Note_off_c, 10, 89, 0
18, 199509, Note_off_c, 10, 93, 0
18, 199509, Note_off_c, 10, 94, 0
18, 199509, Note_off_c, 10, 96, 0
18, 199509, Note_on_c, 10, 81, 71
18, 199509, Note_on_c, 10, 82, 71
18, 199509, Note_on_c, 10, 84, 71
18, 199509, Note_on_c, 10, 88, 71
18, 199594, Note_off_c, 10, 81, 0
18, 199594, Note_off_c, 10, 82, 0
18, 199594, Note_off_c, 10, 84, 0
18, 199594, Note_off_c, 10, 88, 0
18, 199594, Note_on_c, 10, 89, 94
18, 199594, Note_on_c, 10, 93, 94
18, 199594, Note_on_c, 10, 94, 94
18, 199594, Note_on_c, 10, 96, 94
18, 199680, Note_off_c, 10, 89, 0
18, 199680, Note_off_c, 10, 93, 0
18, 199680, Note_off_c, 10, 94, 0
18, 199680, Note_off_c, 10, 96, 0
18, 199680, Note_on_c, 10, 81, 71
18, 199680, Note_on_c, 10, 82, 71
18, 199680, Note_on_c, 10, 84, 71
18, 199680, Note_on_c, 10, 88, 71
18, 199765, Note_off_c, 10, 81, 0
18, 199765, Note_off_c, 10, 82, 0
18, 199765, Note_off_c, 10, 84, 0
18, 199765, Note_off_c, 10, 88, 0
18, 199765, Note_on_c, 10, 89, 99
18, 199765, Note_on_c, 10, 93, 99
18, 199765, Note_on_c, 10, 94, 99
18, 199765, Note_on_c, 10, 96, 99
18, 199850, Note_off_c, 10, 89, 0
18, 199850, Note_off_c, 10, 93, 0
18, 199850, Note_off_c, 10, 94, 0
18, 199850, Note_off_c, 10, 96, 0
18, 199850, Note_on_c, 10, 81, 71
18, 199850, Note_on_c, 10, 82, 71
18, 199850, Note_on_c, 10, 84, 71
18, 199850, Note_on_c, 10, 88, 71
18, 199936, Note_off_c, 10, 81, 0
18, 199936, Note_off_c, 10, 82, 0
18, 199936, Note_off_c, 10, 84, 0
18, 199936, Note_off_c, 10, 88, 0
18, 199936, Note_on_c, 10, 89, 96
18, 199936, Note_on_c, 10, 93, 96
18, 199936, Note_on_c, 10, 94, 96
18, 199936, Note_on_c, 10, 96, 96
18, 200021, Note_off_c, 10, 89, 0
18, 200021, Note_off_c, 10, 93, 0
18, 200021, Note_off_c, 10, 94, 0
18, 200021, Note_off_c, 10, 96, 0
18, 200021, Note_on_c, 10, 81, 73
18, 200021, Note_on_c, 10, 82, 73
18, 200021, Note_on_c, 10, 84, 73
18, 200021, Note_on_c, 10, 88, 73
18, 200106, Note_off_c, 10, 81, 0
18, 200106, Note_off_c, 10, 82, 0
18, 200106, Note_off_c, 10, 84, 0
18, 200106, Note_off_c, 10, 88, 0
18, 200106, Note_on_c, 10, 89, 98
18, 200106, Note_on_c, 10, 93, 98
18, 200106, Note_on_c, 10, 94, 98
18, 200106, Note_on_c, 10, 96, 98
18, 200192, Note_off_c, 10, 89, 0
18, 200192, Note_off_c, 10, 93, 0
18, 200192, Note_off_c, 10, 94, 0
18, 200192, Note_off_c, 10, 96, 0
18, 200192, Note_on_c, 10, 81, 66
18, 200192, Note_on_c, 10, 82, 66
18, 200192, Note_on_c, 10, 84, 66
18, 200192, Note_on_c, 10, 88, 66
18, 200277, Note_off_c, 10, 81, 0
18, 200277, Note_off_c, 10, 82, 0
18, 200277, Note_off_c, 10, 84, 0
18, 200277, Note_off_c, 10, 88, 0
18, 200277, Note_on_c, 10, 89, 92
18, 200277, Note_on_c, 10, 93, 92
18, 200277, Note_on_c, 10, 94, 92
18, 200277, Note_on_c, 10, 96, 92
18, 200362, Note_off_c, 10, 89, 0
18, 200362, Note_off_c, 10, 93, 0
18, 200362, Note_off_c, 10, 94, 0
18, 200362, Note_off_c, 10, 96, 0
18, 200362, Note_on_c, 10, 81, 67
18, 200362, Note_on_c, 10, 82, 67
18, 200362, Note_on_c, 10, 84, 67
18, 200362, Note_on_c, 10, 88, 67
18, 200448, Note_off_c, 10, 81, 0
18, 200448, Note_off_c, 10, 82, 0
18, 200448, Note_off_c, 10, 84, 0
18, 200448, Note_off_c, 10, 88, 0
18, 200618, Note_on_c, 10, 89, 73
18, 200618, Note_on_c, 10, 93, 73
18, 200618, Note_on_c, 10, 94, 73
18, 200618, Note_on_c, 10, 96, 73
18, 200704, Note_off_c, 10, 89, 0
18, 200704, Note_off_c, 10, 93, 0
18, 200704, Note_off_c, 10, 94, 0
18, 200704, Note_off_c, 10, 96, 0
18, 200704, Note_on_c, 10, 81, 65
18, 200704, Note_on_c, 10, 82, 65
18, 200704, Note_on_c, 10, 84, 65
18, 200704, Note_on_c, 10, 88, 65
18, 200789, Note_off_c, 10, 81, 0
18, 200789, Note_off_c, 10, 82, 0
18, 200789, Note_off_c, 10, 84, 0
18, 200789, Note_off_c, 10, 88, 0
18, 200789, Note_on_c, 10, 91, 97
18, 200789, Note_on_c, 10, 93, 97
18, 200789, Note_on_c, 10, 94, 97
18, 200789, Note_on_c, 10, 96, 97
18, 200874, Note_off_c, 10, 91, 0
18, 200874, Note_off_c, 10, 93, 0
18, 200874, Note_off_c, 10, 94, 0
18, 200874, Note_off_c, 10, 96, 0
18, 200874, Note_on_c, 10, 82, 70
18, 200874, Note_on_c, 10, 84, 70
18, 200874, Note_on_c, 10, 88, 70
18, 200874, Note_on_c, 10, 89, 70
18, 200960, Note_off_c, 10, 82, 0
18, 200960, Note_off_c, 10, 84, 0
18, 200960, Note_off_c, 10, 88, 0
18, 200960, Note_off_c, 10, 89, 0
18, 200960, Note_on_c, 10, 91, 97
18, 200960, Note_on_c, 10, 93, 97
18, 200960, Note_on_c, 10, 94, 97
18, 200960, Note_on_c, 10, 96, 97
18, 201045, Note_off_c, 10, 91, 0
18, 201045, Note_off_c, 10, 93, 0
18, 201045, Note_off_c, 10, 94, 0
18, 201045, Note_off_c, 10, 96, 0
18, 201045, Note_on_c, 10, 82, 80
18, 201045, Note_on_c, 10, 84, 80
18, 201045, Note_on_c, 10, 88, 80
18, 201045, Note_on_c, 10, 89, 80
18, 201130, Note_off_c, 10, 82, 0
18, 201130, Note_off_c, 10, 84, 0
18, 201130, Note_off_c, 10, 88, 0
18, 201130, Note_off_c, 10, 89, 0
18, 201130, Note_on_c, 10, 91, 95
18, 201130, Note_on_c, 10, 93, 95
18, 201130, Note_on_c, 10, 94, 95
18, 201130, Note_on_c, 10, 96, 95
18, 201216, Note_off_c, 10, 91, 0
18, 201216, Note_off_c, 10, 93, 0
18, 201216, Note_off_c, 10, 94, 0
18, 201216, Note_off_c, 10, 96, 0
18, 201216, Note_on_c, 10, 82, 72
18, 201216, Note_on_c, 10, 84, 72
18, 201216, Note_on_c, 10, 88, 72
18, 201216, Note_on_c, 10, 89, 72
18, 201301, Note_off_c, 10, 82, 0
18, 201301, Note_off_c, 10, 84, 0
18, 201301, Note_off_c, 10, 88, 0
18, 201301, Note_off_c, 10, 89, 0
18, 201301, Note_on_c, 10, 91, 99
18, 201301, Note_on_c, 10, 93, 99
18, 201301, Note_on_c, 10, 94, 99
18, 201301, Note_on_c, 10, 96, 99
18, 201386, Note_off_c, 10, 91, 0
18, 201386, Note_off_c, 10, 93, 0
18, 201386, Note_off_c, 10, 94, 0
18, 201386, Note_off_c, 10, 96, 0
18, 201386, Note_on_c, 10, 82, 73
18, 201386, Note_on_c, 10, 84, 73
18, 201386, Note_on_c, 10, 88, 73
18, 201386, Note_on_c, 10, 89, 73
18, 201472, Note_off_c, 10, 82, 0
18, 201472, Note_off_c, 10, 84, 0
18, 201472, Note_off_c, 10, 88, 0
18, 201472, Note_off_c, 10, 89, 0
18, 201472, Note_on_c, 10, 91, 98
18, 201472, Note_on_c, 10, 93, 98
18, 201472, Note_on_c, 10, 94, 98
18, 201472, Note_on_c, 10, 96, 98
18, 201557, Note_off_c, 10, 91, 0
18, 201557, Note_off_c, 10, 93, 0
18, 201557, Note_off_c, 10, 94, 0
18, 201557, Note_off_c, 10, 96, 0
18, 201557, Note_on_c, 10, 82, 71
18, 201557, Note_on_c, 10, 84, 71
18, 201557, Note_on_c, 10, 88, 71
18, 201557, Note_on_c, 10, 89, 71
18, 201642, Note_off_c, 10, 82, 0
18, 201642, Note_off_c, 10, 84, 0
18, 201642, Note_off_c, 10, 88, 0
18, 201642, Note_off_c, 10, 89, 0
18, 201642, Note_on_c, 10, 91, 94
18, 201642, Note_on_c, 10, 93, 94
18, 201642, Note_on_c, 10, 94, 94
18, 201642, Note_on_c, 10, 96, 94
18, 201728, Note_off_c, 10, 91, 0
18, 201728, Note_off_c, 10, 93, 0
18, 201728, Note_off_c, 10, 94, 0
18, 201728, Note_off_c, 10, 96, 0
18, 201813, Note_on_c, 10, 89, 75
18, 201813, Note_on_c, 10, 91, 75
18, 201813, Note_on_c, 10, 93, 75
18, 201813, Note_on_c, 10, 94, 75
18, 201813, Note_on_c, 10, 96, 75
18, 201898, Note_off_c, 10, 89, 0
18, 201898, Note_off_c, 10, 91, 0
18, 201898, Note_off_c, 10, 93, 0
18, 201898, Note_off_c, 10, 94, 0
18, 201898, Note_off_c, 10, 96, 0
18, 201898, Note_on_c, 10, 82, 69
18, 201898, Note_on_c, 10, 84, 69
18, 201898, Note_on_c, 10, 89, 69
18, 201898, Note_on_c, 10, 91, 69
18, 201984, Note_off_c, 10, 82, 0
18, 201984, Note_off_c, 10, 84, 0
18, 201984, Note_off_c, 10, 89, 0
18, 201984, Note_off_c, 10, 91, 0
18, 201984, Note_on_c, 10, 89, 92
18, 201984, Note_on_c, 10, 91, 92
18, 201984, Note_on_c, 10, 93, 92
18, 201984, Note_on_c, 10, 94, 92
18, 201984, Note_on_c, 10, 96, 92
18, 202069, Note_off_c, 10, 89, 0
18, 202069, Note_off_c, 10, 91, 0
18, 202069, Note_off_c, 10, 93, 0
18, 202069, Note_off_c, 10, 94, 0
18, 202069, Note_off_c, 10, 96, 0
18, 202069, Note_on_c, 10, 82, 71
18, 202069, Note_on_c, 10, 84, 71
18, 202069, Note_on_c, 10, 88, 71
18, 202069, Note_on_c, 10, 89, 71
18, 202154, Note_off_c, 10, 82, 0
18, 202154, Note_off_c, 10, 84, 0
18, 202154, Note_off_c, 10, 88, 0
18, 202154, Note_off_c, 10, 89, 0
18, 202154, Note_on_c, 10, 89, 94
18, 202154, Note_on_c, 10, 91, 94
18, 202154, Note_on_c, 10, 93, 94
18, 202154, Note_on_c, 10, 94, 94
18, 202154, Note_on_c, 10, 96, 94
18, 202240, Note_off_c, 10, 89, 0
18, 202240, Note_off_c, 10, 91, 0
18, 202240, Note_off_c, 10, 93, 0
18, 202240, Note_off_c, 10, 94, 0
18, 202240, Note_off_c, 10, 96, 0
18, 202240, Note_on_c, 10, 82, 69
18, 202240, Note_on_c, 10, 84, 69
18, 202240, Note_on_c, 10, 88, 69
18, 202240, Note_on_c, 10, 89, 69
18, 202325, Note_off_c, 10, 82, 0
18, 202325, Note_off_c, 10, 84, 0
18, 202325, Note_off_c, 10, 88, 0
18, 202325, Note_off_c, 10, 89, 0
18, 202325, Note_on_c, 10, 89, 93
18, 202325, Note_on_c, 10, 91, 93
18, 202325, Note_on_c, 10, 93, 93
18, 202325, Note_on_c, 10, 94, 93
18, 202325, Note_on_c, 10, 96, 93
18, 202410, Note_off_c, 10, 89, 0
18, 202410, Note_off_c, 10, 91, 0
18, 202410, Note_off_c, 10, 93, 0
18, 202410, Note_off_c, 10, 94, 0
18, 202410, Note_off_c, 10, 96, 0
18, 202410, Note_on_c, 10, 82, 71
18, 202410, Note_on_c, 10, 84, 71
18, 202410, Note_on_c, 10, 88, 71
18, 202410, Note_on_c, 10, 89, 71
18, 202496, Note_off_c, 10, 82, 0
18, 202496, Note_off_c, 10, 84, 0
18, 202496, Note_off_c, 10, 88, 0
18, 202496, Note_off_c, 10, 89, 0
18, 202496, Note_on_c, 10, 89, 96
18, 202496, Note_on_c, 10, 91, 96
18, 202496, Note_on_c, 10, 93, 96
18, 202496, Note_on_c, 10, 94, 96
18, 202496, Note_on_c, 10, 96, 96
18, 202581, Note_off_c, 10, 89, 0
18, 202581, Note_off_c, 10, 91, 0
18, 202581, Note_off_c, 10, 93, 0
18, 202581, Note_off_c, 10, 94, 0
18, 202581, Note_off_c, 10, 96, 0
18, 202581, Note_on_c, 10, 82, 76
18, 202581, Note_on_c, 10, 84, 76
18, 202581, Note_on_c, 10, 88, 76
18, 202581, Note_on_c, 10, 89, 76
18, 202666, Note_off_c, 10, 82, 0
18, 202666, Note_off_c, 10, 84, 0
18, 202666, Note_off_c, 10, 88, 0
18, 202666, Note_off_c, 10, 89, 0
18, 202666, Note_on_c, 10, 94, 107
18, 202666, Note_on_c, 10, 98, 107
18, 202666, Note_on_c, 10, 100, 107
18, 202666, Note_on_c, 10, 101, 107
18, 202752, Note_off_c, 10, 94, 0
18, 202752, Note_off_c, 10, 98, 0
18, 202752, Note_off_c, 10, 100, 0
18, 202752, Note_off_c, 10, 101, 0
18, 202752, Note_on_c, 10, 86, 64
18, 202752, Note_on_c, 10, 88, 64
18, 202752, Note_on_c, 10, 89, 64
18, 202752, Note_on_c, 10, 91, 64
18, 202837, Note_off_c, 10, 86, 0
18, 202837, Note_off_c, 10, 88, 0
18, 202837, Note_off_c, 10, 89, 0
18, 202837, Note_off_c, 10, 91, 0
18, 202837, Note_on_c, 10, 94, 106
18, 202837, Note_on_c, 10, 98, 106
18, 202837, Note_on_c, 10, 100, 106
18, 202837, Note_on_c, 10, 101, 106
18, 202922, Note_off_c, 10, 94, 0
18, 202922, Note_off_c, 10, 98, 0
18, 202922, Note_off_c, 10, 100, 0
18, 202922, Note_off_c, 10, 101, 0
18, 202922, Note_on_c, 10, 86, 66
18, 202922, Note_on_c, 10, 88, 66
18, 202922, Note_on_c, 10, 89, 66
18, 202922, Note_on_c, 10, 91, 66
18, 203008, Note_off_c, 10, 86, 0
18, 203008, Note_off_c, 10, 88, 0
18, 203008, Note_off_c, 10, 89, 0
18, 203008, Note_off_c, 10, 91, 0
18, 203008, Note_on_c, 10, 94, 105
18, 203008, Note_on_c, 10, 98, 105
18, 203008, Note_on_c, 10, 100, 105
18, 203008, Note_on_c, 10, 101, 105
18, 203093, Note_off_c, 10, 94, 0
18, 203093, Note_off_c, 10, 98, 0
18, 203093, Note_off_c, 10, 100, 0
18, 203093, Note_off_c, 10, 101, 0
18, 203093, Note_on_c, 10, 86, 65
18, 203093, Note_on_c, 10, 88, 65
18, 203093, Note_on_c, 10, 89, 65
18, 203093, Note_on_c, 10, 91, 65
18, 203178, Note_off_c, 10, 86, 0
18, 203178, Note_off_c, 10, 88, 0
18, 203178, Note_off_c, 10, 89, 0
18, 203178, Note_off_c, 10, 91, 0
18, 203434, Note_on_c, 10, 86, 70
18, 203434, Note_on_c, 10, 88, 70
18, 203434, Note_on_c, 10, 89, 70
18, 203434, Note_on_c, 10, 91, 70
18, 203520, Note_off_c, 10, 86, 0
18, 203520, Note_off_c, 10, 88, 0
18, 203520, Note_off_c, 10, 89, 0
18, 203520, Note_off_c, 10, 91, 0
18, 203520, Note_on_c, 10, 93, 101
18, 203520, Note_on_c, 10, 94, 101
18, 203520, Note_on_c, 10, 98, 101
18, 203520, Note_on_c, 10, 100, 101
18, 203605, Note_off_c, 10, 93, 0
18, 203605, Note_off_c, 10, 94, 0
18, 203605, Note_off_c, 10, 98, 0
18, 203605, Note_off_c, 10, 100, 0
18, 203605, Note_on_c, 10, 84, 61
18, 203605, Note_on_c, 10, 86, 61
18, 203605, Note_on_c, 10, 88, 61
18, 203605, Note_on_c, 10, 89, 61
18, 203690, Note_off_c, 10, 84, 0
18, 203690, Note_off_c, 10, 86, 0
18, 203690, Note_off_c, 10, 88, 0
18, 203690, Note_off_c, 10, 89, 0
18, 203690, Note_on_c, 10, 94, 99
18, 203690, Note_on_c, 10, 98, 99
18, 203690, Note_on_c, 10, 100, 99
18, 203690, Note_on_c, 10, 101, 99
18, 203776, Note_off_c, 10, 94, 0
18, 203776, Note_off_c, 10, 98, 0
18, 203776, Note_off_c, 10, 100, 0
18, 203776, Note_off_c, 10, 101, 0
18, 203776, Note_on_c, 10, 86, 68
18, 203776, Note_on_c, 10, 88, 68
18, 203776, Note_on_c, 10, 89, 68
18, 203776, Note_on_c, 10, 91, 68
18, 203861, Note_off_c, 10, 86, 0
18, 203861, Note_off_c, 10, 88, 0
18, 203861, Note_off_c, 10, 89, 0
18, 203861, Note_off_c, 10, 91, 0
18, 203861, Note_on_c, 10, 93, 102
18, 203861, Note_on_c, 10, 94, 102
18, 203861, Note_on_c, 10, 98, 102
18, 203861, Note_on_c, 10, 100, 102
18, 203946, Note_off_c, 10, 93, 0
18, 203946, Note_off_c, 10, 94, 0
18, 203946, Note_off_c, 10, 98, 0
18, 203946, Note_off_c, 10, 100, 0
18, 203946, Note_on_c, 10, 84, 68
18, 203946, Note_on_c, 10, 86, 68
18, 203946, Note_on_c, 10, 88, 68
18, 203946, Note_on_c, 10, 89, 68
18, 204032, Note_off_c, 10, 84, 0
18, 204032, Note_off_c, 10, 86, 0
18, 204032, Note_off_c, 10, 88, 0
18, 204032, Note_off_c, 10, 89, 0
18, 204032, Note_on_c, 10, 94, 106
18, 204032, Note_on_c, 10, 98, 106
18, 204032, Note_on_c, 10, 100, 106
18, 204032, Note_on_c, 10, 101, 106
18, 204117, Note_off_c, 10, 94, 0
18, 204117, Note_off_c, 10, 98, 0
18, 204117, Note_off_c, 10, 100, 0
18, 204117, Note_off_c, 10, 101, 0
18, 204117, Note_on_c, 10, 86, 69
18, 204117, Note_on_c, 10, 88, 69
18, 204117, Note_on_c, 10, 89, 69
18, 204117, Note_on_c, 10, 91, 69
18, 204202, Note_off_c, 10, 86, 0
18, 204202, Note_off_c, 10, 88, 0
18, 204202, Note_off_c, 10, 89, 0
18, 204202, Note_off_c, 10, 91, 0
18, 204202, Note_on_c, 10, 93, 103
18, 204202, Note_on_c, 10, 94, 103
18, 204202, Note_on_c, 10, 98, 103
18, 204202, Note_on_c, 10, 100, 103
18, 204288, Note_off_c, 10, 93, 0
18, 204288, Note_off_c, 10, 94, 0
18, 204288, Note_off_c, 10, 98, 0
18, 204288, Note_off_c, 10, 100, 0
18, 204288, Note_on_c, 10, 84, 63
18, 204288, Note_on_c, 10, 86, 63
18, 204288, Note_on_c, 10, 88, 63
18, 204288, Note_on_c, 10, 89, 63
18, 204373, Note_off_c, 10, 84, 0
18, 204373, Note_off_c, 10, 86, 0
18, 204373, Note_off_c, 10, 88, 0
18, 204373, Note_off_c, 10, 89, 0
18, 204373, Note_on_c, 10, 94, 100
18, 204373, Note_on_c, 10, 98, 100
18, 204373, Note_on_c, 10, 100, 100
18, 204373, Note_on_c, 10, 101, 100
18, 204458, Note_off_c, 10, 94, 0
18, 204458, Note_off_c, 10, 98, 0
18, 204458, Note_off_c, 10, 100, 0
18, 204458, Note_off_c, 10, 101, 0
18, 204458, Note_on_c, 10, 86, 69
18, 204458, Note_on_c, 10, 88, 69
18, 204458, Note_on_c, 10, 89, 69
18, 204458, Note_on_c, 10, 91, 69
18, 204544, Note_off_c, 10, 86, 0
18, 204544, Note_off_c, 10, 88, 0
18, 204544, Note_off_c, 10, 89, 0
18, 204544, Note_off_c, 10, 91, 0
18, 204544, Note_on_c, 10, 93, 99
18, 204544, Note_on_c, 10, 94, 99
18, 204544, Note_on_c, 10, 98, 99
18, 204544, Note_on_c, 10, 100, 99
18, 204629, Note_off_c, 10, 93, 0
18, 204629, Note_off_c, 10, 94, 0
18, 204629, Note_off_c, 10, 98, 0
18, 204629, Note_off_c, 10, 100, 0
18, 204629, Note_on_c, 10, 84, 64
18, 204629, Note_on_c, 10, 86, 64
18, 204629, Note_on_c, 10, 88, 64
18, 204629, Note_on_c, 10, 89, 64
18, 204714, Note_off_c, 10, 84, 0
18, 204714, Note_off_c, 10, 86, 0
18, 204714, Note_off_c, 10, 88, 0
18, 204714, Note_off_c, 10, 89, 0
18, 204714, Note_on_c, 10, 94, 101
18, 204714, Note_on_c, 10, 98, 101
18, 204714, Note_on_c, 10, 100, 101
18, 204714, Note_on_c, 10, 101, 101
18, 204800, Note_off_c, 10, 94, 0
18, 204800, Note_off_c, 10, 98, 0
18, 204800, Note_off_c, 10, 100, 0
18, 204800, Note_off_c, 10, 101, 0
18, 204800, Note_on_c, 10, 86, 69
18, 204800, Note_on_c, 10, 88, 69
18, 204800, Note_on_c, 10, 89, 69
18, 204800, Note_on_c, 10, 91, 69
18, 204885, Note_off_c, 10, 86, 0
18, 204885, Note_off_c, 10, 88, 0
18, 204885, Note_off_c, 10, 89, 0
18, 204885, Note_off_c, 10, 91, 0
18, 204885, Note_on_c, 10, 93, 99
18, 204885, Note_on_c, 10, 94, 99
18, 204885, Note_on_c, 10, 98, 99
18, 204885, Note_on_c, 10, 100, 99
18, 204970, Note_off_c, 10, 93, 0
18, 204970, Note_off_c, 10, 94, 0
18, 204970, Note_off_c, 10, 98, 0
18, 204970, Note_off_c, 10, 100, 0
18, 204970, Note_on_c, 10, 84, 62
18, 204970, Note_on_c, 10, 86, 62
18, 204970, Note_on_c, 10, 88, 62
18, 204970, Note_on_c, 10, 89, 62
18, 205056, Note_off_c, 10, 84, 0
18, 205056, Note_off_c, 10, 86, 0
18, 205056, Note_off_c, 10, 88, 0
18, 205056, Note_off_c, 10, 89, 0
18, 207616, Note_on_c, 10, 88, 100
18, 207616, Note_on_c, 10, 100, 100
18, 207616, Note_on_c, 10, 94, 101
18, 207616, Note_on_c, 10, 98, 101
18, 207616, Note_on_c, 10, 101, 101
18, 207744, Note_off_c, 10, 88, 0
18, 207744, Note_off_c, 10, 100, 0
18, 207744, Note_on_c, 10, 89, 117
18, 207744, Note_on_c, 10, 101, 117
18, 207872, Note_off_c, 10, 89, 0
18, 207872, Note_off_c, 10, 101, 0
18, 207872, Note_off_c, 10, 94, 0
18, 207872, Note_off_c, 10, 98, 0
18, 207872, Note_off_c, 10, 101, 0
18, 207872, Note_on_c, 10, 88, 107
18, 207872, Note_on_c, 10, 100, 107
18, 208000, Note_off_c, 10, 88, 0
18, 208000, Note_off_c, 10, 100, 0
18, 208384, Note_on_c, 10, 94, 100
18, 208384, Note_on_c, 10, 98, 100
18, 208384, Note_on_c, 10, 101, 100
18, 208640, Note_off_c, 10, 94, 0
18, 208640, Note_off_c, 10, 98, 0
18, 208640, Note_off_c, 10, 101, 0
18, 208768, Note_on_c, 10, 88, 100
18, 208768, Note_on_c, 10, 100, 100
18, 208896, Note_off_c, 10, 88, 0
18, 208896, Note_off_c, 10, 100, 0
18, 208896, Note_on_c, 10, 89, 115
18, 208896, Note_on_c, 10, 101, 115
18, 209024, Note_off_c, 10, 89, 0
18, 209024, Note_off_c, 10, 101, 0
18, 209024, Note_on_c, 10, 88, 109
18, 209024, Note_on_c, 10, 100, 109
18, 209152, Note_off_c, 10, 88, 0
18, 209152, Note_off_c, 10, 100, 0
18, 209152, Note_on_c, 10, 94, 100
18, 209152, Note_on_c, 10, 98, 100
18, 209152, Note_on_c, 10, 101, 100
18, 209408, Note_off_c, 10, 94, 0
18, 209408, Note_off_c, 10, 98, 0
18, 209408, Note_off_c, 10, 101, 0
18, 209664, Note_on_c, 10, 88, 102
18, 209664, Note_on_c, 10, 100, 102
18, 209792, Note_off_c, 10, 88, 0
18, 209792, Note_off_c, 10, 100, 0
18, 209792, Note_on_c, 10, 89, 119
18, 209792, Note_on_c, 10, 101, 119
18, 209920, Note_off_c, 10, 89, 0
18, 209920, Note_off_c, 10, 101, 0
18, 209920, Note_on_c, 10, 88, 112
18, 209920, Note_on_c, 10, 100, 112
18, 209920, Note_on_c, 10, 94, 103
18, 209920, Note_on_c, 10, 98, 103
18, 209920, Note_on_c, 10, 101, 103
18, 210048, Note_off_c, 10, 88, 0
18, 210048, Note_off_c, 10, 100, 0
18, 210176, Note_off_c, 10, 94, 0
18, 210176, Note_off_c, 10, 98, 0
18, 210176, Note_off_c, 10, 101, 0
18, 210688, Note_on_c, 10, 94, 103
18, 210688, Note_on_c, 10, 98, 103
18, 210688, Note_on_c, 10, 101, 103
18, 210816, Note_on_c, 10, 88, 104
18, 210816, Note_on_c, 10, 100, 104
18, 210944, Note_off_c, 10, 88, 0
18, 210944, Note_off_c, 10, 100, 0
18, 210944, Note_off_c, 10, 94, 0
18, 210944, Note_off_c, 10, 98, 0
18, 210944, Note_off_c, 10, 101, 0
18, 210944, Note_on_c, 10, 89, 113
18, 210944, Note_on_c, 10, 101, 113
18, 211072, Note_off_c, 10, 89, 0
18, 211072, Note_off_c, 10, 101, 0
18, 211072, Note_on_c, 10, 88, 111
18, 211072, Note_on_c, 10, 100, 111
18, 211200, Note_off_c, 10, 88, 0
18, 211200, Note_off_c, 10, 100, 0
18, 211456, Note_on_c, 10, 94, 101
18, 211456, Note_on_c, 10, 98, 101
18, 211456, Note_on_c, 10, 101, 101
18, 211712, Note_off_c, 10, 94, 0
18, 211712, Note_off_c, 10, 98, 0
18, 211712, Note_off_c, 10, 101, 0
18, 212224, Note_on_c, 10, 94, 99
18, 212224, Note_on_c, 10, 98, 99
18, 212224, Note_on_c, 10, 101, 99
18, 212352, Note_on_c, 10, 88, 104
18, 212352, Note_on_c, 10, 100, 104
18, 212480, Note_off_c, 10, 88, 0
18, 212480, Note_off_c, 10, 100, 0
18, 212480, Note_off_c, 10, 94, 0
18, 212480, Note_off_c, 10, 98, 0
18, 212480, Note_off_c, 10, 101, 0
18, 212480, Note_on_c, 10, 89, 117
18, 212480, Note_on_c, 10, 101, 117
18, 212608, Note_off_c, 10, 89, 0
18, 212608, Note_off_c, 10, 101, 0
18, 212608, Note_on_c, 10, 88, 108
18, 212608, Note_on_c, 10, 100, 108
18, 212736, Note_off_c, 10, 88, 0
18, 212736, Note_off_c, 10, 100, 0
18, 212864, Note_on_c, 10, 89, 104
18, 212864, Note_on_c, 10, 101, 104
18, 212992, Note_off_c, 10, 89, 0
18, 212992, Note_off_c, 10, 101, 0
18, 212992, Note_on_c, 10, 94, 103
18, 212992, Note_on_c, 10, 98, 103
18, 212992, Note_on_c, 10, 101, 103
18, 213248, Note_off_c, 10, 94, 0
18, 213248, Note_off_c, 10, 98, 0
18, 213248, Note_off_c, 10, 101, 0
18, 213376, Note_on_c, 10, 88, 103
18, 213376, Note_on_c, 10, 100, 103
18, 213504, Note_off_c, 10, 88, 0
18, 213504, Note_off_c, 10, 100, 0
18, 213504, Note_on_c, 10, 89, 114
18, 213504, Note_on_c, 10, 101, 114
18, 213632, Note_off_c, 10, 89, 0
18, 213632, Note_off_c, 10, 101, 0
18, 213632, Note_on_c, 10, 88, 104
18, 213632, Note_on_c, 10, 100, 104
18, 213760, Note_off_c, 10, 88, 0
18, 213760, Note_off_c, 10, 100, 0
18, 213760, Note_on_c, 10, 89, 120
18, 213760, Note_on_c, 10, 101, 120
18, 213760, Note_on_c, 10, 94, 102
18, 213760, Note_on_c, 10, 98, 102
18, 213760, Note_on_c, 10, 101, 102
18, 213888, Note_off_c, 10, 89, 0
18, 213888, Note_off_c, 10, 101, 0
18, 214016, Note_off_c, 10, 94, 0
18, 214016, Note_off_c, 10, 98, 0
18, 214016, Note_off_c, 10, 101, 0
18, 214144, Note_on_c, 10, 88, 104
18, 214144, Note_on_c, 10, 100, 104
18, 214272, Note_off_c, 10, 88, 0
18, 214272, Note_off_c, 10, 100, 0
18, 214272, Note_on_c, 10, 89, 121
18, 214272, Note_on_c, 10, 101, 121
18, 214400, Note_off_c, 10, 89, 0
18, 214400, Note_off_c, 10, 101, 0
18, 214400, Note_on_c, 10, 88, 115
18, 214400, Note_on_c, 10, 100, 115
18, 214528, Note_on_c, 10, 94, 101
18, 214528, Note_on_c, 10, 98, 101
18, 214528, Note_on_c, 10, 101, 101
18, 214592, Note_off_c, 10, 88, 0
18, 214592, Note_off_c, 10, 100, 0
18, 214592, Note_on_c, 10, 89, 116
18, 214592, Note_on_c, 10, 101, 116
18, 214784, Note_off_c, 10, 89, 0
18, 214784, Note_off_c, 10, 101, 0
18, 214784, Note_off_c, 10, 94, 0
18, 214784, Note_off_c, 10, 98, 0
18, 214784, Note_off_c, 10, 101, 0
18, 215296, Note_on_c, 10, 94, 103
18, 215296, Note_on_c, 10, 98, 103
18, 215296, Note_on_c, 10, 101, 103
18, 215424, Note_on_c, 10, 88, 100
18, 215424, Note_on_c, 10, 100, 100
18, 215552, Note_off_c, 10, 88, 0
18, 215552, Note_off_c, 10, 100, 0
18, 215552, Note_off_c, 10, 94, 0
18, 215552, Note_off_c, 10, 98, 0
18, 215552, Note_off_c, 10, 101, 0
18, 215552, Note_on_c, 10, 89, 114
18, 215552, Note_on_c, 10, 101, 114
18, 215680, Note_off_c, 10, 89, 0
18, 215680, Note_off_c, 10, 101, 0
18, 215680, Note_on_c, 10, 88, 104
18, 215680, Note_on_c, 10, 100, 104
18, 215808, Note_off_c, 10, 88, 0
18, 215808, Note_off_c, 10, 100, 0
18, 215808, Note_on_c, 10, 89, 112
18, 215808, Note_on_c, 10, 101, 112
18, 216064, Note_off_c, 10, 89, 0
18, 216064, Note_off_c, 10, 101, 0
18, 216064, Note_on_c, 10, 94, 102
18, 216064, Note_on_c, 10, 98, 102
18, 216064, Note_on_c, 10, 101, 102
18, 216320, Note_off_c, 10, 94, 0
18, 216320, Note_off_c, 10, 98, 0
18, 216320, Note_off_c, 10, 101, 0
18, 216832, Note_on_c, 10, 94, 103
18, 216832, Note_on_c, 10, 98, 103
18, 216832, Note_on_c, 10, 101, 103
18, 217088, Note_off_c, 10, 94, 0
18, 217088, Note_off_c, 10, 98, 0
18, 217088, Note_off_c, 10, 101, 0
18, 217216, Note_on_c, 10, 88, 91
18, 217216, Note_on_c, 10, 100, 91
18, 217344, Note_off_c, 10, 88, 0
18, 217344, Note_off_c, 10, 100, 0
18, 217344, Note_on_c, 10, 89, 98
18, 217344, Note_on_c, 10, 101, 98
18, 217472, Note_off_c, 10, 89, 0
18, 217472, Note_off_c, 10, 101, 0
18, 217472, Note_on_c, 10, 88, 90
18, 217472, Note_on_c, 10, 100, 90
18, 217600, Note_on_c, 10, 94, 92
18, 217600, Note_on_c, 10, 98, 92
18, 217600, Note_on_c, 10, 101, 92
18, 217664, Note_off_c, 10, 88, 0
18, 217664, Note_off_c, 10, 100, 0
18, 217664, Note_on_c, 10, 89, 105
18, 217664, Note_on_c, 10, 101, 105
18, 217856, Note_off_c, 10, 89, 0
18, 217856, Note_off_c, 10, 101, 0
18, 217856, Note_off_c, 10, 94, 0
18, 217856, Note_off_c, 10, 98, 0
18, 217856, Note_off_c, 10, 101, 0
18, 218112, Note_on_c, 10, 88, 90
18, 218112, Note_on_c, 10, 100, 90
18, 218240, Note_off_c, 10, 88, 0
18, 218240, Note_off_c, 10, 100, 0
18, 218240, Note_on_c, 10, 89, 99
18, 218240, Note_on_c, 10, 101, 99
18, 218368, Note_off_c, 10, 89, 0
18, 218368, Note_off_c, 10, 101, 0
18, 218368, Note_on_c, 10, 88, 92
18, 218368, Note_on_c, 10, 100, 92
18, 218368, Note_on_c, 10, 94, 90
18, 218368, Note_on_c, 10, 98, 90
18, 218368, Note_on_c, 10, 101, 90
18, 218624, Note_off_c, 10, 88, 0
18, 218624, Note_off_c, 10, 100, 0
18, 218624, Note_off_c, 10, 94, 0
18, 218624, Note_off_c, 10, 98, 0
18, 218624, Note_off_c, 10, 101, 0
18, 218624, Note_on_c, 10, 89, 102
18, 218624, Note_on_c, 10, 101, 102
18, 218880, Note_off_c, 10, 89, 0
18, 218880, Note_off_c, 10, 101, 0
18, 219008, Note_on_c, 10, 88, 86
18, 219008, Note_on_c, 10, 100, 86
18, 219136, Note_off_c, 10, 88, 0
18, 219136, Note_off_c, 10, 100, 0
18, 219136, Note_on_c, 10, 89, 100
18, 219136, Note_on_c, 10, 101, 100
18, 219136, Note_on_c, 10, 94, 91
18, 219136, Note_on_c, 10, 98, 91
18, 219136, Note_on_c, 10, 102, 91
18, 219392, Note_off_c, 10, 89, 0
18, 219392, Note_off_c, 10, 101, 0
18, 219392, Note_off_c, 10, 94, 0
18, 219392, Note_off_c, 10, 98, 0
18, 219392, Note_off_c, 10, 102, 0
18, 219904, Note_on_c, 10, 98, 89
18, 219904, Note_on_c, 10, 102, 89
18, 219904, Note_on_c, 10, 105, 89
18, 220160, Note_off_c, 10, 98, 0
18, 220160, Note_off_c, 10, 102, 0
18, 220160, Note_off_c, 10, 105, 0
18, 220672, Note_on_c, 10, 98, 89
18, 220672, Note_on_c, 10, 102, 89
18, 220672, Note_on_c, 10, 105, 89
18, 220928, Note_off_c, 10, 98, 0
18, 220928, Note_off_c, 10, 102, 0
18, 220928, Note_off_c, 10, 105, 0
18, 221440, Note_on_c, 10, 98, 87
18, 221440, Note_on_c, 10, 102, 87
18, 221440, Note_on_c, 10, 105, 87
18, 221696, Note_off_c, 10, 98, 0
18, 221696, Note_off_c, 10, 102, 0
18, 221696, Note_off_c, 10, 105, 0
18, 291328, Control_c, 10, 64, 127
18, 291328, Note_on_c, 10, 65, 58
18, 291456, Note_off_c, 10, 65, 0
18, 291456, Note_on_c, 10, 69, 66
18, 291584, Note_off_c, 10, 69, 0
18, 291584, Note_on_c, 10, 74, 70
18, 291712, Note_off_c, 10, 74, 0
18, 291712, Note_on_c, 10, 76, 68
18, 291840, Note_off_c, 10, 76, 0
18, 291840, Note_on_c, 10, 64, 49
18, 291968, Note_off_c, 10, 64, 0
18, 291968, Note_on_c, 10, 69, 70
18, 292096, Note_off_c, 10, 69, 0
18, 292096, Note_on_c, 10, 74, 69
18, 292224, Note_off_c, 10, 74, 0
18, 292224, Note_on_c, 10, 64, 48
18, 292352, Note_off_c, 10, 64, 0
18, 292352, Note_on_c, 10, 69, 70
18, 292480, Note_off_c, 10, 69, 0
18, 292480, Note_on_c, 10, 74, 66
18, 292608, Note_off_c, 10, 74, 0
18, 292608, Note_on_c, 10, 64, 46
18, 292736, Note_off_c, 10, 64, 0
18, 292736, Note_on_c, 10, 69, 65
18, 292864, Note_off_c, 10, 69, 0
18, 292864, Note_on_c, 10, 74, 72
18, 292992, Note_off_c, 10, 74, 0
18, 292992, Note_on_c, 10, 65, 48
18, 293120, Note_off_c, 10, 65, 0
18, 293120, Note_on_c, 10, 69, 66
18, 293248, Note_off_c, 10, 69, 0
18, 293248, Note_on_c, 10, 76, 74
18, 293376, Note_off_c, 10, 76, 0
18, 293376, Note_on_c, 10, 64, 47
18, 293504, Note_off_c, 10, 64, 0
18, 293504, Note_on_c, 10, 65, 64
18, 293632, Note_off_c, 10, 65, 0
18, 293632, Note_on_c, 10, 69, 69
18, 293760, Note_off_c, 10, 69, 0
18, 293760, Note_on_c, 10, 74, 71
18, 293888, Note_off_c, 10, 74, 0
18, 293888, Note_on_c, 10, 68, 57
18, 294016, Note_off_c, 10, 68, 0
18, 294016, Note_on_c, 10, 71, 62
18, 294144, Note_off_c, 10, 71, 0
18, 294144, Note_on_c, 10, 76, 75
18, 294272, Note_off_c, 10, 76, 0
18, 294272, Note_on_c, 10, 68, 54
18, 294400, Note_off_c, 10, 68, 0
18, 294400, Note_on_c, 10, 76, 71
18, 294528, Note_off_c, 10, 76, 0
18, 294528, Note_on_c, 10, 68, 48
18, 294656, Note_off_c, 10, 68, 0
18, 294656, Note_on_c, 10, 74, 68
18, 294784, Note_off_c, 10, 74, 0
18, 294784, Note_on_c, 10, 62, 46
18, 294912, Note_off_c, 10, 62, 0
18, 294912, Note_on_c, 10, 64, 64
18, 295040, Note_off_c, 10, 64, 0
18, 295040, Note_on_c, 10, 71, 72
18, 295168, Note_off_c, 10, 71, 0
18, 295168, Note_on_c, 10, 74, 67
18, 295296, Note_off_c, 10, 74, 0
18, 295296, Note_on_c, 10, 68, 54
18, 295424, Note_off_c, 10, 68, 0
18, 295424, Note_on_c, 10, 71, 64
18, 295552, Note_off_c, 10, 71, 0
18, 295552, Note_on_c, 10, 74, 67
18, 295680, Note_off_c, 10, 74, 0
18, 295680, Note_on_c, 10, 68, 56
18, 295808, Note_off_c, 10, 68, 0
18, 295808, Note_on_c, 10, 71, 62
18, 295936, Note_off_c, 10, 71, 0
18, 295936, Note_on_c, 10, 76, 75
18, 296064, Note_off_c, 10, 76, 0
18, 296064, Note_on_c, 10, 64, 46
18, 296192, Note_off_c, 10, 64, 0
18, 296192, Note_on_c, 10, 68, 66
18, 296320, Note_off_c, 10, 68, 0
18, 296320, Note_on_c, 10, 71, 68
18, 296448, Note_off_c, 10, 71, 0
18, 296448, Note_on_c, 10, 69, 60
18, 296576, Note_off_c, 10, 69, 0
18, 296576, Note_on_c, 10, 74, 68
18, 296704, Note_off_c, 10, 74, 0
18, 296704, Note_on_c, 10, 65, 45
18, 296832, Note_off_c, 10, 65, 0
18, 296832, Note_on_c, 10, 64, 57
18, 296960, Note_off_c, 10, 64, 0
18, 296960, Note_on_c, 10, 69, 70
18, 297088, Note_off_c, 10, 69, 0
18, 297088, Note_on_c, 10, 74, 72
18, 297216, Note_off_c, 10, 74, 0
18, 297216, Note_on_c, 10, 62, 47
18, 297344, Note_off_c, 10, 62, 0
18, 297344, Note_on_c, 10, 64, 61
18, 297472, Note_off_c, 10, 64, 0
18, 297472, Note_on_c, 10, 69, 69
18, 297600, Note_off_c, 10, 69, 0
18, 297600, Note_on_c, 10, 74, 72
18, 297728, Note_off_c, 10, 74, 0
18, 297728, Note_on_c, 10, 65, 50
18, 297856, Note_off_c, 10, 65, 0
18, 297856, Note_on_c, 10, 69, 71
18, 297984, Note_off_c, 10, 69, 0
18, 297984, Note_on_c, 10, 74, 70
18, 298112, Note_off_c, 10, 74, 0
18, 298112, Note_on_c, 10, 73, 59
18, 298240, Note_off_c, 10, 73, 0
18, 298240, Note_on_c, 10, 76, 65
18, 298368, Note_off_c, 10, 76, 0
18, 298368, Note_on_c, 10, 74, 56
18, 298496, Note_off_c, 10, 74, 0
18, 298496, Note_on_c, 10, 65, 47
18, 298624, Note_off_c, 10, 65, 0
18, 298624, Note_on_c, 10, 69, 68
18, 298752, Note_off_c, 10, 69, 0
18, 298752, Note_on_c, 10, 74, 73
18, 298880, Note_off_c, 10, 74, 0
18, 298880, Note_on_c, 10, 65, 46
18, 299008, Note_off_c, 10, 65, 0
18, 299008, Note_on_c, 10, 70, 66
18, 299136, Note_off_c, 10, 70, 0
18, 299136, Note_on_c, 10, 74, 64
18, 299264, Note_off_c, 10, 74, 0
18, 299264, Note_on_c, 10, 66, 55
18, 299392, Note_off_c, 10, 66, 0
18, 299392, Note_on_c, 10, 69, 63
18, 299520, Note_off_c, 10, 69, 0
18, 299520, Note_on_c, 10, 70, 64
18, 299648, Note_off_c, 10, 70, 0
18, 299648, Note_on_c, 10, 74, 67
18, 299776, Note_off_c, 10, 74, 0
18, 299776, Note_on_c, 10, 70, 61
18, 299904, Note_off_c, 10, 70, 0
18, 299904, Note_on_c, 10, 66, 53
18, 300032, Note_off_c, 10, 66, 0
18, 300032, Note_on_c, 10, 69, 66
18, 300160, Note_off_c, 10, 69, 0
18, 300160, Note_on_c, 10, 70, 62
18, 300288, Note_off_c, 10, 70, 0
18, 300288, Note_on_c, 10, 74, 67
18, 300416, Note_off_c, 10, 74, 0
18, 300416, Note_on_c, 10, 64, 49
18, 300544, Note_off_c, 10, 64, 0
18, 300544, Note_on_c, 10, 66, 64
18, 300672, Note_off_c, 10, 66, 0
18, 300672, Note_on_c, 10, 69, 69
18, 300800, Note_off_c, 10, 69, 0
18, 300800, Note_on_c, 10, 70, 67
18, 300928, Note_off_c, 10, 70, 0
18, 300928, Note_on_c, 10, 74, 70
18, 301056, Note_off_c, 10, 74, 0
18, 301056, Note_on_c, 10, 62, 45
18, 301184, Note_off_c, 10, 62, 0
18, 301184, Note_on_c, 10, 66, 61
18, 301312, Note_off_c, 10, 66, 0
18, 301312, Note_on_c, 10, 70, 66
18, 301440, Note_off_c, 10, 70, 0
18, 301440, Note_on_c, 10, 66, 54
18, 301568, Note_off_c, 10, 66, 0
18, 301568, Note_on_c, 10, 72, 75
18, 301696, Note_off_c, 10, 72, 0
18, 301696, Note_on_c, 10, 73, 66
18, 301824, Note_off_c, 10, 73, 0
18, 301824, Note_on_c, 10, 76, 69
18, 301952, Note_off_c, 10, 76, 0
18, 301952, Note_on_c, 10, 66, 47
18, 302080, Note_off_c, 10, 66, 0
18, 302080, Note_on_c, 10, 70, 62
18, 302208, Note_off_c, 10, 70, 0
18, 302208, Note_on_c, 10, 74, 63
18, 302336, Note_off_c, 10, 74, 0
18, 302336, Note_on_c, 10, 72, 59
18, 302464, Note_off_c, 10, 72, 0
18, 302464, Note_on_c, 10, 66, 51
18, 302592, Note_off_c, 10, 66, 0
18, 302592, Note_on_c, 10, 72, 72
18, 302720, Note_off_c, 10, 72, 0
18, 302720, Note_on_c, 10, 76, 67
18, 302848, Note_off_c, 10, 76, 0
18, 302848, Note_on_c, 10, 69, 53
18, 302976, Note_off_c, 10, 69, 0
18, 302976, Note_on_c, 10, 72, 66
18, 303104, Note_off_c, 10, 72, 0
18, 303104, Note_on_c, 10, 74, 65
18, 303232, Note_off_c, 10, 74, 0
18, 303232, Note_on_c, 10, 66, 52
18, 303360, Note_off_c, 10, 66, 0
18, 303360, Note_on_c, 10, 74, 70
18, 303488, Note_off_c, 10, 74, 0
18, 303488, Note_on_c, 10, 66, 49
18, 303616, Note_off_c, 10, 66, 0
18, 303616, Note_on_c, 10, 76, 70
18, 303744, Note_off_c, 10, 76, 0
18, 303744, Note_on_c, 10, 69, 48
18, 303872, Note_off_c, 10, 69, 0
18, 303872, Note_on_c, 10, 72, 69
18, 304000, Note_off_c, 10, 72, 0
18, 304000, Control_c, 10, 64, 0
18, 304000, Note_on_c, 10, 74, 65
18, 304128, Note_off_c, 10, 74, 0
18, 304640, Control_c, 10, 64, 127
18, 304640, Note_on_c, 10, 74, 56
18, 304768, Note_off_c, 10, 74, 0
18, 304768, Note_on_c, 10, 66, 45
18, 304896, Note_off_c, 10, 66, 0
18, 304896, Note_on_c, 10, 69, 65
18, 305024, Note_off_c, 10, 69, 0
18, 305024, Note_on_c, 10, 70, 68
18, 305152, Note_off_c, 10, 70, 0
18, 305152, Note_on_c, 10, 72, 63
18, 305280, Note_off_c, 10, 72, 0
18, 305280, Note_on_c, 10, 74, 63
18, 305408, Note_off_c, 10, 74, 0
18, 305408, Note_on_c, 10, 66, 50
18, 305536, Note_off_c, 10, 66, 0
18, 305536, Note_on_c, 10, 74, 72
18, 305664, Note_off_c, 10, 74, 0
18, 305664, Note_on_c, 10, 70, 54
18, 305792, Note_off_c, 10, 70, 0
18, 305792, Note_on_c, 10, 72, 63
18, 305920, Note_off_c, 10, 72, 0
18, 305920, Note_on_c, 10, 74, 63
18, 306048, Note_off_c, 10, 74, 0
18, 306048, Note_on_c, 10, 67, 51
18, 306176, Note_off_c, 10, 67, 0
18, 306176, Note_on_c, 10, 70, 65
18, 306304, Note_off_c, 10, 70, 0
18, 306304, Note_on_c, 10, 72, 66
18, 306432, Note_off_c, 10, 72, 0
18, 306432, Note_on_c, 10, 74, 66
18, 306560, Note_off_c, 10, 74, 0
18, 306560, Note_on_c, 10, 62, 45
18, 306688, Note_off_c, 10, 62, 0
18, 306688, Note_on_c, 10, 67, 64
18, 306816, Note_off_c, 10, 67, 0
18, 306816, Note_on_c, 10, 70, 69
18, 306944, Note_off_c, 10, 70, 0
18, 306944, Note_on_c, 10, 72, 64
18, 307072, Note_off_c, 10, 72, 0
18, 307072, Note_on_c, 10, 74, 68
18, 307200, Note_off_c, 10, 74, 0
18, 307200, Note_on_c, 10, 66, 47
18, 307328, Note_off_c, 10, 66, 0
18, 307328, Note_on_c, 10, 74, 68
18, 307456, Note_off_c, 10, 74, 0
18, 307456, Note_on_c, 10, 70, 55
18, 307584, Note_off_c, 10, 70, 0
18, 307584, Note_on_c, 10, 72, 66
18, 307712, Note_off_c, 10, 72, 0
18, 307712, Note_on_c, 10, 74, 67
18, 307840, Note_off_c, 10, 74, 0
18, 307840, Note_on_c, 10, 67, 47
18, 307968, Note_off_c, 10, 67, 0
18, 307968, Note_on_c, 10, 70, 63
18, 308096, Note_off_c, 10, 70, 0
18, 308096, Note_on_c, 10, 73, 69
18, 308224, Note_off_c, 10, 73, 0
18, 308224, Note_on_c, 10, 75, 69
18, 308352, Note_off_c, 10, 75, 0
18, 308352, Note_on_c, 10, 61, 43
18, 308480, Note_off_c, 10, 61, 0
18, 308480, Note_on_c, 10, 67, 68
18, 308608, Note_off_c, 10, 67, 0
18, 308608, Note_on_c, 10, 70, 64
18, 308736, Note_off_c, 10, 70, 0
18, 308736, Note_on_c, 10, 73, 68
18, 308864, Note_off_c, 10, 73, 0
18, 308864, Note_on_c, 10, 75, 72
18, 308992, Note_off_c, 10, 75, 0
18, 308992, Note_on_c, 10, 66, 46
18, 309120, Note_off_c, 10, 66, 0
18, 309120, Note_on_c, 10, 74, 71
18, 309248, Note_off_c, 10, 74, 0
18, 309248, Note_on_c, 10, 71, 58
18, 309376, Note_off_c, 10, 71, 0
18, 309376, Note_on_c, 10, 74, 65
18, 309504, Note_off_c, 10, 74, 0
18, 309504, Note_on_c, 10, 76, 64
18, 309632, Note_off_c, 10, 76, 0
18, 309632, Note_on_c, 10, 68, 52
18, 309760, Note_off_c, 10, 68, 0
18, 309760, Note_on_c, 10, 71, 64
18, 309888, Note_off_c, 10, 71, 0
18, 309888, Note_on_c, 10, 74, 65
18, 310016, Note_off_c, 10, 74, 0
18, 310016, Note_on_c, 10, 76, 64
18, 310144, Note_off_c, 10, 76, 0
18, 310144, Note_on_c, 10, 64, 46
18, 310272, Note_off_c, 10, 64, 0
18, 310272, Note_on_c, 10, 67, 69
18, 310400, Note_off_c, 10, 67, 0
18, 310400, Note_on_c, 10, 68, 62
18, 310528, Note_off_c, 10, 68, 0
18, 310528, Note_on_c, 10, 74, 72
18, 310656, Note_off_c, 10, 74, 0
18, 310656, Control_c, 10, 64, 0
18, 310656, Note_on_c, 10, 76, 66
18, 310784, Note_off_c, 10, 76, 0
18, 311168, Control_c, 10, 64, 127
18, 311168, Note_on_c, 10, 67, 54
18, 311296, Note_off_c, 10, 67, 0
18, 311296, Note_on_c, 10, 68, 61
18, 311424, Note_off_c, 10, 68, 0
18, 311424, Note_on_c, 10, 75, 71
18, 311552, Note_off_c, 10, 75, 0
18, 311552, Control_c, 10, 64, 0
18, 311552, Note_on_c, 10, 77, 67
18, 311808, Note_off_c, 10, 77, 0
18, 312320, Control_c, 10, 64, 127
18, 312320, Note_on_c, 10, 67, 56
18, 312448, Note_off_c, 10, 67, 0
18, 312448, Note_on_c, 10, 68, 64
18, 312576, Note_off_c, 10, 68, 0
18, 312576, Note_on_c, 10, 75, 71
18, 312704, Note_off_c, 10, 75, 0
18, 312704, Control_c, 10, 64, 0
18, 312704, Note_on_c, 10, 77, 66
18, 312832, Note_off_c, 10, 77, 0
18, 355840, Note_on_c, 10, 60, 55
18, 356096, Note_off_c, 10, 60, 0
18, 356096, Note_on_c, 10, 60, 63
18, 356352, Note_off_c, 10, 60, 0
18, 356352, Note_on_c, 10, 60, 61
18, 356608, Note_off_c, 10, 60, 0
18, 356608, Note_on_c, 10, 60, 58
18, 356864, Note_off_c, 10, 60, 0
18, 356864, Note_on_c, 10, 60, 60
18, 357120, Note_off_c, 10, 60, 0
18, 357120, Note_on_c, 10, 60, 63
18, 357376, Note_off_c, 10, 60, 0
18, 357376, Note_on_c, 10, 60, 63
18, 357632, Note_off_c, 10, 60, 0
18, 357632, Note_on_c, 10, 60, 62
18, 357888, Note_off_c, 10, 60, 0
18, 357888, Note_on_c, 10, 60, 64
18, 358144, Note_off_c, 10, 60, 0
18, 358144, Note_on_c, 10, 61, 78
18, 358144, Note_on_c, 10, 75, 78
18, 358144, Note_on_c, 10, 76, 78
18, 358144, Note_on_c, 10, 79, 78
18, 358144, Note_on_c, 10, 81, 78
18, 358400, Note_off_c, 10, 61, 0
18, 358400, Note_off_c, 10, 75, 0
18, 358400, Note_off_c, 10, 76, 0
18, 358400, Note_off_c, 10, 79, 0
18, 358400, Note_off_c, 10, 81, 0
18, 358400, Note_on_c, 10, 61, 62
18, 358400, Note_on_c, 10, 75, 62
18, 358400, Note_on_c, 10, 76, 62
18, 358400, Note_on_c, 10, 79, 62
18, 358400, Note_on_c, 10, 81, 62
18, 358656, Note_off_c, 10, 61, 0
18, 358656, Note_off_c, 10, 75, 0
18, 358656, Note_off_c, 10, 76, 0
18, 358656, Note_off_c, 10, 79, 0
18, 358656, Note_off_c, 10, 81, 0
18, 358656, Note_on_c, 10, 61, 61
18, 358656, Note_on_c, 10, 75, 61
18, 358656, Note_on_c, 10, 76, 61
18, 358656, Note_on_c, 10, 79, 61
18, 358656, Note_on_c, 10, 81, 61
18, 358912, Note_off_c, 10, 61, 0
18, 358912, Note_off_c, 10, 75, 0
18, 358912, Note_off_c, 10, 76, 0
18, 358912, Note_off_c, 10, 79, 0
18, 358912, Note_off_c, 10, 81, 0
18, 358912, Note_on_c, 10, 61, 56
18, 358912, Note_on_c, 10, 75, 56
18, 358912, Note_on_c, 10, 76, 56
18, 358912, Note_on_c, 10, 79, 56
18, 358912, Note_on_c, 10, 81, 56
18, 359168, Note_off_c, 10, 61, 0
18, 359168, Note_off_c, 10, 75, 0
18, 359168, Note_off_c, 10, 76, 0
18, 359168, Note_off_c, 10, 79, 0
18, 359168, Note_off_c, 10, 81, 0
18, 359168, Note_on_c, 10, 61, 62
18, 359168, Note_on_c, 10, 75, 62
18, 359168, Note_on_c, 10, 76, 62
18, 359168, Note_on_c, 10, 79, 62
18, 359168, Note_on_c, 10, 81, 62
18, 359424, Note_off_c, 10, 61, 0
18, 359424, Note_off_c, 10, 75, 0
18, 359424, Note_off_c, 10, 76, 0
18, 359424, Note_off_c, 10, 79, 0
18, 359424, Note_off_c, 10, 81, 0
18, 359424, Note_on_c, 10, 61, 61
18, 359424, Note_on_c, 10, 75, 61
18, 359424, Note_on_c, 10, 76, 61
18, 359424, Note_on_c, 10, 79, 61
18, 359424, Note_on_c, 10, 81, 61
18, 359680, Note_off_c, 10, 61, 0
18, 359680, Note_off_c, 10, 75, 0
18, 359680, Note_off_c, 10, 76, 0
18, 359680, Note_off_c, 10, 79, 0
18, 359680, Note_off_c, 10, 81, 0
18, 359680, Note_on_c, 10, 61, 60
18, 359680, Note_on_c, 10, 75, 60
18, 359680, Note_on_c, 10, 76, 60
18, 359680, Note_on_c, 10, 79, 60
18, 359680, Note_on_c, 10, 81, 60
18, 359936, Note_off_c, 10, 61, 0
18, 359936, Note_off_c, 10, 75, 0
18, 359936, Note_off_c, 10, 76, 0
18, 359936, Note_off_c, 10, 79, 0
18, 359936, Note_off_c, 10, 81, 0
18, 359936, Note_on_c, 10, 61, 61
18, 359936, Note_on_c, 10, 75, 61
18, 359936, Note_on_c, 10, 76, 61
18, 359936, Note_on_c, 10, 79, 61
18, 359936, Note_on_c, 10, 81, 61
18, 360192, Note_off_c, 10, 61, 0
18, 360192, Note_off_c, 10, 75, 0
18, 360192, Note_off_c, 10, 76, 0
18, 360192, Note_off_c, 10, 79, 0
18, 360192, Note_off_c, 10, 81, 0
18, 360192, Note_on_c, 10, 61, 64
18, 360192, Note_on_c, 10, 75, 64
18, 360192, Note_on_c, 10, 76, 64
18, 360192, Note_on_c, 10, 79, 64
18, 360192, Note_on_c, 10, 82, 64
18, 360448, Note_off_c, 10, 61, 0
18, 360448, Note_off_c, 10, 75, 0
18, 360448, Note_off_c, 10, 76, 0
18, 360448, Note_off_c, 10, 79, 0
18, 360448, Note_off_c, 10, 82, 0
18, 360448, Note_on_c, 10, 61, 63
18, 360448, Note_on_c, 10, 75, 63
18, 360448, Note_on_c, 10, 76, 63
18, 360448, Note_on_c, 10, 79, 63
18, 360448, Note_on_c, 10, 82, 63
18, 360704, Note_off_c, 10, 61, 0
18, 360704, Note_off_c, 10, 75, 0
18, 360704, Note_off_c, 10, 76, 0
18, 360704, Note_off_c, 10, 79, 0
18, 360704, Note_off_c, 10, 82, 0
18, 360704, Note_on_c, 10, 61, 62
18, 360704, Note_on_c, 10, 75, 62
18, 360704, Note_on_c, 10, 76, 62
18, 360704, Note_on_c, 10, 79, 62
18, 360704, Note_on_c, 10, 82, 62
18, 360960, Note_off_c, 10, 61, 0
18, 360960, Note_off_c, 10, 75, 0
18, 360960, Note_off_c, 10, 76, 0
18, 360960, Note_off_c, 10, 79, 0
18, 360960, Note_off_c, 10, 82, 0
18, 360960, Note_on_c, 10, 61, 62
18, 360960, Note_on_c, 10, 75, 62
18, 360960, Note_on_c, 10, 76, 62
18, 360960, Note_on_c, 10, 79, 62
18, 360960, Note_on_c, 10, 82, 62
18, 361216, Note_off_c, 10, 61, 0
18, 361216, Note_off_c, 10, 75, 0
18, 361216, Note_off_c, 10, 76, 0
18, 361216, Note_off_c, 10, 79, 0
18, 361216, Note_off_c, 10, 82, 0
18, 361216, Note_on_c, 10, 61, 61
18, 361216, Note_on_c, 10, 75, 61
18, 361216, Note_on_c, 10, 76, 61
18, 361216, Note_on_c, 10, 79, 61
18, 361216, Note_on_c, 10, 82, 61
18, 361472, Note_off_c, 10, 61, 0
18, 361472, Note_off_c, 10, 75, 0
18, 361472, Note_off_c, 10, 76, 0
18, 361472, Note_off_c, 10, 79, 0
18, 361472, Note_off_c, 10, 82, 0
18, 361472, Note_on_c, 10, 61, 63
18, 361472, Note_on_c, 10, 75, 63
18, 361472, Note_on_c, 10, 76, 63
18, 361472, Note_on_c, 10, 79, 63
18, 361472, Note_on_c, 10, 83, 63
18, 361728, Note_off_c, 10, 61, 0
18, 361728, Note_off_c, 10, 75, 0
18, 361728, Note_off_c, 10, 76, 0
18, 361728, Note_off_c, 10, 79, 0
18, 361728, Note_off_c, 10, 83, 0
18, 361728, Note_on_c, 10, 61, 64
18, 361728, Note_on_c, 10, 75, 64
18, 361728, Note_on_c, 10, 76, 64
18, 361728, Note_on_c, 10, 79, 64
18, 361728, Note_on_c, 10, 83, 64
18, 361984, Note_off_c, 10, 61, 0
18, 361984, Note_off_c, 10, 75, 0
18, 361984, Note_off_c, 10, 76, 0
18, 361984, Note_off_c, 10, 79, 0
18, 361984, Note_off_c, 10, 83, 0
18, 361984, Note_on_c, 10, 61, 59
18, 361984, Note_on_c, 10, 75, 59
18, 361984, Note_on_c, 10, 76, 59
18, 361984, Note_on_c, 10, 79, 59
18, 361984, Note_on_c, 10, 83, 59
18, 362240, Note_off_c, 10, 61, 0
18, 362240, Note_off_c, 10, 75, 0
18, 362240, Note_off_c, 10, 76, 0
18, 362240, Note_off_c, 10, 79, 0
18, 362240, Note_off_c, 10, 83, 0
18, 362240, Note_on_c, 10, 61, 65
18, 362240, Note_on_c, 10, 75, 65
18, 362240, Note_on_c, 10, 76, 65
18, 362240, Note_on_c, 10, 79, 65
18, 362240, Note_on_c, 10, 83, 65
18, 362496, Note_off_c, 10, 61, 0
18, 362496, Note_off_c, 10, 75, 0
18, 362496, Note_off_c, 10, 76, 0
18, 362496, Note_off_c, 10, 79, 0
18, 362496, Note_off_c, 10, 83, 0
18, 362496, Note_on_c, 10, 61, 63
18, 362496, Note_on_c, 10, 75, 63
18, 362496, Note_on_c, 10, 76, 63
18, 362496, Note_on_c, 10, 79, 63
18, 362496, Note_on_c, 10, 83, 63
18, 362752, Note_off_c, 10, 61, 0
18, 362752, Note_off_c, 10, 75, 0
18, 362752, Note_off_c, 10, 76, 0
18, 362752, Note_off_c, 10, 79, 0
18, 362752, Note_off_c, 10, 83, 0
18, 362752, Note_on_c, 10, 61, 66
18, 362752, Note_on_c, 10, 76, 66
18, 362752, Note_on_c, 10, 79, 66
18, 362752, Note_on_c, 10, 81, 66
18, 362752, Note_on_c, 10, 84, 66
18, 363008, Note_off_c, 10, 61, 0
18, 363008, Note_off_c, 10, 76, 0
18, 363008, Note_off_c, 10, 79, 0
18, 363008, Note_off_c, 10, 81, 0
18, 363008, Note_off_c, 10, 84, 0
18, 363008, Note_on_c, 10, 61, 60
18, 363008, Note_on_c, 10, 76, 60
18, 363008, Note_on_c, 10, 79, 60
18, 363008, Note_on_c, 10, 81, 60
18, 363008, Note_on_c, 10, 84, 60
18, 363264, Note_off_c, 10, 61, 0
18, 363264, Note_off_c, 10, 76, 0
18, 363264, Note_off_c, 10, 79, 0
18, 363264, Note_off_c, 10, 81, 0
18, 363264, Note_off_c, 10, 84, 0
18, 363264, Note_on_c, 10, 61, 61
18, 363264, Note_on_c, 10, 76, 61
18, 363264, Note_on_c, 10, 79, 61
18, 363264, Note_on_c, 10, 81, 61
18, 363264, Note_on_c, 10, 84, 61
18, 363605, Note_off_c, 10, 61, 0
18, 363605, Note_off_c, 10, 76, 0
18, 363605, Note_off_c, 10, 79, 0
18, 363605, Note_off_c, 10, 81, 0
18, 363605, Note_off_c, 10, 84, 0
18, 363605, Note_on_c, 10, 61, 57
18, 363605, Note_on_c, 10, 76, 57
18, 363605, Note_on_c, 10, 79, 57
18, 363605, Note_on_c, 10, 81, 57
18, 363605, Note_on_c, 10, 84, 57
18, 363946, Note_off_c, 10, 61, 0
18, 363946, Note_off_c, 10, 76, 0
18, 363946, Note_off_c, 10, 79, 0
18, 363946, Note_off_c, 10, 81, 0
18, 363946, Note_off_c, 10, 84, 0
18, 363946, Note_on_c, 10, 61, 56
18, 363946, Note_on_c, 10, 76, 56
18, 363946, Note_on_c, 10, 79, 56
18, 363946, Note_on_c, 10, 81, 56
18, 363946, Note_on_c, 10, 84, 56
18, 364288, Note_off_c, 10, 61, 0
18, 364288, Note_off_c, 10, 76, 0
18, 364288, Note_off_c, 10, 79, 0
18, 364288, Note_off_c, 10, 81, 0
18, 364288, Note_off_c, 10, 84, 0
18, 364288, Note_on_c, 10, 61, 65
18, 364288, Note_on_c, 10, 76, 65
18, 364288, Note_on_c, 10, 79, 65
18, 364288, Note_on_c, 10, 81, 65
18, 364288, Note_on_c, 10, 84, 65
18, 364629, Note_off_c, 10, 61, 0
18, 364629, Note_off_c, 10, 76, 0
18, 364629, Note_off_c, 10, 79, 0
18, 364629, Note_off_c, 10, 81, 0
18, 364629, Note_off_c, 10, 84, 0
18, 364629, Note_on_c, 10, 61, 59
18, 364629, Note_on_c, 10, 76, 59
18, 364629, Note_on_c, 10, 79, 59
18, 364629, Note_on_c, 10, 81, 59
18, 364629, Note_on_c, 10, 84, 59
18, 364970, Note_off_c, 10, 61, 0
18, 364970, Note_off_c, 10, 76, 0
18, 364970, Note_off_c, 10, 79, 0
18, 364970, Note_off_c, 10, 81, 0
18, 364970, Note_off_c, 10, 84, 0
18, 364970, Note_on_c, 10, 61, 64
18, 364970, Note_on_c, 10, 76, 64
18, 364970, Note_on_c, 10, 79, 64
18, 364970, Note_on_c, 10, 81, 64
18, 364970, Note_on_c, 10, 84, 64
18, 365312, Note_off_c, 10, 61, 0
18, 365312, Note_off_c, 10, 76, 0
18, 365312, Note_off_c, 10, 79, 0
18, 365312, Note_off_c, 10, 81, 0
18, 365312, Note_off_c, 10, 84, 0
18, 365312, Note_on_c, 10, 61, 64
18, 365312, Note_on_c, 10, 78, 64
18, 365312, Note_on_c, 10, 79, 64
18, 365312, Note_on_c, 10, 82, 64
18, 365312, Note_on_c, 10, 84, 64
18, 365312, Note_on_c, 10, 85, 64
18, 365696, Note_off_c, 10, 61, 0
18, 365696, Note_off_c, 10, 78, 0
18, 365696, Note_off_c, 10, 79, 0
18, 365696, Note_off_c, 10, 82, 0
18, 365696, Note_off_c, 10, 84, 0
18, 365696, Note_off_c, 10, 85, 0
18, 365696, Note_on_c, 10, 61, 63
18, 365696, Note_on_c, 10, 78, 63
18, 365696, Note_on_c, 10, 79, 63
18, 365696, Note_on_c, 10, 82, 63
18, 365696, Note_on_c, 10, 84, 63
18, 365696, Note_on_c, 10, 85, 63
18, 366080, Note_off_c, 10, 61, 0
18, 366080, Note_off_c, 10, 78, 0
18, 366080, Note_off_c, 10, 79, 0
18, 366080, Note_off_c, 10, 82, 0
18, 366080, Note_off_c, 10, 84, 0
18, 366080, Note_off_c, 10, 85, 0
18, 366080, Note_on_c, 10, 61, 61
18, 366080, Note_on_c, 10, 78, 61
18, 366080, Note_on_c, 10, 79, 61
18, 366080, Note_on_c, 10, 82, 61
18, 366080, Note_on_c, 10, 84, 61
18, 366080, Note_on_c, 10, 85, 61
18, 366464, Note_off_c, 10, 61, 0
18, 366464, Note_off_c, 10, 78, 0
18, 366464, Note_off_c, 10, 79, 0
18, 366464, Note_off_c, 10, 82, 0
18, 366464, Note_off_c, 10, 84, 0
18, 366464, Note_off_c, 10, 85, 0
18, 366464, Note_on_c, 10, 61, 61
18, 366464, Note_on_c, 10, 78, 61
18, 366464, Note_on_c, 10, 79, 61
18, 366464, Note_on_c, 10, 82, 61
18, 366464, Note_on_c, 10, 84, 61
18, 366464, Note_on_c, 10, 85, 61
18, 366848, Note_off_c, 10, 61, 0
18, 366848, Note_off_c, 10, 78, 0
18, 366848, Note_off_c, 10, 79, 0
18, 366848, Note_off_c, 10, 82, 0
18, 366848, Note_off_c, 10, 84, 0
18, 366848, Note_off_c, 10, 85, 0
18, 366848, Note_on_c, 10, 61, 60
18, 366848, Note_on_c, 10, 78, 60
18, 366848, Note_on_c, 10, 79, 60
18, 366848, Note_on_c, 10, 82, 60
18, 366848, Note_on_c, 10, 84, 60
18, 366848, Note_on_c, 10, 85, 60
18, 367232, Note_off_c, 10, 61, 0
18, 367232, Note_off_c, 10, 78, 0
18, 367232, Note_off_c, 10, 79, 0
18, 367232, Note_off_c, 10, 82, 0
18, 367232, Note_off_c, 10, 84, 0
18, 367232, Note_off_c, 10, 85, 0
18, 367232, Note_on_c, 10, 61, 57
18, 367232, Note_on_c, 10, 78, 57
18, 367232, Note_on_c, 10, 79, 57
18, 367232, Note_on_c, 10, 82, 57
18, 367232, Note_on_c, 10, 84, 57
18, 367232, Note_on_c, 10, 85, 57
18, 367616, Note_on_c, 10, 97, 55
18, 367701, Note_off_c, 10, 97, 0
18, 367701, Note_on_c, 10, 93, 61
18, 367744, Note_off_c, 10, 61, 0
18, 367744, Note_off_c, 10, 78, 0
18, 367744, Note_off_c, 10, 79, 0
18, 367744, Note_off_c, 10, 82, 0
18, 367744, Note_off_c, 10, 84, 0
18, 367744, Note_off_c, 10, 85, 0
18, 367744, Note_on_c, 10, 61, 59
18, 367744, Note_on_c, 10, 78, 59
18, 367744, Note_on_c, 10, 79, 59
18, 367744, Note_on_c, 10, 82, 59
18, 367744, Note_on_c, 10, 84, 59
18, 367744, Note_on_c, 10, 85, 59
18, 367786, Note_off_c, 10, 93, 0
18, 367786, Note_on_c, 10, 85, 47
18, 367872, Note_off_c, 10, 85, 0
18, 368000, Note_on_c, 10, 91, 57
18, 368128, Note_off_c, 10, 91, 0
18, 368128, Note_off_c, 10, 61, 0
18, 368128, Note_off_c, 10, 78, 0
18, 368128, Note_off_c, 10, 79, 0
18, 368128, Note_off_c, 10, 82, 0
18, 368128, Note_off_c, 10, 84, 0
18, 368128, Note_off_c, 10, 85, 0
18, 368128, Note_on_c, 10, 61, 60
18, 368128, Note_on_c, 10, 78, 60
18, 368128, Note_on_c, 10, 79, 60
18, 368128, Note_on_c, 10, 82, 60
18, 368128, Note_on_c, 10, 84, 60
18, 368128, Note_on_c, 10, 85, 60
18, 368298, Note_on_c, 10, 90, 51
18, 368384, Note_off_c, 10, 90, 0
18, 368384, Note_off_c, 10, 61, 0
18, 368384, Note_off_c, 10, 78, 0
18, 368384, Note_off_c, 10, 79, 0
18, 368384, Note_off_c, 10, 82, 0
18, 368384, Note_off_c, 10, 84, 0
18, 368384, Note_off_c, 10, 85, 0
18, 368704, Note_on_c, 10, 92, 56
18, 368768, Note_off_c, 10, 92, 0
18, 368768, Note_on_c, 10, 100, 70
18, 368832, Note_off_c, 10, 100, 0
18, 368832, Note_on_c, 10, 96, 56
18, 368896, Note_off_c, 10, 96, 0
18, 368896, Note_on_c, 10, 94, 57
18, 368960, Note_off_c, 10, 94, 0
18, 368960, Note_on_c, 10, 88, 55
18, 369024, Note_off_c, 10, 88, 0
18, 369408, Note_on_c, 10, 101, 75
18, 369493, Note_off_c, 10, 101, 0
18, 369493, Note_on_c, 10, 100, 61
18, 369578, Note_off_c, 10, 100, 0
18, 369578, Note_on_c, 10, 91, 49
18, 369664, Note_off_c, 10, 91, 0
18, 369664, Note_on_c, 10, 89, 56
18, 369749, Note_off_c, 10, 89, 0
18, 369920, Note_on_c, 10, 96, 56
18, 369984, Note_off_c, 10, 96, 0
18, 369984, Note_on_c, 10, 91, 46
18, 370048, Note_off_c, 10, 91, 0
18, 370048, Note_on_c, 10, 86, 50
18, 370112, Note_off_c, 10, 86, 0
18, 370112, Note_on_c, 10, 92, 69
18, 370176, Note_off_c, 10, 92, 0
18, 370176, Note_on_c, 10, 90, 54
18, 370240, Note_off_c, 10, 90, 0
18, 370432, Note_on_c, 10, 76, 52
18, 370474, Note_off_c, 10, 76, 0
18, 370474, Note_on_c, 10, 78, 64
18, 370517, Note_off_c, 10, 78, 0
18, 370517, Note_on_c, 10, 81, 69
18, 370560, Note_off_c, 10, 81, 0
18, 370560, Note_on_c, 10, 84, 68
18, 370602, Note_off_c, 10, 84, 0
18, 370602, Note_on_c, 10, 87, 63
18, 370645, Note_off_c, 10, 87, 0
18, 370645, Note_on_c, 10, 92, 66
18, 370688, Note_off_c, 10, 92, 0
18, 370688, Note_on_c, 10, 93, 66
18, 370730, Note_off_c, 10, 93, 0
18, 370730, Note_on_c, 10, 97, 67
18, 370773, Note_off_c, 10, 97, 0
18, 370944, Note_on_c, 10, 92, 57
18, 371029, Note_off_c, 10, 92, 0
18, 371029, Note_on_c, 10, 86, 49
18, 371114, Note_off_c, 10, 86, 0
18, 371114, Note_on_c, 10, 91, 67
18, 371200, Note_off_c, 10, 91, 0
18, 371200, Note_on_c, 10, 98, 71
18, 371285, Note_off_c, 10, 98, 0
18, 371370, Note_on_c, 10, 93, 56
18, 371456, Note_off_c, 10, 93, 0
18, 371456, Note_on_c, 10, 76, 56
18, 371456, Note_on_c, 10, 97, 69
18, 371488, Note_off_c, 10, 76, 0
18, 371488, Note_on_c, 10, 80, 68
18, 371520, Note_off_c, 10, 80, 0
18, 371520, Note_off_c, 10, 97, 0
18, 371520, Note_on_c, 10, 81, 69
18, 371520, Note_on_c, 10, 100, 64
18, 371552, Note_off_c, 10, 81, 0
18, 371552, Note_on_c, 10, 82, 64
18, 371584, Note_off_c, 10, 82, 0
18, 371584, Note_off_c, 10, 100, 0
18, 371584, Note_on_c, 10, 84, 67
18, 371584, Note_on_c, 10, 105, 66
18, 371616, Note_off_c, 10, 84, 0
18, 371616, Note_on_c, 10, 85, 65
18, 371648, Note_off_c, 10, 85, 0
18, 371648, Note_off_c, 10, 105, 0
18, 371648, Note_on_c, 10, 87, 63
18, 371680, Note_off_c, 10, 87, 0
18, 371680, Note_on_c, 10, 92, 70
18, 371712, Note_off_c, 10, 92, 0
18, 371712, Note_on_c, 10, 93, 69
18, 371744, Note_off_c, 10, 93, 0
18, 371840, Note_on_c, 10, 93, 55
18, 371872, Note_off_c, 10, 93, 0
18, 371872, Note_on_c, 10, 92, 59
18, 371904, Note_off_c, 10, 92, 0
18, 371904, Note_on_c, 10, 90, 58
18, 371936, Note_off_c, 10, 90, 0
18, 371936, Note_on_c, 10, 87, 55
18, 371968, Note_off_c, 10, 87, 0
18, 371968, Note_on_c, 10, 85, 58
18, 372000, Note_off_c, 10, 85, 0
18, 372000, Note_on_c, 10, 81, 53
18, 372032, Note_off_c, 10, 81, 0
18, 372032, Note_on_c, 10, 80, 54
18, 372064, Note_off_c, 10, 80, 0
18, 372064, Note_on_c, 10, 78, 57
18, 372096, Note_off_c, 10, 78, 0
18, 372096, Note_on_c, 10, 75, 54
18, 372128, Note_off_c, 10, 75, 0
18, 372416, Note_on_c, 10, 97, 56
18, 372480, Note_off_c, 10, 97, 0
18, 372480, Note_on_c, 10, 93, 50
18, 372582, Note_off_c, 10, 93, 0
18, 372582, Note_on_c, 10, 88, 51
18, 372684, Note_off_c, 10, 88, 0
18, 372684, Note_on_c, 10, 87, 57
18, 372787, Note_off_c, 10, 87, 0
18, 373094, Note_on_c, 10, 88, 54
18, 373196, Note_off_c, 10, 88, 0
18, 373196, Note_on_c, 10, 90, 70
18, 373299, Note_off_c, 10, 90, 0
18, 373299, Note_on_c, 10, 92, 66
18, 373401, Note_off_c, 10, 92, 0
18, 373401, Note_on_c, 10, 99, 73
18, 373504, Note_off_c, 10, 99, 0
18, 373760, Note_on_c, 10, 85, 58
18, 373811, Note_off_c, 10, 85, 0
18, 373811, Note_on_c, 10, 87, 61
18, 373862, Note_off_c, 10, 87, 0
18, 373862, Note_on_c, 10, 88, 64
18, 373913, Note_off_c, 10, 88, 0
18, 373913, Note_on_c, 10, 92, 68
18, 373964, Note_off_c, 10, 92, 0
18, 373964, Note_on_c, 10, 93, 64
18, 374016, Note_off_c, 10, 93, 0
18, 374016, Note_on_c, 10, 97, 71
18, 374067, Note_off_c, 10, 97, 0
18, 374067, Note_on_c, 10, 99, 64
18, 374118, Note_off_c, 10, 99, 0
18, 374118, Note_on_c, 10, 100, 64
18, 374169, Note_off_c, 10, 100, 0
18, 374357, Note_on_c, 10, 93, 55
18, 374442, Note_off_c, 10, 93, 0
18, 374442, Note_on_c, 10, 97, 65
18, 374528, Note_off_c, 10, 97, 0
18, 374528, Note_on_c, 10, 102, 74
18, 374784, Note_off_c, 10, 102, 0
18, 375296, Note_on_c, 10, 101, 55
18, 375347, Note_off_c, 10, 101, 0
18, 375347, Note_on_c, 10, 97, 52
18, 375398, Note_off_c, 10, 97, 0
18, 375398, Note_on_c, 10, 96, 57
18, 375424, Note_on_c, 10, 101, 57
18, 375449, Note_off_c, 10, 96, 0
18, 375449, Note_on_c, 10, 93, 56
18, 375500, Note_off_c, 10, 93, 0
18, 375500, Note_on_c, 10, 89, 58
18, 375552, Note_off_c, 10, 89, 0
18, 375552, Note_off_c, 10, 101, 0
18, 375552, Note_on_c, 10, 88, 63
18, 375552, Note_on_c, 10, 97, 52
18, 375603, Note_off_c, 10, 88, 0
18, 375603, Note_on_c, 10, 85, 55
18, 375654, Note_off_c, 10, 85, 0
18, 375654, Note_on_c, 10, 89, 66
18, 375680, Note_off_c, 10, 97, 0
18, 375680, Note_on_c, 10, 93, 52
18, 375705, Note_off_c, 10, 89, 0
18, 375705, Note_on_c, 10, 84, 50
18, 375756, Note_off_c, 10, 84, 0
18, 375756, Note_on_c, 10, 81, 59
18, 375808, Note_off_c, 10, 81, 0
18, 375808, Note_off_c, 10, 93, 0
18, 375808, Note_on_c, 10, 101, 75
18, 375936, Note_off_c, 10, 101, 0
18, 375936, Note_on_c, 10, 89, 49
18, 376064, Note_off_c, 10, 89, 0
18, 376384, Note_on_c, 10, 88, 56
18, 376448, Note_off_c, 10, 88, 0
18, 376448, Note_on_c, 10, 93, 70
18, 376512, Note_off_c, 10, 93, 0
18, 376512, Note_on_c, 10, 96, 66
18, 376576, Note_off_c, 10, 96, 0
18, 376576, Note_on_c, 10, 97, 65
18, 376640, Note_off_c, 10, 97, 0
18, 376640, Note_on_c, 10, 96, 58
18, 376704, Note_off_c, 10, 96, 0
18, 376704, Note_on_c, 10, 97, 64
18, 376768, Note_off_c, 10, 97, 0
18, 376768, Note_on_c, 10, 101, 64
18, 376832, Note_off_c, 10, 101, 0
18, 376832, Note_on_c, 10, 105, 67
18, 376896, Note_off_c, 10, 105, 0
18, 376960, Note_on_c, 10, 88, 55
18, 377088, Note_off_c, 10, 88, 0
18, 377088, Note_on_c, 10, 89, 64
18, 377216, Note_off_c, 10, 89, 0
18, 377216, Note_on_c, 10, 91, 63
18, 377344, Note_off_c, 10, 91, 0
18, 377344, Note_on_c, 10, 105, 56
18, 377344, Note_on_c, 10, 97, 74
18, 377395, Note_off_c, 10, 105, 0
18, 377395, Note_on_c, 10, 101, 53
18, 377446, Note_off_c, 10, 101, 0
18, 377446, Note_on_c, 10, 100, 60
18, 377497, Note_off_c, 10, 100, 0
18, 377497, Note_on_c, 10, 97, 57
18, 377548, Note_off_c, 10, 97, 0
18, 377548, Note_on_c, 10, 96, 50
18, 377600, Note_off_c, 10, 96, 0
18, 377600, Note_off_c, 10, 97, 0
18, 377600, Note_on_c, 10, 93, 55
18, 377600, Note_on_c, 10, 100, 64
18, 377651, Note_off_c, 10, 93, 0
18, 377651, Note_on_c, 10, 89, 51
18, 377702, Note_off_c, 10, 89, 0
18, 377702, Note_on_c, 10, 85, 53
18, 377753, Note_off_c, 10, 85, 0
18, 377856, Note_off_c, 10, 100, 0
18, 378112, Note_on_c, 10, 100, 62
18, 378214, Note_off_c, 10, 100, 0
18, 378214, Note_on_c, 10, 101, 66
18, 378316, Note_off_c, 10, 101, 0
18, 378316, Note_on_c, 10, 103, 64
18, 378419, Note_off_c, 10, 103, 0
18, 378419, Note_on_c, 10, 105, 64
18, 378521, Note_off_c, 10, 105, 0
18, 378521, Note_on_c, 10, 97, 48
18, 378624, Note_off_c, 10, 97, 0
18, 378709, Note_on_c, 10, 91, 52
18, 378794, Note_off_c, 10, 91, 0
18, 390528, Note_on_c, 10, 96, 76
18, 390528, Note_on_c, 10, 97, 76
18, 390528, Note_on_c, 10, 99, 76
18, 390528, Note_on_c, 10, 100, 76
18, 390528, Note_on_c, 10, 102, 76
18, 390528, Note_on_c, 10, 103, 76
18, 390528, Note_on_c, 10, 104, 76
18, 390528, Note_on_c, 10, 105, 76
18, 390912, Note_off_c, 10, 96, 0
18, 390912, Note_off_c, 10, 97, 0
18, 390912, Note_off_c, 10, 99, 0
18, 390912, Note_off_c, 10, 100, 0
18, 390912, Note_off_c, 10, 102, 0
18, 390912, Note_off_c, 10, 103, 0
18, 390912, Note_off_c, 10, 104, 0
18, 390912, Note_off_c, 10, 105, 0
18, 390912, Note_on_c, 10, 73, 75
18, 390976, Note_off_c, 10, 73, 0
18, 390976, Note_on_c, 10, 81, 100
18, 391040, Note_off_c, 10, 81, 0
18, 391040, Note_on_c, 10, 87, 101
18, 391104, Note_off_c, 10, 87, 0
18, 391104, Note_on_c, 10, 85, 82
18, 391168, Note_off_c, 10, 85, 0
18, 391168, Note_on_c, 10, 79, 70
18, 391232, Note_off_c, 10, 79, 0
18, 391232, Note_on_c, 10, 88, 97
18, 391296, Note_off_c, 10, 88, 0
18, 391296, Note_on_c, 10, 93, 93
18, 391360, Note_off_c, 10, 93, 0
18, 391360, Note_on_c, 10, 99, 97
18, 391424, Note_off_c, 10, 99, 0
18, 391808, Note_on_c, 10, 91, 72
18, 391808, Note_on_c, 10, 94, 72
18, 391808, Note_on_c, 10, 99, 72
18, 391808, Note_on_c, 10, 100, 72
18, 391808, Note_on_c, 10, 102, 72
18, 391936, Note_on_c, 10, 78, 74
18, 391987, Note_off_c, 10, 78, 0
18, 391987, Note_on_c, 10, 85, 96
18, 392038, Note_off_c, 10, 85, 0
18, 392038, Note_on_c, 10, 88, 88
18, 392089, Note_off_c, 10, 88, 0
18, 392089, Note_on_c, 10, 90, 91
18, 392140, Note_off_c, 10, 90, 0
18, 392140, Note_on_c, 10, 97, 97
18, 392192, Note_off_c, 10, 97, 0
18, 392192, Note_off_c, 10, 91, 0
18, 392192, Note_off_c, 10, 94, 0
18, 392192, Note_off_c, 10, 99, 0
18, 392192, Note_off_c, 10, 100, 0
18, 392192, Note_off_c, 10, 102, 0
18, 392192, Note_on_c, 10, 102, 92
18, 392243, Note_off_c, 10, 102, 0
18, 392243, Note_on_c, 10, 90, 60
18, 392294, Note_off_c, 10, 90, 0
18, 392294, Note_on_c, 10, 93, 91
18, 392345, Note_off_c, 10, 93, 0
18, 392345, Note_on_c, 10, 97, 94
18, 392396, Note_off_c, 10, 97, 0
18, 392396, Note_on_c, 10, 102, 96
18, 392448, Note_off_c, 10, 102, 0
18, 393472, Note_on_c, 10, 94, 73
18, 393472, Note_on_c, 10, 95, 73
18, 393472, Note_on_c, 10, 99, 73
18, 393472, Note_on_c, 10, 100, 73
18, 393472, Note_on_c, 10, 102, 73
18, 393728, Note_on_c, 10, 78, 71
18, 393770, Note_off_c, 10, 78, 0
18, 393770, Note_on_c, 10, 85, 100
18, 393813, Note_off_c, 10, 85, 0
18, 393813, Note_on_c, 10, 88, 93
18, 393856, Note_off_c, 10, 88, 0
18, 393856, Note_off_c, 10, 94, 0
18, 393856, Note_off_c, 10, 95, 0
18, 393856, Note_off_c, 10, 99, 0
18, 393856, Note_off_c, 10, 100, 0
18, 393856, Note_off_c, 10, 102, 0
18, 393856, Note_on_c, 10, 90, 91
18, 393898, Note_off_c, 10, 90, 0
18, 393898, Note_on_c, 10, 97, 98
18, 393941, Note_off_c, 10, 97, 0
18, 393941, Note_on_c, 10, 102, 95
18, 393984, Note_off_c, 10, 102, 0
18, 393984, Note_on_c, 10, 81, 63
18, 394026, Note_off_c, 10, 81, 0
18, 394026, Note_on_c, 10, 93, 102
18, 394069, Note_off_c, 10, 93, 0
18, 394069, Note_on_c, 10, 94, 93
18, 394112, Note_off_c, 10, 94, 0
18, 394880, Note_on_c, 10, 100, 75
18, 394944, Note_off_c, 10, 100, 0
18, 394944, Note_on_c, 10, 93, 73
18, 395008, Note_off_c, 10, 93, 0
18, 395008, Note_on_c, 10, 87, 73
18, 395072, Note_off_c, 10, 87, 0
18, 395072, Note_on_c, 10, 88, 83
18, 395136, Note_off_c, 10, 88, 0
18, 395136, Note_on_c, 10, 94, 94
18, 395136, Note_on_c, 10, 94, 79
18, 395136, Note_on_c, 10, 97, 79
18, 395136, Note_on_c, 10, 99, 79
18, 395136, Note_on_c, 10, 100, 79
18, 395136, Note_on_c, 10, 102, 79
18, 395200, Note_off_c, 10, 94, 0
18, 395200, Note_on_c, 10, 85, 67
18, 395264, Note_off_c, 10, 85, 0
18, 395264, Note_on_c, 10, 81, 76
18, 395328, Note_off_c, 10, 81, 0
18, 395328, Note_on_c, 10, 85, 92
18, 395392, Note_off_c, 10, 85, 0
18, 395392, Note_off_c, 10, 94, 0
18, 395392, Note_off_c, 10, 97, 0
18, 395392, Note_off_c, 10, 99, 0
18, 395392, Note_off_c, 10, 100, 0
18, 395392, Note_off_c, 10, 102, 0
18, 395456, Note_on_c, 10, 87, 74
18, 395456, Note_on_c, 10, 90, 74
18, 395456, Note_on_c, 10, 91, 74
18, 395456, Note_on_c, 10, 94, 74
18, 395456, Note_on_c, 10, 97, 74
18, 395456, Note_on_c, 10, 99, 74
18, 395712, Note_off_c, 10, 87, 0
18, 395712, Note_off_c, 10, 90, 0
18, 395712, Note_off_c, 10, 91, 0
18, 395712, Note_off_c, 10, 94, 0
18, 395712, Note_off_c, 10, 97, 0
18, 395712, Note_off_c, 10, 99, 0
18, 395776, Note_on_c, 10, 105, 73
18, 395812, Note_off_c, 10, 105, 0
18, 395812, Note_on_c, 10, 102, 79
18, 395849, Note_off_c, 10, 102, 0
18, 395849, Note_on_c, 10, 97, 71
18, 395885, Note_off_c, 10, 97, 0
18, 395885, Note_on_c, 10, 90, 67
18, 395922, Note_off_c, 10, 90, 0
18, 395922, Note_on_c, 10, 88, 76
18, 395958, Note_off_c, 10, 88, 0
18, 395958, Note_on_c, 10, 85, 72
18, 395995, Note_off_c, 10, 85, 0
18, 395995, Note_on_c, 10, 78, 69
18, 396032, Note_off_c, 10, 78, 0
18, 396672, Note_on_c, 10, 85, 72
18, 396672, Note_on_c, 10, 84, 72
18, 396672, Note_on_c, 10, 86, 72
18, 396672, Note_on_c, 10, 90, 72
18, 397056, Note_off_c, 10, 85, 0
18, 397056, Note_off_c, 10, 84, 0
18, 397056, Note_off_c, 10, 86, 0
18, 397056, Note_off_c, 10, 90, 0
18, 397056, Note_on_c, 10, 91, 103
18, 397056, Note_on_c, 10, 94, 103
18, 397056, Note_on_c, 10, 97, 103
18, 397056, Note_on_c, 10, 99, 103
18, 397056, Note_on_c, 10, 100, 103
18, 397312, Note_off_c, 10, 91, 0
18, 397312, Note_off_c, 10, 94, 0
18, 397312, Note_off_c, 10, 97, 0
18, 397312, Note_off_c, 10, 99, 0
18, 397312, Note_off_c, 10, 100, 0
18, 397397, Note_on_c, 10, 97, 71
18, 397397, Note_on_c, 10, 96, 71
18, 397397, Note_on_c, 10, 100, 71
18, 397397, Note_on_c, 10, 102, 71
18, 397397, Note_on_c, 10, 103, 71
18, 397568, Note_off_c, 10, 97, 0
18, 397568, Note_off_c, 10, 96, 0
18, 397568, Note_off_c, 10, 100, 0
18, 397568, Note_off_c, 10, 102, 0
18, 397568, Note_off_c, 10, 103, 0
18, 397568, Note_on_c, 10, 75, 78
18, 397568, Note_on_c, 10, 97, 87
18, 397568, Note_on_c, 10, 100, 87
18, 397568, Note_on_c, 10, 102, 87
18, 397568, Note_on_c, 10, 103, 87
18, 397568, Note_on_c, 10, 106, 87
18, 397632, Note_off_c, 10, 75, 0
18, 397632, Note_on_c, 10, 81, 98
18, 397696, Note_off_c, 10, 81, 0
18, 397696, Note_on_c, 10, 84, 92
18, 397760, Note_off_c, 10, 84, 0
18, 397760, Note_on_c, 10, 85, 90
18, 397824, Note_off_c, 10, 85, 0
18, 397824, Note_on_c, 10, 90, 96
18, 397888, Note_off_c, 10, 90, 0
18, 397888, Note_on_c, 10, 93, 93
18, 397952, Note_off_c, 10, 93, 0
18, 397952, Note_off_c, 10, 97, 0
18, 397952, Note_off_c, 10, 100, 0
18, 397952, Note_off_c, 10, 102, 0
18, 397952, Note_off_c, 10, 103, 0
18, 397952, Note_off_c, 10, 106, 0
18, 397952, Note_on_c, 10, 85, 66
18, 398016, Note_off_c, 10, 85, 0
18, 398016, Note_on_c, 10, 86, 75
18, 398080, Note_off_c, 10, 86, 0
18, 398080, Note_on_c, 10, 90, 95
18, 398131, Note_off_c, 10, 90, 0
18, 398131, Note_on_c, 10, 94, 96
18, 398182, Note_off_c, 10, 94, 0
18, 398182, Note_on_c, 10, 97, 92
18, 398233, Note_off_c, 10, 97, 0
18, 398233, Note_on_c, 10, 102, 97
18, 398284, Note_off_c, 10, 102, 0
18, 398284, Note_on_c, 10, 90, 66
18, 398336, Note_off_c, 10, 90, 0
18, 398336, Note_on_c, 10, 85, 70
18, 398378, Note_off_c, 10, 85, 0
18, 398378, Note_on_c, 10, 94, 100
18, 398421, Note_off_c, 10, 94, 0
18, 398421, Note_on_c, 10, 97, 97
18, 398464, Note_off_c, 10, 97, 0
18, 398464, Note_on_c, 10, 100, 91
18, 398506, Note_off_c, 10, 100, 0
18, 429568, Note_on_c, 10, 93, 86
18, 429568, Note_on_c, 10, 98, 86
18, 429568, Note_on_c, 10, 104, 86
18, 429696, Note_off_c, 10, 93, 0
18, 429696, Note_off_c, 10, 98, 0
18, 429696, Note_off_c, 10, 104, 0
18, 429696, Note_on_c, 10, 95, 96
18, 429696, Note_on_c, 10, 98, 96
18, 429696, Note_on_c, 10, 104, 96
18, 430080, Note_off_c, 10, 95, 0
18, 430080, Note_off_c, 10, 98, 0
18, 430080, Note_off_c, 10, 104, 0
18, 430336, Note_on_c, 10, 93, 93
18, 430336, Note_on_c, 10, 98, 93
18, 430336, Note_on_c, 10, 104, 93
18, 430464, Note_off_c, 10, 93, 0
18, 430464, Note_off_c, 10, 98, 0
18, 430464, Note_off_c, 10, 104, 0
18, 430464, Note_on_c, 10, 95, 98
18, 430464, Note_on_c, 10, 98, 98
18, 430464, Note_on_c, 10, 104, 98
18, 430848, Note_off_c, 10, 95, 0
18, 430848, Note_off_c, 10, 98, 0
18, 430848, Note_off_c, 10, 104, 0
18, 431104, Note_on_c, 10, 93, 89
18, 431104, Note_on_c, 10, 98, 89
18, 431104, Note_on_c, 10, 104, 89
18, 431232, Note_off_c, 10, 93, 0
18, 431232, Note_off_c, 10, 98, 0
18, 431232, Note_off_c, 10, 104, 0
18, 431232, Note_on_c, 10, 95, 96
18, 431232, Note_on_c, 10, 98, 96
18, 431232, Note_on_c, 10, 104, 96
18, 431616, Note_off_c, 10, 95, 0
18, 431616, Note_off_c, 10, 98, 0
18, 431616, Note_off_c, 10, 104, 0
18, 431872, Note_on_c, 10, 93, 90
18, 431872, Note_on_c, 10, 98, 90
18, 431872, Note_on_c, 10, 104, 90
18, 432000, Note_off_c, 10, 93, 0
18, 432000, Note_off_c, 10, 98, 0
18, 432000, Note_off_c, 10, 104, 0
18, 432000, Note_on_c, 10, 95, 96
18, 432000, Note_on_c, 10, 98, 96
18, 432000, Note_on_c, 10, 104, 96
18, 432384, Note_off_c, 10, 95, 0
18, 432384, Note_off_c, 10, 98, 0
18, 432384, Note_off_c, 10, 104, 0
18, 432512, Note_on_c, 10, 93, 86
18, 432512, Note_on_c, 10, 98, 86
18, 432512, Note_on_c, 10, 104, 86
18, 432640, Note_off_c, 10, 93, 0
18, 432640, Note_off_c, 10, 98, 0
18, 432640, Note_off_c, 10, 104, 0
18, 432640, Note_on_c, 10, 95, 98
18, 432640, Note_on_c, 10, 98, 98
18, 432640, Note_on_c, 10, 104, 98
18, 432896, Note_off_c, 10, 95, 0
18, 432896, Note_off_c, 10, 98, 0
18, 432896, Note_off_c, 10, 104, 0
18, 432896, Note_on_c, 10, 95, 101
18, 432896, Note_on_c, 10, 98, 101
18, 432896, Note_on_c, 10, 104, 101
18, 433152, Note_off_c, 10, 95, 0
18, 433152, Note_off_c, 10, 98, 0
18, 433152, Note_off_c, 10, 104, 0
18, 433408, Note_on_c, 10, 93, 82
18, 433408, Note_on_c, 10, 98, 82
18, 433408, Note_on_c, 10, 104, 82
18, 433536, Note_off_c, 10, 93, 0
18, 433536, Note_off_c, 10, 98, 0
18, 433536, Note_off_c, 10, 104, 0
18, 433536, Note_on_c, 10, 95, 94
18, 433536, Note_on_c, 10, 98, 94
18, 433536, Note_on_c, 10, 104, 94
18, 433920, Note_off_c, 10, 95, 0
18, 433920, Note_off_c, 10, 98, 0
18, 433920, Note_off_c, 10, 104, 0
18, 434048, Note_on_c, 10, 93, 88
18, 434048, Note_on_c, 10, 98, 88
18, 434048, Note_on_c, 10, 104, 88
18, 434176, Note_off_c, 10, 93, 0
18, 434176, Note_off_c, 10, 98, 0
18, 434176, Note_off_c, 10, 104, 0
18, 434176, Note_on_c, 10, 95, 96
18, 434176, Note_on_c, 10, 98, 96
18, 434176, Note_on_c, 10, 104, 96
18, 434432, Note_on_c, 10, 98, 74
18, 434496, Note_off_c, 10, 98, 0
18, 434496, Note_on_c, 10, 93, 74
18, 434560, Note_off_c, 10, 93, 0
18, 434560, Note_off_c, 10, 95, 0
18, 434560, Note_off_c, 10, 98, 0
18, 434560, Note_off_c, 10, 104, 0
18, 434560, Note_on_c, 10, 90, 74
18, 434624, Note_off_c, 10, 90, 0
18, 434624, Note_on_c, 10, 100, 102
18, 434688, Note_off_c, 10, 100, 0
18, 434688, Note_on_c, 10, 98, 82
18, 434688, Note_on_c, 10, 105, 85
18, 434752, Note_off_c, 10, 98, 0
18, 434752, Note_on_c, 10, 90, 68
18, 434816, Note_off_c, 10, 90, 0
18, 434816, Note_off_c, 10, 105, 0
18, 434816, Note_on_c, 10, 100, 79
18, 434944, Note_off_c, 10, 100, 0
18, 434944, Note_on_c, 10, 98, 94
18, 435072, Note_off_c, 10, 98, 0
18, 435072, Note_on_c, 10, 96, 90
18, 435200, Note_off_c, 10, 96, 0
18, 435200, Note_on_c, 10, 93, 88
18, 435328, Note_off_c, 10, 93, 0
18, 435328, Note_on_c, 10, 90, 75
18, 435328, Note_on_c, 10, 92, 90
18, 435392, Note_off_c, 10, 90, 0
18, 435392, Note_on_c, 10, 100, 103
18, 435456, Note_off_c, 10, 100, 0
18, 435456, Note_off_c, 10, 92, 0
18, 435456, Note_on_c, 10, 98, 82
18, 435520, Note_off_c, 10, 98, 0
18, 435520, Note_on_c, 10, 93, 74
18, 435584, Note_off_c, 10, 93, 0
18, 435584, Note_on_c, 10, 90, 73
18, 435648, Note_off_c, 10, 90, 0
18, 435648, Note_on_c, 10, 98, 100
18, 435712, Note_off_c, 10, 98, 0
18, 435712, Note_on_c, 10, 100, 89
18, 435776, Note_off_c, 10, 100, 0
18, 435776, Note_on_c, 10, 98, 84
18, 435840, Note_off_c, 10, 98, 0
18, 435840, Note_on_c, 10, 92, 72
18, 435840, Note_on_c, 10, 105, 84
18, 435904, Note_off_c, 10, 92, 0
18, 435968, Note_off_c, 10, 105, 0
18, 435968, Note_on_c, 10, 100, 87
18, 436096, Note_off_c, 10, 100, 0
18, 436096, Note_on_c, 10, 98, 91
18, 436160, Note_on_c, 10, 100, 79
18, 436224, Note_off_c, 10, 100, 0
18, 436224, Note_off_c, 10, 98, 0
18, 436224, Note_on_c, 10, 98, 78
18, 436224, Note_on_c, 10, 96, 88
18, 436288, Note_off_c, 10, 98, 0
18, 436288, Note_on_c, 10, 93, 75
18, 436352, Note_off_c, 10, 93, 0
18, 436352, Note_off_c, 10, 96, 0
18, 436352, Note_on_c, 10, 92, 80
18, 436352, Note_on_c, 10, 93, 86
18, 436416, Note_off_c, 10, 92, 0
18, 436416, Note_on_c, 10, 90, 79
18, 436480, Note_off_c, 10, 90, 0
18, 436480, Note_off_c, 10, 93, 0
18, 436480, Note_on_c, 10, 92, 93
18, 436608, Note_off_c, 10, 92, 0
18, 436736, Note_on_c, 10, 90, 74
18, 436800, Note_off_c, 10, 90, 0
18, 436800, Note_on_c, 10, 98, 96
18, 436864, Note_off_c, 10, 98, 0
18, 436864, Note_on_c, 10, 100, 93
18, 436928, Note_off_c, 10, 100, 0
18, 436928, Note_on_c, 10, 98, 82
18, 436992, Note_off_c, 10, 98, 0
18, 436992, Note_on_c, 10, 100, 85
18, 437056, Note_off_c, 10, 100, 0
18, 437056, Note_on_c, 10, 98, 78
18, 437120, Note_off_c, 10, 98, 0
18, 437120, Note_on_c, 10, 93, 72
18, 437120, Note_on_c, 10, 105, 93
18, 437184, Note_off_c, 10, 93, 0
18, 437184, Note_on_c, 10, 92, 76
18, 437248, Note_off_c, 10, 92, 0
18, 437248, Note_off_c, 10, 105, 0
18, 437248, Note_on_c, 10, 98, 96
18, 437248, Note_on_c, 10, 100, 90
18, 437312, Note_off_c, 10, 98, 0
18, 437312, Note_on_c, 10, 100, 92
18, 437376, Note_off_c, 10, 100, 0
18, 437376, Note_off_c, 10, 100, 0
18, 437376, Note_on_c, 10, 98, 84
18, 437504, Note_off_c, 10, 98, 0
18, 437504, Note_on_c, 10, 96, 93
18, 437632, Note_off_c, 10, 96, 0
18, 437632, Note_on_c, 10, 90, 77
18, 437632, Note_on_c, 10, 93, 89
18, 437696, Note_off_c, 10, 90, 0
18, 437696, Note_on_c, 10, 91, 88
18, 437760, Note_off_c, 10, 91, 0
18, 437760, Note_off_c, 10, 93, 0
18, 437760, Note_on_c, 10, 93, 92
18, 437760, Note_on_c, 10, 92, 93
18, 437824, Note_off_c, 10, 93, 0
18, 437824, Note_on_c, 10, 90, 78
18, 437888, Note_off_c, 10, 90, 0
18, 437888, Note_off_c, 10, 92, 0
18, 437888, Note_on_c, 10, 98, 101
18, 437888, Note_on_c, 10, 93, 99
18, 437952, Note_off_c, 10, 98, 0
18, 437952, Note_on_c, 10, 100, 89
18, 438016, Note_off_c, 10, 100, 0
18, 438016, Note_off_c, 10, 93, 0
18, 438016, Note_on_c, 10, 98, 81
18, 438016, Note_on_c, 10, 96, 109
18, 438080, Note_off_c, 10, 98, 0
18, 438080, Note_on_c, 10, 100, 85
18, 438144, Note_off_c, 10, 100, 0
18, 438144, Note_off_c, 10, 96, 0
18, 438144, Note_on_c, 10, 98, 83
18, 438144, Note_on_c, 10, 98, 107
18, 438208, Note_off_c, 10, 98, 0
18, 438208, Note_on_c, 10, 100, 85
18, 438272, Note_off_c, 10, 100, 0
18, 438272, Note_off_c, 10, 98, 0
18, 438464, Note_on_c, 10, 93, 75
18, 438528, Note_off_c, 10, 93, 0
18, 438528, Note_on_c, 10, 98, 95
18, 438592, Note_off_c, 10, 98, 0
18, 438592, Note_on_c, 10, 100, 92
18, 438656, Note_off_c, 10, 100, 0
18, 438656, Note_on_c, 10, 98, 74
18, 438656, Note_on_c, 10, 100, 90
18, 438720, Note_off_c, 10, 98, 0
18, 438720, Note_on_c, 10, 92, 63
18, 438784, Note_off_c, 10, 92, 0
18, 438784, Note_off_c, 10, 100, 0
18, 438784, Note_on_c, 10, 98, 87
18, 438912, Note_off_c, 10, 98, 0
18, 438912, Note_on_c, 10, 96, 89
18, 439040, Note_off_c, 10, 96, 0
18, 439040, Note_on_c, 10, 93, 91
18, 439168, Note_off_c, 10, 93, 0
18, 439168, Note_on_c, 10, 100, 74
18, 439168, Note_on_c, 10, 92, 88
18, 439232, Note_off_c, 10, 100, 0
18, 439232, Note_on_c, 10, 98, 79
18, 439296, Note_off_c, 10, 98, 0
18, 439296, Note_off_c, 10, 92, 0
18, 439296, Note_on_c, 10, 90, 62
18, 439296, Note_on_c, 10, 105, 125
18, 439360, Note_off_c, 10, 90, 0
18, 439360, Note_on_c, 10, 92, 88
18, 439424, Note_off_c, 10, 92, 0
18, 439424, Note_off_c, 10, 105, 0
18, 439424, Note_on_c, 10, 93, 87
18, 439424, Note_on_c, 10, 102, 94
18, 439488, Note_off_c, 10, 93, 0
18, 439488, Note_on_c, 10, 100, 97
18, 439552, Note_off_c, 10, 100, 0
18, 439552, Note_off_c, 10, 102, 0
18, 439552, Note_on_c, 10, 100, 92
18, 439616, Note_on_c, 10, 84, 73
18, 439680, Note_off_c, 10, 84, 0
18, 439680, Note_off_c, 10, 100, 0
18, 439680, Note_on_c, 10, 90, 99
18, 439680, Note_on_c, 10, 98, 92
18, 439744, Note_off_c, 10, 90, 0
18, 439744, Note_on_c, 10, 92, 86
18, 439808, Note_off_c, 10, 92, 0
18, 439808, Note_off_c, 10, 98, 0
18, 439808, Note_on_c, 10, 90, 78
18, 439808, Note_on_c, 10, 96, 89
18, 439872, Note_off_c, 10, 90, 0
18, 439872, Note_on_c, 10, 92, 87
18, 439936, Note_off_c, 10, 92, 0
18, 439936, Note_off_c, 10, 96, 0
18, 439936, Note_on_c, 10, 98, 98
18, 439936, Note_on_c, 10, 100, 105
18, 440000, Note_off_c, 10, 98, 0
18, 440000, Note_on_c, 10, 100, 90
18, 440064, Note_off_c, 10, 100, 0
18, 440064, Note_off_c, 10, 100, 0
18, 440064, Note_on_c, 10, 96, 87
18, 440192, Note_off_c, 10, 96, 0
18, 440192, Note_on_c, 10, 90, 82
18, 440320, Note_off_c, 10, 90, 0
18, 440320, Note_on_c, 10, 96, 76
18, 440384, Note_off_c, 10, 96, 0
18, 440384, Note_on_c, 10, 91, 70
18, 440448, Note_off_c, 10, 91, 0
18, 440448, Note_on_c, 10, 90, 79
18, 440448, Note_on_c, 10, 105, 89
18, 440512, Note_off_c, 10, 90, 0
18, 440512, Note_on_c, 10, 93, 90
18, 440576, Note_off_c, 10, 93, 0
18, 440576, Note_off_c, 10, 105, 0
18, 440576, Note_on_c, 10, 92, 84
18, 440576, Note_on_c, 10, 102, 91
18, 440640, Note_off_c, 10, 92, 0
18, 440640, Note_on_c, 10, 87, 71
18, 440704, Note_off_c, 10, 87, 0
18, 440704, Note_off_c, 10, 102, 0
18, 440704, Note_on_c, 10, 100, 89
18, 440832, Note_off_c, 10, 100, 0
18, 440832, Note_on_c, 10, 98, 93
18, 440960, Note_off_c, 10, 98, 0
18, 440960, Note_on_c, 10, 96, 95
18, 441088, Note_off_c, 10, 96, 0
18, 441088, Note_on_c, 10, 91, 74
18, 441088, Note_on_c, 10, 93, 93
18, 441152, Note_off_c, 10, 91, 0
18, 441152, Note_on_c, 10, 94, 92
18, 441216, Note_off_c, 10, 94, 0
18, 441216, Note_off_c, 10, 93, 0
18, 441216, Note_on_c, 10, 97, 90
18, 441216, Note_on_c, 10, 92, 92
18, 441280, Note_off_c, 10, 97, 0
18, 441280, Note_on_c, 10, 96, 81
18, 441344, Note_off_c, 10, 96, 0
18, 441344, Note_off_c, 10, 92, 0
18, 441344, Note_on_c, 10, 90, 70
18, 441344, Note_on_c, 10, 96, 110
18, 441408, Note_off_c, 10, 90, 0
18, 441472, Note_off_c, 10, 96, 0
18, 441472, Note_on_c, 10, 88, 76
18, 441600, Note_off_c, 10, 88, 0
18, 441856, Note_on_c, 10, 82, 70
18, 441856, Note_on_c, 10, 102, 93
18, 441920, Note_off_c, 10, 82, 0
18, 441920, Note_on_c, 10, 86, 94
18, 441984, Note_off_c, 10, 86, 0
18, 441984, Note_off_c, 10, 102, 0
18, 441984, Note_on_c, 10, 90, 94
18, 441984, Note_on_c, 10, 97, 85
18, 442048, Note_off_c, 10, 90, 0
18, 442048, Note_on_c, 10, 88, 79
18, 442112, Note_off_c, 10, 88, 0
18, 442112, Note_off_c, 10, 97, 0
18, 442112, Note_on_c, 10, 95, 104
18, 442112, Note_on_c, 10, 100, 105
18, 442176, Note_off_c, 10, 95, 0
18, 442240, Note_off_c, 10, 100, 0
18, 442240, Note_on_c, 10, 94, 85
18, 442304, Note_on_c, 10, 100, 79
18, 442368, Note_off_c, 10, 100, 0
18, 442368, Note_off_c, 10, 94, 0
18, 442368, Note_on_c, 10, 97, 79
18, 442368, Note_on_c, 10, 104, 117
18, 442432, Note_off_c, 10, 97, 0
18, 442432, Note_on_c, 10, 93, 73
18, 442496, Note_off_c, 10, 93, 0
18, 442496, Note_off_c, 10, 104, 0
18, 442496, Note_on_c, 10, 86, 61
18, 442496, Note_on_c, 10, 102, 96
18, 442560, Note_off_c, 10, 86, 0
18, 442560, Note_on_c, 10, 88, 86
18, 442624, Note_off_c, 10, 88, 0
18, 442624, Note_off_c, 10, 102, 0
18, 442624, Note_on_c, 10, 105, 107
18, 442752, Note_off_c, 10, 105, 0
18, 442752, Note_on_c, 10, 100, 87
18, 442880, Note_off_c, 10, 100, 0
18, 442880, Note_on_c, 10, 98, 92
18, 442944, Note_on_c, 10, 87, 73
18, 443008, Note_off_c, 10, 87, 0
18, 443008, Note_off_c, 10, 98, 0
18, 443008, Note_on_c, 10, 94, 97
18, 443008, Note_on_c, 10, 90, 76
18, 443072, Note_off_c, 10, 94, 0
18, 443072, Note_on_c, 10, 98, 93
18, 443136, Note_off_c, 10, 98, 0
18, 443136, Note_off_c, 10, 90, 0
18, 443136, Note_on_c, 10, 100, 91
18, 443136, Note_on_c, 10, 92, 104
18, 443200, Note_off_c, 10, 100, 0
18, 443200, Note_on_c, 10, 96, 72
18, 443264, Note_off_c, 10, 96, 0
18, 443264, Note_off_c, 10, 92, 0
18, 443264, Note_on_c, 10, 93, 74
18, 443264, Note_on_c, 10, 93, 103
18, 443328, Note_off_c, 10, 93, 0
18, 443328, Note_on_c, 10, 89, 71
18, 443392, Note_off_c, 10, 89, 0
18, 443392, Note_off_c, 10, 93, 0
18, 443392, Note_on_c, 10, 102, 104
18, 443392, Note_on_c, 10, 95, 100
18, 443456, Note_off_c, 10, 102, 0
18, 443520, Note_off_c, 10, 95, 0
18, 443520, Note_on_c, 10, 95, 73
18, 443520, Note_on_c, 10, 97, 103
18, 443584, Note_off_c, 10, 95, 0
18, 443584, Note_on_c, 10, 93, 81
18, 443648, Note_off_c, 10, 93, 0
18, 443648, Note_off_c, 10, 97, 0
18, 443648, Note_on_c, 10, 98, 95
18, 443712, Note_off_c, 10, 98, 0
18, 443776, Note_on_c, 10, 105, 87
18, 443904, Note_off_c, 10, 105, 0
18, 443904, Note_on_c, 10, 100, 87
18, 444032, Note_off_c, 10, 100, 0
18, 444032, Note_on_c, 10, 98, 91
18, 444160, Note_off_c, 10, 98, 0
18, 444160, Note_on_c, 10, 83, 79
18, 444160, Note_on_c, 10, 96, 93
18, 444224, Note_off_c, 10, 83, 0
18, 444224, Note_on_c, 10, 84, 83
18, 444288, Note_off_c, 10, 84, 0
18, 444288, Note_off_c, 10, 96, 0
18, 444288, Note_on_c, 10, 98, 105
18, 444288, Note_on_c, 10, 93, 88
18, 444352, Note_off_c, 10, 98, 0
18, 444352, Note_on_c, 10, 93, 74
18, 444416, Note_off_c, 10, 93, 0
18, 444416, Note_off_c, 10, 93, 0
18, 444416, Note_on_c, 10, 92, 91
18, 444544, Note_off_c, 10, 92, 0
18, 444544, Note_on_c, 10, 90, 93
18, 444672, Note_off_c, 10, 90, 0
18, 444672, Note_on_c, 10, 96, 115
18, 444800, Note_off_c, 10, 96, 0
18, 444800, Note_on_c, 10, 94, 93
18, 444928, Note_off_c, 10, 94, 0
18, 444928, Note_on_c, 10, 90, 85
18, 445056, Note_off_c, 10, 90, 0
18, 445056, Note_on_c, 10, 88, 91
18, 445184, Note_off_c, 10, 88, 0
18, 445184, Control_c, 10, 64, 127
18, 445184, Note_on_c, 10, 93, 88
18, 445184, Note_on_c, 10, 105, 88
18, 445312, Note_off_c, 10, 93, 0
18, 445312, Note_off_c, 10, 105, 0
18, 445312, Note_on_c, 10, 93, 96
18, 445312, Note_on_c, 10, 105, 96
18, 445440, Note_off_c, 10, 93, 0
18, 445440, Note_off_c, 10, 105, 0
18, 445440, Note_on_c, 10, 93, 102
18, 445440, Note_on_c, 10, 105, 102
18, 445568, Note_off_c, 10, 93, 0
18, 445568, Note_off_c, 10, 105, 0
18, 445568, Note_on_c, 10, 93, 99
18, 445568, Note_on_c, 10, 105, 99
18, 445568, Note_on_c, 10, 105, 89
18, 445696, Note_off_c, 10, 93, 0
18, 445696, Note_off_c, 10, 105, 0
18, 445696, Note_off_c, 10, 105, 0
18, 445696, Note_on_c, 10, 93, 97
18, 445696, Note_on_c, 10, 105, 97
18, 445696, Note_on_c, 10, 100, 81
18, 445824, Note_off_c, 10, 93, 0
18, 445824, Note_off_c, 10, 105, 0
18, 445824, Note_off_c, 10, 100, 0
18, 445824, Note_on_c, 10, 93, 99
18, 445824, Note_on_c, 10, 105, 99
18, 445824, Note_on_c, 10, 98, 93
18, 445952, Note_off_c, 10, 93, 0
18, 445952, Note_off_c, 10, 105, 0
18, 445952, Note_off_c, 10, 98, 0
18, 445952, Note_on_c, 10, 93, 99
18, 445952, Note_on_c, 10, 105, 99
18, 445952, Note_on_c, 10, 96, 89
18, 446080, Note_off_c, 10, 93, 0
18, 446080, Note_off_c, 10, 105, 0
18, 446080, Note_off_c, 10, 96, 0
18, 446080, Note_on_c, 10, 93, 98
18, 446080, Note_on_c, 10, 105, 98
18, 446080, Note_on_c, 10, 100, 110
18, 446208, Note_off_c, 10, 93, 0
18, 446208, Note_off_c, 10, 105, 0
18, 446208, Note_off_c, 10, 100, 0
18, 446208, Note_on_c, 10, 93, 102
18, 446208, Note_on_c, 10, 105, 102
18, 446208, Note_on_c, 10, 93, 83
18, 446336, Note_off_c, 10, 93, 0
18, 446336, Note_off_c, 10, 105, 0
18, 446336, Note_off_c, 10, 93, 0
18, 446336, Note_on_c, 10, 93, 99
18, 446336, Note_on_c, 10, 105, 99
18, 446336, Note_on_c, 10, 92, 89
18, 446464, Note_off_c, 10, 93, 0
18, 446464, Note_off_c, 10, 105, 0
18, 446464, Note_off_c, 10, 92, 0
18, 446464, Note_on_c, 10, 93, 106
18, 446464, Note_on_c, 10, 105, 106
18, 446464, Note_on_c, 10, 100, 115
18, 446592, Note_off_c, 10, 93, 0
18, 446592, Note_off_c, 10, 105, 0
18, 446592, Note_off_c, 10, 100, 0
18, 446592, Note_on_c, 10, 93, 96
18, 446592, Note_on_c, 10, 105, 96
18, 446592, Note_on_c, 10, 90, 78
18, 446720, Note_off_c, 10, 93, 0
18, 446720, Note_off_c, 10, 105, 0
18, 446720, Note_off_c, 10, 90, 0
18, 446720, Note_on_c, 10, 93, 97
18, 446720, Note_on_c, 10, 105, 97
18, 446848, Note_off_c, 10, 93, 0
18, 446848, Note_off_c, 10, 105, 0
18, 446848, Note_on_c, 10, 93, 95
18, 446848, Note_on_c, 10, 105, 95
18, 446848, Note_on_c, 10, 105, 87
18, 446976, Note_off_c, 10, 93, 0
18, 446976, Note_off_c, 10, 105, 0
18, 446976, Note_off_c, 10, 105, 0
18, 446976, Note_on_c, 10, 93, 99
18, 446976, Note_on_c, 10, 105, 99
18, 446976, Note_on_c, 10, 100, 82
18, 447104, Note_off_c, 10, 93, 0
18, 447104, Note_off_c, 10, 105, 0
18, 447104, Note_off_c, 10, 100, 0
18, 447104, Note_on_c, 10, 93, 98
18, 447104, Note_on_c, 10, 105, 98
18, 447104, Note_on_c, 10, 102, 98
18, 447232, Note_off_c, 10, 93, 0
18, 447232, Note_off_c, 10, 105, 0
18, 447232, Note_off_c, 10, 102, 0
18, 447232, Note_on_c, 10, 93, 96
18, 447232, Note_on_c, 10, 105, 96
18, 447232, Note_on_c, 10, 96, 80
18, 447360, Note_off_c, 10, 93, 0
18, 447360, Note_off_c, 10, 105, 0
18, 447360, Note_off_c, 10, 96, 0
18, 447360, Note_on_c, 10, 93, 98
18, 447360, Note_on_c, 10, 105, 98
18, 447360, Note_on_c, 10, 93, 90
18, 447488, Note_off_c, 10, 93, 0
18, 447488, Note_off_c, 10, 105, 0
18, 447488, Note_off_c, 10, 93, 0
18, 447488, Note_on_c, 10, 93, 97
18, 447488, Note_on_c, 10, 105, 97
18, 447488, Note_on_c, 10, 92, 93
18, 447616, Note_off_c, 10, 93, 0
18, 447616, Note_off_c, 10, 105, 0
18, 447616, Note_off_c, 10, 92, 0
18, 447616, Note_on_c, 10, 93, 96
18, 447616, Note_on_c, 10, 105, 96
18, 447616, Note_on_c, 10, 98, 115
18, 447744, Note_off_c, 10, 93, 0
18, 447744, Note_off_c, 10, 105, 0
18, 447744, Note_off_c, 10, 98, 0
18, 447744, Note_on_c, 10, 93, 96
18, 447744, Note_on_c, 10, 105, 96
18, 447744, Note_on_c, 10, 96, 95
18, 447872, Note_off_c, 10, 93, 0
18, 447872, Note_off_c, 10, 105, 0
18, 447872, Note_off_c, 10, 96, 0
18, 447872, Note_on_c, 10, 93, 99
18, 447872, Note_on_c, 10, 105, 99
18, 447872, Note_on_c, 10, 100, 108
18, 448000, Note_off_c, 10, 93, 0
18, 448000, Note_off_c, 10, 105, 0
18, 448000, Note_off_c, 10, 100, 0
18, 448000, Note_on_c, 10, 93, 97
18, 448000, Note_on_c, 10, 105, 97
18, 448000, Note_on_c, 10, 102, 104
18, 448128, Note_off_c, 10, 93, 0
18, 448128, Note_off_c, 10, 105, 0
18, 448128, Note_on_c, 10, 93, 93
18, 448128, Note_on_c, 10, 105, 93
18, 448256, Note_off_c, 10, 93, 0
18, 448256, Note_off_c, 10, 105, 0
18, 448256, Note_off_c, 10, 102, 0
18, 448256, Note_on_c, 10, 93, 100
18, 448256, Note_on_c, 10, 105, 100
18, 448384, Note_off_c, 10, 93, 0
18, 448384, Note_off_c, 10, 105, 0
18, 448384, Note_on_c, 10, 93, 98
18, 448384, Note_on_c, 10, 105, 98
18, 448384, Note_on_c, 10, 100, 88
18, 448512, Note_off_c, 10, 93, 0
18, 448512, Note_off_c, 10, 105, 0
18, 448512, Note_off_c, 10, 100, 0
18, 448512, Note_on_c, 10, 93, 98
18, 448512, Note_on_c, 10, 105, 98
18, 448512, Note_on_c, 10, 98, 92
18, 448640, Note_off_c, 10, 93, 0
18, 448640, Note_off_c, 10, 105, 0
18, 448640, Note_off_c, 10, 98, 0
18, 448640, Note_on_c, 10, 93, 97
18, 448640, Note_on_c, 10, 105, 97
18, 448640, Note_on_c, 10, 96, 95
18, 448768, Note_off_c, 10, 93, 0
18, 448768, Note_off_c, 10, 105, 0
18, 448768, Note_off_c, 10, 96, 0
18, 448768, Note_on_c, 10, 93, 96
18, 448768, Note_on_c, 10, 105, 96
18, 448768, Note_on_c, 10, 93, 92
18, 448896, Note_off_c, 10, 93, 0
18, 448896, Note_off_c, 10, 105, 0
18, 448896, Note_off_c, 10, 93, 0
18, 448896, Note_on_c, 10, 93, 100
18, 448896, Note_on_c, 10, 105, 100
18, 448896, Note_on_c, 10, 92, 89
18, 449024, Note_off_c, 10, 93, 0
18, 449024, Note_off_c, 10, 105, 0
18, 449024, Note_off_c, 10, 92, 0
18, 449024, Note_on_c, 10, 93, 101
18, 449024, Note_on_c, 10, 105, 101
18, 449152, Note_off_c, 10, 93, 0
18, 449152, Note_off_c, 10, 105, 0
18, 449152, Note_on_c, 10, 93, 96
18, 449152, Note_on_c, 10, 105, 96
18, 449152, Note_on_c, 10, 93, 90
18, 449280, Note_off_c, 10, 93, 0
18, 449280, Note_off_c, 10, 105, 0
18, 449280, Note_off_c, 10, 93, 0
18, 449280, Note_on_c, 10, 93, 99
18, 449280, Note_on_c, 10, 105, 99
18, 449280, Note_on_c, 10, 105, 123
18, 449408, Note_off_c, 10, 93, 0
18, 449408, Note_off_c, 10, 105, 0
18, 449408, Note_off_c, 10, 105, 0
18, 449408, Note_on_c, 10, 93, 100
18, 449408, Note_on_c, 10, 105, 100
18, 449408, Note_on_c, 10, 100, 88
18, 449536, Note_off_c, 10, 93, 0
18, 449536, Note_off_c, 10, 105, 0
18, 449536, Note_off_c, 10, 100, 0
18, 449536, Note_on_c, 10, 93, 98
18, 449536, Note_on_c, 10, 105, 98
18, 449536, Note_on_c, 10, 98, 95
18, 449664, Note_off_c, 10, 93, 0
18, 449664, Note_off_c, 10, 105, 0
18, 449664, Note_off_c, 10, 98, 0
18, 449664, Note_on_c, 10, 93, 95
18, 449664, Note_on_c, 10, 105, 95
18, 449664, Note_on_c, 10, 96, 91
18, 449792, Note_off_c, 10, 93, 0
18, 449792, Note_off_c, 10, 105, 0
18, 449792, Note_off_c, 10, 96, 0
18, 449792, Note_on_c, 10, 93, 95
18, 449792, Note_on_c, 10, 105, 95
18, 449792, Note_on_c, 10, 98, 107
18, 449920, Note_off_c, 10, 93, 0
18, 449920, Note_off_c, 10, 105, 0
18, 449920, Note_off_c, 10, 98, 0
18, 449920, Note_on_c, 10, 93, 94
18, 449920, Note_on_c, 10, 105, 94
18, 449920, Note_on_c, 10, 100, 106
18, 450048, Note_off_c, 10, 93, 0
18, 450048, Note_off_c, 10, 105, 0
18, 450048, Note_off_c, 10, 100, 0
18, 450048, Note_on_c, 10, 93, 99
18, 450048, Note_on_c, 10, 105, 99
18, 450048, Note_on_c, 10, 96, 87
18, 450176, Note_off_c, 10, 93, 0
18, 450176, Note_off_c, 10, 105, 0
18, 450176, Note_off_c, 10, 96, 0
18, 450176, Note_on_c, 10, 93, 96
18, 450176, Note_on_c, 10, 105, 96
18, 450176, Note_on_c, 10, 104, 119
18, 450304, Note_off_c, 10, 93, 0
18, 450304, Note_off_c, 10, 105, 0
18, 450304, Note_off_c, 10, 104, 0
18, 450304, Note_on_c, 10, 93, 100
18, 450304, Note_on_c, 10, 105, 100
18, 450304, Note_on_c, 10, 96, 82
18, 450432, Note_off_c, 10, 93, 0
18, 450432, Note_off_c, 10, 105, 0
18, 450432, Note_off_c, 10, 96, 0
18, 450432, Note_on_c, 10, 93, 94
18, 450432, Note_on_c, 10, 105, 94
18, 450432, Note_on_c, 10, 100, 104
18, 450560, Note_off_c, 10, 93, 0
18, 450560, Note_off_c, 10, 105, 0
18, 450560, Note_off_c, 10, 100, 0
18, 450560, Note_on_c, 10, 93, 93
18, 450560, Note_on_c, 10, 105, 93
18, 450560, Note_on_c, 10, 98, 91
18, 450688, Note_off_c, 10, 93, 0
18, 450688, Note_off_c, 10, 105, 0
18, 450688, Note_off_c, 10, 98, 0
18, 450688, Note_on_c, 10, 93, 97
18, 450688, Note_on_c, 10, 105, 97
18, 450688, Note_on_c, 10, 96, 90
18, 450816, Note_off_c, 10, 93, 0
18, 450816, Note_off_c, 10, 105, 0
18, 450816, Note_off_c, 10, 96, 0
18, 450816, Note_on_c, 10, 93, 93
18, 450816, Note_on_c, 10, 105, 93
18, 450944, Note_off_c, 10, 93, 0
18, 450944, Note_off_c, 10, 105, 0
18, 450944, Note_on_c, 10, 93, 101
18, 450944, Note_on_c, 10, 105, 101
18, 450944, Note_on_c, 10, 92, 89
18, 451072, Note_off_c, 10, 93, 0
18, 451072, Note_off_c, 10, 105, 0
18, 451072, Note_off_c, 10, 92, 0
18, 451072, Note_on_c, 10, 93, 99
18, 451072, Note_on_c, 10, 105, 99
18, 451200, Note_off_c, 10, 93, 0
18, 451200, Note_off_c, 10, 105, 0
18, 451200, Note_on_c, 10, 93, 94
18, 451200, Note_on_c, 10, 105, 94
18, 451200, Note_on_c, 10, 93, 87
18, 451328, Note_off_c, 10, 93, 0
18, 451328, Note_off_c, 10, 105, 0
18, 451328, Note_off_c, 10, 93, 0
18, 451328, Note_on_c, 10, 93, 94
18, 451328, Note_on_c, 10, 105, 94
18, 451328, Note_on_c, 10, 96, 108
18, 451456, Note_off_c, 10, 93, 0
18, 451456, Note_off_c, 10, 105, 0
18, 451456, Note_off_c, 10, 96, 0
18, 451456, Note_on_c, 10, 93, 94
18, 451456, Note_on_c, 10, 105, 94
18, 451456, Note_on_c, 10, 98, 108
18, 451584, Note_off_c, 10, 93, 0
18, 451584, Note_off_c, 10, 105, 0
18, 451584, Note_off_c, 10, 98, 0
18, 451584, Note_on_c, 10, 93, 98
18, 451584, Note_on_c, 10, 105, 98
18, 451584, Note_on_c, 10, 100, 99
18, 451712, Note_off_c, 10, 93, 0
18, 451712, Note_off_c, 10, 105, 0
18, 451712, Note_off_c, 10, 100, 0
18, 451712, Note_on_c, 10, 93, 98
18, 451712, Note_on_c, 10, 105, 98
18, 451712, Note_on_c, 10, 105, 110
18, 451840, Note_off_c, 10, 93, 0
18, 451840, Note_off_c, 10, 105, 0
18, 451840, Note_off_c, 10, 105, 0
18, 451840, Note_on_c, 10, 93, 93
18, 451840, Note_on_c, 10, 105, 93
18, 451840, Note_on_c, 10, 104, 101
18, 451968, Note_off_c, 10, 93, 0
18, 451968, Note_off_c, 10, 105, 0
18, 451968, Note_off_c, 10, 104, 0
18, 451968, Note_on_c, 10, 93, 96
18, 451968, Note_on_c, 10, 105, 96
18, 451968, Note_on_c, 10, 100, 85
18, 452096, Note_off_c, 10, 93, 0
18, 452096, Note_off_c, 10, 105, 0
18, 452096, Note_off_c, 10, 100, 0
18, 452096, Note_on_c, 10, 93, 101
18, 452096, Note_on_c, 10, 105, 101
18, 452096, Note_on_c, 10, 98, 91
18, 452224, Note_off_c, 10, 93, 0
18, 452224, Note_off_c, 10, 105, 0
18, 452224, Note_off_c, 10, 98, 0
18, 452224, Note_on_c, 10, 93, 96
18, 452224, Note_on_c, 10, 105, 96
18, 452224, Note_on_c, 10, 90, 75
18, 452352, Note_off_c, 10, 93, 0
18, 452352, Note_off_c, 10, 105, 0
18, 452352, Note_off_c, 10, 90, 0
18, 452352, Note_on_c, 10, 93, 97
18, 452352, Note_on_c, 10, 105, 97
18, 452352, Note_on_c, 10, 92, 101
18, 452480, Note_off_c, 10, 93, 0
18, 452480, Note_off_c, 10, 105, 0
18, 452480, Note_off_c, 10, 92, 0
18, 452480, Note_on_c, 10, 93, 101
18, 452480, Note_on_c, 10, 105, 101
18, 452480, Note_on_c, 10, 93, 104
18, 452608, Note_off_c, 10, 93, 0
18, 452608, Note_off_c, 10, 105, 0
18, 452608, Note_off_c, 10, 93, 0
18, 452608, Note_on_c, 10, 93, 98
18, 452608, Note_on_c, 10, 105, 98
18, 452608, Note_on_c, 10, 95, 107
18, 452736, Note_off_c, 10, 93, 0
18, 452736, Note_off_c, 10, 105, 0
18, 452736, Note_off_c, 10, 95, 0
18, 452736, Note_on_c, 10, 93, 95
18, 452736, Note_on_c, 10, 105, 95
18, 452736, Note_on_c, 10, 90, 87
18, 452864, Note_off_c, 10, 93, 0
18, 452864, Note_off_c, 10, 105, 0
18, 452864, Note_off_c, 10, 90, 0
18, 452864, Note_on_c, 10, 93, 98
18, 452864, Note_on_c, 10, 105, 98
18, 452864, Note_on_c, 10, 92, 104
18, 452992, Note_off_c, 10, 93, 0
18, 452992, Note_off_c, 10, 105, 0
18, 452992, Note_off_c, 10, 92, 0
18, 452992, Note_on_c, 10, 93, 97
18, 452992, Note_on_c, 10, 105, 97
18, 452992, Note_on_c, 10, 88, 90
18, 453120, Note_off_c, 10, 93, 0
18, 453120, Note_off_c, 10, 105, 0
18, 453120, Note_off_c, 10, 88, 0
18, 453120, Note_on_c, 10, 93, 98
18, 453120, Note_on_c, 10, 105, 98
18, 453248, Note_off_c, 10, 93, 0
18, 453248, Note_off_c, 10, 105, 0
18, 453248, Note_on_c, 10, 93, 103
18, 453248, Note_on_c, 10, 105, 103
18, 453248, Note_on_c, 10, 88, 94
18, 453376, Note_off_c, 10, 93, 0
18, 453376, Note_off_c, 10, 105, 0
18, 453376, Note_off_c, 10, 88, 0
18, 453376, Note_on_c, 10, 93, 101
18, 453376, Note_on_c, 10, 105, 101
18, 453504, Note_off_c, 10, 93, 0
18, 453504, Note_off_c, 10, 105, 0
18, 453504, Note_on_c, 10, 93, 98
18, 453504, Note_on_c, 10, 105, 98
18, 453504, Note_on_c, 10, 105, 89
18, 453632, Note_off_c, 10, 93, 0
18, 453632, Note_off_c, 10, 105, 0
18, 453632, Note_off_c, 10, 105, 0
18, 453632, Note_on_c, 10, 93, 95
18, 453632, Note_on_c, 10, 105, 95
18, 453632, Note_on_c, 10, 100, 88
18, 453760, Note_off_c, 10, 93, 0
18, 453760, Note_off_c, 10, 105, 0
18, 453760, Note_off_c, 10, 100, 0
18, 453760, Note_on_c, 10, 93, 97
18, 453760, Note_on_c, 10, 105, 97
18, 453760, Note_on_c, 10, 98, 91
18, 453888, Note_off_c, 10, 93, 0
18, 453888, Note_off_c, 10, 105, 0
18, 453888, Note_off_c, 10, 98, 0
18, 453888, Note_on_c, 10, 93, 98
18, 453888, Note_on_c, 10, 105, 98
18, 453888, Note_on_c, 10, 96, 95
18, 454016, Note_off_c, 10, 93, 0
18, 454016, Note_off_c, 10, 105, 0
18, 454016, Note_off_c, 10, 96, 0
18, 454016, Note_on_c, 10, 93, 100
18, 454016, Note_on_c, 10, 105, 100
18, 454016, Note_on_c, 10, 93, 90
18, 454144, Note_off_c, 10, 93, 0
18, 454144, Note_off_c, 10, 105, 0
18, 454144, Note_off_c, 10, 93, 0
18, 454144, Note_on_c, 10, 93, 98
18, 454144, Note_on_c, 10, 105, 98
18, 454144, Note_on_c, 10, 92, 92
18, 454272, Note_off_c, 10, 93, 0
18, 454272, Note_off_c, 10, 105, 0
18, 454272, Note_off_c, 10, 92, 0
18, 454272, Note_on_c, 10, 93, 101
18, 454272, Note_on_c, 10, 105, 101
18, 454272, Note_on_c, 10, 90, 89
18, 454400, Note_off_c, 10, 93, 0
18, 454400, Note_off_c, 10, 105, 0
18, 454400, Note_off_c, 10, 90, 0
18, 454400, Note_on_c, 10, 93, 98
18, 454400, Note_on_c, 10, 105, 98
18, 454400, Note_on_c, 10, 92, 101
18, 454528, Note_off_c, 10, 93, 0
18, 454528, Note_off_c, 10, 105, 0
18, 454528, Note_off_c, 10, 92, 0
18, 454528, Note_on_c, 10, 93, 98
18, 454528, Note_on_c, 10, 105, 98
18, 454528, Note_on_c, 10, 95, 104
18, 454656, Note_off_c, 10, 93, 0
18, 454656, Note_off_c, 10, 105, 0
18, 454656, Note_off_c, 10, 95, 0
18, 454656, Note_on_c, 10, 93, 98
18, 454656, Note_on_c, 10, 105, 98
18, 454784, Note_off_c, 10, 93, 0
18, 454784, Note_off_c, 10, 105, 0
18, 454784, Note_on_c, 10, 93, 100
18, 454784, Note_on_c, 10, 105, 100
18, 454784, Note_on_c, 10, 105, 88
18, 454912, Note_off_c, 10, 93, 0
18, 454912, Note_off_c, 10, 105, 0
18, 454912, Note_off_c, 10, 105, 0
18, 454912, Note_on_c, 10, 93, 94
18, 454912, Note_on_c, 10, 105, 94
18, 455040, Note_off_c, 10, 93, 0
18, 455040, Note_off_c, 10, 105, 0
18, 455040, Note_on_c, 10, 93, 100
18, 455040, Note_on_c, 10, 105, 100
18, 455040, Note_on_c, 10, 100, 90
18, 455168, Note_off_c, 10, 93, 0
18, 455168, Note_off_c, 10, 105, 0
18, 455168, Note_off_c, 10, 100, 0
18, 455168, Note_on_c, 10, 93, 98
18, 455168, Note_on_c, 10, 105, 98
18, 455168, Note_on_c, 10, 98, 91
18, 455296, Note_off_c, 10, 93, 0
18, 455296, Note_off_c, 10, 105, 0
18, 455296, Note_off_c, 10, 98, 0
18, 455296, Note_on_c, 10, 93, 96
18, 455296, Note_on_c, 10, 105, 96
18, 455296, Note_on_c, 10, 96, 92
18, 455424, Note_off_c, 10, 93, 0
18, 455424, Note_off_c, 10, 105, 0
18, 455424, Note_off_c, 10, 96, 0
18, 455424, Note_on_c, 10, 93, 100
18, 455424, Note_on_c, 10, 105, 100
18, 455424, Note_on_c, 10, 92, 86
18, 455552, Note_off_c, 10, 93, 0
18, 455552, Note_off_c, 10, 105, 0
18, 455552, Note_off_c, 10, 92, 0
18, 455552, Note_on_c, 10, 93, 100
18, 455552, Note_on_c, 10, 105, 100
18, 455552, Note_on_c, 10, 94, 108
18, 455680, Note_off_c, 10, 93, 0
18, 455680, Note_off_c, 10, 105, 0
18, 455680, Note_off_c, 10, 94, 0
18, 455680, Note_on_c, 10, 93, 101
18, 455680, Note_on_c, 10, 105, 101
18, 455680, Note_on_c, 10, 90, 90
18, 455808, Note_off_c, 10, 93, 0
18, 455808, Note_off_c, 10, 105, 0
18, 455808, Note_off_c, 10, 90, 0
18, 455808, Note_on_c, 10, 93, 94
18, 455808, Note_on_c, 10, 105, 94
18, 455936, Note_off_c, 10, 93, 0
18, 455936, Note_off_c, 10, 105, 0
18, 455936, Note_on_c, 10, 93, 90
18, 455936, Note_on_c, 10, 105, 90
18, 455936, Note_on_c, 10, 105, 93
18, 456064, Note_off_c, 10, 93, 0
18, 456064, Note_off_c, 10, 105, 0
18, 456064, Note_off_c, 10, 105, 0
18, 456064, Note_on_c, 10, 93, 98
18, 456064, Note_on_c, 10, 105, 98
18, 456064, Note_on_c, 10, 100, 82
18, 456192, Note_off_c, 10, 93, 0
18, 456192, Note_off_c, 10, 105, 0
18, 456192, Note_off_c, 10, 100, 0
18, 456192, Note_on_c, 10, 93, 95
18, 456192, Note_on_c, 10, 105, 95
18, 456192, Note_on_c, 10, 98, 90
18, 456320, Note_off_c, 10, 93, 0
18, 456320, Note_off_c, 10, 105, 0
18, 456320, Note_off_c, 10, 98, 0
18, 456320, Note_on_c, 10, 93, 98
18, 456320, Note_on_c, 10, 105, 98
18, 456320, Note_on_c, 10, 96, 89
18, 456448, Note_off_c, 10, 93, 0
18, 456448, Note_off_c, 10, 105, 0
18, 456448, Note_off_c, 10, 96, 0
18, 456448, Note_on_c, 10, 93, 96
18, 456448, Note_on_c, 10, 105, 96
18, 456448, Note_on_c, 10, 90, 82
18, 456576, Note_off_c, 10, 93, 0
18, 456576, Note_off_c, 10, 105, 0
18, 456576, Note_off_c, 10, 90, 0
18, 456576, Note_on_c, 10, 93, 97
18, 456576, Note_on_c, 10, 105, 97
18, 456576, Note_on_c, 10, 92, 101
18, 456704, Note_off_c, 10, 93, 0
18, 456704, Note_off_c, 10, 105, 0
18, 456704, Note_off_c, 10, 92, 0
18, 456704, Note_on_c, 10, 93, 101
18, 456704, Note_on_c, 10, 105, 101
18, 456704, Note_on_c, 10, 96, 110
18, 456832, Note_off_c, 10, 93, 0
18, 456832, Note_off_c, 10, 105, 0
18, 456832, Note_off_c, 10, 96, 0
18, 456832, Note_on_c, 10, 93, 98
18, 456832, Note_on_c, 10, 105, 98
18, 456832, Note_on_c, 10, 98, 103
18, 456960, Note_off_c, 10, 93, 0
18, 456960, Note_off_c, 10, 105, 0
18, 456960, Note_off_c, 10, 98, 0
18, 456960, Note_on_c, 10, 93, 99
18, 456960, Note_on_c, 10, 105, 99
18, 457088, Note_off_c, 10, 93, 0
18, 457088, Note_off_c, 10, 105, 0
18, 457088, Note_on_c, 10, 93, 93
18, 457088, Note_on_c, 10, 105, 93
18, 457088, Note_on_c, 10, 105, 90
18, 457216, Note_off_c, 10, 93, 0
18, 457216, Note_off_c, 10, 105, 0
18, 457216, Note_off_c, 10, 105, 0
18, 457216, Note_on_c, 10, 93, 99
18, 457216, Note_on_c, 10, 105, 99
18, 457216, Note_on_c, 10, 102, 88
18, 457344, Note_off_c, 10, 93, 0
18, 457344, Note_off_c, 10, 105, 0
18, 457344, Note_off_c, 10, 102, 0
18, 457344, Note_on_c, 10, 93, 95
18, 457344, Note_on_c, 10, 105, 95
18, 457344, Note_on_c, 10, 100, 92
18, 457472, Note_off_c, 10, 93, 0
18, 457472, Note_off_c, 10, 105, 0
18, 457472, Note_off_c, 10, 100, 0
18, 457472, Note_on_c, 10, 93, 97
18, 457472, Note_on_c, 10, 105, 97
18, 457472, Note_on_c, 10, 98, 91
18, 457600, Note_off_c, 10, 93, 0
18, 457600, Note_off_c, 10, 105, 0
18, 457600, Note_off_c, 10, 98, 0
18, 457600, Control_c, 10, 64, 0
18, 457600, Note_on_c, 10, 93, 95
18, 457600, Note_on_c, 10, 105, 95
18, 457600, Note_on_c, 10, 96, 87
18, 457728, Note_off_c, 10, 93, 0
18, 457728, Note_off_c, 10, 105, 0
18, 457728, Note_off_c, 10, 96, 0
18, 457728, Control_c, 10, 64, 127
18, 457728, Note_on_c, 10, 97, 75
18, 457728, Note_on_c, 10, 98, 75
18, 457728, Note_on_c, 10, 95, 93
18, 457792, Note_off_c, 10, 97, 0
18, 457792, Note_off_c, 10, 98, 0
18, 457792, Note_on_c, 10, 81, 73
18, 457856, Note_off_c, 10, 81, 0
18, 457856, Note_off_c, 10, 95, 0
18, 457856, Note_on_c, 10, 93, 120
18, 457856, Note_on_c, 10, 92, 87
18, 457920, Note_off_c, 10, 93, 0
18, 457920, Note_on_c, 10, 86, 86
18, 457984, Note_off_c, 10, 86, 0
18, 457984, Note_off_c, 10, 92, 0
18, 457984, Note_on_c, 10, 98, 120
18, 457984, Note_on_c, 10, 100, 120
18, 458048, Note_off_c, 10, 98, 0
18, 458048, Note_off_c, 10, 100, 0
18, 458048, Note_on_c, 10, 81, 77
18, 458112, Note_off_c, 10, 81, 0
18, 458112, Note_on_c, 10, 93, 123
18, 458112, Note_on_c, 10, 105, 89
18, 458176, Note_off_c, 10, 93, 0
18, 458176, Note_on_c, 10, 86, 82
18, 458240, Note_off_c, 10, 86, 0
18, 458240, Note_off_c, 10, 105, 0
18, 458240, Note_on_c, 10, 97, 122
18, 458240, Note_on_c, 10, 98, 122
18, 458240, Note_on_c, 10, 104, 94
18, 458304, Note_off_c, 10, 97, 0
18, 458304, Note_off_c, 10, 98, 0
18, 458304, Note_on_c, 10, 81, 77
18, 458368, Note_off_c, 10, 81, 0
18, 458368, Note_off_c, 10, 104, 0
18, 458368, Note_on_c, 10, 93, 121
18, 458368, Note_on_c, 10, 98, 84
18, 458432, Note_off_c, 10, 93, 0
18, 458432, Note_on_c, 10, 86, 84
18, 458496, Note_off_c, 10, 86, 0
18, 458496, Note_off_c, 10, 98, 0
18, 458496, Note_on_c, 10, 98, 125
18, 458496, Note_on_c, 10, 100, 125
18, 458496, Note_on_c, 10, 96, 86
18, 458560, Note_off_c, 10, 98, 0
18, 458560, Note_off_c, 10, 100, 0
18, 458560, Note_on_c, 10, 81, 75
18, 458624, Note_off_c, 10, 81, 0
18, 458624, Note_off_c, 10, 96, 0
18, 458624, Note_on_c, 10, 93, 119
18, 458624, Note_on_c, 10, 90, 84
18, 458688, Note_off_c, 10, 93, 0
18, 458688, Note_on_c, 10, 86, 84
18, 458752, Note_off_c, 10, 86, 0
18, 458752, Note_off_c, 10, 90, 0
18, 458752, Note_on_c, 10, 97, 119
18, 458752, Note_on_c, 10, 98, 119
18, 458752, Note_on_c, 10, 92, 102
18, 458816, Note_off_c, 10, 97, 0
18, 458816, Note_off_c, 10, 98, 0
18, 458816, Note_on_c, 10, 81, 75
18, 458880, Note_off_c, 10, 81, 0
18, 458880, Note_off_c, 10, 92, 0
18, 458880, Note_on_c, 10, 93, 118
18, 458880, Note_on_c, 10, 93, 102
18, 458944, Note_off_c, 10, 93, 0
18, 458944, Note_on_c, 10, 86, 86
18, 459008, Note_off_c, 10, 86, 0
18, 459008, Note_off_c, 10, 93, 0
18, 459008, Note_on_c, 10, 98, 126
18, 459008, Note_on_c, 10, 100, 126
18, 459008, Note_on_c, 10, 95, 104
18, 459072, Note_off_c, 10, 98, 0
18, 459072, Note_off_c, 10, 100, 0
18, 459072, Note_on_c, 10, 81, 73
18, 459136, Note_off_c, 10, 81, 0
18, 459136, Note_off_c, 10, 95, 0
18, 459136, Note_on_c, 10, 93, 123
18, 459136, Note_on_c, 10, 90, 86
18, 459200, Note_off_c, 10, 93, 0
18, 459200, Note_on_c, 10, 86, 82
18, 459264, Note_off_c, 10, 86, 0
18, 459264, Note_off_c, 10, 90, 0
18, 459264, Note_on_c, 10, 97, 119
18, 459264, Note_on_c, 10, 98, 119
18, 459328, Note_off_c, 10, 97, 0
18, 459328, Note_off_c, 10, 98, 0
18, 459328, Note_on_c, 10, 81, 77
18, 459392, Note_off_c, 10, 81, 0
18, 459392, Note_on_c, 10, 93, 122
18, 459456, Note_off_c, 10, 93, 0
18, 459456, Note_on_c, 10, 86, 88
18, 459520, Note_off_c, 10, 86, 0
18, 459520, Note_on_c, 10, 98, 124
18, 459520, Note_on_c, 10, 100, 124
18, 459520, Note_on_c, 10, 105, 91
18, 459584, Note_off_c, 10, 98, 0
18, 459584, Note_off_c, 10, 100, 0
18, 459584, Note_on_c, 10, 81, 76
18, 459648, Note_off_c, 10, 81, 0
18, 459648, Note_off_c, 10, 105, 0
18, 459648, Note_on_c, 10, 93, 120
18, 459648, Note_on_c, 10, 100, 83
18, 459712, Note_off_c, 10, 93, 0
18, 459712, Note_on_c, 10, 86, 83
18, 459776, Note_off_c, 10, 86, 0
18, 459776, Note_off_c, 10, 100, 0
18, 459776, Note_on_c, 10, 97, 121
18, 459776, Note_on_c, 10, 98, 121
18, 459776, Note_on_c, 10, 102, 104
18, 459840, Note_off_c, 10, 97, 0
18, 459840, Note_off_c, 10, 98, 0
18, 459840, Note_on_c, 10, 81, 72
18, 459904, Note_off_c, 10, 81, 0
18, 459904, Note_off_c, 10, 102, 0
18, 459904, Note_on_c, 10, 93, 125
18, 459904, Note_on_c, 10, 96, 79
18, 459968, Note_off_c, 10, 93, 0
18, 460032, Note_off_c, 10, 96, 0
18, 460032, Note_on_c, 10, 97, 83
18, 460032, Note_on_c, 10, 98, 83
18, 460032, Note_on_c, 10, 93, 88
18, 460096, Note_off_c, 10, 97, 0
18, 460096, Note_off_c, 10, 98, 0
18, 460096, Note_on_c, 10, 81, 71
18, 460160, Note_off_c, 10, 81, 0
18, 460160, Note_off_c, 10, 93, 0
18, 460160, Note_on_c, 10, 93, 118
18, 460160, Note_on_c, 10, 92, 97
18, 460224, Note_off_c, 10, 93, 0
18, 460224, Note_on_c, 10, 86, 84
18, 460288, Note_off_c, 10, 86, 0
18, 460288, Note_off_c, 10, 92, 0
18, 460288, Note_on_c, 10, 98, 124
18, 460288, Note_on_c, 10, 100, 124
18, 460288, Note_on_c, 10, 98, 113
18, 460352, Note_off_c, 10, 98, 0
18, 460352, Note_off_c, 10, 100, 0
18, 460352, Note_on_c, 10, 81, 78
18, 460416, Note_off_c, 10, 81, 0
18, 460416, Note_off_c, 10, 98, 0
18, 460416, Note_on_c, 10, 93, 122
18, 460416, Note_on_c, 10, 96, 95
18, 460480, Note_off_c, 10, 93, 0
18, 460480, Note_on_c, 10, 86, 89
18, 460544, Note_off_c, 10, 86, 0
18, 460544, Note_off_c, 10, 96, 0
18, 460544, Note_on_c, 10, 97, 123
18, 460544, Note_on_c, 10, 98, 123
18, 460544, Note_on_c, 10, 100, 107
18, 460608, Note_off_c, 10, 97, 0
18, 460608, Note_off_c, 10, 98, 0
18, 460608, Note_on_c, 10, 81, 72
18, 460672, Note_off_c, 10, 81, 0
18, 460672, Note_off_c, 10, 100, 0
18, 460672, Note_on_c, 10, 93, 124
18, 460736, Note_off_c, 10, 93, 0
18, 460736, Note_on_c, 10, 86, 83
18, 460800, Note_off_c, 10, 86, 0
18, 460800, Note_on_c, 10, 98, 119
18, 460800, Note_on_c, 10, 100, 119
18, 460800, Note_on_c, 10, 104, 89
18, 460864, Note_off_c, 10, 98, 0
18, 460864, Note_off_c, 10, 100, 0
18, 460864, Note_on_c, 10, 81, 77
18, 460928, Note_off_c, 10, 81, 0
18, 460928, Note_off_c, 10, 104, 0
18, 460928, Note_on_c, 10, 93, 125
18, 460928, Note_on_c, 10, 101, 90
18, 460992, Note_off_c, 10, 93, 0
18, 460992, Note_on_c, 10, 86, 87
18, 461056, Note_off_c, 10, 86, 0
18, 461056, Note_off_c, 10, 101, 0
18, 461056, Note_on_c, 10, 97, 123
18, 461056, Note_on_c, 10, 98, 123
18, 461056, Note_on_c, 10, 99, 92
18, 461120, Note_off_c, 10, 97, 0
18, 461120, Note_off_c, 10, 98, 0
18, 461120, Note_on_c, 10, 81, 76
18, 461184, Note_off_c, 10, 81, 0
18, 461184, Note_off_c, 10, 99, 0
18, 461184, Note_on_c, 10, 93, 125
18, 461184, Note_on_c, 10, 98, 97
18, 461248, Note_off_c, 10, 93, 0
18, 461248, Note_on_c, 10, 86, 84
18, 461312, Note_off_c, 10, 86, 0
18, 461312, Note_off_c, 10, 98, 0
18, 461312, Note_on_c, 10, 98, 120
18, 461312, Note_on_c, 10, 100, 120
18, 461312, Note_on_c, 10, 96, 93
18, 461376, Note_off_c, 10, 98, 0
18, 461376, Note_off_c, 10, 100, 0
18, 461376, Note_on_c, 10, 81, 74
18, 461440, Note_off_c, 10, 81, 0
18, 461440, Note_off_c, 10, 96, 0
18, 461440, Note_on_c, 10, 93, 116
18, 461440, Note_on_c, 10, 95, 92
18, 461504, Note_off_c, 10, 93, 0
18, 461504, Note_on_c, 10, 86, 83
18, 461568, Note_off_c, 10, 86, 0
18, 461568, Note_off_c, 10, 95, 0
18, 461568, Note_on_c, 10, 97, 122
18, 461568, Note_on_c, 10, 98, 122
18, 461568, Note_on_c, 10, 92, 91
18, 461632, Note_off_c, 10, 97, 0
18, 461632, Note_off_c, 10, 98, 0
18, 461632, Note_on_c, 10, 81, 76
18, 461696, Note_off_c, 10, 81, 0
18, 461696, Note_on_c, 10, 93, 123
18, 461760, Note_off_c, 10, 93, 0
18, 461760, Note_on_c, 10, 86, 85
18, 461824, Note_off_c, 10, 86, 0
18, 461824, Note_off_c, 10, 92, 0
18, 461824, Note_on_c, 10, 98, 123
18, 461824, Note_on_c, 10, 100, 123
18, 461824, Note_on_c, 10, 105, 124
18, 461888, Note_off_c, 10, 98, 0
18, 461888, Note_off_c, 10, 100, 0
18, 461888, Note_on_c, 10, 81, 78
18, 461952, Note_off_c, 10, 81, 0
18, 461952, Note_off_c, 10, 105, 0
18, 461952, Note_on_c, 10, 93, 117
18, 461952, Note_on_c, 10, 104, 98
18, 462016, Note_off_c, 10, 93, 0
18, 462016, Note_on_c, 10, 86, 84
18, 462080, Note_off_c, 10, 86, 0
18, 462080, Note_off_c, 10, 104, 0
18, 462080, Note_on_c, 10, 97, 120
18, 462080, Note_on_c, 10, 98, 120
18, 462080, Note_on_c, 10, 101, 93
18, 462144, Note_off_c, 10, 97, 0
18, 462144, Note_off_c, 10, 98, 0
18, 462144, Note_on_c, 10, 81, 73
18, 462208, Note_off_c, 10, 81, 0
18, 462208, Note_off_c, 10, 101, 0
18, 462208, Note_on_c, 10, 93, 119
18, 462208, Note_on_c, 10, 100, 88
18, 462272, Note_off_c, 10, 93, 0
18, 462272, Note_on_c, 10, 86, 85
18, 462336, Note_off_c, 10, 86, 0
18, 462336, Note_off_c, 10, 100, 0
18, 462336, Note_on_c, 10, 98, 123
18, 462336, Note_on_c, 10, 100, 123
18, 462336, Note_on_c, 10, 98, 91
18, 462400, Note_off_c, 10, 98, 0
18, 462400, Note_off_c, 10, 100, 0
18, 462400, Note_on_c, 10, 81, 72
18, 462464, Note_off_c, 10, 81, 0
18, 462464, Note_off_c, 10, 98, 0
18, 462464, Note_on_c, 10, 93, 118
18, 462464, Note_on_c, 10, 97, 91
18, 462528, Note_off_c, 10, 93, 0
18, 462528, Note_on_c, 10, 86, 79
18, 462592, Note_off_c, 10, 86, 0
18, 462592, Note_off_c, 10, 97, 0
18, 462592, Note_on_c, 10, 97, 124
18, 462592, Note_on_c, 10, 98, 124
18, 462592, Note_on_c, 10, 95, 90
18, 462656, Note_off_c, 10, 97, 0
18, 462656, Note_off_c, 10, 98, 0
18, 462656, Note_on_c, 10, 81, 76
18, 462720, Note_off_c, 10, 81, 0
18, 462720, Note_off_c, 10, 95, 0
18, 462720, Note_on_c, 10, 93, 120
18, 462720, Note_on_c, 10, 92, 94
18, 462784, Note_off_c, 10, 93, 0
18, 462784, Note_on_c, 10, 86, 82
18, 462848, Note_off_c, 10, 86, 0
18, 462848, Note_off_c, 10, 92, 0
18, 462848, Note_on_c, 10, 98, 120
18, 462848, Note_on_c, 10, 100, 120
18, 462848, Note_on_c, 10, 102, 122
18, 462912, Note_off_c, 10, 98, 0
18, 462912, Note_off_c, 10, 100, 0
18, 462912, Note_on_c, 10, 81, 77
18, 462976, Note_off_c, 10, 81, 0
18, 462976, Note_off_c, 10, 102, 0
18, 462976, Note_on_c, 10, 93, 116
18, 462976, Note_on_c, 10, 99, 93
18, 463040, Note_off_c, 10, 93, 0
18, 463040, Note_on_c, 10, 86, 85
18, 463104, Note_off_c, 10, 86, 0
18, 463104, Note_off_c, 10, 99, 0
18, 463104, Note_on_c, 10, 97, 124
18, 463104, Note_on_c, 10, 98, 124
18, 463104, Note_on_c, 10, 98, 92
18, 463168, Note_off_c, 10, 97, 0
18, 463168, Note_off_c, 10, 98, 0
18, 463168, Note_on_c, 10, 81, 77
18, 463232, Note_off_c, 10, 81, 0
18, 463232, Note_off_c, 10, 98, 0
18, 463232, Note_on_c, 10, 93, 126
18, 463232, Note_on_c, 10, 96, 97
18, 463296, Note_off_c, 10, 93, 0
18, 463296, Note_on_c, 10, 86, 88
18, 463360, Note_off_c, 10, 86, 0
18, 463360, Note_off_c, 10, 96, 0
18, 463360, Note_on_c, 10, 98, 125
18, 463360, Note_on_c, 10, 100, 125
18, 463360, Note_on_c, 10, 95, 94
18, 463424, Note_off_c, 10, 98, 0
18, 463424, Note_off_c, 10, 100, 0
18, 463424, Note_on_c, 10, 81, 78
18, 463488, Note_off_c, 10, 81, 0
18, 463488, Note_off_c, 10, 95, 0
18, 463488, Note_on_c, 10, 93, 119
18, 463488, Note_on_c, 10, 92, 87
18, 463552, Note_off_c, 10, 93, 0
18, 463552, Note_on_c, 10, 86, 84
18, 463616, Note_off_c, 10, 86, 0
18, 463616, Note_off_c, 10, 92, 0
18, 463616, Note_on_c, 10, 97, 127
18, 463616, Note_on_c, 10, 98, 127
18, 463616, Note_on_c, 10, 90, 89
18, 463680, Note_off_c, 10, 97, 0
18, 463680, Note_off_c, 10, 98, 0
18, 463680, Note_on_c, 10, 81, 77
18, 463744, Note_off_c, 10, 81, 0
18, 463744, Note_off_c, 10, 90, 0
18, 463744, Note_on_c, 10, 93, 117
18, 463744, Note_on_c, 10, 88, 92
18, 463808, Note_off_c, 10, 93, 0
18, 463808, Note_on_c, 10, 86, 86
18, 463872, Note_off_c, 10, 86, 0
18, 463872, Note_off_c, 10, 88, 0
18, 463872, Note_on_c, 10, 98, 123
18, 463872, Note_on_c, 10, 100, 123
18, 463936, Note_off_c, 10, 98, 0
18, 463936, Note_off_c, 10, 100, 0
18, 463936, Note_on_c, 10, 81, 73
18, 464000, Note_off_c, 10, 81, 0
18, 464000, Note_on_c, 10, 93, 119
18, 464000, Note_on_c, 10, 96, 87
18, 464064, Note_off_c, 10, 93, 0
18, 464064, Note_on_c, 10, 86, 84
18, 464128, Note_off_c, 10, 86, 0
18, 464128, Note_off_c, 10, 96, 0
18, 464128, Note_on_c, 10, 97, 124
18, 464128, Note_on_c, 10, 98, 124
18, 464128, Note_on_c, 10, 98, 109
18, 464192, Note_off_c, 10, 97, 0
18, 464192, Note_off_c, 10, 98, 0
18, 464192, Note_on_c, 10, 81, 75
18, 464256, Note_off_c, 10, 81, 0
18, 464256, Note_off_c, 10, 98, 0
18, 464256, Note_on_c, 10, 93, 118
18, 464256, Note_on_c, 10, 92, 83
18, 464320, Note_off_c, 10, 93, 0
18, 464320, Note_on_c, 10, 86, 86
18, 464384, Note_off_c, 10, 86, 0
18, 464384, Note_off_c, 10, 92, 0
18, 464384, Note_on_c, 10, 98, 124
18, 464384, Note_on_c, 10, 100, 124
18, 464384, Note_on_c, 10, 95, 107
18, 464448, Note_off_c, 10, 98, 0
18, 464448, Note_off_c, 10, 100, 0
18, 464448, Note_on_c, 10, 81, 78
18, 464512, Note_off_c, 10, 81, 0
18, 464512, Note_off_c, 10, 95, 0
18, 464512, Note_on_c, 10, 93, 124
18, 464512, Note_on_c, 10, 90, 78
18, 464576, Note_off_c, 10, 93, 0
18, 464576, Note_on_c, 10, 86, 87
18, 464640, Note_off_c, 10, 86, 0
18, 464640, Note_off_c, 10, 90, 0
18, 464640, Note_on_c, 10, 97, 123
18, 464640, Note_on_c, 10, 98, 123
18, 464640, Note_on_c, 10, 90, 94
18, 464704, Note_off_c, 10, 97, 0
18, 464704, Note_off_c, 10, 98, 0
18, 464704, Note_on_c, 10, 81, 80
18, 464768, Note_off_c, 10, 81, 0
18, 464768, Note_off_c, 10, 90, 0
18, 464768, Note_on_c, 10, 93, 118
18, 464768, Note_on_c, 10, 105, 124
18, 464832, Note_off_c, 10, 93, 0
18, 464832, Note_on_c, 10, 86, 87
18, 464896, Note_off_c, 10, 86, 0
18, 464896, Note_off_c, 10, 105, 0
18, 464896, Note_on_c, 10, 98, 122
18, 464896, Note_on_c, 10, 100, 122
18, 464896, Note_on_c, 10, 104, 99
18, 464960, Note_off_c, 10, 98, 0
18, 464960, Note_off_c, 10, 100, 0
18, 464960, Note_on_c, 10, 81, 75
18, 465024, Note_off_c, 10, 81, 0
18, 465024, Note_off_c, 10, 104, 0
18, 465024, Note_on_c, 10, 93, 122
18, 465024, Note_on_c, 10, 102, 92
18, 465088, Note_off_c, 10, 93, 0
18, 465088, Note_on_c, 10, 86, 83
18, 465152, Note_off_c, 10, 86, 0
18, 465152, Note_off_c, 10, 102, 0
18, 465152, Note_on_c, 10, 97, 123
18, 465152, Note_on_c, 10, 98, 123
18, 465152, Note_on_c, 10, 99, 84
18, 465216, Note_off_c, 10, 97, 0
18, 465216, Note_off_c, 10, 98, 0
18, 465216, Note_on_c, 10, 81, 74
18, 465280, Note_off_c, 10, 81, 0
18, 465280, Note_off_c, 10, 99, 0
18, 465280, Note_on_c, 10, 93, 121
18, 465280, Note_on_c, 10, 98, 92
18, 465344, Note_off_c, 10, 93, 0
18, 465344, Note_on_c, 10, 86, 84
18, 465408, Note_off_c, 10, 86, 0
18, 465408, Note_off_c, 10, 98, 0
18, 465408, Note_on_c, 10, 98, 123
18, 465408, Note_on_c, 10, 100, 123
18, 465408, Note_on_c, 10, 97, 94
18, 465472, Note_off_c, 10, 98, 0
18, 465472, Note_off_c, 10, 100, 0
18, 465472, Note_on_c, 10, 81, 78
18, 465536, Note_off_c, 10, 81, 0
18, 465536, Note_off_c, 10, 97, 0
18, 465536, Note_on_c, 10, 93, 118
18, 465536, Note_on_c, 10, 96, 100
18, 465600, Note_off_c, 10, 93, 0
18, 465600, Note_on_c, 10, 86, 85
18, 465664, Note_off_c, 10, 86, 0
18, 465664, Note_off_c, 10, 96, 0
18, 465664, Note_on_c, 10, 97, 125
18, 465664, Note_on_c, 10, 98, 125
18, 465664, Note_on_c, 10, 92, 87
18, 465728, Note_off_c, 10, 97, 0
18, 465728, Note_off_c, 10, 98, 0
18, 465728, Note_on_c, 10, 81, 76
18, 465792, Note_off_c, 10, 81, 0
18, 465792, Note_off_c, 10, 92, 0
18, 465792, Note_on_c, 10, 93, 122
18, 465792, Note_on_c, 10, 102, 118
18, 465856, Note_off_c, 10, 93, 0
18, 465856, Note_on_c, 10, 86, 82
18, 465920, Note_off_c, 10, 86, 0
18, 465920, Note_off_c, 10, 102, 0
18, 465920, Note_on_c, 10, 98, 123
18, 465920, Note_on_c, 10, 100, 123
18, 465920, Note_on_c, 10, 99, 90
18, 465984, Note_off_c, 10, 98, 0
18, 465984, Note_off_c, 10, 100, 0
18, 465984, Note_on_c, 10, 81, 73
18, 466048, Note_off_c, 10, 81, 0
18, 466048, Note_off_c, 10, 99, 0
18, 466048, Note_on_c, 10, 93, 119
18, 466048, Note_on_c, 10, 98, 94
18, 466112, Note_off_c, 10, 93, 0
18, 466112, Note_on_c, 10, 86, 85
18, 466176, Note_off_c, 10, 86, 0
18, 466176, Note_off_c, 10, 98, 0
18, 466176, Note_on_c, 10, 97, 121
18, 466176, Note_on_c, 10, 98, 121
18, 466176, Note_on_c, 10, 96, 89
18, 466240, Note_off_c, 10, 97, 0
18, 466240, Note_off_c, 10, 98, 0
18, 466240, Note_on_c, 10, 81, 75
18, 466304, Note_off_c, 10, 81, 0
18, 466304, Note_off_c, 10, 96, 0
18, 466304, Note_on_c, 10, 93, 121
18, 466304, Note_on_c, 10, 95, 92
18, 466368, Note_off_c, 10, 93, 0
18, 466368, Note_on_c, 10, 86, 85
18, 466432, Note_off_c, 10, 86, 0
18, 466432, Note_off_c, 10, 95, 0
18, 466432, Note_on_c, 10, 98, 119
18, 466432, Note_on_c, 10, 100, 119
18, 466432, Note_on_c, 10, 92, 88
18, 466496, Note_off_c, 10, 98, 0
18, 466496, Note_off_c, 10, 100, 0
18, 466496, Note_on_c, 10, 81, 74
18, 466560, Note_off_c, 10, 81, 0
18, 466560, Note_off_c, 10, 92, 0
18, 466560, Note_on_c, 10, 93, 119
18, 466560, Note_on_c, 10, 90, 84
18, 466624, Note_off_c, 10, 93, 0
18, 466624, Note_on_c, 10, 86, 88
18, 466688, Note_off_c, 10, 86, 0
18, 466688, Note_off_c, 10, 90, 0
18, 466688, Note_on_c, 10, 97, 127
18, 466688, Note_on_c, 10, 98, 127
18, 466688, Note_on_c, 10, 102, 118
18, 466752, Note_off_c, 10, 97, 0
18, 466752, Note_off_c, 10, 98, 0
18, 466752, Note_on_c, 10, 81, 76
18, 466816, Note_off_c, 10, 81, 0
18, 466816, Note_off_c, 10, 102, 0
18, 466816, Note_on_c, 10, 93, 122
18, 466816, Note_on_c, 10, 99, 95
18, 466880, Note_off_c, 10, 93, 0
18, 466880, Note_on_c, 10, 86, 88
18, 466944, Note_off_c, 10, 86, 0
18, 466944, Note_off_c, 10, 99, 0
18, 466944, Note_on_c, 10, 98, 126
18, 466944, Note_on_c, 10, 100, 126
18, 466944, Note_on_c, 10, 98, 91
18, 467008, Note_off_c, 10, 98, 0
18, 467008, Note_off_c, 10, 100, 0
18, 467008, Note_on_c, 10, 81, 77
18, 467072, Note_off_c, 10, 81, 0
18, 467072, Note_off_c, 10, 98, 0
18, 467072, Note_on_c, 10, 93, 121
18, 467072, Note_on_c, 10, 96, 91
18, 467136, Note_off_c, 10, 93, 0
18, 467136, Note_on_c, 10, 86, 83
18, 467200, Note_off_c, 10, 86, 0
18, 467200, Note_off_c, 10, 96, 0
18, 467200, Note_on_c, 10, 97, 121
18, 467200, Note_on_c, 10, 98, 121
18, 467200, Note_on_c, 10, 95, 91
18, 467264, Note_off_c, 10, 97, 0
18, 467264, Note_off_c, 10, 98, 0
18, 467264, Note_on_c, 10, 81, 75
18, 467328, Note_off_c, 10, 81, 0
18, 467328, Note_off_c, 10, 95, 0
18, 467328, Note_on_c, 10, 93, 123
18, 467328, Note_on_c, 10, 92, 93
18, 467392, Note_off_c, 10, 93, 0
18, 467392, Note_on_c, 10, 86, 87
18, 467456, Note_off_c, 10, 86, 0
18, 467456, Note_off_c, 10, 92, 0
18, 467456, Note_on_c, 10, 98, 124
18, 467456, Note_on_c, 10, 100, 124
18, 467456, Note_on_c, 10, 99, 107
18, 467520, Note_off_c, 10, 98, 0
18, 467520, Note_off_c, 10, 100, 0
18, 467520, Note_on_c, 10, 81, 80
18, 467584, Note_off_c, 10, 81, 0
18, 467584, Note_off_c, 10, 99, 0
18, 467584, Note_on_c, 10, 93, 121
18, 467584, Note_on_c, 10, 98, 95
18, 467648, Note_off_c, 10, 93, 0
18, 467648, Note_on_c, 10, 86, 82
18, 467712, Note_off_c, 10, 86, 0
18, 467712, Note_off_c, 10, 98, 0
18, 467712, Note_on_c, 10, 97, 120
18, 467712, Note_on_c, 10, 98, 120
18, 467712, Note_on_c, 10, 96, 95
18, 467776, Note_off_c, 10, 97, 0
18, 467776, Note_off_c, 10, 98, 0
18, 467776, Note_on_c, 10, 81, 75
18, 467840, Note_off_c, 10, 81, 0
18, 467840, Note_off_c, 10, 96, 0
18, 467840, Note_on_c, 10, 93, 120
18, 467840, Note_on_c, 10, 95, 92
18, 467904, Note_off_c, 10, 93, 0
18, 467904, Control_c, 10, 64, 0
18, 467904, Note_on_c, 10, 86, 86
18, 467968, Note_off_c, 10, 86, 0
18, 467968, Note_off_c, 10, 95, 0
18, 467969, End_track
19, 0, Start_track
19, 0, Program_c, 1, 24
19, 0, Control_c, 1, 121, 0
19, 0, Control_c, 1, 64, 0
19, 0, Control_c, 1, 91, 48
19, 0, Control_c, 1, 10, 64
19, 0, Control_c, 1, 7, 100
19, 0, Title_t, "Guitar"
19, 0, Note_on_c, 1, 56, 55
19, 0, Note_on_c, 1, 60, 55
19, 0, Note_on_c, 1, 63, 55
19, 128, Note_off_c, 1, 56, 0
19, 128, Note_off_c, 1, 60, 0
19, 128, Note_off_c, 1, 63, 0
19, 128, Note_on_c, 1, 56, 64
19, 128, Note_on_c, 1, 60, 64
19, 128, Note_on_c, 1, 63, 64
19, 256, Note_off_c, 1, 56, 0
19, 256, Note_off_c, 1, 60, 0
19, 256, Note_off_c, 1, 63, 0
19, 256, Note_on_c, 1, 56, 58
19, 256, Note_on_c, 1, 60, 58
19, 256, Note_on_c, 1, 63, 58
19, 384, Note_off_c, 1, 56, 0
19, 384, Note_off_c, 1, 60, 0
19, 384, Note_off_c, 1, 63, 0
19, 384, Note_on_c, 1, 56, 65
19, 384, Note_on_c, 1, 60, 65
19, 384, Note_on_c, 1, 63, 65
19, 512, Note_off_c, 1, 56, 0
19, 512, Note_off_c, 1, 60, 0
19, 512, Note_off_c, 1, 63, 0
19, 512, Note_on_c, 1, 56, 62
19, 512, Note_on_c, 1, 60, 62
19, 512, Note_on_c, 1, 63, 62
19, 640, Note_off_c, 1, 56, 0
19, 640, Note_off_c, 1, 60, 0
19, 640, Note_off_c, 1, 63, 0
19, 640, Note_on_c, 1, 56, 62
19, 640, Note_on_c, 1, 60, 62
19, 640, Note_on_c, 1, 63, 62
19, 768, Note_off_c, 1, 56, 0
19, 768, Note_off_c, 1, 60, 0
19, 768, Note_off_c, 1, 63, 0
19, 768, Note_on_c, 1, 56, 63
19, 768, Note_on_c, 1, 60, 63
19, 768, Note_on_c, 1, 63, 63
19, 896, Note_off_c, 1, 56, 0
19, 896, Note_off_c, 1, 60, 0
19, 896, Note_off_c, 1, 63, 0
19, 896, Note_on_c, 1, 56, 60
19, 896, Note_on_c, 1, 60, 60
19, 896, Note_on_c, 1, 63, 60
19, 1024, Note_off_c, 1, 56, 0
19, 1024, Note_off_c, 1, 60, 0
19, 1024, Note_off_c, 1, 63, 0
19, 1024, Note_on_c, 1, 56, 55
19, 1024, Note_on_c, 1, 60, 55
19, 1024, Note_on_c, 1, 63, 55
19, 1126, Note_off_c, 1, 56, 0
19, 1126, Note_off_c, 1, 60, 0
19, 1126, Note_off_c, 1, 63, 0
19, 1152, Note_on_c, 1, 56, 55
19, 1152, Note_on_c, 1, 60, 55
19, 1152, Note_on_c, 1, 63, 55
19, 1254, Note_off_c, 1, 56, 0
19, 1254, Note_off_c, 1, 60, 0
19, 1254, Note_off_c, 1, 63, 0
19, 1280, Note_on_c, 1, 56, 55
19, 1280, Note_on_c, 1, 60, 55
19, 1280, Note_on_c, 1, 63, 55
19, 1382, Note_off_c, 1, 56, 0
19, 1382, Note_off_c, 1, 60, 0
19, 1382, Note_off_c, 1, 63, 0
19, 1408, Note_on_c, 1, 56, 55
19, 1408, Note_on_c, 1, 60, 55
19, 1408, Note_on_c, 1, 63, 55
19, 1510, Note_off_c, 1, 56, 0
19, 1510, Note_off_c, 1, 60, 0
19, 1510, Note_off_c, 1, 63, 0
19, 1536, Note_on_c, 1, 56, 59
19, 1536, Note_on_c, 1, 60, 59
19, 1536, Note_on_c, 1, 63, 59
19, 1664, Note_off_c, 1, 56, 0
19, 1664, Note_off_c, 1, 60, 0
19, 1664, Note_off_c, 1, 63, 0
19, 1664, Note_on_c, 1, 56, 64
19, 1664, Note_on_c, 1, 60, 64
19, 1664, Note_on_c, 1, 65, 64
19, 1766, Note_off_c, 1, 56, 0
19, 1766, Note_off_c, 1, 60, 0
19, 1766, Note_off_c, 1, 65, 0
19, 1792, Note_on_c, 1, 56, 64
19, 1792, Note_on_c, 1, 60, 64
19, 1792, Note_on_c, 1, 65, 64
19, 1894, Note_off_c, 1, 56, 0
19, 1894, Note_off_c, 1, 60, 0
19, 1894, Note_off_c, 1, 65, 0
19, 1920, Note_on_c, 1, 56, 64
19, 1920, Note_on_c, 1, 60, 64
19, 1920, Note_on_c, 1, 65, 64
19, 2022, Note_off_c, 1, 56, 0
19, 2022, Note_off_c, 1, 60, 0
19, 2022, Note_off_c, 1, 65, 0
19, 2048, Note_on_c, 1, 56, 58
19, 2048, Note_on_c, 1, 60, 58
19, 2048, Note_on_c, 1, 65, 58
19, 2150, Note_off_c, 1, 56, 0
19, 2150, Note_off_c, 1, 60, 0
19, 2150, Note_off_c, 1, 65, 0
19, 2176, Note_on_c, 1, 56, 58
19, 2176, Note_on_c, 1, 60, 58
19, 2176, Note_on_c, 1, 65, 58
19, 2278, Note_off_c, 1, 56, 0
19, 2278, Note_off_c, 1, 60, 0
19, 2278, Note_off_c, 1, 65, 0
19, 2304, Note_on_c, 1, 56, 58
19, 2304, Note_on_c, 1, 60, 58
19, 2304, Note_on_c, 1, 65, 58
19, 2406, Note_off_c, 1, 56, 0
19, 2406, Note_off_c, 1, 60, 0
19, 2406, Note_off_c, 1, 65, 0
19, 2432, Note_on_c, 1, 57, 64
19, 2432, Note_on_c, 1, 60, 64
19, 2432, Note_on_c, 1, 65, 64
19, 2560, Note_off_c, 1, 57, 0
19, 2560, Note_off_c, 1, 60, 0
19, 2560, Note_off_c, 1, 65, 0
19, 2560, Note_on_c, 1, 57, 61
19, 2560, Note_on_c, 1, 60, 61
19, 2560, Note_on_c, 1, 65, 61
19, 2662, Note_off_c, 1, 57, 0
19, 2662, Note_off_c, 1, 60, 0
19, 2662, Note_off_c, 1, 65, 0
19, 2688, Note_on_c, 1, 57, 61
19, 2688, Note_on_c, 1, 60, 61
19, 2688, Note_on_c, 1, 65, 61
19, 2790, Note_off_c, 1, 57, 0
19, 2790, Note_off_c, 1, 60, 0
19, 2790, Note_off_c, 1, 65, 0
19, 2816, Note_on_c, 1, 57, 61
19, 2816, Note_on_c, 1, 60, 61
19, 2816, Note_on_c, 1, 65, 61
19, 2918, Note_off_c, 1, 57, 0
19, 2918, Note_off_c, 1, 60, 0
19, 2918, Note_off_c, 1, 65, 0
19, 2944, Note_on_c, 1, 57, 61
19, 2944, Note_on_c, 1, 60, 61
19, 2944, Note_on_c, 1, 65, 61
19, 3046, Note_off_c, 1, 57, 0
19, 3046, Note_off_c, 1, 60, 0
19, 3046, Note_off_c, 1, 65, 0
19, 3072, Note_on_c, 1, 57, 61
19, 3072, Note_on_c, 1, 60, 61
19, 3072, Note_on_c, 1, 65, 61
19, 3174, Note_off_c, 1, 57, 0
19, 3174, Note_off_c, 1, 60, 0
19, 3174, Note_off_c, 1, 65, 0
19, 3200, Note_on_c, 1, 57, 61
19, 3200, Note_on_c, 1, 60, 61
19, 3200, Note_on_c, 1, 65, 61
19, 3302, Note_off_c, 1, 57, 0
19, 3302, Note_off_c, 1, 60, 0
19, 3302, Note_off_c, 1, 65, 0
19, 3328, Note_on_c, 1, 57, 62
19, 3328, Note_on_c, 1, 62, 62
19, 3328, Note_on_c, 1, 65, 62
19, 3430, Note_off_c, 1, 57, 0
19, 3430, Note_off_c, 1, 62, 0
19, 3430, Note_off_c, 1, 65, 0
19, 3456, Note_on_c, 1, 57, 62
19, 3456, Note_on_c, 1, 62, 62
19, 3456, Note_on_c, 1, 65, 62
19, 3558, Note_off_c, 1, 57, 0
19, 3558, Note_off_c, 1, 62, 0
19, 3558, Note_off_c, 1, 65, 0
19, 3584, Note_on_c, 1, 57, 62
19, 3584, Note_on_c, 1, 62, 62
19, 3584, Note_on_c, 1, 65, 62
19, 3686, Note_off_c, 1, 57, 0
19, 3686, Note_off_c, 1, 62, 0
19, 3686, Note_off_c, 1, 65, 0
19, 3712, Note_on_c, 1, 57, 62
19, 3712, Note_on_c, 1, 62, 62
19, 3712, Note_on_c, 1, 65, 62
19, 3814, Note_off_c, 1, 57, 0
19, 3814, Note_off_c, 1, 62, 0
19, 3814, Note_off_c, 1, 65, 0
19, 3840, Note_on_c, 1, 57, 62
19, 3840, Note_on_c, 1, 62, 62
19, 3840, Note_on_c, 1, 65, 62
19, 3942, Note_off_c, 1, 57, 0
19, 3942, Note_off_c, 1, 62, 0
19, 3942, Note_off_c, 1, 65, 0
19, 3968, Note_on_c, 1, 57, 62
19, 3968, Note_on_c, 1, 62, 62
19, 3968, Note_on_c, 1, 65, 62
19, 4070, Note_off_c, 1, 57, 0
19, 4070, Note_off_c, 1, 62, 0
19, 4070, Note_off_c, 1, 65, 0
19, 4096, Note_on_c, 1, 57, 61
19, 4096, Note_on_c, 1, 62, 61
19, 4096, Note_on_c, 1, 65, 61
19, 4198, Note_off_c, 1, 57, 0
19, 4198, Note_off_c, 1, 62, 0
19, 4198, Note_off_c, 1, 65, 0
19, 4224, Note_on_c, 1, 57, 61
19, 4224, Note_on_c, 1, 62, 61
19, 4224, Note_on_c, 1, 65, 61
19, 4326, Note_off_c, 1, 57, 0
19, 4326, Note_off_c, 1, 62, 0
19, 4326, Note_off_c, 1, 65, 0
19, 4352, Note_on_c, 1, 57, 61
19, 4352, Note_on_c, 1, 62, 61
19, 4352, Note_on_c, 1, 65, 61
19, 4454, Note_off_c, 1, 57, 0
19, 4454, Note_off_c, 1, 62, 0
19, 4454, Note_off_c, 1, 65, 0
19, 4480, Note_on_c, 1, 57, 64
19, 4480, Note_on_c, 1, 61, 64
19, 4480, Note_on_c, 1, 66, 64
19, 4608, Note_off_c, 1, 57, 0
19, 4608, Note_off_c, 1, 61, 0
19, 4608, Note_off_c, 1, 66, 0
19, 4608, Note_on_c, 1, 57, 60
19, 4608, Note_on_c, 1, 61, 60
19, 4608, Note_on_c, 1, 66, 60
19, 4710, Note_off_c, 1, 57, 0
19, 4710, Note_off_c, 1, 61, 0
19, 4710, Note_off_c, 1, 66, 0
19, 4736, Note_on_c, 1, 57, 60
19, 4736, Note_on_c, 1, 61, 60
19, 4736, Note_on_c, 1, 66, 60
19, 4838, Note_off_c, 1, 57, 0
19, 4838, Note_off_c, 1, 61, 0
19, 4838, Note_off_c, 1, 66, 0
19, 4864, Note_on_c, 1, 57, 60
19, 4864, Note_on_c, 1, 61, 60
19, 4864, Note_on_c, 1, 66, 60
19, 4966, Note_off_c, 1, 57, 0
19, 4966, Note_off_c, 1, 61, 0
19, 4966, Note_off_c, 1, 66, 0
19, 4992, Note_on_c, 1, 57, 60
19, 4992, Note_on_c, 1, 61, 60
19, 4992, Note_on_c, 1, 66, 60
19, 5094, Note_off_c, 1, 57, 0
19, 5094, Note_off_c, 1, 61, 0
19, 5094, Note_off_c, 1, 66, 0
19, 5120, Note_on_c, 1, 57, 65
19, 5120, Note_on_c, 1, 61, 65
19, 5120, Note_on_c, 1, 66, 65
19, 5248, Note_off_c, 1, 57, 0
19, 5248, Note_off_c, 1, 61, 0
19, 5248, Note_off_c, 1, 66, 0
19, 5248, Note_on_c, 1, 58, 57
19, 5248, Note_on_c, 1, 61, 57
19, 5248, Note_on_c, 1, 65, 57
19, 5350, Note_off_c, 1, 58, 0
19, 5350, Note_off_c, 1, 61, 0
19, 5350, Note_off_c, 1, 65, 0
19, 5376, Note_on_c, 1, 58, 57
19, 5376, Note_on_c, 1, 61, 57
19, 5376, Note_on_c, 1, 65, 57
19, 5478, Note_off_c, 1, 58, 0
19, 5478, Note_off_c, 1, 61, 0
19, 5478, Note_off_c, 1, 65, 0
19, 5504, Note_on_c, 1, 58, 57
19, 5504, Note_on_c, 1, 61, 57
19, 5504, Note_on_c, 1, 65, 57
19, 5606, Note_off_c, 1, 58, 0
19, 5606, Note_off_c, 1, 61, 0
19, 5606, Note_off_c, 1, 65, 0
19, 5632, Note_on_c, 1, 58, 64
19, 5632, Note_on_c, 1, 61, 64
19, 5632, Note_on_c, 1, 65, 64
19, 5734, Note_off_c, 1, 58, 0
19, 5734, Note_off_c, 1, 61, 0
19, 5734, Note_off_c, 1, 65, 0
19, 5760, Note_on_c, 1, 58, 64
19, 5760, Note_on_c, 1, 61, 64
19, 5760, Note_on_c, 1, 65, 64
19, 5862, Note_off_c, 1, 58, 0
19, 5862, Note_off_c, 1, 61, 0
19, 5862, Note_off_c, 1, 65, 0
19, 5888, Note_on_c, 1, 58, 64
19, 5888, Note_on_c, 1, 61, 64
19, 5888, Note_on_c, 1, 65, 64
19, 5990, Note_off_c, 1, 58, 0
19, 5990, Note_off_c, 1, 61, 0
19, 5990, Note_off_c, 1, 65, 0
19, 6016, Note_on_c, 1, 58, 64
19, 6016, Note_on_c, 1, 61, 64
19, 6016, Note_on_c, 1, 65, 64
19, 6118, Note_off_c, 1, 58, 0
19, 6118, Note_off_c, 1, 61, 0
19, 6118, Note_off_c, 1, 65, 0
19, 6144, Note_on_c, 1, 58, 60
19, 6144, Note_on_c, 1, 61, 60
19, 6144, Note_on_c, 1, 65, 60
19, 6272, Note_off_c, 1, 58, 0
19, 6272, Note_off_c, 1, 61, 0
19, 6272, Note_off_c, 1, 65, 0
19, 6272, Note_on_c, 1, 57, 60
19, 6272, Note_on_c, 1, 62, 60
19, 6272, Note_on_c, 1, 65, 60
19, 6374, Note_off_c, 1, 57, 0
19, 6374, Note_off_c, 1, 62, 0
19, 6374, Note_off_c, 1, 65, 0
19, 6400, Note_on_c, 1, 57, 60
19, 6400, Note_on_c, 1, 62, 60
19, 6400, Note_on_c, 1, 65, 60
19, 6502, Note_off_c, 1, 57, 0
19, 6502, Note_off_c, 1, 62, 0
19, 6502, Note_off_c, 1, 65, 0
19, 6528, Note_on_c, 1, 57, 60
19, 6528, Note_on_c, 1, 62, 60
19, 6528, Note_on_c, 1, 65, 60
19, 6630, Note_off_c, 1, 57, 0
19, 6630, Note_off_c, 1, 62, 0
19, 6630, Note_off_c, 1, 65, 0
19, 6656, Note_on_c, 1, 57, 60
19, 6656, Note_on_c, 1, 62, 60
19, 6656, Note_on_c, 1, 65, 60
19, 6784, Note_off_c, 1, 57, 0
19, 6784, Note_off_c, 1, 62, 0
19, 6784, Note_off_c, 1, 65, 0
19, 6784, Note_on_c, 1, 57, 63
19, 6784, Note_on_c, 1, 61, 63
19, 6784, Note_on_c, 1, 66, 63
19, 6886, Note_off_c, 1, 57, 0
19, 6886, Note_off_c, 1, 61, 0
19, 6886, Note_off_c, 1, 66, 0
19, 6912, Note_on_c, 1, 57, 63
19, 6912, Note_on_c, 1, 61, 63
19, 6912, Note_on_c, 1, 66, 63
19, 7014, Note_off_c, 1, 57, 0
19, 7014, Note_off_c, 1, 61, 0
19, 7014, Note_off_c, 1, 66, 0
19, 7040, Note_on_c, 1, 57, 63
19, 7040, Note_on_c, 1, 61, 63
19, 7040, Note_on_c, 1, 66, 63
19, 7142, Note_off_c, 1, 57, 0
19, 7142, Note_off_c, 1, 61, 0
19, 7142, Note_off_c, 1, 66, 0
19, 7168, Note_on_c, 1, 57, 60
19, 7168, Note_on_c, 1, 61, 60
19, 7168, Note_on_c, 1, 66, 60
19, 7270, Note_off_c, 1, 57, 0
19, 7270, Note_off_c, 1, 61, 0
19, 7270, Note_off_c, 1, 66, 0
19, 7296, Note_on_c, 1, 57, 60
19, 7296, Note_on_c, 1, 61, 60
19, 7296, Note_on_c, 1, 66, 60
19, 7398, Note_off_c, 1, 57, 0
19, 7398, Note_off_c, 1, 61, 0
19, 7398, Note_off_c, 1, 66, 0
19, 7424, Note_on_c, 1, 57, 60
19, 7424, Note_on_c, 1, 61, 60
19, 7424, Note_on_c, 1, 66, 60
19, 7526, Note_off_c, 1, 57, 0
19, 7526, Note_off_c, 1, 61, 0
19, 7526, Note_off_c, 1, 66, 0
19, 7552, Note_on_c, 1, 58, 59
19, 7552, Note_on_c, 1, 61, 59
19, 7552, Note_on_c, 1, 65, 59
19, 7680, Note_off_c, 1, 58, 0
19, 7680, Note_off_c, 1, 61, 0
19, 7680, Note_off_c, 1, 65, 0
19, 7680, Note_on_c, 1, 58, 63
19, 7680, Note_on_c, 1, 61, 63
19, 7680, Note_on_c, 1, 65, 63
19, 7782, Note_off_c, 1, 58, 0
19, 7782, Note_off_c, 1, 61, 0
19, 7782, Note_off_c, 1, 65, 0
19, 7808, Note_on_c, 1, 58, 63
19, 7808, Note_on_c, 1, 61, 63
19, 7808, Note_on_c, 1, 65, 63
19, 7910, Note_off_c, 1, 58, 0
19, 7910, Note_off_c, 1, 61, 0
19, 7910, Note_off_c, 1, 65, 0
19, 7936, Note_on_c, 1, 58, 63
19, 7936, Note_on_c, 1, 61, 63
19, 7936, Note_on_c, 1, 65, 63
19, 8038, Note_off_c, 1, 58, 0
19, 8038, Note_off_c, 1, 61, 0
19, 8038, Note_off_c, 1, 65, 0
19, 8064, Note_on_c, 1, 58, 63
19, 8064, Note_on_c, 1, 61, 63
19, 8064, Note_on_c, 1, 65, 63
19, 8166, Note_off_c, 1, 58, 0
19, 8166, Note_off_c, 1, 61, 0
19, 8166, Note_off_c, 1, 65, 0
19, 8192, Note_on_c, 1, 58, 61
19, 8192, Note_on_c, 1, 61, 61
19, 8192, Note_on_c, 1, 65, 61
19, 8320, Note_off_c, 1, 58, 0
19, 8320, Note_off_c, 1, 61, 0
19, 8320, Note_off_c, 1, 65, 0
19, 8320, Note_on_c, 1, 59, 64
19, 8320, Note_on_c, 1, 62, 64
19, 8320, Note_on_c, 1, 65, 64
19, 8422, Note_off_c, 1, 59, 0
19, 8422, Note_off_c, 1, 62, 0
19, 8422, Note_off_c, 1, 65, 0
19, 8448, Note_on_c, 1, 59, 64
19, 8448, Note_on_c, 1, 62, 64
19, 8448, Note_on_c, 1, 65, 64
19, 8550, Note_off_c, 1, 59, 0
19, 8550, Note_off_c, 1, 62, 0
19, 8550, Note_off_c, 1, 65, 0
19, 8576, Note_on_c, 1, 59, 64
19, 8576, Note_on_c, 1, 62, 64
19, 8576, Note_on_c, 1, 65, 64
19, 8678, Note_off_c, 1, 59, 0
19, 8678, Note_off_c, 1, 62, 0
19, 8678, Note_off_c, 1, 65, 0
19, 8704, Note_on_c, 1, 59, 65
19, 8704, Note_on_c, 1, 62, 65
19, 8704, Note_on_c, 1, 65, 65
19, 8806, Note_off_c, 1, 59, 0
19, 8806, Note_off_c, 1, 62, 0
19, 8806, Note_off_c, 1, 65, 0
19, 8832, Note_on_c, 1, 59, 65
19, 8832, Note_on_c, 1, 62, 65
19, 8832, Note_on_c, 1, 65, 65
19, 8934, Note_off_c, 1, 59, 0
19, 8934, Note_off_c, 1, 62, 0
19, 8934, Note_off_c, 1, 65, 0
19, 8960, Note_on_c, 1, 59, 65
19, 8960, Note_on_c, 1, 62, 65
19, 8960, Note_on_c, 1, 65, 65
19, 9062, Note_off_c, 1, 59, 0
19, 9062, Note_off_c, 1, 62, 0
19, 9062, Note_off_c, 1, 65, 0
19, 9088, Note_on_c, 1, 59, 65
19, 9088, Note_on_c, 1, 62, 65
19, 9088, Note_on_c, 1, 65, 65
19, 9190, Note_off_c, 1, 59, 0
19, 9190, Note_off_c, 1, 62, 0
19, 9190, Note_off_c, 1, 65, 0
19, 9216, Note_on_c, 1, 59, 56
19, 9216, Note_on_c, 1, 62, 56
19, 9216, Note_on_c, 1, 65, 56
19, 9344, Note_off_c, 1, 59, 0
19, 9344, Note_off_c, 1, 62, 0
19, 9344, Note_off_c, 1, 65, 0
19, 9344, Note_on_c, 1, 59, 63
19, 9344, Note_on_c, 1, 62, 63
19, 9344, Note_on_c, 1, 66, 63
19, 9446, Note_off_c, 1, 59, 0
19, 9446, Note_off_c, 1, 62, 0
19, 9446, Note_off_c, 1, 66, 0
19, 9472, Note_on_c, 1, 59, 63
19, 9472, Note_on_c, 1, 62, 63
19, 9472, Note_on_c, 1, 66, 63
19, 9574, Note_off_c, 1, 59, 0
19, 9574, Note_off_c, 1, 62, 0
19, 9574, Note_off_c, 1, 66, 0
19, 9600, Note_on_c, 1, 59, 63
19, 9600, Note_on_c, 1, 62, 63
19, 9600, Note_on_c, 1, 66, 63
19, 9702, Note_off_c, 1, 59, 0
19, 9702, Note_off_c, 1, 62, 0
19, 9702, Note_off_c, 1, 66, 0
19, 9728, Note_on_c, 1, 59, 59
19, 9728, Note_on_c, 1, 62, 59
19, 9728, Note_on_c, 1, 66, 59
19, 9830, Note_off_c, 1, 59, 0
19, 9830, Note_off_c, 1, 62, 0
19, 9830, Note_off_c, 1, 66, 0
19, 9856, Note_on_c, 1, 59, 59
19, 9856, Note_on_c, 1, 62, 59
19, 9856, Note_on_c, 1, 66, 59
19, 9958, Note_off_c, 1, 59, 0
19, 9958, Note_off_c, 1, 62, 0
19, 9958, Note_off_c, 1, 66, 0
19, 9984, Note_on_c, 1, 59, 59
19, 9984, Note_on_c, 1, 62, 59
19, 9984, Note_on_c, 1, 66, 59
19, 10086, Note_off_c, 1, 59, 0
19, 10086, Note_off_c, 1, 62, 0
19, 10086, Note_off_c, 1, 66, 0
19, 10112, Note_on_c, 1, 59, 70
19, 10112, Note_on_c, 1, 62, 70
19, 10112, Note_on_c, 1, 67, 70
19, 10240, Note_off_c, 1, 59, 0
19, 10240, Note_off_c, 1, 62, 0
19, 10240, Note_off_c, 1, 67, 0
19, 10240, Note_on_c, 1, 59, 59
19, 10240, Note_on_c, 1, 62, 59
19, 10240, Note_on_c, 1, 67, 59
19, 10342, Note_off_c, 1, 59, 0
19, 10342, Note_off_c, 1, 62, 0
19, 10342, Note_off_c, 1, 67, 0
19, 10368, Note_on_c, 1, 59, 59
19, 10368, Note_on_c, 1, 62, 59
19, 10368, Note_on_c, 1, 67, 59
19, 10470, Note_off_c, 1, 59, 0
19, 10470, Note_off_c, 1, 62, 0
19, 10470, Note_off_c, 1, 67, 0
19, 10496, Note_on_c, 1, 59, 59
19, 10496, Note_on_c, 1, 62, 59
19, 10496, Note_on_c, 1, 67, 59
19, 10598, Note_off_c, 1, 59, 0
19, 10598, Note_off_c, 1, 62, 0
19, 10598, Note_off_c, 1, 67, 0
19, 10624, Note_on_c, 1, 59, 59
19, 10624, Note_on_c, 1, 62, 59
19, 10624, Note_on_c, 1, 67, 59
19, 10726, Note_off_c, 1, 59, 0
19, 10726, Note_off_c, 1, 62, 0
19, 10726, Note_off_c, 1, 67, 0
19, 10752, Note_on_c, 1, 59, 59
19, 10752, Note_on_c, 1, 62, 59
19, 10752, Note_on_c, 1, 67, 59
19, 10854, Note_off_c, 1, 59, 0
19, 10854, Note_off_c, 1, 62, 0
19, 10854, Note_off_c, 1, 67, 0
19, 10880, Note_on_c, 1, 59, 59
19, 10880, Note_on_c, 1, 62, 59
19, 10880, Note_on_c, 1, 67, 59
19, 10982, Note_off_c, 1, 59, 0
19, 10982, Note_off_c, 1, 62, 0
19, 10982, Note_off_c, 1, 67, 0
19, 11008, Note_on_c, 1, 57, 59
19, 11008, Note_on_c, 1, 61, 59
19, 11008, Note_on_c, 1, 64, 59
19, 11008, Note_on_c, 1, 67, 59
19, 11110, Note_off_c, 1, 57, 0
19, 11110, Note_off_c, 1, 61, 0
19, 11110, Note_off_c, 1, 64, 0
19, 11110, Note_off_c, 1, 67, 0
19, 11136, Note_on_c, 1, 57, 59
19, 11136, Note_on_c, 1, 61, 59
19, 11136, Note_on_c, 1, 64, 59
19, 11136, Note_on_c, 1, 67, 59
19, 11238, Note_off_c, 1, 57, 0
19, 11238, Note_off_c, 1, 61, 0
19, 11238, Note_off_c, 1, 64, 0
19, 11238, Note_off_c, 1, 67, 0
19, 11264, Note_on_c, 1, 57, 60
19, 11264, Note_on_c, 1, 61, 60
19, 11264, Note_on_c, 1, 64, 60
19, 11264, Note_on_c, 1, 67, 60
19, 11366, Note_off_c, 1, 57, 0
19, 11366, Note_off_c, 1, 61, 0
19, 11366, Note_off_c, 1, 64, 0
19, 11366, Note_off_c, 1, 67, 0
19, 11392, Note_on_c, 1, 57, 60
19, 11392, Note_on_c, 1, 61, 60
19, 11392, Note_on_c, 1, 64, 60
19, 11392, Note_on_c, 1, 67, 60
19, 11494, Note_off_c, 1, 57, 0
19, 11494, Note_off_c, 1, 61, 0
19, 11494, Note_off_c, 1, 64, 0
19, 11494, Note_off_c, 1, 67, 0
19, 11520, Note_on_c, 1, 57, 60
19, 11520, Note_on_c, 1, 61, 60
19, 11520, Note_on_c, 1, 64, 60
19, 11520, Note_on_c, 1, 67, 60
19, 11622, Note_off_c, 1, 57, 0
19, 11622, Note_off_c, 1, 61, 0
19, 11622, Note_off_c, 1, 64, 0
19, 11622, Note_off_c, 1, 67, 0
19, 11648, Note_on_c, 1, 59, 58
19, 11648, Note_on_c, 1, 62, 58
19, 11648, Note_on_c, 1, 67, 58
19, 11776, Note_off_c, 1, 59, 0
19, 11776, Note_off_c, 1, 62, 0
19, 11776, Note_off_c, 1, 67, 0
19, 11776, Note_on_c, 1, 59, 58
19, 11776, Note_on_c, 1, 62, 58
19, 11776, Note_on_c, 1, 67, 58
19, 11878, Note_off_c, 1, 59, 0
19, 11878, Note_off_c, 1, 62, 0
19, 11878, Note_off_c, 1, 67, 0
19, 11904, Note_on_c, 1, 59, 58
19, 11904, Note_on_c, 1, 62, 58
19, 11904, Note_on_c, 1, 67, 58
19, 12006, Note_off_c, 1, 59, 0
19, 12006, Note_off_c, 1, 62, 0
19, 12006, Note_off_c, 1, 67, 0
19, 12032, Note_on_c, 1, 57, 59
19, 12032, Note_on_c, 1, 61, 59
19, 12032, Note_on_c, 1, 64, 59
19, 12032, Note_on_c, 1, 67, 59
19, 12134, Note_off_c, 1, 57, 0
19, 12134, Note_off_c, 1, 61, 0
19, 12134, Note_off_c, 1, 64, 0
19, 12134, Note_off_c, 1, 67, 0
19, 12160, Note_on_c, 1, 57, 59
19, 12160, Note_on_c, 1, 61, 59
19, 12160, Note_on_c, 1, 64, 59
19, 12160, Note_on_c, 1, 67, 59
19, 12262, Note_off_c, 1, 57, 0
19, 12262, Note_off_c, 1, 61, 0
19, 12262, Note_off_c, 1, 64, 0
19, 12262, Note_off_c, 1, 67, 0
19, 12288, Note_on_c, 1, 57, 64
19, 12288, Note_on_c, 1, 61, 64
19, 12288, Note_on_c, 1, 64, 64
19, 12288, Note_on_c, 1, 67, 64
19, 12390, Note_off_c, 1, 57, 0
19, 12390, Note_off_c, 1, 61, 0
19, 12390, Note_off_c, 1, 64, 0
19, 12390, Note_off_c, 1, 67, 0
19, 12416, Note_on_c, 1, 57, 64
19, 12416, Note_on_c, 1, 61, 64
19, 12416, Note_on_c, 1, 64, 64
19, 12416, Note_on_c, 1, 67, 64
19, 12518, Note_off_c, 1, 57, 0
19, 12518, Note_off_c, 1, 61, 0
19, 12518, Note_off_c, 1, 64, 0
19, 12518, Note_off_c, 1, 67, 0
19, 12544, Note_on_c, 1, 57, 64
19, 12544, Note_on_c, 1, 61, 64
19, 12544, Note_on_c, 1, 64, 64
19, 12544, Note_on_c, 1, 67, 64
19, 12646, Note_off_c, 1, 57, 0
19, 12646, Note_off_c, 1, 61, 0
19, 12646, Note_off_c, 1, 64, 0
19, 12646, Note_off_c, 1, 67, 0
19, 12672, Note_on_c, 1, 59, 63
19, 12672, Note_on_c, 1, 62, 63
19, 12672, Note_on_c, 1, 67, 63
19, 12800, Note_off_c, 1, 59, 0
19, 12800, Note_off_c, 1, 62, 0
19, 12800, Note_off_c, 1, 67, 0
19, 12800, Note_on_c, 1, 57, 61
19, 12800, Note_on_c, 1, 61, 61
19, 12800, Note_on_c, 1, 64, 61
19, 12800, Note_on_c, 1, 67, 61
19, 12902, Note_off_c, 1, 57, 0
19, 12902, Note_off_c, 1, 61, 0
19, 12902, Note_off_c, 1, 64, 0
19, 12902, Note_off_c, 1, 67, 0
19, 12928, Note_on_c, 1, 57, 61
19, 12928, Note_on_c, 1, 61, 61
19, 12928, Note_on_c, 1, 64, 61
19, 12928, Note_on_c, 1, 67, 61
19, 13030, Note_off_c, 1, 57, 0
19, 13030, Note_off_c, 1, 61, 0
19, 13030, Note_off_c, 1, 64, 0
19, 13030, Note_off_c, 1, 67, 0
19, 13056, Note_on_c, 1, 57, 60
19, 13056, Note_on_c, 1, 58, 60
19, 13056, Note_on_c, 1, 62, 60
19, 13056, Note_on_c, 1, 67, 60
19, 13158, Note_off_c, 1, 57, 0
19, 13158, Note_off_c, 1, 58, 0
19, 13158, Note_off_c, 1, 62, 0
19, 13158, Note_off_c, 1, 67, 0
19, 13184, Note_on_c, 1, 57, 60
19, 13184, Note_on_c, 1, 58, 60
19, 13184, Note_on_c, 1, 62, 60
19, 13184, Note_on_c, 1, 67, 60
19, 13286, Note_off_c, 1, 57, 0
19, 13286, Note_off_c, 1, 58, 0
19, 13286, Note_off_c, 1, 62, 0
19, 13286, Note_off_c, 1, 67, 0
19, 13312, Note_on_c, 1, 57, 61
19, 13312, Note_on_c, 1, 58, 61
19, 13312, Note_on_c, 1, 62, 61
19, 13312, Note_on_c, 1, 67, 61
19, 13414, Note_off_c, 1, 57, 0
19, 13414, Note_off_c, 1, 58, 0
19, 13414, Note_off_c, 1, 62, 0
19, 13414, Note_off_c, 1, 67, 0
19, 13440, Note_on_c, 1, 57, 61
19, 13440, Note_on_c, 1, 58, 61
19, 13440, Note_on_c, 1, 62, 61
19, 13440, Note_on_c, 1, 67, 61
19, 13542, Note_off_c, 1, 57, 0
19, 13542, Note_off_c, 1, 58, 0
19, 13542, Note_off_c, 1, 62, 0
19, 13542, Note_off_c, 1, 67, 0
19, 13568, Note_on_c, 1, 57, 61
19, 13568, Note_on_c, 1, 58, 61
19, 13568, Note_on_c, 1, 62, 61
19, 13568, Note_on_c, 1, 67, 61
19, 13670, Note_off_c, 1, 57, 0
19, 13670, Note_off_c, 1, 58, 0
19, 13670, Note_off_c, 1, 62, 0
19, 13670, Note_off_c, 1, 67, 0
19, 13696, Note_on_c, 1, 57, 61
19, 13696, Note_on_c, 1, 58, 61
19, 13696, Note_on_c, 1, 62, 61
19, 13696, Note_on_c, 1, 67, 61
19, 13798, Note_off_c, 1, 57, 0
19, 13798, Note_off_c, 1, 58, 0
19, 13798, Note_off_c, 1, 62, 0
19, 13798, Note_off_c, 1, 67, 0
19, 13824, Note_on_c, 1, 57, 61
19, 13824, Note_on_c, 1, 58, 61
19, 13824, Note_on_c, 1, 62, 61
19, 13824, Note_on_c, 1, 67, 61
19, 13926, Note_off_c, 1, 57, 0
19, 13926, Note_off_c, 1, 58, 0
19, 13926, Note_off_c, 1, 62, 0
19, 13926, Note_off_c, 1, 67, 0
19, 13952, Note_on_c, 1, 57, 61
19, 13952, Note_on_c, 1, 58, 61
19, 13952, Note_on_c, 1, 62, 61
19, 13952, Note_on_c, 1, 67, 61
19, 14054, Note_off_c, 1, 57, 0
19, 14054, Note_off_c, 1, 58, 0
19, 14054, Note_off_c, 1, 62, 0
19, 14054, Note_off_c, 1, 67, 0
19, 14080, Note_on_c, 1, 57, 66
19, 14080, Note_on_c, 1, 61, 66
19, 14080, Note_on_c, 1, 64, 66
19, 14080, Note_on_c, 1, 67, 66
19, 14182, Note_off_c, 1, 57, 0
19, 14182, Note_off_c, 1, 61, 0
19, 14182, Note_off_c, 1, 64, 0
19, 14182, Note_off_c, 1, 67, 0
19, 14208, Note_on_c, 1, 57, 66
19, 14208, Note_on_c, 1, 61, 66
19, 14208, Note_on_c, 1, 64, 66
19, 14208, Note_on_c, 1, 67, 66
19, 14310, Note_off_c, 1, 57, 0
19, 14310, Note_off_c, 1, 61, 0
19, 14310, Note_off_c, 1, 64, 0
19, 14310, Note_off_c, 1, 67, 0
19, 14336, Note_on_c, 1, 57, 59
19, 14336, Note_on_c, 1, 61, 59
19, 14336, Note_on_c, 1, 64, 59
19, 14336, Note_on_c, 1, 67, 59
19, 14438, Note_off_c, 1, 57, 0
19, 14438, Note_off_c, 1, 61, 0
19, 14438, Note_off_c, 1, 64, 0
19, 14438, Note_off_c, 1, 67, 0
19, 14464, Note_on_c, 1, 57, 59
19, 14464, Note_on_c, 1, 61, 59
19, 14464, Note_on_c, 1, 64, 59
19, 14464, Note_on_c, 1, 67, 59
19, 14566, Note_off_c, 1, 57, 0
19, 14566, Note_off_c, 1, 61, 0
19, 14566, Note_off_c, 1, 64, 0
19, 14566, Note_off_c, 1, 67, 0
19, 14592, Note_on_c, 1, 58, 62
19, 14592, Note_on_c, 1, 62, 62
19, 14592, Note_on_c, 1, 67, 62
19, 14694, Note_off_c, 1, 58, 0
19, 14694, Note_off_c, 1, 62, 0
19, 14694, Note_off_c, 1, 67, 0
19, 14720, Note_on_c, 1, 58, 62
19, 14720, Note_on_c, 1, 62, 62
19, 14720, Note_on_c, 1, 67, 62
19, 14822, Note_off_c, 1, 58, 0
19, 14822, Note_off_c, 1, 62, 0
19, 14822, Note_off_c, 1, 67, 0
19, 14848, Note_on_c, 1, 58, 62
19, 14848, Note_on_c, 1, 62, 62
19, 14848, Note_on_c, 1, 67, 62
19, 14950, Note_off_c, 1, 58, 0
19, 14950, Note_off_c, 1, 62, 0
19, 14950, Note_off_c, 1, 67, 0
19, 14976, Note_on_c, 1, 58, 62
19, 14976, Note_on_c, 1, 62, 62
19, 14976, Note_on_c, 1, 67, 62
19, 15078, Note_off_c, 1, 58, 0
19, 15078, Note_off_c, 1, 62, 0
19, 15078, Note_off_c, 1, 67, 0
19, 15104, Note_on_c, 1, 58, 62
19, 15104, Note_on_c, 1, 62, 62
19, 15104, Note_on_c, 1, 67, 62
19, 15206, Note_off_c, 1, 58, 0
19, 15206, Note_off_c, 1, 62, 0
19, 15206, Note_off_c, 1, 67, 0
19, 15232, Note_on_c, 1, 58, 62
19, 15232, Note_on_c, 1, 62, 62
19, 15232, Note_on_c, 1, 67, 62
19, 15334, Note_off_c, 1, 58, 0
19, 15334, Note_off_c, 1, 62, 0
19, 15334, Note_off_c, 1, 67, 0
19, 15360, Note_on_c, 1, 58, 56
19, 15360, Note_on_c, 1, 62, 56
19, 15360, Note_on_c, 1, 67, 56
19, 15488, Note_off_c, 1, 58, 0
19, 15488, Note_off_c, 1, 62, 0
19, 15488, Note_off_c, 1, 67, 0
19, 15488, Note_on_c, 1, 59, 61
19, 15488, Note_on_c, 1, 63, 61
19, 15488, Note_on_c, 1, 67, 61
19, 15590, Note_off_c, 1, 59, 0
19, 15590, Note_off_c, 1, 63, 0
19, 15590, Note_off_c, 1, 67, 0
19, 15616, Note_on_c, 1, 59, 61
19, 15616, Note_on_c, 1, 63, 61
19, 15616, Note_on_c, 1, 67, 61
19, 15718, Note_off_c, 1, 59, 0
19, 15718, Note_off_c, 1, 63, 0
19, 15718, Note_off_c, 1, 67, 0
19, 15744, Note_on_c, 1, 59, 61
19, 15744, Note_on_c, 1, 63, 61
19, 15744, Note_on_c, 1, 67, 61
19, 15846, Note_off_c, 1, 59, 0
19, 15846, Note_off_c, 1, 63, 0
19, 15846, Note_off_c, 1, 67, 0
19, 15872, Note_on_c, 1, 59, 59
19, 15872, Note_on_c, 1, 63, 59
19, 15872, Note_on_c, 1, 67, 59
19, 15974, Note_off_c, 1, 59, 0
19, 15974, Note_off_c, 1, 63, 0
19, 15974, Note_off_c, 1, 67, 0
19, 16000, Note_on_c, 1, 59, 59
19, 16000, Note_on_c, 1, 63, 59
19, 16000, Note_on_c, 1, 67, 59
19, 16102, Note_off_c, 1, 59, 0
19, 16102, Note_off_c, 1, 63, 0
19, 16102, Note_off_c, 1, 67, 0
19, 16128, Note_on_c, 1, 59, 59
19, 16128, Note_on_c, 1, 63, 59
19, 16128, Note_on_c, 1, 67, 59
19, 16230, Note_off_c, 1, 59, 0
19, 16230, Note_off_c, 1, 63, 0
19, 16230, Note_off_c, 1, 67, 0
19, 16256, Note_on_c, 1, 59, 59
19, 16256, Note_on_c, 1, 63, 59
19, 16256, Note_on_c, 1, 67, 59
19, 16358, Note_off_c, 1, 59, 0
19, 16358, Note_off_c, 1, 63, 0
19, 16358, Note_off_c, 1, 67, 0
19, 16384, Note_on_c, 1, 59, 63
19, 16384, Note_on_c, 1, 63, 63
19, 16384, Note_on_c, 1, 67, 63
19, 16486, Note_off_c, 1, 59, 0
19, 16486, Note_off_c, 1, 63, 0
19, 16486, Note_off_c, 1, 67, 0
19, 16512, Note_on_c, 1, 59, 63
19, 16512, Note_on_c, 1, 63, 63
19, 16512, Note_on_c, 1, 67, 63
19, 16614, Note_off_c, 1, 59, 0
19, 16614, Note_off_c, 1, 63, 0
19, 16614, Note_off_c, 1, 67, 0
19, 16640, Note_on_c, 1, 59, 64
19, 16640, Note_on_c, 1, 62, 64
19, 16640, Note_on_c, 1, 67, 64
19, 16742, Note_off_c, 1, 59, 0
19, 16742, Note_off_c, 1, 62, 0
19, 16742, Note_off_c, 1, 67, 0
19, 16768, Note_on_c, 1, 59, 64
19, 16768, Note_on_c, 1, 62, 64
19, 16768, Note_on_c, 1, 67, 64
19, 16870, Note_off_c, 1, 59, 0
19, 16870, Note_off_c, 1, 62, 0
19, 16870, Note_off_c, 1, 67, 0
19, 16896, Note_on_c, 1, 59, 64
19, 16896, Note_on_c, 1, 62, 64
19, 16896, Note_on_c, 1, 67, 64
19, 16998, Note_off_c, 1, 59, 0
19, 16998, Note_off_c, 1, 62, 0
19, 16998, Note_off_c, 1, 67, 0
19, 17024, Note_on_c, 1, 59, 64
19, 17024, Note_on_c, 1, 62, 64
19, 17024, Note_on_c, 1, 67, 64
19, 17126, Note_off_c, 1, 59, 0
19, 17126, Note_off_c, 1, 62, 0
19, 17126, Note_off_c, 1, 67, 0
19, 17152, Note_on_c, 1, 59, 64
19, 17152, Note_on_c, 1, 62, 64
19, 17152, Note_on_c, 1, 67, 64
19, 17254, Note_off_c, 1, 59, 0
19, 17254, Note_off_c, 1, 62, 0
19, 17254, Note_off_c, 1, 67, 0
19, 17280, Note_on_c, 1, 59, 64
19, 17280, Note_on_c, 1, 62, 64
19, 17280, Note_on_c, 1, 67, 64
19, 17382, Note_off_c, 1, 59, 0
19, 17382, Note_off_c, 1, 62, 0
19, 17382, Note_off_c, 1, 67, 0
19, 17408, Note_on_c, 1, 59, 61
19, 17408, Note_on_c, 1, 62, 61
19, 17408, Note_on_c, 1, 67, 61
19, 17510, Note_off_c, 1, 59, 0
19, 17510, Note_off_c, 1, 62, 0
19, 17510, Note_off_c, 1, 67, 0
19, 17536, Note_on_c, 1, 59, 61
19, 17536, Note_on_c, 1, 62, 61
19, 17536, Note_on_c, 1, 67, 61
19, 17638, Note_off_c, 1, 59, 0
19, 17638, Note_off_c, 1, 62, 0
19, 17638, Note_off_c, 1, 67, 0
19, 17664, Note_on_c, 1, 53, 58
19, 17664, Note_on_c, 1, 59, 58
19, 17664, Note_on_c, 1, 63, 58
19, 17664, Note_on_c, 1, 67, 58
19, 17766, Note_off_c, 1, 53, 0
19, 17766, Note_off_c, 1, 59, 0
19, 17766, Note_off_c, 1, 63, 0
19, 17766, Note_off_c, 1, 67, 0
19, 17792, Note_on_c, 1, 53, 58
19, 17792, Note_on_c, 1, 59, 58
19, 17792, Note_on_c, 1, 63, 58
19, 17792, Note_on_c, 1, 67, 58
19, 17894, Note_off_c, 1, 53, 0
19, 17894, Note_off_c, 1, 59, 0
19, 17894, Note_off_c, 1, 63, 0
19, 17894, Note_off_c, 1, 67, 0
19, 17920, Note_on_c, 1, 53, 58
19, 17920, Note_on_c, 1, 59, 58
19, 17920, Note_on_c, 1, 63, 58
19, 17920, Note_on_c, 1, 67, 58
19, 18022, Note_off_c, 1, 53, 0
19, 18022, Note_off_c, 1, 59, 0
19, 18022, Note_off_c, 1, 63, 0
19, 18022, Note_off_c, 1, 67, 0
19, 18048, Note_on_c, 1, 53, 58
19, 18048, Note_on_c, 1, 59, 58
19, 18048, Note_on_c, 1, 63, 58
19, 18048, Note_on_c, 1, 67, 58
19, 18150, Note_off_c, 1, 53, 0
19, 18150, Note_off_c, 1, 59, 0
19, 18150, Note_off_c, 1, 63, 0
19, 18150, Note_off_c, 1, 67, 0
19, 18176, Note_on_c, 1, 53, 58
19, 18176, Note_on_c, 1, 59, 58
19, 18176, Note_on_c, 1, 63, 58
19, 18176, Note_on_c, 1, 67, 58
19, 18278, Note_off_c, 1, 53, 0
19, 18278, Note_off_c, 1, 59, 0
19, 18278, Note_off_c, 1, 63, 0
19, 18278, Note_off_c, 1, 67, 0
19, 18304, Note_on_c, 1, 53, 58
19, 18304, Note_on_c, 1, 59, 58
19, 18304, Note_on_c, 1, 63, 58
19, 18304, Note_on_c, 1, 67, 58
19, 18406, Note_off_c, 1, 53, 0
19, 18406, Note_off_c, 1, 59, 0
19, 18406, Note_off_c, 1, 63, 0
19, 18406, Note_off_c, 1, 67, 0
19, 18432, Note_on_c, 1, 53, 61
19, 18432, Note_on_c, 1, 60, 61
19, 18432, Note_on_c, 1, 63, 61
19, 18432, Note_on_c, 1, 67, 61
19, 18534, Note_off_c, 1, 53, 0
19, 18534, Note_off_c, 1, 60, 0
19, 18534, Note_off_c, 1, 63, 0
19, 18534, Note_off_c, 1, 67, 0
19, 18560, Note_on_c, 1, 53, 61
19, 18560, Note_on_c, 1, 60, 61
19, 18560, Note_on_c, 1, 63, 61
19, 18560, Note_on_c, 1, 67, 61
19, 18662, Note_off_c, 1, 53, 0
19, 18662, Note_off_c, 1, 60, 0
19, 18662, Note_off_c, 1, 63, 0
19, 18662, Note_off_c, 1, 67, 0
19, 18688, Note_on_c, 1, 53, 61
19, 18688, Note_on_c, 1, 60, 61
19, 18688, Note_on_c, 1, 63, 61
19, 18688, Note_on_c, 1, 67, 61
19, 18790, Note_off_c, 1, 53, 0
19, 18790, Note_off_c, 1, 60, 0
19, 18790, Note_off_c, 1, 63, 0
19, 18790, Note_off_c, 1, 67, 0
19, 18816, Note_on_c, 1, 53, 61
19, 18816, Note_on_c, 1, 60, 61
19, 18816, Note_on_c, 1, 63, 61
19, 18816, Note_on_c, 1, 67, 61
19, 18918, Note_off_c, 1, 53, 0
19, 18918, Note_off_c, 1, 60, 0
19, 18918, Note_off_c, 1, 63, 0
19, 18918, Note_off_c, 1, 67, 0
19, 18944, Note_on_c, 1, 53, 61
19, 18944, Note_on_c, 1, 60, 61
19, 18944, Note_on_c, 1, 63, 61
19, 18944, Note_on_c, 1, 67, 61
19, 19046, Note_off_c, 1, 53, 0
19, 19046, Note_off_c, 1, 60, 0
19, 19046, Note_off_c, 1, 63, 0
19, 19046, Note_off_c, 1, 67, 0
19, 19072, Note_on_c, 1, 53, 61
19, 19072, Note_on_c, 1, 60, 61
19, 19072, Note_on_c, 1, 63, 61
19, 19072, Note_on_c, 1, 67, 61
19, 19174, Note_off_c, 1, 53, 0
19, 19174, Note_off_c, 1, 60, 0
19, 19174, Note_off_c, 1, 63, 0
19, 19174, Note_off_c, 1, 67, 0
19, 19200, Note_on_c, 1, 54, 62
19, 19200, Note_on_c, 1, 60, 62
19, 19200, Note_on_c, 1, 63, 62
19, 19200, Note_on_c, 1, 68, 62
19, 19302, Note_off_c, 1, 54, 0
19, 19302, Note_off_c, 1, 60, 0
19, 19302, Note_off_c, 1, 63, 0
19, 19302, Note_off_c, 1, 68, 0
19, 19328, Note_on_c, 1, 54, 62
19, 19328, Note_on_c, 1, 60, 62
19, 19328, Note_on_c, 1, 63, 62
19, 19328, Note_on_c, 1, 68, 62
19, 19430, Note_off_c, 1, 54, 0
19, 19430, Note_off_c, 1, 60, 0
19, 19430, Note_off_c, 1, 63, 0
19, 19430, Note_off_c, 1, 68, 0
19, 19456, Note_on_c, 1, 54, 59
19, 19456, Note_on_c, 1, 60, 59
19, 19456, Note_on_c, 1, 63, 59
19, 19456, Note_on_c, 1, 68, 59
19, 19558, Note_off_c, 1, 54, 0
19, 19558, Note_off_c, 1, 60, 0
19, 19558, Note_off_c, 1, 63, 0
19, 19558, Note_off_c, 1, 68, 0
19, 19584, Note_on_c, 1, 54, 59
19, 19584, Note_on_c, 1, 60, 59
19, 19584, Note_on_c, 1, 63, 59
19, 19584, Note_on_c, 1, 68, 59
19, 19686, Note_off_c, 1, 54, 0
19, 19686, Note_off_c, 1, 60, 0
19, 19686, Note_off_c, 1, 63, 0
19, 19686, Note_off_c, 1, 68, 0
19, 19712, Note_on_c, 1, 54, 59
19, 19712, Note_on_c, 1, 60, 59
19, 19712, Note_on_c, 1, 63, 59
19, 19712, Note_on_c, 1, 68, 59
19, 19814, Note_off_c, 1, 54, 0
19, 19814, Note_off_c, 1, 60, 0
19, 19814, Note_off_c, 1, 63, 0
19, 19814, Note_off_c, 1, 68, 0
19, 19840, Note_on_c, 1, 54, 59
19, 19840, Note_on_c, 1, 60, 59
19, 19840, Note_on_c, 1, 63, 59
19, 19840, Note_on_c, 1, 68, 59
19, 19942, Note_off_c, 1, 54, 0
19, 19942, Note_off_c, 1, 60, 0
19, 19942, Note_off_c, 1, 63, 0
19, 19942, Note_off_c, 1, 68, 0
19, 19968, Note_on_c, 1, 55, 69
19, 19968, Note_on_c, 1, 61, 69
19, 19968, Note_on_c, 1, 64, 69
19, 19968, Note_on_c, 1, 69, 69
19, 20070, Note_off_c, 1, 55, 0
19, 20070, Note_off_c, 1, 61, 0
19, 20070, Note_off_c, 1, 64, 0
19, 20070, Note_off_c, 1, 69, 0
19, 20096, Note_on_c, 1, 55, 69
19, 20096, Note_on_c, 1, 61, 69
19, 20096, Note_on_c, 1, 64, 69
19, 20096, Note_on_c, 1, 69, 69
19, 20198, Note_off_c, 1, 55, 0
19, 20198, Note_off_c, 1, 61, 0
19, 20198, Note_off_c, 1, 64, 0
19, 20198, Note_off_c, 1, 69, 0
19, 20224, Note_on_c, 1, 55, 69
19, 20224, Note_on_c, 1, 61, 69
19, 20224, Note_on_c, 1, 64, 69
19, 20224, Note_on_c, 1, 69, 69
19, 20326, Note_off_c, 1, 55, 0
19, 20326, Note_off_c, 1, 61, 0
19, 20326, Note_off_c, 1, 64, 0
19, 20326, Note_off_c, 1, 69, 0
19, 20352, Note_on_c, 1, 55, 69
19, 20352, Note_on_c, 1, 61, 69
19, 20352, Note_on_c, 1, 64, 69
19, 20352, Note_on_c, 1, 69, 69
19, 20454, Note_off_c, 1, 55, 0
19, 20454, Note_off_c, 1, 61, 0
19, 20454, Note_off_c, 1, 64, 0
19, 20454, Note_off_c, 1, 69, 0
19, 20480, Note_on_c, 1, 55, 58
19, 20480, Note_on_c, 1, 61, 58
19, 20480, Note_on_c, 1, 64, 58
19, 20480, Note_on_c, 1, 69, 58
19, 20582, Note_off_c, 1, 55, 0
19, 20582, Note_off_c, 1, 61, 0
19, 20582, Note_off_c, 1, 64, 0
19, 20582, Note_off_c, 1, 69, 0
19, 20608, Note_on_c, 1, 55, 58
19, 20608, Note_on_c, 1, 61, 58
19, 20608, Note_on_c, 1, 64, 58
19, 20608, Note_on_c, 1, 69, 58
19, 20710, Note_off_c, 1, 55, 0
19, 20710, Note_off_c, 1, 61, 0
19, 20710, Note_off_c, 1, 64, 0
19, 20710, Note_off_c, 1, 69, 0
19, 20736, Note_on_c, 1, 55, 58
19, 20736, Note_on_c, 1, 61, 58
19, 20736, Note_on_c, 1, 64, 58
19, 20736, Note_on_c, 1, 69, 58
19, 20838, Note_off_c, 1, 55, 0
19, 20838, Note_off_c, 1, 61, 0
19, 20838, Note_off_c, 1, 64, 0
19, 20838, Note_off_c, 1, 69, 0
19, 20864, Note_on_c, 1, 55, 58
19, 20864, Note_on_c, 1, 61, 58
19, 20864, Note_on_c, 1, 64, 58
19, 20864, Note_on_c, 1, 69, 58
19, 20966, Note_off_c, 1, 55, 0
19, 20966, Note_off_c, 1, 61, 0
19, 20966, Note_off_c, 1, 64, 0
19, 20966, Note_off_c, 1, 69, 0
19, 20992, Note_on_c, 1, 61, 62
19, 20992, Note_on_c, 1, 64, 62
19, 20992, Note_on_c, 1, 70, 62
19, 21094, Note_off_c, 1, 61, 0
19, 21094, Note_off_c, 1, 64, 0
19, 21094, Note_off_c, 1, 70, 0
19, 21120, Note_on_c, 1, 61, 62
19, 21120, Note_on_c, 1, 64, 62
19, 21120, Note_on_c, 1, 70, 62
19, 21222, Note_off_c, 1, 61, 0
19, 21222, Note_off_c, 1, 64, 0
19, 21222, Note_off_c, 1, 70, 0
19, 21248, Note_on_c, 1, 61, 62
19, 21248, Note_on_c, 1, 64, 62
19, 21248, Note_on_c, 1, 70, 62
19, 21350, Note_off_c, 1, 61, 0
19, 21350, Note_off_c, 1, 64, 0
19, 21350, Note_off_c, 1, 70, 0
19, 21376, Note_on_c, 1, 61, 62
19, 21376, Note_on_c, 1, 64, 62
19, 21376, Note_on_c, 1, 70, 62
19, 21478, Note_off_c, 1, 61, 0
19, 21478, Note_off_c, 1, 64, 0
19, 21478, Note_off_c, 1, 70, 0
19, 21504, Note_on_c, 1, 61, 59
19, 21504, Note_on_c, 1, 64, 59
19, 21504, Note_on_c, 1, 70, 59
19, 21606, Note_off_c, 1, 61, 0
19, 21606, Note_off_c, 1, 64, 0
19, 21606, Note_off_c, 1, 70, 0
19, 21632, Note_on_c, 1, 61, 59
19, 21632, Note_on_c, 1, 64, 59
19, 21632, Note_on_c, 1, 70, 59
19, 21734, Note_off_c, 1, 61, 0
19, 21734, Note_off_c, 1, 64, 0
19, 21734, Note_off_c, 1, 70, 0
19, 21760, Note_on_c, 1, 61, 61
19, 21760, Note_on_c, 1, 65, 61
19, 21760, Note_on_c, 1, 70, 61
19, 21862, Note_off_c, 1, 61, 0
19, 21862, Note_off_c, 1, 65, 0
19, 21862, Note_off_c, 1, 70, 0
19, 21888, Note_on_c, 1, 61, 61
19, 21888, Note_on_c, 1, 65, 61
19, 21888, Note_on_c, 1, 70, 61
19, 21990, Note_off_c, 1, 61, 0
19, 21990, Note_off_c, 1, 65, 0
19, 21990, Note_off_c, 1, 70, 0
19, 22016, Note_on_c, 1, 56, 59
19, 22016, Note_on_c, 1, 62, 59
19, 22016, Note_on_c, 1, 65, 59
19, 22016, Note_on_c, 1, 70, 59
19, 22118, Note_off_c, 1, 56, 0
19, 22118, Note_off_c, 1, 62, 0
19, 22118, Note_off_c, 1, 65, 0
19, 22118, Note_off_c, 1, 70, 0
19, 22144, Note_on_c, 1, 56, 59
19, 22144, Note_on_c, 1, 62, 59
19, 22144, Note_on_c, 1, 65, 59
19, 22144, Note_on_c, 1, 70, 59
19, 22246, Note_off_c, 1, 56, 0
19, 22246, Note_off_c, 1, 62, 0
19, 22246, Note_off_c, 1, 65, 0
19, 22246, Note_off_c, 1, 70, 0
19, 22272, Note_on_c, 1, 56, 59
19, 22272, Note_on_c, 1, 62, 59
19, 22272, Note_on_c, 1, 65, 59
19, 22272, Note_on_c, 1, 70, 59
19, 22374, Note_off_c, 1, 56, 0
19, 22374, Note_off_c, 1, 62, 0
19, 22374, Note_off_c, 1, 65, 0
19, 22374, Note_off_c, 1, 70, 0
19, 22400, Note_on_c, 1, 56, 59
19, 22400, Note_on_c, 1, 62, 59
19, 22400, Note_on_c, 1, 65, 59
19, 22400, Note_on_c, 1, 70, 59
19, 22502, Note_off_c, 1, 56, 0
19, 22502, Note_off_c, 1, 62, 0
19, 22502, Note_off_c, 1, 65, 0
19, 22502, Note_off_c, 1, 70, 0
19, 22528, Note_on_c, 1, 56, 62
19, 22528, Note_on_c, 1, 62, 62
19, 22528, Note_on_c, 1, 65, 62
19, 22528, Note_on_c, 1, 70, 62
19, 22630, Note_off_c, 1, 56, 0
19, 22630, Note_off_c, 1, 62, 0
19, 22630, Note_off_c, 1, 65, 0
19, 22630, Note_off_c, 1, 70, 0
19, 22656, Note_on_c, 1, 56, 62
19, 22656, Note_on_c, 1, 62, 62
19, 22656, Note_on_c, 1, 65, 62
19, 22656, Note_on_c, 1, 70, 62
19, 22758, Note_off_c, 1, 56, 0
19, 22758, Note_off_c, 1, 62, 0
19, 22758, Note_off_c, 1, 65, 0
19, 22758, Note_off_c, 1, 70, 0
19, 22784, Note_on_c, 1, 56, 62
19, 22784, Note_on_c, 1, 62, 62
19, 22784, Note_on_c, 1, 65, 62
19, 22784, Note_on_c, 1, 70, 62
19, 22886, Note_off_c, 1, 56, 0
19, 22886, Note_off_c, 1, 62, 0
19, 22886, Note_off_c, 1, 65, 0
19, 22886, Note_off_c, 1, 70, 0
19, 22912, Note_on_c, 1, 56, 62
19, 22912, Note_on_c, 1, 62, 62
19, 22912, Note_on_c, 1, 65, 62
19, 22912, Note_on_c, 1, 70, 62
19, 23014, Note_off_c, 1, 56, 0
19, 23014, Note_off_c, 1, 62, 0
19, 23014, Note_off_c, 1, 65, 0
19, 23014, Note_off_c, 1, 70, 0
19, 23040, Note_on_c, 1, 62, 65
19, 23040, Note_on_c, 1, 65, 65
19, 23040, Note_on_c, 1, 71, 65
19, 23142, Note_off_c, 1, 62, 0
19, 23142, Note_off_c, 1, 65, 0
19, 23142, Note_off_c, 1, 71, 0
19, 23168, Note_on_c, 1, 62, 65
19, 23168, Note_on_c, 1, 65, 65
19, 23168, Note_on_c, 1, 71, 65
19, 23270, Note_off_c, 1, 62, 0
19, 23270, Note_off_c, 1, 65, 0
19, 23270, Note_off_c, 1, 71, 0
19, 23296, Note_on_c, 1, 62, 65
19, 23296, Note_on_c, 1, 65, 65
19, 23296, Note_on_c, 1, 71, 65
19, 23398, Note_off_c, 1, 62, 0
19, 23398, Note_off_c, 1, 65, 0
19, 23398, Note_off_c, 1, 71, 0
19, 23424, Note_on_c, 1, 62, 65
19, 23424, Note_on_c, 1, 65, 65
19, 23424, Note_on_c, 1, 71, 65
19, 23526, Note_off_c, 1, 62, 0
19, 23526, Note_off_c, 1, 65, 0
19, 23526, Note_off_c, 1, 71, 0
19, 23552, Note_on_c, 1, 62, 61
19, 23552, Note_on_c, 1, 65, 61
19, 23552, Note_on_c, 1, 71, 61
19, 23654, Note_off_c, 1, 62, 0
19, 23654, Note_off_c, 1, 65, 0
19, 23654, Note_off_c, 1, 71, 0
19, 23680, Note_on_c, 1, 62, 61
19, 23680, Note_on_c, 1, 65, 61
19, 23680, Note_on_c, 1, 71, 61
19, 23782, Note_off_c, 1, 62, 0
19, 23782, Note_off_c, 1, 65, 0
19, 23782, Note_off_c, 1, 71, 0
19, 23808, Note_on_c, 1, 62, 61
19, 23808, Note_on_c, 1, 65, 61
19, 23808, Note_on_c, 1, 71, 61
19, 23910, Note_off_c, 1, 62, 0
19, 23910, Note_off_c, 1, 65, 0
19, 23910, Note_off_c, 1, 71, 0
19, 23936, Note_on_c, 1, 62, 61
19, 23936, Note_on_c, 1, 65, 61
19, 23936, Note_on_c, 1, 71, 61
19, 24038, Note_off_c, 1, 62, 0
19, 24038, Note_off_c, 1, 65, 0
19, 24038, Note_off_c, 1, 71, 0
19, 24064, Note_on_c, 1, 56, 61
19, 24064, Note_on_c, 1, 62, 61
19, 24064, Note_on_c, 1, 66, 61
19, 24064, Note_on_c, 1, 71, 61
19, 24166, Note_off_c, 1, 56, 0
19, 24166, Note_off_c, 1, 62, 0
19, 24166, Note_off_c, 1, 66, 0
19, 24166, Note_off_c, 1, 71, 0
19, 24192, Note_on_c, 1, 56, 61
19, 24192, Note_on_c, 1, 62, 61
19, 24192, Note_on_c, 1, 66, 61
19, 24192, Note_on_c, 1, 71, 61
19, 24294, Note_off_c, 1, 56, 0
19, 24294, Note_off_c, 1, 62, 0
19, 24294, Note_off_c, 1, 66, 0
19, 24294, Note_off_c, 1, 71, 0
19, 24320, Note_on_c, 1, 56, 61
19, 24320, Note_on_c, 1, 62, 61
19, 24320, Note_on_c, 1, 66, 61
19, 24320, Note_on_c, 1, 71, 61
19, 24422, Note_off_c, 1, 56, 0
19, 24422, Note_off_c, 1, 62, 0
19, 24422, Note_off_c, 1, 66, 0
19, 24422, Note_off_c, 1, 71, 0
19, 24448, Note_on_c, 1, 56, 61
19, 24448, Note_on_c, 1, 62, 61
19, 24448, Note_on_c, 1, 66, 61
19, 24448, Note_on_c, 1, 71, 61
19, 24550, Note_off_c, 1, 56, 0
19, 24550, Note_off_c, 1, 62, 0
19, 24550, Note_off_c, 1, 66, 0
19, 24550, Note_off_c, 1, 71, 0
19, 24576, Note_on_c, 1, 56, 59
19, 24576, Note_on_c, 1, 62, 59
19, 24576, Note_on_c, 1, 66, 59
19, 24576, Note_on_c, 1, 71, 59
19, 24678, Note_off_c, 1, 56, 0
19, 24678, Note_off_c, 1, 62, 0
19, 24678, Note_off_c, 1, 66, 0
19, 24678, Note_off_c, 1, 71, 0
19, 24704, Note_on_c, 1, 56, 59
19, 24704, Note_on_c, 1, 62, 59
19, 24704, Note_on_c, 1, 66, 59
19, 24704, Note_on_c, 1, 71, 59
19, 24806, Note_off_c, 1, 56, 0
19, 24806, Note_off_c, 1, 62, 0
19, 24806, Note_off_c, 1, 66, 0
19, 24806, Note_off_c, 1, 71, 0
19, 24832, Note_on_c, 1, 56, 59
19, 24832, Note_on_c, 1, 62, 59
19, 24832, Note_on_c, 1, 66, 59
19, 24832, Note_on_c, 1, 71, 59
19, 24934, Note_off_c, 1, 56, 0
19, 24934, Note_off_c, 1, 62, 0
19, 24934, Note_off_c, 1, 66, 0
19, 24934, Note_off_c, 1, 71, 0
19, 24960, Note_on_c, 1, 62, 57
19, 24960, Note_on_c, 1, 67, 57
19, 24960, Note_on_c, 1, 70, 57
19, 25088, Note_off_c, 1, 62, 0
19, 25088, Note_off_c, 1, 67, 0
19, 25088, Note_off_c, 1, 70, 0
19, 25088, Note_on_c, 1, 62, 58
19, 25088, Note_on_c, 1, 67, 58
19, 25088, Note_on_c, 1, 70, 58
19, 25190, Note_off_c, 1, 62, 0
19, 25190, Note_off_c, 1, 67, 0
19, 25190, Note_off_c, 1, 70, 0
19, 25216, Note_on_c, 1, 62, 58
19, 25216, Note_on_c, 1, 67, 58
19, 25216, Note_on_c, 1, 70, 58
19, 25318, Note_off_c, 1, 62, 0
19, 25318, Note_off_c, 1, 67, 0
19, 25318, Note_off_c, 1, 70, 0
19, 25344, Note_on_c, 1, 62, 58
19, 25344, Note_on_c, 1, 67, 58
19, 25344, Note_on_c, 1, 70, 58
19, 25446, Note_off_c, 1, 62, 0
19, 25446, Note_off_c, 1, 67, 0
19, 25446, Note_off_c, 1, 70, 0
19, 25472, Note_on_c, 1, 62, 58
19, 25472, Note_on_c, 1, 67, 58
19, 25472, Note_on_c, 1, 70, 58
19, 25574, Note_off_c, 1, 62, 0
19, 25574, Note_off_c, 1, 67, 0
19, 25574, Note_off_c, 1, 70, 0
19, 25600, Note_on_c, 1, 62, 59
19, 25600, Note_on_c, 1, 67, 59
19, 25600, Note_on_c, 1, 70, 59
19, 25702, Note_off_c, 1, 62, 0
19, 25702, Note_off_c, 1, 67, 0
19, 25702, Note_off_c, 1, 70, 0
19, 25728, Note_on_c, 1, 62, 59
19, 25728, Note_on_c, 1, 67, 59
19, 25728, Note_on_c, 1, 70, 59
19, 25830, Note_off_c, 1, 62, 0
19, 25830, Note_off_c, 1, 67, 0
19, 25830, Note_off_c, 1, 70, 0
19, 25856, Note_on_c, 1, 62, 59
19, 25856, Note_on_c, 1, 67, 59
19, 25856, Note_on_c, 1, 70, 59
19, 25958, Note_off_c, 1, 62, 0
19, 25958, Note_off_c, 1, 67, 0
19, 25958, Note_off_c, 1, 70, 0
19, 25984, Note_on_c, 1, 50, 44
19, 25984, Note_on_c, 1, 55, 44
19, 25984, Note_on_c, 1, 58, 44
19, 25984, Note_on_c, 1, 63, 44
19, 26112, Note_off_c, 1, 50, 0
19, 26112, Note_off_c, 1, 55, 0
19, 26112, Note_off_c, 1, 58, 0
19, 26112, Note_off_c, 1, 63, 0
19, 26112, Note_on_c, 1, 50, 63
19, 26112, Note_on_c, 1, 55, 63
19, 26112, Note_on_c, 1, 58, 63
19, 26112, Note_on_c, 1, 63, 63
19, 26214, Note_off_c, 1, 50, 0
19, 26214, Note_off_c, 1, 55, 0
19, 26214, Note_off_c, 1, 58, 0
19, 26214, Note_off_c, 1, 63, 0
19, 26240, Note_on_c, 1, 50, 63
19, 26240, Note_on_c, 1, 55, 63
19, 26240, Note_on_c, 1, 58, 63
19, 26240, Note_on_c, 1, 63, 63
19, 26342, Note_off_c, 1, 50, 0
19, 26342, Note_off_c, 1, 55, 0
19, 26342, Note_off_c, 1, 58, 0
19, 26342, Note_off_c, 1, 63, 0
19, 26368, Note_on_c, 1, 50, 63
19, 26368, Note_on_c, 1, 55, 63
19, 26368, Note_on_c, 1, 58, 63
19, 26368, Note_on_c, 1, 63, 63
19, 26470, Note_off_c, 1, 50, 0
19, 26470, Note_off_c, 1, 55, 0
19, 26470, Note_off_c, 1, 58, 0
19, 26470, Note_off_c, 1, 63, 0
19, 26496, Note_on_c, 1, 50, 63
19, 26496, Note_on_c, 1, 55, 63
19, 26496, Note_on_c, 1, 58, 63
19, 26496, Note_on_c, 1, 63, 63
19, 26598, Note_off_c, 1, 50, 0
19, 26598, Note_off_c, 1, 55, 0
19, 26598, Note_off_c, 1, 58, 0
19, 26598, Note_off_c, 1, 63, 0
19, 26624, Note_on_c, 1, 50, 58
19, 26624, Note_on_c, 1, 55, 58
19, 26624, Note_on_c, 1, 58, 58
19, 26624, Note_on_c, 1, 63, 58
19, 26726, Note_off_c, 1, 50, 0
19, 26726, Note_off_c, 1, 55, 0
19, 26726, Note_off_c, 1, 58, 0
19, 26726, Note_off_c, 1, 63, 0
19, 26752, Note_on_c, 1, 50, 58
19, 26752, Note_on_c, 1, 55, 58
19, 26752, Note_on_c, 1, 58, 58
19, 26752, Note_on_c, 1, 63, 58
19, 26854, Note_off_c, 1, 50, 0
19, 26854, Note_off_c, 1, 55, 0
19, 26854, Note_off_c, 1, 58, 0
19, 26854, Note_off_c, 1, 63, 0
19, 26880, Note_on_c, 1, 50, 60
19, 26880, Note_on_c, 1, 55, 60
19, 26880, Note_on_c, 1, 58, 60
19, 26880, Note_on_c, 1, 63, 60
19, 26982, Note_off_c, 1, 50, 0
19, 26982, Note_off_c, 1, 55, 0
19, 26982, Note_off_c, 1, 58, 0
19, 26982, Note_off_c, 1, 63, 0
19, 27008, Note_on_c, 1, 50, 60
19, 27008, Note_on_c, 1, 55, 60
19, 27008, Note_on_c, 1, 58, 60
19, 27008, Note_on_c, 1, 63, 60
19, 27110, Note_off_c, 1, 50, 0
19, 27110, Note_off_c, 1, 55, 0
19, 27110, Note_off_c, 1, 58, 0
19, 27110, Note_off_c, 1, 63, 0
19, 27136, Note_on_c, 1, 50, 60
19, 27136, Note_on_c, 1, 55, 60
19, 27136, Note_on_c, 1, 58, 60
19, 27136, Note_on_c, 1, 63, 60
19, 27238, Note_off_c, 1, 50, 0
19, 27238, Note_off_c, 1, 55, 0
19, 27238, Note_off_c, 1, 58, 0
19, 27238, Note_off_c, 1, 63, 0
19, 27264, Note_on_c, 1, 50, 60
19, 27264, Note_on_c, 1, 55, 60
19, 27264, Note_on_c, 1, 58, 60
19, 27264, Note_on_c, 1, 63, 60
19, 27366, Note_off_c, 1, 50, 0
19, 27366, Note_off_c, 1, 55, 0
19, 27366, Note_off_c, 1, 58, 0
19, 27366, Note_off_c, 1, 63, 0
19, 27392, Note_on_c, 1, 50, 60
19, 27392, Note_on_c, 1, 55, 60
19, 27392, Note_on_c, 1, 58, 60
19, 27392, Note_on_c, 1, 63, 60
19, 27494, Note_off_c, 1, 50, 0
19, 27494, Note_off_c, 1, 55, 0
19, 27494, Note_off_c, 1, 58, 0
19, 27494, Note_off_c, 1, 63, 0
19, 27520, Note_on_c, 1, 50, 60
19, 27520, Note_on_c, 1, 55, 60
19, 27520, Note_on_c, 1, 58, 60
19, 27520, Note_on_c, 1, 63, 60
19, 27622, Note_off_c, 1, 50, 0
19, 27622, Note_off_c, 1, 55, 0
19, 27622, Note_off_c, 1, 58, 0
19, 27622, Note_off_c, 1, 63, 0
19, 27648, Note_on_c, 1, 58, 65
19, 27648, Note_on_c, 1, 61, 65
19, 27648, Note_on_c, 1, 65, 65
19, 27750, Note_off_c, 1, 58, 0
19, 27750, Note_off_c, 1, 61, 0
19, 27750, Note_off_c, 1, 65, 0
19, 27776, Note_on_c, 1, 58, 65
19, 27776, Note_on_c, 1, 61, 65
19, 27776, Note_on_c, 1, 65, 65
19, 27878, Note_off_c, 1, 58, 0
19, 27878, Note_off_c, 1, 61, 0
19, 27878, Note_off_c, 1, 65, 0
19, 27904, Note_on_c, 1, 58, 65
19, 27904, Note_on_c, 1, 61, 65
19, 27904, Note_on_c, 1, 65, 65
19, 28006, Note_off_c, 1, 58, 0
19, 28006, Note_off_c, 1, 61, 0
19, 28006, Note_off_c, 1, 65, 0
19, 28032, Note_on_c, 1, 58, 62
19, 28032, Note_on_c, 1, 62, 62
19, 28032, Note_on_c, 1, 66, 62
19, 28160, Note_off_c, 1, 58, 0
19, 28160, Note_off_c, 1, 62, 0
19, 28160, Note_off_c, 1, 66, 0
19, 28160, Note_on_c, 1, 58, 62
19, 28160, Note_on_c, 1, 62, 62
19, 28160, Note_on_c, 1, 66, 62
19, 28262, Note_off_c, 1, 58, 0
19, 28262, Note_off_c, 1, 62, 0
19, 28262, Note_off_c, 1, 66, 0
19, 28288, Note_on_c, 1, 58, 62
19, 28288, Note_on_c, 1, 62, 62
19, 28288, Note_on_c, 1, 66, 62
19, 28390, Note_off_c, 1, 58, 0
19, 28390, Note_off_c, 1, 62, 0
19, 28390, Note_off_c, 1, 66, 0
19, 28416, Note_on_c, 1, 58, 62
19, 28416, Note_on_c, 1, 62, 62
19, 28416, Note_on_c, 1, 66, 62
19, 28518, Note_off_c, 1, 58, 0
19, 28518, Note_off_c, 1, 62, 0
19, 28518, Note_off_c, 1, 66, 0
19, 28544, Note_on_c, 1, 58, 62
19, 28544, Note_on_c, 1, 62, 62
19, 28544, Note_on_c, 1, 66, 62
19, 28646, Note_off_c, 1, 58, 0
19, 28646, Note_off_c, 1, 62, 0
19, 28646, Note_off_c, 1, 66, 0
19, 28672, Note_on_c, 1, 58, 59
19, 28672, Note_on_c, 1, 62, 59
19, 28672, Note_on_c, 1, 66, 59
19, 28774, Note_off_c, 1, 58, 0
19, 28774, Note_off_c, 1, 62, 0
19, 28774, Note_off_c, 1, 66, 0
19, 28800, Note_on_c, 1, 58, 59
19, 28800, Note_on_c, 1, 62, 59
19, 28800, Note_on_c, 1, 66, 59
19, 28902, Note_off_c, 1, 58, 0
19, 28902, Note_off_c, 1, 62, 0
19, 28902, Note_off_c, 1, 66, 0
19, 28928, Note_on_c, 1, 57, 65
19, 28928, Note_on_c, 1, 63, 65
19, 28928, Note_on_c, 1, 67, 65
19, 29030, Note_off_c, 1, 57, 0
19, 29030, Note_off_c, 1, 63, 0
19, 29030, Note_off_c, 1, 67, 0
19, 29056, Note_on_c, 1, 57, 65
19, 29056, Note_on_c, 1, 63, 65
19, 29056, Note_on_c, 1, 67, 65
19, 29158, Note_off_c, 1, 57, 0
19, 29158, Note_off_c, 1, 63, 0
19, 29158, Note_off_c, 1, 67, 0
19, 29184, Note_on_c, 1, 57, 65
19, 29184, Note_on_c, 1, 63, 65
19, 29184, Note_on_c, 1, 67, 65
19, 29286, Note_off_c, 1, 57, 0
19, 29286, Note_off_c, 1, 63, 0
19, 29286, Note_off_c, 1, 67, 0
19, 29312, Note_on_c, 1, 57, 65
19, 29312, Note_on_c, 1, 63, 65
19, 29312, Note_on_c, 1, 67, 65
19, 29414, Note_off_c, 1, 57, 0
19, 29414, Note_off_c, 1, 63, 0
19, 29414, Note_off_c, 1, 67, 0
19, 29440, Note_on_c, 1, 57, 65
19, 29440, Note_on_c, 1, 63, 65
19, 29440, Note_on_c, 1, 67, 65
19, 29542, Note_off_c, 1, 57, 0
19, 29542, Note_off_c, 1, 63, 0
19, 29542, Note_off_c, 1, 67, 0
19, 29568, Note_on_c, 1, 57, 65
19, 29568, Note_on_c, 1, 63, 65
19, 29568, Note_on_c, 1, 67, 65
19, 29670, Note_off_c, 1, 57, 0
19, 29670, Note_off_c, 1, 63, 0
19, 29670, Note_off_c, 1, 67, 0
19, 29696, Note_on_c, 1, 57, 58
19, 29696, Note_on_c, 1, 63, 58
19, 29696, Note_on_c, 1, 67, 58
19, 29798, Note_off_c, 1, 57, 0
19, 29798, Note_off_c, 1, 63, 0
19, 29798, Note_off_c, 1, 67, 0
19, 29824, Note_on_c, 1, 57, 58
19, 29824, Note_on_c, 1, 63, 58
19, 29824, Note_on_c, 1, 67, 58
19, 29926, Note_off_c, 1, 57, 0
19, 29926, Note_off_c, 1, 63, 0
19, 29926, Note_off_c, 1, 67, 0
19, 29952, Note_on_c, 1, 57, 65
19, 29952, Note_on_c, 1, 59, 65
19, 29952, Note_on_c, 1, 63, 65
19, 29952, Note_on_c, 1, 68, 65
19, 30054, Note_off_c, 1, 57, 0
19, 30054, Note_off_c, 1, 59, 0
19, 30054, Note_off_c, 1, 63, 0
19, 30054, Note_off_c, 1, 68, 0
19, 30080, Note_on_c, 1, 57, 65
19, 30080, Note_on_c, 1, 59, 65
19, 30080, Note_on_c, 1, 63, 65
19, 30080, Note_on_c, 1, 68, 65
19, 30182, Note_off_c, 1, 57, 0
19, 30182, Note_off_c, 1, 59, 0
19, 30182, Note_off_c, 1, 63, 0
19, 30182, Note_off_c, 1, 68, 0
19, 30208, Note_on_c, 1, 57, 65
19, 30208, Note_on_c, 1, 59, 65
19, 30208, Note_on_c, 1, 63, 65
19, 30208, Note_on_c, 1, 68, 65
19, 30310, Note_off_c, 1, 57, 0
19, 30310, Note_off_c, 1, 59, 0
19, 30310, Note_off_c, 1, 63, 0
19, 30310, Note_off_c, 1, 68, 0
19, 30336, Note_on_c, 1, 57, 65
19, 30336, Note_on_c, 1, 59, 65
19, 30336, Note_on_c, 1, 63, 65
19, 30336, Note_on_c, 1, 68, 65
19, 30438, Note_off_c, 1, 57, 0
19, 30438, Note_off_c, 1, 59, 0
19, 30438, Note_off_c, 1, 63, 0
19, 30438, Note_off_c, 1, 68, 0
19, 30464, Note_on_c, 1, 57, 65
19, 30464, Note_on_c, 1, 59, 65
19, 30464, Note_on_c, 1, 63, 65
19, 30464, Note_on_c, 1, 68, 65
19, 30566, Note_off_c, 1, 57, 0
19, 30566, Note_off_c, 1, 59, 0
19, 30566, Note_off_c, 1, 63, 0
19, 30566, Note_off_c, 1, 68, 0
19, 30592, Note_on_c, 1, 57, 65
19, 30592, Note_on_c, 1, 59, 65
19, 30592, Note_on_c, 1, 63, 65
19, 30592, Note_on_c, 1, 68, 65
19, 30694, Note_off_c, 1, 57, 0
19, 30694, Note_off_c, 1, 59, 0
19, 30694, Note_off_c, 1, 63, 0
19, 30694, Note_off_c, 1, 68, 0
19, 30720, Note_on_c, 1, 60, 60
19, 30720, Note_on_c, 1, 63, 60
19, 30720, Note_on_c, 1, 68, 60
19, 30822, Note_off_c, 1, 60, 0
19, 30822, Note_off_c, 1, 63, 0
19, 30822, Note_off_c, 1, 68, 0
19, 30848, Note_on_c, 1, 60, 60
19, 30848, Note_on_c, 1, 63, 60
19, 30848, Note_on_c, 1, 68, 60
19, 30950, Note_off_c, 1, 60, 0
19, 30950, Note_off_c, 1, 63, 0
19, 30950, Note_off_c, 1, 68, 0
19, 30976, Note_on_c, 1, 60, 60
19, 30976, Note_on_c, 1, 63, 60
19, 30976, Note_on_c, 1, 68, 60
19, 31078, Note_off_c, 1, 60, 0
19, 31078, Note_off_c, 1, 63, 0
19, 31078, Note_off_c, 1, 68, 0
19, 31104, Note_on_c, 1, 60, 64
19, 31104, Note_on_c, 1, 63, 64
19, 31104, Note_on_c, 1, 69, 64
19, 31232, Note_off_c, 1, 60, 0
19, 31232, Note_off_c, 1, 63, 0
19, 31232, Note_off_c, 1, 69, 0
19, 31232, Note_on_c, 1, 60, 61
19, 31232, Note_on_c, 1, 63, 61
19, 31232, Note_on_c, 1, 69, 61
19, 31334, Note_off_c, 1, 60, 0
19, 31334, Note_off_c, 1, 63, 0
19, 31334, Note_off_c, 1, 69, 0
19, 31360, Note_on_c, 1, 60, 61
19, 31360, Note_on_c, 1, 63, 61
19, 31360, Note_on_c, 1, 69, 61
19, 31462, Note_off_c, 1, 60, 0
19, 31462, Note_off_c, 1, 63, 0
19, 31462, Note_off_c, 1, 69, 0
19, 31488, Note_on_c, 1, 60, 58
19, 31488, Note_on_c, 1, 64, 58
19, 31488, Note_on_c, 1, 68, 58
19, 31590, Note_off_c, 1, 60, 0
19, 31590, Note_off_c, 1, 64, 0
19, 31590, Note_off_c, 1, 68, 0
19, 31616, Note_on_c, 1, 60, 58
19, 31616, Note_on_c, 1, 64, 58
19, 31616, Note_on_c, 1, 68, 58
19, 31718, Note_off_c, 1, 60, 0
19, 31718, Note_off_c, 1, 64, 0
19, 31718, Note_off_c, 1, 68, 0
19, 31744, Note_on_c, 1, 60, 58
19, 31744, Note_on_c, 1, 63, 58
19, 31744, Note_on_c, 1, 68, 58
19, 31846, Note_off_c, 1, 60, 0
19, 31846, Note_off_c, 1, 63, 0
19, 31846, Note_off_c, 1, 68, 0
19, 31872, Note_on_c, 1, 60, 58
19, 31872, Note_on_c, 1, 63, 58
19, 31872, Note_on_c, 1, 68, 58
19, 31974, Note_off_c, 1, 60, 0
19, 31974, Note_off_c, 1, 63, 0
19, 31974, Note_off_c, 1, 68, 0
19, 32000, Note_on_c, 1, 60, 64
19, 32000, Note_on_c, 1, 63, 64
19, 32000, Note_on_c, 1, 69, 64
19, 32102, Note_off_c, 1, 60, 0
19, 32102, Note_off_c, 1, 63, 0
19, 32102, Note_off_c, 1, 69, 0
19, 32128, Note_on_c, 1, 60, 64
19, 32128, Note_on_c, 1, 63, 64
19, 32128, Note_on_c, 1, 69, 64
19, 32230, Note_off_c, 1, 60, 0
19, 32230, Note_off_c, 1, 63, 0
19, 32230, Note_off_c, 1, 69, 0
19, 32256, Note_on_c, 1, 60, 64
19, 32256, Note_on_c, 1, 63, 64
19, 32256, Note_on_c, 1, 69, 64
19, 32358, Note_off_c, 1, 60, 0
19, 32358, Note_off_c, 1, 63, 0
19, 32358, Note_off_c, 1, 69, 0
19, 32384, Note_on_c, 1, 60, 64
19, 32384, Note_on_c, 1, 63, 64
19, 32384, Note_on_c, 1, 69, 64
19, 32486, Note_off_c, 1, 60, 0
19, 32486, Note_off_c, 1, 63, 0
19, 32486, Note_off_c, 1, 69, 0
19, 32512, Note_on_c, 1, 61, 59
19, 32512, Note_on_c, 1, 63, 59
19, 32512, Note_on_c, 1, 69, 59
19, 32614, Note_off_c, 1, 61, 0
19, 32614, Note_off_c, 1, 63, 0
19, 32614, Note_off_c, 1, 69, 0
19, 32640, Note_on_c, 1, 61, 59
19, 32640, Note_on_c, 1, 63, 59
19, 32640, Note_on_c, 1, 69, 59
19, 32742, Note_off_c, 1, 61, 0
19, 32742, Note_off_c, 1, 63, 0
19, 32742, Note_off_c, 1, 69, 0
19, 32768, Note_on_c, 1, 61, 60
19, 32768, Note_on_c, 1, 63, 60
19, 32768, Note_on_c, 1, 69, 60
19, 32870, Note_off_c, 1, 61, 0
19, 32870, Note_off_c, 1, 63, 0
19, 32870, Note_off_c, 1, 69, 0
19, 32896, Note_on_c, 1, 61, 60
19, 32896, Note_on_c, 1, 63, 60
19, 32896, Note_on_c, 1, 69, 60
19, 32998, Note_off_c, 1, 61, 0
19, 32998, Note_off_c, 1, 63, 0
19, 32998, Note_off_c, 1, 69, 0
19, 33024, Note_on_c, 1, 61, 60
19, 33024, Note_on_c, 1, 63, 60
19, 33024, Note_on_c, 1, 69, 60
19, 33126, Note_off_c, 1, 61, 0
19, 33126, Note_off_c, 1, 63, 0
19, 33126, Note_off_c, 1, 69, 0
19, 33152, Note_on_c, 1, 61, 60
19, 33152, Note_on_c, 1, 63, 60
19, 33152, Note_on_c, 1, 69, 60
19, 33254, Note_off_c, 1, 61, 0
19, 33254, Note_off_c, 1, 63, 0
19, 33254, Note_off_c, 1, 69, 0
19, 33280, Note_on_c, 1, 61, 57
19, 33280, Note_on_c, 1, 63, 57
19, 33280, Note_on_c, 1, 69, 57
19, 33382, Note_off_c, 1, 61, 0
19, 33382, Note_off_c, 1, 63, 0
19, 33382, Note_off_c, 1, 69, 0
19, 33408, Note_on_c, 1, 61, 57
19, 33408, Note_on_c, 1, 63, 57
19, 33408, Note_on_c, 1, 69, 57
19, 33510, Note_off_c, 1, 61, 0
19, 33510, Note_off_c, 1, 63, 0
19, 33510, Note_off_c, 1, 69, 0
19, 33536, Note_on_c, 1, 61, 57
19, 33536, Note_on_c, 1, 63, 57
19, 33536, Note_on_c, 1, 69, 57
19, 33638, Note_off_c, 1, 61, 0
19, 33638, Note_off_c, 1, 63, 0
19, 33638, Note_off_c, 1, 69, 0
19, 33664, Note_on_c, 1, 61, 57
19, 33664, Note_on_c, 1, 63, 57
19, 33664, Note_on_c, 1, 69, 57
19, 33766, Note_off_c, 1, 61, 0
19, 33766, Note_off_c, 1, 63, 0
19, 33766, Note_off_c, 1, 69, 0
19, 33792, Note_on_c, 1, 61, 63
19, 33792, Note_on_c, 1, 63, 63
19, 33792, Note_on_c, 1, 69, 63
19, 33894, Note_off_c, 1, 61, 0
19, 33894, Note_off_c, 1, 63, 0
19, 33894, Note_off_c, 1, 69, 0
19, 33920, Note_on_c, 1, 61, 63
19, 33920, Note_on_c, 1, 63, 63
19, 33920, Note_on_c, 1, 69, 63
19, 34022, Note_off_c, 1, 61, 0
19, 34022, Note_off_c, 1, 63, 0
19, 34022, Note_off_c, 1, 69, 0
19, 34048, Note_on_c, 1, 60, 58
19, 34048, Note_on_c, 1, 63, 58
19, 34048, Note_on_c, 1, 68, 58
19, 34150, Note_off_c, 1, 60, 0
19, 34150, Note_off_c, 1, 63, 0
19, 34150, Note_off_c, 1, 68, 0
19, 34176, Note_on_c, 1, 60, 58
19, 34176, Note_on_c, 1, 63, 58
19, 34176, Note_on_c, 1, 68, 58
19, 34278, Note_off_c, 1, 60, 0
19, 34278, Note_off_c, 1, 63, 0
19, 34278, Note_off_c, 1, 68, 0
19, 34304, Note_on_c, 1, 60, 58
19, 34304, Note_on_c, 1, 63, 58
19, 34304, Note_on_c, 1, 68, 58
19, 34406, Note_off_c, 1, 60, 0
19, 34406, Note_off_c, 1, 63, 0
19, 34406, Note_off_c, 1, 68, 0
19, 34432, Note_on_c, 1, 61, 60
19, 34432, Note_on_c, 1, 64, 60
19, 34432, Note_on_c, 1, 69, 60
19, 34534, Note_off_c, 1, 61, 0
19, 34534, Note_off_c, 1, 64, 0
19, 34534, Note_off_c, 1, 69, 0
19, 34560, Note_on_c, 1, 61, 60
19, 34560, Note_on_c, 1, 64, 60
19, 34560, Note_on_c, 1, 69, 60
19, 34662, Note_off_c, 1, 61, 0
19, 34662, Note_off_c, 1, 64, 0
19, 34662, Note_off_c, 1, 69, 0
19, 34688, Note_on_c, 1, 61, 60
19, 34688, Note_on_c, 1, 64, 60
19, 34688, Note_on_c, 1, 69, 60
19, 34790, Note_off_c, 1, 61, 0
19, 34790, Note_off_c, 1, 64, 0
19, 34790, Note_off_c, 1, 69, 0
19, 34816, Note_on_c, 1, 61, 55
19, 34816, Note_on_c, 1, 64, 55
19, 34816, Note_on_c, 1, 69, 55
19, 34918, Note_off_c, 1, 61, 0
19, 34918, Note_off_c, 1, 64, 0
19, 34918, Note_off_c, 1, 69, 0
19, 34944, Note_on_c, 1, 61, 55
19, 34944, Note_on_c, 1, 64, 55
19, 34944, Note_on_c, 1, 69, 55
19, 35046, Note_off_c, 1, 61, 0
19, 35046, Note_off_c, 1, 64, 0
19, 35046, Note_off_c, 1, 69, 0
19, 35072, Note_on_c, 1, 61, 55
19, 35072, Note_on_c, 1, 64, 55
19, 35072, Note_on_c, 1, 69, 55
19, 35174, Note_off_c, 1, 61, 0
19, 35174, Note_off_c, 1, 64, 0
19, 35174, Note_off_c, 1, 69, 0
19, 35200, Note_on_c, 1, 61, 55
19, 35200, Note_on_c, 1, 64, 55
19, 35200, Note_on_c, 1, 69, 55
19, 35302, Note_off_c, 1, 61, 0
19, 35302, Note_off_c, 1, 64, 0
19, 35302, Note_off_c, 1, 69, 0
19, 35328, Note_on_c, 1, 61, 55
19, 35328, Note_on_c, 1, 64, 55
19, 35328, Note_on_c, 1, 69, 55
19, 35430, Note_off_c, 1, 61, 0
19, 35430, Note_off_c, 1, 64, 0
19, 35430, Note_off_c, 1, 69, 0
19, 35456, Note_on_c, 1, 61, 55
19, 35456, Note_on_c, 1, 64, 55
19, 35456, Note_on_c, 1, 69, 55
19, 35558, Note_off_c, 1, 61, 0
19, 35558, Note_off_c, 1, 64, 0
19, 35558, Note_off_c, 1, 69, 0
19, 35584, Note_on_c, 1, 56, 61
19, 35584, Note_on_c, 1, 62, 61
19, 35584, Note_on_c, 1, 65, 61
19, 35584, Note_on_c, 1, 70, 61
19, 35686, Note_off_c, 1, 56, 0
19, 35686, Note_off_c, 1, 62, 0
19, 35686, Note_off_c, 1, 65, 0
19, 35686, Note_off_c, 1, 70, 0
19, 35712, Note_on_c, 1, 56, 61
19, 35712, Note_on_c, 1, 62, 61
19, 35712, Note_on_c, 1, 65, 61
19, 35712, Note_on_c, 1, 70, 61
19, 35814, Note_off_c, 1, 56, 0
19, 35814, Note_off_c, 1, 62, 0
19, 35814, Note_off_c, 1, 65, 0
19, 35814, Note_off_c, 1, 70, 0
19, 35840, Note_on_c, 1, 56, 57
19, 35840, Note_on_c, 1, 62, 57
19, 35840, Note_on_c, 1, 65, 57
19, 35840, Note_on_c, 1, 70, 57
19, 35942, Note_off_c, 1, 56, 0
19, 35942, Note_off_c, 1, 62, 0
19, 35942, Note_off_c, 1, 65, 0
19, 35942, Note_off_c, 1, 70, 0
19, 35968, Note_on_c, 1, 56, 57
19, 35968, Note_on_c, 1, 62, 57
19, 35968, Note_on_c, 1, 65, 57
19, 35968, Note_on_c, 1, 70, 57
19, 36070, Note_off_c, 1, 56, 0
19, 36070, Note_off_c, 1, 62, 0
19, 36070, Note_off_c, 1, 65, 0
19, 36070, Note_off_c, 1, 70, 0
19, 36096, Note_on_c, 1, 56, 57
19, 36096, Note_on_c, 1, 62, 57
19, 36096, Note_on_c, 1, 65, 57
19, 36096, Note_on_c, 1, 70, 57
19, 36198, Note_off_c, 1, 56, 0
19, 36198, Note_off_c, 1, 62, 0
19, 36198, Note_off_c, 1, 65, 0
19, 36198, Note_off_c, 1, 70, 0
19, 36224, Note_on_c, 1, 56, 57
19, 36224, Note_on_c, 1, 62, 57
19, 36224, Note_on_c, 1, 65, 57
19, 36224, Note_on_c, 1, 70, 57
19, 36326, Note_off_c, 1, 56, 0
19, 36326, Note_off_c, 1, 62, 0
19, 36326, Note_off_c, 1, 65, 0
19, 36326, Note_off_c, 1, 70, 0
19, 36352, Note_on_c, 1, 56, 57
19, 36352, Note_on_c, 1, 62, 57
19, 36352, Note_on_c, 1, 65, 57
19, 36352, Note_on_c, 1, 70, 57
19, 36454, Note_off_c, 1, 56, 0
19, 36454, Note_off_c, 1, 62, 0
19, 36454, Note_off_c, 1, 65, 0
19, 36454, Note_off_c, 1, 70, 0
19, 36480, Note_on_c, 1, 56, 57
19, 36480, Note_on_c, 1, 62, 57
19, 36480, Note_on_c, 1, 65, 57
19, 36480, Note_on_c, 1, 70, 57
19, 36582, Note_off_c, 1, 56, 0
19, 36582, Note_off_c, 1, 62, 0
19, 36582, Note_off_c, 1, 65, 0
19, 36582, Note_off_c, 1, 70, 0
19, 36608, Note_on_c, 1, 59, 64
19, 36608, Note_on_c, 1, 65, 64
19, 36608, Note_on_c, 1, 67, 64
19, 36608, Note_on_c, 1, 71, 64
19, 36710, Note_off_c, 1, 59, 0
19, 36710, Note_off_c, 1, 65, 0
19, 36710, Note_off_c, 1, 67, 0
19, 36710, Note_off_c, 1, 71, 0
19, 36736, Note_on_c, 1, 59, 64
19, 36736, Note_on_c, 1, 65, 64
19, 36736, Note_on_c, 1, 67, 64
19, 36736, Note_on_c, 1, 71, 64
19, 36838, Note_off_c, 1, 59, 0
19, 36838, Note_off_c, 1, 65, 0
19, 36838, Note_off_c, 1, 67, 0
19, 36838, Note_off_c, 1, 71, 0
19, 36864, Note_on_c, 1, 59, 54
19, 36864, Note_on_c, 1, 65, 54
19, 36864, Note_on_c, 1, 67, 54
19, 36864, Note_on_c, 1, 71, 54
19, 36966, Note_off_c, 1, 59, 0
19, 36966, Note_off_c, 1, 65, 0
19, 36966, Note_off_c, 1, 67, 0
19, 36966, Note_off_c, 1, 71, 0
19, 36992, Note_on_c, 1, 59, 54
19, 36992, Note_on_c, 1, 65, 54
19, 36992, Note_on_c, 1, 67, 54
19, 36992, Note_on_c, 1, 71, 54
19, 37094, Note_off_c, 1, 59, 0
19, 37094, Note_off_c, 1, 65, 0
19, 37094, Note_off_c, 1, 67, 0
19, 37094, Note_off_c, 1, 71, 0
19, 37120, Note_on_c, 1, 59, 54
19, 37120, Note_on_c, 1, 65, 54
19, 37120, Note_on_c, 1, 67, 54
19, 37120, Note_on_c, 1, 71, 54
19, 37222, Note_off_c, 1, 59, 0
19, 37222, Note_off_c, 1, 65, 0
19, 37222, Note_off_c, 1, 67, 0
19, 37222, Note_off_c, 1, 71, 0
19, 37248, Note_on_c, 1, 59, 54
19, 37248, Note_on_c, 1, 65, 54
19, 37248, Note_on_c, 1, 67, 54
19, 37248, Note_on_c, 1, 71, 54
19, 37350, Note_off_c, 1, 59, 0
19, 37350, Note_off_c, 1, 65, 0
19, 37350, Note_off_c, 1, 67, 0
19, 37350, Note_off_c, 1, 71, 0
19, 37376, Note_on_c, 1, 59, 54
19, 37376, Note_on_c, 1, 65, 54
19, 37376, Note_on_c, 1, 67, 54
19, 37376, Note_on_c, 1, 71, 54
19, 37478, Note_off_c, 1, 59, 0
19, 37478, Note_off_c, 1, 65, 0
19, 37478, Note_off_c, 1, 67, 0
19, 37478, Note_off_c, 1, 71, 0
19, 37504, Note_on_c, 1, 59, 54
19, 37504, Note_on_c, 1, 65, 54
19, 37504, Note_on_c, 1, 67, 54
19, 37504, Note_on_c, 1, 71, 54
19, 37606, Note_off_c, 1, 59, 0
19, 37606, Note_off_c, 1, 65, 0
19, 37606, Note_off_c, 1, 67, 0
19, 37606, Note_off_c, 1, 71, 0
19, 37632, Note_on_c, 1, 55, 54
19, 37632, Note_on_c, 1, 60, 54
19, 37632, Note_on_c, 1, 64, 54
19, 37632, Note_on_c, 1, 70, 54
19, 37734, Note_off_c, 1, 55, 0
19, 37734, Note_off_c, 1, 60, 0
19, 37734, Note_off_c, 1, 64, 0
19, 37734, Note_off_c, 1, 70, 0
19, 37760, Note_on_c, 1, 55, 54
19, 37760, Note_on_c, 1, 60, 54
19, 37760, Note_on_c, 1, 64, 54
19, 37760, Note_on_c, 1, 70, 54
19, 37862, Note_off_c, 1, 55, 0
19, 37862, Note_off_c, 1, 60, 0
19, 37862, Note_off_c, 1, 64, 0
19, 37862, Note_off_c, 1, 70, 0
19, 37888, Note_on_c, 1, 55, 66
19, 37888, Note_on_c, 1, 60, 66
19, 37888, Note_on_c, 1, 64, 66
19, 37888, Note_on_c, 1, 70, 66
19, 37990, Note_off_c, 1, 55, 0
19, 37990, Note_off_c, 1, 60, 0
19, 37990, Note_off_c, 1, 64, 0
19, 37990, Note_off_c, 1, 70, 0
19, 38016, Note_on_c, 1, 55, 66
19, 38016, Note_on_c, 1, 60, 66
19, 38016, Note_on_c, 1, 64, 66
19, 38016, Note_on_c, 1, 70, 66
19, 38118, Note_off_c, 1, 55, 0
19, 38118, Note_off_c, 1, 60, 0
19, 38118, Note_off_c, 1, 64, 0
19, 38118, Note_off_c, 1, 70, 0
19, 38144, Note_on_c, 1, 55, 66
19, 38144, Note_on_c, 1, 60, 66
19, 38144, Note_on_c, 1, 64, 66
19, 38144, Note_on_c, 1, 70, 66
19, 38246, Note_off_c, 1, 55, 0
19, 38246, Note_off_c, 1, 60, 0
19, 38246, Note_off_c, 1, 64, 0
19, 38246, Note_off_c, 1, 70, 0
19, 38272, Note_on_c, 1, 55, 66
19, 38272, Note_on_c, 1, 60, 66
19, 38272, Note_on_c, 1, 64, 66
19, 38272, Note_on_c, 1, 70, 66
19, 38374, Note_off_c, 1, 55, 0
19, 38374, Note_off_c, 1, 60, 0
19, 38374, Note_off_c, 1, 64, 0
19, 38374, Note_off_c, 1, 70, 0
19, 38400, Note_on_c, 1, 55, 61
19, 38400, Note_on_c, 1, 60, 61
19, 38400, Note_on_c, 1, 64, 61
19, 38400, Note_on_c, 1, 70, 61
19, 38502, Note_off_c, 1, 55, 0
19, 38502, Note_off_c, 1, 60, 0
19, 38502, Note_off_c, 1, 64, 0
19, 38502, Note_off_c, 1, 70, 0
19, 38528, Note_on_c, 1, 55, 61
19, 38528, Note_on_c, 1, 60, 61
19, 38528, Note_on_c, 1, 64, 61
19, 38528, Note_on_c, 1, 70, 61
19, 38630, Note_off_c, 1, 55, 0
19, 38630, Note_off_c, 1, 60, 0
19, 38630, Note_off_c, 1, 64, 0
19, 38630, Note_off_c, 1, 70, 0
19, 38656, Note_on_c, 1, 55, 61
19, 38656, Note_on_c, 1, 60, 61
19, 38656, Note_on_c, 1, 64, 61
19, 38656, Note_on_c, 1, 70, 61
19, 38758, Note_off_c, 1, 55, 0
19, 38758, Note_off_c, 1, 60, 0
19, 38758, Note_off_c, 1, 64, 0
19, 38758, Note_off_c, 1, 70, 0
19, 38784, Note_on_c, 1, 55, 61
19, 38784, Note_on_c, 1, 60, 61
19, 38784, Note_on_c, 1, 64, 61
19, 38784, Note_on_c, 1, 70, 61
19, 38886, Note_off_c, 1, 55, 0
19, 38886, Note_off_c, 1, 60, 0
19, 38886, Note_off_c, 1, 64, 0
19, 38886, Note_off_c, 1, 70, 0
19, 38912, Note_on_c, 1, 55, 60
19, 38912, Note_on_c, 1, 60, 60
19, 38912, Note_on_c, 1, 64, 60
19, 38912, Note_on_c, 1, 70, 60
19, 39014, Note_off_c, 1, 55, 0
19, 39014, Note_off_c, 1, 60, 0
19, 39014, Note_off_c, 1, 64, 0
19, 39014, Note_off_c, 1, 70, 0
19, 39040, Note_on_c, 1, 55, 60
19, 39040, Note_on_c, 1, 60, 60
19, 39040, Note_on_c, 1, 64, 60
19, 39040, Note_on_c, 1, 70, 60
19, 39142, Note_off_c, 1, 55, 0
19, 39142, Note_off_c, 1, 60, 0
19, 39142, Note_off_c, 1, 64, 0
19, 39142, Note_off_c, 1, 70, 0
19, 39168, Note_on_c, 1, 55, 60
19, 39168, Note_on_c, 1, 60, 60
19, 39168, Note_on_c, 1, 64, 60
19, 39168, Note_on_c, 1, 70, 60
19, 39270, Note_off_c, 1, 55, 0
19, 39270, Note_off_c, 1, 60, 0
19, 39270, Note_off_c, 1, 64, 0
19, 39270, Note_off_c, 1, 70, 0
19, 39296, Note_on_c, 1, 55, 60
19, 39296, Note_on_c, 1, 60, 60
19, 39296, Note_on_c, 1, 64, 60
19, 39296, Note_on_c, 1, 70, 60
19, 39398, Note_off_c, 1, 55, 0
19, 39398, Note_off_c, 1, 60, 0
19, 39398, Note_off_c, 1, 64, 0
19, 39398, Note_off_c, 1, 70, 0
19, 39424, Note_on_c, 1, 55, 60
19, 39424, Note_on_c, 1, 60, 60
19, 39424, Note_on_c, 1, 64, 60
19, 39424, Note_on_c, 1, 70, 60
19, 39526, Note_off_c, 1, 55, 0
19, 39526, Note_off_c, 1, 60, 0
19, 39526, Note_off_c, 1, 64, 0
19, 39526, Note_off_c, 1, 70, 0
19, 39552, Note_on_c, 1, 55, 60
19, 39552, Note_on_c, 1, 60, 60
19, 39552, Note_on_c, 1, 64, 60
19, 39552, Note_on_c, 1, 70, 60
19, 39654, Note_off_c, 1, 55, 0
19, 39654, Note_off_c, 1, 60, 0
19, 39654, Note_off_c, 1, 64, 0
19, 39654, Note_off_c, 1, 70, 0
19, 39680, Note_on_c, 1, 59, 58
19, 39680, Note_on_c, 1, 65, 58
19, 39680, Note_on_c, 1, 68, 58
19, 39782, Note_off_c, 1, 59, 0
19, 39782, Note_off_c, 1, 65, 0
19, 39782, Note_off_c, 1, 68, 0
19, 39808, Note_on_c, 1, 59, 58
19, 39808, Note_on_c, 1, 65, 58
19, 39808, Note_on_c, 1, 68, 58
19, 39910, Note_off_c, 1, 59, 0
19, 39910, Note_off_c, 1, 65, 0
19, 39910, Note_off_c, 1, 68, 0
19, 39936, Note_on_c, 1, 59, 60
19, 39936, Note_on_c, 1, 65, 60
19, 39936, Note_on_c, 1, 68, 60
19, 40038, Note_off_c, 1, 59, 0
19, 40038, Note_off_c, 1, 65, 0
19, 40038, Note_off_c, 1, 68, 0
19, 40064, Note_on_c, 1, 59, 60
19, 40064, Note_on_c, 1, 65, 60
19, 40064, Note_on_c, 1, 68, 60
19, 40166, Note_off_c, 1, 59, 0
19, 40166, Note_off_c, 1, 65, 0
19, 40166, Note_off_c, 1, 68, 0
19, 40192, Note_on_c, 1, 59, 60
19, 40192, Note_on_c, 1, 65, 60
19, 40192, Note_on_c, 1, 68, 60
19, 40294, Note_off_c, 1, 59, 0
19, 40294, Note_off_c, 1, 65, 0
19, 40294, Note_off_c, 1, 68, 0
19, 40320, Note_on_c, 1, 59, 60
19, 40320, Note_on_c, 1, 65, 60
19, 40320, Note_on_c, 1, 68, 60
19, 40422, Note_off_c, 1, 59, 0
19, 40422, Note_off_c, 1, 65, 0
19, 40422, Note_off_c, 1, 68, 0
19, 40448, Note_on_c, 1, 59, 60
19, 40448, Note_on_c, 1, 65, 60
19, 40448, Note_on_c, 1, 68, 60
19, 40550, Note_off_c, 1, 59, 0
19, 40550, Note_off_c, 1, 65, 0
19, 40550, Note_off_c, 1, 68, 0
19, 40576, Note_on_c, 1, 59, 60
19, 40576, Note_on_c, 1, 65, 60
19, 40576, Note_on_c, 1, 68, 60
19, 40678, Note_off_c, 1, 59, 0
19, 40678, Note_off_c, 1, 65, 0
19, 40678, Note_off_c, 1, 68, 0
19, 40704, Note_on_c, 1, 56, 68
19, 40704, Note_on_c, 1, 62, 68
19, 40704, Note_on_c, 1, 65, 68
19, 40704, Note_on_c, 1, 72, 68
19, 40806, Note_off_c, 1, 56, 0
19, 40806, Note_off_c, 1, 62, 0
19, 40806, Note_off_c, 1, 65, 0
19, 40806, Note_off_c, 1, 72, 0
19, 40832, Note_on_c, 1, 56, 68
19, 40832, Note_on_c, 1, 62, 68
19, 40832, Note_on_c, 1, 65, 68
19, 40832, Note_on_c, 1, 72, 68
19, 40934, Note_off_c, 1, 56, 0
19, 40934, Note_off_c, 1, 62, 0
19, 40934, Note_off_c, 1, 65, 0
19, 40934, Note_off_c, 1, 72, 0
19, 40960, Note_on_c, 1, 56, 59
19, 40960, Note_on_c, 1, 62, 59
19, 40960, Note_on_c, 1, 65, 59
19, 40960, Note_on_c, 1, 72, 59
19, 41062, Note_off_c, 1, 56, 0
19, 41062, Note_off_c, 1, 62, 0
19, 41062, Note_off_c, 1, 65, 0
19, 41062, Note_off_c, 1, 72, 0
19, 41088, Note_on_c, 1, 56, 59
19, 41088, Note_on_c, 1, 62, 59
19, 41088, Note_on_c, 1, 65, 59
19, 41088, Note_on_c, 1, 72, 59
19, 41190, Note_off_c, 1, 56, 0
19, 41190, Note_off_c, 1, 62, 0
19, 41190, Note_off_c, 1, 65, 0
19, 41190, Note_off_c, 1, 72, 0
19, 41216, Note_on_c, 1, 56, 59
19, 41216, Note_on_c, 1, 62, 59
19, 41216, Note_on_c, 1, 65, 59
19, 41216, Note_on_c, 1, 72, 59
19, 41318, Note_off_c, 1, 56, 0
19, 41318, Note_off_c, 1, 62, 0
19, 41318, Note_off_c, 1, 65, 0
19, 41318, Note_off_c, 1, 72, 0
19, 41344, Note_on_c, 1, 56, 59
19, 41344, Note_on_c, 1, 62, 59
19, 41344, Note_on_c, 1, 65, 59
19, 41344, Note_on_c, 1, 72, 59
19, 41446, Note_off_c, 1, 56, 0
19, 41446, Note_off_c, 1, 62, 0
19, 41446, Note_off_c, 1, 65, 0
19, 41446, Note_off_c, 1, 72, 0
19, 41472, Note_on_c, 1, 60, 63
19, 41472, Note_on_c, 1, 65, 63
19, 41472, Note_on_c, 1, 68, 63
19, 41472, Note_on_c, 1, 72, 63
19, 41574, Note_off_c, 1, 60, 0
19, 41574, Note_off_c, 1, 65, 0
19, 41574, Note_off_c, 1, 68, 0
19, 41574, Note_off_c, 1, 72, 0
19, 41600, Note_on_c, 1, 60, 63
19, 41600, Note_on_c, 1, 65, 63
19, 41600, Note_on_c, 1, 68, 63
19, 41600, Note_on_c, 1, 72, 63
19, 41702, Note_off_c, 1, 60, 0
19, 41702, Note_off_c, 1, 65, 0
19, 41702, Note_off_c, 1, 68, 0
19, 41702, Note_off_c, 1, 72, 0
19, 41728, Note_on_c, 1, 60, 63
19, 41728, Note_on_c, 1, 65, 63
19, 41728, Note_on_c, 1, 68, 63
19, 41728, Note_on_c, 1, 72, 63
19, 41830, Note_off_c, 1, 60, 0
19, 41830, Note_off_c, 1, 65, 0
19, 41830, Note_off_c, 1, 68, 0
19, 41830, Note_off_c, 1, 72, 0
19, 41856, Note_on_c, 1, 60, 63
19, 41856, Note_on_c, 1, 65, 63
19, 41856, Note_on_c, 1, 68, 63
19, 41856, Note_on_c, 1, 72, 63
19, 41958, Note_off_c, 1, 60, 0
19, 41958, Note_off_c, 1, 65, 0
19, 41958, Note_off_c, 1, 68, 0
19, 41958, Note_off_c, 1, 72, 0
19, 41984, Note_on_c, 1, 60, 60
19, 41984, Note_on_c, 1, 65, 60
19, 41984, Note_on_c, 1, 68, 60
19, 41984, Note_on_c, 1, 72, 60
19, 42086, Note_off_c, 1, 60, 0
19, 42086, Note_off_c, 1, 65, 0
19, 42086, Note_off_c, 1, 68, 0
19, 42086, Note_off_c, 1, 72, 0
19, 42112, Note_on_c, 1, 60, 60
19, 42112, Note_on_c, 1, 65, 60
19, 42112, Note_on_c, 1, 68, 60
19, 42112, Note_on_c, 1, 72, 60
19, 42214, Note_off_c, 1, 60, 0
19, 42214, Note_off_c, 1, 65, 0
19, 42214, Note_off_c, 1, 68, 0
19, 42214, Note_off_c, 1, 72, 0
19, 42240, Note_on_c, 1, 55, 58
19, 42240, Note_on_c, 1, 62, 58
19, 42240, Note_on_c, 1, 65, 58
19, 42240, Note_on_c, 1, 70, 58
19, 42342, Note_off_c, 1, 55, 0
19, 42342, Note_off_c, 1, 62, 0
19, 42342, Note_off_c, 1, 65, 0
19, 42342, Note_off_c, 1, 70, 0
19, 42368, Note_on_c, 1, 55, 58
19, 42368, Note_on_c, 1, 62, 58
19, 42368, Note_on_c, 1, 65, 58
19, 42368, Note_on_c, 1, 70, 58
19, 42470, Note_off_c, 1, 55, 0
19, 42470, Note_off_c, 1, 62, 0
19, 42470, Note_off_c, 1, 65, 0
19, 42470, Note_off_c, 1, 70, 0
19, 42496, Note_on_c, 1, 55, 58
19, 42496, Note_on_c, 1, 62, 58
19, 42496, Note_on_c, 1, 65, 58
19, 42496, Note_on_c, 1, 70, 58
19, 42598, Note_off_c, 1, 55, 0
19, 42598, Note_off_c, 1, 62, 0
19, 42598, Note_off_c, 1, 65, 0
19, 42598, Note_off_c, 1, 70, 0
19, 42624, Note_on_c, 1, 55, 58
19, 42624, Note_on_c, 1, 62, 58
19, 42624, Note_on_c, 1, 65, 58
19, 42624, Note_on_c, 1, 70, 58
19, 42726, Note_off_c, 1, 55, 0
19, 42726, Note_off_c, 1, 62, 0
19, 42726, Note_off_c, 1, 65, 0
19, 42726, Note_off_c, 1, 70, 0
19, 42752, Note_on_c, 1, 55, 58
19, 42752, Note_on_c, 1, 62, 58
19, 42752, Note_on_c, 1, 65, 58
19, 42752, Note_on_c, 1, 70, 58
19, 42854, Note_off_c, 1, 55, 0
19, 42854, Note_off_c, 1, 62, 0
19, 42854, Note_off_c, 1, 65, 0
19, 42854, Note_off_c, 1, 70, 0
19, 42880, Note_on_c, 1, 55, 58
19, 42880, Note_on_c, 1, 62, 58
19, 42880, Note_on_c, 1, 65, 58
19, 42880, Note_on_c, 1, 70, 58
19, 42982, Note_off_c, 1, 55, 0
19, 42982, Note_off_c, 1, 62, 0
19, 42982, Note_off_c, 1, 65, 0
19, 42982, Note_off_c, 1, 70, 0
19, 43008, Note_on_c, 1, 55, 57
19, 43008, Note_on_c, 1, 62, 57
19, 43008, Note_on_c, 1, 65, 57
19, 43008, Note_on_c, 1, 70, 57
19, 43110, Note_off_c, 1, 55, 0
19, 43110, Note_off_c, 1, 62, 0
19, 43110, Note_off_c, 1, 65, 0
19, 43110, Note_off_c, 1, 70, 0
19, 43136, Note_on_c, 1, 55, 57
19, 43136, Note_on_c, 1, 62, 57
19, 43136, Note_on_c, 1, 65, 57
19, 43136, Note_on_c, 1, 70, 57
19, 43238, Note_off_c, 1, 55, 0
19, 43238, Note_off_c, 1, 62, 0
19, 43238, Note_off_c, 1, 65, 0
19, 43238, Note_off_c, 1, 70, 0
19, 43264, Note_on_c, 1, 50, 63
19, 43264, Note_on_c, 1, 62, 63
19, 43264, Note_on_c, 1, 65, 63
19, 43264, Note_on_c, 1, 71, 63
19, 43366, Note_off_c, 1, 50, 0
19, 43366, Note_off_c, 1, 62, 0
19, 43366, Note_off_c, 1, 65, 0
19, 43366, Note_off_c, 1, 71, 0
19, 43392, Note_on_c, 1, 50, 63
19, 43392, Note_on_c, 1, 62, 63
19, 43392, Note_on_c, 1, 65, 63
19, 43392, Note_on_c, 1, 71, 63
19, 43494, Note_off_c, 1, 50, 0
19, 43494, Note_off_c, 1, 62, 0
19, 43494, Note_off_c, 1, 65, 0
19, 43494, Note_off_c, 1, 71, 0
19, 43520, Note_on_c, 1, 50, 63
19, 43520, Note_on_c, 1, 62, 63
19, 43520, Note_on_c, 1, 65, 63
19, 43520, Note_on_c, 1, 71, 63
19, 43622, Note_off_c, 1, 50, 0
19, 43622, Note_off_c, 1, 62, 0
19, 43622, Note_off_c, 1, 65, 0
19, 43622, Note_off_c, 1, 71, 0
19, 43648, Note_on_c, 1, 50, 63
19, 43648, Note_on_c, 1, 62, 63
19, 43648, Note_on_c, 1, 65, 63
19, 43648, Note_on_c, 1, 71, 63
19, 43750, Note_off_c, 1, 50, 0
19, 43750, Note_off_c, 1, 62, 0
19, 43750, Note_off_c, 1, 65, 0
19, 43750, Note_off_c, 1, 71, 0
19, 43776, Note_on_c, 1, 50, 63
19, 43776, Note_on_c, 1, 62, 63
19, 43776, Note_on_c, 1, 65, 63
19, 43776, Note_on_c, 1, 71, 63
19, 43878, Note_off_c, 1, 50, 0
19, 43878, Note_off_c, 1, 62, 0
19, 43878, Note_off_c, 1, 65, 0
19, 43878, Note_off_c, 1, 71, 0
19, 43904, Note_on_c, 1, 50, 63
19, 43904, Note_on_c, 1, 62, 63
19, 43904, Note_on_c, 1, 65, 63
19, 43904, Note_on_c, 1, 71, 63
19, 44006, Note_off_c, 1, 50, 0
19, 44006, Note_off_c, 1, 62, 0
19, 44006, Note_off_c, 1, 65, 0
19, 44006, Note_off_c, 1, 71, 0
19, 44032, Note_on_c, 1, 65, 69
19, 44032, Note_on_c, 1, 68, 69
19, 44032, Note_on_c, 1, 75, 69
19, 44134, Note_off_c, 1, 65, 0
19, 44134, Note_off_c, 1, 68, 0
19, 44134, Note_off_c, 1, 75, 0
19, 44160, Note_on_c, 1, 65, 69
19, 44160, Note_on_c, 1, 68, 69
19, 44160, Note_on_c, 1, 75, 69
19, 44262, Note_off_c, 1, 65, 0
19, 44262, Note_off_c, 1, 68, 0
19, 44262, Note_off_c, 1, 75, 0
19, 44288, Note_on_c, 1, 65, 69
19, 44288, Note_on_c, 1, 68, 69
19, 44288, Note_on_c, 1, 75, 69
19, 44390, Note_off_c, 1, 65, 0
19, 44390, Note_off_c, 1, 68, 0
19, 44390, Note_off_c, 1, 75, 0
19, 44416, Note_on_c, 1, 65, 69
19, 44416, Note_on_c, 1, 68, 69
19, 44416, Note_on_c, 1, 75, 69
19, 44518, Note_off_c, 1, 65, 0
19, 44518, Note_off_c, 1, 68, 0
19, 44518, Note_off_c, 1, 75, 0
19, 44544, Note_on_c, 1, 65, 64
19, 44544, Note_on_c, 1, 68, 64
19, 44544, Note_on_c, 1, 75, 64
19, 44646, Note_off_c, 1, 65, 0
19, 44646, Note_off_c, 1, 68, 0
19, 44646, Note_off_c, 1, 75, 0
19, 44672, Note_on_c, 1, 65, 64
19, 44672, Note_on_c, 1, 68, 64
19, 44672, Note_on_c, 1, 75, 64
19, 44774, Note_off_c, 1, 65, 0
19, 44774, Note_off_c, 1, 68, 0
19, 44774, Note_off_c, 1, 75, 0
19, 44800, Note_on_c, 1, 65, 64
19, 44800, Note_on_c, 1, 68, 64
19, 44800, Note_on_c, 1, 75, 64
19, 44902, Note_off_c, 1, 65, 0
19, 44902, Note_off_c, 1, 68, 0
19, 44902, Note_off_c, 1, 75, 0
19, 44928, Note_on_c, 1, 65, 64
19, 44928, Note_on_c, 1, 68, 64
19, 44928, Note_on_c, 1, 75, 64
19, 45030, Note_off_c, 1, 65, 0
19, 45030, Note_off_c, 1, 68, 0
19, 45030, Note_off_c, 1, 75, 0
19, 45056, Note_on_c, 1, 50, 62
19, 45056, Note_on_c, 1, 66, 62
19, 45056, Note_on_c, 1, 69, 62
19, 45056, Note_on_c, 1, 76, 62
19, 45158, Note_off_c, 1, 50, 0
19, 45158, Note_off_c, 1, 66, 0
19, 45158, Note_off_c, 1, 69, 0
19, 45158, Note_off_c, 1, 76, 0
19, 45184, Note_on_c, 1, 50, 62
19, 45184, Note_on_c, 1, 66, 62
19, 45184, Note_on_c, 1, 69, 62
19, 45184, Note_on_c, 1, 76, 62
19, 45286, Note_off_c, 1, 50, 0
19, 45286, Note_off_c, 1, 66, 0
19, 45286, Note_off_c, 1, 69, 0
19, 45286, Note_off_c, 1, 76, 0
19, 45312, Note_on_c, 1, 50, 62
19, 45312, Note_on_c, 1, 66, 62
19, 45312, Note_on_c, 1, 69, 62
19, 45312, Note_on_c, 1, 76, 62
19, 45414, Note_off_c, 1, 50, 0
19, 45414, Note_off_c, 1, 66, 0
19, 45414, Note_off_c, 1, 69, 0
19, 45414, Note_off_c, 1, 76, 0
19, 45440, Note_on_c, 1, 50, 62
19, 45440, Note_on_c, 1, 66, 62
19, 45440, Note_on_c, 1, 69, 62
19, 45440, Note_on_c, 1, 76, 62
19, 45542, Note_off_c, 1, 50, 0
19, 45542, Note_off_c, 1, 66, 0
19, 45542, Note_off_c, 1, 69, 0
19, 45542, Note_off_c, 1, 76, 0
19, 45568, Note_on_c, 1, 50, 62
19, 45568, Note_on_c, 1, 66, 62
19, 45568, Note_on_c, 1, 69, 62
19, 45568, Note_on_c, 1, 76, 62
19, 45670, Note_off_c, 1, 50, 0
19, 45670, Note_off_c, 1, 66, 0
19, 45670, Note_off_c, 1, 69, 0
19, 45670, Note_off_c, 1, 76, 0
19, 45696, Note_on_c, 1, 50, 62
19, 45696, Note_on_c, 1, 66, 62
19, 45696, Note_on_c, 1, 69, 62
19, 45696, Note_on_c, 1, 76, 62
19, 45798, Note_off_c, 1, 50, 0
19, 45798, Note_off_c, 1, 66, 0
19, 45798, Note_off_c, 1, 69, 0
19, 45798, Note_off_c, 1, 76, 0
19, 45824, Note_on_c, 1, 50, 63
19, 45824, Note_on_c, 1, 66, 63
19, 45824, Note_on_c, 1, 69, 63
19, 45824, Note_on_c, 1, 76, 63
19, 45926, Note_off_c, 1, 50, 0
19, 45926, Note_off_c, 1, 66, 0
19, 45926, Note_off_c, 1, 69, 0
19, 45926, Note_off_c, 1, 76, 0
19, 45952, Note_on_c, 1, 50, 63
19, 45952, Note_on_c, 1, 66, 63
19, 45952, Note_on_c, 1, 69, 63
19, 45952, Note_on_c, 1, 76, 63
19, 46054, Note_off_c, 1, 50, 0
19, 46054, Note_off_c, 1, 66, 0
19, 46054, Note_off_c, 1, 69, 0
19, 46054, Note_off_c, 1, 76, 0
19, 46080, Note_on_c, 1, 66, 60
19, 46080, Note_on_c, 1, 69, 60
19, 46080, Note_on_c, 1, 76, 60
19, 46182, Note_off_c, 1, 66, 0
19, 46182, Note_off_c, 1, 69, 0
19, 46182, Note_off_c, 1, 76, 0
19, 46208, Note_on_c, 1, 66, 60
19, 46208, Note_on_c, 1, 69, 60
19, 46208, Note_on_c, 1, 76, 60
19, 46310, Note_off_c, 1, 66, 0
19, 46310, Note_off_c, 1, 69, 0
19, 46310, Note_off_c, 1, 76, 0
19, 46336, Note_on_c, 1, 66, 60
19, 46336, Note_on_c, 1, 69, 60
19, 46336, Note_on_c, 1, 76, 60
19, 46438, Note_off_c, 1, 66, 0
19, 46438, Note_off_c, 1, 69, 0
19, 46438, Note_off_c, 1, 76, 0
19, 46464, Note_on_c, 1, 66, 60
19, 46464, Note_on_c, 1, 69, 60
19, 46464, Note_on_c, 1, 76, 60
19, 46566, Note_off_c, 1, 66, 0
19, 46566, Note_off_c, 1, 69, 0
19, 46566, Note_off_c, 1, 76, 0
19, 46592, Note_on_c, 1, 66, 60
19, 46592, Note_on_c, 1, 69, 60
19, 46592, Note_on_c, 1, 76, 60
19, 46694, Note_off_c, 1, 66, 0
19, 46694, Note_off_c, 1, 69, 0
19, 46694, Note_off_c, 1, 76, 0
19, 46720, Note_on_c, 1, 66, 60
19, 46720, Note_on_c, 1, 69, 60
19, 46720, Note_on_c, 1, 76, 60
19, 46822, Note_off_c, 1, 66, 0
19, 46822, Note_off_c, 1, 69, 0
19, 46822, Note_off_c, 1, 76, 0
19, 46848, Note_on_c, 1, 66, 60
19, 46848, Note_on_c, 1, 69, 60
19, 46848, Note_on_c, 1, 76, 60
19, 46950, Note_off_c, 1, 66, 0
19, 46950, Note_off_c, 1, 69, 0
19, 46950, Note_off_c, 1, 76, 0
19, 46976, Note_on_c, 1, 66, 60
19, 46976, Note_on_c, 1, 69, 60
19, 46976, Note_on_c, 1, 76, 60
19, 47078, Note_off_c, 1, 66, 0
19, 47078, Note_off_c, 1, 69, 0
19, 47078, Note_off_c, 1, 76, 0
19, 47104, Note_on_c, 1, 65, 64
19, 47104, Note_on_c, 1, 71, 64
19, 47104, Note_on_c, 1, 76, 64
19, 47206, Note_off_c, 1, 65, 0
19, 47206, Note_off_c, 1, 71, 0
19, 47206, Note_off_c, 1, 76, 0
19, 47232, Note_on_c, 1, 65, 64
19, 47232, Note_on_c, 1, 71, 64
19, 47232, Note_on_c, 1, 76, 64
19, 47334, Note_off_c, 1, 65, 0
19, 47334, Note_off_c, 1, 71, 0
19, 47334, Note_off_c, 1, 76, 0
19, 47360, Note_on_c, 1, 65, 64
19, 47360, Note_on_c, 1, 71, 64
19, 47360, Note_on_c, 1, 76, 64
19, 47462, Note_off_c, 1, 65, 0
19, 47462, Note_off_c, 1, 71, 0
19, 47462, Note_off_c, 1, 76, 0
19, 47488, Note_on_c, 1, 65, 64
19, 47488, Note_on_c, 1, 71, 64
19, 47488, Note_on_c, 1, 76, 64
19, 47590, Note_off_c, 1, 65, 0
19, 47590, Note_off_c, 1, 71, 0
19, 47590, Note_off_c, 1, 76, 0
19, 47616, Note_on_c, 1, 65, 61
19, 47616, Note_on_c, 1, 71, 61
19, 47616, Note_on_c, 1, 76, 61
19, 47718, Note_off_c, 1, 65, 0
19, 47718, Note_off_c, 1, 71, 0
19, 47718, Note_off_c, 1, 76, 0
19, 47744, Note_on_c, 1, 65, 61
19, 47744, Note_on_c, 1, 71, 61
19, 47744, Note_on_c, 1, 76, 61
19, 47846, Note_off_c, 1, 65, 0
19, 47846, Note_off_c, 1, 71, 0
19, 47846, Note_off_c, 1, 76, 0
19, 47872, Note_on_c, 1, 65, 61
19, 47872, Note_on_c, 1, 71, 61
19, 47872, Note_on_c, 1, 76, 61
19, 47974, Note_off_c, 1, 65, 0
19, 47974, Note_off_c, 1, 71, 0
19, 47974, Note_off_c, 1, 76, 0
19, 48000, Note_on_c, 1, 65, 61
19, 48000, Note_on_c, 1, 71, 61
19, 48000, Note_on_c, 1, 76, 61
19, 48102, Note_off_c, 1, 65, 0
19, 48102, Note_off_c, 1, 71, 0
19, 48102, Note_off_c, 1, 76, 0
19, 48128, Note_on_c, 1, 65, 62
19, 48128, Note_on_c, 1, 71, 62
19, 48128, Note_on_c, 1, 76, 62
19, 48256, Note_off_c, 1, 65, 0
19, 48256, Note_off_c, 1, 71, 0
19, 48256, Note_off_c, 1, 76, 0
19, 48256, Note_on_c, 1, 66, 58
19, 48256, Note_on_c, 1, 70, 58
19, 48256, Note_on_c, 1, 72, 58
19, 48358, Note_off_c, 1, 66, 0
19, 48358, Note_off_c, 1, 70, 0
19, 48358, Note_off_c, 1, 72, 0
19, 48384, Note_on_c, 1, 66, 58
19, 48384, Note_on_c, 1, 70, 58
19, 48384, Note_on_c, 1, 72, 58
19, 48486, Note_off_c, 1, 66, 0
19, 48486, Note_off_c, 1, 70, 0
19, 48486, Note_off_c, 1, 72, 0
19, 48512, Note_on_c, 1, 66, 58
19, 48512, Note_on_c, 1, 70, 58
19, 48512, Note_on_c, 1, 72, 58
19, 48614, Note_off_c, 1, 66, 0
19, 48614, Note_off_c, 1, 70, 0
19, 48614, Note_off_c, 1, 72, 0
19, 48640, Note_on_c, 1, 66, 59
19, 48640, Note_on_c, 1, 70, 59
19, 48640, Note_on_c, 1, 72, 59
19, 48742, Note_off_c, 1, 66, 0
19, 48742, Note_off_c, 1, 70, 0
19, 48742, Note_off_c, 1, 72, 0
19, 48768, Note_on_c, 1, 66, 59
19, 48768, Note_on_c, 1, 70, 59
19, 48768, Note_on_c, 1, 72, 59
19, 48870, Note_off_c, 1, 66, 0
19, 48870, Note_off_c, 1, 70, 0
19, 48870, Note_off_c, 1, 72, 0
19, 48896, Note_on_c, 1, 66, 59
19, 48896, Note_on_c, 1, 70, 59
19, 48896, Note_on_c, 1, 72, 59
19, 48998, Note_off_c, 1, 66, 0
19, 48998, Note_off_c, 1, 70, 0
19, 48998, Note_off_c, 1, 72, 0
19, 49024, Note_on_c, 1, 66, 59
19, 49024, Note_on_c, 1, 70, 59
19, 49024, Note_on_c, 1, 72, 59
19, 49126, Note_off_c, 1, 66, 0
19, 49126, Note_off_c, 1, 70, 0
19, 49126, Note_off_c, 1, 72, 0
19, 49152, Note_on_c, 1, 66, 66
19, 49152, Note_on_c, 1, 70, 66
19, 49152, Note_on_c, 1, 72, 66
19, 49254, Note_off_c, 1, 66, 0
19, 49254, Note_off_c, 1, 70, 0
19, 49254, Note_off_c, 1, 72, 0
19, 49280, Note_on_c, 1, 66, 66
19, 49280, Note_on_c, 1, 70, 66
19, 49280, Note_on_c, 1, 72, 66
19, 49382, Note_off_c, 1, 66, 0
19, 49382, Note_off_c, 1, 70, 0
19, 49382, Note_off_c, 1, 72, 0
19, 49408, Note_on_c, 1, 66, 66
19, 49408, Note_on_c, 1, 70, 66
19, 49408, Note_on_c, 1, 72, 66
19, 49510, Note_off_c, 1, 66, 0
19, 49510, Note_off_c, 1, 70, 0
19, 49510, Note_off_c, 1, 72, 0
19, 49536, Note_on_c, 1, 66, 67
19, 49536, Note_on_c, 1, 69, 67
19, 49536, Note_on_c, 1, 73, 67
19, 49664, Note_off_c, 1, 66, 0
19, 49664, Note_off_c, 1, 69, 0
19, 49664, Note_off_c, 1, 73, 0
19, 49664, Note_on_c, 1, 66, 66
19, 49664, Note_on_c, 1, 69, 66
19, 49664, Note_on_c, 1, 73, 66
19, 49766, Note_off_c, 1, 66, 0
19, 49766, Note_off_c, 1, 69, 0
19, 49766, Note_off_c, 1, 73, 0
19, 49792, Note_on_c, 1, 66, 66
19, 49792, Note_on_c, 1, 69, 66
19, 49792, Note_on_c, 1, 73, 66
19, 49894, Note_off_c, 1, 66, 0
19, 49894, Note_off_c, 1, 69, 0
19, 49894, Note_off_c, 1, 73, 0
19, 49920, Note_on_c, 1, 66, 66
19, 49920, Note_on_c, 1, 69, 66
19, 49920, Note_on_c, 1, 73, 66
19, 50022, Note_off_c, 1, 66, 0
19, 50022, Note_off_c, 1, 69, 0
19, 50022, Note_off_c, 1, 73, 0
19, 50048, Note_on_c, 1, 66, 66
19, 50048, Note_on_c, 1, 69, 66
19, 50048, Note_on_c, 1, 73, 66
19, 50150, Note_off_c, 1, 66, 0
19, 50150, Note_off_c, 1, 69, 0
19, 50150, Note_off_c, 1, 73, 0
19, 50176, Note_on_c, 1, 66, 64
19, 50176, Note_on_c, 1, 69, 64
19, 50176, Note_on_c, 1, 73, 64
19, 50278, Note_off_c, 1, 66, 0
19, 50278, Note_off_c, 1, 69, 0
19, 50278, Note_off_c, 1, 73, 0
19, 50304, Note_on_c, 1, 66, 64
19, 50304, Note_on_c, 1, 69, 64
19, 50304, Note_on_c, 1, 73, 64
19, 50406, Note_off_c, 1, 66, 0
19, 50406, Note_off_c, 1, 69, 0
19, 50406, Note_off_c, 1, 73, 0
19, 50432, Note_on_c, 1, 66, 64
19, 50432, Note_on_c, 1, 69, 64
19, 50432, Note_on_c, 1, 73, 64
19, 50534, Note_off_c, 1, 66, 0
19, 50534, Note_off_c, 1, 69, 0
19, 50534, Note_off_c, 1, 73, 0
19, 50560, Note_on_c, 1, 65, 62
19, 50560, Note_on_c, 1, 69, 62
19, 50560, Note_on_c, 1, 73, 62
19, 50688, Note_off_c, 1, 65, 0
19, 50688, Note_off_c, 1, 69, 0
19, 50688, Note_off_c, 1, 73, 0
19, 50688, Note_on_c, 1, 65, 62
19, 50688, Note_on_c, 1, 69, 62
19, 50688, Note_on_c, 1, 73, 62
19, 50790, Note_off_c, 1, 65, 0
19, 50790, Note_off_c, 1, 69, 0
19, 50790, Note_off_c, 1, 73, 0
19, 50816, Note_on_c, 1, 65, 62
19, 50816, Note_on_c, 1, 69, 62
19, 50816, Note_on_c, 1, 73, 62
19, 50918, Note_off_c, 1, 65, 0
19, 50918, Note_off_c, 1, 69, 0
19, 50918, Note_off_c, 1, 73, 0
19, 50944, Note_on_c, 1, 65, 62
19, 50944, Note_on_c, 1, 69, 62
19, 50944, Note_on_c, 1, 73, 62
19, 51046, Note_off_c, 1, 65, 0
19, 51046, Note_off_c, 1, 69, 0
19, 51046, Note_off_c, 1, 73, 0
19, 51072, Note_on_c, 1, 65, 62
19, 51072, Note_on_c, 1, 69, 62
19, 51072, Note_on_c, 1, 73, 62
19, 51174, Note_off_c, 1, 65, 0
19, 51174, Note_off_c, 1, 69, 0
19, 51174, Note_off_c, 1, 73, 0
19, 51200, Note_on_c, 1, 65, 64
19, 51200, Note_on_c, 1, 69, 64
19, 51200, Note_on_c, 1, 73, 64
19, 51302, Note_off_c, 1, 65, 0
19, 51302, Note_off_c, 1, 69, 0
19, 51302, Note_off_c, 1, 73, 0
19, 51328, Note_on_c, 1, 65, 64
19, 51328, Note_on_c, 1, 69, 64
19, 51328, Note_on_c, 1, 73, 64
19, 51430, Note_off_c, 1, 65, 0
19, 51430, Note_off_c, 1, 69, 0
19, 51430, Note_off_c, 1, 73, 0
19, 51456, Note_on_c, 1, 65, 64
19, 51456, Note_on_c, 1, 69, 64
19, 51456, Note_on_c, 1, 73, 64
19, 51558, Note_off_c, 1, 65, 0
19, 51558, Note_off_c, 1, 69, 0
19, 51558, Note_off_c, 1, 73, 0
19, 51584, Note_on_c, 1, 65, 64
19, 51584, Note_on_c, 1, 69, 64
19, 51584, Note_on_c, 1, 73, 64
19, 51686, Note_off_c, 1, 65, 0
19, 51686, Note_off_c, 1, 69, 0
19, 51686, Note_off_c, 1, 73, 0
19, 51712, Note_on_c, 1, 65, 63
19, 51712, Note_on_c, 1, 69, 63
19, 51712, Note_on_c, 1, 73, 63
19, 51840, Note_off_c, 1, 65, 0
19, 51840, Note_off_c, 1, 69, 0
19, 51840, Note_off_c, 1, 73, 0
19, 51840, Note_on_c, 1, 61, 54
19, 51840, Note_on_c, 1, 66, 54
19, 51840, Note_on_c, 1, 69, 54
19, 51942, Note_off_c, 1, 61, 0
19, 51942, Note_off_c, 1, 66, 0
19, 51942, Note_off_c, 1, 69, 0
19, 51968, Note_on_c, 1, 61, 54
19, 51968, Note_on_c, 1, 66, 54
19, 51968, Note_on_c, 1, 69, 54
19, 52070, Note_off_c, 1, 61, 0
19, 52070, Note_off_c, 1, 66, 0
19, 52070, Note_off_c, 1, 69, 0
19, 52096, Note_on_c, 1, 61, 54
19, 52096, Note_on_c, 1, 66, 54
19, 52096, Note_on_c, 1, 69, 54
19, 52198, Note_off_c, 1, 61, 0
19, 52198, Note_off_c, 1, 66, 0
19, 52198, Note_off_c, 1, 69, 0
19, 52224, Note_on_c, 1, 61, 61
19, 52224, Note_on_c, 1, 66, 61
19, 52224, Note_on_c, 1, 69, 61
19, 52326, Note_off_c, 1, 61, 0
19, 52326, Note_off_c, 1, 66, 0
19, 52326, Note_off_c, 1, 69, 0
19, 52352, Note_on_c, 1, 61, 61
19, 52352, Note_on_c, 1, 66, 61
19, 52352, Note_on_c, 1, 69, 61
19, 52454, Note_off_c, 1, 61, 0
19, 52454, Note_off_c, 1, 66, 0
19, 52454, Note_off_c, 1, 69, 0
19, 52480, Note_on_c, 1, 61, 61
19, 52480, Note_on_c, 1, 66, 61
19, 52480, Note_on_c, 1, 69, 61
19, 52582, Note_off_c, 1, 61, 0
19, 52582, Note_off_c, 1, 66, 0
19, 52582, Note_off_c, 1, 69, 0
19, 52608, Note_on_c, 1, 61, 61
19, 52608, Note_on_c, 1, 66, 61
19, 52608, Note_on_c, 1, 69, 61
19, 52710, Note_off_c, 1, 61, 0
19, 52710, Note_off_c, 1, 66, 0
19, 52710, Note_off_c, 1, 69, 0
19, 52736, Note_on_c, 1, 61, 62
19, 52736, Note_on_c, 1, 66, 62
19, 52736, Note_on_c, 1, 69, 62
19, 52864, Note_off_c, 1, 61, 0
19, 52864, Note_off_c, 1, 66, 0
19, 52864, Note_off_c, 1, 69, 0
19, 52864, Note_on_c, 1, 58, 62
19, 52864, Note_on_c, 1, 62, 62
19, 52864, Note_on_c, 1, 66, 62
19, 52864, Note_on_c, 1, 69, 62
19, 52966, Note_off_c, 1, 58, 0
19, 52966, Note_off_c, 1, 62, 0
19, 52966, Note_off_c, 1, 66, 0
19, 52966, Note_off_c, 1, 69, 0
19, 52992, Note_on_c, 1, 58, 62
19, 52992, Note_on_c, 1, 62, 62
19, 52992, Note_on_c, 1, 66, 62
19, 52992, Note_on_c, 1, 69, 62
19, 53094, Note_off_c, 1, 58, 0
19, 53094, Note_off_c, 1, 62, 0
19, 53094, Note_off_c, 1, 66, 0
19, 53094, Note_off_c, 1, 69, 0
19, 53120, Note_on_c, 1, 58, 62
19, 53120, Note_on_c, 1, 62, 62
19, 53120, Note_on_c, 1, 66, 62
19, 53120, Note_on_c, 1, 69, 62
19, 53222, Note_off_c, 1, 58, 0
19, 53222, Note_off_c, 1, 62, 0
19, 53222, Note_off_c, 1, 66, 0
19, 53222, Note_off_c, 1, 69, 0
19, 53248, Note_on_c, 1, 58, 61
19, 53248, Note_on_c, 1, 62, 61
19, 53248, Note_on_c, 1, 66, 61
19, 53248, Note_on_c, 1, 69, 61
19, 53350, Note_off_c, 1, 58, 0
19, 53350, Note_off_c, 1, 62, 0
19, 53350, Note_off_c, 1, 66, 0
19, 53350, Note_off_c, 1, 69, 0
19, 53376, Note_on_c, 1, 58, 61
19, 53376, Note_on_c, 1, 62, 61
19, 53376, Note_on_c, 1, 66, 61
19, 53376, Note_on_c, 1, 69, 61
19, 53478, Note_off_c, 1, 58, 0
19, 53478, Note_off_c, 1, 62, 0
19, 53478, Note_off_c, 1, 66, 0
19, 53478, Note_off_c, 1, 69, 0
19, 53504, Note_on_c, 1, 58, 61
19, 53504, Note_on_c, 1, 62, 61
19, 53504, Note_on_c, 1, 66, 61
19, 53504, Note_on_c, 1, 69, 61
19, 53606, Note_off_c, 1, 58, 0
19, 53606, Note_off_c, 1, 62, 0
19, 53606, Note_off_c, 1, 66, 0
19, 53606, Note_off_c, 1, 69, 0
19, 53632, Note_on_c, 1, 58, 61
19, 53632, Note_on_c, 1, 62, 61
19, 53632, Note_on_c, 1, 66, 61
19, 53632, Note_on_c, 1, 69, 61
19, 53734, Note_off_c, 1, 58, 0
19, 53734, Note_off_c, 1, 62, 0
19, 53734, Note_off_c, 1, 66, 0
19, 53734, Note_off_c, 1, 69, 0
19, 53760, Note_on_c, 1, 58, 59
19, 53760, Note_on_c, 1, 62, 59
19, 53760, Note_on_c, 1, 66, 59
19, 53760, Note_on_c, 1, 69, 59
19, 53862, Note_off_c, 1, 58, 0
19, 53862, Note_off_c, 1, 62, 0
19, 53862, Note_off_c, 1, 66, 0
19, 53862, Note_off_c, 1, 69, 0
19, 53888, Note_on_c, 1, 58, 59
19, 53888, Note_on_c, 1, 62, 59
19, 53888, Note_on_c, 1, 66, 59
19, 53888, Note_on_c, 1, 69, 59
19, 53990, Note_off_c, 1, 58, 0
19, 53990, Note_off_c, 1, 62, 0
19, 53990, Note_off_c, 1, 66, 0
19, 53990, Note_off_c, 1, 69, 0
19, 54016, Note_on_c, 1, 58, 59
19, 54016, Note_on_c, 1, 62, 59
19, 54016, Note_on_c, 1, 66, 59
19, 54016, Note_on_c, 1, 69, 59
19, 54118, Note_off_c, 1, 58, 0
19, 54118, Note_off_c, 1, 62, 0
19, 54118, Note_off_c, 1, 66, 0
19, 54118, Note_off_c, 1, 69, 0
19, 54144, Note_on_c, 1, 58, 59
19, 54144, Note_on_c, 1, 62, 59
19, 54144, Note_on_c, 1, 66, 59
19, 54144, Note_on_c, 1, 69, 59
19, 54246, Note_off_c, 1, 58, 0
19, 54246, Note_off_c, 1, 62, 0
19, 54246, Note_off_c, 1, 66, 0
19, 54246, Note_off_c, 1, 69, 0
19, 54272, Note_on_c, 1, 58, 64
19, 54272, Note_on_c, 1, 62, 64
19, 54272, Note_on_c, 1, 66, 64
19, 54272, Note_on_c, 1, 69, 64
19, 54374, Note_off_c, 1, 58, 0
19, 54374, Note_off_c, 1, 62, 0
19, 54374, Note_off_c, 1, 66, 0
19, 54374, Note_off_c, 1, 69, 0
19, 54400, Note_on_c, 1, 58, 64
19, 54400, Note_on_c, 1, 62, 64
19, 54400, Note_on_c, 1, 66, 64
19, 54400, Note_on_c, 1, 69, 64
19, 54502, Note_off_c, 1, 58, 0
19, 54502, Note_off_c, 1, 62, 0
19, 54502, Note_off_c, 1, 66, 0
19, 54502, Note_off_c, 1, 69, 0
19, 54528, Note_on_c, 1, 58, 64
19, 54528, Note_on_c, 1, 62, 64
19, 54528, Note_on_c, 1, 66, 64
19, 54528, Note_on_c, 1, 69, 64
19, 54630, Note_off_c, 1, 58, 0
19, 54630, Note_off_c, 1, 62, 0
19, 54630, Note_off_c, 1, 66, 0
19, 54630, Note_off_c, 1, 69, 0
19, 54656, Note_on_c, 1, 57, 57
19, 54656, Note_on_c, 1, 62, 57
19, 54656, Note_on_c, 1, 66, 57
19, 54784, Note_off_c, 1, 57, 0
19, 54784, Note_off_c, 1, 62, 0
19, 54784, Note_off_c, 1, 66, 0
19, 54784, Note_on_c, 1, 57, 60
19, 54784, Note_on_c, 1, 62, 60
19, 54784, Note_on_c, 1, 66, 60
19, 54886, Note_off_c, 1, 57, 0
19, 54886, Note_off_c, 1, 62, 0
19, 54886, Note_off_c, 1, 66, 0
19, 54912, Note_on_c, 1, 57, 60
19, 54912, Note_on_c, 1, 62, 60
19, 54912, Note_on_c, 1, 66, 60
19, 55014, Note_off_c, 1, 57, 0
19, 55014, Note_off_c, 1, 62, 0
19, 55014, Note_off_c, 1, 66, 0
19, 55040, Note_on_c, 1, 57, 60
19, 55040, Note_on_c, 1, 62, 60
19, 55040, Note_on_c, 1, 66, 60
19, 55142, Note_off_c, 1, 57, 0
19, 55142, Note_off_c, 1, 62, 0
19, 55142, Note_off_c, 1, 66, 0
19, 55168, Note_on_c, 1, 57, 60
19, 55168, Note_on_c, 1, 62, 60
19, 55168, Note_on_c, 1, 66, 60
19, 55270, Note_off_c, 1, 57, 0
19, 55270, Note_off_c, 1, 62, 0
19, 55270, Note_off_c, 1, 66, 0
19, 55296, Note_on_c, 1, 57, 62
19, 55296, Note_on_c, 1, 62, 62
19, 55296, Note_on_c, 1, 66, 62
19, 55398, Note_off_c, 1, 57, 0
19, 55398, Note_off_c, 1, 62, 0
19, 55398, Note_off_c, 1, 66, 0
19, 55424, Note_on_c, 1, 57, 62
19, 55424, Note_on_c, 1, 62, 62
19, 55424, Note_on_c, 1, 66, 62
19, 55526, Note_off_c, 1, 57, 0
19, 55526, Note_off_c, 1, 62, 0
19, 55526, Note_off_c, 1, 66, 0
19, 55552, Note_on_c, 1, 58, 60
19, 55552, Note_on_c, 1, 61, 60
19, 55552, Note_on_c, 1, 65, 60
19, 55654, Note_off_c, 1, 58, 0
19, 55654, Note_off_c, 1, 61, 0
19, 55654, Note_off_c, 1, 65, 0
19, 55680, Note_on_c, 1, 58, 60
19, 55680, Note_on_c, 1, 61, 60
19, 55680, Note_on_c, 1, 65, 60
19, 55782, Note_off_c, 1, 58, 0
19, 55782, Note_off_c, 1, 61, 0
19, 55782, Note_off_c, 1, 65, 0
19, 55808, Note_on_c, 1, 58, 58
19, 55808, Note_on_c, 1, 61, 58
19, 55808, Note_on_c, 1, 65, 58
19, 55910, Note_off_c, 1, 58, 0
19, 55910, Note_off_c, 1, 61, 0
19, 55910, Note_off_c, 1, 65, 0
19, 55936, Note_on_c, 1, 58, 56
19, 55936, Note_on_c, 1, 61, 56
19, 55936, Note_on_c, 1, 65, 56
19, 56038, Note_off_c, 1, 58, 0
19, 56038, Note_off_c, 1, 61, 0
19, 56038, Note_off_c, 1, 65, 0
19, 56064, Note_on_c, 1, 58, 54
19, 56064, Note_on_c, 1, 61, 54
19, 56064, Note_on_c, 1, 65, 54
19, 56166, Note_off_c, 1, 58, 0
19, 56166, Note_off_c, 1, 61, 0
19, 56166, Note_off_c, 1, 65, 0
19, 56192, Note_on_c, 1, 58, 53
19, 56192, Note_on_c, 1, 61, 53
19, 56192, Note_on_c, 1, 65, 53
19, 56294, Note_off_c, 1, 58, 0
19, 56294, Note_off_c, 1, 61, 0
19, 56294, Note_off_c, 1, 65, 0
19, 56320, Note_on_c, 1, 58, 49
19, 56320, Note_on_c, 1, 61, 49
19, 56320, Note_on_c, 1, 65, 49
19, 56422, Note_off_c, 1, 58, 0
19, 56422, Note_off_c, 1, 61, 0
19, 56422, Note_off_c, 1, 65, 0
19, 56448, Note_on_c, 1, 58, 49
19, 56448, Note_on_c, 1, 61, 49
19, 56448, Note_on_c, 1, 65, 49
19, 56550, Note_off_c, 1, 58, 0
19, 56550, Note_off_c, 1, 61, 0
19, 56550, Note_off_c, 1, 65, 0
19, 56576, Note_on_c, 1, 58, 47
19, 56576, Note_on_c, 1, 61, 47
19, 56576, Note_on_c, 1, 65, 47
19, 56678, Note_off_c, 1, 58, 0
19, 56678, Note_off_c, 1, 61, 0
19, 56678, Note_off_c, 1, 65, 0
19, 56704, Note_on_c, 1, 58, 46
19, 56704, Note_on_c, 1, 61, 46
19, 56704, Note_on_c, 1, 65, 46
19, 56806, Note_off_c, 1, 58, 0
19, 56806, Note_off_c, 1, 61, 0
19, 56806, Note_off_c, 1, 65, 0
19, 56832, Note_on_c, 1, 58, 44
19, 56832, Note_on_c, 1, 61, 44
19, 56832, Note_on_c, 1, 65, 44
19, 56934, Note_off_c, 1, 58, 0
19, 56934, Note_off_c, 1, 61, 0
19, 56934, Note_off_c, 1, 65, 0
19, 56960, Note_on_c, 1, 58, 42
19, 56960, Note_on_c, 1, 61, 42
19, 56960, Note_on_c, 1, 65, 42
19, 57062, Note_off_c, 1, 58, 0
19, 57062, Note_off_c, 1, 61, 0
19, 57062, Note_off_c, 1, 65, 0
19, 79104, Note_on_c, 1, 54, 74
19, 79104, Note_on_c, 1, 60, 74
19, 79104, Note_on_c, 1, 65, 74
19, 79104, Note_on_c, 1, 68, 74
19, 79206, Note_off_c, 1, 54, 0
19, 79206, Note_off_c, 1, 60, 0
19, 79206, Note_off_c, 1, 65, 0
19, 79206, Note_off_c, 1, 68, 0
19, 79232, Note_on_c, 1, 54, 74
19, 79232, Note_on_c, 1, 60, 74
19, 79232, Note_on_c, 1, 65, 74
19, 79232, Note_on_c, 1, 68, 74
19, 79334, Note_off_c, 1, 54, 0
19, 79334, Note_off_c, 1, 60, 0
19, 79334, Note_off_c, 1, 65, 0
19, 79334, Note_off_c, 1, 68, 0
19, 79360, Note_on_c, 1, 54, 81
19, 79360, Note_on_c, 1, 60, 81
19, 79360, Note_on_c, 1, 65, 81
19, 79360, Note_on_c, 1, 68, 81
19, 79462, Note_off_c, 1, 54, 0
19, 79462, Note_off_c, 1, 60, 0
19, 79462, Note_off_c, 1, 65, 0
19, 79462, Note_off_c, 1, 68, 0
19, 79488, Note_on_c, 1, 54, 81
19, 79488, Note_on_c, 1, 60, 81
19, 79488, Note_on_c, 1, 65, 81
19, 79488, Note_on_c, 1, 68, 81
19, 79590, Note_off_c, 1, 54, 0
19, 79590, Note_off_c, 1, 60, 0
19, 79590, Note_off_c, 1, 65, 0
19, 79590, Note_off_c, 1, 68, 0
19, 79616, Note_on_c, 1, 54, 81
19, 79616, Note_on_c, 1, 60, 81
19, 79616, Note_on_c, 1, 65, 81
19, 79616, Note_on_c, 1, 68, 81
19, 79718, Note_off_c, 1, 54, 0
19, 79718, Note_off_c, 1, 60, 0
19, 79718, Note_off_c, 1, 65, 0
19, 79718, Note_off_c, 1, 68, 0
19, 79744, Note_on_c, 1, 54, 81
19, 79744, Note_on_c, 1, 60, 81
19, 79744, Note_on_c, 1, 65, 81
19, 79744, Note_on_c, 1, 68, 81
19, 79846, Note_off_c, 1, 54, 0
19, 79846, Note_off_c, 1, 60, 0
19, 79846, Note_off_c, 1, 65, 0
19, 79846, Note_off_c, 1, 68, 0
19, 79872, Note_on_c, 1, 55, 85
19, 79872, Note_on_c, 1, 62, 85
19, 79872, Note_on_c, 1, 65, 85
19, 79872, Note_on_c, 1, 68, 85
19, 79974, Note_off_c, 1, 55, 0
19, 79974, Note_off_c, 1, 62, 0
19, 79974, Note_off_c, 1, 65, 0
19, 79974, Note_off_c, 1, 68, 0
19, 80000, Note_on_c, 1, 55, 85
19, 80000, Note_on_c, 1, 62, 85
19, 80000, Note_on_c, 1, 65, 85
19, 80000, Note_on_c, 1, 68, 85
19, 80102, Note_off_c, 1, 55, 0
19, 80102, Note_off_c, 1, 62, 0
19, 80102, Note_off_c, 1, 65, 0
19, 80102, Note_off_c, 1, 68, 0
19, 80128, Note_on_c, 1, 55, 86
19, 80128, Note_on_c, 1, 62, 86
19, 80128, Note_on_c, 1, 65, 86
19, 80128, Note_on_c, 1, 68, 86
19, 80230, Note_off_c, 1, 55, 0
19, 80230, Note_off_c, 1, 62, 0
19, 80230, Note_off_c, 1, 65, 0
19, 80230, Note_off_c, 1, 68, 0
19, 80256, Note_on_c, 1, 55, 87
19, 80256, Note_on_c, 1, 62, 87
19, 80256, Note_on_c, 1, 65, 87
19, 80256, Note_on_c, 1, 68, 87
19, 80358, Note_off_c, 1, 55, 0
19, 80358, Note_off_c, 1, 62, 0
19, 80358, Note_off_c, 1, 65, 0
19, 80358, Note_off_c, 1, 68, 0
19, 80384, Note_on_c, 1, 55, 91
19, 80384, Note_on_c, 1, 62, 91
19, 80384, Note_on_c, 1, 65, 91
19, 80384, Note_on_c, 1, 68, 91
19, 80486, Note_off_c, 1, 55, 0
19, 80486, Note_off_c, 1, 62, 0
19, 80486, Note_off_c, 1, 65, 0
19, 80486, Note_off_c, 1, 68, 0
19, 80512, Note_on_c, 1, 55, 89
19, 80512, Note_on_c, 1, 62, 89
19, 80512, Note_on_c, 1, 65, 89
19, 80512, Note_on_c, 1, 68, 89
19, 80614, Note_off_c, 1, 55, 0
19, 80614, Note_off_c, 1, 62, 0
19, 80614, Note_off_c, 1, 65, 0
19, 80614, Note_off_c, 1, 68, 0
19, 80640, Note_on_c, 1, 55, 90
19, 80640, Note_on_c, 1, 62, 90
19, 80640, Note_on_c, 1, 65, 90
19, 80640, Note_on_c, 1, 68, 90
19, 80742, Note_off_c, 1, 55, 0
19, 80742, Note_off_c, 1, 62, 0
19, 80742, Note_off_c, 1, 65, 0
19, 80742, Note_off_c, 1, 68, 0
19, 80768, Note_on_c, 1, 45, 91
19, 80768, Note_on_c, 1, 61, 91
19, 80768, Note_on_c, 1, 65, 91
19, 80768, Note_on_c, 1, 68, 91
19, 80896, Note_off_c, 1, 45, 0
19, 80896, Note_off_c, 1, 61, 0
19, 80896, Note_off_c, 1, 65, 0
19, 80896, Note_off_c, 1, 68, 0
19, 80896, Note_on_c, 1, 45, 92
19, 80896, Note_on_c, 1, 61, 92
19, 80896, Note_on_c, 1, 65, 92
19, 80896, Note_on_c, 1, 68, 92
19, 80998, Note_off_c, 1, 45, 0
19, 80998, Note_off_c, 1, 61, 0
19, 80998, Note_off_c, 1, 65, 0
19, 80998, Note_off_c, 1, 68, 0
19, 81024, Note_on_c, 1, 45, 93
19, 81024, Note_on_c, 1, 61, 93
19, 81024, Note_on_c, 1, 65, 93
19, 81024, Note_on_c, 1, 68, 93
19, 81126, Note_off_c, 1, 45, 0
19, 81126, Note_off_c, 1, 61, 0
19, 81126, Note_off_c, 1, 65, 0
19, 81126, Note_off_c, 1, 68, 0
19, 81152, Note_on_c, 1, 45, 94
19, 81152, Note_on_c, 1, 61, 94
19, 81152, Note_on_c, 1, 65, 94
19, 81152, Note_on_c, 1, 68, 94
19, 81254, Note_off_c, 1, 45, 0
19, 81254, Note_off_c, 1, 61, 0
19, 81254, Note_off_c, 1, 65, 0
19, 81254, Note_off_c, 1, 68, 0
19, 81280, Note_on_c, 1, 45, 95
19, 81280, Note_on_c, 1, 61, 95
19, 81280, Note_on_c, 1, 65, 95
19, 81280, Note_on_c, 1, 68, 95
19, 81382, Note_off_c, 1, 45, 0
19, 81382, Note_off_c, 1, 61, 0
19, 81382, Note_off_c, 1, 65, 0
19, 81382, Note_off_c, 1, 68, 0
19, 81408, Note_on_c, 1, 45, 101
19, 81408, Note_on_c, 1, 61, 101
19, 81408, Note_on_c, 1, 65, 101
19, 81408, Note_on_c, 1, 68, 101
19, 81536, Note_off_c, 1, 45, 0
19, 81536, Note_off_c, 1, 61, 0
19, 81536, Note_off_c, 1, 65, 0
19, 81536, Note_off_c, 1, 68, 0
19, 81536, Note_on_c, 1, 57, 98
19, 81536, Note_on_c, 1, 61, 98
19, 81536, Note_on_c, 1, 65, 98
19, 81536, Note_on_c, 1, 68, 98
19, 81638, Note_off_c, 1, 57, 0
19, 81638, Note_off_c, 1, 61, 0
19, 81638, Note_off_c, 1, 65, 0
19, 81638, Note_off_c, 1, 68, 0
19, 81664, Note_on_c, 1, 57, 98
19, 81664, Note_on_c, 1, 61, 98
19, 81664, Note_on_c, 1, 65, 98
19, 81664, Note_on_c, 1, 68, 98
19, 81766, Note_off_c, 1, 57, 0
19, 81766, Note_off_c, 1, 61, 0
19, 81766, Note_off_c, 1, 65, 0
19, 81766, Note_off_c, 1, 68, 0
19, 81792, Note_on_c, 1, 57, 98
19, 81792, Note_on_c, 1, 61, 98
19, 81792, Note_on_c, 1, 65, 98
19, 81792, Note_on_c, 1, 68, 98
19, 81894, Note_off_c, 1, 57, 0
19, 81894, Note_off_c, 1, 61, 0
19, 81894, Note_off_c, 1, 65, 0
19, 81894, Note_off_c, 1, 68, 0
19, 81920, Note_on_c, 1, 57, 99
19, 81920, Note_on_c, 1, 61, 99
19, 81920, Note_on_c, 1, 65, 99
19, 81920, Note_on_c, 1, 68, 99
19, 82022, Note_off_c, 1, 57, 0
19, 82022, Note_off_c, 1, 61, 0
19, 82022, Note_off_c, 1, 65, 0
19, 82022, Note_off_c, 1, 68, 0
19, 82048, Note_on_c, 1, 57, 99
19, 82048, Note_on_c, 1, 61, 99
19, 82048, Note_on_c, 1, 65, 99
19, 82048, Note_on_c, 1, 68, 99
19, 82150, Note_off_c, 1, 57, 0
19, 82150, Note_off_c, 1, 61, 0
19, 82150, Note_off_c, 1, 65, 0
19, 82150, Note_off_c, 1, 68, 0
19, 82176, Note_on_c, 1, 57, 99
19, 82176, Note_on_c, 1, 61, 99
19, 82176, Note_on_c, 1, 65, 99
19, 82176, Note_on_c, 1, 68, 99
19, 82278, Note_off_c, 1, 57, 0
19, 82278, Note_off_c, 1, 61, 0
19, 82278, Note_off_c, 1, 65, 0
19, 82278, Note_off_c, 1, 68, 0
19, 82304, Note_on_c, 1, 57, 99
19, 82304, Note_on_c, 1, 61, 99
19, 82304, Note_on_c, 1, 65, 99
19, 82304, Note_on_c, 1, 68, 99
19, 82406, Note_off_c, 1, 57, 0
19, 82406, Note_off_c, 1, 61, 0
19, 82406, Note_off_c, 1, 65, 0
19, 82406, Note_off_c, 1, 68, 0
19, 82432, Note_on_c, 1, 57, 99
19, 82432, Note_on_c, 1, 61, 99
19, 82432, Note_on_c, 1, 65, 99
19, 82432, Note_on_c, 1, 68, 99
19, 82534, Note_off_c, 1, 57, 0
19, 82534, Note_off_c, 1, 61, 0
19, 82534, Note_off_c, 1, 65, 0
19, 82534, Note_off_c, 1, 68, 0
19, 82560, Note_on_c, 1, 57, 99
19, 82560, Note_on_c, 1, 61, 99
19, 82560, Note_on_c, 1, 65, 99
19, 82560, Note_on_c, 1, 68, 99
19, 82662, Note_off_c, 1, 57, 0
19, 82662, Note_off_c, 1, 61, 0
19, 82662, Note_off_c, 1, 65, 0
19, 82662, Note_off_c, 1, 68, 0
19, 82688, Note_on_c, 1, 50, 108
19, 82688, Note_on_c, 1, 65, 108
19, 82688, Note_on_c, 1, 68, 108
19, 82688, Note_on_c, 1, 71, 108
19, 82790, Note_off_c, 1, 50, 0
19, 82790, Note_off_c, 1, 65, 0
19, 82790, Note_off_c, 1, 68, 0
19, 82790, Note_off_c, 1, 71, 0
19, 82816, Note_on_c, 1, 50, 108
19, 82816, Note_on_c, 1, 65, 108
19, 82816, Note_on_c, 1, 68, 108
19, 82816, Note_on_c, 1, 71, 108
19, 82918, Note_off_c, 1, 50, 0
19, 82918, Note_off_c, 1, 65, 0
19, 82918, Note_off_c, 1, 68, 0
19, 82918, Note_off_c, 1, 71, 0
19, 82944, Note_on_c, 1, 50, 105
19, 82944, Note_on_c, 1, 65, 105
19, 82944, Note_on_c, 1, 68, 105
19, 82944, Note_on_c, 1, 71, 105
19, 83046, Note_off_c, 1, 50, 0
19, 83046, Note_off_c, 1, 65, 0
19, 83046, Note_off_c, 1, 68, 0
19, 83046, Note_off_c, 1, 71, 0
19, 83072, Note_on_c, 1, 50, 105
19, 83072, Note_on_c, 1, 65, 105
19, 83072, Note_on_c, 1, 68, 105
19, 83072, Note_on_c, 1, 71, 105
19, 83174, Note_off_c, 1, 50, 0
19, 83174, Note_off_c, 1, 65, 0
19, 83174, Note_off_c, 1, 68, 0
19, 83174, Note_off_c, 1, 71, 0
19, 83200, Note_on_c, 1, 50, 105
19, 83200, Note_on_c, 1, 65, 105
19, 83200, Note_on_c, 1, 68, 105
19, 83200, Note_on_c, 1, 71, 105
19, 83302, Note_off_c, 1, 50, 0
19, 83302, Note_off_c, 1, 65, 0
19, 83302, Note_off_c, 1, 68, 0
19, 83302, Note_off_c, 1, 71, 0
19, 83328, Note_on_c, 1, 50, 105
19, 83328, Note_on_c, 1, 65, 105
19, 83328, Note_on_c, 1, 68, 105
19, 83328, Note_on_c, 1, 71, 105
19, 83430, Note_off_c, 1, 50, 0
19, 83430, Note_off_c, 1, 65, 0
19, 83430, Note_off_c, 1, 68, 0
19, 83430, Note_off_c, 1, 71, 0
19, 83456, Note_on_c, 1, 50, 97
19, 83456, Note_on_c, 1, 65, 97
19, 83456, Note_on_c, 1, 68, 97
19, 83456, Note_on_c, 1, 71, 97
19, 83558, Note_off_c, 1, 50, 0
19, 83558, Note_off_c, 1, 65, 0
19, 83558, Note_off_c, 1, 68, 0
19, 83558, Note_off_c, 1, 71, 0
19, 83584, Note_on_c, 1, 50, 97
19, 83584, Note_on_c, 1, 65, 97
19, 83584, Note_on_c, 1, 68, 97
19, 83584, Note_on_c, 1, 71, 97
19, 83686, Note_off_c, 1, 50, 0
19, 83686, Note_off_c, 1, 65, 0
19, 83686, Note_off_c, 1, 68, 0
19, 83686, Note_off_c, 1, 71, 0
19, 83712, Note_on_c, 1, 50, 97
19, 83712, Note_on_c, 1, 65, 97
19, 83712, Note_on_c, 1, 68, 97
19, 83712, Note_on_c, 1, 71, 97
19, 83814, Note_off_c, 1, 50, 0
19, 83814, Note_off_c, 1, 65, 0
19, 83814, Note_off_c, 1, 68, 0
19, 83814, Note_off_c, 1, 71, 0
19, 83840, Note_on_c, 1, 50, 97
19, 83840, Note_on_c, 1, 65, 97
19, 83840, Note_on_c, 1, 68, 97
19, 83840, Note_on_c, 1, 71, 97
19, 83942, Note_off_c, 1, 50, 0
19, 83942, Note_off_c, 1, 65, 0
19, 83942, Note_off_c, 1, 68, 0
19, 83942, Note_off_c, 1, 71, 0
19, 83968, Note_on_c, 1, 50, 99
19, 83968, Note_on_c, 1, 65, 99
19, 83968, Note_on_c, 1, 68, 99
19, 83968, Note_on_c, 1, 71, 99
19, 84070, Note_off_c, 1, 50, 0
19, 84070, Note_off_c, 1, 65, 0
19, 84070, Note_off_c, 1, 68, 0
19, 84070, Note_off_c, 1, 71, 0
19, 84096, Note_on_c, 1, 50, 99
19, 84096, Note_on_c, 1, 65, 99
19, 84096, Note_on_c, 1, 68, 99
19, 84096, Note_on_c, 1, 71, 99
19, 84198, Note_off_c, 1, 50, 0
19, 84198, Note_off_c, 1, 65, 0
19, 84198, Note_off_c, 1, 68, 0
19, 84198, Note_off_c, 1, 71, 0
19, 84224, Note_on_c, 1, 65, 93
19, 84224, Note_on_c, 1, 68, 93
19, 84224, Note_on_c, 1, 71, 93
19, 84326, Note_off_c, 1, 65, 0
19, 84326, Note_off_c, 1, 68, 0
19, 84326, Note_off_c, 1, 71, 0
19, 84352, Note_on_c, 1, 65, 93
19, 84352, Note_on_c, 1, 68, 93
19, 84352, Note_on_c, 1, 71, 93
19, 84454, Note_off_c, 1, 65, 0
19, 84454, Note_off_c, 1, 68, 0
19, 84454, Note_off_c, 1, 71, 0
19, 84480, Note_on_c, 1, 65, 93
19, 84480, Note_on_c, 1, 68, 93
19, 84480, Note_on_c, 1, 71, 93
19, 84582, Note_off_c, 1, 65, 0
19, 84582, Note_off_c, 1, 68, 0
19, 84582, Note_off_c, 1, 71, 0
19, 84608, Note_on_c, 1, 65, 93
19, 84608, Note_on_c, 1, 68, 93
19, 84608, Note_on_c, 1, 71, 93
19, 84710, Note_off_c, 1, 65, 0
19, 84710, Note_off_c, 1, 68, 0
19, 84710, Note_off_c, 1, 71, 0
19, 84736, Note_on_c, 1, 65, 93
19, 84736, Note_on_c, 1, 68, 93
19, 84736, Note_on_c, 1, 71, 93
19, 84838, Note_off_c, 1, 65, 0
19, 84838, Note_off_c, 1, 68, 0
19, 84838, Note_off_c, 1, 71, 0
19, 84864, Note_on_c, 1, 65, 93
19, 84864, Note_on_c, 1, 68, 93
19, 84864, Note_on_c, 1, 71, 93
19, 84966, Note_off_c, 1, 65, 0
19, 84966, Note_off_c, 1, 68, 0
19, 84966, Note_off_c, 1, 71, 0
19, 84992, Note_on_c, 1, 65, 97
19, 84992, Note_on_c, 1, 68, 97
19, 84992, Note_on_c, 1, 71, 97
19, 85094, Note_off_c, 1, 65, 0
19, 85094, Note_off_c, 1, 68, 0
19, 85094, Note_off_c, 1, 71, 0
19, 85120, Note_on_c, 1, 65, 97
19, 85120, Note_on_c, 1, 68, 97
19, 85120, Note_on_c, 1, 71, 97
19, 85222, Note_off_c, 1, 65, 0
19, 85222, Note_off_c, 1, 68, 0
19, 85222, Note_off_c, 1, 71, 0
19, 85248, Note_on_c, 1, 65, 97
19, 85248, Note_on_c, 1, 68, 97
19, 85248, Note_on_c, 1, 71, 97
19, 85350, Note_off_c, 1, 65, 0
19, 85350, Note_off_c, 1, 68, 0
19, 85350, Note_off_c, 1, 71, 0
19, 85376, Note_on_c, 1, 65, 97
19, 85376, Note_on_c, 1, 68, 97
19, 85376, Note_on_c, 1, 71, 97
19, 85478, Note_off_c, 1, 65, 0
19, 85478, Note_off_c, 1, 68, 0
19, 85478, Note_off_c, 1, 71, 0
19, 85504, Note_on_c, 1, 62, 91
19, 85504, Note_on_c, 1, 66, 91
19, 85504, Note_on_c, 1, 69, 91
19, 85606, Note_off_c, 1, 62, 0
19, 85606, Note_off_c, 1, 66, 0
19, 85606, Note_off_c, 1, 69, 0
19, 85632, Note_on_c, 1, 62, 91
19, 85632, Note_on_c, 1, 66, 91
19, 85632, Note_on_c, 1, 69, 91
19, 85734, Note_off_c, 1, 62, 0
19, 85734, Note_off_c, 1, 66, 0
19, 85734, Note_off_c, 1, 69, 0
19, 85760, Note_on_c, 1, 62, 91
19, 85760, Note_on_c, 1, 66, 91
19, 85760, Note_on_c, 1, 69, 91
19, 85862, Note_off_c, 1, 62, 0
19, 85862, Note_off_c, 1, 66, 0
19, 85862, Note_off_c, 1, 69, 0
19, 85888, Note_on_c, 1, 62, 91
19, 85888, Note_on_c, 1, 66, 91
19, 85888, Note_on_c, 1, 69, 91
19, 85990, Note_off_c, 1, 62, 0
19, 85990, Note_off_c, 1, 66, 0
19, 85990, Note_off_c, 1, 69, 0
19, 86016, Note_on_c, 1, 62, 99
19, 86016, Note_on_c, 1, 66, 99
19, 86016, Note_on_c, 1, 69, 99
19, 86118, Note_off_c, 1, 62, 0
19, 86118, Note_off_c, 1, 66, 0
19, 86118, Note_off_c, 1, 69, 0
19, 86144, Note_on_c, 1, 62, 99
19, 86144, Note_on_c, 1, 66, 99
19, 86144, Note_on_c, 1, 69, 99
19, 86246, Note_off_c, 1, 62, 0
19, 86246, Note_off_c, 1, 66, 0
19, 86246, Note_off_c, 1, 69, 0
19, 86272, Note_on_c, 1, 62, 99
19, 86272, Note_on_c, 1, 66, 99
19, 86272, Note_on_c, 1, 69, 99
19, 86374, Note_off_c, 1, 62, 0
19, 86374, Note_off_c, 1, 66, 0
19, 86374, Note_off_c, 1, 69, 0
19, 86400, Note_on_c, 1, 62, 99
19, 86400, Note_on_c, 1, 66, 99
19, 86400, Note_on_c, 1, 69, 99
19, 86502, Note_off_c, 1, 62, 0
19, 86502, Note_off_c, 1, 66, 0
19, 86502, Note_off_c, 1, 69, 0
19, 86528, Note_on_c, 1, 62, 100
19, 86528, Note_on_c, 1, 66, 100
19, 86528, Note_on_c, 1, 69, 100
19, 86656, Note_off_c, 1, 62, 0
19, 86656, Note_off_c, 1, 66, 0
19, 86656, Note_off_c, 1, 69, 0
19, 86656, Note_on_c, 1, 61, 92
19, 86656, Note_on_c, 1, 65, 92
19, 86656, Note_on_c, 1, 68, 92
19, 86758, Note_off_c, 1, 61, 0
19, 86758, Note_off_c, 1, 65, 0
19, 86758, Note_off_c, 1, 68, 0
19, 86784, Note_on_c, 1, 61, 92
19, 86784, Note_on_c, 1, 65, 92
19, 86784, Note_on_c, 1, 68, 92
19, 86886, Note_off_c, 1, 61, 0
19, 86886, Note_off_c, 1, 65, 0
19, 86886, Note_off_c, 1, 68, 0
19, 86912, Note_on_c, 1, 61, 92
19, 86912, Note_on_c, 1, 65, 92
19, 86912, Note_on_c, 1, 68, 92
19, 87014, Note_off_c, 1, 61, 0
19, 87014, Note_off_c, 1, 65, 0
19, 87014, Note_off_c, 1, 68, 0
19, 87040, Note_on_c, 1, 61, 94
19, 87040, Note_on_c, 1, 65, 94
19, 87040, Note_on_c, 1, 68, 94
19, 87142, Note_off_c, 1, 61, 0
19, 87142, Note_off_c, 1, 65, 0
19, 87142, Note_off_c, 1, 68, 0
19, 87168, Note_on_c, 1, 61, 94
19, 87168, Note_on_c, 1, 65, 94
19, 87168, Note_on_c, 1, 68, 94
19, 87270, Note_off_c, 1, 61, 0
19, 87270, Note_off_c, 1, 65, 0
19, 87270, Note_off_c, 1, 68, 0
19, 87296, Note_on_c, 1, 61, 94
19, 87296, Note_on_c, 1, 65, 94
19, 87296, Note_on_c, 1, 68, 94
19, 87398, Note_off_c, 1, 61, 0
19, 87398, Note_off_c, 1, 65, 0
19, 87398, Note_off_c, 1, 68, 0
19, 87424, Note_on_c, 1, 61, 94
19, 87424, Note_on_c, 1, 65, 94
19, 87424, Note_on_c, 1, 68, 94
19, 87526, Note_off_c, 1, 61, 0
19, 87526, Note_off_c, 1, 65, 0
19, 87526, Note_off_c, 1, 68, 0
19, 87552, Note_on_c, 1, 62, 102
19, 87552, Note_on_c, 1, 66, 102
19, 87552, Note_on_c, 1, 69, 102
19, 87654, Note_off_c, 1, 62, 0
19, 87654, Note_off_c, 1, 66, 0
19, 87654, Note_off_c, 1, 69, 0
19, 87680, Note_on_c, 1, 62, 102
19, 87680, Note_on_c, 1, 66, 102
19, 87680, Note_on_c, 1, 69, 102
19, 87782, Note_off_c, 1, 62, 0
19, 87782, Note_off_c, 1, 66, 0
19, 87782, Note_off_c, 1, 69, 0
19, 87808, Note_on_c, 1, 62, 102
19, 87808, Note_on_c, 1, 66, 102
19, 87808, Note_on_c, 1, 69, 102
19, 87910, Note_off_c, 1, 62, 0
19, 87910, Note_off_c, 1, 66, 0
19, 87910, Note_off_c, 1, 69, 0
19, 87936, Note_on_c, 1, 62, 102
19, 87936, Note_on_c, 1, 66, 102
19, 87936, Note_on_c, 1, 69, 102
19, 88038, Note_off_c, 1, 62, 0
19, 88038, Note_off_c, 1, 66, 0
19, 88038, Note_off_c, 1, 69, 0
19, 88064, Note_on_c, 1, 62, 98
19, 88064, Note_on_c, 1, 66, 98
19, 88064, Note_on_c, 1, 69, 98
19, 88166, Note_off_c, 1, 62, 0
19, 88166, Note_off_c, 1, 66, 0
19, 88166, Note_off_c, 1, 69, 0
19, 88192, Note_on_c, 1, 62, 98
19, 88192, Note_on_c, 1, 66, 98
19, 88192, Note_on_c, 1, 69, 98
19, 88294, Note_off_c, 1, 62, 0
19, 88294, Note_off_c, 1, 66, 0
19, 88294, Note_off_c, 1, 69, 0
19, 88320, Note_on_c, 1, 62, 98
19, 88320, Note_on_c, 1, 66, 98
19, 88320, Note_on_c, 1, 69, 98
19, 88422, Note_off_c, 1, 62, 0
19, 88422, Note_off_c, 1, 66, 0
19, 88422, Note_off_c, 1, 69, 0
19, 88448, Note_on_c, 1, 45, 95
19, 88448, Note_on_c, 1, 59, 95
19, 88448, Note_on_c, 1, 64, 95
19, 88448, Note_on_c, 1, 68, 95
19, 88576, Note_off_c, 1, 45, 0
19, 88576, Note_off_c, 1, 59, 0
19, 88576, Note_off_c, 1, 64, 0
19, 88576, Note_off_c, 1, 68, 0
19, 88576, Note_on_c, 1, 45, 97
19, 88576, Note_on_c, 1, 59, 97
19, 88576, Note_on_c, 1, 64, 97
19, 88576, Note_on_c, 1, 68, 97
19, 88678, Note_off_c, 1, 45, 0
19, 88678, Note_off_c, 1, 59, 0
19, 88678, Note_off_c, 1, 64, 0
19, 88678, Note_off_c, 1, 68, 0
19, 88704, Note_on_c, 1, 45, 97
19, 88704, Note_on_c, 1, 59, 97
19, 88704, Note_on_c, 1, 64, 97
19, 88704, Note_on_c, 1, 68, 97
19, 88806, Note_off_c, 1, 45, 0
19, 88806, Note_off_c, 1, 59, 0
19, 88806, Note_off_c, 1, 64, 0
19, 88806, Note_off_c, 1, 68, 0
19, 88832, Note_on_c, 1, 45, 97
19, 88832, Note_on_c, 1, 59, 97
19, 88832, Note_on_c, 1, 64, 97
19, 88832, Note_on_c, 1, 68, 97
19, 88934, Note_off_c, 1, 45, 0
19, 88934, Note_off_c, 1, 59, 0
19, 88934, Note_off_c, 1, 64, 0
19, 88934, Note_off_c, 1, 68, 0
19, 88960, Note_on_c, 1, 45, 97
19, 88960, Note_on_c, 1, 59, 97
19, 88960, Note_on_c, 1, 64, 97
19, 88960, Note_on_c, 1, 68, 97
19, 89062, Note_off_c, 1, 45, 0
19, 89062, Note_off_c, 1, 59, 0
19, 89062, Note_off_c, 1, 64, 0
19, 89062, Note_off_c, 1, 68, 0
19, 89088, Note_on_c, 1, 45, 95
19, 89088, Note_on_c, 1, 59, 95
19, 89088, Note_on_c, 1, 64, 95
19, 89088, Note_on_c, 1, 68, 95
19, 89216, Note_off_c, 1, 45, 0
19, 89216, Note_off_c, 1, 59, 0
19, 89216, Note_off_c, 1, 64, 0
19, 89216, Note_off_c, 1, 68, 0
19, 89216, Note_on_c, 1, 50, 99
19, 89216, Note_on_c, 1, 62, 99
19, 89216, Note_on_c, 1, 65, 99
19, 89216, Note_on_c, 1, 70, 99
19, 89318, Note_off_c, 1, 50, 0
19, 89318, Note_off_c, 1, 62, 0
19, 89318, Note_off_c, 1, 65, 0
19, 89318, Note_off_c, 1, 70, 0
19, 89344, Note_on_c, 1, 50, 99
19, 89344, Note_on_c, 1, 62, 99
19, 89344, Note_on_c, 1, 65, 99
19, 89344, Note_on_c, 1, 70, 99
19, 89446, Note_off_c, 1, 50, 0
19, 89446, Note_off_c, 1, 62, 0
19, 89446, Note_off_c, 1, 65, 0
19, 89446, Note_off_c, 1, 70, 0
19, 89472, Note_on_c, 1, 50, 99
19, 89472, Note_on_c, 1, 62, 99
19, 89472, Note_on_c, 1, 65, 99
19, 89472, Note_on_c, 1, 70, 99
19, 89574, Note_off_c, 1, 50, 0
19, 89574, Note_off_c, 1, 62, 0
19, 89574, Note_off_c, 1, 65, 0
19, 89574, Note_off_c, 1, 70, 0
19, 89600, Note_on_c, 1, 50, 102
19, 89600, Note_on_c, 1, 62, 102
19, 89600, Note_on_c, 1, 65, 102
19, 89600, Note_on_c, 1, 70, 102
19, 89702, Note_off_c, 1, 50, 0
19, 89702, Note_off_c, 1, 62, 0
19, 89702, Note_off_c, 1, 65, 0
19, 89702, Note_off_c, 1, 70, 0
19, 89728, Note_on_c, 1, 50, 102
19, 89728, Note_on_c, 1, 62, 102
19, 89728, Note_on_c, 1, 65, 102
19, 89728, Note_on_c, 1, 70, 102
19, 89830, Note_off_c, 1, 50, 0
19, 89830, Note_off_c, 1, 62, 0
19, 89830, Note_off_c, 1, 65, 0
19, 89830, Note_off_c, 1, 70, 0
19, 89856, Note_on_c, 1, 50, 102
19, 89856, Note_on_c, 1, 62, 102
19, 89856, Note_on_c, 1, 65, 102
19, 89856, Note_on_c, 1, 70, 102
19, 89958, Note_off_c, 1, 50, 0
19, 89958, Note_off_c, 1, 62, 0
19, 89958, Note_off_c, 1, 65, 0
19, 89958, Note_off_c, 1, 70, 0
19, 89984, Note_on_c, 1, 50, 102
19, 89984, Note_on_c, 1, 62, 102
19, 89984, Note_on_c, 1, 65, 102
19, 89984, Note_on_c, 1, 70, 102
19, 90086, Note_off_c, 1, 50, 0
19, 90086, Note_off_c, 1, 62, 0
19, 90086, Note_off_c, 1, 65, 0
19, 90086, Note_off_c, 1, 70, 0
19, 90112, Note_on_c, 1, 50, 104
19, 90112, Note_on_c, 1, 62, 104
19, 90112, Note_on_c, 1, 65, 104
19, 90112, Note_on_c, 1, 70, 104
19, 90214, Note_off_c, 1, 50, 0
19, 90214, Note_off_c, 1, 62, 0
19, 90214, Note_off_c, 1, 65, 0
19, 90214, Note_off_c, 1, 70, 0
19, 90240, Note_on_c, 1, 50, 104
19, 90240, Note_on_c, 1, 62, 104
19, 90240, Note_on_c, 1, 65, 104
19, 90240, Note_on_c, 1, 70, 104
19, 90342, Note_off_c, 1, 50, 0
19, 90342, Note_off_c, 1, 62, 0
19, 90342, Note_off_c, 1, 65, 0
19, 90342, Note_off_c, 1, 70, 0
19, 90368, Note_on_c, 1, 50, 104
19, 90368, Note_on_c, 1, 62, 104
19, 90368, Note_on_c, 1, 65, 104
19, 90368, Note_on_c, 1, 70, 104
19, 90470, Note_off_c, 1, 50, 0
19, 90470, Note_off_c, 1, 62, 0
19, 90470, Note_off_c, 1, 65, 0
19, 90470, Note_off_c, 1, 70, 0
19, 90496, Note_on_c, 1, 50, 104
19, 90496, Note_on_c, 1, 62, 104
19, 90496, Note_on_c, 1, 65, 104
19, 90496, Note_on_c, 1, 70, 104
19, 90598, Note_off_c, 1, 50, 0
19, 90598, Note_off_c, 1, 62, 0
19, 90598, Note_off_c, 1, 65, 0
19, 90598, Note_off_c, 1, 70, 0
19, 90624, Note_on_c, 1, 50, 98
19, 90624, Note_on_c, 1, 62, 98
19, 90624, Note_on_c, 1, 65, 98
19, 90624, Note_on_c, 1, 70, 98
19, 90752, Note_off_c, 1, 50, 0
19, 90752, Note_off_c, 1, 62, 0
19, 90752, Note_off_c, 1, 65, 0
19, 90752, Note_off_c, 1, 70, 0
19, 101632, Note_on_c, 1, 60, 64
19, 101632, Note_on_c, 1, 66, 64
19, 101632, Note_on_c, 1, 70, 64
19, 101644, Note_off_c, 1, 60, 0
19, 101644, Note_off_c, 1, 66, 0
19, 101644, Note_off_c, 1, 70, 0
19, 101648, Note_on_c, 1, 60, 64
19, 101648, Note_on_c, 1, 66, 64
19, 101648, Note_on_c, 1, 70, 64
19, 101660, Note_off_c, 1, 60, 0
19, 101660, Note_off_c, 1, 66, 0
19, 101660, Note_off_c, 1, 70, 0
19, 101664, Note_on_c, 1, 60, 64
19, 101664, Note_on_c, 1, 66, 64
19, 101664, Note_on_c, 1, 70, 64
19, 101676, Note_off_c, 1, 60, 0
19, 101676, Note_off_c, 1, 66, 0
19, 101676, Note_off_c, 1, 70, 0
19, 101680, Note_on_c, 1, 60, 64
19, 101680, Note_on_c, 1, 66, 64
19, 101680, Note_on_c, 1, 70, 64
19, 101692, Note_off_c, 1, 60, 0
19, 101692, Note_off_c, 1, 66, 0
19, 101692, Note_off_c, 1, 70, 0
19, 101696, Note_on_c, 1, 60, 64
19, 101696, Note_on_c, 1, 66, 64
19, 101696, Note_on_c, 1, 70, 64
19, 101708, Note_off_c, 1, 60, 0
19, 101708, Note_off_c, 1, 66, 0
19, 101708, Note_off_c, 1, 70, 0
19, 101712, Note_on_c, 1, 60, 64
19, 101712, Note_on_c, 1, 66, 64
19, 101712, Note_on_c, 1, 70, 64
19, 101724, Note_off_c, 1, 60, 0
19, 101724, Note_off_c, 1, 66, 0
19, 101724, Note_off_c, 1, 70, 0
19, 101728, Note_on_c, 1, 60, 64
19, 101728, Note_on_c, 1, 66, 64
19, 101728, Note_on_c, 1, 70, 64
19, 101740, Note_off_c, 1, 60, 0
19, 101740, Note_off_c, 1, 66, 0
19, 101740, Note_off_c, 1, 70, 0
19, 101744, Note_on_c, 1, 60, 64
19, 101744, Note_on_c, 1, 66, 64
19, 101744, Note_on_c, 1, 70, 64
19, 101756, Note_off_c, 1, 60, 0
19, 101756, Note_off_c, 1, 66, 0
19, 101756, Note_off_c, 1, 70, 0
19, 101760, Note_on_c, 1, 60, 71
19, 101760, Note_on_c, 1, 66, 71
19, 101760, Note_on_c, 1, 70, 71
19, 101824, Note_off_c, 1, 60, 0
19, 101824, Note_off_c, 1, 66, 0
19, 101824, Note_off_c, 1, 70, 0
19, 101824, Note_on_c, 1, 60, 69
19, 101824, Note_on_c, 1, 66, 69
19, 101824, Note_on_c, 1, 70, 69
19, 101856, Note_off_c, 1, 60, 0
19, 101856, Note_off_c, 1, 66, 0
19, 101856, Note_off_c, 1, 70, 0
19, 101856, Note_on_c, 1, 60, 71
19, 101856, Note_on_c, 1, 66, 71
19, 101856, Note_on_c, 1, 70, 71
19, 101888, Note_off_c, 1, 60, 0
19, 101888, Note_off_c, 1, 66, 0
19, 101888, Note_off_c, 1, 70, 0
19, 101888, Note_on_c, 1, 60, 70
19, 101888, Note_on_c, 1, 66, 70
19, 101888, Note_on_c, 1, 70, 70
19, 101952, Note_off_c, 1, 60, 0
19, 101952, Note_off_c, 1, 66, 0
19, 101952, Note_off_c, 1, 70, 0
19, 101952, Note_on_c, 1, 60, 75
19, 101952, Note_on_c, 1, 66, 75
19, 101952, Note_on_c, 1, 70, 75
19, 101984, Note_off_c, 1, 60, 0
19, 101984, Note_off_c, 1, 66, 0
19, 101984, Note_off_c, 1, 70, 0
19, 101984, Note_on_c, 1, 60, 68
19, 101984, Note_on_c, 1, 66, 68
19, 101984, Note_on_c, 1, 70, 68
19, 102016, Note_off_c, 1, 60, 0
19, 102016, Note_off_c, 1, 66, 0
19, 102016, Note_off_c, 1, 70, 0
19, 102016, Note_on_c, 1, 60, 69
19, 102016, Note_on_c, 1, 66, 69
19, 102016, Note_on_c, 1, 70, 69
19, 102048, Note_off_c, 1, 60, 0
19, 102048, Note_off_c, 1, 66, 0
19, 102048, Note_off_c, 1, 70, 0
19, 102048, Note_on_c, 1, 60, 72
19, 102048, Note_on_c, 1, 66, 72
19, 102048, Note_on_c, 1, 70, 72
19, 102080, Note_off_c, 1, 60, 0
19, 102080, Note_off_c, 1, 66, 0
19, 102080, Note_off_c, 1, 70, 0
19, 102080, Note_on_c, 1, 60, 74
19, 102080, Note_on_c, 1, 66, 74
19, 102080, Note_on_c, 1, 70, 74
19, 102112, Note_off_c, 1, 60, 0
19, 102112, Note_off_c, 1, 66, 0
19, 102112, Note_off_c, 1, 70, 0
19, 102112, Note_on_c, 1, 60, 70
19, 102112, Note_on_c, 1, 66, 70
19, 102112, Note_on_c, 1, 70, 70
19, 102144, Note_off_c, 1, 60, 0
19, 102144, Note_off_c, 1, 66, 0
19, 102144, Note_off_c, 1, 70, 0
19, 102144, Note_on_c, 1, 60, 74
19, 102144, Note_on_c, 1, 66, 74
19, 102144, Note_on_c, 1, 70, 74
19, 102169, Note_off_c, 1, 60, 0
19, 102169, Note_off_c, 1, 66, 0
19, 102169, Note_off_c, 1, 70, 0
19, 102176, Note_on_c, 1, 60, 74
19, 102176, Note_on_c, 1, 66, 74
19, 102176, Note_on_c, 1, 70, 74
19, 102201, Note_off_c, 1, 60, 0
19, 102201, Note_off_c, 1, 66, 0
19, 102201, Note_off_c, 1, 70, 0
19, 102208, Note_on_c, 1, 60, 74
19, 102208, Note_on_c, 1, 66, 74
19, 102208, Note_on_c, 1, 70, 74
19, 102233, Note_off_c, 1, 60, 0
19, 102233, Note_off_c, 1, 66, 0
19, 102233, Note_off_c, 1, 70, 0
19, 102240, Note_on_c, 1, 60, 74
19, 102240, Note_on_c, 1, 66, 74
19, 102240, Note_on_c, 1, 70, 74
19, 102265, Note_off_c, 1, 60, 0
19, 102265, Note_off_c, 1, 66, 0
19, 102265, Note_off_c, 1, 70, 0
19, 102272, Note_on_c, 1, 60, 74
19, 102272, Note_on_c, 1, 66, 74
19, 102272, Note_on_c, 1, 70, 74
19, 102297, Note_off_c, 1, 60, 0
19, 102297, Note_off_c, 1, 66, 0
19, 102297, Note_off_c, 1, 70, 0
19, 102304, Note_on_c, 1, 60, 74
19, 102304, Note_on_c, 1, 66, 74
19, 102304, Note_on_c, 1, 70, 74
19, 102329, Note_off_c, 1, 60, 0
19, 102329, Note_off_c, 1, 66, 0
19, 102329, Note_off_c, 1, 70, 0
19, 102336, Note_on_c, 1, 60, 74
19, 102336, Note_on_c, 1, 66, 74
19, 102336, Note_on_c, 1, 70, 74
19, 102361, Note_off_c, 1, 60, 0
19, 102361, Note_off_c, 1, 66, 0
19, 102361, Note_off_c, 1, 70, 0
19, 102368, Note_on_c, 1, 60, 74
19, 102368, Note_on_c, 1, 66, 74
19, 102368, Note_on_c, 1, 70, 74
19, 102393, Note_off_c, 1, 60, 0
19, 102393, Note_off_c, 1, 66, 0
19, 102393, Note_off_c, 1, 70, 0
19, 102432, Note_on_c, 1, 60, 63
19, 102432, Note_on_c, 1, 66, 63
19, 102432, Note_on_c, 1, 70, 63
19, 102464, Note_off_c, 1, 60, 0
19, 102464, Note_off_c, 1, 66, 0
19, 102464, Note_off_c, 1, 70, 0
19, 102464, Note_on_c, 1, 60, 66
19, 102464, Note_on_c, 1, 66, 66
19, 102464, Note_on_c, 1, 70, 66
19, 102496, Note_off_c, 1, 60, 0
19, 102496, Note_off_c, 1, 66, 0
19, 102496, Note_off_c, 1, 70, 0
19, 102496, Note_on_c, 1, 60, 70
19, 102496, Note_on_c, 1, 66, 70
19, 102496, Note_on_c, 1, 70, 70
19, 102528, Note_off_c, 1, 60, 0
19, 102528, Note_off_c, 1, 66, 0
19, 102528, Note_off_c, 1, 70, 0
19, 102528, Note_on_c, 1, 60, 72
19, 102528, Note_on_c, 1, 66, 72
19, 102528, Note_on_c, 1, 70, 72
19, 102560, Note_off_c, 1, 60, 0
19, 102560, Note_off_c, 1, 66, 0
19, 102560, Note_off_c, 1, 70, 0
19, 102560, Note_on_c, 1, 60, 71
19, 102560, Note_on_c, 1, 66, 71
19, 102560, Note_on_c, 1, 70, 71
19, 102592, Note_off_c, 1, 60, 0
19, 102592, Note_off_c, 1, 66, 0
19, 102592, Note_off_c, 1, 70, 0
19, 102592, Note_on_c, 1, 60, 71
19, 102592, Note_on_c, 1, 66, 71
19, 102592, Note_on_c, 1, 70, 71
19, 102624, Note_off_c, 1, 60, 0
19, 102624, Note_off_c, 1, 66, 0
19, 102624, Note_off_c, 1, 70, 0
19, 102624, Note_on_c, 1, 60, 75
19, 102624, Note_on_c, 1, 66, 75
19, 102624, Note_on_c, 1, 70, 75
19, 102656, Note_off_c, 1, 60, 0
19, 102656, Note_off_c, 1, 66, 0
19, 102656, Note_off_c, 1, 70, 0
19, 102688, Note_on_c, 1, 60, 61
19, 102688, Note_on_c, 1, 66, 61
19, 102688, Note_on_c, 1, 70, 61
19, 102720, Note_off_c, 1, 60, 0
19, 102720, Note_off_c, 1, 66, 0
19, 102720, Note_off_c, 1, 70, 0
19, 102720, Note_on_c, 1, 60, 72
19, 102720, Note_on_c, 1, 66, 72
19, 102720, Note_on_c, 1, 70, 72
19, 102752, Note_off_c, 1, 60, 0
19, 102752, Note_off_c, 1, 66, 0
19, 102752, Note_off_c, 1, 70, 0
19, 102752, Note_on_c, 1, 60, 67
19, 102752, Note_on_c, 1, 66, 67
19, 102752, Note_on_c, 1, 70, 67
19, 102784, Note_off_c, 1, 60, 0
19, 102784, Note_off_c, 1, 66, 0
19, 102784, Note_off_c, 1, 70, 0
19, 102784, Note_on_c, 1, 60, 69
19, 102784, Note_on_c, 1, 66, 69
19, 102784, Note_on_c, 1, 70, 69
19, 102816, Note_off_c, 1, 60, 0
19, 102816, Note_off_c, 1, 66, 0
19, 102816, Note_off_c, 1, 70, 0
19, 102816, Note_on_c, 1, 60, 67
19, 102816, Note_on_c, 1, 66, 67
19, 102816, Note_on_c, 1, 70, 67
19, 102848, Note_off_c, 1, 60, 0
19, 102848, Note_off_c, 1, 66, 0
19, 102848, Note_off_c, 1, 70, 0
19, 102848, Note_on_c, 1, 60, 72
19, 102848, Note_on_c, 1, 66, 72
19, 102848, Note_on_c, 1, 70, 72
19, 102880, Note_off_c, 1, 60, 0
19, 102880, Note_off_c, 1, 66, 0
19, 102880, Note_off_c, 1, 70, 0
19, 102880, Note_on_c, 1, 60, 76
19, 102880, Note_on_c, 1, 66, 76
19, 102880, Note_on_c, 1, 70, 76
19, 102912, Note_off_c, 1, 60, 0
19, 102912, Note_off_c, 1, 66, 0
19, 102912, Note_off_c, 1, 70, 0
19, 102912, Note_on_c, 1, 60, 73
19, 102912, Note_on_c, 1, 66, 73
19, 102912, Note_on_c, 1, 70, 73
19, 102937, Note_off_c, 1, 60, 0
19, 102937, Note_off_c, 1, 66, 0
19, 102937, Note_off_c, 1, 70, 0
19, 102944, Note_on_c, 1, 60, 73
19, 102944, Note_on_c, 1, 66, 73
19, 102944, Note_on_c, 1, 70, 73
19, 102969, Note_off_c, 1, 60, 0
19, 102969, Note_off_c, 1, 66, 0
19, 102969, Note_off_c, 1, 70, 0
19, 102976, Note_on_c, 1, 60, 73
19, 102976, Note_on_c, 1, 66, 73
19, 102976, Note_on_c, 1, 70, 73
19, 103001, Note_off_c, 1, 60, 0
19, 103001, Note_off_c, 1, 66, 0
19, 103001, Note_off_c, 1, 70, 0
19, 103008, Note_on_c, 1, 60, 73
19, 103008, Note_on_c, 1, 66, 73
19, 103008, Note_on_c, 1, 70, 73
19, 103033, Note_off_c, 1, 60, 0
19, 103033, Note_off_c, 1, 66, 0
19, 103033, Note_off_c, 1, 70, 0
19, 103040, Note_on_c, 1, 60, 73
19, 103040, Note_on_c, 1, 66, 73
19, 103040, Note_on_c, 1, 70, 73
19, 103065, Note_off_c, 1, 60, 0
19, 103065, Note_off_c, 1, 66, 0
19, 103065, Note_off_c, 1, 70, 0
19, 103072, Note_on_c, 1, 60, 73
19, 103072, Note_on_c, 1, 66, 73
19, 103072, Note_on_c, 1, 70, 73
19, 103097, Note_off_c, 1, 60, 0
19, 103097, Note_off_c, 1, 66, 0
19, 103097, Note_off_c, 1, 70, 0
19, 103104, Note_on_c, 1, 60, 73
19, 103104, Note_on_c, 1, 66, 73
19, 103104, Note_on_c, 1, 70, 73
19, 103129, Note_off_c, 1, 60, 0
19, 103129, Note_off_c, 1, 66, 0
19, 103129, Note_off_c, 1, 70, 0
19, 103136, Note_on_c, 1, 60, 73
19, 103136, Note_on_c, 1, 66, 73
19, 103136, Note_on_c, 1, 70, 73
19, 103161, Note_off_c, 1, 60, 0
19, 103161, Note_off_c, 1, 66, 0
19, 103161, Note_off_c, 1, 70, 0
19, 103168, Note_on_c, 1, 60, 72
19, 103168, Note_on_c, 1, 66, 72
19, 103168, Note_on_c, 1, 70, 72
19, 103193, Note_off_c, 1, 60, 0
19, 103193, Note_off_c, 1, 66, 0
19, 103193, Note_off_c, 1, 70, 0
19, 103200, Note_on_c, 1, 60, 72
19, 103200, Note_on_c, 1, 66, 72
19, 103200, Note_on_c, 1, 70, 72
19, 103225, Note_off_c, 1, 60, 0
19, 103225, Note_off_c, 1, 66, 0
19, 103225, Note_off_c, 1, 70, 0
19, 103232, Note_on_c, 1, 60, 72
19, 103232, Note_on_c, 1, 66, 72
19, 103232, Note_on_c, 1, 70, 72
19, 103257, Note_off_c, 1, 60, 0
19, 103257, Note_off_c, 1, 66, 0
19, 103257, Note_off_c, 1, 70, 0
19, 103264, Note_on_c, 1, 60, 72
19, 103264, Note_on_c, 1, 66, 72
19, 103264, Note_on_c, 1, 70, 72
19, 103289, Note_off_c, 1, 60, 0
19, 103289, Note_off_c, 1, 66, 0
19, 103289, Note_off_c, 1, 70, 0
19, 103296, Note_on_c, 1, 63, 79
19, 103296, Note_on_c, 1, 64, 79
19, 103296, Note_on_c, 1, 71, 79
19, 103321, Note_off_c, 1, 63, 0
19, 103321, Note_off_c, 1, 64, 0
19, 103321, Note_off_c, 1, 71, 0
19, 103328, Note_on_c, 1, 63, 79
19, 103328, Note_on_c, 1, 64, 79
19, 103328, Note_on_c, 1, 71, 79
19, 103353, Note_off_c, 1, 63, 0
19, 103353, Note_off_c, 1, 64, 0
19, 103353, Note_off_c, 1, 71, 0
19, 103360, Note_on_c, 1, 63, 79
19, 103360, Note_on_c, 1, 64, 79
19, 103360, Note_on_c, 1, 71, 79
19, 103385, Note_off_c, 1, 63, 0
19, 103385, Note_off_c, 1, 64, 0
19, 103385, Note_off_c, 1, 71, 0
19, 103392, Note_on_c, 1, 63, 79
19, 103392, Note_on_c, 1, 64, 79
19, 103392, Note_on_c, 1, 71, 79
19, 103417, Note_off_c, 1, 63, 0
19, 103417, Note_off_c, 1, 64, 0
19, 103417, Note_off_c, 1, 71, 0
19, 103424, Note_on_c, 1, 63, 72
19, 103424, Note_on_c, 1, 64, 72
19, 103424, Note_on_c, 1, 71, 72
19, 103456, Note_off_c, 1, 63, 0
19, 103456, Note_off_c, 1, 64, 0
19, 103456, Note_off_c, 1, 71, 0
19, 103456, Note_on_c, 1, 63, 72
19, 103456, Note_on_c, 1, 64, 72
19, 103456, Note_on_c, 1, 71, 72
19, 103488, Note_off_c, 1, 63, 0
19, 103488, Note_off_c, 1, 64, 0
19, 103488, Note_off_c, 1, 71, 0
19, 103488, Note_on_c, 1, 63, 75
19, 103488, Note_on_c, 1, 64, 75
19, 103488, Note_on_c, 1, 71, 75
19, 103520, Note_off_c, 1, 63, 0
19, 103520, Note_off_c, 1, 64, 0
19, 103520, Note_off_c, 1, 71, 0
19, 103552, Note_on_c, 1, 63, 65
19, 103552, Note_on_c, 1, 64, 65
19, 103552, Note_on_c, 1, 71, 65
19, 103584, Note_off_c, 1, 63, 0
19, 103584, Note_off_c, 1, 64, 0
19, 103584, Note_off_c, 1, 71, 0
19, 103584, Note_on_c, 1, 63, 67
19, 103584, Note_on_c, 1, 64, 67
19, 103584, Note_on_c, 1, 71, 67
19, 103616, Note_off_c, 1, 63, 0
19, 103616, Note_off_c, 1, 64, 0
19, 103616, Note_off_c, 1, 71, 0
19, 103616, Note_on_c, 1, 63, 68
19, 103616, Note_on_c, 1, 64, 68
19, 103616, Note_on_c, 1, 71, 68
19, 103648, Note_off_c, 1, 63, 0
19, 103648, Note_off_c, 1, 64, 0
19, 103648, Note_off_c, 1, 71, 0
19, 103648, Note_on_c, 1, 63, 68
19, 103648, Note_on_c, 1, 64, 68
19, 103648, Note_on_c, 1, 71, 68
19, 103680, Note_off_c, 1, 63, 0
19, 103680, Note_off_c, 1, 64, 0
19, 103680, Note_off_c, 1, 71, 0
19, 103680, Note_on_c, 1, 63, 72
19, 103680, Note_on_c, 1, 64, 72
19, 103680, Note_on_c, 1, 71, 72
19, 103712, Note_off_c, 1, 63, 0
19, 103712, Note_off_c, 1, 64, 0
19, 103712, Note_off_c, 1, 71, 0
19, 103712, Note_on_c, 1, 63, 66
19, 103712, Note_on_c, 1, 64, 66
19, 103712, Note_on_c, 1, 71, 66
19, 103744, Note_off_c, 1, 63, 0
19, 103744, Note_off_c, 1, 64, 0
19, 103744, Note_off_c, 1, 71, 0
19, 103744, Note_on_c, 1, 63, 70
19, 103744, Note_on_c, 1, 64, 70
19, 103744, Note_on_c, 1, 71, 70
19, 103776, Note_off_c, 1, 63, 0
19, 103776, Note_off_c, 1, 64, 0
19, 103776, Note_off_c, 1, 71, 0
19, 103776, Note_on_c, 1, 63, 70
19, 103776, Note_on_c, 1, 64, 70
19, 103776, Note_on_c, 1, 71, 70
19, 103808, Note_off_c, 1, 63, 0
19, 103808, Note_off_c, 1, 64, 0
19, 103808, Note_off_c, 1, 71, 0
19, 103936, Note_on_c, 1, 63, 51
19, 103936, Note_on_c, 1, 64, 51
19, 103936, Note_on_c, 1, 71, 51
19, 103968, Note_off_c, 1, 63, 0
19, 103968, Note_off_c, 1, 64, 0
19, 103968, Note_off_c, 1, 71, 0
19, 103968, Note_on_c, 1, 63, 58
19, 103968, Note_on_c, 1, 64, 58
19, 103968, Note_on_c, 1, 71, 58
19, 104000, Note_off_c, 1, 63, 0
19, 104000, Note_off_c, 1, 64, 0
19, 104000, Note_off_c, 1, 71, 0
19, 104000, Note_on_c, 1, 63, 59
19, 104000, Note_on_c, 1, 64, 59
19, 104000, Note_on_c, 1, 71, 59
19, 104032, Note_off_c, 1, 63, 0
19, 104032, Note_off_c, 1, 64, 0
19, 104032, Note_off_c, 1, 71, 0
19, 104032, Note_on_c, 1, 63, 51
19, 104032, Note_on_c, 1, 64, 51
19, 104032, Note_on_c, 1, 71, 51
19, 104064, Note_off_c, 1, 63, 0
19, 104064, Note_off_c, 1, 64, 0
19, 104064, Note_off_c, 1, 71, 0
19, 104064, Note_on_c, 1, 63, 60
19, 104064, Note_on_c, 1, 64, 60
19, 104064, Note_on_c, 1, 71, 60
19, 104096, Note_off_c, 1, 63, 0
19, 104096, Note_off_c, 1, 64, 0
19, 104096, Note_off_c, 1, 71, 0
19, 104096, Note_on_c, 1, 63, 55
19, 104096, Note_on_c, 1, 64, 55
19, 104096, Note_on_c, 1, 71, 55
19, 104128, Note_off_c, 1, 63, 0
19, 104128, Note_off_c, 1, 64, 0
19, 104128, Note_off_c, 1, 71, 0
19, 104128, Note_on_c, 1, 63, 52
19, 104128, Note_on_c, 1, 64, 52
19, 104128, Note_on_c, 1, 71, 52
19, 104160, Note_off_c, 1, 63, 0
19, 104160, Note_off_c, 1, 64, 0
19, 104160, Note_off_c, 1, 71, 0
19, 104160, Note_on_c, 1, 63, 52
19, 104160, Note_on_c, 1, 64, 52
19, 104160, Note_on_c, 1, 71, 52
19, 104192, Note_off_c, 1, 63, 0
19, 104192, Note_off_c, 1, 64, 0
19, 104192, Note_off_c, 1, 71, 0
19, 104320, Note_on_c, 1, 63, 34
19, 104320, Note_on_c, 1, 64, 34
19, 104320, Note_on_c, 1, 71, 34
19, 104352, Note_off_c, 1, 63, 0
19, 104352, Note_off_c, 1, 64, 0
19, 104352, Note_off_c, 1, 71, 0
19, 104352, Note_on_c, 1, 63, 45
19, 104352, Note_on_c, 1, 64, 45
19, 104352, Note_on_c, 1, 71, 45
19, 104384, Note_off_c, 1, 63, 0
19, 104384, Note_off_c, 1, 64, 0
19, 104384, Note_off_c, 1, 71, 0
19, 104384, Note_on_c, 1, 63, 42
19, 104384, Note_on_c, 1, 64, 42
19, 104384, Note_on_c, 1, 71, 42
19, 104416, Note_off_c, 1, 63, 0
19, 104416, Note_off_c, 1, 64, 0
19, 104416, Note_off_c, 1, 71, 0
19, 104416, Note_on_c, 1, 63, 39
19, 104416, Note_on_c, 1, 64, 39
19, 104416, Note_on_c, 1, 71, 39
19, 104448, Note_off_c, 1, 63, 0
19, 104448, Note_off_c, 1, 64, 0
19, 104448, Note_off_c, 1, 71, 0
19, 104448, Note_on_c, 1, 63, 36
19, 104448, Note_on_c, 1, 64, 36
19, 104448, Note_on_c, 1, 71, 36
19, 104480, Note_off_c, 1, 63, 0
19, 104480, Note_off_c, 1, 64, 0
19, 104480, Note_off_c, 1, 71, 0
19, 104480, Note_on_c, 1, 63, 41
19, 104480, Note_on_c, 1, 64, 41
19, 104480, Note_on_c, 1, 71, 41
19, 104512, Note_off_c, 1, 63, 0
19, 104512, Note_off_c, 1, 64, 0
19, 104512, Note_off_c, 1, 71, 0
19, 104512, Note_on_c, 1, 63, 42
19, 104512, Note_on_c, 1, 64, 42
19, 104512, Note_on_c, 1, 71, 42
19, 104544, Note_off_c, 1, 63, 0
19, 104544, Note_off_c, 1, 64, 0
19, 104544, Note_off_c, 1, 71, 0
19, 104608, Note_on_c, 1, 52, 30
19, 104608, Note_on_c, 1, 56, 30
19, 104608, Note_on_c, 1, 61, 30
19, 104608, Note_on_c, 1, 64, 30
19, 104640, Note_off_c, 1, 52, 0
19, 104640, Note_off_c, 1, 56, 0
19, 104640, Note_off_c, 1, 61, 0
19, 104640, Note_off_c, 1, 64, 0
19, 104640, Note_on_c, 1, 52, 38
19, 104640, Note_on_c, 1, 56, 38
19, 104640, Note_on_c, 1, 61, 38
19, 104640, Note_on_c, 1, 64, 38
19, 104672, Note_off_c, 1, 52, 0
19, 104672, Note_off_c, 1, 56, 0
19, 104672, Note_off_c, 1, 61, 0
19, 104672, Note_off_c, 1, 64, 0
19, 104704, Note_on_c, 1, 52, 34
19, 104704, Note_on_c, 1, 56, 34
19, 104704, Note_on_c, 1, 61, 34
19, 104704, Note_on_c, 1, 64, 34
19, 104736, Note_off_c, 1, 52, 0
19, 104736, Note_off_c, 1, 56, 0
19, 104736, Note_off_c, 1, 61, 0
19, 104736, Note_off_c, 1, 64, 0
19, 104736, Note_on_c, 1, 52, 40
19, 104736, Note_on_c, 1, 56, 40
19, 104736, Note_on_c, 1, 61, 40
19, 104736, Note_on_c, 1, 64, 40
19, 104768, Note_off_c, 1, 52, 0
19, 104768, Note_off_c, 1, 56, 0
19, 104768, Note_off_c, 1, 61, 0
19, 104768, Note_off_c, 1, 64, 0
19, 104768, Note_on_c, 1, 52, 43
19, 104768, Note_on_c, 1, 56, 43
19, 104768, Note_on_c, 1, 61, 43
19, 104768, Note_on_c, 1, 64, 43
19, 104800, Note_off_c, 1, 52, 0
19, 104800, Note_off_c, 1, 56, 0
19, 104800, Note_off_c, 1, 61, 0
19, 104800, Note_off_c, 1, 64, 0
19, 104800, Note_on_c, 1, 52, 41
19, 104800, Note_on_c, 1, 56, 41
19, 104800, Note_on_c, 1, 61, 41
19, 104800, Note_on_c, 1, 64, 41
19, 104832, Note_off_c, 1, 52, 0
19, 104832, Note_off_c, 1, 56, 0
19, 104832, Note_off_c, 1, 61, 0
19, 104832, Note_off_c, 1, 64, 0
19, 104832, Note_on_c, 1, 52, 45
19, 104832, Note_on_c, 1, 56, 45
19, 104832, Note_on_c, 1, 61, 45
19, 104832, Note_on_c, 1, 64, 45
19, 104864, Note_off_c, 1, 52, 0
19, 104864, Note_off_c, 1, 56, 0
19, 104864, Note_off_c, 1, 61, 0
19, 104864, Note_off_c, 1, 64, 0
19, 104896, Note_on_c, 1, 52, 33
19, 104896, Note_on_c, 1, 56, 33
19, 104896, Note_on_c, 1, 61, 33
19, 104896, Note_on_c, 1, 64, 33
19, 104928, Note_off_c, 1, 52, 0
19, 104928, Note_off_c, 1, 56, 0
19, 104928, Note_off_c, 1, 61, 0
19, 104928, Note_off_c, 1, 64, 0
19, 104928, Note_on_c, 1, 52, 35
19, 104928, Note_on_c, 1, 56, 35
19, 104928, Note_on_c, 1, 61, 35
19, 104928, Note_on_c, 1, 64, 35
19, 104960, Note_off_c, 1, 52, 0
19, 104960, Note_off_c, 1, 56, 0
19, 104960, Note_off_c, 1, 61, 0
19, 104960, Note_off_c, 1, 64, 0
19, 105024, Note_on_c, 1, 52, 37
19, 105024, Note_on_c, 1, 56, 37
19, 105024, Note_on_c, 1, 61, 37
19, 105024, Note_on_c, 1, 64, 37
19, 105056, Note_off_c, 1, 52, 0
19, 105056, Note_off_c, 1, 56, 0
19, 105056, Note_off_c, 1, 61, 0
19, 105056, Note_off_c, 1, 64, 0
19, 105056, Note_on_c, 1, 52, 38
19, 105056, Note_on_c, 1, 56, 38
19, 105056, Note_on_c, 1, 61, 38
19, 105056, Note_on_c, 1, 64, 38
19, 105088, Note_off_c, 1, 52, 0
19, 105088, Note_off_c, 1, 56, 0
19, 105088, Note_off_c, 1, 61, 0
19, 105088, Note_off_c, 1, 64, 0
19, 105088, Note_on_c, 1, 52, 40
19, 105088, Note_on_c, 1, 56, 40
19, 105088, Note_on_c, 1, 61, 40
19, 105088, Note_on_c, 1, 64, 40
19, 105120, Note_off_c, 1, 52, 0
19, 105120, Note_off_c, 1, 56, 0
19, 105120, Note_off_c, 1, 61, 0
19, 105120, Note_off_c, 1, 64, 0
19, 105120, Note_on_c, 1, 52, 45
19, 105120, Note_on_c, 1, 56, 45
19, 105120, Note_on_c, 1, 61, 45
19, 105120, Note_on_c, 1, 64, 45
19, 105152, Note_off_c, 1, 52, 0
19, 105152, Note_off_c, 1, 56, 0
19, 105152, Note_off_c, 1, 61, 0
19, 105152, Note_off_c, 1, 64, 0
19, 105184, Note_on_c, 1, 52, 37
19, 105184, Note_on_c, 1, 56, 37
19, 105184, Note_on_c, 1, 61, 37
19, 105184, Note_on_c, 1, 64, 37
19, 105216, Note_off_c, 1, 52, 0
19, 105216, Note_off_c, 1, 56, 0
19, 105216, Note_off_c, 1, 61, 0
19, 105216, Note_off_c, 1, 64, 0
19, 105216, Note_on_c, 1, 52, 36
19, 105216, Note_on_c, 1, 56, 36
19, 105216, Note_on_c, 1, 61, 36
19, 105216, Note_on_c, 1, 64, 36
19, 105248, Note_off_c, 1, 52, 0
19, 105248, Note_off_c, 1, 56, 0
19, 105248, Note_off_c, 1, 61, 0
19, 105248, Note_off_c, 1, 64, 0
19, 105248, Note_on_c, 1, 52, 46
19, 105248, Note_on_c, 1, 56, 46
19, 105248, Note_on_c, 1, 61, 46
19, 105248, Note_on_c, 1, 64, 46
19, 105280, Note_off_c, 1, 52, 0
19, 105280, Note_off_c, 1, 56, 0
19, 105280, Note_off_c, 1, 61, 0
19, 105280, Note_off_c, 1, 64, 0
19, 105344, Note_on_c, 1, 52, 33
19, 105344, Note_on_c, 1, 56, 33
19, 105344, Note_on_c, 1, 61, 33
19, 105344, Note_on_c, 1, 64, 33
19, 105376, Note_off_c, 1, 52, 0
19, 105376, Note_off_c, 1, 56, 0
19, 105376, Note_off_c, 1, 61, 0
19, 105376, Note_off_c, 1, 64, 0
19, 105376, Note_on_c, 1, 52, 43
19, 105376, Note_on_c, 1, 56, 43
19, 105376, Note_on_c, 1, 61, 43
19, 105376, Note_on_c, 1, 64, 43
19, 105408, Note_off_c, 1, 52, 0
19, 105408, Note_off_c, 1, 56, 0
19, 105408, Note_off_c, 1, 61, 0
19, 105408, Note_off_c, 1, 64, 0
19, 105408, Note_on_c, 1, 52, 36
19, 105408, Note_on_c, 1, 56, 36
19, 105408, Note_on_c, 1, 61, 36
19, 105408, Note_on_c, 1, 64, 36
19, 105440, Note_off_c, 1, 52, 0
19, 105440, Note_off_c, 1, 56, 0
19, 105440, Note_off_c, 1, 61, 0
19, 105440, Note_off_c, 1, 64, 0
19, 105440, Note_on_c, 1, 52, 39
19, 105440, Note_on_c, 1, 56, 39
19, 105440, Note_on_c, 1, 61, 39
19, 105440, Note_on_c, 1, 64, 39
19, 105472, Note_off_c, 1, 52, 0
19, 105472, Note_off_c, 1, 56, 0
19, 105472, Note_off_c, 1, 61, 0
19, 105472, Note_off_c, 1, 64, 0
19, 105472, Note_on_c, 1, 52, 40
19, 105472, Note_on_c, 1, 56, 40
19, 105472, Note_on_c, 1, 61, 40
19, 105472, Note_on_c, 1, 64, 40
19, 105504, Note_off_c, 1, 52, 0
19, 105504, Note_off_c, 1, 56, 0
19, 105504, Note_off_c, 1, 61, 0
19, 105504, Note_off_c, 1, 64, 0
19, 105504, Note_on_c, 1, 52, 41
19, 105504, Note_on_c, 1, 56, 41
19, 105504, Note_on_c, 1, 61, 41
19, 105504, Note_on_c, 1, 64, 41
19, 105536, Note_off_c, 1, 52, 0
19, 105536, Note_off_c, 1, 56, 0
19, 105536, Note_off_c, 1, 61, 0
19, 105536, Note_off_c, 1, 64, 0
19, 105536, Note_on_c, 1, 52, 40
19, 105536, Note_on_c, 1, 56, 40
19, 105536, Note_on_c, 1, 61, 40
19, 105536, Note_on_c, 1, 64, 40
19, 105568, Note_off_c, 1, 52, 0
19, 105568, Note_off_c, 1, 56, 0
19, 105568, Note_off_c, 1, 61, 0
19, 105568, Note_off_c, 1, 64, 0
19, 105568, Note_on_c, 1, 52, 42
19, 105568, Note_on_c, 1, 56, 42
19, 105568, Note_on_c, 1, 61, 42
19, 105568, Note_on_c, 1, 64, 42
19, 105600, Note_off_c, 1, 52, 0
19, 105600, Note_off_c, 1, 56, 0
19, 105600, Note_off_c, 1, 61, 0
19, 105600, Note_off_c, 1, 64, 0
19, 105728, Note_on_c, 1, 52, 33
19, 105728, Note_on_c, 1, 56, 33
19, 105728, Note_on_c, 1, 61, 33
19, 105728, Note_on_c, 1, 64, 33
19, 105760, Note_off_c, 1, 52, 0
19, 105760, Note_off_c, 1, 56, 0
19, 105760, Note_off_c, 1, 61, 0
19, 105760, Note_off_c, 1, 64, 0
19, 105760, Note_on_c, 1, 52, 39
19, 105760, Note_on_c, 1, 56, 39
19, 105760, Note_on_c, 1, 61, 39
19, 105760, Note_on_c, 1, 64, 39
19, 105792, Note_off_c, 1, 52, 0
19, 105792, Note_off_c, 1, 56, 0
19, 105792, Note_off_c, 1, 61, 0
19, 105792, Note_off_c, 1, 64, 0
19, 105792, Note_on_c, 1, 52, 39
19, 105792, Note_on_c, 1, 56, 39
19, 105792, Note_on_c, 1, 61, 39
19, 105792, Note_on_c, 1, 64, 39
19, 105824, Note_off_c, 1, 52, 0
19, 105824, Note_off_c, 1, 56, 0
19, 105824, Note_off_c, 1, 61, 0
19, 105824, Note_off_c, 1, 64, 0
19, 105824, Note_on_c, 1, 52, 36
19, 105824, Note_on_c, 1, 56, 36
19, 105824, Note_on_c, 1, 61, 36
19, 105824, Note_on_c, 1, 64, 36
19, 105856, Note_off_c, 1, 52, 0
19, 105856, Note_off_c, 1, 56, 0
19, 105856, Note_off_c, 1, 61, 0
19, 105856, Note_off_c, 1, 64, 0
19, 106048, Note_on_c, 1, 52, 36
19, 106048, Note_on_c, 1, 56, 36
19, 106048, Note_on_c, 1, 61, 36
19, 106048, Note_on_c, 1, 64, 36
19, 106080, Note_off_c, 1, 52, 0
19, 106080, Note_off_c, 1, 56, 0
19, 106080, Note_off_c, 1, 61, 0
19, 106080, Note_off_c, 1, 64, 0
19, 106080, Note_on_c, 1, 52, 37
19, 106080, Note_on_c, 1, 56, 37
19, 106080, Note_on_c, 1, 61, 37
19, 106080, Note_on_c, 1, 64, 37
19, 106112, Note_off_c, 1, 52, 0
19, 106112, Note_off_c, 1, 56, 0
19, 106112, Note_off_c, 1, 61, 0
19, 106112, Note_off_c, 1, 64, 0
19, 106112, Note_on_c, 1, 52, 36
19, 106112, Note_on_c, 1, 56, 36
19, 106112, Note_on_c, 1, 61, 36
19, 106112, Note_on_c, 1, 64, 36
19, 106144, Note_off_c, 1, 52, 0
19, 106144, Note_off_c, 1, 56, 0
19, 106144, Note_off_c, 1, 61, 0
19, 106144, Note_off_c, 1, 64, 0
19, 130048, Note_on_c, 1, 60, 67
19, 130048, Note_on_c, 1, 64, 67
19, 130048, Note_on_c, 1, 67, 67
19, 130112, Note_off_c, 1, 60, 0
19, 130112, Note_off_c, 1, 64, 0
19, 130112, Note_off_c, 1, 67, 0
19, 130112, Note_on_c, 1, 60, 73
19, 130112, Note_on_c, 1, 64, 73
19, 130112, Note_on_c, 1, 67, 73
19, 130176, Note_off_c, 1, 60, 0
19, 130176, Note_off_c, 1, 64, 0
19, 130176, Note_off_c, 1, 67, 0
19, 130176, Note_on_c, 1, 60, 74
19, 130176, Note_on_c, 1, 64, 74
19, 130176, Note_on_c, 1, 67, 74
19, 130240, Note_off_c, 1, 60, 0
19, 130240, Note_off_c, 1, 64, 0
19, 130240, Note_off_c, 1, 67, 0
19, 130240, Note_on_c, 1, 60, 77
19, 130240, Note_on_c, 1, 64, 77
19, 130240, Note_on_c, 1, 67, 77
19, 130304, Note_off_c, 1, 60, 0
19, 130304, Note_off_c, 1, 64, 0
19, 130304, Note_off_c, 1, 67, 0
19, 130304, Note_on_c, 1, 60, 80
19, 130304, Note_on_c, 1, 64, 80
19, 130304, Note_on_c, 1, 67, 80
19, 130368, Note_off_c, 1, 60, 0
19, 130368, Note_off_c, 1, 64, 0
19, 130368, Note_off_c, 1, 67, 0
19, 130368, Note_on_c, 1, 60, 82
19, 130368, Note_on_c, 1, 64, 82
19, 130368, Note_on_c, 1, 67, 82
19, 130432, Note_off_c, 1, 60, 0
19, 130432, Note_off_c, 1, 64, 0
19, 130432, Note_off_c, 1, 67, 0
19, 131328, Note_on_c, 1, 60, 66
19, 131328, Note_on_c, 1, 64, 66
19, 131328, Note_on_c, 1, 67, 66
19, 131392, Note_off_c, 1, 60, 0
19, 131392, Note_off_c, 1, 64, 0
19, 131392, Note_off_c, 1, 67, 0
19, 131392, Note_on_c, 1, 60, 78
19, 131392, Note_on_c, 1, 64, 78
19, 131392, Note_on_c, 1, 67, 78
19, 131456, Note_off_c, 1, 60, 0
19, 131456, Note_off_c, 1, 64, 0
19, 131456, Note_off_c, 1, 67, 0
19, 131456, Note_on_c, 1, 60, 72
19, 131456, Note_on_c, 1, 64, 72
19, 131456, Note_on_c, 1, 67, 72
19, 131520, Note_off_c, 1, 60, 0
19, 131520, Note_off_c, 1, 64, 0
19, 131520, Note_off_c, 1, 67, 0
19, 131520, Note_on_c, 1, 60, 87
19, 131520, Note_on_c, 1, 64, 87
19, 131520, Note_on_c, 1, 67, 87
19, 131584, Note_off_c, 1, 60, 0
19, 131584, Note_off_c, 1, 64, 0
19, 131584, Note_off_c, 1, 67, 0
19, 131584, Note_on_c, 1, 60, 76
19, 131584, Note_on_c, 1, 64, 76
19, 131584, Note_on_c, 1, 67, 76
19, 131648, Note_off_c, 1, 60, 0
19, 131648, Note_off_c, 1, 64, 0
19, 131648, Note_off_c, 1, 67, 0
19, 131648, Note_on_c, 1, 60, 85
19, 131648, Note_on_c, 1, 64, 85
19, 131648, Note_on_c, 1, 67, 85
19, 131712, Note_off_c, 1, 60, 0
19, 131712, Note_off_c, 1, 64, 0
19, 131712, Note_off_c, 1, 67, 0
19, 132224, Note_on_c, 1, 60, 62
19, 132224, Note_on_c, 1, 64, 62
19, 132224, Note_on_c, 1, 67, 62
19, 132288, Note_off_c, 1, 60, 0
19, 132288, Note_off_c, 1, 64, 0
19, 132288, Note_off_c, 1, 67, 0
19, 132288, Note_on_c, 1, 60, 72
19, 132288, Note_on_c, 1, 64, 72
19, 132288, Note_on_c, 1, 67, 72
19, 132352, Note_off_c, 1, 60, 0
19, 132352, Note_off_c, 1, 64, 0
19, 132352, Note_off_c, 1, 67, 0
19, 132352, Note_on_c, 1, 60, 76
19, 132352, Note_on_c, 1, 64, 76
19, 132352, Note_on_c, 1, 67, 76
19, 132416, Note_off_c, 1, 60, 0
19, 132416, Note_off_c, 1, 64, 0
19, 132416, Note_off_c, 1, 67, 0
19, 132416, Note_on_c, 1, 60, 76
19, 132416, Note_on_c, 1, 64, 76
19, 132416, Note_on_c, 1, 67, 76
19, 132480, Note_off_c, 1, 60, 0
19, 132480, Note_off_c, 1, 64, 0
19, 132480, Note_off_c, 1, 67, 0
19, 132480, Note_on_c, 1, 60, 80
19, 132480, Note_on_c, 1, 64, 80
19, 132480, Note_on_c, 1, 67, 80
19, 132544, Note_off_c, 1, 60, 0
19, 132544, Note_off_c, 1, 64, 0
19, 132544, Note_off_c, 1, 67, 0
19, 132544, Note_on_c, 1, 60, 91
19, 132544, Note_on_c, 1, 64, 91
19, 132544, Note_on_c, 1, 67, 91
19, 132608, Note_off_c, 1, 60, 0
19, 132608, Note_off_c, 1, 64, 0
19, 132608, Note_off_c, 1, 67, 0
19, 132672, Note_on_c, 1, 60, 67
19, 132672, Note_on_c, 1, 64, 67
19, 132672, Note_on_c, 1, 67, 67
19, 132736, Note_off_c, 1, 60, 0
19, 132736, Note_off_c, 1, 64, 0
19, 132736, Note_off_c, 1, 67, 0
19, 132736, Note_on_c, 1, 60, 74
19, 132736, Note_on_c, 1, 64, 74
19, 132736, Note_on_c, 1, 67, 74
19, 132800, Note_off_c, 1, 60, 0
19, 132800, Note_off_c, 1, 64, 0
19, 132800, Note_off_c, 1, 67, 0
19, 132800, Note_on_c, 1, 60, 85
19, 132800, Note_on_c, 1, 64, 85
19, 132800, Note_on_c, 1, 67, 85
19, 132864, Note_off_c, 1, 60, 0
19, 132864, Note_off_c, 1, 64, 0
19, 132864, Note_off_c, 1, 67, 0
19, 133376, Note_on_c, 1, 62, 69
19, 133376, Note_on_c, 1, 64, 69
19, 133376, Note_on_c, 1, 67, 69
19, 133427, Note_off_c, 1, 62, 0
19, 133427, Note_off_c, 1, 64, 0
19, 133427, Note_off_c, 1, 67, 0
19, 133440, Note_on_c, 1, 62, 69
19, 133440, Note_on_c, 1, 64, 69
19, 133440, Note_on_c, 1, 67, 69
19, 133491, Note_off_c, 1, 62, 0
19, 133491, Note_off_c, 1, 64, 0
19, 133491, Note_off_c, 1, 67, 0
19, 133504, Note_on_c, 1, 62, 69
19, 133504, Note_on_c, 1, 64, 69
19, 133504, Note_on_c, 1, 67, 69
19, 133555, Note_off_c, 1, 62, 0
19, 133555, Note_off_c, 1, 64, 0
19, 133555, Note_off_c, 1, 67, 0
19, 133568, Note_on_c, 1, 62, 69
19, 133568, Note_on_c, 1, 64, 69
19, 133568, Note_on_c, 1, 67, 69
19, 133619, Note_off_c, 1, 62, 0
19, 133619, Note_off_c, 1, 64, 0
19, 133619, Note_off_c, 1, 67, 0
19, 133632, Note_on_c, 1, 62, 80
19, 133632, Note_on_c, 1, 64, 80
19, 133632, Note_on_c, 1, 67, 80
19, 133683, Note_off_c, 1, 62, 0
19, 133683, Note_off_c, 1, 64, 0
19, 133683, Note_off_c, 1, 67, 0
19, 133696, Note_on_c, 1, 62, 80
19, 133696, Note_on_c, 1, 64, 80
19, 133696, Note_on_c, 1, 67, 80
19, 133747, Note_off_c, 1, 62, 0
19, 133747, Note_off_c, 1, 64, 0
19, 133747, Note_off_c, 1, 67, 0
19, 133760, Note_on_c, 1, 62, 80
19, 133760, Note_on_c, 1, 64, 80
19, 133760, Note_on_c, 1, 67, 80
19, 133811, Note_off_c, 1, 62, 0
19, 133811, Note_off_c, 1, 64, 0
19, 133811, Note_off_c, 1, 67, 0
19, 133824, Note_on_c, 1, 62, 80
19, 133824, Note_on_c, 1, 64, 80
19, 133824, Note_on_c, 1, 67, 80
19, 133875, Note_off_c, 1, 62, 0
19, 133875, Note_off_c, 1, 64, 0
19, 133875, Note_off_c, 1, 67, 0
19, 133888, Note_on_c, 1, 62, 82
19, 133888, Note_on_c, 1, 64, 82
19, 133888, Note_on_c, 1, 67, 82
19, 133952, Note_off_c, 1, 62, 0
19, 133952, Note_off_c, 1, 64, 0
19, 133952, Note_off_c, 1, 67, 0
19, 133952, Note_on_c, 1, 62, 85
19, 133952, Note_on_c, 1, 64, 85
19, 133952, Note_on_c, 1, 67, 85
19, 134016, Note_off_c, 1, 62, 0
19, 134016, Note_off_c, 1, 64, 0
19, 134016, Note_off_c, 1, 67, 0
19, 134016, Note_on_c, 1, 60, 90
19, 134016, Note_on_c, 1, 64, 90
19, 134016, Note_on_c, 1, 67, 90
19, 134080, Note_off_c, 1, 60, 0
19, 134080, Note_off_c, 1, 64, 0
19, 134080, Note_off_c, 1, 67, 0
19, 134080, Note_on_c, 1, 60, 86
19, 134080, Note_on_c, 1, 64, 86
19, 134080, Note_on_c, 1, 67, 86
19, 134144, Note_off_c, 1, 60, 0
19, 134144, Note_off_c, 1, 64, 0
19, 134144, Note_off_c, 1, 67, 0
19, 134144, Note_on_c, 1, 60, 88
19, 134144, Note_on_c, 1, 64, 88
19, 134144, Note_on_c, 1, 67, 88
19, 134195, Note_off_c, 1, 60, 0
19, 134195, Note_off_c, 1, 64, 0
19, 134195, Note_off_c, 1, 67, 0
19, 134208, Note_on_c, 1, 60, 88
19, 134208, Note_on_c, 1, 64, 88
19, 134208, Note_on_c, 1, 67, 88
19, 134259, Note_off_c, 1, 60, 0
19, 134259, Note_off_c, 1, 64, 0
19, 134259, Note_off_c, 1, 67, 0
19, 134272, Note_on_c, 1, 60, 88
19, 134272, Note_on_c, 1, 64, 88
19, 134272, Note_on_c, 1, 67, 88
19, 134323, Note_off_c, 1, 60, 0
19, 134323, Note_off_c, 1, 64, 0
19, 134323, Note_off_c, 1, 67, 0
19, 134336, Note_on_c, 1, 60, 88
19, 134336, Note_on_c, 1, 64, 88
19, 134336, Note_on_c, 1, 67, 88
19, 134387, Note_off_c, 1, 60, 0
19, 134387, Note_off_c, 1, 64, 0
19, 134387, Note_off_c, 1, 67, 0
19, 134400, Note_on_c, 1, 60, 86
19, 134400, Note_on_c, 1, 64, 86
19, 134400, Note_on_c, 1, 67, 86
19, 134451, Note_off_c, 1, 60, 0
19, 134451, Note_off_c, 1, 64, 0
19, 134451, Note_off_c, 1, 67, 0
19, 134464, Note_on_c, 1, 60, 86
19, 134464, Note_on_c, 1, 64, 86
19, 134464, Note_on_c, 1, 67, 86
19, 134515, Note_off_c, 1, 60, 0
19, 134515, Note_off_c, 1, 64, 0
19, 134515, Note_off_c, 1, 67, 0
19, 134528, Note_on_c, 1, 60, 89
19, 134528, Note_on_c, 1, 64, 89
19, 134528, Note_on_c, 1, 67, 89
19, 134579, Note_off_c, 1, 60, 0
19, 134579, Note_off_c, 1, 64, 0
19, 134579, Note_off_c, 1, 67, 0
19, 134592, Note_on_c, 1, 60, 92
19, 134592, Note_on_c, 1, 64, 92
19, 134592, Note_on_c, 1, 67, 92
19, 134643, Note_off_c, 1, 60, 0
19, 134643, Note_off_c, 1, 64, 0
19, 134643, Note_off_c, 1, 67, 0
19, 134720, Note_on_c, 1, 60, 87
19, 134720, Note_on_c, 1, 64, 87
19, 134720, Note_on_c, 1, 67, 87
19, 134784, Note_off_c, 1, 60, 0
19, 134784, Note_off_c, 1, 64, 0
19, 134784, Note_off_c, 1, 67, 0
19, 134784, Note_on_c, 1, 60, 97
19, 134784, Note_on_c, 1, 64, 97
19, 134784, Note_on_c, 1, 67, 97
19, 134848, Note_off_c, 1, 60, 0
19, 134848, Note_off_c, 1, 64, 0
19, 134848, Note_off_c, 1, 67, 0
19, 134848, Note_on_c, 1, 60, 100
19, 134848, Note_on_c, 1, 64, 100
19, 134848, Note_on_c, 1, 67, 100
19, 134912, Note_off_c, 1, 60, 0
19, 134912, Note_off_c, 1, 64, 0
19, 134912, Note_off_c, 1, 67, 0
19, 134976, Note_on_c, 1, 60, 88
19, 134976, Note_on_c, 1, 64, 88
19, 134976, Note_on_c, 1, 67, 88
19, 135040, Note_off_c, 1, 60, 0
19, 135040, Note_off_c, 1, 64, 0
19, 135040, Note_off_c, 1, 67, 0
19, 135040, Note_on_c, 1, 60, 99
19, 135040, Note_on_c, 1, 64, 99
19, 135040, Note_on_c, 1, 67, 99
19, 135104, Note_off_c, 1, 60, 0
19, 135104, Note_off_c, 1, 64, 0
19, 135104, Note_off_c, 1, 67, 0
19, 135104, Note_on_c, 1, 60, 97
19, 135104, Note_on_c, 1, 64, 97
19, 135104, Note_on_c, 1, 67, 97
19, 135168, Note_off_c, 1, 60, 0
19, 135168, Note_off_c, 1, 64, 0
19, 135168, Note_off_c, 1, 67, 0
19, 135168, Note_on_c, 1, 60, 79
19, 135168, Note_on_c, 1, 64, 79
19, 135168, Note_on_c, 1, 67, 79
19, 135219, Note_off_c, 1, 60, 0
19, 135219, Note_off_c, 1, 64, 0
19, 135219, Note_off_c, 1, 67, 0
19, 135232, Note_on_c, 1, 60, 87
19, 135232, Note_on_c, 1, 64, 87
19, 135232, Note_on_c, 1, 67, 87
19, 135283, Note_off_c, 1, 60, 0
19, 135283, Note_off_c, 1, 64, 0
19, 135283, Note_off_c, 1, 67, 0
19, 135296, Note_on_c, 1, 60, 90
19, 135296, Note_on_c, 1, 64, 90
19, 135296, Note_on_c, 1, 67, 90
19, 135347, Note_off_c, 1, 60, 0
19, 135347, Note_off_c, 1, 64, 0
19, 135347, Note_off_c, 1, 67, 0
19, 135360, Note_on_c, 1, 60, 94
19, 135360, Note_on_c, 1, 64, 94
19, 135360, Note_on_c, 1, 67, 94
19, 135411, Note_off_c, 1, 60, 0
19, 135411, Note_off_c, 1, 64, 0
19, 135411, Note_off_c, 1, 67, 0
19, 135424, Note_on_c, 1, 60, 97
19, 135424, Note_on_c, 1, 64, 97
19, 135424, Note_on_c, 1, 67, 97
19, 135488, Note_off_c, 1, 60, 0
19, 135488, Note_off_c, 1, 64, 0
19, 135488, Note_off_c, 1, 67, 0
19, 135936, Note_on_c, 1, 60, 74
19, 135936, Note_on_c, 1, 64, 74
19, 135936, Note_on_c, 1, 67, 74
19, 135987, Note_off_c, 1, 60, 0
19, 135987, Note_off_c, 1, 64, 0
19, 135987, Note_off_c, 1, 67, 0
19, 136000, Note_on_c, 1, 60, 88
19, 136000, Note_on_c, 1, 64, 88
19, 136000, Note_on_c, 1, 67, 88
19, 136051, Note_off_c, 1, 60, 0
19, 136051, Note_off_c, 1, 64, 0
19, 136051, Note_off_c, 1, 67, 0
19, 136064, Note_on_c, 1, 60, 85
19, 136064, Note_on_c, 1, 64, 85
19, 136064, Note_on_c, 1, 67, 85
19, 136128, Note_off_c, 1, 60, 0
19, 136128, Note_off_c, 1, 64, 0
19, 136128, Note_off_c, 1, 67, 0
19, 136128, Note_on_c, 1, 60, 98
19, 136128, Note_on_c, 1, 64, 98
19, 136128, Note_on_c, 1, 67, 98
19, 136192, Note_off_c, 1, 60, 0
19, 136192, Note_off_c, 1, 64, 0
19, 136192, Note_off_c, 1, 67, 0
19, 136256, Note_on_c, 1, 60, 71
19, 136256, Note_on_c, 1, 64, 71
19, 136256, Note_on_c, 1, 67, 71
19, 136320, Note_off_c, 1, 60, 0
19, 136320, Note_off_c, 1, 64, 0
19, 136320, Note_off_c, 1, 67, 0
19, 136320, Note_on_c, 1, 60, 87
19, 136320, Note_on_c, 1, 64, 87
19, 136320, Note_on_c, 1, 67, 87
19, 136384, Note_off_c, 1, 60, 0
19, 136384, Note_off_c, 1, 64, 0
19, 136384, Note_off_c, 1, 67, 0
19, 136384, Note_on_c, 1, 60, 82
19, 136384, Note_on_c, 1, 64, 82
19, 136384, Note_on_c, 1, 67, 82
19, 136448, Note_off_c, 1, 60, 0
19, 136448, Note_off_c, 1, 64, 0
19, 136448, Note_off_c, 1, 67, 0
19, 136448, Note_on_c, 1, 60, 93
19, 136448, Note_on_c, 1, 64, 93
19, 136448, Note_on_c, 1, 67, 93
19, 136499, Note_off_c, 1, 60, 0
19, 136499, Note_off_c, 1, 64, 0
19, 136499, Note_off_c, 1, 67, 0
19, 136512, Note_on_c, 1, 60, 91
19, 136512, Note_on_c, 1, 64, 91
19, 136512, Note_on_c, 1, 67, 91
19, 136563, Note_off_c, 1, 60, 0
19, 136563, Note_off_c, 1, 64, 0
19, 136563, Note_off_c, 1, 67, 0
19, 136576, Note_on_c, 1, 60, 93
19, 136576, Note_on_c, 1, 64, 93
19, 136576, Note_on_c, 1, 67, 93
19, 136627, Note_off_c, 1, 60, 0
19, 136627, Note_off_c, 1, 64, 0
19, 136627, Note_off_c, 1, 67, 0
19, 136640, Note_on_c, 1, 60, 95
19, 136640, Note_on_c, 1, 64, 95
19, 136640, Note_on_c, 1, 67, 95
19, 136691, Note_off_c, 1, 60, 0
19, 136691, Note_off_c, 1, 64, 0
19, 136691, Note_off_c, 1, 67, 0
19, 136832, Note_on_c, 1, 60, 77
19, 136832, Note_on_c, 1, 64, 77
19, 136832, Note_on_c, 1, 67, 77
19, 136896, Note_off_c, 1, 60, 0
19, 136896, Note_off_c, 1, 64, 0
19, 136896, Note_off_c, 1, 67, 0
19, 136896, Note_on_c, 1, 60, 91
19, 136896, Note_on_c, 1, 64, 91
19, 136896, Note_on_c, 1, 67, 91
19, 136960, Note_off_c, 1, 60, 0
19, 136960, Note_off_c, 1, 64, 0
19, 136960, Note_off_c, 1, 67, 0
19, 136960, Note_on_c, 1, 60, 86
19, 136960, Note_on_c, 1, 64, 86
19, 136960, Note_on_c, 1, 67, 86
19, 137011, Note_off_c, 1, 60, 0
19, 137011, Note_off_c, 1, 64, 0
19, 137011, Note_off_c, 1, 67, 0
19, 137024, Note_on_c, 1, 60, 90
19, 137024, Note_on_c, 1, 64, 90
19, 137024, Note_on_c, 1, 67, 90
19, 137075, Note_off_c, 1, 60, 0
19, 137075, Note_off_c, 1, 64, 0
19, 137075, Note_off_c, 1, 67, 0
19, 137088, Note_on_c, 1, 60, 92
19, 137088, Note_on_c, 1, 64, 92
19, 137088, Note_on_c, 1, 67, 92
19, 137139, Note_off_c, 1, 60, 0
19, 137139, Note_off_c, 1, 64, 0
19, 137139, Note_off_c, 1, 67, 0
19, 137152, Note_on_c, 1, 60, 95
19, 137152, Note_on_c, 1, 64, 95
19, 137152, Note_on_c, 1, 67, 95
19, 137203, Note_off_c, 1, 60, 0
19, 137203, Note_off_c, 1, 64, 0
19, 137203, Note_off_c, 1, 67, 0
19, 137344, Note_on_c, 1, 60, 74
19, 137344, Note_on_c, 1, 64, 74
19, 137344, Note_on_c, 1, 67, 74
19, 137408, Note_off_c, 1, 60, 0
19, 137408, Note_off_c, 1, 64, 0
19, 137408, Note_off_c, 1, 67, 0
19, 137408, Note_on_c, 1, 60, 82
19, 137408, Note_on_c, 1, 64, 82
19, 137408, Note_on_c, 1, 67, 82
19, 137472, Note_off_c, 1, 60, 0
19, 137472, Note_off_c, 1, 64, 0
19, 137472, Note_off_c, 1, 67, 0
19, 137472, Note_on_c, 1, 60, 82
19, 137472, Note_on_c, 1, 64, 82
19, 137472, Note_on_c, 1, 67, 82
19, 137523, Note_off_c, 1, 60, 0
19, 137523, Note_off_c, 1, 64, 0
19, 137523, Note_off_c, 1, 67, 0
19, 137536, Note_on_c, 1, 60, 86
19, 137536, Note_on_c, 1, 64, 86
19, 137536, Note_on_c, 1, 67, 86
19, 137587, Note_off_c, 1, 60, 0
19, 137587, Note_off_c, 1, 64, 0
19, 137587, Note_off_c, 1, 67, 0
19, 137600, Note_on_c, 1, 60, 88
19, 137600, Note_on_c, 1, 64, 88
19, 137600, Note_on_c, 1, 67, 88
19, 137651, Note_off_c, 1, 60, 0
19, 137651, Note_off_c, 1, 64, 0
19, 137651, Note_off_c, 1, 67, 0
19, 137664, Note_on_c, 1, 60, 90
19, 137664, Note_on_c, 1, 64, 90
19, 137664, Note_on_c, 1, 67, 90
19, 137715, Note_off_c, 1, 60, 0
19, 137715, Note_off_c, 1, 64, 0
19, 137715, Note_off_c, 1, 67, 0
19, 137728, Note_on_c, 1, 60, 87
19, 137728, Note_on_c, 1, 64, 87
19, 137728, Note_on_c, 1, 67, 87
19, 137792, Note_off_c, 1, 60, 0
19, 137792, Note_off_c, 1, 64, 0
19, 137792, Note_off_c, 1, 67, 0
19, 137792, Note_on_c, 1, 60, 92
19, 137792, Note_on_c, 1, 64, 92
19, 137792, Note_on_c, 1, 67, 92
19, 137856, Note_off_c, 1, 60, 0
19, 137856, Note_off_c, 1, 64, 0
19, 137856, Note_off_c, 1, 67, 0
19, 137856, Note_on_c, 1, 60, 101
19, 137856, Note_on_c, 1, 64, 101
19, 137856, Note_on_c, 1, 67, 101
19, 137920, Note_off_c, 1, 60, 0
19, 137920, Note_off_c, 1, 64, 0
19, 137920, Note_off_c, 1, 67, 0
19, 138176, Note_on_c, 1, 60, 77
19, 138176, Note_on_c, 1, 64, 77
19, 138176, Note_on_c, 1, 67, 77
19, 138240, Note_off_c, 1, 60, 0
19, 138240, Note_off_c, 1, 64, 0
19, 138240, Note_off_c, 1, 67, 0
19, 138240, Note_on_c, 1, 60, 85
19, 138240, Note_on_c, 1, 64, 85
19, 138240, Note_on_c, 1, 67, 85
19, 138291, Note_off_c, 1, 60, 0
19, 138291, Note_off_c, 1, 64, 0
19, 138291, Note_off_c, 1, 67, 0
19, 138304, Note_on_c, 1, 60, 85
19, 138304, Note_on_c, 1, 64, 85
19, 138304, Note_on_c, 1, 67, 85
19, 138355, Note_off_c, 1, 60, 0
19, 138355, Note_off_c, 1, 64, 0
19, 138355, Note_off_c, 1, 67, 0
19, 138368, Note_on_c, 1, 60, 85
19, 138368, Note_on_c, 1, 64, 85
19, 138368, Note_on_c, 1, 67, 85
19, 138419, Note_off_c, 1, 60, 0
19, 138419, Note_off_c, 1, 64, 0
19, 138419, Note_off_c, 1, 67, 0
19, 138432, Note_on_c, 1, 60, 85
19, 138432, Note_on_c, 1, 64, 85
19, 138432, Note_on_c, 1, 67, 85
19, 138483, Note_off_c, 1, 60, 0
19, 138483, Note_off_c, 1, 64, 0
19, 138483, Note_off_c, 1, 67, 0
19, 138496, Note_on_c, 1, 60, 83
19, 138496, Note_on_c, 1, 64, 83
19, 138496, Note_on_c, 1, 67, 83
19, 138547, Note_off_c, 1, 60, 0
19, 138547, Note_off_c, 1, 64, 0
19, 138547, Note_off_c, 1, 67, 0
19, 138560, Note_on_c, 1, 60, 86
19, 138560, Note_on_c, 1, 64, 86
19, 138560, Note_on_c, 1, 67, 86
19, 138611, Note_off_c, 1, 60, 0
19, 138611, Note_off_c, 1, 64, 0
19, 138611, Note_off_c, 1, 67, 0
19, 138624, Note_on_c, 1, 60, 89
19, 138624, Note_on_c, 1, 64, 89
19, 138624, Note_on_c, 1, 67, 89
19, 138675, Note_off_c, 1, 60, 0
19, 138675, Note_off_c, 1, 64, 0
19, 138675, Note_off_c, 1, 67, 0
19, 138688, Note_on_c, 1, 60, 92
19, 138688, Note_on_c, 1, 64, 92
19, 138688, Note_on_c, 1, 67, 92
19, 138739, Note_off_c, 1, 60, 0
19, 138739, Note_off_c, 1, 64, 0
19, 138739, Note_off_c, 1, 67, 0
19, 138752, Note_on_c, 1, 60, 90
19, 138752, Note_on_c, 1, 64, 90
19, 138752, Note_on_c, 1, 67, 90
19, 138816, Note_off_c, 1, 60, 0
19, 138816, Note_off_c, 1, 64, 0
19, 138816, Note_off_c, 1, 67, 0
19, 138816, Note_on_c, 1, 60, 93
19, 138816, Note_on_c, 1, 64, 93
19, 138816, Note_on_c, 1, 67, 93
19, 138880, Note_off_c, 1, 60, 0
19, 138880, Note_off_c, 1, 64, 0
19, 138880, Note_off_c, 1, 67, 0
19, 139136, Note_on_c, 1, 60, 75
19, 139136, Note_on_c, 1, 64, 75
19, 139136, Note_on_c, 1, 67, 75
19, 139200, Note_off_c, 1, 60, 0
19, 139200, Note_off_c, 1, 64, 0
19, 139200, Note_off_c, 1, 67, 0
19, 139200, Note_on_c, 1, 60, 82
19, 139200, Note_on_c, 1, 64, 82
19, 139200, Note_on_c, 1, 67, 82
19, 139264, Note_off_c, 1, 60, 0
19, 139264, Note_off_c, 1, 64, 0
19, 139264, Note_off_c, 1, 67, 0
19, 139264, Note_on_c, 1, 60, 82
19, 139264, Note_on_c, 1, 64, 82
19, 139264, Note_on_c, 1, 67, 82
19, 139315, Note_off_c, 1, 60, 0
19, 139315, Note_off_c, 1, 64, 0
19, 139315, Note_off_c, 1, 67, 0
19, 139328, Note_on_c, 1, 60, 86
19, 139328, Note_on_c, 1, 64, 86
19, 139328, Note_on_c, 1, 67, 86
19, 139379, Note_off_c, 1, 60, 0
19, 139379, Note_off_c, 1, 64, 0
19, 139379, Note_off_c, 1, 67, 0
19, 139392, Note_on_c, 1, 60, 88
19, 139392, Note_on_c, 1, 64, 88
19, 139392, Note_on_c, 1, 67, 88
19, 139443, Note_off_c, 1, 60, 0
19, 139443, Note_off_c, 1, 64, 0
19, 139443, Note_off_c, 1, 67, 0
19, 139456, Note_on_c, 1, 60, 90
19, 139456, Note_on_c, 1, 64, 90
19, 139456, Note_on_c, 1, 67, 90
19, 139507, Note_off_c, 1, 60, 0
19, 139507, Note_off_c, 1, 64, 0
19, 139507, Note_off_c, 1, 67, 0
19, 139520, Note_on_c, 1, 60, 92
19, 139520, Note_on_c, 1, 64, 92
19, 139520, Note_on_c, 1, 67, 92
19, 139584, Note_off_c, 1, 60, 0
19, 139584, Note_off_c, 1, 64, 0
19, 139584, Note_off_c, 1, 67, 0
19, 139584, Note_on_c, 1, 60, 97
19, 139584, Note_on_c, 1, 64, 97
19, 139584, Note_on_c, 1, 67, 97
19, 139648, Note_off_c, 1, 60, 0
19, 139648, Note_off_c, 1, 64, 0
19, 139648, Note_off_c, 1, 67, 0
19, 139648, Note_on_c, 1, 60, 97
19, 139648, Note_on_c, 1, 64, 97
19, 139648, Note_on_c, 1, 67, 97
19, 139712, Note_off_c, 1, 60, 0
19, 139712, Note_off_c, 1, 64, 0
19, 139712, Note_off_c, 1, 67, 0
19, 140160, Note_on_c, 1, 60, 72
19, 140160, Note_on_c, 1, 64, 72
19, 140160, Note_on_c, 1, 67, 72
19, 140224, Note_off_c, 1, 60, 0
19, 140224, Note_off_c, 1, 64, 0
19, 140224, Note_off_c, 1, 67, 0
19, 140224, Note_on_c, 1, 60, 83
19, 140224, Note_on_c, 1, 64, 83
19, 140224, Note_on_c, 1, 67, 83
19, 140288, Note_off_c, 1, 60, 0
19, 140288, Note_off_c, 1, 64, 0
19, 140288, Note_off_c, 1, 67, 0
19, 140288, Note_on_c, 1, 60, 86
19, 140288, Note_on_c, 1, 64, 86
19, 140288, Note_on_c, 1, 67, 86
19, 140352, Note_off_c, 1, 60, 0
19, 140352, Note_off_c, 1, 64, 0
19, 140352, Note_off_c, 1, 67, 0
19, 140352, Note_on_c, 1, 60, 97
19, 140352, Note_on_c, 1, 64, 97
19, 140352, Note_on_c, 1, 67, 97
19, 140416, Note_off_c, 1, 60, 0
19, 140416, Note_off_c, 1, 64, 0
19, 140416, Note_off_c, 1, 67, 0
19, 140416, Note_on_c, 1, 60, 97
19, 140416, Note_on_c, 1, 64, 97
19, 140416, Note_on_c, 1, 67, 97
19, 140480, Note_off_c, 1, 60, 0
19, 140480, Note_off_c, 1, 64, 0
19, 140480, Note_off_c, 1, 67, 0
19, 140608, Note_on_c, 1, 60, 89
19, 140608, Note_on_c, 1, 64, 89
19, 140608, Note_on_c, 1, 67, 89
19, 140672, Note_off_c, 1, 60, 0
19, 140672, Note_off_c, 1, 64, 0
19, 140672, Note_off_c, 1, 67, 0
19, 140672, Note_on_c, 1, 60, 101
19, 140672, Note_on_c, 1, 64, 101
19, 140672, Note_on_c, 1, 67, 101
19, 140736, Note_off_c, 1, 60, 0
19, 140736, Note_off_c, 1, 64, 0
19, 140736, Note_off_c, 1, 67, 0
19, 140800, Note_on_c, 1, 60, 89
19, 140800, Note_on_c, 1, 64, 89
19, 140800, Note_on_c, 1, 67, 89
19, 140864, Note_off_c, 1, 60, 0
19, 140864, Note_off_c, 1, 64, 0
19, 140864, Note_off_c, 1, 67, 0
19, 140864, Note_on_c, 1, 60, 97
19, 140864, Note_on_c, 1, 64, 97
19, 140864, Note_on_c, 1, 67, 97
19, 140928, Note_off_c, 1, 60, 0
19, 140928, Note_off_c, 1, 64, 0
19, 140928, Note_off_c, 1, 67, 0
19, 140992, Note_on_c, 1, 60, 72
19, 140992, Note_on_c, 1, 64, 72
19, 140992, Note_on_c, 1, 67, 72
19, 141056, Note_off_c, 1, 60, 0
19, 141056, Note_off_c, 1, 64, 0
19, 141056, Note_off_c, 1, 67, 0
19, 141056, Note_on_c, 1, 60, 83
19, 141056, Note_on_c, 1, 64, 83
19, 141056, Note_on_c, 1, 67, 83
19, 141120, Note_off_c, 1, 60, 0
19, 141120, Note_off_c, 1, 64, 0
19, 141120, Note_off_c, 1, 67, 0
19, 141120, Note_on_c, 1, 60, 88
19, 141120, Note_on_c, 1, 64, 88
19, 141120, Note_on_c, 1, 67, 88
19, 141184, Note_off_c, 1, 60, 0
19, 141184, Note_off_c, 1, 64, 0
19, 141184, Note_off_c, 1, 67, 0
19, 141184, Note_on_c, 1, 60, 88
19, 141184, Note_on_c, 1, 64, 88
19, 141184, Note_on_c, 1, 67, 88
19, 141248, Note_off_c, 1, 60, 0
19, 141248, Note_off_c, 1, 64, 0
19, 141248, Note_off_c, 1, 67, 0
19, 141248, Note_on_c, 1, 60, 87
19, 141248, Note_on_c, 1, 64, 87
19, 141248, Note_on_c, 1, 67, 87
19, 141312, Note_off_c, 1, 60, 0
19, 141312, Note_off_c, 1, 64, 0
19, 141312, Note_off_c, 1, 67, 0
19, 141312, Note_on_c, 1, 60, 89
19, 141312, Note_on_c, 1, 64, 89
19, 141312, Note_on_c, 1, 67, 89
19, 141376, Note_off_c, 1, 60, 0
19, 141376, Note_off_c, 1, 64, 0
19, 141376, Note_off_c, 1, 67, 0
19, 141376, Note_on_c, 1, 60, 92
19, 141376, Note_on_c, 1, 64, 92
19, 141376, Note_on_c, 1, 67, 92
19, 141440, Note_off_c, 1, 60, 0
19, 141440, Note_off_c, 1, 64, 0
19, 141440, Note_off_c, 1, 67, 0
19, 141440, Note_on_c, 1, 60, 92
19, 141440, Note_on_c, 1, 64, 92
19, 141440, Note_on_c, 1, 67, 92
19, 141504, Note_off_c, 1, 60, 0
19, 141504, Note_off_c, 1, 64, 0
19, 141504, Note_off_c, 1, 67, 0
19, 141504, Note_on_c, 1, 60, 98
19, 141504, Note_on_c, 1, 64, 98
19, 141504, Note_on_c, 1, 67, 98
19, 141568, Note_off_c, 1, 60, 0
19, 141568, Note_off_c, 1, 64, 0
19, 141568, Note_off_c, 1, 67, 0
19, 141632, Note_on_c, 1, 60, 78
19, 141632, Note_on_c, 1, 64, 78
19, 141632, Note_on_c, 1, 67, 78
19, 141696, Note_off_c, 1, 60, 0
19, 141696, Note_off_c, 1, 64, 0
19, 141696, Note_off_c, 1, 67, 0
19, 141696, Note_on_c, 1, 60, 85
19, 141696, Note_on_c, 1, 64, 85
19, 141696, Note_on_c, 1, 67, 85
19, 141760, Note_off_c, 1, 60, 0
19, 141760, Note_off_c, 1, 64, 0
19, 141760, Note_off_c, 1, 67, 0
19, 141760, Note_on_c, 1, 60, 83
19, 141760, Note_on_c, 1, 64, 83
19, 141760, Note_on_c, 1, 67, 83
19, 141824, Note_off_c, 1, 60, 0
19, 141824, Note_off_c, 1, 64, 0
19, 141824, Note_off_c, 1, 67, 0
19, 141824, Note_on_c, 1, 60, 85
19, 141824, Note_on_c, 1, 64, 85
19, 141824, Note_on_c, 1, 67, 85
19, 141888, Note_off_c, 1, 60, 0
19, 141888, Note_off_c, 1, 64, 0
19, 141888, Note_off_c, 1, 67, 0
19, 141888, Note_on_c, 1, 60, 88
19, 141888, Note_on_c, 1, 64, 88
19, 141888, Note_on_c, 1, 67, 88
19, 141952, Note_off_c, 1, 60, 0
19, 141952, Note_off_c, 1, 64, 0
19, 141952, Note_off_c, 1, 67, 0
19, 141952, Note_on_c, 1, 60, 84
19, 141952, Note_on_c, 1, 64, 84
19, 141952, Note_on_c, 1, 67, 84
19, 142016, Note_off_c, 1, 60, 0
19, 142016, Note_off_c, 1, 64, 0
19, 142016, Note_off_c, 1, 67, 0
19, 142016, Note_on_c, 1, 60, 91
19, 142016, Note_on_c, 1, 64, 91
19, 142016, Note_on_c, 1, 67, 91
19, 142080, Note_off_c, 1, 60, 0
19, 142080, Note_off_c, 1, 64, 0
19, 142080, Note_off_c, 1, 67, 0
19, 142080, Note_on_c, 1, 60, 89
19, 142080, Note_on_c, 1, 64, 89
19, 142080, Note_on_c, 1, 67, 89
19, 142144, Note_off_c, 1, 60, 0
19, 142144, Note_off_c, 1, 64, 0
19, 142144, Note_off_c, 1, 67, 0
19, 142144, Note_on_c, 1, 60, 89
19, 142144, Note_on_c, 1, 64, 89
19, 142144, Note_on_c, 1, 67, 89
19, 142208, Note_off_c, 1, 60, 0
19, 142208, Note_off_c, 1, 64, 0
19, 142208, Note_off_c, 1, 67, 0
19, 142208, Note_on_c, 1, 60, 98
19, 142208, Note_on_c, 1, 64, 98
19, 142208, Note_on_c, 1, 67, 98
19, 142272, Note_off_c, 1, 60, 0
19, 142272, Note_off_c, 1, 64, 0
19, 142272, Note_off_c, 1, 67, 0
19, 142272, Note_on_c, 1, 60, 96
19, 142272, Note_on_c, 1, 64, 96
19, 142272, Note_on_c, 1, 67, 96
19, 142336, Note_off_c, 1, 60, 0
19, 142336, Note_off_c, 1, 64, 0
19, 142336, Note_off_c, 1, 67, 0
19, 142592, Note_on_c, 1, 60, 79
19, 142592, Note_on_c, 1, 64, 79
19, 142592, Note_on_c, 1, 67, 79
19, 142656, Note_off_c, 1, 60, 0
19, 142656, Note_off_c, 1, 64, 0
19, 142656, Note_off_c, 1, 67, 0
19, 142656, Note_on_c, 1, 60, 85
19, 142656, Note_on_c, 1, 64, 85
19, 142656, Note_on_c, 1, 67, 85
19, 142720, Note_off_c, 1, 60, 0
19, 142720, Note_off_c, 1, 64, 0
19, 142720, Note_off_c, 1, 67, 0
19, 142720, Note_on_c, 1, 60, 90
19, 142720, Note_on_c, 1, 64, 90
19, 142720, Note_on_c, 1, 67, 90
19, 142784, Note_off_c, 1, 60, 0
19, 142784, Note_off_c, 1, 64, 0
19, 142784, Note_off_c, 1, 67, 0
19, 142784, Note_on_c, 1, 60, 89
19, 142784, Note_on_c, 1, 64, 89
19, 142784, Note_on_c, 1, 67, 89
19, 142848, Note_off_c, 1, 60, 0
19, 142848, Note_off_c, 1, 64, 0
19, 142848, Note_off_c, 1, 67, 0
19, 142848, Note_on_c, 1, 60, 94
19, 142848, Note_on_c, 1, 64, 94
19, 142848, Note_on_c, 1, 67, 94
19, 142912, Note_off_c, 1, 60, 0
19, 142912, Note_off_c, 1, 64, 0
19, 142912, Note_off_c, 1, 67, 0
19, 142912, Note_on_c, 1, 60, 90
19, 142912, Note_on_c, 1, 64, 90
19, 142912, Note_on_c, 1, 67, 90
19, 142976, Note_off_c, 1, 60, 0
19, 142976, Note_off_c, 1, 64, 0
19, 142976, Note_off_c, 1, 67, 0
19, 142976, Note_on_c, 1, 60, 99
19, 142976, Note_on_c, 1, 64, 99
19, 142976, Note_on_c, 1, 67, 99
19, 143040, Note_off_c, 1, 60, 0
19, 143040, Note_off_c, 1, 64, 0
19, 143040, Note_off_c, 1, 67, 0
19, 143040, Note_on_c, 1, 60, 101
19, 143040, Note_on_c, 1, 64, 101
19, 143040, Note_on_c, 1, 67, 101
19, 143104, Note_off_c, 1, 60, 0
19, 143104, Note_off_c, 1, 64, 0
19, 143104, Note_off_c, 1, 67, 0
19, 143360, Note_on_c, 1, 60, 88
19, 143360, Note_on_c, 1, 64, 88
19, 143360, Note_on_c, 1, 67, 88
19, 143424, Note_off_c, 1, 60, 0
19, 143424, Note_off_c, 1, 64, 0
19, 143424, Note_off_c, 1, 67, 0
19, 143424, Note_on_c, 1, 60, 93
19, 143424, Note_on_c, 1, 64, 93
19, 143424, Note_on_c, 1, 67, 93
19, 143488, Note_off_c, 1, 60, 0
19, 143488, Note_off_c, 1, 64, 0
19, 143488, Note_off_c, 1, 67, 0
19, 143488, Note_on_c, 1, 60, 94
19, 143488, Note_on_c, 1, 64, 94
19, 143488, Note_on_c, 1, 67, 94
19, 143552, Note_off_c, 1, 60, 0
19, 143552, Note_off_c, 1, 64, 0
19, 143552, Note_off_c, 1, 67, 0
19, 143680, Note_on_c, 1, 60, 88
19, 143680, Note_on_c, 1, 64, 88
19, 143680, Note_on_c, 1, 67, 88
19, 143744, Note_off_c, 1, 60, 0
19, 143744, Note_off_c, 1, 64, 0
19, 143744, Note_off_c, 1, 67, 0
19, 143744, Note_on_c, 1, 60, 94
19, 143744, Note_on_c, 1, 64, 94
19, 143744, Note_on_c, 1, 67, 94
19, 143808, Note_off_c, 1, 60, 0
19, 143808, Note_off_c, 1, 64, 0
19, 143808, Note_off_c, 1, 67, 0
19, 143872, Note_on_c, 1, 60, 78
19, 143872, Note_on_c, 1, 64, 78
19, 143872, Note_on_c, 1, 67, 78
19, 143936, Note_off_c, 1, 60, 0
19, 143936, Note_off_c, 1, 64, 0
19, 143936, Note_off_c, 1, 67, 0
19, 143936, Note_on_c, 1, 60, 84
19, 143936, Note_on_c, 1, 64, 84
19, 143936, Note_on_c, 1, 67, 84
19, 144000, Note_off_c, 1, 60, 0
19, 144000, Note_off_c, 1, 64, 0
19, 144000, Note_off_c, 1, 67, 0
19, 144000, Note_on_c, 1, 60, 90
19, 144000, Note_on_c, 1, 64, 90
19, 144000, Note_on_c, 1, 67, 90
19, 144064, Note_off_c, 1, 60, 0
19, 144064, Note_off_c, 1, 64, 0
19, 144064, Note_off_c, 1, 67, 0
19, 144064, Note_on_c, 1, 60, 90
19, 144064, Note_on_c, 1, 64, 90
19, 144064, Note_on_c, 1, 67, 90
19, 144128, Note_off_c, 1, 60, 0
19, 144128, Note_off_c, 1, 64, 0
19, 144128, Note_off_c, 1, 67, 0
19, 144128, Note_on_c, 1, 60, 92
19, 144128, Note_on_c, 1, 64, 92
19, 144128, Note_on_c, 1, 67, 92
19, 144192, Note_off_c, 1, 60, 0
19, 144192, Note_off_c, 1, 64, 0
19, 144192, Note_off_c, 1, 67, 0
19, 144192, Note_on_c, 1, 60, 96
19, 144192, Note_on_c, 1, 64, 96
19, 144192, Note_on_c, 1, 67, 96
19, 144256, Note_off_c, 1, 60, 0
19, 144256, Note_off_c, 1, 64, 0
19, 144256, Note_off_c, 1, 67, 0
19, 144256, Note_on_c, 1, 60, 96
19, 144256, Note_on_c, 1, 64, 96
19, 144256, Note_on_c, 1, 67, 96
19, 144320, Note_off_c, 1, 60, 0
19, 144320, Note_off_c, 1, 64, 0
19, 144320, Note_off_c, 1, 67, 0
19, 144320, Note_on_c, 1, 60, 97
19, 144320, Note_on_c, 1, 64, 97
19, 144320, Note_on_c, 1, 67, 97
19, 144384, Note_off_c, 1, 60, 0
19, 144384, Note_off_c, 1, 64, 0
19, 144384, Note_off_c, 1, 67, 0
19, 144384, Note_on_c, 1, 60, 87
19, 144384, Note_on_c, 1, 64, 87
19, 144384, Note_on_c, 1, 67, 87
19, 144448, Note_off_c, 1, 60, 0
19, 144448, Note_off_c, 1, 64, 0
19, 144448, Note_off_c, 1, 67, 0
19, 144448, Note_on_c, 1, 60, 84
19, 144448, Note_on_c, 1, 64, 84
19, 144448, Note_on_c, 1, 67, 84
19, 144512, Note_off_c, 1, 60, 0
19, 144512, Note_off_c, 1, 64, 0
19, 144512, Note_off_c, 1, 67, 0
19, 144512, Note_on_c, 1, 60, 86
19, 144512, Note_on_c, 1, 64, 86
19, 144512, Note_on_c, 1, 67, 86
19, 144576, Note_off_c, 1, 60, 0
19, 144576, Note_off_c, 1, 64, 0
19, 144576, Note_off_c, 1, 67, 0
19, 144576, Note_on_c, 1, 60, 94
19, 144576, Note_on_c, 1, 64, 94
19, 144576, Note_on_c, 1, 67, 94
19, 144640, Note_off_c, 1, 60, 0
19, 144640, Note_off_c, 1, 64, 0
19, 144640, Note_off_c, 1, 67, 0
19, 144640, Note_on_c, 1, 60, 94
19, 144640, Note_on_c, 1, 64, 94
19, 144640, Note_on_c, 1, 67, 94
19, 144704, Note_off_c, 1, 60, 0
19, 144704, Note_off_c, 1, 64, 0
19, 144704, Note_off_c, 1, 67, 0
19, 144704, Note_on_c, 1, 60, 99
19, 144704, Note_on_c, 1, 64, 99
19, 144704, Note_on_c, 1, 67, 99
19, 144768, Note_off_c, 1, 60, 0
19, 144768, Note_off_c, 1, 64, 0
19, 144768, Note_off_c, 1, 67, 0
19, 144768, Note_on_c, 1, 60, 95
19, 144768, Note_on_c, 1, 64, 95
19, 144768, Note_on_c, 1, 67, 95
19, 144832, Note_off_c, 1, 60, 0
19, 144832, Note_off_c, 1, 64, 0
19, 144832, Note_off_c, 1, 67, 0
19, 144832, Note_on_c, 1, 60, 93
19, 144832, Note_on_c, 1, 64, 93
19, 144832, Note_on_c, 1, 67, 93
19, 144896, Note_off_c, 1, 60, 0
19, 144896, Note_off_c, 1, 64, 0
19, 144896, Note_off_c, 1, 67, 0
19, 144896, Note_on_c, 1, 60, 88
19, 144896, Note_on_c, 1, 64, 88
19, 144896, Note_on_c, 1, 67, 88
19, 144960, Note_off_c, 1, 60, 0
19, 144960, Note_off_c, 1, 64, 0
19, 144960, Note_off_c, 1, 67, 0
19, 144960, Note_on_c, 1, 60, 83
19, 144960, Note_on_c, 1, 64, 83
19, 144960, Note_on_c, 1, 67, 83
19, 145024, Note_off_c, 1, 60, 0
19, 145024, Note_off_c, 1, 64, 0
19, 145024, Note_off_c, 1, 67, 0
19, 145024, Note_on_c, 1, 60, 87
19, 145024, Note_on_c, 1, 64, 87
19, 145024, Note_on_c, 1, 67, 87
19, 145088, Note_off_c, 1, 60, 0
19, 145088, Note_off_c, 1, 64, 0
19, 145088, Note_off_c, 1, 67, 0
19, 145088, Note_on_c, 1, 60, 83
19, 145088, Note_on_c, 1, 64, 83
19, 145088, Note_on_c, 1, 67, 83
19, 145152, Note_off_c, 1, 60, 0
19, 145152, Note_off_c, 1, 64, 0
19, 145152, Note_off_c, 1, 67, 0
19, 145152, Note_on_c, 1, 60, 80
19, 145152, Note_on_c, 1, 64, 80
19, 145152, Note_on_c, 1, 67, 80
19, 145216, Note_off_c, 1, 60, 0
19, 145216, Note_off_c, 1, 64, 0
19, 145216, Note_off_c, 1, 67, 0
19, 145216, Note_on_c, 1, 60, 86
19, 145216, Note_on_c, 1, 64, 86
19, 145216, Note_on_c, 1, 67, 86
19, 145280, Note_off_c, 1, 60, 0
19, 145280, Note_off_c, 1, 64, 0
19, 145280, Note_off_c, 1, 67, 0
19, 145280, Note_on_c, 1, 60, 95
19, 145280, Note_on_c, 1, 64, 95
19, 145280, Note_on_c, 1, 67, 95
19, 145344, Note_off_c, 1, 60, 0
19, 145344, Note_off_c, 1, 64, 0
19, 145344, Note_off_c, 1, 67, 0
19, 145408, Note_on_c, 1, 60, 79
19, 145408, Note_on_c, 1, 64, 79
19, 145408, Note_on_c, 1, 67, 79
19, 145472, Note_off_c, 1, 60, 0
19, 145472, Note_off_c, 1, 64, 0
19, 145472, Note_off_c, 1, 67, 0
19, 145472, Note_on_c, 1, 60, 87
19, 145472, Note_on_c, 1, 64, 87
19, 145472, Note_on_c, 1, 67, 87
19, 145536, Note_off_c, 1, 60, 0
19, 145536, Note_off_c, 1, 64, 0
19, 145536, Note_off_c, 1, 67, 0
19, 145536, Note_on_c, 1, 60, 89
19, 145536, Note_on_c, 1, 64, 89
19, 145536, Note_on_c, 1, 67, 89
19, 145600, Note_off_c, 1, 60, 0
19, 145600, Note_off_c, 1, 64, 0
19, 145600, Note_off_c, 1, 67, 0
19, 145600, Note_on_c, 1, 60, 94
19, 145600, Note_on_c, 1, 64, 94
19, 145600, Note_on_c, 1, 67, 94
19, 145664, Note_off_c, 1, 60, 0
19, 145664, Note_off_c, 1, 64, 0
19, 145664, Note_off_c, 1, 67, 0
19, 145664, Note_on_c, 1, 60, 101
19, 145664, Note_on_c, 1, 64, 101
19, 145664, Note_on_c, 1, 67, 101
19, 145728, Note_off_c, 1, 60, 0
19, 145728, Note_off_c, 1, 64, 0
19, 145728, Note_off_c, 1, 67, 0
19, 145920, Note_on_c, 1, 60, 74
19, 145920, Note_on_c, 1, 64, 74
19, 145920, Note_on_c, 1, 67, 74
19, 145984, Note_off_c, 1, 60, 0
19, 145984, Note_off_c, 1, 64, 0
19, 145984, Note_off_c, 1, 67, 0
19, 145984, Note_on_c, 1, 60, 85
19, 145984, Note_on_c, 1, 64, 85
19, 145984, Note_on_c, 1, 67, 85
19, 146048, Note_off_c, 1, 60, 0
19, 146048, Note_off_c, 1, 64, 0
19, 146048, Note_off_c, 1, 67, 0
19, 146048, Note_on_c, 1, 60, 85
19, 146048, Note_on_c, 1, 64, 85
19, 146048, Note_on_c, 1, 67, 85
19, 146112, Note_off_c, 1, 60, 0
19, 146112, Note_off_c, 1, 64, 0
19, 146112, Note_off_c, 1, 67, 0
19, 146176, Note_on_c, 1, 60, 78
19, 146176, Note_on_c, 1, 64, 78
19, 146176, Note_on_c, 1, 67, 78
19, 146240, Note_off_c, 1, 60, 0
19, 146240, Note_off_c, 1, 64, 0
19, 146240, Note_off_c, 1, 67, 0
19, 146240, Note_on_c, 1, 60, 87
19, 146240, Note_on_c, 1, 64, 87
19, 146240, Note_on_c, 1, 67, 87
19, 146304, Note_off_c, 1, 60, 0
19, 146304, Note_off_c, 1, 64, 0
19, 146304, Note_off_c, 1, 67, 0
19, 146368, Note_on_c, 1, 60, 71
19, 146368, Note_on_c, 1, 64, 71
19, 146368, Note_on_c, 1, 67, 71
19, 146432, Note_off_c, 1, 60, 0
19, 146432, Note_off_c, 1, 64, 0
19, 146432, Note_off_c, 1, 67, 0
19, 146432, Note_on_c, 1, 60, 79
19, 146432, Note_on_c, 1, 64, 79
19, 146432, Note_on_c, 1, 67, 79
19, 146496, Note_off_c, 1, 60, 0
19, 146496, Note_off_c, 1, 64, 0
19, 146496, Note_off_c, 1, 67, 0
19, 146496, Note_on_c, 1, 60, 84
19, 146496, Note_on_c, 1, 64, 84
19, 146496, Note_on_c, 1, 67, 84
19, 146560, Note_off_c, 1, 60, 0
19, 146560, Note_off_c, 1, 64, 0
19, 146560, Note_off_c, 1, 67, 0
19, 146560, Note_on_c, 1, 60, 79
19, 146560, Note_on_c, 1, 64, 79
19, 146560, Note_on_c, 1, 67, 79
19, 146624, Note_off_c, 1, 60, 0
19, 146624, Note_off_c, 1, 64, 0
19, 146624, Note_off_c, 1, 67, 0
19, 146624, Note_on_c, 1, 60, 83
19, 146624, Note_on_c, 1, 64, 83
19, 146624, Note_on_c, 1, 67, 83
19, 146688, Note_off_c, 1, 60, 0
19, 146688, Note_off_c, 1, 64, 0
19, 146688, Note_off_c, 1, 67, 0
19, 146688, Note_on_c, 1, 60, 83
19, 146688, Note_on_c, 1, 64, 83
19, 146688, Note_on_c, 1, 67, 83
19, 146752, Note_off_c, 1, 60, 0
19, 146752, Note_off_c, 1, 64, 0
19, 146752, Note_off_c, 1, 67, 0
19, 146752, Note_on_c, 1, 60, 86
19, 146752, Note_on_c, 1, 64, 86
19, 146752, Note_on_c, 1, 67, 86
19, 146816, Note_off_c, 1, 60, 0
19, 146816, Note_off_c, 1, 64, 0
19, 146816, Note_off_c, 1, 67, 0
19, 146880, Note_on_c, 1, 60, 72
19, 146880, Note_on_c, 1, 64, 72
19, 146880, Note_on_c, 1, 67, 72
19, 146944, Note_off_c, 1, 60, 0
19, 146944, Note_off_c, 1, 64, 0
19, 146944, Note_off_c, 1, 67, 0
19, 146944, Note_on_c, 1, 60, 88
19, 146944, Note_on_c, 1, 64, 88
19, 146944, Note_on_c, 1, 67, 88
19, 147008, Note_off_c, 1, 60, 0
19, 147008, Note_off_c, 1, 64, 0
19, 147008, Note_off_c, 1, 67, 0
19, 147008, Note_on_c, 1, 60, 83
19, 147008, Note_on_c, 1, 64, 83
19, 147008, Note_on_c, 1, 67, 83
19, 147072, Note_off_c, 1, 60, 0
19, 147072, Note_off_c, 1, 64, 0
19, 147072, Note_off_c, 1, 67, 0
19, 147072, Note_on_c, 1, 60, 83
19, 147072, Note_on_c, 1, 64, 83
19, 147072, Note_on_c, 1, 67, 83
19, 147136, Note_off_c, 1, 60, 0
19, 147136, Note_off_c, 1, 64, 0
19, 147136, Note_off_c, 1, 67, 0
19, 147136, Note_on_c, 1, 60, 84
19, 147136, Note_on_c, 1, 64, 84
19, 147136, Note_on_c, 1, 67, 84
19, 147200, Note_off_c, 1, 60, 0
19, 147200, Note_off_c, 1, 64, 0
19, 147200, Note_off_c, 1, 67, 0
19, 147200, Note_on_c, 1, 60, 90
19, 147200, Note_on_c, 1, 64, 90
19, 147200, Note_on_c, 1, 67, 90
19, 147264, Note_off_c, 1, 60, 0
19, 147264, Note_off_c, 1, 64, 0
19, 147264, Note_off_c, 1, 67, 0
19, 147264, Note_on_c, 1, 60, 83
19, 147264, Note_on_c, 1, 64, 83
19, 147264, Note_on_c, 1, 67, 83
19, 147328, Note_off_c, 1, 60, 0
19, 147328, Note_off_c, 1, 64, 0
19, 147328, Note_off_c, 1, 67, 0
19, 147392, Note_on_c, 1, 60, 75
19, 147392, Note_on_c, 1, 64, 75
19, 147392, Note_on_c, 1, 67, 75
19, 147456, Note_off_c, 1, 60, 0
19, 147456, Note_off_c, 1, 64, 0
19, 147456, Note_off_c, 1, 67, 0
19, 147456, Note_on_c, 1, 60, 80
19, 147456, Note_on_c, 1, 64, 80
19, 147456, Note_on_c, 1, 67, 80
19, 147520, Note_off_c, 1, 60, 0
19, 147520, Note_off_c, 1, 64, 0
19, 147520, Note_off_c, 1, 67, 0
19, 147520, Note_on_c, 1, 60, 87
19, 147520, Note_on_c, 1, 64, 87
19, 147520, Note_on_c, 1, 67, 87
19, 147584, Note_off_c, 1, 60, 0
19, 147584, Note_off_c, 1, 64, 0
19, 147584, Note_off_c, 1, 67, 0
19, 147584, Note_on_c, 1, 60, 95
19, 147584, Note_on_c, 1, 64, 95
19, 147584, Note_on_c, 1, 67, 95
19, 147648, Note_off_c, 1, 60, 0
19, 147648, Note_off_c, 1, 64, 0
19, 147648, Note_off_c, 1, 67, 0
19, 147648, Note_on_c, 1, 60, 95
19, 147648, Note_on_c, 1, 64, 95
19, 147648, Note_on_c, 1, 67, 95
19, 147712, Note_off_c, 1, 60, 0
19, 147712, Note_off_c, 1, 64, 0
19, 147712, Note_off_c, 1, 67, 0
19, 254592, Note_on_c, 1, 55, 63
19, 254592, Note_on_c, 1, 58, 63
19, 254592, Note_on_c, 1, 63, 63
19, 254656, Note_off_c, 1, 55, 0
19, 254656, Note_off_c, 1, 58, 0
19, 254656, Note_off_c, 1, 63, 0
19, 254656, Note_on_c, 1, 55, 66
19, 254656, Note_on_c, 1, 58, 66
19, 254656, Note_on_c, 1, 63, 66
19, 254720, Note_off_c, 1, 55, 0
19, 254720, Note_off_c, 1, 58, 0
19, 254720, Note_off_c, 1, 63, 0
19, 254720, Note_on_c, 1, 55, 77
19, 254720, Note_on_c, 1, 58, 77
19, 254720, Note_on_c, 1, 63, 77
19, 254771, Note_off_c, 1, 55, 0
19, 254771, Note_off_c, 1, 58, 0
19, 254771, Note_off_c, 1, 63, 0
19, 254784, Note_on_c, 1, 55, 77
19, 254784, Note_on_c, 1, 58, 77
19, 254784, Note_on_c, 1, 63, 77
19, 254835, Note_off_c, 1, 55, 0
19, 254835, Note_off_c, 1, 58, 0
19, 254835, Note_off_c, 1, 63, 0
19, 254848, Note_on_c, 1, 55, 77
19, 254848, Note_on_c, 1, 58, 77
19, 254848, Note_on_c, 1, 63, 77
19, 254899, Note_off_c, 1, 55, 0
19, 254899, Note_off_c, 1, 58, 0
19, 254899, Note_off_c, 1, 63, 0
19, 254912, Note_on_c, 1, 55, 77
19, 254912, Note_on_c, 1, 58, 77
19, 254912, Note_on_c, 1, 63, 77
19, 254963, Note_off_c, 1, 55, 0
19, 254963, Note_off_c, 1, 58, 0
19, 254963, Note_off_c, 1, 63, 0
19, 255360, Note_on_c, 1, 55, 67
19, 255360, Note_on_c, 1, 58, 67
19, 255360, Note_on_c, 1, 63, 67
19, 255424, Note_off_c, 1, 55, 0
19, 255424, Note_off_c, 1, 58, 0
19, 255424, Note_off_c, 1, 63, 0
19, 255424, Note_on_c, 1, 55, 70
19, 255424, Note_on_c, 1, 58, 70
19, 255424, Note_on_c, 1, 63, 70
19, 255488, Note_off_c, 1, 55, 0
19, 255488, Note_off_c, 1, 58, 0
19, 255488, Note_off_c, 1, 63, 0
19, 255488, Note_on_c, 1, 55, 71
19, 255488, Note_on_c, 1, 58, 71
19, 255488, Note_on_c, 1, 63, 71
19, 255539, Note_off_c, 1, 55, 0
19, 255539, Note_off_c, 1, 58, 0
19, 255539, Note_off_c, 1, 63, 0
19, 255552, Note_on_c, 1, 55, 71
19, 255552, Note_on_c, 1, 58, 71
19, 255552, Note_on_c, 1, 63, 71
19, 255603, Note_off_c, 1, 55, 0
19, 255603, Note_off_c, 1, 58, 0
19, 255603, Note_off_c, 1, 63, 0
19, 255616, Note_on_c, 1, 55, 71
19, 255616, Note_on_c, 1, 58, 71
19, 255616, Note_on_c, 1, 63, 71
19, 255667, Note_off_c, 1, 55, 0
19, 255667, Note_off_c, 1, 58, 0
19, 255667, Note_off_c, 1, 63, 0
19, 255680, Note_on_c, 1, 55, 71
19, 255680, Note_on_c, 1, 58, 71
19, 255680, Note_on_c, 1, 63, 71
19, 255731, Note_off_c, 1, 55, 0
19, 255731, Note_off_c, 1, 58, 0
19, 255731, Note_off_c, 1, 63, 0
19, 255744, Note_on_c, 1, 55, 68
19, 255744, Note_on_c, 1, 58, 68
19, 255744, Note_on_c, 1, 63, 68
19, 255808, Note_off_c, 1, 55, 0
19, 255808, Note_off_c, 1, 58, 0
19, 255808, Note_off_c, 1, 63, 0
19, 255808, Note_on_c, 1, 55, 68
19, 255808, Note_on_c, 1, 58, 68
19, 255808, Note_on_c, 1, 63, 68
19, 255872, Note_off_c, 1, 55, 0
19, 255872, Note_off_c, 1, 58, 0
19, 255872, Note_off_c, 1, 63, 0
19, 256128, Note_on_c, 1, 55, 63
19, 256128, Note_on_c, 1, 58, 63
19, 256128, Note_on_c, 1, 63, 63
19, 256192, Note_off_c, 1, 55, 0
19, 256192, Note_off_c, 1, 58, 0
19, 256192, Note_off_c, 1, 63, 0
19, 256192, Note_on_c, 1, 55, 71
19, 256192, Note_on_c, 1, 58, 71
19, 256192, Note_on_c, 1, 63, 71
19, 256256, Note_off_c, 1, 55, 0
19, 256256, Note_off_c, 1, 58, 0
19, 256256, Note_off_c, 1, 63, 0
19, 256256, Note_on_c, 1, 55, 75
19, 256256, Note_on_c, 1, 58, 75
19, 256256, Note_on_c, 1, 63, 75
19, 256307, Note_off_c, 1, 55, 0
19, 256307, Note_off_c, 1, 58, 0
19, 256307, Note_off_c, 1, 63, 0
19, 256320, Note_on_c, 1, 55, 75
19, 256320, Note_on_c, 1, 58, 75
19, 256320, Note_on_c, 1, 63, 75
19, 256371, Note_off_c, 1, 55, 0
19, 256371, Note_off_c, 1, 58, 0
19, 256371, Note_off_c, 1, 63, 0
19, 256384, Note_on_c, 1, 55, 75
19, 256384, Note_on_c, 1, 58, 75
19, 256384, Note_on_c, 1, 63, 75
19, 256435, Note_off_c, 1, 55, 0
19, 256435, Note_off_c, 1, 58, 0
19, 256435, Note_off_c, 1, 63, 0
19, 256448, Note_on_c, 1, 55, 75
19, 256448, Note_on_c, 1, 58, 75
19, 256448, Note_on_c, 1, 63, 75
19, 256499, Note_off_c, 1, 55, 0
19, 256499, Note_off_c, 1, 58, 0
19, 256499, Note_off_c, 1, 63, 0
19, 256576, Note_on_c, 1, 55, 64
19, 256576, Note_on_c, 1, 58, 64
19, 256576, Note_on_c, 1, 63, 64
19, 256640, Note_off_c, 1, 55, 0
19, 256640, Note_off_c, 1, 58, 0
19, 256640, Note_off_c, 1, 63, 0
19, 256640, Note_on_c, 1, 55, 71
19, 256640, Note_on_c, 1, 58, 71
19, 256640, Note_on_c, 1, 63, 71
19, 256704, Note_off_c, 1, 55, 0
19, 256704, Note_off_c, 1, 58, 0
19, 256704, Note_off_c, 1, 63, 0
19, 256704, Note_on_c, 1, 55, 70
19, 256704, Note_on_c, 1, 58, 70
19, 256704, Note_on_c, 1, 63, 70
19, 256768, Note_off_c, 1, 55, 0
19, 256768, Note_off_c, 1, 58, 0
19, 256768, Note_off_c, 1, 63, 0
19, 256768, Note_on_c, 1, 55, 70
19, 256768, Note_on_c, 1, 58, 70
19, 256768, Note_on_c, 1, 63, 70
19, 256819, Note_off_c, 1, 55, 0
19, 256819, Note_off_c, 1, 58, 0
19, 256819, Note_off_c, 1, 63, 0
19, 256832, Note_on_c, 1, 55, 70
19, 256832, Note_on_c, 1, 58, 70
19, 256832, Note_on_c, 1, 63, 70
19, 256883, Note_off_c, 1, 55, 0
19, 256883, Note_off_c, 1, 58, 0
19, 256883, Note_off_c, 1, 63, 0
19, 256896, Note_on_c, 1, 55, 70
19, 256896, Note_on_c, 1, 58, 70
19, 256896, Note_on_c, 1, 63, 70
19, 256947, Note_off_c, 1, 55, 0
19, 256947, Note_off_c, 1, 58, 0
19, 256947, Note_off_c, 1, 63, 0
19, 256960, Note_on_c, 1, 55, 70
19, 256960, Note_on_c, 1, 58, 70
19, 256960, Note_on_c, 1, 63, 70
19, 257011, Note_off_c, 1, 55, 0
19, 257011, Note_off_c, 1, 58, 0
19, 257011, Note_off_c, 1, 63, 0
19, 257024, Note_on_c, 1, 55, 69
19, 257024, Note_on_c, 1, 58, 69
19, 257024, Note_on_c, 1, 63, 69
19, 257088, Note_off_c, 1, 55, 0
19, 257088, Note_off_c, 1, 58, 0
19, 257088, Note_off_c, 1, 63, 0
19, 257536, Note_on_c, 1, 55, 65
19, 257536, Note_on_c, 1, 58, 65
19, 257536, Note_on_c, 1, 63, 65
19, 257600, Note_off_c, 1, 55, 0
19, 257600, Note_off_c, 1, 58, 0
19, 257600, Note_off_c, 1, 63, 0
19, 257600, Note_on_c, 1, 55, 69
19, 257600, Note_on_c, 1, 58, 69
19, 257600, Note_on_c, 1, 63, 69
19, 257664, Note_off_c, 1, 55, 0
19, 257664, Note_off_c, 1, 58, 0
19, 257664, Note_off_c, 1, 63, 0
19, 257664, Note_on_c, 1, 55, 74
19, 257664, Note_on_c, 1, 58, 74
19, 257664, Note_on_c, 1, 63, 74
19, 257728, Note_off_c, 1, 55, 0
19, 257728, Note_off_c, 1, 58, 0
19, 257728, Note_off_c, 1, 63, 0
19, 257728, Note_on_c, 1, 55, 70
19, 257728, Note_on_c, 1, 58, 70
19, 257728, Note_on_c, 1, 63, 70
19, 257792, Note_off_c, 1, 55, 0
19, 257792, Note_off_c, 1, 58, 0
19, 257792, Note_off_c, 1, 63, 0
19, 257792, Note_on_c, 1, 55, 78
19, 257792, Note_on_c, 1, 58, 78
19, 257792, Note_on_c, 1, 65, 78
19, 257856, Note_off_c, 1, 55, 0
19, 257856, Note_off_c, 1, 58, 0
19, 257856, Note_off_c, 1, 65, 0
19, 257856, Note_on_c, 1, 55, 70
19, 257856, Note_on_c, 1, 58, 70
19, 257856, Note_on_c, 1, 63, 70
19, 257920, Note_off_c, 1, 55, 0
19, 257920, Note_off_c, 1, 58, 0
19, 257920, Note_off_c, 1, 63, 0
19, 257920, Note_on_c, 1, 55, 69
19, 257920, Note_on_c, 1, 58, 69
19, 257920, Note_on_c, 1, 63, 69
19, 257984, Note_off_c, 1, 55, 0
19, 257984, Note_off_c, 1, 58, 0
19, 257984, Note_off_c, 1, 63, 0
19, 257984, Note_on_c, 1, 55, 76
19, 257984, Note_on_c, 1, 58, 76
19, 257984, Note_on_c, 1, 63, 76
19, 258048, Note_off_c, 1, 55, 0
19, 258048, Note_off_c, 1, 58, 0
19, 258048, Note_off_c, 1, 63, 0
19, 258048, Note_on_c, 1, 55, 73
19, 258048, Note_on_c, 1, 58, 73
19, 258048, Note_on_c, 1, 63, 73
19, 258099, Note_off_c, 1, 55, 0
19, 258099, Note_off_c, 1, 58, 0
19, 258099, Note_off_c, 1, 63, 0
19, 258112, Note_on_c, 1, 55, 73
19, 258112, Note_on_c, 1, 58, 73
19, 258112, Note_on_c, 1, 63, 73
19, 258163, Note_off_c, 1, 55, 0
19, 258163, Note_off_c, 1, 58, 0
19, 258163, Note_off_c, 1, 63, 0
19, 258176, Note_on_c, 1, 55, 73
19, 258176, Note_on_c, 1, 58, 73
19, 258176, Note_on_c, 1, 63, 73
19, 258227, Note_off_c, 1, 55, 0
19, 258227, Note_off_c, 1, 58, 0
19, 258227, Note_off_c, 1, 63, 0
19, 258240, Note_on_c, 1, 55, 73
19, 258240, Note_on_c, 1, 58, 73
19, 258240, Note_on_c, 1, 63, 73
19, 258291, Note_off_c, 1, 55, 0
19, 258291, Note_off_c, 1, 58, 0
19, 258291, Note_off_c, 1, 63, 0
19, 258304, Note_on_c, 1, 55, 75
19, 258304, Note_on_c, 1, 58, 75
19, 258304, Note_on_c, 1, 63, 75
19, 258355, Note_off_c, 1, 55, 0
19, 258355, Note_off_c, 1, 58, 0
19, 258355, Note_off_c, 1, 63, 0
19, 258368, Note_on_c, 1, 55, 75
19, 258368, Note_on_c, 1, 58, 75
19, 258368, Note_on_c, 1, 63, 75
19, 258419, Note_off_c, 1, 55, 0
19, 258419, Note_off_c, 1, 58, 0
19, 258419, Note_off_c, 1, 63, 0
19, 258432, Note_on_c, 1, 55, 75
19, 258432, Note_on_c, 1, 58, 75
19, 258432, Note_on_c, 1, 63, 75
19, 258483, Note_off_c, 1, 55, 0
19, 258483, Note_off_c, 1, 58, 0
19, 258483, Note_off_c, 1, 63, 0
19, 258496, Note_on_c, 1, 55, 75
19, 258496, Note_on_c, 1, 58, 75
19, 258496, Note_on_c, 1, 63, 75
19, 258547, Note_off_c, 1, 55, 0
19, 258547, Note_off_c, 1, 58, 0
19, 258547, Note_off_c, 1, 63, 0
19, 258688, Note_on_c, 1, 55, 63
19, 258688, Note_on_c, 1, 58, 63
19, 258688, Note_on_c, 1, 63, 63
19, 258752, Note_off_c, 1, 55, 0
19, 258752, Note_off_c, 1, 58, 0
19, 258752, Note_off_c, 1, 63, 0
19, 258752, Note_on_c, 1, 55, 67
19, 258752, Note_on_c, 1, 58, 67
19, 258752, Note_on_c, 1, 63, 67
19, 258816, Note_off_c, 1, 55, 0
19, 258816, Note_off_c, 1, 58, 0
19, 258816, Note_off_c, 1, 63, 0
19, 258816, Note_on_c, 1, 55, 69
19, 258816, Note_on_c, 1, 58, 69
19, 258816, Note_on_c, 1, 63, 69
19, 258867, Note_off_c, 1, 55, 0
19, 258867, Note_off_c, 1, 58, 0
19, 258867, Note_off_c, 1, 63, 0
19, 258880, Note_on_c, 1, 55, 69
19, 258880, Note_on_c, 1, 58, 69
19, 258880, Note_on_c, 1, 63, 69
19, 258931, Note_off_c, 1, 55, 0
19, 258931, Note_off_c, 1, 58, 0
19, 258931, Note_off_c, 1, 63, 0
19, 258944, Note_on_c, 1, 55, 69
19, 258944, Note_on_c, 1, 58, 69
19, 258944, Note_on_c, 1, 63, 69
19, 258995, Note_off_c, 1, 55, 0
19, 258995, Note_off_c, 1, 58, 0
19, 258995, Note_off_c, 1, 63, 0
19, 259008, Note_on_c, 1, 55, 69
19, 259008, Note_on_c, 1, 58, 69
19, 259008, Note_on_c, 1, 63, 69
19, 259059, Note_off_c, 1, 55, 0
19, 259059, Note_off_c, 1, 58, 0
19, 259059, Note_off_c, 1, 63, 0
19, 259072, Note_on_c, 1, 55, 77
19, 259072, Note_on_c, 1, 58, 77
19, 259072, Note_on_c, 1, 65, 77
19, 259136, Note_off_c, 1, 55, 0
19, 259136, Note_off_c, 1, 58, 0
19, 259136, Note_off_c, 1, 65, 0
19, 259136, Note_on_c, 1, 55, 67
19, 259136, Note_on_c, 1, 58, 67
19, 259136, Note_on_c, 1, 63, 67
19, 259200, Note_off_c, 1, 55, 0
19, 259200, Note_off_c, 1, 58, 0
19, 259200, Note_off_c, 1, 63, 0
19, 259200, Note_on_c, 1, 55, 66
19, 259200, Note_on_c, 1, 58, 66
19, 259200, Note_on_c, 1, 63, 66
19, 259264, Note_off_c, 1, 55, 0
19, 259264, Note_off_c, 1, 58, 0
19, 259264, Note_off_c, 1, 63, 0
19, 259264, Note_on_c, 1, 55, 72
19, 259264, Note_on_c, 1, 58, 72
19, 259264, Note_on_c, 1, 63, 72
19, 259328, Note_off_c, 1, 55, 0
19, 259328, Note_off_c, 1, 58, 0
19, 259328, Note_off_c, 1, 63, 0
19, 259328, Note_on_c, 1, 55, 71
19, 259328, Note_on_c, 1, 58, 71
19, 259328, Note_on_c, 1, 63, 71
19, 259379, Note_off_c, 1, 55, 0
19, 259379, Note_off_c, 1, 58, 0
19, 259379, Note_off_c, 1, 63, 0
19, 259392, Note_on_c, 1, 55, 71
19, 259392, Note_on_c, 1, 58, 71
19, 259392, Note_on_c, 1, 63, 71
19, 259443, Note_off_c, 1, 55, 0
19, 259443, Note_off_c, 1, 58, 0
19, 259443, Note_off_c, 1, 63, 0
19, 259456, Note_on_c, 1, 55, 71
19, 259456, Note_on_c, 1, 58, 71
19, 259456, Note_on_c, 1, 63, 71
19, 259507, Note_off_c, 1, 55, 0
19, 259507, Note_off_c, 1, 58, 0
19, 259507, Note_off_c, 1, 63, 0
19, 259520, Note_on_c, 1, 55, 71
19, 259520, Note_on_c, 1, 58, 71
19, 259520, Note_on_c, 1, 63, 71
19, 259571, Note_off_c, 1, 55, 0
19, 259571, Note_off_c, 1, 58, 0
19, 259571, Note_off_c, 1, 63, 0
19, 259584, Note_on_c, 1, 55, 70
19, 259584, Note_on_c, 1, 58, 70
19, 259584, Note_on_c, 1, 63, 70
19, 259635, Note_off_c, 1, 55, 0
19, 259635, Note_off_c, 1, 58, 0
19, 259635, Note_off_c, 1, 63, 0
19, 259648, Note_on_c, 1, 55, 70
19, 259648, Note_on_c, 1, 58, 70
19, 259648, Note_on_c, 1, 63, 70
19, 259699, Note_off_c, 1, 55, 0
19, 259699, Note_off_c, 1, 58, 0
19, 259699, Note_off_c, 1, 63, 0
19, 259712, Note_on_c, 1, 55, 70
19, 259712, Note_on_c, 1, 58, 70
19, 259712, Note_on_c, 1, 63, 70
19, 259763, Note_off_c, 1, 55, 0
19, 259763, Note_off_c, 1, 58, 0
19, 259763, Note_off_c, 1, 63, 0
19, 259776, Note_on_c, 1, 55, 70
19, 259776, Note_on_c, 1, 58, 70
19, 259776, Note_on_c, 1, 63, 70
19, 259827, Note_off_c, 1, 55, 0
19, 259827, Note_off_c, 1, 58, 0
19, 259827, Note_off_c, 1, 63, 0
19, 259968, Note_on_c, 1, 55, 60
19, 259968, Note_on_c, 1, 58, 60
19, 259968, Note_on_c, 1, 63, 60
19, 260019, Note_off_c, 1, 55, 0
19, 260019, Note_off_c, 1, 58, 0
19, 260019, Note_off_c, 1, 63, 0
19, 260032, Note_on_c, 1, 55, 60
19, 260032, Note_on_c, 1, 58, 60
19, 260032, Note_on_c, 1, 63, 60
19, 260083, Note_off_c, 1, 55, 0
19, 260083, Note_off_c, 1, 58, 0
19, 260083, Note_off_c, 1, 63, 0
19, 260096, Note_on_c, 1, 55, 69
19, 260096, Note_on_c, 1, 58, 69
19, 260096, Note_on_c, 1, 63, 69
19, 260147, Note_off_c, 1, 55, 0
19, 260147, Note_off_c, 1, 58, 0
19, 260147, Note_off_c, 1, 63, 0
19, 260160, Note_on_c, 1, 55, 69
19, 260160, Note_on_c, 1, 58, 69
19, 260160, Note_on_c, 1, 63, 69
19, 260211, Note_off_c, 1, 55, 0
19, 260211, Note_off_c, 1, 58, 0
19, 260211, Note_off_c, 1, 63, 0
19, 260288, Note_on_c, 1, 55, 65
19, 260288, Note_on_c, 1, 58, 65
19, 260288, Note_on_c, 1, 63, 65
19, 260352, Note_off_c, 1, 55, 0
19, 260352, Note_off_c, 1, 58, 0
19, 260352, Note_off_c, 1, 63, 0
19, 260352, Note_on_c, 1, 55, 73
19, 260352, Note_on_c, 1, 58, 73
19, 260352, Note_on_c, 1, 63, 73
19, 260403, Note_off_c, 1, 55, 0
19, 260403, Note_off_c, 1, 58, 0
19, 260403, Note_off_c, 1, 63, 0
19, 260416, Note_on_c, 1, 55, 73
19, 260416, Note_on_c, 1, 58, 73
19, 260416, Note_on_c, 1, 63, 73
19, 260467, Note_off_c, 1, 55, 0
19, 260467, Note_off_c, 1, 58, 0
19, 260467, Note_off_c, 1, 63, 0
19, 260480, Note_on_c, 1, 55, 73
19, 260480, Note_on_c, 1, 58, 73
19, 260480, Note_on_c, 1, 63, 73
19, 260531, Note_off_c, 1, 55, 0
19, 260531, Note_off_c, 1, 58, 0
19, 260531, Note_off_c, 1, 63, 0
19, 260544, Note_on_c, 1, 55, 73
19, 260544, Note_on_c, 1, 58, 73
19, 260544, Note_on_c, 1, 63, 73
19, 260595, Note_off_c, 1, 55, 0
19, 260595, Note_off_c, 1, 58, 0
19, 260595, Note_off_c, 1, 63, 0
19, 260672, Note_on_c, 1, 55, 65
19, 260672, Note_on_c, 1, 58, 65
19, 260672, Note_on_c, 1, 63, 65
19, 260736, Note_off_c, 1, 55, 0
19, 260736, Note_off_c, 1, 58, 0
19, 260736, Note_off_c, 1, 63, 0
19, 260736, Note_on_c, 1, 55, 71
19, 260736, Note_on_c, 1, 58, 71
19, 260736, Note_on_c, 1, 63, 71
19, 260800, Note_off_c, 1, 55, 0
19, 260800, Note_off_c, 1, 58, 0
19, 260800, Note_off_c, 1, 63, 0
19, 260800, Note_on_c, 1, 55, 67
19, 260800, Note_on_c, 1, 58, 67
19, 260800, Note_on_c, 1, 63, 67
19, 260864, Note_off_c, 1, 55, 0
19, 260864, Note_off_c, 1, 58, 0
19, 260864, Note_off_c, 1, 63, 0
19, 260864, Note_on_c, 1, 55, 73
19, 260864, Note_on_c, 1, 58, 73
19, 260864, Note_on_c, 1, 65, 73
19, 260928, Note_off_c, 1, 55, 0
19, 260928, Note_off_c, 1, 58, 0
19, 260928, Note_off_c, 1, 65, 0
19, 260928, Note_on_c, 1, 55, 66
19, 260928, Note_on_c, 1, 58, 66
19, 260928, Note_on_c, 1, 63, 66
19, 260992, Note_off_c, 1, 55, 0
19, 260992, Note_off_c, 1, 58, 0
19, 260992, Note_off_c, 1, 63, 0
19, 260992, Note_on_c, 1, 55, 72
19, 260992, Note_on_c, 1, 58, 72
19, 260992, Note_on_c, 1, 63, 72
19, 261056, Note_off_c, 1, 55, 0
19, 261056, Note_off_c, 1, 58, 0
19, 261056, Note_off_c, 1, 63, 0
19, 261056, Note_on_c, 1, 55, 71
19, 261056, Note_on_c, 1, 58, 71
19, 261056, Note_on_c, 1, 63, 71
19, 261120, Note_off_c, 1, 55, 0
19, 261120, Note_off_c, 1, 58, 0
19, 261120, Note_off_c, 1, 63, 0
19, 261120, Note_on_c, 1, 55, 76
19, 261120, Note_on_c, 1, 58, 76
19, 261120, Note_on_c, 1, 65, 76
19, 261184, Note_off_c, 1, 55, 0
19, 261184, Note_off_c, 1, 58, 0
19, 261184, Note_off_c, 1, 65, 0
19, 261184, Note_on_c, 1, 55, 68
19, 261184, Note_on_c, 1, 58, 68
19, 261184, Note_on_c, 1, 63, 68
19, 261248, Note_off_c, 1, 55, 0
19, 261248, Note_off_c, 1, 58, 0
19, 261248, Note_off_c, 1, 63, 0
19, 261248, Note_on_c, 1, 55, 71
19, 261248, Note_on_c, 1, 58, 71
19, 261248, Note_on_c, 1, 63, 71
19, 261312, Note_off_c, 1, 55, 0
19, 261312, Note_off_c, 1, 58, 0
19, 261312, Note_off_c, 1, 63, 0
19, 261312, Note_on_c, 1, 55, 72
19, 261312, Note_on_c, 1, 58, 72
19, 261312, Note_on_c, 1, 63, 72
19, 261376, Note_off_c, 1, 55, 0
19, 261376, Note_off_c, 1, 58, 0
19, 261376, Note_off_c, 1, 63, 0
19, 261376, Note_on_c, 1, 55, 76
19, 261376, Note_on_c, 1, 58, 76
19, 261376, Note_on_c, 1, 65, 76
19, 261440, Note_off_c, 1, 55, 0
19, 261440, Note_off_c, 1, 58, 0
19, 261440, Note_off_c, 1, 65, 0
19, 261440, Note_on_c, 1, 55, 73
19, 261440, Note_on_c, 1, 58, 73
19, 261440, Note_on_c, 1, 63, 73
19, 261504, Note_off_c, 1, 55, 0
19, 261504, Note_off_c, 1, 58, 0
19, 261504, Note_off_c, 1, 63, 0
19, 261504, Note_on_c, 1, 55, 73
19, 261504, Note_on_c, 1, 58, 73
19, 261504, Note_on_c, 1, 63, 73
19, 261568, Note_off_c, 1, 55, 0
19, 261568, Note_off_c, 1, 58, 0
19, 261568, Note_off_c, 1, 63, 0
19, 261568, Note_on_c, 1, 55, 66
19, 261568, Note_on_c, 1, 58, 66
19, 261568, Note_on_c, 1, 63, 66
19, 261632, Note_off_c, 1, 55, 0
19, 261632, Note_off_c, 1, 58, 0
19, 261632, Note_off_c, 1, 63, 0
19, 261760, Note_on_c, 1, 55, 58
19, 261760, Note_on_c, 1, 58, 58
19, 261760, Note_on_c, 1, 63, 58
19, 261824, Note_off_c, 1, 55, 0
19, 261824, Note_off_c, 1, 58, 0
19, 261824, Note_off_c, 1, 63, 0
19, 261824, Note_on_c, 1, 55, 73
19, 261824, Note_on_c, 1, 58, 73
19, 261824, Note_on_c, 1, 63, 73
19, 261888, Note_off_c, 1, 55, 0
19, 261888, Note_off_c, 1, 58, 0
19, 261888, Note_off_c, 1, 63, 0
19, 261888, Note_on_c, 1, 55, 74
19, 261888, Note_on_c, 1, 58, 74
19, 261888, Note_on_c, 1, 63, 74
19, 261939, Note_off_c, 1, 55, 0
19, 261939, Note_off_c, 1, 58, 0
19, 261939, Note_off_c, 1, 63, 0
19, 261952, Note_on_c, 1, 55, 74
19, 261952, Note_on_c, 1, 58, 74
19, 261952, Note_on_c, 1, 63, 74
19, 262003, Note_off_c, 1, 55, 0
19, 262003, Note_off_c, 1, 58, 0
19, 262003, Note_off_c, 1, 63, 0
19, 262016, Note_on_c, 1, 55, 74
19, 262016, Note_on_c, 1, 58, 74
19, 262016, Note_on_c, 1, 63, 74
19, 262067, Note_off_c, 1, 55, 0
19, 262067, Note_off_c, 1, 58, 0
19, 262067, Note_off_c, 1, 63, 0
19, 262080, Note_on_c, 1, 55, 74
19, 262080, Note_on_c, 1, 58, 74
19, 262080, Note_on_c, 1, 63, 74
19, 262131, Note_off_c, 1, 55, 0
19, 262131, Note_off_c, 1, 58, 0
19, 262131, Note_off_c, 1, 63, 0
19, 262272, Note_on_c, 1, 55, 60
19, 262272, Note_on_c, 1, 58, 60
19, 262272, Note_on_c, 1, 62, 60
19, 262336, Note_off_c, 1, 55, 0
19, 262336, Note_off_c, 1, 58, 0
19, 262336, Note_off_c, 1, 62, 0
19, 262336, Note_on_c, 1, 55, 69
19, 262336, Note_on_c, 1, 58, 69
19, 262336, Note_on_c, 1, 62, 69
19, 262400, Note_off_c, 1, 55, 0
19, 262400, Note_off_c, 1, 58, 0
19, 262400, Note_off_c, 1, 62, 0
19, 262400, Note_on_c, 1, 55, 67
19, 262400, Note_on_c, 1, 58, 67
19, 262400, Note_on_c, 1, 62, 67
19, 262451, Note_off_c, 1, 55, 0
19, 262451, Note_off_c, 1, 58, 0
19, 262451, Note_off_c, 1, 62, 0
19, 262464, Note_on_c, 1, 55, 67
19, 262464, Note_on_c, 1, 58, 67
19, 262464, Note_on_c, 1, 62, 67
19, 262515, Note_off_c, 1, 55, 0
19, 262515, Note_off_c, 1, 58, 0
19, 262515, Note_off_c, 1, 62, 0
19, 262528, Note_on_c, 1, 55, 67
19, 262528, Note_on_c, 1, 58, 67
19, 262528, Note_on_c, 1, 62, 67
19, 262579, Note_off_c, 1, 55, 0
19, 262579, Note_off_c, 1, 58, 0
19, 262579, Note_off_c, 1, 62, 0
19, 262592, Note_on_c, 1, 55, 67
19, 262592, Note_on_c, 1, 58, 67
19, 262592, Note_on_c, 1, 62, 67
19, 262643, Note_off_c, 1, 55, 0
19, 262643, Note_off_c, 1, 58, 0
19, 262643, Note_off_c, 1, 62, 0
19, 262656, Note_on_c, 1, 55, 71
19, 262656, Note_on_c, 1, 58, 71
19, 262656, Note_on_c, 1, 62, 71
19, 262707, Note_off_c, 1, 55, 0
19, 262707, Note_off_c, 1, 58, 0
19, 262707, Note_off_c, 1, 62, 0
19, 262720, Note_on_c, 1, 55, 71
19, 262720, Note_on_c, 1, 58, 71
19, 262720, Note_on_c, 1, 62, 71
19, 262771, Note_off_c, 1, 55, 0
19, 262771, Note_off_c, 1, 58, 0
19, 262771, Note_off_c, 1, 62, 0
19, 262784, Note_on_c, 1, 55, 71
19, 262784, Note_on_c, 1, 58, 71
19, 262784, Note_on_c, 1, 62, 71
19, 262835, Note_off_c, 1, 55, 0
19, 262835, Note_off_c, 1, 58, 0
19, 262835, Note_off_c, 1, 62, 0
19, 262848, Note_on_c, 1, 55, 71
19, 262848, Note_on_c, 1, 58, 71
19, 262848, Note_on_c, 1, 62, 71
19, 262899, Note_off_c, 1, 55, 0
19, 262899, Note_off_c, 1, 58, 0
19, 262899, Note_off_c, 1, 62, 0
19, 262912, Note_on_c, 1, 55, 72
19, 262912, Note_on_c, 1, 58, 72
19, 262912, Note_on_c, 1, 63, 72
19, 262976, Note_off_c, 1, 55, 0
19, 262976, Note_off_c, 1, 58, 0
19, 262976, Note_off_c, 1, 63, 0
19, 262976, Note_on_c, 1, 55, 68
19, 262976, Note_on_c, 1, 58, 68
19, 262976, Note_on_c, 1, 62, 68
19, 263040, Note_off_c, 1, 55, 0
19, 263040, Note_off_c, 1, 58, 0
19, 263040, Note_off_c, 1, 62, 0
19, 263040, Note_on_c, 1, 55, 70
19, 263040, Note_on_c, 1, 58, 70
19, 263040, Note_on_c, 1, 62, 70
19, 263104, Note_off_c, 1, 55, 0
19, 263104, Note_off_c, 1, 58, 0
19, 263104, Note_off_c, 1, 62, 0
19, 263104, Note_on_c, 1, 55, 72
19, 263104, Note_on_c, 1, 58, 72
19, 263104, Note_on_c, 1, 62, 72
19, 263168, Note_off_c, 1, 55, 0
19, 263168, Note_off_c, 1, 58, 0
19, 263168, Note_off_c, 1, 62, 0
19, 263296, Note_on_c, 1, 55, 65
19, 263296, Note_on_c, 1, 58, 65
19, 263296, Note_on_c, 1, 62, 65
19, 263360, Note_off_c, 1, 55, 0
19, 263360, Note_off_c, 1, 58, 0
19, 263360, Note_off_c, 1, 62, 0
19, 263360, Note_on_c, 1, 55, 70
19, 263360, Note_on_c, 1, 58, 70
19, 263360, Note_on_c, 1, 62, 70
19, 263424, Note_off_c, 1, 55, 0
19, 263424, Note_off_c, 1, 58, 0
19, 263424, Note_off_c, 1, 62, 0
19, 263424, Note_on_c, 1, 55, 72
19, 263424, Note_on_c, 1, 58, 72
19, 263424, Note_on_c, 1, 62, 72
19, 263475, Note_off_c, 1, 55, 0
19, 263475, Note_off_c, 1, 58, 0
19, 263475, Note_off_c, 1, 62, 0
19, 263488, Note_on_c, 1, 55, 72
19, 263488, Note_on_c, 1, 58, 72
19, 263488, Note_on_c, 1, 62, 72
19, 263539, Note_off_c, 1, 55, 0
19, 263539, Note_off_c, 1, 58, 0
19, 263539, Note_off_c, 1, 62, 0
19, 263552, Note_on_c, 1, 55, 72
19, 263552, Note_on_c, 1, 58, 72
19, 263552, Note_on_c, 1, 62, 72
19, 263603, Note_off_c, 1, 55, 0
19, 263603, Note_off_c, 1, 58, 0
19, 263603, Note_off_c, 1, 62, 0
19, 263616, Note_on_c, 1, 55, 72
19, 263616, Note_on_c, 1, 58, 72
19, 263616, Note_on_c, 1, 62, 72
19, 263667, Note_off_c, 1, 55, 0
19, 263667, Note_off_c, 1, 58, 0
19, 263667, Note_off_c, 1, 62, 0
19, 263680, Note_on_c, 1, 55, 75
19, 263680, Note_on_c, 1, 58, 75
19, 263680, Note_on_c, 1, 63, 75
19, 263744, Note_off_c, 1, 55, 0
19, 263744, Note_off_c, 1, 58, 0
19, 263744, Note_off_c, 1, 63, 0
19, 263744, Note_on_c, 1, 55, 63
19, 263744, Note_on_c, 1, 58, 63
19, 263744, Note_on_c, 1, 62, 63
19, 263808, Note_off_c, 1, 55, 0
19, 263808, Note_off_c, 1, 58, 0
19, 263808, Note_off_c, 1, 62, 0
19, 263808, Note_on_c, 1, 55, 71
19, 263808, Note_on_c, 1, 58, 71
19, 263808, Note_on_c, 1, 62, 71
19, 263872, Note_off_c, 1, 55, 0
19, 263872, Note_off_c, 1, 58, 0
19, 263872, Note_off_c, 1, 62, 0
19, 263872, Note_on_c, 1, 55, 71
19, 263872, Note_on_c, 1, 58, 71
19, 263872, Note_on_c, 1, 62, 71
19, 263936, Note_off_c, 1, 55, 0
19, 263936, Note_off_c, 1, 58, 0
19, 263936, Note_off_c, 1, 62, 0
19, 263936, Note_on_c, 1, 55, 68
19, 263936, Note_on_c, 1, 58, 68
19, 263936, Note_on_c, 1, 62, 68
19, 264000, Note_off_c, 1, 55, 0
19, 264000, Note_off_c, 1, 58, 0
19, 264000, Note_off_c, 1, 62, 0
19, 264000, Note_on_c, 1, 55, 70
19, 264000, Note_on_c, 1, 58, 70
19, 264000, Note_on_c, 1, 62, 70
19, 264064, Note_off_c, 1, 55, 0
19, 264064, Note_off_c, 1, 58, 0
19, 264064, Note_off_c, 1, 62, 0
19, 264320, Note_on_c, 1, 55, 66
19, 264320, Note_on_c, 1, 58, 66
19, 264320, Note_on_c, 1, 62, 66
19, 264384, Note_off_c, 1, 55, 0
19, 264384, Note_off_c, 1, 58, 0
19, 264384, Note_off_c, 1, 62, 0
19, 264384, Note_on_c, 1, 55, 68
19, 264384, Note_on_c, 1, 58, 68
19, 264384, Note_on_c, 1, 62, 68
19, 264448, Note_off_c, 1, 55, 0
19, 264448, Note_off_c, 1, 58, 0
19, 264448, Note_off_c, 1, 62, 0
19, 264448, Note_on_c, 1, 55, 73
19, 264448, Note_on_c, 1, 58, 73
19, 264448, Note_on_c, 1, 62, 73
19, 264512, Note_off_c, 1, 55, 0
19, 264512, Note_off_c, 1, 58, 0
19, 264512, Note_off_c, 1, 62, 0
19, 264512, Note_on_c, 1, 55, 68
19, 264512, Note_on_c, 1, 58, 68
19, 264512, Note_on_c, 1, 62, 68
19, 264576, Note_off_c, 1, 55, 0
19, 264576, Note_off_c, 1, 58, 0
19, 264576, Note_off_c, 1, 62, 0
19, 264576, Note_on_c, 1, 55, 74
19, 264576, Note_on_c, 1, 58, 74
19, 264576, Note_on_c, 1, 63, 74
19, 264640, Note_off_c, 1, 55, 0
19, 264640, Note_off_c, 1, 58, 0
19, 264640, Note_off_c, 1, 63, 0
19, 264640, Note_on_c, 1, 55, 73
19, 264640, Note_on_c, 1, 58, 73
19, 264640, Note_on_c, 1, 63, 73
19, 264704, Note_off_c, 1, 55, 0
19, 264704, Note_off_c, 1, 58, 0
19, 264704, Note_off_c, 1, 63, 0
19, 264704, Note_on_c, 1, 55, 70
19, 264704, Note_on_c, 1, 58, 70
19, 264704, Note_on_c, 1, 62, 70
19, 264755, Note_off_c, 1, 55, 0
19, 264755, Note_off_c, 1, 58, 0
19, 264755, Note_off_c, 1, 62, 0
19, 264768, Note_on_c, 1, 55, 70
19, 264768, Note_on_c, 1, 58, 70
19, 264768, Note_on_c, 1, 62, 70
19, 264819, Note_off_c, 1, 55, 0
19, 264819, Note_off_c, 1, 58, 0
19, 264819, Note_off_c, 1, 62, 0
19, 264832, Note_on_c, 1, 55, 70
19, 264832, Note_on_c, 1, 58, 70
19, 264832, Note_on_c, 1, 62, 70
19, 264883, Note_off_c, 1, 55, 0
19, 264883, Note_off_c, 1, 58, 0
19, 264883, Note_off_c, 1, 62, 0
19, 264896, Note_on_c, 1, 55, 70
19, 264896, Note_on_c, 1, 58, 70
19, 264896, Note_on_c, 1, 62, 70
19, 264947, Note_off_c, 1, 55, 0
19, 264947, Note_off_c, 1, 58, 0
19, 264947, Note_off_c, 1, 62, 0
19, 264960, Note_on_c, 1, 55, 69
19, 264960, Note_on_c, 1, 58, 69
19, 264960, Note_on_c, 1, 62, 69
19, 265011, Note_off_c, 1, 55, 0
19, 265011, Note_off_c, 1, 58, 0
19, 265011, Note_off_c, 1, 62, 0
19, 265024, Note_on_c, 1, 55, 69
19, 265024, Note_on_c, 1, 58, 69
19, 265024, Note_on_c, 1, 62, 69
19, 265075, Note_off_c, 1, 55, 0
19, 265075, Note_off_c, 1, 58, 0
19, 265075, Note_off_c, 1, 62, 0
19, 265088, Note_on_c, 1, 55, 69
19, 265088, Note_on_c, 1, 58, 69
19, 265088, Note_on_c, 1, 62, 69
19, 265139, Note_off_c, 1, 55, 0
19, 265139, Note_off_c, 1, 58, 0
19, 265139, Note_off_c, 1, 62, 0
19, 265152, Note_on_c, 1, 55, 69
19, 265152, Note_on_c, 1, 58, 69
19, 265152, Note_on_c, 1, 62, 69
19, 265203, Note_off_c, 1, 55, 0
19, 265203, Note_off_c, 1, 58, 0
19, 265203, Note_off_c, 1, 62, 0
19, 265344, Note_on_c, 1, 55, 66
19, 265344, Note_on_c, 1, 58, 66
19, 265344, Note_on_c, 1, 62, 66
19, 265408, Note_off_c, 1, 55, 0
19, 265408, Note_off_c, 1, 58, 0
19, 265408, Note_off_c, 1, 62, 0
19, 265408, Note_on_c, 1, 55, 71
19, 265408, Note_on_c, 1, 58, 71
19, 265408, Note_on_c, 1, 62, 71
19, 265472, Note_off_c, 1, 55, 0
19, 265472, Note_off_c, 1, 58, 0
19, 265472, Note_off_c, 1, 62, 0
19, 265472, Note_on_c, 1, 55, 69
19, 265472, Note_on_c, 1, 58, 69
19, 265472, Note_on_c, 1, 62, 69
19, 265523, Note_off_c, 1, 55, 0
19, 265523, Note_off_c, 1, 58, 0
19, 265523, Note_off_c, 1, 62, 0
19, 265536, Note_on_c, 1, 55, 69
19, 265536, Note_on_c, 1, 58, 69
19, 265536, Note_on_c, 1, 62, 69
19, 265587, Note_off_c, 1, 55, 0
19, 265587, Note_off_c, 1, 58, 0
19, 265587, Note_off_c, 1, 62, 0
19, 265600, Note_on_c, 1, 55, 69
19, 265600, Note_on_c, 1, 58, 69
19, 265600, Note_on_c, 1, 62, 69
19, 265651, Note_off_c, 1, 55, 0
19, 265651, Note_off_c, 1, 58, 0
19, 265651, Note_off_c, 1, 62, 0
19, 265664, Note_on_c, 1, 55, 69
19, 265664, Note_on_c, 1, 58, 69
19, 265664, Note_on_c, 1, 62, 69
19, 265715, Note_off_c, 1, 55, 0
19, 265715, Note_off_c, 1, 58, 0
19, 265715, Note_off_c, 1, 62, 0
19, 265728, Note_on_c, 1, 55, 73
19, 265728, Note_on_c, 1, 58, 73
19, 265728, Note_on_c, 1, 62, 73
19, 265792, Note_off_c, 1, 55, 0
19, 265792, Note_off_c, 1, 58, 0
19, 265792, Note_off_c, 1, 62, 0
19, 265920, Note_on_c, 1, 55, 64
19, 265920, Note_on_c, 1, 58, 64
19, 265920, Note_on_c, 1, 62, 64
19, 265984, Note_off_c, 1, 55, 0
19, 265984, Note_off_c, 1, 58, 0
19, 265984, Note_off_c, 1, 62, 0
19, 265984, Note_on_c, 1, 55, 71
19, 265984, Note_on_c, 1, 58, 71
19, 265984, Note_on_c, 1, 62, 71
19, 266035, Note_off_c, 1, 55, 0
19, 266035, Note_off_c, 1, 58, 0
19, 266035, Note_off_c, 1, 62, 0
19, 266048, Note_on_c, 1, 55, 71
19, 266048, Note_on_c, 1, 58, 71
19, 266048, Note_on_c, 1, 62, 71
19, 266099, Note_off_c, 1, 55, 0
19, 266099, Note_off_c, 1, 58, 0
19, 266099, Note_off_c, 1, 62, 0
19, 266112, Note_on_c, 1, 55, 71
19, 266112, Note_on_c, 1, 58, 71
19, 266112, Note_on_c, 1, 62, 71
19, 266163, Note_off_c, 1, 55, 0
19, 266163, Note_off_c, 1, 58, 0
19, 266163, Note_off_c, 1, 62, 0
19, 266176, Note_on_c, 1, 55, 71
19, 266176, Note_on_c, 1, 58, 71
19, 266176, Note_on_c, 1, 62, 71
19, 266227, Note_off_c, 1, 55, 0
19, 266227, Note_off_c, 1, 58, 0
19, 266227, Note_off_c, 1, 62, 0
19, 266304, Note_on_c, 1, 55, 66
19, 266304, Note_on_c, 1, 58, 66
19, 266304, Note_on_c, 1, 62, 66
19, 266368, Note_off_c, 1, 55, 0
19, 266368, Note_off_c, 1, 58, 0
19, 266368, Note_off_c, 1, 62, 0
19, 266368, Note_on_c, 1, 55, 75
19, 266368, Note_on_c, 1, 58, 75
19, 266368, Note_on_c, 1, 62, 75
19, 266432, Note_off_c, 1, 55, 0
19, 266432, Note_off_c, 1, 58, 0
19, 266432, Note_off_c, 1, 62, 0
19, 266432, Note_on_c, 1, 55, 68
19, 266432, Note_on_c, 1, 58, 68
19, 266432, Note_on_c, 1, 62, 68
19, 266496, Note_off_c, 1, 55, 0
19, 266496, Note_off_c, 1, 58, 0
19, 266496, Note_off_c, 1, 62, 0
19, 266496, Note_on_c, 1, 55, 71
19, 266496, Note_on_c, 1, 58, 71
19, 266496, Note_on_c, 1, 62, 71
19, 266547, Note_off_c, 1, 55, 0
19, 266547, Note_off_c, 1, 58, 0
19, 266547, Note_off_c, 1, 62, 0
19, 266560, Note_on_c, 1, 55, 71
19, 266560, Note_on_c, 1, 58, 71
19, 266560, Note_on_c, 1, 62, 71
19, 266611, Note_off_c, 1, 55, 0
19, 266611, Note_off_c, 1, 58, 0
19, 266611, Note_off_c, 1, 62, 0
19, 266624, Note_on_c, 1, 55, 71
19, 266624, Note_on_c, 1, 58, 71
19, 266624, Note_on_c, 1, 62, 71
19, 266675, Note_off_c, 1, 55, 0
19, 266675, Note_off_c, 1, 58, 0
19, 266675, Note_off_c, 1, 62, 0
19, 266688, Note_on_c, 1, 55, 71
19, 266688, Note_on_c, 1, 58, 71
19, 266688, Note_on_c, 1, 62, 71
19, 266739, Note_off_c, 1, 55, 0
19, 266739, Note_off_c, 1, 58, 0
19, 266739, Note_off_c, 1, 62, 0
19, 266880, Note_on_c, 1, 55, 63
19, 266880, Note_on_c, 1, 58, 63
19, 266880, Note_on_c, 1, 62, 63
19, 266944, Note_off_c, 1, 55, 0
19, 266944, Note_off_c, 1, 58, 0
19, 266944, Note_off_c, 1, 62, 0
19, 266944, Note_on_c, 1, 55, 72
19, 266944, Note_on_c, 1, 58, 72
19, 266944, Note_on_c, 1, 62, 72
19, 267008, Note_off_c, 1, 55, 0
19, 267008, Note_off_c, 1, 58, 0
19, 267008, Note_off_c, 1, 62, 0
19, 267008, Note_on_c, 1, 55, 75
19, 267008, Note_on_c, 1, 58, 75
19, 267008, Note_on_c, 1, 62, 75
19, 267072, Note_off_c, 1, 55, 0
19, 267072, Note_off_c, 1, 58, 0
19, 267072, Note_off_c, 1, 62, 0
19, 267072, Note_on_c, 1, 55, 72
19, 267072, Note_on_c, 1, 58, 72
19, 267072, Note_on_c, 1, 62, 72
19, 267136, Note_off_c, 1, 55, 0
19, 267136, Note_off_c, 1, 58, 0
19, 267136, Note_off_c, 1, 62, 0
19, 267136, Note_on_c, 1, 55, 70
19, 267136, Note_on_c, 1, 58, 70
19, 267136, Note_on_c, 1, 62, 70
19, 267200, Note_off_c, 1, 55, 0
19, 267200, Note_off_c, 1, 58, 0
19, 267200, Note_off_c, 1, 62, 0
19, 267200, Note_on_c, 1, 55, 78
19, 267200, Note_on_c, 1, 58, 78
19, 267200, Note_on_c, 1, 63, 78
19, 267264, Note_off_c, 1, 55, 0
19, 267264, Note_off_c, 1, 58, 0
19, 267264, Note_off_c, 1, 63, 0
19, 267264, Note_on_c, 1, 55, 80
19, 267264, Note_on_c, 1, 58, 80
19, 267264, Note_on_c, 1, 63, 80
19, 267328, Note_off_c, 1, 55, 0
19, 267328, Note_off_c, 1, 58, 0
19, 267328, Note_off_c, 1, 63, 0
19, 267328, Note_on_c, 1, 55, 72
19, 267328, Note_on_c, 1, 58, 72
19, 267328, Note_on_c, 1, 63, 72
19, 267392, Note_off_c, 1, 55, 0
19, 267392, Note_off_c, 1, 58, 0
19, 267392, Note_off_c, 1, 63, 0
19, 267392, Note_on_c, 1, 55, 67
19, 267392, Note_on_c, 1, 58, 67
19, 267392, Note_on_c, 1, 62, 67
19, 267456, Note_off_c, 1, 55, 0
19, 267456, Note_off_c, 1, 58, 0
19, 267456, Note_off_c, 1, 62, 0
19, 267456, Note_on_c, 1, 55, 71
19, 267456, Note_on_c, 1, 58, 71
19, 267456, Note_on_c, 1, 62, 71
19, 267520, Note_off_c, 1, 55, 0
19, 267520, Note_off_c, 1, 58, 0
19, 267520, Note_off_c, 1, 62, 0
19, 267520, Note_on_c, 1, 55, 77
19, 267520, Note_on_c, 1, 58, 77
19, 267520, Note_on_c, 1, 63, 77
19, 267584, Note_off_c, 1, 55, 0
19, 267584, Note_off_c, 1, 58, 0
19, 267584, Note_off_c, 1, 63, 0
19, 267584, Note_on_c, 1, 55, 71
19, 267584, Note_on_c, 1, 58, 71
19, 267584, Note_on_c, 1, 63, 71
19, 267648, Note_off_c, 1, 55, 0
19, 267648, Note_off_c, 1, 58, 0
19, 267648, Note_off_c, 1, 63, 0
19, 267648, Note_on_c, 1, 55, 74
19, 267648, Note_on_c, 1, 58, 74
19, 267648, Note_on_c, 1, 63, 74
19, 267712, Note_off_c, 1, 55, 0
19, 267712, Note_off_c, 1, 58, 0
19, 267712, Note_off_c, 1, 63, 0
19, 267712, Note_on_c, 1, 55, 67
19, 267712, Note_on_c, 1, 58, 67
19, 267712, Note_on_c, 1, 62, 67
19, 267776, Note_off_c, 1, 55, 0
19, 267776, Note_off_c, 1, 58, 0
19, 267776, Note_off_c, 1, 62, 0
19, 267776, Note_on_c, 1, 55, 69
19, 267776, Note_on_c, 1, 58, 69
19, 267776, Note_on_c, 1, 62, 69
19, 267827, Note_off_c, 1, 55, 0
19, 267827, Note_off_c, 1, 58, 0
19, 267827, Note_off_c, 1, 62, 0
19, 267840, Note_on_c, 1, 55, 69
19, 267840, Note_on_c, 1, 58, 69
19, 267840, Note_on_c, 1, 62, 69
19, 267891, Note_off_c, 1, 55, 0
19, 267891, Note_off_c, 1, 58, 0
19, 267891, Note_off_c, 1, 62, 0
19, 267904, Note_on_c, 1, 55, 69
19, 267904, Note_on_c, 1, 58, 69
19, 267904, Note_on_c, 1, 62, 69
19, 267955, Note_off_c, 1, 55, 0
19, 267955, Note_off_c, 1, 58, 0
19, 267955, Note_off_c, 1, 62, 0
19, 267968, Note_on_c, 1, 55, 69
19, 267968, Note_on_c, 1, 58, 69
19, 267968, Note_on_c, 1, 62, 69
19, 268019, Note_off_c, 1, 55, 0
19, 268019, Note_off_c, 1, 58, 0
19, 268019, Note_off_c, 1, 62, 0
19, 268096, Note_on_c, 1, 55, 60
19, 268096, Note_on_c, 1, 58, 60
19, 268096, Note_on_c, 1, 62, 60
19, 268160, Note_off_c, 1, 55, 0
19, 268160, Note_off_c, 1, 58, 0
19, 268160, Note_off_c, 1, 62, 0
19, 268160, Note_on_c, 1, 55, 68
19, 268160, Note_on_c, 1, 58, 68
19, 268160, Note_on_c, 1, 62, 68
19, 268224, Note_off_c, 1, 55, 0
19, 268224, Note_off_c, 1, 58, 0
19, 268224, Note_off_c, 1, 62, 0
19, 268224, Note_on_c, 1, 55, 76
19, 268224, Note_on_c, 1, 58, 76
19, 268224, Note_on_c, 1, 62, 76
19, 268288, Note_off_c, 1, 55, 0
19, 268288, Note_off_c, 1, 58, 0
19, 268288, Note_off_c, 1, 62, 0
19, 268288, Note_on_c, 1, 55, 71
19, 268288, Note_on_c, 1, 58, 71
19, 268288, Note_on_c, 1, 62, 71
19, 268352, Note_off_c, 1, 55, 0
19, 268352, Note_off_c, 1, 58, 0
19, 268352, Note_off_c, 1, 62, 0
19, 268352, Note_on_c, 1, 55, 72
19, 268352, Note_on_c, 1, 58, 72
19, 268352, Note_on_c, 1, 62, 72
19, 268416, Note_off_c, 1, 55, 0
19, 268416, Note_off_c, 1, 58, 0
19, 268416, Note_off_c, 1, 62, 0
19, 268544, Note_on_c, 1, 55, 63
19, 268544, Note_on_c, 1, 58, 63
19, 268544, Note_on_c, 1, 62, 63
19, 268608, Note_off_c, 1, 55, 0
19, 268608, Note_off_c, 1, 58, 0
19, 268608, Note_off_c, 1, 62, 0
19, 268608, Note_on_c, 1, 55, 72
19, 268608, Note_on_c, 1, 58, 72
19, 268608, Note_on_c, 1, 62, 72
19, 268672, Note_off_c, 1, 55, 0
19, 268672, Note_off_c, 1, 58, 0
19, 268672, Note_off_c, 1, 62, 0
19, 268736, Note_on_c, 1, 55, 63
19, 268736, Note_on_c, 1, 58, 63
19, 268736, Note_on_c, 1, 62, 63
19, 268800, Note_off_c, 1, 55, 0
19, 268800, Note_off_c, 1, 58, 0
19, 268800, Note_off_c, 1, 62, 0
19, 268800, Note_on_c, 1, 55, 72
19, 268800, Note_on_c, 1, 58, 72
19, 268800, Note_on_c, 1, 62, 72
19, 268851, Note_off_c, 1, 55, 0
19, 268851, Note_off_c, 1, 58, 0
19, 268851, Note_off_c, 1, 62, 0
19, 268864, Note_on_c, 1, 55, 72
19, 268864, Note_on_c, 1, 58, 72
19, 268864, Note_on_c, 1, 62, 72
19, 268915, Note_off_c, 1, 55, 0
19, 268915, Note_off_c, 1, 58, 0
19, 268915, Note_off_c, 1, 62, 0
19, 268928, Note_on_c, 1, 55, 72
19, 268928, Note_on_c, 1, 58, 72
19, 268928, Note_on_c, 1, 62, 72
19, 268979, Note_off_c, 1, 55, 0
19, 268979, Note_off_c, 1, 58, 0
19, 268979, Note_off_c, 1, 62, 0
19, 268992, Note_on_c, 1, 55, 72
19, 268992, Note_on_c, 1, 58, 72
19, 268992, Note_on_c, 1, 62, 72
19, 269043, Note_off_c, 1, 55, 0
19, 269043, Note_off_c, 1, 58, 0
19, 269043, Note_off_c, 1, 62, 0
19, 269440, Note_on_c, 1, 55, 62
19, 269440, Note_on_c, 1, 58, 62
19, 269440, Note_on_c, 1, 62, 62
19, 269504, Note_off_c, 1, 55, 0
19, 269504, Note_off_c, 1, 58, 0
19, 269504, Note_off_c, 1, 62, 0
19, 269504, Note_on_c, 1, 55, 71
19, 269504, Note_on_c, 1, 58, 71
19, 269504, Note_on_c, 1, 62, 71
19, 269568, Note_off_c, 1, 55, 0
19, 269568, Note_off_c, 1, 58, 0
19, 269568, Note_off_c, 1, 62, 0
19, 269568, Note_on_c, 1, 55, 72
19, 269568, Note_on_c, 1, 58, 72
19, 269568, Note_on_c, 1, 62, 72
19, 269632, Note_off_c, 1, 55, 0
19, 269632, Note_off_c, 1, 58, 0
19, 269632, Note_off_c, 1, 62, 0
19, 269632, Note_on_c, 1, 55, 74
19, 269632, Note_on_c, 1, 58, 74
19, 269632, Note_on_c, 1, 62, 74
19, 269696, Note_off_c, 1, 55, 0
19, 269696, Note_off_c, 1, 58, 0
19, 269696, Note_off_c, 1, 62, 0
19, 269696, Note_on_c, 1, 55, 70
19, 269696, Note_on_c, 1, 58, 70
19, 269696, Note_on_c, 1, 62, 70
19, 269760, Note_off_c, 1, 55, 0
19, 269760, Note_off_c, 1, 58, 0
19, 269760, Note_off_c, 1, 62, 0
19, 270080, Note_on_c, 1, 55, 66
19, 270080, Note_on_c, 1, 58, 66
19, 270080, Note_on_c, 1, 62, 66
19, 270131, Note_off_c, 1, 55, 0
19, 270131, Note_off_c, 1, 58, 0
19, 270131, Note_off_c, 1, 62, 0
19, 270144, Note_on_c, 1, 55, 66
19, 270144, Note_on_c, 1, 58, 66
19, 270144, Note_on_c, 1, 62, 66
19, 270195, Note_off_c, 1, 55, 0
19, 270195, Note_off_c, 1, 58, 0
19, 270195, Note_off_c, 1, 62, 0
19, 270208, Note_on_c, 1, 55, 66
19, 270208, Note_on_c, 1, 58, 66
19, 270208, Note_on_c, 1, 62, 66
19, 270259, Note_off_c, 1, 55, 0
19, 270259, Note_off_c, 1, 58, 0
19, 270259, Note_off_c, 1, 62, 0
19, 270272, Note_on_c, 1, 55, 66
19, 270272, Note_on_c, 1, 58, 66
19, 270272, Note_on_c, 1, 62, 66
19, 270323, Note_off_c, 1, 55, 0
19, 270323, Note_off_c, 1, 58, 0
19, 270323, Note_off_c, 1, 62, 0
19, 270336, Note_on_c, 1, 55, 67
19, 270336, Note_on_c, 1, 58, 67
19, 270336, Note_on_c, 1, 62, 67
19, 270400, Note_off_c, 1, 55, 0
19, 270400, Note_off_c, 1, 58, 0
19, 270400, Note_off_c, 1, 62, 0
19, 270400, Note_on_c, 1, 55, 71
19, 270400, Note_on_c, 1, 58, 71
19, 270400, Note_on_c, 1, 62, 71
19, 270464, Note_off_c, 1, 55, 0
19, 270464, Note_off_c, 1, 58, 0
19, 270464, Note_off_c, 1, 62, 0
19, 270848, Note_on_c, 1, 51, 64
19, 270848, Note_on_c, 1, 56, 64
19, 270848, Note_on_c, 1, 59, 64
19, 270848, Note_on_c, 1, 64, 64
19, 270912, Note_off_c, 1, 51, 0
19, 270912, Note_off_c, 1, 56, 0
19, 270912, Note_off_c, 1, 59, 0
19, 270912, Note_off_c, 1, 64, 0
19, 270912, Note_on_c, 1, 51, 69
19, 270912, Note_on_c, 1, 56, 69
19, 270912, Note_on_c, 1, 59, 69
19, 270912, Note_on_c, 1, 64, 69
19, 270976, Note_off_c, 1, 51, 0
19, 270976, Note_off_c, 1, 56, 0
19, 270976, Note_off_c, 1, 59, 0
19, 270976, Note_off_c, 1, 64, 0
19, 270976, Note_on_c, 1, 51, 71
19, 270976, Note_on_c, 1, 56, 71
19, 270976, Note_on_c, 1, 59, 71
19, 270976, Note_on_c, 1, 64, 71
19, 271040, Note_off_c, 1, 51, 0
19, 271040, Note_off_c, 1, 56, 0
19, 271040, Note_off_c, 1, 59, 0
19, 271040, Note_off_c, 1, 64, 0
19, 271040, Note_on_c, 1, 51, 71
19, 271040, Note_on_c, 1, 56, 71
19, 271040, Note_on_c, 1, 59, 71
19, 271040, Note_on_c, 1, 64, 71
19, 271104, Note_off_c, 1, 51, 0
19, 271104, Note_off_c, 1, 56, 0
19, 271104, Note_off_c, 1, 59, 0
19, 271104, Note_off_c, 1, 64, 0
19, 271104, Note_on_c, 1, 51, 69
19, 271104, Note_on_c, 1, 56, 69
19, 271104, Note_on_c, 1, 59, 69
19, 271104, Note_on_c, 1, 64, 69
19, 271168, Note_off_c, 1, 51, 0
19, 271168, Note_off_c, 1, 56, 0
19, 271168, Note_off_c, 1, 59, 0
19, 271168, Note_off_c, 1, 64, 0
19, 271168, Note_on_c, 1, 51, 73
19, 271168, Note_on_c, 1, 56, 73
19, 271168, Note_on_c, 1, 59, 73
19, 271168, Note_on_c, 1, 64, 73
19, 271232, Note_off_c, 1, 51, 0
19, 271232, Note_off_c, 1, 56, 0
19, 271232, Note_off_c, 1, 59, 0
19, 271232, Note_off_c, 1, 64, 0
19, 271232, Note_on_c, 1, 51, 74
19, 271232, Note_on_c, 1, 56, 74
19, 271232, Note_on_c, 1, 59, 74
19, 271232, Note_on_c, 1, 64, 74
19, 271296, Note_off_c, 1, 51, 0
19, 271296, Note_off_c, 1, 56, 0
19, 271296, Note_off_c, 1, 59, 0
19, 271296, Note_off_c, 1, 64, 0
19, 271296, Note_on_c, 1, 51, 74
19, 271296, Note_on_c, 1, 56, 74
19, 271296, Note_on_c, 1, 59, 74
19, 271296, Note_on_c, 1, 64, 74
19, 271360, Note_off_c, 1, 51, 0
19, 271360, Note_off_c, 1, 56, 0
19, 271360, Note_off_c, 1, 59, 0
19, 271360, Note_off_c, 1, 64, 0
19, 271616, Note_on_c, 1, 51, 67
19, 271616, Note_on_c, 1, 56, 67
19, 271616, Note_on_c, 1, 59, 67
19, 271616, Note_on_c, 1, 64, 67
19, 271667, Note_off_c, 1, 51, 0
19, 271667, Note_off_c, 1, 56, 0
19, 271667, Note_off_c, 1, 59, 0
19, 271667, Note_off_c, 1, 64, 0
19, 271680, Note_on_c, 1, 51, 67
19, 271680, Note_on_c, 1, 56, 67
19, 271680, Note_on_c, 1, 59, 67
19, 271680, Note_on_c, 1, 64, 67
19, 271731, Note_off_c, 1, 51, 0
19, 271731, Note_off_c, 1, 56, 0
19, 271731, Note_off_c, 1, 59, 0
19, 271731, Note_off_c, 1, 64, 0
19, 271744, Note_on_c, 1, 51, 67
19, 271744, Note_on_c, 1, 56, 67
19, 271744, Note_on_c, 1, 59, 67
19, 271744, Note_on_c, 1, 64, 67
19, 271795, Note_off_c, 1, 51, 0
19, 271795, Note_off_c, 1, 56, 0
19, 271795, Note_off_c, 1, 59, 0
19, 271795, Note_off_c, 1, 64, 0
19, 271808, Note_on_c, 1, 51, 67
19, 271808, Note_on_c, 1, 56, 67
19, 271808, Note_on_c, 1, 59, 67
19, 271808, Note_on_c, 1, 64, 67
19, 271859, Note_off_c, 1, 51, 0
19, 271859, Note_off_c, 1, 56, 0
19, 271859, Note_off_c, 1, 59, 0
19, 271859, Note_off_c, 1, 64, 0
19, 271872, Note_on_c, 1, 51, 72
19, 271872, Note_on_c, 1, 56, 72
19, 271872, Note_on_c, 1, 59, 72
19, 271872, Note_on_c, 1, 64, 72
19, 271936, Note_off_c, 1, 51, 0
19, 271936, Note_off_c, 1, 56, 0
19, 271936, Note_off_c, 1, 59, 0
19, 271936, Note_off_c, 1, 64, 0
19, 271936, Note_on_c, 1, 51, 70
19, 271936, Note_on_c, 1, 56, 70
19, 271936, Note_on_c, 1, 59, 70
19, 271936, Note_on_c, 1, 64, 70
19, 272000, Note_off_c, 1, 51, 0
19, 272000, Note_off_c, 1, 56, 0
19, 272000, Note_off_c, 1, 59, 0
19, 272000, Note_off_c, 1, 64, 0
19, 272256, Note_on_c, 1, 51, 63
19, 272256, Note_on_c, 1, 56, 63
19, 272256, Note_on_c, 1, 59, 63
19, 272256, Note_on_c, 1, 64, 63
19, 272320, Note_off_c, 1, 51, 0
19, 272320, Note_off_c, 1, 56, 0
19, 272320, Note_off_c, 1, 59, 0
19, 272320, Note_off_c, 1, 64, 0
19, 272320, Note_on_c, 1, 51, 68
19, 272320, Note_on_c, 1, 56, 68
19, 272320, Note_on_c, 1, 59, 68
19, 272320, Note_on_c, 1, 64, 68
19, 272384, Note_off_c, 1, 51, 0
19, 272384, Note_off_c, 1, 56, 0
19, 272384, Note_off_c, 1, 59, 0
19, 272384, Note_off_c, 1, 64, 0
19, 272384, Note_on_c, 1, 51, 71
19, 272384, Note_on_c, 1, 56, 71
19, 272384, Note_on_c, 1, 59, 71
19, 272384, Note_on_c, 1, 64, 71
19, 272435, Note_off_c, 1, 51, 0
19, 272435, Note_off_c, 1, 56, 0
19, 272435, Note_off_c, 1, 59, 0
19, 272435, Note_off_c, 1, 64, 0
19, 272448, Note_on_c, 1, 51, 71
19, 272448, Note_on_c, 1, 56, 71
19, 272448, Note_on_c, 1, 59, 71
19, 272448, Note_on_c, 1, 64, 71
19, 272499, Note_off_c, 1, 51, 0
19, 272499, Note_off_c, 1, 56, 0
19, 272499, Note_off_c, 1, 59, 0
19, 272499, Note_off_c, 1, 64, 0
19, 272512, Note_on_c, 1, 51, 71
19, 272512, Note_on_c, 1, 56, 71
19, 272512, Note_on_c, 1, 59, 71
19, 272512, Note_on_c, 1, 64, 71
19, 272563, Note_off_c, 1, 51, 0
19, 272563, Note_off_c, 1, 56, 0
19, 272563, Note_off_c, 1, 59, 0
19, 272563, Note_off_c, 1, 64, 0
19, 272576, Note_on_c, 1, 51, 71
19, 272576, Note_on_c, 1, 56, 71
19, 272576, Note_on_c, 1, 59, 71
19, 272576, Note_on_c, 1, 64, 71
19, 272627, Note_off_c, 1, 51, 0
19, 272627, Note_off_c, 1, 56, 0
19, 272627, Note_off_c, 1, 59, 0
19, 272627, Note_off_c, 1, 64, 0
19, 272640, Note_on_c, 1, 51, 72
19, 272640, Note_on_c, 1, 56, 72
19, 272640, Note_on_c, 1, 59, 72
19, 272640, Note_on_c, 1, 64, 72
19, 272691, Note_off_c, 1, 51, 0
19, 272691, Note_off_c, 1, 56, 0
19, 272691, Note_off_c, 1, 59, 0
19, 272691, Note_off_c, 1, 64, 0
19, 272704, Note_on_c, 1, 51, 72
19, 272704, Note_on_c, 1, 56, 72
19, 272704, Note_on_c, 1, 59, 72
19, 272704, Note_on_c, 1, 64, 72
19, 272755, Note_off_c, 1, 51, 0
19, 272755, Note_off_c, 1, 56, 0
19, 272755, Note_off_c, 1, 59, 0
19, 272755, Note_off_c, 1, 64, 0
19, 272768, Note_on_c, 1, 51, 72
19, 272768, Note_on_c, 1, 56, 72
19, 272768, Note_on_c, 1, 59, 72
19, 272768, Note_on_c, 1, 64, 72
19, 272819, Note_off_c, 1, 51, 0
19, 272819, Note_off_c, 1, 56, 0
19, 272819, Note_off_c, 1, 59, 0
19, 272819, Note_off_c, 1, 64, 0
19, 272832, Note_on_c, 1, 51, 72
19, 272832, Note_on_c, 1, 56, 72
19, 272832, Note_on_c, 1, 59, 72
19, 272832, Note_on_c, 1, 64, 72
19, 272883, Note_off_c, 1, 51, 0
19, 272883, Note_off_c, 1, 56, 0
19, 272883, Note_off_c, 1, 59, 0
19, 272883, Note_off_c, 1, 64, 0
19, 272896, Note_on_c, 1, 51, 66
19, 272896, Note_on_c, 1, 56, 66
19, 272896, Note_on_c, 1, 59, 66
19, 272896, Note_on_c, 1, 64, 66
19, 272960, Note_off_c, 1, 51, 0
19, 272960, Note_off_c, 1, 56, 0
19, 272960, Note_off_c, 1, 59, 0
19, 272960, Note_off_c, 1, 64, 0
19, 272960, Note_on_c, 1, 51, 69
19, 272960, Note_on_c, 1, 56, 69
19, 272960, Note_on_c, 1, 59, 69
19, 272960, Note_on_c, 1, 64, 69
19, 273024, Note_off_c, 1, 51, 0
19, 273024, Note_off_c, 1, 56, 0
19, 273024, Note_off_c, 1, 59, 0
19, 273024, Note_off_c, 1, 64, 0
19, 273152, Note_on_c, 1, 51, 62
19, 273152, Note_on_c, 1, 56, 62
19, 273152, Note_on_c, 1, 59, 62
19, 273152, Note_on_c, 1, 64, 62
19, 273216, Note_off_c, 1, 51, 0
19, 273216, Note_off_c, 1, 56, 0
19, 273216, Note_off_c, 1, 59, 0
19, 273216, Note_off_c, 1, 64, 0
19, 273216, Note_on_c, 1, 51, 74
19, 273216, Note_on_c, 1, 56, 74
19, 273216, Note_on_c, 1, 59, 74
19, 273216, Note_on_c, 1, 64, 74
19, 273280, Note_off_c, 1, 51, 0
19, 273280, Note_off_c, 1, 56, 0
19, 273280, Note_off_c, 1, 59, 0
19, 273280, Note_off_c, 1, 64, 0
19, 273536, Note_on_c, 1, 57, 65
19, 273536, Note_on_c, 1, 60, 65
19, 273536, Note_on_c, 1, 65, 65
19, 273600, Note_off_c, 1, 57, 0
19, 273600, Note_off_c, 1, 60, 0
19, 273600, Note_off_c, 1, 65, 0
19, 273600, Note_on_c, 1, 57, 73
19, 273600, Note_on_c, 1, 60, 73
19, 273600, Note_on_c, 1, 65, 73
19, 273664, Note_off_c, 1, 57, 0
19, 273664, Note_off_c, 1, 60, 0
19, 273664, Note_off_c, 1, 65, 0
19, 273664, Note_on_c, 1, 57, 72
19, 273664, Note_on_c, 1, 60, 72
19, 273664, Note_on_c, 1, 65, 72
19, 273715, Note_off_c, 1, 57, 0
19, 273715, Note_off_c, 1, 60, 0
19, 273715, Note_off_c, 1, 65, 0
19, 273728, Note_on_c, 1, 57, 72
19, 273728, Note_on_c, 1, 60, 72
19, 273728, Note_on_c, 1, 65, 72
19, 273779, Note_off_c, 1, 57, 0
19, 273779, Note_off_c, 1, 60, 0
19, 273779, Note_off_c, 1, 65, 0
19, 273792, Note_on_c, 1, 57, 72
19, 273792, Note_on_c, 1, 60, 72
19, 273792, Note_on_c, 1, 65, 72
19, 273843, Note_off_c, 1, 57, 0
19, 273843, Note_off_c, 1, 60, 0
19, 273843, Note_off_c, 1, 65, 0
19, 273856, Note_on_c, 1, 57, 72
19, 273856, Note_on_c, 1, 60, 72
19, 273856, Note_on_c, 1, 65, 72
19, 273907, Note_off_c, 1, 57, 0
19, 273907, Note_off_c, 1, 60, 0
19, 273907, Note_off_c, 1, 65, 0
19, 274176, Note_on_c, 1, 57, 61
19, 274176, Note_on_c, 1, 60, 61
19, 274176, Note_on_c, 1, 65, 61
19, 274227, Note_off_c, 1, 57, 0
19, 274227, Note_off_c, 1, 60, 0
19, 274227, Note_off_c, 1, 65, 0
19, 274240, Note_on_c, 1, 57, 61
19, 274240, Note_on_c, 1, 60, 61
19, 274240, Note_on_c, 1, 65, 61
19, 274291, Note_off_c, 1, 57, 0
19, 274291, Note_off_c, 1, 60, 0
19, 274291, Note_off_c, 1, 65, 0
19, 274304, Note_on_c, 1, 57, 61
19, 274304, Note_on_c, 1, 60, 61
19, 274304, Note_on_c, 1, 65, 61
19, 274355, Note_off_c, 1, 57, 0
19, 274355, Note_off_c, 1, 60, 0
19, 274355, Note_off_c, 1, 65, 0
19, 274368, Note_on_c, 1, 57, 61
19, 274368, Note_on_c, 1, 60, 61
19, 274368, Note_on_c, 1, 65, 61
19, 274419, Note_off_c, 1, 57, 0
19, 274419, Note_off_c, 1, 60, 0
19, 274419, Note_off_c, 1, 65, 0
19, 274432, Note_on_c, 1, 57, 67
19, 274432, Note_on_c, 1, 60, 67
19, 274432, Note_on_c, 1, 65, 67
19, 274496, Note_off_c, 1, 57, 0
19, 274496, Note_off_c, 1, 60, 0
19, 274496, Note_off_c, 1, 65, 0
19, 274496, Note_on_c, 1, 57, 78
19, 274496, Note_on_c, 1, 60, 78
19, 274496, Note_on_c, 1, 65, 78
19, 274560, Note_off_c, 1, 57, 0
19, 274560, Note_off_c, 1, 60, 0
19, 274560, Note_off_c, 1, 65, 0
19, 274944, Note_on_c, 1, 57, 65
19, 274944, Note_on_c, 1, 61, 65
19, 274944, Note_on_c, 1, 66, 65
19, 275008, Note_off_c, 1, 57, 0
19, 275008, Note_off_c, 1, 61, 0
19, 275008, Note_off_c, 1, 66, 0
19, 275008, Note_on_c, 1, 57, 69
19, 275008, Note_on_c, 1, 61, 69
19, 275008, Note_on_c, 1, 66, 69
19, 275072, Note_off_c, 1, 57, 0
19, 275072, Note_off_c, 1, 61, 0
19, 275072, Note_off_c, 1, 66, 0
19, 275072, Note_on_c, 1, 57, 74
19, 275072, Note_on_c, 1, 61, 74
19, 275072, Note_on_c, 1, 66, 74
19, 275136, Note_off_c, 1, 57, 0
19, 275136, Note_off_c, 1, 61, 0
19, 275136, Note_off_c, 1, 66, 0
19, 275328, Note_on_c, 1, 57, 59
19, 275328, Note_on_c, 1, 61, 59
19, 275328, Note_on_c, 1, 66, 59
19, 275392, Note_off_c, 1, 57, 0
19, 275392, Note_off_c, 1, 61, 0
19, 275392, Note_off_c, 1, 66, 0
19, 275392, Note_on_c, 1, 57, 68
19, 275392, Note_on_c, 1, 61, 68
19, 275392, Note_on_c, 1, 66, 68
19, 275456, Note_off_c, 1, 57, 0
19, 275456, Note_off_c, 1, 61, 0
19, 275456, Note_off_c, 1, 66, 0
19, 275456, Note_on_c, 1, 57, 67
19, 275456, Note_on_c, 1, 61, 67
19, 275456, Note_on_c, 1, 66, 67
19, 275507, Note_off_c, 1, 57, 0
19, 275507, Note_off_c, 1, 61, 0
19, 275507, Note_off_c, 1, 66, 0
19, 275520, Note_on_c, 1, 57, 67
19, 275520, Note_on_c, 1, 61, 67
19, 275520, Note_on_c, 1, 66, 67
19, 275571, Note_off_c, 1, 57, 0
19, 275571, Note_off_c, 1, 61, 0
19, 275571, Note_off_c, 1, 66, 0
19, 275584, Note_on_c, 1, 57, 67
19, 275584, Note_on_c, 1, 61, 67
19, 275584, Note_on_c, 1, 66, 67
19, 275635, Note_off_c, 1, 57, 0
19, 275635, Note_off_c, 1, 61, 0
19, 275635, Note_off_c, 1, 66, 0
19, 275648, Note_on_c, 1, 57, 67
19, 275648, Note_on_c, 1, 61, 67
19, 275648, Note_on_c, 1, 66, 67
19, 275699, Note_off_c, 1, 57, 0
19, 275699, Note_off_c, 1, 61, 0
19, 275699, Note_off_c, 1, 66, 0
19, 275840, Note_on_c, 1, 58, 64
19, 275840, Note_on_c, 1, 61, 64
19, 275840, Note_on_c, 1, 65, 64
19, 275904, Note_off_c, 1, 58, 0
19, 275904, Note_off_c, 1, 61, 0
19, 275904, Note_off_c, 1, 65, 0
19, 275904, Note_on_c, 1, 58, 71
19, 275904, Note_on_c, 1, 61, 71
19, 275904, Note_on_c, 1, 65, 71
19, 275968, Note_off_c, 1, 58, 0
19, 275968, Note_off_c, 1, 61, 0
19, 275968, Note_off_c, 1, 65, 0
19, 275968, Note_on_c, 1, 58, 72
19, 275968, Note_on_c, 1, 61, 72
19, 275968, Note_on_c, 1, 65, 72
19, 276019, Note_off_c, 1, 58, 0
19, 276019, Note_off_c, 1, 61, 0
19, 276019, Note_off_c, 1, 65, 0
19, 276032, Note_on_c, 1, 58, 72
19, 276032, Note_on_c, 1, 61, 72
19, 276032, Note_on_c, 1, 65, 72
19, 276083, Note_off_c, 1, 58, 0
19, 276083, Note_off_c, 1, 61, 0
19, 276083, Note_off_c, 1, 65, 0
19, 276096, Note_on_c, 1, 58, 72
19, 276096, Note_on_c, 1, 61, 72
19, 276096, Note_on_c, 1, 65, 72
19, 276147, Note_off_c, 1, 58, 0
19, 276147, Note_off_c, 1, 61, 0
19, 276147, Note_off_c, 1, 65, 0
19, 276160, Note_on_c, 1, 58, 72
19, 276160, Note_on_c, 1, 61, 72
19, 276160, Note_on_c, 1, 65, 72
19, 276211, Note_off_c, 1, 58, 0
19, 276211, Note_off_c, 1, 61, 0
19, 276211, Note_off_c, 1, 65, 0
19, 276224, Note_on_c, 1, 58, 73
19, 276224, Note_on_c, 1, 61, 73
19, 276224, Note_on_c, 1, 65, 73
19, 276288, Note_off_c, 1, 58, 0
19, 276288, Note_off_c, 1, 61, 0
19, 276288, Note_off_c, 1, 65, 0
19, 276288, Note_on_c, 1, 58, 68
19, 276288, Note_on_c, 1, 61, 68
19, 276288, Note_on_c, 1, 65, 68
19, 276352, Note_off_c, 1, 58, 0
19, 276352, Note_off_c, 1, 61, 0
19, 276352, Note_off_c, 1, 65, 0
19, 276736, Note_on_c, 1, 58, 64
19, 276736, Note_on_c, 1, 61, 64
19, 276736, Note_on_c, 1, 65, 64
19, 276787, Note_off_c, 1, 58, 0
19, 276787, Note_off_c, 1, 61, 0
19, 276787, Note_off_c, 1, 65, 0
19, 276800, Note_on_c, 1, 58, 64
19, 276800, Note_on_c, 1, 61, 64
19, 276800, Note_on_c, 1, 65, 64
19, 276851, Note_off_c, 1, 58, 0
19, 276851, Note_off_c, 1, 61, 0
19, 276851, Note_off_c, 1, 65, 0
19, 276864, Note_on_c, 1, 58, 64
19, 276864, Note_on_c, 1, 61, 64
19, 276864, Note_on_c, 1, 65, 64
19, 276915, Note_off_c, 1, 58, 0
19, 276915, Note_off_c, 1, 61, 0
19, 276915, Note_off_c, 1, 65, 0
19, 276928, Note_on_c, 1, 58, 64
19, 276928, Note_on_c, 1, 61, 64
19, 276928, Note_on_c, 1, 65, 64
19, 276979, Note_off_c, 1, 58, 0
19, 276979, Note_off_c, 1, 61, 0
19, 276979, Note_off_c, 1, 65, 0
19, 276992, Note_on_c, 1, 58, 73
19, 276992, Note_on_c, 1, 61, 73
19, 276992, Note_on_c, 1, 65, 73
19, 277056, Note_off_c, 1, 58, 0
19, 277056, Note_off_c, 1, 61, 0
19, 277056, Note_off_c, 1, 65, 0
19, 277056, Note_on_c, 1, 58, 70
19, 277056, Note_on_c, 1, 61, 70
19, 277056, Note_on_c, 1, 65, 70
19, 277120, Note_off_c, 1, 58, 0
19, 277120, Note_off_c, 1, 61, 0
19, 277120, Note_off_c, 1, 65, 0
19, 277440, Note_on_c, 1, 57, 65
19, 277440, Note_on_c, 1, 60, 65
19, 277440, Note_on_c, 1, 64, 65
19, 277504, Note_off_c, 1, 57, 0
19, 277504, Note_off_c, 1, 60, 0
19, 277504, Note_off_c, 1, 64, 0
19, 277504, Note_on_c, 1, 57, 67
19, 277504, Note_on_c, 1, 60, 67
19, 277504, Note_on_c, 1, 64, 67
19, 277555, Note_off_c, 1, 57, 0
19, 277555, Note_off_c, 1, 60, 0
19, 277555, Note_off_c, 1, 64, 0
19, 277568, Note_on_c, 1, 57, 67
19, 277568, Note_on_c, 1, 60, 67
19, 277568, Note_on_c, 1, 64, 67
19, 277619, Note_off_c, 1, 57, 0
19, 277619, Note_off_c, 1, 60, 0
19, 277619, Note_off_c, 1, 64, 0
19, 277632, Note_on_c, 1, 57, 67
19, 277632, Note_on_c, 1, 60, 67
19, 277632, Note_on_c, 1, 64, 67
19, 277683, Note_off_c, 1, 57, 0
19, 277683, Note_off_c, 1, 60, 0
19, 277683, Note_off_c, 1, 64, 0
19, 277696, Note_on_c, 1, 57, 67
19, 277696, Note_on_c, 1, 60, 67
19, 277696, Note_on_c, 1, 64, 67
19, 277747, Note_off_c, 1, 57, 0
19, 277747, Note_off_c, 1, 60, 0
19, 277747, Note_off_c, 1, 64, 0
19, 277760, Note_on_c, 1, 57, 70
19, 277760, Note_on_c, 1, 60, 70
19, 277760, Note_on_c, 1, 64, 70
19, 277811, Note_off_c, 1, 57, 0
19, 277811, Note_off_c, 1, 60, 0
19, 277811, Note_off_c, 1, 64, 0
19, 277824, Note_on_c, 1, 57, 70
19, 277824, Note_on_c, 1, 60, 70
19, 277824, Note_on_c, 1, 64, 70
19, 277875, Note_off_c, 1, 57, 0
19, 277875, Note_off_c, 1, 60, 0
19, 277875, Note_off_c, 1, 64, 0
19, 277888, Note_on_c, 1, 57, 70
19, 277888, Note_on_c, 1, 60, 70
19, 277888, Note_on_c, 1, 64, 70
19, 277939, Note_off_c, 1, 57, 0
19, 277939, Note_off_c, 1, 60, 0
19, 277939, Note_off_c, 1, 64, 0
19, 277952, Note_on_c, 1, 57, 70
19, 277952, Note_on_c, 1, 60, 70
19, 277952, Note_on_c, 1, 64, 70
19, 278003, Note_off_c, 1, 57, 0
19, 278003, Note_off_c, 1, 60, 0
19, 278003, Note_off_c, 1, 64, 0
19, 278272, Note_on_c, 1, 57, 65
19, 278272, Note_on_c, 1, 60, 65
19, 278272, Note_on_c, 1, 64, 65
19, 278323, Note_off_c, 1, 57, 0
19, 278323, Note_off_c, 1, 60, 0
19, 278323, Note_off_c, 1, 64, 0
19, 278336, Note_on_c, 1, 57, 65
19, 278336, Note_on_c, 1, 60, 65
19, 278336, Note_on_c, 1, 64, 65
19, 278387, Note_off_c, 1, 57, 0
19, 278387, Note_off_c, 1, 60, 0
19, 278387, Note_off_c, 1, 64, 0
19, 278400, Note_on_c, 1, 57, 65
19, 278400, Note_on_c, 1, 60, 65
19, 278400, Note_on_c, 1, 64, 65
19, 278451, Note_off_c, 1, 57, 0
19, 278451, Note_off_c, 1, 60, 0
19, 278451, Note_off_c, 1, 64, 0
19, 278464, Note_on_c, 1, 57, 65
19, 278464, Note_on_c, 1, 60, 65
19, 278464, Note_on_c, 1, 64, 65
19, 278515, Note_off_c, 1, 57, 0
19, 278515, Note_off_c, 1, 60, 0
19, 278515, Note_off_c, 1, 64, 0
19, 278528, Note_on_c, 1, 57, 72
19, 278528, Note_on_c, 1, 60, 72
19, 278528, Note_on_c, 1, 64, 72
19, 278579, Note_off_c, 1, 57, 0
19, 278579, Note_off_c, 1, 60, 0
19, 278579, Note_off_c, 1, 64, 0
19, 278592, Note_on_c, 1, 57, 72
19, 278592, Note_on_c, 1, 60, 72
19, 278592, Note_on_c, 1, 64, 72
19, 278643, Note_off_c, 1, 57, 0
19, 278643, Note_off_c, 1, 60, 0
19, 278643, Note_off_c, 1, 64, 0
19, 278656, Note_on_c, 1, 57, 72
19, 278656, Note_on_c, 1, 60, 72
19, 278656, Note_on_c, 1, 64, 72
19, 278707, Note_off_c, 1, 57, 0
19, 278707, Note_off_c, 1, 60, 0
19, 278707, Note_off_c, 1, 64, 0
19, 278720, Note_on_c, 1, 57, 72
19, 278720, Note_on_c, 1, 60, 72
19, 278720, Note_on_c, 1, 64, 72
19, 278771, Note_off_c, 1, 57, 0
19, 278771, Note_off_c, 1, 60, 0
19, 278771, Note_off_c, 1, 64, 0
19, 279040, Note_on_c, 1, 52, 54
19, 279040, Note_on_c, 1, 56, 54
19, 279040, Note_on_c, 1, 61, 54
19, 279296, Note_off_c, 1, 52, 0
19, 279296, Note_off_c, 1, 56, 0
19, 279296, Note_off_c, 1, 61, 0
19, 279296, Note_on_c, 1, 52, 65
19, 279296, Note_on_c, 1, 56, 65
19, 279296, Note_on_c, 1, 61, 65
19, 279552, Note_off_c, 1, 52, 0
19, 279552, Note_off_c, 1, 56, 0
19, 279552, Note_off_c, 1, 61, 0
19, 279552, Note_on_c, 1, 52, 61
19, 279552, Note_on_c, 1, 56, 61
19, 279552, Note_on_c, 1, 61, 61
19, 279808, Note_off_c, 1, 52, 0
19, 279808, Note_off_c, 1, 56, 0
19, 279808, Note_off_c, 1, 61, 0
19, 279808, Note_on_c, 1, 52, 61
19, 279808, Note_on_c, 1, 56, 61
19, 279808, Note_on_c, 1, 61, 61
19, 280064, Note_off_c, 1, 52, 0
19, 280064, Note_off_c, 1, 56, 0
19, 280064, Note_off_c, 1, 61, 0
19, 280064, Note_on_c, 1, 53, 55
19, 280064, Note_on_c, 1, 56, 55
19, 280064, Note_on_c, 1, 60, 55
19, 280320, Note_off_c, 1, 53, 0
19, 280320, Note_off_c, 1, 56, 0
19, 280320, Note_off_c, 1, 60, 0
19, 280320, Note_on_c, 1, 53, 59
19, 280320, Note_on_c, 1, 56, 59
19, 280320, Note_on_c, 1, 60, 59
19, 280576, Note_off_c, 1, 53, 0
19, 280576, Note_off_c, 1, 56, 0
19, 280576, Note_off_c, 1, 60, 0
19, 280576, Note_on_c, 1, 53, 56
19, 280576, Note_on_c, 1, 56, 56
19, 280576, Note_on_c, 1, 60, 56
19, 280832, Note_off_c, 1, 53, 0
19, 280832, Note_off_c, 1, 56, 0
19, 280832, Note_off_c, 1, 60, 0
19, 280832, Note_on_c, 1, 53, 64
19, 280832, Note_on_c, 1, 56, 64
19, 280832, Note_on_c, 1, 60, 64
19, 281088, Note_off_c, 1, 53, 0
19, 281088, Note_off_c, 1, 56, 0
19, 281088, Note_off_c, 1, 60, 0
19, 281088, Note_on_c, 1, 53, 62
19, 281088, Note_on_c, 1, 56, 62
19, 281088, Note_on_c, 1, 60, 62
19, 281344, Note_off_c, 1, 53, 0
19, 281344, Note_off_c, 1, 56, 0
19, 281344, Note_off_c, 1, 60, 0
19, 281344, Note_on_c, 1, 53, 62
19, 281344, Note_on_c, 1, 56, 62
19, 281344, Note_on_c, 1, 60, 62
19, 281600, Note_off_c, 1, 53, 0
19, 281600, Note_off_c, 1, 56, 0
19, 281600, Note_off_c, 1, 60, 0
19, 281600, Note_on_c, 1, 54, 58
19, 281600, Note_on_c, 1, 57, 58
19, 281600, Note_on_c, 1, 60, 58
19, 281856, Note_off_c, 1, 54, 0
19, 281856, Note_off_c, 1, 57, 0
19, 281856, Note_off_c, 1, 60, 0
19, 281856, Note_on_c, 1, 54, 63
19, 281856, Note_on_c, 1, 57, 63
19, 281856, Note_on_c, 1, 60, 63
19, 282112, Note_off_c, 1, 54, 0
19, 282112, Note_off_c, 1, 57, 0
19, 282112, Note_off_c, 1, 60, 0
19, 282112, Note_on_c, 1, 54, 64
19, 282112, Note_on_c, 1, 57, 64
19, 282112, Note_on_c, 1, 60, 64
19, 282368, Note_off_c, 1, 54, 0
19, 282368, Note_off_c, 1, 57, 0
19, 282368, Note_off_c, 1, 60, 0
19, 282368, Note_on_c, 1, 54, 63
19, 282368, Note_on_c, 1, 57, 63
19, 282368, Note_on_c, 1, 60, 63
19, 282624, Note_off_c, 1, 54, 0
19, 282624, Note_off_c, 1, 57, 0
19, 282624, Note_off_c, 1, 60, 0
19, 282624, Note_on_c, 1, 54, 58
19, 282624, Note_on_c, 1, 57, 58
19, 282624, Note_on_c, 1, 60, 58
19, 282880, Note_off_c, 1, 54, 0
19, 282880, Note_off_c, 1, 57, 0
19, 282880, Note_off_c, 1, 60, 0
19, 282880, Note_on_c, 1, 54, 58
19, 282880, Note_on_c, 1, 57, 58
19, 282880, Note_on_c, 1, 60, 58
19, 283136, Note_off_c, 1, 54, 0
19, 283136, Note_off_c, 1, 57, 0
19, 283136, Note_off_c, 1, 60, 0
19, 283136, Note_on_c, 1, 54, 62
19, 283136, Note_on_c, 1, 57, 62
19, 283136, Note_on_c, 1, 60, 62
19, 283392, Note_off_c, 1, 54, 0
19, 283392, Note_off_c, 1, 57, 0
19, 283392, Note_off_c, 1, 60, 0
19, 283392, Note_on_c, 1, 54, 58
19, 283392, Note_on_c, 1, 57, 58
19, 283392, Note_on_c, 1, 60, 58
19, 283648, Note_off_c, 1, 54, 0
19, 283648, Note_off_c, 1, 57, 0
19, 283648, Note_off_c, 1, 60, 0
19, 283648, Note_on_c, 1, 54, 63
19, 283648, Note_on_c, 1, 57, 63
19, 283648, Note_on_c, 1, 60, 63
19, 283904, Note_off_c, 1, 54, 0
19, 283904, Note_off_c, 1, 57, 0
19, 283904, Note_off_c, 1, 60, 0
19, 283904, Note_on_c, 1, 56, 65
19, 283904, Note_on_c, 1, 59, 65
19, 283904, Note_on_c, 1, 62, 65
19, 284160, Note_off_c, 1, 56, 0
19, 284160, Note_off_c, 1, 59, 0
19, 284160, Note_off_c, 1, 62, 0
19, 284160, Note_on_c, 1, 56, 61
19, 284160, Note_on_c, 1, 59, 61
19, 284160, Note_on_c, 1, 62, 61
19, 284416, Note_off_c, 1, 56, 0
19, 284416, Note_off_c, 1, 59, 0
19, 284416, Note_off_c, 1, 62, 0
19, 284416, Note_on_c, 1, 56, 59
19, 284416, Note_on_c, 1, 59, 59
19, 284416, Note_on_c, 1, 62, 59
19, 284672, Note_off_c, 1, 56, 0
19, 284672, Note_off_c, 1, 59, 0
19, 284672, Note_off_c, 1, 62, 0
19, 284672, Note_on_c, 1, 56, 63
19, 284672, Note_on_c, 1, 59, 63
19, 284672, Note_on_c, 1, 62, 63
19, 284928, Note_off_c, 1, 56, 0
19, 284928, Note_off_c, 1, 59, 0
19, 284928, Note_off_c, 1, 62, 0
19, 284928, Note_on_c, 1, 56, 58
19, 284928, Note_on_c, 1, 59, 58
19, 284928, Note_on_c, 1, 62, 58
19, 285184, Note_off_c, 1, 56, 0
19, 285184, Note_off_c, 1, 59, 0
19, 285184, Note_off_c, 1, 62, 0
19, 285184, Note_on_c, 1, 54, 62
19, 285184, Note_on_c, 1, 57, 62
19, 285184, Note_on_c, 1, 62, 62
19, 285440, Note_off_c, 1, 54, 0
19, 285440, Note_off_c, 1, 57, 0
19, 285440, Note_off_c, 1, 62, 0
19, 285440, Note_on_c, 1, 54, 59
19, 285440, Note_on_c, 1, 57, 59
19, 285440, Note_on_c, 1, 62, 59
19, 285696, Note_off_c, 1, 54, 0
19, 285696, Note_off_c, 1, 57, 0
19, 285696, Note_off_c, 1, 62, 0
19, 285696, Note_on_c, 1, 54, 60
19, 285696, Note_on_c, 1, 57, 60
19, 285696, Note_on_c, 1, 62, 60
19, 285952, Note_off_c, 1, 54, 0
19, 285952, Note_off_c, 1, 57, 0
19, 285952, Note_off_c, 1, 62, 0
19, 285952, Note_on_c, 1, 56, 60
19, 285952, Note_on_c, 1, 59, 60
19, 285952, Note_on_c, 1, 62, 60
19, 286208, Note_off_c, 1, 56, 0
19, 286208, Note_off_c, 1, 59, 0
19, 286208, Note_off_c, 1, 62, 0
19, 286208, Note_on_c, 1, 56, 61
19, 286208, Note_on_c, 1, 59, 61
19, 286208, Note_on_c, 1, 62, 61
19, 286464, Note_off_c, 1, 56, 0
19, 286464, Note_off_c, 1, 59, 0
19, 286464, Note_off_c, 1, 62, 0
19, 286464, Note_on_c, 1, 56, 62
19, 286464, Note_on_c, 1, 59, 62
19, 286464, Note_on_c, 1, 62, 62
19, 286720, Note_off_c, 1, 56, 0
19, 286720, Note_off_c, 1, 59, 0
19, 286720, Note_off_c, 1, 62, 0
19, 286720, Note_on_c, 1, 56, 60
19, 286720, Note_on_c, 1, 59, 60
19, 286720, Note_on_c, 1, 62, 60
19, 286976, Note_off_c, 1, 56, 0
19, 286976, Note_off_c, 1, 59, 0
19, 286976, Note_off_c, 1, 62, 0
19, 286976, Note_on_c, 1, 54, 66
19, 286976, Note_on_c, 1, 59, 66
19, 286976, Note_on_c, 1, 62, 66
19, 287232, Note_off_c, 1, 54, 0
19, 287232, Note_off_c, 1, 59, 0
19, 287232, Note_off_c, 1, 62, 0
19, 287232, Note_on_c, 1, 54, 52
19, 287232, Note_on_c, 1, 59, 52
19, 287232, Note_on_c, 1, 62, 52
19, 287488, Note_off_c, 1, 54, 0
19, 287488, Note_off_c, 1, 59, 0
19, 287488, Note_off_c, 1, 62, 0
19, 287488, Note_on_c, 1, 54, 61
19, 287488, Note_on_c, 1, 59, 61
19, 287488, Note_on_c, 1, 62, 61
19, 287744, Note_off_c, 1, 54, 0
19, 287744, Note_off_c, 1, 59, 0
19, 287744, Note_off_c, 1, 62, 0
19, 287744, Note_on_c, 1, 54, 60
19, 287744, Note_on_c, 1, 59, 60
19, 287744, Note_on_c, 1, 62, 60
19, 288000, Note_off_c, 1, 54, 0
19, 288000, Note_off_c, 1, 59, 0
19, 288000, Note_off_c, 1, 62, 0
19, 288000, Note_on_c, 1, 54, 64
19, 288000, Note_on_c, 1, 59, 64
19, 288000, Note_on_c, 1, 62, 64
19, 288256, Note_off_c, 1, 54, 0
19, 288256, Note_off_c, 1, 59, 0
19, 288256, Note_off_c, 1, 62, 0
19, 288256, Note_on_c, 1, 54, 59
19, 288256, Note_on_c, 1, 57, 59
19, 288256, Note_on_c, 1, 62, 59
19, 288512, Note_off_c, 1, 54, 0
19, 288512, Note_off_c, 1, 57, 0
19, 288512, Note_off_c, 1, 62, 0
19, 288512, Note_on_c, 1, 54, 61
19, 288512, Note_on_c, 1, 57, 61
19, 288512, Note_on_c, 1, 62, 61
19, 288768, Note_off_c, 1, 54, 0
19, 288768, Note_off_c, 1, 57, 0
19, 288768, Note_off_c, 1, 62, 0
19, 288768, Note_on_c, 1, 54, 64
19, 288768, Note_on_c, 1, 57, 64
19, 288768, Note_on_c, 1, 62, 64
19, 289024, Note_off_c, 1, 54, 0
19, 289024, Note_off_c, 1, 57, 0
19, 289024, Note_off_c, 1, 62, 0
19, 289024, Note_on_c, 1, 56, 62
19, 289024, Note_on_c, 1, 59, 62
19, 289024, Note_on_c, 1, 62, 62
19, 289280, Note_off_c, 1, 56, 0
19, 289280, Note_off_c, 1, 59, 0
19, 289280, Note_off_c, 1, 62, 0
19, 289280, Note_on_c, 1, 56, 66
19, 289280, Note_on_c, 1, 59, 66
19, 289280, Note_on_c, 1, 62, 66
19, 289536, Note_off_c, 1, 56, 0
19, 289536, Note_off_c, 1, 59, 0
19, 289536, Note_off_c, 1, 62, 0
19, 289536, Note_on_c, 1, 56, 66
19, 289536, Note_on_c, 1, 59, 66
19, 289536, Note_on_c, 1, 62, 66
19, 289792, Note_off_c, 1, 56, 0
19, 289792, Note_off_c, 1, 59, 0
19, 289792, Note_off_c, 1, 62, 0
19, 289792, Note_on_c, 1, 56, 58
19, 289792, Note_on_c, 1, 59, 58
19, 289792, Note_on_c, 1, 62, 58
19, 290048, Note_off_c, 1, 56, 0
19, 290048, Note_off_c, 1, 59, 0
19, 290048, Note_off_c, 1, 62, 0
19, 290048, Note_on_c, 1, 56, 60
19, 290048, Note_on_c, 1, 59, 60
19, 290048, Note_on_c, 1, 62, 60
19, 290304, Note_off_c, 1, 56, 0
19, 290304, Note_off_c, 1, 59, 0
19, 290304, Note_off_c, 1, 62, 0
19, 290304, Note_on_c, 1, 54, 56
19, 290304, Note_on_c, 1, 57, 56
19, 290304, Note_on_c, 1, 62, 56
19, 290560, Note_off_c, 1, 54, 0
19, 290560, Note_off_c, 1, 57, 0
19, 290560, Note_off_c, 1, 62, 0
19, 290560, Note_on_c, 1, 56, 57
19, 290560, Note_on_c, 1, 59, 57
19, 290560, Note_on_c, 1, 62, 57
19, 290816, Note_off_c, 1, 56, 0
19, 290816, Note_off_c, 1, 59, 0
19, 290816, Note_off_c, 1, 62, 0
19, 290816, Note_on_c, 1, 56, 56
19, 290816, Note_on_c, 1, 59, 56
19, 290816, Note_on_c, 1, 62, 56
19, 291072, Note_off_c, 1, 56, 0
19, 291072, Note_off_c, 1, 59, 0
19, 291072, Note_off_c, 1, 62, 0
19, 291072, Note_on_c, 1, 53, 61
19, 291072, Note_on_c, 1, 57, 61
19, 291072, Note_on_c, 1, 62, 61
19, 291328, Note_off_c, 1, 53, 0
19, 291328, Note_off_c, 1, 57, 0
19, 291328, Note_off_c, 1, 62, 0
19, 291328, Note_on_c, 1, 53, 58
19, 291328, Note_on_c, 1, 57, 58
19, 291328, Note_on_c, 1, 62, 58
19, 291584, Note_off_c, 1, 53, 0
19, 291584, Note_off_c, 1, 57, 0
19, 291584, Note_off_c, 1, 62, 0
19, 291584, Note_on_c, 1, 53, 59
19, 291584, Note_on_c, 1, 57, 59
19, 291584, Note_on_c, 1, 62, 59
19, 291840, Note_off_c, 1, 53, 0
19, 291840, Note_off_c, 1, 57, 0
19, 291840, Note_off_c, 1, 62, 0
19, 291840, Note_on_c, 1, 53, 55
19, 291840, Note_on_c, 1, 57, 55
19, 291840, Note_on_c, 1, 62, 55
19, 292096, Note_off_c, 1, 53, 0
19, 292096, Note_off_c, 1, 57, 0
19, 292096, Note_off_c, 1, 62, 0
19, 292096, Note_on_c, 1, 53, 62
19, 292096, Note_on_c, 1, 57, 62
19, 292096, Note_on_c, 1, 62, 62
19, 292352, Note_off_c, 1, 53, 0
19, 292352, Note_off_c, 1, 57, 0
19, 292352, Note_off_c, 1, 62, 0
19, 292352, Note_on_c, 1, 53, 67
19, 292352, Note_on_c, 1, 57, 67
19, 292352, Note_on_c, 1, 62, 67
19, 292608, Note_off_c, 1, 53, 0
19, 292608, Note_off_c, 1, 57, 0
19, 292608, Note_off_c, 1, 62, 0
19, 292608, Note_on_c, 1, 53, 57
19, 292608, Note_on_c, 1, 57, 57
19, 292608, Note_on_c, 1, 62, 57
19, 292864, Note_off_c, 1, 53, 0
19, 292864, Note_off_c, 1, 57, 0
19, 292864, Note_off_c, 1, 62, 0
19, 292864, Note_on_c, 1, 53, 61
19, 292864, Note_on_c, 1, 57, 61
19, 292864, Note_on_c, 1, 62, 61
19, 293120, Note_off_c, 1, 53, 0
19, 293120, Note_off_c, 1, 57, 0
19, 293120, Note_off_c, 1, 62, 0
19, 293120, Note_on_c, 1, 53, 62
19, 293120, Note_on_c, 1, 57, 62
19, 293120, Note_on_c, 1, 62, 62
19, 293376, Note_off_c, 1, 53, 0
19, 293376, Note_off_c, 1, 57, 0
19, 293376, Note_off_c, 1, 62, 0
19, 293376, Note_on_c, 1, 53, 62
19, 293376, Note_on_c, 1, 57, 62
19, 293376, Note_on_c, 1, 62, 62
19, 293632, Note_off_c, 1, 53, 0
19, 293632, Note_off_c, 1, 57, 0
19, 293632, Note_off_c, 1, 62, 0
19, 293632, Note_on_c, 1, 53, 63
19, 293632, Note_on_c, 1, 57, 63
19, 293632, Note_on_c, 1, 62, 63
19, 293888, Note_off_c, 1, 53, 0
19, 293888, Note_off_c, 1, 57, 0
19, 293888, Note_off_c, 1, 62, 0
19, 293888, Note_on_c, 1, 56, 58
19, 293888, Note_on_c, 1, 59, 58
19, 293888, Note_on_c, 1, 62, 58
19, 294144, Note_off_c, 1, 56, 0
19, 294144, Note_off_c, 1, 59, 0
19, 294144, Note_off_c, 1, 62, 0
19, 294144, Note_on_c, 1, 56, 57
19, 294144, Note_on_c, 1, 59, 57
19, 294144, Note_on_c, 1, 62, 57
19, 294400, Note_off_c, 1, 56, 0
19, 294400, Note_off_c, 1, 59, 0
19, 294400, Note_off_c, 1, 62, 0
19, 294400, Note_on_c, 1, 56, 62
19, 294400, Note_on_c, 1, 59, 62
19, 294400, Note_on_c, 1, 62, 62
19, 294656, Note_off_c, 1, 56, 0
19, 294656, Note_off_c, 1, 59, 0
19, 294656, Note_off_c, 1, 62, 0
19, 294656, Note_on_c, 1, 56, 62
19, 294656, Note_on_c, 1, 59, 62
19, 294656, Note_on_c, 1, 62, 62
19, 294912, Note_off_c, 1, 56, 0
19, 294912, Note_off_c, 1, 59, 0
19, 294912, Note_off_c, 1, 62, 0
19, 294912, Note_on_c, 1, 56, 58
19, 294912, Note_on_c, 1, 59, 58
19, 294912, Note_on_c, 1, 62, 58
19, 295168, Note_off_c, 1, 56, 0
19, 295168, Note_off_c, 1, 59, 0
19, 295168, Note_off_c, 1, 62, 0
19, 295168, Note_on_c, 1, 56, 63
19, 295168, Note_on_c, 1, 59, 63
19, 295168, Note_on_c, 1, 62, 63
19, 295424, Note_off_c, 1, 56, 0
19, 295424, Note_off_c, 1, 59, 0
19, 295424, Note_off_c, 1, 62, 0
19, 295424, Note_on_c, 1, 56, 61
19, 295424, Note_on_c, 1, 59, 61
19, 295424, Note_on_c, 1, 62, 61
19, 295680, Note_off_c, 1, 56, 0
19, 295680, Note_off_c, 1, 59, 0
19, 295680, Note_off_c, 1, 62, 0
19, 295680, Note_on_c, 1, 56, 64
19, 295680, Note_on_c, 1, 59, 64
19, 295680, Note_on_c, 1, 62, 64
19, 295936, Note_off_c, 1, 56, 0
19, 295936, Note_off_c, 1, 59, 0
19, 295936, Note_off_c, 1, 62, 0
19, 295936, Note_on_c, 1, 56, 65
19, 295936, Note_on_c, 1, 59, 65
19, 295936, Note_on_c, 1, 62, 65
19, 296192, Note_off_c, 1, 56, 0
19, 296192, Note_off_c, 1, 59, 0
19, 296192, Note_off_c, 1, 62, 0
19, 296192, Note_on_c, 1, 56, 59
19, 296192, Note_on_c, 1, 59, 59
19, 296192, Note_on_c, 1, 62, 59
19, 296448, Note_off_c, 1, 56, 0
19, 296448, Note_off_c, 1, 59, 0
19, 296448, Note_off_c, 1, 62, 0
19, 296448, Note_on_c, 1, 53, 59
19, 296448, Note_on_c, 1, 57, 59
19, 296448, Note_on_c, 1, 62, 59
19, 296704, Note_off_c, 1, 53, 0
19, 296704, Note_off_c, 1, 57, 0
19, 296704, Note_off_c, 1, 62, 0
19, 296704, Note_on_c, 1, 53, 64
19, 296704, Note_on_c, 1, 57, 64
19, 296704, Note_on_c, 1, 62, 64
19, 296960, Note_off_c, 1, 53, 0
19, 296960, Note_off_c, 1, 57, 0
19, 296960, Note_off_c, 1, 62, 0
19, 296960, Note_on_c, 1, 53, 60
19, 296960, Note_on_c, 1, 57, 60
19, 296960, Note_on_c, 1, 62, 60
19, 297216, Note_off_c, 1, 53, 0
19, 297216, Note_off_c, 1, 57, 0
19, 297216, Note_off_c, 1, 62, 0
19, 297216, Note_on_c, 1, 53, 60
19, 297216, Note_on_c, 1, 57, 60
19, 297216, Note_on_c, 1, 62, 60
19, 297472, Note_off_c, 1, 53, 0
19, 297472, Note_off_c, 1, 57, 0
19, 297472, Note_off_c, 1, 62, 0
19, 297472, Note_on_c, 1, 53, 60
19, 297472, Note_on_c, 1, 57, 60
19, 297472, Note_on_c, 1, 62, 60
19, 297728, Note_off_c, 1, 53, 0
19, 297728, Note_off_c, 1, 57, 0
19, 297728, Note_off_c, 1, 62, 0
19, 297728, Note_on_c, 1, 53, 62
19, 297728, Note_on_c, 1, 57, 62
19, 297728, Note_on_c, 1, 62, 62
19, 297984, Note_off_c, 1, 53, 0
19, 297984, Note_off_c, 1, 57, 0
19, 297984, Note_off_c, 1, 62, 0
19, 297984, Note_on_c, 1, 53, 60
19, 297984, Note_on_c, 1, 57, 60
19, 297984, Note_on_c, 1, 62, 60
19, 298240, Note_off_c, 1, 53, 0
19, 298240, Note_off_c, 1, 57, 0
19, 298240, Note_off_c, 1, 62, 0
19, 298240, Note_on_c, 1, 53, 59
19, 298240, Note_on_c, 1, 57, 59
19, 298240, Note_on_c, 1, 62, 59
19, 298496, Note_off_c, 1, 53, 0
19, 298496, Note_off_c, 1, 57, 0
19, 298496, Note_off_c, 1, 62, 0
19, 298496, Note_on_c, 1, 53, 60
19, 298496, Note_on_c, 1, 58, 60
19, 298496, Note_on_c, 1, 62, 60
19, 298752, Note_off_c, 1, 53, 0
19, 298752, Note_off_c, 1, 58, 0
19, 298752, Note_off_c, 1, 62, 0
19, 298752, Note_on_c, 1, 53, 61
19, 298752, Note_on_c, 1, 58, 61
19, 298752, Note_on_c, 1, 62, 61
19, 299008, Note_off_c, 1, 53, 0
19, 299008, Note_off_c, 1, 58, 0
19, 299008, Note_off_c, 1, 62, 0
19, 299008, Note_on_c, 1, 54, 61
19, 299008, Note_on_c, 1, 58, 61
19, 299008, Note_on_c, 1, 62, 61
19, 299264, Note_off_c, 1, 54, 0
19, 299264, Note_off_c, 1, 58, 0
19, 299264, Note_off_c, 1, 62, 0
19, 299264, Note_on_c, 1, 54, 60
19, 299264, Note_on_c, 1, 58, 60
19, 299264, Note_on_c, 1, 62, 60
19, 299520, Note_off_c, 1, 54, 0
19, 299520, Note_off_c, 1, 58, 0
19, 299520, Note_off_c, 1, 62, 0
19, 299520, Note_on_c, 1, 54, 62
19, 299520, Note_on_c, 1, 58, 62
19, 299520, Note_on_c, 1, 62, 62
19, 299776, Note_off_c, 1, 54, 0
19, 299776, Note_off_c, 1, 58, 0
19, 299776, Note_off_c, 1, 62, 0
19, 299776, Note_on_c, 1, 54, 58
19, 299776, Note_on_c, 1, 58, 58
19, 299776, Note_on_c, 1, 62, 58
19, 300032, Note_off_c, 1, 54, 0
19, 300032, Note_off_c, 1, 58, 0
19, 300032, Note_off_c, 1, 62, 0
19, 300032, Note_on_c, 1, 54, 61
19, 300032, Note_on_c, 1, 58, 61
19, 300032, Note_on_c, 1, 62, 61
19, 300288, Note_off_c, 1, 54, 0
19, 300288, Note_off_c, 1, 58, 0
19, 300288, Note_off_c, 1, 62, 0
19, 300288, Note_on_c, 1, 54, 64
19, 300288, Note_on_c, 1, 58, 64
19, 300288, Note_on_c, 1, 62, 64
19, 300544, Note_off_c, 1, 54, 0
19, 300544, Note_off_c, 1, 58, 0
19, 300544, Note_off_c, 1, 62, 0
19, 300544, Note_on_c, 1, 54, 52
19, 300544, Note_on_c, 1, 58, 52
19, 300544, Note_on_c, 1, 62, 52
19, 300800, Note_off_c, 1, 54, 0
19, 300800, Note_off_c, 1, 58, 0
19, 300800, Note_off_c, 1, 62, 0
19, 300800, Note_on_c, 1, 54, 66
19, 300800, Note_on_c, 1, 58, 66
19, 300800, Note_on_c, 1, 62, 66
19, 301056, Note_off_c, 1, 54, 0
19, 301056, Note_off_c, 1, 58, 0
19, 301056, Note_off_c, 1, 62, 0
19, 301056, Note_on_c, 1, 54, 62
19, 301056, Note_on_c, 1, 58, 62
19, 301056, Note_on_c, 1, 62, 62
19, 301312, Note_off_c, 1, 54, 0
19, 301312, Note_off_c, 1, 58, 0
19, 301312, Note_off_c, 1, 62, 0
19, 301312, Note_on_c, 1, 54, 62
19, 301312, Note_on_c, 1, 58, 62
19, 301312, Note_on_c, 1, 62, 62
19, 301568, Note_off_c, 1, 54, 0
19, 301568, Note_off_c, 1, 58, 0
19, 301568, Note_off_c, 1, 62, 0
19, 301568, Note_on_c, 1, 54, 63
19, 301568, Note_on_c, 1, 58, 63
19, 301568, Note_on_c, 1, 62, 63
19, 301824, Note_off_c, 1, 54, 0
19, 301824, Note_off_c, 1, 58, 0
19, 301824, Note_off_c, 1, 62, 0
19, 301824, Note_on_c, 1, 48, 58
19, 301824, Note_on_c, 1, 54, 58
19, 301824, Note_on_c, 1, 57, 58
19, 301824, Note_on_c, 1, 62, 58
19, 302080, Note_off_c, 1, 48, 0
19, 302080, Note_off_c, 1, 54, 0
19, 302080, Note_off_c, 1, 57, 0
19, 302080, Note_off_c, 1, 62, 0
19, 302080, Note_on_c, 1, 48, 55
19, 302080, Note_on_c, 1, 54, 55
19, 302080, Note_on_c, 1, 57, 55
19, 302080, Note_on_c, 1, 62, 55
19, 302336, Note_off_c, 1, 48, 0
19, 302336, Note_off_c, 1, 54, 0
19, 302336, Note_off_c, 1, 57, 0
19, 302336, Note_off_c, 1, 62, 0
19, 302336, Note_on_c, 1, 48, 56
19, 302336, Note_on_c, 1, 54, 56
19, 302336, Note_on_c, 1, 57, 56
19, 302336, Note_on_c, 1, 62, 56
19, 302592, Note_off_c, 1, 48, 0
19, 302592, Note_off_c, 1, 54, 0
19, 302592, Note_off_c, 1, 57, 0
19, 302592, Note_off_c, 1, 62, 0
19, 302592, Note_on_c, 1, 48, 58
19, 302592, Note_on_c, 1, 54, 58
19, 302592, Note_on_c, 1, 57, 58
19, 302592, Note_on_c, 1, 62, 58
19, 302848, Note_off_c, 1, 48, 0
19, 302848, Note_off_c, 1, 54, 0
19, 302848, Note_off_c, 1, 57, 0
19, 302848, Note_off_c, 1, 62, 0
19, 302848, Note_on_c, 1, 48, 66
19, 302848, Note_on_c, 1, 54, 66
19, 302848, Note_on_c, 1, 57, 66
19, 302848, Note_on_c, 1, 62, 66
19, 303104, Note_off_c, 1, 48, 0
19, 303104, Note_off_c, 1, 54, 0
19, 303104, Note_off_c, 1, 57, 0
19, 303104, Note_off_c, 1, 62, 0
19, 303104, Note_on_c, 1, 48, 59
19, 303104, Note_on_c, 1, 54, 59
19, 303104, Note_on_c, 1, 57, 59
19, 303104, Note_on_c, 1, 62, 59
19, 303360, Note_off_c, 1, 48, 0
19, 303360, Note_off_c, 1, 54, 0
19, 303360, Note_off_c, 1, 57, 0
19, 303360, Note_off_c, 1, 62, 0
19, 303360, Note_on_c, 1, 48, 60
19, 303360, Note_on_c, 1, 54, 60
19, 303360, Note_on_c, 1, 57, 60
19, 303360, Note_on_c, 1, 62, 60
19, 303616, Note_off_c, 1, 48, 0
19, 303616, Note_off_c, 1, 54, 0
19, 303616, Note_off_c, 1, 57, 0
19, 303616, Note_off_c, 1, 62, 0
19, 303616, Note_on_c, 1, 48, 57
19, 303616, Note_on_c, 1, 54, 57
19, 303616, Note_on_c, 1, 57, 57
19, 303616, Note_on_c, 1, 62, 57
19, 303872, Note_off_c, 1, 48, 0
19, 303872, Note_off_c, 1, 54, 0
19, 303872, Note_off_c, 1, 57, 0
19, 303872, Note_off_c, 1, 62, 0
19, 303872, Note_on_c, 1, 48, 62
19, 303872, Note_on_c, 1, 54, 62
19, 303872, Note_on_c, 1, 57, 62
19, 303872, Note_on_c, 1, 62, 62
19, 304128, Note_off_c, 1, 48, 0
19, 304128, Note_off_c, 1, 54, 0
19, 304128, Note_off_c, 1, 57, 0
19, 304128, Note_off_c, 1, 62, 0
19, 304128, Note_on_c, 1, 48, 64
19, 304128, Note_on_c, 1, 54, 64
19, 304128, Note_on_c, 1, 57, 64
19, 304128, Note_on_c, 1, 62, 64
19, 304384, Note_off_c, 1, 48, 0
19, 304384, Note_off_c, 1, 54, 0
19, 304384, Note_off_c, 1, 57, 0
19, 304384, Note_off_c, 1, 62, 0
19, 304384, Note_on_c, 1, 48, 60
19, 304384, Note_on_c, 1, 54, 60
19, 304384, Note_on_c, 1, 57, 60
19, 304384, Note_on_c, 1, 62, 60
19, 304640, Note_off_c, 1, 48, 0
19, 304640, Note_off_c, 1, 54, 0
19, 304640, Note_off_c, 1, 57, 0
19, 304640, Note_off_c, 1, 62, 0
19, 304640, Note_on_c, 1, 48, 60
19, 304640, Note_on_c, 1, 54, 60
19, 304640, Note_on_c, 1, 57, 60
19, 304640, Note_on_c, 1, 62, 60
19, 304896, Note_off_c, 1, 48, 0
19, 304896, Note_off_c, 1, 54, 0
19, 304896, Note_off_c, 1, 57, 0
19, 304896, Note_off_c, 1, 62, 0
19, 304896, Note_on_c, 1, 48, 59
19, 304896, Note_on_c, 1, 54, 59
19, 304896, Note_on_c, 1, 57, 59
19, 304896, Note_on_c, 1, 62, 59
19, 305152, Note_off_c, 1, 48, 0
19, 305152, Note_off_c, 1, 54, 0
19, 305152, Note_off_c, 1, 57, 0
19, 305152, Note_off_c, 1, 62, 0
19, 305152, Note_on_c, 1, 48, 63
19, 305152, Note_on_c, 1, 54, 63
19, 305152, Note_on_c, 1, 57, 63
19, 305152, Note_on_c, 1, 62, 63
19, 305408, Note_off_c, 1, 48, 0
19, 305408, Note_off_c, 1, 54, 0
19, 305408, Note_off_c, 1, 57, 0
19, 305408, Note_off_c, 1, 62, 0
19, 305408, Note_on_c, 1, 55, 63
19, 305408, Note_on_c, 1, 58, 63
19, 305408, Note_on_c, 1, 62, 63
19, 305664, Note_off_c, 1, 55, 0
19, 305664, Note_off_c, 1, 58, 0
19, 305664, Note_off_c, 1, 62, 0
19, 305664, Note_on_c, 1, 55, 63
19, 305664, Note_on_c, 1, 58, 63
19, 305664, Note_on_c, 1, 62, 63
19, 305920, Note_off_c, 1, 55, 0
19, 305920, Note_off_c, 1, 58, 0
19, 305920, Note_off_c, 1, 62, 0
19, 305920, Note_on_c, 1, 55, 63
19, 305920, Note_on_c, 1, 58, 63
19, 305920, Note_on_c, 1, 62, 63
19, 306176, Note_off_c, 1, 55, 0
19, 306176, Note_off_c, 1, 58, 0
19, 306176, Note_off_c, 1, 62, 0
19, 306176, Note_on_c, 1, 55, 60
19, 306176, Note_on_c, 1, 58, 60
19, 306176, Note_on_c, 1, 62, 60
19, 306432, Note_off_c, 1, 55, 0
19, 306432, Note_off_c, 1, 58, 0
19, 306432, Note_off_c, 1, 62, 0
19, 306432, Note_on_c, 1, 55, 60
19, 306432, Note_on_c, 1, 58, 60
19, 306432, Note_on_c, 1, 62, 60
19, 306688, Note_off_c, 1, 55, 0
19, 306688, Note_off_c, 1, 58, 0
19, 306688, Note_off_c, 1, 62, 0
19, 306688, Note_on_c, 1, 55, 60
19, 306688, Note_on_c, 1, 58, 60
19, 306688, Note_on_c, 1, 62, 60
19, 306944, Note_off_c, 1, 55, 0
19, 306944, Note_off_c, 1, 58, 0
19, 306944, Note_off_c, 1, 62, 0
19, 306944, Note_on_c, 1, 55, 59
19, 306944, Note_on_c, 1, 58, 59
19, 306944, Note_on_c, 1, 62, 59
19, 307200, Note_off_c, 1, 55, 0
19, 307200, Note_off_c, 1, 58, 0
19, 307200, Note_off_c, 1, 62, 0
19, 307200, Note_on_c, 1, 55, 61
19, 307200, Note_on_c, 1, 58, 61
19, 307200, Note_on_c, 1, 62, 61
19, 307456, Note_off_c, 1, 55, 0
19, 307456, Note_off_c, 1, 58, 0
19, 307456, Note_off_c, 1, 62, 0
19, 307456, Note_on_c, 1, 55, 57
19, 307456, Note_on_c, 1, 58, 57
19, 307456, Note_on_c, 1, 62, 57
19, 307712, Note_off_c, 1, 55, 0
19, 307712, Note_off_c, 1, 58, 0
19, 307712, Note_off_c, 1, 62, 0
19, 307712, Note_on_c, 1, 55, 59
19, 307712, Note_on_c, 1, 58, 59
19, 307712, Note_on_c, 1, 62, 59
19, 307968, Note_off_c, 1, 55, 0
19, 307968, Note_off_c, 1, 58, 0
19, 307968, Note_off_c, 1, 62, 0
19, 307968, Note_on_c, 1, 46, 65
19, 307968, Note_on_c, 1, 55, 65
19, 307968, Note_on_c, 1, 58, 65
19, 307968, Note_on_c, 1, 63, 65
19, 308224, Note_off_c, 1, 46, 0
19, 308224, Note_off_c, 1, 55, 0
19, 308224, Note_off_c, 1, 58, 0
19, 308224, Note_off_c, 1, 63, 0
19, 308224, Note_on_c, 1, 46, 66
19, 308224, Note_on_c, 1, 55, 66
19, 308224, Note_on_c, 1, 58, 66
19, 308224, Note_on_c, 1, 63, 66
19, 308480, Note_off_c, 1, 46, 0
19, 308480, Note_off_c, 1, 55, 0
19, 308480, Note_off_c, 1, 58, 0
19, 308480, Note_off_c, 1, 63, 0
19, 308480, Note_on_c, 1, 46, 63
19, 308480, Note_on_c, 1, 55, 63
19, 308480, Note_on_c, 1, 58, 63
19, 308480, Note_on_c, 1, 63, 63
19, 308736, Note_off_c, 1, 46, 0
19, 308736, Note_off_c, 1, 55, 0
19, 308736, Note_off_c, 1, 58, 0
19, 308736, Note_off_c, 1, 63, 0
19, 308736, Note_on_c, 1, 46, 62
19, 308736, Note_on_c, 1, 55, 62
19, 308736, Note_on_c, 1, 58, 62
19, 308736, Note_on_c, 1, 63, 62
19, 308992, Note_off_c, 1, 46, 0
19, 308992, Note_off_c, 1, 55, 0
19, 308992, Note_off_c, 1, 58, 0
19, 308992, Note_off_c, 1, 63, 0
19, 308992, Note_on_c, 1, 56, 63
19, 308992, Note_on_c, 1, 59, 63
19, 308992, Note_on_c, 1, 62, 63
19, 308992, Note_on_c, 1, 64, 63
19, 309248, Note_off_c, 1, 56, 0
19, 309248, Note_off_c, 1, 59, 0
19, 309248, Note_off_c, 1, 62, 0
19, 309248, Note_off_c, 1, 64, 0
19, 309248, Note_on_c, 1, 56, 64
19, 309248, Note_on_c, 1, 59, 64
19, 309248, Note_on_c, 1, 62, 64
19, 309248, Note_on_c, 1, 64, 64
19, 309504, Note_off_c, 1, 56, 0
19, 309504, Note_off_c, 1, 59, 0
19, 309504, Note_off_c, 1, 62, 0
19, 309504, Note_off_c, 1, 64, 0
19, 309504, Note_on_c, 1, 56, 55
19, 309504, Note_on_c, 1, 59, 55
19, 309504, Note_on_c, 1, 62, 55
19, 309504, Note_on_c, 1, 64, 55
19, 309760, Note_off_c, 1, 56, 0
19, 309760, Note_off_c, 1, 59, 0
19, 309760, Note_off_c, 1, 62, 0
19, 309760, Note_off_c, 1, 64, 0
19, 309760, Note_on_c, 1, 56, 60
19, 309760, Note_on_c, 1, 59, 60
19, 309760, Note_on_c, 1, 62, 60
19, 309760, Note_on_c, 1, 64, 60
19, 310016, Note_off_c, 1, 56, 0
19, 310016, Note_off_c, 1, 59, 0
19, 310016, Note_off_c, 1, 62, 0
19, 310016, Note_off_c, 1, 64, 0
19, 310016, Note_on_c, 1, 56, 63
19, 310016, Note_on_c, 1, 59, 63
19, 310016, Note_on_c, 1, 62, 63
19, 310016, Note_on_c, 1, 64, 63
19, 310272, Note_off_c, 1, 56, 0
19, 310272, Note_off_c, 1, 59, 0
19, 310272, Note_off_c, 1, 62, 0
19, 310272, Note_off_c, 1, 64, 0
19, 310272, Note_on_c, 1, 56, 58
19, 310272, Note_on_c, 1, 59, 58
19, 310272, Note_on_c, 1, 62, 58
19, 310272, Note_on_c, 1, 64, 58
19, 310528, Note_off_c, 1, 56, 0
19, 310528, Note_off_c, 1, 59, 0
19, 310528, Note_off_c, 1, 62, 0
19, 310528, Note_off_c, 1, 64, 0
19, 310528, Note_on_c, 1, 56, 65
19, 310528, Note_on_c, 1, 63, 65
19, 310528, Note_on_c, 1, 65, 65
19, 310784, Note_off_c, 1, 56, 0
19, 310784, Note_off_c, 1, 63, 0
19, 310784, Note_off_c, 1, 65, 0
19, 310784, Note_on_c, 1, 56, 64
19, 310784, Note_on_c, 1, 63, 64
19, 310784, Note_on_c, 1, 65, 64
19, 311040, Note_off_c, 1, 56, 0
19, 311040, Note_off_c, 1, 63, 0
19, 311040, Note_off_c, 1, 65, 0
19, 311040, Note_on_c, 1, 56, 63
19, 311040, Note_on_c, 1, 63, 63
19, 311040, Note_on_c, 1, 65, 63
19, 311296, Note_off_c, 1, 56, 0
19, 311296, Note_off_c, 1, 63, 0
19, 311296, Note_off_c, 1, 65, 0
19, 311296, Note_on_c, 1, 56, 61
19, 311296, Note_on_c, 1, 63, 61
19, 311296, Note_on_c, 1, 65, 61
19, 311552, Note_off_c, 1, 56, 0
19, 311552, Note_off_c, 1, 63, 0
19, 311552, Note_off_c, 1, 65, 0
19, 311552, Note_on_c, 1, 56, 60
19, 311552, Note_on_c, 1, 63, 60
19, 311552, Note_on_c, 1, 65, 60
19, 311808, Note_off_c, 1, 56, 0
19, 311808, Note_off_c, 1, 63, 0
19, 311808, Note_off_c, 1, 65, 0
19, 311808, Note_on_c, 1, 56, 57
19, 311808, Note_on_c, 1, 63, 57
19, 311808, Note_on_c, 1, 65, 57
19, 312064, Note_off_c, 1, 56, 0
19, 312064, Note_off_c, 1, 63, 0
19, 312064, Note_off_c, 1, 65, 0
19, 312064, Note_on_c, 1, 56, 64
19, 312064, Note_on_c, 1, 63, 64
19, 312064, Note_on_c, 1, 65, 64
19, 312320, Note_off_c, 1, 56, 0
19, 312320, Note_off_c, 1, 63, 0
19, 312320, Note_off_c, 1, 65, 0
19, 312320, Note_on_c, 1, 56, 61
19, 312320, Note_on_c, 1, 63, 61
19, 312320, Note_on_c, 1, 65, 61
19, 312576, Note_off_c, 1, 56, 0
19, 312576, Note_off_c, 1, 63, 0
19, 312576, Note_off_c, 1, 65, 0
19, 312576, Note_on_c, 1, 56, 64
19, 312576, Note_on_c, 1, 63, 64
19, 312576, Note_on_c, 1, 65, 64
19, 312832, Note_off_c, 1, 56, 0
19, 312832, Note_off_c, 1, 63, 0
19, 312832, Note_off_c, 1, 65, 0
19, 312832, Note_on_c, 1, 56, 60
19, 312832, Note_on_c, 1, 63, 60
19, 312832, Note_on_c, 1, 65, 60
19, 313088, Note_off_c, 1, 56, 0
19, 313088, Note_off_c, 1, 63, 0
19, 313088, Note_off_c, 1, 65, 0
19, 313088, Note_on_c, 1, 56, 64
19, 313088, Note_on_c, 1, 63, 64
19, 313088, Note_on_c, 1, 65, 64
19, 313344, Note_off_c, 1, 56, 0
19, 313344, Note_off_c, 1, 63, 0
19, 313344, Note_off_c, 1, 65, 0
19, 313344, Note_on_c, 1, 56, 62
19, 313344, Note_on_c, 1, 63, 62
19, 313344, Note_on_c, 1, 65, 62
19, 313600, Note_off_c, 1, 56, 0
19, 313600, Note_off_c, 1, 63, 0
19, 313600, Note_off_c, 1, 65, 0
19, 313600, Note_on_c, 1, 56, 61
19, 313600, Note_on_c, 1, 63, 61
19, 313600, Note_on_c, 1, 65, 61
19, 313856, Note_off_c, 1, 56, 0
19, 313856, Note_off_c, 1, 63, 0
19, 313856, Note_off_c, 1, 65, 0
19, 313856, Note_on_c, 1, 56, 63
19, 313856, Note_on_c, 1, 63, 63
19, 313856, Note_on_c, 1, 65, 63
19, 314112, Note_off_c, 1, 56, 0
19, 314112, Note_off_c, 1, 63, 0
19, 314112, Note_off_c, 1, 65, 0
19, 314112, Note_on_c, 1, 56, 64
19, 314112, Note_on_c, 1, 63, 64
19, 314112, Note_on_c, 1, 65, 64
19, 314368, Note_off_c, 1, 56, 0
19, 314368, Note_off_c, 1, 63, 0
19, 314368, Note_off_c, 1, 65, 0
19, 314368, Note_on_c, 1, 56, 59
19, 314368, Note_on_c, 1, 63, 59
19, 314368, Note_on_c, 1, 65, 59
19, 314624, Note_off_c, 1, 56, 0
19, 314624, Note_off_c, 1, 63, 0
19, 314624, Note_off_c, 1, 65, 0
19, 314624, Note_on_c, 1, 56, 58
19, 314624, Note_on_c, 1, 63, 58
19, 314624, Note_on_c, 1, 65, 58
19, 314880, Note_off_c, 1, 56, 0
19, 314880, Note_off_c, 1, 63, 0
19, 314880, Note_off_c, 1, 65, 0
19, 314880, Note_on_c, 1, 56, 61
19, 314880, Note_on_c, 1, 63, 61
19, 314880, Note_on_c, 1, 65, 61
19, 315136, Note_off_c, 1, 56, 0
19, 315136, Note_off_c, 1, 63, 0
19, 315136, Note_off_c, 1, 65, 0
19, 315136, Note_on_c, 1, 56, 60
19, 315136, Note_on_c, 1, 63, 60
19, 315136, Note_on_c, 1, 65, 60
19, 315392, Note_off_c, 1, 56, 0
19, 315392, Note_off_c, 1, 63, 0
19, 315392, Note_off_c, 1, 65, 0
19, 315392, Note_on_c, 1, 56, 61
19, 315392, Note_on_c, 1, 63, 61
19, 315392, Note_on_c, 1, 65, 61
19, 315648, Note_off_c, 1, 56, 0
19, 315648, Note_off_c, 1, 63, 0
19, 315648, Note_off_c, 1, 65, 0
19, 315648, Note_on_c, 1, 56, 63
19, 315648, Note_on_c, 1, 63, 63
19, 315648, Note_on_c, 1, 65, 63
19, 315904, Note_off_c, 1, 56, 0
19, 315904, Note_off_c, 1, 63, 0
19, 315904, Note_off_c, 1, 65, 0
19, 315904, Note_on_c, 1, 56, 60
19, 315904, Note_on_c, 1, 63, 60
19, 315904, Note_on_c, 1, 65, 60
19, 316160, Note_off_c, 1, 56, 0
19, 316160, Note_off_c, 1, 63, 0
19, 316160, Note_off_c, 1, 65, 0
19, 316160, Note_on_c, 1, 56, 57
19, 316160, Note_on_c, 1, 63, 57
19, 316160, Note_on_c, 1, 65, 57
19, 316416, Note_off_c, 1, 56, 0
19, 316416, Note_off_c, 1, 63, 0
19, 316416, Note_off_c, 1, 65, 0
19, 316416, Note_on_c, 1, 57, 59
19, 316416, Note_on_c, 1, 60, 59
19, 316416, Note_on_c, 1, 64, 59
19, 316416, Note_on_c, 1, 66, 59
19, 316672, Note_off_c, 1, 57, 0
19, 316672, Note_off_c, 1, 60, 0
19, 316672, Note_off_c, 1, 64, 0
19, 316672, Note_off_c, 1, 66, 0
19, 316672, Note_on_c, 1, 57, 65
19, 316672, Note_on_c, 1, 60, 65
19, 316672, Note_on_c, 1, 64, 65
19, 316672, Note_on_c, 1, 66, 65
19, 316928, Note_off_c, 1, 57, 0
19, 316928, Note_off_c, 1, 60, 0
19, 316928, Note_off_c, 1, 64, 0
19, 316928, Note_off_c, 1, 66, 0
19, 316928, Note_on_c, 1, 57, 63
19, 316928, Note_on_c, 1, 60, 63
19, 316928, Note_on_c, 1, 64, 63
19, 316928, Note_on_c, 1, 66, 63
19, 317184, Note_off_c, 1, 57, 0
19, 317184, Note_off_c, 1, 60, 0
19, 317184, Note_off_c, 1, 64, 0
19, 317184, Note_off_c, 1, 66, 0
19, 317184, Note_on_c, 1, 57, 63
19, 317184, Note_on_c, 1, 60, 63
19, 317184, Note_on_c, 1, 64, 63
19, 317184, Note_on_c, 1, 66, 63
19, 317440, Note_off_c, 1, 57, 0
19, 317440, Note_off_c, 1, 60, 0
19, 317440, Note_off_c, 1, 64, 0
19, 317440, Note_off_c, 1, 66, 0
19, 317440, Note_on_c, 1, 57, 60
19, 317440, Note_on_c, 1, 60, 60
19, 317440, Note_on_c, 1, 64, 60
19, 317440, Note_on_c, 1, 66, 60
19, 317696, Note_off_c, 1, 57, 0
19, 317696, Note_off_c, 1, 60, 0
19, 317696, Note_off_c, 1, 64, 0
19, 317696, Note_off_c, 1, 66, 0
19, 317696, Note_on_c, 1, 57, 61
19, 317696, Note_on_c, 1, 60, 61
19, 317696, Note_on_c, 1, 64, 61
19, 317696, Note_on_c, 1, 66, 61
19, 317952, Note_off_c, 1, 57, 0
19, 317952, Note_off_c, 1, 60, 0
19, 317952, Note_off_c, 1, 64, 0
19, 317952, Note_off_c, 1, 66, 0
19, 317952, Note_on_c, 1, 57, 58
19, 317952, Note_on_c, 1, 60, 58
19, 317952, Note_on_c, 1, 64, 58
19, 317952, Note_on_c, 1, 66, 58
19, 318208, Note_off_c, 1, 57, 0
19, 318208, Note_off_c, 1, 60, 0
19, 318208, Note_off_c, 1, 64, 0
19, 318208, Note_off_c, 1, 66, 0
19, 318208, Note_on_c, 1, 57, 58
19, 318208, Note_on_c, 1, 63, 58
19, 318208, Note_on_c, 1, 66, 58
19, 318464, Note_off_c, 1, 57, 0
19, 318464, Note_off_c, 1, 63, 0
19, 318464, Note_off_c, 1, 66, 0
19, 318720, Note_on_c, 1, 57, 51
19, 318720, Note_on_c, 1, 63, 51
19, 318720, Note_on_c, 1, 66, 51
19, 318976, Note_off_c, 1, 57, 0
19, 318976, Note_off_c, 1, 63, 0
19, 318976, Note_off_c, 1, 66, 0
19, 319232, Note_on_c, 1, 57, 52
19, 319232, Note_on_c, 1, 63, 52
19, 319232, Note_on_c, 1, 66, 52
19, 319488, Note_off_c, 1, 57, 0
19, 319488, Note_off_c, 1, 63, 0
19, 319488, Note_off_c, 1, 66, 0
19, 319744, Note_on_c, 1, 57, 53
19, 319744, Note_on_c, 1, 63, 53
19, 319744, Note_on_c, 1, 66, 53
19, 320000, Note_off_c, 1, 57, 0
19, 320000, Note_off_c, 1, 63, 0
19, 320000, Note_off_c, 1, 66, 0
19, 320256, Note_on_c, 1, 57, 54
19, 320256, Note_on_c, 1, 63, 54
19, 320256, Note_on_c, 1, 66, 54
19, 320512, Note_off_c, 1, 57, 0
19, 320512, Note_off_c, 1, 63, 0
19, 320512, Note_off_c, 1, 66, 0
19, 320768, Note_on_c, 1, 57, 53
19, 320768, Note_on_c, 1, 63, 53
19, 320768, Note_on_c, 1, 66, 53
19, 321024, Note_off_c, 1, 57, 0
19, 321024, Note_off_c, 1, 63, 0
19, 321024, Note_off_c, 1, 66, 0
19, 321280, Note_on_c, 1, 57, 60
19, 321280, Note_on_c, 1, 63, 60
19, 321280, Note_on_c, 1, 66, 60
19, 321536, Note_off_c, 1, 57, 0
19, 321536, Note_off_c, 1, 63, 0
19, 321536, Note_off_c, 1, 66, 0
19, 321792, Note_on_c, 1, 57, 55
19, 321792, Note_on_c, 1, 63, 55
19, 321792, Note_on_c, 1, 66, 55
19, 322048, Note_off_c, 1, 57, 0
19, 322048, Note_off_c, 1, 63, 0
19, 322048, Note_off_c, 1, 66, 0
19, 343296, Note_on_c, 1, 51, 51
19, 343296, Note_on_c, 1, 56, 51
19, 343296, Note_on_c, 1, 59, 51
19, 343296, Note_on_c, 1, 64, 51
19, 343347, Note_off_c, 1, 51, 0
19, 343347, Note_off_c, 1, 56, 0
19, 343347, Note_off_c, 1, 59, 0
19, 343347, Note_off_c, 1, 64, 0
19, 343360, Note_on_c, 1, 51, 51
19, 343360, Note_on_c, 1, 56, 51
19, 343360, Note_on_c, 1, 59, 51
19, 343360, Note_on_c, 1, 64, 51
19, 343411, Note_off_c, 1, 51, 0
19, 343411, Note_off_c, 1, 56, 0
19, 343411, Note_off_c, 1, 59, 0
19, 343411, Note_off_c, 1, 64, 0
19, 343424, Note_on_c, 1, 51, 51
19, 343424, Note_on_c, 1, 56, 51
19, 343424, Note_on_c, 1, 59, 51
19, 343424, Note_on_c, 1, 64, 51
19, 343475, Note_off_c, 1, 51, 0
19, 343475, Note_off_c, 1, 56, 0
19, 343475, Note_off_c, 1, 59, 0
19, 343475, Note_off_c, 1, 64, 0
19, 343488, Note_on_c, 1, 51, 51
19, 343488, Note_on_c, 1, 56, 51
19, 343488, Note_on_c, 1, 59, 51
19, 343488, Note_on_c, 1, 64, 51
19, 343539, Note_off_c, 1, 51, 0
19, 343539, Note_off_c, 1, 56, 0
19, 343539, Note_off_c, 1, 59, 0
19, 343539, Note_off_c, 1, 64, 0
19, 343680, Note_on_c, 1, 51, 61
19, 343680, Note_on_c, 1, 56, 61
19, 343680, Note_on_c, 1, 59, 61
19, 343680, Note_on_c, 1, 64, 61
19, 343731, Note_off_c, 1, 51, 0
19, 343731, Note_off_c, 1, 56, 0
19, 343731, Note_off_c, 1, 59, 0
19, 343731, Note_off_c, 1, 64, 0
19, 343744, Note_on_c, 1, 51, 61
19, 343744, Note_on_c, 1, 56, 61
19, 343744, Note_on_c, 1, 59, 61
19, 343744, Note_on_c, 1, 64, 61
19, 343795, Note_off_c, 1, 51, 0
19, 343795, Note_off_c, 1, 56, 0
19, 343795, Note_off_c, 1, 59, 0
19, 343795, Note_off_c, 1, 64, 0
19, 343808, Note_on_c, 1, 51, 61
19, 343808, Note_on_c, 1, 56, 61
19, 343808, Note_on_c, 1, 59, 61
19, 343808, Note_on_c, 1, 64, 61
19, 343859, Note_off_c, 1, 51, 0
19, 343859, Note_off_c, 1, 56, 0
19, 343859, Note_off_c, 1, 59, 0
19, 343859, Note_off_c, 1, 64, 0
19, 343872, Note_on_c, 1, 51, 61
19, 343872, Note_on_c, 1, 56, 61
19, 343872, Note_on_c, 1, 59, 61
19, 343872, Note_on_c, 1, 64, 61
19, 343923, Note_off_c, 1, 51, 0
19, 343923, Note_off_c, 1, 56, 0
19, 343923, Note_off_c, 1, 59, 0
19, 343923, Note_off_c, 1, 64, 0
19, 344192, Note_on_c, 1, 51, 54
19, 344192, Note_on_c, 1, 56, 54
19, 344192, Note_on_c, 1, 59, 54
19, 344192, Note_on_c, 1, 64, 54
19, 344243, Note_off_c, 1, 51, 0
19, 344243, Note_off_c, 1, 56, 0
19, 344243, Note_off_c, 1, 59, 0
19, 344243, Note_off_c, 1, 64, 0
19, 344256, Note_on_c, 1, 51, 54
19, 344256, Note_on_c, 1, 56, 54
19, 344256, Note_on_c, 1, 59, 54
19, 344256, Note_on_c, 1, 64, 54
19, 344307, Note_off_c, 1, 51, 0
19, 344307, Note_off_c, 1, 56, 0
19, 344307, Note_off_c, 1, 59, 0
19, 344307, Note_off_c, 1, 64, 0
19, 344320, Note_on_c, 1, 51, 62
19, 344320, Note_on_c, 1, 56, 62
19, 344320, Note_on_c, 1, 59, 62
19, 344320, Note_on_c, 1, 64, 62
19, 344371, Note_off_c, 1, 51, 0
19, 344371, Note_off_c, 1, 56, 0
19, 344371, Note_off_c, 1, 59, 0
19, 344371, Note_off_c, 1, 64, 0
19, 344384, Note_on_c, 1, 51, 62
19, 344384, Note_on_c, 1, 56, 62
19, 344384, Note_on_c, 1, 59, 62
19, 344384, Note_on_c, 1, 64, 62
19, 344435, Note_off_c, 1, 51, 0
19, 344435, Note_off_c, 1, 56, 0
19, 344435, Note_off_c, 1, 59, 0
19, 344435, Note_off_c, 1, 64, 0
19, 344448, Note_on_c, 1, 51, 62
19, 344448, Note_on_c, 1, 56, 62
19, 344448, Note_on_c, 1, 59, 62
19, 344448, Note_on_c, 1, 64, 62
19, 344499, Note_off_c, 1, 51, 0
19, 344499, Note_off_c, 1, 56, 0
19, 344499, Note_off_c, 1, 59, 0
19, 344499, Note_off_c, 1, 64, 0
19, 344512, Note_on_c, 1, 51, 62
19, 344512, Note_on_c, 1, 56, 62
19, 344512, Note_on_c, 1, 59, 62
19, 344512, Note_on_c, 1, 64, 62
19, 344563, Note_off_c, 1, 51, 0
19, 344563, Note_off_c, 1, 56, 0
19, 344563, Note_off_c, 1, 59, 0
19, 344563, Note_off_c, 1, 64, 0
19, 344576, Note_on_c, 1, 51, 63
19, 344576, Note_on_c, 1, 56, 63
19, 344576, Note_on_c, 1, 59, 63
19, 344576, Note_on_c, 1, 64, 63
19, 344627, Note_off_c, 1, 51, 0
19, 344627, Note_off_c, 1, 56, 0
19, 344627, Note_off_c, 1, 59, 0
19, 344627, Note_off_c, 1, 64, 0
19, 344640, Note_on_c, 1, 51, 63
19, 344640, Note_on_c, 1, 56, 63
19, 344640, Note_on_c, 1, 59, 63
19, 344640, Note_on_c, 1, 64, 63
19, 344691, Note_off_c, 1, 51, 0
19, 344691, Note_off_c, 1, 56, 0
19, 344691, Note_off_c, 1, 59, 0
19, 344691, Note_off_c, 1, 64, 0
19, 344704, Note_on_c, 1, 51, 63
19, 344704, Note_on_c, 1, 56, 63
19, 344704, Note_on_c, 1, 59, 63
19, 344704, Note_on_c, 1, 64, 63
19, 344755, Note_off_c, 1, 51, 0
19, 344755, Note_off_c, 1, 56, 0
19, 344755, Note_off_c, 1, 59, 0
19, 344755, Note_off_c, 1, 64, 0
19, 344768, Note_on_c, 1, 51, 63
19, 344768, Note_on_c, 1, 56, 63
19, 344768, Note_on_c, 1, 59, 63
19, 344768, Note_on_c, 1, 64, 63
19, 344819, Note_off_c, 1, 51, 0
19, 344819, Note_off_c, 1, 56, 0
19, 344819, Note_off_c, 1, 59, 0
19, 344819, Note_off_c, 1, 64, 0
19, 344960, Note_on_c, 1, 51, 52
19, 344960, Note_on_c, 1, 56, 52
19, 344960, Note_on_c, 1, 59, 52
19, 344960, Note_on_c, 1, 64, 52
19, 345011, Note_off_c, 1, 51, 0
19, 345011, Note_off_c, 1, 56, 0
19, 345011, Note_off_c, 1, 59, 0
19, 345011, Note_off_c, 1, 64, 0
19, 345024, Note_on_c, 1, 51, 52
19, 345024, Note_on_c, 1, 56, 52
19, 345024, Note_on_c, 1, 59, 52
19, 345024, Note_on_c, 1, 64, 52
19, 345075, Note_off_c, 1, 51, 0
19, 345075, Note_off_c, 1, 56, 0
19, 345075, Note_off_c, 1, 59, 0
19, 345075, Note_off_c, 1, 64, 0
19, 345088, Note_on_c, 1, 51, 52
19, 345088, Note_on_c, 1, 56, 52
19, 345088, Note_on_c, 1, 59, 52
19, 345088, Note_on_c, 1, 64, 52
19, 345139, Note_off_c, 1, 51, 0
19, 345139, Note_off_c, 1, 56, 0
19, 345139, Note_off_c, 1, 59, 0
19, 345139, Note_off_c, 1, 64, 0
19, 345152, Note_on_c, 1, 51, 52
19, 345152, Note_on_c, 1, 56, 52
19, 345152, Note_on_c, 1, 59, 52
19, 345152, Note_on_c, 1, 64, 52
19, 345203, Note_off_c, 1, 51, 0
19, 345203, Note_off_c, 1, 56, 0
19, 345203, Note_off_c, 1, 59, 0
19, 345203, Note_off_c, 1, 64, 0
19, 345216, Note_on_c, 1, 51, 52
19, 345216, Note_on_c, 1, 56, 52
19, 345216, Note_on_c, 1, 59, 52
19, 345216, Note_on_c, 1, 64, 52
19, 345267, Note_off_c, 1, 51, 0
19, 345267, Note_off_c, 1, 56, 0
19, 345267, Note_off_c, 1, 59, 0
19, 345267, Note_off_c, 1, 64, 0
19, 345280, Note_on_c, 1, 51, 52
19, 345280, Note_on_c, 1, 56, 52
19, 345280, Note_on_c, 1, 59, 52
19, 345280, Note_on_c, 1, 64, 52
19, 345331, Note_off_c, 1, 51, 0
19, 345331, Note_off_c, 1, 56, 0
19, 345331, Note_off_c, 1, 59, 0
19, 345331, Note_off_c, 1, 64, 0
19, 345472, Note_on_c, 1, 51, 58
19, 345472, Note_on_c, 1, 56, 58
19, 345472, Note_on_c, 1, 59, 58
19, 345472, Note_on_c, 1, 64, 58
19, 345523, Note_off_c, 1, 51, 0
19, 345523, Note_off_c, 1, 56, 0
19, 345523, Note_off_c, 1, 59, 0
19, 345523, Note_off_c, 1, 64, 0
19, 345536, Note_on_c, 1, 51, 58
19, 345536, Note_on_c, 1, 56, 58
19, 345536, Note_on_c, 1, 59, 58
19, 345536, Note_on_c, 1, 64, 58
19, 345587, Note_off_c, 1, 51, 0
19, 345587, Note_off_c, 1, 56, 0
19, 345587, Note_off_c, 1, 59, 0
19, 345587, Note_off_c, 1, 64, 0
19, 345600, Note_on_c, 1, 51, 58
19, 345600, Note_on_c, 1, 56, 58
19, 345600, Note_on_c, 1, 59, 58
19, 345600, Note_on_c, 1, 64, 58
19, 345651, Note_off_c, 1, 51, 0
19, 345651, Note_off_c, 1, 56, 0
19, 345651, Note_off_c, 1, 59, 0
19, 345651, Note_off_c, 1, 64, 0
19, 345664, Note_on_c, 1, 51, 58
19, 345664, Note_on_c, 1, 56, 58
19, 345664, Note_on_c, 1, 59, 58
19, 345664, Note_on_c, 1, 64, 58
19, 345715, Note_off_c, 1, 51, 0
19, 345715, Note_off_c, 1, 56, 0
19, 345715, Note_off_c, 1, 59, 0
19, 345715, Note_off_c, 1, 64, 0
19, 345728, Note_on_c, 1, 51, 58
19, 345728, Note_on_c, 1, 56, 58
19, 345728, Note_on_c, 1, 59, 58
19, 345728, Note_on_c, 1, 64, 58
19, 345779, Note_off_c, 1, 51, 0
19, 345779, Note_off_c, 1, 56, 0
19, 345779, Note_off_c, 1, 59, 0
19, 345779, Note_off_c, 1, 64, 0
19, 345792, Note_on_c, 1, 51, 58
19, 345792, Note_on_c, 1, 56, 58
19, 345792, Note_on_c, 1, 59, 58
19, 345792, Note_on_c, 1, 64, 58
19, 345843, Note_off_c, 1, 51, 0
19, 345843, Note_off_c, 1, 56, 0
19, 345843, Note_off_c, 1, 59, 0
19, 345843, Note_off_c, 1, 64, 0
19, 346240, Note_on_c, 1, 51, 52
19, 346240, Note_on_c, 1, 57, 52
19, 346240, Note_on_c, 1, 60, 52
19, 346240, Note_on_c, 1, 65, 52
19, 346291, Note_off_c, 1, 51, 0
19, 346291, Note_off_c, 1, 57, 0
19, 346291, Note_off_c, 1, 60, 0
19, 346291, Note_off_c, 1, 65, 0
19, 346304, Note_on_c, 1, 51, 52
19, 346304, Note_on_c, 1, 57, 52
19, 346304, Note_on_c, 1, 60, 52
19, 346304, Note_on_c, 1, 65, 52
19, 346355, Note_off_c, 1, 51, 0
19, 346355, Note_off_c, 1, 57, 0
19, 346355, Note_off_c, 1, 60, 0
19, 346355, Note_off_c, 1, 65, 0
19, 346368, Note_on_c, 1, 51, 60
19, 346368, Note_on_c, 1, 57, 60
19, 346368, Note_on_c, 1, 60, 60
19, 346368, Note_on_c, 1, 65, 60
19, 346419, Note_off_c, 1, 51, 0
19, 346419, Note_off_c, 1, 57, 0
19, 346419, Note_off_c, 1, 60, 0
19, 346419, Note_off_c, 1, 65, 0
19, 346432, Note_on_c, 1, 51, 60
19, 346432, Note_on_c, 1, 57, 60
19, 346432, Note_on_c, 1, 60, 60
19, 346432, Note_on_c, 1, 65, 60
19, 346483, Note_off_c, 1, 51, 0
19, 346483, Note_off_c, 1, 57, 0
19, 346483, Note_off_c, 1, 60, 0
19, 346483, Note_off_c, 1, 65, 0
19, 346496, Note_on_c, 1, 51, 60
19, 346496, Note_on_c, 1, 57, 60
19, 346496, Note_on_c, 1, 60, 60
19, 346496, Note_on_c, 1, 65, 60
19, 346547, Note_off_c, 1, 51, 0
19, 346547, Note_off_c, 1, 57, 0
19, 346547, Note_off_c, 1, 60, 0
19, 346547, Note_off_c, 1, 65, 0
19, 346560, Note_on_c, 1, 51, 60
19, 346560, Note_on_c, 1, 57, 60
19, 346560, Note_on_c, 1, 60, 60
19, 346560, Note_on_c, 1, 65, 60
19, 346611, Note_off_c, 1, 51, 0
19, 346611, Note_off_c, 1, 57, 0
19, 346611, Note_off_c, 1, 60, 0
19, 346611, Note_off_c, 1, 65, 0
19, 346752, Note_on_c, 1, 51, 58
19, 346752, Note_on_c, 1, 57, 58
19, 346752, Note_on_c, 1, 60, 58
19, 346752, Note_on_c, 1, 65, 58
19, 346803, Note_off_c, 1, 51, 0
19, 346803, Note_off_c, 1, 57, 0
19, 346803, Note_off_c, 1, 60, 0
19, 346803, Note_off_c, 1, 65, 0
19, 346816, Note_on_c, 1, 51, 58
19, 346816, Note_on_c, 1, 57, 58
19, 346816, Note_on_c, 1, 60, 58
19, 346816, Note_on_c, 1, 65, 58
19, 346867, Note_off_c, 1, 51, 0
19, 346867, Note_off_c, 1, 57, 0
19, 346867, Note_off_c, 1, 60, 0
19, 346867, Note_off_c, 1, 65, 0
19, 346880, Note_on_c, 1, 51, 58
19, 346880, Note_on_c, 1, 57, 58
19, 346880, Note_on_c, 1, 60, 58
19, 346880, Note_on_c, 1, 65, 58
19, 346931, Note_off_c, 1, 51, 0
19, 346931, Note_off_c, 1, 57, 0
19, 346931, Note_off_c, 1, 60, 0
19, 346931, Note_off_c, 1, 65, 0
19, 346944, Note_on_c, 1, 51, 58
19, 346944, Note_on_c, 1, 57, 58
19, 346944, Note_on_c, 1, 60, 58
19, 346944, Note_on_c, 1, 65, 58
19, 346995, Note_off_c, 1, 51, 0
19, 346995, Note_off_c, 1, 57, 0
19, 346995, Note_off_c, 1, 60, 0
19, 346995, Note_off_c, 1, 65, 0
19, 347008, Note_on_c, 1, 51, 58
19, 347008, Note_on_c, 1, 57, 58
19, 347008, Note_on_c, 1, 60, 58
19, 347008, Note_on_c, 1, 65, 58
19, 347059, Note_off_c, 1, 51, 0
19, 347059, Note_off_c, 1, 57, 0
19, 347059, Note_off_c, 1, 60, 0
19, 347059, Note_off_c, 1, 65, 0
19, 347072, Note_on_c, 1, 51, 58
19, 347072, Note_on_c, 1, 57, 58
19, 347072, Note_on_c, 1, 60, 58
19, 347072, Note_on_c, 1, 65, 58
19, 347123, Note_off_c, 1, 51, 0
19, 347123, Note_off_c, 1, 57, 0
19, 347123, Note_off_c, 1, 60, 0
19, 347123, Note_off_c, 1, 65, 0
19, 347136, Note_on_c, 1, 51, 58
19, 347136, Note_on_c, 1, 57, 58
19, 347136, Note_on_c, 1, 60, 58
19, 347136, Note_on_c, 1, 65, 58
19, 347200, Note_off_c, 1, 51, 0
19, 347200, Note_off_c, 1, 57, 0
19, 347200, Note_off_c, 1, 60, 0
19, 347200, Note_off_c, 1, 65, 0
19, 347200, Note_on_c, 1, 51, 61
19, 347200, Note_on_c, 1, 57, 61
19, 347200, Note_on_c, 1, 60, 61
19, 347200, Note_on_c, 1, 65, 61
19, 347264, Note_off_c, 1, 51, 0
19, 347264, Note_off_c, 1, 57, 0
19, 347264, Note_off_c, 1, 60, 0
19, 347264, Note_off_c, 1, 65, 0
19, 347264, Note_on_c, 1, 51, 58
19, 347264, Note_on_c, 1, 57, 58
19, 347264, Note_on_c, 1, 60, 58
19, 347264, Note_on_c, 1, 65, 58
19, 347328, Note_off_c, 1, 51, 0
19, 347328, Note_off_c, 1, 57, 0
19, 347328, Note_off_c, 1, 60, 0
19, 347328, Note_off_c, 1, 65, 0
19, 347392, Note_on_c, 1, 51, 57
19, 347392, Note_on_c, 1, 57, 57
19, 347392, Note_on_c, 1, 60, 57
19, 347392, Note_on_c, 1, 65, 57
19, 347456, Note_off_c, 1, 51, 0
19, 347456, Note_off_c, 1, 57, 0
19, 347456, Note_off_c, 1, 60, 0
19, 347456, Note_off_c, 1, 65, 0
19, 347456, Note_on_c, 1, 51, 62
19, 347456, Note_on_c, 1, 57, 62
19, 347456, Note_on_c, 1, 60, 62
19, 347456, Note_on_c, 1, 65, 62
19, 347520, Note_off_c, 1, 51, 0
19, 347520, Note_off_c, 1, 57, 0
19, 347520, Note_off_c, 1, 60, 0
19, 347520, Note_off_c, 1, 65, 0
19, 347520, Note_on_c, 1, 51, 64
19, 347520, Note_on_c, 1, 57, 64
19, 347520, Note_on_c, 1, 60, 64
19, 347520, Note_on_c, 1, 65, 64
19, 347584, Note_off_c, 1, 51, 0
19, 347584, Note_off_c, 1, 57, 0
19, 347584, Note_off_c, 1, 60, 0
19, 347584, Note_off_c, 1, 65, 0
19, 347584, Note_on_c, 1, 51, 60
19, 347584, Note_on_c, 1, 57, 60
19, 347584, Note_on_c, 1, 60, 60
19, 347584, Note_on_c, 1, 65, 60
19, 347648, Note_off_c, 1, 51, 0
19, 347648, Note_off_c, 1, 57, 0
19, 347648, Note_off_c, 1, 60, 0
19, 347648, Note_off_c, 1, 65, 0
19, 347648, Note_on_c, 1, 51, 63
19, 347648, Note_on_c, 1, 57, 63
19, 347648, Note_on_c, 1, 60, 63
19, 347648, Note_on_c, 1, 65, 63
19, 347712, Note_off_c, 1, 51, 0
19, 347712, Note_off_c, 1, 57, 0
19, 347712, Note_off_c, 1, 60, 0
19, 347712, Note_off_c, 1, 65, 0
19, 347712, Note_on_c, 1, 51, 59
19, 347712, Note_on_c, 1, 57, 59
19, 347712, Note_on_c, 1, 60, 59
19, 347712, Note_on_c, 1, 65, 59
19, 347776, Note_off_c, 1, 51, 0
19, 347776, Note_off_c, 1, 57, 0
19, 347776, Note_off_c, 1, 60, 0
19, 347776, Note_off_c, 1, 65, 0
19, 347840, Note_on_c, 1, 51, 54
19, 347840, Note_on_c, 1, 57, 54
19, 347840, Note_on_c, 1, 60, 54
19, 347840, Note_on_c, 1, 65, 54
19, 347904, Note_off_c, 1, 51, 0
19, 347904, Note_off_c, 1, 57, 0
19, 347904, Note_off_c, 1, 60, 0
19, 347904, Note_off_c, 1, 65, 0
19, 347904, Note_on_c, 1, 51, 55
19, 347904, Note_on_c, 1, 57, 55
19, 347904, Note_on_c, 1, 60, 55
19, 347904, Note_on_c, 1, 65, 55
19, 347968, Note_off_c, 1, 51, 0
19, 347968, Note_off_c, 1, 57, 0
19, 347968, Note_off_c, 1, 60, 0
19, 347968, Note_off_c, 1, 65, 0
19, 347968, Note_on_c, 1, 51, 65
19, 347968, Note_on_c, 1, 57, 65
19, 347968, Note_on_c, 1, 60, 65
19, 347968, Note_on_c, 1, 65, 65
19, 348032, Note_off_c, 1, 51, 0
19, 348032, Note_off_c, 1, 57, 0
19, 348032, Note_off_c, 1, 60, 0
19, 348032, Note_off_c, 1, 65, 0
19, 348160, Note_on_c, 1, 50, 56
19, 348160, Note_on_c, 1, 56, 56
19, 348160, Note_on_c, 1, 60, 56
19, 348160, Note_on_c, 1, 66, 56
19, 348211, Note_off_c, 1, 50, 0
19, 348211, Note_off_c, 1, 56, 0
19, 348211, Note_off_c, 1, 60, 0
19, 348211, Note_off_c, 1, 66, 0
19, 348224, Note_on_c, 1, 50, 56
19, 348224, Note_on_c, 1, 56, 56
19, 348224, Note_on_c, 1, 60, 56
19, 348224, Note_on_c, 1, 66, 56
19, 348275, Note_off_c, 1, 50, 0
19, 348275, Note_off_c, 1, 56, 0
19, 348275, Note_off_c, 1, 60, 0
19, 348275, Note_off_c, 1, 66, 0
19, 348288, Note_on_c, 1, 50, 56
19, 348288, Note_on_c, 1, 56, 56
19, 348288, Note_on_c, 1, 60, 56
19, 348288, Note_on_c, 1, 66, 56
19, 348339, Note_off_c, 1, 50, 0
19, 348339, Note_off_c, 1, 56, 0
19, 348339, Note_off_c, 1, 60, 0
19, 348339, Note_off_c, 1, 66, 0
19, 348352, Note_on_c, 1, 50, 56
19, 348352, Note_on_c, 1, 56, 56
19, 348352, Note_on_c, 1, 60, 56
19, 348352, Note_on_c, 1, 66, 56
19, 348403, Note_off_c, 1, 50, 0
19, 348403, Note_off_c, 1, 56, 0
19, 348403, Note_off_c, 1, 60, 0
19, 348403, Note_off_c, 1, 66, 0
19, 348480, Note_on_c, 1, 50, 51
19, 348480, Note_on_c, 1, 56, 51
19, 348480, Note_on_c, 1, 60, 51
19, 348480, Note_on_c, 1, 66, 51
19, 348544, Note_off_c, 1, 50, 0
19, 348544, Note_off_c, 1, 56, 0
19, 348544, Note_off_c, 1, 60, 0
19, 348544, Note_off_c, 1, 66, 0
19, 348544, Note_on_c, 1, 50, 63
19, 348544, Note_on_c, 1, 56, 63
19, 348544, Note_on_c, 1, 60, 63
19, 348544, Note_on_c, 1, 66, 63
19, 348608, Note_off_c, 1, 50, 0
19, 348608, Note_off_c, 1, 56, 0
19, 348608, Note_off_c, 1, 60, 0
19, 348608, Note_off_c, 1, 66, 0
19, 348608, Note_on_c, 1, 50, 61
19, 348608, Note_on_c, 1, 56, 61
19, 348608, Note_on_c, 1, 60, 61
19, 348608, Note_on_c, 1, 66, 61
19, 348672, Note_off_c, 1, 50, 0
19, 348672, Note_off_c, 1, 56, 0
19, 348672, Note_off_c, 1, 60, 0
19, 348672, Note_off_c, 1, 66, 0
19, 348672, Note_on_c, 1, 50, 64
19, 348672, Note_on_c, 1, 56, 64
19, 348672, Note_on_c, 1, 60, 64
19, 348672, Note_on_c, 1, 66, 64
19, 348723, Note_off_c, 1, 50, 0
19, 348723, Note_off_c, 1, 56, 0
19, 348723, Note_off_c, 1, 60, 0
19, 348723, Note_off_c, 1, 66, 0
19, 348736, Note_on_c, 1, 50, 64
19, 348736, Note_on_c, 1, 56, 64
19, 348736, Note_on_c, 1, 60, 64
19, 348736, Note_on_c, 1, 66, 64
19, 348787, Note_off_c, 1, 50, 0
19, 348787, Note_off_c, 1, 56, 0
19, 348787, Note_off_c, 1, 60, 0
19, 348787, Note_off_c, 1, 66, 0
19, 348800, Note_on_c, 1, 50, 64
19, 348800, Note_on_c, 1, 56, 64
19, 348800, Note_on_c, 1, 60, 64
19, 348800, Note_on_c, 1, 66, 64
19, 348851, Note_off_c, 1, 50, 0
19, 348851, Note_off_c, 1, 56, 0
19, 348851, Note_off_c, 1, 60, 0
19, 348851, Note_off_c, 1, 66, 0
19, 348864, Note_on_c, 1, 50, 64
19, 348864, Note_on_c, 1, 56, 64
19, 348864, Note_on_c, 1, 60, 64
19, 348864, Note_on_c, 1, 66, 64
19, 348915, Note_off_c, 1, 50, 0
19, 348915, Note_off_c, 1, 56, 0
19, 348915, Note_off_c, 1, 60, 0
19, 348915, Note_off_c, 1, 66, 0
19, 348928, Note_on_c, 1, 50, 60
19, 348928, Note_on_c, 1, 56, 60
19, 348928, Note_on_c, 1, 60, 60
19, 348928, Note_on_c, 1, 66, 60
19, 348979, Note_off_c, 1, 50, 0
19, 348979, Note_off_c, 1, 56, 0
19, 348979, Note_off_c, 1, 60, 0
19, 348979, Note_off_c, 1, 66, 0
19, 348992, Note_on_c, 1, 50, 60
19, 348992, Note_on_c, 1, 56, 60
19, 348992, Note_on_c, 1, 60, 60
19, 348992, Note_on_c, 1, 66, 60
19, 349043, Note_off_c, 1, 50, 0
19, 349043, Note_off_c, 1, 56, 0
19, 349043, Note_off_c, 1, 60, 0
19, 349043, Note_off_c, 1, 66, 0
19, 349056, Note_on_c, 1, 50, 60
19, 349056, Note_on_c, 1, 56, 60
19, 349056, Note_on_c, 1, 60, 60
19, 349056, Note_on_c, 1, 66, 60
19, 349107, Note_off_c, 1, 50, 0
19, 349107, Note_off_c, 1, 56, 0
19, 349107, Note_off_c, 1, 60, 0
19, 349107, Note_off_c, 1, 66, 0
19, 349120, Note_on_c, 1, 50, 60
19, 349120, Note_on_c, 1, 56, 60
19, 349120, Note_on_c, 1, 60, 60
19, 349120, Note_on_c, 1, 66, 60
19, 349171, Note_off_c, 1, 50, 0
19, 349171, Note_off_c, 1, 56, 0
19, 349171, Note_off_c, 1, 60, 0
19, 349171, Note_off_c, 1, 66, 0
19, 349312, Note_on_c, 1, 50, 54
19, 349312, Note_on_c, 1, 56, 54
19, 349312, Note_on_c, 1, 60, 54
19, 349312, Note_on_c, 1, 66, 54
19, 349376, Note_off_c, 1, 50, 0
19, 349376, Note_off_c, 1, 56, 0
19, 349376, Note_off_c, 1, 60, 0
19, 349376, Note_off_c, 1, 66, 0
19, 349376, Note_on_c, 1, 50, 58
19, 349376, Note_on_c, 1, 56, 58
19, 349376, Note_on_c, 1, 60, 58
19, 349376, Note_on_c, 1, 66, 58
19, 349440, Note_off_c, 1, 50, 0
19, 349440, Note_off_c, 1, 56, 0
19, 349440, Note_off_c, 1, 60, 0
19, 349440, Note_off_c, 1, 66, 0
19, 349440, Note_on_c, 1, 50, 61
19, 349440, Note_on_c, 1, 56, 61
19, 349440, Note_on_c, 1, 60, 61
19, 349440, Note_on_c, 1, 66, 61
19, 349491, Note_off_c, 1, 50, 0
19, 349491, Note_off_c, 1, 56, 0
19, 349491, Note_off_c, 1, 60, 0
19, 349491, Note_off_c, 1, 66, 0
19, 349504, Note_on_c, 1, 50, 61
19, 349504, Note_on_c, 1, 56, 61
19, 349504, Note_on_c, 1, 60, 61
19, 349504, Note_on_c, 1, 66, 61
19, 349555, Note_off_c, 1, 50, 0
19, 349555, Note_off_c, 1, 56, 0
19, 349555, Note_off_c, 1, 60, 0
19, 349555, Note_off_c, 1, 66, 0
19, 349568, Note_on_c, 1, 50, 61
19, 349568, Note_on_c, 1, 56, 61
19, 349568, Note_on_c, 1, 60, 61
19, 349568, Note_on_c, 1, 66, 61
19, 349619, Note_off_c, 1, 50, 0
19, 349619, Note_off_c, 1, 56, 0
19, 349619, Note_off_c, 1, 60, 0
19, 349619, Note_off_c, 1, 66, 0
19, 349632, Note_on_c, 1, 50, 61
19, 349632, Note_on_c, 1, 56, 61
19, 349632, Note_on_c, 1, 60, 61
19, 349632, Note_on_c, 1, 66, 61
19, 349683, Note_off_c, 1, 50, 0
19, 349683, Note_off_c, 1, 56, 0
19, 349683, Note_off_c, 1, 60, 0
19, 349683, Note_off_c, 1, 66, 0
19, 349824, Note_on_c, 1, 50, 55
19, 349824, Note_on_c, 1, 56, 55
19, 349824, Note_on_c, 1, 60, 55
19, 349824, Note_on_c, 1, 66, 55
19, 349888, Note_off_c, 1, 50, 0
19, 349888, Note_off_c, 1, 56, 0
19, 349888, Note_off_c, 1, 60, 0
19, 349888, Note_off_c, 1, 66, 0
19, 349888, Note_on_c, 1, 50, 59
19, 349888, Note_on_c, 1, 56, 59
19, 349888, Note_on_c, 1, 60, 59
19, 349888, Note_on_c, 1, 66, 59
19, 349952, Note_off_c, 1, 50, 0
19, 349952, Note_off_c, 1, 56, 0
19, 349952, Note_off_c, 1, 60, 0
19, 349952, Note_off_c, 1, 66, 0
19, 349952, Note_on_c, 1, 50, 64
19, 349952, Note_on_c, 1, 56, 64
19, 349952, Note_on_c, 1, 60, 64
19, 349952, Note_on_c, 1, 66, 64
19, 350016, Note_off_c, 1, 50, 0
19, 350016, Note_off_c, 1, 56, 0
19, 350016, Note_off_c, 1, 60, 0
19, 350016, Note_off_c, 1, 66, 0
19, 350080, Note_on_c, 1, 50, 51
19, 350080, Note_on_c, 1, 56, 51
19, 350080, Note_on_c, 1, 60, 51
19, 350080, Note_on_c, 1, 66, 51
19, 350144, Note_off_c, 1, 50, 0
19, 350144, Note_off_c, 1, 56, 0
19, 350144, Note_off_c, 1, 60, 0
19, 350144, Note_off_c, 1, 66, 0
19, 350144, Note_on_c, 1, 50, 58
19, 350144, Note_on_c, 1, 56, 58
19, 350144, Note_on_c, 1, 60, 58
19, 350144, Note_on_c, 1, 66, 58
19, 350208, Note_off_c, 1, 50, 0
19, 350208, Note_off_c, 1, 56, 0
19, 350208, Note_off_c, 1, 60, 0
19, 350208, Note_off_c, 1, 66, 0
19, 350208, Note_on_c, 1, 50, 62
19, 350208, Note_on_c, 1, 56, 62
19, 350208, Note_on_c, 1, 60, 62
19, 350208, Note_on_c, 1, 66, 62
19, 350272, Note_off_c, 1, 50, 0
19, 350272, Note_off_c, 1, 56, 0
19, 350272, Note_off_c, 1, 60, 0
19, 350272, Note_off_c, 1, 66, 0
19, 350272, Note_on_c, 1, 50, 60
19, 350272, Note_on_c, 1, 56, 60
19, 350272, Note_on_c, 1, 60, 60
19, 350272, Note_on_c, 1, 66, 60
19, 350336, Note_off_c, 1, 50, 0
19, 350336, Note_off_c, 1, 56, 0
19, 350336, Note_off_c, 1, 60, 0
19, 350336, Note_off_c, 1, 66, 0
19, 350400, Note_on_c, 1, 50, 58
19, 350400, Note_on_c, 1, 56, 58
19, 350400, Note_on_c, 1, 60, 58
19, 350400, Note_on_c, 1, 66, 58
19, 350464, Note_off_c, 1, 50, 0
19, 350464, Note_off_c, 1, 56, 0
19, 350464, Note_off_c, 1, 60, 0
19, 350464, Note_off_c, 1, 66, 0
19, 350464, Note_on_c, 1, 50, 65
19, 350464, Note_on_c, 1, 56, 65
19, 350464, Note_on_c, 1, 60, 65
19, 350464, Note_on_c, 1, 66, 65
19, 350528, Note_off_c, 1, 50, 0
19, 350528, Note_off_c, 1, 56, 0
19, 350528, Note_off_c, 1, 60, 0
19, 350528, Note_off_c, 1, 66, 0
19, 350528, Note_on_c, 1, 50, 65
19, 350528, Note_on_c, 1, 56, 65
19, 350528, Note_on_c, 1, 60, 65
19, 350528, Note_on_c, 1, 66, 65
19, 350592, Note_off_c, 1, 50, 0
19, 350592, Note_off_c, 1, 56, 0
19, 350592, Note_off_c, 1, 60, 0
19, 350592, Note_off_c, 1, 66, 0
19, 350592, Note_on_c, 1, 50, 59
19, 350592, Note_on_c, 1, 56, 59
19, 350592, Note_on_c, 1, 60, 59
19, 350592, Note_on_c, 1, 66, 59
19, 350656, Note_off_c, 1, 50, 0
19, 350656, Note_off_c, 1, 56, 0
19, 350656, Note_off_c, 1, 60, 0
19, 350656, Note_off_c, 1, 66, 0
19, 350720, Note_on_c, 1, 53, 54
19, 350720, Note_on_c, 1, 59, 54
19, 350720, Note_on_c, 1, 62, 54
19, 350720, Note_on_c, 1, 67, 54
19, 350771, Note_off_c, 1, 53, 0
19, 350771, Note_off_c, 1, 59, 0
19, 350771, Note_off_c, 1, 62, 0
19, 350771, Note_off_c, 1, 67, 0
19, 350784, Note_on_c, 1, 53, 54
19, 350784, Note_on_c, 1, 59, 54
19, 350784, Note_on_c, 1, 62, 54
19, 350784, Note_on_c, 1, 67, 54
19, 350835, Note_off_c, 1, 53, 0
19, 350835, Note_off_c, 1, 59, 0
19, 350835, Note_off_c, 1, 62, 0
19, 350835, Note_off_c, 1, 67, 0
19, 350848, Note_on_c, 1, 53, 54
19, 350848, Note_on_c, 1, 59, 54
19, 350848, Note_on_c, 1, 62, 54
19, 350848, Note_on_c, 1, 67, 54
19, 350899, Note_off_c, 1, 53, 0
19, 350899, Note_off_c, 1, 59, 0
19, 350899, Note_off_c, 1, 62, 0
19, 350899, Note_off_c, 1, 67, 0
19, 350912, Note_on_c, 1, 53, 54
19, 350912, Note_on_c, 1, 59, 54
19, 350912, Note_on_c, 1, 62, 54
19, 350912, Note_on_c, 1, 67, 54
19, 350963, Note_off_c, 1, 53, 0
19, 350963, Note_off_c, 1, 59, 0
19, 350963, Note_off_c, 1, 62, 0
19, 350963, Note_off_c, 1, 67, 0
19, 351104, Note_on_c, 1, 53, 57
19, 351104, Note_on_c, 1, 59, 57
19, 351104, Note_on_c, 1, 62, 57
19, 351104, Note_on_c, 1, 67, 57
19, 351168, Note_off_c, 1, 53, 0
19, 351168, Note_off_c, 1, 59, 0
19, 351168, Note_off_c, 1, 62, 0
19, 351168, Note_off_c, 1, 67, 0
19, 351168, Note_on_c, 1, 53, 56
19, 351168, Note_on_c, 1, 59, 56
19, 351168, Note_on_c, 1, 62, 56
19, 351168, Note_on_c, 1, 67, 56
19, 351232, Note_off_c, 1, 53, 0
19, 351232, Note_off_c, 1, 59, 0
19, 351232, Note_off_c, 1, 62, 0
19, 351232, Note_off_c, 1, 67, 0
19, 351232, Note_on_c, 1, 53, 61
19, 351232, Note_on_c, 1, 59, 61
19, 351232, Note_on_c, 1, 62, 61
19, 351232, Note_on_c, 1, 67, 61
19, 351283, Note_off_c, 1, 53, 0
19, 351283, Note_off_c, 1, 59, 0
19, 351283, Note_off_c, 1, 62, 0
19, 351283, Note_off_c, 1, 67, 0
19, 351296, Note_on_c, 1, 53, 61
19, 351296, Note_on_c, 1, 59, 61
19, 351296, Note_on_c, 1, 62, 61
19, 351296, Note_on_c, 1, 67, 61
19, 351347, Note_off_c, 1, 53, 0
19, 351347, Note_off_c, 1, 59, 0
19, 351347, Note_off_c, 1, 62, 0
19, 351347, Note_off_c, 1, 67, 0
19, 351360, Note_on_c, 1, 53, 61
19, 351360, Note_on_c, 1, 59, 61
19, 351360, Note_on_c, 1, 62, 61
19, 351360, Note_on_c, 1, 67, 61
19, 351411, Note_off_c, 1, 53, 0
19, 351411, Note_off_c, 1, 59, 0
19, 351411, Note_off_c, 1, 62, 0
19, 351411, Note_off_c, 1, 67, 0
19, 351424, Note_on_c, 1, 53, 61
19, 351424, Note_on_c, 1, 59, 61
19, 351424, Note_on_c, 1, 62, 61
19, 351424, Note_on_c, 1, 67, 61
19, 351475, Note_off_c, 1, 53, 0
19, 351475, Note_off_c, 1, 59, 0
19, 351475, Note_off_c, 1, 62, 0
19, 351475, Note_off_c, 1, 67, 0
19, 351616, Note_on_c, 1, 53, 55
19, 351616, Note_on_c, 1, 59, 55
19, 351616, Note_on_c, 1, 62, 55
19, 351616, Note_on_c, 1, 67, 55
19, 351680, Note_off_c, 1, 53, 0
19, 351680, Note_off_c, 1, 59, 0
19, 351680, Note_off_c, 1, 62, 0
19, 351680, Note_off_c, 1, 67, 0
19, 351680, Note_on_c, 1, 53, 57
19, 351680, Note_on_c, 1, 59, 57
19, 351680, Note_on_c, 1, 62, 57
19, 351680, Note_on_c, 1, 67, 57
19, 351744, Note_off_c, 1, 53, 0
19, 351744, Note_off_c, 1, 59, 0
19, 351744, Note_off_c, 1, 62, 0
19, 351744, Note_off_c, 1, 67, 0
19, 351744, Note_on_c, 1, 53, 62
19, 351744, Note_on_c, 1, 59, 62
19, 351744, Note_on_c, 1, 62, 62
19, 351744, Note_on_c, 1, 67, 62
19, 351795, Note_off_c, 1, 53, 0
19, 351795, Note_off_c, 1, 59, 0
19, 351795, Note_off_c, 1, 62, 0
19, 351795, Note_off_c, 1, 67, 0
19, 351808, Note_on_c, 1, 53, 62
19, 351808, Note_on_c, 1, 59, 62
19, 351808, Note_on_c, 1, 62, 62
19, 351808, Note_on_c, 1, 67, 62
19, 351859, Note_off_c, 1, 53, 0
19, 351859, Note_off_c, 1, 59, 0
19, 351859, Note_off_c, 1, 62, 0
19, 351859, Note_off_c, 1, 67, 0
19, 351872, Note_on_c, 1, 53, 62
19, 351872, Note_on_c, 1, 59, 62
19, 351872, Note_on_c, 1, 62, 62
19, 351872, Note_on_c, 1, 67, 62
19, 351923, Note_off_c, 1, 53, 0
19, 351923, Note_off_c, 1, 59, 0
19, 351923, Note_off_c, 1, 62, 0
19, 351923, Note_off_c, 1, 67, 0
19, 351936, Note_on_c, 1, 53, 62
19, 351936, Note_on_c, 1, 59, 62
19, 351936, Note_on_c, 1, 62, 62
19, 351936, Note_on_c, 1, 67, 62
19, 351987, Note_off_c, 1, 53, 0
19, 351987, Note_off_c, 1, 59, 0
19, 351987, Note_off_c, 1, 62, 0
19, 351987, Note_off_c, 1, 67, 0
19, 352000, Note_on_c, 1, 53, 59
19, 352000, Note_on_c, 1, 59, 59
19, 352000, Note_on_c, 1, 62, 59
19, 352000, Note_on_c, 1, 67, 59
19, 352051, Note_off_c, 1, 53, 0
19, 352051, Note_off_c, 1, 59, 0
19, 352051, Note_off_c, 1, 62, 0
19, 352051, Note_off_c, 1, 67, 0
19, 352064, Note_on_c, 1, 53, 59
19, 352064, Note_on_c, 1, 59, 59
19, 352064, Note_on_c, 1, 62, 59
19, 352064, Note_on_c, 1, 67, 59
19, 352115, Note_off_c, 1, 53, 0
19, 352115, Note_off_c, 1, 59, 0
19, 352115, Note_off_c, 1, 62, 0
19, 352115, Note_off_c, 1, 67, 0
19, 352128, Note_on_c, 1, 53, 59
19, 352128, Note_on_c, 1, 59, 59
19, 352128, Note_on_c, 1, 62, 59
19, 352128, Note_on_c, 1, 67, 59
19, 352179, Note_off_c, 1, 53, 0
19, 352179, Note_off_c, 1, 59, 0
19, 352179, Note_off_c, 1, 62, 0
19, 352179, Note_off_c, 1, 67, 0
19, 352192, Note_on_c, 1, 53, 59
19, 352192, Note_on_c, 1, 59, 59
19, 352192, Note_on_c, 1, 62, 59
19, 352192, Note_on_c, 1, 67, 59
19, 352243, Note_off_c, 1, 53, 0
19, 352243, Note_off_c, 1, 59, 0
19, 352243, Note_off_c, 1, 62, 0
19, 352243, Note_off_c, 1, 67, 0
19, 352320, Note_on_c, 1, 53, 57
19, 352320, Note_on_c, 1, 59, 57
19, 352320, Note_on_c, 1, 62, 57
19, 352320, Note_on_c, 1, 67, 57
19, 352384, Note_off_c, 1, 53, 0
19, 352384, Note_off_c, 1, 59, 0
19, 352384, Note_off_c, 1, 62, 0
19, 352384, Note_off_c, 1, 67, 0
19, 352384, Note_on_c, 1, 53, 60
19, 352384, Note_on_c, 1, 59, 60
19, 352384, Note_on_c, 1, 62, 60
19, 352384, Note_on_c, 1, 67, 60
19, 352448, Note_off_c, 1, 53, 0
19, 352448, Note_off_c, 1, 59, 0
19, 352448, Note_off_c, 1, 62, 0
19, 352448, Note_off_c, 1, 67, 0
19, 352448, Note_on_c, 1, 53, 60
19, 352448, Note_on_c, 1, 59, 60
19, 352448, Note_on_c, 1, 62, 60
19, 352448, Note_on_c, 1, 67, 60
19, 352512, Note_off_c, 1, 53, 0
19, 352512, Note_off_c, 1, 59, 0
19, 352512, Note_off_c, 1, 62, 0
19, 352512, Note_off_c, 1, 67, 0
19, 352512, Note_on_c, 1, 53, 62
19, 352512, Note_on_c, 1, 59, 62
19, 352512, Note_on_c, 1, 62, 62
19, 352512, Note_on_c, 1, 67, 62
19, 352563, Note_off_c, 1, 53, 0
19, 352563, Note_off_c, 1, 59, 0
19, 352563, Note_off_c, 1, 62, 0
19, 352563, Note_off_c, 1, 67, 0
19, 352576, Note_on_c, 1, 53, 62
19, 352576, Note_on_c, 1, 59, 62
19, 352576, Note_on_c, 1, 62, 62
19, 352576, Note_on_c, 1, 67, 62
19, 352627, Note_off_c, 1, 53, 0
19, 352627, Note_off_c, 1, 59, 0
19, 352627, Note_off_c, 1, 62, 0
19, 352627, Note_off_c, 1, 67, 0
19, 352640, Note_on_c, 1, 53, 62
19, 352640, Note_on_c, 1, 59, 62
19, 352640, Note_on_c, 1, 62, 62
19, 352640, Note_on_c, 1, 67, 62
19, 352691, Note_off_c, 1, 53, 0
19, 352691, Note_off_c, 1, 59, 0
19, 352691, Note_off_c, 1, 62, 0
19, 352691, Note_off_c, 1, 67, 0
19, 352704, Note_on_c, 1, 53, 62
19, 352704, Note_on_c, 1, 59, 62
19, 352704, Note_on_c, 1, 62, 62
19, 352704, Note_on_c, 1, 67, 62
19, 352755, Note_off_c, 1, 53, 0
19, 352755, Note_off_c, 1, 59, 0
19, 352755, Note_off_c, 1, 62, 0
19, 352755, Note_off_c, 1, 67, 0
19, 352768, Note_on_c, 1, 53, 59
19, 352768, Note_on_c, 1, 59, 59
19, 352768, Note_on_c, 1, 62, 59
19, 352768, Note_on_c, 1, 67, 59
19, 352819, Note_off_c, 1, 53, 0
19, 352819, Note_off_c, 1, 59, 0
19, 352819, Note_off_c, 1, 62, 0
19, 352819, Note_off_c, 1, 67, 0
19, 352832, Note_on_c, 1, 53, 59
19, 352832, Note_on_c, 1, 59, 59
19, 352832, Note_on_c, 1, 62, 59
19, 352832, Note_on_c, 1, 67, 59
19, 352883, Note_off_c, 1, 53, 0
19, 352883, Note_off_c, 1, 59, 0
19, 352883, Note_off_c, 1, 62, 0
19, 352883, Note_off_c, 1, 67, 0
19, 352896, Note_on_c, 1, 53, 59
19, 352896, Note_on_c, 1, 59, 59
19, 352896, Note_on_c, 1, 62, 59
19, 352896, Note_on_c, 1, 67, 59
19, 352947, Note_off_c, 1, 53, 0
19, 352947, Note_off_c, 1, 59, 0
19, 352947, Note_off_c, 1, 62, 0
19, 352947, Note_off_c, 1, 67, 0
19, 352960, Note_on_c, 1, 53, 59
19, 352960, Note_on_c, 1, 59, 59
19, 352960, Note_on_c, 1, 62, 59
19, 352960, Note_on_c, 1, 67, 59
19, 353011, Note_off_c, 1, 53, 0
19, 353011, Note_off_c, 1, 59, 0
19, 353011, Note_off_c, 1, 62, 0
19, 353011, Note_off_c, 1, 67, 0
19, 353280, Note_on_c, 1, 53, 60
19, 353280, Note_on_c, 1, 59, 60
19, 353280, Note_on_c, 1, 62, 60
19, 353280, Note_on_c, 1, 67, 60
19, 353331, Note_off_c, 1, 53, 0
19, 353331, Note_off_c, 1, 59, 0
19, 353331, Note_off_c, 1, 62, 0
19, 353331, Note_off_c, 1, 67, 0
19, 353344, Note_on_c, 1, 53, 60
19, 353344, Note_on_c, 1, 59, 60
19, 353344, Note_on_c, 1, 62, 60
19, 353344, Note_on_c, 1, 67, 60
19, 353395, Note_off_c, 1, 53, 0
19, 353395, Note_off_c, 1, 59, 0
19, 353395, Note_off_c, 1, 62, 0
19, 353395, Note_off_c, 1, 67, 0
19, 353408, Note_on_c, 1, 53, 60
19, 353408, Note_on_c, 1, 59, 60
19, 353408, Note_on_c, 1, 62, 60
19, 353408, Note_on_c, 1, 67, 60
19, 353459, Note_off_c, 1, 53, 0
19, 353459, Note_off_c, 1, 59, 0
19, 353459, Note_off_c, 1, 62, 0
19, 353459, Note_off_c, 1, 67, 0
19, 353472, Note_on_c, 1, 53, 60
19, 353472, Note_on_c, 1, 59, 60
19, 353472, Note_on_c, 1, 62, 60
19, 353472, Note_on_c, 1, 67, 60
19, 353523, Note_off_c, 1, 53, 0
19, 353523, Note_off_c, 1, 59, 0
19, 353523, Note_off_c, 1, 62, 0
19, 353523, Note_off_c, 1, 67, 0
19, 353536, Note_on_c, 1, 53, 63
19, 353536, Note_on_c, 1, 59, 63
19, 353536, Note_on_c, 1, 62, 63
19, 353536, Note_on_c, 1, 67, 63
19, 353587, Note_off_c, 1, 53, 0
19, 353587, Note_off_c, 1, 59, 0
19, 353587, Note_off_c, 1, 62, 0
19, 353587, Note_off_c, 1, 67, 0
19, 353600, Note_on_c, 1, 53, 63
19, 353600, Note_on_c, 1, 59, 63
19, 353600, Note_on_c, 1, 62, 63
19, 353600, Note_on_c, 1, 67, 63
19, 353651, Note_off_c, 1, 53, 0
19, 353651, Note_off_c, 1, 59, 0
19, 353651, Note_off_c, 1, 62, 0
19, 353651, Note_off_c, 1, 67, 0
19, 353664, Note_on_c, 1, 53, 63
19, 353664, Note_on_c, 1, 59, 63
19, 353664, Note_on_c, 1, 62, 63
19, 353664, Note_on_c, 1, 67, 63
19, 353715, Note_off_c, 1, 53, 0
19, 353715, Note_off_c, 1, 59, 0
19, 353715, Note_off_c, 1, 62, 0
19, 353715, Note_off_c, 1, 67, 0
19, 353728, Note_on_c, 1, 53, 63
19, 353728, Note_on_c, 1, 59, 63
19, 353728, Note_on_c, 1, 62, 63
19, 353728, Note_on_c, 1, 67, 63
19, 353779, Note_off_c, 1, 53, 0
19, 353779, Note_off_c, 1, 59, 0
19, 353779, Note_off_c, 1, 62, 0
19, 353779, Note_off_c, 1, 67, 0
19, 353792, Note_on_c, 1, 53, 57
19, 353792, Note_on_c, 1, 59, 57
19, 353792, Note_on_c, 1, 62, 57
19, 353792, Note_on_c, 1, 67, 57
19, 353843, Note_off_c, 1, 53, 0
19, 353843, Note_off_c, 1, 59, 0
19, 353843, Note_off_c, 1, 62, 0
19, 353843, Note_off_c, 1, 67, 0
19, 353856, Note_on_c, 1, 53, 57
19, 353856, Note_on_c, 1, 59, 57
19, 353856, Note_on_c, 1, 62, 57
19, 353856, Note_on_c, 1, 67, 57
19, 353907, Note_off_c, 1, 53, 0
19, 353907, Note_off_c, 1, 59, 0
19, 353907, Note_off_c, 1, 62, 0
19, 353907, Note_off_c, 1, 67, 0
19, 353920, Note_on_c, 1, 53, 57
19, 353920, Note_on_c, 1, 59, 57
19, 353920, Note_on_c, 1, 62, 57
19, 353920, Note_on_c, 1, 67, 57
19, 353971, Note_off_c, 1, 53, 0
19, 353971, Note_off_c, 1, 59, 0
19, 353971, Note_off_c, 1, 62, 0
19, 353971, Note_off_c, 1, 67, 0
19, 353984, Note_on_c, 1, 53, 57
19, 353984, Note_on_c, 1, 59, 57
19, 353984, Note_on_c, 1, 62, 57
19, 353984, Note_on_c, 1, 67, 57
19, 354035, Note_off_c, 1, 53, 0
19, 354035, Note_off_c, 1, 59, 0
19, 354035, Note_off_c, 1, 62, 0
19, 354035, Note_off_c, 1, 67, 0
19, 354048, Note_on_c, 1, 53, 61
19, 354048, Note_on_c, 1, 59, 61
19, 354048, Note_on_c, 1, 62, 61
19, 354048, Note_on_c, 1, 67, 61
19, 354099, Note_off_c, 1, 53, 0
19, 354099, Note_off_c, 1, 59, 0
19, 354099, Note_off_c, 1, 62, 0
19, 354099, Note_off_c, 1, 67, 0
19, 354112, Note_on_c, 1, 53, 61
19, 354112, Note_on_c, 1, 59, 61
19, 354112, Note_on_c, 1, 62, 61
19, 354112, Note_on_c, 1, 67, 61
19, 354163, Note_off_c, 1, 53, 0
19, 354163, Note_off_c, 1, 59, 0
19, 354163, Note_off_c, 1, 62, 0
19, 354163, Note_off_c, 1, 67, 0
19, 354176, Note_on_c, 1, 53, 61
19, 354176, Note_on_c, 1, 59, 61
19, 354176, Note_on_c, 1, 62, 61
19, 354176, Note_on_c, 1, 67, 61
19, 354227, Note_off_c, 1, 53, 0
19, 354227, Note_off_c, 1, 59, 0
19, 354227, Note_off_c, 1, 62, 0
19, 354227, Note_off_c, 1, 67, 0
19, 354240, Note_on_c, 1, 53, 61
19, 354240, Note_on_c, 1, 59, 61
19, 354240, Note_on_c, 1, 62, 61
19, 354240, Note_on_c, 1, 67, 61
19, 354291, Note_off_c, 1, 53, 0
19, 354291, Note_off_c, 1, 59, 0
19, 354291, Note_off_c, 1, 62, 0
19, 354291, Note_off_c, 1, 67, 0
19, 354368, Note_on_c, 1, 53, 57
19, 354368, Note_on_c, 1, 59, 57
19, 354368, Note_on_c, 1, 62, 57
19, 354368, Note_on_c, 1, 67, 57
19, 354432, Note_off_c, 1, 53, 0
19, 354432, Note_off_c, 1, 59, 0
19, 354432, Note_off_c, 1, 62, 0
19, 354432, Note_off_c, 1, 67, 0
19, 354432, Note_on_c, 1, 53, 60
19, 354432, Note_on_c, 1, 59, 60
19, 354432, Note_on_c, 1, 62, 60
19, 354432, Note_on_c, 1, 67, 60
19, 354496, Note_off_c, 1, 53, 0
19, 354496, Note_off_c, 1, 59, 0
19, 354496, Note_off_c, 1, 62, 0
19, 354496, Note_off_c, 1, 67, 0
19, 354496, Note_on_c, 1, 53, 65
19, 354496, Note_on_c, 1, 59, 65
19, 354496, Note_on_c, 1, 62, 65
19, 354496, Note_on_c, 1, 67, 65
19, 354560, Note_off_c, 1, 53, 0
19, 354560, Note_off_c, 1, 59, 0
19, 354560, Note_off_c, 1, 62, 0
19, 354560, Note_off_c, 1, 67, 0
19, 354560, Note_on_c, 1, 53, 60
19, 354560, Note_on_c, 1, 59, 60
19, 354560, Note_on_c, 1, 62, 60
19, 354560, Note_on_c, 1, 67, 60
19, 354624, Note_off_c, 1, 53, 0
19, 354624, Note_off_c, 1, 59, 0
19, 354624, Note_off_c, 1, 62, 0
19, 354624, Note_off_c, 1, 67, 0
19, 354624, Note_on_c, 1, 53, 60
19, 354624, Note_on_c, 1, 59, 60
19, 354624, Note_on_c, 1, 62, 60
19, 354624, Note_on_c, 1, 67, 60
19, 354688, Note_off_c, 1, 53, 0
19, 354688, Note_off_c, 1, 59, 0
19, 354688, Note_off_c, 1, 62, 0
19, 354688, Note_off_c, 1, 67, 0
19, 354688, Note_on_c, 1, 53, 60
19, 354688, Note_on_c, 1, 59, 60
19, 354688, Note_on_c, 1, 62, 60
19, 354688, Note_on_c, 1, 67, 60
19, 354752, Note_off_c, 1, 53, 0
19, 354752, Note_off_c, 1, 59, 0
19, 354752, Note_off_c, 1, 62, 0
19, 354752, Note_off_c, 1, 67, 0
19, 354880, Note_on_c, 1, 53, 53
19, 354880, Note_on_c, 1, 59, 53
19, 354880, Note_on_c, 1, 62, 53
19, 354880, Note_on_c, 1, 67, 53
19, 354944, Note_off_c, 1, 53, 0
19, 354944, Note_off_c, 1, 59, 0
19, 354944, Note_off_c, 1, 62, 0
19, 354944, Note_off_c, 1, 67, 0
19, 354944, Note_on_c, 1, 53, 57
19, 354944, Note_on_c, 1, 59, 57
19, 354944, Note_on_c, 1, 62, 57
19, 354944, Note_on_c, 1, 67, 57
19, 355008, Note_off_c, 1, 53, 0
19, 355008, Note_off_c, 1, 59, 0
19, 355008, Note_off_c, 1, 62, 0
19, 355008, Note_off_c, 1, 67, 0
19, 355008, Note_on_c, 1, 53, 61
19, 355008, Note_on_c, 1, 59, 61
19, 355008, Note_on_c, 1, 62, 61
19, 355008, Note_on_c, 1, 67, 61
19, 355072, Note_off_c, 1, 53, 0
19, 355072, Note_off_c, 1, 59, 0
19, 355072, Note_off_c, 1, 62, 0
19, 355072, Note_off_c, 1, 67, 0
19, 355136, Note_on_c, 1, 53, 53
19, 355136, Note_on_c, 1, 59, 53
19, 355136, Note_on_c, 1, 62, 53
19, 355136, Note_on_c, 1, 67, 53
19, 355200, Note_off_c, 1, 53, 0
19, 355200, Note_off_c, 1, 59, 0
19, 355200, Note_off_c, 1, 62, 0
19, 355200, Note_off_c, 1, 67, 0
19, 355200, Note_on_c, 1, 53, 59
19, 355200, Note_on_c, 1, 59, 59
19, 355200, Note_on_c, 1, 62, 59
19, 355200, Note_on_c, 1, 67, 59
19, 355264, Note_off_c, 1, 53, 0
19, 355264, Note_off_c, 1, 59, 0
19, 355264, Note_off_c, 1, 62, 0
19, 355264, Note_off_c, 1, 67, 0
19, 355264, Note_on_c, 1, 53, 65
19, 355264, Note_on_c, 1, 59, 65
19, 355264, Note_on_c, 1, 62, 65
19, 355264, Note_on_c, 1, 67, 65
19, 355328, Note_off_c, 1, 53, 0
19, 355328, Note_off_c, 1, 59, 0
19, 355328, Note_off_c, 1, 62, 0
19, 355328, Note_off_c, 1, 67, 0
19, 355328, Note_on_c, 1, 53, 60
19, 355328, Note_on_c, 1, 59, 60
19, 355328, Note_on_c, 1, 62, 60
19, 355328, Note_on_c, 1, 67, 60
19, 355379, Note_off_c, 1, 53, 0
19, 355379, Note_off_c, 1, 59, 0
19, 355379, Note_off_c, 1, 62, 0
19, 355379, Note_off_c, 1, 67, 0
19, 355392, Note_on_c, 1, 53, 60
19, 355392, Note_on_c, 1, 59, 60
19, 355392, Note_on_c, 1, 62, 60
19, 355392, Note_on_c, 1, 67, 60
19, 355443, Note_off_c, 1, 53, 0
19, 355443, Note_off_c, 1, 59, 0
19, 355443, Note_off_c, 1, 62, 0
19, 355443, Note_off_c, 1, 67, 0
19, 355456, Note_on_c, 1, 53, 60
19, 355456, Note_on_c, 1, 59, 60
19, 355456, Note_on_c, 1, 62, 60
19, 355456, Note_on_c, 1, 67, 60
19, 355507, Note_off_c, 1, 53, 0
19, 355507, Note_off_c, 1, 59, 0
19, 355507, Note_off_c, 1, 62, 0
19, 355507, Note_off_c, 1, 67, 0
19, 355520, Note_on_c, 1, 53, 60
19, 355520, Note_on_c, 1, 59, 60
19, 355520, Note_on_c, 1, 62, 60
19, 355520, Note_on_c, 1, 67, 60
19, 355571, Note_off_c, 1, 53, 0
19, 355571, Note_off_c, 1, 59, 0
19, 355571, Note_off_c, 1, 62, 0
19, 355571, Note_off_c, 1, 67, 0
19, 355584, Note_on_c, 1, 53, 59
19, 355584, Note_on_c, 1, 59, 59
19, 355584, Note_on_c, 1, 62, 59
19, 355584, Note_on_c, 1, 67, 59
19, 355648, Note_off_c, 1, 53, 0
19, 355648, Note_off_c, 1, 59, 0
19, 355648, Note_off_c, 1, 62, 0
19, 355648, Note_off_c, 1, 67, 0
19, 355648, Note_on_c, 1, 53, 57
19, 355648, Note_on_c, 1, 59, 57
19, 355648, Note_on_c, 1, 62, 57
19, 355648, Note_on_c, 1, 67, 57
19, 355712, Note_off_c, 1, 53, 0
19, 355712, Note_off_c, 1, 59, 0
19, 355712, Note_off_c, 1, 62, 0
19, 355712, Note_off_c, 1, 67, 0
19, 355713, End_track
20, 0, Start_track
20, 0, Program_c, 12, 46
20, 0, Control_c, 12, 121, 0
20, 0, Control_c, 12, 64, 0
20, 0, Control_c, 12, 91, 72
20, 0, Control_c, 12, 10, 111
20, 0, Control_c, 12, 7, 91
20, 0, Control_c, 12, 121, 0
20, 0, Control_c, 12, 64, 0
20, 0, Control_c, 12, 91, 72
20, 0, Control_c, 12, 10, 111
20, 0, Control_c, 12, 7, 91
20, 0, Title_t, "Harp"
20, 0, Note_on_c, 12, 56, 55
20, 0, Note_on_c, 12, 60, 55
20, 0, Note_on_c, 12, 63, 55
20, 128, Note_off_c, 12, 56, 0
20, 128, Note_off_c, 12, 60, 0
20, 128, Note_off_c, 12, 63, 0
20, 128, Note_on_c, 12, 56, 63
20, 128, Note_on_c, 12, 60, 63
20, 128, Note_on_c, 12, 63, 63
20, 256, Note_off_c, 12, 56, 0
20, 256, Note_off_c, 12, 60, 0
20, 256, Note_off_c, 12, 63, 0
20, 256, Note_on_c, 12, 56, 62
20, 256, Note_on_c, 12, 60, 62
20, 256, Note_on_c, 12, 63, 62
20, 384, Note_off_c, 12, 56, 0
20, 384, Note_off_c, 12, 60, 0
20, 384, Note_off_c, 12, 63, 0
20, 384, Note_on_c, 12, 56, 63
20, 384, Note_on_c, 12, 60, 63
20, 384, Note_on_c, 12, 63, 63
20, 512, Note_off_c, 12, 56, 0
20, 512, Note_off_c, 12, 60, 0
20, 512, Note_off_c, 12, 63, 0
20, 512, Note_on_c, 12, 56, 63
20, 512, Note_on_c, 12, 60, 63
20, 512, Note_on_c, 12, 63, 63
20, 640, Note_off_c, 12, 56, 0
20, 640, Note_off_c, 12, 60, 0
20, 640, Note_off_c, 12, 63, 0
20, 640, Note_on_c, 12, 56, 62
20, 640, Note_on_c, 12, 60, 62
20, 640, Note_on_c, 12, 63, 62
20, 768, Note_off_c, 12, 56, 0
20, 768, Note_off_c, 12, 60, 0
20, 768, Note_off_c, 12, 63, 0
20, 768, Note_on_c, 12, 56, 62
20, 768, Note_on_c, 12, 60, 62
20, 768, Note_on_c, 12, 63, 62
20, 896, Note_off_c, 12, 56, 0
20, 896, Note_off_c, 12, 60, 0
20, 896, Note_off_c, 12, 63, 0
20, 896, Note_on_c, 12, 56, 59
20, 896, Note_on_c, 12, 60, 59
20, 896, Note_on_c, 12, 63, 59
20, 1024, Note_off_c, 12, 56, 0
20, 1024, Note_off_c, 12, 60, 0
20, 1024, Note_off_c, 12, 63, 0
20, 1024, Note_on_c, 12, 56, 59
20, 1024, Note_on_c, 12, 60, 59
20, 1024, Note_on_c, 12, 63, 59
20, 1126, Note_off_c, 12, 56, 0
20, 1126, Note_off_c, 12, 60, 0
20, 1126, Note_off_c, 12, 63, 0
20, 1152, Note_on_c, 12, 56, 59
20, 1152, Note_on_c, 12, 60, 59
20, 1152, Note_on_c, 12, 63, 59
20, 1254, Note_off_c, 12, 56, 0
20, 1254, Note_off_c, 12, 60, 0
20, 1254, Note_off_c, 12, 63, 0
20, 1280, Note_on_c, 12, 56, 59
20, 1280, Note_on_c, 12, 60, 59
20, 1280, Note_on_c, 12, 63, 59
20, 1382, Note_off_c, 12, 56, 0
20, 1382, Note_off_c, 12, 60, 0
20, 1382, Note_off_c, 12, 63, 0
20, 1408, Note_on_c, 12, 56, 59
20, 1408, Note_on_c, 12, 60, 59
20, 1408, Note_on_c, 12, 63, 59
20, 1510, Note_off_c, 12, 56, 0
20, 1510, Note_off_c, 12, 60, 0
20, 1510, Note_off_c, 12, 63, 0
20, 1536, Note_on_c, 12, 56, 62
20, 1536, Note_on_c, 12, 60, 62
20, 1536, Note_on_c, 12, 63, 62
20, 1664, Note_off_c, 12, 56, 0
20, 1664, Note_off_c, 12, 60, 0
20, 1664, Note_off_c, 12, 63, 0
20, 1664, Note_on_c, 12, 56, 63
20, 1664, Note_on_c, 12, 60, 63
20, 1664, Note_on_c, 12, 65, 63
20, 1766, Note_off_c, 12, 56, 0
20, 1766, Note_off_c, 12, 60, 0
20, 1766, Note_off_c, 12, 65, 0
20, 1792, Note_on_c, 12, 56, 63
20, 1792, Note_on_c, 12, 60, 63
20, 1792, Note_on_c, 12, 65, 63
20, 1894, Note_off_c, 12, 56, 0
20, 1894, Note_off_c, 12, 60, 0
20, 1894, Note_off_c, 12, 65, 0
20, 1920, Note_on_c, 12, 56, 63
20, 1920, Note_on_c, 12, 60, 63
20, 1920, Note_on_c, 12, 65, 63
20, 2022, Note_off_c, 12, 56, 0
20, 2022, Note_off_c, 12, 60, 0
20, 2022, Note_off_c, 12, 65, 0
20, 2048, Note_on_c, 12, 56, 61
20, 2048, Note_on_c, 12, 60, 61
20, 2048, Note_on_c, 12, 65, 61
20, 2150, Note_off_c, 12, 56, 0
20, 2150, Note_off_c, 12, 60, 0
20, 2150, Note_off_c, 12, 65, 0
20, 2176, Note_on_c, 12, 56, 61
20, 2176, Note_on_c, 12, 60, 61
20, 2176, Note_on_c, 12, 65, 61
20, 2278, Note_off_c, 12, 56, 0
20, 2278, Note_off_c, 12, 60, 0
20, 2278, Note_off_c, 12, 65, 0
20, 2304, Note_on_c, 12, 56, 61
20, 2304, Note_on_c, 12, 60, 61
20, 2304, Note_on_c, 12, 65, 61
20, 2406, Note_off_c, 12, 56, 0
20, 2406, Note_off_c, 12, 60, 0
20, 2406, Note_off_c, 12, 65, 0
20, 2432, Note_on_c, 12, 57, 64
20, 2432, Note_on_c, 12, 60, 64
20, 2432, Note_on_c, 12, 65, 64
20, 2560, Note_off_c, 12, 57, 0
20, 2560, Note_off_c, 12, 60, 0
20, 2560, Note_off_c, 12, 65, 0
20, 2560, Note_on_c, 12, 57, 62
20, 2560, Note_on_c, 12, 60, 62
20, 2560, Note_on_c, 12, 65, 62
20, 2662, Note_off_c, 12, 57, 0
20, 2662, Note_off_c, 12, 60, 0
20, 2662, Note_off_c, 12, 65, 0
20, 2688, Note_on_c, 12, 57, 62
20, 2688, Note_on_c, 12, 60, 62
20, 2688, Note_on_c, 12, 65, 62
20, 2790, Note_off_c, 12, 57, 0
20, 2790, Note_off_c, 12, 60, 0
20, 2790, Note_off_c, 12, 65, 0
20, 2816, Note_on_c, 12, 57, 62
20, 2816, Note_on_c, 12, 60, 62
20, 2816, Note_on_c, 12, 65, 62
20, 2918, Note_off_c, 12, 57, 0
20, 2918, Note_off_c, 12, 60, 0
20, 2918, Note_off_c, 12, 65, 0
20, 2944, Note_on_c, 12, 57, 62
20, 2944, Note_on_c, 12, 60, 62
20, 2944, Note_on_c, 12, 65, 62
20, 3046, Note_off_c, 12, 57, 0
20, 3046, Note_off_c, 12, 60, 0
20, 3046, Note_off_c, 12, 65, 0
20, 3072, Note_on_c, 12, 57, 61
20, 3072, Note_on_c, 12, 60, 61
20, 3072, Note_on_c, 12, 65, 61
20, 3174, Note_off_c, 12, 57, 0
20, 3174, Note_off_c, 12, 60, 0
20, 3174, Note_off_c, 12, 65, 0
20, 3200, Note_on_c, 12, 57, 61
20, 3200, Note_on_c, 12, 60, 61
20, 3200, Note_on_c, 12, 65, 61
20, 3302, Note_off_c, 12, 57, 0
20, 3302, Note_off_c, 12, 60, 0
20, 3302, Note_off_c, 12, 65, 0
20, 3328, Note_on_c, 12, 57, 60
20, 3328, Note_on_c, 12, 62, 60
20, 3328, Note_on_c, 12, 65, 60
20, 3430, Note_off_c, 12, 57, 0
20, 3430, Note_off_c, 12, 62, 0
20, 3430, Note_off_c, 12, 65, 0
20, 3456, Note_on_c, 12, 57, 60
20, 3456, Note_on_c, 12, 62, 60
20, 3456, Note_on_c, 12, 65, 60
20, 3558, Note_off_c, 12, 57, 0
20, 3558, Note_off_c, 12, 62, 0
20, 3558, Note_off_c, 12, 65, 0
20, 3584, Note_on_c, 12, 57, 60
20, 3584, Note_on_c, 12, 62, 60
20, 3584, Note_on_c, 12, 65, 60
20, 3686, Note_off_c, 12, 57, 0
20, 3686, Note_off_c, 12, 62, 0
20, 3686, Note_off_c, 12, 65, 0
20, 3712, Note_on_c, 12, 57, 60
20, 3712, Note_on_c, 12, 62, 60
20, 3712, Note_on_c, 12, 65, 60
20, 3814, Note_off_c, 12, 57, 0
20, 3814, Note_off_c, 12, 62, 0
20, 3814, Note_off_c, 12, 65, 0
20, 3840, Note_on_c, 12, 57, 60
20, 3840, Note_on_c, 12, 62, 60
20, 3840, Note_on_c, 12, 65, 60
20, 3942, Note_off_c, 12, 57, 0
20, 3942, Note_off_c, 12, 62, 0
20, 3942, Note_off_c, 12, 65, 0
20, 3968, Note_on_c, 12, 57, 60
20, 3968, Note_on_c, 12, 62, 60
20, 3968, Note_on_c, 12, 65, 60
20, 4070, Note_off_c, 12, 57, 0
20, 4070, Note_off_c, 12, 62, 0
20, 4070, Note_off_c, 12, 65, 0
20, 4096, Note_on_c, 12, 57, 59
20, 4096, Note_on_c, 12, 62, 59
20, 4096, Note_on_c, 12, 65, 59
20, 4198, Note_off_c, 12, 57, 0
20, 4198, Note_off_c, 12, 62, 0
20, 4198, Note_off_c, 12, 65, 0
20, 4224, Note_on_c, 12, 57, 59
20, 4224, Note_on_c, 12, 62, 59
20, 4224, Note_on_c, 12, 65, 59
20, 4326, Note_off_c, 12, 57, 0
20, 4326, Note_off_c, 12, 62, 0
20, 4326, Note_off_c, 12, 65, 0
20, 4352, Note_on_c, 12, 57, 59
20, 4352, Note_on_c, 12, 62, 59
20, 4352, Note_on_c, 12, 65, 59
20, 4454, Note_off_c, 12, 57, 0
20, 4454, Note_off_c, 12, 62, 0
20, 4454, Note_off_c, 12, 65, 0
20, 4480, Note_on_c, 12, 57, 56
20, 4480, Note_on_c, 12, 61, 56
20, 4480, Note_on_c, 12, 66, 56
20, 4608, Note_off_c, 12, 57, 0
20, 4608, Note_off_c, 12, 61, 0
20, 4608, Note_off_c, 12, 66, 0
20, 4608, Note_on_c, 12, 57, 62
20, 4608, Note_on_c, 12, 61, 62
20, 4608, Note_on_c, 12, 66, 62
20, 4710, Note_off_c, 12, 57, 0
20, 4710, Note_off_c, 12, 61, 0
20, 4710, Note_off_c, 12, 66, 0
20, 4736, Note_on_c, 12, 57, 62
20, 4736, Note_on_c, 12, 61, 62
20, 4736, Note_on_c, 12, 66, 62
20, 4838, Note_off_c, 12, 57, 0
20, 4838, Note_off_c, 12, 61, 0
20, 4838, Note_off_c, 12, 66, 0
20, 4864, Note_on_c, 12, 57, 62
20, 4864, Note_on_c, 12, 61, 62
20, 4864, Note_on_c, 12, 66, 62
20, 4966, Note_off_c, 12, 57, 0
20, 4966, Note_off_c, 12, 61, 0
20, 4966, Note_off_c, 12, 66, 0
20, 4992, Note_on_c, 12, 57, 62
20, 4992, Note_on_c, 12, 61, 62
20, 4992, Note_on_c, 12, 66, 62
20, 5094, Note_off_c, 12, 57, 0
20, 5094, Note_off_c, 12, 61, 0
20, 5094, Note_off_c, 12, 66, 0
20, 5120, Note_on_c, 12, 57, 58
20, 5120, Note_on_c, 12, 61, 58
20, 5120, Note_on_c, 12, 66, 58
20, 5248, Note_off_c, 12, 57, 0
20, 5248, Note_off_c, 12, 61, 0
20, 5248, Note_off_c, 12, 66, 0
20, 5248, Note_on_c, 12, 58, 55
20, 5248, Note_on_c, 12, 61, 55
20, 5248, Note_on_c, 12, 65, 55
20, 5350, Note_off_c, 12, 58, 0
20, 5350, Note_off_c, 12, 61, 0
20, 5350, Note_off_c, 12, 65, 0
20, 5376, Note_on_c, 12, 58, 55
20, 5376, Note_on_c, 12, 61, 55
20, 5376, Note_on_c, 12, 65, 55
20, 5478, Note_off_c, 12, 58, 0
20, 5478, Note_off_c, 12, 61, 0
20, 5478, Note_off_c, 12, 65, 0
20, 5504, Note_on_c, 12, 58, 55
20, 5504, Note_on_c, 12, 61, 55
20, 5504, Note_on_c, 12, 65, 55
20, 5606, Note_off_c, 12, 58, 0
20, 5606, Note_off_c, 12, 61, 0
20, 5606, Note_off_c, 12, 65, 0
20, 5632, Note_on_c, 12, 58, 63
20, 5632, Note_on_c, 12, 61, 63
20, 5632, Note_on_c, 12, 65, 63
20, 5734, Note_off_c, 12, 58, 0
20, 5734, Note_off_c, 12, 61, 0
20, 5734, Note_off_c, 12, 65, 0
20, 5760, Note_on_c, 12, 58, 63
20, 5760, Note_on_c, 12, 61, 63
20, 5760, Note_on_c, 12, 65, 63
20, 5862, Note_off_c, 12, 58, 0
20, 5862, Note_off_c, 12, 61, 0
20, 5862, Note_off_c, 12, 65, 0
20, 5888, Note_on_c, 12, 58, 63
20, 5888, Note_on_c, 12, 61, 63
20, 5888, Note_on_c, 12, 65, 63
20, 5990, Note_off_c, 12, 58, 0
20, 5990, Note_off_c, 12, 61, 0
20, 5990, Note_off_c, 12, 65, 0
20, 6016, Note_on_c, 12, 58, 63
20, 6016, Note_on_c, 12, 61, 63
20, 6016, Note_on_c, 12, 65, 63
20, 6118, Note_off_c, 12, 58, 0
20, 6118, Note_off_c, 12, 61, 0
20, 6118, Note_off_c, 12, 65, 0
20, 6144, Note_on_c, 12, 58, 61
20, 6144, Note_on_c, 12, 61, 61
20, 6144, Note_on_c, 12, 65, 61
20, 6272, Note_off_c, 12, 58, 0
20, 6272, Note_off_c, 12, 61, 0
20, 6272, Note_off_c, 12, 65, 0
20, 6272, Note_on_c, 12, 57, 59
20, 6272, Note_on_c, 12, 62, 59
20, 6272, Note_on_c, 12, 65, 59
20, 6374, Note_off_c, 12, 57, 0
20, 6374, Note_off_c, 12, 62, 0
20, 6374, Note_off_c, 12, 65, 0
20, 6400, Note_on_c, 12, 57, 59
20, 6400, Note_on_c, 12, 62, 59
20, 6400, Note_on_c, 12, 65, 59
20, 6502, Note_off_c, 12, 57, 0
20, 6502, Note_off_c, 12, 62, 0
20, 6502, Note_off_c, 12, 65, 0
20, 6528, Note_on_c, 12, 57, 59
20, 6528, Note_on_c, 12, 62, 59
20, 6528, Note_on_c, 12, 65, 59
20, 6630, Note_off_c, 12, 57, 0
20, 6630, Note_off_c, 12, 62, 0
20, 6630, Note_off_c, 12, 65, 0
20, 6656, Note_on_c, 12, 57, 64
20, 6656, Note_on_c, 12, 62, 64
20, 6656, Note_on_c, 12, 65, 64
20, 6784, Note_off_c, 12, 57, 0
20, 6784, Note_off_c, 12, 62, 0
20, 6784, Note_off_c, 12, 65, 0
20, 6784, Note_on_c, 12, 57, 61
20, 6784, Note_on_c, 12, 61, 61
20, 6784, Note_on_c, 12, 66, 61
20, 6886, Note_off_c, 12, 57, 0
20, 6886, Note_off_c, 12, 61, 0
20, 6886, Note_off_c, 12, 66, 0
20, 6912, Note_on_c, 12, 57, 61
20, 6912, Note_on_c, 12, 61, 61
20, 6912, Note_on_c, 12, 66, 61
20, 7014, Note_off_c, 12, 57, 0
20, 7014, Note_off_c, 12, 61, 0
20, 7014, Note_off_c, 12, 66, 0
20, 7040, Note_on_c, 12, 57, 61
20, 7040, Note_on_c, 12, 61, 61
20, 7040, Note_on_c, 12, 66, 61
20, 7142, Note_off_c, 12, 57, 0
20, 7142, Note_off_c, 12, 61, 0
20, 7142, Note_off_c, 12, 66, 0
20, 7168, Note_on_c, 12, 57, 65
20, 7168, Note_on_c, 12, 61, 65
20, 7168, Note_on_c, 12, 66, 65
20, 7270, Note_off_c, 12, 57, 0
20, 7270, Note_off_c, 12, 61, 0
20, 7270, Note_off_c, 12, 66, 0
20, 7296, Note_on_c, 12, 57, 65
20, 7296, Note_on_c, 12, 61, 65
20, 7296, Note_on_c, 12, 66, 65
20, 7398, Note_off_c, 12, 57, 0
20, 7398, Note_off_c, 12, 61, 0
20, 7398, Note_off_c, 12, 66, 0
20, 7424, Note_on_c, 12, 57, 65
20, 7424, Note_on_c, 12, 61, 65
20, 7424, Note_on_c, 12, 66, 65
20, 7526, Note_off_c, 12, 57, 0
20, 7526, Note_off_c, 12, 61, 0
20, 7526, Note_off_c, 12, 66, 0
20, 7552, Note_on_c, 12, 58, 54
20, 7552, Note_on_c, 12, 61, 54
20, 7552, Note_on_c, 12, 65, 54
20, 7680, Note_off_c, 12, 58, 0
20, 7680, Note_off_c, 12, 61, 0
20, 7680, Note_off_c, 12, 65, 0
20, 7680, Note_on_c, 12, 58, 63
20, 7680, Note_on_c, 12, 61, 63
20, 7680, Note_on_c, 12, 65, 63
20, 7782, Note_off_c, 12, 58, 0
20, 7782, Note_off_c, 12, 61, 0
20, 7782, Note_off_c, 12, 65, 0
20, 7808, Note_on_c, 12, 58, 63
20, 7808, Note_on_c, 12, 61, 63
20, 7808, Note_on_c, 12, 65, 63
20, 7910, Note_off_c, 12, 58, 0
20, 7910, Note_off_c, 12, 61, 0
20, 7910, Note_off_c, 12, 65, 0
20, 7936, Note_on_c, 12, 58, 63
20, 7936, Note_on_c, 12, 61, 63
20, 7936, Note_on_c, 12, 65, 63
20, 8038, Note_off_c, 12, 58, 0
20, 8038, Note_off_c, 12, 61, 0
20, 8038, Note_off_c, 12, 65, 0
20, 8064, Note_on_c, 12, 58, 63
20, 8064, Note_on_c, 12, 61, 63
20, 8064, Note_on_c, 12, 65, 63
20, 8166, Note_off_c, 12, 58, 0
20, 8166, Note_off_c, 12, 61, 0
20, 8166, Note_off_c, 12, 65, 0
20, 8192, Note_on_c, 12, 58, 63
20, 8192, Note_on_c, 12, 61, 63
20, 8192, Note_on_c, 12, 65, 63
20, 8320, Note_off_c, 12, 58, 0
20, 8320, Note_off_c, 12, 61, 0
20, 8320, Note_off_c, 12, 65, 0
20, 8320, Note_on_c, 12, 59, 58
20, 8320, Note_on_c, 12, 62, 58
20, 8320, Note_on_c, 12, 65, 58
20, 8422, Note_off_c, 12, 59, 0
20, 8422, Note_off_c, 12, 62, 0
20, 8422, Note_off_c, 12, 65, 0
20, 8448, Note_on_c, 12, 59, 58
20, 8448, Note_on_c, 12, 62, 58
20, 8448, Note_on_c, 12, 65, 58
20, 8550, Note_off_c, 12, 59, 0
20, 8550, Note_off_c, 12, 62, 0
20, 8550, Note_off_c, 12, 65, 0
20, 8576, Note_on_c, 12, 59, 58
20, 8576, Note_on_c, 12, 62, 58
20, 8576, Note_on_c, 12, 65, 58
20, 8678, Note_off_c, 12, 59, 0
20, 8678, Note_off_c, 12, 62, 0
20, 8678, Note_off_c, 12, 65, 0
20, 8704, Note_on_c, 12, 59, 59
20, 8704, Note_on_c, 12, 62, 59
20, 8704, Note_on_c, 12, 65, 59
20, 8806, Note_off_c, 12, 59, 0
20, 8806, Note_off_c, 12, 62, 0
20, 8806, Note_off_c, 12, 65, 0
20, 8832, Note_on_c, 12, 59, 59
20, 8832, Note_on_c, 12, 62, 59
20, 8832, Note_on_c, 12, 65, 59
20, 8934, Note_off_c, 12, 59, 0
20, 8934, Note_off_c, 12, 62, 0
20, 8934, Note_off_c, 12, 65, 0
20, 8960, Note_on_c, 12, 59, 59
20, 8960, Note_on_c, 12, 62, 59
20, 8960, Note_on_c, 12, 65, 59
20, 9062, Note_off_c, 12, 59, 0
20, 9062, Note_off_c, 12, 62, 0
20, 9062, Note_off_c, 12, 65, 0
20, 9088, Note_on_c, 12, 59, 59
20, 9088, Note_on_c, 12, 62, 59
20, 9088, Note_on_c, 12, 65, 59
20, 9190, Note_off_c, 12, 59, 0
20, 9190, Note_off_c, 12, 62, 0
20, 9190, Note_off_c, 12, 65, 0
20, 9216, Note_on_c, 12, 59, 60
20, 9216, Note_on_c, 12, 62, 60
20, 9216, Note_on_c, 12, 65, 60
20, 9344, Note_off_c, 12, 59, 0
20, 9344, Note_off_c, 12, 62, 0
20, 9344, Note_off_c, 12, 65, 0
20, 9344, Note_on_c, 12, 59, 60
20, 9344, Note_on_c, 12, 62, 60
20, 9344, Note_on_c, 12, 66, 60
20, 9446, Note_off_c, 12, 59, 0
20, 9446, Note_off_c, 12, 62, 0
20, 9446, Note_off_c, 12, 66, 0
20, 9472, Note_on_c, 12, 59, 60
20, 9472, Note_on_c, 12, 62, 60
20, 9472, Note_on_c, 12, 66, 60
20, 9574, Note_off_c, 12, 59, 0
20, 9574, Note_off_c, 12, 62, 0
20, 9574, Note_off_c, 12, 66, 0
20, 9600, Note_on_c, 12, 59, 60
20, 9600, Note_on_c, 12, 62, 60
20, 9600, Note_on_c, 12, 66, 60
20, 9702, Note_off_c, 12, 59, 0
20, 9702, Note_off_c, 12, 62, 0
20, 9702, Note_off_c, 12, 66, 0
20, 9728, Note_on_c, 12, 59, 60
20, 9728, Note_on_c, 12, 62, 60
20, 9728, Note_on_c, 12, 66, 60
20, 9830, Note_off_c, 12, 59, 0
20, 9830, Note_off_c, 12, 62, 0
20, 9830, Note_off_c, 12, 66, 0
20, 9856, Note_on_c, 12, 59, 60
20, 9856, Note_on_c, 12, 62, 60
20, 9856, Note_on_c, 12, 66, 60
20, 9958, Note_off_c, 12, 59, 0
20, 9958, Note_off_c, 12, 62, 0
20, 9958, Note_off_c, 12, 66, 0
20, 9984, Note_on_c, 12, 59, 60
20, 9984, Note_on_c, 12, 62, 60
20, 9984, Note_on_c, 12, 66, 60
20, 10086, Note_off_c, 12, 59, 0
20, 10086, Note_off_c, 12, 62, 0
20, 10086, Note_off_c, 12, 66, 0
20, 10112, Note_on_c, 12, 59, 64
20, 10112, Note_on_c, 12, 62, 64
20, 10112, Note_on_c, 12, 67, 64
20, 10240, Note_off_c, 12, 59, 0
20, 10240, Note_off_c, 12, 62, 0
20, 10240, Note_off_c, 12, 67, 0
20, 10240, Note_on_c, 12, 59, 67
20, 10240, Note_on_c, 12, 62, 67
20, 10240, Note_on_c, 12, 67, 67
20, 10342, Note_off_c, 12, 59, 0
20, 10342, Note_off_c, 12, 62, 0
20, 10342, Note_off_c, 12, 67, 0
20, 10368, Note_on_c, 12, 59, 67
20, 10368, Note_on_c, 12, 62, 67
20, 10368, Note_on_c, 12, 67, 67
20, 10470, Note_off_c, 12, 59, 0
20, 10470, Note_off_c, 12, 62, 0
20, 10470, Note_off_c, 12, 67, 0
20, 10496, Note_on_c, 12, 59, 67
20, 10496, Note_on_c, 12, 62, 67
20, 10496, Note_on_c, 12, 67, 67
20, 10598, Note_off_c, 12, 59, 0
20, 10598, Note_off_c, 12, 62, 0
20, 10598, Note_off_c, 12, 67, 0
20, 10624, Note_on_c, 12, 59, 67
20, 10624, Note_on_c, 12, 62, 67
20, 10624, Note_on_c, 12, 67, 67
20, 10726, Note_off_c, 12, 59, 0
20, 10726, Note_off_c, 12, 62, 0
20, 10726, Note_off_c, 12, 67, 0
20, 10752, Note_on_c, 12, 59, 67
20, 10752, Note_on_c, 12, 62, 67
20, 10752, Note_on_c, 12, 67, 67
20, 10854, Note_off_c, 12, 59, 0
20, 10854, Note_off_c, 12, 62, 0
20, 10854, Note_off_c, 12, 67, 0
20, 10880, Note_on_c, 12, 59, 67
20, 10880, Note_on_c, 12, 62, 67
20, 10880, Note_on_c, 12, 67, 67
20, 10982, Note_off_c, 12, 59, 0
20, 10982, Note_off_c, 12, 62, 0
20, 10982, Note_off_c, 12, 67, 0
20, 11008, Note_on_c, 12, 57, 61
20, 11008, Note_on_c, 12, 61, 61
20, 11008, Note_on_c, 12, 64, 61
20, 11008, Note_on_c, 12, 67, 61
20, 11110, Note_off_c, 12, 57, 0
20, 11110, Note_off_c, 12, 61, 0
20, 11110, Note_off_c, 12, 64, 0
20, 11110, Note_off_c, 12, 67, 0
20, 11136, Note_on_c, 12, 57, 61
20, 11136, Note_on_c, 12, 61, 61
20, 11136, Note_on_c, 12, 64, 61
20, 11136, Note_on_c, 12, 67, 61
20, 11238, Note_off_c, 12, 57, 0
20, 11238, Note_off_c, 12, 61, 0
20, 11238, Note_off_c, 12, 64, 0
20, 11238, Note_off_c, 12, 67, 0
20, 11264, Note_on_c, 12, 57, 65
20, 11264, Note_on_c, 12, 61, 65
20, 11264, Note_on_c, 12, 64, 65
20, 11264, Note_on_c, 12, 67, 65
20, 11366, Note_off_c, 12, 57, 0
20, 11366, Note_off_c, 12, 61, 0
20, 11366, Note_off_c, 12, 64, 0
20, 11366, Note_off_c, 12, 67, 0
20, 11392, Note_on_c, 12, 57, 65
20, 11392, Note_on_c, 12, 61, 65
20, 11392, Note_on_c, 12, 64, 65
20, 11392, Note_on_c, 12, 67, 65
20, 11494, Note_off_c, 12, 57, 0
20, 11494, Note_off_c, 12, 61, 0
20, 11494, Note_off_c, 12, 64, 0
20, 11494, Note_off_c, 12, 67, 0
20, 11520, Note_on_c, 12, 57, 65
20, 11520, Note_on_c, 12, 61, 65
20, 11520, Note_on_c, 12, 64, 65
20, 11520, Note_on_c, 12, 67, 65
20, 11622, Note_off_c, 12, 57, 0
20, 11622, Note_off_c, 12, 61, 0
20, 11622, Note_off_c, 12, 64, 0
20, 11622, Note_off_c, 12, 67, 0
20, 11648, Note_on_c, 12, 59, 58
20, 11648, Note_on_c, 12, 62, 58
20, 11648, Note_on_c, 12, 67, 58
20, 11776, Note_off_c, 12, 59, 0
20, 11776, Note_off_c, 12, 62, 0
20, 11776, Note_off_c, 12, 67, 0
20, 11776, Note_on_c, 12, 59, 57
20, 11776, Note_on_c, 12, 62, 57
20, 11776, Note_on_c, 12, 67, 57
20, 11878, Note_off_c, 12, 59, 0
20, 11878, Note_off_c, 12, 62, 0
20, 11878, Note_off_c, 12, 67, 0
20, 11904, Note_on_c, 12, 59, 57
20, 11904, Note_on_c, 12, 62, 57
20, 11904, Note_on_c, 12, 67, 57
20, 12006, Note_off_c, 12, 59, 0
20, 12006, Note_off_c, 12, 62, 0
20, 12006, Note_off_c, 12, 67, 0
20, 12032, Note_on_c, 12, 57, 58
20, 12032, Note_on_c, 12, 61, 58
20, 12032, Note_on_c, 12, 64, 58
20, 12032, Note_on_c, 12, 67, 58
20, 12134, Note_off_c, 12, 57, 0
20, 12134, Note_off_c, 12, 61, 0
20, 12134, Note_off_c, 12, 64, 0
20, 12134, Note_off_c, 12, 67, 0
20, 12160, Note_on_c, 12, 57, 58
20, 12160, Note_on_c, 12, 61, 58
20, 12160, Note_on_c, 12, 64, 58
20, 12160, Note_on_c, 12, 67, 58
20, 12262, Note_off_c, 12, 57, 0
20, 12262, Note_off_c, 12, 61, 0
20, 12262, Note_off_c, 12, 64, 0
20, 12262, Note_off_c, 12, 67, 0
20, 12288, Note_on_c, 12, 57, 61
20, 12288, Note_on_c, 12, 61, 61
20, 12288, Note_on_c, 12, 64, 61
20, 12288, Note_on_c, 12, 67, 61
20, 12390, Note_off_c, 12, 57, 0
20, 12390, Note_off_c, 12, 61, 0
20, 12390, Note_off_c, 12, 64, 0
20, 12390, Note_off_c, 12, 67, 0
20, 12416, Note_on_c, 12, 57, 61
20, 12416, Note_on_c, 12, 61, 61
20, 12416, Note_on_c, 12, 64, 61
20, 12416, Note_on_c, 12, 67, 61
20, 12518, Note_off_c, 12, 57, 0
20, 12518, Note_off_c, 12, 61, 0
20, 12518, Note_off_c, 12, 64, 0
20, 12518, Note_off_c, 12, 67, 0
20, 12544, Note_on_c, 12, 57, 61
20, 12544, Note_on_c, 12, 61, 61
20, 12544, Note_on_c, 12, 64, 61
20, 12544, Note_on_c, 12, 67, 61
20, 12646, Note_off_c, 12, 57, 0
20, 12646, Note_off_c, 12, 61, 0
20, 12646, Note_off_c, 12, 64, 0
20, 12646, Note_off_c, 12, 67, 0
20, 12672, Note_on_c, 12, 59, 58
20, 12672, Note_on_c, 12, 62, 58
20, 12672, Note_on_c, 12, 67, 58
20, 12800, Note_off_c, 12, 59, 0
20, 12800, Note_off_c, 12, 62, 0
20, 12800, Note_off_c, 12, 67, 0
20, 12800, Note_on_c, 12, 57, 62
20, 12800, Note_on_c, 12, 61, 62
20, 12800, Note_on_c, 12, 64, 62
20, 12800, Note_on_c, 12, 67, 62
20, 12902, Note_off_c, 12, 57, 0
20, 12902, Note_off_c, 12, 61, 0
20, 12902, Note_off_c, 12, 64, 0
20, 12902, Note_off_c, 12, 67, 0
20, 12928, Note_on_c, 12, 57, 62
20, 12928, Note_on_c, 12, 61, 62
20, 12928, Note_on_c, 12, 64, 62
20, 12928, Note_on_c, 12, 67, 62
20, 13030, Note_off_c, 12, 57, 0
20, 13030, Note_off_c, 12, 61, 0
20, 13030, Note_off_c, 12, 64, 0
20, 13030, Note_off_c, 12, 67, 0
20, 13056, Note_on_c, 12, 57, 58
20, 13056, Note_on_c, 12, 58, 58
20, 13056, Note_on_c, 12, 62, 58
20, 13056, Note_on_c, 12, 67, 58
20, 13158, Note_off_c, 12, 57, 0
20, 13158, Note_off_c, 12, 58, 0
20, 13158, Note_off_c, 12, 62, 0
20, 13158, Note_off_c, 12, 67, 0
20, 13184, Note_on_c, 12, 57, 58
20, 13184, Note_on_c, 12, 58, 58
20, 13184, Note_on_c, 12, 62, 58
20, 13184, Note_on_c, 12, 67, 58
20, 13286, Note_off_c, 12, 57, 0
20, 13286, Note_off_c, 12, 58, 0
20, 13286, Note_off_c, 12, 62, 0
20, 13286, Note_off_c, 12, 67, 0
20, 13312, Note_on_c, 12, 57, 60
20, 13312, Note_on_c, 12, 58, 60
20, 13312, Note_on_c, 12, 62, 60
20, 13312, Note_on_c, 12, 67, 60
20, 13414, Note_off_c, 12, 57, 0
20, 13414, Note_off_c, 12, 58, 0
20, 13414, Note_off_c, 12, 62, 0
20, 13414, Note_off_c, 12, 67, 0
20, 13440, Note_on_c, 12, 57, 60
20, 13440, Note_on_c, 12, 58, 60
20, 13440, Note_on_c, 12, 62, 60
20, 13440, Note_on_c, 12, 67, 60
20, 13542, Note_off_c, 12, 57, 0
20, 13542, Note_off_c, 12, 58, 0
20, 13542, Note_off_c, 12, 62, 0
20, 13542, Note_off_c, 12, 67, 0
20, 13568, Note_on_c, 12, 57, 60
20, 13568, Note_on_c, 12, 58, 60
20, 13568, Note_on_c, 12, 62, 60
20, 13568, Note_on_c, 12, 67, 60
20, 13670, Note_off_c, 12, 57, 0
20, 13670, Note_off_c, 12, 58, 0
20, 13670, Note_off_c, 12, 62, 0
20, 13670, Note_off_c, 12, 67, 0
20, 13696, Note_on_c, 12, 57, 60
20, 13696, Note_on_c, 12, 58, 60
20, 13696, Note_on_c, 12, 62, 60
20, 13696, Note_on_c, 12, 67, 60
20, 13798, Note_off_c, 12, 57, 0
20, 13798, Note_off_c, 12, 58, 0
20, 13798, Note_off_c, 12, 62, 0
20, 13798, Note_off_c, 12, 67, 0
20, 13824, Note_on_c, 12, 57, 60
20, 13824, Note_on_c, 12, 58, 60
20, 13824, Note_on_c, 12, 62, 60
20, 13824, Note_on_c, 12, 67, 60
20, 13926, Note_off_c, 12, 57, 0
20, 13926, Note_off_c, 12, 58, 0
20, 13926, Note_off_c, 12, 62, 0
20, 13926, Note_off_c, 12, 67, 0
20, 13952, Note_on_c, 12, 57, 60
20, 13952, Note_on_c, 12, 58, 60
20, 13952, Note_on_c, 12, 62, 60
20, 13952, Note_on_c, 12, 67, 60
20, 14054, Note_off_c, 12, 57, 0
20, 14054, Note_off_c, 12, 58, 0
20, 14054, Note_off_c, 12, 62, 0
20, 14054, Note_off_c, 12, 67, 0
20, 14080, Note_on_c, 12, 57, 60
20, 14080, Note_on_c, 12, 61, 60
20, 14080, Note_on_c, 12, 64, 60
20, 14080, Note_on_c, 12, 67, 60
20, 14182, Note_off_c, 12, 57, 0
20, 14182, Note_off_c, 12, 61, 0
20, 14182, Note_off_c, 12, 64, 0
20, 14182, Note_off_c, 12, 67, 0
20, 14208, Note_on_c, 12, 57, 60
20, 14208, Note_on_c, 12, 61, 60
20, 14208, Note_on_c, 12, 64, 60
20, 14208, Note_on_c, 12, 67, 60
20, 14310, Note_off_c, 12, 57, 0
20, 14310, Note_off_c, 12, 61, 0
20, 14310, Note_off_c, 12, 64, 0
20, 14310, Note_off_c, 12, 67, 0
20, 14336, Note_on_c, 12, 57, 59
20, 14336, Note_on_c, 12, 61, 59
20, 14336, Note_on_c, 12, 64, 59
20, 14336, Note_on_c, 12, 67, 59
20, 14438, Note_off_c, 12, 57, 0
20, 14438, Note_off_c, 12, 61, 0
20, 14438, Note_off_c, 12, 64, 0
20, 14438, Note_off_c, 12, 67, 0
20, 14464, Note_on_c, 12, 57, 59
20, 14464, Note_on_c, 12, 61, 59
20, 14464, Note_on_c, 12, 64, 59
20, 14464, Note_on_c, 12, 67, 59
20, 14566, Note_off_c, 12, 57, 0
20, 14566, Note_off_c, 12, 61, 0
20, 14566, Note_off_c, 12, 64, 0
20, 14566, Note_off_c, 12, 67, 0
20, 14592, Note_on_c, 12, 58, 58
20, 14592, Note_on_c, 12, 62, 58
20, 14592, Note_on_c, 12, 67, 58
20, 14694, Note_off_c, 12, 58, 0
20, 14694, Note_off_c, 12, 62, 0
20, 14694, Note_off_c, 12, 67, 0
20, 14720, Note_on_c, 12, 58, 58
20, 14720, Note_on_c, 12, 62, 58
20, 14720, Note_on_c, 12, 67, 58
20, 14822, Note_off_c, 12, 58, 0
20, 14822, Note_off_c, 12, 62, 0
20, 14822, Note_off_c, 12, 67, 0
20, 14848, Note_on_c, 12, 58, 58
20, 14848, Note_on_c, 12, 62, 58
20, 14848, Note_on_c, 12, 67, 58
20, 14950, Note_off_c, 12, 58, 0
20, 14950, Note_off_c, 12, 62, 0
20, 14950, Note_off_c, 12, 67, 0
20, 14976, Note_on_c, 12, 58, 58
20, 14976, Note_on_c, 12, 62, 58
20, 14976, Note_on_c, 12, 67, 58
20, 15078, Note_off_c, 12, 58, 0
20, 15078, Note_off_c, 12, 62, 0
20, 15078, Note_off_c, 12, 67, 0
20, 15104, Note_on_c, 12, 58, 58
20, 15104, Note_on_c, 12, 62, 58
20, 15104, Note_on_c, 12, 67, 58
20, 15206, Note_off_c, 12, 58, 0
20, 15206, Note_off_c, 12, 62, 0
20, 15206, Note_off_c, 12, 67, 0
20, 15232, Note_on_c, 12, 58, 58
20, 15232, Note_on_c, 12, 62, 58
20, 15232, Note_on_c, 12, 67, 58
20, 15334, Note_off_c, 12, 58, 0
20, 15334, Note_off_c, 12, 62, 0
20, 15334, Note_off_c, 12, 67, 0
20, 15360, Note_on_c, 12, 58, 61
20, 15360, Note_on_c, 12, 62, 61
20, 15360, Note_on_c, 12, 67, 61
20, 15488, Note_off_c, 12, 58, 0
20, 15488, Note_off_c, 12, 62, 0
20, 15488, Note_off_c, 12, 67, 0
20, 15488, Note_on_c, 12, 59, 60
20, 15488, Note_on_c, 12, 63, 60
20, 15488, Note_on_c, 12, 67, 60
20, 15590, Note_off_c, 12, 59, 0
20, 15590, Note_off_c, 12, 63, 0
20, 15590, Note_off_c, 12, 67, 0
20, 15616, Note_on_c, 12, 59, 60
20, 15616, Note_on_c, 12, 63, 60
20, 15616, Note_on_c, 12, 67, 60
20, 15718, Note_off_c, 12, 59, 0
20, 15718, Note_off_c, 12, 63, 0
20, 15718, Note_off_c, 12, 67, 0
20, 15744, Note_on_c, 12, 59, 60
20, 15744, Note_on_c, 12, 63, 60
20, 15744, Note_on_c, 12, 67, 60
20, 15846, Note_off_c, 12, 59, 0
20, 15846, Note_off_c, 12, 63, 0
20, 15846, Note_off_c, 12, 67, 0
20, 15872, Note_on_c, 12, 59, 61
20, 15872, Note_on_c, 12, 63, 61
20, 15872, Note_on_c, 12, 67, 61
20, 15974, Note_off_c, 12, 59, 0
20, 15974, Note_off_c, 12, 63, 0
20, 15974, Note_off_c, 12, 67, 0
20, 16000, Note_on_c, 12, 59, 61
20, 16000, Note_on_c, 12, 63, 61
20, 16000, Note_on_c, 12, 67, 61
20, 16102, Note_off_c, 12, 59, 0
20, 16102, Note_off_c, 12, 63, 0
20, 16102, Note_off_c, 12, 67, 0
20, 16128, Note_on_c, 12, 59, 61
20, 16128, Note_on_c, 12, 63, 61
20, 16128, Note_on_c, 12, 67, 61
20, 16230, Note_off_c, 12, 59, 0
20, 16230, Note_off_c, 12, 63, 0
20, 16230, Note_off_c, 12, 67, 0
20, 16256, Note_on_c, 12, 59, 61
20, 16256, Note_on_c, 12, 63, 61
20, 16256, Note_on_c, 12, 67, 61
20, 16358, Note_off_c, 12, 59, 0
20, 16358, Note_off_c, 12, 63, 0
20, 16358, Note_off_c, 12, 67, 0
20, 16384, Note_on_c, 12, 59, 61
20, 16384, Note_on_c, 12, 63, 61
20, 16384, Note_on_c, 12, 67, 61
20, 16486, Note_off_c, 12, 59, 0
20, 16486, Note_off_c, 12, 63, 0
20, 16486, Note_off_c, 12, 67, 0
20, 16512, Note_on_c, 12, 59, 61
20, 16512, Note_on_c, 12, 63, 61
20, 16512, Note_on_c, 12, 67, 61
20, 16614, Note_off_c, 12, 59, 0
20, 16614, Note_off_c, 12, 63, 0
20, 16614, Note_off_c, 12, 67, 0
20, 16640, Note_on_c, 12, 59, 61
20, 16640, Note_on_c, 12, 62, 61
20, 16640, Note_on_c, 12, 65, 61
20, 16640, Note_on_c, 12, 67, 61
20, 16742, Note_off_c, 12, 59, 0
20, 16742, Note_off_c, 12, 62, 0
20, 16742, Note_off_c, 12, 65, 0
20, 16742, Note_off_c, 12, 67, 0
20, 16768, Note_on_c, 12, 59, 61
20, 16768, Note_on_c, 12, 62, 61
20, 16768, Note_on_c, 12, 65, 61
20, 16768, Note_on_c, 12, 67, 61
20, 16870, Note_off_c, 12, 59, 0
20, 16870, Note_off_c, 12, 62, 0
20, 16870, Note_off_c, 12, 65, 0
20, 16870, Note_off_c, 12, 67, 0
20, 16896, Note_on_c, 12, 59, 61
20, 16896, Note_on_c, 12, 62, 61
20, 16896, Note_on_c, 12, 65, 61
20, 16896, Note_on_c, 12, 67, 61
20, 16998, Note_off_c, 12, 59, 0
20, 16998, Note_off_c, 12, 62, 0
20, 16998, Note_off_c, 12, 65, 0
20, 16998, Note_off_c, 12, 67, 0
20, 17024, Note_on_c, 12, 59, 61
20, 17024, Note_on_c, 12, 62, 61
20, 17024, Note_on_c, 12, 65, 61
20, 17024, Note_on_c, 12, 67, 61
20, 17126, Note_off_c, 12, 59, 0
20, 17126, Note_off_c, 12, 62, 0
20, 17126, Note_off_c, 12, 65, 0
20, 17126, Note_off_c, 12, 67, 0
20, 17152, Note_on_c, 12, 59, 61
20, 17152, Note_on_c, 12, 62, 61
20, 17152, Note_on_c, 12, 65, 61
20, 17152, Note_on_c, 12, 67, 61
20, 17254, Note_off_c, 12, 59, 0
20, 17254, Note_off_c, 12, 62, 0
20, 17254, Note_off_c, 12, 65, 0
20, 17254, Note_off_c, 12, 67, 0
20, 17280, Note_on_c, 12, 59, 61
20, 17280, Note_on_c, 12, 62, 61
20, 17280, Note_on_c, 12, 65, 61
20, 17280, Note_on_c, 12, 67, 61
20, 17382, Note_off_c, 12, 59, 0
20, 17382, Note_off_c, 12, 62, 0
20, 17382, Note_off_c, 12, 65, 0
20, 17382, Note_off_c, 12, 67, 0
20, 17408, Note_on_c, 12, 59, 63
20, 17408, Note_on_c, 12, 62, 63
20, 17408, Note_on_c, 12, 65, 63
20, 17408, Note_on_c, 12, 67, 63
20, 17510, Note_off_c, 12, 59, 0
20, 17510, Note_off_c, 12, 62, 0
20, 17510, Note_off_c, 12, 65, 0
20, 17510, Note_off_c, 12, 67, 0
20, 17536, Note_on_c, 12, 59, 63
20, 17536, Note_on_c, 12, 62, 63
20, 17536, Note_on_c, 12, 65, 63
20, 17536, Note_on_c, 12, 67, 63
20, 17638, Note_off_c, 12, 59, 0
20, 17638, Note_off_c, 12, 62, 0
20, 17638, Note_off_c, 12, 65, 0
20, 17638, Note_off_c, 12, 67, 0
20, 17664, Note_on_c, 12, 59, 62
20, 17664, Note_on_c, 12, 63, 62
20, 17664, Note_on_c, 12, 65, 62
20, 17664, Note_on_c, 12, 67, 62
20, 17766, Note_off_c, 12, 59, 0
20, 17766, Note_off_c, 12, 63, 0
20, 17766, Note_off_c, 12, 65, 0
20, 17766, Note_off_c, 12, 67, 0
20, 17792, Note_on_c, 12, 59, 62
20, 17792, Note_on_c, 12, 63, 62
20, 17792, Note_on_c, 12, 65, 62
20, 17792, Note_on_c, 12, 67, 62
20, 17894, Note_off_c, 12, 59, 0
20, 17894, Note_off_c, 12, 63, 0
20, 17894, Note_off_c, 12, 65, 0
20, 17894, Note_off_c, 12, 67, 0
20, 17920, Note_on_c, 12, 59, 62
20, 17920, Note_on_c, 12, 63, 62
20, 17920, Note_on_c, 12, 65, 62
20, 17920, Note_on_c, 12, 67, 62
20, 18022, Note_off_c, 12, 59, 0
20, 18022, Note_off_c, 12, 63, 0
20, 18022, Note_off_c, 12, 65, 0
20, 18022, Note_off_c, 12, 67, 0
20, 18048, Note_on_c, 12, 59, 62
20, 18048, Note_on_c, 12, 63, 62
20, 18048, Note_on_c, 12, 65, 62
20, 18048, Note_on_c, 12, 67, 62
20, 18150, Note_off_c, 12, 59, 0
20, 18150, Note_off_c, 12, 63, 0
20, 18150, Note_off_c, 12, 65, 0
20, 18150, Note_off_c, 12, 67, 0
20, 18176, Note_on_c, 12, 59, 62
20, 18176, Note_on_c, 12, 63, 62
20, 18176, Note_on_c, 12, 65, 62
20, 18176, Note_on_c, 12, 67, 62
20, 18278, Note_off_c, 12, 59, 0
20, 18278, Note_off_c, 12, 63, 0
20, 18278, Note_off_c, 12, 65, 0
20, 18278, Note_off_c, 12, 67, 0
20, 18304, Note_on_c, 12, 59, 62
20, 18304, Note_on_c, 12, 63, 62
20, 18304, Note_on_c, 12, 65, 62
20, 18304, Note_on_c, 12, 67, 62
20, 18406, Note_off_c, 12, 59, 0
20, 18406, Note_off_c, 12, 63, 0
20, 18406, Note_off_c, 12, 65, 0
20, 18406, Note_off_c, 12, 67, 0
20, 18432, Note_on_c, 12, 60, 62
20, 18432, Note_on_c, 12, 63, 62
20, 18432, Note_on_c, 12, 65, 62
20, 18432, Note_on_c, 12, 67, 62
20, 18534, Note_off_c, 12, 60, 0
20, 18534, Note_off_c, 12, 63, 0
20, 18534, Note_off_c, 12, 65, 0
20, 18534, Note_off_c, 12, 67, 0
20, 18560, Note_on_c, 12, 60, 62
20, 18560, Note_on_c, 12, 63, 62
20, 18560, Note_on_c, 12, 65, 62
20, 18560, Note_on_c, 12, 67, 62
20, 18662, Note_off_c, 12, 60, 0
20, 18662, Note_off_c, 12, 63, 0
20, 18662, Note_off_c, 12, 65, 0
20, 18662, Note_off_c, 12, 67, 0
20, 18688, Note_on_c, 12, 60, 62
20, 18688, Note_on_c, 12, 63, 62
20, 18688, Note_on_c, 12, 65, 62
20, 18688, Note_on_c, 12, 67, 62
20, 18790, Note_off_c, 12, 60, 0
20, 18790, Note_off_c, 12, 63, 0
20, 18790, Note_off_c, 12, 65, 0
20, 18790, Note_off_c, 12, 67, 0
20, 18816, Note_on_c, 12, 60, 62
20, 18816, Note_on_c, 12, 63, 62
20, 18816, Note_on_c, 12, 65, 62
20, 18816, Note_on_c, 12, 67, 62
20, 18918, Note_off_c, 12, 60, 0
20, 18918, Note_off_c, 12, 63, 0
20, 18918, Note_off_c, 12, 65, 0
20, 18918, Note_off_c, 12, 67, 0
20, 18944, Note_on_c, 12, 60, 62
20, 18944, Note_on_c, 12, 63, 62
20, 18944, Note_on_c, 12, 65, 62
20, 18944, Note_on_c, 12, 67, 62
20, 19046, Note_off_c, 12, 60, 0
20, 19046, Note_off_c, 12, 63, 0
20, 19046, Note_off_c, 12, 65, 0
20, 19046, Note_off_c, 12, 67, 0
20, 19072, Note_on_c, 12, 60, 62
20, 19072, Note_on_c, 12, 63, 62
20, 19072, Note_on_c, 12, 65, 62
20, 19072, Note_on_c, 12, 67, 62
20, 19174, Note_off_c, 12, 60, 0
20, 19174, Note_off_c, 12, 63, 0
20, 19174, Note_off_c, 12, 65, 0
20, 19174, Note_off_c, 12, 67, 0
20, 19200, Note_on_c, 12, 60, 64
20, 19200, Note_on_c, 12, 64, 64
20, 19200, Note_on_c, 12, 66, 64
20, 19200, Note_on_c, 12, 68, 64
20, 19302, Note_off_c, 12, 60, 0
20, 19302, Note_off_c, 12, 64, 0
20, 19302, Note_off_c, 12, 66, 0
20, 19302, Note_off_c, 12, 68, 0
20, 19328, Note_on_c, 12, 60, 64
20, 19328, Note_on_c, 12, 64, 64
20, 19328, Note_on_c, 12, 66, 64
20, 19328, Note_on_c, 12, 68, 64
20, 19430, Note_off_c, 12, 60, 0
20, 19430, Note_off_c, 12, 64, 0
20, 19430, Note_off_c, 12, 66, 0
20, 19430, Note_off_c, 12, 68, 0
20, 19456, Note_on_c, 12, 60, 58
20, 19456, Note_on_c, 12, 63, 58
20, 19456, Note_on_c, 12, 66, 58
20, 19456, Note_on_c, 12, 68, 58
20, 19558, Note_off_c, 12, 60, 0
20, 19558, Note_off_c, 12, 63, 0
20, 19558, Note_off_c, 12, 66, 0
20, 19558, Note_off_c, 12, 68, 0
20, 19584, Note_on_c, 12, 60, 58
20, 19584, Note_on_c, 12, 63, 58
20, 19584, Note_on_c, 12, 66, 58
20, 19584, Note_on_c, 12, 68, 58
20, 19686, Note_off_c, 12, 60, 0
20, 19686, Note_off_c, 12, 63, 0
20, 19686, Note_off_c, 12, 66, 0
20, 19686, Note_off_c, 12, 68, 0
20, 19712, Note_on_c, 12, 60, 58
20, 19712, Note_on_c, 12, 63, 58
20, 19712, Note_on_c, 12, 66, 58
20, 19712, Note_on_c, 12, 68, 58
20, 19814, Note_off_c, 12, 60, 0
20, 19814, Note_off_c, 12, 63, 0
20, 19814, Note_off_c, 12, 66, 0
20, 19814, Note_off_c, 12, 68, 0
20, 19840, Note_on_c, 12, 60, 58
20, 19840, Note_on_c, 12, 63, 58
20, 19840, Note_on_c, 12, 66, 58
20, 19840, Note_on_c, 12, 68, 58
20, 19942, Note_off_c, 12, 60, 0
20, 19942, Note_off_c, 12, 63, 0
20, 19942, Note_off_c, 12, 66, 0
20, 19942, Note_off_c, 12, 68, 0
20, 19968, Note_on_c, 12, 61, 62
20, 19968, Note_on_c, 12, 64, 62
20, 19968, Note_on_c, 12, 67, 62
20, 19968, Note_on_c, 12, 69, 62
20, 20070, Note_off_c, 12, 61, 0
20, 20070, Note_off_c, 12, 64, 0
20, 20070, Note_off_c, 12, 67, 0
20, 20070, Note_off_c, 12, 69, 0
20, 20096, Note_on_c, 12, 61, 62
20, 20096, Note_on_c, 12, 64, 62
20, 20096, Note_on_c, 12, 67, 62
20, 20096, Note_on_c, 12, 69, 62
20, 20198, Note_off_c, 12, 61, 0
20, 20198, Note_off_c, 12, 64, 0
20, 20198, Note_off_c, 12, 67, 0
20, 20198, Note_off_c, 12, 69, 0
20, 20224, Note_on_c, 12, 61, 62
20, 20224, Note_on_c, 12, 64, 62
20, 20224, Note_on_c, 12, 67, 62
20, 20224, Note_on_c, 12, 69, 62
20, 20326, Note_off_c, 12, 61, 0
20, 20326, Note_off_c, 12, 64, 0
20, 20326, Note_off_c, 12, 67, 0
20, 20326, Note_off_c, 12, 69, 0
20, 20352, Note_on_c, 12, 61, 62
20, 20352, Note_on_c, 12, 64, 62
20, 20352, Note_on_c, 12, 67, 62
20, 20352, Note_on_c, 12, 69, 62
20, 20454, Note_off_c, 12, 61, 0
20, 20454, Note_off_c, 12, 64, 0
20, 20454, Note_off_c, 12, 67, 0
20, 20454, Note_off_c, 12, 69, 0
20, 20480, Note_on_c, 12, 61, 63
20, 20480, Note_on_c, 12, 64, 63
20, 20480, Note_on_c, 12, 67, 63
20, 20480, Note_on_c, 12, 69, 63
20, 20582, Note_off_c, 12, 61, 0
20, 20582, Note_off_c, 12, 64, 0
20, 20582, Note_off_c, 12, 67, 0
20, 20582, Note_off_c, 12, 69, 0
20, 20608, Note_on_c, 12, 61, 63
20, 20608, Note_on_c, 12, 64, 63
20, 20608, Note_on_c, 12, 67, 63
20, 20608, Note_on_c, 12, 69, 63
20, 20710, Note_off_c, 12, 61, 0
20, 20710, Note_off_c, 12, 64, 0
20, 20710, Note_off_c, 12, 67, 0
20, 20710, Note_off_c, 12, 69, 0
20, 20736, Note_on_c, 12, 61, 63
20, 20736, Note_on_c, 12, 64, 63
20, 20736, Note_on_c, 12, 67, 63
20, 20736, Note_on_c, 12, 69, 63
20, 20838, Note_off_c, 12, 61, 0
20, 20838, Note_off_c, 12, 64, 0
20, 20838, Note_off_c, 12, 67, 0
20, 20838, Note_off_c, 12, 69, 0
20, 20864, Note_on_c, 12, 61, 63
20, 20864, Note_on_c, 12, 64, 63
20, 20864, Note_on_c, 12, 67, 63
20, 20864, Note_on_c, 12, 69, 63
20, 20966, Note_off_c, 12, 61, 0
20, 20966, Note_off_c, 12, 64, 0
20, 20966, Note_off_c, 12, 67, 0
20, 20966, Note_off_c, 12, 69, 0
20, 20992, Note_on_c, 12, 61, 68
20, 20992, Note_on_c, 12, 64, 68
20, 20992, Note_on_c, 12, 68, 68
20, 20992, Note_on_c, 12, 70, 68
20, 21094, Note_off_c, 12, 61, 0
20, 21094, Note_off_c, 12, 64, 0
20, 21094, Note_off_c, 12, 68, 0
20, 21094, Note_off_c, 12, 70, 0
20, 21120, Note_on_c, 12, 61, 68
20, 21120, Note_on_c, 12, 64, 68
20, 21120, Note_on_c, 12, 68, 68
20, 21120, Note_on_c, 12, 70, 68
20, 21222, Note_off_c, 12, 61, 0
20, 21222, Note_off_c, 12, 64, 0
20, 21222, Note_off_c, 12, 68, 0
20, 21222, Note_off_c, 12, 70, 0
20, 21248, Note_on_c, 12, 61, 68
20, 21248, Note_on_c, 12, 64, 68
20, 21248, Note_on_c, 12, 68, 68
20, 21248, Note_on_c, 12, 70, 68
20, 21350, Note_off_c, 12, 61, 0
20, 21350, Note_off_c, 12, 64, 0
20, 21350, Note_off_c, 12, 68, 0
20, 21350, Note_off_c, 12, 70, 0
20, 21376, Note_on_c, 12, 61, 68
20, 21376, Note_on_c, 12, 64, 68
20, 21376, Note_on_c, 12, 68, 68
20, 21376, Note_on_c, 12, 70, 68
20, 21478, Note_off_c, 12, 61, 0
20, 21478, Note_off_c, 12, 64, 0
20, 21478, Note_off_c, 12, 68, 0
20, 21478, Note_off_c, 12, 70, 0
20, 21504, Note_on_c, 12, 61, 64
20, 21504, Note_on_c, 12, 64, 64
20, 21504, Note_on_c, 12, 68, 64
20, 21504, Note_on_c, 12, 70, 64
20, 21606, Note_off_c, 12, 61, 0
20, 21606, Note_off_c, 12, 64, 0
20, 21606, Note_off_c, 12, 68, 0
20, 21606, Note_off_c, 12, 70, 0
20, 21632, Note_on_c, 12, 61, 64
20, 21632, Note_on_c, 12, 64, 64
20, 21632, Note_on_c, 12, 68, 64
20, 21632, Note_on_c, 12, 70, 64
20, 21734, Note_off_c, 12, 61, 0
20, 21734, Note_off_c, 12, 64, 0
20, 21734, Note_off_c, 12, 68, 0
20, 21734, Note_off_c, 12, 70, 0
20, 21760, Note_on_c, 12, 61, 60
20, 21760, Note_on_c, 12, 65, 60
20, 21760, Note_on_c, 12, 68, 60
20, 21760, Note_on_c, 12, 70, 60
20, 21862, Note_off_c, 12, 61, 0
20, 21862, Note_off_c, 12, 65, 0
20, 21862, Note_off_c, 12, 68, 0
20, 21862, Note_off_c, 12, 70, 0
20, 21888, Note_on_c, 12, 61, 60
20, 21888, Note_on_c, 12, 65, 60
20, 21888, Note_on_c, 12, 68, 60
20, 21888, Note_on_c, 12, 70, 60
20, 21990, Note_off_c, 12, 61, 0
20, 21990, Note_off_c, 12, 65, 0
20, 21990, Note_off_c, 12, 68, 0
20, 21990, Note_off_c, 12, 70, 0
20, 22016, Note_on_c, 12, 62, 59
20, 22016, Note_on_c, 12, 65, 59
20, 22016, Note_on_c, 12, 68, 59
20, 22016, Note_on_c, 12, 70, 59
20, 22118, Note_off_c, 12, 62, 0
20, 22118, Note_off_c, 12, 65, 0
20, 22118, Note_off_c, 12, 68, 0
20, 22118, Note_off_c, 12, 70, 0
20, 22144, Note_on_c, 12, 62, 59
20, 22144, Note_on_c, 12, 65, 59
20, 22144, Note_on_c, 12, 68, 59
20, 22144, Note_on_c, 12, 70, 59
20, 22246, Note_off_c, 12, 62, 0
20, 22246, Note_off_c, 12, 65, 0
20, 22246, Note_off_c, 12, 68, 0
20, 22246, Note_off_c, 12, 70, 0
20, 22272, Note_on_c, 12, 62, 59
20, 22272, Note_on_c, 12, 65, 59
20, 22272, Note_on_c, 12, 68, 59
20, 22272, Note_on_c, 12, 70, 59
20, 22374, Note_off_c, 12, 62, 0
20, 22374, Note_off_c, 12, 65, 0
20, 22374, Note_off_c, 12, 68, 0
20, 22374, Note_off_c, 12, 70, 0
20, 22400, Note_on_c, 12, 62, 59
20, 22400, Note_on_c, 12, 65, 59
20, 22400, Note_on_c, 12, 68, 59
20, 22400, Note_on_c, 12, 70, 59
20, 22502, Note_off_c, 12, 62, 0
20, 22502, Note_off_c, 12, 65, 0
20, 22502, Note_off_c, 12, 68, 0
20, 22502, Note_off_c, 12, 70, 0
20, 22528, Note_on_c, 12, 62, 62
20, 22528, Note_on_c, 12, 65, 62
20, 22528, Note_on_c, 12, 68, 62
20, 22528, Note_on_c, 12, 70, 62
20, 22630, Note_off_c, 12, 62, 0
20, 22630, Note_off_c, 12, 65, 0
20, 22630, Note_off_c, 12, 68, 0
20, 22630, Note_off_c, 12, 70, 0
20, 22656, Note_on_c, 12, 62, 62
20, 22656, Note_on_c, 12, 65, 62
20, 22656, Note_on_c, 12, 68, 62
20, 22656, Note_on_c, 12, 70, 62
20, 22758, Note_off_c, 12, 62, 0
20, 22758, Note_off_c, 12, 65, 0
20, 22758, Note_off_c, 12, 68, 0
20, 22758, Note_off_c, 12, 70, 0
20, 22784, Note_on_c, 12, 62, 62
20, 22784, Note_on_c, 12, 65, 62
20, 22784, Note_on_c, 12, 68, 62
20, 22784, Note_on_c, 12, 70, 62
20, 22886, Note_off_c, 12, 62, 0
20, 22886, Note_off_c, 12, 65, 0
20, 22886, Note_off_c, 12, 68, 0
20, 22886, Note_off_c, 12, 70, 0
20, 22912, Note_on_c, 12, 62, 62
20, 22912, Note_on_c, 12, 65, 62
20, 22912, Note_on_c, 12, 68, 62
20, 22912, Note_on_c, 12, 70, 62
20, 23014, Note_off_c, 12, 62, 0
20, 23014, Note_off_c, 12, 65, 0
20, 23014, Note_off_c, 12, 68, 0
20, 23014, Note_off_c, 12, 70, 0
20, 23040, Note_on_c, 12, 62, 69
20, 23040, Note_on_c, 12, 65, 69
20, 23040, Note_on_c, 12, 69, 69
20, 23040, Note_on_c, 12, 71, 69
20, 23142, Note_off_c, 12, 62, 0
20, 23142, Note_off_c, 12, 65, 0
20, 23142, Note_off_c, 12, 69, 0
20, 23142, Note_off_c, 12, 71, 0
20, 23168, Note_on_c, 12, 62, 69
20, 23168, Note_on_c, 12, 65, 69
20, 23168, Note_on_c, 12, 69, 69
20, 23168, Note_on_c, 12, 71, 69
20, 23270, Note_off_c, 12, 62, 0
20, 23270, Note_off_c, 12, 65, 0
20, 23270, Note_off_c, 12, 69, 0
20, 23270, Note_off_c, 12, 71, 0
20, 23296, Note_on_c, 12, 62, 69
20, 23296, Note_on_c, 12, 65, 69
20, 23296, Note_on_c, 12, 69, 69
20, 23296, Note_on_c, 12, 71, 69
20, 23398, Note_off_c, 12, 62, 0
20, 23398, Note_off_c, 12, 65, 0
20, 23398, Note_off_c, 12, 69, 0
20, 23398, Note_off_c, 12, 71, 0
20, 23424, Note_on_c, 12, 62, 69
20, 23424, Note_on_c, 12, 65, 69
20, 23424, Note_on_c, 12, 69, 69
20, 23424, Note_on_c, 12, 71, 69
20, 23526, Note_off_c, 12, 62, 0
20, 23526, Note_off_c, 12, 65, 0
20, 23526, Note_off_c, 12, 69, 0
20, 23526, Note_off_c, 12, 71, 0
20, 23552, Note_on_c, 12, 62, 57
20, 23552, Note_on_c, 12, 65, 57
20, 23552, Note_on_c, 12, 69, 57
20, 23552, Note_on_c, 12, 71, 57
20, 23654, Note_off_c, 12, 62, 0
20, 23654, Note_off_c, 12, 65, 0
20, 23654, Note_off_c, 12, 69, 0
20, 23654, Note_off_c, 12, 71, 0
20, 23680, Note_on_c, 12, 62, 57
20, 23680, Note_on_c, 12, 65, 57
20, 23680, Note_on_c, 12, 69, 57
20, 23680, Note_on_c, 12, 71, 57
20, 23782, Note_off_c, 12, 62, 0
20, 23782, Note_off_c, 12, 65, 0
20, 23782, Note_off_c, 12, 69, 0
20, 23782, Note_off_c, 12, 71, 0
20, 23808, Note_on_c, 12, 62, 57
20, 23808, Note_on_c, 12, 65, 57
20, 23808, Note_on_c, 12, 69, 57
20, 23808, Note_on_c, 12, 71, 57
20, 23910, Note_off_c, 12, 62, 0
20, 23910, Note_off_c, 12, 65, 0
20, 23910, Note_off_c, 12, 69, 0
20, 23910, Note_off_c, 12, 71, 0
20, 23936, Note_on_c, 12, 62, 57
20, 23936, Note_on_c, 12, 65, 57
20, 23936, Note_on_c, 12, 69, 57
20, 23936, Note_on_c, 12, 71, 57
20, 24038, Note_off_c, 12, 62, 0
20, 24038, Note_off_c, 12, 65, 0
20, 24038, Note_off_c, 12, 69, 0
20, 24038, Note_off_c, 12, 71, 0
20, 24064, Note_on_c, 12, 62, 60
20, 24064, Note_on_c, 12, 66, 60
20, 24064, Note_on_c, 12, 68, 60
20, 24064, Note_on_c, 12, 71, 60
20, 24166, Note_off_c, 12, 62, 0
20, 24166, Note_off_c, 12, 66, 0
20, 24166, Note_off_c, 12, 68, 0
20, 24166, Note_off_c, 12, 71, 0
20, 24192, Note_on_c, 12, 62, 60
20, 24192, Note_on_c, 12, 66, 60
20, 24192, Note_on_c, 12, 68, 60
20, 24192, Note_on_c, 12, 71, 60
20, 24294, Note_off_c, 12, 62, 0
20, 24294, Note_off_c, 12, 66, 0
20, 24294, Note_off_c, 12, 68, 0
20, 24294, Note_off_c, 12, 71, 0
20, 24320, Note_on_c, 12, 62, 60
20, 24320, Note_on_c, 12, 66, 60
20, 24320, Note_on_c, 12, 68, 60
20, 24320, Note_on_c, 12, 71, 60
20, 24422, Note_off_c, 12, 62, 0
20, 24422, Note_off_c, 12, 66, 0
20, 24422, Note_off_c, 12, 68, 0
20, 24422, Note_off_c, 12, 71, 0
20, 24448, Note_on_c, 12, 62, 60
20, 24448, Note_on_c, 12, 66, 60
20, 24448, Note_on_c, 12, 68, 60
20, 24448, Note_on_c, 12, 71, 60
20, 24550, Note_off_c, 12, 62, 0
20, 24550, Note_off_c, 12, 66, 0
20, 24550, Note_off_c, 12, 68, 0
20, 24550, Note_off_c, 12, 71, 0
20, 24576, Note_on_c, 12, 62, 62
20, 24576, Note_on_c, 12, 66, 62
20, 24576, Note_on_c, 12, 68, 62
20, 24576, Note_on_c, 12, 71, 62
20, 24678, Note_off_c, 12, 62, 0
20, 24678, Note_off_c, 12, 66, 0
20, 24678, Note_off_c, 12, 68, 0
20, 24678, Note_off_c, 12, 71, 0
20, 24704, Note_on_c, 12, 62, 62
20, 24704, Note_on_c, 12, 66, 62
20, 24704, Note_on_c, 12, 68, 62
20, 24704, Note_on_c, 12, 71, 62
20, 24806, Note_off_c, 12, 62, 0
20, 24806, Note_off_c, 12, 66, 0
20, 24806, Note_off_c, 12, 68, 0
20, 24806, Note_off_c, 12, 71, 0
20, 24832, Note_on_c, 12, 62, 62
20, 24832, Note_on_c, 12, 66, 62
20, 24832, Note_on_c, 12, 68, 62
20, 24832, Note_on_c, 12, 71, 62
20, 24934, Note_off_c, 12, 62, 0
20, 24934, Note_off_c, 12, 66, 0
20, 24934, Note_off_c, 12, 68, 0
20, 24934, Note_off_c, 12, 71, 0
20, 24960, Note_on_c, 12, 62, 58
20, 24960, Note_on_c, 12, 67, 58
20, 24960, Note_on_c, 12, 70, 58
20, 25088, Note_off_c, 12, 62, 0
20, 25088, Note_off_c, 12, 67, 0
20, 25088, Note_off_c, 12, 70, 0
20, 25088, Note_on_c, 12, 62, 59
20, 25088, Note_on_c, 12, 67, 59
20, 25088, Note_on_c, 12, 70, 59
20, 25190, Note_off_c, 12, 62, 0
20, 25190, Note_off_c, 12, 67, 0
20, 25190, Note_off_c, 12, 70, 0
20, 25216, Note_on_c, 12, 62, 59
20, 25216, Note_on_c, 12, 67, 59
20, 25216, Note_on_c, 12, 70, 59
20, 25318, Note_off_c, 12, 62, 0
20, 25318, Note_off_c, 12, 67, 0
20, 25318, Note_off_c, 12, 70, 0
20, 25344, Note_on_c, 12, 62, 59
20, 25344, Note_on_c, 12, 67, 59
20, 25344, Note_on_c, 12, 70, 59
20, 25446, Note_off_c, 12, 62, 0
20, 25446, Note_off_c, 12, 67, 0
20, 25446, Note_off_c, 12, 70, 0
20, 25472, Note_on_c, 12, 62, 59
20, 25472, Note_on_c, 12, 67, 59
20, 25472, Note_on_c, 12, 70, 59
20, 25574, Note_off_c, 12, 62, 0
20, 25574, Note_off_c, 12, 67, 0
20, 25574, Note_off_c, 12, 70, 0
20, 25600, Note_on_c, 12, 62, 57
20, 25600, Note_on_c, 12, 67, 57
20, 25600, Note_on_c, 12, 70, 57
20, 25702, Note_off_c, 12, 62, 0
20, 25702, Note_off_c, 12, 67, 0
20, 25702, Note_off_c, 12, 70, 0
20, 25728, Note_on_c, 12, 62, 57
20, 25728, Note_on_c, 12, 67, 57
20, 25728, Note_on_c, 12, 70, 57
20, 25830, Note_off_c, 12, 62, 0
20, 25830, Note_off_c, 12, 67, 0
20, 25830, Note_off_c, 12, 70, 0
20, 25856, Note_on_c, 12, 62, 57
20, 25856, Note_on_c, 12, 67, 57
20, 25856, Note_on_c, 12, 70, 57
20, 25958, Note_off_c, 12, 62, 0
20, 25958, Note_off_c, 12, 67, 0
20, 25958, Note_off_c, 12, 70, 0
20, 25984, Note_on_c, 12, 55, 51
20, 25984, Note_on_c, 12, 58, 51
20, 25984, Note_on_c, 12, 62, 51
20, 25984, Note_on_c, 12, 63, 51
20, 26112, Note_off_c, 12, 55, 0
20, 26112, Note_off_c, 12, 58, 0
20, 26112, Note_off_c, 12, 62, 0
20, 26112, Note_off_c, 12, 63, 0
20, 26112, Note_on_c, 12, 55, 60
20, 26112, Note_on_c, 12, 58, 60
20, 26112, Note_on_c, 12, 62, 60
20, 26112, Note_on_c, 12, 63, 60
20, 26214, Note_off_c, 12, 55, 0
20, 26214, Note_off_c, 12, 58, 0
20, 26214, Note_off_c, 12, 62, 0
20, 26214, Note_off_c, 12, 63, 0
20, 26240, Note_on_c, 12, 55, 60
20, 26240, Note_on_c, 12, 58, 60
20, 26240, Note_on_c, 12, 62, 60
20, 26240, Note_on_c, 12, 63, 60
20, 26342, Note_off_c, 12, 55, 0
20, 26342, Note_off_c, 12, 58, 0
20, 26342, Note_off_c, 12, 62, 0
20, 26342, Note_off_c, 12, 63, 0
20, 26368, Note_on_c, 12, 55, 60
20, 26368, Note_on_c, 12, 58, 60
20, 26368, Note_on_c, 12, 62, 60
20, 26368, Note_on_c, 12, 63, 60
20, 26470, Note_off_c, 12, 55, 0
20, 26470, Note_off_c, 12, 58, 0
20, 26470, Note_off_c, 12, 62, 0
20, 26470, Note_off_c, 12, 63, 0
20, 26496, Note_on_c, 12, 55, 60
20, 26496, Note_on_c, 12, 58, 60
20, 26496, Note_on_c, 12, 62, 60
20, 26496, Note_on_c, 12, 63, 60
20, 26598, Note_off_c, 12, 55, 0
20, 26598, Note_off_c, 12, 58, 0
20, 26598, Note_off_c, 12, 62, 0
20, 26598, Note_off_c, 12, 63, 0
20, 26624, Note_on_c, 12, 55, 65
20, 26624, Note_on_c, 12, 58, 65
20, 26624, Note_on_c, 12, 62, 65
20, 26624, Note_on_c, 12, 63, 65
20, 26726, Note_off_c, 12, 55, 0
20, 26726, Note_off_c, 12, 58, 0
20, 26726, Note_off_c, 12, 62, 0
20, 26726, Note_off_c, 12, 63, 0
20, 26752, Note_on_c, 12, 55, 65
20, 26752, Note_on_c, 12, 58, 65
20, 26752, Note_on_c, 12, 62, 65
20, 26752, Note_on_c, 12, 63, 65
20, 26854, Note_off_c, 12, 55, 0
20, 26854, Note_off_c, 12, 58, 0
20, 26854, Note_off_c, 12, 62, 0
20, 26854, Note_off_c, 12, 63, 0
20, 26880, Note_on_c, 12, 55, 65
20, 26880, Note_on_c, 12, 58, 65
20, 26880, Note_on_c, 12, 62, 65
20, 26880, Note_on_c, 12, 65, 65
20, 26982, Note_off_c, 12, 55, 0
20, 26982, Note_off_c, 12, 58, 0
20, 26982, Note_off_c, 12, 62, 0
20, 26982, Note_off_c, 12, 65, 0
20, 27008, Note_on_c, 12, 55, 65
20, 27008, Note_on_c, 12, 58, 65
20, 27008, Note_on_c, 12, 62, 65
20, 27008, Note_on_c, 12, 65, 65
20, 27110, Note_off_c, 12, 55, 0
20, 27110, Note_off_c, 12, 58, 0
20, 27110, Note_off_c, 12, 62, 0
20, 27110, Note_off_c, 12, 65, 0
20, 27136, Note_on_c, 12, 55, 65
20, 27136, Note_on_c, 12, 58, 65
20, 27136, Note_on_c, 12, 62, 65
20, 27136, Note_on_c, 12, 65, 65
20, 27238, Note_off_c, 12, 55, 0
20, 27238, Note_off_c, 12, 58, 0
20, 27238, Note_off_c, 12, 62, 0
20, 27238, Note_off_c, 12, 65, 0
20, 27264, Note_on_c, 12, 55, 65
20, 27264, Note_on_c, 12, 58, 65
20, 27264, Note_on_c, 12, 62, 65
20, 27264, Note_on_c, 12, 65, 65
20, 27366, Note_off_c, 12, 55, 0
20, 27366, Note_off_c, 12, 58, 0
20, 27366, Note_off_c, 12, 62, 0
20, 27366, Note_off_c, 12, 65, 0
20, 27392, Note_on_c, 12, 55, 65
20, 27392, Note_on_c, 12, 58, 65
20, 27392, Note_on_c, 12, 62, 65
20, 27392, Note_on_c, 12, 65, 65
20, 27494, Note_off_c, 12, 55, 0
20, 27494, Note_off_c, 12, 58, 0
20, 27494, Note_off_c, 12, 62, 0
20, 27494, Note_off_c, 12, 65, 0
20, 27520, Note_on_c, 12, 55, 65
20, 27520, Note_on_c, 12, 58, 65
20, 27520, Note_on_c, 12, 62, 65
20, 27520, Note_on_c, 12, 65, 65
20, 27622, Note_off_c, 12, 55, 0
20, 27622, Note_off_c, 12, 58, 0
20, 27622, Note_off_c, 12, 62, 0
20, 27622, Note_off_c, 12, 65, 0
20, 27648, Note_on_c, 12, 55, 64
20, 27648, Note_on_c, 12, 58, 64
20, 27648, Note_on_c, 12, 61, 64
20, 27648, Note_on_c, 12, 65, 64
20, 27750, Note_off_c, 12, 55, 0
20, 27750, Note_off_c, 12, 58, 0
20, 27750, Note_off_c, 12, 61, 0
20, 27750, Note_off_c, 12, 65, 0
20, 27776, Note_on_c, 12, 55, 64
20, 27776, Note_on_c, 12, 58, 64
20, 27776, Note_on_c, 12, 61, 64
20, 27776, Note_on_c, 12, 65, 64
20, 27878, Note_off_c, 12, 55, 0
20, 27878, Note_off_c, 12, 58, 0
20, 27878, Note_off_c, 12, 61, 0
20, 27878, Note_off_c, 12, 65, 0
20, 27904, Note_on_c, 12, 55, 64
20, 27904, Note_on_c, 12, 58, 64
20, 27904, Note_on_c, 12, 61, 64
20, 27904, Note_on_c, 12, 65, 64
20, 28006, Note_off_c, 12, 55, 0
20, 28006, Note_off_c, 12, 58, 0
20, 28006, Note_off_c, 12, 61, 0
20, 28006, Note_off_c, 12, 65, 0
20, 28032, Note_on_c, 12, 57, 64
20, 28032, Note_on_c, 12, 58, 64
20, 28032, Note_on_c, 12, 62, 64
20, 28032, Note_on_c, 12, 66, 64
20, 28160, Note_off_c, 12, 57, 0
20, 28160, Note_off_c, 12, 58, 0
20, 28160, Note_off_c, 12, 62, 0
20, 28160, Note_off_c, 12, 66, 0
20, 28160, Note_on_c, 12, 57, 63
20, 28160, Note_on_c, 12, 58, 63
20, 28160, Note_on_c, 12, 62, 63
20, 28160, Note_on_c, 12, 66, 63
20, 28262, Note_off_c, 12, 57, 0
20, 28262, Note_off_c, 12, 58, 0
20, 28262, Note_off_c, 12, 62, 0
20, 28262, Note_off_c, 12, 66, 0
20, 28288, Note_on_c, 12, 57, 63
20, 28288, Note_on_c, 12, 58, 63
20, 28288, Note_on_c, 12, 62, 63
20, 28288, Note_on_c, 12, 66, 63
20, 28390, Note_off_c, 12, 57, 0
20, 28390, Note_off_c, 12, 58, 0
20, 28390, Note_off_c, 12, 62, 0
20, 28390, Note_off_c, 12, 66, 0
20, 28416, Note_on_c, 12, 57, 63
20, 28416, Note_on_c, 12, 58, 63
20, 28416, Note_on_c, 12, 62, 63
20, 28416, Note_on_c, 12, 66, 63
20, 28518, Note_off_c, 12, 57, 0
20, 28518, Note_off_c, 12, 58, 0
20, 28518, Note_off_c, 12, 62, 0
20, 28518, Note_off_c, 12, 66, 0
20, 28544, Note_on_c, 12, 57, 63
20, 28544, Note_on_c, 12, 58, 63
20, 28544, Note_on_c, 12, 62, 63
20, 28544, Note_on_c, 12, 66, 63
20, 28646, Note_off_c, 12, 57, 0
20, 28646, Note_off_c, 12, 58, 0
20, 28646, Note_off_c, 12, 62, 0
20, 28646, Note_off_c, 12, 66, 0
20, 28672, Note_on_c, 12, 57, 61
20, 28672, Note_on_c, 12, 58, 61
20, 28672, Note_on_c, 12, 62, 61
20, 28672, Note_on_c, 12, 66, 61
20, 28774, Note_off_c, 12, 57, 0
20, 28774, Note_off_c, 12, 58, 0
20, 28774, Note_off_c, 12, 62, 0
20, 28774, Note_off_c, 12, 66, 0
20, 28800, Note_on_c, 12, 57, 61
20, 28800, Note_on_c, 12, 58, 61
20, 28800, Note_on_c, 12, 62, 61
20, 28800, Note_on_c, 12, 66, 61
20, 28902, Note_off_c, 12, 57, 0
20, 28902, Note_off_c, 12, 58, 0
20, 28902, Note_off_c, 12, 62, 0
20, 28902, Note_off_c, 12, 66, 0
20, 28928, Note_on_c, 12, 57, 65
20, 28928, Note_on_c, 12, 59, 65
20, 28928, Note_on_c, 12, 63, 65
20, 28928, Note_on_c, 12, 67, 65
20, 29030, Note_off_c, 12, 57, 0
20, 29030, Note_off_c, 12, 59, 0
20, 29030, Note_off_c, 12, 63, 0
20, 29030, Note_off_c, 12, 67, 0
20, 29056, Note_on_c, 12, 57, 65
20, 29056, Note_on_c, 12, 59, 65
20, 29056, Note_on_c, 12, 63, 65
20, 29056, Note_on_c, 12, 67, 65
20, 29158, Note_off_c, 12, 57, 0
20, 29158, Note_off_c, 12, 59, 0
20, 29158, Note_off_c, 12, 63, 0
20, 29158, Note_off_c, 12, 67, 0
20, 29184, Note_on_c, 12, 57, 65
20, 29184, Note_on_c, 12, 59, 65
20, 29184, Note_on_c, 12, 63, 65
20, 29184, Note_on_c, 12, 67, 65
20, 29286, Note_off_c, 12, 57, 0
20, 29286, Note_off_c, 12, 59, 0
20, 29286, Note_off_c, 12, 63, 0
20, 29286, Note_off_c, 12, 67, 0
20, 29312, Note_on_c, 12, 57, 65
20, 29312, Note_on_c, 12, 59, 65
20, 29312, Note_on_c, 12, 63, 65
20, 29312, Note_on_c, 12, 67, 65
20, 29414, Note_off_c, 12, 57, 0
20, 29414, Note_off_c, 12, 59, 0
20, 29414, Note_off_c, 12, 63, 0
20, 29414, Note_off_c, 12, 67, 0
20, 29440, Note_on_c, 12, 57, 65
20, 29440, Note_on_c, 12, 59, 65
20, 29440, Note_on_c, 12, 63, 65
20, 29440, Note_on_c, 12, 67, 65
20, 29542, Note_off_c, 12, 57, 0
20, 29542, Note_off_c, 12, 59, 0
20, 29542, Note_off_c, 12, 63, 0
20, 29542, Note_off_c, 12, 67, 0
20, 29568, Note_on_c, 12, 57, 65
20, 29568, Note_on_c, 12, 59, 65
20, 29568, Note_on_c, 12, 63, 65
20, 29568, Note_on_c, 12, 67, 65
20, 29670, Note_off_c, 12, 57, 0
20, 29670, Note_off_c, 12, 59, 0
20, 29670, Note_off_c, 12, 63, 0
20, 29670, Note_off_c, 12, 67, 0
20, 29696, Note_on_c, 12, 57, 62
20, 29696, Note_on_c, 12, 59, 62
20, 29696, Note_on_c, 12, 63, 62
20, 29696, Note_on_c, 12, 67, 62
20, 29798, Note_off_c, 12, 57, 0
20, 29798, Note_off_c, 12, 59, 0
20, 29798, Note_off_c, 12, 63, 0
20, 29798, Note_off_c, 12, 67, 0
20, 29824, Note_on_c, 12, 57, 62
20, 29824, Note_on_c, 12, 59, 62
20, 29824, Note_on_c, 12, 63, 62
20, 29824, Note_on_c, 12, 67, 62
20, 29926, Note_off_c, 12, 57, 0
20, 29926, Note_off_c, 12, 59, 0
20, 29926, Note_off_c, 12, 63, 0
20, 29926, Note_off_c, 12, 67, 0
20, 29952, Note_on_c, 12, 57, 66
20, 29952, Note_on_c, 12, 59, 66
20, 29952, Note_on_c, 12, 63, 66
20, 29952, Note_on_c, 12, 68, 66
20, 30054, Note_off_c, 12, 57, 0
20, 30054, Note_off_c, 12, 59, 0
20, 30054, Note_off_c, 12, 63, 0
20, 30054, Note_off_c, 12, 68, 0
20, 30080, Note_on_c, 12, 57, 66
20, 30080, Note_on_c, 12, 59, 66
20, 30080, Note_on_c, 12, 63, 66
20, 30080, Note_on_c, 12, 68, 66
20, 30182, Note_off_c, 12, 57, 0
20, 30182, Note_off_c, 12, 59, 0
20, 30182, Note_off_c, 12, 63, 0
20, 30182, Note_off_c, 12, 68, 0
20, 30208, Note_on_c, 12, 57, 66
20, 30208, Note_on_c, 12, 59, 66
20, 30208, Note_on_c, 12, 63, 66
20, 30208, Note_on_c, 12, 68, 66
20, 30310, Note_off_c, 12, 57, 0
20, 30310, Note_off_c, 12, 59, 0
20, 30310, Note_off_c, 12, 63, 0
20, 30310, Note_off_c, 12, 68, 0
20, 30336, Note_on_c, 12, 57, 66
20, 30336, Note_on_c, 12, 59, 66
20, 30336, Note_on_c, 12, 63, 66
20, 30336, Note_on_c, 12, 68, 66
20, 30438, Note_off_c, 12, 57, 0
20, 30438, Note_off_c, 12, 59, 0
20, 30438, Note_off_c, 12, 63, 0
20, 30438, Note_off_c, 12, 68, 0
20, 30464, Note_on_c, 12, 57, 66
20, 30464, Note_on_c, 12, 59, 66
20, 30464, Note_on_c, 12, 63, 66
20, 30464, Note_on_c, 12, 68, 66
20, 30566, Note_off_c, 12, 57, 0
20, 30566, Note_off_c, 12, 59, 0
20, 30566, Note_off_c, 12, 63, 0
20, 30566, Note_off_c, 12, 68, 0
20, 30592, Note_on_c, 12, 57, 66
20, 30592, Note_on_c, 12, 59, 66
20, 30592, Note_on_c, 12, 63, 66
20, 30592, Note_on_c, 12, 68, 66
20, 30694, Note_off_c, 12, 57, 0
20, 30694, Note_off_c, 12, 59, 0
20, 30694, Note_off_c, 12, 63, 0
20, 30694, Note_off_c, 12, 68, 0
20, 30720, Note_on_c, 12, 57, 63
20, 30720, Note_on_c, 12, 60, 63
20, 30720, Note_on_c, 12, 63, 63
20, 30720, Note_on_c, 12, 68, 63
20, 30822, Note_off_c, 12, 57, 0
20, 30822, Note_off_c, 12, 60, 0
20, 30822, Note_off_c, 12, 63, 0
20, 30822, Note_off_c, 12, 68, 0
20, 30848, Note_on_c, 12, 57, 63
20, 30848, Note_on_c, 12, 60, 63
20, 30848, Note_on_c, 12, 63, 63
20, 30848, Note_on_c, 12, 68, 63
20, 30950, Note_off_c, 12, 57, 0
20, 30950, Note_off_c, 12, 60, 0
20, 30950, Note_off_c, 12, 63, 0
20, 30950, Note_off_c, 12, 68, 0
20, 30976, Note_on_c, 12, 57, 63
20, 30976, Note_on_c, 12, 60, 63
20, 30976, Note_on_c, 12, 63, 63
20, 30976, Note_on_c, 12, 68, 63
20, 31078, Note_off_c, 12, 57, 0
20, 31078, Note_off_c, 12, 60, 0
20, 31078, Note_off_c, 12, 63, 0
20, 31078, Note_off_c, 12, 68, 0
20, 31104, Note_on_c, 12, 57, 66
20, 31104, Note_on_c, 12, 60, 66
20, 31104, Note_on_c, 12, 63, 66
20, 31104, Note_on_c, 12, 69, 66
20, 31232, Note_off_c, 12, 57, 0
20, 31232, Note_off_c, 12, 60, 0
20, 31232, Note_off_c, 12, 63, 0
20, 31232, Note_off_c, 12, 69, 0
20, 31232, Note_on_c, 12, 57, 59
20, 31232, Note_on_c, 12, 60, 59
20, 31232, Note_on_c, 12, 63, 59
20, 31232, Note_on_c, 12, 69, 59
20, 31334, Note_off_c, 12, 57, 0
20, 31334, Note_off_c, 12, 60, 0
20, 31334, Note_off_c, 12, 63, 0
20, 31334, Note_off_c, 12, 69, 0
20, 31360, Note_on_c, 12, 57, 59
20, 31360, Note_on_c, 12, 60, 59
20, 31360, Note_on_c, 12, 63, 59
20, 31360, Note_on_c, 12, 69, 59
20, 31462, Note_off_c, 12, 57, 0
20, 31462, Note_off_c, 12, 60, 0
20, 31462, Note_off_c, 12, 63, 0
20, 31462, Note_off_c, 12, 69, 0
20, 31488, Note_on_c, 12, 57, 57
20, 31488, Note_on_c, 12, 60, 57
20, 31488, Note_on_c, 12, 63, 57
20, 31488, Note_on_c, 12, 68, 57
20, 31590, Note_off_c, 12, 57, 0
20, 31590, Note_off_c, 12, 60, 0
20, 31590, Note_off_c, 12, 63, 0
20, 31590, Note_off_c, 12, 68, 0
20, 31616, Note_on_c, 12, 57, 57
20, 31616, Note_on_c, 12, 60, 57
20, 31616, Note_on_c, 12, 63, 57
20, 31616, Note_on_c, 12, 68, 57
20, 31718, Note_off_c, 12, 57, 0
20, 31718, Note_off_c, 12, 60, 0
20, 31718, Note_off_c, 12, 63, 0
20, 31718, Note_off_c, 12, 68, 0
20, 31744, Note_on_c, 12, 57, 58
20, 31744, Note_on_c, 12, 60, 58
20, 31744, Note_on_c, 12, 63, 58
20, 31744, Note_on_c, 12, 68, 58
20, 31846, Note_off_c, 12, 57, 0
20, 31846, Note_off_c, 12, 60, 0
20, 31846, Note_off_c, 12, 63, 0
20, 31846, Note_off_c, 12, 68, 0
20, 31872, Note_on_c, 12, 57, 58
20, 31872, Note_on_c, 12, 60, 58
20, 31872, Note_on_c, 12, 63, 58
20, 31872, Note_on_c, 12, 68, 58
20, 31974, Note_off_c, 12, 57, 0
20, 31974, Note_off_c, 12, 60, 0
20, 31974, Note_off_c, 12, 63, 0
20, 31974, Note_off_c, 12, 68, 0
20, 32000, Note_on_c, 12, 57, 64
20, 32000, Note_on_c, 12, 60, 64
20, 32000, Note_on_c, 12, 63, 64
20, 32000, Note_on_c, 12, 69, 64
20, 32102, Note_off_c, 12, 57, 0
20, 32102, Note_off_c, 12, 60, 0
20, 32102, Note_off_c, 12, 63, 0
20, 32102, Note_off_c, 12, 69, 0
20, 32128, Note_on_c, 12, 57, 64
20, 32128, Note_on_c, 12, 60, 64
20, 32128, Note_on_c, 12, 63, 64
20, 32128, Note_on_c, 12, 69, 64
20, 32230, Note_off_c, 12, 57, 0
20, 32230, Note_off_c, 12, 60, 0
20, 32230, Note_off_c, 12, 63, 0
20, 32230, Note_off_c, 12, 69, 0
20, 32256, Note_on_c, 12, 57, 64
20, 32256, Note_on_c, 12, 60, 64
20, 32256, Note_on_c, 12, 63, 64
20, 32256, Note_on_c, 12, 69, 64
20, 32358, Note_off_c, 12, 57, 0
20, 32358, Note_off_c, 12, 60, 0
20, 32358, Note_off_c, 12, 63, 0
20, 32358, Note_off_c, 12, 69, 0
20, 32384, Note_on_c, 12, 57, 64
20, 32384, Note_on_c, 12, 60, 64
20, 32384, Note_on_c, 12, 63, 64
20, 32384, Note_on_c, 12, 69, 64
20, 32486, Note_off_c, 12, 57, 0
20, 32486, Note_off_c, 12, 60, 0
20, 32486, Note_off_c, 12, 63, 0
20, 32486, Note_off_c, 12, 69, 0
20, 32512, Note_on_c, 12, 56, 59
20, 32512, Note_on_c, 12, 61, 59
20, 32512, Note_on_c, 12, 63, 59
20, 32512, Note_on_c, 12, 69, 59
20, 32614, Note_off_c, 12, 56, 0
20, 32614, Note_off_c, 12, 61, 0
20, 32614, Note_off_c, 12, 63, 0
20, 32614, Note_off_c, 12, 69, 0
20, 32640, Note_on_c, 12, 56, 59
20, 32640, Note_on_c, 12, 61, 59
20, 32640, Note_on_c, 12, 63, 59
20, 32640, Note_on_c, 12, 69, 59
20, 32742, Note_off_c, 12, 56, 0
20, 32742, Note_off_c, 12, 61, 0
20, 32742, Note_off_c, 12, 63, 0
20, 32742, Note_off_c, 12, 69, 0
20, 32768, Note_on_c, 12, 56, 62
20, 32768, Note_on_c, 12, 61, 62
20, 32768, Note_on_c, 12, 63, 62
20, 32768, Note_on_c, 12, 69, 62
20, 32870, Note_off_c, 12, 56, 0
20, 32870, Note_off_c, 12, 61, 0
20, 32870, Note_off_c, 12, 63, 0
20, 32870, Note_off_c, 12, 69, 0
20, 32896, Note_on_c, 12, 56, 62
20, 32896, Note_on_c, 12, 61, 62
20, 32896, Note_on_c, 12, 63, 62
20, 32896, Note_on_c, 12, 69, 62
20, 32998, Note_off_c, 12, 56, 0
20, 32998, Note_off_c, 12, 61, 0
20, 32998, Note_off_c, 12, 63, 0
20, 32998, Note_off_c, 12, 69, 0
20, 33024, Note_on_c, 12, 56, 62
20, 33024, Note_on_c, 12, 61, 62
20, 33024, Note_on_c, 12, 63, 62
20, 33024, Note_on_c, 12, 69, 62
20, 33126, Note_off_c, 12, 56, 0
20, 33126, Note_off_c, 12, 61, 0
20, 33126, Note_off_c, 12, 63, 0
20, 33126, Note_off_c, 12, 69, 0
20, 33152, Note_on_c, 12, 61, 58
20, 33152, Note_on_c, 12, 63, 58
20, 33152, Note_on_c, 12, 68, 58
20, 33152, Note_on_c, 12, 69, 58
20, 33280, Note_off_c, 12, 61, 0
20, 33280, Note_off_c, 12, 63, 0
20, 33280, Note_off_c, 12, 68, 0
20, 33280, Note_off_c, 12, 69, 0
20, 33280, Note_on_c, 12, 61, 62
20, 33280, Note_on_c, 12, 63, 62
20, 33280, Note_on_c, 12, 68, 62
20, 33280, Note_on_c, 12, 69, 62
20, 33382, Note_off_c, 12, 61, 0
20, 33382, Note_off_c, 12, 63, 0
20, 33382, Note_off_c, 12, 68, 0
20, 33382, Note_off_c, 12, 69, 0
20, 33408, Note_on_c, 12, 61, 62
20, 33408, Note_on_c, 12, 63, 62
20, 33408, Note_on_c, 12, 68, 62
20, 33408, Note_on_c, 12, 69, 62
20, 33510, Note_off_c, 12, 61, 0
20, 33510, Note_off_c, 12, 63, 0
20, 33510, Note_off_c, 12, 68, 0
20, 33510, Note_off_c, 12, 69, 0
20, 33536, Note_on_c, 12, 61, 62
20, 33536, Note_on_c, 12, 63, 62
20, 33536, Note_on_c, 12, 68, 62
20, 33536, Note_on_c, 12, 69, 62
20, 33638, Note_off_c, 12, 61, 0
20, 33638, Note_off_c, 12, 63, 0
20, 33638, Note_off_c, 12, 68, 0
20, 33638, Note_off_c, 12, 69, 0
20, 33664, Note_on_c, 12, 61, 62
20, 33664, Note_on_c, 12, 63, 62
20, 33664, Note_on_c, 12, 68, 62
20, 33664, Note_on_c, 12, 69, 62
20, 33766, Note_off_c, 12, 61, 0
20, 33766, Note_off_c, 12, 63, 0
20, 33766, Note_off_c, 12, 68, 0
20, 33766, Note_off_c, 12, 69, 0
20, 33792, Note_on_c, 12, 61, 65
20, 33792, Note_on_c, 12, 63, 65
20, 33792, Note_on_c, 12, 68, 65
20, 33792, Note_on_c, 12, 69, 65
20, 33894, Note_off_c, 12, 61, 0
20, 33894, Note_off_c, 12, 63, 0
20, 33894, Note_off_c, 12, 68, 0
20, 33894, Note_off_c, 12, 69, 0
20, 33920, Note_on_c, 12, 61, 65
20, 33920, Note_on_c, 12, 63, 65
20, 33920, Note_on_c, 12, 68, 65
20, 33920, Note_on_c, 12, 69, 65
20, 34022, Note_off_c, 12, 61, 0
20, 34022, Note_off_c, 12, 63, 0
20, 34022, Note_off_c, 12, 68, 0
20, 34022, Note_off_c, 12, 69, 0
20, 34048, Note_on_c, 12, 60, 59
20, 34048, Note_on_c, 12, 63, 59
20, 34048, Note_on_c, 12, 67, 59
20, 34048, Note_on_c, 12, 68, 59
20, 34150, Note_off_c, 12, 60, 0
20, 34150, Note_off_c, 12, 63, 0
20, 34150, Note_off_c, 12, 67, 0
20, 34150, Note_off_c, 12, 68, 0
20, 34176, Note_on_c, 12, 60, 59
20, 34176, Note_on_c, 12, 63, 59
20, 34176, Note_on_c, 12, 67, 59
20, 34176, Note_on_c, 12, 68, 59
20, 34278, Note_off_c, 12, 60, 0
20, 34278, Note_off_c, 12, 63, 0
20, 34278, Note_off_c, 12, 67, 0
20, 34278, Note_off_c, 12, 68, 0
20, 34304, Note_on_c, 12, 60, 61
20, 34304, Note_on_c, 12, 63, 61
20, 34304, Note_on_c, 12, 67, 61
20, 34304, Note_on_c, 12, 68, 61
20, 34432, Note_off_c, 12, 60, 0
20, 34432, Note_off_c, 12, 63, 0
20, 34432, Note_off_c, 12, 67, 0
20, 34432, Note_off_c, 12, 68, 0
20, 34432, Note_on_c, 12, 61, 65
20, 34432, Note_on_c, 12, 64, 65
20, 34432, Note_on_c, 12, 68, 65
20, 34432, Note_on_c, 12, 69, 65
20, 34534, Note_off_c, 12, 61, 0
20, 34534, Note_off_c, 12, 64, 0
20, 34534, Note_off_c, 12, 68, 0
20, 34534, Note_off_c, 12, 69, 0
20, 34560, Note_on_c, 12, 61, 65
20, 34560, Note_on_c, 12, 64, 65
20, 34560, Note_on_c, 12, 68, 65
20, 34560, Note_on_c, 12, 69, 65
20, 34662, Note_off_c, 12, 61, 0
20, 34662, Note_off_c, 12, 64, 0
20, 34662, Note_off_c, 12, 68, 0
20, 34662, Note_off_c, 12, 69, 0
20, 34688, Note_on_c, 12, 61, 65
20, 34688, Note_on_c, 12, 64, 65
20, 34688, Note_on_c, 12, 68, 65
20, 34688, Note_on_c, 12, 69, 65
20, 34790, Note_off_c, 12, 61, 0
20, 34790, Note_off_c, 12, 64, 0
20, 34790, Note_off_c, 12, 68, 0
20, 34790, Note_off_c, 12, 69, 0
20, 34816, Note_on_c, 12, 61, 63
20, 34816, Note_on_c, 12, 64, 63
20, 34816, Note_on_c, 12, 68, 63
20, 34816, Note_on_c, 12, 69, 63
20, 34918, Note_off_c, 12, 61, 0
20, 34918, Note_off_c, 12, 64, 0
20, 34918, Note_off_c, 12, 68, 0
20, 34918, Note_off_c, 12, 69, 0
20, 34944, Note_on_c, 12, 61, 63
20, 34944, Note_on_c, 12, 64, 63
20, 34944, Note_on_c, 12, 68, 63
20, 34944, Note_on_c, 12, 69, 63
20, 35046, Note_off_c, 12, 61, 0
20, 35046, Note_off_c, 12, 64, 0
20, 35046, Note_off_c, 12, 68, 0
20, 35046, Note_off_c, 12, 69, 0
20, 35072, Note_on_c, 12, 61, 63
20, 35072, Note_on_c, 12, 64, 63
20, 35072, Note_on_c, 12, 68, 63
20, 35072, Note_on_c, 12, 69, 63
20, 35174, Note_off_c, 12, 61, 0
20, 35174, Note_off_c, 12, 64, 0
20, 35174, Note_off_c, 12, 68, 0
20, 35174, Note_off_c, 12, 69, 0
20, 35200, Note_on_c, 12, 61, 63
20, 35200, Note_on_c, 12, 64, 63
20, 35200, Note_on_c, 12, 68, 63
20, 35200, Note_on_c, 12, 69, 63
20, 35302, Note_off_c, 12, 61, 0
20, 35302, Note_off_c, 12, 64, 0
20, 35302, Note_off_c, 12, 68, 0
20, 35302, Note_off_c, 12, 69, 0
20, 35328, Note_on_c, 12, 61, 63
20, 35328, Note_on_c, 12, 64, 63
20, 35328, Note_on_c, 12, 68, 63
20, 35328, Note_on_c, 12, 69, 63
20, 35430, Note_off_c, 12, 61, 0
20, 35430, Note_off_c, 12, 64, 0
20, 35430, Note_off_c, 12, 68, 0
20, 35430, Note_off_c, 12, 69, 0
20, 35456, Note_on_c, 12, 61, 63
20, 35456, Note_on_c, 12, 64, 63
20, 35456, Note_on_c, 12, 68, 63
20, 35456, Note_on_c, 12, 69, 63
20, 35558, Note_off_c, 12, 61, 0
20, 35558, Note_off_c, 12, 64, 0
20, 35558, Note_off_c, 12, 68, 0
20, 35558, Note_off_c, 12, 69, 0
20, 35584, Note_on_c, 12, 62, 66
20, 35584, Note_on_c, 12, 65, 66
20, 35584, Note_on_c, 12, 68, 66
20, 35584, Note_on_c, 12, 70, 66
20, 35686, Note_off_c, 12, 62, 0
20, 35686, Note_off_c, 12, 65, 0
20, 35686, Note_off_c, 12, 68, 0
20, 35686, Note_off_c, 12, 70, 0
20, 35712, Note_on_c, 12, 62, 66
20, 35712, Note_on_c, 12, 65, 66
20, 35712, Note_on_c, 12, 68, 66
20, 35712, Note_on_c, 12, 70, 66
20, 35814, Note_off_c, 12, 62, 0
20, 35814, Note_off_c, 12, 65, 0
20, 35814, Note_off_c, 12, 68, 0
20, 35814, Note_off_c, 12, 70, 0
20, 35840, Note_on_c, 12, 62, 57
20, 35840, Note_on_c, 12, 65, 57
20, 35840, Note_on_c, 12, 68, 57
20, 35840, Note_on_c, 12, 70, 57
20, 35942, Note_off_c, 12, 62, 0
20, 35942, Note_off_c, 12, 65, 0
20, 35942, Note_off_c, 12, 68, 0
20, 35942, Note_off_c, 12, 70, 0
20, 35968, Note_on_c, 12, 62, 57
20, 35968, Note_on_c, 12, 65, 57
20, 35968, Note_on_c, 12, 68, 57
20, 35968, Note_on_c, 12, 70, 57
20, 36070, Note_off_c, 12, 62, 0
20, 36070, Note_off_c, 12, 65, 0
20, 36070, Note_off_c, 12, 68, 0
20, 36070, Note_off_c, 12, 70, 0
20, 36096, Note_on_c, 12, 62, 57
20, 36096, Note_on_c, 12, 65, 57
20, 36096, Note_on_c, 12, 68, 57
20, 36096, Note_on_c, 12, 70, 57
20, 36198, Note_off_c, 12, 62, 0
20, 36198, Note_off_c, 12, 65, 0
20, 36198, Note_off_c, 12, 68, 0
20, 36198, Note_off_c, 12, 70, 0
20, 36224, Note_on_c, 12, 62, 57
20, 36224, Note_on_c, 12, 65, 57
20, 36224, Note_on_c, 12, 68, 57
20, 36224, Note_on_c, 12, 70, 57
20, 36326, Note_off_c, 12, 62, 0
20, 36326, Note_off_c, 12, 65, 0
20, 36326, Note_off_c, 12, 68, 0
20, 36326, Note_off_c, 12, 70, 0
20, 36352, Note_on_c, 12, 62, 57
20, 36352, Note_on_c, 12, 65, 57
20, 36352, Note_on_c, 12, 68, 57
20, 36352, Note_on_c, 12, 70, 57
20, 36454, Note_off_c, 12, 62, 0
20, 36454, Note_off_c, 12, 65, 0
20, 36454, Note_off_c, 12, 68, 0
20, 36454, Note_off_c, 12, 70, 0
20, 36480, Note_on_c, 12, 62, 57
20, 36480, Note_on_c, 12, 65, 57
20, 36480, Note_on_c, 12, 68, 57
20, 36480, Note_on_c, 12, 70, 57
20, 36582, Note_off_c, 12, 62, 0
20, 36582, Note_off_c, 12, 65, 0
20, 36582, Note_off_c, 12, 68, 0
20, 36582, Note_off_c, 12, 70, 0
20, 36608, Note_on_c, 12, 61, 66
20, 36608, Note_on_c, 12, 65, 66
20, 36608, Note_on_c, 12, 67, 66
20, 36608, Note_on_c, 12, 71, 66
20, 36710, Note_off_c, 12, 61, 0
20, 36710, Note_off_c, 12, 65, 0
20, 36710, Note_off_c, 12, 67, 0
20, 36710, Note_off_c, 12, 71, 0
20, 36736, Note_on_c, 12, 61, 66
20, 36736, Note_on_c, 12, 65, 66
20, 36736, Note_on_c, 12, 67, 66
20, 36736, Note_on_c, 12, 71, 66
20, 36838, Note_off_c, 12, 61, 0
20, 36838, Note_off_c, 12, 65, 0
20, 36838, Note_off_c, 12, 67, 0
20, 36838, Note_off_c, 12, 71, 0
20, 36864, Note_on_c, 12, 61, 67
20, 36864, Note_on_c, 12, 65, 67
20, 36864, Note_on_c, 12, 67, 67
20, 36864, Note_on_c, 12, 71, 67
20, 36966, Note_off_c, 12, 61, 0
20, 36966, Note_off_c, 12, 65, 0
20, 36966, Note_off_c, 12, 67, 0
20, 36966, Note_off_c, 12, 71, 0
20, 36992, Note_on_c, 12, 61, 67
20, 36992, Note_on_c, 12, 65, 67
20, 36992, Note_on_c, 12, 67, 67
20, 36992, Note_on_c, 12, 71, 67
20, 37094, Note_off_c, 12, 61, 0
20, 37094, Note_off_c, 12, 65, 0
20, 37094, Note_off_c, 12, 67, 0
20, 37094, Note_off_c, 12, 71, 0
20, 37120, Note_on_c, 12, 61, 67
20, 37120, Note_on_c, 12, 65, 67
20, 37120, Note_on_c, 12, 67, 67
20, 37120, Note_on_c, 12, 71, 67
20, 37222, Note_off_c, 12, 61, 0
20, 37222, Note_off_c, 12, 65, 0
20, 37222, Note_off_c, 12, 67, 0
20, 37222, Note_off_c, 12, 71, 0
20, 37248, Note_on_c, 12, 61, 67
20, 37248, Note_on_c, 12, 65, 67
20, 37248, Note_on_c, 12, 67, 67
20, 37248, Note_on_c, 12, 71, 67
20, 37350, Note_off_c, 12, 61, 0
20, 37350, Note_off_c, 12, 65, 0
20, 37350, Note_off_c, 12, 67, 0
20, 37350, Note_off_c, 12, 71, 0
20, 37376, Note_on_c, 12, 61, 67
20, 37376, Note_on_c, 12, 65, 67
20, 37376, Note_on_c, 12, 67, 67
20, 37376, Note_on_c, 12, 71, 67
20, 37478, Note_off_c, 12, 61, 0
20, 37478, Note_off_c, 12, 65, 0
20, 37478, Note_off_c, 12, 67, 0
20, 37478, Note_off_c, 12, 71, 0
20, 37504, Note_on_c, 12, 61, 67
20, 37504, Note_on_c, 12, 65, 67
20, 37504, Note_on_c, 12, 67, 67
20, 37504, Note_on_c, 12, 71, 67
20, 37606, Note_off_c, 12, 61, 0
20, 37606, Note_off_c, 12, 65, 0
20, 37606, Note_off_c, 12, 67, 0
20, 37606, Note_off_c, 12, 71, 0
20, 37632, Note_on_c, 12, 60, 60
20, 37632, Note_on_c, 12, 64, 60
20, 37632, Note_on_c, 12, 70, 60
20, 37632, Note_on_c, 12, 72, 60
20, 37734, Note_off_c, 12, 60, 0
20, 37734, Note_off_c, 12, 64, 0
20, 37734, Note_off_c, 12, 70, 0
20, 37734, Note_off_c, 12, 72, 0
20, 37760, Note_on_c, 12, 60, 60
20, 37760, Note_on_c, 12, 64, 60
20, 37760, Note_on_c, 12, 70, 60
20, 37760, Note_on_c, 12, 72, 60
20, 37862, Note_off_c, 12, 60, 0
20, 37862, Note_off_c, 12, 64, 0
20, 37862, Note_off_c, 12, 70, 0
20, 37862, Note_off_c, 12, 72, 0
20, 37888, Note_on_c, 12, 60, 59
20, 37888, Note_on_c, 12, 64, 59
20, 37888, Note_on_c, 12, 70, 59
20, 37888, Note_on_c, 12, 72, 59
20, 37990, Note_off_c, 12, 60, 0
20, 37990, Note_off_c, 12, 64, 0
20, 37990, Note_off_c, 12, 70, 0
20, 37990, Note_off_c, 12, 72, 0
20, 38016, Note_on_c, 12, 60, 59
20, 38016, Note_on_c, 12, 64, 59
20, 38016, Note_on_c, 12, 70, 59
20, 38016, Note_on_c, 12, 72, 59
20, 38118, Note_off_c, 12, 60, 0
20, 38118, Note_off_c, 12, 64, 0
20, 38118, Note_off_c, 12, 70, 0
20, 38118, Note_off_c, 12, 72, 0
20, 38144, Note_on_c, 12, 60, 59
20, 38144, Note_on_c, 12, 64, 59
20, 38144, Note_on_c, 12, 70, 59
20, 38144, Note_on_c, 12, 72, 59
20, 38246, Note_off_c, 12, 60, 0
20, 38246, Note_off_c, 12, 64, 0
20, 38246, Note_off_c, 12, 70, 0
20, 38246, Note_off_c, 12, 72, 0
20, 38272, Note_on_c, 12, 60, 59
20, 38272, Note_on_c, 12, 64, 59
20, 38272, Note_on_c, 12, 70, 59
20, 38272, Note_on_c, 12, 72, 59
20, 38374, Note_off_c, 12, 60, 0
20, 38374, Note_off_c, 12, 64, 0
20, 38374, Note_off_c, 12, 70, 0
20, 38374, Note_off_c, 12, 72, 0
20, 38400, Note_on_c, 12, 60, 58
20, 38400, Note_on_c, 12, 64, 58
20, 38400, Note_on_c, 12, 70, 58
20, 38400, Note_on_c, 12, 72, 58
20, 38502, Note_off_c, 12, 60, 0
20, 38502, Note_off_c, 12, 64, 0
20, 38502, Note_off_c, 12, 70, 0
20, 38502, Note_off_c, 12, 72, 0
20, 38528, Note_on_c, 12, 60, 58
20, 38528, Note_on_c, 12, 64, 58
20, 38528, Note_on_c, 12, 70, 58
20, 38528, Note_on_c, 12, 72, 58
20, 38630, Note_off_c, 12, 60, 0
20, 38630, Note_off_c, 12, 64, 0
20, 38630, Note_off_c, 12, 70, 0
20, 38630, Note_off_c, 12, 72, 0
20, 38656, Note_on_c, 12, 60, 58
20, 38656, Note_on_c, 12, 64, 58
20, 38656, Note_on_c, 12, 70, 58
20, 38656, Note_on_c, 12, 72, 58
20, 38758, Note_off_c, 12, 60, 0
20, 38758, Note_off_c, 12, 64, 0
20, 38758, Note_off_c, 12, 70, 0
20, 38758, Note_off_c, 12, 72, 0
20, 38784, Note_on_c, 12, 60, 58
20, 38784, Note_on_c, 12, 64, 58
20, 38784, Note_on_c, 12, 70, 58
20, 38784, Note_on_c, 12, 72, 58
20, 38886, Note_off_c, 12, 60, 0
20, 38886, Note_off_c, 12, 64, 0
20, 38886, Note_off_c, 12, 70, 0
20, 38886, Note_off_c, 12, 72, 0
20, 38912, Note_on_c, 12, 60, 64
20, 38912, Note_on_c, 12, 64, 64
20, 38912, Note_on_c, 12, 70, 64
20, 38912, Note_on_c, 12, 72, 64
20, 39014, Note_off_c, 12, 60, 0
20, 39014, Note_off_c, 12, 64, 0
20, 39014, Note_off_c, 12, 70, 0
20, 39014, Note_off_c, 12, 72, 0
20, 39040, Note_on_c, 12, 60, 64
20, 39040, Note_on_c, 12, 64, 64
20, 39040, Note_on_c, 12, 70, 64
20, 39040, Note_on_c, 12, 72, 64
20, 39142, Note_off_c, 12, 60, 0
20, 39142, Note_off_c, 12, 64, 0
20, 39142, Note_off_c, 12, 70, 0
20, 39142, Note_off_c, 12, 72, 0
20, 39168, Note_on_c, 12, 60, 64
20, 39168, Note_on_c, 12, 64, 64
20, 39168, Note_on_c, 12, 70, 64
20, 39168, Note_on_c, 12, 72, 64
20, 39270, Note_off_c, 12, 60, 0
20, 39270, Note_off_c, 12, 64, 0
20, 39270, Note_off_c, 12, 70, 0
20, 39270, Note_off_c, 12, 72, 0
20, 39296, Note_on_c, 12, 60, 64
20, 39296, Note_on_c, 12, 64, 64
20, 39296, Note_on_c, 12, 70, 64
20, 39296, Note_on_c, 12, 72, 64
20, 39398, Note_off_c, 12, 60, 0
20, 39398, Note_off_c, 12, 64, 0
20, 39398, Note_off_c, 12, 70, 0
20, 39398, Note_off_c, 12, 72, 0
20, 39424, Note_on_c, 12, 60, 64
20, 39424, Note_on_c, 12, 64, 64
20, 39424, Note_on_c, 12, 70, 64
20, 39424, Note_on_c, 12, 72, 64
20, 39526, Note_off_c, 12, 60, 0
20, 39526, Note_off_c, 12, 64, 0
20, 39526, Note_off_c, 12, 70, 0
20, 39526, Note_off_c, 12, 72, 0
20, 39552, Note_on_c, 12, 60, 64
20, 39552, Note_on_c, 12, 64, 64
20, 39552, Note_on_c, 12, 70, 64
20, 39552, Note_on_c, 12, 72, 64
20, 39654, Note_off_c, 12, 60, 0
20, 39654, Note_off_c, 12, 64, 0
20, 39654, Note_off_c, 12, 70, 0
20, 39654, Note_off_c, 12, 72, 0
20, 39680, Note_on_c, 12, 65, 65
20, 39680, Note_on_c, 12, 68, 65
20, 39680, Note_on_c, 12, 71, 65
20, 39680, Note_on_c, 12, 73, 65
20, 39782, Note_off_c, 12, 65, 0
20, 39782, Note_off_c, 12, 68, 0
20, 39782, Note_off_c, 12, 71, 0
20, 39782, Note_off_c, 12, 73, 0
20, 39808, Note_on_c, 12, 65, 65
20, 39808, Note_on_c, 12, 68, 65
20, 39808, Note_on_c, 12, 71, 65
20, 39808, Note_on_c, 12, 73, 65
20, 39910, Note_off_c, 12, 65, 0
20, 39910, Note_off_c, 12, 68, 0
20, 39910, Note_off_c, 12, 71, 0
20, 39910, Note_off_c, 12, 73, 0
20, 39936, Note_on_c, 12, 65, 64
20, 39936, Note_on_c, 12, 68, 64
20, 39936, Note_on_c, 12, 71, 64
20, 39936, Note_on_c, 12, 73, 64
20, 40038, Note_off_c, 12, 65, 0
20, 40038, Note_off_c, 12, 68, 0
20, 40038, Note_off_c, 12, 71, 0
20, 40038, Note_off_c, 12, 73, 0
20, 40064, Note_on_c, 12, 65, 64
20, 40064, Note_on_c, 12, 68, 64
20, 40064, Note_on_c, 12, 71, 64
20, 40064, Note_on_c, 12, 73, 64
20, 40166, Note_off_c, 12, 65, 0
20, 40166, Note_off_c, 12, 68, 0
20, 40166, Note_off_c, 12, 71, 0
20, 40166, Note_off_c, 12, 73, 0
20, 40192, Note_on_c, 12, 65, 64
20, 40192, Note_on_c, 12, 68, 64
20, 40192, Note_on_c, 12, 71, 64
20, 40192, Note_on_c, 12, 73, 64
20, 40294, Note_off_c, 12, 65, 0
20, 40294, Note_off_c, 12, 68, 0
20, 40294, Note_off_c, 12, 71, 0
20, 40294, Note_off_c, 12, 73, 0
20, 40320, Note_on_c, 12, 65, 64
20, 40320, Note_on_c, 12, 68, 64
20, 40320, Note_on_c, 12, 71, 64
20, 40320, Note_on_c, 12, 73, 64
20, 40422, Note_off_c, 12, 65, 0
20, 40422, Note_off_c, 12, 68, 0
20, 40422, Note_off_c, 12, 71, 0
20, 40422, Note_off_c, 12, 73, 0
20, 40448, Note_on_c, 12, 65, 64
20, 40448, Note_on_c, 12, 68, 64
20, 40448, Note_on_c, 12, 71, 64
20, 40448, Note_on_c, 12, 73, 64
20, 40550, Note_off_c, 12, 65, 0
20, 40550, Note_off_c, 12, 68, 0
20, 40550, Note_off_c, 12, 71, 0
20, 40550, Note_off_c, 12, 73, 0
20, 40576, Note_on_c, 12, 65, 64
20, 40576, Note_on_c, 12, 68, 64
20, 40576, Note_on_c, 12, 71, 64
20, 40576, Note_on_c, 12, 73, 64
20, 40678, Note_off_c, 12, 65, 0
20, 40678, Note_off_c, 12, 68, 0
20, 40678, Note_off_c, 12, 71, 0
20, 40678, Note_off_c, 12, 73, 0
20, 40704, Note_on_c, 12, 65, 61
20, 40704, Note_on_c, 12, 68, 61
20, 40704, Note_on_c, 12, 72, 61
20, 40704, Note_on_c, 12, 74, 61
20, 40806, Note_off_c, 12, 65, 0
20, 40806, Note_off_c, 12, 68, 0
20, 40806, Note_off_c, 12, 72, 0
20, 40806, Note_off_c, 12, 74, 0
20, 40832, Note_on_c, 12, 65, 61
20, 40832, Note_on_c, 12, 68, 61
20, 40832, Note_on_c, 12, 72, 61
20, 40832, Note_on_c, 12, 74, 61
20, 40934, Note_off_c, 12, 65, 0
20, 40934, Note_off_c, 12, 68, 0
20, 40934, Note_off_c, 12, 72, 0
20, 40934, Note_off_c, 12, 74, 0
20, 40960, Note_on_c, 12, 65, 61
20, 40960, Note_on_c, 12, 68, 61
20, 40960, Note_on_c, 12, 72, 61
20, 40960, Note_on_c, 12, 74, 61
20, 41062, Note_off_c, 12, 65, 0
20, 41062, Note_off_c, 12, 68, 0
20, 41062, Note_off_c, 12, 72, 0
20, 41062, Note_off_c, 12, 74, 0
20, 41088, Note_on_c, 12, 65, 61
20, 41088, Note_on_c, 12, 68, 61
20, 41088, Note_on_c, 12, 72, 61
20, 41088, Note_on_c, 12, 74, 61
20, 41190, Note_off_c, 12, 65, 0
20, 41190, Note_off_c, 12, 68, 0
20, 41190, Note_off_c, 12, 72, 0
20, 41190, Note_off_c, 12, 74, 0
20, 41216, Note_on_c, 12, 65, 61
20, 41216, Note_on_c, 12, 68, 61
20, 41216, Note_on_c, 12, 72, 61
20, 41216, Note_on_c, 12, 74, 61
20, 41318, Note_off_c, 12, 65, 0
20, 41318, Note_off_c, 12, 68, 0
20, 41318, Note_off_c, 12, 72, 0
20, 41318, Note_off_c, 12, 74, 0
20, 41344, Note_on_c, 12, 65, 61
20, 41344, Note_on_c, 12, 68, 61
20, 41344, Note_on_c, 12, 72, 61
20, 41344, Note_on_c, 12, 74, 61
20, 41446, Note_off_c, 12, 65, 0
20, 41446, Note_off_c, 12, 68, 0
20, 41446, Note_off_c, 12, 72, 0
20, 41446, Note_off_c, 12, 74, 0
20, 41472, Note_on_c, 12, 65, 60
20, 41472, Note_on_c, 12, 68, 60
20, 41472, Note_on_c, 12, 72, 60
20, 41472, Note_on_c, 12, 75, 60
20, 41574, Note_off_c, 12, 65, 0
20, 41574, Note_off_c, 12, 68, 0
20, 41574, Note_off_c, 12, 72, 0
20, 41574, Note_off_c, 12, 75, 0
20, 41600, Note_on_c, 12, 65, 60
20, 41600, Note_on_c, 12, 68, 60
20, 41600, Note_on_c, 12, 72, 60
20, 41600, Note_on_c, 12, 75, 60
20, 41702, Note_off_c, 12, 65, 0
20, 41702, Note_off_c, 12, 68, 0
20, 41702, Note_off_c, 12, 72, 0
20, 41702, Note_off_c, 12, 75, 0
20, 41728, Note_on_c, 12, 65, 60
20, 41728, Note_on_c, 12, 68, 60
20, 41728, Note_on_c, 12, 72, 60
20, 41728, Note_on_c, 12, 75, 60
20, 41830, Note_off_c, 12, 65, 0
20, 41830, Note_off_c, 12, 68, 0
20, 41830, Note_off_c, 12, 72, 0
20, 41830, Note_off_c, 12, 75, 0
20, 41856, Note_on_c, 12, 65, 60
20, 41856, Note_on_c, 12, 68, 60
20, 41856, Note_on_c, 12, 72, 60
20, 41856, Note_on_c, 12, 75, 60
20, 41958, Note_off_c, 12, 65, 0
20, 41958, Note_off_c, 12, 68, 0
20, 41958, Note_off_c, 12, 72, 0
20, 41958, Note_off_c, 12, 75, 0
20, 41984, Note_on_c, 12, 65, 66
20, 41984, Note_on_c, 12, 68, 66
20, 41984, Note_on_c, 12, 72, 66
20, 41984, Note_on_c, 12, 75, 66
20, 42086, Note_off_c, 12, 65, 0
20, 42086, Note_off_c, 12, 68, 0
20, 42086, Note_off_c, 12, 72, 0
20, 42086, Note_off_c, 12, 75, 0
20, 42112, Note_on_c, 12, 65, 66
20, 42112, Note_on_c, 12, 68, 66
20, 42112, Note_on_c, 12, 72, 66
20, 42112, Note_on_c, 12, 75, 66
20, 42214, Note_off_c, 12, 65, 0
20, 42214, Note_off_c, 12, 68, 0
20, 42214, Note_off_c, 12, 72, 0
20, 42214, Note_off_c, 12, 75, 0
20, 42240, Note_on_c, 12, 65, 58
20, 42240, Note_on_c, 12, 67, 58
20, 42240, Note_on_c, 12, 70, 58
20, 42240, Note_on_c, 12, 74, 58
20, 42342, Note_off_c, 12, 65, 0
20, 42342, Note_off_c, 12, 67, 0
20, 42342, Note_off_c, 12, 70, 0
20, 42342, Note_off_c, 12, 74, 0
20, 42368, Note_on_c, 12, 65, 58
20, 42368, Note_on_c, 12, 67, 58
20, 42368, Note_on_c, 12, 70, 58
20, 42368, Note_on_c, 12, 74, 58
20, 42470, Note_off_c, 12, 65, 0
20, 42470, Note_off_c, 12, 67, 0
20, 42470, Note_off_c, 12, 70, 0
20, 42470, Note_off_c, 12, 74, 0
20, 42496, Note_on_c, 12, 65, 58
20, 42496, Note_on_c, 12, 67, 58
20, 42496, Note_on_c, 12, 70, 58
20, 42496, Note_on_c, 12, 74, 58
20, 42598, Note_off_c, 12, 65, 0
20, 42598, Note_off_c, 12, 67, 0
20, 42598, Note_off_c, 12, 70, 0
20, 42598, Note_off_c, 12, 74, 0
20, 42624, Note_on_c, 12, 65, 58
20, 42624, Note_on_c, 12, 67, 58
20, 42624, Note_on_c, 12, 70, 58
20, 42624, Note_on_c, 12, 74, 58
20, 42726, Note_off_c, 12, 65, 0
20, 42726, Note_off_c, 12, 67, 0
20, 42726, Note_off_c, 12, 70, 0
20, 42726, Note_off_c, 12, 74, 0
20, 42752, Note_on_c, 12, 65, 58
20, 42752, Note_on_c, 12, 67, 58
20, 42752, Note_on_c, 12, 70, 58
20, 42752, Note_on_c, 12, 74, 58
20, 42854, Note_off_c, 12, 65, 0
20, 42854, Note_off_c, 12, 67, 0
20, 42854, Note_off_c, 12, 70, 0
20, 42854, Note_off_c, 12, 74, 0
20, 42880, Note_on_c, 12, 65, 58
20, 42880, Note_on_c, 12, 67, 58
20, 42880, Note_on_c, 12, 70, 58
20, 42880, Note_on_c, 12, 74, 58
20, 42982, Note_off_c, 12, 65, 0
20, 42982, Note_off_c, 12, 67, 0
20, 42982, Note_off_c, 12, 70, 0
20, 42982, Note_off_c, 12, 74, 0
20, 43008, Note_on_c, 12, 65, 57
20, 43008, Note_on_c, 12, 67, 57
20, 43008, Note_on_c, 12, 70, 57
20, 43008, Note_on_c, 12, 74, 57
20, 43110, Note_off_c, 12, 65, 0
20, 43110, Note_off_c, 12, 67, 0
20, 43110, Note_off_c, 12, 70, 0
20, 43110, Note_off_c, 12, 74, 0
20, 43136, Note_on_c, 12, 65, 57
20, 43136, Note_on_c, 12, 67, 57
20, 43136, Note_on_c, 12, 70, 57
20, 43136, Note_on_c, 12, 74, 57
20, 43238, Note_off_c, 12, 65, 0
20, 43238, Note_off_c, 12, 67, 0
20, 43238, Note_off_c, 12, 70, 0
20, 43238, Note_off_c, 12, 74, 0
20, 43264, Note_on_c, 12, 65, 62
20, 43264, Note_on_c, 12, 69, 62
20, 43264, Note_on_c, 12, 71, 62
20, 43264, Note_on_c, 12, 74, 62
20, 43366, Note_off_c, 12, 65, 0
20, 43366, Note_off_c, 12, 69, 0
20, 43366, Note_off_c, 12, 71, 0
20, 43366, Note_off_c, 12, 74, 0
20, 43392, Note_on_c, 12, 65, 62
20, 43392, Note_on_c, 12, 69, 62
20, 43392, Note_on_c, 12, 71, 62
20, 43392, Note_on_c, 12, 74, 62
20, 43494, Note_off_c, 12, 65, 0
20, 43494, Note_off_c, 12, 69, 0
20, 43494, Note_off_c, 12, 71, 0
20, 43494, Note_off_c, 12, 74, 0
20, 43520, Note_on_c, 12, 65, 62
20, 43520, Note_on_c, 12, 69, 62
20, 43520, Note_on_c, 12, 71, 62
20, 43520, Note_on_c, 12, 74, 62
20, 43622, Note_off_c, 12, 65, 0
20, 43622, Note_off_c, 12, 69, 0
20, 43622, Note_off_c, 12, 71, 0
20, 43622, Note_off_c, 12, 74, 0
20, 43648, Note_on_c, 12, 65, 62
20, 43648, Note_on_c, 12, 69, 62
20, 43648, Note_on_c, 12, 71, 62
20, 43648, Note_on_c, 12, 74, 62
20, 43750, Note_off_c, 12, 65, 0
20, 43750, Note_off_c, 12, 69, 0
20, 43750, Note_off_c, 12, 71, 0
20, 43750, Note_off_c, 12, 74, 0
20, 43776, Note_on_c, 12, 65, 62
20, 43776, Note_on_c, 12, 69, 62
20, 43776, Note_on_c, 12, 71, 62
20, 43776, Note_on_c, 12, 74, 62
20, 43878, Note_off_c, 12, 65, 0
20, 43878, Note_off_c, 12, 69, 0
20, 43878, Note_off_c, 12, 71, 0
20, 43878, Note_off_c, 12, 74, 0
20, 43904, Note_on_c, 12, 65, 62
20, 43904, Note_on_c, 12, 69, 62
20, 43904, Note_on_c, 12, 71, 62
20, 43904, Note_on_c, 12, 74, 62
20, 44006, Note_off_c, 12, 65, 0
20, 44006, Note_off_c, 12, 69, 0
20, 44006, Note_off_c, 12, 71, 0
20, 44006, Note_off_c, 12, 74, 0
20, 44032, Note_on_c, 12, 65, 65
20, 44032, Note_on_c, 12, 68, 65
20, 44032, Note_on_c, 12, 71, 65
20, 44032, Note_on_c, 12, 75, 65
20, 44134, Note_off_c, 12, 65, 0
20, 44134, Note_off_c, 12, 68, 0
20, 44134, Note_off_c, 12, 71, 0
20, 44134, Note_off_c, 12, 75, 0
20, 44160, Note_on_c, 12, 65, 65
20, 44160, Note_on_c, 12, 68, 65
20, 44160, Note_on_c, 12, 71, 65
20, 44160, Note_on_c, 12, 75, 65
20, 44262, Note_off_c, 12, 65, 0
20, 44262, Note_off_c, 12, 68, 0
20, 44262, Note_off_c, 12, 71, 0
20, 44262, Note_off_c, 12, 75, 0
20, 44288, Note_on_c, 12, 65, 65
20, 44288, Note_on_c, 12, 68, 65
20, 44288, Note_on_c, 12, 71, 65
20, 44288, Note_on_c, 12, 75, 65
20, 44390, Note_off_c, 12, 65, 0
20, 44390, Note_off_c, 12, 68, 0
20, 44390, Note_off_c, 12, 71, 0
20, 44390, Note_off_c, 12, 75, 0
20, 44416, Note_on_c, 12, 65, 65
20, 44416, Note_on_c, 12, 68, 65
20, 44416, Note_on_c, 12, 71, 65
20, 44416, Note_on_c, 12, 75, 65
20, 44518, Note_off_c, 12, 65, 0
20, 44518, Note_off_c, 12, 68, 0
20, 44518, Note_off_c, 12, 71, 0
20, 44518, Note_off_c, 12, 75, 0
20, 44544, Note_on_c, 12, 65, 61
20, 44544, Note_on_c, 12, 68, 61
20, 44544, Note_on_c, 12, 71, 61
20, 44544, Note_on_c, 12, 75, 61
20, 44646, Note_off_c, 12, 65, 0
20, 44646, Note_off_c, 12, 68, 0
20, 44646, Note_off_c, 12, 71, 0
20, 44646, Note_off_c, 12, 75, 0
20, 44672, Note_on_c, 12, 65, 61
20, 44672, Note_on_c, 12, 68, 61
20, 44672, Note_on_c, 12, 71, 61
20, 44672, Note_on_c, 12, 75, 61
20, 44774, Note_off_c, 12, 65, 0
20, 44774, Note_off_c, 12, 68, 0
20, 44774, Note_off_c, 12, 71, 0
20, 44774, Note_off_c, 12, 75, 0
20, 44800, Note_on_c, 12, 65, 61
20, 44800, Note_on_c, 12, 68, 61
20, 44800, Note_on_c, 12, 71, 61
20, 44800, Note_on_c, 12, 75, 61
20, 44902, Note_off_c, 12, 65, 0
20, 44902, Note_off_c, 12, 68, 0
20, 44902, Note_off_c, 12, 71, 0
20, 44902, Note_off_c, 12, 75, 0
20, 44928, Note_on_c, 12, 65, 61
20, 44928, Note_on_c, 12, 68, 61
20, 44928, Note_on_c, 12, 71, 61
20, 44928, Note_on_c, 12, 75, 61
20, 44992, Note_on_c, 12, 76, 74
20, 45030, Note_off_c, 12, 65, 0
20, 45030, Note_off_c, 12, 68, 0
20, 45030, Note_off_c, 12, 71, 0
20, 45030, Note_off_c, 12, 75, 0
20, 45056, Note_on_c, 12, 66, 67
20, 45056, Note_on_c, 12, 72, 67
20, 45056, Note_on_c, 12, 74, 67
20, 45056, Note_on_c, 12, 76, 67
20, 45158, Note_off_c, 12, 66, 0
20, 45158, Note_off_c, 12, 72, 0
20, 45158, Note_off_c, 12, 74, 0
20, 45158, Note_off_c, 12, 76, 0
20, 45184, Note_on_c, 12, 66, 67
20, 45184, Note_on_c, 12, 72, 67
20, 45184, Note_on_c, 12, 74, 67
20, 45184, Note_on_c, 12, 76, 67
20, 45286, Note_off_c, 12, 66, 0
20, 45286, Note_off_c, 12, 72, 0
20, 45286, Note_off_c, 12, 74, 0
20, 45286, Note_off_c, 12, 76, 0
20, 45312, Note_off_c, 12, 76, 0
20, 45312, Note_on_c, 12, 66, 67
20, 45312, Note_on_c, 12, 72, 67
20, 45312, Note_on_c, 12, 74, 67
20, 45312, Note_on_c, 12, 76, 67
20, 45312, Note_on_c, 12, 78, 90
20, 45414, Note_off_c, 12, 66, 0
20, 45414, Note_off_c, 12, 72, 0
20, 45414, Note_off_c, 12, 74, 0
20, 45414, Note_off_c, 12, 76, 0
20, 45440, Note_on_c, 12, 66, 67
20, 45440, Note_on_c, 12, 72, 67
20, 45440, Note_on_c, 12, 74, 67
20, 45440, Note_on_c, 12, 76, 67
20, 45542, Note_off_c, 12, 66, 0
20, 45542, Note_off_c, 12, 72, 0
20, 45542, Note_off_c, 12, 74, 0
20, 45542, Note_off_c, 12, 76, 0
20, 45568, Note_on_c, 12, 66, 67
20, 45568, Note_on_c, 12, 72, 67
20, 45568, Note_on_c, 12, 74, 67
20, 45568, Note_on_c, 12, 76, 67
20, 45670, Note_off_c, 12, 66, 0
20, 45670, Note_off_c, 12, 72, 0
20, 45670, Note_off_c, 12, 74, 0
20, 45670, Note_off_c, 12, 76, 0
20, 45696, Note_on_c, 12, 66, 67
20, 45696, Note_on_c, 12, 72, 67
20, 45696, Note_on_c, 12, 74, 67
20, 45696, Note_on_c, 12, 76, 67
20, 45798, Note_off_c, 12, 66, 0
20, 45798, Note_off_c, 12, 72, 0
20, 45798, Note_off_c, 12, 74, 0
20, 45798, Note_off_c, 12, 76, 0
20, 45824, Note_off_c, 12, 78, 0
20, 45824, Note_on_c, 12, 66, 59
20, 45824, Note_on_c, 12, 72, 59
20, 45824, Note_on_c, 12, 74, 59
20, 45824, Note_on_c, 12, 76, 59
20, 45824, Note_on_c, 12, 78, 82
20, 45926, Note_off_c, 12, 66, 0
20, 45926, Note_off_c, 12, 72, 0
20, 45926, Note_off_c, 12, 74, 0
20, 45926, Note_off_c, 12, 76, 0
20, 45952, Note_off_c, 12, 78, 0
20, 45952, Note_on_c, 12, 66, 59
20, 45952, Note_on_c, 12, 72, 59
20, 45952, Note_on_c, 12, 74, 59
20, 45952, Note_on_c, 12, 76, 59
20, 45952, Note_on_c, 12, 79, 88
20, 46054, Note_off_c, 12, 66, 0
20, 46054, Note_off_c, 12, 72, 0
20, 46054, Note_off_c, 12, 74, 0
20, 46054, Note_off_c, 12, 76, 0
20, 46080, Note_on_c, 12, 66, 64
20, 46080, Note_on_c, 12, 69, 64
20, 46080, Note_on_c, 12, 72, 64
20, 46080, Note_on_c, 12, 76, 64
20, 46182, Note_off_c, 12, 66, 0
20, 46182, Note_off_c, 12, 69, 0
20, 46182, Note_off_c, 12, 72, 0
20, 46182, Note_off_c, 12, 76, 0
20, 46208, Note_on_c, 12, 66, 64
20, 46208, Note_on_c, 12, 69, 64
20, 46208, Note_on_c, 12, 72, 64
20, 46208, Note_on_c, 12, 76, 64
20, 46310, Note_off_c, 12, 66, 0
20, 46310, Note_off_c, 12, 69, 0
20, 46310, Note_off_c, 12, 72, 0
20, 46310, Note_off_c, 12, 76, 0
20, 46336, Note_off_c, 12, 79, 0
20, 46336, Note_on_c, 12, 66, 61
20, 46336, Note_on_c, 12, 69, 61
20, 46336, Note_on_c, 12, 72, 61
20, 46336, Note_on_c, 12, 76, 61
20, 46336, Note_on_c, 12, 69, 64
20, 46400, Note_off_c, 12, 69, 0
20, 46400, Note_on_c, 12, 78, 103
20, 46438, Note_off_c, 12, 66, 0
20, 46438, Note_off_c, 12, 69, 0
20, 46438, Note_off_c, 12, 72, 0
20, 46438, Note_off_c, 12, 76, 0
20, 46464, Note_on_c, 12, 66, 61
20, 46464, Note_on_c, 12, 69, 61
20, 46464, Note_on_c, 12, 72, 61
20, 46464, Note_on_c, 12, 76, 61
20, 46566, Note_off_c, 12, 66, 0
20, 46566, Note_off_c, 12, 69, 0
20, 46566, Note_off_c, 12, 72, 0
20, 46566, Note_off_c, 12, 76, 0
20, 46592, Note_off_c, 12, 78, 0
20, 46592, Note_on_c, 12, 66, 61
20, 46592, Note_on_c, 12, 69, 61
20, 46592, Note_on_c, 12, 72, 61
20, 46592, Note_on_c, 12, 76, 61
20, 46592, Note_on_c, 12, 79, 89
20, 46694, Note_off_c, 12, 66, 0
20, 46694, Note_off_c, 12, 69, 0
20, 46694, Note_off_c, 12, 72, 0
20, 46694, Note_off_c, 12, 76, 0
20, 46720, Note_off_c, 12, 79, 0
20, 46720, Note_on_c, 12, 66, 61
20, 46720, Note_on_c, 12, 69, 61
20, 46720, Note_on_c, 12, 72, 61
20, 46720, Note_on_c, 12, 76, 61
20, 46720, Note_on_c, 12, 69, 65
20, 46784, Note_off_c, 12, 69, 0
20, 46784, Note_on_c, 12, 78, 97
20, 46822, Note_off_c, 12, 66, 0
20, 46822, Note_off_c, 12, 69, 0
20, 46822, Note_off_c, 12, 72, 0
20, 46822, Note_off_c, 12, 76, 0
20, 46848, Note_on_c, 12, 66, 61
20, 46848, Note_on_c, 12, 69, 61
20, 46848, Note_on_c, 12, 72, 61
20, 46848, Note_on_c, 12, 76, 61
20, 46912, Note_off_c, 12, 78, 0
20, 46912, Note_on_c, 12, 79, 90
20, 46950, Note_off_c, 12, 66, 0
20, 46950, Note_off_c, 12, 69, 0
20, 46950, Note_off_c, 12, 72, 0
20, 46950, Note_off_c, 12, 76, 0
20, 46976, Note_off_c, 12, 79, 0
20, 46976, Note_on_c, 12, 66, 61
20, 46976, Note_on_c, 12, 69, 61
20, 46976, Note_on_c, 12, 72, 61
20, 46976, Note_on_c, 12, 76, 61
20, 46976, Note_on_c, 12, 69, 61
20, 47040, Note_off_c, 12, 69, 0
20, 47040, Note_on_c, 12, 78, 99
20, 47078, Note_off_c, 12, 66, 0
20, 47078, Note_off_c, 12, 69, 0
20, 47078, Note_off_c, 12, 72, 0
20, 47078, Note_off_c, 12, 76, 0
20, 47104, Note_on_c, 12, 65, 60
20, 47104, Note_on_c, 12, 69, 60
20, 47104, Note_on_c, 12, 71, 60
20, 47104, Note_on_c, 12, 76, 60
20, 47168, Note_off_c, 12, 78, 0
20, 47168, Note_on_c, 12, 79, 89
20, 47206, Note_off_c, 12, 65, 0
20, 47206, Note_off_c, 12, 69, 0
20, 47206, Note_off_c, 12, 71, 0
20, 47206, Note_off_c, 12, 76, 0
20, 47232, Note_off_c, 12, 79, 0
20, 47232, Note_on_c, 12, 65, 60
20, 47232, Note_on_c, 12, 69, 60
20, 47232, Note_on_c, 12, 71, 60
20, 47232, Note_on_c, 12, 76, 60
20, 47232, Note_on_c, 12, 69, 66
20, 47296, Note_off_c, 12, 69, 0
20, 47296, Note_on_c, 12, 83, 99
20, 47334, Note_off_c, 12, 65, 0
20, 47334, Note_off_c, 12, 69, 0
20, 47334, Note_off_c, 12, 71, 0
20, 47334, Note_off_c, 12, 76, 0
20, 47360, Note_on_c, 12, 65, 62
20, 47360, Note_on_c, 12, 69, 62
20, 47360, Note_on_c, 12, 71, 62
20, 47360, Note_on_c, 12, 76, 62
20, 47462, Note_off_c, 12, 65, 0
20, 47462, Note_off_c, 12, 69, 0
20, 47462, Note_off_c, 12, 71, 0
20, 47462, Note_off_c, 12, 76, 0
20, 47488, Note_off_c, 12, 83, 0
20, 47488, Note_on_c, 12, 65, 62
20, 47488, Note_on_c, 12, 69, 62
20, 47488, Note_on_c, 12, 71, 62
20, 47488, Note_on_c, 12, 76, 62
20, 47488, Note_on_c, 12, 70, 61
20, 47590, Note_off_c, 12, 65, 0
20, 47590, Note_off_c, 12, 69, 0
20, 47590, Note_off_c, 12, 71, 0
20, 47590, Note_off_c, 12, 76, 0
20, 47616, Note_on_c, 12, 65, 67
20, 47616, Note_on_c, 12, 69, 67
20, 47616, Note_on_c, 12, 71, 67
20, 47616, Note_on_c, 12, 76, 67
20, 47680, Note_off_c, 12, 70, 0
20, 47680, Note_on_c, 12, 81, 111
20, 47718, Note_off_c, 12, 65, 0
20, 47718, Note_off_c, 12, 69, 0
20, 47718, Note_off_c, 12, 71, 0
20, 47718, Note_off_c, 12, 76, 0
20, 47744, Note_on_c, 12, 65, 67
20, 47744, Note_on_c, 12, 69, 67
20, 47744, Note_on_c, 12, 71, 67
20, 47744, Note_on_c, 12, 76, 67
20, 47846, Note_off_c, 12, 65, 0
20, 47846, Note_off_c, 12, 69, 0
20, 47846, Note_off_c, 12, 71, 0
20, 47846, Note_off_c, 12, 76, 0
20, 47872, Note_off_c, 12, 81, 0
20, 47872, Note_on_c, 12, 65, 64
20, 47872, Note_on_c, 12, 69, 64
20, 47872, Note_on_c, 12, 71, 64
20, 47872, Note_on_c, 12, 76, 64
20, 47872, Note_on_c, 12, 72, 72
20, 47936, Note_off_c, 12, 72, 0
20, 47936, Note_on_c, 12, 81, 106
20, 47974, Note_off_c, 12, 65, 0
20, 47974, Note_off_c, 12, 69, 0
20, 47974, Note_off_c, 12, 71, 0
20, 47974, Note_off_c, 12, 76, 0
20, 48000, Note_on_c, 12, 65, 64
20, 48000, Note_on_c, 12, 69, 64
20, 48000, Note_on_c, 12, 71, 64
20, 48000, Note_on_c, 12, 76, 64
20, 48064, Note_off_c, 12, 81, 0
20, 48064, Note_on_c, 12, 82, 99
20, 48102, Note_off_c, 12, 65, 0
20, 48102, Note_off_c, 12, 69, 0
20, 48102, Note_off_c, 12, 71, 0
20, 48102, Note_off_c, 12, 76, 0
20, 48128, Note_off_c, 12, 82, 0
20, 48128, Note_on_c, 12, 65, 63
20, 48128, Note_on_c, 12, 69, 63
20, 48128, Note_on_c, 12, 71, 63
20, 48128, Note_on_c, 12, 76, 63
20, 48128, Note_on_c, 12, 73, 66
20, 48192, Note_off_c, 12, 73, 0
20, 48192, Note_on_c, 12, 81, 104
20, 48256, Note_off_c, 12, 65, 0
20, 48256, Note_off_c, 12, 69, 0
20, 48256, Note_off_c, 12, 71, 0
20, 48256, Note_off_c, 12, 76, 0
20, 48256, Note_on_c, 12, 66, 64
20, 48256, Note_on_c, 12, 70, 64
20, 48256, Note_on_c, 12, 72, 64
20, 48256, Note_on_c, 12, 77, 64
20, 48320, Note_off_c, 12, 81, 0
20, 48320, Note_on_c, 12, 82, 95
20, 48358, Note_off_c, 12, 66, 0
20, 48358, Note_off_c, 12, 70, 0
20, 48358, Note_off_c, 12, 72, 0
20, 48358, Note_off_c, 12, 77, 0
20, 48384, Note_off_c, 12, 82, 0
20, 48384, Note_on_c, 12, 66, 66
20, 48384, Note_on_c, 12, 70, 66
20, 48384, Note_on_c, 12, 72, 66
20, 48384, Note_on_c, 12, 77, 66
20, 48384, Note_on_c, 12, 73, 73
20, 48448, Note_off_c, 12, 73, 0
20, 48448, Note_on_c, 12, 86, 113
20, 48486, Note_off_c, 12, 66, 0
20, 48486, Note_off_c, 12, 70, 0
20, 48486, Note_off_c, 12, 72, 0
20, 48486, Note_off_c, 12, 77, 0
20, 48512, Note_on_c, 12, 66, 66
20, 48512, Note_on_c, 12, 70, 66
20, 48512, Note_on_c, 12, 72, 66
20, 48512, Note_on_c, 12, 77, 66
20, 48576, Note_off_c, 12, 86, 0
20, 48576, Note_on_c, 12, 66, 68
20, 48614, Note_off_c, 12, 66, 0
20, 48614, Note_off_c, 12, 70, 0
20, 48614, Note_off_c, 12, 72, 0
20, 48614, Note_off_c, 12, 77, 0
20, 48640, Note_off_c, 12, 66, 0
20, 48640, Note_on_c, 12, 66, 66
20, 48640, Note_on_c, 12, 70, 66
20, 48640, Note_on_c, 12, 72, 66
20, 48640, Note_on_c, 12, 77, 66
20, 48640, Note_on_c, 12, 84, 113
20, 48742, Note_off_c, 12, 66, 0
20, 48742, Note_off_c, 12, 70, 0
20, 48742, Note_off_c, 12, 72, 0
20, 48742, Note_off_c, 12, 77, 0
20, 48768, Note_on_c, 12, 66, 66
20, 48768, Note_on_c, 12, 70, 66
20, 48768, Note_on_c, 12, 72, 66
20, 48768, Note_on_c, 12, 77, 66
20, 48870, Note_off_c, 12, 66, 0
20, 48870, Note_off_c, 12, 70, 0
20, 48870, Note_off_c, 12, 72, 0
20, 48870, Note_off_c, 12, 77, 0
20, 48896, Note_off_c, 12, 84, 0
20, 48896, Note_on_c, 12, 66, 68
20, 48896, Note_on_c, 12, 70, 68
20, 48896, Note_on_c, 12, 72, 68
20, 48896, Note_on_c, 12, 77, 68
20, 48960, Note_on_c, 12, 73, 85
20, 48998, Note_off_c, 12, 66, 0
20, 48998, Note_off_c, 12, 70, 0
20, 48998, Note_off_c, 12, 72, 0
20, 48998, Note_off_c, 12, 77, 0
20, 49024, Note_off_c, 12, 73, 0
20, 49024, Note_on_c, 12, 66, 68
20, 49024, Note_on_c, 12, 70, 68
20, 49024, Note_on_c, 12, 72, 68
20, 49024, Note_on_c, 12, 77, 68
20, 49024, Note_on_c, 12, 84, 118
20, 49088, Note_off_c, 12, 84, 0
20, 49088, Note_on_c, 12, 87, 105
20, 49126, Note_off_c, 12, 66, 0
20, 49126, Note_off_c, 12, 70, 0
20, 49126, Note_off_c, 12, 72, 0
20, 49126, Note_off_c, 12, 77, 0
20, 49152, Note_off_c, 12, 87, 0
20, 49152, Note_on_c, 12, 66, 69
20, 49152, Note_on_c, 12, 70, 69
20, 49152, Note_on_c, 12, 72, 69
20, 49152, Note_on_c, 12, 77, 69
20, 49152, Note_on_c, 12, 85, 88
20, 49254, Note_off_c, 12, 66, 0
20, 49254, Note_off_c, 12, 70, 0
20, 49254, Note_off_c, 12, 72, 0
20, 49254, Note_off_c, 12, 77, 0
20, 49280, Note_off_c, 12, 85, 0
20, 49280, Note_on_c, 12, 66, 69
20, 49280, Note_on_c, 12, 70, 69
20, 49280, Note_on_c, 12, 72, 69
20, 49280, Note_on_c, 12, 77, 69
20, 49280, Note_on_c, 12, 84, 90
20, 49382, Note_off_c, 12, 66, 0
20, 49382, Note_off_c, 12, 70, 0
20, 49382, Note_off_c, 12, 72, 0
20, 49382, Note_off_c, 12, 77, 0
20, 49408, Note_off_c, 12, 84, 0
20, 49408, Note_on_c, 12, 66, 70
20, 49408, Note_on_c, 12, 70, 70
20, 49408, Note_on_c, 12, 72, 70
20, 49408, Note_on_c, 12, 77, 70
20, 49408, Note_on_c, 12, 76, 75
20, 49472, Note_off_c, 12, 76, 0
20, 49472, Note_on_c, 12, 88, 119
20, 49510, Note_off_c, 12, 66, 0
20, 49510, Note_off_c, 12, 70, 0
20, 49510, Note_off_c, 12, 72, 0
20, 49510, Note_off_c, 12, 77, 0
20, 49536, Note_off_c, 12, 88, 0
20, 49536, Note_on_c, 12, 61, 77
20, 49536, Note_on_c, 12, 65, 77
20, 49536, Note_on_c, 12, 69, 77
20, 49536, Note_on_c, 12, 73, 77
20, 49536, Note_on_c, 12, 78, 77
20, 49536, Note_on_c, 12, 91, 80
20, 49600, Note_off_c, 12, 91, 0
20, 49600, Note_on_c, 12, 89, 70
20, 49664, Note_off_c, 12, 61, 0
20, 49664, Note_off_c, 12, 65, 0
20, 49664, Note_off_c, 12, 69, 0
20, 49664, Note_off_c, 12, 73, 0
20, 49664, Note_off_c, 12, 78, 0
20, 49664, Note_on_c, 12, 61, 71
20, 49664, Note_on_c, 12, 65, 71
20, 49664, Note_on_c, 12, 69, 71
20, 49664, Note_on_c, 12, 73, 71
20, 49664, Note_on_c, 12, 78, 71
20, 49728, Note_off_c, 12, 89, 0
20, 49728, Note_on_c, 12, 88, 70
20, 49766, Note_off_c, 12, 61, 0
20, 49766, Note_off_c, 12, 65, 0
20, 49766, Note_off_c, 12, 69, 0
20, 49766, Note_off_c, 12, 73, 0
20, 49766, Note_off_c, 12, 78, 0
20, 49792, Note_on_c, 12, 61, 71
20, 49792, Note_on_c, 12, 65, 71
20, 49792, Note_on_c, 12, 69, 71
20, 49792, Note_on_c, 12, 73, 71
20, 49792, Note_on_c, 12, 78, 71
20, 49894, Note_off_c, 12, 61, 0
20, 49894, Note_off_c, 12, 65, 0
20, 49894, Note_off_c, 12, 69, 0
20, 49894, Note_off_c, 12, 73, 0
20, 49894, Note_off_c, 12, 78, 0
20, 49920, Note_on_c, 12, 61, 71
20, 49920, Note_on_c, 12, 65, 71
20, 49920, Note_on_c, 12, 69, 71
20, 49920, Note_on_c, 12, 73, 71
20, 49920, Note_on_c, 12, 78, 71
20, 50022, Note_off_c, 12, 61, 0
20, 50022, Note_off_c, 12, 65, 0
20, 50022, Note_off_c, 12, 69, 0
20, 50022, Note_off_c, 12, 73, 0
20, 50022, Note_off_c, 12, 78, 0
20, 50048, Note_off_c, 12, 88, 0
20, 50048, Note_on_c, 12, 61, 71
20, 50048, Note_on_c, 12, 65, 71
20, 50048, Note_on_c, 12, 69, 71
20, 50048, Note_on_c, 12, 73, 71
20, 50048, Note_on_c, 12, 78, 71
20, 50048, Note_on_c, 12, 78, 53
20, 50112, Note_off_c, 12, 78, 0
20, 50112, Note_on_c, 12, 88, 88
20, 50150, Note_off_c, 12, 61, 0
20, 50150, Note_off_c, 12, 65, 0
20, 50150, Note_off_c, 12, 69, 0
20, 50150, Note_off_c, 12, 73, 0
20, 50150, Note_off_c, 12, 78, 0
20, 50176, Note_off_c, 12, 88, 0
20, 50176, Note_on_c, 12, 61, 63
20, 50176, Note_on_c, 12, 65, 63
20, 50176, Note_on_c, 12, 69, 63
20, 50176, Note_on_c, 12, 73, 63
20, 50176, Note_on_c, 12, 91, 78
20, 50240, Note_off_c, 12, 91, 0
20, 50240, Note_on_c, 12, 89, 70
20, 50278, Note_off_c, 12, 61, 0
20, 50278, Note_off_c, 12, 65, 0
20, 50278, Note_off_c, 12, 69, 0
20, 50278, Note_off_c, 12, 73, 0
20, 50304, Note_off_c, 12, 89, 0
20, 50304, Note_on_c, 12, 61, 63
20, 50304, Note_on_c, 12, 65, 63
20, 50304, Note_on_c, 12, 69, 63
20, 50304, Note_on_c, 12, 73, 63
20, 50304, Note_on_c, 12, 88, 62
20, 50368, Note_off_c, 12, 88, 0
20, 50368, Note_on_c, 12, 84, 63
20, 50406, Note_off_c, 12, 61, 0
20, 50406, Note_off_c, 12, 65, 0
20, 50406, Note_off_c, 12, 69, 0
20, 50406, Note_off_c, 12, 73, 0
20, 50432, Note_off_c, 12, 84, 0
20, 50432, Note_on_c, 12, 61, 63
20, 50432, Note_on_c, 12, 65, 63
20, 50432, Note_on_c, 12, 69, 63
20, 50432, Note_on_c, 12, 73, 63
20, 50432, Note_on_c, 12, 72, 45
20, 50496, Note_off_c, 12, 72, 0
20, 50496, Note_on_c, 12, 87, 87
20, 50534, Note_off_c, 12, 61, 0
20, 50534, Note_off_c, 12, 65, 0
20, 50534, Note_off_c, 12, 69, 0
20, 50534, Note_off_c, 12, 73, 0
20, 50560, Note_off_c, 12, 87, 0
20, 50560, Note_on_c, 12, 57, 77
20, 50560, Note_on_c, 12, 61, 77
20, 50560, Note_on_c, 12, 65, 77
20, 50560, Note_on_c, 12, 70, 77
20, 50560, Note_on_c, 12, 73, 77
20, 50560, Note_on_c, 12, 77, 77
20, 50560, Note_on_c, 12, 82, 61
20, 50624, Note_off_c, 12, 82, 0
20, 50624, Note_on_c, 12, 81, 67
20, 50662, Note_off_c, 12, 57, 0
20, 50662, Note_off_c, 12, 61, 0
20, 50662, Note_off_c, 12, 65, 0
20, 50662, Note_off_c, 12, 70, 0
20, 50662, Note_off_c, 12, 73, 0
20, 50662, Note_off_c, 12, 77, 0
20, 50688, Note_off_c, 12, 81, 0
20, 50688, Note_on_c, 12, 57, 77
20, 50688, Note_on_c, 12, 61, 77
20, 50688, Note_on_c, 12, 65, 77
20, 50688, Note_on_c, 12, 70, 77
20, 50688, Note_on_c, 12, 73, 77
20, 50688, Note_on_c, 12, 77, 77
20, 50688, Note_on_c, 12, 79, 65
20, 50790, Note_off_c, 12, 57, 0
20, 50790, Note_off_c, 12, 61, 0
20, 50790, Note_off_c, 12, 65, 0
20, 50790, Note_off_c, 12, 70, 0
20, 50790, Note_off_c, 12, 73, 0
20, 50790, Note_off_c, 12, 77, 0
20, 50816, Note_off_c, 12, 79, 0
20, 50816, Note_on_c, 12, 57, 77
20, 50816, Note_on_c, 12, 61, 77
20, 50816, Note_on_c, 12, 65, 77
20, 50816, Note_on_c, 12, 70, 77
20, 50816, Note_on_c, 12, 73, 77
20, 50816, Note_on_c, 12, 77, 77
20, 50816, Note_on_c, 12, 73, 59
20, 50880, Note_off_c, 12, 73, 0
20, 50880, Note_on_c, 12, 84, 84
20, 50918, Note_off_c, 12, 57, 0
20, 50918, Note_off_c, 12, 61, 0
20, 50918, Note_off_c, 12, 65, 0
20, 50918, Note_off_c, 12, 70, 0
20, 50918, Note_off_c, 12, 73, 0
20, 50918, Note_off_c, 12, 77, 0
20, 50944, Note_off_c, 12, 84, 0
20, 50944, Note_on_c, 12, 57, 77
20, 50944, Note_on_c, 12, 61, 77
20, 50944, Note_on_c, 12, 65, 77
20, 50944, Note_on_c, 12, 70, 77
20, 50944, Note_on_c, 12, 73, 77
20, 50944, Note_on_c, 12, 77, 77
20, 50944, Note_on_c, 12, 78, 63
20, 51029, Note_off_c, 12, 78, 0
20, 51029, Note_on_c, 12, 57, 63
20, 51046, Note_off_c, 12, 57, 0
20, 51046, Note_off_c, 12, 61, 0
20, 51046, Note_off_c, 12, 65, 0
20, 51046, Note_off_c, 12, 70, 0
20, 51046, Note_off_c, 12, 73, 0
20, 51046, Note_off_c, 12, 77, 0
20, 51072, Note_on_c, 12, 57, 73
20, 51072, Note_on_c, 12, 65, 73
20, 51072, Note_on_c, 12, 70, 73
20, 51072, Note_on_c, 12, 73, 73
20, 51072, Note_on_c, 12, 77, 73
20, 51114, Note_off_c, 12, 57, 0
20, 51114, Note_on_c, 12, 58, 68
20, 51200, Note_off_c, 12, 57, 0
20, 51200, Note_off_c, 12, 65, 0
20, 51200, Note_off_c, 12, 70, 0
20, 51200, Note_off_c, 12, 73, 0
20, 51200, Note_off_c, 12, 77, 0
20, 51200, Note_off_c, 12, 58, 0
20, 51200, Note_on_c, 12, 57, 75
20, 51200, Note_on_c, 12, 65, 75
20, 51200, Note_on_c, 12, 70, 75
20, 51200, Note_on_c, 12, 73, 75
20, 51200, Note_on_c, 12, 77, 75
20, 51200, Note_on_c, 12, 60, 75
20, 51285, Note_off_c, 12, 60, 0
20, 51285, Note_on_c, 12, 65, 80
20, 51302, Note_off_c, 12, 57, 0
20, 51302, Note_off_c, 12, 65, 0
20, 51302, Note_off_c, 12, 70, 0
20, 51302, Note_off_c, 12, 73, 0
20, 51302, Note_off_c, 12, 77, 0
20, 51328, Note_on_c, 12, 57, 75
20, 51328, Note_on_c, 12, 65, 75
20, 51328, Note_on_c, 12, 70, 75
20, 51328, Note_on_c, 12, 73, 75
20, 51328, Note_on_c, 12, 77, 75
20, 51370, Note_off_c, 12, 65, 0
20, 51370, Note_on_c, 12, 62, 64
20, 51430, Note_off_c, 12, 57, 0
20, 51430, Note_off_c, 12, 65, 0
20, 51430, Note_off_c, 12, 70, 0
20, 51430, Note_off_c, 12, 73, 0
20, 51430, Note_off_c, 12, 77, 0
20, 51456, Note_off_c, 12, 62, 0
20, 51456, Note_on_c, 12, 57, 75
20, 51456, Note_on_c, 12, 65, 75
20, 51456, Note_on_c, 12, 70, 75
20, 51456, Note_on_c, 12, 73, 75
20, 51456, Note_on_c, 12, 77, 75
20, 51456, Note_on_c, 12, 63, 78
20, 51541, Note_off_c, 12, 63, 0
20, 51541, Note_on_c, 12, 65, 78
20, 51558, Note_off_c, 12, 57, 0
20, 51558, Note_off_c, 12, 65, 0
20, 51558, Note_off_c, 12, 70, 0
20, 51558, Note_off_c, 12, 73, 0
20, 51558, Note_off_c, 12, 77, 0
20, 51584, Note_on_c, 12, 57, 75
20, 51584, Note_on_c, 12, 65, 75
20, 51584, Note_on_c, 12, 70, 75
20, 51584, Note_on_c, 12, 73, 75
20, 51584, Note_on_c, 12, 77, 75
20, 51626, Note_off_c, 12, 65, 0
20, 51626, Note_on_c, 12, 69, 77
20, 51669, Note_off_c, 12, 69, 0
20, 51669, Note_on_c, 12, 70, 77
20, 51686, Note_off_c, 12, 57, 0
20, 51686, Note_off_c, 12, 65, 0
20, 51686, Note_off_c, 12, 70, 0
20, 51686, Note_off_c, 12, 73, 0
20, 51686, Note_off_c, 12, 77, 0
20, 51712, Note_off_c, 12, 70, 0
20, 51712, Note_on_c, 12, 57, 72
20, 51712, Note_on_c, 12, 65, 72
20, 51712, Note_on_c, 12, 70, 72
20, 51712, Note_on_c, 12, 73, 72
20, 51712, Note_on_c, 12, 77, 72
20, 51712, Note_on_c, 12, 72, 75
20, 51754, Note_off_c, 12, 72, 0
20, 51754, Note_on_c, 12, 73, 81
20, 51797, Note_off_c, 12, 73, 0
20, 51797, Note_on_c, 12, 75, 77
20, 51840, Note_off_c, 12, 57, 0
20, 51840, Note_off_c, 12, 65, 0
20, 51840, Note_off_c, 12, 70, 0
20, 51840, Note_off_c, 12, 73, 0
20, 51840, Note_off_c, 12, 77, 0
20, 51840, Note_on_c, 12, 58, 61
20, 51840, Note_on_c, 12, 61, 61
20, 51840, Note_on_c, 12, 66, 61
20, 51840, Note_on_c, 12, 69, 61
20, 51840, Note_on_c, 12, 73, 61
20, 51882, Note_off_c, 12, 75, 0
20, 51882, Note_on_c, 12, 77, 74
20, 51942, Note_off_c, 12, 58, 0
20, 51942, Note_off_c, 12, 61, 0
20, 51942, Note_off_c, 12, 66, 0
20, 51942, Note_off_c, 12, 69, 0
20, 51942, Note_off_c, 12, 73, 0
20, 51968, Note_off_c, 12, 77, 0
20, 51968, Note_on_c, 12, 58, 61
20, 51968, Note_on_c, 12, 61, 61
20, 51968, Note_on_c, 12, 66, 61
20, 51968, Note_on_c, 12, 69, 61
20, 51968, Note_on_c, 12, 73, 61
20, 51968, Note_on_c, 12, 80, 76
20, 52032, Note_off_c, 12, 80, 0
20, 52032, Note_on_c, 12, 60, 55
20, 52070, Note_off_c, 12, 58, 0
20, 52070, Note_off_c, 12, 61, 0
20, 52070, Note_off_c, 12, 66, 0
20, 52070, Note_off_c, 12, 69, 0
20, 52070, Note_off_c, 12, 73, 0
20, 52096, Note_on_c, 12, 58, 61
20, 52096, Note_on_c, 12, 61, 61
20, 52096, Note_on_c, 12, 66, 61
20, 52096, Note_on_c, 12, 69, 61
20, 52096, Note_on_c, 12, 73, 61
20, 52160, Note_off_c, 12, 60, 0
20, 52160, Note_on_c, 12, 81, 88
20, 52198, Note_off_c, 12, 58, 0
20, 52198, Note_off_c, 12, 61, 0
20, 52198, Note_off_c, 12, 66, 0
20, 52198, Note_off_c, 12, 69, 0
20, 52198, Note_off_c, 12, 73, 0
20, 52224, Note_on_c, 12, 58, 71
20, 52224, Note_on_c, 12, 61, 71
20, 52224, Note_on_c, 12, 66, 71
20, 52224, Note_on_c, 12, 69, 71
20, 52224, Note_on_c, 12, 73, 71
20, 52288, Note_off_c, 12, 81, 0
20, 52288, Note_on_c, 12, 63, 55
20, 52326, Note_off_c, 12, 58, 0
20, 52326, Note_off_c, 12, 61, 0
20, 52326, Note_off_c, 12, 66, 0
20, 52326, Note_off_c, 12, 69, 0
20, 52326, Note_off_c, 12, 73, 0
20, 52352, Note_on_c, 12, 58, 71
20, 52352, Note_on_c, 12, 61, 71
20, 52352, Note_on_c, 12, 66, 71
20, 52352, Note_on_c, 12, 69, 71
20, 52352, Note_on_c, 12, 73, 71
20, 52416, Note_off_c, 12, 63, 0
20, 52416, Note_on_c, 12, 87, 84
20, 52454, Note_off_c, 12, 58, 0
20, 52454, Note_off_c, 12, 61, 0
20, 52454, Note_off_c, 12, 66, 0
20, 52454, Note_off_c, 12, 69, 0
20, 52454, Note_off_c, 12, 73, 0
20, 52480, Note_off_c, 12, 87, 0
20, 52480, Note_on_c, 12, 58, 71
20, 52480, Note_on_c, 12, 61, 71
20, 52480, Note_on_c, 12, 66, 71
20, 52480, Note_on_c, 12, 69, 71
20, 52480, Note_on_c, 12, 73, 71
20, 52480, Note_on_c, 12, 66, 50
20, 52582, Note_off_c, 12, 58, 0
20, 52582, Note_off_c, 12, 61, 0
20, 52582, Note_off_c, 12, 66, 0
20, 52582, Note_off_c, 12, 69, 0
20, 52582, Note_off_c, 12, 73, 0
20, 52608, Note_off_c, 12, 66, 0
20, 52608, Note_on_c, 12, 58, 71
20, 52608, Note_on_c, 12, 61, 71
20, 52608, Note_on_c, 12, 66, 71
20, 52608, Note_on_c, 12, 69, 71
20, 52608, Note_on_c, 12, 73, 71
20, 52710, Note_off_c, 12, 58, 0
20, 52710, Note_off_c, 12, 61, 0
20, 52710, Note_off_c, 12, 66, 0
20, 52710, Note_off_c, 12, 69, 0
20, 52710, Note_off_c, 12, 73, 0
20, 52736, Note_on_c, 12, 58, 71
20, 52736, Note_on_c, 12, 61, 71
20, 52736, Note_on_c, 12, 66, 71
20, 52736, Note_on_c, 12, 69, 71
20, 52736, Note_on_c, 12, 73, 71
20, 52864, Note_off_c, 12, 58, 0
20, 52864, Note_off_c, 12, 61, 0
20, 52864, Note_off_c, 12, 66, 0
20, 52864, Note_off_c, 12, 69, 0
20, 52864, Note_off_c, 12, 73, 0
20, 52864, Note_on_c, 12, 55, 62
20, 52864, Note_on_c, 12, 58, 62
20, 52864, Note_on_c, 12, 62, 62
20, 52864, Note_on_c, 12, 66, 62
20, 52864, Note_on_c, 12, 69, 62
20, 52966, Note_off_c, 12, 55, 0
20, 52966, Note_off_c, 12, 58, 0
20, 52966, Note_off_c, 12, 62, 0
20, 52966, Note_off_c, 12, 66, 0
20, 52966, Note_off_c, 12, 69, 0
20, 52992, Note_on_c, 12, 55, 62
20, 52992, Note_on_c, 12, 58, 62
20, 52992, Note_on_c, 12, 62, 62
20, 52992, Note_on_c, 12, 66, 62
20, 52992, Note_on_c, 12, 69, 62
20, 52992, Note_on_c, 12, 81, 62
20, 53077, Note_off_c, 12, 81, 0
20, 53077, Note_on_c, 12, 62, 48
20, 53094, Note_off_c, 12, 55, 0
20, 53094, Note_off_c, 12, 58, 0
20, 53094, Note_off_c, 12, 62, 0
20, 53094, Note_off_c, 12, 66, 0
20, 53094, Note_off_c, 12, 69, 0
20, 53120, Note_on_c, 12, 55, 62
20, 53120, Note_on_c, 12, 58, 62
20, 53120, Note_on_c, 12, 62, 62
20, 53120, Note_on_c, 12, 66, 62
20, 53120, Note_on_c, 12, 69, 62
20, 53222, Note_off_c, 12, 55, 0
20, 53222, Note_off_c, 12, 58, 0
20, 53222, Note_off_c, 12, 62, 0
20, 53222, Note_off_c, 12, 66, 0
20, 53222, Note_off_c, 12, 69, 0
20, 53248, Note_off_c, 12, 62, 0
20, 53248, Note_on_c, 12, 55, 71
20, 53248, Note_on_c, 12, 58, 71
20, 53248, Note_on_c, 12, 62, 71
20, 53248, Note_on_c, 12, 66, 71
20, 53248, Note_on_c, 12, 69, 71
20, 53248, Note_on_c, 12, 82, 83
20, 53333, Note_off_c, 12, 82, 0
20, 53333, Note_on_c, 12, 60, 54
20, 53350, Note_off_c, 12, 55, 0
20, 53350, Note_off_c, 12, 58, 0
20, 53350, Note_off_c, 12, 62, 0
20, 53350, Note_off_c, 12, 66, 0
20, 53350, Note_off_c, 12, 69, 0
20, 53376, Note_on_c, 12, 55, 71
20, 53376, Note_on_c, 12, 58, 71
20, 53376, Note_on_c, 12, 62, 71
20, 53376, Note_on_c, 12, 66, 71
20, 53376, Note_on_c, 12, 69, 71
20, 53478, Note_off_c, 12, 55, 0
20, 53478, Note_off_c, 12, 58, 0
20, 53478, Note_off_c, 12, 62, 0
20, 53478, Note_off_c, 12, 66, 0
20, 53478, Note_off_c, 12, 69, 0
20, 53504, Note_off_c, 12, 60, 0
20, 53504, Note_on_c, 12, 55, 71
20, 53504, Note_on_c, 12, 58, 71
20, 53504, Note_on_c, 12, 62, 71
20, 53504, Note_on_c, 12, 66, 71
20, 53504, Note_on_c, 12, 69, 71
20, 53504, Note_on_c, 12, 84, 88
20, 53589, Note_off_c, 12, 84, 0
20, 53589, Note_on_c, 12, 58, 64
20, 53606, Note_off_c, 12, 55, 0
20, 53606, Note_off_c, 12, 58, 0
20, 53606, Note_off_c, 12, 62, 0
20, 53606, Note_off_c, 12, 66, 0
20, 53606, Note_off_c, 12, 69, 0
20, 53632, Note_on_c, 12, 55, 71
20, 53632, Note_on_c, 12, 58, 71
20, 53632, Note_on_c, 12, 62, 71
20, 53632, Note_on_c, 12, 66, 71
20, 53632, Note_on_c, 12, 69, 71
20, 53674, Note_off_c, 12, 58, 0
20, 53674, Note_on_c, 12, 85, 90
20, 53734, Note_off_c, 12, 55, 0
20, 53734, Note_off_c, 12, 58, 0
20, 53734, Note_off_c, 12, 62, 0
20, 53734, Note_off_c, 12, 66, 0
20, 53734, Note_off_c, 12, 69, 0
20, 53760, Note_off_c, 12, 85, 0
20, 53760, Note_on_c, 12, 55, 71
20, 53760, Note_on_c, 12, 58, 71
20, 53760, Note_on_c, 12, 62, 71
20, 53760, Note_on_c, 12, 66, 71
20, 53760, Note_on_c, 12, 69, 71
20, 53760, Note_on_c, 12, 57, 61
20, 53845, Note_off_c, 12, 57, 0
20, 53845, Note_on_c, 12, 89, 87
20, 53862, Note_off_c, 12, 55, 0
20, 53862, Note_off_c, 12, 58, 0
20, 53862, Note_off_c, 12, 62, 0
20, 53862, Note_off_c, 12, 66, 0
20, 53862, Note_off_c, 12, 69, 0
20, 53888, Note_on_c, 12, 55, 71
20, 53888, Note_on_c, 12, 58, 71
20, 53888, Note_on_c, 12, 62, 71
20, 53888, Note_on_c, 12, 66, 71
20, 53888, Note_on_c, 12, 69, 71
20, 53990, Note_off_c, 12, 55, 0
20, 53990, Note_off_c, 12, 58, 0
20, 53990, Note_off_c, 12, 62, 0
20, 53990, Note_off_c, 12, 66, 0
20, 53990, Note_off_c, 12, 69, 0
20, 54016, Note_off_c, 12, 89, 0
20, 54016, Note_on_c, 12, 48, 71
20, 54016, Note_on_c, 12, 55, 71
20, 54016, Note_on_c, 12, 58, 71
20, 54016, Note_on_c, 12, 62, 71
20, 54016, Note_on_c, 12, 66, 71
20, 54016, Note_on_c, 12, 69, 71
20, 54118, Note_off_c, 12, 48, 0
20, 54118, Note_off_c, 12, 55, 0
20, 54118, Note_off_c, 12, 58, 0
20, 54118, Note_off_c, 12, 62, 0
20, 54118, Note_off_c, 12, 66, 0
20, 54118, Note_off_c, 12, 69, 0
20, 54144, Note_on_c, 12, 48, 71
20, 54144, Note_on_c, 12, 55, 71
20, 54144, Note_on_c, 12, 58, 71
20, 54144, Note_on_c, 12, 62, 71
20, 54144, Note_on_c, 12, 66, 71
20, 54144, Note_on_c, 12, 69, 71
20, 54246, Note_off_c, 12, 48, 0
20, 54246, Note_off_c, 12, 55, 0
20, 54246, Note_off_c, 12, 58, 0
20, 54246, Note_off_c, 12, 62, 0
20, 54246, Note_off_c, 12, 66, 0
20, 54246, Note_off_c, 12, 69, 0
20, 54272, Note_on_c, 12, 48, 72
20, 54272, Note_on_c, 12, 55, 72
20, 54272, Note_on_c, 12, 58, 72
20, 54272, Note_on_c, 12, 62, 72
20, 54272, Note_on_c, 12, 66, 72
20, 54272, Note_on_c, 12, 69, 72
20, 54374, Note_off_c, 12, 48, 0
20, 54374, Note_off_c, 12, 55, 0
20, 54374, Note_off_c, 12, 58, 0
20, 54374, Note_off_c, 12, 62, 0
20, 54374, Note_off_c, 12, 66, 0
20, 54374, Note_off_c, 12, 69, 0
20, 54400, Note_on_c, 12, 48, 72
20, 54400, Note_on_c, 12, 55, 72
20, 54400, Note_on_c, 12, 58, 72
20, 54400, Note_on_c, 12, 62, 72
20, 54400, Note_on_c, 12, 66, 72
20, 54400, Note_on_c, 12, 69, 72
20, 54502, Note_off_c, 12, 48, 0
20, 54502, Note_off_c, 12, 55, 0
20, 54502, Note_off_c, 12, 58, 0
20, 54502, Note_off_c, 12, 62, 0
20, 54502, Note_off_c, 12, 66, 0
20, 54502, Note_off_c, 12, 69, 0
20, 54528, Note_on_c, 12, 48, 72
20, 54528, Note_on_c, 12, 55, 72
20, 54528, Note_on_c, 12, 58, 72
20, 54528, Note_on_c, 12, 62, 72
20, 54528, Note_on_c, 12, 66, 72
20, 54528, Note_on_c, 12, 69, 72
20, 54630, Note_off_c, 12, 48, 0
20, 54630, Note_off_c, 12, 55, 0
20, 54630, Note_off_c, 12, 58, 0
20, 54630, Note_off_c, 12, 62, 0
20, 54630, Note_off_c, 12, 66, 0
20, 54630, Note_off_c, 12, 69, 0
20, 54656, Note_on_c, 12, 48, 64
20, 54656, Note_on_c, 12, 55, 64
20, 54656, Note_on_c, 12, 58, 64
20, 54656, Note_on_c, 12, 62, 64
20, 54656, Note_on_c, 12, 66, 64
20, 54784, Note_off_c, 12, 48, 0
20, 54784, Note_off_c, 12, 55, 0
20, 54784, Note_off_c, 12, 58, 0
20, 54784, Note_off_c, 12, 62, 0
20, 54784, Note_off_c, 12, 66, 0
20, 54784, Note_on_c, 12, 48, 69
20, 54784, Note_on_c, 12, 55, 69
20, 54784, Note_on_c, 12, 58, 69
20, 54784, Note_on_c, 12, 62, 69
20, 54784, Note_on_c, 12, 66, 69
20, 54886, Note_off_c, 12, 48, 0
20, 54886, Note_off_c, 12, 55, 0
20, 54886, Note_off_c, 12, 58, 0
20, 54886, Note_off_c, 12, 62, 0
20, 54886, Note_off_c, 12, 66, 0
20, 54912, Note_on_c, 12, 48, 69
20, 54912, Note_on_c, 12, 55, 69
20, 54912, Note_on_c, 12, 58, 69
20, 54912, Note_on_c, 12, 62, 69
20, 54912, Note_on_c, 12, 66, 69
20, 55014, Note_off_c, 12, 48, 0
20, 55014, Note_off_c, 12, 55, 0
20, 55014, Note_off_c, 12, 58, 0
20, 55014, Note_off_c, 12, 62, 0
20, 55014, Note_off_c, 12, 66, 0
20, 55040, Note_on_c, 12, 48, 67
20, 55040, Note_on_c, 12, 55, 67
20, 55040, Note_on_c, 12, 58, 67
20, 55040, Note_on_c, 12, 62, 67
20, 55040, Note_on_c, 12, 66, 67
20, 55142, Note_off_c, 12, 48, 0
20, 55142, Note_off_c, 12, 55, 0
20, 55142, Note_off_c, 12, 58, 0
20, 55142, Note_off_c, 12, 62, 0
20, 55142, Note_off_c, 12, 66, 0
20, 55168, Note_on_c, 12, 48, 66
20, 55168, Note_on_c, 12, 55, 66
20, 55168, Note_on_c, 12, 58, 66
20, 55168, Note_on_c, 12, 62, 66
20, 55168, Note_on_c, 12, 66, 66
20, 55270, Note_off_c, 12, 48, 0
20, 55270, Note_off_c, 12, 55, 0
20, 55270, Note_off_c, 12, 58, 0
20, 55270, Note_off_c, 12, 62, 0
20, 55270, Note_off_c, 12, 66, 0
20, 55296, Note_on_c, 12, 48, 63
20, 55296, Note_on_c, 12, 55, 63
20, 55296, Note_on_c, 12, 58, 63
20, 55296, Note_on_c, 12, 62, 63
20, 55296, Note_on_c, 12, 66, 63
20, 55398, Note_off_c, 12, 48, 0
20, 55398, Note_off_c, 12, 55, 0
20, 55398, Note_off_c, 12, 58, 0
20, 55398, Note_off_c, 12, 62, 0
20, 55398, Note_off_c, 12, 66, 0
20, 55424, Note_on_c, 12, 48, 63
20, 55424, Note_on_c, 12, 55, 63
20, 55424, Note_on_c, 12, 58, 63
20, 55424, Note_on_c, 12, 62, 63
20, 55424, Note_on_c, 12, 66, 63
20, 55526, Note_off_c, 12, 48, 0
20, 55526, Note_off_c, 12, 55, 0
20, 55526, Note_off_c, 12, 58, 0
20, 55526, Note_off_c, 12, 62, 0
20, 55526, Note_off_c, 12, 66, 0
20, 55552, Note_on_c, 12, 53, 74
20, 55552, Note_on_c, 12, 58, 74
20, 55552, Note_on_c, 12, 61, 74
20, 55552, Note_on_c, 12, 65, 74
20, 55552, Note_on_c, 12, 68, 74
20, 55654, Note_off_c, 12, 53, 0
20, 55654, Note_off_c, 12, 58, 0
20, 55654, Note_off_c, 12, 61, 0
20, 55654, Note_off_c, 12, 65, 0
20, 55654, Note_off_c, 12, 68, 0
20, 55680, Note_on_c, 12, 53, 74
20, 55680, Note_on_c, 12, 58, 74
20, 55680, Note_on_c, 12, 61, 74
20, 55680, Note_on_c, 12, 65, 74
20, 55680, Note_on_c, 12, 68, 74
20, 55782, Note_off_c, 12, 53, 0
20, 55782, Note_off_c, 12, 58, 0
20, 55782, Note_off_c, 12, 61, 0
20, 55782, Note_off_c, 12, 65, 0
20, 55782, Note_off_c, 12, 68, 0
20, 55808, Note_on_c, 12, 53, 73
20, 55808, Note_on_c, 12, 58, 73
20, 55808, Note_on_c, 12, 61, 73
20, 55808, Note_on_c, 12, 65, 73
20, 55808, Note_on_c, 12, 68, 73
20, 55910, Note_off_c, 12, 53, 0
20, 55910, Note_off_c, 12, 58, 0
20, 55910, Note_off_c, 12, 61, 0
20, 55910, Note_off_c, 12, 65, 0
20, 55910, Note_off_c, 12, 68, 0
20, 55936, Note_on_c, 12, 53, 73
20, 55936, Note_on_c, 12, 58, 73
20, 55936, Note_on_c, 12, 61, 73
20, 55936, Note_on_c, 12, 65, 73
20, 55936, Note_on_c, 12, 68, 73
20, 56038, Note_off_c, 12, 53, 0
20, 56038, Note_off_c, 12, 58, 0
20, 56038, Note_off_c, 12, 61, 0
20, 56038, Note_off_c, 12, 65, 0
20, 56038, Note_off_c, 12, 68, 0
20, 56064, Note_on_c, 12, 53, 73
20, 56064, Note_on_c, 12, 58, 73
20, 56064, Note_on_c, 12, 61, 73
20, 56064, Note_on_c, 12, 65, 73
20, 56064, Note_on_c, 12, 68, 73
20, 56166, Note_off_c, 12, 53, 0
20, 56166, Note_off_c, 12, 58, 0
20, 56166, Note_off_c, 12, 61, 0
20, 56166, Note_off_c, 12, 65, 0
20, 56166, Note_off_c, 12, 68, 0
20, 56192, Note_on_c, 12, 53, 73
20, 56192, Note_on_c, 12, 58, 73
20, 56192, Note_on_c, 12, 61, 73
20, 56192, Note_on_c, 12, 65, 73
20, 56192, Note_on_c, 12, 68, 73
20, 56294, Note_off_c, 12, 53, 0
20, 56294, Note_off_c, 12, 58, 0
20, 56294, Note_off_c, 12, 61, 0
20, 56294, Note_off_c, 12, 65, 0
20, 56294, Note_off_c, 12, 68, 0
20, 56320, Note_on_c, 12, 53, 71
20, 56320, Note_on_c, 12, 58, 71
20, 56320, Note_on_c, 12, 61, 71
20, 56320, Note_on_c, 12, 65, 71
20, 56320, Note_on_c, 12, 68, 71
20, 56422, Note_off_c, 12, 53, 0
20, 56422, Note_off_c, 12, 58, 0
20, 56422, Note_off_c, 12, 61, 0
20, 56422, Note_off_c, 12, 65, 0
20, 56422, Note_off_c, 12, 68, 0
20, 56448, Note_on_c, 12, 53, 71
20, 56448, Note_on_c, 12, 58, 71
20, 56448, Note_on_c, 12, 61, 71
20, 56448, Note_on_c, 12, 65, 71
20, 56448, Note_on_c, 12, 68, 71
20, 56550, Note_off_c, 12, 53, 0
20, 56550, Note_off_c, 12, 58, 0
20, 56550, Note_off_c, 12, 61, 0
20, 56550, Note_off_c, 12, 65, 0
20, 56550, Note_off_c, 12, 68, 0
20, 56576, Note_on_c, 12, 53, 71
20, 56576, Note_on_c, 12, 58, 71
20, 56576, Note_on_c, 12, 61, 71
20, 56576, Note_on_c, 12, 65, 71
20, 56576, Note_on_c, 12, 68, 71
20, 56678, Note_off_c, 12, 53, 0
20, 56678, Note_off_c, 12, 58, 0
20, 56678, Note_off_c, 12, 61, 0
20, 56678, Note_off_c, 12, 65, 0
20, 56678, Note_off_c, 12, 68, 0
20, 56704, Note_on_c, 12, 53, 71
20, 56704, Note_on_c, 12, 58, 71
20, 56704, Note_on_c, 12, 61, 71
20, 56704, Note_on_c, 12, 65, 71
20, 56704, Note_on_c, 12, 68, 71
20, 56806, Note_off_c, 12, 53, 0
20, 56806, Note_off_c, 12, 58, 0
20, 56806, Note_off_c, 12, 61, 0
20, 56806, Note_off_c, 12, 65, 0
20, 56806, Note_off_c, 12, 68, 0
20, 56832, Note_on_c, 12, 53, 71
20, 56832, Note_on_c, 12, 58, 71
20, 56832, Note_on_c, 12, 61, 71
20, 56832, Note_on_c, 12, 65, 71
20, 56832, Note_on_c, 12, 68, 71
20, 56934, Note_off_c, 12, 53, 0
20, 56934, Note_off_c, 12, 58, 0
20, 56934, Note_off_c, 12, 61, 0
20, 56934, Note_off_c, 12, 65, 0
20, 56934, Note_off_c, 12, 68, 0
20, 56960, Note_on_c, 12, 53, 71
20, 56960, Note_on_c, 12, 58, 71
20, 56960, Note_on_c, 12, 61, 71
20, 56960, Note_on_c, 12, 65, 71
20, 56960, Note_on_c, 12, 68, 71
20, 57062, Note_off_c, 12, 53, 0
20, 57062, Note_off_c, 12, 58, 0
20, 57062, Note_off_c, 12, 61, 0
20, 57062, Note_off_c, 12, 65, 0
20, 57062, Note_off_c, 12, 68, 0
20, 57088, Note_on_c, 12, 53, 72
20, 57088, Note_on_c, 12, 57, 72
20, 57088, Note_on_c, 12, 62, 72
20, 57088, Note_on_c, 12, 66, 72
20, 57088, Note_on_c, 12, 69, 72
20, 57190, Note_off_c, 12, 53, 0
20, 57190, Note_off_c, 12, 57, 0
20, 57190, Note_off_c, 12, 62, 0
20, 57190, Note_off_c, 12, 66, 0
20, 57190, Note_off_c, 12, 69, 0
20, 57216, Note_on_c, 12, 53, 72
20, 57216, Note_on_c, 12, 57, 72
20, 57216, Note_on_c, 12, 62, 72
20, 57216, Note_on_c, 12, 66, 72
20, 57216, Note_on_c, 12, 69, 72
20, 57318, Note_off_c, 12, 53, 0
20, 57318, Note_off_c, 12, 57, 0
20, 57318, Note_off_c, 12, 62, 0
20, 57318, Note_off_c, 12, 66, 0
20, 57318, Note_off_c, 12, 69, 0
20, 57344, Note_on_c, 12, 53, 70
20, 57344, Note_on_c, 12, 57, 70
20, 57344, Note_on_c, 12, 62, 70
20, 57344, Note_on_c, 12, 66, 70
20, 57344, Note_on_c, 12, 69, 70
20, 57446, Note_off_c, 12, 53, 0
20, 57446, Note_off_c, 12, 57, 0
20, 57446, Note_off_c, 12, 62, 0
20, 57446, Note_off_c, 12, 66, 0
20, 57446, Note_off_c, 12, 69, 0
20, 57472, Note_on_c, 12, 53, 72
20, 57472, Note_on_c, 12, 57, 72
20, 57472, Note_on_c, 12, 62, 72
20, 57472, Note_on_c, 12, 66, 72
20, 57472, Note_on_c, 12, 69, 72
20, 57574, Note_off_c, 12, 53, 0
20, 57574, Note_off_c, 12, 57, 0
20, 57574, Note_off_c, 12, 62, 0
20, 57574, Note_off_c, 12, 66, 0
20, 57574, Note_off_c, 12, 69, 0
20, 57600, Note_on_c, 12, 53, 74
20, 57600, Note_on_c, 12, 57, 74
20, 57600, Note_on_c, 12, 62, 74
20, 57600, Note_on_c, 12, 66, 74
20, 57600, Note_on_c, 12, 69, 74
20, 57702, Note_off_c, 12, 53, 0
20, 57702, Note_off_c, 12, 57, 0
20, 57702, Note_off_c, 12, 62, 0
20, 57702, Note_off_c, 12, 66, 0
20, 57702, Note_off_c, 12, 69, 0
20, 57728, Note_on_c, 12, 53, 70
20, 57728, Note_on_c, 12, 58, 70
20, 57728, Note_on_c, 12, 61, 70
20, 57728, Note_on_c, 12, 65, 70
20, 57728, Note_on_c, 12, 68, 70
20, 57856, Note_off_c, 12, 53, 0
20, 57856, Note_off_c, 12, 58, 0
20, 57856, Note_off_c, 12, 61, 0
20, 57856, Note_off_c, 12, 65, 0
20, 57856, Note_off_c, 12, 68, 0
20, 57856, Note_on_c, 12, 53, 80
20, 57856, Note_on_c, 12, 58, 80
20, 57856, Note_on_c, 12, 61, 80
20, 57856, Note_on_c, 12, 65, 80
20, 57856, Note_on_c, 12, 68, 80
20, 57958, Note_off_c, 12, 53, 0
20, 57958, Note_off_c, 12, 58, 0
20, 57958, Note_off_c, 12, 61, 0
20, 57958, Note_off_c, 12, 65, 0
20, 57958, Note_off_c, 12, 68, 0
20, 57984, Note_on_c, 12, 53, 78
20, 57984, Note_on_c, 12, 58, 78
20, 57984, Note_on_c, 12, 61, 78
20, 57984, Note_on_c, 12, 65, 78
20, 57984, Note_on_c, 12, 68, 78
20, 58086, Note_off_c, 12, 53, 0
20, 58086, Note_off_c, 12, 58, 0
20, 58086, Note_off_c, 12, 61, 0
20, 58086, Note_off_c, 12, 65, 0
20, 58086, Note_off_c, 12, 68, 0
20, 58112, Note_on_c, 12, 53, 80
20, 58112, Note_on_c, 12, 58, 80
20, 58112, Note_on_c, 12, 61, 80
20, 58112, Note_on_c, 12, 65, 80
20, 58112, Note_on_c, 12, 68, 80
20, 58214, Note_off_c, 12, 53, 0
20, 58214, Note_off_c, 12, 58, 0
20, 58214, Note_off_c, 12, 61, 0
20, 58214, Note_off_c, 12, 65, 0
20, 58214, Note_off_c, 12, 68, 0
20, 58240, Note_on_c, 12, 53, 81
20, 58240, Note_on_c, 12, 58, 81
20, 58240, Note_on_c, 12, 61, 81
20, 58240, Note_on_c, 12, 65, 81
20, 58240, Note_on_c, 12, 68, 81
20, 58342, Note_off_c, 12, 53, 0
20, 58342, Note_off_c, 12, 58, 0
20, 58342, Note_off_c, 12, 61, 0
20, 58342, Note_off_c, 12, 65, 0
20, 58342, Note_off_c, 12, 68, 0
20, 58368, Note_on_c, 12, 53, 87
20, 58368, Note_on_c, 12, 58, 87
20, 58368, Note_on_c, 12, 61, 87
20, 58368, Note_on_c, 12, 65, 87
20, 58368, Note_on_c, 12, 68, 87
20, 58470, Note_off_c, 12, 53, 0
20, 58470, Note_off_c, 12, 58, 0
20, 58470, Note_off_c, 12, 61, 0
20, 58470, Note_off_c, 12, 65, 0
20, 58470, Note_off_c, 12, 68, 0
20, 58496, Note_on_c, 12, 53, 87
20, 58496, Note_on_c, 12, 58, 87
20, 58496, Note_on_c, 12, 61, 87
20, 58496, Note_on_c, 12, 65, 87
20, 58496, Note_on_c, 12, 68, 87
20, 58598, Note_off_c, 12, 53, 0
20, 58598, Note_off_c, 12, 58, 0
20, 58598, Note_off_c, 12, 61, 0
20, 58598, Note_off_c, 12, 65, 0
20, 58598, Note_off_c, 12, 68, 0
20, 58624, Note_on_c, 12, 53, 85
20, 58624, Note_on_c, 12, 57, 85
20, 58624, Note_on_c, 12, 62, 85
20, 58624, Note_on_c, 12, 66, 85
20, 58624, Note_on_c, 12, 69, 85
20, 58726, Note_off_c, 12, 53, 0
20, 58726, Note_off_c, 12, 57, 0
20, 58726, Note_off_c, 12, 62, 0
20, 58726, Note_off_c, 12, 66, 0
20, 58726, Note_off_c, 12, 69, 0
20, 58752, Note_on_c, 12, 53, 85
20, 58752, Note_on_c, 12, 57, 85
20, 58752, Note_on_c, 12, 62, 85
20, 58752, Note_on_c, 12, 66, 85
20, 58752, Note_on_c, 12, 69, 85
20, 58854, Note_off_c, 12, 53, 0
20, 58854, Note_off_c, 12, 57, 0
20, 58854, Note_off_c, 12, 62, 0
20, 58854, Note_off_c, 12, 66, 0
20, 58854, Note_off_c, 12, 69, 0
20, 58880, Note_on_c, 12, 53, 84
20, 58880, Note_on_c, 12, 57, 84
20, 58880, Note_on_c, 12, 62, 84
20, 58880, Note_on_c, 12, 66, 84
20, 58880, Note_on_c, 12, 69, 84
20, 58982, Note_off_c, 12, 53, 0
20, 58982, Note_off_c, 12, 57, 0
20, 58982, Note_off_c, 12, 62, 0
20, 58982, Note_off_c, 12, 66, 0
20, 58982, Note_off_c, 12, 69, 0
20, 59008, Note_on_c, 12, 53, 84
20, 59008, Note_on_c, 12, 57, 84
20, 59008, Note_on_c, 12, 62, 84
20, 59008, Note_on_c, 12, 66, 84
20, 59008, Note_on_c, 12, 69, 84
20, 59110, Note_off_c, 12, 53, 0
20, 59110, Note_off_c, 12, 57, 0
20, 59110, Note_off_c, 12, 62, 0
20, 59110, Note_off_c, 12, 66, 0
20, 59110, Note_off_c, 12, 69, 0
20, 59136, Note_on_c, 12, 53, 84
20, 59136, Note_on_c, 12, 57, 84
20, 59136, Note_on_c, 12, 62, 84
20, 59136, Note_on_c, 12, 66, 84
20, 59136, Note_on_c, 12, 69, 84
20, 59238, Note_off_c, 12, 53, 0
20, 59238, Note_off_c, 12, 57, 0
20, 59238, Note_off_c, 12, 62, 0
20, 59238, Note_off_c, 12, 66, 0
20, 59238, Note_off_c, 12, 69, 0
20, 59264, Note_on_c, 12, 53, 81
20, 59264, Note_on_c, 12, 58, 81
20, 59264, Note_on_c, 12, 61, 81
20, 59264, Note_on_c, 12, 65, 81
20, 59264, Note_on_c, 12, 68, 81
20, 59392, Note_off_c, 12, 53, 0
20, 59392, Note_off_c, 12, 58, 0
20, 59392, Note_off_c, 12, 61, 0
20, 59392, Note_off_c, 12, 65, 0
20, 59392, Note_off_c, 12, 68, 0
20, 59392, Note_on_c, 12, 53, 86
20, 59392, Note_on_c, 12, 58, 86
20, 59392, Note_on_c, 12, 61, 86
20, 59392, Note_on_c, 12, 65, 86
20, 59392, Note_on_c, 12, 68, 86
20, 59494, Note_off_c, 12, 53, 0
20, 59494, Note_off_c, 12, 58, 0
20, 59494, Note_off_c, 12, 61, 0
20, 59494, Note_off_c, 12, 65, 0
20, 59494, Note_off_c, 12, 68, 0
20, 59520, Note_on_c, 12, 53, 86
20, 59520, Note_on_c, 12, 58, 86
20, 59520, Note_on_c, 12, 61, 86
20, 59520, Note_on_c, 12, 65, 86
20, 59520, Note_on_c, 12, 68, 86
20, 59622, Note_off_c, 12, 53, 0
20, 59622, Note_off_c, 12, 58, 0
20, 59622, Note_off_c, 12, 61, 0
20, 59622, Note_off_c, 12, 65, 0
20, 59622, Note_off_c, 12, 68, 0
20, 59648, Note_on_c, 12, 53, 86
20, 59648, Note_on_c, 12, 58, 86
20, 59648, Note_on_c, 12, 61, 86
20, 59648, Note_on_c, 12, 65, 86
20, 59648, Note_on_c, 12, 68, 86
20, 59750, Note_off_c, 12, 53, 0
20, 59750, Note_off_c, 12, 58, 0
20, 59750, Note_off_c, 12, 61, 0
20, 59750, Note_off_c, 12, 65, 0
20, 59750, Note_off_c, 12, 68, 0
20, 59776, Note_on_c, 12, 53, 86
20, 59776, Note_on_c, 12, 58, 86
20, 59776, Note_on_c, 12, 61, 86
20, 59776, Note_on_c, 12, 65, 86
20, 59776, Note_on_c, 12, 68, 86
20, 59878, Note_off_c, 12, 53, 0
20, 59878, Note_off_c, 12, 58, 0
20, 59878, Note_off_c, 12, 61, 0
20, 59878, Note_off_c, 12, 65, 0
20, 59878, Note_off_c, 12, 68, 0
20, 59904, Note_on_c, 12, 57, 94
20, 59904, Note_on_c, 12, 61, 94
20, 59904, Note_on_c, 12, 65, 94
20, 59904, Note_on_c, 12, 69, 94
20, 59904, Note_on_c, 12, 72, 94
20, 60006, Note_off_c, 12, 57, 0
20, 60006, Note_off_c, 12, 61, 0
20, 60006, Note_off_c, 12, 65, 0
20, 60006, Note_off_c, 12, 69, 0
20, 60006, Note_off_c, 12, 72, 0
20, 60032, Note_on_c, 12, 57, 94
20, 60032, Note_on_c, 12, 61, 94
20, 60032, Note_on_c, 12, 65, 94
20, 60032, Note_on_c, 12, 69, 94
20, 60032, Note_on_c, 12, 72, 94
20, 60134, Note_off_c, 12, 57, 0
20, 60134, Note_off_c, 12, 61, 0
20, 60134, Note_off_c, 12, 65, 0
20, 60134, Note_off_c, 12, 69, 0
20, 60134, Note_off_c, 12, 72, 0
20, 60160, Note_on_c, 12, 57, 94
20, 60160, Note_on_c, 12, 61, 94
20, 60160, Note_on_c, 12, 65, 94
20, 60160, Note_on_c, 12, 69, 94
20, 60160, Note_on_c, 12, 72, 94
20, 60262, Note_off_c, 12, 57, 0
20, 60262, Note_off_c, 12, 61, 0
20, 60262, Note_off_c, 12, 65, 0
20, 60262, Note_off_c, 12, 69, 0
20, 60262, Note_off_c, 12, 72, 0
20, 60288, Note_on_c, 12, 57, 94
20, 60288, Note_on_c, 12, 61, 94
20, 60288, Note_on_c, 12, 65, 94
20, 60288, Note_on_c, 12, 69, 94
20, 60288, Note_on_c, 12, 72, 94
20, 60390, Note_off_c, 12, 57, 0
20, 60390, Note_off_c, 12, 61, 0
20, 60390, Note_off_c, 12, 65, 0
20, 60390, Note_off_c, 12, 69, 0
20, 60390, Note_off_c, 12, 72, 0
20, 60416, Note_on_c, 12, 57, 84
20, 60416, Note_on_c, 12, 61, 84
20, 60416, Note_on_c, 12, 65, 84
20, 60416, Note_on_c, 12, 69, 84
20, 60416, Note_on_c, 12, 72, 84
20, 60518, Note_off_c, 12, 57, 0
20, 60518, Note_off_c, 12, 61, 0
20, 60518, Note_off_c, 12, 65, 0
20, 60518, Note_off_c, 12, 69, 0
20, 60518, Note_off_c, 12, 72, 0
20, 60544, Note_on_c, 12, 57, 84
20, 60544, Note_on_c, 12, 61, 84
20, 60544, Note_on_c, 12, 65, 84
20, 60544, Note_on_c, 12, 69, 84
20, 60544, Note_on_c, 12, 72, 84
20, 60646, Note_off_c, 12, 57, 0
20, 60646, Note_off_c, 12, 61, 0
20, 60646, Note_off_c, 12, 65, 0
20, 60646, Note_off_c, 12, 69, 0
20, 60646, Note_off_c, 12, 72, 0
20, 60672, Note_on_c, 12, 57, 84
20, 60672, Note_on_c, 12, 61, 84
20, 60672, Note_on_c, 12, 65, 84
20, 60672, Note_on_c, 12, 69, 84
20, 60672, Note_on_c, 12, 72, 84
20, 60774, Note_off_c, 12, 57, 0
20, 60774, Note_off_c, 12, 61, 0
20, 60774, Note_off_c, 12, 65, 0
20, 60774, Note_off_c, 12, 69, 0
20, 60774, Note_off_c, 12, 72, 0
20, 60800, Note_on_c, 12, 57, 84
20, 60800, Note_on_c, 12, 61, 84
20, 60800, Note_on_c, 12, 65, 84
20, 60800, Note_on_c, 12, 69, 84
20, 60800, Note_on_c, 12, 72, 84
20, 60902, Note_off_c, 12, 57, 0
20, 60902, Note_off_c, 12, 61, 0
20, 60902, Note_off_c, 12, 65, 0
20, 60902, Note_off_c, 12, 69, 0
20, 60902, Note_off_c, 12, 72, 0
20, 60928, Note_on_c, 12, 57, 89
20, 60928, Note_on_c, 12, 61, 89
20, 60928, Note_on_c, 12, 65, 89
20, 60928, Note_on_c, 12, 69, 89
20, 60928, Note_on_c, 12, 72, 89
20, 61056, Note_off_c, 12, 57, 0
20, 61056, Note_off_c, 12, 61, 0
20, 61056, Note_off_c, 12, 65, 0
20, 61056, Note_off_c, 12, 69, 0
20, 61056, Note_off_c, 12, 72, 0
20, 61056, Note_on_c, 12, 58, 84
20, 61056, Note_on_c, 12, 61, 84
20, 61056, Note_on_c, 12, 65, 84
20, 61056, Note_on_c, 12, 69, 84
20, 61056, Note_on_c, 12, 72, 84
20, 61158, Note_off_c, 12, 58, 0
20, 61158, Note_off_c, 12, 61, 0
20, 61158, Note_off_c, 12, 65, 0
20, 61158, Note_off_c, 12, 69, 0
20, 61158, Note_off_c, 12, 72, 0
20, 61184, Note_on_c, 12, 58, 84
20, 61184, Note_on_c, 12, 61, 84
20, 61184, Note_on_c, 12, 65, 84
20, 61184, Note_on_c, 12, 69, 84
20, 61184, Note_on_c, 12, 72, 84
20, 61286, Note_off_c, 12, 58, 0
20, 61286, Note_off_c, 12, 61, 0
20, 61286, Note_off_c, 12, 65, 0
20, 61286, Note_off_c, 12, 69, 0
20, 61286, Note_off_c, 12, 72, 0
20, 61312, Note_on_c, 12, 58, 84
20, 61312, Note_on_c, 12, 61, 84
20, 61312, Note_on_c, 12, 65, 84
20, 61312, Note_on_c, 12, 69, 84
20, 61312, Note_on_c, 12, 72, 84
20, 61414, Note_off_c, 12, 58, 0
20, 61414, Note_off_c, 12, 61, 0
20, 61414, Note_off_c, 12, 65, 0
20, 61414, Note_off_c, 12, 69, 0
20, 61414, Note_off_c, 12, 72, 0
20, 61440, Note_on_c, 12, 58, 78
20, 61440, Note_on_c, 12, 61, 78
20, 61440, Note_on_c, 12, 65, 78
20, 61440, Note_on_c, 12, 69, 78
20, 61440, Note_on_c, 12, 72, 78
20, 61568, Note_off_c, 12, 58, 0
20, 61568, Note_off_c, 12, 61, 0
20, 61568, Note_off_c, 12, 65, 0
20, 61568, Note_off_c, 12, 69, 0
20, 61568, Note_off_c, 12, 72, 0
20, 61568, Note_on_c, 12, 58, 88
20, 61568, Note_on_c, 12, 61, 88
20, 61568, Note_on_c, 12, 65, 88
20, 61568, Note_on_c, 12, 68, 88
20, 61568, Note_on_c, 12, 73, 88
20, 61696, Note_off_c, 12, 58, 0
20, 61696, Note_off_c, 12, 61, 0
20, 61696, Note_off_c, 12, 65, 0
20, 61696, Note_off_c, 12, 68, 0
20, 61696, Note_off_c, 12, 73, 0
20, 61696, Note_on_c, 12, 58, 83
20, 61696, Note_on_c, 12, 61, 83
20, 61696, Note_on_c, 12, 65, 83
20, 61696, Note_on_c, 12, 68, 83
20, 61696, Note_on_c, 12, 73, 83
20, 61798, Note_off_c, 12, 58, 0
20, 61798, Note_off_c, 12, 61, 0
20, 61798, Note_off_c, 12, 65, 0
20, 61798, Note_off_c, 12, 68, 0
20, 61798, Note_off_c, 12, 73, 0
20, 61824, Note_on_c, 12, 58, 83
20, 61824, Note_on_c, 12, 61, 83
20, 61824, Note_on_c, 12, 65, 83
20, 61824, Note_on_c, 12, 68, 83
20, 61824, Note_on_c, 12, 73, 83
20, 61926, Note_off_c, 12, 58, 0
20, 61926, Note_off_c, 12, 61, 0
20, 61926, Note_off_c, 12, 65, 0
20, 61926, Note_off_c, 12, 68, 0
20, 61926, Note_off_c, 12, 73, 0
20, 61952, Note_on_c, 12, 58, 83
20, 61952, Note_on_c, 12, 61, 83
20, 61952, Note_on_c, 12, 65, 83
20, 61952, Note_on_c, 12, 68, 83
20, 61952, Note_on_c, 12, 73, 83
20, 62054, Note_off_c, 12, 58, 0
20, 62054, Note_off_c, 12, 61, 0
20, 62054, Note_off_c, 12, 65, 0
20, 62054, Note_off_c, 12, 68, 0
20, 62054, Note_off_c, 12, 73, 0
20, 62080, Note_on_c, 12, 58, 83
20, 62080, Note_on_c, 12, 61, 83
20, 62080, Note_on_c, 12, 65, 83
20, 62080, Note_on_c, 12, 68, 83
20, 62080, Note_on_c, 12, 73, 83
20, 62182, Note_off_c, 12, 58, 0
20, 62182, Note_off_c, 12, 61, 0
20, 62182, Note_off_c, 12, 65, 0
20, 62182, Note_off_c, 12, 68, 0
20, 62182, Note_off_c, 12, 73, 0
20, 62208, Note_on_c, 12, 58, 83
20, 62208, Note_on_c, 12, 61, 83
20, 62208, Note_on_c, 12, 65, 83
20, 62208, Note_on_c, 12, 68, 83
20, 62208, Note_on_c, 12, 73, 83
20, 62310, Note_off_c, 12, 58, 0
20, 62310, Note_off_c, 12, 61, 0
20, 62310, Note_off_c, 12, 65, 0
20, 62310, Note_off_c, 12, 68, 0
20, 62310, Note_off_c, 12, 73, 0
20, 62336, Note_on_c, 12, 58, 83
20, 62336, Note_on_c, 12, 61, 83
20, 62336, Note_on_c, 12, 65, 83
20, 62336, Note_on_c, 12, 68, 83
20, 62336, Note_on_c, 12, 73, 83
20, 62438, Note_off_c, 12, 58, 0
20, 62438, Note_off_c, 12, 61, 0
20, 62438, Note_off_c, 12, 65, 0
20, 62438, Note_off_c, 12, 68, 0
20, 62438, Note_off_c, 12, 73, 0
20, 62464, Note_on_c, 12, 53, 77
20, 62464, Note_on_c, 12, 59, 77
20, 62464, Note_on_c, 12, 63, 77
20, 62464, Note_on_c, 12, 65, 77
20, 62464, Note_on_c, 12, 70, 77
20, 62566, Note_off_c, 12, 53, 0
20, 62566, Note_off_c, 12, 59, 0
20, 62566, Note_off_c, 12, 63, 0
20, 62566, Note_off_c, 12, 65, 0
20, 62566, Note_off_c, 12, 70, 0
20, 62592, Note_on_c, 12, 53, 77
20, 62592, Note_on_c, 12, 59, 77
20, 62592, Note_on_c, 12, 63, 77
20, 62592, Note_on_c, 12, 65, 77
20, 62592, Note_on_c, 12, 70, 77
20, 62694, Note_off_c, 12, 53, 0
20, 62694, Note_off_c, 12, 59, 0
20, 62694, Note_off_c, 12, 63, 0
20, 62694, Note_off_c, 12, 65, 0
20, 62694, Note_off_c, 12, 70, 0
20, 62720, Note_on_c, 12, 53, 77
20, 62720, Note_on_c, 12, 59, 77
20, 62720, Note_on_c, 12, 63, 77
20, 62720, Note_on_c, 12, 65, 77
20, 62720, Note_on_c, 12, 70, 77
20, 62822, Note_off_c, 12, 53, 0
20, 62822, Note_off_c, 12, 59, 0
20, 62822, Note_off_c, 12, 63, 0
20, 62822, Note_off_c, 12, 65, 0
20, 62822, Note_off_c, 12, 70, 0
20, 62848, Note_on_c, 12, 53, 77
20, 62848, Note_on_c, 12, 59, 77
20, 62848, Note_on_c, 12, 63, 77
20, 62848, Note_on_c, 12, 65, 77
20, 62848, Note_on_c, 12, 70, 77
20, 62950, Note_off_c, 12, 53, 0
20, 62950, Note_off_c, 12, 59, 0
20, 62950, Note_off_c, 12, 63, 0
20, 62950, Note_off_c, 12, 65, 0
20, 62950, Note_off_c, 12, 70, 0
20, 62976, Note_on_c, 12, 53, 79
20, 62976, Note_on_c, 12, 59, 79
20, 62976, Note_on_c, 12, 63, 79
20, 62976, Note_on_c, 12, 65, 79
20, 62976, Note_on_c, 12, 70, 79
20, 63078, Note_off_c, 12, 53, 0
20, 63078, Note_off_c, 12, 59, 0
20, 63078, Note_off_c, 12, 63, 0
20, 63078, Note_off_c, 12, 65, 0
20, 63078, Note_off_c, 12, 70, 0
20, 63104, Note_on_c, 12, 53, 79
20, 63104, Note_on_c, 12, 59, 79
20, 63104, Note_on_c, 12, 63, 79
20, 63104, Note_on_c, 12, 65, 79
20, 63104, Note_on_c, 12, 70, 79
20, 63206, Note_off_c, 12, 53, 0
20, 63206, Note_off_c, 12, 59, 0
20, 63206, Note_off_c, 12, 63, 0
20, 63206, Note_off_c, 12, 65, 0
20, 63206, Note_off_c, 12, 70, 0
20, 63232, Note_on_c, 12, 53, 79
20, 63232, Note_on_c, 12, 59, 79
20, 63232, Note_on_c, 12, 63, 79
20, 63232, Note_on_c, 12, 65, 79
20, 63232, Note_on_c, 12, 70, 79
20, 63334, Note_off_c, 12, 53, 0
20, 63334, Note_off_c, 12, 59, 0
20, 63334, Note_off_c, 12, 63, 0
20, 63334, Note_off_c, 12, 65, 0
20, 63334, Note_off_c, 12, 70, 0
20, 63360, Note_on_c, 12, 53, 79
20, 63360, Note_on_c, 12, 59, 79
20, 63360, Note_on_c, 12, 63, 79
20, 63360, Note_on_c, 12, 65, 79
20, 63360, Note_on_c, 12, 70, 79
20, 63462, Note_off_c, 12, 53, 0
20, 63462, Note_off_c, 12, 59, 0
20, 63462, Note_off_c, 12, 63, 0
20, 63462, Note_off_c, 12, 65, 0
20, 63462, Note_off_c, 12, 70, 0
20, 63488, Note_on_c, 12, 53, 81
20, 63488, Note_on_c, 12, 59, 81
20, 63488, Note_on_c, 12, 63, 81
20, 63488, Note_on_c, 12, 65, 81
20, 63488, Note_on_c, 12, 70, 81
20, 63616, Note_off_c, 12, 53, 0
20, 63616, Note_off_c, 12, 59, 0
20, 63616, Note_off_c, 12, 63, 0
20, 63616, Note_off_c, 12, 65, 0
20, 63616, Note_off_c, 12, 70, 0
20, 63616, Note_on_c, 12, 57, 92
20, 63616, Note_on_c, 12, 63, 92
20, 63616, Note_on_c, 12, 67, 92
20, 63616, Note_on_c, 12, 70, 92
20, 63616, Note_on_c, 12, 75, 92
20, 63718, Note_off_c, 12, 57, 0
20, 63718, Note_off_c, 12, 63, 0
20, 63718, Note_off_c, 12, 67, 0
20, 63718, Note_off_c, 12, 70, 0
20, 63718, Note_off_c, 12, 75, 0
20, 63744, Note_on_c, 12, 57, 92
20, 63744, Note_on_c, 12, 63, 92
20, 63744, Note_on_c, 12, 67, 92
20, 63744, Note_on_c, 12, 70, 92
20, 63744, Note_on_c, 12, 75, 92
20, 63846, Note_off_c, 12, 57, 0
20, 63846, Note_off_c, 12, 63, 0
20, 63846, Note_off_c, 12, 67, 0
20, 63846, Note_off_c, 12, 70, 0
20, 63846, Note_off_c, 12, 75, 0
20, 63872, Note_on_c, 12, 57, 92
20, 63872, Note_on_c, 12, 63, 92
20, 63872, Note_on_c, 12, 67, 92
20, 63872, Note_on_c, 12, 70, 92
20, 63872, Note_on_c, 12, 75, 92
20, 63974, Note_off_c, 12, 57, 0
20, 63974, Note_off_c, 12, 63, 0
20, 63974, Note_off_c, 12, 67, 0
20, 63974, Note_off_c, 12, 70, 0
20, 63974, Note_off_c, 12, 75, 0
20, 64000, Note_on_c, 12, 57, 83
20, 64000, Note_on_c, 12, 63, 83
20, 64000, Note_on_c, 12, 67, 83
20, 64000, Note_on_c, 12, 70, 83
20, 64000, Note_on_c, 12, 75, 83
20, 64128, Note_off_c, 12, 57, 0
20, 64128, Note_off_c, 12, 63, 0
20, 64128, Note_off_c, 12, 67, 0
20, 64128, Note_off_c, 12, 70, 0
20, 64128, Note_off_c, 12, 75, 0
20, 64128, Note_on_c, 12, 57, 87
20, 64128, Note_on_c, 12, 63, 87
20, 64128, Note_on_c, 12, 67, 87
20, 64128, Note_on_c, 12, 71, 87
20, 64128, Note_on_c, 12, 75, 87
20, 64256, Note_off_c, 12, 57, 0
20, 64256, Note_off_c, 12, 63, 0
20, 64256, Note_off_c, 12, 67, 0
20, 64256, Note_off_c, 12, 71, 0
20, 64256, Note_off_c, 12, 75, 0
20, 64256, Note_on_c, 12, 57, 81
20, 64256, Note_on_c, 12, 63, 81
20, 64256, Note_on_c, 12, 67, 81
20, 64256, Note_on_c, 12, 71, 81
20, 64256, Note_on_c, 12, 75, 81
20, 64384, Note_off_c, 12, 57, 0
20, 64384, Note_off_c, 12, 63, 0
20, 64384, Note_off_c, 12, 67, 0
20, 64384, Note_off_c, 12, 71, 0
20, 64384, Note_off_c, 12, 75, 0
20, 64384, Note_on_c, 12, 57, 85
20, 64384, Note_on_c, 12, 63, 85
20, 64384, Note_on_c, 12, 67, 85
20, 64384, Note_on_c, 12, 70, 85
20, 64384, Note_on_c, 12, 75, 85
20, 64512, Note_off_c, 12, 57, 0
20, 64512, Note_off_c, 12, 63, 0
20, 64512, Note_off_c, 12, 67, 0
20, 64512, Note_off_c, 12, 70, 0
20, 64512, Note_off_c, 12, 75, 0
20, 64512, Note_on_c, 12, 57, 83
20, 64512, Note_on_c, 12, 63, 83
20, 64512, Note_on_c, 12, 67, 83
20, 64512, Note_on_c, 12, 71, 83
20, 64512, Note_on_c, 12, 75, 83
20, 64640, Note_off_c, 12, 57, 0
20, 64640, Note_off_c, 12, 63, 0
20, 64640, Note_off_c, 12, 67, 0
20, 64640, Note_off_c, 12, 71, 0
20, 64640, Note_off_c, 12, 75, 0
20, 64640, Note_on_c, 12, 57, 86
20, 64640, Note_on_c, 12, 63, 86
20, 64640, Note_on_c, 12, 67, 86
20, 64640, Note_on_c, 12, 70, 86
20, 64640, Note_on_c, 12, 75, 86
20, 64768, Note_off_c, 12, 57, 0
20, 64768, Note_off_c, 12, 63, 0
20, 64768, Note_off_c, 12, 67, 0
20, 64768, Note_off_c, 12, 70, 0
20, 64768, Note_off_c, 12, 75, 0
20, 64768, Note_on_c, 12, 56, 88
20, 64768, Note_on_c, 12, 63, 88
20, 64768, Note_on_c, 12, 64, 88
20, 64768, Note_on_c, 12, 68, 88
20, 64768, Note_on_c, 12, 71, 88
20, 64768, Note_on_c, 12, 76, 88
20, 64870, Note_off_c, 12, 56, 0
20, 64870, Note_off_c, 12, 63, 0
20, 64870, Note_off_c, 12, 64, 0
20, 64870, Note_off_c, 12, 68, 0
20, 64870, Note_off_c, 12, 71, 0
20, 64870, Note_off_c, 12, 76, 0
20, 64896, Note_on_c, 12, 56, 88
20, 64896, Note_on_c, 12, 63, 88
20, 64896, Note_on_c, 12, 64, 88
20, 64896, Note_on_c, 12, 68, 88
20, 64896, Note_on_c, 12, 71, 88
20, 64896, Note_on_c, 12, 76, 88
20, 64998, Note_off_c, 12, 56, 0
20, 64998, Note_off_c, 12, 63, 0
20, 64998, Note_off_c, 12, 64, 0
20, 64998, Note_off_c, 12, 68, 0
20, 64998, Note_off_c, 12, 71, 0
20, 64998, Note_off_c, 12, 76, 0
20, 65024, Note_on_c, 12, 56, 88
20, 65024, Note_on_c, 12, 63, 88
20, 65024, Note_on_c, 12, 64, 88
20, 65024, Note_on_c, 12, 68, 88
20, 65024, Note_on_c, 12, 71, 88
20, 65024, Note_on_c, 12, 76, 88
20, 65126, Note_off_c, 12, 56, 0
20, 65126, Note_off_c, 12, 63, 0
20, 65126, Note_off_c, 12, 64, 0
20, 65126, Note_off_c, 12, 68, 0
20, 65126, Note_off_c, 12, 71, 0
20, 65126, Note_off_c, 12, 76, 0
20, 65152, Note_on_c, 12, 56, 88
20, 65152, Note_on_c, 12, 63, 88
20, 65152, Note_on_c, 12, 64, 88
20, 65152, Note_on_c, 12, 68, 88
20, 65152, Note_on_c, 12, 71, 88
20, 65152, Note_on_c, 12, 76, 88
20, 65254, Note_off_c, 12, 56, 0
20, 65254, Note_off_c, 12, 63, 0
20, 65254, Note_off_c, 12, 64, 0
20, 65254, Note_off_c, 12, 68, 0
20, 65254, Note_off_c, 12, 71, 0
20, 65254, Note_off_c, 12, 76, 0
20, 65280, Note_on_c, 12, 56, 88
20, 65280, Note_on_c, 12, 63, 88
20, 65280, Note_on_c, 12, 64, 88
20, 65280, Note_on_c, 12, 68, 88
20, 65280, Note_on_c, 12, 71, 88
20, 65280, Note_on_c, 12, 76, 88
20, 65382, Note_off_c, 12, 56, 0
20, 65382, Note_off_c, 12, 63, 0
20, 65382, Note_off_c, 12, 64, 0
20, 65382, Note_off_c, 12, 68, 0
20, 65382, Note_off_c, 12, 71, 0
20, 65382, Note_off_c, 12, 76, 0
20, 65408, Note_on_c, 12, 56, 88
20, 65408, Note_on_c, 12, 63, 88
20, 65408, Note_on_c, 12, 64, 88
20, 65408, Note_on_c, 12, 68, 88
20, 65408, Note_on_c, 12, 71, 88
20, 65408, Note_on_c, 12, 76, 88
20, 65510, Note_off_c, 12, 56, 0
20, 65510, Note_off_c, 12, 63, 0
20, 65510, Note_off_c, 12, 64, 0
20, 65510, Note_off_c, 12, 68, 0
20, 65510, Note_off_c, 12, 71, 0
20, 65510, Note_off_c, 12, 76, 0
20, 65536, Note_on_c, 12, 56, 85
20, 65536, Note_on_c, 12, 63, 85
20, 65536, Note_on_c, 12, 64, 85
20, 65536, Note_on_c, 12, 68, 85
20, 65536, Note_on_c, 12, 71, 85
20, 65536, Note_on_c, 12, 76, 85
20, 65638, Note_off_c, 12, 56, 0
20, 65638, Note_off_c, 12, 63, 0
20, 65638, Note_off_c, 12, 64, 0
20, 65638, Note_off_c, 12, 68, 0
20, 65638, Note_off_c, 12, 71, 0
20, 65638, Note_off_c, 12, 76, 0
20, 65664, Note_on_c, 12, 56, 85
20, 65664, Note_on_c, 12, 63, 85
20, 65664, Note_on_c, 12, 64, 85
20, 65664, Note_on_c, 12, 68, 85
20, 65664, Note_on_c, 12, 71, 85
20, 65664, Note_on_c, 12, 76, 85
20, 65766, Note_off_c, 12, 56, 0
20, 65766, Note_off_c, 12, 63, 0
20, 65766, Note_off_c, 12, 64, 0
20, 65766, Note_off_c, 12, 68, 0
20, 65766, Note_off_c, 12, 71, 0
20, 65766, Note_off_c, 12, 76, 0
20, 65792, Note_on_c, 12, 56, 85
20, 65792, Note_on_c, 12, 63, 85
20, 65792, Note_on_c, 12, 64, 85
20, 65792, Note_on_c, 12, 68, 85
20, 65792, Note_on_c, 12, 71, 85
20, 65792, Note_on_c, 12, 76, 85
20, 65894, Note_off_c, 12, 56, 0
20, 65894, Note_off_c, 12, 63, 0
20, 65894, Note_off_c, 12, 64, 0
20, 65894, Note_off_c, 12, 68, 0
20, 65894, Note_off_c, 12, 71, 0
20, 65894, Note_off_c, 12, 76, 0
20, 65920, Note_on_c, 12, 56, 85
20, 65920, Note_on_c, 12, 63, 85
20, 65920, Note_on_c, 12, 64, 85
20, 65920, Note_on_c, 12, 68, 85
20, 65920, Note_on_c, 12, 71, 85
20, 65920, Note_on_c, 12, 76, 85
20, 66022, Note_off_c, 12, 56, 0
20, 66022, Note_off_c, 12, 63, 0
20, 66022, Note_off_c, 12, 64, 0
20, 66022, Note_off_c, 12, 68, 0
20, 66022, Note_off_c, 12, 71, 0
20, 66022, Note_off_c, 12, 76, 0
20, 66048, Note_on_c, 12, 56, 85
20, 66048, Note_on_c, 12, 63, 85
20, 66048, Note_on_c, 12, 64, 85
20, 66048, Note_on_c, 12, 68, 85
20, 66048, Note_on_c, 12, 71, 85
20, 66048, Note_on_c, 12, 76, 85
20, 66150, Note_off_c, 12, 56, 0
20, 66150, Note_off_c, 12, 63, 0
20, 66150, Note_off_c, 12, 64, 0
20, 66150, Note_off_c, 12, 68, 0
20, 66150, Note_off_c, 12, 71, 0
20, 66150, Note_off_c, 12, 76, 0
20, 66176, Note_on_c, 12, 56, 85
20, 66176, Note_on_c, 12, 63, 85
20, 66176, Note_on_c, 12, 64, 85
20, 66176, Note_on_c, 12, 68, 85
20, 66176, Note_on_c, 12, 71, 85
20, 66176, Note_on_c, 12, 76, 85
20, 66278, Note_off_c, 12, 56, 0
20, 66278, Note_off_c, 12, 63, 0
20, 66278, Note_off_c, 12, 64, 0
20, 66278, Note_off_c, 12, 68, 0
20, 66278, Note_off_c, 12, 71, 0
20, 66278, Note_off_c, 12, 76, 0
20, 66304, Note_on_c, 12, 56, 85
20, 66304, Note_on_c, 12, 63, 85
20, 66304, Note_on_c, 12, 64, 85
20, 66304, Note_on_c, 12, 68, 85
20, 66304, Note_on_c, 12, 71, 85
20, 66304, Note_on_c, 12, 76, 85
20, 66406, Note_off_c, 12, 56, 0
20, 66406, Note_off_c, 12, 63, 0
20, 66406, Note_off_c, 12, 64, 0
20, 66406, Note_off_c, 12, 68, 0
20, 66406, Note_off_c, 12, 71, 0
20, 66406, Note_off_c, 12, 76, 0
20, 66432, Note_on_c, 12, 56, 85
20, 66432, Note_on_c, 12, 63, 85
20, 66432, Note_on_c, 12, 64, 85
20, 66432, Note_on_c, 12, 68, 85
20, 66432, Note_on_c, 12, 71, 85
20, 66432, Note_on_c, 12, 76, 85
20, 66534, Note_off_c, 12, 56, 0
20, 66534, Note_off_c, 12, 63, 0
20, 66534, Note_off_c, 12, 64, 0
20, 66534, Note_off_c, 12, 68, 0
20, 66534, Note_off_c, 12, 71, 0
20, 66534, Note_off_c, 12, 76, 0
20, 66560, Note_on_c, 12, 56, 82
20, 66560, Note_on_c, 12, 63, 82
20, 66560, Note_on_c, 12, 64, 82
20, 66560, Note_on_c, 12, 68, 82
20, 66560, Note_on_c, 12, 71, 82
20, 66560, Note_on_c, 12, 76, 82
20, 66662, Note_off_c, 12, 56, 0
20, 66662, Note_off_c, 12, 63, 0
20, 66662, Note_off_c, 12, 64, 0
20, 66662, Note_off_c, 12, 68, 0
20, 66662, Note_off_c, 12, 71, 0
20, 66662, Note_off_c, 12, 76, 0
20, 66688, Note_on_c, 12, 56, 82
20, 66688, Note_on_c, 12, 63, 82
20, 66688, Note_on_c, 12, 64, 82
20, 66688, Note_on_c, 12, 68, 82
20, 66688, Note_on_c, 12, 71, 82
20, 66688, Note_on_c, 12, 76, 82
20, 66790, Note_off_c, 12, 56, 0
20, 66790, Note_off_c, 12, 63, 0
20, 66790, Note_off_c, 12, 64, 0
20, 66790, Note_off_c, 12, 68, 0
20, 66790, Note_off_c, 12, 71, 0
20, 66790, Note_off_c, 12, 76, 0
20, 66816, Note_on_c, 12, 56, 82
20, 66816, Note_on_c, 12, 63, 82
20, 66816, Note_on_c, 12, 64, 82
20, 66816, Note_on_c, 12, 68, 82
20, 66816, Note_on_c, 12, 71, 82
20, 66816, Note_on_c, 12, 76, 82
20, 66918, Note_off_c, 12, 56, 0
20, 66918, Note_off_c, 12, 63, 0
20, 66918, Note_off_c, 12, 64, 0
20, 66918, Note_off_c, 12, 68, 0
20, 66918, Note_off_c, 12, 71, 0
20, 66918, Note_off_c, 12, 76, 0
20, 66944, Note_on_c, 12, 56, 82
20, 66944, Note_on_c, 12, 63, 82
20, 66944, Note_on_c, 12, 64, 82
20, 66944, Note_on_c, 12, 68, 82
20, 66944, Note_on_c, 12, 71, 82
20, 66944, Note_on_c, 12, 76, 82
20, 67046, Note_off_c, 12, 56, 0
20, 67046, Note_off_c, 12, 63, 0
20, 67046, Note_off_c, 12, 64, 0
20, 67046, Note_off_c, 12, 68, 0
20, 67046, Note_off_c, 12, 71, 0
20, 67046, Note_off_c, 12, 76, 0
20, 67072, Note_on_c, 12, 56, 83
20, 67072, Note_on_c, 12, 63, 83
20, 67072, Note_on_c, 12, 64, 83
20, 67072, Note_on_c, 12, 68, 83
20, 67072, Note_on_c, 12, 71, 83
20, 67072, Note_on_c, 12, 76, 83
20, 67200, Note_off_c, 12, 56, 0
20, 67200, Note_off_c, 12, 63, 0
20, 67200, Note_off_c, 12, 64, 0
20, 67200, Note_off_c, 12, 68, 0
20, 67200, Note_off_c, 12, 71, 0
20, 67200, Note_off_c, 12, 76, 0
20, 67200, Note_on_c, 12, 60, 91
20, 67200, Note_on_c, 12, 66, 91
20, 67200, Note_on_c, 12, 67, 91
20, 67200, Note_on_c, 12, 72, 91
20, 67200, Note_on_c, 12, 76, 91
20, 67200, Note_on_c, 12, 79, 91
20, 67302, Note_off_c, 12, 60, 0
20, 67302, Note_off_c, 12, 66, 0
20, 67302, Note_off_c, 12, 67, 0
20, 67302, Note_off_c, 12, 72, 0
20, 67302, Note_off_c, 12, 76, 0
20, 67302, Note_off_c, 12, 79, 0
20, 67328, Note_on_c, 12, 60, 91
20, 67328, Note_on_c, 12, 66, 91
20, 67328, Note_on_c, 12, 67, 91
20, 67328, Note_on_c, 12, 72, 91
20, 67328, Note_on_c, 12, 76, 91
20, 67328, Note_on_c, 12, 79, 91
20, 67430, Note_off_c, 12, 60, 0
20, 67430, Note_off_c, 12, 66, 0
20, 67430, Note_off_c, 12, 67, 0
20, 67430, Note_off_c, 12, 72, 0
20, 67430, Note_off_c, 12, 76, 0
20, 67430, Note_off_c, 12, 79, 0
20, 67456, Note_on_c, 12, 60, 91
20, 67456, Note_on_c, 12, 66, 91
20, 67456, Note_on_c, 12, 67, 91
20, 67456, Note_on_c, 12, 72, 91
20, 67456, Note_on_c, 12, 76, 91
20, 67456, Note_on_c, 12, 79, 91
20, 67558, Note_off_c, 12, 60, 0
20, 67558, Note_off_c, 12, 66, 0
20, 67558, Note_off_c, 12, 67, 0
20, 67558, Note_off_c, 12, 72, 0
20, 67558, Note_off_c, 12, 76, 0
20, 67558, Note_off_c, 12, 79, 0
20, 67584, Note_on_c, 12, 60, 85
20, 67584, Note_on_c, 12, 66, 85
20, 67584, Note_on_c, 12, 67, 85
20, 67584, Note_on_c, 12, 72, 85
20, 67584, Note_on_c, 12, 76, 85
20, 67584, Note_on_c, 12, 79, 85
20, 67686, Note_off_c, 12, 60, 0
20, 67686, Note_off_c, 12, 66, 0
20, 67686, Note_off_c, 12, 67, 0
20, 67686, Note_off_c, 12, 72, 0
20, 67686, Note_off_c, 12, 76, 0
20, 67686, Note_off_c, 12, 79, 0
20, 67712, Note_on_c, 12, 60, 85
20, 67712, Note_on_c, 12, 66, 85
20, 67712, Note_on_c, 12, 67, 85
20, 67712, Note_on_c, 12, 72, 85
20, 67712, Note_on_c, 12, 76, 85
20, 67712, Note_on_c, 12, 79, 85
20, 67814, Note_off_c, 12, 60, 0
20, 67814, Note_off_c, 12, 66, 0
20, 67814, Note_off_c, 12, 67, 0
20, 67814, Note_off_c, 12, 72, 0
20, 67814, Note_off_c, 12, 76, 0
20, 67814, Note_off_c, 12, 79, 0
20, 67840, Note_on_c, 12, 60, 85
20, 67840, Note_on_c, 12, 66, 85
20, 67840, Note_on_c, 12, 67, 85
20, 67840, Note_on_c, 12, 72, 85
20, 67840, Note_on_c, 12, 76, 85
20, 67840, Note_on_c, 12, 79, 85
20, 67942, Note_off_c, 12, 60, 0
20, 67942, Note_off_c, 12, 66, 0
20, 67942, Note_off_c, 12, 67, 0
20, 67942, Note_off_c, 12, 72, 0
20, 67942, Note_off_c, 12, 76, 0
20, 67942, Note_off_c, 12, 79, 0
20, 67968, Note_on_c, 12, 60, 85
20, 67968, Note_on_c, 12, 66, 85
20, 67968, Note_on_c, 12, 67, 85
20, 67968, Note_on_c, 12, 72, 85
20, 67968, Note_on_c, 12, 76, 85
20, 67968, Note_on_c, 12, 79, 85
20, 68070, Note_off_c, 12, 60, 0
20, 68070, Note_off_c, 12, 66, 0
20, 68070, Note_off_c, 12, 67, 0
20, 68070, Note_off_c, 12, 72, 0
20, 68070, Note_off_c, 12, 76, 0
20, 68070, Note_off_c, 12, 79, 0
20, 68096, Note_on_c, 12, 60, 85
20, 68096, Note_on_c, 12, 66, 85
20, 68096, Note_on_c, 12, 67, 85
20, 68096, Note_on_c, 12, 72, 85
20, 68096, Note_on_c, 12, 76, 85
20, 68096, Note_on_c, 12, 79, 85
20, 68198, Note_off_c, 12, 60, 0
20, 68198, Note_off_c, 12, 66, 0
20, 68198, Note_off_c, 12, 67, 0
20, 68198, Note_off_c, 12, 72, 0
20, 68198, Note_off_c, 12, 76, 0
20, 68198, Note_off_c, 12, 79, 0
20, 68224, Note_on_c, 12, 60, 85
20, 68224, Note_on_c, 12, 66, 85
20, 68224, Note_on_c, 12, 67, 85
20, 68224, Note_on_c, 12, 72, 85
20, 68224, Note_on_c, 12, 76, 85
20, 68224, Note_on_c, 12, 79, 85
20, 68326, Note_off_c, 12, 60, 0
20, 68326, Note_off_c, 12, 66, 0
20, 68326, Note_off_c, 12, 67, 0
20, 68326, Note_off_c, 12, 72, 0
20, 68326, Note_off_c, 12, 76, 0
20, 68326, Note_off_c, 12, 79, 0
20, 68352, Note_on_c, 12, 60, 85
20, 68352, Note_on_c, 12, 66, 85
20, 68352, Note_on_c, 12, 67, 85
20, 68352, Note_on_c, 12, 72, 85
20, 68352, Note_on_c, 12, 76, 85
20, 68352, Note_on_c, 12, 79, 85
20, 68454, Note_off_c, 12, 60, 0
20, 68454, Note_off_c, 12, 66, 0
20, 68454, Note_off_c, 12, 67, 0
20, 68454, Note_off_c, 12, 72, 0
20, 68454, Note_off_c, 12, 76, 0
20, 68454, Note_off_c, 12, 79, 0
20, 68480, Note_on_c, 12, 60, 85
20, 68480, Note_on_c, 12, 66, 85
20, 68480, Note_on_c, 12, 67, 85
20, 68480, Note_on_c, 12, 72, 85
20, 68480, Note_on_c, 12, 76, 85
20, 68480, Note_on_c, 12, 79, 85
20, 68582, Note_off_c, 12, 60, 0
20, 68582, Note_off_c, 12, 66, 0
20, 68582, Note_off_c, 12, 67, 0
20, 68582, Note_off_c, 12, 72, 0
20, 68582, Note_off_c, 12, 76, 0
20, 68582, Note_off_c, 12, 79, 0
20, 68608, Note_on_c, 12, 60, 85
20, 68608, Note_on_c, 12, 66, 85
20, 68608, Note_on_c, 12, 67, 85
20, 68608, Note_on_c, 12, 72, 85
20, 68608, Note_on_c, 12, 76, 85
20, 68608, Note_on_c, 12, 79, 85
20, 68710, Note_off_c, 12, 60, 0
20, 68710, Note_off_c, 12, 66, 0
20, 68710, Note_off_c, 12, 67, 0
20, 68710, Note_off_c, 12, 72, 0
20, 68710, Note_off_c, 12, 76, 0
20, 68710, Note_off_c, 12, 79, 0
20, 68736, Note_on_c, 12, 60, 85
20, 68736, Note_on_c, 12, 66, 85
20, 68736, Note_on_c, 12, 67, 85
20, 68736, Note_on_c, 12, 72, 85
20, 68736, Note_on_c, 12, 76, 85
20, 68736, Note_on_c, 12, 79, 85
20, 68838, Note_off_c, 12, 60, 0
20, 68838, Note_off_c, 12, 66, 0
20, 68838, Note_off_c, 12, 67, 0
20, 68838, Note_off_c, 12, 72, 0
20, 68838, Note_off_c, 12, 76, 0
20, 68838, Note_off_c, 12, 79, 0
20, 68864, Note_on_c, 12, 60, 85
20, 68864, Note_on_c, 12, 66, 85
20, 68864, Note_on_c, 12, 67, 85
20, 68864, Note_on_c, 12, 72, 85
20, 68864, Note_on_c, 12, 76, 85
20, 68864, Note_on_c, 12, 79, 85
20, 68966, Note_off_c, 12, 60, 0
20, 68966, Note_off_c, 12, 66, 0
20, 68966, Note_off_c, 12, 67, 0
20, 68966, Note_off_c, 12, 72, 0
20, 68966, Note_off_c, 12, 76, 0
20, 68966, Note_off_c, 12, 79, 0
20, 68992, Note_on_c, 12, 60, 85
20, 68992, Note_on_c, 12, 66, 85
20, 68992, Note_on_c, 12, 67, 85
20, 68992, Note_on_c, 12, 72, 85
20, 68992, Note_on_c, 12, 76, 85
20, 68992, Note_on_c, 12, 79, 85
20, 69094, Note_off_c, 12, 60, 0
20, 69094, Note_off_c, 12, 66, 0
20, 69094, Note_off_c, 12, 67, 0
20, 69094, Note_off_c, 12, 72, 0
20, 69094, Note_off_c, 12, 76, 0
20, 69094, Note_off_c, 12, 79, 0
20, 69120, Note_on_c, 12, 60, 85
20, 69120, Note_on_c, 12, 66, 85
20, 69120, Note_on_c, 12, 67, 85
20, 69120, Note_on_c, 12, 72, 85
20, 69120, Note_on_c, 12, 76, 85
20, 69120, Note_on_c, 12, 79, 85
20, 69222, Note_off_c, 12, 60, 0
20, 69222, Note_off_c, 12, 66, 0
20, 69222, Note_off_c, 12, 67, 0
20, 69222, Note_off_c, 12, 72, 0
20, 69222, Note_off_c, 12, 76, 0
20, 69222, Note_off_c, 12, 79, 0
20, 69248, Note_on_c, 12, 60, 85
20, 69248, Note_on_c, 12, 66, 85
20, 69248, Note_on_c, 12, 67, 85
20, 69248, Note_on_c, 12, 72, 85
20, 69248, Note_on_c, 12, 76, 85
20, 69248, Note_on_c, 12, 79, 85
20, 69350, Note_off_c, 12, 60, 0
20, 69350, Note_off_c, 12, 66, 0
20, 69350, Note_off_c, 12, 67, 0
20, 69350, Note_off_c, 12, 72, 0
20, 69350, Note_off_c, 12, 76, 0
20, 69350, Note_off_c, 12, 79, 0
20, 69376, Note_on_c, 12, 60, 85
20, 69376, Note_on_c, 12, 66, 85
20, 69376, Note_on_c, 12, 67, 85
20, 69376, Note_on_c, 12, 72, 85
20, 69376, Note_on_c, 12, 76, 85
20, 69376, Note_on_c, 12, 79, 85
20, 69478, Note_off_c, 12, 60, 0
20, 69478, Note_off_c, 12, 66, 0
20, 69478, Note_off_c, 12, 67, 0
20, 69478, Note_off_c, 12, 72, 0
20, 69478, Note_off_c, 12, 76, 0
20, 69478, Note_off_c, 12, 79, 0
20, 69504, Note_on_c, 12, 60, 85
20, 69504, Note_on_c, 12, 66, 85
20, 69504, Note_on_c, 12, 67, 85
20, 69504, Note_on_c, 12, 72, 85
20, 69504, Note_on_c, 12, 76, 85
20, 69504, Note_on_c, 12, 79, 85
20, 69606, Note_off_c, 12, 60, 0
20, 69606, Note_off_c, 12, 66, 0
20, 69606, Note_off_c, 12, 67, 0
20, 69606, Note_off_c, 12, 72, 0
20, 69606, Note_off_c, 12, 76, 0
20, 69606, Note_off_c, 12, 79, 0
20, 69632, Note_on_c, 12, 60, 87
20, 69632, Note_on_c, 12, 66, 87
20, 69632, Note_on_c, 12, 67, 87
20, 69632, Note_on_c, 12, 72, 87
20, 69632, Note_on_c, 12, 76, 87
20, 69632, Note_on_c, 12, 79, 87
20, 69734, Note_off_c, 12, 60, 0
20, 69734, Note_off_c, 12, 66, 0
20, 69734, Note_off_c, 12, 67, 0
20, 69734, Note_off_c, 12, 72, 0
20, 69734, Note_off_c, 12, 76, 0
20, 69734, Note_off_c, 12, 79, 0
20, 69760, Note_on_c, 12, 60, 87
20, 69760, Note_on_c, 12, 66, 87
20, 69760, Note_on_c, 12, 67, 87
20, 69760, Note_on_c, 12, 72, 87
20, 69760, Note_on_c, 12, 76, 87
20, 69760, Note_on_c, 12, 79, 87
20, 69862, Note_off_c, 12, 60, 0
20, 69862, Note_off_c, 12, 66, 0
20, 69862, Note_off_c, 12, 67, 0
20, 69862, Note_off_c, 12, 72, 0
20, 69862, Note_off_c, 12, 76, 0
20, 69862, Note_off_c, 12, 79, 0
20, 69888, Note_on_c, 12, 60, 87
20, 69888, Note_on_c, 12, 66, 87
20, 69888, Note_on_c, 12, 67, 87
20, 69888, Note_on_c, 12, 72, 87
20, 69888, Note_on_c, 12, 76, 87
20, 69888, Note_on_c, 12, 79, 87
20, 69990, Note_off_c, 12, 60, 0
20, 69990, Note_off_c, 12, 66, 0
20, 69990, Note_off_c, 12, 67, 0
20, 69990, Note_off_c, 12, 72, 0
20, 69990, Note_off_c, 12, 76, 0
20, 69990, Note_off_c, 12, 79, 0
20, 70016, Note_on_c, 12, 61, 102
20, 70016, Note_on_c, 12, 65, 102
20, 70016, Note_on_c, 12, 68, 102
20, 70016, Note_on_c, 12, 71, 102
20, 70016, Note_on_c, 12, 75, 102
20, 70016, Note_on_c, 12, 82, 102
20, 70118, Note_off_c, 12, 61, 0
20, 70118, Note_off_c, 12, 65, 0
20, 70118, Note_off_c, 12, 68, 0
20, 70118, Note_off_c, 12, 71, 0
20, 70118, Note_off_c, 12, 75, 0
20, 70118, Note_off_c, 12, 82, 0
20, 70144, Note_on_c, 12, 61, 102
20, 70144, Note_on_c, 12, 65, 102
20, 70144, Note_on_c, 12, 68, 102
20, 70144, Note_on_c, 12, 71, 102
20, 70144, Note_on_c, 12, 75, 102
20, 70144, Note_on_c, 12, 82, 102
20, 70246, Note_off_c, 12, 61, 0
20, 70246, Note_off_c, 12, 65, 0
20, 70246, Note_off_c, 12, 68, 0
20, 70246, Note_off_c, 12, 71, 0
20, 70246, Note_off_c, 12, 75, 0
20, 70246, Note_off_c, 12, 82, 0
20, 70272, Note_on_c, 12, 61, 102
20, 70272, Note_on_c, 12, 65, 102
20, 70272, Note_on_c, 12, 68, 102
20, 70272, Note_on_c, 12, 71, 102
20, 70272, Note_on_c, 12, 75, 102
20, 70272, Note_on_c, 12, 82, 102
20, 70374, Note_off_c, 12, 61, 0
20, 70374, Note_off_c, 12, 65, 0
20, 70374, Note_off_c, 12, 68, 0
20, 70374, Note_off_c, 12, 71, 0
20, 70374, Note_off_c, 12, 75, 0
20, 70374, Note_off_c, 12, 82, 0
20, 70400, Note_on_c, 12, 61, 100
20, 70400, Note_on_c, 12, 65, 100
20, 70400, Note_on_c, 12, 68, 100
20, 70400, Note_on_c, 12, 71, 100
20, 70400, Note_on_c, 12, 75, 100
20, 70400, Note_on_c, 12, 82, 100
20, 70502, Note_off_c, 12, 61, 0
20, 70502, Note_off_c, 12, 65, 0
20, 70502, Note_off_c, 12, 68, 0
20, 70502, Note_off_c, 12, 71, 0
20, 70502, Note_off_c, 12, 75, 0
20, 70502, Note_off_c, 12, 82, 0
20, 70528, Note_on_c, 12, 61, 100
20, 70528, Note_on_c, 12, 65, 100
20, 70528, Note_on_c, 12, 68, 100
20, 70528, Note_on_c, 12, 71, 100
20, 70528, Note_on_c, 12, 75, 100
20, 70528, Note_on_c, 12, 82, 100
20, 70630, Note_off_c, 12, 61, 0
20, 70630, Note_off_c, 12, 65, 0
20, 70630, Note_off_c, 12, 68, 0
20, 70630, Note_off_c, 12, 71, 0
20, 70630, Note_off_c, 12, 75, 0
20, 70630, Note_off_c, 12, 82, 0
20, 70656, Note_on_c, 12, 61, 94
20, 70656, Note_on_c, 12, 65, 94
20, 70656, Note_on_c, 12, 67, 94
20, 70656, Note_on_c, 12, 71, 94
20, 70656, Note_on_c, 12, 74, 94
20, 70656, Note_on_c, 12, 81, 94
20, 70758, Note_off_c, 12, 61, 0
20, 70758, Note_off_c, 12, 65, 0
20, 70758, Note_off_c, 12, 67, 0
20, 70758, Note_off_c, 12, 71, 0
20, 70758, Note_off_c, 12, 74, 0
20, 70758, Note_off_c, 12, 81, 0
20, 70784, Note_on_c, 12, 61, 94
20, 70784, Note_on_c, 12, 65, 94
20, 70784, Note_on_c, 12, 67, 94
20, 70784, Note_on_c, 12, 71, 94
20, 70784, Note_on_c, 12, 74, 94
20, 70784, Note_on_c, 12, 81, 94
20, 70886, Note_off_c, 12, 61, 0
20, 70886, Note_off_c, 12, 65, 0
20, 70886, Note_off_c, 12, 67, 0
20, 70886, Note_off_c, 12, 71, 0
20, 70886, Note_off_c, 12, 74, 0
20, 70886, Note_off_c, 12, 81, 0
20, 70912, Note_on_c, 12, 61, 94
20, 70912, Note_on_c, 12, 65, 94
20, 70912, Note_on_c, 12, 67, 94
20, 70912, Note_on_c, 12, 71, 94
20, 70912, Note_on_c, 12, 74, 94
20, 70912, Note_on_c, 12, 81, 94
20, 71014, Note_off_c, 12, 61, 0
20, 71014, Note_off_c, 12, 65, 0
20, 71014, Note_off_c, 12, 67, 0
20, 71014, Note_off_c, 12, 71, 0
20, 71014, Note_off_c, 12, 74, 0
20, 71014, Note_off_c, 12, 81, 0
20, 71040, Note_on_c, 12, 61, 94
20, 71040, Note_on_c, 12, 65, 94
20, 71040, Note_on_c, 12, 67, 94
20, 71040, Note_on_c, 12, 71, 94
20, 71040, Note_on_c, 12, 74, 94
20, 71040, Note_on_c, 12, 81, 94
20, 71142, Note_off_c, 12, 61, 0
20, 71142, Note_off_c, 12, 65, 0
20, 71142, Note_off_c, 12, 67, 0
20, 71142, Note_off_c, 12, 71, 0
20, 71142, Note_off_c, 12, 74, 0
20, 71142, Note_off_c, 12, 81, 0
20, 71168, Note_on_c, 12, 61, 104
20, 71168, Note_on_c, 12, 65, 104
20, 71168, Note_on_c, 12, 68, 104
20, 71168, Note_on_c, 12, 71, 104
20, 71168, Note_on_c, 12, 75, 104
20, 71168, Note_on_c, 12, 82, 104
20, 71270, Note_off_c, 12, 61, 0
20, 71270, Note_off_c, 12, 65, 0
20, 71270, Note_off_c, 12, 68, 0
20, 71270, Note_off_c, 12, 71, 0
20, 71270, Note_off_c, 12, 75, 0
20, 71270, Note_off_c, 12, 82, 0
20, 71296, Note_on_c, 12, 61, 104
20, 71296, Note_on_c, 12, 65, 104
20, 71296, Note_on_c, 12, 68, 104
20, 71296, Note_on_c, 12, 71, 104
20, 71296, Note_on_c, 12, 75, 104
20, 71296, Note_on_c, 12, 82, 104
20, 71398, Note_off_c, 12, 61, 0
20, 71398, Note_off_c, 12, 65, 0
20, 71398, Note_off_c, 12, 68, 0
20, 71398, Note_off_c, 12, 71, 0
20, 71398, Note_off_c, 12, 75, 0
20, 71398, Note_off_c, 12, 82, 0
20, 71424, Note_on_c, 12, 61, 104
20, 71424, Note_on_c, 12, 65, 104
20, 71424, Note_on_c, 12, 68, 104
20, 71424, Note_on_c, 12, 71, 104
20, 71424, Note_on_c, 12, 75, 104
20, 71424, Note_on_c, 12, 82, 104
20, 71526, Note_off_c, 12, 61, 0
20, 71526, Note_off_c, 12, 65, 0
20, 71526, Note_off_c, 12, 68, 0
20, 71526, Note_off_c, 12, 71, 0
20, 71526, Note_off_c, 12, 75, 0
20, 71526, Note_off_c, 12, 82, 0
20, 71552, Note_on_c, 12, 62, 101
20, 71552, Note_on_c, 12, 66, 101
20, 71552, Note_on_c, 12, 69, 101
20, 71552, Note_on_c, 12, 72, 101
20, 71552, Note_on_c, 12, 76, 101
20, 71552, Note_on_c, 12, 82, 101
20, 71680, Note_off_c, 12, 62, 0
20, 71680, Note_off_c, 12, 66, 0
20, 71680, Note_off_c, 12, 69, 0
20, 71680, Note_off_c, 12, 72, 0
20, 71680, Note_off_c, 12, 76, 0
20, 71680, Note_off_c, 12, 82, 0
20, 71680, Note_on_c, 12, 62, 99
20, 71680, Note_on_c, 12, 66, 99
20, 71680, Note_on_c, 12, 69, 99
20, 71680, Note_on_c, 12, 72, 99
20, 71680, Note_on_c, 12, 76, 99
20, 71680, Note_on_c, 12, 82, 99
20, 71808, Note_off_c, 12, 62, 0
20, 71808, Note_off_c, 12, 66, 0
20, 71808, Note_off_c, 12, 69, 0
20, 71808, Note_off_c, 12, 72, 0
20, 71808, Note_off_c, 12, 76, 0
20, 71808, Note_off_c, 12, 82, 0
20, 71808, Note_on_c, 12, 63, 103
20, 71808, Note_on_c, 12, 66, 103
20, 71808, Note_on_c, 12, 69, 103
20, 71808, Note_on_c, 12, 72, 103
20, 71808, Note_on_c, 12, 77, 103
20, 71808, Note_on_c, 12, 83, 103
20, 71910, Note_off_c, 12, 63, 0
20, 71910, Note_off_c, 12, 66, 0
20, 71910, Note_off_c, 12, 69, 0
20, 71910, Note_off_c, 12, 72, 0
20, 71910, Note_off_c, 12, 77, 0
20, 71910, Note_off_c, 12, 83, 0
20, 71936, Note_on_c, 12, 63, 103
20, 71936, Note_on_c, 12, 66, 103
20, 71936, Note_on_c, 12, 69, 103
20, 71936, Note_on_c, 12, 72, 103
20, 71936, Note_on_c, 12, 77, 103
20, 71936, Note_on_c, 12, 83, 103
20, 72038, Note_off_c, 12, 63, 0
20, 72038, Note_off_c, 12, 66, 0
20, 72038, Note_off_c, 12, 69, 0
20, 72038, Note_off_c, 12, 72, 0
20, 72038, Note_off_c, 12, 77, 0
20, 72038, Note_off_c, 12, 83, 0
20, 72064, Note_on_c, 12, 63, 103
20, 72064, Note_on_c, 12, 66, 103
20, 72064, Note_on_c, 12, 69, 103
20, 72064, Note_on_c, 12, 72, 103
20, 72064, Note_on_c, 12, 77, 103
20, 72064, Note_on_c, 12, 83, 103
20, 72166, Note_off_c, 12, 63, 0
20, 72166, Note_off_c, 12, 66, 0
20, 72166, Note_off_c, 12, 69, 0
20, 72166, Note_off_c, 12, 72, 0
20, 72166, Note_off_c, 12, 77, 0
20, 72166, Note_off_c, 12, 83, 0
20, 72192, Note_on_c, 12, 66, 113
20, 72192, Note_on_c, 12, 69, 113
20, 72192, Note_on_c, 12, 72, 113
20, 72192, Note_on_c, 12, 75, 113
20, 72192, Note_on_c, 12, 80, 113
20, 72192, Note_on_c, 12, 86, 113
20, 72294, Note_off_c, 12, 66, 0
20, 72294, Note_off_c, 12, 69, 0
20, 72294, Note_off_c, 12, 72, 0
20, 72294, Note_off_c, 12, 75, 0
20, 72294, Note_off_c, 12, 80, 0
20, 72294, Note_off_c, 12, 86, 0
20, 72320, Note_on_c, 12, 66, 113
20, 72320, Note_on_c, 12, 69, 113
20, 72320, Note_on_c, 12, 72, 113
20, 72320, Note_on_c, 12, 75, 113
20, 72320, Note_on_c, 12, 80, 113
20, 72320, Note_on_c, 12, 86, 113
20, 72422, Note_off_c, 12, 66, 0
20, 72422, Note_off_c, 12, 69, 0
20, 72422, Note_off_c, 12, 72, 0
20, 72422, Note_off_c, 12, 75, 0
20, 72422, Note_off_c, 12, 80, 0
20, 72422, Note_off_c, 12, 86, 0
20, 72448, Note_on_c, 12, 65, 96
20, 72448, Note_on_c, 12, 68, 96
20, 72448, Note_on_c, 12, 72, 96
20, 72448, Note_on_c, 12, 74, 96
20, 72448, Note_on_c, 12, 79, 96
20, 72448, Note_on_c, 12, 86, 96
20, 72550, Note_off_c, 12, 65, 0
20, 72550, Note_off_c, 12, 68, 0
20, 72550, Note_off_c, 12, 72, 0
20, 72550, Note_off_c, 12, 74, 0
20, 72550, Note_off_c, 12, 79, 0
20, 72550, Note_off_c, 12, 86, 0
20, 72576, Note_on_c, 12, 65, 96
20, 72576, Note_on_c, 12, 68, 96
20, 72576, Note_on_c, 12, 72, 96
20, 72576, Note_on_c, 12, 74, 96
20, 72576, Note_on_c, 12, 79, 96
20, 72576, Note_on_c, 12, 86, 96
20, 72678, Note_off_c, 12, 65, 0
20, 72678, Note_off_c, 12, 68, 0
20, 72678, Note_off_c, 12, 72, 0
20, 72678, Note_off_c, 12, 74, 0
20, 72678, Note_off_c, 12, 79, 0
20, 72678, Note_off_c, 12, 86, 0
20, 72704, Note_on_c, 12, 62, 90
20, 72704, Note_on_c, 12, 65, 90
20, 72704, Note_on_c, 12, 69, 90
20, 72704, Note_on_c, 12, 71, 90
20, 72704, Note_on_c, 12, 76, 90
20, 72704, Note_on_c, 12, 83, 90
20, 72832, Note_off_c, 12, 62, 0
20, 72832, Note_off_c, 12, 65, 0
20, 72832, Note_off_c, 12, 69, 0
20, 72832, Note_off_c, 12, 71, 0
20, 72832, Note_off_c, 12, 76, 0
20, 72832, Note_off_c, 12, 83, 0
20, 72832, Note_on_c, 12, 60, 79
20, 72832, Note_on_c, 12, 62, 79
20, 72832, Note_on_c, 12, 66, 79
20, 72832, Note_on_c, 12, 68, 79
20, 72832, Note_on_c, 12, 72, 79
20, 72832, Note_on_c, 12, 76, 79
20, 72934, Note_off_c, 12, 60, 0
20, 72934, Note_off_c, 12, 62, 0
20, 72934, Note_off_c, 12, 66, 0
20, 72934, Note_off_c, 12, 68, 0
20, 72934, Note_off_c, 12, 72, 0
20, 72934, Note_off_c, 12, 76, 0
20, 72960, Note_on_c, 12, 60, 79
20, 72960, Note_on_c, 12, 62, 79
20, 72960, Note_on_c, 12, 66, 79
20, 72960, Note_on_c, 12, 68, 79
20, 72960, Note_on_c, 12, 72, 79
20, 72960, Note_on_c, 12, 76, 79
20, 73062, Note_off_c, 12, 60, 0
20, 73062, Note_off_c, 12, 62, 0
20, 73062, Note_off_c, 12, 66, 0
20, 73062, Note_off_c, 12, 68, 0
20, 73062, Note_off_c, 12, 72, 0
20, 73062, Note_off_c, 12, 76, 0
20, 73088, Note_on_c, 12, 60, 79
20, 73088, Note_on_c, 12, 62, 79
20, 73088, Note_on_c, 12, 66, 79
20, 73088, Note_on_c, 12, 68, 79
20, 73088, Note_on_c, 12, 72, 79
20, 73088, Note_on_c, 12, 76, 79
20, 73190, Note_off_c, 12, 60, 0
20, 73190, Note_off_c, 12, 62, 0
20, 73190, Note_off_c, 12, 66, 0
20, 73190, Note_off_c, 12, 68, 0
20, 73190, Note_off_c, 12, 72, 0
20, 73190, Note_off_c, 12, 76, 0
20, 73216, Note_on_c, 12, 60, 104
20, 73216, Note_on_c, 12, 62, 104
20, 73216, Note_on_c, 12, 67, 104
20, 73216, Note_on_c, 12, 74, 104
20, 73216, Note_on_c, 12, 77, 104
20, 73318, Note_off_c, 12, 60, 0
20, 73318, Note_off_c, 12, 62, 0
20, 73318, Note_off_c, 12, 67, 0
20, 73318, Note_off_c, 12, 74, 0
20, 73318, Note_off_c, 12, 77, 0
20, 73344, Note_on_c, 12, 60, 104
20, 73344, Note_on_c, 12, 62, 104
20, 73344, Note_on_c, 12, 67, 104
20, 73344, Note_on_c, 12, 74, 104
20, 73344, Note_on_c, 12, 77, 104
20, 73446, Note_off_c, 12, 60, 0
20, 73446, Note_off_c, 12, 62, 0
20, 73446, Note_off_c, 12, 67, 0
20, 73446, Note_off_c, 12, 74, 0
20, 73446, Note_off_c, 12, 77, 0
20, 73472, Note_on_c, 12, 60, 101
20, 73472, Note_on_c, 12, 62, 101
20, 73472, Note_on_c, 12, 68, 101
20, 73472, Note_on_c, 12, 76, 101
20, 73472, Note_on_c, 12, 79, 101
20, 73574, Note_off_c, 12, 60, 0
20, 73574, Note_off_c, 12, 62, 0
20, 73574, Note_off_c, 12, 68, 0
20, 73574, Note_off_c, 12, 76, 0
20, 73574, Note_off_c, 12, 79, 0
20, 73600, Note_on_c, 12, 60, 101
20, 73600, Note_on_c, 12, 62, 101
20, 73600, Note_on_c, 12, 68, 101
20, 73600, Note_on_c, 12, 76, 101
20, 73600, Note_on_c, 12, 79, 101
20, 73702, Note_off_c, 12, 60, 0
20, 73702, Note_off_c, 12, 62, 0
20, 73702, Note_off_c, 12, 68, 0
20, 73702, Note_off_c, 12, 76, 0
20, 73702, Note_off_c, 12, 79, 0
20, 73728, Note_on_c, 12, 61, 104
20, 73728, Note_on_c, 12, 63, 104
20, 73728, Note_on_c, 12, 67, 104
20, 73728, Note_on_c, 12, 69, 104
20, 73728, Note_on_c, 12, 77, 104
20, 73728, Note_on_c, 12, 80, 104
20, 73830, Note_off_c, 12, 61, 0
20, 73830, Note_off_c, 12, 63, 0
20, 73830, Note_off_c, 12, 67, 0
20, 73830, Note_off_c, 12, 69, 0
20, 73830, Note_off_c, 12, 77, 0
20, 73830, Note_off_c, 12, 80, 0
20, 73856, Note_on_c, 12, 61, 104
20, 73856, Note_on_c, 12, 63, 104
20, 73856, Note_on_c, 12, 67, 104
20, 73856, Note_on_c, 12, 69, 104
20, 73856, Note_on_c, 12, 77, 104
20, 73856, Note_on_c, 12, 80, 104
20, 73958, Note_off_c, 12, 61, 0
20, 73958, Note_off_c, 12, 63, 0
20, 73958, Note_off_c, 12, 67, 0
20, 73958, Note_off_c, 12, 69, 0
20, 73958, Note_off_c, 12, 77, 0
20, 73958, Note_off_c, 12, 80, 0
20, 73984, Note_on_c, 12, 60, 103
20, 73984, Note_on_c, 12, 66, 103
20, 73984, Note_on_c, 12, 69, 103
20, 73984, Note_on_c, 12, 80, 103
20, 73984, Note_on_c, 12, 83, 103
20, 74112, Note_off_c, 12, 60, 0
20, 74112, Note_off_c, 12, 66, 0
20, 74112, Note_off_c, 12, 69, 0
20, 74112, Note_off_c, 12, 80, 0
20, 74112, Note_off_c, 12, 83, 0
20, 74112, Note_on_c, 12, 58, 79
20, 74112, Note_on_c, 12, 64, 79
20, 74112, Note_on_c, 12, 67, 79
20, 74112, Note_on_c, 12, 72, 79
20, 74240, Note_off_c, 12, 58, 0
20, 74240, Note_off_c, 12, 64, 0
20, 74240, Note_off_c, 12, 67, 0
20, 74240, Note_off_c, 12, 72, 0
20, 74240, Note_on_c, 12, 58, 88
20, 74240, Note_on_c, 12, 60, 88
20, 74240, Note_on_c, 12, 64, 88
20, 74240, Note_on_c, 12, 67, 88
20, 74240, Note_on_c, 12, 72, 88
20, 74368, Note_off_c, 12, 58, 0
20, 74368, Note_off_c, 12, 60, 0
20, 74368, Note_off_c, 12, 64, 0
20, 74368, Note_off_c, 12, 67, 0
20, 74368, Note_off_c, 12, 72, 0
20, 74368, Note_on_c, 12, 59, 103
20, 74368, Note_on_c, 12, 65, 103
20, 74368, Note_on_c, 12, 68, 103
20, 74368, Note_on_c, 12, 70, 103
20, 74368, Note_on_c, 12, 73, 103
20, 74496, Note_off_c, 12, 59, 0
20, 74496, Note_off_c, 12, 65, 0
20, 74496, Note_off_c, 12, 68, 0
20, 74496, Note_off_c, 12, 70, 0
20, 74496, Note_off_c, 12, 73, 0
20, 74496, Note_on_c, 12, 59, 108
20, 74496, Note_on_c, 12, 61, 108
20, 74496, Note_on_c, 12, 65, 108
20, 74496, Note_on_c, 12, 68, 108
20, 74496, Note_on_c, 12, 73, 108
20, 74496, Note_on_c, 12, 75, 108
20, 74598, Note_off_c, 12, 59, 0
20, 74598, Note_off_c, 12, 61, 0
20, 74598, Note_off_c, 12, 65, 0
20, 74598, Note_off_c, 12, 68, 0
20, 74598, Note_off_c, 12, 73, 0
20, 74598, Note_off_c, 12, 75, 0
20, 74624, Note_on_c, 12, 59, 108
20, 74624, Note_on_c, 12, 61, 108
20, 74624, Note_on_c, 12, 65, 108
20, 74624, Note_on_c, 12, 68, 108
20, 74624, Note_on_c, 12, 73, 108
20, 74624, Note_on_c, 12, 75, 108
20, 74726, Note_off_c, 12, 59, 0
20, 74726, Note_off_c, 12, 61, 0
20, 74726, Note_off_c, 12, 65, 0
20, 74726, Note_off_c, 12, 68, 0
20, 74726, Note_off_c, 12, 73, 0
20, 74726, Note_off_c, 12, 75, 0
20, 74752, Note_on_c, 12, 58, 109
20, 74752, Note_on_c, 12, 60, 109
20, 74752, Note_on_c, 12, 64, 109
20, 74752, Note_on_c, 12, 67, 109
20, 74752, Note_on_c, 12, 76, 109
20, 74752, Note_on_c, 12, 79, 109
20, 74880, Note_off_c, 12, 58, 0
20, 74880, Note_off_c, 12, 60, 0
20, 74880, Note_off_c, 12, 64, 0
20, 74880, Note_off_c, 12, 67, 0
20, 74880, Note_off_c, 12, 76, 0
20, 74880, Note_off_c, 12, 79, 0
20, 74880, Note_on_c, 12, 57, 87
20, 74880, Note_on_c, 12, 59, 87
20, 74880, Note_on_c, 12, 63, 87
20, 74880, Note_on_c, 12, 66, 87
20, 74880, Note_on_c, 12, 68, 87
20, 74880, Note_on_c, 12, 71, 87
20, 75008, Note_off_c, 12, 57, 0
20, 75008, Note_off_c, 12, 59, 0
20, 75008, Note_off_c, 12, 63, 0
20, 75008, Note_off_c, 12, 66, 0
20, 75008, Note_off_c, 12, 68, 0
20, 75008, Note_off_c, 12, 71, 0
20, 75008, Note_on_c, 12, 56, 90
20, 75008, Note_on_c, 12, 58, 90
20, 75008, Note_on_c, 12, 62, 90
20, 75008, Note_on_c, 12, 65, 90
20, 75008, Note_on_c, 12, 67, 90
20, 75008, Note_on_c, 12, 70, 90
20, 75110, Note_off_c, 12, 56, 0
20, 75110, Note_off_c, 12, 58, 0
20, 75110, Note_off_c, 12, 62, 0
20, 75110, Note_off_c, 12, 65, 0
20, 75110, Note_off_c, 12, 67, 0
20, 75110, Note_off_c, 12, 70, 0
20, 75136, Note_on_c, 12, 56, 90
20, 75136, Note_on_c, 12, 58, 90
20, 75136, Note_on_c, 12, 62, 90
20, 75136, Note_on_c, 12, 65, 90
20, 75136, Note_on_c, 12, 67, 90
20, 75136, Note_on_c, 12, 70, 90
20, 75238, Note_off_c, 12, 56, 0
20, 75238, Note_off_c, 12, 58, 0
20, 75238, Note_off_c, 12, 62, 0
20, 75238, Note_off_c, 12, 65, 0
20, 75238, Note_off_c, 12, 67, 0
20, 75238, Note_off_c, 12, 70, 0
20, 75264, Note_on_c, 12, 57, 89
20, 75264, Note_on_c, 12, 59, 89
20, 75264, Note_on_c, 12, 63, 89
20, 75264, Note_on_c, 12, 66, 89
20, 75264, Note_on_c, 12, 68, 89
20, 75264, Note_on_c, 12, 71, 89
20, 75366, Note_off_c, 12, 57, 0
20, 75366, Note_off_c, 12, 59, 0
20, 75366, Note_off_c, 12, 63, 0
20, 75366, Note_off_c, 12, 66, 0
20, 75366, Note_off_c, 12, 68, 0
20, 75366, Note_off_c, 12, 71, 0
20, 75392, Note_on_c, 12, 57, 89
20, 75392, Note_on_c, 12, 59, 89
20, 75392, Note_on_c, 12, 63, 89
20, 75392, Note_on_c, 12, 66, 89
20, 75392, Note_on_c, 12, 68, 89
20, 75392, Note_on_c, 12, 71, 89
20, 75494, Note_off_c, 12, 57, 0
20, 75494, Note_off_c, 12, 59, 0
20, 75494, Note_off_c, 12, 63, 0
20, 75494, Note_off_c, 12, 66, 0
20, 75494, Note_off_c, 12, 68, 0
20, 75494, Note_off_c, 12, 71, 0
20, 75520, Note_on_c, 12, 53, 89
20, 75520, Note_on_c, 12, 56, 89
20, 75520, Note_on_c, 12, 59, 89
20, 75520, Note_on_c, 12, 63, 106
20, 75520, Note_on_c, 12, 71, 106
20, 75520, Note_on_c, 12, 74, 106
20, 75622, Note_off_c, 12, 53, 0
20, 75622, Note_off_c, 12, 56, 0
20, 75622, Note_off_c, 12, 59, 0
20, 75622, Note_off_c, 12, 63, 0
20, 75622, Note_off_c, 12, 71, 0
20, 75622, Note_off_c, 12, 74, 0
20, 75648, Note_on_c, 12, 53, 89
20, 75648, Note_on_c, 12, 56, 89
20, 75648, Note_on_c, 12, 59, 89
20, 75648, Note_on_c, 12, 63, 106
20, 75648, Note_on_c, 12, 71, 106
20, 75648, Note_on_c, 12, 74, 106
20, 75750, Note_off_c, 12, 53, 0
20, 75750, Note_off_c, 12, 56, 0
20, 75750, Note_off_c, 12, 59, 0
20, 75750, Note_off_c, 12, 63, 0
20, 75750, Note_off_c, 12, 71, 0
20, 75750, Note_off_c, 12, 74, 0
20, 75776, Note_on_c, 12, 50, 104
20, 75776, Note_on_c, 12, 54, 104
20, 75776, Note_on_c, 12, 57, 104
20, 75776, Note_on_c, 12, 60, 104
20, 75776, Note_on_c, 12, 68, 102
20, 75776, Note_on_c, 12, 74, 102
20, 75776, Note_on_c, 12, 77, 102
20, 75878, Note_off_c, 12, 50, 0
20, 75878, Note_off_c, 12, 54, 0
20, 75878, Note_off_c, 12, 57, 0
20, 75878, Note_off_c, 12, 60, 0
20, 75904, Note_off_c, 12, 68, 0
20, 75904, Note_off_c, 12, 74, 0
20, 75904, Note_off_c, 12, 77, 0
20, 75904, Note_on_c, 12, 50, 104
20, 75904, Note_on_c, 12, 54, 104
20, 75904, Note_on_c, 12, 57, 104
20, 75904, Note_on_c, 12, 60, 104
20, 76006, Note_off_c, 12, 50, 0
20, 76006, Note_off_c, 12, 54, 0
20, 76006, Note_off_c, 12, 57, 0
20, 76006, Note_off_c, 12, 60, 0
20, 76032, Note_on_c, 12, 49, 114
20, 76032, Note_on_c, 12, 53, 114
20, 76032, Note_on_c, 12, 56, 114
20, 76032, Note_on_c, 12, 59, 114
20, 76032, Note_on_c, 12, 65, 114
20, 76032, Note_on_c, 12, 68, 114
20, 76134, Note_off_c, 12, 49, 0
20, 76134, Note_off_c, 12, 53, 0
20, 76134, Note_off_c, 12, 56, 0
20, 76134, Note_off_c, 12, 59, 0
20, 76134, Note_off_c, 12, 65, 0
20, 76134, Note_off_c, 12, 68, 0
20, 76160, Note_on_c, 12, 49, 96
20, 76160, Note_on_c, 12, 53, 96
20, 76160, Note_on_c, 12, 56, 96
20, 76160, Note_on_c, 12, 59, 96
20, 76160, Note_on_c, 12, 65, 96
20, 76160, Note_on_c, 12, 68, 96
20, 76262, Note_off_c, 12, 49, 0
20, 76262, Note_off_c, 12, 53, 0
20, 76262, Note_off_c, 12, 56, 0
20, 76262, Note_off_c, 12, 59, 0
20, 76262, Note_off_c, 12, 65, 0
20, 76262, Note_off_c, 12, 68, 0
20, 76288, Note_on_c, 12, 49, 94
20, 76288, Note_on_c, 12, 53, 94
20, 76288, Note_on_c, 12, 56, 94
20, 76288, Note_on_c, 12, 59, 94
20, 76288, Note_on_c, 12, 65, 94
20, 76288, Note_on_c, 12, 68, 94
20, 76390, Note_off_c, 12, 49, 0
20, 76390, Note_off_c, 12, 53, 0
20, 76390, Note_off_c, 12, 56, 0
20, 76390, Note_off_c, 12, 59, 0
20, 76390, Note_off_c, 12, 65, 0
20, 76390, Note_off_c, 12, 68, 0
20, 76416, Note_on_c, 12, 49, 92
20, 76416, Note_on_c, 12, 53, 92
20, 76416, Note_on_c, 12, 56, 92
20, 76416, Note_on_c, 12, 59, 92
20, 76416, Note_on_c, 12, 65, 92
20, 76416, Note_on_c, 12, 68, 92
20, 76518, Note_off_c, 12, 49, 0
20, 76518, Note_off_c, 12, 53, 0
20, 76518, Note_off_c, 12, 56, 0
20, 76518, Note_off_c, 12, 59, 0
20, 76518, Note_off_c, 12, 65, 0
20, 76518, Note_off_c, 12, 68, 0
20, 76544, Note_on_c, 12, 49, 90
20, 76544, Note_on_c, 12, 53, 90
20, 76544, Note_on_c, 12, 56, 90
20, 76544, Note_on_c, 12, 59, 90
20, 76544, Note_on_c, 12, 65, 90
20, 76544, Note_on_c, 12, 68, 90
20, 76646, Note_off_c, 12, 49, 0
20, 76646, Note_off_c, 12, 53, 0
20, 76646, Note_off_c, 12, 56, 0
20, 76646, Note_off_c, 12, 59, 0
20, 76646, Note_off_c, 12, 65, 0
20, 76646, Note_off_c, 12, 68, 0
20, 76672, Note_on_c, 12, 49, 88
20, 76672, Note_on_c, 12, 53, 88
20, 76672, Note_on_c, 12, 56, 88
20, 76672, Note_on_c, 12, 59, 88
20, 76672, Note_on_c, 12, 65, 88
20, 76672, Note_on_c, 12, 68, 88
20, 76774, Note_off_c, 12, 49, 0
20, 76774, Note_off_c, 12, 53, 0
20, 76774, Note_off_c, 12, 56, 0
20, 76774, Note_off_c, 12, 59, 0
20, 76774, Note_off_c, 12, 65, 0
20, 76774, Note_off_c, 12, 68, 0
20, 76800, Note_on_c, 12, 49, 87
20, 76800, Note_on_c, 12, 53, 87
20, 76800, Note_on_c, 12, 56, 87
20, 76800, Note_on_c, 12, 59, 87
20, 76800, Note_on_c, 12, 65, 87
20, 76800, Note_on_c, 12, 68, 87
20, 76902, Note_off_c, 12, 49, 0
20, 76902, Note_off_c, 12, 53, 0
20, 76902, Note_off_c, 12, 56, 0
20, 76902, Note_off_c, 12, 59, 0
20, 76902, Note_off_c, 12, 65, 0
20, 76902, Note_off_c, 12, 68, 0
20, 76928, Note_on_c, 12, 49, 87
20, 76928, Note_on_c, 12, 53, 87
20, 76928, Note_on_c, 12, 56, 87
20, 76928, Note_on_c, 12, 59, 87
20, 76928, Note_on_c, 12, 65, 87
20, 76928, Note_on_c, 12, 68, 87
20, 77030, Note_off_c, 12, 49, 0
20, 77030, Note_off_c, 12, 53, 0
20, 77030, Note_off_c, 12, 56, 0
20, 77030, Note_off_c, 12, 59, 0
20, 77030, Note_off_c, 12, 65, 0
20, 77030, Note_off_c, 12, 68, 0
20, 77056, Note_on_c, 12, 49, 87
20, 77056, Note_on_c, 12, 53, 87
20, 77056, Note_on_c, 12, 56, 87
20, 77056, Note_on_c, 12, 59, 87
20, 77056, Note_on_c, 12, 65, 87
20, 77056, Note_on_c, 12, 68, 87
20, 77158, Note_off_c, 12, 49, 0
20, 77158, Note_off_c, 12, 53, 0
20, 77158, Note_off_c, 12, 56, 0
20, 77158, Note_off_c, 12, 59, 0
20, 77158, Note_off_c, 12, 65, 0
20, 77158, Note_off_c, 12, 68, 0
20, 77184, Note_on_c, 12, 49, 87
20, 77184, Note_on_c, 12, 53, 87
20, 77184, Note_on_c, 12, 56, 87
20, 77184, Note_on_c, 12, 59, 87
20, 77184, Note_on_c, 12, 65, 87
20, 77184, Note_on_c, 12, 68, 87
20, 77286, Note_off_c, 12, 49, 0
20, 77286, Note_off_c, 12, 53, 0
20, 77286, Note_off_c, 12, 56, 0
20, 77286, Note_off_c, 12, 59, 0
20, 77286, Note_off_c, 12, 65, 0
20, 77286, Note_off_c, 12, 68, 0
20, 77312, Note_on_c, 12, 49, 87
20, 77312, Note_on_c, 12, 53, 87
20, 77312, Note_on_c, 12, 56, 87
20, 77312, Note_on_c, 12, 59, 87
20, 77312, Note_on_c, 12, 65, 87
20, 77312, Note_on_c, 12, 68, 87
20, 77414, Note_off_c, 12, 49, 0
20, 77414, Note_off_c, 12, 53, 0
20, 77414, Note_off_c, 12, 56, 0
20, 77414, Note_off_c, 12, 59, 0
20, 77414, Note_off_c, 12, 65, 0
20, 77414, Note_off_c, 12, 68, 0
20, 77440, Note_on_c, 12, 49, 87
20, 77440, Note_on_c, 12, 53, 87
20, 77440, Note_on_c, 12, 56, 87
20, 77440, Note_on_c, 12, 59, 87
20, 77440, Note_on_c, 12, 65, 87
20, 77440, Note_on_c, 12, 68, 87
20, 77542, Note_off_c, 12, 49, 0
20, 77542, Note_off_c, 12, 53, 0
20, 77542, Note_off_c, 12, 56, 0
20, 77542, Note_off_c, 12, 59, 0
20, 77542, Note_off_c, 12, 65, 0
20, 77542, Note_off_c, 12, 68, 0
20, 77568, Note_on_c, 12, 49, 87
20, 77568, Note_on_c, 12, 53, 87
20, 77568, Note_on_c, 12, 56, 87
20, 77568, Note_on_c, 12, 59, 87
20, 77568, Note_on_c, 12, 65, 87
20, 77568, Note_on_c, 12, 68, 87
20, 77670, Note_off_c, 12, 49, 0
20, 77670, Note_off_c, 12, 53, 0
20, 77670, Note_off_c, 12, 56, 0
20, 77670, Note_off_c, 12, 59, 0
20, 77670, Note_off_c, 12, 65, 0
20, 77670, Note_off_c, 12, 68, 0
20, 77696, Note_on_c, 12, 49, 87
20, 77696, Note_on_c, 12, 53, 87
20, 77696, Note_on_c, 12, 56, 87
20, 77696, Note_on_c, 12, 59, 87
20, 77696, Note_on_c, 12, 65, 87
20, 77696, Note_on_c, 12, 68, 87
20, 77798, Note_off_c, 12, 49, 0
20, 77798, Note_off_c, 12, 53, 0
20, 77798, Note_off_c, 12, 56, 0
20, 77798, Note_off_c, 12, 59, 0
20, 77798, Note_off_c, 12, 65, 0
20, 77798, Note_off_c, 12, 68, 0
20, 77824, Note_on_c, 12, 49, 75
20, 77824, Note_on_c, 12, 53, 75
20, 77824, Note_on_c, 12, 56, 75
20, 77824, Note_on_c, 12, 59, 75
20, 77824, Note_on_c, 12, 65, 75
20, 77824, Note_on_c, 12, 68, 75
20, 77926, Note_off_c, 12, 49, 0
20, 77926, Note_off_c, 12, 53, 0
20, 77926, Note_off_c, 12, 56, 0
20, 77926, Note_off_c, 12, 59, 0
20, 77926, Note_off_c, 12, 65, 0
20, 77926, Note_off_c, 12, 68, 0
20, 77952, Note_on_c, 12, 49, 75
20, 77952, Note_on_c, 12, 53, 75
20, 77952, Note_on_c, 12, 56, 75
20, 77952, Note_on_c, 12, 59, 75
20, 77952, Note_on_c, 12, 65, 75
20, 77952, Note_on_c, 12, 68, 75
20, 78054, Note_off_c, 12, 49, 0
20, 78054, Note_off_c, 12, 53, 0
20, 78054, Note_off_c, 12, 56, 0
20, 78054, Note_off_c, 12, 59, 0
20, 78054, Note_off_c, 12, 65, 0
20, 78054, Note_off_c, 12, 68, 0
20, 78080, Note_on_c, 12, 49, 75
20, 78080, Note_on_c, 12, 53, 75
20, 78080, Note_on_c, 12, 56, 75
20, 78080, Note_on_c, 12, 59, 75
20, 78080, Note_on_c, 12, 65, 75
20, 78080, Note_on_c, 12, 68, 75
20, 78182, Note_off_c, 12, 49, 0
20, 78182, Note_off_c, 12, 53, 0
20, 78182, Note_off_c, 12, 56, 0
20, 78182, Note_off_c, 12, 59, 0
20, 78182, Note_off_c, 12, 65, 0
20, 78182, Note_off_c, 12, 68, 0
20, 78208, Note_on_c, 12, 49, 75
20, 78208, Note_on_c, 12, 53, 75
20, 78208, Note_on_c, 12, 56, 75
20, 78208, Note_on_c, 12, 59, 75
20, 78208, Note_on_c, 12, 65, 75
20, 78208, Note_on_c, 12, 68, 75
20, 78310, Note_off_c, 12, 49, 0
20, 78310, Note_off_c, 12, 53, 0
20, 78310, Note_off_c, 12, 56, 0
20, 78310, Note_off_c, 12, 59, 0
20, 78310, Note_off_c, 12, 65, 0
20, 78310, Note_off_c, 12, 68, 0
20, 78336, Note_on_c, 12, 49, 75
20, 78336, Note_on_c, 12, 53, 75
20, 78336, Note_on_c, 12, 56, 75
20, 78336, Note_on_c, 12, 59, 75
20, 78336, Note_on_c, 12, 65, 75
20, 78336, Note_on_c, 12, 68, 75
20, 78438, Note_off_c, 12, 49, 0
20, 78438, Note_off_c, 12, 53, 0
20, 78438, Note_off_c, 12, 56, 0
20, 78438, Note_off_c, 12, 59, 0
20, 78438, Note_off_c, 12, 65, 0
20, 78438, Note_off_c, 12, 68, 0
20, 78464, Note_on_c, 12, 49, 75
20, 78464, Note_on_c, 12, 53, 75
20, 78464, Note_on_c, 12, 56, 75
20, 78464, Note_on_c, 12, 59, 75
20, 78464, Note_on_c, 12, 65, 75
20, 78464, Note_on_c, 12, 68, 75
20, 78566, Note_off_c, 12, 49, 0
20, 78566, Note_off_c, 12, 53, 0
20, 78566, Note_off_c, 12, 56, 0
20, 78566, Note_off_c, 12, 59, 0
20, 78566, Note_off_c, 12, 65, 0
20, 78566, Note_off_c, 12, 68, 0
20, 78592, Note_on_c, 12, 49, 75
20, 78592, Note_on_c, 12, 53, 75
20, 78592, Note_on_c, 12, 56, 75
20, 78592, Note_on_c, 12, 59, 75
20, 78592, Note_on_c, 12, 65, 75
20, 78592, Note_on_c, 12, 68, 75
20, 78694, Note_off_c, 12, 49, 0
20, 78694, Note_off_c, 12, 53, 0
20, 78694, Note_off_c, 12, 56, 0
20, 78694, Note_off_c, 12, 59, 0
20, 78694, Note_off_c, 12, 65, 0
20, 78694, Note_off_c, 12, 68, 0
20, 78720, Note_on_c, 12, 49, 75
20, 78720, Note_on_c, 12, 53, 75
20, 78720, Note_on_c, 12, 56, 75
20, 78720, Note_on_c, 12, 59, 75
20, 78720, Note_on_c, 12, 65, 75
20, 78720, Note_on_c, 12, 68, 75
20, 78822, Note_off_c, 12, 49, 0
20, 78822, Note_off_c, 12, 53, 0
20, 78822, Note_off_c, 12, 56, 0
20, 78822, Note_off_c, 12, 59, 0
20, 78822, Note_off_c, 12, 65, 0
20, 78822, Note_off_c, 12, 68, 0
20, 78848, Note_on_c, 12, 50, 86
20, 78848, Note_on_c, 12, 54, 86
20, 78848, Note_on_c, 12, 57, 86
20, 78848, Note_on_c, 12, 59, 86
20, 78848, Note_on_c, 12, 65, 86
20, 78848, Note_on_c, 12, 68, 86
20, 78950, Note_off_c, 12, 50, 0
20, 78950, Note_off_c, 12, 54, 0
20, 78950, Note_off_c, 12, 57, 0
20, 78950, Note_off_c, 12, 59, 0
20, 78950, Note_off_c, 12, 65, 0
20, 78950, Note_off_c, 12, 68, 0
20, 78976, Note_on_c, 12, 50, 86
20, 78976, Note_on_c, 12, 54, 86
20, 78976, Note_on_c, 12, 57, 86
20, 78976, Note_on_c, 12, 59, 86
20, 78976, Note_on_c, 12, 65, 86
20, 78976, Note_on_c, 12, 68, 86
20, 79078, Note_off_c, 12, 50, 0
20, 79078, Note_off_c, 12, 54, 0
20, 79078, Note_off_c, 12, 57, 0
20, 79078, Note_off_c, 12, 59, 0
20, 79078, Note_off_c, 12, 65, 0
20, 79078, Note_off_c, 12, 68, 0
20, 79104, Note_on_c, 12, 50, 86
20, 79104, Note_on_c, 12, 54, 86
20, 79104, Note_on_c, 12, 57, 86
20, 79104, Note_on_c, 12, 59, 86
20, 79104, Note_on_c, 12, 65, 86
20, 79104, Note_on_c, 12, 68, 86
20, 79206, Note_off_c, 12, 50, 0
20, 79206, Note_off_c, 12, 54, 0
20, 79206, Note_off_c, 12, 57, 0
20, 79206, Note_off_c, 12, 59, 0
20, 79206, Note_off_c, 12, 65, 0
20, 79206, Note_off_c, 12, 68, 0
20, 79232, Note_on_c, 12, 50, 86
20, 79232, Note_on_c, 12, 54, 86
20, 79232, Note_on_c, 12, 57, 86
20, 79232, Note_on_c, 12, 59, 86
20, 79232, Note_on_c, 12, 65, 86
20, 79232, Note_on_c, 12, 68, 86
20, 79334, Note_off_c, 12, 50, 0
20, 79334, Note_off_c, 12, 54, 0
20, 79334, Note_off_c, 12, 57, 0
20, 79334, Note_off_c, 12, 59, 0
20, 79334, Note_off_c, 12, 65, 0
20, 79334, Note_off_c, 12, 68, 0
20, 79360, Note_on_c, 12, 50, 86
20, 79360, Note_on_c, 12, 54, 86
20, 79360, Note_on_c, 12, 57, 86
20, 79360, Note_on_c, 12, 59, 86
20, 79360, Note_on_c, 12, 65, 86
20, 79360, Note_on_c, 12, 68, 86
20, 79462, Note_off_c, 12, 50, 0
20, 79462, Note_off_c, 12, 54, 0
20, 79462, Note_off_c, 12, 57, 0
20, 79462, Note_off_c, 12, 59, 0
20, 79462, Note_off_c, 12, 65, 0
20, 79462, Note_off_c, 12, 68, 0
20, 79488, Note_on_c, 12, 50, 86
20, 79488, Note_on_c, 12, 54, 86
20, 79488, Note_on_c, 12, 57, 86
20, 79488, Note_on_c, 12, 59, 86
20, 79488, Note_on_c, 12, 65, 86
20, 79488, Note_on_c, 12, 68, 86
20, 79590, Note_off_c, 12, 50, 0
20, 79590, Note_off_c, 12, 54, 0
20, 79590, Note_off_c, 12, 57, 0
20, 79590, Note_off_c, 12, 59, 0
20, 79590, Note_off_c, 12, 65, 0
20, 79590, Note_off_c, 12, 68, 0
20, 79616, Note_on_c, 12, 50, 86
20, 79616, Note_on_c, 12, 54, 86
20, 79616, Note_on_c, 12, 57, 86
20, 79616, Note_on_c, 12, 59, 86
20, 79616, Note_on_c, 12, 65, 86
20, 79616, Note_on_c, 12, 68, 86
20, 79718, Note_off_c, 12, 50, 0
20, 79718, Note_off_c, 12, 54, 0
20, 79718, Note_off_c, 12, 57, 0
20, 79718, Note_off_c, 12, 59, 0
20, 79718, Note_off_c, 12, 65, 0
20, 79718, Note_off_c, 12, 68, 0
20, 79744, Note_on_c, 12, 50, 86
20, 79744, Note_on_c, 12, 54, 86
20, 79744, Note_on_c, 12, 57, 86
20, 79744, Note_on_c, 12, 59, 86
20, 79744, Note_on_c, 12, 65, 86
20, 79744, Note_on_c, 12, 68, 86
20, 79846, Note_off_c, 12, 50, 0
20, 79846, Note_off_c, 12, 54, 0
20, 79846, Note_off_c, 12, 57, 0
20, 79846, Note_off_c, 12, 59, 0
20, 79846, Note_off_c, 12, 65, 0
20, 79846, Note_off_c, 12, 68, 0
20, 79872, Note_on_c, 12, 52, 95
20, 79872, Note_on_c, 12, 55, 95
20, 79872, Note_on_c, 12, 58, 95
20, 79872, Note_on_c, 12, 62, 95
20, 79872, Note_on_c, 12, 65, 95
20, 79872, Note_on_c, 12, 68, 95
20, 79872, Note_on_c, 12, 72, 95
20, 79974, Note_off_c, 12, 52, 0
20, 79974, Note_off_c, 12, 55, 0
20, 79974, Note_off_c, 12, 58, 0
20, 79974, Note_off_c, 12, 62, 0
20, 79974, Note_off_c, 12, 65, 0
20, 79974, Note_off_c, 12, 68, 0
20, 79974, Note_off_c, 12, 72, 0
20, 80000, Note_on_c, 12, 52, 85
20, 80000, Note_on_c, 12, 55, 85
20, 80000, Note_on_c, 12, 58, 85
20, 80000, Note_on_c, 12, 62, 85
20, 80000, Note_on_c, 12, 65, 85
20, 80000, Note_on_c, 12, 68, 85
20, 80000, Note_on_c, 12, 72, 85
20, 80102, Note_off_c, 12, 52, 0
20, 80102, Note_off_c, 12, 55, 0
20, 80102, Note_off_c, 12, 58, 0
20, 80102, Note_off_c, 12, 62, 0
20, 80102, Note_off_c, 12, 65, 0
20, 80102, Note_off_c, 12, 68, 0
20, 80102, Note_off_c, 12, 72, 0
20, 80128, Note_on_c, 12, 52, 86
20, 80128, Note_on_c, 12, 55, 86
20, 80128, Note_on_c, 12, 58, 86
20, 80128, Note_on_c, 12, 62, 86
20, 80128, Note_on_c, 12, 65, 86
20, 80128, Note_on_c, 12, 68, 86
20, 80128, Note_on_c, 12, 72, 86
20, 80230, Note_off_c, 12, 52, 0
20, 80230, Note_off_c, 12, 55, 0
20, 80230, Note_off_c, 12, 58, 0
20, 80230, Note_off_c, 12, 62, 0
20, 80230, Note_off_c, 12, 65, 0
20, 80230, Note_off_c, 12, 68, 0
20, 80230, Note_off_c, 12, 72, 0
20, 80256, Note_on_c, 12, 52, 87
20, 80256, Note_on_c, 12, 55, 87
20, 80256, Note_on_c, 12, 58, 87
20, 80256, Note_on_c, 12, 62, 87
20, 80256, Note_on_c, 12, 65, 87
20, 80256, Note_on_c, 12, 68, 87
20, 80256, Note_on_c, 12, 72, 87
20, 80358, Note_off_c, 12, 52, 0
20, 80358, Note_off_c, 12, 55, 0
20, 80358, Note_off_c, 12, 58, 0
20, 80358, Note_off_c, 12, 62, 0
20, 80358, Note_off_c, 12, 65, 0
20, 80358, Note_off_c, 12, 68, 0
20, 80358, Note_off_c, 12, 72, 0
20, 80384, Note_on_c, 12, 52, 88
20, 80384, Note_on_c, 12, 55, 88
20, 80384, Note_on_c, 12, 58, 88
20, 80384, Note_on_c, 12, 62, 88
20, 80384, Note_on_c, 12, 65, 88
20, 80384, Note_on_c, 12, 68, 88
20, 80384, Note_on_c, 12, 72, 88
20, 80486, Note_off_c, 12, 52, 0
20, 80486, Note_off_c, 12, 55, 0
20, 80486, Note_off_c, 12, 58, 0
20, 80486, Note_off_c, 12, 62, 0
20, 80486, Note_off_c, 12, 65, 0
20, 80486, Note_off_c, 12, 68, 0
20, 80486, Note_off_c, 12, 72, 0
20, 80512, Note_on_c, 12, 52, 89
20, 80512, Note_on_c, 12, 55, 89
20, 80512, Note_on_c, 12, 58, 89
20, 80512, Note_on_c, 12, 62, 89
20, 80512, Note_on_c, 12, 65, 89
20, 80512, Note_on_c, 12, 68, 89
20, 80512, Note_on_c, 12, 72, 89
20, 80614, Note_off_c, 12, 52, 0
20, 80614, Note_off_c, 12, 55, 0
20, 80614, Note_off_c, 12, 58, 0
20, 80614, Note_off_c, 12, 62, 0
20, 80614, Note_off_c, 12, 65, 0
20, 80614, Note_off_c, 12, 68, 0
20, 80614, Note_off_c, 12, 72, 0
20, 80640, Note_on_c, 12, 52, 90
20, 80640, Note_on_c, 12, 55, 90
20, 80640, Note_on_c, 12, 58, 90
20, 80640, Note_on_c, 12, 62, 90
20, 80640, Note_on_c, 12, 65, 90
20, 80640, Note_on_c, 12, 68, 90
20, 80640, Note_on_c, 12, 72, 90
20, 80742, Note_off_c, 12, 52, 0
20, 80742, Note_off_c, 12, 55, 0
20, 80742, Note_off_c, 12, 58, 0
20, 80742, Note_off_c, 12, 62, 0
20, 80742, Note_off_c, 12, 65, 0
20, 80742, Note_off_c, 12, 68, 0
20, 80742, Note_off_c, 12, 72, 0
20, 80768, Note_on_c, 12, 45, 89
20, 80768, Note_on_c, 12, 52, 89
20, 80768, Note_on_c, 12, 61, 89
20, 80768, Note_on_c, 12, 65, 89
20, 80768, Note_on_c, 12, 68, 89
20, 80768, Note_on_c, 12, 72, 89
20, 80896, Note_off_c, 12, 45, 0
20, 80896, Note_off_c, 12, 52, 0
20, 80896, Note_off_c, 12, 61, 0
20, 80896, Note_off_c, 12, 65, 0
20, 80896, Note_off_c, 12, 68, 0
20, 80896, Note_off_c, 12, 72, 0
20, 80896, Note_on_c, 12, 45, 86
20, 80896, Note_on_c, 12, 52, 86
20, 80896, Note_on_c, 12, 61, 86
20, 80896, Note_on_c, 12, 65, 86
20, 80896, Note_on_c, 12, 68, 86
20, 80896, Note_on_c, 12, 72, 86
20, 80998, Note_off_c, 12, 45, 0
20, 80998, Note_off_c, 12, 52, 0
20, 80998, Note_off_c, 12, 61, 0
20, 80998, Note_off_c, 12, 65, 0
20, 80998, Note_off_c, 12, 68, 0
20, 80998, Note_off_c, 12, 72, 0
20, 81024, Note_on_c, 12, 45, 93
20, 81024, Note_on_c, 12, 52, 93
20, 81024, Note_on_c, 12, 61, 93
20, 81024, Note_on_c, 12, 65, 93
20, 81024, Note_on_c, 12, 68, 93
20, 81024, Note_on_c, 12, 72, 93
20, 81126, Note_off_c, 12, 45, 0
20, 81126, Note_off_c, 12, 52, 0
20, 81126, Note_off_c, 12, 61, 0
20, 81126, Note_off_c, 12, 65, 0
20, 81126, Note_off_c, 12, 68, 0
20, 81126, Note_off_c, 12, 72, 0
20, 81152, Note_on_c, 12, 45, 94
20, 81152, Note_on_c, 12, 52, 94
20, 81152, Note_on_c, 12, 61, 94
20, 81152, Note_on_c, 12, 65, 94
20, 81152, Note_on_c, 12, 68, 94
20, 81152, Note_on_c, 12, 72, 94
20, 81254, Note_off_c, 12, 45, 0
20, 81254, Note_off_c, 12, 52, 0
20, 81254, Note_off_c, 12, 61, 0
20, 81254, Note_off_c, 12, 65, 0
20, 81254, Note_off_c, 12, 68, 0
20, 81254, Note_off_c, 12, 72, 0
20, 81280, Note_on_c, 12, 45, 95
20, 81280, Note_on_c, 12, 52, 95
20, 81280, Note_on_c, 12, 61, 95
20, 81280, Note_on_c, 12, 65, 95
20, 81280, Note_on_c, 12, 68, 95
20, 81280, Note_on_c, 12, 72, 95
20, 81382, Note_off_c, 12, 45, 0
20, 81382, Note_off_c, 12, 52, 0
20, 81382, Note_off_c, 12, 61, 0
20, 81382, Note_off_c, 12, 65, 0
20, 81382, Note_off_c, 12, 68, 0
20, 81382, Note_off_c, 12, 72, 0
20, 81408, Note_on_c, 12, 45, 93
20, 81408, Note_on_c, 12, 52, 93
20, 81408, Note_on_c, 12, 61, 93
20, 81408, Note_on_c, 12, 65, 93
20, 81408, Note_on_c, 12, 68, 93
20, 81408, Note_on_c, 12, 72, 93
20, 81536, Note_off_c, 12, 45, 0
20, 81536, Note_off_c, 12, 52, 0
20, 81536, Note_off_c, 12, 61, 0
20, 81536, Note_off_c, 12, 65, 0
20, 81536, Note_off_c, 12, 68, 0
20, 81536, Note_off_c, 12, 72, 0
20, 81536, Note_on_c, 12, 38, 93
20, 81536, Note_on_c, 12, 45, 93
20, 81536, Note_on_c, 12, 61, 93
20, 81536, Note_on_c, 12, 65, 93
20, 81536, Note_on_c, 12, 68, 93
20, 81536, Note_on_c, 12, 71, 93
20, 81638, Note_off_c, 12, 38, 0
20, 81638, Note_off_c, 12, 45, 0
20, 81638, Note_off_c, 12, 61, 0
20, 81638, Note_off_c, 12, 65, 0
20, 81638, Note_off_c, 12, 68, 0
20, 81638, Note_off_c, 12, 71, 0
20, 81664, Note_on_c, 12, 38, 93
20, 81664, Note_on_c, 12, 45, 93
20, 81664, Note_on_c, 12, 61, 93
20, 81664, Note_on_c, 12, 65, 93
20, 81664, Note_on_c, 12, 68, 93
20, 81664, Note_on_c, 12, 71, 93
20, 81766, Note_off_c, 12, 38, 0
20, 81766, Note_off_c, 12, 45, 0
20, 81766, Note_off_c, 12, 61, 0
20, 81766, Note_off_c, 12, 65, 0
20, 81766, Note_off_c, 12, 68, 0
20, 81766, Note_off_c, 12, 71, 0
20, 81792, Note_on_c, 12, 38, 93
20, 81792, Note_on_c, 12, 45, 93
20, 81792, Note_on_c, 12, 61, 93
20, 81792, Note_on_c, 12, 65, 93
20, 81792, Note_on_c, 12, 68, 93
20, 81792, Note_on_c, 12, 71, 93
20, 81894, Note_off_c, 12, 38, 0
20, 81894, Note_off_c, 12, 45, 0
20, 81894, Note_off_c, 12, 61, 0
20, 81894, Note_off_c, 12, 65, 0
20, 81894, Note_off_c, 12, 68, 0
20, 81894, Note_off_c, 12, 71, 0
20, 81920, Note_on_c, 12, 61, 95
20, 81920, Note_on_c, 12, 65, 95
20, 81920, Note_on_c, 12, 68, 95
20, 81920, Note_on_c, 12, 71, 95
20, 81920, Note_on_c, 12, 38, 99
20, 81920, Note_on_c, 12, 45, 99
20, 82022, Note_off_c, 12, 61, 0
20, 82022, Note_off_c, 12, 65, 0
20, 82022, Note_off_c, 12, 68, 0
20, 82022, Note_off_c, 12, 71, 0
20, 82022, Note_off_c, 12, 38, 0
20, 82022, Note_off_c, 12, 45, 0
20, 82048, Note_on_c, 12, 61, 95
20, 82048, Note_on_c, 12, 65, 95
20, 82048, Note_on_c, 12, 68, 95
20, 82048, Note_on_c, 12, 71, 95
20, 82048, Note_on_c, 12, 38, 99
20, 82048, Note_on_c, 12, 45, 99
20, 82150, Note_off_c, 12, 61, 0
20, 82150, Note_off_c, 12, 65, 0
20, 82150, Note_off_c, 12, 68, 0
20, 82150, Note_off_c, 12, 71, 0
20, 82150, Note_off_c, 12, 38, 0
20, 82150, Note_off_c, 12, 45, 0
20, 82176, Note_on_c, 12, 61, 95
20, 82176, Note_on_c, 12, 65, 95
20, 82176, Note_on_c, 12, 68, 95
20, 82176, Note_on_c, 12, 71, 95
20, 82176, Note_on_c, 12, 38, 99
20, 82176, Note_on_c, 12, 45, 99
20, 82278, Note_off_c, 12, 61, 0
20, 82278, Note_off_c, 12, 65, 0
20, 82278, Note_off_c, 12, 68, 0
20, 82278, Note_off_c, 12, 71, 0
20, 82278, Note_off_c, 12, 38, 0
20, 82278, Note_off_c, 12, 45, 0
20, 82304, Note_on_c, 12, 61, 95
20, 82304, Note_on_c, 12, 65, 95
20, 82304, Note_on_c, 12, 68, 95
20, 82304, Note_on_c, 12, 71, 95
20, 82304, Note_on_c, 12, 38, 99
20, 82304, Note_on_c, 12, 45, 99
20, 82406, Note_off_c, 12, 61, 0
20, 82406, Note_off_c, 12, 65, 0
20, 82406, Note_off_c, 12, 68, 0
20, 82406, Note_off_c, 12, 71, 0
20, 82406, Note_off_c, 12, 38, 0
20, 82406, Note_off_c, 12, 45, 0
20, 82432, Note_on_c, 12, 61, 96
20, 82432, Note_on_c, 12, 65, 96
20, 82432, Note_on_c, 12, 68, 96
20, 82432, Note_on_c, 12, 71, 96
20, 82432, Note_on_c, 12, 38, 99
20, 82432, Note_on_c, 12, 45, 99
20, 82534, Note_off_c, 12, 61, 0
20, 82534, Note_off_c, 12, 65, 0
20, 82534, Note_off_c, 12, 68, 0
20, 82534, Note_off_c, 12, 71, 0
20, 82534, Note_off_c, 12, 38, 0
20, 82534, Note_off_c, 12, 45, 0
20, 82560, Note_on_c, 12, 61, 96
20, 82560, Note_on_c, 12, 65, 96
20, 82560, Note_on_c, 12, 68, 96
20, 82560, Note_on_c, 12, 71, 96
20, 82560, Note_on_c, 12, 38, 99
20, 82560, Note_on_c, 12, 45, 99
20, 82662, Note_off_c, 12, 61, 0
20, 82662, Note_off_c, 12, 65, 0
20, 82662, Note_off_c, 12, 68, 0
20, 82662, Note_off_c, 12, 71, 0
20, 82662, Note_off_c, 12, 38, 0
20, 82662, Note_off_c, 12, 45, 0
20, 82688, Note_on_c, 12, 59, 94
20, 82688, Note_on_c, 12, 61, 94
20, 82688, Note_on_c, 12, 65, 94
20, 82688, Note_on_c, 12, 68, 94
20, 82688, Note_on_c, 12, 71, 94
20, 82688, Note_on_c, 12, 43, 119
20, 82688, Note_on_c, 12, 50, 119
20, 82790, Note_off_c, 12, 59, 0
20, 82790, Note_off_c, 12, 61, 0
20, 82790, Note_off_c, 12, 65, 0
20, 82790, Note_off_c, 12, 68, 0
20, 82790, Note_off_c, 12, 71, 0
20, 82790, Note_off_c, 12, 43, 0
20, 82790, Note_off_c, 12, 50, 0
20, 82816, Note_on_c, 12, 59, 94
20, 82816, Note_on_c, 12, 61, 94
20, 82816, Note_on_c, 12, 65, 94
20, 82816, Note_on_c, 12, 68, 94
20, 82816, Note_on_c, 12, 71, 94
20, 82816, Note_on_c, 12, 43, 119
20, 82816, Note_on_c, 12, 50, 119
20, 82918, Note_off_c, 12, 59, 0
20, 82918, Note_off_c, 12, 61, 0
20, 82918, Note_off_c, 12, 65, 0
20, 82918, Note_off_c, 12, 68, 0
20, 82918, Note_off_c, 12, 71, 0
20, 82918, Note_off_c, 12, 43, 0
20, 82918, Note_off_c, 12, 50, 0
20, 82944, Note_on_c, 12, 59, 100
20, 82944, Note_on_c, 12, 61, 100
20, 82944, Note_on_c, 12, 65, 100
20, 82944, Note_on_c, 12, 68, 100
20, 82944, Note_on_c, 12, 71, 100
20, 82944, Note_on_c, 12, 43, 112
20, 82944, Note_on_c, 12, 50, 112
20, 83046, Note_off_c, 12, 59, 0
20, 83046, Note_off_c, 12, 61, 0
20, 83046, Note_off_c, 12, 65, 0
20, 83046, Note_off_c, 12, 68, 0
20, 83046, Note_off_c, 12, 71, 0
20, 83046, Note_off_c, 12, 43, 0
20, 83046, Note_off_c, 12, 50, 0
20, 83072, Note_on_c, 12, 59, 100
20, 83072, Note_on_c, 12, 61, 100
20, 83072, Note_on_c, 12, 65, 100
20, 83072, Note_on_c, 12, 68, 100
20, 83072, Note_on_c, 12, 71, 100
20, 83072, Note_on_c, 12, 43, 112
20, 83072, Note_on_c, 12, 50, 112
20, 83174, Note_off_c, 12, 59, 0
20, 83174, Note_off_c, 12, 61, 0
20, 83174, Note_off_c, 12, 65, 0
20, 83174, Note_off_c, 12, 68, 0
20, 83174, Note_off_c, 12, 71, 0
20, 83174, Note_off_c, 12, 43, 0
20, 83174, Note_off_c, 12, 50, 0
20, 83200, Note_on_c, 12, 59, 100
20, 83200, Note_on_c, 12, 61, 100
20, 83200, Note_on_c, 12, 65, 100
20, 83200, Note_on_c, 12, 68, 100
20, 83200, Note_on_c, 12, 71, 100
20, 83200, Note_on_c, 12, 43, 112
20, 83200, Note_on_c, 12, 50, 112
20, 83302, Note_off_c, 12, 59, 0
20, 83302, Note_off_c, 12, 61, 0
20, 83302, Note_off_c, 12, 65, 0
20, 83302, Note_off_c, 12, 68, 0
20, 83302, Note_off_c, 12, 71, 0
20, 83302, Note_off_c, 12, 43, 0
20, 83302, Note_off_c, 12, 50, 0
20, 83328, Note_on_c, 12, 59, 100
20, 83328, Note_on_c, 12, 61, 100
20, 83328, Note_on_c, 12, 65, 100
20, 83328, Note_on_c, 12, 68, 100
20, 83328, Note_on_c, 12, 71, 100
20, 83328, Note_on_c, 12, 43, 112
20, 83328, Note_on_c, 12, 50, 112
20, 83430, Note_off_c, 12, 59, 0
20, 83430, Note_off_c, 12, 61, 0
20, 83430, Note_off_c, 12, 65, 0
20, 83430, Note_off_c, 12, 68, 0
20, 83430, Note_off_c, 12, 71, 0
20, 83430, Note_off_c, 12, 43, 0
20, 83430, Note_off_c, 12, 50, 0
20, 83456, Note_on_c, 12, 59, 98
20, 83456, Note_on_c, 12, 61, 98
20, 83456, Note_on_c, 12, 65, 98
20, 83456, Note_on_c, 12, 68, 98
20, 83456, Note_on_c, 12, 71, 98
20, 83456, Note_on_c, 12, 43, 115
20, 83456, Note_on_c, 12, 50, 115
20, 83558, Note_off_c, 12, 59, 0
20, 83558, Note_off_c, 12, 61, 0
20, 83558, Note_off_c, 12, 65, 0
20, 83558, Note_off_c, 12, 68, 0
20, 83558, Note_off_c, 12, 71, 0
20, 83558, Note_off_c, 12, 43, 0
20, 83558, Note_off_c, 12, 50, 0
20, 83584, Note_on_c, 12, 59, 98
20, 83584, Note_on_c, 12, 61, 98
20, 83584, Note_on_c, 12, 65, 98
20, 83584, Note_on_c, 12, 68, 98
20, 83584, Note_on_c, 12, 71, 98
20, 83584, Note_on_c, 12, 43, 115
20, 83584, Note_on_c, 12, 50, 115
20, 83686, Note_off_c, 12, 59, 0
20, 83686, Note_off_c, 12, 61, 0
20, 83686, Note_off_c, 12, 65, 0
20, 83686, Note_off_c, 12, 68, 0
20, 83686, Note_off_c, 12, 71, 0
20, 83686, Note_off_c, 12, 43, 0
20, 83686, Note_off_c, 12, 50, 0
20, 83712, Note_on_c, 12, 59, 98
20, 83712, Note_on_c, 12, 61, 98
20, 83712, Note_on_c, 12, 65, 98
20, 83712, Note_on_c, 12, 68, 98
20, 83712, Note_on_c, 12, 71, 98
20, 83712, Note_on_c, 12, 43, 115
20, 83712, Note_on_c, 12, 50, 115
20, 83814, Note_off_c, 12, 59, 0
20, 83814, Note_off_c, 12, 61, 0
20, 83814, Note_off_c, 12, 65, 0
20, 83814, Note_off_c, 12, 68, 0
20, 83814, Note_off_c, 12, 71, 0
20, 83814, Note_off_c, 12, 43, 0
20, 83814, Note_off_c, 12, 50, 0
20, 83840, Note_on_c, 12, 59, 98
20, 83840, Note_on_c, 12, 61, 98
20, 83840, Note_on_c, 12, 65, 98
20, 83840, Note_on_c, 12, 68, 98
20, 83840, Note_on_c, 12, 71, 98
20, 83840, Note_on_c, 12, 43, 115
20, 83840, Note_on_c, 12, 50, 115
20, 83942, Note_off_c, 12, 59, 0
20, 83942, Note_off_c, 12, 61, 0
20, 83942, Note_off_c, 12, 65, 0
20, 83942, Note_off_c, 12, 68, 0
20, 83942, Note_off_c, 12, 71, 0
20, 83942, Note_off_c, 12, 43, 0
20, 83942, Note_off_c, 12, 50, 0
20, 83968, Note_on_c, 12, 59, 96
20, 83968, Note_on_c, 12, 61, 96
20, 83968, Note_on_c, 12, 65, 96
20, 83968, Note_on_c, 12, 68, 96
20, 83968, Note_on_c, 12, 71, 96
20, 83968, Note_on_c, 12, 43, 113
20, 83968, Note_on_c, 12, 50, 113
20, 84070, Note_off_c, 12, 59, 0
20, 84070, Note_off_c, 12, 61, 0
20, 84070, Note_off_c, 12, 65, 0
20, 84070, Note_off_c, 12, 68, 0
20, 84070, Note_off_c, 12, 71, 0
20, 84070, Note_off_c, 12, 43, 0
20, 84070, Note_off_c, 12, 50, 0
20, 84096, Note_on_c, 12, 59, 96
20, 84096, Note_on_c, 12, 61, 96
20, 84096, Note_on_c, 12, 65, 96
20, 84096, Note_on_c, 12, 68, 96
20, 84096, Note_on_c, 12, 71, 96
20, 84096, Note_on_c, 12, 43, 113
20, 84096, Note_on_c, 12, 50, 113
20, 84198, Note_off_c, 12, 59, 0
20, 84198, Note_off_c, 12, 61, 0
20, 84198, Note_off_c, 12, 65, 0
20, 84198, Note_off_c, 12, 68, 0
20, 84198, Note_off_c, 12, 71, 0
20, 84198, Note_off_c, 12, 43, 0
20, 84198, Note_off_c, 12, 50, 0
20, 84224, Note_on_c, 12, 59, 96
20, 84224, Note_on_c, 12, 61, 96
20, 84224, Note_on_c, 12, 65, 96
20, 84224, Note_on_c, 12, 68, 96
20, 84224, Note_on_c, 12, 71, 96
20, 84224, Note_on_c, 12, 48, 126
20, 84224, Note_on_c, 12, 58, 126
20, 84326, Note_off_c, 12, 59, 0
20, 84326, Note_off_c, 12, 61, 0
20, 84326, Note_off_c, 12, 65, 0
20, 84326, Note_off_c, 12, 68, 0
20, 84326, Note_off_c, 12, 71, 0
20, 84326, Note_off_c, 12, 48, 0
20, 84326, Note_off_c, 12, 58, 0
20, 84352, Note_on_c, 12, 59, 96
20, 84352, Note_on_c, 12, 61, 96
20, 84352, Note_on_c, 12, 65, 96
20, 84352, Note_on_c, 12, 68, 96
20, 84352, Note_on_c, 12, 71, 96
20, 84352, Note_on_c, 12, 48, 126
20, 84352, Note_on_c, 12, 58, 126
20, 84454, Note_off_c, 12, 59, 0
20, 84454, Note_off_c, 12, 61, 0
20, 84454, Note_off_c, 12, 65, 0
20, 84454, Note_off_c, 12, 68, 0
20, 84454, Note_off_c, 12, 71, 0
20, 84454, Note_off_c, 12, 48, 0
20, 84454, Note_off_c, 12, 58, 0
20, 84480, Note_on_c, 12, 59, 100
20, 84480, Note_on_c, 12, 61, 100
20, 84480, Note_on_c, 12, 65, 100
20, 84480, Note_on_c, 12, 68, 100
20, 84480, Note_on_c, 12, 71, 100
20, 84480, Note_on_c, 12, 48, 126
20, 84480, Note_on_c, 12, 58, 126
20, 84582, Note_off_c, 12, 59, 0
20, 84582, Note_off_c, 12, 61, 0
20, 84582, Note_off_c, 12, 65, 0
20, 84582, Note_off_c, 12, 68, 0
20, 84582, Note_off_c, 12, 71, 0
20, 84582, Note_off_c, 12, 48, 0
20, 84582, Note_off_c, 12, 58, 0
20, 84608, Note_on_c, 12, 59, 100
20, 84608, Note_on_c, 12, 61, 100
20, 84608, Note_on_c, 12, 65, 100
20, 84608, Note_on_c, 12, 68, 100
20, 84608, Note_on_c, 12, 71, 100
20, 84608, Note_on_c, 12, 48, 126
20, 84608, Note_on_c, 12, 58, 126
20, 84710, Note_off_c, 12, 59, 0
20, 84710, Note_off_c, 12, 61, 0
20, 84710, Note_off_c, 12, 65, 0
20, 84710, Note_off_c, 12, 68, 0
20, 84710, Note_off_c, 12, 71, 0
20, 84710, Note_off_c, 12, 48, 0
20, 84710, Note_off_c, 12, 58, 0
20, 84736, Note_on_c, 12, 59, 100
20, 84736, Note_on_c, 12, 61, 100
20, 84736, Note_on_c, 12, 65, 100
20, 84736, Note_on_c, 12, 68, 100
20, 84736, Note_on_c, 12, 71, 100
20, 84736, Note_on_c, 12, 48, 126
20, 84736, Note_on_c, 12, 58, 126
20, 84838, Note_off_c, 12, 59, 0
20, 84838, Note_off_c, 12, 61, 0
20, 84838, Note_off_c, 12, 65, 0
20, 84838, Note_off_c, 12, 68, 0
20, 84838, Note_off_c, 12, 71, 0
20, 84838, Note_off_c, 12, 48, 0
20, 84838, Note_off_c, 12, 58, 0
20, 84864, Note_on_c, 12, 59, 100
20, 84864, Note_on_c, 12, 61, 100
20, 84864, Note_on_c, 12, 65, 100
20, 84864, Note_on_c, 12, 68, 100
20, 84864, Note_on_c, 12, 71, 100
20, 84864, Note_on_c, 12, 48, 126
20, 84864, Note_on_c, 12, 58, 126
20, 84966, Note_off_c, 12, 59, 0
20, 84966, Note_off_c, 12, 61, 0
20, 84966, Note_off_c, 12, 65, 0
20, 84966, Note_off_c, 12, 68, 0
20, 84966, Note_off_c, 12, 71, 0
20, 84966, Note_off_c, 12, 48, 0
20, 84966, Note_off_c, 12, 58, 0
20, 84992, Note_on_c, 12, 59, 98
20, 84992, Note_on_c, 12, 61, 98
20, 84992, Note_on_c, 12, 65, 98
20, 84992, Note_on_c, 12, 68, 98
20, 84992, Note_on_c, 12, 71, 98
20, 84992, Note_on_c, 12, 48, 117
20, 84992, Note_on_c, 12, 58, 117
20, 85094, Note_off_c, 12, 59, 0
20, 85094, Note_off_c, 12, 61, 0
20, 85094, Note_off_c, 12, 65, 0
20, 85094, Note_off_c, 12, 68, 0
20, 85094, Note_off_c, 12, 71, 0
20, 85094, Note_off_c, 12, 48, 0
20, 85094, Note_off_c, 12, 58, 0
20, 85120, Note_on_c, 12, 59, 98
20, 85120, Note_on_c, 12, 61, 98
20, 85120, Note_on_c, 12, 65, 98
20, 85120, Note_on_c, 12, 68, 98
20, 85120, Note_on_c, 12, 71, 98
20, 85120, Note_on_c, 12, 48, 117
20, 85120, Note_on_c, 12, 58, 117
20, 85222, Note_off_c, 12, 59, 0
20, 85222, Note_off_c, 12, 61, 0
20, 85222, Note_off_c, 12, 65, 0
20, 85222, Note_off_c, 12, 68, 0
20, 85222, Note_off_c, 12, 71, 0
20, 85222, Note_off_c, 12, 48, 0
20, 85222, Note_off_c, 12, 58, 0
20, 85248, Note_on_c, 12, 59, 98
20, 85248, Note_on_c, 12, 61, 98
20, 85248, Note_on_c, 12, 65, 98
20, 85248, Note_on_c, 12, 68, 98
20, 85248, Note_on_c, 12, 71, 98
20, 85248, Note_on_c, 12, 48, 117
20, 85248, Note_on_c, 12, 58, 117
20, 85350, Note_off_c, 12, 59, 0
20, 85350, Note_off_c, 12, 61, 0
20, 85350, Note_off_c, 12, 65, 0
20, 85350, Note_off_c, 12, 68, 0
20, 85350, Note_off_c, 12, 71, 0
20, 85350, Note_off_c, 12, 48, 0
20, 85350, Note_off_c, 12, 58, 0
20, 85376, Note_on_c, 12, 59, 98
20, 85376, Note_on_c, 12, 61, 98
20, 85376, Note_on_c, 12, 65, 98
20, 85376, Note_on_c, 12, 68, 98
20, 85376, Note_on_c, 12, 71, 98
20, 85376, Note_on_c, 12, 48, 117
20, 85376, Note_on_c, 12, 58, 117
20, 85478, Note_off_c, 12, 59, 0
20, 85478, Note_off_c, 12, 61, 0
20, 85478, Note_off_c, 12, 65, 0
20, 85478, Note_off_c, 12, 68, 0
20, 85478, Note_off_c, 12, 71, 0
20, 85478, Note_off_c, 12, 48, 0
20, 85478, Note_off_c, 12, 58, 0
20, 85504, Note_on_c, 12, 62, 107
20, 85504, Note_on_c, 12, 66, 107
20, 85504, Note_on_c, 12, 69, 107
20, 85504, Note_on_c, 12, 72, 107
20, 85504, Note_on_c, 12, 48, 111
20, 85504, Note_on_c, 12, 58, 111
20, 85606, Note_off_c, 12, 62, 0
20, 85606, Note_off_c, 12, 66, 0
20, 85606, Note_off_c, 12, 69, 0
20, 85606, Note_off_c, 12, 72, 0
20, 85606, Note_off_c, 12, 48, 0
20, 85606, Note_off_c, 12, 58, 0
20, 85632, Note_on_c, 12, 62, 107
20, 85632, Note_on_c, 12, 66, 107
20, 85632, Note_on_c, 12, 69, 107
20, 85632, Note_on_c, 12, 72, 107
20, 85632, Note_on_c, 12, 48, 111
20, 85632, Note_on_c, 12, 58, 111
20, 85734, Note_off_c, 12, 62, 0
20, 85734, Note_off_c, 12, 66, 0
20, 85734, Note_off_c, 12, 69, 0
20, 85734, Note_off_c, 12, 72, 0
20, 85734, Note_off_c, 12, 48, 0
20, 85734, Note_off_c, 12, 58, 0
20, 85760, Note_on_c, 12, 62, 107
20, 85760, Note_on_c, 12, 66, 107
20, 85760, Note_on_c, 12, 69, 107
20, 85760, Note_on_c, 12, 72, 107
20, 85760, Note_on_c, 12, 48, 111
20, 85760, Note_on_c, 12, 58, 111
20, 85862, Note_off_c, 12, 62, 0
20, 85862, Note_off_c, 12, 66, 0
20, 85862, Note_off_c, 12, 69, 0
20, 85862, Note_off_c, 12, 72, 0
20, 85862, Note_off_c, 12, 48, 0
20, 85862, Note_off_c, 12, 58, 0
20, 85888, Note_on_c, 12, 62, 107
20, 85888, Note_on_c, 12, 66, 107
20, 85888, Note_on_c, 12, 69, 107
20, 85888, Note_on_c, 12, 72, 107
20, 85888, Note_on_c, 12, 48, 111
20, 85888, Note_on_c, 12, 58, 111
20, 85990, Note_off_c, 12, 62, 0
20, 85990, Note_off_c, 12, 66, 0
20, 85990, Note_off_c, 12, 69, 0
20, 85990, Note_off_c, 12, 72, 0
20, 85990, Note_off_c, 12, 48, 0
20, 85990, Note_off_c, 12, 58, 0
20, 86016, Note_on_c, 12, 62, 100
20, 86016, Note_on_c, 12, 66, 100
20, 86016, Note_on_c, 12, 69, 100
20, 86016, Note_on_c, 12, 72, 100
20, 86016, Note_on_c, 12, 48, 114
20, 86016, Note_on_c, 12, 58, 114
20, 86118, Note_off_c, 12, 62, 0
20, 86118, Note_off_c, 12, 66, 0
20, 86118, Note_off_c, 12, 69, 0
20, 86118, Note_off_c, 12, 72, 0
20, 86118, Note_off_c, 12, 48, 0
20, 86118, Note_off_c, 12, 58, 0
20, 86144, Note_on_c, 12, 62, 100
20, 86144, Note_on_c, 12, 66, 100
20, 86144, Note_on_c, 12, 69, 100
20, 86144, Note_on_c, 12, 72, 100
20, 86144, Note_on_c, 12, 48, 114
20, 86144, Note_on_c, 12, 58, 114
20, 86246, Note_off_c, 12, 62, 0
20, 86246, Note_off_c, 12, 66, 0
20, 86246, Note_off_c, 12, 69, 0
20, 86246, Note_off_c, 12, 72, 0
20, 86246, Note_off_c, 12, 48, 0
20, 86246, Note_off_c, 12, 58, 0
20, 86272, Note_on_c, 12, 62, 100
20, 86272, Note_on_c, 12, 66, 100
20, 86272, Note_on_c, 12, 69, 100
20, 86272, Note_on_c, 12, 72, 100
20, 86272, Note_on_c, 12, 48, 114
20, 86272, Note_on_c, 12, 58, 114
20, 86374, Note_off_c, 12, 62, 0
20, 86374, Note_off_c, 12, 66, 0
20, 86374, Note_off_c, 12, 69, 0
20, 86374, Note_off_c, 12, 72, 0
20, 86374, Note_off_c, 12, 48, 0
20, 86374, Note_off_c, 12, 58, 0
20, 86400, Note_on_c, 12, 62, 100
20, 86400, Note_on_c, 12, 66, 100
20, 86400, Note_on_c, 12, 69, 100
20, 86400, Note_on_c, 12, 72, 100
20, 86400, Note_on_c, 12, 48, 114
20, 86400, Note_on_c, 12, 58, 114
20, 86502, Note_off_c, 12, 62, 0
20, 86502, Note_off_c, 12, 66, 0
20, 86502, Note_off_c, 12, 69, 0
20, 86502, Note_off_c, 12, 72, 0
20, 86502, Note_off_c, 12, 48, 0
20, 86502, Note_off_c, 12, 58, 0
20, 86528, Note_on_c, 12, 62, 99
20, 86528, Note_on_c, 12, 66, 99
20, 86528, Note_on_c, 12, 69, 99
20, 86528, Note_on_c, 12, 72, 99
20, 86528, Note_on_c, 12, 48, 116
20, 86528, Note_on_c, 12, 58, 116
20, 86630, Note_off_c, 12, 48, 0
20, 86630, Note_off_c, 12, 58, 0
20, 86656, Note_off_c, 12, 62, 0
20, 86656, Note_off_c, 12, 66, 0
20, 86656, Note_off_c, 12, 69, 0
20, 86656, Note_off_c, 12, 72, 0
20, 86656, Note_on_c, 12, 61, 96
20, 86656, Note_on_c, 12, 65, 96
20, 86656, Note_on_c, 12, 68, 96
20, 86656, Note_on_c, 12, 71, 96
20, 86656, Note_on_c, 12, 48, 116
20, 86656, Note_on_c, 12, 58, 116
20, 86758, Note_off_c, 12, 48, 0
20, 86758, Note_off_c, 12, 58, 0
20, 86784, Note_on_c, 12, 48, 116
20, 86784, Note_on_c, 12, 58, 116
20, 86886, Note_off_c, 12, 48, 0
20, 86886, Note_off_c, 12, 58, 0
20, 86912, Note_on_c, 12, 48, 116
20, 86912, Note_on_c, 12, 58, 116
20, 87014, Note_off_c, 12, 48, 0
20, 87014, Note_off_c, 12, 58, 0
20, 87040, Note_off_c, 12, 61, 0
20, 87040, Note_off_c, 12, 65, 0
20, 87040, Note_off_c, 12, 68, 0
20, 87040, Note_off_c, 12, 71, 0
20, 87040, Note_on_c, 12, 61, 98
20, 87040, Note_on_c, 12, 65, 98
20, 87040, Note_on_c, 12, 68, 98
20, 87040, Note_on_c, 12, 71, 98
20, 87040, Note_on_c, 12, 48, 115
20, 87040, Note_on_c, 12, 58, 115
20, 87142, Note_off_c, 12, 61, 0
20, 87142, Note_off_c, 12, 65, 0
20, 87142, Note_off_c, 12, 68, 0
20, 87142, Note_off_c, 12, 71, 0
20, 87142, Note_off_c, 12, 48, 0
20, 87142, Note_off_c, 12, 58, 0
20, 87168, Note_on_c, 12, 61, 98
20, 87168, Note_on_c, 12, 65, 98
20, 87168, Note_on_c, 12, 68, 98
20, 87168, Note_on_c, 12, 71, 98
20, 87168, Note_on_c, 12, 48, 115
20, 87168, Note_on_c, 12, 58, 115
20, 87270, Note_off_c, 12, 61, 0
20, 87270, Note_off_c, 12, 65, 0
20, 87270, Note_off_c, 12, 68, 0
20, 87270, Note_off_c, 12, 71, 0
20, 87270, Note_off_c, 12, 48, 0
20, 87270, Note_off_c, 12, 58, 0
20, 87296, Note_on_c, 12, 61, 98
20, 87296, Note_on_c, 12, 65, 98
20, 87296, Note_on_c, 12, 68, 98
20, 87296, Note_on_c, 12, 71, 98
20, 87296, Note_on_c, 12, 48, 115
20, 87296, Note_on_c, 12, 58, 115
20, 87398, Note_off_c, 12, 61, 0
20, 87398, Note_off_c, 12, 65, 0
20, 87398, Note_off_c, 12, 68, 0
20, 87398, Note_off_c, 12, 71, 0
20, 87398, Note_off_c, 12, 48, 0
20, 87398, Note_off_c, 12, 58, 0
20, 87424, Note_on_c, 12, 61, 98
20, 87424, Note_on_c, 12, 65, 98
20, 87424, Note_on_c, 12, 68, 98
20, 87424, Note_on_c, 12, 71, 98
20, 87424, Note_on_c, 12, 48, 115
20, 87424, Note_on_c, 12, 58, 115
20, 87526, Note_off_c, 12, 61, 0
20, 87526, Note_off_c, 12, 65, 0
20, 87526, Note_off_c, 12, 68, 0
20, 87526, Note_off_c, 12, 71, 0
20, 87526, Note_off_c, 12, 48, 0
20, 87526, Note_off_c, 12, 58, 0
20, 87552, Note_on_c, 12, 62, 104
20, 87552, Note_on_c, 12, 66, 104
20, 87552, Note_on_c, 12, 69, 104
20, 87552, Note_on_c, 12, 72, 104
20, 87552, Note_on_c, 12, 48, 116
20, 87552, Note_on_c, 12, 58, 116
20, 87654, Note_off_c, 12, 62, 0
20, 87654, Note_off_c, 12, 66, 0
20, 87654, Note_off_c, 12, 69, 0
20, 87654, Note_off_c, 12, 72, 0
20, 87654, Note_off_c, 12, 48, 0
20, 87654, Note_off_c, 12, 58, 0
20, 87680, Note_on_c, 12, 62, 104
20, 87680, Note_on_c, 12, 66, 104
20, 87680, Note_on_c, 12, 69, 104
20, 87680, Note_on_c, 12, 72, 104
20, 87680, Note_on_c, 12, 48, 116
20, 87680, Note_on_c, 12, 58, 116
20, 87782, Note_off_c, 12, 62, 0
20, 87782, Note_off_c, 12, 66, 0
20, 87782, Note_off_c, 12, 69, 0
20, 87782, Note_off_c, 12, 72, 0
20, 87782, Note_off_c, 12, 48, 0
20, 87782, Note_off_c, 12, 58, 0
20, 87808, Note_on_c, 12, 62, 104
20, 87808, Note_on_c, 12, 66, 104
20, 87808, Note_on_c, 12, 69, 104
20, 87808, Note_on_c, 12, 72, 104
20, 87808, Note_on_c, 12, 48, 116
20, 87808, Note_on_c, 12, 58, 116
20, 87910, Note_off_c, 12, 62, 0
20, 87910, Note_off_c, 12, 66, 0
20, 87910, Note_off_c, 12, 69, 0
20, 87910, Note_off_c, 12, 72, 0
20, 87910, Note_off_c, 12, 48, 0
20, 87910, Note_off_c, 12, 58, 0
20, 87936, Note_on_c, 12, 62, 104
20, 87936, Note_on_c, 12, 66, 104
20, 87936, Note_on_c, 12, 69, 104
20, 87936, Note_on_c, 12, 72, 104
20, 87936, Note_on_c, 12, 48, 116
20, 87936, Note_on_c, 12, 58, 116
20, 88038, Note_off_c, 12, 62, 0
20, 88038, Note_off_c, 12, 66, 0
20, 88038, Note_off_c, 12, 69, 0
20, 88038, Note_off_c, 12, 72, 0
20, 88038, Note_off_c, 12, 48, 0
20, 88038, Note_off_c, 12, 58, 0
20, 88064, Note_on_c, 12, 48, 127
20, 88064, Note_on_c, 12, 58, 127
20, 88064, Note_on_c, 12, 63, 127
20, 88064, Note_on_c, 12, 65, 127
20, 88064, Note_on_c, 12, 69, 127
20, 88166, Note_off_c, 12, 48, 0
20, 88166, Note_off_c, 12, 58, 0
20, 88166, Note_off_c, 12, 63, 0
20, 88166, Note_off_c, 12, 65, 0
20, 88166, Note_off_c, 12, 69, 0
20, 88192, Note_on_c, 12, 48, 127
20, 88192, Note_on_c, 12, 58, 127
20, 88192, Note_on_c, 12, 63, 127
20, 88192, Note_on_c, 12, 65, 127
20, 88192, Note_on_c, 12, 69, 127
20, 88294, Note_off_c, 12, 48, 0
20, 88294, Note_off_c, 12, 58, 0
20, 88294, Note_off_c, 12, 63, 0
20, 88294, Note_off_c, 12, 65, 0
20, 88294, Note_off_c, 12, 69, 0
20, 88320, Note_on_c, 12, 48, 127
20, 88320, Note_on_c, 12, 58, 127
20, 88320, Note_on_c, 12, 63, 127
20, 88320, Note_on_c, 12, 65, 127
20, 88320, Note_on_c, 12, 69, 127
20, 88422, Note_off_c, 12, 48, 0
20, 88422, Note_off_c, 12, 58, 0
20, 88422, Note_off_c, 12, 63, 0
20, 88422, Note_off_c, 12, 65, 0
20, 88422, Note_off_c, 12, 69, 0
20, 88448, Note_on_c, 12, 45, 126
20, 88448, Note_on_c, 12, 52, 126
20, 88448, Note_on_c, 12, 59, 126
20, 88448, Note_on_c, 12, 64, 126
20, 88448, Note_on_c, 12, 65, 126
20, 88448, Note_on_c, 12, 68, 126
20, 88448, Note_on_c, 12, 71, 126
20, 88576, Note_off_c, 12, 45, 0
20, 88576, Note_off_c, 12, 52, 0
20, 88576, Note_off_c, 12, 59, 0
20, 88576, Note_off_c, 12, 64, 0
20, 88576, Note_off_c, 12, 65, 0
20, 88576, Note_off_c, 12, 68, 0
20, 88576, Note_off_c, 12, 71, 0
20, 88576, Note_on_c, 12, 45, 117
20, 88576, Note_on_c, 12, 52, 117
20, 88576, Note_on_c, 12, 59, 117
20, 88576, Note_on_c, 12, 64, 117
20, 88576, Note_on_c, 12, 65, 117
20, 88576, Note_on_c, 12, 68, 117
20, 88576, Note_on_c, 12, 71, 117
20, 88678, Note_off_c, 12, 45, 0
20, 88678, Note_off_c, 12, 52, 0
20, 88678, Note_off_c, 12, 59, 0
20, 88678, Note_off_c, 12, 64, 0
20, 88678, Note_off_c, 12, 65, 0
20, 88678, Note_off_c, 12, 68, 0
20, 88678, Note_off_c, 12, 71, 0
20, 88704, Note_on_c, 12, 45, 117
20, 88704, Note_on_c, 12, 52, 117
20, 88704, Note_on_c, 12, 59, 117
20, 88704, Note_on_c, 12, 64, 117
20, 88704, Note_on_c, 12, 65, 117
20, 88704, Note_on_c, 12, 68, 117
20, 88704, Note_on_c, 12, 71, 117
20, 88806, Note_off_c, 12, 45, 0
20, 88806, Note_off_c, 12, 52, 0
20, 88806, Note_off_c, 12, 59, 0
20, 88806, Note_off_c, 12, 64, 0
20, 88806, Note_off_c, 12, 65, 0
20, 88806, Note_off_c, 12, 68, 0
20, 88806, Note_off_c, 12, 71, 0
20, 88832, Note_on_c, 12, 45, 117
20, 88832, Note_on_c, 12, 52, 117
20, 88832, Note_on_c, 12, 59, 117
20, 88832, Note_on_c, 12, 64, 117
20, 88832, Note_on_c, 12, 65, 117
20, 88832, Note_on_c, 12, 68, 117
20, 88832, Note_on_c, 12, 71, 117
20, 88934, Note_off_c, 12, 45, 0
20, 88934, Note_off_c, 12, 52, 0
20, 88934, Note_off_c, 12, 59, 0
20, 88934, Note_off_c, 12, 64, 0
20, 88934, Note_off_c, 12, 65, 0
20, 88934, Note_off_c, 12, 68, 0
20, 88934, Note_off_c, 12, 71, 0
20, 88960, Note_on_c, 12, 45, 117
20, 88960, Note_on_c, 12, 52, 117
20, 88960, Note_on_c, 12, 59, 117
20, 88960, Note_on_c, 12, 64, 117
20, 88960, Note_on_c, 12, 65, 117
20, 88960, Note_on_c, 12, 68, 117
20, 88960, Note_on_c, 12, 71, 117
20, 89062, Note_off_c, 12, 45, 0
20, 89062, Note_off_c, 12, 52, 0
20, 89062, Note_off_c, 12, 59, 0
20, 89062, Note_off_c, 12, 64, 0
20, 89062, Note_off_c, 12, 65, 0
20, 89062, Note_off_c, 12, 68, 0
20, 89062, Note_off_c, 12, 71, 0
20, 89088, Note_on_c, 12, 45, 112
20, 89088, Note_on_c, 12, 52, 112
20, 89088, Note_on_c, 12, 59, 112
20, 89088, Note_on_c, 12, 64, 112
20, 89088, Note_on_c, 12, 65, 112
20, 89088, Note_on_c, 12, 68, 112
20, 89088, Note_on_c, 12, 71, 112
20, 89216, Note_off_c, 12, 45, 0
20, 89216, Note_off_c, 12, 52, 0
20, 89216, Note_off_c, 12, 59, 0
20, 89216, Note_off_c, 12, 64, 0
20, 89216, Note_off_c, 12, 65, 0
20, 89216, Note_off_c, 12, 68, 0
20, 89216, Note_off_c, 12, 71, 0
20, 89216, Note_on_c, 12, 39, 127
20, 89216, Note_on_c, 12, 46, 127
20, 89216, Note_on_c, 12, 71, 127
20, 89216, Note_on_c, 12, 74, 127
20, 89216, Note_on_c, 12, 77, 127
20, 89318, Note_off_c, 12, 39, 0
20, 89318, Note_off_c, 12, 46, 0
20, 89318, Note_off_c, 12, 71, 0
20, 89318, Note_off_c, 12, 74, 0
20, 89318, Note_off_c, 12, 77, 0
20, 89344, Note_on_c, 12, 39, 127
20, 89344, Note_on_c, 12, 46, 127
20, 89344, Note_on_c, 12, 71, 127
20, 89344, Note_on_c, 12, 74, 127
20, 89344, Note_on_c, 12, 77, 127
20, 89446, Note_off_c, 12, 39, 0
20, 89446, Note_off_c, 12, 46, 0
20, 89446, Note_off_c, 12, 71, 0
20, 89446, Note_off_c, 12, 74, 0
20, 89446, Note_off_c, 12, 77, 0
20, 89472, Note_on_c, 12, 39, 127
20, 89472, Note_on_c, 12, 46, 127
20, 89472, Note_on_c, 12, 71, 127
20, 89472, Note_on_c, 12, 74, 127
20, 89472, Note_on_c, 12, 77, 127
20, 89574, Note_off_c, 12, 39, 0
20, 89574, Note_off_c, 12, 46, 0
20, 89574, Note_off_c, 12, 71, 0
20, 89574, Note_off_c, 12, 74, 0
20, 89574, Note_off_c, 12, 77, 0
20, 89600, Note_on_c, 12, 39, 114
20, 89600, Note_on_c, 12, 46, 114
20, 89600, Note_on_c, 12, 71, 114
20, 89600, Note_on_c, 12, 74, 114
20, 89600, Note_on_c, 12, 77, 114
20, 89702, Note_off_c, 12, 39, 0
20, 89702, Note_off_c, 12, 46, 0
20, 89702, Note_off_c, 12, 71, 0
20, 89702, Note_off_c, 12, 74, 0
20, 89702, Note_off_c, 12, 77, 0
20, 89728, Note_on_c, 12, 39, 114
20, 89728, Note_on_c, 12, 46, 114
20, 89728, Note_on_c, 12, 71, 114
20, 89728, Note_on_c, 12, 74, 114
20, 89728, Note_on_c, 12, 77, 114
20, 89830, Note_off_c, 12, 39, 0
20, 89830, Note_off_c, 12, 46, 0
20, 89830, Note_off_c, 12, 71, 0
20, 89830, Note_off_c, 12, 74, 0
20, 89830, Note_off_c, 12, 77, 0
20, 89856, Note_on_c, 12, 39, 114
20, 89856, Note_on_c, 12, 46, 114
20, 89856, Note_on_c, 12, 71, 114
20, 89856, Note_on_c, 12, 74, 114
20, 89856, Note_on_c, 12, 77, 114
20, 89958, Note_off_c, 12, 39, 0
20, 89958, Note_off_c, 12, 46, 0
20, 89958, Note_off_c, 12, 71, 0
20, 89958, Note_off_c, 12, 74, 0
20, 89958, Note_off_c, 12, 77, 0
20, 89984, Note_on_c, 12, 39, 114
20, 89984, Note_on_c, 12, 46, 114
20, 89984, Note_on_c, 12, 71, 114
20, 89984, Note_on_c, 12, 74, 114
20, 89984, Note_on_c, 12, 77, 114
20, 90086, Note_off_c, 12, 39, 0
20, 90086, Note_off_c, 12, 46, 0
20, 90086, Note_off_c, 12, 71, 0
20, 90086, Note_off_c, 12, 74, 0
20, 90086, Note_off_c, 12, 77, 0
20, 90112, Note_on_c, 12, 39, 110
20, 90112, Note_on_c, 12, 46, 110
20, 90112, Note_on_c, 12, 71, 110
20, 90112, Note_on_c, 12, 74, 110
20, 90112, Note_on_c, 12, 77, 110
20, 90214, Note_off_c, 12, 39, 0
20, 90214, Note_off_c, 12, 46, 0
20, 90214, Note_off_c, 12, 71, 0
20, 90214, Note_off_c, 12, 74, 0
20, 90214, Note_off_c, 12, 77, 0
20, 90240, Note_on_c, 12, 39, 110
20, 90240, Note_on_c, 12, 46, 110
20, 90240, Note_on_c, 12, 71, 110
20, 90240, Note_on_c, 12, 74, 110
20, 90240, Note_on_c, 12, 77, 110
20, 90342, Note_off_c, 12, 39, 0
20, 90342, Note_off_c, 12, 46, 0
20, 90342, Note_off_c, 12, 71, 0
20, 90342, Note_off_c, 12, 74, 0
20, 90342, Note_off_c, 12, 77, 0
20, 90368, Note_on_c, 12, 39, 110
20, 90368, Note_on_c, 12, 46, 110
20, 90368, Note_on_c, 12, 71, 110
20, 90368, Note_on_c, 12, 74, 110
20, 90368, Note_on_c, 12, 77, 110
20, 90470, Note_off_c, 12, 39, 0
20, 90470, Note_off_c, 12, 46, 0
20, 90470, Note_off_c, 12, 71, 0
20, 90470, Note_off_c, 12, 74, 0
20, 90470, Note_off_c, 12, 77, 0
20, 90496, Note_on_c, 12, 39, 110
20, 90496, Note_on_c, 12, 46, 110
20, 90496, Note_on_c, 12, 71, 110
20, 90496, Note_on_c, 12, 74, 110
20, 90496, Note_on_c, 12, 77, 110
20, 90598, Note_off_c, 12, 39, 0
20, 90598, Note_off_c, 12, 46, 0
20, 90598, Note_off_c, 12, 71, 0
20, 90598, Note_off_c, 12, 74, 0
20, 90598, Note_off_c, 12, 77, 0
20, 90624, Note_on_c, 12, 39, 115
20, 90624, Note_on_c, 12, 46, 115
20, 90624, Note_on_c, 12, 71, 115
20, 90624, Note_on_c, 12, 74, 115
20, 90624, Note_on_c, 12, 77, 115
20, 90752, Note_off_c, 12, 39, 0
20, 90752, Note_off_c, 12, 46, 0
20, 90752, Note_off_c, 12, 71, 0
20, 90752, Note_off_c, 12, 74, 0
20, 90752, Note_off_c, 12, 77, 0
20, 90752, Note_on_c, 12, 48, 102
20, 90752, Note_on_c, 12, 58, 102
20, 90752, Note_on_c, 12, 61, 102
20, 90752, Note_on_c, 12, 66, 102
20, 90752, Note_on_c, 12, 69, 102
20, 90752, Note_on_c, 12, 72, 102
20, 90854, Note_off_c, 12, 48, 0
20, 90854, Note_off_c, 12, 58, 0
20, 90854, Note_off_c, 12, 61, 0
20, 90854, Note_off_c, 12, 66, 0
20, 90854, Note_off_c, 12, 69, 0
20, 90854, Note_off_c, 12, 72, 0
20, 90880, Note_on_c, 12, 48, 102
20, 90880, Note_on_c, 12, 58, 102
20, 90880, Note_on_c, 12, 61, 102
20, 90880, Note_on_c, 12, 66, 102
20, 90880, Note_on_c, 12, 69, 102
20, 90880, Note_on_c, 12, 72, 102
20, 90982, Note_off_c, 12, 48, 0
20, 90982, Note_off_c, 12, 58, 0
20, 90982, Note_off_c, 12, 61, 0
20, 90982, Note_off_c, 12, 66, 0
20, 90982, Note_off_c, 12, 69, 0
20, 90982, Note_off_c, 12, 72, 0
20, 91008, Note_on_c, 12, 48, 102
20, 91008, Note_on_c, 12, 58, 102
20, 91008, Note_on_c, 12, 61, 102
20, 91008, Note_on_c, 12, 66, 102
20, 91008, Note_on_c, 12, 69, 102
20, 91008, Note_on_c, 12, 72, 102
20, 91110, Note_off_c, 12, 48, 0
20, 91110, Note_off_c, 12, 58, 0
20, 91110, Note_off_c, 12, 61, 0
20, 91110, Note_off_c, 12, 66, 0
20, 91110, Note_off_c, 12, 69, 0
20, 91110, Note_off_c, 12, 72, 0
20, 91136, Note_on_c, 12, 48, 111
20, 91136, Note_on_c, 12, 58, 111
20, 91136, Note_on_c, 12, 61, 111
20, 91136, Note_on_c, 12, 66, 111
20, 91136, Note_on_c, 12, 69, 111
20, 91136, Note_on_c, 12, 72, 111
20, 91238, Note_off_c, 12, 48, 0
20, 91238, Note_off_c, 12, 58, 0
20, 91238, Note_off_c, 12, 61, 0
20, 91238, Note_off_c, 12, 66, 0
20, 91238, Note_off_c, 12, 69, 0
20, 91238, Note_off_c, 12, 72, 0
20, 91264, Note_on_c, 12, 48, 111
20, 91264, Note_on_c, 12, 58, 111
20, 91264, Note_on_c, 12, 61, 111
20, 91264, Note_on_c, 12, 66, 111
20, 91264, Note_on_c, 12, 69, 111
20, 91264, Note_on_c, 12, 72, 111
20, 91366, Note_off_c, 12, 48, 0
20, 91366, Note_off_c, 12, 58, 0
20, 91366, Note_off_c, 12, 61, 0
20, 91366, Note_off_c, 12, 66, 0
20, 91366, Note_off_c, 12, 69, 0
20, 91366, Note_off_c, 12, 72, 0
20, 91392, Note_on_c, 12, 48, 111
20, 91392, Note_on_c, 12, 58, 111
20, 91392, Note_on_c, 12, 61, 111
20, 91392, Note_on_c, 12, 66, 111
20, 91392, Note_on_c, 12, 69, 111
20, 91392, Note_on_c, 12, 72, 111
20, 91494, Note_off_c, 12, 48, 0
20, 91494, Note_off_c, 12, 58, 0
20, 91494, Note_off_c, 12, 61, 0
20, 91494, Note_off_c, 12, 66, 0
20, 91494, Note_off_c, 12, 69, 0
20, 91494, Note_off_c, 12, 72, 0
20, 91520, Note_on_c, 12, 48, 111
20, 91520, Note_on_c, 12, 58, 111
20, 91520, Note_on_c, 12, 61, 111
20, 91520, Note_on_c, 12, 66, 111
20, 91520, Note_on_c, 12, 69, 111
20, 91520, Note_on_c, 12, 72, 111
20, 91622, Note_off_c, 12, 48, 0
20, 91622, Note_off_c, 12, 58, 0
20, 91622, Note_off_c, 12, 61, 0
20, 91622, Note_off_c, 12, 66, 0
20, 91622, Note_off_c, 12, 69, 0
20, 91622, Note_off_c, 12, 72, 0
20, 91648, Note_on_c, 12, 48, 112
20, 91648, Note_on_c, 12, 58, 112
20, 91648, Note_on_c, 12, 61, 112
20, 91648, Note_on_c, 12, 66, 112
20, 91648, Note_on_c, 12, 69, 112
20, 91648, Note_on_c, 12, 72, 112
20, 91750, Note_off_c, 12, 48, 0
20, 91750, Note_off_c, 12, 58, 0
20, 91750, Note_off_c, 12, 61, 0
20, 91750, Note_off_c, 12, 66, 0
20, 91750, Note_off_c, 12, 69, 0
20, 91750, Note_off_c, 12, 72, 0
20, 91776, Note_on_c, 12, 48, 112
20, 91776, Note_on_c, 12, 58, 112
20, 91776, Note_on_c, 12, 61, 112
20, 91776, Note_on_c, 12, 66, 112
20, 91776, Note_on_c, 12, 69, 112
20, 91776, Note_on_c, 12, 72, 112
20, 91878, Note_off_c, 12, 48, 0
20, 91878, Note_off_c, 12, 58, 0
20, 91878, Note_off_c, 12, 61, 0
20, 91878, Note_off_c, 12, 66, 0
20, 91878, Note_off_c, 12, 69, 0
20, 91878, Note_off_c, 12, 72, 0
20, 91904, Note_on_c, 12, 48, 112
20, 91904, Note_on_c, 12, 58, 112
20, 91904, Note_on_c, 12, 61, 112
20, 91904, Note_on_c, 12, 66, 112
20, 91904, Note_on_c, 12, 69, 112
20, 91904, Note_on_c, 12, 72, 112
20, 92006, Note_off_c, 12, 48, 0
20, 92006, Note_off_c, 12, 58, 0
20, 92006, Note_off_c, 12, 61, 0
20, 92006, Note_off_c, 12, 66, 0
20, 92006, Note_off_c, 12, 69, 0
20, 92006, Note_off_c, 12, 72, 0
20, 92032, Note_on_c, 12, 48, 112
20, 92032, Note_on_c, 12, 58, 112
20, 92032, Note_on_c, 12, 61, 112
20, 92032, Note_on_c, 12, 66, 112
20, 92032, Note_on_c, 12, 69, 112
20, 92032, Note_on_c, 12, 72, 112
20, 92134, Note_off_c, 12, 48, 0
20, 92134, Note_off_c, 12, 58, 0
20, 92134, Note_off_c, 12, 61, 0
20, 92134, Note_off_c, 12, 66, 0
20, 92134, Note_off_c, 12, 69, 0
20, 92134, Note_off_c, 12, 72, 0
20, 92160, Note_on_c, 12, 48, 113
20, 92160, Note_on_c, 12, 59, 113
20, 92160, Note_on_c, 12, 62, 113
20, 92160, Note_on_c, 12, 65, 113
20, 92160, Note_on_c, 12, 69, 113
20, 92160, Note_on_c, 12, 72, 113
20, 92288, Note_off_c, 12, 48, 0
20, 92288, Note_off_c, 12, 59, 0
20, 92288, Note_off_c, 12, 62, 0
20, 92288, Note_off_c, 12, 65, 0
20, 92288, Note_off_c, 12, 69, 0
20, 92288, Note_off_c, 12, 72, 0
20, 105856, Note_on_c, 12, 56, 48
20, 105856, Note_on_c, 12, 60, 48
20, 105856, Note_on_c, 12, 63, 48
20, 106048, Note_off_c, 12, 56, 0
20, 106048, Note_off_c, 12, 60, 0
20, 106048, Note_off_c, 12, 63, 0
20, 106048, Note_on_c, 12, 56, 58
20, 106048, Note_on_c, 12, 60, 58
20, 106048, Note_on_c, 12, 63, 58
20, 106240, Note_off_c, 12, 56, 0
20, 106240, Note_off_c, 12, 60, 0
20, 106240, Note_off_c, 12, 63, 0
20, 106240, Note_on_c, 12, 56, 56
20, 106240, Note_on_c, 12, 60, 56
20, 106240, Note_on_c, 12, 63, 56
20, 106432, Note_off_c, 12, 56, 0
20, 106432, Note_off_c, 12, 60, 0
20, 106432, Note_off_c, 12, 63, 0
20, 106432, Note_on_c, 12, 56, 58
20, 106432, Note_on_c, 12, 60, 58
20, 106432, Note_on_c, 12, 63, 58
20, 106624, Note_off_c, 12, 56, 0
20, 106624, Note_off_c, 12, 60, 0
20, 106624, Note_off_c, 12, 63, 0
20, 106624, Note_on_c, 12, 56, 60
20, 106624, Note_on_c, 12, 60, 60
20, 106624, Note_on_c, 12, 63, 60
20, 106816, Note_off_c, 12, 56, 0
20, 106816, Note_off_c, 12, 60, 0
20, 106816, Note_off_c, 12, 63, 0
20, 106816, Note_on_c, 12, 56, 60
20, 106816, Note_on_c, 12, 60, 60
20, 106816, Note_on_c, 12, 63, 60
20, 107008, Note_off_c, 12, 56, 0
20, 107008, Note_off_c, 12, 60, 0
20, 107008, Note_off_c, 12, 63, 0
20, 107008, Note_on_c, 12, 56, 56
20, 107008, Note_on_c, 12, 60, 56
20, 107008, Note_on_c, 12, 63, 56
20, 107200, Note_off_c, 12, 56, 0
20, 107200, Note_off_c, 12, 60, 0
20, 107200, Note_off_c, 12, 63, 0
20, 107200, Note_on_c, 12, 56, 58
20, 107200, Note_on_c, 12, 60, 58
20, 107200, Note_on_c, 12, 63, 58
20, 107392, Note_off_c, 12, 56, 0
20, 107392, Note_off_c, 12, 60, 0
20, 107392, Note_off_c, 12, 63, 0
20, 107392, Note_on_c, 12, 56, 66
20, 107392, Note_on_c, 12, 60, 66
20, 107392, Note_on_c, 12, 63, 66
20, 107584, Note_off_c, 12, 56, 0
20, 107584, Note_off_c, 12, 60, 0
20, 107584, Note_off_c, 12, 63, 0
20, 107584, Note_on_c, 12, 56, 59
20, 107584, Note_on_c, 12, 60, 59
20, 107584, Note_on_c, 12, 63, 59
20, 107776, Note_off_c, 12, 56, 0
20, 107776, Note_off_c, 12, 60, 0
20, 107776, Note_off_c, 12, 63, 0
20, 107776, Note_on_c, 12, 56, 60
20, 107776, Note_on_c, 12, 60, 60
20, 107776, Note_on_c, 12, 63, 60
20, 107968, Note_off_c, 12, 56, 0
20, 107968, Note_off_c, 12, 60, 0
20, 107968, Note_off_c, 12, 63, 0
20, 107968, Note_on_c, 12, 56, 59
20, 107968, Note_on_c, 12, 60, 59
20, 107968, Note_on_c, 12, 63, 59
20, 108160, Note_off_c, 12, 56, 0
20, 108160, Note_off_c, 12, 60, 0
20, 108160, Note_off_c, 12, 63, 0
20, 108160, Note_on_c, 12, 56, 68
20, 108160, Note_on_c, 12, 60, 68
20, 108160, Note_on_c, 12, 63, 68
20, 108352, Note_off_c, 12, 56, 0
20, 108352, Note_off_c, 12, 60, 0
20, 108352, Note_off_c, 12, 63, 0
20, 108352, Note_on_c, 12, 56, 58
20, 108352, Note_on_c, 12, 60, 58
20, 108352, Note_on_c, 12, 63, 58
20, 108544, Note_off_c, 12, 56, 0
20, 108544, Note_off_c, 12, 60, 0
20, 108544, Note_off_c, 12, 63, 0
20, 108544, Note_on_c, 12, 56, 62
20, 108544, Note_on_c, 12, 60, 62
20, 108544, Note_on_c, 12, 63, 62
20, 108736, Note_off_c, 12, 56, 0
20, 108736, Note_off_c, 12, 60, 0
20, 108736, Note_off_c, 12, 63, 0
20, 108736, Note_on_c, 12, 56, 61
20, 108736, Note_on_c, 12, 60, 61
20, 108736, Note_on_c, 12, 63, 61
20, 108928, Note_off_c, 12, 56, 0
20, 108928, Note_off_c, 12, 60, 0
20, 108928, Note_off_c, 12, 63, 0
20, 108928, Note_on_c, 12, 56, 61
20, 108928, Note_on_c, 12, 60, 61
20, 108928, Note_on_c, 12, 63, 61
20, 109120, Note_off_c, 12, 56, 0
20, 109120, Note_off_c, 12, 60, 0
20, 109120, Note_off_c, 12, 63, 0
20, 109120, Note_on_c, 12, 56, 60
20, 109120, Note_on_c, 12, 60, 60
20, 109120, Note_on_c, 12, 63, 60
20, 109312, Note_off_c, 12, 56, 0
20, 109312, Note_off_c, 12, 60, 0
20, 109312, Note_off_c, 12, 63, 0
20, 109312, Note_on_c, 12, 56, 60
20, 109312, Note_on_c, 12, 60, 60
20, 109312, Note_on_c, 12, 63, 60
20, 109504, Note_off_c, 12, 56, 0
20, 109504, Note_off_c, 12, 60, 0
20, 109504, Note_off_c, 12, 63, 0
20, 109504, Note_on_c, 12, 56, 62
20, 109504, Note_on_c, 12, 60, 62
20, 109504, Note_on_c, 12, 63, 62
20, 109696, Note_off_c, 12, 56, 0
20, 109696, Note_off_c, 12, 60, 0
20, 109696, Note_off_c, 12, 63, 0
20, 109696, Note_on_c, 12, 56, 60
20, 109696, Note_on_c, 12, 60, 60
20, 109696, Note_on_c, 12, 63, 60
20, 109888, Note_off_c, 12, 56, 0
20, 109888, Note_off_c, 12, 60, 0
20, 109888, Note_off_c, 12, 63, 0
20, 109888, Note_on_c, 12, 56, 63
20, 109888, Note_on_c, 12, 60, 63
20, 109888, Note_on_c, 12, 63, 63
20, 110080, Note_off_c, 12, 56, 0
20, 110080, Note_off_c, 12, 60, 0
20, 110080, Note_off_c, 12, 63, 0
20, 110080, Note_on_c, 12, 56, 63
20, 110080, Note_on_c, 12, 60, 63
20, 110080, Note_on_c, 12, 63, 63
20, 110272, Note_off_c, 12, 56, 0
20, 110272, Note_off_c, 12, 60, 0
20, 110272, Note_off_c, 12, 63, 0
20, 110272, Note_on_c, 12, 56, 57
20, 110272, Note_on_c, 12, 60, 57
20, 110272, Note_on_c, 12, 63, 57
20, 110464, Note_off_c, 12, 56, 0
20, 110464, Note_off_c, 12, 60, 0
20, 110464, Note_off_c, 12, 63, 0
20, 110464, Note_on_c, 12, 56, 65
20, 110464, Note_on_c, 12, 60, 65
20, 110464, Note_on_c, 12, 63, 65
20, 110656, Note_off_c, 12, 56, 0
20, 110656, Note_off_c, 12, 60, 0
20, 110656, Note_off_c, 12, 63, 0
20, 110656, Note_on_c, 12, 56, 60
20, 110656, Note_on_c, 12, 60, 60
20, 110656, Note_on_c, 12, 63, 60
20, 110848, Note_off_c, 12, 56, 0
20, 110848, Note_off_c, 12, 60, 0
20, 110848, Note_off_c, 12, 63, 0
20, 110848, Note_on_c, 12, 56, 60
20, 110848, Note_on_c, 12, 60, 60
20, 110848, Note_on_c, 12, 63, 60
20, 111040, Note_off_c, 12, 56, 0
20, 111040, Note_off_c, 12, 60, 0
20, 111040, Note_off_c, 12, 63, 0
20, 111040, Note_on_c, 12, 56, 60
20, 111040, Note_on_c, 12, 60, 60
20, 111040, Note_on_c, 12, 63, 60
20, 111232, Note_off_c, 12, 56, 0
20, 111232, Note_off_c, 12, 60, 0
20, 111232, Note_off_c, 12, 63, 0
20, 111232, Note_on_c, 12, 56, 60
20, 111232, Note_on_c, 12, 60, 60
20, 111232, Note_on_c, 12, 63, 60
20, 111424, Note_off_c, 12, 56, 0
20, 111424, Note_off_c, 12, 60, 0
20, 111424, Note_off_c, 12, 63, 0
20, 111424, Note_on_c, 12, 56, 60
20, 111424, Note_on_c, 12, 60, 60
20, 111424, Note_on_c, 12, 63, 60
20, 111616, Note_off_c, 12, 56, 0
20, 111616, Note_off_c, 12, 60, 0
20, 111616, Note_off_c, 12, 63, 0
20, 111616, Note_on_c, 12, 57, 65
20, 111616, Note_on_c, 12, 60, 65
20, 111616, Note_on_c, 12, 65, 65
20, 111808, Note_off_c, 12, 57, 0
20, 111808, Note_off_c, 12, 60, 0
20, 111808, Note_off_c, 12, 65, 0
20, 111808, Note_on_c, 12, 57, 61
20, 111808, Note_on_c, 12, 60, 61
20, 111808, Note_on_c, 12, 65, 61
20, 112000, Note_off_c, 12, 57, 0
20, 112000, Note_off_c, 12, 60, 0
20, 112000, Note_off_c, 12, 65, 0
20, 112000, Note_on_c, 12, 57, 62
20, 112000, Note_on_c, 12, 60, 62
20, 112000, Note_on_c, 12, 65, 62
20, 112192, Note_off_c, 12, 57, 0
20, 112192, Note_off_c, 12, 60, 0
20, 112192, Note_off_c, 12, 65, 0
20, 112192, Note_on_c, 12, 57, 63
20, 112192, Note_on_c, 12, 60, 63
20, 112192, Note_on_c, 12, 65, 63
20, 112384, Note_off_c, 12, 57, 0
20, 112384, Note_off_c, 12, 60, 0
20, 112384, Note_off_c, 12, 65, 0
20, 112384, Note_on_c, 12, 57, 58
20, 112384, Note_on_c, 12, 60, 58
20, 112384, Note_on_c, 12, 65, 58
20, 112576, Note_off_c, 12, 57, 0
20, 112576, Note_off_c, 12, 60, 0
20, 112576, Note_off_c, 12, 65, 0
20, 112576, Note_on_c, 12, 57, 62
20, 112576, Note_on_c, 12, 60, 62
20, 112576, Note_on_c, 12, 65, 62
20, 112768, Note_off_c, 12, 57, 0
20, 112768, Note_off_c, 12, 60, 0
20, 112768, Note_off_c, 12, 65, 0
20, 112768, Note_on_c, 12, 57, 60
20, 112768, Note_on_c, 12, 60, 60
20, 112768, Note_on_c, 12, 65, 60
20, 112960, Note_off_c, 12, 57, 0
20, 112960, Note_off_c, 12, 60, 0
20, 112960, Note_off_c, 12, 65, 0
20, 112960, Note_on_c, 12, 57, 59
20, 112960, Note_on_c, 12, 60, 59
20, 112960, Note_on_c, 12, 65, 59
20, 113152, Note_off_c, 12, 57, 0
20, 113152, Note_off_c, 12, 60, 0
20, 113152, Note_off_c, 12, 65, 0
20, 113152, Note_on_c, 12, 57, 59
20, 113152, Note_on_c, 12, 60, 59
20, 113152, Note_on_c, 12, 65, 59
20, 113344, Note_off_c, 12, 57, 0
20, 113344, Note_off_c, 12, 60, 0
20, 113344, Note_off_c, 12, 65, 0
20, 113344, Note_on_c, 12, 57, 62
20, 113344, Note_on_c, 12, 61, 62
20, 113344, Note_on_c, 12, 66, 62
20, 113536, Note_off_c, 12, 57, 0
20, 113536, Note_off_c, 12, 61, 0
20, 113536, Note_off_c, 12, 66, 0
20, 113536, Note_on_c, 12, 57, 62
20, 113536, Note_on_c, 12, 61, 62
20, 113536, Note_on_c, 12, 66, 62
20, 113728, Note_off_c, 12, 57, 0
20, 113728, Note_off_c, 12, 61, 0
20, 113728, Note_off_c, 12, 66, 0
20, 113728, Note_on_c, 12, 57, 64
20, 113728, Note_on_c, 12, 61, 64
20, 113728, Note_on_c, 12, 66, 64
20, 113920, Note_off_c, 12, 57, 0
20, 113920, Note_off_c, 12, 61, 0
20, 113920, Note_off_c, 12, 66, 0
20, 113920, Note_on_c, 12, 57, 60
20, 113920, Note_on_c, 12, 61, 60
20, 113920, Note_on_c, 12, 66, 60
20, 114112, Note_off_c, 12, 57, 0
20, 114112, Note_off_c, 12, 61, 0
20, 114112, Note_off_c, 12, 66, 0
20, 114112, Note_on_c, 12, 58, 59
20, 114112, Note_on_c, 12, 61, 59
20, 114112, Note_on_c, 12, 65, 59
20, 114304, Note_off_c, 12, 58, 0
20, 114304, Note_off_c, 12, 61, 0
20, 114304, Note_off_c, 12, 65, 0
20, 114304, Note_on_c, 12, 58, 61
20, 114304, Note_on_c, 12, 61, 61
20, 114304, Note_on_c, 12, 65, 61
20, 114496, Note_off_c, 12, 58, 0
20, 114496, Note_off_c, 12, 61, 0
20, 114496, Note_off_c, 12, 65, 0
20, 114496, Note_on_c, 12, 58, 60
20, 114496, Note_on_c, 12, 61, 60
20, 114496, Note_on_c, 12, 65, 60
20, 114688, Note_off_c, 12, 58, 0
20, 114688, Note_off_c, 12, 61, 0
20, 114688, Note_off_c, 12, 65, 0
20, 114688, Note_on_c, 12, 58, 61
20, 114688, Note_on_c, 12, 61, 61
20, 114688, Note_on_c, 12, 65, 61
20, 114880, Note_off_c, 12, 58, 0
20, 114880, Note_off_c, 12, 61, 0
20, 114880, Note_off_c, 12, 65, 0
20, 114880, Note_on_c, 12, 58, 64
20, 114880, Note_on_c, 12, 61, 64
20, 114880, Note_on_c, 12, 65, 64
20, 115072, Note_off_c, 12, 58, 0
20, 115072, Note_off_c, 12, 61, 0
20, 115072, Note_off_c, 12, 65, 0
20, 115072, Note_on_c, 12, 57, 57
20, 115072, Note_on_c, 12, 62, 57
20, 115072, Note_on_c, 12, 65, 57
20, 115264, Note_off_c, 12, 57, 0
20, 115264, Note_off_c, 12, 62, 0
20, 115264, Note_off_c, 12, 65, 0
20, 115264, Note_on_c, 12, 57, 62
20, 115264, Note_on_c, 12, 62, 62
20, 115264, Note_on_c, 12, 65, 62
20, 115456, Note_off_c, 12, 57, 0
20, 115456, Note_off_c, 12, 62, 0
20, 115456, Note_off_c, 12, 65, 0
20, 115456, Note_on_c, 12, 57, 61
20, 115456, Note_on_c, 12, 62, 61
20, 115456, Note_on_c, 12, 65, 61
20, 115648, Note_off_c, 12, 57, 0
20, 115648, Note_off_c, 12, 62, 0
20, 115648, Note_off_c, 12, 65, 0
20, 115648, Note_on_c, 12, 57, 61
20, 115648, Note_on_c, 12, 61, 61
20, 115648, Note_on_c, 12, 66, 61
20, 115840, Note_off_c, 12, 57, 0
20, 115840, Note_off_c, 12, 61, 0
20, 115840, Note_off_c, 12, 66, 0
20, 115840, Note_on_c, 12, 57, 62
20, 115840, Note_on_c, 12, 61, 62
20, 115840, Note_on_c, 12, 66, 62
20, 116032, Note_off_c, 12, 57, 0
20, 116032, Note_off_c, 12, 61, 0
20, 116032, Note_off_c, 12, 66, 0
20, 116032, Note_on_c, 12, 57, 62
20, 116032, Note_on_c, 12, 61, 62
20, 116032, Note_on_c, 12, 66, 62
20, 116224, Note_off_c, 12, 57, 0
20, 116224, Note_off_c, 12, 61, 0
20, 116224, Note_off_c, 12, 66, 0
20, 116224, Note_on_c, 12, 57, 60
20, 116224, Note_on_c, 12, 61, 60
20, 116224, Note_on_c, 12, 66, 60
20, 116416, Note_off_c, 12, 57, 0
20, 116416, Note_off_c, 12, 61, 0
20, 116416, Note_off_c, 12, 66, 0
20, 116416, Note_on_c, 12, 58, 54
20, 116416, Note_on_c, 12, 61, 54
20, 116416, Note_on_c, 12, 65, 54
20, 116608, Note_off_c, 12, 58, 0
20, 116608, Note_off_c, 12, 61, 0
20, 116608, Note_off_c, 12, 65, 0
20, 116608, Note_on_c, 12, 58, 63
20, 116608, Note_on_c, 12, 61, 63
20, 116608, Note_on_c, 12, 65, 63
20, 116800, Note_off_c, 12, 58, 0
20, 116800, Note_off_c, 12, 61, 0
20, 116800, Note_off_c, 12, 65, 0
20, 116800, Note_on_c, 12, 58, 59
20, 116800, Note_on_c, 12, 61, 59
20, 116800, Note_on_c, 12, 65, 59
20, 116992, Note_off_c, 12, 58, 0
20, 116992, Note_off_c, 12, 61, 0
20, 116992, Note_off_c, 12, 65, 0
20, 116992, Note_on_c, 12, 58, 62
20, 116992, Note_on_c, 12, 61, 62
20, 116992, Note_on_c, 12, 65, 62
20, 117184, Note_off_c, 12, 58, 0
20, 117184, Note_off_c, 12, 61, 0
20, 117184, Note_off_c, 12, 65, 0
20, 117184, Note_on_c, 12, 58, 66
20, 117184, Note_on_c, 12, 61, 66
20, 117184, Note_on_c, 12, 65, 66
20, 117376, Note_off_c, 12, 58, 0
20, 117376, Note_off_c, 12, 61, 0
20, 117376, Note_off_c, 12, 65, 0
20, 117376, Note_on_c, 12, 58, 63
20, 117376, Note_on_c, 12, 61, 63
20, 117376, Note_on_c, 12, 65, 63
20, 117568, Note_off_c, 12, 58, 0
20, 117568, Note_off_c, 12, 61, 0
20, 117568, Note_off_c, 12, 65, 0
20, 117568, Note_on_c, 12, 58, 66
20, 117568, Note_on_c, 12, 61, 66
20, 117568, Note_on_c, 12, 65, 66
20, 117696, Note_off_c, 12, 58, 0
20, 117696, Note_off_c, 12, 61, 0
20, 117696, Note_off_c, 12, 65, 0
20, 117696, Note_on_c, 12, 58, 62
20, 117696, Note_on_c, 12, 61, 62
20, 117696, Note_on_c, 12, 65, 62
20, 117888, Note_off_c, 12, 58, 0
20, 117888, Note_off_c, 12, 61, 0
20, 117888, Note_off_c, 12, 65, 0
20, 117888, Note_on_c, 12, 58, 61
20, 117888, Note_on_c, 12, 61, 61
20, 117888, Note_on_c, 12, 65, 61
20, 118080, Note_off_c, 12, 58, 0
20, 118080, Note_off_c, 12, 61, 0
20, 118080, Note_off_c, 12, 65, 0
20, 118080, Note_on_c, 12, 58, 62
20, 118080, Note_on_c, 12, 61, 62
20, 118080, Note_on_c, 12, 65, 62
20, 118272, Note_off_c, 12, 58, 0
20, 118272, Note_off_c, 12, 61, 0
20, 118272, Note_off_c, 12, 65, 0
20, 118272, Note_on_c, 12, 58, 57
20, 118272, Note_on_c, 12, 61, 57
20, 118272, Note_on_c, 12, 65, 57
20, 118464, Note_off_c, 12, 58, 0
20, 118464, Note_off_c, 12, 61, 0
20, 118464, Note_off_c, 12, 65, 0
20, 118464, Note_on_c, 12, 58, 54
20, 118464, Note_on_c, 12, 61, 54
20, 118464, Note_on_c, 12, 65, 54
20, 118592, Note_off_c, 12, 58, 0
20, 118592, Note_off_c, 12, 61, 0
20, 118592, Note_off_c, 12, 65, 0
20, 118592, Note_on_c, 12, 58, 54
20, 118592, Note_on_c, 12, 61, 54
20, 118592, Note_on_c, 12, 65, 54
20, 118784, Note_off_c, 12, 58, 0
20, 118784, Note_off_c, 12, 61, 0
20, 118784, Note_off_c, 12, 65, 0
20, 118784, Note_on_c, 12, 58, 51
20, 118784, Note_on_c, 12, 61, 51
20, 118784, Note_on_c, 12, 65, 51
20, 118976, Note_off_c, 12, 58, 0
20, 118976, Note_off_c, 12, 61, 0
20, 118976, Note_off_c, 12, 65, 0
20, 118976, Note_on_c, 12, 58, 48
20, 118976, Note_on_c, 12, 61, 48
20, 118976, Note_on_c, 12, 65, 48
20, 119168, Note_off_c, 12, 58, 0
20, 119168, Note_off_c, 12, 61, 0
20, 119168, Note_off_c, 12, 65, 0
20, 119168, Note_on_c, 12, 58, 46
20, 119168, Note_on_c, 12, 61, 46
20, 119168, Note_on_c, 12, 65, 46
20, 119360, Note_off_c, 12, 58, 0
20, 119360, Note_off_c, 12, 61, 0
20, 119360, Note_off_c, 12, 65, 0
20, 119360, Note_on_c, 12, 58, 35
20, 119360, Note_on_c, 12, 61, 35
20, 119360, Note_on_c, 12, 65, 35
20, 119552, Note_off_c, 12, 58, 0
20, 119552, Note_off_c, 12, 61, 0
20, 119552, Note_off_c, 12, 65, 0
20, 219392, Note_on_c, 12, 45, 79
20, 219428, Note_off_c, 12, 45, 0
20, 219428, Note_on_c, 12, 46, 82
20, 219465, Note_off_c, 12, 46, 0
20, 219465, Note_on_c, 12, 48, 85
20, 219501, Note_off_c, 12, 48, 0
20, 219501, Note_on_c, 12, 50, 90
20, 219538, Note_off_c, 12, 50, 0
20, 219538, Note_on_c, 12, 52, 89
20, 219574, Note_off_c, 12, 52, 0
20, 219574, Note_on_c, 12, 54, 88
20, 219611, Note_off_c, 12, 54, 0
20, 219611, Note_on_c, 12, 55, 84
20, 219648, Note_off_c, 12, 55, 0
20, 219648, Note_on_c, 12, 57, 91
20, 219648, Note_on_c, 12, 45, 75
20, 219680, Note_off_c, 12, 57, 0
20, 219680, Note_on_c, 12, 58, 84
20, 219684, Note_off_c, 12, 45, 0
20, 219684, Note_on_c, 12, 46, 84
20, 219712, Note_off_c, 12, 58, 0
20, 219712, Note_on_c, 12, 60, 92
20, 219721, Note_off_c, 12, 46, 0
20, 219721, Note_on_c, 12, 48, 83
20, 219744, Note_off_c, 12, 60, 0
20, 219744, Note_on_c, 12, 62, 92
20, 219757, Note_off_c, 12, 48, 0
20, 219757, Note_on_c, 12, 50, 87
20, 219776, Note_off_c, 12, 62, 0
20, 219776, Note_on_c, 12, 64, 89
20, 219794, Note_off_c, 12, 50, 0
20, 219794, Note_on_c, 12, 52, 85
20, 219808, Note_off_c, 12, 64, 0
20, 219808, Note_on_c, 12, 66, 91
20, 219830, Note_off_c, 12, 52, 0
20, 219830, Note_on_c, 12, 54, 86
20, 219840, Note_off_c, 12, 66, 0
20, 219840, Note_on_c, 12, 67, 87
20, 219867, Note_off_c, 12, 54, 0
20, 219867, Note_on_c, 12, 55, 86
20, 219872, Note_off_c, 12, 67, 0
20, 219872, Note_on_c, 12, 69, 90
20, 219904, Note_off_c, 12, 69, 0
20, 219904, Note_off_c, 12, 55, 0
20, 219904, Note_on_c, 12, 70, 89
20, 219904, Note_on_c, 12, 57, 87
20, 219936, Note_off_c, 12, 57, 0
20, 219936, Note_on_c, 12, 58, 83
20, 219964, Note_off_c, 12, 70, 0
20, 219968, Note_off_c, 12, 58, 0
20, 219968, Note_on_c, 12, 60, 87
20, 220000, Note_off_c, 12, 60, 0
20, 220000, Note_on_c, 12, 62, 90
20, 220032, Note_off_c, 12, 62, 0
20, 220032, Note_on_c, 12, 48, 74
20, 220032, Note_on_c, 12, 64, 88
20, 220064, Note_off_c, 12, 64, 0
20, 220064, Note_on_c, 12, 66, 91
20, 220074, Note_off_c, 12, 48, 0
20, 220074, Note_on_c, 12, 50, 87
20, 220096, Note_off_c, 12, 66, 0
20, 220096, Note_on_c, 12, 67, 86
20, 220117, Note_off_c, 12, 50, 0
20, 220117, Note_on_c, 12, 52, 88
20, 220128, Note_off_c, 12, 67, 0
20, 220128, Note_on_c, 12, 69, 86
20, 220160, Note_off_c, 12, 52, 0
20, 220160, Note_off_c, 12, 69, 0
20, 220160, Note_on_c, 12, 54, 84
20, 220160, Note_on_c, 12, 70, 89
20, 220192, Note_off_c, 12, 54, 0
20, 220192, Note_on_c, 12, 55, 87
20, 220220, Note_off_c, 12, 70, 0
20, 220224, Note_off_c, 12, 55, 0
20, 220224, Note_on_c, 12, 57, 88
20, 220256, Note_off_c, 12, 57, 0
20, 220256, Note_on_c, 12, 58, 86
20, 220288, Note_off_c, 12, 58, 0
20, 220288, Note_on_c, 12, 60, 86
20, 220288, Note_on_c, 12, 52, 75
20, 220320, Note_off_c, 12, 60, 0
20, 220320, Note_on_c, 12, 62, 89
20, 220324, Note_off_c, 12, 52, 0
20, 220324, Note_on_c, 12, 54, 85
20, 220352, Note_off_c, 12, 62, 0
20, 220352, Note_on_c, 12, 64, 85
20, 220361, Note_off_c, 12, 54, 0
20, 220361, Note_on_c, 12, 55, 86
20, 220384, Note_off_c, 12, 64, 0
20, 220384, Note_on_c, 12, 66, 90
20, 220397, Note_off_c, 12, 55, 0
20, 220397, Note_on_c, 12, 57, 84
20, 220416, Note_off_c, 12, 66, 0
20, 220416, Note_on_c, 12, 67, 87
20, 220434, Note_off_c, 12, 57, 0
20, 220434, Note_on_c, 12, 58, 81
20, 220448, Note_off_c, 12, 67, 0
20, 220448, Note_on_c, 12, 69, 82
20, 220470, Note_off_c, 12, 58, 0
20, 220470, Note_on_c, 12, 60, 89
20, 220480, Note_off_c, 12, 69, 0
20, 220480, Note_on_c, 12, 70, 83
20, 220507, Note_off_c, 12, 60, 0
20, 220507, Note_on_c, 12, 62, 91
20, 220512, Note_off_c, 12, 70, 0
20, 220512, Note_on_c, 12, 72, 87
20, 220544, Note_off_c, 12, 72, 0
20, 220544, Note_off_c, 12, 62, 0
20, 220544, Note_on_c, 12, 74, 88
20, 220544, Note_on_c, 12, 64, 89
20, 220576, Note_off_c, 12, 64, 0
20, 220576, Note_on_c, 12, 66, 88
20, 220604, Note_off_c, 12, 74, 0
20, 220608, Note_off_c, 12, 66, 0
20, 220608, Note_on_c, 12, 67, 89
20, 220640, Note_off_c, 12, 67, 0
20, 220640, Note_on_c, 12, 69, 91
20, 220672, Note_off_c, 12, 69, 0
20, 220672, Note_on_c, 12, 54, 74
20, 220672, Note_on_c, 12, 70, 91
20, 220704, Note_off_c, 12, 70, 0
20, 220704, Note_on_c, 12, 72, 89
20, 220708, Note_off_c, 12, 54, 0
20, 220708, Note_on_c, 12, 55, 87
20, 220736, Note_off_c, 12, 72, 0
20, 220736, Note_on_c, 12, 74, 85
20, 220745, Note_off_c, 12, 55, 0
20, 220745, Note_on_c, 12, 57, 86
20, 220768, Note_off_c, 12, 74, 0
20, 220768, Note_on_c, 12, 76, 90
20, 220781, Note_off_c, 12, 57, 0
20, 220781, Note_on_c, 12, 58, 86
20, 220800, Note_off_c, 12, 76, 0
20, 220800, Note_on_c, 12, 78, 91
20, 220818, Note_off_c, 12, 58, 0
20, 220818, Note_on_c, 12, 60, 90
20, 220854, Note_off_c, 12, 60, 0
20, 220854, Note_on_c, 12, 62, 89
20, 220860, Note_off_c, 12, 78, 0
20, 220891, Note_off_c, 12, 62, 0
20, 220891, Note_on_c, 12, 64, 86
20, 220928, Note_off_c, 12, 64, 0
20, 220928, Note_on_c, 12, 66, 87
20, 220928, Note_on_c, 12, 57, 74
20, 220960, Note_off_c, 12, 66, 0
20, 220960, Note_on_c, 12, 67, 94
20, 220964, Note_off_c, 12, 57, 0
20, 220964, Note_on_c, 12, 58, 85
20, 220992, Note_off_c, 12, 67, 0
20, 220992, Note_on_c, 12, 69, 94
20, 221001, Note_off_c, 12, 58, 0
20, 221001, Note_on_c, 12, 60, 90
20, 221024, Note_off_c, 12, 69, 0
20, 221024, Note_on_c, 12, 70, 89
20, 221037, Note_off_c, 12, 60, 0
20, 221037, Note_on_c, 12, 62, 90
20, 221056, Note_off_c, 12, 70, 0
20, 221056, Note_on_c, 12, 72, 89
20, 221074, Note_off_c, 12, 62, 0
20, 221074, Note_on_c, 12, 64, 92
20, 221088, Note_off_c, 12, 72, 0
20, 221088, Note_on_c, 12, 74, 89
20, 221110, Note_off_c, 12, 64, 0
20, 221110, Note_on_c, 12, 66, 88
20, 221120, Note_off_c, 12, 74, 0
20, 221120, Note_on_c, 12, 76, 87
20, 221147, Note_off_c, 12, 66, 0
20, 221147, Note_on_c, 12, 67, 90
20, 221152, Note_off_c, 12, 76, 0
20, 221152, Note_on_c, 12, 78, 87
20, 221184, Note_off_c, 12, 78, 0
20, 221184, Note_off_c, 12, 67, 0
20, 221184, Note_on_c, 12, 79, 90
20, 221184, Note_on_c, 12, 69, 86
20, 221216, Note_off_c, 12, 69, 0
20, 221216, Note_on_c, 12, 70, 86
20, 221244, Note_off_c, 12, 79, 0
20, 221248, Note_off_c, 12, 70, 0
20, 221248, Note_on_c, 12, 72, 96
20, 221280, Note_off_c, 12, 72, 0
20, 221280, Note_on_c, 12, 74, 92
20, 221312, Note_off_c, 12, 74, 0
20, 221312, Note_on_c, 12, 60, 75
20, 221312, Note_on_c, 12, 76, 90
20, 221344, Note_off_c, 12, 76, 0
20, 221344, Note_on_c, 12, 78, 92
20, 221348, Note_off_c, 12, 60, 0
20, 221348, Note_on_c, 12, 62, 90
20, 221376, Note_off_c, 12, 78, 0
20, 221376, Note_on_c, 12, 79, 93
20, 221385, Note_off_c, 12, 62, 0
20, 221385, Note_on_c, 12, 64, 89
20, 221408, Note_off_c, 12, 79, 0
20, 221408, Note_on_c, 12, 81, 85
20, 221421, Note_off_c, 12, 64, 0
20, 221421, Note_on_c, 12, 66, 88
20, 221440, Note_off_c, 12, 81, 0
20, 221440, Note_on_c, 12, 82, 91
20, 221458, Note_off_c, 12, 66, 0
20, 221458, Note_on_c, 12, 67, 89
20, 221494, Note_off_c, 12, 67, 0
20, 221494, Note_on_c, 12, 69, 88
20, 221500, Note_off_c, 12, 82, 0
20, 221531, Note_off_c, 12, 69, 0
20, 221531, Note_on_c, 12, 70, 94
20, 221568, Note_off_c, 12, 70, 0
20, 221568, Note_on_c, 12, 72, 89
20, 221568, Note_on_c, 12, 66, 71
20, 221600, Note_off_c, 12, 72, 0
20, 221600, Note_on_c, 12, 74, 92
20, 221604, Note_off_c, 12, 66, 0
20, 221604, Note_on_c, 12, 67, 88
20, 221632, Note_off_c, 12, 74, 0
20, 221632, Note_on_c, 12, 76, 87
20, 221641, Note_off_c, 12, 67, 0
20, 221641, Note_on_c, 12, 69, 91
20, 221664, Note_off_c, 12, 76, 0
20, 221664, Note_on_c, 12, 78, 85
20, 221677, Note_off_c, 12, 69, 0
20, 221677, Note_on_c, 12, 70, 88
20, 221696, Note_off_c, 12, 78, 0
20, 221696, Note_on_c, 12, 79, 87
20, 221714, Note_off_c, 12, 70, 0
20, 221714, Note_on_c, 12, 72, 87
20, 221728, Note_off_c, 12, 79, 0
20, 221728, Note_on_c, 12, 81, 86
20, 221750, Note_off_c, 12, 72, 0
20, 221750, Note_on_c, 12, 74, 87
20, 221760, Note_off_c, 12, 81, 0
20, 221760, Note_on_c, 12, 82, 88
20, 221787, Note_off_c, 12, 74, 0
20, 221787, Note_on_c, 12, 76, 87
20, 221792, Note_off_c, 12, 82, 0
20, 221792, Note_on_c, 12, 84, 90
20, 221824, Note_off_c, 12, 84, 0
20, 221824, Note_off_c, 12, 76, 0
20, 221824, Note_on_c, 12, 86, 84
20, 221824, Note_on_c, 12, 78, 91
20, 221856, Note_off_c, 12, 78, 0
20, 221856, Note_on_c, 12, 79, 91
20, 221884, Note_off_c, 12, 86, 0
20, 221888, Note_off_c, 12, 79, 0
20, 221888, Note_on_c, 12, 81, 93
20, 221920, Note_off_c, 12, 81, 0
20, 221920, Note_on_c, 12, 82, 90
20, 221952, Note_off_c, 12, 82, 0
20, 221952, Note_on_c, 12, 46, 73
20, 221952, Note_on_c, 12, 84, 88
20, 221984, Note_off_c, 12, 84, 0
20, 221984, Note_on_c, 12, 86, 87
20, 221988, Note_off_c, 12, 46, 0
20, 221988, Note_on_c, 12, 48, 86
20, 222016, Note_off_c, 12, 86, 0
20, 222016, Note_on_c, 12, 88, 88
20, 222025, Note_off_c, 12, 48, 0
20, 222025, Note_on_c, 12, 50, 85
20, 222048, Note_off_c, 12, 88, 0
20, 222048, Note_on_c, 12, 90, 88
20, 222061, Note_off_c, 12, 50, 0
20, 222061, Note_on_c, 12, 52, 85
20, 222080, Note_off_c, 12, 90, 0
20, 222080, Note_on_c, 12, 91, 85
20, 222098, Note_off_c, 12, 52, 0
20, 222098, Note_on_c, 12, 54, 87
20, 222134, Note_off_c, 12, 54, 0
20, 222134, Note_on_c, 12, 55, 84
20, 222140, Note_off_c, 12, 91, 0
20, 222171, Note_off_c, 12, 55, 0
20, 222171, Note_on_c, 12, 57, 83
20, 222208, Note_off_c, 12, 57, 0
20, 222208, Note_on_c, 12, 58, 91
20, 222208, Note_on_c, 12, 45, 77
20, 222240, Note_off_c, 12, 58, 0
20, 222240, Note_on_c, 12, 60, 88
20, 222244, Note_off_c, 12, 45, 0
20, 222244, Note_on_c, 12, 46, 85
20, 222272, Note_off_c, 12, 60, 0
20, 222272, Note_on_c, 12, 62, 94
20, 222281, Note_off_c, 12, 46, 0
20, 222281, Note_on_c, 12, 48, 89
20, 222304, Note_off_c, 12, 62, 0
20, 222304, Note_on_c, 12, 64, 94
20, 222317, Note_off_c, 12, 48, 0
20, 222317, Note_on_c, 12, 50, 88
20, 222336, Note_off_c, 12, 64, 0
20, 222336, Note_on_c, 12, 66, 88
20, 222354, Note_off_c, 12, 50, 0
20, 222354, Note_on_c, 12, 52, 87
20, 222368, Note_off_c, 12, 66, 0
20, 222368, Note_on_c, 12, 67, 85
20, 222390, Note_off_c, 12, 52, 0
20, 222390, Note_on_c, 12, 54, 88
20, 222400, Note_off_c, 12, 67, 0
20, 222400, Note_on_c, 12, 69, 89
20, 222427, Note_off_c, 12, 54, 0
20, 222427, Note_on_c, 12, 55, 85
20, 222432, Note_off_c, 12, 69, 0
20, 222432, Note_on_c, 12, 70, 85
20, 222464, Note_off_c, 12, 70, 0
20, 222464, Note_off_c, 12, 55, 0
20, 222464, Note_on_c, 12, 50, 88
20, 222464, Note_on_c, 12, 72, 88
20, 222464, Note_on_c, 12, 57, 84
20, 222496, Note_off_c, 12, 57, 0
20, 222496, Note_on_c, 12, 58, 83
20, 222500, Note_off_c, 12, 50, 0
20, 222500, Note_off_c, 12, 72, 0
20, 222500, Note_on_c, 12, 52, 69
20, 222528, Note_off_c, 12, 58, 0
20, 222528, Note_on_c, 12, 60, 88
20, 222537, Note_off_c, 12, 52, 0
20, 222537, Note_on_c, 12, 54, 86
20, 222560, Note_off_c, 12, 60, 0
20, 222560, Note_on_c, 12, 62, 92
20, 222573, Note_off_c, 12, 54, 0
20, 222573, Note_on_c, 12, 55, 86
20, 222592, Note_off_c, 12, 62, 0
20, 222592, Note_on_c, 12, 64, 91
20, 222610, Note_off_c, 12, 55, 0
20, 222610, Note_on_c, 12, 57, 88
20, 222624, Note_off_c, 12, 64, 0
20, 222624, Note_on_c, 12, 66, 90
20, 222646, Note_off_c, 12, 57, 0
20, 222646, Note_on_c, 12, 58, 83
20, 222656, Note_off_c, 12, 66, 0
20, 222656, Note_on_c, 12, 67, 90
20, 222683, Note_off_c, 12, 58, 0
20, 222683, Note_on_c, 12, 60, 93
20, 222688, Note_off_c, 12, 67, 0
20, 222688, Note_on_c, 12, 69, 93
20, 222720, Note_off_c, 12, 60, 0
20, 222720, Note_off_c, 12, 69, 0
20, 222720, Note_on_c, 12, 62, 93
20, 222720, Note_on_c, 12, 70, 91
20, 222752, Note_off_c, 12, 62, 0
20, 222752, Note_on_c, 12, 64, 91
20, 222780, Note_off_c, 12, 70, 0
20, 222784, Note_off_c, 12, 64, 0
20, 222784, Note_on_c, 12, 66, 92
20, 222816, Note_off_c, 12, 66, 0
20, 222816, Note_on_c, 12, 67, 84
20, 222848, Note_off_c, 12, 67, 0
20, 222848, Note_on_c, 12, 69, 86
20, 222848, Note_on_c, 12, 52, 71
20, 222880, Note_off_c, 12, 69, 0
20, 222880, Note_on_c, 12, 70, 87
20, 222884, Note_off_c, 12, 52, 0
20, 222884, Note_on_c, 12, 54, 85
20, 222912, Note_off_c, 12, 70, 0
20, 222912, Note_on_c, 12, 72, 90
20, 222921, Note_off_c, 12, 54, 0
20, 222921, Note_on_c, 12, 55, 83
20, 222944, Note_off_c, 12, 72, 0
20, 222944, Note_on_c, 12, 74, 91
20, 222957, Note_off_c, 12, 55, 0
20, 222957, Note_on_c, 12, 57, 87
20, 222976, Note_off_c, 12, 74, 0
20, 222976, Note_on_c, 12, 48, 90
20, 222976, Note_on_c, 12, 76, 90
20, 222994, Note_off_c, 12, 57, 0
20, 222994, Note_on_c, 12, 58, 84
20, 223012, Note_off_c, 12, 48, 0
20, 223012, Note_off_c, 12, 76, 0
20, 223012, Note_on_c, 12, 50, 73
20, 223030, Note_off_c, 12, 58, 0
20, 223030, Note_on_c, 12, 60, 89
20, 223049, Note_off_c, 12, 50, 0
20, 223049, Note_on_c, 12, 52, 80
20, 223067, Note_off_c, 12, 60, 0
20, 223067, Note_on_c, 12, 62, 91
20, 223085, Note_off_c, 12, 52, 0
20, 223085, Note_on_c, 12, 54, 85
20, 223104, Note_off_c, 12, 62, 0
20, 223104, Note_on_c, 12, 64, 93
20, 223122, Note_off_c, 12, 54, 0
20, 223122, Note_on_c, 12, 55, 85
20, 223136, Note_off_c, 12, 64, 0
20, 223136, Note_on_c, 12, 66, 88
20, 223158, Note_off_c, 12, 55, 0
20, 223158, Note_on_c, 12, 57, 87
20, 223168, Note_off_c, 12, 66, 0
20, 223168, Note_on_c, 12, 67, 86
20, 223195, Note_off_c, 12, 57, 0
20, 223195, Note_on_c, 12, 58, 83
20, 223200, Note_off_c, 12, 67, 0
20, 223200, Note_on_c, 12, 69, 91
20, 223232, Note_off_c, 12, 58, 0
20, 223232, Note_off_c, 12, 69, 0
20, 223232, Note_on_c, 12, 60, 91
20, 223232, Note_on_c, 12, 70, 86
20, 223264, Note_off_c, 12, 60, 0
20, 223264, Note_off_c, 12, 70, 0
20, 223264, Note_on_c, 12, 62, 87
20, 223264, Note_on_c, 12, 72, 90
20, 223296, Note_off_c, 12, 62, 0
20, 223296, Note_off_c, 12, 72, 0
20, 223296, Note_on_c, 12, 64, 87
20, 223296, Note_on_c, 12, 74, 92
20, 223328, Note_off_c, 12, 64, 0
20, 223328, Note_off_c, 12, 74, 0
20, 223328, Note_on_c, 12, 66, 90
20, 223328, Note_on_c, 12, 76, 85
20, 223360, Note_off_c, 12, 66, 0
20, 223360, Note_off_c, 12, 76, 0
20, 223360, Note_on_c, 12, 67, 90
20, 223360, Note_on_c, 12, 34, 86
20, 223360, Note_on_c, 12, 78, 86
20, 223392, Note_off_c, 12, 67, 0
20, 223392, Note_on_c, 12, 69, 86
20, 223394, Note_off_c, 12, 34, 0
20, 223394, Note_off_c, 12, 78, 0
20, 223396, Note_on_c, 12, 36, 70
20, 223424, Note_off_c, 12, 69, 0
20, 223424, Note_on_c, 12, 70, 85
20, 223433, Note_off_c, 12, 36, 0
20, 223433, Note_on_c, 12, 38, 88
20, 223456, Note_off_c, 12, 70, 0
20, 223456, Note_on_c, 12, 72, 88
20, 223469, Note_off_c, 12, 38, 0
20, 223469, Note_on_c, 12, 40, 86
20, 223488, Note_off_c, 12, 72, 0
20, 223488, Note_on_c, 12, 36, 89
20, 223488, Note_on_c, 12, 74, 89
20, 223506, Note_off_c, 12, 40, 0
20, 223506, Note_on_c, 12, 42, 85
20, 223524, Note_off_c, 12, 36, 0
20, 223524, Note_off_c, 12, 74, 0
20, 223524, Note_on_c, 12, 38, 77
20, 223542, Note_off_c, 12, 42, 0
20, 223542, Note_on_c, 12, 43, 86
20, 223561, Note_off_c, 12, 38, 0
20, 223561, Note_on_c, 12, 40, 80
20, 223579, Note_off_c, 12, 43, 0
20, 223579, Note_on_c, 12, 45, 85
20, 223597, Note_off_c, 12, 40, 0
20, 223597, Note_on_c, 12, 42, 89
20, 223616, Note_off_c, 12, 45, 0
20, 223616, Note_on_c, 12, 46, 86
20, 223634, Note_off_c, 12, 42, 0
20, 223634, Note_on_c, 12, 43, 85
20, 223648, Note_off_c, 12, 46, 0
20, 223648, Note_on_c, 12, 48, 86
20, 223670, Note_off_c, 12, 43, 0
20, 223670, Note_on_c, 12, 45, 85
20, 223680, Note_off_c, 12, 48, 0
20, 223680, Note_on_c, 12, 50, 87
20, 223707, Note_off_c, 12, 45, 0
20, 223707, Note_on_c, 12, 46, 87
20, 223712, Note_off_c, 12, 50, 0
20, 223712, Note_on_c, 12, 52, 90
20, 223744, Note_off_c, 12, 46, 0
20, 223744, Note_off_c, 12, 52, 0
20, 223744, Note_on_c, 12, 48, 84
20, 223744, Note_on_c, 12, 54, 87
20, 223776, Note_off_c, 12, 48, 0
20, 223776, Note_off_c, 12, 54, 0
20, 223776, Note_on_c, 12, 50, 84
20, 223776, Note_on_c, 12, 55, 82
20, 223808, Note_off_c, 12, 50, 0
20, 223808, Note_off_c, 12, 55, 0
20, 223808, Note_on_c, 12, 52, 83
20, 223808, Note_on_c, 12, 57, 86
20, 223840, Note_off_c, 12, 52, 0
20, 223840, Note_off_c, 12, 57, 0
20, 223840, Note_on_c, 12, 54, 83
20, 223840, Note_on_c, 12, 58, 87
20, 223872, Note_off_c, 12, 54, 0
20, 223872, Note_off_c, 12, 58, 0
20, 223872, Note_on_c, 12, 55, 86
20, 223872, Note_on_c, 12, 60, 88
20, 223904, Note_off_c, 12, 55, 0
20, 223904, Note_on_c, 12, 57, 83
20, 223932, Note_off_c, 12, 60, 0
20, 223936, Note_off_c, 12, 57, 0
20, 223936, Note_on_c, 12, 58, 86
20, 223968, Note_off_c, 12, 58, 0
20, 223968, Note_on_c, 12, 60, 84
20, 224000, Note_off_c, 12, 60, 0
20, 224000, Note_on_c, 12, 62, 89
20, 224000, Note_on_c, 12, 52, 74
20, 224036, Note_off_c, 12, 52, 0
20, 224036, Note_on_c, 12, 54, 85
20, 224060, Note_off_c, 12, 62, 0
20, 224073, Note_off_c, 12, 54, 0
20, 224073, Note_on_c, 12, 55, 87
20, 224109, Note_off_c, 12, 55, 0
20, 224109, Note_on_c, 12, 57, 86
20, 224128, Note_on_c, 12, 50, 75
20, 224146, Note_off_c, 12, 57, 0
20, 224146, Note_on_c, 12, 58, 84
20, 224170, Note_off_c, 12, 50, 0
20, 224170, Note_on_c, 12, 52, 88
20, 224182, Note_off_c, 12, 58, 0
20, 224182, Note_on_c, 12, 60, 86
20, 224213, Note_off_c, 12, 52, 0
20, 224213, Note_on_c, 12, 54, 89
20, 224219, Note_off_c, 12, 60, 0
20, 224219, Note_on_c, 12, 62, 96
20, 224256, Note_off_c, 12, 54, 0
20, 224256, Note_off_c, 12, 62, 0
20, 224256, Note_on_c, 12, 55, 81
20, 224256, Note_on_c, 12, 64, 94
20, 224288, Note_off_c, 12, 55, 0
20, 224288, Note_off_c, 12, 64, 0
20, 224288, Note_on_c, 12, 57, 87
20, 224288, Note_on_c, 12, 66, 91
20, 224320, Note_off_c, 12, 57, 0
20, 224320, Note_off_c, 12, 66, 0
20, 224320, Note_on_c, 12, 58, 85
20, 224320, Note_on_c, 12, 67, 89
20, 224352, Note_off_c, 12, 58, 0
20, 224352, Note_off_c, 12, 67, 0
20, 224352, Note_on_c, 12, 60, 90
20, 224352, Note_on_c, 12, 69, 92
20, 224384, Note_off_c, 12, 60, 0
20, 224384, Note_off_c, 12, 69, 0
20, 224384, Note_on_c, 12, 62, 89
20, 224384, Note_on_c, 12, 70, 88
20, 224416, Note_off_c, 12, 62, 0
20, 224416, Note_off_c, 12, 70, 0
20, 224416, Note_on_c, 12, 64, 89
20, 224416, Note_on_c, 12, 72, 93
20, 224448, Note_off_c, 12, 64, 0
20, 224448, Note_off_c, 12, 72, 0
20, 224448, Note_on_c, 12, 66, 88
20, 224448, Note_on_c, 12, 74, 92
20, 224480, Note_off_c, 12, 66, 0
20, 224480, Note_off_c, 12, 74, 0
20, 224480, Note_on_c, 12, 67, 91
20, 224480, Note_on_c, 12, 76, 86
20, 224512, Note_off_c, 12, 67, 0
20, 224512, Note_off_c, 12, 76, 0
20, 224512, Note_on_c, 12, 69, 86
20, 224512, Note_on_c, 12, 66, 94
20, 224512, Note_on_c, 12, 78, 94
20, 224544, Note_off_c, 12, 69, 0
20, 224544, Note_on_c, 12, 70, 86
20, 224546, Note_off_c, 12, 66, 0
20, 224546, Note_off_c, 12, 78, 0
20, 224548, Note_on_c, 12, 67, 59
20, 224576, Note_off_c, 12, 70, 0
20, 224576, Note_on_c, 12, 72, 87
20, 224585, Note_off_c, 12, 67, 0
20, 224585, Note_on_c, 12, 69, 85
20, 224608, Note_off_c, 12, 72, 0
20, 224608, Note_on_c, 12, 74, 90
20, 224621, Note_off_c, 12, 69, 0
20, 224621, Note_on_c, 12, 70, 85
20, 224640, Note_off_c, 12, 74, 0
20, 224640, Note_on_c, 12, 76, 90
20, 224658, Note_off_c, 12, 70, 0
20, 224658, Note_on_c, 12, 72, 92
20, 224694, Note_off_c, 12, 72, 0
20, 224694, Note_on_c, 12, 74, 85
20, 224700, Note_off_c, 12, 76, 0
20, 224731, Note_off_c, 12, 74, 0
20, 224731, Note_on_c, 12, 76, 95
20, 224768, Note_off_c, 12, 76, 0
20, 224768, Note_on_c, 12, 66, 80
20, 224768, Note_on_c, 12, 78, 91
20, 224800, Note_off_c, 12, 78, 0
20, 224800, Note_on_c, 12, 79, 87
20, 224804, Note_off_c, 12, 66, 0
20, 224804, Note_on_c, 12, 67, 88
20, 224832, Note_off_c, 12, 79, 0
20, 224832, Note_on_c, 12, 81, 87
20, 224841, Note_off_c, 12, 67, 0
20, 224841, Note_on_c, 12, 69, 89
20, 224864, Note_off_c, 12, 81, 0
20, 224864, Note_on_c, 12, 82, 88
20, 224877, Note_off_c, 12, 69, 0
20, 224877, Note_on_c, 12, 70, 85
20, 224896, Note_off_c, 12, 82, 0
20, 224896, Note_on_c, 12, 84, 89
20, 224914, Note_off_c, 12, 70, 0
20, 224914, Note_on_c, 12, 72, 90
20, 224928, Note_off_c, 12, 84, 0
20, 224928, Note_on_c, 12, 86, 90
20, 224950, Note_off_c, 12, 72, 0
20, 224950, Note_on_c, 12, 74, 89
20, 224960, Note_off_c, 12, 86, 0
20, 224960, Note_on_c, 12, 88, 87
20, 224987, Note_off_c, 12, 74, 0
20, 224987, Note_on_c, 12, 76, 90
20, 224992, Note_off_c, 12, 88, 0
20, 224992, Note_on_c, 12, 90, 89
20, 225024, Note_off_c, 12, 76, 0
20, 225024, Note_off_c, 12, 90, 0
20, 225024, Note_on_c, 12, 78, 88
20, 225024, Note_on_c, 12, 36, 94
20, 225024, Note_on_c, 12, 91, 94
20, 225056, Note_off_c, 12, 78, 0
20, 225056, Note_on_c, 12, 79, 93
20, 225058, Note_off_c, 12, 36, 0
20, 225058, Note_off_c, 12, 91, 0
20, 225060, Note_on_c, 12, 38, 72
20, 225088, Note_off_c, 12, 79, 0
20, 225088, Note_on_c, 12, 81, 91
20, 225097, Note_off_c, 12, 38, 0
20, 225097, Note_on_c, 12, 40, 82
20, 225120, Note_off_c, 12, 81, 0
20, 225120, Note_on_c, 12, 82, 89
20, 225133, Note_off_c, 12, 40, 0
20, 225133, Note_on_c, 12, 42, 89
20, 225152, Note_off_c, 12, 82, 0
20, 225152, Note_on_c, 12, 84, 89
20, 225170, Note_off_c, 12, 42, 0
20, 225170, Note_on_c, 12, 43, 89
20, 225184, Note_off_c, 12, 84, 0
20, 225184, Note_on_c, 12, 86, 87
20, 225206, Note_off_c, 12, 43, 0
20, 225206, Note_on_c, 12, 45, 86
20, 225216, Note_off_c, 12, 86, 0
20, 225216, Note_on_c, 12, 88, 87
20, 225243, Note_off_c, 12, 45, 0
20, 225243, Note_on_c, 12, 46, 88
20, 225248, Note_off_c, 12, 88, 0
20, 225248, Note_on_c, 12, 90, 89
20, 225280, Note_off_c, 12, 90, 0
20, 225280, Note_off_c, 12, 46, 0
20, 225280, Note_on_c, 12, 52, 92
20, 225280, Note_on_c, 12, 91, 92
20, 225280, Note_on_c, 12, 48, 82
20, 225312, Note_off_c, 12, 48, 0
20, 225312, Note_on_c, 12, 50, 85
20, 225316, Note_off_c, 12, 52, 0
20, 225316, Note_off_c, 12, 91, 0
20, 225316, Note_on_c, 12, 54, 77
20, 225344, Note_off_c, 12, 50, 0
20, 225344, Note_on_c, 12, 52, 82
20, 225353, Note_off_c, 12, 54, 0
20, 225353, Note_on_c, 12, 55, 84
20, 225376, Note_off_c, 12, 52, 0
20, 225376, Note_on_c, 12, 54, 86
20, 225389, Note_off_c, 12, 55, 0
20, 225389, Note_on_c, 12, 57, 89
20, 225408, Note_off_c, 12, 54, 0
20, 225408, Note_on_c, 12, 55, 84
20, 225426, Note_off_c, 12, 57, 0
20, 225426, Note_on_c, 12, 58, 86
20, 225440, Note_off_c, 12, 55, 0
20, 225440, Note_on_c, 12, 57, 85
20, 225462, Note_off_c, 12, 58, 0
20, 225462, Note_on_c, 12, 60, 91
20, 225472, Note_off_c, 12, 57, 0
20, 225472, Note_on_c, 12, 58, 85
20, 225499, Note_off_c, 12, 60, 0
20, 225499, Note_on_c, 12, 62, 94
20, 225504, Note_off_c, 12, 58, 0
20, 225504, Note_on_c, 12, 60, 91
20, 225536, Note_off_c, 12, 62, 0
20, 225536, Note_off_c, 12, 60, 0
20, 225536, Note_on_c, 12, 64, 92
20, 225536, Note_on_c, 12, 62, 86
20, 225568, Note_off_c, 12, 64, 0
20, 225568, Note_on_c, 12, 66, 91
20, 225596, Note_off_c, 12, 62, 0
20, 225600, Note_off_c, 12, 66, 0
20, 225600, Note_on_c, 12, 67, 94
20, 225632, Note_off_c, 12, 67, 0
20, 225632, Note_on_c, 12, 69, 89
20, 225664, Note_off_c, 12, 69, 0
20, 225664, Note_on_c, 12, 70, 87
20, 225664, Note_on_c, 12, 60, 77
20, 225696, Note_off_c, 12, 70, 0
20, 225696, Note_on_c, 12, 72, 91
20, 225700, Note_off_c, 12, 60, 0
20, 225700, Note_on_c, 12, 62, 87
20, 225728, Note_off_c, 12, 72, 0
20, 225728, Note_on_c, 12, 74, 93
20, 225737, Note_off_c, 12, 62, 0
20, 225737, Note_on_c, 12, 64, 90
20, 225760, Note_off_c, 12, 74, 0
20, 225760, Note_on_c, 12, 76, 89
20, 225773, Note_off_c, 12, 64, 0
20, 225773, Note_on_c, 12, 66, 88
20, 225792, Note_off_c, 12, 76, 0
20, 225792, Note_on_c, 12, 78, 87
20, 225810, Note_off_c, 12, 66, 0
20, 225810, Note_on_c, 12, 67, 89
20, 225846, Note_off_c, 12, 67, 0
20, 225846, Note_on_c, 12, 69, 89
20, 225852, Note_off_c, 12, 78, 0
20, 225883, Note_off_c, 12, 69, 0
20, 225883, Note_on_c, 12, 70, 87
20, 225920, Note_off_c, 12, 70, 0
20, 225920, Note_on_c, 12, 58, 78
20, 225920, Note_on_c, 12, 72, 90
20, 225952, Note_off_c, 12, 72, 0
20, 225952, Note_on_c, 12, 74, 90
20, 225962, Note_off_c, 12, 58, 0
20, 225962, Note_on_c, 12, 60, 86
20, 225984, Note_off_c, 12, 74, 0
20, 225984, Note_on_c, 12, 76, 89
20, 226005, Note_off_c, 12, 60, 0
20, 226005, Note_on_c, 12, 62, 91
20, 226016, Note_off_c, 12, 76, 0
20, 226016, Note_on_c, 12, 78, 90
20, 226048, Note_off_c, 12, 62, 0
20, 226048, Note_off_c, 12, 78, 0
20, 226048, Note_on_c, 12, 64, 84
20, 226048, Note_on_c, 12, 79, 88
20, 226080, Note_off_c, 12, 64, 0
20, 226080, Note_off_c, 12, 79, 0
20, 226080, Note_on_c, 12, 66, 93
20, 226080, Note_on_c, 12, 81, 89
20, 226112, Note_off_c, 12, 66, 0
20, 226112, Note_off_c, 12, 81, 0
20, 226112, Note_on_c, 12, 67, 89
20, 226112, Note_on_c, 12, 82, 90
20, 226144, Note_off_c, 12, 67, 0
20, 226144, Note_off_c, 12, 82, 0
20, 226144, Note_on_c, 12, 69, 88
20, 226144, Note_on_c, 12, 84, 93
20, 226176, Note_off_c, 12, 69, 0
20, 226176, Note_off_c, 12, 84, 0
20, 226176, Note_on_c, 12, 70, 84
20, 226176, Note_on_c, 12, 86, 89
20, 226208, Note_off_c, 12, 70, 0
20, 226208, Note_on_c, 12, 72, 90
20, 226236, Note_off_c, 12, 86, 0
20, 226240, Note_off_c, 12, 72, 0
20, 226240, Note_on_c, 12, 74, 89
20, 226272, Note_off_c, 12, 74, 0
20, 226272, Note_on_c, 12, 76, 90
20, 226304, Note_off_c, 12, 76, 0
20, 226304, Note_on_c, 12, 78, 87
20, 226304, Note_on_c, 12, 69, 72
20, 226336, Note_off_c, 12, 78, 0
20, 226336, Note_on_c, 12, 79, 88
20, 226340, Note_off_c, 12, 69, 0
20, 226340, Note_on_c, 12, 70, 88
20, 226368, Note_off_c, 12, 79, 0
20, 226368, Note_on_c, 12, 81, 91
20, 226377, Note_off_c, 12, 70, 0
20, 226377, Note_on_c, 12, 72, 89
20, 226400, Note_off_c, 12, 81, 0
20, 226400, Note_on_c, 12, 82, 90
20, 226413, Note_off_c, 12, 72, 0
20, 226413, Note_on_c, 12, 74, 90
20, 226432, Note_off_c, 12, 82, 0
20, 226432, Note_on_c, 12, 62, 85
20, 226432, Note_on_c, 12, 84, 85
20, 226450, Note_off_c, 12, 74, 0
20, 226450, Note_on_c, 12, 76, 91
20, 226468, Note_off_c, 12, 62, 0
20, 226468, Note_off_c, 12, 84, 0
20, 226468, Note_on_c, 12, 64, 64
20, 226486, Note_off_c, 12, 76, 0
20, 226486, Note_on_c, 12, 78, 91
20, 226505, Note_off_c, 12, 64, 0
20, 226505, Note_on_c, 12, 66, 91
20, 226523, Note_off_c, 12, 78, 0
20, 226523, Note_on_c, 12, 79, 87
20, 226541, Note_off_c, 12, 66, 0
20, 226541, Note_on_c, 12, 67, 90
20, 226560, Note_off_c, 12, 79, 0
20, 226560, Note_on_c, 12, 81, 92
20, 226578, Note_off_c, 12, 67, 0
20, 226578, Note_on_c, 12, 69, 91
20, 226592, Note_off_c, 12, 81, 0
20, 226592, Note_on_c, 12, 82, 84
20, 226614, Note_off_c, 12, 69, 0
20, 226614, Note_on_c, 12, 70, 89
20, 226624, Note_off_c, 12, 82, 0
20, 226624, Note_on_c, 12, 84, 89
20, 226651, Note_off_c, 12, 70, 0
20, 226651, Note_on_c, 12, 72, 90
20, 226656, Note_off_c, 12, 84, 0
20, 226656, Note_on_c, 12, 86, 88
20, 226688, Note_off_c, 12, 72, 0
20, 226688, Note_off_c, 12, 86, 0
20, 226688, Note_on_c, 12, 74, 87
20, 226688, Note_on_c, 12, 88, 85
20, 226720, Note_off_c, 12, 74, 0
20, 226720, Note_off_c, 12, 88, 0
20, 226720, Note_on_c, 12, 76, 89
20, 226720, Note_on_c, 12, 90, 91
20, 226752, Note_off_c, 12, 76, 0
20, 226752, Note_off_c, 12, 90, 0
20, 226752, Note_on_c, 12, 78, 87
20, 226752, Note_on_c, 12, 91, 84
20, 226784, Note_off_c, 12, 78, 0
20, 226784, Note_off_c, 12, 91, 0
20, 226784, Note_on_c, 12, 79, 90
20, 226784, Note_on_c, 12, 93, 91
20, 226816, Note_off_c, 12, 79, 0
20, 226816, Note_off_c, 12, 93, 0
20, 226816, Note_on_c, 12, 81, 94
20, 226816, Note_on_c, 12, 94, 90
20, 226848, Note_off_c, 12, 81, 0
20, 226848, Note_on_c, 12, 82, 90
20, 226876, Note_off_c, 12, 94, 0
20, 226880, Note_off_c, 12, 82, 0
20, 226880, Note_on_c, 12, 84, 93
20, 226912, Note_off_c, 12, 84, 0
20, 226912, Note_on_c, 12, 86, 90
20, 226944, Note_off_c, 12, 86, 0
20, 226944, Note_on_c, 12, 88, 91
20, 226944, Note_on_c, 12, 78, 76
20, 226980, Note_off_c, 12, 78, 0
20, 226980, Note_on_c, 12, 79, 89
20, 227004, Note_off_c, 12, 88, 0
20, 227017, Note_off_c, 12, 79, 0
20, 227017, Note_on_c, 12, 81, 91
20, 227053, Note_off_c, 12, 81, 0
20, 227053, Note_on_c, 12, 82, 91
20, 227072, Note_on_c, 12, 57, 79
20, 227090, Note_off_c, 12, 82, 0
20, 227090, Note_on_c, 12, 84, 91
20, 227108, Note_off_c, 12, 57, 0
20, 227108, Note_on_c, 12, 58, 85
20, 227126, Note_off_c, 12, 84, 0
20, 227126, Note_on_c, 12, 86, 86
20, 227145, Note_off_c, 12, 58, 0
20, 227145, Note_on_c, 12, 60, 83
20, 227163, Note_off_c, 12, 86, 0
20, 227163, Note_on_c, 12, 88, 91
20, 227181, Note_off_c, 12, 60, 0
20, 227181, Note_on_c, 12, 62, 85
20, 227200, Note_off_c, 12, 88, 0
20, 227200, Note_on_c, 12, 90, 90
20, 227218, Note_off_c, 12, 62, 0
20, 227218, Note_on_c, 12, 64, 91
20, 227232, Note_off_c, 12, 90, 0
20, 227232, Note_on_c, 12, 91, 88
20, 227254, Note_off_c, 12, 64, 0
20, 227254, Note_on_c, 12, 66, 86
20, 227264, Note_off_c, 12, 91, 0
20, 227264, Note_on_c, 12, 93, 92
20, 227291, Note_off_c, 12, 66, 0
20, 227291, Note_on_c, 12, 67, 89
20, 227296, Note_off_c, 12, 93, 0
20, 227296, Note_on_c, 12, 94, 89
20, 227328, Note_off_c, 12, 67, 0
20, 227328, Note_off_c, 12, 94, 0
20, 227328, Note_on_c, 12, 69, 95
20, 227328, Note_on_c, 12, 96, 88
20, 227360, Note_off_c, 12, 69, 0
20, 227360, Note_off_c, 12, 96, 0
20, 227360, Note_on_c, 12, 70, 88
20, 227360, Note_on_c, 12, 98, 91
20, 227392, Note_off_c, 12, 70, 0
20, 227392, Note_off_c, 12, 98, 0
20, 227392, Note_on_c, 12, 72, 90
20, 227392, Note_on_c, 12, 100, 90
20, 227424, Note_off_c, 12, 72, 0
20, 227424, Note_off_c, 12, 100, 0
20, 227424, Note_on_c, 12, 74, 89
20, 227424, Note_on_c, 12, 102, 90
20, 227456, Note_off_c, 12, 74, 0
20, 227456, Note_off_c, 12, 102, 0
20, 227456, Note_on_c, 12, 76, 88
20, 227456, Note_on_c, 12, 64, 90
20, 227456, Note_on_c, 12, 103, 90
20, 227488, Note_off_c, 12, 76, 0
20, 227488, Note_on_c, 12, 78, 95
20, 227490, Note_off_c, 12, 64, 0
20, 227490, Note_off_c, 12, 103, 0
20, 227492, Note_on_c, 12, 66, 58
20, 227520, Note_off_c, 12, 78, 0
20, 227520, Note_on_c, 12, 79, 88
20, 227529, Note_off_c, 12, 66, 0
20, 227529, Note_on_c, 12, 67, 83
20, 227552, Note_off_c, 12, 79, 0
20, 227552, Note_on_c, 12, 81, 89
20, 227565, Note_off_c, 12, 67, 0
20, 227565, Note_on_c, 12, 69, 88
20, 227584, Note_off_c, 12, 81, 0
20, 227584, Note_on_c, 12, 82, 89
20, 227602, Note_off_c, 12, 69, 0
20, 227602, Note_on_c, 12, 70, 84
20, 227638, Note_off_c, 12, 70, 0
20, 227638, Note_on_c, 12, 72, 88
20, 227644, Note_off_c, 12, 82, 0
20, 227675, Note_off_c, 12, 72, 0
20, 227675, Note_on_c, 12, 74, 85
20, 227712, Note_off_c, 12, 74, 0
20, 227712, Note_on_c, 12, 66, 80
20, 227712, Note_on_c, 12, 76, 86
20, 227744, Note_off_c, 12, 76, 0
20, 227744, Note_on_c, 12, 78, 93
20, 227748, Note_off_c, 12, 66, 0
20, 227748, Note_on_c, 12, 67, 88
20, 227776, Note_off_c, 12, 78, 0
20, 227776, Note_on_c, 12, 79, 84
20, 227785, Note_off_c, 12, 67, 0
20, 227785, Note_on_c, 12, 69, 87
20, 227808, Note_off_c, 12, 79, 0
20, 227808, Note_on_c, 12, 81, 90
20, 227821, Note_off_c, 12, 69, 0
20, 227821, Note_on_c, 12, 70, 89
20, 227840, Note_off_c, 12, 81, 0
20, 227840, Note_on_c, 12, 82, 89
20, 227858, Note_off_c, 12, 70, 0
20, 227858, Note_on_c, 12, 72, 88
20, 227872, Note_off_c, 12, 82, 0
20, 227872, Note_on_c, 12, 84, 91
20, 227894, Note_off_c, 12, 72, 0
20, 227894, Note_on_c, 12, 74, 92
20, 227904, Note_off_c, 12, 84, 0
20, 227904, Note_on_c, 12, 86, 92
20, 227931, Note_off_c, 12, 74, 0
20, 227931, Note_on_c, 12, 76, 88
20, 227936, Note_off_c, 12, 86, 0
20, 227936, Note_on_c, 12, 88, 85
20, 227968, Note_off_c, 12, 76, 0
20, 227968, Note_off_c, 12, 88, 0
20, 227968, Note_on_c, 12, 78, 92
20, 227968, Note_on_c, 12, 90, 90
20, 228028, Note_off_c, 12, 90, 0
20, 228032, Note_on_c, 12, 79, 97
20, 228033, Note_off_c, 12, 78, 0
20, 228064, Note_off_c, 12, 79, 0
20, 228064, Note_on_c, 12, 81, 89
20, 228096, Note_off_c, 12, 81, 0
20, 228096, Note_on_c, 12, 82, 93
20, 228128, Note_off_c, 12, 82, 0
20, 228128, Note_on_c, 12, 84, 92
20, 228160, Note_off_c, 12, 84, 0
20, 228160, Note_on_c, 12, 86, 88
20, 228192, Note_off_c, 12, 86, 0
20, 228192, Note_on_c, 12, 88, 91
20, 228224, Note_off_c, 12, 88, 0
20, 228224, Note_on_c, 12, 90, 86
20, 228256, Note_off_c, 12, 90, 0
20, 228256, Note_on_c, 12, 91, 88
20, 228286, Note_off_c, 12, 91, 0
20, 257920, Note_on_c, 12, 62, 65
20, 257920, Note_on_c, 12, 65, 65
20, 258048, Note_off_c, 12, 62, 0
20, 258048, Note_off_c, 12, 65, 0
20, 258688, Note_on_c, 12, 62, 65
20, 258688, Note_on_c, 12, 67, 65
20, 258816, Note_off_c, 12, 62, 0
20, 258816, Note_off_c, 12, 67, 0
20, 259456, Note_on_c, 12, 62, 65
20, 259456, Note_on_c, 12, 65, 65
20, 259584, Note_off_c, 12, 62, 0
20, 259584, Note_off_c, 12, 65, 0
20, 260224, Note_on_c, 12, 62, 63
20, 260224, Note_on_c, 12, 67, 63
20, 260352, Note_off_c, 12, 62, 0
20, 260352, Note_off_c, 12, 67, 0
20, 260992, Note_on_c, 12, 62, 65
20, 260992, Note_on_c, 12, 65, 65
20, 261120, Note_off_c, 12, 62, 0
20, 261120, Note_off_c, 12, 65, 0
20, 261632, Note_on_c, 12, 62, 64
20, 261632, Note_on_c, 12, 67, 64
20, 261760, Note_off_c, 12, 62, 0
20, 261760, Note_off_c, 12, 67, 0
20, 262400, Note_on_c, 12, 62, 60
20, 262400, Note_on_c, 12, 65, 60
20, 262528, Note_off_c, 12, 62, 0
20, 262528, Note_off_c, 12, 65, 0
20, 263168, Note_on_c, 12, 62, 65
20, 263168, Note_on_c, 12, 67, 65
20, 263296, Note_off_c, 12, 62, 0
20, 263296, Note_off_c, 12, 67, 0
20, 263552, Note_on_c, 12, 62, 63
20, 263552, Note_on_c, 12, 65, 63
20, 263680, Note_off_c, 12, 62, 0
20, 263680, Note_off_c, 12, 65, 0
20, 263936, Note_on_c, 12, 62, 60
20, 263936, Note_on_c, 12, 67, 60
20, 264064, Note_off_c, 12, 62, 0
20, 264064, Note_off_c, 12, 67, 0
20, 264320, Note_on_c, 12, 62, 57
20, 264320, Note_on_c, 12, 65, 57
20, 264448, Note_off_c, 12, 62, 0
20, 264448, Note_off_c, 12, 65, 0
20, 264704, Note_on_c, 12, 62, 60
20, 264704, Note_on_c, 12, 67, 60
20, 264832, Note_off_c, 12, 62, 0
20, 264832, Note_off_c, 12, 67, 0
20, 265088, Note_on_c, 12, 62, 59
20, 265088, Note_on_c, 12, 65, 59
20, 265216, Note_off_c, 12, 62, 0
20, 265216, Note_off_c, 12, 65, 0
20, 265472, Note_on_c, 12, 62, 56
20, 265472, Note_on_c, 12, 67, 56
20, 265600, Note_off_c, 12, 62, 0
20, 265600, Note_off_c, 12, 67, 0
20, 265856, Note_on_c, 12, 62, 55
20, 265856, Note_on_c, 12, 65, 55
20, 265984, Note_off_c, 12, 62, 0
20, 265984, Note_off_c, 12, 65, 0
20, 266240, Note_on_c, 12, 62, 56
20, 266240, Note_on_c, 12, 67, 56
20, 266368, Note_off_c, 12, 62, 0
20, 266368, Note_off_c, 12, 67, 0
20, 266624, Note_on_c, 12, 62, 54
20, 266624, Note_on_c, 12, 65, 54
20, 266752, Note_off_c, 12, 62, 0
20, 266752, Note_off_c, 12, 65, 0
20, 267008, Note_on_c, 12, 62, 58
20, 267008, Note_on_c, 12, 67, 58
20, 267136, Note_off_c, 12, 62, 0
20, 267136, Note_off_c, 12, 67, 0
20, 267392, Note_on_c, 12, 62, 58
20, 267392, Note_on_c, 12, 65, 58
20, 267520, Note_off_c, 12, 62, 0
20, 267520, Note_off_c, 12, 65, 0
20, 267776, Note_on_c, 12, 62, 54
20, 267776, Note_on_c, 12, 67, 54
20, 267904, Note_off_c, 12, 62, 0
20, 267904, Note_off_c, 12, 67, 0
20, 268160, Note_on_c, 12, 58, 53
20, 268160, Note_on_c, 12, 70, 53
20, 268288, Note_off_c, 12, 58, 0
20, 268288, Note_off_c, 12, 70, 0
20, 268544, Note_on_c, 12, 62, 55
20, 268544, Note_on_c, 12, 65, 55
20, 268672, Note_off_c, 12, 62, 0
20, 268672, Note_off_c, 12, 65, 0
20, 268928, Note_on_c, 12, 62, 59
20, 268928, Note_on_c, 12, 67, 59
20, 269056, Note_off_c, 12, 62, 0
20, 269056, Note_off_c, 12, 67, 0
20, 269312, Note_on_c, 12, 58, 49
20, 269312, Note_on_c, 12, 70, 49
20, 269440, Note_off_c, 12, 58, 0
20, 269440, Note_off_c, 12, 70, 0
20, 269696, Note_on_c, 12, 62, 55
20, 269696, Note_on_c, 12, 65, 55
20, 269824, Note_off_c, 12, 62, 0
20, 269824, Note_off_c, 12, 65, 0
20, 270080, Note_on_c, 12, 60, 53
20, 270080, Note_on_c, 12, 67, 53
20, 270208, Note_off_c, 12, 60, 0
20, 270208, Note_off_c, 12, 67, 0
20, 270464, Note_on_c, 12, 58, 56
20, 270464, Note_on_c, 12, 70, 56
20, 270592, Note_off_c, 12, 58, 0
20, 270592, Note_off_c, 12, 70, 0
20, 270848, Note_on_c, 12, 63, 53
20, 270848, Note_on_c, 12, 64, 53
20, 270976, Note_off_c, 12, 63, 0
20, 270976, Note_off_c, 12, 64, 0
20, 271232, Note_on_c, 12, 61, 57
20, 271232, Note_on_c, 12, 66, 57
20, 271360, Note_off_c, 12, 61, 0
20, 271360, Note_off_c, 12, 66, 0
20, 271616, Note_on_c, 12, 59, 53
20, 271616, Note_on_c, 12, 68, 53
20, 271744, Note_off_c, 12, 59, 0
20, 271744, Note_off_c, 12, 68, 0
20, 272000, Note_on_c, 12, 56, 51
20, 272000, Note_on_c, 12, 61, 51
20, 272128, Note_off_c, 12, 56, 0
20, 272128, Note_off_c, 12, 61, 0
20, 272384, Note_on_c, 12, 59, 52
20, 272384, Note_on_c, 12, 68, 52
20, 272512, Note_off_c, 12, 59, 0
20, 272512, Note_off_c, 12, 68, 0
20, 272768, Note_on_c, 12, 63, 54
20, 272768, Note_on_c, 12, 64, 54
20, 272896, Note_off_c, 12, 63, 0
20, 272896, Note_off_c, 12, 64, 0
20, 273152, Note_on_c, 12, 56, 51
20, 273152, Note_on_c, 12, 63, 51
20, 273280, Note_off_c, 12, 56, 0
20, 273280, Note_off_c, 12, 63, 0
20, 275456, Note_on_c, 12, 61, 55
20, 275456, Note_on_c, 12, 66, 55
20, 275584, Note_off_c, 12, 61, 0
20, 275584, Note_off_c, 12, 66, 0
20, 275712, Note_on_c, 12, 64, 58
20, 275712, Note_on_c, 12, 68, 58
20, 275840, Note_off_c, 12, 64, 0
20, 275840, Note_off_c, 12, 68, 0
20, 276096, Note_on_c, 12, 58, 61
20, 276096, Note_on_c, 12, 70, 61
20, 276224, Note_off_c, 12, 58, 0
20, 276224, Note_off_c, 12, 70, 0
20, 289024, Note_on_c, 12, 62, 36
20, 289152, Note_off_c, 12, 62, 0
20, 289152, Note_on_c, 12, 48, 29
20, 289280, Note_off_c, 12, 48, 0
20, 289280, Note_on_c, 12, 56, 40
20, 289408, Note_off_c, 12, 56, 0
20, 289408, Note_on_c, 12, 62, 53
20, 289536, Note_off_c, 12, 62, 0
20, 289536, Note_on_c, 12, 59, 40
20, 289664, Note_off_c, 12, 59, 0
20, 289664, Note_on_c, 12, 52, 36
20, 289792, Note_off_c, 12, 52, 0
20, 289792, Note_on_c, 12, 56, 40
20, 289920, Note_off_c, 12, 56, 0
20, 289920, Note_on_c, 12, 62, 43
20, 290048, Note_off_c, 12, 62, 0
20, 290048, Note_on_c, 12, 59, 40
20, 290176, Note_off_c, 12, 59, 0
20, 290176, Note_on_c, 12, 62, 42
20, 290304, Note_off_c, 12, 62, 0
20, 290304, Note_on_c, 12, 54, 39
20, 290432, Note_off_c, 12, 54, 0
20, 290432, Note_on_c, 12, 57, 39
20, 290560, Note_off_c, 12, 57, 0
20, 290560, Note_on_c, 12, 62, 46
20, 290688, Note_off_c, 12, 62, 0
20, 290688, Note_on_c, 12, 52, 36
20, 290816, Note_off_c, 12, 52, 0
20, 290816, Note_on_c, 12, 56, 42
20, 290944, Note_off_c, 12, 56, 0
20, 290944, Note_on_c, 12, 62, 46
20, 291072, Note_off_c, 12, 62, 0
20, 291072, Note_on_c, 12, 59, 40
20, 291200, Note_off_c, 12, 59, 0
20, 291200, Note_on_c, 12, 62, 43
20, 291328, Note_off_c, 12, 62, 0
20, 291328, Note_on_c, 12, 53, 36
20, 291456, Note_off_c, 12, 53, 0
20, 291456, Note_on_c, 12, 57, 39
20, 291584, Note_off_c, 12, 57, 0
20, 291584, Note_on_c, 12, 62, 41
20, 291712, Note_off_c, 12, 62, 0
20, 291712, Note_on_c, 12, 64, 42
20, 291840, Note_off_c, 12, 64, 0
20, 291840, Note_on_c, 12, 52, 31
20, 291968, Note_off_c, 12, 52, 0
20, 291968, Note_on_c, 12, 57, 35
20, 292096, Note_off_c, 12, 57, 0
20, 292096, Note_on_c, 12, 62, 45
20, 292224, Note_off_c, 12, 62, 0
20, 292224, Note_on_c, 12, 52, 33
20, 292352, Note_off_c, 12, 52, 0
20, 292352, Note_on_c, 12, 57, 40
20, 292480, Note_off_c, 12, 57, 0
20, 292480, Note_on_c, 12, 62, 43
20, 292608, Note_off_c, 12, 62, 0
20, 292608, Note_on_c, 12, 52, 38
20, 292736, Note_off_c, 12, 52, 0
20, 292736, Note_on_c, 12, 57, 46
20, 292864, Note_off_c, 12, 57, 0
20, 292864, Note_on_c, 12, 62, 46
20, 292992, Note_off_c, 12, 62, 0
20, 292992, Note_on_c, 12, 53, 33
20, 293120, Note_off_c, 12, 53, 0
20, 293120, Note_on_c, 12, 57, 46
20, 293248, Note_off_c, 12, 57, 0
20, 293248, Note_on_c, 12, 64, 49
20, 293376, Note_off_c, 12, 64, 0
20, 293376, Note_on_c, 12, 52, 30
20, 293504, Note_off_c, 12, 52, 0
20, 293504, Note_on_c, 12, 53, 43
20, 293632, Note_off_c, 12, 53, 0
20, 293632, Note_on_c, 12, 57, 45
20, 293760, Note_off_c, 12, 57, 0
20, 293760, Note_on_c, 12, 62, 44
20, 293888, Note_off_c, 12, 62, 0
20, 293888, Note_on_c, 12, 56, 35
20, 294016, Note_off_c, 12, 56, 0
20, 294016, Note_on_c, 12, 59, 39
20, 294144, Note_off_c, 12, 59, 0
20, 294144, Note_on_c, 12, 64, 42
20, 294272, Note_off_c, 12, 64, 0
20, 294272, Note_on_c, 12, 56, 35
20, 294400, Note_off_c, 12, 56, 0
20, 294400, Note_on_c, 12, 64, 43
20, 294528, Note_off_c, 12, 64, 0
20, 294528, Note_on_c, 12, 56, 31
20, 294656, Note_off_c, 12, 56, 0
20, 294656, Note_on_c, 12, 62, 47
20, 294784, Note_off_c, 12, 62, 0
20, 294784, Note_on_c, 12, 50, 35
20, 294912, Note_off_c, 12, 50, 0
20, 294912, Note_on_c, 12, 52, 41
20, 295040, Note_off_c, 12, 52, 0
20, 295040, Note_on_c, 12, 59, 43
20, 295168, Note_off_c, 12, 59, 0
20, 295168, Note_on_c, 12, 62, 41
20, 295296, Note_off_c, 12, 62, 0
20, 295296, Note_on_c, 12, 56, 39
20, 295424, Note_off_c, 12, 56, 0
20, 295424, Note_on_c, 12, 59, 41
20, 295552, Note_off_c, 12, 59, 0
20, 295552, Note_on_c, 12, 62, 47
20, 295680, Note_off_c, 12, 62, 0
20, 295680, Note_on_c, 12, 56, 34
20, 295808, Note_off_c, 12, 56, 0
20, 295808, Note_on_c, 12, 59, 38
20, 295936, Note_off_c, 12, 59, 0
20, 295936, Note_on_c, 12, 64, 45
20, 296064, Note_off_c, 12, 64, 0
20, 296064, Note_on_c, 12, 52, 32
20, 296192, Note_off_c, 12, 52, 0
20, 296192, Note_on_c, 12, 56, 42
20, 296320, Note_off_c, 12, 56, 0
20, 296320, Note_on_c, 12, 59, 41
20, 296448, Note_off_c, 12, 59, 0
20, 296448, Note_on_c, 12, 57, 40
20, 296576, Note_off_c, 12, 57, 0
20, 296576, Note_on_c, 12, 62, 48
20, 296704, Note_off_c, 12, 62, 0
20, 296704, Note_on_c, 12, 53, 38
20, 296832, Note_off_c, 12, 53, 0
20, 296832, Note_on_c, 12, 52, 38
20, 296960, Note_off_c, 12, 52, 0
20, 296960, Note_on_c, 12, 57, 42
20, 297088, Note_off_c, 12, 57, 0
20, 297088, Note_on_c, 12, 62, 43
20, 297216, Note_off_c, 12, 62, 0
20, 297216, Note_on_c, 12, 50, 36
20, 297344, Note_off_c, 12, 50, 0
20, 297344, Note_on_c, 12, 52, 36
20, 297472, Note_off_c, 12, 52, 0
20, 297472, Note_on_c, 12, 57, 41
20, 297600, Note_off_c, 12, 57, 0
20, 297600, Note_on_c, 12, 62, 45
20, 297728, Note_off_c, 12, 62, 0
20, 297728, Note_on_c, 12, 53, 36
20, 297856, Note_off_c, 12, 53, 0
20, 297856, Note_on_c, 12, 57, 44
20, 297984, Note_off_c, 12, 57, 0
20, 297984, Note_on_c, 12, 62, 50
20, 298112, Note_off_c, 12, 62, 0
20, 298112, Note_on_c, 12, 61, 38
20, 298240, Note_off_c, 12, 61, 0
20, 298240, Note_on_c, 12, 64, 42
20, 298368, Note_off_c, 12, 64, 0
20, 298368, Note_on_c, 12, 62, 36
20, 298496, Note_off_c, 12, 62, 0
20, 298496, Note_on_c, 12, 53, 36
20, 298624, Note_off_c, 12, 53, 0
20, 298624, Note_on_c, 12, 57, 41
20, 298752, Note_off_c, 12, 57, 0
20, 298752, Note_on_c, 12, 62, 53
20, 298880, Note_off_c, 12, 62, 0
20, 298880, Note_on_c, 12, 53, 33
20, 299008, Note_off_c, 12, 53, 0
20, 299008, Note_on_c, 12, 58, 39
20, 299136, Note_off_c, 12, 58, 0
20, 299136, Note_on_c, 12, 62, 40
20, 299264, Note_off_c, 12, 62, 0
20, 299264, Note_on_c, 12, 54, 37
20, 299392, Note_off_c, 12, 54, 0
20, 299392, Note_on_c, 12, 57, 42
20, 299520, Note_off_c, 12, 57, 0
20, 299520, Note_on_c, 12, 58, 38
20, 299648, Note_off_c, 12, 58, 0
20, 299648, Note_on_c, 12, 62, 44
20, 299776, Note_off_c, 12, 62, 0
20, 299776, Note_on_c, 12, 58, 37
20, 299904, Note_off_c, 12, 58, 0
20, 299904, Note_on_c, 12, 54, 42
20, 300032, Note_off_c, 12, 54, 0
20, 300032, Note_on_c, 12, 57, 40
20, 300160, Note_off_c, 12, 57, 0
20, 300160, Note_on_c, 12, 58, 36
20, 300288, Note_off_c, 12, 58, 0
20, 300288, Note_on_c, 12, 62, 44
20, 300416, Note_off_c, 12, 62, 0
20, 300416, Note_on_c, 12, 52, 35
20, 300544, Note_off_c, 12, 52, 0
20, 300544, Note_on_c, 12, 54, 44
20, 300672, Note_off_c, 12, 54, 0
20, 300672, Note_on_c, 12, 57, 44
20, 300800, Note_off_c, 12, 57, 0
20, 300800, Note_on_c, 12, 58, 38
20, 300928, Note_off_c, 12, 58, 0
20, 300928, Note_on_c, 12, 62, 44
20, 301056, Note_off_c, 12, 62, 0
20, 301056, Note_on_c, 12, 50, 38
20, 301184, Note_off_c, 12, 50, 0
20, 301184, Note_on_c, 12, 54, 40
20, 301312, Note_off_c, 12, 54, 0
20, 301312, Note_on_c, 12, 58, 38
20, 301440, Note_off_c, 12, 58, 0
20, 301440, Note_on_c, 12, 54, 35
20, 301568, Note_off_c, 12, 54, 0
20, 301568, Note_on_c, 12, 60, 43
20, 301696, Note_off_c, 12, 60, 0
20, 301696, Note_on_c, 12, 61, 42
20, 301824, Note_off_c, 12, 61, 0
20, 301824, Note_on_c, 12, 64, 43
20, 301952, Note_off_c, 12, 64, 0
20, 301952, Note_on_c, 12, 54, 37
20, 302080, Note_off_c, 12, 54, 0
20, 302080, Note_on_c, 12, 58, 41
20, 302208, Note_off_c, 12, 58, 0
20, 302208, Note_on_c, 12, 62, 38
20, 302336, Note_off_c, 12, 62, 0
20, 302336, Note_on_c, 12, 60, 38
20, 302464, Note_off_c, 12, 60, 0
20, 302464, Note_on_c, 12, 54, 35
20, 302592, Note_off_c, 12, 54, 0
20, 302592, Note_on_c, 12, 60, 45
20, 302720, Note_off_c, 12, 60, 0
20, 302720, Note_on_c, 12, 64, 41
20, 302848, Note_off_c, 12, 64, 0
20, 302848, Note_on_c, 12, 57, 39
20, 302976, Note_off_c, 12, 57, 0
20, 302976, Note_on_c, 12, 60, 45
20, 303104, Note_off_c, 12, 60, 0
20, 303104, Note_on_c, 12, 62, 42
20, 303232, Note_off_c, 12, 62, 0
20, 303232, Note_on_c, 12, 54, 38
20, 303360, Note_off_c, 12, 54, 0
20, 303360, Note_on_c, 12, 62, 47
20, 303488, Note_off_c, 12, 62, 0
20, 303488, Note_on_c, 12, 54, 37
20, 303616, Note_off_c, 12, 54, 0
20, 303616, Note_on_c, 12, 64, 49
20, 303744, Note_off_c, 12, 64, 0
20, 303744, Note_on_c, 12, 57, 41
20, 303872, Note_off_c, 12, 57, 0
20, 303872, Note_on_c, 12, 60, 40
20, 304000, Note_off_c, 12, 60, 0
20, 304000, Note_on_c, 12, 62, 44
20, 304128, Note_off_c, 12, 62, 0
20, 304640, Note_on_c, 12, 62, 32
20, 304768, Note_off_c, 12, 62, 0
20, 304768, Note_on_c, 12, 54, 33
20, 304896, Note_off_c, 12, 54, 0
20, 304896, Note_on_c, 12, 57, 47
20, 305024, Note_off_c, 12, 57, 0
20, 305024, Note_on_c, 12, 58, 38
20, 305152, Note_off_c, 12, 58, 0
20, 305152, Note_on_c, 12, 60, 44
20, 305280, Note_off_c, 12, 60, 0
20, 305280, Note_on_c, 12, 62, 42
20, 305408, Note_off_c, 12, 62, 0
20, 305408, Note_on_c, 12, 54, 38
20, 305536, Note_off_c, 12, 54, 0
20, 305536, Note_on_c, 12, 62, 48
20, 305664, Note_off_c, 12, 62, 0
20, 305664, Note_on_c, 12, 58, 40
20, 305792, Note_off_c, 12, 58, 0
20, 305792, Note_on_c, 12, 60, 42
20, 305920, Note_off_c, 12, 60, 0
20, 305920, Note_on_c, 12, 62, 42
20, 306048, Note_off_c, 12, 62, 0
20, 306048, Note_on_c, 12, 55, 37
20, 306176, Note_off_c, 12, 55, 0
20, 306176, Note_on_c, 12, 58, 40
20, 306304, Note_off_c, 12, 58, 0
20, 306304, Note_on_c, 12, 60, 40
20, 306432, Note_off_c, 12, 60, 0
20, 306432, Note_on_c, 12, 62, 39
20, 306560, Note_off_c, 12, 62, 0
20, 306560, Note_on_c, 12, 50, 36
20, 306688, Note_off_c, 12, 50, 0
20, 306688, Note_on_c, 12, 55, 42
20, 306816, Note_off_c, 12, 55, 0
20, 306816, Note_on_c, 12, 58, 42
20, 306944, Note_off_c, 12, 58, 0
20, 306944, Note_on_c, 12, 60, 42
20, 307072, Note_off_c, 12, 60, 0
20, 307072, Note_on_c, 12, 62, 48
20, 307200, Note_off_c, 12, 62, 0
20, 307200, Note_on_c, 12, 54, 33
20, 307328, Note_off_c, 12, 54, 0
20, 307328, Note_on_c, 12, 62, 47
20, 307456, Note_off_c, 12, 62, 0
20, 307456, Note_on_c, 12, 58, 39
20, 307584, Note_off_c, 12, 58, 0
20, 307584, Note_on_c, 12, 60, 41
20, 307712, Note_off_c, 12, 60, 0
20, 307712, Note_on_c, 12, 62, 41
20, 307840, Note_off_c, 12, 62, 0
20, 307840, Note_on_c, 12, 55, 37
20, 307968, Note_off_c, 12, 55, 0
20, 307968, Note_on_c, 12, 58, 43
20, 308096, Note_off_c, 12, 58, 0
20, 308096, Note_on_c, 12, 61, 43
20, 308224, Note_off_c, 12, 61, 0
20, 308224, Note_on_c, 12, 63, 48
20, 308352, Note_off_c, 12, 63, 0
20, 308352, Note_on_c, 12, 49, 38
20, 308480, Note_off_c, 12, 49, 0
20, 308480, Note_on_c, 12, 55, 38
20, 308608, Note_off_c, 12, 55, 0
20, 308608, Note_on_c, 12, 58, 38
20, 308736, Note_off_c, 12, 58, 0
20, 308736, Note_on_c, 12, 61, 44
20, 308864, Note_off_c, 12, 61, 0
20, 308864, Note_on_c, 12, 63, 42
20, 308992, Note_off_c, 12, 63, 0
20, 308992, Note_on_c, 12, 54, 35
20, 309120, Note_off_c, 12, 54, 0
20, 309120, Note_on_c, 12, 62, 48
20, 309248, Note_off_c, 12, 62, 0
20, 309248, Note_on_c, 12, 59, 39
20, 309376, Note_off_c, 12, 59, 0
20, 309376, Note_on_c, 12, 62, 40
20, 309504, Note_off_c, 12, 62, 0
20, 309504, Note_on_c, 12, 64, 45
20, 309632, Note_off_c, 12, 64, 0
20, 309632, Note_on_c, 12, 56, 40
20, 309760, Note_off_c, 12, 56, 0
20, 309760, Note_on_c, 12, 59, 41
20, 309888, Note_off_c, 12, 59, 0
20, 309888, Note_on_c, 12, 62, 44
20, 310016, Note_off_c, 12, 62, 0
20, 310016, Note_on_c, 12, 64, 47
20, 310144, Note_off_c, 12, 64, 0
20, 310144, Note_on_c, 12, 52, 38
20, 310272, Note_off_c, 12, 52, 0
20, 310272, Note_on_c, 12, 55, 37
20, 310400, Note_off_c, 12, 55, 0
20, 310400, Note_on_c, 12, 56, 39
20, 310528, Note_off_c, 12, 56, 0
20, 310528, Note_on_c, 12, 62, 43
20, 310656, Note_off_c, 12, 62, 0
20, 310656, Note_on_c, 12, 64, 45
20, 310784, Note_off_c, 12, 64, 0
20, 311168, Note_on_c, 12, 55, 40
20, 311296, Note_off_c, 12, 55, 0
20, 311296, Note_on_c, 12, 56, 38
20, 311424, Note_off_c, 12, 56, 0
20, 311424, Note_on_c, 12, 63, 46
20, 311552, Note_off_c, 12, 63, 0
20, 311552, Note_on_c, 12, 65, 41
20, 311808, Note_off_c, 12, 65, 0
20, 312320, Note_on_c, 12, 55, 39
20, 312448, Note_off_c, 12, 55, 0
20, 312448, Note_on_c, 12, 56, 38
20, 312576, Note_off_c, 12, 56, 0
20, 312576, Note_on_c, 12, 63, 47
20, 312704, Note_off_c, 12, 63, 0
20, 312704, Note_on_c, 12, 65, 40
20, 312832, Note_off_c, 12, 65, 0
20, 318464, Note_on_c, 12, 57, 59
20, 318464, Note_on_c, 12, 61, 59
20, 318464, Note_on_c, 12, 63, 59
20, 318464, Note_on_c, 12, 66, 59
20, 318720, Note_off_c, 12, 57, 0
20, 318720, Note_off_c, 12, 61, 0
20, 318720, Note_off_c, 12, 63, 0
20, 318720, Note_off_c, 12, 66, 0
20, 318976, Note_on_c, 12, 57, 58
20, 318976, Note_on_c, 12, 61, 58
20, 318976, Note_on_c, 12, 63, 58
20, 318976, Note_on_c, 12, 66, 58
20, 319232, Note_off_c, 12, 57, 0
20, 319232, Note_off_c, 12, 61, 0
20, 319232, Note_off_c, 12, 63, 0
20, 319232, Note_off_c, 12, 66, 0
20, 319488, Note_on_c, 12, 57, 56
20, 319488, Note_on_c, 12, 61, 56
20, 319488, Note_on_c, 12, 63, 56
20, 319488, Note_on_c, 12, 66, 56
20, 319744, Note_off_c, 12, 57, 0
20, 319744, Note_off_c, 12, 61, 0
20, 319744, Note_off_c, 12, 63, 0
20, 319744, Note_off_c, 12, 66, 0
20, 320000, Note_on_c, 12, 57, 61
20, 320000, Note_on_c, 12, 61, 61
20, 320000, Note_on_c, 12, 63, 61
20, 320000, Note_on_c, 12, 66, 61
20, 320256, Note_off_c, 12, 57, 0
20, 320256, Note_off_c, 12, 61, 0
20, 320256, Note_off_c, 12, 63, 0
20, 320256, Note_off_c, 12, 66, 0
20, 320512, Note_on_c, 12, 57, 57
20, 320512, Note_on_c, 12, 62, 57
20, 320512, Note_on_c, 12, 65, 57
20, 320768, Note_off_c, 12, 57, 0
20, 320768, Note_off_c, 12, 62, 0
20, 320768, Note_off_c, 12, 65, 0
20, 321024, Note_on_c, 12, 57, 55
20, 321024, Note_on_c, 12, 62, 55
20, 321024, Note_on_c, 12, 65, 55
20, 321280, Note_off_c, 12, 57, 0
20, 321280, Note_off_c, 12, 62, 0
20, 321280, Note_off_c, 12, 65, 0
20, 321536, Note_on_c, 12, 57, 52
20, 321536, Note_on_c, 12, 62, 52
20, 321536, Note_on_c, 12, 65, 52
20, 321792, Note_off_c, 12, 57, 0
20, 321792, Note_off_c, 12, 62, 0
20, 321792, Note_off_c, 12, 65, 0
20, 322048, Note_on_c, 12, 57, 51
20, 322048, Note_on_c, 12, 62, 51
20, 322048, Note_on_c, 12, 65, 51
20, 322304, Note_off_c, 12, 57, 0
20, 322304, Note_off_c, 12, 62, 0
20, 322304, Note_off_c, 12, 65, 0
20, 322304, Note_on_c, 12, 57, 63
20, 322304, Note_on_c, 12, 62, 63
20, 322304, Note_on_c, 12, 65, 63
20, 322560, Note_off_c, 12, 57, 0
20, 322560, Note_off_c, 12, 62, 0
20, 322560, Note_off_c, 12, 65, 0
20, 322560, Note_on_c, 12, 57, 61
20, 322560, Note_on_c, 12, 62, 61
20, 322560, Note_on_c, 12, 65, 61
20, 322816, Note_off_c, 12, 57, 0
20, 322816, Note_off_c, 12, 62, 0
20, 322816, Note_off_c, 12, 65, 0
20, 322816, Note_on_c, 12, 57, 59
20, 322816, Note_on_c, 12, 62, 59
20, 322816, Note_on_c, 12, 65, 59
20, 323072, Note_off_c, 12, 57, 0
20, 323072, Note_off_c, 12, 62, 0
20, 323072, Note_off_c, 12, 65, 0
20, 323072, Note_on_c, 12, 50, 46
20, 323072, Note_on_c, 12, 53, 46
20, 323072, Note_on_c, 12, 57, 46
20, 323072, Note_on_c, 12, 58, 46
20, 323328, Note_off_c, 12, 50, 0
20, 323328, Note_off_c, 12, 53, 0
20, 323328, Note_off_c, 12, 57, 0
20, 323328, Note_off_c, 12, 58, 0
20, 323328, Note_on_c, 12, 50, 57
20, 323328, Note_on_c, 12, 53, 57
20, 323328, Note_on_c, 12, 57, 57
20, 323328, Note_on_c, 12, 58, 57
20, 323584, Note_off_c, 12, 50, 0
20, 323584, Note_off_c, 12, 53, 0
20, 323584, Note_off_c, 12, 57, 0
20, 323584, Note_off_c, 12, 58, 0
20, 323584, Note_on_c, 12, 50, 61
20, 323584, Note_on_c, 12, 53, 61
20, 323584, Note_on_c, 12, 57, 61
20, 323584, Note_on_c, 12, 58, 61
20, 323840, Note_off_c, 12, 50, 0
20, 323840, Note_off_c, 12, 53, 0
20, 323840, Note_off_c, 12, 57, 0
20, 323840, Note_off_c, 12, 58, 0
20, 323840, Note_on_c, 12, 51, 58
20, 323840, Note_on_c, 12, 54, 58
20, 323840, Note_on_c, 12, 57, 58
20, 323840, Note_on_c, 12, 59, 58
20, 324096, Note_off_c, 12, 51, 0
20, 324096, Note_off_c, 12, 54, 0
20, 324096, Note_off_c, 12, 57, 0
20, 324096, Note_off_c, 12, 59, 0
20, 324096, Note_on_c, 12, 51, 64
20, 324096, Note_on_c, 12, 54, 64
20, 324096, Note_on_c, 12, 57, 64
20, 324096, Note_on_c, 12, 59, 64
20, 324352, Note_off_c, 12, 51, 0
20, 324352, Note_off_c, 12, 54, 0
20, 324352, Note_off_c, 12, 57, 0
20, 324352, Note_off_c, 12, 59, 0
20, 324352, Note_on_c, 12, 51, 62
20, 324352, Note_on_c, 12, 54, 62
20, 324352, Note_on_c, 12, 57, 62
20, 324352, Note_on_c, 12, 59, 62
20, 324608, Note_off_c, 12, 51, 0
20, 324608, Note_off_c, 12, 54, 0
20, 324608, Note_off_c, 12, 57, 0
20, 324608, Note_off_c, 12, 59, 0
20, 324608, Note_on_c, 12, 51, 63
20, 324608, Note_on_c, 12, 54, 63
20, 324608, Note_on_c, 12, 57, 63
20, 324608, Note_on_c, 12, 59, 63
20, 324864, Note_off_c, 12, 51, 0
20, 324864, Note_off_c, 12, 54, 0
20, 324864, Note_off_c, 12, 57, 0
20, 324864, Note_off_c, 12, 59, 0
20, 324864, Note_on_c, 12, 51, 63
20, 324864, Note_on_c, 12, 54, 63
20, 324864, Note_on_c, 12, 57, 63
20, 324864, Note_on_c, 12, 59, 63
20, 325120, Note_off_c, 12, 51, 0
20, 325120, Note_off_c, 12, 54, 0
20, 325120, Note_off_c, 12, 57, 0
20, 325120, Note_off_c, 12, 59, 0
20, 325120, Note_on_c, 12, 51, 60
20, 325120, Note_on_c, 12, 54, 60
20, 325120, Note_on_c, 12, 57, 60
20, 325120, Note_on_c, 12, 59, 60
20, 325376, Note_off_c, 12, 51, 0
20, 325376, Note_off_c, 12, 54, 0
20, 325376, Note_off_c, 12, 57, 0
20, 325376, Note_off_c, 12, 59, 0
20, 325376, Note_on_c, 12, 52, 57
20, 325376, Note_on_c, 12, 55, 57
20, 325376, Note_on_c, 12, 58, 57
20, 325376, Note_on_c, 12, 60, 57
20, 325632, Note_off_c, 12, 52, 0
20, 325632, Note_off_c, 12, 55, 0
20, 325632, Note_off_c, 12, 58, 0
20, 325632, Note_off_c, 12, 60, 0
20, 325632, Note_on_c, 12, 52, 61
20, 325632, Note_on_c, 12, 55, 61
20, 325632, Note_on_c, 12, 58, 61
20, 325632, Note_on_c, 12, 60, 61
20, 325888, Note_off_c, 12, 52, 0
20, 325888, Note_off_c, 12, 55, 0
20, 325888, Note_off_c, 12, 58, 0
20, 325888, Note_off_c, 12, 60, 0
20, 325888, Note_on_c, 12, 52, 62
20, 325888, Note_on_c, 12, 55, 62
20, 325888, Note_on_c, 12, 58, 62
20, 325888, Note_on_c, 12, 60, 62
20, 326144, Note_off_c, 12, 52, 0
20, 326144, Note_off_c, 12, 55, 0
20, 326144, Note_off_c, 12, 58, 0
20, 326144, Note_off_c, 12, 60, 0
20, 326144, Note_on_c, 12, 52, 56
20, 326144, Note_on_c, 12, 55, 56
20, 326144, Note_on_c, 12, 58, 56
20, 326144, Note_on_c, 12, 60, 56
20, 326400, Note_off_c, 12, 52, 0
20, 326400, Note_off_c, 12, 55, 0
20, 326400, Note_off_c, 12, 58, 0
20, 326400, Note_off_c, 12, 60, 0
20, 326400, Note_on_c, 12, 52, 60
20, 326400, Note_on_c, 12, 55, 60
20, 326400, Note_on_c, 12, 58, 60
20, 326400, Note_on_c, 12, 60, 60
20, 326656, Note_off_c, 12, 52, 0
20, 326656, Note_off_c, 12, 55, 0
20, 326656, Note_off_c, 12, 58, 0
20, 326656, Note_off_c, 12, 60, 0
20, 326656, Note_on_c, 12, 53, 60
20, 326656, Note_on_c, 12, 56, 60
20, 326656, Note_on_c, 12, 59, 60
20, 326656, Note_on_c, 12, 61, 60
20, 326912, Note_off_c, 12, 53, 0
20, 326912, Note_off_c, 12, 56, 0
20, 326912, Note_off_c, 12, 59, 0
20, 326912, Note_off_c, 12, 61, 0
20, 326912, Note_on_c, 12, 53, 61
20, 326912, Note_on_c, 12, 56, 61
20, 326912, Note_on_c, 12, 59, 61
20, 326912, Note_on_c, 12, 61, 61
20, 327168, Note_off_c, 12, 53, 0
20, 327168, Note_off_c, 12, 56, 0
20, 327168, Note_off_c, 12, 59, 0
20, 327168, Note_off_c, 12, 61, 0
20, 327168, Note_on_c, 12, 53, 62
20, 327168, Note_on_c, 12, 56, 62
20, 327168, Note_on_c, 12, 59, 62
20, 327168, Note_on_c, 12, 61, 62
20, 327424, Note_off_c, 12, 53, 0
20, 327424, Note_off_c, 12, 56, 0
20, 327424, Note_off_c, 12, 59, 0
20, 327424, Note_off_c, 12, 61, 0
20, 327424, Note_on_c, 12, 53, 57
20, 327424, Note_on_c, 12, 56, 57
20, 327424, Note_on_c, 12, 59, 57
20, 327424, Note_on_c, 12, 61, 57
20, 327680, Note_off_c, 12, 53, 0
20, 327680, Note_off_c, 12, 56, 0
20, 327680, Note_off_c, 12, 59, 0
20, 327680, Note_off_c, 12, 61, 0
20, 327680, Note_on_c, 12, 53, 63
20, 327680, Note_on_c, 12, 56, 63
20, 327680, Note_on_c, 12, 59, 63
20, 327680, Note_on_c, 12, 61, 63
20, 327936, Note_off_c, 12, 53, 0
20, 327936, Note_off_c, 12, 56, 0
20, 327936, Note_off_c, 12, 59, 0
20, 327936, Note_off_c, 12, 61, 0
20, 327936, Note_on_c, 12, 54, 64
20, 327936, Note_on_c, 12, 57, 64
20, 327936, Note_on_c, 12, 60, 64
20, 327936, Note_on_c, 12, 62, 64
20, 328192, Note_off_c, 12, 54, 0
20, 328192, Note_off_c, 12, 57, 0
20, 328192, Note_off_c, 12, 60, 0
20, 328192, Note_off_c, 12, 62, 0
20, 328192, Note_on_c, 12, 54, 66
20, 328192, Note_on_c, 12, 57, 66
20, 328192, Note_on_c, 12, 60, 66
20, 328192, Note_on_c, 12, 62, 66
20, 328448, Note_off_c, 12, 54, 0
20, 328448, Note_off_c, 12, 57, 0
20, 328448, Note_off_c, 12, 60, 0
20, 328448, Note_off_c, 12, 62, 0
20, 328448, Note_on_c, 12, 54, 62
20, 328448, Note_on_c, 12, 57, 62
20, 328448, Note_on_c, 12, 60, 62
20, 328448, Note_on_c, 12, 62, 62
20, 328704, Note_off_c, 12, 54, 0
20, 328704, Note_off_c, 12, 57, 0
20, 328704, Note_off_c, 12, 60, 0
20, 328704, Note_off_c, 12, 62, 0
20, 328704, Note_on_c, 12, 54, 59
20, 328704, Note_on_c, 12, 57, 59
20, 328704, Note_on_c, 12, 60, 59
20, 328704, Note_on_c, 12, 62, 59
20, 328960, Note_off_c, 12, 54, 0
20, 328960, Note_off_c, 12, 57, 0
20, 328960, Note_off_c, 12, 60, 0
20, 328960, Note_off_c, 12, 62, 0
20, 328960, Note_on_c, 12, 54, 65
20, 328960, Note_on_c, 12, 57, 65
20, 328960, Note_on_c, 12, 60, 65
20, 328960, Note_on_c, 12, 62, 65
20, 329216, Note_off_c, 12, 54, 0
20, 329216, Note_off_c, 12, 57, 0
20, 329216, Note_off_c, 12, 60, 0
20, 329216, Note_off_c, 12, 62, 0
20, 329216, Note_on_c, 12, 54, 62
20, 329216, Note_on_c, 12, 57, 62
20, 329216, Note_on_c, 12, 60, 62
20, 329216, Note_on_c, 12, 62, 62
20, 329472, Note_off_c, 12, 54, 0
20, 329472, Note_off_c, 12, 57, 0
20, 329472, Note_off_c, 12, 60, 0
20, 329472, Note_off_c, 12, 62, 0
20, 329472, Note_on_c, 12, 54, 60
20, 329472, Note_on_c, 12, 57, 60
20, 329472, Note_on_c, 12, 60, 60
20, 329472, Note_on_c, 12, 62, 60
20, 329728, Note_off_c, 12, 54, 0
20, 329728, Note_off_c, 12, 57, 0
20, 329728, Note_off_c, 12, 60, 0
20, 329728, Note_off_c, 12, 62, 0
20, 329728, Note_on_c, 12, 54, 54
20, 329728, Note_on_c, 12, 57, 54
20, 329728, Note_on_c, 12, 60, 54
20, 329728, Note_on_c, 12, 62, 54
20, 329984, Note_off_c, 12, 54, 0
20, 329984, Note_off_c, 12, 57, 0
20, 329984, Note_off_c, 12, 60, 0
20, 329984, Note_off_c, 12, 62, 0
20, 329984, Note_on_c, 12, 54, 60
20, 329984, Note_on_c, 12, 57, 60
20, 329984, Note_on_c, 12, 60, 60
20, 329984, Note_on_c, 12, 62, 60
20, 330240, Note_off_c, 12, 54, 0
20, 330240, Note_off_c, 12, 57, 0
20, 330240, Note_off_c, 12, 60, 0
20, 330240, Note_off_c, 12, 62, 0
20, 330240, Note_on_c, 12, 50, 67
20, 330240, Note_on_c, 12, 54, 67
20, 330240, Note_on_c, 12, 58, 67
20, 330240, Note_on_c, 12, 64, 67
20, 330496, Note_off_c, 12, 50, 0
20, 330496, Note_off_c, 12, 54, 0
20, 330496, Note_off_c, 12, 58, 0
20, 330496, Note_off_c, 12, 64, 0
20, 330496, Note_on_c, 12, 50, 62
20, 330496, Note_on_c, 12, 54, 62
20, 330496, Note_on_c, 12, 58, 62
20, 330496, Note_on_c, 12, 64, 62
20, 330752, Note_off_c, 12, 50, 0
20, 330752, Note_off_c, 12, 54, 0
20, 330752, Note_off_c, 12, 58, 0
20, 330752, Note_off_c, 12, 64, 0
20, 330752, Note_on_c, 12, 50, 59
20, 330752, Note_on_c, 12, 54, 59
20, 330752, Note_on_c, 12, 58, 59
20, 330752, Note_on_c, 12, 64, 59
20, 331008, Note_off_c, 12, 50, 0
20, 331008, Note_off_c, 12, 54, 0
20, 331008, Note_off_c, 12, 58, 0
20, 331008, Note_off_c, 12, 64, 0
20, 331008, Note_on_c, 12, 50, 65
20, 331008, Note_on_c, 12, 54, 65
20, 331008, Note_on_c, 12, 58, 65
20, 331008, Note_on_c, 12, 64, 65
20, 331264, Note_off_c, 12, 50, 0
20, 331264, Note_off_c, 12, 54, 0
20, 331264, Note_off_c, 12, 58, 0
20, 331264, Note_off_c, 12, 64, 0
20, 331264, Note_on_c, 12, 50, 60
20, 331264, Note_on_c, 12, 54, 60
20, 331264, Note_on_c, 12, 58, 60
20, 331264, Note_on_c, 12, 64, 60
20, 331520, Note_off_c, 12, 50, 0
20, 331520, Note_off_c, 12, 54, 0
20, 331520, Note_off_c, 12, 58, 0
20, 331520, Note_off_c, 12, 64, 0
20, 331520, Note_on_c, 12, 50, 62
20, 331520, Note_on_c, 12, 54, 62
20, 331520, Note_on_c, 12, 58, 62
20, 331520, Note_on_c, 12, 64, 62
20, 331776, Note_off_c, 12, 50, 0
20, 331776, Note_off_c, 12, 54, 0
20, 331776, Note_off_c, 12, 58, 0
20, 331776, Note_off_c, 12, 64, 0
20, 331776, Note_on_c, 12, 50, 60
20, 331776, Note_on_c, 12, 54, 60
20, 331776, Note_on_c, 12, 58, 60
20, 331776, Note_on_c, 12, 64, 60
20, 332032, Note_off_c, 12, 50, 0
20, 332032, Note_off_c, 12, 54, 0
20, 332032, Note_off_c, 12, 58, 0
20, 332032, Note_off_c, 12, 64, 0
20, 332032, Note_on_c, 12, 50, 59
20, 332032, Note_on_c, 12, 54, 59
20, 332032, Note_on_c, 12, 58, 59
20, 332032, Note_on_c, 12, 64, 59
20, 332288, Note_off_c, 12, 50, 0
20, 332288, Note_off_c, 12, 54, 0
20, 332288, Note_off_c, 12, 58, 0
20, 332288, Note_off_c, 12, 64, 0
20, 332288, Note_on_c, 12, 52, 57
20, 332288, Note_on_c, 12, 54, 57
20, 332288, Note_on_c, 12, 58, 57
20, 332288, Note_on_c, 12, 63, 57
20, 332544, Note_off_c, 12, 52, 0
20, 332544, Note_off_c, 12, 54, 0
20, 332544, Note_off_c, 12, 58, 0
20, 332544, Note_off_c, 12, 63, 0
20, 332544, Note_on_c, 12, 52, 60
20, 332544, Note_on_c, 12, 54, 60
20, 332544, Note_on_c, 12, 58, 60
20, 332544, Note_on_c, 12, 63, 60
20, 332800, Note_off_c, 12, 52, 0
20, 332800, Note_off_c, 12, 54, 0
20, 332800, Note_off_c, 12, 58, 0
20, 332800, Note_off_c, 12, 63, 0
20, 332800, Note_on_c, 12, 52, 60
20, 332800, Note_on_c, 12, 54, 60
20, 332800, Note_on_c, 12, 58, 60
20, 332800, Note_on_c, 12, 63, 60
20, 333056, Note_off_c, 12, 52, 0
20, 333056, Note_off_c, 12, 54, 0
20, 333056, Note_off_c, 12, 58, 0
20, 333056, Note_off_c, 12, 63, 0
20, 333056, Note_on_c, 12, 52, 61
20, 333056, Note_on_c, 12, 54, 61
20, 333056, Note_on_c, 12, 58, 61
20, 333056, Note_on_c, 12, 63, 61
20, 333312, Note_off_c, 12, 52, 0
20, 333312, Note_off_c, 12, 54, 0
20, 333312, Note_off_c, 12, 58, 0
20, 333312, Note_off_c, 12, 63, 0
20, 333312, Note_on_c, 12, 52, 63
20, 333312, Note_on_c, 12, 54, 63
20, 333312, Note_on_c, 12, 58, 63
20, 333312, Note_on_c, 12, 63, 63
20, 333568, Note_off_c, 12, 52, 0
20, 333568, Note_off_c, 12, 54, 0
20, 333568, Note_off_c, 12, 58, 0
20, 333568, Note_off_c, 12, 63, 0
20, 333568, Note_on_c, 12, 52, 61
20, 333568, Note_on_c, 12, 54, 61
20, 333568, Note_on_c, 12, 58, 61
20, 333568, Note_on_c, 12, 63, 61
20, 333824, Note_off_c, 12, 52, 0
20, 333824, Note_off_c, 12, 54, 0
20, 333824, Note_off_c, 12, 58, 0
20, 333824, Note_off_c, 12, 63, 0
20, 333824, Note_on_c, 12, 52, 61
20, 333824, Note_on_c, 12, 54, 61
20, 333824, Note_on_c, 12, 58, 61
20, 333824, Note_on_c, 12, 63, 61
20, 334080, Note_off_c, 12, 52, 0
20, 334080, Note_off_c, 12, 54, 0
20, 334080, Note_off_c, 12, 58, 0
20, 334080, Note_off_c, 12, 63, 0
20, 334080, Note_on_c, 12, 52, 63
20, 334080, Note_on_c, 12, 54, 63
20, 334080, Note_on_c, 12, 58, 63
20, 334080, Note_on_c, 12, 63, 63
20, 334336, Note_off_c, 12, 52, 0
20, 334336, Note_off_c, 12, 54, 0
20, 334336, Note_off_c, 12, 58, 0
20, 334336, Note_off_c, 12, 63, 0
20, 334336, Note_on_c, 12, 52, 66
20, 334336, Note_on_c, 12, 54, 66
20, 334336, Note_on_c, 12, 58, 66
20, 334336, Note_on_c, 12, 63, 66
20, 334592, Note_off_c, 12, 52, 0
20, 334592, Note_off_c, 12, 54, 0
20, 334592, Note_off_c, 12, 58, 0
20, 334592, Note_off_c, 12, 63, 0
20, 334592, Note_on_c, 12, 52, 63
20, 334592, Note_on_c, 12, 54, 63
20, 334592, Note_on_c, 12, 58, 63
20, 334592, Note_on_c, 12, 63, 63
20, 334848, Note_off_c, 12, 52, 0
20, 334848, Note_off_c, 12, 54, 0
20, 334848, Note_off_c, 12, 58, 0
20, 334848, Note_off_c, 12, 63, 0
20, 334848, Note_on_c, 12, 52, 59
20, 334848, Note_on_c, 12, 55, 59
20, 334848, Note_on_c, 12, 58, 59
20, 334848, Note_on_c, 12, 63, 59
20, 335104, Note_off_c, 12, 52, 0
20, 335104, Note_off_c, 12, 55, 0
20, 335104, Note_off_c, 12, 58, 0
20, 335104, Note_off_c, 12, 63, 0
20, 335104, Note_on_c, 12, 52, 59
20, 335104, Note_on_c, 12, 55, 59
20, 335104, Note_on_c, 12, 58, 59
20, 335104, Note_on_c, 12, 63, 59
20, 335360, Note_off_c, 12, 52, 0
20, 335360, Note_off_c, 12, 55, 0
20, 335360, Note_off_c, 12, 58, 0
20, 335360, Note_off_c, 12, 63, 0
20, 335360, Note_on_c, 12, 52, 58
20, 335360, Note_on_c, 12, 55, 58
20, 335360, Note_on_c, 12, 58, 58
20, 335360, Note_on_c, 12, 63, 58
20, 335616, Note_off_c, 12, 52, 0
20, 335616, Note_off_c, 12, 55, 0
20, 335616, Note_off_c, 12, 58, 0
20, 335616, Note_off_c, 12, 63, 0
20, 335616, Note_on_c, 12, 52, 65
20, 335616, Note_on_c, 12, 55, 65
20, 335616, Note_on_c, 12, 58, 65
20, 335616, Note_on_c, 12, 64, 65
20, 335872, Note_off_c, 12, 52, 0
20, 335872, Note_off_c, 12, 55, 0
20, 335872, Note_off_c, 12, 58, 0
20, 335872, Note_off_c, 12, 64, 0
20, 335872, Note_on_c, 12, 52, 63
20, 335872, Note_on_c, 12, 55, 63
20, 335872, Note_on_c, 12, 58, 63
20, 335872, Note_on_c, 12, 64, 63
20, 336128, Note_off_c, 12, 52, 0
20, 336128, Note_off_c, 12, 55, 0
20, 336128, Note_off_c, 12, 58, 0
20, 336128, Note_off_c, 12, 64, 0
20, 336128, Note_on_c, 12, 52, 62
20, 336128, Note_on_c, 12, 55, 62
20, 336128, Note_on_c, 12, 58, 62
20, 336128, Note_on_c, 12, 64, 62
20, 336384, Note_off_c, 12, 52, 0
20, 336384, Note_off_c, 12, 55, 0
20, 336384, Note_off_c, 12, 58, 0
20, 336384, Note_off_c, 12, 64, 0
20, 336384, Note_on_c, 12, 52, 54
20, 336384, Note_on_c, 12, 55, 54
20, 336384, Note_on_c, 12, 58, 54
20, 336384, Note_on_c, 12, 63, 54
20, 336640, Note_off_c, 12, 52, 0
20, 336640, Note_off_c, 12, 55, 0
20, 336640, Note_off_c, 12, 58, 0
20, 336640, Note_off_c, 12, 63, 0
20, 336640, Note_on_c, 12, 52, 62
20, 336640, Note_on_c, 12, 55, 62
20, 336640, Note_on_c, 12, 58, 62
20, 336640, Note_on_c, 12, 63, 62
20, 336896, Note_off_c, 12, 52, 0
20, 336896, Note_off_c, 12, 55, 0
20, 336896, Note_off_c, 12, 58, 0
20, 336896, Note_off_c, 12, 63, 0
20, 336896, Note_on_c, 12, 52, 64
20, 336896, Note_on_c, 12, 55, 64
20, 336896, Note_on_c, 12, 58, 64
20, 336896, Note_on_c, 12, 63, 64
20, 337152, Note_off_c, 12, 52, 0
20, 337152, Note_off_c, 12, 55, 0
20, 337152, Note_off_c, 12, 58, 0
20, 337152, Note_off_c, 12, 63, 0
20, 337152, Note_on_c, 12, 52, 60
20, 337152, Note_on_c, 12, 55, 60
20, 337152, Note_on_c, 12, 58, 60
20, 337152, Note_on_c, 12, 63, 60
20, 337408, Note_off_c, 12, 52, 0
20, 337408, Note_off_c, 12, 55, 0
20, 337408, Note_off_c, 12, 58, 0
20, 337408, Note_off_c, 12, 63, 0
20, 337408, Note_on_c, 12, 52, 59
20, 337408, Note_on_c, 12, 55, 59
20, 337408, Note_on_c, 12, 58, 59
20, 337408, Note_on_c, 12, 63, 59
20, 337664, Note_off_c, 12, 52, 0
20, 337664, Note_off_c, 12, 55, 0
20, 337664, Note_off_c, 12, 58, 0
20, 337664, Note_off_c, 12, 63, 0
20, 337664, Note_on_c, 12, 52, 64
20, 337664, Note_on_c, 12, 55, 64
20, 337664, Note_on_c, 12, 58, 64
20, 337664, Note_on_c, 12, 64, 64
20, 337920, Note_off_c, 12, 52, 0
20, 337920, Note_off_c, 12, 55, 0
20, 337920, Note_off_c, 12, 58, 0
20, 337920, Note_off_c, 12, 64, 0
20, 337920, Note_on_c, 12, 52, 60
20, 337920, Note_on_c, 12, 55, 60
20, 337920, Note_on_c, 12, 58, 60
20, 337920, Note_on_c, 12, 64, 60
20, 338176, Note_off_c, 12, 52, 0
20, 338176, Note_off_c, 12, 55, 0
20, 338176, Note_off_c, 12, 58, 0
20, 338176, Note_off_c, 12, 64, 0
20, 338176, Note_on_c, 12, 52, 60
20, 338176, Note_on_c, 12, 55, 60
20, 338176, Note_on_c, 12, 58, 60
20, 338176, Note_on_c, 12, 64, 60
20, 338432, Note_off_c, 12, 52, 0
20, 338432, Note_off_c, 12, 55, 0
20, 338432, Note_off_c, 12, 58, 0
20, 338432, Note_off_c, 12, 64, 0
20, 338432, Note_on_c, 12, 52, 65
20, 338432, Note_on_c, 12, 55, 65
20, 338432, Note_on_c, 12, 58, 65
20, 338432, Note_on_c, 12, 64, 65
20, 338688, Note_off_c, 12, 52, 0
20, 338688, Note_off_c, 12, 55, 0
20, 338688, Note_off_c, 12, 58, 0
20, 338688, Note_off_c, 12, 64, 0
20, 338688, Note_on_c, 12, 51, 58
20, 338688, Note_on_c, 12, 56, 58
20, 338688, Note_on_c, 12, 59, 58
20, 338688, Note_on_c, 12, 64, 58
20, 338944, Note_off_c, 12, 51, 0
20, 338944, Note_off_c, 12, 56, 0
20, 338944, Note_off_c, 12, 59, 0
20, 338944, Note_off_c, 12, 64, 0
20, 338944, Note_on_c, 12, 51, 62
20, 338944, Note_on_c, 12, 56, 62
20, 338944, Note_on_c, 12, 59, 62
20, 338944, Note_on_c, 12, 64, 62
20, 339200, Note_off_c, 12, 51, 0
20, 339200, Note_off_c, 12, 56, 0
20, 339200, Note_off_c, 12, 59, 0
20, 339200, Note_off_c, 12, 64, 0
20, 339200, Note_on_c, 12, 51, 57
20, 339200, Note_on_c, 12, 56, 57
20, 339200, Note_on_c, 12, 59, 57
20, 339200, Note_on_c, 12, 64, 57
20, 339456, Note_off_c, 12, 51, 0
20, 339456, Note_off_c, 12, 56, 0
20, 339456, Note_off_c, 12, 59, 0
20, 339456, Note_off_c, 12, 64, 0
20, 339456, Note_on_c, 12, 51, 59
20, 339456, Note_on_c, 12, 56, 59
20, 339456, Note_on_c, 12, 59, 59
20, 339456, Note_on_c, 12, 64, 59
20, 339712, Note_off_c, 12, 51, 0
20, 339712, Note_off_c, 12, 56, 0
20, 339712, Note_off_c, 12, 59, 0
20, 339712, Note_off_c, 12, 64, 0
20, 339712, Note_on_c, 12, 51, 64
20, 339712, Note_on_c, 12, 56, 64
20, 339712, Note_on_c, 12, 58, 64
20, 339712, Note_on_c, 12, 64, 64
20, 339968, Note_off_c, 12, 51, 0
20, 339968, Note_off_c, 12, 56, 0
20, 339968, Note_off_c, 12, 58, 0
20, 339968, Note_off_c, 12, 64, 0
20, 339968, Note_on_c, 12, 51, 64
20, 339968, Note_on_c, 12, 56, 64
20, 339968, Note_on_c, 12, 58, 64
20, 339968, Note_on_c, 12, 64, 64
20, 340224, Note_off_c, 12, 51, 0
20, 340224, Note_off_c, 12, 56, 0
20, 340224, Note_off_c, 12, 58, 0
20, 340224, Note_off_c, 12, 64, 0
20, 340224, Note_on_c, 12, 51, 61
20, 340224, Note_on_c, 12, 56, 61
20, 340224, Note_on_c, 12, 58, 61
20, 340224, Note_on_c, 12, 64, 61
20, 340480, Note_off_c, 12, 51, 0
20, 340480, Note_off_c, 12, 56, 0
20, 340480, Note_off_c, 12, 58, 0
20, 340480, Note_off_c, 12, 64, 0
20, 340480, Note_on_c, 12, 56, 60
20, 340480, Note_on_c, 12, 58, 60
20, 340480, Note_on_c, 12, 63, 60
20, 340480, Note_on_c, 12, 64, 60
20, 340736, Note_off_c, 12, 56, 0
20, 340736, Note_off_c, 12, 58, 0
20, 340736, Note_off_c, 12, 63, 0
20, 340736, Note_off_c, 12, 64, 0
20, 340736, Note_on_c, 12, 56, 58
20, 340736, Note_on_c, 12, 58, 58
20, 340736, Note_on_c, 12, 63, 58
20, 340736, Note_on_c, 12, 64, 58
20, 340992, Note_off_c, 12, 56, 0
20, 340992, Note_off_c, 12, 58, 0
20, 340992, Note_off_c, 12, 63, 0
20, 340992, Note_off_c, 12, 64, 0
20, 340992, Note_on_c, 12, 56, 62
20, 340992, Note_on_c, 12, 58, 62
20, 340992, Note_on_c, 12, 63, 62
20, 340992, Note_on_c, 12, 64, 62
20, 341248, Note_off_c, 12, 56, 0
20, 341248, Note_off_c, 12, 58, 0
20, 341248, Note_off_c, 12, 63, 0
20, 341248, Note_off_c, 12, 64, 0
20, 341248, Note_on_c, 12, 56, 61
20, 341248, Note_on_c, 12, 58, 61
20, 341248, Note_on_c, 12, 63, 61
20, 341248, Note_on_c, 12, 64, 61
20, 341504, Note_off_c, 12, 56, 0
20, 341504, Note_off_c, 12, 58, 0
20, 341504, Note_off_c, 12, 63, 0
20, 341504, Note_off_c, 12, 64, 0
20, 341504, Note_on_c, 12, 56, 60
20, 341504, Note_on_c, 12, 58, 60
20, 341504, Note_on_c, 12, 63, 60
20, 341504, Note_on_c, 12, 64, 60
20, 341760, Note_off_c, 12, 56, 0
20, 341760, Note_off_c, 12, 58, 0
20, 341760, Note_off_c, 12, 63, 0
20, 341760, Note_off_c, 12, 64, 0
20, 341760, Note_on_c, 12, 56, 58
20, 341760, Note_on_c, 12, 58, 58
20, 341760, Note_on_c, 12, 63, 58
20, 341760, Note_on_c, 12, 64, 58
20, 342016, Note_off_c, 12, 56, 0
20, 342016, Note_off_c, 12, 58, 0
20, 342016, Note_off_c, 12, 63, 0
20, 342016, Note_off_c, 12, 64, 0
20, 342016, Note_on_c, 12, 56, 60
20, 342016, Note_on_c, 12, 58, 60
20, 342016, Note_on_c, 12, 63, 60
20, 342016, Note_on_c, 12, 64, 60
20, 342272, Note_off_c, 12, 56, 0
20, 342272, Note_off_c, 12, 58, 0
20, 342272, Note_off_c, 12, 63, 0
20, 342272, Note_off_c, 12, 64, 0
20, 342272, Note_on_c, 12, 56, 63
20, 342272, Note_on_c, 12, 58, 63
20, 342272, Note_on_c, 12, 63, 63
20, 342272, Note_on_c, 12, 64, 63
20, 342528, Note_off_c, 12, 56, 0
20, 342528, Note_off_c, 12, 58, 0
20, 342528, Note_off_c, 12, 63, 0
20, 342528, Note_off_c, 12, 64, 0
20, 342528, Note_on_c, 12, 55, 55
20, 342528, Note_on_c, 12, 58, 55
20, 342528, Note_on_c, 12, 62, 55
20, 342528, Note_on_c, 12, 63, 55
20, 342784, Note_off_c, 12, 55, 0
20, 342784, Note_off_c, 12, 58, 0
20, 342784, Note_off_c, 12, 62, 0
20, 342784, Note_off_c, 12, 63, 0
20, 342784, Note_on_c, 12, 55, 53
20, 342784, Note_on_c, 12, 58, 53
20, 342784, Note_on_c, 12, 62, 53
20, 342784, Note_on_c, 12, 63, 53
20, 343040, Note_off_c, 12, 55, 0
20, 343040, Note_off_c, 12, 58, 0
20, 343040, Note_off_c, 12, 62, 0
20, 343040, Note_off_c, 12, 63, 0
20, 343040, Note_on_c, 12, 55, 38
20, 343040, Note_on_c, 12, 58, 38
20, 343040, Note_on_c, 12, 62, 38
20, 343040, Note_on_c, 12, 63, 38
20, 343296, Note_off_c, 12, 55, 0
20, 343296, Note_off_c, 12, 58, 0
20, 343296, Note_off_c, 12, 62, 0
20, 343296, Note_off_c, 12, 63, 0
20, 343296, Note_on_c, 12, 56, 69
20, 343296, Note_on_c, 12, 59, 69
20, 343296, Note_on_c, 12, 63, 69
20, 343296, Note_on_c, 12, 64, 69
20, 343552, Note_off_c, 12, 56, 0
20, 343552, Note_off_c, 12, 59, 0
20, 343552, Note_off_c, 12, 63, 0
20, 343552, Note_off_c, 12, 64, 0
20, 343680, Note_on_c, 12, 56, 54
20, 343680, Note_on_c, 12, 59, 54
20, 343680, Note_on_c, 12, 63, 54
20, 343680, Note_on_c, 12, 64, 54
20, 343808, Note_off_c, 12, 56, 0
20, 343808, Note_off_c, 12, 59, 0
20, 343808, Note_off_c, 12, 63, 0
20, 343808, Note_off_c, 12, 64, 0
20, 344192, Note_on_c, 12, 56, 55
20, 344192, Note_on_c, 12, 59, 55
20, 344192, Note_on_c, 12, 63, 55
20, 344192, Note_on_c, 12, 64, 55
20, 344320, Note_off_c, 12, 56, 0
20, 344320, Note_off_c, 12, 59, 0
20, 344320, Note_off_c, 12, 63, 0
20, 344320, Note_off_c, 12, 64, 0
20, 344960, Note_on_c, 12, 56, 52
20, 344960, Note_on_c, 12, 59, 52
20, 344960, Note_on_c, 12, 63, 52
20, 344960, Note_on_c, 12, 64, 52
20, 345088, Note_off_c, 12, 56, 0
20, 345088, Note_off_c, 12, 59, 0
20, 345088, Note_off_c, 12, 63, 0
20, 345088, Note_off_c, 12, 64, 0
20, 345472, Note_on_c, 12, 56, 53
20, 345472, Note_on_c, 12, 59, 53
20, 345472, Note_on_c, 12, 63, 53
20, 345472, Note_on_c, 12, 64, 53
20, 345600, Note_off_c, 12, 56, 0
20, 345600, Note_off_c, 12, 59, 0
20, 345600, Note_off_c, 12, 63, 0
20, 345600, Note_off_c, 12, 64, 0
20, 346240, Note_on_c, 12, 57, 55
20, 346240, Note_on_c, 12, 60, 55
20, 346240, Note_on_c, 12, 63, 55
20, 346240, Note_on_c, 12, 65, 55
20, 346368, Note_off_c, 12, 57, 0
20, 346368, Note_off_c, 12, 60, 0
20, 346368, Note_off_c, 12, 63, 0
20, 346368, Note_off_c, 12, 65, 0
20, 346752, Note_on_c, 12, 57, 56
20, 346752, Note_on_c, 12, 60, 56
20, 346752, Note_on_c, 12, 63, 56
20, 346752, Note_on_c, 12, 65, 56
20, 346880, Note_off_c, 12, 57, 0
20, 346880, Note_off_c, 12, 60, 0
20, 346880, Note_off_c, 12, 63, 0
20, 346880, Note_off_c, 12, 65, 0
20, 347392, Note_on_c, 12, 57, 50
20, 347392, Note_on_c, 12, 60, 50
20, 347392, Note_on_c, 12, 63, 50
20, 347392, Note_on_c, 12, 65, 50
20, 347648, Note_off_c, 12, 57, 0
20, 347648, Note_off_c, 12, 60, 0
20, 347648, Note_off_c, 12, 63, 0
20, 347648, Note_off_c, 12, 65, 0
20, 347776, Note_on_c, 12, 57, 55
20, 347776, Note_on_c, 12, 60, 55
20, 347776, Note_on_c, 12, 63, 55
20, 347776, Note_on_c, 12, 65, 55
20, 347904, Note_off_c, 12, 57, 0
20, 347904, Note_off_c, 12, 60, 0
20, 347904, Note_off_c, 12, 63, 0
20, 347904, Note_off_c, 12, 65, 0
20, 348160, Note_on_c, 12, 56, 63
20, 348160, Note_on_c, 12, 60, 63
20, 348160, Note_on_c, 12, 62, 63
20, 348160, Note_on_c, 12, 66, 63
20, 348416, Note_off_c, 12, 56, 0
20, 348416, Note_off_c, 12, 60, 0
20, 348416, Note_off_c, 12, 62, 0
20, 348416, Note_off_c, 12, 66, 0
20, 349312, Note_on_c, 12, 56, 58
20, 349312, Note_on_c, 12, 60, 58
20, 349312, Note_on_c, 12, 62, 58
20, 349312, Note_on_c, 12, 66, 58
20, 349440, Note_off_c, 12, 56, 0
20, 349440, Note_off_c, 12, 60, 0
20, 349440, Note_off_c, 12, 62, 0
20, 349440, Note_off_c, 12, 66, 0
20, 349824, Note_on_c, 12, 56, 58
20, 349824, Note_on_c, 12, 60, 58
20, 349824, Note_on_c, 12, 62, 58
20, 349824, Note_on_c, 12, 66, 58
20, 349952, Note_off_c, 12, 56, 0
20, 349952, Note_off_c, 12, 60, 0
20, 349952, Note_off_c, 12, 62, 0
20, 349952, Note_off_c, 12, 66, 0
20, 350080, Note_on_c, 12, 56, 55
20, 350080, Note_on_c, 12, 60, 55
20, 350080, Note_on_c, 12, 62, 55
20, 350080, Note_on_c, 12, 66, 55
20, 350208, Note_off_c, 12, 56, 0
20, 350208, Note_off_c, 12, 60, 0
20, 350208, Note_off_c, 12, 62, 0
20, 350208, Note_off_c, 12, 66, 0
20, 350720, Note_on_c, 12, 55, 58
20, 350720, Note_on_c, 12, 59, 58
20, 350720, Note_on_c, 12, 62, 58
20, 350720, Note_on_c, 12, 65, 58
20, 350720, Note_on_c, 12, 67, 58
20, 350976, Note_off_c, 12, 55, 0
20, 350976, Note_off_c, 12, 59, 0
20, 350976, Note_off_c, 12, 62, 0
20, 350976, Note_off_c, 12, 65, 0
20, 350976, Note_off_c, 12, 67, 0
20, 351616, Note_on_c, 12, 55, 59
20, 351616, Note_on_c, 12, 59, 59
20, 351616, Note_on_c, 12, 62, 59
20, 351616, Note_on_c, 12, 65, 59
20, 351616, Note_on_c, 12, 67, 59
20, 351744, Note_off_c, 12, 55, 0
20, 351744, Note_off_c, 12, 59, 0
20, 351744, Note_off_c, 12, 62, 0
20, 351744, Note_off_c, 12, 65, 0
20, 351744, Note_off_c, 12, 67, 0
20, 352320, Note_on_c, 12, 55, 53
20, 352320, Note_on_c, 12, 59, 53
20, 352320, Note_on_c, 12, 62, 53
20, 352320, Note_on_c, 12, 65, 53
20, 352320, Note_on_c, 12, 67, 53
20, 352512, Note_off_c, 12, 55, 0
20, 352512, Note_off_c, 12, 59, 0
20, 352512, Note_off_c, 12, 62, 0
20, 352512, Note_off_c, 12, 65, 0
20, 352512, Note_off_c, 12, 67, 0
20, 353280, Note_on_c, 12, 55, 56
20, 353280, Note_on_c, 12, 59, 56
20, 353280, Note_on_c, 12, 62, 56
20, 353280, Note_on_c, 12, 65, 56
20, 353280, Note_on_c, 12, 67, 56
20, 353536, Note_off_c, 12, 55, 0
20, 353536, Note_off_c, 12, 59, 0
20, 353536, Note_off_c, 12, 62, 0
20, 353536, Note_off_c, 12, 65, 0
20, 353536, Note_off_c, 12, 67, 0
20, 354368, Note_on_c, 12, 55, 55
20, 354368, Note_on_c, 12, 59, 55
20, 354368, Note_on_c, 12, 62, 55
20, 354368, Note_on_c, 12, 65, 55
20, 354368, Note_on_c, 12, 67, 55
20, 354560, Note_off_c, 12, 55, 0
20, 354560, Note_off_c, 12, 59, 0
20, 354560, Note_off_c, 12, 62, 0
20, 354560, Note_off_c, 12, 65, 0
20, 354560, Note_off_c, 12, 67, 0
20, 354880, Note_on_c, 12, 55, 57
20, 354880, Note_on_c, 12, 59, 57
20, 354880, Note_on_c, 12, 62, 57
20, 354880, Note_on_c, 12, 65, 57
20, 354880, Note_on_c, 12, 67, 57
20, 355072, Note_off_c, 12, 55, 0
20, 355072, Note_off_c, 12, 59, 0
20, 355072, Note_off_c, 12, 62, 0
20, 355072, Note_off_c, 12, 65, 0
20, 355072, Note_off_c, 12, 67, 0
20, 368384, Note_on_c, 12, 62, 57
20, 368416, Note_off_c, 12, 62, 0
20, 368416, Note_on_c, 12, 67, 67
20, 368448, Note_off_c, 12, 67, 0
20, 368448, Note_on_c, 12, 68, 65
20, 368480, Note_off_c, 12, 68, 0
20, 368480, Note_on_c, 12, 70, 71
20, 368512, Note_off_c, 12, 70, 0
20, 368512, Note_on_c, 12, 72, 72
20, 368544, Note_off_c, 12, 72, 0
20, 368544, Note_on_c, 12, 74, 64
20, 368576, Note_off_c, 12, 74, 0
20, 368576, Note_on_c, 12, 76, 64
20, 368608, Note_off_c, 12, 76, 0
20, 368608, Note_on_c, 12, 77, 65
20, 368640, Note_off_c, 12, 77, 0
20, 368640, Note_on_c, 12, 79, 69
20, 368670, Note_off_c, 12, 79, 0
20, 369088, Note_on_c, 12, 76, 56
20, 369120, Note_off_c, 12, 76, 0
20, 369120, Note_on_c, 12, 72, 53
20, 369152, Note_off_c, 12, 72, 0
20, 369152, Note_on_c, 12, 70, 57
20, 369184, Note_off_c, 12, 70, 0
20, 369184, Note_on_c, 12, 68, 59
20, 369216, Note_off_c, 12, 68, 0
20, 369216, Note_on_c, 12, 67, 59
20, 369248, Note_off_c, 12, 67, 0
20, 369248, Note_on_c, 12, 65, 59
20, 369280, Note_off_c, 12, 65, 0
20, 369280, Note_on_c, 12, 64, 54
20, 369312, Note_off_c, 12, 64, 0
20, 369312, Note_on_c, 12, 60, 50
20, 369344, Note_off_c, 12, 60, 0
20, 369344, Note_on_c, 12, 58, 62
20, 369376, Note_off_c, 12, 58, 0
20, 369376, Note_on_c, 12, 56, 60
20, 369408, Note_off_c, 12, 56, 0
20, 369408, Note_on_c, 12, 55, 59
20, 369438, Note_off_c, 12, 55, 0
20, 370176, Note_on_c, 12, 50, 56
20, 370208, Note_off_c, 12, 50, 0
20, 370208, Note_on_c, 12, 55, 66
20, 370240, Note_off_c, 12, 55, 0
20, 370240, Note_on_c, 12, 56, 63
20, 370272, Note_off_c, 12, 56, 0
20, 370272, Note_on_c, 12, 58, 62
20, 370304, Note_off_c, 12, 58, 0
20, 370304, Note_on_c, 12, 60, 67
20, 370336, Note_off_c, 12, 60, 0
20, 370336, Note_on_c, 12, 62, 61
20, 370368, Note_off_c, 12, 62, 0
20, 370368, Note_on_c, 12, 64, 67
20, 370400, Note_off_c, 12, 64, 0
20, 370400, Note_on_c, 12, 65, 68
20, 370432, Note_off_c, 12, 65, 0
20, 370432, Note_on_c, 12, 67, 66
20, 370462, Note_off_c, 12, 67, 0
20, 370976, Note_on_c, 12, 76, 58
20, 371008, Note_off_c, 12, 76, 0
20, 371008, Note_on_c, 12, 74, 59
20, 371040, Note_off_c, 12, 74, 0
20, 371040, Note_on_c, 12, 72, 59
20, 371072, Note_off_c, 12, 72, 0
20, 371072, Note_on_c, 12, 70, 56
20, 371104, Note_off_c, 12, 70, 0
20, 371104, Note_on_c, 12, 68, 54
20, 371136, Note_off_c, 12, 68, 0
20, 371136, Note_on_c, 12, 67, 59
20, 371168, Note_off_c, 12, 67, 0
20, 371168, Note_on_c, 12, 65, 59
20, 371200, Note_off_c, 12, 65, 0
20, 371200, Note_on_c, 12, 64, 55
20, 371225, Note_off_c, 12, 64, 0
20, 371225, Note_on_c, 12, 62, 57
20, 371251, Note_off_c, 12, 62, 0
20, 371251, Note_on_c, 12, 60, 58
20, 371276, Note_off_c, 12, 60, 0
20, 371276, Note_on_c, 12, 58, 56
20, 371302, Note_off_c, 12, 58, 0
20, 371302, Note_on_c, 12, 56, 59
20, 371328, Note_off_c, 12, 56, 0
20, 371328, Note_on_c, 12, 55, 57
20, 371358, Note_off_c, 12, 55, 0
20, 371648, Note_on_c, 12, 75, 57
20, 371680, Note_off_c, 12, 75, 0
20, 371680, Note_on_c, 12, 73, 56
20, 371712, Note_off_c, 12, 73, 0
20, 371712, Note_on_c, 12, 72, 59
20, 371744, Note_off_c, 12, 72, 0
20, 371744, Note_on_c, 12, 72, 58
20, 371776, Note_off_c, 12, 72, 0
20, 371776, Note_on_c, 12, 69, 56
20, 371808, Note_off_c, 12, 69, 0
20, 371808, Note_on_c, 12, 68, 63
20, 371840, Note_off_c, 12, 68, 0
20, 371840, Note_on_c, 12, 66, 61
20, 371872, Note_off_c, 12, 66, 0
20, 371872, Note_on_c, 12, 63, 54
20, 371904, Note_off_c, 12, 63, 0
20, 371904, Note_on_c, 12, 61, 59
20, 371936, Note_off_c, 12, 61, 0
20, 371936, Note_on_c, 12, 60, 56
20, 371968, Note_off_c, 12, 60, 0
20, 371968, Note_on_c, 12, 58, 59
20, 371993, Note_off_c, 12, 58, 0
20, 371993, Note_on_c, 12, 57, 57
20, 372019, Note_off_c, 12, 57, 0
20, 372019, Note_on_c, 12, 56, 59
20, 372044, Note_off_c, 12, 56, 0
20, 372044, Note_on_c, 12, 54, 58
20, 372070, Note_off_c, 12, 54, 0
20, 372070, Note_on_c, 12, 51, 59
20, 372094, Note_off_c, 12, 51, 0
20, 372480, Note_on_c, 12, 92, 51
20, 372522, Note_off_c, 12, 92, 0
20, 372522, Note_on_c, 12, 87, 51
20, 372565, Note_off_c, 12, 87, 0
20, 372565, Note_on_c, 12, 85, 53
20, 372608, Note_off_c, 12, 85, 0
20, 372608, Note_on_c, 12, 81, 51
20, 372650, Note_off_c, 12, 81, 0
20, 372650, Note_on_c, 12, 80, 54
20, 372672, Note_on_c, 12, 85, 53
20, 372693, Note_off_c, 12, 80, 0
20, 372693, Note_on_c, 12, 78, 57
20, 372704, Note_off_c, 12, 85, 0
20, 372704, Note_on_c, 12, 84, 57
20, 372736, Note_off_c, 12, 78, 0
20, 372736, Note_off_c, 12, 84, 0
20, 372736, Note_on_c, 12, 75, 58
20, 372736, Note_on_c, 12, 84, 64
20, 372768, Note_off_c, 12, 84, 0
20, 372768, Note_on_c, 12, 81, 53
20, 372778, Note_off_c, 12, 75, 0
20, 372778, Note_on_c, 12, 73, 57
20, 372800, Note_off_c, 12, 81, 0
20, 372800, Note_on_c, 12, 80, 53
20, 372818, Note_off_c, 12, 73, 0
20, 372832, Note_off_c, 12, 80, 0
20, 372832, Note_on_c, 12, 78, 57
20, 372864, Note_off_c, 12, 78, 0
20, 372864, Note_on_c, 12, 75, 57
20, 372896, Note_off_c, 12, 75, 0
20, 372896, Note_on_c, 12, 73, 52
20, 372928, Note_off_c, 12, 73, 0
20, 372928, Note_on_c, 12, 72, 61
20, 372960, Note_off_c, 12, 72, 0
20, 372960, Note_on_c, 12, 72, 56
20, 372992, Note_off_c, 12, 72, 0
20, 372992, Note_on_c, 12, 69, 57
20, 373017, Note_off_c, 12, 69, 0
20, 373017, Note_on_c, 12, 68, 57
20, 373043, Note_off_c, 12, 68, 0
20, 373043, Note_on_c, 12, 66, 56
20, 373068, Note_off_c, 12, 66, 0
20, 373068, Note_on_c, 12, 63, 57
20, 373094, Note_off_c, 12, 63, 0
20, 373094, Note_on_c, 12, 61, 59
20, 373118, Note_off_c, 12, 61, 0
20, 373760, Note_on_c, 12, 48, 55
20, 373781, Note_off_c, 12, 48, 0
20, 373781, Note_on_c, 12, 49, 61
20, 373802, Note_off_c, 12, 49, 0
20, 373802, Note_on_c, 12, 51, 68
20, 373824, Note_off_c, 12, 51, 0
20, 373824, Note_on_c, 12, 52, 62
20, 373845, Note_off_c, 12, 52, 0
20, 373845, Note_on_c, 12, 54, 61
20, 373866, Note_off_c, 12, 54, 0
20, 373866, Note_on_c, 12, 56, 62
20, 373888, Note_off_c, 12, 56, 0
20, 373888, Note_on_c, 12, 57, 62
20, 373909, Note_off_c, 12, 57, 0
20, 373909, Note_on_c, 12, 60, 63
20, 373930, Note_off_c, 12, 60, 0
20, 373930, Note_on_c, 12, 60, 66
20, 373952, Note_off_c, 12, 60, 0
20, 373952, Note_on_c, 12, 63, 63
20, 373973, Note_off_c, 12, 63, 0
20, 373973, Note_on_c, 12, 64, 66
20, 373994, Note_off_c, 12, 64, 0
20, 373994, Note_on_c, 12, 66, 65
20, 374016, Note_off_c, 12, 66, 0
20, 374016, Note_on_c, 12, 68, 61
20, 374037, Note_off_c, 12, 68, 0
20, 374037, Note_on_c, 12, 70, 69
20, 374058, Note_off_c, 12, 70, 0
20, 374058, Note_on_c, 12, 72, 60
20, 374080, Note_off_c, 12, 72, 0
20, 374080, Note_on_c, 12, 72, 62
20, 374101, Note_off_c, 12, 72, 0
20, 374101, Note_on_c, 12, 75, 68
20, 374122, Note_off_c, 12, 75, 0
20, 374122, Note_on_c, 12, 76, 66
20, 374144, Note_off_c, 12, 76, 0
20, 374144, Note_on_c, 12, 78, 74
20, 374144, Note_on_c, 12, 97, 74
20, 374169, Note_off_c, 12, 78, 0
20, 374169, Note_off_c, 12, 97, 0
20, 374169, Note_on_c, 12, 97, 69
20, 374195, Note_off_c, 12, 97, 0
20, 374195, Note_on_c, 12, 95, 56
20, 374220, Note_off_c, 12, 95, 0
20, 374220, Note_on_c, 12, 92, 52
20, 374246, Note_off_c, 12, 92, 0
20, 374246, Note_on_c, 12, 92, 63
20, 374272, Note_off_c, 12, 92, 0
20, 374272, Note_on_c, 12, 90, 61
20, 374293, Note_off_c, 12, 90, 0
20, 374293, Note_on_c, 12, 88, 54
20, 374314, Note_off_c, 12, 88, 0
20, 374314, Note_on_c, 12, 85, 55
20, 374336, Note_off_c, 12, 85, 0
20, 374336, Note_on_c, 12, 85, 58
20, 374357, Note_off_c, 12, 85, 0
20, 374357, Note_on_c, 12, 83, 59
20, 374378, Note_off_c, 12, 83, 0
20, 374378, Note_on_c, 12, 80, 53
20, 374400, Note_off_c, 12, 80, 0
20, 374400, Note_on_c, 12, 80, 57
20, 374421, Note_off_c, 12, 80, 0
20, 374421, Note_on_c, 12, 78, 53
20, 374442, Note_off_c, 12, 78, 0
20, 374442, Note_on_c, 12, 76, 55
20, 374464, Note_off_c, 12, 76, 0
20, 374464, Note_on_c, 12, 73, 61
20, 374485, Note_off_c, 12, 73, 0
20, 374485, Note_on_c, 12, 73, 60
20, 374506, Note_off_c, 12, 73, 0
20, 374506, Note_on_c, 12, 72, 56
20, 374528, Note_off_c, 12, 72, 0
20, 374528, Note_on_c, 12, 68, 55
20, 374558, Note_off_c, 12, 68, 0
20, 374912, Note_on_c, 12, 60, 56
20, 374937, Note_off_c, 12, 60, 0
20, 374937, Note_on_c, 12, 61, 65
20, 374963, Note_off_c, 12, 61, 0
20, 374963, Note_on_c, 12, 63, 65
20, 374988, Note_off_c, 12, 63, 0
20, 374988, Note_on_c, 12, 64, 67
20, 375014, Note_off_c, 12, 64, 0
20, 375014, Note_on_c, 12, 66, 68
20, 375040, Note_off_c, 12, 66, 0
20, 375040, Note_on_c, 12, 68, 58
20, 375061, Note_off_c, 12, 68, 0
20, 375061, Note_on_c, 12, 69, 62
20, 375082, Note_off_c, 12, 69, 0
20, 375082, Note_on_c, 12, 72, 67
20, 375104, Note_off_c, 12, 72, 0
20, 375104, Note_on_c, 12, 73, 64
20, 375125, Note_off_c, 12, 73, 0
20, 375125, Note_on_c, 12, 75, 67
20, 375146, Note_off_c, 12, 75, 0
20, 375146, Note_on_c, 12, 76, 58
20, 375168, Note_off_c, 12, 76, 0
20, 375168, Note_on_c, 12, 78, 68
20, 375186, Note_off_c, 12, 78, 0
20, 375186, Note_on_c, 12, 80, 61
20, 375204, Note_off_c, 12, 80, 0
20, 375204, Note_on_c, 12, 81, 62
20, 375222, Note_off_c, 12, 81, 0
20, 375222, Note_on_c, 12, 84, 66
20, 375241, Note_off_c, 12, 84, 0
20, 375241, Note_on_c, 12, 85, 60
20, 375259, Note_off_c, 12, 85, 0
20, 375259, Note_on_c, 12, 87, 66
20, 375277, Note_off_c, 12, 87, 0
20, 375277, Note_on_c, 12, 88, 63
20, 375296, Note_off_c, 12, 88, 0
20, 375296, Note_on_c, 12, 90, 63
20, 375417, Note_off_c, 12, 90, 0
20, 384426, Note_on_c, 12, 60, 87
20, 384448, Note_on_c, 12, 66, 91
20, 384469, Note_off_c, 12, 60, 0
20, 384469, Note_on_c, 12, 67, 115
20, 384480, Note_off_c, 12, 66, 0
20, 384480, Note_on_c, 12, 73, 116
20, 384512, Note_off_c, 12, 73, 0
20, 384512, Note_off_c, 12, 67, 0
20, 384512, Note_on_c, 12, 76, 107
20, 384512, Note_on_c, 12, 70, 109
20, 384544, Note_off_c, 12, 76, 0
20, 384544, Note_on_c, 12, 79, 106
20, 384554, Note_off_c, 12, 70, 0
20, 384554, Note_on_c, 12, 73, 111
20, 384576, Note_off_c, 12, 79, 0
20, 384576, Note_on_c, 12, 85, 117
20, 384597, Note_off_c, 12, 73, 0
20, 384597, Note_on_c, 12, 79, 112
20, 384608, Note_off_c, 12, 85, 0
20, 384608, Note_on_c, 12, 90, 118
20, 384640, Note_off_c, 12, 90, 0
20, 384640, Note_off_c, 12, 79, 0
20, 384640, Note_on_c, 12, 93, 110
20, 384640, Note_on_c, 12, 84, 114
20, 384672, Note_off_c, 12, 93, 0
20, 384682, Note_off_c, 12, 84, 0
20, 384682, Note_on_c, 12, 87, 108
20, 384725, Note_off_c, 12, 87, 0
20, 385177, Note_on_c, 12, 87, 90
20, 385228, Note_off_c, 12, 87, 0
20, 385228, Note_on_c, 12, 90, 109
20, 385280, Note_off_c, 12, 90, 0
20, 385280, Note_on_c, 12, 75, 89
20, 385280, Note_on_c, 12, 85, 84
20, 385322, Note_off_c, 12, 75, 0
20, 385322, Note_on_c, 12, 73, 90
20, 385331, Note_off_c, 12, 85, 0
20, 385331, Note_on_c, 12, 81, 82
20, 385365, Note_off_c, 12, 73, 0
20, 385365, Note_on_c, 12, 76, 107
20, 385382, Note_off_c, 12, 81, 0
20, 385382, Note_on_c, 12, 84, 102
20, 385408, Note_off_c, 12, 76, 0
20, 385408, Note_on_c, 12, 79, 105
20, 385433, Note_off_c, 12, 84, 0
20, 385433, Note_on_c, 12, 82, 98
20, 385450, Note_off_c, 12, 79, 0
20, 385450, Note_on_c, 12, 82, 108
20, 385484, Note_off_c, 12, 82, 0
20, 385484, Note_on_c, 12, 81, 90
20, 385493, Note_off_c, 12, 82, 0
20, 385493, Note_on_c, 12, 76, 81
20, 385536, Note_off_c, 12, 76, 0
20, 385536, Note_off_c, 12, 81, 0
20, 385536, Note_on_c, 12, 79, 104
20, 385536, Note_on_c, 12, 79, 88
20, 385578, Note_off_c, 12, 79, 0
20, 385578, Note_on_c, 12, 88, 119
20, 385587, Note_off_c, 12, 79, 0
20, 385587, Note_on_c, 12, 75, 86
20, 385621, Note_off_c, 12, 88, 0
20, 385638, Note_off_c, 12, 75, 0
20, 385920, Note_on_c, 12, 60, 90
20, 385962, Note_off_c, 12, 60, 0
20, 385962, Note_on_c, 12, 78, 89
20, 385962, Note_on_c, 12, 70, 119
20, 386005, Note_off_c, 12, 78, 0
20, 386005, Note_off_c, 12, 70, 0
20, 386005, Note_on_c, 12, 81, 109
20, 386005, Note_on_c, 12, 72, 105
20, 386048, Note_off_c, 12, 81, 0
20, 386048, Note_off_c, 12, 72, 0
20, 386048, Note_on_c, 12, 85, 111
20, 386048, Note_on_c, 12, 78, 114
20, 386090, Note_off_c, 12, 85, 0
20, 386090, Note_off_c, 12, 78, 0
20, 386090, Note_on_c, 12, 79, 84
20, 386090, Note_on_c, 12, 81, 108
20, 386133, Note_off_c, 12, 79, 0
20, 386133, Note_off_c, 12, 81, 0
20, 386133, Note_on_c, 12, 82, 107
20, 386133, Note_on_c, 12, 85, 112
20, 386176, Note_off_c, 12, 82, 0
20, 386176, Note_off_c, 12, 85, 0
20, 386176, Note_on_c, 12, 91, 118
20, 386240, Note_off_c, 12, 91, 0
20, 386602, Note_on_c, 12, 66, 92
20, 386645, Note_off_c, 12, 66, 0
20, 386645, Note_on_c, 12, 73, 116
20, 386688, Note_off_c, 12, 73, 0
20, 386688, Note_on_c, 12, 76, 109
20, 386730, Note_off_c, 12, 76, 0
20, 386730, Note_on_c, 12, 79, 107
20, 386773, Note_off_c, 12, 79, 0
20, 386773, Note_on_c, 12, 85, 113
20, 386816, Note_off_c, 12, 85, 0
20, 386816, Note_on_c, 12, 90, 113
20, 386816, Note_on_c, 12, 75, 86
20, 386858, Note_off_c, 12, 90, 0
20, 386858, Note_on_c, 12, 93, 109
20, 386880, Note_off_c, 12, 75, 0
20, 386880, Note_on_c, 12, 82, 112
20, 386901, Note_off_c, 12, 93, 0
20, 386944, Note_off_c, 12, 82, 0
20, 386944, Note_on_c, 12, 85, 109
20, 387008, Note_off_c, 12, 85, 0
20, 387008, Note_on_c, 12, 87, 107
20, 387072, Note_off_c, 12, 87, 0
20, 387072, Note_on_c, 12, 84, 91
20, 387136, Note_off_c, 12, 84, 0
20, 387136, Note_on_c, 12, 93, 121
20, 387200, Note_off_c, 12, 93, 0
20, 387200, Note_on_c, 12, 90, 97
20, 387264, Note_off_c, 12, 90, 0
20, 387584, Note_on_c, 12, 60, 90
20, 387620, Note_off_c, 12, 60, 0
20, 387620, Note_on_c, 12, 63, 107
20, 387657, Note_off_c, 12, 63, 0
20, 387657, Note_on_c, 12, 64, 109
20, 387693, Note_off_c, 12, 64, 0
20, 387693, Note_on_c, 12, 66, 103
20, 387730, Note_off_c, 12, 66, 0
20, 387730, Note_on_c, 12, 67, 105
20, 387766, Note_off_c, 12, 67, 0
20, 387766, Note_on_c, 12, 69, 104
20, 387803, Note_off_c, 12, 69, 0
20, 387803, Note_on_c, 12, 70, 104
20, 387840, Note_off_c, 12, 70, 0
20, 387840, Note_on_c, 12, 72, 102
20, 387840, Note_on_c, 12, 69, 89
20, 387876, Note_off_c, 12, 72, 0
20, 387876, Note_on_c, 12, 75, 105
20, 387891, Note_off_c, 12, 69, 0
20, 387891, Note_on_c, 12, 73, 111
20, 387913, Note_off_c, 12, 75, 0
20, 387913, Note_on_c, 12, 76, 103
20, 387942, Note_off_c, 12, 73, 0
20, 387942, Note_on_c, 12, 78, 109
20, 387949, Note_off_c, 12, 76, 0
20, 387949, Note_on_c, 12, 78, 104
20, 387986, Note_off_c, 12, 78, 0
20, 387986, Note_on_c, 12, 79, 104
20, 387993, Note_off_c, 12, 78, 0
20, 387993, Note_on_c, 12, 85, 114
20, 388022, Note_off_c, 12, 79, 0
20, 388022, Note_on_c, 12, 81, 104
20, 388044, Note_off_c, 12, 85, 0
20, 388044, Note_on_c, 12, 90, 115
20, 388059, Note_off_c, 12, 81, 0
20, 388059, Note_on_c, 12, 82, 104
20, 388096, Note_off_c, 12, 82, 0
20, 388096, Note_off_c, 12, 90, 0
20, 388096, Note_on_c, 12, 84, 84
20, 388160, Note_off_c, 12, 84, 0
20, 388461, Note_on_c, 12, 75, 85
20, 388498, Note_off_c, 12, 75, 0
20, 388498, Note_on_c, 12, 76, 106
20, 388534, Note_off_c, 12, 76, 0
20, 388534, Note_on_c, 12, 78, 99
20, 388571, Note_off_c, 12, 78, 0
20, 388571, Note_on_c, 12, 79, 104
20, 388608, Note_off_c, 12, 79, 0
20, 388608, Note_on_c, 12, 81, 101
20, 388608, Note_on_c, 12, 81, 86
20, 388644, Note_off_c, 12, 81, 0
20, 388644, Note_on_c, 12, 82, 111
20, 388650, Note_off_c, 12, 81, 0
20, 388650, Note_on_c, 12, 82, 99
20, 388681, Note_off_c, 12, 82, 0
20, 388681, Note_on_c, 12, 84, 102
20, 388693, Note_off_c, 12, 82, 0
20, 388693, Note_on_c, 12, 87, 117
20, 388717, Note_off_c, 12, 84, 0
20, 388717, Note_on_c, 12, 87, 104
20, 388736, Note_off_c, 12, 87, 0
20, 388736, Note_on_c, 12, 91, 110
20, 388754, Note_off_c, 12, 87, 0
20, 388754, Note_on_c, 12, 88, 107
20, 388778, Note_off_c, 12, 91, 0
20, 388778, Note_on_c, 12, 85, 85
20, 388790, Note_off_c, 12, 88, 0
20, 388790, Note_on_c, 12, 90, 100
20, 388821, Note_off_c, 12, 85, 0
20, 388821, Note_on_c, 12, 91, 116
20, 388827, Note_off_c, 12, 90, 0
20, 388827, Note_on_c, 12, 91, 107
20, 388864, Note_off_c, 12, 91, 0
20, 388864, Note_off_c, 12, 91, 0
20, 388864, Note_on_c, 12, 96, 113
20, 388906, Note_off_c, 12, 96, 0
20, 388906, Note_on_c, 12, 87, 88
20, 388949, Note_off_c, 12, 87, 0
20, 388949, Note_on_c, 12, 90, 108
20, 388992, Note_off_c, 12, 90, 0
20, 389229, Note_on_c, 12, 96, 90
20, 389266, Note_off_c, 12, 96, 0
20, 389266, Note_on_c, 12, 95, 90
20, 389302, Note_off_c, 12, 95, 0
20, 389302, Note_on_c, 12, 93, 92
20, 389339, Note_off_c, 12, 93, 0
20, 389339, Note_on_c, 12, 92, 91
20, 389376, Note_off_c, 12, 92, 0
20, 389376, Note_on_c, 12, 90, 90
20, 389376, Note_on_c, 12, 93, 89
20, 389412, Note_off_c, 12, 90, 0
20, 389412, Note_on_c, 12, 89, 94
20, 389418, Note_off_c, 12, 93, 0
20, 389418, Note_on_c, 12, 87, 81
20, 389449, Note_off_c, 12, 89, 0
20, 389449, Note_on_c, 12, 86, 91
20, 389461, Note_off_c, 12, 87, 0
20, 389461, Note_on_c, 12, 82, 77
20, 389485, Note_off_c, 12, 86, 0
20, 389485, Note_on_c, 12, 84, 87
20, 389504, Note_off_c, 12, 82, 0
20, 389504, Note_on_c, 12, 73, 70
20, 389522, Note_off_c, 12, 84, 0
20, 389522, Note_on_c, 12, 83, 94
20, 389546, Note_off_c, 12, 73, 0
20, 389546, Note_on_c, 12, 79, 108
20, 389558, Note_off_c, 12, 83, 0
20, 389558, Note_on_c, 12, 81, 92
20, 389589, Note_off_c, 12, 79, 0
20, 389589, Note_on_c, 12, 84, 112
20, 389595, Note_off_c, 12, 81, 0
20, 389595, Note_on_c, 12, 80, 94
20, 389632, Note_off_c, 12, 80, 0
20, 389632, Note_off_c, 12, 84, 0
20, 390144, Note_on_c, 12, 87, 88
20, 390144, Note_on_c, 12, 90, 88
20, 390144, Note_on_c, 12, 93, 88
20, 390336, Note_off_c, 12, 87, 0
20, 390336, Note_off_c, 12, 90, 0
20, 390336, Note_off_c, 12, 93, 0
20, 390336, Note_on_c, 12, 75, 91
20, 390336, Note_on_c, 12, 87, 91
20, 390336, Note_on_c, 12, 91, 91
20, 390528, Note_off_c, 12, 75, 0
20, 390528, Note_off_c, 12, 87, 0
20, 390528, Note_off_c, 12, 91, 0
20, 390528, Note_on_c, 12, 79, 82
20, 390528, Note_on_c, 12, 81, 82
20, 390528, Note_on_c, 12, 84, 82
20, 390720, Note_off_c, 12, 79, 0
20, 390720, Note_off_c, 12, 81, 0
20, 390720, Note_off_c, 12, 84, 0
20, 390720, Note_on_c, 12, 76, 106
20, 390720, Note_on_c, 12, 84, 106
20, 390720, Note_on_c, 12, 88, 106
20, 390912, Note_off_c, 12, 76, 0
20, 390912, Note_off_c, 12, 84, 0
20, 390912, Note_off_c, 12, 88, 0
20, 390912, Note_on_c, 12, 78, 90
20, 390912, Note_on_c, 12, 81, 90
20, 390912, Note_on_c, 12, 84, 90
20, 391104, Note_off_c, 12, 78, 0
20, 391104, Note_off_c, 12, 81, 0
20, 391104, Note_off_c, 12, 84, 0
20, 391104, Note_on_c, 12, 66, 87
20, 391104, Note_on_c, 12, 76, 87
20, 391104, Note_on_c, 12, 79, 87
20, 391296, Note_off_c, 12, 66, 0
20, 391296, Note_off_c, 12, 76, 0
20, 391296, Note_off_c, 12, 79, 0
20, 391296, Note_on_c, 12, 70, 88
20, 391296, Note_on_c, 12, 72, 88
20, 391296, Note_on_c, 12, 76, 88
20, 391488, Note_off_c, 12, 70, 0
20, 391488, Note_off_c, 12, 72, 0
20, 391488, Note_off_c, 12, 76, 0
20, 391488, Note_on_c, 12, 67, 102
20, 391488, Note_on_c, 12, 76, 102
20, 391488, Note_on_c, 12, 78, 102
20, 391680, Note_off_c, 12, 67, 0
20, 391680, Note_off_c, 12, 76, 0
20, 391680, Note_off_c, 12, 78, 0
20, 391936, Note_on_c, 12, 69, 88
20, 391987, Note_off_c, 12, 69, 0
20, 391987, Note_on_c, 12, 76, 117
20, 392038, Note_off_c, 12, 76, 0
20, 392038, Note_on_c, 12, 81, 115
20, 392089, Note_off_c, 12, 81, 0
20, 392089, Note_on_c, 12, 84, 109
20, 392140, Note_off_c, 12, 84, 0
20, 392140, Note_on_c, 12, 90, 114
20, 392192, Note_off_c, 12, 90, 0
20, 392192, Note_on_c, 12, 94, 114
20, 392243, Note_off_c, 12, 94, 0
20, 392396, Note_on_c, 12, 66, 85
20, 392448, Note_off_c, 12, 66, 0
20, 392448, Note_on_c, 12, 73, 116
20, 392499, Note_off_c, 12, 73, 0
20, 392499, Note_on_c, 12, 78, 120
20, 392550, Note_off_c, 12, 78, 0
20, 392550, Note_on_c, 12, 81, 108
20, 392601, Note_off_c, 12, 81, 0
20, 392601, Note_on_c, 12, 87, 119
20, 392652, Note_off_c, 12, 87, 0
20, 392652, Note_on_c, 12, 91, 108
20, 392704, Note_off_c, 12, 91, 0
20, 405760, Note_on_c, 12, 54, 76
20, 405760, Note_on_c, 12, 54, 76
20, 405796, Note_off_c, 12, 54, 0
20, 405796, Note_off_c, 12, 54, 0
20, 405796, Note_on_c, 12, 55, 85
20, 405796, Note_on_c, 12, 56, 86
20, 405833, Note_off_c, 12, 55, 0
20, 405833, Note_off_c, 12, 56, 0
20, 405833, Note_on_c, 12, 57, 86
20, 405833, Note_on_c, 12, 57, 87
20, 405869, Note_off_c, 12, 57, 0
20, 405869, Note_off_c, 12, 57, 0
20, 405869, Note_on_c, 12, 58, 86
20, 405869, Note_on_c, 12, 60, 96
20, 405906, Note_off_c, 12, 58, 0
20, 405906, Note_off_c, 12, 60, 0
20, 405906, Note_on_c, 12, 60, 92
20, 405906, Note_on_c, 12, 61, 91
20, 405942, Note_off_c, 12, 60, 0
20, 405942, Note_off_c, 12, 61, 0
20, 405942, Note_on_c, 12, 61, 92
20, 405942, Note_on_c, 12, 63, 93
20, 405979, Note_off_c, 12, 61, 0
20, 405979, Note_off_c, 12, 63, 0
20, 405979, Note_on_c, 12, 64, 93
20, 405979, Note_on_c, 12, 64, 91
20, 406016, Note_off_c, 12, 64, 0
20, 406016, Note_off_c, 12, 64, 0
20, 406016, Note_on_c, 12, 66, 97
20, 406016, Note_on_c, 12, 66, 96
20, 406052, Note_off_c, 12, 66, 0
20, 406052, Note_off_c, 12, 66, 0
20, 406052, Note_on_c, 12, 67, 95
20, 406052, Note_on_c, 12, 68, 98
20, 406089, Note_off_c, 12, 67, 0
20, 406089, Note_off_c, 12, 68, 0
20, 406089, Note_on_c, 12, 69, 98
20, 406089, Note_on_c, 12, 69, 96
20, 406125, Note_off_c, 12, 69, 0
20, 406125, Note_off_c, 12, 69, 0
20, 406125, Note_on_c, 12, 70, 101
20, 406125, Note_on_c, 12, 72, 99
20, 406162, Note_off_c, 12, 70, 0
20, 406162, Note_off_c, 12, 72, 0
20, 406162, Note_on_c, 12, 72, 102
20, 406162, Note_on_c, 12, 73, 99
20, 406198, Note_off_c, 12, 72, 0
20, 406198, Note_off_c, 12, 73, 0
20, 406198, Note_on_c, 12, 73, 97
20, 406198, Note_on_c, 12, 75, 94
20, 406235, Note_off_c, 12, 73, 0
20, 406235, Note_off_c, 12, 75, 0
20, 406235, Note_on_c, 12, 76, 98
20, 406235, Note_on_c, 12, 76, 100
20, 406272, Note_off_c, 12, 76, 0
20, 406272, Note_off_c, 12, 76, 0
20, 406272, Note_on_c, 12, 78, 102
20, 406272, Note_on_c, 12, 78, 98
20, 406304, Note_off_c, 12, 78, 0
20, 406304, Note_off_c, 12, 78, 0
20, 406304, Note_on_c, 12, 79, 97
20, 406304, Note_on_c, 12, 80, 104
20, 406336, Note_off_c, 12, 79, 0
20, 406336, Note_off_c, 12, 80, 0
20, 406336, Note_on_c, 12, 81, 105
20, 406336, Note_on_c, 12, 81, 103
20, 406368, Note_off_c, 12, 81, 0
20, 406368, Note_off_c, 12, 81, 0
20, 406368, Note_on_c, 12, 82, 102
20, 406368, Note_on_c, 12, 84, 101
20, 406400, Note_off_c, 12, 82, 0
20, 406400, Note_off_c, 12, 84, 0
20, 406400, Note_on_c, 12, 84, 108
20, 406400, Note_on_c, 12, 85, 110
20, 406432, Note_off_c, 12, 84, 0
20, 406432, Note_off_c, 12, 85, 0
20, 406432, Note_on_c, 12, 82, 93
20, 406432, Note_on_c, 12, 84, 89
20, 406464, Note_off_c, 12, 82, 0
20, 406464, Note_off_c, 12, 84, 0
20, 406464, Note_on_c, 12, 81, 89
20, 406464, Note_on_c, 12, 81, 88
20, 406496, Note_off_c, 12, 81, 0
20, 406496, Note_off_c, 12, 81, 0
20, 406496, Note_on_c, 12, 79, 88
20, 406496, Note_on_c, 12, 80, 89
20, 406528, Note_off_c, 12, 79, 0
20, 406528, Note_off_c, 12, 80, 0
20, 406528, Note_on_c, 12, 78, 92
20, 406528, Note_on_c, 12, 78, 93
20, 406564, Note_off_c, 12, 78, 0
20, 406564, Note_off_c, 12, 78, 0
20, 406564, Note_on_c, 12, 76, 90
20, 406564, Note_on_c, 12, 76, 83
20, 406601, Note_off_c, 12, 76, 0
20, 406601, Note_off_c, 12, 76, 0
20, 406601, Note_on_c, 12, 73, 86
20, 406601, Note_on_c, 12, 75, 90
20, 406637, Note_off_c, 12, 73, 0
20, 406637, Note_off_c, 12, 75, 0
20, 406637, Note_on_c, 12, 72, 88
20, 406637, Note_on_c, 12, 73, 83
20, 406674, Note_off_c, 12, 72, 0
20, 406674, Note_off_c, 12, 73, 0
20, 406674, Note_on_c, 12, 70, 87
20, 406674, Note_on_c, 12, 72, 86
20, 406710, Note_off_c, 12, 70, 0
20, 406710, Note_off_c, 12, 72, 0
20, 406710, Note_on_c, 12, 69, 86
20, 406710, Note_on_c, 12, 69, 85
20, 406747, Note_off_c, 12, 69, 0
20, 406747, Note_off_c, 12, 69, 0
20, 406747, Note_on_c, 12, 67, 81
20, 406747, Note_on_c, 12, 68, 88
20, 406784, Note_off_c, 12, 67, 0
20, 406784, Note_off_c, 12, 68, 0
20, 406784, Note_on_c, 12, 66, 85
20, 406784, Note_on_c, 12, 66, 83
20, 406816, Note_off_c, 12, 66, 0
20, 406816, Note_on_c, 12, 64, 83
20, 406820, Note_off_c, 12, 66, 0
20, 406820, Note_on_c, 12, 64, 80
20, 406848, Note_off_c, 12, 64, 0
20, 406848, Note_on_c, 12, 63, 83
20, 406857, Note_off_c, 12, 64, 0
20, 406857, Note_on_c, 12, 61, 82
20, 406880, Note_off_c, 12, 63, 0
20, 406880, Note_on_c, 12, 61, 86
20, 406893, Note_off_c, 12, 61, 0
20, 406893, Note_on_c, 12, 60, 80
20, 406912, Note_off_c, 12, 61, 0
20, 406912, Note_on_c, 12, 60, 79
20, 406930, Note_off_c, 12, 60, 0
20, 406930, Note_on_c, 12, 58, 79
20, 406944, Note_off_c, 12, 60, 0
20, 406944, Note_on_c, 12, 57, 86
20, 406966, Note_off_c, 12, 58, 0
20, 406966, Note_on_c, 12, 57, 86
20, 406976, Note_off_c, 12, 57, 0
20, 406976, Note_on_c, 12, 56, 83
20, 407003, Note_off_c, 12, 57, 0
20, 407003, Note_on_c, 12, 55, 80
20, 407008, Note_off_c, 12, 56, 0
20, 407008, Note_on_c, 12, 54, 84
20, 407038, Note_off_c, 12, 55, 0
20, 407038, Note_off_c, 12, 54, 0
20, 408832, Note_on_c, 12, 54, 74
20, 408832, Note_on_c, 12, 54, 73
20, 408868, Note_off_c, 12, 54, 0
20, 408868, Note_off_c, 12, 54, 0
20, 408868, Note_on_c, 12, 55, 84
20, 408868, Note_on_c, 12, 56, 88
20, 408905, Note_off_c, 12, 55, 0
20, 408905, Note_off_c, 12, 56, 0
20, 408905, Note_on_c, 12, 57, 88
20, 408905, Note_on_c, 12, 57, 86
20, 408941, Note_off_c, 12, 57, 0
20, 408941, Note_off_c, 12, 57, 0
20, 408941, Note_on_c, 12, 58, 86
20, 408941, Note_on_c, 12, 60, 92
20, 408978, Note_off_c, 12, 58, 0
20, 408978, Note_off_c, 12, 60, 0
20, 408978, Note_on_c, 12, 60, 93
20, 408978, Note_on_c, 12, 61, 90
20, 409014, Note_off_c, 12, 60, 0
20, 409014, Note_off_c, 12, 61, 0
20, 409014, Note_on_c, 12, 61, 86
20, 409014, Note_on_c, 12, 63, 97
20, 409051, Note_off_c, 12, 61, 0
20, 409051, Note_off_c, 12, 63, 0
20, 409051, Note_on_c, 12, 64, 97
20, 409051, Note_on_c, 12, 64, 97
20, 409088, Note_off_c, 12, 64, 0
20, 409088, Note_off_c, 12, 64, 0
20, 409088, Note_on_c, 12, 66, 99
20, 409088, Note_on_c, 12, 66, 93
20, 409124, Note_off_c, 12, 66, 0
20, 409124, Note_off_c, 12, 66, 0
20, 409124, Note_on_c, 12, 67, 98
20, 409124, Note_on_c, 12, 68, 94
20, 409161, Note_off_c, 12, 67, 0
20, 409161, Note_off_c, 12, 68, 0
20, 409161, Note_on_c, 12, 69, 90
20, 409161, Note_on_c, 12, 69, 97
20, 409197, Note_off_c, 12, 69, 0
20, 409197, Note_off_c, 12, 69, 0
20, 409197, Note_on_c, 12, 70, 91
20, 409197, Note_on_c, 12, 72, 96
20, 409234, Note_off_c, 12, 70, 0
20, 409234, Note_off_c, 12, 72, 0
20, 409234, Note_on_c, 12, 72, 99
20, 409234, Note_on_c, 12, 73, 98
20, 409270, Note_off_c, 12, 72, 0
20, 409270, Note_off_c, 12, 73, 0
20, 409270, Note_on_c, 12, 73, 97
20, 409270, Note_on_c, 12, 75, 99
20, 409307, Note_off_c, 12, 73, 0
20, 409307, Note_off_c, 12, 75, 0
20, 409307, Note_on_c, 12, 76, 102
20, 409307, Note_on_c, 12, 76, 102
20, 409344, Note_off_c, 12, 76, 0
20, 409344, Note_off_c, 12, 76, 0
20, 409344, Note_on_c, 12, 78, 103
20, 409344, Note_on_c, 12, 78, 101
20, 409376, Note_off_c, 12, 78, 0
20, 409376, Note_off_c, 12, 78, 0
20, 409376, Note_on_c, 12, 79, 97
20, 409376, Note_on_c, 12, 80, 104
20, 409408, Note_off_c, 12, 79, 0
20, 409408, Note_off_c, 12, 80, 0
20, 409408, Note_on_c, 12, 81, 99
20, 409408, Note_on_c, 12, 81, 102
20, 409440, Note_off_c, 12, 81, 0
20, 409440, Note_off_c, 12, 81, 0
20, 409440, Note_on_c, 12, 82, 102
20, 409440, Note_on_c, 12, 84, 109
20, 409472, Note_off_c, 12, 82, 0
20, 409472, Note_off_c, 12, 84, 0
20, 409472, Note_on_c, 12, 84, 107
20, 409472, Note_on_c, 12, 85, 104
20, 409504, Note_off_c, 12, 84, 0
20, 409504, Note_off_c, 12, 85, 0
20, 409504, Note_on_c, 12, 82, 94
20, 409504, Note_on_c, 12, 84, 97
20, 409536, Note_off_c, 12, 82, 0
20, 409536, Note_off_c, 12, 84, 0
20, 409536, Note_on_c, 12, 81, 94
20, 409536, Note_on_c, 12, 81, 89
20, 409568, Note_off_c, 12, 81, 0
20, 409568, Note_off_c, 12, 81, 0
20, 409568, Note_on_c, 12, 79, 90
20, 409568, Note_on_c, 12, 80, 91
20, 409600, Note_off_c, 12, 79, 0
20, 409600, Note_off_c, 12, 80, 0
20, 409600, Note_on_c, 12, 78, 93
20, 409600, Note_on_c, 12, 78, 91
20, 409636, Note_off_c, 12, 78, 0
20, 409636, Note_off_c, 12, 78, 0
20, 409636, Note_on_c, 12, 76, 86
20, 409636, Note_on_c, 12, 76, 86
20, 409673, Note_off_c, 12, 76, 0
20, 409673, Note_off_c, 12, 76, 0
20, 409673, Note_on_c, 12, 73, 82
20, 409673, Note_on_c, 12, 75, 89
20, 409709, Note_off_c, 12, 73, 0
20, 409709, Note_off_c, 12, 75, 0
20, 409709, Note_on_c, 12, 72, 87
20, 409709, Note_on_c, 12, 73, 84
20, 409746, Note_off_c, 12, 72, 0
20, 409746, Note_off_c, 12, 73, 0
20, 409746, Note_on_c, 12, 70, 84
20, 409746, Note_on_c, 12, 72, 87
20, 409782, Note_off_c, 12, 70, 0
20, 409782, Note_off_c, 12, 72, 0
20, 409782, Note_on_c, 12, 69, 85
20, 409782, Note_on_c, 12, 69, 85
20, 409819, Note_off_c, 12, 69, 0
20, 409819, Note_off_c, 12, 69, 0
20, 409819, Note_on_c, 12, 67, 80
20, 409819, Note_on_c, 12, 68, 84
20, 409856, Note_off_c, 12, 67, 0
20, 409856, Note_off_c, 12, 68, 0
20, 409856, Note_on_c, 12, 66, 87
20, 409856, Note_on_c, 12, 66, 83
20, 409884, Note_off_c, 12, 66, 0
20, 409884, Note_on_c, 12, 64, 85
20, 409892, Note_off_c, 12, 66, 0
20, 409892, Note_on_c, 12, 64, 80
20, 409912, Note_off_c, 12, 64, 0
20, 409912, Note_on_c, 12, 63, 85
20, 409929, Note_off_c, 12, 64, 0
20, 409929, Note_on_c, 12, 61, 83
20, 409941, Note_off_c, 12, 63, 0
20, 409941, Note_on_c, 12, 61, 79
20, 409965, Note_off_c, 12, 61, 0
20, 409965, Note_on_c, 12, 60, 81
20, 409969, Note_off_c, 12, 61, 0
20, 409969, Note_on_c, 12, 60, 83
20, 409998, Note_off_c, 12, 60, 0
20, 409998, Note_on_c, 12, 57, 83
20, 410002, Note_off_c, 12, 60, 0
20, 410002, Note_on_c, 12, 58, 84
20, 410026, Note_off_c, 12, 57, 0
20, 410026, Note_on_c, 12, 56, 85
20, 410038, Note_off_c, 12, 58, 0
20, 410038, Note_on_c, 12, 57, 76
20, 410055, Note_off_c, 12, 56, 0
20, 410055, Note_on_c, 12, 54, 81
20, 410075, Note_off_c, 12, 57, 0
20, 410075, Note_on_c, 12, 55, 78
20, 410081, Note_off_c, 12, 54, 0
20, 410083, Note_on_c, 12, 52, 80
20, 410110, Note_off_c, 12, 55, 0
20, 410112, Note_off_c, 12, 52, 0
20, 410880, Note_on_c, 12, 56, 83
20, 410880, Note_on_c, 12, 55, 77
20, 410912, Note_off_c, 12, 56, 0
20, 410912, Note_off_c, 12, 55, 0
20, 410912, Note_on_c, 12, 58, 87
20, 410912, Note_on_c, 12, 56, 86
20, 410944, Note_off_c, 12, 58, 0
20, 410944, Note_off_c, 12, 56, 0
20, 410944, Note_on_c, 12, 60, 89
20, 410944, Note_on_c, 12, 58, 85
20, 410976, Note_off_c, 12, 60, 0
20, 410976, Note_off_c, 12, 58, 0
20, 410976, Note_on_c, 12, 62, 91
20, 410976, Note_on_c, 12, 60, 87
20, 411008, Note_off_c, 12, 62, 0
20, 411008, Note_off_c, 12, 60, 0
20, 411008, Note_on_c, 12, 64, 94
20, 411008, Note_on_c, 12, 62, 91
20, 411040, Note_off_c, 12, 64, 0
20, 411040, Note_off_c, 12, 62, 0
20, 411040, Note_on_c, 12, 65, 87
20, 411040, Note_on_c, 12, 64, 88
20, 411072, Note_off_c, 12, 65, 0
20, 411072, Note_off_c, 12, 64, 0
20, 411072, Note_on_c, 12, 67, 91
20, 411072, Note_on_c, 12, 65, 87
20, 411104, Note_off_c, 12, 67, 0
20, 411104, Note_off_c, 12, 65, 0
20, 411104, Note_on_c, 12, 68, 90
20, 411104, Note_on_c, 12, 67, 89
20, 411136, Note_off_c, 12, 68, 0
20, 411136, Note_off_c, 12, 67, 0
20, 411136, Note_on_c, 12, 70, 89
20, 411136, Note_on_c, 12, 68, 90
20, 411168, Note_off_c, 12, 70, 0
20, 411168, Note_off_c, 12, 68, 0
20, 411168, Note_on_c, 12, 72, 91
20, 411168, Note_on_c, 12, 70, 92
20, 411200, Note_off_c, 12, 72, 0
20, 411200, Note_off_c, 12, 70, 0
20, 411200, Note_on_c, 12, 74, 91
20, 411200, Note_on_c, 12, 72, 89
20, 411232, Note_off_c, 12, 74, 0
20, 411232, Note_off_c, 12, 72, 0
20, 411232, Note_on_c, 12, 76, 92
20, 411232, Note_on_c, 12, 74, 87
20, 411264, Note_off_c, 12, 76, 0
20, 411264, Note_off_c, 12, 74, 0
20, 411264, Note_on_c, 12, 77, 83
20, 411264, Note_on_c, 12, 76, 93
20, 411296, Note_off_c, 12, 77, 0
20, 411296, Note_off_c, 12, 76, 0
20, 411296, Note_on_c, 12, 79, 86
20, 411296, Note_on_c, 12, 77, 89
20, 411328, Note_off_c, 12, 79, 0
20, 411328, Note_off_c, 12, 77, 0
20, 411328, Note_on_c, 12, 80, 90
20, 411328, Note_on_c, 12, 79, 92
20, 411360, Note_off_c, 12, 80, 0
20, 411360, Note_off_c, 12, 79, 0
20, 411360, Note_on_c, 12, 82, 89
20, 411360, Note_on_c, 12, 80, 87
20, 411392, Note_off_c, 12, 82, 0
20, 411392, Note_off_c, 12, 80, 0
20, 411392, Note_on_c, 12, 84, 91
20, 411392, Note_on_c, 12, 82, 89
20, 411434, Note_off_c, 12, 84, 0
20, 411434, Note_off_c, 12, 82, 0
20, 411434, Note_on_c, 12, 86, 91
20, 411434, Note_on_c, 12, 84, 86
20, 411477, Note_off_c, 12, 86, 0
20, 411477, Note_off_c, 12, 84, 0
20, 411477, Note_on_c, 12, 88, 91
20, 411477, Note_on_c, 12, 86, 84
20, 411520, Note_off_c, 12, 88, 0
20, 411520, Note_off_c, 12, 86, 0
20, 411520, Note_on_c, 12, 89, 89
20, 411520, Note_on_c, 12, 88, 90
20, 411562, Note_off_c, 12, 89, 0
20, 411562, Note_off_c, 12, 88, 0
20, 411562, Note_on_c, 12, 91, 86
20, 411562, Note_on_c, 12, 89, 89
20, 411605, Note_off_c, 12, 91, 0
20, 411605, Note_off_c, 12, 89, 0
20, 411605, Note_on_c, 12, 92, 92
20, 411605, Note_on_c, 12, 91, 87
20, 411645, Note_off_c, 12, 92, 0
20, 411645, Note_off_c, 12, 91, 0
20, 412736, Note_on_c, 12, 67, 77
20, 412736, Note_on_c, 12, 66, 78
20, 412800, Note_on_c, 12, 69, 84
20, 412800, Note_on_c, 12, 67, 80
20, 412801, Note_off_c, 12, 67, 0
20, 412801, Note_off_c, 12, 66, 0
20, 412832, Note_off_c, 12, 69, 0
20, 412832, Note_off_c, 12, 67, 0
20, 412832, Note_on_c, 12, 70, 90
20, 412832, Note_on_c, 12, 69, 87
20, 412864, Note_off_c, 12, 70, 0
20, 412864, Note_off_c, 12, 69, 0
20, 412864, Note_on_c, 12, 72, 88
20, 412864, Note_on_c, 12, 71, 91
20, 412896, Note_off_c, 12, 72, 0
20, 412896, Note_off_c, 12, 71, 0
20, 412896, Note_on_c, 12, 73, 91
20, 412896, Note_on_c, 12, 73, 86
20, 412928, Note_off_c, 12, 73, 0
20, 412928, Note_off_c, 12, 73, 0
20, 412928, Note_on_c, 12, 76, 93
20, 412928, Note_on_c, 12, 75, 89
20, 412960, Note_off_c, 12, 76, 0
20, 412960, Note_off_c, 12, 75, 0
20, 412960, Note_on_c, 12, 77, 89
20, 412960, Note_on_c, 12, 76, 89
20, 412992, Note_off_c, 12, 77, 0
20, 412992, Note_off_c, 12, 76, 0
20, 412992, Note_on_c, 12, 79, 89
20, 412992, Note_on_c, 12, 78, 86
20, 413024, Note_off_c, 12, 79, 0
20, 413024, Note_off_c, 12, 78, 0
20, 413024, Note_on_c, 12, 80, 89
20, 413024, Note_on_c, 12, 79, 87
20, 413056, Note_off_c, 12, 80, 0
20, 413056, Note_off_c, 12, 79, 0
20, 413056, Note_on_c, 12, 82, 83
20, 413056, Note_on_c, 12, 81, 88
20, 413086, Note_off_c, 12, 82, 0
20, 413086, Note_off_c, 12, 81, 0
20, 414720, Note_on_c, 12, 61, 75
20, 414720, Note_on_c, 12, 58, 73
20, 414756, Note_off_c, 12, 61, 0
20, 414756, Note_on_c, 12, 63, 89
20, 414762, Note_off_c, 12, 58, 0
20, 414762, Note_on_c, 12, 61, 87
20, 414793, Note_off_c, 12, 63, 0
20, 414793, Note_on_c, 12, 64, 90
20, 414805, Note_off_c, 12, 61, 0
20, 414805, Note_on_c, 12, 63, 86
20, 414829, Note_off_c, 12, 64, 0
20, 414829, Note_on_c, 12, 66, 92
20, 414848, Note_off_c, 12, 63, 0
20, 414848, Note_on_c, 12, 64, 92
20, 414866, Note_off_c, 12, 66, 0
20, 414866, Note_on_c, 12, 67, 87
20, 414890, Note_off_c, 12, 64, 0
20, 414890, Note_on_c, 12, 66, 88
20, 414902, Note_off_c, 12, 67, 0
20, 414902, Note_on_c, 12, 69, 89
20, 414933, Note_off_c, 12, 66, 0
20, 414933, Note_on_c, 12, 67, 89
20, 414939, Note_off_c, 12, 69, 0
20, 414939, Note_on_c, 12, 70, 87
20, 414976, Note_off_c, 12, 70, 0
20, 414976, Note_off_c, 12, 67, 0
20, 414976, Note_on_c, 12, 73, 94
20, 414976, Note_on_c, 12, 69, 91
20, 415008, Note_off_c, 12, 73, 0
20, 415008, Note_off_c, 12, 69, 0
20, 415008, Note_on_c, 12, 75, 95
20, 415008, Note_on_c, 12, 70, 89
20, 415040, Note_off_c, 12, 75, 0
20, 415040, Note_off_c, 12, 70, 0
20, 415040, Note_on_c, 12, 76, 86
20, 415040, Note_on_c, 12, 73, 92
20, 415072, Note_off_c, 12, 76, 0
20, 415072, Note_off_c, 12, 73, 0
20, 415072, Note_on_c, 12, 78, 87
20, 415072, Note_on_c, 12, 75, 92
20, 415104, Note_off_c, 12, 78, 0
20, 415104, Note_off_c, 12, 75, 0
20, 415104, Note_on_c, 12, 76, 81
20, 415104, Note_on_c, 12, 73, 78
20, 415136, Note_off_c, 12, 76, 0
20, 415136, Note_off_c, 12, 73, 0
20, 415136, Note_on_c, 12, 75, 78
20, 415136, Note_on_c, 12, 70, 78
20, 415168, Note_off_c, 12, 75, 0
20, 415168, Note_off_c, 12, 70, 0
20, 415168, Note_on_c, 12, 73, 77
20, 415168, Note_on_c, 12, 69, 80
20, 415200, Note_off_c, 12, 73, 0
20, 415200, Note_off_c, 12, 69, 0
20, 415200, Note_on_c, 12, 70, 77
20, 415200, Note_on_c, 12, 67, 81
20, 415232, Note_off_c, 12, 70, 0
20, 415232, Note_off_c, 12, 67, 0
20, 415232, Note_on_c, 12, 69, 75
20, 415232, Note_on_c, 12, 66, 82
20, 415264, Note_off_c, 12, 69, 0
20, 415264, Note_off_c, 12, 66, 0
20, 415264, Note_on_c, 12, 67, 79
20, 415264, Note_on_c, 12, 64, 79
20, 415296, Note_off_c, 12, 67, 0
20, 415296, Note_off_c, 12, 64, 0
20, 415296, Note_on_c, 12, 66, 81
20, 415296, Note_on_c, 12, 63, 77
20, 415328, Note_off_c, 12, 66, 0
20, 415328, Note_off_c, 12, 63, 0
20, 415328, Note_on_c, 12, 64, 76
20, 415328, Note_on_c, 12, 61, 78
20, 415360, Note_off_c, 12, 64, 0
20, 415360, Note_off_c, 12, 61, 0
20, 415360, Note_on_c, 12, 66, 87
20, 415360, Note_on_c, 12, 63, 81
20, 415381, Note_off_c, 12, 63, 0
20, 415381, Note_on_c, 12, 64, 92
20, 415385, Note_off_c, 12, 66, 0
20, 415385, Note_on_c, 12, 67, 85
20, 415402, Note_off_c, 12, 64, 0
20, 415402, Note_on_c, 12, 66, 88
20, 415411, Note_off_c, 12, 67, 0
20, 415411, Note_on_c, 12, 69, 92
20, 415424, Note_off_c, 12, 66, 0
20, 415424, Note_on_c, 12, 67, 88
20, 415436, Note_off_c, 12, 69, 0
20, 415436, Note_on_c, 12, 70, 86
20, 415445, Note_off_c, 12, 67, 0
20, 415445, Note_on_c, 12, 69, 88
20, 415462, Note_off_c, 12, 70, 0
20, 415462, Note_on_c, 12, 73, 92
20, 415466, Note_off_c, 12, 69, 0
20, 415466, Note_on_c, 12, 70, 91
20, 415488, Note_off_c, 12, 73, 0
20, 415488, Note_off_c, 12, 70, 0
20, 415488, Note_on_c, 12, 76, 92
20, 415488, Note_on_c, 12, 73, 91
20, 415520, Note_off_c, 12, 76, 0
20, 415520, Note_off_c, 12, 73, 0
20, 415520, Note_on_c, 12, 78, 92
20, 415520, Note_on_c, 12, 75, 93
20, 415552, Note_off_c, 12, 78, 0
20, 415552, Note_off_c, 12, 75, 0
20, 415552, Note_on_c, 12, 79, 87
20, 415552, Note_on_c, 12, 76, 85
20, 415584, Note_off_c, 12, 79, 0
20, 415584, Note_off_c, 12, 76, 0
20, 415584, Note_on_c, 12, 81, 94
20, 415584, Note_on_c, 12, 78, 90
20, 415616, Note_off_c, 12, 81, 0
20, 415616, Note_off_c, 12, 78, 0
20, 415616, Note_on_c, 12, 79, 80
20, 415616, Note_on_c, 12, 76, 79
20, 415648, Note_off_c, 12, 79, 0
20, 415648, Note_off_c, 12, 76, 0
20, 415648, Note_on_c, 12, 78, 79
20, 415648, Note_on_c, 12, 75, 81
20, 415680, Note_off_c, 12, 78, 0
20, 415680, Note_off_c, 12, 75, 0
20, 415680, Note_on_c, 12, 76, 78
20, 415680, Note_on_c, 12, 73, 77
20, 415712, Note_off_c, 12, 76, 0
20, 415712, Note_off_c, 12, 73, 0
20, 415712, Note_on_c, 12, 75, 83
20, 415712, Note_on_c, 12, 70, 72
20, 415744, Note_off_c, 12, 75, 0
20, 415744, Note_off_c, 12, 70, 0
20, 415744, Note_on_c, 12, 76, 87
20, 415744, Note_on_c, 12, 73, 91
20, 415769, Note_off_c, 12, 76, 0
20, 415769, Note_off_c, 12, 73, 0
20, 415769, Note_on_c, 12, 78, 90
20, 415769, Note_on_c, 12, 75, 90
20, 415795, Note_off_c, 12, 78, 0
20, 415795, Note_off_c, 12, 75, 0
20, 415795, Note_on_c, 12, 79, 91
20, 415795, Note_on_c, 12, 76, 87
20, 415820, Note_off_c, 12, 79, 0
20, 415820, Note_off_c, 12, 76, 0
20, 415820, Note_on_c, 12, 81, 93
20, 415820, Note_on_c, 12, 78, 88
20, 415846, Note_off_c, 12, 81, 0
20, 415846, Note_off_c, 12, 78, 0
20, 415846, Note_on_c, 12, 82, 92
20, 415846, Note_on_c, 12, 79, 91
20, 415872, Note_off_c, 12, 82, 0
20, 415872, Note_off_c, 12, 79, 0
20, 415872, Note_on_c, 12, 85, 92
20, 415872, Note_on_c, 12, 81, 90
20, 415904, Note_off_c, 12, 85, 0
20, 415904, Note_off_c, 12, 81, 0
20, 415904, Note_on_c, 12, 87, 92
20, 415904, Note_on_c, 12, 82, 87
20, 415936, Note_off_c, 12, 87, 0
20, 415936, Note_off_c, 12, 82, 0
20, 415936, Note_on_c, 12, 88, 84
20, 415936, Note_on_c, 12, 85, 92
20, 415968, Note_off_c, 12, 88, 0
20, 415968, Note_off_c, 12, 85, 0
20, 415968, Note_on_c, 12, 90, 90
20, 415968, Note_on_c, 12, 87, 93
20, 415998, Note_off_c, 12, 90, 0
20, 415998, Note_off_c, 12, 87, 0
20, 416768, Note_on_c, 12, 87, 76
20, 416768, Note_on_c, 12, 82, 73
20, 416804, Note_off_c, 12, 87, 0
20, 416804, Note_off_c, 12, 82, 0
20, 416804, Note_on_c, 12, 85, 77
20, 416804, Note_on_c, 12, 81, 81
20, 416841, Note_off_c, 12, 85, 0
20, 416841, Note_off_c, 12, 81, 0
20, 416841, Note_on_c, 12, 82, 77
20, 416841, Note_on_c, 12, 79, 77
20, 416877, Note_off_c, 12, 82, 0
20, 416877, Note_off_c, 12, 79, 0
20, 416877, Note_on_c, 12, 81, 77
20, 416877, Note_on_c, 12, 78, 78
20, 416914, Note_off_c, 12, 81, 0
20, 416914, Note_off_c, 12, 78, 0
20, 416914, Note_on_c, 12, 79, 76
20, 416914, Note_on_c, 12, 76, 81
20, 416950, Note_off_c, 12, 79, 0
20, 416950, Note_off_c, 12, 76, 0
20, 416950, Note_on_c, 12, 78, 79
20, 416950, Note_on_c, 12, 75, 79
20, 416987, Note_off_c, 12, 78, 0
20, 416987, Note_off_c, 12, 75, 0
20, 416987, Note_on_c, 12, 76, 73
20, 416987, Note_on_c, 12, 73, 75
20, 417024, Note_off_c, 12, 76, 0
20, 417024, Note_off_c, 12, 73, 0
20, 417024, Note_on_c, 12, 75, 78
20, 417024, Note_on_c, 12, 70, 74
20, 417075, Note_on_c, 12, 73, 73
20, 417075, Note_on_c, 12, 69, 76
20, 417076, Note_off_c, 12, 75, 0
20, 417076, Note_off_c, 12, 70, 0
20, 417126, Note_on_c, 12, 70, 71
20, 417126, Note_on_c, 12, 67, 74
20, 417127, Note_off_c, 12, 73, 0
20, 417127, Note_off_c, 12, 69, 0
20, 417177, Note_on_c, 12, 69, 61
20, 417177, Note_on_c, 12, 66, 68
20, 417178, Note_off_c, 12, 70, 0
20, 417178, Note_off_c, 12, 67, 0
20, 417228, Note_on_c, 12, 67, 78
20, 417228, Note_on_c, 12, 64, 80
20, 417229, Note_off_c, 12, 69, 0
20, 417229, Note_off_c, 12, 66, 0
20, 417280, Note_on_c, 12, 66, 73
20, 417280, Note_on_c, 12, 63, 79
20, 417281, Note_off_c, 12, 67, 0
20, 417281, Note_off_c, 12, 64, 0
20, 417312, Note_off_c, 12, 66, 0
20, 417312, Note_off_c, 12, 63, 0
20, 417312, Note_on_c, 12, 68, 86
20, 417312, Note_on_c, 12, 64, 85
20, 417344, Note_off_c, 12, 68, 0
20, 417344, Note_off_c, 12, 64, 0
20, 417344, Note_on_c, 12, 69, 88
20, 417344, Note_on_c, 12, 66, 85
20, 417376, Note_off_c, 12, 69, 0
20, 417376, Note_off_c, 12, 66, 0
20, 417376, Note_on_c, 12, 70, 91
20, 417376, Note_on_c, 12, 67, 85
20, 417408, Note_off_c, 12, 70, 0
20, 417408, Note_off_c, 12, 67, 0
20, 417408, Note_on_c, 12, 69, 84
20, 417408, Note_on_c, 12, 66, 78
20, 417440, Note_off_c, 12, 69, 0
20, 417440, Note_off_c, 12, 66, 0
20, 417440, Note_on_c, 12, 68, 84
20, 417440, Note_on_c, 12, 64, 76
20, 417472, Note_off_c, 12, 68, 0
20, 417472, Note_off_c, 12, 64, 0
20, 417472, Note_on_c, 12, 66, 78
20, 417472, Note_on_c, 12, 63, 78
20, 417504, Note_off_c, 12, 66, 0
20, 417504, Note_off_c, 12, 63, 0
20, 417504, Note_on_c, 12, 64, 79
20, 417504, Note_on_c, 12, 61, 74
20, 417536, Note_off_c, 12, 64, 0
20, 417536, Note_off_c, 12, 61, 0
20, 417536, Note_on_c, 12, 63, 85
20, 417536, Note_on_c, 12, 58, 79
20, 417568, Note_off_c, 12, 63, 0
20, 417568, Note_off_c, 12, 58, 0
20, 417568, Note_on_c, 12, 64, 91
20, 417568, Note_on_c, 12, 61, 89
20, 417600, Note_off_c, 12, 64, 0
20, 417600, Note_off_c, 12, 61, 0
20, 417600, Note_on_c, 12, 66, 89
20, 417600, Note_on_c, 12, 63, 91
20, 417632, Note_off_c, 12, 66, 0
20, 417632, Note_off_c, 12, 63, 0
20, 417632, Note_on_c, 12, 68, 90
20, 417632, Note_on_c, 12, 64, 93
20, 417664, Note_off_c, 12, 68, 0
20, 417664, Note_off_c, 12, 64, 0
20, 417664, Note_on_c, 12, 66, 81
20, 417664, Note_on_c, 12, 63, 78
20, 417696, Note_off_c, 12, 66, 0
20, 417696, Note_off_c, 12, 63, 0
20, 417696, Note_on_c, 12, 64, 80
20, 417696, Note_on_c, 12, 61, 76
20, 417728, Note_off_c, 12, 64, 0
20, 417728, Note_off_c, 12, 61, 0
20, 417728, Note_on_c, 12, 63, 81
20, 417728, Note_on_c, 12, 58, 74
20, 417760, Note_off_c, 12, 63, 0
20, 417760, Note_off_c, 12, 58, 0
20, 417760, Note_on_c, 12, 61, 78
20, 417760, Note_on_c, 12, 57, 83
20, 417792, Note_off_c, 12, 61, 0
20, 417792, Note_off_c, 12, 57, 0
20, 417792, Note_on_c, 12, 58, 79
20, 417792, Note_on_c, 12, 55, 84
20, 417824, Note_off_c, 12, 58, 0
20, 417824, Note_off_c, 12, 55, 0
20, 417824, Note_on_c, 12, 57, 83
20, 417824, Note_on_c, 12, 54, 86
20, 417856, Note_off_c, 12, 57, 0
20, 417856, Note_off_c, 12, 54, 0
20, 417856, Note_on_c, 12, 55, 80
20, 417856, Note_on_c, 12, 52, 79
20, 417888, Note_off_c, 12, 55, 0
20, 417888, Note_off_c, 12, 52, 0
20, 417888, Note_on_c, 12, 54, 86
20, 417888, Note_on_c, 12, 51, 85
20, 417918, Note_off_c, 12, 54, 0
20, 417918, Note_off_c, 12, 51, 0
20, 424320, Note_on_c, 12, 56, 99
20, 424320, Note_on_c, 12, 60, 99
20, 424320, Note_on_c, 12, 63, 99
20, 424320, Note_on_c, 12, 68, 99
20, 424320, Note_on_c, 12, 72, 99
20, 424320, Note_on_c, 12, 75, 99
20, 424320, Note_on_c, 12, 80, 99
20, 424320, Note_on_c, 12, 84, 99
20, 424704, Note_off_c, 12, 56, 0
20, 424704, Note_off_c, 12, 60, 0
20, 424704, Note_off_c, 12, 63, 0
20, 424704, Note_off_c, 12, 68, 0
20, 424704, Note_off_c, 12, 72, 0
20, 424704, Note_off_c, 12, 75, 0
20, 424704, Note_off_c, 12, 80, 0
20, 424704, Note_off_c, 12, 84, 0
20, 424704, Note_on_c, 12, 62, 113
20, 424704, Note_on_c, 12, 63, 113
20, 424704, Note_on_c, 12, 68, 113
20, 424704, Note_on_c, 12, 72, 113
20, 424704, Note_on_c, 12, 74, 113
20, 424704, Note_on_c, 12, 78, 113
20, 424704, Note_on_c, 12, 81, 113
20, 424704, Note_on_c, 12, 86, 113
20, 425088, Note_off_c, 12, 62, 0
20, 425088, Note_off_c, 12, 63, 0
20, 425088, Note_off_c, 12, 68, 0
20, 425088, Note_off_c, 12, 72, 0
20, 425088, Note_off_c, 12, 74, 0
20, 425088, Note_off_c, 12, 78, 0
20, 425088, Note_off_c, 12, 81, 0
20, 425088, Note_off_c, 12, 86, 0
20, 425088, Note_on_c, 12, 56, 104
20, 425088, Note_on_c, 12, 60, 104
20, 425088, Note_on_c, 12, 63, 104
20, 425088, Note_on_c, 12, 68, 104
20, 425088, Note_on_c, 12, 72, 104
20, 425088, Note_on_c, 12, 75, 104
20, 425088, Note_on_c, 12, 80, 104
20, 425088, Note_on_c, 12, 84, 104
20, 425472, Note_off_c, 12, 56, 0
20, 425472, Note_off_c, 12, 60, 0
20, 425472, Note_off_c, 12, 63, 0
20, 425472, Note_off_c, 12, 68, 0
20, 425472, Note_off_c, 12, 72, 0
20, 425472, Note_off_c, 12, 75, 0
20, 425472, Note_off_c, 12, 80, 0
20, 425472, Note_off_c, 12, 84, 0
20, 425856, Note_on_c, 12, 56, 108
20, 425856, Note_on_c, 12, 60, 108
20, 425856, Note_on_c, 12, 63, 108
20, 425856, Note_on_c, 12, 68, 108
20, 425856, Note_on_c, 12, 72, 108
20, 425856, Note_on_c, 12, 75, 108
20, 425856, Note_on_c, 12, 80, 108
20, 425856, Note_on_c, 12, 84, 108
20, 426240, Note_off_c, 12, 56, 0
20, 426240, Note_off_c, 12, 60, 0
20, 426240, Note_off_c, 12, 63, 0
20, 426240, Note_off_c, 12, 68, 0
20, 426240, Note_off_c, 12, 72, 0
20, 426240, Note_off_c, 12, 75, 0
20, 426240, Note_off_c, 12, 80, 0
20, 426240, Note_off_c, 12, 84, 0
20, 426240, Note_on_c, 12, 62, 113
20, 426240, Note_on_c, 12, 63, 113
20, 426240, Note_on_c, 12, 68, 113
20, 426240, Note_on_c, 12, 72, 113
20, 426240, Note_on_c, 12, 74, 113
20, 426240, Note_on_c, 12, 78, 113
20, 426240, Note_on_c, 12, 81, 113
20, 426240, Note_on_c, 12, 86, 113
20, 426624, Note_off_c, 12, 62, 0
20, 426624, Note_off_c, 12, 63, 0
20, 426624, Note_off_c, 12, 68, 0
20, 426624, Note_off_c, 12, 72, 0
20, 426624, Note_off_c, 12, 74, 0
20, 426624, Note_off_c, 12, 78, 0
20, 426624, Note_off_c, 12, 81, 0
20, 426624, Note_off_c, 12, 86, 0
20, 426624, Note_on_c, 12, 56, 107
20, 426624, Note_on_c, 12, 60, 107
20, 426624, Note_on_c, 12, 63, 107
20, 426624, Note_on_c, 12, 68, 107
20, 426624, Note_on_c, 12, 72, 107
20, 426624, Note_on_c, 12, 75, 107
20, 426624, Note_on_c, 12, 80, 107
20, 426624, Note_on_c, 12, 84, 107
20, 427008, Note_off_c, 12, 56, 0
20, 427008, Note_off_c, 12, 60, 0
20, 427008, Note_off_c, 12, 63, 0
20, 427008, Note_off_c, 12, 68, 0
20, 427008, Note_off_c, 12, 72, 0
20, 427008, Note_off_c, 12, 75, 0
20, 427008, Note_off_c, 12, 80, 0
20, 427008, Note_off_c, 12, 84, 0
20, 427264, Note_on_c, 12, 56, 100
20, 427264, Note_on_c, 12, 60, 100
20, 427264, Note_on_c, 12, 63, 100
20, 427264, Note_on_c, 12, 68, 100
20, 427264, Note_on_c, 12, 72, 100
20, 427264, Note_on_c, 12, 75, 100
20, 427264, Note_on_c, 12, 80, 100
20, 427264, Note_on_c, 12, 84, 100
20, 427648, Note_off_c, 12, 56, 0
20, 427648, Note_off_c, 12, 60, 0
20, 427648, Note_off_c, 12, 63, 0
20, 427648, Note_off_c, 12, 68, 0
20, 427648, Note_off_c, 12, 72, 0
20, 427648, Note_off_c, 12, 75, 0
20, 427648, Note_off_c, 12, 80, 0
20, 427648, Note_off_c, 12, 84, 0
20, 427648, Note_on_c, 12, 62, 115
20, 427648, Note_on_c, 12, 63, 115
20, 427648, Note_on_c, 12, 68, 115
20, 427648, Note_on_c, 12, 72, 115
20, 427648, Note_on_c, 12, 74, 115
20, 427648, Note_on_c, 12, 78, 115
20, 427648, Note_on_c, 12, 81, 115
20, 427648, Note_on_c, 12, 86, 115
20, 428032, Note_off_c, 12, 62, 0
20, 428032, Note_off_c, 12, 63, 0
20, 428032, Note_off_c, 12, 68, 0
20, 428032, Note_off_c, 12, 72, 0
20, 428032, Note_off_c, 12, 74, 0
20, 428032, Note_off_c, 12, 78, 0
20, 428032, Note_off_c, 12, 81, 0
20, 428032, Note_off_c, 12, 86, 0
20, 428032, Note_on_c, 12, 56, 110
20, 428032, Note_on_c, 12, 60, 110
20, 428032, Note_on_c, 12, 63, 110
20, 428032, Note_on_c, 12, 68, 110
20, 428032, Note_on_c, 12, 72, 110
20, 428032, Note_on_c, 12, 75, 110
20, 428032, Note_on_c, 12, 80, 110
20, 428032, Note_on_c, 12, 84, 110
20, 428416, Note_off_c, 12, 56, 0
20, 428416, Note_off_c, 12, 60, 0
20, 428416, Note_off_c, 12, 63, 0
20, 428416, Note_off_c, 12, 68, 0
20, 428416, Note_off_c, 12, 72, 0
20, 428416, Note_off_c, 12, 75, 0
20, 428416, Note_off_c, 12, 80, 0
20, 428416, Note_off_c, 12, 84, 0
20, 428416, Note_on_c, 12, 62, 122
20, 428416, Note_on_c, 12, 63, 122
20, 428416, Note_on_c, 12, 68, 122
20, 428416, Note_on_c, 12, 72, 122
20, 428416, Note_on_c, 12, 74, 122
20, 428416, Note_on_c, 12, 78, 122
20, 428416, Note_on_c, 12, 81, 122
20, 428416, Note_on_c, 12, 86, 122
20, 428800, Note_off_c, 12, 62, 0
20, 428800, Note_off_c, 12, 63, 0
20, 428800, Note_off_c, 12, 68, 0
20, 428800, Note_off_c, 12, 72, 0
20, 428800, Note_off_c, 12, 74, 0
20, 428800, Note_off_c, 12, 78, 0
20, 428800, Note_off_c, 12, 81, 0
20, 428800, Note_off_c, 12, 86, 0
20, 429312, Note_on_c, 12, 50, 97
20, 429344, Note_off_c, 12, 50, 0
20, 429344, Note_on_c, 12, 52, 111
20, 429376, Note_off_c, 12, 52, 0
20, 429376, Note_on_c, 12, 54, 115
20, 429408, Note_off_c, 12, 54, 0
20, 429408, Note_on_c, 12, 56, 114
20, 429440, Note_off_c, 12, 56, 0
20, 429440, Note_on_c, 12, 57, 115
20, 429440, Note_on_c, 12, 38, 101
20, 429472, Note_off_c, 12, 57, 0
20, 429472, Note_off_c, 12, 38, 0
20, 429472, Note_on_c, 12, 59, 117
20, 429472, Note_on_c, 12, 40, 113
20, 429504, Note_off_c, 12, 59, 0
20, 429504, Note_off_c, 12, 40, 0
20, 429504, Note_on_c, 12, 60, 119
20, 429504, Note_on_c, 12, 42, 117
20, 429536, Note_off_c, 12, 60, 0
20, 429536, Note_off_c, 12, 42, 0
20, 429536, Note_on_c, 12, 62, 120
20, 429536, Note_on_c, 12, 44, 118
20, 429568, Note_off_c, 12, 62, 0
20, 429568, Note_off_c, 12, 44, 0
20, 429568, Note_on_c, 12, 64, 115
20, 429568, Note_on_c, 12, 45, 114
20, 429600, Note_off_c, 12, 64, 0
20, 429600, Note_off_c, 12, 45, 0
20, 429600, Note_on_c, 12, 66, 122
20, 429600, Note_on_c, 12, 47, 117
20, 429632, Note_off_c, 12, 66, 0
20, 429632, Note_off_c, 12, 47, 0
20, 429632, Note_on_c, 12, 68, 125
20, 429632, Note_on_c, 12, 48, 115
20, 429664, Note_off_c, 12, 68, 0
20, 429664, Note_off_c, 12, 48, 0
20, 429664, Note_on_c, 12, 69, 120
20, 429664, Note_on_c, 12, 50, 117
20, 429696, Note_off_c, 12, 69, 0
20, 429696, Note_off_c, 12, 50, 0
20, 429696, Note_on_c, 12, 71, 123
20, 429696, Note_on_c, 12, 52, 118
20, 429728, Note_off_c, 12, 71, 0
20, 429728, Note_off_c, 12, 52, 0
20, 429728, Note_on_c, 12, 72, 118
20, 429728, Note_on_c, 12, 54, 120
20, 429760, Note_off_c, 12, 72, 0
20, 429760, Note_off_c, 12, 54, 0
20, 429760, Note_on_c, 12, 74, 126
20, 429760, Note_on_c, 12, 56, 116
20, 429792, Note_off_c, 12, 74, 0
20, 429792, Note_off_c, 12, 56, 0
20, 429792, Note_on_c, 12, 76, 121
20, 429792, Note_on_c, 12, 57, 116
20, 429824, Note_off_c, 12, 76, 0
20, 429824, Note_off_c, 12, 57, 0
20, 429824, Note_on_c, 12, 78, 120
20, 429824, Note_on_c, 12, 59, 115
20, 429856, Note_off_c, 12, 78, 0
20, 429856, Note_off_c, 12, 59, 0
20, 429856, Note_on_c, 12, 80, 125
20, 429856, Note_on_c, 12, 60, 121
20, 429888, Note_off_c, 12, 80, 0
20, 429888, Note_off_c, 12, 60, 0
20, 429888, Note_on_c, 12, 81, 119
20, 429888, Note_on_c, 12, 62, 116
20, 429920, Note_off_c, 12, 81, 0
20, 429920, Note_off_c, 12, 62, 0
20, 429920, Note_on_c, 12, 83, 121
20, 429920, Note_on_c, 12, 64, 114
20, 429952, Note_off_c, 12, 83, 0
20, 429952, Note_off_c, 12, 64, 0
20, 429952, Note_on_c, 12, 84, 121
20, 429952, Note_on_c, 12, 66, 127
20, 429984, Note_off_c, 12, 84, 0
20, 429984, Note_off_c, 12, 66, 0
20, 429984, Note_on_c, 12, 86, 120
20, 429984, Note_on_c, 12, 68, 117
20, 430016, Note_off_c, 12, 86, 0
20, 430016, Note_off_c, 12, 68, 0
20, 430016, Note_on_c, 12, 88, 117
20, 430016, Note_on_c, 12, 69, 121
20, 430048, Note_off_c, 12, 88, 0
20, 430048, Note_off_c, 12, 69, 0
20, 430048, Note_on_c, 12, 90, 121
20, 430048, Note_on_c, 12, 71, 119
20, 430078, Note_off_c, 12, 90, 0
20, 430080, Note_off_c, 12, 71, 0
20, 430080, Note_on_c, 12, 72, 121
20, 430112, Note_off_c, 12, 72, 0
20, 430112, Note_on_c, 12, 74, 122
20, 430144, Note_off_c, 12, 74, 0
20, 430144, Note_on_c, 12, 76, 122
20, 430176, Note_off_c, 12, 76, 0
20, 430176, Note_on_c, 12, 78, 124
20, 430206, Note_off_c, 12, 78, 0
20, 430208, Note_on_c, 12, 48, 106
20, 430240, Note_off_c, 12, 48, 0
20, 430240, Note_on_c, 12, 50, 118
20, 430272, Note_off_c, 12, 50, 0
20, 430272, Note_on_c, 12, 52, 116
20, 430304, Note_off_c, 12, 52, 0
20, 430304, Note_on_c, 12, 54, 117
20, 430336, Note_off_c, 12, 54, 0
20, 430336, Note_on_c, 12, 56, 116
20, 430336, Note_on_c, 12, 64, 103
20, 430368, Note_off_c, 12, 56, 0
20, 430368, Note_off_c, 12, 64, 0
20, 430368, Note_on_c, 12, 57, 114
20, 430368, Note_on_c, 12, 66, 115
20, 430400, Note_off_c, 12, 57, 0
20, 430400, Note_off_c, 12, 66, 0
20, 430400, Note_on_c, 12, 59, 114
20, 430400, Note_on_c, 12, 68, 119
20, 430432, Note_off_c, 12, 59, 0
20, 430432, Note_off_c, 12, 68, 0
20, 430432, Note_on_c, 12, 60, 118
20, 430432, Note_on_c, 12, 69, 120
20, 430464, Note_off_c, 12, 60, 0
20, 430464, Note_off_c, 12, 69, 0
20, 430464, Note_on_c, 12, 62, 119
20, 430464, Note_on_c, 12, 71, 121
20, 430496, Note_off_c, 12, 62, 0
20, 430496, Note_off_c, 12, 71, 0
20, 430496, Note_on_c, 12, 64, 120
20, 430496, Note_on_c, 12, 72, 118
20, 430528, Note_off_c, 12, 64, 0
20, 430528, Note_off_c, 12, 72, 0
20, 430528, Note_on_c, 12, 66, 119
20, 430528, Note_on_c, 12, 74, 126
20, 430560, Note_off_c, 12, 66, 0
20, 430560, Note_off_c, 12, 74, 0
20, 430560, Note_on_c, 12, 68, 123
20, 430560, Note_on_c, 12, 76, 119
20, 430592, Note_off_c, 12, 68, 0
20, 430592, Note_off_c, 12, 76, 0
20, 430592, Note_on_c, 12, 69, 121
20, 430592, Note_on_c, 12, 78, 121
20, 430624, Note_off_c, 12, 69, 0
20, 430624, Note_off_c, 12, 78, 0
20, 430624, Note_on_c, 12, 71, 117
20, 430624, Note_on_c, 12, 80, 123
20, 430656, Note_off_c, 12, 71, 0
20, 430656, Note_off_c, 12, 80, 0
20, 430656, Note_on_c, 12, 72, 117
20, 430656, Note_on_c, 12, 81, 119
20, 430688, Note_off_c, 12, 72, 0
20, 430688, Note_off_c, 12, 81, 0
20, 430688, Note_on_c, 12, 74, 119
20, 430688, Note_on_c, 12, 83, 123
20, 430720, Note_off_c, 12, 74, 0
20, 430720, Note_off_c, 12, 83, 0
20, 430720, Note_on_c, 12, 76, 123
20, 430720, Note_on_c, 12, 84, 120
20, 430750, Note_off_c, 12, 76, 0
20, 430752, Note_off_c, 12, 84, 0
20, 430752, Note_on_c, 12, 86, 121
20, 430784, Note_off_c, 12, 86, 0
20, 430784, Note_on_c, 12, 88, 120
20, 430816, Note_off_c, 12, 88, 0
20, 430816, Note_on_c, 12, 90, 119
20, 430846, Note_off_c, 12, 90, 0
20, 430976, Note_on_c, 12, 56, 102
20, 431008, Note_off_c, 12, 56, 0
20, 431008, Note_on_c, 12, 57, 117
20, 431040, Note_off_c, 12, 57, 0
20, 431040, Note_on_c, 12, 59, 121
20, 431072, Note_off_c, 12, 59, 0
20, 431072, Note_on_c, 12, 60, 114
20, 431104, Note_off_c, 12, 60, 0
20, 431104, Note_on_c, 12, 62, 120
20, 431136, Note_off_c, 12, 62, 0
20, 431136, Note_on_c, 12, 64, 125
20, 431168, Note_off_c, 12, 64, 0
20, 431168, Note_on_c, 12, 66, 118
20, 431200, Note_off_c, 12, 66, 0
20, 431200, Note_on_c, 12, 68, 117
20, 431232, Note_off_c, 12, 68, 0
20, 431232, Note_on_c, 12, 44, 94
20, 431232, Note_on_c, 12, 56, 102
20, 431264, Note_off_c, 12, 44, 0
20, 431264, Note_off_c, 12, 56, 0
20, 431264, Note_on_c, 12, 45, 116
20, 431264, Note_on_c, 12, 57, 112
20, 431296, Note_off_c, 12, 45, 0
20, 431296, Note_off_c, 12, 57, 0
20, 431296, Note_on_c, 12, 47, 118
20, 431296, Note_on_c, 12, 59, 116
20, 431328, Note_off_c, 12, 47, 0
20, 431328, Note_off_c, 12, 59, 0
20, 431328, Note_on_c, 12, 48, 115
20, 431328, Note_on_c, 12, 60, 114
20, 431360, Note_off_c, 12, 48, 0
20, 431360, Note_off_c, 12, 60, 0
20, 431360, Note_on_c, 12, 50, 118
20, 431360, Note_on_c, 12, 62, 122
20, 431392, Note_off_c, 12, 50, 0
20, 431392, Note_off_c, 12, 62, 0
20, 431392, Note_on_c, 12, 52, 116
20, 431392, Note_on_c, 12, 64, 119
20, 431424, Note_off_c, 12, 52, 0
20, 431424, Note_off_c, 12, 64, 0
20, 431424, Note_on_c, 12, 54, 119
20, 431424, Note_on_c, 12, 66, 117
20, 431456, Note_off_c, 12, 54, 0
20, 431456, Note_off_c, 12, 66, 0
20, 431456, Note_on_c, 12, 56, 114
20, 431456, Note_on_c, 12, 68, 123
20, 431488, Note_off_c, 12, 56, 0
20, 431488, Note_off_c, 12, 68, 0
20, 431488, Note_on_c, 12, 57, 117
20, 431488, Note_on_c, 12, 69, 117
20, 431520, Note_off_c, 12, 57, 0
20, 431520, Note_off_c, 12, 69, 0
20, 431520, Note_on_c, 12, 59, 115
20, 431520, Note_on_c, 12, 71, 117
20, 431552, Note_off_c, 12, 59, 0
20, 431552, Note_off_c, 12, 71, 0
20, 431552, Note_on_c, 12, 60, 118
20, 431552, Note_on_c, 12, 72, 112
20, 431584, Note_off_c, 12, 60, 0
20, 431584, Note_off_c, 12, 72, 0
20, 431584, Note_on_c, 12, 62, 121
20, 431584, Note_on_c, 12, 74, 124
20, 431616, Note_off_c, 12, 62, 0
20, 431616, Note_off_c, 12, 74, 0
20, 431616, Note_on_c, 12, 64, 122
20, 431616, Note_on_c, 12, 76, 119
20, 431632, Note_off_c, 12, 64, 0
20, 431632, Note_on_c, 12, 66, 121
20, 431648, Note_off_c, 12, 66, 0
20, 431648, Note_off_c, 12, 76, 0
20, 431648, Note_on_c, 12, 68, 119
20, 431648, Note_on_c, 12, 78, 124
20, 431664, Note_off_c, 12, 68, 0
20, 431664, Note_on_c, 12, 69, 122
20, 431680, Note_off_c, 12, 69, 0
20, 431680, Note_off_c, 12, 78, 0
20, 431680, Note_on_c, 12, 71, 120
20, 431680, Note_on_c, 12, 80, 120
20, 431696, Note_off_c, 12, 71, 0
20, 431696, Note_on_c, 12, 72, 116
20, 431712, Note_off_c, 12, 72, 0
20, 431712, Note_off_c, 12, 80, 0
20, 431712, Note_on_c, 12, 74, 121
20, 431712, Note_on_c, 12, 81, 114
20, 431728, Note_off_c, 12, 74, 0
20, 431728, Note_on_c, 12, 76, 119
20, 431744, Note_off_c, 12, 76, 0
20, 431744, Note_off_c, 12, 81, 0
20, 431744, Note_on_c, 12, 78, 118
20, 431744, Note_on_c, 12, 42, 98
20, 431774, Note_off_c, 12, 78, 0
20, 431776, Note_off_c, 12, 42, 0
20, 431776, Note_on_c, 12, 44, 116
20, 431808, Note_off_c, 12, 44, 0
20, 431808, Note_on_c, 12, 45, 114
20, 431840, Note_off_c, 12, 45, 0
20, 431840, Note_on_c, 12, 47, 115
20, 431872, Note_off_c, 12, 47, 0
20, 431872, Note_on_c, 12, 48, 118
20, 431904, Note_off_c, 12, 48, 0
20, 431904, Note_on_c, 12, 50, 118
20, 431936, Note_off_c, 12, 50, 0
20, 431936, Note_on_c, 12, 52, 112
20, 431968, Note_off_c, 12, 52, 0
20, 431968, Note_on_c, 12, 54, 114
20, 432000, Note_off_c, 12, 54, 0
20, 432000, Note_on_c, 12, 56, 115
20, 432032, Note_off_c, 12, 56, 0
20, 432032, Note_on_c, 12, 57, 113
20, 432064, Note_off_c, 12, 57, 0
20, 432064, Note_on_c, 12, 59, 116
20, 432096, Note_off_c, 12, 59, 0
20, 432096, Note_on_c, 12, 60, 120
20, 432128, Note_off_c, 12, 60, 0
20, 432128, Note_on_c, 12, 62, 118
20, 432160, Note_off_c, 12, 62, 0
20, 432160, Note_on_c, 12, 64, 124
20, 432192, Note_off_c, 12, 64, 0
20, 432192, Note_on_c, 12, 66, 125
20, 432224, Note_off_c, 12, 66, 0
20, 432224, Note_on_c, 12, 68, 121
20, 432256, Note_off_c, 12, 68, 0
20, 432256, Note_on_c, 12, 42, 98
20, 432256, Note_on_c, 12, 69, 124
20, 432288, Note_off_c, 12, 42, 0
20, 432288, Note_off_c, 12, 69, 0
20, 432288, Note_on_c, 12, 44, 117
20, 432288, Note_on_c, 12, 71, 120
20, 432320, Note_off_c, 12, 44, 0
20, 432320, Note_off_c, 12, 71, 0
20, 432320, Note_on_c, 12, 45, 111
20, 432320, Note_on_c, 12, 72, 122
20, 432352, Note_off_c, 12, 45, 0
20, 432352, Note_off_c, 12, 72, 0
20, 432352, Note_on_c, 12, 47, 119
20, 432352, Note_on_c, 12, 74, 125
20, 432384, Note_off_c, 12, 47, 0
20, 432384, Note_off_c, 12, 74, 0
20, 432384, Note_on_c, 12, 48, 116
20, 432384, Note_on_c, 12, 76, 120
20, 432416, Note_off_c, 12, 48, 0
20, 432416, Note_off_c, 12, 76, 0
20, 432416, Note_on_c, 12, 50, 120
20, 432416, Note_on_c, 12, 78, 121
20, 432448, Note_off_c, 12, 50, 0
20, 432448, Note_off_c, 12, 78, 0
20, 432448, Note_on_c, 12, 52, 118
20, 432448, Note_on_c, 12, 80, 123
20, 432480, Note_off_c, 12, 52, 0
20, 432480, Note_off_c, 12, 80, 0
20, 432480, Note_on_c, 12, 54, 113
20, 432480, Note_on_c, 12, 81, 120
20, 432512, Note_off_c, 12, 54, 0
20, 432512, Note_off_c, 12, 81, 0
20, 432512, Note_on_c, 12, 56, 115
20, 432512, Note_on_c, 12, 83, 124
20, 432542, Note_off_c, 12, 83, 0
20, 432544, Note_off_c, 12, 56, 0
20, 432544, Note_on_c, 12, 57, 117
20, 432576, Note_off_c, 12, 57, 0
20, 432576, Note_on_c, 12, 59, 118
20, 432608, Note_off_c, 12, 59, 0
20, 432608, Note_on_c, 12, 60, 123
20, 432640, Note_off_c, 12, 60, 0
20, 432640, Note_on_c, 12, 62, 121
20, 432640, Note_on_c, 12, 64, 107
20, 432672, Note_off_c, 12, 62, 0
20, 432672, Note_off_c, 12, 64, 0
20, 432672, Note_on_c, 12, 64, 125
20, 432672, Note_on_c, 12, 66, 118
20, 432704, Note_off_c, 12, 64, 0
20, 432704, Note_off_c, 12, 66, 0
20, 432704, Note_on_c, 12, 66, 121
20, 432704, Note_on_c, 12, 68, 121
20, 432736, Note_off_c, 12, 66, 0
20, 432736, Note_off_c, 12, 68, 0
20, 432736, Note_on_c, 12, 68, 122
20, 432736, Note_on_c, 12, 69, 119
20, 432768, Note_off_c, 12, 68, 0
20, 432768, Note_off_c, 12, 69, 0
20, 432768, Note_on_c, 12, 69, 119
20, 432768, Note_on_c, 12, 71, 127
20, 432800, Note_off_c, 12, 69, 0
20, 432800, Note_off_c, 12, 71, 0
20, 432800, Note_on_c, 12, 71, 116
20, 432800, Note_on_c, 12, 72, 120
20, 432832, Note_off_c, 12, 71, 0
20, 432832, Note_off_c, 12, 72, 0
20, 432832, Note_on_c, 12, 72, 118
20, 432832, Note_on_c, 12, 74, 118
20, 432864, Note_off_c, 12, 72, 0
20, 432864, Note_off_c, 12, 74, 0
20, 432864, Note_on_c, 12, 74, 118
20, 432864, Note_on_c, 12, 76, 122
20, 432894, Note_off_c, 12, 74, 0
20, 432896, Note_off_c, 12, 76, 0
20, 432896, Note_on_c, 12, 78, 118
20, 432928, Note_off_c, 12, 78, 0
20, 432928, Note_on_c, 12, 80, 123
20, 432960, Note_off_c, 12, 80, 0
20, 432960, Note_on_c, 12, 81, 118
20, 432992, Note_off_c, 12, 81, 0
20, 432992, Note_on_c, 12, 83, 119
20, 433024, Note_off_c, 12, 83, 0
20, 433024, Note_on_c, 12, 84, 117
20, 433056, Note_off_c, 12, 84, 0
20, 433056, Note_on_c, 12, 86, 120
20, 433088, Note_off_c, 12, 86, 0
20, 433088, Note_on_c, 12, 88, 121
20, 433120, Note_off_c, 12, 88, 0
20, 433120, Note_on_c, 12, 90, 121
20, 433152, Note_off_c, 12, 90, 0
20, 433152, Note_on_c, 12, 48, 101
20, 433152, Note_on_c, 12, 92, 118
20, 433184, Note_off_c, 12, 48, 0
20, 433184, Note_off_c, 12, 92, 0
20, 433184, Note_on_c, 12, 50, 117
20, 433184, Note_on_c, 12, 93, 122
20, 433216, Note_off_c, 12, 50, 0
20, 433216, Note_off_c, 12, 93, 0
20, 433216, Note_on_c, 12, 52, 119
20, 433216, Note_on_c, 12, 95, 119
20, 433248, Note_off_c, 12, 52, 0
20, 433248, Note_off_c, 12, 95, 0
20, 433248, Note_on_c, 12, 54, 119
20, 433248, Note_on_c, 12, 96, 118
20, 433278, Note_off_c, 12, 96, 0
20, 433280, Note_off_c, 12, 54, 0
20, 433280, Note_on_c, 12, 56, 118
20, 433312, Note_off_c, 12, 56, 0
20, 433312, Note_on_c, 12, 57, 119
20, 433344, Note_off_c, 12, 57, 0
20, 433344, Note_on_c, 12, 59, 115
20, 433376, Note_off_c, 12, 59, 0
20, 433376, Note_on_c, 12, 60, 116
20, 433408, Note_off_c, 12, 60, 0
20, 433408, Note_on_c, 12, 62, 123
20, 433408, Note_on_c, 12, 50, 101
20, 433440, Note_off_c, 12, 62, 0
20, 433440, Note_off_c, 12, 50, 0
20, 433440, Note_on_c, 12, 64, 124
20, 433440, Note_on_c, 12, 52, 114
20, 433472, Note_off_c, 12, 64, 0
20, 433472, Note_off_c, 12, 52, 0
20, 433472, Note_on_c, 12, 66, 122
20, 433472, Note_on_c, 12, 54, 116
20, 433504, Note_off_c, 12, 66, 0
20, 433504, Note_off_c, 12, 54, 0
20, 433504, Note_on_c, 12, 68, 118
20, 433504, Note_on_c, 12, 56, 114
20, 433536, Note_off_c, 12, 68, 0
20, 433536, Note_off_c, 12, 56, 0
20, 433536, Note_on_c, 12, 69, 116
20, 433536, Note_on_c, 12, 57, 119
20, 433568, Note_off_c, 12, 69, 0
20, 433568, Note_off_c, 12, 57, 0
20, 433568, Note_on_c, 12, 71, 123
20, 433568, Note_on_c, 12, 59, 116
20, 433600, Note_off_c, 12, 71, 0
20, 433600, Note_off_c, 12, 59, 0
20, 433600, Note_on_c, 12, 72, 122
20, 433600, Note_on_c, 12, 60, 114
20, 433632, Note_off_c, 12, 72, 0
20, 433632, Note_off_c, 12, 60, 0
20, 433632, Note_on_c, 12, 74, 116
20, 433632, Note_on_c, 12, 62, 120
20, 433664, Note_off_c, 12, 74, 0
20, 433664, Note_off_c, 12, 62, 0
20, 433664, Note_on_c, 12, 76, 113
20, 433664, Note_on_c, 12, 64, 121
20, 433694, Note_off_c, 12, 76, 0
20, 433696, Note_off_c, 12, 64, 0
20, 433696, Note_on_c, 12, 66, 122
20, 433728, Note_off_c, 12, 66, 0
20, 433728, Note_on_c, 12, 68, 121
20, 433760, Note_off_c, 12, 68, 0
20, 433760, Note_on_c, 12, 69, 115
20, 433792, Note_off_c, 12, 69, 0
20, 433792, Note_on_c, 12, 71, 121
20, 433824, Note_off_c, 12, 71, 0
20, 433824, Note_on_c, 12, 72, 122
20, 433856, Note_off_c, 12, 72, 0
20, 433856, Note_on_c, 12, 74, 118
20, 433888, Note_off_c, 12, 74, 0
20, 433888, Note_on_c, 12, 76, 120
20, 433920, Note_off_c, 12, 76, 0
20, 433920, Note_on_c, 12, 42, 106
20, 433920, Note_on_c, 12, 78, 119
20, 433952, Note_off_c, 12, 42, 0
20, 433952, Note_off_c, 12, 78, 0
20, 433952, Note_on_c, 12, 44, 117
20, 433952, Note_on_c, 12, 80, 126
20, 433984, Note_off_c, 12, 44, 0
20, 433984, Note_off_c, 12, 80, 0
20, 433984, Note_on_c, 12, 45, 108
20, 433984, Note_on_c, 12, 81, 114
20, 434016, Note_off_c, 12, 45, 0
20, 434016, Note_off_c, 12, 81, 0
20, 434016, Note_on_c, 12, 47, 113
20, 434016, Note_on_c, 12, 83, 123
20, 434048, Note_off_c, 12, 47, 0
20, 434048, Note_off_c, 12, 83, 0
20, 434048, Note_on_c, 12, 48, 115
20, 434048, Note_on_c, 12, 84, 121
20, 434080, Note_off_c, 12, 48, 0
20, 434080, Note_off_c, 12, 84, 0
20, 434080, Note_on_c, 12, 50, 112
20, 434080, Note_on_c, 12, 86, 121
20, 434112, Note_off_c, 12, 50, 0
20, 434112, Note_off_c, 12, 86, 0
20, 434112, Note_on_c, 12, 52, 123
20, 434112, Note_on_c, 12, 88, 120
20, 434144, Note_off_c, 12, 52, 0
20, 434144, Note_off_c, 12, 88, 0
20, 434144, Note_on_c, 12, 54, 115
20, 434144, Note_on_c, 12, 90, 122
20, 434174, Note_off_c, 12, 90, 0
20, 434176, Note_off_c, 12, 54, 0
20, 434176, Note_on_c, 12, 56, 119
20, 434208, Note_off_c, 12, 56, 0
20, 434208, Note_on_c, 12, 57, 116
20, 434240, Note_off_c, 12, 57, 0
20, 434240, Note_on_c, 12, 59, 117
20, 434272, Note_off_c, 12, 59, 0
20, 434272, Note_on_c, 12, 60, 118
20, 434304, Note_off_c, 12, 60, 0
20, 434304, Note_on_c, 12, 62, 123
20, 434304, Note_on_c, 12, 54, 104
20, 434336, Note_off_c, 12, 62, 0
20, 434336, Note_off_c, 12, 54, 0
20, 434336, Note_on_c, 12, 64, 120
20, 434336, Note_on_c, 12, 56, 116
20, 434368, Note_off_c, 12, 64, 0
20, 434368, Note_off_c, 12, 56, 0
20, 434368, Note_on_c, 12, 66, 124
20, 434368, Note_on_c, 12, 57, 117
20, 434400, Note_off_c, 12, 66, 0
20, 434400, Note_off_c, 12, 57, 0
20, 434400, Note_on_c, 12, 68, 118
20, 434400, Note_on_c, 12, 59, 116
20, 434432, Note_off_c, 12, 68, 0
20, 434432, Note_off_c, 12, 59, 0
20, 434432, Note_on_c, 12, 54, 96
20, 434432, Note_on_c, 12, 60, 119
20, 434464, Note_off_c, 12, 54, 0
20, 434464, Note_off_c, 12, 60, 0
20, 434464, Note_on_c, 12, 56, 113
20, 434464, Note_on_c, 12, 62, 119
20, 434496, Note_off_c, 12, 56, 0
20, 434496, Note_off_c, 12, 62, 0
20, 434496, Note_on_c, 12, 57, 119
20, 434496, Note_on_c, 12, 64, 121
20, 434528, Note_off_c, 12, 57, 0
20, 434528, Note_off_c, 12, 64, 0
20, 434528, Note_on_c, 12, 59, 116
20, 434528, Note_on_c, 12, 66, 116
20, 434560, Note_off_c, 12, 59, 0
20, 434560, Note_off_c, 12, 66, 0
20, 434560, Note_on_c, 12, 60, 120
20, 434560, Note_on_c, 12, 68, 120
20, 434592, Note_off_c, 12, 60, 0
20, 434592, Note_off_c, 12, 68, 0
20, 434592, Note_on_c, 12, 62, 125
20, 434592, Note_on_c, 12, 69, 121
20, 434624, Note_off_c, 12, 62, 0
20, 434624, Note_off_c, 12, 69, 0
20, 434624, Note_on_c, 12, 64, 122
20, 434624, Note_on_c, 12, 71, 117
20, 434656, Note_off_c, 12, 64, 0
20, 434656, Note_off_c, 12, 71, 0
20, 434656, Note_on_c, 12, 66, 119
20, 434656, Note_on_c, 12, 72, 116
20, 434688, Note_off_c, 12, 66, 0
20, 434688, Note_off_c, 12, 72, 0
20, 434688, Note_on_c, 12, 68, 125
20, 434688, Note_on_c, 12, 74, 121
20, 434720, Note_off_c, 12, 68, 0
20, 434720, Note_off_c, 12, 74, 0
20, 434720, Note_on_c, 12, 69, 119
20, 434720, Note_on_c, 12, 76, 122
20, 434752, Note_off_c, 12, 69, 0
20, 434752, Note_off_c, 12, 76, 0
20, 434752, Note_on_c, 12, 71, 126
20, 434752, Note_on_c, 12, 78, 126
20, 434784, Note_off_c, 12, 71, 0
20, 434784, Note_off_c, 12, 78, 0
20, 434784, Note_on_c, 12, 72, 121
20, 434784, Note_on_c, 12, 80, 123
20, 434816, Note_off_c, 12, 72, 0
20, 434816, Note_off_c, 12, 80, 0
20, 434816, Note_on_c, 12, 74, 119
20, 434816, Note_on_c, 12, 81, 127
20, 434848, Note_off_c, 12, 74, 0
20, 434848, Note_off_c, 12, 81, 0
20, 434848, Note_on_c, 12, 76, 120
20, 434848, Note_on_c, 12, 83, 123
20, 434880, Note_off_c, 12, 76, 0
20, 434880, Note_off_c, 12, 83, 0
20, 434880, Note_on_c, 12, 77, 121
20, 434880, Note_on_c, 12, 84, 123
20, 434912, Note_off_c, 12, 77, 0
20, 434912, Note_off_c, 12, 84, 0
20, 434912, Note_on_c, 12, 80, 124
20, 434912, Note_on_c, 12, 86, 123
20, 434942, Note_off_c, 12, 86, 0
20, 434944, Note_off_c, 12, 80, 0
20, 434944, Note_on_c, 12, 68, 85
20, 434976, Note_off_c, 12, 68, 0
20, 434976, Note_on_c, 12, 69, 111
20, 435008, Note_off_c, 12, 69, 0
20, 435008, Note_on_c, 12, 71, 124
20, 435040, Note_off_c, 12, 71, 0
20, 435040, Note_on_c, 12, 72, 121
20, 435072, Note_off_c, 12, 72, 0
20, 435072, Note_on_c, 12, 74, 122
20, 435072, Note_on_c, 12, 68, 99
20, 435104, Note_off_c, 12, 74, 0
20, 435104, Note_off_c, 12, 68, 0
20, 435104, Note_on_c, 12, 76, 120
20, 435104, Note_on_c, 12, 69, 118
20, 435136, Note_off_c, 12, 76, 0
20, 435136, Note_off_c, 12, 69, 0
20, 435136, Note_on_c, 12, 78, 121
20, 435136, Note_on_c, 12, 71, 117
20, 435168, Note_off_c, 12, 78, 0
20, 435168, Note_off_c, 12, 71, 0
20, 435168, Note_on_c, 12, 80, 119
20, 435168, Note_on_c, 12, 72, 118
20, 435200, Note_off_c, 12, 80, 0
20, 435200, Note_off_c, 12, 72, 0
20, 435200, Note_on_c, 12, 81, 117
20, 435200, Note_on_c, 12, 74, 119
20, 435232, Note_off_c, 12, 81, 0
20, 435232, Note_off_c, 12, 74, 0
20, 435232, Note_on_c, 12, 83, 117
20, 435232, Note_on_c, 12, 76, 123
20, 435264, Note_off_c, 12, 83, 0
20, 435264, Note_off_c, 12, 76, 0
20, 435264, Note_on_c, 12, 84, 121
20, 435264, Note_on_c, 12, 78, 122
20, 435296, Note_off_c, 12, 84, 0
20, 435296, Note_off_c, 12, 78, 0
20, 435296, Note_on_c, 12, 86, 117
20, 435296, Note_on_c, 12, 80, 116
20, 435328, Note_off_c, 12, 86, 0
20, 435328, Note_off_c, 12, 80, 0
20, 435328, Note_on_c, 12, 88, 122
20, 435328, Note_on_c, 12, 68, 82
20, 435360, Note_off_c, 12, 88, 0
20, 435360, Note_off_c, 12, 68, 0
20, 435360, Note_on_c, 12, 90, 125
20, 435360, Note_on_c, 12, 69, 113
20, 435392, Note_off_c, 12, 90, 0
20, 435392, Note_off_c, 12, 69, 0
20, 435392, Note_on_c, 12, 92, 121
20, 435392, Note_on_c, 12, 71, 118
20, 435424, Note_off_c, 12, 92, 0
20, 435424, Note_off_c, 12, 71, 0
20, 435424, Note_on_c, 12, 93, 119
20, 435424, Note_on_c, 12, 72, 117
20, 435454, Note_off_c, 12, 93, 0
20, 435456, Note_off_c, 12, 72, 0
20, 435456, Note_on_c, 12, 74, 119
20, 435488, Note_off_c, 12, 74, 0
20, 435488, Note_on_c, 12, 76, 126
20, 435520, Note_off_c, 12, 76, 0
20, 435520, Note_on_c, 12, 78, 119
20, 435552, Note_off_c, 12, 78, 0
20, 435552, Note_on_c, 12, 80, 121
20, 435584, Note_off_c, 12, 80, 0
20, 435584, Note_on_c, 12, 81, 118
20, 435616, Note_off_c, 12, 81, 0
20, 435616, Note_on_c, 12, 83, 122
20, 435648, Note_off_c, 12, 83, 0
20, 435648, Note_on_c, 12, 84, 120
20, 435680, Note_off_c, 12, 84, 0
20, 435680, Note_on_c, 12, 86, 118
20, 435712, Note_off_c, 12, 86, 0
20, 435712, Note_on_c, 12, 50, 102
20, 435712, Note_on_c, 12, 88, 115
20, 435744, Note_off_c, 12, 50, 0
20, 435744, Note_on_c, 12, 52, 115
20, 435754, Note_off_c, 12, 88, 0
20, 435754, Note_on_c, 12, 90, 126
20, 435776, Note_off_c, 12, 52, 0
20, 435776, Note_on_c, 12, 54, 114
20, 435797, Note_off_c, 12, 90, 0
20, 435797, Note_on_c, 12, 92, 127
20, 435808, Note_off_c, 12, 54, 0
20, 435808, Note_on_c, 12, 56, 116
20, 435837, Note_off_c, 12, 92, 0
20, 435840, Note_off_c, 12, 56, 0
20, 435840, Note_on_c, 12, 57, 117
20, 435872, Note_off_c, 12, 57, 0
20, 435872, Note_on_c, 12, 59, 112
20, 435904, Note_off_c, 12, 59, 0
20, 435904, Note_on_c, 12, 60, 122
20, 435936, Note_off_c, 12, 60, 0
20, 435936, Note_on_c, 12, 62, 120
20, 435968, Note_off_c, 12, 62, 0
20, 435968, Note_on_c, 12, 64, 119
20, 436000, Note_off_c, 12, 64, 0
20, 436000, Note_on_c, 12, 66, 123
20, 436032, Note_off_c, 12, 66, 0
20, 436032, Note_on_c, 12, 68, 117
20, 436064, Note_off_c, 12, 68, 0
20, 436064, Note_on_c, 12, 69, 120
20, 436096, Note_off_c, 12, 69, 0
20, 436096, Note_on_c, 12, 71, 119
20, 436096, Note_on_c, 12, 48, 106
20, 436128, Note_off_c, 12, 71, 0
20, 436128, Note_off_c, 12, 48, 0
20, 436128, Note_on_c, 12, 72, 118
20, 436128, Note_on_c, 12, 50, 120
20, 436160, Note_off_c, 12, 72, 0
20, 436160, Note_off_c, 12, 50, 0
20, 436160, Note_on_c, 12, 74, 120
20, 436160, Note_on_c, 12, 52, 116
20, 436192, Note_off_c, 12, 74, 0
20, 436192, Note_off_c, 12, 52, 0
20, 436192, Note_on_c, 12, 76, 120
20, 436192, Note_on_c, 12, 54, 122
20, 436224, Note_off_c, 12, 76, 0
20, 436224, Note_off_c, 12, 54, 0
20, 436224, Note_on_c, 12, 78, 120
20, 436224, Note_on_c, 12, 56, 116
20, 436256, Note_off_c, 12, 78, 0
20, 436256, Note_off_c, 12, 56, 0
20, 436256, Note_on_c, 12, 80, 120
20, 436256, Note_on_c, 12, 57, 114
20, 436288, Note_off_c, 12, 80, 0
20, 436288, Note_off_c, 12, 57, 0
20, 436288, Note_on_c, 12, 81, 121
20, 436288, Note_on_c, 12, 59, 116
20, 436320, Note_off_c, 12, 81, 0
20, 436320, Note_off_c, 12, 59, 0
20, 436320, Note_on_c, 12, 83, 124
20, 436320, Note_on_c, 12, 60, 118
20, 436352, Note_off_c, 12, 83, 0
20, 436352, Note_off_c, 12, 60, 0
20, 436352, Note_on_c, 12, 84, 118
20, 436352, Note_on_c, 12, 62, 120
20, 436384, Note_off_c, 12, 84, 0
20, 436384, Note_off_c, 12, 62, 0
20, 436384, Note_on_c, 12, 86, 121
20, 436384, Note_on_c, 12, 64, 119
20, 436416, Note_off_c, 12, 86, 0
20, 436416, Note_off_c, 12, 64, 0
20, 436416, Note_on_c, 12, 88, 121
20, 436416, Note_on_c, 12, 66, 124
20, 436448, Note_off_c, 12, 88, 0
20, 436448, Note_off_c, 12, 66, 0
20, 436448, Note_on_c, 12, 90, 118
20, 436448, Note_on_c, 12, 68, 122
20, 436480, Note_off_c, 12, 90, 0
20, 436480, Note_off_c, 12, 68, 0
20, 436480, Note_on_c, 12, 62, 82
20, 436480, Note_on_c, 12, 69, 123
20, 436512, Note_off_c, 12, 62, 0
20, 436512, Note_off_c, 12, 69, 0
20, 436512, Note_on_c, 12, 64, 115
20, 436512, Note_on_c, 12, 71, 124
20, 436544, Note_off_c, 12, 64, 0
20, 436544, Note_off_c, 12, 71, 0
20, 436544, Note_on_c, 12, 66, 118
20, 436544, Note_on_c, 12, 72, 120
20, 436576, Note_off_c, 12, 66, 0
20, 436576, Note_off_c, 12, 72, 0
20, 436576, Note_on_c, 12, 67, 122
20, 436576, Note_on_c, 12, 74, 123
20, 436608, Note_off_c, 12, 67, 0
20, 436608, Note_off_c, 12, 74, 0
20, 436608, Note_on_c, 12, 69, 119
20, 436608, Note_on_c, 12, 76, 125
20, 436638, Note_off_c, 12, 76, 0
20, 436640, Note_off_c, 12, 69, 0
20, 436640, Note_on_c, 12, 71, 124
20, 436672, Note_off_c, 12, 71, 0
20, 436672, Note_on_c, 12, 72, 122
20, 436704, Note_off_c, 12, 72, 0
20, 436704, Note_on_c, 12, 74, 120
20, 436736, Note_off_c, 12, 74, 0
20, 436736, Note_on_c, 12, 76, 122
20, 436736, Note_on_c, 12, 68, 106
20, 436768, Note_off_c, 12, 76, 0
20, 436768, Note_off_c, 12, 68, 0
20, 436768, Note_on_c, 12, 78, 123
20, 436768, Note_on_c, 12, 69, 112
20, 436800, Note_off_c, 12, 78, 0
20, 436800, Note_off_c, 12, 69, 0
20, 436800, Note_on_c, 12, 80, 115
20, 436800, Note_on_c, 12, 71, 119
20, 436832, Note_off_c, 12, 80, 0
20, 436832, Note_off_c, 12, 71, 0
20, 436832, Note_on_c, 12, 81, 119
20, 436832, Note_on_c, 12, 72, 122
20, 436864, Note_off_c, 12, 81, 0
20, 436864, Note_off_c, 12, 72, 0
20, 436864, Note_on_c, 12, 83, 122
20, 436864, Note_on_c, 12, 74, 119
20, 436896, Note_off_c, 12, 83, 0
20, 436896, Note_off_c, 12, 74, 0
20, 436896, Note_on_c, 12, 84, 124
20, 436896, Note_on_c, 12, 76, 120
20, 436928, Note_off_c, 12, 84, 0
20, 436928, Note_off_c, 12, 76, 0
20, 436928, Note_on_c, 12, 86, 119
20, 436928, Note_on_c, 12, 78, 116
20, 436960, Note_off_c, 12, 86, 0
20, 436960, Note_off_c, 12, 78, 0
20, 436960, Note_on_c, 12, 88, 115
20, 436960, Note_on_c, 12, 80, 121
20, 436992, Note_off_c, 12, 88, 0
20, 436992, Note_off_c, 12, 80, 0
20, 436992, Note_on_c, 12, 90, 124
20, 436992, Note_on_c, 12, 68, 84
20, 437024, Note_off_c, 12, 90, 0
20, 437024, Note_off_c, 12, 68, 0
20, 437024, Note_on_c, 12, 92, 127
20, 437024, Note_on_c, 12, 69, 115
20, 437056, Note_off_c, 12, 92, 0
20, 437056, Note_off_c, 12, 69, 0
20, 437056, Note_on_c, 12, 93, 119
20, 437056, Note_on_c, 12, 71, 118
20, 437088, Note_off_c, 12, 93, 0
20, 437088, Note_off_c, 12, 71, 0
20, 437088, Note_on_c, 12, 95, 124
20, 437088, Note_on_c, 12, 72, 117
20, 437120, Note_off_c, 12, 95, 0
20, 437120, Note_off_c, 12, 72, 0
20, 437120, Note_on_c, 12, 96, 121
20, 437120, Note_on_c, 12, 74, 118
20, 437152, Note_off_c, 12, 96, 0
20, 437152, Note_off_c, 12, 74, 0
20, 437152, Note_on_c, 12, 98, 122
20, 437152, Note_on_c, 12, 76, 123
20, 437184, Note_off_c, 12, 98, 0
20, 437184, Note_off_c, 12, 76, 0
20, 437184, Note_on_c, 12, 100, 121
20, 437184, Note_on_c, 12, 78, 122
20, 437216, Note_off_c, 12, 100, 0
20, 437216, Note_off_c, 12, 78, 0
20, 437216, Note_on_c, 12, 102, 121
20, 437216, Note_on_c, 12, 80, 124
20, 437248, Note_off_c, 12, 102, 0
20, 437248, Note_off_c, 12, 80, 0
20, 437248, Note_on_c, 12, 68, 81
20, 437248, Note_on_c, 12, 81, 116
20, 437280, Note_off_c, 12, 68, 0
20, 437280, Note_off_c, 12, 81, 0
20, 437280, Note_on_c, 12, 69, 115
20, 437280, Note_on_c, 12, 83, 121
20, 437312, Note_off_c, 12, 69, 0
20, 437312, Note_off_c, 12, 83, 0
20, 437312, Note_on_c, 12, 71, 124
20, 437312, Note_on_c, 12, 84, 119
20, 437344, Note_off_c, 12, 71, 0
20, 437344, Note_off_c, 12, 84, 0
20, 437344, Note_on_c, 12, 72, 118
20, 437344, Note_on_c, 12, 86, 121
20, 437376, Note_off_c, 12, 72, 0
20, 437376, Note_off_c, 12, 86, 0
20, 437376, Note_on_c, 12, 74, 116
20, 437376, Note_on_c, 12, 88, 123
20, 437408, Note_off_c, 12, 74, 0
20, 437408, Note_off_c, 12, 88, 0
20, 437408, Note_on_c, 12, 76, 121
20, 437408, Note_on_c, 12, 90, 121
20, 437440, Note_off_c, 12, 76, 0
20, 437440, Note_off_c, 12, 90, 0
20, 437440, Note_on_c, 12, 78, 124
20, 437440, Note_on_c, 12, 92, 123
20, 437472, Note_off_c, 12, 78, 0
20, 437472, Note_off_c, 12, 92, 0
20, 437472, Note_on_c, 12, 80, 121
20, 437472, Note_on_c, 12, 93, 117
20, 437502, Note_off_c, 12, 93, 0
20, 437504, Note_off_c, 12, 80, 0
20, 437504, Note_on_c, 12, 68, 83
20, 437536, Note_off_c, 12, 68, 0
20, 437536, Note_on_c, 12, 69, 113
20, 437568, Note_off_c, 12, 69, 0
20, 437568, Note_on_c, 12, 71, 118
20, 437600, Note_off_c, 12, 71, 0
20, 437600, Note_on_c, 12, 72, 120
20, 437632, Note_off_c, 12, 72, 0
20, 437632, Note_on_c, 12, 74, 121
20, 437632, Note_on_c, 12, 64, 99
20, 437664, Note_off_c, 12, 74, 0
20, 437664, Note_off_c, 12, 64, 0
20, 437664, Note_on_c, 12, 76, 119
20, 437664, Note_on_c, 12, 66, 122
20, 437696, Note_off_c, 12, 76, 0
20, 437696, Note_off_c, 12, 66, 0
20, 437696, Note_on_c, 12, 78, 122
20, 437696, Note_on_c, 12, 68, 120
20, 437728, Note_off_c, 12, 78, 0
20, 437728, Note_off_c, 12, 68, 0
20, 437728, Note_on_c, 12, 80, 124
20, 437728, Note_on_c, 12, 69, 122
20, 437760, Note_off_c, 12, 80, 0
20, 437760, Note_off_c, 12, 69, 0
20, 437760, Note_on_c, 12, 81, 121
20, 437760, Note_on_c, 12, 71, 120
20, 437792, Note_off_c, 12, 81, 0
20, 437792, Note_off_c, 12, 71, 0
20, 437792, Note_on_c, 12, 83, 119
20, 437792, Note_on_c, 12, 72, 123
20, 437824, Note_off_c, 12, 83, 0
20, 437824, Note_off_c, 12, 72, 0
20, 437824, Note_on_c, 12, 84, 122
20, 437824, Note_on_c, 12, 74, 121
20, 437856, Note_off_c, 12, 84, 0
20, 437856, Note_off_c, 12, 74, 0
20, 437856, Note_on_c, 12, 86, 122
20, 437856, Note_on_c, 12, 76, 118
20, 437888, Note_off_c, 12, 86, 0
20, 437888, Note_off_c, 12, 76, 0
20, 437888, Note_on_c, 12, 88, 121
20, 437888, Note_on_c, 12, 78, 120
20, 437920, Note_off_c, 12, 88, 0
20, 437920, Note_off_c, 12, 78, 0
20, 437920, Note_on_c, 12, 90, 119
20, 437920, Note_on_c, 12, 80, 121
20, 437952, Note_off_c, 12, 90, 0
20, 437952, Note_off_c, 12, 80, 0
20, 437952, Note_on_c, 12, 92, 124
20, 437952, Note_on_c, 12, 81, 119
20, 437984, Note_off_c, 12, 92, 0
20, 437984, Note_off_c, 12, 81, 0
20, 437984, Note_on_c, 12, 93, 120
20, 437984, Note_on_c, 12, 83, 124
20, 438014, Note_off_c, 12, 93, 0
20, 438016, Note_off_c, 12, 83, 0
20, 438016, Note_on_c, 12, 84, 121
20, 438048, Note_off_c, 12, 84, 0
20, 438048, Note_on_c, 12, 86, 122
20, 438080, Note_off_c, 12, 86, 0
20, 438080, Note_on_c, 12, 88, 121
20, 438112, Note_off_c, 12, 88, 0
20, 438112, Note_on_c, 12, 90, 120
20, 438142, Note_off_c, 12, 90, 0
20, 438143, End_track
21, 0, Start_track
21, 0, Program_c, 14, 48
21, 0, Control_c, 14, 121, 0
21, 0, Control_c, 14, 64, 0
21, 0, Control_c, 14, 91, 60
21, 0, Control_c, 14, 10, 95
21, 0, Control_c, 14, 7, 95
21, 0, Control_c, 14, 121, 0
21, 0, Control_c, 14, 64, 0
21, 0, Control_c, 14, 91, 60
21, 0, Control_c, 14, 10, 95
21, 0, Control_c, 14, 7, 95
21, 0, Control_c, 14, 121, 0
21, 0, Control_c, 14, 64, 0
21, 0, Control_c, 14, 91, 60
21, 0, Control_c, 14, 10, 95
21, 0, Control_c, 14, 7, 95
21, 0, Control_c, 14, 121, 0
21, 0, Control_c, 14, 64, 0
21, 0, Control_c, 14, 91, 60
21, 0, Control_c, 14, 10, 95
21, 0, Control_c, 14, 7, 95
21, 0, Title_t, "Violoncello"
21, 19008, Note_on_c, 14, 53, 73
21, 19072, Note_on_c, 14, 56, 70
21, 19073, Note_off_c, 14, 53, 0
21, 19264, Note_on_c, 14, 58, 85
21, 19267, Note_off_c, 14, 56, 0
21, 19328, Note_on_c, 14, 68, 103
21, 19329, Note_off_c, 14, 58, 0
21, 19520, Note_on_c, 14, 60, 74
21, 19523, Note_off_c, 14, 68, 0
21, 19884, Note_off_c, 14, 60, 0
21, 19904, Note_on_c, 14, 68, 95
21, 20032, Note_on_c, 14, 73, 108
21, 20034, Note_off_c, 14, 68, 0
21, 20096, Note_on_c, 14, 64, 64
21, 20097, Note_off_c, 14, 73, 0
21, 20288, Note_on_c, 14, 61, 57
21, 20291, Note_off_c, 14, 64, 0
21, 20416, Note_on_c, 14, 60, 80
21, 20418, Note_off_c, 14, 61, 0
21, 20480, Note_off_c, 14, 60, 0
21, 20480, Note_on_c, 14, 60, 84
21, 20544, Note_on_c, 14, 61, 88
21, 20545, Note_off_c, 14, 60, 0
21, 20672, Note_on_c, 14, 63, 92
21, 20674, Note_off_c, 14, 61, 0
21, 20800, Note_on_c, 14, 59, 86
21, 20802, Note_off_c, 14, 63, 0
21, 20982, Note_off_c, 14, 59, 0
21, 20992, Note_on_c, 14, 58, 80
21, 21056, Note_on_c, 14, 60, 86
21, 21057, Note_off_c, 14, 58, 0
21, 21184, Note_on_c, 14, 61, 87
21, 21186, Note_off_c, 14, 60, 0
21, 21248, Note_on_c, 14, 70, 107
21, 21249, Note_off_c, 14, 61, 0
21, 21440, Note_on_c, 14, 58, 80
21, 21443, Note_off_c, 14, 70, 0
21, 21824, Note_off_c, 14, 58, 0
21, 21845, Note_on_c, 14, 49, 74
21, 21930, Note_on_c, 14, 58, 81
21, 21931, Note_off_c, 14, 49, 0
21, 22101, Note_on_c, 14, 68, 102
21, 22104, Note_off_c, 14, 58, 0
21, 22336, Note_on_c, 14, 65, 95
21, 22340, Note_off_c, 14, 68, 0
21, 22592, Note_on_c, 14, 63, 75
21, 22597, Note_off_c, 14, 65, 0
21, 22713, Note_off_c, 14, 63, 0
21, 22720, Note_on_c, 14, 62, 82
21, 22784, Note_on_c, 14, 60, 77
21, 22785, Note_off_c, 14, 62, 0
21, 22912, Note_on_c, 14, 58, 79
21, 22914, Note_off_c, 14, 60, 0
21, 22976, Note_on_c, 14, 57, 77
21, 22977, Note_off_c, 14, 58, 0
21, 23125, Note_on_c, 14, 53, 81
21, 23127, Note_off_c, 14, 57, 0
21, 23409, Note_off_c, 14, 53, 0
21, 23424, Note_on_c, 14, 49, 80
21, 23488, Note_on_c, 14, 50, 80
21, 23489, Note_off_c, 14, 49, 0
21, 23609, Note_off_c, 14, 50, 0
21, 23616, Note_on_c, 14, 52, 89
21, 23680, Note_on_c, 14, 67, 111
21, 23681, Note_off_c, 14, 52, 0
21, 23893, Note_on_c, 14, 65, 78
21, 23897, Note_off_c, 14, 67, 0
21, 24177, Note_off_c, 14, 65, 0
21, 24192, Note_on_c, 14, 52, 73
21, 24256, Note_on_c, 14, 54, 73
21, 24257, Note_off_c, 14, 52, 0
21, 24377, Note_off_c, 14, 54, 0
21, 24384, Note_on_c, 14, 56, 83
21, 24448, Note_on_c, 14, 64, 101
21, 24449, Note_off_c, 14, 56, 0
21, 24661, Note_on_c, 14, 62, 77
21, 24665, Note_off_c, 14, 64, 0
21, 24884, Note_off_c, 14, 62, 0
21, 24896, Note_on_c, 14, 57, 76
21, 24960, Note_on_c, 14, 58, 74
21, 24961, Note_off_c, 14, 57, 0
21, 25142, Note_off_c, 14, 58, 0
21, 25152, Note_on_c, 14, 60, 89
21, 25216, Note_on_c, 14, 70, 102
21, 25217, Note_off_c, 14, 60, 0
21, 25429, Note_on_c, 14, 62, 51
21, 25433, Note_off_c, 14, 70, 0
21, 25664, Note_on_c, 14, 58, 38
21, 25668, Note_off_c, 14, 62, 0
21, 26332, Note_off_c, 14, 58, 0
21, 26368, Note_on_c, 14, 68, 88
21, 26496, Note_on_c, 14, 70, 96
21, 26498, Note_off_c, 14, 68, 0
21, 26560, Note_on_c, 14, 67, 63
21, 26561, Note_off_c, 14, 70, 0
21, 26688, Note_on_c, 14, 65, 62
21, 26690, Note_off_c, 14, 67, 0
21, 26816, Note_on_c, 14, 63, 65
21, 26818, Note_off_c, 14, 65, 0
21, 26880, Note_on_c, 14, 61, 59
21, 26881, Note_off_c, 14, 63, 0
21, 27001, Note_off_c, 14, 61, 0
21, 27008, Note_on_c, 14, 60, 69
21, 27072, Note_on_c, 14, 61, 77
21, 27073, Note_off_c, 14, 60, 0
21, 27136, Note_on_c, 14, 58, 65
21, 27137, Note_off_c, 14, 61, 0
21, 27200, Note_on_c, 14, 56, 63
21, 27201, Note_off_c, 14, 58, 0
21, 27328, Note_on_c, 14, 58, 75
21, 27330, Note_off_c, 14, 56, 0
21, 27392, Note_on_c, 14, 55, 70
21, 27393, Note_off_c, 14, 58, 0
21, 27520, Note_on_c, 14, 53, 71
21, 27522, Note_off_c, 14, 55, 0
21, 27702, Note_off_c, 14, 53, 0
21, 27712, Note_on_c, 14, 51, 71
21, 27776, Note_on_c, 14, 53, 73
21, 27777, Note_off_c, 14, 51, 0
21, 27840, Note_on_c, 14, 49, 68
21, 27841, Note_off_c, 14, 53, 0
21, 27968, Note_on_c, 14, 39, 60
21, 27970, Note_off_c, 14, 49, 0
21, 28150, Note_off_c, 14, 39, 0
21, 28288, Note_on_c, 14, 48, 66
21, 28352, Note_on_c, 14, 50, 69
21, 28353, Note_off_c, 14, 48, 0
21, 28416, Note_on_c, 14, 46, 63
21, 28417, Note_off_c, 14, 50, 0
21, 28480, Note_on_c, 14, 45, 62
21, 28481, Note_off_c, 14, 46, 0
21, 28608, Note_on_c, 14, 46, 73
21, 28610, Note_off_c, 14, 45, 0
21, 28672, Note_on_c, 14, 43, 73
21, 28673, Note_off_c, 14, 46, 0
21, 28800, Note_on_c, 14, 41, 72
21, 28802, Note_off_c, 14, 43, 0
21, 28982, Note_off_c, 14, 41, 0
21, 28992, Note_on_c, 14, 39, 67
21, 29056, Note_on_c, 14, 41, 70
21, 29057, Note_off_c, 14, 39, 0
21, 29120, Note_on_c, 14, 37, 67
21, 29121, Note_off_c, 14, 41, 0
21, 29312, Note_on_c, 14, 47, 76
21, 29315, Note_off_c, 14, 37, 0
21, 29433, Note_off_c, 14, 47, 0
21, 29568, Note_on_c, 14, 37, 63
21, 29696, Note_on_c, 14, 39, 64
21, 29698, Note_off_c, 14, 37, 0
21, 29781, Note_on_c, 14, 40, 71
21, 29782, Note_off_c, 14, 39, 0
21, 29866, Note_on_c, 14, 41, 74
21, 29867, Note_off_c, 14, 40, 0
21, 29952, Note_on_c, 14, 42, 70
21, 29953, Note_off_c, 14, 41, 0
21, 30037, Note_on_c, 14, 57, 82
21, 30038, Note_off_c, 14, 42, 0
21, 30208, Note_on_c, 14, 53, 71
21, 30211, Note_off_c, 14, 57, 0
21, 30531, Note_off_c, 14, 53, 0
21, 30549, Note_on_c, 14, 43, 65
21, 30634, Note_on_c, 14, 44, 67
21, 30635, Note_off_c, 14, 43, 0
21, 30720, Note_on_c, 14, 56, 80
21, 30721, Note_off_c, 14, 44, 0
21, 30805, Note_on_c, 14, 59, 86
21, 30806, Note_off_c, 14, 56, 0
21, 30976, Note_on_c, 14, 51, 63
21, 30979, Note_off_c, 14, 59, 0
21, 31219, Note_off_c, 14, 51, 0
21, 31232, Note_on_c, 14, 41, 68
21, 31424, Note_on_c, 14, 42, 72
21, 31427, Note_off_c, 14, 41, 0
21, 31616, Note_on_c, 14, 44, 76
21, 31619, Note_off_c, 14, 42, 0
21, 31808, Note_on_c, 14, 47, 76
21, 31811, Note_off_c, 14, 44, 0
21, 31990, Note_off_c, 14, 47, 0
21, 32000, Note_on_c, 14, 48, 74
21, 32128, Note_on_c, 14, 51, 78
21, 32130, Note_off_c, 14, 48, 0
21, 32256, Note_on_c, 14, 54, 79
21, 32258, Note_off_c, 14, 51, 0
21, 32377, Note_off_c, 14, 54, 0
21, 32384, Note_on_c, 14, 55, 71
21, 32512, Note_on_c, 14, 61, 88
21, 32514, Note_off_c, 14, 55, 0
21, 32704, Note_on_c, 14, 63, 71
21, 32707, Note_off_c, 14, 61, 0
21, 32832, Note_on_c, 14, 66, 75
21, 32834, Note_off_c, 14, 63, 0
21, 33136, Note_off_c, 14, 66, 0
21, 33344, Note_on_c, 14, 37, 61
21, 33408, Note_on_c, 14, 39, 63
21, 33409, Note_off_c, 14, 37, 0
21, 33529, Note_off_c, 14, 39, 0
21, 33536, Note_on_c, 14, 40, 73
21, 33600, Note_on_c, 14, 55, 81
21, 33601, Note_off_c, 14, 40, 0
21, 33728, Note_on_c, 14, 45, 64
21, 33730, Note_off_c, 14, 55, 0
21, 34032, Note_off_c, 14, 45, 0
21, 34048, Note_on_c, 14, 39, 61
21, 34112, Note_on_c, 14, 43, 61
21, 34113, Note_off_c, 14, 39, 0
21, 34233, Note_off_c, 14, 43, 0
21, 34240, Note_on_c, 14, 44, 82
21, 34304, Note_on_c, 14, 56, 90
21, 34305, Note_off_c, 14, 44, 0
21, 34432, Note_on_c, 14, 57, 74
21, 34434, Note_off_c, 14, 56, 0
21, 34796, Note_off_c, 14, 57, 0
21, 34816, Note_on_c, 14, 37, 64
21, 34880, Note_on_c, 14, 39, 70
21, 34881, Note_off_c, 14, 37, 0
21, 34944, Note_on_c, 14, 40, 72
21, 34945, Note_off_c, 14, 39, 0
21, 35008, Note_on_c, 14, 41, 78
21, 35009, Note_off_c, 14, 40, 0
21, 35136, Note_on_c, 14, 44, 75
21, 35138, Note_off_c, 14, 41, 0
21, 35200, Note_on_c, 14, 37, 70
21, 35201, Note_off_c, 14, 44, 0
21, 35264, Note_on_c, 14, 49, 81
21, 35265, Note_off_c, 14, 37, 0
21, 35385, Note_off_c, 14, 49, 0
21, 35392, Note_on_c, 14, 51, 71
21, 35520, Note_on_c, 14, 52, 72
21, 35522, Note_off_c, 14, 51, 0
21, 35648, Note_on_c, 14, 53, 76
21, 35650, Note_off_c, 14, 52, 0
21, 35769, Note_off_c, 14, 53, 0
21, 35776, Note_on_c, 14, 44, 61
21, 35840, Note_on_c, 14, 56, 67
21, 35841, Note_off_c, 14, 44, 0
21, 36032, Note_on_c, 14, 57, 71
21, 36035, Note_off_c, 14, 56, 0
21, 36288, Note_on_c, 14, 58, 74
21, 36293, Note_off_c, 14, 57, 0
21, 36531, Note_off_c, 14, 58, 0
21, 36544, Note_on_c, 14, 59, 75
21, 36800, Note_on_c, 14, 61, 78
21, 36805, Note_off_c, 14, 59, 0
21, 36992, Note_on_c, 14, 65, 80
21, 36995, Note_off_c, 14, 61, 0
21, 37184, Note_on_c, 14, 67, 84
21, 37187, Note_off_c, 14, 65, 0
21, 37366, Note_off_c, 14, 67, 0
21, 37376, Note_on_c, 14, 69, 80
21, 37760, Note_on_c, 14, 70, 66
21, 37767, Note_off_c, 14, 69, 0
21, 37881, Note_off_c, 14, 70, 0
21, 68608, Note_on_c, 14, 79, 127
21, 68608, Note_on_c, 14, 91, 127
21, 68640, Note_off_c, 14, 79, 0
21, 68640, Note_off_c, 14, 91, 0
21, 68864, Note_on_c, 14, 79, 127
21, 68864, Note_on_c, 14, 91, 127
21, 68896, Note_off_c, 14, 79, 0
21, 68896, Note_off_c, 14, 91, 0
21, 69056, Note_on_c, 14, 79, 127
21, 69056, Note_on_c, 14, 91, 127
21, 69088, Note_off_c, 14, 79, 0
21, 69088, Note_off_c, 14, 91, 0
21, 69248, Note_on_c, 14, 79, 127
21, 69248, Note_on_c, 14, 91, 127
21, 69280, Note_off_c, 14, 79, 0
21, 69280, Note_off_c, 14, 91, 0
21, 69440, Note_on_c, 14, 79, 127
21, 69440, Note_on_c, 14, 91, 127
21, 69472, Note_off_c, 14, 79, 0
21, 69472, Note_off_c, 14, 91, 0
21, 69632, Note_on_c, 14, 79, 127
21, 69632, Note_on_c, 14, 91, 127
21, 69664, Note_off_c, 14, 79, 0
21, 69664, Note_off_c, 14, 91, 0
21, 69824, Note_on_c, 14, 80, 127
21, 69824, Note_on_c, 14, 92, 127
21, 69856, Note_off_c, 14, 80, 0
21, 69856, Note_off_c, 14, 92, 0
21, 70016, Note_on_c, 14, 77, 127
21, 70016, Note_on_c, 14, 89, 127
21, 70048, Note_off_c, 14, 77, 0
21, 70048, Note_off_c, 14, 89, 0
21, 70208, Note_on_c, 14, 75, 127
21, 70208, Note_on_c, 14, 87, 127
21, 70240, Note_off_c, 14, 75, 0
21, 70240, Note_off_c, 14, 87, 0
21, 70400, Note_on_c, 14, 79, 127
21, 70400, Note_on_c, 14, 91, 127
21, 70432, Note_off_c, 14, 79, 0
21, 70432, Note_off_c, 14, 91, 0
21, 70592, Note_on_c, 14, 80, 127
21, 70592, Note_on_c, 14, 92, 127
21, 70624, Note_off_c, 14, 80, 0
21, 70624, Note_off_c, 14, 92, 0
21, 70784, Note_on_c, 14, 77, 127
21, 70784, Note_on_c, 14, 89, 127
21, 70816, Note_off_c, 14, 77, 0
21, 70816, Note_off_c, 14, 89, 0
21, 70976, Note_on_c, 14, 75, 127
21, 70976, Note_on_c, 14, 87, 127
21, 71008, Note_off_c, 14, 75, 0
21, 71008, Note_off_c, 14, 87, 0
21, 71168, Note_on_c, 14, 79, 127
21, 71168, Note_on_c, 14, 91, 127
21, 71200, Note_off_c, 14, 79, 0
21, 71200, Note_off_c, 14, 91, 0
21, 71360, Note_on_c, 14, 80, 127
21, 71360, Note_on_c, 14, 92, 127
21, 71392, Note_off_c, 14, 80, 0
21, 71392, Note_off_c, 14, 92, 0
21, 71552, Note_on_c, 14, 82, 127
21, 71552, Note_on_c, 14, 94, 127
21, 71584, Note_off_c, 14, 82, 0
21, 71584, Note_off_c, 14, 94, 0
21, 71680, Note_on_c, 14, 80, 127
21, 71680, Note_on_c, 14, 92, 127
21, 71712, Note_off_c, 14, 80, 0
21, 71712, Note_off_c, 14, 92, 0
21, 71808, Note_on_c, 14, 82, 127
21, 71808, Note_on_c, 14, 94, 127
21, 71840, Note_off_c, 14, 82, 0
21, 71840, Note_off_c, 14, 94, 0
21, 71936, Note_on_c, 14, 80, 127
21, 71936, Note_on_c, 14, 92, 127
21, 71968, Note_off_c, 14, 80, 0
21, 71968, Note_off_c, 14, 92, 0
21, 72064, Note_on_c, 14, 83, 127
21, 72064, Note_on_c, 14, 95, 127
21, 72096, Note_off_c, 14, 83, 0
21, 72096, Note_off_c, 14, 95, 0
21, 72256, Note_on_c, 14, 83, 127
21, 72256, Note_on_c, 14, 95, 127
21, 72288, Note_off_c, 14, 83, 0
21, 72288, Note_off_c, 14, 95, 0
21, 72448, Note_on_c, 14, 83, 127
21, 72448, Note_on_c, 14, 95, 127
21, 72480, Note_off_c, 14, 83, 0
21, 72480, Note_off_c, 14, 95, 0
21, 72640, Note_on_c, 14, 83, 127
21, 72640, Note_on_c, 14, 95, 127
21, 72672, Note_off_c, 14, 83, 0
21, 72672, Note_off_c, 14, 95, 0
21, 72832, Note_on_c, 14, 82, 127
21, 72832, Note_on_c, 14, 94, 127
21, 72864, Note_off_c, 14, 82, 0
21, 72864, Note_off_c, 14, 94, 0
21, 72960, Note_on_c, 14, 83, 127
21, 72960, Note_on_c, 14, 95, 127
21, 72992, Note_off_c, 14, 83, 0
21, 72992, Note_off_c, 14, 95, 0
21, 73088, Note_on_c, 14, 82, 127
21, 73088, Note_on_c, 14, 94, 127
21, 73120, Note_off_c, 14, 82, 0
21, 73120, Note_off_c, 14, 94, 0
21, 73216, Note_on_c, 14, 83, 127
21, 73216, Note_on_c, 14, 95, 127
21, 73248, Note_off_c, 14, 83, 0
21, 73248, Note_off_c, 14, 95, 0
21, 73344, Note_on_c, 14, 86, 127
21, 73344, Note_on_c, 14, 98, 127
21, 73376, Note_off_c, 14, 86, 0
21, 73376, Note_off_c, 14, 98, 0
21, 73536, Note_on_c, 14, 83, 127
21, 73536, Note_on_c, 14, 95, 127
21, 73568, Note_off_c, 14, 83, 0
21, 73568, Note_off_c, 14, 95, 0
21, 73664, Note_on_c, 14, 82, 127
21, 73664, Note_on_c, 14, 94, 127
21, 73696, Note_off_c, 14, 82, 0
21, 73696, Note_off_c, 14, 94, 0
21, 73792, Note_on_c, 14, 83, 127
21, 73792, Note_on_c, 14, 95, 127
21, 73824, Note_off_c, 14, 83, 0
21, 73824, Note_off_c, 14, 95, 0
21, 73920, Note_on_c, 14, 82, 127
21, 73920, Note_on_c, 14, 94, 127
21, 73952, Note_off_c, 14, 82, 0
21, 73952, Note_off_c, 14, 94, 0
21, 74048, Note_on_c, 14, 86, 127
21, 74048, Note_on_c, 14, 98, 127
21, 74080, Note_off_c, 14, 86, 0
21, 74080, Note_off_c, 14, 98, 0
21, 74240, Note_on_c, 14, 82, 127
21, 74240, Note_on_c, 14, 94, 127
21, 74272, Note_off_c, 14, 82, 0
21, 74272, Note_off_c, 14, 94, 0
21, 74432, Note_on_c, 14, 82, 127
21, 74432, Note_on_c, 14, 94, 127
21, 74464, Note_off_c, 14, 82, 0
21, 74464, Note_off_c, 14, 94, 0
21, 74624, Note_on_c, 14, 82, 127
21, 74624, Note_on_c, 14, 94, 127
21, 74656, Note_off_c, 14, 82, 0
21, 74656, Note_off_c, 14, 94, 0
21, 74816, Note_on_c, 14, 70, 121
21, 74816, Note_on_c, 14, 94, 121
21, 74841, Note_off_c, 14, 70, 0
21, 74841, Note_off_c, 14, 94, 0
21, 74848, Note_on_c, 14, 70, 121
21, 74848, Note_on_c, 14, 94, 121
21, 74873, Note_off_c, 14, 70, 0
21, 74873, Note_off_c, 14, 94, 0
21, 75008, Note_on_c, 14, 70, 123
21, 75008, Note_on_c, 14, 94, 123
21, 75033, Note_off_c, 14, 70, 0
21, 75033, Note_off_c, 14, 94, 0
21, 75040, Note_on_c, 14, 70, 123
21, 75040, Note_on_c, 14, 94, 123
21, 75065, Note_off_c, 14, 70, 0
21, 75065, Note_off_c, 14, 94, 0
21, 75200, Note_on_c, 14, 71, 126
21, 75200, Note_on_c, 14, 95, 126
21, 75225, Note_off_c, 14, 71, 0
21, 75225, Note_off_c, 14, 95, 0
21, 75232, Note_on_c, 14, 71, 126
21, 75232, Note_on_c, 14, 95, 126
21, 75257, Note_off_c, 14, 71, 0
21, 75257, Note_off_c, 14, 95, 0
21, 75328, Note_on_c, 14, 70, 122
21, 75328, Note_on_c, 14, 94, 122
21, 75353, Note_off_c, 14, 70, 0
21, 75353, Note_off_c, 14, 94, 0
21, 75360, Note_on_c, 14, 70, 122
21, 75360, Note_on_c, 14, 94, 122
21, 75385, Note_off_c, 14, 70, 0
21, 75385, Note_off_c, 14, 94, 0
21, 75520, Note_on_c, 14, 71, 124
21, 75520, Note_on_c, 14, 95, 124
21, 75545, Note_off_c, 14, 71, 0
21, 75545, Note_off_c, 14, 95, 0
21, 75552, Note_on_c, 14, 71, 124
21, 75552, Note_on_c, 14, 95, 124
21, 75577, Note_off_c, 14, 71, 0
21, 75577, Note_off_c, 14, 95, 0
21, 75648, Note_on_c, 14, 70, 127
21, 75648, Note_on_c, 14, 94, 127
21, 75673, Note_off_c, 14, 70, 0
21, 75673, Note_off_c, 14, 94, 0
21, 75680, Note_on_c, 14, 70, 120
21, 75680, Note_on_c, 14, 94, 120
21, 75705, Note_off_c, 14, 70, 0
21, 75705, Note_off_c, 14, 94, 0
21, 75776, Note_on_c, 14, 71, 126
21, 75776, Note_on_c, 14, 95, 126
21, 75801, Note_off_c, 14, 71, 0
21, 75801, Note_off_c, 14, 95, 0
21, 75808, Note_on_c, 14, 71, 121
21, 75808, Note_on_c, 14, 95, 121
21, 75833, Note_off_c, 14, 71, 0
21, 75833, Note_off_c, 14, 95, 0
21, 75904, Note_on_c, 14, 70, 127
21, 75904, Note_on_c, 14, 94, 127
21, 75929, Note_off_c, 14, 70, 0
21, 75929, Note_off_c, 14, 94, 0
21, 75936, Note_on_c, 14, 70, 122
21, 75936, Note_on_c, 14, 94, 122
21, 75961, Note_off_c, 14, 70, 0
21, 75961, Note_off_c, 14, 94, 0
21, 76032, Note_on_c, 14, 71, 127
21, 76032, Note_on_c, 14, 95, 127
21, 76057, Note_off_c, 14, 71, 0
21, 76057, Note_off_c, 14, 95, 0
21, 76064, Note_on_c, 14, 71, 123
21, 76064, Note_on_c, 14, 95, 123
21, 76089, Note_off_c, 14, 71, 0
21, 76089, Note_off_c, 14, 95, 0
21, 76160, Note_on_c, 14, 70, 127
21, 76160, Note_on_c, 14, 94, 127
21, 76185, Note_off_c, 14, 70, 0
21, 76185, Note_off_c, 14, 94, 0
21, 76192, Note_on_c, 14, 70, 124
21, 76192, Note_on_c, 14, 94, 124
21, 76217, Note_off_c, 14, 70, 0
21, 76217, Note_off_c, 14, 94, 0
21, 76288, Note_on_c, 14, 71, 127
21, 76288, Note_on_c, 14, 95, 127
21, 76313, Note_off_c, 14, 71, 0
21, 76313, Note_off_c, 14, 95, 0
21, 76320, Note_on_c, 14, 71, 125
21, 76320, Note_on_c, 14, 95, 125
21, 76345, Note_off_c, 14, 71, 0
21, 76345, Note_off_c, 14, 95, 0
21, 76416, Note_on_c, 14, 75, 127
21, 76416, Note_on_c, 14, 99, 127
21, 76441, Note_off_c, 14, 75, 0
21, 76441, Note_off_c, 14, 99, 0
21, 76448, Note_on_c, 14, 75, 127
21, 76448, Note_on_c, 14, 99, 127
21, 76473, Note_off_c, 14, 75, 0
21, 76473, Note_off_c, 14, 99, 0
21, 79808, Note_on_c, 14, 71, 75
21, 79808, Note_on_c, 14, 83, 75
21, 80064, Note_on_c, 14, 72, 94
21, 80064, Note_on_c, 14, 84, 94
21, 80069, Note_off_c, 14, 71, 0
21, 80069, Note_off_c, 14, 83, 0
21, 80246, Note_off_c, 14, 72, 0
21, 80246, Note_off_c, 14, 84, 0
21, 80256, Note_on_c, 14, 73, 95
21, 80256, Note_on_c, 14, 85, 95
21, 80448, Note_on_c, 14, 74, 95
21, 80448, Note_on_c, 14, 86, 95
21, 80451, Note_off_c, 14, 73, 0
21, 80451, Note_off_c, 14, 85, 0
21, 80512, Note_on_c, 14, 75, 107
21, 80512, Note_on_c, 14, 87, 107
21, 80513, Note_off_c, 14, 74, 0
21, 80513, Note_off_c, 14, 86, 0
21, 80714, Note_off_c, 14, 75, 0
21, 80714, Note_off_c, 14, 87, 0
21, 80725, Note_on_c, 14, 71, 84
21, 80725, Note_on_c, 14, 83, 84
21, 80810, Note_on_c, 14, 72, 88
21, 80810, Note_on_c, 14, 84, 88
21, 80811, Note_off_c, 14, 71, 0
21, 80811, Note_off_c, 14, 83, 0
21, 80952, Note_off_c, 14, 72, 0
21, 80952, Note_off_c, 14, 84, 0
21, 80960, Note_on_c, 14, 73, 108
21, 80960, Note_on_c, 14, 85, 108
21, 81088, Note_on_c, 14, 74, 115
21, 81088, Note_on_c, 14, 86, 115
21, 81090, Note_off_c, 14, 73, 0
21, 81090, Note_off_c, 14, 85, 0
21, 81152, Note_on_c, 14, 75, 103
21, 81152, Note_on_c, 14, 87, 103
21, 81153, Note_off_c, 14, 74, 0
21, 81153, Note_off_c, 14, 86, 0
21, 81232, Note_off_c, 14, 75, 0
21, 81232, Note_off_c, 14, 87, 0
21, 81237, Note_on_c, 14, 70, 91
21, 81237, Note_on_c, 14, 82, 91
21, 81322, Note_off_c, 14, 70, 0
21, 81322, Note_off_c, 14, 82, 0
21, 81322, Note_on_c, 14, 71, 111
21, 81322, Note_on_c, 14, 83, 111
21, 81408, Note_off_c, 14, 71, 0
21, 81408, Note_off_c, 14, 83, 0
21, 81408, Note_on_c, 14, 72, 115
21, 81408, Note_on_c, 14, 84, 115
21, 81493, Note_off_c, 14, 72, 0
21, 81493, Note_off_c, 14, 84, 0
21, 81493, Note_on_c, 14, 73, 116
21, 81493, Note_on_c, 14, 85, 116
21, 81578, Note_off_c, 14, 73, 0
21, 81578, Note_off_c, 14, 85, 0
21, 81578, Note_on_c, 14, 74, 115
21, 81578, Note_on_c, 14, 86, 115
21, 81664, Note_off_c, 14, 74, 0
21, 81664, Note_off_c, 14, 86, 0
21, 81664, Note_on_c, 14, 75, 112
21, 81664, Note_on_c, 14, 87, 112
21, 81728, Note_off_c, 14, 75, 0
21, 81728, Note_off_c, 14, 87, 0
21, 81728, Note_on_c, 14, 65, 77
21, 81728, Note_on_c, 14, 77, 77
21, 81792, Note_on_c, 14, 67, 76
21, 81792, Note_on_c, 14, 79, 76
21, 81793, Note_off_c, 14, 65, 0
21, 81793, Note_off_c, 14, 77, 0
21, 81856, Note_on_c, 14, 68, 104
21, 81856, Note_on_c, 14, 80, 104
21, 81857, Note_off_c, 14, 67, 0
21, 81857, Note_off_c, 14, 79, 0
21, 81920, Note_on_c, 14, 70, 113
21, 81920, Note_on_c, 14, 82, 113
21, 81921, Note_off_c, 14, 68, 0
21, 81921, Note_off_c, 14, 80, 0
21, 81980, Note_off_c, 14, 70, 0
21, 81980, Note_off_c, 14, 82, 0
21, 81984, Note_on_c, 14, 60, 75
21, 81984, Note_on_c, 14, 72, 75
21, 82048, Note_on_c, 14, 61, 77
21, 82048, Note_on_c, 14, 73, 77
21, 82049, Note_off_c, 14, 60, 0
21, 82049, Note_off_c, 14, 72, 0
21, 82112, Note_on_c, 14, 63, 99
21, 82112, Note_on_c, 14, 75, 99
21, 82113, Note_off_c, 14, 61, 0
21, 82113, Note_off_c, 14, 73, 0
21, 82176, Note_on_c, 14, 64, 105
21, 82176, Note_on_c, 14, 76, 105
21, 82177, Note_off_c, 14, 63, 0
21, 82177, Note_off_c, 14, 75, 0
21, 82256, Note_off_c, 14, 64, 0
21, 82256, Note_off_c, 14, 76, 0
21, 82261, Note_on_c, 14, 55, 75
21, 82261, Note_on_c, 14, 67, 75
21, 82346, Note_on_c, 14, 58, 73
21, 82346, Note_on_c, 14, 70, 73
21, 82347, Note_off_c, 14, 55, 0
21, 82347, Note_off_c, 14, 67, 0
21, 82432, Note_on_c, 14, 61, 105
21, 82432, Note_on_c, 14, 73, 105
21, 82433, Note_off_c, 14, 58, 0
21, 82433, Note_off_c, 14, 70, 0
21, 82512, Note_off_c, 14, 61, 0
21, 82512, Note_off_c, 14, 73, 0
21, 82517, Note_on_c, 14, 51, 76
21, 82517, Note_on_c, 14, 63, 76
21, 82602, Note_on_c, 14, 53, 80
21, 82602, Note_on_c, 14, 65, 80
21, 82603, Note_off_c, 14, 51, 0
21, 82603, Note_off_c, 14, 63, 0
21, 82688, Note_on_c, 14, 54, 100
21, 82688, Note_on_c, 14, 66, 100
21, 82689, Note_off_c, 14, 53, 0
21, 82689, Note_off_c, 14, 65, 0
21, 82752, Note_on_c, 14, 55, 109
21, 82752, Note_on_c, 14, 67, 109
21, 82753, Note_off_c, 14, 54, 0
21, 82753, Note_off_c, 14, 66, 0
21, 82816, Note_on_c, 14, 56, 104
21, 82816, Note_on_c, 14, 68, 104
21, 82817, Note_off_c, 14, 55, 0
21, 82817, Note_off_c, 14, 67, 0
21, 82876, Note_off_c, 14, 56, 0
21, 82876, Note_off_c, 14, 68, 0
21, 82880, Note_on_c, 14, 48, 80
21, 82880, Note_on_c, 14, 60, 80
21, 82944, Note_on_c, 14, 49, 83
21, 82944, Note_on_c, 14, 61, 83
21, 82945, Note_off_c, 14, 48, 0
21, 82945, Note_off_c, 14, 60, 0
21, 83008, Note_on_c, 14, 52, 105
21, 83008, Note_on_c, 14, 64, 105
21, 83009, Note_off_c, 14, 49, 0
21, 83009, Note_off_c, 14, 61, 0
21, 83072, Note_on_c, 14, 54, 112
21, 83072, Note_on_c, 14, 66, 112
21, 83073, Note_off_c, 14, 52, 0
21, 83073, Note_off_c, 14, 64, 0
21, 83136, Note_on_c, 14, 56, 109
21, 83136, Note_on_c, 14, 68, 109
21, 83137, Note_off_c, 14, 54, 0
21, 83137, Note_off_c, 14, 66, 0
21, 83200, Note_on_c, 14, 57, 110
21, 83200, Note_on_c, 14, 69, 110
21, 83201, Note_off_c, 14, 56, 0
21, 83201, Note_off_c, 14, 68, 0
21, 83264, Note_on_c, 14, 58, 101
21, 83264, Note_on_c, 14, 70, 101
21, 83265, Note_off_c, 14, 57, 0
21, 83265, Note_off_c, 14, 69, 0
21, 83328, Note_on_c, 14, 59, 105
21, 83328, Note_on_c, 14, 71, 105
21, 83329, Note_off_c, 14, 58, 0
21, 83329, Note_off_c, 14, 70, 0
21, 83392, Note_on_c, 14, 60, 104
21, 83392, Note_on_c, 14, 72, 104
21, 83393, Note_off_c, 14, 59, 0
21, 83393, Note_off_c, 14, 71, 0
21, 83456, Note_on_c, 14, 61, 107
21, 83456, Note_on_c, 14, 73, 107
21, 83457, Note_off_c, 14, 60, 0
21, 83457, Note_off_c, 14, 72, 0
21, 83541, Note_on_c, 14, 74, 126
21, 83541, Note_on_c, 14, 86, 126
21, 83542, Note_off_c, 14, 61, 0
21, 83542, Note_off_c, 14, 73, 0
21, 83626, Note_on_c, 14, 75, 127
21, 83626, Note_on_c, 14, 87, 127
21, 83627, Note_off_c, 14, 74, 0
21, 83627, Note_off_c, 14, 86, 0
21, 83712, Note_on_c, 14, 77, 102
21, 83712, Note_on_c, 14, 89, 102
21, 83713, Note_off_c, 14, 75, 0
21, 83713, Note_off_c, 14, 87, 0
21, 83797, Note_on_c, 14, 78, 108
21, 83797, Note_on_c, 14, 90, 108
21, 83798, Note_off_c, 14, 77, 0
21, 83798, Note_off_c, 14, 89, 0
21, 83877, Note_off_c, 14, 78, 0
21, 83877, Note_off_c, 14, 90, 0
21, 83882, Note_on_c, 14, 69, 85
21, 83882, Note_on_c, 14, 81, 85
21, 83968, Note_off_c, 14, 69, 0
21, 83968, Note_off_c, 14, 81, 0
21, 83968, Note_on_c, 14, 80, 127
21, 83968, Note_on_c, 14, 92, 127
21, 84138, Note_on_c, 14, 81, 127
21, 84138, Note_on_c, 14, 93, 127
21, 84141, Note_off_c, 14, 80, 0
21, 84141, Note_off_c, 14, 92, 0
21, 84219, Note_off_c, 14, 81, 0
21, 84219, Note_off_c, 14, 93, 0
21, 84224, Note_on_c, 14, 56, 78
21, 84224, Note_on_c, 14, 68, 78
21, 84224, Note_on_c, 14, 80, 78
21, 84416, Note_on_c, 14, 55, 68
21, 84416, Note_on_c, 14, 67, 68
21, 84416, Note_on_c, 14, 79, 68
21, 84419, Note_off_c, 14, 56, 0
21, 84419, Note_off_c, 14, 68, 0
21, 84419, Note_off_c, 14, 80, 0
21, 84537, Note_off_c, 14, 55, 0
21, 84537, Note_off_c, 14, 67, 0
21, 84537, Note_off_c, 14, 79, 0
21, 84544, Note_on_c, 14, 82, 127
21, 84544, Note_on_c, 14, 94, 127
21, 84736, Note_on_c, 14, 83, 127
21, 84736, Note_on_c, 14, 95, 127
21, 84739, Note_off_c, 14, 82, 0
21, 84739, Note_off_c, 14, 94, 0
21, 84816, Note_off_c, 14, 83, 0
21, 84816, Note_off_c, 14, 95, 0
21, 84821, Note_on_c, 14, 61, 84
21, 84821, Note_on_c, 14, 73, 84
21, 84906, Note_on_c, 14, 60, 77
21, 84906, Note_on_c, 14, 72, 77
21, 84907, Note_off_c, 14, 61, 0
21, 84907, Note_off_c, 14, 73, 0
21, 84987, Note_off_c, 14, 60, 0
21, 84987, Note_off_c, 14, 72, 0
21, 84992, Note_on_c, 14, 82, 127
21, 84992, Note_on_c, 14, 94, 127
21, 85162, Note_on_c, 14, 83, 127
21, 85162, Note_on_c, 14, 95, 127
21, 85165, Note_off_c, 14, 82, 0
21, 85165, Note_off_c, 14, 94, 0
21, 85243, Note_off_c, 14, 83, 0
21, 85243, Note_off_c, 14, 95, 0
21, 85248, Note_on_c, 14, 56, 86
21, 85248, Note_on_c, 14, 68, 86
21, 85418, Note_off_c, 14, 56, 0
21, 85418, Note_off_c, 14, 68, 0
21, 85418, Note_on_c, 14, 55, 105
21, 85418, Note_on_c, 14, 67, 105
21, 85546, Note_off_c, 14, 55, 0
21, 85546, Note_off_c, 14, 67, 0
21, 85546, Note_on_c, 14, 54, 108
21, 85546, Note_on_c, 14, 66, 108
21, 85674, Note_on_c, 14, 53, 105
21, 85674, Note_on_c, 14, 65, 105
21, 85676, Note_off_c, 14, 54, 0
21, 85676, Note_off_c, 14, 66, 0
21, 85755, Note_off_c, 14, 53, 0
21, 85755, Note_off_c, 14, 65, 0
21, 85760, Note_on_c, 14, 84, 127
21, 85760, Note_on_c, 14, 96, 127
21, 85930, Note_off_c, 14, 84, 0
21, 85930, Note_off_c, 14, 96, 0
21, 85930, Note_on_c, 14, 73, 95
21, 85930, Note_on_c, 14, 85, 95
21, 86144, Note_off_c, 14, 73, 0
21, 86144, Note_off_c, 14, 85, 0
21, 86144, Note_on_c, 14, 84, 127
21, 86144, Note_on_c, 14, 96, 127
21, 86208, Note_off_c, 14, 84, 0
21, 86208, Note_off_c, 14, 96, 0
21, 86208, Note_on_c, 14, 73, 89
21, 86208, Note_on_c, 14, 85, 89
21, 86400, Note_off_c, 14, 73, 0
21, 86400, Note_off_c, 14, 85, 0
21, 86400, Note_on_c, 14, 78, 127
21, 86400, Note_on_c, 14, 90, 127
21, 86592, Note_off_c, 14, 78, 0
21, 86592, Note_off_c, 14, 90, 0
21, 86592, Note_on_c, 14, 81, 121
21, 86592, Note_on_c, 14, 93, 121
21, 86869, Note_off_c, 14, 81, 0
21, 86869, Note_off_c, 14, 93, 0
21, 86869, Note_on_c, 14, 66, 85
21, 86869, Note_on_c, 14, 78, 85
21, 87040, Note_off_c, 14, 66, 0
21, 87040, Note_off_c, 14, 78, 0
21, 87040, Note_on_c, 14, 78, 127
21, 87040, Note_on_c, 14, 90, 127
21, 87125, Note_off_c, 14, 78, 0
21, 87125, Note_off_c, 14, 90, 0
21, 87125, Note_on_c, 14, 81, 127
21, 87125, Note_on_c, 14, 93, 127
21, 87296, Note_off_c, 14, 81, 0
21, 87296, Note_off_c, 14, 93, 0
21, 87296, Note_on_c, 14, 65, 84
21, 87296, Note_on_c, 14, 77, 84
21, 87466, Note_off_c, 14, 65, 0
21, 87466, Note_off_c, 14, 77, 0
21, 87466, Note_on_c, 14, 64, 99
21, 87466, Note_on_c, 14, 76, 99
21, 87872, Note_off_c, 14, 64, 0
21, 87872, Note_off_c, 14, 76, 0
21, 87872, Note_on_c, 14, 65, 112
21, 87872, Note_on_c, 14, 77, 112
21, 88000, Note_off_c, 14, 65, 0
21, 88000, Note_off_c, 14, 77, 0
21, 88000, Note_on_c, 14, 66, 119
21, 88000, Note_on_c, 14, 78, 119
21, 88149, Note_off_c, 14, 66, 0
21, 88149, Note_off_c, 14, 78, 0
21, 88149, Note_on_c, 14, 67, 119
21, 88149, Note_on_c, 14, 79, 119
21, 88234, Note_off_c, 14, 67, 0
21, 88234, Note_off_c, 14, 79, 0
21, 88234, Note_on_c, 14, 70, 127
21, 88234, Note_on_c, 14, 82, 127
21, 88448, Note_off_c, 14, 70, 0
21, 88448, Note_off_c, 14, 82, 0
21, 88448, Note_on_c, 14, 54, 85
21, 88448, Note_on_c, 14, 66, 85
21, 88896, Note_off_c, 14, 54, 0
21, 88896, Note_off_c, 14, 66, 0
21, 88896, Note_on_c, 14, 71, 127
21, 88896, Note_on_c, 14, 83, 127
21, 89024, Note_off_c, 14, 71, 0
21, 89024, Note_off_c, 14, 83, 0
21, 89024, Note_on_c, 14, 53, 84
21, 89024, Note_on_c, 14, 65, 84
21, 89216, Note_off_c, 14, 53, 0
21, 89216, Note_off_c, 14, 65, 0
21, 89216, Note_on_c, 14, 71, 127
21, 89216, Note_on_c, 14, 83, 127
21, 89344, Note_off_c, 14, 71, 0
21, 89344, Note_off_c, 14, 83, 0
21, 89344, Note_on_c, 14, 53, 89
21, 89344, Note_on_c, 14, 65, 89
21, 89536, Note_off_c, 14, 53, 0
21, 89536, Note_off_c, 14, 65, 0
21, 89536, Note_on_c, 14, 71, 127
21, 89536, Note_on_c, 14, 83, 127
21, 89664, Note_off_c, 14, 71, 0
21, 89664, Note_off_c, 14, 83, 0
21, 89664, Note_on_c, 14, 53, 84
21, 89664, Note_on_c, 14, 65, 84
21, 89856, Note_off_c, 14, 53, 0
21, 89856, Note_off_c, 14, 65, 0
21, 89856, Note_on_c, 14, 71, 127
21, 89856, Note_on_c, 14, 83, 127
21, 89984, Note_off_c, 14, 71, 0
21, 89984, Note_off_c, 14, 83, 0
21, 89984, Note_on_c, 14, 53, 85
21, 89984, Note_on_c, 14, 65, 85
21, 90304, Note_off_c, 14, 53, 0
21, 90304, Note_off_c, 14, 65, 0
21, 90304, Note_on_c, 14, 53, 115
21, 90304, Note_on_c, 14, 65, 115
21, 90560, Note_off_c, 14, 53, 0
21, 90560, Note_off_c, 14, 65, 0
21, 90560, Note_on_c, 14, 47, 103
21, 90560, Note_on_c, 14, 59, 103
21, 90624, Note_on_c, 14, 62, 127
21, 90624, Note_on_c, 14, 74, 127
21, 90625, Note_off_c, 14, 47, 0
21, 90625, Note_off_c, 14, 59, 0
21, 90666, Note_off_c, 14, 62, 0
21, 90666, Note_off_c, 14, 74, 0
21, 90666, Note_on_c, 14, 71, 127
21, 90666, Note_on_c, 14, 83, 127
21, 90747, Note_off_c, 14, 71, 0
21, 90747, Note_off_c, 14, 83, 0
21, 90752, Note_on_c, 14, 74, 125
21, 90752, Note_on_c, 14, 86, 125
21, 91008, Note_off_c, 14, 74, 0
21, 91008, Note_off_c, 14, 86, 0
21, 91008, Note_on_c, 14, 46, 98
21, 91008, Note_on_c, 14, 58, 98
21, 91072, Note_on_c, 14, 60, 122
21, 91072, Note_on_c, 14, 72, 122
21, 91073, Note_off_c, 14, 46, 0
21, 91073, Note_off_c, 14, 58, 0
21, 91132, Note_off_c, 14, 60, 0
21, 91132, Note_off_c, 14, 72, 0
21, 91136, Note_on_c, 14, 71, 127
21, 91136, Note_on_c, 14, 83, 127
21, 91200, Note_on_c, 14, 74, 127
21, 91200, Note_on_c, 14, 86, 127
21, 91201, Note_off_c, 14, 71, 0
21, 91201, Note_off_c, 14, 83, 0
21, 91321, Note_off_c, 14, 74, 0
21, 91321, Note_off_c, 14, 86, 0
21, 91328, Note_on_c, 14, 70, 101
21, 91328, Note_on_c, 14, 82, 101
21, 91456, Note_off_c, 14, 70, 0
21, 91456, Note_off_c, 14, 82, 0
21, 91456, Note_on_c, 14, 84, 127
21, 91456, Note_on_c, 14, 96, 127
21, 91712, Note_off_c, 14, 84, 0
21, 91712, Note_off_c, 14, 96, 0
21, 91712, Note_on_c, 14, 78, 90
21, 91712, Note_on_c, 14, 90, 90
21, 91904, Note_on_c, 14, 60, 63
21, 91904, Note_on_c, 14, 72, 63
21, 91907, Note_off_c, 14, 78, 0
21, 91907, Note_off_c, 14, 90, 0
21, 92025, Note_off_c, 14, 60, 0
21, 92025, Note_off_c, 14, 72, 0
21, 92032, Note_on_c, 14, 78, 127
21, 92032, Note_on_c, 14, 90, 127
21, 92160, Note_on_c, 14, 60, 99
21, 92160, Note_on_c, 14, 72, 99
21, 92162, Note_off_c, 14, 78, 0
21, 92162, Note_off_c, 14, 90, 0
21, 92220, Note_off_c, 14, 60, 0
21, 92220, Note_off_c, 14, 72, 0
21, 92224, Note_on_c, 14, 78, 127
21, 92224, Note_on_c, 14, 90, 127
21, 92352, Note_on_c, 14, 81, 127
21, 92352, Note_on_c, 14, 93, 127
21, 92354, Note_off_c, 14, 78, 0
21, 92354, Note_off_c, 14, 90, 0
21, 92534, Note_off_c, 14, 81, 0
21, 92534, Note_off_c, 14, 93, 0
21, 92544, Note_on_c, 14, 57, 80
21, 92544, Note_on_c, 14, 69, 80
21, 92608, Note_on_c, 14, 78, 101
21, 92608, Note_on_c, 14, 90, 101
21, 92609, Note_off_c, 14, 57, 0
21, 92609, Note_off_c, 14, 69, 0
21, 92790, Note_off_c, 14, 78, 0
21, 92790, Note_off_c, 14, 90, 0
21, 92800, Note_on_c, 14, 54, 85
21, 92800, Note_on_c, 14, 66, 85
21, 92864, Note_off_c, 14, 54, 0
21, 92864, Note_off_c, 14, 66, 0
21, 92864, Note_on_c, 14, 82, 127
21, 92864, Note_on_c, 14, 94, 127
21, 93013, Note_off_c, 14, 82, 0
21, 93013, Note_off_c, 14, 94, 0
21, 93013, Note_on_c, 14, 48, 82
21, 93013, Note_on_c, 14, 60, 82
21, 93098, Note_off_c, 14, 48, 0
21, 93098, Note_off_c, 14, 60, 0
21, 93098, Note_on_c, 14, 58, 127
21, 93098, Note_on_c, 14, 70, 127
21, 93184, Note_off_c, 14, 58, 0
21, 93184, Note_off_c, 14, 70, 0
21, 93184, Note_on_c, 14, 63, 127
21, 93184, Note_on_c, 14, 75, 127
21, 93269, Note_off_c, 14, 63, 0
21, 93269, Note_off_c, 14, 75, 0
21, 93269, Note_on_c, 14, 55, 101
21, 93269, Note_on_c, 14, 67, 101
21, 93354, Note_off_c, 14, 55, 0
21, 93354, Note_off_c, 14, 67, 0
21, 93354, Note_on_c, 14, 66, 127
21, 93354, Note_on_c, 14, 78, 127
21, 93440, Note_off_c, 14, 66, 0
21, 93440, Note_off_c, 14, 78, 0
21, 93440, Note_on_c, 14, 69, 127
21, 93440, Note_on_c, 14, 81, 127
21, 93525, Note_off_c, 14, 69, 0
21, 93525, Note_off_c, 14, 81, 0
21, 93525, Note_on_c, 14, 60, 100
21, 93525, Note_on_c, 14, 72, 100
21, 93610, Note_off_c, 14, 60, 0
21, 93610, Note_off_c, 14, 72, 0
21, 93610, Note_on_c, 14, 73, 127
21, 93610, Note_on_c, 14, 85, 127
21, 93696, Note_off_c, 14, 73, 0
21, 93696, Note_off_c, 14, 85, 0
21, 93696, Note_on_c, 14, 77, 126
21, 93696, Note_on_c, 14, 89, 126
21, 93866, Note_off_c, 14, 77, 0
21, 93866, Note_off_c, 14, 89, 0
21, 93866, Note_on_c, 14, 81, 127
21, 93866, Note_on_c, 14, 93, 127
21, 94037, Note_off_c, 14, 81, 0
21, 94037, Note_off_c, 14, 93, 0
21, 94037, Note_on_c, 14, 49, 86
21, 94037, Note_on_c, 14, 61, 86
21, 94208, Note_off_c, 14, 49, 0
21, 94208, Note_off_c, 14, 61, 0
21, 94208, Note_on_c, 14, 84, 127
21, 94208, Note_on_c, 14, 96, 127
21, 94528, Note_off_c, 14, 84, 0
21, 94528, Note_off_c, 14, 96, 0
21, 94528, Note_on_c, 14, 85, 116
21, 94528, Note_on_c, 14, 97, 116
21, 94848, Note_off_c, 14, 85, 0
21, 94848, Note_off_c, 14, 97, 0
21, 94848, Note_on_c, 14, 50, 80
21, 94848, Note_on_c, 14, 62, 80
21, 95104, Note_off_c, 14, 50, 0
21, 95104, Note_off_c, 14, 62, 0
21, 95104, Note_on_c, 14, 88, 127
21, 95104, Note_on_c, 14, 100, 127
21, 95402, Note_off_c, 14, 88, 0
21, 95402, Note_off_c, 14, 100, 0
21, 95402, Note_on_c, 14, 87, 106
21, 95402, Note_on_c, 14, 99, 106
21, 95744, Note_off_c, 14, 87, 0
21, 95744, Note_off_c, 14, 99, 0
21, 95744, Note_on_c, 14, 71, 83
21, 95744, Note_on_c, 14, 83, 83
21, 95936, Note_off_c, 14, 71, 0
21, 95936, Note_off_c, 14, 83, 0
21, 95936, Note_on_c, 14, 89, 127
21, 95936, Note_on_c, 14, 101, 127
21, 96256, Note_off_c, 14, 89, 0
21, 96256, Note_off_c, 14, 101, 0
21, 96256, Note_on_c, 14, 91, 127
21, 96256, Note_on_c, 14, 103, 127
21, 96768, Note_off_c, 14, 91, 0
21, 96768, Note_off_c, 14, 103, 0
21, 96768, Note_on_c, 14, 91, 126
21, 96768, Note_on_c, 14, 103, 126
21, 97132, Note_off_c, 14, 91, 0
21, 97132, Note_off_c, 14, 103, 0
21, 97152, Note_on_c, 14, 91, 127
21, 97152, Note_on_c, 14, 103, 127
21, 97760, Note_off_c, 14, 91, 0
21, 97760, Note_off_c, 14, 103, 0
21, 107776, Note_on_c, 14, 75, 37
21, 108672, Note_on_c, 14, 87, 46
21, 111104, Note_off_c, 14, 75, 0
21, 111104, Note_off_c, 14, 87, 0
21, 111104, Note_on_c, 14, 77, 43
21, 111104, Note_on_c, 14, 89, 43
21, 111872, Note_off_c, 14, 77, 0
21, 111872, Note_off_c, 14, 89, 0
21, 111872, Note_on_c, 14, 84, 48
21, 111872, Note_on_c, 14, 96, 48
21, 112384, Note_off_c, 14, 84, 0
21, 112384, Note_off_c, 14, 96, 0
21, 112384, Note_on_c, 14, 86, 45
21, 112384, Note_on_c, 14, 98, 45
21, 113024, Note_off_c, 14, 86, 0
21, 113024, Note_off_c, 14, 98, 0
21, 113024, Note_on_c, 14, 77, 33
21, 113024, Note_on_c, 14, 89, 33
21, 113408, Note_off_c, 14, 77, 0
21, 113408, Note_off_c, 14, 89, 0
21, 113408, Note_on_c, 14, 89, 51
21, 113408, Note_on_c, 14, 101, 51
21, 114432, Note_off_c, 14, 89, 0
21, 114432, Note_off_c, 14, 101, 0
21, 114432, Note_on_c, 14, 85, 32
21, 114432, Note_on_c, 14, 97, 32
21, 114944, Note_off_c, 14, 85, 0
21, 114944, Note_off_c, 14, 97, 0
21, 115072, Note_on_c, 14, 78, 34
21, 115072, Note_on_c, 14, 90, 34
21, 115541, Note_off_c, 14, 78, 0
21, 115541, Note_off_c, 14, 90, 0
21, 115541, Note_on_c, 14, 90, 37
21, 116352, Note_off_c, 14, 90, 0
21, 116352, Note_on_c, 14, 94, 46
21, 117056, Note_off_c, 14, 94, 0
21, 117056, Note_on_c, 14, 80, 24
21, 117376, Note_off_c, 14, 80, 0
21, 117376, Note_on_c, 14, 87, 44
21, 117696, Note_off_c, 14, 87, 0
21, 117696, Note_on_c, 14, 94, 45
21, 118144, Note_off_c, 14, 94, 0
21, 118144, Note_on_c, 14, 96, 41
21, 118848, Note_off_c, 14, 96, 0
21, 118848, Note_on_c, 14, 94, 36
21, 118976, Note_off_c, 14, 94, 0
21, 118976, Note_on_c, 14, 89, 36
21, 119104, Note_off_c, 14, 89, 0
21, 119104, Note_on_c, 14, 73, 31
21, 119552, Note_off_c, 14, 73, 0
21, 121429, Note_on_c, 14, 59, 111
21, 121514, Note_off_c, 14, 59, 0
21, 121514, Note_on_c, 14, 60, 127
21, 121600, Note_off_c, 14, 60, 0
21, 121600, Note_on_c, 14, 64, 127
21, 121685, Note_off_c, 14, 64, 0
21, 121685, Note_on_c, 14, 66, 127
21, 121770, Note_off_c, 14, 66, 0
21, 121770, Note_on_c, 14, 67, 127
21, 121856, Note_off_c, 14, 67, 0
21, 121856, Note_on_c, 14, 79, 127
21, 122026, Note_on_c, 14, 76, 122
21, 122029, Note_off_c, 14, 79, 0
21, 122350, Note_off_c, 14, 76, 0
21, 122624, Note_on_c, 14, 67, 111
21, 122709, Note_off_c, 14, 67, 0
21, 122709, Note_on_c, 14, 69, 127
21, 122794, Note_off_c, 14, 69, 0
21, 122794, Note_on_c, 14, 81, 127
21, 122880, Note_off_c, 14, 81, 0
21, 122880, Note_on_c, 14, 83, 127
21, 123050, Note_on_c, 14, 79, 114
21, 123053, Note_off_c, 14, 83, 0
21, 123435, Note_off_c, 14, 79, 0
21, 123456, Note_on_c, 14, 71, 93
21, 123520, Note_on_c, 14, 72, 93
21, 123521, Note_off_c, 14, 71, 0
21, 123702, Note_off_c, 14, 72, 0
21, 123712, Note_on_c, 14, 78, 127
21, 123776, Note_on_c, 14, 84, 127
21, 123777, Note_off_c, 14, 78, 0
21, 123968, Note_on_c, 14, 88, 122
21, 123971, Note_off_c, 14, 84, 0
21, 124150, Note_off_c, 14, 88, 0
21, 124160, Note_on_c, 14, 90, 126
21, 124224, Note_on_c, 14, 88, 122
21, 124225, Note_off_c, 14, 90, 0
21, 124345, Note_off_c, 14, 88, 0
21, 124352, Note_on_c, 14, 91, 123
21, 124416, Note_on_c, 14, 88, 111
21, 124417, Note_off_c, 14, 91, 0
21, 124598, Note_off_c, 14, 88, 0
21, 124608, Note_on_c, 14, 84, 99
21, 124672, Note_on_c, 14, 83, 90
21, 124673, Note_off_c, 14, 84, 0
21, 124714, Note_off_c, 14, 83, 0
21, 124714, Note_on_c, 14, 81, 106
21, 124795, Note_off_c, 14, 81, 0
21, 124800, Note_on_c, 14, 81, 127
21, 124842, Note_off_c, 14, 81, 0
21, 124842, Note_on_c, 14, 79, 99
21, 124885, Note_off_c, 14, 79, 0
21, 124885, Note_on_c, 14, 78, 105
21, 124965, Note_off_c, 14, 78, 0
21, 124970, Note_on_c, 14, 64, 82
21, 125013, Note_off_c, 14, 64, 0
21, 125013, Note_on_c, 14, 72, 127
21, 125098, Note_off_c, 14, 72, 0
21, 125098, Note_on_c, 14, 60, 82
21, 125141, Note_off_c, 14, 60, 0
21, 125141, Note_on_c, 14, 71, 127
21, 125226, Note_off_c, 14, 71, 0
21, 125226, Note_on_c, 14, 72, 121
21, 125312, Note_off_c, 14, 72, 0
21, 125312, Note_on_c, 14, 83, 127
21, 125525, Note_off_c, 14, 83, 0
21, 125525, Note_on_c, 14, 69, 83
21, 125610, Note_off_c, 14, 69, 0
21, 125610, Note_on_c, 14, 78, 127
21, 125696, Note_off_c, 14, 78, 0
21, 125696, Note_on_c, 14, 67, 87
21, 125781, Note_off_c, 14, 67, 0
21, 125781, Note_on_c, 14, 57, 107
21, 125866, Note_off_c, 14, 57, 0
21, 125866, Note_on_c, 14, 78, 127
21, 126054, Note_off_c, 14, 78, 0
21, 126054, Note_on_c, 14, 55, 102
21, 126156, Note_off_c, 14, 55, 0
21, 126156, Note_on_c, 14, 60, 122
21, 126259, Note_off_c, 14, 60, 0
21, 126259, Note_on_c, 14, 64, 125
21, 126361, Note_off_c, 14, 64, 0
21, 126361, Note_on_c, 14, 66, 120
21, 126464, Note_off_c, 14, 66, 0
21, 126464, Note_on_c, 14, 67, 120
21, 126566, Note_off_c, 14, 67, 0
21, 126566, Note_on_c, 14, 76, 127
21, 126771, Note_off_c, 14, 76, 0
21, 126771, Note_on_c, 14, 71, 102
21, 127061, Note_off_c, 14, 71, 0
21, 127061, Note_on_c, 14, 69, 106
21, 127232, Note_off_c, 14, 69, 0
21, 127232, Note_on_c, 14, 71, 121
21, 127317, Note_off_c, 14, 71, 0
21, 127317, Note_on_c, 14, 81, 127
21, 127573, Note_on_c, 14, 76, 110
21, 127578, Note_off_c, 14, 81, 0
21, 127917, Note_off_c, 14, 76, 0
21, 127936, Note_on_c, 14, 78, 120
21, 128000, Note_on_c, 14, 88, 127
21, 128001, Note_off_c, 14, 78, 0
21, 128128, Note_on_c, 14, 84, 105
21, 128130, Note_off_c, 14, 88, 0
21, 128432, Note_off_c, 14, 84, 0
21, 128448, Note_on_c, 14, 91, 127
21, 128597, Note_off_c, 14, 91, 0
21, 128597, Note_on_c, 14, 84, 103
21, 128768, Note_off_c, 14, 84, 0
21, 128768, Note_on_c, 14, 70, 90
21, 128853, Note_off_c, 14, 70, 0
21, 128853, Note_on_c, 14, 76, 127
21, 129024, Note_off_c, 14, 76, 0
21, 129024, Note_on_c, 14, 88, 127
21, 129228, Note_off_c, 14, 88, 0
21, 129228, Note_on_c, 14, 84, 127
21, 129433, Note_off_c, 14, 84, 0
21, 129433, Note_on_c, 14, 64, 96
21, 129638, Note_off_c, 14, 64, 0
21, 129638, Note_on_c, 14, 72, 127
21, 129843, Note_off_c, 14, 72, 0
21, 129843, Note_on_c, 14, 82, 127
21, 130048, Note_off_c, 14, 82, 0
21, 130048, Note_on_c, 14, 78, 127
21, 130252, Note_off_c, 14, 78, 0
21, 130252, Note_on_c, 14, 67, 102
21, 130457, Note_off_c, 14, 67, 0
21, 130457, Note_on_c, 14, 72, 127
21, 130662, Note_off_c, 14, 72, 0
21, 130662, Note_on_c, 14, 78, 127
21, 130867, Note_off_c, 14, 78, 0
21, 130867, Note_on_c, 14, 72, 121
21, 131072, Note_off_c, 14, 72, 0
21, 131276, Note_on_c, 14, 66, 125
21, 131481, Note_off_c, 14, 66, 0
21, 131481, Note_on_c, 14, 70, 127
21, 131686, Note_off_c, 14, 70, 0
21, 131686, Note_on_c, 14, 76, 127
21, 131891, Note_off_c, 14, 76, 0
21, 131891, Note_on_c, 14, 84, 127
21, 132352, Note_off_c, 14, 84, 0
21, 132352, Note_on_c, 14, 79, 113
21, 132736, Note_off_c, 14, 79, 0
21, 132736, Note_on_c, 14, 72, 102
21, 134144, Note_off_c, 14, 72, 0
21, 134144, Note_on_c, 14, 67, 109
21, 134272, Note_on_c, 14, 70, 112
21, 134274, Note_off_c, 14, 67, 0
21, 134636, Note_off_c, 14, 70, 0
21, 134656, Note_on_c, 14, 72, 127
21, 134784, Note_on_c, 14, 82, 127
21, 134786, Note_off_c, 14, 72, 0
21, 135310, Note_off_c, 14, 82, 0
21, 135338, Note_on_c, 14, 76, 107
21, 135936, Note_off_c, 14, 76, 0
21, 135936, Note_on_c, 14, 82, 127
21, 136192, Note_off_c, 14, 82, 0
21, 136192, Note_on_c, 14, 84, 127
21, 136362, Note_on_c, 14, 80, 115
21, 136365, Note_off_c, 14, 84, 0
21, 136808, Note_off_c, 14, 80, 0
21, 136832, Note_on_c, 14, 78, 124
21, 137088, Note_off_c, 14, 78, 0
21, 137088, Note_on_c, 14, 76, 119
21, 137386, Note_on_c, 14, 74, 114
21, 137391, Note_off_c, 14, 76, 0
21, 137710, Note_off_c, 14, 74, 0
21, 137728, Note_on_c, 14, 72, 120
21, 137984, Note_off_c, 14, 72, 0
21, 137984, Note_on_c, 14, 70, 115
21, 138368, Note_off_c, 14, 70, 0
21, 138368, Note_on_c, 14, 69, 122
21, 138624, Note_off_c, 14, 69, 0
21, 138624, Note_on_c, 14, 70, 127
21, 138880, Note_off_c, 14, 70, 0
21, 138880, Note_on_c, 14, 72, 127
21, 139136, Note_off_c, 14, 72, 0
21, 139136, Note_on_c, 14, 73, 127
21, 139520, Note_off_c, 14, 73, 0
21, 139520, Note_on_c, 14, 75, 127
21, 139776, Note_on_c, 14, 76, 127
21, 139781, Note_off_c, 14, 75, 0
21, 139937, Note_off_c, 14, 76, 0
21, 139946, Note_on_c, 14, 87, 127
21, 140288, Note_off_c, 14, 87, 0
21, 140288, Note_on_c, 14, 93, 127
21, 141312, Note_off_c, 14, 93, 0
21, 147968, Note_on_c, 14, 72, 83
21, 148096, Note_on_c, 14, 74, 119
21, 148098, Note_off_c, 14, 72, 0
21, 148339, Note_off_c, 14, 74, 0
21, 148352, Note_on_c, 14, 76, 127
21, 148480, Note_on_c, 14, 86, 127
21, 148482, Note_off_c, 14, 76, 0
21, 148864, Note_on_c, 14, 72, 86
21, 148871, Note_off_c, 14, 86, 0
21, 149228, Note_off_c, 14, 72, 0
21, 150016, Note_on_c, 14, 74, 104
21, 150144, Note_on_c, 14, 76, 121
21, 150146, Note_off_c, 14, 74, 0
21, 150387, Note_off_c, 14, 76, 0
21, 150400, Note_on_c, 14, 78, 127
21, 150528, Note_on_c, 14, 93, 127
21, 150530, Note_off_c, 14, 78, 0
21, 150912, Note_on_c, 14, 83, 96
21, 150919, Note_off_c, 14, 93, 0
21, 151520, Note_off_c, 14, 83, 0
21, 151936, Note_on_c, 14, 81, 100
21, 152064, Note_on_c, 14, 83, 103
21, 152066, Note_off_c, 14, 81, 0
21, 152428, Note_off_c, 14, 83, 0
21, 152448, Note_on_c, 14, 84, 120
21, 152576, Note_on_c, 14, 95, 127
21, 152578, Note_off_c, 14, 84, 0
21, 152940, Note_off_c, 14, 95, 0
21, 152960, Note_on_c, 14, 96, 127
21, 153600, Note_off_c, 14, 96, 0
21, 153941, Note_on_c, 14, 71, 116
21, 153941, Note_on_c, 14, 83, 116
21, 154282, Note_off_c, 14, 71, 0
21, 154282, Note_off_c, 14, 83, 0
21, 154282, Note_on_c, 14, 72, 127
21, 154282, Note_on_c, 14, 84, 127
21, 154453, Note_off_c, 14, 72, 0
21, 154453, Note_off_c, 14, 84, 0
21, 154453, Note_on_c, 14, 74, 127
21, 154453, Note_on_c, 14, 86, 127
21, 154624, Note_off_c, 14, 74, 0
21, 154624, Note_off_c, 14, 86, 0
21, 154624, Note_on_c, 14, 86, 127
21, 154624, Note_on_c, 14, 98, 127
21, 155008, Note_on_c, 14, 90, 127
21, 155008, Note_on_c, 14, 102, 127
21, 155015, Note_off_c, 14, 86, 0
21, 155015, Note_off_c, 14, 98, 0
21, 155494, Note_off_c, 14, 90, 0
21, 155494, Note_off_c, 14, 102, 0
21, 155520, Note_on_c, 14, 81, 101
21, 155520, Note_on_c, 14, 93, 101
21, 155776, Note_off_c, 14, 81, 0
21, 155776, Note_off_c, 14, 93, 0
21, 155776, Note_on_c, 14, 83, 127
21, 155776, Note_on_c, 14, 95, 127
21, 155904, Note_on_c, 14, 79, 116
21, 155904, Note_on_c, 14, 91, 116
21, 155906, Note_off_c, 14, 83, 0
21, 155906, Note_off_c, 14, 95, 0
21, 156268, Note_off_c, 14, 79, 0
21, 156268, Note_off_c, 14, 91, 0
21, 156288, Note_on_c, 14, 78, 120
21, 156288, Note_on_c, 14, 90, 120
21, 156672, Note_off_c, 14, 78, 0
21, 156672, Note_off_c, 14, 90, 0
21, 156672, Note_on_c, 14, 76, 116
21, 156672, Note_on_c, 14, 88, 116
21, 157056, Note_off_c, 14, 76, 0
21, 157056, Note_off_c, 14, 88, 0
21, 157056, Note_on_c, 14, 74, 120
21, 157056, Note_on_c, 14, 86, 120
21, 157184, Note_on_c, 14, 76, 127
21, 157184, Note_on_c, 14, 88, 127
21, 157186, Note_off_c, 14, 74, 0
21, 157186, Note_off_c, 14, 86, 0
21, 157312, Note_on_c, 14, 72, 112
21, 157312, Note_on_c, 14, 84, 112
21, 157314, Note_off_c, 14, 76, 0
21, 157314, Note_off_c, 14, 88, 0
21, 157440, Note_on_c, 14, 71, 105
21, 157440, Note_on_c, 14, 83, 105
21, 157442, Note_off_c, 14, 72, 0
21, 157442, Note_off_c, 14, 84, 0
21, 157683, Note_off_c, 14, 71, 0
21, 157683, Note_off_c, 14, 83, 0
21, 157696, Note_on_c, 14, 69, 116
21, 157696, Note_on_c, 14, 81, 116
21, 157760, Note_on_c, 14, 71, 123
21, 157760, Note_on_c, 14, 83, 123
21, 157761, Note_off_c, 14, 69, 0
21, 157761, Note_off_c, 14, 81, 0
21, 157942, Note_off_c, 14, 71, 0
21, 157942, Note_off_c, 14, 83, 0
21, 157952, Note_on_c, 14, 67, 116
21, 157952, Note_on_c, 14, 79, 116
21, 158336, Note_off_c, 14, 67, 0
21, 158336, Note_off_c, 14, 79, 0
21, 158336, Note_on_c, 14, 66, 122
21, 158336, Note_on_c, 14, 78, 122
21, 158592, Note_off_c, 14, 66, 0
21, 158592, Note_off_c, 14, 78, 0
21, 158592, Note_on_c, 14, 64, 118
21, 158592, Note_on_c, 14, 76, 118
21, 158720, Note_on_c, 14, 66, 121
21, 158720, Note_on_c, 14, 78, 121
21, 158722, Note_off_c, 14, 64, 0
21, 158722, Note_off_c, 14, 76, 0
21, 158848, Note_on_c, 14, 62, 118
21, 158848, Note_on_c, 14, 74, 118
21, 158850, Note_off_c, 14, 66, 0
21, 158850, Note_off_c, 14, 78, 0
21, 158969, Note_off_c, 14, 62, 0
21, 158969, Note_off_c, 14, 74, 0
21, 158976, Note_on_c, 14, 60, 92
21, 159104, Note_on_c, 14, 69, 106
21, 159106, Note_off_c, 14, 60, 0
21, 159387, Note_off_c, 14, 69, 0
21, 159829, Note_on_c, 14, 59, 111
21, 159914, Note_off_c, 14, 59, 0
21, 159914, Note_on_c, 14, 62, 127
21, 160000, Note_off_c, 14, 62, 0
21, 160000, Note_on_c, 14, 59, 109
21, 160000, Note_on_c, 14, 66, 127
21, 160085, Note_off_c, 14, 59, 0
21, 160085, Note_off_c, 14, 66, 0
21, 160085, Note_on_c, 14, 62, 127
21, 160085, Note_on_c, 14, 67, 127
21, 160170, Note_off_c, 14, 62, 0
21, 160170, Note_off_c, 14, 67, 0
21, 160170, Note_on_c, 14, 66, 127
21, 160170, Note_on_c, 14, 69, 127
21, 160256, Note_off_c, 14, 66, 0
21, 160256, Note_off_c, 14, 69, 0
21, 160256, Note_on_c, 14, 67, 127
21, 160256, Note_on_c, 14, 71, 127
21, 160341, Note_off_c, 14, 67, 0
21, 160341, Note_off_c, 14, 71, 0
21, 160341, Note_on_c, 14, 69, 127
21, 160341, Note_on_c, 14, 66, 110
21, 160426, Note_off_c, 14, 69, 0
21, 160426, Note_off_c, 14, 66, 0
21, 160426, Note_on_c, 14, 71, 127
21, 160426, Note_on_c, 14, 62, 107
21, 160512, Note_off_c, 14, 71, 0
21, 160512, Note_off_c, 14, 62, 0
21, 160512, Note_on_c, 14, 66, 110
21, 160512, Note_on_c, 14, 59, 123
21, 160597, Note_off_c, 14, 66, 0
21, 160597, Note_off_c, 14, 59, 0
21, 160597, Note_on_c, 14, 62, 113
21, 160597, Note_on_c, 14, 62, 127
21, 160682, Note_off_c, 14, 62, 0
21, 160682, Note_off_c, 14, 62, 0
21, 160682, Note_on_c, 14, 59, 116
21, 160682, Note_on_c, 14, 66, 127
21, 160768, Note_off_c, 14, 59, 0
21, 160768, Note_off_c, 14, 66, 0
21, 160768, Note_on_c, 14, 62, 127
21, 160768, Note_on_c, 14, 67, 127
21, 160853, Note_off_c, 14, 62, 0
21, 160853, Note_off_c, 14, 67, 0
21, 160853, Note_on_c, 14, 66, 127
21, 160853, Note_on_c, 14, 66, 121
21, 160938, Note_off_c, 14, 66, 0
21, 160938, Note_off_c, 14, 66, 0
21, 160938, Note_on_c, 14, 67, 127
21, 160938, Note_on_c, 14, 62, 116
21, 161024, Note_off_c, 14, 67, 0
21, 161024, Note_off_c, 14, 62, 0
21, 161024, Note_on_c, 14, 66, 123
21, 161024, Note_on_c, 14, 66, 127
21, 161109, Note_off_c, 14, 66, 0
21, 161109, Note_off_c, 14, 66, 0
21, 161109, Note_on_c, 14, 62, 115
21, 161109, Note_on_c, 14, 67, 127
21, 161194, Note_off_c, 14, 62, 0
21, 161194, Note_off_c, 14, 67, 0
21, 161194, Note_on_c, 14, 66, 127
21, 161194, Note_on_c, 14, 69, 127
21, 161280, Note_off_c, 14, 66, 0
21, 161280, Note_off_c, 14, 69, 0
21, 161280, Note_on_c, 14, 67, 127
21, 161280, Note_on_c, 14, 67, 121
21, 161365, Note_off_c, 14, 67, 0
21, 161365, Note_off_c, 14, 67, 0
21, 161365, Note_on_c, 14, 69, 127
21, 161365, Note_on_c, 14, 66, 120
21, 161450, Note_off_c, 14, 69, 0
21, 161450, Note_off_c, 14, 66, 0
21, 161450, Note_on_c, 14, 67, 120
21, 161450, Note_on_c, 14, 62, 112
21, 161536, Note_off_c, 14, 67, 0
21, 161536, Note_off_c, 14, 62, 0
21, 161536, Note_on_c, 14, 66, 119
21, 161536, Note_on_c, 14, 66, 127
21, 161621, Note_off_c, 14, 66, 0
21, 161621, Note_off_c, 14, 66, 0
21, 161621, Note_on_c, 14, 62, 110
21, 161621, Note_on_c, 14, 67, 127
21, 161706, Note_off_c, 14, 62, 0
21, 161706, Note_off_c, 14, 67, 0
21, 161706, Note_on_c, 14, 66, 127
21, 161706, Note_on_c, 14, 71, 127
21, 161792, Note_off_c, 14, 66, 0
21, 161792, Note_off_c, 14, 71, 0
21, 161792, Note_on_c, 14, 67, 127
21, 161792, Note_on_c, 14, 74, 127
21, 161877, Note_off_c, 14, 67, 0
21, 161877, Note_off_c, 14, 74, 0
21, 161877, Note_on_c, 14, 71, 127
21, 161877, Note_on_c, 14, 71, 113
21, 161962, Note_off_c, 14, 71, 0
21, 161962, Note_off_c, 14, 71, 0
21, 161962, Note_on_c, 14, 74, 127
21, 161962, Note_on_c, 14, 67, 114
21, 162048, Note_off_c, 14, 74, 0
21, 162048, Note_off_c, 14, 67, 0
21, 162048, Note_on_c, 14, 71, 118
21, 162048, Note_on_c, 14, 66, 118
21, 162133, Note_off_c, 14, 71, 0
21, 162133, Note_off_c, 14, 66, 0
21, 162133, Note_on_c, 14, 67, 110
21, 162133, Note_on_c, 14, 69, 127
21, 162218, Note_off_c, 14, 67, 0
21, 162218, Note_off_c, 14, 69, 0
21, 162218, Note_on_c, 14, 66, 120
21, 162218, Note_on_c, 14, 71, 127
21, 162304, Note_off_c, 14, 66, 0
21, 162304, Note_off_c, 14, 71, 0
21, 162304, Note_on_c, 14, 67, 127
21, 162304, Note_on_c, 14, 74, 127
21, 162389, Note_off_c, 14, 67, 0
21, 162389, Note_off_c, 14, 74, 0
21, 162389, Note_on_c, 14, 71, 127
21, 162389, Note_on_c, 14, 78, 127
21, 162474, Note_off_c, 14, 71, 0
21, 162474, Note_off_c, 14, 78, 0
21, 162474, Note_on_c, 14, 74, 127
21, 162474, Note_on_c, 14, 74, 115
21, 162560, Note_off_c, 14, 74, 0
21, 162560, Note_off_c, 14, 74, 0
21, 162560, Note_on_c, 14, 78, 127
21, 162560, Note_on_c, 14, 71, 113
21, 162645, Note_off_c, 14, 78, 0
21, 162645, Note_off_c, 14, 71, 0
21, 162645, Note_on_c, 14, 74, 112
21, 162645, Note_on_c, 14, 67, 111
21, 162730, Note_off_c, 14, 74, 0
21, 162730, Note_off_c, 14, 67, 0
21, 162730, Note_on_c, 14, 71, 117
21, 162730, Note_on_c, 14, 71, 127
21, 162816, Note_off_c, 14, 71, 0
21, 162816, Note_off_c, 14, 71, 0
21, 162816, Note_on_c, 14, 67, 110
21, 162816, Note_on_c, 14, 74, 127
21, 162901, Note_off_c, 14, 67, 0
21, 162901, Note_off_c, 14, 74, 0
21, 162901, Note_on_c, 14, 71, 127
21, 162901, Note_on_c, 14, 78, 127
21, 162986, Note_off_c, 14, 71, 0
21, 162986, Note_off_c, 14, 78, 0
21, 162986, Note_on_c, 14, 74, 127
21, 162986, Note_on_c, 14, 79, 127
21, 163072, Note_off_c, 14, 74, 0
21, 163072, Note_off_c, 14, 79, 0
21, 163072, Note_on_c, 14, 78, 127
21, 163072, Note_on_c, 14, 78, 121
21, 163157, Note_off_c, 14, 78, 0
21, 163157, Note_off_c, 14, 78, 0
21, 163157, Note_on_c, 14, 79, 127
21, 163157, Note_on_c, 14, 74, 112
21, 163242, Note_off_c, 14, 79, 0
21, 163242, Note_off_c, 14, 74, 0
21, 163242, Note_on_c, 14, 78, 125
21, 163242, Note_on_c, 14, 71, 113
21, 163328, Note_off_c, 14, 78, 0
21, 163328, Note_off_c, 14, 71, 0
21, 163328, Note_on_c, 14, 74, 111
21, 163328, Note_on_c, 14, 66, 109
21, 163413, Note_off_c, 14, 74, 0
21, 163413, Note_off_c, 14, 66, 0
21, 163413, Note_on_c, 14, 71, 120
21, 163413, Note_on_c, 14, 67, 127
21, 163498, Note_off_c, 14, 71, 0
21, 163498, Note_off_c, 14, 67, 0
21, 163498, Note_on_c, 14, 66, 105
21, 163498, Note_on_c, 14, 71, 127
21, 163584, Note_off_c, 14, 66, 0
21, 163584, Note_off_c, 14, 71, 0
21, 163584, Note_on_c, 14, 67, 127
21, 163584, Note_on_c, 14, 74, 127
21, 163669, Note_off_c, 14, 67, 0
21, 163669, Note_off_c, 14, 74, 0
21, 163669, Note_on_c, 14, 71, 127
21, 163669, Note_on_c, 14, 78, 127
21, 163754, Note_off_c, 14, 71, 0
21, 163754, Note_off_c, 14, 78, 0
21, 163754, Note_on_c, 14, 74, 127
21, 163754, Note_on_c, 14, 74, 113
21, 163840, Note_off_c, 14, 74, 0
21, 163840, Note_off_c, 14, 74, 0
21, 163840, Note_on_c, 14, 78, 127
21, 163840, Note_on_c, 14, 78, 127
21, 163925, Note_off_c, 14, 78, 0
21, 163925, Note_off_c, 14, 78, 0
21, 163925, Note_on_c, 14, 74, 117
21, 163925, Note_on_c, 14, 79, 127
21, 164010, Note_off_c, 14, 74, 0
21, 164010, Note_off_c, 14, 79, 0
21, 164010, Note_on_c, 14, 78, 127
21, 164010, Note_on_c, 14, 78, 121
21, 164096, Note_off_c, 14, 78, 0
21, 164096, Note_off_c, 14, 78, 0
21, 164096, Note_on_c, 14, 79, 127
21, 164096, Note_on_c, 14, 74, 112
21, 164181, Note_off_c, 14, 79, 0
21, 164181, Note_off_c, 14, 74, 0
21, 164181, Note_on_c, 14, 78, 121
21, 164181, Note_on_c, 14, 71, 112
21, 164266, Note_off_c, 14, 78, 0
21, 164266, Note_off_c, 14, 71, 0
21, 164266, Note_on_c, 14, 74, 114
21, 164266, Note_on_c, 14, 66, 109
21, 164352, Note_off_c, 14, 74, 0
21, 164352, Note_off_c, 14, 66, 0
21, 164352, Note_on_c, 14, 71, 113
21, 164352, Note_on_c, 14, 67, 127
21, 164437, Note_off_c, 14, 71, 0
21, 164437, Note_off_c, 14, 67, 0
21, 164437, Note_on_c, 14, 66, 111
21, 164437, Note_on_c, 14, 71, 127
21, 164522, Note_off_c, 14, 66, 0
21, 164522, Note_off_c, 14, 71, 0
21, 164522, Note_on_c, 14, 67, 127
21, 164522, Note_on_c, 14, 74, 127
21, 164608, Note_off_c, 14, 67, 0
21, 164608, Note_off_c, 14, 74, 0
21, 164608, Note_on_c, 14, 71, 127
21, 164608, Note_on_c, 14, 78, 127
21, 164693, Note_off_c, 14, 71, 0
21, 164693, Note_off_c, 14, 78, 0
21, 164693, Note_on_c, 14, 74, 127
21, 164693, Note_on_c, 14, 74, 117
21, 164778, Note_off_c, 14, 74, 0
21, 164778, Note_off_c, 14, 74, 0
21, 164778, Note_on_c, 14, 78, 127
21, 164778, Note_on_c, 14, 78, 127
21, 164864, Note_off_c, 14, 78, 0
21, 164864, Note_off_c, 14, 78, 0
21, 164864, Note_on_c, 14, 74, 116
21, 164864, Note_on_c, 14, 83, 127
21, 164949, Note_off_c, 14, 74, 0
21, 164949, Note_off_c, 14, 83, 0
21, 164949, Note_on_c, 14, 78, 127
21, 164949, Note_on_c, 14, 78, 116
21, 165034, Note_off_c, 14, 78, 0
21, 165034, Note_off_c, 14, 78, 0
21, 165034, Note_on_c, 14, 83, 127
21, 165034, Note_on_c, 14, 74, 109
21, 165120, Note_off_c, 14, 83, 0
21, 165120, Note_off_c, 14, 74, 0
21, 165120, Note_on_c, 14, 78, 115
21, 165120, Note_on_c, 14, 71, 115
21, 165205, Note_off_c, 14, 78, 0
21, 165205, Note_off_c, 14, 71, 0
21, 165205, Note_on_c, 14, 74, 116
21, 165205, Note_on_c, 14, 67, 103
21, 165290, Note_off_c, 14, 74, 0
21, 165290, Note_off_c, 14, 67, 0
21, 165290, Note_on_c, 14, 71, 112
21, 165290, Note_on_c, 14, 66, 115
21, 165376, Note_off_c, 14, 71, 0
21, 165376, Note_off_c, 14, 66, 0
21, 165376, Note_on_c, 14, 67, 110
21, 165376, Note_on_c, 14, 67, 127
21, 165461, Note_off_c, 14, 67, 0
21, 165461, Note_off_c, 14, 67, 0
21, 165461, Note_on_c, 14, 66, 120
21, 165461, Note_on_c, 14, 71, 127
21, 165546, Note_off_c, 14, 66, 0
21, 165546, Note_off_c, 14, 71, 0
21, 165546, Note_on_c, 14, 67, 127
21, 165546, Note_on_c, 14, 74, 127
21, 165632, Note_off_c, 14, 67, 0
21, 165632, Note_off_c, 14, 74, 0
21, 165632, Note_on_c, 14, 71, 127
21, 165632, Note_on_c, 14, 78, 127
21, 165717, Note_off_c, 14, 71, 0
21, 165717, Note_off_c, 14, 78, 0
21, 165717, Note_on_c, 14, 74, 127
21, 165717, Note_on_c, 14, 74, 116
21, 165802, Note_off_c, 14, 74, 0
21, 165802, Note_off_c, 14, 74, 0
21, 165802, Note_on_c, 14, 78, 127
21, 165802, Note_on_c, 14, 71, 114
21, 165888, Note_off_c, 14, 78, 0
21, 165888, Note_off_c, 14, 71, 0
21, 165888, Note_on_c, 14, 74, 119
21, 165888, Note_on_c, 14, 67, 113
21, 165973, Note_off_c, 14, 74, 0
21, 165973, Note_off_c, 14, 67, 0
21, 165973, Note_on_c, 14, 71, 113
21, 165973, Note_on_c, 14, 71, 127
21, 166058, Note_off_c, 14, 71, 0
21, 166058, Note_off_c, 14, 71, 0
21, 166058, Note_on_c, 14, 67, 107
21, 166058, Note_on_c, 14, 74, 127
21, 166144, Note_off_c, 14, 67, 0
21, 166144, Note_off_c, 14, 74, 0
21, 166144, Note_on_c, 14, 71, 127
21, 166144, Note_on_c, 14, 78, 127
21, 166229, Note_off_c, 14, 71, 0
21, 166229, Note_off_c, 14, 78, 0
21, 166229, Note_on_c, 14, 74, 127
21, 166229, Note_on_c, 14, 74, 117
21, 166314, Note_off_c, 14, 74, 0
21, 166314, Note_off_c, 14, 74, 0
21, 166314, Note_on_c, 14, 78, 127
21, 166314, Note_on_c, 14, 71, 117
21, 166400, Note_off_c, 14, 78, 0
21, 166400, Note_off_c, 14, 71, 0
21, 166400, Note_on_c, 14, 74, 120
21, 166400, Note_on_c, 14, 70, 121
21, 166485, Note_off_c, 14, 74, 0
21, 166485, Note_off_c, 14, 70, 0
21, 166485, Note_on_c, 14, 71, 115
21, 166485, Note_on_c, 14, 74, 127
21, 166570, Note_off_c, 14, 71, 0
21, 166570, Note_off_c, 14, 74, 0
21, 166570, Note_on_c, 14, 70, 119
21, 166570, Note_on_c, 14, 77, 127
21, 166656, Note_off_c, 14, 70, 0
21, 166656, Note_off_c, 14, 77, 0
21, 166656, Note_on_c, 14, 74, 127
21, 166656, Note_on_c, 14, 79, 127
21, 166741, Note_off_c, 14, 74, 0
21, 166741, Note_off_c, 14, 79, 0
21, 166741, Note_on_c, 14, 77, 127
21, 166741, Note_on_c, 14, 77, 121
21, 166826, Note_off_c, 14, 77, 0
21, 166826, Note_off_c, 14, 77, 0
21, 166826, Note_on_c, 14, 79, 127
21, 166826, Note_on_c, 14, 74, 116
21, 166912, Note_off_c, 14, 79, 0
21, 166912, Note_off_c, 14, 74, 0
21, 166912, Note_on_c, 14, 77, 121
21, 166912, Note_on_c, 14, 77, 127
21, 166997, Note_off_c, 14, 77, 0
21, 166997, Note_off_c, 14, 77, 0
21, 166997, Note_on_c, 14, 74, 118
21, 166997, Note_on_c, 14, 74, 116
21, 167082, Note_off_c, 14, 74, 0
21, 167082, Note_off_c, 14, 74, 0
21, 167082, Note_on_c, 14, 77, 127
21, 167082, Note_on_c, 14, 65, 98
21, 167168, Note_off_c, 14, 77, 0
21, 167168, Note_off_c, 14, 65, 0
21, 167168, Note_on_c, 14, 74, 115
21, 167168, Note_on_c, 14, 67, 127
21, 167253, Note_off_c, 14, 74, 0
21, 167253, Note_off_c, 14, 67, 0
21, 167253, Note_on_c, 14, 65, 104
21, 167253, Note_on_c, 14, 70, 127
21, 167338, Note_off_c, 14, 65, 0
21, 167338, Note_off_c, 14, 70, 0
21, 167338, Note_on_c, 14, 67, 127
21, 167338, Note_on_c, 14, 74, 127
21, 167424, Note_off_c, 14, 67, 0
21, 167424, Note_off_c, 14, 74, 0
21, 167424, Note_on_c, 14, 70, 127
21, 167424, Note_on_c, 14, 82, 127
21, 167509, Note_off_c, 14, 70, 0
21, 167509, Note_off_c, 14, 82, 0
21, 167509, Note_on_c, 14, 74, 127
21, 167509, Note_on_c, 14, 77, 114
21, 167594, Note_off_c, 14, 74, 0
21, 167594, Note_off_c, 14, 77, 0
21, 167594, Note_on_c, 14, 82, 127
21, 167594, Note_on_c, 14, 74, 114
21, 167680, Note_off_c, 14, 82, 0
21, 167680, Note_off_c, 14, 74, 0
21, 167680, Note_on_c, 14, 77, 114
21, 167680, Note_on_c, 14, 70, 110
21, 167765, Note_off_c, 14, 77, 0
21, 167765, Note_off_c, 14, 70, 0
21, 167765, Note_on_c, 14, 74, 115
21, 167765, Note_on_c, 14, 67, 117
21, 167850, Note_off_c, 14, 74, 0
21, 167850, Note_off_c, 14, 67, 0
21, 167850, Note_on_c, 14, 70, 117
21, 167850, Note_on_c, 14, 70, 127
21, 167936, Note_off_c, 14, 70, 0
21, 167936, Note_off_c, 14, 70, 0
21, 167936, Note_on_c, 14, 67, 117
21, 167936, Note_on_c, 14, 74, 127
21, 168021, Note_off_c, 14, 67, 0
21, 168021, Note_off_c, 14, 74, 0
21, 168021, Note_on_c, 14, 70, 127
21, 168021, Note_on_c, 14, 77, 127
21, 168106, Note_off_c, 14, 70, 0
21, 168106, Note_off_c, 14, 77, 0
21, 168106, Note_on_c, 14, 74, 127
21, 168106, Note_on_c, 14, 74, 121
21, 168192, Note_off_c, 14, 74, 0
21, 168192, Note_off_c, 14, 74, 0
21, 168192, Note_on_c, 14, 77, 127
21, 168192, Note_on_c, 14, 65, 98
21, 168277, Note_off_c, 14, 77, 0
21, 168277, Note_off_c, 14, 65, 0
21, 168277, Note_on_c, 14, 74, 123
21, 168277, Note_on_c, 14, 67, 127
21, 168362, Note_off_c, 14, 74, 0
21, 168362, Note_off_c, 14, 67, 0
21, 168362, Note_on_c, 14, 65, 98
21, 168362, Note_on_c, 14, 70, 127
21, 168448, Note_off_c, 14, 65, 0
21, 168448, Note_off_c, 14, 70, 0
21, 168448, Note_on_c, 14, 67, 127
21, 168448, Note_on_c, 14, 74, 127
21, 168533, Note_off_c, 14, 67, 0
21, 168533, Note_off_c, 14, 74, 0
21, 168533, Note_on_c, 14, 71, 127
21, 168533, Note_on_c, 14, 78, 127
21, 168618, Note_off_c, 14, 71, 0
21, 168618, Note_off_c, 14, 78, 0
21, 168618, Note_on_c, 14, 74, 127
21, 168618, Note_on_c, 14, 79, 127
21, 168704, Note_off_c, 14, 74, 0
21, 168704, Note_off_c, 14, 79, 0
21, 168704, Note_on_c, 14, 78, 127
21, 168704, Note_on_c, 14, 78, 122
21, 168789, Note_off_c, 14, 78, 0
21, 168789, Note_off_c, 14, 78, 0
21, 168789, Note_on_c, 14, 79, 127
21, 168789, Note_on_c, 14, 74, 111
21, 168874, Note_off_c, 14, 79, 0
21, 168874, Note_off_c, 14, 74, 0
21, 168874, Note_on_c, 14, 78, 127
21, 168874, Note_on_c, 14, 71, 108
21, 168960, Note_off_c, 14, 78, 0
21, 168960, Note_off_c, 14, 71, 0
21, 168960, Note_on_c, 14, 74, 114
21, 168960, Note_on_c, 14, 66, 107
21, 169045, Note_off_c, 14, 74, 0
21, 169045, Note_off_c, 14, 66, 0
21, 169045, Note_on_c, 14, 71, 114
21, 169045, Note_on_c, 14, 67, 127
21, 169130, Note_off_c, 14, 71, 0
21, 169130, Note_off_c, 14, 67, 0
21, 169130, Note_on_c, 14, 66, 112
21, 169130, Note_on_c, 14, 71, 127
21, 169216, Note_off_c, 14, 66, 0
21, 169216, Note_off_c, 14, 71, 0
21, 169216, Note_on_c, 14, 67, 127
21, 169216, Note_on_c, 14, 74, 127
21, 169301, Note_off_c, 14, 67, 0
21, 169301, Note_off_c, 14, 74, 0
21, 169301, Note_on_c, 14, 71, 127
21, 169301, Note_on_c, 14, 78, 127
21, 169386, Note_off_c, 14, 71, 0
21, 169386, Note_off_c, 14, 78, 0
21, 169386, Note_on_c, 14, 74, 127
21, 169386, Note_on_c, 14, 74, 114
21, 169472, Note_off_c, 14, 74, 0
21, 169472, Note_off_c, 14, 74, 0
21, 169472, Note_on_c, 14, 78, 127
21, 169472, Note_on_c, 14, 78, 127
21, 169557, Note_off_c, 14, 78, 0
21, 169557, Note_off_c, 14, 78, 0
21, 169557, Note_on_c, 14, 74, 117
21, 169557, Note_on_c, 14, 79, 127
21, 169642, Note_off_c, 14, 74, 0
21, 169642, Note_off_c, 14, 79, 0
21, 169642, Note_on_c, 14, 78, 127
21, 169642, Note_on_c, 14, 78, 126
21, 169728, Note_off_c, 14, 78, 0
21, 169728, Note_off_c, 14, 78, 0
21, 169728, Note_on_c, 14, 79, 127
21, 169728, Note_on_c, 14, 74, 115
21, 169813, Note_off_c, 14, 79, 0
21, 169813, Note_off_c, 14, 74, 0
21, 169813, Note_on_c, 14, 78, 126
21, 169813, Note_on_c, 14, 71, 113
21, 169898, Note_off_c, 14, 78, 0
21, 169898, Note_off_c, 14, 71, 0
21, 169898, Note_on_c, 14, 74, 113
21, 169898, Note_on_c, 14, 66, 110
21, 169984, Note_off_c, 14, 74, 0
21, 169984, Note_off_c, 14, 66, 0
21, 169984, Note_on_c, 14, 71, 112
21, 170069, Note_off_c, 14, 71, 0
21, 170069, Note_on_c, 14, 74, 127
21, 170069, Note_on_c, 14, 74, 115
21, 170069, Note_on_c, 14, 86, 115
21, 170154, Note_off_c, 14, 74, 0
21, 170154, Note_off_c, 14, 74, 0
21, 170154, Note_off_c, 14, 86, 0
21, 170154, Note_on_c, 14, 65, 127
21, 170154, Note_on_c, 14, 77, 127
21, 170154, Note_on_c, 14, 70, 109
21, 170154, Note_on_c, 14, 82, 109
21, 170240, Note_off_c, 14, 65, 0
21, 170240, Note_off_c, 14, 77, 0
21, 170240, Note_off_c, 14, 70, 0
21, 170240, Note_off_c, 14, 82, 0
21, 170240, Note_on_c, 14, 67, 127
21, 170240, Note_on_c, 14, 79, 127
21, 170240, Note_on_c, 14, 74, 127
21, 170240, Note_on_c, 14, 86, 127
21, 170325, Note_off_c, 14, 67, 0
21, 170325, Note_off_c, 14, 79, 0
21, 170325, Note_off_c, 14, 74, 0
21, 170325, Note_off_c, 14, 86, 0
21, 170325, Note_on_c, 14, 70, 127
21, 170325, Note_on_c, 14, 82, 127
21, 170325, Note_on_c, 14, 82, 127
21, 170325, Note_on_c, 14, 94, 127
21, 170410, Note_off_c, 14, 70, 0
21, 170410, Note_off_c, 14, 82, 0
21, 170410, Note_off_c, 14, 82, 0
21, 170410, Note_off_c, 14, 94, 0
21, 170410, Note_on_c, 14, 74, 127
21, 170410, Note_on_c, 14, 86, 127
21, 170410, Note_on_c, 14, 77, 119
21, 170410, Note_on_c, 14, 89, 119
21, 170496, Note_off_c, 14, 74, 0
21, 170496, Note_off_c, 14, 86, 0
21, 170496, Note_off_c, 14, 77, 0
21, 170496, Note_off_c, 14, 89, 0
21, 170496, Note_on_c, 14, 82, 127
21, 170496, Note_on_c, 14, 94, 127
21, 170496, Note_on_c, 14, 74, 114
21, 170496, Note_on_c, 14, 86, 114
21, 170581, Note_off_c, 14, 82, 0
21, 170581, Note_off_c, 14, 94, 0
21, 170581, Note_off_c, 14, 74, 0
21, 170581, Note_off_c, 14, 86, 0
21, 170581, Note_on_c, 14, 77, 116
21, 170581, Note_on_c, 14, 89, 116
21, 170581, Note_on_c, 14, 70, 114
21, 170581, Note_on_c, 14, 82, 114
21, 170666, Note_off_c, 14, 77, 0
21, 170666, Note_off_c, 14, 89, 0
21, 170666, Note_off_c, 14, 70, 0
21, 170666, Note_off_c, 14, 82, 0
21, 170666, Note_on_c, 14, 74, 113
21, 170666, Note_on_c, 14, 86, 113
21, 170666, Note_on_c, 14, 67, 115
21, 170666, Note_on_c, 14, 79, 115
21, 170752, Note_off_c, 14, 74, 0
21, 170752, Note_off_c, 14, 86, 0
21, 170752, Note_off_c, 14, 67, 0
21, 170752, Note_off_c, 14, 79, 0
21, 170752, Note_on_c, 14, 70, 111
21, 170752, Note_on_c, 14, 82, 111
21, 170752, Note_on_c, 14, 70, 127
21, 170752, Note_on_c, 14, 82, 127
21, 170837, Note_off_c, 14, 70, 0
21, 170837, Note_off_c, 14, 82, 0
21, 170837, Note_off_c, 14, 70, 0
21, 170837, Note_off_c, 14, 82, 0
21, 170837, Note_on_c, 14, 67, 109
21, 170837, Note_on_c, 14, 79, 109
21, 170837, Note_on_c, 14, 74, 127
21, 170837, Note_on_c, 14, 86, 127
21, 170922, Note_off_c, 14, 67, 0
21, 170922, Note_off_c, 14, 79, 0
21, 170922, Note_off_c, 14, 74, 0
21, 170922, Note_off_c, 14, 86, 0
21, 170922, Note_on_c, 14, 70, 127
21, 170922, Note_on_c, 14, 82, 127
21, 170922, Note_on_c, 14, 77, 127
21, 170922, Note_on_c, 14, 89, 127
21, 171008, Note_off_c, 14, 70, 0
21, 171008, Note_off_c, 14, 82, 0
21, 171008, Note_off_c, 14, 77, 0
21, 171008, Note_off_c, 14, 89, 0
21, 171008, Note_on_c, 14, 74, 127
21, 171008, Note_on_c, 14, 86, 127
21, 171008, Note_on_c, 14, 74, 117
21, 171008, Note_on_c, 14, 86, 117
21, 171093, Note_off_c, 14, 74, 0
21, 171093, Note_off_c, 14, 86, 0
21, 171093, Note_off_c, 14, 74, 0
21, 171093, Note_off_c, 14, 86, 0
21, 171093, Note_on_c, 14, 77, 127
21, 171093, Note_on_c, 14, 89, 127
21, 171093, Note_on_c, 14, 65, 97
21, 171093, Note_on_c, 14, 77, 97
21, 171178, Note_off_c, 14, 77, 0
21, 171178, Note_off_c, 14, 89, 0
21, 171178, Note_off_c, 14, 65, 0
21, 171178, Note_off_c, 14, 77, 0
21, 171178, Note_on_c, 14, 74, 120
21, 171178, Note_on_c, 14, 86, 120
21, 171178, Note_on_c, 14, 67, 127
21, 171178, Note_on_c, 14, 79, 127
21, 171264, Note_off_c, 14, 74, 0
21, 171264, Note_off_c, 14, 86, 0
21, 171264, Note_off_c, 14, 67, 0
21, 171264, Note_off_c, 14, 79, 0
21, 171264, Note_on_c, 14, 65, 100
21, 171264, Note_on_c, 14, 77, 100
21, 171264, Note_on_c, 14, 65, 120
21, 171264, Note_on_c, 14, 77, 120
21, 171349, Note_off_c, 14, 65, 0
21, 171349, Note_off_c, 14, 77, 0
21, 171349, Note_off_c, 14, 65, 0
21, 171349, Note_off_c, 14, 77, 0
21, 171349, Note_on_c, 14, 67, 124
21, 171349, Note_on_c, 14, 79, 124
21, 171349, Note_on_c, 14, 67, 127
21, 171349, Note_on_c, 14, 79, 127
21, 171434, Note_off_c, 14, 67, 0
21, 171434, Note_off_c, 14, 79, 0
21, 171434, Note_off_c, 14, 67, 0
21, 171434, Note_off_c, 14, 79, 0
21, 171434, Note_on_c, 14, 65, 120
21, 171434, Note_on_c, 14, 77, 120
21, 171434, Note_on_c, 14, 70, 127
21, 171434, Note_on_c, 14, 82, 127
21, 171520, Note_off_c, 14, 65, 0
21, 171520, Note_off_c, 14, 77, 0
21, 171520, Note_off_c, 14, 70, 0
21, 171520, Note_off_c, 14, 82, 0
21, 171520, Note_on_c, 14, 67, 127
21, 171520, Note_on_c, 14, 79, 127
21, 171520, Note_on_c, 14, 74, 127
21, 171520, Note_on_c, 14, 86, 127
21, 171605, Note_off_c, 14, 67, 0
21, 171605, Note_off_c, 14, 79, 0
21, 171605, Note_off_c, 14, 74, 0
21, 171605, Note_off_c, 14, 86, 0
21, 171605, Note_on_c, 14, 70, 127
21, 171605, Note_on_c, 14, 82, 127
21, 171605, Note_on_c, 14, 65, 100
21, 171605, Note_on_c, 14, 77, 100
21, 171690, Note_off_c, 14, 70, 0
21, 171690, Note_off_c, 14, 82, 0
21, 171690, Note_off_c, 14, 65, 0
21, 171690, Note_off_c, 14, 77, 0
21, 171690, Note_on_c, 14, 74, 127
21, 171690, Note_on_c, 14, 86, 127
21, 171690, Note_on_c, 14, 67, 127
21, 171690, Note_on_c, 14, 79, 127
21, 171776, Note_off_c, 14, 74, 0
21, 171776, Note_off_c, 14, 86, 0
21, 171776, Note_off_c, 14, 67, 0
21, 171776, Note_off_c, 14, 79, 0
21, 171776, Note_on_c, 14, 65, 101
21, 171776, Note_on_c, 14, 77, 101
21, 171776, Note_on_c, 14, 65, 120
21, 171776, Note_on_c, 14, 77, 120
21, 171861, Note_off_c, 14, 65, 0
21, 171861, Note_off_c, 14, 77, 0
21, 171861, Note_off_c, 14, 65, 0
21, 171861, Note_off_c, 14, 77, 0
21, 171861, Note_on_c, 14, 67, 127
21, 171861, Note_on_c, 14, 79, 127
21, 171861, Note_on_c, 14, 67, 127
21, 171861, Note_on_c, 14, 79, 127
21, 171946, Note_off_c, 14, 67, 0
21, 171946, Note_off_c, 14, 79, 0
21, 171946, Note_off_c, 14, 67, 0
21, 171946, Note_off_c, 14, 79, 0
21, 171946, Note_on_c, 14, 65, 119
21, 171946, Note_on_c, 14, 77, 119
21, 171946, Note_on_c, 14, 70, 127
21, 171946, Note_on_c, 14, 82, 127
21, 172032, Note_off_c, 14, 65, 0
21, 172032, Note_off_c, 14, 77, 0
21, 172032, Note_off_c, 14, 70, 0
21, 172032, Note_off_c, 14, 82, 0
21, 172032, Note_on_c, 14, 67, 127
21, 172032, Note_on_c, 14, 79, 127
21, 172032, Note_on_c, 14, 62, 100
21, 172032, Note_on_c, 14, 74, 100
21, 172117, Note_off_c, 14, 67, 0
21, 172117, Note_off_c, 14, 79, 0
21, 172117, Note_off_c, 14, 62, 0
21, 172117, Note_off_c, 14, 74, 0
21, 172117, Note_on_c, 14, 70, 127
21, 172117, Note_on_c, 14, 82, 127
21, 172117, Note_on_c, 14, 65, 127
21, 172117, Note_on_c, 14, 77, 127
21, 172202, Note_off_c, 14, 70, 0
21, 172202, Note_off_c, 14, 82, 0
21, 172202, Note_off_c, 14, 65, 0
21, 172202, Note_off_c, 14, 77, 0
21, 172202, Note_on_c, 14, 74, 127
21, 172202, Note_on_c, 14, 86, 127
21, 172202, Note_on_c, 14, 67, 127
21, 172202, Note_on_c, 14, 79, 127
21, 172288, Note_off_c, 14, 74, 0
21, 172288, Note_off_c, 14, 86, 0
21, 172288, Note_off_c, 14, 67, 0
21, 172288, Note_off_c, 14, 79, 0
21, 172288, Note_on_c, 14, 65, 97
21, 172288, Note_on_c, 14, 77, 97
21, 172288, Note_on_c, 14, 65, 120
21, 172288, Note_on_c, 14, 77, 120
21, 172373, Note_off_c, 14, 65, 0
21, 172373, Note_off_c, 14, 77, 0
21, 172373, Note_off_c, 14, 65, 0
21, 172373, Note_off_c, 14, 77, 0
21, 172373, Note_on_c, 14, 67, 127
21, 172373, Note_on_c, 14, 79, 127
21, 172373, Note_on_c, 14, 67, 127
21, 172373, Note_on_c, 14, 79, 127
21, 172458, Note_off_c, 14, 67, 0
21, 172458, Note_off_c, 14, 79, 0
21, 172458, Note_off_c, 14, 67, 0
21, 172458, Note_off_c, 14, 79, 0
21, 172458, Note_on_c, 14, 65, 120
21, 172458, Note_on_c, 14, 77, 120
21, 172458, Note_on_c, 14, 70, 127
21, 172458, Note_on_c, 14, 82, 127
21, 172544, Note_off_c, 14, 65, 0
21, 172544, Note_off_c, 14, 77, 0
21, 172544, Note_off_c, 14, 70, 0
21, 172544, Note_off_c, 14, 82, 0
21, 172544, Note_on_c, 14, 67, 127
21, 172544, Note_on_c, 14, 79, 127
21, 172544, Note_on_c, 14, 74, 127
21, 172544, Note_on_c, 14, 86, 127
21, 172629, Note_off_c, 14, 67, 0
21, 172629, Note_off_c, 14, 79, 0
21, 172629, Note_off_c, 14, 74, 0
21, 172629, Note_off_c, 14, 86, 0
21, 172629, Note_on_c, 14, 70, 127
21, 172629, Note_on_c, 14, 82, 127
21, 172629, Note_on_c, 14, 65, 106
21, 172629, Note_on_c, 14, 77, 106
21, 172714, Note_off_c, 14, 70, 0
21, 172714, Note_off_c, 14, 82, 0
21, 172714, Note_off_c, 14, 65, 0
21, 172714, Note_off_c, 14, 77, 0
21, 172714, Note_on_c, 14, 74, 127
21, 172714, Note_on_c, 14, 86, 127
21, 172714, Note_on_c, 14, 67, 127
21, 172714, Note_on_c, 14, 79, 127
21, 172800, Note_off_c, 14, 74, 0
21, 172800, Note_off_c, 14, 86, 0
21, 172800, Note_off_c, 14, 67, 0
21, 172800, Note_off_c, 14, 79, 0
21, 172800, Note_on_c, 14, 65, 106
21, 172800, Note_on_c, 14, 77, 106
21, 172800, Note_on_c, 14, 65, 116
21, 172800, Note_on_c, 14, 77, 116
21, 172885, Note_off_c, 14, 65, 0
21, 172885, Note_off_c, 14, 77, 0
21, 172885, Note_off_c, 14, 65, 0
21, 172885, Note_off_c, 14, 77, 0
21, 172885, Note_on_c, 14, 67, 127
21, 172885, Note_on_c, 14, 79, 127
21, 172885, Note_on_c, 14, 67, 127
21, 172885, Note_on_c, 14, 79, 127
21, 172970, Note_off_c, 14, 67, 0
21, 172970, Note_off_c, 14, 79, 0
21, 172970, Note_off_c, 14, 67, 0
21, 172970, Note_off_c, 14, 79, 0
21, 172970, Note_on_c, 14, 65, 119
21, 172970, Note_on_c, 14, 77, 119
21, 172970, Note_on_c, 14, 70, 127
21, 172970, Note_on_c, 14, 82, 127
21, 173056, Note_off_c, 14, 65, 0
21, 173056, Note_off_c, 14, 77, 0
21, 173056, Note_off_c, 14, 70, 0
21, 173056, Note_off_c, 14, 82, 0
21, 173056, Note_on_c, 14, 67, 127
21, 173056, Note_on_c, 14, 79, 127
21, 173056, Note_on_c, 14, 74, 127
21, 173056, Note_on_c, 14, 86, 127
21, 173141, Note_off_c, 14, 67, 0
21, 173141, Note_off_c, 14, 79, 0
21, 173141, Note_off_c, 14, 74, 0
21, 173141, Note_off_c, 14, 86, 0
21, 173141, Note_on_c, 14, 70, 127
21, 173141, Note_on_c, 14, 82, 127
21, 173141, Note_on_c, 14, 65, 104
21, 173141, Note_on_c, 14, 77, 104
21, 173226, Note_off_c, 14, 70, 0
21, 173226, Note_off_c, 14, 82, 0
21, 173226, Note_off_c, 14, 65, 0
21, 173226, Note_off_c, 14, 77, 0
21, 173226, Note_on_c, 14, 74, 127
21, 173226, Note_on_c, 14, 86, 127
21, 173226, Note_on_c, 14, 67, 127
21, 173226, Note_on_c, 14, 79, 127
21, 173312, Note_off_c, 14, 74, 0
21, 173312, Note_off_c, 14, 86, 0
21, 173312, Note_off_c, 14, 67, 0
21, 173312, Note_off_c, 14, 79, 0
21, 173312, Note_on_c, 14, 65, 100
21, 173312, Note_on_c, 14, 77, 100
21, 173312, Note_on_c, 14, 74, 127
21, 173312, Note_on_c, 14, 86, 127
21, 173397, Note_off_c, 14, 65, 0
21, 173397, Note_off_c, 14, 77, 0
21, 173397, Note_off_c, 14, 74, 0
21, 173397, Note_off_c, 14, 86, 0
21, 173397, Note_on_c, 14, 67, 127
21, 173397, Note_on_c, 14, 79, 127
21, 173397, Note_on_c, 14, 67, 107
21, 173397, Note_on_c, 14, 79, 107
21, 173482, Note_off_c, 14, 67, 0
21, 173482, Note_off_c, 14, 79, 0
21, 173482, Note_off_c, 14, 67, 0
21, 173482, Note_off_c, 14, 79, 0
21, 173482, Note_on_c, 14, 74, 127
21, 173482, Note_on_c, 14, 86, 127
21, 173482, Note_on_c, 14, 70, 127
21, 173482, Note_on_c, 14, 82, 127
21, 173568, Note_off_c, 14, 74, 0
21, 173568, Note_off_c, 14, 86, 0
21, 173568, Note_off_c, 14, 70, 0
21, 173568, Note_off_c, 14, 82, 0
21, 173568, Note_on_c, 14, 67, 105
21, 173568, Note_on_c, 14, 79, 105
21, 173568, Note_on_c, 14, 74, 127
21, 173568, Note_on_c, 14, 86, 127
21, 173653, Note_off_c, 14, 67, 0
21, 173653, Note_off_c, 14, 79, 0
21, 173653, Note_off_c, 14, 74, 0
21, 173653, Note_off_c, 14, 86, 0
21, 173653, Note_on_c, 14, 70, 127
21, 173653, Note_on_c, 14, 82, 127
21, 173653, Note_on_c, 14, 65, 105
21, 173653, Note_on_c, 14, 77, 105
21, 173738, Note_off_c, 14, 70, 0
21, 173738, Note_off_c, 14, 82, 0
21, 173738, Note_off_c, 14, 65, 0
21, 173738, Note_off_c, 14, 77, 0
21, 173738, Note_on_c, 14, 74, 127
21, 173738, Note_on_c, 14, 86, 127
21, 173738, Note_on_c, 14, 67, 127
21, 173738, Note_on_c, 14, 79, 127
21, 173824, Note_off_c, 14, 74, 0
21, 173824, Note_off_c, 14, 86, 0
21, 173824, Note_off_c, 14, 67, 0
21, 173824, Note_off_c, 14, 79, 0
21, 173824, Note_on_c, 14, 65, 103
21, 173824, Note_on_c, 14, 77, 103
21, 173824, Note_on_c, 14, 74, 127
21, 173824, Note_on_c, 14, 86, 127
21, 173909, Note_off_c, 14, 65, 0
21, 173909, Note_off_c, 14, 77, 0
21, 173909, Note_off_c, 14, 74, 0
21, 173909, Note_off_c, 14, 86, 0
21, 173909, Note_on_c, 14, 67, 127
21, 173909, Note_on_c, 14, 79, 127
21, 173909, Note_on_c, 14, 67, 113
21, 173909, Note_on_c, 14, 79, 113
21, 173994, Note_off_c, 14, 67, 0
21, 173994, Note_off_c, 14, 79, 0
21, 173994, Note_off_c, 14, 67, 0
21, 173994, Note_off_c, 14, 79, 0
21, 173994, Note_on_c, 14, 74, 127
21, 173994, Note_on_c, 14, 86, 127
21, 173994, Note_on_c, 14, 70, 127
21, 173994, Note_on_c, 14, 82, 127
21, 174080, Note_off_c, 14, 74, 0
21, 174080, Note_off_c, 14, 86, 0
21, 174080, Note_off_c, 14, 70, 0
21, 174080, Note_off_c, 14, 82, 0
21, 174080, Note_on_c, 14, 67, 106
21, 174080, Note_on_c, 14, 79, 106
21, 174080, Note_on_c, 14, 74, 127
21, 174080, Note_on_c, 14, 86, 127
21, 174165, Note_off_c, 14, 67, 0
21, 174165, Note_off_c, 14, 79, 0
21, 174165, Note_off_c, 14, 74, 0
21, 174165, Note_off_c, 14, 86, 0
21, 174165, Note_on_c, 14, 70, 127
21, 174165, Note_on_c, 14, 82, 127
21, 174165, Note_on_c, 14, 65, 100
21, 174165, Note_on_c, 14, 77, 100
21, 174250, Note_off_c, 14, 70, 0
21, 174250, Note_off_c, 14, 82, 0
21, 174250, Note_off_c, 14, 65, 0
21, 174250, Note_off_c, 14, 77, 0
21, 174250, Note_on_c, 14, 74, 127
21, 174250, Note_on_c, 14, 86, 127
21, 174250, Note_on_c, 14, 67, 125
21, 174250, Note_on_c, 14, 79, 125
21, 174336, Note_off_c, 14, 74, 0
21, 174336, Note_off_c, 14, 86, 0
21, 174336, Note_off_c, 14, 67, 0
21, 174336, Note_off_c, 14, 79, 0
21, 174336, Note_on_c, 14, 65, 103
21, 174336, Note_on_c, 14, 77, 103
21, 174336, Note_on_c, 14, 74, 127
21, 174336, Note_on_c, 14, 86, 127
21, 174421, Note_off_c, 14, 65, 0
21, 174421, Note_off_c, 14, 77, 0
21, 174421, Note_off_c, 14, 74, 0
21, 174421, Note_off_c, 14, 86, 0
21, 174421, Note_on_c, 14, 67, 127
21, 174421, Note_on_c, 14, 79, 127
21, 174421, Note_on_c, 14, 67, 109
21, 174421, Note_on_c, 14, 79, 109
21, 174506, Note_off_c, 14, 67, 0
21, 174506, Note_off_c, 14, 79, 0
21, 174506, Note_off_c, 14, 67, 0
21, 174506, Note_off_c, 14, 79, 0
21, 174506, Note_on_c, 14, 74, 127
21, 174506, Note_on_c, 14, 86, 127
21, 174506, Note_on_c, 14, 70, 127
21, 174506, Note_on_c, 14, 82, 127
21, 174592, Note_off_c, 14, 74, 0
21, 174592, Note_off_c, 14, 86, 0
21, 174592, Note_off_c, 14, 70, 0
21, 174592, Note_off_c, 14, 82, 0
21, 174592, Note_on_c, 14, 67, 112
21, 174592, Note_on_c, 14, 79, 112
21, 174592, Note_on_c, 14, 74, 127
21, 174592, Note_on_c, 14, 86, 127
21, 174677, Note_off_c, 14, 67, 0
21, 174677, Note_off_c, 14, 79, 0
21, 174677, Note_off_c, 14, 74, 0
21, 174677, Note_off_c, 14, 86, 0
21, 174677, Note_on_c, 14, 70, 127
21, 174677, Note_on_c, 14, 82, 127
21, 174677, Note_on_c, 14, 65, 97
21, 174677, Note_on_c, 14, 77, 97
21, 174762, Note_off_c, 14, 70, 0
21, 174762, Note_off_c, 14, 82, 0
21, 174762, Note_off_c, 14, 65, 0
21, 174762, Note_off_c, 14, 77, 0
21, 174762, Note_on_c, 14, 74, 127
21, 174762, Note_on_c, 14, 86, 127
21, 174762, Note_on_c, 14, 67, 127
21, 174762, Note_on_c, 14, 79, 127
21, 174848, Note_off_c, 14, 74, 0
21, 174848, Note_off_c, 14, 86, 0
21, 174848, Note_off_c, 14, 67, 0
21, 174848, Note_off_c, 14, 79, 0
21, 174848, Note_on_c, 14, 65, 98
21, 174848, Note_on_c, 14, 77, 98
21, 174848, Note_on_c, 14, 74, 127
21, 174848, Note_on_c, 14, 86, 127
21, 174933, Note_off_c, 14, 65, 0
21, 174933, Note_off_c, 14, 77, 0
21, 174933, Note_off_c, 14, 74, 0
21, 174933, Note_off_c, 14, 86, 0
21, 174933, Note_on_c, 14, 67, 127
21, 174933, Note_on_c, 14, 79, 127
21, 174933, Note_on_c, 14, 67, 111
21, 174933, Note_on_c, 14, 79, 111
21, 175018, Note_off_c, 14, 67, 0
21, 175018, Note_off_c, 14, 79, 0
21, 175018, Note_off_c, 14, 67, 0
21, 175018, Note_off_c, 14, 79, 0
21, 175018, Note_on_c, 14, 74, 127
21, 175018, Note_on_c, 14, 86, 127
21, 175018, Note_on_c, 14, 70, 127
21, 175018, Note_on_c, 14, 82, 127
21, 175104, Note_off_c, 14, 74, 0
21, 175104, Note_off_c, 14, 86, 0
21, 175104, Note_off_c, 14, 70, 0
21, 175104, Note_off_c, 14, 82, 0
21, 175104, Note_on_c, 14, 67, 108
21, 175104, Note_on_c, 14, 79, 108
21, 175104, Note_on_c, 14, 74, 127
21, 175104, Note_on_c, 14, 86, 127
21, 175189, Note_off_c, 14, 67, 0
21, 175189, Note_off_c, 14, 79, 0
21, 175189, Note_off_c, 14, 74, 0
21, 175189, Note_off_c, 14, 86, 0
21, 175189, Note_on_c, 14, 70, 127
21, 175189, Note_on_c, 14, 82, 127
21, 175189, Note_on_c, 14, 65, 99
21, 175189, Note_on_c, 14, 77, 99
21, 175274, Note_off_c, 14, 70, 0
21, 175274, Note_off_c, 14, 82, 0
21, 175274, Note_off_c, 14, 65, 0
21, 175274, Note_off_c, 14, 77, 0
21, 175274, Note_on_c, 14, 74, 127
21, 175274, Note_on_c, 14, 86, 127
21, 175274, Note_on_c, 14, 67, 127
21, 175274, Note_on_c, 14, 79, 127
21, 175360, Note_off_c, 14, 74, 0
21, 175360, Note_off_c, 14, 86, 0
21, 175360, Note_off_c, 14, 67, 0
21, 175360, Note_off_c, 14, 79, 0
21, 175360, Note_on_c, 14, 65, 104
21, 175360, Note_on_c, 14, 77, 104
21, 175360, Note_on_c, 14, 74, 127
21, 175360, Note_on_c, 14, 86, 127
21, 175445, Note_off_c, 14, 65, 0
21, 175445, Note_off_c, 14, 77, 0
21, 175445, Note_off_c, 14, 74, 0
21, 175445, Note_off_c, 14, 86, 0
21, 175445, Note_on_c, 14, 67, 127
21, 175445, Note_on_c, 14, 79, 127
21, 175445, Note_on_c, 14, 67, 108
21, 175445, Note_on_c, 14, 79, 108
21, 175530, Note_off_c, 14, 67, 0
21, 175530, Note_off_c, 14, 79, 0
21, 175530, Note_off_c, 14, 67, 0
21, 175530, Note_off_c, 14, 79, 0
21, 175530, Note_on_c, 14, 74, 127
21, 175530, Note_on_c, 14, 86, 127
21, 175530, Note_on_c, 14, 70, 127
21, 175530, Note_on_c, 14, 82, 127
21, 175616, Note_off_c, 14, 74, 0
21, 175616, Note_off_c, 14, 86, 0
21, 175616, Note_off_c, 14, 70, 0
21, 175616, Note_off_c, 14, 82, 0
21, 175616, Note_on_c, 14, 67, 110
21, 175616, Note_on_c, 14, 79, 110
21, 175616, Note_on_c, 14, 74, 127
21, 175616, Note_on_c, 14, 86, 127
21, 175701, Note_off_c, 14, 67, 0
21, 175701, Note_off_c, 14, 79, 0
21, 175701, Note_off_c, 14, 74, 0
21, 175701, Note_off_c, 14, 86, 0
21, 175701, Note_on_c, 14, 70, 127
21, 175701, Note_on_c, 14, 82, 127
21, 175701, Note_on_c, 14, 65, 103
21, 175701, Note_on_c, 14, 77, 103
21, 175786, Note_off_c, 14, 70, 0
21, 175786, Note_off_c, 14, 82, 0
21, 175786, Note_off_c, 14, 65, 0
21, 175786, Note_off_c, 14, 77, 0
21, 175786, Note_on_c, 14, 74, 127
21, 175786, Note_on_c, 14, 86, 127
21, 175786, Note_on_c, 14, 67, 127
21, 175786, Note_on_c, 14, 79, 127
21, 175872, Note_off_c, 14, 74, 0
21, 175872, Note_off_c, 14, 86, 0
21, 175872, Note_off_c, 14, 67, 0
21, 175872, Note_off_c, 14, 79, 0
21, 175872, Note_on_c, 14, 65, 100
21, 175872, Note_on_c, 14, 77, 100
21, 175872, Note_on_c, 14, 74, 127
21, 175872, Note_on_c, 14, 86, 127
21, 175957, Note_off_c, 14, 65, 0
21, 175957, Note_off_c, 14, 77, 0
21, 175957, Note_off_c, 14, 74, 0
21, 175957, Note_off_c, 14, 86, 0
21, 175957, Note_on_c, 14, 67, 127
21, 175957, Note_on_c, 14, 79, 127
21, 175957, Note_on_c, 14, 67, 107
21, 175957, Note_on_c, 14, 79, 107
21, 176042, Note_off_c, 14, 67, 0
21, 176042, Note_off_c, 14, 79, 0
21, 176042, Note_off_c, 14, 67, 0
21, 176042, Note_off_c, 14, 79, 0
21, 176042, Note_on_c, 14, 74, 127
21, 176042, Note_on_c, 14, 86, 127
21, 176042, Note_on_c, 14, 70, 127
21, 176042, Note_on_c, 14, 82, 127
21, 176128, Note_off_c, 14, 74, 0
21, 176128, Note_off_c, 14, 86, 0
21, 176128, Note_off_c, 14, 70, 0
21, 176128, Note_off_c, 14, 82, 0
21, 176128, Note_on_c, 14, 79, 98
21, 176213, Note_off_c, 14, 79, 0
21, 176213, Note_on_c, 14, 82, 120
21, 176298, Note_off_c, 14, 82, 0
21, 176298, Note_on_c, 14, 77, 101
21, 176298, Note_on_c, 14, 79, 101
21, 176384, Note_off_c, 14, 77, 0
21, 176384, Note_off_c, 14, 79, 0
21, 176384, Note_on_c, 14, 82, 118
21, 176469, Note_off_c, 14, 82, 0
21, 176469, Note_on_c, 14, 77, 108
21, 176469, Note_on_c, 14, 79, 108
21, 176554, Note_off_c, 14, 77, 0
21, 176554, Note_off_c, 14, 79, 0
21, 176554, Note_on_c, 14, 82, 123
21, 176640, Note_off_c, 14, 82, 0
21, 176640, Note_on_c, 14, 77, 108
21, 176640, Note_on_c, 14, 79, 108
21, 176725, Note_off_c, 14, 77, 0
21, 176725, Note_off_c, 14, 79, 0
21, 176725, Note_on_c, 14, 82, 120
21, 176810, Note_off_c, 14, 82, 0
21, 176810, Note_on_c, 14, 77, 103
21, 176810, Note_on_c, 14, 79, 103
21, 176896, Note_off_c, 14, 77, 0
21, 176896, Note_off_c, 14, 79, 0
21, 176896, Note_on_c, 14, 82, 122
21, 176981, Note_off_c, 14, 82, 0
21, 176981, Note_on_c, 14, 77, 99
21, 176981, Note_on_c, 14, 79, 99
21, 177066, Note_off_c, 14, 77, 0
21, 177066, Note_off_c, 14, 79, 0
21, 177066, Note_on_c, 14, 82, 121
21, 177152, Note_off_c, 14, 82, 0
21, 177152, Note_on_c, 14, 77, 104
21, 177152, Note_on_c, 14, 79, 104
21, 177237, Note_off_c, 14, 77, 0
21, 177237, Note_off_c, 14, 79, 0
21, 177237, Note_on_c, 14, 82, 126
21, 177322, Note_off_c, 14, 82, 0
21, 177322, Note_on_c, 14, 77, 103
21, 177322, Note_on_c, 14, 79, 103
21, 177408, Note_off_c, 14, 77, 0
21, 177408, Note_off_c, 14, 79, 0
21, 177408, Note_on_c, 14, 82, 124
21, 177493, Note_off_c, 14, 82, 0
21, 177493, Note_on_c, 14, 77, 102
21, 177493, Note_on_c, 14, 79, 102
21, 177578, Note_off_c, 14, 77, 0
21, 177578, Note_off_c, 14, 79, 0
21, 177578, Note_on_c, 14, 82, 121
21, 177664, Note_off_c, 14, 82, 0
21, 177664, Note_on_c, 14, 77, 103
21, 177664, Note_on_c, 14, 79, 103
21, 177749, Note_off_c, 14, 77, 0
21, 177749, Note_off_c, 14, 79, 0
21, 177749, Note_on_c, 14, 82, 125
21, 177834, Note_off_c, 14, 82, 0
21, 177834, Note_on_c, 14, 77, 105
21, 177834, Note_on_c, 14, 79, 105
21, 177920, Note_off_c, 14, 77, 0
21, 177920, Note_off_c, 14, 79, 0
21, 177920, Note_on_c, 14, 82, 119
21, 178005, Note_off_c, 14, 82, 0
21, 178005, Note_on_c, 14, 77, 109
21, 178005, Note_on_c, 14, 79, 109
21, 178090, Note_off_c, 14, 77, 0
21, 178090, Note_off_c, 14, 79, 0
21, 178090, Note_on_c, 14, 82, 120
21, 178176, Note_off_c, 14, 82, 0
21, 178176, Note_on_c, 14, 77, 103
21, 178176, Note_on_c, 14, 79, 103
21, 178261, Note_off_c, 14, 77, 0
21, 178261, Note_off_c, 14, 79, 0
21, 178261, Note_on_c, 14, 82, 127
21, 178346, Note_off_c, 14, 82, 0
21, 178346, Note_on_c, 14, 77, 103
21, 178346, Note_on_c, 14, 79, 103
21, 178432, Note_off_c, 14, 77, 0
21, 178432, Note_off_c, 14, 79, 0
21, 178432, Note_on_c, 14, 82, 123
21, 178517, Note_off_c, 14, 82, 0
21, 178517, Note_on_c, 14, 77, 102
21, 178517, Note_on_c, 14, 79, 102
21, 178602, Note_off_c, 14, 77, 0
21, 178602, Note_off_c, 14, 79, 0
21, 178602, Note_on_c, 14, 82, 119
21, 178688, Note_off_c, 14, 82, 0
21, 178688, Note_on_c, 14, 77, 105
21, 178688, Note_on_c, 14, 79, 105
21, 178773, Note_off_c, 14, 77, 0
21, 178773, Note_off_c, 14, 79, 0
21, 178773, Note_on_c, 14, 82, 120
21, 178858, Note_off_c, 14, 82, 0
21, 178858, Note_on_c, 14, 77, 109
21, 178858, Note_on_c, 14, 79, 109
21, 178944, Note_off_c, 14, 77, 0
21, 178944, Note_off_c, 14, 79, 0
21, 178944, Note_on_c, 14, 82, 119
21, 179029, Note_off_c, 14, 82, 0
21, 179029, Note_on_c, 14, 77, 105
21, 179029, Note_on_c, 14, 79, 105
21, 179114, Note_off_c, 14, 77, 0
21, 179114, Note_off_c, 14, 79, 0
21, 179114, Note_on_c, 14, 82, 121
21, 179200, Note_off_c, 14, 82, 0
21, 179200, Note_on_c, 14, 77, 107
21, 179200, Note_on_c, 14, 79, 107
21, 179285, Note_off_c, 14, 77, 0
21, 179285, Note_off_c, 14, 79, 0
21, 179285, Note_on_c, 14, 82, 118
21, 179370, Note_off_c, 14, 82, 0
21, 179370, Note_on_c, 14, 77, 107
21, 179370, Note_on_c, 14, 79, 107
21, 179456, Note_off_c, 14, 77, 0
21, 179456, Note_off_c, 14, 79, 0
21, 179456, Note_on_c, 14, 82, 119
21, 179541, Note_off_c, 14, 82, 0
21, 179541, Note_on_c, 14, 77, 107
21, 179541, Note_on_c, 14, 79, 107
21, 179626, Note_off_c, 14, 77, 0
21, 179626, Note_off_c, 14, 79, 0
21, 179626, Note_on_c, 14, 82, 121
21, 179712, Note_off_c, 14, 82, 0
21, 179712, Note_on_c, 14, 77, 101
21, 179712, Note_on_c, 14, 79, 101
21, 179797, Note_off_c, 14, 77, 0
21, 179797, Note_off_c, 14, 79, 0
21, 179797, Note_on_c, 14, 82, 125
21, 179882, Note_off_c, 14, 82, 0
21, 179882, Note_on_c, 14, 77, 105
21, 179882, Note_on_c, 14, 79, 105
21, 179968, Note_off_c, 14, 77, 0
21, 179968, Note_off_c, 14, 79, 0
21, 179968, Note_on_c, 14, 82, 122
21, 180053, Note_off_c, 14, 82, 0
21, 180053, Note_on_c, 14, 77, 104
21, 180053, Note_on_c, 14, 79, 104
21, 180138, Note_off_c, 14, 77, 0
21, 180138, Note_off_c, 14, 79, 0
21, 180138, Note_on_c, 14, 82, 120
21, 180224, Note_off_c, 14, 82, 0
21, 180224, Note_on_c, 14, 77, 103
21, 180224, Note_on_c, 14, 79, 103
21, 180309, Note_off_c, 14, 77, 0
21, 180309, Note_off_c, 14, 79, 0
21, 180309, Note_on_c, 14, 82, 121
21, 180394, Note_off_c, 14, 82, 0
21, 180394, Note_on_c, 14, 77, 101
21, 180394, Note_on_c, 14, 79, 101
21, 180480, Note_off_c, 14, 77, 0
21, 180480, Note_off_c, 14, 79, 0
21, 180480, Note_on_c, 14, 83, 123
21, 180480, Note_on_c, 14, 67, 104
21, 180480, Note_on_c, 14, 71, 104
21, 180565, Note_off_c, 14, 83, 0
21, 180565, Note_off_c, 14, 67, 0
21, 180565, Note_off_c, 14, 71, 0
21, 180565, Note_on_c, 14, 77, 103
21, 180565, Note_on_c, 14, 79, 103
21, 180565, Note_on_c, 14, 65, 97
21, 180565, Note_on_c, 14, 67, 97
21, 180650, Note_off_c, 14, 77, 0
21, 180650, Note_off_c, 14, 79, 0
21, 180650, Note_off_c, 14, 65, 0
21, 180650, Note_off_c, 14, 67, 0
21, 180650, Note_on_c, 14, 79, 127
21, 180650, Note_on_c, 14, 83, 127
21, 180650, Note_on_c, 14, 67, 123
21, 180650, Note_on_c, 14, 71, 123
21, 180736, Note_off_c, 14, 79, 0
21, 180736, Note_off_c, 14, 83, 0
21, 180736, Note_off_c, 14, 67, 0
21, 180736, Note_off_c, 14, 71, 0
21, 180736, Note_on_c, 14, 77, 106
21, 180736, Note_on_c, 14, 79, 106
21, 180736, Note_on_c, 14, 65, 102
21, 180736, Note_on_c, 14, 67, 102
21, 180821, Note_off_c, 14, 77, 0
21, 180821, Note_off_c, 14, 79, 0
21, 180821, Note_off_c, 14, 65, 0
21, 180821, Note_off_c, 14, 67, 0
21, 180821, Note_on_c, 14, 79, 125
21, 180821, Note_on_c, 14, 83, 125
21, 180821, Note_on_c, 14, 67, 123
21, 180821, Note_on_c, 14, 71, 123
21, 180906, Note_off_c, 14, 79, 0
21, 180906, Note_off_c, 14, 83, 0
21, 180906, Note_off_c, 14, 67, 0
21, 180906, Note_off_c, 14, 71, 0
21, 180906, Note_on_c, 14, 77, 107
21, 180906, Note_on_c, 14, 79, 107
21, 180906, Note_on_c, 14, 65, 98
21, 180906, Note_on_c, 14, 67, 98
21, 180992, Note_off_c, 14, 77, 0
21, 180992, Note_off_c, 14, 79, 0
21, 180992, Note_off_c, 14, 65, 0
21, 180992, Note_off_c, 14, 67, 0
21, 180992, Note_on_c, 14, 79, 119
21, 180992, Note_on_c, 14, 83, 119
21, 180992, Note_on_c, 14, 67, 121
21, 180992, Note_on_c, 14, 71, 121
21, 181077, Note_off_c, 14, 79, 0
21, 181077, Note_off_c, 14, 83, 0
21, 181077, Note_off_c, 14, 67, 0
21, 181077, Note_off_c, 14, 71, 0
21, 181077, Note_on_c, 14, 77, 100
21, 181077, Note_on_c, 14, 79, 100
21, 181077, Note_on_c, 14, 65, 104
21, 181077, Note_on_c, 14, 67, 104
21, 181162, Note_off_c, 14, 77, 0
21, 181162, Note_off_c, 14, 79, 0
21, 181162, Note_off_c, 14, 65, 0
21, 181162, Note_off_c, 14, 67, 0
21, 181162, Note_on_c, 14, 83, 124
21, 181162, Note_on_c, 14, 84, 124
21, 181162, Note_on_c, 14, 71, 127
21, 181162, Note_on_c, 14, 74, 127
21, 181248, Note_off_c, 14, 83, 0
21, 181248, Note_off_c, 14, 84, 0
21, 181248, Note_off_c, 14, 71, 0
21, 181248, Note_off_c, 14, 74, 0
21, 181248, Note_on_c, 14, 77, 98
21, 181248, Note_on_c, 14, 79, 98
21, 181248, Note_on_c, 14, 65, 97
21, 181248, Note_on_c, 14, 67, 97
21, 181333, Note_off_c, 14, 77, 0
21, 181333, Note_off_c, 14, 79, 0
21, 181333, Note_off_c, 14, 65, 0
21, 181333, Note_off_c, 14, 67, 0
21, 181333, Note_on_c, 14, 79, 122
21, 181333, Note_on_c, 14, 83, 122
21, 181333, Note_on_c, 14, 67, 120
21, 181333, Note_on_c, 14, 71, 120
21, 181418, Note_off_c, 14, 79, 0
21, 181418, Note_off_c, 14, 83, 0
21, 181418, Note_off_c, 14, 67, 0
21, 181418, Note_off_c, 14, 71, 0
21, 181418, Note_on_c, 14, 77, 104
21, 181418, Note_on_c, 14, 79, 104
21, 181418, Note_on_c, 14, 65, 104
21, 181418, Note_on_c, 14, 67, 104
21, 181504, Note_off_c, 14, 77, 0
21, 181504, Note_off_c, 14, 79, 0
21, 181504, Note_off_c, 14, 65, 0
21, 181504, Note_off_c, 14, 67, 0
21, 181504, Note_on_c, 14, 79, 125
21, 181504, Note_on_c, 14, 83, 125
21, 181504, Note_on_c, 14, 67, 124
21, 181504, Note_on_c, 14, 71, 124
21, 181589, Note_off_c, 14, 79, 0
21, 181589, Note_off_c, 14, 83, 0
21, 181589, Note_off_c, 14, 67, 0
21, 181589, Note_off_c, 14, 71, 0
21, 181589, Note_on_c, 14, 77, 102
21, 181589, Note_on_c, 14, 79, 102
21, 181589, Note_on_c, 14, 65, 106
21, 181589, Note_on_c, 14, 67, 106
21, 181674, Note_off_c, 14, 77, 0
21, 181674, Note_off_c, 14, 79, 0
21, 181674, Note_off_c, 14, 65, 0
21, 181674, Note_off_c, 14, 67, 0
21, 181674, Note_on_c, 14, 83, 123
21, 181674, Note_on_c, 14, 84, 123
21, 181674, Note_on_c, 14, 71, 127
21, 181674, Note_on_c, 14, 72, 127
21, 181760, Note_off_c, 14, 83, 0
21, 181760, Note_off_c, 14, 84, 0
21, 181760, Note_off_c, 14, 71, 0
21, 181760, Note_off_c, 14, 72, 0
21, 181760, Note_on_c, 14, 77, 100
21, 181760, Note_on_c, 14, 79, 100
21, 181760, Note_on_c, 14, 65, 96
21, 181760, Note_on_c, 14, 67, 96
21, 181845, Note_off_c, 14, 77, 0
21, 181845, Note_off_c, 14, 79, 0
21, 181845, Note_off_c, 14, 65, 0
21, 181845, Note_off_c, 14, 67, 0
21, 181845, Note_on_c, 14, 79, 119
21, 181845, Note_on_c, 14, 83, 119
21, 181845, Note_on_c, 14, 67, 126
21, 181845, Note_on_c, 14, 71, 126
21, 181930, Note_off_c, 14, 79, 0
21, 181930, Note_off_c, 14, 83, 0
21, 181930, Note_off_c, 14, 67, 0
21, 181930, Note_off_c, 14, 71, 0
21, 181930, Note_on_c, 14, 77, 103
21, 181930, Note_on_c, 14, 79, 103
21, 181930, Note_on_c, 14, 65, 100
21, 181930, Note_on_c, 14, 67, 100
21, 182016, Note_off_c, 14, 77, 0
21, 182016, Note_off_c, 14, 79, 0
21, 182016, Note_off_c, 14, 65, 0
21, 182016, Note_off_c, 14, 67, 0
21, 182016, Note_on_c, 14, 83, 127
21, 182016, Note_on_c, 14, 84, 127
21, 182016, Note_on_c, 14, 71, 127
21, 182016, Note_on_c, 14, 72, 127
21, 182101, Note_off_c, 14, 83, 0
21, 182101, Note_off_c, 14, 84, 0
21, 182101, Note_off_c, 14, 71, 0
21, 182101, Note_off_c, 14, 72, 0
21, 182101, Note_on_c, 14, 84, 122
21, 182101, Note_on_c, 14, 86, 122
21, 182101, Note_on_c, 14, 72, 125
21, 182101, Note_on_c, 14, 74, 125
21, 182186, Note_off_c, 14, 84, 0
21, 182186, Note_off_c, 14, 86, 0
21, 182186, Note_off_c, 14, 72, 0
21, 182186, Note_off_c, 14, 74, 0
21, 182186, Note_on_c, 14, 83, 107
21, 182186, Note_on_c, 14, 84, 107
21, 182186, Note_on_c, 14, 71, 106
21, 182186, Note_on_c, 14, 72, 106
21, 182272, Note_off_c, 14, 83, 0
21, 182272, Note_off_c, 14, 84, 0
21, 182272, Note_off_c, 14, 71, 0
21, 182272, Note_off_c, 14, 72, 0
21, 182272, Note_on_c, 14, 84, 126
21, 182272, Note_on_c, 14, 86, 126
21, 182272, Note_on_c, 14, 72, 121
21, 182272, Note_on_c, 14, 74, 121
21, 182357, Note_off_c, 14, 84, 0
21, 182357, Note_off_c, 14, 86, 0
21, 182357, Note_off_c, 14, 72, 0
21, 182357, Note_off_c, 14, 74, 0
21, 182357, Note_on_c, 14, 83, 110
21, 182357, Note_on_c, 14, 84, 110
21, 182357, Note_on_c, 14, 71, 105
21, 182357, Note_on_c, 14, 72, 105
21, 182442, Note_off_c, 14, 83, 0
21, 182442, Note_off_c, 14, 84, 0
21, 182442, Note_off_c, 14, 71, 0
21, 182442, Note_off_c, 14, 72, 0
21, 182442, Note_on_c, 14, 77, 93
21, 182442, Note_on_c, 14, 79, 93
21, 182442, Note_on_c, 14, 65, 91
21, 182442, Note_on_c, 14, 67, 91
21, 182528, Note_off_c, 14, 77, 0
21, 182528, Note_off_c, 14, 79, 0
21, 182528, Note_off_c, 14, 65, 0
21, 182528, Note_off_c, 14, 67, 0
21, 182528, Note_on_c, 14, 83, 121
21, 182528, Note_on_c, 14, 84, 121
21, 182528, Note_on_c, 14, 71, 126
21, 182528, Note_on_c, 14, 72, 126
21, 182613, Note_off_c, 14, 83, 0
21, 182613, Note_off_c, 14, 84, 0
21, 182613, Note_off_c, 14, 71, 0
21, 182613, Note_off_c, 14, 72, 0
21, 182613, Note_on_c, 14, 77, 104
21, 182613, Note_on_c, 14, 79, 104
21, 182613, Note_on_c, 14, 65, 99
21, 182613, Note_on_c, 14, 67, 99
21, 182698, Note_off_c, 14, 77, 0
21, 182698, Note_off_c, 14, 79, 0
21, 182698, Note_off_c, 14, 65, 0
21, 182698, Note_off_c, 14, 67, 0
21, 182698, Note_on_c, 14, 86, 127
21, 182698, Note_on_c, 14, 88, 127
21, 182698, Note_on_c, 14, 72, 127
21, 182698, Note_on_c, 14, 74, 127
21, 182784, Note_off_c, 14, 86, 0
21, 182784, Note_off_c, 14, 88, 0
21, 182784, Note_off_c, 14, 72, 0
21, 182784, Note_off_c, 14, 74, 0
21, 182784, Note_on_c, 14, 83, 101
21, 182784, Note_on_c, 14, 84, 101
21, 182784, Note_on_c, 14, 71, 108
21, 182784, Note_on_c, 14, 72, 108
21, 182869, Note_off_c, 14, 83, 0
21, 182869, Note_off_c, 14, 84, 0
21, 182869, Note_off_c, 14, 71, 0
21, 182869, Note_off_c, 14, 72, 0
21, 182869, Note_on_c, 14, 79, 110
21, 182869, Note_on_c, 14, 83, 110
21, 182869, Note_on_c, 14, 67, 108
21, 182869, Note_on_c, 14, 71, 108
21, 182954, Note_off_c, 14, 79, 0
21, 182954, Note_off_c, 14, 83, 0
21, 182954, Note_off_c, 14, 67, 0
21, 182954, Note_off_c, 14, 71, 0
21, 182954, Note_on_c, 14, 77, 102
21, 182954, Note_on_c, 14, 79, 102
21, 182954, Note_on_c, 14, 65, 101
21, 182954, Note_on_c, 14, 67, 101
21, 183040, Note_off_c, 14, 77, 0
21, 183040, Note_off_c, 14, 79, 0
21, 183040, Note_off_c, 14, 65, 0
21, 183040, Note_off_c, 14, 67, 0
21, 183040, Note_on_c, 14, 74, 107
21, 183040, Note_on_c, 14, 79, 107
21, 183040, Note_on_c, 14, 62, 109
21, 183040, Note_on_c, 14, 67, 109
21, 183125, Note_off_c, 14, 74, 0
21, 183125, Note_off_c, 14, 79, 0
21, 183125, Note_off_c, 14, 62, 0
21, 183125, Note_off_c, 14, 67, 0
21, 183125, Note_on_c, 14, 72, 109
21, 183125, Note_on_c, 14, 77, 109
21, 183125, Note_on_c, 14, 60, 106
21, 183125, Note_on_c, 14, 65, 106
21, 183210, Note_off_c, 14, 72, 0
21, 183210, Note_off_c, 14, 77, 0
21, 183210, Note_off_c, 14, 60, 0
21, 183210, Note_off_c, 14, 65, 0
21, 183210, Note_on_c, 14, 83, 127
21, 183210, Note_on_c, 14, 84, 127
21, 183210, Note_on_c, 14, 71, 127
21, 183210, Note_on_c, 14, 72, 127
21, 183296, Note_off_c, 14, 83, 0
21, 183296, Note_off_c, 14, 84, 0
21, 183296, Note_off_c, 14, 71, 0
21, 183296, Note_off_c, 14, 72, 0
21, 183296, Note_on_c, 14, 79, 113
21, 183296, Note_on_c, 14, 83, 113
21, 183296, Note_on_c, 14, 67, 105
21, 183296, Note_on_c, 14, 71, 105
21, 183424, Note_off_c, 14, 79, 0
21, 183424, Note_off_c, 14, 83, 0
21, 183424, Note_off_c, 14, 67, 0
21, 183424, Note_off_c, 14, 71, 0
21, 183424, Note_on_c, 14, 77, 103
21, 183424, Note_on_c, 14, 81, 103
21, 183424, Note_on_c, 14, 65, 101
21, 183424, Note_on_c, 14, 67, 101
21, 183552, Note_off_c, 14, 77, 0
21, 183552, Note_off_c, 14, 81, 0
21, 183552, Note_off_c, 14, 65, 0
21, 183552, Note_off_c, 14, 67, 0
21, 183552, Note_on_c, 14, 83, 120
21, 183552, Note_on_c, 14, 84, 120
21, 183552, Note_on_c, 14, 71, 127
21, 183552, Note_on_c, 14, 72, 127
21, 183680, Note_off_c, 14, 83, 0
21, 183680, Note_off_c, 14, 84, 0
21, 183680, Note_off_c, 14, 71, 0
21, 183680, Note_off_c, 14, 72, 0
21, 183680, Note_on_c, 14, 79, 111
21, 183680, Note_on_c, 14, 83, 111
21, 183680, Note_on_c, 14, 67, 111
21, 183680, Note_on_c, 14, 71, 111
21, 183808, Note_off_c, 14, 79, 0
21, 183808, Note_off_c, 14, 83, 0
21, 183808, Note_off_c, 14, 67, 0
21, 183808, Note_off_c, 14, 71, 0
21, 183808, Note_on_c, 14, 77, 100
21, 183808, Note_on_c, 14, 79, 100
21, 183808, Note_on_c, 14, 65, 103
21, 183808, Note_on_c, 14, 67, 103
21, 183936, Note_off_c, 14, 77, 0
21, 183936, Note_off_c, 14, 79, 0
21, 183936, Note_off_c, 14, 65, 0
21, 183936, Note_off_c, 14, 67, 0
21, 183936, Note_on_c, 14, 83, 127
21, 183936, Note_on_c, 14, 84, 127
21, 183936, Note_on_c, 14, 71, 127
21, 183936, Note_on_c, 14, 72, 127
21, 184064, Note_off_c, 14, 83, 0
21, 184064, Note_off_c, 14, 84, 0
21, 184064, Note_off_c, 14, 71, 0
21, 184064, Note_off_c, 14, 72, 0
21, 184064, Note_on_c, 14, 84, 121
21, 184064, Note_on_c, 14, 86, 121
21, 184064, Note_on_c, 14, 72, 123
21, 184064, Note_on_c, 14, 74, 123
21, 184192, Note_off_c, 14, 84, 0
21, 184192, Note_off_c, 14, 86, 0
21, 184192, Note_off_c, 14, 72, 0
21, 184192, Note_off_c, 14, 74, 0
21, 184192, Note_on_c, 14, 79, 103
21, 184192, Note_on_c, 14, 83, 103
21, 184192, Note_on_c, 14, 67, 106
21, 184192, Note_on_c, 14, 71, 106
21, 184320, Note_off_c, 14, 79, 0
21, 184320, Note_off_c, 14, 83, 0
21, 184320, Note_off_c, 14, 67, 0
21, 184320, Note_off_c, 14, 71, 0
21, 184320, Note_on_c, 14, 83, 117
21, 184320, Note_on_c, 14, 84, 117
21, 184320, Note_on_c, 14, 72, 115
21, 184448, Note_off_c, 14, 83, 0
21, 184448, Note_off_c, 14, 84, 0
21, 184448, Note_off_c, 14, 72, 0
21, 184448, Note_on_c, 14, 84, 122
21, 184448, Note_on_c, 14, 86, 122
21, 184448, Note_on_c, 14, 74, 121
21, 184576, Note_off_c, 14, 84, 0
21, 184576, Note_off_c, 14, 86, 0
21, 184576, Note_off_c, 14, 74, 0
21, 184576, Note_on_c, 14, 83, 106
21, 184576, Note_on_c, 14, 84, 106
21, 184576, Note_on_c, 14, 72, 111
21, 184704, Note_off_c, 14, 83, 0
21, 184704, Note_off_c, 14, 84, 0
21, 184704, Note_off_c, 14, 72, 0
21, 184704, Note_on_c, 14, 84, 121
21, 184704, Note_on_c, 14, 86, 121
21, 184704, Note_on_c, 14, 74, 122
21, 184832, Note_off_c, 14, 84, 0
21, 184832, Note_off_c, 14, 86, 0
21, 184832, Note_off_c, 14, 74, 0
21, 184832, Note_on_c, 14, 83, 112
21, 184832, Note_on_c, 14, 84, 112
21, 184832, Note_on_c, 14, 72, 107
21, 184960, Note_off_c, 14, 83, 0
21, 184960, Note_off_c, 14, 84, 0
21, 184960, Note_off_c, 14, 72, 0
21, 184960, Note_on_c, 14, 84, 121
21, 184960, Note_on_c, 14, 86, 121
21, 184960, Note_on_c, 14, 74, 119
21, 185088, Note_off_c, 14, 84, 0
21, 185088, Note_off_c, 14, 86, 0
21, 185088, Note_off_c, 14, 74, 0
21, 185088, Note_on_c, 14, 83, 109
21, 185088, Note_on_c, 14, 84, 109
21, 185088, Note_on_c, 14, 72, 111
21, 185216, Note_off_c, 14, 83, 0
21, 185216, Note_off_c, 14, 84, 0
21, 185216, Note_off_c, 14, 72, 0
21, 185216, Note_on_c, 14, 84, 120
21, 185216, Note_on_c, 14, 86, 120
21, 185216, Note_on_c, 14, 74, 120
21, 185344, Note_off_c, 14, 84, 0
21, 185344, Note_off_c, 14, 86, 0
21, 185344, Note_off_c, 14, 74, 0
21, 185344, Note_on_c, 14, 84, 104
21, 185344, Note_on_c, 14, 89, 101
21, 185344, Note_on_c, 14, 72, 109
21, 185429, Note_off_c, 14, 84, 0
21, 185429, Note_off_c, 14, 72, 0
21, 185429, Note_on_c, 14, 86, 118
21, 185429, Note_on_c, 14, 74, 119
21, 185472, Note_off_c, 14, 89, 0
21, 185472, Note_on_c, 14, 83, 92
21, 185514, Note_off_c, 14, 86, 0
21, 185514, Note_off_c, 14, 74, 0
21, 185514, Note_on_c, 14, 84, 111
21, 185514, Note_on_c, 14, 72, 105
21, 185600, Note_off_c, 14, 84, 0
21, 185600, Note_off_c, 14, 83, 0
21, 185600, Note_off_c, 14, 72, 0
21, 185600, Note_on_c, 14, 86, 117
21, 185600, Note_on_c, 14, 84, 117
21, 185600, Note_on_c, 14, 74, 122
21, 185685, Note_off_c, 14, 86, 0
21, 185685, Note_off_c, 14, 74, 0
21, 185685, Note_on_c, 14, 84, 111
21, 185685, Note_on_c, 14, 72, 107
21, 185728, Note_off_c, 14, 84, 0
21, 185728, Note_on_c, 14, 83, 108
21, 185770, Note_off_c, 14, 84, 0
21, 185770, Note_off_c, 14, 72, 0
21, 185770, Note_on_c, 14, 86, 118
21, 185770, Note_on_c, 14, 74, 117
21, 185856, Note_off_c, 14, 86, 0
21, 185856, Note_off_c, 14, 83, 0
21, 185856, Note_off_c, 14, 74, 0
21, 185856, Note_on_c, 14, 84, 107
21, 185856, Note_on_c, 14, 84, 120
21, 185856, Note_on_c, 14, 72, 105
21, 185941, Note_off_c, 14, 84, 0
21, 185941, Note_off_c, 14, 72, 0
21, 185941, Note_on_c, 14, 86, 120
21, 185941, Note_on_c, 14, 74, 119
21, 185984, Note_off_c, 14, 84, 0
21, 185984, Note_on_c, 14, 83, 106
21, 186026, Note_off_c, 14, 86, 0
21, 186026, Note_off_c, 14, 74, 0
21, 186026, Note_on_c, 14, 84, 111
21, 186026, Note_on_c, 14, 72, 108
21, 186112, Note_off_c, 14, 84, 0
21, 186112, Note_off_c, 14, 83, 0
21, 186112, Note_off_c, 14, 72, 0
21, 186112, Note_on_c, 14, 86, 115
21, 186112, Note_on_c, 14, 84, 118
21, 186112, Note_on_c, 14, 74, 119
21, 186197, Note_off_c, 14, 86, 0
21, 186197, Note_off_c, 14, 74, 0
21, 186197, Note_on_c, 14, 84, 107
21, 186197, Note_on_c, 14, 72, 104
21, 186240, Note_off_c, 14, 84, 0
21, 186240, Note_on_c, 14, 83, 113
21, 186282, Note_off_c, 14, 84, 0
21, 186282, Note_off_c, 14, 72, 0
21, 186282, Note_on_c, 14, 86, 113
21, 186282, Note_on_c, 14, 74, 120
21, 186368, Note_off_c, 14, 86, 0
21, 186368, Note_off_c, 14, 83, 0
21, 186368, Note_off_c, 14, 74, 0
21, 186368, Note_on_c, 14, 84, 106
21, 186368, Note_on_c, 14, 84, 117
21, 186368, Note_on_c, 14, 72, 106
21, 186453, Note_off_c, 14, 84, 0
21, 186453, Note_off_c, 14, 72, 0
21, 186453, Note_on_c, 14, 86, 121
21, 186453, Note_on_c, 14, 74, 119
21, 186496, Note_off_c, 14, 84, 0
21, 186496, Note_on_c, 14, 89, 127
21, 186538, Note_off_c, 14, 86, 0
21, 186538, Note_off_c, 14, 74, 0
21, 186538, Note_on_c, 14, 84, 108
21, 186538, Note_on_c, 14, 72, 110
21, 186624, Note_off_c, 14, 84, 0
21, 186624, Note_off_c, 14, 89, 0
21, 186624, Note_off_c, 14, 72, 0
21, 186624, Note_on_c, 14, 86, 126
21, 186624, Note_on_c, 14, 83, 99
21, 186624, Note_on_c, 14, 74, 123
21, 186709, Note_off_c, 14, 86, 0
21, 186709, Note_off_c, 14, 74, 0
21, 186709, Note_on_c, 14, 84, 104
21, 186709, Note_on_c, 14, 72, 108
21, 186752, Note_off_c, 14, 83, 0
21, 186752, Note_on_c, 14, 84, 114
21, 186794, Note_off_c, 14, 84, 0
21, 186794, Note_off_c, 14, 72, 0
21, 186794, Note_on_c, 14, 86, 120
21, 186794, Note_on_c, 14, 74, 119
21, 186880, Note_off_c, 14, 86, 0
21, 186880, Note_off_c, 14, 84, 0
21, 186880, Note_off_c, 14, 74, 0
21, 186880, Note_on_c, 14, 84, 112
21, 186880, Note_on_c, 14, 83, 107
21, 186880, Note_on_c, 14, 72, 104
21, 186965, Note_off_c, 14, 84, 0
21, 186965, Note_off_c, 14, 72, 0
21, 186965, Note_on_c, 14, 86, 121
21, 186965, Note_on_c, 14, 74, 112
21, 187008, Note_off_c, 14, 83, 0
21, 187008, Note_on_c, 14, 84, 121
21, 187050, Note_off_c, 14, 86, 0
21, 187050, Note_off_c, 14, 74, 0
21, 187050, Note_on_c, 14, 84, 109
21, 187050, Note_on_c, 14, 72, 107
21, 187136, Note_off_c, 14, 84, 0
21, 187136, Note_off_c, 14, 84, 0
21, 187136, Note_off_c, 14, 72, 0
21, 187136, Note_on_c, 14, 89, 127
21, 187136, Note_on_c, 14, 83, 108
21, 187136, Note_on_c, 14, 77, 127
21, 187221, Note_off_c, 14, 89, 0
21, 187221, Note_off_c, 14, 77, 0
21, 187221, Note_on_c, 14, 86, 106
21, 187221, Note_on_c, 14, 74, 104
21, 187264, Note_off_c, 14, 83, 0
21, 187264, Note_on_c, 14, 84, 118
21, 187306, Note_off_c, 14, 86, 0
21, 187306, Note_off_c, 14, 74, 0
21, 187306, Note_on_c, 14, 89, 117
21, 187306, Note_on_c, 14, 77, 123
21, 187392, Note_off_c, 14, 89, 0
21, 187392, Note_off_c, 14, 84, 0
21, 187392, Note_off_c, 14, 77, 0
21, 187392, Note_on_c, 14, 84, 99
21, 187392, Note_on_c, 14, 83, 108
21, 187392, Note_on_c, 14, 72, 99
21, 187477, Note_off_c, 14, 84, 0
21, 187477, Note_off_c, 14, 72, 0
21, 187477, Note_on_c, 14, 86, 120
21, 187477, Note_on_c, 14, 74, 119
21, 187520, Note_off_c, 14, 83, 0
21, 187520, Note_on_c, 14, 84, 114
21, 187562, Note_off_c, 14, 86, 0
21, 187562, Note_off_c, 14, 74, 0
21, 187562, Note_on_c, 14, 84, 107
21, 187562, Note_on_c, 14, 72, 104
21, 187648, Note_off_c, 14, 84, 0
21, 187648, Note_off_c, 14, 84, 0
21, 187648, Note_off_c, 14, 72, 0
21, 187648, Note_on_c, 14, 89, 125
21, 187648, Note_on_c, 14, 89, 124
21, 187648, Note_on_c, 14, 77, 124
21, 187733, Note_off_c, 14, 89, 0
21, 187733, Note_off_c, 14, 77, 0
21, 187733, Note_on_c, 14, 86, 106
21, 187733, Note_on_c, 14, 74, 108
21, 187776, Note_off_c, 14, 89, 0
21, 187776, Note_on_c, 14, 83, 98
21, 187818, Note_off_c, 14, 86, 0
21, 187818, Note_off_c, 14, 74, 0
21, 187818, Note_on_c, 14, 89, 123
21, 187818, Note_on_c, 14, 77, 123
21, 187904, Note_off_c, 14, 89, 0
21, 187904, Note_off_c, 14, 83, 0
21, 187904, Note_off_c, 14, 77, 0
21, 187904, Note_on_c, 14, 84, 100
21, 187904, Note_on_c, 14, 84, 112
21, 187904, Note_on_c, 14, 72, 100
21, 187989, Note_off_c, 14, 84, 0
21, 187989, Note_off_c, 14, 72, 0
21, 187989, Note_on_c, 14, 86, 114
21, 187989, Note_on_c, 14, 74, 119
21, 188032, Note_off_c, 14, 84, 0
21, 188032, Note_on_c, 14, 83, 104
21, 188074, Note_off_c, 14, 86, 0
21, 188074, Note_off_c, 14, 74, 0
21, 188074, Note_on_c, 14, 84, 111
21, 188074, Note_on_c, 14, 72, 104
21, 188160, Note_off_c, 14, 84, 0
21, 188160, Note_off_c, 14, 83, 0
21, 188160, Note_off_c, 14, 72, 0
21, 188160, Note_on_c, 14, 89, 127
21, 188160, Note_on_c, 14, 84, 113
21, 188160, Note_on_c, 14, 77, 124
21, 188245, Note_off_c, 14, 89, 0
21, 188245, Note_off_c, 14, 77, 0
21, 188245, Note_on_c, 14, 86, 105
21, 188245, Note_on_c, 14, 74, 106
21, 188288, Note_off_c, 14, 84, 0
21, 188288, Note_on_c, 14, 83, 111
21, 188330, Note_off_c, 14, 86, 0
21, 188330, Note_off_c, 14, 74, 0
21, 188330, Note_on_c, 14, 89, 118
21, 188330, Note_on_c, 14, 77, 122
21, 188416, Note_off_c, 14, 89, 0
21, 188416, Note_off_c, 14, 83, 0
21, 188416, Note_off_c, 14, 77, 0
21, 188416, Note_on_c, 14, 86, 108
21, 188416, Note_on_c, 14, 84, 118
21, 188416, Note_on_c, 14, 74, 106
21, 188501, Note_off_c, 14, 86, 0
21, 188501, Note_off_c, 14, 74, 0
21, 188501, Note_on_c, 14, 89, 124
21, 188501, Note_on_c, 14, 77, 121
21, 188544, Note_off_c, 14, 84, 0
21, 188544, Note_on_c, 14, 83, 106
21, 188586, Note_off_c, 14, 89, 0
21, 188586, Note_off_c, 14, 77, 0
21, 188586, Note_on_c, 14, 86, 101
21, 188586, Note_on_c, 14, 74, 102
21, 188672, Note_off_c, 14, 86, 0
21, 188672, Note_off_c, 14, 83, 0
21, 188672, Note_off_c, 14, 74, 0
21, 188672, Note_on_c, 14, 89, 126
21, 188672, Note_on_c, 14, 84, 117
21, 188672, Note_on_c, 14, 77, 125
21, 188757, Note_off_c, 14, 89, 0
21, 188757, Note_off_c, 14, 77, 0
21, 188757, Note_on_c, 14, 91, 121
21, 188757, Note_on_c, 14, 79, 123
21, 188800, Note_off_c, 14, 84, 0
21, 188800, Note_on_c, 14, 89, 127
21, 188842, Note_off_c, 14, 91, 0
21, 188842, Note_off_c, 14, 79, 0
21, 188842, Note_on_c, 14, 89, 106
21, 188842, Note_on_c, 14, 77, 105
21, 188928, Note_off_c, 14, 89, 0
21, 188928, Note_off_c, 14, 89, 0
21, 188928, Note_off_c, 14, 77, 0
21, 188928, Note_on_c, 14, 91, 122
21, 188928, Note_on_c, 14, 83, 99
21, 188928, Note_on_c, 14, 79, 119
21, 189013, Note_off_c, 14, 91, 0
21, 189013, Note_off_c, 14, 79, 0
21, 189013, Note_on_c, 14, 89, 108
21, 189013, Note_on_c, 14, 77, 110
21, 189056, Note_off_c, 14, 83, 0
21, 189056, Note_on_c, 14, 84, 119
21, 189098, Note_off_c, 14, 89, 0
21, 189098, Note_off_c, 14, 77, 0
21, 189098, Note_on_c, 14, 91, 119
21, 189098, Note_on_c, 14, 79, 116
21, 189184, Note_off_c, 14, 91, 0
21, 189184, Note_off_c, 14, 84, 0
21, 189184, Note_off_c, 14, 79, 0
21, 189184, Note_on_c, 14, 89, 110
21, 189184, Note_on_c, 14, 83, 108
21, 189184, Note_on_c, 14, 77, 104
21, 189269, Note_off_c, 14, 89, 0
21, 189269, Note_off_c, 14, 77, 0
21, 189269, Note_on_c, 14, 91, 118
21, 189269, Note_on_c, 14, 79, 119
21, 189312, Note_off_c, 14, 83, 0
21, 189312, Note_on_c, 14, 84, 118
21, 189354, Note_off_c, 14, 91, 0
21, 189354, Note_off_c, 14, 79, 0
21, 189354, Note_on_c, 14, 89, 112
21, 189354, Note_on_c, 14, 77, 105
21, 189440, Note_off_c, 14, 89, 0
21, 189440, Note_off_c, 14, 84, 0
21, 189440, Note_off_c, 14, 77, 0
21, 189440, Note_on_c, 14, 91, 120
21, 189440, Note_on_c, 14, 83, 111
21, 189440, Note_on_c, 14, 79, 123
21, 189525, Note_off_c, 14, 91, 0
21, 189525, Note_off_c, 14, 79, 0
21, 189525, Note_on_c, 14, 89, 109
21, 189525, Note_on_c, 14, 77, 105
21, 189568, Note_off_c, 14, 83, 0
21, 189568, Note_on_c, 14, 84, 115
21, 189610, Note_off_c, 14, 89, 0
21, 189610, Note_off_c, 14, 77, 0
21, 189610, Note_on_c, 14, 91, 117
21, 189610, Note_on_c, 14, 79, 122
21, 189696, Note_off_c, 14, 91, 0
21, 189696, Note_off_c, 14, 84, 0
21, 189696, Note_off_c, 14, 79, 0
21, 189696, Note_on_c, 14, 86, 101
21, 189696, Note_on_c, 14, 83, 108
21, 189696, Note_on_c, 14, 74, 103
21, 189781, Note_off_c, 14, 86, 0
21, 189781, Note_off_c, 14, 74, 0
21, 189781, Note_on_c, 14, 89, 119
21, 189781, Note_on_c, 14, 77, 123
21, 189824, Note_off_c, 14, 83, 0
21, 189824, Note_on_c, 14, 84, 117
21, 189866, Note_off_c, 14, 89, 0
21, 189866, Note_off_c, 14, 77, 0
21, 189866, Note_on_c, 14, 86, 101
21, 189866, Note_on_c, 14, 74, 106
21, 189952, Note_off_c, 14, 86, 0
21, 189952, Note_off_c, 14, 84, 0
21, 189952, Note_off_c, 14, 74, 0
21, 189952, Note_on_c, 14, 88, 117
21, 189952, Note_on_c, 14, 76, 114
21, 190037, Note_off_c, 14, 88, 0
21, 190037, Note_off_c, 14, 76, 0
21, 190037, Note_on_c, 14, 84, 101
21, 190037, Note_on_c, 14, 72, 100
21, 190122, Note_off_c, 14, 84, 0
21, 190122, Note_off_c, 14, 72, 0
21, 190122, Note_on_c, 14, 82, 105
21, 190122, Note_on_c, 14, 70, 104
21, 190208, Note_off_c, 14, 82, 0
21, 190208, Note_off_c, 14, 70, 0
21, 190208, Note_on_c, 14, 79, 118
21, 190208, Note_on_c, 14, 84, 118
21, 190208, Note_on_c, 14, 67, 101
21, 190293, Note_off_c, 14, 79, 0
21, 190293, Note_off_c, 14, 84, 0
21, 190293, Note_off_c, 14, 67, 0
21, 190293, Note_on_c, 14, 77, 116
21, 190293, Note_on_c, 14, 84, 116
21, 190293, Note_on_c, 14, 65, 101
21, 190378, Note_off_c, 14, 77, 0
21, 190378, Note_off_c, 14, 84, 0
21, 190378, Note_off_c, 14, 65, 0
21, 190378, Note_on_c, 14, 76, 110
21, 190378, Note_on_c, 14, 82, 110
21, 190378, Note_on_c, 14, 64, 103
21, 190464, Note_off_c, 14, 76, 0
21, 190464, Note_off_c, 14, 82, 0
21, 190464, Note_off_c, 14, 64, 0
21, 190464, Note_on_c, 14, 79, 100
21, 190549, Note_off_c, 14, 79, 0
21, 190549, Note_on_c, 14, 77, 105
21, 190634, Note_off_c, 14, 77, 0
21, 190634, Note_on_c, 14, 76, 103
21, 190720, Note_off_c, 14, 76, 0
21, 190720, Note_on_c, 14, 89, 127
21, 190720, Note_on_c, 14, 77, 106
21, 190805, Note_off_c, 14, 89, 0
21, 190805, Note_off_c, 14, 77, 0
21, 190805, Note_on_c, 14, 88, 111
21, 190805, Note_on_c, 14, 76, 109
21, 190890, Note_off_c, 14, 88, 0
21, 190890, Note_off_c, 14, 76, 0
21, 190890, Note_on_c, 14, 84, 100
21, 190890, Note_on_c, 14, 72, 105
21, 190976, Note_off_c, 14, 84, 0
21, 190976, Note_off_c, 14, 72, 0
21, 190976, Note_on_c, 14, 82, 124
21, 190976, Note_on_c, 14, 89, 124
21, 190976, Note_on_c, 14, 70, 104
21, 191061, Note_off_c, 14, 82, 0
21, 191061, Note_off_c, 14, 89, 0
21, 191061, Note_off_c, 14, 70, 0
21, 191061, Note_on_c, 14, 79, 110
21, 191061, Note_on_c, 14, 88, 110
21, 191061, Note_on_c, 14, 67, 108
21, 191146, Note_off_c, 14, 79, 0
21, 191146, Note_off_c, 14, 88, 0
21, 191146, Note_off_c, 14, 67, 0
21, 191146, Note_on_c, 14, 77, 103
21, 191146, Note_on_c, 14, 84, 103
21, 191146, Note_on_c, 14, 65, 107
21, 191232, Note_off_c, 14, 77, 0
21, 191232, Note_off_c, 14, 84, 0
21, 191232, Note_off_c, 14, 65, 0
21, 191232, Note_on_c, 14, 82, 106
21, 191317, Note_off_c, 14, 82, 0
21, 191317, Note_on_c, 14, 79, 103
21, 191402, Note_off_c, 14, 79, 0
21, 191402, Note_on_c, 14, 77, 106
21, 191488, Note_off_c, 14, 77, 0
21, 191488, Note_on_c, 14, 88, 127
21, 191488, Note_on_c, 14, 76, 108
21, 191573, Note_off_c, 14, 88, 0
21, 191573, Note_off_c, 14, 76, 0
21, 191573, Note_on_c, 14, 84, 107
21, 191573, Note_on_c, 14, 72, 99
21, 191658, Note_off_c, 14, 84, 0
21, 191658, Note_off_c, 14, 72, 0
21, 191658, Note_on_c, 14, 82, 106
21, 191658, Note_on_c, 14, 70, 102
21, 191744, Note_off_c, 14, 82, 0
21, 191744, Note_off_c, 14, 70, 0
21, 191744, Note_on_c, 14, 79, 127
21, 191744, Note_on_c, 14, 88, 127
21, 191744, Note_on_c, 14, 67, 99
21, 191829, Note_off_c, 14, 79, 0
21, 191829, Note_off_c, 14, 88, 0
21, 191829, Note_off_c, 14, 67, 0
21, 191829, Note_on_c, 14, 77, 103
21, 191829, Note_on_c, 14, 84, 103
21, 191829, Note_on_c, 14, 65, 105
21, 191914, Note_off_c, 14, 77, 0
21, 191914, Note_off_c, 14, 84, 0
21, 191914, Note_off_c, 14, 65, 0
21, 191914, Note_on_c, 14, 76, 104
21, 191914, Note_on_c, 14, 82, 104
21, 191914, Note_on_c, 14, 64, 110
21, 192000, Note_off_c, 14, 76, 0
21, 192000, Note_off_c, 14, 82, 0
21, 192000, Note_off_c, 14, 64, 0
21, 192000, Note_on_c, 14, 79, 106
21, 192085, Note_off_c, 14, 79, 0
21, 192085, Note_on_c, 14, 77, 102
21, 192170, Note_off_c, 14, 77, 0
21, 192170, Note_on_c, 14, 76, 111
21, 192256, Note_off_c, 14, 76, 0
21, 192256, Note_on_c, 14, 89, 127
21, 192256, Note_on_c, 14, 77, 100
21, 192341, Note_off_c, 14, 89, 0
21, 192341, Note_off_c, 14, 77, 0
21, 192341, Note_on_c, 14, 88, 113
21, 192341, Note_on_c, 14, 76, 102
21, 192426, Note_off_c, 14, 88, 0
21, 192426, Note_off_c, 14, 76, 0
21, 192426, Note_on_c, 14, 84, 102
21, 192426, Note_on_c, 14, 72, 93
21, 192512, Note_off_c, 14, 84, 0
21, 192512, Note_off_c, 14, 72, 0
21, 192512, Note_on_c, 14, 82, 127
21, 192512, Note_on_c, 14, 89, 127
21, 192512, Note_on_c, 14, 70, 108
21, 192597, Note_off_c, 14, 82, 0
21, 192597, Note_off_c, 14, 89, 0
21, 192597, Note_off_c, 14, 70, 0
21, 192597, Note_on_c, 14, 79, 110
21, 192597, Note_on_c, 14, 88, 110
21, 192597, Note_on_c, 14, 67, 105
21, 192682, Note_off_c, 14, 79, 0
21, 192682, Note_off_c, 14, 88, 0
21, 192682, Note_off_c, 14, 67, 0
21, 192682, Note_on_c, 14, 77, 104
21, 192682, Note_on_c, 14, 84, 104
21, 192682, Note_on_c, 14, 65, 107
21, 192768, Note_off_c, 14, 77, 0
21, 192768, Note_off_c, 14, 84, 0
21, 192768, Note_off_c, 14, 65, 0
21, 192768, Note_on_c, 14, 76, 103
21, 192768, Note_on_c, 14, 82, 103
21, 192768, Note_on_c, 14, 64, 107
21, 192853, Note_off_c, 14, 76, 0
21, 192853, Note_off_c, 14, 82, 0
21, 192853, Note_off_c, 14, 64, 0
21, 192853, Note_on_c, 14, 72, 99
21, 192853, Note_on_c, 14, 79, 99
21, 192853, Note_on_c, 14, 60, 105
21, 192938, Note_off_c, 14, 72, 0
21, 192938, Note_off_c, 14, 79, 0
21, 192938, Note_off_c, 14, 60, 0
21, 192938, Note_on_c, 14, 70, 104
21, 192938, Note_on_c, 14, 77, 104
21, 192938, Note_on_c, 14, 58, 109
21, 193024, Note_off_c, 14, 70, 0
21, 193024, Note_off_c, 14, 77, 0
21, 193024, Note_off_c, 14, 58, 0
21, 193024, Note_on_c, 14, 76, 108
21, 193109, Note_off_c, 14, 76, 0
21, 193109, Note_on_c, 14, 72, 101
21, 193194, Note_off_c, 14, 72, 0
21, 193194, Note_on_c, 14, 70, 105
21, 193280, Note_off_c, 14, 70, 0
21, 193280, Note_on_c, 14, 91, 127
21, 193280, Note_on_c, 14, 79, 102
21, 193365, Note_off_c, 14, 91, 0
21, 193365, Note_off_c, 14, 79, 0
21, 193365, Note_on_c, 14, 89, 109
21, 193365, Note_on_c, 14, 77, 114
21, 193450, Note_off_c, 14, 89, 0
21, 193450, Note_off_c, 14, 77, 0
21, 193450, Note_on_c, 14, 88, 108
21, 193450, Note_on_c, 14, 76, 107
21, 193536, Note_off_c, 14, 88, 0
21, 193536, Note_off_c, 14, 76, 0
21, 193536, Note_on_c, 14, 84, 121
21, 193536, Note_on_c, 14, 91, 121
21, 193536, Note_on_c, 14, 72, 99
21, 193621, Note_off_c, 14, 84, 0
21, 193621, Note_off_c, 14, 91, 0
21, 193621, Note_off_c, 14, 72, 0
21, 193621, Note_on_c, 14, 82, 111
21, 193621, Note_on_c, 14, 89, 111
21, 193621, Note_on_c, 14, 70, 103
21, 193706, Note_off_c, 14, 82, 0
21, 193706, Note_off_c, 14, 89, 0
21, 193706, Note_off_c, 14, 70, 0
21, 193706, Note_on_c, 14, 79, 109
21, 193706, Note_on_c, 14, 88, 109
21, 193706, Note_on_c, 14, 67, 104
21, 193792, Note_off_c, 14, 79, 0
21, 193792, Note_off_c, 14, 88, 0
21, 193792, Note_off_c, 14, 67, 0
21, 193792, Note_on_c, 14, 84, 99
21, 193877, Note_off_c, 14, 84, 0
21, 193877, Note_on_c, 14, 82, 103
21, 193962, Note_off_c, 14, 82, 0
21, 193962, Note_on_c, 14, 79, 106
21, 194048, Note_off_c, 14, 79, 0
21, 194048, Note_on_c, 14, 89, 127
21, 194048, Note_on_c, 14, 77, 104
21, 194133, Note_off_c, 14, 89, 0
21, 194133, Note_off_c, 14, 77, 0
21, 194133, Note_on_c, 14, 88, 116
21, 194133, Note_on_c, 14, 76, 107
21, 194218, Note_off_c, 14, 88, 0
21, 194218, Note_off_c, 14, 76, 0
21, 194218, Note_on_c, 14, 84, 103
21, 194218, Note_on_c, 14, 72, 101
21, 194304, Note_off_c, 14, 84, 0
21, 194304, Note_off_c, 14, 72, 0
21, 194304, Note_on_c, 14, 82, 125
21, 194304, Note_on_c, 14, 89, 125
21, 194304, Note_on_c, 14, 70, 106
21, 194389, Note_off_c, 14, 82, 0
21, 194389, Note_off_c, 14, 89, 0
21, 194389, Note_off_c, 14, 70, 0
21, 194389, Note_on_c, 14, 79, 109
21, 194389, Note_on_c, 14, 88, 109
21, 194389, Note_on_c, 14, 67, 106
21, 194474, Note_off_c, 14, 79, 0
21, 194474, Note_off_c, 14, 88, 0
21, 194474, Note_off_c, 14, 67, 0
21, 194474, Note_on_c, 14, 77, 99
21, 194474, Note_on_c, 14, 84, 99
21, 194474, Note_on_c, 14, 65, 102
21, 194560, Note_off_c, 14, 77, 0
21, 194560, Note_off_c, 14, 84, 0
21, 194560, Note_off_c, 14, 65, 0
21, 194560, Note_on_c, 14, 76, 106
21, 194560, Note_on_c, 14, 82, 106
21, 194560, Note_on_c, 14, 64, 104
21, 194645, Note_off_c, 14, 76, 0
21, 194645, Note_off_c, 14, 82, 0
21, 194645, Note_off_c, 14, 64, 0
21, 194645, Note_on_c, 14, 72, 99
21, 194645, Note_on_c, 14, 79, 99
21, 194645, Note_on_c, 14, 60, 101
21, 194730, Note_off_c, 14, 72, 0
21, 194730, Note_off_c, 14, 79, 0
21, 194730, Note_off_c, 14, 60, 0
21, 194730, Note_on_c, 14, 70, 102
21, 194730, Note_on_c, 14, 77, 102
21, 194730, Note_on_c, 14, 58, 110
21, 194816, Note_off_c, 14, 70, 0
21, 194816, Note_off_c, 14, 77, 0
21, 194816, Note_off_c, 14, 58, 0
21, 194816, Note_on_c, 14, 76, 106
21, 194901, Note_off_c, 14, 76, 0
21, 194901, Note_on_c, 14, 72, 101
21, 194986, Note_off_c, 14, 72, 0
21, 194986, Note_on_c, 14, 70, 106
21, 195072, Note_off_c, 14, 70, 0
21, 195072, Note_on_c, 14, 89, 127
21, 195072, Note_on_c, 14, 77, 103
21, 195157, Note_off_c, 14, 89, 0
21, 195157, Note_off_c, 14, 77, 0
21, 195157, Note_on_c, 14, 88, 113
21, 195157, Note_on_c, 14, 76, 108
21, 195242, Note_off_c, 14, 88, 0
21, 195242, Note_off_c, 14, 76, 0
21, 195242, Note_on_c, 14, 84, 95
21, 195242, Note_on_c, 14, 72, 104
21, 195328, Note_off_c, 14, 84, 0
21, 195328, Note_off_c, 14, 72, 0
21, 195328, Note_on_c, 14, 82, 127
21, 195328, Note_on_c, 14, 89, 127
21, 195328, Note_on_c, 14, 70, 108
21, 195413, Note_off_c, 14, 82, 0
21, 195413, Note_off_c, 14, 89, 0
21, 195413, Note_off_c, 14, 70, 0
21, 195413, Note_on_c, 14, 79, 110
21, 195413, Note_on_c, 14, 88, 110
21, 195413, Note_on_c, 14, 67, 104
21, 195498, Note_off_c, 14, 79, 0
21, 195498, Note_off_c, 14, 88, 0
21, 195498, Note_off_c, 14, 67, 0
21, 195498, Note_on_c, 14, 77, 97
21, 195498, Note_on_c, 14, 84, 97
21, 195498, Note_on_c, 14, 65, 103
21, 195584, Note_off_c, 14, 77, 0
21, 195584, Note_off_c, 14, 84, 0
21, 195584, Note_off_c, 14, 65, 0
21, 195584, Note_on_c, 14, 82, 103
21, 195669, Note_off_c, 14, 82, 0
21, 195669, Note_on_c, 14, 79, 103
21, 195754, Note_off_c, 14, 79, 0
21, 195754, Note_on_c, 14, 77, 104
21, 195840, Note_off_c, 14, 77, 0
21, 195840, Note_on_c, 14, 94, 127
21, 195840, Note_on_c, 14, 82, 100
21, 195925, Note_off_c, 14, 94, 0
21, 195925, Note_off_c, 14, 82, 0
21, 195925, Note_on_c, 14, 91, 115
21, 195925, Note_on_c, 14, 79, 100
21, 196010, Note_off_c, 14, 91, 0
21, 196010, Note_off_c, 14, 79, 0
21, 196010, Note_on_c, 14, 89, 104
21, 196010, Note_on_c, 14, 77, 103
21, 196096, Note_off_c, 14, 89, 0
21, 196096, Note_off_c, 14, 77, 0
21, 196096, Note_on_c, 14, 88, 127
21, 196096, Note_on_c, 14, 94, 127
21, 196096, Note_on_c, 14, 76, 108
21, 196181, Note_off_c, 14, 88, 0
21, 196181, Note_off_c, 14, 94, 0
21, 196181, Note_off_c, 14, 76, 0
21, 196181, Note_on_c, 14, 84, 111
21, 196181, Note_on_c, 14, 91, 111
21, 196181, Note_on_c, 14, 72, 102
21, 196266, Note_off_c, 14, 84, 0
21, 196266, Note_off_c, 14, 91, 0
21, 196266, Note_off_c, 14, 72, 0
21, 196266, Note_on_c, 14, 82, 108
21, 196266, Note_on_c, 14, 89, 108
21, 196266, Note_on_c, 14, 70, 104
21, 196352, Note_off_c, 14, 82, 0
21, 196352, Note_off_c, 14, 89, 0
21, 196352, Note_off_c, 14, 70, 0
21, 196352, Note_on_c, 14, 88, 105
21, 196437, Note_off_c, 14, 88, 0
21, 196437, Note_on_c, 14, 84, 99
21, 196522, Note_off_c, 14, 84, 0
21, 196522, Note_on_c, 14, 82, 107
21, 196608, Note_off_c, 14, 82, 0
21, 196608, Note_on_c, 14, 91, 127
21, 196608, Note_on_c, 14, 79, 102
21, 196693, Note_off_c, 14, 91, 0
21, 196693, Note_off_c, 14, 79, 0
21, 196693, Note_on_c, 14, 89, 110
21, 196693, Note_on_c, 14, 77, 104
21, 196778, Note_off_c, 14, 89, 0
21, 196778, Note_off_c, 14, 77, 0
21, 196778, Note_on_c, 14, 88, 111
21, 196778, Note_on_c, 14, 76, 106
21, 196864, Note_off_c, 14, 88, 0
21, 196864, Note_off_c, 14, 76, 0
21, 196864, Note_on_c, 14, 84, 119
21, 196864, Note_on_c, 14, 91, 119
21, 196864, Note_on_c, 14, 72, 101
21, 196949, Note_off_c, 14, 84, 0
21, 196949, Note_off_c, 14, 91, 0
21, 196949, Note_off_c, 14, 72, 0
21, 196949, Note_on_c, 14, 82, 105
21, 196949, Note_on_c, 14, 89, 105
21, 196949, Note_on_c, 14, 70, 103
21, 197034, Note_off_c, 14, 82, 0
21, 197034, Note_off_c, 14, 89, 0
21, 197034, Note_off_c, 14, 70, 0
21, 197034, Note_on_c, 14, 88, 108
21, 197120, Note_off_c, 14, 88, 0
21, 197120, Note_on_c, 14, 84, 102
21, 197205, Note_off_c, 14, 84, 0
21, 197205, Note_on_c, 14, 82, 107
21, 197290, Note_off_c, 14, 82, 0
21, 197376, Note_on_c, 14, 94, 99
21, 197376, Note_on_c, 14, 82, 105
21, 197461, Note_off_c, 14, 94, 0
21, 197461, Note_off_c, 14, 82, 0
21, 197461, Note_on_c, 14, 91, 100
21, 197461, Note_on_c, 14, 79, 95
21, 197546, Note_off_c, 14, 91, 0
21, 197546, Note_off_c, 14, 79, 0
21, 197546, Note_on_c, 14, 89, 106
21, 197546, Note_on_c, 14, 77, 109
21, 197632, Note_off_c, 14, 89, 0
21, 197632, Note_off_c, 14, 77, 0
21, 197632, Note_on_c, 14, 88, 127
21, 197632, Note_on_c, 14, 94, 127
21, 197632, Note_on_c, 14, 76, 105
21, 197717, Note_off_c, 14, 88, 0
21, 197717, Note_off_c, 14, 94, 0
21, 197717, Note_off_c, 14, 76, 0
21, 197717, Note_on_c, 14, 84, 103
21, 197717, Note_on_c, 14, 91, 103
21, 197717, Note_on_c, 14, 72, 100
21, 197802, Note_off_c, 14, 84, 0
21, 197802, Note_off_c, 14, 91, 0
21, 197802, Note_off_c, 14, 72, 0
21, 197802, Note_on_c, 14, 82, 105
21, 197802, Note_on_c, 14, 89, 105
21, 197802, Note_on_c, 14, 70, 104
21, 197888, Note_off_c, 14, 82, 0
21, 197888, Note_off_c, 14, 89, 0
21, 197888, Note_off_c, 14, 70, 0
21, 197888, Note_on_c, 14, 88, 108
21, 197973, Note_off_c, 14, 88, 0
21, 197973, Note_on_c, 14, 84, 100
21, 198058, Note_off_c, 14, 84, 0
21, 198058, Note_on_c, 14, 82, 102
21, 198144, Note_off_c, 14, 82, 0
21, 198144, Note_on_c, 14, 94, 127
21, 198144, Note_on_c, 14, 82, 103
21, 198229, Note_off_c, 14, 94, 0
21, 198229, Note_off_c, 14, 82, 0
21, 198229, Note_on_c, 14, 91, 106
21, 198229, Note_on_c, 14, 79, 102
21, 198314, Note_off_c, 14, 91, 0
21, 198314, Note_off_c, 14, 79, 0
21, 198314, Note_on_c, 14, 94, 121
21, 198314, Note_on_c, 14, 82, 123
21, 198400, Note_off_c, 14, 94, 0
21, 198400, Note_off_c, 14, 82, 0
21, 198400, Note_on_c, 14, 94, 117
21, 198485, Note_off_c, 14, 94, 0
21, 198485, Note_on_c, 14, 91, 103
21, 198570, Note_off_c, 14, 91, 0
21, 198570, Note_on_c, 14, 94, 127
21, 198656, Note_off_c, 14, 94, 0
21, 198656, Note_on_c, 14, 94, 113
21, 198656, Note_on_c, 14, 82, 108
21, 198741, Note_off_c, 14, 94, 0
21, 198741, Note_off_c, 14, 82, 0
21, 198741, Note_on_c, 14, 91, 105
21, 198741, Note_on_c, 14, 79, 99
21, 198826, Note_off_c, 14, 91, 0
21, 198826, Note_off_c, 14, 79, 0
21, 198826, Note_on_c, 14, 94, 124
21, 198826, Note_on_c, 14, 82, 116
21, 198912, Note_off_c, 14, 94, 0
21, 198912, Note_off_c, 14, 82, 0
21, 198912, Note_on_c, 14, 94, 123
21, 198912, Note_on_c, 14, 96, 123
21, 198912, Note_on_c, 14, 84, 122
21, 198997, Note_off_c, 14, 94, 0
21, 198997, Note_off_c, 14, 96, 0
21, 198997, Note_off_c, 14, 84, 0
21, 198997, Note_on_c, 14, 91, 111
21, 198997, Note_on_c, 14, 95, 111
21, 198997, Note_on_c, 14, 82, 108
21, 199082, Note_off_c, 14, 91, 0
21, 199082, Note_off_c, 14, 95, 0
21, 199082, Note_off_c, 14, 82, 0
21, 199082, Note_on_c, 14, 95, 121
21, 199082, Note_on_c, 14, 96, 121
21, 199082, Note_on_c, 14, 84, 121
21, 199168, Note_off_c, 14, 95, 0
21, 199168, Note_off_c, 14, 96, 0
21, 199168, Note_off_c, 14, 84, 0
21, 199168, Note_on_c, 14, 96, 114
21, 199253, Note_off_c, 14, 96, 0
21, 199253, Note_on_c, 14, 95, 110
21, 199338, Note_off_c, 14, 95, 0
21, 199338, Note_on_c, 14, 96, 120
21, 199424, Note_off_c, 14, 96, 0
21, 199424, Note_on_c, 14, 93, 103
21, 199424, Note_on_c, 14, 81, 103
21, 199509, Note_off_c, 14, 93, 0
21, 199509, Note_off_c, 14, 81, 0
21, 199509, Note_on_c, 14, 91, 103
21, 199509, Note_on_c, 14, 79, 106
21, 199594, Note_off_c, 14, 91, 0
21, 199594, Note_off_c, 14, 79, 0
21, 199594, Note_on_c, 14, 93, 114
21, 199594, Note_on_c, 14, 82, 122
21, 199680, Note_off_c, 14, 93, 0
21, 199680, Note_off_c, 14, 82, 0
21, 199680, Note_on_c, 14, 93, 114
21, 199680, Note_on_c, 14, 81, 104
21, 199765, Note_off_c, 14, 93, 0
21, 199765, Note_off_c, 14, 81, 0
21, 199765, Note_on_c, 14, 91, 106
21, 199765, Note_on_c, 14, 79, 100
21, 199850, Note_off_c, 14, 91, 0
21, 199850, Note_off_c, 14, 79, 0
21, 199850, Note_on_c, 14, 94, 123
21, 199936, Note_off_c, 14, 94, 0
21, 199936, Note_on_c, 14, 93, 108
21, 200021, Note_off_c, 14, 93, 0
21, 200021, Note_on_c, 14, 91, 107
21, 200106, Note_off_c, 14, 91, 0
21, 200192, Note_on_c, 14, 94, 99
21, 200192, Note_on_c, 14, 82, 97
21, 200277, Note_off_c, 14, 94, 0
21, 200277, Note_off_c, 14, 82, 0
21, 200277, Note_on_c, 14, 91, 101
21, 200277, Note_on_c, 14, 79, 98
21, 200362, Note_off_c, 14, 91, 0
21, 200362, Note_off_c, 14, 79, 0
21, 200362, Note_on_c, 14, 94, 119
21, 200362, Note_on_c, 14, 82, 124
21, 200448, Note_off_c, 14, 94, 0
21, 200448, Note_off_c, 14, 82, 0
21, 200448, Note_on_c, 14, 95, 123
21, 200448, Note_on_c, 14, 96, 123
21, 200448, Note_on_c, 14, 84, 120
21, 200533, Note_off_c, 14, 95, 0
21, 200533, Note_off_c, 14, 96, 0
21, 200533, Note_off_c, 14, 84, 0
21, 200533, Note_on_c, 14, 91, 108
21, 200533, Note_on_c, 14, 95, 108
21, 200533, Note_on_c, 14, 82, 104
21, 200618, Note_off_c, 14, 91, 0
21, 200618, Note_off_c, 14, 95, 0
21, 200618, Note_off_c, 14, 82, 0
21, 200618, Note_on_c, 14, 95, 119
21, 200618, Note_on_c, 14, 96, 119
21, 200618, Note_on_c, 14, 84, 120
21, 200704, Note_off_c, 14, 95, 0
21, 200704, Note_off_c, 14, 96, 0
21, 200704, Note_off_c, 14, 84, 0
21, 200704, Note_on_c, 14, 96, 113
21, 200789, Note_off_c, 14, 96, 0
21, 200789, Note_on_c, 14, 94, 108
21, 200874, Note_off_c, 14, 94, 0
21, 200874, Note_on_c, 14, 96, 119
21, 200960, Note_off_c, 14, 96, 0
21, 200960, Note_on_c, 14, 58, 97
21, 200960, Note_on_c, 14, 58, 99
21, 201045, Note_off_c, 14, 58, 0
21, 201045, Note_off_c, 14, 58, 0
21, 201045, Note_on_c, 14, 60, 112
21, 201045, Note_on_c, 14, 60, 115
21, 201130, Note_off_c, 14, 60, 0
21, 201130, Note_off_c, 14, 60, 0
21, 201130, Note_on_c, 14, 64, 124
21, 201130, Note_on_c, 14, 64, 127
21, 201216, Note_off_c, 14, 64, 0
21, 201216, Note_off_c, 14, 64, 0
21, 201216, Note_on_c, 14, 67, 123
21, 201216, Note_on_c, 14, 67, 126
21, 201301, Note_off_c, 14, 67, 0
21, 201301, Note_off_c, 14, 67, 0
21, 201301, Note_on_c, 14, 70, 127
21, 201301, Note_on_c, 14, 70, 126
21, 201386, Note_off_c, 14, 70, 0
21, 201386, Note_off_c, 14, 70, 0
21, 201386, Note_on_c, 14, 72, 122
21, 201386, Note_on_c, 14, 58, 103
21, 201386, Note_on_c, 14, 72, 119
21, 201386, Note_on_c, 14, 58, 102
21, 201472, Note_off_c, 14, 72, 0
21, 201472, Note_off_c, 14, 58, 0
21, 201472, Note_off_c, 14, 72, 0
21, 201472, Note_off_c, 14, 58, 0
21, 201472, Note_on_c, 14, 60, 117
21, 201472, Note_on_c, 14, 60, 115
21, 201557, Note_off_c, 14, 60, 0
21, 201557, Note_off_c, 14, 60, 0
21, 201557, Note_on_c, 14, 70, 104
21, 201557, Note_on_c, 14, 64, 127
21, 201557, Note_on_c, 14, 70, 101
21, 201557, Note_on_c, 14, 64, 122
21, 201642, Note_off_c, 14, 70, 0
21, 201642, Note_off_c, 14, 64, 0
21, 201642, Note_off_c, 14, 70, 0
21, 201642, Note_off_c, 14, 64, 0
21, 201642, Note_on_c, 14, 72, 120
21, 201642, Note_on_c, 14, 67, 121
21, 201642, Note_on_c, 14, 72, 119
21, 201642, Note_on_c, 14, 67, 127
21, 201728, Note_off_c, 14, 72, 0
21, 201728, Note_off_c, 14, 67, 0
21, 201728, Note_off_c, 14, 72, 0
21, 201728, Note_off_c, 14, 67, 0
21, 201728, Note_on_c, 14, 76, 126
21, 201728, Note_on_c, 14, 70, 125
21, 201728, Note_on_c, 14, 76, 127
21, 201728, Note_on_c, 14, 70, 126
21, 201813, Note_off_c, 14, 76, 0
21, 201813, Note_off_c, 14, 70, 0
21, 201813, Note_off_c, 14, 76, 0
21, 201813, Note_off_c, 14, 70, 0
21, 201813, Note_on_c, 14, 77, 116
21, 201813, Note_on_c, 14, 72, 119
21, 201813, Note_on_c, 14, 77, 111
21, 201813, Note_on_c, 14, 72, 127
21, 201898, Note_off_c, 14, 77, 0
21, 201898, Note_off_c, 14, 72, 0
21, 201898, Note_off_c, 14, 77, 0
21, 201898, Note_off_c, 14, 72, 0
21, 201898, Note_on_c, 14, 79, 124
21, 201898, Note_on_c, 14, 79, 121
21, 201984, Note_off_c, 14, 79, 0
21, 201984, Note_off_c, 14, 79, 0
21, 201984, Note_on_c, 14, 70, 99
21, 201984, Note_on_c, 14, 70, 96
21, 202069, Note_off_c, 14, 70, 0
21, 202069, Note_off_c, 14, 70, 0
21, 202069, Note_on_c, 14, 72, 123
21, 202069, Note_on_c, 14, 72, 121
21, 202154, Note_off_c, 14, 72, 0
21, 202154, Note_off_c, 14, 72, 0
21, 202154, Note_on_c, 14, 76, 127
21, 202154, Note_on_c, 14, 76, 121
21, 202240, Note_off_c, 14, 76, 0
21, 202240, Note_off_c, 14, 76, 0
21, 202240, Note_on_c, 14, 72, 105
21, 202240, Note_on_c, 14, 77, 121
21, 202240, Note_on_c, 14, 60, 102
21, 202240, Note_on_c, 14, 79, 126
21, 202325, Note_off_c, 14, 72, 0
21, 202325, Note_off_c, 14, 77, 0
21, 202325, Note_off_c, 14, 60, 0
21, 202325, Note_off_c, 14, 79, 0
21, 202325, Note_on_c, 14, 76, 127
21, 202325, Note_on_c, 14, 79, 120
21, 202325, Note_on_c, 14, 64, 122
21, 202325, Note_on_c, 14, 81, 118
21, 202410, Note_off_c, 14, 76, 0
21, 202410, Note_off_c, 14, 79, 0
21, 202410, Note_off_c, 14, 64, 0
21, 202410, Note_off_c, 14, 81, 0
21, 202410, Note_on_c, 14, 79, 127
21, 202410, Note_on_c, 14, 67, 126
21, 202496, Note_off_c, 14, 79, 0
21, 202496, Note_off_c, 14, 67, 0
21, 202496, Note_on_c, 14, 82, 127
21, 202496, Note_on_c, 14, 70, 126
21, 202581, Note_off_c, 14, 82, 0
21, 202581, Note_off_c, 14, 70, 0
21, 202581, Note_on_c, 14, 84, 124
21, 202581, Note_on_c, 14, 72, 124
21, 202666, Note_off_c, 14, 84, 0
21, 202666, Note_off_c, 14, 72, 0
21, 202666, Note_on_c, 14, 88, 127
21, 202666, Note_on_c, 14, 72, 99
21, 202666, Note_on_c, 14, 76, 127
21, 202666, Note_on_c, 14, 60, 104
21, 202752, Note_off_c, 14, 88, 0
21, 202752, Note_off_c, 14, 72, 0
21, 202752, Note_off_c, 14, 76, 0
21, 202752, Note_off_c, 14, 60, 0
21, 202752, Note_on_c, 14, 76, 123
21, 202752, Note_on_c, 14, 64, 121
21, 202837, Note_off_c, 14, 76, 0
21, 202837, Note_off_c, 14, 64, 0
21, 202837, Note_on_c, 14, 79, 125
21, 202837, Note_on_c, 14, 67, 123
21, 202922, Note_off_c, 14, 79, 0
21, 202922, Note_off_c, 14, 67, 0
21, 202922, Note_on_c, 14, 82, 122
21, 202922, Note_on_c, 14, 70, 125
21, 203008, Note_off_c, 14, 82, 0
21, 203008, Note_off_c, 14, 70, 0
21, 203008, Note_on_c, 14, 58, 101
21, 203008, Note_on_c, 14, 84, 124
21, 203008, Note_on_c, 14, 58, 101
21, 203008, Note_on_c, 14, 72, 125
21, 203093, Note_off_c, 14, 58, 0
21, 203093, Note_off_c, 14, 84, 0
21, 203093, Note_off_c, 14, 58, 0
21, 203093, Note_off_c, 14, 72, 0
21, 203093, Note_on_c, 14, 60, 116
21, 203093, Note_on_c, 14, 88, 127
21, 203093, Note_on_c, 14, 60, 123
21, 203093, Note_on_c, 14, 76, 127
21, 203178, Note_off_c, 14, 60, 0
21, 203178, Note_off_c, 14, 88, 0
21, 203178, Note_off_c, 14, 60, 0
21, 203178, Note_off_c, 14, 76, 0
21, 203178, Note_on_c, 14, 64, 124
21, 203178, Note_on_c, 14, 64, 127
21, 203264, Note_off_c, 14, 64, 0
21, 203264, Note_off_c, 14, 64, 0
21, 203264, Note_on_c, 14, 67, 125
21, 203264, Note_on_c, 14, 67, 126
21, 203349, Note_off_c, 14, 67, 0
21, 203349, Note_off_c, 14, 67, 0
21, 203349, Note_on_c, 14, 70, 118
21, 203349, Note_on_c, 14, 70, 126
21, 203434, Note_off_c, 14, 70, 0
21, 203434, Note_off_c, 14, 70, 0
21, 203434, Note_on_c, 14, 72, 120
21, 203434, Note_on_c, 14, 58, 99
21, 203434, Note_on_c, 14, 72, 124
21, 203434, Note_on_c, 14, 58, 103
21, 203520, Note_off_c, 14, 72, 0
21, 203520, Note_off_c, 14, 58, 0
21, 203520, Note_off_c, 14, 72, 0
21, 203520, Note_off_c, 14, 58, 0
21, 203520, Note_on_c, 14, 60, 120
21, 203520, Note_on_c, 14, 60, 122
21, 203605, Note_off_c, 14, 60, 0
21, 203605, Note_off_c, 14, 60, 0
21, 203605, Note_on_c, 14, 70, 97
21, 203605, Note_on_c, 14, 64, 127
21, 203605, Note_on_c, 14, 70, 97
21, 203605, Note_on_c, 14, 64, 127
21, 203690, Note_off_c, 14, 70, 0
21, 203690, Note_off_c, 14, 64, 0
21, 203690, Note_off_c, 14, 70, 0
21, 203690, Note_off_c, 14, 64, 0
21, 203690, Note_on_c, 14, 72, 120
21, 203690, Note_on_c, 14, 67, 123
21, 203690, Note_on_c, 14, 72, 119
21, 203690, Note_on_c, 14, 67, 127
21, 203776, Note_off_c, 14, 72, 0
21, 203776, Note_off_c, 14, 67, 0
21, 203776, Note_off_c, 14, 72, 0
21, 203776, Note_off_c, 14, 67, 0
21, 203776, Note_on_c, 14, 76, 127
21, 203776, Note_on_c, 14, 70, 127
21, 203776, Note_on_c, 14, 76, 125
21, 203776, Note_on_c, 14, 70, 126
21, 203861, Note_off_c, 14, 76, 0
21, 203861, Note_off_c, 14, 70, 0
21, 203861, Note_off_c, 14, 76, 0
21, 203861, Note_off_c, 14, 70, 0
21, 203861, Note_on_c, 14, 77, 121
21, 203861, Note_on_c, 14, 72, 123
21, 203861, Note_on_c, 14, 77, 122
21, 203861, Note_on_c, 14, 72, 120
21, 203946, Note_off_c, 14, 77, 0
21, 203946, Note_off_c, 14, 72, 0
21, 203946, Note_off_c, 14, 77, 0
21, 203946, Note_off_c, 14, 72, 0
21, 203946, Note_on_c, 14, 79, 123
21, 203946, Note_on_c, 14, 79, 127
21, 204032, Note_off_c, 14, 79, 0
21, 204032, Note_off_c, 14, 79, 0
21, 204032, Note_on_c, 14, 70, 100
21, 204032, Note_on_c, 14, 70, 102
21, 204117, Note_off_c, 14, 70, 0
21, 204117, Note_off_c, 14, 70, 0
21, 204117, Note_on_c, 14, 72, 120
21, 204117, Note_on_c, 14, 72, 121
21, 204202, Note_off_c, 14, 72, 0
21, 204202, Note_off_c, 14, 72, 0
21, 204202, Note_on_c, 14, 76, 127
21, 204202, Note_on_c, 14, 76, 122
21, 204288, Note_off_c, 14, 76, 0
21, 204288, Note_off_c, 14, 76, 0
21, 204288, Note_on_c, 14, 77, 121
21, 204288, Note_on_c, 14, 77, 116
21, 204373, Note_off_c, 14, 77, 0
21, 204373, Note_off_c, 14, 77, 0
21, 204373, Note_on_c, 14, 72, 103
21, 204373, Note_on_c, 14, 79, 120
21, 204373, Note_on_c, 14, 72, 97
21, 204373, Note_on_c, 14, 79, 126
21, 204458, Note_off_c, 14, 72, 0
21, 204458, Note_off_c, 14, 79, 0
21, 204458, Note_off_c, 14, 72, 0
21, 204458, Note_off_c, 14, 79, 0
21, 204458, Note_on_c, 14, 76, 120
21, 204458, Note_on_c, 14, 76, 126
21, 204544, Note_off_c, 14, 76, 0
21, 204544, Note_off_c, 14, 76, 0
21, 204544, Note_on_c, 14, 79, 124
21, 204544, Note_on_c, 14, 79, 125
21, 204629, Note_off_c, 14, 79, 0
21, 204629, Note_off_c, 14, 79, 0
21, 204629, Note_on_c, 14, 82, 124
21, 204629, Note_on_c, 14, 82, 124
21, 204714, Note_off_c, 14, 82, 0
21, 204714, Note_off_c, 14, 82, 0
21, 204714, Note_on_c, 14, 84, 122
21, 204714, Note_on_c, 14, 72, 101
21, 204714, Note_on_c, 14, 84, 119
21, 204714, Note_on_c, 14, 72, 104
21, 204800, Note_off_c, 14, 84, 0
21, 204800, Note_off_c, 14, 72, 0
21, 204800, Note_off_c, 14, 84, 0
21, 204800, Note_off_c, 14, 72, 0
21, 204800, Note_on_c, 14, 88, 125
21, 204800, Note_on_c, 14, 76, 120
21, 204800, Note_on_c, 14, 76, 124
21, 204885, Note_off_c, 14, 88, 0
21, 204885, Note_off_c, 14, 76, 0
21, 204885, Note_off_c, 14, 76, 0
21, 204885, Note_on_c, 14, 79, 122
21, 204885, Note_on_c, 14, 79, 125
21, 204970, Note_off_c, 14, 79, 0
21, 204970, Note_off_c, 14, 79, 0
21, 204970, Note_on_c, 14, 82, 127
21, 204970, Note_on_c, 14, 82, 122
21, 205056, Note_off_c, 14, 82, 0
21, 205056, Note_off_c, 14, 82, 0
21, 205056, Note_on_c, 14, 58, 105
21, 205056, Note_on_c, 14, 84, 123
21, 205056, Note_on_c, 14, 58, 100
21, 205056, Note_on_c, 14, 84, 124
21, 205141, Note_off_c, 14, 58, 0
21, 205141, Note_off_c, 14, 84, 0
21, 205141, Note_off_c, 14, 58, 0
21, 205141, Note_off_c, 14, 84, 0
21, 205141, Note_on_c, 14, 60, 120
21, 205141, Note_on_c, 14, 88, 122
21, 205141, Note_on_c, 14, 60, 114
21, 205226, Note_off_c, 14, 60, 0
21, 205226, Note_off_c, 14, 88, 0
21, 205226, Note_off_c, 14, 60, 0
21, 205226, Note_on_c, 14, 64, 122
21, 205226, Note_on_c, 14, 64, 127
21, 205312, Note_off_c, 14, 64, 0
21, 205312, Note_off_c, 14, 64, 0
21, 205312, Note_on_c, 14, 67, 126
21, 205312, Note_on_c, 14, 67, 124
21, 205397, Note_off_c, 14, 67, 0
21, 205397, Note_off_c, 14, 67, 0
21, 205397, Note_on_c, 14, 70, 126
21, 205397, Note_on_c, 14, 58, 103
21, 205397, Note_on_c, 14, 70, 124
21, 205397, Note_on_c, 14, 58, 102
21, 205482, Note_off_c, 14, 70, 0
21, 205482, Note_off_c, 14, 58, 0
21, 205482, Note_off_c, 14, 70, 0
21, 205482, Note_off_c, 14, 58, 0
21, 205482, Note_on_c, 14, 72, 121
21, 205482, Note_on_c, 14, 60, 116
21, 205482, Note_on_c, 14, 72, 121
21, 205482, Note_on_c, 14, 60, 115
21, 205568, Note_off_c, 14, 72, 0
21, 205568, Note_off_c, 14, 60, 0
21, 205568, Note_off_c, 14, 72, 0
21, 205568, Note_off_c, 14, 60, 0
21, 205568, Note_on_c, 14, 64, 125
21, 205568, Note_on_c, 14, 64, 125
21, 205653, Note_off_c, 14, 64, 0
21, 205653, Note_off_c, 14, 64, 0
21, 205653, Note_on_c, 14, 67, 123
21, 205653, Note_on_c, 14, 67, 122
21, 205738, Note_off_c, 14, 67, 0
21, 205738, Note_off_c, 14, 67, 0
21, 205738, Note_on_c, 14, 70, 100
21, 205738, Note_on_c, 14, 70, 125
21, 205738, Note_on_c, 14, 70, 102
21, 205738, Note_on_c, 14, 70, 127
21, 205824, Note_off_c, 14, 70, 0
21, 205824, Note_off_c, 14, 70, 0
21, 205824, Note_off_c, 14, 70, 0
21, 205824, Note_off_c, 14, 70, 0
21, 205824, Note_on_c, 14, 72, 112
21, 205824, Note_on_c, 14, 72, 123
21, 205888, Note_off_c, 14, 72, 0
21, 205888, Note_off_c, 14, 72, 0
21, 205888, Note_on_c, 14, 76, 127
21, 205952, Note_off_c, 14, 76, 0
21, 205952, Note_on_c, 14, 77, 118
21, 206016, Note_off_c, 14, 77, 0
21, 206016, Note_on_c, 14, 79, 123
21, 206016, Note_on_c, 14, 70, 105
21, 206080, Note_off_c, 14, 79, 0
21, 206080, Note_off_c, 14, 70, 0
21, 206080, Note_on_c, 14, 72, 117
21, 206144, Note_off_c, 14, 72, 0
21, 206144, Note_on_c, 14, 76, 125
21, 206208, Note_off_c, 14, 76, 0
21, 206208, Note_on_c, 14, 72, 100
21, 206208, Note_on_c, 14, 77, 123
21, 206272, Note_off_c, 14, 72, 0
21, 206272, Note_off_c, 14, 77, 0
21, 206272, Note_on_c, 14, 76, 124
21, 206272, Note_on_c, 14, 79, 118
21, 206336, Note_off_c, 14, 76, 0
21, 206336, Note_off_c, 14, 79, 0
21, 206336, Note_on_c, 14, 79, 124
21, 206400, Note_off_c, 14, 79, 0
21, 206400, Note_on_c, 14, 82, 117
21, 206464, Note_off_c, 14, 82, 0
21, 206464, Note_on_c, 14, 84, 120
21, 206464, Note_on_c, 14, 72, 106
21, 206528, Note_off_c, 14, 84, 0
21, 206528, Note_off_c, 14, 72, 0
21, 206528, Note_on_c, 14, 88, 122
21, 206528, Note_on_c, 14, 76, 120
21, 206592, Note_off_c, 14, 88, 0
21, 206592, Note_off_c, 14, 76, 0
21, 206592, Note_on_c, 14, 70, 97
21, 206656, Note_off_c, 14, 70, 0
21, 206656, Note_on_c, 14, 72, 118
21, 206720, Note_off_c, 14, 72, 0
21, 206720, Note_on_c, 14, 76, 122
21, 206784, Note_off_c, 14, 76, 0
21, 206784, Note_on_c, 14, 58, 101
21, 206784, Note_on_c, 14, 79, 122
21, 206848, Note_off_c, 14, 58, 0
21, 206848, Note_off_c, 14, 79, 0
21, 206848, Note_on_c, 14, 60, 115
21, 206912, Note_off_c, 14, 60, 0
21, 206912, Note_on_c, 14, 64, 123
21, 206976, Note_off_c, 14, 64, 0
21, 206976, Note_on_c, 14, 67, 119
21, 207040, Note_off_c, 14, 67, 0
21, 207040, Note_on_c, 14, 70, 125
21, 207040, Note_on_c, 14, 58, 100
21, 207104, Note_off_c, 14, 70, 0
21, 207104, Note_off_c, 14, 58, 0
21, 207104, Note_on_c, 14, 72, 123
21, 207104, Note_on_c, 14, 60, 123
21, 207168, Note_off_c, 14, 72, 0
21, 207168, Note_off_c, 14, 60, 0
21, 207168, Note_on_c, 14, 70, 103
21, 207168, Note_on_c, 14, 64, 122
21, 207232, Note_off_c, 14, 70, 0
21, 207232, Note_off_c, 14, 64, 0
21, 207232, Note_on_c, 14, 72, 118
21, 207232, Note_on_c, 14, 67, 122
21, 207296, Note_off_c, 14, 72, 0
21, 207296, Note_off_c, 14, 67, 0
21, 207296, Note_on_c, 14, 76, 127
21, 207296, Note_on_c, 14, 70, 125
21, 207360, Note_off_c, 14, 76, 0
21, 207360, Note_off_c, 14, 70, 0
21, 207360, Note_on_c, 14, 77, 115
21, 207360, Note_on_c, 14, 72, 123
21, 207424, Note_off_c, 14, 77, 0
21, 207424, Note_off_c, 14, 72, 0
21, 207424, Note_on_c, 14, 79, 121
21, 207424, Note_on_c, 14, 70, 110
21, 207488, Note_off_c, 14, 79, 0
21, 207488, Note_off_c, 14, 70, 0
21, 207488, Note_on_c, 14, 72, 115
21, 207552, Note_off_c, 14, 72, 0
21, 207552, Note_on_c, 14, 58, 104
21, 207552, Note_on_c, 14, 76, 126
21, 207616, Note_off_c, 14, 58, 0
21, 207616, Note_off_c, 14, 76, 0
21, 207616, Note_on_c, 14, 60, 115
21, 207616, Note_on_c, 14, 77, 117
21, 207680, Note_off_c, 14, 60, 0
21, 207680, Note_off_c, 14, 77, 0
21, 207680, Note_on_c, 14, 64, 122
21, 207680, Note_on_c, 14, 79, 123
21, 207744, Note_off_c, 14, 64, 0
21, 207744, Note_off_c, 14, 79, 0
21, 207744, Note_on_c, 14, 67, 122
21, 207808, Note_off_c, 14, 67, 0
21, 207808, Note_on_c, 14, 70, 121
21, 207808, Note_on_c, 14, 58, 105
21, 207872, Note_off_c, 14, 70, 0
21, 207872, Note_off_c, 14, 58, 0
21, 207872, Note_on_c, 14, 72, 125
21, 207872, Note_on_c, 14, 60, 117
21, 207936, Note_off_c, 14, 72, 0
21, 207936, Note_off_c, 14, 60, 0
21, 207936, Note_on_c, 14, 70, 108
21, 207936, Note_on_c, 14, 64, 125
21, 208000, Note_off_c, 14, 70, 0
21, 208000, Note_off_c, 14, 64, 0
21, 208000, Note_on_c, 14, 72, 123
21, 208000, Note_on_c, 14, 67, 123
21, 208064, Note_off_c, 14, 72, 0
21, 208064, Note_off_c, 14, 67, 0
21, 208064, Note_on_c, 14, 76, 127
21, 208064, Note_on_c, 14, 70, 123
21, 208128, Note_off_c, 14, 76, 0
21, 208128, Note_off_c, 14, 70, 0
21, 208128, Note_on_c, 14, 77, 117
21, 208128, Note_on_c, 14, 72, 117
21, 208192, Note_off_c, 14, 77, 0
21, 208192, Note_off_c, 14, 72, 0
21, 208192, Note_on_c, 14, 79, 120
21, 208192, Note_on_c, 14, 70, 110
21, 208256, Note_off_c, 14, 79, 0
21, 208256, Note_off_c, 14, 70, 0
21, 208256, Note_on_c, 14, 72, 120
21, 208320, Note_off_c, 14, 72, 0
21, 208320, Note_on_c, 14, 76, 127
21, 208384, Note_off_c, 14, 76, 0
21, 208384, Note_on_c, 14, 58, 98
21, 208384, Note_on_c, 14, 77, 119
21, 208448, Note_off_c, 14, 58, 0
21, 208448, Note_off_c, 14, 77, 0
21, 208448, Note_on_c, 14, 60, 118
21, 208448, Note_on_c, 14, 79, 122
21, 208512, Note_off_c, 14, 60, 0
21, 208512, Note_off_c, 14, 79, 0
21, 208512, Note_on_c, 14, 64, 127
21, 208576, Note_off_c, 14, 64, 0
21, 208576, Note_on_c, 14, 67, 127
21, 208576, Note_on_c, 14, 58, 102
21, 208640, Note_off_c, 14, 67, 0
21, 208640, Note_off_c, 14, 58, 0
21, 208640, Note_on_c, 14, 70, 126
21, 208640, Note_on_c, 14, 60, 119
21, 208704, Note_off_c, 14, 70, 0
21, 208704, Note_off_c, 14, 60, 0
21, 208704, Note_on_c, 14, 72, 119
21, 208704, Note_on_c, 14, 64, 127
21, 208768, Note_off_c, 14, 72, 0
21, 208768, Note_off_c, 14, 64, 0
21, 208768, Note_on_c, 14, 70, 106
21, 208768, Note_on_c, 14, 67, 122
21, 208832, Note_off_c, 14, 70, 0
21, 208832, Note_off_c, 14, 67, 0
21, 208832, Note_on_c, 14, 72, 120
21, 208832, Note_on_c, 14, 70, 127
21, 208896, Note_off_c, 14, 72, 0
21, 208896, Note_off_c, 14, 70, 0
21, 208896, Note_on_c, 14, 76, 125
21, 208896, Note_on_c, 14, 72, 121
21, 208960, Note_off_c, 14, 76, 0
21, 208960, Note_off_c, 14, 72, 0
21, 208960, Note_on_c, 14, 77, 125
21, 208960, Note_on_c, 14, 70, 105
21, 209024, Note_off_c, 14, 77, 0
21, 209024, Note_off_c, 14, 70, 0
21, 209024, Note_on_c, 14, 79, 118
21, 209024, Note_on_c, 14, 72, 124
21, 209088, Note_off_c, 14, 79, 0
21, 209088, Note_off_c, 14, 72, 0
21, 209088, Note_on_c, 14, 76, 127
21, 209152, Note_off_c, 14, 76, 0
21, 209152, Note_on_c, 14, 77, 127
21, 209216, Note_off_c, 14, 77, 0
21, 209216, Note_on_c, 14, 58, 101
21, 209216, Note_on_c, 14, 79, 120
21, 209280, Note_off_c, 14, 58, 0
21, 209280, Note_off_c, 14, 79, 0
21, 209280, Note_on_c, 14, 60, 116
21, 209344, Note_off_c, 14, 60, 0
21, 209344, Note_on_c, 14, 64, 127
21, 209408, Note_off_c, 14, 64, 0
21, 209408, Note_on_c, 14, 67, 123
21, 209408, Note_on_c, 14, 58, 102
21, 209472, Note_off_c, 14, 67, 0
21, 209472, Note_off_c, 14, 58, 0
21, 209472, Note_on_c, 14, 70, 124
21, 209472, Note_on_c, 14, 60, 115
21, 209536, Note_off_c, 14, 70, 0
21, 209536, Note_off_c, 14, 60, 0
21, 209536, Note_on_c, 14, 72, 122
21, 209536, Note_on_c, 14, 64, 127
21, 209600, Note_off_c, 14, 72, 0
21, 209600, Note_off_c, 14, 64, 0
21, 209600, Note_on_c, 14, 70, 104
21, 209600, Note_on_c, 14, 67, 123
21, 209664, Note_off_c, 14, 70, 0
21, 209664, Note_off_c, 14, 67, 0
21, 209664, Note_on_c, 14, 72, 123
21, 209664, Note_on_c, 14, 70, 124
21, 209728, Note_off_c, 14, 72, 0
21, 209728, Note_off_c, 14, 70, 0
21, 209728, Note_on_c, 14, 76, 127
21, 209728, Note_on_c, 14, 72, 124
21, 209792, Note_off_c, 14, 76, 0
21, 209792, Note_off_c, 14, 72, 0
21, 209792, Note_on_c, 14, 77, 120
21, 209792, Note_on_c, 14, 70, 105
21, 209856, Note_off_c, 14, 77, 0
21, 209856, Note_off_c, 14, 70, 0
21, 209856, Note_on_c, 14, 79, 116
21, 209856, Note_on_c, 14, 72, 120
21, 209920, Note_off_c, 14, 79, 0
21, 209920, Note_off_c, 14, 72, 0
21, 209920, Note_on_c, 14, 76, 127
21, 209984, Note_off_c, 14, 76, 0
21, 209984, Note_on_c, 14, 77, 114
21, 210048, Note_off_c, 14, 77, 0
21, 210048, Note_on_c, 14, 64, 98
21, 210048, Note_on_c, 14, 79, 118
21, 210112, Note_off_c, 14, 64, 0
21, 210112, Note_off_c, 14, 79, 0
21, 210112, Note_on_c, 14, 65, 115
21, 210176, Note_off_c, 14, 65, 0
21, 210176, Note_on_c, 14, 70, 127
21, 210240, Note_off_c, 14, 70, 0
21, 210240, Note_on_c, 14, 58, 103
21, 210304, Note_off_c, 14, 58, 0
21, 210304, Note_on_c, 14, 60, 121
21, 210368, Note_off_c, 14, 60, 0
21, 210368, Note_on_c, 14, 64, 127
21, 210432, Note_off_c, 14, 64, 0
21, 210432, Note_on_c, 14, 67, 126
21, 210432, Note_on_c, 14, 58, 102
21, 210496, Note_off_c, 14, 67, 0
21, 210496, Note_off_c, 14, 58, 0
21, 210496, Note_on_c, 14, 70, 126
21, 210496, Note_on_c, 14, 60, 115
21, 210560, Note_off_c, 14, 70, 0
21, 210560, Note_off_c, 14, 60, 0
21, 210560, Note_on_c, 14, 64, 126
21, 210624, Note_off_c, 14, 64, 0
21, 210624, Note_on_c, 14, 58, 103
21, 210624, Note_on_c, 14, 67, 126
21, 210688, Note_off_c, 14, 58, 0
21, 210688, Note_off_c, 14, 67, 0
21, 210688, Note_on_c, 14, 60, 119
21, 210688, Note_on_c, 14, 71, 126
21, 210752, Note_off_c, 14, 60, 0
21, 210752, Note_off_c, 14, 71, 0
21, 210752, Note_on_c, 14, 58, 99
21, 210816, Note_off_c, 14, 58, 0
21, 210816, Note_on_c, 14, 64, 104
21, 210816, Note_on_c, 14, 60, 118
21, 210880, Note_off_c, 14, 64, 0
21, 210880, Note_off_c, 14, 60, 0
21, 210880, Note_on_c, 14, 67, 119
21, 210880, Note_on_c, 14, 64, 127
21, 210944, Note_off_c, 14, 67, 0
21, 210944, Note_off_c, 14, 64, 0
21, 210944, Note_on_c, 14, 58, 101
21, 210944, Note_on_c, 14, 67, 127
21, 211008, Note_off_c, 14, 58, 0
21, 211008, Note_off_c, 14, 67, 0
21, 211008, Note_on_c, 14, 60, 116
21, 211008, Note_on_c, 14, 70, 127
21, 211072, Note_off_c, 14, 60, 0
21, 211072, Note_off_c, 14, 70, 0
21, 211072, Note_on_c, 14, 64, 125
21, 211136, Note_off_c, 14, 64, 0
21, 211136, Note_on_c, 14, 67, 122
21, 211200, Note_off_c, 14, 67, 0
21, 211200, Note_on_c, 14, 70, 127
21, 211200, Note_on_c, 14, 58, 100
21, 211264, Note_off_c, 14, 70, 0
21, 211264, Note_off_c, 14, 58, 0
21, 211264, Note_on_c, 14, 57, 99
21, 211264, Note_on_c, 14, 60, 117
21, 211328, Note_off_c, 14, 57, 0
21, 211328, Note_off_c, 14, 60, 0
21, 211328, Note_on_c, 14, 58, 113
21, 211328, Note_on_c, 14, 64, 127
21, 211392, Note_off_c, 14, 58, 0
21, 211392, Note_off_c, 14, 64, 0
21, 211392, Note_on_c, 14, 60, 119
21, 211392, Note_on_c, 14, 67, 127
21, 211456, Note_off_c, 14, 60, 0
21, 211456, Note_off_c, 14, 67, 0
21, 211456, Note_on_c, 14, 65, 127
21, 211456, Note_on_c, 14, 70, 126
21, 211520, Note_off_c, 14, 65, 0
21, 211520, Note_off_c, 14, 70, 0
21, 211520, Note_on_c, 14, 67, 123
21, 211520, Note_on_c, 14, 58, 100
21, 211584, Note_off_c, 14, 67, 0
21, 211584, Note_off_c, 14, 58, 0
21, 211584, Note_on_c, 14, 60, 113
21, 211648, Note_off_c, 14, 60, 0
21, 211648, Note_on_c, 14, 58, 102
21, 211648, Note_on_c, 14, 64, 122
21, 211712, Note_off_c, 14, 58, 0
21, 211712, Note_off_c, 14, 64, 0
21, 211712, Note_on_c, 14, 60, 119
21, 211712, Note_on_c, 14, 67, 127
21, 211776, Note_off_c, 14, 60, 0
21, 211776, Note_off_c, 14, 67, 0
21, 211776, Note_on_c, 14, 64, 127
21, 211776, Note_on_c, 14, 60, 97
21, 211840, Note_off_c, 14, 64, 0
21, 211840, Note_off_c, 14, 60, 0
21, 211840, Note_on_c, 14, 67, 124
21, 211840, Note_on_c, 14, 64, 122
21, 211904, Note_off_c, 14, 67, 0
21, 211904, Note_off_c, 14, 64, 0
21, 211904, Note_on_c, 14, 70, 125
21, 211904, Note_on_c, 14, 67, 122
21, 211968, Note_off_c, 14, 70, 0
21, 211968, Note_off_c, 14, 67, 0
21, 211968, Note_on_c, 14, 57, 98
21, 211968, Note_on_c, 14, 70, 125
21, 212032, Note_off_c, 14, 57, 0
21, 212032, Note_off_c, 14, 70, 0
21, 212032, Note_on_c, 14, 58, 108
21, 212096, Note_off_c, 14, 58, 0
21, 212096, Note_on_c, 14, 60, 121
21, 212160, Note_off_c, 14, 60, 0
21, 212160, Note_on_c, 14, 65, 124
21, 212160, Note_on_c, 14, 58, 101
21, 212224, Note_off_c, 14, 65, 0
21, 212224, Note_off_c, 14, 58, 0
21, 212224, Note_on_c, 14, 67, 120
21, 212224, Note_on_c, 14, 60, 113
21, 212288, Note_off_c, 14, 67, 0
21, 212288, Note_off_c, 14, 60, 0
21, 212288, Note_on_c, 14, 58, 102
21, 212288, Note_on_c, 14, 64, 127
21, 212352, Note_off_c, 14, 58, 0
21, 212352, Note_off_c, 14, 64, 0
21, 212352, Note_on_c, 14, 60, 122
21, 212352, Note_on_c, 14, 67, 127
21, 212416, Note_off_c, 14, 60, 0
21, 212416, Note_off_c, 14, 67, 0
21, 212416, Note_on_c, 14, 64, 125
21, 212416, Note_on_c, 14, 70, 123
21, 212480, Note_off_c, 14, 64, 0
21, 212480, Note_off_c, 14, 70, 0
21, 212480, Note_on_c, 14, 67, 126
21, 212480, Note_on_c, 14, 58, 101
21, 212544, Note_off_c, 14, 67, 0
21, 212544, Note_off_c, 14, 58, 0
21, 212544, Note_on_c, 14, 70, 124
21, 212544, Note_on_c, 14, 60, 119
21, 212608, Note_off_c, 14, 70, 0
21, 212608, Note_off_c, 14, 60, 0
21, 212608, Note_on_c, 14, 64, 126
21, 212672, Note_off_c, 14, 64, 0
21, 212672, Note_on_c, 14, 57, 105
21, 212672, Note_on_c, 14, 67, 124
21, 212736, Note_off_c, 14, 57, 0
21, 212736, Note_off_c, 14, 67, 0
21, 212736, Note_on_c, 14, 58, 118
21, 212736, Note_on_c, 14, 70, 126
21, 212800, Note_off_c, 14, 58, 0
21, 212800, Note_off_c, 14, 70, 0
21, 212800, Note_on_c, 14, 57, 99
21, 212864, Note_off_c, 14, 57, 0
21, 212864, Note_on_c, 14, 60, 102
21, 212864, Note_on_c, 14, 58, 114
21, 212928, Note_off_c, 14, 60, 0
21, 212928, Note_off_c, 14, 58, 0
21, 212928, Note_on_c, 14, 65, 127
21, 212928, Note_on_c, 14, 60, 118
21, 212992, Note_off_c, 14, 65, 0
21, 212992, Note_off_c, 14, 60, 0
21, 212992, Note_on_c, 14, 67, 123
21, 212992, Note_on_c, 14, 64, 127
21, 213056, Note_off_c, 14, 67, 0
21, 213056, Note_off_c, 14, 64, 0
21, 213056, Note_on_c, 14, 60, 94
21, 213056, Note_on_c, 14, 67, 121
21, 213120, Note_off_c, 14, 60, 0
21, 213120, Note_off_c, 14, 67, 0
21, 213120, Note_on_c, 14, 64, 119
21, 213120, Note_on_c, 14, 70, 125
21, 213184, Note_off_c, 14, 64, 0
21, 213184, Note_off_c, 14, 70, 0
21, 213184, Note_on_c, 14, 67, 122
21, 213248, Note_off_c, 14, 67, 0
21, 213248, Note_on_c, 14, 70, 123
21, 213248, Note_on_c, 14, 58, 97
21, 213312, Note_off_c, 14, 70, 0
21, 213312, Note_off_c, 14, 58, 0
21, 213312, Note_on_c, 14, 57, 97
21, 213312, Note_on_c, 14, 60, 117
21, 213376, Note_off_c, 14, 57, 0
21, 213376, Note_off_c, 14, 60, 0
21, 213376, Note_on_c, 14, 58, 114
21, 213376, Note_on_c, 14, 64, 125
21, 213440, Note_off_c, 14, 58, 0
21, 213440, Note_off_c, 14, 64, 0
21, 213440, Note_on_c, 14, 60, 120
21, 213440, Note_on_c, 14, 67, 124
21, 213504, Note_off_c, 14, 60, 0
21, 213504, Note_off_c, 14, 67, 0
21, 213504, Note_on_c, 14, 65, 123
21, 213504, Note_on_c, 14, 70, 124
21, 213568, Note_off_c, 14, 65, 0
21, 213568, Note_off_c, 14, 70, 0
21, 213568, Note_on_c, 14, 67, 116
21, 213568, Note_on_c, 14, 60, 88
21, 213632, Note_off_c, 14, 67, 0
21, 213632, Note_off_c, 14, 60, 0
21, 213632, Note_on_c, 14, 64, 123
21, 213696, Note_off_c, 14, 64, 0
21, 213696, Note_on_c, 14, 58, 105
21, 213696, Note_on_c, 14, 67, 125
21, 213760, Note_off_c, 14, 58, 0
21, 213760, Note_off_c, 14, 67, 0
21, 213760, Note_on_c, 14, 60, 120
21, 213824, Note_off_c, 14, 60, 0
21, 213824, Note_on_c, 14, 64, 127
21, 213824, Note_on_c, 14, 58, 101
21, 213888, Note_off_c, 14, 64, 0
21, 213888, Note_off_c, 14, 58, 0
21, 213888, Note_on_c, 14, 67, 124
21, 213888, Note_on_c, 14, 60, 116
21, 213952, Note_off_c, 14, 67, 0
21, 213952, Note_off_c, 14, 60, 0
21, 213952, Note_on_c, 14, 70, 126
21, 213952, Note_on_c, 14, 64, 127
21, 214016, Note_off_c, 14, 70, 0
21, 214016, Note_off_c, 14, 64, 0
21, 214016, Note_on_c, 14, 55, 97
21, 214016, Note_on_c, 14, 67, 123
21, 214080, Note_off_c, 14, 55, 0
21, 214080, Note_off_c, 14, 67, 0
21, 214080, Note_on_c, 14, 58, 117
21, 214080, Note_on_c, 14, 70, 126
21, 214144, Note_off_c, 14, 58, 0
21, 214144, Note_off_c, 14, 70, 0
21, 214144, Note_on_c, 14, 60, 117
21, 214208, Note_off_c, 14, 60, 0
21, 214208, Note_on_c, 14, 64, 127
21, 214208, Note_on_c, 14, 57, 100
21, 214272, Note_off_c, 14, 64, 0
21, 214272, Note_off_c, 14, 57, 0
21, 214272, Note_on_c, 14, 58, 116
21, 214336, Note_off_c, 14, 58, 0
21, 214336, Note_on_c, 14, 55, 98
21, 214336, Note_on_c, 14, 60, 122
21, 214400, Note_off_c, 14, 55, 0
21, 214400, Note_off_c, 14, 60, 0
21, 214400, Note_on_c, 14, 58, 117
21, 214400, Note_on_c, 14, 64, 123
21, 214464, Note_off_c, 14, 58, 0
21, 214464, Note_off_c, 14, 64, 0
21, 214464, Note_on_c, 14, 60, 119
21, 214464, Note_on_c, 14, 67, 122
21, 214528, Note_off_c, 14, 60, 0
21, 214528, Note_off_c, 14, 67, 0
21, 214528, Note_on_c, 14, 64, 124
21, 214528, Note_on_c, 14, 58, 103
21, 214592, Note_off_c, 14, 64, 0
21, 214592, Note_off_c, 14, 58, 0
21, 214592, Note_on_c, 14, 65, 121
21, 214592, Note_on_c, 14, 60, 121
21, 214656, Note_off_c, 14, 65, 0
21, 214656, Note_off_c, 14, 60, 0
21, 214656, Note_on_c, 14, 64, 127
21, 214720, Note_off_c, 14, 64, 0
21, 214720, Note_on_c, 14, 55, 108
21, 214720, Note_on_c, 14, 67, 127
21, 214784, Note_off_c, 14, 55, 0
21, 214784, Note_off_c, 14, 67, 0
21, 214784, Note_on_c, 14, 58, 119
21, 214784, Note_on_c, 14, 70, 124
21, 214848, Note_off_c, 14, 58, 0
21, 214848, Note_off_c, 14, 70, 0
21, 214848, Note_on_c, 14, 60, 120
21, 214848, Note_on_c, 14, 57, 95
21, 214912, Note_off_c, 14, 60, 0
21, 214912, Note_off_c, 14, 57, 0
21, 214912, Note_on_c, 14, 64, 124
21, 214912, Note_on_c, 14, 58, 114
21, 214976, Note_off_c, 14, 64, 0
21, 214976, Note_off_c, 14, 58, 0
21, 214976, Note_on_c, 14, 60, 121
21, 215040, Note_off_c, 14, 60, 0
21, 215040, Note_on_c, 14, 55, 101
21, 215040, Note_on_c, 14, 64, 127
21, 215104, Note_off_c, 14, 55, 0
21, 215104, Note_off_c, 14, 64, 0
21, 215104, Note_on_c, 14, 58, 115
21, 215104, Note_on_c, 14, 67, 127
21, 215168, Note_off_c, 14, 58, 0
21, 215168, Note_off_c, 14, 67, 0
21, 215168, Note_on_c, 14, 60, 121
21, 215232, Note_off_c, 14, 60, 0
21, 215232, Note_on_c, 14, 64, 122
21, 215232, Note_on_c, 14, 57, 100
21, 215296, Note_off_c, 14, 64, 0
21, 215296, Note_off_c, 14, 57, 0
21, 215296, Note_on_c, 14, 65, 125
21, 215296, Note_on_c, 14, 58, 113
21, 215360, Note_off_c, 14, 65, 0
21, 215360, Note_off_c, 14, 58, 0
21, 215360, Note_on_c, 14, 55, 100
21, 215360, Note_on_c, 14, 60, 116
21, 215424, Note_off_c, 14, 55, 0
21, 215424, Note_off_c, 14, 60, 0
21, 215424, Note_on_c, 14, 58, 120
21, 215424, Note_on_c, 14, 64, 125
21, 215488, Note_off_c, 14, 58, 0
21, 215488, Note_off_c, 14, 64, 0
21, 215488, Note_on_c, 14, 60, 121
21, 215488, Note_on_c, 14, 67, 127
21, 215552, Note_off_c, 14, 60, 0
21, 215552, Note_off_c, 14, 67, 0
21, 215552, Note_on_c, 14, 64, 122
21, 215552, Note_on_c, 14, 58, 105
21, 215616, Note_off_c, 14, 64, 0
21, 215616, Note_off_c, 14, 58, 0
21, 215616, Note_on_c, 14, 60, 118
21, 215680, Note_off_c, 14, 60, 0
21, 215680, Note_on_c, 14, 64, 127
21, 215744, Note_off_c, 14, 64, 0
21, 215744, Note_on_c, 14, 55, 108
21, 215744, Note_on_c, 14, 67, 124
21, 215808, Note_off_c, 14, 55, 0
21, 215808, Note_off_c, 14, 67, 0
21, 215808, Note_on_c, 14, 58, 113
21, 215808, Note_on_c, 14, 70, 124
21, 215872, Note_off_c, 14, 58, 0
21, 215872, Note_off_c, 14, 70, 0
21, 215872, Note_on_c, 14, 60, 119
21, 215872, Note_on_c, 14, 57, 100
21, 215936, Note_off_c, 14, 60, 0
21, 215936, Note_off_c, 14, 57, 0
21, 215936, Note_on_c, 14, 64, 125
21, 215936, Note_on_c, 14, 58, 116
21, 216000, Note_off_c, 14, 64, 0
21, 216000, Note_off_c, 14, 58, 0
21, 216000, Note_on_c, 14, 60, 117
21, 216064, Note_off_c, 14, 60, 0
21, 216064, Note_on_c, 14, 55, 97
21, 216064, Note_on_c, 14, 64, 126
21, 216128, Note_off_c, 14, 55, 0
21, 216128, Note_off_c, 14, 64, 0
21, 216128, Note_on_c, 14, 58, 119
21, 216128, Note_on_c, 14, 67, 126
21, 216192, Note_off_c, 14, 58, 0
21, 216192, Note_off_c, 14, 67, 0
21, 216192, Note_on_c, 14, 60, 121
21, 216256, Note_off_c, 14, 60, 0
21, 216256, Note_on_c, 14, 64, 120
21, 216256, Note_on_c, 14, 57, 101
21, 216320, Note_off_c, 14, 64, 0
21, 216320, Note_off_c, 14, 57, 0
21, 216320, Note_on_c, 14, 58, 114
21, 216384, Note_off_c, 14, 58, 0
21, 216384, Note_on_c, 14, 55, 103
21, 216384, Note_on_c, 14, 60, 116
21, 216448, Note_off_c, 14, 55, 0
21, 216448, Note_off_c, 14, 60, 0
21, 216448, Note_on_c, 14, 58, 121
21, 216448, Note_on_c, 14, 64, 127
21, 216512, Note_off_c, 14, 58, 0
21, 216512, Note_off_c, 14, 64, 0
21, 216512, Note_on_c, 14, 60, 117
21, 216512, Note_on_c, 14, 65, 122
21, 216576, Note_off_c, 14, 60, 0
21, 216576, Note_off_c, 14, 65, 0
21, 216576, Note_on_c, 14, 64, 126
21, 216576, Note_on_c, 14, 55, 96
21, 216640, Note_off_c, 14, 64, 0
21, 216640, Note_off_c, 14, 55, 0
21, 216640, Note_on_c, 14, 65, 117
21, 216640, Note_on_c, 14, 58, 116
21, 216704, Note_off_c, 14, 65, 0
21, 216704, Note_off_c, 14, 58, 0
21, 216704, Note_on_c, 14, 60, 124
21, 216768, Note_off_c, 14, 60, 0
21, 216768, Note_on_c, 14, 55, 100
21, 216768, Note_on_c, 14, 64, 127
21, 216832, Note_off_c, 14, 55, 0
21, 216832, Note_off_c, 14, 64, 0
21, 216832, Note_on_c, 14, 58, 108
21, 216832, Note_on_c, 14, 60, 98
21, 216896, Note_off_c, 14, 58, 0
21, 216896, Note_off_c, 14, 60, 0
21, 216896, Note_on_c, 14, 55, 103
21, 216960, Note_off_c, 14, 55, 0
21, 216960, Note_on_c, 14, 58, 116
21, 217024, Note_off_c, 14, 58, 0
21, 217024, Note_on_c, 14, 60, 119
21, 217088, Note_off_c, 14, 60, 0
21, 217088, Note_on_c, 14, 55, 98
21, 217088, Note_on_c, 14, 64, 127
21, 217152, Note_off_c, 14, 55, 0
21, 217152, Note_off_c, 14, 64, 0
21, 217152, Note_on_c, 14, 58, 114
21, 217216, Note_off_c, 14, 58, 0
21, 217216, Note_on_c, 14, 60, 115
21, 217280, Note_off_c, 14, 60, 0
21, 217280, Note_on_c, 14, 64, 127
21, 217280, Note_on_c, 14, 55, 105
21, 217344, Note_off_c, 14, 64, 0
21, 217344, Note_off_c, 14, 55, 0
21, 217344, Note_on_c, 14, 60, 100
21, 217344, Note_on_c, 14, 58, 114
21, 217408, Note_off_c, 14, 60, 0
21, 217408, Note_off_c, 14, 58, 0
21, 217408, Note_on_c, 14, 55, 106
21, 217408, Note_on_c, 14, 60, 122
21, 217472, Note_off_c, 14, 55, 0
21, 217472, Note_off_c, 14, 60, 0
21, 217472, Note_on_c, 14, 58, 112
21, 217472, Note_on_c, 14, 64, 127
21, 217536, Note_off_c, 14, 58, 0
21, 217536, Note_off_c, 14, 64, 0
21, 217536, Note_on_c, 14, 60, 119
21, 217600, Note_off_c, 14, 60, 0
21, 217600, Note_on_c, 14, 64, 122
21, 217600, Note_on_c, 14, 55, 97
21, 217664, Note_off_c, 14, 64, 0
21, 217664, Note_off_c, 14, 55, 0
21, 217664, Note_on_c, 14, 60, 98
21, 217664, Note_on_c, 14, 58, 113
21, 217728, Note_off_c, 14, 60, 0
21, 217728, Note_off_c, 14, 58, 0
21, 217728, Note_on_c, 14, 60, 118
21, 217792, Note_off_c, 14, 60, 0
21, 217792, Note_on_c, 14, 55, 102
21, 217792, Note_on_c, 14, 64, 124
21, 217856, Note_off_c, 14, 55, 0
21, 217856, Note_off_c, 14, 64, 0
21, 217856, Note_on_c, 14, 58, 113
21, 217856, Note_on_c, 14, 60, 104
21, 217920, Note_off_c, 14, 58, 0
21, 217920, Note_off_c, 14, 60, 0
21, 217920, Note_on_c, 14, 60, 123
21, 217920, Note_on_c, 14, 55, 104
21, 217984, Note_off_c, 14, 60, 0
21, 217984, Note_off_c, 14, 55, 0
21, 217984, Note_on_c, 14, 64, 125
21, 217984, Note_on_c, 14, 58, 118
21, 218048, Note_off_c, 14, 64, 0
21, 218048, Note_off_c, 14, 58, 0
21, 218048, Note_on_c, 14, 60, 119
21, 218112, Note_off_c, 14, 60, 0
21, 218112, Note_on_c, 14, 55, 101
21, 218112, Note_on_c, 14, 64, 120
21, 218176, Note_off_c, 14, 55, 0
21, 218176, Note_off_c, 14, 64, 0
21, 218176, Note_on_c, 14, 58, 121
21, 218176, Note_on_c, 14, 60, 102
21, 218240, Note_off_c, 14, 58, 0
21, 218240, Note_off_c, 14, 60, 0
21, 218240, Note_on_c, 14, 60, 122
21, 218304, Note_off_c, 14, 60, 0
21, 218304, Note_on_c, 14, 64, 127
21, 218304, Note_on_c, 14, 55, 105
21, 218368, Note_off_c, 14, 64, 0
21, 218368, Note_off_c, 14, 55, 0
21, 218368, Note_on_c, 14, 60, 107
21, 218368, Note_on_c, 14, 58, 122
21, 218432, Note_off_c, 14, 60, 0
21, 218432, Note_off_c, 14, 58, 0
21, 218432, Note_on_c, 14, 55, 111
21, 218432, Note_on_c, 14, 60, 125
21, 218496, Note_off_c, 14, 55, 0
21, 218496, Note_off_c, 14, 60, 0
21, 218496, Note_on_c, 14, 58, 119
21, 218496, Note_on_c, 14, 64, 127
21, 218560, Note_off_c, 14, 58, 0
21, 218560, Note_off_c, 14, 64, 0
21, 218560, Note_on_c, 14, 60, 122
21, 218560, Note_on_c, 14, 60, 110
21, 218624, Note_off_c, 14, 60, 0
21, 218624, Note_off_c, 14, 60, 0
21, 218624, Note_on_c, 14, 64, 127
21, 218624, Note_on_c, 14, 55, 114
21, 218688, Note_off_c, 14, 64, 0
21, 218688, Note_off_c, 14, 55, 0
21, 218688, Note_on_c, 14, 60, 112
21, 218688, Note_on_c, 14, 58, 124
21, 218752, Note_off_c, 14, 60, 0
21, 218752, Note_off_c, 14, 58, 0
21, 218752, Note_on_c, 14, 60, 127
21, 218816, Note_off_c, 14, 60, 0
21, 218880, Note_on_c, 14, 60, 117
21, 218880, Note_on_c, 14, 48, 117
21, 218965, Note_off_c, 14, 60, 0
21, 218965, Note_off_c, 14, 48, 0
21, 218965, Note_on_c, 14, 62, 127
21, 218965, Note_on_c, 14, 50, 127
21, 219050, Note_off_c, 14, 62, 0
21, 219050, Note_off_c, 14, 50, 0
21, 219050, Note_on_c, 14, 66, 127
21, 219050, Note_on_c, 14, 54, 127
21, 219136, Note_off_c, 14, 66, 0
21, 219136, Note_off_c, 14, 54, 0
21, 219136, Note_on_c, 14, 69, 127
21, 219136, Note_on_c, 14, 57, 127
21, 219221, Note_off_c, 14, 69, 0
21, 219221, Note_off_c, 14, 57, 0
21, 219221, Note_on_c, 14, 70, 127
21, 219221, Note_on_c, 14, 58, 126
21, 219306, Note_off_c, 14, 70, 0
21, 219306, Note_off_c, 14, 58, 0
21, 219306, Note_on_c, 14, 72, 127
21, 219306, Note_on_c, 14, 60, 127
21, 219392, Note_off_c, 14, 72, 0
21, 219392, Note_off_c, 14, 60, 0
21, 219392, Note_on_c, 14, 74, 127
21, 219392, Note_on_c, 14, 62, 127
21, 219477, Note_off_c, 14, 74, 0
21, 219477, Note_off_c, 14, 62, 0
21, 219477, Note_on_c, 14, 78, 127
21, 219477, Note_on_c, 14, 66, 127
21, 219562, Note_off_c, 14, 78, 0
21, 219562, Note_off_c, 14, 66, 0
21, 219562, Note_on_c, 14, 81, 127
21, 219562, Note_on_c, 14, 69, 127
21, 219648, Note_off_c, 14, 81, 0
21, 219648, Note_off_c, 14, 69, 0
21, 219733, Note_on_c, 14, 57, 114
21, 219818, Note_off_c, 14, 57, 0
21, 219818, Note_on_c, 14, 58, 126
21, 219904, Note_off_c, 14, 58, 0
21, 219904, Note_on_c, 14, 62, 127
21, 219904, Note_on_c, 14, 50, 114
21, 219989, Note_off_c, 14, 62, 0
21, 219989, Note_off_c, 14, 50, 0
21, 219989, Note_on_c, 14, 66, 127
21, 219989, Note_on_c, 14, 54, 127
21, 220074, Note_off_c, 14, 66, 0
21, 220074, Note_off_c, 14, 54, 0
21, 220074, Note_on_c, 14, 60, 112
21, 220074, Note_on_c, 14, 48, 115
21, 220160, Note_off_c, 14, 60, 0
21, 220160, Note_off_c, 14, 48, 0
21, 220160, Note_on_c, 14, 69, 127
21, 220160, Note_on_c, 14, 57, 127
21, 220245, Note_off_c, 14, 69, 0
21, 220245, Note_off_c, 14, 57, 0
21, 220245, Note_on_c, 14, 70, 127
21, 220245, Note_on_c, 14, 58, 127
21, 220330, Note_off_c, 14, 70, 0
21, 220330, Note_off_c, 14, 58, 0
21, 220330, Note_on_c, 14, 72, 127
21, 220330, Note_on_c, 14, 60, 127
21, 220416, Note_off_c, 14, 72, 0
21, 220416, Note_off_c, 14, 60, 0
21, 220416, Note_on_c, 14, 74, 127
21, 220416, Note_on_c, 14, 62, 127
21, 220501, Note_off_c, 14, 74, 0
21, 220501, Note_off_c, 14, 62, 0
21, 220501, Note_on_c, 14, 78, 127
21, 220501, Note_on_c, 14, 66, 127
21, 220586, Note_off_c, 14, 78, 0
21, 220586, Note_off_c, 14, 66, 0
21, 220586, Note_on_c, 14, 79, 127
21, 220586, Note_on_c, 14, 67, 127
21, 220672, Note_off_c, 14, 79, 0
21, 220672, Note_off_c, 14, 67, 0
21, 220672, Note_on_c, 14, 81, 127
21, 220672, Note_on_c, 14, 69, 127
21, 220757, Note_off_c, 14, 81, 0
21, 220757, Note_off_c, 14, 69, 0
21, 220757, Note_on_c, 14, 79, 125
21, 220757, Note_on_c, 14, 67, 119
21, 220842, Note_off_c, 14, 79, 0
21, 220842, Note_off_c, 14, 67, 0
21, 220842, Note_on_c, 14, 84, 127
21, 220842, Note_on_c, 14, 72, 127
21, 220928, Note_off_c, 14, 84, 0
21, 220928, Note_off_c, 14, 72, 0
21, 221013, Note_on_c, 14, 64, 119
21, 221013, Note_on_c, 14, 52, 114
21, 221098, Note_off_c, 14, 64, 0
21, 221098, Note_off_c, 14, 52, 0
21, 221098, Note_on_c, 14, 66, 127
21, 221098, Note_on_c, 14, 54, 127
21, 221184, Note_off_c, 14, 66, 0
21, 221184, Note_off_c, 14, 54, 0
21, 221184, Note_on_c, 14, 67, 127
21, 221184, Note_on_c, 14, 55, 124
21, 221269, Note_off_c, 14, 67, 0
21, 221269, Note_off_c, 14, 55, 0
21, 221269, Note_on_c, 14, 66, 119
21, 221269, Note_on_c, 14, 54, 122
21, 221354, Note_off_c, 14, 66, 0
21, 221354, Note_off_c, 14, 54, 0
21, 221354, Note_on_c, 14, 69, 127
21, 221354, Note_on_c, 14, 57, 127
21, 221440, Note_off_c, 14, 69, 0
21, 221440, Note_off_c, 14, 57, 0
21, 221440, Note_on_c, 14, 72, 127
21, 221440, Note_on_c, 14, 60, 127
21, 221525, Note_off_c, 14, 72, 0
21, 221525, Note_off_c, 14, 60, 0
21, 221525, Note_on_c, 14, 74, 127
21, 221525, Note_on_c, 14, 62, 127
21, 221610, Note_off_c, 14, 74, 0
21, 221610, Note_off_c, 14, 62, 0
21, 221610, Note_on_c, 14, 78, 127
21, 221610, Note_on_c, 14, 66, 127
21, 221696, Note_off_c, 14, 78, 0
21, 221696, Note_off_c, 14, 66, 0
21, 221696, Note_on_c, 14, 79, 127
21, 221696, Note_on_c, 14, 67, 127
21, 221781, Note_off_c, 14, 79, 0
21, 221781, Note_off_c, 14, 67, 0
21, 221781, Note_on_c, 14, 81, 127
21, 221781, Note_on_c, 14, 69, 127
21, 221866, Note_off_c, 14, 81, 0
21, 221866, Note_off_c, 14, 69, 0
21, 221866, Note_on_c, 14, 86, 127
21, 221866, Note_on_c, 14, 74, 127
21, 221952, Note_off_c, 14, 86, 0
21, 221952, Note_off_c, 14, 74, 0
21, 222037, Note_on_c, 14, 66, 114
21, 222037, Note_on_c, 14, 54, 116
21, 222122, Note_off_c, 14, 66, 0
21, 222122, Note_off_c, 14, 54, 0
21, 222122, Note_on_c, 14, 67, 127
21, 222122, Note_on_c, 14, 55, 126
21, 222208, Note_off_c, 14, 67, 0
21, 222208, Note_off_c, 14, 55, 0
21, 222208, Note_on_c, 14, 69, 127
21, 222208, Note_on_c, 14, 57, 127
21, 222293, Note_off_c, 14, 69, 0
21, 222293, Note_off_c, 14, 57, 0
21, 222293, Note_on_c, 14, 74, 127
21, 222293, Note_on_c, 14, 62, 127
21, 222378, Note_off_c, 14, 74, 0
21, 222378, Note_off_c, 14, 62, 0
21, 222378, Note_on_c, 14, 72, 123
21, 222378, Note_on_c, 14, 60, 126
21, 222464, Note_off_c, 14, 72, 0
21, 222464, Note_off_c, 14, 60, 0
21, 222464, Note_on_c, 14, 78, 127
21, 222464, Note_on_c, 14, 66, 127
21, 222549, Note_off_c, 14, 78, 0
21, 222549, Note_off_c, 14, 66, 0
21, 222549, Note_on_c, 14, 79, 127
21, 222549, Note_on_c, 14, 67, 127
21, 222634, Note_off_c, 14, 79, 0
21, 222634, Note_off_c, 14, 67, 0
21, 222634, Note_on_c, 14, 81, 127
21, 222634, Note_on_c, 14, 69, 127
21, 222720, Note_off_c, 14, 81, 0
21, 222720, Note_off_c, 14, 69, 0
21, 222720, Note_on_c, 14, 84, 127
21, 222720, Note_on_c, 14, 72, 127
21, 222805, Note_off_c, 14, 84, 0
21, 222805, Note_off_c, 14, 72, 0
21, 222805, Note_on_c, 14, 86, 127
21, 222805, Note_on_c, 14, 74, 127
21, 222890, Note_off_c, 14, 86, 0
21, 222890, Note_off_c, 14, 74, 0
21, 222890, Note_on_c, 14, 84, 123
21, 222890, Note_on_c, 14, 72, 119
21, 222976, Note_off_c, 14, 84, 0
21, 222976, Note_off_c, 14, 72, 0
21, 222976, Note_on_c, 14, 88, 127
21, 222976, Note_on_c, 14, 76, 127
21, 223061, Note_off_c, 14, 88, 0
21, 223061, Note_off_c, 14, 76, 0
21, 223146, Note_on_c, 14, 55, 112
21, 223232, Note_off_c, 14, 55, 0
21, 223232, Note_on_c, 14, 57, 127
21, 223317, Note_off_c, 14, 57, 0
21, 223317, Note_on_c, 14, 60, 127
21, 223317, Note_on_c, 14, 48, 113
21, 223402, Note_off_c, 14, 60, 0
21, 223402, Note_off_c, 14, 48, 0
21, 223402, Note_on_c, 14, 62, 127
21, 223402, Note_on_c, 14, 50, 126
21, 223488, Note_off_c, 14, 62, 0
21, 223488, Note_off_c, 14, 50, 0
21, 223488, Note_on_c, 14, 66, 127
21, 223488, Note_on_c, 14, 54, 127
21, 223573, Note_off_c, 14, 66, 0
21, 223573, Note_off_c, 14, 54, 0
21, 223573, Note_on_c, 14, 67, 127
21, 223573, Note_on_c, 14, 55, 127
21, 223658, Note_off_c, 14, 67, 0
21, 223658, Note_off_c, 14, 55, 0
21, 223658, Note_on_c, 14, 69, 127
21, 223658, Note_on_c, 14, 57, 127
21, 223744, Note_off_c, 14, 69, 0
21, 223744, Note_off_c, 14, 57, 0
21, 223744, Note_on_c, 14, 72, 127
21, 223744, Note_on_c, 14, 60, 127
21, 223829, Note_off_c, 14, 72, 0
21, 223829, Note_off_c, 14, 60, 0
21, 223829, Note_on_c, 14, 74, 127
21, 223829, Note_on_c, 14, 62, 127
21, 223914, Note_off_c, 14, 74, 0
21, 223914, Note_off_c, 14, 62, 0
21, 223914, Note_on_c, 14, 78, 127
21, 223914, Note_on_c, 14, 66, 127
21, 224000, Note_off_c, 14, 78, 0
21, 224000, Note_off_c, 14, 66, 0
21, 224000, Note_on_c, 14, 79, 127
21, 224000, Note_on_c, 14, 67, 127
21, 224085, Note_off_c, 14, 79, 0
21, 224085, Note_off_c, 14, 67, 0
21, 224085, Note_on_c, 14, 78, 125
21, 224085, Note_on_c, 14, 66, 124
21, 224170, Note_off_c, 14, 78, 0
21, 224170, Note_off_c, 14, 66, 0
21, 224170, Note_on_c, 14, 81, 127
21, 224170, Note_on_c, 14, 69, 127
21, 224256, Note_off_c, 14, 81, 0
21, 224256, Note_off_c, 14, 69, 0
21, 224256, Note_on_c, 14, 84, 127
21, 224256, Note_on_c, 14, 72, 127
21, 224341, Note_off_c, 14, 84, 0
21, 224341, Note_off_c, 14, 72, 0
21, 224341, Note_on_c, 14, 86, 127
21, 224341, Note_on_c, 14, 74, 127
21, 224426, Note_off_c, 14, 86, 0
21, 224426, Note_off_c, 14, 74, 0
21, 224426, Note_on_c, 14, 88, 127
21, 224426, Note_on_c, 14, 76, 127
21, 224512, Note_off_c, 14, 88, 0
21, 224512, Note_off_c, 14, 76, 0
21, 224512, Note_on_c, 14, 86, 125
21, 224512, Note_on_c, 14, 74, 116
21, 224597, Note_off_c, 14, 86, 0
21, 224597, Note_off_c, 14, 74, 0
21, 224597, Note_on_c, 14, 90, 127
21, 224597, Note_on_c, 14, 78, 127
21, 224682, Note_off_c, 14, 90, 0
21, 224682, Note_off_c, 14, 78, 0
21, 224768, Note_on_c, 14, 60, 114
21, 224768, Note_on_c, 14, 48, 116
21, 224853, Note_off_c, 14, 60, 0
21, 224853, Note_off_c, 14, 48, 0
21, 224853, Note_on_c, 14, 62, 127
21, 224853, Note_on_c, 14, 50, 127
21, 224938, Note_off_c, 14, 62, 0
21, 224938, Note_off_c, 14, 50, 0
21, 224938, Note_on_c, 14, 66, 127
21, 224938, Note_on_c, 14, 54, 127
21, 225024, Note_off_c, 14, 66, 0
21, 225024, Note_off_c, 14, 54, 0
21, 225024, Note_on_c, 14, 67, 127
21, 225024, Note_on_c, 14, 55, 127
21, 225109, Note_off_c, 14, 67, 0
21, 225109, Note_off_c, 14, 55, 0
21, 225109, Note_on_c, 14, 69, 127
21, 225109, Note_on_c, 14, 57, 127
21, 225194, Note_off_c, 14, 69, 0
21, 225194, Note_off_c, 14, 57, 0
21, 225194, Note_on_c, 14, 72, 127
21, 225194, Note_on_c, 14, 60, 127
21, 225280, Note_off_c, 14, 72, 0
21, 225280, Note_off_c, 14, 60, 0
21, 225280, Note_on_c, 14, 74, 127
21, 225280, Note_on_c, 14, 62, 127
21, 225365, Note_off_c, 14, 74, 0
21, 225365, Note_off_c, 14, 62, 0
21, 225365, Note_on_c, 14, 78, 127
21, 225365, Note_on_c, 14, 66, 127
21, 225450, Note_off_c, 14, 78, 0
21, 225450, Note_off_c, 14, 66, 0
21, 225450, Note_on_c, 14, 79, 127
21, 225450, Note_on_c, 14, 67, 127
21, 225536, Note_off_c, 14, 79, 0
21, 225536, Note_off_c, 14, 67, 0
21, 225536, Note_on_c, 14, 81, 127
21, 225536, Note_on_c, 14, 69, 127
21, 225621, Note_off_c, 14, 81, 0
21, 225621, Note_off_c, 14, 69, 0
21, 225621, Note_on_c, 14, 84, 127
21, 225621, Note_on_c, 14, 72, 127
21, 225706, Note_off_c, 14, 84, 0
21, 225706, Note_off_c, 14, 72, 0
21, 225706, Note_on_c, 14, 88, 127
21, 225706, Note_on_c, 14, 76, 127
21, 225792, Note_off_c, 14, 88, 0
21, 225792, Note_off_c, 14, 76, 0
21, 225792, Note_on_c, 14, 82, 116
21, 225792, Note_on_c, 14, 70, 109
21, 225877, Note_off_c, 14, 82, 0
21, 225877, Note_off_c, 14, 70, 0
21, 225877, Note_on_c, 14, 86, 127
21, 225877, Note_on_c, 14, 74, 127
21, 225962, Note_off_c, 14, 86, 0
21, 225962, Note_off_c, 14, 74, 0
21, 225962, Note_on_c, 14, 90, 127
21, 225962, Note_on_c, 14, 78, 127
21, 226048, Note_off_c, 14, 90, 0
21, 226048, Note_off_c, 14, 78, 0
21, 226218, Note_on_c, 14, 81, 127
21, 226218, Note_on_c, 14, 69, 127
21, 226304, Note_off_c, 14, 81, 0
21, 226304, Note_off_c, 14, 69, 0
21, 226304, Note_on_c, 14, 84, 127
21, 226304, Note_on_c, 14, 72, 127
21, 226389, Note_off_c, 14, 84, 0
21, 226389, Note_off_c, 14, 72, 0
21, 226389, Note_on_c, 14, 88, 127
21, 226389, Note_on_c, 14, 76, 127
21, 226474, Note_off_c, 14, 88, 0
21, 226474, Note_off_c, 14, 76, 0
21, 226474, Note_on_c, 14, 82, 127
21, 226474, Note_on_c, 14, 70, 127
21, 226560, Note_off_c, 14, 82, 0
21, 226560, Note_off_c, 14, 70, 0
21, 226560, Note_on_c, 14, 86, 127
21, 226560, Note_on_c, 14, 74, 127
21, 226645, Note_off_c, 14, 86, 0
21, 226645, Note_off_c, 14, 74, 0
21, 226645, Note_on_c, 14, 90, 127
21, 226645, Note_on_c, 14, 78, 127
21, 226730, Note_off_c, 14, 90, 0
21, 226730, Note_off_c, 14, 78, 0
21, 227072, Note_on_c, 14, 81, 127
21, 227072, Note_on_c, 14, 69, 127
21, 227157, Note_off_c, 14, 81, 0
21, 227157, Note_off_c, 14, 69, 0
21, 227157, Note_on_c, 14, 72, 117
21, 227157, Note_on_c, 14, 60, 117
21, 227242, Note_off_c, 14, 72, 0
21, 227242, Note_off_c, 14, 60, 0
21, 227242, Note_on_c, 14, 82, 127
21, 227242, Note_on_c, 14, 70, 127
21, 227328, Note_off_c, 14, 82, 0
21, 227328, Note_off_c, 14, 70, 0
21, 227328, Note_on_c, 14, 70, 115
21, 227328, Note_on_c, 14, 58, 127
21, 227413, Note_off_c, 14, 70, 0
21, 227413, Note_off_c, 14, 58, 0
21, 227413, Note_on_c, 14, 84, 127
21, 227413, Note_on_c, 14, 72, 127
21, 227498, Note_off_c, 14, 84, 0
21, 227498, Note_off_c, 14, 72, 0
21, 227754, Note_on_c, 14, 81, 127
21, 227754, Note_on_c, 14, 69, 127
21, 227840, Note_off_c, 14, 81, 0
21, 227840, Note_off_c, 14, 69, 0
21, 227840, Note_on_c, 14, 72, 115
21, 227840, Note_on_c, 14, 60, 120
21, 227925, Note_off_c, 14, 72, 0
21, 227925, Note_off_c, 14, 60, 0
21, 227925, Note_on_c, 14, 82, 127
21, 227925, Note_on_c, 14, 70, 127
21, 228010, Note_off_c, 14, 82, 0
21, 228010, Note_off_c, 14, 70, 0
21, 228010, Note_on_c, 14, 70, 119
21, 228010, Note_on_c, 14, 58, 127
21, 228096, Note_off_c, 14, 70, 0
21, 228096, Note_off_c, 14, 58, 0
21, 228096, Note_on_c, 14, 84, 127
21, 228096, Note_on_c, 14, 72, 127
21, 228224, Note_off_c, 14, 84, 0
21, 228224, Note_off_c, 14, 72, 0
21, 228352, Note_on_c, 14, 69, 127
21, 228352, Note_on_c, 14, 57, 127
21, 228437, Note_off_c, 14, 69, 0
21, 228437, Note_off_c, 14, 57, 0
21, 228437, Note_on_c, 14, 84, 127
21, 228437, Note_on_c, 14, 72, 127
21, 228522, Note_off_c, 14, 84, 0
21, 228522, Note_off_c, 14, 72, 0
21, 228522, Note_on_c, 14, 82, 127
21, 228522, Note_on_c, 14, 70, 127
21, 228608, Note_off_c, 14, 82, 0
21, 228608, Note_off_c, 14, 70, 0
21, 228608, Note_on_c, 14, 70, 115
21, 228608, Note_on_c, 14, 58, 127
21, 228693, Note_off_c, 14, 70, 0
21, 228693, Note_off_c, 14, 58, 0
21, 228693, Note_on_c, 14, 84, 127
21, 228693, Note_on_c, 14, 72, 127
21, 228778, Note_off_c, 14, 84, 0
21, 228778, Note_off_c, 14, 72, 0
21, 228864, Note_on_c, 14, 82, 127
21, 228864, Note_on_c, 14, 70, 127
21, 228949, Note_off_c, 14, 82, 0
21, 228949, Note_off_c, 14, 70, 0
21, 228949, Note_on_c, 14, 76, 127
21, 228949, Note_on_c, 14, 64, 126
21, 229034, Note_off_c, 14, 76, 0
21, 229034, Note_off_c, 14, 64, 0
21, 229034, Note_on_c, 14, 84, 127
21, 229034, Note_on_c, 14, 72, 127
21, 229120, Note_off_c, 14, 84, 0
21, 229120, Note_off_c, 14, 72, 0
21, 229120, Note_on_c, 14, 78, 127
21, 229120, Note_on_c, 14, 66, 127
21, 229205, Note_off_c, 14, 78, 0
21, 229205, Note_off_c, 14, 66, 0
21, 229205, Note_on_c, 14, 88, 127
21, 229205, Note_on_c, 14, 76, 127
21, 229290, Note_off_c, 14, 88, 0
21, 229290, Note_off_c, 14, 76, 0
21, 229461, Note_on_c, 14, 82, 127
21, 229461, Note_on_c, 14, 70, 127
21, 229546, Note_off_c, 14, 82, 0
21, 229546, Note_off_c, 14, 70, 0
21, 229546, Note_on_c, 14, 76, 127
21, 229546, Note_on_c, 14, 64, 126
21, 229632, Note_off_c, 14, 76, 0
21, 229632, Note_off_c, 14, 64, 0
21, 229632, Note_on_c, 14, 84, 127
21, 229632, Note_on_c, 14, 72, 127
21, 229717, Note_off_c, 14, 84, 0
21, 229717, Note_off_c, 14, 72, 0
21, 229717, Note_on_c, 14, 78, 127
21, 229717, Note_on_c, 14, 66, 127
21, 229802, Note_off_c, 14, 78, 0
21, 229802, Note_off_c, 14, 66, 0
21, 229802, Note_on_c, 14, 88, 127
21, 229802, Note_on_c, 14, 76, 127
21, 229888, Note_off_c, 14, 88, 0
21, 229888, Note_off_c, 14, 76, 0
21, 230016, Note_on_c, 14, 72, 127
21, 230016, Note_on_c, 14, 86, 127
21, 230144, Note_off_c, 14, 72, 0
21, 230144, Note_off_c, 14, 86, 0
21, 230400, Note_on_c, 14, 75, 127
21, 230400, Note_on_c, 14, 85, 127
21, 230528, Note_off_c, 14, 75, 0
21, 230528, Note_off_c, 14, 85, 0
21, 230784, Note_on_c, 14, 72, 127
21, 230784, Note_on_c, 14, 86, 127
21, 230912, Note_off_c, 14, 72, 0
21, 230912, Note_off_c, 14, 86, 0
21, 231168, Note_on_c, 14, 73, 127
21, 231168, Note_on_c, 14, 87, 127
21, 231296, Note_off_c, 14, 73, 0
21, 231296, Note_off_c, 14, 87, 0
21, 231552, Note_on_c, 14, 72, 127
21, 231552, Note_on_c, 14, 86, 127
21, 231680, Note_off_c, 14, 72, 0
21, 231680, Note_off_c, 14, 86, 0
21, 231936, Note_on_c, 14, 74, 127
21, 231936, Note_on_c, 14, 88, 127
21, 232064, Note_off_c, 14, 74, 0
21, 232064, Note_off_c, 14, 88, 0
21, 232320, Note_on_c, 14, 73, 127
21, 232320, Note_on_c, 14, 87, 127
21, 232448, Note_off_c, 14, 73, 0
21, 232448, Note_off_c, 14, 87, 0
21, 232704, Note_on_c, 14, 75, 127
21, 232704, Note_on_c, 14, 89, 127
21, 232832, Note_off_c, 14, 75, 0
21, 232832, Note_off_c, 14, 89, 0
21, 233216, Note_on_c, 14, 76, 127
21, 233216, Note_on_c, 14, 94, 127
21, 233344, Note_off_c, 14, 76, 0
21, 233344, Note_off_c, 14, 94, 0
21, 233728, Note_on_c, 14, 77, 127
21, 233728, Note_on_c, 14, 95, 127
21, 233856, Note_off_c, 14, 77, 0
21, 233856, Note_off_c, 14, 95, 0
21, 234240, Note_on_c, 14, 79, 127
21, 234240, Note_on_c, 14, 96, 127
21, 234368, Note_off_c, 14, 79, 0
21, 234368, Note_off_c, 14, 96, 0
21, 234752, Note_on_c, 14, 87, 127
21, 234752, Note_on_c, 14, 89, 127
21, 234752, Note_on_c, 14, 97, 127
21, 234880, Note_off_c, 14, 87, 0
21, 234880, Note_off_c, 14, 89, 0
21, 234880, Note_off_c, 14, 97, 0
21, 235136, Note_on_c, 14, 87, 127
21, 235136, Note_on_c, 14, 89, 127
21, 235136, Note_on_c, 14, 97, 127
21, 235264, Note_off_c, 14, 87, 0
21, 235264, Note_off_c, 14, 89, 0
21, 235264, Note_off_c, 14, 97, 0
21, 235520, Note_on_c, 14, 87, 127
21, 235520, Note_on_c, 14, 89, 127
21, 235520, Note_on_c, 14, 97, 127
21, 235648, Note_off_c, 14, 87, 0
21, 235648, Note_off_c, 14, 89, 0
21, 235648, Note_off_c, 14, 97, 0
21, 235904, Note_on_c, 14, 87, 127
21, 235904, Note_on_c, 14, 89, 127
21, 235904, Note_on_c, 14, 97, 127
21, 236032, Note_off_c, 14, 87, 0
21, 236032, Note_off_c, 14, 89, 0
21, 236032, Note_off_c, 14, 97, 0
21, 236288, Note_on_c, 14, 87, 127
21, 236288, Note_on_c, 14, 89, 127
21, 236288, Note_on_c, 14, 97, 127
21, 236416, Note_off_c, 14, 87, 0
21, 236416, Note_off_c, 14, 89, 0
21, 236416, Note_off_c, 14, 97, 0
21, 236672, Note_on_c, 14, 87, 127
21, 236672, Note_on_c, 14, 89, 127
21, 236672, Note_on_c, 14, 97, 127
21, 236800, Note_off_c, 14, 87, 0
21, 236800, Note_off_c, 14, 89, 0
21, 236800, Note_off_c, 14, 97, 0
21, 237056, Note_on_c, 14, 87, 127
21, 237056, Note_on_c, 14, 89, 127
21, 237056, Note_on_c, 14, 97, 127
21, 237184, Note_off_c, 14, 87, 0
21, 237184, Note_off_c, 14, 89, 0
21, 237184, Note_off_c, 14, 97, 0
21, 237440, Note_on_c, 14, 87, 127
21, 237440, Note_on_c, 14, 89, 127
21, 237440, Note_on_c, 14, 97, 127
21, 237568, Note_off_c, 14, 87, 0
21, 237568, Note_off_c, 14, 89, 0
21, 237568, Note_off_c, 14, 97, 0
21, 237824, Note_on_c, 14, 82, 127
21, 237824, Note_on_c, 14, 89, 127
21, 237824, Note_on_c, 14, 94, 127
21, 238016, Note_off_c, 14, 82, 0
21, 238016, Note_off_c, 14, 89, 0
21, 238016, Note_off_c, 14, 94, 0
21, 238208, Note_on_c, 14, 86, 127
21, 238208, Note_on_c, 14, 93, 127
21, 238400, Note_off_c, 14, 86, 0
21, 238400, Note_off_c, 14, 93, 0
21, 238592, Note_on_c, 14, 82, 127
21, 238592, Note_on_c, 14, 89, 127
21, 238784, Note_off_c, 14, 82, 0
21, 238784, Note_off_c, 14, 89, 0
21, 238976, Note_on_c, 14, 80, 127
21, 238976, Note_on_c, 14, 86, 127
21, 239168, Note_off_c, 14, 80, 0
21, 239168, Note_off_c, 14, 86, 0
21, 239360, Note_on_c, 14, 77, 127
21, 239360, Note_on_c, 14, 83, 127
21, 239552, Note_off_c, 14, 77, 0
21, 239552, Note_off_c, 14, 83, 0
21, 239744, Note_on_c, 14, 37, 127
21, 239744, Note_on_c, 14, 76, 127
21, 239744, Note_on_c, 14, 82, 127
21, 240000, Note_off_c, 14, 37, 0
21, 240000, Note_off_c, 14, 76, 0
21, 240000, Note_off_c, 14, 82, 0
21, 240000, Note_on_c, 14, 49, 91
21, 240000, Note_on_c, 14, 53, 91
21, 240000, Note_on_c, 14, 58, 91
21, 240000, Note_on_c, 14, 65, 91
21, 240064, Note_off_c, 14, 49, 0
21, 240064, Note_off_c, 14, 53, 0
21, 240064, Note_off_c, 14, 58, 0
21, 240064, Note_off_c, 14, 65, 0
21, 240256, Note_on_c, 14, 52, 116
21, 240256, Note_on_c, 14, 53, 116
21, 240256, Note_on_c, 14, 59, 116
21, 240256, Note_on_c, 14, 65, 116
21, 240320, Note_off_c, 14, 52, 0
21, 240320, Note_off_c, 14, 53, 0
21, 240320, Note_off_c, 14, 59, 0
21, 240320, Note_off_c, 14, 65, 0
21, 240320, Note_on_c, 14, 52, 125
21, 240320, Note_on_c, 14, 53, 125
21, 240320, Note_on_c, 14, 59, 125
21, 240320, Note_on_c, 14, 65, 125
21, 240384, Note_off_c, 14, 52, 0
21, 240384, Note_off_c, 14, 53, 0
21, 240384, Note_off_c, 14, 59, 0
21, 240384, Note_off_c, 14, 65, 0
21, 240384, Note_on_c, 14, 53, 127
21, 240384, Note_on_c, 14, 55, 127
21, 240384, Note_on_c, 14, 59, 127
21, 240384, Note_on_c, 14, 67, 127
21, 240448, Note_off_c, 14, 53, 0
21, 240448, Note_off_c, 14, 55, 0
21, 240448, Note_off_c, 14, 59, 0
21, 240448, Note_off_c, 14, 67, 0
21, 240640, Note_on_c, 14, 53, 115
21, 240640, Note_on_c, 14, 56, 115
21, 240640, Note_on_c, 14, 61, 115
21, 240640, Note_on_c, 14, 68, 115
21, 240704, Note_off_c, 14, 53, 0
21, 240704, Note_off_c, 14, 56, 0
21, 240704, Note_off_c, 14, 61, 0
21, 240704, Note_off_c, 14, 68, 0
21, 240704, Note_on_c, 14, 53, 123
21, 240704, Note_on_c, 14, 56, 123
21, 240704, Note_on_c, 14, 61, 123
21, 240704, Note_on_c, 14, 68, 123
21, 240768, Note_off_c, 14, 53, 0
21, 240768, Note_off_c, 14, 56, 0
21, 240768, Note_off_c, 14, 61, 0
21, 240768, Note_off_c, 14, 68, 0
21, 240768, Note_on_c, 14, 55, 126
21, 240768, Note_on_c, 14, 56, 126
21, 240768, Note_on_c, 14, 62, 126
21, 240768, Note_on_c, 14, 68, 126
21, 240832, Note_off_c, 14, 55, 0
21, 240832, Note_off_c, 14, 56, 0
21, 240832, Note_off_c, 14, 62, 0
21, 240832, Note_off_c, 14, 68, 0
21, 241024, Note_on_c, 14, 53, 112
21, 241024, Note_on_c, 14, 55, 112
21, 241024, Note_on_c, 14, 59, 112
21, 241024, Note_on_c, 14, 67, 112
21, 241152, Note_off_c, 14, 53, 0
21, 241152, Note_off_c, 14, 55, 0
21, 241152, Note_off_c, 14, 59, 0
21, 241152, Note_off_c, 14, 67, 0
21, 241152, Note_on_c, 14, 53, 127
21, 241152, Note_on_c, 14, 56, 127
21, 241152, Note_on_c, 14, 61, 127
21, 241152, Note_on_c, 14, 68, 127
21, 241216, Note_off_c, 14, 53, 0
21, 241216, Note_off_c, 14, 56, 0
21, 241216, Note_off_c, 14, 61, 0
21, 241216, Note_off_c, 14, 68, 0
21, 241216, Note_on_c, 14, 53, 127
21, 241216, Note_on_c, 14, 56, 127
21, 241216, Note_on_c, 14, 61, 127
21, 241216, Note_on_c, 14, 68, 127
21, 241280, Note_off_c, 14, 53, 0
21, 241280, Note_off_c, 14, 56, 0
21, 241280, Note_off_c, 14, 61, 0
21, 241280, Note_off_c, 14, 68, 0
21, 241280, Note_on_c, 14, 55, 124
21, 241280, Note_on_c, 14, 56, 124
21, 241280, Note_on_c, 14, 62, 124
21, 241280, Note_on_c, 14, 68, 124
21, 241344, Note_off_c, 14, 55, 0
21, 241344, Note_off_c, 14, 56, 0
21, 241344, Note_off_c, 14, 62, 0
21, 241344, Note_off_c, 14, 68, 0
21, 241408, Note_on_c, 14, 56, 127
21, 241408, Note_on_c, 14, 58, 127
21, 241408, Note_on_c, 14, 64, 127
21, 241408, Note_on_c, 14, 70, 127
21, 241536, Note_off_c, 14, 56, 0
21, 241536, Note_off_c, 14, 58, 0
21, 241536, Note_off_c, 14, 64, 0
21, 241536, Note_off_c, 14, 70, 0
21, 241664, Note_on_c, 14, 65, 127
21, 241664, Note_on_c, 14, 70, 127
21, 241664, Note_on_c, 14, 56, 127
21, 241664, Note_on_c, 14, 58, 127
21, 241792, Note_off_c, 14, 65, 0
21, 241792, Note_off_c, 14, 70, 0
21, 241792, Note_off_c, 14, 56, 0
21, 241792, Note_off_c, 14, 58, 0
21, 241792, Note_on_c, 14, 65, 127
21, 241792, Note_on_c, 14, 71, 127
21, 241792, Note_on_c, 14, 58, 127
21, 241792, Note_on_c, 14, 59, 127
21, 241920, Note_off_c, 14, 65, 0
21, 241920, Note_off_c, 14, 71, 0
21, 241920, Note_off_c, 14, 58, 0
21, 241920, Note_off_c, 14, 59, 0
21, 241920, Note_on_c, 14, 65, 127
21, 241920, Note_on_c, 14, 70, 127
21, 241920, Note_on_c, 14, 56, 127
21, 241920, Note_on_c, 14, 58, 127
21, 242048, Note_off_c, 14, 65, 0
21, 242048, Note_off_c, 14, 70, 0
21, 242048, Note_off_c, 14, 56, 0
21, 242048, Note_off_c, 14, 58, 0
21, 242176, Note_on_c, 14, 65, 127
21, 242176, Note_on_c, 14, 70, 127
21, 242176, Note_on_c, 14, 56, 127
21, 242176, Note_on_c, 14, 58, 127
21, 242304, Note_off_c, 14, 65, 0
21, 242304, Note_off_c, 14, 70, 0
21, 242304, Note_off_c, 14, 56, 0
21, 242304, Note_off_c, 14, 58, 0
21, 242304, Note_on_c, 14, 65, 127
21, 242304, Note_on_c, 14, 71, 127
21, 242304, Note_on_c, 14, 58, 127
21, 242304, Note_on_c, 14, 59, 127
21, 242432, Note_off_c, 14, 65, 0
21, 242432, Note_off_c, 14, 71, 0
21, 242432, Note_off_c, 14, 58, 0
21, 242432, Note_off_c, 14, 59, 0
21, 242432, Note_on_c, 14, 67, 127
21, 242432, Note_on_c, 14, 71, 127
21, 242432, Note_on_c, 14, 59, 127
21, 242432, Note_on_c, 14, 58, 127
21, 242560, Note_off_c, 14, 67, 0
21, 242560, Note_off_c, 14, 71, 0
21, 242560, Note_off_c, 14, 59, 0
21, 242560, Note_off_c, 14, 58, 0
21, 242688, Note_on_c, 14, 68, 127
21, 242688, Note_on_c, 14, 73, 127
21, 242688, Note_on_c, 14, 59, 127
21, 242688, Note_on_c, 14, 61, 127
21, 242816, Note_off_c, 14, 68, 0
21, 242816, Note_off_c, 14, 73, 0
21, 242816, Note_off_c, 14, 59, 0
21, 242816, Note_off_c, 14, 61, 0
21, 242816, Note_on_c, 14, 68, 127
21, 242816, Note_on_c, 14, 74, 127
21, 242816, Note_on_c, 14, 59, 127
21, 242816, Note_on_c, 14, 62, 127
21, 242944, Note_off_c, 14, 68, 0
21, 242944, Note_off_c, 14, 74, 0
21, 242944, Note_off_c, 14, 59, 0
21, 242944, Note_off_c, 14, 62, 0
21, 243072, Note_on_c, 14, 68, 127
21, 243072, Note_on_c, 14, 73, 127
21, 243072, Note_on_c, 14, 59, 127
21, 243072, Note_on_c, 14, 61, 127
21, 243200, Note_off_c, 14, 68, 0
21, 243200, Note_off_c, 14, 73, 0
21, 243200, Note_off_c, 14, 59, 0
21, 243200, Note_off_c, 14, 61, 0
21, 243200, Note_on_c, 14, 70, 127
21, 243200, Note_on_c, 14, 77, 127
21, 243200, Note_on_c, 14, 62, 127
21, 243200, Note_on_c, 14, 65, 127
21, 243328, Note_off_c, 14, 70, 0
21, 243328, Note_off_c, 14, 77, 0
21, 243328, Note_off_c, 14, 62, 0
21, 243328, Note_off_c, 14, 65, 0
21, 243456, Note_on_c, 14, 71, 127
21, 243456, Note_on_c, 14, 77, 127
21, 243456, Note_on_c, 14, 64, 127
21, 243456, Note_on_c, 14, 65, 127
21, 243584, Note_off_c, 14, 71, 0
21, 243584, Note_off_c, 14, 77, 0
21, 243584, Note_off_c, 14, 64, 0
21, 243584, Note_off_c, 14, 65, 0
21, 243584, Note_on_c, 14, 71, 127
21, 243584, Note_on_c, 14, 79, 127
21, 243584, Note_on_c, 14, 65, 127
21, 243584, Note_on_c, 14, 67, 127
21, 243712, Note_off_c, 14, 71, 0
21, 243712, Note_off_c, 14, 79, 0
21, 243712, Note_off_c, 14, 65, 0
21, 243712, Note_off_c, 14, 67, 0
21, 243840, Note_on_c, 14, 70, 127
21, 243840, Note_on_c, 14, 77, 127
21, 243840, Note_on_c, 14, 62, 124
21, 243840, Note_on_c, 14, 65, 124
21, 243968, Note_off_c, 14, 70, 0
21, 243968, Note_off_c, 14, 77, 0
21, 243968, Note_off_c, 14, 62, 0
21, 243968, Note_off_c, 14, 65, 0
21, 243968, Note_on_c, 14, 73, 127
21, 243968, Note_on_c, 14, 80, 127
21, 243968, Note_on_c, 14, 65, 127
21, 243968, Note_on_c, 14, 68, 127
21, 244224, Note_off_c, 14, 73, 0
21, 244224, Note_off_c, 14, 80, 0
21, 244224, Note_off_c, 14, 65, 0
21, 244224, Note_off_c, 14, 68, 0
21, 244224, Note_on_c, 14, 70, 127
21, 244224, Note_on_c, 14, 76, 127
21, 244224, Note_on_c, 14, 61, 126
21, 244224, Note_on_c, 14, 64, 126
21, 244352, Note_off_c, 14, 70, 0
21, 244352, Note_off_c, 14, 76, 0
21, 244352, Note_off_c, 14, 61, 0
21, 244352, Note_off_c, 14, 64, 0
21, 244352, Note_on_c, 14, 74, 127
21, 244352, Note_on_c, 14, 80, 127
21, 244352, Note_on_c, 14, 67, 127
21, 244352, Note_on_c, 14, 68, 127
21, 244608, Note_off_c, 14, 74, 0
21, 244608, Note_off_c, 14, 80, 0
21, 244608, Note_off_c, 14, 67, 0
21, 244608, Note_off_c, 14, 68, 0
21, 244608, Note_on_c, 14, 77, 127
21, 244608, Note_on_c, 14, 83, 127
21, 244608, Note_on_c, 14, 70, 127
21, 244608, Note_on_c, 14, 71, 127
21, 244736, Note_off_c, 14, 77, 0
21, 244736, Note_off_c, 14, 83, 0
21, 244736, Note_off_c, 14, 70, 0
21, 244736, Note_off_c, 14, 71, 0
21, 244736, Note_on_c, 14, 71, 116
21, 244736, Note_on_c, 14, 76, 116
21, 244736, Note_on_c, 14, 64, 123
21, 244736, Note_on_c, 14, 65, 123
21, 244864, Note_off_c, 14, 71, 0
21, 244864, Note_off_c, 14, 76, 0
21, 244864, Note_off_c, 14, 64, 0
21, 244864, Note_off_c, 14, 65, 0
21, 244864, Note_on_c, 14, 77, 127
21, 244864, Note_on_c, 14, 82, 127
21, 244864, Note_on_c, 14, 68, 127
21, 244864, Note_on_c, 14, 70, 127
21, 245120, Note_off_c, 14, 77, 0
21, 245120, Note_off_c, 14, 82, 0
21, 245120, Note_off_c, 14, 68, 0
21, 245120, Note_off_c, 14, 70, 0
21, 245120, Note_on_c, 14, 80, 127
21, 245120, Note_on_c, 14, 85, 127
21, 245120, Note_on_c, 14, 71, 127
21, 245120, Note_on_c, 14, 73, 127
21, 245248, Note_off_c, 14, 80, 0
21, 245248, Note_off_c, 14, 85, 0
21, 245248, Note_off_c, 14, 71, 0
21, 245248, Note_off_c, 14, 73, 0
21, 245504, Note_on_c, 14, 80, 127
21, 245504, Note_on_c, 14, 85, 127
21, 245504, Note_on_c, 14, 73, 127
21, 245632, Note_off_c, 14, 80, 0
21, 245632, Note_off_c, 14, 85, 0
21, 245632, Note_off_c, 14, 73, 0
21, 245888, Note_on_c, 14, 67, 112
21, 245888, Note_on_c, 14, 71, 112
21, 245888, Note_on_c, 14, 74, 112
21, 245888, Note_on_c, 14, 80, 112
21, 245888, Note_on_c, 14, 86, 112
21, 246016, Note_off_c, 14, 67, 0
21, 246016, Note_off_c, 14, 71, 0
21, 246016, Note_off_c, 14, 74, 0
21, 246016, Note_off_c, 14, 80, 0
21, 246016, Note_off_c, 14, 86, 0
21, 246272, Note_on_c, 14, 67, 111
21, 246272, Note_on_c, 14, 71, 111
21, 246272, Note_on_c, 14, 76, 111
21, 246272, Note_on_c, 14, 80, 111
21, 246272, Note_on_c, 14, 86, 111
21, 246400, Note_off_c, 14, 67, 0
21, 246400, Note_off_c, 14, 71, 0
21, 246400, Note_off_c, 14, 76, 0
21, 246400, Note_off_c, 14, 80, 0
21, 246400, Note_off_c, 14, 86, 0
21, 246656, Note_on_c, 14, 67, 114
21, 246656, Note_on_c, 14, 71, 114
21, 246656, Note_on_c, 14, 74, 114
21, 246656, Note_on_c, 14, 80, 114
21, 246656, Note_on_c, 14, 86, 114
21, 246784, Note_off_c, 14, 67, 0
21, 246784, Note_off_c, 14, 71, 0
21, 246784, Note_off_c, 14, 74, 0
21, 246784, Note_off_c, 14, 80, 0
21, 246784, Note_off_c, 14, 86, 0
21, 247168, Note_on_c, 14, 67, 116
21, 247168, Note_on_c, 14, 71, 116
21, 247168, Note_on_c, 14, 74, 116
21, 247168, Note_on_c, 14, 80, 116
21, 247168, Note_on_c, 14, 86, 116
21, 247296, Note_off_c, 14, 67, 0
21, 247296, Note_off_c, 14, 71, 0
21, 247296, Note_off_c, 14, 74, 0
21, 247296, Note_off_c, 14, 80, 0
21, 247296, Note_off_c, 14, 86, 0
21, 247936, Note_on_c, 14, 67, 114
21, 247936, Note_on_c, 14, 71, 114
21, 247936, Note_on_c, 14, 74, 114
21, 247936, Note_on_c, 14, 80, 114
21, 247936, Note_on_c, 14, 86, 114
21, 248064, Note_off_c, 14, 67, 0
21, 248064, Note_off_c, 14, 71, 0
21, 248064, Note_off_c, 14, 74, 0
21, 248064, Note_off_c, 14, 80, 0
21, 248064, Note_off_c, 14, 86, 0
21, 248704, Note_on_c, 14, 67, 113
21, 248704, Note_on_c, 14, 71, 113
21, 248704, Note_on_c, 14, 74, 113
21, 248704, Note_on_c, 14, 80, 113
21, 248704, Note_on_c, 14, 86, 113
21, 248832, Note_off_c, 14, 67, 0
21, 248832, Note_off_c, 14, 71, 0
21, 248832, Note_off_c, 14, 74, 0
21, 248832, Note_off_c, 14, 80, 0
21, 248832, Note_off_c, 14, 86, 0
21, 249472, Note_on_c, 14, 67, 117
21, 249472, Note_on_c, 14, 71, 117
21, 249472, Note_on_c, 14, 74, 117
21, 249472, Note_on_c, 14, 80, 117
21, 249472, Note_on_c, 14, 86, 117
21, 249600, Note_off_c, 14, 67, 0
21, 249600, Note_off_c, 14, 71, 0
21, 249600, Note_off_c, 14, 74, 0
21, 249600, Note_off_c, 14, 80, 0
21, 249600, Note_off_c, 14, 86, 0
21, 250240, Note_on_c, 14, 67, 115
21, 250240, Note_on_c, 14, 71, 115
21, 250240, Note_on_c, 14, 74, 115
21, 250240, Note_on_c, 14, 80, 115
21, 250240, Note_on_c, 14, 86, 115
21, 250368, Note_off_c, 14, 67, 0
21, 250368, Note_off_c, 14, 71, 0
21, 250368, Note_off_c, 14, 74, 0
21, 250368, Note_off_c, 14, 80, 0
21, 250368, Note_off_c, 14, 86, 0
21, 259072, Note_on_c, 14, 62, 94
21, 259200, Note_off_c, 14, 62, 0
21, 259584, Note_on_c, 14, 62, 88
21, 259712, Note_off_c, 14, 62, 0
21, 260608, Note_on_c, 14, 62, 87
21, 260736, Note_off_c, 14, 62, 0
21, 260992, Note_on_c, 14, 62, 85
21, 261120, Note_off_c, 14, 62, 0
21, 261376, Note_on_c, 14, 62, 91
21, 261504, Note_off_c, 14, 62, 0
21, 262528, Note_on_c, 14, 62, 86
21, 262656, Note_off_c, 14, 62, 0
21, 262912, Note_on_c, 14, 62, 92
21, 263040, Note_off_c, 14, 62, 0
21, 263296, Note_on_c, 14, 62, 87
21, 263424, Note_off_c, 14, 62, 0
21, 263680, Note_on_c, 14, 62, 94
21, 263808, Note_off_c, 14, 62, 0
21, 264064, Note_on_c, 14, 62, 90
21, 264192, Note_off_c, 14, 62, 0
21, 264448, Note_on_c, 14, 62, 92
21, 264576, Note_off_c, 14, 62, 0
21, 264704, Note_on_c, 14, 50, 62
21, 264755, Note_off_c, 14, 50, 0
21, 264768, Note_on_c, 14, 50, 62
21, 264819, Note_off_c, 14, 50, 0
21, 264832, Note_on_c, 14, 62, 94
21, 264832, Note_on_c, 14, 58, 76
21, 264883, Note_off_c, 14, 58, 0
21, 264896, Note_on_c, 14, 58, 76
21, 264947, Note_off_c, 14, 58, 0
21, 264960, Note_off_c, 14, 62, 0
21, 264960, Note_on_c, 14, 62, 77
21, 265011, Note_off_c, 14, 62, 0
21, 265024, Note_on_c, 14, 62, 77
21, 265075, Note_off_c, 14, 62, 0
21, 265088, Note_on_c, 14, 70, 83
21, 265139, Note_off_c, 14, 70, 0
21, 265152, Note_on_c, 14, 70, 83
21, 265203, Note_off_c, 14, 70, 0
21, 265216, Note_on_c, 14, 62, 90
21, 265216, Note_on_c, 14, 63, 62
21, 265267, Note_off_c, 14, 63, 0
21, 265280, Note_on_c, 14, 63, 62
21, 265331, Note_off_c, 14, 63, 0
21, 265344, Note_off_c, 14, 62, 0
21, 265344, Note_on_c, 14, 58, 66
21, 265395, Note_off_c, 14, 58, 0
21, 265408, Note_on_c, 14, 58, 66
21, 265459, Note_off_c, 14, 58, 0
21, 265472, Note_on_c, 14, 50, 64
21, 265523, Note_off_c, 14, 50, 0
21, 265536, Note_on_c, 14, 50, 64
21, 265587, Note_off_c, 14, 50, 0
21, 265600, Note_on_c, 14, 62, 95
21, 265600, Note_on_c, 14, 58, 75
21, 265651, Note_off_c, 14, 58, 0
21, 265664, Note_on_c, 14, 58, 75
21, 265715, Note_off_c, 14, 58, 0
21, 265728, Note_off_c, 14, 62, 0
21, 265984, Note_on_c, 14, 63, 95
21, 266112, Note_off_c, 14, 63, 0
21, 266368, Note_on_c, 14, 62, 94
21, 266496, Note_off_c, 14, 62, 0
21, 266496, Note_on_c, 14, 50, 61
21, 266547, Note_off_c, 14, 50, 0
21, 266560, Note_on_c, 14, 50, 61
21, 266611, Note_off_c, 14, 50, 0
21, 266624, Note_on_c, 14, 58, 76
21, 266675, Note_off_c, 14, 58, 0
21, 266688, Note_on_c, 14, 58, 76
21, 266739, Note_off_c, 14, 58, 0
21, 266752, Note_on_c, 14, 65, 94
21, 266752, Note_on_c, 14, 62, 79
21, 266803, Note_off_c, 14, 62, 0
21, 266816, Note_on_c, 14, 62, 79
21, 266867, Note_off_c, 14, 62, 0
21, 266880, Note_off_c, 14, 65, 0
21, 266880, Note_on_c, 14, 70, 83
21, 266931, Note_off_c, 14, 70, 0
21, 266944, Note_on_c, 14, 70, 83
21, 266995, Note_off_c, 14, 70, 0
21, 267008, Note_on_c, 14, 63, 61
21, 267059, Note_off_c, 14, 63, 0
21, 267072, Note_on_c, 14, 63, 61
21, 267123, Note_off_c, 14, 63, 0
21, 267136, Note_on_c, 14, 62, 90
21, 267136, Note_on_c, 14, 58, 64
21, 267187, Note_off_c, 14, 58, 0
21, 267200, Note_on_c, 14, 58, 64
21, 267251, Note_off_c, 14, 58, 0
21, 267264, Note_off_c, 14, 62, 0
21, 267264, Note_on_c, 14, 50, 63
21, 267315, Note_off_c, 14, 50, 0
21, 267328, Note_on_c, 14, 50, 63
21, 267379, Note_off_c, 14, 50, 0
21, 267392, Note_on_c, 14, 58, 76
21, 267443, Note_off_c, 14, 58, 0
21, 267456, Note_on_c, 14, 58, 76
21, 267507, Note_off_c, 14, 58, 0
21, 267520, Note_on_c, 14, 63, 89
21, 267648, Note_off_c, 14, 63, 0
21, 267904, Note_on_c, 14, 62, 87
21, 268032, Note_off_c, 14, 62, 0
21, 268032, Note_on_c, 14, 50, 64
21, 268083, Note_off_c, 14, 50, 0
21, 268096, Note_on_c, 14, 50, 64
21, 268147, Note_off_c, 14, 50, 0
21, 268160, Note_on_c, 14, 58, 76
21, 268211, Note_off_c, 14, 58, 0
21, 268224, Note_on_c, 14, 58, 76
21, 268275, Note_off_c, 14, 58, 0
21, 268288, Note_on_c, 14, 65, 84
21, 268288, Note_on_c, 14, 62, 80
21, 268339, Note_off_c, 14, 62, 0
21, 268352, Note_on_c, 14, 62, 80
21, 268403, Note_off_c, 14, 62, 0
21, 268416, Note_off_c, 14, 65, 0
21, 268416, Note_on_c, 14, 70, 79
21, 268467, Note_off_c, 14, 70, 0
21, 268480, Note_on_c, 14, 70, 79
21, 268531, Note_off_c, 14, 70, 0
21, 268544, Note_on_c, 14, 63, 59
21, 268595, Note_off_c, 14, 63, 0
21, 268608, Note_on_c, 14, 63, 59
21, 268659, Note_off_c, 14, 63, 0
21, 268672, Note_on_c, 14, 62, 94
21, 268672, Note_on_c, 14, 58, 67
21, 268723, Note_off_c, 14, 58, 0
21, 268736, Note_on_c, 14, 58, 67
21, 268787, Note_off_c, 14, 58, 0
21, 268800, Note_off_c, 14, 62, 0
21, 268800, Note_on_c, 14, 50, 58
21, 268851, Note_off_c, 14, 50, 0
21, 268864, Note_on_c, 14, 50, 58
21, 268915, Note_off_c, 14, 50, 0
21, 268928, Note_on_c, 14, 58, 69
21, 268979, Note_off_c, 14, 58, 0
21, 268992, Note_on_c, 14, 58, 69
21, 269043, Note_off_c, 14, 58, 0
21, 269056, Note_on_c, 14, 63, 91
21, 269184, Note_off_c, 14, 63, 0
21, 269440, Note_on_c, 14, 62, 94
21, 269568, Note_off_c, 14, 62, 0
21, 269568, Note_on_c, 14, 50, 67
21, 269619, Note_off_c, 14, 50, 0
21, 269632, Note_on_c, 14, 50, 67
21, 269683, Note_off_c, 14, 50, 0
21, 269696, Note_on_c, 14, 58, 77
21, 269747, Note_off_c, 14, 58, 0
21, 269760, Note_on_c, 14, 58, 77
21, 269811, Note_off_c, 14, 58, 0
21, 269824, Note_on_c, 14, 65, 83
21, 269824, Note_on_c, 14, 62, 79
21, 269875, Note_off_c, 14, 62, 0
21, 269888, Note_on_c, 14, 62, 79
21, 269939, Note_off_c, 14, 62, 0
21, 269952, Note_off_c, 14, 65, 0
21, 269952, Note_on_c, 14, 70, 86
21, 270003, Note_off_c, 14, 70, 0
21, 270016, Note_on_c, 14, 70, 86
21, 270067, Note_off_c, 14, 70, 0
21, 270080, Note_on_c, 14, 63, 56
21, 270131, Note_off_c, 14, 63, 0
21, 270144, Note_on_c, 14, 63, 56
21, 270195, Note_off_c, 14, 63, 0
21, 270208, Note_on_c, 14, 62, 91
21, 270208, Note_on_c, 14, 58, 60
21, 270259, Note_off_c, 14, 58, 0
21, 270272, Note_on_c, 14, 58, 60
21, 270323, Note_off_c, 14, 58, 0
21, 270336, Note_off_c, 14, 62, 0
21, 270336, Note_on_c, 14, 50, 65
21, 270387, Note_off_c, 14, 50, 0
21, 270400, Note_on_c, 14, 50, 65
21, 270451, Note_off_c, 14, 50, 0
21, 270464, Note_on_c, 14, 50, 74
21, 270515, Note_off_c, 14, 50, 0
21, 270528, Note_on_c, 14, 50, 74
21, 270579, Note_off_c, 14, 50, 0
21, 270592, Note_on_c, 14, 63, 89
21, 270592, Note_on_c, 14, 56, 72
21, 270643, Note_off_c, 14, 56, 0
21, 270656, Note_on_c, 14, 56, 72
21, 270707, Note_off_c, 14, 56, 0
21, 270720, Note_off_c, 14, 63, 0
21, 270720, Note_on_c, 14, 63, 83
21, 270771, Note_off_c, 14, 63, 0
21, 270784, Note_on_c, 14, 63, 83
21, 270835, Note_off_c, 14, 63, 0
21, 270976, Note_on_c, 14, 63, 89
21, 270976, Note_on_c, 14, 51, 65
21, 271027, Note_off_c, 14, 51, 0
21, 271040, Note_on_c, 14, 51, 65
21, 271091, Note_off_c, 14, 51, 0
21, 271104, Note_off_c, 14, 63, 0
21, 271104, Note_on_c, 14, 64, 86
21, 271155, Note_off_c, 14, 64, 0
21, 271168, Note_on_c, 14, 64, 86
21, 271219, Note_off_c, 14, 64, 0
21, 271232, Note_on_c, 14, 71, 89
21, 271283, Note_off_c, 14, 71, 0
21, 271296, Note_on_c, 14, 71, 89
21, 271347, Note_off_c, 14, 71, 0
21, 271360, Note_on_c, 14, 66, 91
21, 271360, Note_on_c, 14, 63, 59
21, 271411, Note_off_c, 14, 63, 0
21, 271424, Note_on_c, 14, 63, 59
21, 271475, Note_off_c, 14, 63, 0
21, 271488, Note_off_c, 14, 66, 0
21, 271488, Note_on_c, 14, 59, 67
21, 271539, Note_off_c, 14, 59, 0
21, 271552, Note_on_c, 14, 59, 67
21, 271603, Note_off_c, 14, 59, 0
21, 271616, Note_on_c, 14, 52, 64
21, 271667, Note_off_c, 14, 52, 0
21, 271680, Note_on_c, 14, 52, 64
21, 271731, Note_off_c, 14, 52, 0
21, 271744, Note_on_c, 14, 63, 90
21, 271744, Note_on_c, 14, 64, 87
21, 271795, Note_off_c, 14, 64, 0
21, 271808, Note_on_c, 14, 64, 87
21, 271859, Note_off_c, 14, 64, 0
21, 271872, Note_off_c, 14, 63, 0
21, 271872, Note_on_c, 14, 71, 85
21, 271923, Note_off_c, 14, 71, 0
21, 271936, Note_on_c, 14, 71, 85
21, 271987, Note_off_c, 14, 71, 0
21, 272000, Note_on_c, 14, 63, 60
21, 272051, Note_off_c, 14, 63, 0
21, 272064, Note_on_c, 14, 63, 60
21, 272115, Note_off_c, 14, 63, 0
21, 272128, Note_on_c, 14, 64, 92
21, 272256, Note_off_c, 14, 64, 0
21, 272384, Note_on_c, 14, 64, 65
21, 272435, Note_off_c, 14, 64, 0
21, 272448, Note_on_c, 14, 64, 65
21, 272499, Note_off_c, 14, 64, 0
21, 272512, Note_on_c, 14, 63, 89
21, 272512, Note_on_c, 14, 71, 89
21, 272563, Note_off_c, 14, 71, 0
21, 272576, Note_on_c, 14, 71, 89
21, 272627, Note_off_c, 14, 71, 0
21, 272640, Note_off_c, 14, 63, 0
21, 272640, Note_on_c, 14, 63, 58
21, 272691, Note_off_c, 14, 63, 0
21, 272704, Note_on_c, 14, 63, 58
21, 272755, Note_off_c, 14, 63, 0
21, 272768, Note_on_c, 14, 59, 67
21, 272819, Note_off_c, 14, 59, 0
21, 272832, Note_on_c, 14, 59, 67
21, 272883, Note_off_c, 14, 59, 0
21, 272896, Note_on_c, 14, 66, 92
21, 272896, Note_on_c, 14, 51, 65
21, 272947, Note_off_c, 14, 51, 0
21, 272960, Note_on_c, 14, 51, 65
21, 273011, Note_off_c, 14, 51, 0
21, 273024, Note_off_c, 14, 66, 0
21, 273024, Note_on_c, 14, 64, 88
21, 273075, Note_off_c, 14, 64, 0
21, 273088, Note_on_c, 14, 64, 88
21, 273139, Note_off_c, 14, 64, 0
21, 273152, Note_on_c, 14, 71, 90
21, 273203, Note_off_c, 14, 71, 0
21, 273216, Note_on_c, 14, 71, 90
21, 273267, Note_off_c, 14, 71, 0
21, 273280, Note_on_c, 14, 64, 93
21, 273280, Note_on_c, 14, 63, 59
21, 273331, Note_off_c, 14, 63, 0
21, 273344, Note_on_c, 14, 63, 59
21, 273395, Note_off_c, 14, 63, 0
21, 273408, Note_off_c, 14, 64, 0
21, 273408, Note_on_c, 14, 60, 58
21, 273459, Note_off_c, 14, 60, 0
21, 273472, Note_on_c, 14, 60, 58
21, 273523, Note_off_c, 14, 60, 0
21, 273536, Note_on_c, 14, 53, 62
21, 273587, Note_off_c, 14, 53, 0
21, 273600, Note_on_c, 14, 53, 62
21, 273651, Note_off_c, 14, 53, 0
21, 273664, Note_on_c, 14, 62, 88
21, 273715, Note_off_c, 14, 62, 0
21, 273728, Note_on_c, 14, 62, 88
21, 273779, Note_off_c, 14, 62, 0
21, 273792, Note_on_c, 14, 69, 84
21, 273843, Note_off_c, 14, 69, 0
21, 273856, Note_on_c, 14, 69, 84
21, 273907, Note_off_c, 14, 69, 0
21, 273920, Note_on_c, 14, 64, 91
21, 273920, Note_on_c, 14, 64, 64
21, 273971, Note_off_c, 14, 64, 0
21, 273984, Note_on_c, 14, 64, 64
21, 274035, Note_off_c, 14, 64, 0
21, 274048, Note_off_c, 14, 64, 0
21, 274048, Note_on_c, 14, 60, 62
21, 274099, Note_off_c, 14, 60, 0
21, 274112, Note_on_c, 14, 60, 62
21, 274163, Note_off_c, 14, 60, 0
21, 274304, Note_on_c, 14, 62, 62
21, 274355, Note_off_c, 14, 62, 0
21, 274368, Note_on_c, 14, 62, 62
21, 274419, Note_off_c, 14, 62, 0
21, 274432, Note_on_c, 14, 69, 79
21, 274483, Note_off_c, 14, 69, 0
21, 274496, Note_on_c, 14, 69, 79
21, 274547, Note_off_c, 14, 69, 0
21, 274560, Note_on_c, 14, 64, 63
21, 274611, Note_off_c, 14, 64, 0
21, 274624, Note_on_c, 14, 64, 63
21, 274675, Note_off_c, 14, 64, 0
21, 274688, Note_on_c, 14, 53, 60
21, 274739, Note_off_c, 14, 53, 0
21, 274752, Note_on_c, 14, 53, 60
21, 274803, Note_off_c, 14, 53, 0
21, 274816, Note_on_c, 14, 62, 84
21, 274867, Note_off_c, 14, 62, 0
21, 274880, Note_on_c, 14, 62, 84
21, 274931, Note_off_c, 14, 62, 0
21, 274944, Note_on_c, 14, 61, 89
21, 274944, Note_on_c, 14, 69, 88
21, 274995, Note_off_c, 14, 69, 0
21, 275008, Note_on_c, 14, 69, 88
21, 275059, Note_off_c, 14, 69, 0
21, 275072, Note_off_c, 14, 61, 0
21, 275072, Note_on_c, 14, 66, 71
21, 275123, Note_off_c, 14, 66, 0
21, 275136, Note_on_c, 14, 66, 71
21, 275187, Note_off_c, 14, 66, 0
21, 275200, Note_on_c, 14, 61, 89
21, 275200, Note_on_c, 14, 61, 57
21, 275251, Note_off_c, 14, 61, 0
21, 275264, Note_on_c, 14, 61, 57
21, 275315, Note_off_c, 14, 61, 0
21, 275328, Note_off_c, 14, 61, 0
21, 275456, Note_on_c, 14, 62, 59
21, 275507, Note_off_c, 14, 62, 0
21, 275520, Note_on_c, 14, 62, 59
21, 275571, Note_off_c, 14, 62, 0
21, 275584, Note_on_c, 14, 69, 85
21, 275635, Note_off_c, 14, 69, 0
21, 275648, Note_on_c, 14, 69, 85
21, 275699, Note_off_c, 14, 69, 0
21, 275712, Note_on_c, 14, 65, 63
21, 275763, Note_off_c, 14, 65, 0
21, 275776, Note_on_c, 14, 65, 63
21, 275827, Note_off_c, 14, 65, 0
21, 275840, Note_on_c, 14, 65, 91
21, 275840, Note_on_c, 14, 61, 64
21, 275891, Note_off_c, 14, 61, 0
21, 275904, Note_on_c, 14, 61, 64
21, 275955, Note_off_c, 14, 61, 0
21, 275968, Note_off_c, 14, 65, 0
21, 275968, Note_on_c, 14, 53, 63
21, 276019, Note_off_c, 14, 53, 0
21, 276032, Note_on_c, 14, 53, 63
21, 276083, Note_off_c, 14, 53, 0
21, 276224, Note_on_c, 14, 70, 61
21, 276275, Note_off_c, 14, 70, 0
21, 276288, Note_on_c, 14, 70, 61
21, 276339, Note_off_c, 14, 70, 0
21, 276352, Note_on_c, 14, 65, 62
21, 276403, Note_off_c, 14, 65, 0
21, 276416, Note_on_c, 14, 65, 62
21, 276467, Note_off_c, 14, 65, 0
21, 276480, Note_on_c, 14, 65, 88
21, 276480, Note_on_c, 14, 61, 58
21, 276531, Note_off_c, 14, 61, 0
21, 276544, Note_on_c, 14, 61, 58
21, 276595, Note_off_c, 14, 61, 0
21, 276608, Note_off_c, 14, 65, 0
21, 276608, Note_on_c, 14, 53, 64
21, 276659, Note_off_c, 14, 53, 0
21, 276672, Note_on_c, 14, 53, 64
21, 276723, Note_off_c, 14, 53, 0
21, 276736, Note_on_c, 14, 61, 83
21, 276787, Note_off_c, 14, 61, 0
21, 276800, Note_on_c, 14, 61, 83
21, 276851, Note_off_c, 14, 61, 0
21, 276864, Note_on_c, 14, 61, 91
21, 276864, Note_on_c, 14, 70, 93
21, 276915, Note_off_c, 14, 70, 0
21, 276928, Note_on_c, 14, 70, 93
21, 276979, Note_off_c, 14, 70, 0
21, 276992, Note_off_c, 14, 61, 0
21, 276992, Note_on_c, 14, 65, 64
21, 277043, Note_off_c, 14, 65, 0
21, 277056, Note_on_c, 14, 65, 64
21, 277107, Note_off_c, 14, 65, 0
21, 277120, Note_on_c, 14, 61, 62
21, 277171, Note_off_c, 14, 61, 0
21, 277184, Note_on_c, 14, 61, 62
21, 277235, Note_off_c, 14, 61, 0
21, 277248, Note_on_c, 14, 57, 66
21, 277299, Note_off_c, 14, 57, 0
21, 277312, Note_on_c, 14, 57, 66
21, 277363, Note_off_c, 14, 57, 0
21, 277376, Note_on_c, 14, 69, 91
21, 277427, Note_off_c, 14, 69, 0
21, 277440, Note_on_c, 14, 69, 91
21, 277491, Note_off_c, 14, 69, 0
21, 277504, Note_on_c, 14, 64, 65
21, 277555, Note_off_c, 14, 64, 0
21, 277568, Note_on_c, 14, 64, 65
21, 277619, Note_off_c, 14, 64, 0
21, 277632, Note_on_c, 14, 52, 59
21, 277683, Note_off_c, 14, 52, 0
21, 277696, Note_on_c, 14, 52, 59
21, 277747, Note_off_c, 14, 52, 0
21, 277888, Note_on_c, 14, 57, 66
21, 277939, Note_off_c, 14, 57, 0
21, 277952, Note_on_c, 14, 57, 66
21, 278003, Note_off_c, 14, 57, 0
21, 278016, Note_on_c, 14, 69, 87
21, 278067, Note_off_c, 14, 69, 0
21, 278080, Note_on_c, 14, 69, 87
21, 278131, Note_off_c, 14, 69, 0
21, 278144, Note_on_c, 14, 64, 64
21, 278195, Note_off_c, 14, 64, 0
21, 278208, Note_on_c, 14, 64, 64
21, 278259, Note_off_c, 14, 64, 0
21, 278272, Note_on_c, 14, 60, 67
21, 278323, Note_off_c, 14, 60, 0
21, 278336, Note_on_c, 14, 60, 67
21, 278387, Note_off_c, 14, 60, 0
21, 278400, Note_on_c, 14, 52, 60
21, 278451, Note_off_c, 14, 52, 0
21, 278464, Note_on_c, 14, 52, 60
21, 278515, Note_off_c, 14, 52, 0
21, 278656, Note_on_c, 14, 57, 58
21, 278707, Note_off_c, 14, 57, 0
21, 278720, Note_on_c, 14, 57, 58
21, 278771, Note_off_c, 14, 57, 0
21, 278784, Note_on_c, 14, 68, 84
21, 278835, Note_off_c, 14, 68, 0
21, 278848, Note_on_c, 14, 68, 84
21, 278899, Note_off_c, 14, 68, 0
21, 278912, Note_on_c, 14, 67, 71
21, 278963, Note_off_c, 14, 67, 0
21, 278976, Note_on_c, 14, 67, 71
21, 279027, Note_off_c, 14, 67, 0
21, 279040, Note_on_c, 14, 64, 66
21, 279091, Note_off_c, 14, 64, 0
21, 279104, Note_on_c, 14, 64, 66
21, 279155, Note_off_c, 14, 64, 0
21, 279168, Note_on_c, 14, 52, 62
21, 279219, Note_off_c, 14, 52, 0
21, 279232, Note_on_c, 14, 52, 62
21, 279283, Note_off_c, 14, 52, 0
21, 279424, Note_on_c, 14, 56, 61
21, 279475, Note_off_c, 14, 56, 0
21, 279488, Note_on_c, 14, 56, 61
21, 279539, Note_off_c, 14, 56, 0
21, 279552, Note_on_c, 14, 68, 90
21, 279603, Note_off_c, 14, 68, 0
21, 279616, Note_on_c, 14, 68, 90
21, 279667, Note_off_c, 14, 68, 0
21, 279680, Note_on_c, 14, 71, 81
21, 279731, Note_off_c, 14, 71, 0
21, 279744, Note_on_c, 14, 71, 81
21, 279795, Note_off_c, 14, 71, 0
21, 279936, Note_on_c, 14, 64, 60
21, 279987, Note_off_c, 14, 64, 0
21, 280000, Note_on_c, 14, 64, 60
21, 280051, Note_off_c, 14, 64, 0
21, 280064, Program_c, 15, 45
21, 280064, Control_c, 15, 7, 95
21, 280064, Control_c, 15, 10, 95
21, 280064, Control_c, 15, 91, 60
21, 280064, Control_c, 15, 7, 95
21, 280064, Control_c, 15, 10, 95
21, 280064, Control_c, 15, 91, 60
21, 280192, Note_on_c, 15, 56, 78
21, 280320, Note_off_c, 15, 56, 0
21, 280320, Note_on_c, 15, 56, 74
21, 280320, Note_on_c, 15, 60, 74
21, 280320, Note_on_c, 15, 51, 82
21, 280448, Note_off_c, 15, 56, 0
21, 280448, Note_off_c, 15, 60, 0
21, 280448, Note_off_c, 15, 51, 0
21, 280448, Note_on_c, 15, 53, 82
21, 280576, Note_off_c, 15, 53, 0
21, 280576, Note_on_c, 15, 60, 99
21, 280576, Control_c, 15, 7, 95
21, 280576, Control_c, 15, 10, 95
21, 280576, Control_c, 15, 91, 60
21, 280576, Note_on_c, 15, 41, 72
21, 280576, Note_on_c, 15, 44, 72
21, 280576, Note_on_c, 15, 48, 72
21, 280704, Note_off_c, 15, 60, 0
21, 280704, Note_off_c, 15, 41, 0
21, 280704, Note_off_c, 15, 44, 0
21, 280704, Note_off_c, 15, 48, 0
21, 280704, Note_on_c, 15, 55, 74
21, 280704, Note_on_c, 15, 58, 74
21, 280704, Note_on_c, 15, 62, 74
21, 280704, Note_on_c, 15, 63, 97
21, 280832, Note_off_c, 15, 55, 0
21, 280832, Note_off_c, 15, 58, 0
21, 280832, Note_off_c, 15, 62, 0
21, 280832, Note_off_c, 15, 63, 0
21, 280832, Note_on_c, 15, 68, 97
21, 280960, Note_off_c, 15, 68, 0
21, 280960, Note_on_c, 15, 63, 74
21, 280960, Note_on_c, 15, 43, 75
21, 280960, Note_on_c, 15, 46, 75
21, 280960, Note_on_c, 15, 50, 75
21, 281088, Note_off_c, 15, 63, 0
21, 281088, Note_off_c, 15, 43, 0
21, 281088, Note_off_c, 15, 46, 0
21, 281088, Note_off_c, 15, 50, 0
21, 281088, Note_on_c, 15, 56, 76
21, 281088, Note_on_c, 15, 60, 76
21, 281088, Note_on_c, 15, 67, 76
21, 281216, Note_off_c, 15, 56, 0
21, 281216, Note_off_c, 15, 60, 0
21, 281216, Note_off_c, 15, 67, 0
21, 281216, Note_on_c, 15, 60, 78
21, 281344, Note_off_c, 15, 60, 0
21, 281472, Note_on_c, 15, 48, 70
21, 281600, Note_off_c, 15, 48, 0
21, 281600, Note_on_c, 15, 60, 104
21, 281728, Note_off_c, 15, 60, 0
21, 281728, Note_on_c, 15, 63, 94
21, 281856, Note_off_c, 15, 63, 0
21, 281856, Note_on_c, 15, 68, 99
21, 281984, Note_off_c, 15, 68, 0
21, 281984, Note_on_c, 15, 60, 65
21, 282112, Note_off_c, 15, 60, 0
21, 282240, Note_on_c, 15, 57, 72
21, 282240, Note_on_c, 15, 60, 72
21, 282240, Note_on_c, 15, 48, 77
21, 282368, Note_off_c, 15, 57, 0
21, 282368, Note_off_c, 15, 60, 0
21, 282368, Note_off_c, 15, 48, 0
21, 282368, Note_on_c, 15, 60, 107
21, 282496, Note_off_c, 15, 60, 0
21, 282496, Note_on_c, 15, 63, 92
21, 282496, Note_on_c, 15, 42, 78
21, 282496, Note_on_c, 15, 45, 78
21, 282496, Note_on_c, 15, 48, 78
21, 282624, Note_off_c, 15, 63, 0
21, 282624, Note_off_c, 15, 42, 0
21, 282624, Note_off_c, 15, 45, 0
21, 282624, Note_off_c, 15, 48, 0
21, 282624, Note_on_c, 15, 56, 78
21, 282624, Note_on_c, 15, 59, 78
21, 282624, Note_on_c, 15, 64, 78
21, 282624, Note_on_c, 15, 68, 100
21, 282752, Note_off_c, 15, 56, 0
21, 282752, Note_off_c, 15, 59, 0
21, 282752, Note_off_c, 15, 64, 0
21, 282752, Note_off_c, 15, 68, 0
21, 282752, Note_on_c, 15, 60, 74
21, 282880, Note_off_c, 15, 60, 0
21, 282880, Note_on_c, 15, 44, 76
21, 282880, Note_on_c, 15, 47, 76
21, 282880, Note_on_c, 15, 52, 76
21, 283008, Note_off_c, 15, 44, 0
21, 283008, Note_off_c, 15, 47, 0
21, 283008, Note_off_c, 15, 52, 0
21, 283008, Note_on_c, 15, 60, 81
21, 283008, Note_on_c, 15, 66, 81
21, 283008, Note_on_c, 15, 69, 81
21, 283008, Note_on_c, 15, 60, 80
21, 283136, Note_off_c, 15, 60, 0
21, 283136, Note_off_c, 15, 66, 0
21, 283136, Note_off_c, 15, 69, 0
21, 283136, Note_off_c, 15, 60, 0
21, 283136, Note_on_c, 15, 61, 89
21, 283264, Note_off_c, 15, 61, 0
21, 283264, Note_on_c, 15, 68, 97
21, 283264, Note_on_c, 15, 48, 73
21, 283264, Note_on_c, 15, 54, 73
21, 283264, Note_on_c, 15, 57, 73
21, 283392, Note_off_c, 15, 68, 0
21, 283392, Note_off_c, 15, 48, 0
21, 283392, Note_off_c, 15, 54, 0
21, 283392, Note_off_c, 15, 57, 0
21, 283392, Note_on_c, 15, 60, 73
21, 283520, Note_off_c, 15, 60, 0
21, 283520, Note_on_c, 15, 54, 75
21, 283648, Note_off_c, 15, 54, 0
21, 283648, Note_on_c, 15, 59, 81
21, 283648, Note_on_c, 15, 68, 81
21, 283648, Note_on_c, 15, 75, 81
21, 283776, Note_off_c, 15, 59, 0
21, 283776, Note_off_c, 15, 68, 0
21, 283776, Note_off_c, 15, 75, 0
21, 283776, Note_on_c, 15, 56, 76
21, 283904, Note_off_c, 15, 56, 0
21, 283904, Note_on_c, 15, 57, 83
21, 283904, Note_on_c, 15, 45, 76
21, 283904, Note_on_c, 15, 54, 76
21, 283904, Note_on_c, 15, 61, 76
21, 284032, Note_off_c, 15, 57, 0
21, 284032, Note_off_c, 15, 45, 0
21, 284032, Note_off_c, 15, 54, 0
21, 284032, Note_off_c, 15, 61, 0
21, 284160, Note_on_c, 15, 61, 74
21, 284288, Note_off_c, 15, 61, 0
21, 284288, Note_on_c, 15, 54, 80
21, 284416, Note_off_c, 15, 54, 0
21, 284672, Note_on_c, 15, 49, 77
21, 284800, Note_off_c, 15, 49, 0
21, 284800, Note_on_c, 15, 54, 90
21, 284928, Note_off_c, 15, 54, 0
21, 284928, Note_on_c, 15, 69, 79
21, 284928, Note_on_c, 15, 73, 79
21, 284928, Note_on_c, 15, 78, 79
21, 284928, Note_on_c, 15, 57, 92
21, 285056, Note_off_c, 15, 69, 0
21, 285056, Note_off_c, 15, 73, 0
21, 285056, Note_off_c, 15, 78, 0
21, 285056, Note_off_c, 15, 57, 0
21, 285056, Note_on_c, 15, 65, 99
21, 285184, Note_off_c, 15, 65, 0
21, 285184, Note_on_c, 15, 57, 80
21, 285184, Note_on_c, 15, 61, 80
21, 285184, Note_on_c, 15, 66, 80
21, 285312, Note_off_c, 15, 57, 0
21, 285312, Note_off_c, 15, 61, 0
21, 285312, Note_off_c, 15, 66, 0
21, 285312, Note_on_c, 15, 73, 73
21, 285312, Note_on_c, 15, 78, 73
21, 285312, Note_on_c, 15, 81, 73
21, 285312, Note_on_c, 15, 49, 73
21, 285440, Note_off_c, 15, 73, 0
21, 285440, Note_off_c, 15, 78, 0
21, 285440, Note_off_c, 15, 81, 0
21, 285440, Note_off_c, 15, 49, 0
21, 285440, Note_on_c, 15, 54, 89
21, 285568, Note_off_c, 15, 54, 0
21, 285568, Note_on_c, 15, 60, 96
21, 285568, Note_on_c, 15, 61, 79
21, 285568, Note_on_c, 15, 66, 79
21, 285568, Note_on_c, 15, 69, 79
21, 285696, Note_off_c, 15, 60, 0
21, 285696, Note_off_c, 15, 61, 0
21, 285696, Note_off_c, 15, 66, 0
21, 285696, Note_off_c, 15, 69, 0
21, 285696, Note_on_c, 15, 62, 79
21, 285696, Note_on_c, 15, 69, 79
21, 285696, Note_on_c, 15, 73, 79
21, 285696, Note_on_c, 15, 57, 85
21, 285824, Note_off_c, 15, 62, 0
21, 285824, Note_off_c, 15, 69, 0
21, 285824, Note_off_c, 15, 73, 0
21, 285824, Note_off_c, 15, 57, 0
21, 285824, Note_on_c, 15, 61, 92
21, 285952, Note_off_c, 15, 61, 0
21, 285952, Note_on_c, 15, 63, 85
21, 285952, Note_on_c, 15, 50, 75
21, 285952, Note_on_c, 15, 57, 75
21, 285952, Note_on_c, 15, 61, 75
21, 286080, Note_off_c, 15, 63, 0
21, 286080, Note_off_c, 15, 50, 0
21, 286080, Note_off_c, 15, 57, 0
21, 286080, Note_off_c, 15, 61, 0
21, 286080, Note_on_c, 15, 57, 77
21, 286080, Note_on_c, 15, 61, 77
21, 286080, Note_on_c, 15, 66, 77
21, 286208, Note_off_c, 15, 57, 0
21, 286208, Note_off_c, 15, 61, 0
21, 286208, Note_off_c, 15, 66, 0
21, 286208, Note_on_c, 15, 50, 75
21, 286336, Note_off_c, 15, 50, 0
21, 286336, Note_on_c, 15, 48, 82
21, 286336, Note_on_c, 15, 45, 72
21, 286336, Note_on_c, 15, 49, 72
21, 286336, Note_on_c, 15, 54, 72
21, 286464, Note_off_c, 15, 48, 0
21, 286464, Note_off_c, 15, 45, 0
21, 286464, Note_off_c, 15, 49, 0
21, 286464, Note_off_c, 15, 54, 0
21, 286464, Note_on_c, 15, 57, 94
21, 286592, Note_off_c, 15, 57, 0
21, 286592, Note_on_c, 15, 60, 89
21, 286720, Note_off_c, 15, 60, 0
21, 286976, Note_on_c, 15, 50, 78
21, 287104, Note_off_c, 15, 50, 0
21, 287104, Note_on_c, 15, 47, 79
21, 287232, Note_off_c, 15, 47, 0
21, 287232, Note_on_c, 15, 56, 100
21, 287360, Note_off_c, 15, 56, 0
21, 287360, Note_on_c, 15, 59, 88
21, 287488, Note_off_c, 15, 59, 0
21, 287488, Note_on_c, 15, 56, 76
21, 287488, Note_on_c, 15, 62, 76
21, 287488, Note_on_c, 15, 64, 76
21, 287616, Note_on_c, 15, 64, 74
21, 287616, Note_on_c, 15, 44, 71
21, 287616, Note_on_c, 15, 50, 71
21, 287616, Note_on_c, 15, 52, 71
21, 287744, Note_off_c, 15, 56, 0
21, 287744, Note_off_c, 15, 62, 0
21, 287744, Note_off_c, 15, 64, 0
21, 287744, Note_off_c, 15, 64, 0
21, 287744, Note_off_c, 15, 44, 0
21, 287744, Note_off_c, 15, 50, 0
21, 287744, Note_off_c, 15, 52, 0
21, 287744, Note_on_c, 15, 62, 75
21, 287872, Note_off_c, 15, 62, 0
21, 287872, Note_on_c, 15, 62, 74
21, 287872, Note_on_c, 15, 68, 74
21, 287872, Note_on_c, 15, 71, 74
21, 287872, Note_on_c, 15, 64, 89
21, 288000, Note_off_c, 15, 62, 0
21, 288000, Note_off_c, 15, 68, 0
21, 288000, Note_off_c, 15, 71, 0
21, 288000, Note_off_c, 15, 64, 0
21, 288000, Note_on_c, 15, 50, 74
21, 288000, Note_on_c, 15, 56, 74
21, 288000, Note_on_c, 15, 59, 74
21, 288128, Note_off_c, 15, 50, 0
21, 288128, Note_off_c, 15, 56, 0
21, 288128, Note_off_c, 15, 59, 0
21, 288128, Note_on_c, 15, 48, 76
21, 288256, Note_off_c, 15, 48, 0
21, 288256, Note_on_c, 15, 54, 86
21, 288384, Note_off_c, 15, 54, 0
21, 288384, Note_on_c, 15, 58, 90
21, 288512, Note_off_c, 15, 58, 0
21, 288512, Note_on_c, 15, 60, 91
21, 288640, Note_off_c, 15, 60, 0
21, 288640, Note_on_c, 15, 62, 80
21, 288640, Note_on_c, 15, 69, 80
21, 288640, Note_on_c, 15, 66, 95
21, 288768, Note_off_c, 15, 62, 0
21, 288768, Note_off_c, 15, 69, 0
21, 288768, Note_off_c, 15, 66, 0
21, 288896, Note_on_c, 15, 60, 74
21, 288896, Note_on_c, 15, 42, 79
21, 288896, Note_on_c, 15, 50, 79
21, 288896, Note_on_c, 15, 57, 79
21, 289024, Note_off_c, 15, 60, 0
21, 289024, Note_off_c, 15, 42, 0
21, 289024, Note_off_c, 15, 50, 0
21, 289024, Note_off_c, 15, 57, 0
21, 289024, Note_on_c, 15, 66, 99
21, 289152, Note_off_c, 15, 66, 0
21, 289194, Note_on_c, 15, 62, 77
21, 289194, Note_on_c, 15, 70, 77
21, 289194, Note_on_c, 15, 78, 77
21, 289280, Note_off_c, 15, 62, 0
21, 289280, Note_off_c, 15, 70, 0
21, 289280, Note_off_c, 15, 78, 0
21, 289280, Note_on_c, 15, 64, 74
21, 289408, Note_off_c, 15, 64, 0
21, 289408, Note_on_c, 15, 66, 88
21, 289408, Note_on_c, 15, 50, 73
21, 289408, Note_on_c, 15, 56, 73
21, 289408, Note_on_c, 15, 66, 73
21, 289536, Note_off_c, 15, 66, 0
21, 289536, Note_off_c, 15, 50, 0
21, 289536, Note_off_c, 15, 56, 0
21, 289536, Note_off_c, 15, 66, 0
21, 289664, Note_on_c, 15, 62, 74
21, 289792, Note_off_c, 15, 62, 0
21, 289792, Note_on_c, 15, 68, 98
21, 289920, Note_off_c, 15, 68, 0
21, 290048, Note_on_c, 15, 62, 77
21, 290048, Note_on_c, 15, 68, 77
21, 290176, Note_off_c, 15, 62, 0
21, 290176, Note_off_c, 15, 68, 0
21, 290304, Note_on_c, 15, 62, 75
21, 290304, Note_on_c, 15, 40, 74
21, 290304, Note_on_c, 15, 50, 74
21, 290304, Note_on_c, 15, 56, 74
21, 290432, Note_off_c, 15, 62, 0
21, 290432, Note_off_c, 15, 40, 0
21, 290432, Note_off_c, 15, 50, 0
21, 290432, Note_off_c, 15, 56, 0
21, 290432, Note_on_c, 15, 57, 86
21, 290432, Note_on_c, 15, 62, 86
21, 290432, Note_on_c, 15, 69, 86
21, 290432, Note_on_c, 15, 71, 103
21, 290560, Note_off_c, 15, 57, 0
21, 290560, Note_off_c, 15, 62, 0
21, 290560, Note_off_c, 15, 69, 0
21, 290560, Note_off_c, 15, 71, 0
21, 290688, Note_on_c, 15, 62, 80
21, 290688, Note_on_c, 15, 68, 80
21, 290688, Note_on_c, 15, 71, 80
21, 290816, Note_off_c, 15, 62, 0
21, 290816, Note_off_c, 15, 68, 0
21, 290816, Note_off_c, 15, 71, 0
21, 290944, Note_on_c, 15, 50, 72
21, 290944, Note_on_c, 15, 56, 72
21, 290944, Note_on_c, 15, 59, 72
21, 291072, Note_off_c, 15, 50, 0
21, 291072, Note_off_c, 15, 56, 0
21, 291072, Note_off_c, 15, 59, 0
21, 291072, Note_on_c, 15, 62, 86
21, 291072, Note_on_c, 15, 69, 86
21, 291072, Note_on_c, 15, 77, 86
21, 291200, Note_off_c, 15, 62, 0
21, 291200, Note_off_c, 15, 69, 0
21, 291200, Note_off_c, 15, 77, 0
21, 291456, Note_on_c, 15, 50, 76
21, 291456, Note_on_c, 15, 57, 76
21, 291456, Note_on_c, 15, 65, 76
21, 291584, Note_off_c, 15, 50, 0
21, 291584, Note_off_c, 15, 57, 0
21, 291584, Note_off_c, 15, 65, 0
21, 292992, Note_on_c, 15, 71, 84
21, 292992, Note_on_c, 15, 75, 84
21, 292992, Note_on_c, 15, 80, 84
21, 292992, Note_on_c, 15, 65, 74
21, 292992, Note_on_c, 15, 68, 74
21, 292992, Note_on_c, 15, 44, 78
21, 292992, Note_on_c, 15, 53, 78
21, 292992, Note_on_c, 15, 59, 78
21, 292992, Note_on_c, 15, 63, 78
21, 293162, Note_off_c, 15, 71, 0
21, 293162, Note_off_c, 15, 75, 0
21, 293162, Note_off_c, 15, 80, 0
21, 293162, Note_off_c, 15, 65, 0
21, 293162, Note_off_c, 15, 68, 0
21, 293162, Note_off_c, 15, 44, 0
21, 293162, Note_off_c, 15, 53, 0
21, 293162, Note_off_c, 15, 59, 0
21, 293162, Note_off_c, 15, 63, 0
21, 293162, Note_on_c, 15, 71, 96
21, 293162, Note_on_c, 15, 75, 96
21, 293162, Note_on_c, 15, 80, 96
21, 293162, Note_on_c, 15, 65, 82
21, 293162, Note_on_c, 15, 68, 82
21, 293162, Note_on_c, 15, 44, 78
21, 293162, Note_on_c, 15, 53, 78
21, 293162, Note_on_c, 15, 59, 78
21, 293162, Note_on_c, 15, 63, 78
21, 293333, Note_off_c, 15, 71, 0
21, 293333, Note_off_c, 15, 75, 0
21, 293333, Note_off_c, 15, 80, 0
21, 293333, Note_off_c, 15, 65, 0
21, 293333, Note_off_c, 15, 68, 0
21, 293333, Note_off_c, 15, 44, 0
21, 293333, Note_off_c, 15, 53, 0
21, 293333, Note_off_c, 15, 59, 0
21, 293333, Note_off_c, 15, 63, 0
21, 293333, Note_on_c, 15, 71, 97
21, 293333, Note_on_c, 15, 75, 97
21, 293333, Note_on_c, 15, 80, 97
21, 293333, Note_on_c, 15, 65, 82
21, 293333, Note_on_c, 15, 68, 82
21, 293333, Note_on_c, 15, 44, 84
21, 293333, Note_on_c, 15, 53, 84
21, 293333, Note_on_c, 15, 59, 84
21, 293333, Note_on_c, 15, 63, 84
21, 293504, Note_off_c, 15, 71, 0
21, 293504, Note_off_c, 15, 75, 0
21, 293504, Note_off_c, 15, 80, 0
21, 293504, Note_off_c, 15, 65, 0
21, 293504, Note_off_c, 15, 68, 0
21, 293504, Note_off_c, 15, 44, 0
21, 293504, Note_off_c, 15, 53, 0
21, 293504, Note_off_c, 15, 59, 0
21, 293504, Note_off_c, 15, 63, 0
21, 294144, Note_on_c, 15, 71, 88
21, 294144, Note_on_c, 15, 75, 88
21, 294144, Note_on_c, 15, 80, 88
21, 294144, Note_on_c, 15, 65, 79
21, 294144, Note_on_c, 15, 68, 79
21, 294144, Note_on_c, 15, 44, 74
21, 294144, Note_on_c, 15, 53, 74
21, 294144, Note_on_c, 15, 59, 74
21, 294144, Note_on_c, 15, 63, 74
21, 294314, Note_off_c, 15, 71, 0
21, 294314, Note_off_c, 15, 75, 0
21, 294314, Note_off_c, 15, 80, 0
21, 294314, Note_off_c, 15, 65, 0
21, 294314, Note_off_c, 15, 68, 0
21, 294314, Note_off_c, 15, 44, 0
21, 294314, Note_off_c, 15, 53, 0
21, 294314, Note_off_c, 15, 59, 0
21, 294314, Note_off_c, 15, 63, 0
21, 294314, Note_on_c, 15, 71, 96
21, 294314, Note_on_c, 15, 75, 96
21, 294314, Note_on_c, 15, 80, 96
21, 294314, Note_on_c, 15, 65, 81
21, 294314, Note_on_c, 15, 68, 81
21, 294314, Note_on_c, 15, 44, 79
21, 294314, Note_on_c, 15, 53, 79
21, 294314, Note_on_c, 15, 59, 79
21, 294314, Note_on_c, 15, 63, 79
21, 294485, Note_off_c, 15, 71, 0
21, 294485, Note_off_c, 15, 75, 0
21, 294485, Note_off_c, 15, 80, 0
21, 294485, Note_off_c, 15, 65, 0
21, 294485, Note_off_c, 15, 68, 0
21, 294485, Note_off_c, 15, 44, 0
21, 294485, Note_off_c, 15, 53, 0
21, 294485, Note_off_c, 15, 59, 0
21, 294485, Note_off_c, 15, 63, 0
21, 294485, Note_on_c, 15, 71, 95
21, 294485, Note_on_c, 15, 75, 95
21, 294485, Note_on_c, 15, 80, 95
21, 294485, Note_on_c, 15, 65, 85
21, 294485, Note_on_c, 15, 68, 85
21, 294485, Note_on_c, 15, 44, 82
21, 294485, Note_on_c, 15, 53, 82
21, 294485, Note_on_c, 15, 59, 82
21, 294485, Note_on_c, 15, 63, 82
21, 294656, Note_off_c, 15, 71, 0
21, 294656, Note_off_c, 15, 75, 0
21, 294656, Note_off_c, 15, 80, 0
21, 294656, Note_off_c, 15, 65, 0
21, 294656, Note_off_c, 15, 68, 0
21, 294656, Note_off_c, 15, 44, 0
21, 294656, Note_off_c, 15, 53, 0
21, 294656, Note_off_c, 15, 59, 0
21, 294656, Note_off_c, 15, 63, 0
21, 295850, Note_on_c, 15, 63, 83
21, 295850, Note_on_c, 15, 71, 83
21, 295850, Note_on_c, 15, 75, 83
21, 295850, Note_on_c, 15, 83, 83
21, 295850, Note_on_c, 15, 62, 73
21, 295850, Note_on_c, 15, 68, 73
21, 295850, Note_on_c, 15, 50, 76
21, 295850, Note_on_c, 15, 56, 76
21, 295936, Note_off_c, 15, 63, 0
21, 295936, Note_off_c, 15, 71, 0
21, 295936, Note_off_c, 15, 75, 0
21, 295936, Note_off_c, 15, 83, 0
21, 295936, Note_off_c, 15, 62, 0
21, 295936, Note_off_c, 15, 68, 0
21, 295936, Note_off_c, 15, 50, 0
21, 295936, Note_off_c, 15, 56, 0
21, 296021, Note_on_c, 15, 63, 86
21, 296021, Note_on_c, 15, 71, 86
21, 296021, Note_on_c, 15, 75, 86
21, 296021, Note_on_c, 15, 83, 86
21, 296021, Note_on_c, 15, 62, 79
21, 296021, Note_on_c, 15, 68, 79
21, 296021, Note_on_c, 15, 50, 75
21, 296021, Note_on_c, 15, 56, 75
21, 296106, Note_off_c, 15, 63, 0
21, 296106, Note_off_c, 15, 71, 0
21, 296106, Note_off_c, 15, 75, 0
21, 296106, Note_off_c, 15, 83, 0
21, 296106, Note_off_c, 15, 62, 0
21, 296106, Note_off_c, 15, 68, 0
21, 296106, Note_off_c, 15, 50, 0
21, 296106, Note_off_c, 15, 56, 0
21, 296192, Note_on_c, 15, 64, 85
21, 296192, Note_on_c, 15, 71, 85
21, 296192, Note_on_c, 15, 76, 85
21, 296192, Note_on_c, 15, 83, 85
21, 296192, Note_on_c, 15, 62, 79
21, 296192, Note_on_c, 15, 68, 79
21, 296192, Note_on_c, 15, 50, 72
21, 296192, Note_on_c, 15, 56, 72
21, 296362, Note_off_c, 15, 64, 0
21, 296362, Note_off_c, 15, 71, 0
21, 296362, Note_off_c, 15, 76, 0
21, 296362, Note_off_c, 15, 83, 0
21, 296362, Note_off_c, 15, 62, 0
21, 296362, Note_off_c, 15, 68, 0
21, 296362, Note_off_c, 15, 50, 0
21, 296362, Note_off_c, 15, 56, 0
21, 296362, Note_on_c, 15, 64, 99
21, 296362, Note_on_c, 15, 71, 99
21, 296362, Note_on_c, 15, 76, 99
21, 296362, Note_on_c, 15, 83, 99
21, 296362, Note_on_c, 15, 62, 78
21, 296362, Note_on_c, 15, 68, 78
21, 296362, Note_on_c, 15, 50, 79
21, 296362, Note_on_c, 15, 56, 79
21, 296533, Note_off_c, 15, 64, 0
21, 296533, Note_off_c, 15, 71, 0
21, 296533, Note_off_c, 15, 76, 0
21, 296533, Note_off_c, 15, 83, 0
21, 296533, Note_off_c, 15, 62, 0
21, 296533, Note_off_c, 15, 68, 0
21, 296533, Note_off_c, 15, 50, 0
21, 296533, Note_off_c, 15, 56, 0
21, 296533, Note_on_c, 15, 64, 95
21, 296533, Note_on_c, 15, 71, 95
21, 296533, Note_on_c, 15, 76, 95
21, 296533, Note_on_c, 15, 83, 95
21, 296533, Note_on_c, 15, 62, 80
21, 296533, Note_on_c, 15, 68, 80
21, 296533, Note_on_c, 15, 50, 78
21, 296533, Note_on_c, 15, 53, 78
21, 296704, Note_off_c, 15, 64, 0
21, 296704, Note_off_c, 15, 71, 0
21, 296704, Note_off_c, 15, 76, 0
21, 296704, Note_off_c, 15, 83, 0
21, 296704, Note_off_c, 15, 62, 0
21, 296704, Note_off_c, 15, 68, 0
21, 296704, Note_off_c, 15, 50, 0
21, 296704, Note_off_c, 15, 53, 0
21, 297728, Note_on_c, 15, 64, 57
21, 297728, Note_on_c, 15, 71, 57
21, 297728, Note_on_c, 15, 76, 57
21, 297728, Note_on_c, 15, 83, 57
21, 297728, Note_on_c, 15, 62, 53
21, 297728, Note_on_c, 15, 68, 53
21, 297728, Note_on_c, 15, 50, 55
21, 297728, Note_on_c, 15, 57, 55
21, 297813, Note_off_c, 15, 64, 0
21, 297813, Note_off_c, 15, 71, 0
21, 297813, Note_off_c, 15, 76, 0
21, 297813, Note_off_c, 15, 83, 0
21, 297813, Note_off_c, 15, 62, 0
21, 297813, Note_off_c, 15, 68, 0
21, 297813, Note_off_c, 15, 50, 0
21, 297813, Note_off_c, 15, 57, 0
21, 297898, Note_on_c, 15, 64, 54
21, 297898, Note_on_c, 15, 71, 54
21, 297898, Note_on_c, 15, 76, 54
21, 297898, Note_on_c, 15, 83, 54
21, 297898, Note_on_c, 15, 62, 53
21, 297898, Note_on_c, 15, 68, 53
21, 297898, Note_on_c, 15, 50, 55
21, 297898, Note_on_c, 15, 53, 55
21, 297984, Note_off_c, 15, 64, 0
21, 297984, Note_off_c, 15, 71, 0
21, 297984, Note_off_c, 15, 76, 0
21, 297984, Note_off_c, 15, 83, 0
21, 297984, Note_off_c, 15, 62, 0
21, 297984, Note_off_c, 15, 68, 0
21, 297984, Note_off_c, 15, 50, 0
21, 297984, Note_off_c, 15, 53, 0
21, 298069, Note_on_c, 15, 64, 59
21, 298069, Note_on_c, 15, 71, 59
21, 298069, Note_on_c, 15, 76, 59
21, 298069, Note_on_c, 15, 83, 59
21, 298069, Note_on_c, 15, 62, 51
21, 298069, Note_on_c, 15, 68, 51
21, 298069, Note_on_c, 15, 50, 52
21, 298069, Note_on_c, 15, 57, 52
21, 298154, Note_off_c, 15, 64, 0
21, 298154, Note_off_c, 15, 71, 0
21, 298154, Note_off_c, 15, 76, 0
21, 298154, Note_off_c, 15, 83, 0
21, 298154, Note_off_c, 15, 62, 0
21, 298154, Note_off_c, 15, 68, 0
21, 298154, Note_off_c, 15, 50, 0
21, 298154, Note_off_c, 15, 57, 0
21, 298496, Control_c, 14, 7, 95
21, 298496, Control_c, 14, 10, 95
21, 298496, Control_c, 14, 91, 60
21, 308224, Control_c, 14, 7, 95
21, 308224, Control_c, 14, 10, 95
21, 308224, Control_c, 14, 91, 60
21, 308224, Note_on_c, 14, 61, 89
21, 308352, Note_on_c, 14, 63, 93
21, 308354, Note_off_c, 14, 61, 0
21, 308838, Note_off_c, 14, 63, 0
21, 308864, Note_on_c, 14, 64, 102
21, 308992, Note_on_c, 14, 76, 127
21, 308994, Note_off_c, 14, 64, 0
21, 309376, Note_on_c, 15, 64, 63
21, 309376, Note_on_c, 15, 65, 63
21, 309504, Note_off_c, 15, 64, 0
21, 309504, Note_off_c, 15, 65, 0
21, 309504, Note_on_c, 14, 71, 101
21, 309514, Note_off_c, 14, 76, 0
21, 309760, Note_on_c, 15, 64, 68
21, 309760, Note_on_c, 15, 65, 68
21, 309888, Note_off_c, 15, 64, 0
21, 309888, Note_off_c, 15, 65, 0
21, 310112, Note_off_c, 14, 71, 0
21, 310144, Note_on_c, 14, 76, 112
21, 310144, Note_on_c, 15, 64, 64
21, 310144, Note_on_c, 15, 65, 64
21, 310272, Note_off_c, 15, 64, 0
21, 310272, Note_off_c, 15, 65, 0
21, 310400, Note_on_c, 14, 78, 123
21, 310405, Note_off_c, 14, 76, 0
21, 310528, Note_on_c, 14, 74, 92
21, 310530, Note_off_c, 14, 78, 0
21, 310656, Note_on_c, 15, 64, 60
21, 310656, Note_on_c, 15, 65, 60
21, 310784, Note_off_c, 15, 64, 0
21, 310784, Note_off_c, 15, 65, 0
21, 311014, Note_off_c, 14, 74, 0
21, 311040, Note_on_c, 14, 72, 94
21, 311040, Note_on_c, 15, 64, 65
21, 311040, Note_on_c, 15, 65, 65
21, 311168, Note_off_c, 15, 64, 0
21, 311168, Note_off_c, 15, 65, 0
21, 311296, Note_on_c, 14, 71, 100
21, 311296, Note_on_c, 15, 59, 64
21, 311296, Note_on_c, 15, 65, 64
21, 311301, Note_off_c, 14, 72, 0
21, 311424, Note_off_c, 15, 59, 0
21, 311424, Note_off_c, 15, 65, 0
21, 311552, Note_on_c, 14, 68, 95
21, 311557, Note_off_c, 14, 71, 0
21, 311680, Note_on_c, 15, 59, 67
21, 311680, Note_on_c, 15, 65, 67
21, 311808, Note_off_c, 15, 59, 0
21, 311808, Note_off_c, 15, 65, 0
21, 311916, Note_off_c, 14, 68, 0
21, 311936, Note_on_c, 14, 67, 104
21, 312064, Note_on_c, 15, 59, 64
21, 312064, Note_on_c, 15, 65, 64
21, 312192, Note_off_c, 14, 67, 0
21, 312192, Note_off_c, 15, 59, 0
21, 312192, Note_off_c, 15, 65, 0
21, 312192, Note_on_c, 14, 65, 104
21, 312448, Note_on_c, 15, 59, 61
21, 312448, Note_on_c, 15, 65, 61
21, 312512, Note_off_c, 14, 65, 0
21, 312512, Note_on_c, 14, 64, 106
21, 312576, Note_off_c, 15, 59, 0
21, 312576, Note_off_c, 15, 65, 0
21, 312832, Note_off_c, 14, 64, 0
21, 312832, Note_on_c, 14, 65, 116
21, 312832, Note_on_c, 15, 59, 63
21, 312832, Note_on_c, 15, 65, 63
21, 312960, Note_off_c, 15, 59, 0
21, 312960, Note_off_c, 15, 65, 0
21, 313088, Note_on_c, 14, 67, 123
21, 313093, Note_off_c, 14, 65, 0
21, 313216, Note_on_c, 15, 59, 65
21, 313216, Note_on_c, 15, 65, 65
21, 313344, Note_off_c, 15, 59, 0
21, 313344, Note_off_c, 15, 65, 0
21, 313452, Note_off_c, 14, 67, 0
21, 313472, Note_on_c, 14, 65, 106
21, 313472, Note_on_c, 15, 63, 59
21, 313472, Note_on_c, 15, 65, 59
21, 313600, Note_off_c, 15, 63, 0
21, 313600, Note_off_c, 15, 65, 0
21, 313728, Note_on_c, 14, 67, 113
21, 313733, Note_off_c, 14, 65, 0
21, 313856, Note_on_c, 15, 63, 59
21, 313856, Note_on_c, 15, 65, 59
21, 313984, Note_off_c, 15, 63, 0
21, 313984, Note_off_c, 15, 65, 0
21, 314092, Note_off_c, 14, 67, 0
21, 314112, Note_on_c, 14, 68, 115
21, 314240, Note_on_c, 14, 77, 127
21, 314240, Note_on_c, 15, 63, 63
21, 314240, Note_on_c, 15, 65, 63
21, 314242, Note_off_c, 14, 68, 0
21, 314368, Note_off_c, 15, 63, 0
21, 314368, Note_off_c, 15, 65, 0
21, 314624, Note_on_c, 15, 63, 64
21, 314624, Note_on_c, 15, 65, 64
21, 314688, Note_on_c, 14, 79, 115
21, 314696, Note_off_c, 14, 77, 0
21, 314752, Note_off_c, 15, 63, 0
21, 314752, Note_off_c, 15, 65, 0
21, 315008, Note_on_c, 15, 63, 59
21, 315008, Note_on_c, 15, 65, 59
21, 315136, Note_off_c, 15, 63, 0
21, 315136, Note_off_c, 15, 65, 0
21, 315392, Note_on_c, 15, 63, 66
21, 315392, Note_on_c, 15, 65, 66
21, 315520, Note_off_c, 15, 63, 0
21, 315520, Note_off_c, 15, 65, 0
21, 315680, Note_off_c, 14, 79, 0
21, 315733, Note_on_c, 14, 81, 122
21, 315776, Note_on_c, 15, 63, 63
21, 315776, Note_on_c, 15, 65, 63
21, 315904, Note_off_c, 15, 63, 0
21, 315904, Note_off_c, 15, 65, 0
21, 315904, Note_on_c, 14, 77, 108
21, 315907, Note_off_c, 14, 81, 0
21, 316160, Note_on_c, 15, 63, 59
21, 316160, Note_on_c, 15, 65, 59
21, 316268, Note_off_c, 14, 77, 0
21, 316288, Note_off_c, 15, 63, 0
21, 316288, Note_off_c, 15, 65, 0
21, 316288, Note_on_c, 14, 75, 104
21, 316288, Note_on_c, 15, 64, 78
21, 316288, Note_on_c, 15, 66, 78
21, 316416, Note_off_c, 15, 64, 0
21, 316416, Note_off_c, 15, 66, 0
21, 316672, Note_on_c, 15, 64, 70
21, 316672, Note_on_c, 15, 66, 70
21, 316800, Note_off_c, 14, 75, 0
21, 316800, Note_off_c, 15, 64, 0
21, 316800, Note_off_c, 15, 66, 0
21, 316800, Note_on_c, 14, 74, 111
21, 317056, Note_on_c, 15, 64, 67
21, 317056, Note_on_c, 15, 66, 67
21, 317184, Note_off_c, 15, 64, 0
21, 317184, Note_off_c, 15, 66, 0
21, 317269, Note_off_c, 14, 74, 0
21, 317269, Note_on_c, 14, 72, 106
21, 317440, Note_on_c, 14, 71, 101
21, 317440, Note_on_c, 15, 64, 61
21, 317440, Note_on_c, 15, 66, 61
21, 317443, Note_off_c, 14, 72, 0
21, 317568, Note_off_c, 15, 64, 0
21, 317568, Note_off_c, 15, 66, 0
21, 317683, Note_off_c, 14, 71, 0
21, 317696, Note_on_c, 14, 69, 105
21, 317824, Note_on_c, 14, 68, 100
21, 317824, Note_on_c, 15, 64, 66
21, 317824, Note_on_c, 15, 66, 66
21, 317826, Note_off_c, 14, 69, 0
21, 317952, Note_off_c, 15, 64, 0
21, 317952, Note_off_c, 15, 66, 0
21, 318188, Note_off_c, 14, 68, 0
21, 318208, Note_on_c, 14, 66, 105
21, 318208, Note_on_c, 15, 57, 60
21, 318208, Note_on_c, 15, 61, 60
21, 318208, Note_on_c, 15, 63, 60
21, 318208, Note_on_c, 15, 66, 60
21, 318336, Note_off_c, 15, 57, 0
21, 318336, Note_off_c, 15, 61, 0
21, 318336, Note_off_c, 15, 63, 0
21, 318336, Note_off_c, 15, 66, 0
21, 318336, Note_on_c, 14, 64, 100
21, 318338, Note_off_c, 14, 66, 0
21, 318592, Note_on_c, 15, 57, 59
21, 318592, Note_on_c, 15, 61, 59
21, 318592, Note_on_c, 15, 63, 59
21, 318592, Note_on_c, 15, 66, 59
21, 318720, Note_off_c, 15, 57, 0
21, 318720, Note_off_c, 15, 61, 0
21, 318720, Note_off_c, 15, 63, 0
21, 318720, Note_off_c, 15, 66, 0
21, 318720, Note_on_c, 14, 51, 116
21, 318822, Note_off_c, 14, 64, 0
21, 318976, Note_on_c, 15, 57, 68
21, 318976, Note_on_c, 15, 61, 68
21, 318976, Note_on_c, 15, 63, 68
21, 318976, Note_on_c, 15, 66, 68
21, 319104, Note_off_c, 15, 57, 0
21, 319104, Note_off_c, 15, 61, 0
21, 319104, Note_off_c, 15, 63, 0
21, 319104, Note_off_c, 15, 66, 0
21, 319360, Note_off_c, 14, 51, 0
21, 319360, Note_on_c, 14, 56, 120
21, 319360, Note_on_c, 15, 57, 61
21, 319360, Note_on_c, 15, 61, 61
21, 319360, Note_on_c, 15, 63, 61
21, 319360, Note_on_c, 15, 66, 61
21, 319488, Note_off_c, 15, 57, 0
21, 319488, Note_off_c, 15, 61, 0
21, 319488, Note_off_c, 15, 63, 0
21, 319488, Note_off_c, 15, 66, 0
21, 319488, Note_on_c, 14, 57, 120
21, 319490, Note_off_c, 14, 56, 0
21, 319616, Note_on_c, 15, 57, 60
21, 319616, Note_on_c, 15, 61, 60
21, 319616, Note_on_c, 15, 63, 60
21, 319616, Note_on_c, 15, 66, 60
21, 319744, Note_off_c, 15, 57, 0
21, 319744, Note_off_c, 15, 61, 0
21, 319744, Note_off_c, 15, 63, 0
21, 319744, Note_off_c, 15, 66, 0
21, 319852, Note_off_c, 14, 57, 0
21, 319872, Note_on_c, 14, 59, 115
21, 319872, Note_on_c, 15, 57, 68
21, 319872, Note_on_c, 15, 61, 68
21, 319872, Note_on_c, 15, 63, 68
21, 319872, Note_on_c, 15, 66, 68
21, 320000, Note_off_c, 15, 57, 0
21, 320000, Note_off_c, 15, 61, 0
21, 320000, Note_off_c, 15, 63, 0
21, 320000, Note_off_c, 15, 66, 0
21, 320000, Note_on_c, 14, 67, 127
21, 320002, Note_off_c, 14, 59, 0
21, 320128, Note_on_c, 15, 57, 63
21, 320128, Note_on_c, 15, 61, 63
21, 320128, Note_on_c, 15, 63, 63
21, 320256, Note_off_c, 15, 57, 0
21, 320256, Note_off_c, 15, 61, 0
21, 320256, Note_off_c, 15, 63, 0
21, 320384, Note_on_c, 15, 61, 64
21, 320384, Note_on_c, 15, 63, 64
21, 320384, Note_on_c, 15, 66, 64
21, 320384, Note_on_c, 15, 72, 64
21, 320512, Note_off_c, 15, 61, 0
21, 320512, Note_off_c, 15, 63, 0
21, 320512, Note_off_c, 15, 66, 0
21, 320512, Note_off_c, 15, 72, 0
21, 320597, Note_on_c, 14, 65, 109
21, 320608, Note_off_c, 14, 67, 0
21, 320640, Note_on_c, 15, 57, 60
21, 320640, Note_on_c, 15, 62, 60
21, 320640, Note_on_c, 15, 65, 60
21, 320768, Note_off_c, 15, 57, 0
21, 320768, Note_off_c, 15, 62, 0
21, 320768, Note_off_c, 15, 65, 0
21, 321024, Note_on_c, 15, 57, 64
21, 321024, Note_on_c, 15, 62, 64
21, 321024, Note_on_c, 15, 65, 64
21, 321152, Note_off_c, 15, 57, 0
21, 321152, Note_off_c, 15, 62, 0
21, 321152, Note_off_c, 15, 65, 0
21, 321245, Note_off_c, 14, 65, 0
21, 321280, Note_on_c, 14, 59, 108
21, 321408, Note_on_c, 14, 61, 110
21, 321408, Note_on_c, 15, 57, 67
21, 321408, Note_on_c, 15, 62, 67
21, 321408, Note_on_c, 15, 65, 67
21, 321410, Note_off_c, 14, 59, 0
21, 321536, Note_off_c, 15, 57, 0
21, 321536, Note_off_c, 15, 62, 0
21, 321536, Note_off_c, 15, 65, 0
21, 321772, Note_off_c, 14, 61, 0
21, 321792, Note_on_c, 14, 62, 114
21, 321792, Note_on_c, 15, 57, 62
21, 321792, Note_on_c, 15, 62, 62
21, 321920, Note_off_c, 15, 57, 0
21, 321920, Note_off_c, 15, 62, 0
21, 321920, Note_on_c, 14, 65, 125
21, 321922, Note_off_c, 14, 62, 0
21, 322176, Note_on_c, 15, 57, 65
21, 322304, Note_off_c, 15, 57, 0
21, 322406, Note_off_c, 14, 65, 0
21, 322432, Note_on_c, 14, 72, 96
21, 322688, Note_on_c, 15, 57, 67
21, 322688, Note_on_c, 15, 62, 67
21, 322688, Note_on_c, 15, 65, 67
21, 322816, Note_off_c, 15, 57, 0
21, 322816, Note_off_c, 15, 62, 0
21, 322816, Note_off_c, 15, 65, 0
21, 322944, Note_on_c, 14, 64, 100
21, 322944, Note_on_c, 15, 57, 68
21, 322944, Note_on_c, 15, 62, 68
21, 322944, Note_on_c, 15, 65, 68
21, 323072, Note_off_c, 15, 57, 0
21, 323072, Note_off_c, 15, 62, 0
21, 323072, Note_off_c, 15, 65, 0
21, 323072, Note_on_c, 14, 65, 98
21, 323072, Note_on_c, 15, 57, 68
21, 323072, Note_on_c, 15, 58, 68
21, 323074, Note_off_c, 14, 64, 0
21, 323200, Note_off_c, 15, 57, 0
21, 323200, Note_off_c, 15, 58, 0
21, 323328, Note_off_c, 14, 72, 0
21, 323328, Note_on_c, 15, 57, 65
21, 323328, Note_on_c, 15, 58, 65
21, 323436, Note_off_c, 14, 65, 0
21, 323456, Note_off_c, 15, 57, 0
21, 323456, Note_off_c, 15, 58, 0
21, 323456, Note_on_c, 14, 67, 101
21, 323584, Note_on_c, 14, 75, 127
21, 323584, Note_on_c, 15, 57, 65
21, 323584, Note_on_c, 15, 58, 65
21, 323584, Note_on_c, 15, 62, 65
21, 323586, Note_off_c, 14, 67, 0
21, 323712, Note_off_c, 15, 57, 0
21, 323712, Note_off_c, 15, 58, 0
21, 323712, Note_off_c, 15, 62, 0
21, 323712, Note_on_c, 15, 57, 65
21, 323712, Note_on_c, 15, 58, 65
21, 323840, Note_off_c, 15, 57, 0
21, 323840, Note_off_c, 15, 58, 0
21, 323840, Note_on_c, 15, 57, 71
21, 323840, Note_on_c, 15, 59, 71
21, 323925, Note_on_c, 14, 73, 107
21, 323931, Note_off_c, 14, 75, 0
21, 323968, Note_off_c, 15, 57, 0
21, 323968, Note_off_c, 15, 59, 0
21, 324224, Note_on_c, 15, 57, 63
21, 324224, Note_on_c, 15, 59, 63
21, 324224, Note_on_c, 15, 63, 63
21, 324352, Note_off_c, 15, 57, 0
21, 324352, Note_off_c, 15, 59, 0
21, 324352, Note_off_c, 15, 63, 0
21, 324352, Note_on_c, 15, 57, 67
21, 324352, Note_on_c, 15, 59, 67
21, 324480, Note_off_c, 15, 57, 0
21, 324480, Note_off_c, 15, 59, 0
21, 324480, Note_on_c, 14, 66, 68
21, 324491, Note_off_c, 14, 73, 0
21, 324608, Note_on_c, 14, 68, 87
21, 324610, Note_off_c, 14, 66, 0
21, 324736, Note_on_c, 15, 57, 67
21, 324736, Note_on_c, 15, 59, 67
21, 324864, Note_off_c, 15, 57, 0
21, 324864, Note_off_c, 15, 59, 0
21, 324992, Note_on_c, 15, 57, 63
21, 324992, Note_on_c, 15, 63, 63
21, 325094, Note_off_c, 14, 68, 0
21, 325120, Note_off_c, 15, 57, 0
21, 325120, Note_off_c, 15, 63, 0
21, 325120, Note_on_c, 14, 69, 110
21, 325248, Note_on_c, 14, 86, 127
21, 325248, Note_on_c, 15, 57, 64
21, 325248, Note_on_c, 15, 59, 64
21, 325248, Note_on_c, 15, 63, 64
21, 325250, Note_off_c, 14, 69, 0
21, 325376, Note_off_c, 15, 57, 0
21, 325376, Note_off_c, 15, 59, 0
21, 325376, Note_off_c, 15, 63, 0
21, 325376, Note_on_c, 15, 55, 64
21, 325376, Note_on_c, 15, 60, 64
21, 325504, Note_off_c, 15, 55, 0
21, 325504, Note_off_c, 15, 60, 0
21, 325734, Note_off_c, 14, 86, 0
21, 325760, Note_on_c, 14, 79, 96
21, 325760, Note_on_c, 15, 55, 64
21, 325760, Note_on_c, 15, 60, 64
21, 325760, Note_on_c, 15, 64, 64
21, 325888, Note_off_c, 15, 55, 0
21, 325888, Note_off_c, 15, 60, 0
21, 325888, Note_off_c, 15, 64, 0
21, 325888, Note_on_c, 15, 55, 70
21, 325888, Note_on_c, 15, 58, 70
21, 325888, Note_on_c, 15, 64, 70
21, 326016, Note_off_c, 15, 55, 0
21, 326016, Note_off_c, 15, 58, 0
21, 326016, Note_off_c, 15, 64, 0
21, 326272, Note_on_c, 15, 55, 66
21, 326272, Note_on_c, 15, 60, 66
21, 326336, Note_off_c, 14, 79, 0
21, 326336, Note_on_c, 14, 86, 127
21, 326400, Note_off_c, 15, 55, 0
21, 326400, Note_off_c, 15, 60, 0
21, 326528, Note_on_c, 15, 55, 64
21, 326528, Note_on_c, 15, 58, 64
21, 326528, Note_on_c, 15, 64, 64
21, 326656, Note_off_c, 15, 55, 0
21, 326656, Note_off_c, 15, 58, 0
21, 326656, Note_off_c, 15, 64, 0
21, 326656, Note_on_c, 14, 88, 127
21, 326662, Note_off_c, 14, 86, 0
21, 326784, Note_on_c, 14, 84, 100
21, 326784, Note_on_c, 15, 56, 67
21, 326784, Note_on_c, 15, 61, 67
21, 326784, Note_on_c, 15, 65, 67
21, 326786, Note_off_c, 14, 88, 0
21, 326912, Note_off_c, 15, 56, 0
21, 326912, Note_off_c, 15, 61, 0
21, 326912, Note_off_c, 15, 65, 0
21, 327040, Note_on_c, 15, 56, 62
21, 327040, Note_on_c, 15, 58, 62
21, 327040, Note_on_c, 15, 68, 62
21, 327168, Note_off_c, 15, 56, 0
21, 327168, Note_off_c, 15, 58, 0
21, 327168, Note_off_c, 15, 68, 0
21, 327229, Note_off_c, 14, 84, 0
21, 327253, Note_on_c, 14, 82, 106
21, 327424, Note_on_c, 15, 56, 67
21, 327424, Note_on_c, 15, 58, 67
21, 327424, Note_on_c, 15, 65, 67
21, 327552, Note_off_c, 15, 56, 0
21, 327552, Note_off_c, 15, 58, 0
21, 327552, Note_off_c, 15, 65, 0
21, 327552, Note_on_c, 14, 80, 101
21, 327557, Note_off_c, 14, 82, 0
21, 327808, Note_on_c, 15, 58, 57
21, 327808, Note_on_c, 15, 59, 57
21, 327808, Note_on_c, 15, 65, 57
21, 327936, Note_off_c, 15, 58, 0
21, 327936, Note_off_c, 15, 59, 0
21, 327936, Note_off_c, 15, 65, 0
21, 327936, Note_on_c, 15, 57, 74
21, 327936, Note_on_c, 15, 60, 74
21, 327936, Note_on_c, 15, 62, 74
21, 327936, Note_on_c, 15, 66, 74
21, 327997, Note_off_c, 14, 80, 0
21, 328021, Note_on_c, 14, 79, 107
21, 328064, Note_off_c, 15, 57, 0
21, 328064, Note_off_c, 15, 60, 0
21, 328064, Note_off_c, 15, 62, 0
21, 328064, Note_off_c, 15, 66, 0
21, 328192, Note_on_c, 14, 80, 109
21, 328195, Note_off_c, 14, 79, 0
21, 328320, Note_on_c, 14, 77, 97
21, 328320, Note_on_c, 15, 57, 66
21, 328320, Note_on_c, 15, 60, 66
21, 328320, Note_on_c, 15, 62, 66
21, 328320, Note_on_c, 15, 66, 66
21, 328322, Note_off_c, 14, 80, 0
21, 328448, Note_off_c, 15, 57, 0
21, 328448, Note_off_c, 15, 60, 0
21, 328448, Note_off_c, 15, 62, 0
21, 328448, Note_off_c, 15, 66, 0
21, 328448, Note_on_c, 14, 75, 95
21, 328448, Note_on_c, 15, 57, 57
21, 328448, Note_on_c, 15, 60, 57
21, 328450, Note_off_c, 14, 77, 0
21, 328576, Note_off_c, 15, 57, 0
21, 328576, Note_off_c, 15, 60, 0
21, 328704, Note_on_c, 15, 57, 62
21, 328704, Note_on_c, 15, 60, 62
21, 328704, Note_on_c, 15, 62, 62
21, 328704, Note_on_c, 15, 66, 62
21, 328771, Note_off_c, 14, 75, 0
21, 328789, Note_on_c, 14, 77, 123
21, 328832, Note_off_c, 15, 57, 0
21, 328832, Note_off_c, 15, 60, 0
21, 328832, Note_off_c, 15, 62, 0
21, 328832, Note_off_c, 15, 66, 0
21, 328960, Note_on_c, 14, 73, 110
21, 328960, Note_on_c, 15, 57, 65
21, 328960, Note_on_c, 15, 60, 65
21, 328960, Note_on_c, 15, 62, 65
21, 328963, Note_off_c, 14, 77, 0
21, 329088, Note_off_c, 15, 57, 0
21, 329088, Note_off_c, 15, 60, 0
21, 329088, Note_off_c, 15, 62, 0
21, 329216, Note_on_c, 14, 72, 106
21, 329216, Note_on_c, 15, 57, 77
21, 329216, Note_on_c, 15, 60, 77
21, 329216, Note_on_c, 15, 62, 77
21, 329216, Note_on_c, 15, 65, 77
21, 329221, Note_off_c, 14, 73, 0
21, 329344, Note_off_c, 15, 57, 0
21, 329344, Note_off_c, 15, 60, 0
21, 329344, Note_off_c, 15, 62, 0
21, 329344, Note_off_c, 15, 65, 0
21, 329472, Note_on_c, 15, 60, 65
21, 329472, Note_on_c, 15, 65, 65
21, 329600, Note_off_c, 15, 60, 0
21, 329600, Note_off_c, 15, 65, 0
21, 329702, Note_off_c, 14, 72, 0
21, 329728, Note_on_c, 14, 70, 109
21, 329792, Note_on_c, 14, 72, 118
21, 329793, Note_off_c, 14, 70, 0
21, 329856, Note_on_c, 15, 60, 66
21, 329856, Note_on_c, 15, 65, 66
21, 329984, Note_off_c, 15, 60, 0
21, 329984, Note_off_c, 15, 65, 0
21, 329984, Note_on_c, 14, 68, 91
21, 329984, Note_on_c, 15, 57, 62
21, 329984, Note_on_c, 15, 60, 62
21, 329987, Note_off_c, 14, 72, 0
21, 330112, Note_off_c, 15, 57, 0
21, 330112, Note_off_c, 15, 60, 0
21, 330240, Note_on_c, 15, 58, 65
21, 330240, Note_on_c, 15, 64, 65
21, 330368, Note_off_c, 15, 58, 0
21, 330368, Note_off_c, 15, 64, 0
21, 330368, Note_on_c, 14, 66, 79
21, 330375, Note_off_c, 14, 68, 0
21, 330624, Note_on_c, 15, 58, 76
21, 330624, Note_on_c, 15, 64, 76
21, 330752, Note_off_c, 15, 58, 0
21, 330752, Note_off_c, 15, 64, 0
21, 330976, Note_off_c, 14, 66, 0
21, 331008, Note_on_c, 14, 56, 73
21, 331136, Note_on_c, 15, 58, 64
21, 331136, Note_on_c, 15, 64, 64
21, 331212, Note_on_c, 14, 58, 86
21, 331216, Note_off_c, 14, 56, 0
21, 331264, Note_off_c, 15, 58, 0
21, 331264, Note_off_c, 15, 64, 0
21, 331264, Note_on_c, 15, 58, 77
21, 331264, Note_on_c, 15, 60, 77
21, 331264, Note_on_c, 15, 66, 77
21, 331392, Note_off_c, 15, 58, 0
21, 331392, Note_off_c, 15, 60, 0
21, 331392, Note_off_c, 15, 66, 0
21, 331406, Note_off_c, 14, 58, 0
21, 331417, Note_on_c, 14, 59, 92
21, 331622, Note_on_c, 14, 60, 93
21, 331626, Note_off_c, 14, 59, 0
21, 331648, Note_on_c, 15, 58, 80
21, 331648, Note_on_c, 15, 60, 80
21, 331648, Note_on_c, 15, 64, 80
21, 331648, Note_on_c, 15, 66, 80
21, 331776, Note_off_c, 15, 58, 0
21, 331776, Note_off_c, 15, 60, 0
21, 331776, Note_off_c, 15, 64, 0
21, 331776, Note_off_c, 15, 66, 0
21, 331827, Note_on_c, 14, 61, 101
21, 331831, Note_off_c, 14, 60, 0
21, 332021, Note_off_c, 14, 61, 0
21, 332032, Note_on_c, 14, 76, 126
21, 332160, Note_on_c, 15, 58, 60
21, 332160, Note_on_c, 15, 62, 60
21, 332160, Note_on_c, 15, 64, 60
21, 332288, Note_off_c, 15, 58, 0
21, 332288, Note_off_c, 15, 62, 0
21, 332288, Note_off_c, 15, 64, 0
21, 332544, Note_on_c, 14, 72, 93
21, 332554, Note_off_c, 14, 76, 0
21, 333056, Control_c, 14, 7, 95
21, 333056, Control_c, 14, 10, 95
21, 333056, Control_c, 14, 91, 60
21, 333224, Note_off_c, 14, 72, 0
21, 333260, Note_on_c, 14, 62, 65
21, 333465, Note_off_c, 14, 62, 0
21, 333465, Note_on_c, 14, 63, 102
21, 333670, Note_off_c, 14, 63, 0
21, 333670, Note_on_c, 14, 75, 127
21, 333875, Note_off_c, 14, 75, 0
21, 333875, Note_on_c, 14, 78, 127
21, 334336, Note_off_c, 14, 78, 0
21, 334336, Note_on_c, 14, 74, 100
21, 334933, Note_off_c, 14, 74, 0
21, 334933, Note_on_c, 14, 67, 93
21, 335104, Note_off_c, 14, 67, 0
21, 335104, Note_on_c, 14, 68, 124
21, 335360, Note_off_c, 14, 68, 0
21, 335360, Note_on_c, 14, 71, 121
21, 335488, Note_on_c, 14, 80, 127
21, 335490, Note_off_c, 14, 71, 0
21, 335872, Note_on_c, 14, 83, 121
21, 335879, Note_off_c, 14, 80, 0
21, 336309, Note_off_c, 14, 83, 0
21, 336332, Note_on_c, 14, 57, 97
21, 336537, Note_on_c, 14, 58, 100
21, 336541, Note_off_c, 14, 57, 0
21, 336731, Note_off_c, 14, 58, 0
21, 336742, Note_on_c, 14, 60, 119
21, 336947, Note_on_c, 14, 61, 127
21, 336951, Note_off_c, 14, 60, 0
21, 337152, Note_on_c, 14, 63, 119
21, 337156, Note_off_c, 14, 61, 0
21, 337345, Note_off_c, 14, 63, 0
21, 337356, Note_on_c, 14, 76, 127
21, 337561, Note_on_c, 14, 73, 123
21, 337565, Note_off_c, 14, 76, 0
21, 337755, Note_off_c, 14, 73, 0
21, 337766, Note_on_c, 14, 63, 88
21, 337971, Note_on_c, 14, 64, 89
21, 337975, Note_off_c, 14, 63, 0
21, 338165, Note_off_c, 14, 64, 0
21, 338176, Note_on_c, 14, 76, 127
21, 338380, Note_on_c, 14, 79, 127
21, 338384, Note_off_c, 14, 76, 0
21, 338964, Note_off_c, 14, 79, 0
21, 338995, Note_on_c, 14, 75, 57
21, 339968, Note_off_c, 14, 75, 0
21, 339968, Note_on_c, 14, 56, 86
21, 340096, Note_on_c, 14, 58, 86
21, 340098, Note_off_c, 14, 56, 0
21, 340460, Note_off_c, 14, 58, 0
21, 340480, Note_on_c, 14, 59, 98
21, 340608, Note_on_c, 14, 74, 124
21, 340610, Note_off_c, 14, 59, 0
21, 341094, Note_off_c, 14, 74, 0
21, 341120, Note_on_c, 14, 64, 76
21, 341589, Note_off_c, 14, 64, 0
21, 341589, Note_on_c, 14, 59, 94
21, 341930, Note_off_c, 14, 59, 0
21, 341930, Note_on_c, 14, 62, 116
21, 342101, Note_off_c, 14, 62, 0
21, 342101, Note_on_c, 14, 65, 118
21, 342272, Note_off_c, 14, 65, 0
21, 342272, Note_on_c, 14, 76, 124
21, 342656, Note_on_c, 14, 78, 127
21, 342663, Note_off_c, 14, 76, 0
21, 343457, Note_off_c, 14, 78, 0
21, 343500, Note_on_c, 14, 56, 94
21, 343705, Note_off_c, 14, 56, 0
21, 343705, Note_on_c, 14, 73, 127
21, 343910, Note_off_c, 14, 73, 0
21, 343910, Note_on_c, 14, 69, 99
21, 344115, Note_off_c, 14, 69, 0
21, 344115, Note_on_c, 14, 65, 98
21, 344512, Note_on_c, 14, 64, 100
21, 344519, Note_off_c, 14, 65, 0
21, 344937, Note_off_c, 14, 64, 0
21, 344960, Note_on_c, 14, 55, 99
21, 345088, Note_on_c, 14, 75, 120
21, 345090, Note_off_c, 14, 55, 0
21, 345331, Note_off_c, 14, 75, 0
21, 345344, Note_on_c, 14, 70, 108
21, 345514, Note_on_c, 14, 68, 98
21, 345517, Note_off_c, 14, 70, 0
21, 345838, Note_off_c, 14, 68, 0
21, 345856, Note_on_c, 14, 67, 120
21, 346026, Note_off_c, 14, 67, 0
21, 346026, Note_on_c, 14, 56, 103
21, 346197, Note_off_c, 14, 56, 0
21, 346197, Note_on_c, 14, 76, 127
21, 346496, Note_off_c, 14, 76, 0
21, 346496, Note_on_c, 14, 75, 105
21, 346624, Note_on_c, 14, 74, 103
21, 346626, Note_off_c, 14, 75, 0
21, 346867, Note_off_c, 14, 74, 0
21, 346880, Note_on_c, 14, 73, 107
21, 347050, Note_on_c, 14, 83, 127
21, 347053, Note_off_c, 14, 73, 0
21, 347221, Note_on_c, 14, 79, 106
21, 347224, Note_off_c, 14, 83, 0
21, 347505, Note_off_c, 14, 79, 0
21, 347520, Note_on_c, 14, 76, 100
21, 347648, Note_on_c, 14, 77, 103
21, 347650, Note_off_c, 14, 76, 0
21, 347968, Note_on_c, 14, 80, 123
21, 347974, Note_off_c, 14, 77, 0
21, 348272, Note_off_c, 14, 80, 0
21, 348288, Note_on_c, 14, 81, 122
21, 348416, Note_on_c, 14, 88, 127
21, 348418, Note_off_c, 14, 81, 0
21, 348902, Note_off_c, 14, 88, 0
21, 348928, Note_on_c, 14, 84, 103
21, 349440, Note_on_c, 14, 89, 115
21, 349450, Note_off_c, 14, 84, 0
21, 349781, Note_on_c, 14, 90, 117
21, 349787, Note_off_c, 14, 89, 0
21, 351232, Note_on_c, 14, 50, 95
21, 351360, Note_on_c, 14, 51, 97
21, 351364, Note_off_c, 14, 50, 0
21, 351522, Note_off_c, 14, 90, 0
21, 351590, Note_off_c, 14, 51, 0
21, 351616, Note_on_c, 14, 52, 98
21, 351744, Note_on_c, 14, 64, 123
21, 351746, Note_off_c, 14, 52, 0
21, 352391, Note_off_c, 14, 64, 0
21, 352426, Note_on_c, 14, 61, 87
21, 352597, Note_on_c, 14, 62, 92
21, 352600, Note_off_c, 14, 61, 0
21, 353326, Note_off_c, 14, 62, 0
21, 353365, Note_on_c, 14, 55, 76
21, 353706, Note_on_c, 14, 56, 86
21, 353712, Note_off_c, 14, 55, 0
21, 353877, Note_on_c, 14, 57, 94
21, 353880, Note_off_c, 14, 56, 0
21, 354048, Note_on_c, 14, 71, 121
21, 354051, Note_off_c, 14, 57, 0
21, 354412, Note_off_c, 14, 71, 0
21, 354432, Note_on_c, 14, 67, 85
21, 354688, Note_on_c, 14, 68, 102
21, 354693, Note_off_c, 14, 67, 0
21, 355296, Note_off_c, 14, 68, 0
21, 355328, Note_on_c, 14, 64, 76
21, 355669, Note_on_c, 14, 65, 104
21, 355675, Note_off_c, 14, 64, 0
21, 355953, Note_off_c, 14, 65, 0
21, 355968, Note_on_c, 14, 67, 102
21, 356224, Note_on_c, 14, 68, 112
21, 356229, Note_off_c, 14, 67, 0
21, 356832, Note_off_c, 14, 68, 0
21, 356864, Note_on_c, 14, 80, 121
21, 357632, Note_off_c, 14, 80, 0
21, 357632, Note_on_c, 14, 75, 127
21, 357632, Note_on_c, 14, 87, 127
21, 358656, Note_off_c, 14, 75, 0
21, 358656, Note_off_c, 14, 87, 0
21, 358656, Note_on_c, 14, 60, 81
21, 359168, Note_off_c, 14, 60, 0
21, 359168, Note_on_c, 14, 76, 127
21, 359168, Note_on_c, 14, 88, 127
21, 360064, Note_off_c, 14, 76, 0
21, 360064, Note_off_c, 14, 88, 0
21, 360064, Note_on_c, 14, 61, 83
21, 360704, Note_off_c, 14, 61, 0
21, 360704, Note_on_c, 14, 79, 127
21, 361088, Note_off_c, 14, 79, 0
21, 361088, Note_on_c, 14, 87, 127
21, 361600, Note_off_c, 14, 87, 0
21, 361600, Note_on_c, 14, 90, 127
21, 362410, Note_off_c, 14, 90, 0
21, 362410, Note_on_c, 14, 79, 95
21, 362581, Note_off_c, 14, 79, 0
21, 362581, Note_on_c, 14, 87, 127
21, 363093, Note_off_c, 14, 87, 0
21, 363093, Note_on_c, 14, 93, 127
21, 363946, Note_off_c, 14, 93, 0
21, 363946, Note_on_c, 14, 91, 116
21, 364629, Note_off_c, 14, 91, 0
21, 364629, Note_on_c, 14, 94, 127
21, 365824, Note_off_c, 14, 94, 0
21, 365824, Note_on_c, 14, 96, 127
21, 367232, Note_off_c, 14, 96, 0
21, 367232, Note_on_c, 14, 97, 127
21, 368768, Note_off_c, 14, 97, 0
21, 368768, Note_on_c, 14, 99, 76
21, 369920, Note_off_c, 14, 99, 0
21, 374784, Note_on_c, 14, 64, 64
21, 374784, Note_on_c, 14, 69, 64
21, 374784, Note_on_c, 14, 72, 64
21, 374784, Note_on_c, 14, 73, 64
21, 374784, Note_on_c, 14, 77, 64
21, 374848, Note_off_c, 14, 64, 0
21, 374848, Note_off_c, 14, 69, 0
21, 374848, Note_off_c, 14, 72, 0
21, 374848, Note_off_c, 14, 73, 0
21, 374848, Note_off_c, 14, 77, 0
21, 374912, Note_on_c, 14, 64, 69
21, 374912, Note_on_c, 14, 69, 69
21, 374912, Note_on_c, 14, 72, 69
21, 374912, Note_on_c, 14, 73, 69
21, 374912, Note_on_c, 14, 77, 69
21, 374976, Note_off_c, 14, 64, 0
21, 374976, Note_off_c, 14, 69, 0
21, 374976, Note_off_c, 14, 72, 0
21, 374976, Note_off_c, 14, 73, 0
21, 374976, Note_off_c, 14, 77, 0
21, 375040, Note_on_c, 14, 64, 68
21, 375040, Note_on_c, 14, 69, 68
21, 375040, Note_on_c, 14, 72, 68
21, 375040, Note_on_c, 14, 73, 68
21, 375040, Note_on_c, 14, 77, 68
21, 375104, Note_off_c, 14, 64, 0
21, 375104, Note_off_c, 14, 69, 0
21, 375104, Note_off_c, 14, 72, 0
21, 375104, Note_off_c, 14, 73, 0
21, 375104, Note_off_c, 14, 77, 0
21, 375168, Note_on_c, 14, 64, 67
21, 375168, Note_on_c, 14, 69, 67
21, 375168, Note_on_c, 14, 72, 67
21, 375168, Note_on_c, 14, 73, 67
21, 375168, Note_on_c, 14, 77, 67
21, 375232, Note_off_c, 14, 64, 0
21, 375232, Note_off_c, 14, 69, 0
21, 375232, Note_off_c, 14, 72, 0
21, 375232, Note_off_c, 14, 73, 0
21, 375232, Note_off_c, 14, 77, 0
21, 375296, Note_on_c, 14, 64, 71
21, 375296, Note_on_c, 14, 69, 71
21, 375296, Note_on_c, 14, 72, 71
21, 375296, Note_on_c, 14, 73, 71
21, 375296, Note_on_c, 14, 77, 71
21, 375360, Note_off_c, 14, 64, 0
21, 375360, Note_off_c, 14, 69, 0
21, 375360, Note_off_c, 14, 72, 0
21, 375360, Note_off_c, 14, 73, 0
21, 375360, Note_off_c, 14, 77, 0
21, 375424, Note_on_c, 14, 64, 67
21, 375424, Note_on_c, 14, 69, 67
21, 375424, Note_on_c, 14, 72, 67
21, 375424, Note_on_c, 14, 73, 67
21, 375424, Note_on_c, 14, 77, 67
21, 375488, Note_off_c, 14, 64, 0
21, 375488, Note_off_c, 14, 69, 0
21, 375488, Note_off_c, 14, 72, 0
21, 375488, Note_off_c, 14, 73, 0
21, 375488, Note_off_c, 14, 77, 0
21, 375552, Note_on_c, 14, 64, 73
21, 375552, Note_on_c, 14, 69, 73
21, 375552, Note_on_c, 14, 72, 73
21, 375552, Note_on_c, 14, 73, 73
21, 375552, Note_on_c, 14, 77, 73
21, 375616, Note_off_c, 14, 64, 0
21, 375616, Note_off_c, 14, 69, 0
21, 375616, Note_off_c, 14, 72, 0
21, 375616, Note_off_c, 14, 73, 0
21, 375616, Note_off_c, 14, 77, 0
21, 375680, Note_on_c, 14, 64, 71
21, 375680, Note_on_c, 14, 69, 71
21, 375680, Note_on_c, 14, 72, 71
21, 375680, Note_on_c, 14, 73, 71
21, 375680, Note_on_c, 14, 77, 71
21, 375744, Note_off_c, 14, 64, 0
21, 375744, Note_off_c, 14, 69, 0
21, 375744, Note_off_c, 14, 72, 0
21, 375744, Note_off_c, 14, 73, 0
21, 375744, Note_off_c, 14, 77, 0
21, 375808, Note_on_c, 14, 64, 74
21, 375808, Note_on_c, 14, 69, 74
21, 375808, Note_on_c, 14, 72, 74
21, 375808, Note_on_c, 14, 73, 74
21, 375808, Note_on_c, 14, 77, 74
21, 375872, Note_off_c, 14, 64, 0
21, 375872, Note_off_c, 14, 69, 0
21, 375872, Note_off_c, 14, 72, 0
21, 375872, Note_off_c, 14, 73, 0
21, 375872, Note_off_c, 14, 77, 0
21, 375936, Note_on_c, 14, 64, 76
21, 375936, Note_on_c, 14, 69, 76
21, 375936, Note_on_c, 14, 72, 76
21, 375936, Note_on_c, 14, 73, 76
21, 375936, Note_on_c, 14, 77, 76
21, 376000, Note_off_c, 14, 64, 0
21, 376000, Note_off_c, 14, 69, 0
21, 376000, Note_off_c, 14, 72, 0
21, 376000, Note_off_c, 14, 73, 0
21, 376000, Note_off_c, 14, 77, 0
21, 376064, Note_on_c, 14, 64, 71
21, 376064, Note_on_c, 14, 69, 71
21, 376064, Note_on_c, 14, 72, 71
21, 376064, Note_on_c, 14, 73, 71
21, 376064, Note_on_c, 14, 77, 71
21, 376128, Note_off_c, 14, 64, 0
21, 376128, Note_off_c, 14, 69, 0
21, 376128, Note_off_c, 14, 72, 0
21, 376128, Note_off_c, 14, 73, 0
21, 376128, Note_off_c, 14, 77, 0
21, 376192, Note_on_c, 14, 64, 71
21, 376192, Note_on_c, 14, 69, 71
21, 376192, Note_on_c, 14, 72, 71
21, 376192, Note_on_c, 14, 73, 71
21, 376192, Note_on_c, 14, 77, 71
21, 376256, Note_off_c, 14, 64, 0
21, 376256, Note_off_c, 14, 69, 0
21, 376256, Note_off_c, 14, 72, 0
21, 376256, Note_off_c, 14, 73, 0
21, 376256, Note_off_c, 14, 77, 0
21, 376320, Note_on_c, 14, 64, 66
21, 376320, Note_on_c, 14, 69, 66
21, 376320, Note_on_c, 14, 73, 66
21, 376320, Note_on_c, 14, 72, 66
21, 376320, Note_on_c, 14, 77, 66
21, 376384, Note_off_c, 14, 64, 0
21, 376384, Note_off_c, 14, 69, 0
21, 376384, Note_off_c, 14, 73, 0
21, 376384, Note_off_c, 14, 72, 0
21, 376384, Note_off_c, 14, 77, 0
21, 376448, Note_on_c, 14, 64, 70
21, 376448, Note_on_c, 14, 69, 70
21, 376448, Note_on_c, 14, 73, 70
21, 376448, Note_on_c, 14, 72, 70
21, 376448, Note_on_c, 14, 77, 70
21, 376512, Note_off_c, 14, 64, 0
21, 376512, Note_off_c, 14, 69, 0
21, 376512, Note_off_c, 14, 73, 0
21, 376512, Note_off_c, 14, 72, 0
21, 376512, Note_off_c, 14, 77, 0
21, 376576, Note_on_c, 14, 64, 71
21, 376576, Note_on_c, 14, 69, 71
21, 376576, Note_on_c, 14, 73, 71
21, 376576, Note_on_c, 14, 72, 71
21, 376576, Note_on_c, 14, 77, 71
21, 376640, Note_off_c, 14, 64, 0
21, 376640, Note_off_c, 14, 69, 0
21, 376640, Note_off_c, 14, 73, 0
21, 376640, Note_off_c, 14, 72, 0
21, 376640, Note_off_c, 14, 77, 0
21, 376704, Note_on_c, 14, 64, 74
21, 376704, Note_on_c, 14, 69, 74
21, 376704, Note_on_c, 14, 73, 74
21, 376704, Note_on_c, 14, 72, 74
21, 376704, Note_on_c, 14, 77, 74
21, 376768, Note_off_c, 14, 64, 0
21, 376768, Note_off_c, 14, 69, 0
21, 376768, Note_off_c, 14, 73, 0
21, 376768, Note_off_c, 14, 72, 0
21, 376768, Note_off_c, 14, 77, 0
21, 376832, Note_on_c, 14, 64, 71
21, 376832, Note_on_c, 14, 69, 71
21, 376832, Note_on_c, 14, 73, 71
21, 376832, Note_on_c, 14, 72, 71
21, 376832, Note_on_c, 14, 77, 71
21, 376896, Note_off_c, 14, 64, 0
21, 376896, Note_off_c, 14, 69, 0
21, 376896, Note_off_c, 14, 73, 0
21, 376896, Note_off_c, 14, 72, 0
21, 376896, Note_off_c, 14, 77, 0
21, 376960, Note_on_c, 14, 64, 69
21, 376960, Note_on_c, 14, 69, 69
21, 376960, Note_on_c, 14, 73, 69
21, 376960, Note_on_c, 14, 72, 69
21, 376960, Note_on_c, 14, 77, 69
21, 377024, Note_off_c, 14, 64, 0
21, 377024, Note_off_c, 14, 69, 0
21, 377024, Note_off_c, 14, 73, 0
21, 377024, Note_off_c, 14, 72, 0
21, 377024, Note_off_c, 14, 77, 0
21, 377088, Note_on_c, 14, 64, 69
21, 377088, Note_on_c, 14, 69, 69
21, 377088, Note_on_c, 14, 73, 69
21, 377088, Note_on_c, 14, 72, 69
21, 377088, Note_on_c, 14, 77, 69
21, 377152, Note_off_c, 14, 64, 0
21, 377152, Note_off_c, 14, 69, 0
21, 377152, Note_off_c, 14, 73, 0
21, 377152, Note_off_c, 14, 72, 0
21, 377152, Note_off_c, 14, 77, 0
21, 377216, Note_on_c, 14, 64, 69
21, 377216, Note_on_c, 14, 69, 69
21, 377216, Note_on_c, 14, 73, 69
21, 377216, Note_on_c, 14, 72, 69
21, 377216, Note_on_c, 14, 77, 69
21, 377280, Note_off_c, 14, 64, 0
21, 377280, Note_off_c, 14, 69, 0
21, 377280, Note_off_c, 14, 73, 0
21, 377280, Note_off_c, 14, 72, 0
21, 377280, Note_off_c, 14, 77, 0
21, 377344, Note_on_c, 14, 64, 77
21, 377344, Note_on_c, 14, 69, 77
21, 377344, Note_on_c, 14, 72, 77
21, 377344, Note_on_c, 14, 73, 77
21, 377344, Note_on_c, 14, 77, 77
21, 377344, Note_on_c, 14, 79, 77
21, 377408, Note_off_c, 14, 64, 0
21, 377408, Note_off_c, 14, 69, 0
21, 377408, Note_off_c, 14, 72, 0
21, 377408, Note_off_c, 14, 73, 0
21, 377408, Note_off_c, 14, 77, 0
21, 377408, Note_off_c, 14, 79, 0
21, 377472, Note_on_c, 14, 64, 73
21, 377472, Note_on_c, 14, 69, 73
21, 377472, Note_on_c, 14, 72, 73
21, 377472, Note_on_c, 14, 73, 73
21, 377472, Note_on_c, 14, 77, 73
21, 377472, Note_on_c, 14, 79, 73
21, 377536, Note_off_c, 14, 64, 0
21, 377536, Note_off_c, 14, 69, 0
21, 377536, Note_off_c, 14, 72, 0
21, 377536, Note_off_c, 14, 73, 0
21, 377536, Note_off_c, 14, 77, 0
21, 377536, Note_off_c, 14, 79, 0
21, 377600, Note_on_c, 14, 64, 73
21, 377600, Note_on_c, 14, 69, 73
21, 377600, Note_on_c, 14, 72, 73
21, 377600, Note_on_c, 14, 73, 73
21, 377600, Note_on_c, 14, 77, 73
21, 377600, Note_on_c, 14, 79, 73
21, 377664, Note_off_c, 14, 64, 0
21, 377664, Note_off_c, 14, 69, 0
21, 377664, Note_off_c, 14, 72, 0
21, 377664, Note_off_c, 14, 73, 0
21, 377664, Note_off_c, 14, 77, 0
21, 377664, Note_off_c, 14, 79, 0
21, 377728, Note_on_c, 14, 64, 72
21, 377728, Note_on_c, 14, 69, 72
21, 377728, Note_on_c, 14, 72, 72
21, 377728, Note_on_c, 14, 73, 72
21, 377728, Note_on_c, 14, 77, 72
21, 377728, Note_on_c, 14, 79, 72
21, 377792, Note_off_c, 14, 64, 0
21, 377792, Note_off_c, 14, 69, 0
21, 377792, Note_off_c, 14, 72, 0
21, 377792, Note_off_c, 14, 73, 0
21, 377792, Note_off_c, 14, 77, 0
21, 377792, Note_off_c, 14, 79, 0
21, 377856, Note_on_c, 14, 64, 68
21, 377856, Note_on_c, 14, 69, 68
21, 377856, Note_on_c, 14, 72, 68
21, 377856, Note_on_c, 14, 73, 68
21, 377856, Note_on_c, 14, 77, 68
21, 377856, Note_on_c, 14, 79, 68
21, 377920, Note_off_c, 14, 64, 0
21, 377920, Note_off_c, 14, 69, 0
21, 377920, Note_off_c, 14, 72, 0
21, 377920, Note_off_c, 14, 73, 0
21, 377920, Note_off_c, 14, 77, 0
21, 377920, Note_off_c, 14, 79, 0
21, 377984, Note_on_c, 14, 64, 73
21, 377984, Note_on_c, 14, 69, 73
21, 377984, Note_on_c, 14, 72, 73
21, 377984, Note_on_c, 14, 73, 73
21, 377984, Note_on_c, 14, 77, 73
21, 377984, Note_on_c, 14, 79, 73
21, 378048, Note_off_c, 14, 64, 0
21, 378048, Note_off_c, 14, 69, 0
21, 378048, Note_off_c, 14, 72, 0
21, 378048, Note_off_c, 14, 73, 0
21, 378048, Note_off_c, 14, 77, 0
21, 378048, Note_off_c, 14, 79, 0
21, 378112, Note_on_c, 14, 64, 72
21, 378112, Note_on_c, 14, 69, 72
21, 378112, Note_on_c, 14, 72, 72
21, 378112, Note_on_c, 14, 73, 72
21, 378112, Note_on_c, 14, 77, 72
21, 378112, Note_on_c, 14, 79, 72
21, 378176, Note_off_c, 14, 64, 0
21, 378176, Note_off_c, 14, 69, 0
21, 378176, Note_off_c, 14, 72, 0
21, 378176, Note_off_c, 14, 73, 0
21, 378176, Note_off_c, 14, 77, 0
21, 378176, Note_off_c, 14, 79, 0
21, 378240, Note_on_c, 14, 64, 66
21, 378240, Note_on_c, 14, 69, 66
21, 378240, Note_on_c, 14, 72, 66
21, 378240, Note_on_c, 14, 73, 66
21, 378240, Note_on_c, 14, 77, 66
21, 378240, Note_on_c, 14, 79, 66
21, 378304, Note_off_c, 14, 64, 0
21, 378304, Note_off_c, 14, 69, 0
21, 378304, Note_off_c, 14, 72, 0
21, 378304, Note_off_c, 14, 73, 0
21, 378304, Note_off_c, 14, 77, 0
21, 378304, Note_off_c, 14, 79, 0
21, 378368, Note_on_c, 14, 64, 70
21, 378368, Note_on_c, 14, 69, 70
21, 378368, Note_on_c, 14, 72, 70
21, 378368, Note_on_c, 14, 73, 70
21, 378368, Note_on_c, 14, 77, 70
21, 378368, Note_on_c, 14, 79, 70
21, 378432, Note_off_c, 14, 64, 0
21, 378432, Note_off_c, 14, 69, 0
21, 378432, Note_off_c, 14, 72, 0
21, 378432, Note_off_c, 14, 73, 0
21, 378432, Note_off_c, 14, 77, 0
21, 378432, Note_off_c, 14, 79, 0
21, 378496, Note_on_c, 14, 64, 71
21, 378496, Note_on_c, 14, 69, 71
21, 378496, Note_on_c, 14, 72, 71
21, 378496, Note_on_c, 14, 73, 71
21, 378496, Note_on_c, 14, 77, 71
21, 378496, Note_on_c, 14, 79, 71
21, 378560, Note_off_c, 14, 64, 0
21, 378560, Note_off_c, 14, 69, 0
21, 378560, Note_off_c, 14, 72, 0
21, 378560, Note_off_c, 14, 73, 0
21, 378560, Note_off_c, 14, 77, 0
21, 378560, Note_off_c, 14, 79, 0
21, 378624, Note_on_c, 14, 64, 66
21, 378624, Note_on_c, 14, 69, 66
21, 378624, Note_on_c, 14, 72, 66
21, 378624, Note_on_c, 14, 73, 66
21, 378624, Note_on_c, 14, 77, 66
21, 378624, Note_on_c, 14, 79, 66
21, 378688, Note_off_c, 14, 64, 0
21, 378688, Note_off_c, 14, 69, 0
21, 378688, Note_off_c, 14, 72, 0
21, 378688, Note_off_c, 14, 73, 0
21, 378688, Note_off_c, 14, 77, 0
21, 378688, Note_off_c, 14, 79, 0
21, 378752, Note_on_c, 14, 64, 69
21, 378752, Note_on_c, 14, 69, 69
21, 378752, Note_on_c, 14, 72, 69
21, 378752, Note_on_c, 14, 73, 69
21, 378752, Note_on_c, 14, 77, 69
21, 378752, Note_on_c, 14, 79, 69
21, 378816, Note_off_c, 14, 64, 0
21, 378816, Note_off_c, 14, 69, 0
21, 378816, Note_off_c, 14, 72, 0
21, 378816, Note_off_c, 14, 73, 0
21, 378816, Note_off_c, 14, 77, 0
21, 378816, Note_off_c, 14, 79, 0
21, 379008, Note_on_c, 14, 64, 68
21, 379008, Note_on_c, 14, 69, 68
21, 379008, Note_on_c, 14, 72, 68
21, 379008, Note_on_c, 14, 73, 68
21, 379008, Note_on_c, 14, 77, 68
21, 379008, Note_on_c, 14, 79, 68
21, 379072, Note_off_c, 14, 64, 0
21, 379072, Note_off_c, 14, 69, 0
21, 379072, Note_off_c, 14, 72, 0
21, 379072, Note_off_c, 14, 73, 0
21, 379072, Note_off_c, 14, 77, 0
21, 379072, Note_off_c, 14, 79, 0
21, 379136, Note_on_c, 14, 64, 69
21, 379136, Note_on_c, 14, 69, 69
21, 379136, Note_on_c, 14, 72, 69
21, 379136, Note_on_c, 14, 73, 69
21, 379136, Note_on_c, 14, 77, 69
21, 379136, Note_on_c, 14, 79, 69
21, 379200, Note_off_c, 14, 64, 0
21, 379200, Note_off_c, 14, 69, 0
21, 379200, Note_off_c, 14, 72, 0
21, 379200, Note_off_c, 14, 73, 0
21, 379200, Note_off_c, 14, 77, 0
21, 379200, Note_off_c, 14, 79, 0
21, 379392, Note_on_c, 14, 64, 66
21, 379392, Note_on_c, 14, 69, 66
21, 379392, Note_on_c, 14, 72, 66
21, 379392, Note_on_c, 14, 73, 66
21, 379392, Note_on_c, 14, 77, 66
21, 379392, Note_on_c, 14, 79, 66
21, 379456, Note_off_c, 14, 64, 0
21, 379456, Note_off_c, 14, 69, 0
21, 379456, Note_off_c, 14, 72, 0
21, 379456, Note_off_c, 14, 73, 0
21, 379456, Note_off_c, 14, 77, 0
21, 379456, Note_off_c, 14, 79, 0
21, 379520, Note_on_c, 14, 64, 73
21, 379520, Note_on_c, 14, 69, 73
21, 379520, Note_on_c, 14, 72, 73
21, 379520, Note_on_c, 14, 73, 73
21, 379520, Note_on_c, 14, 77, 73
21, 379520, Note_on_c, 14, 79, 73
21, 379584, Note_off_c, 14, 64, 0
21, 379584, Note_off_c, 14, 69, 0
21, 379584, Note_off_c, 14, 72, 0
21, 379584, Note_off_c, 14, 73, 0
21, 379584, Note_off_c, 14, 77, 0
21, 379584, Note_off_c, 14, 79, 0
21, 379776, Note_on_c, 14, 64, 69
21, 379776, Note_on_c, 14, 69, 69
21, 379776, Note_on_c, 14, 72, 69
21, 379776, Note_on_c, 14, 73, 69
21, 379776, Note_on_c, 14, 77, 69
21, 379776, Note_on_c, 14, 79, 69
21, 379840, Note_off_c, 14, 64, 0
21, 379840, Note_off_c, 14, 69, 0
21, 379840, Note_off_c, 14, 72, 0
21, 379840, Note_off_c, 14, 73, 0
21, 379840, Note_off_c, 14, 77, 0
21, 379840, Note_off_c, 14, 79, 0
21, 379904, Note_on_c, 14, 64, 67
21, 379904, Note_on_c, 14, 69, 67
21, 379904, Note_on_c, 14, 72, 67
21, 379904, Note_on_c, 14, 73, 67
21, 379904, Note_on_c, 14, 77, 67
21, 379904, Note_on_c, 14, 79, 67
21, 379968, Note_off_c, 14, 64, 0
21, 379968, Note_off_c, 14, 69, 0
21, 379968, Note_off_c, 14, 72, 0
21, 379968, Note_off_c, 14, 73, 0
21, 379968, Note_off_c, 14, 77, 0
21, 379968, Note_off_c, 14, 79, 0
21, 380160, Note_on_c, 14, 64, 64
21, 380160, Note_on_c, 14, 69, 64
21, 380160, Note_on_c, 14, 72, 64
21, 380160, Note_on_c, 14, 73, 64
21, 380160, Note_on_c, 14, 77, 64
21, 380160, Note_on_c, 14, 79, 64
21, 380224, Note_off_c, 14, 64, 0
21, 380224, Note_off_c, 14, 69, 0
21, 380224, Note_off_c, 14, 72, 0
21, 380224, Note_off_c, 14, 73, 0
21, 380224, Note_off_c, 14, 77, 0
21, 380224, Note_off_c, 14, 79, 0
21, 380288, Note_on_c, 14, 64, 69
21, 380288, Note_on_c, 14, 69, 69
21, 380288, Note_on_c, 14, 72, 69
21, 380288, Note_on_c, 14, 73, 69
21, 380288, Note_on_c, 14, 77, 69
21, 380288, Note_on_c, 14, 79, 69
21, 380352, Note_off_c, 14, 64, 0
21, 380352, Note_off_c, 14, 69, 0
21, 380352, Note_off_c, 14, 72, 0
21, 380352, Note_off_c, 14, 73, 0
21, 380352, Note_off_c, 14, 77, 0
21, 380352, Note_off_c, 14, 79, 0
21, 380544, Note_on_c, 14, 64, 70
21, 380544, Note_on_c, 14, 69, 70
21, 380544, Note_on_c, 14, 72, 70
21, 380544, Note_on_c, 14, 73, 70
21, 380544, Note_on_c, 14, 77, 70
21, 380608, Note_off_c, 14, 64, 0
21, 380608, Note_off_c, 14, 69, 0
21, 380608, Note_off_c, 14, 72, 0
21, 380608, Note_off_c, 14, 73, 0
21, 380608, Note_off_c, 14, 77, 0
21, 380672, Note_on_c, 14, 64, 71
21, 380672, Note_on_c, 14, 69, 71
21, 380672, Note_on_c, 14, 72, 71
21, 380672, Note_on_c, 14, 73, 71
21, 380672, Note_on_c, 14, 77, 71
21, 380672, Note_on_c, 14, 79, 71
21, 380736, Note_off_c, 14, 64, 0
21, 380736, Note_off_c, 14, 69, 0
21, 380736, Note_off_c, 14, 72, 0
21, 380736, Note_off_c, 14, 73, 0
21, 380736, Note_off_c, 14, 77, 0
21, 380736, Note_off_c, 14, 79, 0
21, 380928, Note_on_c, 14, 64, 64
21, 380928, Note_on_c, 14, 69, 64
21, 380928, Note_on_c, 14, 72, 64
21, 380928, Note_on_c, 14, 73, 64
21, 380928, Note_on_c, 14, 77, 64
21, 380928, Note_on_c, 14, 79, 64
21, 380992, Note_off_c, 14, 64, 0
21, 380992, Note_off_c, 14, 69, 0
21, 380992, Note_off_c, 14, 72, 0
21, 380992, Note_off_c, 14, 73, 0
21, 380992, Note_off_c, 14, 77, 0
21, 380992, Note_off_c, 14, 79, 0
21, 381056, Note_on_c, 14, 64, 64
21, 381056, Note_on_c, 14, 69, 64
21, 381056, Note_on_c, 14, 72, 64
21, 381056, Note_on_c, 14, 73, 64
21, 381056, Note_on_c, 14, 77, 64
21, 381056, Note_on_c, 14, 79, 64
21, 381120, Note_off_c, 14, 64, 0
21, 381120, Note_off_c, 14, 69, 0
21, 381120, Note_off_c, 14, 72, 0
21, 381120, Note_off_c, 14, 73, 0
21, 381120, Note_off_c, 14, 77, 0
21, 381120, Note_off_c, 14, 79, 0
21, 381312, Note_on_c, 14, 64, 65
21, 381312, Note_on_c, 14, 69, 65
21, 381312, Note_on_c, 14, 72, 65
21, 381312, Note_on_c, 14, 73, 65
21, 381312, Note_on_c, 14, 77, 65
21, 381376, Note_off_c, 14, 64, 0
21, 381376, Note_off_c, 14, 69, 0
21, 381376, Note_off_c, 14, 72, 0
21, 381376, Note_off_c, 14, 73, 0
21, 381376, Note_off_c, 14, 77, 0
21, 381440, Note_on_c, 14, 64, 71
21, 381440, Note_on_c, 14, 69, 71
21, 381440, Note_on_c, 14, 72, 71
21, 381440, Note_on_c, 14, 73, 71
21, 381440, Note_on_c, 14, 77, 71
21, 381440, Note_on_c, 14, 79, 71
21, 381504, Note_off_c, 14, 64, 0
21, 381504, Note_off_c, 14, 69, 0
21, 381504, Note_off_c, 14, 72, 0
21, 381504, Note_off_c, 14, 73, 0
21, 381504, Note_off_c, 14, 77, 0
21, 381504, Note_off_c, 14, 79, 0
21, 381696, Note_on_c, 14, 64, 63
21, 381696, Note_on_c, 14, 69, 63
21, 381696, Note_on_c, 14, 72, 63
21, 381696, Note_on_c, 14, 73, 63
21, 381696, Note_on_c, 14, 77, 63
21, 381696, Note_on_c, 14, 79, 63
21, 381760, Note_off_c, 14, 64, 0
21, 381760, Note_off_c, 14, 69, 0
21, 381760, Note_off_c, 14, 72, 0
21, 381760, Note_off_c, 14, 73, 0
21, 381760, Note_off_c, 14, 77, 0
21, 381760, Note_off_c, 14, 79, 0
21, 381824, Note_on_c, 14, 64, 66
21, 381824, Note_on_c, 14, 69, 66
21, 381824, Note_on_c, 14, 72, 66
21, 381824, Note_on_c, 14, 73, 66
21, 381824, Note_on_c, 14, 77, 66
21, 381824, Note_on_c, 14, 79, 66
21, 381888, Note_off_c, 14, 64, 0
21, 381888, Note_off_c, 14, 69, 0
21, 381888, Note_off_c, 14, 72, 0
21, 381888, Note_off_c, 14, 73, 0
21, 381888, Note_off_c, 14, 77, 0
21, 381888, Note_off_c, 14, 79, 0
21, 382080, Note_on_c, 14, 64, 63
21, 382080, Note_on_c, 14, 69, 63
21, 382080, Note_on_c, 14, 72, 63
21, 382080, Note_on_c, 14, 73, 63
21, 382080, Note_on_c, 14, 77, 63
21, 382144, Note_off_c, 14, 64, 0
21, 382144, Note_off_c, 14, 69, 0
21, 382144, Note_off_c, 14, 72, 0
21, 382144, Note_off_c, 14, 73, 0
21, 382144, Note_off_c, 14, 77, 0
21, 382208, Note_on_c, 14, 64, 73
21, 382208, Note_on_c, 14, 69, 73
21, 382208, Note_on_c, 14, 72, 73
21, 382208, Note_on_c, 14, 73, 73
21, 382208, Note_on_c, 14, 77, 73
21, 382208, Note_on_c, 14, 79, 73
21, 382272, Note_off_c, 14, 64, 0
21, 382272, Note_off_c, 14, 69, 0
21, 382272, Note_off_c, 14, 72, 0
21, 382272, Note_off_c, 14, 73, 0
21, 382272, Note_off_c, 14, 77, 0
21, 382272, Note_off_c, 14, 79, 0
21, 382464, Note_on_c, 14, 64, 61
21, 382464, Note_on_c, 14, 69, 61
21, 382464, Note_on_c, 14, 72, 61
21, 382464, Note_on_c, 14, 73, 61
21, 382464, Note_on_c, 14, 77, 61
21, 382464, Note_on_c, 14, 79, 61
21, 382528, Note_off_c, 14, 64, 0
21, 382528, Note_off_c, 14, 69, 0
21, 382528, Note_off_c, 14, 72, 0
21, 382528, Note_off_c, 14, 73, 0
21, 382528, Note_off_c, 14, 77, 0
21, 382528, Note_off_c, 14, 79, 0
21, 382592, Note_on_c, 14, 64, 61
21, 382592, Note_on_c, 14, 69, 61
21, 382592, Note_on_c, 14, 72, 61
21, 382592, Note_on_c, 14, 73, 61
21, 382592, Note_on_c, 14, 77, 61
21, 382592, Note_on_c, 14, 79, 61
21, 382656, Note_off_c, 14, 64, 0
21, 382656, Note_off_c, 14, 69, 0
21, 382656, Note_off_c, 14, 72, 0
21, 382656, Note_off_c, 14, 73, 0
21, 382656, Note_off_c, 14, 77, 0
21, 382656, Note_off_c, 14, 79, 0
21, 382848, Note_on_c, 14, 64, 55
21, 382848, Note_on_c, 14, 69, 55
21, 382848, Note_on_c, 14, 72, 55
21, 382848, Note_on_c, 14, 73, 55
21, 382848, Note_on_c, 14, 77, 55
21, 382912, Note_off_c, 14, 64, 0
21, 382912, Note_off_c, 14, 69, 0
21, 382912, Note_off_c, 14, 72, 0
21, 382912, Note_off_c, 14, 73, 0
21, 382912, Note_off_c, 14, 77, 0
21, 382976, Note_on_c, 14, 64, 66
21, 382976, Note_on_c, 14, 69, 66
21, 382976, Note_on_c, 14, 72, 66
21, 382976, Note_on_c, 14, 73, 66
21, 382976, Note_on_c, 14, 77, 66
21, 382976, Note_on_c, 14, 79, 66
21, 383040, Note_off_c, 14, 64, 0
21, 383040, Note_off_c, 14, 69, 0
21, 383040, Note_off_c, 14, 72, 0
21, 383040, Note_off_c, 14, 73, 0
21, 383040, Note_off_c, 14, 77, 0
21, 383040, Note_off_c, 14, 79, 0
21, 383232, Note_on_c, 14, 64, 53
21, 383232, Note_on_c, 14, 69, 53
21, 383232, Note_on_c, 14, 72, 53
21, 383232, Note_on_c, 14, 73, 53
21, 383232, Note_on_c, 14, 77, 53
21, 383232, Note_on_c, 14, 79, 53
21, 383296, Note_off_c, 14, 64, 0
21, 383296, Note_off_c, 14, 69, 0
21, 383296, Note_off_c, 14, 72, 0
21, 383296, Note_off_c, 14, 73, 0
21, 383296, Note_off_c, 14, 77, 0
21, 383296, Note_off_c, 14, 79, 0
21, 383360, Note_on_c, 14, 64, 64
21, 383360, Note_on_c, 14, 69, 64
21, 383360, Note_on_c, 14, 72, 64
21, 383360, Note_on_c, 14, 73, 64
21, 383360, Note_on_c, 14, 77, 64
21, 383360, Note_on_c, 14, 79, 64
21, 383424, Note_off_c, 14, 64, 0
21, 383424, Note_off_c, 14, 69, 0
21, 383424, Note_off_c, 14, 72, 0
21, 383424, Note_off_c, 14, 73, 0
21, 383424, Note_off_c, 14, 77, 0
21, 383424, Note_off_c, 14, 79, 0
21, 383744, Note_on_c, 14, 48, 97
21, 383808, Note_off_c, 14, 48, 0
21, 383872, Note_on_c, 14, 48, 110
21, 383936, Note_off_c, 14, 48, 0
21, 384000, Note_on_c, 14, 63, 105
21, 384000, Note_on_c, 14, 49, 115
21, 384064, Note_off_c, 14, 63, 0
21, 384064, Note_off_c, 14, 49, 0
21, 384128, Note_on_c, 14, 64, 119
21, 384128, Note_on_c, 14, 49, 113
21, 384192, Note_off_c, 14, 64, 0
21, 384192, Note_off_c, 14, 49, 0
21, 384256, Note_on_c, 14, 66, 126
21, 384256, Note_on_c, 14, 52, 118
21, 384320, Note_off_c, 14, 66, 0
21, 384320, Note_off_c, 14, 52, 0
21, 384384, Note_on_c, 14, 66, 121
21, 384384, Note_on_c, 14, 52, 110
21, 384448, Note_off_c, 14, 66, 0
21, 384448, Note_off_c, 14, 52, 0
21, 384512, Note_on_c, 14, 67, 127
21, 384512, Note_on_c, 14, 54, 116
21, 384576, Note_off_c, 14, 67, 0
21, 384576, Note_off_c, 14, 54, 0
21, 384640, Note_on_c, 14, 70, 127
21, 384640, Note_on_c, 14, 54, 110
21, 384704, Note_off_c, 14, 70, 0
21, 384704, Note_off_c, 14, 54, 0
21, 384768, Note_on_c, 14, 60, 89
21, 384768, Note_on_c, 14, 55, 119
21, 384832, Note_off_c, 14, 60, 0
21, 384832, Note_off_c, 14, 55, 0
21, 384896, Note_on_c, 14, 60, 106
21, 384896, Note_on_c, 14, 55, 114
21, 384960, Note_off_c, 14, 60, 0
21, 384960, Note_off_c, 14, 55, 0
21, 385024, Note_on_c, 14, 61, 113
21, 385024, Note_on_c, 14, 57, 117
21, 385088, Note_off_c, 14, 61, 0
21, 385088, Note_off_c, 14, 57, 0
21, 385152, Note_on_c, 14, 61, 114
21, 385152, Note_on_c, 14, 57, 117
21, 385216, Note_off_c, 14, 61, 0
21, 385216, Note_off_c, 14, 57, 0
21, 385280, Note_on_c, 14, 64, 125
21, 385280, Note_on_c, 14, 61, 127
21, 385344, Note_off_c, 14, 64, 0
21, 385344, Note_off_c, 14, 61, 0
21, 385408, Note_on_c, 14, 64, 116
21, 385408, Note_on_c, 14, 61, 118
21, 385472, Note_off_c, 14, 64, 0
21, 385472, Note_off_c, 14, 61, 0
21, 385536, Note_on_c, 14, 66, 126
21, 385536, Note_on_c, 14, 63, 127
21, 385600, Note_off_c, 14, 66, 0
21, 385600, Note_off_c, 14, 63, 0
21, 385664, Note_on_c, 14, 66, 122
21, 385664, Note_on_c, 14, 63, 121
21, 385728, Note_off_c, 14, 66, 0
21, 385728, Note_off_c, 14, 63, 0
21, 385792, Note_on_c, 14, 67, 127
21, 385792, Note_on_c, 14, 64, 124
21, 385856, Note_off_c, 14, 67, 0
21, 385856, Note_off_c, 14, 64, 0
21, 385920, Note_on_c, 14, 67, 121
21, 385920, Note_on_c, 14, 64, 125
21, 385984, Note_off_c, 14, 67, 0
21, 385984, Note_off_c, 14, 64, 0
21, 386048, Note_on_c, 14, 70, 127
21, 386048, Note_on_c, 14, 66, 127
21, 386112, Note_off_c, 14, 70, 0
21, 386112, Note_off_c, 14, 66, 0
21, 386176, Note_on_c, 14, 70, 125
21, 386176, Note_on_c, 14, 66, 127
21, 386240, Note_off_c, 14, 70, 0
21, 386240, Note_off_c, 14, 66, 0
21, 386304, Note_on_c, 14, 73, 127
21, 386304, Note_on_c, 14, 48, 97
21, 386368, Note_off_c, 14, 73, 0
21, 386368, Note_off_c, 14, 48, 0
21, 386432, Note_on_c, 14, 73, 127
21, 386432, Note_on_c, 14, 48, 115
21, 386496, Note_off_c, 14, 73, 0
21, 386496, Note_off_c, 14, 48, 0
21, 386560, Note_on_c, 14, 55, 104
21, 386560, Note_on_c, 14, 49, 116
21, 386624, Note_off_c, 14, 55, 0
21, 386624, Note_off_c, 14, 49, 0
21, 386688, Note_on_c, 14, 55, 110
21, 386688, Note_on_c, 14, 49, 113
21, 386752, Note_off_c, 14, 55, 0
21, 386752, Note_off_c, 14, 49, 0
21, 386816, Note_on_c, 14, 66, 100
21, 386816, Note_on_c, 14, 58, 121
21, 386816, Note_on_c, 14, 51, 112
21, 386880, Note_off_c, 14, 66, 0
21, 386880, Note_off_c, 14, 58, 0
21, 386880, Note_off_c, 14, 51, 0
21, 386944, Note_on_c, 14, 66, 117
21, 386944, Note_on_c, 14, 58, 115
21, 386944, Note_on_c, 14, 63, 127
21, 387008, Note_off_c, 14, 66, 0
21, 387008, Note_off_c, 14, 58, 0
21, 387008, Note_off_c, 14, 63, 0
21, 387072, Note_on_c, 14, 67, 127
21, 387072, Note_on_c, 14, 58, 115
21, 387072, Note_on_c, 14, 64, 127
21, 387136, Note_off_c, 14, 67, 0
21, 387136, Note_off_c, 14, 58, 0
21, 387136, Note_off_c, 14, 64, 0
21, 387200, Note_on_c, 14, 67, 121
21, 387200, Note_on_c, 14, 58, 111
21, 387200, Note_on_c, 14, 64, 117
21, 387264, Note_off_c, 14, 67, 0
21, 387264, Note_off_c, 14, 58, 0
21, 387264, Note_off_c, 14, 64, 0
21, 387328, Note_on_c, 14, 69, 127
21, 387328, Note_on_c, 14, 60, 118
21, 387328, Note_on_c, 14, 66, 122
21, 387392, Note_off_c, 14, 69, 0
21, 387392, Note_off_c, 14, 60, 0
21, 387392, Note_off_c, 14, 66, 0
21, 387456, Note_on_c, 14, 69, 127
21, 387456, Note_on_c, 14, 60, 115
21, 387456, Note_on_c, 14, 66, 117
21, 387520, Note_off_c, 14, 69, 0
21, 387520, Note_off_c, 14, 60, 0
21, 387520, Note_off_c, 14, 66, 0
21, 387584, Note_on_c, 14, 61, 115
21, 387584, Note_on_c, 14, 66, 113
21, 387648, Note_off_c, 14, 61, 0
21, 387648, Note_off_c, 14, 66, 0
21, 387712, Note_on_c, 14, 61, 112
21, 387712, Note_on_c, 14, 67, 122
21, 387776, Note_off_c, 14, 61, 0
21, 387776, Note_off_c, 14, 67, 0
21, 387840, Note_on_c, 14, 63, 120
21, 387840, Note_on_c, 14, 67, 119
21, 387904, Note_off_c, 14, 63, 0
21, 387904, Note_off_c, 14, 67, 0
21, 387968, Note_on_c, 14, 63, 112
21, 387968, Note_on_c, 14, 67, 120
21, 388032, Note_off_c, 14, 63, 0
21, 388032, Note_off_c, 14, 67, 0
21, 388096, Note_on_c, 14, 64, 102
21, 388096, Note_on_c, 14, 64, 118
21, 388096, Note_on_c, 14, 69, 127
21, 388160, Note_off_c, 14, 64, 0
21, 388160, Note_off_c, 14, 64, 0
21, 388160, Note_off_c, 14, 69, 0
21, 388224, Note_on_c, 14, 66, 122
21, 388224, Note_on_c, 14, 64, 112
21, 388224, Note_on_c, 14, 70, 127
21, 388288, Note_off_c, 14, 66, 0
21, 388288, Note_off_c, 14, 64, 0
21, 388288, Note_off_c, 14, 70, 0
21, 388352, Note_on_c, 14, 66, 119
21, 388352, Note_on_c, 14, 66, 123
21, 388352, Note_on_c, 14, 48, 96
21, 388416, Note_off_c, 14, 66, 0
21, 388416, Note_off_c, 14, 66, 0
21, 388416, Note_off_c, 14, 48, 0
21, 388480, Note_on_c, 14, 69, 119
21, 388480, Note_on_c, 14, 66, 116
21, 388480, Note_on_c, 14, 48, 111
21, 388544, Note_off_c, 14, 69, 0
21, 388544, Note_off_c, 14, 66, 0
21, 388544, Note_off_c, 14, 48, 0
21, 388608, Note_on_c, 14, 70, 118
21, 388608, Note_on_c, 14, 66, 111
21, 388608, Note_on_c, 14, 49, 119
21, 388672, Note_off_c, 14, 70, 0
21, 388672, Note_off_c, 14, 66, 0
21, 388672, Note_off_c, 14, 49, 0
21, 388736, Note_on_c, 14, 70, 113
21, 388736, Note_on_c, 14, 67, 121
21, 388736, Note_on_c, 14, 49, 117
21, 388800, Note_off_c, 14, 70, 0
21, 388800, Note_off_c, 14, 67, 0
21, 388800, Note_off_c, 14, 49, 0
21, 388864, Note_on_c, 14, 70, 116
21, 388864, Note_on_c, 14, 67, 119
21, 388864, Note_on_c, 14, 51, 115
21, 388928, Note_off_c, 14, 70, 0
21, 388928, Note_off_c, 14, 67, 0
21, 388928, Note_off_c, 14, 51, 0
21, 388992, Note_on_c, 14, 70, 120
21, 388992, Note_on_c, 14, 67, 118
21, 388992, Note_on_c, 14, 51, 113
21, 389056, Note_off_c, 14, 70, 0
21, 389056, Note_off_c, 14, 67, 0
21, 389056, Note_off_c, 14, 51, 0
21, 389120, Note_on_c, 14, 72, 127
21, 389120, Note_on_c, 14, 70, 126
21, 389120, Note_on_c, 14, 52, 115
21, 389184, Note_off_c, 14, 72, 0
21, 389184, Note_off_c, 14, 70, 0
21, 389184, Note_off_c, 14, 52, 0
21, 389248, Note_on_c, 14, 73, 124
21, 389248, Note_on_c, 14, 70, 127
21, 389248, Note_on_c, 14, 52, 115
21, 389312, Note_off_c, 14, 73, 0
21, 389312, Note_off_c, 14, 70, 0
21, 389312, Note_off_c, 14, 52, 0
21, 389376, Note_on_c, 14, 75, 127
21, 389376, Note_on_c, 14, 54, 116
21, 389440, Note_off_c, 14, 75, 0
21, 389440, Note_off_c, 14, 54, 0
21, 389504, Note_on_c, 14, 76, 127
21, 389504, Note_on_c, 14, 54, 109
21, 389568, Note_off_c, 14, 76, 0
21, 389568, Note_off_c, 14, 54, 0
21, 389632, Note_on_c, 14, 55, 116
21, 389696, Note_off_c, 14, 55, 0
21, 389760, Note_on_c, 14, 55, 112
21, 389824, Note_off_c, 14, 55, 0
21, 389888, Note_on_c, 14, 67, 115
21, 389888, Note_on_c, 14, 58, 118
21, 389952, Note_off_c, 14, 67, 0
21, 389952, Note_off_c, 14, 58, 0
21, 390016, Note_on_c, 14, 55, 110
21, 390016, Note_on_c, 14, 55, 109
21, 390016, Note_on_c, 14, 58, 114
21, 390080, Note_off_c, 14, 55, 0
21, 390080, Note_off_c, 14, 55, 0
21, 390080, Note_off_c, 14, 58, 0
21, 390144, Note_on_c, 14, 58, 127
21, 390144, Note_on_c, 14, 58, 127
21, 390144, Note_on_c, 14, 58, 113
21, 390208, Note_off_c, 14, 58, 0
21, 390208, Note_off_c, 14, 58, 0
21, 390208, Note_off_c, 14, 58, 0
21, 390272, Note_on_c, 14, 72, 127
21, 390272, Note_on_c, 14, 58, 111
21, 390336, Note_off_c, 14, 72, 0
21, 390336, Note_off_c, 14, 58, 0
21, 390400, Note_on_c, 14, 73, 127
21, 390400, Note_on_c, 14, 73, 109
21, 390400, Note_on_c, 14, 60, 117
21, 390464, Note_off_c, 14, 73, 0
21, 390464, Note_off_c, 14, 73, 0
21, 390464, Note_off_c, 14, 60, 0
21, 390528, Note_on_c, 14, 63, 100
21, 390528, Note_on_c, 14, 60, 114
21, 390592, Note_off_c, 14, 63, 0
21, 390592, Note_off_c, 14, 60, 0
21, 390656, Note_on_c, 14, 64, 127
21, 390656, Note_on_c, 14, 61, 116
21, 390720, Note_off_c, 14, 64, 0
21, 390720, Note_off_c, 14, 61, 0
21, 390784, Note_on_c, 14, 75, 127
21, 390784, Note_on_c, 14, 75, 113
21, 390784, Note_on_c, 14, 61, 112
21, 390848, Note_off_c, 14, 75, 0
21, 390848, Note_off_c, 14, 75, 0
21, 390848, Note_off_c, 14, 61, 0
21, 390912, Note_on_c, 14, 76, 127
21, 390912, Note_on_c, 14, 76, 127
21, 390912, Note_on_c, 14, 61, 114
21, 390976, Note_off_c, 14, 76, 0
21, 390976, Note_off_c, 14, 76, 0
21, 390976, Note_off_c, 14, 61, 0
21, 391040, Note_on_c, 14, 78, 127
21, 391040, Note_on_c, 14, 78, 127
21, 391040, Note_on_c, 14, 61, 113
21, 391104, Note_off_c, 14, 78, 0
21, 391104, Note_off_c, 14, 78, 0
21, 391104, Note_off_c, 14, 61, 0
21, 391168, Note_on_c, 14, 79, 127
21, 391168, Note_on_c, 14, 79, 127
21, 391168, Note_on_c, 14, 64, 122
21, 391232, Note_off_c, 14, 79, 0
21, 391232, Note_off_c, 14, 79, 0
21, 391232, Note_off_c, 14, 64, 0
21, 391296, Note_on_c, 14, 66, 93
21, 391296, Note_on_c, 14, 64, 117
21, 391360, Note_off_c, 14, 66, 0
21, 391360, Note_off_c, 14, 64, 0
21, 391424, Note_on_c, 14, 76, 127
21, 391424, Note_on_c, 14, 67, 127
21, 391488, Note_off_c, 14, 76, 0
21, 391488, Note_off_c, 14, 67, 0
21, 391552, Note_on_c, 14, 78, 127
21, 391552, Note_on_c, 14, 78, 117
21, 391552, Note_on_c, 14, 67, 126
21, 391616, Note_off_c, 14, 78, 0
21, 391616, Note_off_c, 14, 78, 0
21, 391616, Note_off_c, 14, 67, 0
21, 391680, Note_on_c, 14, 79, 127
21, 391680, Note_on_c, 14, 79, 127
21, 391680, Note_on_c, 14, 70, 125
21, 391744, Note_off_c, 14, 79, 0
21, 391744, Note_off_c, 14, 79, 0
21, 391744, Note_off_c, 14, 70, 0
21, 391808, Note_on_c, 14, 82, 127
21, 391808, Note_on_c, 14, 82, 127
21, 391808, Note_on_c, 14, 70, 122
21, 391872, Note_off_c, 14, 82, 0
21, 391872, Note_off_c, 14, 82, 0
21, 391872, Note_off_c, 14, 70, 0
21, 391936, Note_on_c, 14, 73, 127
21, 392000, Note_off_c, 14, 73, 0
21, 392064, Note_on_c, 14, 66, 110
21, 392064, Note_on_c, 14, 73, 127
21, 392128, Note_off_c, 14, 66, 0
21, 392128, Note_off_c, 14, 73, 0
21, 392192, Note_on_c, 14, 78, 127
21, 392256, Note_off_c, 14, 78, 0
21, 392320, Note_on_c, 14, 70, 109
21, 392320, Note_on_c, 14, 70, 114
21, 392384, Note_off_c, 14, 70, 0
21, 392384, Note_off_c, 14, 70, 0
21, 392448, Note_on_c, 14, 82, 127
21, 392448, Note_on_c, 14, 82, 127
21, 392512, Note_off_c, 14, 82, 0
21, 392512, Note_off_c, 14, 82, 0
21, 392576, Note_on_c, 14, 72, 110
21, 392640, Note_off_c, 14, 72, 0
21, 392704, Note_on_c, 14, 84, 127
21, 392768, Note_off_c, 14, 84, 0
21, 392832, Note_on_c, 14, 70, 95
21, 392832, Note_on_c, 14, 66, 115
21, 392832, Note_on_c, 14, 66, 113
21, 392896, Note_off_c, 14, 70, 0
21, 392896, Note_off_c, 14, 66, 0
21, 392896, Note_off_c, 14, 66, 0
21, 392960, Note_on_c, 14, 84, 127
21, 392960, Note_on_c, 14, 78, 127
21, 392960, Note_on_c, 14, 78, 127
21, 393024, Note_off_c, 14, 84, 0
21, 393024, Note_off_c, 14, 78, 0
21, 393024, Note_off_c, 14, 78, 0
21, 393088, Note_on_c, 14, 85, 127
21, 393088, Note_on_c, 14, 79, 127
21, 393088, Note_on_c, 14, 79, 127
21, 393152, Note_off_c, 14, 85, 0
21, 393152, Note_off_c, 14, 79, 0
21, 393152, Note_off_c, 14, 79, 0
21, 393216, Note_on_c, 14, 85, 127
21, 393216, Note_on_c, 14, 82, 127
21, 393216, Note_on_c, 14, 82, 127
21, 393280, Note_off_c, 14, 85, 0
21, 393280, Note_off_c, 14, 82, 0
21, 393280, Note_off_c, 14, 82, 0
21, 393344, Note_on_c, 14, 87, 127
21, 393344, Note_on_c, 14, 82, 127
21, 393408, Note_off_c, 14, 87, 0
21, 393408, Note_off_c, 14, 82, 0
21, 393472, Note_on_c, 14, 72, 94
21, 393472, Note_on_c, 14, 84, 127
21, 393536, Note_off_c, 14, 72, 0
21, 393536, Note_off_c, 14, 84, 0
21, 393600, Note_on_c, 14, 72, 125
21, 393600, Note_on_c, 14, 70, 91
21, 393600, Note_on_c, 14, 70, 110
21, 393664, Note_off_c, 14, 72, 0
21, 393664, Note_off_c, 14, 70, 0
21, 393664, Note_off_c, 14, 70, 0
21, 393728, Note_on_c, 14, 73, 127
21, 393728, Note_on_c, 14, 84, 127
21, 393728, Note_on_c, 14, 84, 127
21, 393792, Note_off_c, 14, 73, 0
21, 393792, Note_off_c, 14, 84, 0
21, 393792, Note_off_c, 14, 84, 0
21, 393856, Note_on_c, 14, 73, 124
21, 393856, Note_on_c, 14, 85, 127
21, 393856, Note_on_c, 14, 85, 127
21, 393920, Note_off_c, 14, 73, 0
21, 393920, Note_off_c, 14, 85, 0
21, 393920, Note_off_c, 14, 85, 0
21, 393984, Note_on_c, 14, 75, 127
21, 393984, Note_on_c, 14, 85, 127
21, 393984, Note_on_c, 14, 85, 126
21, 394048, Note_off_c, 14, 75, 0
21, 394048, Note_off_c, 14, 85, 0
21, 394048, Note_off_c, 14, 85, 0
21, 394112, Note_on_c, 14, 63, 92
21, 394112, Note_on_c, 14, 90, 127
21, 394112, Note_on_c, 14, 87, 127
21, 394176, Note_off_c, 14, 63, 0
21, 394176, Note_off_c, 14, 90, 0
21, 394176, Note_off_c, 14, 87, 0
21, 394240, Note_on_c, 14, 76, 127
21, 394304, Note_off_c, 14, 76, 0
21, 394368, Note_on_c, 14, 66, 107
21, 394432, Note_off_c, 14, 66, 0
21, 394496, Note_on_c, 14, 78, 127
21, 394560, Note_off_c, 14, 78, 0
21, 394624, Note_on_c, 14, 79, 127
21, 394688, Note_off_c, 14, 79, 0
21, 394752, Note_on_c, 14, 81, 127
21, 394752, Note_on_c, 14, 72, 115
21, 394752, Note_on_c, 14, 72, 110
21, 394816, Note_off_c, 14, 81, 0
21, 394816, Note_off_c, 14, 72, 0
21, 394816, Note_off_c, 14, 72, 0
21, 394880, Note_on_c, 14, 82, 127
21, 394880, Note_on_c, 14, 60, 91
21, 394880, Note_on_c, 14, 60, 89
21, 394944, Note_off_c, 14, 82, 0
21, 394944, Note_off_c, 14, 60, 0
21, 394944, Note_off_c, 14, 60, 0
21, 395008, Note_on_c, 14, 84, 127
21, 395008, Note_on_c, 14, 73, 127
21, 395008, Note_on_c, 14, 73, 127
21, 395072, Note_off_c, 14, 84, 0
21, 395072, Note_off_c, 14, 73, 0
21, 395072, Note_off_c, 14, 73, 0
21, 395136, Note_on_c, 14, 70, 97
21, 395136, Note_on_c, 14, 75, 127
21, 395136, Note_on_c, 14, 75, 127
21, 395200, Note_off_c, 14, 70, 0
21, 395200, Note_off_c, 14, 75, 0
21, 395200, Note_off_c, 14, 75, 0
21, 395264, Note_on_c, 14, 84, 127
21, 395264, Note_on_c, 14, 78, 127
21, 395264, Note_on_c, 14, 78, 127
21, 395328, Note_off_c, 14, 84, 0
21, 395328, Note_off_c, 14, 78, 0
21, 395328, Note_off_c, 14, 78, 0
21, 395392, Note_on_c, 14, 85, 127
21, 395392, Note_on_c, 14, 63, 97
21, 395392, Note_on_c, 14, 64, 94
21, 395456, Note_off_c, 14, 85, 0
21, 395456, Note_off_c, 14, 63, 0
21, 395456, Note_off_c, 14, 64, 0
21, 395520, Note_on_c, 14, 85, 127
21, 395520, Note_on_c, 14, 76, 127
21, 395584, Note_off_c, 14, 85, 0
21, 395584, Note_off_c, 14, 76, 0
21, 395648, Note_on_c, 14, 73, 91
21, 395648, Note_on_c, 14, 78, 127
21, 395712, Note_off_c, 14, 73, 0
21, 395712, Note_off_c, 14, 78, 0
21, 395776, Note_on_c, 14, 87, 127
21, 395776, Note_on_c, 14, 78, 127
21, 395840, Note_off_c, 14, 87, 0
21, 395840, Note_off_c, 14, 78, 0
21, 395904, Note_on_c, 14, 90, 127
21, 395904, Note_on_c, 14, 81, 127
21, 395904, Note_on_c, 14, 55, 120
21, 395968, Note_off_c, 14, 90, 0
21, 395968, Note_off_c, 14, 81, 0
21, 395968, Note_off_c, 14, 55, 0
21, 396032, Note_on_c, 14, 84, 127
21, 396032, Note_on_c, 14, 48, 110
21, 396096, Note_off_c, 14, 84, 0
21, 396096, Note_off_c, 14, 48, 0
21, 396160, Note_on_c, 14, 72, 96
21, 396160, Note_on_c, 14, 60, 127
21, 396224, Note_off_c, 14, 72, 0
21, 396224, Note_off_c, 14, 60, 0
21, 396288, Note_on_c, 14, 84, 127
21, 396288, Note_on_c, 14, 61, 127
21, 396352, Note_off_c, 14, 84, 0
21, 396352, Note_off_c, 14, 61, 0
21, 396416, Note_on_c, 14, 88, 113
21, 396416, Note_on_c, 14, 70, 94
21, 396416, Note_on_c, 14, 48, 112
21, 396480, Note_off_c, 14, 88, 0
21, 396480, Note_off_c, 14, 70, 0
21, 396480, Note_off_c, 14, 48, 0
21, 396544, Note_on_c, 14, 73, 92
21, 396544, Note_on_c, 14, 84, 127
21, 396608, Note_off_c, 14, 73, 0
21, 396608, Note_off_c, 14, 84, 0
21, 396672, Note_on_c, 14, 73, 122
21, 396672, Note_on_c, 14, 85, 127
21, 396672, Note_on_c, 14, 61, 117
21, 396736, Note_off_c, 14, 73, 0
21, 396736, Note_off_c, 14, 85, 0
21, 396736, Note_off_c, 14, 61, 0
21, 396800, Note_on_c, 14, 75, 127
21, 396800, Note_on_c, 14, 85, 126
21, 396800, Note_on_c, 14, 61, 123
21, 396864, Note_off_c, 14, 75, 0
21, 396864, Note_off_c, 14, 85, 0
21, 396864, Note_off_c, 14, 61, 0
21, 396928, Note_on_c, 14, 76, 127
21, 396928, Note_on_c, 14, 73, 93
21, 396928, Note_on_c, 14, 49, 105
21, 396992, Note_off_c, 14, 76, 0
21, 396992, Note_off_c, 14, 73, 0
21, 396992, Note_off_c, 14, 49, 0
21, 397056, Note_on_c, 14, 64, 95
21, 397056, Note_on_c, 14, 87, 127
21, 397056, Note_on_c, 14, 64, 127
21, 397120, Note_off_c, 14, 64, 0
21, 397120, Note_off_c, 14, 87, 0
21, 397120, Note_off_c, 14, 64, 0
21, 397184, Note_on_c, 14, 76, 127
21, 397184, Note_on_c, 14, 90, 127
21, 397248, Note_off_c, 14, 76, 0
21, 397248, Note_off_c, 14, 90, 0
21, 397312, Note_on_c, 14, 67, 107
21, 397376, Note_off_c, 14, 67, 0
21, 397440, Note_on_c, 14, 78, 127
21, 397440, Note_on_c, 14, 73, 116
21, 397440, Note_on_c, 14, 70, 118
21, 397504, Note_off_c, 14, 78, 0
21, 397504, Note_off_c, 14, 73, 0
21, 397504, Note_off_c, 14, 70, 0
21, 397568, Note_on_c, 14, 82, 127
21, 397568, Note_on_c, 14, 78, 127
21, 397568, Note_on_c, 14, 66, 108
21, 397632, Note_off_c, 14, 82, 0
21, 397632, Note_off_c, 14, 78, 0
21, 397632, Note_off_c, 14, 66, 0
21, 397696, Note_on_c, 14, 70, 92
21, 397696, Note_on_c, 14, 66, 91
21, 397696, Note_on_c, 14, 78, 127
21, 397760, Note_off_c, 14, 70, 0
21, 397760, Note_off_c, 14, 66, 0
21, 397760, Note_off_c, 14, 78, 0
21, 397824, Note_on_c, 14, 84, 127
21, 397824, Note_on_c, 14, 79, 127
21, 397824, Note_on_c, 14, 63, 98
21, 397888, Note_off_c, 14, 84, 0
21, 397888, Note_off_c, 14, 79, 0
21, 397888, Note_off_c, 14, 63, 0
21, 397952, Note_on_c, 14, 73, 101
21, 397952, Note_on_c, 14, 69, 108
21, 397952, Note_on_c, 14, 73, 127
21, 398016, Note_off_c, 14, 73, 0
21, 398016, Note_off_c, 14, 69, 0
21, 398016, Note_off_c, 14, 73, 0
21, 398080, Note_on_c, 14, 84, 127
21, 398080, Note_on_c, 14, 79, 127
21, 398080, Note_on_c, 14, 63, 105
21, 398144, Note_off_c, 14, 84, 0
21, 398144, Note_off_c, 14, 79, 0
21, 398144, Note_off_c, 14, 63, 0
21, 398208, Note_on_c, 14, 87, 127
21, 398208, Note_on_c, 14, 82, 127
21, 398208, Note_on_c, 14, 60, 113
21, 398272, Note_off_c, 14, 87, 0
21, 398272, Note_off_c, 14, 82, 0
21, 398272, Note_off_c, 14, 60, 0
21, 398336, Note_on_c, 14, 87, 127
21, 398336, Note_on_c, 14, 82, 127
21, 398336, Note_on_c, 14, 60, 126
21, 398400, Note_off_c, 14, 87, 0
21, 398400, Note_off_c, 14, 82, 0
21, 398400, Note_off_c, 14, 60, 0
21, 398464, Note_on_c, 14, 88, 127
21, 398464, Note_on_c, 14, 84, 127
21, 398464, Note_on_c, 14, 63, 127
21, 398528, Note_off_c, 14, 88, 0
21, 398528, Note_off_c, 14, 84, 0
21, 398528, Note_off_c, 14, 63, 0
21, 398592, Note_on_c, 14, 88, 127
21, 398592, Note_on_c, 14, 84, 127
21, 398592, Note_on_c, 14, 57, 122
21, 398656, Note_off_c, 14, 88, 0
21, 398656, Note_off_c, 14, 84, 0
21, 398656, Note_off_c, 14, 57, 0
21, 398720, Note_on_c, 14, 78, 96
21, 398720, Note_on_c, 14, 73, 97
21, 398720, Note_on_c, 14, 70, 127
21, 398784, Note_off_c, 14, 78, 0
21, 398784, Note_off_c, 14, 73, 0
21, 398784, Note_off_c, 14, 70, 0
21, 398848, Note_on_c, 14, 91, 127
21, 398848, Note_on_c, 14, 85, 127
21, 398848, Note_on_c, 14, 57, 119
21, 398912, Note_off_c, 14, 91, 0
21, 398912, Note_off_c, 14, 85, 0
21, 398912, Note_off_c, 14, 57, 0
21, 398976, Note_on_c, 14, 93, 127
21, 398976, Note_on_c, 14, 85, 127
21, 398976, Note_on_c, 14, 54, 125
21, 399040, Note_off_c, 14, 93, 0
21, 399040, Note_off_c, 14, 85, 0
21, 399040, Note_off_c, 14, 54, 0
21, 399104, Note_on_c, 14, 82, 96
21, 399104, Note_on_c, 14, 78, 105
21, 399104, Note_on_c, 14, 66, 127
21, 399168, Note_off_c, 14, 82, 0
21, 399168, Note_off_c, 14, 78, 0
21, 399168, Note_off_c, 14, 66, 0
21, 399232, Note_on_c, 14, 96, 127
21, 399232, Note_on_c, 14, 91, 127
21, 399232, Note_on_c, 14, 51, 120
21, 399296, Note_off_c, 14, 96, 0
21, 399296, Note_off_c, 14, 91, 0
21, 399296, Note_off_c, 14, 51, 0
21, 399360, Note_on_c, 14, 84, 107
21, 399424, Note_off_c, 14, 84, 0
21, 399488, Note_on_c, 14, 88, 113
21, 399488, Note_on_c, 14, 72, 92
21, 399552, Note_off_c, 14, 88, 0
21, 399552, Note_off_c, 14, 72, 0
21, 399552, Note_on_c, 14, 48, 115
21, 399616, Note_on_c, 14, 73, 92
21, 399616, Note_on_c, 14, 84, 127
21, 399616, Note_on_c, 14, 60, 127
21, 399617, Note_off_c, 14, 48, 0
21, 399676, Note_off_c, 14, 60, 0
21, 399680, Note_off_c, 14, 73, 0
21, 399680, Note_off_c, 14, 84, 0
21, 399744, Note_on_c, 14, 73, 123
21, 399744, Note_on_c, 14, 70, 99
21, 399808, Note_off_c, 14, 73, 0
21, 399808, Note_off_c, 14, 70, 0
21, 399808, Note_on_c, 14, 63, 113
21, 399872, Note_on_c, 14, 75, 127
21, 399872, Note_on_c, 14, 84, 127
21, 399872, Note_on_c, 14, 49, 94
21, 399873, Note_off_c, 14, 63, 0
21, 399932, Note_off_c, 14, 49, 0
21, 399936, Note_off_c, 14, 75, 0
21, 399936, Note_off_c, 14, 84, 0
21, 400000, Note_on_c, 14, 76, 127
21, 400000, Note_on_c, 14, 73, 99
21, 400064, Note_off_c, 14, 76, 0
21, 400064, Note_off_c, 14, 73, 0
21, 400064, Note_on_c, 14, 51, 109
21, 400128, Note_on_c, 14, 64, 95
21, 400128, Note_on_c, 14, 78, 127
21, 400128, Note_on_c, 14, 63, 127
21, 400129, Note_off_c, 14, 51, 0
21, 400188, Note_off_c, 14, 63, 0
21, 400192, Note_off_c, 14, 64, 0
21, 400192, Note_off_c, 14, 78, 0
21, 400256, Note_on_c, 14, 76, 127
21, 400256, Note_on_c, 14, 66, 91
21, 400320, Note_off_c, 14, 76, 0
21, 400320, Note_off_c, 14, 66, 0
21, 400320, Note_on_c, 14, 52, 109
21, 400384, Note_on_c, 14, 67, 103
21, 400384, Note_on_c, 14, 79, 127
21, 400384, Note_on_c, 14, 64, 127
21, 400385, Note_off_c, 14, 52, 0
21, 400444, Note_off_c, 14, 64, 0
21, 400448, Note_off_c, 14, 67, 0
21, 400448, Note_off_c, 14, 79, 0
21, 400512, Note_on_c, 14, 78, 127
21, 400512, Note_on_c, 14, 69, 104
21, 400576, Note_off_c, 14, 78, 0
21, 400576, Note_off_c, 14, 69, 0
21, 400576, Note_on_c, 14, 66, 110
21, 400640, Note_on_c, 14, 82, 127
21, 400640, Note_on_c, 14, 79, 127
21, 400640, Note_on_c, 14, 54, 98
21, 400641, Note_off_c, 14, 66, 0
21, 400700, Note_off_c, 14, 54, 0
21, 400704, Note_off_c, 14, 82, 0
21, 400704, Note_off_c, 14, 79, 0
21, 400768, Note_on_c, 14, 70, 98
21, 400768, Note_on_c, 14, 82, 127
21, 400832, Note_off_c, 14, 70, 0
21, 400832, Note_off_c, 14, 82, 0
21, 400832, Note_on_c, 14, 55, 112
21, 400896, Note_on_c, 14, 60, 93
21, 400896, Note_on_c, 14, 82, 127
21, 400896, Note_on_c, 14, 67, 127
21, 400897, Note_off_c, 14, 55, 0
21, 400956, Note_off_c, 14, 67, 0
21, 400960, Note_off_c, 14, 60, 0
21, 400960, Note_off_c, 14, 82, 0
21, 401024, Note_on_c, 14, 73, 127
21, 401024, Note_on_c, 14, 84, 127
21, 401088, Note_off_c, 14, 73, 0
21, 401088, Note_off_c, 14, 84, 0
21, 401088, Note_on_c, 14, 57, 116
21, 401152, Note_on_c, 14, 72, 92
21, 401152, Note_on_c, 14, 69, 127
21, 401153, Note_off_c, 14, 57, 0
21, 401212, Note_off_c, 14, 69, 0
21, 401216, Note_off_c, 14, 72, 0
21, 401280, Note_on_c, 14, 73, 124
21, 401344, Note_off_c, 14, 73, 0
21, 401344, Note_on_c, 14, 70, 117
21, 401408, Note_on_c, 14, 85, 127
21, 401408, Note_on_c, 14, 57, 98
21, 401409, Note_off_c, 14, 70, 0
21, 401468, Note_off_c, 14, 57, 0
21, 401472, Note_off_c, 14, 85, 0
21, 401536, Note_on_c, 14, 88, 127
21, 401600, Note_off_c, 14, 88, 0
21, 401600, Note_on_c, 14, 61, 113
21, 401664, Note_on_c, 14, 78, 100
21, 401664, Note_on_c, 14, 73, 127
21, 401665, Note_off_c, 14, 61, 0
21, 401724, Note_off_c, 14, 73, 0
21, 401728, Note_off_c, 14, 78, 0
21, 401792, Note_on_c, 14, 66, 92
21, 401856, Note_off_c, 14, 66, 0
21, 401856, Note_on_c, 14, 51, 116
21, 401920, Note_on_c, 14, 63, 127
21, 401921, Note_off_c, 14, 51, 0
21, 401980, Note_off_c, 14, 63, 0
21, 402112, Note_on_c, 14, 64, 114
21, 402176, Note_on_c, 14, 48, 92
21, 402177, Note_off_c, 14, 64, 0
21, 402236, Note_off_c, 14, 48, 0
21, 402368, Note_on_c, 14, 52, 118
21, 402432, Note_on_c, 14, 54, 120
21, 402433, Note_off_c, 14, 52, 0
21, 402492, Note_off_c, 14, 54, 0
21, 402624, Note_on_c, 14, 57, 111
21, 402688, Note_on_c, 14, 61, 121
21, 402689, Note_off_c, 14, 57, 0
21, 402748, Note_off_c, 14, 61, 0
21, 402880, Note_on_c, 14, 63, 114
21, 402944, Note_on_c, 14, 48, 103
21, 402945, Note_off_c, 14, 63, 0
21, 403004, Note_off_c, 14, 48, 0
21, 403136, Note_on_c, 14, 52, 113
21, 403200, Note_on_c, 14, 54, 114
21, 403201, Note_off_c, 14, 52, 0
21, 403260, Note_off_c, 14, 54, 0
21, 403392, Note_on_c, 14, 57, 112
21, 403456, Note_on_c, 14, 61, 125
21, 403457, Note_off_c, 14, 57, 0
21, 403516, Note_off_c, 14, 61, 0
21, 403648, Note_on_c, 14, 63, 121
21, 403712, Note_on_c, 14, 48, 106
21, 403713, Note_off_c, 14, 63, 0
21, 403772, Note_off_c, 14, 48, 0
21, 403904, Note_on_c, 14, 48, 115
21, 403968, Note_on_c, 14, 52, 120
21, 403969, Note_off_c, 14, 48, 0
21, 404028, Note_off_c, 14, 52, 0
21, 404160, Note_on_c, 14, 54, 115
21, 404224, Note_on_c, 14, 57, 114
21, 404225, Note_off_c, 14, 54, 0
21, 404284, Note_off_c, 14, 57, 0
21, 404416, Note_on_c, 14, 61, 112
21, 404480, Note_on_c, 14, 63, 116
21, 404481, Note_off_c, 14, 61, 0
21, 404540, Note_off_c, 14, 63, 0
21, 404672, Note_on_c, 14, 48, 123
21, 404736, Note_on_c, 14, 52, 123
21, 404737, Note_off_c, 14, 48, 0
21, 404796, Note_off_c, 14, 52, 0
21, 404928, Note_on_c, 14, 54, 114
21, 404992, Note_on_c, 14, 57, 116
21, 404993, Note_off_c, 14, 54, 0
21, 405052, Note_off_c, 14, 57, 0
21, 405184, Note_on_c, 14, 61, 114
21, 405248, Note_on_c, 14, 63, 117
21, 405249, Note_off_c, 14, 61, 0
21, 405308, Note_off_c, 14, 63, 0
21, 405440, Note_on_c, 14, 48, 114
21, 405504, Note_on_c, 14, 52, 118
21, 405505, Note_off_c, 14, 48, 0
21, 405564, Note_off_c, 14, 52, 0
21, 405696, Note_on_c, 14, 54, 117
21, 405760, Note_on_c, 14, 57, 115
21, 405761, Note_off_c, 14, 54, 0
21, 405820, Note_off_c, 14, 57, 0
21, 405952, Note_on_c, 14, 61, 118
21, 406016, Note_on_c, 14, 63, 124
21, 406017, Note_off_c, 14, 61, 0
21, 406076, Note_off_c, 14, 63, 0
21, 406208, Note_on_c, 14, 48, 109
21, 406272, Note_on_c, 14, 52, 115
21, 406273, Note_off_c, 14, 48, 0
21, 406332, Note_off_c, 14, 52, 0
21, 406464, Note_on_c, 14, 54, 116
21, 406528, Note_on_c, 14, 57, 121
21, 406529, Note_off_c, 14, 54, 0
21, 406588, Note_off_c, 14, 57, 0
21, 406720, Note_on_c, 14, 61, 111
21, 406784, Note_on_c, 14, 63, 118
21, 406785, Note_off_c, 14, 61, 0
21, 406844, Note_off_c, 14, 63, 0
21, 406976, Note_on_c, 14, 48, 111
21, 407040, Note_on_c, 14, 52, 119
21, 407041, Note_off_c, 14, 48, 0
21, 407100, Note_off_c, 14, 52, 0
21, 407232, Note_on_c, 14, 54, 111
21, 407296, Note_on_c, 14, 57, 114
21, 407297, Note_off_c, 14, 54, 0
21, 407356, Note_off_c, 14, 57, 0
21, 407488, Note_on_c, 14, 61, 117
21, 407552, Note_on_c, 14, 63, 123
21, 407553, Note_off_c, 14, 61, 0
21, 407612, Note_off_c, 14, 63, 0
21, 407744, Note_on_c, 14, 48, 115
21, 407808, Note_on_c, 14, 52, 124
21, 407809, Note_off_c, 14, 48, 0
21, 407868, Note_off_c, 14, 52, 0
21, 408000, Note_on_c, 14, 54, 110
21, 408064, Note_on_c, 14, 57, 111
21, 408065, Note_off_c, 14, 54, 0
21, 408124, Note_off_c, 14, 57, 0
21, 408256, Note_on_c, 14, 61, 116
21, 408320, Note_on_c, 14, 63, 120
21, 408321, Note_off_c, 14, 61, 0
21, 408380, Note_off_c, 14, 63, 0
21, 408512, Note_on_c, 14, 48, 122
21, 408576, Note_on_c, 14, 52, 122
21, 408577, Note_off_c, 14, 48, 0
21, 408636, Note_off_c, 14, 52, 0
21, 408768, Note_on_c, 14, 54, 114
21, 408832, Note_on_c, 14, 57, 117
21, 408833, Note_off_c, 14, 54, 0
21, 408892, Note_off_c, 14, 57, 0
21, 409024, Note_on_c, 14, 61, 111
21, 409088, Note_on_c, 14, 63, 116
21, 409089, Note_off_c, 14, 61, 0
21, 409148, Note_off_c, 14, 63, 0
21, 409280, Note_on_c, 14, 48, 114
21, 409344, Note_on_c, 14, 52, 116
21, 409345, Note_off_c, 14, 48, 0
21, 409404, Note_off_c, 14, 52, 0
21, 409536, Note_on_c, 14, 54, 112
21, 409600, Note_on_c, 14, 57, 110
21, 409601, Note_off_c, 14, 54, 0
21, 409660, Note_off_c, 14, 57, 0
21, 409792, Note_on_c, 14, 61, 117
21, 409856, Note_on_c, 14, 63, 122
21, 409857, Note_off_c, 14, 61, 0
21, 409916, Note_off_c, 14, 63, 0
21, 410048, Note_on_c, 14, 52, 112
21, 410112, Note_on_c, 14, 54, 114
21, 410113, Note_off_c, 14, 52, 0
21, 410172, Note_off_c, 14, 54, 0
21, 410304, Note_on_c, 14, 57, 119
21, 410368, Note_on_c, 14, 61, 127
21, 410369, Note_off_c, 14, 57, 0
21, 410428, Note_off_c, 14, 61, 0
21, 410560, Note_on_c, 14, 65, 114
21, 410624, Note_on_c, 14, 68, 122
21, 410625, Note_off_c, 14, 65, 0
21, 410684, Note_off_c, 14, 68, 0
21, 411008, Note_on_c, 14, 53, 115
21, 411072, Note_off_c, 14, 53, 0
21, 411136, Note_on_c, 14, 58, 127
21, 411200, Note_off_c, 14, 58, 0
21, 411264, Note_on_c, 14, 59, 127
21, 411328, Note_off_c, 14, 59, 0
21, 411392, Note_on_c, 14, 62, 127
21, 411456, Note_off_c, 14, 62, 0
21, 411520, Note_on_c, 14, 65, 127
21, 411584, Note_off_c, 14, 65, 0
21, 411648, Note_on_c, 14, 68, 127
21, 411712, Note_off_c, 14, 68, 0
21, 411776, Note_on_c, 14, 71, 127
21, 411840, Note_off_c, 14, 71, 0
21, 411904, Note_on_c, 14, 53, 114
21, 411968, Note_off_c, 14, 53, 0
21, 412032, Note_on_c, 14, 58, 127
21, 412096, Note_off_c, 14, 58, 0
21, 412160, Note_on_c, 14, 59, 126
21, 412224, Note_off_c, 14, 59, 0
21, 412288, Note_on_c, 14, 62, 127
21, 412352, Note_off_c, 14, 62, 0
21, 412416, Note_on_c, 14, 65, 127
21, 412480, Note_off_c, 14, 65, 0
21, 412544, Note_on_c, 14, 68, 127
21, 412608, Note_off_c, 14, 68, 0
21, 412672, Note_on_c, 14, 71, 127
21, 412736, Note_off_c, 14, 71, 0
21, 412928, Note_on_c, 14, 58, 111
21, 412928, Note_on_c, 14, 53, 116
21, 412992, Note_off_c, 14, 58, 0
21, 412992, Note_off_c, 14, 53, 0
21, 413056, Note_on_c, 14, 59, 127
21, 413056, Note_on_c, 14, 56, 127
21, 413120, Note_off_c, 14, 59, 0
21, 413120, Note_off_c, 14, 56, 0
21, 413184, Note_on_c, 14, 62, 127
21, 413184, Note_on_c, 14, 58, 127
21, 413248, Note_off_c, 14, 62, 0
21, 413248, Note_off_c, 14, 58, 0
21, 413312, Note_on_c, 14, 65, 127
21, 413312, Note_on_c, 14, 61, 127
21, 413376, Note_off_c, 14, 65, 0
21, 413376, Note_off_c, 14, 61, 0
21, 413440, Note_on_c, 14, 68, 127
21, 413440, Note_on_c, 14, 65, 127
21, 413504, Note_off_c, 14, 68, 0
21, 413504, Note_off_c, 14, 65, 0
21, 413568, Note_on_c, 14, 71, 127
21, 413568, Note_on_c, 14, 68, 127
21, 413632, Note_off_c, 14, 71, 0
21, 413632, Note_off_c, 14, 68, 0
21, 413824, Note_on_c, 14, 58, 122
21, 413824, Note_on_c, 14, 53, 116
21, 413888, Note_off_c, 14, 58, 0
21, 413888, Note_off_c, 14, 53, 0
21, 413952, Note_on_c, 14, 59, 126
21, 413952, Note_on_c, 14, 56, 127
21, 414016, Note_off_c, 14, 59, 0
21, 414016, Note_off_c, 14, 56, 0
21, 414080, Note_on_c, 14, 62, 127
21, 414080, Note_on_c, 14, 58, 127
21, 414144, Note_off_c, 14, 62, 0
21, 414144, Note_off_c, 14, 58, 0
21, 414208, Note_on_c, 14, 65, 127
21, 414208, Note_on_c, 14, 61, 127
21, 414272, Note_off_c, 14, 65, 0
21, 414272, Note_off_c, 14, 61, 0
21, 414336, Note_on_c, 14, 70, 127
21, 414336, Note_on_c, 14, 65, 127
21, 414400, Note_off_c, 14, 70, 0
21, 414400, Note_off_c, 14, 65, 0
21, 414464, Note_on_c, 14, 71, 127
21, 414464, Note_on_c, 14, 68, 127
21, 414528, Note_off_c, 14, 71, 0
21, 414528, Note_off_c, 14, 68, 0
21, 414720, Note_on_c, 14, 57, 114
21, 414720, Note_on_c, 14, 54, 117
21, 414784, Note_off_c, 14, 57, 0
21, 414784, Note_off_c, 14, 54, 0
21, 414848, Note_on_c, 14, 61, 127
21, 414848, Note_on_c, 14, 57, 127
21, 414912, Note_off_c, 14, 61, 0
21, 414912, Note_off_c, 14, 57, 0
21, 414976, Note_on_c, 14, 63, 127
21, 414976, Note_on_c, 14, 58, 127
21, 415040, Note_off_c, 14, 63, 0
21, 415040, Note_off_c, 14, 58, 0
21, 415104, Note_on_c, 14, 68, 127
21, 415104, Note_on_c, 14, 61, 127
21, 415168, Note_off_c, 14, 68, 0
21, 415168, Note_off_c, 14, 61, 0
21, 415232, Note_on_c, 14, 69, 127
21, 415232, Note_on_c, 14, 63, 127
21, 415296, Note_off_c, 14, 69, 0
21, 415296, Note_off_c, 14, 63, 0
21, 415360, Note_on_c, 14, 70, 127
21, 415360, Note_on_c, 14, 68, 127
21, 415424, Note_off_c, 14, 70, 0
21, 415424, Note_off_c, 14, 68, 0
21, 415488, Note_on_c, 14, 49, 114
21, 415552, Note_off_c, 14, 49, 0
21, 415616, Note_on_c, 14, 52, 127
21, 415680, Note_off_c, 14, 52, 0
21, 415744, Note_on_c, 14, 61, 112
21, 415744, Note_on_c, 14, 57, 127
21, 415808, Note_off_c, 14, 61, 0
21, 415808, Note_off_c, 14, 57, 0
21, 415872, Note_on_c, 14, 63, 127
21, 415872, Note_on_c, 14, 58, 127
21, 415936, Note_off_c, 14, 63, 0
21, 415936, Note_off_c, 14, 58, 0
21, 416000, Note_on_c, 14, 68, 127
21, 416000, Note_on_c, 14, 61, 127
21, 416064, Note_off_c, 14, 68, 0
21, 416064, Note_off_c, 14, 61, 0
21, 416128, Note_on_c, 14, 69, 127
21, 416128, Note_on_c, 14, 64, 127
21, 416192, Note_off_c, 14, 69, 0
21, 416192, Note_off_c, 14, 64, 0
21, 416256, Note_on_c, 14, 73, 127
21, 416256, Note_on_c, 14, 71, 127
21, 416320, Note_off_c, 14, 73, 0
21, 416320, Note_off_c, 14, 71, 0
21, 416384, Note_on_c, 14, 49, 115
21, 416448, Note_off_c, 14, 49, 0
21, 416512, Note_on_c, 14, 57, 118
21, 416512, Note_on_c, 14, 52, 127
21, 416576, Note_off_c, 14, 57, 0
21, 416576, Note_off_c, 14, 52, 0
21, 416640, Note_on_c, 14, 61, 127
21, 416640, Note_on_c, 14, 57, 127
21, 416704, Note_off_c, 14, 61, 0
21, 416704, Note_off_c, 14, 57, 0
21, 416768, Note_on_c, 14, 63, 127
21, 416768, Note_on_c, 14, 61, 127
21, 416832, Note_off_c, 14, 63, 0
21, 416832, Note_off_c, 14, 61, 0
21, 416896, Note_on_c, 14, 68, 127
21, 416896, Note_on_c, 14, 63, 127
21, 416960, Note_off_c, 14, 68, 0
21, 416960, Note_off_c, 14, 63, 0
21, 417024, Note_on_c, 14, 69, 127
21, 417024, Note_on_c, 14, 64, 127
21, 417088, Note_off_c, 14, 69, 0
21, 417088, Note_off_c, 14, 64, 0
21, 417152, Note_on_c, 14, 73, 127
21, 417152, Note_on_c, 14, 69, 127
21, 417216, Note_off_c, 14, 73, 0
21, 417216, Note_off_c, 14, 69, 0
21, 417280, Note_on_c, 14, 49, 113
21, 417344, Note_off_c, 14, 49, 0
21, 417408, Note_on_c, 14, 52, 120
21, 417472, Note_off_c, 14, 52, 0
21, 417536, Note_on_c, 14, 61, 113
21, 417536, Note_on_c, 14, 57, 127
21, 417600, Note_off_c, 14, 61, 0
21, 417600, Note_off_c, 14, 57, 0
21, 417664, Note_on_c, 14, 69, 127
21, 417664, Note_on_c, 14, 63, 127
21, 417728, Note_off_c, 14, 69, 0
21, 417728, Note_off_c, 14, 63, 0
21, 417792, Note_on_c, 14, 73, 127
21, 417792, Note_on_c, 14, 71, 127
21, 417856, Note_off_c, 14, 73, 0
21, 417856, Note_off_c, 14, 71, 0
21, 417920, Note_on_c, 14, 51, 114
21, 417984, Note_off_c, 14, 51, 0
21, 418048, Note_on_c, 14, 57, 120
21, 418048, Note_on_c, 14, 61, 114
21, 418048, Note_on_c, 14, 57, 127
21, 418112, Note_off_c, 14, 61, 0
21, 418112, Note_off_c, 14, 57, 0
21, 418133, Note_off_c, 14, 57, 0
21, 418133, Note_on_c, 14, 61, 127
21, 418176, Note_on_c, 14, 64, 127
21, 418176, Note_on_c, 14, 61, 127
21, 418218, Note_off_c, 14, 61, 0
21, 418218, Note_on_c, 14, 58, 126
21, 418240, Note_off_c, 14, 64, 0
21, 418240, Note_off_c, 14, 61, 0
21, 418304, Note_off_c, 14, 58, 0
21, 418304, Note_on_c, 14, 64, 127
21, 418304, Note_on_c, 14, 69, 127
21, 418304, Note_on_c, 14, 63, 127
21, 418368, Note_off_c, 14, 69, 0
21, 418368, Note_off_c, 14, 63, 0
21, 418389, Note_off_c, 14, 64, 0
21, 418389, Note_on_c, 14, 69, 127
21, 418432, Note_on_c, 14, 72, 127
21, 418432, Note_on_c, 14, 69, 127
21, 418474, Note_off_c, 14, 69, 0
21, 418474, Note_on_c, 14, 70, 127
21, 418496, Note_off_c, 14, 72, 0
21, 418496, Note_off_c, 14, 69, 0
21, 418560, Note_off_c, 14, 70, 0
21, 418560, Note_on_c, 14, 73, 127
21, 418560, Note_on_c, 14, 73, 127
21, 418560, Note_on_c, 14, 69, 127
21, 418624, Note_off_c, 14, 73, 0
21, 418624, Note_off_c, 14, 69, 0
21, 418645, Note_off_c, 14, 73, 0
21, 418645, Note_on_c, 14, 75, 127
21, 418688, Note_on_c, 14, 76, 127
21, 418688, Note_on_c, 14, 73, 127
21, 418730, Note_off_c, 14, 75, 0
21, 418730, Note_on_c, 14, 64, 95
21, 418752, Note_off_c, 14, 76, 0
21, 418752, Note_off_c, 14, 73, 0
21, 418816, Note_off_c, 14, 64, 0
21, 418816, Note_on_c, 14, 69, 127
21, 418816, Note_on_c, 14, 57, 112
21, 418816, Note_on_c, 14, 51, 118
21, 418880, Note_off_c, 14, 57, 0
21, 418880, Note_off_c, 14, 51, 0
21, 418901, Note_off_c, 14, 69, 0
21, 418901, Note_on_c, 14, 70, 127
21, 418944, Note_on_c, 14, 61, 127
21, 418944, Note_on_c, 14, 57, 127
21, 418986, Note_off_c, 14, 70, 0
21, 418986, Note_on_c, 14, 73, 127
21, 419008, Note_off_c, 14, 61, 0
21, 419008, Note_off_c, 14, 57, 0
21, 419072, Note_off_c, 14, 73, 0
21, 419072, Note_on_c, 14, 75, 127
21, 419072, Note_on_c, 14, 64, 127
21, 419072, Note_on_c, 14, 61, 127
21, 419136, Note_off_c, 14, 64, 0
21, 419136, Note_off_c, 14, 61, 0
21, 419157, Note_off_c, 14, 75, 0
21, 419157, Note_on_c, 14, 78, 127
21, 419200, Note_on_c, 14, 69, 127
21, 419242, Note_off_c, 14, 78, 0
21, 419242, Note_on_c, 14, 69, 127
21, 419242, Note_on_c, 14, 81, 127
21, 419264, Note_off_c, 14, 69, 0
21, 419328, Note_off_c, 14, 69, 0
21, 419328, Note_off_c, 14, 81, 0
21, 419328, Note_on_c, 14, 72, 127
21, 419328, Note_on_c, 14, 84, 127
21, 419328, Note_on_c, 14, 73, 127
21, 419392, Note_off_c, 14, 73, 0
21, 419413, Note_off_c, 14, 72, 0
21, 419413, Note_off_c, 14, 84, 0
21, 419413, Note_on_c, 14, 75, 127
21, 419413, Note_on_c, 14, 87, 127
21, 419456, Note_on_c, 14, 73, 127
21, 419456, Note_on_c, 14, 69, 109
21, 419498, Note_off_c, 14, 75, 0
21, 419498, Note_off_c, 14, 87, 0
21, 419498, Note_on_c, 14, 69, 106
21, 419498, Note_on_c, 14, 81, 106
21, 419520, Note_off_c, 14, 73, 0
21, 419520, Note_off_c, 14, 69, 0
21, 419584, Note_off_c, 14, 69, 0
21, 419584, Note_off_c, 14, 81, 0
21, 419584, Note_on_c, 14, 72, 127
21, 419584, Note_on_c, 14, 84, 127
21, 419584, Note_on_c, 14, 76, 127
21, 419584, Note_on_c, 14, 72, 127
21, 419648, Note_off_c, 14, 76, 0
21, 419648, Note_off_c, 14, 72, 0
21, 419669, Note_off_c, 14, 72, 0
21, 419669, Note_off_c, 14, 84, 0
21, 419669, Note_on_c, 14, 75, 127
21, 419669, Note_on_c, 14, 87, 127
21, 419712, Note_on_c, 14, 60, 91
21, 419712, Note_on_c, 14, 55, 110
21, 419754, Note_off_c, 14, 75, 0
21, 419754, Note_off_c, 14, 87, 0
21, 419754, Note_on_c, 14, 78, 127
21, 419754, Note_on_c, 14, 90, 127
21, 419776, Note_off_c, 14, 60, 0
21, 419776, Note_off_c, 14, 55, 0
21, 419840, Note_off_c, 14, 78, 0
21, 419840, Note_off_c, 14, 90, 0
21, 419840, Note_on_c, 14, 69, 101
21, 419840, Note_on_c, 14, 81, 101
21, 419840, Note_on_c, 14, 64, 127
21, 419840, Note_on_c, 14, 61, 127
21, 419904, Note_off_c, 14, 64, 0
21, 419904, Note_off_c, 14, 61, 0
21, 419925, Note_off_c, 14, 69, 0
21, 419925, Note_off_c, 14, 81, 0
21, 419925, Note_on_c, 14, 75, 127
21, 419925, Note_on_c, 14, 87, 127
21, 419968, Note_on_c, 14, 64, 127
21, 419968, Note_on_c, 14, 61, 127
21, 420010, Note_off_c, 14, 75, 0
21, 420010, Note_off_c, 14, 87, 0
21, 420010, Note_on_c, 14, 78, 127
21, 420010, Note_on_c, 14, 90, 127
21, 420032, Note_off_c, 14, 64, 0
21, 420032, Note_off_c, 14, 61, 0
21, 420096, Note_off_c, 14, 78, 0
21, 420096, Note_off_c, 14, 90, 0
21, 420096, Note_on_c, 14, 66, 127
21, 420096, Note_on_c, 14, 64, 127
21, 420160, Note_off_c, 14, 66, 0
21, 420160, Note_off_c, 14, 64, 0
21, 420224, Note_on_c, 14, 75, 127
21, 420224, Note_on_c, 14, 69, 127
21, 420266, Note_on_c, 14, 57, 116
21, 420288, Note_off_c, 14, 75, 0
21, 420288, Note_off_c, 14, 69, 0
21, 420352, Note_off_c, 14, 57, 0
21, 420352, Note_on_c, 14, 63, 127
21, 420352, Note_on_c, 14, 76, 127
21, 420352, Note_on_c, 14, 73, 127
21, 420416, Note_off_c, 14, 76, 0
21, 420416, Note_off_c, 14, 73, 0
21, 420437, Note_off_c, 14, 63, 0
21, 420437, Note_on_c, 14, 66, 127
21, 420480, Note_on_c, 14, 57, 114
21, 420480, Note_on_c, 14, 54, 110
21, 420522, Note_off_c, 14, 66, 0
21, 420522, Note_on_c, 14, 69, 127
21, 420544, Note_off_c, 14, 57, 0
21, 420544, Note_off_c, 14, 54, 0
21, 420608, Note_off_c, 14, 69, 0
21, 420608, Note_on_c, 14, 61, 106
21, 420608, Note_on_c, 14, 64, 127
21, 420608, Note_on_c, 14, 63, 127
21, 420672, Note_off_c, 14, 64, 0
21, 420672, Note_off_c, 14, 63, 0
21, 420693, Note_off_c, 14, 61, 0
21, 420693, Note_on_c, 14, 69, 127
21, 420736, Note_on_c, 14, 64, 127
21, 420778, Note_off_c, 14, 69, 0
21, 420778, Note_on_c, 14, 72, 127
21, 420800, Note_off_c, 14, 64, 0
21, 420864, Note_off_c, 14, 72, 0
21, 420864, Note_on_c, 14, 63, 127
21, 420864, Note_on_c, 14, 75, 127
21, 420864, Note_on_c, 14, 66, 127
21, 420864, Note_on_c, 14, 64, 115
21, 420928, Note_off_c, 14, 66, 0
21, 420928, Note_off_c, 14, 64, 0
21, 420949, Note_off_c, 14, 63, 0
21, 420949, Note_off_c, 14, 75, 0
21, 420949, Note_on_c, 14, 66, 102
21, 420992, Note_on_c, 14, 73, 127
21, 420992, Note_on_c, 14, 69, 127
21, 421034, Note_off_c, 14, 66, 0
21, 421034, Note_on_c, 14, 64, 127
21, 421034, Note_on_c, 14, 76, 127
21, 421056, Note_off_c, 14, 73, 0
21, 421056, Note_off_c, 14, 69, 0
21, 421120, Note_off_c, 14, 64, 0
21, 421120, Note_off_c, 14, 76, 0
21, 421120, Note_on_c, 14, 67, 127
21, 421120, Note_on_c, 14, 79, 127
21, 421120, Note_on_c, 14, 76, 127
21, 421120, Note_on_c, 14, 73, 127
21, 421184, Note_off_c, 14, 76, 0
21, 421184, Note_off_c, 14, 73, 0
21, 421205, Note_off_c, 14, 67, 0
21, 421205, Note_off_c, 14, 79, 0
21, 421205, Note_on_c, 14, 70, 97
21, 421248, Note_on_c, 14, 78, 127
21, 421248, Note_on_c, 14, 76, 127
21, 421290, Note_off_c, 14, 70, 0
21, 421290, Note_on_c, 14, 81, 127
21, 421312, Note_off_c, 14, 78, 0
21, 421312, Note_off_c, 14, 76, 0
21, 421376, Note_off_c, 14, 81, 0
21, 421376, Note_on_c, 14, 81, 127
21, 421461, Note_off_c, 14, 81, 0
21, 421461, Note_on_c, 14, 72, 127
21, 421461, Note_on_c, 14, 84, 127
21, 421504, Note_on_c, 14, 57, 115
21, 421504, Note_on_c, 14, 54, 118
21, 421546, Note_off_c, 14, 72, 0
21, 421546, Note_off_c, 14, 84, 0
21, 421546, Note_on_c, 14, 73, 127
21, 421546, Note_on_c, 14, 85, 127
21, 421568, Note_off_c, 14, 57, 0
21, 421568, Note_off_c, 14, 54, 0
21, 421632, Note_off_c, 14, 73, 0
21, 421632, Note_off_c, 14, 85, 0
21, 421632, Note_on_c, 14, 76, 100
21, 421632, Note_on_c, 14, 64, 127
21, 421632, Note_on_c, 14, 61, 127
21, 421696, Note_off_c, 14, 64, 0
21, 421696, Note_off_c, 14, 61, 0
21, 421717, Note_off_c, 14, 76, 0
21, 421717, Note_on_c, 14, 73, 127
21, 421717, Note_on_c, 14, 85, 127
21, 421760, Note_on_c, 14, 66, 127
21, 421760, Note_on_c, 14, 64, 127
21, 421802, Note_off_c, 14, 73, 0
21, 421802, Note_off_c, 14, 85, 0
21, 421802, Note_on_c, 14, 78, 105
21, 421824, Note_off_c, 14, 66, 0
21, 421824, Note_off_c, 14, 64, 0
21, 421888, Note_off_c, 14, 78, 0
21, 421888, Note_on_c, 14, 75, 127
21, 421888, Note_on_c, 14, 87, 127
21, 421888, Note_on_c, 14, 69, 127
21, 421888, Note_on_c, 14, 66, 127
21, 421952, Note_off_c, 14, 69, 0
21, 421952, Note_off_c, 14, 66, 0
21, 421973, Note_off_c, 14, 75, 0
21, 421973, Note_off_c, 14, 87, 0
21, 421973, Note_on_c, 14, 76, 127
21, 421973, Note_on_c, 14, 88, 127
21, 422016, Note_on_c, 14, 76, 127
21, 422016, Note_on_c, 14, 70, 127
21, 422058, Note_off_c, 14, 76, 0
21, 422058, Note_off_c, 14, 88, 0
21, 422058, Note_on_c, 14, 79, 104
21, 422080, Note_off_c, 14, 76, 0
21, 422080, Note_off_c, 14, 70, 0
21, 422144, Note_off_c, 14, 79, 0
21, 422144, Note_on_c, 14, 76, 127
21, 422144, Note_on_c, 14, 88, 127
21, 422144, Note_on_c, 14, 78, 127
21, 422144, Note_on_c, 14, 76, 127
21, 422208, Note_off_c, 14, 78, 0
21, 422208, Note_off_c, 14, 76, 0
21, 422229, Note_off_c, 14, 76, 0
21, 422229, Note_off_c, 14, 88, 0
21, 422229, Note_on_c, 14, 78, 127
21, 422229, Note_on_c, 14, 90, 127
21, 422272, Note_on_c, 14, 78, 126
21, 422272, Note_on_c, 14, 76, 127
21, 422314, Note_off_c, 14, 78, 0
21, 422314, Note_off_c, 14, 90, 0
21, 422336, Note_off_c, 14, 78, 0
21, 422336, Note_off_c, 14, 76, 0
21, 422400, Note_on_c, 14, 69, 111
21, 422400, Note_on_c, 14, 57, 110
21, 422400, Note_on_c, 14, 54, 109
21, 422464, Note_off_c, 14, 57, 0
21, 422464, Note_off_c, 14, 54, 0
21, 422485, Note_off_c, 14, 69, 0
21, 422485, Note_on_c, 14, 72, 127
21, 422528, Note_on_c, 14, 64, 127
21, 422528, Note_on_c, 14, 61, 127
21, 422570, Note_off_c, 14, 72, 0
21, 422570, Note_on_c, 14, 73, 127
21, 422592, Note_off_c, 14, 64, 0
21, 422592, Note_off_c, 14, 61, 0
21, 422656, Note_off_c, 14, 73, 0
21, 422656, Note_on_c, 14, 76, 127
21, 422656, Note_on_c, 14, 67, 127
21, 422656, Note_on_c, 14, 66, 127
21, 422720, Note_off_c, 14, 67, 0
21, 422720, Note_off_c, 14, 66, 0
21, 422741, Note_off_c, 14, 76, 0
21, 422741, Note_on_c, 14, 79, 127
21, 422784, Note_on_c, 14, 73, 127
21, 422784, Note_on_c, 14, 71, 127
21, 422826, Note_off_c, 14, 79, 0
21, 422826, Note_on_c, 14, 83, 127
21, 422848, Note_off_c, 14, 73, 0
21, 422848, Note_off_c, 14, 71, 0
21, 422912, Note_off_c, 14, 83, 0
21, 422912, Note_on_c, 14, 83, 127
21, 422912, Note_on_c, 14, 76, 127
21, 422976, Note_off_c, 14, 83, 0
21, 422976, Note_off_c, 14, 76, 0
21, 422997, Note_on_c, 14, 83, 112
21, 423040, Note_on_c, 14, 60, 97
21, 423082, Note_off_c, 14, 83, 0
21, 423082, Note_on_c, 14, 84, 127
21, 423104, Note_off_c, 14, 60, 0
21, 423168, Note_off_c, 14, 84, 0
21, 423168, Note_on_c, 14, 76, 102
21, 423168, Note_on_c, 14, 72, 114
21, 423168, Note_on_c, 14, 66, 127
21, 423232, Note_off_c, 14, 72, 0
21, 423232, Note_off_c, 14, 66, 0
21, 423253, Note_off_c, 14, 76, 0
21, 423253, Note_on_c, 14, 73, 127
21, 423253, Note_on_c, 14, 85, 127
21, 423296, Note_on_c, 14, 76, 127
21, 423296, Note_on_c, 14, 72, 127
21, 423338, Note_off_c, 14, 73, 0
21, 423338, Note_off_c, 14, 85, 0
21, 423338, Note_on_c, 14, 76, 127
21, 423338, Note_on_c, 14, 88, 127
21, 423360, Note_off_c, 14, 76, 0
21, 423360, Note_off_c, 14, 72, 0
21, 423424, Note_off_c, 14, 76, 0
21, 423424, Note_off_c, 14, 88, 0
21, 423424, Note_on_c, 14, 78, 100
21, 423424, Note_on_c, 14, 78, 127
21, 423424, Note_on_c, 14, 73, 127
21, 423488, Note_off_c, 14, 78, 0
21, 423488, Note_off_c, 14, 73, 0
21, 423509, Note_off_c, 14, 78, 0
21, 423509, Note_on_c, 14, 75, 127
21, 423509, Note_on_c, 14, 87, 127
21, 423552, Note_on_c, 14, 84, 127
21, 423552, Note_on_c, 14, 78, 127
21, 423594, Note_off_c, 14, 75, 0
21, 423594, Note_off_c, 14, 87, 0
21, 423594, Note_on_c, 14, 78, 127
21, 423594, Note_on_c, 14, 90, 127
21, 423616, Note_off_c, 14, 84, 0
21, 423616, Note_off_c, 14, 78, 0
21, 423680, Note_off_c, 14, 78, 0
21, 423680, Note_off_c, 14, 90, 0
21, 423680, Note_on_c, 14, 79, 100
21, 423680, Note_on_c, 14, 88, 127
21, 423680, Note_on_c, 14, 84, 127
21, 423744, Note_off_c, 14, 88, 0
21, 423744, Note_off_c, 14, 84, 0
21, 423765, Note_off_c, 14, 79, 0
21, 423765, Note_on_c, 14, 78, 127
21, 423765, Note_on_c, 14, 90, 127
21, 423808, Note_on_c, 14, 88, 127
21, 423808, Note_on_c, 14, 84, 127
21, 423850, Note_off_c, 14, 78, 0
21, 423850, Note_off_c, 14, 90, 0
21, 423850, Note_on_c, 14, 81, 127
21, 423850, Note_on_c, 14, 93, 127
21, 423872, Note_off_c, 14, 88, 0
21, 423872, Note_off_c, 14, 84, 0
21, 423936, Note_off_c, 14, 81, 0
21, 423936, Note_off_c, 14, 93, 0
21, 423936, Note_on_c, 14, 83, 127
21, 423936, Note_on_c, 14, 95, 127
21, 423936, Note_on_c, 14, 60, 91
21, 424000, Note_off_c, 14, 60, 0
21, 424021, Note_off_c, 14, 83, 0
21, 424021, Note_off_c, 14, 95, 0
21, 424064, Note_on_c, 14, 72, 113
21, 424064, Note_on_c, 14, 66, 127
21, 424128, Note_off_c, 14, 72, 0
21, 424128, Note_off_c, 14, 66, 0
21, 424192, Note_on_c, 14, 64, 110
21, 424192, Note_on_c, 14, 76, 127
21, 424192, Note_on_c, 14, 72, 127
21, 424256, Note_off_c, 14, 76, 0
21, 424256, Note_off_c, 14, 72, 0
21, 424277, Note_off_c, 14, 64, 0
21, 424277, Note_on_c, 14, 69, 127
21, 424277, Note_on_c, 14, 71, 127
21, 424320, Note_on_c, 14, 83, 127
21, 424320, Note_on_c, 14, 76, 127
21, 424362, Note_off_c, 14, 69, 0
21, 424362, Note_off_c, 14, 71, 0
21, 424362, Note_on_c, 14, 72, 127
21, 424384, Note_off_c, 14, 83, 0
21, 424384, Note_off_c, 14, 76, 0
21, 424448, Note_off_c, 14, 72, 0
21, 424448, Note_on_c, 14, 76, 127
21, 424448, Note_on_c, 14, 84, 127
21, 424448, Note_on_c, 14, 78, 127
21, 424512, Note_off_c, 14, 84, 0
21, 424512, Note_off_c, 14, 78, 0
21, 424533, Note_off_c, 14, 76, 0
21, 424533, Note_on_c, 14, 78, 127
21, 424576, Note_on_c, 14, 83, 127
21, 424576, Note_on_c, 14, 76, 127
21, 424618, Note_off_c, 14, 78, 0
21, 424618, Note_on_c, 14, 71, 127
21, 424618, Note_on_c, 14, 83, 127
21, 424640, Note_off_c, 14, 83, 0
21, 424640, Note_off_c, 14, 76, 0
21, 424704, Note_off_c, 14, 71, 0
21, 424704, Note_off_c, 14, 83, 0
21, 424704, Note_on_c, 14, 72, 127
21, 424704, Note_on_c, 14, 84, 127
21, 424704, Note_on_c, 14, 88, 127
21, 424704, Note_on_c, 14, 84, 127
21, 424768, Note_off_c, 14, 88, 0
21, 424768, Note_off_c, 14, 84, 0
21, 424789, Note_off_c, 14, 72, 0
21, 424789, Note_off_c, 14, 84, 0
21, 424789, Note_on_c, 14, 78, 113
21, 424832, Note_on_c, 14, 88, 127
21, 424832, Note_on_c, 14, 84, 127
21, 424874, Note_off_c, 14, 78, 0
21, 424874, Note_on_c, 14, 71, 127
21, 424874, Note_on_c, 14, 83, 127
21, 424896, Note_off_c, 14, 88, 0
21, 424896, Note_off_c, 14, 84, 0
21, 424960, Note_off_c, 14, 71, 0
21, 424960, Note_off_c, 14, 83, 0
21, 424960, Note_on_c, 14, 72, 127
21, 424960, Note_on_c, 14, 84, 127
21, 424960, Note_on_c, 14, 88, 127
21, 425024, Note_off_c, 14, 88, 0
21, 425045, Note_off_c, 14, 72, 0
21, 425045, Note_off_c, 14, 84, 0
21, 425045, Note_on_c, 14, 76, 103
21, 425088, Note_on_c, 14, 66, 112
21, 425130, Note_off_c, 14, 76, 0
21, 425130, Note_on_c, 14, 78, 127
21, 425130, Note_on_c, 14, 90, 127
21, 425152, Note_off_c, 14, 66, 0
21, 425216, Note_off_c, 14, 78, 0
21, 425216, Note_off_c, 14, 90, 0
21, 425216, Note_on_c, 14, 81, 104
21, 425216, Note_on_c, 14, 73, 127
21, 425280, Note_off_c, 14, 73, 0
21, 425301, Note_off_c, 14, 81, 0
21, 425301, Note_on_c, 14, 78, 127
21, 425301, Note_on_c, 14, 90, 127
21, 425344, Note_on_c, 14, 79, 127
21, 425386, Note_off_c, 14, 78, 0
21, 425386, Note_off_c, 14, 90, 0
21, 425386, Note_on_c, 14, 83, 127
21, 425386, Note_on_c, 14, 95, 127
21, 425408, Note_off_c, 14, 79, 0
21, 425472, Note_off_c, 14, 83, 0
21, 425472, Note_off_c, 14, 95, 0
21, 425472, Note_on_c, 14, 84, 127
21, 425472, Note_on_c, 14, 96, 127
21, 425472, Note_on_c, 14, 81, 127
21, 425536, Note_off_c, 14, 81, 0
21, 425557, Note_off_c, 14, 84, 0
21, 425557, Note_off_c, 14, 96, 0
21, 425557, Note_on_c, 14, 57, 110
21, 425600, Note_on_c, 14, 85, 127
21, 425642, Note_off_c, 14, 57, 0
21, 425642, Note_on_c, 14, 61, 127
21, 425664, Note_off_c, 14, 85, 0
21, 425728, Note_off_c, 14, 61, 0
21, 425728, Note_on_c, 14, 64, 127
21, 425813, Note_off_c, 14, 64, 0
21, 425813, Note_on_c, 14, 66, 127
21, 425898, Note_off_c, 14, 66, 0
21, 425898, Note_on_c, 14, 69, 127
21, 425984, Note_off_c, 14, 69, 0
21, 425984, Note_on_c, 14, 71, 127
21, 426069, Note_off_c, 14, 71, 0
21, 426069, Note_on_c, 14, 74, 127
21, 426154, Note_off_c, 14, 74, 0
21, 426154, Note_on_c, 14, 76, 127
21, 426240, Note_off_c, 14, 76, 0
21, 426240, Note_on_c, 14, 66, 94
21, 426325, Note_off_c, 14, 66, 0
21, 426325, Note_on_c, 14, 71, 127
21, 426410, Note_off_c, 14, 71, 0
21, 426410, Note_on_c, 14, 74, 127
21, 426496, Note_off_c, 14, 74, 0
21, 426496, Note_on_c, 14, 76, 127
21, 426581, Note_off_c, 14, 76, 0
21, 426581, Note_on_c, 14, 78, 127
21, 426666, Note_off_c, 14, 78, 0
21, 426666, Note_on_c, 14, 81, 127
21, 426752, Note_off_c, 14, 81, 0
21, 426752, Note_on_c, 14, 71, 127
21, 426752, Note_on_c, 14, 83, 127
21, 426837, Note_off_c, 14, 71, 0
21, 426837, Note_off_c, 14, 83, 0
21, 426837, Note_on_c, 14, 71, 124
21, 426837, Note_on_c, 14, 83, 124
21, 426922, Note_off_c, 14, 71, 0
21, 426922, Note_off_c, 14, 83, 0
21, 426922, Note_on_c, 14, 74, 100
21, 427008, Note_off_c, 14, 74, 0
21, 427008, Note_on_c, 14, 78, 127
21, 427093, Note_off_c, 14, 78, 0
21, 427093, Note_on_c, 14, 71, 127
21, 427093, Note_on_c, 14, 83, 127
21, 427178, Note_off_c, 14, 71, 0
21, 427178, Note_off_c, 14, 83, 0
21, 427178, Note_on_c, 14, 72, 127
21, 427178, Note_on_c, 14, 84, 127
21, 427264, Note_off_c, 14, 72, 0
21, 427264, Note_off_c, 14, 84, 0
21, 427264, Note_on_c, 14, 78, 127
21, 427264, Note_on_c, 14, 90, 127
21, 427349, Note_off_c, 14, 78, 0
21, 427349, Note_off_c, 14, 90, 0
21, 427349, Note_on_c, 14, 62, 98
21, 427434, Note_off_c, 14, 62, 0
21, 427434, Note_on_c, 14, 90, 127
21, 427520, Note_off_c, 14, 90, 0
21, 427520, Note_on_c, 14, 78, 127
21, 427520, Note_on_c, 14, 90, 127
21, 427605, Note_off_c, 14, 78, 0
21, 427605, Note_off_c, 14, 90, 0
21, 427605, Note_on_c, 14, 71, 92
21, 427690, Note_off_c, 14, 71, 0
21, 427690, Note_on_c, 14, 81, 127
21, 427690, Note_on_c, 14, 93, 127
21, 427776, Note_off_c, 14, 81, 0
21, 427776, Note_off_c, 14, 93, 0
21, 427776, Note_on_c, 14, 83, 127
21, 427776, Note_on_c, 14, 95, 127
21, 427861, Note_off_c, 14, 83, 0
21, 427861, Note_off_c, 14, 95, 0
21, 427861, Note_on_c, 14, 73, 96
21, 427946, Note_off_c, 14, 73, 0
21, 427946, Note_on_c, 14, 83, 127
21, 427946, Note_on_c, 14, 95, 127
21, 428032, Note_off_c, 14, 83, 0
21, 428032, Note_off_c, 14, 95, 0
21, 428032, Note_on_c, 14, 84, 127
21, 428032, Note_on_c, 14, 96, 127
21, 428117, Note_off_c, 14, 84, 0
21, 428117, Note_off_c, 14, 96, 0
21, 428117, Note_on_c, 14, 78, 96
21, 428202, Note_off_c, 14, 78, 0
21, 428202, Note_on_c, 14, 84, 127
21, 428202, Note_on_c, 14, 96, 127
21, 428288, Note_off_c, 14, 84, 0
21, 428288, Note_off_c, 14, 96, 0
21, 428544, Note_on_c, 14, 83, 114
21, 428544, Note_on_c, 14, 95, 114
21, 428629, Note_off_c, 14, 83, 0
21, 428629, Note_off_c, 14, 95, 0
21, 428629, Note_on_c, 14, 73, 94
21, 428714, Note_off_c, 14, 73, 0
21, 428714, Note_on_c, 14, 83, 127
21, 428714, Note_on_c, 14, 95, 127
21, 428800, Note_off_c, 14, 83, 0
21, 428800, Note_off_c, 14, 95, 0
21, 428800, Note_on_c, 14, 85, 127
21, 428800, Note_on_c, 14, 97, 127
21, 428885, Note_off_c, 14, 85, 0
21, 428885, Note_off_c, 14, 97, 0
21, 428885, Note_on_c, 14, 73, 99
21, 428970, Note_off_c, 14, 73, 0
21, 429184, Note_on_c, 14, 81, 115
21, 429184, Note_on_c, 14, 86, 115
21, 429184, Note_on_c, 14, 90, 115
21, 429184, Note_on_c, 14, 93, 115
21, 429248, Note_off_c, 14, 81, 0
21, 429248, Note_off_c, 14, 86, 0
21, 429248, Note_off_c, 14, 90, 0
21, 429248, Note_off_c, 14, 93, 0
21, 429312, Note_on_c, 14, 83, 127
21, 429312, Note_on_c, 14, 86, 127
21, 429312, Note_on_c, 14, 90, 127
21, 429312, Note_on_c, 14, 95, 127
21, 429568, Note_off_c, 14, 83, 0
21, 429568, Note_off_c, 14, 86, 0
21, 429568, Note_off_c, 14, 90, 0
21, 429568, Note_off_c, 14, 95, 0
21, 429952, Note_on_c, 14, 81, 115
21, 429952, Note_on_c, 14, 86, 115
21, 429952, Note_on_c, 14, 90, 115
21, 429952, Note_on_c, 14, 93, 115
21, 430016, Note_off_c, 14, 81, 0
21, 430016, Note_off_c, 14, 86, 0
21, 430016, Note_off_c, 14, 90, 0
21, 430016, Note_off_c, 14, 93, 0
21, 430080, Note_on_c, 14, 83, 127
21, 430080, Note_on_c, 14, 86, 127
21, 430080, Note_on_c, 14, 90, 127
21, 430080, Note_on_c, 14, 95, 127
21, 430336, Note_off_c, 14, 83, 0
21, 430336, Note_off_c, 14, 86, 0
21, 430336, Note_off_c, 14, 90, 0
21, 430336, Note_off_c, 14, 95, 0
21, 430464, Note_on_c, 14, 81, 117
21, 430464, Note_on_c, 14, 86, 117
21, 430464, Note_on_c, 14, 90, 117
21, 430464, Note_on_c, 14, 93, 117
21, 430528, Note_off_c, 14, 81, 0
21, 430528, Note_off_c, 14, 86, 0
21, 430528, Note_off_c, 14, 90, 0
21, 430528, Note_off_c, 14, 93, 0
21, 430592, Note_on_c, 14, 83, 127
21, 430592, Note_on_c, 14, 86, 127
21, 430592, Note_on_c, 14, 90, 127
21, 430592, Note_on_c, 14, 95, 127
21, 430848, Note_off_c, 14, 83, 0
21, 430848, Note_off_c, 14, 86, 0
21, 430848, Note_off_c, 14, 90, 0
21, 430848, Note_off_c, 14, 95, 0
21, 431232, Note_on_c, 14, 81, 111
21, 431232, Note_on_c, 14, 86, 111
21, 431232, Note_on_c, 14, 90, 111
21, 431232, Note_on_c, 14, 93, 111
21, 431296, Note_off_c, 14, 81, 0
21, 431296, Note_off_c, 14, 86, 0
21, 431296, Note_off_c, 14, 90, 0
21, 431296, Note_off_c, 14, 93, 0
21, 431360, Note_on_c, 14, 83, 127
21, 431360, Note_on_c, 14, 86, 127
21, 431360, Note_on_c, 14, 90, 127
21, 431360, Note_on_c, 14, 95, 127
21, 431616, Note_off_c, 14, 83, 0
21, 431616, Note_off_c, 14, 86, 0
21, 431616, Note_off_c, 14, 90, 0
21, 431616, Note_off_c, 14, 95, 0
21, 431744, Note_on_c, 14, 81, 112
21, 431744, Note_on_c, 14, 86, 112
21, 431744, Note_on_c, 14, 90, 112
21, 431744, Note_on_c, 14, 93, 112
21, 431808, Note_off_c, 14, 81, 0
21, 431808, Note_off_c, 14, 86, 0
21, 431808, Note_off_c, 14, 90, 0
21, 431808, Note_off_c, 14, 93, 0
21, 431872, Note_on_c, 14, 81, 123
21, 431872, Note_on_c, 14, 86, 123
21, 431872, Note_on_c, 14, 90, 123
21, 431872, Note_on_c, 14, 93, 123
21, 431936, Note_off_c, 14, 81, 0
21, 431936, Note_off_c, 14, 86, 0
21, 431936, Note_off_c, 14, 90, 0
21, 431936, Note_off_c, 14, 93, 0
21, 432000, Note_on_c, 14, 81, 127
21, 432000, Note_on_c, 14, 86, 127
21, 432000, Note_on_c, 14, 90, 127
21, 432000, Note_on_c, 14, 93, 127
21, 432256, Note_off_c, 14, 81, 0
21, 432256, Note_off_c, 14, 86, 0
21, 432256, Note_off_c, 14, 90, 0
21, 432256, Note_off_c, 14, 93, 0
21, 432256, Note_on_c, 14, 81, 127
21, 432256, Note_on_c, 14, 86, 127
21, 432256, Note_on_c, 14, 90, 127
21, 432256, Note_on_c, 14, 93, 127
21, 432512, Note_off_c, 14, 81, 0
21, 432512, Note_off_c, 14, 86, 0
21, 432512, Note_off_c, 14, 90, 0
21, 432512, Note_off_c, 14, 93, 0
21, 432512, Note_on_c, 14, 83, 124
21, 432512, Note_on_c, 14, 86, 124
21, 432512, Note_on_c, 14, 90, 124
21, 432512, Note_on_c, 14, 93, 124
21, 432576, Note_off_c, 14, 83, 0
21, 432576, Note_off_c, 14, 86, 0
21, 432576, Note_off_c, 14, 90, 0
21, 432576, Note_off_c, 14, 93, 0
21, 432640, Note_on_c, 14, 78, 127
21, 432640, Note_on_c, 14, 80, 127
21, 432640, Note_on_c, 14, 85, 127
21, 432640, Note_on_c, 14, 93, 127
21, 432704, Note_off_c, 14, 78, 0
21, 432704, Note_off_c, 14, 80, 0
21, 432704, Note_off_c, 14, 85, 0
21, 432704, Note_off_c, 14, 93, 0
21, 432768, Note_on_c, 14, 78, 127
21, 432768, Note_on_c, 14, 80, 127
21, 432768, Note_on_c, 14, 85, 127
21, 432768, Note_on_c, 14, 93, 127
21, 433024, Note_off_c, 14, 78, 0
21, 433024, Note_off_c, 14, 80, 0
21, 433024, Note_off_c, 14, 85, 0
21, 433024, Note_off_c, 14, 93, 0
21, 433024, Note_on_c, 14, 78, 127
21, 433024, Note_on_c, 14, 80, 127
21, 433024, Note_on_c, 14, 85, 127
21, 433024, Note_on_c, 14, 93, 127
21, 433088, Note_off_c, 14, 78, 0
21, 433088, Note_off_c, 14, 80, 0
21, 433088, Note_off_c, 14, 85, 0
21, 433088, Note_off_c, 14, 93, 0
21, 433152, Note_on_c, 14, 78, 127
21, 433152, Note_on_c, 14, 79, 127
21, 433152, Note_on_c, 14, 84, 127
21, 433152, Note_on_c, 14, 93, 127
21, 433216, Note_off_c, 14, 78, 0
21, 433216, Note_off_c, 14, 79, 0
21, 433216, Note_off_c, 14, 84, 0
21, 433216, Note_off_c, 14, 93, 0
21, 433280, Note_on_c, 14, 78, 127
21, 433280, Note_on_c, 14, 79, 127
21, 433280, Note_on_c, 14, 84, 127
21, 433280, Note_on_c, 14, 93, 127
21, 433536, Note_off_c, 14, 78, 0
21, 433536, Note_off_c, 14, 79, 0
21, 433536, Note_off_c, 14, 84, 0
21, 433536, Note_off_c, 14, 93, 0
21, 433536, Note_on_c, 14, 78, 127
21, 433536, Note_on_c, 14, 79, 127
21, 433536, Note_on_c, 14, 84, 127
21, 433536, Note_on_c, 14, 93, 127
21, 433600, Note_off_c, 14, 78, 0
21, 433600, Note_off_c, 14, 79, 0
21, 433600, Note_off_c, 14, 84, 0
21, 433600, Note_off_c, 14, 93, 0
21, 433664, Note_on_c, 14, 76, 112
21, 433664, Note_on_c, 14, 79, 112
21, 433664, Note_on_c, 14, 81, 112
21, 433664, Note_on_c, 14, 90, 112
21, 433728, Note_off_c, 14, 76, 0
21, 433728, Note_off_c, 14, 79, 0
21, 433728, Note_off_c, 14, 81, 0
21, 433728, Note_off_c, 14, 90, 0
21, 433792, Note_on_c, 14, 76, 127
21, 433792, Note_on_c, 14, 79, 127
21, 433792, Note_on_c, 14, 81, 127
21, 433792, Note_on_c, 14, 90, 127
21, 434048, Note_off_c, 14, 76, 0
21, 434048, Note_off_c, 14, 79, 0
21, 434048, Note_off_c, 14, 81, 0
21, 434048, Note_off_c, 14, 90, 0
21, 434048, Note_on_c, 14, 76, 126
21, 434048, Note_on_c, 14, 79, 126
21, 434048, Note_on_c, 14, 81, 126
21, 434048, Note_on_c, 14, 90, 126
21, 434112, Note_off_c, 14, 76, 0
21, 434112, Note_off_c, 14, 79, 0
21, 434112, Note_off_c, 14, 81, 0
21, 434112, Note_off_c, 14, 90, 0
21, 434176, Note_on_c, 14, 76, 126
21, 434176, Note_on_c, 14, 79, 126
21, 434176, Note_on_c, 14, 81, 126
21, 434176, Note_on_c, 14, 90, 126
21, 434240, Note_off_c, 14, 76, 0
21, 434240, Note_off_c, 14, 79, 0
21, 434240, Note_off_c, 14, 81, 0
21, 434240, Note_off_c, 14, 90, 0
21, 434304, Note_on_c, 14, 73, 127
21, 434304, Note_on_c, 14, 76, 127
21, 434304, Note_on_c, 14, 81, 127
21, 434304, Note_on_c, 14, 90, 127
21, 434560, Note_off_c, 14, 73, 0
21, 434560, Note_off_c, 14, 76, 0
21, 434560, Note_off_c, 14, 81, 0
21, 434560, Note_off_c, 14, 90, 0
21, 434560, Note_on_c, 14, 73, 125
21, 434560, Note_on_c, 14, 76, 125
21, 434560, Note_on_c, 14, 80, 125
21, 434560, Note_on_c, 14, 90, 125
21, 434624, Note_off_c, 14, 73, 0
21, 434624, Note_off_c, 14, 76, 0
21, 434624, Note_off_c, 14, 80, 0
21, 434624, Note_off_c, 14, 90, 0
21, 434688, Note_on_c, 14, 73, 127
21, 434688, Note_on_c, 14, 76, 127
21, 434688, Note_on_c, 14, 81, 127
21, 434688, Note_on_c, 14, 90, 127
21, 434752, Note_off_c, 14, 73, 0
21, 434752, Note_off_c, 14, 76, 0
21, 434752, Note_off_c, 14, 81, 0
21, 434752, Note_off_c, 14, 90, 0
21, 434816, Note_on_c, 14, 73, 127
21, 434816, Note_on_c, 14, 76, 127
21, 434816, Note_on_c, 14, 81, 127
21, 434816, Note_on_c, 14, 90, 127
21, 435072, Note_off_c, 14, 73, 0
21, 435072, Note_off_c, 14, 76, 0
21, 435072, Note_off_c, 14, 81, 0
21, 435072, Note_off_c, 14, 90, 0
21, 435072, Note_on_c, 14, 73, 127
21, 435072, Note_on_c, 14, 76, 127
21, 435072, Note_on_c, 14, 81, 127
21, 435072, Note_on_c, 14, 90, 127
21, 435328, Note_off_c, 14, 73, 0
21, 435328, Note_off_c, 14, 76, 0
21, 435328, Note_off_c, 14, 81, 0
21, 435328, Note_off_c, 14, 90, 0
21, 435328, Note_on_c, 14, 71, 127
21, 435328, Note_on_c, 14, 73, 127
21, 435328, Note_on_c, 14, 81, 127
21, 435328, Note_on_c, 14, 93, 127
21, 435584, Note_off_c, 14, 71, 0
21, 435584, Note_off_c, 14, 73, 0
21, 435584, Note_off_c, 14, 81, 0
21, 435584, Note_off_c, 14, 93, 0
21, 435584, Note_on_c, 14, 71, 126
21, 435584, Note_on_c, 14, 73, 126
21, 435584, Note_on_c, 14, 81, 126
21, 435584, Note_on_c, 14, 93, 126
21, 435648, Note_off_c, 14, 71, 0
21, 435648, Note_off_c, 14, 73, 0
21, 435648, Note_off_c, 14, 81, 0
21, 435648, Note_off_c, 14, 93, 0
21, 435712, Note_on_c, 14, 70, 127
21, 435712, Note_on_c, 14, 78, 127
21, 435712, Note_on_c, 14, 84, 127
21, 435712, Note_on_c, 14, 93, 127
21, 435776, Note_off_c, 14, 70, 0
21, 435776, Note_off_c, 14, 78, 0
21, 435776, Note_off_c, 14, 84, 0
21, 435776, Note_off_c, 14, 93, 0
21, 435840, Note_on_c, 14, 70, 127
21, 435840, Note_on_c, 14, 78, 127
21, 435840, Note_on_c, 14, 84, 127
21, 435840, Note_on_c, 14, 93, 127
21, 436096, Note_off_c, 14, 70, 0
21, 436096, Note_off_c, 14, 78, 0
21, 436096, Note_off_c, 14, 84, 0
21, 436096, Note_off_c, 14, 93, 0
21, 436096, Note_on_c, 14, 70, 127
21, 436096, Note_on_c, 14, 78, 127
21, 436096, Note_on_c, 14, 84, 127
21, 436096, Note_on_c, 14, 93, 127
21, 436352, Note_off_c, 14, 70, 0
21, 436352, Note_off_c, 14, 78, 0
21, 436352, Note_off_c, 14, 84, 0
21, 436352, Note_off_c, 14, 93, 0
21, 436352, Note_on_c, 14, 67, 118
21, 436352, Note_on_c, 14, 72, 118
21, 436352, Note_on_c, 14, 84, 118
21, 436352, Note_on_c, 14, 90, 118
21, 436608, Note_off_c, 14, 67, 0
21, 436608, Note_off_c, 14, 72, 0
21, 436608, Note_off_c, 14, 84, 0
21, 436608, Note_off_c, 14, 90, 0
21, 436608, Note_on_c, 14, 67, 126
21, 436608, Note_on_c, 14, 72, 126
21, 436608, Note_on_c, 14, 84, 126
21, 436608, Note_on_c, 14, 90, 126
21, 436864, Note_off_c, 14, 67, 0
21, 436864, Note_off_c, 14, 72, 0
21, 436864, Note_off_c, 14, 84, 0
21, 436864, Note_off_c, 14, 90, 0
21, 436864, Note_on_c, 14, 64, 106
21, 436864, Note_on_c, 14, 71, 106
21, 436864, Note_on_c, 14, 78, 106
21, 436864, Note_on_c, 14, 84, 106
21, 437120, Note_off_c, 14, 64, 0
21, 437120, Note_off_c, 14, 71, 0
21, 437120, Note_off_c, 14, 78, 0
21, 437120, Note_off_c, 14, 84, 0
21, 437120, Note_on_c, 14, 72, 127
21, 437120, Note_on_c, 14, 86, 127
21, 437120, Note_on_c, 14, 90, 127
21, 437120, Note_on_c, 14, 93, 127
21, 437376, Note_off_c, 14, 72, 0
21, 437376, Note_off_c, 14, 86, 0
21, 437376, Note_off_c, 14, 90, 0
21, 437376, Note_off_c, 14, 93, 0
21, 437376, Note_on_c, 14, 72, 127
21, 437376, Note_on_c, 14, 86, 127
21, 437376, Note_on_c, 14, 90, 127
21, 437376, Note_on_c, 14, 93, 127
21, 437632, Note_off_c, 14, 72, 0
21, 437632, Note_off_c, 14, 86, 0
21, 437632, Note_off_c, 14, 90, 0
21, 437632, Note_off_c, 14, 93, 0
21, 437632, Note_on_c, 14, 78, 127
21, 437632, Note_on_c, 14, 83, 127
21, 437632, Note_on_c, 14, 90, 127
21, 437632, Note_on_c, 14, 93, 127
21, 437888, Note_off_c, 14, 78, 0
21, 437888, Note_off_c, 14, 83, 0
21, 437888, Note_off_c, 14, 90, 0
21, 437888, Note_off_c, 14, 93, 0
21, 437888, Note_on_c, 14, 74, 127
21, 437888, Note_on_c, 14, 80, 127
21, 437888, Note_on_c, 14, 90, 127
21, 437888, Note_on_c, 14, 93, 127
21, 437952, Note_off_c, 14, 74, 0
21, 437952, Note_off_c, 14, 80, 0
21, 437952, Note_off_c, 14, 90, 0
21, 437952, Note_off_c, 14, 93, 0
21, 438016, Note_on_c, 14, 74, 127
21, 438016, Note_on_c, 14, 80, 127
21, 438016, Note_on_c, 14, 90, 127
21, 438016, Note_on_c, 14, 93, 127
21, 438080, Note_off_c, 14, 74, 0
21, 438080, Note_off_c, 14, 80, 0
21, 438080, Note_off_c, 14, 90, 0
21, 438080, Note_off_c, 14, 93, 0
21, 438144, Note_on_c, 14, 74, 122
21, 438144, Note_on_c, 14, 80, 122
21, 438144, Note_on_c, 14, 90, 122
21, 438144, Note_on_c, 14, 93, 122
21, 438400, Note_off_c, 14, 74, 0
21, 438400, Note_off_c, 14, 80, 0
21, 438400, Note_off_c, 14, 90, 0
21, 438400, Note_off_c, 14, 93, 0
21, 438400, Note_on_c, 14, 71, 127
21, 438400, Note_on_c, 14, 74, 127
21, 438400, Note_on_c, 14, 90, 127
21, 438400, Note_on_c, 14, 93, 127
21, 438656, Note_off_c, 14, 71, 0
21, 438656, Note_off_c, 14, 74, 0
21, 438656, Note_off_c, 14, 90, 0
21, 438656, Note_off_c, 14, 93, 0
21, 438656, Note_on_c, 14, 71, 127
21, 438656, Note_on_c, 14, 74, 127
21, 438656, Note_on_c, 14, 89, 127
21, 438656, Note_on_c, 14, 93, 127
21, 438720, Note_off_c, 14, 71, 0
21, 438720, Note_off_c, 14, 74, 0
21, 438720, Note_off_c, 14, 89, 0
21, 438720, Note_off_c, 14, 93, 0
21, 438784, Note_on_c, 14, 71, 127
21, 438784, Note_on_c, 14, 74, 127
21, 438784, Note_on_c, 14, 89, 127
21, 438784, Note_on_c, 14, 93, 127
21, 438848, Note_off_c, 14, 71, 0
21, 438848, Note_off_c, 14, 74, 0
21, 438848, Note_off_c, 14, 89, 0
21, 438848, Note_off_c, 14, 93, 0
21, 438912, Note_on_c, 14, 68, 121
21, 438912, Note_on_c, 14, 70, 121
21, 438912, Note_on_c, 14, 86, 121
21, 438912, Note_on_c, 14, 92, 121
21, 439168, Note_off_c, 14, 68, 0
21, 439168, Note_off_c, 14, 70, 0
21, 439168, Note_off_c, 14, 86, 0
21, 439168, Note_off_c, 14, 92, 0
21, 439168, Note_on_c, 14, 68, 126
21, 439168, Note_on_c, 14, 70, 126
21, 439168, Note_on_c, 14, 86, 126
21, 439168, Note_on_c, 14, 92, 126
21, 439424, Note_off_c, 14, 68, 0
21, 439424, Note_off_c, 14, 70, 0
21, 439424, Note_off_c, 14, 86, 0
21, 439424, Note_off_c, 14, 92, 0
21, 439424, Note_on_c, 14, 65, 127
21, 439424, Note_on_c, 14, 72, 127
21, 439424, Note_on_c, 14, 86, 127
21, 439424, Note_on_c, 14, 93, 127
21, 439680, Note_off_c, 14, 65, 0
21, 439680, Note_off_c, 14, 72, 0
21, 439680, Note_off_c, 14, 86, 0
21, 439680, Note_off_c, 14, 93, 0
21, 439680, Note_on_c, 14, 65, 127
21, 439680, Note_on_c, 14, 72, 127
21, 439680, Note_on_c, 14, 86, 127
21, 439680, Note_on_c, 14, 93, 127
21, 439936, Note_off_c, 14, 65, 0
21, 439936, Note_off_c, 14, 72, 0
21, 439936, Note_off_c, 14, 86, 0
21, 439936, Note_off_c, 14, 93, 0
21, 439936, Note_on_c, 14, 67, 127
21, 439936, Note_on_c, 14, 72, 127
21, 439936, Note_on_c, 14, 86, 127
21, 439936, Note_on_c, 14, 93, 127
21, 440192, Note_off_c, 14, 67, 0
21, 440192, Note_off_c, 14, 72, 0
21, 440192, Note_off_c, 14, 86, 0
21, 440192, Note_off_c, 14, 93, 0
21, 440192, Note_on_c, 14, 67, 125
21, 440192, Note_on_c, 14, 72, 125
21, 440192, Note_on_c, 14, 86, 125
21, 440192, Note_on_c, 14, 93, 125
21, 440256, Note_off_c, 14, 67, 0
21, 440256, Note_off_c, 14, 72, 0
21, 440256, Note_off_c, 14, 86, 0
21, 440256, Note_off_c, 14, 93, 0
21, 440320, Note_on_c, 14, 58, 106
21, 440320, Note_on_c, 14, 66, 106
21, 440320, Note_on_c, 14, 80, 106
21, 440320, Note_on_c, 14, 84, 106
21, 440371, Note_off_c, 14, 58, 0
21, 440371, Note_off_c, 14, 66, 0
21, 440371, Note_off_c, 14, 80, 0
21, 440371, Note_off_c, 14, 84, 0
21, 440384, Note_on_c, 14, 58, 106
21, 440384, Note_on_c, 14, 66, 106
21, 440384, Note_on_c, 14, 80, 106
21, 440384, Note_on_c, 14, 84, 106
21, 440435, Note_off_c, 14, 58, 0
21, 440435, Note_off_c, 14, 66, 0
21, 440435, Note_off_c, 14, 80, 0
21, 440435, Note_off_c, 14, 84, 0
21, 440448, Note_on_c, 14, 58, 106
21, 440448, Note_on_c, 14, 66, 106
21, 440448, Note_on_c, 14, 80, 106
21, 440448, Note_on_c, 14, 84, 106
21, 440499, Note_off_c, 14, 58, 0
21, 440499, Note_off_c, 14, 66, 0
21, 440499, Note_off_c, 14, 80, 0
21, 440499, Note_off_c, 14, 84, 0
21, 440512, Note_on_c, 14, 58, 106
21, 440512, Note_on_c, 14, 66, 106
21, 440512, Note_on_c, 14, 80, 106
21, 440512, Note_on_c, 14, 84, 106
21, 440563, Note_off_c, 14, 58, 0
21, 440563, Note_off_c, 14, 66, 0
21, 440563, Note_off_c, 14, 80, 0
21, 440563, Note_off_c, 14, 84, 0
21, 440576, Note_on_c, 14, 63, 127
21, 440576, Note_on_c, 14, 70, 127
21, 440576, Note_on_c, 14, 84, 127
21, 440576, Note_on_c, 14, 93, 127
21, 440627, Note_off_c, 14, 63, 0
21, 440627, Note_off_c, 14, 70, 0
21, 440627, Note_off_c, 14, 84, 0
21, 440627, Note_off_c, 14, 93, 0
21, 440640, Note_on_c, 14, 63, 127
21, 440640, Note_on_c, 14, 70, 127
21, 440640, Note_on_c, 14, 84, 127
21, 440640, Note_on_c, 14, 93, 127
21, 440691, Note_off_c, 14, 63, 0
21, 440691, Note_off_c, 14, 70, 0
21, 440691, Note_off_c, 14, 84, 0
21, 440691, Note_off_c, 14, 93, 0
21, 440704, Note_on_c, 14, 63, 127
21, 440704, Note_on_c, 14, 70, 127
21, 440704, Note_on_c, 14, 84, 127
21, 440704, Note_on_c, 14, 93, 127
21, 440755, Note_off_c, 14, 63, 0
21, 440755, Note_off_c, 14, 70, 0
21, 440755, Note_off_c, 14, 84, 0
21, 440755, Note_off_c, 14, 93, 0
21, 440768, Note_on_c, 14, 63, 127
21, 440768, Note_on_c, 14, 70, 127
21, 440768, Note_on_c, 14, 84, 127
21, 440768, Note_on_c, 14, 93, 127
21, 440819, Note_off_c, 14, 63, 0
21, 440819, Note_off_c, 14, 70, 0
21, 440819, Note_off_c, 14, 84, 0
21, 440819, Note_off_c, 14, 93, 0
21, 440832, Note_on_c, 14, 61, 124
21, 440832, Note_on_c, 14, 69, 124
21, 440832, Note_on_c, 14, 81, 124
21, 440832, Note_on_c, 14, 92, 124
21, 440883, Note_off_c, 14, 61, 0
21, 440883, Note_off_c, 14, 69, 0
21, 440883, Note_off_c, 14, 81, 0
21, 440883, Note_off_c, 14, 92, 0
21, 440896, Note_on_c, 14, 61, 124
21, 440896, Note_on_c, 14, 69, 124
21, 440896, Note_on_c, 14, 81, 124
21, 440896, Note_on_c, 14, 92, 124
21, 440947, Note_off_c, 14, 61, 0
21, 440947, Note_off_c, 14, 69, 0
21, 440947, Note_off_c, 14, 81, 0
21, 440947, Note_off_c, 14, 92, 0
21, 440960, Note_on_c, 14, 61, 124
21, 440960, Note_on_c, 14, 69, 124
21, 440960, Note_on_c, 14, 81, 124
21, 440960, Note_on_c, 14, 92, 124
21, 441011, Note_off_c, 14, 61, 0
21, 441011, Note_off_c, 14, 69, 0
21, 441011, Note_off_c, 14, 81, 0
21, 441011, Note_off_c, 14, 92, 0
21, 441024, Note_on_c, 14, 61, 124
21, 441024, Note_on_c, 14, 69, 124
21, 441024, Note_on_c, 14, 81, 124
21, 441024, Note_on_c, 14, 92, 124
21, 441075, Note_off_c, 14, 61, 0
21, 441075, Note_off_c, 14, 69, 0
21, 441075, Note_off_c, 14, 81, 0
21, 441075, Note_off_c, 14, 92, 0
21, 441088, Note_on_c, 14, 59, 124
21, 441088, Note_on_c, 14, 67, 124
21, 441088, Note_on_c, 14, 81, 124
21, 441088, Note_on_c, 14, 90, 124
21, 441139, Note_off_c, 14, 59, 0
21, 441139, Note_off_c, 14, 67, 0
21, 441139, Note_off_c, 14, 81, 0
21, 441139, Note_off_c, 14, 90, 0
21, 441152, Note_on_c, 14, 59, 124
21, 441152, Note_on_c, 14, 67, 124
21, 441152, Note_on_c, 14, 81, 124
21, 441152, Note_on_c, 14, 90, 124
21, 441203, Note_off_c, 14, 59, 0
21, 441203, Note_off_c, 14, 67, 0
21, 441203, Note_off_c, 14, 81, 0
21, 441203, Note_off_c, 14, 90, 0
21, 441216, Note_on_c, 14, 59, 124
21, 441216, Note_on_c, 14, 67, 124
21, 441216, Note_on_c, 14, 81, 124
21, 441216, Note_on_c, 14, 90, 124
21, 441267, Note_off_c, 14, 59, 0
21, 441267, Note_off_c, 14, 67, 0
21, 441267, Note_off_c, 14, 81, 0
21, 441267, Note_off_c, 14, 90, 0
21, 441280, Note_on_c, 14, 59, 124
21, 441280, Note_on_c, 14, 67, 124
21, 441280, Note_on_c, 14, 81, 124
21, 441280, Note_on_c, 14, 90, 124
21, 441331, Note_off_c, 14, 59, 0
21, 441331, Note_off_c, 14, 67, 0
21, 441331, Note_off_c, 14, 81, 0
21, 441331, Note_off_c, 14, 90, 0
21, 441344, Note_on_c, 14, 59, 126
21, 441344, Note_on_c, 14, 67, 126
21, 441344, Note_on_c, 14, 81, 126
21, 441344, Note_on_c, 14, 90, 126
21, 441395, Note_off_c, 14, 59, 0
21, 441395, Note_off_c, 14, 67, 0
21, 441395, Note_off_c, 14, 81, 0
21, 441395, Note_off_c, 14, 90, 0
21, 441408, Note_on_c, 14, 59, 126
21, 441408, Note_on_c, 14, 67, 126
21, 441408, Note_on_c, 14, 81, 126
21, 441408, Note_on_c, 14, 90, 126
21, 441459, Note_off_c, 14, 59, 0
21, 441459, Note_off_c, 14, 67, 0
21, 441459, Note_off_c, 14, 81, 0
21, 441459, Note_off_c, 14, 90, 0
21, 441472, Note_on_c, 14, 59, 112
21, 441472, Note_on_c, 14, 66, 112
21, 441472, Note_on_c, 14, 80, 112
21, 441472, Note_on_c, 14, 86, 112
21, 441523, Note_off_c, 14, 59, 0
21, 441523, Note_off_c, 14, 66, 0
21, 441523, Note_off_c, 14, 80, 0
21, 441523, Note_off_c, 14, 86, 0
21, 441536, Note_on_c, 14, 59, 112
21, 441536, Note_on_c, 14, 66, 112
21, 441536, Note_on_c, 14, 80, 112
21, 441536, Note_on_c, 14, 86, 112
21, 441587, Note_off_c, 14, 59, 0
21, 441587, Note_off_c, 14, 66, 0
21, 441587, Note_off_c, 14, 80, 0
21, 441587, Note_off_c, 14, 86, 0
21, 441600, Note_on_c, 14, 59, 123
21, 441600, Note_on_c, 14, 66, 123
21, 441600, Note_on_c, 14, 80, 123
21, 441600, Note_on_c, 14, 86, 123
21, 441651, Note_off_c, 14, 59, 0
21, 441651, Note_off_c, 14, 66, 0
21, 441651, Note_off_c, 14, 80, 0
21, 441651, Note_off_c, 14, 86, 0
21, 441664, Note_on_c, 14, 59, 123
21, 441664, Note_on_c, 14, 66, 123
21, 441664, Note_on_c, 14, 80, 123
21, 441664, Note_on_c, 14, 86, 123
21, 441715, Note_off_c, 14, 59, 0
21, 441715, Note_off_c, 14, 66, 0
21, 441715, Note_off_c, 14, 80, 0
21, 441715, Note_off_c, 14, 86, 0
21, 441728, Note_on_c, 14, 57, 115
21, 441728, Note_on_c, 14, 62, 115
21, 441728, Note_on_c, 14, 78, 115
21, 441728, Note_on_c, 14, 82, 115
21, 441779, Note_off_c, 14, 57, 0
21, 441779, Note_off_c, 14, 62, 0
21, 441779, Note_off_c, 14, 78, 0
21, 441779, Note_off_c, 14, 82, 0
21, 441792, Note_on_c, 14, 57, 115
21, 441792, Note_on_c, 14, 62, 115
21, 441792, Note_on_c, 14, 78, 115
21, 441792, Note_on_c, 14, 82, 115
21, 441843, Note_off_c, 14, 57, 0
21, 441843, Note_off_c, 14, 62, 0
21, 441843, Note_off_c, 14, 78, 0
21, 441843, Note_off_c, 14, 82, 0
21, 441856, Note_on_c, 14, 57, 125
21, 441856, Note_on_c, 14, 62, 125
21, 441856, Note_on_c, 14, 78, 125
21, 441856, Note_on_c, 14, 82, 125
21, 441907, Note_off_c, 14, 57, 0
21, 441907, Note_off_c, 14, 62, 0
21, 441907, Note_off_c, 14, 78, 0
21, 441907, Note_off_c, 14, 82, 0
21, 441920, Note_on_c, 14, 57, 125
21, 441920, Note_on_c, 14, 62, 125
21, 441920, Note_on_c, 14, 78, 125
21, 441920, Note_on_c, 14, 82, 125
21, 441971, Note_off_c, 14, 57, 0
21, 441971, Note_off_c, 14, 62, 0
21, 441971, Note_off_c, 14, 78, 0
21, 441971, Note_off_c, 14, 82, 0
21, 441984, Note_on_c, 14, 58, 127
21, 441984, Note_on_c, 14, 66, 127
21, 441984, Note_on_c, 14, 80, 127
21, 441984, Note_on_c, 14, 84, 127
21, 442035, Note_off_c, 14, 58, 0
21, 442035, Note_off_c, 14, 66, 0
21, 442035, Note_off_c, 14, 80, 0
21, 442035, Note_off_c, 14, 84, 0
21, 442048, Note_on_c, 14, 58, 127
21, 442048, Note_on_c, 14, 66, 127
21, 442048, Note_on_c, 14, 80, 127
21, 442048, Note_on_c, 14, 84, 127
21, 442099, Note_off_c, 14, 58, 0
21, 442099, Note_off_c, 14, 66, 0
21, 442099, Note_off_c, 14, 80, 0
21, 442099, Note_off_c, 14, 84, 0
21, 442112, Note_on_c, 14, 58, 122
21, 442112, Note_on_c, 14, 66, 122
21, 442112, Note_on_c, 14, 80, 122
21, 442112, Note_on_c, 14, 84, 122
21, 442163, Note_off_c, 14, 58, 0
21, 442163, Note_off_c, 14, 66, 0
21, 442163, Note_off_c, 14, 80, 0
21, 442163, Note_off_c, 14, 84, 0
21, 442176, Note_on_c, 14, 58, 122
21, 442176, Note_on_c, 14, 66, 122
21, 442176, Note_on_c, 14, 80, 122
21, 442176, Note_on_c, 14, 84, 122
21, 442227, Note_off_c, 14, 58, 0
21, 442227, Note_off_c, 14, 66, 0
21, 442227, Note_off_c, 14, 80, 0
21, 442227, Note_off_c, 14, 84, 0
21, 442240, Note_on_c, 14, 64, 127
21, 442240, Note_on_c, 14, 71, 127
21, 442240, Note_on_c, 14, 81, 127
21, 442240, Note_on_c, 14, 90, 127
21, 442291, Note_off_c, 14, 64, 0
21, 442291, Note_off_c, 14, 71, 0
21, 442291, Note_off_c, 14, 81, 0
21, 442291, Note_off_c, 14, 90, 0
21, 442304, Note_on_c, 14, 64, 127
21, 442304, Note_on_c, 14, 71, 127
21, 442304, Note_on_c, 14, 81, 127
21, 442304, Note_on_c, 14, 90, 127
21, 442355, Note_off_c, 14, 64, 0
21, 442355, Note_off_c, 14, 71, 0
21, 442355, Note_off_c, 14, 81, 0
21, 442355, Note_off_c, 14, 90, 0
21, 442368, Note_on_c, 14, 73, 127
21, 442368, Note_on_c, 14, 76, 127
21, 442368, Note_on_c, 14, 86, 127
21, 442368, Note_on_c, 14, 93, 127
21, 442419, Note_off_c, 14, 73, 0
21, 442419, Note_off_c, 14, 76, 0
21, 442419, Note_off_c, 14, 86, 0
21, 442419, Note_off_c, 14, 93, 0
21, 442432, Note_on_c, 14, 73, 127
21, 442432, Note_on_c, 14, 76, 127
21, 442432, Note_on_c, 14, 86, 127
21, 442432, Note_on_c, 14, 93, 127
21, 442483, Note_off_c, 14, 73, 0
21, 442483, Note_off_c, 14, 76, 0
21, 442483, Note_off_c, 14, 86, 0
21, 442483, Note_off_c, 14, 93, 0
21, 442496, Note_on_c, 14, 73, 127
21, 442496, Note_on_c, 14, 76, 127
21, 442496, Note_on_c, 14, 86, 127
21, 442496, Note_on_c, 14, 93, 127
21, 442547, Note_off_c, 14, 73, 0
21, 442547, Note_off_c, 14, 76, 0
21, 442547, Note_off_c, 14, 86, 0
21, 442547, Note_off_c, 14, 93, 0
21, 442560, Note_on_c, 14, 73, 127
21, 442560, Note_on_c, 14, 76, 127
21, 442560, Note_on_c, 14, 86, 127
21, 442560, Note_on_c, 14, 93, 127
21, 442611, Note_off_c, 14, 73, 0
21, 442611, Note_off_c, 14, 76, 0
21, 442611, Note_off_c, 14, 86, 0
21, 442611, Note_off_c, 14, 93, 0
21, 442624, Note_on_c, 14, 71, 127
21, 442624, Note_on_c, 14, 76, 127
21, 442624, Note_on_c, 14, 86, 127
21, 442624, Note_on_c, 14, 93, 127
21, 442675, Note_off_c, 14, 71, 0
21, 442675, Note_off_c, 14, 76, 0
21, 442675, Note_off_c, 14, 86, 0
21, 442675, Note_off_c, 14, 93, 0
21, 442688, Note_on_c, 14, 71, 127
21, 442688, Note_on_c, 14, 76, 127
21, 442688, Note_on_c, 14, 86, 127
21, 442688, Note_on_c, 14, 93, 127
21, 442739, Note_off_c, 14, 71, 0
21, 442739, Note_off_c, 14, 76, 0
21, 442739, Note_off_c, 14, 86, 0
21, 442739, Note_off_c, 14, 93, 0
21, 442752, Note_on_c, 14, 71, 127
21, 442752, Note_on_c, 14, 76, 127
21, 442752, Note_on_c, 14, 86, 127
21, 442752, Note_on_c, 14, 93, 127
21, 442803, Note_off_c, 14, 71, 0
21, 442803, Note_off_c, 14, 76, 0
21, 442803, Note_off_c, 14, 86, 0
21, 442803, Note_off_c, 14, 93, 0
21, 442816, Note_on_c, 14, 71, 127
21, 442816, Note_on_c, 14, 76, 127
21, 442816, Note_on_c, 14, 86, 127
21, 442816, Note_on_c, 14, 93, 127
21, 442867, Note_off_c, 14, 71, 0
21, 442867, Note_off_c, 14, 76, 0
21, 442867, Note_off_c, 14, 86, 0
21, 442867, Note_off_c, 14, 93, 0
21, 442880, Note_on_c, 14, 70, 124
21, 442880, Note_on_c, 14, 74, 124
21, 442880, Note_on_c, 14, 80, 124
21, 442880, Note_on_c, 14, 93, 124
21, 442931, Note_off_c, 14, 70, 0
21, 442931, Note_off_c, 14, 74, 0
21, 442931, Note_off_c, 14, 80, 0
21, 442931, Note_off_c, 14, 93, 0
21, 442944, Note_on_c, 14, 70, 124
21, 442944, Note_on_c, 14, 74, 124
21, 442944, Note_on_c, 14, 80, 124
21, 442944, Note_on_c, 14, 93, 124
21, 442995, Note_off_c, 14, 70, 0
21, 442995, Note_off_c, 14, 74, 0
21, 442995, Note_off_c, 14, 80, 0
21, 442995, Note_off_c, 14, 93, 0
21, 443008, Note_on_c, 14, 70, 124
21, 443008, Note_on_c, 14, 74, 124
21, 443008, Note_on_c, 14, 80, 124
21, 443008, Note_on_c, 14, 93, 124
21, 443059, Note_off_c, 14, 70, 0
21, 443059, Note_off_c, 14, 74, 0
21, 443059, Note_off_c, 14, 80, 0
21, 443059, Note_off_c, 14, 93, 0
21, 443072, Note_on_c, 14, 70, 124
21, 443072, Note_on_c, 14, 74, 124
21, 443072, Note_on_c, 14, 80, 124
21, 443072, Note_on_c, 14, 93, 124
21, 443123, Note_off_c, 14, 70, 0
21, 443123, Note_off_c, 14, 74, 0
21, 443123, Note_off_c, 14, 80, 0
21, 443123, Note_off_c, 14, 93, 0
21, 443136, Note_on_c, 14, 70, 127
21, 443136, Note_on_c, 14, 74, 127
21, 443136, Note_on_c, 14, 80, 127
21, 443136, Note_on_c, 14, 93, 127
21, 443187, Note_off_c, 14, 70, 0
21, 443187, Note_off_c, 14, 74, 0
21, 443187, Note_off_c, 14, 80, 0
21, 443187, Note_off_c, 14, 93, 0
21, 443200, Note_on_c, 14, 70, 127
21, 443200, Note_on_c, 14, 74, 127
21, 443200, Note_on_c, 14, 80, 127
21, 443200, Note_on_c, 14, 93, 127
21, 443251, Note_off_c, 14, 70, 0
21, 443251, Note_off_c, 14, 74, 0
21, 443251, Note_off_c, 14, 80, 0
21, 443251, Note_off_c, 14, 93, 0
21, 443264, Note_on_c, 14, 65, 127
21, 443264, Note_on_c, 14, 72, 127
21, 443264, Note_on_c, 14, 81, 127
21, 443264, Note_on_c, 14, 93, 127
21, 443315, Note_off_c, 14, 65, 0
21, 443315, Note_off_c, 14, 72, 0
21, 443315, Note_off_c, 14, 81, 0
21, 443315, Note_off_c, 14, 93, 0
21, 443328, Note_on_c, 14, 65, 127
21, 443328, Note_on_c, 14, 72, 127
21, 443328, Note_on_c, 14, 81, 127
21, 443328, Note_on_c, 14, 93, 127
21, 443379, Note_off_c, 14, 65, 0
21, 443379, Note_off_c, 14, 72, 0
21, 443379, Note_off_c, 14, 81, 0
21, 443379, Note_off_c, 14, 93, 0
21, 443392, Note_on_c, 14, 65, 115
21, 443392, Note_on_c, 14, 72, 115
21, 443392, Note_on_c, 14, 81, 115
21, 443392, Note_on_c, 14, 90, 115
21, 443443, Note_off_c, 14, 65, 0
21, 443443, Note_off_c, 14, 72, 0
21, 443443, Note_off_c, 14, 81, 0
21, 443443, Note_off_c, 14, 90, 0
21, 443456, Note_on_c, 14, 65, 115
21, 443456, Note_on_c, 14, 72, 115
21, 443456, Note_on_c, 14, 81, 115
21, 443456, Note_on_c, 14, 90, 115
21, 443507, Note_off_c, 14, 65, 0
21, 443507, Note_off_c, 14, 72, 0
21, 443507, Note_off_c, 14, 81, 0
21, 443507, Note_off_c, 14, 90, 0
21, 443520, Note_on_c, 14, 65, 115
21, 443520, Note_on_c, 14, 72, 115
21, 443520, Note_on_c, 14, 81, 115
21, 443520, Note_on_c, 14, 90, 115
21, 443571, Note_off_c, 14, 65, 0
21, 443571, Note_off_c, 14, 72, 0
21, 443571, Note_off_c, 14, 81, 0
21, 443571, Note_off_c, 14, 90, 0
21, 443584, Note_on_c, 14, 65, 115
21, 443584, Note_on_c, 14, 72, 115
21, 443584, Note_on_c, 14, 81, 115
21, 443584, Note_on_c, 14, 90, 115
21, 443635, Note_off_c, 14, 65, 0
21, 443635, Note_off_c, 14, 72, 0
21, 443635, Note_off_c, 14, 81, 0
21, 443635, Note_off_c, 14, 90, 0
21, 443648, Note_on_c, 14, 64, 125
21, 443648, Note_on_c, 14, 72, 125
21, 443648, Note_on_c, 14, 81, 125
21, 443648, Note_on_c, 14, 90, 125
21, 443699, Note_off_c, 14, 64, 0
21, 443699, Note_off_c, 14, 72, 0
21, 443699, Note_off_c, 14, 81, 0
21, 443699, Note_off_c, 14, 90, 0
21, 443712, Note_on_c, 14, 64, 125
21, 443712, Note_on_c, 14, 72, 125
21, 443712, Note_on_c, 14, 81, 125
21, 443712, Note_on_c, 14, 90, 125
21, 443763, Note_off_c, 14, 64, 0
21, 443763, Note_off_c, 14, 72, 0
21, 443763, Note_off_c, 14, 81, 0
21, 443763, Note_off_c, 14, 90, 0
21, 443776, Note_on_c, 14, 64, 125
21, 443776, Note_on_c, 14, 72, 125
21, 443776, Note_on_c, 14, 81, 125
21, 443776, Note_on_c, 14, 90, 125
21, 443827, Note_off_c, 14, 64, 0
21, 443827, Note_off_c, 14, 72, 0
21, 443827, Note_off_c, 14, 81, 0
21, 443827, Note_off_c, 14, 90, 0
21, 443840, Note_on_c, 14, 64, 125
21, 443840, Note_on_c, 14, 72, 125
21, 443840, Note_on_c, 14, 81, 125
21, 443840, Note_on_c, 14, 90, 125
21, 443891, Note_off_c, 14, 64, 0
21, 443891, Note_off_c, 14, 72, 0
21, 443891, Note_off_c, 14, 81, 0
21, 443891, Note_off_c, 14, 90, 0
21, 443904, Note_on_c, 14, 65, 111
21, 443904, Note_on_c, 14, 71, 111
21, 443904, Note_on_c, 14, 81, 111
21, 443904, Note_on_c, 14, 86, 111
21, 443955, Note_off_c, 14, 65, 0
21, 443955, Note_off_c, 14, 71, 0
21, 443955, Note_off_c, 14, 81, 0
21, 443955, Note_off_c, 14, 86, 0
21, 443968, Note_on_c, 14, 65, 111
21, 443968, Note_on_c, 14, 71, 111
21, 443968, Note_on_c, 14, 81, 111
21, 443968, Note_on_c, 14, 86, 111
21, 444019, Note_off_c, 14, 65, 0
21, 444019, Note_off_c, 14, 71, 0
21, 444019, Note_off_c, 14, 81, 0
21, 444019, Note_off_c, 14, 86, 0
21, 444032, Note_on_c, 14, 65, 111
21, 444032, Note_on_c, 14, 71, 111
21, 444032, Note_on_c, 14, 81, 111
21, 444032, Note_on_c, 14, 86, 111
21, 444083, Note_off_c, 14, 65, 0
21, 444083, Note_off_c, 14, 71, 0
21, 444083, Note_off_c, 14, 81, 0
21, 444083, Note_off_c, 14, 86, 0
21, 444096, Note_on_c, 14, 65, 111
21, 444096, Note_on_c, 14, 71, 111
21, 444096, Note_on_c, 14, 81, 111
21, 444096, Note_on_c, 14, 86, 111
21, 444147, Note_off_c, 14, 65, 0
21, 444147, Note_off_c, 14, 71, 0
21, 444147, Note_off_c, 14, 81, 0
21, 444147, Note_off_c, 14, 86, 0
21, 444160, Note_on_c, 14, 66, 127
21, 444160, Note_on_c, 14, 72, 127
21, 444160, Note_on_c, 14, 81, 127
21, 444160, Note_on_c, 14, 86, 127
21, 444211, Note_off_c, 14, 66, 0
21, 444211, Note_off_c, 14, 72, 0
21, 444211, Note_off_c, 14, 81, 0
21, 444211, Note_off_c, 14, 86, 0
21, 444224, Note_on_c, 14, 66, 127
21, 444224, Note_on_c, 14, 72, 127
21, 444224, Note_on_c, 14, 81, 127
21, 444224, Note_on_c, 14, 86, 127
21, 444275, Note_off_c, 14, 66, 0
21, 444275, Note_off_c, 14, 72, 0
21, 444275, Note_off_c, 14, 81, 0
21, 444275, Note_off_c, 14, 86, 0
21, 444288, Note_on_c, 14, 66, 127
21, 444288, Note_on_c, 14, 72, 127
21, 444288, Note_on_c, 14, 81, 127
21, 444288, Note_on_c, 14, 86, 127
21, 444339, Note_off_c, 14, 66, 0
21, 444339, Note_off_c, 14, 72, 0
21, 444339, Note_off_c, 14, 81, 0
21, 444339, Note_off_c, 14, 86, 0
21, 444352, Note_on_c, 14, 66, 127
21, 444352, Note_on_c, 14, 72, 127
21, 444352, Note_on_c, 14, 81, 127
21, 444352, Note_on_c, 14, 86, 127
21, 444403, Note_off_c, 14, 66, 0
21, 444403, Note_off_c, 14, 72, 0
21, 444403, Note_off_c, 14, 81, 0
21, 444403, Note_off_c, 14, 86, 0
21, 444416, Note_on_c, 14, 66, 127
21, 444416, Note_on_c, 14, 72, 127
21, 444416, Note_on_c, 14, 81, 127
21, 444416, Note_on_c, 14, 86, 127
21, 444467, Note_off_c, 14, 66, 0
21, 444467, Note_off_c, 14, 72, 0
21, 444467, Note_off_c, 14, 81, 0
21, 444467, Note_off_c, 14, 86, 0
21, 444480, Note_on_c, 14, 66, 127
21, 444480, Note_on_c, 14, 72, 127
21, 444480, Note_on_c, 14, 81, 127
21, 444480, Note_on_c, 14, 86, 127
21, 444531, Note_off_c, 14, 66, 0
21, 444531, Note_off_c, 14, 72, 0
21, 444531, Note_off_c, 14, 81, 0
21, 444531, Note_off_c, 14, 86, 0
21, 444544, Note_on_c, 14, 64, 108
21, 444544, Note_on_c, 14, 68, 108
21, 444544, Note_on_c, 14, 78, 108
21, 444544, Note_on_c, 14, 81, 108
21, 444595, Note_off_c, 14, 64, 0
21, 444595, Note_off_c, 14, 68, 0
21, 444595, Note_off_c, 14, 78, 0
21, 444595, Note_off_c, 14, 81, 0
21, 444608, Note_on_c, 14, 64, 108
21, 444608, Note_on_c, 14, 68, 108
21, 444608, Note_on_c, 14, 78, 108
21, 444608, Note_on_c, 14, 81, 108
21, 444659, Note_off_c, 14, 64, 0
21, 444659, Note_off_c, 14, 68, 0
21, 444659, Note_off_c, 14, 78, 0
21, 444659, Note_off_c, 14, 81, 0
21, 444672, Note_on_c, 14, 64, 121
21, 444672, Note_on_c, 14, 68, 121
21, 444672, Note_on_c, 14, 78, 121
21, 444672, Note_on_c, 14, 81, 121
21, 444723, Note_off_c, 14, 64, 0
21, 444723, Note_off_c, 14, 68, 0
21, 444723, Note_off_c, 14, 78, 0
21, 444723, Note_off_c, 14, 81, 0
21, 444736, Note_on_c, 14, 64, 121
21, 444736, Note_on_c, 14, 68, 121
21, 444736, Note_on_c, 14, 78, 121
21, 444736, Note_on_c, 14, 81, 121
21, 444787, Note_off_c, 14, 64, 0
21, 444787, Note_off_c, 14, 68, 0
21, 444787, Note_off_c, 14, 78, 0
21, 444787, Note_off_c, 14, 81, 0
21, 444800, Note_on_c, 14, 66, 127
21, 444800, Note_on_c, 14, 70, 127
21, 444800, Note_on_c, 14, 80, 127
21, 444800, Note_on_c, 14, 85, 127
21, 444851, Note_off_c, 14, 66, 0
21, 444851, Note_off_c, 14, 70, 0
21, 444851, Note_off_c, 14, 80, 0
21, 444851, Note_off_c, 14, 85, 0
21, 444864, Note_on_c, 14, 66, 127
21, 444864, Note_on_c, 14, 70, 127
21, 444864, Note_on_c, 14, 80, 127
21, 444864, Note_on_c, 14, 85, 127
21, 444915, Note_off_c, 14, 66, 0
21, 444915, Note_off_c, 14, 70, 0
21, 444915, Note_off_c, 14, 80, 0
21, 444915, Note_off_c, 14, 85, 0
21, 444928, Note_on_c, 14, 66, 125
21, 444928, Note_on_c, 14, 70, 125
21, 444928, Note_on_c, 14, 80, 125
21, 444928, Note_on_c, 14, 85, 125
21, 444979, Note_off_c, 14, 66, 0
21, 444979, Note_off_c, 14, 70, 0
21, 444979, Note_off_c, 14, 80, 0
21, 444979, Note_off_c, 14, 85, 0
21, 444992, Note_on_c, 14, 66, 125
21, 444992, Note_on_c, 14, 70, 125
21, 444992, Note_on_c, 14, 80, 125
21, 444992, Note_on_c, 14, 85, 125
21, 445043, Note_off_c, 14, 66, 0
21, 445043, Note_off_c, 14, 70, 0
21, 445043, Note_off_c, 14, 80, 0
21, 445043, Note_off_c, 14, 85, 0
21, 445056, Note_on_c, 14, 59, 127
21, 445056, Note_on_c, 14, 66, 127
21, 445056, Note_on_c, 14, 83, 127
21, 445056, Note_on_c, 14, 90, 127
21, 445107, Note_off_c, 14, 59, 0
21, 445107, Note_off_c, 14, 66, 0
21, 445107, Note_off_c, 14, 83, 0
21, 445107, Note_off_c, 14, 90, 0
21, 445120, Note_on_c, 14, 59, 127
21, 445120, Note_on_c, 14, 66, 127
21, 445120, Note_on_c, 14, 83, 127
21, 445120, Note_on_c, 14, 90, 127
21, 445171, Note_off_c, 14, 59, 0
21, 445171, Note_off_c, 14, 66, 0
21, 445171, Note_off_c, 14, 83, 0
21, 445171, Note_off_c, 14, 90, 0
21, 445184, Note_on_c, 14, 66, 127
21, 445184, Note_on_c, 14, 83, 127
21, 445184, Note_on_c, 14, 90, 127
21, 445235, Note_off_c, 14, 66, 0
21, 445235, Note_off_c, 14, 83, 0
21, 445235, Note_off_c, 14, 90, 0
21, 445248, Note_on_c, 14, 66, 127
21, 445248, Note_on_c, 14, 83, 127
21, 445248, Note_on_c, 14, 90, 127
21, 445299, Note_off_c, 14, 66, 0
21, 445299, Note_off_c, 14, 83, 0
21, 445299, Note_off_c, 14, 90, 0
21, 445312, Note_on_c, 14, 66, 111
21, 445312, Note_on_c, 14, 71, 111
21, 445312, Note_on_c, 14, 81, 111
21, 445312, Note_on_c, 14, 86, 111
21, 445363, Note_off_c, 14, 66, 0
21, 445363, Note_off_c, 14, 71, 0
21, 445363, Note_off_c, 14, 81, 0
21, 445363, Note_off_c, 14, 86, 0
21, 445376, Note_on_c, 14, 66, 111
21, 445376, Note_on_c, 14, 71, 111
21, 445376, Note_on_c, 14, 81, 111
21, 445376, Note_on_c, 14, 86, 111
21, 445427, Note_off_c, 14, 66, 0
21, 445427, Note_off_c, 14, 71, 0
21, 445427, Note_off_c, 14, 81, 0
21, 445427, Note_off_c, 14, 86, 0
21, 445440, Note_on_c, 14, 66, 127
21, 445440, Note_on_c, 14, 71, 127
21, 445440, Note_on_c, 14, 81, 127
21, 445440, Note_on_c, 14, 86, 127
21, 445491, Note_off_c, 14, 66, 0
21, 445491, Note_off_c, 14, 71, 0
21, 445491, Note_off_c, 14, 81, 0
21, 445491, Note_off_c, 14, 86, 0
21, 445504, Note_on_c, 14, 66, 127
21, 445504, Note_on_c, 14, 71, 127
21, 445504, Note_on_c, 14, 81, 127
21, 445504, Note_on_c, 14, 86, 127
21, 445555, Note_off_c, 14, 66, 0
21, 445555, Note_off_c, 14, 71, 0
21, 445555, Note_off_c, 14, 81, 0
21, 445555, Note_off_c, 14, 86, 0
21, 445568, Note_on_c, 14, 73, 127
21, 445568, Note_on_c, 14, 78, 127
21, 445568, Note_on_c, 14, 81, 127
21, 445568, Note_on_c, 14, 86, 127
21, 445619, Note_off_c, 14, 73, 0
21, 445619, Note_off_c, 14, 78, 0
21, 445619, Note_off_c, 14, 81, 0
21, 445619, Note_off_c, 14, 86, 0
21, 445632, Note_on_c, 14, 73, 127
21, 445632, Note_on_c, 14, 78, 127
21, 445632, Note_on_c, 14, 81, 127
21, 445632, Note_on_c, 14, 86, 127
21, 445683, Note_off_c, 14, 73, 0
21, 445683, Note_off_c, 14, 78, 0
21, 445683, Note_off_c, 14, 81, 0
21, 445683, Note_off_c, 14, 86, 0
21, 445696, Note_on_c, 14, 73, 125
21, 445696, Note_on_c, 14, 78, 125
21, 445696, Note_on_c, 14, 81, 125
21, 445696, Note_on_c, 14, 86, 125
21, 445747, Note_off_c, 14, 73, 0
21, 445747, Note_off_c, 14, 78, 0
21, 445747, Note_off_c, 14, 81, 0
21, 445747, Note_off_c, 14, 86, 0
21, 445760, Note_on_c, 14, 73, 125
21, 445760, Note_on_c, 14, 78, 125
21, 445760, Note_on_c, 14, 81, 125
21, 445760, Note_on_c, 14, 86, 125
21, 445811, Note_off_c, 14, 73, 0
21, 445811, Note_off_c, 14, 78, 0
21, 445811, Note_off_c, 14, 81, 0
21, 445811, Note_off_c, 14, 86, 0
21, 445824, Note_on_c, 14, 73, 125
21, 445824, Note_on_c, 14, 78, 125
21, 445824, Note_on_c, 14, 81, 125
21, 445824, Note_on_c, 14, 86, 125
21, 445875, Note_off_c, 14, 73, 0
21, 445875, Note_off_c, 14, 78, 0
21, 445875, Note_off_c, 14, 81, 0
21, 445875, Note_off_c, 14, 86, 0
21, 445888, Note_on_c, 14, 73, 125
21, 445888, Note_on_c, 14, 78, 125
21, 445888, Note_on_c, 14, 81, 125
21, 445888, Note_on_c, 14, 86, 125
21, 445939, Note_off_c, 14, 73, 0
21, 445939, Note_off_c, 14, 78, 0
21, 445939, Note_off_c, 14, 81, 0
21, 445939, Note_off_c, 14, 86, 0
21, 445952, Note_on_c, 14, 73, 125
21, 445952, Note_on_c, 14, 78, 125
21, 445952, Note_on_c, 14, 81, 125
21, 445952, Note_on_c, 14, 86, 125
21, 446003, Note_off_c, 14, 73, 0
21, 446003, Note_off_c, 14, 78, 0
21, 446003, Note_off_c, 14, 81, 0
21, 446003, Note_off_c, 14, 86, 0
21, 446016, Note_on_c, 14, 73, 125
21, 446016, Note_on_c, 14, 78, 125
21, 446016, Note_on_c, 14, 81, 125
21, 446016, Note_on_c, 14, 86, 125
21, 446067, Note_off_c, 14, 73, 0
21, 446067, Note_off_c, 14, 78, 0
21, 446067, Note_off_c, 14, 81, 0
21, 446067, Note_off_c, 14, 86, 0
21, 446080, Note_on_c, 14, 66, 112
21, 446080, Note_on_c, 14, 71, 112
21, 446080, Note_on_c, 14, 73, 112
21, 446080, Note_on_c, 14, 81, 112
21, 446131, Note_off_c, 14, 66, 0
21, 446131, Note_off_c, 14, 71, 0
21, 446131, Note_off_c, 14, 73, 0
21, 446131, Note_off_c, 14, 81, 0
21, 446144, Note_on_c, 14, 66, 112
21, 446144, Note_on_c, 14, 71, 112
21, 446144, Note_on_c, 14, 73, 112
21, 446144, Note_on_c, 14, 81, 112
21, 446195, Note_off_c, 14, 66, 0
21, 446195, Note_off_c, 14, 71, 0
21, 446195, Note_off_c, 14, 73, 0
21, 446195, Note_off_c, 14, 81, 0
21, 446208, Note_on_c, 14, 66, 112
21, 446208, Note_on_c, 14, 71, 112
21, 446208, Note_on_c, 14, 73, 112
21, 446208, Note_on_c, 14, 81, 112
21, 446259, Note_off_c, 14, 66, 0
21, 446259, Note_off_c, 14, 71, 0
21, 446259, Note_off_c, 14, 73, 0
21, 446259, Note_off_c, 14, 81, 0
21, 446272, Note_on_c, 14, 66, 112
21, 446272, Note_on_c, 14, 71, 112
21, 446272, Note_on_c, 14, 73, 112
21, 446272, Note_on_c, 14, 81, 112
21, 446323, Note_off_c, 14, 66, 0
21, 446323, Note_off_c, 14, 71, 0
21, 446323, Note_off_c, 14, 73, 0
21, 446323, Note_off_c, 14, 81, 0
21, 446336, Note_on_c, 14, 66, 112
21, 446336, Note_on_c, 14, 71, 112
21, 446336, Note_on_c, 14, 73, 112
21, 446336, Note_on_c, 14, 81, 112
21, 446387, Note_off_c, 14, 66, 0
21, 446387, Note_off_c, 14, 71, 0
21, 446387, Note_off_c, 14, 73, 0
21, 446387, Note_off_c, 14, 81, 0
21, 446400, Note_on_c, 14, 66, 112
21, 446400, Note_on_c, 14, 71, 112
21, 446400, Note_on_c, 14, 73, 112
21, 446400, Note_on_c, 14, 81, 112
21, 446451, Note_off_c, 14, 66, 0
21, 446451, Note_off_c, 14, 71, 0
21, 446451, Note_off_c, 14, 73, 0
21, 446451, Note_off_c, 14, 81, 0
21, 446464, Note_on_c, 14, 67, 125
21, 446464, Note_on_c, 14, 73, 125
21, 446464, Note_on_c, 14, 81, 125
21, 446515, Note_off_c, 14, 67, 0
21, 446515, Note_off_c, 14, 73, 0
21, 446515, Note_off_c, 14, 81, 0
21, 446528, Note_on_c, 14, 67, 125
21, 446528, Note_on_c, 14, 73, 125
21, 446528, Note_on_c, 14, 81, 125
21, 446579, Note_off_c, 14, 67, 0
21, 446579, Note_off_c, 14, 73, 0
21, 446579, Note_off_c, 14, 81, 0
21, 446592, Note_on_c, 14, 67, 125
21, 446592, Note_on_c, 14, 73, 125
21, 446592, Note_on_c, 14, 81, 125
21, 446643, Note_off_c, 14, 67, 0
21, 446643, Note_off_c, 14, 73, 0
21, 446643, Note_off_c, 14, 81, 0
21, 446656, Note_on_c, 14, 67, 125
21, 446656, Note_on_c, 14, 73, 125
21, 446656, Note_on_c, 14, 81, 125
21, 446707, Note_off_c, 14, 67, 0
21, 446707, Note_off_c, 14, 73, 0
21, 446707, Note_off_c, 14, 81, 0
21, 446720, Note_on_c, 14, 81, 127
21, 446720, Note_on_c, 14, 93, 127
21, 446784, Note_off_c, 14, 81, 0
21, 446784, Note_off_c, 14, 93, 0
21, 446848, Note_on_c, 14, 81, 127
21, 446848, Note_on_c, 14, 93, 127
21, 447104, Note_off_c, 14, 81, 0
21, 447104, Note_off_c, 14, 93, 0
21, 447104, Note_on_c, 14, 81, 126
21, 447104, Note_on_c, 14, 93, 126
21, 447360, Note_off_c, 14, 81, 0
21, 447360, Note_off_c, 14, 93, 0
21, 447360, Note_on_c, 14, 80, 127
21, 447360, Note_on_c, 14, 93, 127
21, 447616, Note_off_c, 14, 80, 0
21, 447616, Note_off_c, 14, 93, 0
21, 447616, Note_on_c, 14, 80, 127
21, 447616, Note_on_c, 14, 93, 127
21, 447872, Note_off_c, 14, 80, 0
21, 447872, Note_off_c, 14, 93, 0
21, 447872, Note_on_c, 14, 78, 127
21, 447872, Note_on_c, 14, 93, 127
21, 448128, Note_off_c, 14, 78, 0
21, 448128, Note_off_c, 14, 93, 0
21, 448128, Note_on_c, 14, 78, 127
21, 448128, Note_on_c, 14, 93, 127
21, 448512, Note_off_c, 14, 78, 0
21, 448512, Note_off_c, 14, 93, 0
21, 448512, Note_on_c, 14, 78, 127
21, 448512, Note_on_c, 14, 93, 127
21, 448768, Note_off_c, 14, 78, 0
21, 448768, Note_off_c, 14, 93, 0
21, 448768, Note_on_c, 14, 78, 124
21, 448768, Note_on_c, 14, 93, 124
21, 448832, Note_off_c, 14, 78, 0
21, 448832, Note_off_c, 14, 93, 0
21, 448896, Note_on_c, 14, 78, 121
21, 448896, Note_on_c, 14, 93, 121
21, 449152, Note_off_c, 14, 78, 0
21, 449152, Note_off_c, 14, 93, 0
21, 449152, Note_on_c, 14, 88, 123
21, 449152, Note_on_c, 14, 93, 123
21, 449408, Note_off_c, 14, 88, 0
21, 449408, Note_off_c, 14, 93, 0
21, 449408, Note_on_c, 14, 80, 127
21, 449408, Note_on_c, 14, 93, 127
21, 449536, Note_off_c, 14, 80, 0
21, 449536, Note_off_c, 14, 93, 0
21, 449536, Note_on_c, 14, 80, 127
21, 449536, Note_on_c, 14, 93, 127
21, 449664, Note_off_c, 14, 80, 0
21, 449664, Note_off_c, 14, 93, 0
21, 449664, Note_on_c, 14, 78, 127
21, 449664, Note_on_c, 14, 93, 127
21, 449920, Note_off_c, 14, 78, 0
21, 449920, Note_off_c, 14, 93, 0
21, 449920, Note_on_c, 14, 76, 123
21, 449920, Note_on_c, 14, 93, 123
21, 450176, Note_off_c, 14, 76, 0
21, 450176, Note_off_c, 14, 93, 0
21, 450176, Note_on_c, 14, 78, 126
21, 450176, Note_on_c, 14, 93, 126
21, 450432, Note_off_c, 14, 78, 0
21, 450432, Note_off_c, 14, 93, 0
21, 450432, Note_on_c, 14, 86, 127
21, 450432, Note_on_c, 14, 93, 127
21, 450688, Note_off_c, 14, 86, 0
21, 450688, Note_off_c, 14, 93, 0
21, 450688, Note_on_c, 14, 80, 127
21, 450688, Note_on_c, 14, 95, 127
21, 450944, Note_off_c, 14, 80, 0
21, 450944, Note_off_c, 14, 95, 0
21, 450944, Note_on_c, 14, 80, 119
21, 450944, Note_on_c, 14, 92, 119
21, 451200, Note_off_c, 14, 80, 0
21, 451200, Note_off_c, 14, 92, 0
21, 451200, Note_on_c, 14, 86, 127
21, 451200, Note_on_c, 14, 93, 127
21, 451456, Note_off_c, 14, 86, 0
21, 451456, Note_off_c, 14, 93, 0
21, 451456, Note_on_c, 14, 86, 127
21, 451456, Note_on_c, 14, 93, 127
21, 451712, Note_off_c, 14, 86, 0
21, 451712, Note_off_c, 14, 93, 0
21, 451712, Note_on_c, 14, 86, 127
21, 451712, Note_on_c, 14, 93, 127
21, 451840, Note_off_c, 14, 86, 0
21, 451840, Note_off_c, 14, 93, 0
21, 451840, Note_on_c, 14, 83, 124
21, 451840, Note_on_c, 14, 93, 124
21, 452096, Note_off_c, 14, 83, 0
21, 452096, Note_off_c, 14, 93, 0
21, 452096, Note_on_c, 14, 85, 127
21, 452096, Note_on_c, 14, 93, 127
21, 452352, Note_off_c, 14, 85, 0
21, 452352, Note_off_c, 14, 93, 0
21, 452352, Note_on_c, 14, 83, 127
21, 452352, Note_on_c, 14, 95, 127
21, 452480, Note_off_c, 14, 83, 0
21, 452480, Note_off_c, 14, 95, 0
21, 452480, Note_on_c, 14, 81, 118
21, 452480, Note_on_c, 14, 92, 118
21, 452608, Note_off_c, 14, 81, 0
21, 452608, Note_off_c, 14, 92, 0
21, 452608, Note_on_c, 14, 86, 127
21, 452608, Note_on_c, 14, 93, 127
21, 452736, Note_off_c, 14, 86, 0
21, 452736, Note_off_c, 14, 93, 0
21, 452736, Note_on_c, 14, 92, 127
21, 452736, Note_on_c, 14, 93, 127
21, 452992, Note_off_c, 14, 92, 0
21, 452992, Note_off_c, 14, 93, 0
21, 452992, Note_on_c, 14, 92, 126
21, 452992, Note_on_c, 14, 93, 126
21, 453248, Note_off_c, 14, 92, 0
21, 453248, Note_off_c, 14, 93, 0
21, 453248, Note_on_c, 14, 92, 127
21, 453248, Note_on_c, 14, 93, 127
21, 453504, Note_off_c, 14, 92, 0
21, 453504, Note_off_c, 14, 93, 0
21, 453504, Note_on_c, 14, 90, 127
21, 453504, Note_on_c, 14, 93, 127
21, 453760, Note_off_c, 14, 90, 0
21, 453760, Note_off_c, 14, 93, 0
21, 453760, Note_on_c, 14, 86, 127
21, 453760, Note_on_c, 14, 93, 127
21, 454016, Note_off_c, 14, 86, 0
21, 454016, Note_off_c, 14, 93, 0
21, 454016, Note_on_c, 14, 86, 126
21, 454016, Note_on_c, 14, 93, 126
21, 454272, Note_off_c, 14, 86, 0
21, 454272, Note_off_c, 14, 93, 0
21, 454272, Note_on_c, 14, 83, 127
21, 454272, Note_on_c, 14, 93, 127
21, 454528, Note_off_c, 14, 83, 0
21, 454528, Note_off_c, 14, 93, 0
21, 454528, Note_on_c, 14, 86, 127
21, 454528, Note_on_c, 14, 93, 127
21, 454656, Note_off_c, 14, 86, 0
21, 454656, Note_off_c, 14, 93, 0
21, 454656, Note_on_c, 14, 86, 127
21, 454656, Note_on_c, 14, 93, 127
21, 454784, Note_off_c, 14, 86, 0
21, 454784, Note_off_c, 14, 93, 0
21, 454784, Note_on_c, 14, 86, 127
21, 454784, Note_on_c, 14, 93, 127
21, 455040, Note_off_c, 14, 86, 0
21, 455040, Note_off_c, 14, 93, 0
21, 455040, Note_on_c, 14, 86, 127
21, 455040, Note_on_c, 14, 93, 127
21, 455296, Note_off_c, 14, 86, 0
21, 455296, Note_off_c, 14, 93, 0
21, 455296, Note_on_c, 14, 86, 126
21, 455296, Note_on_c, 14, 93, 126
21, 455552, Note_off_c, 14, 86, 0
21, 455552, Note_off_c, 14, 93, 0
21, 455552, Note_on_c, 14, 82, 127
21, 455552, Note_on_c, 14, 93, 127
21, 455808, Note_off_c, 14, 82, 0
21, 455808, Note_off_c, 14, 93, 0
21, 455808, Note_on_c, 14, 81, 127
21, 455808, Note_on_c, 14, 93, 127
21, 456064, Note_off_c, 14, 81, 0
21, 456064, Note_off_c, 14, 93, 0
21, 456064, Note_on_c, 14, 88, 127
21, 456064, Note_on_c, 14, 93, 127
21, 456320, Note_off_c, 14, 88, 0
21, 456320, Note_off_c, 14, 93, 0
21, 456320, Note_on_c, 14, 83, 127
21, 456320, Note_on_c, 14, 93, 127
21, 456448, Note_off_c, 14, 83, 0
21, 456448, Note_off_c, 14, 93, 0
21, 456448, Note_on_c, 14, 86, 126
21, 456448, Note_on_c, 14, 93, 126
21, 456704, Note_off_c, 14, 86, 0
21, 456704, Note_off_c, 14, 93, 0
21, 456704, Note_on_c, 14, 86, 124
21, 456704, Note_on_c, 14, 93, 124
21, 456960, Note_off_c, 14, 86, 0
21, 456960, Note_off_c, 14, 93, 0
21, 456960, Note_on_c, 14, 86, 127
21, 456960, Note_on_c, 14, 93, 127
21, 457216, Note_off_c, 14, 86, 0
21, 457216, Note_off_c, 14, 93, 0
21, 457216, Note_on_c, 14, 86, 123
21, 457216, Note_on_c, 14, 93, 123
21, 457344, Note_off_c, 14, 86, 0
21, 457344, Note_off_c, 14, 93, 0
21, 457344, Note_on_c, 14, 86, 127
21, 457344, Note_on_c, 14, 93, 127
21, 457600, Note_off_c, 14, 86, 0
21, 457600, Note_off_c, 14, 93, 0
21, 457600, Note_on_c, 14, 86, 126
21, 457600, Note_on_c, 14, 93, 126
21, 457728, Note_off_c, 14, 86, 0
21, 457728, Note_off_c, 14, 93, 0
21, 457728, Note_on_c, 14, 86, 127
21, 457728, Note_on_c, 14, 93, 127
21, 457984, Note_off_c, 14, 86, 0
21, 457984, Note_off_c, 14, 93, 0
21, 457984, Note_on_c, 14, 86, 126
21, 457984, Note_on_c, 14, 93, 126
21, 458112, Note_off_c, 14, 86, 0
21, 458112, Note_off_c, 14, 93, 0
21, 458112, Note_on_c, 14, 81, 105
21, 458112, Note_on_c, 14, 86, 105
21, 458368, Note_off_c, 14, 81, 0
21, 458368, Note_off_c, 14, 86, 0
21, 458368, Note_on_c, 14, 82, 123
21, 458368, Note_on_c, 14, 86, 123
21, 458496, Note_off_c, 14, 82, 0
21, 458496, Note_off_c, 14, 86, 0
21, 458496, Note_on_c, 14, 86, 127
21, 458496, Note_on_c, 14, 93, 127
21, 458752, Note_off_c, 14, 86, 0
21, 458752, Note_off_c, 14, 93, 0
21, 458752, Note_on_c, 14, 86, 127
21, 458752, Note_on_c, 14, 93, 127
21, 458880, Note_off_c, 14, 86, 0
21, 458880, Note_off_c, 14, 93, 0
21, 458880, Note_on_c, 14, 86, 127
21, 458880, Note_on_c, 14, 93, 127
21, 459136, Note_off_c, 14, 86, 0
21, 459136, Note_off_c, 14, 93, 0
21, 459136, Note_on_c, 14, 86, 127
21, 459136, Note_on_c, 14, 93, 127
21, 459264, Note_off_c, 14, 86, 0
21, 459264, Note_off_c, 14, 93, 0
21, 459264, Note_on_c, 14, 86, 127
21, 459264, Note_on_c, 14, 93, 127
21, 459520, Note_off_c, 14, 86, 0
21, 459520, Note_off_c, 14, 93, 0
21, 459520, Note_on_c, 14, 86, 127
21, 459520, Note_on_c, 14, 93, 127
21, 459571, Note_off_c, 14, 86, 0
21, 459571, Note_off_c, 14, 93, 0
21, 459584, Note_on_c, 14, 86, 127
21, 459584, Note_on_c, 14, 93, 127
21, 459635, Note_off_c, 14, 86, 0
21, 459635, Note_off_c, 14, 93, 0
21, 459648, Note_on_c, 14, 86, 127
21, 459648, Note_on_c, 14, 93, 127
21, 459699, Note_off_c, 14, 86, 0
21, 459699, Note_off_c, 14, 93, 0
21, 459712, Note_on_c, 14, 86, 127
21, 459712, Note_on_c, 14, 93, 127
21, 459763, Note_off_c, 14, 86, 0
21, 459763, Note_off_c, 14, 93, 0
21, 459776, Note_on_c, 14, 86, 127
21, 459776, Note_on_c, 14, 93, 127
21, 459827, Note_off_c, 14, 86, 0
21, 459827, Note_off_c, 14, 93, 0
21, 459840, Note_on_c, 14, 86, 127
21, 459840, Note_on_c, 14, 93, 127
21, 459891, Note_off_c, 14, 86, 0
21, 459891, Note_off_c, 14, 93, 0
21, 459904, Note_on_c, 14, 86, 127
21, 459904, Note_on_c, 14, 93, 127
21, 459955, Note_off_c, 14, 86, 0
21, 459955, Note_off_c, 14, 93, 0
21, 459968, Note_on_c, 14, 86, 127
21, 459968, Note_on_c, 14, 93, 127
21, 460019, Note_off_c, 14, 86, 0
21, 460019, Note_off_c, 14, 93, 0
21, 460032, Note_on_c, 14, 86, 127
21, 460032, Note_on_c, 14, 93, 127
21, 460083, Note_off_c, 14, 86, 0
21, 460083, Note_off_c, 14, 93, 0
21, 460096, Note_on_c, 14, 86, 127
21, 460096, Note_on_c, 14, 93, 127
21, 460147, Note_off_c, 14, 86, 0
21, 460147, Note_off_c, 14, 93, 0
21, 460160, Note_on_c, 14, 86, 127
21, 460160, Note_on_c, 14, 93, 127
21, 460211, Note_off_c, 14, 86, 0
21, 460211, Note_off_c, 14, 93, 0
21, 460224, Note_on_c, 14, 86, 127
21, 460224, Note_on_c, 14, 93, 127
21, 460275, Note_off_c, 14, 86, 0
21, 460275, Note_off_c, 14, 93, 0
21, 460288, Note_on_c, 14, 86, 126
21, 460288, Note_on_c, 14, 93, 126
21, 460339, Note_off_c, 14, 86, 0
21, 460339, Note_off_c, 14, 93, 0
21, 460352, Note_on_c, 14, 86, 126
21, 460352, Note_on_c, 14, 93, 126
21, 460403, Note_off_c, 14, 86, 0
21, 460403, Note_off_c, 14, 93, 0
21, 460416, Note_on_c, 14, 86, 126
21, 460416, Note_on_c, 14, 93, 126
21, 460467, Note_off_c, 14, 86, 0
21, 460467, Note_off_c, 14, 93, 0
21, 460480, Note_on_c, 14, 86, 126
21, 460480, Note_on_c, 14, 93, 126
21, 460531, Note_off_c, 14, 86, 0
21, 460531, Note_off_c, 14, 93, 0
21, 460544, Note_on_c, 14, 86, 127
21, 460544, Note_on_c, 14, 93, 127
21, 460620, Note_off_c, 14, 86, 0
21, 460620, Note_off_c, 14, 93, 0
21, 460640, Note_on_c, 14, 86, 127
21, 460640, Note_on_c, 14, 93, 127
21, 460716, Note_off_c, 14, 86, 0
21, 460716, Note_off_c, 14, 93, 0
21, 460736, Note_on_c, 14, 89, 117
21, 460736, Note_on_c, 14, 92, 117
21, 460800, Note_off_c, 14, 89, 0
21, 460800, Note_off_c, 14, 92, 0
21, 460800, Note_on_c, 14, 89, 125
21, 460800, Note_on_c, 14, 92, 125
21, 460851, Note_off_c, 14, 89, 0
21, 460851, Note_off_c, 14, 92, 0
21, 460864, Note_on_c, 14, 89, 125
21, 460864, Note_on_c, 14, 92, 125
21, 460915, Note_off_c, 14, 89, 0
21, 460915, Note_off_c, 14, 92, 0
21, 460928, Note_on_c, 14, 89, 125
21, 460928, Note_on_c, 14, 92, 125
21, 460979, Note_off_c, 14, 89, 0
21, 460979, Note_off_c, 14, 92, 0
21, 460992, Note_on_c, 14, 89, 125
21, 460992, Note_on_c, 14, 92, 125
21, 461043, Note_off_c, 14, 89, 0
21, 461043, Note_off_c, 14, 92, 0
21, 461056, Note_on_c, 14, 87, 127
21, 461056, Note_on_c, 14, 92, 127
21, 461107, Note_off_c, 14, 87, 0
21, 461107, Note_off_c, 14, 92, 0
21, 461120, Note_on_c, 14, 87, 127
21, 461120, Note_on_c, 14, 92, 127
21, 461171, Note_off_c, 14, 87, 0
21, 461171, Note_off_c, 14, 92, 0
21, 461184, Note_on_c, 14, 87, 127
21, 461184, Note_on_c, 14, 92, 127
21, 461235, Note_off_c, 14, 87, 0
21, 461235, Note_off_c, 14, 92, 0
21, 461248, Note_on_c, 14, 87, 127
21, 461248, Note_on_c, 14, 92, 127
21, 461299, Note_off_c, 14, 87, 0
21, 461299, Note_off_c, 14, 92, 0
21, 461312, Note_on_c, 14, 87, 127
21, 461312, Note_on_c, 14, 95, 127
21, 461363, Note_off_c, 14, 87, 0
21, 461363, Note_off_c, 14, 95, 0
21, 461376, Note_on_c, 14, 87, 127
21, 461376, Note_on_c, 14, 95, 127
21, 461427, Note_off_c, 14, 87, 0
21, 461427, Note_off_c, 14, 95, 0
21, 461440, Note_on_c, 14, 88, 127
21, 461440, Note_on_c, 14, 97, 127
21, 461491, Note_off_c, 14, 88, 0
21, 461491, Note_off_c, 14, 97, 0
21, 461504, Note_on_c, 14, 88, 127
21, 461504, Note_on_c, 14, 97, 127
21, 461555, Note_off_c, 14, 88, 0
21, 461555, Note_off_c, 14, 97, 0
21, 461568, Note_on_c, 14, 88, 127
21, 461568, Note_on_c, 14, 97, 127
21, 461619, Note_off_c, 14, 88, 0
21, 461619, Note_off_c, 14, 97, 0
21, 461632, Note_on_c, 14, 88, 127
21, 461632, Note_on_c, 14, 97, 127
21, 461683, Note_off_c, 14, 88, 0
21, 461683, Note_off_c, 14, 97, 0
21, 461696, Note_on_c, 14, 88, 127
21, 461696, Note_on_c, 14, 97, 127
21, 461747, Note_off_c, 14, 88, 0
21, 461747, Note_off_c, 14, 97, 0
21, 461760, Note_on_c, 14, 88, 127
21, 461760, Note_on_c, 14, 97, 127
21, 461811, Note_off_c, 14, 88, 0
21, 461811, Note_off_c, 14, 97, 0
21, 461824, Note_on_c, 14, 90, 123
21, 461824, Note_on_c, 14, 96, 123
21, 461875, Note_off_c, 14, 90, 0
21, 461875, Note_off_c, 14, 96, 0
21, 461888, Note_on_c, 14, 90, 123
21, 461888, Note_on_c, 14, 96, 123
21, 461939, Note_off_c, 14, 90, 0
21, 461939, Note_off_c, 14, 96, 0
21, 461952, Note_on_c, 14, 90, 123
21, 461952, Note_on_c, 14, 96, 123
21, 462003, Note_off_c, 14, 90, 0
21, 462003, Note_off_c, 14, 96, 0
21, 462016, Note_on_c, 14, 90, 123
21, 462016, Note_on_c, 14, 96, 123
21, 462067, Note_off_c, 14, 90, 0
21, 462067, Note_off_c, 14, 96, 0
21, 462336, Note_on_c, 14, 87, 115
21, 462336, Note_on_c, 14, 95, 115
21, 462387, Note_off_c, 14, 87, 0
21, 462387, Note_off_c, 14, 95, 0
21, 462400, Note_on_c, 14, 87, 115
21, 462400, Note_on_c, 14, 95, 115
21, 462451, Note_off_c, 14, 87, 0
21, 462451, Note_off_c, 14, 95, 0
21, 462464, Note_on_c, 14, 87, 115
21, 462464, Note_on_c, 14, 95, 115
21, 462515, Note_off_c, 14, 87, 0
21, 462515, Note_off_c, 14, 95, 0
21, 462528, Note_on_c, 14, 87, 115
21, 462528, Note_on_c, 14, 95, 115
21, 462579, Note_off_c, 14, 87, 0
21, 462579, Note_off_c, 14, 95, 0
21, 462592, Note_on_c, 14, 86, 127
21, 462592, Note_on_c, 14, 96, 127
21, 462643, Note_off_c, 14, 86, 0
21, 462643, Note_off_c, 14, 96, 0
21, 462656, Note_on_c, 14, 86, 127
21, 462656, Note_on_c, 14, 96, 127
21, 462707, Note_off_c, 14, 86, 0
21, 462707, Note_off_c, 14, 96, 0
21, 462720, Note_on_c, 14, 86, 127
21, 462720, Note_on_c, 14, 96, 127
21, 462771, Note_off_c, 14, 86, 0
21, 462771, Note_off_c, 14, 96, 0
21, 462784, Note_on_c, 14, 86, 127
21, 462784, Note_on_c, 14, 96, 127
21, 462835, Note_off_c, 14, 86, 0
21, 462835, Note_off_c, 14, 96, 0
21, 462976, Note_on_c, 14, 87, 117
21, 462976, Note_on_c, 14, 95, 117
21, 463027, Note_off_c, 14, 87, 0
21, 463027, Note_off_c, 14, 95, 0
21, 463040, Note_on_c, 14, 87, 117
21, 463040, Note_on_c, 14, 95, 117
21, 463091, Note_off_c, 14, 87, 0
21, 463091, Note_off_c, 14, 95, 0
21, 463104, Note_on_c, 14, 87, 124
21, 463104, Note_on_c, 14, 95, 124
21, 463155, Note_off_c, 14, 87, 0
21, 463155, Note_off_c, 14, 95, 0
21, 463168, Note_on_c, 14, 87, 124
21, 463168, Note_on_c, 14, 95, 124
21, 463219, Note_off_c, 14, 87, 0
21, 463219, Note_off_c, 14, 95, 0
21, 463232, Note_on_c, 14, 86, 127
21, 463232, Note_on_c, 14, 96, 127
21, 463283, Note_off_c, 14, 86, 0
21, 463283, Note_off_c, 14, 96, 0
21, 463296, Note_on_c, 14, 86, 127
21, 463296, Note_on_c, 14, 96, 127
21, 463347, Note_off_c, 14, 86, 0
21, 463347, Note_off_c, 14, 96, 0
21, 463360, Note_on_c, 14, 86, 127
21, 463360, Note_on_c, 14, 96, 127
21, 463411, Note_off_c, 14, 86, 0
21, 463411, Note_off_c, 14, 96, 0
21, 463424, Note_on_c, 14, 86, 127
21, 463424, Note_on_c, 14, 96, 127
21, 463475, Note_off_c, 14, 86, 0
21, 463475, Note_off_c, 14, 96, 0
21, 463488, Note_on_c, 14, 86, 127
21, 463488, Note_on_c, 14, 96, 127
21, 463539, Note_off_c, 14, 86, 0
21, 463539, Note_off_c, 14, 96, 0
21, 463552, Note_on_c, 14, 86, 127
21, 463552, Note_on_c, 14, 96, 127
21, 463603, Note_off_c, 14, 86, 0
21, 463603, Note_off_c, 14, 96, 0
21, 463616, Note_on_c, 14, 86, 127
21, 463616, Note_on_c, 14, 96, 127
21, 463667, Note_off_c, 14, 86, 0
21, 463667, Note_off_c, 14, 96, 0
21, 463680, Note_on_c, 14, 86, 127
21, 463680, Note_on_c, 14, 96, 127
21, 463731, Note_off_c, 14, 86, 0
21, 463731, Note_off_c, 14, 96, 0
21, 463744, Note_on_c, 14, 86, 127
21, 463744, Note_on_c, 14, 96, 127
21, 463795, Note_off_c, 14, 86, 0
21, 463795, Note_off_c, 14, 96, 0
21, 463808, Note_on_c, 14, 86, 127
21, 463808, Note_on_c, 14, 96, 127
21, 463859, Note_off_c, 14, 86, 0
21, 463859, Note_off_c, 14, 96, 0
21, 463872, Note_on_c, 14, 86, 127
21, 463872, Note_on_c, 14, 96, 127
21, 463923, Note_off_c, 14, 86, 0
21, 463923, Note_off_c, 14, 96, 0
21, 463936, Note_on_c, 14, 86, 127
21, 463936, Note_on_c, 14, 96, 127
21, 463987, Note_off_c, 14, 86, 0
21, 463987, Note_off_c, 14, 96, 0
21, 464128, Note_on_c, 14, 86, 110
21, 464128, Note_on_c, 14, 96, 110
21, 464179, Note_off_c, 14, 86, 0
21, 464179, Note_off_c, 14, 96, 0
21, 464192, Note_on_c, 14, 86, 110
21, 464192, Note_on_c, 14, 96, 110
21, 464243, Note_off_c, 14, 86, 0
21, 464243, Note_off_c, 14, 96, 0
21, 464384, Note_on_c, 14, 86, 116
21, 464384, Note_on_c, 14, 96, 116
21, 464435, Note_off_c, 14, 86, 0
21, 464435, Note_off_c, 14, 96, 0
21, 464448, Note_on_c, 14, 86, 116
21, 464448, Note_on_c, 14, 96, 116
21, 464499, Note_off_c, 14, 86, 0
21, 464499, Note_off_c, 14, 96, 0
21, 464768, Note_on_c, 14, 86, 115
21, 464768, Note_on_c, 14, 96, 115
21, 464819, Note_off_c, 14, 86, 0
21, 464819, Note_off_c, 14, 96, 0
21, 464832, Note_on_c, 14, 86, 115
21, 464832, Note_on_c, 14, 96, 115
21, 464883, Note_off_c, 14, 86, 0
21, 464883, Note_off_c, 14, 96, 0
21, 465024, Note_on_c, 14, 86, 114
21, 465024, Note_on_c, 14, 96, 114
21, 465075, Note_off_c, 14, 86, 0
21, 465075, Note_off_c, 14, 96, 0
21, 465088, Note_on_c, 14, 86, 114
21, 465088, Note_on_c, 14, 96, 114
21, 465139, Note_off_c, 14, 86, 0
21, 465139, Note_off_c, 14, 96, 0
21, 465152, Note_on_c, 14, 86, 114
21, 465152, Note_on_c, 14, 93, 114
21, 465203, Note_off_c, 14, 86, 0
21, 465203, Note_off_c, 14, 93, 0
21, 465216, Note_on_c, 14, 86, 114
21, 465216, Note_on_c, 14, 93, 114
21, 465267, Note_off_c, 14, 86, 0
21, 465267, Note_off_c, 14, 93, 0
21, 465280, Note_on_c, 14, 86, 114
21, 465280, Note_on_c, 14, 93, 114
21, 465331, Note_off_c, 14, 86, 0
21, 465331, Note_off_c, 14, 93, 0
21, 465344, Note_on_c, 14, 86, 114
21, 465344, Note_on_c, 14, 93, 114
21, 465395, Note_off_c, 14, 86, 0
21, 465395, Note_off_c, 14, 93, 0
21, 465408, Note_on_c, 14, 86, 126
21, 465408, Note_on_c, 14, 93, 126
21, 465459, Note_off_c, 14, 86, 0
21, 465459, Note_off_c, 14, 93, 0
21, 465472, Note_on_c, 14, 86, 126
21, 465472, Note_on_c, 14, 93, 126
21, 465523, Note_off_c, 14, 86, 0
21, 465523, Note_off_c, 14, 93, 0
21, 465536, Note_on_c, 14, 86, 126
21, 465536, Note_on_c, 14, 93, 126
21, 465587, Note_off_c, 14, 86, 0
21, 465587, Note_off_c, 14, 93, 0
21, 465600, Note_on_c, 14, 86, 126
21, 465600, Note_on_c, 14, 93, 126
21, 465651, Note_off_c, 14, 86, 0
21, 465651, Note_off_c, 14, 93, 0
21, 465664, Note_on_c, 14, 86, 124
21, 465664, Note_on_c, 14, 93, 124
21, 465715, Note_off_c, 14, 86, 0
21, 465715, Note_off_c, 14, 93, 0
21, 465728, Note_on_c, 14, 86, 124
21, 465728, Note_on_c, 14, 93, 124
21, 465779, Note_off_c, 14, 86, 0
21, 465779, Note_off_c, 14, 93, 0
21, 466176, Note_on_c, 14, 86, 114
21, 466176, Note_on_c, 14, 93, 114
21, 466227, Note_off_c, 14, 86, 0
21, 466227, Note_off_c, 14, 93, 0
21, 466240, Note_on_c, 14, 86, 114
21, 466240, Note_on_c, 14, 93, 114
21, 466291, Note_off_c, 14, 86, 0
21, 466291, Note_off_c, 14, 93, 0
21, 466304, Note_on_c, 14, 86, 114
21, 466304, Note_on_c, 14, 93, 114
21, 466355, Note_off_c, 14, 86, 0
21, 466355, Note_off_c, 14, 93, 0
21, 466368, Note_on_c, 14, 86, 114
21, 466368, Note_on_c, 14, 93, 114
21, 466419, Note_off_c, 14, 86, 0
21, 466419, Note_off_c, 14, 93, 0
21, 466432, Note_on_c, 14, 86, 127
21, 466432, Note_on_c, 14, 93, 127
21, 466483, Note_off_c, 14, 86, 0
21, 466483, Note_off_c, 14, 93, 0
21, 466496, Note_on_c, 14, 86, 127
21, 466496, Note_on_c, 14, 93, 127
21, 466547, Note_off_c, 14, 86, 0
21, 466547, Note_off_c, 14, 93, 0
21, 466560, Note_on_c, 14, 86, 127
21, 466560, Note_on_c, 14, 93, 127
21, 466611, Note_off_c, 14, 86, 0
21, 466611, Note_off_c, 14, 93, 0
21, 466624, Note_on_c, 14, 86, 127
21, 466624, Note_on_c, 14, 93, 127
21, 466675, Note_off_c, 14, 86, 0
21, 466675, Note_off_c, 14, 93, 0
21, 466688, Note_on_c, 14, 86, 126
21, 466688, Note_on_c, 14, 93, 126
21, 466739, Note_off_c, 14, 86, 0
21, 466739, Note_off_c, 14, 93, 0
21, 466752, Note_on_c, 14, 86, 126
21, 466752, Note_on_c, 14, 93, 126
21, 466803, Note_off_c, 14, 86, 0
21, 466803, Note_off_c, 14, 93, 0
21, 466816, Note_on_c, 14, 86, 126
21, 466816, Note_on_c, 14, 93, 126
21, 466867, Note_off_c, 14, 86, 0
21, 466867, Note_off_c, 14, 93, 0
21, 466880, Note_on_c, 14, 86, 126
21, 466880, Note_on_c, 14, 93, 126
21, 466931, Note_off_c, 14, 86, 0
21, 466931, Note_off_c, 14, 93, 0
21, 466944, Note_on_c, 14, 86, 126
21, 466944, Note_on_c, 14, 93, 126
21, 466995, Note_off_c, 14, 86, 0
21, 466995, Note_off_c, 14, 93, 0
21, 467008, Note_on_c, 14, 86, 126
21, 467008, Note_on_c, 14, 93, 126
21, 467059, Note_off_c, 14, 86, 0
21, 467059, Note_off_c, 14, 93, 0
21, 467072, Note_on_c, 14, 86, 126
21, 467072, Note_on_c, 14, 93, 126
21, 467123, Note_off_c, 14, 86, 0
21, 467123, Note_off_c, 14, 93, 0
21, 467136, Note_on_c, 14, 86, 126
21, 467136, Note_on_c, 14, 93, 126
21, 467187, Note_off_c, 14, 86, 0
21, 467187, Note_off_c, 14, 93, 0
21, 467200, Note_on_c, 14, 86, 124
21, 467200, Note_on_c, 14, 93, 124
21, 467251, Note_off_c, 14, 86, 0
21, 467251, Note_off_c, 14, 93, 0
21, 467264, Note_on_c, 14, 86, 124
21, 467264, Note_on_c, 14, 93, 124
21, 467315, Note_off_c, 14, 86, 0
21, 467315, Note_off_c, 14, 93, 0
21, 467328, Note_on_c, 14, 86, 124
21, 467328, Note_on_c, 14, 93, 124
21, 467379, Note_off_c, 14, 86, 0
21, 467379, Note_off_c, 14, 93, 0
21, 467392, Note_on_c, 14, 86, 124
21, 467392, Note_on_c, 14, 93, 124
21, 467443, Note_off_c, 14, 86, 0
21, 467443, Note_off_c, 14, 93, 0
21, 467456, Note_on_c, 14, 86, 115
21, 467456, Note_on_c, 14, 93, 115
21, 467507, Note_off_c, 14, 86, 0
21, 467507, Note_off_c, 14, 93, 0
21, 467520, Note_on_c, 14, 86, 114
21, 467520, Note_on_c, 14, 93, 114
21, 467571, Note_off_c, 14, 86, 0
21, 467571, Note_off_c, 14, 93, 0
21, 467584, Note_on_c, 14, 86, 116
21, 467584, Note_on_c, 14, 93, 116
21, 467635, Note_off_c, 14, 86, 0
21, 467635, Note_off_c, 14, 93, 0
21, 467648, Note_on_c, 14, 86, 117
21, 467648, Note_on_c, 14, 93, 117
21, 467699, Note_off_c, 14, 86, 0
21, 467699, Note_off_c, 14, 93, 0
21, 467712, Note_on_c, 14, 86, 123
21, 467712, Note_on_c, 14, 93, 123
21, 467763, Note_off_c, 14, 86, 0
21, 467763, Note_off_c, 14, 93, 0
21, 467776, Note_on_c, 14, 86, 121
21, 467776, Note_on_c, 14, 93, 121
21, 467827, Note_off_c, 14, 86, 0
21, 467827, Note_off_c, 14, 93, 0
21, 467840, Note_on_c, 14, 86, 122
21, 467840, Note_on_c, 14, 93, 122
21, 467891, Note_off_c, 14, 86, 0
21, 467891, Note_off_c, 14, 93, 0
21, 467904, Note_on_c, 14, 86, 124
21, 467904, Note_on_c, 14, 93, 124
21, 467955, Note_off_c, 14, 86, 0
21, 467955, Note_off_c, 14, 93, 0
21, 467968, Note_on_c, 14, 86, 124
21, 467968, Note_on_c, 14, 93, 124
21, 468019, Note_off_c, 14, 86, 0
21, 468019, Note_off_c, 14, 93, 0
21, 468032, Note_on_c, 14, 86, 124
21, 468032, Note_on_c, 14, 93, 124
21, 468083, Note_off_c, 14, 86, 0
21, 468083, Note_off_c, 14, 93, 0
21, 468096, Note_on_c, 14, 86, 124
21, 468096, Note_on_c, 14, 93, 124
21, 468147, Note_off_c, 14, 86, 0
21, 468147, Note_off_c, 14, 93, 0
21, 468160, Note_on_c, 14, 86, 124
21, 468160, Note_on_c, 14, 93, 124
21, 468211, Note_off_c, 14, 86, 0
21, 468211, Note_off_c, 14, 93, 0
21, 468212, End_track
22, 0, Start_track
22, 0, Program_c, 13, 48
22, 0, Control_c, 13, 121, 0
22, 0, Control_c, 13, 64, 0
22, 0, Control_c, 13, 91, 72
22, 0, Control_c, 13, 10, 95
22, 0, Control_c, 13, 7, 95
22, 0, Control_c, 13, 121, 0
22, 0, Control_c, 13, 64, 0
22, 0, Control_c, 13, 91, 72
22, 0, Control_c, 13, 10, 95
22, 0, Control_c, 13, 7, 95
22, 0, Title_t, "Double Bass"
22, 9984, Note_on_c, 13, 35, 64
22, 9984, Note_on_c, 13, 38, 64
22, 9984, Note_on_c, 13, 42, 64
22, 11008, Note_off_c, 13, 35, 0
22, 11008, Note_off_c, 13, 38, 0
22, 11008, Note_off_c, 13, 42, 0
22, 11008, Note_on_c, 13, 33, 85
22, 11008, Note_on_c, 13, 49, 85
22, 11008, Note_on_c, 13, 52, 85
22, 11008, Note_on_c, 13, 55, 85
22, 11648, Note_off_c, 13, 33, 0
22, 11648, Note_off_c, 13, 49, 0
22, 11648, Note_off_c, 13, 52, 0
22, 11648, Note_off_c, 13, 55, 0
22, 11648, Note_on_c, 13, 47, 69
22, 11648, Note_on_c, 13, 50, 69
22, 11648, Note_on_c, 13, 55, 69
22, 12032, Note_off_c, 13, 47, 0
22, 12032, Note_off_c, 13, 50, 0
22, 12032, Note_off_c, 13, 55, 0
22, 12032, Note_on_c, 13, 33, 73
22, 12032, Note_on_c, 13, 52, 73
22, 12032, Note_on_c, 13, 55, 73
22, 12672, Note_off_c, 13, 33, 0
22, 12672, Note_off_c, 13, 52, 0
22, 12672, Note_off_c, 13, 55, 0
22, 12672, Note_on_c, 13, 47, 68
22, 12672, Note_on_c, 13, 50, 68
22, 12672, Note_on_c, 13, 55, 68
22, 12800, Note_on_c, 13, 33, 68
22, 12800, Note_on_c, 13, 49, 68
22, 12802, Note_off_c, 13, 47, 0
22, 13043, Note_off_c, 13, 33, 0
22, 13043, Note_off_c, 13, 49, 0
22, 13056, Note_on_c, 13, 31, 69
22, 13056, Note_on_c, 13, 46, 69
22, 13056, Note_on_c, 13, 50, 69
22, 13056, Note_on_c, 13, 55, 69
22, 13063, Note_off_c, 13, 50, 0
22, 13063, Note_off_c, 13, 55, 0
22, 13312, Note_off_c, 13, 31, 0
22, 13312, Note_off_c, 13, 50, 0
22, 13824, Note_off_c, 13, 55, 0
22, 13824, Note_on_c, 13, 57, 101
22, 14080, Note_off_c, 13, 57, 0
22, 14080, Note_on_c, 13, 48, 67
22, 14080, Note_on_c, 13, 52, 67
22, 14592, Note_off_c, 13, 46, 0
22, 14592, Note_off_c, 13, 48, 0
22, 14592, Note_off_c, 13, 52, 0
22, 14592, Note_on_c, 13, 34, 65
22, 14592, Note_on_c, 13, 43, 65
22, 14592, Note_on_c, 13, 50, 65
22, 14592, Note_on_c, 13, 55, 65
22, 14912, Note_off_c, 13, 34, 0
22, 14912, Note_off_c, 13, 43, 0
22, 14912, Note_off_c, 13, 50, 0
22, 14912, Note_off_c, 13, 55, 0
22, 15488, Note_on_c, 13, 35, 50
22, 15488, Note_on_c, 13, 39, 50
22, 15488, Note_on_c, 13, 43, 50
22, 15744, Note_off_c, 13, 35, 0
22, 15744, Note_off_c, 13, 39, 0
22, 15744, Note_off_c, 13, 43, 0
22, 16256, Note_on_c, 13, 35, 57
22, 16256, Note_on_c, 13, 39, 57
22, 16256, Note_on_c, 13, 43, 57
22, 16512, Note_off_c, 13, 35, 0
22, 16512, Note_off_c, 13, 39, 0
22, 16512, Note_off_c, 13, 43, 0
22, 16640, Note_on_c, 13, 35, 53
22, 16640, Note_on_c, 13, 50, 53
22, 16640, Note_on_c, 13, 53, 53
22, 16640, Note_on_c, 13, 55, 53
22, 16896, Note_off_c, 13, 35, 0
22, 16896, Note_off_c, 13, 50, 0
22, 16896, Note_off_c, 13, 53, 0
22, 16896, Note_off_c, 13, 55, 0
22, 17152, Note_on_c, 13, 41, 56
22, 17152, Note_on_c, 13, 50, 56
22, 17152, Note_on_c, 13, 53, 56
22, 17152, Note_on_c, 13, 55, 56
22, 17408, Note_off_c, 13, 41, 0
22, 17408, Note_off_c, 13, 50, 0
22, 17408, Note_off_c, 13, 53, 0
22, 17408, Note_off_c, 13, 55, 0
22, 17664, Note_on_c, 13, 35, 59
22, 17664, Note_on_c, 13, 51, 59
22, 17664, Note_on_c, 13, 53, 59
22, 17664, Note_on_c, 13, 55, 59
22, 18176, Note_off_c, 13, 35, 0
22, 18176, Note_off_c, 13, 51, 0
22, 18176, Note_off_c, 13, 53, 0
22, 18176, Note_off_c, 13, 55, 0
22, 18560, Note_on_c, 13, 36, 54
22, 18560, Note_on_c, 13, 51, 54
22, 18560, Note_on_c, 13, 53, 54
22, 18560, Note_on_c, 13, 55, 54
22, 19072, Note_off_c, 13, 36, 0
22, 19072, Note_off_c, 13, 51, 0
22, 19072, Note_off_c, 13, 53, 0
22, 19072, Note_off_c, 13, 55, 0
22, 19200, Note_on_c, 13, 48, 55
22, 19200, Note_on_c, 13, 51, 55
22, 19200, Note_on_c, 13, 54, 55
22, 19200, Note_on_c, 13, 56, 55
22, 19712, Note_off_c, 13, 48, 0
22, 19712, Note_off_c, 13, 51, 0
22, 19712, Note_off_c, 13, 54, 0
22, 19712, Note_off_c, 13, 56, 0
22, 19968, Note_on_c, 13, 37, 55
22, 19968, Note_on_c, 13, 52, 55
22, 19968, Note_on_c, 13, 55, 55
22, 19968, Note_on_c, 13, 57, 55
22, 20480, Note_off_c, 13, 37, 0
22, 20480, Note_off_c, 13, 52, 0
22, 20480, Note_off_c, 13, 55, 0
22, 20480, Note_off_c, 13, 57, 0
22, 20992, Note_on_c, 13, 49, 49
22, 20992, Note_on_c, 13, 52, 49
22, 20992, Note_on_c, 13, 56, 49
22, 20992, Note_on_c, 13, 58, 49
22, 21504, Note_off_c, 13, 49, 0
22, 21504, Note_off_c, 13, 52, 0
22, 21504, Note_off_c, 13, 56, 0
22, 21504, Note_off_c, 13, 58, 0
22, 22016, Note_on_c, 13, 38, 55
22, 22016, Note_on_c, 13, 53, 55
22, 22016, Note_on_c, 13, 56, 55
22, 22016, Note_on_c, 13, 58, 55
22, 22528, Note_off_c, 13, 38, 0
22, 22528, Note_off_c, 13, 53, 0
22, 22528, Note_off_c, 13, 56, 0
22, 22528, Note_off_c, 13, 58, 0
22, 23040, Note_on_c, 13, 50, 57
22, 23040, Note_on_c, 13, 53, 57
22, 23040, Note_on_c, 13, 57, 57
22, 23040, Note_on_c, 13, 59, 57
22, 23552, Note_off_c, 13, 50, 0
22, 23552, Note_off_c, 13, 53, 0
22, 23552, Note_off_c, 13, 57, 0
22, 23552, Note_off_c, 13, 59, 0
22, 24064, Note_on_c, 13, 38, 54
22, 24064, Note_on_c, 13, 42, 54
22, 24064, Note_on_c, 13, 44, 54
22, 24064, Note_on_c, 13, 47, 54
22, 24320, Note_off_c, 13, 38, 0
22, 24320, Note_off_c, 13, 42, 0
22, 24320, Note_off_c, 13, 44, 0
22, 24320, Note_off_c, 13, 47, 0
22, 24960, Note_on_c, 13, 50, 51
22, 24960, Note_on_c, 13, 55, 51
22, 24960, Note_on_c, 13, 58, 51
22, 25344, Note_off_c, 13, 50, 0
22, 25344, Note_off_c, 13, 55, 0
22, 25344, Note_off_c, 13, 58, 0
22, 25984, Note_on_c, 13, 43, 52
22, 25984, Note_on_c, 13, 46, 52
22, 25984, Note_on_c, 13, 50, 52
22, 25984, Note_on_c, 13, 51, 52
22, 26368, Note_off_c, 13, 43, 0
22, 26368, Note_off_c, 13, 46, 0
22, 26368, Note_off_c, 13, 50, 0
22, 26368, Note_off_c, 13, 51, 0
22, 26880, Note_on_c, 13, 43, 50
22, 26880, Note_on_c, 13, 46, 50
22, 26880, Note_on_c, 13, 53, 50
22, 27136, Note_off_c, 13, 43, 0
22, 27136, Note_off_c, 13, 46, 0
22, 27136, Note_off_c, 13, 53, 0
22, 32768, Program_c, 14, 48
22, 32768, Control_c, 14, 7, 95
22, 32768, Control_c, 14, 10, 95
22, 32768, Control_c, 14, 91, 72
22, 37717, Note_on_c, 14, 55, 116
22, 37802, Note_on_c, 14, 56, 116
22, 37803, Note_off_c, 14, 55, 0
22, 37888, Note_on_c, 14, 57, 127
22, 37889, Note_off_c, 14, 56, 0
22, 37952, Note_on_c, 14, 69, 127
22, 37953, Note_off_c, 14, 57, 0
22, 38134, Note_off_c, 14, 69, 0
22, 38144, Note_on_c, 14, 66, 125
22, 38314, Note_on_c, 14, 67, 127
22, 38317, Note_off_c, 14, 66, 0
22, 38557, Note_off_c, 14, 67, 0
22, 38570, Note_on_c, 14, 60, 104
22, 38656, Note_on_c, 14, 61, 104
22, 38657, Note_off_c, 14, 60, 0
22, 38777, Note_off_c, 14, 61, 0
22, 38784, Note_on_c, 14, 62, 127
22, 38848, Note_on_c, 14, 76, 120
22, 38849, Note_off_c, 14, 62, 0
22, 39030, Note_off_c, 14, 76, 0
22, 39040, Note_on_c, 14, 72, 86
22, 39168, Note_on_c, 14, 73, 92
22, 39170, Note_off_c, 14, 72, 0
22, 39411, Note_off_c, 14, 73, 0
22, 39424, Note_on_c, 14, 69, 88
22, 39552, Note_on_c, 14, 70, 102
22, 39554, Note_off_c, 14, 69, 0
22, 39680, Note_on_c, 14, 72, 108
22, 39682, Note_off_c, 14, 70, 0
22, 39808, Note_on_c, 14, 73, 120
22, 39810, Note_off_c, 14, 72, 0
22, 39929, Note_off_c, 14, 73, 0
22, 39936, Note_on_c, 14, 84, 127
22, 40192, Note_on_c, 14, 82, 126
22, 40197, Note_off_c, 14, 84, 0
22, 40556, Note_off_c, 14, 82, 0
22, 40576, Note_on_c, 14, 80, 108
22, 40789, Note_on_c, 14, 82, 114
22, 40793, Note_off_c, 14, 80, 0
22, 40874, Note_on_c, 14, 83, 121
22, 40875, Note_off_c, 14, 82, 0
22, 40960, Note_on_c, 14, 84, 125
22, 40961, Note_off_c, 14, 83, 0
22, 41024, Note_on_c, 14, 94, 126
22, 41025, Note_off_c, 14, 84, 0
22, 41206, Note_off_c, 14, 94, 0
22, 41216, Note_on_c, 14, 86, 80
22, 41472, Note_off_c, 14, 86, 0
22, 41472, Note_on_c, 14, 55, 107
22, 41728, Note_on_c, 14, 56, 106
22, 41733, Note_off_c, 14, 55, 0
22, 41849, Note_off_c, 14, 56, 0
22, 41856, Note_on_c, 14, 92, 121
22, 42112, Note_off_c, 14, 92, 0
22, 42112, Note_on_c, 14, 82, 74
22, 42325, Note_off_c, 14, 82, 0
22, 42325, Note_on_c, 14, 57, 109
22, 42410, Note_off_c, 14, 57, 0
22, 42410, Note_on_c, 14, 58, 127
22, 42624, Note_off_c, 14, 58, 0
22, 42624, Note_on_c, 14, 96, 126
22, 42880, Note_on_c, 14, 94, 125
22, 42885, Note_off_c, 14, 96, 0
22, 43001, Note_off_c, 14, 94, 0
22, 43008, Note_on_c, 14, 60, 98
22, 43136, Note_on_c, 14, 61, 94
22, 43138, Note_off_c, 14, 60, 0
22, 43196, Note_off_c, 14, 61, 0
22, 43200, Note_on_c, 14, 97, 124
22, 43456, Note_off_c, 14, 97, 0
22, 43456, Note_on_c, 14, 99, 103
22, 43861, Note_off_c, 14, 99, 0
22, 43861, Note_on_c, 14, 101, 100
22, 44288, Note_off_c, 14, 101, 0
22, 44288, Note_on_c, 14, 103, 41
22, 44800, Note_off_c, 14, 103, 0
22, 52224, Program_c, 15, 45
22, 52224, Control_c, 15, 7, 95
22, 52224, Control_c, 15, 10, 95
22, 52224, Control_c, 15, 91, 72
22, 52928, Note_on_c, 15, 58, 77
22, 52928, Note_on_c, 15, 62, 77
22, 52928, Note_on_c, 15, 66, 77
22, 52928, Note_on_c, 15, 69, 77
22, 52992, Note_off_c, 15, 58, 0
22, 52992, Note_off_c, 15, 62, 0
22, 52992, Note_off_c, 15, 66, 0
22, 52992, Note_off_c, 15, 69, 0
22, 53184, Note_on_c, 15, 58, 73
22, 53184, Note_on_c, 15, 62, 73
22, 53184, Note_on_c, 15, 66, 73
22, 53184, Note_on_c, 15, 69, 73
22, 53248, Note_off_c, 15, 58, 0
22, 53248, Note_off_c, 15, 62, 0
22, 53248, Note_off_c, 15, 66, 0
22, 53248, Note_off_c, 15, 69, 0
22, 53440, Note_on_c, 15, 58, 71
22, 53440, Note_on_c, 15, 62, 71
22, 53440, Note_on_c, 15, 66, 71
22, 53440, Note_on_c, 15, 69, 71
22, 53504, Note_off_c, 15, 58, 0
22, 53504, Note_off_c, 15, 62, 0
22, 53504, Note_off_c, 15, 66, 0
22, 53504, Note_off_c, 15, 69, 0
22, 53696, Note_on_c, 15, 58, 73
22, 53696, Note_on_c, 15, 62, 73
22, 53696, Note_on_c, 15, 66, 73
22, 53696, Note_on_c, 15, 69, 73
22, 53760, Note_off_c, 15, 58, 0
22, 53760, Note_off_c, 15, 62, 0
22, 53760, Note_off_c, 15, 66, 0
22, 53760, Note_off_c, 15, 69, 0
22, 53952, Note_on_c, 15, 58, 74
22, 53952, Note_on_c, 15, 62, 74
22, 53952, Note_on_c, 15, 66, 74
22, 53952, Note_on_c, 15, 69, 74
22, 54016, Note_off_c, 15, 58, 0
22, 54016, Note_off_c, 15, 62, 0
22, 54016, Note_off_c, 15, 66, 0
22, 54016, Note_off_c, 15, 69, 0
22, 54208, Note_on_c, 15, 58, 71
22, 54208, Note_on_c, 15, 62, 71
22, 54208, Note_on_c, 15, 66, 71
22, 54208, Note_on_c, 15, 69, 71
22, 54272, Note_off_c, 15, 58, 0
22, 54272, Note_off_c, 15, 62, 0
22, 54272, Note_off_c, 15, 66, 0
22, 54272, Note_off_c, 15, 69, 0
22, 54464, Note_on_c, 15, 55, 72
22, 54464, Note_on_c, 15, 58, 72
22, 54464, Note_on_c, 15, 66, 72
22, 54464, Note_on_c, 15, 69, 72
22, 54528, Note_off_c, 15, 55, 0
22, 54528, Note_off_c, 15, 58, 0
22, 54528, Note_off_c, 15, 66, 0
22, 54528, Note_off_c, 15, 69, 0
22, 54720, Note_on_c, 15, 55, 77
22, 54720, Note_on_c, 15, 62, 77
22, 54720, Note_on_c, 15, 66, 77
22, 54784, Note_off_c, 15, 55, 0
22, 54784, Note_off_c, 15, 62, 0
22, 54784, Note_off_c, 15, 66, 0
22, 54848, Note_on_c, 15, 55, 77
22, 54848, Note_on_c, 15, 62, 77
22, 54848, Note_on_c, 15, 66, 77
22, 54912, Note_off_c, 15, 55, 0
22, 54912, Note_off_c, 15, 62, 0
22, 54912, Note_off_c, 15, 66, 0
22, 54976, Note_on_c, 15, 55, 76
22, 54976, Note_on_c, 15, 62, 76
22, 54976, Note_on_c, 15, 66, 76
22, 55040, Note_off_c, 15, 55, 0
22, 55040, Note_off_c, 15, 62, 0
22, 55040, Note_off_c, 15, 66, 0
22, 55104, Note_on_c, 15, 55, 76
22, 55104, Note_on_c, 15, 62, 76
22, 55104, Note_on_c, 15, 66, 76
22, 55168, Note_off_c, 15, 55, 0
22, 55168, Note_off_c, 15, 62, 0
22, 55168, Note_off_c, 15, 66, 0
22, 55360, Note_on_c, 15, 58, 74
22, 55360, Note_on_c, 15, 62, 74
22, 55360, Note_on_c, 15, 66, 74
22, 55424, Note_off_c, 15, 58, 0
22, 55424, Note_off_c, 15, 62, 0
22, 55424, Note_off_c, 15, 66, 0
22, 55616, Note_on_c, 15, 58, 73
22, 55616, Note_on_c, 15, 61, 73
22, 55616, Note_on_c, 15, 65, 73
22, 55616, Note_on_c, 15, 68, 73
22, 55680, Note_off_c, 15, 58, 0
22, 55680, Note_off_c, 15, 61, 0
22, 55680, Note_off_c, 15, 65, 0
22, 55680, Note_off_c, 15, 68, 0
22, 55872, Note_on_c, 15, 58, 76
22, 55872, Note_on_c, 15, 61, 76
22, 55872, Note_on_c, 15, 65, 76
22, 55872, Note_on_c, 15, 68, 76
22, 55936, Note_off_c, 15, 58, 0
22, 55936, Note_off_c, 15, 61, 0
22, 55936, Note_off_c, 15, 65, 0
22, 55936, Note_off_c, 15, 68, 0
22, 56128, Note_on_c, 15, 58, 77
22, 56128, Note_on_c, 15, 61, 77
22, 56128, Note_on_c, 15, 65, 77
22, 56128, Note_on_c, 15, 68, 77
22, 56192, Note_off_c, 15, 58, 0
22, 56192, Note_off_c, 15, 61, 0
22, 56192, Note_off_c, 15, 65, 0
22, 56192, Note_off_c, 15, 68, 0
22, 56384, Note_on_c, 15, 58, 76
22, 56384, Note_on_c, 15, 61, 76
22, 56384, Note_on_c, 15, 65, 76
22, 56384, Note_on_c, 15, 68, 76
22, 56448, Note_off_c, 15, 58, 0
22, 56448, Note_off_c, 15, 61, 0
22, 56448, Note_off_c, 15, 65, 0
22, 56448, Note_off_c, 15, 68, 0
22, 56640, Note_on_c, 15, 58, 75
22, 56640, Note_on_c, 15, 61, 75
22, 56640, Note_on_c, 15, 65, 75
22, 56640, Note_on_c, 15, 68, 75
22, 56704, Note_off_c, 15, 58, 0
22, 56704, Note_off_c, 15, 61, 0
22, 56704, Note_off_c, 15, 65, 0
22, 56704, Note_off_c, 15, 68, 0
22, 56768, Note_on_c, 15, 58, 71
22, 56768, Note_on_c, 15, 61, 71
22, 56768, Note_on_c, 15, 65, 71
22, 56768, Note_on_c, 15, 68, 71
22, 56832, Note_off_c, 15, 58, 0
22, 56832, Note_off_c, 15, 61, 0
22, 56832, Note_off_c, 15, 65, 0
22, 56832, Note_off_c, 15, 68, 0
22, 56896, Note_on_c, 15, 58, 79
22, 56896, Note_on_c, 15, 61, 79
22, 56896, Note_on_c, 15, 65, 79
22, 56896, Note_on_c, 15, 68, 79
22, 56960, Note_off_c, 15, 58, 0
22, 56960, Note_off_c, 15, 61, 0
22, 56960, Note_off_c, 15, 65, 0
22, 56960, Note_off_c, 15, 68, 0
22, 57024, Note_on_c, 15, 57, 76
22, 57024, Note_on_c, 15, 61, 76
22, 57024, Note_on_c, 15, 66, 76
22, 57024, Note_on_c, 15, 69, 76
22, 57088, Note_off_c, 15, 57, 0
22, 57088, Note_off_c, 15, 61, 0
22, 57088, Note_off_c, 15, 66, 0
22, 57088, Note_off_c, 15, 69, 0
22, 57280, Note_on_c, 15, 57, 72
22, 57280, Note_on_c, 15, 61, 72
22, 57280, Note_on_c, 15, 66, 72
22, 57280, Note_on_c, 15, 69, 72
22, 57344, Note_off_c, 15, 57, 0
22, 57344, Note_off_c, 15, 61, 0
22, 57344, Note_off_c, 15, 66, 0
22, 57344, Note_off_c, 15, 69, 0
22, 57408, Note_on_c, 15, 57, 78
22, 57408, Note_on_c, 15, 61, 78
22, 57408, Note_on_c, 15, 66, 78
22, 57408, Note_on_c, 15, 69, 78
22, 57472, Note_off_c, 15, 57, 0
22, 57472, Note_off_c, 15, 61, 0
22, 57472, Note_off_c, 15, 66, 0
22, 57472, Note_off_c, 15, 69, 0
22, 57664, Note_on_c, 15, 58, 80
22, 57664, Note_on_c, 15, 61, 80
22, 57664, Note_on_c, 15, 65, 80
22, 57664, Note_on_c, 15, 68, 80
22, 57728, Note_off_c, 15, 58, 0
22, 57728, Note_off_c, 15, 61, 0
22, 57728, Note_off_c, 15, 65, 0
22, 57728, Note_off_c, 15, 68, 0
22, 57792, Note_on_c, 15, 58, 80
22, 57792, Note_on_c, 15, 61, 80
22, 57792, Note_on_c, 15, 65, 80
22, 57792, Note_on_c, 15, 68, 80
22, 57856, Note_off_c, 15, 58, 0
22, 57856, Note_off_c, 15, 61, 0
22, 57856, Note_off_c, 15, 65, 0
22, 57856, Note_off_c, 15, 68, 0
22, 58048, Note_on_c, 15, 58, 78
22, 58048, Note_on_c, 15, 61, 78
22, 58048, Note_on_c, 15, 65, 78
22, 58048, Note_on_c, 15, 68, 78
22, 58112, Note_off_c, 15, 58, 0
22, 58112, Note_off_c, 15, 61, 0
22, 58112, Note_off_c, 15, 65, 0
22, 58112, Note_off_c, 15, 68, 0
22, 58176, Note_on_c, 15, 58, 84
22, 58176, Note_on_c, 15, 61, 84
22, 58176, Note_on_c, 15, 65, 84
22, 58176, Note_on_c, 15, 68, 84
22, 58240, Note_off_c, 15, 58, 0
22, 58240, Note_off_c, 15, 61, 0
22, 58240, Note_off_c, 15, 65, 0
22, 58240, Note_off_c, 15, 68, 0
22, 58432, Note_on_c, 15, 58, 84
22, 58432, Note_on_c, 15, 61, 84
22, 58432, Note_on_c, 15, 65, 84
22, 58432, Note_on_c, 15, 68, 84
22, 58496, Note_off_c, 15, 58, 0
22, 58496, Note_off_c, 15, 61, 0
22, 58496, Note_off_c, 15, 65, 0
22, 58496, Note_off_c, 15, 68, 0
22, 58560, Note_on_c, 15, 57, 92
22, 58560, Note_on_c, 15, 62, 92
22, 58560, Note_on_c, 15, 66, 92
22, 58560, Note_on_c, 15, 69, 92
22, 58624, Note_off_c, 15, 57, 0
22, 58624, Note_off_c, 15, 62, 0
22, 58624, Note_off_c, 15, 66, 0
22, 58624, Note_off_c, 15, 69, 0
22, 58688, Note_on_c, 15, 57, 88
22, 58688, Note_on_c, 15, 62, 88
22, 58688, Note_on_c, 15, 66, 88
22, 58688, Note_on_c, 15, 69, 88
22, 58752, Note_off_c, 15, 57, 0
22, 58752, Note_off_c, 15, 62, 0
22, 58752, Note_off_c, 15, 66, 0
22, 58752, Note_off_c, 15, 69, 0
22, 58816, Note_on_c, 15, 57, 92
22, 58816, Note_on_c, 15, 62, 92
22, 58816, Note_on_c, 15, 66, 92
22, 58816, Note_on_c, 15, 69, 92
22, 58880, Note_off_c, 15, 57, 0
22, 58880, Note_off_c, 15, 62, 0
22, 58880, Note_off_c, 15, 66, 0
22, 58880, Note_off_c, 15, 69, 0
22, 59072, Note_on_c, 15, 57, 86
22, 59072, Note_on_c, 15, 62, 86
22, 59072, Note_on_c, 15, 66, 86
22, 59072, Note_on_c, 15, 69, 86
22, 59136, Note_off_c, 15, 57, 0
22, 59136, Note_off_c, 15, 62, 0
22, 59136, Note_off_c, 15, 66, 0
22, 59136, Note_off_c, 15, 69, 0
22, 59328, Note_on_c, 15, 58, 86
22, 59328, Note_on_c, 15, 61, 86
22, 59328, Note_on_c, 15, 65, 86
22, 59328, Note_on_c, 15, 68, 86
22, 59392, Note_off_c, 15, 58, 0
22, 59392, Note_off_c, 15, 61, 0
22, 59392, Note_off_c, 15, 65, 0
22, 59392, Note_off_c, 15, 68, 0
22, 59584, Note_on_c, 15, 58, 82
22, 59584, Note_on_c, 15, 61, 82
22, 59584, Note_on_c, 15, 65, 82
22, 59584, Note_on_c, 15, 68, 82
22, 59648, Note_off_c, 15, 58, 0
22, 59648, Note_off_c, 15, 61, 0
22, 59648, Note_off_c, 15, 65, 0
22, 59648, Note_off_c, 15, 68, 0
22, 59840, Note_on_c, 15, 58, 89
22, 59840, Note_on_c, 15, 61, 89
22, 59840, Note_on_c, 15, 65, 89
22, 59840, Note_on_c, 15, 68, 89
22, 59904, Note_off_c, 15, 58, 0
22, 59904, Note_off_c, 15, 61, 0
22, 59904, Note_off_c, 15, 65, 0
22, 59904, Note_off_c, 15, 68, 0
22, 59968, Note_on_c, 15, 57, 94
22, 59968, Note_on_c, 15, 61, 94
22, 59968, Note_on_c, 15, 69, 94
22, 59968, Note_on_c, 15, 72, 94
22, 60032, Note_off_c, 15, 57, 0
22, 60032, Note_off_c, 15, 61, 0
22, 60032, Note_off_c, 15, 69, 0
22, 60032, Note_off_c, 15, 72, 0
22, 60224, Note_on_c, 15, 57, 87
22, 60224, Note_on_c, 15, 61, 87
22, 60224, Note_on_c, 15, 69, 87
22, 60224, Note_on_c, 15, 72, 87
22, 60288, Note_off_c, 15, 57, 0
22, 60288, Note_off_c, 15, 61, 0
22, 60288, Note_off_c, 15, 69, 0
22, 60288, Note_off_c, 15, 72, 0
22, 60352, Note_on_c, 15, 57, 91
22, 60352, Note_on_c, 15, 61, 91
22, 60352, Note_on_c, 15, 69, 91
22, 60352, Note_on_c, 15, 72, 91
22, 60416, Note_off_c, 15, 57, 0
22, 60416, Note_off_c, 15, 61, 0
22, 60416, Note_off_c, 15, 69, 0
22, 60416, Note_off_c, 15, 72, 0
22, 60608, Note_on_c, 15, 57, 90
22, 60608, Note_on_c, 15, 61, 90
22, 60608, Note_on_c, 15, 65, 90
22, 60608, Note_on_c, 15, 69, 90
22, 60608, Note_on_c, 15, 72, 90
22, 60672, Note_off_c, 15, 57, 0
22, 60672, Note_off_c, 15, 61, 0
22, 60672, Note_off_c, 15, 65, 0
22, 60672, Note_off_c, 15, 69, 0
22, 60672, Note_off_c, 15, 72, 0
22, 60736, Note_on_c, 15, 57, 86
22, 60736, Note_on_c, 15, 61, 86
22, 60736, Note_on_c, 15, 65, 86
22, 60736, Note_on_c, 15, 69, 86
22, 60736, Note_on_c, 15, 72, 86
22, 60800, Note_off_c, 15, 57, 0
22, 60800, Note_off_c, 15, 61, 0
22, 60800, Note_off_c, 15, 65, 0
22, 60800, Note_off_c, 15, 69, 0
22, 60800, Note_off_c, 15, 72, 0
22, 60992, Note_on_c, 15, 57, 90
22, 60992, Note_on_c, 15, 61, 90
22, 60992, Note_on_c, 15, 65, 90
22, 60992, Note_on_c, 15, 69, 90
22, 60992, Note_on_c, 15, 72, 90
22, 61056, Note_off_c, 15, 57, 0
22, 61056, Note_off_c, 15, 61, 0
22, 61056, Note_off_c, 15, 65, 0
22, 61056, Note_off_c, 15, 69, 0
22, 61056, Note_off_c, 15, 72, 0
22, 61120, Note_on_c, 15, 58, 88
22, 61120, Note_on_c, 15, 61, 88
22, 61120, Note_on_c, 15, 65, 88
22, 61120, Note_on_c, 15, 69, 88
22, 61120, Note_on_c, 15, 72, 88
22, 61184, Note_off_c, 15, 58, 0
22, 61184, Note_off_c, 15, 61, 0
22, 61184, Note_off_c, 15, 65, 0
22, 61184, Note_off_c, 15, 69, 0
22, 61184, Note_off_c, 15, 72, 0
22, 61248, Note_on_c, 15, 58, 90
22, 61248, Note_on_c, 15, 61, 90
22, 61248, Note_on_c, 15, 65, 90
22, 61248, Note_on_c, 15, 69, 90
22, 61248, Note_on_c, 15, 72, 90
22, 61312, Note_off_c, 15, 58, 0
22, 61312, Note_off_c, 15, 61, 0
22, 61312, Note_off_c, 15, 65, 0
22, 61312, Note_off_c, 15, 69, 0
22, 61312, Note_off_c, 15, 72, 0
22, 61376, Note_on_c, 15, 58, 91
22, 61376, Note_on_c, 15, 61, 91
22, 61376, Note_on_c, 15, 65, 91
22, 61376, Note_on_c, 15, 69, 91
22, 61376, Note_on_c, 15, 72, 91
22, 61440, Note_off_c, 15, 58, 0
22, 61440, Note_off_c, 15, 61, 0
22, 61440, Note_off_c, 15, 65, 0
22, 61440, Note_off_c, 15, 69, 0
22, 61440, Note_off_c, 15, 72, 0
22, 61504, Note_on_c, 15, 58, 87
22, 61504, Note_on_c, 15, 61, 87
22, 61504, Note_on_c, 15, 65, 87
22, 61504, Note_on_c, 15, 69, 87
22, 61504, Note_on_c, 15, 72, 87
22, 61568, Note_off_c, 15, 58, 0
22, 61568, Note_off_c, 15, 61, 0
22, 61568, Note_off_c, 15, 65, 0
22, 61568, Note_off_c, 15, 69, 0
22, 61568, Note_off_c, 15, 72, 0
22, 61632, Note_on_c, 15, 58, 88
22, 61632, Note_on_c, 15, 61, 88
22, 61632, Note_on_c, 15, 65, 88
22, 61632, Note_on_c, 15, 68, 88
22, 61632, Note_on_c, 15, 73, 88
22, 61696, Note_off_c, 15, 58, 0
22, 61696, Note_off_c, 15, 61, 0
22, 61696, Note_off_c, 15, 65, 0
22, 61696, Note_off_c, 15, 68, 0
22, 61696, Note_off_c, 15, 73, 0
22, 61888, Note_on_c, 15, 58, 84
22, 61888, Note_on_c, 15, 61, 84
22, 61888, Note_on_c, 15, 65, 84
22, 61888, Note_on_c, 15, 68, 84
22, 61888, Note_on_c, 15, 73, 84
22, 61952, Note_off_c, 15, 58, 0
22, 61952, Note_off_c, 15, 61, 0
22, 61952, Note_off_c, 15, 65, 0
22, 61952, Note_off_c, 15, 68, 0
22, 61952, Note_off_c, 15, 73, 0
22, 62016, Note_on_c, 15, 58, 85
22, 62016, Note_on_c, 15, 61, 85
22, 62016, Note_on_c, 15, 65, 85
22, 62016, Note_on_c, 15, 68, 85
22, 62016, Note_on_c, 15, 73, 85
22, 62080, Note_off_c, 15, 58, 0
22, 62080, Note_off_c, 15, 61, 0
22, 62080, Note_off_c, 15, 65, 0
22, 62080, Note_off_c, 15, 68, 0
22, 62080, Note_off_c, 15, 73, 0
22, 62144, Note_on_c, 15, 58, 87
22, 62144, Note_on_c, 15, 61, 87
22, 62144, Note_on_c, 15, 65, 87
22, 62144, Note_on_c, 15, 68, 87
22, 62144, Note_on_c, 15, 73, 87
22, 62208, Note_off_c, 15, 58, 0
22, 62208, Note_off_c, 15, 61, 0
22, 62208, Note_off_c, 15, 65, 0
22, 62208, Note_off_c, 15, 68, 0
22, 62208, Note_off_c, 15, 73, 0
22, 62272, Note_on_c, 15, 58, 87
22, 62272, Note_on_c, 15, 61, 87
22, 62272, Note_on_c, 15, 65, 87
22, 62272, Note_on_c, 15, 68, 87
22, 62272, Note_on_c, 15, 73, 87
22, 62336, Note_off_c, 15, 58, 0
22, 62336, Note_off_c, 15, 61, 0
22, 62336, Note_off_c, 15, 65, 0
22, 62336, Note_off_c, 15, 68, 0
22, 62336, Note_off_c, 15, 73, 0
22, 62400, Note_on_c, 15, 58, 84
22, 62400, Note_on_c, 15, 61, 84
22, 62400, Note_on_c, 15, 65, 84
22, 62400, Note_on_c, 15, 68, 84
22, 62400, Note_on_c, 15, 73, 84
22, 62464, Note_off_c, 15, 58, 0
22, 62464, Note_off_c, 15, 61, 0
22, 62464, Note_off_c, 15, 65, 0
22, 62464, Note_off_c, 15, 68, 0
22, 62464, Note_off_c, 15, 73, 0
22, 62528, Note_on_c, 15, 57, 90
22, 62528, Note_on_c, 15, 62, 90
22, 62528, Note_on_c, 15, 66, 90
22, 62528, Note_on_c, 15, 69, 90
22, 62528, Note_on_c, 15, 73, 90
22, 62592, Note_off_c, 15, 57, 0
22, 62592, Note_off_c, 15, 62, 0
22, 62592, Note_off_c, 15, 66, 0
22, 62592, Note_off_c, 15, 69, 0
22, 62592, Note_off_c, 15, 73, 0
22, 62656, Note_on_c, 15, 57, 87
22, 62656, Note_on_c, 15, 62, 87
22, 62656, Note_on_c, 15, 66, 87
22, 62656, Note_on_c, 15, 69, 87
22, 62656, Note_on_c, 15, 73, 87
22, 62720, Note_off_c, 15, 57, 0
22, 62720, Note_off_c, 15, 62, 0
22, 62720, Note_off_c, 15, 66, 0
22, 62720, Note_off_c, 15, 69, 0
22, 62720, Note_off_c, 15, 73, 0
22, 62912, Note_on_c, 15, 57, 87
22, 62912, Note_on_c, 15, 62, 87
22, 62912, Note_on_c, 15, 66, 87
22, 62912, Note_on_c, 15, 69, 87
22, 62912, Note_on_c, 15, 73, 87
22, 62976, Note_off_c, 15, 57, 0
22, 62976, Note_off_c, 15, 62, 0
22, 62976, Note_off_c, 15, 66, 0
22, 62976, Note_off_c, 15, 69, 0
22, 62976, Note_off_c, 15, 73, 0
22, 63040, Note_on_c, 15, 57, 93
22, 63040, Note_on_c, 15, 62, 93
22, 63040, Note_on_c, 15, 66, 93
22, 63040, Note_on_c, 15, 69, 93
22, 63040, Note_on_c, 15, 73, 93
22, 63104, Note_off_c, 15, 57, 0
22, 63104, Note_off_c, 15, 62, 0
22, 63104, Note_off_c, 15, 66, 0
22, 63104, Note_off_c, 15, 69, 0
22, 63104, Note_off_c, 15, 73, 0
22, 63168, Note_on_c, 15, 57, 88
22, 63168, Note_on_c, 15, 62, 88
22, 63168, Note_on_c, 15, 66, 88
22, 63168, Note_on_c, 15, 69, 88
22, 63168, Note_on_c, 15, 73, 88
22, 63232, Note_off_c, 15, 57, 0
22, 63232, Note_off_c, 15, 62, 0
22, 63232, Note_off_c, 15, 66, 0
22, 63232, Note_off_c, 15, 69, 0
22, 63232, Note_off_c, 15, 73, 0
22, 63424, Note_on_c, 15, 57, 90
22, 63424, Note_on_c, 15, 62, 90
22, 63424, Note_on_c, 15, 66, 90
22, 63424, Note_on_c, 15, 69, 90
22, 63424, Note_on_c, 15, 73, 90
22, 63488, Note_off_c, 15, 57, 0
22, 63488, Note_off_c, 15, 62, 0
22, 63488, Note_off_c, 15, 66, 0
22, 63488, Note_off_c, 15, 69, 0
22, 63488, Note_off_c, 15, 73, 0
22, 63552, Note_on_c, 15, 57, 92
22, 63552, Note_on_c, 15, 62, 92
22, 63552, Note_on_c, 15, 66, 92
22, 63552, Note_on_c, 15, 69, 92
22, 63552, Note_on_c, 15, 73, 92
22, 63616, Note_off_c, 15, 57, 0
22, 63616, Note_off_c, 15, 62, 0
22, 63616, Note_off_c, 15, 66, 0
22, 63616, Note_off_c, 15, 69, 0
22, 63616, Note_off_c, 15, 73, 0
22, 63808, Note_on_c, 15, 57, 87
22, 63808, Note_on_c, 15, 63, 87
22, 63808, Note_on_c, 15, 67, 87
22, 63808, Note_on_c, 15, 70, 87
22, 63808, Note_on_c, 15, 75, 87
22, 63872, Note_off_c, 15, 57, 0
22, 63872, Note_off_c, 15, 63, 0
22, 63872, Note_off_c, 15, 67, 0
22, 63872, Note_off_c, 15, 70, 0
22, 63872, Note_off_c, 15, 75, 0
22, 63936, Note_on_c, 15, 57, 89
22, 63936, Note_on_c, 15, 63, 89
22, 63936, Note_on_c, 15, 67, 89
22, 63936, Note_on_c, 15, 70, 89
22, 63936, Note_on_c, 15, 75, 89
22, 64000, Note_off_c, 15, 57, 0
22, 64000, Note_off_c, 15, 63, 0
22, 64000, Note_off_c, 15, 67, 0
22, 64000, Note_off_c, 15, 70, 0
22, 64000, Note_off_c, 15, 75, 0
22, 64064, Note_on_c, 15, 57, 87
22, 64064, Note_on_c, 15, 63, 87
22, 64064, Note_on_c, 15, 67, 87
22, 64064, Note_on_c, 15, 70, 87
22, 64064, Note_on_c, 15, 75, 87
22, 64128, Note_off_c, 15, 57, 0
22, 64128, Note_off_c, 15, 63, 0
22, 64128, Note_off_c, 15, 67, 0
22, 64128, Note_off_c, 15, 70, 0
22, 64128, Note_off_c, 15, 75, 0
22, 64192, Note_on_c, 15, 57, 87
22, 64192, Note_on_c, 15, 63, 87
22, 64192, Note_on_c, 15, 67, 87
22, 64192, Note_on_c, 15, 71, 87
22, 64192, Note_on_c, 15, 75, 87
22, 64256, Note_off_c, 15, 57, 0
22, 64256, Note_off_c, 15, 63, 0
22, 64256, Note_off_c, 15, 67, 0
22, 64256, Note_off_c, 15, 71, 0
22, 64256, Note_off_c, 15, 75, 0
22, 64320, Note_on_c, 15, 57, 91
22, 64320, Note_on_c, 15, 63, 91
22, 64320, Note_on_c, 15, 67, 91
22, 64320, Note_on_c, 15, 71, 91
22, 64320, Note_on_c, 15, 75, 91
22, 64384, Note_off_c, 15, 57, 0
22, 64384, Note_off_c, 15, 63, 0
22, 64384, Note_off_c, 15, 67, 0
22, 64384, Note_off_c, 15, 71, 0
22, 64384, Note_off_c, 15, 75, 0
22, 64448, Note_on_c, 15, 57, 82
22, 64448, Note_on_c, 15, 63, 82
22, 64448, Note_on_c, 15, 67, 82
22, 64448, Note_on_c, 15, 71, 82
22, 64448, Note_on_c, 15, 75, 82
22, 64512, Note_off_c, 15, 57, 0
22, 64512, Note_off_c, 15, 63, 0
22, 64512, Note_off_c, 15, 67, 0
22, 64512, Note_off_c, 15, 71, 0
22, 64512, Note_off_c, 15, 75, 0
22, 64576, Note_on_c, 15, 57, 89
22, 64576, Note_on_c, 15, 63, 89
22, 64576, Note_on_c, 15, 67, 89
22, 64576, Note_on_c, 15, 71, 89
22, 64576, Note_on_c, 15, 75, 89
22, 64640, Note_off_c, 15, 57, 0
22, 64640, Note_off_c, 15, 63, 0
22, 64640, Note_off_c, 15, 67, 0
22, 64640, Note_off_c, 15, 71, 0
22, 64640, Note_off_c, 15, 75, 0
22, 64704, Note_on_c, 15, 57, 83
22, 64704, Note_on_c, 15, 63, 83
22, 64704, Note_on_c, 15, 67, 83
22, 64704, Note_on_c, 15, 70, 83
22, 64704, Note_on_c, 15, 75, 83
22, 64768, Note_off_c, 15, 57, 0
22, 64768, Note_off_c, 15, 63, 0
22, 64768, Note_off_c, 15, 67, 0
22, 64768, Note_off_c, 15, 70, 0
22, 64768, Note_off_c, 15, 75, 0
22, 64832, Note_on_c, 15, 56, 91
22, 64832, Note_on_c, 15, 63, 91
22, 64832, Note_on_c, 15, 64, 91
22, 64832, Note_on_c, 15, 68, 91
22, 64832, Note_on_c, 15, 71, 91
22, 64832, Note_on_c, 15, 76, 91
22, 64896, Note_off_c, 15, 56, 0
22, 64896, Note_off_c, 15, 63, 0
22, 64896, Note_off_c, 15, 64, 0
22, 64896, Note_off_c, 15, 68, 0
22, 64896, Note_off_c, 15, 71, 0
22, 64896, Note_off_c, 15, 76, 0
22, 64960, Note_on_c, 15, 56, 92
22, 64960, Note_on_c, 15, 63, 92
22, 64960, Note_on_c, 15, 64, 92
22, 64960, Note_on_c, 15, 68, 92
22, 64960, Note_on_c, 15, 71, 92
22, 64960, Note_on_c, 15, 76, 92
22, 65024, Note_off_c, 15, 56, 0
22, 65024, Note_off_c, 15, 63, 0
22, 65024, Note_off_c, 15, 64, 0
22, 65024, Note_off_c, 15, 68, 0
22, 65024, Note_off_c, 15, 71, 0
22, 65024, Note_off_c, 15, 76, 0
22, 65088, Note_on_c, 15, 56, 89
22, 65088, Note_on_c, 15, 63, 89
22, 65088, Note_on_c, 15, 64, 89
22, 65088, Note_on_c, 15, 68, 89
22, 65088, Note_on_c, 15, 71, 89
22, 65088, Note_on_c, 15, 76, 89
22, 65152, Note_off_c, 15, 56, 0
22, 65152, Note_off_c, 15, 63, 0
22, 65152, Note_off_c, 15, 64, 0
22, 65152, Note_off_c, 15, 68, 0
22, 65152, Note_off_c, 15, 71, 0
22, 65152, Note_off_c, 15, 76, 0
22, 65216, Note_on_c, 15, 56, 88
22, 65216, Note_on_c, 15, 63, 88
22, 65216, Note_on_c, 15, 64, 88
22, 65216, Note_on_c, 15, 68, 88
22, 65216, Note_on_c, 15, 71, 88
22, 65216, Note_on_c, 15, 76, 88
22, 65280, Note_off_c, 15, 56, 0
22, 65280, Note_off_c, 15, 63, 0
22, 65280, Note_off_c, 15, 64, 0
22, 65280, Note_off_c, 15, 68, 0
22, 65280, Note_off_c, 15, 71, 0
22, 65280, Note_off_c, 15, 76, 0
22, 65344, Note_on_c, 15, 56, 89
22, 65344, Note_on_c, 15, 63, 89
22, 65344, Note_on_c, 15, 64, 89
22, 65344, Note_on_c, 15, 68, 89
22, 65344, Note_on_c, 15, 71, 89
22, 65344, Note_on_c, 15, 76, 89
22, 65408, Note_off_c, 15, 56, 0
22, 65408, Note_off_c, 15, 63, 0
22, 65408, Note_off_c, 15, 64, 0
22, 65408, Note_off_c, 15, 68, 0
22, 65408, Note_off_c, 15, 71, 0
22, 65408, Note_off_c, 15, 76, 0
22, 65472, Note_on_c, 15, 56, 87
22, 65472, Note_on_c, 15, 63, 87
22, 65472, Note_on_c, 15, 64, 87
22, 65472, Note_on_c, 15, 68, 87
22, 65472, Note_on_c, 15, 71, 87
22, 65472, Note_on_c, 15, 76, 87
22, 65536, Note_off_c, 15, 56, 0
22, 65536, Note_off_c, 15, 63, 0
22, 65536, Note_off_c, 15, 64, 0
22, 65536, Note_off_c, 15, 68, 0
22, 65536, Note_off_c, 15, 71, 0
22, 65536, Note_off_c, 15, 76, 0
22, 65600, Note_on_c, 15, 56, 85
22, 65600, Note_on_c, 15, 63, 85
22, 65600, Note_on_c, 15, 64, 85
22, 65600, Note_on_c, 15, 68, 85
22, 65600, Note_on_c, 15, 71, 85
22, 65600, Note_on_c, 15, 76, 85
22, 65664, Note_off_c, 15, 56, 0
22, 65664, Note_off_c, 15, 63, 0
22, 65664, Note_off_c, 15, 64, 0
22, 65664, Note_off_c, 15, 68, 0
22, 65664, Note_off_c, 15, 71, 0
22, 65664, Note_off_c, 15, 76, 0
22, 65728, Note_on_c, 15, 56, 88
22, 65728, Note_on_c, 15, 63, 88
22, 65728, Note_on_c, 15, 64, 88
22, 65728, Note_on_c, 15, 68, 88
22, 65728, Note_on_c, 15, 71, 88
22, 65728, Note_on_c, 15, 76, 88
22, 65792, Note_off_c, 15, 56, 0
22, 65792, Note_off_c, 15, 63, 0
22, 65792, Note_off_c, 15, 64, 0
22, 65792, Note_off_c, 15, 68, 0
22, 65792, Note_off_c, 15, 71, 0
22, 65792, Note_off_c, 15, 76, 0
22, 65856, Note_on_c, 15, 56, 86
22, 65856, Note_on_c, 15, 63, 86
22, 65856, Note_on_c, 15, 64, 86
22, 65856, Note_on_c, 15, 68, 86
22, 65856, Note_on_c, 15, 71, 86
22, 65856, Note_on_c, 15, 76, 86
22, 65920, Note_off_c, 15, 56, 0
22, 65920, Note_off_c, 15, 63, 0
22, 65920, Note_off_c, 15, 64, 0
22, 65920, Note_off_c, 15, 68, 0
22, 65920, Note_off_c, 15, 71, 0
22, 65920, Note_off_c, 15, 76, 0
22, 65984, Note_on_c, 15, 56, 87
22, 65984, Note_on_c, 15, 63, 87
22, 65984, Note_on_c, 15, 64, 87
22, 65984, Note_on_c, 15, 68, 87
22, 65984, Note_on_c, 15, 71, 87
22, 65984, Note_on_c, 15, 76, 87
22, 66048, Note_off_c, 15, 56, 0
22, 66048, Note_off_c, 15, 63, 0
22, 66048, Note_off_c, 15, 64, 0
22, 66048, Note_off_c, 15, 68, 0
22, 66048, Note_off_c, 15, 71, 0
22, 66048, Note_off_c, 15, 76, 0
22, 66112, Note_on_c, 15, 56, 89
22, 66112, Note_on_c, 15, 63, 89
22, 66112, Note_on_c, 15, 64, 89
22, 66112, Note_on_c, 15, 68, 89
22, 66112, Note_on_c, 15, 71, 89
22, 66112, Note_on_c, 15, 76, 89
22, 66176, Note_off_c, 15, 56, 0
22, 66176, Note_off_c, 15, 63, 0
22, 66176, Note_off_c, 15, 64, 0
22, 66176, Note_off_c, 15, 68, 0
22, 66176, Note_off_c, 15, 71, 0
22, 66176, Note_off_c, 15, 76, 0
22, 66240, Note_on_c, 15, 56, 91
22, 66240, Note_on_c, 15, 63, 91
22, 66240, Note_on_c, 15, 64, 91
22, 66240, Note_on_c, 15, 68, 91
22, 66240, Note_on_c, 15, 71, 91
22, 66240, Note_on_c, 15, 76, 91
22, 66304, Note_off_c, 15, 56, 0
22, 66304, Note_off_c, 15, 63, 0
22, 66304, Note_off_c, 15, 64, 0
22, 66304, Note_off_c, 15, 68, 0
22, 66304, Note_off_c, 15, 71, 0
22, 66304, Note_off_c, 15, 76, 0
22, 66368, Note_on_c, 15, 56, 85
22, 66368, Note_on_c, 15, 63, 85
22, 66368, Note_on_c, 15, 64, 85
22, 66368, Note_on_c, 15, 68, 85
22, 66368, Note_on_c, 15, 71, 85
22, 66368, Note_on_c, 15, 76, 85
22, 66432, Note_off_c, 15, 56, 0
22, 66432, Note_off_c, 15, 63, 0
22, 66432, Note_off_c, 15, 64, 0
22, 66432, Note_off_c, 15, 68, 0
22, 66432, Note_off_c, 15, 71, 0
22, 66432, Note_off_c, 15, 76, 0
22, 66496, Note_on_c, 15, 56, 87
22, 66496, Note_on_c, 15, 63, 87
22, 66496, Note_on_c, 15, 64, 87
22, 66496, Note_on_c, 15, 68, 87
22, 66496, Note_on_c, 15, 71, 87
22, 66496, Note_on_c, 15, 76, 87
22, 66560, Note_off_c, 15, 56, 0
22, 66560, Note_off_c, 15, 63, 0
22, 66560, Note_off_c, 15, 64, 0
22, 66560, Note_off_c, 15, 68, 0
22, 66560, Note_off_c, 15, 71, 0
22, 66560, Note_off_c, 15, 76, 0
22, 66624, Note_on_c, 15, 56, 88
22, 66624, Note_on_c, 15, 63, 88
22, 66624, Note_on_c, 15, 64, 88
22, 66624, Note_on_c, 15, 68, 88
22, 66624, Note_on_c, 15, 71, 88
22, 66624, Note_on_c, 15, 76, 88
22, 66688, Note_off_c, 15, 56, 0
22, 66688, Note_off_c, 15, 63, 0
22, 66688, Note_off_c, 15, 64, 0
22, 66688, Note_off_c, 15, 68, 0
22, 66688, Note_off_c, 15, 71, 0
22, 66688, Note_off_c, 15, 76, 0
22, 66752, Note_on_c, 15, 56, 87
22, 66752, Note_on_c, 15, 63, 87
22, 66752, Note_on_c, 15, 64, 87
22, 66752, Note_on_c, 15, 68, 87
22, 66752, Note_on_c, 15, 71, 87
22, 66752, Note_on_c, 15, 76, 87
22, 66816, Note_off_c, 15, 56, 0
22, 66816, Note_off_c, 15, 63, 0
22, 66816, Note_off_c, 15, 64, 0
22, 66816, Note_off_c, 15, 68, 0
22, 66816, Note_off_c, 15, 71, 0
22, 66816, Note_off_c, 15, 76, 0
22, 66880, Note_on_c, 15, 56, 85
22, 66880, Note_on_c, 15, 63, 85
22, 66880, Note_on_c, 15, 64, 85
22, 66880, Note_on_c, 15, 68, 85
22, 66880, Note_on_c, 15, 71, 85
22, 66880, Note_on_c, 15, 76, 85
22, 66944, Note_off_c, 15, 56, 0
22, 66944, Note_off_c, 15, 63, 0
22, 66944, Note_off_c, 15, 64, 0
22, 66944, Note_off_c, 15, 68, 0
22, 66944, Note_off_c, 15, 71, 0
22, 66944, Note_off_c, 15, 76, 0
22, 67008, Note_on_c, 15, 56, 89
22, 67008, Note_on_c, 15, 63, 89
22, 67008, Note_on_c, 15, 64, 89
22, 67008, Note_on_c, 15, 68, 89
22, 67008, Note_on_c, 15, 71, 89
22, 67008, Note_on_c, 15, 76, 89
22, 67072, Note_off_c, 15, 56, 0
22, 67072, Note_off_c, 15, 63, 0
22, 67072, Note_off_c, 15, 64, 0
22, 67072, Note_off_c, 15, 68, 0
22, 67072, Note_off_c, 15, 71, 0
22, 67072, Note_off_c, 15, 76, 0
22, 67136, Note_on_c, 15, 56, 85
22, 67136, Note_on_c, 15, 63, 85
22, 67136, Note_on_c, 15, 64, 85
22, 67136, Note_on_c, 15, 68, 85
22, 67136, Note_on_c, 15, 71, 85
22, 67136, Note_on_c, 15, 76, 85
22, 67200, Note_off_c, 15, 56, 0
22, 67200, Note_off_c, 15, 63, 0
22, 67200, Note_off_c, 15, 64, 0
22, 67200, Note_off_c, 15, 68, 0
22, 67200, Note_off_c, 15, 71, 0
22, 67200, Note_off_c, 15, 76, 0
22, 67264, Note_on_c, 15, 60, 89
22, 67264, Note_on_c, 15, 66, 89
22, 67264, Note_on_c, 15, 68, 89
22, 67264, Note_on_c, 15, 72, 89
22, 67264, Note_on_c, 15, 76, 89
22, 67264, Note_on_c, 15, 79, 89
22, 67328, Note_off_c, 15, 60, 0
22, 67328, Note_off_c, 15, 66, 0
22, 67328, Note_off_c, 15, 68, 0
22, 67328, Note_off_c, 15, 72, 0
22, 67328, Note_off_c, 15, 76, 0
22, 67328, Note_off_c, 15, 79, 0
22, 67392, Note_on_c, 15, 60, 90
22, 67392, Note_on_c, 15, 66, 90
22, 67392, Note_on_c, 15, 68, 90
22, 67392, Note_on_c, 15, 72, 90
22, 67392, Note_on_c, 15, 76, 90
22, 67392, Note_on_c, 15, 79, 90
22, 67456, Note_off_c, 15, 60, 0
22, 67456, Note_off_c, 15, 66, 0
22, 67456, Note_off_c, 15, 68, 0
22, 67456, Note_off_c, 15, 72, 0
22, 67456, Note_off_c, 15, 76, 0
22, 67456, Note_off_c, 15, 79, 0
22, 67520, Note_on_c, 15, 60, 92
22, 67520, Note_on_c, 15, 66, 92
22, 67520, Note_on_c, 15, 68, 92
22, 67520, Note_on_c, 15, 72, 92
22, 67520, Note_on_c, 15, 76, 92
22, 67520, Note_on_c, 15, 79, 92
22, 67584, Note_off_c, 15, 60, 0
22, 67584, Note_off_c, 15, 66, 0
22, 67584, Note_off_c, 15, 68, 0
22, 67584, Note_off_c, 15, 72, 0
22, 67584, Note_off_c, 15, 76, 0
22, 67584, Note_off_c, 15, 79, 0
22, 67648, Note_on_c, 15, 60, 86
22, 67648, Note_on_c, 15, 66, 86
22, 67648, Note_on_c, 15, 67, 86
22, 67648, Note_on_c, 15, 72, 86
22, 67648, Note_on_c, 15, 76, 86
22, 67648, Note_on_c, 15, 79, 86
22, 67712, Note_off_c, 15, 60, 0
22, 67712, Note_off_c, 15, 66, 0
22, 67712, Note_off_c, 15, 67, 0
22, 67712, Note_off_c, 15, 72, 0
22, 67712, Note_off_c, 15, 76, 0
22, 67712, Note_off_c, 15, 79, 0
22, 67776, Note_on_c, 15, 60, 92
22, 67776, Note_on_c, 15, 66, 92
22, 67776, Note_on_c, 15, 67, 92
22, 67776, Note_on_c, 15, 72, 92
22, 67776, Note_on_c, 15, 76, 92
22, 67776, Note_on_c, 15, 79, 92
22, 67840, Note_off_c, 15, 60, 0
22, 67840, Note_off_c, 15, 66, 0
22, 67840, Note_off_c, 15, 67, 0
22, 67840, Note_off_c, 15, 72, 0
22, 67840, Note_off_c, 15, 76, 0
22, 67840, Note_off_c, 15, 79, 0
22, 67904, Note_on_c, 15, 60, 87
22, 67904, Note_on_c, 15, 66, 87
22, 67904, Note_on_c, 15, 67, 87
22, 67904, Note_on_c, 15, 72, 87
22, 67904, Note_on_c, 15, 76, 87
22, 67904, Note_on_c, 15, 79, 87
22, 67968, Note_off_c, 15, 60, 0
22, 67968, Note_off_c, 15, 66, 0
22, 67968, Note_off_c, 15, 67, 0
22, 67968, Note_off_c, 15, 72, 0
22, 67968, Note_off_c, 15, 76, 0
22, 67968, Note_off_c, 15, 79, 0
22, 68032, Note_on_c, 15, 60, 91
22, 68032, Note_on_c, 15, 66, 91
22, 68032, Note_on_c, 15, 67, 91
22, 68032, Note_on_c, 15, 72, 91
22, 68032, Note_on_c, 15, 76, 91
22, 68032, Note_on_c, 15, 79, 91
22, 68096, Note_off_c, 15, 60, 0
22, 68096, Note_off_c, 15, 66, 0
22, 68096, Note_off_c, 15, 67, 0
22, 68096, Note_off_c, 15, 72, 0
22, 68096, Note_off_c, 15, 76, 0
22, 68096, Note_off_c, 15, 79, 0
22, 68160, Note_on_c, 15, 60, 86
22, 68160, Note_on_c, 15, 66, 86
22, 68160, Note_on_c, 15, 67, 86
22, 68160, Note_on_c, 15, 72, 86
22, 68160, Note_on_c, 15, 76, 86
22, 68160, Note_on_c, 15, 79, 86
22, 68224, Note_off_c, 15, 60, 0
22, 68224, Note_off_c, 15, 66, 0
22, 68224, Note_off_c, 15, 67, 0
22, 68224, Note_off_c, 15, 72, 0
22, 68224, Note_off_c, 15, 76, 0
22, 68224, Note_off_c, 15, 79, 0
22, 68288, Note_on_c, 15, 60, 85
22, 68288, Note_on_c, 15, 66, 85
22, 68288, Note_on_c, 15, 67, 85
22, 68288, Note_on_c, 15, 72, 85
22, 68288, Note_on_c, 15, 76, 85
22, 68288, Note_on_c, 15, 79, 85
22, 68352, Note_off_c, 15, 60, 0
22, 68352, Note_off_c, 15, 66, 0
22, 68352, Note_off_c, 15, 67, 0
22, 68352, Note_off_c, 15, 72, 0
22, 68352, Note_off_c, 15, 76, 0
22, 68352, Note_off_c, 15, 79, 0
22, 68416, Note_on_c, 15, 60, 91
22, 68416, Note_on_c, 15, 66, 91
22, 68416, Note_on_c, 15, 67, 91
22, 68416, Note_on_c, 15, 72, 91
22, 68416, Note_on_c, 15, 76, 91
22, 68416, Note_on_c, 15, 79, 91
22, 68480, Note_off_c, 15, 60, 0
22, 68480, Note_off_c, 15, 66, 0
22, 68480, Note_off_c, 15, 67, 0
22, 68480, Note_off_c, 15, 72, 0
22, 68480, Note_off_c, 15, 76, 0
22, 68480, Note_off_c, 15, 79, 0
22, 68544, Note_on_c, 15, 60, 88
22, 68544, Note_on_c, 15, 66, 88
22, 68544, Note_on_c, 15, 67, 88
22, 68544, Note_on_c, 15, 72, 88
22, 68544, Note_on_c, 15, 76, 88
22, 68544, Note_on_c, 15, 79, 88
22, 68608, Note_off_c, 15, 60, 0
22, 68608, Note_off_c, 15, 66, 0
22, 68608, Note_off_c, 15, 67, 0
22, 68608, Note_off_c, 15, 72, 0
22, 68608, Note_off_c, 15, 76, 0
22, 68608, Note_off_c, 15, 79, 0
22, 68672, Note_on_c, 15, 60, 89
22, 68672, Note_on_c, 15, 66, 89
22, 68672, Note_on_c, 15, 67, 89
22, 68672, Note_on_c, 15, 72, 89
22, 68672, Note_on_c, 15, 76, 89
22, 68672, Note_on_c, 15, 79, 89
22, 68736, Note_off_c, 15, 60, 0
22, 68736, Note_off_c, 15, 66, 0
22, 68736, Note_off_c, 15, 67, 0
22, 68736, Note_off_c, 15, 72, 0
22, 68736, Note_off_c, 15, 76, 0
22, 68736, Note_off_c, 15, 79, 0
22, 68800, Note_on_c, 15, 60, 90
22, 68800, Note_on_c, 15, 66, 90
22, 68800, Note_on_c, 15, 67, 90
22, 68800, Note_on_c, 15, 72, 90
22, 68800, Note_on_c, 15, 76, 90
22, 68800, Note_on_c, 15, 79, 90
22, 68864, Note_off_c, 15, 60, 0
22, 68864, Note_off_c, 15, 66, 0
22, 68864, Note_off_c, 15, 67, 0
22, 68864, Note_off_c, 15, 72, 0
22, 68864, Note_off_c, 15, 76, 0
22, 68864, Note_off_c, 15, 79, 0
22, 68928, Note_on_c, 15, 60, 88
22, 68928, Note_on_c, 15, 66, 88
22, 68928, Note_on_c, 15, 67, 88
22, 68928, Note_on_c, 15, 72, 88
22, 68928, Note_on_c, 15, 76, 88
22, 68928, Note_on_c, 15, 79, 88
22, 68992, Note_off_c, 15, 60, 0
22, 68992, Note_off_c, 15, 66, 0
22, 68992, Note_off_c, 15, 67, 0
22, 68992, Note_off_c, 15, 72, 0
22, 68992, Note_off_c, 15, 76, 0
22, 68992, Note_off_c, 15, 79, 0
22, 69056, Note_on_c, 15, 60, 86
22, 69056, Note_on_c, 15, 66, 86
22, 69056, Note_on_c, 15, 67, 86
22, 69056, Note_on_c, 15, 72, 86
22, 69056, Note_on_c, 15, 76, 86
22, 69056, Note_on_c, 15, 79, 86
22, 69120, Note_off_c, 15, 60, 0
22, 69120, Note_off_c, 15, 66, 0
22, 69120, Note_off_c, 15, 67, 0
22, 69120, Note_off_c, 15, 72, 0
22, 69120, Note_off_c, 15, 76, 0
22, 69120, Note_off_c, 15, 79, 0
22, 69184, Note_on_c, 15, 60, 87
22, 69184, Note_on_c, 15, 66, 87
22, 69184, Note_on_c, 15, 67, 87
22, 69184, Note_on_c, 15, 72, 87
22, 69184, Note_on_c, 15, 76, 87
22, 69184, Note_on_c, 15, 79, 87
22, 69248, Note_off_c, 15, 60, 0
22, 69248, Note_off_c, 15, 66, 0
22, 69248, Note_off_c, 15, 67, 0
22, 69248, Note_off_c, 15, 72, 0
22, 69248, Note_off_c, 15, 76, 0
22, 69248, Note_off_c, 15, 79, 0
22, 69312, Note_on_c, 15, 60, 90
22, 69312, Note_on_c, 15, 66, 90
22, 69312, Note_on_c, 15, 67, 90
22, 69312, Note_on_c, 15, 72, 90
22, 69312, Note_on_c, 15, 76, 90
22, 69312, Note_on_c, 15, 79, 90
22, 69376, Note_off_c, 15, 60, 0
22, 69376, Note_off_c, 15, 66, 0
22, 69376, Note_off_c, 15, 67, 0
22, 69376, Note_off_c, 15, 72, 0
22, 69376, Note_off_c, 15, 76, 0
22, 69376, Note_off_c, 15, 79, 0
22, 69440, Note_on_c, 15, 60, 88
22, 69440, Note_on_c, 15, 66, 88
22, 69440, Note_on_c, 15, 67, 88
22, 69440, Note_on_c, 15, 72, 88
22, 69440, Note_on_c, 15, 76, 88
22, 69440, Note_on_c, 15, 79, 88
22, 69504, Note_off_c, 15, 60, 0
22, 69504, Note_off_c, 15, 66, 0
22, 69504, Note_off_c, 15, 67, 0
22, 69504, Note_off_c, 15, 72, 0
22, 69504, Note_off_c, 15, 76, 0
22, 69504, Note_off_c, 15, 79, 0
22, 69568, Note_on_c, 15, 60, 84
22, 69568, Note_on_c, 15, 66, 84
22, 69568, Note_on_c, 15, 67, 84
22, 69568, Note_on_c, 15, 72, 84
22, 69568, Note_on_c, 15, 76, 84
22, 69568, Note_on_c, 15, 79, 84
22, 69632, Note_off_c, 15, 60, 0
22, 69632, Note_off_c, 15, 66, 0
22, 69632, Note_off_c, 15, 67, 0
22, 69632, Note_off_c, 15, 72, 0
22, 69632, Note_off_c, 15, 76, 0
22, 69632, Note_off_c, 15, 79, 0
22, 69696, Note_on_c, 15, 60, 83
22, 69696, Note_on_c, 15, 66, 83
22, 69696, Note_on_c, 15, 67, 83
22, 69696, Note_on_c, 15, 72, 83
22, 69696, Note_on_c, 15, 76, 83
22, 69696, Note_on_c, 15, 79, 83
22, 69760, Note_off_c, 15, 60, 0
22, 69760, Note_off_c, 15, 66, 0
22, 69760, Note_off_c, 15, 67, 0
22, 69760, Note_off_c, 15, 72, 0
22, 69760, Note_off_c, 15, 76, 0
22, 69760, Note_off_c, 15, 79, 0
22, 69824, Note_on_c, 15, 60, 93
22, 69824, Note_on_c, 15, 66, 93
22, 69824, Note_on_c, 15, 67, 93
22, 69824, Note_on_c, 15, 72, 93
22, 69824, Note_on_c, 15, 76, 93
22, 69824, Note_on_c, 15, 79, 93
22, 69888, Note_off_c, 15, 60, 0
22, 69888, Note_off_c, 15, 66, 0
22, 69888, Note_off_c, 15, 67, 0
22, 69888, Note_off_c, 15, 72, 0
22, 69888, Note_off_c, 15, 76, 0
22, 69888, Note_off_c, 15, 79, 0
22, 69952, Note_on_c, 15, 60, 90
22, 69952, Note_on_c, 15, 66, 90
22, 69952, Note_on_c, 15, 67, 90
22, 69952, Note_on_c, 15, 72, 90
22, 69952, Note_on_c, 15, 76, 90
22, 69952, Note_on_c, 15, 79, 90
22, 70016, Note_off_c, 15, 60, 0
22, 70016, Note_off_c, 15, 66, 0
22, 70016, Note_off_c, 15, 67, 0
22, 70016, Note_off_c, 15, 72, 0
22, 70016, Note_off_c, 15, 76, 0
22, 70016, Note_off_c, 15, 79, 0
22, 70080, Note_on_c, 15, 61, 90
22, 70080, Note_on_c, 15, 65, 90
22, 70080, Note_on_c, 15, 68, 90
22, 70080, Note_on_c, 15, 71, 90
22, 70080, Note_on_c, 15, 75, 90
22, 70080, Note_on_c, 15, 82, 90
22, 70144, Note_off_c, 15, 61, 0
22, 70144, Note_off_c, 15, 65, 0
22, 70144, Note_off_c, 15, 68, 0
22, 70144, Note_off_c, 15, 71, 0
22, 70144, Note_off_c, 15, 75, 0
22, 70144, Note_off_c, 15, 82, 0
22, 70272, Note_on_c, 15, 61, 85
22, 70272, Note_on_c, 15, 65, 85
22, 70272, Note_on_c, 15, 68, 85
22, 70272, Note_on_c, 15, 71, 85
22, 70272, Note_on_c, 15, 75, 85
22, 70272, Note_on_c, 15, 82, 85
22, 70336, Note_off_c, 15, 61, 0
22, 70336, Note_off_c, 15, 65, 0
22, 70336, Note_off_c, 15, 68, 0
22, 70336, Note_off_c, 15, 71, 0
22, 70336, Note_off_c, 15, 75, 0
22, 70336, Note_off_c, 15, 82, 0
22, 70336, Note_on_c, 15, 61, 94
22, 70336, Note_on_c, 15, 65, 94
22, 70336, Note_on_c, 15, 68, 94
22, 70336, Note_on_c, 15, 71, 94
22, 70336, Note_on_c, 15, 75, 94
22, 70336, Note_on_c, 15, 82, 94
22, 70400, Note_off_c, 15, 61, 0
22, 70400, Note_off_c, 15, 65, 0
22, 70400, Note_off_c, 15, 68, 0
22, 70400, Note_off_c, 15, 71, 0
22, 70400, Note_off_c, 15, 75, 0
22, 70400, Note_off_c, 15, 82, 0
22, 70528, Note_on_c, 15, 61, 94
22, 70528, Note_on_c, 15, 65, 94
22, 70528, Note_on_c, 15, 68, 94
22, 70528, Note_on_c, 15, 71, 94
22, 70528, Note_on_c, 15, 75, 94
22, 70528, Note_on_c, 15, 82, 94
22, 70592, Note_off_c, 15, 61, 0
22, 70592, Note_off_c, 15, 65, 0
22, 70592, Note_off_c, 15, 68, 0
22, 70592, Note_off_c, 15, 71, 0
22, 70592, Note_off_c, 15, 75, 0
22, 70592, Note_off_c, 15, 82, 0
22, 70592, Note_on_c, 15, 61, 97
22, 70592, Note_on_c, 15, 65, 97
22, 70592, Note_on_c, 15, 68, 97
22, 70592, Note_on_c, 15, 71, 97
22, 70592, Note_on_c, 15, 75, 97
22, 70592, Note_on_c, 15, 82, 97
22, 70656, Note_off_c, 15, 61, 0
22, 70656, Note_off_c, 15, 65, 0
22, 70656, Note_off_c, 15, 68, 0
22, 70656, Note_off_c, 15, 71, 0
22, 70656, Note_off_c, 15, 75, 0
22, 70656, Note_off_c, 15, 82, 0
22, 70784, Note_on_c, 15, 61, 88
22, 70784, Note_on_c, 15, 65, 88
22, 70784, Note_on_c, 15, 67, 88
22, 70784, Note_on_c, 15, 71, 88
22, 70784, Note_on_c, 15, 74, 88
22, 70784, Note_on_c, 15, 81, 88
22, 70848, Note_off_c, 15, 61, 0
22, 70848, Note_off_c, 15, 65, 0
22, 70848, Note_off_c, 15, 67, 0
22, 70848, Note_off_c, 15, 71, 0
22, 70848, Note_off_c, 15, 74, 0
22, 70848, Note_off_c, 15, 81, 0
22, 70848, Note_on_c, 15, 61, 96
22, 70848, Note_on_c, 15, 65, 96
22, 70848, Note_on_c, 15, 67, 96
22, 70848, Note_on_c, 15, 71, 96
22, 70848, Note_on_c, 15, 74, 96
22, 70848, Note_on_c, 15, 81, 96
22, 70912, Note_off_c, 15, 61, 0
22, 70912, Note_off_c, 15, 65, 0
22, 70912, Note_off_c, 15, 67, 0
22, 70912, Note_off_c, 15, 71, 0
22, 70912, Note_off_c, 15, 74, 0
22, 70912, Note_off_c, 15, 81, 0
22, 71040, Note_on_c, 15, 61, 89
22, 71040, Note_on_c, 15, 65, 89
22, 71040, Note_on_c, 15, 67, 89
22, 71040, Note_on_c, 15, 71, 89
22, 71040, Note_on_c, 15, 74, 89
22, 71040, Note_on_c, 15, 81, 89
22, 71104, Note_off_c, 15, 61, 0
22, 71104, Note_off_c, 15, 65, 0
22, 71104, Note_off_c, 15, 67, 0
22, 71104, Note_off_c, 15, 71, 0
22, 71104, Note_off_c, 15, 74, 0
22, 71104, Note_off_c, 15, 81, 0
22, 71104, Note_on_c, 15, 61, 97
22, 71104, Note_on_c, 15, 65, 97
22, 71104, Note_on_c, 15, 67, 97
22, 71104, Note_on_c, 15, 71, 97
22, 71104, Note_on_c, 15, 74, 97
22, 71104, Note_on_c, 15, 81, 97
22, 71168, Note_off_c, 15, 61, 0
22, 71168, Note_off_c, 15, 65, 0
22, 71168, Note_off_c, 15, 67, 0
22, 71168, Note_off_c, 15, 71, 0
22, 71168, Note_off_c, 15, 74, 0
22, 71168, Note_off_c, 15, 81, 0
22, 71296, Note_on_c, 15, 61, 83
22, 71296, Note_on_c, 15, 65, 83
22, 71296, Note_on_c, 15, 68, 83
22, 71296, Note_on_c, 15, 71, 83
22, 71296, Note_on_c, 15, 75, 83
22, 71296, Note_on_c, 15, 82, 83
22, 71360, Note_off_c, 15, 61, 0
22, 71360, Note_off_c, 15, 65, 0
22, 71360, Note_off_c, 15, 68, 0
22, 71360, Note_off_c, 15, 71, 0
22, 71360, Note_off_c, 15, 75, 0
22, 71360, Note_off_c, 15, 82, 0
22, 71360, Note_on_c, 15, 61, 97
22, 71360, Note_on_c, 15, 65, 97
22, 71360, Note_on_c, 15, 68, 97
22, 71360, Note_on_c, 15, 71, 97
22, 71360, Note_on_c, 15, 75, 97
22, 71360, Note_on_c, 15, 82, 97
22, 71424, Note_off_c, 15, 61, 0
22, 71424, Note_off_c, 15, 65, 0
22, 71424, Note_off_c, 15, 68, 0
22, 71424, Note_off_c, 15, 71, 0
22, 71424, Note_off_c, 15, 75, 0
22, 71424, Note_off_c, 15, 82, 0
22, 71552, Note_on_c, 15, 62, 88
22, 71552, Note_on_c, 15, 66, 88
22, 71552, Note_on_c, 15, 69, 88
22, 71552, Note_on_c, 15, 72, 88
22, 71552, Note_on_c, 15, 76, 88
22, 71552, Note_on_c, 15, 82, 88
22, 71616, Note_off_c, 15, 62, 0
22, 71616, Note_off_c, 15, 66, 0
22, 71616, Note_off_c, 15, 69, 0
22, 71616, Note_off_c, 15, 72, 0
22, 71616, Note_off_c, 15, 76, 0
22, 71616, Note_off_c, 15, 82, 0
22, 71616, Note_on_c, 15, 62, 99
22, 71616, Note_on_c, 15, 66, 99
22, 71616, Note_on_c, 15, 69, 99
22, 71616, Note_on_c, 15, 72, 99
22, 71616, Note_on_c, 15, 76, 99
22, 71616, Note_on_c, 15, 82, 99
22, 71680, Note_off_c, 15, 62, 0
22, 71680, Note_off_c, 15, 66, 0
22, 71680, Note_off_c, 15, 69, 0
22, 71680, Note_off_c, 15, 72, 0
22, 71680, Note_off_c, 15, 76, 0
22, 71680, Note_off_c, 15, 82, 0
22, 71744, Note_on_c, 15, 62, 86
22, 71744, Note_on_c, 15, 66, 86
22, 71744, Note_on_c, 15, 69, 86
22, 71744, Note_on_c, 15, 72, 86
22, 71744, Note_on_c, 15, 76, 86
22, 71744, Note_on_c, 15, 82, 86
22, 71808, Note_off_c, 15, 62, 0
22, 71808, Note_off_c, 15, 66, 0
22, 71808, Note_off_c, 15, 69, 0
22, 71808, Note_off_c, 15, 72, 0
22, 71808, Note_off_c, 15, 76, 0
22, 71808, Note_off_c, 15, 82, 0
22, 71936, Note_on_c, 15, 63, 89
22, 71936, Note_on_c, 15, 66, 89
22, 71936, Note_on_c, 15, 69, 89
22, 71936, Note_on_c, 15, 72, 89
22, 71936, Note_on_c, 15, 77, 89
22, 71936, Note_on_c, 15, 83, 89
22, 72000, Note_off_c, 15, 63, 0
22, 72000, Note_off_c, 15, 66, 0
22, 72000, Note_off_c, 15, 69, 0
22, 72000, Note_off_c, 15, 72, 0
22, 72000, Note_off_c, 15, 77, 0
22, 72000, Note_off_c, 15, 83, 0
22, 72000, Note_on_c, 15, 63, 100
22, 72000, Note_on_c, 15, 66, 100
22, 72000, Note_on_c, 15, 69, 100
22, 72000, Note_on_c, 15, 72, 100
22, 72000, Note_on_c, 15, 77, 100
22, 72000, Note_on_c, 15, 83, 100
22, 72064, Note_off_c, 15, 63, 0
22, 72064, Note_off_c, 15, 66, 0
22, 72064, Note_off_c, 15, 69, 0
22, 72064, Note_off_c, 15, 72, 0
22, 72064, Note_off_c, 15, 77, 0
22, 72064, Note_off_c, 15, 83, 0
22, 72192, Note_on_c, 15, 63, 85
22, 72192, Note_on_c, 15, 66, 85
22, 72192, Note_on_c, 15, 69, 85
22, 72192, Note_on_c, 15, 72, 85
22, 72192, Note_on_c, 15, 77, 85
22, 72192, Note_on_c, 15, 83, 85
22, 72256, Note_off_c, 15, 63, 0
22, 72256, Note_off_c, 15, 66, 0
22, 72256, Note_off_c, 15, 69, 0
22, 72256, Note_off_c, 15, 72, 0
22, 72256, Note_off_c, 15, 77, 0
22, 72256, Note_off_c, 15, 83, 0
22, 72256, Note_on_c, 15, 66, 105
22, 72256, Note_on_c, 15, 69, 105
22, 72256, Note_on_c, 15, 72, 105
22, 72256, Note_on_c, 15, 80, 105
22, 72256, Note_on_c, 15, 86, 105
22, 72320, Note_off_c, 15, 66, 0
22, 72320, Note_off_c, 15, 69, 0
22, 72320, Note_off_c, 15, 72, 0
22, 72320, Note_off_c, 15, 80, 0
22, 72320, Note_off_c, 15, 86, 0
22, 72448, Note_on_c, 15, 66, 88
22, 72448, Note_on_c, 15, 69, 88
22, 72448, Note_on_c, 15, 72, 88
22, 72448, Note_on_c, 15, 80, 88
22, 72448, Note_on_c, 15, 86, 88
22, 72512, Note_off_c, 15, 66, 0
22, 72512, Note_off_c, 15, 69, 0
22, 72512, Note_off_c, 15, 72, 0
22, 72512, Note_off_c, 15, 80, 0
22, 72512, Note_off_c, 15, 86, 0
22, 72512, Note_on_c, 15, 65, 100
22, 72512, Note_on_c, 15, 68, 100
22, 72512, Note_on_c, 15, 72, 100
22, 72512, Note_on_c, 15, 79, 100
22, 72512, Note_on_c, 15, 86, 100
22, 72576, Note_off_c, 15, 65, 0
22, 72576, Note_off_c, 15, 68, 0
22, 72576, Note_off_c, 15, 72, 0
22, 72576, Note_off_c, 15, 79, 0
22, 72576, Note_off_c, 15, 86, 0
22, 72704, Note_on_c, 15, 65, 89
22, 72704, Note_on_c, 15, 68, 89
22, 72704, Note_on_c, 15, 74, 89
22, 72704, Note_on_c, 15, 79, 89
22, 72704, Note_on_c, 15, 86, 89
22, 72768, Note_off_c, 15, 65, 0
22, 72768, Note_off_c, 15, 68, 0
22, 72768, Note_off_c, 15, 74, 0
22, 72768, Note_off_c, 15, 79, 0
22, 72768, Note_off_c, 15, 86, 0
22, 72768, Note_on_c, 15, 62, 86
22, 72768, Note_on_c, 15, 65, 86
22, 72768, Note_on_c, 15, 69, 86
22, 72768, Note_on_c, 15, 71, 86
22, 72768, Note_on_c, 15, 76, 86
22, 72768, Note_on_c, 15, 83, 86
22, 72832, Note_off_c, 15, 62, 0
22, 72832, Note_off_c, 15, 65, 0
22, 72832, Note_off_c, 15, 69, 0
22, 72832, Note_off_c, 15, 71, 0
22, 72832, Note_off_c, 15, 76, 0
22, 72832, Note_off_c, 15, 83, 0
22, 72896, Note_on_c, 15, 60, 87
22, 72896, Note_on_c, 15, 62, 87
22, 72896, Note_on_c, 15, 66, 87
22, 72896, Note_on_c, 15, 68, 87
22, 72896, Note_on_c, 15, 72, 87
22, 72896, Note_on_c, 15, 76, 87
22, 72960, Note_off_c, 15, 60, 0
22, 72960, Note_off_c, 15, 62, 0
22, 72960, Note_off_c, 15, 66, 0
22, 72960, Note_off_c, 15, 68, 0
22, 72960, Note_off_c, 15, 72, 0
22, 72960, Note_off_c, 15, 76, 0
22, 73024, Note_on_c, 15, 60, 90
22, 73024, Note_on_c, 15, 62, 90
22, 73024, Note_on_c, 15, 66, 90
22, 73024, Note_on_c, 15, 68, 90
22, 73024, Note_on_c, 15, 72, 90
22, 73024, Note_on_c, 15, 76, 90
22, 73088, Note_off_c, 15, 60, 0
22, 73088, Note_off_c, 15, 62, 0
22, 73088, Note_off_c, 15, 66, 0
22, 73088, Note_off_c, 15, 68, 0
22, 73088, Note_off_c, 15, 72, 0
22, 73088, Note_off_c, 15, 76, 0
22, 73088, Note_on_c, 15, 60, 97
22, 73088, Note_on_c, 15, 62, 97
22, 73088, Note_on_c, 15, 66, 97
22, 73088, Note_on_c, 15, 68, 97
22, 73088, Note_on_c, 15, 72, 97
22, 73088, Note_on_c, 15, 76, 97
22, 73152, Note_off_c, 15, 60, 0
22, 73152, Note_off_c, 15, 62, 0
22, 73152, Note_off_c, 15, 66, 0
22, 73152, Note_off_c, 15, 68, 0
22, 73152, Note_off_c, 15, 72, 0
22, 73152, Note_off_c, 15, 76, 0
22, 73152, Note_on_c, 15, 60, 99
22, 73152, Note_on_c, 15, 62, 99
22, 73152, Note_on_c, 15, 66, 99
22, 73152, Note_on_c, 15, 68, 99
22, 73152, Note_on_c, 15, 72, 99
22, 73152, Note_on_c, 15, 76, 99
22, 73216, Note_off_c, 15, 60, 0
22, 73216, Note_off_c, 15, 62, 0
22, 73216, Note_off_c, 15, 66, 0
22, 73216, Note_off_c, 15, 68, 0
22, 73216, Note_off_c, 15, 72, 0
22, 73216, Note_off_c, 15, 76, 0
22, 73280, Note_on_c, 15, 60, 86
22, 73280, Note_on_c, 15, 62, 86
22, 73280, Note_on_c, 15, 66, 86
22, 73280, Note_on_c, 15, 68, 86
22, 73280, Note_on_c, 15, 74, 86
22, 73280, Note_on_c, 15, 77, 86
22, 73344, Note_off_c, 15, 60, 0
22, 73344, Note_off_c, 15, 62, 0
22, 73344, Note_off_c, 15, 66, 0
22, 73344, Note_off_c, 15, 68, 0
22, 73344, Note_off_c, 15, 74, 0
22, 73344, Note_off_c, 15, 77, 0
22, 73408, Note_on_c, 15, 60, 92
22, 73408, Note_on_c, 15, 62, 92
22, 73408, Note_on_c, 15, 66, 92
22, 73408, Note_on_c, 15, 68, 92
22, 73408, Note_on_c, 15, 74, 92
22, 73408, Note_on_c, 15, 77, 92
22, 73472, Note_off_c, 15, 60, 0
22, 73472, Note_off_c, 15, 62, 0
22, 73472, Note_off_c, 15, 66, 0
22, 73472, Note_off_c, 15, 68, 0
22, 73472, Note_off_c, 15, 74, 0
22, 73472, Note_off_c, 15, 77, 0
22, 73536, Note_on_c, 15, 60, 89
22, 73536, Note_on_c, 15, 62, 89
22, 73536, Note_on_c, 15, 66, 89
22, 73536, Note_on_c, 15, 68, 89
22, 73536, Note_on_c, 15, 76, 89
22, 73536, Note_on_c, 15, 79, 89
22, 73600, Note_off_c, 15, 60, 0
22, 73600, Note_off_c, 15, 62, 0
22, 73600, Note_off_c, 15, 66, 0
22, 73600, Note_off_c, 15, 68, 0
22, 73600, Note_off_c, 15, 76, 0
22, 73600, Note_off_c, 15, 79, 0
22, 73600, Note_on_c, 15, 60, 89
22, 73600, Note_on_c, 15, 62, 89
22, 73600, Note_on_c, 15, 66, 89
22, 73600, Note_on_c, 15, 68, 89
22, 73600, Note_on_c, 15, 76, 89
22, 73600, Note_on_c, 15, 79, 89
22, 73664, Note_off_c, 15, 60, 0
22, 73664, Note_off_c, 15, 62, 0
22, 73664, Note_off_c, 15, 66, 0
22, 73664, Note_off_c, 15, 68, 0
22, 73664, Note_off_c, 15, 76, 0
22, 73664, Note_off_c, 15, 79, 0
22, 73664, Note_on_c, 15, 60, 96
22, 73664, Note_on_c, 15, 62, 96
22, 73664, Note_on_c, 15, 66, 96
22, 73664, Note_on_c, 15, 68, 96
22, 73664, Note_on_c, 15, 76, 96
22, 73664, Note_on_c, 15, 79, 96
22, 73728, Note_off_c, 15, 60, 0
22, 73728, Note_off_c, 15, 62, 0
22, 73728, Note_off_c, 15, 66, 0
22, 73728, Note_off_c, 15, 68, 0
22, 73728, Note_off_c, 15, 76, 0
22, 73728, Note_off_c, 15, 79, 0
22, 73792, Note_on_c, 15, 61, 90
22, 73792, Note_on_c, 15, 64, 90
22, 73792, Note_on_c, 15, 67, 90
22, 73792, Note_on_c, 15, 69, 90
22, 73792, Note_on_c, 15, 77, 90
22, 73792, Note_on_c, 15, 80, 90
22, 73856, Note_off_c, 15, 61, 0
22, 73856, Note_off_c, 15, 64, 0
22, 73856, Note_off_c, 15, 67, 0
22, 73856, Note_off_c, 15, 69, 0
22, 73856, Note_off_c, 15, 77, 0
22, 73856, Note_off_c, 15, 80, 0
22, 73920, Note_on_c, 15, 61, 87
22, 73920, Note_on_c, 15, 64, 87
22, 73920, Note_on_c, 15, 67, 87
22, 73920, Note_on_c, 15, 69, 87
22, 73920, Note_on_c, 15, 77, 87
22, 73920, Note_on_c, 15, 80, 87
22, 73984, Note_off_c, 15, 61, 0
22, 73984, Note_off_c, 15, 64, 0
22, 73984, Note_off_c, 15, 67, 0
22, 73984, Note_off_c, 15, 69, 0
22, 73984, Note_off_c, 15, 77, 0
22, 73984, Note_off_c, 15, 80, 0
22, 74048, Note_on_c, 15, 60, 88
22, 74048, Note_on_c, 15, 62, 88
22, 74048, Note_on_c, 15, 66, 88
22, 74048, Note_on_c, 15, 69, 88
22, 74048, Note_on_c, 15, 80, 88
22, 74048, Note_on_c, 15, 83, 88
22, 74112, Note_off_c, 15, 60, 0
22, 74112, Note_off_c, 15, 62, 0
22, 74112, Note_off_c, 15, 66, 0
22, 74112, Note_off_c, 15, 69, 0
22, 74112, Note_off_c, 15, 80, 0
22, 74112, Note_off_c, 15, 83, 0
22, 74176, Note_on_c, 15, 58, 89
22, 74176, Note_on_c, 15, 60, 89
22, 74176, Note_on_c, 15, 64, 89
22, 74176, Note_on_c, 15, 67, 89
22, 74176, Note_on_c, 15, 69, 89
22, 74176, Note_on_c, 15, 72, 89
22, 74240, Note_off_c, 15, 58, 0
22, 74240, Note_off_c, 15, 60, 0
22, 74240, Note_off_c, 15, 64, 0
22, 74240, Note_off_c, 15, 67, 0
22, 74240, Note_off_c, 15, 69, 0
22, 74240, Note_off_c, 15, 72, 0
22, 74304, Note_on_c, 15, 58, 83
22, 74304, Note_on_c, 15, 60, 83
22, 74304, Note_on_c, 15, 64, 83
22, 74304, Note_on_c, 15, 67, 83
22, 74304, Note_on_c, 15, 69, 83
22, 74304, Note_on_c, 15, 72, 83
22, 74368, Note_off_c, 15, 58, 0
22, 74368, Note_off_c, 15, 60, 0
22, 74368, Note_off_c, 15, 64, 0
22, 74368, Note_off_c, 15, 67, 0
22, 74368, Note_off_c, 15, 69, 0
22, 74368, Note_off_c, 15, 72, 0
22, 74432, Note_on_c, 15, 59, 91
22, 74432, Note_on_c, 15, 61, 91
22, 74432, Note_on_c, 15, 66, 91
22, 74432, Note_on_c, 15, 68, 91
22, 74432, Note_on_c, 15, 70, 91
22, 74432, Note_on_c, 15, 73, 91
22, 74496, Note_off_c, 15, 59, 0
22, 74496, Note_off_c, 15, 61, 0
22, 74496, Note_off_c, 15, 66, 0
22, 74496, Note_off_c, 15, 68, 0
22, 74496, Note_off_c, 15, 70, 0
22, 74496, Note_off_c, 15, 73, 0
22, 74560, Note_on_c, 15, 59, 85
22, 74560, Note_on_c, 15, 61, 85
22, 74560, Note_on_c, 15, 66, 85
22, 74560, Note_on_c, 15, 68, 85
22, 74560, Note_on_c, 15, 73, 85
22, 74560, Note_on_c, 15, 75, 85
22, 74624, Note_off_c, 15, 59, 0
22, 74624, Note_off_c, 15, 61, 0
22, 74624, Note_off_c, 15, 66, 0
22, 74624, Note_off_c, 15, 68, 0
22, 74624, Note_off_c, 15, 73, 0
22, 74624, Note_off_c, 15, 75, 0
22, 74688, Note_on_c, 15, 59, 86
22, 74688, Note_on_c, 15, 61, 86
22, 74688, Note_on_c, 15, 66, 86
22, 74688, Note_on_c, 15, 68, 86
22, 74688, Note_on_c, 15, 73, 86
22, 74688, Note_on_c, 15, 75, 86
22, 74752, Note_off_c, 15, 59, 0
22, 74752, Note_off_c, 15, 61, 0
22, 74752, Note_off_c, 15, 66, 0
22, 74752, Note_off_c, 15, 68, 0
22, 74752, Note_off_c, 15, 73, 0
22, 74752, Note_off_c, 15, 75, 0
22, 74816, Note_on_c, 15, 58, 90
22, 74816, Note_on_c, 15, 60, 90
22, 74816, Note_on_c, 15, 64, 90
22, 74816, Note_on_c, 15, 67, 90
22, 74816, Note_on_c, 15, 76, 90
22, 74816, Note_on_c, 15, 79, 90
22, 74880, Note_off_c, 15, 58, 0
22, 74880, Note_off_c, 15, 60, 0
22, 74880, Note_off_c, 15, 64, 0
22, 74880, Note_off_c, 15, 67, 0
22, 74880, Note_off_c, 15, 76, 0
22, 74880, Note_off_c, 15, 79, 0
22, 74944, Note_on_c, 15, 57, 90
22, 74944, Note_on_c, 15, 59, 90
22, 74944, Note_on_c, 15, 63, 90
22, 74944, Note_on_c, 15, 66, 90
22, 74944, Note_on_c, 15, 68, 90
22, 74944, Note_on_c, 15, 71, 90
22, 75008, Note_off_c, 15, 57, 0
22, 75008, Note_off_c, 15, 59, 0
22, 75008, Note_off_c, 15, 63, 0
22, 75008, Note_off_c, 15, 66, 0
22, 75008, Note_off_c, 15, 68, 0
22, 75008, Note_off_c, 15, 71, 0
22, 75072, Note_on_c, 15, 56, 85
22, 75072, Note_on_c, 15, 58, 85
22, 75072, Note_on_c, 15, 62, 85
22, 75072, Note_on_c, 15, 65, 85
22, 75072, Note_on_c, 15, 67, 85
22, 75072, Note_on_c, 15, 70, 85
22, 75136, Note_off_c, 15, 56, 0
22, 75136, Note_off_c, 15, 58, 0
22, 75136, Note_off_c, 15, 62, 0
22, 75136, Note_off_c, 15, 65, 0
22, 75136, Note_off_c, 15, 67, 0
22, 75136, Note_off_c, 15, 70, 0
22, 75200, Note_on_c, 15, 56, 92
22, 75200, Note_on_c, 15, 58, 92
22, 75200, Note_on_c, 15, 62, 92
22, 75200, Note_on_c, 15, 65, 92
22, 75200, Note_on_c, 15, 67, 92
22, 75200, Note_on_c, 15, 70, 92
22, 75264, Note_off_c, 15, 56, 0
22, 75264, Note_off_c, 15, 58, 0
22, 75264, Note_off_c, 15, 62, 0
22, 75264, Note_off_c, 15, 65, 0
22, 75264, Note_off_c, 15, 67, 0
22, 75264, Note_off_c, 15, 70, 0
22, 75328, Note_on_c, 15, 57, 90
22, 75328, Note_on_c, 15, 59, 90
22, 75328, Note_on_c, 15, 63, 90
22, 75328, Note_on_c, 15, 66, 90
22, 75328, Note_on_c, 15, 68, 90
22, 75328, Note_on_c, 15, 71, 90
22, 75392, Note_off_c, 15, 57, 0
22, 75392, Note_off_c, 15, 59, 0
22, 75392, Note_off_c, 15, 63, 0
22, 75392, Note_off_c, 15, 66, 0
22, 75392, Note_off_c, 15, 68, 0
22, 75392, Note_off_c, 15, 71, 0
22, 75456, Note_on_c, 15, 57, 91
22, 75456, Note_on_c, 15, 59, 91
22, 75456, Note_on_c, 15, 63, 91
22, 75456, Note_on_c, 15, 66, 91
22, 75456, Note_on_c, 15, 68, 91
22, 75456, Note_on_c, 15, 71, 91
22, 75520, Note_off_c, 15, 57, 0
22, 75520, Note_off_c, 15, 59, 0
22, 75520, Note_off_c, 15, 63, 0
22, 75520, Note_off_c, 15, 66, 0
22, 75520, Note_off_c, 15, 68, 0
22, 75520, Note_off_c, 15, 71, 0
22, 75584, Note_on_c, 15, 53, 93
22, 75584, Note_on_c, 15, 56, 93
22, 75584, Note_on_c, 15, 59, 93
22, 75584, Note_on_c, 15, 63, 93
22, 75584, Note_on_c, 15, 71, 93
22, 75584, Note_on_c, 15, 74, 93
22, 75648, Note_off_c, 15, 53, 0
22, 75648, Note_off_c, 15, 56, 0
22, 75648, Note_off_c, 15, 59, 0
22, 75648, Note_off_c, 15, 63, 0
22, 75648, Note_off_c, 15, 71, 0
22, 75648, Note_off_c, 15, 74, 0
22, 75712, Note_on_c, 15, 53, 98
22, 75712, Note_on_c, 15, 56, 98
22, 75712, Note_on_c, 15, 59, 98
22, 75712, Note_on_c, 15, 63, 98
22, 75712, Note_on_c, 15, 71, 98
22, 75712, Note_on_c, 15, 74, 98
22, 75776, Note_off_c, 15, 53, 0
22, 75776, Note_off_c, 15, 56, 0
22, 75776, Note_off_c, 15, 59, 0
22, 75776, Note_off_c, 15, 63, 0
22, 75776, Note_off_c, 15, 71, 0
22, 75776, Note_off_c, 15, 74, 0
22, 75840, Note_on_c, 15, 50, 98
22, 75840, Note_on_c, 15, 54, 98
22, 75840, Note_on_c, 15, 60, 98
22, 75840, Note_on_c, 15, 68, 98
22, 75840, Note_on_c, 15, 74, 98
22, 75840, Note_on_c, 15, 77, 98
22, 75904, Note_off_c, 15, 50, 0
22, 75904, Note_off_c, 15, 54, 0
22, 75904, Note_off_c, 15, 60, 0
22, 75904, Note_off_c, 15, 68, 0
22, 75904, Note_off_c, 15, 74, 0
22, 75904, Note_off_c, 15, 77, 0
22, 75968, Note_on_c, 15, 50, 99
22, 75968, Note_on_c, 15, 54, 99
22, 75968, Note_on_c, 15, 57, 99
22, 75968, Note_on_c, 15, 60, 99
22, 75968, Note_on_c, 15, 68, 99
22, 76032, Note_off_c, 15, 50, 0
22, 76032, Note_off_c, 15, 54, 0
22, 76032, Note_off_c, 15, 57, 0
22, 76032, Note_off_c, 15, 60, 0
22, 76032, Note_off_c, 15, 68, 0
22, 76096, Note_on_c, 15, 49, 100
22, 76096, Note_on_c, 15, 53, 100
22, 76096, Note_on_c, 15, 56, 100
22, 76096, Note_on_c, 15, 59, 100
22, 76096, Note_on_c, 15, 65, 100
22, 76096, Note_on_c, 15, 68, 100
22, 76160, Note_off_c, 15, 49, 0
22, 76160, Note_off_c, 15, 53, 0
22, 76160, Note_off_c, 15, 56, 0
22, 76160, Note_off_c, 15, 59, 0
22, 76160, Note_off_c, 15, 65, 0
22, 76160, Note_off_c, 15, 68, 0
22, 89088, Control_c, 14, 7, 95
22, 89088, Control_c, 14, 10, 95
22, 89088, Control_c, 14, 91, 72
22, 90816, Note_on_c, 14, 48, 104
22, 90816, Note_on_c, 14, 58, 104
22, 90816, Note_on_c, 14, 66, 104
22, 90944, Note_off_c, 14, 48, 0
22, 90944, Note_off_c, 14, 58, 0
22, 90944, Note_off_c, 14, 66, 0
22, 90944, Note_on_c, 14, 48, 109
22, 90944, Note_on_c, 14, 58, 109
22, 90944, Note_on_c, 14, 66, 109
22, 91072, Note_off_c, 14, 48, 0
22, 91072, Note_off_c, 14, 58, 0
22, 91072, Note_off_c, 14, 66, 0
22, 91072, Note_on_c, 14, 48, 118
22, 91072, Note_on_c, 14, 58, 118
22, 91072, Note_on_c, 14, 66, 118
22, 91200, Note_off_c, 14, 48, 0
22, 91200, Note_off_c, 14, 58, 0
22, 91200, Note_off_c, 14, 66, 0
22, 91200, Note_on_c, 14, 48, 115
22, 91200, Note_on_c, 14, 58, 115
22, 91200, Note_on_c, 14, 66, 115
22, 91328, Note_off_c, 14, 48, 0
22, 91328, Note_off_c, 14, 58, 0
22, 91328, Note_off_c, 14, 66, 0
22, 91328, Note_on_c, 14, 48, 110
22, 91328, Note_on_c, 14, 58, 110
22, 91328, Note_on_c, 14, 66, 110
22, 91456, Note_off_c, 14, 48, 0
22, 91456, Note_off_c, 14, 58, 0
22, 91456, Note_off_c, 14, 66, 0
22, 91456, Note_on_c, 14, 48, 113
22, 91456, Note_on_c, 14, 58, 113
22, 91456, Note_on_c, 14, 66, 113
22, 91584, Note_off_c, 14, 48, 0
22, 91584, Note_off_c, 14, 58, 0
22, 91584, Note_off_c, 14, 66, 0
22, 91584, Note_on_c, 14, 48, 113
22, 91584, Note_on_c, 14, 58, 113
22, 91584, Note_on_c, 14, 66, 113
22, 91712, Note_off_c, 14, 48, 0
22, 91712, Note_off_c, 14, 58, 0
22, 91712, Note_off_c, 14, 66, 0
22, 91712, Note_on_c, 14, 48, 116
22, 91712, Note_on_c, 14, 58, 116
22, 91712, Note_on_c, 14, 66, 116
22, 91840, Note_off_c, 14, 48, 0
22, 91840, Note_off_c, 14, 58, 0
22, 91840, Note_off_c, 14, 66, 0
22, 91840, Note_on_c, 14, 48, 112
22, 91840, Note_on_c, 14, 58, 112
22, 91840, Note_on_c, 14, 66, 112
22, 91968, Note_off_c, 14, 48, 0
22, 91968, Note_off_c, 14, 58, 0
22, 91968, Note_off_c, 14, 66, 0
22, 91968, Note_on_c, 14, 48, 112
22, 91968, Note_on_c, 14, 58, 112
22, 91968, Note_on_c, 14, 66, 112
22, 92096, Note_off_c, 14, 48, 0
22, 92096, Note_off_c, 14, 58, 0
22, 92096, Note_off_c, 14, 66, 0
22, 92096, Note_on_c, 14, 48, 109
22, 92096, Note_on_c, 14, 58, 109
22, 92096, Note_on_c, 14, 66, 109
22, 92224, Note_off_c, 14, 48, 0
22, 92224, Note_off_c, 14, 58, 0
22, 92224, Note_off_c, 14, 66, 0
22, 92224, Note_on_c, 14, 48, 112
22, 92224, Note_on_c, 14, 58, 112
22, 92224, Note_on_c, 14, 66, 112
22, 92352, Note_off_c, 14, 48, 0
22, 92352, Note_off_c, 14, 58, 0
22, 92352, Note_off_c, 14, 66, 0
22, 92352, Note_on_c, 14, 42, 103
22, 92352, Note_on_c, 14, 52, 103
22, 92352, Note_on_c, 14, 61, 103
22, 92480, Note_off_c, 14, 42, 0
22, 92480, Note_off_c, 14, 52, 0
22, 92480, Note_off_c, 14, 61, 0
22, 92480, Note_on_c, 14, 42, 106
22, 92480, Note_on_c, 14, 52, 106
22, 92480, Note_on_c, 14, 61, 106
22, 92608, Note_off_c, 14, 42, 0
22, 92608, Note_off_c, 14, 52, 0
22, 92608, Note_off_c, 14, 61, 0
22, 92608, Note_on_c, 14, 42, 115
22, 92608, Note_on_c, 14, 52, 115
22, 92608, Note_on_c, 14, 61, 115
22, 92736, Note_off_c, 14, 42, 0
22, 92736, Note_off_c, 14, 52, 0
22, 92736, Note_off_c, 14, 61, 0
22, 92736, Note_on_c, 14, 42, 112
22, 92736, Note_on_c, 14, 52, 112
22, 92736, Note_on_c, 14, 61, 112
22, 92864, Note_off_c, 14, 42, 0
22, 92864, Note_off_c, 14, 52, 0
22, 92864, Note_off_c, 14, 61, 0
22, 92864, Note_on_c, 14, 42, 119
22, 92864, Note_on_c, 14, 52, 119
22, 92864, Note_on_c, 14, 61, 119
22, 92992, Note_off_c, 14, 42, 0
22, 92992, Note_off_c, 14, 52, 0
22, 92992, Note_off_c, 14, 61, 0
22, 92992, Note_on_c, 14, 42, 114
22, 92992, Note_on_c, 14, 52, 114
22, 92992, Note_on_c, 14, 61, 114
22, 93120, Note_off_c, 14, 42, 0
22, 93120, Note_off_c, 14, 52, 0
22, 93120, Note_off_c, 14, 61, 0
22, 93120, Note_on_c, 14, 42, 111
22, 93120, Note_on_c, 14, 52, 111
22, 93120, Note_on_c, 14, 61, 111
22, 93248, Note_off_c, 14, 42, 0
22, 93248, Note_off_c, 14, 52, 0
22, 93248, Note_off_c, 14, 61, 0
22, 93248, Note_on_c, 14, 45, 111
22, 93248, Note_on_c, 14, 55, 111
22, 93248, Note_on_c, 14, 61, 111
22, 93376, Note_off_c, 14, 45, 0
22, 93376, Note_off_c, 14, 55, 0
22, 93376, Note_off_c, 14, 61, 0
22, 93376, Note_on_c, 14, 45, 115
22, 93376, Note_on_c, 14, 55, 115
22, 93376, Note_on_c, 14, 61, 115
22, 93504, Note_off_c, 14, 45, 0
22, 93504, Note_off_c, 14, 55, 0
22, 93504, Note_off_c, 14, 61, 0
22, 93504, Note_on_c, 14, 45, 111
22, 93504, Note_on_c, 14, 55, 111
22, 93504, Note_on_c, 14, 61, 111
22, 93632, Note_off_c, 14, 45, 0
22, 93632, Note_off_c, 14, 55, 0
22, 93632, Note_off_c, 14, 61, 0
22, 93632, Note_on_c, 14, 45, 113
22, 93632, Note_on_c, 14, 55, 113
22, 93632, Note_on_c, 14, 61, 113
22, 93760, Note_off_c, 14, 45, 0
22, 93760, Note_off_c, 14, 55, 0
22, 93760, Note_off_c, 14, 61, 0
22, 93760, Note_on_c, 14, 45, 112
22, 93760, Note_on_c, 14, 55, 112
22, 93760, Note_on_c, 14, 61, 112
22, 93888, Note_off_c, 14, 45, 0
22, 93888, Note_off_c, 14, 55, 0
22, 93888, Note_off_c, 14, 61, 0
22, 93888, Note_on_c, 14, 45, 114
22, 93888, Note_on_c, 14, 55, 114
22, 93888, Note_on_c, 14, 61, 114
22, 94016, Note_off_c, 14, 45, 0
22, 94016, Note_off_c, 14, 55, 0
22, 94016, Note_off_c, 14, 61, 0
22, 94016, Note_on_c, 14, 45, 114
22, 94016, Note_on_c, 14, 55, 114
22, 94016, Note_on_c, 14, 61, 114
22, 94144, Note_off_c, 14, 45, 0
22, 94144, Note_off_c, 14, 55, 0
22, 94144, Note_off_c, 14, 61, 0
22, 94144, Note_on_c, 14, 45, 114
22, 94144, Note_on_c, 14, 55, 114
22, 94144, Note_on_c, 14, 61, 114
22, 94272, Note_off_c, 14, 45, 0
22, 94272, Note_off_c, 14, 55, 0
22, 94272, Note_off_c, 14, 61, 0
22, 94272, Note_on_c, 14, 46, 120
22, 94272, Note_on_c, 14, 56, 120
22, 94272, Note_on_c, 14, 62, 120
22, 94400, Note_off_c, 14, 46, 0
22, 94400, Note_off_c, 14, 56, 0
22, 94400, Note_off_c, 14, 62, 0
22, 94400, Note_on_c, 14, 46, 111
22, 94400, Note_on_c, 14, 56, 111
22, 94400, Note_on_c, 14, 62, 111
22, 94528, Note_off_c, 14, 46, 0
22, 94528, Note_off_c, 14, 56, 0
22, 94528, Note_off_c, 14, 62, 0
22, 94528, Note_on_c, 14, 46, 109
22, 94528, Note_on_c, 14, 56, 109
22, 94528, Note_on_c, 14, 62, 109
22, 94656, Note_off_c, 14, 46, 0
22, 94656, Note_off_c, 14, 56, 0
22, 94656, Note_off_c, 14, 62, 0
22, 94656, Note_on_c, 14, 46, 110
22, 94656, Note_on_c, 14, 56, 110
22, 94656, Note_on_c, 14, 62, 110
22, 94784, Note_off_c, 14, 46, 0
22, 94784, Note_off_c, 14, 56, 0
22, 94784, Note_off_c, 14, 62, 0
22, 94784, Note_on_c, 14, 46, 113
22, 94784, Note_on_c, 14, 56, 113
22, 94784, Note_on_c, 14, 62, 113
22, 94912, Note_off_c, 14, 46, 0
22, 94912, Note_off_c, 14, 56, 0
22, 94912, Note_off_c, 14, 62, 0
22, 94912, Note_on_c, 14, 46, 110
22, 94912, Note_on_c, 14, 56, 110
22, 94912, Note_on_c, 14, 62, 110
22, 95040, Note_off_c, 14, 46, 0
22, 95040, Note_off_c, 14, 56, 0
22, 95040, Note_off_c, 14, 62, 0
22, 95040, Note_on_c, 14, 47, 105
22, 95040, Note_on_c, 14, 57, 105
22, 95040, Note_on_c, 14, 61, 105
22, 95168, Note_off_c, 14, 47, 0
22, 95168, Note_off_c, 14, 57, 0
22, 95168, Note_off_c, 14, 61, 0
22, 95168, Note_on_c, 14, 47, 112
22, 95168, Note_on_c, 14, 57, 112
22, 95168, Note_on_c, 14, 61, 112
22, 95296, Note_off_c, 14, 47, 0
22, 95296, Note_off_c, 14, 57, 0
22, 95296, Note_off_c, 14, 61, 0
22, 95296, Note_on_c, 14, 47, 117
22, 95296, Note_on_c, 14, 57, 117
22, 95296, Note_on_c, 14, 61, 117
22, 95424, Note_off_c, 14, 47, 0
22, 95424, Note_off_c, 14, 57, 0
22, 95424, Note_off_c, 14, 61, 0
22, 95424, Note_on_c, 14, 47, 112
22, 95424, Note_on_c, 14, 57, 112
22, 95424, Note_on_c, 14, 61, 112
22, 95552, Note_off_c, 14, 47, 0
22, 95552, Note_off_c, 14, 57, 0
22, 95552, Note_off_c, 14, 61, 0
22, 95552, Note_on_c, 14, 47, 110
22, 95552, Note_on_c, 14, 57, 110
22, 95552, Note_on_c, 14, 61, 110
22, 95680, Note_off_c, 14, 47, 0
22, 95680, Note_off_c, 14, 57, 0
22, 95680, Note_off_c, 14, 61, 0
22, 95680, Note_on_c, 14, 47, 113
22, 95680, Note_on_c, 14, 57, 113
22, 95680, Note_on_c, 14, 61, 113
22, 95808, Note_off_c, 14, 47, 0
22, 95808, Note_off_c, 14, 57, 0
22, 95808, Note_off_c, 14, 61, 0
22, 95808, Note_on_c, 14, 47, 115
22, 95808, Note_on_c, 14, 57, 115
22, 95808, Note_on_c, 14, 61, 115
22, 95936, Note_off_c, 14, 47, 0
22, 95936, Note_off_c, 14, 57, 0
22, 95936, Note_off_c, 14, 61, 0
22, 95936, Note_on_c, 14, 47, 113
22, 95936, Note_on_c, 14, 57, 113
22, 95936, Note_on_c, 14, 61, 113
22, 96064, Note_off_c, 14, 47, 0
22, 96064, Note_off_c, 14, 57, 0
22, 96064, Note_off_c, 14, 61, 0
22, 96064, Note_on_c, 14, 40, 116
22, 96064, Note_on_c, 14, 47, 116
22, 96064, Note_on_c, 14, 62, 116
22, 96192, Note_off_c, 14, 40, 0
22, 96192, Note_off_c, 14, 47, 0
22, 96192, Note_off_c, 14, 62, 0
22, 96192, Note_on_c, 14, 40, 113
22, 96192, Note_on_c, 14, 47, 113
22, 96192, Note_on_c, 14, 62, 113
22, 96320, Note_off_c, 14, 40, 0
22, 96320, Note_off_c, 14, 47, 0
22, 96320, Note_off_c, 14, 62, 0
22, 96320, Note_on_c, 14, 47, 107
22, 96320, Note_on_c, 14, 57, 107
22, 96320, Note_on_c, 14, 61, 107
22, 96448, Note_off_c, 14, 47, 0
22, 96448, Note_off_c, 14, 57, 0
22, 96448, Note_off_c, 14, 61, 0
22, 96448, Note_on_c, 14, 47, 111
22, 96448, Note_on_c, 14, 57, 111
22, 96448, Note_on_c, 14, 61, 111
22, 96576, Note_off_c, 14, 47, 0
22, 96576, Note_off_c, 14, 57, 0
22, 96576, Note_off_c, 14, 61, 0
22, 96576, Note_on_c, 14, 47, 116
22, 96576, Note_on_c, 14, 57, 116
22, 96576, Note_on_c, 14, 61, 116
22, 96704, Note_off_c, 14, 47, 0
22, 96704, Note_off_c, 14, 57, 0
22, 96704, Note_off_c, 14, 61, 0
22, 96704, Note_on_c, 14, 40, 120
22, 96704, Note_on_c, 14, 47, 120
22, 96704, Note_on_c, 14, 62, 120
22, 96832, Note_off_c, 14, 40, 0
22, 96832, Note_off_c, 14, 47, 0
22, 96832, Note_off_c, 14, 62, 0
22, 96832, Note_on_c, 14, 47, 113
22, 96832, Note_on_c, 14, 57, 113
22, 96832, Note_on_c, 14, 61, 113
22, 96960, Note_off_c, 14, 47, 0
22, 96960, Note_off_c, 14, 57, 0
22, 96960, Note_off_c, 14, 61, 0
22, 96960, Note_on_c, 14, 47, 113
22, 96960, Note_on_c, 14, 57, 113
22, 96960, Note_on_c, 14, 61, 113
22, 97088, Note_off_c, 14, 47, 0
22, 97088, Note_off_c, 14, 57, 0
22, 97088, Note_off_c, 14, 61, 0
22, 97088, Note_on_c, 14, 42, 120
22, 97088, Note_on_c, 14, 52, 120
22, 97088, Note_on_c, 14, 62, 120
22, 97216, Note_off_c, 14, 42, 0
22, 97216, Note_off_c, 14, 52, 0
22, 97216, Note_off_c, 14, 62, 0
22, 97216, Note_on_c, 14, 48, 113
22, 97216, Note_on_c, 14, 58, 113
22, 97216, Note_on_c, 14, 62, 113
22, 97344, Note_off_c, 14, 48, 0
22, 97344, Note_off_c, 14, 58, 0
22, 97344, Note_off_c, 14, 62, 0
22, 97344, Note_on_c, 14, 48, 111
22, 97344, Note_on_c, 14, 58, 111
22, 97344, Note_on_c, 14, 62, 111
22, 97472, Note_off_c, 14, 48, 0
22, 97472, Note_off_c, 14, 58, 0
22, 97472, Note_off_c, 14, 62, 0
22, 97472, Note_on_c, 14, 48, 108
22, 97472, Note_on_c, 14, 58, 108
22, 97472, Note_on_c, 14, 62, 108
22, 97600, Note_off_c, 14, 48, 0
22, 97600, Note_off_c, 14, 58, 0
22, 97600, Note_off_c, 14, 62, 0
22, 97600, Note_on_c, 14, 48, 111
22, 97600, Note_on_c, 14, 58, 111
22, 97600, Note_on_c, 14, 62, 111
22, 97728, Note_off_c, 14, 48, 0
22, 97728, Note_off_c, 14, 58, 0
22, 97728, Note_off_c, 14, 62, 0
22, 97728, Note_on_c, 14, 42, 105
22, 97728, Note_on_c, 14, 52, 105
22, 97728, Note_on_c, 14, 61, 105
22, 97856, Note_off_c, 14, 42, 0
22, 97856, Note_off_c, 14, 52, 0
22, 97856, Note_off_c, 14, 61, 0
22, 97856, Note_on_c, 14, 48, 115
22, 97856, Note_on_c, 14, 58, 115
22, 97856, Note_on_c, 14, 62, 115
22, 97984, Note_off_c, 14, 48, 0
22, 97984, Note_off_c, 14, 58, 0
22, 97984, Note_off_c, 14, 62, 0
22, 97984, Note_on_c, 14, 48, 113
22, 97984, Note_on_c, 14, 58, 113
22, 97984, Note_on_c, 14, 62, 113
22, 98112, Note_off_c, 14, 48, 0
22, 98112, Note_off_c, 14, 58, 0
22, 98112, Note_off_c, 14, 62, 0
22, 98112, Note_on_c, 14, 48, 114
22, 98112, Note_on_c, 14, 58, 114
22, 98112, Note_on_c, 14, 62, 114
22, 98240, Note_off_c, 14, 48, 0
22, 98240, Note_off_c, 14, 58, 0
22, 98240, Note_off_c, 14, 62, 0
22, 98240, Note_on_c, 14, 48, 111
22, 98240, Note_on_c, 14, 58, 111
22, 98240, Note_on_c, 14, 62, 111
22, 98368, Note_off_c, 14, 48, 0
22, 98368, Note_off_c, 14, 58, 0
22, 98368, Note_off_c, 14, 62, 0
22, 98368, Note_on_c, 14, 49, 124
22, 98368, Note_on_c, 14, 59, 124
22, 98368, Note_on_c, 14, 65, 124
22, 98496, Note_off_c, 14, 49, 0
22, 98496, Note_off_c, 14, 59, 0
22, 98496, Note_off_c, 14, 65, 0
22, 98496, Note_on_c, 14, 49, 115
22, 98496, Note_on_c, 14, 59, 115
22, 98496, Note_on_c, 14, 65, 115
22, 98624, Note_off_c, 14, 49, 0
22, 98624, Note_off_c, 14, 59, 0
22, 98624, Note_off_c, 14, 65, 0
22, 98624, Note_on_c, 14, 49, 112
22, 98624, Note_on_c, 14, 59, 112
22, 98624, Note_on_c, 14, 65, 112
22, 98752, Note_off_c, 14, 49, 0
22, 98752, Note_off_c, 14, 59, 0
22, 98752, Note_off_c, 14, 65, 0
22, 98752, Note_on_c, 14, 49, 112
22, 98752, Note_on_c, 14, 59, 112
22, 98752, Note_on_c, 14, 65, 112
22, 98880, Note_off_c, 14, 49, 0
22, 98880, Note_off_c, 14, 59, 0
22, 98880, Note_off_c, 14, 65, 0
22, 98880, Note_on_c, 14, 49, 110
22, 98880, Note_on_c, 14, 59, 110
22, 98880, Note_on_c, 14, 65, 110
22, 99008, Note_off_c, 14, 49, 0
22, 99008, Note_off_c, 14, 59, 0
22, 99008, Note_off_c, 14, 65, 0
22, 99008, Note_on_c, 14, 49, 117
22, 99008, Note_on_c, 14, 59, 117
22, 99008, Note_on_c, 14, 65, 117
22, 99136, Note_off_c, 14, 49, 0
22, 99136, Note_off_c, 14, 59, 0
22, 99136, Note_off_c, 14, 65, 0
22, 99136, Note_on_c, 14, 49, 114
22, 99136, Note_on_c, 14, 59, 114
22, 99136, Note_on_c, 14, 65, 114
22, 99264, Note_off_c, 14, 49, 0
22, 99264, Note_off_c, 14, 59, 0
22, 99264, Note_off_c, 14, 65, 0
22, 99264, Note_on_c, 14, 49, 112
22, 99264, Note_on_c, 14, 59, 112
22, 99264, Note_on_c, 14, 65, 112
22, 99328, Note_off_c, 14, 49, 0
22, 99328, Note_off_c, 14, 59, 0
22, 99328, Note_off_c, 14, 65, 0
22, 99328, Note_on_c, 14, 49, 113
22, 99328, Note_on_c, 14, 59, 113
22, 99328, Note_on_c, 14, 65, 113
22, 99456, Note_off_c, 14, 49, 0
22, 99456, Note_off_c, 14, 59, 0
22, 99456, Note_off_c, 14, 65, 0
22, 99456, Note_on_c, 14, 49, 114
22, 99456, Note_on_c, 14, 59, 114
22, 99456, Note_on_c, 14, 65, 114
22, 99584, Note_off_c, 14, 49, 0
22, 99584, Note_off_c, 14, 59, 0
22, 99584, Note_off_c, 14, 65, 0
22, 99584, Note_on_c, 14, 49, 110
22, 99584, Note_on_c, 14, 59, 110
22, 99584, Note_on_c, 14, 65, 110
22, 99712, Note_off_c, 14, 49, 0
22, 99712, Note_off_c, 14, 59, 0
22, 99712, Note_off_c, 14, 65, 0
22, 99712, Note_on_c, 14, 49, 116
22, 99712, Note_on_c, 14, 59, 116
22, 99712, Note_on_c, 14, 65, 116
22, 99776, Note_off_c, 14, 49, 0
22, 99776, Note_off_c, 14, 59, 0
22, 99776, Note_off_c, 14, 65, 0
22, 99776, Note_on_c, 14, 49, 115
22, 99776, Note_on_c, 14, 59, 115
22, 99776, Note_on_c, 14, 65, 115
22, 99904, Note_off_c, 14, 49, 0
22, 99904, Note_off_c, 14, 59, 0
22, 99904, Note_off_c, 14, 65, 0
22, 99904, Note_on_c, 14, 49, 115
22, 99904, Note_on_c, 14, 59, 115
22, 99904, Note_on_c, 14, 65, 115
22, 100032, Note_off_c, 14, 49, 0
22, 100032, Note_off_c, 14, 59, 0
22, 100032, Note_off_c, 14, 65, 0
22, 100032, Note_on_c, 14, 49, 111
22, 100032, Note_on_c, 14, 59, 111
22, 100032, Note_on_c, 14, 65, 111
22, 100096, Note_off_c, 14, 49, 0
22, 100096, Note_off_c, 14, 59, 0
22, 100096, Note_off_c, 14, 65, 0
22, 100096, Note_on_c, 14, 49, 113
22, 100096, Note_on_c, 14, 59, 113
22, 100096, Note_on_c, 14, 65, 113
22, 100160, Note_off_c, 14, 49, 0
22, 100160, Note_off_c, 14, 59, 0
22, 100160, Note_off_c, 14, 65, 0
22, 100160, Note_on_c, 14, 49, 111
22, 100160, Note_on_c, 14, 59, 111
22, 100160, Note_on_c, 14, 65, 111
22, 100224, Note_off_c, 14, 49, 0
22, 100224, Note_off_c, 14, 59, 0
22, 100224, Note_off_c, 14, 65, 0
22, 100224, Note_on_c, 14, 49, 117
22, 100224, Note_on_c, 14, 60, 117
22, 100224, Note_on_c, 14, 66, 117
22, 100352, Note_off_c, 14, 49, 0
22, 100352, Note_off_c, 14, 60, 0
22, 100352, Note_off_c, 14, 66, 0
22, 100352, Note_on_c, 14, 49, 115
22, 100352, Note_on_c, 14, 60, 115
22, 100352, Note_on_c, 14, 66, 115
22, 100480, Note_off_c, 14, 49, 0
22, 100480, Note_off_c, 14, 60, 0
22, 100480, Note_off_c, 14, 66, 0
22, 100480, Note_on_c, 14, 49, 109
22, 100480, Note_on_c, 14, 60, 109
22, 100480, Note_on_c, 14, 66, 109
22, 100608, Note_off_c, 14, 49, 0
22, 100608, Note_off_c, 14, 60, 0
22, 100608, Note_off_c, 14, 66, 0
22, 100608, Note_on_c, 14, 49, 113
22, 100608, Note_on_c, 14, 60, 113
22, 100608, Note_on_c, 14, 66, 113
22, 100672, Note_off_c, 14, 49, 0
22, 100672, Note_off_c, 14, 60, 0
22, 100672, Note_off_c, 14, 66, 0
22, 100672, Note_on_c, 14, 49, 108
22, 100672, Note_on_c, 14, 60, 108
22, 100672, Note_on_c, 14, 66, 108
22, 100800, Note_off_c, 14, 49, 0
22, 100800, Note_off_c, 14, 60, 0
22, 100800, Note_off_c, 14, 66, 0
22, 100800, Note_on_c, 14, 49, 107
22, 100800, Note_on_c, 14, 60, 107
22, 100800, Note_on_c, 14, 66, 107
22, 100928, Note_off_c, 14, 49, 0
22, 100928, Note_off_c, 14, 60, 0
22, 100928, Note_off_c, 14, 66, 0
22, 100928, Note_on_c, 14, 49, 109
22, 100928, Note_on_c, 14, 60, 109
22, 100928, Note_on_c, 14, 66, 109
22, 100992, Note_off_c, 14, 49, 0
22, 100992, Note_off_c, 14, 60, 0
22, 100992, Note_off_c, 14, 66, 0
22, 100992, Note_on_c, 14, 49, 110
22, 100992, Note_on_c, 14, 60, 110
22, 100992, Note_on_c, 14, 66, 110
22, 101120, Note_off_c, 14, 49, 0
22, 101120, Note_off_c, 14, 60, 0
22, 101120, Note_off_c, 14, 66, 0
22, 101120, Note_on_c, 14, 49, 115
22, 101120, Note_on_c, 14, 60, 115
22, 101120, Note_on_c, 14, 66, 115
22, 101248, Note_off_c, 14, 49, 0
22, 101248, Note_off_c, 14, 60, 0
22, 101248, Note_off_c, 14, 66, 0
22, 101248, Note_on_c, 14, 49, 117
22, 101248, Note_on_c, 14, 60, 117
22, 101248, Note_on_c, 14, 66, 117
22, 101312, Note_off_c, 14, 49, 0
22, 101312, Note_off_c, 14, 60, 0
22, 101312, Note_off_c, 14, 66, 0
22, 101312, Note_on_c, 14, 49, 108
22, 101312, Note_on_c, 14, 60, 108
22, 101312, Note_on_c, 14, 66, 108
22, 101440, Note_off_c, 14, 49, 0
22, 101440, Note_off_c, 14, 60, 0
22, 101440, Note_off_c, 14, 66, 0
22, 101440, Note_on_c, 14, 49, 112
22, 101440, Note_on_c, 14, 60, 112
22, 101440, Note_on_c, 14, 66, 112
22, 101568, Note_off_c, 14, 49, 0
22, 101568, Note_off_c, 14, 60, 0
22, 101568, Note_off_c, 14, 66, 0
22, 101568, Note_on_c, 14, 49, 107
22, 101568, Note_on_c, 14, 60, 107
22, 101568, Note_on_c, 14, 66, 107
22, 101696, Note_off_c, 14, 49, 0
22, 101696, Note_off_c, 14, 60, 0
22, 101696, Note_off_c, 14, 66, 0
22, 101696, Note_on_c, 14, 49, 110
22, 101696, Note_on_c, 14, 60, 110
22, 101696, Note_on_c, 14, 66, 110
22, 101824, Note_off_c, 14, 49, 0
22, 101824, Note_off_c, 14, 60, 0
22, 101824, Note_off_c, 14, 66, 0
22, 101824, Note_on_c, 14, 49, 111
22, 101824, Note_on_c, 14, 60, 111
22, 101824, Note_on_c, 14, 66, 111
22, 101952, Note_off_c, 14, 49, 0
22, 101952, Note_off_c, 14, 60, 0
22, 101952, Note_off_c, 14, 66, 0
22, 101952, Note_on_c, 14, 49, 112
22, 101952, Note_on_c, 14, 60, 112
22, 101952, Note_on_c, 14, 66, 112
22, 102080, Note_off_c, 14, 49, 0
22, 102080, Note_off_c, 14, 60, 0
22, 102080, Note_off_c, 14, 66, 0
22, 102080, Note_on_c, 14, 49, 114
22, 102080, Note_on_c, 14, 60, 114
22, 102080, Note_on_c, 14, 66, 114
22, 102208, Note_off_c, 14, 49, 0
22, 102208, Note_off_c, 14, 60, 0
22, 102208, Note_off_c, 14, 66, 0
22, 102208, Note_on_c, 14, 49, 112
22, 102208, Note_on_c, 14, 60, 112
22, 102208, Note_on_c, 14, 66, 112
22, 102336, Note_off_c, 14, 49, 0
22, 102336, Note_off_c, 14, 60, 0
22, 102336, Note_off_c, 14, 66, 0
22, 102336, Note_on_c, 14, 49, 117
22, 102336, Note_on_c, 14, 60, 117
22, 102336, Note_on_c, 14, 66, 117
22, 102464, Note_off_c, 14, 49, 0
22, 102464, Note_off_c, 14, 60, 0
22, 102464, Note_off_c, 14, 66, 0
22, 102464, Note_on_c, 14, 49, 110
22, 102464, Note_on_c, 14, 60, 110
22, 102464, Note_on_c, 14, 66, 110
22, 102592, Note_off_c, 14, 49, 0
22, 102592, Note_off_c, 14, 60, 0
22, 102592, Note_off_c, 14, 66, 0
22, 102592, Note_on_c, 14, 42, 112
22, 102592, Note_on_c, 14, 52, 112
22, 102592, Note_on_c, 14, 66, 112
22, 102720, Note_off_c, 14, 42, 0
22, 102720, Note_off_c, 14, 52, 0
22, 102720, Note_off_c, 14, 66, 0
22, 102720, Note_on_c, 14, 42, 108
22, 102720, Note_on_c, 14, 52, 108
22, 102720, Note_on_c, 14, 66, 108
22, 102848, Note_off_c, 14, 42, 0
22, 102848, Note_off_c, 14, 52, 0
22, 102848, Note_off_c, 14, 66, 0
22, 102848, Note_on_c, 14, 42, 117
22, 102848, Note_on_c, 14, 52, 117
22, 102848, Note_on_c, 14, 66, 117
22, 102976, Note_off_c, 14, 42, 0
22, 102976, Note_off_c, 14, 52, 0
22, 102976, Note_off_c, 14, 66, 0
22, 102976, Note_on_c, 14, 42, 105
22, 102976, Note_on_c, 14, 52, 105
22, 102976, Note_on_c, 14, 66, 105
22, 103104, Note_off_c, 14, 42, 0
22, 103104, Note_off_c, 14, 52, 0
22, 103104, Note_off_c, 14, 66, 0
22, 103104, Note_on_c, 14, 42, 94
22, 103104, Note_on_c, 14, 52, 94
22, 103104, Note_on_c, 14, 66, 94
22, 103232, Note_off_c, 14, 42, 0
22, 103232, Note_off_c, 14, 52, 0
22, 103232, Note_off_c, 14, 66, 0
22, 103232, Note_on_c, 14, 42, 79
22, 103232, Note_on_c, 14, 52, 79
22, 103232, Note_on_c, 14, 66, 79
22, 103360, Note_off_c, 14, 42, 0
22, 103360, Note_off_c, 14, 52, 0
22, 103360, Note_off_c, 14, 66, 0
22, 103360, Note_on_c, 14, 29, 64
22, 103360, Note_on_c, 14, 41, 64
22, 103360, Note_on_c, 14, 51, 64
22, 103360, Note_on_c, 14, 63, 64
22, 103808, Note_off_c, 14, 29, 0
22, 103808, Note_off_c, 14, 41, 0
22, 103808, Note_off_c, 14, 51, 0
22, 103808, Note_off_c, 14, 63, 0
22, 103808, Note_on_c, 14, 30, 92
22, 103808, Note_on_c, 14, 42, 92
22, 103808, Note_on_c, 14, 52, 92
22, 103808, Note_on_c, 14, 64, 92
22, 103936, Note_on_c, 14, 29, 58
22, 103936, Note_on_c, 14, 41, 58
22, 103936, Note_on_c, 14, 51, 58
22, 103936, Note_on_c, 14, 63, 58
22, 103938, Note_off_c, 14, 30, 0
22, 103938, Note_off_c, 14, 42, 0
22, 103938, Note_off_c, 14, 52, 0
22, 103938, Note_off_c, 14, 64, 0
22, 104179, Note_off_c, 14, 29, 0
22, 104179, Note_off_c, 14, 41, 0
22, 104179, Note_off_c, 14, 51, 0
22, 104179, Note_off_c, 14, 63, 0
22, 104192, Note_on_c, 14, 30, 92
22, 104192, Note_on_c, 14, 42, 92
22, 104192, Note_on_c, 14, 52, 92
22, 104192, Note_on_c, 14, 64, 92
22, 104320, Note_on_c, 14, 29, 59
22, 104320, Note_on_c, 14, 41, 59
22, 104320, Note_on_c, 14, 51, 59
22, 104320, Note_on_c, 14, 63, 59
22, 104322, Note_off_c, 14, 30, 0
22, 104322, Note_off_c, 14, 42, 0
22, 104322, Note_off_c, 14, 52, 0
22, 104322, Note_off_c, 14, 64, 0
22, 104563, Note_off_c, 14, 29, 0
22, 104563, Note_off_c, 14, 41, 0
22, 104563, Note_off_c, 14, 51, 0
22, 104563, Note_off_c, 14, 63, 0
22, 104576, Note_on_c, 14, 30, 64
22, 104576, Note_on_c, 14, 42, 64
22, 104576, Note_on_c, 14, 52, 64
22, 104576, Note_on_c, 14, 64, 64
22, 105600, Note_off_c, 14, 30, 0
22, 105600, Note_off_c, 14, 42, 0
22, 105600, Note_off_c, 14, 52, 0
22, 105600, Note_off_c, 14, 64, 0
22, 105600, Note_on_c, 14, 23, 35
22, 105600, Note_on_c, 14, 58, 35
22, 107776, Note_off_c, 14, 23, 0
22, 107776, Note_off_c, 14, 58, 0
22, 111616, Control_c, 15, 7, 95
22, 111616, Control_c, 15, 10, 95
22, 111616, Control_c, 15, 91, 72
22, 112064, Note_on_c, 15, 72, 64
22, 112064, Note_on_c, 15, 84, 64
22, 112128, Note_off_c, 15, 72, 0
22, 112128, Note_off_c, 15, 84, 0
22, 112448, Note_on_c, 15, 72, 67
22, 112448, Note_on_c, 15, 84, 67
22, 112512, Note_off_c, 15, 72, 0
22, 112512, Note_off_c, 15, 84, 0
22, 112832, Note_on_c, 15, 72, 63
22, 112832, Note_on_c, 15, 84, 63
22, 112896, Note_off_c, 15, 72, 0
22, 112896, Note_off_c, 15, 84, 0
22, 113216, Note_on_c, 15, 72, 66
22, 113216, Note_on_c, 15, 84, 66
22, 113280, Note_off_c, 15, 72, 0
22, 113280, Note_off_c, 15, 84, 0
22, 113600, Note_on_c, 15, 72, 61
22, 113600, Note_on_c, 15, 84, 61
22, 113664, Note_off_c, 15, 72, 0
22, 113664, Note_off_c, 15, 84, 0
22, 114176, Note_on_c, 15, 72, 65
22, 114176, Note_on_c, 15, 84, 65
22, 114304, Note_off_c, 15, 72, 0
22, 114304, Note_off_c, 15, 84, 0
22, 114560, Note_on_c, 15, 72, 63
22, 114560, Note_on_c, 15, 84, 63
22, 114688, Note_off_c, 15, 72, 0
22, 114688, Note_off_c, 15, 84, 0
22, 114944, Note_on_c, 15, 72, 66
22, 114944, Note_on_c, 15, 84, 66
22, 115072, Note_off_c, 15, 72, 0
22, 115072, Note_off_c, 15, 84, 0
22, 115520, Note_on_c, 15, 72, 60
22, 115520, Note_on_c, 15, 84, 60
22, 115584, Note_off_c, 15, 72, 0
22, 115584, Note_off_c, 15, 84, 0
22, 115904, Note_on_c, 15, 72, 59
22, 115904, Note_on_c, 15, 84, 59
22, 115968, Note_off_c, 15, 72, 0
22, 115968, Note_off_c, 15, 84, 0
22, 116480, Note_on_c, 15, 72, 61
22, 116480, Note_on_c, 15, 84, 61
22, 116608, Note_off_c, 15, 72, 0
22, 116608, Note_off_c, 15, 84, 0
22, 116864, Note_on_c, 15, 72, 63
22, 116864, Note_on_c, 15, 84, 63
22, 116992, Note_off_c, 15, 72, 0
22, 116992, Note_off_c, 15, 84, 0
22, 117440, Note_on_c, 15, 72, 63
22, 117440, Note_on_c, 15, 84, 63
22, 117504, Note_off_c, 15, 72, 0
22, 117504, Note_off_c, 15, 84, 0
22, 117824, Note_on_c, 15, 72, 58
22, 117824, Note_on_c, 15, 84, 58
22, 117888, Note_off_c, 15, 72, 0
22, 117888, Note_off_c, 15, 84, 0
22, 118208, Note_on_c, 15, 72, 59
22, 118208, Note_on_c, 15, 84, 59
22, 118272, Note_off_c, 15, 72, 0
22, 118272, Note_off_c, 15, 84, 0
22, 118592, Note_on_c, 15, 72, 53
22, 118592, Note_on_c, 15, 84, 53
22, 118656, Note_off_c, 15, 72, 0
22, 118656, Note_off_c, 15, 84, 0
22, 119040, Note_on_c, 15, 72, 54
22, 119040, Note_on_c, 15, 84, 54
22, 119104, Note_off_c, 15, 72, 0
22, 119104, Note_off_c, 15, 84, 0
22, 121088, Note_on_c, 15, 72, 54
22, 121088, Note_on_c, 15, 81, 54
22, 121088, Note_on_c, 15, 88, 54
22, 121152, Note_off_c, 15, 72, 0
22, 121152, Note_off_c, 15, 81, 0
22, 121152, Note_off_c, 15, 88, 0
22, 121152, Note_on_c, 15, 72, 56
22, 121152, Note_on_c, 15, 81, 56
22, 121152, Note_on_c, 15, 88, 56
22, 121280, Note_off_c, 15, 72, 0
22, 121280, Note_off_c, 15, 81, 0
22, 121280, Note_off_c, 15, 88, 0
22, 121280, Note_on_c, 15, 72, 60
22, 121280, Note_on_c, 15, 81, 60
22, 121280, Note_on_c, 15, 88, 60
22, 121344, Note_off_c, 15, 72, 0
22, 121344, Note_off_c, 15, 81, 0
22, 121344, Note_off_c, 15, 88, 0
22, 121344, Note_on_c, 15, 72, 62
22, 121344, Note_on_c, 15, 81, 62
22, 121344, Note_on_c, 15, 88, 62
22, 121600, Note_off_c, 15, 72, 0
22, 121600, Note_off_c, 15, 81, 0
22, 121600, Note_off_c, 15, 88, 0
22, 121728, Note_on_c, 15, 72, 56
22, 121728, Note_on_c, 15, 81, 56
22, 121728, Note_on_c, 15, 88, 56
22, 121792, Note_off_c, 15, 72, 0
22, 121792, Note_off_c, 15, 81, 0
22, 121792, Note_off_c, 15, 88, 0
22, 121792, Note_on_c, 15, 72, 63
22, 121792, Note_on_c, 15, 81, 63
22, 121792, Note_on_c, 15, 88, 63
22, 121856, Note_off_c, 15, 72, 0
22, 121856, Note_off_c, 15, 81, 0
22, 121856, Note_off_c, 15, 88, 0
22, 121856, Note_on_c, 15, 72, 62
22, 121856, Note_on_c, 15, 81, 62
22, 121856, Note_on_c, 15, 88, 62
22, 121856, Control_c, 15, 7, 95
22, 121856, Control_c, 15, 10, 95
22, 121856, Control_c, 15, 91, 72
22, 121920, Note_off_c, 15, 72, 0
22, 121920, Note_off_c, 15, 81, 0
22, 121920, Note_off_c, 15, 88, 0
22, 121920, Note_on_c, 15, 72, 62
22, 121920, Note_on_c, 15, 81, 62
22, 121920, Note_on_c, 15, 88, 62
22, 121984, Note_off_c, 15, 72, 0
22, 121984, Note_off_c, 15, 81, 0
22, 121984, Note_off_c, 15, 88, 0
22, 122496, Note_on_c, 15, 72, 59
22, 122496, Note_on_c, 15, 81, 59
22, 122496, Note_on_c, 15, 88, 59
22, 122560, Note_off_c, 15, 72, 0
22, 122560, Note_off_c, 15, 81, 0
22, 122560, Note_off_c, 15, 88, 0
22, 122560, Note_on_c, 15, 72, 57
22, 122560, Note_on_c, 15, 81, 57
22, 122560, Note_on_c, 15, 88, 57
22, 122560, Note_on_c, 15, 48, 61
22, 122560, Note_on_c, 15, 57, 61
22, 122560, Note_on_c, 15, 64, 61
22, 122624, Note_off_c, 15, 72, 0
22, 122624, Note_off_c, 15, 81, 0
22, 122624, Note_off_c, 15, 88, 0
22, 122624, Note_off_c, 15, 48, 0
22, 122624, Note_off_c, 15, 57, 0
22, 122624, Note_off_c, 15, 64, 0
22, 122624, Note_on_c, 15, 72, 61
22, 122624, Note_on_c, 15, 81, 61
22, 122624, Note_on_c, 15, 88, 61
22, 122688, Note_off_c, 15, 72, 0
22, 122688, Note_off_c, 15, 81, 0
22, 122688, Note_off_c, 15, 88, 0
22, 122688, Note_on_c, 15, 72, 63
22, 122688, Note_on_c, 15, 81, 63
22, 122688, Note_on_c, 15, 88, 63
22, 122688, Note_on_c, 15, 48, 48
22, 122688, Note_on_c, 15, 57, 48
22, 122688, Note_on_c, 15, 64, 48
22, 122752, Note_off_c, 15, 72, 0
22, 122752, Note_off_c, 15, 81, 0
22, 122752, Note_off_c, 15, 88, 0
22, 122752, Note_off_c, 15, 48, 0
22, 122752, Note_off_c, 15, 57, 0
22, 122752, Note_off_c, 15, 64, 0
22, 123136, Note_on_c, 15, 72, 56
22, 123136, Note_on_c, 15, 81, 56
22, 123136, Note_on_c, 15, 88, 56
22, 123200, Note_on_c, 15, 48, 54
22, 123200, Note_on_c, 15, 57, 54
22, 123200, Note_on_c, 15, 64, 54
22, 123221, Note_off_c, 15, 72, 0
22, 123221, Note_off_c, 15, 81, 0
22, 123221, Note_off_c, 15, 88, 0
22, 123221, Note_on_c, 15, 72, 59
22, 123221, Note_on_c, 15, 81, 59
22, 123221, Note_on_c, 15, 88, 59
22, 123264, Note_off_c, 15, 48, 0
22, 123264, Note_off_c, 15, 57, 0
22, 123264, Note_off_c, 15, 64, 0
22, 123306, Note_off_c, 15, 72, 0
22, 123306, Note_off_c, 15, 81, 0
22, 123306, Note_off_c, 15, 88, 0
22, 123306, Note_on_c, 15, 72, 61
22, 123306, Note_on_c, 15, 81, 61
22, 123306, Note_on_c, 15, 88, 61
22, 123328, Note_on_c, 15, 48, 54
22, 123328, Note_on_c, 15, 57, 54
22, 123328, Note_on_c, 15, 64, 54
22, 123392, Note_off_c, 15, 72, 0
22, 123392, Note_off_c, 15, 81, 0
22, 123392, Note_off_c, 15, 88, 0
22, 123392, Note_off_c, 15, 48, 0
22, 123392, Note_off_c, 15, 57, 0
22, 123392, Note_off_c, 15, 64, 0
22, 123392, Note_on_c, 15, 72, 62
22, 123392, Note_on_c, 15, 81, 62
22, 123392, Note_on_c, 15, 88, 62
22, 123648, Note_off_c, 15, 72, 0
22, 123648, Note_off_c, 15, 81, 0
22, 123648, Note_off_c, 15, 88, 0
22, 123840, Note_on_c, 15, 72, 55
22, 123840, Note_on_c, 15, 81, 55
22, 123840, Note_on_c, 15, 88, 55
22, 123840, Note_on_c, 15, 48, 52
22, 123840, Note_on_c, 15, 57, 52
22, 123840, Note_on_c, 15, 64, 52
22, 123904, Note_off_c, 15, 72, 0
22, 123904, Note_off_c, 15, 81, 0
22, 123904, Note_off_c, 15, 88, 0
22, 123904, Note_off_c, 15, 48, 0
22, 123904, Note_off_c, 15, 57, 0
22, 123904, Note_off_c, 15, 64, 0
22, 123904, Note_on_c, 15, 72, 63
22, 123904, Note_on_c, 15, 81, 63
22, 123904, Note_on_c, 15, 88, 63
22, 123968, Note_off_c, 15, 72, 0
22, 123968, Note_off_c, 15, 81, 0
22, 123968, Note_off_c, 15, 88, 0
22, 123968, Note_on_c, 15, 72, 59
22, 123968, Note_on_c, 15, 81, 59
22, 123968, Note_on_c, 15, 88, 59
22, 124032, Note_off_c, 15, 72, 0
22, 124032, Note_off_c, 15, 81, 0
22, 124032, Note_off_c, 15, 88, 0
22, 124032, Note_on_c, 15, 72, 56
22, 124032, Note_on_c, 15, 81, 56
22, 124032, Note_on_c, 15, 88, 56
22, 124096, Note_on_c, 15, 48, 56
22, 124096, Note_on_c, 15, 57, 56
22, 124096, Note_on_c, 15, 64, 56
22, 124160, Note_off_c, 15, 72, 0
22, 124160, Note_off_c, 15, 81, 0
22, 124160, Note_off_c, 15, 88, 0
22, 124160, Note_off_c, 15, 48, 0
22, 124160, Note_off_c, 15, 57, 0
22, 124160, Note_off_c, 15, 64, 0
22, 124352, Note_on_c, 15, 48, 57
22, 124352, Note_on_c, 15, 57, 57
22, 124352, Note_on_c, 15, 64, 57
22, 124416, Note_off_c, 15, 48, 0
22, 124416, Note_off_c, 15, 57, 0
22, 124416, Note_off_c, 15, 64, 0
22, 124416, Note_on_c, 15, 72, 54
22, 124416, Note_on_c, 15, 81, 54
22, 124416, Note_on_c, 15, 88, 54
22, 124480, Note_off_c, 15, 72, 0
22, 124480, Note_off_c, 15, 81, 0
22, 124480, Note_off_c, 15, 88, 0
22, 124480, Note_on_c, 15, 72, 60
22, 124480, Note_on_c, 15, 81, 60
22, 124480, Note_on_c, 15, 88, 60
22, 124544, Note_off_c, 15, 72, 0
22, 124544, Note_off_c, 15, 81, 0
22, 124544, Note_off_c, 15, 88, 0
22, 124544, Note_on_c, 15, 72, 56
22, 124544, Note_on_c, 15, 81, 56
22, 124544, Note_on_c, 15, 88, 56
22, 124608, Note_off_c, 15, 72, 0
22, 124608, Note_off_c, 15, 81, 0
22, 124608, Note_off_c, 15, 88, 0
22, 124608, Note_on_c, 15, 72, 60
22, 124608, Note_on_c, 15, 81, 60
22, 124608, Note_on_c, 15, 88, 60
22, 124672, Note_off_c, 15, 72, 0
22, 124672, Note_off_c, 15, 81, 0
22, 124672, Note_off_c, 15, 88, 0
22, 124672, Note_on_c, 15, 72, 62
22, 124672, Note_on_c, 15, 81, 62
22, 124672, Note_on_c, 15, 88, 62
22, 124736, Note_off_c, 15, 72, 0
22, 124736, Note_off_c, 15, 81, 0
22, 124736, Note_off_c, 15, 88, 0
22, 124736, Note_on_c, 15, 72, 59
22, 124736, Note_on_c, 15, 81, 59
22, 124736, Note_on_c, 15, 88, 59
22, 124736, Note_on_c, 15, 48, 56
22, 124736, Note_on_c, 15, 57, 56
22, 124736, Note_on_c, 15, 64, 56
22, 124800, Note_off_c, 15, 72, 0
22, 124800, Note_off_c, 15, 81, 0
22, 124800, Note_off_c, 15, 88, 0
22, 124800, Note_off_c, 15, 48, 0
22, 124800, Note_off_c, 15, 57, 0
22, 124800, Note_off_c, 15, 64, 0
22, 125120, Note_on_c, 15, 48, 57
22, 125120, Note_on_c, 15, 57, 57
22, 125120, Note_on_c, 15, 64, 57
22, 125184, Note_off_c, 15, 48, 0
22, 125184, Note_off_c, 15, 57, 0
22, 125184, Note_off_c, 15, 64, 0
22, 125184, Note_on_c, 15, 72, 52
22, 125184, Note_on_c, 15, 81, 52
22, 125184, Note_on_c, 15, 88, 52
22, 125269, Note_off_c, 15, 72, 0
22, 125269, Note_off_c, 15, 81, 0
22, 125269, Note_off_c, 15, 88, 0
22, 125269, Note_on_c, 15, 72, 54
22, 125269, Note_on_c, 15, 81, 54
22, 125269, Note_on_c, 15, 88, 54
22, 125354, Note_off_c, 15, 72, 0
22, 125354, Note_off_c, 15, 81, 0
22, 125354, Note_off_c, 15, 88, 0
22, 125354, Note_on_c, 15, 72, 59
22, 125354, Note_on_c, 15, 81, 59
22, 125354, Note_on_c, 15, 88, 59
22, 125440, Note_off_c, 15, 72, 0
22, 125440, Note_off_c, 15, 81, 0
22, 125440, Note_off_c, 15, 88, 0
22, 125440, Note_on_c, 15, 72, 64
22, 125440, Note_on_c, 15, 81, 64
22, 125440, Note_on_c, 15, 88, 64
22, 125525, Note_off_c, 15, 72, 0
22, 125525, Note_off_c, 15, 81, 0
22, 125525, Note_off_c, 15, 88, 0
22, 125632, Note_on_c, 15, 48, 58
22, 125632, Note_on_c, 15, 57, 58
22, 125632, Note_on_c, 15, 64, 58
22, 125696, Note_off_c, 15, 48, 0
22, 125696, Note_off_c, 15, 57, 0
22, 125696, Note_off_c, 15, 64, 0
22, 125888, Note_on_c, 15, 48, 58
22, 125888, Note_on_c, 15, 57, 58
22, 125888, Note_on_c, 15, 64, 58
22, 125952, Note_off_c, 15, 48, 0
22, 125952, Note_off_c, 15, 57, 0
22, 125952, Note_off_c, 15, 64, 0
22, 126208, Note_on_c, 15, 81, 53
22, 126208, Note_on_c, 15, 88, 53
22, 126272, Note_on_c, 15, 48, 52
22, 126272, Note_on_c, 15, 57, 52
22, 126272, Note_on_c, 15, 64, 52
22, 126293, Note_off_c, 15, 81, 0
22, 126293, Note_off_c, 15, 88, 0
22, 126293, Note_on_c, 15, 72, 47
22, 126293, Note_on_c, 15, 81, 47
22, 126336, Note_off_c, 15, 48, 0
22, 126336, Note_off_c, 15, 57, 0
22, 126336, Note_off_c, 15, 64, 0
22, 126378, Note_off_c, 15, 72, 0
22, 126378, Note_off_c, 15, 81, 0
22, 126378, Note_on_c, 15, 67, 50
22, 126378, Note_on_c, 15, 72, 50
22, 126464, Note_off_c, 15, 67, 0
22, 126464, Note_off_c, 15, 72, 0
22, 126464, Note_on_c, 15, 76, 73
22, 126464, Note_on_c, 15, 83, 73
22, 126549, Note_off_c, 15, 76, 0
22, 126549, Note_off_c, 15, 83, 0
22, 126549, Note_on_c, 15, 69, 49
22, 126549, Note_on_c, 15, 76, 49
22, 126634, Note_off_c, 15, 69, 0
22, 126634, Note_off_c, 15, 76, 0
22, 126634, Note_on_c, 15, 60, 50
22, 126634, Note_on_c, 15, 69, 50
22, 126720, Note_off_c, 15, 60, 0
22, 126720, Note_off_c, 15, 69, 0
22, 126720, Note_on_c, 15, 71, 72
22, 126720, Note_on_c, 15, 78, 72
22, 126784, Note_on_c, 15, 48, 55
22, 126784, Note_on_c, 15, 57, 55
22, 126784, Note_on_c, 15, 64, 55
22, 126805, Note_off_c, 15, 71, 0
22, 126805, Note_off_c, 15, 78, 0
22, 126848, Note_off_c, 15, 48, 0
22, 126848, Note_off_c, 15, 57, 0
22, 126848, Note_off_c, 15, 64, 0
22, 127232, Note_on_c, 15, 81, 51
22, 127232, Note_on_c, 15, 88, 51
22, 127296, Note_on_c, 15, 48, 53
22, 127296, Note_on_c, 15, 57, 53
22, 127296, Note_on_c, 15, 64, 53
22, 127317, Note_off_c, 15, 81, 0
22, 127317, Note_off_c, 15, 88, 0
22, 127317, Note_on_c, 15, 72, 45
22, 127317, Note_on_c, 15, 81, 45
22, 127360, Note_off_c, 15, 48, 0
22, 127360, Note_off_c, 15, 57, 0
22, 127360, Note_off_c, 15, 64, 0
22, 127402, Note_off_c, 15, 72, 0
22, 127402, Note_off_c, 15, 81, 0
22, 127402, Note_on_c, 15, 67, 49
22, 127402, Note_on_c, 15, 72, 49
22, 127488, Note_off_c, 15, 67, 0
22, 127488, Note_off_c, 15, 72, 0
22, 127488, Note_on_c, 15, 76, 74
22, 127488, Note_on_c, 15, 83, 74
22, 127573, Note_off_c, 15, 76, 0
22, 127573, Note_off_c, 15, 83, 0
22, 127573, Note_on_c, 15, 69, 52
22, 127573, Note_on_c, 15, 76, 52
22, 127658, Note_off_c, 15, 69, 0
22, 127658, Note_off_c, 15, 76, 0
22, 127658, Note_on_c, 15, 60, 45
22, 127658, Note_on_c, 15, 69, 45
22, 127744, Note_off_c, 15, 60, 0
22, 127744, Note_off_c, 15, 69, 0
22, 127744, Note_on_c, 15, 72, 67
22, 127744, Note_on_c, 15, 78, 67
22, 127829, Note_off_c, 15, 72, 0
22, 127829, Note_off_c, 15, 78, 0
22, 127829, Note_on_c, 15, 64, 51
22, 127829, Note_on_c, 15, 72, 51
22, 127914, Note_off_c, 15, 64, 0
22, 127914, Note_off_c, 15, 72, 0
22, 127914, Note_on_c, 15, 55, 45
22, 127914, Note_on_c, 15, 60, 45
22, 128000, Note_off_c, 15, 55, 0
22, 128000, Note_off_c, 15, 60, 0
22, 128064, Note_on_c, 15, 58, 57
22, 128064, Note_on_c, 15, 60, 57
22, 128064, Note_on_c, 15, 70, 57
22, 128064, Note_on_c, 15, 76, 57
22, 128128, Note_off_c, 15, 58, 0
22, 128128, Note_off_c, 15, 60, 0
22, 128128, Note_off_c, 15, 70, 0
22, 128128, Note_off_c, 15, 76, 0
22, 128448, Note_on_c, 15, 60, 55
22, 128448, Note_on_c, 15, 70, 55
22, 128448, Note_on_c, 15, 72, 55
22, 128448, Note_on_c, 15, 82, 55
22, 128512, Note_off_c, 15, 60, 0
22, 128512, Note_off_c, 15, 70, 0
22, 128512, Note_off_c, 15, 72, 0
22, 128512, Note_off_c, 15, 82, 0
22, 128512, Note_on_c, 15, 72, 60
22, 128512, Note_on_c, 15, 82, 60
22, 128576, Note_off_c, 15, 72, 0
22, 128576, Note_off_c, 15, 82, 0
22, 128576, Note_on_c, 15, 60, 63
22, 128576, Note_on_c, 15, 70, 63
22, 128576, Note_on_c, 15, 72, 63
22, 128576, Note_on_c, 15, 82, 63
22, 128640, Note_off_c, 15, 60, 0
22, 128640, Note_off_c, 15, 70, 0
22, 128640, Note_off_c, 15, 72, 0
22, 128640, Note_off_c, 15, 82, 0
22, 128640, Note_on_c, 15, 60, 60
22, 128640, Note_on_c, 15, 70, 60
22, 128640, Note_on_c, 15, 72, 60
22, 128640, Note_on_c, 15, 82, 60
22, 128704, Note_off_c, 15, 60, 0
22, 128704, Note_off_c, 15, 70, 0
22, 128704, Note_off_c, 15, 72, 0
22, 128704, Note_off_c, 15, 82, 0
22, 128704, Note_on_c, 15, 72, 63
22, 128704, Note_on_c, 15, 82, 63
22, 128768, Note_off_c, 15, 72, 0
22, 128768, Note_off_c, 15, 82, 0
22, 128768, Note_on_c, 15, 60, 62
22, 128768, Note_on_c, 15, 70, 62
22, 128768, Note_on_c, 15, 72, 62
22, 128768, Note_on_c, 15, 82, 62
22, 128832, Note_off_c, 15, 60, 0
22, 128832, Note_off_c, 15, 70, 0
22, 128832, Note_off_c, 15, 72, 0
22, 128832, Note_off_c, 15, 82, 0
22, 128832, Note_on_c, 15, 72, 62
22, 128832, Note_on_c, 15, 82, 62
22, 128896, Note_off_c, 15, 72, 0
22, 128896, Note_off_c, 15, 82, 0
22, 128896, Note_on_c, 15, 60, 63
22, 128896, Note_on_c, 15, 70, 63
22, 128896, Note_on_c, 15, 72, 63
22, 128896, Note_on_c, 15, 82, 63
22, 128960, Note_off_c, 15, 60, 0
22, 128960, Note_off_c, 15, 70, 0
22, 128960, Note_off_c, 15, 72, 0
22, 128960, Note_off_c, 15, 82, 0
22, 128960, Note_on_c, 15, 60, 64
22, 128960, Note_on_c, 15, 70, 64
22, 128960, Note_on_c, 15, 72, 64
22, 128960, Note_on_c, 15, 82, 64
22, 129024, Note_off_c, 15, 60, 0
22, 129024, Note_off_c, 15, 70, 0
22, 129024, Note_off_c, 15, 72, 0
22, 129024, Note_off_c, 15, 82, 0
22, 129024, Note_on_c, 15, 72, 62
22, 129024, Note_on_c, 15, 82, 62
22, 129152, Note_off_c, 15, 72, 0
22, 129152, Note_off_c, 15, 82, 0
22, 129152, Note_on_c, 15, 72, 57
22, 129152, Note_on_c, 15, 82, 57
22, 129280, Note_off_c, 15, 72, 0
22, 129280, Note_off_c, 15, 82, 0
22, 129280, Note_on_c, 15, 72, 62
22, 129280, Note_on_c, 15, 82, 62
22, 129408, Note_off_c, 15, 72, 0
22, 129408, Note_off_c, 15, 82, 0
22, 129408, Note_on_c, 15, 60, 60
22, 129408, Note_on_c, 15, 70, 60
22, 129408, Note_on_c, 15, 72, 60
22, 129408, Note_on_c, 15, 82, 60
22, 129536, Note_off_c, 15, 60, 0
22, 129536, Note_off_c, 15, 70, 0
22, 129536, Note_off_c, 15, 72, 0
22, 129536, Note_off_c, 15, 82, 0
22, 129536, Note_on_c, 15, 72, 60
22, 129536, Note_on_c, 15, 82, 60
22, 129664, Note_off_c, 15, 72, 0
22, 129664, Note_off_c, 15, 82, 0
22, 129664, Note_on_c, 15, 72, 57
22, 129664, Note_on_c, 15, 82, 57
22, 129792, Note_off_c, 15, 72, 0
22, 129792, Note_off_c, 15, 82, 0
22, 129792, Note_on_c, 15, 60, 60
22, 129792, Note_on_c, 15, 70, 60
22, 129792, Note_on_c, 15, 72, 60
22, 129792, Note_on_c, 15, 82, 60
22, 129920, Note_off_c, 15, 60, 0
22, 129920, Note_off_c, 15, 70, 0
22, 129920, Note_off_c, 15, 72, 0
22, 129920, Note_off_c, 15, 82, 0
22, 129920, Note_on_c, 15, 60, 63
22, 129920, Note_on_c, 15, 70, 63
22, 129920, Note_on_c, 15, 72, 63
22, 129920, Note_on_c, 15, 82, 63
22, 130048, Note_off_c, 15, 60, 0
22, 130048, Note_off_c, 15, 70, 0
22, 130048, Note_off_c, 15, 72, 0
22, 130048, Note_off_c, 15, 82, 0
22, 130048, Note_on_c, 15, 60, 62
22, 130048, Note_on_c, 15, 70, 62
22, 130048, Note_on_c, 15, 72, 62
22, 130048, Note_on_c, 15, 82, 62
22, 130176, Note_off_c, 15, 60, 0
22, 130176, Note_off_c, 15, 70, 0
22, 130176, Note_off_c, 15, 72, 0
22, 130176, Note_off_c, 15, 82, 0
22, 130176, Note_on_c, 15, 60, 58
22, 130176, Note_on_c, 15, 70, 58
22, 130176, Note_on_c, 15, 72, 58
22, 130176, Note_on_c, 15, 82, 58
22, 130304, Note_off_c, 15, 60, 0
22, 130304, Note_off_c, 15, 70, 0
22, 130304, Note_off_c, 15, 72, 0
22, 130304, Note_off_c, 15, 82, 0
22, 130304, Note_on_c, 15, 60, 62
22, 130304, Note_on_c, 15, 70, 62
22, 130304, Note_on_c, 15, 72, 62
22, 130304, Note_on_c, 15, 82, 62
22, 130432, Note_off_c, 15, 60, 0
22, 130432, Note_off_c, 15, 70, 0
22, 130432, Note_off_c, 15, 72, 0
22, 130432, Note_off_c, 15, 82, 0
22, 130432, Note_on_c, 15, 60, 62
22, 130432, Note_on_c, 15, 70, 62
22, 130432, Note_on_c, 15, 72, 62
22, 130432, Note_on_c, 15, 82, 62
22, 130560, Note_off_c, 15, 60, 0
22, 130560, Note_off_c, 15, 70, 0
22, 130560, Note_off_c, 15, 72, 0
22, 130560, Note_off_c, 15, 82, 0
22, 130560, Note_on_c, 15, 60, 63
22, 130560, Note_on_c, 15, 70, 63
22, 130560, Note_on_c, 15, 72, 63
22, 130560, Note_on_c, 15, 82, 63
22, 130688, Note_off_c, 15, 60, 0
22, 130688, Note_off_c, 15, 70, 0
22, 130688, Note_off_c, 15, 72, 0
22, 130688, Note_off_c, 15, 82, 0
22, 130688, Note_on_c, 15, 60, 61
22, 130688, Note_on_c, 15, 70, 61
22, 130688, Note_on_c, 15, 72, 61
22, 130688, Note_on_c, 15, 82, 61
22, 130816, Note_off_c, 15, 60, 0
22, 130816, Note_off_c, 15, 70, 0
22, 130816, Note_off_c, 15, 72, 0
22, 130816, Note_off_c, 15, 82, 0
22, 130816, Note_on_c, 15, 60, 63
22, 130816, Note_on_c, 15, 70, 63
22, 130816, Note_on_c, 15, 72, 63
22, 130816, Note_on_c, 15, 82, 63
22, 130944, Note_off_c, 15, 60, 0
22, 130944, Note_off_c, 15, 70, 0
22, 130944, Note_off_c, 15, 72, 0
22, 130944, Note_off_c, 15, 82, 0
22, 130944, Note_on_c, 15, 60, 62
22, 130944, Note_on_c, 15, 70, 62
22, 130944, Note_on_c, 15, 72, 62
22, 130944, Note_on_c, 15, 82, 62
22, 131072, Note_off_c, 15, 60, 0
22, 131072, Note_off_c, 15, 70, 0
22, 131072, Note_off_c, 15, 72, 0
22, 131072, Note_off_c, 15, 82, 0
22, 131072, Note_on_c, 15, 60, 59
22, 131072, Note_on_c, 15, 70, 59
22, 131072, Note_on_c, 15, 72, 59
22, 131072, Note_on_c, 15, 82, 59
22, 131200, Note_off_c, 15, 60, 0
22, 131200, Note_off_c, 15, 70, 0
22, 131200, Note_off_c, 15, 72, 0
22, 131200, Note_off_c, 15, 82, 0
22, 131200, Note_on_c, 15, 60, 59
22, 131200, Note_on_c, 15, 70, 59
22, 131200, Note_on_c, 15, 72, 59
22, 131200, Note_on_c, 15, 82, 59
22, 131328, Note_off_c, 15, 60, 0
22, 131328, Note_off_c, 15, 70, 0
22, 131328, Note_off_c, 15, 72, 0
22, 131328, Note_off_c, 15, 82, 0
22, 131328, Note_on_c, 15, 60, 62
22, 131328, Note_on_c, 15, 70, 62
22, 131328, Note_on_c, 15, 72, 62
22, 131328, Note_on_c, 15, 82, 62
22, 131456, Note_off_c, 15, 60, 0
22, 131456, Note_off_c, 15, 70, 0
22, 131456, Note_off_c, 15, 72, 0
22, 131456, Note_off_c, 15, 82, 0
22, 131456, Note_on_c, 15, 60, 64
22, 131456, Note_on_c, 15, 70, 64
22, 131456, Note_on_c, 15, 72, 64
22, 131456, Note_on_c, 15, 82, 64
22, 131584, Note_off_c, 15, 60, 0
22, 131584, Note_off_c, 15, 70, 0
22, 131584, Note_off_c, 15, 72, 0
22, 131584, Note_off_c, 15, 82, 0
22, 131584, Note_on_c, 15, 60, 59
22, 131584, Note_on_c, 15, 70, 59
22, 131584, Note_on_c, 15, 72, 59
22, 131584, Note_on_c, 15, 82, 59
22, 131712, Note_off_c, 15, 60, 0
22, 131712, Note_off_c, 15, 70, 0
22, 131712, Note_off_c, 15, 72, 0
22, 131712, Note_off_c, 15, 82, 0
22, 131712, Note_on_c, 15, 60, 63
22, 131712, Note_on_c, 15, 70, 63
22, 131712, Note_on_c, 15, 72, 63
22, 131712, Note_on_c, 15, 82, 63
22, 131840, Note_off_c, 15, 60, 0
22, 131840, Note_off_c, 15, 70, 0
22, 131840, Note_off_c, 15, 72, 0
22, 131840, Note_off_c, 15, 82, 0
22, 131840, Note_on_c, 15, 60, 60
22, 131840, Note_on_c, 15, 70, 60
22, 131840, Note_on_c, 15, 72, 60
22, 131840, Note_on_c, 15, 82, 60
22, 131968, Note_off_c, 15, 60, 0
22, 131968, Note_off_c, 15, 70, 0
22, 131968, Note_off_c, 15, 72, 0
22, 131968, Note_off_c, 15, 82, 0
22, 131968, Note_on_c, 15, 60, 58
22, 131968, Note_on_c, 15, 70, 58
22, 131968, Note_on_c, 15, 72, 58
22, 131968, Note_on_c, 15, 82, 58
22, 132096, Note_off_c, 15, 60, 0
22, 132096, Note_off_c, 15, 70, 0
22, 132096, Note_off_c, 15, 72, 0
22, 132096, Note_off_c, 15, 82, 0
22, 132096, Note_on_c, 15, 60, 60
22, 132096, Note_on_c, 15, 70, 60
22, 132096, Note_on_c, 15, 72, 60
22, 132096, Note_on_c, 15, 82, 60
22, 132224, Note_off_c, 15, 60, 0
22, 132224, Note_off_c, 15, 70, 0
22, 132224, Note_off_c, 15, 72, 0
22, 132224, Note_off_c, 15, 82, 0
22, 132224, Note_on_c, 15, 60, 63
22, 132224, Note_on_c, 15, 70, 63
22, 132224, Note_on_c, 15, 72, 63
22, 132224, Note_on_c, 15, 82, 63
22, 132352, Note_off_c, 15, 60, 0
22, 132352, Note_off_c, 15, 70, 0
22, 132352, Note_off_c, 15, 72, 0
22, 132352, Note_off_c, 15, 82, 0
22, 132352, Note_on_c, 15, 60, 64
22, 132352, Note_on_c, 15, 70, 64
22, 132352, Note_on_c, 15, 72, 64
22, 132352, Note_on_c, 15, 82, 64
22, 132480, Note_off_c, 15, 60, 0
22, 132480, Note_off_c, 15, 70, 0
22, 132480, Note_off_c, 15, 72, 0
22, 132480, Note_off_c, 15, 82, 0
22, 132480, Note_on_c, 15, 60, 63
22, 132480, Note_on_c, 15, 70, 63
22, 132480, Note_on_c, 15, 72, 63
22, 132480, Note_on_c, 15, 82, 63
22, 132608, Note_off_c, 15, 60, 0
22, 132608, Note_off_c, 15, 70, 0
22, 132608, Note_off_c, 15, 72, 0
22, 132608, Note_off_c, 15, 82, 0
22, 132608, Note_on_c, 15, 60, 63
22, 132608, Note_on_c, 15, 70, 63
22, 132608, Note_on_c, 15, 72, 63
22, 132608, Note_on_c, 15, 82, 63
22, 132736, Note_off_c, 15, 60, 0
22, 132736, Note_off_c, 15, 70, 0
22, 132736, Note_off_c, 15, 72, 0
22, 132736, Note_off_c, 15, 82, 0
22, 132736, Note_on_c, 15, 60, 62
22, 132736, Note_on_c, 15, 70, 62
22, 132736, Note_on_c, 15, 72, 62
22, 132736, Note_on_c, 15, 82, 62
22, 132864, Note_off_c, 15, 60, 0
22, 132864, Note_off_c, 15, 70, 0
22, 132864, Note_off_c, 15, 72, 0
22, 132864, Note_off_c, 15, 82, 0
22, 132864, Note_on_c, 15, 60, 62
22, 132864, Note_on_c, 15, 70, 62
22, 132864, Note_on_c, 15, 72, 62
22, 132864, Note_on_c, 15, 82, 62
22, 132992, Note_off_c, 15, 60, 0
22, 132992, Note_off_c, 15, 70, 0
22, 132992, Note_off_c, 15, 72, 0
22, 132992, Note_off_c, 15, 82, 0
22, 132992, Note_on_c, 15, 60, 66
22, 132992, Note_on_c, 15, 70, 66
22, 132992, Note_on_c, 15, 72, 66
22, 132992, Note_on_c, 15, 82, 66
22, 133120, Note_off_c, 15, 60, 0
22, 133120, Note_off_c, 15, 70, 0
22, 133120, Note_off_c, 15, 72, 0
22, 133120, Note_off_c, 15, 82, 0
22, 133120, Note_on_c, 15, 60, 62
22, 133120, Note_on_c, 15, 70, 62
22, 133120, Note_on_c, 15, 72, 62
22, 133120, Note_on_c, 15, 82, 62
22, 133248, Note_off_c, 15, 60, 0
22, 133248, Note_off_c, 15, 70, 0
22, 133248, Note_off_c, 15, 72, 0
22, 133248, Note_off_c, 15, 82, 0
22, 133248, Note_on_c, 15, 60, 61
22, 133248, Note_on_c, 15, 70, 61
22, 133248, Note_on_c, 15, 72, 61
22, 133248, Note_on_c, 15, 82, 61
22, 133376, Note_off_c, 15, 60, 0
22, 133376, Note_off_c, 15, 70, 0
22, 133376, Note_off_c, 15, 72, 0
22, 133376, Note_off_c, 15, 82, 0
22, 133376, Note_on_c, 15, 60, 65
22, 133376, Note_on_c, 15, 70, 65
22, 133376, Note_on_c, 15, 72, 65
22, 133376, Note_on_c, 15, 82, 65
22, 133504, Note_off_c, 15, 60, 0
22, 133504, Note_off_c, 15, 70, 0
22, 133504, Note_off_c, 15, 72, 0
22, 133504, Note_off_c, 15, 82, 0
22, 133504, Note_on_c, 15, 60, 63
22, 133504, Note_on_c, 15, 70, 63
22, 133504, Note_on_c, 15, 72, 63
22, 133504, Note_on_c, 15, 82, 63
22, 133632, Note_off_c, 15, 60, 0
22, 133632, Note_off_c, 15, 70, 0
22, 133632, Note_off_c, 15, 72, 0
22, 133632, Note_off_c, 15, 82, 0
22, 151296, Control_c, 13, 7, 95
22, 151296, Control_c, 13, 10, 95
22, 151296, Control_c, 13, 91, 72
22, 151296, Note_on_c, 13, 40, 127
22, 151424, Note_off_c, 13, 40, 0
22, 151552, Note_on_c, 13, 54, 127
22, 151680, Note_off_c, 13, 54, 0
22, 151680, Note_on_c, 13, 42, 127
22, 151808, Note_off_c, 13, 42, 0
22, 151936, Note_on_c, 13, 55, 127
22, 152064, Note_off_c, 13, 55, 0
22, 152064, Note_on_c, 13, 43, 127
22, 152192, Note_off_c, 13, 43, 0
22, 152320, Note_on_c, 13, 57, 127
22, 152448, Note_off_c, 13, 57, 0
22, 153344, Note_on_c, 13, 40, 127
22, 153472, Note_off_c, 13, 40, 0
22, 153600, Note_on_c, 13, 54, 127
22, 153728, Note_off_c, 13, 54, 0
22, 153728, Note_on_c, 13, 42, 127
22, 153856, Note_off_c, 13, 42, 0
22, 153984, Note_on_c, 13, 55, 127
22, 154112, Note_off_c, 13, 55, 0
22, 154112, Note_on_c, 13, 43, 127
22, 154240, Note_off_c, 13, 43, 0
22, 154368, Note_on_c, 13, 57, 127
22, 154496, Note_off_c, 13, 57, 0
22, 154496, Note_on_c, 13, 40, 127
22, 154624, Note_off_c, 13, 40, 0
22, 154752, Note_on_c, 13, 54, 127
22, 154880, Note_off_c, 13, 54, 0
22, 154880, Note_on_c, 13, 42, 127
22, 155008, Note_off_c, 13, 42, 0
22, 155136, Note_on_c, 13, 55, 127
22, 155264, Note_off_c, 13, 55, 0
22, 155392, Note_on_c, 13, 43, 127
22, 155520, Note_off_c, 13, 43, 0
22, 155648, Note_on_c, 13, 57, 127
22, 155776, Note_off_c, 13, 57, 0
22, 156032, Note_on_c, 13, 42, 127
22, 156160, Note_off_c, 13, 42, 0
22, 156416, Note_on_c, 13, 54, 127
22, 156544, Note_off_c, 13, 54, 0
22, 156544, Note_on_c, 13, 42, 127
22, 156672, Note_off_c, 13, 42, 0
22, 156800, Note_on_c, 13, 55, 127
22, 156928, Note_off_c, 13, 55, 0
22, 156928, Note_on_c, 13, 43, 127
22, 157056, Note_off_c, 13, 43, 0
22, 157184, Note_on_c, 13, 57, 127
22, 157312, Note_off_c, 13, 57, 0
22, 157312, Note_on_c, 13, 45, 127
22, 157440, Note_off_c, 13, 45, 0
22, 157568, Note_on_c, 13, 59, 127
22, 157696, Note_off_c, 13, 59, 0
22, 157824, Note_on_c, 13, 40, 127
22, 157952, Note_off_c, 13, 40, 0
22, 158080, Note_on_c, 13, 54, 127
22, 158208, Note_off_c, 13, 54, 0
22, 158592, Note_on_c, 13, 64, 117
22, 158720, Note_on_c, 13, 66, 121
22, 158722, Note_off_c, 13, 64, 0
22, 158848, Note_on_c, 13, 62, 114
22, 158850, Note_off_c, 13, 66, 0
22, 158969, Note_off_c, 13, 62, 0
22, 158976, Note_on_c, 13, 36, 127
22, 158976, Note_on_c, 13, 48, 127
22, 159104, Note_on_c, 13, 45, 127
22, 159104, Note_on_c, 13, 57, 127
22, 159106, Note_off_c, 13, 36, 0
22, 159106, Note_off_c, 13, 48, 0
22, 159306, Note_off_c, 13, 45, 0
22, 159306, Note_off_c, 13, 57, 0
22, 159317, Note_on_c, 13, 30, 127
22, 159317, Note_on_c, 13, 42, 127
22, 159488, Note_off_c, 13, 30, 0
22, 159488, Note_off_c, 13, 42, 0
22, 159488, Note_on_c, 13, 38, 127
22, 159488, Note_on_c, 13, 50, 127
22, 159658, Note_off_c, 13, 38, 0
22, 159658, Note_off_c, 13, 50, 0
22, 159658, Note_on_c, 13, 24, 127
22, 159658, Note_on_c, 13, 36, 127
22, 159829, Note_off_c, 13, 24, 0
22, 159829, Note_off_c, 13, 36, 0
22, 159829, Note_on_c, 13, 33, 127
22, 159829, Note_on_c, 13, 45, 127
22, 160000, Note_off_c, 13, 33, 0
22, 160000, Note_off_c, 13, 45, 0
22, 199680, Control_c, 14, 7, 95
22, 199680, Control_c, 14, 10, 95
22, 199680, Control_c, 14, 91, 72
22, 200704, Control_c, 14, 7, 95
22, 200704, Control_c, 14, 10, 95
22, 200704, Control_c, 14, 91, 72
22, 200960, Note_on_c, 14, 46, 99
22, 201045, Note_off_c, 14, 46, 0
22, 201045, Note_on_c, 14, 48, 114
22, 201130, Note_off_c, 14, 48, 0
22, 201130, Note_on_c, 14, 52, 122
22, 201216, Note_off_c, 14, 52, 0
22, 201216, Note_on_c, 14, 55, 117
22, 201301, Note_off_c, 14, 55, 0
22, 201301, Note_on_c, 14, 58, 117
22, 201386, Note_off_c, 14, 58, 0
22, 201386, Note_on_c, 14, 60, 119
22, 201386, Note_on_c, 14, 46, 101
22, 201472, Note_off_c, 14, 60, 0
22, 201472, Note_off_c, 14, 46, 0
22, 201472, Note_on_c, 14, 48, 113
22, 201557, Note_off_c, 14, 48, 0
22, 201557, Note_on_c, 14, 58, 99
22, 201557, Note_on_c, 14, 52, 119
22, 201642, Note_off_c, 14, 58, 0
22, 201642, Note_off_c, 14, 52, 0
22, 201642, Note_on_c, 14, 60, 119
22, 201642, Note_on_c, 14, 55, 118
22, 201728, Note_off_c, 14, 60, 0
22, 201728, Note_off_c, 14, 55, 0
22, 201728, Note_on_c, 14, 64, 126
22, 201728, Note_on_c, 14, 58, 122
22, 201813, Note_off_c, 14, 64, 0
22, 201813, Note_off_c, 14, 58, 0
22, 201813, Note_on_c, 14, 65, 121
22, 201813, Note_on_c, 14, 60, 117
22, 201898, Note_off_c, 14, 65, 0
22, 201898, Note_off_c, 14, 60, 0
22, 201898, Note_on_c, 14, 67, 119
22, 201984, Note_off_c, 14, 67, 0
22, 201984, Note_on_c, 14, 58, 104
22, 202069, Note_off_c, 14, 58, 0
22, 202069, Note_on_c, 14, 60, 117
22, 202154, Note_off_c, 14, 60, 0
22, 202154, Note_on_c, 14, 64, 127
22, 202240, Note_off_c, 14, 64, 0
22, 202240, Note_on_c, 14, 60, 106
22, 202240, Note_on_c, 14, 67, 126
22, 202325, Note_off_c, 14, 60, 0
22, 202325, Note_off_c, 14, 67, 0
22, 202325, Note_on_c, 14, 64, 125
22, 202325, Note_on_c, 14, 69, 122
22, 202410, Note_off_c, 14, 64, 0
22, 202410, Note_off_c, 14, 69, 0
22, 202410, Note_on_c, 14, 67, 121
22, 202496, Note_off_c, 14, 67, 0
22, 202496, Note_on_c, 14, 70, 124
22, 202581, Note_off_c, 14, 70, 0
22, 202581, Note_on_c, 14, 72, 119
22, 202666, Note_off_c, 14, 72, 0
22, 202666, Note_on_c, 14, 76, 125
22, 202666, Note_on_c, 14, 60, 104
22, 202752, Note_off_c, 14, 76, 0
22, 202752, Note_off_c, 14, 60, 0
22, 202752, Note_on_c, 14, 64, 121
22, 202837, Note_off_c, 14, 64, 0
22, 202837, Note_on_c, 14, 67, 125
22, 202922, Note_off_c, 14, 67, 0
22, 202922, Note_on_c, 14, 70, 123
22, 203008, Note_off_c, 14, 70, 0
22, 203008, Note_on_c, 14, 46, 102
22, 203008, Note_on_c, 14, 72, 124
22, 203093, Note_off_c, 14, 46, 0
22, 203093, Note_off_c, 14, 72, 0
22, 203093, Note_on_c, 14, 48, 115
22, 203093, Note_on_c, 14, 76, 124
22, 203178, Note_off_c, 14, 48, 0
22, 203178, Note_off_c, 14, 76, 0
22, 203178, Note_on_c, 14, 52, 116
22, 203264, Note_off_c, 14, 52, 0
22, 203264, Note_on_c, 14, 55, 119
22, 203349, Note_off_c, 14, 55, 0
22, 203349, Note_on_c, 14, 58, 117
22, 203434, Note_off_c, 14, 58, 0
22, 203434, Note_on_c, 14, 60, 120
22, 203434, Note_on_c, 14, 46, 102
22, 203520, Note_off_c, 14, 60, 0
22, 203520, Note_off_c, 14, 46, 0
22, 203520, Note_on_c, 14, 48, 111
22, 203605, Note_off_c, 14, 48, 0
22, 203605, Note_on_c, 14, 58, 103
22, 203605, Note_on_c, 14, 52, 119
22, 203690, Note_off_c, 14, 58, 0
22, 203690, Note_off_c, 14, 52, 0
22, 203690, Note_on_c, 14, 60, 120
22, 203690, Note_on_c, 14, 55, 119
22, 203776, Note_off_c, 14, 60, 0
22, 203776, Note_off_c, 14, 55, 0
22, 203776, Note_on_c, 14, 64, 127
22, 203776, Note_on_c, 14, 58, 124
22, 203861, Note_off_c, 14, 64, 0
22, 203861, Note_off_c, 14, 58, 0
22, 203861, Note_on_c, 14, 65, 115
22, 203861, Note_on_c, 14, 60, 122
22, 203946, Note_off_c, 14, 65, 0
22, 203946, Note_off_c, 14, 60, 0
22, 203946, Note_on_c, 14, 67, 118
22, 204032, Note_off_c, 14, 67, 0
22, 204032, Note_on_c, 14, 58, 105
22, 204117, Note_off_c, 14, 58, 0
22, 204117, Note_on_c, 14, 60, 116
22, 204202, Note_off_c, 14, 60, 0
22, 204202, Note_on_c, 14, 64, 123
22, 204288, Note_off_c, 14, 64, 0
22, 204288, Note_on_c, 14, 65, 117
22, 204373, Note_off_c, 14, 65, 0
22, 204373, Note_on_c, 14, 60, 101
22, 204373, Note_on_c, 14, 67, 121
22, 204458, Note_off_c, 14, 60, 0
22, 204458, Note_off_c, 14, 67, 0
22, 204458, Note_on_c, 14, 64, 126
22, 204544, Note_off_c, 14, 64, 0
22, 204544, Note_on_c, 14, 67, 127
22, 204629, Note_off_c, 14, 67, 0
22, 204629, Note_on_c, 14, 70, 127
22, 204714, Note_off_c, 14, 70, 0
22, 204714, Note_on_c, 14, 72, 127
22, 204714, Note_on_c, 14, 60, 103
22, 204800, Note_off_c, 14, 72, 0
22, 204800, Note_off_c, 14, 60, 0
22, 204800, Note_on_c, 14, 76, 127
22, 204800, Note_on_c, 14, 64, 123
22, 204885, Note_off_c, 14, 76, 0
22, 204885, Note_off_c, 14, 64, 0
22, 204885, Note_on_c, 14, 67, 123
22, 204970, Note_off_c, 14, 67, 0
22, 204970, Note_on_c, 14, 70, 127
22, 205056, Note_off_c, 14, 70, 0
22, 205056, Note_on_c, 14, 46, 99
22, 205056, Note_on_c, 14, 72, 124
22, 205141, Note_off_c, 14, 46, 0
22, 205141, Note_off_c, 14, 72, 0
22, 205141, Note_on_c, 14, 48, 116
22, 205141, Note_on_c, 14, 76, 127
22, 205226, Note_off_c, 14, 48, 0
22, 205226, Note_off_c, 14, 76, 0
22, 205226, Note_on_c, 14, 52, 121
22, 205312, Note_off_c, 14, 52, 0
22, 205312, Note_on_c, 14, 55, 119
22, 205397, Note_off_c, 14, 55, 0
22, 205397, Note_on_c, 14, 58, 116
22, 205397, Note_on_c, 14, 46, 100
22, 205482, Note_off_c, 14, 58, 0
22, 205482, Note_off_c, 14, 46, 0
22, 205482, Note_on_c, 14, 60, 118
22, 205482, Note_on_c, 14, 48, 119
22, 205568, Note_off_c, 14, 60, 0
22, 205568, Note_off_c, 14, 48, 0
22, 205568, Note_on_c, 14, 52, 117
22, 205653, Note_off_c, 14, 52, 0
22, 205653, Note_on_c, 14, 55, 119
22, 205738, Note_off_c, 14, 55, 0
22, 205738, Note_on_c, 14, 58, 101
22, 205738, Note_on_c, 14, 58, 122
22, 205824, Note_off_c, 14, 58, 0
22, 205824, Note_off_c, 14, 58, 0
22, 205824, Note_on_c, 14, 60, 122
22, 205824, Note_on_c, 14, 60, 118
22, 205888, Note_off_c, 14, 60, 0
22, 205888, Note_off_c, 14, 60, 0
22, 205888, Note_on_c, 14, 64, 126
22, 205952, Note_off_c, 14, 64, 0
22, 205952, Note_on_c, 14, 65, 118
22, 206016, Note_off_c, 14, 65, 0
22, 206016, Note_on_c, 14, 67, 119
22, 206016, Note_on_c, 14, 58, 102
22, 206080, Note_off_c, 14, 67, 0
22, 206080, Note_off_c, 14, 58, 0
22, 206080, Note_on_c, 14, 60, 118
22, 206144, Note_off_c, 14, 60, 0
22, 206144, Note_on_c, 14, 64, 126
22, 206208, Note_off_c, 14, 64, 0
22, 206208, Note_on_c, 14, 60, 102
22, 206208, Note_on_c, 14, 65, 120
22, 206272, Note_off_c, 14, 60, 0
22, 206272, Note_off_c, 14, 65, 0
22, 206272, Note_on_c, 14, 64, 120
22, 206272, Note_on_c, 14, 67, 119
22, 206336, Note_off_c, 14, 64, 0
22, 206336, Note_off_c, 14, 67, 0
22, 206336, Note_on_c, 14, 67, 123
22, 206400, Note_off_c, 14, 67, 0
22, 206400, Note_on_c, 14, 70, 121
22, 206464, Note_off_c, 14, 70, 0
22, 206464, Note_on_c, 14, 72, 123
22, 206464, Note_on_c, 14, 60, 97
22, 206528, Note_off_c, 14, 72, 0
22, 206528, Note_off_c, 14, 60, 0
22, 206528, Note_on_c, 14, 76, 127
22, 206528, Note_on_c, 14, 64, 124
22, 206592, Note_off_c, 14, 76, 0
22, 206592, Note_off_c, 14, 64, 0
22, 206592, Note_on_c, 14, 58, 105
22, 206656, Note_off_c, 14, 58, 0
22, 206656, Note_on_c, 14, 60, 116
22, 206720, Note_off_c, 14, 60, 0
22, 206720, Note_on_c, 14, 64, 127
22, 206784, Note_off_c, 14, 64, 0
22, 206784, Note_on_c, 14, 46, 105
22, 206784, Note_on_c, 14, 67, 125
22, 206848, Note_off_c, 14, 46, 0
22, 206848, Note_off_c, 14, 67, 0
22, 206848, Note_on_c, 14, 48, 115
22, 206912, Note_off_c, 14, 48, 0
22, 206912, Note_on_c, 14, 52, 118
22, 206976, Note_off_c, 14, 52, 0
22, 206976, Note_on_c, 14, 55, 119
22, 207040, Note_off_c, 14, 55, 0
22, 207040, Note_on_c, 14, 58, 115
22, 207040, Note_on_c, 14, 46, 106
22, 207104, Note_off_c, 14, 58, 0
22, 207104, Note_off_c, 14, 46, 0
22, 207104, Note_on_c, 14, 60, 120
22, 207104, Note_on_c, 14, 48, 115
22, 207168, Note_off_c, 14, 60, 0
22, 207168, Note_off_c, 14, 48, 0
22, 207168, Note_on_c, 14, 58, 108
22, 207168, Note_on_c, 14, 52, 119
22, 207232, Note_off_c, 14, 58, 0
22, 207232, Note_off_c, 14, 52, 0
22, 207232, Note_on_c, 14, 60, 124
22, 207232, Note_on_c, 14, 55, 115
22, 207296, Note_off_c, 14, 60, 0
22, 207296, Note_off_c, 14, 55, 0
22, 207296, Note_on_c, 14, 64, 123
22, 207296, Note_on_c, 14, 58, 119
22, 207360, Note_off_c, 14, 64, 0
22, 207360, Note_off_c, 14, 58, 0
22, 207360, Note_on_c, 14, 65, 118
22, 207360, Note_on_c, 14, 60, 122
22, 207424, Note_off_c, 14, 65, 0
22, 207424, Note_off_c, 14, 60, 0
22, 207424, Note_on_c, 14, 67, 122
22, 207424, Note_on_c, 14, 58, 109
22, 207488, Note_off_c, 14, 67, 0
22, 207488, Note_off_c, 14, 58, 0
22, 207488, Note_on_c, 14, 60, 118
22, 207552, Note_off_c, 14, 60, 0
22, 207552, Note_on_c, 14, 46, 100
22, 207552, Note_on_c, 14, 64, 127
22, 207616, Note_off_c, 14, 46, 0
22, 207616, Note_off_c, 14, 64, 0
22, 207616, Note_on_c, 14, 48, 119
22, 207616, Note_on_c, 14, 65, 122
22, 207680, Note_off_c, 14, 48, 0
22, 207680, Note_off_c, 14, 65, 0
22, 207680, Note_on_c, 14, 52, 120
22, 207680, Note_on_c, 14, 67, 123
22, 207744, Note_off_c, 14, 52, 0
22, 207744, Note_off_c, 14, 67, 0
22, 207744, Note_on_c, 14, 55, 119
22, 207808, Note_off_c, 14, 55, 0
22, 207808, Note_on_c, 14, 58, 115
22, 207808, Note_on_c, 14, 46, 102
22, 207872, Note_off_c, 14, 58, 0
22, 207872, Note_off_c, 14, 46, 0
22, 207872, Note_on_c, 14, 60, 122
22, 207872, Note_on_c, 14, 48, 113
22, 207936, Note_off_c, 14, 60, 0
22, 207936, Note_off_c, 14, 48, 0
22, 207936, Note_on_c, 14, 58, 113
22, 207936, Note_on_c, 14, 52, 115
22, 208000, Note_off_c, 14, 58, 0
22, 208000, Note_off_c, 14, 52, 0
22, 208000, Note_on_c, 14, 60, 120
22, 208000, Note_on_c, 14, 55, 116
22, 208064, Note_off_c, 14, 60, 0
22, 208064, Note_off_c, 14, 55, 0
22, 208064, Note_on_c, 14, 64, 121
22, 208064, Note_on_c, 14, 58, 118
22, 208128, Note_off_c, 14, 64, 0
22, 208128, Note_off_c, 14, 58, 0
22, 208128, Note_on_c, 14, 65, 116
22, 208128, Note_on_c, 14, 60, 120
22, 208192, Note_off_c, 14, 65, 0
22, 208192, Note_off_c, 14, 60, 0
22, 208192, Note_on_c, 14, 67, 116
22, 208192, Note_on_c, 14, 58, 114
22, 208256, Note_off_c, 14, 67, 0
22, 208256, Note_off_c, 14, 58, 0
22, 208256, Note_on_c, 14, 60, 119
22, 208320, Note_off_c, 14, 60, 0
22, 208320, Note_on_c, 14, 64, 127
22, 208384, Note_off_c, 14, 64, 0
22, 208384, Note_on_c, 14, 46, 103
22, 208384, Note_on_c, 14, 65, 122
22, 208448, Note_off_c, 14, 46, 0
22, 208448, Note_off_c, 14, 65, 0
22, 208448, Note_on_c, 14, 48, 112
22, 208448, Note_on_c, 14, 67, 122
22, 208512, Note_off_c, 14, 48, 0
22, 208512, Note_off_c, 14, 67, 0
22, 208512, Note_on_c, 14, 52, 119
22, 208576, Note_off_c, 14, 52, 0
22, 208576, Note_on_c, 14, 55, 122
22, 208576, Note_on_c, 14, 46, 101
22, 208640, Note_off_c, 14, 55, 0
22, 208640, Note_off_c, 14, 46, 0
22, 208640, Note_on_c, 14, 58, 120
22, 208640, Note_on_c, 14, 48, 115
22, 208704, Note_off_c, 14, 58, 0
22, 208704, Note_off_c, 14, 48, 0
22, 208704, Note_on_c, 14, 60, 122
22, 208704, Note_on_c, 14, 52, 118
22, 208768, Note_off_c, 14, 60, 0
22, 208768, Note_off_c, 14, 52, 0
22, 208768, Note_on_c, 14, 58, 111
22, 208768, Note_on_c, 14, 55, 121
22, 208832, Note_off_c, 14, 58, 0
22, 208832, Note_off_c, 14, 55, 0
22, 208832, Note_on_c, 14, 60, 118
22, 208832, Note_on_c, 14, 58, 117
22, 208896, Note_off_c, 14, 60, 0
22, 208896, Note_off_c, 14, 58, 0
22, 208896, Note_on_c, 14, 64, 124
22, 208896, Note_on_c, 14, 60, 117
22, 208960, Note_off_c, 14, 64, 0
22, 208960, Note_off_c, 14, 60, 0
22, 208960, Note_on_c, 14, 65, 123
22, 208960, Note_on_c, 14, 58, 112
22, 209024, Note_off_c, 14, 65, 0
22, 209024, Note_off_c, 14, 58, 0
22, 209024, Note_on_c, 14, 67, 125
22, 209024, Note_on_c, 14, 60, 122
22, 209088, Note_off_c, 14, 67, 0
22, 209088, Note_off_c, 14, 60, 0
22, 209088, Note_on_c, 14, 64, 127
22, 209152, Note_off_c, 14, 64, 0
22, 209152, Note_on_c, 14, 65, 117
22, 209216, Note_off_c, 14, 65, 0
22, 209216, Note_on_c, 14, 46, 98
22, 209216, Note_on_c, 14, 67, 121
22, 209280, Note_off_c, 14, 46, 0
22, 209280, Note_off_c, 14, 67, 0
22, 209280, Note_on_c, 14, 48, 116
22, 209344, Note_off_c, 14, 48, 0
22, 209344, Note_on_c, 14, 52, 123
22, 209408, Note_off_c, 14, 52, 0
22, 209408, Note_on_c, 14, 55, 119
22, 209408, Note_on_c, 14, 46, 95
22, 209472, Note_off_c, 14, 55, 0
22, 209472, Note_off_c, 14, 46, 0
22, 209472, Note_on_c, 14, 58, 119
22, 209472, Note_on_c, 14, 48, 115
22, 209536, Note_off_c, 14, 58, 0
22, 209536, Note_off_c, 14, 48, 0
22, 209536, Note_on_c, 14, 60, 123
22, 209536, Note_on_c, 14, 52, 117
22, 209600, Note_off_c, 14, 60, 0
22, 209600, Note_off_c, 14, 52, 0
22, 209600, Note_on_c, 14, 58, 116
22, 209600, Note_on_c, 14, 55, 120
22, 209664, Note_off_c, 14, 58, 0
22, 209664, Note_off_c, 14, 55, 0
22, 209664, Note_on_c, 14, 60, 118
22, 209664, Note_on_c, 14, 58, 118
22, 209728, Note_off_c, 14, 60, 0
22, 209728, Note_off_c, 14, 58, 0
22, 209728, Note_on_c, 14, 64, 127
22, 209728, Note_on_c, 14, 60, 122
22, 209792, Note_off_c, 14, 64, 0
22, 209792, Note_off_c, 14, 60, 0
22, 209792, Note_on_c, 14, 65, 122
22, 209792, Note_on_c, 14, 58, 109
22, 209856, Note_off_c, 14, 65, 0
22, 209856, Note_off_c, 14, 58, 0
22, 209856, Note_on_c, 14, 67, 122
22, 209856, Note_on_c, 14, 60, 116
22, 209920, Note_off_c, 14, 67, 0
22, 209920, Note_off_c, 14, 60, 0
22, 209920, Note_on_c, 14, 64, 124
22, 209984, Note_off_c, 14, 64, 0
22, 209984, Note_on_c, 14, 65, 123
22, 210048, Note_off_c, 14, 65, 0
22, 210048, Note_on_c, 14, 52, 99
22, 210048, Note_on_c, 14, 67, 126
22, 210112, Note_off_c, 14, 52, 0
22, 210112, Note_off_c, 14, 67, 0
22, 210112, Note_on_c, 14, 53, 113
22, 210176, Note_off_c, 14, 53, 0
22, 210176, Note_on_c, 14, 58, 122
22, 210240, Note_off_c, 14, 58, 0
22, 210240, Note_on_c, 14, 46, 105
22, 210304, Note_off_c, 14, 46, 0
22, 210304, Note_on_c, 14, 48, 115
22, 210368, Note_off_c, 14, 48, 0
22, 210368, Note_on_c, 14, 52, 122
22, 210432, Note_off_c, 14, 52, 0
22, 210432, Note_on_c, 14, 55, 117
22, 210432, Note_on_c, 14, 46, 101
22, 210496, Note_off_c, 14, 55, 0
22, 210496, Note_off_c, 14, 46, 0
22, 210496, Note_on_c, 14, 58, 119
22, 210496, Note_on_c, 14, 48, 117
22, 210560, Note_off_c, 14, 58, 0
22, 210560, Note_off_c, 14, 48, 0
22, 210560, Note_on_c, 14, 52, 119
22, 210624, Note_off_c, 14, 52, 0
22, 210624, Note_on_c, 14, 46, 101
22, 210624, Note_on_c, 14, 55, 121
22, 210688, Note_off_c, 14, 46, 0
22, 210688, Note_off_c, 14, 55, 0
22, 210688, Note_on_c, 14, 48, 118
22, 210688, Note_on_c, 14, 59, 120
22, 210752, Note_off_c, 14, 48, 0
22, 210752, Note_off_c, 14, 59, 0
22, 210752, Note_on_c, 14, 46, 101
22, 210816, Note_off_c, 14, 46, 0
22, 210816, Note_on_c, 14, 52, 100
22, 210816, Note_on_c, 14, 48, 111
22, 210880, Note_off_c, 14, 52, 0
22, 210880, Note_off_c, 14, 48, 0
22, 210880, Note_on_c, 14, 55, 113
22, 210880, Note_on_c, 14, 52, 118
22, 210944, Note_off_c, 14, 55, 0
22, 210944, Note_off_c, 14, 52, 0
22, 210944, Note_on_c, 14, 46, 99
22, 210944, Note_on_c, 14, 55, 118
22, 211008, Note_off_c, 14, 46, 0
22, 211008, Note_off_c, 14, 55, 0
22, 211008, Note_on_c, 14, 48, 115
22, 211008, Note_on_c, 14, 58, 121
22, 211072, Note_off_c, 14, 48, 0
22, 211072, Note_off_c, 14, 58, 0
22, 211072, Note_on_c, 14, 52, 121
22, 211136, Note_off_c, 14, 52, 0
22, 211136, Note_on_c, 14, 55, 118
22, 211200, Note_off_c, 14, 55, 0
22, 211200, Note_on_c, 14, 58, 112
22, 211200, Note_on_c, 14, 46, 100
22, 211264, Note_off_c, 14, 58, 0
22, 211264, Note_off_c, 14, 46, 0
22, 211264, Note_on_c, 14, 45, 98
22, 211264, Note_on_c, 14, 48, 114
22, 211328, Note_off_c, 14, 45, 0
22, 211328, Note_off_c, 14, 48, 0
22, 211328, Note_on_c, 14, 46, 113
22, 211328, Note_on_c, 14, 52, 121
22, 211392, Note_off_c, 14, 46, 0
22, 211392, Note_off_c, 14, 52, 0
22, 211392, Note_on_c, 14, 48, 120
22, 211392, Note_on_c, 14, 55, 116
22, 211456, Note_off_c, 14, 48, 0
22, 211456, Note_off_c, 14, 55, 0
22, 211456, Note_on_c, 14, 53, 123
22, 211456, Note_on_c, 14, 58, 117
22, 211520, Note_off_c, 14, 53, 0
22, 211520, Note_off_c, 14, 58, 0
22, 211520, Note_on_c, 14, 55, 114
22, 211520, Note_on_c, 14, 46, 98
22, 211584, Note_off_c, 14, 55, 0
22, 211584, Note_off_c, 14, 46, 0
22, 211584, Note_on_c, 14, 48, 116
22, 211648, Note_off_c, 14, 48, 0
22, 211648, Note_on_c, 14, 46, 101
22, 211648, Note_on_c, 14, 52, 120
22, 211712, Note_off_c, 14, 46, 0
22, 211712, Note_off_c, 14, 52, 0
22, 211712, Note_on_c, 14, 48, 110
22, 211712, Note_on_c, 14, 55, 124
22, 211776, Note_off_c, 14, 48, 0
22, 211776, Note_off_c, 14, 55, 0
22, 211776, Note_on_c, 14, 52, 116
22, 211776, Note_on_c, 14, 48, 107
22, 211840, Note_off_c, 14, 52, 0
22, 211840, Note_off_c, 14, 48, 0
22, 211840, Note_on_c, 14, 55, 119
22, 211840, Note_on_c, 14, 52, 119
22, 211904, Note_off_c, 14, 55, 0
22, 211904, Note_off_c, 14, 52, 0
22, 211904, Note_on_c, 14, 58, 122
22, 211904, Note_on_c, 14, 55, 122
22, 211968, Note_off_c, 14, 58, 0
22, 211968, Note_off_c, 14, 55, 0
22, 211968, Note_on_c, 14, 45, 101
22, 211968, Note_on_c, 14, 58, 118
22, 212032, Note_off_c, 14, 45, 0
22, 212032, Note_off_c, 14, 58, 0
22, 212032, Note_on_c, 14, 46, 112
22, 212096, Note_off_c, 14, 46, 0
22, 212096, Note_on_c, 14, 48, 118
22, 212160, Note_off_c, 14, 48, 0
22, 212160, Note_on_c, 14, 53, 119
22, 212160, Note_on_c, 14, 46, 104
22, 212224, Note_off_c, 14, 53, 0
22, 212224, Note_off_c, 14, 46, 0
22, 212224, Note_on_c, 14, 55, 121
22, 212224, Note_on_c, 14, 48, 118
22, 212288, Note_off_c, 14, 55, 0
22, 212288, Note_off_c, 14, 48, 0
22, 212288, Note_on_c, 14, 46, 103
22, 212288, Note_on_c, 14, 52, 124
22, 212352, Note_off_c, 14, 46, 0
22, 212352, Note_off_c, 14, 52, 0
22, 212352, Note_on_c, 14, 48, 115
22, 212352, Note_on_c, 14, 55, 117
22, 212416, Note_off_c, 14, 48, 0
22, 212416, Note_off_c, 14, 55, 0
22, 212416, Note_on_c, 14, 52, 121
22, 212416, Note_on_c, 14, 58, 120
22, 212480, Note_off_c, 14, 52, 0
22, 212480, Note_off_c, 14, 58, 0
22, 212480, Note_on_c, 14, 55, 119
22, 212480, Note_on_c, 14, 46, 102
22, 212544, Note_off_c, 14, 55, 0
22, 212544, Note_off_c, 14, 46, 0
22, 212544, Note_on_c, 14, 58, 119
22, 212544, Note_on_c, 14, 48, 111
22, 212608, Note_off_c, 14, 58, 0
22, 212608, Note_off_c, 14, 48, 0
22, 212608, Note_on_c, 14, 52, 118
22, 212672, Note_off_c, 14, 52, 0
22, 212672, Note_on_c, 14, 45, 105
22, 212672, Note_on_c, 14, 55, 120
22, 212736, Note_off_c, 14, 45, 0
22, 212736, Note_off_c, 14, 55, 0
22, 212736, Note_on_c, 14, 46, 113
22, 212736, Note_on_c, 14, 58, 115
22, 212800, Note_off_c, 14, 46, 0
22, 212800, Note_off_c, 14, 58, 0
22, 212800, Note_on_c, 14, 45, 101
22, 212864, Note_off_c, 14, 45, 0
22, 212864, Note_on_c, 14, 48, 99
22, 212864, Note_on_c, 14, 46, 114
22, 212928, Note_off_c, 14, 48, 0
22, 212928, Note_off_c, 14, 46, 0
22, 212928, Note_on_c, 14, 53, 119
22, 212928, Note_on_c, 14, 48, 121
22, 212992, Note_off_c, 14, 53, 0
22, 212992, Note_off_c, 14, 48, 0
22, 212992, Note_on_c, 14, 55, 117
22, 212992, Note_on_c, 14, 52, 119
22, 213056, Note_off_c, 14, 55, 0
22, 213056, Note_off_c, 14, 52, 0
22, 213056, Note_on_c, 14, 48, 107
22, 213056, Note_on_c, 14, 55, 116
22, 213120, Note_off_c, 14, 48, 0
22, 213120, Note_off_c, 14, 55, 0
22, 213120, Note_on_c, 14, 52, 117
22, 213120, Note_on_c, 14, 58, 118
22, 213184, Note_off_c, 14, 52, 0
22, 213184, Note_off_c, 14, 58, 0
22, 213184, Note_on_c, 14, 55, 120
22, 213248, Note_off_c, 14, 55, 0
22, 213248, Note_on_c, 14, 58, 118
22, 213248, Note_on_c, 14, 46, 102
22, 213312, Note_off_c, 14, 58, 0
22, 213312, Note_off_c, 14, 46, 0
22, 213312, Note_on_c, 14, 45, 94
22, 213312, Note_on_c, 14, 48, 111
22, 213376, Note_off_c, 14, 45, 0
22, 213376, Note_off_c, 14, 48, 0
22, 213376, Note_on_c, 14, 46, 113
22, 213376, Note_on_c, 14, 52, 119
22, 213440, Note_off_c, 14, 46, 0
22, 213440, Note_off_c, 14, 52, 0
22, 213440, Note_on_c, 14, 48, 120
22, 213440, Note_on_c, 14, 55, 117
22, 213504, Note_off_c, 14, 48, 0
22, 213504, Note_off_c, 14, 55, 0
22, 213504, Note_on_c, 14, 53, 120
22, 213504, Note_on_c, 14, 58, 116
22, 213568, Note_off_c, 14, 53, 0
22, 213568, Note_off_c, 14, 58, 0
22, 213568, Note_on_c, 14, 55, 119
22, 213568, Note_on_c, 14, 48, 101
22, 213632, Note_off_c, 14, 55, 0
22, 213632, Note_off_c, 14, 48, 0
22, 213632, Note_on_c, 14, 52, 116
22, 213696, Note_off_c, 14, 52, 0
22, 213696, Note_on_c, 14, 46, 101
22, 213696, Note_on_c, 14, 55, 117
22, 213760, Note_off_c, 14, 46, 0
22, 213760, Note_off_c, 14, 55, 0
22, 213760, Note_on_c, 14, 48, 115
22, 213824, Note_off_c, 14, 48, 0
22, 213824, Note_on_c, 14, 52, 116
22, 213824, Note_on_c, 14, 46, 102
22, 213888, Note_off_c, 14, 52, 0
22, 213888, Note_off_c, 14, 46, 0
22, 213888, Note_on_c, 14, 55, 119
22, 213888, Note_on_c, 14, 48, 110
22, 213952, Note_off_c, 14, 55, 0
22, 213952, Note_off_c, 14, 48, 0
22, 213952, Note_on_c, 14, 58, 115
22, 213952, Note_on_c, 14, 52, 117
22, 214016, Note_off_c, 14, 58, 0
22, 214016, Note_off_c, 14, 52, 0
22, 214016, Note_on_c, 14, 43, 101
22, 214016, Note_on_c, 14, 55, 115
22, 214080, Note_off_c, 14, 43, 0
22, 214080, Note_off_c, 14, 55, 0
22, 214080, Note_on_c, 14, 46, 114
22, 214080, Note_on_c, 14, 58, 110
22, 214144, Note_off_c, 14, 46, 0
22, 214144, Note_off_c, 14, 58, 0
22, 214144, Note_on_c, 14, 48, 118
22, 214208, Note_off_c, 14, 48, 0
22, 214208, Note_on_c, 14, 52, 117
22, 214208, Note_on_c, 14, 45, 102
22, 214272, Note_off_c, 14, 52, 0
22, 214272, Note_off_c, 14, 45, 0
22, 214272, Note_on_c, 14, 46, 115
22, 214336, Note_off_c, 14, 46, 0
22, 214336, Note_on_c, 14, 43, 105
22, 214336, Note_on_c, 14, 48, 118
22, 214400, Note_off_c, 14, 43, 0
22, 214400, Note_off_c, 14, 48, 0
22, 214400, Note_on_c, 14, 46, 117
22, 214400, Note_on_c, 14, 52, 120
22, 214464, Note_off_c, 14, 46, 0
22, 214464, Note_off_c, 14, 52, 0
22, 214464, Note_on_c, 14, 48, 113
22, 214464, Note_on_c, 14, 55, 122
22, 214528, Note_off_c, 14, 48, 0
22, 214528, Note_off_c, 14, 55, 0
22, 214528, Note_on_c, 14, 52, 118
22, 214528, Note_on_c, 14, 46, 101
22, 214592, Note_off_c, 14, 52, 0
22, 214592, Note_off_c, 14, 46, 0
22, 214592, Note_on_c, 14, 53, 117
22, 214592, Note_on_c, 14, 48, 118
22, 214656, Note_off_c, 14, 53, 0
22, 214656, Note_off_c, 14, 48, 0
22, 214656, Note_on_c, 14, 52, 119
22, 214720, Note_off_c, 14, 52, 0
22, 214720, Note_on_c, 14, 43, 108
22, 214720, Note_on_c, 14, 55, 119
22, 214784, Note_off_c, 14, 43, 0
22, 214784, Note_off_c, 14, 55, 0
22, 214784, Note_on_c, 14, 46, 117
22, 214784, Note_on_c, 14, 58, 116
22, 214848, Note_off_c, 14, 46, 0
22, 214848, Note_off_c, 14, 58, 0
22, 214848, Note_on_c, 14, 48, 118
22, 214848, Note_on_c, 14, 45, 97
22, 214912, Note_off_c, 14, 48, 0
22, 214912, Note_off_c, 14, 45, 0
22, 214912, Note_on_c, 14, 52, 123
22, 214912, Note_on_c, 14, 46, 113
22, 214976, Note_off_c, 14, 52, 0
22, 214976, Note_off_c, 14, 46, 0
22, 214976, Note_on_c, 14, 48, 116
22, 215040, Note_off_c, 14, 48, 0
22, 215040, Note_on_c, 14, 43, 107
22, 215040, Note_on_c, 14, 52, 114
22, 215104, Note_off_c, 14, 43, 0
22, 215104, Note_off_c, 14, 52, 0
22, 215104, Note_on_c, 14, 46, 114
22, 215104, Note_on_c, 14, 55, 113
22, 215168, Note_off_c, 14, 46, 0
22, 215168, Note_off_c, 14, 55, 0
22, 215168, Note_on_c, 14, 48, 116
22, 215232, Note_off_c, 14, 48, 0
22, 215232, Note_on_c, 14, 52, 117
22, 215232, Note_on_c, 14, 45, 99
22, 215296, Note_off_c, 14, 52, 0
22, 215296, Note_off_c, 14, 45, 0
22, 215296, Note_on_c, 14, 53, 112
22, 215296, Note_on_c, 14, 46, 113
22, 215360, Note_off_c, 14, 53, 0
22, 215360, Note_off_c, 14, 46, 0
22, 215360, Note_on_c, 14, 43, 101
22, 215360, Note_on_c, 14, 48, 116
22, 215424, Note_off_c, 14, 43, 0
22, 215424, Note_off_c, 14, 48, 0
22, 215424, Note_on_c, 14, 46, 121
22, 215424, Note_on_c, 14, 52, 119
22, 215488, Note_off_c, 14, 46, 0
22, 215488, Note_off_c, 14, 52, 0
22, 215488, Note_on_c, 14, 48, 114
22, 215488, Note_on_c, 14, 55, 120
22, 215552, Note_off_c, 14, 48, 0
22, 215552, Note_off_c, 14, 55, 0
22, 215552, Note_on_c, 14, 52, 117
22, 215552, Note_on_c, 14, 46, 101
22, 215616, Note_off_c, 14, 52, 0
22, 215616, Note_off_c, 14, 46, 0
22, 215616, Note_on_c, 14, 48, 117
22, 215680, Note_off_c, 14, 48, 0
22, 215680, Note_on_c, 14, 52, 118
22, 215744, Note_off_c, 14, 52, 0
22, 215744, Note_on_c, 14, 43, 103
22, 215744, Note_on_c, 14, 55, 119
22, 215808, Note_off_c, 14, 43, 0
22, 215808, Note_off_c, 14, 55, 0
22, 215808, Note_on_c, 14, 46, 112
22, 215808, Note_on_c, 14, 58, 118
22, 215872, Note_off_c, 14, 46, 0
22, 215872, Note_off_c, 14, 58, 0
22, 215872, Note_on_c, 14, 48, 113
22, 215872, Note_on_c, 14, 45, 101
22, 215936, Note_off_c, 14, 48, 0
22, 215936, Note_off_c, 14, 45, 0
22, 215936, Note_on_c, 14, 52, 121
22, 215936, Note_on_c, 14, 46, 118
22, 216000, Note_off_c, 14, 52, 0
22, 216000, Note_off_c, 14, 46, 0
22, 216000, Note_on_c, 14, 48, 116
22, 216064, Note_off_c, 14, 48, 0
22, 216064, Note_on_c, 14, 43, 102
22, 216064, Note_on_c, 14, 52, 124
22, 216128, Note_off_c, 14, 43, 0
22, 216128, Note_off_c, 14, 52, 0
22, 216128, Note_on_c, 14, 46, 114
22, 216128, Note_on_c, 14, 55, 120
22, 216192, Note_off_c, 14, 46, 0
22, 216192, Note_off_c, 14, 55, 0
22, 216192, Note_on_c, 14, 48, 117
22, 216256, Note_off_c, 14, 48, 0
22, 216256, Note_on_c, 14, 52, 121
22, 216256, Note_on_c, 14, 45, 102
22, 216320, Note_off_c, 14, 52, 0
22, 216320, Note_off_c, 14, 45, 0
22, 216320, Note_on_c, 14, 46, 114
22, 216384, Note_off_c, 14, 46, 0
22, 216384, Note_on_c, 14, 43, 101
22, 216384, Note_on_c, 14, 48, 115
22, 216448, Note_off_c, 14, 43, 0
22, 216448, Note_off_c, 14, 48, 0
22, 216448, Note_on_c, 14, 46, 117
22, 216448, Note_on_c, 14, 52, 119
22, 216512, Note_off_c, 14, 46, 0
22, 216512, Note_off_c, 14, 52, 0
22, 216512, Note_on_c, 14, 48, 118
22, 216512, Note_on_c, 14, 53, 118
22, 216576, Note_off_c, 14, 48, 0
22, 216576, Note_off_c, 14, 53, 0
22, 216576, Note_on_c, 14, 52, 115
22, 216576, Note_on_c, 14, 43, 96
22, 216640, Note_off_c, 14, 52, 0
22, 216640, Note_off_c, 14, 43, 0
22, 216640, Note_on_c, 14, 53, 114
22, 216640, Note_on_c, 14, 46, 115
22, 216704, Note_off_c, 14, 53, 0
22, 216704, Note_off_c, 14, 46, 0
22, 216704, Note_on_c, 14, 48, 116
22, 216768, Note_off_c, 14, 48, 0
22, 216768, Note_on_c, 14, 43, 101
22, 216768, Note_on_c, 14, 52, 123
22, 216832, Note_off_c, 14, 43, 0
22, 216832, Note_off_c, 14, 52, 0
22, 216832, Note_on_c, 14, 46, 113
22, 216832, Note_on_c, 14, 48, 110
22, 216896, Note_off_c, 14, 46, 0
22, 216896, Note_off_c, 14, 48, 0
22, 216896, Note_on_c, 14, 43, 106
22, 216960, Note_off_c, 14, 43, 0
22, 216960, Note_on_c, 14, 46, 120
22, 217024, Note_off_c, 14, 46, 0
22, 217024, Note_on_c, 14, 48, 115
22, 217088, Note_off_c, 14, 48, 0
22, 217088, Note_on_c, 14, 43, 99
22, 217088, Note_on_c, 14, 52, 118
22, 217152, Note_off_c, 14, 43, 0
22, 217152, Note_off_c, 14, 52, 0
22, 217152, Note_on_c, 14, 46, 119
22, 217216, Note_off_c, 14, 46, 0
22, 217216, Note_on_c, 14, 48, 119
22, 217280, Note_off_c, 14, 48, 0
22, 217280, Note_on_c, 14, 52, 124
22, 217280, Note_on_c, 14, 43, 104
22, 217344, Note_off_c, 14, 52, 0
22, 217344, Note_off_c, 14, 43, 0
22, 217344, Note_on_c, 14, 48, 105
22, 217344, Note_on_c, 14, 46, 119
22, 217408, Note_off_c, 14, 48, 0
22, 217408, Note_off_c, 14, 46, 0
22, 217408, Note_on_c, 14, 43, 102
22, 217408, Note_on_c, 14, 48, 115
22, 217472, Note_off_c, 14, 43, 0
22, 217472, Note_off_c, 14, 48, 0
22, 217472, Note_on_c, 14, 46, 119
22, 217472, Note_on_c, 14, 52, 119
22, 217536, Note_off_c, 14, 46, 0
22, 217536, Note_off_c, 14, 52, 0
22, 217536, Note_on_c, 14, 48, 114
22, 217600, Note_off_c, 14, 48, 0
22, 217600, Note_on_c, 14, 52, 117
22, 217600, Note_on_c, 14, 43, 100
22, 217664, Note_off_c, 14, 52, 0
22, 217664, Note_off_c, 14, 43, 0
22, 217664, Note_on_c, 14, 48, 107
22, 217664, Note_on_c, 14, 46, 118
22, 217728, Note_off_c, 14, 48, 0
22, 217728, Note_off_c, 14, 46, 0
22, 217728, Note_on_c, 14, 48, 116
22, 217792, Note_off_c, 14, 48, 0
22, 217792, Note_on_c, 14, 43, 99
22, 217792, Note_on_c, 14, 52, 120
22, 217856, Note_off_c, 14, 43, 0
22, 217856, Note_off_c, 14, 52, 0
22, 217856, Note_on_c, 14, 46, 119
22, 217856, Note_on_c, 14, 48, 108
22, 217920, Note_off_c, 14, 46, 0
22, 217920, Note_off_c, 14, 48, 0
22, 217920, Note_on_c, 14, 48, 121
22, 217920, Note_on_c, 14, 55, 120
22, 217984, Note_off_c, 14, 48, 0
22, 217984, Note_off_c, 14, 55, 0
22, 217984, Note_on_c, 14, 52, 117
22, 217984, Note_on_c, 14, 58, 117
22, 218048, Note_off_c, 14, 52, 0
22, 218048, Note_off_c, 14, 58, 0
22, 218048, Note_on_c, 14, 48, 105
22, 218112, Note_off_c, 14, 48, 0
22, 218112, Note_on_c, 14, 43, 97
22, 218112, Note_on_c, 14, 52, 116
22, 218176, Note_off_c, 14, 43, 0
22, 218176, Note_off_c, 14, 52, 0
22, 218176, Note_on_c, 14, 46, 116
22, 218176, Note_on_c, 14, 48, 104
22, 218240, Note_off_c, 14, 46, 0
22, 218240, Note_off_c, 14, 48, 0
22, 218240, Note_on_c, 14, 48, 121
22, 218304, Note_off_c, 14, 48, 0
22, 218304, Note_on_c, 14, 52, 124
22, 218304, Note_on_c, 14, 43, 102
22, 218368, Note_off_c, 14, 52, 0
22, 218368, Note_off_c, 14, 43, 0
22, 218368, Note_on_c, 14, 48, 110
22, 218368, Note_on_c, 14, 46, 117
22, 218432, Note_off_c, 14, 48, 0
22, 218432, Note_off_c, 14, 46, 0
22, 218432, Note_on_c, 14, 43, 107
22, 218432, Note_on_c, 14, 48, 123
22, 218496, Note_off_c, 14, 43, 0
22, 218496, Note_off_c, 14, 48, 0
22, 218496, Note_on_c, 14, 46, 122
22, 218496, Note_on_c, 14, 52, 127
22, 218560, Note_off_c, 14, 46, 0
22, 218560, Note_off_c, 14, 52, 0
22, 218560, Note_on_c, 14, 48, 126
22, 218624, Note_off_c, 14, 48, 0
22, 218624, Note_on_c, 14, 54, 127
22, 218624, Note_on_c, 14, 54, 107
22, 218688, Note_off_c, 14, 54, 0
22, 218688, Note_off_c, 14, 54, 0
22, 218688, Note_on_c, 14, 57, 126
22, 218688, Note_on_c, 14, 57, 127
22, 218752, Note_off_c, 14, 57, 0
22, 218752, Note_off_c, 14, 57, 0
22, 218752, Note_on_c, 14, 58, 122
22, 218752, Note_on_c, 14, 58, 121
22, 218816, Note_off_c, 14, 58, 0
22, 218816, Note_off_c, 14, 58, 0
22, 218816, Note_on_c, 14, 60, 127
22, 218816, Note_on_c, 14, 60, 127
22, 218880, Note_off_c, 14, 60, 0
22, 218880, Note_off_c, 14, 60, 0
22, 218880, Note_on_c, 14, 58, 122
22, 218880, Note_on_c, 14, 58, 125
22, 218944, Note_off_c, 14, 58, 0
22, 218944, Note_off_c, 14, 58, 0
22, 218944, Note_on_c, 14, 60, 127
22, 218944, Note_on_c, 14, 60, 127
22, 219008, Note_off_c, 14, 60, 0
22, 219008, Note_off_c, 14, 60, 0
22, 219008, Note_on_c, 14, 58, 125
22, 219008, Note_on_c, 14, 58, 125
22, 219072, Note_off_c, 14, 58, 0
22, 219072, Note_off_c, 14, 58, 0
22, 219072, Note_on_c, 14, 60, 127
22, 219072, Note_on_c, 14, 60, 127
22, 219136, Note_off_c, 14, 60, 0
22, 219136, Note_off_c, 14, 60, 0
22, 219136, Note_on_c, 14, 64, 127
22, 219136, Note_on_c, 14, 64, 127
22, 219200, Note_off_c, 14, 64, 0
22, 219200, Note_off_c, 14, 64, 0
22, 219392, Note_on_c, 14, 52, 112
22, 219456, Note_off_c, 14, 52, 0
22, 219456, Note_on_c, 14, 54, 127
22, 219520, Note_off_c, 14, 54, 0
22, 219520, Note_on_c, 14, 57, 127
22, 219584, Note_off_c, 14, 57, 0
22, 219584, Note_on_c, 14, 58, 127
22, 219648, Note_off_c, 14, 58, 0
22, 219648, Note_on_c, 14, 57, 127
22, 219712, Note_off_c, 14, 57, 0
22, 219712, Note_on_c, 14, 58, 127
22, 219776, Note_off_c, 14, 58, 0
22, 219776, Note_on_c, 14, 60, 127
22, 219840, Note_off_c, 14, 60, 0
22, 219840, Note_on_c, 14, 58, 124
22, 219904, Note_off_c, 14, 58, 0
22, 219904, Note_on_c, 14, 62, 127
22, 219968, Note_off_c, 14, 62, 0
22, 219968, Note_on_c, 14, 64, 127
22, 220032, Note_off_c, 14, 64, 0
22, 220288, Note_on_c, 14, 55, 114
22, 220352, Note_off_c, 14, 55, 0
22, 220352, Note_on_c, 14, 57, 127
22, 220416, Note_off_c, 14, 57, 0
22, 220416, Note_on_c, 14, 58, 127
22, 220480, Note_off_c, 14, 58, 0
22, 220480, Note_on_c, 14, 60, 127
22, 220544, Note_off_c, 14, 60, 0
22, 220544, Note_on_c, 14, 58, 124
22, 220608, Note_off_c, 14, 58, 0
22, 220608, Note_on_c, 14, 60, 127
22, 220672, Note_off_c, 14, 60, 0
22, 220672, Note_on_c, 14, 62, 127
22, 220736, Note_off_c, 14, 62, 0
22, 220736, Note_on_c, 14, 64, 127
22, 220800, Note_off_c, 14, 64, 0
22, 220800, Note_on_c, 14, 66, 127
22, 220864, Note_off_c, 14, 66, 0
22, 220864, Note_on_c, 14, 67, 127
22, 220928, Note_off_c, 14, 67, 0
22, 221056, Note_on_c, 14, 48, 114
22, 221120, Note_off_c, 14, 48, 0
22, 221120, Note_on_c, 14, 50, 127
22, 221184, Note_off_c, 14, 50, 0
22, 221184, Note_on_c, 14, 52, 127
22, 221248, Note_off_c, 14, 52, 0
22, 221248, Note_on_c, 14, 54, 127
22, 221312, Note_off_c, 14, 54, 0
22, 221312, Note_on_c, 14, 57, 127
22, 221376, Note_off_c, 14, 57, 0
22, 221376, Note_on_c, 14, 54, 125
22, 221440, Note_off_c, 14, 54, 0
22, 221440, Note_on_c, 14, 57, 127
22, 221504, Note_off_c, 14, 57, 0
22, 221504, Note_on_c, 14, 58, 127
22, 221568, Note_off_c, 14, 58, 0
22, 221568, Note_on_c, 14, 60, 127
22, 221632, Note_off_c, 14, 60, 0
22, 221632, Note_on_c, 14, 58, 117
22, 221696, Note_off_c, 14, 58, 0
22, 221696, Note_on_c, 14, 62, 127
22, 221760, Note_off_c, 14, 62, 0
22, 221760, Note_on_c, 14, 64, 127
22, 221824, Note_off_c, 14, 64, 0
22, 221952, Note_on_c, 14, 57, 116
22, 222016, Note_off_c, 14, 57, 0
22, 222016, Note_on_c, 14, 58, 127
22, 222080, Note_off_c, 14, 58, 0
22, 222080, Note_on_c, 14, 60, 127
22, 222144, Note_off_c, 14, 60, 0
22, 222144, Note_on_c, 14, 62, 127
22, 222208, Note_off_c, 14, 62, 0
22, 222208, Note_on_c, 14, 60, 117
22, 222272, Note_off_c, 14, 60, 0
22, 222272, Note_on_c, 14, 62, 127
22, 222336, Note_off_c, 14, 62, 0
22, 222336, Note_on_c, 14, 64, 127
22, 222400, Note_off_c, 14, 64, 0
22, 222400, Note_on_c, 14, 62, 118
22, 222464, Note_off_c, 14, 62, 0
22, 222528, Note_on_c, 14, 45, 114
22, 222592, Note_off_c, 14, 45, 0
22, 222592, Note_on_c, 14, 46, 127
22, 222656, Note_off_c, 14, 46, 0
22, 222656, Note_on_c, 14, 48, 127
22, 222720, Note_off_c, 14, 48, 0
22, 222720, Note_on_c, 14, 50, 126
22, 222784, Note_off_c, 14, 50, 0
22, 222784, Note_on_c, 14, 48, 124
22, 222848, Note_off_c, 14, 48, 0
22, 222848, Note_on_c, 14, 50, 127
22, 222912, Note_off_c, 14, 50, 0
22, 222912, Note_on_c, 14, 54, 127
22, 222976, Note_off_c, 14, 54, 0
22, 222976, Note_on_c, 14, 55, 127
22, 223040, Note_off_c, 14, 55, 0
22, 223040, Note_on_c, 14, 54, 121
22, 223104, Note_off_c, 14, 54, 0
22, 223104, Note_on_c, 14, 57, 127
22, 223168, Note_off_c, 14, 57, 0
22, 223168, Note_on_c, 14, 60, 127
22, 223232, Note_off_c, 14, 60, 0
22, 223360, Note_on_c, 14, 62, 118
22, 223424, Note_off_c, 14, 62, 0
22, 223424, Note_on_c, 14, 64, 127
22, 223488, Note_off_c, 14, 64, 0
22, 223488, Note_on_c, 14, 66, 127
22, 223552, Note_off_c, 14, 66, 0
22, 223680, Note_on_c, 14, 42, 112
22, 223744, Note_off_c, 14, 42, 0
22, 223744, Note_on_c, 14, 45, 127
22, 223808, Note_off_c, 14, 45, 0
22, 223808, Note_on_c, 14, 46, 127
22, 223872, Note_off_c, 14, 46, 0
22, 223872, Note_on_c, 14, 48, 127
22, 223936, Note_off_c, 14, 48, 0
22, 223936, Note_on_c, 14, 46, 123
22, 224000, Note_off_c, 14, 46, 0
22, 224000, Note_on_c, 14, 48, 127
22, 224064, Note_off_c, 14, 48, 0
22, 224064, Note_on_c, 14, 46, 126
22, 224128, Note_off_c, 14, 46, 0
22, 224128, Note_on_c, 14, 48, 127
22, 224192, Note_off_c, 14, 48, 0
22, 224256, Note_on_c, 14, 46, 118
22, 224320, Note_off_c, 14, 46, 0
22, 224320, Note_on_c, 14, 48, 127
22, 224384, Note_off_c, 14, 48, 0
22, 224384, Note_on_c, 14, 52, 127
22, 224448, Note_off_c, 14, 52, 0
22, 224512, Note_on_c, 14, 48, 114
22, 224576, Note_off_c, 14, 48, 0
22, 224576, Note_on_c, 14, 46, 123
22, 224640, Note_off_c, 14, 46, 0
22, 224640, Note_on_c, 14, 42, 125
22, 224704, Note_off_c, 14, 42, 0
22, 224768, Note_on_c, 14, 45, 116
22, 224832, Note_off_c, 14, 45, 0
22, 224832, Note_on_c, 14, 46, 126
22, 224896, Note_off_c, 14, 46, 0
22, 224896, Note_on_c, 14, 48, 127
22, 224960, Note_off_c, 14, 48, 0
22, 225024, Note_on_c, 14, 48, 116
22, 225088, Note_off_c, 14, 48, 0
22, 225088, Note_on_c, 14, 50, 127
22, 225152, Note_off_c, 14, 50, 0
22, 225152, Note_on_c, 14, 53, 127
22, 225216, Note_off_c, 14, 53, 0
22, 225280, Note_on_c, 14, 48, 112
22, 225344, Note_off_c, 14, 48, 0
22, 225344, Note_on_c, 14, 50, 127
22, 225408, Note_off_c, 14, 50, 0
22, 225408, Note_on_c, 14, 54, 127
22, 225472, Note_off_c, 14, 54, 0
22, 225536, Note_on_c, 14, 50, 112
22, 225600, Note_off_c, 14, 50, 0
22, 225600, Note_on_c, 14, 52, 127
22, 225664, Note_off_c, 14, 52, 0
22, 225664, Note_on_c, 14, 56, 127
22, 225728, Note_off_c, 14, 56, 0
22, 225792, Note_on_c, 14, 46, 115
22, 225856, Note_off_c, 14, 46, 0
22, 225856, Note_on_c, 14, 48, 127
22, 225920, Note_off_c, 14, 48, 0
22, 225920, Note_on_c, 14, 50, 127
22, 225984, Note_off_c, 14, 50, 0
22, 226048, Note_on_c, 14, 50, 113
22, 226112, Note_off_c, 14, 50, 0
22, 226112, Note_on_c, 14, 52, 125
22, 226176, Note_off_c, 14, 52, 0
22, 226176, Note_on_c, 14, 56, 127
22, 226240, Note_off_c, 14, 56, 0
22, 226304, Note_on_c, 14, 48, 115
22, 226368, Note_off_c, 14, 48, 0
22, 226368, Note_on_c, 14, 52, 127
22, 226432, Note_off_c, 14, 52, 0
22, 226432, Note_on_c, 14, 56, 127
22, 226496, Note_off_c, 14, 56, 0
22, 226560, Note_on_c, 14, 52, 112
22, 226624, Note_off_c, 14, 52, 0
22, 226624, Note_on_c, 14, 54, 127
22, 226688, Note_off_c, 14, 54, 0
22, 226688, Note_on_c, 14, 58, 127
22, 226752, Note_off_c, 14, 58, 0
22, 226816, Note_on_c, 14, 50, 116
22, 226880, Note_off_c, 14, 50, 0
22, 226880, Note_on_c, 14, 52, 127
22, 226944, Note_off_c, 14, 52, 0
22, 226944, Note_on_c, 14, 56, 127
22, 227008, Note_off_c, 14, 56, 0
22, 227072, Note_on_c, 14, 54, 115
22, 227136, Note_off_c, 14, 54, 0
22, 227136, Note_on_c, 14, 56, 127
22, 227200, Note_off_c, 14, 56, 0
22, 227200, Note_on_c, 14, 60, 127
22, 227264, Note_off_c, 14, 60, 0
22, 227264, Note_on_c, 14, 58, 127
22, 227328, Note_off_c, 14, 58, 0
22, 227456, Note_on_c, 14, 50, 115
22, 227520, Note_off_c, 14, 50, 0
22, 227520, Note_on_c, 14, 54, 127
22, 227584, Note_off_c, 14, 54, 0
22, 227584, Note_on_c, 14, 56, 127
22, 227648, Note_off_c, 14, 56, 0
22, 227712, Note_on_c, 14, 54, 115
22, 227776, Note_off_c, 14, 54, 0
22, 227776, Note_on_c, 14, 57, 127
22, 227840, Note_off_c, 14, 57, 0
22, 227840, Note_on_c, 14, 60, 127
22, 227904, Note_off_c, 14, 60, 0
22, 227904, Note_on_c, 14, 58, 125
22, 227968, Note_off_c, 14, 58, 0
22, 228096, Note_on_c, 14, 50, 117
22, 228160, Note_off_c, 14, 50, 0
22, 228160, Note_on_c, 14, 54, 127
22, 228224, Note_off_c, 14, 54, 0
22, 228224, Note_on_c, 14, 56, 127
22, 228288, Note_off_c, 14, 56, 0
22, 228352, Note_on_c, 14, 54, 115
22, 228416, Note_off_c, 14, 54, 0
22, 228416, Note_on_c, 14, 57, 127
22, 228480, Note_off_c, 14, 57, 0
22, 228480, Note_on_c, 14, 60, 127
22, 228544, Note_off_c, 14, 60, 0
22, 228544, Note_on_c, 14, 58, 123
22, 228608, Note_off_c, 14, 58, 0
22, 228736, Note_on_c, 14, 60, 110
22, 228800, Note_off_c, 14, 60, 0
22, 228800, Note_on_c, 14, 58, 119
22, 228864, Note_off_c, 14, 58, 0
22, 228992, Note_on_c, 14, 60, 112
22, 229056, Note_off_c, 14, 60, 0
22, 229056, Note_on_c, 14, 58, 120
22, 229120, Note_off_c, 14, 58, 0
22, 229248, Note_on_c, 14, 60, 113
22, 229312, Note_off_c, 14, 60, 0
22, 229312, Note_on_c, 14, 58, 118
22, 229376, Note_off_c, 14, 58, 0
22, 396480, Note_on_c, 14, 48, 114
22, 396544, Note_on_c, 14, 36, 96
22, 396545, Note_off_c, 14, 48, 0
22, 396604, Note_off_c, 14, 36, 0
22, 396736, Note_on_c, 14, 37, 117
22, 396800, Note_on_c, 14, 49, 127
22, 396801, Note_off_c, 14, 37, 0
22, 396860, Note_off_c, 14, 49, 0
22, 396992, Note_on_c, 14, 39, 107
22, 397056, Note_on_c, 14, 51, 118
22, 397057, Note_off_c, 14, 39, 0
22, 397116, Note_off_c, 14, 51, 0
22, 397248, Note_on_c, 14, 52, 115
22, 397312, Note_on_c, 14, 40, 97
22, 397313, Note_off_c, 14, 52, 0
22, 397372, Note_off_c, 14, 40, 0
22, 397504, Note_on_c, 14, 42, 114
22, 397568, Note_on_c, 14, 54, 127
22, 397569, Note_off_c, 14, 42, 0
22, 397628, Note_off_c, 14, 54, 0
22, 397760, Note_on_c, 14, 43, 114
22, 397824, Note_on_c, 14, 55, 126
22, 397825, Note_off_c, 14, 43, 0
22, 397884, Note_off_c, 14, 55, 0
22, 398016, Note_on_c, 14, 57, 112
22, 398080, Note_on_c, 14, 45, 98
22, 398081, Note_off_c, 14, 57, 0
22, 398140, Note_off_c, 14, 45, 0
22, 398272, Note_on_c, 14, 46, 120
22, 398336, Note_on_c, 14, 58, 127
22, 398337, Note_off_c, 14, 46, 0
22, 398396, Note_off_c, 14, 58, 0
22, 398528, Note_on_c, 14, 49, 115
22, 398592, Note_on_c, 14, 61, 127
22, 398593, Note_off_c, 14, 49, 0
22, 398652, Note_off_c, 14, 61, 0
22, 398784, Note_on_c, 14, 51, 110
22, 398848, Note_on_c, 14, 39, 95
22, 398849, Note_off_c, 14, 51, 0
22, 398908, Note_off_c, 14, 39, 0
22, 399040, Note_on_c, 14, 40, 113
22, 399104, Note_on_c, 14, 52, 126
22, 399105, Note_off_c, 14, 40, 0
22, 399164, Note_off_c, 14, 52, 0
22, 399296, Note_on_c, 14, 54, 111
22, 399360, Note_on_c, 14, 42, 98
22, 399361, Note_off_c, 14, 54, 0
22, 399420, Note_off_c, 14, 42, 0
22, 399552, Note_on_c, 14, 43, 115
22, 399616, Note_on_c, 14, 55, 127
22, 399617, Note_off_c, 14, 43, 0
22, 399676, Note_off_c, 14, 55, 0
22, 399808, Note_on_c, 14, 46, 109
22, 399872, Note_on_c, 14, 58, 122
22, 399873, Note_off_c, 14, 46, 0
22, 399932, Note_off_c, 14, 58, 0
22, 400064, Note_on_c, 14, 48, 118
22, 400128, Note_on_c, 14, 60, 127
22, 400129, Note_off_c, 14, 48, 0
22, 400188, Note_off_c, 14, 60, 0
22, 400320, Note_on_c, 14, 58, 111
22, 400384, Note_on_c, 14, 49, 99
22, 400385, Note_off_c, 14, 58, 0
22, 400444, Note_off_c, 14, 49, 0
22, 400576, Note_on_c, 14, 51, 114
22, 400640, Note_on_c, 14, 63, 127
22, 400641, Note_off_c, 14, 51, 0
22, 400700, Note_off_c, 14, 63, 0
22, 400832, Note_on_c, 14, 67, 106
22, 400896, Note_on_c, 14, 55, 93
22, 400897, Note_off_c, 14, 67, 0
22, 400956, Note_off_c, 14, 55, 0
22, 401088, Note_on_c, 14, 57, 110
22, 401152, Note_on_c, 14, 69, 127
22, 401153, Note_off_c, 14, 57, 0
22, 401212, Note_off_c, 14, 69, 0
22, 401344, Note_on_c, 14, 70, 111
22, 401408, Note_on_c, 14, 57, 94
22, 401409, Note_off_c, 14, 70, 0
22, 401468, Note_off_c, 14, 57, 0
22, 401600, Note_on_c, 14, 57, 110
22, 401664, Note_on_c, 14, 69, 127
22, 401665, Note_off_c, 14, 57, 0
22, 401724, Note_off_c, 14, 69, 0
22, 401856, Note_on_c, 14, 58, 112
22, 401920, Note_on_c, 14, 46, 98
22, 401921, Note_off_c, 14, 58, 0
22, 401980, Note_off_c, 14, 46, 0
22, 402112, Note_on_c, 14, 48, 111
22, 402176, Note_on_c, 14, 49, 112
22, 402177, Note_off_c, 14, 48, 0
22, 402236, Note_off_c, 14, 49, 0
22, 402368, Note_on_c, 14, 52, 115
22, 402432, Note_on_c, 14, 54, 118
22, 402433, Note_off_c, 14, 52, 0
22, 402492, Note_off_c, 14, 54, 0
22, 402624, Note_on_c, 14, 57, 113
22, 402688, Note_on_c, 14, 61, 121
22, 402689, Note_off_c, 14, 57, 0
22, 402748, Note_off_c, 14, 61, 0
22, 402880, Note_on_c, 14, 63, 117
22, 402944, Note_on_c, 14, 48, 100
22, 402945, Note_off_c, 14, 63, 0
22, 403004, Note_off_c, 14, 48, 0
22, 403136, Note_on_c, 14, 52, 115
22, 403200, Note_on_c, 14, 54, 114
22, 403201, Note_off_c, 14, 52, 0
22, 403260, Note_off_c, 14, 54, 0
22, 403392, Note_on_c, 14, 57, 112
22, 403456, Note_on_c, 14, 61, 125
22, 403457, Note_off_c, 14, 57, 0
22, 403516, Note_off_c, 14, 61, 0
22, 403648, Note_on_c, 14, 63, 115
22, 403712, Note_on_c, 14, 48, 96
22, 403713, Note_off_c, 14, 63, 0
22, 403772, Note_off_c, 14, 48, 0
22, 403904, Note_on_c, 14, 48, 113
22, 403968, Note_on_c, 14, 52, 114
22, 403969, Note_off_c, 14, 48, 0
22, 404028, Note_off_c, 14, 52, 0
22, 404160, Note_on_c, 14, 54, 121
22, 404224, Note_on_c, 14, 57, 126
22, 404225, Note_off_c, 14, 54, 0
22, 404284, Note_off_c, 14, 57, 0
22, 404416, Note_on_c, 14, 61, 108
22, 404480, Note_on_c, 14, 63, 113
22, 404481, Note_off_c, 14, 61, 0
22, 404540, Note_off_c, 14, 63, 0
22, 404672, Note_on_c, 14, 48, 112
22, 404736, Note_on_c, 14, 52, 116
22, 404737, Note_off_c, 14, 48, 0
22, 404796, Note_off_c, 14, 52, 0
22, 404928, Note_on_c, 14, 54, 115
22, 404992, Note_on_c, 14, 57, 121
22, 404993, Note_off_c, 14, 54, 0
22, 405052, Note_off_c, 14, 57, 0
22, 405184, Note_on_c, 14, 61, 110
22, 405248, Note_on_c, 14, 63, 116
22, 405249, Note_off_c, 14, 61, 0
22, 405308, Note_off_c, 14, 63, 0
22, 405440, Note_on_c, 14, 48, 112
22, 405504, Note_on_c, 14, 52, 116
22, 405505, Note_off_c, 14, 48, 0
22, 405564, Note_off_c, 14, 52, 0
22, 405696, Note_on_c, 14, 54, 113
22, 405760, Note_on_c, 14, 57, 118
22, 405761, Note_off_c, 14, 54, 0
22, 405820, Note_off_c, 14, 57, 0
22, 405952, Note_on_c, 14, 61, 112
22, 406016, Note_on_c, 14, 63, 113
22, 406017, Note_off_c, 14, 61, 0
22, 406076, Note_off_c, 14, 63, 0
22, 406208, Note_on_c, 14, 48, 112
22, 406272, Note_on_c, 14, 52, 116
22, 406273, Note_off_c, 14, 48, 0
22, 406332, Note_off_c, 14, 52, 0
22, 406464, Note_on_c, 14, 54, 114
22, 406528, Note_on_c, 14, 57, 115
22, 406529, Note_off_c, 14, 54, 0
22, 406588, Note_off_c, 14, 57, 0
22, 406720, Note_on_c, 14, 61, 117
22, 406784, Note_on_c, 14, 63, 125
22, 406785, Note_off_c, 14, 61, 0
22, 406844, Note_off_c, 14, 63, 0
22, 406976, Note_on_c, 14, 48, 113
22, 407040, Note_on_c, 14, 52, 118
22, 407041, Note_off_c, 14, 48, 0
22, 407100, Note_off_c, 14, 52, 0
22, 407232, Note_on_c, 14, 54, 116
22, 407296, Note_on_c, 14, 57, 118
22, 407297, Note_off_c, 14, 54, 0
22, 407356, Note_off_c, 14, 57, 0
22, 407488, Note_on_c, 14, 61, 114
22, 407552, Note_on_c, 14, 63, 119
22, 407553, Note_off_c, 14, 61, 0
22, 407612, Note_off_c, 14, 63, 0
22, 407744, Note_on_c, 14, 48, 113
22, 407808, Note_on_c, 14, 52, 118
22, 407809, Note_off_c, 14, 48, 0
22, 407868, Note_off_c, 14, 52, 0
22, 408000, Note_on_c, 14, 54, 110
22, 408064, Note_on_c, 14, 57, 114
22, 408065, Note_off_c, 14, 54, 0
22, 408124, Note_off_c, 14, 57, 0
22, 408256, Note_on_c, 14, 61, 111
22, 408320, Note_on_c, 14, 63, 112
22, 408321, Note_off_c, 14, 61, 0
22, 408380, Note_off_c, 14, 63, 0
22, 408512, Note_on_c, 14, 48, 117
22, 408576, Note_on_c, 14, 52, 119
22, 408577, Note_off_c, 14, 48, 0
22, 408636, Note_off_c, 14, 52, 0
22, 408768, Note_on_c, 14, 54, 114
22, 408832, Note_on_c, 14, 57, 117
22, 408833, Note_off_c, 14, 54, 0
22, 408892, Note_off_c, 14, 57, 0
22, 409024, Note_on_c, 14, 61, 115
22, 409088, Note_on_c, 14, 63, 122
22, 409089, Note_off_c, 14, 61, 0
22, 409148, Note_off_c, 14, 63, 0
22, 409280, Note_on_c, 14, 48, 108
22, 409344, Note_on_c, 14, 52, 114
22, 409345, Note_off_c, 14, 48, 0
22, 409404, Note_off_c, 14, 52, 0
22, 409536, Note_on_c, 14, 54, 118
22, 409600, Note_on_c, 14, 57, 118
22, 409601, Note_off_c, 14, 54, 0
22, 409660, Note_off_c, 14, 57, 0
22, 409792, Note_on_c, 14, 61, 110
22, 409856, Note_on_c, 14, 63, 112
22, 409857, Note_off_c, 14, 61, 0
22, 409916, Note_off_c, 14, 63, 0
22, 410048, Note_on_c, 14, 52, 114
22, 410112, Note_on_c, 14, 54, 112
22, 410113, Note_off_c, 14, 52, 0
22, 410172, Note_off_c, 14, 54, 0
22, 410304, Note_on_c, 14, 57, 113
22, 410368, Note_on_c, 14, 61, 126
22, 410369, Note_off_c, 14, 57, 0
22, 410428, Note_off_c, 14, 61, 0
22, 410560, Note_on_c, 14, 65, 113
22, 410624, Note_on_c, 14, 68, 120
22, 410625, Note_off_c, 14, 65, 0
22, 410684, Note_off_c, 14, 68, 0
22, 410816, Note_on_c, 14, 47, 114
22, 410880, Note_on_c, 14, 53, 121
22, 410881, Note_off_c, 14, 47, 0
22, 410940, Note_off_c, 14, 53, 0
22, 411072, Note_on_c, 14, 56, 116
22, 411136, Note_on_c, 14, 58, 119
22, 411137, Note_off_c, 14, 56, 0
22, 411196, Note_off_c, 14, 58, 0
22, 411328, Note_on_c, 14, 61, 112
22, 411392, Note_on_c, 14, 65, 119
22, 411393, Note_off_c, 14, 61, 0
22, 411452, Note_off_c, 14, 65, 0
22, 411648, Note_on_c, 14, 47, 109
22, 411712, Note_off_c, 14, 47, 0
22, 411776, Note_on_c, 14, 53, 127
22, 411840, Note_off_c, 14, 53, 0
22, 411904, Note_on_c, 14, 56, 127
22, 411968, Note_off_c, 14, 56, 0
22, 412032, Note_on_c, 14, 58, 127
22, 412096, Note_off_c, 14, 58, 0
22, 412160, Note_on_c, 14, 61, 127
22, 412224, Note_off_c, 14, 61, 0
22, 412288, Note_on_c, 14, 65, 127
22, 412352, Note_off_c, 14, 65, 0
22, 412416, Note_on_c, 14, 68, 127
22, 412480, Note_off_c, 14, 68, 0
22, 412544, Note_on_c, 14, 47, 110
22, 412608, Note_off_c, 14, 47, 0
22, 412672, Note_on_c, 14, 53, 127
22, 412736, Note_off_c, 14, 53, 0
22, 412800, Note_on_c, 14, 56, 127
22, 412864, Note_off_c, 14, 56, 0
22, 412928, Note_on_c, 14, 58, 127
22, 412992, Note_off_c, 14, 58, 0
22, 413056, Note_on_c, 14, 61, 127
22, 413120, Note_off_c, 14, 61, 0
22, 413184, Note_on_c, 14, 65, 127
22, 413248, Note_off_c, 14, 65, 0
22, 413312, Note_on_c, 14, 68, 127
22, 413376, Note_off_c, 14, 68, 0
22, 413440, Note_on_c, 14, 47, 118
22, 413504, Note_off_c, 14, 47, 0
22, 413568, Note_on_c, 14, 53, 127
22, 413632, Note_off_c, 14, 53, 0
22, 413696, Note_on_c, 14, 56, 127
22, 413760, Note_off_c, 14, 56, 0
22, 413824, Note_on_c, 14, 58, 127
22, 413888, Note_off_c, 14, 58, 0
22, 413952, Note_on_c, 14, 61, 127
22, 414016, Note_off_c, 14, 61, 0
22, 414080, Note_on_c, 14, 65, 127
22, 414144, Note_off_c, 14, 65, 0
22, 414336, Note_on_c, 14, 49, 112
22, 414400, Note_off_c, 14, 49, 0
22, 414464, Note_on_c, 14, 53, 127
22, 414528, Note_off_c, 14, 53, 0
22, 414592, Note_on_c, 14, 56, 127
22, 414656, Note_off_c, 14, 56, 0
22, 414720, Note_on_c, 14, 58, 127
22, 414784, Note_off_c, 14, 58, 0
22, 414848, Note_on_c, 14, 61, 127
22, 414912, Note_off_c, 14, 61, 0
22, 414976, Note_on_c, 14, 64, 127
22, 415040, Note_off_c, 14, 64, 0
22, 415104, Note_on_c, 14, 69, 127
22, 415168, Note_off_c, 14, 69, 0
22, 415232, Note_on_c, 14, 49, 112
22, 415296, Note_off_c, 14, 49, 0
22, 415360, Note_on_c, 14, 52, 127
22, 415424, Note_off_c, 14, 52, 0
22, 415488, Note_on_c, 14, 57, 127
22, 415552, Note_off_c, 14, 57, 0
22, 415616, Note_on_c, 14, 58, 127
22, 415680, Note_off_c, 14, 58, 0
22, 415744, Note_on_c, 14, 61, 127
22, 415808, Note_off_c, 14, 61, 0
22, 415872, Note_on_c, 14, 63, 127
22, 415936, Note_off_c, 14, 63, 0
22, 416000, Note_on_c, 14, 69, 127
22, 416064, Note_off_c, 14, 69, 0
22, 416128, Note_on_c, 14, 49, 118
22, 416192, Note_off_c, 14, 49, 0
22, 416256, Note_on_c, 14, 52, 126
22, 416320, Note_off_c, 14, 52, 0
22, 416384, Note_on_c, 14, 57, 127
22, 416448, Note_off_c, 14, 57, 0
22, 416512, Note_on_c, 14, 63, 127
22, 416576, Note_off_c, 14, 63, 0
22, 416640, Note_on_c, 14, 69, 127
22, 416704, Note_off_c, 14, 69, 0
22, 416768, Note_on_c, 14, 51, 112
22, 416832, Note_off_c, 14, 51, 0
22, 416896, Note_on_c, 14, 57, 127
22, 416960, Note_off_c, 14, 57, 0
22, 417024, Note_on_c, 14, 61, 127
22, 417088, Note_off_c, 14, 61, 0
22, 417152, Note_on_c, 14, 63, 127
22, 417216, Note_off_c, 14, 63, 0
22, 417280, Note_on_c, 14, 69, 127
22, 417344, Note_off_c, 14, 69, 0
22, 417408, Note_on_c, 14, 69, 127
22, 417472, Note_off_c, 14, 69, 0
22, 417536, Note_on_c, 14, 73, 127
22, 417600, Note_off_c, 14, 73, 0
22, 417664, Note_on_c, 14, 51, 110
22, 417728, Note_off_c, 14, 51, 0
22, 417792, Note_on_c, 14, 57, 127
22, 417856, Note_off_c, 14, 57, 0
22, 418048, Note_on_c, 14, 63, 117
22, 418112, Note_off_c, 14, 63, 0
22, 418176, Note_on_c, 14, 69, 127
22, 418240, Note_off_c, 14, 69, 0
22, 418304, Note_on_c, 14, 69, 127
22, 418368, Note_off_c, 14, 69, 0
22, 418432, Note_on_c, 14, 73, 127
22, 418496, Note_off_c, 14, 73, 0
22, 418560, Note_on_c, 14, 57, 116
22, 418624, Note_off_c, 14, 57, 0
22, 418688, Note_on_c, 14, 61, 127
22, 418752, Note_off_c, 14, 61, 0
22, 418944, Note_on_c, 14, 68, 114
22, 419008, Note_off_c, 14, 68, 0
22, 419072, Note_on_c, 14, 73, 127
22, 419136, Note_off_c, 14, 73, 0
22, 419200, Note_on_c, 14, 75, 127
22, 419264, Note_off_c, 14, 75, 0
22, 419328, Note_on_c, 14, 57, 108
22, 419392, Note_off_c, 14, 57, 0
22, 419456, Note_on_c, 14, 61, 127
22, 419520, Note_off_c, 14, 61, 0
22, 419712, Note_on_c, 14, 64, 112
22, 419776, Note_off_c, 14, 64, 0
22, 419840, Note_on_c, 14, 69, 127
22, 419904, Note_off_c, 14, 69, 0
22, 419968, Note_on_c, 14, 73, 127
22, 420032, Note_off_c, 14, 73, 0
22, 420096, Note_on_c, 14, 76, 127
22, 420160, Note_off_c, 14, 76, 0
22, 420352, Note_on_c, 14, 51, 112
22, 420416, Note_off_c, 14, 51, 0
22, 420480, Note_on_c, 14, 61, 127
22, 420544, Note_off_c, 14, 61, 0
22, 420608, Note_on_c, 14, 64, 127
22, 420672, Note_off_c, 14, 64, 0
22, 420736, Note_on_c, 14, 66, 127
22, 420800, Note_off_c, 14, 66, 0
22, 420864, Note_on_c, 14, 73, 127
22, 420928, Note_off_c, 14, 73, 0
22, 420992, Note_on_c, 14, 76, 127
22, 421056, Note_off_c, 14, 76, 0
22, 421120, Note_on_c, 14, 76, 127
22, 421184, Note_off_c, 14, 76, 0
22, 421248, Note_on_c, 14, 54, 110
22, 421312, Note_off_c, 14, 54, 0
22, 421376, Note_on_c, 14, 61, 127
22, 421440, Note_off_c, 14, 61, 0
22, 421504, Note_on_c, 14, 66, 127
22, 421568, Note_off_c, 14, 66, 0
22, 421632, Note_on_c, 14, 69, 127
22, 421696, Note_off_c, 14, 69, 0
22, 421888, Note_on_c, 14, 57, 111
22, 421952, Note_off_c, 14, 57, 0
22, 422016, Note_on_c, 14, 66, 127
22, 422080, Note_off_c, 14, 66, 0
22, 422144, Note_on_c, 14, 69, 127
22, 422208, Note_off_c, 14, 69, 0
22, 422272, Note_on_c, 14, 73, 127
22, 422336, Note_off_c, 14, 73, 0
22, 422400, Note_on_c, 14, 78, 127
22, 422464, Note_off_c, 14, 78, 0
22, 422528, Note_on_c, 14, 81, 127
22, 422592, Note_off_c, 14, 81, 0
22, 422656, Note_on_c, 14, 81, 127
22, 422720, Note_off_c, 14, 81, 0
22, 422784, Note_on_c, 14, 48, 109
22, 422848, Note_off_c, 14, 48, 0
22, 422912, Note_on_c, 14, 54, 127
22, 422976, Note_off_c, 14, 54, 0
22, 423040, Note_on_c, 14, 60, 127
22, 423104, Note_off_c, 14, 60, 0
22, 423168, Note_on_c, 14, 64, 127
22, 423232, Note_off_c, 14, 64, 0
22, 423296, Note_on_c, 14, 66, 127
22, 423360, Note_off_c, 14, 66, 0
22, 423552, Note_on_c, 14, 54, 115
22, 423616, Note_off_c, 14, 54, 0
22, 423680, Note_on_c, 14, 54, 125
22, 423744, Note_off_c, 14, 54, 0
22, 423808, Note_on_c, 14, 55, 127
22, 423872, Note_off_c, 14, 55, 0
22, 423936, Note_on_c, 14, 55, 126
22, 424000, Note_off_c, 14, 55, 0
22, 424064, Note_on_c, 14, 59, 127
22, 424128, Note_off_c, 14, 59, 0
22, 424192, Note_on_c, 14, 59, 127
22, 424256, Note_off_c, 14, 59, 0
22, 424320, Note_on_c, 14, 60, 127
22, 424384, Note_off_c, 14, 60, 0
22, 424448, Note_on_c, 14, 60, 123
22, 424512, Note_off_c, 14, 60, 0
22, 424576, Note_on_c, 14, 61, 127
22, 424640, Note_off_c, 14, 61, 0
22, 437120, Note_on_c, 14, 66, 115
22, 437120, Note_on_c, 14, 71, 115
22, 437120, Note_on_c, 14, 73, 115
22, 437120, Note_on_c, 14, 78, 115
22, 437184, Note_off_c, 14, 66, 0
22, 437184, Note_off_c, 14, 71, 0
22, 437184, Note_off_c, 14, 73, 0
22, 437184, Note_off_c, 14, 78, 0
22, 437248, Note_on_c, 14, 67, 127
22, 437248, Note_on_c, 14, 70, 127
22, 437248, Note_on_c, 14, 74, 127
22, 437248, Note_on_c, 14, 79, 127
22, 437504, Note_off_c, 14, 67, 0
22, 437504, Note_off_c, 14, 70, 0
22, 437504, Note_off_c, 14, 74, 0
22, 437504, Note_off_c, 14, 79, 0
22, 437760, Note_on_c, 14, 67, 112
22, 437760, Note_on_c, 14, 70, 112
22, 437760, Note_on_c, 14, 73, 112
22, 437760, Note_on_c, 14, 75, 112
22, 437824, Note_off_c, 14, 67, 0
22, 437824, Note_off_c, 14, 70, 0
22, 437824, Note_off_c, 14, 73, 0
22, 437824, Note_off_c, 14, 75, 0
22, 437888, Note_on_c, 14, 69, 127
22, 437888, Note_on_c, 14, 76, 127
22, 437888, Note_on_c, 14, 78, 127
22, 437888, Note_on_c, 14, 80, 127
22, 438144, Note_off_c, 14, 69, 0
22, 438144, Note_off_c, 14, 76, 0
22, 438144, Note_off_c, 14, 78, 0
22, 438144, Note_off_c, 14, 80, 0
22, 438272, Note_on_c, 14, 69, 109
22, 438272, Note_on_c, 14, 73, 109
22, 438272, Note_on_c, 14, 76, 109
22, 438272, Note_on_c, 14, 81, 109
22, 438400, Note_off_c, 14, 69, 0
22, 438400, Note_off_c, 14, 73, 0
22, 438400, Note_off_c, 14, 76, 0
22, 438400, Note_off_c, 14, 81, 0
22, 438400, Note_on_c, 14, 73, 123
22, 438400, Note_on_c, 14, 78, 123
22, 438400, Note_on_c, 14, 81, 123
22, 438656, Note_off_c, 14, 73, 0
22, 438656, Note_off_c, 14, 78, 0
22, 438656, Note_off_c, 14, 81, 0
22, 438656, Note_on_c, 14, 74, 125
22, 438656, Note_on_c, 14, 78, 125
22, 438656, Note_on_c, 14, 81, 125
22, 439040, Note_off_c, 14, 74, 0
22, 439040, Note_off_c, 14, 78, 0
22, 439040, Note_off_c, 14, 81, 0
22, 439040, Note_on_c, 14, 74, 127
22, 439040, Note_on_c, 14, 78, 127
22, 439040, Note_on_c, 14, 81, 127
22, 439552, Note_off_c, 14, 74, 0
22, 439552, Note_off_c, 14, 78, 0
22, 439552, Note_off_c, 14, 81, 0
22, 439552, Note_on_c, 14, 74, 125
22, 439552, Note_on_c, 14, 78, 125
22, 439552, Note_on_c, 14, 81, 125
22, 439936, Note_off_c, 14, 74, 0
22, 439936, Note_off_c, 14, 78, 0
22, 439936, Note_off_c, 14, 81, 0
22, 439936, Note_on_c, 14, 74, 127
22, 439936, Note_on_c, 14, 78, 127
22, 439936, Note_on_c, 14, 81, 127
22, 440064, Note_on_c, 14, 72, 124
22, 440307, Note_off_c, 14, 72, 0
22, 440320, Note_on_c, 14, 72, 127
22, 440320, Note_on_c, 14, 74, 127
22, 440320, Note_on_c, 14, 78, 127
22, 440320, Note_on_c, 14, 81, 127
22, 440327, Note_off_c, 14, 74, 0
22, 440327, Note_off_c, 14, 78, 0
22, 440327, Note_off_c, 14, 81, 0
22, 440384, Note_off_c, 14, 72, 0
22, 440384, Note_off_c, 14, 74, 0
22, 440384, Note_off_c, 14, 78, 0
22, 440384, Note_off_c, 14, 81, 0
22, 440448, Note_on_c, 14, 72, 125
22, 440448, Note_on_c, 14, 74, 125
22, 440448, Note_on_c, 14, 78, 125
22, 440448, Note_on_c, 14, 81, 125
22, 440704, Note_off_c, 14, 72, 0
22, 440704, Note_off_c, 14, 74, 0
22, 440704, Note_off_c, 14, 78, 0
22, 440704, Note_off_c, 14, 81, 0
22, 440704, Note_on_c, 14, 72, 127
22, 440704, Note_on_c, 14, 74, 127
22, 440704, Note_on_c, 14, 78, 127
22, 440704, Note_on_c, 14, 81, 127
22, 440960, Note_off_c, 14, 72, 0
22, 440960, Note_off_c, 14, 74, 0
22, 440960, Note_off_c, 14, 78, 0
22, 440960, Note_off_c, 14, 81, 0
22, 440960, Note_on_c, 14, 69, 111
22, 440960, Note_on_c, 14, 72, 111
22, 440960, Note_on_c, 14, 74, 111
22, 440960, Note_on_c, 14, 78, 111
22, 441216, Note_off_c, 14, 69, 0
22, 441216, Note_off_c, 14, 72, 0
22, 441216, Note_off_c, 14, 74, 0
22, 441216, Note_off_c, 14, 78, 0
22, 441216, Note_on_c, 14, 67, 125
22, 441216, Note_on_c, 14, 72, 125
22, 441216, Note_on_c, 14, 74, 125
22, 441216, Note_on_c, 14, 78, 125
22, 441472, Note_off_c, 14, 67, 0
22, 441472, Note_off_c, 14, 72, 0
22, 441472, Note_off_c, 14, 74, 0
22, 441472, Note_off_c, 14, 78, 0
22, 441472, Note_on_c, 14, 67, 127
22, 441472, Note_on_c, 14, 72, 127
22, 441472, Note_on_c, 14, 74, 127
22, 441472, Note_on_c, 14, 78, 127
22, 441728, Note_off_c, 14, 67, 0
22, 441728, Note_off_c, 14, 72, 0
22, 441728, Note_off_c, 14, 74, 0
22, 441728, Note_off_c, 14, 78, 0
22, 441728, Note_on_c, 14, 62, 114
22, 441728, Note_on_c, 14, 68, 114
22, 441728, Note_on_c, 14, 70, 114
22, 441728, Note_on_c, 14, 73, 114
22, 441984, Note_off_c, 14, 62, 0
22, 441984, Note_off_c, 14, 68, 0
22, 441984, Note_off_c, 14, 70, 0
22, 441984, Note_off_c, 14, 73, 0
22, 441984, Note_on_c, 14, 61, 114
22, 441984, Note_on_c, 14, 62, 114
22, 441984, Note_on_c, 14, 68, 114
22, 441984, Note_on_c, 14, 70, 114
22, 442240, Note_off_c, 14, 61, 0
22, 442240, Note_off_c, 14, 62, 0
22, 442240, Note_off_c, 14, 68, 0
22, 442240, Note_off_c, 14, 70, 0
22, 442240, Note_on_c, 14, 68, 127
22, 442240, Note_on_c, 14, 70, 127
22, 442240, Note_on_c, 14, 73, 127
22, 442368, Note_off_c, 14, 73, 0
22, 442368, Note_on_c, 14, 69, 127
22, 442368, Note_on_c, 14, 73, 127
22, 442368, Note_on_c, 14, 76, 127
22, 442370, Note_off_c, 14, 68, 0
22, 442370, Note_off_c, 14, 70, 0
22, 442489, Note_off_c, 14, 69, 0
22, 442489, Note_off_c, 14, 73, 0
22, 442489, Note_off_c, 14, 76, 0
22, 442496, Note_on_c, 14, 69, 127
22, 442496, Note_on_c, 14, 76, 127
22, 442496, Note_on_c, 14, 78, 127
22, 442496, Note_on_c, 14, 80, 127
22, 442752, Note_off_c, 14, 69, 0
22, 442752, Note_off_c, 14, 76, 0
22, 442752, Note_off_c, 14, 78, 0
22, 442752, Note_off_c, 14, 80, 0
22, 442752, Note_on_c, 14, 67, 127
22, 442752, Note_on_c, 14, 69, 127
22, 442752, Note_on_c, 14, 76, 127
22, 442752, Note_on_c, 14, 81, 127
22, 443008, Note_off_c, 14, 67, 0
22, 443008, Note_off_c, 14, 69, 0
22, 443008, Note_off_c, 14, 76, 0
22, 443008, Note_off_c, 14, 81, 0
22, 443008, Note_on_c, 14, 68, 107
22, 443008, Note_on_c, 14, 70, 107
22, 443008, Note_on_c, 14, 73, 107
22, 443008, Note_on_c, 14, 74, 107
22, 443264, Note_off_c, 14, 68, 0
22, 443264, Note_off_c, 14, 70, 0
22, 443264, Note_off_c, 14, 73, 0
22, 443264, Note_off_c, 14, 74, 0
22, 443264, Note_on_c, 14, 65, 118
22, 443264, Note_on_c, 14, 69, 118
22, 443264, Note_on_c, 14, 72, 118
22, 443392, Note_off_c, 14, 65, 0
22, 443392, Note_off_c, 14, 69, 0
22, 443392, Note_off_c, 14, 72, 0
22, 443392, Note_on_c, 14, 69, 127
22, 443392, Note_on_c, 14, 72, 127
22, 443392, Note_on_c, 14, 74, 127
22, 443392, Note_on_c, 14, 78, 127
22, 443520, Note_off_c, 14, 69, 0
22, 443520, Note_off_c, 14, 72, 0
22, 443520, Note_off_c, 14, 74, 0
22, 443520, Note_off_c, 14, 78, 0
22, 443520, Note_on_c, 14, 72, 127
22, 443520, Note_on_c, 14, 74, 127
22, 443520, Note_on_c, 14, 78, 127
22, 443520, Note_on_c, 14, 81, 127
22, 443776, Note_off_c, 14, 72, 0
22, 443776, Note_off_c, 14, 74, 0
22, 443776, Note_off_c, 14, 78, 0
22, 443776, Note_off_c, 14, 81, 0
22, 443776, Note_on_c, 14, 71, 121
22, 443776, Note_on_c, 14, 72, 121
22, 443776, Note_on_c, 14, 74, 121
22, 443776, Note_on_c, 14, 78, 121
22, 444032, Note_off_c, 14, 71, 0
22, 444032, Note_off_c, 14, 72, 0
22, 444032, Note_off_c, 14, 74, 0
22, 444032, Note_off_c, 14, 78, 0
22, 444032, Note_on_c, 14, 72, 127
22, 444032, Note_on_c, 14, 74, 127
22, 444032, Note_on_c, 14, 78, 127
22, 444032, Note_on_c, 14, 81, 127
22, 444288, Note_off_c, 14, 72, 0
22, 444288, Note_off_c, 14, 74, 0
22, 444288, Note_off_c, 14, 78, 0
22, 444288, Note_off_c, 14, 81, 0
22, 444288, Note_on_c, 14, 63, 95
22, 444288, Note_on_c, 14, 66, 95
22, 444288, Note_on_c, 14, 69, 95
22, 444288, Note_on_c, 14, 70, 95
22, 444544, Note_off_c, 14, 63, 0
22, 444544, Note_off_c, 14, 66, 0
22, 444544, Note_off_c, 14, 69, 0
22, 444544, Note_off_c, 14, 70, 0
22, 444544, Note_on_c, 14, 69, 127
22, 444544, Note_on_c, 14, 72, 127
22, 444544, Note_on_c, 14, 74, 127
22, 444544, Note_on_c, 14, 78, 127
22, 444672, Note_off_c, 14, 69, 0
22, 444672, Note_off_c, 14, 72, 0
22, 444672, Note_on_c, 14, 64, 110
22, 444672, Note_on_c, 14, 68, 110
22, 444672, Note_on_c, 14, 69, 110
22, 444672, Note_on_c, 14, 72, 110
22, 444674, Note_off_c, 14, 74, 0
22, 444674, Note_off_c, 14, 78, 0
22, 444915, Note_off_c, 14, 64, 0
22, 444915, Note_off_c, 14, 68, 0
22, 444915, Note_off_c, 14, 69, 0
22, 444915, Note_off_c, 14, 72, 0
22, 444928, Note_on_c, 14, 62, 127
22, 444928, Note_on_c, 14, 68, 127
22, 444928, Note_on_c, 14, 70, 127
22, 444928, Note_on_c, 14, 73, 127
22, 445184, Note_off_c, 14, 62, 0
22, 445184, Note_off_c, 14, 68, 0
22, 445184, Note_off_c, 14, 70, 0
22, 445184, Note_off_c, 14, 73, 0
22, 445184, Note_on_c, 14, 59, 114
22, 445184, Note_on_c, 14, 61, 114
22, 445184, Note_on_c, 14, 66, 114
22, 445184, Note_on_c, 14, 69, 114
22, 445440, Note_off_c, 14, 59, 0
22, 445440, Note_off_c, 14, 61, 0
22, 445440, Note_off_c, 14, 66, 0
22, 445440, Note_off_c, 14, 69, 0
22, 445440, Note_on_c, 14, 62, 127
22, 445440, Note_on_c, 14, 64, 127
22, 445440, Note_on_c, 14, 69, 127
22, 445440, Note_on_c, 14, 71, 127
22, 445824, Note_off_c, 14, 62, 0
22, 445824, Note_off_c, 14, 64, 0
22, 445824, Note_off_c, 14, 69, 0
22, 445824, Note_off_c, 14, 71, 0
22, 445824, Note_on_c, 14, 69, 127
22, 445824, Note_on_c, 14, 73, 127
22, 445824, Note_on_c, 14, 76, 127
22, 445824, Note_on_c, 14, 81, 127
22, 446080, Note_off_c, 14, 69, 0
22, 446080, Note_off_c, 14, 73, 0
22, 446080, Note_off_c, 14, 76, 0
22, 446080, Note_off_c, 14, 81, 0
22, 446080, Note_on_c, 14, 69, 127
22, 446080, Note_on_c, 14, 73, 127
22, 446080, Note_on_c, 14, 76, 127
22, 446080, Note_on_c, 14, 81, 127
22, 446336, Note_off_c, 14, 69, 0
22, 446336, Note_off_c, 14, 73, 0
22, 446336, Note_off_c, 14, 76, 0
22, 446336, Note_off_c, 14, 81, 0
22, 446336, Note_on_c, 14, 67, 127
22, 446336, Note_on_c, 14, 71, 127
22, 446336, Note_on_c, 14, 78, 127
22, 446336, Note_on_c, 14, 81, 127
22, 446720, Note_off_c, 14, 67, 0
22, 446720, Note_off_c, 14, 71, 0
22, 446720, Note_off_c, 14, 78, 0
22, 446720, Note_off_c, 14, 81, 0
22, 446720, Note_on_c, 14, 66, 100
22, 446720, Note_on_c, 14, 70, 100
22, 446720, Note_on_c, 14, 72, 100
22, 446784, Note_off_c, 14, 66, 0
22, 446784, Note_off_c, 14, 70, 0
22, 446784, Note_off_c, 14, 72, 0
22, 446848, Note_on_c, 14, 66, 127
22, 446848, Note_on_c, 14, 70, 127
22, 446848, Note_on_c, 14, 72, 127
22, 447104, Note_off_c, 14, 66, 0
22, 447104, Note_off_c, 14, 70, 0
22, 447104, Note_off_c, 14, 72, 0
22, 447104, Note_on_c, 14, 65, 127
22, 447104, Note_on_c, 14, 69, 127
22, 447104, Note_on_c, 14, 72, 127
22, 447360, Note_off_c, 14, 65, 0
22, 447360, Note_off_c, 14, 69, 0
22, 447360, Note_off_c, 14, 72, 0
22, 447360, Note_on_c, 14, 69, 127
22, 447360, Note_on_c, 14, 73, 127
22, 447360, Note_on_c, 14, 75, 127
22, 447616, Note_off_c, 14, 69, 0
22, 447616, Note_off_c, 14, 73, 0
22, 447616, Note_off_c, 14, 75, 0
22, 447616, Note_on_c, 14, 69, 127
22, 447616, Note_on_c, 14, 73, 127
22, 447616, Note_on_c, 14, 75, 127
22, 447872, Note_off_c, 14, 69, 0
22, 447872, Note_off_c, 14, 73, 0
22, 447872, Note_off_c, 14, 75, 0
22, 447872, Note_on_c, 14, 67, 119
22, 447872, Note_on_c, 14, 71, 119
22, 447872, Note_on_c, 14, 73, 119
22, 448128, Note_off_c, 14, 67, 0
22, 448128, Note_off_c, 14, 71, 0
22, 448128, Note_off_c, 14, 73, 0
22, 448128, Note_on_c, 14, 67, 123
22, 448128, Note_on_c, 14, 71, 123
22, 448128, Note_on_c, 14, 73, 123
22, 448256, Note_on_c, 14, 66, 114
22, 448256, Note_on_c, 14, 68, 114
22, 448256, Note_on_c, 14, 72, 114
22, 448258, Note_off_c, 14, 67, 0
22, 448258, Note_off_c, 14, 71, 0
22, 448258, Note_off_c, 14, 73, 0
22, 448499, Note_off_c, 14, 66, 0
22, 448499, Note_off_c, 14, 68, 0
22, 448499, Note_off_c, 14, 72, 0
22, 448512, Note_on_c, 14, 66, 127
22, 448512, Note_on_c, 14, 68, 127
22, 448512, Note_on_c, 14, 73, 127
22, 448768, Note_off_c, 14, 66, 0
22, 448768, Note_off_c, 14, 68, 0
22, 448768, Note_off_c, 14, 73, 0
22, 448768, Note_on_c, 14, 65, 127
22, 448768, Note_on_c, 14, 72, 127
22, 448768, Note_on_c, 14, 74, 127
22, 448896, Note_off_c, 14, 65, 0
22, 448896, Note_off_c, 14, 72, 0
22, 448896, Note_off_c, 14, 74, 0
22, 448896, Note_on_c, 14, 68, 127
22, 448896, Note_on_c, 14, 74, 127
22, 448896, Note_on_c, 14, 76, 127
22, 449152, Note_off_c, 14, 68, 0
22, 449152, Note_off_c, 14, 74, 0
22, 449152, Note_off_c, 14, 76, 0
22, 449152, Note_on_c, 14, 64, 127
22, 449152, Note_on_c, 14, 73, 127
22, 449152, Note_on_c, 14, 81, 127
22, 449408, Note_off_c, 14, 64, 0
22, 449408, Note_off_c, 14, 73, 0
22, 449408, Note_off_c, 14, 81, 0
22, 449408, Note_on_c, 14, 69, 110
22, 449408, Note_on_c, 14, 73, 110
22, 449408, Note_on_c, 14, 76, 110
22, 449536, Note_off_c, 14, 69, 0
22, 449536, Note_off_c, 14, 73, 0
22, 449536, Note_off_c, 14, 76, 0
22, 449536, Note_on_c, 14, 69, 119
22, 449536, Note_on_c, 14, 73, 119
22, 449536, Note_on_c, 14, 76, 119
22, 449664, Note_off_c, 14, 69, 0
22, 449664, Note_off_c, 14, 73, 0
22, 449664, Note_off_c, 14, 76, 0
22, 449664, Note_on_c, 14, 70, 127
22, 449664, Note_on_c, 14, 72, 127
22, 449664, Note_on_c, 14, 76, 127
22, 449920, Note_off_c, 14, 70, 0
22, 449920, Note_off_c, 14, 72, 0
22, 449920, Note_off_c, 14, 76, 0
22, 449920, Note_on_c, 14, 67, 111
22, 449920, Note_on_c, 14, 70, 111
22, 449920, Note_on_c, 14, 72, 111
22, 450176, Note_off_c, 14, 67, 0
22, 450176, Note_off_c, 14, 70, 0
22, 450176, Note_off_c, 14, 72, 0
22, 450176, Note_on_c, 14, 69, 127
22, 450176, Note_on_c, 14, 70, 127
22, 450176, Note_on_c, 14, 74, 127
22, 450432, Note_off_c, 14, 69, 0
22, 450432, Note_off_c, 14, 70, 0
22, 450432, Note_off_c, 14, 74, 0
22, 450432, Note_on_c, 14, 63, 127
22, 450432, Note_on_c, 14, 72, 127
22, 450432, Note_on_c, 14, 78, 127
22, 450688, Note_off_c, 14, 63, 0
22, 450688, Note_off_c, 14, 72, 0
22, 450688, Note_off_c, 14, 78, 0
22, 450688, Note_on_c, 14, 64, 111
22, 450688, Note_on_c, 14, 70, 111
22, 450688, Note_on_c, 14, 74, 111
22, 450944, Note_off_c, 14, 64, 0
22, 450944, Note_off_c, 14, 70, 0
22, 450944, Note_off_c, 14, 74, 0
22, 450944, Note_on_c, 14, 69, 127
22, 450944, Note_on_c, 14, 71, 127
22, 450944, Note_on_c, 14, 76, 127
22, 451200, Note_off_c, 14, 69, 0
22, 451200, Note_off_c, 14, 71, 0
22, 451200, Note_off_c, 14, 76, 0
22, 451200, Note_on_c, 14, 64, 117
22, 451200, Note_on_c, 14, 71, 117
22, 451200, Note_on_c, 14, 72, 117
22, 451456, Note_off_c, 14, 64, 0
22, 451456, Note_off_c, 14, 71, 0
22, 451456, Note_off_c, 14, 72, 0
22, 451456, Note_on_c, 14, 71, 127
22, 451456, Note_on_c, 14, 72, 127
22, 451456, Note_on_c, 14, 78, 127
22, 451712, Note_off_c, 14, 71, 0
22, 451712, Note_off_c, 14, 72, 0
22, 451712, Note_off_c, 14, 78, 0
22, 451712, Note_on_c, 14, 71, 127
22, 451712, Note_on_c, 14, 72, 127
22, 451712, Note_on_c, 14, 78, 127
22, 451840, Note_off_c, 14, 71, 0
22, 451840, Note_off_c, 14, 72, 0
22, 451840, Note_off_c, 14, 78, 0
22, 451840, Note_on_c, 14, 69, 115
22, 451840, Note_on_c, 14, 71, 115
22, 451840, Note_on_c, 14, 74, 115
22, 452096, Note_off_c, 14, 69, 0
22, 452096, Note_off_c, 14, 71, 0
22, 452096, Note_off_c, 14, 74, 0
22, 452096, Note_on_c, 14, 67, 127
22, 452096, Note_on_c, 14, 70, 127
22, 452096, Note_on_c, 14, 78, 127
22, 452352, Note_off_c, 14, 67, 0
22, 452352, Note_off_c, 14, 70, 0
22, 452352, Note_off_c, 14, 78, 0
22, 452352, Note_on_c, 14, 67, 114
22, 452352, Note_on_c, 14, 71, 114
22, 452352, Note_on_c, 14, 73, 114
22, 452480, Note_off_c, 14, 67, 0
22, 452480, Note_off_c, 14, 71, 0
22, 452480, Note_off_c, 14, 73, 0
22, 452480, Note_on_c, 14, 69, 127
22, 452480, Note_on_c, 14, 73, 127
22, 452480, Note_on_c, 14, 78, 127
22, 452608, Note_off_c, 14, 69, 0
22, 452608, Note_off_c, 14, 73, 0
22, 452608, Note_off_c, 14, 78, 0
22, 452608, Note_on_c, 14, 71, 127
22, 452608, Note_on_c, 14, 73, 127
22, 452608, Note_on_c, 14, 78, 127
22, 452736, Note_off_c, 14, 71, 0
22, 452736, Note_off_c, 14, 73, 0
22, 452736, Note_off_c, 14, 78, 0
22, 452736, Note_on_c, 14, 69, 117
22, 452736, Note_on_c, 14, 71, 117
22, 452736, Note_on_c, 14, 76, 117
22, 452992, Note_off_c, 14, 69, 0
22, 452992, Note_off_c, 14, 71, 0
22, 452992, Note_off_c, 14, 76, 0
22, 452992, Note_on_c, 14, 67, 127
22, 452992, Note_on_c, 14, 74, 127
22, 452992, Note_on_c, 14, 78, 127
22, 453248, Note_off_c, 14, 67, 0
22, 453248, Note_off_c, 14, 74, 0
22, 453248, Note_off_c, 14, 78, 0
22, 453248, Note_on_c, 14, 69, 124
22, 453248, Note_on_c, 14, 71, 124
22, 453248, Note_on_c, 14, 76, 124
22, 453504, Note_off_c, 14, 69, 0
22, 453504, Note_off_c, 14, 71, 0
22, 453504, Note_off_c, 14, 76, 0
22, 453504, Note_on_c, 14, 69, 109
22, 453504, Note_on_c, 14, 72, 109
22, 453760, Note_off_c, 14, 69, 0
22, 453760, Note_off_c, 14, 72, 0
22, 453760, Note_on_c, 14, 65, 127
22, 453760, Note_on_c, 14, 69, 127
22, 453760, Note_on_c, 14, 72, 127
22, 454016, Note_off_c, 14, 65, 0
22, 454016, Note_off_c, 14, 69, 0
22, 454016, Note_off_c, 14, 72, 0
22, 454016, Note_on_c, 14, 64, 127
22, 454016, Note_on_c, 14, 69, 127
22, 454016, Note_on_c, 14, 72, 127
22, 454272, Note_off_c, 14, 64, 0
22, 454272, Note_off_c, 14, 69, 0
22, 454272, Note_off_c, 14, 72, 0
22, 454272, Note_on_c, 14, 65, 127
22, 454272, Note_on_c, 14, 69, 127
22, 454272, Note_on_c, 14, 74, 127
22, 454528, Note_off_c, 14, 65, 0
22, 454528, Note_off_c, 14, 69, 0
22, 454528, Note_off_c, 14, 74, 0
22, 454528, Note_on_c, 14, 69, 127
22, 454528, Note_on_c, 14, 76, 127
22, 454528, Note_on_c, 14, 78, 127
22, 454656, Note_off_c, 14, 69, 0
22, 454656, Note_off_c, 14, 76, 0
22, 454656, Note_off_c, 14, 78, 0
22, 454656, Note_on_c, 14, 66, 121
22, 454656, Note_on_c, 14, 70, 121
22, 454656, Note_on_c, 14, 74, 121
22, 454784, Note_off_c, 14, 66, 0
22, 454784, Note_off_c, 14, 70, 0
22, 454784, Note_off_c, 14, 74, 0
22, 454784, Note_on_c, 14, 68, 127
22, 454784, Note_on_c, 14, 72, 127
22, 454784, Note_on_c, 14, 78, 127
22, 455040, Note_off_c, 14, 68, 0
22, 455040, Note_off_c, 14, 72, 0
22, 455040, Note_off_c, 14, 78, 0
22, 455040, Note_on_c, 14, 63, 104
22, 455040, Note_on_c, 14, 69, 104
22, 455296, Note_off_c, 14, 63, 0
22, 455296, Note_off_c, 14, 69, 0
22, 455296, Note_on_c, 14, 59, 116
22, 455296, Note_on_c, 14, 65, 116
22, 455296, Note_on_c, 14, 67, 116
22, 455552, Note_off_c, 14, 59, 0
22, 455552, Note_off_c, 14, 65, 0
22, 455552, Note_off_c, 14, 67, 0
22, 455552, Note_on_c, 14, 57, 127
22, 455552, Note_on_c, 14, 62, 127
22, 455552, Note_on_c, 14, 68, 127
22, 455808, Note_off_c, 14, 57, 0
22, 455808, Note_off_c, 14, 62, 0
22, 455808, Note_off_c, 14, 68, 0
22, 455808, Note_on_c, 14, 66, 127
22, 455808, Note_on_c, 14, 69, 127
22, 455808, Note_on_c, 14, 74, 127
22, 456064, Note_off_c, 14, 66, 0
22, 456064, Note_off_c, 14, 69, 0
22, 456064, Note_off_c, 14, 74, 0
22, 456064, Note_on_c, 14, 67, 127
22, 456064, Note_on_c, 14, 71, 127
22, 456064, Note_on_c, 14, 76, 127
22, 456320, Note_off_c, 14, 67, 0
22, 456320, Note_off_c, 14, 71, 0
22, 456320, Note_off_c, 14, 76, 0
22, 456320, Note_on_c, 14, 65, 121
22, 456320, Note_on_c, 14, 69, 121
22, 456320, Note_on_c, 14, 74, 121
22, 456448, Note_off_c, 14, 65, 0
22, 456448, Note_off_c, 14, 69, 0
22, 456448, Note_off_c, 14, 74, 0
22, 456448, Note_on_c, 14, 69, 127
22, 456448, Note_on_c, 14, 76, 127
22, 456448, Note_on_c, 14, 80, 127
22, 456704, Note_off_c, 14, 69, 0
22, 456704, Note_off_c, 14, 76, 0
22, 456704, Note_off_c, 14, 80, 0
22, 456704, Note_on_c, 14, 69, 127
22, 456704, Note_on_c, 14, 76, 127
22, 456704, Note_on_c, 14, 80, 127
22, 456960, Note_off_c, 14, 69, 0
22, 456960, Note_off_c, 14, 76, 0
22, 456960, Note_off_c, 14, 80, 0
22, 456960, Note_on_c, 14, 67, 105
22, 456960, Note_on_c, 14, 71, 105
22, 456960, Note_on_c, 14, 74, 105
22, 457216, Note_off_c, 14, 67, 0
22, 457216, Note_off_c, 14, 71, 0
22, 457216, Note_off_c, 14, 74, 0
22, 457216, Note_on_c, 14, 66, 127
22, 457216, Note_on_c, 14, 73, 127
22, 457216, Note_on_c, 14, 78, 127
22, 457344, Note_off_c, 14, 66, 0
22, 457344, Note_off_c, 14, 73, 0
22, 457344, Note_off_c, 14, 78, 0
22, 457344, Note_on_c, 14, 65, 110
22, 457344, Note_on_c, 14, 69, 110
22, 457344, Note_on_c, 14, 72, 110
22, 457600, Note_off_c, 14, 65, 0
22, 457600, Note_off_c, 14, 69, 0
22, 457600, Note_off_c, 14, 72, 0
22, 457600, Note_on_c, 14, 65, 127
22, 457600, Note_on_c, 14, 69, 127
22, 457600, Note_on_c, 14, 72, 127
22, 457728, Note_off_c, 14, 65, 0
22, 457728, Note_off_c, 14, 69, 0
22, 457728, Note_off_c, 14, 72, 0
22, 457728, Note_on_c, 14, 64, 122
22, 457728, Note_on_c, 14, 71, 122
22, 457728, Note_on_c, 14, 72, 122
22, 457984, Note_off_c, 14, 64, 0
22, 457984, Note_off_c, 14, 71, 0
22, 457984, Note_off_c, 14, 72, 0
22, 457984, Note_on_c, 14, 64, 127
22, 457984, Note_on_c, 14, 72, 127
22, 457984, Note_on_c, 14, 74, 127
22, 458112, Note_off_c, 14, 64, 0
22, 458112, Note_off_c, 14, 72, 0
22, 458112, Note_off_c, 14, 74, 0
22, 458112, Note_on_c, 14, 64, 121
22, 458112, Note_on_c, 14, 71, 121
22, 458112, Note_on_c, 14, 72, 121
22, 458368, Note_off_c, 14, 64, 0
22, 458368, Note_off_c, 14, 71, 0
22, 458368, Note_off_c, 14, 72, 0
22, 458368, Note_on_c, 14, 66, 127
22, 458368, Note_on_c, 14, 72, 127
22, 458368, Note_on_c, 14, 78, 127
22, 458496, Note_off_c, 14, 66, 0
22, 458496, Note_off_c, 14, 72, 0
22, 458496, Note_off_c, 14, 78, 0
22, 458496, Note_on_c, 14, 63, 104
22, 458496, Note_on_c, 14, 69, 104
22, 458496, Note_on_c, 14, 70, 104
22, 458752, Note_off_c, 14, 63, 0
22, 458752, Note_off_c, 14, 69, 0
22, 458752, Note_off_c, 14, 70, 0
22, 458752, Note_on_c, 14, 65, 127
22, 458752, Note_on_c, 14, 69, 127
22, 458752, Note_on_c, 14, 72, 127
22, 458880, Note_off_c, 14, 65, 0
22, 458880, Note_off_c, 14, 69, 0
22, 458880, Note_off_c, 14, 72, 0
22, 458880, Note_on_c, 14, 72, 127
22, 458880, Note_on_c, 14, 74, 127
22, 458880, Note_on_c, 14, 82, 127
22, 459136, Note_off_c, 14, 72, 0
22, 459136, Note_off_c, 14, 74, 0
22, 459136, Note_off_c, 14, 82, 0
22, 459136, Note_on_c, 14, 72, 126
22, 459136, Note_on_c, 14, 74, 126
22, 459136, Note_on_c, 14, 82, 126
22, 459264, Note_off_c, 14, 72, 0
22, 459264, Note_off_c, 14, 74, 0
22, 459264, Note_off_c, 14, 82, 0
22, 459264, Note_on_c, 14, 60, 127
22, 459264, Note_on_c, 14, 74, 127
22, 459264, Note_on_c, 14, 76, 127
22, 459264, Note_on_c, 14, 85, 127
22, 459520, Note_off_c, 14, 60, 0
22, 459520, Note_off_c, 14, 74, 0
22, 459520, Note_off_c, 14, 76, 0
22, 459520, Note_off_c, 14, 85, 0
22, 459520, Note_on_c, 14, 66, 107
22, 459520, Note_on_c, 14, 73, 107
22, 459520, Note_on_c, 14, 78, 107
22, 459584, Note_off_c, 14, 66, 0
22, 459584, Note_off_c, 14, 73, 0
22, 459584, Note_off_c, 14, 78, 0
22, 459584, Note_on_c, 14, 66, 125
22, 459584, Note_on_c, 14, 73, 125
22, 459584, Note_on_c, 14, 78, 125
22, 459648, Note_off_c, 14, 66, 0
22, 459648, Note_off_c, 14, 73, 0
22, 459648, Note_off_c, 14, 78, 0
22, 459648, Note_on_c, 14, 65, 106
22, 459648, Note_on_c, 14, 69, 106
22, 459648, Note_on_c, 14, 72, 106
22, 459712, Note_off_c, 14, 65, 0
22, 459712, Note_off_c, 14, 69, 0
22, 459712, Note_off_c, 14, 72, 0
22, 459712, Note_on_c, 14, 65, 124
22, 459712, Note_on_c, 14, 69, 124
22, 459712, Note_on_c, 14, 72, 124
22, 459776, Note_off_c, 14, 65, 0
22, 459776, Note_off_c, 14, 69, 0
22, 459776, Note_off_c, 14, 72, 0
22, 459776, Note_on_c, 14, 65, 127
22, 459776, Note_on_c, 14, 69, 127
22, 459776, Note_on_c, 14, 72, 127
22, 459827, Note_off_c, 14, 65, 0
22, 459827, Note_off_c, 14, 69, 0
22, 459827, Note_off_c, 14, 72, 0
22, 459840, Note_on_c, 14, 65, 127
22, 459840, Note_on_c, 14, 69, 127
22, 459840, Note_on_c, 14, 72, 127
22, 459891, Note_off_c, 14, 65, 0
22, 459891, Note_off_c, 14, 69, 0
22, 459891, Note_off_c, 14, 72, 0
22, 459904, Note_on_c, 14, 65, 127
22, 459904, Note_on_c, 14, 69, 127
22, 459904, Note_on_c, 14, 72, 127
22, 459955, Note_off_c, 14, 65, 0
22, 459955, Note_off_c, 14, 69, 0
22, 459955, Note_off_c, 14, 72, 0
22, 459968, Note_on_c, 14, 65, 127
22, 459968, Note_on_c, 14, 69, 127
22, 459968, Note_on_c, 14, 72, 127
22, 460019, Note_off_c, 14, 65, 0
22, 460019, Note_off_c, 14, 69, 0
22, 460019, Note_off_c, 14, 72, 0
22, 460032, Note_on_c, 14, 64, 125
22, 460032, Note_on_c, 14, 68, 125
22, 460032, Note_on_c, 14, 72, 125
22, 460083, Note_off_c, 14, 64, 0
22, 460083, Note_off_c, 14, 68, 0
22, 460083, Note_off_c, 14, 72, 0
22, 460096, Note_on_c, 14, 64, 125
22, 460096, Note_on_c, 14, 68, 125
22, 460096, Note_on_c, 14, 72, 125
22, 460147, Note_off_c, 14, 64, 0
22, 460147, Note_off_c, 14, 68, 0
22, 460147, Note_off_c, 14, 72, 0
22, 460160, Note_on_c, 14, 64, 126
22, 460160, Note_on_c, 14, 69, 126
22, 460160, Note_on_c, 14, 72, 126
22, 460211, Note_off_c, 14, 64, 0
22, 460211, Note_off_c, 14, 69, 0
22, 460211, Note_off_c, 14, 72, 0
22, 460224, Note_on_c, 14, 64, 126
22, 460224, Note_on_c, 14, 69, 126
22, 460224, Note_on_c, 14, 72, 126
22, 460275, Note_off_c, 14, 64, 0
22, 460275, Note_off_c, 14, 69, 0
22, 460275, Note_off_c, 14, 72, 0
22, 460288, Note_on_c, 14, 64, 124
22, 460288, Note_on_c, 14, 69, 124
22, 460288, Note_on_c, 14, 72, 124
22, 460339, Note_off_c, 14, 64, 0
22, 460339, Note_off_c, 14, 69, 0
22, 460339, Note_off_c, 14, 72, 0
22, 460352, Note_on_c, 14, 64, 124
22, 460352, Note_on_c, 14, 69, 124
22, 460352, Note_on_c, 14, 72, 124
22, 460403, Note_off_c, 14, 64, 0
22, 460403, Note_off_c, 14, 69, 0
22, 460403, Note_off_c, 14, 72, 0
22, 460416, Note_on_c, 14, 65, 118
22, 460416, Note_on_c, 14, 68, 118
22, 460416, Note_on_c, 14, 70, 118
22, 460467, Note_off_c, 14, 65, 0
22, 460467, Note_off_c, 14, 68, 0
22, 460467, Note_off_c, 14, 70, 0
22, 460480, Note_on_c, 14, 65, 118
22, 460480, Note_on_c, 14, 68, 118
22, 460480, Note_on_c, 14, 70, 118
22, 460531, Note_off_c, 14, 65, 0
22, 460531, Note_off_c, 14, 68, 0
22, 460531, Note_off_c, 14, 70, 0
22, 460544, Note_on_c, 14, 65, 126
22, 460544, Note_on_c, 14, 68, 126
22, 460544, Note_on_c, 14, 70, 126
22, 460620, Note_off_c, 14, 65, 0
22, 460620, Note_off_c, 14, 68, 0
22, 460620, Note_off_c, 14, 70, 0
22, 460640, Note_on_c, 14, 65, 126
22, 460640, Note_on_c, 14, 68, 126
22, 460640, Note_on_c, 14, 70, 126
22, 460716, Note_off_c, 14, 65, 0
22, 460716, Note_off_c, 14, 68, 0
22, 460716, Note_off_c, 14, 70, 0
22, 460736, Note_on_c, 14, 63, 127
22, 460736, Note_on_c, 14, 67, 127
22, 460736, Note_on_c, 14, 71, 127
22, 460800, Note_off_c, 14, 63, 0
22, 460800, Note_off_c, 14, 67, 0
22, 460800, Note_off_c, 14, 71, 0
22, 460800, Note_on_c, 14, 63, 125
22, 460800, Note_on_c, 14, 67, 125
22, 460800, Note_on_c, 14, 71, 125
22, 460851, Note_off_c, 14, 63, 0
22, 460851, Note_off_c, 14, 67, 0
22, 460851, Note_off_c, 14, 71, 0
22, 460864, Note_on_c, 14, 63, 125
22, 460864, Note_on_c, 14, 67, 125
22, 460864, Note_on_c, 14, 71, 125
22, 460915, Note_off_c, 14, 63, 0
22, 460915, Note_off_c, 14, 67, 0
22, 460915, Note_off_c, 14, 71, 0
22, 460928, Note_on_c, 14, 63, 125
22, 460928, Note_on_c, 14, 67, 125
22, 460928, Note_on_c, 14, 71, 125
22, 460979, Note_off_c, 14, 63, 0
22, 460979, Note_off_c, 14, 67, 0
22, 460979, Note_off_c, 14, 71, 0
22, 460992, Note_on_c, 14, 63, 125
22, 460992, Note_on_c, 14, 67, 125
22, 460992, Note_on_c, 14, 71, 125
22, 461043, Note_off_c, 14, 63, 0
22, 461043, Note_off_c, 14, 67, 0
22, 461043, Note_off_c, 14, 71, 0
22, 461056, Note_on_c, 14, 64, 127
22, 461056, Note_on_c, 14, 69, 127
22, 461056, Note_on_c, 14, 74, 127
22, 461107, Note_off_c, 14, 64, 0
22, 461107, Note_off_c, 14, 69, 0
22, 461107, Note_off_c, 14, 74, 0
22, 461120, Note_on_c, 14, 64, 127
22, 461120, Note_on_c, 14, 69, 127
22, 461120, Note_on_c, 14, 74, 127
22, 461171, Note_off_c, 14, 64, 0
22, 461171, Note_off_c, 14, 69, 0
22, 461171, Note_off_c, 14, 74, 0
22, 461184, Note_on_c, 14, 64, 127
22, 461184, Note_on_c, 14, 69, 127
22, 461184, Note_on_c, 14, 74, 127
22, 461235, Note_off_c, 14, 64, 0
22, 461235, Note_off_c, 14, 69, 0
22, 461235, Note_off_c, 14, 74, 0
22, 461248, Note_on_c, 14, 64, 127
22, 461248, Note_on_c, 14, 69, 127
22, 461248, Note_on_c, 14, 74, 127
22, 461299, Note_off_c, 14, 64, 0
22, 461299, Note_off_c, 14, 69, 0
22, 461299, Note_off_c, 14, 74, 0
22, 461312, Note_on_c, 14, 68, 127
22, 461312, Note_on_c, 14, 72, 127
22, 461312, Note_on_c, 14, 78, 127
22, 461363, Note_off_c, 14, 68, 0
22, 461363, Note_off_c, 14, 72, 0
22, 461363, Note_off_c, 14, 78, 0
22, 461376, Note_on_c, 14, 68, 127
22, 461376, Note_on_c, 14, 72, 127
22, 461376, Note_on_c, 14, 78, 127
22, 461427, Note_off_c, 14, 68, 0
22, 461427, Note_off_c, 14, 72, 0
22, 461427, Note_off_c, 14, 78, 0
22, 461440, Note_on_c, 14, 68, 127
22, 461440, Note_on_c, 14, 72, 127
22, 461440, Note_on_c, 14, 78, 127
22, 461491, Note_off_c, 14, 68, 0
22, 461491, Note_off_c, 14, 72, 0
22, 461491, Note_off_c, 14, 78, 0
22, 461504, Note_on_c, 14, 68, 127
22, 461504, Note_on_c, 14, 72, 127
22, 461504, Note_on_c, 14, 78, 127
22, 461555, Note_off_c, 14, 68, 0
22, 461555, Note_off_c, 14, 72, 0
22, 461555, Note_off_c, 14, 78, 0
22, 461568, Note_on_c, 14, 68, 127
22, 461568, Note_on_c, 14, 72, 127
22, 461568, Note_on_c, 14, 78, 127
22, 461619, Note_off_c, 14, 68, 0
22, 461619, Note_off_c, 14, 72, 0
22, 461619, Note_off_c, 14, 78, 0
22, 461632, Note_on_c, 14, 68, 127
22, 461632, Note_on_c, 14, 72, 127
22, 461632, Note_on_c, 14, 78, 127
22, 461683, Note_off_c, 14, 68, 0
22, 461683, Note_off_c, 14, 72, 0
22, 461683, Note_off_c, 14, 78, 0
22, 461696, Note_on_c, 14, 68, 127
22, 461696, Note_on_c, 14, 72, 127
22, 461696, Note_on_c, 14, 78, 127
22, 461747, Note_off_c, 14, 68, 0
22, 461747, Note_off_c, 14, 72, 0
22, 461747, Note_off_c, 14, 78, 0
22, 461760, Note_on_c, 14, 68, 127
22, 461760, Note_on_c, 14, 72, 127
22, 461760, Note_on_c, 14, 78, 127
22, 461811, Note_off_c, 14, 68, 0
22, 461811, Note_off_c, 14, 72, 0
22, 461811, Note_off_c, 14, 78, 0
22, 461824, Note_on_c, 14, 68, 117
22, 461824, Note_on_c, 14, 72, 117
22, 461824, Note_on_c, 14, 75, 117
22, 461875, Note_off_c, 14, 68, 0
22, 461875, Note_off_c, 14, 72, 0
22, 461875, Note_off_c, 14, 75, 0
22, 461888, Note_on_c, 14, 68, 117
22, 461888, Note_on_c, 14, 72, 117
22, 461888, Note_on_c, 14, 75, 117
22, 461939, Note_off_c, 14, 68, 0
22, 461939, Note_off_c, 14, 72, 0
22, 461939, Note_off_c, 14, 75, 0
22, 461952, Note_on_c, 14, 68, 117
22, 461952, Note_on_c, 14, 72, 117
22, 461952, Note_on_c, 14, 75, 117
22, 462003, Note_off_c, 14, 68, 0
22, 462003, Note_off_c, 14, 72, 0
22, 462003, Note_off_c, 14, 75, 0
22, 462016, Note_on_c, 14, 68, 117
22, 462016, Note_on_c, 14, 72, 117
22, 462016, Note_on_c, 14, 75, 117
22, 462067, Note_off_c, 14, 68, 0
22, 462067, Note_off_c, 14, 72, 0
22, 462067, Note_off_c, 14, 75, 0
22, 462336, Note_on_c, 14, 68, 118
22, 462336, Note_on_c, 14, 72, 118
22, 462336, Note_on_c, 14, 78, 118
22, 462387, Note_off_c, 14, 68, 0
22, 462387, Note_off_c, 14, 72, 0
22, 462387, Note_off_c, 14, 78, 0
22, 462400, Note_on_c, 14, 68, 118
22, 462400, Note_on_c, 14, 72, 118
22, 462400, Note_on_c, 14, 78, 118
22, 462451, Note_off_c, 14, 68, 0
22, 462451, Note_off_c, 14, 72, 0
22, 462451, Note_off_c, 14, 78, 0
22, 462464, Note_on_c, 14, 68, 118
22, 462464, Note_on_c, 14, 72, 118
22, 462464, Note_on_c, 14, 78, 118
22, 462515, Note_off_c, 14, 68, 0
22, 462515, Note_off_c, 14, 72, 0
22, 462515, Note_off_c, 14, 78, 0
22, 462528, Note_on_c, 14, 68, 118
22, 462528, Note_on_c, 14, 72, 118
22, 462528, Note_on_c, 14, 78, 118
22, 462579, Note_off_c, 14, 68, 0
22, 462579, Note_off_c, 14, 72, 0
22, 462579, Note_off_c, 14, 78, 0
22, 462592, Note_on_c, 14, 69, 127
22, 462592, Note_on_c, 14, 73, 127
22, 462592, Note_on_c, 14, 80, 127
22, 462643, Note_off_c, 14, 69, 0
22, 462643, Note_off_c, 14, 73, 0
22, 462643, Note_off_c, 14, 80, 0
22, 462656, Note_on_c, 14, 69, 127
22, 462656, Note_on_c, 14, 73, 127
22, 462656, Note_on_c, 14, 80, 127
22, 462707, Note_off_c, 14, 69, 0
22, 462707, Note_off_c, 14, 73, 0
22, 462707, Note_off_c, 14, 80, 0
22, 462720, Note_on_c, 14, 69, 127
22, 462720, Note_on_c, 14, 73, 127
22, 462720, Note_on_c, 14, 80, 127
22, 462771, Note_off_c, 14, 69, 0
22, 462771, Note_off_c, 14, 73, 0
22, 462771, Note_off_c, 14, 80, 0
22, 462784, Note_on_c, 14, 69, 127
22, 462784, Note_on_c, 14, 73, 127
22, 462784, Note_on_c, 14, 80, 127
22, 462835, Note_off_c, 14, 69, 0
22, 462835, Note_off_c, 14, 73, 0
22, 462835, Note_off_c, 14, 80, 0
22, 462976, Note_on_c, 14, 68, 116
22, 462976, Note_on_c, 14, 72, 116
22, 462976, Note_on_c, 14, 78, 116
22, 463027, Note_off_c, 14, 68, 0
22, 463027, Note_off_c, 14, 72, 0
22, 463027, Note_off_c, 14, 78, 0
22, 463040, Note_on_c, 14, 68, 116
22, 463040, Note_on_c, 14, 72, 116
22, 463040, Note_on_c, 14, 78, 116
22, 463091, Note_off_c, 14, 68, 0
22, 463091, Note_off_c, 14, 72, 0
22, 463091, Note_off_c, 14, 78, 0
22, 463104, Note_on_c, 14, 68, 125
22, 463104, Note_on_c, 14, 72, 125
22, 463104, Note_on_c, 14, 78, 125
22, 463155, Note_off_c, 14, 68, 0
22, 463155, Note_off_c, 14, 72, 0
22, 463155, Note_off_c, 14, 78, 0
22, 463168, Note_on_c, 14, 68, 125
22, 463168, Note_on_c, 14, 72, 125
22, 463168, Note_on_c, 14, 78, 125
22, 463219, Note_off_c, 14, 68, 0
22, 463219, Note_off_c, 14, 72, 0
22, 463219, Note_off_c, 14, 78, 0
22, 463232, Note_on_c, 14, 69, 127
22, 463232, Note_on_c, 14, 73, 127
22, 463232, Note_on_c, 14, 80, 127
22, 463283, Note_off_c, 14, 69, 0
22, 463283, Note_off_c, 14, 73, 0
22, 463283, Note_off_c, 14, 80, 0
22, 463296, Note_on_c, 14, 69, 127
22, 463296, Note_on_c, 14, 73, 127
22, 463296, Note_on_c, 14, 80, 127
22, 463347, Note_off_c, 14, 69, 0
22, 463347, Note_off_c, 14, 73, 0
22, 463347, Note_off_c, 14, 80, 0
22, 463360, Note_on_c, 14, 69, 127
22, 463360, Note_on_c, 14, 73, 127
22, 463360, Note_on_c, 14, 80, 127
22, 463411, Note_off_c, 14, 69, 0
22, 463411, Note_off_c, 14, 73, 0
22, 463411, Note_off_c, 14, 80, 0
22, 463424, Note_on_c, 14, 69, 127
22, 463424, Note_on_c, 14, 73, 127
22, 463424, Note_on_c, 14, 80, 127
22, 463475, Note_off_c, 14, 69, 0
22, 463475, Note_off_c, 14, 73, 0
22, 463475, Note_off_c, 14, 80, 0
22, 463488, Note_on_c, 14, 69, 127
22, 463488, Note_on_c, 14, 73, 127
22, 463488, Note_on_c, 14, 80, 127
22, 463539, Note_off_c, 14, 69, 0
22, 463539, Note_off_c, 14, 73, 0
22, 463539, Note_off_c, 14, 80, 0
22, 463552, Note_on_c, 14, 69, 127
22, 463552, Note_on_c, 14, 73, 127
22, 463552, Note_on_c, 14, 80, 127
22, 463603, Note_off_c, 14, 69, 0
22, 463603, Note_off_c, 14, 73, 0
22, 463603, Note_off_c, 14, 80, 0
22, 463616, Note_on_c, 14, 69, 127
22, 463616, Note_on_c, 14, 73, 127
22, 463616, Note_on_c, 14, 80, 127
22, 463667, Note_off_c, 14, 69, 0
22, 463667, Note_off_c, 14, 73, 0
22, 463667, Note_off_c, 14, 80, 0
22, 463680, Note_on_c, 14, 69, 127
22, 463680, Note_on_c, 14, 73, 127
22, 463680, Note_on_c, 14, 80, 127
22, 463731, Note_off_c, 14, 69, 0
22, 463731, Note_off_c, 14, 73, 0
22, 463731, Note_off_c, 14, 80, 0
22, 463744, Note_on_c, 14, 69, 127
22, 463744, Note_on_c, 14, 73, 127
22, 463744, Note_on_c, 14, 80, 127
22, 463795, Note_off_c, 14, 69, 0
22, 463795, Note_off_c, 14, 73, 0
22, 463795, Note_off_c, 14, 80, 0
22, 463808, Note_on_c, 14, 69, 127
22, 463808, Note_on_c, 14, 73, 127
22, 463808, Note_on_c, 14, 80, 127
22, 463859, Note_off_c, 14, 69, 0
22, 463859, Note_off_c, 14, 73, 0
22, 463859, Note_off_c, 14, 80, 0
22, 463872, Note_on_c, 14, 69, 127
22, 463872, Note_on_c, 14, 73, 127
22, 463872, Note_on_c, 14, 80, 127
22, 463923, Note_off_c, 14, 69, 0
22, 463923, Note_off_c, 14, 73, 0
22, 463923, Note_off_c, 14, 80, 0
22, 463936, Note_on_c, 14, 69, 127
22, 463936, Note_on_c, 14, 73, 127
22, 463936, Note_on_c, 14, 80, 127
22, 463987, Note_off_c, 14, 69, 0
22, 463987, Note_off_c, 14, 73, 0
22, 463987, Note_off_c, 14, 80, 0
22, 464128, Note_on_c, 14, 69, 111
22, 464128, Note_on_c, 14, 73, 111
22, 464128, Note_on_c, 14, 80, 111
22, 464179, Note_off_c, 14, 69, 0
22, 464179, Note_off_c, 14, 73, 0
22, 464179, Note_off_c, 14, 80, 0
22, 464192, Note_on_c, 14, 69, 111
22, 464192, Note_on_c, 14, 73, 111
22, 464192, Note_on_c, 14, 80, 111
22, 464243, Note_off_c, 14, 69, 0
22, 464243, Note_off_c, 14, 73, 0
22, 464243, Note_off_c, 14, 80, 0
22, 464384, Note_on_c, 14, 69, 113
22, 464384, Note_on_c, 14, 73, 113
22, 464384, Note_on_c, 14, 80, 113
22, 464435, Note_off_c, 14, 69, 0
22, 464435, Note_off_c, 14, 73, 0
22, 464435, Note_off_c, 14, 80, 0
22, 464448, Note_on_c, 14, 69, 113
22, 464448, Note_on_c, 14, 73, 113
22, 464448, Note_on_c, 14, 80, 113
22, 464499, Note_off_c, 14, 69, 0
22, 464499, Note_off_c, 14, 73, 0
22, 464499, Note_off_c, 14, 80, 0
22, 464768, Note_on_c, 14, 69, 111
22, 464768, Note_on_c, 14, 73, 111
22, 464768, Note_on_c, 14, 80, 111
22, 464819, Note_off_c, 14, 69, 0
22, 464819, Note_off_c, 14, 73, 0
22, 464819, Note_off_c, 14, 80, 0
22, 464832, Note_on_c, 14, 69, 111
22, 464832, Note_on_c, 14, 73, 111
22, 464832, Note_on_c, 14, 80, 111
22, 464883, Note_off_c, 14, 69, 0
22, 464883, Note_off_c, 14, 73, 0
22, 464883, Note_off_c, 14, 80, 0
22, 465024, Note_on_c, 14, 69, 114
22, 465024, Note_on_c, 14, 73, 114
22, 465024, Note_on_c, 14, 80, 114
22, 465075, Note_off_c, 14, 69, 0
22, 465075, Note_off_c, 14, 73, 0
22, 465075, Note_off_c, 14, 80, 0
22, 465088, Note_on_c, 14, 69, 114
22, 465088, Note_on_c, 14, 73, 114
22, 465088, Note_on_c, 14, 80, 114
22, 465139, Note_off_c, 14, 69, 0
22, 465139, Note_off_c, 14, 73, 0
22, 465139, Note_off_c, 14, 80, 0
22, 465152, Note_on_c, 14, 69, 124
22, 465152, Note_on_c, 14, 73, 124
22, 465152, Note_on_c, 14, 80, 124
22, 465203, Note_off_c, 14, 69, 0
22, 465203, Note_off_c, 14, 73, 0
22, 465203, Note_off_c, 14, 80, 0
22, 465216, Note_on_c, 14, 69, 124
22, 465216, Note_on_c, 14, 73, 124
22, 465216, Note_on_c, 14, 80, 124
22, 465267, Note_off_c, 14, 69, 0
22, 465267, Note_off_c, 14, 73, 0
22, 465267, Note_off_c, 14, 80, 0
22, 465280, Note_on_c, 14, 69, 124
22, 465280, Note_on_c, 14, 73, 124
22, 465280, Note_on_c, 14, 80, 124
22, 465331, Note_off_c, 14, 69, 0
22, 465331, Note_off_c, 14, 73, 0
22, 465331, Note_off_c, 14, 80, 0
22, 465344, Note_on_c, 14, 69, 124
22, 465344, Note_on_c, 14, 73, 124
22, 465344, Note_on_c, 14, 80, 124
22, 465395, Note_off_c, 14, 69, 0
22, 465395, Note_off_c, 14, 73, 0
22, 465395, Note_off_c, 14, 80, 0
22, 465408, Note_on_c, 14, 69, 127
22, 465408, Note_on_c, 14, 73, 127
22, 465408, Note_on_c, 14, 80, 127
22, 465459, Note_off_c, 14, 69, 0
22, 465459, Note_off_c, 14, 73, 0
22, 465459, Note_off_c, 14, 80, 0
22, 465472, Note_on_c, 14, 69, 127
22, 465472, Note_on_c, 14, 73, 127
22, 465472, Note_on_c, 14, 80, 127
22, 465523, Note_off_c, 14, 69, 0
22, 465523, Note_off_c, 14, 73, 0
22, 465523, Note_off_c, 14, 80, 0
22, 465536, Note_on_c, 14, 69, 127
22, 465536, Note_on_c, 14, 73, 127
22, 465536, Note_on_c, 14, 80, 127
22, 465587, Note_off_c, 14, 69, 0
22, 465587, Note_off_c, 14, 73, 0
22, 465587, Note_off_c, 14, 80, 0
22, 465600, Note_on_c, 14, 69, 127
22, 465600, Note_on_c, 14, 73, 127
22, 465600, Note_on_c, 14, 80, 127
22, 465651, Note_off_c, 14, 69, 0
22, 465651, Note_off_c, 14, 73, 0
22, 465651, Note_off_c, 14, 80, 0
22, 465664, Note_on_c, 14, 69, 127
22, 465664, Note_on_c, 14, 73, 127
22, 465664, Note_on_c, 14, 80, 127
22, 465715, Note_off_c, 14, 69, 0
22, 465715, Note_off_c, 14, 73, 0
22, 465715, Note_off_c, 14, 80, 0
22, 465728, Note_on_c, 14, 69, 127
22, 465728, Note_on_c, 14, 73, 127
22, 465728, Note_on_c, 14, 80, 127
22, 465779, Note_off_c, 14, 69, 0
22, 465779, Note_off_c, 14, 73, 0
22, 465779, Note_off_c, 14, 80, 0
22, 466176, Note_on_c, 14, 69, 114
22, 466176, Note_on_c, 14, 73, 114
22, 466176, Note_on_c, 14, 80, 114
22, 466227, Note_off_c, 14, 69, 0
22, 466227, Note_off_c, 14, 73, 0
22, 466227, Note_off_c, 14, 80, 0
22, 466240, Note_on_c, 14, 69, 114
22, 466240, Note_on_c, 14, 73, 114
22, 466240, Note_on_c, 14, 80, 114
22, 466291, Note_off_c, 14, 69, 0
22, 466291, Note_off_c, 14, 73, 0
22, 466291, Note_off_c, 14, 80, 0
22, 466304, Note_on_c, 14, 69, 114
22, 466304, Note_on_c, 14, 73, 114
22, 466304, Note_on_c, 14, 80, 114
22, 466355, Note_off_c, 14, 69, 0
22, 466355, Note_off_c, 14, 73, 0
22, 466355, Note_off_c, 14, 80, 0
22, 466368, Note_on_c, 14, 69, 114
22, 466368, Note_on_c, 14, 73, 114
22, 466368, Note_on_c, 14, 80, 114
22, 466419, Note_off_c, 14, 69, 0
22, 466419, Note_off_c, 14, 73, 0
22, 466419, Note_off_c, 14, 80, 0
22, 466432, Note_on_c, 14, 69, 126
22, 466432, Note_on_c, 14, 73, 126
22, 466432, Note_on_c, 14, 80, 126
22, 466483, Note_off_c, 14, 69, 0
22, 466483, Note_off_c, 14, 73, 0
22, 466483, Note_off_c, 14, 80, 0
22, 466496, Note_on_c, 14, 69, 126
22, 466496, Note_on_c, 14, 73, 126
22, 466496, Note_on_c, 14, 80, 126
22, 466547, Note_off_c, 14, 69, 0
22, 466547, Note_off_c, 14, 73, 0
22, 466547, Note_off_c, 14, 80, 0
22, 466560, Note_on_c, 14, 69, 126
22, 466560, Note_on_c, 14, 73, 126
22, 466560, Note_on_c, 14, 80, 126
22, 466611, Note_off_c, 14, 69, 0
22, 466611, Note_off_c, 14, 73, 0
22, 466611, Note_off_c, 14, 80, 0
22, 466624, Note_on_c, 14, 69, 126
22, 466624, Note_on_c, 14, 73, 126
22, 466624, Note_on_c, 14, 80, 126
22, 466675, Note_off_c, 14, 69, 0
22, 466675, Note_off_c, 14, 73, 0
22, 466675, Note_off_c, 14, 80, 0
22, 466688, Note_on_c, 14, 69, 127
22, 466688, Note_on_c, 14, 73, 127
22, 466688, Note_on_c, 14, 80, 127
22, 466739, Note_off_c, 14, 69, 0
22, 466739, Note_off_c, 14, 73, 0
22, 466739, Note_off_c, 14, 80, 0
22, 466752, Note_on_c, 14, 69, 127
22, 466752, Note_on_c, 14, 73, 127
22, 466752, Note_on_c, 14, 80, 127
22, 466803, Note_off_c, 14, 69, 0
22, 466803, Note_off_c, 14, 73, 0
22, 466803, Note_off_c, 14, 80, 0
22, 466816, Note_on_c, 14, 69, 127
22, 466816, Note_on_c, 14, 73, 127
22, 466816, Note_on_c, 14, 80, 127
22, 466867, Note_off_c, 14, 69, 0
22, 466867, Note_off_c, 14, 73, 0
22, 466867, Note_off_c, 14, 80, 0
22, 466880, Note_on_c, 14, 69, 127
22, 466880, Note_on_c, 14, 73, 127
22, 466880, Note_on_c, 14, 80, 127
22, 466931, Note_off_c, 14, 69, 0
22, 466931, Note_off_c, 14, 73, 0
22, 466931, Note_off_c, 14, 80, 0
22, 466944, Note_on_c, 14, 69, 122
22, 466944, Note_on_c, 14, 73, 122
22, 466944, Note_on_c, 14, 80, 122
22, 466995, Note_off_c, 14, 69, 0
22, 466995, Note_off_c, 14, 73, 0
22, 466995, Note_off_c, 14, 80, 0
22, 467008, Note_on_c, 14, 69, 122
22, 467008, Note_on_c, 14, 73, 122
22, 467008, Note_on_c, 14, 80, 122
22, 467059, Note_off_c, 14, 69, 0
22, 467059, Note_off_c, 14, 73, 0
22, 467059, Note_off_c, 14, 80, 0
22, 467072, Note_on_c, 14, 69, 122
22, 467072, Note_on_c, 14, 73, 122
22, 467072, Note_on_c, 14, 80, 122
22, 467123, Note_off_c, 14, 69, 0
22, 467123, Note_off_c, 14, 73, 0
22, 467123, Note_off_c, 14, 80, 0
22, 467136, Note_on_c, 14, 69, 122
22, 467136, Note_on_c, 14, 73, 122
22, 467136, Note_on_c, 14, 80, 122
22, 467187, Note_off_c, 14, 69, 0
22, 467187, Note_off_c, 14, 73, 0
22, 467187, Note_off_c, 14, 80, 0
22, 467200, Note_on_c, 14, 69, 127
22, 467200, Note_on_c, 14, 73, 127
22, 467200, Note_on_c, 14, 80, 127
22, 467251, Note_off_c, 14, 69, 0
22, 467251, Note_off_c, 14, 73, 0
22, 467251, Note_off_c, 14, 80, 0
22, 467264, Note_on_c, 14, 69, 127
22, 467264, Note_on_c, 14, 73, 127
22, 467264, Note_on_c, 14, 80, 127
22, 467315, Note_off_c, 14, 69, 0
22, 467315, Note_off_c, 14, 73, 0
22, 467315, Note_off_c, 14, 80, 0
22, 467328, Note_on_c, 14, 69, 127
22, 467328, Note_on_c, 14, 73, 127
22, 467328, Note_on_c, 14, 80, 127
22, 467379, Note_off_c, 14, 69, 0
22, 467379, Note_off_c, 14, 73, 0
22, 467379, Note_off_c, 14, 80, 0
22, 467392, Note_on_c, 14, 69, 127
22, 467392, Note_on_c, 14, 73, 127
22, 467392, Note_on_c, 14, 80, 127
22, 467443, Note_off_c, 14, 69, 0
22, 467443, Note_off_c, 14, 73, 0
22, 467443, Note_off_c, 14, 80, 0
22, 467456, Note_on_c, 14, 69, 114
22, 467456, Note_on_c, 14, 73, 114
22, 467456, Note_on_c, 14, 80, 114
22, 467507, Note_off_c, 14, 69, 0
22, 467507, Note_off_c, 14, 73, 0
22, 467507, Note_off_c, 14, 80, 0
22, 467520, Note_on_c, 14, 69, 114
22, 467520, Note_on_c, 14, 73, 114
22, 467520, Note_on_c, 14, 80, 114
22, 467571, Note_off_c, 14, 69, 0
22, 467571, Note_off_c, 14, 73, 0
22, 467571, Note_off_c, 14, 80, 0
22, 467584, Note_on_c, 14, 69, 116
22, 467584, Note_on_c, 14, 73, 116
22, 467584, Note_on_c, 14, 80, 116
22, 467635, Note_off_c, 14, 69, 0
22, 467635, Note_off_c, 14, 73, 0
22, 467635, Note_off_c, 14, 80, 0
22, 467648, Note_on_c, 14, 69, 117
22, 467648, Note_on_c, 14, 73, 117
22, 467648, Note_on_c, 14, 80, 117
22, 467699, Note_off_c, 14, 69, 0
22, 467699, Note_off_c, 14, 73, 0
22, 467699, Note_off_c, 14, 80, 0
22, 467712, Note_on_c, 14, 69, 118
22, 467712, Note_on_c, 14, 73, 118
22, 467712, Note_on_c, 14, 80, 118
22, 467763, Note_off_c, 14, 69, 0
22, 467763, Note_off_c, 14, 73, 0
22, 467763, Note_off_c, 14, 80, 0
22, 467776, Note_on_c, 14, 69, 121
22, 467776, Note_on_c, 14, 73, 121
22, 467776, Note_on_c, 14, 80, 121
22, 467827, Note_off_c, 14, 69, 0
22, 467827, Note_off_c, 14, 73, 0
22, 467827, Note_off_c, 14, 80, 0
22, 467840, Note_on_c, 14, 69, 122
22, 467840, Note_on_c, 14, 73, 122
22, 467840, Note_on_c, 14, 80, 122
22, 467891, Note_off_c, 14, 69, 0
22, 467891, Note_off_c, 14, 73, 0
22, 467891, Note_off_c, 14, 80, 0
22, 467904, Note_on_c, 14, 69, 124
22, 467904, Note_on_c, 14, 73, 124
22, 467904, Note_on_c, 14, 80, 124
22, 467955, Note_off_c, 14, 69, 0
22, 467955, Note_off_c, 14, 73, 0
22, 467955, Note_off_c, 14, 80, 0
22, 467968, Note_on_c, 14, 69, 127
22, 467968, Note_on_c, 14, 73, 127
22, 467968, Note_on_c, 14, 80, 127
22, 468019, Note_off_c, 14, 69, 0
22, 468019, Note_off_c, 14, 73, 0
22, 468019, Note_off_c, 14, 80, 0
22, 468032, Note_on_c, 14, 69, 127
22, 468032, Note_on_c, 14, 73, 127
22, 468032, Note_on_c, 14, 80, 127
22, 468083, Note_off_c, 14, 69, 0
22, 468083, Note_off_c, 14, 73, 0
22, 468083, Note_off_c, 14, 80, 0
22, 468096, Note_on_c, 14, 69, 127
22, 468096, Note_on_c, 14, 73, 127
22, 468096, Note_on_c, 14, 80, 127
22, 468147, Note_off_c, 14, 69, 0
22, 468147, Note_off_c, 14, 73, 0
22, 468147, Note_off_c, 14, 80, 0
22, 468160, Note_on_c, 14, 69, 127
22, 468160, Note_on_c, 14, 73, 127
22, 468160, Note_on_c, 14, 80, 127
22, 468211, Note_off_c, 14, 69, 0
22, 468211, Note_off_c, 14, 73, 0
22, 468211, Note_off_c, 14, 80, 0
22, 468212, End_track
23, 0, Start_track
23, 0, Program_c, 13, 48
23, 0, Control_c, 13, 121, 0
23, 0, Control_c, 13, 64, 0
23, 0, Control_c, 13, 91, 72
23, 0, Control_c, 13, 10, 95
23, 0, Control_c, 13, 7, 95
23, 0, Control_c, 13, 121, 0
23, 0, Control_c, 13, 64, 0
23, 0, Control_c, 13, 91, 72
23, 0, Control_c, 13, 10, 95
23, 0, Control_c, 13, 7, 95
23, 0, Title_t, "Double Bass"
23, 9984, Program_c, 15, 45
23, 9984, Control_c, 15, 7, 95
23, 9984, Control_c, 15, 10, 95
23, 9984, Control_c, 15, 91, 72
23, 9984, Note_on_c, 15, 35, 63
23, 9984, Note_on_c, 15, 38, 63
23, 9984, Note_on_c, 15, 42, 63
23, 10240, Note_off_c, 15, 35, 0
23, 10240, Note_off_c, 15, 38, 0
23, 10240, Note_off_c, 15, 42, 0
23, 11008, Note_on_c, 15, 33, 60
23, 11008, Note_on_c, 15, 37, 60
23, 11008, Note_on_c, 15, 40, 60
23, 11008, Note_on_c, 15, 43, 60
23, 11264, Note_off_c, 15, 33, 0
23, 11264, Note_off_c, 15, 37, 0
23, 11264, Note_off_c, 15, 40, 0
23, 11264, Note_off_c, 15, 43, 0
23, 11648, Note_on_c, 15, 35, 65
23, 11648, Note_on_c, 15, 38, 65
23, 11648, Note_on_c, 15, 43, 65
23, 11776, Note_off_c, 15, 35, 0
23, 11776, Note_off_c, 15, 38, 0
23, 11776, Note_off_c, 15, 43, 0
23, 12032, Note_on_c, 15, 33, 66
23, 12032, Note_on_c, 15, 37, 66
23, 12032, Note_on_c, 15, 40, 66
23, 12032, Note_on_c, 15, 43, 66
23, 12288, Note_off_c, 15, 33, 0
23, 12288, Note_off_c, 15, 37, 0
23, 12288, Note_off_c, 15, 40, 0
23, 12288, Note_off_c, 15, 43, 0
23, 12672, Note_on_c, 15, 35, 65
23, 12672, Note_on_c, 15, 38, 65
23, 12672, Note_on_c, 15, 43, 65
23, 12800, Note_off_c, 15, 35, 0
23, 12800, Note_off_c, 15, 38, 0
23, 12800, Note_off_c, 15, 43, 0
23, 12800, Note_on_c, 15, 33, 73
23, 12800, Note_on_c, 15, 37, 73
23, 12800, Note_on_c, 15, 40, 73
23, 12800, Note_on_c, 15, 43, 73
23, 13056, Note_off_c, 15, 33, 0
23, 13056, Note_off_c, 15, 37, 0
23, 13056, Note_off_c, 15, 40, 0
23, 13056, Note_off_c, 15, 43, 0
23, 13056, Note_on_c, 15, 33, 73
23, 13056, Note_on_c, 15, 34, 73
23, 13056, Note_on_c, 15, 38, 73
23, 13056, Note_on_c, 15, 43, 73
23, 13312, Note_off_c, 15, 33, 0
23, 13312, Note_off_c, 15, 34, 0
23, 13312, Note_off_c, 15, 38, 0
23, 13312, Note_off_c, 15, 43, 0
23, 13312, Control_c, 13, 7, 95
23, 13312, Control_c, 13, 10, 95
23, 13312, Control_c, 13, 91, 72
23, 13312, Note_on_c, 13, 31, 77
23, 13312, Note_on_c, 13, 46, 77
23, 13312, Note_on_c, 13, 50, 77
23, 13824, Note_off_c, 13, 31, 0
23, 14080, Note_off_c, 13, 46, 0
23, 14080, Note_off_c, 13, 50, 0
23, 14080, Control_c, 15, 7, 95
23, 14080, Control_c, 15, 10, 95
23, 14080, Control_c, 15, 91, 72
23, 14080, Note_on_c, 15, 33, 68
23, 14080, Note_on_c, 15, 37, 68
23, 14080, Note_on_c, 15, 40, 68
23, 14080, Note_on_c, 15, 43, 68
23, 14336, Note_off_c, 15, 33, 0
23, 14336, Note_off_c, 15, 37, 0
23, 14336, Note_off_c, 15, 40, 0
23, 14336, Note_off_c, 15, 43, 0
23, 14592, Note_on_c, 15, 34, 60
23, 14592, Note_on_c, 15, 38, 60
23, 14592, Note_on_c, 15, 43, 60
23, 14848, Note_off_c, 15, 34, 0
23, 14848, Note_off_c, 15, 38, 0
23, 14848, Note_off_c, 15, 43, 0
23, 15488, Note_on_c, 15, 35, 62
23, 15488, Note_on_c, 15, 39, 62
23, 15488, Note_on_c, 15, 43, 62
23, 15616, Note_off_c, 15, 35, 0
23, 15616, Note_off_c, 15, 39, 0
23, 15616, Note_off_c, 15, 43, 0
23, 16256, Note_on_c, 15, 35, 62
23, 16256, Note_on_c, 15, 39, 62
23, 16256, Note_on_c, 15, 43, 62
23, 16384, Note_off_c, 15, 35, 0
23, 16384, Note_off_c, 15, 39, 0
23, 16384, Note_off_c, 15, 43, 0
23, 16640, Note_on_c, 15, 35, 60
23, 16640, Note_on_c, 15, 38, 60
23, 16640, Note_on_c, 15, 41, 60
23, 16640, Note_on_c, 15, 43, 60
23, 16896, Note_off_c, 15, 35, 0
23, 16896, Note_off_c, 15, 38, 0
23, 16896, Note_off_c, 15, 41, 0
23, 16896, Note_off_c, 15, 43, 0
23, 17152, Note_on_c, 15, 38, 68
23, 17152, Note_on_c, 15, 41, 68
23, 17152, Note_on_c, 15, 43, 68
23, 17152, Note_on_c, 15, 47, 68
23, 17408, Note_off_c, 15, 38, 0
23, 17408, Note_off_c, 15, 41, 0
23, 17408, Note_off_c, 15, 43, 0
23, 17408, Note_off_c, 15, 47, 0
23, 17664, Note_on_c, 15, 35, 63
23, 17664, Note_on_c, 15, 39, 63
23, 17664, Note_on_c, 15, 41, 63
23, 17664, Note_on_c, 15, 43, 63
23, 17920, Note_off_c, 15, 35, 0
23, 17920, Note_off_c, 15, 39, 0
23, 17920, Note_off_c, 15, 41, 0
23, 17920, Note_off_c, 15, 43, 0
23, 18560, Note_on_c, 15, 36, 64
23, 18560, Note_on_c, 15, 39, 64
23, 18560, Note_on_c, 15, 41, 64
23, 18560, Note_on_c, 15, 43, 64
23, 18688, Note_off_c, 15, 36, 0
23, 18688, Note_off_c, 15, 39, 0
23, 18688, Note_off_c, 15, 41, 0
23, 18688, Note_off_c, 15, 43, 0
23, 19200, Note_on_c, 15, 48, 65
23, 19200, Note_on_c, 15, 51, 65
23, 19200, Note_on_c, 15, 54, 65
23, 19200, Note_on_c, 15, 56, 65
23, 19456, Note_off_c, 15, 48, 0
23, 19456, Note_off_c, 15, 51, 0
23, 19456, Note_off_c, 15, 54, 0
23, 19456, Note_off_c, 15, 56, 0
23, 19968, Note_on_c, 15, 49, 64
23, 19968, Note_on_c, 15, 52, 64
23, 19968, Note_on_c, 15, 55, 64
23, 19968, Note_on_c, 15, 57, 64
23, 20224, Note_off_c, 15, 49, 0
23, 20224, Note_off_c, 15, 52, 0
23, 20224, Note_off_c, 15, 55, 0
23, 20224, Note_off_c, 15, 57, 0
23, 20992, Note_on_c, 15, 49, 64
23, 20992, Note_on_c, 15, 52, 64
23, 20992, Note_on_c, 15, 56, 64
23, 20992, Note_on_c, 15, 58, 64
23, 21248, Note_off_c, 15, 49, 0
23, 21248, Note_off_c, 15, 52, 0
23, 21248, Note_off_c, 15, 56, 0
23, 21248, Note_off_c, 15, 58, 0
23, 22016, Note_on_c, 15, 38, 67
23, 22016, Note_on_c, 15, 53, 67
23, 22016, Note_on_c, 15, 56, 67
23, 22016, Note_on_c, 15, 58, 67
23, 22272, Note_off_c, 15, 38, 0
23, 22272, Note_off_c, 15, 53, 0
23, 22272, Note_off_c, 15, 56, 0
23, 22272, Note_off_c, 15, 58, 0
23, 23040, Note_on_c, 15, 50, 64
23, 23040, Note_on_c, 15, 53, 64
23, 23040, Note_on_c, 15, 57, 64
23, 23040, Note_on_c, 15, 59, 64
23, 23296, Note_off_c, 15, 50, 0
23, 23296, Note_off_c, 15, 53, 0
23, 23296, Note_off_c, 15, 57, 0
23, 23296, Note_off_c, 15, 59, 0
23, 24064, Note_on_c, 15, 26, 69
23, 24064, Note_on_c, 15, 42, 69
23, 24064, Note_on_c, 15, 44, 69
23, 24064, Note_on_c, 15, 47, 69
23, 24320, Note_off_c, 15, 26, 0
23, 24320, Note_off_c, 15, 42, 0
23, 24320, Note_off_c, 15, 44, 0
23, 24320, Note_off_c, 15, 47, 0
23, 24960, Note_on_c, 15, 50, 63
23, 24960, Note_on_c, 15, 55, 63
23, 24960, Note_on_c, 15, 58, 63
23, 25088, Note_off_c, 15, 50, 0
23, 25088, Note_off_c, 15, 55, 0
23, 25088, Note_off_c, 15, 58, 0
23, 25984, Note_on_c, 15, 43, 61
23, 25984, Note_on_c, 15, 46, 61
23, 25984, Note_on_c, 15, 50, 61
23, 25984, Note_on_c, 15, 51, 61
23, 26112, Note_off_c, 15, 43, 0
23, 26112, Note_off_c, 15, 46, 0
23, 26112, Note_off_c, 15, 50, 0
23, 26112, Note_off_c, 15, 51, 0
23, 26880, Note_on_c, 15, 43, 64
23, 26880, Note_on_c, 15, 46, 64
23, 26880, Note_on_c, 15, 53, 64
23, 27136, Note_off_c, 15, 43, 0
23, 27136, Note_off_c, 15, 46, 0
23, 27136, Note_off_c, 15, 53, 0
23, 27456, Note_on_c, 15, 34, 62
23, 27584, Note_off_c, 15, 34, 0
23, 27584, Note_on_c, 15, 46, 79
23, 27712, Note_off_c, 15, 46, 0
23, 27712, Note_on_c, 15, 41, 68
23, 27840, Note_off_c, 15, 41, 0
23, 27840, Note_on_c, 15, 31, 62
23, 27968, Note_off_c, 15, 31, 0
23, 27968, Note_on_c, 15, 42, 77
23, 28096, Note_off_c, 15, 42, 0
23, 28096, Note_on_c, 15, 48, 78
23, 28224, Note_off_c, 15, 48, 0
23, 28224, Note_on_c, 15, 33, 58
23, 28352, Note_off_c, 15, 33, 0
23, 28352, Note_on_c, 15, 41, 78
23, 28480, Note_off_c, 15, 41, 0
23, 28480, Note_on_c, 15, 42, 76
23, 28608, Note_off_c, 15, 42, 0
23, 28608, Note_on_c, 15, 50, 82
23, 28736, Note_off_c, 15, 50, 0
23, 28736, Note_on_c, 15, 33, 62
23, 28864, Note_off_c, 15, 33, 0
23, 28864, Note_on_c, 15, 41, 81
23, 28992, Note_off_c, 15, 41, 0
23, 28992, Note_on_c, 15, 35, 71
23, 29120, Note_off_c, 15, 35, 0
23, 29120, Note_on_c, 15, 39, 75
23, 29248, Note_off_c, 15, 39, 0
23, 29248, Note_on_c, 15, 53, 86
23, 29376, Note_off_c, 15, 53, 0
23, 29376, Note_on_c, 15, 51, 68
23, 29504, Note_off_c, 15, 51, 0
23, 29504, Note_on_c, 15, 47, 68
23, 29632, Note_off_c, 15, 47, 0
23, 29632, Note_on_c, 15, 33, 60
23, 29760, Note_off_c, 15, 33, 0
23, 29760, Note_on_c, 15, 43, 78
23, 29888, Note_off_c, 15, 43, 0
23, 29888, Note_on_c, 15, 45, 78
23, 30016, Note_off_c, 15, 45, 0
23, 30016, Note_on_c, 15, 39, 64
23, 30144, Note_off_c, 15, 39, 0
23, 30144, Note_on_c, 15, 35, 67
23, 30272, Note_off_c, 15, 35, 0
23, 30272, Note_on_c, 15, 56, 80
23, 30400, Note_off_c, 15, 56, 0
23, 30400, Note_on_c, 15, 47, 63
23, 30528, Note_off_c, 15, 47, 0
23, 30528, Note_on_c, 15, 51, 77
23, 30656, Note_off_c, 15, 51, 0
23, 30656, Note_on_c, 15, 35, 60
23, 30784, Note_off_c, 15, 35, 0
23, 30784, Note_on_c, 15, 56, 79
23, 30912, Note_off_c, 15, 56, 0
23, 30912, Note_on_c, 15, 51, 67
23, 31040, Note_off_c, 15, 51, 0
23, 31040, Note_on_c, 15, 48, 70
23, 31168, Note_off_c, 15, 48, 0
23, 31168, Note_on_c, 15, 45, 69
23, 31296, Note_off_c, 15, 45, 0
23, 31296, Note_on_c, 15, 45, 71
23, 31424, Note_off_c, 15, 45, 0
23, 31424, Note_on_c, 15, 39, 60
23, 31552, Note_off_c, 15, 39, 0
23, 31552, Note_on_c, 15, 48, 81
23, 31680, Note_off_c, 15, 48, 0
23, 31680, Note_on_c, 15, 33, 58
23, 31808, Note_off_c, 15, 33, 0
23, 31808, Note_on_c, 15, 56, 80
23, 31936, Note_off_c, 15, 56, 0
23, 31936, Note_on_c, 15, 51, 71
23, 32064, Note_off_c, 15, 51, 0
23, 32064, Note_on_c, 15, 36, 66
23, 32192, Note_off_c, 15, 36, 0
23, 32192, Note_on_c, 15, 45, 74
23, 32320, Note_off_c, 15, 45, 0
23, 32320, Note_on_c, 15, 51, 73
23, 32448, Note_off_c, 15, 51, 0
23, 32448, Note_on_c, 15, 45, 68
23, 32576, Note_off_c, 15, 45, 0
23, 32576, Note_on_c, 15, 57, 86
23, 32704, Note_off_c, 15, 57, 0
23, 32704, Note_on_c, 15, 49, 69
23, 32832, Note_off_c, 15, 49, 0
23, 32832, Note_on_c, 15, 51, 72
23, 32960, Note_off_c, 15, 51, 0
23, 32960, Note_on_c, 15, 44, 70
23, 33088, Note_off_c, 15, 44, 0
23, 33088, Note_on_c, 15, 32, 59
23, 33216, Note_off_c, 15, 32, 0
23, 33216, Note_on_c, 15, 45, 82
23, 33344, Note_off_c, 15, 45, 0
23, 33344, Note_on_c, 15, 39, 67
23, 33472, Note_off_c, 15, 39, 0
23, 33472, Note_on_c, 15, 33, 62
23, 33600, Note_off_c, 15, 33, 0
23, 33600, Note_on_c, 15, 50, 76
23, 33728, Note_off_c, 15, 50, 0
23, 33728, Note_on_c, 15, 46, 70
23, 33856, Note_off_c, 15, 46, 0
23, 33856, Note_on_c, 15, 39, 68
23, 33984, Note_off_c, 15, 39, 0
23, 33984, Note_on_c, 15, 37, 74
23, 34112, Note_off_c, 15, 37, 0
23, 34112, Note_on_c, 15, 38, 69
23, 34240, Note_off_c, 15, 38, 0
23, 34240, Note_on_c, 15, 51, 79
23, 34368, Note_off_c, 15, 51, 0
23, 34368, Note_on_c, 15, 48, 69
23, 34496, Note_off_c, 15, 48, 0
23, 34496, Note_on_c, 15, 49, 70
23, 34624, Note_off_c, 15, 49, 0
23, 34624, Note_on_c, 15, 45, 70
23, 34752, Note_off_c, 15, 45, 0
23, 34752, Note_on_c, 15, 39, 63
23, 34880, Note_off_c, 15, 39, 0
23, 34880, Note_on_c, 15, 40, 76
23, 35008, Note_off_c, 15, 40, 0
23, 35008, Note_on_c, 15, 44, 76
23, 35136, Note_off_c, 15, 44, 0
23, 35136, Note_on_c, 15, 37, 63
23, 35264, Note_off_c, 15, 37, 0
23, 35264, Note_on_c, 15, 40, 71
23, 35392, Note_off_c, 15, 40, 0
23, 35392, Note_on_c, 15, 44, 73
23, 35520, Note_off_c, 15, 44, 0
23, 35520, Note_on_c, 15, 44, 72
23, 35648, Note_off_c, 15, 44, 0
23, 35648, Note_on_c, 15, 45, 70
23, 35776, Note_off_c, 15, 45, 0
23, 35776, Note_on_c, 15, 50, 72
23, 35904, Note_off_c, 15, 50, 0
23, 35904, Note_on_c, 15, 44, 65
23, 36032, Note_off_c, 15, 44, 0
23, 36032, Note_on_c, 15, 46, 73
23, 36160, Note_off_c, 15, 46, 0
23, 36160, Note_on_c, 15, 38, 65
23, 36288, Note_off_c, 15, 38, 0
23, 36288, Note_on_c, 15, 41, 74
23, 36416, Note_off_c, 15, 41, 0
23, 36416, Note_on_c, 15, 32, 61
23, 36544, Note_off_c, 15, 32, 0
23, 36544, Note_on_c, 15, 34, 71
23, 36672, Note_off_c, 15, 34, 0
23, 36672, Note_on_c, 15, 35, 72
23, 36800, Note_off_c, 15, 35, 0
23, 36800, Note_on_c, 15, 37, 68
23, 36928, Note_off_c, 15, 37, 0
23, 36928, Note_on_c, 15, 41, 77
23, 37056, Note_off_c, 15, 41, 0
23, 37056, Note_on_c, 15, 43, 72
23, 37184, Note_off_c, 15, 43, 0
23, 37184, Note_on_c, 15, 49, 75
23, 37312, Note_off_c, 15, 49, 0
23, 37312, Note_on_c, 15, 47, 69
23, 37440, Note_off_c, 15, 47, 0
23, 37440, Note_on_c, 15, 41, 66
23, 37568, Note_off_c, 15, 41, 0
23, 37568, Note_on_c, 15, 43, 71
23, 37696, Note_off_c, 15, 43, 0
23, 37696, Note_on_c, 15, 34, 65
23, 37824, Note_off_c, 15, 34, 0
23, 37824, Note_on_c, 15, 38, 74
23, 37952, Note_off_c, 15, 38, 0
23, 37952, Note_on_c, 15, 29, 68
23, 38080, Note_off_c, 15, 29, 0
23, 38080, Note_on_c, 15, 31, 71
23, 38208, Note_off_c, 15, 31, 0
23, 38208, Note_on_c, 15, 46, 83
23, 38336, Note_off_c, 15, 46, 0
23, 38336, Note_on_c, 15, 41, 71
23, 38464, Note_off_c, 15, 41, 0
23, 38464, Note_on_c, 15, 43, 76
23, 38592, Note_off_c, 15, 43, 0
23, 38592, Note_on_c, 15, 46, 72
23, 38720, Note_off_c, 15, 46, 0
23, 38720, Note_on_c, 15, 48, 70
23, 38848, Note_off_c, 15, 48, 0
23, 38848, Note_on_c, 15, 50, 70
23, 38976, Note_off_c, 15, 50, 0
23, 38976, Note_on_c, 15, 41, 61
23, 39104, Note_off_c, 15, 41, 0
23, 39104, Note_on_c, 15, 52, 79
23, 39232, Note_off_c, 15, 52, 0
23, 39232, Note_on_c, 15, 38, 67
23, 39360, Note_off_c, 15, 38, 0
23, 39360, Note_on_c, 15, 34, 65
23, 39488, Note_off_c, 15, 34, 0
23, 39488, Note_on_c, 15, 36, 73
23, 39616, Note_off_c, 15, 36, 0
23, 39616, Note_on_c, 15, 38, 75
23, 39744, Note_off_c, 15, 38, 0
23, 39744, Note_on_c, 15, 41, 78
23, 39872, Note_off_c, 15, 41, 0
23, 39872, Note_on_c, 15, 49, 80
23, 39936, Control_c, 15, 7, 95
23, 39936, Control_c, 15, 10, 95
23, 39936, Control_c, 15, 91, 72
23, 40000, Note_off_c, 15, 49, 0
23, 40000, Note_on_c, 15, 51, 74
23, 40000, Note_on_c, 15, 53, 57
23, 40000, Note_on_c, 15, 56, 57
23, 40000, Note_on_c, 15, 59, 57
23, 40000, Note_on_c, 15, 61, 57
23, 40064, Note_off_c, 15, 53, 0
23, 40064, Note_off_c, 15, 56, 0
23, 40064, Note_off_c, 15, 59, 0
23, 40064, Note_off_c, 15, 61, 0
23, 40128, Note_off_c, 15, 51, 0
23, 40128, Note_on_c, 15, 44, 64
23, 40128, Note_on_c, 15, 53, 53
23, 40128, Note_on_c, 15, 56, 53
23, 40128, Note_on_c, 15, 59, 53
23, 40128, Note_on_c, 15, 61, 53
23, 40192, Note_off_c, 15, 53, 0
23, 40192, Note_off_c, 15, 56, 0
23, 40192, Note_off_c, 15, 59, 0
23, 40192, Note_off_c, 15, 61, 0
23, 40256, Note_off_c, 15, 44, 0
23, 40256, Note_on_c, 15, 46, 70
23, 40256, Note_on_c, 15, 53, 52
23, 40256, Note_on_c, 15, 56, 52
23, 40256, Note_on_c, 15, 59, 52
23, 40256, Note_on_c, 15, 61, 52
23, 40320, Note_off_c, 15, 53, 0
23, 40320, Note_off_c, 15, 56, 0
23, 40320, Note_off_c, 15, 59, 0
23, 40320, Note_off_c, 15, 61, 0
23, 40384, Note_off_c, 15, 46, 0
23, 40384, Note_on_c, 15, 53, 78
23, 40384, Note_on_c, 15, 53, 54
23, 40384, Note_on_c, 15, 56, 54
23, 40384, Note_on_c, 15, 59, 54
23, 40384, Note_on_c, 15, 61, 54
23, 40448, Note_off_c, 15, 53, 0
23, 40448, Note_off_c, 15, 56, 0
23, 40448, Note_off_c, 15, 59, 0
23, 40448, Note_off_c, 15, 61, 0
23, 40512, Note_off_c, 15, 53, 0
23, 40512, Note_on_c, 15, 51, 69
23, 40512, Note_on_c, 15, 53, 53
23, 40512, Note_on_c, 15, 56, 53
23, 40512, Note_on_c, 15, 59, 53
23, 40512, Note_on_c, 15, 61, 53
23, 40576, Note_off_c, 15, 53, 0
23, 40576, Note_off_c, 15, 56, 0
23, 40576, Note_off_c, 15, 59, 0
23, 40576, Note_off_c, 15, 61, 0
23, 40640, Note_off_c, 15, 51, 0
23, 40640, Note_on_c, 15, 50, 69
23, 40640, Note_on_c, 15, 53, 52
23, 40640, Note_on_c, 15, 56, 52
23, 40640, Note_on_c, 15, 60, 52
23, 40640, Note_on_c, 15, 62, 52
23, 40704, Note_off_c, 15, 53, 0
23, 40704, Note_off_c, 15, 56, 0
23, 40704, Note_off_c, 15, 60, 0
23, 40704, Note_off_c, 15, 62, 0
23, 40768, Note_off_c, 15, 50, 0
23, 40768, Note_on_c, 15, 44, 66
23, 40768, Note_on_c, 15, 53, 54
23, 40768, Note_on_c, 15, 56, 54
23, 40768, Note_on_c, 15, 60, 54
23, 40768, Note_on_c, 15, 62, 54
23, 40832, Note_off_c, 15, 53, 0
23, 40832, Note_off_c, 15, 56, 0
23, 40832, Note_off_c, 15, 60, 0
23, 40832, Note_off_c, 15, 62, 0
23, 40896, Note_off_c, 15, 44, 0
23, 40896, Note_on_c, 15, 48, 75
23, 40896, Note_on_c, 15, 53, 54
23, 40896, Note_on_c, 15, 56, 54
23, 40896, Note_on_c, 15, 60, 54
23, 40896, Note_on_c, 15, 62, 54
23, 40960, Note_off_c, 15, 53, 0
23, 40960, Note_off_c, 15, 56, 0
23, 40960, Note_off_c, 15, 60, 0
23, 40960, Note_off_c, 15, 62, 0
23, 41024, Note_off_c, 15, 48, 0
23, 41024, Note_on_c, 15, 39, 61
23, 41024, Note_on_c, 15, 53, 56
23, 41024, Note_on_c, 15, 56, 56
23, 41024, Note_on_c, 15, 60, 56
23, 41024, Note_on_c, 15, 62, 56
23, 41088, Note_off_c, 15, 53, 0
23, 41088, Note_off_c, 15, 56, 0
23, 41088, Note_off_c, 15, 60, 0
23, 41088, Note_off_c, 15, 62, 0
23, 41152, Note_off_c, 15, 39, 0
23, 41152, Note_on_c, 15, 41, 74
23, 41152, Note_on_c, 15, 53, 57
23, 41152, Note_on_c, 15, 56, 57
23, 41152, Note_on_c, 15, 60, 57
23, 41152, Note_on_c, 15, 62, 57
23, 41216, Note_off_c, 15, 53, 0
23, 41216, Note_off_c, 15, 56, 0
23, 41216, Note_off_c, 15, 60, 0
23, 41216, Note_off_c, 15, 62, 0
23, 41280, Note_off_c, 15, 41, 0
23, 41280, Note_on_c, 15, 43, 71
23, 41280, Note_on_c, 15, 53, 53
23, 41280, Note_on_c, 15, 56, 53
23, 41280, Note_on_c, 15, 60, 53
23, 41280, Note_on_c, 15, 62, 53
23, 41344, Note_off_c, 15, 53, 0
23, 41344, Note_off_c, 15, 56, 0
23, 41344, Note_off_c, 15, 60, 0
23, 41344, Note_off_c, 15, 62, 0
23, 41408, Note_off_c, 15, 43, 0
23, 41408, Note_on_c, 15, 46, 73
23, 41408, Note_on_c, 15, 53, 56
23, 41408, Note_on_c, 15, 56, 56
23, 41408, Note_on_c, 15, 60, 56
23, 41408, Note_on_c, 15, 63, 56
23, 41472, Note_off_c, 15, 53, 0
23, 41472, Note_off_c, 15, 56, 0
23, 41472, Note_off_c, 15, 60, 0
23, 41472, Note_off_c, 15, 63, 0
23, 41536, Note_off_c, 15, 46, 0
23, 41536, Note_on_c, 15, 44, 69
23, 41536, Note_on_c, 15, 53, 53
23, 41536, Note_on_c, 15, 56, 53
23, 41536, Note_on_c, 15, 60, 53
23, 41536, Note_on_c, 15, 63, 53
23, 41600, Note_off_c, 15, 53, 0
23, 41600, Note_off_c, 15, 56, 0
23, 41600, Note_off_c, 15, 60, 0
23, 41600, Note_off_c, 15, 63, 0
23, 41664, Note_off_c, 15, 44, 0
23, 41664, Note_on_c, 15, 36, 63
23, 41664, Note_on_c, 15, 53, 56
23, 41664, Note_on_c, 15, 56, 56
23, 41664, Note_on_c, 15, 60, 56
23, 41664, Note_on_c, 15, 63, 56
23, 41728, Note_off_c, 15, 53, 0
23, 41728, Note_off_c, 15, 56, 0
23, 41728, Note_off_c, 15, 60, 0
23, 41728, Note_off_c, 15, 63, 0
23, 41792, Note_off_c, 15, 36, 0
23, 41792, Note_on_c, 15, 39, 75
23, 41792, Note_on_c, 15, 53, 56
23, 41792, Note_on_c, 15, 56, 56
23, 41792, Note_on_c, 15, 60, 56
23, 41792, Note_on_c, 15, 63, 56
23, 41856, Note_off_c, 15, 53, 0
23, 41856, Note_off_c, 15, 56, 0
23, 41856, Note_off_c, 15, 60, 0
23, 41856, Note_off_c, 15, 63, 0
23, 41920, Note_off_c, 15, 39, 0
23, 41920, Note_on_c, 15, 38, 65
23, 41920, Note_on_c, 15, 53, 53
23, 41920, Note_on_c, 15, 56, 53
23, 41920, Note_on_c, 15, 60, 53
23, 41920, Note_on_c, 15, 63, 53
23, 41984, Note_off_c, 15, 53, 0
23, 41984, Note_off_c, 15, 56, 0
23, 41984, Note_off_c, 15, 60, 0
23, 41984, Note_off_c, 15, 63, 0
23, 42048, Note_off_c, 15, 38, 0
23, 42048, Note_on_c, 15, 36, 67
23, 42048, Note_on_c, 15, 53, 52
23, 42048, Note_on_c, 15, 56, 52
23, 42048, Note_on_c, 15, 60, 52
23, 42048, Note_on_c, 15, 63, 52
23, 42112, Note_off_c, 15, 53, 0
23, 42112, Note_off_c, 15, 56, 0
23, 42112, Note_off_c, 15, 60, 0
23, 42112, Note_off_c, 15, 63, 0
23, 42176, Note_off_c, 15, 36, 0
23, 42176, Note_on_c, 15, 34, 69
23, 42176, Note_on_c, 15, 53, 60
23, 42176, Note_on_c, 15, 55, 60
23, 42176, Note_on_c, 15, 58, 60
23, 42176, Note_on_c, 15, 62, 60
23, 42240, Note_off_c, 15, 53, 0
23, 42240, Note_off_c, 15, 55, 0
23, 42240, Note_off_c, 15, 58, 0
23, 42240, Note_off_c, 15, 62, 0
23, 42304, Note_off_c, 15, 34, 0
23, 42304, Note_on_c, 15, 29, 64
23, 42304, Note_on_c, 15, 53, 56
23, 42304, Note_on_c, 15, 55, 56
23, 42304, Note_on_c, 15, 58, 56
23, 42304, Note_on_c, 15, 62, 56
23, 42368, Note_off_c, 15, 53, 0
23, 42368, Note_off_c, 15, 55, 0
23, 42368, Note_off_c, 15, 58, 0
23, 42368, Note_off_c, 15, 62, 0
23, 42432, Note_off_c, 15, 29, 0
23, 42432, Note_on_c, 15, 31, 76
23, 42432, Note_on_c, 15, 53, 56
23, 42432, Note_on_c, 15, 55, 56
23, 42432, Note_on_c, 15, 58, 56
23, 42432, Note_on_c, 15, 62, 56
23, 42496, Note_off_c, 15, 53, 0
23, 42496, Note_off_c, 15, 55, 0
23, 42496, Note_off_c, 15, 58, 0
23, 42496, Note_off_c, 15, 62, 0
23, 42560, Note_off_c, 15, 31, 0
23, 42560, Note_on_c, 15, 33, 73
23, 42560, Note_on_c, 15, 53, 52
23, 42560, Note_on_c, 15, 55, 52
23, 42560, Note_on_c, 15, 58, 52
23, 42560, Note_on_c, 15, 62, 52
23, 42624, Note_off_c, 15, 53, 0
23, 42624, Note_off_c, 15, 55, 0
23, 42624, Note_off_c, 15, 58, 0
23, 42624, Note_off_c, 15, 62, 0
23, 42688, Note_off_c, 15, 33, 0
23, 42688, Note_on_c, 15, 34, 70
23, 42688, Note_on_c, 15, 53, 55
23, 42688, Note_on_c, 15, 55, 55
23, 42688, Note_on_c, 15, 58, 55
23, 42688, Note_on_c, 15, 62, 55
23, 42752, Note_off_c, 15, 53, 0
23, 42752, Note_off_c, 15, 55, 0
23, 42752, Note_off_c, 15, 58, 0
23, 42752, Note_off_c, 15, 62, 0
23, 42816, Note_off_c, 15, 34, 0
23, 42816, Note_on_c, 15, 36, 78
23, 42816, Note_on_c, 15, 53, 55
23, 42816, Note_on_c, 15, 55, 55
23, 42816, Note_on_c, 15, 58, 55
23, 42816, Note_on_c, 15, 62, 55
23, 42880, Note_off_c, 15, 53, 0
23, 42880, Note_off_c, 15, 55, 0
23, 42880, Note_off_c, 15, 58, 0
23, 42880, Note_off_c, 15, 62, 0
23, 42944, Note_off_c, 15, 36, 0
23, 42944, Note_on_c, 15, 41, 72
23, 42944, Note_on_c, 15, 53, 53
23, 42944, Note_on_c, 15, 55, 53
23, 42944, Note_on_c, 15, 58, 53
23, 42944, Note_on_c, 15, 62, 53
23, 43008, Note_off_c, 15, 53, 0
23, 43008, Note_off_c, 15, 55, 0
23, 43008, Note_off_c, 15, 58, 0
23, 43008, Note_off_c, 15, 62, 0
23, 43072, Note_off_c, 15, 41, 0
23, 43072, Note_on_c, 15, 39, 71
23, 43072, Note_on_c, 15, 53, 56
23, 43072, Note_on_c, 15, 55, 56
23, 43072, Note_on_c, 15, 58, 56
23, 43072, Note_on_c, 15, 62, 56
23, 43136, Note_off_c, 15, 53, 0
23, 43136, Note_off_c, 15, 55, 0
23, 43136, Note_off_c, 15, 58, 0
23, 43136, Note_off_c, 15, 62, 0
23, 43200, Note_off_c, 15, 39, 0
23, 43200, Note_on_c, 15, 38, 71
23, 43200, Note_on_c, 15, 53, 59
23, 43200, Note_on_c, 15, 57, 59
23, 43200, Note_on_c, 15, 60, 59
23, 43200, Note_on_c, 15, 64, 59
23, 43264, Note_off_c, 15, 53, 0
23, 43264, Note_off_c, 15, 57, 0
23, 43264, Note_off_c, 15, 60, 0
23, 43264, Note_off_c, 15, 64, 0
23, 43328, Note_off_c, 15, 38, 0
23, 43328, Note_on_c, 15, 29, 61
23, 43328, Note_on_c, 15, 53, 51
23, 43328, Note_on_c, 15, 57, 51
23, 43328, Note_on_c, 15, 60, 51
23, 43328, Note_on_c, 15, 64, 51
23, 43392, Note_off_c, 15, 53, 0
23, 43392, Note_off_c, 15, 57, 0
23, 43392, Note_off_c, 15, 60, 0
23, 43392, Note_off_c, 15, 64, 0
23, 43456, Note_off_c, 15, 29, 0
23, 43456, Note_on_c, 15, 35, 79
23, 43456, Note_on_c, 15, 53, 58
23, 43456, Note_on_c, 15, 57, 58
23, 43456, Note_on_c, 15, 60, 58
23, 43456, Note_on_c, 15, 64, 58
23, 43520, Note_off_c, 15, 53, 0
23, 43520, Note_off_c, 15, 57, 0
23, 43520, Note_off_c, 15, 60, 0
23, 43520, Note_off_c, 15, 64, 0
23, 43584, Note_off_c, 15, 35, 0
23, 43584, Note_on_c, 15, 38, 78
23, 43584, Note_on_c, 15, 53, 54
23, 43584, Note_on_c, 15, 57, 54
23, 43584, Note_on_c, 15, 60, 54
23, 43584, Note_on_c, 15, 64, 54
23, 43648, Note_off_c, 15, 53, 0
23, 43648, Note_off_c, 15, 57, 0
23, 43648, Note_off_c, 15, 60, 0
23, 43648, Note_off_c, 15, 64, 0
23, 43712, Note_off_c, 15, 38, 0
23, 43712, Note_on_c, 15, 39, 74
23, 43712, Note_on_c, 15, 53, 56
23, 43712, Note_on_c, 15, 57, 56
23, 43712, Note_on_c, 15, 60, 56
23, 43712, Note_on_c, 15, 64, 56
23, 43776, Note_off_c, 15, 53, 0
23, 43776, Note_off_c, 15, 57, 0
23, 43776, Note_off_c, 15, 60, 0
23, 43776, Note_off_c, 15, 64, 0
23, 43840, Note_off_c, 15, 39, 0
23, 43840, Note_on_c, 15, 41, 79
23, 43840, Note_on_c, 15, 53, 57
23, 43840, Note_on_c, 15, 57, 57
23, 43840, Note_on_c, 15, 60, 57
23, 43840, Note_on_c, 15, 64, 57
23, 43904, Note_off_c, 15, 53, 0
23, 43904, Note_off_c, 15, 57, 0
23, 43904, Note_off_c, 15, 60, 0
23, 43904, Note_off_c, 15, 64, 0
23, 43968, Note_off_c, 15, 41, 0
23, 43968, Note_on_c, 15, 44, 72
23, 43968, Note_on_c, 15, 53, 58
23, 43968, Note_on_c, 15, 56, 58
23, 43968, Note_on_c, 15, 59, 58
23, 43968, Note_on_c, 15, 63, 58
23, 44032, Note_off_c, 15, 53, 0
23, 44032, Note_off_c, 15, 56, 0
23, 44032, Note_off_c, 15, 59, 0
23, 44032, Note_off_c, 15, 63, 0
23, 44096, Note_off_c, 15, 44, 0
23, 44096, Note_on_c, 15, 46, 75
23, 44096, Note_on_c, 15, 53, 55
23, 44096, Note_on_c, 15, 56, 55
23, 44096, Note_on_c, 15, 59, 55
23, 44096, Note_on_c, 15, 63, 55
23, 44160, Note_off_c, 15, 53, 0
23, 44160, Note_off_c, 15, 56, 0
23, 44160, Note_off_c, 15, 59, 0
23, 44160, Note_off_c, 15, 63, 0
23, 44224, Note_off_c, 15, 46, 0
23, 44224, Note_on_c, 15, 47, 69
23, 44224, Note_on_c, 15, 53, 52
23, 44224, Note_on_c, 15, 56, 52
23, 44224, Note_on_c, 15, 59, 52
23, 44224, Note_on_c, 15, 63, 52
23, 44288, Note_off_c, 15, 53, 0
23, 44288, Note_off_c, 15, 56, 0
23, 44288, Note_off_c, 15, 59, 0
23, 44288, Note_off_c, 15, 63, 0
23, 44352, Note_off_c, 15, 47, 0
23, 44352, Note_on_c, 15, 49, 68
23, 44352, Note_on_c, 15, 53, 54
23, 44352, Note_on_c, 15, 56, 54
23, 44352, Note_on_c, 15, 59, 54
23, 44352, Note_on_c, 15, 63, 54
23, 44416, Note_off_c, 15, 53, 0
23, 44416, Note_off_c, 15, 56, 0
23, 44416, Note_off_c, 15, 59, 0
23, 44416, Note_off_c, 15, 63, 0
23, 44480, Note_off_c, 15, 49, 0
23, 44480, Note_on_c, 15, 51, 70
23, 44480, Note_on_c, 15, 53, 54
23, 44480, Note_on_c, 15, 56, 54
23, 44480, Note_on_c, 15, 59, 54
23, 44480, Note_on_c, 15, 63, 54
23, 44544, Note_off_c, 15, 53, 0
23, 44544, Note_off_c, 15, 56, 0
23, 44544, Note_off_c, 15, 59, 0
23, 44544, Note_off_c, 15, 63, 0
23, 44608, Note_off_c, 15, 51, 0
23, 44608, Note_on_c, 15, 44, 70
23, 44608, Note_on_c, 15, 53, 59
23, 44608, Note_on_c, 15, 56, 59
23, 44608, Note_on_c, 15, 59, 59
23, 44608, Note_on_c, 15, 63, 59
23, 44672, Note_off_c, 15, 53, 0
23, 44672, Note_off_c, 15, 56, 0
23, 44672, Note_off_c, 15, 59, 0
23, 44672, Note_off_c, 15, 63, 0
23, 44736, Note_off_c, 15, 44, 0
23, 44736, Note_on_c, 15, 46, 69
23, 44736, Note_on_c, 15, 53, 51
23, 44736, Note_on_c, 15, 56, 51
23, 44736, Note_on_c, 15, 59, 51
23, 44736, Note_on_c, 15, 63, 51
23, 44800, Note_off_c, 15, 53, 0
23, 44800, Note_off_c, 15, 56, 0
23, 44800, Note_off_c, 15, 59, 0
23, 44800, Note_off_c, 15, 63, 0
23, 44864, Note_off_c, 15, 46, 0
23, 44864, Note_on_c, 15, 43, 70
23, 44864, Note_on_c, 15, 53, 61
23, 44864, Note_on_c, 15, 56, 61
23, 44864, Note_on_c, 15, 59, 61
23, 44864, Note_on_c, 15, 63, 61
23, 44928, Note_off_c, 15, 53, 0
23, 44928, Note_off_c, 15, 56, 0
23, 44928, Note_off_c, 15, 59, 0
23, 44928, Note_off_c, 15, 63, 0
23, 44992, Note_off_c, 15, 43, 0
23, 44992, Note_on_c, 15, 44, 77
23, 44992, Note_on_c, 15, 54, 51
23, 44992, Note_on_c, 15, 60, 51
23, 44992, Note_on_c, 15, 62, 51
23, 44992, Note_on_c, 15, 64, 51
23, 45056, Note_off_c, 15, 54, 0
23, 45056, Note_off_c, 15, 60, 0
23, 45056, Note_off_c, 15, 62, 0
23, 45056, Note_off_c, 15, 64, 0
23, 45120, Note_off_c, 15, 44, 0
23, 45120, Note_on_c, 15, 42, 63
23, 45120, Note_on_c, 15, 54, 59
23, 45120, Note_on_c, 15, 60, 59
23, 45120, Note_on_c, 15, 62, 59
23, 45120, Note_on_c, 15, 64, 59
23, 45184, Note_off_c, 15, 54, 0
23, 45184, Note_off_c, 15, 60, 0
23, 45184, Note_off_c, 15, 62, 0
23, 45184, Note_off_c, 15, 64, 0
23, 45248, Note_off_c, 15, 42, 0
23, 45248, Note_on_c, 15, 40, 70
23, 45248, Note_on_c, 15, 54, 55
23, 45248, Note_on_c, 15, 60, 55
23, 45248, Note_on_c, 15, 62, 55
23, 45248, Note_on_c, 15, 64, 55
23, 45312, Note_off_c, 15, 54, 0
23, 45312, Note_off_c, 15, 60, 0
23, 45312, Note_off_c, 15, 62, 0
23, 45312, Note_off_c, 15, 64, 0
23, 45376, Note_off_c, 15, 40, 0
23, 45376, Note_on_c, 15, 36, 65
23, 45376, Note_on_c, 15, 54, 52
23, 45376, Note_on_c, 15, 60, 52
23, 45376, Note_on_c, 15, 62, 52
23, 45376, Note_on_c, 15, 64, 52
23, 45440, Note_off_c, 15, 54, 0
23, 45440, Note_off_c, 15, 60, 0
23, 45440, Note_off_c, 15, 62, 0
23, 45440, Note_off_c, 15, 64, 0
23, 45504, Note_off_c, 15, 36, 0
23, 45504, Note_on_c, 15, 38, 73
23, 45504, Note_on_c, 15, 54, 54
23, 45504, Note_on_c, 15, 60, 54
23, 45504, Note_on_c, 15, 62, 54
23, 45504, Note_on_c, 15, 64, 54
23, 45568, Note_off_c, 15, 54, 0
23, 45568, Note_off_c, 15, 60, 0
23, 45568, Note_off_c, 15, 62, 0
23, 45568, Note_off_c, 15, 64, 0
23, 45632, Note_off_c, 15, 38, 0
23, 45632, Note_on_c, 15, 40, 73
23, 45632, Note_on_c, 15, 54, 56
23, 45632, Note_on_c, 15, 60, 56
23, 45632, Note_on_c, 15, 62, 56
23, 45632, Note_on_c, 15, 64, 56
23, 45696, Note_off_c, 15, 54, 0
23, 45696, Note_off_c, 15, 60, 0
23, 45696, Note_off_c, 15, 62, 0
23, 45696, Note_off_c, 15, 64, 0
23, 45760, Note_off_c, 15, 40, 0
23, 45760, Note_on_c, 15, 33, 68
23, 45760, Note_on_c, 15, 54, 52
23, 45760, Note_on_c, 15, 60, 52
23, 45760, Note_on_c, 15, 62, 52
23, 45760, Note_on_c, 15, 64, 52
23, 45824, Note_off_c, 15, 54, 0
23, 45824, Note_off_c, 15, 60, 0
23, 45824, Note_off_c, 15, 62, 0
23, 45824, Note_off_c, 15, 64, 0
23, 45888, Note_off_c, 15, 33, 0
23, 45888, Note_on_c, 15, 34, 74
23, 45888, Note_on_c, 15, 54, 55
23, 45888, Note_on_c, 15, 60, 55
23, 45888, Note_on_c, 15, 62, 55
23, 45888, Note_on_c, 15, 64, 55
23, 45952, Note_off_c, 15, 54, 0
23, 45952, Note_off_c, 15, 60, 0
23, 45952, Note_off_c, 15, 62, 0
23, 45952, Note_off_c, 15, 64, 0
23, 46016, Note_off_c, 15, 34, 0
23, 46016, Note_on_c, 15, 36, 74
23, 46016, Note_on_c, 15, 54, 56
23, 46016, Note_on_c, 15, 57, 56
23, 46016, Note_on_c, 15, 60, 56
23, 46016, Note_on_c, 15, 64, 56
23, 46080, Note_off_c, 15, 54, 0
23, 46080, Note_off_c, 15, 57, 0
23, 46080, Note_off_c, 15, 60, 0
23, 46080, Note_off_c, 15, 64, 0
23, 46144, Note_off_c, 15, 36, 0
23, 46144, Note_on_c, 15, 38, 76
23, 46144, Note_on_c, 15, 54, 58
23, 46144, Note_on_c, 15, 57, 58
23, 46144, Note_on_c, 15, 60, 58
23, 46144, Note_on_c, 15, 64, 58
23, 46208, Note_off_c, 15, 54, 0
23, 46208, Note_off_c, 15, 57, 0
23, 46208, Note_off_c, 15, 60, 0
23, 46208, Note_off_c, 15, 64, 0
23, 46272, Note_off_c, 15, 38, 0
23, 46272, Note_on_c, 15, 40, 74
23, 46272, Note_on_c, 15, 54, 57
23, 46272, Note_on_c, 15, 57, 57
23, 46272, Note_on_c, 15, 60, 57
23, 46272, Note_on_c, 15, 64, 57
23, 46336, Note_off_c, 15, 54, 0
23, 46336, Note_off_c, 15, 57, 0
23, 46336, Note_off_c, 15, 60, 0
23, 46336, Note_off_c, 15, 64, 0
23, 46400, Note_off_c, 15, 40, 0
23, 46400, Note_on_c, 15, 28, 58
23, 46400, Note_on_c, 15, 54, 51
23, 46400, Note_on_c, 15, 57, 51
23, 46400, Note_on_c, 15, 60, 51
23, 46400, Note_on_c, 15, 64, 51
23, 46464, Note_off_c, 15, 54, 0
23, 46464, Note_off_c, 15, 57, 0
23, 46464, Note_off_c, 15, 60, 0
23, 46464, Note_off_c, 15, 64, 0
23, 46528, Note_off_c, 15, 28, 0
23, 46528, Note_on_c, 15, 30, 72
23, 46528, Note_on_c, 15, 54, 54
23, 46528, Note_on_c, 15, 57, 54
23, 46528, Note_on_c, 15, 60, 54
23, 46528, Note_on_c, 15, 64, 54
23, 46592, Note_off_c, 15, 54, 0
23, 46592, Note_off_c, 15, 57, 0
23, 46592, Note_off_c, 15, 60, 0
23, 46592, Note_off_c, 15, 64, 0
23, 46656, Note_off_c, 15, 30, 0
23, 46656, Note_on_c, 15, 36, 73
23, 46656, Note_on_c, 15, 54, 59
23, 46656, Note_on_c, 15, 57, 59
23, 46656, Note_on_c, 15, 60, 59
23, 46656, Note_on_c, 15, 64, 59
23, 46720, Note_off_c, 15, 54, 0
23, 46720, Note_off_c, 15, 57, 0
23, 46720, Note_off_c, 15, 60, 0
23, 46720, Note_off_c, 15, 64, 0
23, 46784, Note_off_c, 15, 36, 0
23, 46784, Note_on_c, 15, 33, 67
23, 46784, Note_on_c, 15, 54, 52
23, 46784, Note_on_c, 15, 57, 52
23, 46784, Note_on_c, 15, 60, 52
23, 46784, Note_on_c, 15, 64, 52
23, 46848, Note_off_c, 15, 54, 0
23, 46848, Note_off_c, 15, 57, 0
23, 46848, Note_off_c, 15, 60, 0
23, 46848, Note_off_c, 15, 64, 0
23, 46912, Note_off_c, 15, 33, 0
23, 46912, Note_on_c, 15, 47, 83
23, 46912, Note_on_c, 15, 54, 59
23, 46912, Note_on_c, 15, 57, 59
23, 46912, Note_on_c, 15, 60, 59
23, 46912, Note_on_c, 15, 64, 59
23, 46976, Note_off_c, 15, 54, 0
23, 46976, Note_off_c, 15, 57, 0
23, 46976, Note_off_c, 15, 60, 0
23, 46976, Note_off_c, 15, 64, 0
23, 47040, Note_off_c, 15, 47, 0
23, 47040, Note_on_c, 15, 42, 67
23, 47040, Note_on_c, 15, 54, 54
23, 47040, Note_on_c, 15, 57, 54
23, 47040, Note_on_c, 15, 60, 54
23, 47040, Note_on_c, 15, 64, 54
23, 47104, Note_off_c, 15, 54, 0
23, 47104, Note_off_c, 15, 57, 0
23, 47104, Note_off_c, 15, 60, 0
23, 47104, Note_off_c, 15, 64, 0
23, 47168, Note_off_c, 15, 42, 0
23, 47168, Note_on_c, 15, 45, 75
23, 47168, Note_on_c, 15, 53, 58
23, 47168, Note_on_c, 15, 57, 58
23, 47168, Note_on_c, 15, 59, 58
23, 47168, Note_on_c, 15, 64, 58
23, 47232, Note_off_c, 15, 53, 0
23, 47232, Note_off_c, 15, 57, 0
23, 47232, Note_off_c, 15, 59, 0
23, 47232, Note_off_c, 15, 64, 0
23, 47296, Note_off_c, 15, 45, 0
23, 47296, Note_on_c, 15, 41, 66
23, 47296, Note_on_c, 15, 53, 52
23, 47296, Note_on_c, 15, 57, 52
23, 47296, Note_on_c, 15, 59, 52
23, 47296, Note_on_c, 15, 64, 52
23, 47360, Note_off_c, 15, 53, 0
23, 47360, Note_off_c, 15, 57, 0
23, 47360, Note_off_c, 15, 59, 0
23, 47360, Note_off_c, 15, 64, 0
23, 47424, Note_off_c, 15, 41, 0
23, 47424, Note_on_c, 15, 40, 72
23, 47424, Note_on_c, 15, 53, 61
23, 47424, Note_on_c, 15, 57, 61
23, 47424, Note_on_c, 15, 59, 61
23, 47424, Note_on_c, 15, 64, 61
23, 47488, Note_off_c, 15, 53, 0
23, 47488, Note_off_c, 15, 57, 0
23, 47488, Note_off_c, 15, 59, 0
23, 47488, Note_off_c, 15, 64, 0
23, 47552, Note_off_c, 15, 40, 0
23, 47552, Note_on_c, 15, 33, 65
23, 47552, Note_on_c, 15, 53, 50
23, 47552, Note_on_c, 15, 57, 50
23, 47552, Note_on_c, 15, 59, 50
23, 47552, Note_on_c, 15, 64, 50
23, 47616, Note_off_c, 15, 53, 0
23, 47616, Note_off_c, 15, 57, 0
23, 47616, Note_off_c, 15, 59, 0
23, 47616, Note_off_c, 15, 64, 0
23, 47680, Note_off_c, 15, 33, 0
23, 47680, Note_on_c, 15, 35, 75
23, 47680, Note_on_c, 15, 53, 52
23, 47680, Note_on_c, 15, 57, 52
23, 47680, Note_on_c, 15, 59, 52
23, 47680, Note_on_c, 15, 64, 52
23, 47744, Note_off_c, 15, 53, 0
23, 47744, Note_off_c, 15, 57, 0
23, 47744, Note_off_c, 15, 59, 0
23, 47744, Note_off_c, 15, 64, 0
23, 47808, Note_off_c, 15, 35, 0
23, 47808, Note_on_c, 15, 36, 67
23, 47808, Note_on_c, 15, 53, 56
23, 47808, Note_on_c, 15, 57, 56
23, 47808, Note_on_c, 15, 59, 56
23, 47808, Note_on_c, 15, 64, 56
23, 47872, Note_off_c, 15, 53, 0
23, 47872, Note_off_c, 15, 57, 0
23, 47872, Note_off_c, 15, 59, 0
23, 47872, Note_off_c, 15, 64, 0
23, 47936, Note_off_c, 15, 36, 0
23, 47936, Note_on_c, 15, 38, 78
23, 47936, Note_on_c, 15, 53, 58
23, 47936, Note_on_c, 15, 57, 58
23, 47936, Note_on_c, 15, 59, 58
23, 47936, Note_on_c, 15, 64, 58
23, 48000, Note_off_c, 15, 53, 0
23, 48000, Note_off_c, 15, 57, 0
23, 48000, Note_off_c, 15, 59, 0
23, 48000, Note_off_c, 15, 64, 0
23, 48064, Note_off_c, 15, 38, 0
23, 48064, Note_on_c, 15, 43, 76
23, 48064, Note_on_c, 15, 53, 54
23, 48064, Note_on_c, 15, 57, 54
23, 48064, Note_on_c, 15, 59, 54
23, 48064, Note_on_c, 15, 64, 54
23, 48128, Note_off_c, 15, 53, 0
23, 48128, Note_off_c, 15, 57, 0
23, 48128, Note_off_c, 15, 59, 0
23, 48128, Note_off_c, 15, 64, 0
23, 48192, Note_off_c, 15, 43, 0
23, 48192, Note_on_c, 15, 34, 60
23, 48192, Note_on_c, 15, 54, 55
23, 48192, Note_on_c, 15, 58, 55
23, 48192, Note_on_c, 15, 60, 55
23, 48192, Note_on_c, 15, 65, 55
23, 48256, Note_off_c, 15, 54, 0
23, 48256, Note_off_c, 15, 58, 0
23, 48256, Note_off_c, 15, 60, 0
23, 48256, Note_off_c, 15, 65, 0
23, 48320, Note_off_c, 15, 34, 0
23, 48320, Note_on_c, 15, 36, 73
23, 48320, Note_on_c, 15, 54, 52
23, 48320, Note_on_c, 15, 58, 52
23, 48320, Note_on_c, 15, 60, 52
23, 48320, Note_on_c, 15, 65, 52
23, 48384, Note_off_c, 15, 54, 0
23, 48384, Note_off_c, 15, 58, 0
23, 48384, Note_off_c, 15, 60, 0
23, 48384, Note_off_c, 15, 65, 0
23, 48448, Note_off_c, 15, 36, 0
23, 48448, Note_on_c, 15, 30, 63
23, 48448, Note_on_c, 15, 54, 55
23, 48448, Note_on_c, 15, 58, 55
23, 48448, Note_on_c, 15, 60, 55
23, 48448, Note_on_c, 15, 65, 55
23, 48512, Note_off_c, 15, 54, 0
23, 48512, Note_off_c, 15, 58, 0
23, 48512, Note_off_c, 15, 60, 0
23, 48512, Note_off_c, 15, 65, 0
23, 48576, Note_off_c, 15, 30, 0
23, 48576, Note_on_c, 15, 33, 77
23, 48576, Note_on_c, 15, 54, 58
23, 48576, Note_on_c, 15, 58, 58
23, 48576, Note_on_c, 15, 60, 58
23, 48576, Note_on_c, 15, 65, 58
23, 48640, Note_off_c, 15, 54, 0
23, 48640, Note_off_c, 15, 58, 0
23, 48640, Note_off_c, 15, 60, 0
23, 48640, Note_off_c, 15, 65, 0
23, 48704, Note_off_c, 15, 33, 0
23, 48704, Note_on_c, 15, 34, 71
23, 48704, Note_on_c, 15, 54, 55
23, 48704, Note_on_c, 15, 58, 55
23, 48704, Note_on_c, 15, 60, 55
23, 48704, Note_on_c, 15, 65, 55
23, 48768, Note_off_c, 15, 54, 0
23, 48768, Note_off_c, 15, 58, 0
23, 48768, Note_off_c, 15, 60, 0
23, 48768, Note_off_c, 15, 65, 0
23, 48832, Note_off_c, 15, 34, 0
23, 48832, Note_on_c, 15, 46, 79
23, 48832, Note_on_c, 15, 54, 54
23, 48832, Note_on_c, 15, 58, 54
23, 48832, Note_on_c, 15, 60, 54
23, 48832, Note_on_c, 15, 65, 54
23, 48896, Note_off_c, 15, 54, 0
23, 48896, Note_off_c, 15, 58, 0
23, 48896, Note_off_c, 15, 60, 0
23, 48896, Note_off_c, 15, 65, 0
23, 48960, Note_off_c, 15, 46, 0
23, 48960, Note_on_c, 15, 36, 62
23, 48960, Note_on_c, 15, 54, 54
23, 48960, Note_on_c, 15, 58, 54
23, 48960, Note_on_c, 15, 60, 54
23, 48960, Note_on_c, 15, 65, 54
23, 49024, Note_off_c, 15, 54, 0
23, 49024, Note_off_c, 15, 58, 0
23, 49024, Note_off_c, 15, 60, 0
23, 49024, Note_off_c, 15, 65, 0
23, 49088, Note_off_c, 15, 36, 0
23, 49088, Note_on_c, 15, 41, 74
23, 49088, Note_on_c, 15, 54, 55
23, 49088, Note_on_c, 15, 58, 55
23, 49088, Note_on_c, 15, 60, 55
23, 49088, Note_on_c, 15, 65, 55
23, 49152, Note_off_c, 15, 54, 0
23, 49152, Note_off_c, 15, 58, 0
23, 49152, Note_off_c, 15, 60, 0
23, 49152, Note_off_c, 15, 65, 0
23, 49216, Note_off_c, 15, 41, 0
23, 49216, Note_on_c, 15, 54, 79
23, 49216, Note_on_c, 15, 54, 56
23, 49216, Note_on_c, 15, 58, 56
23, 49216, Note_on_c, 15, 60, 56
23, 49216, Note_on_c, 15, 65, 56
23, 49280, Note_off_c, 15, 54, 0
23, 49280, Note_off_c, 15, 58, 0
23, 49280, Note_off_c, 15, 60, 0
23, 49280, Note_off_c, 15, 65, 0
23, 49344, Note_off_c, 15, 54, 0
23, 49344, Note_on_c, 15, 54, 57
23, 49344, Note_on_c, 15, 58, 57
23, 49344, Note_on_c, 15, 60, 57
23, 49344, Note_on_c, 15, 65, 57
23, 49408, Note_off_c, 15, 54, 0
23, 49408, Note_off_c, 15, 58, 0
23, 49408, Note_off_c, 15, 60, 0
23, 49408, Note_off_c, 15, 65, 0
23, 49472, Note_on_c, 15, 49, 50
23, 49472, Note_on_c, 15, 54, 50
23, 49472, Note_on_c, 15, 57, 50
23, 49472, Note_on_c, 15, 61, 50
23, 49472, Note_on_c, 15, 66, 50
23, 49536, Note_off_c, 15, 49, 0
23, 49536, Note_off_c, 15, 54, 0
23, 49536, Note_off_c, 15, 57, 0
23, 49536, Note_off_c, 15, 61, 0
23, 49536, Note_off_c, 15, 66, 0
23, 49600, Note_on_c, 15, 49, 56
23, 49600, Note_on_c, 15, 54, 56
23, 49600, Note_on_c, 15, 57, 56
23, 49600, Note_on_c, 15, 61, 56
23, 49600, Note_on_c, 15, 66, 56
23, 49664, Note_off_c, 15, 49, 0
23, 49664, Note_off_c, 15, 54, 0
23, 49664, Note_off_c, 15, 57, 0
23, 49664, Note_off_c, 15, 61, 0
23, 49664, Note_off_c, 15, 66, 0
23, 49728, Note_on_c, 15, 49, 54
23, 49728, Note_on_c, 15, 54, 54
23, 49728, Note_on_c, 15, 57, 54
23, 49728, Note_on_c, 15, 61, 54
23, 49728, Note_on_c, 15, 66, 54
23, 49792, Note_off_c, 15, 49, 0
23, 49792, Note_off_c, 15, 54, 0
23, 49792, Note_off_c, 15, 57, 0
23, 49792, Note_off_c, 15, 61, 0
23, 49792, Note_off_c, 15, 66, 0
23, 49856, Note_on_c, 15, 49, 55
23, 49856, Note_on_c, 15, 54, 55
23, 49856, Note_on_c, 15, 57, 55
23, 49856, Note_on_c, 15, 61, 55
23, 49856, Note_on_c, 15, 66, 55
23, 49920, Note_off_c, 15, 49, 0
23, 49920, Note_off_c, 15, 54, 0
23, 49920, Note_off_c, 15, 57, 0
23, 49920, Note_off_c, 15, 61, 0
23, 49920, Note_off_c, 15, 66, 0
23, 49984, Note_on_c, 15, 49, 57
23, 49984, Note_on_c, 15, 54, 57
23, 49984, Note_on_c, 15, 57, 57
23, 49984, Note_on_c, 15, 61, 57
23, 49984, Note_on_c, 15, 66, 57
23, 50048, Note_off_c, 15, 49, 0
23, 50048, Note_off_c, 15, 54, 0
23, 50048, Note_off_c, 15, 57, 0
23, 50048, Note_off_c, 15, 61, 0
23, 50048, Note_off_c, 15, 66, 0
23, 50112, Note_on_c, 15, 49, 53
23, 50112, Note_on_c, 15, 54, 53
23, 50112, Note_on_c, 15, 57, 53
23, 50112, Note_on_c, 15, 61, 53
23, 50112, Note_on_c, 15, 66, 53
23, 50176, Note_off_c, 15, 49, 0
23, 50176, Note_off_c, 15, 54, 0
23, 50176, Note_off_c, 15, 57, 0
23, 50176, Note_off_c, 15, 61, 0
23, 50176, Note_off_c, 15, 66, 0
23, 50240, Note_on_c, 15, 49, 56
23, 50240, Note_on_c, 15, 53, 56
23, 50240, Note_on_c, 15, 57, 56
23, 50240, Note_on_c, 15, 61, 56
23, 50240, Note_on_c, 15, 66, 56
23, 50304, Note_off_c, 15, 49, 0
23, 50304, Note_off_c, 15, 53, 0
23, 50304, Note_off_c, 15, 57, 0
23, 50304, Note_off_c, 15, 61, 0
23, 50304, Note_off_c, 15, 66, 0
23, 50368, Note_on_c, 15, 49, 51
23, 50368, Note_on_c, 15, 53, 51
23, 50368, Note_on_c, 15, 57, 51
23, 50368, Note_on_c, 15, 61, 51
23, 50368, Note_on_c, 15, 66, 51
23, 50432, Note_off_c, 15, 49, 0
23, 50432, Note_off_c, 15, 53, 0
23, 50432, Note_off_c, 15, 57, 0
23, 50432, Note_off_c, 15, 61, 0
23, 50432, Note_off_c, 15, 66, 0
23, 50496, Note_on_c, 15, 49, 56
23, 50496, Note_on_c, 15, 53, 56
23, 50496, Note_on_c, 15, 57, 56
23, 50496, Note_on_c, 15, 61, 56
23, 50496, Note_on_c, 15, 66, 56
23, 50560, Note_off_c, 15, 49, 0
23, 50560, Note_off_c, 15, 53, 0
23, 50560, Note_off_c, 15, 57, 0
23, 50560, Note_off_c, 15, 61, 0
23, 50560, Note_off_c, 15, 66, 0
23, 50624, Note_on_c, 15, 45, 53
23, 50624, Note_on_c, 15, 53, 53
23, 50624, Note_on_c, 15, 58, 53
23, 50624, Note_on_c, 15, 61, 53
23, 50624, Note_on_c, 15, 65, 53
23, 50688, Note_off_c, 15, 45, 0
23, 50688, Note_off_c, 15, 53, 0
23, 50688, Note_off_c, 15, 58, 0
23, 50688, Note_off_c, 15, 61, 0
23, 50688, Note_off_c, 15, 65, 0
23, 50752, Note_on_c, 15, 45, 58
23, 50752, Note_on_c, 15, 53, 58
23, 50752, Note_on_c, 15, 58, 58
23, 50752, Note_on_c, 15, 61, 58
23, 50752, Note_on_c, 15, 65, 58
23, 50816, Note_off_c, 15, 45, 0
23, 50816, Note_off_c, 15, 53, 0
23, 50816, Note_off_c, 15, 58, 0
23, 50816, Note_off_c, 15, 61, 0
23, 50816, Note_off_c, 15, 65, 0
23, 50880, Note_on_c, 15, 45, 51
23, 50880, Note_on_c, 15, 53, 51
23, 50880, Note_on_c, 15, 58, 51
23, 50880, Note_on_c, 15, 61, 51
23, 50880, Note_on_c, 15, 65, 51
23, 50944, Note_off_c, 15, 45, 0
23, 50944, Note_off_c, 15, 53, 0
23, 50944, Note_off_c, 15, 58, 0
23, 50944, Note_off_c, 15, 61, 0
23, 50944, Note_off_c, 15, 65, 0
23, 51008, Note_on_c, 15, 45, 57
23, 51008, Note_on_c, 15, 53, 57
23, 51008, Note_on_c, 15, 58, 57
23, 51008, Note_on_c, 15, 61, 57
23, 51008, Note_on_c, 15, 65, 57
23, 51072, Note_off_c, 15, 45, 0
23, 51072, Note_off_c, 15, 53, 0
23, 51072, Note_off_c, 15, 58, 0
23, 51072, Note_off_c, 15, 61, 0
23, 51072, Note_off_c, 15, 65, 0
23, 51136, Note_on_c, 15, 45, 58
23, 51136, Note_on_c, 15, 53, 58
23, 51136, Note_on_c, 15, 58, 58
23, 51136, Note_on_c, 15, 61, 58
23, 51136, Note_on_c, 15, 65, 58
23, 51200, Note_off_c, 15, 45, 0
23, 51200, Note_off_c, 15, 53, 0
23, 51200, Note_off_c, 15, 58, 0
23, 51200, Note_off_c, 15, 61, 0
23, 51200, Note_off_c, 15, 65, 0
23, 51264, Note_on_c, 15, 45, 53
23, 51264, Note_on_c, 15, 57, 53
23, 51264, Note_on_c, 15, 58, 53
23, 51264, Note_on_c, 15, 65, 53
23, 51328, Note_off_c, 15, 45, 0
23, 51328, Note_off_c, 15, 57, 0
23, 51328, Note_off_c, 15, 58, 0
23, 51328, Note_off_c, 15, 65, 0
23, 51392, Note_on_c, 15, 45, 53
23, 51392, Note_on_c, 15, 57, 53
23, 51392, Note_on_c, 15, 58, 53
23, 51392, Note_on_c, 15, 65, 53
23, 51456, Note_off_c, 15, 45, 0
23, 51456, Note_off_c, 15, 57, 0
23, 51456, Note_off_c, 15, 58, 0
23, 51456, Note_off_c, 15, 65, 0
23, 51520, Note_on_c, 15, 45, 60
23, 51520, Note_on_c, 15, 57, 60
23, 51520, Note_on_c, 15, 58, 60
23, 51520, Note_on_c, 15, 65, 60
23, 51584, Note_off_c, 15, 45, 0
23, 51584, Note_off_c, 15, 57, 0
23, 51584, Note_off_c, 15, 58, 0
23, 51584, Note_off_c, 15, 65, 0
23, 51648, Note_on_c, 15, 45, 56
23, 51648, Note_on_c, 15, 57, 56
23, 51648, Note_on_c, 15, 58, 56
23, 51648, Note_on_c, 15, 65, 56
23, 51712, Note_off_c, 15, 45, 0
23, 51712, Note_off_c, 15, 57, 0
23, 51712, Note_off_c, 15, 58, 0
23, 51712, Note_off_c, 15, 65, 0
23, 51776, Note_on_c, 15, 45, 57
23, 51776, Note_on_c, 15, 57, 57
23, 51776, Note_on_c, 15, 58, 57
23, 51776, Note_on_c, 15, 65, 57
23, 51840, Note_off_c, 15, 45, 0
23, 51840, Note_off_c, 15, 57, 0
23, 51840, Note_off_c, 15, 58, 0
23, 51840, Note_off_c, 15, 65, 0
23, 51904, Note_on_c, 15, 46, 54
23, 51904, Note_on_c, 15, 54, 54
23, 51904, Note_on_c, 15, 57, 54
23, 51904, Note_on_c, 15, 61, 54
23, 51968, Note_off_c, 15, 46, 0
23, 51968, Note_off_c, 15, 54, 0
23, 51968, Note_off_c, 15, 57, 0
23, 51968, Note_off_c, 15, 61, 0
23, 52032, Note_on_c, 15, 46, 55
23, 52032, Note_on_c, 15, 54, 55
23, 52032, Note_on_c, 15, 57, 55
23, 52032, Note_on_c, 15, 61, 55
23, 52096, Note_off_c, 15, 46, 0
23, 52096, Note_off_c, 15, 54, 0
23, 52096, Note_off_c, 15, 57, 0
23, 52096, Note_off_c, 15, 61, 0
23, 52160, Note_on_c, 15, 46, 50
23, 52160, Note_on_c, 15, 54, 50
23, 52160, Note_on_c, 15, 57, 50
23, 52160, Note_on_c, 15, 61, 50
23, 52224, Note_off_c, 15, 46, 0
23, 52224, Note_off_c, 15, 54, 0
23, 52224, Note_off_c, 15, 57, 0
23, 52224, Note_off_c, 15, 61, 0
23, 52288, Note_on_c, 15, 46, 54
23, 52288, Note_on_c, 15, 54, 54
23, 52288, Note_on_c, 15, 57, 54
23, 52288, Note_on_c, 15, 61, 54
23, 52352, Note_off_c, 15, 46, 0
23, 52352, Note_off_c, 15, 54, 0
23, 52352, Note_off_c, 15, 57, 0
23, 52352, Note_off_c, 15, 61, 0
23, 52416, Note_on_c, 15, 46, 58
23, 52416, Note_on_c, 15, 54, 58
23, 52416, Note_on_c, 15, 57, 58
23, 52416, Note_on_c, 15, 61, 58
23, 52480, Note_off_c, 15, 46, 0
23, 52480, Note_off_c, 15, 54, 0
23, 52480, Note_off_c, 15, 57, 0
23, 52480, Note_off_c, 15, 61, 0
23, 52544, Note_on_c, 15, 46, 55
23, 52544, Note_on_c, 15, 54, 55
23, 52544, Note_on_c, 15, 57, 55
23, 52544, Note_on_c, 15, 61, 55
23, 52608, Note_off_c, 15, 46, 0
23, 52608, Note_off_c, 15, 54, 0
23, 52608, Note_off_c, 15, 57, 0
23, 52608, Note_off_c, 15, 61, 0
23, 52672, Note_on_c, 15, 46, 54
23, 52672, Note_on_c, 15, 54, 54
23, 52672, Note_on_c, 15, 57, 54
23, 52672, Note_on_c, 15, 61, 54
23, 52736, Note_off_c, 15, 46, 0
23, 52736, Note_off_c, 15, 54, 0
23, 52736, Note_off_c, 15, 57, 0
23, 52736, Note_off_c, 15, 61, 0
23, 52800, Note_on_c, 15, 46, 52
23, 52800, Note_on_c, 15, 54, 52
23, 52800, Note_on_c, 15, 57, 52
23, 52800, Note_on_c, 15, 61, 52
23, 52864, Note_off_c, 15, 46, 0
23, 52864, Note_off_c, 15, 54, 0
23, 52864, Note_off_c, 15, 57, 0
23, 52864, Note_off_c, 15, 61, 0
23, 52928, Note_on_c, 15, 43, 57
23, 52928, Note_on_c, 15, 50, 57
23, 52928, Note_on_c, 15, 54, 57
23, 52928, Note_on_c, 15, 57, 57
23, 52992, Note_off_c, 15, 43, 0
23, 52992, Note_off_c, 15, 50, 0
23, 52992, Note_off_c, 15, 54, 0
23, 52992, Note_off_c, 15, 57, 0
23, 53056, Note_on_c, 15, 43, 55
23, 53056, Note_on_c, 15, 50, 55
23, 53056, Note_on_c, 15, 54, 55
23, 53056, Note_on_c, 15, 57, 55
23, 53120, Note_off_c, 15, 43, 0
23, 53120, Note_off_c, 15, 50, 0
23, 53120, Note_off_c, 15, 54, 0
23, 53120, Note_off_c, 15, 57, 0
23, 53184, Note_on_c, 15, 43, 53
23, 53184, Note_on_c, 15, 50, 53
23, 53184, Note_on_c, 15, 54, 53
23, 53184, Note_on_c, 15, 57, 53
23, 53248, Note_off_c, 15, 43, 0
23, 53248, Note_off_c, 15, 50, 0
23, 53248, Note_off_c, 15, 54, 0
23, 53248, Note_off_c, 15, 57, 0
23, 53312, Note_on_c, 15, 43, 53
23, 53312, Note_on_c, 15, 50, 53
23, 53312, Note_on_c, 15, 54, 53
23, 53312, Note_on_c, 15, 57, 53
23, 53376, Note_off_c, 15, 43, 0
23, 53376, Note_off_c, 15, 50, 0
23, 53376, Note_off_c, 15, 54, 0
23, 53376, Note_off_c, 15, 57, 0
23, 53440, Note_on_c, 15, 43, 56
23, 53440, Note_on_c, 15, 50, 56
23, 53440, Note_on_c, 15, 54, 56
23, 53440, Note_on_c, 15, 57, 56
23, 53504, Note_off_c, 15, 43, 0
23, 53504, Note_off_c, 15, 50, 0
23, 53504, Note_off_c, 15, 54, 0
23, 53504, Note_off_c, 15, 57, 0
23, 53568, Note_on_c, 15, 43, 53
23, 53568, Note_on_c, 15, 50, 53
23, 53568, Note_on_c, 15, 54, 53
23, 53568, Note_on_c, 15, 57, 53
23, 53632, Note_off_c, 15, 43, 0
23, 53632, Note_off_c, 15, 50, 0
23, 53632, Note_off_c, 15, 54, 0
23, 53632, Note_off_c, 15, 57, 0
23, 53696, Note_on_c, 15, 43, 56
23, 53696, Note_on_c, 15, 50, 56
23, 53696, Note_on_c, 15, 54, 56
23, 53696, Note_on_c, 15, 57, 56
23, 53760, Note_off_c, 15, 43, 0
23, 53760, Note_off_c, 15, 50, 0
23, 53760, Note_off_c, 15, 54, 0
23, 53760, Note_off_c, 15, 57, 0
23, 53824, Note_on_c, 15, 43, 50
23, 53824, Note_on_c, 15, 50, 50
23, 53824, Note_on_c, 15, 54, 50
23, 53824, Note_on_c, 15, 57, 50
23, 53888, Note_off_c, 15, 43, 0
23, 53888, Note_off_c, 15, 50, 0
23, 53888, Note_off_c, 15, 54, 0
23, 53888, Note_off_c, 15, 57, 0
23, 53952, Control_c, 13, 7, 95
23, 53952, Control_c, 13, 10, 95
23, 53952, Control_c, 13, 91, 72
23, 53952, Note_on_c, 13, 36, 63
23, 53952, Note_on_c, 13, 46, 63
23, 53952, Note_on_c, 15, 43, 53
23, 53952, Note_on_c, 15, 50, 53
23, 53952, Note_on_c, 15, 54, 53
23, 53952, Note_on_c, 15, 57, 53
23, 54016, Note_off_c, 15, 43, 0
23, 54016, Note_off_c, 15, 50, 0
23, 54016, Note_off_c, 15, 54, 0
23, 54016, Note_off_c, 15, 57, 0
23, 54080, Note_on_c, 15, 36, 53
23, 54080, Note_on_c, 15, 46, 53
23, 54080, Note_on_c, 15, 50, 53
23, 54080, Note_on_c, 15, 54, 53
23, 54144, Note_off_c, 15, 36, 0
23, 54144, Note_off_c, 15, 46, 0
23, 54144, Note_off_c, 15, 50, 0
23, 54144, Note_off_c, 15, 54, 0
23, 54208, Note_on_c, 15, 36, 57
23, 54208, Note_on_c, 15, 46, 57
23, 54208, Note_on_c, 15, 50, 57
23, 54208, Note_on_c, 15, 54, 57
23, 54272, Note_off_c, 15, 36, 0
23, 54272, Note_off_c, 15, 46, 0
23, 54272, Note_off_c, 15, 50, 0
23, 54272, Note_off_c, 15, 54, 0
23, 54336, Note_on_c, 15, 36, 57
23, 54336, Note_on_c, 15, 46, 57
23, 54336, Note_on_c, 15, 50, 57
23, 54336, Note_on_c, 15, 54, 57
23, 54400, Note_off_c, 15, 36, 0
23, 54400, Note_off_c, 15, 46, 0
23, 54400, Note_off_c, 15, 50, 0
23, 54400, Note_off_c, 15, 54, 0
23, 54464, Note_on_c, 15, 36, 54
23, 54464, Note_on_c, 15, 46, 54
23, 54464, Note_on_c, 15, 50, 54
23, 54464, Note_on_c, 15, 54, 54
23, 54528, Note_off_c, 15, 36, 0
23, 54528, Note_off_c, 15, 46, 0
23, 54528, Note_off_c, 15, 50, 0
23, 54528, Note_off_c, 15, 54, 0
23, 54592, Note_on_c, 15, 36, 57
23, 54592, Note_on_c, 15, 46, 57
23, 54592, Note_on_c, 15, 50, 57
23, 54592, Note_on_c, 15, 54, 57
23, 54656, Note_off_c, 15, 36, 0
23, 54656, Note_off_c, 15, 46, 0
23, 54656, Note_off_c, 15, 50, 0
23, 54656, Note_off_c, 15, 54, 0
23, 54720, Note_on_c, 15, 36, 54
23, 54720, Note_on_c, 15, 46, 54
23, 54720, Note_on_c, 15, 50, 54
23, 54720, Note_on_c, 15, 54, 54
23, 54784, Note_off_c, 15, 36, 0
23, 54784, Note_off_c, 15, 46, 0
23, 54784, Note_off_c, 15, 50, 0
23, 54784, Note_off_c, 15, 54, 0
23, 54848, Note_on_c, 15, 36, 56
23, 54848, Note_on_c, 15, 46, 56
23, 54848, Note_on_c, 15, 50, 56
23, 54848, Note_on_c, 15, 54, 56
23, 54912, Note_off_c, 15, 36, 0
23, 54912, Note_off_c, 15, 46, 0
23, 54912, Note_off_c, 15, 50, 0
23, 54912, Note_off_c, 15, 54, 0
23, 54976, Note_on_c, 15, 36, 53
23, 54976, Note_on_c, 15, 46, 53
23, 54976, Note_on_c, 15, 50, 53
23, 54976, Note_on_c, 15, 54, 53
23, 55040, Note_off_c, 15, 36, 0
23, 55040, Note_off_c, 15, 46, 0
23, 55040, Note_off_c, 15, 50, 0
23, 55040, Note_off_c, 15, 54, 0
23, 55104, Note_on_c, 15, 36, 51
23, 55104, Note_on_c, 15, 46, 51
23, 55104, Note_on_c, 15, 50, 51
23, 55104, Note_on_c, 15, 54, 51
23, 55168, Note_off_c, 15, 36, 0
23, 55168, Note_off_c, 15, 46, 0
23, 55168, Note_off_c, 15, 50, 0
23, 55168, Note_off_c, 15, 54, 0
23, 55232, Note_on_c, 15, 36, 54
23, 55232, Note_on_c, 15, 46, 54
23, 55232, Note_on_c, 15, 50, 54
23, 55232, Note_on_c, 15, 54, 54
23, 55296, Note_off_c, 15, 36, 0
23, 55296, Note_off_c, 15, 46, 0
23, 55296, Note_off_c, 15, 50, 0
23, 55296, Note_off_c, 15, 54, 0
23, 55360, Note_on_c, 15, 36, 54
23, 55360, Note_on_c, 15, 46, 54
23, 55360, Note_on_c, 15, 50, 54
23, 55360, Note_on_c, 15, 54, 54
23, 55424, Note_off_c, 15, 36, 0
23, 55424, Note_off_c, 15, 46, 0
23, 55424, Note_off_c, 15, 50, 0
23, 55424, Note_off_c, 15, 54, 0
23, 55488, Note_on_c, 15, 36, 54
23, 55488, Note_on_c, 15, 46, 54
23, 55488, Note_on_c, 15, 50, 54
23, 55488, Note_on_c, 15, 54, 54
23, 55552, Note_off_c, 15, 36, 0
23, 55552, Note_off_c, 15, 46, 0
23, 55552, Note_off_c, 15, 50, 0
23, 55552, Note_off_c, 15, 54, 0
23, 55616, Note_off_c, 13, 36, 0
23, 55616, Note_off_c, 13, 46, 0
23, 55616, Note_on_c, 15, 41, 55
23, 55616, Note_on_c, 15, 46, 55
23, 55616, Note_on_c, 15, 49, 55
23, 55616, Note_on_c, 15, 53, 55
23, 55680, Note_off_c, 15, 41, 0
23, 55680, Note_off_c, 15, 46, 0
23, 55680, Note_off_c, 15, 49, 0
23, 55680, Note_off_c, 15, 53, 0
23, 55744, Note_on_c, 15, 41, 52
23, 55744, Note_on_c, 15, 46, 52
23, 55744, Note_on_c, 15, 49, 52
23, 55744, Note_on_c, 15, 53, 52
23, 55808, Note_off_c, 15, 41, 0
23, 55808, Note_off_c, 15, 46, 0
23, 55808, Note_off_c, 15, 49, 0
23, 55808, Note_off_c, 15, 53, 0
23, 55872, Note_on_c, 15, 41, 52
23, 55872, Note_on_c, 15, 46, 52
23, 55872, Note_on_c, 15, 49, 52
23, 55872, Note_on_c, 15, 53, 52
23, 55936, Note_off_c, 15, 41, 0
23, 55936, Note_off_c, 15, 46, 0
23, 55936, Note_off_c, 15, 49, 0
23, 55936, Note_off_c, 15, 53, 0
23, 56000, Note_on_c, 15, 41, 54
23, 56000, Note_on_c, 15, 46, 54
23, 56000, Note_on_c, 15, 49, 54
23, 56000, Note_on_c, 15, 53, 54
23, 56064, Note_off_c, 15, 41, 0
23, 56064, Note_off_c, 15, 46, 0
23, 56064, Note_off_c, 15, 49, 0
23, 56064, Note_off_c, 15, 53, 0
23, 56128, Note_on_c, 15, 41, 57
23, 56128, Note_on_c, 15, 46, 57
23, 56128, Note_on_c, 15, 49, 57
23, 56128, Note_on_c, 15, 53, 57
23, 56192, Note_off_c, 15, 41, 0
23, 56192, Note_off_c, 15, 46, 0
23, 56192, Note_off_c, 15, 49, 0
23, 56192, Note_off_c, 15, 53, 0
23, 56256, Note_on_c, 15, 41, 55
23, 56256, Note_on_c, 15, 46, 55
23, 56256, Note_on_c, 15, 49, 55
23, 56256, Note_on_c, 15, 53, 55
23, 56320, Note_off_c, 15, 41, 0
23, 56320, Note_off_c, 15, 46, 0
23, 56320, Note_off_c, 15, 49, 0
23, 56320, Note_off_c, 15, 53, 0
23, 56384, Note_on_c, 15, 41, 60
23, 56384, Note_on_c, 15, 46, 60
23, 56384, Note_on_c, 15, 49, 60
23, 56384, Note_on_c, 15, 53, 60
23, 56448, Note_off_c, 15, 41, 0
23, 56448, Note_off_c, 15, 46, 0
23, 56448, Note_off_c, 15, 49, 0
23, 56448, Note_off_c, 15, 53, 0
23, 56512, Note_on_c, 15, 41, 58
23, 56512, Note_on_c, 15, 46, 58
23, 56512, Note_on_c, 15, 49, 58
23, 56512, Note_on_c, 15, 53, 58
23, 56576, Note_off_c, 15, 41, 0
23, 56576, Note_off_c, 15, 46, 0
23, 56576, Note_off_c, 15, 49, 0
23, 56576, Note_off_c, 15, 53, 0
23, 56640, Note_on_c, 15, 41, 57
23, 56640, Note_on_c, 15, 46, 57
23, 56640, Note_on_c, 15, 49, 57
23, 56640, Note_on_c, 15, 53, 57
23, 56704, Note_off_c, 15, 41, 0
23, 56704, Note_off_c, 15, 46, 0
23, 56704, Note_off_c, 15, 49, 0
23, 56704, Note_off_c, 15, 53, 0
23, 56768, Note_on_c, 15, 41, 60
23, 56768, Note_on_c, 15, 46, 60
23, 56768, Note_on_c, 15, 49, 60
23, 56768, Note_on_c, 15, 53, 60
23, 56832, Note_off_c, 15, 41, 0
23, 56832, Note_off_c, 15, 46, 0
23, 56832, Note_off_c, 15, 49, 0
23, 56832, Note_off_c, 15, 53, 0
23, 56896, Note_on_c, 15, 41, 58
23, 56896, Note_on_c, 15, 46, 58
23, 56896, Note_on_c, 15, 49, 58
23, 56896, Note_on_c, 15, 53, 58
23, 56960, Note_off_c, 15, 41, 0
23, 56960, Note_off_c, 15, 46, 0
23, 56960, Note_off_c, 15, 49, 0
23, 56960, Note_off_c, 15, 53, 0
23, 57024, Note_on_c, 15, 41, 55
23, 57024, Note_on_c, 15, 45, 55
23, 57024, Note_on_c, 15, 49, 55
23, 57024, Note_on_c, 15, 54, 55
23, 57088, Note_off_c, 15, 41, 0
23, 57088, Note_off_c, 15, 45, 0
23, 57088, Note_off_c, 15, 49, 0
23, 57088, Note_off_c, 15, 54, 0
23, 57152, Note_on_c, 15, 41, 52
23, 57152, Note_on_c, 15, 45, 52
23, 57152, Note_on_c, 15, 49, 52
23, 57152, Note_on_c, 15, 54, 52
23, 57216, Note_off_c, 15, 41, 0
23, 57216, Note_off_c, 15, 45, 0
23, 57216, Note_off_c, 15, 49, 0
23, 57216, Note_off_c, 15, 54, 0
23, 57280, Note_on_c, 15, 41, 50
23, 57280, Note_on_c, 15, 45, 50
23, 57280, Note_on_c, 15, 49, 50
23, 57280, Note_on_c, 15, 54, 50
23, 57344, Note_off_c, 15, 41, 0
23, 57344, Note_off_c, 15, 45, 0
23, 57344, Note_off_c, 15, 49, 0
23, 57344, Note_off_c, 15, 54, 0
23, 57408, Note_on_c, 15, 41, 50
23, 57408, Note_on_c, 15, 45, 50
23, 57408, Note_on_c, 15, 49, 50
23, 57408, Note_on_c, 15, 54, 50
23, 57472, Note_off_c, 15, 41, 0
23, 57472, Note_off_c, 15, 45, 0
23, 57472, Note_off_c, 15, 49, 0
23, 57472, Note_off_c, 15, 54, 0
23, 57536, Note_on_c, 15, 41, 46
23, 57536, Note_on_c, 15, 45, 46
23, 57536, Note_on_c, 15, 49, 46
23, 57536, Note_on_c, 15, 54, 46
23, 57600, Note_off_c, 15, 41, 0
23, 57600, Note_off_c, 15, 45, 0
23, 57600, Note_off_c, 15, 49, 0
23, 57600, Note_off_c, 15, 54, 0
23, 57664, Note_on_c, 15, 41, 45
23, 57664, Note_on_c, 15, 45, 45
23, 57664, Note_on_c, 15, 49, 45
23, 57664, Note_on_c, 15, 54, 45
23, 57728, Note_off_c, 15, 41, 0
23, 57728, Note_off_c, 15, 45, 0
23, 57728, Note_off_c, 15, 49, 0
23, 57728, Note_off_c, 15, 54, 0
23, 57792, Note_on_c, 15, 41, 45
23, 57792, Note_on_c, 15, 46, 45
23, 57792, Note_on_c, 15, 49, 45
23, 57792, Note_on_c, 15, 53, 45
23, 57856, Note_off_c, 15, 41, 0
23, 57856, Note_off_c, 15, 46, 0
23, 57856, Note_off_c, 15, 49, 0
23, 57856, Note_off_c, 15, 53, 0
23, 57920, Note_on_c, 15, 41, 39
23, 57920, Note_on_c, 15, 46, 39
23, 57920, Note_on_c, 15, 49, 39
23, 57920, Note_on_c, 15, 53, 39
23, 57984, Note_off_c, 15, 41, 0
23, 57984, Note_off_c, 15, 46, 0
23, 57984, Note_off_c, 15, 49, 0
23, 57984, Note_off_c, 15, 53, 0
23, 58048, Note_on_c, 15, 41, 34
23, 58048, Note_on_c, 15, 46, 34
23, 58048, Note_on_c, 15, 49, 34
23, 58048, Note_on_c, 15, 53, 34
23, 58112, Note_off_c, 15, 41, 0
23, 58112, Note_off_c, 15, 46, 0
23, 58112, Note_off_c, 15, 49, 0
23, 58112, Note_off_c, 15, 53, 0
23, 58176, Note_on_c, 15, 41, 40
23, 58176, Note_on_c, 15, 46, 40
23, 58176, Note_on_c, 15, 49, 40
23, 58176, Note_on_c, 15, 53, 40
23, 58240, Note_off_c, 15, 41, 0
23, 58240, Note_off_c, 15, 46, 0
23, 58240, Note_off_c, 15, 49, 0
23, 58240, Note_off_c, 15, 53, 0
23, 58304, Note_on_c, 15, 41, 32
23, 58304, Note_on_c, 15, 46, 32
23, 58304, Note_on_c, 15, 49, 32
23, 58304, Note_on_c, 15, 53, 32
23, 58368, Note_off_c, 15, 41, 0
23, 58368, Note_off_c, 15, 46, 0
23, 58368, Note_off_c, 15, 49, 0
23, 58368, Note_off_c, 15, 53, 0
23, 58432, Note_on_c, 15, 41, 34
23, 58432, Note_on_c, 15, 46, 34
23, 58432, Note_on_c, 15, 49, 34
23, 58432, Note_on_c, 15, 53, 34
23, 58496, Note_off_c, 15, 41, 0
23, 58496, Note_off_c, 15, 46, 0
23, 58496, Note_off_c, 15, 49, 0
23, 58496, Note_off_c, 15, 53, 0
23, 58560, Note_on_c, 15, 41, 27
23, 58560, Note_on_c, 15, 45, 27
23, 58560, Note_on_c, 15, 50, 27
23, 58560, Note_on_c, 15, 54, 27
23, 58624, Note_off_c, 15, 41, 0
23, 58624, Note_off_c, 15, 45, 0
23, 58624, Note_off_c, 15, 50, 0
23, 58624, Note_off_c, 15, 54, 0
23, 58688, Note_on_c, 15, 41, 31
23, 58688, Note_on_c, 15, 45, 31
23, 58688, Note_on_c, 15, 50, 31
23, 58688, Note_on_c, 15, 54, 31
23, 58752, Note_off_c, 15, 41, 0
23, 58752, Note_off_c, 15, 45, 0
23, 58752, Note_off_c, 15, 50, 0
23, 58752, Note_off_c, 15, 54, 0
23, 58816, Note_on_c, 15, 41, 27
23, 58816, Note_on_c, 15, 45, 27
23, 58816, Note_on_c, 15, 50, 27
23, 58816, Note_on_c, 15, 54, 27
23, 58880, Note_off_c, 15, 41, 0
23, 58880, Note_off_c, 15, 45, 0
23, 58880, Note_off_c, 15, 50, 0
23, 58880, Note_off_c, 15, 54, 0
23, 58944, Note_on_c, 15, 41, 26
23, 58944, Note_on_c, 15, 45, 26
23, 58944, Note_on_c, 15, 50, 26
23, 58944, Note_on_c, 15, 54, 26
23, 59008, Note_off_c, 15, 41, 0
23, 59008, Note_off_c, 15, 45, 0
23, 59008, Note_off_c, 15, 50, 0
23, 59008, Note_off_c, 15, 54, 0
23, 59072, Note_on_c, 15, 41, 22
23, 59072, Note_on_c, 15, 45, 22
23, 59072, Note_on_c, 15, 50, 22
23, 59072, Note_on_c, 15, 54, 22
23, 59136, Note_off_c, 15, 41, 0
23, 59136, Note_off_c, 15, 45, 0
23, 59136, Note_off_c, 15, 50, 0
23, 59136, Note_off_c, 15, 54, 0
23, 59200, Note_on_c, 15, 41, 20
23, 59200, Note_on_c, 15, 45, 20
23, 59200, Note_on_c, 15, 50, 20
23, 59200, Note_on_c, 15, 54, 20
23, 59264, Note_off_c, 15, 41, 0
23, 59264, Note_off_c, 15, 45, 0
23, 59264, Note_off_c, 15, 50, 0
23, 59264, Note_off_c, 15, 54, 0
23, 59328, Note_on_c, 15, 41, 18
23, 59328, Note_on_c, 15, 45, 18
23, 59328, Note_on_c, 15, 50, 18
23, 59328, Note_on_c, 15, 53, 18
23, 59392, Note_off_c, 15, 41, 0
23, 59392, Note_off_c, 15, 45, 0
23, 59392, Note_off_c, 15, 50, 0
23, 59392, Note_off_c, 15, 53, 0
23, 79872, Control_c, 15, 7, 95
23, 79872, Control_c, 15, 10, 95
23, 79872, Control_c, 15, 91, 72
23, 80832, Note_on_c, 15, 33, 89
23, 80960, Note_off_c, 15, 33, 0
23, 80960, Note_on_c, 15, 33, 101
23, 81088, Note_off_c, 15, 33, 0
23, 81088, Note_on_c, 15, 33, 93
23, 81216, Note_off_c, 15, 33, 0
23, 81216, Note_on_c, 15, 33, 100
23, 81344, Note_off_c, 15, 33, 0
23, 81344, Note_on_c, 15, 33, 94
23, 81472, Note_off_c, 15, 33, 0
23, 81472, Note_on_c, 15, 33, 97
23, 81600, Note_off_c, 15, 33, 0
23, 81600, Note_on_c, 15, 26, 98
23, 81600, Note_on_c, 15, 33, 98
23, 81728, Note_off_c, 15, 26, 0
23, 81728, Note_off_c, 15, 33, 0
23, 81728, Note_on_c, 15, 26, 94
23, 81728, Note_on_c, 15, 33, 94
23, 81856, Note_off_c, 15, 26, 0
23, 81856, Note_off_c, 15, 33, 0
23, 81856, Note_on_c, 15, 26, 98
23, 81856, Note_on_c, 15, 33, 98
23, 81984, Note_off_c, 15, 26, 0
23, 81984, Note_off_c, 15, 33, 0
23, 81984, Note_on_c, 15, 26, 91
23, 82112, Note_off_c, 15, 26, 0
23, 82112, Note_on_c, 15, 26, 93
23, 82240, Note_off_c, 15, 26, 0
23, 82240, Note_on_c, 15, 26, 97
23, 82368, Note_off_c, 15, 26, 0
23, 82368, Note_on_c, 15, 26, 95
23, 82496, Note_off_c, 15, 26, 0
23, 82496, Note_on_c, 15, 26, 96
23, 82624, Note_off_c, 15, 26, 0
23, 82624, Note_on_c, 15, 26, 98
23, 82752, Note_off_c, 15, 26, 0
23, 82752, Note_on_c, 15, 31, 105
23, 82880, Note_off_c, 15, 31, 0
23, 82880, Note_on_c, 15, 31, 96
23, 83008, Note_off_c, 15, 31, 0
23, 83008, Note_on_c, 15, 31, 100
23, 83136, Note_off_c, 15, 31, 0
23, 83136, Note_on_c, 15, 31, 101
23, 83264, Note_off_c, 15, 31, 0
23, 83264, Note_on_c, 15, 31, 97
23, 83392, Note_off_c, 15, 31, 0
23, 83392, Note_on_c, 15, 31, 98
23, 83520, Note_off_c, 15, 31, 0
23, 83520, Note_on_c, 15, 31, 98
23, 83648, Note_off_c, 15, 31, 0
23, 83648, Note_on_c, 15, 31, 96
23, 83776, Note_off_c, 15, 31, 0
23, 83776, Note_on_c, 15, 31, 99
23, 83904, Note_off_c, 15, 31, 0
23, 83904, Note_on_c, 15, 31, 97
23, 84032, Note_off_c, 15, 31, 0
23, 84032, Note_on_c, 15, 31, 101
23, 84160, Note_off_c, 15, 31, 0
23, 84160, Note_on_c, 15, 31, 94
23, 84288, Note_off_c, 15, 31, 0
23, 84288, Note_on_c, 15, 36, 104
23, 84416, Note_off_c, 15, 36, 0
23, 84416, Note_on_c, 15, 36, 97
23, 84544, Note_off_c, 15, 36, 0
23, 84544, Note_on_c, 15, 36, 100
23, 84672, Note_off_c, 15, 36, 0
23, 84672, Note_on_c, 15, 36, 101
23, 84800, Note_off_c, 15, 36, 0
23, 84800, Note_on_c, 15, 36, 100
23, 84928, Note_off_c, 15, 36, 0
23, 84928, Note_on_c, 15, 36, 97
23, 85120, Note_off_c, 15, 36, 0
23, 85120, Note_on_c, 15, 36, 102
23, 85312, Note_off_c, 15, 36, 0
23, 85312, Note_on_c, 15, 36, 91
23, 85440, Note_off_c, 15, 36, 0
23, 85440, Note_on_c, 15, 36, 97
23, 85504, Note_off_c, 15, 36, 0
23, 85504, Note_on_c, 15, 36, 98
23, 85632, Note_off_c, 15, 36, 0
23, 85632, Note_on_c, 15, 36, 100
23, 85824, Note_off_c, 15, 36, 0
23, 85824, Note_on_c, 15, 36, 93
23, 85952, Note_off_c, 15, 36, 0
23, 85952, Note_on_c, 15, 36, 93
23, 86080, Note_off_c, 15, 36, 0
23, 86080, Note_on_c, 15, 36, 99
23, 86208, Note_off_c, 15, 36, 0
23, 86208, Note_on_c, 15, 36, 101
23, 86272, Note_off_c, 15, 36, 0
23, 86272, Note_on_c, 15, 36, 94
23, 86400, Note_off_c, 15, 36, 0
23, 86400, Note_on_c, 15, 36, 98
23, 86592, Note_off_c, 15, 36, 0
23, 86592, Note_on_c, 15, 36, 97
23, 86720, Note_off_c, 15, 36, 0
23, 86720, Note_on_c, 15, 36, 98
23, 86848, Note_off_c, 15, 36, 0
23, 86848, Note_on_c, 15, 36, 103
23, 86976, Note_off_c, 15, 36, 0
23, 86976, Note_on_c, 15, 36, 94
23, 87104, Note_off_c, 15, 36, 0
23, 87104, Note_on_c, 15, 36, 95
23, 87232, Note_off_c, 15, 36, 0
23, 87232, Note_on_c, 15, 36, 98
23, 87360, Note_off_c, 15, 36, 0
23, 87360, Note_on_c, 15, 36, 102
23, 87488, Note_off_c, 15, 36, 0
23, 87488, Note_on_c, 15, 36, 101
23, 87616, Note_off_c, 15, 36, 0
23, 87616, Note_on_c, 15, 36, 98
23, 87744, Note_off_c, 15, 36, 0
23, 87744, Note_on_c, 15, 36, 98
23, 87808, Note_off_c, 15, 36, 0
23, 87808, Note_on_c, 15, 36, 94
23, 87936, Note_off_c, 15, 36, 0
23, 87936, Note_on_c, 15, 36, 98
23, 88064, Note_off_c, 15, 36, 0
23, 88064, Note_on_c, 15, 36, 95
23, 88256, Note_off_c, 15, 36, 0
23, 88256, Note_on_c, 15, 36, 97
23, 88384, Note_off_c, 15, 36, 0
23, 88384, Note_on_c, 15, 36, 96
23, 88512, Note_off_c, 15, 36, 0
23, 88512, Note_on_c, 15, 33, 95
23, 88576, Note_off_c, 15, 33, 0
23, 88576, Note_on_c, 15, 33, 98
23, 88704, Note_off_c, 15, 33, 0
23, 88704, Note_on_c, 15, 33, 94
23, 88896, Note_off_c, 15, 33, 0
23, 88896, Note_on_c, 15, 33, 98
23, 89024, Note_off_c, 15, 33, 0
23, 89024, Note_on_c, 15, 33, 99
23, 89152, Note_off_c, 15, 33, 0
23, 89152, Note_on_c, 15, 33, 116
23, 89216, Note_off_c, 15, 33, 0
23, 89216, Note_on_c, 15, 39, 121
23, 89408, Note_off_c, 15, 39, 0
23, 89408, Note_on_c, 15, 39, 118
23, 89536, Note_off_c, 15, 39, 0
23, 89536, Note_on_c, 15, 39, 110
23, 89664, Note_off_c, 15, 39, 0
23, 89664, Note_on_c, 15, 39, 110
23, 89792, Note_off_c, 15, 39, 0
23, 89792, Note_on_c, 15, 39, 119
23, 89984, Note_off_c, 15, 39, 0
23, 89984, Note_on_c, 15, 39, 113
23, 90112, Note_off_c, 15, 39, 0
23, 90112, Note_on_c, 15, 39, 113
23, 90304, Note_off_c, 15, 39, 0
23, 90304, Note_on_c, 15, 39, 110
23, 90432, Note_off_c, 15, 39, 0
23, 90432, Note_on_c, 15, 39, 116
23, 90560, Note_off_c, 15, 39, 0
23, 90560, Note_on_c, 15, 39, 114
23, 90688, Note_off_c, 15, 39, 0
23, 90688, Note_on_c, 15, 39, 107
23, 90752, Note_off_c, 15, 39, 0
23, 90752, Note_on_c, 15, 46, 119
23, 90944, Note_off_c, 15, 46, 0
23, 90944, Note_on_c, 15, 46, 118
23, 91072, Note_off_c, 15, 46, 0
23, 91072, Note_on_c, 15, 36, 101
23, 91136, Note_off_c, 15, 36, 0
23, 91136, Note_on_c, 15, 36, 111
23, 91264, Note_off_c, 15, 36, 0
23, 91264, Note_on_c, 15, 36, 113
23, 91456, Note_off_c, 15, 36, 0
23, 91456, Note_on_c, 15, 36, 114
23, 91584, Note_off_c, 15, 36, 0
23, 91584, Note_on_c, 15, 36, 111
23, 91712, Note_off_c, 15, 36, 0
23, 91712, Note_on_c, 15, 36, 117
23, 91840, Note_off_c, 15, 36, 0
23, 91840, Note_on_c, 15, 36, 112
23, 91968, Note_off_c, 15, 36, 0
23, 91968, Note_on_c, 15, 36, 112
23, 92032, Note_off_c, 15, 36, 0
23, 92032, Note_on_c, 15, 36, 114
23, 92160, Note_off_c, 15, 36, 0
23, 92160, Note_on_c, 15, 36, 111
23, 92288, Note_off_c, 15, 36, 0
23, 92288, Note_on_c, 15, 42, 118
23, 92416, Note_off_c, 15, 42, 0
23, 92416, Note_on_c, 15, 42, 115
23, 92544, Note_off_c, 15, 42, 0
23, 92544, Note_on_c, 15, 42, 106
23, 92608, Note_off_c, 15, 42, 0
23, 92608, Note_on_c, 15, 42, 119
23, 92736, Note_off_c, 15, 42, 0
23, 92736, Note_on_c, 15, 42, 108
23, 92864, Note_off_c, 15, 42, 0
23, 92864, Note_on_c, 15, 42, 111
23, 93056, Note_off_c, 15, 42, 0
23, 93056, Note_on_c, 15, 42, 113
23, 93184, Note_off_c, 15, 42, 0
23, 93184, Note_on_c, 15, 33, 98
23, 93312, Note_off_c, 15, 33, 0
23, 93312, Note_on_c, 15, 33, 107
23, 93440, Note_off_c, 15, 33, 0
23, 93440, Note_on_c, 15, 33, 113
23, 93504, Note_off_c, 15, 33, 0
23, 93504, Note_on_c, 15, 45, 127
23, 93696, Note_off_c, 15, 45, 0
23, 93696, Note_on_c, 15, 45, 117
23, 93824, Note_off_c, 15, 45, 0
23, 93824, Note_on_c, 15, 33, 101
23, 93888, Note_off_c, 15, 33, 0
23, 93888, Note_on_c, 15, 45, 124
23, 94016, Note_off_c, 15, 45, 0
23, 94016, Note_on_c, 15, 33, 99
23, 94208, Note_off_c, 15, 33, 0
23, 94208, Note_on_c, 15, 33, 111
23, 94272, Note_off_c, 15, 33, 0
23, 94272, Note_on_c, 15, 34, 114
23, 94464, Note_off_c, 15, 34, 0
23, 94528, Note_on_c, 15, 34, 103
23, 94656, Note_off_c, 15, 34, 0
23, 94656, Note_on_c, 15, 34, 113
23, 94912, Note_off_c, 15, 34, 0
23, 94912, Note_on_c, 15, 34, 120
23, 95104, Note_off_c, 15, 34, 0
23, 95296, Note_on_c, 15, 35, 100
23, 95488, Note_off_c, 15, 35, 0
23, 95680, Note_on_c, 15, 35, 99
23, 95808, Note_off_c, 15, 35, 0
23, 95808, Note_on_c, 15, 35, 113
23, 96000, Note_off_c, 15, 35, 0
23, 96064, Note_on_c, 15, 28, 102
23, 96064, Note_on_c, 15, 35, 102
23, 96192, Note_off_c, 15, 28, 0
23, 96192, Note_off_c, 15, 35, 0
23, 96192, Note_on_c, 15, 28, 115
23, 96192, Note_on_c, 15, 35, 115
23, 96320, Note_off_c, 15, 28, 0
23, 96320, Note_off_c, 15, 35, 0
23, 96320, Note_on_c, 15, 35, 113
23, 96448, Note_off_c, 15, 35, 0
23, 96448, Note_on_c, 15, 35, 115
23, 96576, Note_off_c, 15, 35, 0
23, 96576, Note_on_c, 15, 35, 118
23, 96704, Note_off_c, 15, 35, 0
23, 96704, Note_on_c, 15, 28, 113
23, 96704, Note_on_c, 15, 35, 113
23, 96832, Note_off_c, 15, 28, 0
23, 96832, Note_off_c, 15, 35, 0
23, 96832, Note_on_c, 15, 35, 110
23, 96960, Note_off_c, 15, 35, 0
23, 96960, Note_on_c, 15, 35, 114
23, 97088, Note_off_c, 15, 35, 0
23, 97088, Note_on_c, 15, 30, 103
23, 97216, Note_off_c, 15, 30, 0
23, 97216, Note_on_c, 15, 36, 119
23, 97344, Note_off_c, 15, 36, 0
23, 97344, Note_on_c, 15, 36, 109
23, 97472, Note_off_c, 15, 36, 0
23, 97472, Note_on_c, 15, 36, 114
23, 97600, Note_off_c, 15, 36, 0
23, 97600, Note_on_c, 15, 36, 114
23, 97728, Note_off_c, 15, 36, 0
23, 97728, Note_on_c, 15, 30, 102
23, 97856, Note_off_c, 15, 30, 0
23, 97856, Note_on_c, 15, 36, 119
23, 97984, Note_off_c, 15, 36, 0
23, 97984, Note_on_c, 15, 36, 113
23, 98112, Note_off_c, 15, 36, 0
23, 98112, Note_on_c, 15, 36, 114
23, 98240, Note_off_c, 15, 36, 0
23, 98240, Note_on_c, 15, 36, 116
23, 98368, Note_off_c, 15, 36, 0
23, 98368, Note_on_c, 15, 37, 114
23, 98496, Note_off_c, 15, 37, 0
23, 98496, Note_on_c, 15, 37, 111
23, 98624, Note_off_c, 15, 37, 0
23, 98624, Note_on_c, 15, 37, 115
23, 98752, Note_off_c, 15, 37, 0
23, 98752, Note_on_c, 15, 37, 108
23, 98880, Note_off_c, 15, 37, 0
23, 98880, Note_on_c, 15, 37, 111
23, 99008, Note_off_c, 15, 37, 0
23, 99008, Note_on_c, 15, 37, 114
23, 99136, Note_off_c, 15, 37, 0
23, 99136, Note_on_c, 15, 37, 113
23, 99264, Note_off_c, 15, 37, 0
23, 99264, Note_on_c, 15, 37, 114
23, 99392, Note_off_c, 15, 37, 0
23, 99392, Note_on_c, 15, 37, 113
23, 99520, Note_off_c, 15, 37, 0
23, 99520, Note_on_c, 15, 37, 115
23, 99648, Note_off_c, 15, 37, 0
23, 99648, Note_on_c, 15, 37, 115
23, 99776, Note_off_c, 15, 37, 0
23, 99776, Note_on_c, 15, 37, 114
23, 99904, Note_off_c, 15, 37, 0
23, 99904, Note_on_c, 15, 37, 114
23, 100032, Note_off_c, 15, 37, 0
23, 100032, Note_on_c, 15, 37, 111
23, 100160, Note_off_c, 15, 37, 0
23, 100160, Note_on_c, 15, 37, 110
23, 100288, Note_off_c, 15, 37, 0
23, 100288, Note_on_c, 15, 37, 113
23, 100416, Note_off_c, 15, 37, 0
23, 100416, Note_on_c, 15, 37, 115
23, 100544, Note_off_c, 15, 37, 0
23, 100544, Note_on_c, 15, 37, 113
23, 100672, Note_off_c, 15, 37, 0
23, 100672, Note_on_c, 15, 37, 110
23, 100800, Note_off_c, 15, 37, 0
23, 100800, Note_on_c, 15, 37, 105
23, 100928, Note_off_c, 15, 37, 0
23, 100928, Note_on_c, 15, 37, 118
23, 101056, Note_off_c, 15, 37, 0
23, 101056, Note_on_c, 15, 37, 113
23, 101184, Note_off_c, 15, 37, 0
23, 101184, Note_on_c, 15, 37, 118
23, 101312, Note_off_c, 15, 37, 0
23, 101312, Note_on_c, 15, 25, 108
23, 101312, Note_on_c, 15, 37, 108
23, 101440, Note_off_c, 15, 25, 0
23, 101440, Note_off_c, 15, 37, 0
23, 101440, Note_on_c, 15, 25, 116
23, 101440, Note_on_c, 15, 37, 116
23, 101568, Note_off_c, 15, 25, 0
23, 101568, Note_off_c, 15, 37, 0
23, 101568, Note_on_c, 15, 25, 114
23, 101568, Note_on_c, 15, 37, 114
23, 101696, Note_off_c, 15, 25, 0
23, 101696, Note_off_c, 15, 37, 0
23, 101696, Note_on_c, 15, 25, 112
23, 101696, Note_on_c, 15, 37, 112
23, 101824, Note_off_c, 15, 25, 0
23, 101824, Note_off_c, 15, 37, 0
23, 101824, Note_on_c, 15, 25, 116
23, 101824, Note_on_c, 15, 37, 116
23, 101952, Note_off_c, 15, 25, 0
23, 101952, Note_off_c, 15, 37, 0
23, 101952, Note_on_c, 15, 25, 112
23, 101952, Note_on_c, 15, 37, 112
23, 102080, Note_off_c, 15, 25, 0
23, 102080, Note_off_c, 15, 37, 0
23, 102080, Note_on_c, 15, 25, 110
23, 102080, Note_on_c, 15, 37, 110
23, 102208, Note_off_c, 15, 25, 0
23, 102208, Note_off_c, 15, 37, 0
23, 102208, Note_on_c, 15, 25, 112
23, 102208, Note_on_c, 15, 37, 112
23, 102336, Note_off_c, 15, 25, 0
23, 102336, Note_off_c, 15, 37, 0
23, 102336, Note_on_c, 15, 25, 116
23, 102336, Note_on_c, 15, 37, 116
23, 102464, Note_off_c, 15, 25, 0
23, 102464, Note_off_c, 15, 37, 0
23, 102464, Note_on_c, 15, 25, 115
23, 102464, Note_on_c, 15, 37, 115
23, 102592, Note_off_c, 15, 25, 0
23, 102592, Note_off_c, 15, 37, 0
23, 102592, Note_on_c, 15, 30, 105
23, 102720, Note_off_c, 15, 30, 0
23, 102720, Note_on_c, 15, 30, 112
23, 102848, Note_off_c, 15, 30, 0
23, 102848, Note_on_c, 15, 30, 115
23, 102976, Note_off_c, 15, 30, 0
23, 102976, Note_on_c, 15, 30, 113
23, 103104, Note_off_c, 15, 30, 0
23, 103104, Note_on_c, 15, 30, 109
23, 103232, Note_off_c, 15, 30, 0
23, 103232, Note_on_c, 15, 30, 112
23, 103360, Note_off_c, 15, 30, 0
23, 118784, Control_c, 13, 7, 95
23, 118784, Control_c, 13, 10, 95
23, 118784, Control_c, 13, 91, 72
23, 119466, Note_on_c, 13, 31, 56
23, 120128, Note_off_c, 13, 31, 0
23, 120128, Note_on_c, 13, 32, 68
23, 120640, Note_off_c, 13, 32, 0
23, 120640, Note_on_c, 13, 34, 73
23, 121472, Note_off_c, 13, 34, 0
23, 121472, Note_on_c, 13, 24, 68
23, 121856, Control_c, 13, 7, 95
23, 121856, Control_c, 13, 10, 95
23, 121856, Control_c, 13, 91, 72
23, 121856, Note_on_c, 13, 78, 88
23, 121856, Note_on_c, 13, 79, 88
23, 121868, Note_off_c, 13, 78, 0
23, 121868, Note_off_c, 13, 79, 0
23, 121920, Note_off_c, 13, 24, 0
23, 121920, Note_on_c, 13, 30, 93
23, 121941, Note_on_c, 13, 78, 87
23, 121941, Note_on_c, 13, 79, 87
23, 121953, Note_off_c, 13, 78, 0
23, 121953, Note_off_c, 13, 79, 0
23, 122026, Note_on_c, 13, 78, 84
23, 122026, Note_on_c, 13, 79, 84
23, 122038, Note_off_c, 13, 78, 0
23, 122038, Note_off_c, 13, 79, 0
23, 122112, Note_on_c, 13, 78, 84
23, 122112, Note_on_c, 13, 79, 84
23, 122124, Note_off_c, 13, 78, 0
23, 122124, Note_off_c, 13, 79, 0
23, 122176, Note_off_c, 13, 30, 0
23, 122176, Note_on_c, 13, 31, 85
23, 122197, Note_on_c, 13, 78, 88
23, 122197, Note_on_c, 13, 79, 88
23, 122209, Note_off_c, 13, 78, 0
23, 122209, Note_off_c, 13, 79, 0
23, 122624, Note_off_c, 13, 31, 0
23, 122624, Note_on_c, 13, 78, 87
23, 122624, Note_on_c, 13, 79, 87
23, 122624, Note_on_c, 13, 33, 86
23, 122636, Note_off_c, 13, 78, 0
23, 122636, Note_off_c, 13, 79, 0
23, 122709, Note_on_c, 13, 78, 91
23, 122709, Note_on_c, 13, 79, 91
23, 122721, Note_off_c, 13, 78, 0
23, 122721, Note_off_c, 13, 79, 0
23, 122794, Note_on_c, 13, 78, 84
23, 122794, Note_on_c, 13, 79, 84
23, 122806, Note_off_c, 13, 78, 0
23, 122806, Note_off_c, 13, 79, 0
23, 122944, Note_off_c, 13, 33, 0
23, 122944, Note_on_c, 13, 35, 88
23, 123136, Note_on_c, 13, 78, 85
23, 123136, Note_on_c, 13, 79, 85
23, 123148, Note_off_c, 13, 78, 0
23, 123148, Note_off_c, 13, 79, 0
23, 123221, Note_on_c, 13, 78, 89
23, 123221, Note_on_c, 13, 79, 89
23, 123233, Note_off_c, 13, 78, 0
23, 123233, Note_off_c, 13, 79, 0
23, 123306, Note_on_c, 13, 78, 89
23, 123306, Note_on_c, 13, 79, 89
23, 123318, Note_off_c, 13, 78, 0
23, 123318, Note_off_c, 13, 79, 0
23, 123392, Note_on_c, 13, 78, 85
23, 123392, Note_on_c, 13, 79, 85
23, 123404, Note_off_c, 13, 78, 0
23, 123404, Note_off_c, 13, 79, 0
23, 123477, Note_on_c, 13, 78, 93
23, 123477, Note_on_c, 13, 79, 93
23, 123489, Note_off_c, 13, 78, 0
23, 123489, Note_off_c, 13, 79, 0
23, 123562, Note_off_c, 13, 35, 0
23, 123562, Note_on_c, 13, 45, 93
23, 123733, Note_on_c, 13, 35, 80
23, 123736, Note_off_c, 13, 45, 0
23, 124138, Note_off_c, 13, 35, 0
23, 124160, Note_on_c, 13, 24, 74
23, 124416, Note_on_c, 13, 78, 83
23, 124416, Note_on_c, 13, 79, 83
23, 124431, Note_off_c, 13, 78, 0
23, 124431, Note_off_c, 13, 79, 0
23, 124518, Note_on_c, 13, 78, 91
23, 124518, Note_on_c, 13, 79, 91
23, 124533, Note_off_c, 13, 78, 0
23, 124533, Note_off_c, 13, 79, 0
23, 124544, Note_off_c, 13, 24, 0
23, 124544, Note_on_c, 13, 31, 90
23, 124620, Note_on_c, 13, 78, 83
23, 124620, Note_on_c, 13, 79, 83
23, 124635, Note_off_c, 13, 78, 0
23, 124635, Note_off_c, 13, 79, 0
23, 124723, Note_on_c, 13, 78, 84
23, 124723, Note_on_c, 13, 79, 84
23, 124738, Note_off_c, 13, 78, 0
23, 124738, Note_off_c, 13, 79, 0
23, 124825, Note_on_c, 13, 78, 89
23, 124825, Note_on_c, 13, 79, 89
23, 124840, Note_off_c, 13, 78, 0
23, 124840, Note_off_c, 13, 79, 0
23, 124928, Note_off_c, 13, 31, 0
23, 124928, Note_on_c, 13, 33, 83
23, 125440, Note_on_c, 13, 78, 89
23, 125440, Note_on_c, 13, 79, 89
23, 125459, Note_off_c, 13, 78, 0
23, 125459, Note_off_c, 13, 79, 0
23, 125504, Note_off_c, 13, 33, 0
23, 125504, Note_on_c, 13, 78, 100
23, 125504, Note_on_c, 13, 79, 100
23, 125504, Note_on_c, 13, 47, 96
23, 125523, Note_off_c, 13, 78, 0
23, 125523, Note_off_c, 13, 79, 0
23, 125568, Note_on_c, 13, 78, 96
23, 125568, Note_on_c, 13, 79, 96
23, 125587, Note_off_c, 13, 78, 0
23, 125587, Note_off_c, 13, 79, 0
23, 125632, Note_on_c, 13, 78, 101
23, 125632, Note_on_c, 13, 79, 101
23, 125651, Note_off_c, 13, 78, 0
23, 125651, Note_off_c, 13, 79, 0
23, 125696, Note_on_c, 13, 78, 99
23, 125696, Note_on_c, 13, 79, 99
23, 125715, Note_off_c, 13, 78, 0
23, 125715, Note_off_c, 13, 79, 0
23, 125824, Note_on_c, 13, 78, 85
23, 125824, Note_on_c, 13, 79, 85
23, 125843, Note_off_c, 13, 78, 0
23, 125843, Note_off_c, 13, 79, 0
23, 125952, Note_off_c, 13, 47, 0
23, 125952, Note_on_c, 13, 31, 73
23, 126336, Note_off_c, 13, 31, 0
23, 126336, Note_on_c, 13, 33, 82
23, 126464, Note_on_c, 13, 78, 87
23, 126464, Note_on_c, 13, 79, 87
23, 126479, Note_off_c, 13, 78, 0
23, 126479, Note_off_c, 13, 79, 0
23, 126515, Note_on_c, 13, 78, 100
23, 126515, Note_on_c, 13, 79, 100
23, 126530, Note_off_c, 13, 78, 0
23, 126530, Note_off_c, 13, 79, 0
23, 126566, Note_on_c, 13, 78, 96
23, 126566, Note_on_c, 13, 79, 96
23, 126581, Note_off_c, 13, 78, 0
23, 126581, Note_off_c, 13, 79, 0
23, 126592, Note_off_c, 13, 33, 0
23, 126592, Note_on_c, 13, 35, 86
23, 126617, Note_on_c, 13, 78, 99
23, 126617, Note_on_c, 13, 79, 99
23, 126632, Note_off_c, 13, 78, 0
23, 126632, Note_off_c, 13, 79, 0
23, 126668, Note_on_c, 13, 78, 92
23, 126668, Note_on_c, 13, 79, 92
23, 126683, Note_off_c, 13, 78, 0
23, 126683, Note_off_c, 13, 79, 0
23, 126720, Note_on_c, 13, 78, 97
23, 126720, Note_on_c, 13, 79, 97
23, 126739, Note_off_c, 13, 78, 0
23, 126739, Note_off_c, 13, 79, 0
23, 126784, Note_on_c, 13, 78, 96
23, 126784, Note_on_c, 13, 79, 96
23, 126803, Note_off_c, 13, 78, 0
23, 126803, Note_off_c, 13, 79, 0
23, 126805, Note_off_c, 13, 35, 0
23, 126805, Note_on_c, 13, 47, 97
23, 126848, Note_on_c, 13, 78, 96
23, 126848, Note_on_c, 13, 79, 96
23, 126867, Note_off_c, 13, 78, 0
23, 126867, Note_off_c, 13, 79, 0
23, 126912, Note_on_c, 13, 78, 97
23, 126912, Note_on_c, 13, 79, 97
23, 126931, Note_off_c, 13, 78, 0
23, 126931, Note_off_c, 13, 79, 0
23, 126976, Note_off_c, 13, 47, 0
23, 126976, Note_on_c, 13, 30, 75
23, 127360, Note_off_c, 13, 30, 0
23, 127360, Note_on_c, 13, 31, 84
23, 127488, Note_on_c, 13, 78, 92
23, 127488, Note_on_c, 13, 79, 92
23, 127500, Note_off_c, 13, 78, 0
23, 127500, Note_off_c, 13, 79, 0
23, 127573, Note_on_c, 13, 78, 87
23, 127573, Note_on_c, 13, 79, 87
23, 127585, Note_off_c, 13, 78, 0
23, 127585, Note_off_c, 13, 79, 0
23, 127658, Note_on_c, 13, 78, 86
23, 127658, Note_on_c, 13, 79, 86
23, 127670, Note_off_c, 13, 78, 0
23, 127670, Note_off_c, 13, 79, 0
23, 127744, Note_on_c, 13, 78, 89
23, 127744, Note_on_c, 13, 79, 89
23, 127756, Note_off_c, 13, 78, 0
23, 127756, Note_off_c, 13, 79, 0
23, 127829, Note_on_c, 13, 79, 89
23, 127829, Note_on_c, 13, 82, 89
23, 127841, Note_off_c, 13, 79, 0
23, 127841, Note_off_c, 13, 82, 0
23, 127914, Note_on_c, 13, 78, 84
23, 127914, Note_on_c, 13, 79, 84
23, 127926, Note_off_c, 13, 78, 0
23, 127926, Note_off_c, 13, 79, 0
23, 128000, Note_on_c, 13, 79, 90
23, 128000, Note_on_c, 13, 82, 90
23, 128012, Note_off_c, 13, 79, 0
23, 128012, Note_off_c, 13, 82, 0
23, 128384, Note_off_c, 13, 31, 0
23, 128448, Note_on_c, 13, 58, 88
23, 128448, Note_on_c, 13, 63, 88
23, 128448, Note_on_c, 13, 70, 88
23, 128480, Note_off_c, 13, 58, 0
23, 128480, Note_off_c, 13, 63, 0
23, 128480, Note_off_c, 13, 70, 0
23, 128576, Note_on_c, 13, 58, 89
23, 128576, Note_on_c, 13, 63, 89
23, 128576, Note_on_c, 13, 70, 89
23, 128608, Note_off_c, 13, 58, 0
23, 128608, Note_off_c, 13, 63, 0
23, 128608, Note_off_c, 13, 70, 0
23, 128640, Note_on_c, 13, 48, 82
23, 128640, Note_on_c, 13, 55, 82
23, 128672, Note_off_c, 13, 48, 0
23, 128672, Note_off_c, 13, 55, 0
23, 128768, Note_on_c, 13, 48, 89
23, 128768, Note_on_c, 13, 55, 89
23, 128800, Note_off_c, 13, 48, 0
23, 128800, Note_off_c, 13, 55, 0
23, 128832, Note_on_c, 13, 58, 121
23, 128832, Note_on_c, 13, 63, 121
23, 128832, Note_on_c, 13, 70, 121
23, 128864, Note_off_c, 13, 58, 0
23, 128864, Note_off_c, 13, 63, 0
23, 128864, Note_off_c, 13, 70, 0
23, 128960, Note_on_c, 13, 58, 88
23, 128960, Note_on_c, 13, 63, 88
23, 128960, Note_on_c, 13, 70, 88
23, 128992, Note_off_c, 13, 58, 0
23, 128992, Note_off_c, 13, 63, 0
23, 128992, Note_off_c, 13, 70, 0
23, 129408, Note_on_c, 13, 58, 86
23, 129408, Note_on_c, 13, 60, 86
23, 129408, Note_on_c, 13, 63, 86
23, 129408, Note_on_c, 13, 70, 86
23, 129472, Note_off_c, 13, 58, 0
23, 129472, Note_off_c, 13, 60, 0
23, 129472, Note_off_c, 13, 63, 0
23, 129472, Note_off_c, 13, 70, 0
23, 129664, Note_on_c, 13, 58, 91
23, 129664, Note_on_c, 13, 60, 91
23, 129664, Note_on_c, 13, 63, 91
23, 129664, Note_on_c, 13, 70, 91
23, 129728, Note_off_c, 13, 58, 0
23, 129728, Note_off_c, 13, 60, 0
23, 129728, Note_off_c, 13, 63, 0
23, 129728, Note_off_c, 13, 70, 0
23, 129792, Note_on_c, 13, 48, 85
23, 129792, Note_on_c, 13, 55, 85
23, 129856, Note_off_c, 13, 48, 0
23, 129856, Note_off_c, 13, 55, 0
23, 129920, Note_on_c, 13, 60, 125
23, 129920, Note_on_c, 13, 70, 125
23, 129984, Note_off_c, 13, 60, 0
23, 129984, Note_off_c, 13, 70, 0
23, 130048, Note_on_c, 13, 48, 86
23, 130048, Note_on_c, 13, 55, 86
23, 130112, Note_off_c, 13, 48, 0
23, 130112, Note_off_c, 13, 55, 0
23, 130176, Note_on_c, 13, 58, 123
23, 130176, Note_on_c, 13, 63, 123
23, 130176, Note_on_c, 13, 70, 123
23, 130240, Note_off_c, 13, 58, 0
23, 130240, Note_off_c, 13, 63, 0
23, 130240, Note_off_c, 13, 70, 0
23, 130432, Note_on_c, 13, 58, 85
23, 130432, Note_on_c, 13, 63, 85
23, 130432, Note_on_c, 13, 70, 85
23, 130496, Note_off_c, 13, 58, 0
23, 130496, Note_off_c, 13, 63, 0
23, 130496, Note_off_c, 13, 70, 0
23, 130560, Note_on_c, 13, 63, 108
23, 130560, Note_on_c, 13, 70, 108
23, 130560, Note_on_c, 13, 75, 108
23, 130624, Note_off_c, 13, 63, 0
23, 130624, Note_off_c, 13, 70, 0
23, 130624, Note_off_c, 13, 75, 0
23, 130688, Note_on_c, 13, 60, 85
23, 130688, Note_on_c, 13, 70, 85
23, 130752, Note_off_c, 13, 60, 0
23, 130752, Note_off_c, 13, 70, 0
23, 130816, Note_on_c, 13, 63, 109
23, 130816, Note_on_c, 13, 70, 109
23, 130816, Note_on_c, 13, 75, 109
23, 130880, Note_off_c, 13, 63, 0
23, 130880, Note_off_c, 13, 70, 0
23, 130880, Note_off_c, 13, 75, 0
23, 131200, Note_on_c, 13, 58, 84
23, 131200, Note_on_c, 13, 60, 84
23, 131200, Note_on_c, 13, 63, 84
23, 131200, Note_on_c, 13, 70, 84
23, 131264, Note_off_c, 13, 58, 0
23, 131264, Note_off_c, 13, 60, 0
23, 131264, Note_off_c, 13, 63, 0
23, 131264, Note_off_c, 13, 70, 0
23, 131328, Note_on_c, 13, 48, 81
23, 131328, Note_on_c, 13, 55, 81
23, 131392, Note_off_c, 13, 48, 0
23, 131392, Note_off_c, 13, 55, 0
23, 131456, Note_on_c, 13, 60, 121
23, 131456, Note_on_c, 13, 70, 121
23, 131520, Note_off_c, 13, 60, 0
23, 131520, Note_off_c, 13, 70, 0
23, 131968, Note_on_c, 13, 58, 86
23, 131968, Note_on_c, 13, 63, 86
23, 131968, Note_on_c, 13, 70, 86
23, 132096, Note_off_c, 13, 58, 0
23, 132096, Note_off_c, 13, 63, 0
23, 132096, Note_off_c, 13, 70, 0
23, 132096, Note_on_c, 13, 60, 98
23, 132096, Note_on_c, 13, 70, 98
23, 132160, Note_off_c, 13, 60, 0
23, 132160, Note_off_c, 13, 70, 0
23, 132224, Note_on_c, 13, 58, 103
23, 132224, Note_on_c, 13, 60, 103
23, 132224, Note_on_c, 13, 63, 103
23, 132224, Note_on_c, 13, 70, 103
23, 132288, Note_off_c, 13, 58, 0
23, 132288, Note_off_c, 13, 60, 0
23, 132288, Note_off_c, 13, 63, 0
23, 132288, Note_off_c, 13, 70, 0
23, 132352, Note_on_c, 13, 48, 83
23, 132352, Note_on_c, 13, 55, 83
23, 132416, Note_off_c, 13, 48, 0
23, 132416, Note_off_c, 13, 55, 0
23, 132608, Note_on_c, 13, 48, 92
23, 132608, Note_on_c, 13, 55, 92
23, 132672, Note_off_c, 13, 48, 0
23, 132672, Note_off_c, 13, 55, 0
23, 132736, Note_on_c, 13, 58, 122
23, 132736, Note_on_c, 13, 60, 122
23, 132736, Note_on_c, 13, 63, 122
23, 132736, Note_on_c, 13, 70, 122
23, 132800, Note_off_c, 13, 58, 0
23, 132800, Note_off_c, 13, 60, 0
23, 132800, Note_off_c, 13, 63, 0
23, 132800, Note_off_c, 13, 70, 0
23, 132992, Note_on_c, 13, 58, 86
23, 132992, Note_on_c, 13, 63, 86
23, 132992, Note_on_c, 13, 70, 86
23, 133056, Note_off_c, 13, 58, 0
23, 133056, Note_off_c, 13, 63, 0
23, 133056, Note_off_c, 13, 70, 0
23, 133120, Note_on_c, 13, 69, 124
23, 133120, Note_on_c, 13, 73, 124
23, 133120, Note_on_c, 13, 81, 124
23, 133184, Note_off_c, 13, 69, 0
23, 133184, Note_off_c, 13, 73, 0
23, 133184, Note_off_c, 13, 81, 0
23, 133248, Note_on_c, 13, 60, 78
23, 133248, Note_on_c, 13, 70, 78
23, 133312, Note_off_c, 13, 60, 0
23, 133312, Note_off_c, 13, 70, 0
23, 133376, Note_on_c, 13, 69, 117
23, 133376, Note_on_c, 13, 73, 117
23, 133376, Note_on_c, 13, 81, 117
23, 133440, Note_off_c, 13, 69, 0
23, 133440, Note_off_c, 13, 73, 0
23, 133440, Note_off_c, 13, 81, 0
23, 133504, Note_on_c, 13, 58, 75
23, 133504, Note_on_c, 13, 63, 75
23, 133504, Note_on_c, 13, 70, 75
23, 133568, Note_off_c, 13, 58, 0
23, 133568, Note_off_c, 13, 63, 0
23, 133568, Note_off_c, 13, 70, 0
23, 133760, Note_on_c, 13, 58, 90
23, 133760, Note_on_c, 13, 63, 90
23, 133760, Note_on_c, 13, 70, 90
23, 133824, Note_off_c, 13, 58, 0
23, 133824, Note_off_c, 13, 63, 0
23, 133824, Note_off_c, 13, 70, 0
23, 133888, Note_on_c, 13, 48, 102
23, 133888, Note_on_c, 13, 55, 102
23, 133888, Note_on_c, 13, 60, 102
23, 133888, Note_on_c, 13, 70, 102
23, 133952, Note_off_c, 13, 48, 0
23, 133952, Note_off_c, 13, 55, 0
23, 133952, Note_off_c, 13, 60, 0
23, 133952, Note_off_c, 13, 70, 0
23, 134144, Note_on_c, 13, 48, 89
23, 134144, Note_on_c, 13, 55, 89
23, 134208, Note_off_c, 13, 48, 0
23, 134208, Note_off_c, 13, 55, 0
23, 134272, Note_on_c, 13, 58, 124
23, 134272, Note_on_c, 13, 60, 124
23, 134272, Note_on_c, 13, 63, 124
23, 134272, Note_on_c, 13, 70, 124
23, 134336, Note_off_c, 13, 58, 0
23, 134336, Note_off_c, 13, 60, 0
23, 134336, Note_off_c, 13, 63, 0
23, 134336, Note_off_c, 13, 70, 0
23, 134528, Note_on_c, 13, 70, 86
23, 134592, Note_off_c, 13, 70, 0
23, 134656, Note_on_c, 13, 70, 127
23, 134656, Note_on_c, 13, 75, 127
23, 134656, Note_on_c, 13, 82, 127
23, 134720, Note_off_c, 13, 70, 0
23, 134720, Note_off_c, 13, 75, 0
23, 134720, Note_off_c, 13, 82, 0
23, 134784, Note_on_c, 13, 60, 75
23, 134784, Note_on_c, 13, 70, 75
23, 134848, Note_off_c, 13, 60, 0
23, 134848, Note_off_c, 13, 70, 0
23, 134912, Note_on_c, 13, 70, 120
23, 134912, Note_on_c, 13, 75, 120
23, 134912, Note_on_c, 13, 82, 120
23, 134976, Note_off_c, 13, 70, 0
23, 134976, Note_off_c, 13, 75, 0
23, 134976, Note_off_c, 13, 82, 0
23, 135296, Note_on_c, 13, 60, 85
23, 135296, Note_on_c, 13, 70, 85
23, 135360, Note_off_c, 13, 60, 0
23, 135360, Note_off_c, 13, 70, 0
23, 135552, Note_on_c, 13, 58, 85
23, 135552, Note_on_c, 13, 63, 85
23, 135552, Note_on_c, 13, 70, 85
23, 135616, Note_off_c, 13, 58, 0
23, 135616, Note_off_c, 13, 63, 0
23, 135616, Note_off_c, 13, 70, 0
23, 135808, Note_on_c, 13, 58, 87
23, 135808, Note_on_c, 13, 63, 87
23, 135808, Note_on_c, 13, 70, 87
23, 135872, Note_off_c, 13, 58, 0
23, 135872, Note_off_c, 13, 63, 0
23, 135872, Note_off_c, 13, 70, 0
23, 135936, Note_on_c, 13, 48, 81
23, 135936, Note_on_c, 13, 55, 81
23, 136000, Note_off_c, 13, 48, 0
23, 136000, Note_off_c, 13, 55, 0
23, 136192, Note_on_c, 13, 48, 88
23, 136192, Note_on_c, 13, 55, 88
23, 136256, Note_off_c, 13, 48, 0
23, 136256, Note_off_c, 13, 55, 0
23, 136320, Note_on_c, 13, 58, 123
23, 136320, Note_on_c, 13, 63, 123
23, 136320, Note_on_c, 13, 70, 123
23, 136384, Note_off_c, 13, 58, 0
23, 136384, Note_off_c, 13, 63, 0
23, 136384, Note_off_c, 13, 70, 0
23, 136576, Note_on_c, 13, 58, 88
23, 136576, Note_on_c, 13, 63, 88
23, 136576, Note_on_c, 13, 70, 88
23, 136640, Note_off_c, 13, 58, 0
23, 136640, Note_off_c, 13, 63, 0
23, 136640, Note_off_c, 13, 70, 0
23, 136704, Note_on_c, 13, 60, 123
23, 136704, Note_on_c, 13, 70, 123
23, 136704, Note_on_c, 13, 75, 123
23, 136704, Note_on_c, 13, 82, 123
23, 136768, Note_off_c, 13, 60, 0
23, 136768, Note_off_c, 13, 70, 0
23, 136768, Note_off_c, 13, 75, 0
23, 136768, Note_off_c, 13, 82, 0
23, 136832, Note_on_c, 13, 60, 73
23, 136832, Note_on_c, 13, 70, 73
23, 136896, Note_off_c, 13, 60, 0
23, 136896, Note_off_c, 13, 70, 0
23, 136960, Note_on_c, 13, 60, 119
23, 136960, Note_on_c, 13, 70, 119
23, 136960, Note_on_c, 13, 75, 119
23, 136960, Note_on_c, 13, 82, 119
23, 137024, Note_off_c, 13, 60, 0
23, 137024, Note_off_c, 13, 70, 0
23, 137024, Note_off_c, 13, 75, 0
23, 137024, Note_off_c, 13, 82, 0
23, 137088, Note_on_c, 13, 58, 76
23, 137088, Note_on_c, 13, 60, 76
23, 137088, Note_on_c, 13, 63, 76
23, 137088, Note_on_c, 13, 70, 76
23, 137152, Note_off_c, 13, 58, 0
23, 137152, Note_off_c, 13, 60, 0
23, 137152, Note_off_c, 13, 63, 0
23, 137152, Note_off_c, 13, 70, 0
23, 137216, Note_on_c, 13, 60, 96
23, 137216, Note_on_c, 13, 70, 96
23, 137280, Note_off_c, 13, 60, 0
23, 137280, Note_off_c, 13, 70, 0
23, 137344, Note_on_c, 13, 58, 96
23, 137344, Note_on_c, 13, 60, 96
23, 137344, Note_on_c, 13, 63, 96
23, 137344, Note_on_c, 13, 70, 96
23, 137408, Note_off_c, 13, 58, 0
23, 137408, Note_off_c, 13, 60, 0
23, 137408, Note_off_c, 13, 63, 0
23, 137408, Note_off_c, 13, 70, 0
23, 137472, Note_on_c, 13, 48, 96
23, 137472, Note_on_c, 13, 55, 96
23, 137472, Note_on_c, 13, 60, 96
23, 137472, Note_on_c, 13, 70, 96
23, 137536, Note_off_c, 13, 48, 0
23, 137536, Note_off_c, 13, 55, 0
23, 137536, Note_off_c, 13, 60, 0
23, 137536, Note_off_c, 13, 70, 0
23, 137600, Note_on_c, 13, 60, 99
23, 137600, Note_on_c, 13, 70, 99
23, 137664, Note_off_c, 13, 60, 0
23, 137664, Note_off_c, 13, 70, 0
23, 137728, Note_on_c, 13, 48, 81
23, 137728, Note_on_c, 13, 55, 81
23, 137792, Note_off_c, 13, 48, 0
23, 137792, Note_off_c, 13, 55, 0
23, 137856, Note_on_c, 13, 58, 124
23, 137856, Note_on_c, 13, 60, 124
23, 137856, Note_on_c, 13, 63, 124
23, 137856, Note_on_c, 13, 70, 124
23, 137920, Note_off_c, 13, 58, 0
23, 137920, Note_off_c, 13, 60, 0
23, 137920, Note_off_c, 13, 63, 0
23, 137920, Note_off_c, 13, 70, 0
23, 137984, Note_on_c, 13, 60, 107
23, 137984, Note_on_c, 13, 70, 107
23, 138048, Note_off_c, 13, 60, 0
23, 138048, Note_off_c, 13, 70, 0
23, 138112, Note_on_c, 13, 60, 97
23, 138112, Note_on_c, 13, 70, 97
23, 138176, Note_off_c, 13, 60, 0
23, 138176, Note_off_c, 13, 70, 0
23, 138240, Note_on_c, 13, 60, 97
23, 138240, Note_on_c, 13, 70, 97
23, 138304, Note_off_c, 13, 60, 0
23, 138304, Note_off_c, 13, 70, 0
23, 138368, Note_on_c, 13, 60, 102
23, 138368, Note_on_c, 13, 70, 102
23, 138432, Note_off_c, 13, 60, 0
23, 138432, Note_off_c, 13, 70, 0
23, 138496, Note_on_c, 13, 60, 99
23, 138496, Note_on_c, 13, 70, 99
23, 138560, Note_off_c, 13, 60, 0
23, 138560, Note_off_c, 13, 70, 0
23, 138624, Note_on_c, 13, 60, 121
23, 138624, Note_on_c, 13, 70, 121
23, 138624, Note_on_c, 13, 75, 121
23, 138624, Note_on_c, 13, 82, 121
23, 138688, Note_off_c, 13, 60, 0
23, 138688, Note_off_c, 13, 70, 0
23, 138688, Note_off_c, 13, 75, 0
23, 138688, Note_off_c, 13, 82, 0
23, 138752, Note_on_c, 13, 60, 77
23, 138752, Note_on_c, 13, 70, 77
23, 138816, Note_off_c, 13, 60, 0
23, 138816, Note_off_c, 13, 70, 0
23, 138880, Note_on_c, 13, 60, 124
23, 138880, Note_on_c, 13, 70, 124
23, 138880, Note_on_c, 13, 75, 124
23, 138880, Note_on_c, 13, 82, 124
23, 138944, Note_off_c, 13, 60, 0
23, 138944, Note_off_c, 13, 70, 0
23, 138944, Note_off_c, 13, 75, 0
23, 138944, Note_off_c, 13, 82, 0
23, 139008, Note_on_c, 13, 60, 75
23, 139008, Note_on_c, 13, 61, 75
23, 139008, Note_on_c, 13, 67, 75
23, 139008, Note_on_c, 13, 70, 75
23, 139072, Note_off_c, 13, 60, 0
23, 139072, Note_off_c, 13, 61, 0
23, 139072, Note_off_c, 13, 67, 0
23, 139072, Note_off_c, 13, 70, 0
23, 139136, Note_on_c, 13, 60, 95
23, 139136, Note_on_c, 13, 70, 95
23, 139200, Note_off_c, 13, 60, 0
23, 139200, Note_off_c, 13, 70, 0
23, 139264, Note_on_c, 13, 60, 99
23, 139264, Note_on_c, 13, 61, 99
23, 139264, Note_on_c, 13, 67, 99
23, 139264, Note_on_c, 13, 70, 99
23, 139328, Note_off_c, 13, 60, 0
23, 139328, Note_off_c, 13, 61, 0
23, 139328, Note_off_c, 13, 67, 0
23, 139328, Note_off_c, 13, 70, 0
23, 139392, Note_on_c, 13, 60, 127
23, 139392, Note_on_c, 13, 70, 127
23, 139392, Note_on_c, 13, 75, 127
23, 139392, Note_on_c, 13, 82, 127
23, 139456, Note_off_c, 13, 60, 0
23, 139456, Note_off_c, 13, 70, 0
23, 139456, Note_off_c, 13, 75, 0
23, 139456, Note_off_c, 13, 82, 0
23, 139520, Note_on_c, 13, 60, 73
23, 139520, Note_on_c, 13, 70, 73
23, 139584, Note_off_c, 13, 60, 0
23, 139584, Note_off_c, 13, 70, 0
23, 139648, Note_on_c, 13, 60, 119
23, 139648, Note_on_c, 13, 70, 119
23, 139648, Note_on_c, 13, 75, 119
23, 139648, Note_on_c, 13, 82, 119
23, 139712, Note_off_c, 13, 60, 0
23, 139712, Note_off_c, 13, 70, 0
23, 139712, Note_off_c, 13, 75, 0
23, 139712, Note_off_c, 13, 82, 0
23, 139776, Note_on_c, 13, 60, 109
23, 139776, Note_on_c, 13, 70, 109
23, 139776, Note_on_c, 13, 72, 109
23, 139776, Note_on_c, 13, 78, 109
23, 139776, Note_on_c, 13, 84, 109
23, 139840, Note_off_c, 13, 60, 0
23, 139840, Note_off_c, 13, 70, 0
23, 139840, Note_off_c, 13, 72, 0
23, 139840, Note_off_c, 13, 78, 0
23, 139840, Note_off_c, 13, 84, 0
23, 139904, Note_on_c, 13, 60, 71
23, 139904, Note_on_c, 13, 70, 71
23, 139968, Note_off_c, 13, 60, 0
23, 139968, Note_off_c, 13, 70, 0
23, 140032, Note_on_c, 13, 60, 114
23, 140032, Note_on_c, 13, 70, 114
23, 140032, Note_on_c, 13, 72, 114
23, 140032, Note_on_c, 13, 78, 114
23, 140032, Note_on_c, 13, 84, 114
23, 140096, Note_off_c, 13, 60, 0
23, 140096, Note_off_c, 13, 70, 0
23, 140096, Note_off_c, 13, 72, 0
23, 140096, Note_off_c, 13, 78, 0
23, 140096, Note_off_c, 13, 84, 0
23, 140160, Note_on_c, 13, 60, 76
23, 140160, Note_on_c, 13, 61, 76
23, 140160, Note_on_c, 13, 67, 76
23, 140160, Note_on_c, 13, 70, 76
23, 140224, Note_off_c, 13, 60, 0
23, 140224, Note_off_c, 13, 61, 0
23, 140224, Note_off_c, 13, 67, 0
23, 140224, Note_off_c, 13, 70, 0
23, 140288, Note_on_c, 13, 60, 90
23, 140288, Note_on_c, 13, 70, 90
23, 140352, Note_off_c, 13, 60, 0
23, 140352, Note_off_c, 13, 70, 0
23, 140416, Note_on_c, 13, 60, 97
23, 140416, Note_on_c, 13, 61, 97
23, 140416, Note_on_c, 13, 67, 97
23, 140416, Note_on_c, 13, 70, 97
23, 140480, Note_off_c, 13, 60, 0
23, 140480, Note_off_c, 13, 61, 0
23, 140480, Note_off_c, 13, 67, 0
23, 140480, Note_off_c, 13, 70, 0
23, 140544, Note_on_c, 13, 60, 120
23, 140544, Note_on_c, 13, 67, 120
23, 140544, Note_on_c, 13, 70, 120
23, 140544, Note_on_c, 13, 75, 120
23, 140544, Note_on_c, 13, 82, 120
23, 140608, Note_off_c, 13, 60, 0
23, 140608, Note_off_c, 13, 67, 0
23, 140608, Note_off_c, 13, 70, 0
23, 140608, Note_off_c, 13, 75, 0
23, 140608, Note_off_c, 13, 82, 0
23, 140672, Note_on_c, 13, 60, 74
23, 140672, Note_on_c, 13, 70, 74
23, 140736, Note_off_c, 13, 60, 0
23, 140736, Note_off_c, 13, 70, 0
23, 140800, Note_on_c, 13, 60, 122
23, 140800, Note_on_c, 13, 70, 122
23, 140800, Note_on_c, 13, 75, 122
23, 140800, Note_on_c, 13, 82, 122
23, 140864, Note_off_c, 13, 60, 0
23, 140864, Note_off_c, 13, 70, 0
23, 140864, Note_off_c, 13, 75, 0
23, 140864, Note_off_c, 13, 82, 0
23, 140928, Note_on_c, 13, 60, 72
23, 140928, Note_on_c, 13, 61, 72
23, 140928, Note_on_c, 13, 67, 72
23, 140928, Note_on_c, 13, 70, 72
23, 140992, Note_off_c, 13, 60, 0
23, 140992, Note_off_c, 13, 61, 0
23, 140992, Note_off_c, 13, 67, 0
23, 140992, Note_off_c, 13, 70, 0
23, 141056, Note_on_c, 13, 60, 93
23, 141056, Note_on_c, 13, 70, 93
23, 141120, Note_off_c, 13, 60, 0
23, 141120, Note_off_c, 13, 70, 0
23, 141184, Note_on_c, 13, 55, 100
23, 141184, Note_on_c, 13, 60, 100
23, 141184, Note_on_c, 13, 61, 100
23, 141184, Note_on_c, 13, 70, 100
23, 141248, Note_off_c, 13, 55, 0
23, 141248, Note_off_c, 13, 60, 0
23, 141248, Note_off_c, 13, 61, 0
23, 141248, Note_off_c, 13, 70, 0
23, 141312, Note_on_c, 13, 48, 116
23, 141312, Note_on_c, 13, 57, 116
23, 141312, Note_on_c, 13, 64, 116
23, 141312, Note_on_c, 13, 69, 116
23, 141312, Note_on_c, 13, 76, 116
23, 141376, Note_off_c, 13, 48, 0
23, 141376, Note_off_c, 13, 57, 0
23, 141376, Note_off_c, 13, 64, 0
23, 141376, Note_off_c, 13, 69, 0
23, 141376, Note_off_c, 13, 76, 0
23, 141440, Note_on_c, 13, 48, 87
23, 141440, Note_on_c, 13, 57, 87
23, 141504, Note_off_c, 13, 48, 0
23, 141504, Note_off_c, 13, 57, 0
23, 141568, Note_on_c, 13, 48, 122
23, 141568, Note_on_c, 13, 57, 122
23, 141568, Note_on_c, 13, 64, 122
23, 141568, Note_on_c, 13, 69, 122
23, 141568, Note_on_c, 13, 76, 122
23, 141632, Note_off_c, 13, 48, 0
23, 141632, Note_off_c, 13, 57, 0
23, 141632, Note_off_c, 13, 64, 0
23, 141632, Note_off_c, 13, 69, 0
23, 141632, Note_off_c, 13, 76, 0
23, 141696, Note_on_c, 13, 48, 78
23, 141696, Note_on_c, 13, 57, 78
23, 141696, Note_on_c, 13, 65, 78
23, 141760, Note_off_c, 13, 48, 0
23, 141760, Note_off_c, 13, 57, 0
23, 141760, Note_off_c, 13, 65, 0
23, 141824, Note_on_c, 13, 48, 86
23, 141824, Note_on_c, 13, 57, 86
23, 141888, Note_off_c, 13, 48, 0
23, 141888, Note_off_c, 13, 57, 0
23, 141952, Note_on_c, 13, 48, 114
23, 141952, Note_on_c, 13, 57, 114
23, 141952, Note_on_c, 13, 65, 114
23, 142016, Note_off_c, 13, 48, 0
23, 142016, Note_off_c, 13, 57, 0
23, 142016, Note_off_c, 13, 65, 0
23, 142080, Note_on_c, 13, 64, 125
23, 142080, Note_on_c, 13, 69, 125
23, 142080, Note_on_c, 13, 76, 125
23, 142144, Note_off_c, 13, 64, 0
23, 142144, Note_off_c, 13, 69, 0
23, 142144, Note_off_c, 13, 76, 0
23, 142208, Note_on_c, 13, 48, 91
23, 142208, Note_on_c, 13, 57, 91
23, 142272, Note_off_c, 13, 48, 0
23, 142272, Note_off_c, 13, 57, 0
23, 142336, Note_on_c, 13, 48, 127
23, 142336, Note_on_c, 13, 57, 127
23, 142336, Note_on_c, 13, 64, 127
23, 142336, Note_on_c, 13, 69, 127
23, 142336, Note_on_c, 13, 76, 127
23, 142400, Note_off_c, 13, 48, 0
23, 142400, Note_off_c, 13, 57, 0
23, 142400, Note_off_c, 13, 64, 0
23, 142400, Note_off_c, 13, 69, 0
23, 142400, Note_off_c, 13, 76, 0
23, 142464, Note_on_c, 13, 48, 90
23, 142464, Note_on_c, 13, 57, 90
23, 142528, Note_off_c, 13, 48, 0
23, 142528, Note_off_c, 13, 57, 0
23, 142592, Note_on_c, 13, 48, 91
23, 142592, Note_on_c, 13, 57, 91
23, 142656, Note_off_c, 13, 48, 0
23, 142656, Note_off_c, 13, 57, 0
23, 142720, Note_on_c, 13, 48, 121
23, 142720, Note_on_c, 13, 57, 121
23, 142720, Note_on_c, 13, 64, 121
23, 142720, Note_on_c, 13, 69, 121
23, 142720, Note_on_c, 13, 76, 121
23, 142784, Note_off_c, 13, 48, 0
23, 142784, Note_off_c, 13, 57, 0
23, 142784, Note_off_c, 13, 64, 0
23, 142784, Note_off_c, 13, 69, 0
23, 142784, Note_off_c, 13, 76, 0
23, 142848, Note_on_c, 13, 48, 86
23, 142848, Note_on_c, 13, 57, 86
23, 142912, Note_off_c, 13, 48, 0
23, 142912, Note_off_c, 13, 57, 0
23, 142976, Note_on_c, 13, 64, 119
23, 142976, Note_on_c, 13, 69, 119
23, 142976, Note_on_c, 13, 76, 119
23, 143040, Note_off_c, 13, 64, 0
23, 143040, Note_off_c, 13, 69, 0
23, 143040, Note_off_c, 13, 76, 0
23, 143104, Note_on_c, 13, 48, 75
23, 143104, Note_on_c, 13, 57, 75
23, 143104, Note_on_c, 13, 65, 75
23, 143168, Note_off_c, 13, 48, 0
23, 143168, Note_off_c, 13, 57, 0
23, 143168, Note_off_c, 13, 65, 0
23, 143232, Note_on_c, 13, 48, 85
23, 143232, Note_on_c, 13, 57, 85
23, 143296, Note_off_c, 13, 48, 0
23, 143296, Note_off_c, 13, 57, 0
23, 143360, Note_on_c, 13, 48, 117
23, 143360, Note_on_c, 13, 57, 117
23, 143360, Note_on_c, 13, 65, 117
23, 143424, Note_off_c, 13, 48, 0
23, 143424, Note_off_c, 13, 57, 0
23, 143424, Note_off_c, 13, 65, 0
23, 143488, Note_on_c, 13, 48, 127
23, 143488, Note_on_c, 13, 57, 127
23, 143488, Note_on_c, 13, 64, 127
23, 143488, Note_on_c, 13, 76, 127
23, 143488, Note_on_c, 13, 83, 127
23, 143552, Note_off_c, 13, 48, 0
23, 143552, Note_off_c, 13, 57, 0
23, 143552, Note_off_c, 13, 64, 0
23, 143552, Note_off_c, 13, 76, 0
23, 143552, Note_off_c, 13, 83, 0
23, 143616, Note_on_c, 13, 48, 91
23, 143616, Note_on_c, 13, 57, 91
23, 143680, Note_off_c, 13, 48, 0
23, 143680, Note_off_c, 13, 57, 0
23, 143744, Note_on_c, 13, 48, 125
23, 143744, Note_on_c, 13, 57, 125
23, 143744, Note_on_c, 13, 64, 125
23, 143744, Note_on_c, 13, 76, 125
23, 143744, Note_on_c, 13, 83, 125
23, 143808, Note_off_c, 13, 48, 0
23, 143808, Note_off_c, 13, 57, 0
23, 143808, Note_off_c, 13, 64, 0
23, 143808, Note_off_c, 13, 76, 0
23, 143808, Note_off_c, 13, 83, 0
23, 143872, Note_on_c, 13, 48, 88
23, 143872, Note_on_c, 13, 57, 88
23, 143936, Note_off_c, 13, 48, 0
23, 143936, Note_off_c, 13, 57, 0
23, 144000, Note_on_c, 13, 48, 95
23, 144000, Note_on_c, 13, 57, 95
23, 144064, Note_off_c, 13, 48, 0
23, 144064, Note_off_c, 13, 57, 0
23, 144256, Note_on_c, 13, 48, 91
23, 144256, Note_on_c, 13, 57, 91
23, 144320, Note_off_c, 13, 48, 0
23, 144320, Note_off_c, 13, 57, 0
23, 144384, Note_on_c, 13, 64, 120
23, 144384, Note_on_c, 13, 76, 120
23, 144384, Note_on_c, 13, 83, 120
23, 144448, Note_off_c, 13, 64, 0
23, 144448, Note_off_c, 13, 76, 0
23, 144448, Note_off_c, 13, 83, 0
23, 144512, Note_on_c, 13, 28, 127
23, 144640, Note_off_c, 13, 28, 0
23, 144640, Note_on_c, 13, 64, 91
23, 144640, Note_on_c, 13, 76, 91
23, 144640, Note_on_c, 13, 83, 91
23, 144704, Note_off_c, 13, 64, 0
23, 144704, Note_off_c, 13, 76, 0
23, 144704, Note_off_c, 13, 83, 0
23, 144768, Note_on_c, 13, 48, 71
23, 144768, Note_on_c, 13, 64, 71
23, 144768, Note_on_c, 13, 72, 71
23, 144768, Note_on_c, 13, 42, 127
23, 144832, Note_off_c, 13, 48, 0
23, 144832, Note_off_c, 13, 64, 0
23, 144832, Note_off_c, 13, 72, 0
23, 144896, Note_off_c, 13, 42, 0
23, 144896, Note_on_c, 13, 30, 127
23, 145024, Note_off_c, 13, 30, 0
23, 145024, Note_on_c, 13, 48, 88
23, 145024, Note_on_c, 13, 64, 88
23, 145024, Note_on_c, 13, 72, 88
23, 145088, Note_off_c, 13, 48, 0
23, 145088, Note_off_c, 13, 64, 0
23, 145088, Note_off_c, 13, 72, 0
23, 145152, Note_on_c, 13, 64, 122
23, 145152, Note_on_c, 13, 76, 122
23, 145152, Note_on_c, 13, 83, 122
23, 145216, Note_off_c, 13, 64, 0
23, 145216, Note_off_c, 13, 76, 0
23, 145216, Note_off_c, 13, 83, 0
23, 145280, Note_on_c, 13, 42, 127
23, 145408, Note_off_c, 13, 42, 0
23, 145408, Note_on_c, 13, 28, 127
23, 145536, Note_off_c, 13, 28, 0
23, 145536, Note_on_c, 13, 64, 85
23, 145536, Note_on_c, 13, 76, 85
23, 145536, Note_on_c, 13, 83, 85
23, 145600, Note_off_c, 13, 64, 0
23, 145600, Note_off_c, 13, 76, 0
23, 145600, Note_off_c, 13, 83, 0
23, 145664, Note_on_c, 13, 42, 127
23, 145792, Note_off_c, 13, 42, 0
23, 145792, Note_on_c, 13, 30, 127
23, 145920, Note_off_c, 13, 30, 0
23, 146048, Note_on_c, 13, 42, 127
23, 146176, Note_off_c, 13, 42, 0
23, 146688, Note_on_c, 13, 28, 127
23, 146816, Note_off_c, 13, 28, 0
23, 146944, Note_on_c, 13, 42, 127
23, 147072, Note_off_c, 13, 42, 0
23, 147072, Note_on_c, 13, 30, 127
23, 147200, Note_off_c, 13, 30, 0
23, 147328, Note_on_c, 13, 42, 127
23, 147456, Note_off_c, 13, 42, 0
23, 147456, Note_on_c, 13, 28, 127
23, 147584, Note_off_c, 13, 28, 0
23, 147712, Note_on_c, 13, 42, 127
23, 147840, Note_off_c, 13, 42, 0
23, 147840, Note_on_c, 13, 30, 127
23, 147968, Note_off_c, 13, 30, 0
23, 148096, Note_on_c, 13, 42, 127
23, 148224, Note_off_c, 13, 42, 0
23, 148736, Note_on_c, 13, 28, 127
23, 148864, Note_off_c, 13, 28, 0
23, 148992, Note_on_c, 13, 42, 127
23, 149120, Note_off_c, 13, 42, 0
23, 149120, Note_on_c, 13, 30, 127
23, 149248, Note_off_c, 13, 30, 0
23, 149376, Note_on_c, 13, 42, 127
23, 149504, Note_off_c, 13, 42, 0
23, 149504, Note_on_c, 13, 28, 127
23, 149632, Note_off_c, 13, 28, 0
23, 149760, Note_on_c, 13, 42, 127
23, 149888, Note_off_c, 13, 42, 0
23, 149888, Note_on_c, 13, 30, 127
23, 150016, Note_off_c, 13, 30, 0
23, 150144, Note_on_c, 13, 43, 127
23, 150272, Note_off_c, 13, 43, 0
23, 150272, Note_on_c, 13, 31, 127
23, 150400, Note_off_c, 13, 31, 0
23, 150528, Note_on_c, 13, 45, 127
23, 150656, Note_off_c, 13, 45, 0
23, 151296, Note_on_c, 13, 28, 127
23, 151424, Note_off_c, 13, 28, 0
23, 151552, Note_on_c, 13, 42, 127
23, 151680, Note_off_c, 13, 42, 0
23, 151680, Note_on_c, 13, 30, 127
23, 151808, Note_off_c, 13, 30, 0
23, 151936, Note_on_c, 13, 43, 127
23, 152064, Note_off_c, 13, 43, 0
23, 152064, Note_on_c, 13, 31, 127
23, 152192, Note_off_c, 13, 31, 0
23, 152320, Note_on_c, 13, 45, 127
23, 152448, Note_off_c, 13, 45, 0
23, 153344, Note_on_c, 13, 28, 127
23, 153472, Note_off_c, 13, 28, 0
23, 153600, Note_on_c, 13, 42, 127
23, 153728, Note_off_c, 13, 42, 0
23, 153728, Note_on_c, 13, 30, 127
23, 153856, Note_off_c, 13, 30, 0
23, 153984, Note_on_c, 13, 43, 127
23, 154112, Note_off_c, 13, 43, 0
23, 154112, Note_on_c, 13, 31, 127
23, 154240, Note_off_c, 13, 31, 0
23, 154368, Note_on_c, 13, 45, 127
23, 154496, Note_off_c, 13, 45, 0
23, 154496, Note_on_c, 13, 28, 127
23, 154624, Note_off_c, 13, 28, 0
23, 154752, Note_on_c, 13, 42, 127
23, 154880, Note_off_c, 13, 42, 0
23, 154880, Note_on_c, 13, 30, 127
23, 155008, Note_off_c, 13, 30, 0
23, 155136, Note_on_c, 13, 43, 127
23, 155264, Note_off_c, 13, 43, 0
23, 155392, Note_on_c, 13, 31, 127
23, 155520, Note_off_c, 13, 31, 0
23, 155648, Note_on_c, 13, 45, 127
23, 155776, Note_off_c, 13, 45, 0
23, 156032, Note_on_c, 13, 30, 127
23, 156160, Note_off_c, 13, 30, 0
23, 156416, Note_on_c, 13, 42, 127
23, 156544, Note_off_c, 13, 42, 0
23, 156544, Note_on_c, 13, 30, 127
23, 156672, Note_off_c, 13, 30, 0
23, 156800, Note_on_c, 13, 43, 127
23, 156928, Note_off_c, 13, 43, 0
23, 156928, Note_on_c, 13, 31, 127
23, 157056, Note_off_c, 13, 31, 0
23, 157184, Note_on_c, 13, 45, 127
23, 157312, Note_off_c, 13, 45, 0
23, 157312, Note_on_c, 13, 33, 127
23, 157440, Note_off_c, 13, 33, 0
23, 157568, Note_on_c, 13, 47, 127
23, 157696, Note_off_c, 13, 47, 0
23, 157824, Note_on_c, 13, 28, 127
23, 157952, Note_off_c, 13, 28, 0
23, 158080, Note_on_c, 13, 42, 127
23, 158208, Note_off_c, 13, 42, 0
23, 158720, Note_on_c, 13, 28, 127
23, 158848, Note_off_c, 13, 28, 0
23, 158976, Note_on_c, 13, 42, 127
23, 159104, Note_off_c, 13, 42, 0
23, 159104, Note_on_c, 13, 30, 126
23, 159232, Note_off_c, 13, 30, 0
23, 159360, Note_on_c, 13, 43, 127
23, 159488, Note_off_c, 13, 43, 0
23, 160256, Note_on_c, 13, 31, 127
23, 160384, Note_off_c, 13, 31, 0
23, 160512, Note_on_c, 13, 45, 127
23, 160512, Note_on_c, 13, 57, 127
23, 160640, Note_off_c, 13, 45, 0
23, 160640, Note_off_c, 13, 57, 0
23, 160640, Note_on_c, 13, 33, 127
23, 160768, Note_off_c, 13, 33, 0
23, 160896, Note_on_c, 13, 47, 127
23, 160896, Note_on_c, 13, 59, 127
23, 161024, Note_off_c, 13, 47, 0
23, 161024, Note_off_c, 13, 59, 0
23, 161280, Note_on_c, 13, 28, 127
23, 161408, Note_off_c, 13, 28, 0
23, 161536, Note_on_c, 13, 42, 127
23, 161536, Note_on_c, 13, 54, 127
23, 161664, Note_off_c, 13, 42, 0
23, 161664, Note_off_c, 13, 54, 0
23, 162432, Note_on_c, 13, 42, 127
23, 162432, Note_on_c, 13, 54, 127
23, 162560, Note_off_c, 13, 42, 0
23, 162560, Note_off_c, 13, 54, 0
23, 163328, Note_on_c, 13, 28, 127
23, 163328, Note_on_c, 13, 40, 127
23, 163456, Note_off_c, 13, 28, 0
23, 163456, Note_off_c, 13, 40, 0
23, 163840, Note_on_c, 13, 30, 127
23, 163840, Note_on_c, 13, 42, 127
23, 163968, Note_off_c, 13, 30, 0
23, 163968, Note_off_c, 13, 42, 0
23, 164608, Note_on_c, 13, 28, 127
23, 164608, Note_on_c, 13, 40, 127
23, 164736, Note_off_c, 13, 28, 0
23, 164736, Note_off_c, 13, 40, 0
23, 165120, Note_on_c, 13, 30, 127
23, 165120, Note_on_c, 13, 42, 127
23, 165248, Note_off_c, 13, 30, 0
23, 165248, Note_off_c, 13, 42, 0
23, 165632, Note_on_c, 13, 28, 127
23, 165632, Note_on_c, 13, 40, 127
23, 165760, Note_off_c, 13, 28, 0
23, 165760, Note_off_c, 13, 40, 0
23, 166144, Note_on_c, 13, 28, 127
23, 166144, Note_on_c, 13, 40, 127
23, 166272, Note_off_c, 13, 28, 0
23, 166272, Note_off_c, 13, 40, 0
23, 166400, Note_on_c, 13, 30, 127
23, 166400, Note_on_c, 13, 42, 127
23, 166528, Note_off_c, 13, 30, 0
23, 166528, Note_off_c, 13, 42, 0
23, 166656, Note_on_c, 13, 31, 127
23, 166656, Note_on_c, 13, 43, 127
23, 166784, Note_off_c, 13, 31, 0
23, 166784, Note_off_c, 13, 43, 0
23, 166912, Note_on_c, 13, 29, 127
23, 166912, Note_on_c, 13, 41, 127
23, 167040, Note_off_c, 13, 29, 0
23, 167040, Note_off_c, 13, 41, 0
23, 167168, Note_on_c, 13, 31, 127
23, 167168, Note_on_c, 13, 43, 127
23, 167296, Note_off_c, 13, 31, 0
23, 167296, Note_off_c, 13, 43, 0
23, 167424, Note_on_c, 13, 29, 127
23, 167424, Note_on_c, 13, 41, 127
23, 167552, Note_off_c, 13, 29, 0
23, 167552, Note_off_c, 13, 41, 0
23, 167680, Note_on_c, 13, 31, 127
23, 167680, Note_on_c, 13, 43, 127
23, 167808, Note_off_c, 13, 31, 0
23, 167808, Note_off_c, 13, 43, 0
23, 167936, Note_on_c, 13, 29, 115
23, 167936, Note_on_c, 13, 41, 115
23, 167987, Note_off_c, 13, 29, 0
23, 167987, Note_off_c, 13, 41, 0
23, 168106, Note_on_c, 13, 31, 127
23, 168106, Note_on_c, 13, 43, 127
23, 168157, Note_off_c, 13, 31, 0
23, 168157, Note_off_c, 13, 43, 0
23, 168277, Note_on_c, 13, 29, 125
23, 168277, Note_on_c, 13, 41, 125
23, 168328, Note_off_c, 13, 29, 0
23, 168328, Note_off_c, 13, 41, 0
23, 168448, Note_on_c, 13, 31, 127
23, 168448, Note_on_c, 13, 43, 127
23, 168499, Note_off_c, 13, 31, 0
23, 168499, Note_off_c, 13, 43, 0
23, 168618, Note_on_c, 13, 29, 122
23, 168618, Note_on_c, 13, 41, 122
23, 168669, Note_off_c, 13, 29, 0
23, 168669, Note_off_c, 13, 41, 0
23, 168789, Note_on_c, 13, 31, 127
23, 168789, Note_on_c, 13, 43, 127
23, 168840, Note_off_c, 13, 31, 0
23, 168840, Note_off_c, 13, 43, 0
23, 168960, Note_on_c, 13, 30, 119
23, 168960, Note_on_c, 13, 42, 119
23, 169011, Note_off_c, 13, 30, 0
23, 169011, Note_off_c, 13, 42, 0
23, 169130, Note_on_c, 13, 33, 127
23, 169130, Note_on_c, 13, 45, 127
23, 169181, Note_off_c, 13, 33, 0
23, 169181, Note_off_c, 13, 45, 0
23, 169301, Note_on_c, 13, 28, 119
23, 169301, Note_on_c, 13, 40, 119
23, 169352, Note_off_c, 13, 28, 0
23, 169352, Note_off_c, 13, 40, 0
23, 169472, Note_on_c, 13, 29, 127
23, 169472, Note_on_c, 13, 41, 127
23, 169523, Note_off_c, 13, 29, 0
23, 169523, Note_off_c, 13, 41, 0
23, 169642, Note_on_c, 13, 31, 127
23, 169642, Note_on_c, 13, 43, 127
23, 169693, Note_off_c, 13, 31, 0
23, 169693, Note_off_c, 13, 43, 0
23, 169813, Note_on_c, 13, 33, 127
23, 169813, Note_on_c, 13, 45, 127
23, 169864, Note_off_c, 13, 33, 0
23, 169864, Note_off_c, 13, 45, 0
23, 169984, Note_on_c, 13, 30, 119
23, 169984, Note_on_c, 13, 42, 119
23, 170035, Note_off_c, 13, 30, 0
23, 170035, Note_off_c, 13, 42, 0
23, 170154, Note_on_c, 13, 33, 127
23, 170154, Note_on_c, 13, 45, 127
23, 170205, Note_off_c, 13, 33, 0
23, 170205, Note_off_c, 13, 45, 0
23, 170325, Note_on_c, 13, 28, 115
23, 170325, Note_on_c, 13, 40, 115
23, 170376, Note_off_c, 13, 28, 0
23, 170376, Note_off_c, 13, 40, 0
23, 170496, Note_on_c, 13, 29, 127
23, 170496, Note_on_c, 13, 41, 127
23, 170547, Note_off_c, 13, 29, 0
23, 170547, Note_off_c, 13, 41, 0
23, 170666, Note_on_c, 13, 31, 127
23, 170666, Note_on_c, 13, 43, 127
23, 170717, Note_off_c, 13, 31, 0
23, 170717, Note_off_c, 13, 43, 0
23, 170837, Note_on_c, 13, 33, 127
23, 170837, Note_on_c, 13, 45, 127
23, 170888, Note_off_c, 13, 33, 0
23, 170888, Note_off_c, 13, 45, 0
23, 171008, Note_on_c, 13, 31, 119
23, 171008, Note_on_c, 13, 43, 119
23, 171050, Note_off_c, 13, 31, 0
23, 171050, Note_off_c, 13, 43, 0
23, 171093, Note_on_c, 13, 33, 127
23, 171093, Note_on_c, 13, 45, 127
23, 171135, Note_off_c, 13, 33, 0
23, 171135, Note_off_c, 13, 45, 0
23, 171264, Note_on_c, 13, 29, 113
23, 171264, Note_on_c, 13, 41, 113
23, 171340, Note_off_c, 13, 29, 0
23, 171340, Note_off_c, 13, 41, 0
23, 171520, Note_on_c, 13, 33, 127
23, 171520, Note_on_c, 13, 45, 127
23, 171571, Note_off_c, 13, 33, 0
23, 171571, Note_off_c, 13, 45, 0
23, 171690, Note_on_c, 13, 33, 124
23, 171690, Note_on_c, 13, 45, 124
23, 171741, Note_off_c, 13, 33, 0
23, 171741, Note_off_c, 13, 45, 0
23, 171861, Note_on_c, 13, 34, 127
23, 171861, Note_on_c, 13, 46, 127
23, 171912, Note_off_c, 13, 34, 0
23, 171912, Note_off_c, 13, 46, 0
23, 172032, Note_on_c, 13, 34, 127
23, 172032, Note_on_c, 13, 46, 127
23, 172083, Note_off_c, 13, 34, 0
23, 172083, Note_off_c, 13, 46, 0
23, 172202, Note_on_c, 13, 33, 121
23, 172202, Note_on_c, 13, 45, 121
23, 172253, Note_off_c, 13, 33, 0
23, 172253, Note_off_c, 13, 45, 0
23, 172373, Note_on_c, 13, 34, 127
23, 172373, Note_on_c, 13, 46, 127
23, 172424, Note_off_c, 13, 34, 0
23, 172424, Note_off_c, 13, 46, 0
23, 172544, Note_on_c, 13, 36, 127
23, 172544, Note_on_c, 13, 48, 127
23, 172595, Note_off_c, 13, 36, 0
23, 172595, Note_off_c, 13, 48, 0
23, 172714, Note_on_c, 13, 33, 120
23, 172714, Note_on_c, 13, 45, 120
23, 172765, Note_off_c, 13, 33, 0
23, 172765, Note_off_c, 13, 45, 0
23, 172885, Note_on_c, 13, 34, 127
23, 172885, Note_on_c, 13, 46, 127
23, 172936, Note_off_c, 13, 34, 0
23, 172936, Note_off_c, 13, 46, 0
23, 173056, Note_on_c, 13, 34, 127
23, 173056, Note_on_c, 13, 46, 127
23, 173107, Note_off_c, 13, 34, 0
23, 173107, Note_off_c, 13, 46, 0
23, 173226, Note_on_c, 13, 36, 127
23, 173226, Note_on_c, 13, 48, 127
23, 173277, Note_off_c, 13, 36, 0
23, 173277, Note_off_c, 13, 48, 0
23, 173397, Note_on_c, 13, 33, 125
23, 173397, Note_on_c, 13, 45, 125
23, 173448, Note_off_c, 13, 33, 0
23, 173448, Note_off_c, 13, 45, 0
23, 173568, Note_on_c, 13, 34, 127
23, 173568, Note_on_c, 13, 46, 127
23, 173593, Note_off_c, 13, 34, 0
23, 173593, Note_off_c, 13, 46, 0
23, 173653, Note_on_c, 13, 28, 118
23, 173653, Note_on_c, 13, 40, 118
23, 173678, Note_off_c, 13, 28, 0
23, 173678, Note_off_c, 13, 40, 0
23, 173824, Note_on_c, 13, 29, 110
23, 173824, Note_on_c, 13, 41, 110
23, 173900, Note_off_c, 13, 29, 0
23, 173900, Note_off_c, 13, 41, 0
23, 174080, Note_on_c, 13, 28, 124
23, 174080, Note_on_c, 13, 40, 124
23, 174131, Note_off_c, 13, 28, 0
23, 174131, Note_off_c, 13, 40, 0
23, 174250, Note_on_c, 13, 30, 127
23, 174250, Note_on_c, 13, 42, 127
23, 174301, Note_off_c, 13, 30, 0
23, 174301, Note_off_c, 13, 42, 0
23, 174421, Note_on_c, 13, 31, 127
23, 174421, Note_on_c, 13, 43, 127
23, 174472, Note_off_c, 13, 31, 0
23, 174472, Note_off_c, 13, 43, 0
23, 174592, Note_on_c, 13, 33, 127
23, 174592, Note_on_c, 13, 45, 127
23, 174617, Note_off_c, 13, 33, 0
23, 174617, Note_off_c, 13, 45, 0
23, 174762, Note_on_c, 13, 31, 115
23, 174762, Note_on_c, 13, 43, 115
23, 174787, Note_off_c, 13, 31, 0
23, 174787, Note_off_c, 13, 43, 0
23, 174848, Note_on_c, 13, 33, 127
23, 174848, Note_on_c, 13, 45, 127
23, 174873, Note_off_c, 13, 33, 0
23, 174873, Note_off_c, 13, 45, 0
23, 175018, Note_on_c, 13, 34, 116
23, 175018, Note_on_c, 13, 46, 116
23, 175043, Note_off_c, 13, 34, 0
23, 175043, Note_off_c, 13, 46, 0
23, 175189, Note_on_c, 13, 36, 112
23, 175189, Note_on_c, 13, 48, 112
23, 175214, Note_off_c, 13, 36, 0
23, 175214, Note_off_c, 13, 48, 0
23, 175360, Note_on_c, 13, 38, 110
23, 175360, Note_on_c, 13, 50, 110
23, 175385, Note_off_c, 13, 38, 0
23, 175385, Note_off_c, 13, 50, 0
23, 175616, Note_on_c, 13, 38, 114
23, 175616, Note_on_c, 13, 50, 114
23, 175641, Note_off_c, 13, 38, 0
23, 175641, Note_off_c, 13, 50, 0
23, 175701, Note_on_c, 13, 38, 126
23, 175701, Note_on_c, 13, 50, 126
23, 175726, Note_off_c, 13, 38, 0
23, 175726, Note_off_c, 13, 50, 0
23, 175957, Note_on_c, 13, 38, 113
23, 175957, Note_on_c, 13, 50, 113
23, 175982, Note_off_c, 13, 38, 0
23, 175982, Note_off_c, 13, 50, 0
23, 176213, Note_on_c, 13, 43, 114
23, 176238, Note_off_c, 13, 43, 0
23, 176554, Note_on_c, 13, 43, 110
23, 176579, Note_off_c, 13, 43, 0
23, 176981, Note_on_c, 13, 43, 113
23, 177006, Note_off_c, 13, 43, 0
23, 177322, Note_on_c, 13, 43, 112
23, 177347, Note_off_c, 13, 43, 0
23, 177578, Note_on_c, 13, 43, 117
23, 177689, Note_off_c, 13, 43, 0
23, 177749, Note_on_c, 13, 43, 127
23, 177774, Note_off_c, 13, 43, 0
23, 178090, Note_on_c, 13, 43, 113
23, 178115, Note_off_c, 13, 43, 0
23, 178602, Note_on_c, 13, 43, 112
23, 178627, Note_off_c, 13, 43, 0
23, 178944, Note_on_c, 13, 43, 109
23, 178969, Note_off_c, 13, 43, 0
23, 179200, Note_on_c, 13, 43, 112
23, 179225, Note_off_c, 13, 43, 0
23, 179541, Note_on_c, 13, 43, 115
23, 179566, Note_off_c, 13, 43, 0
23, 179882, Note_on_c, 13, 43, 112
23, 179933, Note_off_c, 13, 43, 0
23, 180053, Note_on_c, 13, 43, 125
23, 180104, Note_off_c, 13, 43, 0
23, 180224, Note_on_c, 13, 43, 127
23, 180275, Note_off_c, 13, 43, 0
23, 180394, Note_on_c, 13, 41, 121
23, 180445, Note_off_c, 13, 41, 0
23, 180736, Note_on_c, 13, 41, 112
23, 180787, Note_off_c, 13, 41, 0
23, 181077, Note_on_c, 13, 41, 120
23, 181128, Note_off_c, 13, 41, 0
23, 181248, Note_on_c, 13, 41, 126
23, 181299, Note_off_c, 13, 41, 0
23, 210752, Note_on_c, 13, 34, 117
23, 213248, Note_off_c, 13, 34, 0
23, 213248, Note_on_c, 13, 34, 125
23, 214144, Note_off_c, 13, 34, 0
23, 214144, Note_on_c, 13, 34, 127
23, 214144, Note_on_c, 13, 36, 127
23, 217216, Note_off_c, 13, 34, 0
23, 218624, Note_off_c, 13, 36, 0
23, 218880, Note_on_c, 13, 48, 127
23, 219008, Note_off_c, 13, 48, 0
23, 219520, Note_on_c, 13, 48, 127
23, 219648, Note_off_c, 13, 48, 0
23, 220330, Note_on_c, 13, 48, 127
23, 220501, Note_off_c, 13, 48, 0
23, 221098, Note_on_c, 13, 48, 127
23, 221269, Note_off_c, 13, 48, 0
23, 221866, Note_on_c, 13, 48, 127
23, 222208, Note_off_c, 13, 48, 0
23, 222592, Note_on_c, 13, 48, 127
23, 222848, Note_off_c, 13, 48, 0
23, 223402, Note_on_c, 13, 48, 127
23, 223573, Note_off_c, 13, 48, 0
23, 223744, Note_on_c, 13, 36, 127
23, 224000, Note_off_c, 13, 36, 0
23, 224256, Note_on_c, 13, 48, 127
23, 224384, Note_off_c, 13, 48, 0
23, 224384, Note_on_c, 13, 36, 127
23, 224512, Note_off_c, 13, 36, 0
23, 224768, Note_on_c, 13, 48, 127
23, 224896, Note_off_c, 13, 48, 0
23, 225024, Note_on_c, 13, 48, 127
23, 225152, Note_off_c, 13, 48, 0
23, 225152, Note_on_c, 13, 36, 127
23, 225280, Note_off_c, 13, 36, 0
23, 225621, Note_on_c, 13, 48, 127
23, 225706, Note_off_c, 13, 48, 0
23, 225920, Note_on_c, 13, 48, 127
23, 226048, Note_off_c, 13, 48, 0
23, 226048, Note_on_c, 13, 36, 127
23, 226176, Note_off_c, 13, 36, 0
23, 226432, Note_on_c, 13, 48, 127
23, 226560, Note_off_c, 13, 48, 0
23, 226816, Note_on_c, 13, 48, 127
23, 226986, Note_off_c, 13, 48, 0
23, 226986, Note_on_c, 13, 36, 127
23, 227157, Note_off_c, 13, 36, 0
23, 227456, Note_on_c, 13, 48, 127
23, 227584, Note_off_c, 13, 48, 0
23, 227712, Note_on_c, 13, 48, 127
23, 227882, Note_off_c, 13, 48, 0
23, 227882, Note_on_c, 13, 36, 127
23, 228096, Note_off_c, 13, 36, 0
23, 228224, Note_on_c, 13, 48, 127
23, 228352, Note_off_c, 13, 48, 0
23, 228608, Note_on_c, 13, 48, 127
23, 228864, Note_off_c, 13, 48, 0
23, 228864, Note_on_c, 13, 36, 127
23, 228992, Note_off_c, 13, 36, 0
23, 229248, Note_on_c, 13, 48, 127
23, 229376, Note_off_c, 13, 48, 0
23, 229504, Note_on_c, 13, 36, 127
23, 229632, Note_off_c, 13, 36, 0
23, 229760, Note_on_c, 13, 48, 127
23, 229888, Note_off_c, 13, 48, 0
23, 230144, Note_on_c, 13, 32, 127
23, 230272, Note_off_c, 13, 32, 0
23, 230528, Note_on_c, 13, 32, 127
23, 230656, Note_off_c, 13, 32, 0
23, 230912, Note_on_c, 13, 32, 127
23, 231040, Note_off_c, 13, 32, 0
23, 231296, Note_on_c, 13, 32, 127
23, 231424, Note_off_c, 13, 32, 0
23, 231680, Note_on_c, 13, 32, 127
23, 231808, Note_off_c, 13, 32, 0
23, 232064, Note_on_c, 13, 35, 127
23, 232192, Note_off_c, 13, 35, 0
23, 232448, Note_on_c, 13, 33, 127
23, 232576, Note_off_c, 13, 33, 0
23, 232832, Note_on_c, 13, 36, 127
23, 232960, Note_off_c, 13, 36, 0
23, 233344, Note_on_c, 13, 39, 127
23, 233472, Note_off_c, 13, 39, 0
23, 233856, Note_on_c, 13, 40, 127
23, 233984, Note_off_c, 13, 40, 0
23, 234240, Note_on_c, 13, 39, 127
23, 234368, Note_off_c, 13, 39, 0
23, 234880, Note_on_c, 13, 41, 127
23, 235008, Note_off_c, 13, 41, 0
23, 235264, Note_on_c, 13, 41, 127
23, 235392, Note_off_c, 13, 41, 0
23, 235648, Note_on_c, 13, 41, 127
23, 235776, Note_off_c, 13, 41, 0
23, 236032, Note_on_c, 13, 41, 127
23, 236160, Note_off_c, 13, 41, 0
23, 236416, Note_on_c, 13, 41, 127
23, 236544, Note_off_c, 13, 41, 0
23, 236800, Note_on_c, 13, 41, 127
23, 236928, Note_off_c, 13, 41, 0
23, 237184, Note_on_c, 13, 41, 127
23, 237312, Note_off_c, 13, 41, 0
23, 237568, Note_on_c, 13, 41, 127
23, 237696, Note_off_c, 13, 41, 0
23, 237824, Note_on_c, 13, 38, 127
23, 238016, Note_off_c, 13, 38, 0
23, 238208, Note_on_c, 13, 35, 127
23, 238208, Note_on_c, 13, 47, 127
23, 238400, Note_off_c, 13, 35, 0
23, 238400, Note_off_c, 13, 47, 0
23, 238592, Note_on_c, 13, 32, 127
23, 238592, Note_on_c, 13, 44, 127
23, 238784, Note_off_c, 13, 32, 0
23, 238784, Note_off_c, 13, 44, 0
23, 238976, Note_on_c, 13, 29, 127
23, 238976, Note_on_c, 13, 41, 127
23, 239168, Note_off_c, 13, 29, 0
23, 239168, Note_off_c, 13, 41, 0
23, 239360, Note_on_c, 13, 26, 127
23, 239360, Note_on_c, 13, 38, 127
23, 239552, Note_off_c, 13, 26, 0
23, 239552, Note_off_c, 13, 38, 0
23, 239744, Note_on_c, 13, 25, 127
23, 240000, Note_off_c, 13, 25, 0
23, 240256, Note_on_c, 13, 44, 116
23, 240320, Note_off_c, 13, 44, 0
23, 240320, Note_on_c, 13, 44, 126
23, 240384, Note_off_c, 13, 44, 0
23, 240384, Note_on_c, 13, 46, 127
23, 240448, Note_off_c, 13, 46, 0
23, 240640, Note_on_c, 13, 46, 113
23, 240704, Note_off_c, 13, 46, 0
23, 240704, Note_on_c, 13, 46, 124
23, 240768, Note_off_c, 13, 46, 0
23, 240768, Note_on_c, 13, 47, 127
23, 240832, Note_off_c, 13, 47, 0
23, 241024, Note_on_c, 13, 46, 114
23, 241088, Note_off_c, 13, 46, 0
23, 241152, Note_on_c, 13, 46, 127
23, 241216, Note_off_c, 13, 46, 0
23, 241216, Note_on_c, 13, 46, 127
23, 241280, Note_off_c, 13, 46, 0
23, 241280, Note_on_c, 13, 47, 127
23, 241344, Note_off_c, 13, 47, 0
23, 241408, Note_on_c, 13, 47, 127
23, 241536, Note_off_c, 13, 47, 0
23, 241664, Note_on_c, 13, 49, 127
23, 241792, Note_off_c, 13, 49, 0
23, 241792, Note_on_c, 13, 50, 127
23, 241920, Note_off_c, 13, 50, 0
23, 241920, Note_on_c, 13, 47, 127
23, 242048, Note_off_c, 13, 47, 0
23, 242176, Note_on_c, 13, 49, 127
23, 242304, Note_off_c, 13, 49, 0
23, 242304, Note_on_c, 13, 50, 127
23, 242432, Note_off_c, 13, 50, 0
23, 242432, Note_on_c, 13, 52, 127
23, 242560, Note_off_c, 13, 52, 0
23, 242688, Note_on_c, 13, 53, 127
23, 242816, Note_off_c, 13, 53, 0
23, 242816, Note_on_c, 13, 53, 127
23, 242944, Note_off_c, 13, 53, 0
23, 243072, Note_on_c, 13, 53, 127
23, 243200, Note_off_c, 13, 53, 0
23, 243200, Note_on_c, 13, 54, 127
23, 243328, Note_off_c, 13, 54, 0
23, 243456, Note_on_c, 13, 56, 127
23, 243584, Note_off_c, 13, 56, 0
23, 243584, Note_on_c, 13, 58, 127
23, 243712, Note_off_c, 13, 58, 0
23, 243840, Note_on_c, 13, 56, 127
23, 243968, Note_off_c, 13, 56, 0
23, 243968, Note_on_c, 13, 58, 127
23, 244224, Note_off_c, 13, 58, 0
23, 244224, Note_on_c, 13, 55, 127
23, 244352, Note_off_c, 13, 55, 0
23, 244352, Note_on_c, 13, 59, 127
23, 244608, Note_off_c, 13, 59, 0
23, 244608, Note_on_c, 13, 62, 127
23, 244736, Note_off_c, 13, 62, 0
23, 244736, Note_on_c, 13, 56, 127
23, 244864, Note_off_c, 13, 56, 0
23, 244864, Note_on_c, 13, 61, 127
23, 245120, Note_off_c, 13, 61, 0
23, 246144, Note_on_c, 13, 31, 113
23, 246144, Note_on_c, 13, 46, 113
23, 250112, Note_off_c, 13, 31, 0
23, 250112, Note_off_c, 13, 46, 0
23, 250112, Note_on_c, 13, 31, 115
23, 250112, Note_on_c, 13, 46, 115
23, 251840, Note_on_c, 13, 19, 113
23, 251904, Note_off_c, 13, 46, 0
23, 251904, Note_on_c, 13, 46, 97
23, 252928, Note_off_c, 13, 31, 0
23, 252928, Note_on_c, 13, 31, 87
23, 253952, Note_off_c, 13, 46, 0
23, 253952, Note_on_c, 13, 46, 90
23, 256000, Note_off_c, 13, 46, 0
23, 257536, Note_off_c, 13, 31, 0
23, 257536, Note_off_c, 13, 19, 0
23, 257536, Note_on_c, 13, 31, 62
23, 257536, Note_on_c, 13, 34, 62
23, 257536, Note_on_c, 13, 19, 71
23, 257536, Note_on_c, 13, 34, 71
23, 259072, Note_on_c, 13, 46, 71
23, 259072, Note_on_c, 13, 46, 83
23, 260608, Note_on_c, 13, 51, 91
23, 262656, Note_on_c, 13, 44, 71
23, 262656, Note_on_c, 13, 44, 89
23, 265472, Note_off_c, 13, 31, 0
23, 265472, Note_off_c, 13, 34, 0
23, 265472, Note_off_c, 13, 46, 0
23, 265472, Note_off_c, 13, 44, 0
23, 265472, Note_off_c, 13, 19, 0
23, 265472, Note_off_c, 13, 34, 0
23, 265472, Note_off_c, 13, 46, 0
23, 265472, Note_off_c, 13, 51, 0
23, 265472, Note_off_c, 13, 44, 0
23, 299008, Note_on_c, 13, 34, 64
23, 302336, Note_off_c, 13, 34, 0
23, 302336, Note_on_c, 13, 36, 75
23, 305920, Note_off_c, 13, 36, 0
23, 305920, Note_on_c, 13, 38, 72
23, 307968, Note_off_c, 13, 38, 0
23, 307968, Note_on_c, 13, 25, 64
23, 309248, Note_off_c, 13, 25, 0
23, 309248, Note_on_c, 13, 35, 77
23, 309376, Note_on_c, 13, 62, 64
23, 309376, Note_on_c, 13, 64, 64
23, 309440, Note_off_c, 13, 62, 0
23, 309440, Note_off_c, 13, 64, 0
23, 309504, Note_on_c, 13, 62, 68
23, 309504, Note_on_c, 13, 64, 68
23, 309568, Note_off_c, 13, 62, 0
23, 309568, Note_off_c, 13, 64, 0
23, 309632, Note_on_c, 13, 62, 74
23, 309632, Note_on_c, 13, 64, 74
23, 309696, Note_off_c, 13, 62, 0
23, 309696, Note_off_c, 13, 64, 0
23, 309760, Note_on_c, 13, 62, 70
23, 309760, Note_on_c, 13, 64, 70
23, 309824, Note_off_c, 13, 62, 0
23, 309824, Note_off_c, 13, 64, 0
23, 309888, Note_on_c, 13, 62, 69
23, 309888, Note_on_c, 13, 64, 69
23, 309952, Note_off_c, 13, 62, 0
23, 309952, Note_off_c, 13, 64, 0
23, 310016, Note_on_c, 13, 62, 71
23, 310016, Note_on_c, 13, 64, 71
23, 310080, Note_off_c, 13, 62, 0
23, 310080, Note_off_c, 13, 64, 0
23, 310144, Note_on_c, 13, 62, 74
23, 310144, Note_on_c, 13, 64, 74
23, 310208, Note_off_c, 13, 62, 0
23, 310208, Note_off_c, 13, 64, 0
23, 310272, Note_on_c, 13, 62, 70
23, 310272, Note_on_c, 13, 64, 70
23, 310336, Note_off_c, 13, 62, 0
23, 310336, Note_off_c, 13, 64, 0
23, 310400, Note_on_c, 13, 62, 64
23, 310400, Note_on_c, 13, 64, 64
23, 310464, Note_off_c, 13, 62, 0
23, 310464, Note_off_c, 13, 64, 0
23, 310528, Note_on_c, 13, 62, 71
23, 310528, Note_on_c, 13, 64, 71
23, 310592, Note_off_c, 13, 62, 0
23, 310592, Note_off_c, 13, 64, 0
23, 310656, Note_on_c, 13, 62, 77
23, 310656, Note_on_c, 13, 64, 77
23, 310720, Note_off_c, 13, 62, 0
23, 310720, Note_off_c, 13, 64, 0
23, 310784, Note_on_c, 13, 62, 75
23, 310784, Note_on_c, 13, 64, 75
23, 310848, Note_off_c, 13, 62, 0
23, 310848, Note_off_c, 13, 64, 0
23, 310912, Note_on_c, 13, 62, 71
23, 310912, Note_on_c, 13, 64, 71
23, 310976, Note_off_c, 13, 62, 0
23, 310976, Note_off_c, 13, 64, 0
23, 311040, Note_on_c, 13, 62, 70
23, 311040, Note_on_c, 13, 64, 70
23, 311104, Note_off_c, 13, 62, 0
23, 311104, Note_off_c, 13, 64, 0
23, 311168, Note_on_c, 13, 62, 71
23, 311168, Note_on_c, 13, 64, 71
23, 311232, Note_off_c, 13, 62, 0
23, 311232, Note_off_c, 13, 64, 0
23, 311296, Note_off_c, 13, 35, 0
23, 311296, Note_on_c, 13, 29, 63
23, 311296, Note_on_c, 13, 59, 78
23, 311296, Note_on_c, 13, 65, 78
23, 311360, Note_off_c, 13, 59, 0
23, 311360, Note_off_c, 13, 65, 0
23, 311424, Note_on_c, 13, 59, 70
23, 311424, Note_on_c, 13, 65, 70
23, 311488, Note_off_c, 13, 59, 0
23, 311488, Note_off_c, 13, 65, 0
23, 311552, Note_on_c, 13, 59, 74
23, 311552, Note_on_c, 13, 65, 74
23, 311616, Note_off_c, 13, 59, 0
23, 311616, Note_off_c, 13, 65, 0
23, 311680, Note_on_c, 13, 59, 77
23, 311680, Note_on_c, 13, 65, 77
23, 311744, Note_off_c, 13, 59, 0
23, 311744, Note_off_c, 13, 65, 0
23, 311808, Note_on_c, 13, 59, 65
23, 311808, Note_on_c, 13, 65, 65
23, 311872, Note_off_c, 13, 59, 0
23, 311872, Note_off_c, 13, 65, 0
23, 311936, Note_on_c, 13, 59, 71
23, 311936, Note_on_c, 13, 65, 71
23, 312000, Note_off_c, 13, 59, 0
23, 312000, Note_off_c, 13, 65, 0
23, 312064, Note_on_c, 13, 59, 72
23, 312064, Note_on_c, 13, 65, 72
23, 312128, Note_off_c, 13, 59, 0
23, 312128, Note_off_c, 13, 65, 0
23, 312192, Note_on_c, 13, 59, 73
23, 312192, Note_on_c, 13, 65, 73
23, 312256, Note_off_c, 13, 59, 0
23, 312256, Note_off_c, 13, 65, 0
23, 312320, Note_on_c, 13, 59, 67
23, 312320, Note_on_c, 13, 65, 67
23, 312384, Note_off_c, 13, 59, 0
23, 312384, Note_off_c, 13, 65, 0
23, 312448, Note_on_c, 13, 59, 70
23, 312448, Note_on_c, 13, 65, 70
23, 312512, Note_off_c, 13, 59, 0
23, 312512, Note_off_c, 13, 65, 0
23, 312576, Note_on_c, 13, 59, 71
23, 312576, Note_on_c, 13, 65, 71
23, 312640, Note_off_c, 13, 59, 0
23, 312640, Note_off_c, 13, 65, 0
23, 312704, Note_on_c, 13, 59, 75
23, 312704, Note_on_c, 13, 65, 75
23, 312768, Note_off_c, 13, 59, 0
23, 312768, Note_off_c, 13, 65, 0
23, 312832, Note_on_c, 13, 59, 71
23, 312832, Note_on_c, 13, 65, 71
23, 312896, Note_off_c, 13, 59, 0
23, 312896, Note_off_c, 13, 65, 0
23, 312960, Note_on_c, 13, 59, 70
23, 312960, Note_on_c, 13, 65, 70
23, 313024, Note_off_c, 13, 59, 0
23, 313024, Note_off_c, 13, 65, 0
23, 313088, Note_on_c, 13, 59, 74
23, 313088, Note_on_c, 13, 65, 74
23, 313152, Note_off_c, 13, 59, 0
23, 313152, Note_off_c, 13, 65, 0
23, 313216, Note_on_c, 13, 59, 73
23, 313216, Note_on_c, 13, 65, 73
23, 313280, Note_off_c, 13, 59, 0
23, 313280, Note_off_c, 13, 65, 0
23, 313344, Note_on_c, 13, 59, 75
23, 313344, Note_on_c, 13, 65, 75
23, 313408, Note_off_c, 13, 59, 0
23, 313408, Note_off_c, 13, 65, 0
23, 313472, Note_on_c, 13, 63, 70
23, 313472, Note_on_c, 13, 65, 70
23, 313536, Note_off_c, 13, 63, 0
23, 313536, Note_off_c, 13, 65, 0
23, 313600, Note_off_c, 13, 29, 0
23, 313600, Note_on_c, 13, 24, 78
23, 313600, Note_on_c, 13, 63, 75
23, 313600, Note_on_c, 13, 65, 75
23, 313664, Note_off_c, 13, 63, 0
23, 313664, Note_off_c, 13, 65, 0
23, 313728, Note_on_c, 13, 63, 70
23, 313728, Note_on_c, 13, 65, 70
23, 313792, Note_off_c, 13, 63, 0
23, 313792, Note_off_c, 13, 65, 0
23, 313856, Note_on_c, 13, 63, 72
23, 313856, Note_on_c, 13, 65, 72
23, 313920, Note_off_c, 13, 63, 0
23, 313920, Note_off_c, 13, 65, 0
23, 313984, Note_on_c, 13, 63, 71
23, 313984, Note_on_c, 13, 65, 71
23, 314048, Note_off_c, 13, 63, 0
23, 314048, Note_off_c, 13, 65, 0
23, 314112, Note_on_c, 13, 63, 70
23, 314112, Note_on_c, 13, 65, 70
23, 314176, Note_off_c, 13, 63, 0
23, 314176, Note_off_c, 13, 65, 0
23, 314240, Note_on_c, 13, 63, 70
23, 314240, Note_on_c, 13, 65, 70
23, 314304, Note_off_c, 13, 63, 0
23, 314304, Note_off_c, 13, 65, 0
23, 314368, Note_on_c, 13, 63, 70
23, 314368, Note_on_c, 13, 65, 70
23, 314432, Note_off_c, 13, 63, 0
23, 314432, Note_off_c, 13, 65, 0
23, 314496, Note_on_c, 13, 63, 70
23, 314496, Note_on_c, 13, 65, 70
23, 314560, Note_off_c, 13, 63, 0
23, 314560, Note_off_c, 13, 65, 0
23, 314624, Note_on_c, 13, 63, 72
23, 314624, Note_on_c, 13, 65, 72
23, 314688, Note_off_c, 13, 63, 0
23, 314688, Note_off_c, 13, 65, 0
23, 314752, Note_on_c, 13, 63, 70
23, 314752, Note_on_c, 13, 65, 70
23, 314816, Note_off_c, 13, 63, 0
23, 314816, Note_off_c, 13, 65, 0
23, 314880, Note_on_c, 13, 63, 72
23, 314880, Note_on_c, 13, 65, 72
23, 314944, Note_off_c, 13, 63, 0
23, 314944, Note_off_c, 13, 65, 0
23, 315008, Note_on_c, 13, 63, 68
23, 315008, Note_on_c, 13, 65, 68
23, 315072, Note_off_c, 13, 63, 0
23, 315072, Note_off_c, 13, 65, 0
23, 315136, Note_on_c, 13, 63, 73
23, 315136, Note_on_c, 13, 65, 73
23, 315200, Note_off_c, 13, 63, 0
23, 315200, Note_off_c, 13, 65, 0
23, 315264, Note_on_c, 13, 63, 70
23, 315264, Note_on_c, 13, 65, 70
23, 315328, Note_off_c, 13, 63, 0
23, 315328, Note_off_c, 13, 65, 0
23, 315392, Note_on_c, 13, 63, 73
23, 315392, Note_on_c, 13, 65, 73
23, 315456, Note_off_c, 13, 63, 0
23, 315456, Note_off_c, 13, 65, 0
23, 315520, Note_on_c, 13, 63, 72
23, 315520, Note_on_c, 13, 65, 72
23, 315584, Note_off_c, 13, 63, 0
23, 315584, Note_off_c, 13, 65, 0
23, 315648, Note_off_c, 13, 24, 0
23, 315648, Note_on_c, 13, 39, 94
23, 315648, Note_on_c, 13, 63, 68
23, 315648, Note_on_c, 13, 65, 68
23, 315712, Note_off_c, 13, 63, 0
23, 315712, Note_off_c, 13, 65, 0
23, 315776, Note_on_c, 13, 63, 70
23, 315776, Note_on_c, 13, 65, 70
23, 315840, Note_off_c, 13, 63, 0
23, 315840, Note_off_c, 13, 65, 0
23, 315904, Note_on_c, 13, 63, 72
23, 315904, Note_on_c, 13, 65, 72
23, 315968, Note_off_c, 13, 63, 0
23, 315968, Note_off_c, 13, 65, 0
23, 316032, Note_on_c, 13, 63, 76
23, 316032, Note_on_c, 13, 65, 76
23, 316096, Note_off_c, 13, 63, 0
23, 316096, Note_off_c, 13, 65, 0
23, 316160, Note_on_c, 13, 63, 75
23, 316160, Note_on_c, 13, 65, 75
23, 316224, Note_off_c, 13, 63, 0
23, 316224, Note_off_c, 13, 65, 0
23, 316288, Note_on_c, 13, 64, 70
23, 316288, Note_on_c, 13, 66, 70
23, 316352, Note_off_c, 13, 64, 0
23, 316352, Note_off_c, 13, 66, 0
23, 316416, Note_off_c, 13, 39, 0
23, 316416, Note_on_c, 13, 33, 79
23, 316416, Note_on_c, 13, 64, 69
23, 316416, Note_on_c, 13, 65, 69
23, 316480, Note_off_c, 13, 64, 0
23, 316480, Note_off_c, 13, 65, 0
23, 316544, Note_on_c, 13, 64, 76
23, 316544, Note_on_c, 13, 65, 76
23, 316608, Note_off_c, 13, 64, 0
23, 316608, Note_off_c, 13, 65, 0
23, 316672, Note_on_c, 13, 64, 76
23, 316672, Note_on_c, 13, 66, 76
23, 316736, Note_off_c, 13, 64, 0
23, 316736, Note_off_c, 13, 66, 0
23, 316800, Note_on_c, 13, 64, 75
23, 316800, Note_on_c, 13, 66, 75
23, 316864, Note_off_c, 13, 64, 0
23, 316864, Note_off_c, 13, 66, 0
23, 316928, Note_on_c, 13, 64, 68
23, 316928, Note_on_c, 13, 66, 68
23, 316992, Note_off_c, 13, 64, 0
23, 316992, Note_off_c, 13, 66, 0
23, 317056, Note_on_c, 13, 64, 72
23, 317056, Note_on_c, 13, 66, 72
23, 317120, Note_off_c, 13, 64, 0
23, 317120, Note_off_c, 13, 66, 0
23, 317184, Note_on_c, 13, 64, 73
23, 317184, Note_on_c, 13, 66, 73
23, 317248, Note_off_c, 13, 64, 0
23, 317248, Note_off_c, 13, 66, 0
23, 317312, Note_on_c, 13, 64, 71
23, 317312, Note_on_c, 13, 66, 71
23, 317376, Note_off_c, 13, 64, 0
23, 317376, Note_off_c, 13, 66, 0
23, 317440, Note_on_c, 13, 64, 67
23, 317440, Note_on_c, 13, 66, 67
23, 317504, Note_off_c, 13, 64, 0
23, 317504, Note_off_c, 13, 66, 0
23, 317568, Note_on_c, 13, 64, 72
23, 317568, Note_on_c, 13, 66, 72
23, 317632, Note_off_c, 13, 64, 0
23, 317632, Note_off_c, 13, 66, 0
23, 317696, Note_on_c, 13, 64, 69
23, 317696, Note_on_c, 13, 66, 69
23, 317760, Note_off_c, 13, 64, 0
23, 317760, Note_off_c, 13, 66, 0
23, 317824, Note_on_c, 13, 64, 71
23, 317824, Note_on_c, 13, 66, 71
23, 317888, Note_off_c, 13, 64, 0
23, 317888, Note_off_c, 13, 66, 0
23, 317952, Note_on_c, 13, 64, 75
23, 317952, Note_on_c, 13, 66, 75
23, 318016, Note_off_c, 13, 64, 0
23, 318016, Note_off_c, 13, 66, 0
23, 318080, Note_on_c, 13, 64, 70
23, 318080, Note_on_c, 13, 66, 70
23, 318144, Note_off_c, 13, 64, 0
23, 318144, Note_off_c, 13, 66, 0
23, 318208, Note_off_c, 13, 33, 0
23, 318208, Note_on_c, 13, 37, 87
23, 318208, Note_on_c, 13, 57, 66
23, 318208, Note_on_c, 13, 61, 66
23, 318208, Note_on_c, 13, 63, 66
23, 318208, Note_on_c, 13, 66, 66
23, 318272, Note_off_c, 13, 57, 0
23, 318272, Note_off_c, 13, 61, 0
23, 318272, Note_off_c, 13, 63, 0
23, 318272, Note_off_c, 13, 66, 0
23, 318336, Note_on_c, 13, 57, 70
23, 318336, Note_on_c, 13, 61, 70
23, 318336, Note_on_c, 13, 63, 70
23, 318336, Note_on_c, 13, 66, 70
23, 318400, Note_off_c, 13, 57, 0
23, 318400, Note_off_c, 13, 61, 0
23, 318400, Note_off_c, 13, 63, 0
23, 318400, Note_off_c, 13, 66, 0
23, 318464, Note_on_c, 13, 57, 70
23, 318464, Note_on_c, 13, 61, 70
23, 318464, Note_on_c, 13, 63, 70
23, 318464, Note_on_c, 13, 66, 70
23, 318528, Note_off_c, 13, 57, 0
23, 318528, Note_off_c, 13, 61, 0
23, 318528, Note_off_c, 13, 63, 0
23, 318528, Note_off_c, 13, 66, 0
23, 318592, Note_on_c, 13, 57, 74
23, 318592, Note_on_c, 13, 61, 74
23, 318592, Note_on_c, 13, 63, 74
23, 318592, Note_on_c, 13, 66, 74
23, 318656, Note_off_c, 13, 57, 0
23, 318656, Note_off_c, 13, 61, 0
23, 318656, Note_off_c, 13, 63, 0
23, 318656, Note_off_c, 13, 66, 0
23, 318720, Note_on_c, 13, 57, 72
23, 318720, Note_on_c, 13, 61, 72
23, 318720, Note_on_c, 13, 63, 72
23, 318720, Note_on_c, 13, 66, 72
23, 318784, Note_off_c, 13, 57, 0
23, 318784, Note_off_c, 13, 61, 0
23, 318784, Note_off_c, 13, 63, 0
23, 318784, Note_off_c, 13, 66, 0
23, 318848, Note_on_c, 13, 57, 73
23, 318848, Note_on_c, 13, 61, 73
23, 318848, Note_on_c, 13, 63, 73
23, 318848, Note_on_c, 13, 66, 73
23, 318912, Note_off_c, 13, 57, 0
23, 318912, Note_off_c, 13, 61, 0
23, 318912, Note_off_c, 13, 63, 0
23, 318912, Note_off_c, 13, 66, 0
23, 318976, Note_on_c, 13, 57, 66
23, 318976, Note_on_c, 13, 61, 66
23, 318976, Note_on_c, 13, 63, 66
23, 318976, Note_on_c, 13, 66, 66
23, 319040, Note_off_c, 13, 57, 0
23, 319040, Note_off_c, 13, 61, 0
23, 319040, Note_off_c, 13, 63, 0
23, 319040, Note_off_c, 13, 66, 0
23, 319104, Note_on_c, 13, 57, 65
23, 319104, Note_on_c, 13, 61, 65
23, 319104, Note_on_c, 13, 63, 65
23, 319104, Note_on_c, 13, 66, 65
23, 319168, Note_off_c, 13, 57, 0
23, 319168, Note_off_c, 13, 61, 0
23, 319168, Note_off_c, 13, 63, 0
23, 319168, Note_off_c, 13, 66, 0
23, 319232, Note_on_c, 13, 57, 74
23, 319232, Note_on_c, 13, 61, 74
23, 319232, Note_on_c, 13, 63, 74
23, 319232, Note_on_c, 13, 66, 74
23, 319296, Note_off_c, 13, 57, 0
23, 319296, Note_off_c, 13, 61, 0
23, 319296, Note_off_c, 13, 63, 0
23, 319296, Note_off_c, 13, 66, 0
23, 319360, Note_on_c, 13, 57, 74
23, 319360, Note_on_c, 13, 61, 74
23, 319360, Note_on_c, 13, 63, 74
23, 319360, Note_on_c, 13, 66, 74
23, 319424, Note_off_c, 13, 57, 0
23, 319424, Note_off_c, 13, 61, 0
23, 319424, Note_off_c, 13, 63, 0
23, 319424, Note_off_c, 13, 66, 0
23, 319488, Note_on_c, 13, 57, 69
23, 319488, Note_on_c, 13, 61, 69
23, 319488, Note_on_c, 13, 63, 69
23, 319488, Note_on_c, 13, 66, 69
23, 319552, Note_off_c, 13, 57, 0
23, 319552, Note_off_c, 13, 61, 0
23, 319552, Note_off_c, 13, 63, 0
23, 319552, Note_off_c, 13, 66, 0
23, 319616, Note_on_c, 13, 57, 72
23, 319616, Note_on_c, 13, 61, 72
23, 319616, Note_on_c, 13, 63, 72
23, 319616, Note_on_c, 13, 66, 72
23, 319680, Note_off_c, 13, 57, 0
23, 319680, Note_off_c, 13, 61, 0
23, 319680, Note_off_c, 13, 63, 0
23, 319680, Note_off_c, 13, 66, 0
23, 319744, Note_on_c, 13, 57, 73
23, 319744, Note_on_c, 13, 61, 73
23, 319744, Note_on_c, 13, 63, 73
23, 319744, Note_on_c, 13, 66, 73
23, 319808, Note_off_c, 13, 57, 0
23, 319808, Note_off_c, 13, 61, 0
23, 319808, Note_off_c, 13, 63, 0
23, 319808, Note_off_c, 13, 66, 0
23, 319872, Note_on_c, 13, 57, 71
23, 319872, Note_on_c, 13, 61, 71
23, 319872, Note_on_c, 13, 63, 71
23, 319872, Note_on_c, 13, 66, 71
23, 319936, Note_off_c, 13, 57, 0
23, 319936, Note_off_c, 13, 61, 0
23, 319936, Note_off_c, 13, 63, 0
23, 319936, Note_off_c, 13, 66, 0
23, 320000, Note_on_c, 13, 57, 74
23, 320000, Note_on_c, 13, 61, 74
23, 320000, Note_on_c, 13, 63, 74
23, 320000, Note_on_c, 13, 66, 74
23, 320064, Note_off_c, 13, 57, 0
23, 320064, Note_off_c, 13, 61, 0
23, 320064, Note_off_c, 13, 63, 0
23, 320064, Note_off_c, 13, 66, 0
23, 320128, Note_on_c, 13, 57, 69
23, 320128, Note_on_c, 13, 61, 69
23, 320128, Note_on_c, 13, 63, 69
23, 320128, Note_on_c, 13, 66, 69
23, 320192, Note_off_c, 13, 57, 0
23, 320192, Note_off_c, 13, 61, 0
23, 320192, Note_off_c, 13, 63, 0
23, 320192, Note_off_c, 13, 66, 0
23, 320256, Note_on_c, 13, 57, 69
23, 320256, Note_on_c, 13, 61, 69
23, 320256, Note_on_c, 13, 63, 69
23, 320256, Note_on_c, 13, 66, 69
23, 320320, Note_off_c, 13, 57, 0
23, 320320, Note_off_c, 13, 61, 0
23, 320320, Note_off_c, 13, 63, 0
23, 320320, Note_off_c, 13, 66, 0
23, 320384, Note_on_c, 13, 57, 66
23, 320384, Note_on_c, 13, 61, 66
23, 320384, Note_on_c, 13, 63, 66
23, 320384, Note_on_c, 13, 66, 66
23, 320448, Note_off_c, 13, 57, 0
23, 320448, Note_off_c, 13, 61, 0
23, 320448, Note_off_c, 13, 63, 0
23, 320448, Note_off_c, 13, 66, 0
23, 320512, Note_off_c, 13, 37, 0
23, 320512, Note_on_c, 13, 28, 75
23, 320512, Note_on_c, 13, 57, 66
23, 320512, Note_on_c, 13, 62, 66
23, 320512, Note_on_c, 13, 65, 66
23, 320576, Note_off_c, 13, 57, 0
23, 320576, Note_off_c, 13, 62, 0
23, 320576, Note_off_c, 13, 65, 0
23, 320640, Note_on_c, 13, 57, 69
23, 320640, Note_on_c, 13, 62, 69
23, 320640, Note_on_c, 13, 65, 69
23, 320704, Note_off_c, 13, 57, 0
23, 320704, Note_off_c, 13, 62, 0
23, 320704, Note_off_c, 13, 65, 0
23, 320768, Note_on_c, 13, 57, 72
23, 320768, Note_on_c, 13, 62, 72
23, 320768, Note_on_c, 13, 65, 72
23, 320832, Note_off_c, 13, 57, 0
23, 320832, Note_off_c, 13, 62, 0
23, 320832, Note_off_c, 13, 65, 0
23, 320896, Note_on_c, 13, 57, 75
23, 320896, Note_on_c, 13, 62, 75
23, 320896, Note_on_c, 13, 65, 75
23, 320960, Note_off_c, 13, 57, 0
23, 320960, Note_off_c, 13, 62, 0
23, 320960, Note_off_c, 13, 65, 0
23, 321024, Note_on_c, 13, 57, 71
23, 321024, Note_on_c, 13, 62, 71
23, 321024, Note_on_c, 13, 65, 71
23, 321088, Note_off_c, 13, 57, 0
23, 321088, Note_off_c, 13, 62, 0
23, 321088, Note_off_c, 13, 65, 0
23, 321152, Note_on_c, 13, 57, 72
23, 321152, Note_on_c, 13, 62, 72
23, 321152, Note_on_c, 13, 65, 72
23, 321216, Note_off_c, 13, 57, 0
23, 321216, Note_off_c, 13, 62, 0
23, 321216, Note_off_c, 13, 65, 0
23, 321280, Note_on_c, 13, 57, 70
23, 321280, Note_on_c, 13, 62, 70
23, 321280, Note_on_c, 13, 65, 70
23, 321344, Note_off_c, 13, 57, 0
23, 321344, Note_off_c, 13, 62, 0
23, 321344, Note_off_c, 13, 65, 0
23, 321408, Note_on_c, 13, 57, 66
23, 321408, Note_on_c, 13, 62, 66
23, 321408, Note_on_c, 13, 65, 66
23, 321472, Note_off_c, 13, 57, 0
23, 321472, Note_off_c, 13, 62, 0
23, 321472, Note_off_c, 13, 65, 0
23, 321536, Note_on_c, 13, 57, 72
23, 321536, Note_on_c, 13, 62, 72
23, 321536, Note_on_c, 13, 65, 72
23, 321600, Note_off_c, 13, 57, 0
23, 321600, Note_off_c, 13, 62, 0
23, 321600, Note_off_c, 13, 65, 0
23, 321664, Note_on_c, 13, 57, 75
23, 321664, Note_on_c, 13, 62, 75
23, 321664, Note_on_c, 13, 65, 75
23, 321728, Note_off_c, 13, 57, 0
23, 321728, Note_off_c, 13, 62, 0
23, 321728, Note_off_c, 13, 65, 0
23, 321792, Note_on_c, 13, 57, 68
23, 321792, Note_on_c, 13, 62, 68
23, 321792, Note_on_c, 13, 65, 68
23, 321856, Note_off_c, 13, 57, 0
23, 321856, Note_off_c, 13, 62, 0
23, 321856, Note_off_c, 13, 65, 0
23, 321920, Note_on_c, 13, 57, 69
23, 321920, Note_on_c, 13, 62, 69
23, 321920, Note_on_c, 13, 65, 69
23, 321984, Note_off_c, 13, 57, 0
23, 321984, Note_off_c, 13, 62, 0
23, 321984, Note_off_c, 13, 65, 0
23, 322048, Note_on_c, 13, 57, 70
23, 322048, Note_on_c, 13, 62, 70
23, 322048, Note_on_c, 13, 65, 70
23, 322112, Note_off_c, 13, 57, 0
23, 322112, Note_off_c, 13, 62, 0
23, 322112, Note_off_c, 13, 65, 0
23, 322176, Note_on_c, 13, 57, 70
23, 322176, Note_on_c, 13, 62, 70
23, 322176, Note_on_c, 13, 65, 70
23, 322240, Note_off_c, 13, 57, 0
23, 322240, Note_off_c, 13, 62, 0
23, 322240, Note_off_c, 13, 65, 0
23, 322304, Note_on_c, 13, 57, 71
23, 322304, Note_on_c, 13, 62, 71
23, 322304, Note_on_c, 13, 65, 71
23, 322368, Note_off_c, 13, 57, 0
23, 322368, Note_off_c, 13, 62, 0
23, 322368, Note_off_c, 13, 65, 0
23, 322432, Note_on_c, 13, 57, 70
23, 322432, Note_on_c, 13, 62, 70
23, 322432, Note_on_c, 13, 65, 70
23, 322496, Note_off_c, 13, 57, 0
23, 322496, Note_off_c, 13, 62, 0
23, 322496, Note_off_c, 13, 65, 0
23, 322560, Note_on_c, 13, 57, 71
23, 322560, Note_on_c, 13, 62, 71
23, 322560, Note_on_c, 13, 65, 71
23, 322624, Note_off_c, 13, 57, 0
23, 322624, Note_off_c, 13, 62, 0
23, 322624, Note_off_c, 13, 65, 0
23, 322688, Note_on_c, 13, 57, 73
23, 322688, Note_on_c, 13, 62, 73
23, 322688, Note_on_c, 13, 65, 73
23, 322752, Note_off_c, 13, 57, 0
23, 322752, Note_off_c, 13, 62, 0
23, 322752, Note_off_c, 13, 65, 0
23, 322816, Note_on_c, 13, 57, 77
23, 322816, Note_on_c, 13, 62, 77
23, 322816, Note_on_c, 13, 65, 77
23, 322880, Note_off_c, 13, 57, 0
23, 322880, Note_off_c, 13, 62, 0
23, 322880, Note_off_c, 13, 65, 0
23, 322944, Note_on_c, 13, 57, 72
23, 322944, Note_on_c, 13, 62, 72
23, 322944, Note_on_c, 13, 65, 72
23, 323008, Note_off_c, 13, 57, 0
23, 323008, Note_off_c, 13, 62, 0
23, 323008, Note_off_c, 13, 65, 0
23, 323072, Note_off_c, 13, 28, 0
23, 323072, Note_on_c, 13, 34, 92
23, 323072, Note_on_c, 13, 50, 64
23, 323072, Note_on_c, 13, 53, 64
23, 323072, Note_on_c, 13, 57, 64
23, 323072, Note_on_c, 13, 58, 64
23, 323136, Note_off_c, 13, 50, 0
23, 323136, Note_off_c, 13, 53, 0
23, 323136, Note_off_c, 13, 57, 0
23, 323136, Note_off_c, 13, 58, 0
23, 323200, Note_on_c, 13, 50, 72
23, 323200, Note_on_c, 13, 53, 72
23, 323200, Note_on_c, 13, 57, 72
23, 323200, Note_on_c, 13, 58, 72
23, 323264, Note_off_c, 13, 50, 0
23, 323264, Note_off_c, 13, 53, 0
23, 323264, Note_off_c, 13, 57, 0
23, 323264, Note_off_c, 13, 58, 0
23, 323328, Note_on_c, 13, 50, 74
23, 323328, Note_on_c, 13, 53, 74
23, 323328, Note_on_c, 13, 57, 74
23, 323328, Note_on_c, 13, 58, 74
23, 323392, Note_off_c, 13, 50, 0
23, 323392, Note_off_c, 13, 53, 0
23, 323392, Note_off_c, 13, 57, 0
23, 323392, Note_off_c, 13, 58, 0
23, 323456, Note_on_c, 13, 50, 68
23, 323456, Note_on_c, 13, 53, 68
23, 323456, Note_on_c, 13, 57, 68
23, 323456, Note_on_c, 13, 58, 68
23, 323520, Note_off_c, 13, 50, 0
23, 323520, Note_off_c, 13, 53, 0
23, 323520, Note_off_c, 13, 57, 0
23, 323520, Note_off_c, 13, 58, 0
23, 323584, Note_on_c, 13, 50, 71
23, 323584, Note_on_c, 13, 53, 71
23, 323584, Note_on_c, 13, 57, 71
23, 323584, Note_on_c, 13, 58, 71
23, 323648, Note_off_c, 13, 50, 0
23, 323648, Note_off_c, 13, 53, 0
23, 323648, Note_off_c, 13, 57, 0
23, 323648, Note_off_c, 13, 58, 0
23, 323712, Note_on_c, 13, 50, 70
23, 323712, Note_on_c, 13, 53, 70
23, 323712, Note_on_c, 13, 57, 70
23, 323712, Note_on_c, 13, 58, 70
23, 323776, Note_off_c, 13, 50, 0
23, 323776, Note_off_c, 13, 53, 0
23, 323776, Note_off_c, 13, 57, 0
23, 323776, Note_off_c, 13, 58, 0
23, 323840, Note_off_c, 13, 34, 0
23, 323840, Note_on_c, 13, 27, 77
23, 323840, Note_on_c, 13, 51, 80
23, 323840, Note_on_c, 13, 54, 80
23, 323840, Note_on_c, 13, 57, 80
23, 323840, Note_on_c, 13, 59, 80
23, 323904, Note_off_c, 13, 51, 0
23, 323904, Note_off_c, 13, 54, 0
23, 323904, Note_off_c, 13, 57, 0
23, 323904, Note_off_c, 13, 59, 0
23, 323968, Note_on_c, 13, 51, 77
23, 323968, Note_on_c, 13, 54, 77
23, 323968, Note_on_c, 13, 57, 77
23, 323968, Note_on_c, 13, 59, 77
23, 324032, Note_off_c, 13, 51, 0
23, 324032, Note_off_c, 13, 54, 0
23, 324032, Note_off_c, 13, 57, 0
23, 324032, Note_off_c, 13, 59, 0
23, 324096, Note_on_c, 13, 51, 76
23, 324096, Note_on_c, 13, 54, 76
23, 324096, Note_on_c, 13, 57, 76
23, 324096, Note_on_c, 13, 59, 76
23, 324160, Note_off_c, 13, 51, 0
23, 324160, Note_off_c, 13, 54, 0
23, 324160, Note_off_c, 13, 57, 0
23, 324160, Note_off_c, 13, 59, 0
23, 324224, Note_on_c, 13, 51, 78
23, 324224, Note_on_c, 13, 54, 78
23, 324224, Note_on_c, 13, 57, 78
23, 324224, Note_on_c, 13, 59, 78
23, 324288, Note_off_c, 13, 51, 0
23, 324288, Note_off_c, 13, 54, 0
23, 324288, Note_off_c, 13, 57, 0
23, 324288, Note_off_c, 13, 59, 0
23, 324352, Note_on_c, 13, 51, 84
23, 324352, Note_on_c, 13, 56, 84
23, 324352, Note_on_c, 13, 57, 84
23, 324352, Note_on_c, 13, 59, 84
23, 324416, Note_off_c, 13, 51, 0
23, 324416, Note_off_c, 13, 56, 0
23, 324416, Note_off_c, 13, 57, 0
23, 324416, Note_off_c, 13, 59, 0
23, 324480, Note_on_c, 13, 51, 81
23, 324480, Note_on_c, 13, 56, 81
23, 324480, Note_on_c, 13, 57, 81
23, 324480, Note_on_c, 13, 59, 81
23, 324544, Note_off_c, 13, 51, 0
23, 324544, Note_off_c, 13, 56, 0
23, 324544, Note_off_c, 13, 57, 0
23, 324544, Note_off_c, 13, 59, 0
23, 324608, Note_on_c, 13, 51, 85
23, 324608, Note_on_c, 13, 56, 85
23, 324608, Note_on_c, 13, 57, 85
23, 324608, Note_on_c, 13, 59, 85
23, 324672, Note_off_c, 13, 51, 0
23, 324672, Note_off_c, 13, 56, 0
23, 324672, Note_off_c, 13, 57, 0
23, 324672, Note_off_c, 13, 59, 0
23, 324736, Note_on_c, 13, 51, 85
23, 324736, Note_on_c, 13, 56, 85
23, 324736, Note_on_c, 13, 57, 85
23, 324736, Note_on_c, 13, 59, 85
23, 324800, Note_off_c, 13, 51, 0
23, 324800, Note_off_c, 13, 56, 0
23, 324800, Note_off_c, 13, 57, 0
23, 324800, Note_off_c, 13, 59, 0
23, 324864, Note_on_c, 13, 51, 83
23, 324864, Note_on_c, 13, 56, 83
23, 324864, Note_on_c, 13, 57, 83
23, 324864, Note_on_c, 13, 59, 83
23, 324928, Note_off_c, 13, 51, 0
23, 324928, Note_off_c, 13, 56, 0
23, 324928, Note_off_c, 13, 57, 0
23, 324928, Note_off_c, 13, 59, 0
23, 324992, Note_on_c, 13, 51, 84
23, 324992, Note_on_c, 13, 56, 84
23, 324992, Note_on_c, 13, 57, 84
23, 324992, Note_on_c, 13, 59, 84
23, 325056, Note_off_c, 13, 51, 0
23, 325056, Note_off_c, 13, 56, 0
23, 325056, Note_off_c, 13, 57, 0
23, 325056, Note_off_c, 13, 59, 0
23, 325120, Note_on_c, 13, 51, 82
23, 325120, Note_on_c, 13, 56, 82
23, 325120, Note_on_c, 13, 57, 82
23, 325120, Note_on_c, 13, 59, 82
23, 325184, Note_off_c, 13, 51, 0
23, 325184, Note_off_c, 13, 56, 0
23, 325184, Note_off_c, 13, 57, 0
23, 325184, Note_off_c, 13, 59, 0
23, 325248, Note_on_c, 13, 51, 80
23, 325248, Note_on_c, 13, 56, 80
23, 325248, Note_on_c, 13, 57, 80
23, 325248, Note_on_c, 13, 59, 80
23, 325312, Note_off_c, 13, 51, 0
23, 325312, Note_off_c, 13, 56, 0
23, 325312, Note_off_c, 13, 57, 0
23, 325312, Note_off_c, 13, 59, 0
23, 325376, Note_off_c, 13, 27, 0
23, 325376, Note_on_c, 13, 24, 82
23, 325376, Note_on_c, 13, 52, 92
23, 325376, Note_on_c, 13, 55, 92
23, 325376, Note_on_c, 13, 58, 92
23, 325376, Note_on_c, 13, 60, 92
23, 325440, Note_off_c, 13, 52, 0
23, 325440, Note_off_c, 13, 55, 0
23, 325440, Note_off_c, 13, 58, 0
23, 325440, Note_off_c, 13, 60, 0
23, 325504, Note_on_c, 13, 52, 87
23, 325504, Note_on_c, 13, 55, 87
23, 325504, Note_on_c, 13, 58, 87
23, 325504, Note_on_c, 13, 60, 87
23, 325568, Note_off_c, 13, 52, 0
23, 325568, Note_off_c, 13, 55, 0
23, 325568, Note_off_c, 13, 58, 0
23, 325568, Note_off_c, 13, 60, 0
23, 325632, Note_on_c, 13, 52, 90
23, 325632, Note_on_c, 13, 55, 90
23, 325632, Note_on_c, 13, 58, 90
23, 325632, Note_on_c, 13, 60, 90
23, 325696, Note_off_c, 13, 52, 0
23, 325696, Note_off_c, 13, 55, 0
23, 325696, Note_off_c, 13, 58, 0
23, 325696, Note_off_c, 13, 60, 0
23, 325760, Note_on_c, 13, 52, 86
23, 325760, Note_on_c, 13, 55, 86
23, 325760, Note_on_c, 13, 58, 86
23, 325760, Note_on_c, 13, 60, 86
23, 325824, Note_off_c, 13, 52, 0
23, 325824, Note_off_c, 13, 55, 0
23, 325824, Note_off_c, 13, 58, 0
23, 325824, Note_off_c, 13, 60, 0
23, 325888, Note_on_c, 13, 52, 86
23, 325888, Note_on_c, 13, 55, 86
23, 325888, Note_on_c, 13, 58, 86
23, 325888, Note_on_c, 13, 60, 86
23, 325952, Note_off_c, 13, 52, 0
23, 325952, Note_off_c, 13, 55, 0
23, 325952, Note_off_c, 13, 58, 0
23, 325952, Note_off_c, 13, 60, 0
23, 326016, Note_on_c, 13, 52, 80
23, 326016, Note_on_c, 13, 55, 80
23, 326016, Note_on_c, 13, 58, 80
23, 326016, Note_on_c, 13, 60, 80
23, 326080, Note_off_c, 13, 52, 0
23, 326080, Note_off_c, 13, 55, 0
23, 326080, Note_off_c, 13, 58, 0
23, 326080, Note_off_c, 13, 60, 0
23, 326144, Note_on_c, 13, 52, 85
23, 326144, Note_on_c, 13, 55, 85
23, 326144, Note_on_c, 13, 58, 85
23, 326144, Note_on_c, 13, 60, 85
23, 326208, Note_off_c, 13, 52, 0
23, 326208, Note_off_c, 13, 55, 0
23, 326208, Note_off_c, 13, 58, 0
23, 326208, Note_off_c, 13, 60, 0
23, 326272, Note_on_c, 13, 52, 84
23, 326272, Note_on_c, 13, 55, 84
23, 326272, Note_on_c, 13, 58, 84
23, 326272, Note_on_c, 13, 60, 84
23, 326336, Note_off_c, 13, 52, 0
23, 326336, Note_off_c, 13, 55, 0
23, 326336, Note_off_c, 13, 58, 0
23, 326336, Note_off_c, 13, 60, 0
23, 326400, Note_on_c, 13, 52, 83
23, 326400, Note_on_c, 13, 55, 83
23, 326400, Note_on_c, 13, 58, 83
23, 326400, Note_on_c, 13, 60, 83
23, 326464, Note_off_c, 13, 52, 0
23, 326464, Note_off_c, 13, 55, 0
23, 326464, Note_off_c, 13, 58, 0
23, 326464, Note_off_c, 13, 60, 0
23, 326528, Note_on_c, 13, 52, 80
23, 326528, Note_on_c, 13, 55, 80
23, 326528, Note_on_c, 13, 58, 80
23, 326528, Note_on_c, 13, 60, 80
23, 326592, Note_off_c, 13, 52, 0
23, 326592, Note_off_c, 13, 55, 0
23, 326592, Note_off_c, 13, 58, 0
23, 326592, Note_off_c, 13, 60, 0
23, 326656, Note_off_c, 13, 24, 0
23, 326656, Note_on_c, 13, 25, 86
23, 326656, Note_on_c, 13, 53, 63
23, 326656, Note_on_c, 13, 56, 63
23, 326656, Note_on_c, 13, 59, 63
23, 326656, Note_on_c, 13, 61, 63
23, 326720, Note_off_c, 13, 53, 0
23, 326720, Note_off_c, 13, 56, 0
23, 326720, Note_off_c, 13, 59, 0
23, 326720, Note_off_c, 13, 61, 0
23, 326784, Note_on_c, 13, 53, 57
23, 326784, Note_on_c, 13, 56, 57
23, 326784, Note_on_c, 13, 59, 57
23, 326784, Note_on_c, 13, 61, 57
23, 326848, Note_off_c, 13, 53, 0
23, 326848, Note_off_c, 13, 56, 0
23, 326848, Note_off_c, 13, 59, 0
23, 326848, Note_off_c, 13, 61, 0
23, 326912, Note_on_c, 13, 53, 61
23, 326912, Note_on_c, 13, 56, 61
23, 326912, Note_on_c, 13, 59, 61
23, 326912, Note_on_c, 13, 61, 61
23, 326976, Note_off_c, 13, 53, 0
23, 326976, Note_off_c, 13, 56, 0
23, 326976, Note_off_c, 13, 59, 0
23, 326976, Note_off_c, 13, 61, 0
23, 327040, Note_on_c, 13, 53, 59
23, 327040, Note_on_c, 13, 56, 59
23, 327040, Note_on_c, 13, 59, 59
23, 327040, Note_on_c, 13, 61, 59
23, 327104, Note_off_c, 13, 53, 0
23, 327104, Note_off_c, 13, 56, 0
23, 327104, Note_off_c, 13, 59, 0
23, 327104, Note_off_c, 13, 61, 0
23, 327168, Note_on_c, 13, 53, 63
23, 327168, Note_on_c, 13, 56, 63
23, 327168, Note_on_c, 13, 59, 63
23, 327168, Note_on_c, 13, 61, 63
23, 327232, Note_off_c, 13, 53, 0
23, 327232, Note_off_c, 13, 56, 0
23, 327232, Note_off_c, 13, 59, 0
23, 327232, Note_off_c, 13, 61, 0
23, 327296, Note_on_c, 13, 53, 64
23, 327296, Note_on_c, 13, 56, 64
23, 327296, Note_on_c, 13, 59, 64
23, 327296, Note_on_c, 13, 61, 64
23, 327360, Note_off_c, 13, 53, 0
23, 327360, Note_off_c, 13, 56, 0
23, 327360, Note_off_c, 13, 59, 0
23, 327360, Note_off_c, 13, 61, 0
23, 327424, Note_on_c, 13, 53, 58
23, 327424, Note_on_c, 13, 56, 58
23, 327424, Note_on_c, 13, 59, 58
23, 327424, Note_on_c, 13, 61, 58
23, 327488, Note_off_c, 13, 53, 0
23, 327488, Note_off_c, 13, 56, 0
23, 327488, Note_off_c, 13, 59, 0
23, 327488, Note_off_c, 13, 61, 0
23, 327552, Note_on_c, 13, 53, 60
23, 327552, Note_on_c, 13, 56, 60
23, 327552, Note_on_c, 13, 59, 60
23, 327552, Note_on_c, 13, 61, 60
23, 327616, Note_off_c, 13, 53, 0
23, 327616, Note_off_c, 13, 56, 0
23, 327616, Note_off_c, 13, 59, 0
23, 327616, Note_off_c, 13, 61, 0
23, 327680, Note_on_c, 13, 53, 62
23, 327680, Note_on_c, 13, 56, 62
23, 327680, Note_on_c, 13, 59, 62
23, 327680, Note_on_c, 13, 61, 62
23, 327744, Note_off_c, 13, 53, 0
23, 327744, Note_off_c, 13, 56, 0
23, 327744, Note_off_c, 13, 59, 0
23, 327744, Note_off_c, 13, 61, 0
23, 327808, Note_on_c, 13, 53, 63
23, 327808, Note_on_c, 13, 56, 63
23, 327808, Note_on_c, 13, 59, 63
23, 327808, Note_on_c, 13, 61, 63
23, 327872, Note_off_c, 13, 53, 0
23, 327872, Note_off_c, 13, 56, 0
23, 327872, Note_off_c, 13, 59, 0
23, 327872, Note_off_c, 13, 61, 0
23, 327936, Note_off_c, 13, 25, 0
23, 327936, Note_on_c, 13, 26, 84
23, 327936, Note_on_c, 13, 54, 63
23, 327936, Note_on_c, 13, 57, 63
23, 327936, Note_on_c, 13, 60, 63
23, 327936, Note_on_c, 13, 62, 63
23, 328000, Note_off_c, 13, 54, 0
23, 328000, Note_off_c, 13, 57, 0
23, 328000, Note_off_c, 13, 60, 0
23, 328000, Note_off_c, 13, 62, 0
23, 328064, Note_on_c, 13, 54, 58
23, 328064, Note_on_c, 13, 57, 58
23, 328064, Note_on_c, 13, 60, 58
23, 328064, Note_on_c, 13, 62, 58
23, 328128, Note_off_c, 13, 54, 0
23, 328128, Note_off_c, 13, 57, 0
23, 328128, Note_off_c, 13, 60, 0
23, 328128, Note_off_c, 13, 62, 0
23, 328192, Note_on_c, 13, 54, 65
23, 328192, Note_on_c, 13, 57, 65
23, 328192, Note_on_c, 13, 60, 65
23, 328192, Note_on_c, 13, 62, 65
23, 328256, Note_off_c, 13, 54, 0
23, 328256, Note_off_c, 13, 57, 0
23, 328256, Note_off_c, 13, 60, 0
23, 328256, Note_off_c, 13, 62, 0
23, 328320, Note_on_c, 13, 54, 59
23, 328320, Note_on_c, 13, 57, 59
23, 328320, Note_on_c, 13, 60, 59
23, 328320, Note_on_c, 13, 62, 59
23, 328384, Note_off_c, 13, 54, 0
23, 328384, Note_off_c, 13, 57, 0
23, 328384, Note_off_c, 13, 60, 0
23, 328384, Note_off_c, 13, 62, 0
23, 328448, Note_on_c, 13, 54, 61
23, 328448, Note_on_c, 13, 57, 61
23, 328448, Note_on_c, 13, 60, 61
23, 328448, Note_on_c, 13, 62, 61
23, 328512, Note_off_c, 13, 54, 0
23, 328512, Note_off_c, 13, 57, 0
23, 328512, Note_off_c, 13, 60, 0
23, 328512, Note_off_c, 13, 62, 0
23, 328576, Note_on_c, 13, 54, 60
23, 328576, Note_on_c, 13, 57, 60
23, 328576, Note_on_c, 13, 60, 60
23, 328576, Note_on_c, 13, 62, 60
23, 328640, Note_off_c, 13, 54, 0
23, 328640, Note_off_c, 13, 57, 0
23, 328640, Note_off_c, 13, 60, 0
23, 328640, Note_off_c, 13, 62, 0
23, 328704, Note_on_c, 13, 54, 63
23, 328704, Note_on_c, 13, 57, 63
23, 328704, Note_on_c, 13, 60, 63
23, 328704, Note_on_c, 13, 62, 63
23, 328768, Note_off_c, 13, 54, 0
23, 328768, Note_off_c, 13, 57, 0
23, 328768, Note_off_c, 13, 60, 0
23, 328768, Note_off_c, 13, 62, 0
23, 328832, Note_on_c, 13, 54, 64
23, 328832, Note_on_c, 13, 57, 64
23, 328832, Note_on_c, 13, 60, 64
23, 328832, Note_on_c, 13, 62, 64
23, 328896, Note_off_c, 13, 54, 0
23, 328896, Note_off_c, 13, 57, 0
23, 328896, Note_off_c, 13, 60, 0
23, 328896, Note_off_c, 13, 62, 0
23, 328960, Note_on_c, 13, 54, 62
23, 328960, Note_on_c, 13, 57, 62
23, 328960, Note_on_c, 13, 60, 62
23, 328960, Note_on_c, 13, 62, 62
23, 329024, Note_off_c, 13, 54, 0
23, 329024, Note_off_c, 13, 57, 0
23, 329024, Note_off_c, 13, 60, 0
23, 329024, Note_off_c, 13, 62, 0
23, 329088, Note_on_c, 13, 54, 61
23, 329088, Note_on_c, 13, 57, 61
23, 329088, Note_on_c, 13, 60, 61
23, 329088, Note_on_c, 13, 62, 61
23, 329152, Note_off_c, 13, 54, 0
23, 329152, Note_off_c, 13, 57, 0
23, 329152, Note_off_c, 13, 60, 0
23, 329152, Note_off_c, 13, 62, 0
23, 329216, Note_on_c, 13, 54, 61
23, 329216, Note_on_c, 13, 57, 61
23, 329216, Note_on_c, 13, 60, 61
23, 329216, Note_on_c, 13, 62, 61
23, 329280, Note_off_c, 13, 54, 0
23, 329280, Note_off_c, 13, 57, 0
23, 329280, Note_off_c, 13, 60, 0
23, 329280, Note_off_c, 13, 62, 0
23, 329344, Note_on_c, 13, 54, 61
23, 329344, Note_on_c, 13, 57, 61
23, 329344, Note_on_c, 13, 60, 61
23, 329344, Note_on_c, 13, 62, 61
23, 329408, Note_off_c, 13, 54, 0
23, 329408, Note_off_c, 13, 57, 0
23, 329408, Note_off_c, 13, 60, 0
23, 329408, Note_off_c, 13, 62, 0
23, 329472, Note_on_c, 13, 54, 60
23, 329472, Note_on_c, 13, 57, 60
23, 329472, Note_on_c, 13, 60, 60
23, 329472, Note_on_c, 13, 62, 60
23, 329536, Note_off_c, 13, 54, 0
23, 329536, Note_off_c, 13, 57, 0
23, 329536, Note_off_c, 13, 60, 0
23, 329536, Note_off_c, 13, 62, 0
23, 329600, Note_on_c, 13, 54, 64
23, 329600, Note_on_c, 13, 57, 64
23, 329600, Note_on_c, 13, 60, 64
23, 329600, Note_on_c, 13, 62, 64
23, 329664, Note_off_c, 13, 54, 0
23, 329664, Note_off_c, 13, 57, 0
23, 329664, Note_off_c, 13, 60, 0
23, 329664, Note_off_c, 13, 62, 0
23, 329728, Note_on_c, 13, 54, 61
23, 329728, Note_on_c, 13, 57, 61
23, 329728, Note_on_c, 13, 60, 61
23, 329728, Note_on_c, 13, 62, 61
23, 329792, Note_off_c, 13, 54, 0
23, 329792, Note_off_c, 13, 57, 0
23, 329792, Note_off_c, 13, 60, 0
23, 329792, Note_off_c, 13, 62, 0
23, 329856, Note_on_c, 13, 54, 57
23, 329856, Note_on_c, 13, 57, 57
23, 329856, Note_on_c, 13, 60, 57
23, 329856, Note_on_c, 13, 62, 57
23, 329920, Note_off_c, 13, 54, 0
23, 329920, Note_off_c, 13, 57, 0
23, 329920, Note_off_c, 13, 60, 0
23, 329920, Note_off_c, 13, 62, 0
23, 329984, Note_on_c, 13, 54, 63
23, 329984, Note_on_c, 13, 57, 63
23, 329984, Note_on_c, 13, 60, 63
23, 329984, Note_on_c, 13, 62, 63
23, 330048, Note_off_c, 13, 54, 0
23, 330048, Note_off_c, 13, 57, 0
23, 330048, Note_off_c, 13, 60, 0
23, 330048, Note_off_c, 13, 62, 0
23, 330112, Note_on_c, 13, 54, 64
23, 330112, Note_on_c, 13, 57, 64
23, 330112, Note_on_c, 13, 60, 64
23, 330112, Note_on_c, 13, 62, 64
23, 330176, Note_off_c, 13, 54, 0
23, 330176, Note_off_c, 13, 57, 0
23, 330176, Note_off_c, 13, 60, 0
23, 330176, Note_off_c, 13, 62, 0
23, 330240, Note_off_c, 13, 26, 0
23, 330240, Note_on_c, 13, 28, 62
23, 330240, Note_on_c, 13, 50, 66
23, 330240, Note_on_c, 13, 54, 66
23, 330240, Note_on_c, 13, 58, 66
23, 330240, Note_on_c, 13, 64, 66
23, 330304, Note_off_c, 13, 50, 0
23, 330304, Note_off_c, 13, 54, 0
23, 330304, Note_off_c, 13, 58, 0
23, 330304, Note_off_c, 13, 64, 0
23, 330368, Note_on_c, 13, 50, 57
23, 330368, Note_on_c, 13, 54, 57
23, 330368, Note_on_c, 13, 58, 57
23, 330368, Note_on_c, 13, 64, 57
23, 330432, Note_off_c, 13, 50, 0
23, 330432, Note_off_c, 13, 54, 0
23, 330432, Note_off_c, 13, 58, 0
23, 330432, Note_off_c, 13, 64, 0
23, 330496, Note_on_c, 13, 50, 62
23, 330496, Note_on_c, 13, 54, 62
23, 330496, Note_on_c, 13, 58, 62
23, 330496, Note_on_c, 13, 64, 62
23, 330560, Note_off_c, 13, 50, 0
23, 330560, Note_off_c, 13, 54, 0
23, 330560, Note_off_c, 13, 58, 0
23, 330560, Note_off_c, 13, 64, 0
23, 330624, Note_on_c, 13, 50, 62
23, 330624, Note_on_c, 13, 54, 62
23, 330624, Note_on_c, 13, 58, 62
23, 330624, Note_on_c, 13, 64, 62
23, 330688, Note_off_c, 13, 50, 0
23, 330688, Note_off_c, 13, 54, 0
23, 330688, Note_off_c, 13, 58, 0
23, 330688, Note_off_c, 13, 64, 0
23, 330752, Note_on_c, 13, 50, 61
23, 330752, Note_on_c, 13, 54, 61
23, 330752, Note_on_c, 13, 58, 61
23, 330752, Note_on_c, 13, 64, 61
23, 330816, Note_off_c, 13, 50, 0
23, 330816, Note_off_c, 13, 54, 0
23, 330816, Note_off_c, 13, 58, 0
23, 330816, Note_off_c, 13, 64, 0
23, 330880, Note_on_c, 13, 50, 57
23, 330880, Note_on_c, 13, 54, 57
23, 330880, Note_on_c, 13, 58, 57
23, 330880, Note_on_c, 13, 64, 57
23, 330944, Note_off_c, 13, 50, 0
23, 330944, Note_off_c, 13, 54, 0
23, 330944, Note_off_c, 13, 58, 0
23, 330944, Note_off_c, 13, 64, 0
23, 331008, Note_on_c, 13, 50, 63
23, 331008, Note_on_c, 13, 54, 63
23, 331008, Note_on_c, 13, 58, 63
23, 331008, Note_on_c, 13, 64, 63
23, 331072, Note_off_c, 13, 50, 0
23, 331072, Note_off_c, 13, 54, 0
23, 331072, Note_off_c, 13, 58, 0
23, 331072, Note_off_c, 13, 64, 0
23, 331136, Note_on_c, 13, 50, 59
23, 331136, Note_on_c, 13, 54, 59
23, 331136, Note_on_c, 13, 58, 59
23, 331136, Note_on_c, 13, 64, 59
23, 331200, Note_off_c, 13, 50, 0
23, 331200, Note_off_c, 13, 54, 0
23, 331200, Note_off_c, 13, 58, 0
23, 331200, Note_off_c, 13, 64, 0
23, 331264, Note_on_c, 13, 50, 61
23, 331264, Note_on_c, 13, 54, 61
23, 331264, Note_on_c, 13, 58, 61
23, 331264, Note_on_c, 13, 64, 61
23, 331328, Note_off_c, 13, 50, 0
23, 331328, Note_off_c, 13, 54, 0
23, 331328, Note_off_c, 13, 58, 0
23, 331328, Note_off_c, 13, 64, 0
23, 331392, Note_on_c, 13, 50, 62
23, 331392, Note_on_c, 13, 54, 62
23, 331392, Note_on_c, 13, 58, 62
23, 331392, Note_on_c, 13, 64, 62
23, 331456, Note_off_c, 13, 50, 0
23, 331456, Note_off_c, 13, 54, 0
23, 331456, Note_off_c, 13, 58, 0
23, 331456, Note_off_c, 13, 64, 0
23, 331520, Note_on_c, 13, 50, 64
23, 331520, Note_on_c, 13, 54, 64
23, 331520, Note_on_c, 13, 58, 64
23, 331520, Note_on_c, 13, 64, 64
23, 331584, Note_off_c, 13, 50, 0
23, 331584, Note_off_c, 13, 54, 0
23, 331584, Note_off_c, 13, 58, 0
23, 331584, Note_off_c, 13, 64, 0
23, 331648, Note_on_c, 13, 50, 72
23, 331648, Note_on_c, 13, 54, 72
23, 331648, Note_on_c, 13, 58, 72
23, 331648, Note_on_c, 13, 64, 72
23, 331712, Note_off_c, 13, 50, 0
23, 331712, Note_off_c, 13, 54, 0
23, 331712, Note_off_c, 13, 58, 0
23, 331712, Note_off_c, 13, 64, 0
23, 331776, Note_on_c, 13, 50, 65
23, 331776, Note_on_c, 13, 54, 65
23, 331776, Note_on_c, 13, 58, 65
23, 331776, Note_on_c, 13, 64, 65
23, 331840, Note_off_c, 13, 50, 0
23, 331840, Note_off_c, 13, 54, 0
23, 331840, Note_off_c, 13, 58, 0
23, 331840, Note_off_c, 13, 64, 0
23, 331904, Note_on_c, 13, 50, 72
23, 331904, Note_on_c, 13, 54, 72
23, 331904, Note_on_c, 13, 58, 72
23, 331904, Note_on_c, 13, 64, 72
23, 331968, Note_off_c, 13, 50, 0
23, 331968, Note_off_c, 13, 54, 0
23, 331968, Note_off_c, 13, 58, 0
23, 331968, Note_off_c, 13, 64, 0
23, 332032, Note_on_c, 13, 50, 81
23, 332032, Note_on_c, 13, 54, 81
23, 332032, Note_on_c, 13, 58, 81
23, 332032, Note_on_c, 13, 64, 81
23, 332096, Note_off_c, 13, 50, 0
23, 332096, Note_off_c, 13, 54, 0
23, 332096, Note_off_c, 13, 58, 0
23, 332096, Note_off_c, 13, 64, 0
23, 332160, Note_on_c, 13, 50, 70
23, 332160, Note_on_c, 13, 54, 70
23, 332160, Note_on_c, 13, 58, 70
23, 332160, Note_on_c, 13, 64, 70
23, 332224, Note_off_c, 13, 50, 0
23, 332224, Note_off_c, 13, 54, 0
23, 332224, Note_off_c, 13, 58, 0
23, 332224, Note_off_c, 13, 64, 0
23, 332288, Note_on_c, 13, 52, 66
23, 332288, Note_on_c, 13, 54, 66
23, 332288, Note_on_c, 13, 58, 66
23, 332288, Note_on_c, 13, 63, 66
23, 332352, Note_off_c, 13, 52, 0
23, 332352, Note_off_c, 13, 54, 0
23, 332352, Note_off_c, 13, 58, 0
23, 332352, Note_off_c, 13, 63, 0
23, 332416, Note_on_c, 13, 52, 72
23, 332416, Note_on_c, 13, 54, 72
23, 332416, Note_on_c, 13, 58, 72
23, 332416, Note_on_c, 13, 63, 72
23, 332480, Note_off_c, 13, 52, 0
23, 332480, Note_off_c, 13, 54, 0
23, 332480, Note_off_c, 13, 58, 0
23, 332480, Note_off_c, 13, 63, 0
23, 332544, Note_off_c, 13, 28, 0
23, 332544, Note_on_c, 13, 30, 61
23, 332544, Note_on_c, 13, 52, 69
23, 332544, Note_on_c, 13, 54, 69
23, 332544, Note_on_c, 13, 58, 69
23, 332544, Note_on_c, 13, 63, 69
23, 332608, Note_off_c, 13, 52, 0
23, 332608, Note_off_c, 13, 54, 0
23, 332608, Note_off_c, 13, 58, 0
23, 332608, Note_off_c, 13, 63, 0
23, 332672, Note_on_c, 13, 52, 65
23, 332672, Note_on_c, 13, 54, 65
23, 332672, Note_on_c, 13, 58, 65
23, 332672, Note_on_c, 13, 63, 65
23, 332736, Note_off_c, 13, 52, 0
23, 332736, Note_off_c, 13, 54, 0
23, 332736, Note_off_c, 13, 58, 0
23, 332736, Note_off_c, 13, 63, 0
23, 332800, Note_on_c, 13, 52, 64
23, 332800, Note_on_c, 13, 54, 64
23, 332800, Note_on_c, 13, 58, 64
23, 332800, Note_on_c, 13, 63, 64
23, 332864, Note_off_c, 13, 52, 0
23, 332864, Note_off_c, 13, 54, 0
23, 332864, Note_off_c, 13, 58, 0
23, 332864, Note_off_c, 13, 63, 0
23, 332928, Note_on_c, 13, 52, 64
23, 332928, Note_on_c, 13, 54, 64
23, 332928, Note_on_c, 13, 58, 64
23, 332928, Note_on_c, 13, 63, 64
23, 332992, Note_off_c, 13, 52, 0
23, 332992, Note_off_c, 13, 54, 0
23, 332992, Note_off_c, 13, 58, 0
23, 332992, Note_off_c, 13, 63, 0
23, 333056, Note_on_c, 13, 52, 63
23, 333056, Note_on_c, 13, 54, 63
23, 333056, Note_on_c, 13, 58, 63
23, 333056, Note_on_c, 13, 63, 63
23, 333120, Note_off_c, 13, 52, 0
23, 333120, Note_off_c, 13, 54, 0
23, 333120, Note_off_c, 13, 58, 0
23, 333120, Note_off_c, 13, 63, 0
23, 333184, Note_on_c, 13, 52, 58
23, 333184, Note_on_c, 13, 54, 58
23, 333184, Note_on_c, 13, 58, 58
23, 333184, Note_on_c, 13, 63, 58
23, 333248, Note_off_c, 13, 52, 0
23, 333248, Note_off_c, 13, 54, 0
23, 333248, Note_off_c, 13, 58, 0
23, 333248, Note_off_c, 13, 63, 0
23, 333312, Note_on_c, 13, 52, 61
23, 333312, Note_on_c, 13, 54, 61
23, 333312, Note_on_c, 13, 58, 61
23, 333312, Note_on_c, 13, 63, 61
23, 333376, Note_off_c, 13, 52, 0
23, 333376, Note_off_c, 13, 54, 0
23, 333376, Note_off_c, 13, 58, 0
23, 333376, Note_off_c, 13, 63, 0
23, 333440, Note_on_c, 13, 52, 59
23, 333440, Note_on_c, 13, 54, 59
23, 333440, Note_on_c, 13, 58, 59
23, 333440, Note_on_c, 13, 63, 59
23, 333504, Note_off_c, 13, 52, 0
23, 333504, Note_off_c, 13, 54, 0
23, 333504, Note_off_c, 13, 58, 0
23, 333504, Note_off_c, 13, 63, 0
23, 333568, Note_on_c, 13, 52, 62
23, 333568, Note_on_c, 13, 54, 62
23, 333568, Note_on_c, 13, 58, 62
23, 333568, Note_on_c, 13, 63, 62
23, 333632, Note_off_c, 13, 52, 0
23, 333632, Note_off_c, 13, 54, 0
23, 333632, Note_off_c, 13, 58, 0
23, 333632, Note_off_c, 13, 63, 0
23, 333696, Note_on_c, 13, 52, 61
23, 333696, Note_on_c, 13, 54, 61
23, 333696, Note_on_c, 13, 58, 61
23, 333696, Note_on_c, 13, 63, 61
23, 333760, Note_off_c, 13, 52, 0
23, 333760, Note_off_c, 13, 54, 0
23, 333760, Note_off_c, 13, 58, 0
23, 333760, Note_off_c, 13, 63, 0
23, 333824, Note_on_c, 13, 52, 63
23, 333824, Note_on_c, 13, 54, 63
23, 333824, Note_on_c, 13, 58, 63
23, 333824, Note_on_c, 13, 63, 63
23, 333888, Note_off_c, 13, 52, 0
23, 333888, Note_off_c, 13, 54, 0
23, 333888, Note_off_c, 13, 58, 0
23, 333888, Note_off_c, 13, 63, 0
23, 333952, Note_on_c, 13, 52, 71
23, 333952, Note_on_c, 13, 54, 71
23, 333952, Note_on_c, 13, 58, 71
23, 333952, Note_on_c, 13, 63, 71
23, 334016, Note_off_c, 13, 52, 0
23, 334016, Note_off_c, 13, 54, 0
23, 334016, Note_off_c, 13, 58, 0
23, 334016, Note_off_c, 13, 63, 0
23, 334080, Note_on_c, 13, 52, 73
23, 334080, Note_on_c, 13, 54, 73
23, 334080, Note_on_c, 13, 58, 73
23, 334080, Note_on_c, 13, 63, 73
23, 334144, Note_off_c, 13, 52, 0
23, 334144, Note_off_c, 13, 54, 0
23, 334144, Note_off_c, 13, 58, 0
23, 334144, Note_off_c, 13, 63, 0
23, 334208, Note_on_c, 13, 52, 74
23, 334208, Note_on_c, 13, 54, 74
23, 334208, Note_on_c, 13, 58, 74
23, 334208, Note_on_c, 13, 63, 74
23, 334272, Note_off_c, 13, 52, 0
23, 334272, Note_off_c, 13, 54, 0
23, 334272, Note_off_c, 13, 58, 0
23, 334272, Note_off_c, 13, 63, 0
23, 334336, Note_on_c, 13, 52, 71
23, 334336, Note_on_c, 13, 54, 71
23, 334336, Note_on_c, 13, 58, 71
23, 334336, Note_on_c, 13, 63, 71
23, 334400, Note_off_c, 13, 52, 0
23, 334400, Note_off_c, 13, 54, 0
23, 334400, Note_off_c, 13, 58, 0
23, 334400, Note_off_c, 13, 63, 0
23, 334464, Note_on_c, 13, 52, 74
23, 334464, Note_on_c, 13, 54, 74
23, 334464, Note_on_c, 13, 58, 74
23, 334464, Note_on_c, 13, 63, 74
23, 334528, Note_off_c, 13, 52, 0
23, 334528, Note_off_c, 13, 54, 0
23, 334528, Note_off_c, 13, 58, 0
23, 334528, Note_off_c, 13, 63, 0
23, 334592, Note_on_c, 13, 52, 72
23, 334592, Note_on_c, 13, 54, 72
23, 334592, Note_on_c, 13, 58, 72
23, 334592, Note_on_c, 13, 63, 72
23, 334656, Note_off_c, 13, 52, 0
23, 334656, Note_off_c, 13, 54, 0
23, 334656, Note_off_c, 13, 58, 0
23, 334656, Note_off_c, 13, 63, 0
23, 334720, Note_on_c, 13, 52, 69
23, 334720, Note_on_c, 13, 54, 69
23, 334720, Note_on_c, 13, 58, 69
23, 334720, Note_on_c, 13, 63, 69
23, 334784, Note_off_c, 13, 52, 0
23, 334784, Note_off_c, 13, 54, 0
23, 334784, Note_off_c, 13, 58, 0
23, 334784, Note_off_c, 13, 63, 0
23, 334848, Note_off_c, 13, 30, 0
23, 334848, Note_on_c, 13, 34, 70
23, 334848, Note_on_c, 13, 52, 70
23, 334848, Note_on_c, 13, 55, 70
23, 334848, Note_on_c, 13, 58, 70
23, 334848, Note_on_c, 13, 63, 70
23, 334912, Note_off_c, 13, 52, 0
23, 334912, Note_off_c, 13, 55, 0
23, 334912, Note_off_c, 13, 58, 0
23, 334912, Note_off_c, 13, 63, 0
23, 334976, Note_on_c, 13, 52, 70
23, 334976, Note_on_c, 13, 55, 70
23, 334976, Note_on_c, 13, 58, 70
23, 334976, Note_on_c, 13, 63, 70
23, 335040, Note_off_c, 13, 52, 0
23, 335040, Note_off_c, 13, 55, 0
23, 335040, Note_off_c, 13, 58, 0
23, 335040, Note_off_c, 13, 63, 0
23, 335104, Note_on_c, 13, 52, 69
23, 335104, Note_on_c, 13, 55, 69
23, 335104, Note_on_c, 13, 58, 69
23, 335104, Note_on_c, 13, 63, 69
23, 335168, Note_off_c, 13, 52, 0
23, 335168, Note_off_c, 13, 55, 0
23, 335168, Note_off_c, 13, 58, 0
23, 335168, Note_off_c, 13, 63, 0
23, 335232, Note_on_c, 13, 52, 69
23, 335232, Note_on_c, 13, 55, 69
23, 335232, Note_on_c, 13, 58, 69
23, 335232, Note_on_c, 13, 63, 69
23, 335296, Note_off_c, 13, 52, 0
23, 335296, Note_off_c, 13, 55, 0
23, 335296, Note_off_c, 13, 58, 0
23, 335296, Note_off_c, 13, 63, 0
23, 335360, Note_on_c, 13, 52, 72
23, 335360, Note_on_c, 13, 55, 72
23, 335360, Note_on_c, 13, 58, 72
23, 335360, Note_on_c, 13, 63, 72
23, 335424, Note_off_c, 13, 52, 0
23, 335424, Note_off_c, 13, 55, 0
23, 335424, Note_off_c, 13, 58, 0
23, 335424, Note_off_c, 13, 63, 0
23, 335488, Note_on_c, 13, 52, 71
23, 335488, Note_on_c, 13, 55, 71
23, 335488, Note_on_c, 13, 58, 71
23, 335488, Note_on_c, 13, 63, 71
23, 335552, Note_off_c, 13, 52, 0
23, 335552, Note_off_c, 13, 55, 0
23, 335552, Note_off_c, 13, 58, 0
23, 335552, Note_off_c, 13, 63, 0
23, 335616, Note_on_c, 13, 52, 73
23, 335616, Note_on_c, 13, 55, 73
23, 335616, Note_on_c, 13, 58, 73
23, 335616, Note_on_c, 13, 64, 73
23, 335680, Note_off_c, 13, 52, 0
23, 335680, Note_off_c, 13, 55, 0
23, 335680, Note_off_c, 13, 58, 0
23, 335680, Note_off_c, 13, 64, 0
23, 335744, Note_on_c, 13, 52, 67
23, 335744, Note_on_c, 13, 55, 67
23, 335744, Note_on_c, 13, 58, 67
23, 335744, Note_on_c, 13, 64, 67
23, 335808, Note_off_c, 13, 52, 0
23, 335808, Note_off_c, 13, 55, 0
23, 335808, Note_off_c, 13, 58, 0
23, 335808, Note_off_c, 13, 64, 0
23, 335872, Note_on_c, 13, 52, 69
23, 335872, Note_on_c, 13, 55, 69
23, 335872, Note_on_c, 13, 58, 69
23, 335872, Note_on_c, 13, 64, 69
23, 335936, Note_off_c, 13, 52, 0
23, 335936, Note_off_c, 13, 55, 0
23, 335936, Note_off_c, 13, 58, 0
23, 335936, Note_off_c, 13, 64, 0
23, 336000, Note_on_c, 13, 52, 65
23, 336000, Note_on_c, 13, 55, 65
23, 336000, Note_on_c, 13, 58, 65
23, 336000, Note_on_c, 13, 64, 65
23, 336064, Note_off_c, 13, 52, 0
23, 336064, Note_off_c, 13, 55, 0
23, 336064, Note_off_c, 13, 58, 0
23, 336064, Note_off_c, 13, 64, 0
23, 336128, Note_on_c, 13, 52, 60
23, 336128, Note_on_c, 13, 55, 60
23, 336128, Note_on_c, 13, 58, 60
23, 336128, Note_on_c, 13, 64, 60
23, 336192, Note_off_c, 13, 52, 0
23, 336192, Note_off_c, 13, 55, 0
23, 336192, Note_off_c, 13, 58, 0
23, 336192, Note_off_c, 13, 64, 0
23, 336256, Note_on_c, 13, 52, 62
23, 336256, Note_on_c, 13, 55, 62
23, 336256, Note_on_c, 13, 58, 62
23, 336256, Note_on_c, 13, 64, 62
23, 336320, Note_off_c, 13, 52, 0
23, 336320, Note_off_c, 13, 55, 0
23, 336320, Note_off_c, 13, 58, 0
23, 336320, Note_off_c, 13, 64, 0
23, 336384, Note_on_c, 13, 52, 57
23, 336384, Note_on_c, 13, 55, 57
23, 336384, Note_on_c, 13, 58, 57
23, 336384, Note_on_c, 13, 63, 57
23, 336448, Note_off_c, 13, 52, 0
23, 336448, Note_off_c, 13, 55, 0
23, 336448, Note_off_c, 13, 58, 0
23, 336448, Note_off_c, 13, 63, 0
23, 336512, Note_on_c, 13, 52, 59
23, 336512, Note_on_c, 13, 55, 59
23, 336512, Note_on_c, 13, 58, 59
23, 336512, Note_on_c, 13, 63, 59
23, 336576, Note_off_c, 13, 52, 0
23, 336576, Note_off_c, 13, 55, 0
23, 336576, Note_off_c, 13, 58, 0
23, 336576, Note_off_c, 13, 63, 0
23, 336640, Note_off_c, 13, 34, 0
23, 336640, Note_on_c, 13, 28, 56
23, 336640, Note_on_c, 13, 52, 64
23, 336640, Note_on_c, 13, 55, 64
23, 336640, Note_on_c, 13, 58, 64
23, 336640, Note_on_c, 13, 63, 64
23, 336704, Note_off_c, 13, 52, 0
23, 336704, Note_off_c, 13, 55, 0
23, 336704, Note_off_c, 13, 58, 0
23, 336704, Note_off_c, 13, 63, 0
23, 336768, Note_on_c, 13, 52, 58
23, 336768, Note_on_c, 13, 55, 58
23, 336768, Note_on_c, 13, 58, 58
23, 336768, Note_on_c, 13, 63, 58
23, 336832, Note_off_c, 13, 52, 0
23, 336832, Note_off_c, 13, 55, 0
23, 336832, Note_off_c, 13, 58, 0
23, 336832, Note_off_c, 13, 63, 0
23, 336896, Note_on_c, 13, 52, 62
23, 336896, Note_on_c, 13, 55, 62
23, 336896, Note_on_c, 13, 58, 62
23, 336896, Note_on_c, 13, 63, 62
23, 336960, Note_off_c, 13, 52, 0
23, 336960, Note_off_c, 13, 55, 0
23, 336960, Note_off_c, 13, 58, 0
23, 336960, Note_off_c, 13, 63, 0
23, 337024, Note_on_c, 13, 52, 65
23, 337024, Note_on_c, 13, 55, 65
23, 337024, Note_on_c, 13, 58, 65
23, 337024, Note_on_c, 13, 63, 65
23, 337088, Note_off_c, 13, 52, 0
23, 337088, Note_off_c, 13, 55, 0
23, 337088, Note_off_c, 13, 58, 0
23, 337088, Note_off_c, 13, 63, 0
23, 337152, Note_on_c, 13, 52, 62
23, 337152, Note_on_c, 13, 55, 62
23, 337152, Note_on_c, 13, 58, 62
23, 337152, Note_on_c, 13, 63, 62
23, 337216, Note_off_c, 13, 52, 0
23, 337216, Note_off_c, 13, 55, 0
23, 337216, Note_off_c, 13, 58, 0
23, 337216, Note_off_c, 13, 63, 0
23, 337280, Note_on_c, 13, 52, 61
23, 337280, Note_on_c, 13, 55, 61
23, 337280, Note_on_c, 13, 58, 61
23, 337280, Note_on_c, 13, 63, 61
23, 337344, Note_off_c, 13, 52, 0
23, 337344, Note_off_c, 13, 55, 0
23, 337344, Note_off_c, 13, 58, 0
23, 337344, Note_off_c, 13, 63, 0
23, 337408, Note_on_c, 13, 52, 59
23, 337408, Note_on_c, 13, 55, 59
23, 337408, Note_on_c, 13, 58, 59
23, 337408, Note_on_c, 13, 63, 59
23, 337472, Note_off_c, 13, 52, 0
23, 337472, Note_off_c, 13, 55, 0
23, 337472, Note_off_c, 13, 58, 0
23, 337472, Note_off_c, 13, 63, 0
23, 337536, Note_on_c, 13, 52, 60
23, 337536, Note_on_c, 13, 55, 60
23, 337536, Note_on_c, 13, 58, 60
23, 337536, Note_on_c, 13, 63, 60
23, 337600, Note_off_c, 13, 52, 0
23, 337600, Note_off_c, 13, 55, 0
23, 337600, Note_off_c, 13, 58, 0
23, 337600, Note_off_c, 13, 63, 0
23, 337664, Note_on_c, 13, 52, 68
23, 337664, Note_on_c, 13, 55, 68
23, 337664, Note_on_c, 13, 58, 68
23, 337664, Note_on_c, 13, 64, 68
23, 337728, Note_off_c, 13, 52, 0
23, 337728, Note_off_c, 13, 55, 0
23, 337728, Note_off_c, 13, 58, 0
23, 337728, Note_off_c, 13, 64, 0
23, 337792, Note_on_c, 13, 52, 65
23, 337792, Note_on_c, 13, 55, 65
23, 337792, Note_on_c, 13, 58, 65
23, 337792, Note_on_c, 13, 64, 65
23, 337856, Note_off_c, 13, 52, 0
23, 337856, Note_off_c, 13, 55, 0
23, 337856, Note_off_c, 13, 58, 0
23, 337856, Note_off_c, 13, 64, 0
23, 337920, Note_on_c, 13, 52, 69
23, 337920, Note_on_c, 13, 55, 69
23, 337920, Note_on_c, 13, 58, 69
23, 337920, Note_on_c, 13, 64, 69
23, 337984, Note_off_c, 13, 52, 0
23, 337984, Note_off_c, 13, 55, 0
23, 337984, Note_off_c, 13, 58, 0
23, 337984, Note_off_c, 13, 64, 0
23, 338048, Note_on_c, 13, 52, 71
23, 338048, Note_on_c, 13, 55, 71
23, 338048, Note_on_c, 13, 58, 71
23, 338048, Note_on_c, 13, 64, 71
23, 338112, Note_off_c, 13, 52, 0
23, 338112, Note_off_c, 13, 55, 0
23, 338112, Note_off_c, 13, 58, 0
23, 338112, Note_off_c, 13, 64, 0
23, 338176, Note_on_c, 13, 52, 70
23, 338176, Note_on_c, 13, 55, 70
23, 338176, Note_on_c, 13, 58, 70
23, 338176, Note_on_c, 13, 64, 70
23, 338240, Note_off_c, 13, 52, 0
23, 338240, Note_off_c, 13, 55, 0
23, 338240, Note_off_c, 13, 58, 0
23, 338240, Note_off_c, 13, 64, 0
23, 338304, Note_on_c, 13, 52, 72
23, 338304, Note_on_c, 13, 55, 72
23, 338304, Note_on_c, 13, 58, 72
23, 338304, Note_on_c, 13, 64, 72
23, 338368, Note_off_c, 13, 52, 0
23, 338368, Note_off_c, 13, 55, 0
23, 338368, Note_off_c, 13, 58, 0
23, 338368, Note_off_c, 13, 64, 0
23, 338432, Note_on_c, 13, 52, 72
23, 338432, Note_on_c, 13, 55, 72
23, 338432, Note_on_c, 13, 58, 72
23, 338432, Note_on_c, 13, 64, 72
23, 338496, Note_off_c, 13, 52, 0
23, 338496, Note_off_c, 13, 55, 0
23, 338496, Note_off_c, 13, 58, 0
23, 338496, Note_off_c, 13, 64, 0
23, 338560, Note_on_c, 13, 52, 71
23, 338560, Note_on_c, 13, 55, 71
23, 338560, Note_on_c, 13, 58, 71
23, 338560, Note_on_c, 13, 64, 71
23, 338624, Note_off_c, 13, 52, 0
23, 338624, Note_off_c, 13, 55, 0
23, 338624, Note_off_c, 13, 58, 0
23, 338624, Note_off_c, 13, 64, 0
23, 338688, Note_off_c, 13, 28, 0
23, 338688, Note_on_c, 13, 35, 65
23, 338688, Note_on_c, 13, 51, 68
23, 338688, Note_on_c, 13, 56, 68
23, 338688, Note_on_c, 13, 59, 68
23, 338688, Note_on_c, 13, 64, 68
23, 338752, Note_off_c, 13, 51, 0
23, 338752, Note_off_c, 13, 56, 0
23, 338752, Note_off_c, 13, 59, 0
23, 338752, Note_off_c, 13, 64, 0
23, 338816, Note_on_c, 13, 51, 69
23, 338816, Note_on_c, 13, 56, 69
23, 338816, Note_on_c, 13, 59, 69
23, 338816, Note_on_c, 13, 64, 69
23, 338880, Note_off_c, 13, 51, 0
23, 338880, Note_off_c, 13, 56, 0
23, 338880, Note_off_c, 13, 59, 0
23, 338880, Note_off_c, 13, 64, 0
23, 338944, Note_on_c, 13, 51, 67
23, 338944, Note_on_c, 13, 56, 67
23, 338944, Note_on_c, 13, 59, 67
23, 338944, Note_on_c, 13, 64, 67
23, 339008, Note_off_c, 13, 51, 0
23, 339008, Note_off_c, 13, 56, 0
23, 339008, Note_off_c, 13, 59, 0
23, 339008, Note_off_c, 13, 64, 0
23, 339072, Note_on_c, 13, 51, 59
23, 339072, Note_on_c, 13, 56, 59
23, 339072, Note_on_c, 13, 59, 59
23, 339072, Note_on_c, 13, 64, 59
23, 339136, Note_off_c, 13, 51, 0
23, 339136, Note_off_c, 13, 56, 0
23, 339136, Note_off_c, 13, 59, 0
23, 339136, Note_off_c, 13, 64, 0
23, 339200, Note_on_c, 13, 51, 63
23, 339200, Note_on_c, 13, 56, 63
23, 339200, Note_on_c, 13, 59, 63
23, 339200, Note_on_c, 13, 64, 63
23, 339264, Note_off_c, 13, 51, 0
23, 339264, Note_off_c, 13, 56, 0
23, 339264, Note_off_c, 13, 59, 0
23, 339264, Note_off_c, 13, 64, 0
23, 339328, Note_on_c, 13, 51, 64
23, 339328, Note_on_c, 13, 56, 64
23, 339328, Note_on_c, 13, 59, 64
23, 339328, Note_on_c, 13, 64, 64
23, 339392, Note_off_c, 13, 51, 0
23, 339392, Note_off_c, 13, 56, 0
23, 339392, Note_off_c, 13, 59, 0
23, 339392, Note_off_c, 13, 64, 0
23, 339456, Note_on_c, 13, 51, 60
23, 339456, Note_on_c, 13, 56, 60
23, 339456, Note_on_c, 13, 59, 60
23, 339456, Note_on_c, 13, 64, 60
23, 339520, Note_off_c, 13, 51, 0
23, 339520, Note_off_c, 13, 56, 0
23, 339520, Note_off_c, 13, 59, 0
23, 339520, Note_off_c, 13, 64, 0
23, 339584, Note_on_c, 13, 51, 61
23, 339584, Note_on_c, 13, 56, 61
23, 339584, Note_on_c, 13, 59, 61
23, 339584, Note_on_c, 13, 64, 61
23, 339648, Note_off_c, 13, 51, 0
23, 339648, Note_off_c, 13, 56, 0
23, 339648, Note_off_c, 13, 59, 0
23, 339648, Note_off_c, 13, 64, 0
23, 339712, Note_on_c, 13, 51, 61
23, 339712, Note_on_c, 13, 56, 61
23, 339712, Note_on_c, 13, 58, 61
23, 339712, Note_on_c, 13, 64, 61
23, 339776, Note_off_c, 13, 51, 0
23, 339776, Note_off_c, 13, 56, 0
23, 339776, Note_off_c, 13, 58, 0
23, 339776, Note_off_c, 13, 64, 0
23, 339840, Note_on_c, 13, 51, 59
23, 339840, Note_on_c, 13, 56, 59
23, 339840, Note_on_c, 13, 58, 59
23, 339840, Note_on_c, 13, 64, 59
23, 339904, Note_off_c, 13, 51, 0
23, 339904, Note_off_c, 13, 56, 0
23, 339904, Note_off_c, 13, 58, 0
23, 339904, Note_off_c, 13, 64, 0
23, 339968, Note_on_c, 13, 51, 57
23, 339968, Note_on_c, 13, 56, 57
23, 339968, Note_on_c, 13, 58, 57
23, 339968, Note_on_c, 13, 64, 57
23, 340032, Note_off_c, 13, 51, 0
23, 340032, Note_off_c, 13, 56, 0
23, 340032, Note_off_c, 13, 58, 0
23, 340032, Note_off_c, 13, 64, 0
23, 340096, Note_on_c, 13, 51, 56
23, 340096, Note_on_c, 13, 56, 56
23, 340096, Note_on_c, 13, 58, 56
23, 340096, Note_on_c, 13, 64, 56
23, 340160, Note_off_c, 13, 51, 0
23, 340160, Note_off_c, 13, 56, 0
23, 340160, Note_off_c, 13, 58, 0
23, 340160, Note_off_c, 13, 64, 0
23, 340224, Note_on_c, 13, 51, 62
23, 340224, Note_on_c, 13, 56, 62
23, 340224, Note_on_c, 13, 58, 62
23, 340224, Note_on_c, 13, 64, 62
23, 340288, Note_off_c, 13, 51, 0
23, 340288, Note_off_c, 13, 56, 0
23, 340288, Note_off_c, 13, 58, 0
23, 340288, Note_off_c, 13, 64, 0
23, 340352, Note_on_c, 13, 51, 62
23, 340352, Note_on_c, 13, 56, 62
23, 340352, Note_on_c, 13, 58, 62
23, 340352, Note_on_c, 13, 64, 62
23, 340416, Note_off_c, 13, 51, 0
23, 340416, Note_off_c, 13, 56, 0
23, 340416, Note_off_c, 13, 58, 0
23, 340416, Note_off_c, 13, 64, 0
23, 340480, Note_off_c, 13, 35, 0
23, 340480, Note_on_c, 13, 27, 56
23, 340480, Note_on_c, 13, 56, 61
23, 340480, Note_on_c, 13, 58, 61
23, 340480, Note_on_c, 13, 63, 61
23, 340480, Note_on_c, 13, 64, 61
23, 340544, Note_off_c, 13, 56, 0
23, 340544, Note_off_c, 13, 58, 0
23, 340544, Note_off_c, 13, 63, 0
23, 340544, Note_off_c, 13, 64, 0
23, 340608, Note_on_c, 13, 56, 57
23, 340608, Note_on_c, 13, 58, 57
23, 340608, Note_on_c, 13, 63, 57
23, 340608, Note_on_c, 13, 64, 57
23, 340672, Note_off_c, 13, 56, 0
23, 340672, Note_off_c, 13, 58, 0
23, 340672, Note_off_c, 13, 63, 0
23, 340672, Note_off_c, 13, 64, 0
23, 340736, Note_on_c, 13, 56, 63
23, 340736, Note_on_c, 13, 58, 63
23, 340736, Note_on_c, 13, 63, 63
23, 340736, Note_on_c, 13, 64, 63
23, 340800, Note_off_c, 13, 56, 0
23, 340800, Note_off_c, 13, 58, 0
23, 340800, Note_off_c, 13, 63, 0
23, 340800, Note_off_c, 13, 64, 0
23, 340864, Note_on_c, 13, 56, 62
23, 340864, Note_on_c, 13, 58, 62
23, 340864, Note_on_c, 13, 63, 62
23, 340864, Note_on_c, 13, 64, 62
23, 340928, Note_off_c, 13, 56, 0
23, 340928, Note_off_c, 13, 58, 0
23, 340928, Note_off_c, 13, 63, 0
23, 340928, Note_off_c, 13, 64, 0
23, 340992, Note_on_c, 13, 56, 64
23, 340992, Note_on_c, 13, 58, 64
23, 340992, Note_on_c, 13, 63, 64
23, 340992, Note_on_c, 13, 64, 64
23, 341056, Note_off_c, 13, 56, 0
23, 341056, Note_off_c, 13, 58, 0
23, 341056, Note_off_c, 13, 63, 0
23, 341056, Note_off_c, 13, 64, 0
23, 341120, Note_on_c, 13, 56, 57
23, 341120, Note_on_c, 13, 58, 57
23, 341120, Note_on_c, 13, 63, 57
23, 341120, Note_on_c, 13, 64, 57
23, 341184, Note_off_c, 13, 56, 0
23, 341184, Note_off_c, 13, 58, 0
23, 341184, Note_off_c, 13, 63, 0
23, 341184, Note_off_c, 13, 64, 0
23, 341248, Note_on_c, 13, 56, 59
23, 341248, Note_on_c, 13, 58, 59
23, 341248, Note_on_c, 13, 63, 59
23, 341248, Note_on_c, 13, 64, 59
23, 341312, Note_off_c, 13, 56, 0
23, 341312, Note_off_c, 13, 58, 0
23, 341312, Note_off_c, 13, 63, 0
23, 341312, Note_off_c, 13, 64, 0
23, 341376, Note_on_c, 13, 56, 65
23, 341376, Note_on_c, 13, 58, 65
23, 341376, Note_on_c, 13, 63, 65
23, 341376, Note_on_c, 13, 64, 65
23, 341440, Note_off_c, 13, 56, 0
23, 341440, Note_off_c, 13, 58, 0
23, 341440, Note_off_c, 13, 63, 0
23, 341440, Note_off_c, 13, 64, 0
23, 341504, Note_on_c, 13, 56, 64
23, 341504, Note_on_c, 13, 58, 64
23, 341504, Note_on_c, 13, 63, 64
23, 341504, Note_on_c, 13, 64, 64
23, 341568, Note_off_c, 13, 56, 0
23, 341568, Note_off_c, 13, 58, 0
23, 341568, Note_off_c, 13, 63, 0
23, 341568, Note_off_c, 13, 64, 0
23, 341632, Note_on_c, 13, 56, 59
23, 341632, Note_on_c, 13, 58, 59
23, 341632, Note_on_c, 13, 63, 59
23, 341632, Note_on_c, 13, 64, 59
23, 341696, Note_off_c, 13, 56, 0
23, 341696, Note_off_c, 13, 58, 0
23, 341696, Note_off_c, 13, 63, 0
23, 341696, Note_off_c, 13, 64, 0
23, 341760, Note_on_c, 13, 56, 61
23, 341760, Note_on_c, 13, 58, 61
23, 341760, Note_on_c, 13, 63, 61
23, 341760, Note_on_c, 13, 64, 61
23, 341824, Note_off_c, 13, 56, 0
23, 341824, Note_off_c, 13, 58, 0
23, 341824, Note_off_c, 13, 63, 0
23, 341824, Note_off_c, 13, 64, 0
23, 341888, Note_on_c, 13, 56, 68
23, 341888, Note_on_c, 13, 58, 68
23, 341888, Note_on_c, 13, 63, 68
23, 341888, Note_on_c, 13, 64, 68
23, 341952, Note_off_c, 13, 56, 0
23, 341952, Note_off_c, 13, 58, 0
23, 341952, Note_off_c, 13, 63, 0
23, 341952, Note_off_c, 13, 64, 0
23, 342016, Note_on_c, 13, 56, 70
23, 342016, Note_on_c, 13, 58, 70
23, 342016, Note_on_c, 13, 63, 70
23, 342016, Note_on_c, 13, 64, 70
23, 342080, Note_off_c, 13, 56, 0
23, 342080, Note_off_c, 13, 58, 0
23, 342080, Note_off_c, 13, 63, 0
23, 342080, Note_off_c, 13, 64, 0
23, 342144, Note_on_c, 13, 56, 81
23, 342144, Note_on_c, 13, 58, 81
23, 342144, Note_on_c, 13, 63, 81
23, 342144, Note_on_c, 13, 64, 81
23, 342208, Note_off_c, 13, 56, 0
23, 342208, Note_off_c, 13, 58, 0
23, 342208, Note_off_c, 13, 63, 0
23, 342208, Note_off_c, 13, 64, 0
23, 342272, Note_on_c, 13, 56, 89
23, 342272, Note_on_c, 13, 58, 89
23, 342272, Note_on_c, 13, 63, 89
23, 342272, Note_on_c, 13, 64, 89
23, 342336, Note_off_c, 13, 56, 0
23, 342336, Note_off_c, 13, 58, 0
23, 342336, Note_off_c, 13, 63, 0
23, 342336, Note_off_c, 13, 64, 0
23, 342400, Note_on_c, 13, 56, 78
23, 342400, Note_on_c, 13, 58, 78
23, 342400, Note_on_c, 13, 63, 78
23, 342400, Note_on_c, 13, 64, 78
23, 342464, Note_off_c, 13, 56, 0
23, 342464, Note_off_c, 13, 58, 0
23, 342464, Note_off_c, 13, 63, 0
23, 342464, Note_off_c, 13, 64, 0
23, 342528, Note_on_c, 13, 55, 58
23, 342528, Note_on_c, 13, 58, 58
23, 342528, Note_on_c, 13, 62, 58
23, 342528, Note_on_c, 13, 63, 58
23, 342592, Note_off_c, 13, 55, 0
23, 342592, Note_off_c, 13, 58, 0
23, 342592, Note_off_c, 13, 62, 0
23, 342592, Note_off_c, 13, 63, 0
23, 342656, Note_on_c, 13, 55, 60
23, 342656, Note_on_c, 13, 58, 60
23, 342656, Note_on_c, 13, 62, 60
23, 342656, Note_on_c, 13, 63, 60
23, 342720, Note_off_c, 13, 55, 0
23, 342720, Note_off_c, 13, 58, 0
23, 342720, Note_off_c, 13, 62, 0
23, 342720, Note_off_c, 13, 63, 0
23, 342784, Note_on_c, 13, 55, 62
23, 342784, Note_on_c, 13, 58, 62
23, 342784, Note_on_c, 13, 62, 62
23, 342784, Note_on_c, 13, 63, 62
23, 342848, Note_off_c, 13, 55, 0
23, 342848, Note_off_c, 13, 58, 0
23, 342848, Note_off_c, 13, 62, 0
23, 342848, Note_off_c, 13, 63, 0
23, 342912, Note_on_c, 13, 55, 63
23, 342912, Note_on_c, 13, 58, 63
23, 342912, Note_on_c, 13, 62, 63
23, 342912, Note_on_c, 13, 63, 63
23, 342976, Note_off_c, 13, 55, 0
23, 342976, Note_off_c, 13, 58, 0
23, 342976, Note_off_c, 13, 62, 0
23, 342976, Note_off_c, 13, 63, 0
23, 343040, Note_on_c, 13, 55, 65
23, 343040, Note_on_c, 13, 58, 65
23, 343040, Note_on_c, 13, 62, 65
23, 343040, Note_on_c, 13, 63, 65
23, 343104, Note_off_c, 13, 55, 0
23, 343104, Note_off_c, 13, 58, 0
23, 343104, Note_off_c, 13, 62, 0
23, 343104, Note_off_c, 13, 63, 0
23, 343168, Note_on_c, 13, 55, 61
23, 343168, Note_on_c, 13, 58, 61
23, 343168, Note_on_c, 13, 62, 61
23, 343168, Note_on_c, 13, 63, 61
23, 343232, Note_off_c, 13, 55, 0
23, 343232, Note_off_c, 13, 58, 0
23, 343232, Note_off_c, 13, 62, 0
23, 343232, Note_off_c, 13, 63, 0
23, 343296, Note_off_c, 13, 27, 0
23, 343296, Note_on_c, 13, 56, 58
23, 343296, Note_on_c, 13, 59, 58
23, 343296, Note_on_c, 13, 63, 58
23, 343360, Note_off_c, 13, 56, 0
23, 343360, Note_off_c, 13, 59, 0
23, 343360, Note_off_c, 13, 63, 0
23, 343424, Note_on_c, 13, 56, 103
23, 343424, Note_on_c, 13, 59, 103
23, 343424, Note_on_c, 13, 63, 103
23, 343424, Note_on_c, 13, 64, 103
23, 343424, Note_on_c, 13, 56, 60
23, 343424, Note_on_c, 13, 59, 60
23, 343424, Note_on_c, 13, 63, 60
23, 343488, Note_off_c, 13, 56, 0
23, 343488, Note_off_c, 13, 59, 0
23, 343488, Note_off_c, 13, 63, 0
23, 343552, Note_off_c, 13, 56, 0
23, 343552, Note_off_c, 13, 59, 0
23, 343552, Note_off_c, 13, 63, 0
23, 343552, Note_off_c, 13, 64, 0
23, 343552, Note_on_c, 13, 56, 60
23, 343552, Note_on_c, 13, 59, 60
23, 343552, Note_on_c, 13, 63, 60
23, 343616, Note_off_c, 13, 56, 0
23, 343616, Note_off_c, 13, 59, 0
23, 343616, Note_off_c, 13, 63, 0
23, 343680, Note_on_c, 13, 56, 58
23, 343680, Note_on_c, 13, 59, 58
23, 343680, Note_on_c, 13, 63, 58
23, 343744, Note_off_c, 13, 56, 0
23, 343744, Note_off_c, 13, 59, 0
23, 343744, Note_off_c, 13, 63, 0
23, 343808, Note_on_c, 13, 56, 104
23, 343808, Note_on_c, 13, 59, 104
23, 343808, Note_on_c, 13, 63, 104
23, 343808, Note_on_c, 13, 64, 104
23, 343808, Note_on_c, 13, 56, 67
23, 343808, Note_on_c, 13, 59, 67
23, 343808, Note_on_c, 13, 63, 67
23, 343872, Note_off_c, 13, 56, 0
23, 343872, Note_off_c, 13, 59, 0
23, 343872, Note_off_c, 13, 63, 0
23, 343936, Note_off_c, 13, 56, 0
23, 343936, Note_off_c, 13, 59, 0
23, 343936, Note_off_c, 13, 63, 0
23, 343936, Note_off_c, 13, 64, 0
23, 343936, Note_on_c, 13, 56, 61
23, 343936, Note_on_c, 13, 59, 61
23, 343936, Note_on_c, 13, 63, 61
23, 344000, Note_off_c, 13, 56, 0
23, 344000, Note_off_c, 13, 59, 0
23, 344000, Note_off_c, 13, 63, 0
23, 344064, Note_on_c, 13, 56, 59
23, 344064, Note_on_c, 13, 59, 59
23, 344064, Note_on_c, 13, 63, 59
23, 344128, Note_off_c, 13, 56, 0
23, 344128, Note_off_c, 13, 59, 0
23, 344128, Note_off_c, 13, 63, 0
23, 344192, Note_on_c, 13, 56, 106
23, 344192, Note_on_c, 13, 59, 106
23, 344192, Note_on_c, 13, 63, 106
23, 344192, Note_on_c, 13, 64, 106
23, 344192, Note_on_c, 13, 56, 61
23, 344192, Note_on_c, 13, 59, 61
23, 344192, Note_on_c, 13, 63, 61
23, 344256, Note_off_c, 13, 56, 0
23, 344256, Note_off_c, 13, 59, 0
23, 344256, Note_off_c, 13, 63, 0
23, 344320, Note_off_c, 13, 56, 0
23, 344320, Note_off_c, 13, 59, 0
23, 344320, Note_off_c, 13, 63, 0
23, 344320, Note_off_c, 13, 64, 0
23, 344320, Note_on_c, 13, 56, 60
23, 344320, Note_on_c, 13, 59, 60
23, 344320, Note_on_c, 13, 63, 60
23, 344384, Note_off_c, 13, 56, 0
23, 344384, Note_off_c, 13, 59, 0
23, 344384, Note_off_c, 13, 63, 0
23, 344448, Note_on_c, 13, 56, 63
23, 344448, Note_on_c, 13, 59, 63
23, 344448, Note_on_c, 13, 63, 63
23, 344512, Note_off_c, 13, 56, 0
23, 344512, Note_off_c, 13, 59, 0
23, 344512, Note_off_c, 13, 63, 0
23, 344576, Note_on_c, 13, 56, 106
23, 344576, Note_on_c, 13, 59, 106
23, 344576, Note_on_c, 13, 63, 106
23, 344576, Note_on_c, 13, 64, 106
23, 344576, Note_on_c, 13, 56, 66
23, 344576, Note_on_c, 13, 59, 66
23, 344576, Note_on_c, 13, 63, 66
23, 344640, Note_off_c, 13, 56, 0
23, 344640, Note_off_c, 13, 59, 0
23, 344640, Note_off_c, 13, 63, 0
23, 344704, Note_off_c, 13, 56, 0
23, 344704, Note_off_c, 13, 59, 0
23, 344704, Note_off_c, 13, 63, 0
23, 344704, Note_off_c, 13, 64, 0
23, 344704, Note_on_c, 13, 56, 59
23, 344704, Note_on_c, 13, 59, 59
23, 344704, Note_on_c, 13, 63, 59
23, 344768, Note_off_c, 13, 56, 0
23, 344768, Note_off_c, 13, 59, 0
23, 344768, Note_off_c, 13, 63, 0
23, 344832, Note_on_c, 13, 56, 64
23, 344832, Note_on_c, 13, 59, 64
23, 344832, Note_on_c, 13, 63, 64
23, 344896, Note_off_c, 13, 56, 0
23, 344896, Note_off_c, 13, 59, 0
23, 344896, Note_off_c, 13, 63, 0
23, 344960, Note_on_c, 13, 56, 98
23, 344960, Note_on_c, 13, 59, 98
23, 344960, Note_on_c, 13, 63, 98
23, 344960, Note_on_c, 13, 64, 98
23, 344960, Note_on_c, 13, 56, 61
23, 344960, Note_on_c, 13, 59, 61
23, 344960, Note_on_c, 13, 63, 61
23, 345024, Note_off_c, 13, 56, 0
23, 345024, Note_off_c, 13, 59, 0
23, 345024, Note_off_c, 13, 63, 0
23, 345088, Note_off_c, 13, 56, 0
23, 345088, Note_off_c, 13, 59, 0
23, 345088, Note_off_c, 13, 63, 0
23, 345088, Note_off_c, 13, 64, 0
23, 345088, Note_on_c, 13, 56, 66
23, 345088, Note_on_c, 13, 59, 66
23, 345088, Note_on_c, 13, 63, 66
23, 345152, Note_off_c, 13, 56, 0
23, 345152, Note_off_c, 13, 59, 0
23, 345152, Note_off_c, 13, 63, 0
23, 345216, Note_on_c, 13, 56, 59
23, 345216, Note_on_c, 13, 59, 59
23, 345216, Note_on_c, 13, 63, 59
23, 345280, Note_off_c, 13, 56, 0
23, 345280, Note_off_c, 13, 59, 0
23, 345280, Note_off_c, 13, 63, 0
23, 345344, Note_on_c, 13, 56, 103
23, 345344, Note_on_c, 13, 59, 103
23, 345344, Note_on_c, 13, 63, 103
23, 345344, Note_on_c, 13, 64, 103
23, 345344, Note_on_c, 13, 56, 62
23, 345344, Note_on_c, 13, 59, 62
23, 345344, Note_on_c, 13, 63, 62
23, 345408, Note_off_c, 13, 56, 0
23, 345408, Note_off_c, 13, 59, 0
23, 345408, Note_off_c, 13, 63, 0
23, 345472, Note_off_c, 13, 56, 0
23, 345472, Note_off_c, 13, 59, 0
23, 345472, Note_off_c, 13, 63, 0
23, 345472, Note_off_c, 13, 64, 0
23, 345472, Note_on_c, 13, 56, 64
23, 345472, Note_on_c, 13, 59, 64
23, 345472, Note_on_c, 13, 63, 64
23, 345536, Note_off_c, 13, 56, 0
23, 345536, Note_off_c, 13, 59, 0
23, 345536, Note_off_c, 13, 63, 0
23, 345600, Note_on_c, 13, 56, 61
23, 345600, Note_on_c, 13, 59, 61
23, 345600, Note_on_c, 13, 63, 61
23, 345664, Note_off_c, 13, 56, 0
23, 345664, Note_off_c, 13, 59, 0
23, 345664, Note_off_c, 13, 63, 0
23, 345728, Note_on_c, 13, 56, 98
23, 345728, Note_on_c, 13, 59, 98
23, 345728, Note_on_c, 13, 63, 98
23, 345728, Note_on_c, 13, 64, 98
23, 345728, Note_on_c, 13, 56, 61
23, 345728, Note_on_c, 13, 59, 61
23, 345728, Note_on_c, 13, 63, 61
23, 345792, Note_off_c, 13, 56, 0
23, 345792, Note_off_c, 13, 59, 0
23, 345792, Note_off_c, 13, 63, 0
23, 345856, Note_off_c, 13, 56, 0
23, 345856, Note_off_c, 13, 59, 0
23, 345856, Note_off_c, 13, 63, 0
23, 345856, Note_off_c, 13, 64, 0
23, 345856, Note_on_c, 13, 57, 61
23, 345856, Note_on_c, 13, 60, 61
23, 345856, Note_on_c, 13, 63, 61
23, 345856, Note_on_c, 13, 65, 61
23, 345920, Note_off_c, 13, 57, 0
23, 345920, Note_off_c, 13, 60, 0
23, 345920, Note_off_c, 13, 63, 0
23, 345920, Note_off_c, 13, 65, 0
23, 345984, Note_on_c, 13, 57, 61
23, 345984, Note_on_c, 13, 60, 61
23, 345984, Note_on_c, 13, 63, 61
23, 345984, Note_on_c, 13, 65, 61
23, 346048, Note_off_c, 13, 57, 0
23, 346048, Note_off_c, 13, 60, 0
23, 346048, Note_off_c, 13, 63, 0
23, 346048, Note_off_c, 13, 65, 0
23, 346112, Note_on_c, 13, 57, 66
23, 346112, Note_on_c, 13, 60, 66
23, 346112, Note_on_c, 13, 63, 66
23, 346112, Note_on_c, 13, 65, 66
23, 346176, Note_off_c, 13, 57, 0
23, 346176, Note_off_c, 13, 60, 0
23, 346176, Note_off_c, 13, 63, 0
23, 346176, Note_off_c, 13, 65, 0
23, 346240, Note_on_c, 13, 57, 63
23, 346240, Note_on_c, 13, 60, 63
23, 346240, Note_on_c, 13, 63, 63
23, 346240, Note_on_c, 13, 65, 63
23, 346304, Note_off_c, 13, 57, 0
23, 346304, Note_off_c, 13, 60, 0
23, 346304, Note_off_c, 13, 63, 0
23, 346304, Note_off_c, 13, 65, 0
23, 346368, Note_on_c, 13, 60, 103
23, 346368, Note_on_c, 13, 63, 103
23, 346368, Note_on_c, 13, 65, 103
23, 346368, Note_on_c, 13, 69, 103
23, 346368, Note_on_c, 13, 57, 66
23, 346368, Note_on_c, 13, 60, 66
23, 346368, Note_on_c, 13, 63, 66
23, 346368, Note_on_c, 13, 65, 66
23, 346432, Note_off_c, 13, 57, 0
23, 346432, Note_off_c, 13, 60, 0
23, 346432, Note_off_c, 13, 63, 0
23, 346432, Note_off_c, 13, 65, 0
23, 346496, Note_off_c, 13, 60, 0
23, 346496, Note_off_c, 13, 63, 0
23, 346496, Note_off_c, 13, 65, 0
23, 346496, Note_off_c, 13, 69, 0
23, 346496, Note_on_c, 13, 57, 61
23, 346496, Note_on_c, 13, 60, 61
23, 346496, Note_on_c, 13, 63, 61
23, 346496, Note_on_c, 13, 65, 61
23, 346560, Note_off_c, 13, 57, 0
23, 346560, Note_off_c, 13, 60, 0
23, 346560, Note_off_c, 13, 63, 0
23, 346560, Note_off_c, 13, 65, 0
23, 346624, Note_on_c, 13, 57, 62
23, 346624, Note_on_c, 13, 60, 62
23, 346624, Note_on_c, 13, 63, 62
23, 346624, Note_on_c, 13, 65, 62
23, 346688, Note_off_c, 13, 57, 0
23, 346688, Note_off_c, 13, 60, 0
23, 346688, Note_off_c, 13, 63, 0
23, 346688, Note_off_c, 13, 65, 0
23, 346752, Note_on_c, 13, 60, 105
23, 346752, Note_on_c, 13, 63, 105
23, 346752, Note_on_c, 13, 65, 105
23, 346752, Note_on_c, 13, 69, 105
23, 346752, Note_on_c, 13, 57, 63
23, 346752, Note_on_c, 13, 60, 63
23, 346752, Note_on_c, 13, 63, 63
23, 346752, Note_on_c, 13, 65, 63
23, 346816, Note_off_c, 13, 57, 0
23, 346816, Note_off_c, 13, 60, 0
23, 346816, Note_off_c, 13, 63, 0
23, 346816, Note_off_c, 13, 65, 0
23, 346880, Note_off_c, 13, 60, 0
23, 346880, Note_off_c, 13, 63, 0
23, 346880, Note_off_c, 13, 65, 0
23, 346880, Note_off_c, 13, 69, 0
23, 346880, Note_on_c, 13, 57, 61
23, 346880, Note_on_c, 13, 60, 61
23, 346880, Note_on_c, 13, 63, 61
23, 346880, Note_on_c, 13, 65, 61
23, 346944, Note_off_c, 13, 57, 0
23, 346944, Note_off_c, 13, 60, 0
23, 346944, Note_off_c, 13, 63, 0
23, 346944, Note_off_c, 13, 65, 0
23, 347008, Note_on_c, 13, 57, 62
23, 347008, Note_on_c, 13, 60, 62
23, 347008, Note_on_c, 13, 63, 62
23, 347008, Note_on_c, 13, 65, 62
23, 347072, Note_off_c, 13, 57, 0
23, 347072, Note_off_c, 13, 60, 0
23, 347072, Note_off_c, 13, 63, 0
23, 347072, Note_off_c, 13, 65, 0
23, 347136, Note_on_c, 13, 60, 101
23, 347136, Note_on_c, 13, 63, 101
23, 347136, Note_on_c, 13, 65, 101
23, 347136, Note_on_c, 13, 69, 101
23, 347136, Note_on_c, 13, 57, 61
23, 347136, Note_on_c, 13, 60, 61
23, 347136, Note_on_c, 13, 63, 61
23, 347136, Note_on_c, 13, 65, 61
23, 347200, Note_off_c, 13, 57, 0
23, 347200, Note_off_c, 13, 60, 0
23, 347200, Note_off_c, 13, 63, 0
23, 347200, Note_off_c, 13, 65, 0
23, 347264, Note_off_c, 13, 60, 0
23, 347264, Note_off_c, 13, 63, 0
23, 347264, Note_off_c, 13, 65, 0
23, 347264, Note_off_c, 13, 69, 0
23, 347264, Note_on_c, 13, 57, 60
23, 347264, Note_on_c, 13, 60, 60
23, 347264, Note_on_c, 13, 63, 60
23, 347264, Note_on_c, 13, 65, 60
23, 347328, Note_off_c, 13, 57, 0
23, 347328, Note_off_c, 13, 60, 0
23, 347328, Note_off_c, 13, 63, 0
23, 347328, Note_off_c, 13, 65, 0
23, 347392, Note_on_c, 13, 57, 59
23, 347392, Note_on_c, 13, 60, 59
23, 347392, Note_on_c, 13, 63, 59
23, 347392, Note_on_c, 13, 65, 59
23, 347456, Note_off_c, 13, 57, 0
23, 347456, Note_off_c, 13, 60, 0
23, 347456, Note_off_c, 13, 63, 0
23, 347456, Note_off_c, 13, 65, 0
23, 347520, Note_on_c, 13, 60, 104
23, 347520, Note_on_c, 13, 63, 104
23, 347520, Note_on_c, 13, 65, 104
23, 347520, Note_on_c, 13, 69, 104
23, 347520, Note_on_c, 13, 57, 57
23, 347520, Note_on_c, 13, 60, 57
23, 347520, Note_on_c, 13, 63, 57
23, 347520, Note_on_c, 13, 65, 57
23, 347584, Note_off_c, 13, 57, 0
23, 347584, Note_off_c, 13, 60, 0
23, 347584, Note_off_c, 13, 63, 0
23, 347584, Note_off_c, 13, 65, 0
23, 347648, Note_off_c, 13, 60, 0
23, 347648, Note_off_c, 13, 63, 0
23, 347648, Note_off_c, 13, 65, 0
23, 347648, Note_off_c, 13, 69, 0
23, 347648, Note_on_c, 13, 57, 61
23, 347648, Note_on_c, 13, 60, 61
23, 347648, Note_on_c, 13, 63, 61
23, 347648, Note_on_c, 13, 65, 61
23, 347712, Note_off_c, 13, 57, 0
23, 347712, Note_off_c, 13, 60, 0
23, 347712, Note_off_c, 13, 63, 0
23, 347712, Note_off_c, 13, 65, 0
23, 347776, Note_on_c, 13, 57, 64
23, 347776, Note_on_c, 13, 60, 64
23, 347776, Note_on_c, 13, 63, 64
23, 347776, Note_on_c, 13, 65, 64
23, 347840, Note_off_c, 13, 57, 0
23, 347840, Note_off_c, 13, 60, 0
23, 347840, Note_off_c, 13, 63, 0
23, 347840, Note_off_c, 13, 65, 0
23, 347904, Note_on_c, 13, 57, 61
23, 347904, Note_on_c, 13, 60, 61
23, 347904, Note_on_c, 13, 63, 61
23, 347904, Note_on_c, 13, 65, 61
23, 347968, Note_off_c, 13, 57, 0
23, 347968, Note_off_c, 13, 60, 0
23, 347968, Note_off_c, 13, 63, 0
23, 347968, Note_off_c, 13, 65, 0
23, 348032, Note_on_c, 13, 60, 103
23, 348032, Note_on_c, 13, 63, 103
23, 348032, Note_on_c, 13, 65, 103
23, 348032, Note_on_c, 13, 69, 103
23, 348032, Note_on_c, 13, 57, 63
23, 348032, Note_on_c, 13, 60, 63
23, 348032, Note_on_c, 13, 63, 63
23, 348032, Note_on_c, 13, 65, 63
23, 348096, Note_off_c, 13, 57, 0
23, 348096, Note_off_c, 13, 60, 0
23, 348096, Note_off_c, 13, 63, 0
23, 348096, Note_off_c, 13, 65, 0
23, 348160, Note_off_c, 13, 60, 0
23, 348160, Note_off_c, 13, 63, 0
23, 348160, Note_off_c, 13, 65, 0
23, 348160, Note_off_c, 13, 69, 0
23, 348288, Note_on_c, 13, 62, 74
23, 348288, Note_on_c, 13, 66, 74
23, 348288, Note_on_c, 13, 56, 53
23, 348288, Note_on_c, 13, 60, 53
23, 348352, Note_off_c, 13, 62, 0
23, 348352, Note_off_c, 13, 66, 0
23, 348352, Note_off_c, 13, 56, 0
23, 348352, Note_off_c, 13, 60, 0
23, 348416, Note_on_c, 13, 66, 89
23, 348416, Note_on_c, 13, 68, 89
23, 348416, Note_on_c, 13, 60, 68
23, 348416, Note_on_c, 13, 62, 68
23, 348480, Note_off_c, 13, 66, 0
23, 348480, Note_off_c, 13, 68, 0
23, 348480, Note_off_c, 13, 60, 0
23, 348480, Note_off_c, 13, 62, 0
23, 348544, Note_on_c, 13, 62, 81
23, 348544, Note_on_c, 13, 66, 81
23, 348544, Note_on_c, 13, 56, 58
23, 348544, Note_on_c, 13, 60, 58
23, 348608, Note_off_c, 13, 62, 0
23, 348608, Note_off_c, 13, 66, 0
23, 348608, Note_off_c, 13, 56, 0
23, 348608, Note_off_c, 13, 60, 0
23, 348672, Note_on_c, 13, 62, 80
23, 348672, Note_on_c, 13, 66, 80
23, 348672, Note_on_c, 13, 56, 57
23, 348672, Note_on_c, 13, 60, 57
23, 348736, Note_off_c, 13, 62, 0
23, 348736, Note_off_c, 13, 66, 0
23, 348736, Note_off_c, 13, 56, 0
23, 348736, Note_off_c, 13, 60, 0
23, 348800, Note_on_c, 13, 66, 87
23, 348800, Note_on_c, 13, 68, 87
23, 348800, Note_on_c, 13, 60, 65
23, 348800, Note_on_c, 13, 62, 65
23, 348864, Note_off_c, 13, 66, 0
23, 348864, Note_off_c, 13, 68, 0
23, 348864, Note_off_c, 13, 60, 0
23, 348864, Note_off_c, 13, 62, 0
23, 348928, Note_on_c, 13, 62, 79
23, 348928, Note_on_c, 13, 66, 79
23, 348928, Note_on_c, 13, 56, 57
23, 348928, Note_on_c, 13, 60, 57
23, 348992, Note_off_c, 13, 62, 0
23, 348992, Note_off_c, 13, 66, 0
23, 348992, Note_off_c, 13, 56, 0
23, 348992, Note_off_c, 13, 60, 0
23, 349056, Note_on_c, 13, 62, 87
23, 349056, Note_on_c, 13, 66, 87
23, 349056, Note_on_c, 13, 56, 65
23, 349056, Note_on_c, 13, 60, 65
23, 349120, Note_off_c, 13, 62, 0
23, 349120, Note_off_c, 13, 66, 0
23, 349120, Note_off_c, 13, 56, 0
23, 349120, Note_off_c, 13, 60, 0
23, 349184, Note_on_c, 13, 66, 93
23, 349184, Note_on_c, 13, 68, 93
23, 349184, Note_on_c, 13, 60, 63
23, 349184, Note_on_c, 13, 62, 63
23, 349248, Note_off_c, 13, 66, 0
23, 349248, Note_off_c, 13, 68, 0
23, 349248, Note_off_c, 13, 60, 0
23, 349248, Note_off_c, 13, 62, 0
23, 349312, Note_on_c, 13, 62, 81
23, 349312, Note_on_c, 13, 66, 81
23, 349312, Note_on_c, 13, 56, 56
23, 349312, Note_on_c, 13, 60, 56
23, 349376, Note_off_c, 13, 62, 0
23, 349376, Note_off_c, 13, 66, 0
23, 349376, Note_off_c, 13, 56, 0
23, 349376, Note_off_c, 13, 60, 0
23, 349440, Note_on_c, 13, 62, 80
23, 349440, Note_on_c, 13, 66, 80
23, 349440, Note_on_c, 13, 56, 59
23, 349440, Note_on_c, 13, 60, 59
23, 349504, Note_off_c, 13, 62, 0
23, 349504, Note_off_c, 13, 66, 0
23, 349504, Note_off_c, 13, 56, 0
23, 349504, Note_off_c, 13, 60, 0
23, 349568, Note_on_c, 13, 66, 91
23, 349568, Note_on_c, 13, 68, 91
23, 349568, Note_on_c, 13, 60, 63
23, 349568, Note_on_c, 13, 62, 63
23, 349632, Note_off_c, 13, 66, 0
23, 349632, Note_off_c, 13, 68, 0
23, 349632, Note_off_c, 13, 60, 0
23, 349632, Note_off_c, 13, 62, 0
23, 349696, Note_on_c, 13, 62, 77
23, 349696, Note_on_c, 13, 66, 77
23, 349696, Note_on_c, 13, 56, 59
23, 349696, Note_on_c, 13, 60, 59
23, 349760, Note_off_c, 13, 62, 0
23, 349760, Note_off_c, 13, 66, 0
23, 349760, Note_off_c, 13, 56, 0
23, 349760, Note_off_c, 13, 60, 0
23, 349824, Note_on_c, 13, 62, 85
23, 349824, Note_on_c, 13, 66, 85
23, 349824, Note_on_c, 13, 56, 64
23, 349824, Note_on_c, 13, 60, 64
23, 349888, Note_off_c, 13, 62, 0
23, 349888, Note_off_c, 13, 66, 0
23, 349888, Note_off_c, 13, 56, 0
23, 349888, Note_off_c, 13, 60, 0
23, 349952, Note_on_c, 13, 66, 89
23, 349952, Note_on_c, 13, 68, 89
23, 349952, Note_on_c, 13, 60, 67
23, 349952, Note_on_c, 13, 62, 67
23, 350016, Note_off_c, 13, 66, 0
23, 350016, Note_off_c, 13, 68, 0
23, 350016, Note_off_c, 13, 60, 0
23, 350016, Note_off_c, 13, 62, 0
23, 350080, Note_on_c, 13, 62, 77
23, 350080, Note_on_c, 13, 66, 77
23, 350080, Note_on_c, 13, 56, 56
23, 350080, Note_on_c, 13, 60, 56
23, 350144, Note_off_c, 13, 62, 0
23, 350144, Note_off_c, 13, 66, 0
23, 350144, Note_off_c, 13, 56, 0
23, 350144, Note_off_c, 13, 60, 0
23, 350208, Note_on_c, 13, 62, 83
23, 350208, Note_on_c, 13, 66, 83
23, 350208, Note_on_c, 13, 56, 62
23, 350208, Note_on_c, 13, 60, 62
23, 350272, Note_off_c, 13, 62, 0
23, 350272, Note_off_c, 13, 66, 0
23, 350272, Note_off_c, 13, 56, 0
23, 350272, Note_off_c, 13, 60, 0
23, 350336, Note_on_c, 13, 62, 84
23, 350336, Note_on_c, 13, 66, 84
23, 350336, Note_on_c, 13, 56, 61
23, 350336, Note_on_c, 13, 60, 61
23, 350400, Note_off_c, 13, 62, 0
23, 350400, Note_off_c, 13, 66, 0
23, 350400, Note_off_c, 13, 56, 0
23, 350400, Note_off_c, 13, 60, 0
23, 350464, Note_on_c, 13, 66, 92
23, 350464, Note_on_c, 13, 68, 92
23, 350464, Note_on_c, 13, 60, 64
23, 350464, Note_on_c, 13, 62, 64
23, 350528, Note_off_c, 13, 66, 0
23, 350528, Note_off_c, 13, 68, 0
23, 350528, Note_off_c, 13, 60, 0
23, 350528, Note_off_c, 13, 62, 0
23, 350592, Note_on_c, 13, 62, 82
23, 350592, Note_on_c, 13, 66, 82
23, 350592, Note_on_c, 13, 56, 61
23, 350592, Note_on_c, 13, 60, 61
23, 350656, Note_off_c, 13, 62, 0
23, 350656, Note_off_c, 13, 66, 0
23, 350656, Note_off_c, 13, 56, 0
23, 350656, Note_off_c, 13, 60, 0
23, 350720, Note_on_c, 13, 67, 75
23, 350720, Note_on_c, 13, 71, 75
23, 350720, Note_on_c, 13, 74, 75
23, 350720, Note_on_c, 13, 77, 75
23, 350720, Note_on_c, 13, 79, 75
23, 350720, Note_on_c, 13, 83, 75
23, 350784, Note_off_c, 13, 67, 0
23, 350784, Note_off_c, 13, 71, 0
23, 350784, Note_off_c, 13, 74, 0
23, 350784, Note_off_c, 13, 77, 0
23, 350784, Note_off_c, 13, 79, 0
23, 350784, Note_off_c, 13, 83, 0
23, 350848, Note_on_c, 13, 67, 63
23, 350848, Note_on_c, 13, 71, 63
23, 350848, Note_on_c, 13, 74, 63
23, 350848, Note_on_c, 13, 77, 63
23, 350848, Note_on_c, 13, 79, 63
23, 350848, Note_on_c, 13, 83, 63
23, 350912, Note_off_c, 13, 67, 0
23, 350912, Note_off_c, 13, 71, 0
23, 350912, Note_off_c, 13, 74, 0
23, 350912, Note_off_c, 13, 77, 0
23, 350912, Note_off_c, 13, 79, 0
23, 350912, Note_off_c, 13, 83, 0
23, 350976, Note_on_c, 13, 67, 67
23, 350976, Note_on_c, 13, 71, 67
23, 350976, Note_on_c, 13, 74, 67
23, 350976, Note_on_c, 13, 77, 67
23, 350976, Note_on_c, 13, 79, 67
23, 350976, Note_on_c, 13, 83, 67
23, 351040, Note_off_c, 13, 67, 0
23, 351040, Note_off_c, 13, 71, 0
23, 351040, Note_off_c, 13, 74, 0
23, 351040, Note_off_c, 13, 77, 0
23, 351040, Note_off_c, 13, 79, 0
23, 351040, Note_off_c, 13, 83, 0
23, 351104, Note_on_c, 13, 67, 58
23, 351104, Note_on_c, 13, 71, 58
23, 351104, Note_on_c, 13, 74, 58
23, 351104, Note_on_c, 13, 77, 58
23, 351104, Note_on_c, 13, 79, 58
23, 351104, Note_on_c, 13, 83, 58
23, 351168, Note_off_c, 13, 67, 0
23, 351168, Note_off_c, 13, 71, 0
23, 351168, Note_off_c, 13, 74, 0
23, 351168, Note_off_c, 13, 77, 0
23, 351168, Note_off_c, 13, 79, 0
23, 351168, Note_off_c, 13, 83, 0
23, 351232, Note_on_c, 13, 67, 58
23, 351232, Note_on_c, 13, 71, 58
23, 351232, Note_on_c, 13, 74, 58
23, 351232, Note_on_c, 13, 77, 58
23, 351232, Note_on_c, 13, 79, 58
23, 351232, Note_on_c, 13, 83, 58
23, 351296, Note_off_c, 13, 67, 0
23, 351296, Note_off_c, 13, 71, 0
23, 351296, Note_off_c, 13, 74, 0
23, 351296, Note_off_c, 13, 77, 0
23, 351296, Note_off_c, 13, 79, 0
23, 351296, Note_off_c, 13, 83, 0
23, 351360, Note_on_c, 13, 67, 64
23, 351360, Note_on_c, 13, 71, 64
23, 351360, Note_on_c, 13, 74, 64
23, 351360, Note_on_c, 13, 77, 64
23, 351360, Note_on_c, 13, 79, 64
23, 351360, Note_on_c, 13, 83, 64
23, 351424, Note_off_c, 13, 67, 0
23, 351424, Note_off_c, 13, 71, 0
23, 351424, Note_off_c, 13, 74, 0
23, 351424, Note_off_c, 13, 77, 0
23, 351424, Note_off_c, 13, 79, 0
23, 351424, Note_off_c, 13, 83, 0
23, 351488, Note_on_c, 13, 67, 57
23, 351488, Note_on_c, 13, 71, 57
23, 351488, Note_on_c, 13, 74, 57
23, 351488, Note_on_c, 13, 77, 57
23, 351488, Note_on_c, 13, 79, 57
23, 351488, Note_on_c, 13, 83, 57
23, 351552, Note_off_c, 13, 67, 0
23, 351552, Note_off_c, 13, 71, 0
23, 351552, Note_off_c, 13, 74, 0
23, 351552, Note_off_c, 13, 77, 0
23, 351552, Note_off_c, 13, 79, 0
23, 351552, Note_off_c, 13, 83, 0
23, 351616, Note_on_c, 13, 67, 65
23, 351616, Note_on_c, 13, 71, 65
23, 351616, Note_on_c, 13, 74, 65
23, 351616, Note_on_c, 13, 77, 65
23, 351616, Note_on_c, 13, 79, 65
23, 351616, Note_on_c, 13, 83, 65
23, 351680, Note_off_c, 13, 67, 0
23, 351680, Note_off_c, 13, 71, 0
23, 351680, Note_off_c, 13, 74, 0
23, 351680, Note_off_c, 13, 77, 0
23, 351680, Note_off_c, 13, 79, 0
23, 351680, Note_off_c, 13, 83, 0
23, 351744, Note_on_c, 13, 67, 64
23, 351744, Note_on_c, 13, 71, 64
23, 351744, Note_on_c, 13, 74, 64
23, 351744, Note_on_c, 13, 77, 64
23, 351744, Note_on_c, 13, 79, 64
23, 351744, Note_on_c, 13, 83, 64
23, 351808, Note_off_c, 13, 67, 0
23, 351808, Note_off_c, 13, 71, 0
23, 351808, Note_off_c, 13, 74, 0
23, 351808, Note_off_c, 13, 77, 0
23, 351808, Note_off_c, 13, 79, 0
23, 351808, Note_off_c, 13, 83, 0
23, 351872, Note_on_c, 13, 67, 64
23, 351872, Note_on_c, 13, 71, 64
23, 351872, Note_on_c, 13, 74, 64
23, 351872, Note_on_c, 13, 77, 64
23, 351872, Note_on_c, 13, 79, 64
23, 351872, Note_on_c, 13, 83, 64
23, 351936, Note_off_c, 13, 67, 0
23, 351936, Note_off_c, 13, 71, 0
23, 351936, Note_off_c, 13, 74, 0
23, 351936, Note_off_c, 13, 77, 0
23, 351936, Note_off_c, 13, 79, 0
23, 351936, Note_off_c, 13, 83, 0
23, 352000, Note_on_c, 13, 67, 58
23, 352000, Note_on_c, 13, 71, 58
23, 352000, Note_on_c, 13, 74, 58
23, 352000, Note_on_c, 13, 77, 58
23, 352000, Note_on_c, 13, 79, 58
23, 352000, Note_on_c, 13, 83, 58
23, 352064, Note_off_c, 13, 67, 0
23, 352064, Note_off_c, 13, 71, 0
23, 352064, Note_off_c, 13, 74, 0
23, 352064, Note_off_c, 13, 77, 0
23, 352064, Note_off_c, 13, 79, 0
23, 352064, Note_off_c, 13, 83, 0
23, 352128, Note_on_c, 13, 67, 63
23, 352128, Note_on_c, 13, 71, 63
23, 352128, Note_on_c, 13, 74, 63
23, 352128, Note_on_c, 13, 77, 63
23, 352128, Note_on_c, 13, 79, 63
23, 352128, Note_on_c, 13, 83, 63
23, 352192, Note_off_c, 13, 67, 0
23, 352192, Note_off_c, 13, 71, 0
23, 352192, Note_off_c, 13, 74, 0
23, 352192, Note_off_c, 13, 77, 0
23, 352192, Note_off_c, 13, 79, 0
23, 352192, Note_off_c, 13, 83, 0
23, 352256, Note_on_c, 13, 67, 61
23, 352256, Note_on_c, 13, 71, 61
23, 352256, Note_on_c, 13, 74, 61
23, 352256, Note_on_c, 13, 77, 61
23, 352256, Note_on_c, 13, 79, 61
23, 352256, Note_on_c, 13, 83, 61
23, 352320, Note_off_c, 13, 67, 0
23, 352320, Note_off_c, 13, 71, 0
23, 352320, Note_off_c, 13, 74, 0
23, 352320, Note_off_c, 13, 77, 0
23, 352320, Note_off_c, 13, 79, 0
23, 352320, Note_off_c, 13, 83, 0
23, 352384, Note_on_c, 13, 67, 61
23, 352384, Note_on_c, 13, 71, 61
23, 352384, Note_on_c, 13, 74, 61
23, 352384, Note_on_c, 13, 77, 61
23, 352384, Note_on_c, 13, 79, 61
23, 352384, Note_on_c, 13, 83, 61
23, 352448, Note_off_c, 13, 67, 0
23, 352448, Note_off_c, 13, 71, 0
23, 352448, Note_off_c, 13, 74, 0
23, 352448, Note_off_c, 13, 77, 0
23, 352448, Note_off_c, 13, 79, 0
23, 352448, Note_off_c, 13, 83, 0
23, 352512, Note_on_c, 13, 67, 62
23, 352512, Note_on_c, 13, 71, 62
23, 352512, Note_on_c, 13, 74, 62
23, 352512, Note_on_c, 13, 77, 62
23, 352512, Note_on_c, 13, 79, 62
23, 352512, Note_on_c, 13, 83, 62
23, 352576, Note_off_c, 13, 67, 0
23, 352576, Note_off_c, 13, 71, 0
23, 352576, Note_off_c, 13, 74, 0
23, 352576, Note_off_c, 13, 77, 0
23, 352576, Note_off_c, 13, 79, 0
23, 352576, Note_off_c, 13, 83, 0
23, 352640, Note_on_c, 13, 67, 58
23, 352640, Note_on_c, 13, 71, 58
23, 352640, Note_on_c, 13, 74, 58
23, 352640, Note_on_c, 13, 77, 58
23, 352640, Note_on_c, 13, 79, 58
23, 352640, Note_on_c, 13, 83, 58
23, 352704, Note_off_c, 13, 67, 0
23, 352704, Note_off_c, 13, 71, 0
23, 352704, Note_off_c, 13, 74, 0
23, 352704, Note_off_c, 13, 77, 0
23, 352704, Note_off_c, 13, 79, 0
23, 352704, Note_off_c, 13, 83, 0
23, 352768, Note_on_c, 13, 67, 58
23, 352768, Note_on_c, 13, 71, 58
23, 352768, Note_on_c, 13, 74, 58
23, 352768, Note_on_c, 13, 77, 58
23, 352768, Note_on_c, 13, 79, 58
23, 352768, Note_on_c, 13, 83, 58
23, 352832, Note_off_c, 13, 67, 0
23, 352832, Note_off_c, 13, 71, 0
23, 352832, Note_off_c, 13, 74, 0
23, 352832, Note_off_c, 13, 77, 0
23, 352832, Note_off_c, 13, 79, 0
23, 352832, Note_off_c, 13, 83, 0
23, 352896, Note_on_c, 13, 67, 60
23, 352896, Note_on_c, 13, 71, 60
23, 352896, Note_on_c, 13, 74, 60
23, 352896, Note_on_c, 13, 77, 60
23, 352896, Note_on_c, 13, 79, 60
23, 352896, Note_on_c, 13, 83, 60
23, 352960, Note_off_c, 13, 67, 0
23, 352960, Note_off_c, 13, 71, 0
23, 352960, Note_off_c, 13, 74, 0
23, 352960, Note_off_c, 13, 77, 0
23, 352960, Note_off_c, 13, 79, 0
23, 352960, Note_off_c, 13, 83, 0
23, 353024, Note_on_c, 13, 67, 59
23, 353024, Note_on_c, 13, 71, 59
23, 353024, Note_on_c, 13, 74, 59
23, 353024, Note_on_c, 13, 77, 59
23, 353024, Note_on_c, 13, 79, 59
23, 353024, Note_on_c, 13, 83, 59
23, 353088, Note_off_c, 13, 67, 0
23, 353088, Note_off_c, 13, 71, 0
23, 353088, Note_off_c, 13, 74, 0
23, 353088, Note_off_c, 13, 77, 0
23, 353088, Note_off_c, 13, 79, 0
23, 353088, Note_off_c, 13, 83, 0
23, 353152, Note_on_c, 13, 67, 63
23, 353152, Note_on_c, 13, 71, 63
23, 353152, Note_on_c, 13, 74, 63
23, 353152, Note_on_c, 13, 77, 63
23, 353152, Note_on_c, 13, 79, 63
23, 353152, Note_on_c, 13, 83, 63
23, 353216, Note_off_c, 13, 67, 0
23, 353216, Note_off_c, 13, 71, 0
23, 353216, Note_off_c, 13, 74, 0
23, 353216, Note_off_c, 13, 77, 0
23, 353216, Note_off_c, 13, 79, 0
23, 353216, Note_off_c, 13, 83, 0
23, 353280, Note_on_c, 13, 67, 64
23, 353280, Note_on_c, 13, 71, 64
23, 353280, Note_on_c, 13, 74, 64
23, 353280, Note_on_c, 13, 77, 64
23, 353280, Note_on_c, 13, 79, 64
23, 353280, Note_on_c, 13, 83, 64
23, 353344, Note_off_c, 13, 67, 0
23, 353344, Note_off_c, 13, 71, 0
23, 353344, Note_off_c, 13, 74, 0
23, 353344, Note_off_c, 13, 77, 0
23, 353344, Note_off_c, 13, 79, 0
23, 353344, Note_off_c, 13, 83, 0
23, 353408, Note_on_c, 13, 67, 58
23, 353408, Note_on_c, 13, 71, 58
23, 353408, Note_on_c, 13, 74, 58
23, 353408, Note_on_c, 13, 77, 58
23, 353408, Note_on_c, 13, 79, 58
23, 353408, Note_on_c, 13, 83, 58
23, 353472, Note_off_c, 13, 67, 0
23, 353472, Note_off_c, 13, 71, 0
23, 353472, Note_off_c, 13, 74, 0
23, 353472, Note_off_c, 13, 77, 0
23, 353472, Note_off_c, 13, 79, 0
23, 353472, Note_off_c, 13, 83, 0
23, 353536, Note_on_c, 13, 67, 63
23, 353536, Note_on_c, 13, 71, 63
23, 353536, Note_on_c, 13, 74, 63
23, 353536, Note_on_c, 13, 77, 63
23, 353536, Note_on_c, 13, 79, 63
23, 353536, Note_on_c, 13, 83, 63
23, 353600, Note_off_c, 13, 67, 0
23, 353600, Note_off_c, 13, 71, 0
23, 353600, Note_off_c, 13, 74, 0
23, 353600, Note_off_c, 13, 77, 0
23, 353600, Note_off_c, 13, 79, 0
23, 353600, Note_off_c, 13, 83, 0
23, 353664, Note_on_c, 13, 67, 60
23, 353664, Note_on_c, 13, 71, 60
23, 353664, Note_on_c, 13, 74, 60
23, 353664, Note_on_c, 13, 77, 60
23, 353664, Note_on_c, 13, 79, 60
23, 353664, Note_on_c, 13, 83, 60
23, 353728, Note_off_c, 13, 67, 0
23, 353728, Note_off_c, 13, 71, 0
23, 353728, Note_off_c, 13, 74, 0
23, 353728, Note_off_c, 13, 77, 0
23, 353728, Note_off_c, 13, 79, 0
23, 353728, Note_off_c, 13, 83, 0
23, 353792, Note_on_c, 13, 67, 61
23, 353792, Note_on_c, 13, 71, 61
23, 353792, Note_on_c, 13, 74, 61
23, 353792, Note_on_c, 13, 77, 61
23, 353792, Note_on_c, 13, 79, 61
23, 353792, Note_on_c, 13, 83, 61
23, 353856, Note_off_c, 13, 67, 0
23, 353856, Note_off_c, 13, 71, 0
23, 353856, Note_off_c, 13, 74, 0
23, 353856, Note_off_c, 13, 77, 0
23, 353856, Note_off_c, 13, 79, 0
23, 353856, Note_off_c, 13, 83, 0
23, 353920, Note_on_c, 13, 67, 64
23, 353920, Note_on_c, 13, 71, 64
23, 353920, Note_on_c, 13, 74, 64
23, 353920, Note_on_c, 13, 77, 64
23, 353920, Note_on_c, 13, 79, 64
23, 353920, Note_on_c, 13, 83, 64
23, 353984, Note_off_c, 13, 67, 0
23, 353984, Note_off_c, 13, 71, 0
23, 353984, Note_off_c, 13, 74, 0
23, 353984, Note_off_c, 13, 77, 0
23, 353984, Note_off_c, 13, 79, 0
23, 353984, Note_off_c, 13, 83, 0
23, 354048, Note_on_c, 13, 67, 61
23, 354048, Note_on_c, 13, 71, 61
23, 354048, Note_on_c, 13, 74, 61
23, 354048, Note_on_c, 13, 77, 61
23, 354048, Note_on_c, 13, 79, 61
23, 354048, Note_on_c, 13, 83, 61
23, 354112, Note_off_c, 13, 67, 0
23, 354112, Note_off_c, 13, 71, 0
23, 354112, Note_off_c, 13, 74, 0
23, 354112, Note_off_c, 13, 77, 0
23, 354112, Note_off_c, 13, 79, 0
23, 354112, Note_off_c, 13, 83, 0
23, 354176, Note_on_c, 13, 67, 63
23, 354176, Note_on_c, 13, 71, 63
23, 354176, Note_on_c, 13, 74, 63
23, 354176, Note_on_c, 13, 77, 63
23, 354176, Note_on_c, 13, 79, 63
23, 354176, Note_on_c, 13, 83, 63
23, 354240, Note_off_c, 13, 67, 0
23, 354240, Note_off_c, 13, 71, 0
23, 354240, Note_off_c, 13, 74, 0
23, 354240, Note_off_c, 13, 77, 0
23, 354240, Note_off_c, 13, 79, 0
23, 354240, Note_off_c, 13, 83, 0
23, 354304, Note_on_c, 13, 67, 60
23, 354304, Note_on_c, 13, 71, 60
23, 354304, Note_on_c, 13, 74, 60
23, 354304, Note_on_c, 13, 77, 60
23, 354304, Note_on_c, 13, 79, 60
23, 354304, Note_on_c, 13, 83, 60
23, 354368, Note_off_c, 13, 67, 0
23, 354368, Note_off_c, 13, 71, 0
23, 354368, Note_off_c, 13, 74, 0
23, 354368, Note_off_c, 13, 77, 0
23, 354368, Note_off_c, 13, 79, 0
23, 354368, Note_off_c, 13, 83, 0
23, 354432, Note_on_c, 13, 67, 63
23, 354432, Note_on_c, 13, 69, 63
23, 354432, Note_on_c, 13, 74, 63
23, 354432, Note_on_c, 13, 77, 63
23, 354432, Note_on_c, 13, 79, 63
23, 354432, Note_on_c, 13, 83, 63
23, 354496, Note_off_c, 13, 67, 0
23, 354496, Note_off_c, 13, 69, 0
23, 354496, Note_off_c, 13, 74, 0
23, 354496, Note_off_c, 13, 77, 0
23, 354496, Note_off_c, 13, 79, 0
23, 354496, Note_off_c, 13, 83, 0
23, 354560, Note_on_c, 13, 67, 61
23, 354560, Note_on_c, 13, 69, 61
23, 354560, Note_on_c, 13, 74, 61
23, 354560, Note_on_c, 13, 77, 61
23, 354560, Note_on_c, 13, 79, 61
23, 354560, Note_on_c, 13, 83, 61
23, 354624, Note_off_c, 13, 67, 0
23, 354624, Note_off_c, 13, 69, 0
23, 354624, Note_off_c, 13, 74, 0
23, 354624, Note_off_c, 13, 77, 0
23, 354624, Note_off_c, 13, 79, 0
23, 354624, Note_off_c, 13, 83, 0
23, 354688, Note_on_c, 13, 67, 59
23, 354688, Note_on_c, 13, 69, 59
23, 354688, Note_on_c, 13, 74, 59
23, 354688, Note_on_c, 13, 77, 59
23, 354688, Note_on_c, 13, 79, 59
23, 354688, Note_on_c, 13, 83, 59
23, 354752, Note_off_c, 13, 67, 0
23, 354752, Note_off_c, 13, 69, 0
23, 354752, Note_off_c, 13, 74, 0
23, 354752, Note_off_c, 13, 77, 0
23, 354752, Note_off_c, 13, 79, 0
23, 354752, Note_off_c, 13, 83, 0
23, 354816, Note_on_c, 13, 67, 64
23, 354816, Note_on_c, 13, 69, 64
23, 354816, Note_on_c, 13, 74, 64
23, 354816, Note_on_c, 13, 77, 64
23, 354816, Note_on_c, 13, 79, 64
23, 354816, Note_on_c, 13, 83, 64
23, 354880, Note_off_c, 13, 67, 0
23, 354880, Note_off_c, 13, 69, 0
23, 354880, Note_off_c, 13, 74, 0
23, 354880, Note_off_c, 13, 77, 0
23, 354880, Note_off_c, 13, 79, 0
23, 354880, Note_off_c, 13, 83, 0
23, 354944, Note_on_c, 13, 67, 62
23, 354944, Note_on_c, 13, 69, 62
23, 354944, Note_on_c, 13, 74, 62
23, 354944, Note_on_c, 13, 77, 62
23, 354944, Note_on_c, 13, 79, 62
23, 354944, Note_on_c, 13, 83, 62
23, 355008, Note_off_c, 13, 67, 0
23, 355008, Note_off_c, 13, 69, 0
23, 355008, Note_off_c, 13, 74, 0
23, 355008, Note_off_c, 13, 77, 0
23, 355008, Note_off_c, 13, 79, 0
23, 355008, Note_off_c, 13, 83, 0
23, 355072, Note_on_c, 13, 67, 64
23, 355072, Note_on_c, 13, 69, 64
23, 355072, Note_on_c, 13, 74, 64
23, 355072, Note_on_c, 13, 77, 64
23, 355072, Note_on_c, 13, 79, 64
23, 355072, Note_on_c, 13, 83, 64
23, 355136, Note_off_c, 13, 67, 0
23, 355136, Note_off_c, 13, 69, 0
23, 355136, Note_off_c, 13, 74, 0
23, 355136, Note_off_c, 13, 77, 0
23, 355136, Note_off_c, 13, 79, 0
23, 355136, Note_off_c, 13, 83, 0
23, 355200, Note_on_c, 13, 67, 63
23, 355200, Note_on_c, 13, 69, 63
23, 355200, Note_on_c, 13, 74, 63
23, 355200, Note_on_c, 13, 77, 63
23, 355200, Note_on_c, 13, 79, 63
23, 355200, Note_on_c, 13, 83, 63
23, 355264, Note_off_c, 13, 67, 0
23, 355264, Note_off_c, 13, 69, 0
23, 355264, Note_off_c, 13, 74, 0
23, 355264, Note_off_c, 13, 77, 0
23, 355264, Note_off_c, 13, 79, 0
23, 355264, Note_off_c, 13, 83, 0
23, 355328, Note_on_c, 13, 67, 63
23, 355328, Note_on_c, 13, 69, 63
23, 355328, Note_on_c, 13, 74, 63
23, 355328, Note_on_c, 13, 77, 63
23, 355328, Note_on_c, 13, 79, 63
23, 355328, Note_on_c, 13, 83, 63
23, 355392, Note_off_c, 13, 67, 0
23, 355392, Note_off_c, 13, 69, 0
23, 355392, Note_off_c, 13, 74, 0
23, 355392, Note_off_c, 13, 77, 0
23, 355392, Note_off_c, 13, 79, 0
23, 355392, Note_off_c, 13, 83, 0
23, 355456, Note_on_c, 13, 67, 65
23, 355456, Note_on_c, 13, 69, 65
23, 355456, Note_on_c, 13, 74, 65
23, 355456, Note_on_c, 13, 77, 65
23, 355456, Note_on_c, 13, 79, 65
23, 355456, Note_on_c, 13, 83, 65
23, 355520, Note_off_c, 13, 67, 0
23, 355520, Note_off_c, 13, 69, 0
23, 355520, Note_off_c, 13, 74, 0
23, 355520, Note_off_c, 13, 77, 0
23, 355520, Note_off_c, 13, 79, 0
23, 355520, Note_off_c, 13, 83, 0
23, 355584, Note_on_c, 13, 60, 51
23, 355584, Note_on_c, 13, 63, 51
23, 355584, Note_on_c, 13, 66, 51
23, 355584, Note_on_c, 13, 68, 51
23, 355584, Note_on_c, 13, 72, 51
23, 355584, Note_on_c, 13, 75, 51
23, 355584, Note_on_c, 13, 78, 51
23, 355584, Note_on_c, 13, 80, 51
23, 355648, Note_off_c, 13, 60, 0
23, 355648, Note_off_c, 13, 63, 0
23, 355648, Note_off_c, 13, 66, 0
23, 355648, Note_off_c, 13, 68, 0
23, 355648, Note_off_c, 13, 72, 0
23, 355648, Note_off_c, 13, 75, 0
23, 355648, Note_off_c, 13, 78, 0
23, 355648, Note_off_c, 13, 80, 0
23, 355712, Note_on_c, 13, 60, 58
23, 355712, Note_on_c, 13, 63, 58
23, 355712, Note_on_c, 13, 66, 58
23, 355712, Note_on_c, 13, 68, 58
23, 355712, Note_on_c, 13, 72, 58
23, 355712, Note_on_c, 13, 75, 58
23, 355712, Note_on_c, 13, 78, 58
23, 355712, Note_on_c, 13, 80, 58
23, 355776, Note_off_c, 13, 60, 0
23, 355776, Note_off_c, 13, 63, 0
23, 355776, Note_off_c, 13, 66, 0
23, 355776, Note_off_c, 13, 68, 0
23, 355776, Note_off_c, 13, 72, 0
23, 355776, Note_off_c, 13, 75, 0
23, 355776, Note_off_c, 13, 78, 0
23, 355776, Note_off_c, 13, 80, 0
23, 355840, Note_on_c, 13, 60, 61
23, 355840, Note_on_c, 13, 63, 61
23, 355840, Note_on_c, 13, 66, 61
23, 355840, Note_on_c, 13, 68, 61
23, 355840, Note_on_c, 13, 72, 61
23, 355840, Note_on_c, 13, 75, 61
23, 355840, Note_on_c, 13, 78, 61
23, 355840, Note_on_c, 13, 80, 61
23, 355904, Note_off_c, 13, 60, 0
23, 355904, Note_off_c, 13, 63, 0
23, 355904, Note_off_c, 13, 66, 0
23, 355904, Note_off_c, 13, 68, 0
23, 355904, Note_off_c, 13, 72, 0
23, 355904, Note_off_c, 13, 75, 0
23, 355904, Note_off_c, 13, 78, 0
23, 355904, Note_off_c, 13, 80, 0
23, 355968, Note_on_c, 13, 60, 60
23, 355968, Note_on_c, 13, 63, 60
23, 355968, Note_on_c, 13, 66, 60
23, 355968, Note_on_c, 13, 68, 60
23, 355968, Note_on_c, 13, 72, 60
23, 355968, Note_on_c, 13, 75, 60
23, 355968, Note_on_c, 13, 78, 60
23, 355968, Note_on_c, 13, 80, 60
23, 356032, Note_off_c, 13, 60, 0
23, 356032, Note_off_c, 13, 63, 0
23, 356032, Note_off_c, 13, 66, 0
23, 356032, Note_off_c, 13, 68, 0
23, 356032, Note_off_c, 13, 72, 0
23, 356032, Note_off_c, 13, 75, 0
23, 356032, Note_off_c, 13, 78, 0
23, 356032, Note_off_c, 13, 80, 0
23, 356096, Note_on_c, 13, 60, 58
23, 356096, Note_on_c, 13, 63, 58
23, 356096, Note_on_c, 13, 66, 58
23, 356096, Note_on_c, 13, 68, 58
23, 356096, Note_on_c, 13, 72, 58
23, 356096, Note_on_c, 13, 75, 58
23, 356096, Note_on_c, 13, 78, 58
23, 356096, Note_on_c, 13, 80, 58
23, 356160, Note_off_c, 13, 60, 0
23, 356160, Note_off_c, 13, 63, 0
23, 356160, Note_off_c, 13, 66, 0
23, 356160, Note_off_c, 13, 68, 0
23, 356160, Note_off_c, 13, 72, 0
23, 356160, Note_off_c, 13, 75, 0
23, 356160, Note_off_c, 13, 78, 0
23, 356160, Note_off_c, 13, 80, 0
23, 356224, Note_on_c, 13, 60, 61
23, 356224, Note_on_c, 13, 63, 61
23, 356224, Note_on_c, 13, 66, 61
23, 356224, Note_on_c, 13, 68, 61
23, 356224, Note_on_c, 13, 72, 61
23, 356224, Note_on_c, 13, 75, 61
23, 356224, Note_on_c, 13, 78, 61
23, 356224, Note_on_c, 13, 80, 61
23, 356288, Note_off_c, 13, 60, 0
23, 356288, Note_off_c, 13, 63, 0
23, 356288, Note_off_c, 13, 66, 0
23, 356288, Note_off_c, 13, 68, 0
23, 356288, Note_off_c, 13, 72, 0
23, 356288, Note_off_c, 13, 75, 0
23, 356288, Note_off_c, 13, 78, 0
23, 356288, Note_off_c, 13, 80, 0
23, 356352, Note_on_c, 13, 60, 58
23, 356352, Note_on_c, 13, 63, 58
23, 356352, Note_on_c, 13, 66, 58
23, 356352, Note_on_c, 13, 68, 58
23, 356352, Note_on_c, 13, 72, 58
23, 356352, Note_on_c, 13, 75, 58
23, 356352, Note_on_c, 13, 78, 58
23, 356352, Note_on_c, 13, 80, 58
23, 356416, Note_off_c, 13, 60, 0
23, 356416, Note_off_c, 13, 63, 0
23, 356416, Note_off_c, 13, 66, 0
23, 356416, Note_off_c, 13, 68, 0
23, 356416, Note_off_c, 13, 72, 0
23, 356416, Note_off_c, 13, 75, 0
23, 356416, Note_off_c, 13, 78, 0
23, 356416, Note_off_c, 13, 80, 0
23, 356480, Note_on_c, 13, 60, 65
23, 356480, Note_on_c, 13, 63, 65
23, 356480, Note_on_c, 13, 66, 65
23, 356480, Note_on_c, 13, 68, 65
23, 356480, Note_on_c, 13, 72, 65
23, 356480, Note_on_c, 13, 75, 65
23, 356480, Note_on_c, 13, 78, 65
23, 356480, Note_on_c, 13, 80, 65
23, 356544, Note_off_c, 13, 60, 0
23, 356544, Note_off_c, 13, 63, 0
23, 356544, Note_off_c, 13, 66, 0
23, 356544, Note_off_c, 13, 68, 0
23, 356544, Note_off_c, 13, 72, 0
23, 356544, Note_off_c, 13, 75, 0
23, 356544, Note_off_c, 13, 78, 0
23, 356544, Note_off_c, 13, 80, 0
23, 356608, Note_on_c, 13, 60, 65
23, 356608, Note_on_c, 13, 63, 65
23, 356608, Note_on_c, 13, 66, 65
23, 356608, Note_on_c, 13, 68, 65
23, 356608, Note_on_c, 13, 72, 65
23, 356608, Note_on_c, 13, 75, 65
23, 356608, Note_on_c, 13, 78, 65
23, 356608, Note_on_c, 13, 80, 65
23, 356672, Note_off_c, 13, 60, 0
23, 356672, Note_off_c, 13, 63, 0
23, 356672, Note_off_c, 13, 66, 0
23, 356672, Note_off_c, 13, 68, 0
23, 356672, Note_off_c, 13, 72, 0
23, 356672, Note_off_c, 13, 75, 0
23, 356672, Note_off_c, 13, 78, 0
23, 356672, Note_off_c, 13, 80, 0
23, 356736, Note_on_c, 13, 60, 62
23, 356736, Note_on_c, 13, 63, 62
23, 356736, Note_on_c, 13, 66, 62
23, 356736, Note_on_c, 13, 68, 62
23, 356736, Note_on_c, 13, 72, 62
23, 356736, Note_on_c, 13, 75, 62
23, 356736, Note_on_c, 13, 78, 62
23, 356736, Note_on_c, 13, 80, 62
23, 356800, Note_off_c, 13, 60, 0
23, 356800, Note_off_c, 13, 63, 0
23, 356800, Note_off_c, 13, 66, 0
23, 356800, Note_off_c, 13, 68, 0
23, 356800, Note_off_c, 13, 72, 0
23, 356800, Note_off_c, 13, 75, 0
23, 356800, Note_off_c, 13, 78, 0
23, 356800, Note_off_c, 13, 80, 0
23, 356864, Note_on_c, 13, 60, 62
23, 356864, Note_on_c, 13, 63, 62
23, 356864, Note_on_c, 13, 66, 62
23, 356864, Note_on_c, 13, 68, 62
23, 356864, Note_on_c, 13, 72, 62
23, 356864, Note_on_c, 13, 75, 62
23, 356864, Note_on_c, 13, 78, 62
23, 356864, Note_on_c, 13, 80, 62
23, 356928, Note_off_c, 13, 60, 0
23, 356928, Note_off_c, 13, 63, 0
23, 356928, Note_off_c, 13, 66, 0
23, 356928, Note_off_c, 13, 68, 0
23, 356928, Note_off_c, 13, 72, 0
23, 356928, Note_off_c, 13, 75, 0
23, 356928, Note_off_c, 13, 78, 0
23, 356928, Note_off_c, 13, 80, 0
23, 356992, Note_on_c, 13, 60, 59
23, 356992, Note_on_c, 13, 63, 59
23, 356992, Note_on_c, 13, 66, 59
23, 356992, Note_on_c, 13, 68, 59
23, 356992, Note_on_c, 13, 72, 59
23, 356992, Note_on_c, 13, 75, 59
23, 356992, Note_on_c, 13, 78, 59
23, 356992, Note_on_c, 13, 80, 59
23, 357056, Note_off_c, 13, 60, 0
23, 357056, Note_off_c, 13, 63, 0
23, 357056, Note_off_c, 13, 66, 0
23, 357056, Note_off_c, 13, 68, 0
23, 357056, Note_off_c, 13, 72, 0
23, 357056, Note_off_c, 13, 75, 0
23, 357056, Note_off_c, 13, 78, 0
23, 357056, Note_off_c, 13, 80, 0
23, 357120, Note_on_c, 13, 60, 64
23, 357120, Note_on_c, 13, 63, 64
23, 357120, Note_on_c, 13, 66, 64
23, 357120, Note_on_c, 13, 68, 64
23, 357120, Note_on_c, 13, 72, 64
23, 357120, Note_on_c, 13, 75, 64
23, 357120, Note_on_c, 13, 78, 64
23, 357120, Note_on_c, 13, 80, 64
23, 357184, Note_off_c, 13, 60, 0
23, 357184, Note_off_c, 13, 63, 0
23, 357184, Note_off_c, 13, 66, 0
23, 357184, Note_off_c, 13, 68, 0
23, 357184, Note_off_c, 13, 72, 0
23, 357184, Note_off_c, 13, 75, 0
23, 357184, Note_off_c, 13, 78, 0
23, 357184, Note_off_c, 13, 80, 0
23, 357248, Note_on_c, 13, 60, 58
23, 357248, Note_on_c, 13, 63, 58
23, 357248, Note_on_c, 13, 66, 58
23, 357248, Note_on_c, 13, 68, 58
23, 357248, Note_on_c, 13, 72, 58
23, 357248, Note_on_c, 13, 75, 58
23, 357248, Note_on_c, 13, 78, 58
23, 357248, Note_on_c, 13, 80, 58
23, 357312, Note_off_c, 13, 60, 0
23, 357312, Note_off_c, 13, 63, 0
23, 357312, Note_off_c, 13, 66, 0
23, 357312, Note_off_c, 13, 68, 0
23, 357312, Note_off_c, 13, 72, 0
23, 357312, Note_off_c, 13, 75, 0
23, 357312, Note_off_c, 13, 78, 0
23, 357312, Note_off_c, 13, 80, 0
23, 357376, Note_on_c, 13, 60, 60
23, 357376, Note_on_c, 13, 63, 60
23, 357376, Note_on_c, 13, 66, 60
23, 357376, Note_on_c, 13, 68, 60
23, 357376, Note_on_c, 13, 72, 60
23, 357376, Note_on_c, 13, 75, 60
23, 357376, Note_on_c, 13, 78, 60
23, 357376, Note_on_c, 13, 80, 60
23, 357440, Note_off_c, 13, 60, 0
23, 357440, Note_off_c, 13, 63, 0
23, 357440, Note_off_c, 13, 66, 0
23, 357440, Note_off_c, 13, 68, 0
23, 357440, Note_off_c, 13, 72, 0
23, 357440, Note_off_c, 13, 75, 0
23, 357440, Note_off_c, 13, 78, 0
23, 357440, Note_off_c, 13, 80, 0
23, 357504, Note_on_c, 13, 60, 58
23, 357504, Note_on_c, 13, 63, 58
23, 357504, Note_on_c, 13, 66, 58
23, 357504, Note_on_c, 13, 68, 58
23, 357504, Note_on_c, 13, 72, 58
23, 357504, Note_on_c, 13, 75, 58
23, 357504, Note_on_c, 13, 78, 58
23, 357504, Note_on_c, 13, 80, 58
23, 357568, Note_off_c, 13, 60, 0
23, 357568, Note_off_c, 13, 63, 0
23, 357568, Note_off_c, 13, 66, 0
23, 357568, Note_off_c, 13, 68, 0
23, 357568, Note_off_c, 13, 72, 0
23, 357568, Note_off_c, 13, 75, 0
23, 357568, Note_off_c, 13, 78, 0
23, 357568, Note_off_c, 13, 80, 0
23, 357632, Note_on_c, 13, 60, 59
23, 357632, Note_on_c, 13, 63, 59
23, 357632, Note_on_c, 13, 66, 59
23, 357632, Note_on_c, 13, 68, 59
23, 357632, Note_on_c, 13, 72, 59
23, 357632, Note_on_c, 13, 75, 59
23, 357632, Note_on_c, 13, 78, 59
23, 357632, Note_on_c, 13, 80, 59
23, 357696, Note_off_c, 13, 60, 0
23, 357696, Note_off_c, 13, 63, 0
23, 357696, Note_off_c, 13, 66, 0
23, 357696, Note_off_c, 13, 68, 0
23, 357696, Note_off_c, 13, 72, 0
23, 357696, Note_off_c, 13, 75, 0
23, 357696, Note_off_c, 13, 78, 0
23, 357696, Note_off_c, 13, 80, 0
23, 357760, Note_on_c, 13, 60, 61
23, 357760, Note_on_c, 13, 63, 61
23, 357760, Note_on_c, 13, 66, 61
23, 357760, Note_on_c, 13, 68, 61
23, 357760, Note_on_c, 13, 72, 61
23, 357760, Note_on_c, 13, 75, 61
23, 357760, Note_on_c, 13, 78, 61
23, 357760, Note_on_c, 13, 80, 61
23, 357824, Note_off_c, 13, 60, 0
23, 357824, Note_off_c, 13, 63, 0
23, 357824, Note_off_c, 13, 66, 0
23, 357824, Note_off_c, 13, 68, 0
23, 357824, Note_off_c, 13, 72, 0
23, 357824, Note_off_c, 13, 75, 0
23, 357824, Note_off_c, 13, 78, 0
23, 357824, Note_off_c, 13, 80, 0
23, 357888, Note_on_c, 13, 60, 69
23, 357888, Note_on_c, 13, 63, 69
23, 357888, Note_on_c, 13, 66, 69
23, 357888, Note_on_c, 13, 68, 69
23, 357888, Note_on_c, 13, 72, 69
23, 357888, Note_on_c, 13, 75, 69
23, 357888, Note_on_c, 13, 78, 69
23, 357888, Note_on_c, 13, 80, 69
23, 357952, Note_off_c, 13, 60, 0
23, 357952, Note_off_c, 13, 63, 0
23, 357952, Note_off_c, 13, 66, 0
23, 357952, Note_off_c, 13, 68, 0
23, 357952, Note_off_c, 13, 72, 0
23, 357952, Note_off_c, 13, 75, 0
23, 357952, Note_off_c, 13, 78, 0
23, 357952, Note_off_c, 13, 80, 0
23, 358016, Note_on_c, 13, 60, 67
23, 358016, Note_on_c, 13, 63, 67
23, 358016, Note_on_c, 13, 66, 67
23, 358016, Note_on_c, 13, 68, 67
23, 358016, Note_on_c, 13, 72, 67
23, 358016, Note_on_c, 13, 75, 67
23, 358016, Note_on_c, 13, 78, 67
23, 358016, Note_on_c, 13, 80, 67
23, 358080, Note_off_c, 13, 60, 0
23, 358080, Note_off_c, 13, 63, 0
23, 358080, Note_off_c, 13, 66, 0
23, 358080, Note_off_c, 13, 68, 0
23, 358080, Note_off_c, 13, 72, 0
23, 358080, Note_off_c, 13, 75, 0
23, 358080, Note_off_c, 13, 78, 0
23, 358080, Note_off_c, 13, 80, 0
23, 358144, Note_on_c, 13, 61, 51
23, 358144, Note_on_c, 13, 63, 51
23, 358144, Note_on_c, 13, 64, 51
23, 358144, Note_on_c, 13, 67, 51
23, 358144, Note_on_c, 13, 69, 51
23, 358208, Note_off_c, 13, 61, 0
23, 358208, Note_off_c, 13, 63, 0
23, 358208, Note_off_c, 13, 64, 0
23, 358208, Note_off_c, 13, 67, 0
23, 358208, Note_off_c, 13, 69, 0
23, 358272, Note_on_c, 13, 61, 75
23, 358272, Note_on_c, 13, 63, 75
23, 358272, Note_on_c, 13, 64, 75
23, 358272, Note_on_c, 13, 67, 75
23, 358272, Note_on_c, 13, 69, 75
23, 358336, Note_off_c, 13, 61, 0
23, 358336, Note_off_c, 13, 63, 0
23, 358336, Note_off_c, 13, 64, 0
23, 358336, Note_off_c, 13, 67, 0
23, 358336, Note_off_c, 13, 69, 0
23, 358400, Note_on_c, 13, 61, 71
23, 358400, Note_on_c, 13, 63, 71
23, 358400, Note_on_c, 13, 64, 71
23, 358400, Note_on_c, 13, 67, 71
23, 358400, Note_on_c, 13, 69, 71
23, 358464, Note_off_c, 13, 61, 0
23, 358464, Note_off_c, 13, 63, 0
23, 358464, Note_off_c, 13, 64, 0
23, 358464, Note_off_c, 13, 67, 0
23, 358464, Note_off_c, 13, 69, 0
23, 358528, Note_on_c, 13, 61, 74
23, 358528, Note_on_c, 13, 63, 74
23, 358528, Note_on_c, 13, 64, 74
23, 358528, Note_on_c, 13, 67, 74
23, 358528, Note_on_c, 13, 69, 74
23, 358592, Note_off_c, 13, 61, 0
23, 358592, Note_off_c, 13, 63, 0
23, 358592, Note_off_c, 13, 64, 0
23, 358592, Note_off_c, 13, 67, 0
23, 358592, Note_off_c, 13, 69, 0
23, 358656, Note_on_c, 13, 61, 64
23, 358656, Note_on_c, 13, 63, 64
23, 358656, Note_on_c, 13, 64, 64
23, 358656, Note_on_c, 13, 67, 64
23, 358656, Note_on_c, 13, 69, 64
23, 358720, Note_off_c, 13, 61, 0
23, 358720, Note_off_c, 13, 63, 0
23, 358720, Note_off_c, 13, 64, 0
23, 358720, Note_off_c, 13, 67, 0
23, 358720, Note_off_c, 13, 69, 0
23, 358784, Note_on_c, 13, 61, 68
23, 358784, Note_on_c, 13, 63, 68
23, 358784, Note_on_c, 13, 64, 68
23, 358784, Note_on_c, 13, 67, 68
23, 358784, Note_on_c, 13, 69, 68
23, 358848, Note_off_c, 13, 61, 0
23, 358848, Note_off_c, 13, 63, 0
23, 358848, Note_off_c, 13, 64, 0
23, 358848, Note_off_c, 13, 67, 0
23, 358848, Note_off_c, 13, 69, 0
23, 358912, Note_on_c, 13, 61, 74
23, 358912, Note_on_c, 13, 63, 74
23, 358912, Note_on_c, 13, 64, 74
23, 358912, Note_on_c, 13, 67, 74
23, 358912, Note_on_c, 13, 69, 74
23, 358976, Note_off_c, 13, 61, 0
23, 358976, Note_off_c, 13, 63, 0
23, 358976, Note_off_c, 13, 64, 0
23, 358976, Note_off_c, 13, 67, 0
23, 358976, Note_off_c, 13, 69, 0
23, 359040, Note_on_c, 13, 61, 75
23, 359040, Note_on_c, 13, 63, 75
23, 359040, Note_on_c, 13, 64, 75
23, 359040, Note_on_c, 13, 67, 75
23, 359040, Note_on_c, 13, 69, 75
23, 359104, Note_off_c, 13, 61, 0
23, 359104, Note_off_c, 13, 63, 0
23, 359104, Note_off_c, 13, 64, 0
23, 359104, Note_off_c, 13, 67, 0
23, 359104, Note_off_c, 13, 69, 0
23, 359168, Note_on_c, 13, 61, 70
23, 359168, Note_on_c, 13, 63, 70
23, 359168, Note_on_c, 13, 64, 70
23, 359168, Note_on_c, 13, 67, 70
23, 359168, Note_on_c, 13, 69, 70
23, 359232, Note_off_c, 13, 61, 0
23, 359232, Note_off_c, 13, 63, 0
23, 359232, Note_off_c, 13, 64, 0
23, 359232, Note_off_c, 13, 67, 0
23, 359232, Note_off_c, 13, 69, 0
23, 359296, Note_on_c, 13, 61, 68
23, 359296, Note_on_c, 13, 63, 68
23, 359296, Note_on_c, 13, 64, 68
23, 359296, Note_on_c, 13, 67, 68
23, 359296, Note_on_c, 13, 69, 68
23, 359360, Note_off_c, 13, 61, 0
23, 359360, Note_off_c, 13, 63, 0
23, 359360, Note_off_c, 13, 64, 0
23, 359360, Note_off_c, 13, 67, 0
23, 359360, Note_off_c, 13, 69, 0
23, 359424, Note_on_c, 13, 61, 69
23, 359424, Note_on_c, 13, 63, 69
23, 359424, Note_on_c, 13, 64, 69
23, 359424, Note_on_c, 13, 67, 69
23, 359424, Note_on_c, 13, 69, 69
23, 359488, Note_off_c, 13, 61, 0
23, 359488, Note_off_c, 13, 63, 0
23, 359488, Note_off_c, 13, 64, 0
23, 359488, Note_off_c, 13, 67, 0
23, 359488, Note_off_c, 13, 69, 0
23, 359552, Note_on_c, 13, 61, 69
23, 359552, Note_on_c, 13, 63, 69
23, 359552, Note_on_c, 13, 64, 69
23, 359552, Note_on_c, 13, 67, 69
23, 359552, Note_on_c, 13, 69, 69
23, 359616, Note_off_c, 13, 61, 0
23, 359616, Note_off_c, 13, 63, 0
23, 359616, Note_off_c, 13, 64, 0
23, 359616, Note_off_c, 13, 67, 0
23, 359616, Note_off_c, 13, 69, 0
23, 359680, Note_on_c, 13, 61, 67
23, 359680, Note_on_c, 13, 63, 67
23, 359680, Note_on_c, 13, 64, 67
23, 359680, Note_on_c, 13, 67, 67
23, 359680, Note_on_c, 13, 69, 67
23, 359744, Note_off_c, 13, 61, 0
23, 359744, Note_off_c, 13, 63, 0
23, 359744, Note_off_c, 13, 64, 0
23, 359744, Note_off_c, 13, 67, 0
23, 359744, Note_off_c, 13, 69, 0
23, 359808, Note_on_c, 13, 61, 73
23, 359808, Note_on_c, 13, 63, 73
23, 359808, Note_on_c, 13, 64, 73
23, 359808, Note_on_c, 13, 67, 73
23, 359808, Note_on_c, 13, 69, 73
23, 359872, Note_off_c, 13, 61, 0
23, 359872, Note_off_c, 13, 63, 0
23, 359872, Note_off_c, 13, 64, 0
23, 359872, Note_off_c, 13, 67, 0
23, 359872, Note_off_c, 13, 69, 0
23, 359936, Note_on_c, 13, 61, 70
23, 359936, Note_on_c, 13, 63, 70
23, 359936, Note_on_c, 13, 64, 70
23, 359936, Note_on_c, 13, 67, 70
23, 359936, Note_on_c, 13, 69, 70
23, 360000, Note_off_c, 13, 61, 0
23, 360000, Note_off_c, 13, 63, 0
23, 360000, Note_off_c, 13, 64, 0
23, 360000, Note_off_c, 13, 67, 0
23, 360000, Note_off_c, 13, 69, 0
23, 360064, Note_on_c, 13, 61, 67
23, 360064, Note_on_c, 13, 63, 67
23, 360064, Note_on_c, 13, 64, 67
23, 360064, Note_on_c, 13, 67, 67
23, 360064, Note_on_c, 13, 70, 67
23, 360128, Note_off_c, 13, 61, 0
23, 360128, Note_off_c, 13, 63, 0
23, 360128, Note_off_c, 13, 64, 0
23, 360128, Note_off_c, 13, 67, 0
23, 360128, Note_off_c, 13, 70, 0
23, 360192, Note_on_c, 13, 61, 75
23, 360192, Note_on_c, 13, 63, 75
23, 360192, Note_on_c, 13, 64, 75
23, 360192, Note_on_c, 13, 67, 75
23, 360192, Note_on_c, 13, 70, 75
23, 360256, Note_off_c, 13, 61, 0
23, 360256, Note_off_c, 13, 63, 0
23, 360256, Note_off_c, 13, 64, 0
23, 360256, Note_off_c, 13, 67, 0
23, 360256, Note_off_c, 13, 70, 0
23, 360320, Note_on_c, 13, 61, 68
23, 360320, Note_on_c, 13, 63, 68
23, 360320, Note_on_c, 13, 64, 68
23, 360320, Note_on_c, 13, 67, 68
23, 360320, Note_on_c, 13, 70, 68
23, 360384, Note_off_c, 13, 61, 0
23, 360384, Note_off_c, 13, 63, 0
23, 360384, Note_off_c, 13, 64, 0
23, 360384, Note_off_c, 13, 67, 0
23, 360384, Note_off_c, 13, 70, 0
23, 360448, Note_on_c, 13, 61, 69
23, 360448, Note_on_c, 13, 63, 69
23, 360448, Note_on_c, 13, 64, 69
23, 360448, Note_on_c, 13, 67, 69
23, 360448, Note_on_c, 13, 70, 69
23, 360512, Note_off_c, 13, 61, 0
23, 360512, Note_off_c, 13, 63, 0
23, 360512, Note_off_c, 13, 64, 0
23, 360512, Note_off_c, 13, 67, 0
23, 360512, Note_off_c, 13, 70, 0
23, 360576, Note_on_c, 13, 61, 72
23, 360576, Note_on_c, 13, 63, 72
23, 360576, Note_on_c, 13, 64, 72
23, 360576, Note_on_c, 13, 67, 72
23, 360576, Note_on_c, 13, 70, 72
23, 360640, Note_off_c, 13, 61, 0
23, 360640, Note_off_c, 13, 63, 0
23, 360640, Note_off_c, 13, 64, 0
23, 360640, Note_off_c, 13, 67, 0
23, 360640, Note_off_c, 13, 70, 0
23, 360704, Note_on_c, 13, 61, 74
23, 360704, Note_on_c, 13, 63, 74
23, 360704, Note_on_c, 13, 64, 74
23, 360704, Note_on_c, 13, 67, 74
23, 360704, Note_on_c, 13, 70, 74
23, 360768, Note_off_c, 13, 61, 0
23, 360768, Note_off_c, 13, 63, 0
23, 360768, Note_off_c, 13, 64, 0
23, 360768, Note_off_c, 13, 67, 0
23, 360768, Note_off_c, 13, 70, 0
23, 360832, Note_on_c, 13, 61, 67
23, 360832, Note_on_c, 13, 63, 67
23, 360832, Note_on_c, 13, 64, 67
23, 360832, Note_on_c, 13, 67, 67
23, 360832, Note_on_c, 13, 70, 67
23, 360896, Note_off_c, 13, 61, 0
23, 360896, Note_off_c, 13, 63, 0
23, 360896, Note_off_c, 13, 64, 0
23, 360896, Note_off_c, 13, 67, 0
23, 360896, Note_off_c, 13, 70, 0
23, 360960, Note_on_c, 13, 61, 66
23, 360960, Note_on_c, 13, 63, 66
23, 360960, Note_on_c, 13, 64, 66
23, 360960, Note_on_c, 13, 67, 66
23, 360960, Note_on_c, 13, 70, 66
23, 361024, Note_off_c, 13, 61, 0
23, 361024, Note_off_c, 13, 63, 0
23, 361024, Note_off_c, 13, 64, 0
23, 361024, Note_off_c, 13, 67, 0
23, 361024, Note_off_c, 13, 70, 0
23, 361088, Note_on_c, 13, 61, 61
23, 361088, Note_on_c, 13, 63, 61
23, 361088, Note_on_c, 13, 64, 61
23, 361088, Note_on_c, 13, 67, 61
23, 361088, Note_on_c, 13, 70, 61
23, 361152, Note_off_c, 13, 61, 0
23, 361152, Note_off_c, 13, 63, 0
23, 361152, Note_off_c, 13, 64, 0
23, 361152, Note_off_c, 13, 67, 0
23, 361152, Note_off_c, 13, 70, 0
23, 361216, Note_on_c, 13, 61, 57
23, 361216, Note_on_c, 13, 63, 57
23, 361216, Note_on_c, 13, 64, 57
23, 361216, Note_on_c, 13, 67, 57
23, 361216, Note_on_c, 13, 70, 57
23, 361280, Note_off_c, 13, 61, 0
23, 361280, Note_off_c, 13, 63, 0
23, 361280, Note_off_c, 13, 64, 0
23, 361280, Note_off_c, 13, 67, 0
23, 361280, Note_off_c, 13, 70, 0
23, 361344, Note_on_c, 13, 61, 59
23, 361344, Note_on_c, 13, 63, 59
23, 361344, Note_on_c, 13, 64, 59
23, 361344, Note_on_c, 13, 67, 59
23, 361344, Note_on_c, 13, 70, 59
23, 361408, Note_off_c, 13, 61, 0
23, 361408, Note_off_c, 13, 63, 0
23, 361408, Note_off_c, 13, 64, 0
23, 361408, Note_off_c, 13, 67, 0
23, 361408, Note_off_c, 13, 70, 0
23, 361472, Note_on_c, 13, 61, 64
23, 361472, Note_on_c, 13, 63, 64
23, 361472, Note_on_c, 13, 64, 64
23, 361472, Note_on_c, 13, 67, 64
23, 361472, Note_on_c, 13, 71, 64
23, 361536, Note_off_c, 13, 61, 0
23, 361536, Note_off_c, 13, 63, 0
23, 361536, Note_off_c, 13, 64, 0
23, 361536, Note_off_c, 13, 67, 0
23, 361536, Note_off_c, 13, 71, 0
23, 361600, Note_on_c, 13, 61, 61
23, 361600, Note_on_c, 13, 63, 61
23, 361600, Note_on_c, 13, 64, 61
23, 361600, Note_on_c, 13, 67, 61
23, 361600, Note_on_c, 13, 71, 61
23, 361664, Note_off_c, 13, 61, 0
23, 361664, Note_off_c, 13, 63, 0
23, 361664, Note_off_c, 13, 64, 0
23, 361664, Note_off_c, 13, 67, 0
23, 361664, Note_off_c, 13, 71, 0
23, 361728, Note_on_c, 13, 61, 60
23, 361728, Note_on_c, 13, 63, 60
23, 361728, Note_on_c, 13, 64, 60
23, 361728, Note_on_c, 13, 67, 60
23, 361728, Note_on_c, 13, 71, 60
23, 361792, Note_off_c, 13, 61, 0
23, 361792, Note_off_c, 13, 63, 0
23, 361792, Note_off_c, 13, 64, 0
23, 361792, Note_off_c, 13, 67, 0
23, 361792, Note_off_c, 13, 71, 0
23, 361856, Note_on_c, 13, 61, 60
23, 361856, Note_on_c, 13, 63, 60
23, 361856, Note_on_c, 13, 64, 60
23, 361856, Note_on_c, 13, 67, 60
23, 361856, Note_on_c, 13, 71, 60
23, 361920, Note_off_c, 13, 61, 0
23, 361920, Note_off_c, 13, 63, 0
23, 361920, Note_off_c, 13, 64, 0
23, 361920, Note_off_c, 13, 67, 0
23, 361920, Note_off_c, 13, 71, 0
23, 361984, Note_on_c, 13, 61, 61
23, 361984, Note_on_c, 13, 63, 61
23, 361984, Note_on_c, 13, 64, 61
23, 361984, Note_on_c, 13, 67, 61
23, 361984, Note_on_c, 13, 71, 61
23, 362048, Note_off_c, 13, 61, 0
23, 362048, Note_off_c, 13, 63, 0
23, 362048, Note_off_c, 13, 64, 0
23, 362048, Note_off_c, 13, 67, 0
23, 362048, Note_off_c, 13, 71, 0
23, 362112, Note_on_c, 13, 61, 58
23, 362112, Note_on_c, 13, 63, 58
23, 362112, Note_on_c, 13, 64, 58
23, 362112, Note_on_c, 13, 67, 58
23, 362112, Note_on_c, 13, 71, 58
23, 362176, Note_off_c, 13, 61, 0
23, 362176, Note_off_c, 13, 63, 0
23, 362176, Note_off_c, 13, 64, 0
23, 362176, Note_off_c, 13, 67, 0
23, 362176, Note_off_c, 13, 71, 0
23, 362240, Note_on_c, 13, 61, 59
23, 362240, Note_on_c, 13, 63, 59
23, 362240, Note_on_c, 13, 64, 59
23, 362240, Note_on_c, 13, 67, 59
23, 362240, Note_on_c, 13, 71, 59
23, 362304, Note_off_c, 13, 61, 0
23, 362304, Note_off_c, 13, 63, 0
23, 362304, Note_off_c, 13, 64, 0
23, 362304, Note_off_c, 13, 67, 0
23, 362304, Note_off_c, 13, 71, 0
23, 362368, Note_on_c, 13, 61, 58
23, 362368, Note_on_c, 13, 63, 58
23, 362368, Note_on_c, 13, 64, 58
23, 362368, Note_on_c, 13, 67, 58
23, 362368, Note_on_c, 13, 71, 58
23, 362432, Note_off_c, 13, 61, 0
23, 362432, Note_off_c, 13, 63, 0
23, 362432, Note_off_c, 13, 64, 0
23, 362432, Note_off_c, 13, 67, 0
23, 362432, Note_off_c, 13, 71, 0
23, 362496, Note_on_c, 13, 61, 60
23, 362496, Note_on_c, 13, 63, 60
23, 362496, Note_on_c, 13, 64, 60
23, 362496, Note_on_c, 13, 67, 60
23, 362496, Note_on_c, 13, 71, 60
23, 362560, Note_off_c, 13, 61, 0
23, 362560, Note_off_c, 13, 63, 0
23, 362560, Note_off_c, 13, 64, 0
23, 362560, Note_off_c, 13, 67, 0
23, 362560, Note_off_c, 13, 71, 0
23, 362624, Note_on_c, 13, 61, 64
23, 362624, Note_on_c, 13, 63, 64
23, 362624, Note_on_c, 13, 64, 64
23, 362624, Note_on_c, 13, 67, 64
23, 362624, Note_on_c, 13, 71, 64
23, 362688, Note_off_c, 13, 61, 0
23, 362688, Note_off_c, 13, 63, 0
23, 362688, Note_off_c, 13, 64, 0
23, 362688, Note_off_c, 13, 67, 0
23, 362688, Note_off_c, 13, 71, 0
23, 362752, Note_on_c, 13, 61, 61
23, 362752, Note_on_c, 13, 64, 61
23, 362752, Note_on_c, 13, 67, 61
23, 362752, Note_on_c, 13, 69, 61
23, 362752, Note_on_c, 13, 72, 61
23, 362816, Note_off_c, 13, 61, 0
23, 362816, Note_off_c, 13, 64, 0
23, 362816, Note_off_c, 13, 67, 0
23, 362816, Note_off_c, 13, 69, 0
23, 362816, Note_off_c, 13, 72, 0
23, 362880, Note_on_c, 13, 61, 60
23, 362880, Note_on_c, 13, 64, 60
23, 362880, Note_on_c, 13, 67, 60
23, 362880, Note_on_c, 13, 69, 60
23, 362880, Note_on_c, 13, 72, 60
23, 362944, Note_off_c, 13, 61, 0
23, 362944, Note_off_c, 13, 64, 0
23, 362944, Note_off_c, 13, 67, 0
23, 362944, Note_off_c, 13, 69, 0
23, 362944, Note_off_c, 13, 72, 0
23, 363008, Note_on_c, 13, 61, 61
23, 363008, Note_on_c, 13, 64, 61
23, 363008, Note_on_c, 13, 67, 61
23, 363008, Note_on_c, 13, 69, 61
23, 363008, Note_on_c, 13, 72, 61
23, 363072, Note_off_c, 13, 61, 0
23, 363072, Note_off_c, 13, 64, 0
23, 363072, Note_off_c, 13, 67, 0
23, 363072, Note_off_c, 13, 69, 0
23, 363072, Note_off_c, 13, 72, 0
23, 363136, Note_on_c, 13, 61, 62
23, 363136, Note_on_c, 13, 64, 62
23, 363136, Note_on_c, 13, 67, 62
23, 363136, Note_on_c, 13, 69, 62
23, 363136, Note_on_c, 13, 72, 62
23, 363200, Note_off_c, 13, 61, 0
23, 363200, Note_off_c, 13, 64, 0
23, 363200, Note_off_c, 13, 67, 0
23, 363200, Note_off_c, 13, 69, 0
23, 363200, Note_off_c, 13, 72, 0
23, 363264, Note_on_c, 13, 61, 61
23, 363264, Note_on_c, 13, 64, 61
23, 363264, Note_on_c, 13, 67, 61
23, 363264, Note_on_c, 13, 69, 61
23, 363264, Note_on_c, 13, 72, 61
23, 363328, Note_off_c, 13, 61, 0
23, 363328, Note_off_c, 13, 64, 0
23, 363328, Note_off_c, 13, 67, 0
23, 363328, Note_off_c, 13, 69, 0
23, 363328, Note_off_c, 13, 72, 0
23, 363392, Note_on_c, 13, 61, 60
23, 363392, Note_on_c, 13, 64, 60
23, 363392, Note_on_c, 13, 67, 60
23, 363392, Note_on_c, 13, 69, 60
23, 363392, Note_on_c, 13, 72, 60
23, 363456, Note_off_c, 13, 61, 0
23, 363456, Note_off_c, 13, 64, 0
23, 363456, Note_off_c, 13, 67, 0
23, 363456, Note_off_c, 13, 69, 0
23, 363456, Note_off_c, 13, 72, 0
23, 363520, Note_on_c, 13, 61, 62
23, 363520, Note_on_c, 13, 64, 62
23, 363520, Note_on_c, 13, 67, 62
23, 363520, Note_on_c, 13, 69, 62
23, 363520, Note_on_c, 13, 72, 62
23, 363584, Note_off_c, 13, 61, 0
23, 363584, Note_off_c, 13, 64, 0
23, 363584, Note_off_c, 13, 67, 0
23, 363584, Note_off_c, 13, 69, 0
23, 363584, Note_off_c, 13, 72, 0
23, 363648, Note_on_c, 13, 61, 66
23, 363648, Note_on_c, 13, 64, 66
23, 363648, Note_on_c, 13, 67, 66
23, 363648, Note_on_c, 13, 69, 66
23, 363648, Note_on_c, 13, 72, 66
23, 363712, Note_off_c, 13, 61, 0
23, 363712, Note_off_c, 13, 64, 0
23, 363712, Note_off_c, 13, 67, 0
23, 363712, Note_off_c, 13, 69, 0
23, 363712, Note_off_c, 13, 72, 0
23, 363776, Note_on_c, 13, 61, 59
23, 363776, Note_on_c, 13, 64, 59
23, 363776, Note_on_c, 13, 67, 59
23, 363776, Note_on_c, 13, 69, 59
23, 363776, Note_on_c, 13, 72, 59
23, 363840, Note_off_c, 13, 61, 0
23, 363840, Note_off_c, 13, 64, 0
23, 363840, Note_off_c, 13, 67, 0
23, 363840, Note_off_c, 13, 69, 0
23, 363840, Note_off_c, 13, 72, 0
23, 363904, Note_on_c, 13, 61, 64
23, 363904, Note_on_c, 13, 64, 64
23, 363904, Note_on_c, 13, 67, 64
23, 363904, Note_on_c, 13, 69, 64
23, 363904, Note_on_c, 13, 72, 64
23, 363968, Note_off_c, 13, 61, 0
23, 363968, Note_off_c, 13, 64, 0
23, 363968, Note_off_c, 13, 67, 0
23, 363968, Note_off_c, 13, 69, 0
23, 363968, Note_off_c, 13, 72, 0
23, 364032, Note_on_c, 13, 61, 65
23, 364032, Note_on_c, 13, 64, 65
23, 364032, Note_on_c, 13, 67, 65
23, 364032, Note_on_c, 13, 69, 65
23, 364032, Note_on_c, 13, 72, 65
23, 364096, Note_off_c, 13, 61, 0
23, 364096, Note_off_c, 13, 64, 0
23, 364096, Note_off_c, 13, 67, 0
23, 364096, Note_off_c, 13, 69, 0
23, 364096, Note_off_c, 13, 72, 0
23, 364160, Note_on_c, 13, 61, 57
23, 364160, Note_on_c, 13, 64, 57
23, 364160, Note_on_c, 13, 67, 57
23, 364160, Note_on_c, 13, 69, 57
23, 364160, Note_on_c, 13, 72, 57
23, 364224, Note_off_c, 13, 61, 0
23, 364224, Note_off_c, 13, 64, 0
23, 364224, Note_off_c, 13, 67, 0
23, 364224, Note_off_c, 13, 69, 0
23, 364224, Note_off_c, 13, 72, 0
23, 364288, Note_on_c, 13, 61, 60
23, 364288, Note_on_c, 13, 64, 60
23, 364288, Note_on_c, 13, 67, 60
23, 364288, Note_on_c, 13, 69, 60
23, 364288, Note_on_c, 13, 72, 60
23, 364352, Note_off_c, 13, 61, 0
23, 364352, Note_off_c, 13, 64, 0
23, 364352, Note_off_c, 13, 67, 0
23, 364352, Note_off_c, 13, 69, 0
23, 364352, Note_off_c, 13, 72, 0
23, 364416, Note_on_c, 13, 61, 61
23, 364416, Note_on_c, 13, 64, 61
23, 364416, Note_on_c, 13, 67, 61
23, 364416, Note_on_c, 13, 69, 61
23, 364416, Note_on_c, 13, 72, 61
23, 364480, Note_off_c, 13, 61, 0
23, 364480, Note_off_c, 13, 64, 0
23, 364480, Note_off_c, 13, 67, 0
23, 364480, Note_off_c, 13, 69, 0
23, 364480, Note_off_c, 13, 72, 0
23, 364544, Note_on_c, 13, 61, 63
23, 364544, Note_on_c, 13, 64, 63
23, 364544, Note_on_c, 13, 67, 63
23, 364544, Note_on_c, 13, 69, 63
23, 364544, Note_on_c, 13, 72, 63
23, 364608, Note_off_c, 13, 61, 0
23, 364608, Note_off_c, 13, 64, 0
23, 364608, Note_off_c, 13, 67, 0
23, 364608, Note_off_c, 13, 69, 0
23, 364608, Note_off_c, 13, 72, 0
23, 364672, Note_on_c, 13, 61, 65
23, 364672, Note_on_c, 13, 64, 65
23, 364672, Note_on_c, 13, 67, 65
23, 364672, Note_on_c, 13, 69, 65
23, 364672, Note_on_c, 13, 72, 65
23, 364736, Note_off_c, 13, 61, 0
23, 364736, Note_off_c, 13, 64, 0
23, 364736, Note_off_c, 13, 67, 0
23, 364736, Note_off_c, 13, 69, 0
23, 364736, Note_off_c, 13, 72, 0
23, 364800, Note_on_c, 13, 61, 62
23, 364800, Note_on_c, 13, 64, 62
23, 364800, Note_on_c, 13, 67, 62
23, 364800, Note_on_c, 13, 69, 62
23, 364800, Note_on_c, 13, 72, 62
23, 364864, Note_off_c, 13, 61, 0
23, 364864, Note_off_c, 13, 64, 0
23, 364864, Note_off_c, 13, 67, 0
23, 364864, Note_off_c, 13, 69, 0
23, 364864, Note_off_c, 13, 72, 0
23, 364928, Note_on_c, 13, 61, 65
23, 364928, Note_on_c, 13, 64, 65
23, 364928, Note_on_c, 13, 67, 65
23, 364928, Note_on_c, 13, 69, 65
23, 364928, Note_on_c, 13, 72, 65
23, 364992, Note_off_c, 13, 61, 0
23, 364992, Note_off_c, 13, 64, 0
23, 364992, Note_off_c, 13, 67, 0
23, 364992, Note_off_c, 13, 69, 0
23, 364992, Note_off_c, 13, 72, 0
23, 365056, Note_on_c, 13, 61, 56
23, 365056, Note_on_c, 13, 64, 56
23, 365056, Note_on_c, 13, 67, 56
23, 365056, Note_on_c, 13, 69, 56
23, 365056, Note_on_c, 13, 72, 56
23, 365120, Note_off_c, 13, 61, 0
23, 365120, Note_off_c, 13, 64, 0
23, 365120, Note_off_c, 13, 67, 0
23, 365120, Note_off_c, 13, 69, 0
23, 365120, Note_off_c, 13, 72, 0
23, 365184, Note_on_c, 13, 61, 60
23, 365184, Note_on_c, 13, 64, 60
23, 365184, Note_on_c, 13, 67, 60
23, 365184, Note_on_c, 13, 69, 60
23, 365184, Note_on_c, 13, 72, 60
23, 365248, Note_off_c, 13, 61, 0
23, 365248, Note_off_c, 13, 64, 0
23, 365248, Note_off_c, 13, 67, 0
23, 365248, Note_off_c, 13, 69, 0
23, 365248, Note_off_c, 13, 72, 0
23, 365312, Note_on_c, 13, 61, 64
23, 365312, Note_on_c, 13, 66, 64
23, 365312, Note_on_c, 13, 67, 64
23, 365312, Note_on_c, 13, 69, 64
23, 365312, Note_on_c, 13, 73, 64
23, 365312, Note_on_c, 13, 72, 64
23, 365376, Note_off_c, 13, 61, 0
23, 365376, Note_off_c, 13, 66, 0
23, 365376, Note_off_c, 13, 67, 0
23, 365376, Note_off_c, 13, 69, 0
23, 365376, Note_off_c, 13, 73, 0
23, 365376, Note_off_c, 13, 72, 0
23, 365440, Note_on_c, 13, 61, 66
23, 365440, Note_on_c, 13, 66, 66
23, 365440, Note_on_c, 13, 67, 66
23, 365440, Note_on_c, 13, 69, 66
23, 365440, Note_on_c, 13, 73, 66
23, 365440, Note_on_c, 13, 72, 66
23, 365504, Note_off_c, 13, 61, 0
23, 365504, Note_off_c, 13, 66, 0
23, 365504, Note_off_c, 13, 67, 0
23, 365504, Note_off_c, 13, 69, 0
23, 365504, Note_off_c, 13, 73, 0
23, 365504, Note_off_c, 13, 72, 0
23, 365568, Note_on_c, 13, 61, 57
23, 365568, Note_on_c, 13, 66, 57
23, 365568, Note_on_c, 13, 67, 57
23, 365568, Note_on_c, 13, 69, 57
23, 365568, Note_on_c, 13, 73, 57
23, 365568, Note_on_c, 13, 72, 57
23, 365632, Note_off_c, 13, 61, 0
23, 365632, Note_off_c, 13, 66, 0
23, 365632, Note_off_c, 13, 67, 0
23, 365632, Note_off_c, 13, 69, 0
23, 365632, Note_off_c, 13, 73, 0
23, 365632, Note_off_c, 13, 72, 0
23, 365696, Note_on_c, 13, 61, 66
23, 365696, Note_on_c, 13, 66, 66
23, 365696, Note_on_c, 13, 67, 66
23, 365696, Note_on_c, 13, 69, 66
23, 365696, Note_on_c, 13, 73, 66
23, 365696, Note_on_c, 13, 72, 66
23, 365760, Note_off_c, 13, 61, 0
23, 365760, Note_off_c, 13, 66, 0
23, 365760, Note_off_c, 13, 67, 0
23, 365760, Note_off_c, 13, 69, 0
23, 365760, Note_off_c, 13, 73, 0
23, 365760, Note_off_c, 13, 72, 0
23, 365824, Note_on_c, 13, 61, 64
23, 365824, Note_on_c, 13, 66, 64
23, 365824, Note_on_c, 13, 67, 64
23, 365824, Note_on_c, 13, 69, 64
23, 365824, Note_on_c, 13, 73, 64
23, 365824, Note_on_c, 13, 72, 64
23, 365888, Note_off_c, 13, 61, 0
23, 365888, Note_off_c, 13, 66, 0
23, 365888, Note_off_c, 13, 67, 0
23, 365888, Note_off_c, 13, 69, 0
23, 365888, Note_off_c, 13, 73, 0
23, 365888, Note_off_c, 13, 72, 0
23, 365952, Note_on_c, 13, 61, 61
23, 365952, Note_on_c, 13, 66, 61
23, 365952, Note_on_c, 13, 67, 61
23, 365952, Note_on_c, 13, 69, 61
23, 365952, Note_on_c, 13, 73, 61
23, 365952, Note_on_c, 13, 72, 61
23, 366016, Note_off_c, 13, 61, 0
23, 366016, Note_off_c, 13, 66, 0
23, 366016, Note_off_c, 13, 67, 0
23, 366016, Note_off_c, 13, 69, 0
23, 366016, Note_off_c, 13, 73, 0
23, 366016, Note_off_c, 13, 72, 0
23, 366080, Note_on_c, 13, 61, 60
23, 366080, Note_on_c, 13, 66, 60
23, 366080, Note_on_c, 13, 67, 60
23, 366080, Note_on_c, 13, 69, 60
23, 366080, Note_on_c, 13, 73, 60
23, 366080, Note_on_c, 13, 72, 60
23, 366144, Note_off_c, 13, 61, 0
23, 366144, Note_off_c, 13, 66, 0
23, 366144, Note_off_c, 13, 67, 0
23, 366144, Note_off_c, 13, 69, 0
23, 366144, Note_off_c, 13, 73, 0
23, 366144, Note_off_c, 13, 72, 0
23, 366208, Note_on_c, 13, 61, 64
23, 366208, Note_on_c, 13, 66, 64
23, 366208, Note_on_c, 13, 67, 64
23, 366208, Note_on_c, 13, 69, 64
23, 366208, Note_on_c, 13, 73, 64
23, 366208, Note_on_c, 13, 72, 64
23, 366272, Note_off_c, 13, 61, 0
23, 366272, Note_off_c, 13, 66, 0
23, 366272, Note_off_c, 13, 67, 0
23, 366272, Note_off_c, 13, 69, 0
23, 366272, Note_off_c, 13, 73, 0
23, 366272, Note_off_c, 13, 72, 0
23, 366336, Note_on_c, 13, 61, 62
23, 366336, Note_on_c, 13, 66, 62
23, 366336, Note_on_c, 13, 67, 62
23, 366336, Note_on_c, 13, 69, 62
23, 366336, Note_on_c, 13, 73, 62
23, 366336, Note_on_c, 13, 72, 62
23, 366400, Note_off_c, 13, 61, 0
23, 366400, Note_off_c, 13, 66, 0
23, 366400, Note_off_c, 13, 67, 0
23, 366400, Note_off_c, 13, 69, 0
23, 366400, Note_off_c, 13, 73, 0
23, 366400, Note_off_c, 13, 72, 0
23, 366464, Note_on_c, 13, 61, 65
23, 366464, Note_on_c, 13, 66, 65
23, 366464, Note_on_c, 13, 67, 65
23, 366464, Note_on_c, 13, 69, 65
23, 366464, Note_on_c, 13, 73, 65
23, 366464, Note_on_c, 13, 72, 65
23, 366528, Note_off_c, 13, 61, 0
23, 366528, Note_off_c, 13, 66, 0
23, 366528, Note_off_c, 13, 67, 0
23, 366528, Note_off_c, 13, 69, 0
23, 366528, Note_off_c, 13, 73, 0
23, 366528, Note_off_c, 13, 72, 0
23, 366592, Note_on_c, 13, 61, 66
23, 366592, Note_on_c, 13, 66, 66
23, 366592, Note_on_c, 13, 67, 66
23, 366592, Note_on_c, 13, 69, 66
23, 366592, Note_on_c, 13, 73, 66
23, 366592, Note_on_c, 13, 72, 66
23, 366656, Note_off_c, 13, 61, 0
23, 366656, Note_off_c, 13, 66, 0
23, 366656, Note_off_c, 13, 67, 0
23, 366656, Note_off_c, 13, 69, 0
23, 366656, Note_off_c, 13, 73, 0
23, 366656, Note_off_c, 13, 72, 0
23, 366720, Note_on_c, 13, 61, 58
23, 366720, Note_on_c, 13, 66, 58
23, 366720, Note_on_c, 13, 67, 58
23, 366720, Note_on_c, 13, 69, 58
23, 366720, Note_on_c, 13, 73, 58
23, 366720, Note_on_c, 13, 72, 58
23, 366784, Note_off_c, 13, 61, 0
23, 366784, Note_off_c, 13, 66, 0
23, 366784, Note_off_c, 13, 67, 0
23, 366784, Note_off_c, 13, 69, 0
23, 366784, Note_off_c, 13, 73, 0
23, 366784, Note_off_c, 13, 72, 0
23, 366848, Note_on_c, 13, 61, 62
23, 366848, Note_on_c, 13, 66, 62
23, 366848, Note_on_c, 13, 67, 62
23, 366848, Note_on_c, 13, 69, 62
23, 366848, Note_on_c, 13, 73, 62
23, 366848, Note_on_c, 13, 72, 62
23, 366912, Note_off_c, 13, 61, 0
23, 366912, Note_off_c, 13, 66, 0
23, 366912, Note_off_c, 13, 67, 0
23, 366912, Note_off_c, 13, 69, 0
23, 366912, Note_off_c, 13, 73, 0
23, 366912, Note_off_c, 13, 72, 0
23, 366976, Note_on_c, 13, 61, 59
23, 366976, Note_on_c, 13, 66, 59
23, 366976, Note_on_c, 13, 67, 59
23, 366976, Note_on_c, 13, 69, 59
23, 366976, Note_on_c, 13, 73, 59
23, 366976, Note_on_c, 13, 72, 59
23, 367040, Note_off_c, 13, 61, 0
23, 367040, Note_off_c, 13, 66, 0
23, 367040, Note_off_c, 13, 67, 0
23, 367040, Note_off_c, 13, 69, 0
23, 367040, Note_off_c, 13, 73, 0
23, 367040, Note_off_c, 13, 72, 0
23, 367104, Note_on_c, 13, 61, 64
23, 367104, Note_on_c, 13, 66, 64
23, 367104, Note_on_c, 13, 67, 64
23, 367104, Note_on_c, 13, 69, 64
23, 367104, Note_on_c, 13, 73, 64
23, 367104, Note_on_c, 13, 72, 64
23, 367168, Note_off_c, 13, 61, 0
23, 367168, Note_off_c, 13, 66, 0
23, 367168, Note_off_c, 13, 67, 0
23, 367168, Note_off_c, 13, 69, 0
23, 367168, Note_off_c, 13, 73, 0
23, 367168, Note_off_c, 13, 72, 0
23, 367232, Note_on_c, 13, 61, 61
23, 367232, Note_on_c, 13, 66, 61
23, 367232, Note_on_c, 13, 67, 61
23, 367232, Note_on_c, 13, 69, 61
23, 367232, Note_on_c, 13, 73, 61
23, 367232, Note_on_c, 13, 72, 61
23, 367296, Note_off_c, 13, 61, 0
23, 367296, Note_off_c, 13, 66, 0
23, 367296, Note_off_c, 13, 67, 0
23, 367296, Note_off_c, 13, 69, 0
23, 367296, Note_off_c, 13, 73, 0
23, 367296, Note_off_c, 13, 72, 0
23, 367360, Note_on_c, 13, 61, 64
23, 367360, Note_on_c, 13, 66, 64
23, 367360, Note_on_c, 13, 67, 64
23, 367360, Note_on_c, 13, 69, 64
23, 367360, Note_on_c, 13, 73, 64
23, 367360, Note_on_c, 13, 72, 64
23, 367424, Note_off_c, 13, 61, 0
23, 367424, Note_off_c, 13, 66, 0
23, 367424, Note_off_c, 13, 67, 0
23, 367424, Note_off_c, 13, 69, 0
23, 367424, Note_off_c, 13, 73, 0
23, 367424, Note_off_c, 13, 72, 0
23, 367488, Note_on_c, 13, 61, 64
23, 367488, Note_on_c, 13, 66, 64
23, 367488, Note_on_c, 13, 67, 64
23, 367488, Note_on_c, 13, 69, 64
23, 367488, Note_on_c, 13, 73, 64
23, 367488, Note_on_c, 13, 72, 64
23, 367552, Note_off_c, 13, 61, 0
23, 367552, Note_off_c, 13, 66, 0
23, 367552, Note_off_c, 13, 67, 0
23, 367552, Note_off_c, 13, 69, 0
23, 367552, Note_off_c, 13, 73, 0
23, 367552, Note_off_c, 13, 72, 0
23, 367616, Note_on_c, 13, 61, 67
23, 367616, Note_on_c, 13, 66, 67
23, 367616, Note_on_c, 13, 67, 67
23, 367616, Note_on_c, 13, 69, 67
23, 367616, Note_on_c, 13, 73, 67
23, 367616, Note_on_c, 13, 72, 67
23, 367680, Note_off_c, 13, 61, 0
23, 367680, Note_off_c, 13, 66, 0
23, 367680, Note_off_c, 13, 67, 0
23, 367680, Note_off_c, 13, 69, 0
23, 367680, Note_off_c, 13, 73, 0
23, 367680, Note_off_c, 13, 72, 0
23, 367744, Note_on_c, 13, 61, 64
23, 367744, Note_on_c, 13, 66, 64
23, 367744, Note_on_c, 13, 67, 64
23, 367744, Note_on_c, 13, 69, 64
23, 367744, Note_on_c, 13, 73, 64
23, 367744, Note_on_c, 13, 72, 64
23, 367808, Note_off_c, 13, 61, 0
23, 367808, Note_off_c, 13, 66, 0
23, 367808, Note_off_c, 13, 67, 0
23, 367808, Note_off_c, 13, 69, 0
23, 367808, Note_off_c, 13, 73, 0
23, 367808, Note_off_c, 13, 72, 0
23, 367872, Note_on_c, 13, 61, 62
23, 367872, Note_on_c, 13, 66, 62
23, 367872, Note_on_c, 13, 67, 62
23, 367872, Note_on_c, 13, 69, 62
23, 367872, Note_on_c, 13, 73, 62
23, 367872, Note_on_c, 13, 72, 62
23, 367936, Note_off_c, 13, 61, 0
23, 367936, Note_off_c, 13, 66, 0
23, 367936, Note_off_c, 13, 67, 0
23, 367936, Note_off_c, 13, 69, 0
23, 367936, Note_off_c, 13, 73, 0
23, 367936, Note_off_c, 13, 72, 0
23, 368000, Note_on_c, 13, 61, 56
23, 368000, Note_on_c, 13, 66, 56
23, 368000, Note_on_c, 13, 67, 56
23, 368000, Note_on_c, 13, 69, 56
23, 368000, Note_on_c, 13, 73, 56
23, 368000, Note_on_c, 13, 72, 56
23, 368064, Note_off_c, 13, 61, 0
23, 368064, Note_off_c, 13, 66, 0
23, 368064, Note_off_c, 13, 67, 0
23, 368064, Note_off_c, 13, 69, 0
23, 368064, Note_off_c, 13, 73, 0
23, 368064, Note_off_c, 13, 72, 0
23, 368128, Note_on_c, 13, 61, 63
23, 368128, Note_on_c, 13, 66, 63
23, 368128, Note_on_c, 13, 67, 63
23, 368128, Note_on_c, 13, 69, 63
23, 368128, Note_on_c, 13, 73, 63
23, 368128, Note_on_c, 13, 72, 63
23, 368192, Note_off_c, 13, 61, 0
23, 368192, Note_off_c, 13, 66, 0
23, 368192, Note_off_c, 13, 67, 0
23, 368192, Note_off_c, 13, 69, 0
23, 368192, Note_off_c, 13, 73, 0
23, 368192, Note_off_c, 13, 72, 0
23, 368256, Note_on_c, 13, 61, 64
23, 368256, Note_on_c, 13, 66, 64
23, 368256, Note_on_c, 13, 67, 64
23, 368256, Note_on_c, 13, 69, 64
23, 368256, Note_on_c, 13, 73, 64
23, 368256, Note_on_c, 13, 72, 64
23, 368320, Note_off_c, 13, 61, 0
23, 368320, Note_off_c, 13, 66, 0
23, 368320, Note_off_c, 13, 67, 0
23, 368320, Note_off_c, 13, 69, 0
23, 368320, Note_off_c, 13, 73, 0
23, 368320, Note_off_c, 13, 72, 0
23, 368384, Note_on_c, 13, 62, 63
23, 368384, Note_on_c, 13, 67, 63
23, 368384, Note_on_c, 13, 68, 63
23, 368384, Note_on_c, 13, 70, 63
23, 368384, Note_on_c, 13, 72, 63
23, 368384, Note_on_c, 13, 74, 63
23, 368448, Note_off_c, 13, 62, 0
23, 368448, Note_off_c, 13, 67, 0
23, 368448, Note_off_c, 13, 68, 0
23, 368448, Note_off_c, 13, 70, 0
23, 368448, Note_off_c, 13, 72, 0
23, 368448, Note_off_c, 13, 74, 0
23, 368512, Note_on_c, 13, 62, 63
23, 368512, Note_on_c, 13, 67, 63
23, 368512, Note_on_c, 13, 68, 63
23, 368512, Note_on_c, 13, 70, 63
23, 368512, Note_on_c, 13, 72, 63
23, 368512, Note_on_c, 13, 74, 63
23, 368576, Note_off_c, 13, 62, 0
23, 368576, Note_off_c, 13, 67, 0
23, 368576, Note_off_c, 13, 68, 0
23, 368576, Note_off_c, 13, 70, 0
23, 368576, Note_off_c, 13, 72, 0
23, 368576, Note_off_c, 13, 74, 0
23, 368640, Note_on_c, 13, 62, 62
23, 368640, Note_on_c, 13, 67, 62
23, 368640, Note_on_c, 13, 68, 62
23, 368640, Note_on_c, 13, 70, 62
23, 368640, Note_on_c, 13, 72, 62
23, 368640, Note_on_c, 13, 74, 62
23, 368704, Note_off_c, 13, 62, 0
23, 368704, Note_off_c, 13, 67, 0
23, 368704, Note_off_c, 13, 68, 0
23, 368704, Note_off_c, 13, 70, 0
23, 368704, Note_off_c, 13, 72, 0
23, 368704, Note_off_c, 13, 74, 0
23, 368768, Note_on_c, 13, 62, 60
23, 368768, Note_on_c, 13, 67, 60
23, 368768, Note_on_c, 13, 68, 60
23, 368768, Note_on_c, 13, 70, 60
23, 368768, Note_on_c, 13, 72, 60
23, 368768, Note_on_c, 13, 74, 60
23, 368832, Note_off_c, 13, 62, 0
23, 368832, Note_off_c, 13, 67, 0
23, 368832, Note_off_c, 13, 68, 0
23, 368832, Note_off_c, 13, 70, 0
23, 368832, Note_off_c, 13, 72, 0
23, 368832, Note_off_c, 13, 74, 0
23, 368896, Note_on_c, 13, 62, 56
23, 368896, Note_on_c, 13, 67, 56
23, 368896, Note_on_c, 13, 68, 56
23, 368896, Note_on_c, 13, 70, 56
23, 368896, Note_on_c, 13, 72, 56
23, 368896, Note_on_c, 13, 74, 56
23, 368960, Note_off_c, 13, 62, 0
23, 368960, Note_off_c, 13, 67, 0
23, 368960, Note_off_c, 13, 68, 0
23, 368960, Note_off_c, 13, 70, 0
23, 368960, Note_off_c, 13, 72, 0
23, 368960, Note_off_c, 13, 74, 0
23, 369024, Note_on_c, 13, 62, 63
23, 369024, Note_on_c, 13, 67, 63
23, 369024, Note_on_c, 13, 68, 63
23, 369024, Note_on_c, 13, 70, 63
23, 369024, Note_on_c, 13, 72, 63
23, 369024, Note_on_c, 13, 74, 63
23, 369088, Note_off_c, 13, 62, 0
23, 369088, Note_off_c, 13, 67, 0
23, 369088, Note_off_c, 13, 68, 0
23, 369088, Note_off_c, 13, 70, 0
23, 369088, Note_off_c, 13, 72, 0
23, 369088, Note_off_c, 13, 74, 0
23, 369152, Note_on_c, 13, 62, 68
23, 369152, Note_on_c, 13, 67, 68
23, 369152, Note_on_c, 13, 68, 68
23, 369152, Note_on_c, 13, 70, 68
23, 369152, Note_on_c, 13, 72, 68
23, 369152, Note_on_c, 13, 74, 68
23, 369216, Note_off_c, 13, 62, 0
23, 369216, Note_off_c, 13, 67, 0
23, 369216, Note_off_c, 13, 68, 0
23, 369216, Note_off_c, 13, 70, 0
23, 369216, Note_off_c, 13, 72, 0
23, 369216, Note_off_c, 13, 74, 0
23, 369280, Note_on_c, 13, 62, 80
23, 369280, Note_on_c, 13, 67, 80
23, 369280, Note_on_c, 13, 68, 80
23, 369280, Note_on_c, 13, 70, 80
23, 369280, Note_on_c, 13, 72, 80
23, 369280, Note_on_c, 13, 74, 80
23, 369344, Note_off_c, 13, 62, 0
23, 369344, Note_off_c, 13, 67, 0
23, 369344, Note_off_c, 13, 68, 0
23, 369344, Note_off_c, 13, 70, 0
23, 369344, Note_off_c, 13, 72, 0
23, 369344, Note_off_c, 13, 74, 0
23, 369408, Note_on_c, 13, 62, 82
23, 369408, Note_on_c, 13, 67, 82
23, 369408, Note_on_c, 13, 68, 82
23, 369408, Note_on_c, 13, 70, 82
23, 369408, Note_on_c, 13, 72, 82
23, 369408, Note_on_c, 13, 74, 82
23, 369472, Note_off_c, 13, 62, 0
23, 369472, Note_off_c, 13, 67, 0
23, 369472, Note_off_c, 13, 68, 0
23, 369472, Note_off_c, 13, 70, 0
23, 369472, Note_off_c, 13, 72, 0
23, 369472, Note_off_c, 13, 74, 0
23, 369536, Note_on_c, 13, 62, 85
23, 369536, Note_on_c, 13, 67, 85
23, 369536, Note_on_c, 13, 68, 85
23, 369536, Note_on_c, 13, 70, 85
23, 369536, Note_on_c, 13, 72, 85
23, 369536, Note_on_c, 13, 74, 85
23, 369600, Note_off_c, 13, 62, 0
23, 369600, Note_off_c, 13, 67, 0
23, 369600, Note_off_c, 13, 68, 0
23, 369600, Note_off_c, 13, 70, 0
23, 369600, Note_off_c, 13, 72, 0
23, 369600, Note_off_c, 13, 74, 0
23, 369664, Note_on_c, 13, 62, 82
23, 369664, Note_on_c, 13, 67, 82
23, 369664, Note_on_c, 13, 68, 82
23, 369664, Note_on_c, 13, 70, 82
23, 369664, Note_on_c, 13, 72, 82
23, 369664, Note_on_c, 13, 74, 82
23, 369728, Note_off_c, 13, 62, 0
23, 369728, Note_off_c, 13, 67, 0
23, 369728, Note_off_c, 13, 68, 0
23, 369728, Note_off_c, 13, 70, 0
23, 369728, Note_off_c, 13, 72, 0
23, 369728, Note_off_c, 13, 74, 0
23, 369792, Note_on_c, 13, 62, 78
23, 369792, Note_on_c, 13, 67, 78
23, 369792, Note_on_c, 13, 68, 78
23, 369792, Note_on_c, 13, 70, 78
23, 369792, Note_on_c, 13, 72, 78
23, 369792, Note_on_c, 13, 74, 78
23, 369856, Note_off_c, 13, 62, 0
23, 369856, Note_off_c, 13, 67, 0
23, 369856, Note_off_c, 13, 68, 0
23, 369856, Note_off_c, 13, 70, 0
23, 369856, Note_off_c, 13, 72, 0
23, 369856, Note_off_c, 13, 74, 0
23, 369920, Note_on_c, 13, 62, 70
23, 369920, Note_on_c, 13, 67, 70
23, 369920, Note_on_c, 13, 68, 70
23, 369920, Note_on_c, 13, 70, 70
23, 369920, Note_on_c, 13, 72, 70
23, 369920, Note_on_c, 13, 74, 70
23, 369984, Note_off_c, 13, 62, 0
23, 369984, Note_off_c, 13, 67, 0
23, 369984, Note_off_c, 13, 68, 0
23, 369984, Note_off_c, 13, 70, 0
23, 369984, Note_off_c, 13, 72, 0
23, 369984, Note_off_c, 13, 74, 0
23, 370048, Note_on_c, 13, 62, 65
23, 370048, Note_on_c, 13, 67, 65
23, 370048, Note_on_c, 13, 68, 65
23, 370048, Note_on_c, 13, 70, 65
23, 370048, Note_on_c, 13, 72, 65
23, 370048, Note_on_c, 13, 74, 65
23, 370112, Note_off_c, 13, 62, 0
23, 370112, Note_off_c, 13, 67, 0
23, 370112, Note_off_c, 13, 68, 0
23, 370112, Note_off_c, 13, 70, 0
23, 370112, Note_off_c, 13, 72, 0
23, 370112, Note_off_c, 13, 74, 0
23, 370176, Note_on_c, 13, 62, 69
23, 370176, Note_on_c, 13, 67, 69
23, 370176, Note_on_c, 13, 68, 69
23, 370176, Note_on_c, 13, 70, 69
23, 370176, Note_on_c, 13, 72, 69
23, 370176, Note_on_c, 13, 74, 69
23, 370240, Note_off_c, 13, 62, 0
23, 370240, Note_off_c, 13, 67, 0
23, 370240, Note_off_c, 13, 68, 0
23, 370240, Note_off_c, 13, 70, 0
23, 370240, Note_off_c, 13, 72, 0
23, 370240, Note_off_c, 13, 74, 0
23, 370304, Note_on_c, 13, 62, 60
23, 370304, Note_on_c, 13, 67, 60
23, 370304, Note_on_c, 13, 68, 60
23, 370304, Note_on_c, 13, 70, 60
23, 370304, Note_on_c, 13, 72, 60
23, 370304, Note_on_c, 13, 74, 60
23, 370368, Note_off_c, 13, 62, 0
23, 370368, Note_off_c, 13, 67, 0
23, 370368, Note_off_c, 13, 68, 0
23, 370368, Note_off_c, 13, 70, 0
23, 370368, Note_off_c, 13, 72, 0
23, 370368, Note_off_c, 13, 74, 0
23, 370432, Note_on_c, 13, 62, 60
23, 370432, Note_on_c, 13, 67, 60
23, 370432, Note_on_c, 13, 68, 60
23, 370432, Note_on_c, 13, 70, 60
23, 370432, Note_on_c, 13, 72, 60
23, 370432, Note_on_c, 13, 74, 60
23, 370496, Note_off_c, 13, 62, 0
23, 370496, Note_off_c, 13, 67, 0
23, 370496, Note_off_c, 13, 68, 0
23, 370496, Note_off_c, 13, 70, 0
23, 370496, Note_off_c, 13, 72, 0
23, 370496, Note_off_c, 13, 74, 0
23, 370560, Note_on_c, 13, 62, 59
23, 370560, Note_on_c, 13, 67, 59
23, 370560, Note_on_c, 13, 68, 59
23, 370560, Note_on_c, 13, 70, 59
23, 370560, Note_on_c, 13, 72, 59
23, 370560, Note_on_c, 13, 74, 59
23, 370624, Note_off_c, 13, 62, 0
23, 370624, Note_off_c, 13, 67, 0
23, 370624, Note_off_c, 13, 68, 0
23, 370624, Note_off_c, 13, 70, 0
23, 370624, Note_off_c, 13, 72, 0
23, 370624, Note_off_c, 13, 74, 0
23, 370688, Note_on_c, 13, 62, 61
23, 370688, Note_on_c, 13, 67, 61
23, 370688, Note_on_c, 13, 68, 61
23, 370688, Note_on_c, 13, 70, 61
23, 370688, Note_on_c, 13, 72, 61
23, 370688, Note_on_c, 13, 74, 61
23, 370752, Note_off_c, 13, 62, 0
23, 370752, Note_off_c, 13, 67, 0
23, 370752, Note_off_c, 13, 68, 0
23, 370752, Note_off_c, 13, 70, 0
23, 370752, Note_off_c, 13, 72, 0
23, 370752, Note_off_c, 13, 74, 0
23, 370816, Note_on_c, 13, 62, 58
23, 370816, Note_on_c, 13, 67, 58
23, 370816, Note_on_c, 13, 68, 58
23, 370816, Note_on_c, 13, 70, 58
23, 370816, Note_on_c, 13, 72, 58
23, 370816, Note_on_c, 13, 74, 58
23, 370880, Note_off_c, 13, 62, 0
23, 370880, Note_off_c, 13, 67, 0
23, 370880, Note_off_c, 13, 68, 0
23, 370880, Note_off_c, 13, 70, 0
23, 370880, Note_off_c, 13, 72, 0
23, 370880, Note_off_c, 13, 74, 0
23, 370944, Note_on_c, 13, 62, 62
23, 370944, Note_on_c, 13, 67, 62
23, 370944, Note_on_c, 13, 68, 62
23, 370944, Note_on_c, 13, 70, 62
23, 370944, Note_on_c, 13, 72, 62
23, 370944, Note_on_c, 13, 74, 62
23, 371008, Note_off_c, 13, 62, 0
23, 371008, Note_off_c, 13, 67, 0
23, 371008, Note_off_c, 13, 68, 0
23, 371008, Note_off_c, 13, 70, 0
23, 371008, Note_off_c, 13, 72, 0
23, 371008, Note_off_c, 13, 74, 0
23, 371072, Note_on_c, 13, 62, 61
23, 371072, Note_on_c, 13, 67, 61
23, 371072, Note_on_c, 13, 68, 61
23, 371072, Note_on_c, 13, 70, 61
23, 371072, Note_on_c, 13, 72, 61
23, 371072, Note_on_c, 13, 74, 61
23, 371136, Note_off_c, 13, 62, 0
23, 371136, Note_off_c, 13, 67, 0
23, 371136, Note_off_c, 13, 68, 0
23, 371136, Note_off_c, 13, 70, 0
23, 371136, Note_off_c, 13, 72, 0
23, 371136, Note_off_c, 13, 74, 0
23, 371200, Note_on_c, 13, 62, 60
23, 371200, Note_on_c, 13, 67, 60
23, 371200, Note_on_c, 13, 68, 60
23, 371200, Note_on_c, 13, 70, 60
23, 371200, Note_on_c, 13, 72, 60
23, 371200, Note_on_c, 13, 74, 60
23, 371264, Note_off_c, 13, 62, 0
23, 371264, Note_off_c, 13, 67, 0
23, 371264, Note_off_c, 13, 68, 0
23, 371264, Note_off_c, 13, 70, 0
23, 371264, Note_off_c, 13, 72, 0
23, 371264, Note_off_c, 13, 74, 0
23, 371328, Note_on_c, 13, 62, 64
23, 371328, Note_on_c, 13, 67, 64
23, 371328, Note_on_c, 13, 68, 64
23, 371328, Note_on_c, 13, 70, 64
23, 371328, Note_on_c, 13, 72, 64
23, 371328, Note_on_c, 13, 74, 64
23, 371392, Note_off_c, 13, 62, 0
23, 371392, Note_off_c, 13, 67, 0
23, 371392, Note_off_c, 13, 68, 0
23, 371392, Note_off_c, 13, 70, 0
23, 371392, Note_off_c, 13, 72, 0
23, 371392, Note_off_c, 13, 74, 0
23, 371456, Note_on_c, 13, 61, 63
23, 371456, Note_on_c, 13, 63, 63
23, 371456, Note_on_c, 13, 68, 63
23, 371456, Note_on_c, 13, 69, 63
23, 371456, Note_on_c, 13, 73, 63
23, 371456, Note_on_c, 13, 75, 63
23, 371520, Note_off_c, 13, 61, 0
23, 371520, Note_off_c, 13, 63, 0
23, 371520, Note_off_c, 13, 68, 0
23, 371520, Note_off_c, 13, 69, 0
23, 371520, Note_off_c, 13, 73, 0
23, 371520, Note_off_c, 13, 75, 0
23, 371584, Note_on_c, 13, 61, 61
23, 371584, Note_on_c, 13, 63, 61
23, 371584, Note_on_c, 13, 68, 61
23, 371584, Note_on_c, 13, 69, 61
23, 371584, Note_on_c, 13, 73, 61
23, 371584, Note_on_c, 13, 75, 61
23, 371648, Note_off_c, 13, 61, 0
23, 371648, Note_off_c, 13, 63, 0
23, 371648, Note_off_c, 13, 68, 0
23, 371648, Note_off_c, 13, 69, 0
23, 371648, Note_off_c, 13, 73, 0
23, 371648, Note_off_c, 13, 75, 0
23, 371712, Note_on_c, 13, 61, 56
23, 371712, Note_on_c, 13, 63, 56
23, 371712, Note_on_c, 13, 68, 56
23, 371712, Note_on_c, 13, 69, 56
23, 371712, Note_on_c, 13, 73, 56
23, 371712, Note_on_c, 13, 75, 56
23, 371776, Note_off_c, 13, 61, 0
23, 371776, Note_off_c, 13, 63, 0
23, 371776, Note_off_c, 13, 68, 0
23, 371776, Note_off_c, 13, 69, 0
23, 371776, Note_off_c, 13, 73, 0
23, 371776, Note_off_c, 13, 75, 0
23, 371840, Note_on_c, 13, 61, 58
23, 371840, Note_on_c, 13, 63, 58
23, 371840, Note_on_c, 13, 68, 58
23, 371840, Note_on_c, 13, 69, 58
23, 371840, Note_on_c, 13, 73, 58
23, 371840, Note_on_c, 13, 75, 58
23, 371904, Note_off_c, 13, 61, 0
23, 371904, Note_off_c, 13, 63, 0
23, 371904, Note_off_c, 13, 68, 0
23, 371904, Note_off_c, 13, 69, 0
23, 371904, Note_off_c, 13, 73, 0
23, 371904, Note_off_c, 13, 75, 0
23, 371968, Note_on_c, 13, 61, 58
23, 371968, Note_on_c, 13, 63, 58
23, 371968, Note_on_c, 13, 68, 58
23, 371968, Note_on_c, 13, 69, 58
23, 371968, Note_on_c, 13, 73, 58
23, 371968, Note_on_c, 13, 75, 58
23, 372032, Note_off_c, 13, 61, 0
23, 372032, Note_off_c, 13, 63, 0
23, 372032, Note_off_c, 13, 68, 0
23, 372032, Note_off_c, 13, 69, 0
23, 372032, Note_off_c, 13, 73, 0
23, 372032, Note_off_c, 13, 75, 0
23, 372096, Note_on_c, 13, 61, 63
23, 372096, Note_on_c, 13, 63, 63
23, 372096, Note_on_c, 13, 68, 63
23, 372096, Note_on_c, 13, 69, 63
23, 372096, Note_on_c, 13, 73, 63
23, 372096, Note_on_c, 13, 75, 63
23, 372160, Note_off_c, 13, 61, 0
23, 372160, Note_off_c, 13, 63, 0
23, 372160, Note_off_c, 13, 68, 0
23, 372160, Note_off_c, 13, 69, 0
23, 372160, Note_off_c, 13, 73, 0
23, 372160, Note_off_c, 13, 75, 0
23, 372224, Note_on_c, 13, 61, 56
23, 372224, Note_on_c, 13, 63, 56
23, 372224, Note_on_c, 13, 68, 56
23, 372224, Note_on_c, 13, 69, 56
23, 372224, Note_on_c, 13, 73, 56
23, 372224, Note_on_c, 13, 75, 56
23, 372288, Note_off_c, 13, 61, 0
23, 372288, Note_off_c, 13, 63, 0
23, 372288, Note_off_c, 13, 68, 0
23, 372288, Note_off_c, 13, 69, 0
23, 372288, Note_off_c, 13, 73, 0
23, 372288, Note_off_c, 13, 75, 0
23, 372352, Note_on_c, 13, 61, 58
23, 372352, Note_on_c, 13, 63, 58
23, 372352, Note_on_c, 13, 68, 58
23, 372352, Note_on_c, 13, 69, 58
23, 372352, Note_on_c, 13, 73, 58
23, 372352, Note_on_c, 13, 75, 58
23, 372416, Note_off_c, 13, 61, 0
23, 372416, Note_off_c, 13, 63, 0
23, 372416, Note_off_c, 13, 68, 0
23, 372416, Note_off_c, 13, 69, 0
23, 372416, Note_off_c, 13, 73, 0
23, 372416, Note_off_c, 13, 75, 0
23, 372480, Note_on_c, 13, 61, 63
23, 372480, Note_on_c, 13, 63, 63
23, 372480, Note_on_c, 13, 68, 63
23, 372480, Note_on_c, 13, 69, 63
23, 372480, Note_on_c, 13, 73, 63
23, 372480, Note_on_c, 13, 75, 63
23, 372544, Note_off_c, 13, 61, 0
23, 372544, Note_off_c, 13, 63, 0
23, 372544, Note_off_c, 13, 68, 0
23, 372544, Note_off_c, 13, 69, 0
23, 372544, Note_off_c, 13, 73, 0
23, 372544, Note_off_c, 13, 75, 0
23, 372608, Note_on_c, 13, 61, 59
23, 372608, Note_on_c, 13, 63, 59
23, 372608, Note_on_c, 13, 68, 59
23, 372608, Note_on_c, 13, 69, 59
23, 372608, Note_on_c, 13, 73, 59
23, 372608, Note_on_c, 13, 75, 59
23, 372672, Note_off_c, 13, 61, 0
23, 372672, Note_off_c, 13, 63, 0
23, 372672, Note_off_c, 13, 68, 0
23, 372672, Note_off_c, 13, 69, 0
23, 372672, Note_off_c, 13, 73, 0
23, 372672, Note_off_c, 13, 75, 0
23, 372736, Note_on_c, 13, 61, 58
23, 372736, Note_on_c, 13, 63, 58
23, 372736, Note_on_c, 13, 68, 58
23, 372736, Note_on_c, 13, 69, 58
23, 372736, Note_on_c, 13, 73, 58
23, 372736, Note_on_c, 13, 75, 58
23, 372800, Note_off_c, 13, 61, 0
23, 372800, Note_off_c, 13, 63, 0
23, 372800, Note_off_c, 13, 68, 0
23, 372800, Note_off_c, 13, 69, 0
23, 372800, Note_off_c, 13, 73, 0
23, 372800, Note_off_c, 13, 75, 0
23, 372864, Note_on_c, 13, 61, 63
23, 372864, Note_on_c, 13, 63, 63
23, 372864, Note_on_c, 13, 68, 63
23, 372864, Note_on_c, 13, 69, 63
23, 372864, Note_on_c, 13, 73, 63
23, 372864, Note_on_c, 13, 75, 63
23, 372928, Note_off_c, 13, 61, 0
23, 372928, Note_off_c, 13, 63, 0
23, 372928, Note_off_c, 13, 68, 0
23, 372928, Note_off_c, 13, 69, 0
23, 372928, Note_off_c, 13, 73, 0
23, 372928, Note_off_c, 13, 75, 0
23, 372992, Note_on_c, 13, 61, 63
23, 372992, Note_on_c, 13, 63, 63
23, 372992, Note_on_c, 13, 68, 63
23, 372992, Note_on_c, 13, 69, 63
23, 372992, Note_on_c, 13, 73, 63
23, 372992, Note_on_c, 13, 75, 63
23, 373056, Note_off_c, 13, 61, 0
23, 373056, Note_off_c, 13, 63, 0
23, 373056, Note_off_c, 13, 68, 0
23, 373056, Note_off_c, 13, 69, 0
23, 373056, Note_off_c, 13, 73, 0
23, 373056, Note_off_c, 13, 75, 0
23, 373120, Note_on_c, 13, 61, 64
23, 373120, Note_on_c, 13, 63, 64
23, 373120, Note_on_c, 13, 68, 64
23, 373120, Note_on_c, 13, 69, 64
23, 373120, Note_on_c, 13, 73, 64
23, 373120, Note_on_c, 13, 75, 64
23, 373184, Note_off_c, 13, 61, 0
23, 373184, Note_off_c, 13, 63, 0
23, 373184, Note_off_c, 13, 68, 0
23, 373184, Note_off_c, 13, 69, 0
23, 373184, Note_off_c, 13, 73, 0
23, 373184, Note_off_c, 13, 75, 0
23, 373248, Note_on_c, 13, 61, 66
23, 373248, Note_on_c, 13, 63, 66
23, 373248, Note_on_c, 13, 68, 66
23, 373248, Note_on_c, 13, 69, 66
23, 373248, Note_on_c, 13, 73, 66
23, 373248, Note_on_c, 13, 76, 66
23, 373312, Note_off_c, 13, 61, 0
23, 373312, Note_off_c, 13, 63, 0
23, 373312, Note_off_c, 13, 68, 0
23, 373312, Note_off_c, 13, 69, 0
23, 373312, Note_off_c, 13, 73, 0
23, 373312, Note_off_c, 13, 76, 0
23, 373376, Note_on_c, 13, 61, 82
23, 373376, Note_on_c, 13, 63, 82
23, 373376, Note_on_c, 13, 68, 82
23, 373376, Note_on_c, 13, 69, 82
23, 373376, Note_on_c, 13, 73, 82
23, 373376, Note_on_c, 13, 76, 82
23, 373440, Note_off_c, 13, 61, 0
23, 373440, Note_off_c, 13, 63, 0
23, 373440, Note_off_c, 13, 68, 0
23, 373440, Note_off_c, 13, 69, 0
23, 373440, Note_off_c, 13, 73, 0
23, 373440, Note_off_c, 13, 76, 0
23, 373504, Note_on_c, 13, 61, 97
23, 373504, Note_on_c, 13, 63, 97
23, 373504, Note_on_c, 13, 68, 97
23, 373504, Note_on_c, 13, 69, 97
23, 373504, Note_on_c, 13, 73, 97
23, 373504, Note_on_c, 13, 76, 97
23, 373568, Note_off_c, 13, 61, 0
23, 373568, Note_off_c, 13, 63, 0
23, 373568, Note_off_c, 13, 68, 0
23, 373568, Note_off_c, 13, 69, 0
23, 373568, Note_off_c, 13, 73, 0
23, 373568, Note_off_c, 13, 76, 0
23, 373632, Note_on_c, 13, 61, 97
23, 373632, Note_on_c, 13, 63, 97
23, 373632, Note_on_c, 13, 68, 97
23, 373632, Note_on_c, 13, 69, 97
23, 373632, Note_on_c, 13, 73, 97
23, 373632, Note_on_c, 13, 76, 97
23, 373696, Note_off_c, 13, 61, 0
23, 373696, Note_off_c, 13, 63, 0
23, 373696, Note_off_c, 13, 68, 0
23, 373696, Note_off_c, 13, 69, 0
23, 373696, Note_off_c, 13, 73, 0
23, 373696, Note_off_c, 13, 76, 0
23, 373760, Note_on_c, 13, 61, 91
23, 373760, Note_on_c, 13, 63, 91
23, 373760, Note_on_c, 13, 68, 91
23, 373760, Note_on_c, 13, 69, 91
23, 373760, Note_on_c, 13, 73, 91
23, 373760, Note_on_c, 13, 76, 91
23, 373824, Note_off_c, 13, 61, 0
23, 373824, Note_off_c, 13, 63, 0
23, 373824, Note_off_c, 13, 68, 0
23, 373824, Note_off_c, 13, 69, 0
23, 373824, Note_off_c, 13, 73, 0
23, 373824, Note_off_c, 13, 76, 0
23, 373888, Note_on_c, 13, 61, 79
23, 373888, Note_on_c, 13, 63, 79
23, 373888, Note_on_c, 13, 68, 79
23, 373888, Note_on_c, 13, 69, 79
23, 373888, Note_on_c, 13, 73, 79
23, 373888, Note_on_c, 13, 76, 79
23, 373952, Note_off_c, 13, 61, 0
23, 373952, Note_off_c, 13, 63, 0
23, 373952, Note_off_c, 13, 68, 0
23, 373952, Note_off_c, 13, 69, 0
23, 373952, Note_off_c, 13, 73, 0
23, 373952, Note_off_c, 13, 76, 0
23, 374016, Note_on_c, 13, 61, 87
23, 374016, Note_on_c, 13, 63, 87
23, 374016, Note_on_c, 13, 68, 87
23, 374016, Note_on_c, 13, 69, 87
23, 374016, Note_on_c, 13, 73, 87
23, 374016, Note_on_c, 13, 76, 87
23, 374080, Note_off_c, 13, 61, 0
23, 374080, Note_off_c, 13, 63, 0
23, 374080, Note_off_c, 13, 68, 0
23, 374080, Note_off_c, 13, 69, 0
23, 374080, Note_off_c, 13, 73, 0
23, 374080, Note_off_c, 13, 76, 0
23, 374144, Note_on_c, 13, 61, 78
23, 374144, Note_on_c, 13, 63, 78
23, 374144, Note_on_c, 13, 68, 78
23, 374144, Note_on_c, 13, 69, 78
23, 374144, Note_on_c, 13, 73, 78
23, 374144, Note_on_c, 13, 76, 78
23, 374208, Note_off_c, 13, 61, 0
23, 374208, Note_off_c, 13, 63, 0
23, 374208, Note_off_c, 13, 68, 0
23, 374208, Note_off_c, 13, 69, 0
23, 374208, Note_off_c, 13, 73, 0
23, 374208, Note_off_c, 13, 76, 0
23, 374272, Note_on_c, 13, 61, 84
23, 374272, Note_on_c, 13, 63, 84
23, 374272, Note_on_c, 13, 68, 84
23, 374272, Note_on_c, 13, 69, 84
23, 374272, Note_on_c, 13, 73, 84
23, 374272, Note_on_c, 13, 76, 84
23, 374336, Note_off_c, 13, 61, 0
23, 374336, Note_off_c, 13, 63, 0
23, 374336, Note_off_c, 13, 68, 0
23, 374336, Note_off_c, 13, 69, 0
23, 374336, Note_off_c, 13, 73, 0
23, 374336, Note_off_c, 13, 76, 0
23, 374400, Note_on_c, 13, 61, 93
23, 374400, Note_on_c, 13, 63, 93
23, 374400, Note_on_c, 13, 68, 93
23, 374400, Note_on_c, 13, 69, 93
23, 374400, Note_on_c, 13, 73, 93
23, 374400, Note_on_c, 13, 76, 93
23, 374464, Note_off_c, 13, 61, 0
23, 374464, Note_off_c, 13, 63, 0
23, 374464, Note_off_c, 13, 68, 0
23, 374464, Note_off_c, 13, 69, 0
23, 374464, Note_off_c, 13, 73, 0
23, 374464, Note_off_c, 13, 76, 0
23, 374528, Note_on_c, 13, 61, 94
23, 374528, Note_on_c, 13, 63, 94
23, 374528, Note_on_c, 13, 68, 94
23, 374528, Note_on_c, 13, 69, 94
23, 374528, Note_on_c, 13, 73, 94
23, 374528, Note_on_c, 13, 76, 94
23, 374592, Note_off_c, 13, 61, 0
23, 374592, Note_off_c, 13, 63, 0
23, 374592, Note_off_c, 13, 68, 0
23, 374592, Note_off_c, 13, 69, 0
23, 374592, Note_off_c, 13, 73, 0
23, 374592, Note_off_c, 13, 76, 0
23, 374656, Note_on_c, 13, 61, 91
23, 374656, Note_on_c, 13, 63, 91
23, 374656, Note_on_c, 13, 68, 91
23, 374656, Note_on_c, 13, 69, 91
23, 374656, Note_on_c, 13, 73, 91
23, 374656, Note_on_c, 13, 76, 91
23, 374720, Note_off_c, 13, 61, 0
23, 374720, Note_off_c, 13, 63, 0
23, 374720, Note_off_c, 13, 68, 0
23, 374720, Note_off_c, 13, 69, 0
23, 374720, Note_off_c, 13, 73, 0
23, 374720, Note_off_c, 13, 76, 0
23, 374784, Note_on_c, 13, 48, 101
23, 374848, Note_off_c, 13, 48, 0
23, 374912, Note_on_c, 13, 48, 110
23, 374976, Note_off_c, 13, 48, 0
23, 375040, Note_on_c, 13, 48, 118
23, 375104, Note_off_c, 13, 48, 0
23, 375168, Note_on_c, 13, 48, 110
23, 375232, Note_off_c, 13, 48, 0
23, 375296, Note_on_c, 13, 48, 112
23, 375360, Note_off_c, 13, 48, 0
23, 375424, Note_on_c, 13, 48, 113
23, 375488, Note_off_c, 13, 48, 0
23, 375552, Note_on_c, 13, 49, 113
23, 375616, Note_off_c, 13, 49, 0
23, 375680, Note_on_c, 13, 49, 117
23, 375744, Note_off_c, 13, 49, 0
23, 375808, Note_on_c, 13, 49, 113
23, 375872, Note_off_c, 13, 49, 0
23, 375936, Note_on_c, 13, 49, 111
23, 376000, Note_off_c, 13, 49, 0
23, 376064, Note_on_c, 13, 49, 113
23, 376128, Note_off_c, 13, 49, 0
23, 376192, Note_on_c, 13, 49, 116
23, 376256, Note_off_c, 13, 49, 0
23, 376320, Note_on_c, 13, 51, 119
23, 376384, Note_off_c, 13, 51, 0
23, 376448, Note_on_c, 13, 51, 110
23, 376512, Note_off_c, 13, 51, 0
23, 376576, Note_on_c, 13, 51, 114
23, 376640, Note_off_c, 13, 51, 0
23, 376704, Note_on_c, 13, 51, 110
23, 376768, Note_off_c, 13, 51, 0
23, 376832, Note_on_c, 13, 52, 117
23, 376896, Note_off_c, 13, 52, 0
23, 376960, Note_on_c, 13, 52, 117
23, 377024, Note_off_c, 13, 52, 0
23, 377088, Note_on_c, 13, 52, 90
23, 377088, Note_on_c, 13, 36, 85
23, 377152, Note_off_c, 13, 52, 0
23, 377152, Note_off_c, 13, 36, 0
23, 377216, Note_on_c, 13, 52, 92
23, 377216, Note_on_c, 13, 36, 92
23, 377280, Note_off_c, 13, 52, 0
23, 377280, Note_off_c, 13, 36, 0
23, 377344, Note_on_c, 13, 49, 94
23, 377344, Note_on_c, 13, 37, 103
23, 377408, Note_off_c, 13, 49, 0
23, 377408, Note_off_c, 13, 37, 0
23, 377472, Note_on_c, 13, 49, 101
23, 377472, Note_on_c, 13, 37, 93
23, 377536, Note_off_c, 13, 49, 0
23, 377536, Note_off_c, 13, 37, 0
23, 377600, Note_on_c, 13, 51, 106
23, 377600, Note_on_c, 13, 39, 106
23, 377664, Note_off_c, 13, 51, 0
23, 377664, Note_off_c, 13, 39, 0
23, 377728, Note_on_c, 13, 51, 111
23, 377728, Note_on_c, 13, 39, 106
23, 377792, Note_off_c, 13, 51, 0
23, 377792, Note_off_c, 13, 39, 0
23, 377856, Note_on_c, 13, 52, 114
23, 377856, Note_on_c, 13, 40, 102
23, 377920, Note_off_c, 13, 52, 0
23, 377920, Note_off_c, 13, 40, 0
23, 377984, Note_on_c, 13, 52, 116
23, 377984, Note_on_c, 13, 40, 98
23, 378048, Note_off_c, 13, 52, 0
23, 378048, Note_off_c, 13, 40, 0
23, 378112, Note_on_c, 13, 53, 122
23, 378112, Note_on_c, 13, 42, 99
23, 378176, Note_off_c, 13, 53, 0
23, 378176, Note_off_c, 13, 42, 0
23, 378240, Note_on_c, 13, 53, 120
23, 378240, Note_on_c, 13, 42, 107
23, 378304, Note_off_c, 13, 53, 0
23, 378304, Note_off_c, 13, 42, 0
23, 378368, Note_on_c, 13, 54, 127
23, 378368, Note_on_c, 13, 43, 107
23, 378432, Note_off_c, 13, 54, 0
23, 378432, Note_off_c, 13, 43, 0
23, 378496, Note_on_c, 13, 54, 127
23, 378496, Note_on_c, 13, 43, 110
23, 378560, Note_off_c, 13, 54, 0
23, 378560, Note_off_c, 13, 43, 0
23, 378624, Note_on_c, 13, 51, 110
23, 378624, Note_on_c, 13, 45, 120
23, 378688, Note_off_c, 13, 51, 0
23, 378688, Note_off_c, 13, 45, 0
23, 378752, Note_on_c, 13, 51, 115
23, 378752, Note_on_c, 13, 45, 114
23, 378816, Note_off_c, 13, 51, 0
23, 378816, Note_off_c, 13, 45, 0
23, 378880, Note_on_c, 13, 51, 114
23, 378880, Note_on_c, 13, 46, 125
23, 378944, Note_off_c, 13, 51, 0
23, 378944, Note_off_c, 13, 46, 0
23, 379008, Note_on_c, 13, 51, 112
23, 379008, Note_on_c, 13, 46, 127
23, 379072, Note_off_c, 13, 51, 0
23, 379072, Note_off_c, 13, 46, 0
23, 379136, Note_on_c, 13, 52, 118
23, 379200, Note_off_c, 13, 52, 0
23, 379264, Note_on_c, 13, 52, 110
23, 379328, Note_off_c, 13, 52, 0
23, 379392, Note_on_c, 13, 54, 117
23, 379392, Note_on_c, 13, 39, 100
23, 379456, Note_off_c, 13, 54, 0
23, 379456, Note_off_c, 13, 39, 0
23, 379520, Note_on_c, 13, 54, 113
23, 379520, Note_on_c, 13, 39, 115
23, 379584, Note_off_c, 13, 54, 0
23, 379584, Note_off_c, 13, 39, 0
23, 379648, Note_on_c, 13, 55, 120
23, 379648, Note_on_c, 13, 40, 121
23, 379712, Note_off_c, 13, 55, 0
23, 379712, Note_off_c, 13, 40, 0
23, 379776, Note_on_c, 13, 55, 114
23, 379776, Note_on_c, 13, 40, 112
23, 379840, Note_off_c, 13, 55, 0
23, 379840, Note_off_c, 13, 40, 0
23, 379904, Note_on_c, 13, 57, 117
23, 379904, Note_on_c, 13, 42, 120
23, 379968, Note_off_c, 13, 57, 0
23, 379968, Note_off_c, 13, 42, 0
23, 380032, Note_on_c, 13, 57, 115
23, 380032, Note_on_c, 13, 42, 118
23, 380096, Note_off_c, 13, 57, 0
23, 380096, Note_off_c, 13, 42, 0
23, 380160, Note_on_c, 13, 57, 122
23, 380160, Note_on_c, 13, 43, 120
23, 380224, Note_off_c, 13, 57, 0
23, 380224, Note_off_c, 13, 43, 0
23, 380288, Note_on_c, 13, 58, 126
23, 380288, Note_on_c, 13, 43, 116
23, 380352, Note_off_c, 13, 58, 0
23, 380352, Note_off_c, 13, 43, 0
23, 380416, Note_on_c, 13, 58, 120
23, 380416, Note_on_c, 13, 43, 115
23, 380480, Note_off_c, 13, 58, 0
23, 380480, Note_off_c, 13, 43, 0
23, 380544, Note_on_c, 13, 58, 117
23, 380544, Note_on_c, 13, 45, 121
23, 380608, Note_off_c, 13, 58, 0
23, 380608, Note_off_c, 13, 45, 0
23, 380672, Note_on_c, 13, 60, 125
23, 380672, Note_on_c, 13, 45, 120
23, 380736, Note_off_c, 13, 60, 0
23, 380736, Note_off_c, 13, 45, 0
23, 380800, Note_on_c, 13, 60, 123
23, 380800, Note_on_c, 13, 46, 126
23, 380864, Note_off_c, 13, 60, 0
23, 380864, Note_off_c, 13, 46, 0
23, 380928, Note_on_c, 13, 61, 127
23, 380928, Note_on_c, 13, 46, 126
23, 380992, Note_off_c, 13, 61, 0
23, 380992, Note_off_c, 13, 46, 0
23, 381056, Note_on_c, 13, 61, 124
23, 381056, Note_on_c, 13, 52, 127
23, 381120, Note_off_c, 13, 61, 0
23, 381120, Note_off_c, 13, 52, 0
23, 381184, Note_on_c, 13, 63, 127
23, 381184, Note_on_c, 13, 52, 125
23, 381248, Note_off_c, 13, 63, 0
23, 381248, Note_off_c, 13, 52, 0
23, 381312, Note_on_c, 13, 63, 127
23, 381312, Note_on_c, 13, 54, 127
23, 381376, Note_off_c, 13, 63, 0
23, 381376, Note_off_c, 13, 54, 0
23, 381440, Note_on_c, 13, 55, 101
23, 381504, Note_off_c, 13, 55, 0
23, 381568, Note_on_c, 13, 55, 114
23, 381632, Note_off_c, 13, 55, 0
23, 381696, Note_on_c, 13, 57, 118
23, 381696, Note_on_c, 13, 42, 117
23, 381760, Note_off_c, 13, 57, 0
23, 381760, Note_off_c, 13, 42, 0
23, 381824, Note_on_c, 13, 57, 116
23, 381824, Note_on_c, 13, 42, 127
23, 381888, Note_off_c, 13, 57, 0
23, 381888, Note_off_c, 13, 42, 0
23, 381952, Note_on_c, 13, 58, 117
23, 381952, Note_on_c, 13, 43, 127
23, 382016, Note_off_c, 13, 58, 0
23, 382016, Note_off_c, 13, 43, 0
23, 382080, Note_on_c, 13, 58, 111
23, 382080, Note_on_c, 13, 43, 120
23, 382144, Note_off_c, 13, 58, 0
23, 382144, Note_off_c, 13, 43, 0
23, 382208, Note_on_c, 13, 60, 119
23, 382208, Note_on_c, 13, 45, 127
23, 382272, Note_off_c, 13, 60, 0
23, 382272, Note_off_c, 13, 45, 0
23, 382336, Note_on_c, 13, 60, 111
23, 382336, Note_on_c, 13, 45, 127
23, 382400, Note_off_c, 13, 60, 0
23, 382400, Note_off_c, 13, 45, 0
23, 382464, Note_on_c, 13, 61, 116
23, 382464, Note_on_c, 13, 46, 127
23, 382528, Note_off_c, 13, 61, 0
23, 382528, Note_off_c, 13, 46, 0
23, 382592, Note_on_c, 13, 61, 110
23, 382592, Note_on_c, 13, 48, 126
23, 382656, Note_off_c, 13, 61, 0
23, 382656, Note_off_c, 13, 48, 0
23, 382720, Note_on_c, 13, 63, 118
23, 382720, Note_on_c, 13, 48, 127
23, 382784, Note_off_c, 13, 63, 0
23, 382784, Note_off_c, 13, 48, 0
23, 382848, Note_on_c, 13, 63, 117
23, 382848, Note_on_c, 13, 49, 124
23, 382912, Note_off_c, 13, 63, 0
23, 382912, Note_off_c, 13, 49, 0
23, 382976, Note_on_c, 13, 63, 116
23, 382976, Note_on_c, 13, 49, 126
23, 383040, Note_off_c, 13, 63, 0
23, 383040, Note_off_c, 13, 49, 0
23, 383104, Note_on_c, 13, 64, 127
23, 383104, Note_on_c, 13, 51, 127
23, 383168, Note_off_c, 13, 64, 0
23, 383168, Note_off_c, 13, 51, 0
23, 383232, Note_on_c, 13, 66, 126
23, 383232, Note_on_c, 13, 40, 95
23, 383296, Note_off_c, 13, 66, 0
23, 383296, Note_off_c, 13, 40, 0
23, 383360, Note_on_c, 13, 66, 122
23, 383360, Note_on_c, 13, 40, 108
23, 383424, Note_off_c, 13, 66, 0
23, 383424, Note_off_c, 13, 40, 0
23, 383488, Note_on_c, 13, 67, 127
23, 383488, Note_on_c, 13, 42, 114
23, 383552, Note_off_c, 13, 67, 0
23, 383552, Note_off_c, 13, 42, 0
23, 383616, Note_on_c, 13, 69, 127
23, 383616, Note_on_c, 13, 42, 111
23, 383680, Note_off_c, 13, 69, 0
23, 383680, Note_off_c, 13, 42, 0
23, 383744, Note_on_c, 13, 48, 103
23, 383744, Note_on_c, 13, 43, 115
23, 383808, Note_off_c, 13, 48, 0
23, 383808, Note_off_c, 13, 43, 0
23, 383872, Note_on_c, 13, 48, 110
23, 383872, Note_on_c, 13, 43, 111
23, 383936, Note_off_c, 13, 48, 0
23, 383936, Note_off_c, 13, 43, 0
23, 384000, Note_on_c, 13, 49, 115
23, 384000, Note_on_c, 13, 44, 117
23, 384064, Note_off_c, 13, 49, 0
23, 384064, Note_off_c, 13, 44, 0
23, 384128, Note_on_c, 13, 49, 112
23, 384128, Note_on_c, 13, 44, 112
23, 384192, Note_off_c, 13, 49, 0
23, 384192, Note_off_c, 13, 44, 0
23, 384256, Note_on_c, 13, 52, 117
23, 384256, Note_on_c, 13, 46, 117
23, 384320, Note_off_c, 13, 52, 0
23, 384320, Note_off_c, 13, 46, 0
23, 384384, Note_on_c, 13, 52, 112
23, 384384, Note_on_c, 13, 46, 108
23, 384448, Note_off_c, 13, 52, 0
23, 384448, Note_off_c, 13, 46, 0
23, 384512, Note_on_c, 13, 54, 120
23, 384512, Note_on_c, 13, 48, 119
23, 384576, Note_off_c, 13, 54, 0
23, 384576, Note_off_c, 13, 48, 0
23, 384640, Note_on_c, 13, 54, 109
23, 384640, Note_on_c, 13, 48, 115
23, 384704, Note_off_c, 13, 54, 0
23, 384704, Note_off_c, 13, 48, 0
23, 384768, Note_on_c, 13, 55, 115
23, 384768, Note_on_c, 13, 49, 119
23, 384832, Note_off_c, 13, 55, 0
23, 384832, Note_off_c, 13, 49, 0
23, 384896, Note_on_c, 13, 55, 115
23, 384896, Note_on_c, 13, 51, 120
23, 384960, Note_off_c, 13, 55, 0
23, 384960, Note_off_c, 13, 51, 0
23, 385024, Note_on_c, 13, 57, 117
23, 385024, Note_on_c, 13, 51, 118
23, 385088, Note_off_c, 13, 57, 0
23, 385088, Note_off_c, 13, 51, 0
23, 385152, Note_on_c, 13, 57, 119
23, 385152, Note_on_c, 13, 51, 122
23, 385216, Note_off_c, 13, 57, 0
23, 385216, Note_off_c, 13, 51, 0
23, 385280, Note_on_c, 13, 61, 127
23, 385280, Note_on_c, 13, 52, 127
23, 385344, Note_off_c, 13, 61, 0
23, 385344, Note_off_c, 13, 52, 0
23, 385408, Note_on_c, 13, 61, 124
23, 385408, Note_on_c, 13, 52, 127
23, 385472, Note_off_c, 13, 61, 0
23, 385472, Note_off_c, 13, 52, 0
23, 385536, Note_on_c, 13, 63, 127
23, 385536, Note_on_c, 13, 36, 103
23, 385536, Note_on_c, 13, 43, 103
23, 385600, Note_off_c, 13, 63, 0
23, 385600, Note_off_c, 13, 36, 0
23, 385600, Note_off_c, 13, 43, 0
23, 385664, Note_on_c, 13, 63, 123
23, 385664, Note_on_c, 13, 36, 114
23, 385664, Note_on_c, 13, 43, 114
23, 385728, Note_off_c, 13, 63, 0
23, 385728, Note_off_c, 13, 36, 0
23, 385728, Note_off_c, 13, 43, 0
23, 385792, Note_on_c, 13, 64, 127
23, 385792, Note_on_c, 13, 37, 114
23, 385792, Note_on_c, 13, 45, 114
23, 385856, Note_off_c, 13, 64, 0
23, 385856, Note_off_c, 13, 37, 0
23, 385856, Note_off_c, 13, 45, 0
23, 385920, Note_on_c, 13, 64, 127
23, 385920, Note_on_c, 13, 37, 113
23, 385920, Note_on_c, 13, 45, 113
23, 385984, Note_off_c, 13, 64, 0
23, 385984, Note_off_c, 13, 37, 0
23, 385984, Note_off_c, 13, 45, 0
23, 386048, Note_on_c, 13, 66, 127
23, 386048, Note_on_c, 13, 37, 115
23, 386048, Note_on_c, 13, 46, 115
23, 386112, Note_off_c, 13, 66, 0
23, 386112, Note_off_c, 13, 37, 0
23, 386112, Note_off_c, 13, 46, 0
23, 386176, Note_on_c, 13, 66, 127
23, 386176, Note_on_c, 13, 39, 112
23, 386176, Note_on_c, 13, 46, 112
23, 386240, Note_off_c, 13, 66, 0
23, 386240, Note_off_c, 13, 39, 0
23, 386240, Note_off_c, 13, 46, 0
23, 386304, Note_on_c, 13, 48, 103
23, 386304, Note_on_c, 13, 39, 117
23, 386304, Note_on_c, 13, 48, 117
23, 386368, Note_off_c, 13, 48, 0
23, 386368, Note_off_c, 13, 39, 0
23, 386368, Note_off_c, 13, 48, 0
23, 386432, Note_on_c, 13, 48, 109
23, 386432, Note_on_c, 13, 48, 112
23, 386496, Note_off_c, 13, 48, 0
23, 386496, Note_off_c, 13, 48, 0
23, 386560, Note_on_c, 13, 49, 113
23, 386560, Note_on_c, 13, 40, 122
23, 386560, Note_on_c, 13, 49, 122
23, 386624, Note_off_c, 13, 49, 0
23, 386624, Note_off_c, 13, 40, 0
23, 386624, Note_off_c, 13, 49, 0
23, 386688, Note_on_c, 13, 49, 114
23, 386688, Note_on_c, 13, 40, 123
23, 386688, Note_on_c, 13, 49, 123
23, 386752, Note_off_c, 13, 49, 0
23, 386752, Note_off_c, 13, 40, 0
23, 386752, Note_off_c, 13, 49, 0
23, 386816, Note_on_c, 13, 51, 114
23, 386816, Note_on_c, 13, 40, 120
23, 386816, Note_on_c, 13, 51, 120
23, 386880, Note_off_c, 13, 51, 0
23, 386880, Note_off_c, 13, 40, 0
23, 386880, Note_off_c, 13, 51, 0
23, 386944, Note_on_c, 13, 63, 127
23, 386944, Note_on_c, 13, 42, 121
23, 386944, Note_on_c, 13, 51, 121
23, 387008, Note_off_c, 13, 63, 0
23, 387008, Note_off_c, 13, 42, 0
23, 387008, Note_off_c, 13, 51, 0
23, 387072, Note_on_c, 13, 64, 123
23, 387072, Note_on_c, 13, 42, 109
23, 387136, Note_off_c, 13, 64, 0
23, 387136, Note_off_c, 13, 42, 0
23, 387200, Note_on_c, 13, 64, 116
23, 387264, Note_off_c, 13, 64, 0
23, 387328, Note_on_c, 13, 66, 117
23, 387328, Note_on_c, 13, 43, 98
23, 387392, Note_off_c, 13, 66, 0
23, 387392, Note_off_c, 13, 43, 0
23, 387456, Note_on_c, 13, 66, 114
23, 387456, Note_on_c, 13, 43, 112
23, 387520, Note_off_c, 13, 66, 0
23, 387520, Note_off_c, 13, 43, 0
23, 387584, Note_on_c, 13, 66, 116
23, 387584, Note_on_c, 13, 45, 124
23, 387648, Note_off_c, 13, 66, 0
23, 387648, Note_off_c, 13, 45, 0
23, 387712, Note_on_c, 13, 67, 118
23, 387712, Note_on_c, 13, 45, 122
23, 387776, Note_off_c, 13, 67, 0
23, 387776, Note_off_c, 13, 45, 0
23, 387840, Note_on_c, 13, 67, 119
23, 387840, Note_on_c, 13, 46, 127
23, 387904, Note_off_c, 13, 67, 0
23, 387904, Note_off_c, 13, 46, 0
23, 387968, Note_on_c, 13, 67, 123
23, 388032, Note_off_c, 13, 67, 0
23, 388096, Note_on_c, 13, 69, 125
23, 388160, Note_off_c, 13, 69, 0
23, 388224, Note_on_c, 13, 70, 127
23, 388224, Note_on_c, 13, 48, 101
23, 388288, Note_off_c, 13, 70, 0
23, 388288, Note_off_c, 13, 48, 0
23, 388352, Note_on_c, 13, 48, 97
23, 388352, Note_on_c, 13, 49, 118
23, 388416, Note_off_c, 13, 48, 0
23, 388416, Note_off_c, 13, 49, 0
23, 388480, Note_on_c, 13, 48, 113
23, 388480, Note_on_c, 13, 51, 123
23, 388544, Note_off_c, 13, 48, 0
23, 388544, Note_off_c, 13, 51, 0
23, 388608, Note_on_c, 13, 49, 118
23, 388608, Note_on_c, 13, 52, 120
23, 388672, Note_off_c, 13, 49, 0
23, 388672, Note_off_c, 13, 52, 0
23, 388736, Note_on_c, 13, 49, 113
23, 388736, Note_on_c, 13, 54, 127
23, 388800, Note_off_c, 13, 49, 0
23, 388800, Note_off_c, 13, 54, 0
23, 388864, Note_on_c, 13, 51, 118
23, 388864, Note_on_c, 13, 55, 127
23, 388928, Note_off_c, 13, 51, 0
23, 388928, Note_off_c, 13, 55, 0
23, 388992, Note_on_c, 13, 51, 111
23, 388992, Note_on_c, 13, 43, 100
23, 389056, Note_off_c, 13, 51, 0
23, 389056, Note_off_c, 13, 43, 0
23, 389120, Note_on_c, 13, 52, 114
23, 389120, Note_on_c, 13, 46, 120
23, 389184, Note_off_c, 13, 52, 0
23, 389184, Note_off_c, 13, 46, 0
23, 389248, Note_on_c, 13, 52, 115
23, 389248, Note_on_c, 13, 46, 108
23, 389312, Note_off_c, 13, 52, 0
23, 389312, Note_off_c, 13, 46, 0
23, 389376, Note_on_c, 13, 54, 120
23, 389376, Note_on_c, 13, 46, 118
23, 389440, Note_off_c, 13, 54, 0
23, 389440, Note_off_c, 13, 46, 0
23, 389504, Note_on_c, 13, 54, 113
23, 389504, Note_on_c, 13, 46, 114
23, 389568, Note_off_c, 13, 54, 0
23, 389568, Note_off_c, 13, 46, 0
23, 389632, Note_on_c, 13, 55, 118
23, 389632, Note_on_c, 13, 46, 116
23, 389632, Note_on_c, 13, 51, 116
23, 389696, Note_off_c, 13, 55, 0
23, 389696, Note_off_c, 13, 46, 0
23, 389696, Note_off_c, 13, 51, 0
23, 389760, Note_on_c, 13, 55, 114
23, 389760, Note_on_c, 13, 46, 110
23, 389760, Note_on_c, 13, 51, 110
23, 389824, Note_off_c, 13, 55, 0
23, 389824, Note_off_c, 13, 46, 0
23, 389824, Note_off_c, 13, 51, 0
23, 389888, Note_on_c, 13, 58, 120
23, 389888, Note_on_c, 13, 48, 114
23, 389888, Note_on_c, 13, 52, 114
23, 389952, Note_off_c, 13, 58, 0
23, 389952, Note_off_c, 13, 48, 0
23, 389952, Note_off_c, 13, 52, 0
23, 390016, Note_on_c, 13, 58, 113
23, 390016, Note_on_c, 13, 48, 112
23, 390016, Note_on_c, 13, 52, 112
23, 390080, Note_off_c, 13, 58, 0
23, 390080, Note_off_c, 13, 48, 0
23, 390080, Note_off_c, 13, 52, 0
23, 390144, Note_on_c, 13, 58, 115
23, 390144, Note_on_c, 13, 49, 120
23, 390144, Note_on_c, 13, 54, 120
23, 390208, Note_off_c, 13, 58, 0
23, 390208, Note_off_c, 13, 49, 0
23, 390208, Note_off_c, 13, 54, 0
23, 390272, Note_on_c, 13, 58, 116
23, 390272, Note_on_c, 13, 49, 117
23, 390272, Note_on_c, 13, 54, 117
23, 390336, Note_off_c, 13, 58, 0
23, 390336, Note_off_c, 13, 49, 0
23, 390336, Note_off_c, 13, 54, 0
23, 390400, Note_on_c, 13, 60, 121
23, 390400, Note_on_c, 13, 49, 126
23, 390400, Note_on_c, 13, 55, 126
23, 390464, Note_off_c, 13, 60, 0
23, 390464, Note_off_c, 13, 49, 0
23, 390464, Note_off_c, 13, 55, 0
23, 390528, Note_on_c, 13, 60, 114
23, 390528, Note_on_c, 13, 51, 120
23, 390528, Note_on_c, 13, 55, 120
23, 390592, Note_off_c, 13, 60, 0
23, 390592, Note_off_c, 13, 51, 0
23, 390592, Note_off_c, 13, 55, 0
23, 390656, Note_on_c, 13, 61, 119
23, 390656, Note_on_c, 13, 51, 127
23, 390656, Note_on_c, 13, 58, 127
23, 390720, Note_off_c, 13, 61, 0
23, 390720, Note_off_c, 13, 51, 0
23, 390720, Note_off_c, 13, 58, 0
23, 390784, Note_on_c, 13, 61, 114
23, 390784, Note_on_c, 13, 51, 127
23, 390784, Note_on_c, 13, 58, 127
23, 390848, Note_off_c, 13, 61, 0
23, 390848, Note_off_c, 13, 51, 0
23, 390848, Note_off_c, 13, 58, 0
23, 390912, Note_on_c, 13, 61, 114
23, 390912, Note_on_c, 13, 40, 125
23, 390912, Note_on_c, 13, 58, 125
23, 390976, Note_off_c, 13, 61, 0
23, 390976, Note_off_c, 13, 40, 0
23, 390976, Note_off_c, 13, 58, 0
23, 391040, Note_on_c, 13, 61, 112
23, 391040, Note_on_c, 13, 40, 127
23, 391040, Note_on_c, 13, 58, 127
23, 391104, Note_off_c, 13, 61, 0
23, 391104, Note_off_c, 13, 40, 0
23, 391104, Note_off_c, 13, 58, 0
23, 391168, Note_on_c, 13, 64, 121
23, 391168, Note_on_c, 13, 42, 127
23, 391168, Note_on_c, 13, 60, 127
23, 391232, Note_off_c, 13, 64, 0
23, 391232, Note_off_c, 13, 42, 0
23, 391232, Note_off_c, 13, 60, 0
23, 391296, Note_on_c, 13, 64, 117
23, 391296, Note_on_c, 13, 42, 127
23, 391296, Note_on_c, 13, 60, 127
23, 391360, Note_off_c, 13, 64, 0
23, 391360, Note_off_c, 13, 42, 0
23, 391360, Note_off_c, 13, 60, 0
23, 391424, Note_on_c, 13, 67, 123
23, 391424, Note_on_c, 13, 43, 127
23, 391424, Note_on_c, 13, 61, 127
23, 391488, Note_off_c, 13, 67, 0
23, 391488, Note_off_c, 13, 43, 0
23, 391488, Note_off_c, 13, 61, 0
23, 391552, Note_on_c, 13, 67, 122
23, 391552, Note_on_c, 13, 43, 126
23, 391552, Note_on_c, 13, 61, 126
23, 391616, Note_off_c, 13, 67, 0
23, 391616, Note_off_c, 13, 43, 0
23, 391616, Note_off_c, 13, 61, 0
23, 391680, Note_on_c, 13, 70, 127
23, 391680, Note_on_c, 13, 46, 127
23, 391680, Note_on_c, 13, 61, 127
23, 391744, Note_off_c, 13, 70, 0
23, 391744, Note_off_c, 13, 46, 0
23, 391744, Note_off_c, 13, 61, 0
23, 391808, Note_on_c, 13, 70, 127
23, 391808, Note_on_c, 13, 46, 124
23, 391808, Note_on_c, 13, 61, 124
23, 391872, Note_off_c, 13, 70, 0
23, 391872, Note_off_c, 13, 46, 0
23, 391872, Note_off_c, 13, 61, 0
23, 391936, Note_on_c, 13, 73, 127
23, 391936, Note_on_c, 13, 46, 127
23, 391936, Note_on_c, 13, 64, 127
23, 392000, Note_off_c, 13, 73, 0
23, 392000, Note_off_c, 13, 46, 0
23, 392000, Note_off_c, 13, 64, 0
23, 392064, Note_on_c, 13, 73, 126
23, 392064, Note_on_c, 13, 46, 127
23, 392064, Note_on_c, 13, 64, 127
23, 392128, Note_off_c, 13, 73, 0
23, 392128, Note_off_c, 13, 46, 0
23, 392128, Note_off_c, 13, 64, 0
23, 392192, Note_on_c, 13, 48, 127
23, 392192, Note_on_c, 13, 67, 127
23, 392256, Note_off_c, 13, 48, 0
23, 392256, Note_off_c, 13, 67, 0
23, 392320, Note_on_c, 13, 48, 127
23, 392320, Note_on_c, 13, 67, 127
23, 392384, Note_off_c, 13, 48, 0
23, 392384, Note_off_c, 13, 67, 0
23, 392448, Note_on_c, 13, 49, 127
23, 392448, Note_on_c, 13, 70, 127
23, 392512, Note_off_c, 13, 49, 0
23, 392512, Note_off_c, 13, 70, 0
23, 392576, Note_on_c, 13, 49, 127
23, 392576, Note_on_c, 13, 70, 127
23, 392640, Note_off_c, 13, 49, 0
23, 392640, Note_off_c, 13, 70, 0
23, 392704, Note_on_c, 13, 51, 127
23, 392704, Note_on_c, 13, 73, 127
23, 392768, Note_off_c, 13, 51, 0
23, 392768, Note_off_c, 13, 73, 0
23, 392832, Note_on_c, 13, 51, 127
23, 392832, Note_on_c, 13, 73, 127
23, 392896, Note_off_c, 13, 51, 0
23, 392896, Note_off_c, 13, 73, 0
23, 392960, Note_on_c, 13, 52, 113
23, 393024, Note_off_c, 13, 52, 0
23, 393088, Note_on_c, 13, 52, 124
23, 393152, Note_off_c, 13, 52, 0
23, 393216, Note_on_c, 13, 55, 127
23, 393280, Note_off_c, 13, 55, 0
23, 393344, Note_on_c, 13, 58, 127
23, 393408, Note_off_c, 13, 58, 0
23, 393856, Note_on_c, 13, 40, 114
23, 393920, Note_off_c, 13, 40, 0
23, 393984, Note_on_c, 13, 42, 127
23, 394048, Note_off_c, 13, 42, 0
23, 394112, Note_on_c, 13, 42, 126
23, 394176, Note_off_c, 13, 42, 0
23, 394240, Note_on_c, 13, 43, 127
23, 394304, Note_off_c, 13, 43, 0
23, 394368, Note_on_c, 13, 43, 127
23, 394432, Note_off_c, 13, 43, 0
23, 394496, Note_on_c, 13, 46, 127
23, 394560, Note_off_c, 13, 46, 0
23, 394624, Note_on_c, 13, 46, 127
23, 394688, Note_off_c, 13, 46, 0
23, 394752, Note_on_c, 13, 46, 127
23, 394816, Note_off_c, 13, 46, 0
23, 394880, Note_on_c, 13, 48, 127
23, 394944, Note_off_c, 13, 48, 0
23, 395008, Note_on_c, 13, 49, 127
23, 395072, Note_off_c, 13, 49, 0
23, 395136, Note_on_c, 13, 49, 127
23, 395200, Note_off_c, 13, 49, 0
23, 395264, Note_on_c, 13, 49, 127
23, 395328, Note_off_c, 13, 49, 0
23, 395392, Note_on_c, 13, 49, 127
23, 395456, Note_off_c, 13, 49, 0
23, 395520, Note_on_c, 13, 55, 127
23, 395584, Note_off_c, 13, 55, 0
23, 395648, Note_on_c, 13, 31, 113
23, 395712, Note_off_c, 13, 31, 0
23, 395776, Note_on_c, 13, 31, 125
23, 395840, Note_off_c, 13, 31, 0
23, 395904, Note_on_c, 13, 33, 127
23, 395968, Note_off_c, 13, 33, 0
23, 396032, Note_on_c, 13, 33, 127
23, 396096, Note_off_c, 13, 33, 0
23, 396160, Note_on_c, 13, 33, 127
23, 396224, Note_off_c, 13, 33, 0
23, 396288, Note_on_c, 13, 33, 127
23, 396352, Note_off_c, 13, 33, 0
23, 396416, Note_on_c, 13, 36, 127
23, 396480, Note_off_c, 13, 36, 0
23, 396544, Note_on_c, 13, 36, 127
23, 396608, Note_off_c, 13, 36, 0
23, 396672, Note_on_c, 13, 37, 127
23, 396736, Note_off_c, 13, 37, 0
23, 396800, Note_on_c, 13, 37, 124
23, 396864, Note_off_c, 13, 37, 0
23, 396928, Note_on_c, 13, 37, 123
23, 396992, Note_off_c, 13, 37, 0
23, 397056, Note_on_c, 13, 36, 126
23, 397120, Note_off_c, 13, 36, 0
23, 397184, Note_on_c, 13, 36, 124
23, 397248, Note_off_c, 13, 36, 0
23, 397312, Note_on_c, 13, 36, 120
23, 397376, Note_off_c, 13, 36, 0
23, 397440, Note_on_c, 13, 37, 127
23, 397504, Note_off_c, 13, 37, 0
23, 397568, Note_on_c, 13, 37, 126
23, 397632, Note_off_c, 13, 37, 0
23, 397696, Note_on_c, 13, 37, 124
23, 397760, Note_off_c, 13, 37, 0
23, 397824, Note_on_c, 13, 39, 127
23, 397888, Note_off_c, 13, 39, 0
23, 397952, Note_on_c, 13, 39, 127
23, 398016, Note_off_c, 13, 39, 0
23, 398080, Note_on_c, 13, 39, 127
23, 398144, Note_off_c, 13, 39, 0
23, 398208, Note_on_c, 13, 40, 127
23, 398272, Note_off_c, 13, 40, 0
23, 398336, Note_on_c, 13, 40, 127
23, 398400, Note_off_c, 13, 40, 0
23, 398464, Note_on_c, 13, 42, 127
23, 398528, Note_off_c, 13, 42, 0
23, 398592, Note_on_c, 13, 42, 126
23, 398656, Note_off_c, 13, 42, 0
23, 398720, Note_on_c, 13, 43, 127
23, 398784, Note_off_c, 13, 43, 0
23, 398848, Note_on_c, 13, 43, 127
23, 398912, Note_off_c, 13, 43, 0
23, 398976, Note_on_c, 13, 44, 127
23, 399040, Note_off_c, 13, 44, 0
23, 399104, Note_on_c, 13, 44, 127
23, 399168, Note_off_c, 13, 44, 0
23, 399232, Note_on_c, 13, 45, 127
23, 399296, Note_off_c, 13, 45, 0
23, 399488, Note_on_c, 13, 33, 112
23, 399552, Note_off_c, 13, 33, 0
23, 399616, Note_on_c, 13, 33, 123
23, 399680, Note_off_c, 13, 33, 0
23, 399744, Note_on_c, 13, 33, 127
23, 399808, Note_off_c, 13, 33, 0
23, 399872, Note_on_c, 13, 34, 127
23, 399936, Note_off_c, 13, 34, 0
23, 400000, Note_on_c, 13, 34, 125
23, 400064, Note_off_c, 13, 34, 0
23, 400128, Note_on_c, 13, 34, 127
23, 400192, Note_off_c, 13, 34, 0
23, 400256, Note_on_c, 13, 36, 127
23, 400320, Note_off_c, 13, 36, 0
23, 400384, Note_on_c, 13, 36, 127
23, 400448, Note_off_c, 13, 36, 0
23, 400512, Note_on_c, 13, 36, 126
23, 400576, Note_off_c, 13, 36, 0
23, 400640, Note_on_c, 13, 37, 127
23, 400704, Note_off_c, 13, 37, 0
23, 400768, Note_on_c, 13, 37, 127
23, 400832, Note_off_c, 13, 37, 0
23, 400896, Note_on_c, 13, 39, 127
23, 400960, Note_off_c, 13, 39, 0
23, 401024, Note_on_c, 13, 39, 126
23, 401088, Note_off_c, 13, 39, 0
23, 401152, Note_on_c, 13, 40, 127
23, 401216, Note_off_c, 13, 40, 0
23, 401280, Note_on_c, 13, 40, 127
23, 401344, Note_off_c, 13, 40, 0
23, 401408, Note_on_c, 13, 36, 122
23, 401472, Note_off_c, 13, 36, 0
23, 401536, Note_on_c, 13, 40, 127
23, 401600, Note_off_c, 13, 40, 0
23, 401664, Note_on_c, 13, 42, 127
23, 401728, Note_off_c, 13, 42, 0
23, 401792, Note_on_c, 13, 45, 127
23, 401856, Note_off_c, 13, 45, 0
23, 401920, Note_on_c, 13, 49, 127
23, 401984, Note_off_c, 13, 49, 0
23, 402048, Note_on_c, 13, 51, 127
23, 402112, Note_off_c, 13, 51, 0
23, 402176, Note_on_c, 13, 36, 109
23, 402240, Note_off_c, 13, 36, 0
23, 402304, Note_on_c, 13, 40, 127
23, 402368, Note_off_c, 13, 40, 0
23, 402432, Note_on_c, 13, 42, 127
23, 402496, Note_off_c, 13, 42, 0
23, 402560, Note_on_c, 13, 45, 126
23, 402624, Note_off_c, 13, 45, 0
23, 402688, Note_on_c, 13, 49, 127
23, 402752, Note_off_c, 13, 49, 0
23, 402816, Note_on_c, 13, 51, 127
23, 402880, Note_off_c, 13, 51, 0
23, 402944, Note_on_c, 13, 36, 107
23, 403008, Note_off_c, 13, 36, 0
23, 403072, Note_on_c, 13, 40, 127
23, 403136, Note_off_c, 13, 40, 0
23, 403200, Note_on_c, 13, 42, 127
23, 403264, Note_off_c, 13, 42, 0
23, 403328, Note_on_c, 13, 45, 127
23, 403392, Note_off_c, 13, 45, 0
23, 403456, Note_on_c, 13, 49, 127
23, 403520, Note_off_c, 13, 49, 0
23, 403584, Note_on_c, 13, 51, 127
23, 403648, Note_off_c, 13, 51, 0
23, 403712, Note_on_c, 13, 36, 112
23, 403776, Note_off_c, 13, 36, 0
23, 403840, Note_on_c, 13, 40, 127
23, 403904, Note_off_c, 13, 40, 0
23, 403968, Note_on_c, 13, 42, 127
23, 404032, Note_off_c, 13, 42, 0
23, 404096, Note_on_c, 13, 45, 127
23, 404160, Note_off_c, 13, 45, 0
23, 404224, Note_on_c, 13, 49, 127
23, 404288, Note_off_c, 13, 49, 0
23, 404352, Note_on_c, 13, 51, 127
23, 404416, Note_off_c, 13, 51, 0
23, 404480, Note_on_c, 13, 36, 109
23, 404544, Note_off_c, 13, 36, 0
23, 404608, Note_on_c, 13, 40, 127
23, 404672, Note_off_c, 13, 40, 0
23, 404736, Note_on_c, 13, 42, 127
23, 404800, Note_off_c, 13, 42, 0
23, 404864, Note_on_c, 13, 45, 127
23, 404928, Note_off_c, 13, 45, 0
23, 404992, Note_on_c, 13, 49, 127
23, 405056, Note_off_c, 13, 49, 0
23, 405120, Note_on_c, 13, 51, 127
23, 405184, Note_off_c, 13, 51, 0
23, 405248, Note_on_c, 13, 36, 112
23, 405312, Note_off_c, 13, 36, 0
23, 405376, Note_on_c, 13, 40, 127
23, 405440, Note_off_c, 13, 40, 0
23, 405504, Note_on_c, 13, 42, 127
23, 405568, Note_off_c, 13, 42, 0
23, 405632, Note_on_c, 13, 45, 127
23, 405696, Note_off_c, 13, 45, 0
23, 405760, Note_on_c, 13, 49, 127
23, 405824, Note_off_c, 13, 49, 0
23, 405888, Note_on_c, 13, 51, 127
23, 405952, Note_off_c, 13, 51, 0
23, 406016, Note_on_c, 13, 36, 112
23, 406080, Note_off_c, 13, 36, 0
23, 406144, Note_on_c, 13, 40, 127
23, 406208, Note_off_c, 13, 40, 0
23, 406272, Note_on_c, 13, 42, 127
23, 406336, Note_off_c, 13, 42, 0
23, 406400, Note_on_c, 13, 45, 127
23, 406464, Note_off_c, 13, 45, 0
23, 406528, Note_on_c, 13, 49, 127
23, 406592, Note_off_c, 13, 49, 0
23, 406656, Note_on_c, 13, 51, 127
23, 406720, Note_off_c, 13, 51, 0
23, 406784, Note_on_c, 13, 36, 104
23, 406848, Note_off_c, 13, 36, 0
23, 406912, Note_on_c, 13, 40, 127
23, 406976, Note_off_c, 13, 40, 0
23, 407040, Note_on_c, 13, 42, 127
23, 407104, Note_off_c, 13, 42, 0
23, 407168, Note_on_c, 13, 45, 127
23, 407232, Note_off_c, 13, 45, 0
23, 407296, Note_on_c, 13, 49, 127
23, 407360, Note_off_c, 13, 49, 0
23, 407424, Note_on_c, 13, 51, 127
23, 407488, Note_off_c, 13, 51, 0
23, 407552, Note_on_c, 13, 36, 111
23, 407616, Note_off_c, 13, 36, 0
23, 407680, Note_on_c, 13, 40, 127
23, 407744, Note_off_c, 13, 40, 0
23, 407808, Note_on_c, 13, 42, 127
23, 407872, Note_off_c, 13, 42, 0
23, 407936, Note_on_c, 13, 45, 127
23, 408000, Note_off_c, 13, 45, 0
23, 408064, Note_on_c, 13, 49, 127
23, 408128, Note_off_c, 13, 49, 0
23, 408192, Note_on_c, 13, 51, 127
23, 408256, Note_off_c, 13, 51, 0
23, 408320, Note_on_c, 13, 36, 115
23, 408384, Note_off_c, 13, 36, 0
23, 408448, Note_on_c, 13, 40, 126
23, 408512, Note_off_c, 13, 40, 0
23, 408576, Note_on_c, 13, 42, 127
23, 408640, Note_off_c, 13, 42, 0
23, 408704, Note_on_c, 13, 45, 127
23, 408768, Note_off_c, 13, 45, 0
23, 408832, Note_on_c, 13, 49, 127
23, 408896, Note_off_c, 13, 49, 0
23, 408960, Note_on_c, 13, 51, 127
23, 409024, Note_off_c, 13, 51, 0
23, 409088, Note_on_c, 13, 36, 109
23, 409152, Note_off_c, 13, 36, 0
23, 409216, Note_on_c, 13, 40, 127
23, 409280, Note_off_c, 13, 40, 0
23, 409344, Note_on_c, 13, 42, 127
23, 409408, Note_off_c, 13, 42, 0
23, 409472, Note_on_c, 13, 45, 127
23, 409536, Note_off_c, 13, 45, 0
23, 409600, Note_on_c, 13, 49, 127
23, 409664, Note_off_c, 13, 49, 0
23, 409728, Note_on_c, 13, 51, 127
23, 409792, Note_off_c, 13, 51, 0
23, 409856, Note_on_c, 13, 36, 114
23, 409920, Note_off_c, 13, 36, 0
23, 409984, Note_on_c, 13, 40, 127
23, 410048, Note_off_c, 13, 40, 0
23, 410112, Note_on_c, 13, 42, 127
23, 410176, Note_off_c, 13, 42, 0
23, 410240, Note_on_c, 13, 45, 127
23, 410304, Note_off_c, 13, 45, 0
23, 410368, Note_on_c, 13, 49, 127
23, 410432, Note_off_c, 13, 49, 0
23, 410496, Note_on_c, 13, 53, 127
23, 410560, Note_off_c, 13, 53, 0
23, 410624, Note_on_c, 13, 56, 127
23, 410688, Note_off_c, 13, 56, 0
23, 410752, Note_on_c, 13, 35, 113
23, 410816, Note_off_c, 13, 35, 0
23, 410880, Note_on_c, 13, 41, 127
23, 410944, Note_off_c, 13, 41, 0
23, 411008, Note_on_c, 13, 44, 127
23, 411072, Note_off_c, 13, 44, 0
23, 411136, Note_on_c, 13, 46, 127
23, 411200, Note_off_c, 13, 46, 0
23, 411264, Note_on_c, 13, 49, 127
23, 411328, Note_off_c, 13, 49, 0
23, 411392, Note_on_c, 13, 53, 127
23, 411456, Note_off_c, 13, 53, 0
23, 411520, Note_on_c, 13, 56, 127
23, 411584, Note_off_c, 13, 56, 0
23, 411648, Note_on_c, 13, 35, 111
23, 411712, Note_off_c, 13, 35, 0
23, 411776, Note_on_c, 13, 41, 127
23, 411840, Note_off_c, 13, 41, 0
23, 411904, Note_on_c, 13, 44, 127
23, 411968, Note_off_c, 13, 44, 0
23, 412032, Note_on_c, 13, 46, 127
23, 412096, Note_off_c, 13, 46, 0
23, 412160, Note_on_c, 13, 49, 127
23, 412224, Note_off_c, 13, 49, 0
23, 412288, Note_on_c, 13, 53, 127
23, 412352, Note_off_c, 13, 53, 0
23, 412416, Note_on_c, 13, 56, 127
23, 412480, Note_off_c, 13, 56, 0
23, 412544, Note_on_c, 13, 35, 113
23, 412608, Note_off_c, 13, 35, 0
23, 412672, Note_on_c, 13, 41, 127
23, 412736, Note_off_c, 13, 41, 0
23, 412800, Note_on_c, 13, 44, 127
23, 412864, Note_off_c, 13, 44, 0
23, 412928, Note_on_c, 13, 46, 127
23, 412992, Note_off_c, 13, 46, 0
23, 413056, Note_on_c, 13, 49, 127
23, 413120, Note_off_c, 13, 49, 0
23, 413184, Note_on_c, 13, 53, 127
23, 413248, Note_off_c, 13, 53, 0
23, 413312, Note_on_c, 13, 56, 127
23, 413376, Note_off_c, 13, 56, 0
23, 413440, Note_on_c, 13, 35, 113
23, 413504, Note_off_c, 13, 35, 0
23, 413568, Note_on_c, 13, 41, 127
23, 413632, Note_off_c, 13, 41, 0
23, 413696, Note_on_c, 13, 44, 127
23, 413760, Note_off_c, 13, 44, 0
23, 413824, Note_on_c, 13, 46, 127
23, 413888, Note_off_c, 13, 46, 0
23, 413952, Note_on_c, 13, 49, 127
23, 414016, Note_off_c, 13, 49, 0
23, 414080, Note_on_c, 13, 53, 127
23, 414144, Note_off_c, 13, 53, 0
23, 414208, Note_on_c, 13, 53, 127
23, 414272, Note_off_c, 13, 53, 0
23, 414336, Note_on_c, 13, 37, 107
23, 414400, Note_off_c, 13, 37, 0
23, 414464, Note_on_c, 13, 41, 127
23, 414528, Note_off_c, 13, 41, 0
23, 414592, Note_on_c, 13, 44, 127
23, 414656, Note_off_c, 13, 44, 0
23, 414720, Note_on_c, 13, 46, 127
23, 414784, Note_off_c, 13, 46, 0
23, 414848, Note_on_c, 13, 49, 127
23, 414912, Note_off_c, 13, 49, 0
23, 414976, Note_on_c, 13, 52, 127
23, 415040, Note_off_c, 13, 52, 0
23, 415104, Note_on_c, 13, 57, 127
23, 415168, Note_off_c, 13, 57, 0
23, 415232, Note_on_c, 13, 37, 108
23, 415296, Note_off_c, 13, 37, 0
23, 415360, Note_on_c, 13, 40, 127
23, 415424, Note_off_c, 13, 40, 0
23, 415488, Note_on_c, 13, 45, 127
23, 415552, Note_off_c, 13, 45, 0
23, 415616, Note_on_c, 13, 46, 127
23, 415680, Note_off_c, 13, 46, 0
23, 415744, Note_on_c, 13, 49, 127
23, 415808, Note_off_c, 13, 49, 0
23, 415872, Note_on_c, 13, 51, 127
23, 415936, Note_off_c, 13, 51, 0
23, 416000, Note_on_c, 13, 57, 127
23, 416064, Note_off_c, 13, 57, 0
23, 416128, Note_on_c, 13, 37, 114
23, 416192, Note_off_c, 13, 37, 0
23, 416256, Note_on_c, 13, 40, 127
23, 416320, Note_off_c, 13, 40, 0
23, 416384, Note_on_c, 13, 45, 127
23, 416448, Note_off_c, 13, 45, 0
23, 416512, Note_on_c, 13, 51, 127
23, 416576, Note_off_c, 13, 51, 0
23, 416640, Note_on_c, 13, 57, 127
23, 416704, Note_off_c, 13, 57, 0
23, 416768, Note_on_c, 13, 39, 114
23, 416832, Note_off_c, 13, 39, 0
23, 416896, Note_on_c, 13, 45, 127
23, 416960, Note_off_c, 13, 45, 0
23, 417024, Note_on_c, 13, 49, 127
23, 417088, Note_off_c, 13, 49, 0
23, 417152, Note_on_c, 13, 51, 127
23, 417216, Note_off_c, 13, 51, 0
23, 417280, Note_on_c, 13, 57, 127
23, 417344, Note_off_c, 13, 57, 0
23, 417408, Note_on_c, 13, 57, 127
23, 417472, Note_off_c, 13, 57, 0
23, 417536, Note_on_c, 13, 61, 127
23, 417600, Note_off_c, 13, 61, 0
23, 417664, Note_on_c, 13, 39, 114
23, 417728, Note_off_c, 13, 39, 0
23, 417792, Note_on_c, 13, 45, 127
23, 417856, Note_off_c, 13, 45, 0
23, 417920, Note_on_c, 13, 49, 127
23, 417984, Note_off_c, 13, 49, 0
23, 418048, Note_on_c, 13, 51, 127
23, 418112, Note_off_c, 13, 51, 0
23, 418176, Note_on_c, 13, 57, 127
23, 418240, Note_off_c, 13, 57, 0
23, 418304, Note_on_c, 13, 57, 122
23, 418368, Note_off_c, 13, 57, 0
23, 418560, Note_on_c, 13, 45, 112
23, 418624, Note_off_c, 13, 45, 0
23, 418688, Note_on_c, 13, 49, 127
23, 418752, Note_off_c, 13, 49, 0
23, 418816, Note_on_c, 13, 51, 127
23, 418880, Note_off_c, 13, 51, 0
23, 418944, Note_on_c, 13, 56, 127
23, 419008, Note_off_c, 13, 56, 0
23, 419072, Note_on_c, 13, 61, 127
23, 419136, Note_off_c, 13, 61, 0
23, 419328, Note_on_c, 13, 45, 111
23, 419392, Note_off_c, 13, 45, 0
23, 419456, Note_on_c, 13, 49, 127
23, 419520, Note_off_c, 13, 49, 0
23, 419584, Note_on_c, 13, 49, 123
23, 419648, Note_off_c, 13, 49, 0
23, 419712, Note_on_c, 13, 52, 127
23, 419776, Note_off_c, 13, 52, 0
23, 419840, Note_on_c, 13, 57, 127
23, 419904, Note_off_c, 13, 57, 0
23, 419968, Note_on_c, 13, 61, 127
23, 420032, Note_off_c, 13, 61, 0
23, 420096, Note_on_c, 13, 64, 127
23, 420160, Note_off_c, 13, 64, 0
23, 420224, Note_on_c, 13, 64, 127
23, 420288, Note_off_c, 13, 64, 0
23, 420352, Note_on_c, 13, 42, 113
23, 420416, Note_off_c, 13, 42, 0
23, 420480, Note_on_c, 13, 49, 127
23, 420544, Note_off_c, 13, 49, 0
23, 420608, Note_on_c, 13, 52, 127
23, 420672, Note_off_c, 13, 52, 0
23, 420736, Note_on_c, 13, 54, 127
23, 420800, Note_off_c, 13, 54, 0
23, 420864, Note_on_c, 13, 61, 127
23, 420928, Note_off_c, 13, 61, 0
23, 420992, Note_on_c, 13, 64, 127
23, 421056, Note_off_c, 13, 64, 0
23, 421120, Note_on_c, 13, 64, 127
23, 421184, Note_off_c, 13, 64, 0
23, 421248, Note_on_c, 13, 42, 112
23, 421312, Note_off_c, 13, 42, 0
23, 421376, Note_on_c, 13, 49, 127
23, 421440, Note_off_c, 13, 49, 0
23, 421504, Note_on_c, 13, 54, 127
23, 421568, Note_off_c, 13, 54, 0
23, 421632, Note_on_c, 13, 57, 127
23, 421696, Note_off_c, 13, 57, 0
23, 421760, Note_on_c, 13, 63, 127
23, 421824, Note_off_c, 13, 63, 0
23, 421888, Note_on_c, 13, 45, 111
23, 421952, Note_off_c, 13, 45, 0
23, 422016, Note_on_c, 13, 54, 127
23, 422080, Note_off_c, 13, 54, 0
23, 422144, Note_on_c, 13, 57, 127
23, 422208, Note_off_c, 13, 57, 0
23, 422272, Note_on_c, 13, 61, 127
23, 422336, Note_off_c, 13, 61, 0
23, 422528, Note_on_c, 13, 57, 118
23, 422592, Note_off_c, 13, 57, 0
23, 422656, Note_on_c, 13, 57, 126
23, 422720, Note_off_c, 13, 57, 0
23, 422784, Note_on_c, 13, 48, 114
23, 422848, Note_off_c, 13, 48, 0
23, 422912, Note_on_c, 13, 54, 127
23, 422976, Note_off_c, 13, 54, 0
23, 423040, Note_on_c, 13, 60, 127
23, 423104, Note_off_c, 13, 60, 0
23, 423168, Note_on_c, 13, 64, 127
23, 423232, Note_off_c, 13, 64, 0
23, 423296, Note_on_c, 13, 66, 127
23, 423360, Note_off_c, 13, 66, 0
23, 423552, Note_on_c, 13, 54, 119
23, 423616, Note_off_c, 13, 54, 0
23, 423680, Note_on_c, 13, 54, 127
23, 423744, Note_off_c, 13, 54, 0
23, 423808, Note_on_c, 13, 55, 127
23, 423872, Note_off_c, 13, 55, 0
23, 423936, Note_on_c, 13, 55, 126
23, 424000, Note_off_c, 13, 55, 0
23, 424064, Note_on_c, 13, 59, 127
23, 424128, Note_off_c, 13, 59, 0
23, 424192, Note_on_c, 13, 59, 126
23, 424256, Note_off_c, 13, 59, 0
23, 424320, Note_on_c, 13, 60, 127
23, 424384, Note_off_c, 13, 60, 0
23, 424448, Note_on_c, 13, 60, 126
23, 424512, Note_off_c, 13, 60, 0
23, 424576, Note_on_c, 13, 61, 127
23, 424640, Note_off_c, 13, 61, 0
23, 425856, Note_on_c, 13, 57, 116
23, 425856, Note_on_c, 13, 62, 116
23, 425856, Note_on_c, 13, 66, 116
23, 425856, Note_on_c, 13, 69, 116
23, 425856, Note_on_c, 13, 74, 116
23, 425856, Note_on_c, 13, 78, 116
23, 425856, Note_on_c, 13, 81, 116
23, 425920, Note_off_c, 13, 57, 0
23, 425920, Note_off_c, 13, 62, 0
23, 425920, Note_off_c, 13, 66, 0
23, 425920, Note_off_c, 13, 69, 0
23, 425920, Note_off_c, 13, 74, 0
23, 425920, Note_off_c, 13, 78, 0
23, 425920, Note_off_c, 13, 81, 0
23, 425984, Note_on_c, 13, 59, 127
23, 425984, Note_on_c, 13, 62, 127
23, 425984, Note_on_c, 13, 66, 127
23, 425984, Note_on_c, 13, 71, 127
23, 425984, Note_on_c, 13, 74, 127
23, 425984, Note_on_c, 13, 78, 127
23, 425984, Note_on_c, 13, 83, 127
23, 426240, Note_off_c, 13, 59, 0
23, 426240, Note_off_c, 13, 62, 0
23, 426240, Note_off_c, 13, 66, 0
23, 426240, Note_off_c, 13, 71, 0
23, 426240, Note_off_c, 13, 74, 0
23, 426240, Note_off_c, 13, 78, 0
23, 426240, Note_off_c, 13, 83, 0
23, 426624, Note_on_c, 13, 57, 113
23, 426624, Note_on_c, 13, 62, 113
23, 426624, Note_on_c, 13, 66, 113
23, 426624, Note_on_c, 13, 69, 113
23, 426624, Note_on_c, 13, 74, 113
23, 426624, Note_on_c, 13, 78, 113
23, 426624, Note_on_c, 13, 81, 113
23, 426688, Note_off_c, 13, 57, 0
23, 426688, Note_off_c, 13, 62, 0
23, 426688, Note_off_c, 13, 66, 0
23, 426688, Note_off_c, 13, 69, 0
23, 426688, Note_off_c, 13, 74, 0
23, 426688, Note_off_c, 13, 78, 0
23, 426688, Note_off_c, 13, 81, 0
23, 426752, Note_on_c, 13, 59, 127
23, 426752, Note_on_c, 13, 62, 127
23, 426752, Note_on_c, 13, 66, 127
23, 426752, Note_on_c, 13, 71, 127
23, 426752, Note_on_c, 13, 74, 127
23, 426752, Note_on_c, 13, 78, 127
23, 426752, Note_on_c, 13, 83, 127
23, 427008, Note_off_c, 13, 59, 0
23, 427008, Note_off_c, 13, 62, 0
23, 427008, Note_off_c, 13, 66, 0
23, 427008, Note_off_c, 13, 71, 0
23, 427008, Note_off_c, 13, 74, 0
23, 427008, Note_off_c, 13, 78, 0
23, 427008, Note_off_c, 13, 83, 0
23, 427392, Note_on_c, 13, 57, 112
23, 427392, Note_on_c, 13, 62, 112
23, 427392, Note_on_c, 13, 66, 112
23, 427392, Note_on_c, 13, 69, 112
23, 427392, Note_on_c, 13, 74, 112
23, 427392, Note_on_c, 13, 78, 112
23, 427392, Note_on_c, 13, 81, 112
23, 427456, Note_off_c, 13, 57, 0
23, 427456, Note_off_c, 13, 62, 0
23, 427456, Note_off_c, 13, 66, 0
23, 427456, Note_off_c, 13, 69, 0
23, 427456, Note_off_c, 13, 74, 0
23, 427456, Note_off_c, 13, 78, 0
23, 427456, Note_off_c, 13, 81, 0
23, 427520, Note_on_c, 13, 59, 127
23, 427520, Note_on_c, 13, 62, 127
23, 427520, Note_on_c, 13, 66, 127
23, 427520, Note_on_c, 13, 71, 127
23, 427520, Note_on_c, 13, 74, 127
23, 427520, Note_on_c, 13, 78, 127
23, 427520, Note_on_c, 13, 83, 127
23, 427776, Note_off_c, 13, 59, 0
23, 427776, Note_off_c, 13, 62, 0
23, 427776, Note_off_c, 13, 66, 0
23, 427776, Note_off_c, 13, 71, 0
23, 427776, Note_off_c, 13, 74, 0
23, 427776, Note_off_c, 13, 78, 0
23, 427776, Note_off_c, 13, 83, 0
23, 428160, Note_on_c, 13, 57, 119
23, 428160, Note_on_c, 13, 62, 119
23, 428160, Note_on_c, 13, 66, 119
23, 428160, Note_on_c, 13, 69, 119
23, 428160, Note_on_c, 13, 74, 119
23, 428160, Note_on_c, 13, 78, 119
23, 428160, Note_on_c, 13, 81, 119
23, 428224, Note_off_c, 13, 57, 0
23, 428224, Note_off_c, 13, 62, 0
23, 428224, Note_off_c, 13, 66, 0
23, 428224, Note_off_c, 13, 69, 0
23, 428224, Note_off_c, 13, 74, 0
23, 428224, Note_off_c, 13, 78, 0
23, 428224, Note_off_c, 13, 81, 0
23, 428288, Note_on_c, 13, 59, 127
23, 428288, Note_on_c, 13, 62, 127
23, 428288, Note_on_c, 13, 66, 127
23, 428288, Note_on_c, 13, 71, 127
23, 428288, Note_on_c, 13, 74, 127
23, 428288, Note_on_c, 13, 78, 127
23, 428288, Note_on_c, 13, 83, 127
23, 428544, Note_off_c, 13, 59, 0
23, 428544, Note_off_c, 13, 62, 0
23, 428544, Note_off_c, 13, 66, 0
23, 428544, Note_off_c, 13, 71, 0
23, 428544, Note_off_c, 13, 74, 0
23, 428544, Note_off_c, 13, 78, 0
23, 428544, Note_off_c, 13, 83, 0
23, 428928, Note_on_c, 13, 57, 114
23, 428928, Note_on_c, 13, 62, 114
23, 428928, Note_on_c, 13, 66, 114
23, 428928, Note_on_c, 13, 69, 114
23, 428928, Note_on_c, 13, 74, 114
23, 428928, Note_on_c, 13, 78, 114
23, 428928, Note_on_c, 13, 81, 114
23, 428992, Note_off_c, 13, 57, 0
23, 428992, Note_off_c, 13, 62, 0
23, 428992, Note_off_c, 13, 66, 0
23, 428992, Note_off_c, 13, 69, 0
23, 428992, Note_off_c, 13, 74, 0
23, 428992, Note_off_c, 13, 78, 0
23, 428992, Note_off_c, 13, 81, 0
23, 429056, Note_on_c, 13, 59, 127
23, 429056, Note_on_c, 13, 62, 127
23, 429056, Note_on_c, 13, 66, 127
23, 429056, Note_on_c, 13, 71, 127
23, 429056, Note_on_c, 13, 74, 127
23, 429056, Note_on_c, 13, 78, 127
23, 429056, Note_on_c, 13, 83, 127
23, 429312, Note_off_c, 13, 59, 0
23, 429312, Note_off_c, 13, 62, 0
23, 429312, Note_off_c, 13, 66, 0
23, 429312, Note_off_c, 13, 71, 0
23, 429312, Note_off_c, 13, 74, 0
23, 429312, Note_off_c, 13, 78, 0
23, 429312, Note_off_c, 13, 83, 0
23, 429440, Note_on_c, 13, 57, 115
23, 429440, Note_on_c, 13, 62, 115
23, 429440, Note_on_c, 13, 66, 115
23, 429440, Note_on_c, 13, 69, 115
23, 429440, Note_on_c, 13, 74, 115
23, 429440, Note_on_c, 13, 78, 115
23, 429440, Note_on_c, 13, 81, 115
23, 429504, Note_off_c, 13, 57, 0
23, 429504, Note_off_c, 13, 62, 0
23, 429504, Note_off_c, 13, 66, 0
23, 429504, Note_off_c, 13, 69, 0
23, 429504, Note_off_c, 13, 74, 0
23, 429504, Note_off_c, 13, 78, 0
23, 429504, Note_off_c, 13, 81, 0
23, 429568, Note_on_c, 13, 59, 127
23, 429568, Note_on_c, 13, 62, 127
23, 429568, Note_on_c, 13, 66, 127
23, 429568, Note_on_c, 13, 71, 127
23, 429568, Note_on_c, 13, 74, 127
23, 429568, Note_on_c, 13, 78, 127
23, 429568, Note_on_c, 13, 83, 127
23, 429824, Note_off_c, 13, 59, 0
23, 429824, Note_off_c, 13, 62, 0
23, 429824, Note_off_c, 13, 66, 0
23, 429824, Note_off_c, 13, 71, 0
23, 429824, Note_off_c, 13, 74, 0
23, 429824, Note_off_c, 13, 78, 0
23, 429824, Note_off_c, 13, 83, 0
23, 430208, Note_on_c, 13, 57, 116
23, 430208, Note_on_c, 13, 62, 116
23, 430208, Note_on_c, 13, 66, 116
23, 430208, Note_on_c, 13, 69, 116
23, 430208, Note_on_c, 13, 74, 116
23, 430208, Note_on_c, 13, 78, 116
23, 430208, Note_on_c, 13, 81, 116
23, 430272, Note_off_c, 13, 57, 0
23, 430272, Note_off_c, 13, 62, 0
23, 430272, Note_off_c, 13, 66, 0
23, 430272, Note_off_c, 13, 69, 0
23, 430272, Note_off_c, 13, 74, 0
23, 430272, Note_off_c, 13, 78, 0
23, 430272, Note_off_c, 13, 81, 0
23, 430336, Note_on_c, 13, 59, 127
23, 430336, Note_on_c, 13, 62, 127
23, 430336, Note_on_c, 13, 66, 127
23, 430336, Note_on_c, 13, 71, 127
23, 430336, Note_on_c, 13, 74, 127
23, 430336, Note_on_c, 13, 78, 127
23, 430336, Note_on_c, 13, 83, 127
23, 430592, Note_off_c, 13, 59, 0
23, 430592, Note_off_c, 13, 62, 0
23, 430592, Note_off_c, 13, 66, 0
23, 430592, Note_off_c, 13, 71, 0
23, 430592, Note_off_c, 13, 74, 0
23, 430592, Note_off_c, 13, 78, 0
23, 430592, Note_off_c, 13, 83, 0
23, 430976, Note_on_c, 13, 57, 112
23, 430976, Note_on_c, 13, 62, 112
23, 430976, Note_on_c, 13, 66, 112
23, 430976, Note_on_c, 13, 69, 112
23, 430976, Note_on_c, 13, 74, 112
23, 430976, Note_on_c, 13, 78, 112
23, 430976, Note_on_c, 13, 81, 112
23, 431040, Note_off_c, 13, 57, 0
23, 431040, Note_off_c, 13, 62, 0
23, 431040, Note_off_c, 13, 66, 0
23, 431040, Note_off_c, 13, 69, 0
23, 431040, Note_off_c, 13, 74, 0
23, 431040, Note_off_c, 13, 78, 0
23, 431040, Note_off_c, 13, 81, 0
23, 431104, Note_on_c, 13, 59, 127
23, 431104, Note_on_c, 13, 62, 127
23, 431104, Note_on_c, 13, 66, 127
23, 431104, Note_on_c, 13, 71, 127
23, 431104, Note_on_c, 13, 74, 127
23, 431104, Note_on_c, 13, 78, 127
23, 431104, Note_on_c, 13, 83, 127
23, 431360, Note_off_c, 13, 59, 0
23, 431360, Note_off_c, 13, 62, 0
23, 431360, Note_off_c, 13, 66, 0
23, 431360, Note_off_c, 13, 71, 0
23, 431360, Note_off_c, 13, 74, 0
23, 431360, Note_off_c, 13, 78, 0
23, 431360, Note_off_c, 13, 83, 0
23, 431744, Note_on_c, 13, 57, 115
23, 431744, Note_on_c, 13, 62, 115
23, 431744, Note_on_c, 13, 66, 115
23, 431744, Note_on_c, 13, 69, 115
23, 431744, Note_on_c, 13, 74, 115
23, 431744, Note_on_c, 13, 78, 115
23, 431744, Note_on_c, 13, 81, 115
23, 431808, Note_off_c, 13, 57, 0
23, 431808, Note_off_c, 13, 62, 0
23, 431808, Note_off_c, 13, 66, 0
23, 431808, Note_off_c, 13, 69, 0
23, 431808, Note_off_c, 13, 74, 0
23, 431808, Note_off_c, 13, 78, 0
23, 431808, Note_off_c, 13, 81, 0
23, 431872, Note_on_c, 13, 59, 127
23, 431872, Note_on_c, 13, 62, 127
23, 431872, Note_on_c, 13, 66, 127
23, 431872, Note_on_c, 13, 71, 127
23, 431872, Note_on_c, 13, 74, 127
23, 431872, Note_on_c, 13, 78, 127
23, 431872, Note_on_c, 13, 83, 127
23, 432128, Note_off_c, 13, 59, 0
23, 432128, Note_off_c, 13, 62, 0
23, 432128, Note_off_c, 13, 66, 0
23, 432128, Note_off_c, 13, 71, 0
23, 432128, Note_off_c, 13, 74, 0
23, 432128, Note_off_c, 13, 78, 0
23, 432128, Note_off_c, 13, 83, 0
23, 432384, Note_on_c, 13, 57, 112
23, 432384, Note_on_c, 13, 62, 112
23, 432384, Note_on_c, 13, 66, 112
23, 432384, Note_on_c, 13, 69, 112
23, 432384, Note_on_c, 13, 74, 112
23, 432384, Note_on_c, 13, 78, 112
23, 432384, Note_on_c, 13, 81, 112
23, 432448, Note_off_c, 13, 57, 0
23, 432448, Note_off_c, 13, 62, 0
23, 432448, Note_off_c, 13, 66, 0
23, 432448, Note_off_c, 13, 69, 0
23, 432448, Note_off_c, 13, 74, 0
23, 432448, Note_off_c, 13, 78, 0
23, 432448, Note_off_c, 13, 81, 0
23, 432512, Note_on_c, 13, 59, 127
23, 432512, Note_on_c, 13, 62, 127
23, 432512, Note_on_c, 13, 66, 127
23, 432512, Note_on_c, 13, 71, 127
23, 432512, Note_on_c, 13, 74, 127
23, 432512, Note_on_c, 13, 78, 127
23, 432512, Note_on_c, 13, 83, 127
23, 432768, Note_off_c, 13, 59, 0
23, 432768, Note_off_c, 13, 62, 0
23, 432768, Note_off_c, 13, 66, 0
23, 432768, Note_off_c, 13, 71, 0
23, 432768, Note_off_c, 13, 74, 0
23, 432768, Note_off_c, 13, 78, 0
23, 432768, Note_off_c, 13, 83, 0
23, 433152, Note_on_c, 13, 57, 113
23, 433152, Note_on_c, 13, 62, 113
23, 433152, Note_on_c, 13, 65, 113
23, 433152, Note_on_c, 13, 69, 113
23, 433152, Note_on_c, 13, 74, 113
23, 433152, Note_on_c, 13, 77, 113
23, 433152, Note_on_c, 13, 81, 113
23, 433216, Note_off_c, 13, 57, 0
23, 433216, Note_off_c, 13, 62, 0
23, 433216, Note_off_c, 13, 65, 0
23, 433216, Note_off_c, 13, 69, 0
23, 433216, Note_off_c, 13, 74, 0
23, 433216, Note_off_c, 13, 77, 0
23, 433216, Note_off_c, 13, 81, 0
23, 433280, Note_on_c, 13, 60, 127
23, 433280, Note_on_c, 13, 62, 127
23, 433280, Note_on_c, 13, 67, 127
23, 433280, Note_on_c, 13, 72, 127
23, 433280, Note_on_c, 13, 74, 127
23, 433280, Note_on_c, 13, 78, 127
23, 433280, Note_on_c, 13, 84, 127
23, 433536, Note_off_c, 13, 60, 0
23, 433536, Note_off_c, 13, 62, 0
23, 433536, Note_off_c, 13, 67, 0
23, 433536, Note_off_c, 13, 72, 0
23, 433536, Note_off_c, 13, 74, 0
23, 433536, Note_off_c, 13, 78, 0
23, 433536, Note_off_c, 13, 84, 0
23, 433792, Note_on_c, 13, 57, 116
23, 433792, Note_on_c, 13, 62, 116
23, 433792, Note_on_c, 13, 66, 116
23, 433792, Note_on_c, 13, 69, 116
23, 433792, Note_on_c, 13, 74, 116
23, 433792, Note_on_c, 13, 78, 116
23, 433792, Note_on_c, 13, 81, 116
23, 433856, Note_off_c, 13, 57, 0
23, 433856, Note_off_c, 13, 62, 0
23, 433856, Note_off_c, 13, 66, 0
23, 433856, Note_off_c, 13, 69, 0
23, 433856, Note_off_c, 13, 74, 0
23, 433856, Note_off_c, 13, 78, 0
23, 433856, Note_off_c, 13, 81, 0
23, 433920, Note_on_c, 13, 59, 127
23, 433920, Note_on_c, 13, 62, 127
23, 433920, Note_on_c, 13, 67, 127
23, 433920, Note_on_c, 13, 71, 127
23, 433920, Note_on_c, 13, 74, 127
23, 433920, Note_on_c, 13, 78, 127
23, 433920, Note_on_c, 13, 83, 127
23, 434176, Note_off_c, 13, 59, 0
23, 434176, Note_off_c, 13, 62, 0
23, 434176, Note_off_c, 13, 67, 0
23, 434176, Note_off_c, 13, 71, 0
23, 434176, Note_off_c, 13, 74, 0
23, 434176, Note_off_c, 13, 78, 0
23, 434176, Note_off_c, 13, 83, 0
23, 434304, Note_on_c, 13, 57, 115
23, 434304, Note_on_c, 13, 61, 115
23, 434304, Note_on_c, 13, 64, 115
23, 434304, Note_on_c, 13, 68, 115
23, 434304, Note_on_c, 13, 73, 115
23, 434304, Note_on_c, 13, 76, 115
23, 434304, Note_on_c, 13, 81, 115
23, 434368, Note_off_c, 13, 57, 0
23, 434368, Note_off_c, 13, 61, 0
23, 434368, Note_off_c, 13, 64, 0
23, 434368, Note_off_c, 13, 68, 0
23, 434368, Note_off_c, 13, 73, 0
23, 434368, Note_off_c, 13, 76, 0
23, 434368, Note_off_c, 13, 81, 0
23, 434432, Note_on_c, 13, 59, 127
23, 434432, Note_on_c, 13, 66, 127
23, 434432, Note_on_c, 13, 69, 127
23, 434432, Note_on_c, 13, 74, 127
23, 434432, Note_on_c, 13, 78, 127
23, 434432, Note_on_c, 13, 83, 127
23, 434688, Note_off_c, 13, 59, 0
23, 434688, Note_off_c, 13, 66, 0
23, 434688, Note_off_c, 13, 69, 0
23, 434688, Note_off_c, 13, 74, 0
23, 434688, Note_off_c, 13, 78, 0
23, 434688, Note_off_c, 13, 83, 0
23, 435072, Note_on_c, 13, 57, 117
23, 435072, Note_on_c, 13, 62, 117
23, 435072, Note_on_c, 13, 66, 117
23, 435072, Note_on_c, 13, 69, 117
23, 435072, Note_on_c, 13, 74, 117
23, 435072, Note_on_c, 13, 78, 117
23, 435072, Note_on_c, 13, 81, 117
23, 435136, Note_off_c, 13, 57, 0
23, 435136, Note_off_c, 13, 62, 0
23, 435136, Note_off_c, 13, 66, 0
23, 435136, Note_off_c, 13, 69, 0
23, 435136, Note_off_c, 13, 74, 0
23, 435136, Note_off_c, 13, 78, 0
23, 435136, Note_off_c, 13, 81, 0
23, 435200, Note_on_c, 13, 59, 127
23, 435200, Note_on_c, 13, 62, 127
23, 435200, Note_on_c, 13, 66, 127
23, 435200, Note_on_c, 13, 71, 127
23, 435200, Note_on_c, 13, 74, 127
23, 435200, Note_on_c, 13, 78, 127
23, 435200, Note_on_c, 13, 83, 127
23, 435456, Note_off_c, 13, 59, 0
23, 435456, Note_off_c, 13, 62, 0
23, 435456, Note_off_c, 13, 66, 0
23, 435456, Note_off_c, 13, 71, 0
23, 435456, Note_off_c, 13, 74, 0
23, 435456, Note_off_c, 13, 78, 0
23, 435456, Note_off_c, 13, 83, 0
23, 435584, Note_on_c, 13, 60, 111
23, 435584, Note_on_c, 13, 63, 111
23, 435584, Note_on_c, 13, 69, 111
23, 435584, Note_on_c, 13, 78, 111
23, 435584, Note_on_c, 13, 81, 111
23, 435648, Note_off_c, 13, 60, 0
23, 435648, Note_off_c, 13, 63, 0
23, 435648, Note_off_c, 13, 69, 0
23, 435648, Note_off_c, 13, 78, 0
23, 435648, Note_off_c, 13, 81, 0
23, 435712, Note_on_c, 13, 62, 127
23, 435712, Note_on_c, 13, 65, 127
23, 435712, Note_on_c, 13, 70, 127
23, 435712, Note_on_c, 13, 82, 127
23, 435712, Note_on_c, 13, 84, 127
23, 435968, Note_off_c, 13, 62, 0
23, 435968, Note_off_c, 13, 65, 0
23, 435968, Note_off_c, 13, 70, 0
23, 435968, Note_off_c, 13, 82, 0
23, 435968, Note_off_c, 13, 84, 0
23, 436480, Note_on_c, 13, 64, 114
23, 436480, Note_on_c, 13, 71, 114
23, 436480, Note_on_c, 13, 72, 114
23, 436480, Note_on_c, 13, 76, 114
23, 436480, Note_on_c, 13, 79, 114
23, 436544, Note_off_c, 13, 64, 0
23, 436544, Note_off_c, 13, 71, 0
23, 436544, Note_off_c, 13, 72, 0
23, 436544, Note_off_c, 13, 76, 0
23, 436544, Note_off_c, 13, 79, 0
23, 436608, Note_on_c, 13, 66, 127
23, 436608, Note_on_c, 13, 69, 127
23, 436608, Note_on_c, 13, 73, 127
23, 436608, Note_on_c, 13, 78, 127
23, 436608, Note_on_c, 13, 81, 127
23, 436608, Note_on_c, 13, 85, 127
23, 436864, Note_off_c, 13, 66, 0
23, 436864, Note_off_c, 13, 69, 0
23, 436864, Note_off_c, 13, 73, 0
23, 436864, Note_off_c, 13, 78, 0
23, 436864, Note_off_c, 13, 81, 0
23, 436864, Note_off_c, 13, 85, 0
23, 459264, Control_c, 15, 7, 95
23, 459264, Control_c, 15, 10, 95
23, 459264, Control_c, 15, 91, 72
23, 459520, Note_on_c, 15, 50, 103
23, 459520, Note_on_c, 15, 54, 103
23, 459520, Note_on_c, 15, 69, 103
23, 459776, Note_off_c, 15, 50, 0
23, 459776, Note_off_c, 15, 54, 0
23, 459776, Note_off_c, 15, 69, 0
23, 459904, Note_on_c, 15, 44, 104
23, 459904, Note_on_c, 15, 48, 104
23, 459904, Note_on_c, 15, 63, 104
23, 460032, Note_off_c, 15, 44, 0
23, 460032, Note_off_c, 15, 48, 0
23, 460032, Note_off_c, 15, 63, 0
23, 460288, Note_on_c, 15, 35, 98
23, 460288, Note_on_c, 15, 40, 98
23, 460288, Note_on_c, 15, 55, 98
23, 460544, Note_off_c, 15, 35, 0
23, 460544, Note_off_c, 15, 40, 0
23, 460544, Note_off_c, 15, 55, 0
23, 460544, Note_on_c, 15, 32, 109
23, 460544, Note_on_c, 15, 36, 109
23, 460544, Note_on_c, 15, 51, 109
23, 460800, Note_off_c, 15, 32, 0
23, 460800, Note_off_c, 15, 36, 0
23, 460800, Note_off_c, 15, 51, 0
23, 460800, Note_on_c, 15, 42, 127
23, 460800, Note_on_c, 15, 45, 127
23, 460800, Note_on_c, 15, 62, 127
23, 461056, Note_off_c, 15, 42, 0
23, 461056, Note_off_c, 15, 45, 0
23, 461056, Note_off_c, 15, 62, 0
23, 461312, Note_on_c, 15, 40, 98
23, 461312, Note_on_c, 15, 45, 98
23, 461312, Note_on_c, 15, 49, 98
23, 461568, Note_off_c, 15, 40, 0
23, 461568, Note_off_c, 15, 45, 0
23, 461568, Note_off_c, 15, 49, 0
23, 461568, Note_on_c, 15, 39, 101
23, 461568, Note_on_c, 15, 43, 101
23, 461568, Note_on_c, 15, 46, 101
23, 461824, Note_off_c, 15, 39, 0
23, 461824, Note_off_c, 15, 43, 0
23, 461824, Note_off_c, 15, 46, 0
23, 461952, Note_on_c, 15, 46, 104
23, 461952, Note_on_c, 15, 50, 104
23, 461952, Note_on_c, 15, 53, 104
23, 462080, Note_off_c, 15, 46, 0
23, 462080, Note_off_c, 15, 50, 0
23, 462080, Note_off_c, 15, 53, 0
23, 462336, Note_on_c, 15, 42, 101
23, 462336, Note_on_c, 15, 47, 101
23, 462336, Note_on_c, 15, 51, 101
23, 462592, Note_off_c, 15, 42, 0
23, 462592, Note_off_c, 15, 47, 0
23, 462592, Note_off_c, 15, 51, 0
23, 462592, Note_on_c, 15, 41, 111
23, 462592, Note_on_c, 15, 44, 111
23, 462592, Note_on_c, 15, 49, 111
23, 462848, Note_off_c, 15, 41, 0
23, 462848, Note_off_c, 15, 44, 0
23, 462848, Note_off_c, 15, 49, 0
23, 462976, Note_on_c, 15, 35, 109
23, 462976, Note_on_c, 15, 40, 109
23, 462976, Note_on_c, 15, 44, 109
23, 463104, Note_off_c, 15, 35, 0
23, 463104, Note_off_c, 15, 40, 0
23, 463104, Note_off_c, 15, 44, 0
23, 463232, Note_on_c, 15, 35, 101
23, 463232, Note_on_c, 15, 44, 101
23, 463360, Note_off_c, 15, 35, 0
23, 463360, Note_off_c, 15, 44, 0
23, 463360, Note_on_c, 15, 37, 114
23, 463360, Note_on_c, 15, 45, 114
23, 463488, Note_off_c, 15, 37, 0
23, 463488, Note_off_c, 15, 45, 0
23, 463488, Note_on_c, 15, 35, 118
23, 463488, Note_on_c, 15, 47, 118
23, 463616, Note_off_c, 15, 35, 0
23, 463616, Note_off_c, 15, 47, 0
23, 463616, Note_on_c, 15, 37, 111
23, 463616, Note_on_c, 15, 45, 111
23, 463744, Note_off_c, 15, 37, 0
23, 463744, Note_off_c, 15, 45, 0
23, 463744, Note_on_c, 15, 32, 97
23, 463872, Note_off_c, 15, 32, 0
23, 463872, Note_on_c, 15, 41, 127
23, 463872, Note_on_c, 15, 48, 127
23, 464000, Note_off_c, 15, 41, 0
23, 464000, Note_off_c, 15, 48, 0
23, 464000, Note_on_c, 15, 43, 119
23, 464000, Note_on_c, 15, 51, 119
23, 464128, Note_off_c, 15, 43, 0
23, 464128, Note_off_c, 15, 51, 0
23, 464128, Note_on_c, 15, 41, 109
23, 464128, Note_on_c, 15, 49, 109
23, 464256, Note_off_c, 15, 41, 0
23, 464256, Note_off_c, 15, 49, 0
23, 464256, Note_on_c, 15, 39, 112
23, 464256, Note_on_c, 15, 47, 112
23, 464384, Note_off_c, 15, 39, 0
23, 464384, Note_off_c, 15, 47, 0
23, 464384, Note_on_c, 15, 34, 103
23, 464512, Note_off_c, 15, 34, 0
23, 464512, Note_on_c, 15, 36, 121
23, 464512, Note_on_c, 15, 45, 121
23, 464640, Note_off_c, 15, 36, 0
23, 464640, Note_off_c, 15, 45, 0
23, 464640, Note_on_c, 15, 34, 115
23, 464640, Note_on_c, 15, 43, 115
23, 464768, Note_off_c, 15, 34, 0
23, 464768, Note_off_c, 15, 43, 0
23, 464768, Note_on_c, 15, 33, 107
23, 464768, Note_on_c, 15, 40, 107
23, 464896, Note_off_c, 15, 33, 0
23, 464896, Note_off_c, 15, 40, 0
23, 464896, Note_on_c, 15, 34, 114
23, 464896, Note_on_c, 15, 39, 114
23, 465024, Note_off_c, 15, 34, 0
23, 465024, Note_off_c, 15, 39, 0
23, 465024, Note_on_c, 15, 37, 114
23, 465024, Note_on_c, 15, 41, 114
23, 465152, Note_off_c, 15, 37, 0
23, 465152, Note_off_c, 15, 41, 0
23, 465152, Note_on_c, 15, 36, 113
23, 465152, Note_on_c, 15, 39, 113
23, 465280, Note_off_c, 15, 36, 0
23, 465280, Note_off_c, 15, 39, 0
23, 465280, Note_on_c, 15, 37, 107
23, 465408, Note_off_c, 15, 37, 0
23, 465408, Note_on_c, 15, 44, 124
23, 465408, Note_on_c, 15, 47, 124
23, 465536, Note_off_c, 15, 44, 0
23, 465536, Note_off_c, 15, 47, 0
23, 465536, Note_on_c, 15, 42, 111
23, 465536, Note_on_c, 15, 46, 111
23, 465664, Note_off_c, 15, 42, 0
23, 465664, Note_off_c, 15, 46, 0
23, 465664, Note_on_c, 15, 40, 109
23, 465664, Note_on_c, 15, 44, 109
23, 465792, Note_off_c, 15, 40, 0
23, 465792, Note_off_c, 15, 44, 0
23, 465792, Note_on_c, 15, 45, 119
23, 465792, Note_on_c, 15, 48, 119
23, 465920, Note_off_c, 15, 45, 0
23, 465920, Note_off_c, 15, 48, 0
23, 465920, Note_on_c, 15, 43, 114
23, 465920, Note_on_c, 15, 47, 114
23, 466048, Note_off_c, 15, 43, 0
23, 466048, Note_off_c, 15, 47, 0
23, 466048, Note_on_c, 15, 45, 106
23, 466176, Note_off_c, 15, 45, 0
23, 466176, Note_on_c, 15, 46, 116
23, 466176, Note_on_c, 15, 49, 116
23, 466304, Note_off_c, 15, 46, 0
23, 466304, Note_off_c, 15, 49, 0
23, 466304, Note_on_c, 15, 44, 115
23, 466304, Note_on_c, 15, 48, 115
23, 466432, Note_off_c, 15, 44, 0
23, 466432, Note_off_c, 15, 48, 0
23, 466432, Note_on_c, 15, 42, 113
23, 466432, Note_on_c, 15, 46, 113
23, 466560, Note_off_c, 15, 42, 0
23, 466560, Note_off_c, 15, 46, 0
23, 466560, Note_on_c, 15, 48, 120
23, 466560, Note_on_c, 15, 51, 120
23, 466688, Note_off_c, 15, 48, 0
23, 466688, Note_off_c, 15, 51, 0
23, 466688, Note_on_c, 15, 46, 108
23, 466688, Note_on_c, 15, 49, 108
23, 466816, Note_off_c, 15, 46, 0
23, 466816, Note_off_c, 15, 49, 0
23, 466816, Note_on_c, 15, 44, 104
23, 466816, Note_on_c, 15, 47, 104
23, 466944, Note_off_c, 15, 44, 0
23, 466944, Note_off_c, 15, 47, 0
23, 466944, Note_on_c, 15, 43, 112
23, 466944, Note_on_c, 15, 46, 112
23, 467072, Note_off_c, 15, 43, 0
23, 467072, Note_off_c, 15, 46, 0
23, 467072, Note_on_c, 15, 44, 110
23, 467200, Note_off_c, 15, 44, 0
23, 467200, Note_on_c, 15, 39, 109
23, 467200, Note_on_c, 15, 43, 109
23, 467328, Note_off_c, 15, 39, 0
23, 467328, Note_off_c, 15, 43, 0
23, 467328, Note_on_c, 15, 42, 115
23, 467328, Note_on_c, 15, 45, 115
23, 467456, Note_off_c, 15, 42, 0
23, 467456, Note_off_c, 15, 45, 0
23, 467456, Note_on_c, 15, 38, 109
23, 467456, Note_on_c, 15, 42, 109
23, 467584, Note_off_c, 15, 38, 0
23, 467584, Note_off_c, 15, 42, 0
23, 467584, Note_on_c, 15, 46, 123
23, 467584, Note_on_c, 15, 50, 123
23, 467712, Note_off_c, 15, 46, 0
23, 467712, Note_off_c, 15, 50, 0
23, 467712, Note_on_c, 15, 44, 119
23, 467712, Note_on_c, 15, 48, 119
23, 467840, Note_off_c, 15, 44, 0
23, 467840, Note_off_c, 15, 48, 0
23, 467840, Note_on_c, 15, 42, 115
23, 467840, Note_on_c, 15, 44, 115
23, 467968, Note_off_c, 15, 42, 0
23, 467968, Note_off_c, 15, 44, 0
23, 467968, Note_on_c, 15, 38, 116
23, 467968, Note_on_c, 15, 42, 116
23, 468096, Note_off_c, 15, 38, 0
23, 468096, Note_off_c, 15, 42, 0
23, 468096, Note_on_c, 15, 38, 116
23, 468224, Note_off_c, 15, 38, 0
23, 468225, End_track
0, 0, End_of_file
