0, 0, Header, 0, 1, 480
1, 0, Start_track
1, 0, Title_t, "Waka/Jawaka                                                     "
1, 0, Tempo, 410958
1, 0, Key_signature, 0, "major"
1, 0, Time_signature, 4, 2, 24, 8
1, 0, MIDI_port, 0
1, 0, Control_c, 0, 0, 0
1, 0, System_exclusive, 10, 65, 16, 66, 18, 64, 0, 127, 0, 65, 247
1, 10, Control_c, 0, 32, 0
1, 20, Program_c, 0, 56
1, 30, Control_c, 0, 1, 0
1, 40, Control_c, 0, 7, 127
1, 50, Control_c, 0, 11, 120
1, 50, Program_c, 1, 57
1, 60, Control_c, 0, 10, 74
1, 60, Control_c, 1, 1, 0
1, 70, Pitch_bend_c, 0, 8192
1, 70, Control_c, 1, 7, 127
1, 80, Control_c, 0, 91, 80
1, 80, Control_c, 1, 11, 110
1, 90, Control_c, 0, 93, 10
1, 90, Control_c, 1, 10, 54
1, 100, Control_c, 0, 94, 0
1, 100, Pitch_bend_c, 1, 8192
1, 100, Program_c, 2, 56
1, 110, Control_c, 1, 91, 80
1, 110, Control_c, 2, 1, 0
1, 120, Control_c, 1, 93, 20
1, 120, Control_c, 2, 7, 120
1, 130, Control_c, 1, 94, 0
1, 130, Control_c, 2, 11, 120
1, 140, Control_c, 2, 10, 104
1, 150, Pitch_bend_c, 2, 8192
1, 150, Program_c, 3, 56
1, 160, Control_c, 2, 91, 20
1, 160, Control_c, 3, 1, 0
1, 170, Control_c, 2, 93, 0
1, 170, Control_c, 3, 7, 120
1, 180, Control_c, 2, 94, 0
1, 180, Control_c, 3, 11, 120
1, 190, Control_c, 3, 10, 24
1, 200, Pitch_bend_c, 3, 8192
1, 200, Program_c, 4, 57
1, 210, Control_c, 3, 91, 20
1, 210, Control_c, 4, 1, 0
1, 220, Control_c, 3, 93, 0
1, 220, Control_c, 4, 7, 120
1, 230, Control_c, 3, 94, 0
1, 230, Control_c, 4, 11, 120
1, 240, Control_c, 4, 10, 64
1, 250, Pitch_bend_c, 4, 8192
1, 260, Control_c, 4, 91, 20
1, 270, Control_c, 4, 93, 0
1, 280, Control_c, 4, 94, 0
1, 960, Program_c, 9, 32
1, 970, Control_c, 9, 1, 0
1, 980, Control_c, 9, 7, 110
1, 990, Control_c, 9, 11, 120
1, 1000, Control_c, 9, 10, 64
1, 1010, Pitch_bend_c, 9, 8192
1, 1020, Control_c, 9, 91, 0
1, 1030, Control_c, 9, 93, 0
1, 1040, Control_c, 9, 94, 0
1, 1040, Program_c, 8, 33
1, 1050, Control_c, 8, 1, 0
1, 1060, Control_c, 8, 7, 120
1, 1060, Control_c, 11, 0, 0
1, 1070, Control_c, 8, 11, 120
1, 1070, Control_c, 11, 32, 0
1, 1080, Control_c, 8, 10, 64
1, 1080, Program_c, 11, 25
1, 1090, Pitch_bend_c, 8, 8192
1, 1090, Control_c, 11, 1, 0
1, 1100, Control_c, 8, 91, 0
1, 1100, Control_c, 11, 7, 110
1, 1110, Control_c, 8, 93, 0
1, 1110, Control_c, 11, 11, 110
1, 1110, Control_c, 12, 0, 0
1, 1120, Control_c, 8, 94, 0
1, 1120, Control_c, 11, 10, 84
1, 1120, Control_c, 12, 32, 0
1, 1130, Control_c, 8, 101, 0
1, 1130, Pitch_bend_c, 11, 8192
1, 1130, Program_c, 12, 0
1, 1140, Control_c, 8, 100, 0
1, 1140, Control_c, 11, 91, 40
1, 1140, Control_c, 12, 1, 0
1, 1150, Control_c, 8, 6, 12
1, 1150, Control_c, 11, 93, 0
1, 1150, Control_c, 12, 7, 110
1, 1160, Control_c, 8, 101, 127
1, 1160, Control_c, 11, 94, 0
1, 1160, Control_c, 12, 11, 110
1, 1170, Control_c, 8, 100, 127
1, 1170, Control_c, 12, 10, 44
1, 1180, Pitch_bend_c, 12, 8192
1, 1190, Control_c, 12, 91, 50
1, 1200, Control_c, 12, 93, 10
1, 1210, Control_c, 12, 94, 0
1, 1220, Control_c, 12, 99, 1
1, 1230, Control_c, 12, 98, 33
1, 1240, Control_c, 12, 6, 64
1, 1250, Control_c, 12, 101, 127
1, 1260, Control_c, 12, 100, 127
1, 1270, Control_c, 12, 101, 0
1, 1280, Control_c, 12, 100, 0
1, 1290, Control_c, 12, 6, 12
1, 1300, Control_c, 12, 101, 127
1, 1310, Control_c, 12, 100, 127
1, 1680, Note_on_c, 4, 39, 100
1, 1680, Note_on_c, 9, 44, 100
1, 1680, Note_on_c, 9, 36, 120
1, 1680, Note_on_c, 8, 39, 120
1, 1690, Note_on_c, 9, 44, 0
1, 1690, Note_on_c, 9, 36, 0
1, 1780, Note_on_c, 4, 39, 0
1, 1880, Note_on_c, 8, 39, 0
1, 1920, Note_on_c, 0, 68, 110
1, 1920, Note_on_c, 1, 68, 110
1, 1920, Note_on_c, 4, 45, 100
1, 1920, Note_on_c, 9, 49, 100
1, 1920, Note_on_c, 9, 36, 90
1, 1920, Note_on_c, 8, 45, 110
1, 1920, Note_on_c, 11, 52, 90
1, 1920, Note_on_c, 12, 73, 90
1, 1920, Note_on_c, 12, 68, 90
1, 1920, Note_on_c, 12, 64, 90
1, 1920, Note_on_c, 12, 57, 90
1, 1930, Note_on_c, 9, 49, 0
1, 1930, Note_on_c, 9, 36, 0
1, 1930, Note_on_c, 11, 57, 90
1, 1940, Note_on_c, 11, 61, 90
1, 1950, Note_on_c, 11, 68, 90
1, 1960, Note_on_c, 11, 73, 90
1, 2070, Note_on_c, 4, 45, 0
1, 2320, Note_on_c, 8, 45, 0
1, 2400, Note_on_c, 9, 51, 50
1, 2400, Note_on_c, 9, 44, 80
1, 2400, Note_on_c, 9, 40, 50
1, 2400, Note_on_c, 9, 37, 60
1, 2410, Note_on_c, 9, 51, 0
1, 2410, Note_on_c, 9, 44, 0
1, 2410, Note_on_c, 9, 40, 0
1, 2410, Note_on_c, 9, 37, 0
1, 2570, Note_on_c, 0, 68, 0
1, 2570, Note_on_c, 1, 68, 0
1, 2640, Note_on_c, 0, 68, 100
1, 2640, Note_on_c, 1, 68, 100
1, 2640, Note_on_c, 4, 39, 70
1, 2640, Note_on_c, 9, 36, 70
1, 2640, Note_on_c, 8, 39, 90
1, 2650, Note_on_c, 9, 36, 0
1, 2720, Note_on_c, 4, 39, 0
1, 2740, Note_on_c, 0, 68, 0
1, 2740, Note_on_c, 1, 68, 0
1, 2760, Note_on_c, 0, 69, 110
1, 2760, Note_on_c, 1, 69, 110
1, 2840, Note_on_c, 8, 39, 0
1, 2860, Note_on_c, 0, 69, 0
1, 2860, Note_on_c, 1, 69, 0
1, 2880, Note_on_c, 0, 66, 110
1, 2880, Note_on_c, 1, 66, 110
1, 2880, Note_on_c, 4, 45, 90
1, 2880, Note_on_c, 9, 51, 50
1, 2880, Note_on_c, 9, 36, 80
1, 2880, Note_on_c, 8, 45, 110
1, 2880, Note_on_c, 11, 73, 0
1, 2880, Note_on_c, 11, 73, 60
1, 2890, Note_on_c, 9, 51, 0
1, 2890, Note_on_c, 9, 36, 0
1, 3030, Note_on_c, 4, 45, 0
1, 3280, Note_on_c, 8, 45, 0
1, 3360, Note_on_c, 9, 51, 50
1, 3360, Note_on_c, 9, 44, 80
1, 3360, Note_on_c, 9, 40, 40
1, 3360, Note_on_c, 9, 37, 70
1, 3370, Note_on_c, 9, 51, 0
1, 3370, Note_on_c, 9, 44, 0
1, 3370, Note_on_c, 9, 40, 0
1, 3370, Note_on_c, 9, 37, 0
1, 3520, Note_on_c, 12, 73, 0
1, 3520, Note_on_c, 12, 68, 0
1, 3520, Note_on_c, 12, 64, 0
1, 3520, Note_on_c, 12, 57, 0
1, 3580, Note_on_c, 11, 73, 0
1, 3600, Note_on_c, 4, 39, 70
1, 3600, Note_on_c, 9, 36, 60
1, 3600, Note_on_c, 8, 39, 90
1, 3600, Note_on_c, 11, 52, 0
1, 3600, Note_on_c, 11, 52, 70
1, 3600, Note_on_c, 12, 75, 70
1, 3600, Note_on_c, 12, 68, 70
1, 3600, Note_on_c, 12, 64, 70
1, 3600, Note_on_c, 12, 57, 70
1, 3610, Note_on_c, 9, 36, 0
1, 3610, Note_on_c, 11, 57, 0
1, 3610, Note_on_c, 11, 57, 70
1, 3620, Note_on_c, 11, 75, 80
1, 3680, Note_on_c, 4, 39, 0
1, 3780, Note_on_c, 0, 66, 0
1, 3780, Note_on_c, 1, 66, 0
1, 3800, Note_on_c, 8, 39, 0
1, 3840, Note_on_c, 0, 64, 110
1, 3840, Note_on_c, 1, 64, 110
1, 3840, Note_on_c, 4, 45, 80
1, 3840, Note_on_c, 9, 51, 60
1, 3840, Note_on_c, 9, 36, 70
1, 3840, Note_on_c, 8, 45, 100
1, 3850, Note_on_c, 9, 51, 0
1, 3850, Note_on_c, 9, 36, 0
1, 3920, Note_on_c, 4, 45, 0
1, 4060, Note_on_c, 8, 45, 0
1, 4080, Note_on_c, 4, 45, 60
1, 4080, Note_on_c, 9, 36, 60
1, 4080, Note_on_c, 8, 45, 80
1, 4090, Note_on_c, 9, 36, 0
1, 4140, Note_on_c, 0, 64, 0
1, 4140, Note_on_c, 1, 64, 0
1, 4160, Note_on_c, 4, 45, 0
1, 4200, Note_on_c, 0, 71, 110
1, 4200, Note_on_c, 1, 71, 110
1, 4280, Note_on_c, 8, 45, 0
1, 4320, Note_on_c, 4, 39, 70
1, 4320, Note_on_c, 9, 51, 50
1, 4320, Note_on_c, 9, 44, 80
1, 4320, Note_on_c, 8, 39, 90
1, 4330, Note_on_c, 9, 51, 0
1, 4330, Note_on_c, 9, 44, 0
1, 4400, Note_on_c, 4, 39, 0
1, 4500, Note_on_c, 0, 71, 0
1, 4500, Note_on_c, 1, 71, 0
1, 4520, Note_on_c, 8, 39, 0
1, 4560, Note_on_c, 0, 63, 100
1, 4560, Note_on_c, 1, 63, 100
1, 4560, Note_on_c, 4, 45, 60
1, 4560, Note_on_c, 9, 36, 70
1, 4560, Note_on_c, 8, 45, 80
1, 4570, Note_on_c, 9, 36, 0
1, 4640, Note_on_c, 4, 45, 0
1, 4660, Note_on_c, 0, 63, 0
1, 4660, Note_on_c, 1, 63, 0
1, 4680, Note_on_c, 0, 59, 90
1, 4680, Note_on_c, 1, 59, 90
1, 4760, Note_on_c, 8, 45, 0
1, 4780, Note_on_c, 0, 59, 0
1, 4780, Note_on_c, 1, 59, 0
1, 4800, Note_on_c, 0, 61, 100
1, 4800, Note_on_c, 1, 61, 100
1, 4800, Note_on_c, 4, 56, 60
1, 4800, Note_on_c, 9, 51, 50
1, 4800, Note_on_c, 9, 36, 70
1, 4800, Note_on_c, 8, 56, 90
1, 4810, Note_on_c, 9, 51, 0
1, 4810, Note_on_c, 9, 36, 0
1, 5020, Note_on_c, 4, 56, 0
1, 5280, Note_on_c, 9, 51, 50
1, 5280, Note_on_c, 9, 48, 80
1, 5280, Note_on_c, 9, 44, 90
1, 5290, Note_on_c, 9, 51, 0
1, 5290, Note_on_c, 9, 48, 0
1, 5290, Note_on_c, 9, 44, 0
1, 5400, Note_on_c, 8, 56, 0
1, 5520, Note_on_c, 4, 39, 80
1, 5520, Note_on_c, 9, 48, 80
1, 5520, Note_on_c, 8, 39, 100
1, 5530, Note_on_c, 9, 48, 0
1, 5580, Note_on_c, 11, 52, 0
1, 5580, Note_on_c, 11, 57, 0
1, 5580, Note_on_c, 11, 61, 0
1, 5580, Note_on_c, 11, 68, 0
1, 5580, Note_on_c, 11, 75, 0
1, 5580, Note_on_c, 12, 75, 0
1, 5580, Note_on_c, 12, 68, 0
1, 5580, Note_on_c, 12, 64, 0
1, 5580, Note_on_c, 12, 57, 0
1, 5600, Note_on_c, 4, 39, 0
1, 5700, Note_on_c, 0, 61, 0
1, 5700, Note_on_c, 1, 61, 0
1, 5720, Note_on_c, 8, 39, 0
1, 5760, Note_on_c, 0, 63, 100
1, 5760, Note_on_c, 1, 63, 100
1, 5760, Note_on_c, 4, 45, 90
1, 5760, Note_on_c, 9, 51, 60
1, 5760, Note_on_c, 9, 36, 80
1, 5760, Note_on_c, 8, 45, 110
1, 5760, Note_on_c, 11, 57, 70
1, 5760, Note_on_c, 11, 52, 70
1, 5760, Note_on_c, 12, 73, 70
1, 5760, Note_on_c, 12, 68, 70
1, 5760, Note_on_c, 12, 64, 70
1, 5760, Note_on_c, 12, 57, 70
1, 5770, Note_on_c, 9, 51, 0
1, 5770, Note_on_c, 9, 36, 0
1, 5770, Note_on_c, 11, 61, 70
1, 5780, Note_on_c, 11, 68, 70
1, 5790, Note_on_c, 11, 73, 70
1, 5910, Note_on_c, 4, 45, 0
1, 6060, Note_on_c, 0, 63, 0
1, 6060, Note_on_c, 1, 63, 0
1, 6120, Note_on_c, 0, 66, 100
1, 6120, Note_on_c, 1, 66, 100
1, 6160, Note_on_c, 8, 45, 0
1, 6240, Note_on_c, 9, 51, 60
1, 6240, Note_on_c, 9, 44, 80
1, 6240, Note_on_c, 9, 40, 40
1, 6240, Note_on_c, 9, 37, 70
1, 6250, Note_on_c, 9, 51, 0
1, 6250, Note_on_c, 9, 44, 0
1, 6250, Note_on_c, 9, 40, 0
1, 6250, Note_on_c, 9, 37, 0
1, 6420, Note_on_c, 0, 66, 0
1, 6420, Note_on_c, 1, 66, 0
1, 6480, Note_on_c, 0, 63, 100
1, 6480, Note_on_c, 1, 63, 100
1, 6480, Note_on_c, 4, 39, 70
1, 6480, Note_on_c, 9, 36, 60
1, 6480, Note_on_c, 8, 39, 90
1, 6490, Note_on_c, 9, 36, 0
1, 6560, Note_on_c, 4, 39, 0
1, 6580, Note_on_c, 0, 63, 0
1, 6580, Note_on_c, 1, 63, 0
1, 6600, Note_on_c, 0, 61, 90
1, 6600, Note_on_c, 1, 61, 90
1, 6680, Note_on_c, 8, 39, 0
1, 6700, Note_on_c, 0, 61, 0
1, 6700, Note_on_c, 1, 61, 0
1, 6720, Note_on_c, 0, 71, 110
1, 6720, Note_on_c, 1, 71, 110
1, 6720, Note_on_c, 4, 45, 80
1, 6720, Note_on_c, 9, 51, 50
1, 6720, Note_on_c, 9, 36, 80
1, 6720, Note_on_c, 8, 45, 110
1, 6730, Note_on_c, 9, 51, 0
1, 6730, Note_on_c, 9, 36, 0
1, 6760, Note_on_c, 12, 73, 0
1, 6760, Note_on_c, 12, 68, 0
1, 6790, Note_on_c, 11, 73, 0
1, 6870, Note_on_c, 4, 45, 0
1, 6960, Note_on_c, 11, 75, 70
1, 6960, Note_on_c, 11, 63, 70
1, 6960, Note_on_c, 12, 75, 60
1, 6960, Note_on_c, 12, 73, 60
1, 6960, Note_on_c, 12, 68, 60
1, 7120, Note_on_c, 8, 45, 0
1, 7200, Note_on_c, 9, 51, 50
1, 7200, Note_on_c, 9, 44, 80
1, 7210, Note_on_c, 9, 51, 0
1, 7210, Note_on_c, 9, 44, 0
1, 7440, Note_on_c, 4, 39, 70
1, 7440, Note_on_c, 9, 36, 60
1, 7440, Note_on_c, 8, 39, 90
1, 7450, Note_on_c, 9, 36, 0
1, 7520, Note_on_c, 4, 39, 0
1, 7640, Note_on_c, 8, 39, 0
1, 7680, Note_on_c, 4, 45, 80
1, 7680, Note_on_c, 9, 51, 60
1, 7680, Note_on_c, 9, 36, 70
1, 7680, Note_on_c, 8, 45, 100
1, 7690, Note_on_c, 9, 51, 0
1, 7690, Note_on_c, 9, 36, 0
1, 7700, Note_on_c, 11, 61, 0
1, 7760, Note_on_c, 4, 45, 0
1, 7900, Note_on_c, 8, 45, 0
1, 7920, Note_on_c, 4, 45, 60
1, 7920, Note_on_c, 9, 36, 60
1, 7920, Note_on_c, 8, 45, 80
1, 7930, Note_on_c, 9, 36, 0
1, 8000, Note_on_c, 4, 45, 0
1, 8120, Note_on_c, 8, 45, 0
1, 8160, Note_on_c, 4, 39, 70
1, 8160, Note_on_c, 9, 51, 60
1, 8160, Note_on_c, 9, 44, 80
1, 8160, Note_on_c, 8, 39, 90
1, 8170, Note_on_c, 9, 51, 0
1, 8170, Note_on_c, 9, 44, 0
1, 8240, Note_on_c, 4, 39, 0
1, 8360, Note_on_c, 8, 39, 0
1, 8400, Note_on_c, 4, 45, 60
1, 8400, Note_on_c, 9, 36, 70
1, 8400, Note_on_c, 8, 45, 80
1, 8410, Note_on_c, 9, 36, 0
1, 8480, Note_on_c, 4, 45, 0
1, 8580, Note_on_c, 11, 57, 0
1, 8580, Note_on_c, 11, 52, 0
1, 8580, Note_on_c, 11, 68, 0
1, 8580, Note_on_c, 11, 75, 0
1, 8580, Note_on_c, 11, 63, 0
1, 8580, Note_on_c, 12, 75, 0
1, 8580, Note_on_c, 12, 73, 0
1, 8580, Note_on_c, 12, 64, 0
1, 8580, Note_on_c, 12, 57, 0
1, 8580, Note_on_c, 12, 68, 0
1, 8600, Note_on_c, 8, 45, 0
1, 8640, Note_on_c, 4, 56, 60
1, 8640, Note_on_c, 9, 51, 60
1, 8640, Note_on_c, 9, 36, 70
1, 8640, Note_on_c, 8, 56, 90
1, 8640, Note_on_c, 11, 63, 80
1, 8650, Note_on_c, 9, 51, 0
1, 8650, Note_on_c, 9, 36, 0
1, 8800, Note_on_c, 11, 63, 0
1, 8800, Note_on_c, 11, 63, 50
1, 8860, Note_on_c, 4, 56, 0
1, 8960, Note_on_c, 11, 63, 0
1, 8960, Note_on_c, 11, 63, 40
1, 9100, Note_on_c, 11, 63, 0
1, 9120, Note_on_c, 9, 51, 60
1, 9120, Note_on_c, 9, 48, 80
1, 9120, Note_on_c, 9, 44, 90
1, 9120, Note_on_c, 11, 75, 60
1, 9120, Note_on_c, 11, 63, 70
1, 9120, Note_on_c, 12, 75, 60
1, 9120, Note_on_c, 12, 63, 60
1, 9130, Note_on_c, 9, 51, 0
1, 9130, Note_on_c, 9, 48, 0
1, 9130, Note_on_c, 9, 44, 0
1, 9240, Note_on_c, 8, 56, 0
1, 9360, Note_on_c, 4, 39, 80
1, 9360, Note_on_c, 9, 48, 80
1, 9360, Note_on_c, 8, 39, 100
1, 9370, Note_on_c, 9, 48, 0
1, 9420, Note_on_c, 0, 71, 0
1, 9420, Note_on_c, 1, 71, 0
1, 9440, Note_on_c, 4, 39, 0
1, 9480, Note_on_c, 0, 61, 60
1, 9480, Note_on_c, 1, 61, 60
1, 9550, Note_on_c, 11, 75, 0
1, 9550, Note_on_c, 11, 63, 0
1, 9550, Note_on_c, 12, 75, 0
1, 9550, Note_on_c, 12, 63, 0
1, 9560, Note_on_c, 8, 39, 0
1, 9580, Note_on_c, 0, 61, 0
1, 9580, Note_on_c, 1, 61, 0
1, 9600, Note_on_c, 0, 63, 110
1, 9600, Note_on_c, 1, 63, 110
1, 9600, Note_on_c, 4, 45, 90
1, 9600, Note_on_c, 9, 51, 60
1, 9600, Note_on_c, 9, 36, 100
1, 9600, Note_on_c, 8, 45, 110
1, 9600, Note_on_c, 11, 52, 90
1, 9600, Note_on_c, 12, 73, 70
1, 9600, Note_on_c, 12, 68, 70
1, 9600, Note_on_c, 12, 64, 70
1, 9600, Note_on_c, 12, 57, 70
1, 9610, Note_on_c, 9, 51, 0
1, 9610, Note_on_c, 9, 36, 0
1, 9610, Note_on_c, 11, 57, 90
1, 9620, Note_on_c, 11, 61, 90
1, 9630, Note_on_c, 11, 68, 90
1, 9640, Note_on_c, 11, 73, 90
1, 9750, Note_on_c, 4, 45, 0
1, 9900, Note_on_c, 0, 63, 0
1, 9900, Note_on_c, 1, 63, 0
1, 9960, Note_on_c, 0, 66, 110
1, 9960, Note_on_c, 1, 66, 110
1, 10000, Note_on_c, 8, 45, 0
1, 10080, Note_on_c, 9, 51, 60
1, 10080, Note_on_c, 9, 44, 80
1, 10080, Note_on_c, 9, 40, 40
1, 10080, Note_on_c, 9, 37, 60
1, 10090, Note_on_c, 9, 51, 0
1, 10090, Note_on_c, 9, 44, 0
1, 10090, Note_on_c, 9, 40, 0
1, 10090, Note_on_c, 9, 37, 0
1, 10260, Note_on_c, 0, 66, 0
1, 10260, Note_on_c, 1, 66, 0
1, 10320, Note_on_c, 0, 63, 100
1, 10320, Note_on_c, 1, 63, 100
1, 10320, Note_on_c, 4, 39, 70
1, 10320, Note_on_c, 9, 36, 70
1, 10320, Note_on_c, 8, 39, 90
1, 10330, Note_on_c, 9, 36, 0
1, 10400, Note_on_c, 4, 39, 0
1, 10420, Note_on_c, 0, 63, 0
1, 10420, Note_on_c, 1, 63, 0
1, 10440, Note_on_c, 0, 59, 90
1, 10440, Note_on_c, 1, 59, 90
1, 10500, Note_on_c, 11, 52, 0
1, 10520, Note_on_c, 8, 39, 0
1, 10530, Note_on_c, 11, 68, 0
1, 10540, Note_on_c, 0, 59, 0
1, 10540, Note_on_c, 1, 59, 0
1, 10540, Note_on_c, 11, 73, 0
1, 10560, Note_on_c, 0, 61, 100
1, 10560, Note_on_c, 1, 61, 100
1, 10560, Note_on_c, 4, 45, 80
1, 10560, Note_on_c, 9, 51, 50
1, 10560, Note_on_c, 9, 36, 80
1, 10560, Note_on_c, 8, 45, 110
1, 10560, Note_on_c, 11, 52, 70
1, 10570, Note_on_c, 9, 51, 0
1, 10570, Note_on_c, 9, 36, 0
1, 10570, Note_on_c, 11, 73, 70
1, 10570, Note_on_c, 11, 68, 70
1, 10710, Note_on_c, 4, 45, 0
1, 10880, Note_on_c, 11, 52, 0
1, 10880, Note_on_c, 11, 52, 70
1, 10960, Note_on_c, 8, 45, 0
1, 11040, Note_on_c, 9, 51, 50
1, 11040, Note_on_c, 9, 44, 80
1, 11040, Note_on_c, 9, 40, 30
1, 11040, Note_on_c, 9, 37, 70
1, 11040, Note_on_c, 11, 52, 0
1, 11040, Note_on_c, 11, 52, 80
1, 11050, Note_on_c, 9, 51, 0
1, 11050, Note_on_c, 9, 44, 0
1, 11050, Note_on_c, 9, 40, 0
1, 11050, Note_on_c, 9, 37, 0
1, 11200, Note_on_c, 11, 52, 0
1, 11200, Note_on_c, 11, 52, 60
1, 11280, Note_on_c, 4, 39, 70
1, 11280, Note_on_c, 9, 36, 60
1, 11280, Note_on_c, 8, 39, 90
1, 11290, Note_on_c, 9, 36, 0
1, 11340, Note_on_c, 12, 73, 0
1, 11340, Note_on_c, 12, 68, 0
1, 11340, Note_on_c, 12, 64, 0
1, 11340, Note_on_c, 12, 57, 0
1, 11350, Note_on_c, 11, 57, 0
1, 11360, Note_on_c, 4, 39, 0
1, 11360, Note_on_c, 11, 52, 0
1, 11360, Note_on_c, 11, 61, 0
1, 11360, Note_on_c, 11, 52, 60
1, 11460, Note_on_c, 0, 61, 0
1, 11460, Note_on_c, 1, 61, 0
1, 11470, Note_on_c, 11, 73, 0
1, 11470, Note_on_c, 11, 68, 0
1, 11480, Note_on_c, 8, 39, 0
1, 11480, Note_on_c, 11, 52, 0
1, 11520, Note_on_c, 0, 73, 100
1, 11520, Note_on_c, 1, 73, 100
1, 11520, Note_on_c, 4, 45, 80
1, 11520, Note_on_c, 9, 51, 60
1, 11520, Note_on_c, 9, 36, 70
1, 11520, Note_on_c, 8, 45, 100
1, 11520, Note_on_c, 11, 68, 80
1, 11520, Note_on_c, 11, 63, 80
1, 11520, Note_on_c, 11, 61, 80
1, 11520, Note_on_c, 11, 57, 80
1, 11520, Note_on_c, 11, 52, 80
1, 11520, Note_on_c, 12, 73, 60
1, 11520, Note_on_c, 12, 68, 60
1, 11520, Note_on_c, 12, 64, 60
1, 11520, Note_on_c, 12, 57, 60
1, 11530, Note_on_c, 9, 51, 0
1, 11530, Note_on_c, 9, 36, 0
1, 11600, Note_on_c, 4, 45, 0
1, 11620, Note_on_c, 0, 73, 0
1, 11640, Note_on_c, 0, 73, 70
1, 11740, Note_on_c, 0, 73, 0
1, 11740, Note_on_c, 8, 45, 0
1, 11740, Note_on_c, 11, 63, 0
1, 11760, Note_on_c, 0, 73, 60
1, 11760, Note_on_c, 4, 45, 60
1, 11760, Note_on_c, 9, 36, 60
1, 11760, Note_on_c, 8, 45, 80
1, 11760, Note_on_c, 11, 63, 60
1, 11770, Note_on_c, 9, 36, 0
1, 11840, Note_on_c, 4, 45, 0
1, 11860, Note_on_c, 0, 73, 0
1, 11880, Note_on_c, 0, 73, 50
1, 11960, Note_on_c, 8, 45, 0
1, 11980, Note_on_c, 0, 73, 0
1, 12000, Note_on_c, 0, 73, 50
1, 12000, Note_on_c, 4, 39, 70
1, 12000, Note_on_c, 9, 51, 60
1, 12000, Note_on_c, 9, 44, 80
1, 12000, Note_on_c, 8, 39, 90
1, 12010, Note_on_c, 9, 51, 0
1, 12010, Note_on_c, 9, 44, 0
1, 12080, Note_on_c, 4, 39, 0
1, 12100, Note_on_c, 0, 73, 0
1, 12120, Note_on_c, 0, 73, 50
1, 12200, Note_on_c, 8, 39, 0
1, 12220, Note_on_c, 0, 73, 0
1, 12240, Note_on_c, 0, 73, 52
1, 12240, Note_on_c, 4, 45, 60
1, 12240, Note_on_c, 9, 36, 70
1, 12240, Note_on_c, 8, 45, 80
1, 12240, Note_on_c, 11, 68, 0
1, 12240, Note_on_c, 11, 68, 80
1, 12250, Note_on_c, 9, 36, 0
1, 12320, Note_on_c, 4, 45, 0
1, 12340, Note_on_c, 0, 73, 0
1, 12360, Note_on_c, 0, 73, 54
1, 12440, Note_on_c, 8, 45, 0
1, 12460, Note_on_c, 0, 73, 0
1, 12480, Note_on_c, 0, 73, 56
1, 12480, Note_on_c, 4, 56, 60
1, 12480, Note_on_c, 9, 51, 50
1, 12480, Note_on_c, 9, 36, 70
1, 12480, Note_on_c, 8, 56, 90
1, 12490, Note_on_c, 9, 51, 0
1, 12490, Note_on_c, 9, 36, 0
1, 12580, Note_on_c, 0, 73, 0
1, 12600, Note_on_c, 0, 73, 58
1, 12700, Note_on_c, 0, 73, 0
1, 12700, Note_on_c, 4, 56, 0
1, 12720, Note_on_c, 0, 73, 60
1, 12720, Note_on_c, 11, 63, 0
1, 12720, Note_on_c, 11, 63, 65
1, 12820, Note_on_c, 0, 73, 0
1, 12840, Note_on_c, 0, 73, 60
1, 12940, Note_on_c, 0, 73, 0
1, 12960, Note_on_c, 0, 73, 61
1, 12960, Note_on_c, 9, 51, 50
1, 12960, Note_on_c, 9, 48, 80
1, 12960, Note_on_c, 9, 44, 90
1, 12970, Note_on_c, 9, 51, 0
1, 12970, Note_on_c, 9, 48, 0
1, 12970, Note_on_c, 9, 44, 0
1, 13060, Note_on_c, 0, 73, 0
1, 13080, Note_on_c, 0, 73, 62
1, 13080, Note_on_c, 8, 56, 0
1, 13180, Note_on_c, 0, 73, 0
1, 13200, Note_on_c, 0, 73, 63
1, 13200, Note_on_c, 4, 39, 80
1, 13200, Note_on_c, 9, 48, 80
1, 13200, Note_on_c, 8, 39, 100
1, 13200, Note_on_c, 11, 68, 0
1, 13200, Note_on_c, 11, 68, 85
1, 13210, Note_on_c, 9, 48, 0
1, 13260, Note_on_c, 11, 52, 0
1, 13260, Note_on_c, 12, 73, 0
1, 13260, Note_on_c, 12, 68, 0
1, 13260, Note_on_c, 12, 64, 0
1, 13260, Note_on_c, 12, 57, 0
1, 13280, Note_on_c, 4, 39, 0
1, 13300, Note_on_c, 0, 73, 0
1, 13320, Note_on_c, 0, 73, 64
1, 13400, Note_on_c, 8, 39, 0
1, 13420, Note_on_c, 0, 73, 0
1, 13440, Note_on_c, 0, 73, 65
1, 13440, Note_on_c, 4, 45, 90
1, 13440, Note_on_c, 9, 51, 60
1, 13440, Note_on_c, 9, 36, 80
1, 13440, Note_on_c, 8, 45, 110
1, 13440, Note_on_c, 11, 52, 80
1, 13440, Note_on_c, 12, 73, 80
1, 13440, Note_on_c, 12, 68, 80
1, 13440, Note_on_c, 12, 64, 80
1, 13440, Note_on_c, 12, 57, 80
1, 13450, Note_on_c, 9, 51, 0
1, 13450, Note_on_c, 9, 36, 0
1, 13450, Note_on_c, 11, 57, 0
1, 13540, Note_on_c, 0, 73, 0
1, 13560, Note_on_c, 0, 73, 64
1, 13590, Note_on_c, 4, 45, 0
1, 13660, Note_on_c, 0, 73, 0
1, 13680, Note_on_c, 0, 73, 65
1, 13680, Note_on_c, 11, 63, 0
1, 13680, Note_on_c, 11, 63, 60
1, 13780, Note_on_c, 0, 73, 0
1, 13800, Note_on_c, 0, 73, 63
1, 13840, Note_on_c, 8, 45, 0
1, 13900, Note_on_c, 0, 73, 0
1, 13920, Note_on_c, 0, 73, 65
1, 13920, Note_on_c, 9, 51, 60
1, 13920, Note_on_c, 9, 44, 80
1, 13930, Note_on_c, 9, 51, 0
1, 13930, Note_on_c, 9, 44, 0
1, 14020, Note_on_c, 0, 73, 0
1, 14040, Note_on_c, 0, 73, 64
1, 14140, Note_on_c, 0, 73, 0
1, 14160, Note_on_c, 0, 73, 65
1, 14160, Note_on_c, 4, 39, 70
1, 14160, Note_on_c, 9, 36, 60
1, 14160, Note_on_c, 8, 39, 90
1, 14160, Note_on_c, 11, 68, 0
1, 14160, Note_on_c, 11, 68, 100
1, 14170, Note_on_c, 9, 36, 0
1, 14240, Note_on_c, 4, 39, 0
1, 14260, Note_on_c, 0, 73, 0
1, 14280, Note_on_c, 0, 73, 63
1, 14360, Note_on_c, 8, 39, 0
1, 14380, Note_on_c, 0, 73, 0
1, 14400, Note_on_c, 0, 73, 65
1, 14400, Note_on_c, 4, 45, 80
1, 14400, Note_on_c, 9, 51, 60
1, 14400, Note_on_c, 9, 36, 80
1, 14400, Note_on_c, 8, 45, 110
1, 14410, Note_on_c, 9, 51, 0
1, 14410, Note_on_c, 9, 36, 0
1, 14500, Note_on_c, 0, 73, 0
1, 14520, Note_on_c, 0, 73, 64
1, 14550, Note_on_c, 4, 45, 0
1, 14620, Note_on_c, 0, 73, 0
1, 14640, Note_on_c, 0, 73, 66
1, 14640, Note_on_c, 11, 63, 0
1, 14640, Note_on_c, 11, 63, 65
1, 14740, Note_on_c, 0, 73, 0
1, 14760, Note_on_c, 0, 73, 65
1, 14800, Note_on_c, 8, 45, 0
1, 14860, Note_on_c, 0, 73, 0
1, 14880, Note_on_c, 0, 73, 66
1, 14880, Note_on_c, 9, 51, 60
1, 14880, Note_on_c, 9, 44, 80
1, 14890, Note_on_c, 9, 51, 0
1, 14890, Note_on_c, 9, 44, 0
1, 14980, Note_on_c, 0, 73, 0
1, 15000, Note_on_c, 0, 73, 63
1, 15100, Note_on_c, 0, 73, 0
1, 15120, Note_on_c, 0, 73, 66
1, 15120, Note_on_c, 4, 39, 70
1, 15120, Note_on_c, 9, 36, 60
1, 15120, Note_on_c, 8, 39, 90
1, 15120, Note_on_c, 11, 68, 0
1, 15120, Note_on_c, 11, 68, 85
1, 15130, Note_on_c, 9, 36, 0
1, 15200, Note_on_c, 4, 39, 0
1, 15220, Note_on_c, 0, 73, 0
1, 15240, Note_on_c, 0, 73, 64
1, 15320, Note_on_c, 8, 39, 0
1, 15340, Note_on_c, 0, 73, 0
1, 15360, Note_on_c, 0, 73, 65
1, 15360, Note_on_c, 4, 45, 80
1, 15360, Note_on_c, 9, 51, 70
1, 15360, Note_on_c, 9, 36, 70
1, 15360, Note_on_c, 8, 45, 100
1, 15370, Note_on_c, 9, 51, 0
1, 15370, Note_on_c, 9, 36, 0
1, 15370, Note_on_c, 11, 61, 0
1, 15370, Note_on_c, 11, 52, 0
1, 15440, Note_on_c, 4, 45, 0
1, 15460, Note_on_c, 0, 73, 0
1, 15480, Note_on_c, 0, 73, 64
1, 15580, Note_on_c, 0, 73, 0
1, 15580, Note_on_c, 8, 45, 0
1, 15600, Note_on_c, 0, 73, 65
1, 15600, Note_on_c, 4, 45, 60
1, 15600, Note_on_c, 9, 36, 60
1, 15600, Note_on_c, 8, 45, 80
1, 15600, Note_on_c, 11, 63, 0
1, 15600, Note_on_c, 11, 63, 60
1, 15610, Note_on_c, 9, 36, 0
1, 15630, Note_on_c, 11, 68, 0
1, 15660, Note_on_c, 11, 68, 70
1, 15680, Note_on_c, 4, 45, 0
1, 15700, Note_on_c, 0, 73, 0
1, 15720, Note_on_c, 0, 73, 64
1, 15800, Note_on_c, 8, 45, 0
1, 15820, Note_on_c, 0, 73, 0
1, 15820, Note_on_c, 11, 63, 0
1, 15840, Note_on_c, 0, 73, 62
1, 15840, Note_on_c, 4, 39, 70
1, 15840, Note_on_c, 9, 51, 70
1, 15840, Note_on_c, 9, 44, 80
1, 15840, Note_on_c, 8, 39, 90
1, 15840, Note_on_c, 11, 63, 60
1, 15850, Note_on_c, 9, 51, 0
1, 15850, Note_on_c, 9, 44, 0
1, 15920, Note_on_c, 4, 39, 0
1, 15940, Note_on_c, 0, 73, 0
1, 15960, Note_on_c, 0, 73, 60
1, 16040, Note_on_c, 8, 39, 0
1, 16060, Note_on_c, 0, 73, 0
1, 16080, Note_on_c, 0, 73, 56
1, 16080, Note_on_c, 4, 45, 60
1, 16080, Note_on_c, 9, 36, 70
1, 16080, Note_on_c, 8, 45, 80
1, 16090, Note_on_c, 9, 36, 0
1, 16160, Note_on_c, 4, 45, 0
1, 16180, Note_on_c, 0, 73, 0
1, 16200, Note_on_c, 0, 73, 52
1, 16280, Note_on_c, 8, 45, 0
1, 16300, Note_on_c, 0, 73, 0
1, 16320, Note_on_c, 0, 73, 48
1, 16320, Note_on_c, 4, 56, 70
1, 16320, Note_on_c, 9, 51, 90
1, 16320, Note_on_c, 9, 36, 80
1, 16320, Note_on_c, 8, 56, 90
1, 16320, Note_on_c, 11, 68, 0
1, 16320, Note_on_c, 11, 68, 80
1, 16330, Note_on_c, 9, 51, 0
1, 16330, Note_on_c, 9, 36, 0
1, 16420, Note_on_c, 0, 73, 0
1, 16440, Note_on_c, 0, 73, 44
1, 16540, Note_on_c, 0, 73, 0
1, 16540, Note_on_c, 4, 56, 0
1, 16560, Note_on_c, 0, 73, 40
1, 16560, Note_on_c, 9, 45, 100
1, 16570, Note_on_c, 9, 45, 0
1, 16660, Note_on_c, 0, 73, 0
1, 16680, Note_on_c, 0, 73, 36
1, 16780, Note_on_c, 0, 73, 0
1, 16800, Note_on_c, 0, 73, 30
1, 16800, Note_on_c, 9, 45, 100
1, 16800, Note_on_c, 9, 44, 90
1, 16800, Note_on_c, 11, 63, 0
1, 16800, Note_on_c, 11, 63, 50
1, 16810, Note_on_c, 9, 45, 0
1, 16810, Note_on_c, 9, 44, 0
1, 16900, Note_on_c, 0, 73, 0
1, 16900, Note_on_c, 1, 73, 0
1, 16920, Note_on_c, 0, 73, 20
1, 16920, Note_on_c, 8, 56, 0
1, 17020, Note_on_c, 0, 73, 0
1, 17040, Note_on_c, 0, 73, 10
1, 17040, Note_on_c, 4, 40, 80
1, 17040, Note_on_c, 9, 36, 60
1, 17040, Note_on_c, 8, 40, 100
1, 17050, Note_on_c, 9, 36, 0
1, 17100, Note_on_c, 12, 73, 0
1, 17100, Note_on_c, 12, 68, 0
1, 17100, Note_on_c, 12, 64, 0
1, 17100, Note_on_c, 12, 57, 0
1, 17120, Note_on_c, 4, 40, 0
1, 17140, Note_on_c, 0, 73, 0
1, 17160, Note_on_c, 0, 73, 10
1, 17240, Note_on_c, 8, 40, 0
1, 17260, Note_on_c, 0, 73, 0
1, 17280, Note_on_c, 0, 68, 110
1, 17280, Note_on_c, 1, 64, 110
1, 17280, Note_on_c, 2, 73, 80
1, 17280, Note_on_c, 3, 69, 80
1, 17280, Note_on_c, 4, 66, 80
1, 17280, Note_on_c, 9, 49, 100
1, 17280, Note_on_c, 9, 36, 100
1, 17280, Note_on_c, 8, 45, 110
1, 17280, Note_on_c, 11, 68, 0
1, 17280, Note_on_c, 11, 52, 90
1, 17280, Note_on_c, 12, 73, 90
1, 17280, Note_on_c, 12, 68, 90
1, 17280, Note_on_c, 12, 64, 90
1, 17280, Note_on_c, 12, 57, 90
1, 17290, Note_on_c, 9, 49, 0
1, 17290, Note_on_c, 9, 36, 0
1, 17290, Note_on_c, 11, 57, 90
1, 17300, Note_on_c, 11, 61, 90
1, 17310, Note_on_c, 11, 68, 90
1, 17320, Note_on_c, 11, 73, 90
1, 17400, Note_on_c, 2, 73, 0
1, 17400, Note_on_c, 3, 69, 0
1, 17400, Note_on_c, 4, 66, 0
1, 17520, Note_on_c, 2, 73, 80
1, 17520, Note_on_c, 3, 69, 80
1, 17520, Note_on_c, 4, 66, 80
1, 17600, Note_on_c, 2, 73, 0
1, 17600, Note_on_c, 3, 69, 0
1, 17600, Note_on_c, 4, 66, 0
1, 17640, Note_on_c, 2, 73, 80
1, 17640, Note_on_c, 3, 69, 80
1, 17640, Note_on_c, 4, 66, 80
1, 17680, Note_on_c, 8, 45, 0
1, 17710, Note_on_c, 2, 73, 0
1, 17710, Note_on_c, 3, 69, 0
1, 17710, Note_on_c, 4, 66, 0
1, 17760, Note_on_c, 2, 73, 80
1, 17760, Note_on_c, 3, 69, 80
1, 17760, Note_on_c, 4, 66, 80
1, 17760, Note_on_c, 9, 51, 50
1, 17760, Note_on_c, 9, 44, 80
1, 17760, Note_on_c, 9, 40, 50
1, 17760, Note_on_c, 9, 37, 60
1, 17760, Note_on_c, 11, 63, 0
1, 17770, Note_on_c, 9, 51, 0
1, 17770, Note_on_c, 9, 44, 0
1, 17770, Note_on_c, 9, 40, 0
1, 17770, Note_on_c, 9, 37, 0
1, 17880, Note_on_c, 2, 73, 0
1, 17880, Note_on_c, 3, 69, 0
1, 17880, Note_on_c, 4, 66, 0
1, 17930, Note_on_c, 0, 68, 0
1, 17930, Note_on_c, 1, 64, 0
1, 18000, Note_on_c, 0, 68, 90
1, 18000, Note_on_c, 1, 64, 90
1, 18000, Note_on_c, 2, 73, 80
1, 18000, Note_on_c, 3, 69, 80
1, 18000, Note_on_c, 4, 66, 80
1, 18000, Note_on_c, 9, 36, 70
1, 18000, Note_on_c, 8, 40, 90
1, 18010, Note_on_c, 9, 36, 0
1, 18080, Note_on_c, 2, 73, 0
1, 18080, Note_on_c, 3, 69, 0
1, 18080, Note_on_c, 4, 66, 0
1, 18100, Note_on_c, 0, 68, 0
1, 18100, Note_on_c, 1, 64, 0
1, 18120, Note_on_c, 0, 69, 100
1, 18120, Note_on_c, 1, 66, 100
1, 18120, Note_on_c, 2, 73, 80
1, 18120, Note_on_c, 3, 69, 80
1, 18120, Note_on_c, 4, 66, 80
1, 18190, Note_on_c, 2, 73, 0
1, 18190, Note_on_c, 3, 69, 0
1, 18190, Note_on_c, 4, 66, 0
1, 18200, Note_on_c, 8, 40, 0
1, 18220, Note_on_c, 0, 69, 0
1, 18220, Note_on_c, 1, 66, 0
1, 18240, Note_on_c, 0, 66, 110
1, 18240, Note_on_c, 1, 63, 110
1, 18240, Note_on_c, 2, 73, 80
1, 18240, Note_on_c, 3, 69, 80
1, 18240, Note_on_c, 4, 66, 80
1, 18240, Note_on_c, 9, 51, 50
1, 18240, Note_on_c, 9, 36, 80
1, 18240, Note_on_c, 8, 45, 110
1, 18250, Note_on_c, 9, 51, 0
1, 18250, Note_on_c, 9, 36, 0
1, 18320, Note_on_c, 2, 73, 0
1, 18320, Note_on_c, 3, 69, 0
1, 18320, Note_on_c, 4, 66, 0
1, 18360, Note_on_c, 2, 73, 80
1, 18360, Note_on_c, 3, 69, 80
1, 18360, Note_on_c, 4, 66, 80
1, 18420, Note_on_c, 2, 73, 0
1, 18420, Note_on_c, 3, 69, 0
1, 18420, Note_on_c, 4, 66, 0
1, 18480, Note_on_c, 2, 73, 80
1, 18480, Note_on_c, 3, 69, 80
1, 18480, Note_on_c, 4, 66, 80
1, 18560, Note_on_c, 2, 73, 0
1, 18560, Note_on_c, 3, 69, 0
1, 18560, Note_on_c, 4, 66, 0
1, 18600, Note_on_c, 2, 73, 80
1, 18600, Note_on_c, 3, 69, 80
1, 18600, Note_on_c, 4, 66, 80
1, 18640, Note_on_c, 8, 45, 0
1, 18660, Note_on_c, 2, 73, 0
1, 18660, Note_on_c, 3, 69, 0
1, 18660, Note_on_c, 4, 66, 0
1, 18720, Note_on_c, 2, 73, 80
1, 18720, Note_on_c, 3, 69, 80
1, 18720, Note_on_c, 4, 66, 80
1, 18720, Note_on_c, 9, 51, 50
1, 18720, Note_on_c, 9, 44, 80
1, 18720, Note_on_c, 9, 40, 50
1, 18720, Note_on_c, 9, 37, 70
1, 18730, Note_on_c, 9, 51, 0
1, 18730, Note_on_c, 9, 44, 0
1, 18730, Note_on_c, 9, 40, 0
1, 18730, Note_on_c, 9, 37, 0
1, 18840, Note_on_c, 2, 73, 0
1, 18840, Note_on_c, 3, 69, 0
1, 18840, Note_on_c, 4, 66, 0
1, 18960, Note_on_c, 2, 73, 80
1, 18960, Note_on_c, 3, 69, 80
1, 18960, Note_on_c, 4, 66, 80
1, 18960, Note_on_c, 9, 36, 60
1, 18960, Note_on_c, 8, 40, 90
1, 18970, Note_on_c, 9, 36, 0
1, 19040, Note_on_c, 2, 73, 0
1, 19040, Note_on_c, 3, 69, 0
1, 19040, Note_on_c, 4, 66, 0
1, 19080, Note_on_c, 2, 73, 80
1, 19080, Note_on_c, 3, 69, 80
1, 19080, Note_on_c, 4, 66, 80
1, 19140, Note_on_c, 0, 66, 0
1, 19140, Note_on_c, 1, 63, 0
1, 19160, Note_on_c, 2, 73, 0
1, 19160, Note_on_c, 3, 69, 0
1, 19160, Note_on_c, 4, 66, 0
1, 19160, Note_on_c, 8, 40, 0
1, 19200, Note_on_c, 0, 64, 110
1, 19200, Note_on_c, 1, 61, 110
1, 19200, Note_on_c, 2, 73, 80
1, 19200, Note_on_c, 3, 69, 80
1, 19200, Note_on_c, 4, 66, 80
1, 19200, Note_on_c, 9, 51, 60
1, 19200, Note_on_c, 9, 36, 70
1, 19200, Note_on_c, 8, 45, 100
1, 19210, Note_on_c, 9, 51, 0
1, 19210, Note_on_c, 9, 36, 0
1, 19320, Note_on_c, 2, 73, 0
1, 19320, Note_on_c, 3, 69, 0
1, 19320, Note_on_c, 4, 66, 0
1, 19420, Note_on_c, 8, 45, 0
1, 19440, Note_on_c, 2, 73, 80
1, 19440, Note_on_c, 3, 69, 80
1, 19440, Note_on_c, 4, 66, 80
1, 19440, Note_on_c, 9, 36, 60
1, 19440, Note_on_c, 8, 45, 90
1, 19450, Note_on_c, 9, 36, 0
1, 19500, Note_on_c, 0, 64, 0
1, 19500, Note_on_c, 1, 61, 0
1, 19520, Note_on_c, 2, 73, 0
1, 19520, Note_on_c, 3, 69, 0
1, 19520, Note_on_c, 4, 66, 0
1, 19560, Note_on_c, 0, 71, 110
1, 19560, Note_on_c, 1, 66, 110
1, 19560, Note_on_c, 2, 73, 80
1, 19560, Note_on_c, 3, 69, 80
1, 19560, Note_on_c, 4, 66, 80
1, 19630, Note_on_c, 2, 73, 0
1, 19630, Note_on_c, 3, 69, 0
1, 19630, Note_on_c, 4, 66, 0
1, 19640, Note_on_c, 8, 45, 0
1, 19680, Note_on_c, 2, 73, 80
1, 19680, Note_on_c, 3, 69, 80
1, 19680, Note_on_c, 4, 66, 80
1, 19680, Note_on_c, 9, 51, 50
1, 19680, Note_on_c, 9, 44, 80
1, 19680, Note_on_c, 8, 40, 80
1, 19690, Note_on_c, 9, 51, 0
1, 19690, Note_on_c, 9, 44, 0
1, 19760, Note_on_c, 2, 73, 0
1, 19760, Note_on_c, 3, 69, 0
1, 19760, Note_on_c, 4, 66, 0
1, 19800, Note_on_c, 2, 73, 80
1, 19800, Note_on_c, 3, 69, 80
1, 19800, Note_on_c, 4, 66, 80
1, 19860, Note_on_c, 0, 71, 0
1, 19860, Note_on_c, 1, 66, 0
1, 19860, Note_on_c, 2, 73, 0
1, 19860, Note_on_c, 3, 69, 0
1, 19860, Note_on_c, 4, 66, 0
1, 19880, Note_on_c, 8, 40, 0
1, 19920, Note_on_c, 0, 63, 100
1, 19920, Note_on_c, 1, 59, 100
1, 19920, Note_on_c, 2, 73, 80
1, 19920, Note_on_c, 3, 69, 80
1, 19920, Note_on_c, 4, 66, 80
1, 19920, Note_on_c, 9, 36, 70
1, 19920, Note_on_c, 8, 56, 100
1, 19930, Note_on_c, 9, 36, 0
1, 20000, Note_on_c, 2, 73, 0
1, 20000, Note_on_c, 3, 69, 0
1, 20000, Note_on_c, 4, 66, 0
1, 20020, Note_on_c, 0, 63, 0
1, 20020, Note_on_c, 1, 59, 0
1, 20040, Note_on_c, 0, 59, 90
1, 20040, Note_on_c, 1, 54, 90
1, 20040, Note_on_c, 2, 73, 80
1, 20040, Note_on_c, 3, 69, 80
1, 20040, Note_on_c, 4, 66, 80
1, 20100, Note_on_c, 2, 73, 0
1, 20100, Note_on_c, 3, 69, 0
1, 20100, Note_on_c, 4, 66, 0
1, 20100, Note_on_c, 11, 52, 0
1, 20100, Note_on_c, 11, 57, 0
1, 20100, Note_on_c, 11, 61, 0
1, 20100, Note_on_c, 11, 68, 0
1, 20100, Note_on_c, 11, 73, 0
1, 20120, Note_on_c, 8, 56, 0
1, 20140, Note_on_c, 0, 59, 0
1, 20140, Note_on_c, 1, 54, 0
1, 20160, Note_on_c, 0, 61, 100
1, 20160, Note_on_c, 1, 57, 100
1, 20160, Note_on_c, 2, 73, 80
1, 20160, Note_on_c, 3, 69, 80
1, 20160, Note_on_c, 4, 66, 80
1, 20160, Note_on_c, 9, 51, 50
1, 20160, Note_on_c, 9, 36, 70
1, 20160, Note_on_c, 8, 51, 70
1, 20160, Note_on_c, 11, 73, 100
1, 20160, Note_on_c, 11, 69, 100
1, 20160, Note_on_c, 11, 63, 100
1, 20170, Note_on_c, 9, 51, 0
1, 20170, Note_on_c, 9, 36, 0
1, 20280, Note_on_c, 2, 73, 0
1, 20280, Note_on_c, 3, 69, 0
1, 20280, Note_on_c, 4, 66, 0
1, 20360, Note_on_c, 11, 73, 0
1, 20360, Note_on_c, 11, 69, 0
1, 20360, Note_on_c, 11, 63, 0
1, 20400, Note_on_c, 2, 73, 80
1, 20400, Note_on_c, 3, 69, 80
1, 20400, Note_on_c, 4, 66, 80
1, 20400, Note_on_c, 9, 48, 90
1, 20410, Note_on_c, 9, 48, 0
1, 20480, Note_on_c, 2, 73, 0
1, 20480, Note_on_c, 3, 69, 0
1, 20480, Note_on_c, 4, 66, 0
1, 20480, Note_on_c, 11, 74, 90
1, 20480, Note_on_c, 11, 70, 90
1, 20480, Note_on_c, 11, 63, 90
1, 20520, Note_on_c, 2, 73, 80
1, 20520, Note_on_c, 3, 69, 80
1, 20520, Note_on_c, 4, 66, 80
1, 20590, Note_on_c, 2, 73, 0
1, 20590, Note_on_c, 3, 69, 0
1, 20590, Note_on_c, 4, 66, 0
1, 20640, Note_on_c, 2, 73, 80
1, 20640, Note_on_c, 3, 69, 80
1, 20640, Note_on_c, 4, 66, 80
1, 20640, Note_on_c, 9, 51, 50
1, 20640, Note_on_c, 9, 48, 90
1, 20640, Note_on_c, 9, 44, 90
1, 20650, Note_on_c, 9, 51, 0
1, 20650, Note_on_c, 9, 48, 0
1, 20650, Note_on_c, 9, 44, 0
1, 20680, Note_on_c, 11, 74, 0
1, 20680, Note_on_c, 11, 70, 0
1, 20680, Note_on_c, 11, 63, 0
1, 20760, Note_on_c, 2, 73, 0
1, 20760, Note_on_c, 3, 69, 0
1, 20760, Note_on_c, 4, 66, 0
1, 20760, Note_on_c, 8, 51, 0
1, 20800, Note_on_c, 11, 75, 95
1, 20800, Note_on_c, 11, 71, 95
1, 20800, Note_on_c, 11, 64, 95
1, 20880, Note_on_c, 2, 73, 80
1, 20880, Note_on_c, 3, 69, 80
1, 20880, Note_on_c, 4, 66, 80
1, 20880, Note_on_c, 8, 40, 90
1, 20940, Note_on_c, 12, 73, 0
1, 20940, Note_on_c, 12, 68, 0
1, 20940, Note_on_c, 12, 64, 0
1, 20940, Note_on_c, 12, 57, 0
1, 20960, Note_on_c, 2, 73, 0
1, 20960, Note_on_c, 3, 69, 0
1, 20960, Note_on_c, 4, 66, 0
1, 21000, Note_on_c, 2, 73, 80
1, 21000, Note_on_c, 3, 69, 80
1, 21000, Note_on_c, 4, 66, 80
1, 21000, Note_on_c, 11, 75, 0
1, 21000, Note_on_c, 11, 71, 0
1, 21000, Note_on_c, 11, 64, 0
1, 21060, Note_on_c, 0, 61, 0
1, 21060, Note_on_c, 1, 57, 0
1, 21080, Note_on_c, 2, 73, 0
1, 21080, Note_on_c, 3, 69, 0
1, 21080, Note_on_c, 4, 66, 0
1, 21080, Note_on_c, 8, 40, 0
1, 21120, Note_on_c, 0, 63, 100
1, 21120, Note_on_c, 1, 59, 100
1, 21120, Note_on_c, 2, 73, 80
1, 21120, Note_on_c, 3, 69, 80
1, 21120, Note_on_c, 4, 66, 80
1, 21120, Note_on_c, 9, 51, 60
1, 21120, Note_on_c, 9, 36, 80
1, 21120, Note_on_c, 8, 45, 110
1, 21120, Note_on_c, 11, 73, 90
1, 21120, Note_on_c, 11, 69, 90
1, 21120, Note_on_c, 11, 63, 90
1, 21120, Note_on_c, 12, 73, 80
1, 21120, Note_on_c, 12, 68, 80
1, 21120, Note_on_c, 12, 64, 80
1, 21120, Note_on_c, 12, 57, 80
1, 21130, Note_on_c, 9, 51, 0
1, 21130, Note_on_c, 9, 36, 0
1, 21200, Note_on_c, 2, 73, 0
1, 21200, Note_on_c, 3, 69, 0
1, 21200, Note_on_c, 4, 66, 0
1, 21240, Note_on_c, 2, 73, 80
1, 21240, Note_on_c, 3, 69, 80
1, 21240, Note_on_c, 4, 66, 80
1, 21300, Note_on_c, 2, 73, 0
1, 21300, Note_on_c, 3, 69, 0
1, 21300, Note_on_c, 4, 66, 0
1, 21320, Note_on_c, 11, 73, 0
1, 21320, Note_on_c, 11, 69, 0
1, 21320, Note_on_c, 11, 63, 0
1, 21360, Note_on_c, 2, 73, 80
1, 21360, Note_on_c, 3, 69, 80
1, 21360, Note_on_c, 4, 66, 80
1, 21420, Note_on_c, 0, 63, 0
1, 21420, Note_on_c, 1, 59, 0
1, 21440, Note_on_c, 2, 73, 0
1, 21440, Note_on_c, 3, 69, 0
1, 21440, Note_on_c, 4, 66, 0
1, 21480, Note_on_c, 0, 66, 100
1, 21480, Note_on_c, 1, 63, 100
1, 21480, Note_on_c, 2, 73, 80
1, 21480, Note_on_c, 3, 69, 80
1, 21480, Note_on_c, 4, 66, 80
1, 21520, Note_on_c, 8, 45, 0
1, 21540, Note_on_c, 2, 73, 0
1, 21540, Note_on_c, 3, 69, 0
1, 21540, Note_on_c, 4, 66, 0
1, 21600, Note_on_c, 2, 73, 80
1, 21600, Note_on_c, 3, 69, 80
1, 21600, Note_on_c, 4, 66, 80
1, 21600, Note_on_c, 9, 51, 60
1, 21600, Note_on_c, 9, 44, 80
1, 21600, Note_on_c, 9, 40, 40
1, 21600, Note_on_c, 9, 37, 70
1, 21610, Note_on_c, 9, 51, 0
1, 21610, Note_on_c, 9, 44, 0
1, 21610, Note_on_c, 9, 40, 0
1, 21610, Note_on_c, 9, 37, 0
1, 21720, Note_on_c, 2, 73, 0
1, 21720, Note_on_c, 3, 69, 0
1, 21720, Note_on_c, 4, 66, 0
1, 21720, Note_on_c, 12, 73, 0
1, 21720, Note_on_c, 12, 68, 0
1, 21720, Note_on_c, 12, 64, 0
1, 21720, Note_on_c, 12, 57, 0
1, 21780, Note_on_c, 0, 66, 0
1, 21780, Note_on_c, 1, 63, 0
1, 21840, Note_on_c, 0, 63, 100
1, 21840, Note_on_c, 1, 59, 100
1, 21840, Note_on_c, 2, 73, 80
1, 21840, Note_on_c, 3, 69, 80
1, 21840, Note_on_c, 4, 66, 80
1, 21840, Note_on_c, 9, 36, 60
1, 21840, Note_on_c, 8, 40, 90
1, 21840, Note_on_c, 11, 69, 80
1, 21840, Note_on_c, 11, 63, 80
1, 21850, Note_on_c, 9, 36, 0
1, 21920, Note_on_c, 2, 73, 0
1, 21920, Note_on_c, 3, 69, 0
1, 21920, Note_on_c, 4, 66, 0
1, 21940, Note_on_c, 0, 63, 0
1, 21940, Note_on_c, 1, 59, 0
1, 21960, Note_on_c, 0, 61, 90
1, 21960, Note_on_c, 1, 56, 90
1, 21960, Note_on_c, 2, 73, 80
1, 21960, Note_on_c, 3, 69, 80
1, 21960, Note_on_c, 4, 66, 80
1, 22030, Note_on_c, 2, 73, 0
1, 22030, Note_on_c, 3, 69, 0
1, 22030, Note_on_c, 4, 66, 0
1, 22040, Note_on_c, 8, 40, 0
1, 22060, Note_on_c, 0, 61, 0
1, 22060, Note_on_c, 1, 56, 0
1, 22060, Note_on_c, 11, 69, 0
1, 22070, Note_on_c, 11, 63, 0
1, 22080, Note_on_c, 0, 71, 110
1, 22080, Note_on_c, 1, 64, 100
1, 22080, Note_on_c, 2, 73, 80
1, 22080, Note_on_c, 3, 69, 80
1, 22080, Note_on_c, 4, 66, 80
1, 22080, Note_on_c, 9, 51, 50
1, 22080, Note_on_c, 9, 36, 80
1, 22080, Note_on_c, 8, 45, 110
1, 22080, Note_on_c, 12, 73, 70
1, 22080, Note_on_c, 12, 68, 70
1, 22080, Note_on_c, 12, 64, 70
1, 22080, Note_on_c, 12, 57, 70
1, 22090, Note_on_c, 9, 51, 0
1, 22090, Note_on_c, 9, 36, 0
1, 22200, Note_on_c, 2, 73, 0
1, 22200, Note_on_c, 3, 69, 0
1, 22200, Note_on_c, 4, 66, 0
1, 22320, Note_on_c, 2, 73, 80
1, 22320, Note_on_c, 3, 69, 80
1, 22320, Note_on_c, 4, 66, 80
1, 22400, Note_on_c, 2, 73, 0
1, 22400, Note_on_c, 3, 69, 0
1, 22400, Note_on_c, 4, 66, 0
1, 22440, Note_on_c, 2, 73, 80
1, 22440, Note_on_c, 3, 69, 80
1, 22440, Note_on_c, 4, 66, 80
1, 22480, Note_on_c, 8, 45, 0
1, 22510, Note_on_c, 2, 73, 0
1, 22510, Note_on_c, 4, 66, 0
1, 22510, Note_on_c, 12, 73, 0
1, 22510, Note_on_c, 12, 68, 0
1, 22510, Note_on_c, 12, 64, 0
1, 22510, Note_on_c, 12, 57, 0
1, 22520, Note_on_c, 3, 69, 0
1, 22560, Note_on_c, 2, 73, 80
1, 22560, Note_on_c, 3, 69, 80
1, 22560, Note_on_c, 4, 66, 80
1, 22560, Note_on_c, 9, 51, 50
1, 22560, Note_on_c, 9, 44, 80
1, 22560, Note_on_c, 9, 40, 40
1, 22560, Note_on_c, 9, 37, 70
1, 22570, Note_on_c, 9, 51, 0
1, 22570, Note_on_c, 9, 44, 0
1, 22570, Note_on_c, 9, 40, 0
1, 22570, Note_on_c, 9, 37, 0
1, 22640, Note_on_c, 2, 73, 0
1, 22640, Note_on_c, 3, 69, 0
1, 22640, Note_on_c, 4, 66, 0
1, 22680, Note_on_c, 2, 73, 80
1, 22680, Note_on_c, 3, 69, 80
1, 22680, Note_on_c, 4, 66, 80
1, 22740, Note_on_c, 2, 73, 0
1, 22740, Note_on_c, 3, 69, 0
1, 22740, Note_on_c, 4, 66, 0
1, 22800, Note_on_c, 2, 73, 80
1, 22800, Note_on_c, 3, 69, 80
1, 22800, Note_on_c, 4, 66, 80
1, 22800, Note_on_c, 9, 36, 60
1, 22800, Note_on_c, 8, 40, 90
1, 22800, Note_on_c, 11, 52, 80
1, 22800, Note_on_c, 12, 75, 80
1, 22800, Note_on_c, 12, 73, 80
1, 22800, Note_on_c, 12, 68, 80
1, 22800, Note_on_c, 12, 64, 80
1, 22800, Note_on_c, 12, 57, 80
1, 22810, Note_on_c, 9, 36, 0
1, 22810, Note_on_c, 11, 57, 80
1, 22820, Note_on_c, 11, 61, 80
1, 22830, Note_on_c, 11, 68, 80
1, 22840, Note_on_c, 11, 75, 80
1, 22880, Note_on_c, 2, 73, 0
1, 22880, Note_on_c, 3, 69, 0
1, 22880, Note_on_c, 4, 66, 0
1, 22920, Note_on_c, 2, 73, 80
1, 22920, Note_on_c, 3, 69, 80
1, 22920, Note_on_c, 4, 66, 80
1, 22980, Note_on_c, 2, 73, 0
1, 22980, Note_on_c, 3, 69, 0
1, 22980, Note_on_c, 4, 66, 0
1, 23000, Note_on_c, 8, 40, 0
1, 23040, Note_on_c, 2, 73, 80
1, 23040, Note_on_c, 3, 69, 80
1, 23040, Note_on_c, 4, 66, 80
1, 23040, Note_on_c, 9, 51, 60
1, 23040, Note_on_c, 9, 36, 70
1, 23040, Note_on_c, 8, 45, 100
1, 23050, Note_on_c, 9, 51, 0
1, 23050, Note_on_c, 9, 36, 0
1, 23050, Note_on_c, 12, 73, 0
1, 23160, Note_on_c, 2, 73, 0
1, 23160, Note_on_c, 3, 69, 0
1, 23160, Note_on_c, 4, 66, 0
1, 23260, Note_on_c, 8, 45, 0
1, 23280, Note_on_c, 2, 73, 80
1, 23280, Note_on_c, 3, 69, 80
1, 23280, Note_on_c, 4, 66, 80
1, 23280, Note_on_c, 9, 36, 60
1, 23280, Note_on_c, 8, 45, 90
1, 23290, Note_on_c, 9, 36, 0
1, 23360, Note_on_c, 2, 73, 0
1, 23360, Note_on_c, 3, 69, 0
1, 23360, Note_on_c, 4, 66, 0
1, 23400, Note_on_c, 2, 73, 80
1, 23400, Note_on_c, 3, 69, 80
1, 23400, Note_on_c, 4, 66, 80
1, 23470, Note_on_c, 2, 73, 0
1, 23470, Note_on_c, 3, 69, 0
1, 23470, Note_on_c, 4, 66, 0
1, 23480, Note_on_c, 8, 45, 0
1, 23520, Note_on_c, 2, 73, 80
1, 23520, Note_on_c, 3, 69, 80
1, 23520, Note_on_c, 4, 66, 80
1, 23520, Note_on_c, 9, 51, 60
1, 23520, Note_on_c, 9, 44, 80
1, 23520, Note_on_c, 8, 40, 80
1, 23530, Note_on_c, 9, 51, 0
1, 23530, Note_on_c, 9, 44, 0
1, 23640, Note_on_c, 2, 73, 0
1, 23640, Note_on_c, 3, 69, 0
1, 23640, Note_on_c, 4, 66, 0
1, 23720, Note_on_c, 8, 40, 0
1, 23760, Note_on_c, 2, 73, 80
1, 23760, Note_on_c, 3, 69, 80
1, 23760, Note_on_c, 4, 66, 80
1, 23760, Note_on_c, 9, 36, 60
1, 23760, Note_on_c, 8, 56, 100
1, 23770, Note_on_c, 9, 36, 0
1, 23840, Note_on_c, 2, 73, 0
1, 23840, Note_on_c, 3, 69, 0
1, 23840, Note_on_c, 4, 66, 0
1, 23880, Note_on_c, 2, 73, 80
1, 23880, Note_on_c, 3, 69, 80
1, 23880, Note_on_c, 4, 66, 80
1, 23950, Note_on_c, 2, 73, 0
1, 23950, Note_on_c, 3, 69, 0
1, 23950, Note_on_c, 4, 66, 0
1, 23960, Note_on_c, 8, 56, 0
1, 24000, Note_on_c, 2, 73, 80
1, 24000, Note_on_c, 3, 69, 80
1, 24000, Note_on_c, 4, 66, 80
1, 24000, Note_on_c, 9, 51, 60
1, 24000, Note_on_c, 9, 36, 70
1, 24000, Note_on_c, 8, 51, 70
1, 24010, Note_on_c, 9, 51, 0
1, 24010, Note_on_c, 9, 36, 0
1, 24080, Note_on_c, 2, 73, 0
1, 24080, Note_on_c, 3, 69, 0
1, 24080, Note_on_c, 4, 66, 0
1, 24120, Note_on_c, 2, 73, 80
1, 24120, Note_on_c, 3, 69, 80
1, 24120, Note_on_c, 4, 66, 80
1, 24180, Note_on_c, 2, 73, 0
1, 24180, Note_on_c, 3, 69, 0
1, 24180, Note_on_c, 4, 66, 0
1, 24240, Note_on_c, 2, 73, 80
1, 24240, Note_on_c, 3, 69, 80
1, 24240, Note_on_c, 4, 66, 80
1, 24240, Note_on_c, 9, 48, 100
1, 24240, Note_on_c, 12, 92, 110
1, 24250, Note_on_c, 9, 48, 0
1, 24320, Note_on_c, 2, 73, 0
1, 24320, Note_on_c, 3, 69, 0
1, 24320, Note_on_c, 4, 66, 0
1, 24360, Note_on_c, 2, 73, 80
1, 24360, Note_on_c, 3, 69, 80
1, 24360, Note_on_c, 4, 66, 80
1, 24420, Note_on_c, 2, 73, 0
1, 24420, Note_on_c, 3, 69, 0
1, 24420, Note_on_c, 4, 66, 0
1, 24460, Note_on_c, 12, 92, 0
1, 24480, Note_on_c, 2, 73, 80
1, 24480, Note_on_c, 3, 69, 80
1, 24480, Note_on_c, 4, 66, 80
1, 24480, Note_on_c, 9, 51, 60
1, 24480, Note_on_c, 9, 48, 90
1, 24480, Note_on_c, 9, 44, 90
1, 24480, Note_on_c, 12, 90, 105
1, 24490, Note_on_c, 9, 51, 0
1, 24490, Note_on_c, 9, 48, 0
1, 24490, Note_on_c, 9, 44, 0
1, 24600, Note_on_c, 2, 73, 0
1, 24600, Note_on_c, 3, 69, 0
1, 24600, Note_on_c, 4, 66, 0
1, 24600, Note_on_c, 8, 51, 0
1, 24700, Note_on_c, 12, 90, 0
1, 24720, Note_on_c, 2, 73, 80
1, 24720, Note_on_c, 3, 69, 80
1, 24720, Note_on_c, 4, 66, 80
1, 24720, Note_on_c, 9, 36, 50
1, 24720, Note_on_c, 8, 40, 100
1, 24720, Note_on_c, 12, 85, 100
1, 24730, Note_on_c, 9, 36, 0
1, 24780, Note_on_c, 0, 71, 0
1, 24780, Note_on_c, 1, 64, 0
1, 24780, Note_on_c, 11, 52, 0
1, 24780, Note_on_c, 11, 57, 0
1, 24780, Note_on_c, 11, 61, 0
1, 24780, Note_on_c, 11, 68, 0
1, 24780, Note_on_c, 11, 75, 0
1, 24780, Note_on_c, 12, 75, 0
1, 24780, Note_on_c, 12, 68, 0
1, 24780, Note_on_c, 12, 64, 0
1, 24780, Note_on_c, 12, 57, 0
1, 24800, Note_on_c, 2, 73, 0
1, 24800, Note_on_c, 3, 69, 0
1, 24800, Note_on_c, 4, 66, 0
1, 24840, Note_on_c, 0, 61, 60
1, 24840, Note_on_c, 1, 57, 50
1, 24840, Note_on_c, 2, 73, 80
1, 24840, Note_on_c, 3, 69, 80
1, 24840, Note_on_c, 4, 66, 80
1, 24910, Note_on_c, 2, 73, 0
1, 24910, Note_on_c, 4, 66, 0
1, 24920, Note_on_c, 3, 69, 0
1, 24920, Note_on_c, 8, 40, 0
1, 24920, Note_on_c, 12, 85, 0
1, 24940, Note_on_c, 0, 61, 0
1, 24940, Note_on_c, 1, 57, 0
1, 24960, Note_on_c, 0, 63, 110
1, 24960, Note_on_c, 1, 59, 110
1, 24960, Note_on_c, 2, 73, 80
1, 24960, Note_on_c, 3, 69, 80
1, 24960, Note_on_c, 4, 66, 80
1, 24960, Note_on_c, 9, 51, 60
1, 24960, Note_on_c, 9, 36, 100
1, 24960, Note_on_c, 8, 45, 110
1, 24960, Note_on_c, 11, 52, 90
1, 24960, Note_on_c, 12, 92, 110
1, 24960, Note_on_c, 12, 73, 80
1, 24960, Note_on_c, 12, 68, 80
1, 24960, Note_on_c, 12, 64, 80
1, 24960, Note_on_c, 12, 57, 80
1, 24970, Note_on_c, 9, 51, 0
1, 24970, Note_on_c, 9, 36, 0
1, 24970, Note_on_c, 11, 57, 100
1, 24980, Note_on_c, 11, 61, 90
1, 24990, Note_on_c, 11, 68, 80
1, 25000, Note_on_c, 11, 73, 80
1, 25080, Note_on_c, 2, 73, 0
1, 25080, Note_on_c, 3, 69, 0
1, 25080, Note_on_c, 4, 66, 0
1, 25110, Note_on_c, 12, 92, 0
1, 25120, Note_on_c, 12, 90, 90
1, 25200, Note_on_c, 2, 73, 80
1, 25200, Note_on_c, 3, 69, 80
1, 25200, Note_on_c, 4, 66, 80
1, 25260, Note_on_c, 0, 63, 0
1, 25260, Note_on_c, 1, 59, 0
1, 25270, Note_on_c, 12, 90, 0
1, 25280, Note_on_c, 2, 73, 0
1, 25280, Note_on_c, 3, 69, 0
1, 25280, Note_on_c, 4, 66, 0
1, 25280, Note_on_c, 12, 85, 80
1, 25320, Note_on_c, 0, 66, 110
1, 25320, Note_on_c, 1, 63, 110
1, 25320, Note_on_c, 2, 73, 80
1, 25320, Note_on_c, 3, 69, 80
1, 25320, Note_on_c, 4, 66, 80
1, 25360, Note_on_c, 8, 45, 0
1, 25390, Note_on_c, 2, 73, 0
1, 25390, Note_on_c, 3, 69, 0
1, 25390, Note_on_c, 4, 66, 0
1, 25430, Note_on_c, 12, 85, 0
1, 25440, Note_on_c, 2, 73, 80
1, 25440, Note_on_c, 3, 69, 80
1, 25440, Note_on_c, 4, 66, 80
1, 25440, Note_on_c, 9, 51, 60
1, 25440, Note_on_c, 9, 44, 80
1, 25440, Note_on_c, 9, 40, 50
1, 25440, Note_on_c, 9, 37, 60
1, 25440, Note_on_c, 12, 92, 110
1, 25450, Note_on_c, 9, 51, 0
1, 25450, Note_on_c, 9, 44, 0
1, 25450, Note_on_c, 9, 40, 0
1, 25450, Note_on_c, 9, 37, 0
1, 25520, Note_on_c, 2, 73, 0
1, 25520, Note_on_c, 3, 69, 0
1, 25520, Note_on_c, 4, 66, 0
1, 25560, Note_on_c, 2, 73, 80
1, 25560, Note_on_c, 3, 69, 80
1, 25560, Note_on_c, 4, 66, 80
1, 25590, Note_on_c, 12, 92, 0
1, 25600, Note_on_c, 12, 90, 90
1, 25620, Note_on_c, 1, 63, 0
1, 25620, Note_on_c, 2, 73, 0
1, 25620, Note_on_c, 3, 69, 0
1, 25620, Note_on_c, 4, 66, 0
1, 25680, Note_on_c, 0, 66, 0
1, 25680, Note_on_c, 0, 63, 100
1, 25680, Note_on_c, 1, 63, 100
1, 25680, Note_on_c, 2, 73, 80
1, 25680, Note_on_c, 3, 69, 80
1, 25680, Note_on_c, 4, 66, 80
1, 25680, Note_on_c, 9, 36, 50
1, 25680, Note_on_c, 8, 40, 90
1, 25690, Note_on_c, 9, 36, 0
1, 25750, Note_on_c, 12, 90, 0
1, 25760, Note_on_c, 2, 73, 0
1, 25760, Note_on_c, 3, 69, 0
1, 25760, Note_on_c, 4, 66, 0
1, 25760, Note_on_c, 12, 85, 80
1, 25780, Note_on_c, 0, 63, 0
1, 25780, Note_on_c, 1, 63, 0
1, 25800, Note_on_c, 0, 59, 90
1, 25800, Note_on_c, 1, 59, 90
1, 25800, Note_on_c, 2, 73, 80
1, 25800, Note_on_c, 3, 69, 80
1, 25800, Note_on_c, 4, 66, 80
1, 25860, Note_on_c, 2, 73, 0
1, 25860, Note_on_c, 3, 69, 0
1, 25860, Note_on_c, 4, 66, 0
1, 25880, Note_on_c, 8, 40, 0
1, 25900, Note_on_c, 0, 59, 0
1, 25900, Note_on_c, 1, 59, 0
1, 25910, Note_on_c, 12, 85, 0
1, 25920, Note_on_c, 0, 61, 100
1, 25920, Note_on_c, 1, 57, 100
1, 25920, Note_on_c, 2, 73, 80
1, 25920, Note_on_c, 3, 69, 80
1, 25920, Note_on_c, 4, 66, 80
1, 25920, Note_on_c, 9, 51, 50
1, 25920, Note_on_c, 9, 36, 80
1, 25920, Note_on_c, 8, 45, 110
1, 25920, Note_on_c, 12, 92, 100
1, 25930, Note_on_c, 9, 51, 0
1, 25930, Note_on_c, 9, 36, 0
1, 26040, Note_on_c, 2, 73, 0
1, 26040, Note_on_c, 3, 69, 0
1, 26040, Note_on_c, 4, 66, 0
1, 26070, Note_on_c, 12, 92, 0
1, 26080, Note_on_c, 12, 90, 90
1, 26160, Note_on_c, 2, 73, 80
1, 26160, Note_on_c, 3, 69, 80
1, 26160, Note_on_c, 4, 66, 80
1, 26230, Note_on_c, 12, 90, 0
1, 26240, Note_on_c, 2, 73, 0
1, 26240, Note_on_c, 3, 69, 0
1, 26240, Note_on_c, 4, 66, 0
1, 26240, Note_on_c, 12, 85, 80
1, 26280, Note_on_c, 2, 73, 80
1, 26280, Note_on_c, 3, 69, 80
1, 26280, Note_on_c, 4, 66, 80
1, 26320, Note_on_c, 8, 45, 0
1, 26350, Note_on_c, 2, 73, 0
1, 26350, Note_on_c, 3, 69, 0
1, 26350, Note_on_c, 4, 66, 0
1, 26390, Note_on_c, 12, 85, 0
1, 26400, Note_on_c, 2, 73, 80
1, 26400, Note_on_c, 3, 69, 80
1, 26400, Note_on_c, 4, 66, 80
1, 26400, Note_on_c, 9, 51, 50
1, 26400, Note_on_c, 9, 44, 80
1, 26400, Note_on_c, 9, 40, 40
1, 26400, Note_on_c, 9, 37, 70
1, 26400, Note_on_c, 12, 92, 90
1, 26410, Note_on_c, 9, 51, 0
1, 26410, Note_on_c, 9, 44, 0
1, 26410, Note_on_c, 9, 40, 0
1, 26410, Note_on_c, 9, 37, 0
1, 26520, Note_on_c, 2, 73, 0
1, 26520, Note_on_c, 3, 69, 0
1, 26520, Note_on_c, 4, 66, 0
1, 26550, Note_on_c, 12, 92, 0
1, 26560, Note_on_c, 12, 90, 90
1, 26640, Note_on_c, 2, 73, 80
1, 26640, Note_on_c, 3, 69, 80
1, 26640, Note_on_c, 4, 66, 80
1, 26640, Note_on_c, 9, 36, 50
1, 26640, Note_on_c, 8, 40, 90
1, 26650, Note_on_c, 9, 36, 0
1, 26710, Note_on_c, 12, 90, 0
1, 26720, Note_on_c, 2, 73, 0
1, 26720, Note_on_c, 3, 69, 0
1, 26720, Note_on_c, 4, 66, 0
1, 26720, Note_on_c, 12, 85, 80
1, 26760, Note_on_c, 2, 73, 80
1, 26760, Note_on_c, 3, 69, 80
1, 26760, Note_on_c, 4, 66, 80
1, 26820, Note_on_c, 0, 61, 0
1, 26820, Note_on_c, 1, 57, 0
1, 26830, Note_on_c, 2, 73, 0
1, 26830, Note_on_c, 4, 66, 0
1, 26840, Note_on_c, 3, 69, 0
1, 26840, Note_on_c, 8, 40, 0
1, 26870, Note_on_c, 12, 85, 0
1, 26880, Note_on_c, 0, 63, 100
1, 26880, Note_on_c, 1, 59, 100
1, 26880, Note_on_c, 2, 73, 80
1, 26880, Note_on_c, 3, 69, 80
1, 26880, Note_on_c, 4, 66, 80
1, 26880, Note_on_c, 9, 51, 60
1, 26880, Note_on_c, 9, 36, 70
1, 26880, Note_on_c, 8, 45, 100
1, 26880, Note_on_c, 12, 92, 90
1, 26890, Note_on_c, 9, 51, 0
1, 26890, Note_on_c, 9, 36, 0
1, 26960, Note_on_c, 2, 73, 0
1, 26960, Note_on_c, 3, 69, 0
1, 26960, Note_on_c, 4, 66, 0
1, 26980, Note_on_c, 0, 63, 0
1, 26980, Note_on_c, 1, 59, 0
1, 26980, Note_on_c, 12, 92, 0
1, 27000, Note_on_c, 0, 59, 90
1, 27000, Note_on_c, 1, 57, 90
1, 27000, Note_on_c, 2, 73, 80
1, 27000, Note_on_c, 3, 69, 80
1, 27000, Note_on_c, 4, 66, 80
1, 27000, Note_on_c, 12, 90, 80
1, 27060, Note_on_c, 2, 73, 0
1, 27060, Note_on_c, 3, 69, 0
1, 27060, Note_on_c, 4, 66, 0
1, 27100, Note_on_c, 0, 59, 0
1, 27100, Note_on_c, 1, 57, 0
1, 27100, Note_on_c, 8, 45, 0
1, 27100, Note_on_c, 12, 90, 0
1, 27120, Note_on_c, 0, 61, 100
1, 27120, Note_on_c, 1, 54, 100
1, 27120, Note_on_c, 2, 73, 80
1, 27120, Note_on_c, 3, 69, 80
1, 27120, Note_on_c, 4, 66, 80
1, 27120, Note_on_c, 9, 36, 50
1, 27120, Note_on_c, 8, 45, 90
1, 27120, Note_on_c, 12, 85, 80
1, 27130, Note_on_c, 9, 36, 0
1, 27200, Note_on_c, 2, 73, 0
1, 27200, Note_on_c, 3, 69, 0
1, 27200, Note_on_c, 4, 66, 0
1, 27220, Note_on_c, 12, 85, 0
1, 27240, Note_on_c, 2, 73, 80
1, 27240, Note_on_c, 3, 69, 80
1, 27240, Note_on_c, 4, 66, 80
1, 27240, Note_on_c, 12, 90, 80
1, 27300, Note_on_c, 2, 73, 0
1, 27300, Note_on_c, 3, 69, 0
1, 27300, Note_on_c, 4, 66, 0
1, 27320, Note_on_c, 8, 45, 0
1, 27340, Note_on_c, 12, 90, 0
1, 27360, Note_on_c, 2, 73, 80
1, 27360, Note_on_c, 3, 69, 80
1, 27360, Note_on_c, 4, 66, 80
1, 27360, Note_on_c, 9, 51, 60
1, 27360, Note_on_c, 9, 44, 80
1, 27360, Note_on_c, 8, 40, 80
1, 27360, Note_on_c, 12, 92, 90
1, 27370, Note_on_c, 9, 51, 0
1, 27370, Note_on_c, 9, 44, 0
1, 27460, Note_on_c, 12, 92, 0
1, 27480, Note_on_c, 2, 73, 0
1, 27480, Note_on_c, 3, 69, 0
1, 27480, Note_on_c, 4, 66, 0
1, 27480, Note_on_c, 12, 90, 80
1, 27560, Note_on_c, 8, 40, 0
1, 27580, Note_on_c, 12, 90, 0
1, 27600, Note_on_c, 2, 73, 80
1, 27600, Note_on_c, 3, 69, 80
1, 27600, Note_on_c, 4, 66, 80
1, 27600, Note_on_c, 9, 36, 50
1, 27600, Note_on_c, 8, 56, 100
1, 27600, Note_on_c, 12, 85, 80
1, 27610, Note_on_c, 9, 36, 0
1, 27680, Note_on_c, 2, 73, 0
1, 27680, Note_on_c, 3, 69, 0
1, 27680, Note_on_c, 4, 66, 0
1, 27700, Note_on_c, 12, 85, 0
1, 27720, Note_on_c, 2, 73, 80
1, 27720, Note_on_c, 3, 69, 80
1, 27720, Note_on_c, 4, 66, 80
1, 27720, Note_on_c, 12, 90, 80
1, 27780, Note_on_c, 11, 52, 0
1, 27780, Note_on_c, 11, 57, 0
1, 27780, Note_on_c, 11, 61, 0
1, 27780, Note_on_c, 11, 68, 0
1, 27780, Note_on_c, 11, 73, 0
1, 27790, Note_on_c, 3, 69, 0
1, 27800, Note_on_c, 2, 73, 0
1, 27800, Note_on_c, 4, 66, 0
1, 27800, Note_on_c, 8, 56, 0
1, 27820, Note_on_c, 12, 90, 0
1, 27840, Note_on_c, 2, 73, 80
1, 27840, Note_on_c, 3, 69, 80
1, 27840, Note_on_c, 4, 66, 80
1, 27840, Note_on_c, 9, 51, 50
1, 27840, Note_on_c, 9, 36, 70
1, 27840, Note_on_c, 8, 51, 70
1, 27840, Note_on_c, 11, 73, 90
1, 27840, Note_on_c, 11, 69, 90
1, 27840, Note_on_c, 11, 63, 90
1, 27840, Note_on_c, 12, 92, 90
1, 27850, Note_on_c, 9, 51, 0
1, 27850, Note_on_c, 9, 36, 0
1, 27940, Note_on_c, 12, 92, 0
1, 27960, Note_on_c, 2, 73, 0
1, 27960, Note_on_c, 3, 69, 0
1, 27960, Note_on_c, 4, 66, 0
1, 27960, Note_on_c, 12, 90, 80
1, 28040, Note_on_c, 11, 73, 0
1, 28040, Note_on_c, 11, 69, 0
1, 28040, Note_on_c, 11, 63, 0
1, 28060, Note_on_c, 12, 90, 0
1, 28080, Note_on_c, 2, 73, 80
1, 28080, Note_on_c, 3, 69, 80
1, 28080, Note_on_c, 4, 66, 80
1, 28080, Note_on_c, 9, 45, 70
1, 28080, Note_on_c, 12, 85, 80
1, 28090, Note_on_c, 9, 45, 0
1, 28160, Note_on_c, 2, 73, 0
1, 28160, Note_on_c, 3, 69, 0
1, 28160, Note_on_c, 4, 66, 0
1, 28160, Note_on_c, 11, 74, 80
1, 28160, Note_on_c, 11, 70, 80
1, 28160, Note_on_c, 11, 63, 80
1, 28180, Note_on_c, 12, 85, 0
1, 28200, Note_on_c, 2, 73, 80
1, 28200, Note_on_c, 3, 69, 80
1, 28200, Note_on_c, 4, 66, 80
1, 28200, Note_on_c, 12, 90, 80
1, 28280, Note_on_c, 2, 73, 0
1, 28280, Note_on_c, 3, 69, 0
1, 28280, Note_on_c, 4, 66, 0
1, 28300, Note_on_c, 12, 90, 0
1, 28320, Note_on_c, 2, 73, 80
1, 28320, Note_on_c, 3, 69, 80
1, 28320, Note_on_c, 4, 66, 80
1, 28320, Note_on_c, 9, 51, 50
1, 28320, Note_on_c, 9, 45, 70
1, 28320, Note_on_c, 9, 44, 90
1, 28320, Note_on_c, 12, 92, 90
1, 28330, Note_on_c, 9, 51, 0
1, 28330, Note_on_c, 9, 45, 0
1, 28330, Note_on_c, 9, 44, 0
1, 28360, Note_on_c, 11, 74, 0
1, 28360, Note_on_c, 11, 70, 0
1, 28360, Note_on_c, 11, 63, 0
1, 28400, Note_on_c, 2, 73, 0
1, 28400, Note_on_c, 3, 69, 0
1, 28400, Note_on_c, 4, 66, 0
1, 28420, Note_on_c, 12, 92, 0
1, 28440, Note_on_c, 2, 73, 80
1, 28440, Note_on_c, 3, 69, 80
1, 28440, Note_on_c, 4, 66, 80
1, 28440, Note_on_c, 8, 51, 0
1, 28440, Note_on_c, 12, 90, 80
1, 28480, Note_on_c, 11, 75, 85
1, 28480, Note_on_c, 11, 71, 85
1, 28480, Note_on_c, 11, 64, 85
1, 28500, Note_on_c, 2, 73, 0
1, 28500, Note_on_c, 3, 69, 0
1, 28500, Note_on_c, 4, 66, 0
1, 28540, Note_on_c, 12, 90, 0
1, 28560, Note_on_c, 2, 73, 80
1, 28560, Note_on_c, 3, 69, 80
1, 28560, Note_on_c, 4, 66, 80
1, 28560, Note_on_c, 9, 36, 50
1, 28560, Note_on_c, 8, 40, 100
1, 28560, Note_on_c, 12, 85, 80
1, 28570, Note_on_c, 9, 36, 0
1, 28620, Note_on_c, 12, 73, 0
1, 28620, Note_on_c, 12, 68, 0
1, 28620, Note_on_c, 12, 64, 0
1, 28620, Note_on_c, 12, 57, 0
1, 28640, Note_on_c, 2, 73, 0
1, 28640, Note_on_c, 3, 69, 0
1, 28640, Note_on_c, 4, 66, 0
1, 28660, Note_on_c, 12, 85, 0
1, 28680, Note_on_c, 2, 73, 80
1, 28680, Note_on_c, 3, 69, 80
1, 28680, Note_on_c, 4, 66, 80
1, 28680, Note_on_c, 11, 75, 0
1, 28680, Note_on_c, 11, 71, 0
1, 28680, Note_on_c, 11, 64, 0
1, 28680, Note_on_c, 12, 90, 75
1, 28740, Note_on_c, 2, 73, 0
1, 28740, Note_on_c, 3, 69, 0
1, 28740, Note_on_c, 4, 66, 0
1, 28760, Note_on_c, 8, 40, 0
1, 28780, Note_on_c, 12, 90, 0
1, 28800, Note_on_c, 2, 73, 80
1, 28800, Note_on_c, 3, 69, 80
1, 28800, Note_on_c, 4, 66, 80
1, 28800, Note_on_c, 9, 51, 60
1, 28800, Note_on_c, 9, 36, 90
1, 28800, Note_on_c, 8, 45, 110
1, 28800, Note_on_c, 11, 74, 90
1, 28800, Note_on_c, 11, 71, 90
1, 28800, Note_on_c, 11, 63, 90
1, 28800, Note_on_c, 12, 92, 80
1, 28800, Note_on_c, 12, 73, 80
1, 28800, Note_on_c, 12, 68, 80
1, 28800, Note_on_c, 12, 64, 80
1, 28800, Note_on_c, 12, 57, 80
1, 28810, Note_on_c, 9, 51, 0
1, 28810, Note_on_c, 9, 36, 0
1, 28900, Note_on_c, 12, 92, 0
1, 28920, Note_on_c, 2, 73, 0
1, 28920, Note_on_c, 3, 69, 0
1, 28920, Note_on_c, 4, 66, 0
1, 28920, Note_on_c, 12, 90, 79
1, 29000, Note_on_c, 11, 74, 0
1, 29000, Note_on_c, 11, 71, 0
1, 29000, Note_on_c, 11, 63, 0
1, 29020, Note_on_c, 12, 90, 0
1, 29040, Note_on_c, 2, 73, 80
1, 29040, Note_on_c, 3, 69, 80
1, 29040, Note_on_c, 4, 66, 80
1, 29040, Note_on_c, 12, 85, 78
1, 29120, Note_on_c, 2, 73, 0
1, 29120, Note_on_c, 3, 69, 0
1, 29120, Note_on_c, 4, 66, 0
1, 29120, Note_on_c, 11, 73, 80
1, 29120, Note_on_c, 11, 69, 80
1, 29120, Note_on_c, 11, 63, 80
1, 29140, Note_on_c, 12, 85, 0
1, 29160, Note_on_c, 2, 73, 80
1, 29160, Note_on_c, 3, 69, 80
1, 29160, Note_on_c, 4, 66, 80
1, 29160, Note_on_c, 12, 90, 77
1, 29200, Note_on_c, 8, 45, 0
1, 29230, Note_on_c, 2, 73, 0
1, 29230, Note_on_c, 3, 69, 0
1, 29230, Note_on_c, 4, 66, 0
1, 29260, Note_on_c, 12, 90, 0
1, 29280, Note_on_c, 2, 73, 80
1, 29280, Note_on_c, 3, 69, 80
1, 29280, Note_on_c, 4, 66, 80
1, 29280, Note_on_c, 9, 51, 60
1, 29280, Note_on_c, 9, 44, 80
1, 29280, Note_on_c, 9, 40, 50
1, 29280, Note_on_c, 9, 37, 60
1, 29280, Note_on_c, 12, 92, 76
1, 29290, Note_on_c, 9, 51, 0
1, 29290, Note_on_c, 9, 44, 0
1, 29290, Note_on_c, 9, 40, 0
1, 29290, Note_on_c, 9, 37, 0
1, 29320, Note_on_c, 11, 73, 0
1, 29320, Note_on_c, 11, 69, 0
1, 29320, Note_on_c, 11, 63, 0
1, 29380, Note_on_c, 12, 92, 0
1, 29400, Note_on_c, 2, 73, 0
1, 29400, Note_on_c, 3, 69, 0
1, 29400, Note_on_c, 4, 66, 0
1, 29400, Note_on_c, 12, 90, 75
1, 29440, Note_on_c, 11, 72, 70
1, 29440, Note_on_c, 11, 68, 70
1, 29440, Note_on_c, 11, 63, 70
1, 29500, Note_on_c, 12, 90, 0
1, 29520, Note_on_c, 2, 73, 80
1, 29520, Note_on_c, 3, 69, 80
1, 29520, Note_on_c, 4, 66, 80
1, 29520, Note_on_c, 9, 36, 50
1, 29520, Note_on_c, 8, 40, 90
1, 29520, Note_on_c, 12, 85, 74
1, 29530, Note_on_c, 9, 36, 0
1, 29600, Note_on_c, 2, 73, 0
1, 29600, Note_on_c, 3, 69, 0
1, 29600, Note_on_c, 4, 66, 0
1, 29620, Note_on_c, 12, 85, 0
1, 29640, Note_on_c, 2, 73, 80
1, 29640, Note_on_c, 3, 69, 80
1, 29640, Note_on_c, 4, 66, 80
1, 29640, Note_on_c, 11, 72, 0
1, 29640, Note_on_c, 11, 68, 0
1, 29640, Note_on_c, 11, 63, 0
1, 29640, Note_on_c, 12, 90, 73
1, 29710, Note_on_c, 3, 69, 0
1, 29720, Note_on_c, 2, 73, 0
1, 29720, Note_on_c, 4, 66, 0
1, 29720, Note_on_c, 8, 40, 0
1, 29740, Note_on_c, 12, 90, 0
1, 29760, Note_on_c, 2, 73, 80
1, 29760, Note_on_c, 3, 69, 80
1, 29760, Note_on_c, 4, 66, 80
1, 29760, Note_on_c, 9, 51, 60
1, 29760, Note_on_c, 9, 36, 70
1, 29760, Note_on_c, 8, 45, 110
1, 29760, Note_on_c, 11, 73, 80
1, 29760, Note_on_c, 11, 69, 80
1, 29760, Note_on_c, 11, 64, 80
1, 29760, Note_on_c, 12, 92, 72
1, 29770, Note_on_c, 9, 51, 0
1, 29770, Note_on_c, 9, 36, 0
1, 29840, Note_on_c, 2, 73, 0
1, 29840, Note_on_c, 3, 69, 0
1, 29840, Note_on_c, 4, 66, 0
1, 29860, Note_on_c, 12, 92, 0
1, 29880, Note_on_c, 2, 73, 80
1, 29880, Note_on_c, 3, 69, 80
1, 29880, Note_on_c, 4, 66, 80
1, 29880, Note_on_c, 12, 90, 71
1, 29940, Note_on_c, 2, 73, 0
1, 29940, Note_on_c, 3, 69, 0
1, 29940, Note_on_c, 4, 66, 0
1, 29980, Note_on_c, 12, 90, 0
1, 30000, Note_on_c, 2, 73, 80
1, 30000, Note_on_c, 3, 69, 80
1, 30000, Note_on_c, 4, 66, 80
1, 30000, Note_on_c, 12, 85, 69
1, 30080, Note_on_c, 2, 73, 0
1, 30080, Note_on_c, 3, 69, 0
1, 30080, Note_on_c, 4, 66, 0
1, 30100, Note_on_c, 12, 85, 0
1, 30120, Note_on_c, 2, 73, 80
1, 30120, Note_on_c, 3, 69, 80
1, 30120, Note_on_c, 4, 66, 80
1, 30120, Note_on_c, 12, 90, 68
1, 30160, Note_on_c, 8, 45, 0
1, 30180, Note_on_c, 2, 73, 0
1, 30180, Note_on_c, 3, 69, 0
1, 30180, Note_on_c, 4, 66, 0
1, 30220, Note_on_c, 12, 90, 0
1, 30240, Note_on_c, 2, 73, 80
1, 30240, Note_on_c, 3, 69, 80
1, 30240, Note_on_c, 4, 66, 80
1, 30240, Note_on_c, 9, 51, 60
1, 30240, Note_on_c, 9, 44, 80
1, 30240, Note_on_c, 12, 92, 67
1, 30250, Note_on_c, 9, 51, 0
1, 30250, Note_on_c, 9, 44, 0
1, 30340, Note_on_c, 12, 92, 0
1, 30360, Note_on_c, 2, 73, 0
1, 30360, Note_on_c, 3, 69, 0
1, 30360, Note_on_c, 4, 66, 0
1, 30360, Note_on_c, 12, 90, 66
1, 30460, Note_on_c, 12, 90, 0
1, 30480, Note_on_c, 2, 73, 80
1, 30480, Note_on_c, 3, 69, 80
1, 30480, Note_on_c, 4, 66, 80
1, 30480, Note_on_c, 9, 36, 50
1, 30480, Note_on_c, 8, 40, 90
1, 30480, Note_on_c, 11, 73, 0
1, 30480, Note_on_c, 11, 64, 0
1, 30480, Note_on_c, 11, 64, 80
1, 30480, Note_on_c, 12, 85, 65
1, 30490, Note_on_c, 9, 36, 0
1, 30500, Note_on_c, 11, 73, 80
1, 30540, Note_on_c, 0, 61, 0
1, 30540, Note_on_c, 1, 54, 0
1, 30560, Note_on_c, 2, 73, 0
1, 30560, Note_on_c, 3, 69, 0
1, 30560, Note_on_c, 4, 66, 0
1, 30580, Note_on_c, 12, 85, 0
1, 30600, Note_on_c, 2, 73, 80
1, 30600, Note_on_c, 3, 69, 80
1, 30600, Note_on_c, 4, 66, 80
1, 30600, Note_on_c, 12, 90, 65
1, 30670, Note_on_c, 2, 73, 0
1, 30670, Note_on_c, 4, 66, 0
1, 30680, Note_on_c, 3, 69, 0
1, 30680, Note_on_c, 8, 40, 0
1, 30700, Note_on_c, 12, 90, 0
1, 30720, Note_on_c, 2, 73, 80
1, 30720, Note_on_c, 3, 69, 80
1, 30720, Note_on_c, 4, 66, 80
1, 30720, Note_on_c, 9, 51, 70
1, 30720, Note_on_c, 9, 36, 70
1, 30720, Note_on_c, 8, 45, 100
1, 30720, Note_on_c, 12, 92, 65
1, 30730, Note_on_c, 9, 51, 0
1, 30730, Note_on_c, 9, 36, 0
1, 30730, Note_on_c, 11, 69, 0
1, 30820, Note_on_c, 12, 92, 0
1, 30840, Note_on_c, 2, 73, 0
1, 30840, Note_on_c, 3, 69, 0
1, 30840, Note_on_c, 4, 66, 0
1, 30840, Note_on_c, 12, 90, 65
1, 30940, Note_on_c, 8, 45, 0
1, 30940, Note_on_c, 12, 90, 0
1, 30960, Note_on_c, 2, 73, 80
1, 30960, Note_on_c, 3, 69, 80
1, 30960, Note_on_c, 4, 66, 80
1, 30960, Note_on_c, 9, 36, 60
1, 30960, Note_on_c, 8, 45, 90
1, 30960, Note_on_c, 12, 85, 65
1, 30970, Note_on_c, 9, 36, 0
1, 31040, Note_on_c, 2, 73, 0
1, 31040, Note_on_c, 3, 69, 0
1, 31040, Note_on_c, 4, 66, 0
1, 31060, Note_on_c, 12, 85, 0
1, 31080, Note_on_c, 2, 73, 80
1, 31080, Note_on_c, 3, 69, 80
1, 31080, Note_on_c, 4, 66, 80
1, 31080, Note_on_c, 12, 90, 65
1, 31150, Note_on_c, 3, 69, 0
1, 31150, Note_on_c, 11, 64, 0
1, 31150, Note_on_c, 11, 73, 0
1, 31160, Note_on_c, 2, 73, 0
1, 31160, Note_on_c, 4, 66, 0
1, 31160, Note_on_c, 8, 45, 0
1, 31180, Note_on_c, 12, 90, 0
1, 31200, Note_on_c, 2, 73, 80
1, 31200, Note_on_c, 3, 69, 80
1, 31200, Note_on_c, 4, 66, 80
1, 31200, Note_on_c, 9, 51, 70
1, 31200, Note_on_c, 9, 44, 80
1, 31200, Note_on_c, 8, 40, 80
1, 31200, Note_on_c, 11, 52, 70
1, 31200, Note_on_c, 12, 92, 65
1, 31210, Note_on_c, 9, 51, 0
1, 31210, Note_on_c, 9, 44, 0
1, 31210, Note_on_c, 11, 57, 70
1, 31220, Note_on_c, 11, 61, 70
1, 31230, Note_on_c, 11, 68, 70
1, 31240, Note_on_c, 11, 73, 70
1, 31280, Note_on_c, 2, 73, 0
1, 31280, Note_on_c, 3, 69, 0
1, 31280, Note_on_c, 4, 66, 0
1, 31300, Note_on_c, 12, 92, 0
1, 31320, Note_on_c, 2, 73, 80
1, 31320, Note_on_c, 3, 69, 80
1, 31320, Note_on_c, 4, 66, 80
1, 31320, Note_on_c, 12, 90, 65
1, 31380, Note_on_c, 2, 73, 0
1, 31380, Note_on_c, 3, 69, 0
1, 31380, Note_on_c, 4, 66, 0
1, 31400, Note_on_c, 8, 40, 0
1, 31420, Note_on_c, 12, 90, 0
1, 31440, Note_on_c, 2, 73, 80
1, 31440, Note_on_c, 3, 69, 80
1, 31440, Note_on_c, 4, 66, 80
1, 31440, Note_on_c, 9, 36, 70
1, 31440, Note_on_c, 8, 56, 100
1, 31440, Note_on_c, 12, 85, 65
1, 31450, Note_on_c, 9, 36, 0
1, 31520, Note_on_c, 2, 73, 0
1, 31520, Note_on_c, 3, 69, 0
1, 31520, Note_on_c, 4, 66, 0
1, 31540, Note_on_c, 12, 85, 0
1, 31560, Note_on_c, 2, 73, 80
1, 31560, Note_on_c, 3, 69, 80
1, 31560, Note_on_c, 4, 66, 80
1, 31560, Note_on_c, 12, 90, 66
1, 31620, Note_on_c, 2, 73, 0
1, 31620, Note_on_c, 3, 69, 0
1, 31620, Note_on_c, 4, 66, 0
1, 31640, Note_on_c, 8, 56, 0
1, 31660, Note_on_c, 12, 90, 0
1, 31680, Note_on_c, 2, 73, 80
1, 31680, Note_on_c, 3, 69, 80
1, 31680, Note_on_c, 4, 66, 80
1, 31680, Note_on_c, 9, 51, 80
1, 31680, Note_on_c, 9, 36, 80
1, 31680, Note_on_c, 8, 51, 80
1, 31680, Note_on_c, 12, 92, 67
1, 31690, Note_on_c, 9, 51, 0
1, 31690, Note_on_c, 9, 36, 0
1, 31780, Note_on_c, 12, 92, 0
1, 31800, Note_on_c, 2, 73, 0
1, 31800, Note_on_c, 3, 69, 0
1, 31800, Note_on_c, 4, 66, 0
1, 31800, Note_on_c, 12, 90, 68
1, 31900, Note_on_c, 12, 90, 0
1, 31920, Note_on_c, 2, 73, 80
1, 31920, Note_on_c, 3, 69, 80
1, 31920, Note_on_c, 4, 66, 80
1, 31920, Note_on_c, 9, 45, 100
1, 31920, Note_on_c, 12, 85, 69
1, 31930, Note_on_c, 9, 45, 0
1, 32000, Note_on_c, 2, 73, 0
1, 32000, Note_on_c, 3, 69, 0
1, 32000, Note_on_c, 4, 66, 0
1, 32020, Note_on_c, 12, 85, 0
1, 32040, Note_on_c, 2, 73, 80
1, 32040, Note_on_c, 3, 69, 80
1, 32040, Note_on_c, 4, 66, 80
1, 32040, Note_on_c, 9, 45, 70
1, 32040, Note_on_c, 12, 90, 70
1, 32050, Note_on_c, 9, 45, 0
1, 32110, Note_on_c, 3, 69, 0
1, 32120, Note_on_c, 2, 73, 0
1, 32120, Note_on_c, 4, 66, 0
1, 32140, Note_on_c, 12, 90, 0
1, 32160, Note_on_c, 2, 73, 80
1, 32160, Note_on_c, 3, 69, 80
1, 32160, Note_on_c, 4, 66, 80
1, 32160, Note_on_c, 9, 45, 90
1, 32160, Note_on_c, 9, 44, 90
1, 32160, Note_on_c, 12, 92, 72
1, 32170, Note_on_c, 9, 45, 0
1, 32170, Note_on_c, 9, 44, 0
1, 32260, Note_on_c, 12, 92, 0
1, 32280, Note_on_c, 2, 73, 0
1, 32280, Note_on_c, 3, 69, 0
1, 32280, Note_on_c, 4, 66, 0
1, 32280, Note_on_c, 9, 45, 60
1, 32280, Note_on_c, 8, 51, 0
1, 32280, Note_on_c, 12, 90, 74
1, 32290, Note_on_c, 9, 45, 0
1, 32380, Note_on_c, 12, 90, 0
1, 32400, Note_on_c, 4, 39, 100
1, 32400, Note_on_c, 9, 45, 80
1, 32400, Note_on_c, 8, 39, 100
1, 32400, Note_on_c, 11, 52, 0
1, 32400, Note_on_c, 12, 85, 76
1, 32410, Note_on_c, 9, 45, 0
1, 32410, Note_on_c, 11, 57, 0
1, 32420, Note_on_c, 11, 61, 0
1, 32430, Note_on_c, 11, 68, 0
1, 32440, Note_on_c, 11, 73, 0
1, 32460, Note_on_c, 12, 73, 0
1, 32460, Note_on_c, 12, 68, 0
1, 32460, Note_on_c, 12, 64, 0
1, 32460, Note_on_c, 12, 57, 0
1, 32500, Note_on_c, 4, 39, 0
1, 32500, Note_on_c, 12, 85, 0
1, 32520, Note_on_c, 9, 45, 60
1, 32520, Note_on_c, 12, 90, 78
1, 32530, Note_on_c, 9, 45, 0
1, 32600, Note_on_c, 8, 39, 0
1, 32620, Note_on_c, 12, 90, 0
1, 32640, Note_on_c, 0, 73, 110
1, 32640, Note_on_c, 1, 73, 110
1, 32640, Note_on_c, 4, 45, 100
1, 32640, Note_on_c, 9, 49, 100
1, 32640, Note_on_c, 9, 36, 100
1, 32640, Note_on_c, 8, 45, 110
1, 32640, Note_on_c, 11, 52, 90
1, 32640, Note_on_c, 12, 69, 90
1, 32640, Note_on_c, 12, 63, 90
1, 32640, Note_on_c, 12, 61, 90
1, 32640, Note_on_c, 12, 57, 90
1, 32650, Note_on_c, 9, 49, 0
1, 32650, Note_on_c, 9, 36, 0
1, 32650, Note_on_c, 11, 57, 100
1, 32660, Note_on_c, 11, 63, 105
1, 32670, Note_on_c, 11, 66, 90
1, 32680, Note_on_c, 11, 73, 100
1, 32790, Note_on_c, 4, 45, 0
1, 33040, Note_on_c, 8, 45, 0
1, 33120, Note_on_c, 9, 51, 50
1, 33120, Note_on_c, 9, 44, 80
1, 33120, Note_on_c, 9, 40, 60
1, 33120, Note_on_c, 9, 37, 60
1, 33130, Note_on_c, 9, 51, 0
1, 33130, Note_on_c, 9, 44, 0
1, 33130, Note_on_c, 9, 40, 0
1, 33130, Note_on_c, 9, 37, 0
1, 33360, Note_on_c, 0, 68, 90
1, 33360, Note_on_c, 1, 68, 90
1, 33360, Note_on_c, 4, 39, 70
1, 33360, Note_on_c, 9, 36, 50
1, 33360, Note_on_c, 8, 39, 90
1, 33370, Note_on_c, 0, 73, 0
1, 33370, Note_on_c, 1, 73, 0
1, 33370, Note_on_c, 9, 36, 0
1, 33440, Note_on_c, 4, 39, 0
1, 33480, Note_on_c, 0, 66, 90
1, 33480, Note_on_c, 1, 66, 90
1, 33490, Note_on_c, 0, 68, 0
1, 33490, Note_on_c, 1, 68, 0
1, 33560, Note_on_c, 8, 39, 0
1, 33580, Note_on_c, 0, 66, 0
1, 33580, Note_on_c, 1, 66, 0
1, 33600, Note_on_c, 0, 75, 100
1, 33600, Note_on_c, 1, 75, 100
1, 33600, Note_on_c, 4, 45, 90
1, 33600, Note_on_c, 9, 51, 50
1, 33600, Note_on_c, 9, 36, 80
1, 33600, Note_on_c, 8, 45, 110
1, 33600, Note_on_c, 11, 73, 0
1, 33600, Note_on_c, 11, 73, 80
1, 33610, Note_on_c, 9, 51, 0
1, 33610, Note_on_c, 9, 36, 0
1, 33750, Note_on_c, 4, 45, 0
1, 34000, Note_on_c, 8, 45, 0
1, 34040, Note_on_c, 12, 69, 0
1, 34040, Note_on_c, 12, 63, 0
1, 34080, Note_on_c, 9, 51, 50
1, 34080, Note_on_c, 9, 44, 80
1, 34080, Note_on_c, 9, 40, 50
1, 34080, Note_on_c, 9, 37, 70
1, 34080, Note_on_c, 12, 63, 80
1, 34090, Note_on_c, 9, 51, 0
1, 34090, Note_on_c, 9, 44, 0
1, 34090, Note_on_c, 9, 40, 0
1, 34090, Note_on_c, 9, 37, 0
1, 34200, Note_on_c, 12, 66, 70
1, 34280, Note_on_c, 12, 63, 0
1, 34320, Note_on_c, 4, 39, 70
1, 34320, Note_on_c, 9, 36, 50
1, 34320, Note_on_c, 8, 39, 90
1, 34320, Note_on_c, 12, 69, 80
1, 34330, Note_on_c, 9, 36, 0
1, 34400, Note_on_c, 4, 39, 0
1, 34400, Note_on_c, 12, 66, 0
1, 34440, Note_on_c, 12, 73, 70
1, 34520, Note_on_c, 8, 39, 0
1, 34520, Note_on_c, 12, 69, 0
1, 34560, Note_on_c, 4, 45, 80
1, 34560, Note_on_c, 9, 51, 60
1, 34560, Note_on_c, 9, 36, 70
1, 34560, Note_on_c, 8, 45, 100
1, 34560, Note_on_c, 12, 75, 90
1, 34570, Note_on_c, 9, 51, 0
1, 34570, Note_on_c, 9, 36, 0
1, 34570, Note_on_c, 11, 52, 0
1, 34570, Note_on_c, 12, 61, 0
1, 34570, Note_on_c, 12, 57, 0
1, 34580, Note_on_c, 11, 57, 0
1, 34590, Note_on_c, 11, 63, 0
1, 34600, Note_on_c, 11, 66, 0
1, 34640, Note_on_c, 4, 45, 0
1, 34640, Note_on_c, 12, 73, 0
1, 34680, Note_on_c, 12, 78, 80
1, 34760, Note_on_c, 12, 75, 0
1, 34780, Note_on_c, 8, 45, 0
1, 34800, Note_on_c, 4, 45, 60
1, 34800, Note_on_c, 9, 36, 60
1, 34800, Note_on_c, 8, 45, 80
1, 34800, Note_on_c, 12, 75, 80
1, 34810, Note_on_c, 9, 36, 0
1, 34880, Note_on_c, 4, 45, 0
1, 34880, Note_on_c, 12, 78, 0
1, 34920, Note_on_c, 12, 73, 70
1, 34960, Note_on_c, 11, 73, 0
1, 35000, Note_on_c, 8, 45, 0
1, 35000, Note_on_c, 12, 75, 0
1, 35040, Note_on_c, 4, 39, 70
1, 35040, Note_on_c, 9, 51, 50
1, 35040, Note_on_c, 9, 44, 80
1, 35040, Note_on_c, 8, 39, 90
1, 35040, Note_on_c, 11, 57, 90
1, 35040, Note_on_c, 11, 52, 90
1, 35040, Note_on_c, 12, 69, 70
1, 35050, Note_on_c, 9, 51, 0
1, 35050, Note_on_c, 9, 44, 0
1, 35050, Note_on_c, 11, 68, 90
1, 35050, Note_on_c, 11, 61, 90
1, 35060, Note_on_c, 11, 75, 90
1, 35120, Note_on_c, 4, 39, 0
1, 35120, Note_on_c, 12, 73, 0
1, 35160, Note_on_c, 12, 66, 60
1, 35240, Note_on_c, 8, 39, 0
1, 35240, Note_on_c, 12, 69, 0
1, 35280, Note_on_c, 4, 45, 60
1, 35280, Note_on_c, 9, 36, 50
1, 35280, Note_on_c, 8, 45, 80
1, 35280, Note_on_c, 12, 63, 60
1, 35290, Note_on_c, 9, 36, 0
1, 35360, Note_on_c, 4, 45, 0
1, 35360, Note_on_c, 12, 66, 0
1, 35400, Note_on_c, 12, 73, 60
1, 35450, Note_on_c, 11, 68, 0
1, 35450, Note_on_c, 11, 61, 0
1, 35460, Note_on_c, 11, 75, 0
1, 35480, Note_on_c, 8, 45, 0
1, 35480, Note_on_c, 12, 63, 0
1, 35520, Note_on_c, 4, 56, 60
1, 35520, Note_on_c, 9, 51, 50
1, 35520, Note_on_c, 9, 36, 70
1, 35520, Note_on_c, 8, 56, 90
1, 35520, Note_on_c, 12, 75, 90
1, 35530, Note_on_c, 9, 51, 0
1, 35530, Note_on_c, 9, 36, 0
1, 35530, Note_on_c, 11, 68, 80
1, 35530, Note_on_c, 11, 61, 80
1, 35540, Note_on_c, 11, 75, 80
1, 35600, Note_on_c, 12, 73, 0
1, 35640, Note_on_c, 12, 81, 80
1, 35720, Note_on_c, 12, 75, 0
1, 35740, Note_on_c, 4, 56, 0
1, 35760, Note_on_c, 12, 85, 80
1, 35840, Note_on_c, 12, 81, 0
1, 35880, Note_on_c, 12, 87, 90
1, 35960, Note_on_c, 12, 85, 0
1, 36000, Note_on_c, 9, 51, 50
1, 36000, Note_on_c, 9, 48, 90
1, 36000, Note_on_c, 9, 44, 90
1, 36010, Note_on_c, 9, 51, 0
1, 36010, Note_on_c, 9, 48, 0
1, 36010, Note_on_c, 9, 44, 0
1, 36120, Note_on_c, 8, 56, 0
1, 36180, Note_on_c, 12, 87, 0
1, 36240, Note_on_c, 4, 39, 80
1, 36240, Note_on_c, 9, 48, 80
1, 36240, Note_on_c, 8, 39, 100
1, 36250, Note_on_c, 9, 48, 0
1, 36300, Note_on_c, 0, 75, 0
1, 36300, Note_on_c, 1, 75, 0
1, 36320, Note_on_c, 4, 39, 0
1, 36420, Note_on_c, 11, 57, 0
1, 36420, Note_on_c, 11, 52, 0
1, 36430, Note_on_c, 11, 68, 0
1, 36430, Note_on_c, 11, 61, 0
1, 36440, Note_on_c, 8, 39, 0
1, 36440, Note_on_c, 11, 75, 0
1, 36480, Note_on_c, 0, 68, 110
1, 36480, Note_on_c, 1, 68, 110
1, 36480, Note_on_c, 4, 45, 90
1, 36480, Note_on_c, 9, 51, 60
1, 36480, Note_on_c, 9, 36, 80
1, 36480, Note_on_c, 8, 45, 110
1, 36480, Note_on_c, 11, 52, 80
1, 36480, Note_on_c, 12, 69, 90
1, 36480, Note_on_c, 12, 63, 90
1, 36480, Note_on_c, 12, 61, 90
1, 36480, Note_on_c, 12, 57, 90
1, 36490, Note_on_c, 9, 51, 0
1, 36490, Note_on_c, 9, 36, 0
1, 36490, Note_on_c, 11, 57, 80
1, 36500, Note_on_c, 11, 63, 80
1, 36510, Note_on_c, 11, 66, 80
1, 36520, Note_on_c, 11, 73, 80
1, 36630, Note_on_c, 4, 45, 0
1, 36880, Note_on_c, 8, 45, 0
1, 36930, Note_on_c, 0, 68, 0
1, 36930, Note_on_c, 1, 68, 0
1, 36960, Note_on_c, 0, 73, 90
1, 36960, Note_on_c, 1, 73, 90
1, 36960, Note_on_c, 9, 51, 60
1, 36960, Note_on_c, 9, 44, 80
1, 36960, Note_on_c, 9, 40, 50
1, 36960, Note_on_c, 9, 37, 70
1, 36970, Note_on_c, 9, 51, 0
1, 36970, Note_on_c, 9, 44, 0
1, 36970, Note_on_c, 9, 40, 0
1, 36970, Note_on_c, 9, 37, 0
1, 37120, Note_on_c, 0, 71, 90
1, 37120, Note_on_c, 1, 71, 90
1, 37130, Note_on_c, 0, 73, 0
1, 37130, Note_on_c, 1, 73, 0
1, 37200, Note_on_c, 4, 39, 70
1, 37200, Note_on_c, 9, 36, 50
1, 37200, Note_on_c, 8, 39, 90
1, 37210, Note_on_c, 9, 36, 0
1, 37280, Note_on_c, 0, 68, 90
1, 37280, Note_on_c, 1, 68, 90
1, 37280, Note_on_c, 4, 39, 0
1, 37290, Note_on_c, 0, 71, 0
1, 37290, Note_on_c, 1, 71, 0
1, 37380, Note_on_c, 12, 69, 0
1, 37380, Note_on_c, 12, 63, 0
1, 37400, Note_on_c, 8, 39, 0
1, 37400, Note_on_c, 11, 63, 0
1, 37410, Note_on_c, 11, 66, 0
1, 37420, Note_on_c, 0, 68, 0
1, 37420, Note_on_c, 1, 68, 0
1, 37420, Note_on_c, 11, 73, 0
1, 37440, Note_on_c, 0, 66, 100
1, 37440, Note_on_c, 1, 66, 100
1, 37440, Note_on_c, 4, 45, 80
1, 37440, Note_on_c, 9, 51, 50
1, 37440, Note_on_c, 9, 36, 80
1, 37440, Note_on_c, 8, 45, 110
1, 37440, Note_on_c, 12, 63, 80
1, 37450, Note_on_c, 9, 51, 0
1, 37450, Note_on_c, 9, 36, 0
1, 37450, Note_on_c, 11, 66, 70
1, 37450, Note_on_c, 11, 63, 70
1, 37460, Note_on_c, 11, 73, 70
1, 37560, Note_on_c, 12, 66, 70
1, 37590, Note_on_c, 4, 45, 0
1, 37640, Note_on_c, 12, 63, 0
1, 37680, Note_on_c, 12, 69, 80
1, 37760, Note_on_c, 12, 66, 0
1, 37800, Note_on_c, 12, 73, 70
1, 37840, Note_on_c, 8, 45, 0
1, 37880, Note_on_c, 12, 69, 0
1, 37920, Note_on_c, 9, 51, 50
1, 37920, Note_on_c, 9, 44, 80
1, 37920, Note_on_c, 9, 40, 50
1, 37920, Note_on_c, 9, 37, 70
1, 37920, Note_on_c, 12, 69, 80
1, 37930, Note_on_c, 9, 51, 0
1, 37930, Note_on_c, 9, 44, 0
1, 37930, Note_on_c, 9, 40, 0
1, 37930, Note_on_c, 9, 37, 0
1, 38000, Note_on_c, 12, 73, 0
1, 38040, Note_on_c, 12, 66, 70
1, 38150, Note_on_c, 11, 63, 0
1, 38160, Note_on_c, 4, 39, 70
1, 38160, Note_on_c, 9, 36, 50
1, 38160, Note_on_c, 8, 39, 90
1, 38160, Note_on_c, 11, 63, 70
1, 38160, Note_on_c, 12, 63, 80
1, 38170, Note_on_c, 9, 36, 0
1, 38240, Note_on_c, 4, 39, 0
1, 38340, Note_on_c, 0, 66, 0
1, 38340, Note_on_c, 1, 66, 0
1, 38340, Note_on_c, 12, 66, 0
1, 38360, Note_on_c, 8, 39, 0
1, 38400, Note_on_c, 0, 73, 90
1, 38400, Note_on_c, 1, 73, 90
1, 38400, Note_on_c, 4, 45, 80
1, 38400, Note_on_c, 9, 51, 60
1, 38400, Note_on_c, 9, 36, 70
1, 38400, Note_on_c, 8, 45, 100
1, 38410, Note_on_c, 9, 51, 0
1, 38410, Note_on_c, 9, 36, 0
1, 38410, Note_on_c, 11, 52, 0
1, 38410, Note_on_c, 11, 57, 0
1, 38410, Note_on_c, 12, 61, 0
1, 38420, Note_on_c, 11, 66, 0
1, 38480, Note_on_c, 4, 45, 0
1, 38520, Note_on_c, 0, 73, 0
1, 38520, Note_on_c, 0, 71, 90
1, 38520, Note_on_c, 1, 73, 0
1, 38520, Note_on_c, 1, 71, 90
1, 38620, Note_on_c, 8, 45, 0
1, 38640, Note_on_c, 0, 71, 0
1, 38640, Note_on_c, 0, 68, 90
1, 38640, Note_on_c, 1, 71, 0
1, 38640, Note_on_c, 1, 68, 90
1, 38640, Note_on_c, 4, 45, 60
1, 38640, Note_on_c, 9, 36, 60
1, 38640, Note_on_c, 8, 45, 80
1, 38650, Note_on_c, 9, 36, 0
1, 38720, Note_on_c, 4, 45, 0
1, 38760, Note_on_c, 0, 68, 0
1, 38760, Note_on_c, 0, 66, 100
1, 38760, Note_on_c, 1, 68, 0
1, 38760, Note_on_c, 1, 66, 100
1, 38800, Note_on_c, 11, 63, 0
1, 38800, Note_on_c, 11, 73, 0
1, 38840, Note_on_c, 8, 45, 0
1, 38880, Note_on_c, 4, 39, 70
1, 38880, Note_on_c, 9, 51, 60
1, 38880, Note_on_c, 9, 44, 80
1, 38880, Note_on_c, 9, 40, 50
1, 38880, Note_on_c, 9, 37, 70
1, 38880, Note_on_c, 8, 39, 90
1, 38880, Note_on_c, 11, 57, 80
1, 38880, Note_on_c, 11, 52, 80
1, 38880, Note_on_c, 12, 75, 70
1, 38890, Note_on_c, 9, 51, 0
1, 38890, Note_on_c, 9, 44, 0
1, 38890, Note_on_c, 9, 40, 0
1, 38890, Note_on_c, 9, 37, 0
1, 38890, Note_on_c, 11, 68, 80
1, 38890, Note_on_c, 11, 61, 80
1, 38900, Note_on_c, 11, 75, 80
1, 38960, Note_on_c, 4, 39, 0
1, 39000, Note_on_c, 12, 78, 60
1, 39080, Note_on_c, 8, 39, 0
1, 39080, Note_on_c, 12, 75, 0
1, 39120, Note_on_c, 4, 45, 60
1, 39120, Note_on_c, 9, 36, 70
1, 39120, Note_on_c, 8, 45, 80
1, 39120, Note_on_c, 12, 81, 60
1, 39130, Note_on_c, 9, 36, 0
1, 39200, Note_on_c, 4, 45, 0
1, 39200, Note_on_c, 12, 78, 0
1, 39240, Note_on_c, 12, 85, 60
1, 39320, Note_on_c, 8, 45, 0
1, 39320, Note_on_c, 12, 81, 0
1, 39350, Note_on_c, 11, 68, 0
1, 39350, Note_on_c, 11, 61, 0
1, 39360, Note_on_c, 4, 56, 60
1, 39360, Note_on_c, 9, 51, 60
1, 39360, Note_on_c, 9, 36, 70
1, 39360, Note_on_c, 8, 56, 90
1, 39360, Note_on_c, 11, 75, 0
1, 39360, Note_on_c, 12, 87, 90
1, 39370, Note_on_c, 9, 51, 0
1, 39370, Note_on_c, 9, 36, 0
1, 39370, Note_on_c, 11, 68, 70
1, 39370, Note_on_c, 11, 61, 70
1, 39380, Note_on_c, 11, 75, 70
1, 39440, Note_on_c, 12, 85, 0
1, 39480, Note_on_c, 12, 93, 80
1, 39560, Note_on_c, 12, 87, 0
1, 39580, Note_on_c, 4, 56, 0
1, 39600, Note_on_c, 12, 97, 80
1, 39680, Note_on_c, 12, 93, 0
1, 39720, Note_on_c, 12, 87, 90
1, 39800, Note_on_c, 12, 97, 0
1, 39840, Note_on_c, 9, 51, 60
1, 39840, Note_on_c, 9, 48, 80
1, 39840, Note_on_c, 9, 44, 90
1, 39850, Note_on_c, 9, 51, 0
1, 39850, Note_on_c, 9, 48, 0
1, 39850, Note_on_c, 9, 44, 0
1, 39960, Note_on_c, 8, 56, 0
1, 40020, Note_on_c, 12, 87, 0
1, 40060, Note_on_c, 0, 66, 0
1, 40060, Note_on_c, 1, 66, 0
1, 40080, Note_on_c, 4, 39, 80
1, 40080, Note_on_c, 9, 48, 80
1, 40080, Note_on_c, 8, 39, 100
1, 40090, Note_on_c, 9, 48, 0
1, 40140, Note_on_c, 12, 69, 0
1, 40140, Note_on_c, 12, 57, 0
1, 40140, Note_on_c, 12, 63, 0
1, 40160, Note_on_c, 4, 39, 0
1, 40240, Note_on_c, 0, 61, 80
1, 40240, Note_on_c, 1, 61, 80
1, 40260, Note_on_c, 11, 57, 0
1, 40260, Note_on_c, 11, 52, 0
1, 40270, Note_on_c, 11, 68, 0
1, 40270, Note_on_c, 11, 61, 0
1, 40280, Note_on_c, 8, 39, 0
1, 40280, Note_on_c, 11, 75, 0
1, 40320, Note_on_c, 0, 61, 0
1, 40320, Note_on_c, 0, 63, 100
1, 40320, Note_on_c, 1, 61, 0
1, 40320, Note_on_c, 1, 63, 100
1, 40320, Note_on_c, 4, 45, 90
1, 40320, Note_on_c, 9, 51, 60
1, 40320, Note_on_c, 9, 36, 100
1, 40320, Note_on_c, 8, 45, 110
1, 40320, Note_on_c, 11, 52, 80
1, 40320, Note_on_c, 12, 73, 90
1, 40320, Note_on_c, 12, 69, 90
1, 40320, Note_on_c, 12, 63, 90
1, 40320, Note_on_c, 12, 52, 90
1, 40330, Note_on_c, 9, 51, 0
1, 40330, Note_on_c, 9, 36, 0
1, 40330, Note_on_c, 11, 57, 80
1, 40340, Note_on_c, 11, 61, 80
1, 40350, Note_on_c, 11, 68, 80
1, 40360, Note_on_c, 11, 75, 80
1, 40470, Note_on_c, 4, 45, 0
1, 40620, Note_on_c, 0, 63, 0
1, 40620, Note_on_c, 1, 63, 0
1, 40680, Note_on_c, 0, 66, 100
1, 40680, Note_on_c, 1, 66, 100
1, 40720, Note_on_c, 8, 45, 0
1, 40800, Note_on_c, 9, 51, 60
1, 40800, Note_on_c, 9, 44, 80
1, 40800, Note_on_c, 9, 40, 50
1, 40800, Note_on_c, 9, 37, 60
1, 40810, Note_on_c, 9, 51, 0
1, 40810, Note_on_c, 9, 44, 0
1, 40810, Note_on_c, 9, 40, 0
1, 40810, Note_on_c, 9, 37, 0
1, 41020, Note_on_c, 0, 66, 0
1, 41020, Note_on_c, 1, 66, 0
1, 41040, Note_on_c, 0, 63, 90
1, 41040, Note_on_c, 1, 63, 90
1, 41040, Note_on_c, 4, 39, 70
1, 41040, Note_on_c, 9, 36, 70
1, 41040, Note_on_c, 8, 39, 90
1, 41050, Note_on_c, 9, 36, 0
1, 41120, Note_on_c, 0, 63, 0
1, 41120, Note_on_c, 0, 61, 90
1, 41120, Note_on_c, 1, 63, 0
1, 41120, Note_on_c, 1, 61, 90
1, 41120, Note_on_c, 4, 39, 0
1, 41200, Note_on_c, 0, 61, 0
1, 41200, Note_on_c, 0, 59, 80
1, 41200, Note_on_c, 1, 61, 0
1, 41200, Note_on_c, 1, 59, 80
1, 41240, Note_on_c, 8, 39, 0
1, 41280, Note_on_c, 0, 59, 0
1, 41280, Note_on_c, 0, 63, 100
1, 41280, Note_on_c, 1, 59, 0
1, 41280, Note_on_c, 1, 63, 100
1, 41280, Note_on_c, 4, 45, 80
1, 41280, Note_on_c, 9, 51, 50
1, 41280, Note_on_c, 9, 36, 80
1, 41280, Note_on_c, 8, 45, 110
1, 41290, Note_on_c, 9, 51, 0
1, 41290, Note_on_c, 9, 36, 0
1, 41320, Note_on_c, 11, 52, 0
1, 41320, Note_on_c, 12, 73, 0
1, 41320, Note_on_c, 12, 69, 0
1, 41320, Note_on_c, 12, 63, 0
1, 41330, Note_on_c, 11, 57, 0
1, 41340, Note_on_c, 11, 61, 0
1, 41350, Note_on_c, 11, 68, 0
1, 41360, Note_on_c, 11, 75, 0
1, 41400, Note_on_c, 12, 63, 80
1, 41430, Note_on_c, 4, 45, 0
1, 41520, Note_on_c, 12, 66, 70
1, 41580, Note_on_c, 0, 63, 0
1, 41580, Note_on_c, 1, 63, 0
1, 41600, Note_on_c, 12, 63, 0
1, 41640, Note_on_c, 0, 66, 100
1, 41640, Note_on_c, 1, 66, 100
1, 41640, Note_on_c, 12, 69, 70
1, 41680, Note_on_c, 8, 45, 0
1, 41720, Note_on_c, 12, 66, 0
1, 41760, Note_on_c, 9, 51, 50
1, 41760, Note_on_c, 9, 44, 80
1, 41760, Note_on_c, 9, 40, 50
1, 41760, Note_on_c, 9, 37, 70
1, 41760, Note_on_c, 11, 57, 70
1, 41760, Note_on_c, 11, 52, 70
1, 41760, Note_on_c, 12, 63, 80
1, 41770, Note_on_c, 9, 51, 0
1, 41770, Note_on_c, 9, 44, 0
1, 41770, Note_on_c, 9, 40, 0
1, 41770, Note_on_c, 9, 37, 0
1, 41770, Note_on_c, 11, 68, 70
1, 41770, Note_on_c, 11, 61, 70
1, 41780, Note_on_c, 11, 75, 70
1, 41840, Note_on_c, 12, 69, 0
1, 41880, Note_on_c, 12, 66, 70
1, 41980, Note_on_c, 0, 66, 0
1, 41980, Note_on_c, 1, 66, 0
1, 42000, Note_on_c, 0, 63, 90
1, 42000, Note_on_c, 1, 63, 90
1, 42000, Note_on_c, 4, 39, 70
1, 42000, Note_on_c, 9, 36, 60
1, 42000, Note_on_c, 8, 39, 90
1, 42000, Note_on_c, 12, 69, 70
1, 42010, Note_on_c, 9, 36, 0
1, 42080, Note_on_c, 0, 63, 0
1, 42080, Note_on_c, 0, 61, 90
1, 42080, Note_on_c, 1, 63, 0
1, 42080, Note_on_c, 1, 61, 90
1, 42080, Note_on_c, 4, 39, 0
1, 42120, Note_on_c, 12, 73, 70
1, 42160, Note_on_c, 0, 61, 0
1, 42160, Note_on_c, 0, 59, 80
1, 42160, Note_on_c, 1, 61, 0
1, 42160, Note_on_c, 1, 59, 80
1, 42200, Note_on_c, 8, 39, 0
1, 42240, Note_on_c, 0, 59, 0
1, 42240, Note_on_c, 0, 63, 100
1, 42240, Note_on_c, 1, 59, 0
1, 42240, Note_on_c, 1, 63, 100
1, 42240, Note_on_c, 4, 45, 80
1, 42240, Note_on_c, 9, 51, 60
1, 42240, Note_on_c, 9, 36, 70
1, 42240, Note_on_c, 8, 45, 100
1, 42240, Note_on_c, 12, 87, 80
1, 42250, Note_on_c, 9, 51, 0
1, 42250, Note_on_c, 9, 36, 0
1, 42250, Note_on_c, 12, 66, 0
1, 42320, Note_on_c, 4, 45, 0
1, 42460, Note_on_c, 8, 45, 0
1, 42480, Note_on_c, 4, 45, 60
1, 42480, Note_on_c, 9, 36, 60
1, 42480, Note_on_c, 8, 45, 80
1, 42490, Note_on_c, 9, 36, 0
1, 42540, Note_on_c, 0, 63, 0
1, 42540, Note_on_c, 1, 63, 0
1, 42560, Note_on_c, 4, 45, 0
1, 42600, Note_on_c, 0, 66, 100
1, 42600, Note_on_c, 1, 66, 100
1, 42640, Note_on_c, 12, 87, 0
1, 42660, Note_on_c, 11, 57, 0
1, 42670, Note_on_c, 11, 68, 0
1, 42670, Note_on_c, 11, 61, 0
1, 42680, Note_on_c, 8, 45, 0
1, 42680, Note_on_c, 11, 75, 0
1, 42720, Note_on_c, 4, 39, 70
1, 42720, Note_on_c, 9, 51, 60
1, 42720, Note_on_c, 9, 44, 80
1, 42720, Note_on_c, 9, 40, 60
1, 42720, Note_on_c, 9, 37, 70
1, 42720, Note_on_c, 8, 39, 90
1, 42720, Note_on_c, 11, 57, 70
1, 42730, Note_on_c, 9, 51, 0
1, 42730, Note_on_c, 9, 44, 0
1, 42730, Note_on_c, 9, 40, 0
1, 42730, Note_on_c, 9, 37, 0
1, 42730, Note_on_c, 11, 68, 70
1, 42730, Note_on_c, 11, 61, 70
1, 42740, Note_on_c, 11, 75, 70
1, 42800, Note_on_c, 4, 39, 0
1, 42840, Note_on_c, 12, 66, 60
1, 42920, Note_on_c, 8, 39, 0
1, 42920, Note_on_c, 12, 63, 0
1, 42940, Note_on_c, 12, 69, 0
1, 42960, Note_on_c, 0, 66, 0
1, 42960, Note_on_c, 0, 63, 90
1, 42960, Note_on_c, 1, 66, 0
1, 42960, Note_on_c, 1, 63, 90
1, 42960, Note_on_c, 4, 45, 60
1, 42960, Note_on_c, 9, 36, 70
1, 42960, Note_on_c, 8, 45, 80
1, 42960, Note_on_c, 12, 69, 60
1, 42970, Note_on_c, 9, 36, 0
1, 43040, Note_on_c, 0, 63, 0
1, 43040, Note_on_c, 0, 61, 90
1, 43040, Note_on_c, 1, 63, 0
1, 43040, Note_on_c, 1, 61, 90
1, 43040, Note_on_c, 4, 45, 0
1, 43040, Note_on_c, 12, 66, 0
1, 43040, Note_on_c, 12, 73, 0
1, 43080, Note_on_c, 12, 73, 60
1, 43120, Note_on_c, 0, 61, 0
1, 43120, Note_on_c, 0, 59, 80
1, 43120, Note_on_c, 1, 61, 0
1, 43120, Note_on_c, 1, 59, 80
1, 43160, Note_on_c, 8, 45, 0
1, 43160, Note_on_c, 12, 69, 0
1, 43180, Note_on_c, 11, 75, 0
1, 43200, Note_on_c, 0, 59, 0
1, 43200, Note_on_c, 0, 61, 100
1, 43200, Note_on_c, 1, 59, 0
1, 43200, Note_on_c, 1, 61, 100
1, 43200, Note_on_c, 4, 56, 60
1, 43200, Note_on_c, 9, 51, 50
1, 43200, Note_on_c, 9, 36, 70
1, 43200, Note_on_c, 8, 56, 90
1, 43200, Note_on_c, 11, 75, 70
1, 43200, Note_on_c, 12, 75, 90
1, 43210, Note_on_c, 9, 51, 0
1, 43210, Note_on_c, 9, 36, 0
1, 43280, Note_on_c, 12, 73, 0
1, 43320, Note_on_c, 12, 81, 80
1, 43400, Note_on_c, 12, 75, 0
1, 43420, Note_on_c, 4, 56, 0
1, 43440, Note_on_c, 12, 85, 80
1, 43500, Note_on_c, 0, 61, 0
1, 43500, Note_on_c, 1, 61, 0
1, 43520, Note_on_c, 12, 81, 0
1, 43560, Note_on_c, 0, 59, 90
1, 43560, Note_on_c, 1, 59, 90
1, 43560, Note_on_c, 12, 75, 80
1, 43620, Note_on_c, 11, 57, 0
1, 43630, Note_on_c, 11, 68, 0
1, 43630, Note_on_c, 11, 61, 0
1, 43640, Note_on_c, 12, 85, 0
1, 43660, Note_on_c, 0, 59, 0
1, 43660, Note_on_c, 1, 59, 0
1, 43680, Note_on_c, 0, 56, 100
1, 43680, Note_on_c, 1, 56, 100
1, 43680, Note_on_c, 9, 51, 50
1, 43680, Note_on_c, 9, 48, 80
1, 43680, Note_on_c, 9, 44, 90
1, 43680, Note_on_c, 12, 78, 90
1, 43690, Note_on_c, 9, 51, 0
1, 43690, Note_on_c, 9, 48, 0
1, 43690, Note_on_c, 9, 44, 0
1, 43760, Note_on_c, 12, 75, 0
1, 43800, Note_on_c, 8, 56, 0
1, 43800, Note_on_c, 12, 81, 80
1, 43880, Note_on_c, 12, 78, 0
1, 43920, Note_on_c, 4, 39, 80
1, 43920, Note_on_c, 9, 48, 70
1, 43920, Note_on_c, 8, 39, 100
1, 43920, Note_on_c, 12, 85, 80
1, 43930, Note_on_c, 9, 48, 0
1, 43980, Note_on_c, 12, 52, 0
1, 44000, Note_on_c, 4, 39, 0
1, 44000, Note_on_c, 12, 81, 0
1, 44040, Note_on_c, 12, 87, 80
1, 44100, Note_on_c, 11, 75, 0
1, 44120, Note_on_c, 8, 39, 0
1, 44120, Note_on_c, 12, 85, 0
1, 44160, Note_on_c, 4, 45, 90
1, 44160, Note_on_c, 9, 51, 60
1, 44160, Note_on_c, 9, 36, 80
1, 44160, Note_on_c, 8, 45, 110
1, 44160, Note_on_c, 12, 73, 80
1, 44160, Note_on_c, 12, 68, 80
1, 44160, Note_on_c, 12, 63, 80
1, 44160, Note_on_c, 12, 57, 80
1, 44160, Note_on_c, 12, 52, 80
1, 44170, Note_on_c, 9, 51, 0
1, 44170, Note_on_c, 9, 36, 0
1, 44170, Note_on_c, 11, 57, 80
1, 44180, Note_on_c, 11, 61, 80
1, 44190, Note_on_c, 11, 68, 80
1, 44200, Note_on_c, 11, 73, 80
1, 44310, Note_on_c, 4, 45, 0
1, 44340, Note_on_c, 12, 87, 0
1, 44560, Note_on_c, 8, 45, 0
1, 44640, Note_on_c, 9, 51, 60
1, 44640, Note_on_c, 9, 44, 80
1, 44640, Note_on_c, 9, 40, 50
1, 44640, Note_on_c, 9, 37, 70
1, 44650, Note_on_c, 9, 51, 0
1, 44650, Note_on_c, 9, 44, 0
1, 44650, Note_on_c, 9, 40, 0
1, 44650, Note_on_c, 9, 37, 0
1, 44800, Note_on_c, 11, 52, 0
1, 44880, Note_on_c, 4, 39, 70
1, 44880, Note_on_c, 9, 36, 60
1, 44880, Note_on_c, 8, 39, 90
1, 44890, Note_on_c, 9, 36, 0
1, 44960, Note_on_c, 4, 39, 0
1, 45080, Note_on_c, 8, 39, 0
1, 45120, Note_on_c, 4, 45, 80
1, 45120, Note_on_c, 9, 51, 60
1, 45120, Note_on_c, 9, 36, 80
1, 45120, Note_on_c, 8, 45, 110
1, 45120, Note_on_c, 11, 57, 0
1, 45120, Note_on_c, 11, 61, 0
1, 45120, Note_on_c, 11, 68, 0
1, 45120, Note_on_c, 11, 73, 0
1, 45120, Note_on_c, 11, 57, 70
1, 45130, Note_on_c, 9, 51, 0
1, 45130, Note_on_c, 9, 36, 0
1, 45130, Note_on_c, 11, 64, 70
1, 45140, Note_on_c, 11, 68, 70
1, 45150, Note_on_c, 11, 73, 70
1, 45270, Note_on_c, 4, 45, 0
1, 45520, Note_on_c, 8, 45, 0
1, 45570, Note_on_c, 11, 64, 0
1, 45590, Note_on_c, 11, 63, 80
1, 45590, Note_on_c, 11, 52, 80
1, 45600, Note_on_c, 9, 51, 60
1, 45600, Note_on_c, 9, 44, 80
1, 45600, Note_on_c, 9, 40, 50
1, 45600, Note_on_c, 9, 37, 70
1, 45610, Note_on_c, 9, 51, 0
1, 45610, Note_on_c, 9, 44, 0
1, 45610, Note_on_c, 9, 40, 0
1, 45610, Note_on_c, 9, 37, 0
1, 45840, Note_on_c, 4, 39, 70
1, 45840, Note_on_c, 9, 36, 60
1, 45840, Note_on_c, 8, 39, 90
1, 45850, Note_on_c, 9, 36, 0
1, 45920, Note_on_c, 4, 39, 0
1, 46040, Note_on_c, 8, 39, 0
1, 46050, Note_on_c, 11, 73, 0
1, 46080, Note_on_c, 4, 45, 80
1, 46080, Note_on_c, 9, 51, 70
1, 46080, Note_on_c, 9, 36, 70
1, 46080, Note_on_c, 8, 45, 100
1, 46090, Note_on_c, 9, 51, 0
1, 46090, Note_on_c, 9, 36, 0
1, 46160, Note_on_c, 4, 45, 0
1, 46300, Note_on_c, 8, 45, 0
1, 46320, Note_on_c, 4, 45, 60
1, 46320, Note_on_c, 9, 36, 60
1, 46320, Note_on_c, 8, 45, 80
1, 46330, Note_on_c, 9, 36, 0
1, 46400, Note_on_c, 4, 45, 0
1, 46430, Note_on_c, 11, 57, 0
1, 46430, Note_on_c, 11, 63, 0
1, 46430, Note_on_c, 11, 68, 0
1, 46430, Note_on_c, 11, 52, 0
1, 46430, Note_on_c, 11, 68, 65
1, 46440, Note_on_c, 11, 63, 65
1, 46450, Note_on_c, 11, 57, 65
1, 46460, Note_on_c, 11, 52, 65
1, 46520, Note_on_c, 8, 45, 0
1, 46540, Note_on_c, 11, 68, 0
1, 46550, Note_on_c, 11, 63, 0
1, 46560, Note_on_c, 4, 39, 70
1, 46560, Note_on_c, 9, 51, 70
1, 46560, Note_on_c, 9, 44, 80
1, 46560, Note_on_c, 9, 40, 50
1, 46560, Note_on_c, 9, 37, 70
1, 46560, Note_on_c, 8, 39, 90
1, 46560, Note_on_c, 11, 57, 0
1, 46560, Note_on_c, 11, 57, 75
1, 46570, Note_on_c, 9, 51, 0
1, 46570, Note_on_c, 9, 44, 0
1, 46570, Note_on_c, 9, 40, 0
1, 46570, Note_on_c, 9, 37, 0
1, 46570, Note_on_c, 11, 61, 75
1, 46580, Note_on_c, 11, 68, 75
1, 46590, Note_on_c, 11, 75, 75
1, 46640, Note_on_c, 4, 39, 0
1, 46760, Note_on_c, 8, 39, 0
1, 46800, Note_on_c, 4, 45, 60
1, 46800, Note_on_c, 9, 36, 70
1, 46800, Note_on_c, 8, 45, 80
1, 46810, Note_on_c, 9, 36, 0
1, 46880, Note_on_c, 4, 45, 0
1, 46910, Note_on_c, 11, 63, 60
1, 47000, Note_on_c, 8, 45, 0
1, 47030, Note_on_c, 11, 75, 0
1, 47030, Note_on_c, 11, 75, 80
1, 47040, Note_on_c, 4, 56, 70
1, 47040, Note_on_c, 9, 51, 90
1, 47040, Note_on_c, 9, 36, 80
1, 47040, Note_on_c, 8, 56, 90
1, 47050, Note_on_c, 9, 51, 0
1, 47050, Note_on_c, 9, 36, 0
1, 47110, Note_on_c, 11, 63, 0
1, 47260, Note_on_c, 4, 56, 0
1, 47520, Note_on_c, 9, 45, 100
1, 47520, Note_on_c, 9, 44, 90
1, 47530, Note_on_c, 9, 45, 0
1, 47530, Note_on_c, 9, 44, 0
1, 47640, Note_on_c, 8, 56, 0
1, 47750, Note_on_c, 11, 52, 0
1, 47760, Note_on_c, 4, 40, 80
1, 47760, Note_on_c, 9, 45, 105
1, 47760, Note_on_c, 9, 36, 50
1, 47760, Note_on_c, 8, 40, 100
1, 47760, Note_on_c, 11, 57, 0
1, 47770, Note_on_c, 9, 45, 0
1, 47770, Note_on_c, 9, 36, 0
1, 47770, Note_on_c, 11, 61, 0
1, 47780, Note_on_c, 11, 68, 0
1, 47800, Note_on_c, 12, 73, 0
1, 47800, Note_on_c, 12, 68, 0
1, 47800, Note_on_c, 12, 63, 0
1, 47800, Note_on_c, 12, 57, 0
1, 47800, Note_on_c, 12, 52, 0
1, 47820, Note_on_c, 0, 56, 0
1, 47820, Note_on_c, 1, 56, 0
1, 47840, Note_on_c, 4, 40, 0
1, 47880, Note_on_c, 9, 45, 80
1, 47890, Note_on_c, 9, 45, 0
1, 47930, Note_on_c, 11, 75, 0
1, 47960, Note_on_c, 8, 40, 0
1, 47990, Note_on_c, 11, 52, 90
1, 48000, Note_on_c, 0, 73, 110
1, 48000, Note_on_c, 1, 69, 110
1, 48000, Note_on_c, 2, 83, 85
1, 48000, Note_on_c, 3, 80, 85
1, 48000, Note_on_c, 4, 64, 85
1, 48000, Note_on_c, 9, 49, 100
1, 48000, Note_on_c, 9, 36, 100
1, 48000, Note_on_c, 8, 45, 110
1, 48000, Note_on_c, 11, 57, 90
1, 48000, Note_on_c, 12, 73, 90
1, 48000, Note_on_c, 12, 66, 90
1, 48000, Note_on_c, 12, 61, 90
1, 48000, Note_on_c, 12, 57, 90
1, 48000, Note_on_c, 12, 52, 90
1, 48010, Note_on_c, 9, 49, 0
1, 48010, Note_on_c, 9, 36, 0
1, 48010, Note_on_c, 11, 63, 90
1, 48020, Note_on_c, 11, 66, 90
1, 48030, Note_on_c, 11, 73, 90
1, 48120, Note_on_c, 2, 83, 0
1, 48120, Note_on_c, 3, 80, 0
1, 48120, Note_on_c, 4, 64, 0
1, 48240, Note_on_c, 2, 83, 80
1, 48240, Note_on_c, 3, 80, 80
1, 48240, Note_on_c, 4, 64, 80
1, 48320, Note_on_c, 2, 83, 0
1, 48320, Note_on_c, 3, 80, 0
1, 48320, Note_on_c, 4, 64, 0
1, 48360, Note_on_c, 2, 83, 80
1, 48360, Note_on_c, 3, 80, 80
1, 48360, Note_on_c, 4, 64, 80
1, 48400, Note_on_c, 8, 45, 0
1, 48430, Note_on_c, 2, 83, 0
1, 48430, Note_on_c, 3, 80, 0
1, 48430, Note_on_c, 4, 64, 0
1, 48480, Note_on_c, 2, 83, 85
1, 48480, Note_on_c, 3, 80, 85
1, 48480, Note_on_c, 4, 64, 85
1, 48480, Note_on_c, 9, 51, 50
1, 48480, Note_on_c, 9, 44, 80
1, 48480, Note_on_c, 9, 40, 60
1, 48480, Note_on_c, 9, 37, 70
1, 48490, Note_on_c, 9, 51, 0
1, 48490, Note_on_c, 9, 44, 0
1, 48490, Note_on_c, 9, 40, 0
1, 48490, Note_on_c, 9, 37, 0
1, 48560, Note_on_c, 2, 83, 0
1, 48560, Note_on_c, 3, 80, 0
1, 48560, Note_on_c, 4, 64, 0
1, 48600, Note_on_c, 2, 83, 80
1, 48600, Note_on_c, 3, 80, 80
1, 48600, Note_on_c, 4, 64, 80
1, 48660, Note_on_c, 2, 83, 0
1, 48660, Note_on_c, 3, 80, 0
1, 48660, Note_on_c, 4, 64, 0
1, 48720, Note_on_c, 0, 68, 90
1, 48720, Note_on_c, 1, 68, 90
1, 48720, Note_on_c, 2, 83, 80
1, 48720, Note_on_c, 3, 80, 80
1, 48720, Note_on_c, 4, 64, 80
1, 48720, Note_on_c, 9, 36, 70
1, 48720, Note_on_c, 8, 40, 90
1, 48730, Note_on_c, 0, 73, 0
1, 48730, Note_on_c, 1, 69, 0
1, 48730, Note_on_c, 9, 36, 0
1, 48800, Note_on_c, 2, 83, 0
1, 48800, Note_on_c, 3, 80, 0
1, 48800, Note_on_c, 4, 64, 0
1, 48840, Note_on_c, 0, 66, 90
1, 48840, Note_on_c, 2, 83, 80
1, 48840, Note_on_c, 3, 80, 80
1, 48840, Note_on_c, 4, 64, 80
1, 48850, Note_on_c, 0, 68, 0
1, 48900, Note_on_c, 2, 83, 0
1, 48900, Note_on_c, 3, 80, 0
1, 48900, Note_on_c, 4, 64, 0
1, 48910, Note_on_c, 11, 63, 0
1, 48920, Note_on_c, 8, 40, 0
1, 48920, Note_on_c, 11, 66, 0
1, 48930, Note_on_c, 11, 73, 0
1, 48940, Note_on_c, 0, 66, 0
1, 48940, Note_on_c, 1, 68, 0
1, 48950, Note_on_c, 11, 63, 70
1, 48960, Note_on_c, 0, 75, 100
1, 48960, Note_on_c, 1, 71, 100
1, 48960, Note_on_c, 2, 83, 85
1, 48960, Note_on_c, 3, 80, 85
1, 48960, Note_on_c, 4, 64, 85
1, 48960, Note_on_c, 9, 51, 50
1, 48960, Note_on_c, 9, 36, 80
1, 48960, Note_on_c, 8, 45, 110
1, 48960, Note_on_c, 11, 66, 70
1, 48970, Note_on_c, 9, 51, 0
1, 48970, Note_on_c, 9, 36, 0
1, 48970, Note_on_c, 11, 73, 70
1, 49080, Note_on_c, 2, 83, 0
1, 49080, Note_on_c, 3, 80, 0
1, 49080, Note_on_c, 4, 64, 0
1, 49200, Note_on_c, 2, 83, 80
1, 49200, Note_on_c, 3, 80, 80
1, 49200, Note_on_c, 4, 64, 80
1, 49280, Note_on_c, 2, 83, 0
1, 49280, Note_on_c, 3, 80, 0
1, 49280, Note_on_c, 4, 64, 0
1, 49320, Note_on_c, 2, 83, 80
1, 49320, Note_on_c, 3, 80, 80
1, 49320, Note_on_c, 4, 64, 80
1, 49360, Note_on_c, 8, 45, 0
1, 49400, Note_on_c, 2, 83, 0
1, 49400, Note_on_c, 3, 80, 0
1, 49400, Note_on_c, 4, 64, 0
1, 49440, Note_on_c, 2, 83, 85
1, 49440, Note_on_c, 3, 80, 85
1, 49440, Note_on_c, 4, 64, 85
1, 49440, Note_on_c, 9, 51, 50
1, 49440, Note_on_c, 9, 44, 80
1, 49440, Note_on_c, 9, 40, 60
1, 49440, Note_on_c, 9, 37, 70
1, 49450, Note_on_c, 9, 51, 0
1, 49450, Note_on_c, 9, 44, 0
1, 49450, Note_on_c, 9, 40, 0
1, 49450, Note_on_c, 9, 37, 0
1, 49560, Note_on_c, 2, 83, 0
1, 49560, Note_on_c, 3, 80, 0
1, 49560, Note_on_c, 4, 64, 0
1, 49680, Note_on_c, 2, 83, 80
1, 49680, Note_on_c, 3, 80, 80
1, 49680, Note_on_c, 4, 64, 80
1, 49680, Note_on_c, 9, 36, 60
1, 49680, Note_on_c, 8, 40, 90
1, 49690, Note_on_c, 9, 36, 0
1, 49760, Note_on_c, 2, 83, 0
1, 49760, Note_on_c, 3, 80, 0
1, 49760, Note_on_c, 4, 64, 0
1, 49800, Note_on_c, 2, 83, 80
1, 49800, Note_on_c, 3, 80, 80
1, 49800, Note_on_c, 4, 64, 80
1, 49870, Note_on_c, 2, 83, 0
1, 49870, Note_on_c, 3, 80, 0
1, 49870, Note_on_c, 4, 64, 0
1, 49880, Note_on_c, 8, 40, 0
1, 49920, Note_on_c, 2, 83, 85
1, 49920, Note_on_c, 3, 80, 85
1, 49920, Note_on_c, 4, 64, 85
1, 49920, Note_on_c, 9, 51, 60
1, 49920, Note_on_c, 9, 36, 70
1, 49920, Note_on_c, 8, 45, 100
1, 49920, Note_on_c, 11, 52, 0
1, 49930, Note_on_c, 9, 51, 0
1, 49930, Note_on_c, 9, 36, 0
1, 49930, Note_on_c, 11, 57, 0
1, 50000, Note_on_c, 2, 83, 0
1, 50000, Note_on_c, 3, 80, 0
1, 50000, Note_on_c, 4, 64, 0
1, 50040, Note_on_c, 2, 83, 80
1, 50040, Note_on_c, 3, 80, 80
1, 50040, Note_on_c, 4, 64, 80
1, 50100, Note_on_c, 2, 83, 0
1, 50100, Note_on_c, 3, 80, 0
1, 50100, Note_on_c, 4, 64, 0
1, 50140, Note_on_c, 8, 45, 0
1, 50160, Note_on_c, 2, 83, 80
1, 50160, Note_on_c, 3, 80, 80
1, 50160, Note_on_c, 4, 64, 80
1, 50160, Note_on_c, 9, 36, 60
1, 50160, Note_on_c, 8, 45, 90
1, 50170, Note_on_c, 9, 36, 0
1, 50210, Note_on_c, 11, 63, 0
1, 50210, Note_on_c, 11, 66, 0
1, 50210, Note_on_c, 11, 73, 0
1, 50240, Note_on_c, 2, 83, 0
1, 50240, Note_on_c, 3, 80, 0
1, 50240, Note_on_c, 4, 64, 0
1, 50280, Note_on_c, 2, 83, 80
1, 50280, Note_on_c, 3, 80, 80
1, 50280, Note_on_c, 4, 64, 80
1, 50340, Note_on_c, 2, 83, 0
1, 50340, Note_on_c, 3, 80, 0
1, 50340, Note_on_c, 4, 64, 0
1, 50360, Note_on_c, 8, 45, 0
1, 50390, Note_on_c, 11, 75, 80
1, 50390, Note_on_c, 11, 68, 80
1, 50390, Note_on_c, 11, 61, 80
1, 50390, Note_on_c, 11, 57, 80
1, 50390, Note_on_c, 11, 52, 80
1, 50400, Note_on_c, 2, 83, 85
1, 50400, Note_on_c, 3, 80, 85
1, 50400, Note_on_c, 4, 64, 85
1, 50400, Note_on_c, 9, 51, 50
1, 50400, Note_on_c, 9, 44, 80
1, 50400, Note_on_c, 9, 40, 60
1, 50400, Note_on_c, 9, 37, 70
1, 50400, Note_on_c, 8, 40, 80
1, 50410, Note_on_c, 9, 51, 0
1, 50410, Note_on_c, 9, 44, 0
1, 50410, Note_on_c, 9, 40, 0
1, 50410, Note_on_c, 9, 37, 0
1, 50520, Note_on_c, 2, 83, 0
1, 50520, Note_on_c, 3, 80, 0
1, 50520, Note_on_c, 4, 64, 0
1, 50600, Note_on_c, 8, 40, 0
1, 50640, Note_on_c, 2, 83, 80
1, 50640, Note_on_c, 3, 80, 80
1, 50640, Note_on_c, 4, 64, 80
1, 50640, Note_on_c, 9, 36, 70
1, 50640, Note_on_c, 8, 56, 100
1, 50650, Note_on_c, 9, 36, 0
1, 50720, Note_on_c, 2, 83, 0
1, 50720, Note_on_c, 3, 80, 0
1, 50720, Note_on_c, 4, 64, 0
1, 50760, Note_on_c, 2, 83, 80
1, 50760, Note_on_c, 3, 80, 80
1, 50760, Note_on_c, 4, 64, 80
1, 50830, Note_on_c, 2, 83, 0
1, 50830, Note_on_c, 3, 80, 0
1, 50830, Note_on_c, 4, 64, 0
1, 50840, Note_on_c, 8, 56, 0
1, 50870, Note_on_c, 11, 75, 0
1, 50870, Note_on_c, 11, 68, 0
1, 50870, Note_on_c, 11, 61, 0
1, 50870, Note_on_c, 11, 75, 70
1, 50870, Note_on_c, 11, 68, 70
1, 50870, Note_on_c, 11, 61, 70
1, 50880, Note_on_c, 2, 83, 85
1, 50880, Note_on_c, 3, 80, 85
1, 50880, Note_on_c, 4, 64, 85
1, 50880, Note_on_c, 9, 51, 50
1, 50880, Note_on_c, 9, 36, 70
1, 50880, Note_on_c, 8, 51, 70
1, 50890, Note_on_c, 9, 51, 0
1, 50890, Note_on_c, 9, 36, 0
1, 51000, Note_on_c, 2, 83, 0
1, 51000, Note_on_c, 3, 80, 0
1, 51000, Note_on_c, 4, 64, 0
1, 51120, Note_on_c, 2, 83, 80
1, 51120, Note_on_c, 3, 80, 80
1, 51120, Note_on_c, 4, 64, 80
1, 51120, Note_on_c, 9, 48, 100
1, 51130, Note_on_c, 9, 48, 0
1, 51200, Note_on_c, 2, 83, 0
1, 51200, Note_on_c, 3, 80, 0
1, 51200, Note_on_c, 4, 64, 0
1, 51240, Note_on_c, 2, 83, 80
1, 51240, Note_on_c, 3, 80, 80
1, 51240, Note_on_c, 4, 64, 80
1, 51320, Note_on_c, 2, 83, 0
1, 51320, Note_on_c, 3, 80, 0
1, 51320, Note_on_c, 4, 64, 0
1, 51360, Note_on_c, 2, 83, 85
1, 51360, Note_on_c, 3, 80, 85
1, 51360, Note_on_c, 4, 64, 85
1, 51360, Note_on_c, 9, 51, 50
1, 51360, Note_on_c, 9, 48, 90
1, 51360, Note_on_c, 9, 44, 90
1, 51370, Note_on_c, 9, 51, 0
1, 51370, Note_on_c, 9, 48, 0
1, 51370, Note_on_c, 9, 44, 0
1, 51440, Note_on_c, 2, 83, 0
1, 51440, Note_on_c, 3, 80, 0
1, 51440, Note_on_c, 4, 64, 0
1, 51470, Note_on_c, 11, 57, 0
1, 51470, Note_on_c, 11, 52, 0
1, 51480, Note_on_c, 2, 83, 80
1, 51480, Note_on_c, 3, 80, 80
1, 51480, Note_on_c, 4, 64, 80
1, 51480, Note_on_c, 8, 51, 0
1, 51540, Note_on_c, 2, 83, 0
1, 51540, Note_on_c, 3, 80, 0
1, 51540, Note_on_c, 4, 64, 0
1, 51600, Note_on_c, 2, 83, 80
1, 51600, Note_on_c, 3, 80, 80
1, 51600, Note_on_c, 4, 64, 80
1, 51600, Note_on_c, 8, 40, 90
1, 51660, Note_on_c, 0, 75, 0
1, 51660, Note_on_c, 1, 71, 0
1, 51660, Note_on_c, 12, 73, 0
1, 51660, Note_on_c, 12, 66, 0
1, 51660, Note_on_c, 12, 61, 0
1, 51660, Note_on_c, 12, 57, 0
1, 51660, Note_on_c, 12, 52, 0
1, 51680, Note_on_c, 2, 83, 0
1, 51680, Note_on_c, 3, 80, 0
1, 51680, Note_on_c, 4, 64, 0
1, 51720, Note_on_c, 2, 83, 80
1, 51720, Note_on_c, 3, 80, 80
1, 51720, Note_on_c, 4, 64, 80
1, 51770, Note_on_c, 11, 75, 0
1, 51770, Note_on_c, 11, 68, 0
1, 51770, Note_on_c, 11, 61, 0
1, 51780, Note_on_c, 2, 83, 0
1, 51780, Note_on_c, 3, 80, 0
1, 51780, Note_on_c, 4, 64, 0
1, 51800, Note_on_c, 8, 40, 0
1, 51830, Note_on_c, 11, 52, 90
1, 51840, Note_on_c, 0, 68, 110
1, 51840, Note_on_c, 1, 64, 110
1, 51840, Note_on_c, 2, 83, 85
1, 51840, Note_on_c, 3, 80, 85
1, 51840, Note_on_c, 4, 64, 85
1, 51840, Note_on_c, 9, 51, 60
1, 51840, Note_on_c, 9, 36, 80
1, 51840, Note_on_c, 8, 45, 110
1, 51840, Note_on_c, 11, 57, 90
1, 51840, Note_on_c, 12, 73, 90
1, 51840, Note_on_c, 12, 66, 90
1, 51840, Note_on_c, 12, 61, 90
1, 51840, Note_on_c, 12, 57, 90
1, 51840, Note_on_c, 12, 52, 90
1, 51850, Note_on_c, 9, 51, 0
1, 51850, Note_on_c, 9, 36, 0
1, 51850, Note_on_c, 11, 63, 90
1, 51860, Note_on_c, 11, 66, 90
1, 51870, Note_on_c, 11, 73, 90
1, 51960, Note_on_c, 2, 83, 0
1, 51960, Note_on_c, 3, 80, 0
1, 51960, Note_on_c, 4, 64, 0
1, 52080, Note_on_c, 2, 83, 80
1, 52080, Note_on_c, 3, 80, 80
1, 52080, Note_on_c, 4, 64, 80
1, 52160, Note_on_c, 2, 83, 0
1, 52160, Note_on_c, 3, 80, 0
1, 52160, Note_on_c, 4, 64, 0
1, 52200, Note_on_c, 2, 83, 80
1, 52200, Note_on_c, 3, 80, 80
1, 52200, Note_on_c, 4, 64, 80
1, 52240, Note_on_c, 8, 45, 0
1, 52270, Note_on_c, 2, 83, 0
1, 52270, Note_on_c, 3, 80, 0
1, 52270, Note_on_c, 4, 64, 0
1, 52290, Note_on_c, 0, 68, 0
1, 52290, Note_on_c, 1, 64, 0
1, 52320, Note_on_c, 0, 73, 90
1, 52320, Note_on_c, 1, 68, 90
1, 52320, Note_on_c, 2, 83, 85
1, 52320, Note_on_c, 3, 80, 85
1, 52320, Note_on_c, 4, 64, 85
1, 52320, Note_on_c, 9, 51, 60
1, 52320, Note_on_c, 9, 44, 80
1, 52320, Note_on_c, 9, 40, 60
1, 52320, Note_on_c, 9, 37, 70
1, 52330, Note_on_c, 9, 51, 0
1, 52330, Note_on_c, 9, 44, 0
1, 52330, Note_on_c, 9, 40, 0
1, 52330, Note_on_c, 9, 37, 0
1, 52440, Note_on_c, 2, 83, 0
1, 52440, Note_on_c, 3, 80, 0
1, 52440, Note_on_c, 4, 64, 0
1, 52480, Note_on_c, 0, 71, 90
1, 52480, Note_on_c, 1, 66, 90
1, 52490, Note_on_c, 0, 73, 0
1, 52490, Note_on_c, 1, 68, 0
1, 52560, Note_on_c, 2, 83, 80
1, 52560, Note_on_c, 3, 80, 80
1, 52560, Note_on_c, 4, 64, 80
1, 52560, Note_on_c, 9, 36, 60
1, 52560, Note_on_c, 8, 40, 90
1, 52570, Note_on_c, 9, 36, 0
1, 52640, Note_on_c, 0, 68, 90
1, 52640, Note_on_c, 1, 64, 90
1, 52640, Note_on_c, 2, 83, 0
1, 52640, Note_on_c, 3, 80, 0
1, 52640, Note_on_c, 4, 64, 0
1, 52650, Note_on_c, 0, 71, 0
1, 52650, Note_on_c, 1, 66, 0
1, 52680, Note_on_c, 2, 83, 80
1, 52680, Note_on_c, 3, 80, 80
1, 52680, Note_on_c, 4, 64, 80
1, 52750, Note_on_c, 2, 83, 0
1, 52750, Note_on_c, 3, 80, 0
1, 52750, Note_on_c, 4, 64, 0
1, 52750, Note_on_c, 11, 63, 0
1, 52760, Note_on_c, 8, 40, 0
1, 52760, Note_on_c, 11, 66, 0
1, 52770, Note_on_c, 11, 73, 0
1, 52780, Note_on_c, 0, 68, 0
1, 52780, Note_on_c, 1, 64, 0
1, 52790, Note_on_c, 11, 73, 70
1, 52800, Note_on_c, 0, 66, 100
1, 52800, Note_on_c, 1, 61, 100
1, 52800, Note_on_c, 2, 83, 85
1, 52800, Note_on_c, 3, 80, 85
1, 52800, Note_on_c, 4, 64, 85
1, 52800, Note_on_c, 9, 51, 50
1, 52800, Note_on_c, 9, 36, 80
1, 52800, Note_on_c, 8, 45, 110
1, 52800, Note_on_c, 11, 66, 70
1, 52810, Note_on_c, 9, 51, 0
1, 52810, Note_on_c, 9, 36, 0
1, 52810, Note_on_c, 11, 63, 70
1, 52880, Note_on_c, 2, 83, 0
1, 52880, Note_on_c, 3, 80, 0
1, 52880, Note_on_c, 4, 64, 0
1, 52920, Note_on_c, 2, 83, 80
1, 52920, Note_on_c, 3, 80, 80
1, 52920, Note_on_c, 4, 64, 80
1, 52980, Note_on_c, 2, 83, 0
1, 52980, Note_on_c, 3, 80, 0
1, 52980, Note_on_c, 4, 64, 0
1, 53040, Note_on_c, 2, 83, 80
1, 53040, Note_on_c, 3, 80, 80
1, 53040, Note_on_c, 4, 64, 80
1, 53120, Note_on_c, 2, 83, 0
1, 53120, Note_on_c, 3, 80, 0
1, 53120, Note_on_c, 4, 64, 0
1, 53160, Note_on_c, 2, 83, 80
1, 53160, Note_on_c, 3, 80, 80
1, 53160, Note_on_c, 4, 64, 80
1, 53200, Note_on_c, 8, 45, 0
1, 53220, Note_on_c, 2, 83, 0
1, 53220, Note_on_c, 3, 80, 0
1, 53220, Note_on_c, 4, 64, 0
1, 53280, Note_on_c, 2, 83, 85
1, 53280, Note_on_c, 3, 80, 85
1, 53280, Note_on_c, 4, 64, 85
1, 53280, Note_on_c, 9, 51, 50
1, 53280, Note_on_c, 9, 44, 80
1, 53280, Note_on_c, 9, 40, 50
1, 53280, Note_on_c, 9, 37, 70
1, 53290, Note_on_c, 9, 51, 0
1, 53290, Note_on_c, 9, 44, 0
1, 53290, Note_on_c, 9, 40, 0
1, 53290, Note_on_c, 9, 37, 0
1, 53400, Note_on_c, 2, 83, 0
1, 53400, Note_on_c, 3, 80, 0
1, 53400, Note_on_c, 4, 64, 0
1, 53520, Note_on_c, 2, 83, 80
1, 53520, Note_on_c, 3, 80, 80
1, 53520, Note_on_c, 4, 64, 80
1, 53520, Note_on_c, 9, 36, 60
1, 53520, Note_on_c, 8, 40, 90
1, 53530, Note_on_c, 9, 36, 0
1, 53600, Note_on_c, 2, 83, 0
1, 53600, Note_on_c, 3, 80, 0
1, 53600, Note_on_c, 4, 64, 0
1, 53640, Note_on_c, 2, 83, 80
1, 53640, Note_on_c, 3, 80, 80
1, 53640, Note_on_c, 4, 64, 80
1, 53700, Note_on_c, 0, 66, 0
1, 53700, Note_on_c, 1, 61, 0
1, 53710, Note_on_c, 2, 83, 0
1, 53710, Note_on_c, 3, 80, 0
1, 53710, Note_on_c, 4, 64, 0
1, 53720, Note_on_c, 8, 40, 0
1, 53760, Note_on_c, 0, 73, 90
1, 53760, Note_on_c, 1, 68, 90
1, 53760, Note_on_c, 2, 83, 85
1, 53760, Note_on_c, 3, 80, 85
1, 53760, Note_on_c, 4, 64, 85
1, 53760, Note_on_c, 9, 51, 60
1, 53760, Note_on_c, 9, 36, 70
1, 53760, Note_on_c, 8, 45, 100
1, 53760, Note_on_c, 11, 52, 0
1, 53770, Note_on_c, 9, 51, 0
1, 53770, Note_on_c, 9, 36, 0
1, 53770, Note_on_c, 11, 57, 0
1, 53880, Note_on_c, 0, 73, 0
1, 53880, Note_on_c, 0, 71, 90
1, 53880, Note_on_c, 1, 68, 0
1, 53880, Note_on_c, 1, 66, 90
1, 53880, Note_on_c, 2, 83, 0
1, 53880, Note_on_c, 3, 80, 0
1, 53880, Note_on_c, 4, 64, 0
1, 53980, Note_on_c, 8, 45, 0
1, 54000, Note_on_c, 0, 71, 0
1, 54000, Note_on_c, 0, 68, 90
1, 54000, Note_on_c, 1, 66, 0
1, 54000, Note_on_c, 1, 64, 90
1, 54000, Note_on_c, 2, 83, 80
1, 54000, Note_on_c, 3, 80, 80
1, 54000, Note_on_c, 4, 64, 80
1, 54000, Note_on_c, 9, 36, 60
1, 54000, Note_on_c, 8, 45, 90
1, 54010, Note_on_c, 9, 36, 0
1, 54050, Note_on_c, 11, 73, 0
1, 54050, Note_on_c, 11, 66, 0
1, 54050, Note_on_c, 11, 63, 0
1, 54080, Note_on_c, 2, 83, 0
1, 54080, Note_on_c, 3, 80, 0
1, 54080, Note_on_c, 4, 64, 0
1, 54120, Note_on_c, 0, 68, 0
1, 54120, Note_on_c, 0, 66, 100
1, 54120, Note_on_c, 1, 64, 0
1, 54120, Note_on_c, 1, 61, 100
1, 54120, Note_on_c, 2, 83, 80
1, 54120, Note_on_c, 3, 80, 80
1, 54120, Note_on_c, 4, 64, 80
1, 54190, Note_on_c, 2, 83, 0
1, 54190, Note_on_c, 3, 80, 0
1, 54190, Note_on_c, 4, 64, 0
1, 54200, Note_on_c, 8, 45, 0
1, 54230, Note_on_c, 11, 75, 80
1, 54230, Note_on_c, 11, 68, 80
1, 54230, Note_on_c, 11, 61, 80
1, 54230, Note_on_c, 11, 57, 80
1, 54230, Note_on_c, 11, 52, 80
1, 54240, Note_on_c, 2, 83, 85
1, 54240, Note_on_c, 3, 80, 85
1, 54240, Note_on_c, 4, 64, 85
1, 54240, Note_on_c, 9, 51, 60
1, 54240, Note_on_c, 9, 44, 80
1, 54240, Note_on_c, 8, 40, 80
1, 54250, Note_on_c, 9, 51, 0
1, 54250, Note_on_c, 9, 44, 0
1, 54320, Note_on_c, 2, 83, 0
1, 54320, Note_on_c, 3, 80, 0
1, 54320, Note_on_c, 4, 64, 0
1, 54360, Note_on_c, 2, 83, 80
1, 54360, Note_on_c, 3, 80, 80
1, 54360, Note_on_c, 4, 64, 80
1, 54420, Note_on_c, 2, 83, 0
1, 54420, Note_on_c, 3, 80, 0
1, 54420, Note_on_c, 4, 64, 0
1, 54440, Note_on_c, 8, 40, 0
1, 54480, Note_on_c, 2, 83, 80
1, 54480, Note_on_c, 3, 80, 80
1, 54480, Note_on_c, 4, 64, 80
1, 54480, Note_on_c, 9, 36, 60
1, 54480, Note_on_c, 8, 56, 100
1, 54490, Note_on_c, 9, 36, 0
1, 54560, Note_on_c, 2, 83, 0
1, 54560, Note_on_c, 3, 80, 0
1, 54560, Note_on_c, 4, 64, 0
1, 54600, Note_on_c, 2, 83, 80
1, 54600, Note_on_c, 3, 80, 80
1, 54600, Note_on_c, 4, 64, 80
1, 54660, Note_on_c, 2, 83, 0
1, 54660, Note_on_c, 3, 80, 0
1, 54660, Note_on_c, 4, 64, 0
1, 54680, Note_on_c, 8, 56, 0
1, 54710, Note_on_c, 11, 75, 0
1, 54710, Note_on_c, 11, 68, 0
1, 54710, Note_on_c, 11, 61, 0
1, 54710, Note_on_c, 11, 75, 70
1, 54710, Note_on_c, 11, 68, 70
1, 54710, Note_on_c, 11, 61, 70
1, 54720, Note_on_c, 2, 83, 85
1, 54720, Note_on_c, 3, 80, 85
1, 54720, Note_on_c, 4, 64, 85
1, 54720, Note_on_c, 9, 51, 60
1, 54720, Note_on_c, 9, 36, 70
1, 54720, Note_on_c, 8, 51, 70
1, 54730, Note_on_c, 9, 51, 0
1, 54730, Note_on_c, 9, 36, 0
1, 54840, Note_on_c, 2, 83, 0
1, 54840, Note_on_c, 3, 80, 0
1, 54840, Note_on_c, 4, 64, 0
1, 54960, Note_on_c, 2, 83, 80
1, 54960, Note_on_c, 3, 80, 80
1, 54960, Note_on_c, 4, 64, 80
1, 54960, Note_on_c, 9, 48, 100
1, 54970, Note_on_c, 9, 48, 0
1, 55040, Note_on_c, 2, 83, 0
1, 55040, Note_on_c, 3, 80, 0
1, 55040, Note_on_c, 4, 64, 0
1, 55080, Note_on_c, 2, 83, 80
1, 55080, Note_on_c, 3, 80, 80
1, 55080, Note_on_c, 4, 64, 80
1, 55150, Note_on_c, 2, 83, 0
1, 55150, Note_on_c, 3, 80, 0
1, 55150, Note_on_c, 4, 64, 0
1, 55200, Note_on_c, 2, 83, 85
1, 55200, Note_on_c, 3, 80, 85
1, 55200, Note_on_c, 4, 64, 85
1, 55200, Note_on_c, 9, 51, 60
1, 55200, Note_on_c, 9, 48, 90
1, 55200, Note_on_c, 9, 44, 90
1, 55210, Note_on_c, 9, 51, 0
1, 55210, Note_on_c, 9, 48, 0
1, 55210, Note_on_c, 9, 44, 0
1, 55310, Note_on_c, 11, 57, 0
1, 55310, Note_on_c, 11, 52, 0
1, 55320, Note_on_c, 2, 83, 0
1, 55320, Note_on_c, 3, 80, 0
1, 55320, Note_on_c, 4, 64, 0
1, 55320, Note_on_c, 8, 51, 0
1, 55420, Note_on_c, 0, 66, 0
1, 55420, Note_on_c, 1, 61, 0
1, 55440, Note_on_c, 2, 83, 80
1, 55440, Note_on_c, 3, 80, 80
1, 55440, Note_on_c, 4, 64, 80
1, 55440, Note_on_c, 9, 36, 50
1, 55440, Note_on_c, 8, 40, 100
1, 55450, Note_on_c, 9, 36, 0
1, 55500, Note_on_c, 12, 73, 0
1, 55500, Note_on_c, 12, 66, 0
1, 55500, Note_on_c, 12, 61, 0
1, 55500, Note_on_c, 12, 57, 0
1, 55500, Note_on_c, 12, 52, 0
1, 55520, Note_on_c, 2, 83, 0
1, 55520, Note_on_c, 3, 80, 0
1, 55520, Note_on_c, 4, 64, 0
1, 55560, Note_on_c, 2, 83, 80
1, 55560, Note_on_c, 3, 80, 80
1, 55560, Note_on_c, 4, 64, 80
1, 55600, Note_on_c, 0, 61, 80
1, 55610, Note_on_c, 11, 75, 0
1, 55610, Note_on_c, 11, 68, 0
1, 55610, Note_on_c, 11, 61, 0
1, 55630, Note_on_c, 2, 83, 0
1, 55630, Note_on_c, 3, 80, 0
1, 55630, Note_on_c, 4, 64, 0
1, 55640, Note_on_c, 8, 40, 0
1, 55670, Note_on_c, 11, 52, 80
1, 55680, Note_on_c, 0, 61, 0
1, 55680, Note_on_c, 0, 63, 100
1, 55680, Note_on_c, 1, 59, 100
1, 55680, Note_on_c, 2, 83, 85
1, 55680, Note_on_c, 3, 80, 85
1, 55680, Note_on_c, 4, 64, 85
1, 55680, Note_on_c, 9, 51, 60
1, 55680, Note_on_c, 9, 36, 100
1, 55680, Note_on_c, 8, 45, 110
1, 55680, Note_on_c, 11, 57, 80
1, 55680, Note_on_c, 12, 73, 80
1, 55680, Note_on_c, 12, 68, 80
1, 55680, Note_on_c, 12, 63, 80
1, 55680, Note_on_c, 12, 57, 80
1, 55680, Note_on_c, 12, 52, 80
1, 55690, Note_on_c, 9, 51, 0
1, 55690, Note_on_c, 9, 36, 0
1, 55690, Note_on_c, 11, 61, 80
1, 55700, Note_on_c, 11, 66, 80
1, 55760, Note_on_c, 2, 83, 0
1, 55760, Note_on_c, 3, 80, 0
1, 55760, Note_on_c, 4, 64, 0
1, 55800, Note_on_c, 2, 83, 80
1, 55800, Note_on_c, 3, 80, 80
1, 55800, Note_on_c, 4, 64, 80
1, 55860, Note_on_c, 2, 83, 0
1, 55860, Note_on_c, 3, 80, 0
1, 55860, Note_on_c, 4, 64, 0
1, 55920, Note_on_c, 2, 83, 80
1, 55920, Note_on_c, 3, 80, 80
1, 55920, Note_on_c, 4, 64, 80
1, 55980, Note_on_c, 0, 63, 0
1, 55980, Note_on_c, 1, 59, 0
1, 56000, Note_on_c, 2, 83, 0
1, 56000, Note_on_c, 3, 80, 0
1, 56000, Note_on_c, 4, 64, 0
1, 56040, Note_on_c, 0, 66, 100
1, 56040, Note_on_c, 1, 63, 100
1, 56040, Note_on_c, 2, 83, 80
1, 56040, Note_on_c, 3, 80, 80
1, 56040, Note_on_c, 4, 64, 80
1, 56080, Note_on_c, 8, 45, 0
1, 56100, Note_on_c, 2, 83, 0
1, 56100, Note_on_c, 3, 80, 0
1, 56100, Note_on_c, 4, 64, 0
1, 56160, Note_on_c, 2, 83, 85
1, 56160, Note_on_c, 3, 80, 85
1, 56160, Note_on_c, 4, 64, 85
1, 56160, Note_on_c, 9, 51, 60
1, 56160, Note_on_c, 9, 44, 80
1, 56160, Note_on_c, 9, 40, 50
1, 56160, Note_on_c, 9, 37, 60
1, 56170, Note_on_c, 9, 51, 0
1, 56170, Note_on_c, 9, 44, 0
1, 56170, Note_on_c, 9, 40, 0
1, 56170, Note_on_c, 9, 37, 0
1, 56280, Note_on_c, 2, 83, 0
1, 56280, Note_on_c, 3, 80, 0
1, 56280, Note_on_c, 4, 64, 0
1, 56400, Note_on_c, 0, 66, 0
1, 56400, Note_on_c, 0, 63, 90
1, 56400, Note_on_c, 1, 63, 0
1, 56400, Note_on_c, 1, 59, 90
1, 56400, Note_on_c, 2, 83, 80
1, 56400, Note_on_c, 3, 80, 80
1, 56400, Note_on_c, 4, 64, 80
1, 56400, Note_on_c, 9, 36, 50
1, 56400, Note_on_c, 8, 40, 90
1, 56410, Note_on_c, 9, 36, 0
1, 56480, Note_on_c, 0, 63, 0
1, 56480, Note_on_c, 0, 61, 90
1, 56480, Note_on_c, 1, 59, 0
1, 56480, Note_on_c, 1, 56, 90
1, 56480, Note_on_c, 2, 83, 0
1, 56480, Note_on_c, 3, 80, 0
1, 56480, Note_on_c, 4, 64, 0
1, 56520, Note_on_c, 2, 83, 80
1, 56520, Note_on_c, 3, 80, 80
1, 56520, Note_on_c, 4, 64, 80
1, 56560, Note_on_c, 0, 61, 0
1, 56560, Note_on_c, 0, 59, 80
1, 56560, Note_on_c, 1, 56, 0
1, 56560, Note_on_c, 1, 54, 80
1, 56590, Note_on_c, 2, 83, 0
1, 56590, Note_on_c, 3, 80, 0
1, 56590, Note_on_c, 4, 64, 0
1, 56600, Note_on_c, 8, 40, 0
1, 56640, Note_on_c, 0, 59, 0
1, 56640, Note_on_c, 0, 63, 100
1, 56640, Note_on_c, 1, 54, 0
1, 56640, Note_on_c, 1, 59, 100
1, 56640, Note_on_c, 2, 83, 85
1, 56640, Note_on_c, 3, 80, 85
1, 56640, Note_on_c, 4, 64, 85
1, 56640, Note_on_c, 9, 51, 50
1, 56640, Note_on_c, 9, 36, 80
1, 56640, Note_on_c, 8, 45, 110
1, 56650, Note_on_c, 9, 51, 0
1, 56650, Note_on_c, 9, 36, 0
1, 56670, Note_on_c, 11, 52, 0
1, 56680, Note_on_c, 11, 57, 0
1, 56690, Note_on_c, 11, 61, 0
1, 56700, Note_on_c, 11, 66, 0
1, 56760, Note_on_c, 2, 83, 0
1, 56760, Note_on_c, 3, 80, 0
1, 56760, Note_on_c, 4, 64, 0
1, 56880, Note_on_c, 2, 83, 80
1, 56880, Note_on_c, 3, 80, 80
1, 56880, Note_on_c, 4, 64, 80
1, 56940, Note_on_c, 0, 63, 0
1, 56940, Note_on_c, 1, 59, 0
1, 56960, Note_on_c, 2, 83, 0
1, 56960, Note_on_c, 3, 80, 0
1, 56960, Note_on_c, 4, 64, 0
1, 57000, Note_on_c, 0, 66, 100
1, 57000, Note_on_c, 1, 63, 100
1, 57000, Note_on_c, 2, 83, 80
1, 57000, Note_on_c, 3, 80, 80
1, 57000, Note_on_c, 4, 64, 80
1, 57040, Note_on_c, 8, 45, 0
1, 57070, Note_on_c, 2, 83, 0
1, 57070, Note_on_c, 3, 80, 0
1, 57070, Note_on_c, 4, 64, 0
1, 57110, Note_on_c, 11, 52, 70
1, 57120, Note_on_c, 2, 83, 85
1, 57120, Note_on_c, 3, 80, 85
1, 57120, Note_on_c, 4, 64, 85
1, 57120, Note_on_c, 9, 51, 50
1, 57120, Note_on_c, 9, 44, 80
1, 57120, Note_on_c, 9, 40, 60
1, 57120, Note_on_c, 9, 37, 70
1, 57120, Note_on_c, 11, 57, 70
1, 57130, Note_on_c, 9, 51, 0
1, 57130, Note_on_c, 9, 44, 0
1, 57130, Note_on_c, 9, 40, 0
1, 57130, Note_on_c, 9, 37, 0
1, 57130, Note_on_c, 11, 61, 70
1, 57140, Note_on_c, 11, 66, 70
1, 57200, Note_on_c, 2, 83, 0
1, 57200, Note_on_c, 3, 80, 0
1, 57200, Note_on_c, 4, 64, 0
1, 57240, Note_on_c, 2, 83, 80
1, 57240, Note_on_c, 3, 80, 80
1, 57240, Note_on_c, 4, 64, 80
1, 57300, Note_on_c, 2, 83, 0
1, 57300, Note_on_c, 3, 80, 0
1, 57300, Note_on_c, 4, 64, 0
1, 57360, Note_on_c, 0, 66, 0
1, 57360, Note_on_c, 0, 63, 90
1, 57360, Note_on_c, 1, 63, 0
1, 57360, Note_on_c, 1, 59, 90
1, 57360, Note_on_c, 2, 83, 80
1, 57360, Note_on_c, 3, 80, 80
1, 57360, Note_on_c, 4, 64, 80
1, 57360, Note_on_c, 9, 36, 50
1, 57360, Note_on_c, 8, 40, 90
1, 57370, Note_on_c, 9, 36, 0
1, 57440, Note_on_c, 0, 63, 0
1, 57440, Note_on_c, 0, 61, 90
1, 57440, Note_on_c, 1, 59, 0
1, 57440, Note_on_c, 1, 56, 90
1, 57440, Note_on_c, 2, 83, 0
1, 57440, Note_on_c, 3, 80, 0
1, 57440, Note_on_c, 4, 64, 0
1, 57480, Note_on_c, 2, 83, 80
1, 57480, Note_on_c, 3, 80, 80
1, 57480, Note_on_c, 4, 64, 80
1, 57520, Note_on_c, 0, 61, 0
1, 57520, Note_on_c, 0, 59, 80
1, 57520, Note_on_c, 1, 56, 0
1, 57520, Note_on_c, 1, 54, 80
1, 57540, Note_on_c, 2, 83, 0
1, 57540, Note_on_c, 3, 80, 0
1, 57540, Note_on_c, 4, 64, 0
1, 57560, Note_on_c, 8, 40, 0
1, 57600, Note_on_c, 0, 59, 0
1, 57600, Note_on_c, 0, 63, 100
1, 57600, Note_on_c, 1, 54, 0
1, 57600, Note_on_c, 1, 59, 100
1, 57600, Note_on_c, 2, 83, 85
1, 57600, Note_on_c, 3, 80, 85
1, 57600, Note_on_c, 4, 64, 85
1, 57600, Note_on_c, 9, 51, 60
1, 57600, Note_on_c, 9, 36, 70
1, 57600, Note_on_c, 8, 45, 100
1, 57610, Note_on_c, 9, 51, 0
1, 57610, Note_on_c, 9, 36, 0
1, 57720, Note_on_c, 2, 83, 0
1, 57720, Note_on_c, 3, 80, 0
1, 57720, Note_on_c, 4, 64, 0
1, 57820, Note_on_c, 8, 45, 0
1, 57840, Note_on_c, 2, 83, 80
1, 57840, Note_on_c, 3, 80, 80
1, 57840, Note_on_c, 4, 64, 80
1, 57840, Note_on_c, 9, 36, 50
1, 57840, Note_on_c, 8, 45, 90
1, 57850, Note_on_c, 9, 36, 0
1, 57900, Note_on_c, 0, 63, 0
1, 57900, Note_on_c, 1, 59, 0
1, 57920, Note_on_c, 2, 83, 0
1, 57920, Note_on_c, 3, 80, 0
1, 57920, Note_on_c, 4, 64, 0
1, 57960, Note_on_c, 0, 66, 100
1, 57960, Note_on_c, 1, 63, 100
1, 57960, Note_on_c, 2, 83, 80
1, 57960, Note_on_c, 3, 80, 80
1, 57960, Note_on_c, 4, 64, 80
1, 58020, Note_on_c, 11, 57, 0
1, 58030, Note_on_c, 11, 61, 0
1, 58040, Note_on_c, 2, 83, 0
1, 58040, Note_on_c, 3, 80, 0
1, 58040, Note_on_c, 4, 64, 0
1, 58040, Note_on_c, 8, 45, 0
1, 58040, Note_on_c, 11, 66, 0
1, 58080, Note_on_c, 2, 83, 85
1, 58080, Note_on_c, 3, 80, 85
1, 58080, Note_on_c, 4, 64, 85
1, 58080, Note_on_c, 9, 51, 60
1, 58080, Note_on_c, 9, 44, 80
1, 58080, Note_on_c, 9, 40, 60
1, 58080, Note_on_c, 9, 37, 70
1, 58080, Note_on_c, 8, 40, 80
1, 58080, Note_on_c, 11, 57, 70
1, 58090, Note_on_c, 9, 51, 0
1, 58090, Note_on_c, 9, 44, 0
1, 58090, Note_on_c, 9, 40, 0
1, 58090, Note_on_c, 9, 37, 0
1, 58090, Note_on_c, 11, 61, 70
1, 58100, Note_on_c, 11, 66, 70
1, 58200, Note_on_c, 2, 83, 0
1, 58200, Note_on_c, 3, 80, 0
1, 58200, Note_on_c, 4, 64, 0
1, 58280, Note_on_c, 8, 40, 0
1, 58320, Note_on_c, 0, 66, 0
1, 58320, Note_on_c, 0, 63, 90
1, 58320, Note_on_c, 1, 63, 0
1, 58320, Note_on_c, 1, 59, 90
1, 58320, Note_on_c, 2, 83, 80
1, 58320, Note_on_c, 3, 80, 80
1, 58320, Note_on_c, 4, 64, 80
1, 58320, Note_on_c, 9, 36, 50
1, 58320, Note_on_c, 8, 56, 100
1, 58330, Note_on_c, 9, 36, 0
1, 58400, Note_on_c, 0, 63, 0
1, 58400, Note_on_c, 0, 61, 90
1, 58400, Note_on_c, 1, 59, 0
1, 58400, Note_on_c, 1, 56, 90
1, 58400, Note_on_c, 2, 83, 0
1, 58400, Note_on_c, 3, 80, 0
1, 58400, Note_on_c, 4, 64, 0
1, 58440, Note_on_c, 2, 83, 80
1, 58440, Note_on_c, 3, 80, 80
1, 58440, Note_on_c, 4, 64, 80
1, 58480, Note_on_c, 0, 61, 0
1, 58480, Note_on_c, 0, 59, 80
1, 58480, Note_on_c, 1, 56, 0
1, 58480, Note_on_c, 1, 54, 80
1, 58520, Note_on_c, 2, 83, 0
1, 58520, Note_on_c, 3, 80, 0
1, 58520, Note_on_c, 4, 64, 0
1, 58520, Note_on_c, 8, 56, 0
1, 58550, Note_on_c, 11, 66, 0
1, 58550, Note_on_c, 11, 66, 70
1, 58560, Note_on_c, 0, 59, 0
1, 58560, Note_on_c, 0, 61, 100
1, 58560, Note_on_c, 1, 54, 0
1, 58560, Note_on_c, 1, 57, 100
1, 58560, Note_on_c, 2, 83, 85
1, 58560, Note_on_c, 3, 80, 85
1, 58560, Note_on_c, 4, 64, 85
1, 58560, Note_on_c, 9, 51, 50
1, 58560, Note_on_c, 9, 36, 70
1, 58560, Note_on_c, 8, 51, 70
1, 58570, Note_on_c, 9, 51, 0
1, 58570, Note_on_c, 9, 36, 0
1, 58640, Note_on_c, 2, 83, 0
1, 58640, Note_on_c, 3, 80, 0
1, 58640, Note_on_c, 4, 64, 0
1, 58680, Note_on_c, 2, 83, 80
1, 58680, Note_on_c, 3, 80, 80
1, 58680, Note_on_c, 4, 64, 80
1, 58740, Note_on_c, 2, 83, 0
1, 58740, Note_on_c, 3, 80, 0
1, 58740, Note_on_c, 4, 64, 0
1, 58800, Note_on_c, 2, 83, 80
1, 58800, Note_on_c, 3, 80, 80
1, 58800, Note_on_c, 4, 64, 80
1, 58800, Note_on_c, 9, 45, 80
1, 58810, Note_on_c, 9, 45, 0
1, 58860, Note_on_c, 0, 61, 0
1, 58860, Note_on_c, 1, 57, 0
1, 58880, Note_on_c, 2, 83, 0
1, 58880, Note_on_c, 3, 80, 0
1, 58880, Note_on_c, 4, 64, 0
1, 58920, Note_on_c, 0, 59, 90
1, 58920, Note_on_c, 1, 56, 90
1, 58920, Note_on_c, 2, 83, 80
1, 58920, Note_on_c, 3, 80, 80
1, 58920, Note_on_c, 4, 64, 80
1, 58980, Note_on_c, 2, 83, 0
1, 58980, Note_on_c, 3, 80, 0
1, 58980, Note_on_c, 4, 64, 0
1, 58980, Note_on_c, 11, 57, 0
1, 58990, Note_on_c, 11, 61, 0
1, 59020, Note_on_c, 0, 59, 0
1, 59020, Note_on_c, 1, 56, 0
1, 59040, Note_on_c, 0, 56, 100
1, 59040, Note_on_c, 1, 52, 100
1, 59040, Note_on_c, 2, 83, 85
1, 59040, Note_on_c, 3, 80, 85
1, 59040, Note_on_c, 4, 64, 85
1, 59040, Note_on_c, 9, 51, 50
1, 59040, Note_on_c, 9, 45, 80
1, 59040, Note_on_c, 9, 44, 90
1, 59050, Note_on_c, 9, 51, 0
1, 59050, Note_on_c, 9, 45, 0
1, 59050, Note_on_c, 9, 44, 0
1, 59160, Note_on_c, 2, 83, 0
1, 59160, Note_on_c, 3, 80, 0
1, 59160, Note_on_c, 4, 64, 0
1, 59160, Note_on_c, 8, 51, 0
1, 59280, Note_on_c, 2, 83, 80
1, 59280, Note_on_c, 3, 80, 80
1, 59280, Note_on_c, 4, 64, 80
1, 59280, Note_on_c, 9, 36, 50
1, 59280, Note_on_c, 8, 40, 100
1, 59290, Note_on_c, 9, 36, 0
1, 59320, Note_on_c, 12, 73, 0
1, 59320, Note_on_c, 12, 68, 0
1, 59320, Note_on_c, 12, 63, 0
1, 59320, Note_on_c, 12, 57, 0
1, 59320, Note_on_c, 12, 52, 0
1, 59360, Note_on_c, 2, 83, 0
1, 59360, Note_on_c, 3, 80, 0
1, 59360, Note_on_c, 4, 64, 0
1, 59400, Note_on_c, 2, 83, 80
1, 59400, Note_on_c, 3, 80, 80
1, 59400, Note_on_c, 4, 64, 80
1, 59450, Note_on_c, 11, 66, 0
1, 59470, Note_on_c, 2, 83, 0
1, 59470, Note_on_c, 3, 80, 0
1, 59470, Note_on_c, 4, 64, 0
1, 59480, Note_on_c, 8, 40, 0
1, 59520, Note_on_c, 2, 83, 85
1, 59520, Note_on_c, 3, 80, 85
1, 59520, Note_on_c, 4, 64, 85
1, 59520, Note_on_c, 9, 51, 60
1, 59520, Note_on_c, 9, 36, 90
1, 59520, Note_on_c, 8, 45, 110
1, 59520, Note_on_c, 11, 57, 80
1, 59520, Note_on_c, 12, 73, 80
1, 59520, Note_on_c, 12, 68, 80
1, 59520, Note_on_c, 12, 63, 80
1, 59520, Note_on_c, 12, 57, 80
1, 59520, Note_on_c, 12, 52, 80
1, 59530, Note_on_c, 9, 51, 0
1, 59530, Note_on_c, 9, 36, 0
1, 59530, Note_on_c, 11, 61, 80
1, 59540, Note_on_c, 11, 66, 80
1, 59640, Note_on_c, 2, 83, 0
1, 59640, Note_on_c, 3, 80, 0
1, 59640, Note_on_c, 4, 64, 0
1, 59760, Note_on_c, 2, 83, 80
1, 59760, Note_on_c, 3, 80, 80
1, 59760, Note_on_c, 4, 64, 80
1, 59840, Note_on_c, 2, 83, 0
1, 59840, Note_on_c, 3, 80, 0
1, 59840, Note_on_c, 4, 64, 0
1, 59880, Note_on_c, 2, 83, 80
1, 59880, Note_on_c, 3, 80, 80
1, 59880, Note_on_c, 4, 64, 80
1, 59920, Note_on_c, 8, 45, 0
1, 59960, Note_on_c, 2, 83, 0
1, 59960, Note_on_c, 3, 80, 0
1, 59960, Note_on_c, 4, 64, 0
1, 60000, Note_on_c, 2, 83, 85
1, 60000, Note_on_c, 3, 80, 85
1, 60000, Note_on_c, 4, 64, 85
1, 60000, Note_on_c, 9, 51, 60
1, 60000, Note_on_c, 9, 44, 80
1, 60000, Note_on_c, 9, 40, 60
1, 60000, Note_on_c, 9, 37, 70
1, 60010, Note_on_c, 9, 51, 0
1, 60010, Note_on_c, 9, 44, 0
1, 60010, Note_on_c, 9, 40, 0
1, 60010, Note_on_c, 9, 37, 0
1, 60080, Note_on_c, 2, 83, 0
1, 60080, Note_on_c, 3, 80, 0
1, 60080, Note_on_c, 4, 64, 0
1, 60120, Note_on_c, 2, 83, 80
1, 60120, Note_on_c, 3, 80, 80
1, 60120, Note_on_c, 4, 64, 80
1, 60150, Note_on_c, 11, 52, 0
1, 60180, Note_on_c, 2, 83, 0
1, 60180, Note_on_c, 3, 80, 0
1, 60180, Note_on_c, 4, 64, 0
1, 60240, Note_on_c, 2, 83, 80
1, 60240, Note_on_c, 3, 80, 80
1, 60240, Note_on_c, 4, 64, 80
1, 60240, Note_on_c, 9, 36, 50
1, 60240, Note_on_c, 8, 40, 90
1, 60250, Note_on_c, 9, 36, 0
1, 60320, Note_on_c, 2, 83, 0
1, 60320, Note_on_c, 3, 80, 0
1, 60320, Note_on_c, 4, 64, 0
1, 60360, Note_on_c, 2, 83, 80
1, 60360, Note_on_c, 3, 80, 80
1, 60360, Note_on_c, 4, 64, 80
1, 60420, Note_on_c, 2, 83, 0
1, 60420, Note_on_c, 3, 80, 0
1, 60420, Note_on_c, 4, 64, 0
1, 60440, Note_on_c, 8, 40, 0
1, 60480, Note_on_c, 2, 83, 85
1, 60480, Note_on_c, 3, 80, 85
1, 60480, Note_on_c, 4, 64, 85
1, 60480, Note_on_c, 9, 51, 60
1, 60480, Note_on_c, 9, 36, 70
1, 60480, Note_on_c, 8, 45, 110
1, 60490, Note_on_c, 9, 51, 0
1, 60490, Note_on_c, 9, 36, 0
1, 60520, Note_on_c, 11, 57, 0
1, 60530, Note_on_c, 11, 61, 0
1, 60540, Note_on_c, 11, 66, 0
1, 60600, Note_on_c, 2, 83, 0
1, 60600, Note_on_c, 3, 80, 0
1, 60600, Note_on_c, 4, 64, 0
1, 60720, Note_on_c, 2, 83, 80
1, 60720, Note_on_c, 3, 80, 80
1, 60720, Note_on_c, 4, 64, 80
1, 60800, Note_on_c, 2, 83, 0
1, 60800, Note_on_c, 3, 80, 0
1, 60800, Note_on_c, 4, 64, 0
1, 60840, Note_on_c, 2, 83, 80
1, 60840, Note_on_c, 3, 80, 80
1, 60840, Note_on_c, 4, 64, 80
1, 60880, Note_on_c, 8, 45, 0
1, 60910, Note_on_c, 2, 83, 0
1, 60910, Note_on_c, 3, 80, 0
1, 60910, Note_on_c, 4, 64, 0
1, 60950, Note_on_c, 11, 52, 70
1, 60960, Note_on_c, 2, 83, 85
1, 60960, Note_on_c, 3, 80, 85
1, 60960, Note_on_c, 4, 64, 85
1, 60960, Note_on_c, 9, 51, 60
1, 60960, Note_on_c, 9, 44, 80
1, 60960, Note_on_c, 9, 40, 60
1, 60960, Note_on_c, 9, 37, 70
1, 60960, Note_on_c, 11, 57, 70
1, 60970, Note_on_c, 9, 51, 0
1, 60970, Note_on_c, 9, 44, 0
1, 60970, Note_on_c, 9, 40, 0
1, 60970, Note_on_c, 9, 37, 0
1, 60970, Note_on_c, 11, 61, 70
1, 60980, Note_on_c, 11, 66, 70
1, 61080, Note_on_c, 2, 83, 0
1, 61080, Note_on_c, 3, 80, 0
1, 61080, Note_on_c, 4, 64, 0
1, 61200, Note_on_c, 2, 83, 80
1, 61200, Note_on_c, 3, 80, 80
1, 61200, Note_on_c, 4, 64, 80
1, 61200, Note_on_c, 9, 36, 50
1, 61200, Note_on_c, 8, 40, 90
1, 61210, Note_on_c, 9, 36, 0
1, 61280, Note_on_c, 2, 83, 0
1, 61280, Note_on_c, 3, 80, 0
1, 61280, Note_on_c, 4, 64, 0
1, 61320, Note_on_c, 2, 83, 80
1, 61320, Note_on_c, 3, 80, 80
1, 61320, Note_on_c, 4, 64, 80
1, 61400, Note_on_c, 2, 83, 0
1, 61400, Note_on_c, 3, 80, 0
1, 61400, Note_on_c, 4, 64, 0
1, 61400, Note_on_c, 8, 40, 0
1, 61440, Note_on_c, 2, 83, 85
1, 61440, Note_on_c, 3, 80, 85
1, 61440, Note_on_c, 4, 64, 85
1, 61440, Note_on_c, 9, 51, 70
1, 61440, Note_on_c, 9, 36, 90
1, 61440, Note_on_c, 8, 45, 100
1, 61450, Note_on_c, 9, 51, 0
1, 61450, Note_on_c, 9, 36, 0
1, 61520, Note_on_c, 2, 83, 0
1, 61520, Note_on_c, 3, 80, 0
1, 61520, Note_on_c, 4, 64, 0
1, 61560, Note_on_c, 2, 83, 80
1, 61560, Note_on_c, 3, 80, 80
1, 61560, Note_on_c, 4, 64, 80
1, 61620, Note_on_c, 2, 83, 0
1, 61620, Note_on_c, 3, 80, 0
1, 61620, Note_on_c, 4, 64, 0
1, 61660, Note_on_c, 8, 45, 0
1, 61680, Note_on_c, 2, 83, 80
1, 61680, Note_on_c, 3, 80, 80
1, 61680, Note_on_c, 4, 64, 80
1, 61680, Note_on_c, 9, 40, 70
1, 61680, Note_on_c, 8, 45, 90
1, 61690, Note_on_c, 9, 40, 0
1, 61760, Note_on_c, 2, 83, 0
1, 61760, Note_on_c, 3, 80, 0
1, 61760, Note_on_c, 4, 64, 0
1, 61800, Note_on_c, 2, 83, 80
1, 61800, Note_on_c, 3, 80, 80
1, 61800, Note_on_c, 4, 64, 80
1, 61860, Note_on_c, 2, 83, 0
1, 61860, Note_on_c, 3, 80, 0
1, 61860, Note_on_c, 4, 64, 0
1, 61860, Note_on_c, 11, 57, 0
1, 61870, Note_on_c, 11, 61, 0
1, 61880, Note_on_c, 8, 45, 0
1, 61880, Note_on_c, 11, 66, 0
1, 61920, Note_on_c, 2, 83, 85
1, 61920, Note_on_c, 3, 80, 85
1, 61920, Note_on_c, 4, 64, 85
1, 61920, Note_on_c, 9, 51, 70
1, 61920, Note_on_c, 9, 44, 80
1, 61920, Note_on_c, 8, 40, 80
1, 61920, Note_on_c, 11, 57, 65
1, 61930, Note_on_c, 9, 51, 0
1, 61930, Note_on_c, 9, 44, 0
1, 61930, Note_on_c, 11, 61, 65
1, 61940, Note_on_c, 11, 66, 65
1, 62040, Note_on_c, 2, 83, 0
1, 62040, Note_on_c, 3, 80, 0
1, 62040, Note_on_c, 4, 64, 0
1, 62120, Note_on_c, 8, 40, 0
1, 62160, Note_on_c, 2, 83, 80
1, 62160, Note_on_c, 3, 80, 80
1, 62160, Note_on_c, 4, 64, 80
1, 62160, Note_on_c, 9, 45, 70
1, 62160, Note_on_c, 9, 36, 80
1, 62160, Note_on_c, 8, 56, 100
1, 62170, Note_on_c, 9, 45, 0
1, 62170, Note_on_c, 9, 36, 0
1, 62240, Note_on_c, 2, 83, 0
1, 62240, Note_on_c, 3, 80, 0
1, 62240, Note_on_c, 4, 64, 0
1, 62280, Note_on_c, 2, 83, 80
1, 62280, Note_on_c, 3, 80, 80
1, 62280, Note_on_c, 4, 64, 80
1, 62360, Note_on_c, 2, 83, 0
1, 62360, Note_on_c, 3, 80, 0
1, 62360, Note_on_c, 4, 64, 0
1, 62360, Note_on_c, 8, 56, 0
1, 62390, Note_on_c, 11, 66, 0
1, 62390, Note_on_c, 11, 66, 70
1, 62400, Note_on_c, 2, 83, 85
1, 62400, Note_on_c, 3, 80, 85
1, 62400, Note_on_c, 4, 64, 85
1, 62400, Note_on_c, 9, 51, 80
1, 62400, Note_on_c, 9, 36, 80
1, 62400, Note_on_c, 8, 51, 80
1, 62410, Note_on_c, 9, 51, 0
1, 62410, Note_on_c, 9, 36, 0
1, 62520, Note_on_c, 2, 83, 0
1, 62520, Note_on_c, 3, 80, 0
1, 62520, Note_on_c, 4, 64, 0
1, 62640, Note_on_c, 2, 83, 80
1, 62640, Note_on_c, 3, 80, 80
1, 62640, Note_on_c, 4, 64, 80
1, 62640, Note_on_c, 9, 40, 80
1, 62650, Note_on_c, 9, 40, 0
1, 62720, Note_on_c, 2, 83, 0
1, 62720, Note_on_c, 3, 80, 0
1, 62720, Note_on_c, 4, 64, 0
1, 62760, Note_on_c, 2, 83, 80
1, 62760, Note_on_c, 3, 80, 80
1, 62760, Note_on_c, 4, 64, 80
1, 62760, Note_on_c, 9, 40, 60
1, 62770, Note_on_c, 9, 40, 0
1, 62820, Note_on_c, 11, 57, 0
1, 62830, Note_on_c, 11, 61, 0
1, 62840, Note_on_c, 2, 83, 0
1, 62840, Note_on_c, 3, 80, 0
1, 62840, Note_on_c, 4, 64, 0
1, 62880, Note_on_c, 2, 83, 85
1, 62880, Note_on_c, 3, 80, 85
1, 62880, Note_on_c, 4, 64, 85
1, 62880, Note_on_c, 9, 48, 110
1, 62880, Note_on_c, 9, 44, 90
1, 62880, Note_on_c, 8, 49, 70
1, 62890, Note_on_c, 9, 48, 0
1, 62890, Note_on_c, 9, 44, 0
1, 62980, Note_on_c, 2, 83, 0
1, 62980, Note_on_c, 3, 80, 0
1, 62980, Note_on_c, 4, 64, 0
1, 63000, Note_on_c, 2, 83, 80
1, 63000, Note_on_c, 3, 80, 80
1, 63000, Note_on_c, 4, 64, 80
1, 63000, Note_on_c, 9, 48, 80
1, 63000, Note_on_c, 8, 51, 0
1, 63010, Note_on_c, 9, 48, 0
1, 63080, Note_on_c, 2, 83, 0
1, 63080, Note_on_c, 3, 80, 0
1, 63080, Note_on_c, 4, 64, 0
1, 63120, Note_on_c, 2, 83, 80
1, 63120, Note_on_c, 3, 80, 80
1, 63120, Note_on_c, 4, 64, 80
1, 63120, Note_on_c, 9, 43, 100
1, 63130, Note_on_c, 9, 43, 0
1, 63160, Note_on_c, 12, 73, 0
1, 63160, Note_on_c, 12, 68, 0
1, 63160, Note_on_c, 12, 63, 0
1, 63160, Note_on_c, 12, 57, 0
1, 63160, Note_on_c, 12, 52, 0
1, 63180, Note_on_c, 0, 56, 0
1, 63180, Note_on_c, 1, 52, 0
1, 63200, Note_on_c, 2, 83, 0
1, 63200, Note_on_c, 3, 80, 0
1, 63200, Note_on_c, 4, 64, 0
1, 63240, Note_on_c, 2, 83, 80
1, 63240, Note_on_c, 3, 80, 80
1, 63240, Note_on_c, 4, 64, 80
1, 63240, Note_on_c, 9, 43, 70
1, 63250, Note_on_c, 9, 43, 0
1, 63290, Note_on_c, 11, 66, 0
1, 63310, Note_on_c, 8, 49, 0
1, 63320, Note_on_c, 2, 83, 0
1, 63320, Note_on_c, 3, 80, 0
1, 63320, Note_on_c, 4, 64, 0
1, 63350, Control_c, 11, 11, 100
1, 63350, Note_on_c, 11, 65, 80
1, 63350, Note_on_c, 11, 57, 80
1, 63360, Control_c, 0, 91, 100
1, 63360, Control_c, 0, 93, 0
1, 63360, Control_c, 0, 11, 127
1, 63360, Note_on_c, 2, 83, 85
1, 63360, Note_on_c, 3, 80, 85
1, 63360, Note_on_c, 4, 64, 85
1, 63360, Control_c, 9, 11, 110
1, 63360, Note_on_c, 9, 51, 60
1, 63360, Note_on_c, 9, 36, 70
1, 63360, Control_c, 8, 11, 110
1, 63360, Note_on_c, 8, 41, 100
1, 63360, Note_on_c, 11, 72, 80
1, 63360, Note_on_c, 11, 67, 80
1, 63360, Control_c, 12, 11, 90
1, 63360, Note_on_c, 12, 72, 90
1, 63360, Note_on_c, 12, 67, 90
1, 63360, Note_on_c, 12, 64, 90
1, 63360, Note_on_c, 12, 53, 90
1, 63370, Note_on_c, 9, 51, 0
1, 63370, Note_on_c, 9, 36, 0
1, 63370, Note_on_c, 11, 76, 80
1, 63550, Note_on_c, 11, 65, 0
1, 63550, Note_on_c, 11, 57, 0
1, 63560, Note_on_c, 11, 72, 0
1, 63560, Note_on_c, 11, 67, 0
1, 63570, Note_on_c, 11, 76, 0
1, 63600, Note_on_c, 9, 51, 40
1, 63610, Note_on_c, 9, 51, 0
1, 63660, Note_on_c, 4, 64, 0
1, 63760, Note_on_c, 3, 80, 0
1, 63830, Note_on_c, 11, 65, 90
1, 63830, Note_on_c, 11, 57, 90
1, 63840, Note_on_c, 0, 64, 110
1, 63840, Note_on_c, 9, 51, 50
1, 63840, Note_on_c, 9, 44, 90
1, 63840, Note_on_c, 9, 40, 60
1, 63840, Note_on_c, 9, 37, 70
1, 63840, Note_on_c, 11, 67, 90
1, 63850, Note_on_c, 9, 51, 0
1, 63850, Note_on_c, 9, 44, 0
1, 63850, Note_on_c, 9, 40, 0
1, 63850, Note_on_c, 9, 37, 0
1, 63850, Note_on_c, 11, 72, 80
1, 63860, Note_on_c, 2, 83, 0
1, 63860, Note_on_c, 11, 76, 80
1, 63990, Note_on_c, 11, 52, 0
1, 64060, Note_on_c, 8, 41, 0
1, 64080, Note_on_c, 9, 51, 40
1, 64080, Note_on_c, 9, 36, 50
1, 64080, Note_on_c, 8, 36, 70
1, 64090, Note_on_c, 9, 51, 0
1, 64090, Note_on_c, 9, 36, 0
1, 64120, Note_on_c, 0, 65, 80
1, 64130, Note_on_c, 0, 64, 0
1, 64260, Note_on_c, 12, 72, 0
1, 64260, Note_on_c, 12, 67, 0
1, 64260, Note_on_c, 12, 64, 0
1, 64260, Note_on_c, 12, 53, 0
1, 64300, Note_on_c, 8, 36, 0
1, 64320, Note_on_c, 9, 51, 50
1, 64320, Note_on_c, 9, 36, 60
1, 64320, Note_on_c, 8, 41, 100
1, 64320, Note_on_c, 12, 72, 80
1, 64320, Note_on_c, 12, 67, 80
1, 64320, Note_on_c, 12, 64, 80
1, 64320, Note_on_c, 12, 53, 80
1, 64330, Note_on_c, 9, 51, 0
1, 64330, Note_on_c, 9, 36, 0
1, 64410, Note_on_c, 0, 65, 0
1, 64420, Note_on_c, 0, 76, 90
1, 64560, Note_on_c, 9, 51, 40
1, 64560, Note_on_c, 8, 36, 80
1, 64570, Note_on_c, 9, 51, 0
1, 64570, Note_on_c, 8, 41, 0
1, 64800, Note_on_c, 9, 51, 40
1, 64800, Note_on_c, 9, 44, 90
1, 64800, Note_on_c, 9, 40, 50
1, 64800, Note_on_c, 9, 37, 50
1, 64800, Note_on_c, 8, 36, 0
1, 64800, Note_on_c, 8, 29, 90
1, 64810, Note_on_c, 9, 51, 0
1, 64810, Note_on_c, 9, 44, 0
1, 64810, Note_on_c, 9, 40, 0
1, 64810, Note_on_c, 9, 37, 0
1, 65020, Note_on_c, 0, 76, 0
1, 65030, Note_on_c, 11, 65, 0
1, 65030, Note_on_c, 11, 57, 0
1, 65030, Note_on_c, 11, 67, 0
1, 65030, Note_on_c, 11, 72, 0
1, 65030, Note_on_c, 11, 76, 0
1, 65030, Note_on_c, 11, 57, 70
1, 65040, Note_on_c, 9, 51, 40
1, 65040, Note_on_c, 9, 36, 50
1, 65040, Note_on_c, 8, 29, 0
1, 65040, Note_on_c, 8, 29, 90
1, 65040, Note_on_c, 11, 65, 70
1, 65040, Note_on_c, 12, 67, 0
1, 65040, Note_on_c, 12, 67, 60
1, 65050, Note_on_c, 0, 74, 82
1, 65050, Note_on_c, 9, 51, 0
1, 65050, Note_on_c, 9, 36, 0
1, 65050, Note_on_c, 11, 67, 70
1, 65060, Note_on_c, 11, 72, 70
1, 65070, Note_on_c, 11, 76, 70
1, 65220, Note_on_c, 12, 72, 0
1, 65220, Note_on_c, 12, 64, 0
1, 65220, Note_on_c, 12, 53, 0
1, 65260, Note_on_c, 12, 67, 0
1, 65270, Note_on_c, 0, 74, 0
1, 65280, Note_on_c, 0, 79, 85
1, 65280, Note_on_c, 9, 51, 50
1, 65280, Note_on_c, 12, 72, 80
1, 65280, Note_on_c, 12, 67, 80
1, 65280, Note_on_c, 12, 64, 80
1, 65280, Note_on_c, 12, 53, 80
1, 65290, Note_on_c, 9, 51, 0
1, 65520, Note_on_c, 9, 51, 40
1, 65520, Note_on_c, 9, 36, 60
1, 65530, Note_on_c, 9, 51, 0
1, 65530, Note_on_c, 9, 36, 0
1, 65760, Note_on_c, 9, 51, 50
1, 65760, Note_on_c, 9, 44, 90
1, 65770, Note_on_c, 9, 51, 0
1, 65770, Note_on_c, 9, 44, 0
1, 65980, Note_on_c, 8, 29, 0
1, 66000, Note_on_c, 0, 76, 80
1, 66000, Note_on_c, 9, 51, 40
1, 66000, Note_on_c, 9, 40, 60
1, 66000, Note_on_c, 9, 37, 60
1, 66000, Note_on_c, 8, 33, 90
1, 66010, Note_on_c, 0, 79, 0
1, 66010, Note_on_c, 9, 51, 0
1, 66010, Note_on_c, 9, 40, 0
1, 66010, Note_on_c, 9, 37, 0
1, 66170, Note_on_c, 0, 74, 70
1, 66180, Note_on_c, 0, 76, 0
1, 66180, Note_on_c, 12, 72, 0
1, 66180, Note_on_c, 12, 67, 0
1, 66180, Note_on_c, 12, 64, 0
1, 66180, Note_on_c, 12, 53, 0
1, 66240, Note_on_c, 9, 51, 40
1, 66240, Note_on_c, 9, 36, 50
1, 66240, Note_on_c, 12, 72, 70
1, 66240, Note_on_c, 12, 67, 70
1, 66240, Note_on_c, 12, 64, 70
1, 66240, Note_on_c, 12, 53, 70
1, 66250, Note_on_c, 9, 51, 0
1, 66250, Note_on_c, 9, 36, 0
1, 66290, Note_on_c, 0, 74, 0
1, 66300, Note_on_c, 0, 76, 80
1, 66440, Note_on_c, 12, 72, 0
1, 66440, Note_on_c, 12, 67, 0
1, 66440, Note_on_c, 12, 64, 0
1, 66440, Note_on_c, 12, 53, 0
1, 66480, Note_on_c, 9, 51, 40
1, 66480, Note_on_c, 9, 45, 70
1, 66480, Note_on_c, 8, 33, 0
1, 66480, Note_on_c, 8, 34, 90
1, 66490, Note_on_c, 9, 51, 0
1, 66490, Note_on_c, 9, 45, 0
1, 66720, Note_on_c, 9, 51, 40
1, 66720, Note_on_c, 9, 45, 70
1, 66720, Note_on_c, 12, 72, 80
1, 66720, Note_on_c, 12, 67, 80
1, 66720, Note_on_c, 12, 64, 80
1, 66720, Note_on_c, 12, 53, 80
1, 66730, Note_on_c, 9, 51, 0
1, 66730, Note_on_c, 9, 45, 0
1, 66740, Note_on_c, 0, 74, 75
1, 66790, Note_on_c, 0, 76, 0
1, 66960, Note_on_c, 9, 51, 40
1, 66960, Note_on_c, 9, 45, 75
1, 66960, Note_on_c, 9, 36, 50
1, 66960, Note_on_c, 8, 34, 0
1, 66960, Note_on_c, 8, 36, 90
1, 66970, Note_on_c, 9, 51, 0
1, 66970, Note_on_c, 9, 45, 0
1, 66970, Note_on_c, 9, 36, 0
1, 66980, Note_on_c, 0, 72, 60
1, 66990, Note_on_c, 0, 74, 0
1, 67150, Note_on_c, 12, 72, 0
1, 67150, Note_on_c, 12, 67, 0
1, 67150, Note_on_c, 12, 64, 0
1, 67150, Note_on_c, 12, 53, 0
1, 67170, Note_on_c, 11, 57, 0
1, 67170, Note_on_c, 11, 65, 0
1, 67170, Note_on_c, 11, 67, 0
1, 67170, Note_on_c, 11, 72, 0
1, 67170, Note_on_c, 11, 76, 0
1, 67190, Note_on_c, 11, 65, 80
1, 67190, Note_on_c, 11, 57, 80
1, 67200, Note_on_c, 0, 74, 80
1, 67200, Note_on_c, 9, 51, 60
1, 67200, Note_on_c, 9, 36, 70
1, 67200, Note_on_c, 8, 41, 100
1, 67200, Note_on_c, 11, 72, 80
1, 67200, Note_on_c, 11, 67, 80
1, 67200, Note_on_c, 12, 72, 90
1, 67200, Note_on_c, 12, 67, 90
1, 67200, Note_on_c, 12, 64, 90
1, 67200, Note_on_c, 12, 53, 90
1, 67210, Note_on_c, 9, 51, 0
1, 67210, Note_on_c, 9, 36, 0
1, 67210, Note_on_c, 8, 36, 0
1, 67210, Note_on_c, 11, 76, 80
1, 67230, Note_on_c, 0, 72, 0
1, 67390, Note_on_c, 11, 65, 0
1, 67390, Note_on_c, 11, 57, 0
1, 67400, Note_on_c, 11, 72, 0
1, 67400, Note_on_c, 11, 67, 0
1, 67410, Note_on_c, 11, 76, 0
1, 67440, Note_on_c, 9, 51, 40
1, 67450, Note_on_c, 9, 51, 0
1, 67670, Note_on_c, 11, 65, 90
1, 67670, Note_on_c, 11, 57, 90
1, 67680, Note_on_c, 0, 76, 70
1, 67680, Note_on_c, 9, 51, 60
1, 67680, Note_on_c, 9, 44, 90
1, 67680, Note_on_c, 9, 40, 50
1, 67680, Note_on_c, 9, 37, 60
1, 67680, Note_on_c, 11, 67, 90
1, 67690, Note_on_c, 0, 74, 0
1, 67690, Note_on_c, 9, 51, 0
1, 67690, Note_on_c, 9, 44, 0
1, 67690, Note_on_c, 9, 40, 0
1, 67690, Note_on_c, 9, 37, 0
1, 67690, Note_on_c, 11, 72, 80
1, 67700, Note_on_c, 11, 76, 80
1, 67900, Note_on_c, 8, 41, 0
1, 67920, Note_on_c, 0, 72, 60
1, 67920, Note_on_c, 9, 51, 40
1, 67920, Note_on_c, 9, 36, 50
1, 67920, Note_on_c, 8, 36, 80
1, 67930, Note_on_c, 0, 76, 0
1, 67930, Note_on_c, 9, 51, 0
1, 67930, Note_on_c, 9, 36, 0
1, 68100, Note_on_c, 12, 72, 0
1, 68100, Note_on_c, 12, 67, 0
1, 68100, Note_on_c, 12, 64, 0
1, 68100, Note_on_c, 12, 53, 0
1, 68120, Note_on_c, 8, 36, 0
1, 68160, Note_on_c, 9, 51, 50
1, 68160, Note_on_c, 9, 36, 60
1, 68160, Note_on_c, 8, 41, 90
1, 68160, Note_on_c, 12, 72, 70
1, 68160, Note_on_c, 12, 67, 70
1, 68160, Note_on_c, 12, 64, 70
1, 68160, Note_on_c, 12, 53, 70
1, 68170, Note_on_c, 9, 51, 0
1, 68170, Note_on_c, 9, 36, 0
1, 68400, Note_on_c, 9, 51, 40
1, 68410, Note_on_c, 9, 51, 0
1, 68640, Note_on_c, 9, 51, 40
1, 68640, Note_on_c, 9, 44, 90
1, 68640, Note_on_c, 9, 40, 60
1, 68640, Note_on_c, 9, 37, 50
1, 68650, Note_on_c, 9, 51, 0
1, 68650, Note_on_c, 9, 44, 0
1, 68650, Note_on_c, 9, 40, 0
1, 68650, Note_on_c, 9, 37, 0
1, 68860, Note_on_c, 8, 41, 0
1, 68870, Note_on_c, 11, 65, 0
1, 68870, Note_on_c, 11, 57, 0
1, 68870, Note_on_c, 11, 67, 0
1, 68870, Note_on_c, 11, 72, 0
1, 68870, Note_on_c, 11, 76, 0
1, 68870, Note_on_c, 11, 57, 70
1, 68880, Note_on_c, 9, 51, 40
1, 68880, Note_on_c, 9, 36, 50
1, 68880, Note_on_c, 8, 48, 100
1, 68880, Note_on_c, 11, 65, 70
1, 68880, Note_on_c, 12, 67, 0
1, 68880, Note_on_c, 12, 67, 60
1, 68890, Note_on_c, 9, 51, 0
1, 68890, Note_on_c, 9, 36, 0
1, 68890, Note_on_c, 11, 67, 70
1, 68900, Note_on_c, 11, 72, 70
1, 68910, Note_on_c, 11, 76, 70
1, 69000, Note_on_c, 8, 48, 0
1, 69000, Note_on_c, 8, 48, 90
1, 69060, Note_on_c, 12, 72, 0
1, 69060, Note_on_c, 12, 64, 0
1, 69060, Note_on_c, 12, 53, 0
1, 69080, Note_on_c, 8, 48, 0
1, 69100, Note_on_c, 12, 67, 0
1, 69120, Note_on_c, 9, 51, 50
1, 69120, Note_on_c, 8, 48, 90
1, 69120, Note_on_c, 12, 72, 80
1, 69120, Note_on_c, 12, 67, 80
1, 69120, Note_on_c, 12, 64, 80
1, 69120, Note_on_c, 12, 53, 80
1, 69130, Note_on_c, 9, 51, 0
1, 69340, Note_on_c, 8, 48, 0
1, 69360, Note_on_c, 9, 51, 40
1, 69360, Note_on_c, 9, 36, 60
1, 69360, Note_on_c, 8, 36, 90
1, 69370, Note_on_c, 9, 51, 0
1, 69370, Note_on_c, 9, 36, 0
1, 69600, Note_on_c, 9, 51, 50
1, 69600, Note_on_c, 9, 44, 90
1, 69610, Note_on_c, 9, 51, 0
1, 69610, Note_on_c, 9, 44, 0
1, 69620, Note_on_c, 0, 72, 0
1, 69660, Note_on_c, 0, 74, 80
1, 69840, Note_on_c, 9, 51, 40
1, 69840, Note_on_c, 9, 40, 60
1, 69840, Note_on_c, 9, 37, 50
1, 69840, Note_on_c, 8, 36, 0
1, 69840, Note_on_c, 8, 36, 90
1, 69850, Note_on_c, 9, 51, 0
1, 69850, Note_on_c, 9, 40, 0
1, 69850, Note_on_c, 9, 37, 0
1, 69940, Note_on_c, 0, 76, 70
1, 69960, Note_on_c, 0, 74, 0
1, 70020, Note_on_c, 12, 72, 0
1, 70020, Note_on_c, 12, 67, 0
1, 70020, Note_on_c, 12, 64, 0
1, 70020, Note_on_c, 12, 53, 0
1, 70060, Note_on_c, 8, 36, 0
1, 70080, Note_on_c, 9, 51, 50
1, 70080, Note_on_c, 9, 43, 80
1, 70080, Note_on_c, 9, 36, 50
1, 70080, Note_on_c, 8, 36, 90
1, 70080, Note_on_c, 12, 72, 70
1, 70080, Note_on_c, 12, 67, 70
1, 70080, Note_on_c, 12, 64, 70
1, 70080, Note_on_c, 12, 53, 70
1, 70090, Note_on_c, 9, 51, 0
1, 70090, Note_on_c, 9, 43, 0
1, 70090, Note_on_c, 9, 36, 0
1, 70160, Note_on_c, 0, 76, 0
1, 70200, Note_on_c, 9, 43, 60
1, 70210, Note_on_c, 9, 43, 0
1, 70220, Note_on_c, 0, 79, 90
1, 70280, Note_on_c, 12, 72, 0
1, 70280, Note_on_c, 12, 67, 0
1, 70280, Note_on_c, 12, 64, 0
1, 70280, Note_on_c, 12, 53, 0
1, 70300, Note_on_c, 8, 36, 0
1, 70320, Note_on_c, 9, 51, 40
1, 70320, Note_on_c, 9, 43, 70
1, 70320, Note_on_c, 8, 38, 80
1, 70330, Note_on_c, 9, 51, 0
1, 70330, Note_on_c, 9, 43, 0
1, 70440, Note_on_c, 9, 43, 60
1, 70450, Note_on_c, 9, 43, 0
1, 70500, Note_on_c, 0, 81, 76
1, 70510, Note_on_c, 0, 79, 0
1, 70560, Note_on_c, 9, 51, 40
1, 70560, Note_on_c, 9, 43, 70
1, 70560, Note_on_c, 12, 72, 80
1, 70560, Note_on_c, 12, 67, 80
1, 70560, Note_on_c, 12, 64, 80
1, 70560, Note_on_c, 12, 53, 80
1, 70570, Note_on_c, 9, 51, 0
1, 70570, Note_on_c, 9, 43, 0
1, 70680, Note_on_c, 9, 43, 50
1, 70690, Note_on_c, 9, 43, 0
1, 70780, Note_on_c, 0, 81, 0
1, 70780, Note_on_c, 0, 79, 70
1, 70800, Note_on_c, 9, 51, 40
1, 70800, Note_on_c, 9, 43, 70
1, 70800, Note_on_c, 9, 36, 50
1, 70800, Note_on_c, 8, 38, 0
1, 70800, Note_on_c, 8, 40, 90
1, 70810, Note_on_c, 9, 51, 0
1, 70810, Note_on_c, 9, 43, 0
1, 70810, Note_on_c, 9, 36, 0
1, 70990, Note_on_c, 12, 72, 0
1, 70990, Note_on_c, 12, 67, 0
1, 70990, Note_on_c, 12, 64, 0
1, 70990, Note_on_c, 12, 53, 0
1, 71000, Note_on_c, 0, 79, 0
1, 71010, Note_on_c, 11, 57, 0
1, 71010, Note_on_c, 11, 65, 0
1, 71010, Note_on_c, 11, 67, 0
1, 71010, Note_on_c, 11, 72, 0
1, 71010, Note_on_c, 11, 76, 0
1, 71020, Note_on_c, 8, 40, 0
1, 71030, Note_on_c, 11, 65, 80
1, 71030, Note_on_c, 11, 57, 80
1, 71040, Note_on_c, 0, 76, 90
1, 71040, Note_on_c, 9, 51, 60
1, 71040, Note_on_c, 9, 36, 70
1, 71040, Note_on_c, 8, 41, 100
1, 71040, Note_on_c, 11, 72, 80
1, 71040, Note_on_c, 11, 67, 80
1, 71040, Note_on_c, 12, 72, 90
1, 71040, Note_on_c, 12, 67, 90
1, 71040, Note_on_c, 12, 64, 90
1, 71040, Note_on_c, 12, 53, 90
1, 71050, Note_on_c, 9, 51, 0
1, 71050, Note_on_c, 9, 36, 0
1, 71050, Note_on_c, 11, 76, 80
1, 71230, Note_on_c, 11, 65, 0
1, 71230, Note_on_c, 11, 57, 0
1, 71240, Note_on_c, 11, 72, 0
1, 71240, Note_on_c, 11, 67, 0
1, 71250, Note_on_c, 11, 76, 0
1, 71280, Note_on_c, 9, 51, 40
1, 71290, Note_on_c, 9, 51, 0
1, 71510, Note_on_c, 11, 65, 90
1, 71510, Note_on_c, 11, 57, 90
1, 71520, Note_on_c, 9, 51, 50
1, 71520, Note_on_c, 9, 44, 90
1, 71520, Note_on_c, 9, 40, 50
1, 71520, Note_on_c, 9, 37, 60
1, 71520, Note_on_c, 11, 67, 90
1, 71530, Note_on_c, 9, 51, 0
1, 71530, Note_on_c, 9, 44, 0
1, 71530, Note_on_c, 9, 40, 0
1, 71530, Note_on_c, 9, 37, 0
1, 71530, Note_on_c, 11, 72, 80
1, 71540, Note_on_c, 11, 76, 80
1, 71680, Note_on_c, 0, 76, 0
1, 71700, Note_on_c, 0, 74, 80
1, 71760, Note_on_c, 9, 51, 40
1, 71760, Note_on_c, 9, 36, 50
1, 71770, Note_on_c, 9, 51, 0
1, 71770, Note_on_c, 9, 36, 0
1, 71860, Note_on_c, 0, 74, 0
1, 71860, Note_on_c, 0, 72, 60
1, 71940, Note_on_c, 0, 72, 0
1, 71940, Note_on_c, 12, 72, 0
1, 71940, Note_on_c, 12, 67, 0
1, 71940, Note_on_c, 12, 64, 0
1, 71940, Note_on_c, 12, 53, 0
1, 72000, Note_on_c, 0, 76, 90
1, 72000, Note_on_c, 9, 51, 50
1, 72000, Note_on_c, 9, 36, 60
1, 72000, Note_on_c, 8, 41, 0
1, 72000, Note_on_c, 8, 36, 100
1, 72000, Note_on_c, 12, 72, 70
1, 72000, Note_on_c, 12, 67, 70
1, 72000, Note_on_c, 12, 64, 70
1, 72000, Note_on_c, 12, 53, 70
1, 72010, Note_on_c, 9, 51, 0
1, 72010, Note_on_c, 9, 36, 0
1, 72240, Note_on_c, 0, 69, 60
1, 72240, Note_on_c, 9, 51, 40
1, 72250, Note_on_c, 0, 76, 0
1, 72250, Note_on_c, 9, 51, 0
1, 72480, Note_on_c, 0, 72, 80
1, 72480, Note_on_c, 9, 51, 40
1, 72480, Note_on_c, 9, 44, 90
1, 72480, Note_on_c, 9, 40, 40
1, 72480, Note_on_c, 9, 37, 50
1, 72490, Note_on_c, 0, 69, 0
1, 72490, Note_on_c, 9, 51, 0
1, 72490, Note_on_c, 9, 44, 0
1, 72490, Note_on_c, 9, 40, 0
1, 72490, Note_on_c, 9, 37, 0
1, 72700, Note_on_c, 8, 36, 0
1, 72710, Note_on_c, 11, 65, 0
1, 72710, Note_on_c, 11, 57, 0
1, 72710, Note_on_c, 11, 67, 0
1, 72710, Note_on_c, 11, 72, 0
1, 72710, Note_on_c, 11, 76, 0
1, 72710, Note_on_c, 11, 57, 70
1, 72720, Control_c, 0, 1, 20
1, 72720, Note_on_c, 9, 51, 40
1, 72720, Note_on_c, 9, 40, 40
1, 72720, Note_on_c, 9, 37, 60
1, 72720, Note_on_c, 9, 36, 60
1, 72720, Note_on_c, 8, 41, 90
1, 72720, Note_on_c, 11, 65, 70
1, 72720, Note_on_c, 12, 67, 0
1, 72720, Note_on_c, 12, 67, 60
1, 72730, Note_on_c, 9, 51, 0
1, 72730, Note_on_c, 9, 40, 0
1, 72730, Note_on_c, 9, 37, 0
1, 72730, Note_on_c, 9, 36, 0
1, 72730, Note_on_c, 11, 67, 70
1, 72740, Note_on_c, 11, 72, 70
1, 72750, Note_on_c, 11, 76, 70
1, 72900, Note_on_c, 12, 72, 0
1, 72900, Note_on_c, 12, 64, 0
1, 72900, Note_on_c, 12, 53, 0
1, 72940, Note_on_c, 12, 67, 0
1, 72960, Control_c, 0, 1, 30
1, 72960, Note_on_c, 9, 51, 50
1, 72960, Note_on_c, 12, 67, 80
1, 72960, Note_on_c, 12, 64, 80
1, 72960, Note_on_c, 12, 53, 80
1, 72970, Note_on_c, 9, 51, 0
1, 73160, Note_on_c, 8, 41, 0
1, 73200, Note_on_c, 9, 51, 50
1, 73200, Note_on_c, 9, 36, 60
1, 73200, Note_on_c, 8, 36, 90
1, 73210, Note_on_c, 9, 51, 0
1, 73210, Note_on_c, 9, 36, 0
1, 73400, Note_on_c, 8, 36, 0
1, 73440, Control_c, 0, 1, 0
1, 73440, Note_on_c, 9, 51, 40
1, 73440, Note_on_c, 9, 44, 90
1, 73440, Note_on_c, 8, 29, 110
1, 73450, Note_on_c, 9, 51, 0
1, 73450, Note_on_c, 9, 44, 0
1, 73550, Note_on_c, 0, 72, 0
1, 73560, Note_on_c, 0, 69, 65
1, 73670, Note_on_c, 0, 69, 0
1, 73680, Note_on_c, 0, 67, 65
1, 73680, Note_on_c, 9, 51, 40
1, 73680, Note_on_c, 9, 40, 40
1, 73680, Note_on_c, 9, 37, 50
1, 73690, Note_on_c, 9, 51, 0
1, 73690, Note_on_c, 9, 40, 0
1, 73690, Note_on_c, 9, 37, 0
1, 73790, Note_on_c, 0, 67, 0
1, 73800, Note_on_c, 0, 64, 50
1, 73860, Note_on_c, 12, 67, 0
1, 73860, Note_on_c, 12, 64, 0
1, 73860, Note_on_c, 12, 53, 0
1, 73890, Note_on_c, 0, 64, 0
1, 73920, Note_on_c, 0, 69, 85
1, 73920, Note_on_c, 9, 51, 40
1, 73920, Note_on_c, 9, 40, 70
1, 73920, Note_on_c, 9, 37, 50
1, 73920, Note_on_c, 9, 36, 50
1, 73920, Note_on_c, 12, 67, 70
1, 73920, Note_on_c, 12, 64, 70
1, 73920, Note_on_c, 12, 53, 70
1, 73930, Note_on_c, 9, 51, 0
1, 73930, Note_on_c, 9, 40, 0
1, 73930, Note_on_c, 9, 37, 0
1, 73930, Note_on_c, 9, 36, 0
1, 74040, Note_on_c, 9, 40, 40
1, 74050, Note_on_c, 9, 40, 0
1, 74160, Note_on_c, 9, 51, 40
1, 74160, Note_on_c, 8, 36, 80
1, 74170, Note_on_c, 9, 51, 0
1, 74260, Note_on_c, 0, 67, 60
1, 74280, Note_on_c, 0, 69, 0
1, 74280, Note_on_c, 9, 40, 60
1, 74290, Note_on_c, 9, 40, 0
1, 74360, Note_on_c, 8, 36, 0
1, 74400, Note_on_c, 9, 51, 50
1, 74400, Note_on_c, 9, 48, 60
1, 74400, Note_on_c, 8, 38, 70
1, 74410, Note_on_c, 9, 51, 0
1, 74410, Note_on_c, 9, 48, 0
1, 74440, Note_on_c, 8, 29, 0
1, 74520, Note_on_c, 9, 48, 40
1, 74530, Note_on_c, 9, 48, 0
1, 74600, Note_on_c, 8, 38, 0
1, 74620, Note_on_c, 0, 67, 0
1, 74620, Note_on_c, 0, 64, 70
1, 74640, Note_on_c, 9, 51, 40
1, 74640, Note_on_c, 9, 47, 50
1, 74640, Note_on_c, 9, 36, 50
1, 74640, Note_on_c, 8, 40, 70
1, 74650, Note_on_c, 9, 51, 0
1, 74650, Note_on_c, 9, 47, 0
1, 74650, Note_on_c, 9, 36, 0
1, 74760, Note_on_c, 9, 47, 40
1, 74770, Note_on_c, 9, 47, 0
1, 74820, Note_on_c, 12, 67, 0
1, 74820, Note_on_c, 12, 64, 0
1, 74820, Note_on_c, 12, 53, 0
1, 74840, Note_on_c, 8, 40, 0
1, 74850, Note_on_c, 11, 57, 0
1, 74850, Note_on_c, 11, 65, 0
1, 74850, Note_on_c, 11, 67, 0
1, 74850, Note_on_c, 11, 72, 0
1, 74850, Note_on_c, 11, 76, 0
1, 74870, Note_on_c, 0, 64, 0
1, 74870, Note_on_c, 11, 65, 80
1, 74870, Note_on_c, 11, 57, 80
1, 74880, Note_on_c, 0, 62, 75
1, 74880, Note_on_c, 9, 51, 60
1, 74880, Note_on_c, 9, 36, 70
1, 74880, Note_on_c, 8, 41, 100
1, 74880, Note_on_c, 11, 72, 80
1, 74880, Note_on_c, 11, 67, 80
1, 74880, Note_on_c, 12, 72, 90
1, 74880, Note_on_c, 12, 67, 90
1, 74880, Note_on_c, 12, 64, 90
1, 74880, Note_on_c, 12, 53, 90
1, 74890, Note_on_c, 9, 51, 0
1, 74890, Note_on_c, 9, 36, 0
1, 74890, Note_on_c, 11, 76, 80
1, 75070, Note_on_c, 11, 65, 0
1, 75070, Note_on_c, 11, 57, 0
1, 75080, Note_on_c, 11, 72, 0
1, 75080, Note_on_c, 11, 67, 0
1, 75090, Note_on_c, 11, 76, 0
1, 75120, Note_on_c, 9, 51, 40
1, 75130, Note_on_c, 9, 51, 0
1, 75350, Note_on_c, 11, 65, 90
1, 75350, Note_on_c, 11, 57, 90
1, 75360, Note_on_c, 0, 64, 60
1, 75360, Note_on_c, 9, 51, 50
1, 75360, Note_on_c, 9, 44, 90
1, 75360, Note_on_c, 9, 40, 50
1, 75360, Note_on_c, 9, 37, 60
1, 75360, Note_on_c, 11, 67, 90
1, 75370, Note_on_c, 0, 62, 0
1, 75370, Note_on_c, 9, 51, 0
1, 75370, Note_on_c, 9, 44, 0
1, 75370, Note_on_c, 9, 40, 0
1, 75370, Note_on_c, 9, 37, 0
1, 75370, Note_on_c, 11, 72, 80
1, 75380, Note_on_c, 11, 76, 80
1, 75600, Note_on_c, 0, 57, 50
1, 75600, Note_on_c, 9, 51, 40
1, 75600, Note_on_c, 9, 36, 50
1, 75610, Note_on_c, 0, 64, 0
1, 75610, Note_on_c, 9, 51, 0
1, 75610, Note_on_c, 9, 36, 0
1, 75680, Note_on_c, 12, 64, 0
1, 75700, Note_on_c, 0, 57, 0
1, 75780, Note_on_c, 12, 72, 0
1, 75780, Note_on_c, 12, 67, 0
1, 75780, Note_on_c, 12, 53, 0
1, 75840, Note_on_c, 0, 60, 70
1, 75840, Note_on_c, 9, 51, 50
1, 75840, Note_on_c, 9, 36, 70
1, 75840, Note_on_c, 8, 41, 0
1, 75840, Note_on_c, 8, 36, 100
1, 75840, Note_on_c, 12, 72, 70
1, 75840, Note_on_c, 12, 67, 70
1, 75840, Note_on_c, 12, 64, 70
1, 75840, Note_on_c, 12, 53, 70
1, 75850, Note_on_c, 9, 51, 0
1, 75850, Note_on_c, 9, 36, 0
1, 76080, Control_c, 0, 1, 10
1, 76080, Note_on_c, 9, 51, 40
1, 76090, Note_on_c, 9, 51, 0
1, 76320, Control_c, 0, 1, 20
1, 76320, Note_on_c, 9, 51, 50
1, 76320, Note_on_c, 9, 44, 90
1, 76330, Note_on_c, 9, 51, 0
1, 76330, Note_on_c, 9, 44, 0
1, 76540, Note_on_c, 8, 36, 0
1, 76550, Note_on_c, 11, 65, 0
1, 76550, Note_on_c, 11, 57, 0
1, 76550, Note_on_c, 11, 67, 0
1, 76550, Note_on_c, 11, 72, 0
1, 76550, Note_on_c, 11, 76, 0
1, 76550, Note_on_c, 11, 57, 70
1, 76560, Note_on_c, 9, 51, 40
1, 76560, Note_on_c, 9, 40, 30
1, 76560, Note_on_c, 9, 37, 60
1, 76560, Note_on_c, 9, 36, 70
1, 76560, Note_on_c, 8, 41, 90
1, 76560, Note_on_c, 11, 65, 70
1, 76560, Note_on_c, 12, 67, 0
1, 76560, Note_on_c, 12, 67, 60
1, 76570, Note_on_c, 9, 51, 0
1, 76570, Note_on_c, 9, 40, 0
1, 76570, Note_on_c, 9, 37, 0
1, 76570, Note_on_c, 9, 36, 0
1, 76570, Note_on_c, 11, 67, 70
1, 76580, Note_on_c, 11, 72, 70
1, 76590, Note_on_c, 11, 76, 70
1, 76740, Note_on_c, 12, 72, 0
1, 76740, Note_on_c, 12, 64, 0
1, 76740, Note_on_c, 12, 53, 0
1, 76780, Note_on_c, 12, 67, 0
1, 76800, Note_on_c, 9, 51, 50
1, 76800, Note_on_c, 8, 29, 110
1, 76800, Note_on_c, 12, 72, 80
1, 76800, Note_on_c, 12, 67, 80
1, 76800, Note_on_c, 12, 64, 80
1, 76800, Note_on_c, 12, 53, 80
1, 76810, Note_on_c, 9, 51, 0
1, 76810, Note_on_c, 8, 41, 0
1, 76920, Note_on_c, 9, 40, 60
1, 76920, Note_on_c, 9, 37, 60
1, 76930, Note_on_c, 9, 40, 0
1, 76930, Note_on_c, 9, 37, 0
1, 77000, Note_on_c, 8, 29, 0
1, 77040, Note_on_c, 9, 51, 40
1, 77040, Note_on_c, 9, 36, 70
1, 77040, Note_on_c, 8, 29, 100
1, 77050, Note_on_c, 9, 51, 0
1, 77050, Note_on_c, 9, 36, 0
1, 77160, Note_on_c, 9, 40, 20
1, 77160, Note_on_c, 9, 37, 60
1, 77170, Note_on_c, 9, 40, 0
1, 77170, Note_on_c, 9, 37, 0
1, 77280, Note_on_c, 9, 51, 50
1, 77280, Note_on_c, 9, 44, 90
1, 77290, Note_on_c, 9, 51, 0
1, 77290, Note_on_c, 9, 44, 0
1, 77400, Note_on_c, 0, 60, 0
1, 77400, Note_on_c, 9, 40, 30
1, 77400, Note_on_c, 9, 37, 60
1, 77410, Note_on_c, 9, 40, 0
1, 77410, Note_on_c, 9, 37, 0
1, 77440, Note_on_c, 8, 29, 0
1, 77520, Note_on_c, 9, 51, 50
1, 77520, Note_on_c, 8, 36, 80
1, 77530, Note_on_c, 9, 51, 0
1, 77640, Note_on_c, 9, 40, 30
1, 77640, Note_on_c, 9, 37, 50
1, 77650, Note_on_c, 9, 40, 0
1, 77650, Note_on_c, 9, 37, 0
1, 77700, Note_on_c, 12, 72, 0
1, 77700, Note_on_c, 12, 67, 0
1, 77700, Note_on_c, 12, 64, 0
1, 77700, Note_on_c, 12, 53, 0
1, 77760, Note_on_c, 9, 51, 50
1, 77760, Note_on_c, 9, 36, 70
1, 77760, Note_on_c, 12, 72, 70
1, 77760, Note_on_c, 12, 67, 70
1, 77760, Note_on_c, 12, 64, 70
1, 77760, Note_on_c, 12, 53, 70
1, 77770, Note_on_c, 9, 51, 0
1, 77770, Note_on_c, 9, 36, 0
1, 77880, Note_on_c, 9, 40, 60
1, 77880, Note_on_c, 9, 37, 65
1, 77890, Note_on_c, 9, 40, 0
1, 77890, Note_on_c, 9, 37, 0
1, 77960, Note_on_c, 12, 72, 0
1, 77960, Note_on_c, 12, 67, 0
1, 77960, Note_on_c, 12, 64, 0
1, 77960, Note_on_c, 12, 53, 0
1, 78000, Control_c, 0, 1, 0
1, 78000, Note_on_c, 0, 57, 105
1, 78000, Note_on_c, 9, 51, 50
1, 78000, Note_on_c, 8, 36, 0
1, 78000, Note_on_c, 8, 36, 80
1, 78010, Note_on_c, 9, 51, 0
1, 78120, Note_on_c, 9, 40, 40
1, 78120, Note_on_c, 9, 37, 50
1, 78130, Note_on_c, 9, 40, 0
1, 78130, Note_on_c, 9, 37, 0
1, 78200, Note_on_c, 8, 36, 0
1, 78240, Note_on_c, 0, 60, 90
1, 78240, Note_on_c, 9, 51, 50
1, 78240, Note_on_c, 9, 40, 60
1, 78240, Note_on_c, 8, 38, 90
1, 78240, Note_on_c, 12, 72, 80
1, 78240, Note_on_c, 12, 67, 80
1, 78240, Note_on_c, 12, 64, 80
1, 78240, Note_on_c, 12, 53, 80
1, 78250, Note_on_c, 0, 57, 0
1, 78250, Note_on_c, 9, 51, 0
1, 78250, Note_on_c, 9, 40, 0
1, 78360, Note_on_c, 9, 40, 40
1, 78360, Note_on_c, 9, 37, 50
1, 78370, Note_on_c, 9, 40, 0
1, 78370, Note_on_c, 9, 37, 0
1, 78440, Note_on_c, 8, 38, 0
1, 78480, Note_on_c, 0, 64, 98
1, 78480, Note_on_c, 9, 51, 40
1, 78480, Note_on_c, 9, 40, 40
1, 78480, Note_on_c, 9, 36, 60
1, 78480, Note_on_c, 8, 40, 80
1, 78490, Note_on_c, 0, 60, 0
1, 78490, Note_on_c, 9, 51, 0
1, 78490, Note_on_c, 9, 40, 0
1, 78490, Note_on_c, 9, 36, 0
1, 78600, Note_on_c, 9, 37, 60
1, 78610, Note_on_c, 9, 37, 0
1, 78670, Note_on_c, 12, 72, 0
1, 78670, Note_on_c, 12, 67, 0
1, 78670, Note_on_c, 12, 64, 0
1, 78670, Note_on_c, 12, 53, 0
1, 78680, Note_on_c, 0, 64, 0
1, 78680, Note_on_c, 8, 40, 0
1, 78690, Note_on_c, 11, 57, 0
1, 78690, Note_on_c, 11, 65, 0
1, 78690, Note_on_c, 11, 67, 0
1, 78690, Note_on_c, 11, 72, 0
1, 78690, Note_on_c, 11, 76, 0
1, 78710, Note_on_c, 11, 65, 80
1, 78710, Note_on_c, 11, 57, 80
1, 78720, Note_on_c, 9, 51, 60
1, 78720, Note_on_c, 9, 36, 80
1, 78720, Note_on_c, 8, 41, 100
1, 78720, Note_on_c, 11, 72, 80
1, 78720, Note_on_c, 11, 67, 80
1, 78720, Note_on_c, 12, 72, 90
1, 78720, Note_on_c, 12, 67, 90
1, 78720, Note_on_c, 12, 64, 90
1, 78720, Note_on_c, 12, 53, 90
1, 78730, Note_on_c, 9, 51, 0
1, 78730, Note_on_c, 9, 36, 0
1, 78730, Note_on_c, 11, 76, 80
1, 78910, Note_on_c, 11, 65, 0
1, 78910, Note_on_c, 11, 57, 0
1, 78920, Note_on_c, 11, 72, 0
1, 78920, Note_on_c, 11, 67, 0
1, 78930, Note_on_c, 11, 76, 0
1, 78960, Note_on_c, 9, 51, 41
1, 78970, Note_on_c, 9, 51, 0
1, 79020, Note_on_c, 0, 76, 110
1, 79100, Note_on_c, 0, 76, 0
1, 79110, Note_on_c, 0, 77, 90
1, 79190, Note_on_c, 0, 77, 0
1, 79190, Note_on_c, 11, 65, 90
1, 79190, Note_on_c, 11, 57, 90
1, 79200, Note_on_c, 9, 51, 50
1, 79200, Note_on_c, 9, 44, 90
1, 79200, Note_on_c, 9, 40, 60
1, 79200, Note_on_c, 9, 37, 60
1, 79200, Note_on_c, 11, 67, 90
1, 79210, Note_on_c, 0, 76, 95
1, 79210, Note_on_c, 9, 51, 0
1, 79210, Note_on_c, 9, 44, 0
1, 79210, Note_on_c, 9, 40, 0
1, 79210, Note_on_c, 9, 37, 0
1, 79210, Note_on_c, 11, 72, 80
1, 79220, Note_on_c, 11, 76, 80
1, 79290, Note_on_c, 0, 76, 0
1, 79290, Note_on_c, 0, 77, 80
1, 79370, Note_on_c, 0, 77, 0
1, 79380, Note_on_c, 0, 76, 85
1, 79420, Note_on_c, 8, 41, 0
1, 79440, Note_on_c, 9, 51, 40
1, 79440, Note_on_c, 9, 36, 50
1, 79440, Note_on_c, 8, 36, 80
1, 79450, Note_on_c, 9, 51, 0
1, 79450, Note_on_c, 9, 36, 0
1, 79460, Note_on_c, 0, 76, 0
1, 79460, Note_on_c, 0, 77, 80
1, 79540, Note_on_c, 0, 77, 0
1, 79550, Note_on_c, 0, 76, 83
1, 79620, Note_on_c, 12, 72, 0
1, 79620, Note_on_c, 12, 67, 0
1, 79620, Note_on_c, 12, 64, 0
1, 79620, Note_on_c, 12, 53, 0
1, 79630, Note_on_c, 0, 76, 0
1, 79630, Note_on_c, 0, 77, 73
1, 79640, Note_on_c, 8, 36, 0
1, 79680, Note_on_c, 9, 51, 50
1, 79680, Note_on_c, 9, 36, 70
1, 79680, Note_on_c, 8, 43, 90
1, 79680, Note_on_c, 12, 76, 80
1, 79680, Note_on_c, 12, 72, 80
1, 79680, Note_on_c, 12, 67, 80
1, 79680, Note_on_c, 12, 53, 80
1, 79690, Note_on_c, 9, 51, 0
1, 79690, Note_on_c, 9, 36, 0
1, 79710, Note_on_c, 0, 77, 0
1, 79720, Note_on_c, 0, 76, 75
1, 79800, Note_on_c, 0, 76, 0
1, 79800, Note_on_c, 0, 77, 73
1, 79880, Note_on_c, 0, 77, 0
1, 79880, Note_on_c, 8, 43, 0
1, 79890, Note_on_c, 0, 76, 75
1, 79920, Note_on_c, 9, 51, 40
1, 79920, Note_on_c, 8, 42, 80
1, 79930, Note_on_c, 9, 51, 0
1, 79970, Note_on_c, 0, 76, 0
1, 79970, Note_on_c, 0, 77, 70
1, 80050, Note_on_c, 0, 77, 0
1, 80060, Note_on_c, 0, 76, 75
1, 80140, Note_on_c, 0, 76, 0
1, 80140, Note_on_c, 0, 77, 70
1, 80160, Note_on_c, 9, 51, 50
1, 80160, Note_on_c, 9, 44, 90
1, 80160, Note_on_c, 9, 40, 50
1, 80160, Note_on_c, 9, 37, 60
1, 80170, Note_on_c, 9, 51, 0
1, 80170, Note_on_c, 9, 44, 0
1, 80170, Note_on_c, 9, 40, 0
1, 80170, Note_on_c, 9, 37, 0
1, 80220, Note_on_c, 0, 77, 0
1, 80230, Note_on_c, 0, 76, 75
1, 80310, Note_on_c, 0, 76, 0
1, 80310, Note_on_c, 0, 77, 70
1, 80350, Note_on_c, 8, 42, 0
1, 80390, Note_on_c, 0, 77, 0
1, 80390, Note_on_c, 11, 65, 0
1, 80390, Note_on_c, 11, 57, 0
1, 80390, Note_on_c, 11, 67, 0
1, 80390, Note_on_c, 11, 72, 0
1, 80390, Note_on_c, 11, 76, 0
1, 80390, Note_on_c, 11, 57, 70
1, 80400, Note_on_c, 0, 76, 70
1, 80400, Note_on_c, 9, 51, 40
1, 80400, Note_on_c, 9, 36, 80
1, 80400, Note_on_c, 8, 41, 90
1, 80400, Note_on_c, 11, 65, 70
1, 80410, Note_on_c, 9, 51, 0
1, 80410, Note_on_c, 9, 36, 0
1, 80410, Note_on_c, 11, 67, 70
1, 80420, Note_on_c, 11, 72, 70
1, 80430, Note_on_c, 11, 76, 70
1, 80480, Note_on_c, 0, 76, 0
1, 80480, Note_on_c, 0, 77, 70
1, 80560, Note_on_c, 0, 77, 0
1, 80570, Note_on_c, 0, 76, 70
1, 80580, Note_on_c, 12, 76, 0
1, 80580, Note_on_c, 12, 72, 0
1, 80580, Note_on_c, 12, 67, 0
1, 80580, Note_on_c, 12, 53, 0
1, 80640, Note_on_c, 9, 51, 50
1, 80640, Note_on_c, 12, 76, 80
1, 80640, Note_on_c, 12, 72, 80
1, 80640, Note_on_c, 12, 67, 80
1, 80640, Note_on_c, 12, 53, 80
1, 80650, Note_on_c, 9, 51, 0
1, 80760, Note_on_c, 9, 40, 60
1, 80760, Note_on_c, 9, 37, 40
1, 80770, Note_on_c, 9, 40, 0
1, 80770, Note_on_c, 9, 37, 0
1, 80840, Note_on_c, 8, 41, 0
1, 80880, Note_on_c, 9, 51, 40
1, 80880, Note_on_c, 9, 40, 30
1, 80880, Note_on_c, 9, 37, 20
1, 80880, Note_on_c, 8, 48, 80
1, 80890, Note_on_c, 9, 51, 0
1, 80890, Note_on_c, 9, 40, 0
1, 80890, Note_on_c, 9, 37, 0
1, 81000, Note_on_c, 9, 40, 30
1, 81000, Note_on_c, 9, 37, 40
1, 81010, Note_on_c, 9, 40, 0
1, 81010, Note_on_c, 9, 37, 0
1, 81120, Note_on_c, 9, 51, 50
1, 81120, Note_on_c, 9, 44, 90
1, 81120, Note_on_c, 9, 40, 60
1, 81120, Note_on_c, 9, 36, 70
1, 81130, Note_on_c, 9, 51, 0
1, 81130, Note_on_c, 9, 44, 0
1, 81130, Note_on_c, 9, 40, 0
1, 81130, Note_on_c, 9, 36, 0
1, 81240, Note_on_c, 9, 37, 40
1, 81250, Note_on_c, 9, 37, 0
1, 81360, Note_on_c, 9, 51, 40
1, 81370, Note_on_c, 9, 51, 0
1, 81380, Note_on_c, 0, 77, 75
1, 81390, Note_on_c, 0, 76, 0
1, 81480, Note_on_c, 9, 40, 30
1, 81480, Note_on_c, 9, 37, 40
1, 81490, Note_on_c, 9, 40, 0
1, 81490, Note_on_c, 9, 37, 0
1, 81500, Note_on_c, 0, 76, 60
1, 81510, Note_on_c, 0, 77, 0
1, 81540, Note_on_c, 12, 76, 0
1, 81540, Note_on_c, 12, 72, 0
1, 81540, Note_on_c, 12, 67, 0
1, 81580, Note_on_c, 8, 48, 0
1, 81600, Note_on_c, 0, 72, 85
1, 81600, Note_on_c, 9, 51, 40
1, 81600, Note_on_c, 9, 40, 50
1, 81600, Note_on_c, 8, 36, 90
1, 81600, Note_on_c, 12, 76, 70
1, 81600, Note_on_c, 12, 72, 70
1, 81600, Note_on_c, 12, 67, 70
1, 81610, Note_on_c, 9, 51, 0
1, 81610, Note_on_c, 9, 40, 0
1, 81620, Note_on_c, 0, 76, 0
1, 81720, Note_on_c, 0, 67, 60
1, 81720, Note_on_c, 9, 40, 50
1, 81720, Note_on_c, 9, 37, 40
1, 81730, Note_on_c, 0, 72, 0
1, 81730, Note_on_c, 9, 40, 0
1, 81730, Note_on_c, 9, 37, 0
1, 81800, Note_on_c, 8, 36, 0
1, 81840, Note_on_c, 0, 67, 0
1, 81840, Note_on_c, 0, 69, 70
1, 81840, Note_on_c, 9, 51, 40
1, 81840, Note_on_c, 8, 36, 80
1, 81840, Note_on_c, 12, 72, 0
1, 81840, Note_on_c, 12, 72, 60
1, 81850, Note_on_c, 9, 51, 0
1, 81850, Note_on_c, 12, 76, 0
1, 81850, Note_on_c, 12, 67, 0
1, 81960, Note_on_c, 0, 69, 0
1, 81960, Note_on_c, 0, 67, 50
1, 81960, Note_on_c, 9, 40, 30
1, 81960, Note_on_c, 9, 37, 30
1, 81970, Note_on_c, 9, 40, 0
1, 81970, Note_on_c, 9, 37, 0
1, 82040, Note_on_c, 8, 36, 0
1, 82080, Note_on_c, 0, 64, 85
1, 82080, Note_on_c, 9, 51, 50
1, 82080, Note_on_c, 9, 40, 60
1, 82080, Note_on_c, 9, 36, 60
1, 82080, Note_on_c, 8, 38, 80
1, 82080, Note_on_c, 12, 67, 70
1, 82090, Note_on_c, 0, 67, 0
1, 82090, Note_on_c, 9, 51, 0
1, 82090, Note_on_c, 9, 40, 0
1, 82090, Note_on_c, 9, 36, 0
1, 82090, Note_on_c, 12, 72, 0
1, 82200, Note_on_c, 0, 64, 0
1, 82200, Note_on_c, 0, 64, 50
1, 82200, Note_on_c, 9, 40, 30
1, 82200, Note_on_c, 9, 37, 30
1, 82210, Note_on_c, 9, 40, 0
1, 82210, Note_on_c, 9, 37, 0
1, 82280, Note_on_c, 8, 38, 0
1, 82320, Note_on_c, 0, 64, 0
1, 82320, Note_on_c, 0, 65, 60
1, 82320, Note_on_c, 9, 51, 40
1, 82320, Note_on_c, 9, 40, 30
1, 82320, Note_on_c, 9, 37, 40
1, 82320, Note_on_c, 8, 40, 80
1, 82320, Note_on_c, 12, 72, 60
1, 82330, Note_on_c, 9, 51, 0
1, 82330, Note_on_c, 9, 40, 0
1, 82330, Note_on_c, 9, 37, 0
1, 82330, Note_on_c, 12, 67, 0
1, 82380, Note_on_c, 12, 53, 0
1, 82440, Note_on_c, 0, 64, 50
1, 82440, Note_on_c, 9, 37, 40
1, 82450, Note_on_c, 0, 65, 0
1, 82450, Note_on_c, 9, 37, 0
1, 82520, Note_on_c, 8, 40, 0
1, 82530, Note_on_c, 11, 57, 0
1, 82530, Note_on_c, 11, 65, 0
1, 82530, Note_on_c, 11, 67, 0
1, 82530, Note_on_c, 11, 72, 0
1, 82530, Note_on_c, 11, 76, 0
1, 82540, Note_on_c, 12, 72, 0
1, 82550, Note_on_c, 11, 65, 80
1, 82550, Note_on_c, 11, 57, 80
1, 82560, Note_on_c, 0, 64, 0
1, 82560, Note_on_c, 0, 57, 60
1, 82560, Note_on_c, 9, 51, 60
1, 82560, Note_on_c, 9, 36, 80
1, 82560, Note_on_c, 8, 41, 90
1, 82560, Note_on_c, 11, 72, 80
1, 82560, Note_on_c, 11, 67, 80
1, 82560, Note_on_c, 12, 76, 90
1, 82560, Note_on_c, 12, 72, 90
1, 82560, Note_on_c, 12, 67, 90
1, 82560, Note_on_c, 12, 53, 90
1, 82570, Note_on_c, 9, 51, 0
1, 82570, Note_on_c, 9, 36, 0
1, 82570, Note_on_c, 11, 76, 80
1, 82680, Note_on_c, 0, 57, 0
1, 82680, Note_on_c, 0, 57, 40
1, 82750, Note_on_c, 11, 65, 0
1, 82750, Note_on_c, 11, 57, 0
1, 82760, Note_on_c, 11, 72, 0
1, 82760, Note_on_c, 11, 67, 0
1, 82770, Note_on_c, 11, 76, 0
1, 82800, Note_on_c, 0, 57, 0
1, 82800, Note_on_c, 0, 57, 70
1, 82800, Note_on_c, 9, 51, 40
1, 82810, Note_on_c, 9, 51, 0
1, 83030, Note_on_c, 11, 65, 90
1, 83030, Note_on_c, 11, 57, 90
1, 83040, Note_on_c, 9, 51, 50
1, 83040, Note_on_c, 9, 44, 90
1, 83040, Note_on_c, 9, 40, 60
1, 83040, Note_on_c, 9, 37, 60
1, 83040, Note_on_c, 8, 36, 90
1, 83040, Note_on_c, 11, 67, 90
1, 83050, Note_on_c, 9, 51, 0
1, 83050, Note_on_c, 9, 44, 0
1, 83050, Note_on_c, 9, 40, 0
1, 83050, Note_on_c, 9, 37, 0
1, 83050, Note_on_c, 8, 41, 0
1, 83050, Note_on_c, 11, 72, 80
1, 83060, Note_on_c, 11, 76, 80
1, 83280, Note_on_c, 9, 51, 40
1, 83280, Note_on_c, 9, 36, 50
1, 83290, Note_on_c, 9, 51, 0
1, 83290, Note_on_c, 9, 36, 0
1, 83400, Note_on_c, 0, 57, 0
1, 83460, Note_on_c, 12, 76, 0
1, 83460, Note_on_c, 12, 72, 0
1, 83460, Note_on_c, 12, 67, 0
1, 83460, Note_on_c, 12, 53, 0
1, 83520, Note_on_c, 9, 51, 50
1, 83520, Note_on_c, 9, 36, 60
1, 83520, Note_on_c, 12, 76, 70
1, 83520, Note_on_c, 12, 72, 70
1, 83520, Note_on_c, 12, 67, 70
1, 83520, Note_on_c, 12, 53, 70
1, 83530, Note_on_c, 9, 51, 0
1, 83530, Note_on_c, 9, 36, 0
1, 83640, Note_on_c, 0, 57, 80
1, 83760, Note_on_c, 0, 59, 60
1, 83760, Note_on_c, 9, 51, 40
1, 83770, Note_on_c, 0, 57, 0
1, 83770, Note_on_c, 9, 51, 0
1, 83880, Note_on_c, 0, 59, 0
1, 83880, Note_on_c, 0, 60, 50
1, 84000, Note_on_c, 0, 60, 0
1, 84000, Note_on_c, 0, 62, 80
1, 84000, Note_on_c, 9, 51, 50
1, 84000, Note_on_c, 9, 44, 90
1, 84000, Note_on_c, 9, 40, 30
1, 84000, Note_on_c, 9, 37, 60
1, 84000, Note_on_c, 8, 41, 80
1, 84010, Note_on_c, 9, 51, 0
1, 84010, Note_on_c, 9, 44, 0
1, 84010, Note_on_c, 9, 40, 0
1, 84010, Note_on_c, 9, 37, 0
1, 84040, Note_on_c, 8, 36, 0
1, 84120, Note_on_c, 0, 64, 70
1, 84130, Note_on_c, 0, 62, 0
1, 84220, Note_on_c, 12, 53, 0
1, 84230, Note_on_c, 11, 65, 0
1, 84230, Note_on_c, 11, 57, 0
1, 84230, Note_on_c, 11, 67, 0
1, 84230, Note_on_c, 11, 72, 0
1, 84230, Note_on_c, 11, 76, 0
1, 84230, Note_on_c, 11, 57, 70
1, 84240, Note_on_c, 0, 64, 0
1, 84240, Note_on_c, 0, 65, 90
1, 84240, Note_on_c, 9, 51, 40
1, 84240, Note_on_c, 9, 36, 70
1, 84240, Note_on_c, 8, 36, 70
1, 84240, Note_on_c, 11, 65, 70
1, 84240, Note_on_c, 12, 64, 80
1, 84240, Note_on_c, 12, 53, 80
1, 84250, Note_on_c, 9, 51, 0
1, 84250, Note_on_c, 9, 36, 0
1, 84250, Note_on_c, 8, 41, 0
1, 84250, Note_on_c, 11, 67, 70
1, 84260, Note_on_c, 11, 72, 70
1, 84270, Note_on_c, 11, 76, 70
1, 84340, Note_on_c, 0, 65, 0
1, 84360, Note_on_c, 0, 67, 80
1, 84420, Note_on_c, 12, 76, 0
1, 84420, Note_on_c, 12, 72, 0
1, 84420, Note_on_c, 12, 67, 0
1, 84460, Note_on_c, 8, 36, 0
1, 84480, Note_on_c, 0, 67, 0
1, 84480, Note_on_c, 0, 76, 100
1, 84480, Note_on_c, 9, 51, 50
1, 84480, Note_on_c, 8, 41, 90
1, 84490, Note_on_c, 9, 51, 0
1, 84600, Note_on_c, 0, 76, 0
1, 84600, Note_on_c, 0, 76, 95
1, 84700, Note_on_c, 12, 64, 0
1, 84720, Note_on_c, 0, 76, 0
1, 84720, Note_on_c, 0, 74, 80
1, 84720, Note_on_c, 9, 51, 40
1, 84720, Note_on_c, 9, 40, 30
1, 84720, Note_on_c, 9, 37, 20
1, 84720, Note_on_c, 12, 67, 60
1, 84730, Note_on_c, 9, 51, 0
1, 84730, Note_on_c, 9, 40, 0
1, 84730, Note_on_c, 9, 37, 0
1, 84840, Note_on_c, 0, 74, 0
1, 84840, Note_on_c, 0, 72, 90
1, 84940, Note_on_c, 0, 72, 0
1, 84940, Note_on_c, 12, 67, 0
1, 84960, Note_on_c, 0, 69, 100
1, 84960, Note_on_c, 9, 51, 50
1, 84960, Note_on_c, 9, 44, 90
1, 84960, Note_on_c, 9, 40, 40
1, 84960, Note_on_c, 9, 36, 60
1, 84960, Note_on_c, 8, 36, 80
1, 84960, Note_on_c, 12, 72, 80
1, 84960, Note_on_c, 12, 67, 80
1, 84970, Note_on_c, 9, 51, 0
1, 84970, Note_on_c, 9, 44, 0
1, 84970, Note_on_c, 9, 40, 0
1, 84970, Note_on_c, 9, 36, 0
1, 84970, Note_on_c, 8, 41, 0
1, 85080, Note_on_c, 0, 69, 0
1, 85080, Note_on_c, 0, 67, 70
1, 85080, Note_on_c, 9, 37, 30
1, 85090, Note_on_c, 9, 37, 0
1, 85200, Note_on_c, 0, 67, 0
1, 85200, Note_on_c, 0, 65, 80
1, 85200, Note_on_c, 9, 51, 40
1, 85210, Note_on_c, 9, 51, 0
1, 85320, Note_on_c, 0, 65, 0
1, 85320, Note_on_c, 0, 64, 70
1, 85400, Note_on_c, 8, 36, 0
1, 85440, Note_on_c, 0, 64, 0
1, 85440, Note_on_c, 0, 62, 90
1, 85440, Note_on_c, 9, 51, 40
1, 85440, Note_on_c, 9, 40, 60
1, 85440, Note_on_c, 8, 43, 90
1, 85450, Note_on_c, 9, 51, 0
1, 85450, Note_on_c, 9, 40, 0
1, 85560, Note_on_c, 0, 62, 0
1, 85560, Note_on_c, 0, 60, 60
1, 85680, Note_on_c, 0, 60, 0
1, 85680, Note_on_c, 0, 59, 70
1, 85680, Note_on_c, 9, 51, 40
1, 85680, Note_on_c, 8, 42, 80
1, 85680, Note_on_c, 12, 64, 70
1, 85690, Note_on_c, 9, 51, 0
1, 85690, Note_on_c, 8, 43, 0
1, 85760, Note_on_c, 12, 67, 0
1, 85800, Note_on_c, 0, 59, 0
1, 85800, Note_on_c, 0, 57, 60
1, 85800, Note_on_c, 9, 40, 30
1, 85800, Note_on_c, 9, 37, 40
1, 85810, Note_on_c, 9, 40, 0
1, 85810, Note_on_c, 9, 37, 0
1, 85880, Note_on_c, 12, 64, 0
1, 85900, Note_on_c, 0, 57, 0
1, 85920, Note_on_c, 0, 55, 70
1, 85920, Note_on_c, 9, 51, 50
1, 85920, Note_on_c, 12, 67, 70
1, 85930, Note_on_c, 9, 51, 0
1, 86040, Note_on_c, 0, 55, 0
1, 86040, Note_on_c, 0, 53, 50
1, 86110, Note_on_c, 8, 42, 0
1, 86120, Note_on_c, 12, 67, 0
1, 86140, Note_on_c, 0, 53, 0
1, 86160, Note_on_c, 0, 52, 60
1, 86160, Note_on_c, 9, 51, 40
1, 86160, Note_on_c, 9, 40, 40
1, 86160, Note_on_c, 9, 37, 40
1, 86160, Note_on_c, 8, 41, 90
1, 86160, Note_on_c, 12, 72, 0
1, 86160, Note_on_c, 12, 72, 80
1, 86170, Note_on_c, 9, 51, 0
1, 86170, Note_on_c, 9, 40, 0
1, 86170, Note_on_c, 9, 37, 0
1, 86280, Note_on_c, 0, 52, 0
1, 86360, Note_on_c, 12, 53, 0
1, 86370, Note_on_c, 11, 57, 0
1, 86370, Note_on_c, 11, 65, 0
1, 86370, Note_on_c, 11, 67, 0
1, 86370, Note_on_c, 11, 72, 0
1, 86370, Note_on_c, 11, 76, 0
1, 86390, Note_on_c, 11, 65, 80
1, 86390, Note_on_c, 11, 57, 80
1, 86400, Note_on_c, 9, 51, 60
1, 86400, Note_on_c, 9, 36, 70
1, 86400, Note_on_c, 11, 72, 80
1, 86400, Note_on_c, 11, 67, 80
1, 86400, Note_on_c, 12, 76, 90
1, 86400, Note_on_c, 12, 67, 90
1, 86400, Note_on_c, 12, 53, 90
1, 86410, Note_on_c, 9, 51, 0
1, 86410, Note_on_c, 9, 36, 0
1, 86410, Note_on_c, 11, 76, 80
1, 86590, Note_on_c, 11, 65, 0
1, 86590, Note_on_c, 11, 57, 0
1, 86600, Note_on_c, 11, 72, 0
1, 86600, Note_on_c, 11, 67, 0
1, 86610, Note_on_c, 11, 76, 0
1, 86640, Note_on_c, 9, 51, 40
1, 86650, Note_on_c, 9, 51, 0
1, 86870, Note_on_c, 11, 65, 90
1, 86870, Note_on_c, 11, 57, 90
1, 86880, Note_on_c, 9, 51, 50
1, 86880, Note_on_c, 9, 44, 90
1, 86880, Note_on_c, 9, 40, 60
1, 86880, Note_on_c, 9, 37, 60
1, 86880, Note_on_c, 8, 41, 0
1, 86880, Note_on_c, 8, 36, 80
1, 86880, Note_on_c, 11, 67, 90
1, 86890, Note_on_c, 9, 51, 0
1, 86890, Note_on_c, 9, 44, 0
1, 86890, Note_on_c, 9, 40, 0
1, 86890, Note_on_c, 9, 37, 0
1, 86890, Note_on_c, 11, 72, 80
1, 86900, Note_on_c, 11, 76, 80
1, 87120, Note_on_c, 0, 57, 70
1, 87120, Note_on_c, 9, 51, 40
1, 87120, Note_on_c, 9, 36, 50
1, 87130, Note_on_c, 9, 51, 0
1, 87130, Note_on_c, 9, 36, 0
1, 87240, Note_on_c, 0, 57, 0
1, 87240, Note_on_c, 0, 59, 50
1, 87300, Note_on_c, 12, 72, 0
1, 87300, Note_on_c, 12, 76, 0
1, 87300, Note_on_c, 12, 67, 0
1, 87300, Note_on_c, 12, 53, 0
1, 87330, Note_on_c, 0, 59, 0
1, 87360, Note_on_c, 0, 60, 70
1, 87360, Note_on_c, 9, 51, 50
1, 87360, Note_on_c, 9, 36, 60
1, 87360, Note_on_c, 8, 36, 0
1, 87360, Note_on_c, 8, 36, 90
1, 87360, Note_on_c, 12, 76, 70
1, 87360, Note_on_c, 12, 72, 70
1, 87360, Note_on_c, 12, 67, 70
1, 87360, Note_on_c, 12, 53, 70
1, 87370, Note_on_c, 9, 51, 0
1, 87370, Note_on_c, 9, 36, 0
1, 87480, Note_on_c, 0, 60, 0
1, 87480, Note_on_c, 0, 62, 60
1, 87600, Note_on_c, 0, 62, 0
1, 87600, Note_on_c, 0, 64, 80
1, 87600, Note_on_c, 9, 51, 40
1, 87600, Note_on_c, 8, 38, 80
1, 87610, Note_on_c, 9, 51, 0
1, 87610, Note_on_c, 8, 36, 0
1, 87720, Note_on_c, 0, 64, 0
1, 87720, Note_on_c, 0, 65, 60
1, 87810, Note_on_c, 0, 65, 0
1, 87840, Note_on_c, 0, 67, 96
1, 87840, Note_on_c, 9, 51, 50
1, 87840, Note_on_c, 9, 44, 90
1, 87840, Note_on_c, 9, 40, 30
1, 87840, Note_on_c, 9, 37, 60
1, 87850, Note_on_c, 9, 51, 0
1, 87850, Note_on_c, 9, 44, 0
1, 87850, Note_on_c, 9, 40, 0
1, 87850, Note_on_c, 9, 37, 0
1, 87960, Note_on_c, 0, 67, 0
1, 87960, Note_on_c, 0, 69, 70
1, 88060, Note_on_c, 12, 72, 0
1, 88060, Note_on_c, 12, 67, 0
1, 88070, Note_on_c, 11, 65, 0
1, 88070, Note_on_c, 11, 57, 0
1, 88070, Note_on_c, 11, 67, 0
1, 88070, Note_on_c, 11, 72, 0
1, 88070, Note_on_c, 11, 76, 0
1, 88070, Note_on_c, 11, 57, 70
1, 88080, Note_on_c, 0, 69, 0
1, 88080, Note_on_c, 0, 64, 90
1, 88080, Note_on_c, 9, 51, 40
1, 88080, Note_on_c, 9, 36, 60
1, 88080, Note_on_c, 8, 40, 90
1, 88080, Note_on_c, 11, 65, 70
1, 88080, Note_on_c, 12, 72, 60
1, 88080, Note_on_c, 12, 67, 60
1, 88080, Note_on_c, 12, 64, 60
1, 88090, Note_on_c, 9, 51, 0
1, 88090, Note_on_c, 9, 36, 0
1, 88090, Note_on_c, 8, 38, 0
1, 88090, Note_on_c, 11, 67, 70
1, 88100, Note_on_c, 11, 72, 70
1, 88110, Note_on_c, 11, 76, 70
1, 88200, Note_on_c, 0, 64, 0
1, 88200, Note_on_c, 0, 65, 60
1, 88260, Note_on_c, 12, 76, 0
1, 88260, Note_on_c, 12, 53, 0
1, 88320, Note_on_c, 0, 65, 0
1, 88320, Note_on_c, 0, 67, 95
1, 88320, Note_on_c, 9, 51, 50
1, 88330, Note_on_c, 9, 51, 0
1, 88440, Note_on_c, 0, 67, 0
1, 88440, Note_on_c, 0, 69, 70
1, 88510, Note_on_c, 12, 72, 0
1, 88510, Note_on_c, 12, 67, 0
1, 88540, Note_on_c, 12, 64, 0
1, 88560, Note_on_c, 0, 69, 0
1, 88560, Note_on_c, 0, 71, 80
1, 88560, Note_on_c, 9, 51, 40
1, 88560, Note_on_c, 9, 40, 30
1, 88560, Note_on_c, 9, 37, 20
1, 88560, Note_on_c, 8, 41, 90
1, 88560, Note_on_c, 12, 67, 60
1, 88570, Note_on_c, 9, 51, 0
1, 88570, Note_on_c, 9, 40, 0
1, 88570, Note_on_c, 9, 37, 0
1, 88570, Note_on_c, 8, 40, 0
1, 88680, Note_on_c, 0, 71, 0
1, 88680, Note_on_c, 0, 72, 70
1, 88780, Note_on_c, 12, 67, 0
1, 88790, Note_on_c, 0, 72, 0
1, 88800, Note_on_c, 0, 76, 100
1, 88800, Note_on_c, 9, 51, 50
1, 88800, Note_on_c, 9, 44, 90
1, 88800, Note_on_c, 9, 40, 60
1, 88800, Note_on_c, 9, 36, 70
1, 88800, Note_on_c, 8, 36, 100
1, 88800, Note_on_c, 12, 72, 80
1, 88800, Note_on_c, 12, 67, 80
1, 88800, Note_on_c, 12, 53, 80
1, 88810, Note_on_c, 9, 51, 0
1, 88810, Note_on_c, 9, 44, 0
1, 88810, Note_on_c, 9, 40, 0
1, 88810, Note_on_c, 9, 36, 0
1, 88810, Note_on_c, 8, 41, 0
1, 88910, Note_on_c, 0, 76, 0
1, 88920, Note_on_c, 0, 77, 85
1, 88920, Note_on_c, 9, 37, 30
1, 88930, Note_on_c, 9, 37, 0
1, 89030, Note_on_c, 0, 77, 0
1, 89040, Note_on_c, 0, 76, 95
1, 89040, Note_on_c, 9, 51, 40
1, 89050, Note_on_c, 9, 51, 0
1, 89150, Note_on_c, 0, 76, 0
1, 89160, Note_on_c, 0, 74, 60
1, 89230, Note_on_c, 8, 36, 0
1, 89250, Note_on_c, 0, 74, 0
1, 89280, Note_on_c, 0, 72, 95
1, 89280, Note_on_c, 9, 51, 50
1, 89280, Note_on_c, 9, 40, 50
1, 89280, Note_on_c, 8, 36, 80
1, 89290, Note_on_c, 9, 51, 0
1, 89290, Note_on_c, 9, 40, 0
1, 89500, Note_on_c, 8, 36, 0
1, 89520, Note_on_c, 9, 51, 40
1, 89520, Note_on_c, 8, 36, 80
1, 89520, Note_on_c, 12, 64, 70
1, 89530, Note_on_c, 9, 51, 0
1, 89600, Note_on_c, 12, 67, 0
1, 89630, Note_on_c, 0, 72, 0
1, 89640, Note_on_c, 9, 40, 40
1, 89640, Note_on_c, 9, 37, 40
1, 89650, Note_on_c, 9, 40, 0
1, 89650, Note_on_c, 9, 37, 0
1, 89720, Note_on_c, 12, 64, 0
1, 89740, Note_on_c, 8, 36, 0
1, 89760, Note_on_c, 0, 64, 50
1, 89760, Note_on_c, 9, 51, 50
1, 89760, Note_on_c, 8, 38, 90
1, 89760, Note_on_c, 12, 67, 70
1, 89770, Note_on_c, 9, 51, 0
1, 89780, Note_on_c, 0, 69, 80
1, 89790, Note_on_c, 0, 64, 0
1, 89880, Note_on_c, 0, 67, 50
1, 89900, Note_on_c, 0, 69, 0
1, 89960, Note_on_c, 12, 67, 0
1, 89980, Note_on_c, 8, 38, 0
1, 90000, Note_on_c, 0, 67, 0
1, 90000, Note_on_c, 0, 65, 60
1, 90000, Note_on_c, 9, 51, 40
1, 90000, Note_on_c, 9, 40, 40
1, 90000, Note_on_c, 9, 37, 40
1, 90000, Note_on_c, 8, 40, 90
1, 90000, Note_on_c, 12, 72, 0
1, 90000, Note_on_c, 12, 72, 80
1, 90010, Note_on_c, 9, 51, 0
1, 90010, Note_on_c, 9, 40, 0
1, 90010, Note_on_c, 9, 37, 0
1, 90120, Note_on_c, 0, 65, 0
1, 90120, Note_on_c, 0, 64, 50
1, 90200, Note_on_c, 12, 53, 0
1, 90210, Note_on_c, 0, 64, 0
1, 90210, Note_on_c, 11, 57, 0
1, 90210, Note_on_c, 11, 65, 0
1, 90210, Note_on_c, 11, 67, 0
1, 90210, Note_on_c, 11, 72, 0
1, 90210, Note_on_c, 11, 76, 0
1, 90220, Note_on_c, 8, 40, 0
1, 90230, Note_on_c, 11, 65, 80
1, 90230, Note_on_c, 11, 57, 80
1, 90240, Note_on_c, 0, 69, 70
1, 90240, Note_on_c, 9, 51, 60
1, 90240, Note_on_c, 9, 36, 80
1, 90240, Note_on_c, 8, 41, 90
1, 90240, Note_on_c, 11, 72, 80
1, 90240, Note_on_c, 11, 67, 80
1, 90240, Note_on_c, 12, 76, 90
1, 90240, Note_on_c, 12, 67, 90
1, 90240, Note_on_c, 12, 53, 90
1, 90250, Note_on_c, 9, 51, 0
1, 90250, Note_on_c, 9, 36, 0
1, 90250, Note_on_c, 11, 76, 80
1, 90430, Note_on_c, 11, 65, 0
1, 90430, Note_on_c, 11, 57, 0
1, 90440, Note_on_c, 11, 72, 0
1, 90440, Note_on_c, 11, 67, 0
1, 90450, Note_on_c, 11, 76, 0
1, 90460, Note_on_c, 0, 69, 0
1, 90480, Note_on_c, 0, 64, 60
1, 90480, Note_on_c, 9, 51, 40
1, 90490, Note_on_c, 9, 51, 0
1, 90700, Note_on_c, 0, 64, 0
1, 90710, Note_on_c, 11, 65, 90
1, 90710, Note_on_c, 11, 57, 90
1, 90720, Note_on_c, 0, 62, 60
1, 90720, Note_on_c, 9, 51, 50
1, 90720, Note_on_c, 9, 44, 90
1, 90720, Note_on_c, 9, 40, 70
1, 90720, Note_on_c, 9, 37, 60
1, 90720, Note_on_c, 8, 29, 100
1, 90720, Note_on_c, 11, 67, 90
1, 90730, Note_on_c, 9, 51, 0
1, 90730, Note_on_c, 9, 44, 0
1, 90730, Note_on_c, 9, 40, 0
1, 90730, Note_on_c, 9, 37, 0
1, 90730, Note_on_c, 8, 41, 0
1, 90730, Note_on_c, 11, 72, 80
1, 90740, Note_on_c, 11, 76, 80
1, 90960, Note_on_c, 9, 51, 40
1, 90960, Note_on_c, 9, 36, 50
1, 90970, Note_on_c, 9, 51, 0
1, 90970, Note_on_c, 9, 36, 0
1, 91140, Note_on_c, 12, 72, 0
1, 91140, Note_on_c, 12, 76, 0
1, 91140, Note_on_c, 12, 67, 0
1, 91140, Note_on_c, 12, 53, 0
1, 91200, Note_on_c, 9, 51, 50
1, 91200, Note_on_c, 9, 36, 60
1, 91200, Note_on_c, 12, 79, 80
1, 91200, Note_on_c, 12, 76, 80
1, 91200, Note_on_c, 12, 72, 80
1, 91200, Note_on_c, 12, 53, 80
1, 91210, Note_on_c, 9, 51, 0
1, 91210, Note_on_c, 9, 36, 0
1, 91420, Note_on_c, 0, 62, 0
1, 91440, Note_on_c, 9, 51, 50
1, 91440, Note_on_c, 8, 29, 0
1, 91440, Note_on_c, 8, 33, 90
1, 91450, Note_on_c, 9, 51, 0
1, 91680, Note_on_c, 9, 51, 50
1, 91680, Note_on_c, 9, 44, 90
1, 91680, Note_on_c, 9, 40, 50
1, 91680, Note_on_c, 9, 37, 60
1, 91690, Note_on_c, 9, 51, 0
1, 91690, Note_on_c, 9, 44, 0
1, 91690, Note_on_c, 9, 40, 0
1, 91690, Note_on_c, 9, 37, 0
1, 91910, Note_on_c, 11, 65, 0
1, 91910, Note_on_c, 11, 57, 0
1, 91910, Note_on_c, 11, 67, 0
1, 91910, Note_on_c, 11, 72, 0
1, 91910, Note_on_c, 11, 76, 0
1, 91910, Note_on_c, 11, 57, 70
1, 91920, Note_on_c, 0, 60, 70
1, 91920, Note_on_c, 9, 51, 40
1, 91920, Note_on_c, 9, 36, 70
1, 91920, Note_on_c, 8, 34, 100
1, 91920, Note_on_c, 11, 65, 70
1, 91930, Note_on_c, 9, 51, 0
1, 91930, Note_on_c, 9, 36, 0
1, 91930, Note_on_c, 8, 33, 0
1, 91930, Note_on_c, 11, 67, 70
1, 91940, Note_on_c, 11, 72, 70
1, 91950, Note_on_c, 11, 76, 70
1, 92040, Note_on_c, 0, 60, 0
1, 92040, Note_on_c, 0, 62, 50
1, 92100, Note_on_c, 12, 79, 0
1, 92100, Note_on_c, 12, 76, 0
1, 92100, Note_on_c, 12, 72, 0
1, 92100, Note_on_c, 12, 53, 0
1, 92130, Note_on_c, 0, 62, 0
1, 92160, Note_on_c, 0, 64, 80
1, 92160, Note_on_c, 9, 51, 50
1, 92160, Note_on_c, 12, 79, 70
1, 92160, Note_on_c, 12, 76, 70
1, 92160, Note_on_c, 12, 72, 70
1, 92160, Note_on_c, 12, 53, 70
1, 92170, Note_on_c, 9, 51, 0
1, 92280, Note_on_c, 0, 64, 0
1, 92280, Note_on_c, 0, 65, 60
1, 92280, Note_on_c, 9, 40, 40
1, 92280, Note_on_c, 9, 37, 40
1, 92290, Note_on_c, 9, 40, 0
1, 92290, Note_on_c, 9, 37, 0
1, 92370, Note_on_c, 0, 65, 0
1, 92400, Note_on_c, 0, 67, 80
1, 92400, Note_on_c, 9, 51, 40
1, 92400, Note_on_c, 9, 40, 30
1, 92400, Note_on_c, 9, 37, 20
1, 92400, Note_on_c, 8, 35, 90
1, 92410, Note_on_c, 9, 51, 0
1, 92410, Note_on_c, 9, 40, 0
1, 92410, Note_on_c, 9, 37, 0
1, 92490, Note_on_c, 0, 67, 0
1, 92520, Note_on_c, 0, 64, 60
1, 92520, Note_on_c, 9, 40, 30
1, 92520, Note_on_c, 9, 37, 40
1, 92530, Note_on_c, 9, 40, 0
1, 92530, Note_on_c, 9, 37, 0
1, 92600, Note_on_c, 0, 64, 0
1, 92640, Note_on_c, 0, 65, 85
1, 92640, Note_on_c, 9, 51, 60
1, 92640, Note_on_c, 9, 44, 90
1, 92640, Note_on_c, 9, 40, 50
1, 92640, Note_on_c, 9, 36, 70
1, 92650, Note_on_c, 9, 51, 0
1, 92650, Note_on_c, 9, 44, 0
1, 92650, Note_on_c, 9, 40, 0
1, 92650, Note_on_c, 9, 36, 0
1, 92740, Note_on_c, 0, 65, 0
1, 92760, Note_on_c, 0, 67, 60
1, 92760, Note_on_c, 9, 40, 40
1, 92760, Note_on_c, 9, 37, 40
1, 92770, Note_on_c, 9, 40, 0
1, 92770, Note_on_c, 9, 37, 0
1, 92850, Note_on_c, 0, 67, 0
1, 92880, Note_on_c, 0, 69, 80
1, 92880, Note_on_c, 9, 51, 50
1, 92880, Note_on_c, 8, 36, 100
1, 92890, Note_on_c, 9, 51, 0
1, 92890, Note_on_c, 8, 35, 0
1, 92980, Note_on_c, 0, 69, 0
1, 93000, Note_on_c, 0, 71, 70
1, 93000, Note_on_c, 9, 40, 40
1, 93000, Note_on_c, 9, 37, 40
1, 93010, Note_on_c, 9, 40, 0
1, 93010, Note_on_c, 9, 37, 0
1, 93060, Note_on_c, 12, 79, 0
1, 93060, Note_on_c, 12, 76, 0
1, 93060, Note_on_c, 12, 72, 0
1, 93060, Note_on_c, 12, 53, 0
1, 93090, Note_on_c, 0, 71, 0
1, 93120, Note_on_c, 0, 72, 100
1, 93120, Note_on_c, 9, 51, 50
1, 93120, Note_on_c, 9, 40, 70
1, 93120, Note_on_c, 12, 79, 60
1, 93120, Note_on_c, 12, 76, 60
1, 93120, Note_on_c, 12, 72, 60
1, 93120, Note_on_c, 12, 53, 60
1, 93130, Note_on_c, 9, 51, 0
1, 93130, Note_on_c, 9, 40, 0
1, 93240, Note_on_c, 0, 72, 0
1, 93240, Note_on_c, 0, 74, 80
1, 93240, Note_on_c, 9, 40, 30
1, 93240, Note_on_c, 9, 37, 40
1, 93250, Note_on_c, 9, 40, 0
1, 93250, Note_on_c, 9, 37, 0
1, 93360, Note_on_c, 0, 74, 0
1, 93360, Note_on_c, 0, 76, 90
1, 93360, Note_on_c, 9, 51, 50
1, 93370, Note_on_c, 9, 51, 0
1, 93480, Note_on_c, 0, 76, 0
1, 93480, Note_on_c, 0, 77, 80
1, 93480, Note_on_c, 9, 40, 70
1, 93480, Note_on_c, 9, 37, 30
1, 93490, Note_on_c, 9, 40, 0
1, 93490, Note_on_c, 9, 37, 0
1, 93580, Note_on_c, 0, 77, 0
1, 93580, Note_on_c, 8, 36, 0
1, 93600, Note_on_c, 0, 77, 80
1, 93600, Note_on_c, 9, 51, 60
1, 93600, Note_on_c, 9, 40, 60
1, 93600, Note_on_c, 9, 37, 50
1, 93600, Note_on_c, 9, 36, 60
1, 93600, Note_on_c, 8, 38, 90
1, 93610, Note_on_c, 9, 51, 0
1, 93610, Note_on_c, 9, 40, 0
1, 93610, Note_on_c, 9, 37, 0
1, 93610, Note_on_c, 9, 36, 0
1, 93720, Note_on_c, 0, 77, 0
1, 93720, Note_on_c, 0, 76, 70
1, 93720, Note_on_c, 9, 40, 40
1, 93720, Note_on_c, 9, 37, 50
1, 93730, Note_on_c, 9, 40, 0
1, 93730, Note_on_c, 9, 37, 0
1, 93820, Note_on_c, 8, 38, 0
1, 93830, Note_on_c, 0, 76, 0
1, 93840, Note_on_c, 0, 74, 80
1, 93840, Note_on_c, 9, 51, 50
1, 93840, Note_on_c, 9, 40, 60
1, 93840, Note_on_c, 9, 37, 50
1, 93840, Note_on_c, 8, 40, 100
1, 93850, Note_on_c, 9, 51, 0
1, 93850, Note_on_c, 9, 40, 0
1, 93850, Note_on_c, 9, 37, 0
1, 93960, Note_on_c, 0, 74, 0
1, 93960, Note_on_c, 0, 72, 60
1, 93960, Note_on_c, 9, 40, 50
1, 93960, Note_on_c, 9, 37, 50
1, 93970, Note_on_c, 9, 40, 0
1, 93970, Note_on_c, 9, 37, 0
1, 94020, Note_on_c, 12, 79, 0
1, 94020, Note_on_c, 12, 76, 0
1, 94020, Note_on_c, 12, 72, 0
1, 94020, Note_on_c, 12, 53, 0
1, 94050, Note_on_c, 0, 72, 0
1, 94050, Note_on_c, 11, 57, 0
1, 94050, Note_on_c, 11, 65, 0
1, 94050, Note_on_c, 11, 67, 0
1, 94050, Note_on_c, 11, 72, 0
1, 94050, Note_on_c, 11, 76, 0
1, 94060, Note_on_c, 8, 40, 0
1, 94070, Note_on_c, 11, 57, 90
1, 94080, Control_c, 9, 11, 120
1, 94080, Note_on_c, 9, 51, 60
1, 94080, Note_on_c, 9, 36, 70
1, 94080, Control_c, 8, 11, 120
1, 94080, Note_on_c, 8, 33, 100
1, 94080, Note_on_c, 11, 61, 90
1, 94080, Control_c, 12, 11, 95
1, 94080, Note_on_c, 12, 73, 80
1, 94080, Note_on_c, 12, 69, 80
1, 94080, Note_on_c, 12, 64, 80
1, 94090, Note_on_c, 9, 51, 0
1, 94090, Note_on_c, 9, 36, 0
1, 94090, Note_on_c, 11, 64, 90
1, 94100, Note_on_c, 11, 69, 90
1, 94110, Note_on_c, 11, 73, 90
1, 94270, Note_on_c, 11, 57, 0
1, 94280, Note_on_c, 11, 61, 0
1, 94290, Note_on_c, 11, 64, 0
1, 94300, Note_on_c, 8, 33, 0
1, 94300, Note_on_c, 11, 69, 0
1, 94300, Note_on_c, 12, 73, 0
1, 94300, Note_on_c, 12, 69, 0
1, 94300, Note_on_c, 12, 64, 0
1, 94310, Note_on_c, 11, 73, 0
1, 94320, Note_on_c, 9, 51, 40
1, 94320, Note_on_c, 8, 33, 100
1, 94320, Note_on_c, 12, 73, 60
1, 94320, Note_on_c, 12, 69, 60
1, 94320, Note_on_c, 12, 64, 60
1, 94330, Note_on_c, 9, 51, 0
1, 94540, Note_on_c, 8, 33, 0
1, 94550, Note_on_c, 11, 73, 90
1, 94550, Note_on_c, 11, 69, 90
1, 94550, Note_on_c, 11, 64, 90
1, 94550, Note_on_c, 11, 61, 90
1, 94550, Note_on_c, 11, 57, 90
1, 94560, Note_on_c, 9, 51, 50
1, 94560, Note_on_c, 9, 44, 90
1, 94570, Note_on_c, 9, 51, 0
1, 94570, Note_on_c, 9, 44, 0
1, 94620, Note_on_c, 12, 73, 0
1, 94620, Note_on_c, 12, 69, 0
1, 94620, Note_on_c, 12, 64, 0
1, 94720, Note_on_c, 8, 34, 0
1, 94800, Note_on_c, 9, 51, 40
1, 94800, Note_on_c, 9, 36, 50
1, 94800, Note_on_c, 8, 40, 80
1, 94800, Note_on_c, 12, 73, 70
1, 94800, Note_on_c, 12, 69, 70
1, 94800, Note_on_c, 12, 64, 70
1, 94810, Note_on_c, 9, 51, 0
1, 94810, Note_on_c, 9, 36, 0
1, 95020, Note_on_c, 8, 40, 0
1, 95040, Note_on_c, 9, 51, 50
1, 95040, Note_on_c, 9, 44, 90
1, 95040, Note_on_c, 9, 36, 60
1, 95040, Note_on_c, 8, 45, 90
1, 95050, Note_on_c, 9, 51, 0
1, 95050, Note_on_c, 9, 44, 0
1, 95050, Note_on_c, 9, 36, 0
1, 95160, Note_on_c, 0, 71, 100
1, 95280, Note_on_c, 0, 73, 110
1, 95280, Note_on_c, 9, 51, 50
1, 95280, Note_on_c, 9, 40, 50
1, 95280, Note_on_c, 9, 37, 60
1, 95290, Note_on_c, 0, 71, 0
1, 95290, Note_on_c, 9, 51, 0
1, 95290, Note_on_c, 9, 40, 0
1, 95290, Note_on_c, 9, 37, 0
1, 95380, Note_on_c, 0, 73, 0
1, 95520, Note_on_c, 0, 73, 105
1, 95520, Note_on_c, 9, 51, 50
1, 95520, Note_on_c, 9, 44, 100
1, 95520, Note_on_c, 9, 40, 60
1, 95520, Note_on_c, 9, 37, 60
1, 95530, Note_on_c, 9, 51, 0
1, 95530, Note_on_c, 9, 44, 0
1, 95530, Note_on_c, 9, 40, 0
1, 95530, Note_on_c, 9, 37, 0
1, 95750, Note_on_c, 11, 73, 0
1, 95750, Note_on_c, 11, 69, 0
1, 95750, Note_on_c, 11, 64, 0
1, 95750, Note_on_c, 11, 61, 0
1, 95750, Note_on_c, 11, 57, 0
1, 95750, Note_on_c, 11, 76, 90
1, 95750, Note_on_c, 11, 73, 90
1, 95750, Note_on_c, 11, 69, 90
1, 95760, Note_on_c, 0, 71, 80
1, 95760, Note_on_c, 9, 51, 40
1, 95760, Note_on_c, 9, 36, 50
1, 95760, Note_on_c, 8, 40, 80
1, 95770, Note_on_c, 0, 73, 0
1, 95770, Note_on_c, 9, 51, 0
1, 95770, Note_on_c, 9, 36, 0
1, 95770, Note_on_c, 8, 45, 0
1, 95800, Note_on_c, 12, 73, 0
1, 95800, Note_on_c, 12, 69, 0
1, 95800, Note_on_c, 12, 64, 0
1, 95880, Note_on_c, 0, 71, 0
1, 95880, Note_on_c, 0, 69, 90
1, 95960, Note_on_c, 0, 69, 0
1, 95980, Note_on_c, 8, 40, 0
1, 96000, Note_on_c, 0, 76, 110
1, 96000, Note_on_c, 9, 51, 60
1, 96000, Note_on_c, 9, 36, 70
1, 96000, Note_on_c, 8, 33, 100
1, 96000, Note_on_c, 12, 73, 75
1, 96000, Note_on_c, 12, 69, 75
1, 96000, Note_on_c, 12, 64, 75
1, 96010, Note_on_c, 9, 51, 0
1, 96010, Note_on_c, 9, 36, 0
1, 96220, Note_on_c, 8, 33, 0
1, 96220, Note_on_c, 12, 73, 0
1, 96220, Note_on_c, 12, 69, 0
1, 96220, Note_on_c, 12, 64, 0
1, 96240, Note_on_c, 0, 73, 70
1, 96240, Note_on_c, 9, 51, 40
1, 96240, Note_on_c, 8, 40, 90
1, 96240, Note_on_c, 12, 73, 60
1, 96240, Note_on_c, 12, 69, 60
1, 96240, Note_on_c, 12, 64, 60
1, 96250, Note_on_c, 0, 76, 0
1, 96250, Note_on_c, 9, 51, 0
1, 96340, Note_on_c, 0, 73, 0
1, 96340, Note_on_c, 0, 72, 60
1, 96380, Note_on_c, 0, 72, 0
1, 96380, Note_on_c, 0, 71, 80
1, 96440, Note_on_c, 0, 71, 0
1, 96470, Note_on_c, 11, 76, 0
1, 96470, Note_on_c, 11, 73, 0
1, 96470, Note_on_c, 11, 69, 0
1, 96470, Note_on_c, 11, 73, 80
1, 96470, Note_on_c, 11, 69, 80
1, 96470, Note_on_c, 11, 64, 80
1, 96480, Note_on_c, 0, 73, 95
1, 96480, Note_on_c, 9, 51, 50
1, 96480, Note_on_c, 9, 44, 90
1, 96490, Note_on_c, 9, 51, 0
1, 96490, Note_on_c, 9, 44, 0
1, 96540, Note_on_c, 12, 73, 0
1, 96540, Note_on_c, 12, 69, 0
1, 96540, Note_on_c, 12, 64, 0
1, 96670, Note_on_c, 8, 40, 0
1, 96720, Note_on_c, 0, 71, 80
1, 96720, Note_on_c, 9, 51, 40
1, 96720, Note_on_c, 9, 36, 50
1, 96720, Pitch_bend_c, 8, 8142
1, 96720, Note_on_c, 8, 45, 90
1, 96720, Note_on_c, 12, 73, 70
1, 96720, Note_on_c, 12, 69, 70
1, 96720, Note_on_c, 12, 64, 70
1, 96730, Note_on_c, 0, 73, 0
1, 96730, Note_on_c, 9, 51, 0
1, 96730, Note_on_c, 9, 36, 0
1, 96800, Pitch_bend_c, 8, 8092
1, 96820, Note_on_c, 0, 71, 0
1, 96820, Note_on_c, 0, 70, 60
1, 96860, Note_on_c, 0, 70, 0
1, 96860, Note_on_c, 0, 69, 70
1, 96880, Pitch_bend_c, 8, 7992
1, 96920, Note_on_c, 0, 69, 0
1, 96950, Note_on_c, 11, 73, 0
1, 96950, Note_on_c, 11, 69, 0
1, 96950, Note_on_c, 11, 64, 0
1, 96950, Note_on_c, 11, 76, 95
1, 96950, Note_on_c, 11, 73, 95
1, 96950, Note_on_c, 11, 67, 95
1, 96960, Note_on_c, 0, 76, 100
1, 96960, Note_on_c, 9, 51, 50
1, 96960, Note_on_c, 9, 36, 60
1, 96960, Pitch_bend_c, 8, 7892
1, 96970, Note_on_c, 9, 51, 0
1, 96970, Note_on_c, 9, 36, 0
1, 97020, Pitch_bend_c, 8, 7792
1, 97020, Note_on_c, 12, 73, 0
1, 97020, Note_on_c, 12, 69, 0
1, 97020, Note_on_c, 12, 64, 0
1, 97080, Pitch_bend_c, 8, 7742
1, 97140, Pitch_bend_c, 8, 7692
1, 97180, Note_on_c, 8, 45, 0
1, 97200, Note_on_c, 0, 73, 70
1, 97200, Note_on_c, 9, 51, 50
1, 97200, Pitch_bend_c, 8, 8192
1, 97200, Note_on_c, 8, 40, 80
1, 97200, Note_on_c, 12, 73, 80
1, 97200, Note_on_c, 12, 69, 80
1, 97200, Note_on_c, 12, 64, 80
1, 97210, Note_on_c, 0, 76, 0
1, 97210, Note_on_c, 9, 51, 0
1, 97270, Note_on_c, 11, 76, 0
1, 97270, Note_on_c, 11, 73, 0
1, 97270, Note_on_c, 11, 67, 0
1, 97270, Note_on_c, 11, 75, 95
1, 97270, Note_on_c, 11, 71, 95
1, 97270, Note_on_c, 11, 66, 95
1, 97300, Note_on_c, 0, 73, 0
1, 97300, Note_on_c, 0, 73, 60
1, 97340, Note_on_c, 0, 73, 0
1, 97340, Note_on_c, 0, 71, 80
1, 97420, Note_on_c, 0, 71, 0
1, 97440, Note_on_c, 0, 73, 90
1, 97440, Note_on_c, 9, 51, 50
1, 97440, Note_on_c, 9, 47, 70
1, 97440, Note_on_c, 9, 44, 90
1, 97440, Note_on_c, 8, 50, 90
1, 97450, Note_on_c, 9, 51, 0
1, 97450, Note_on_c, 9, 47, 0
1, 97450, Note_on_c, 9, 44, 0
1, 97450, Note_on_c, 8, 40, 0
1, 97590, Note_on_c, 11, 75, 0
1, 97590, Note_on_c, 11, 71, 0
1, 97590, Note_on_c, 11, 66, 0
1, 97590, Note_on_c, 11, 74, 85
1, 97590, Note_on_c, 11, 70, 85
1, 97590, Note_on_c, 11, 65, 85
1, 97680, Note_on_c, 0, 71, 70
1, 97680, Note_on_c, 9, 51, 40
1, 97680, Note_on_c, 9, 47, 70
1, 97680, Note_on_c, 9, 36, 50
1, 97690, Note_on_c, 0, 73, 0
1, 97690, Note_on_c, 9, 51, 0
1, 97690, Note_on_c, 9, 47, 0
1, 97690, Note_on_c, 9, 36, 0
1, 97780, Note_on_c, 0, 71, 0
1, 97780, Note_on_c, 0, 70, 50
1, 97800, Note_on_c, 12, 73, 0
1, 97800, Note_on_c, 12, 69, 0
1, 97800, Note_on_c, 12, 64, 0
1, 97840, Note_on_c, 0, 70, 0
1, 97840, Note_on_c, 0, 69, 70
1, 97870, Note_on_c, 8, 50, 0
1, 97890, Note_on_c, 11, 74, 0
1, 97890, Note_on_c, 11, 70, 0
1, 97890, Note_on_c, 11, 65, 0
1, 97900, Note_on_c, 0, 69, 0
1, 97910, Note_on_c, 11, 74, 90
1, 97910, Note_on_c, 11, 70, 90
1, 97910, Note_on_c, 11, 65, 90
1, 97920, Note_on_c, 0, 65, 70
1, 97920, Note_on_c, 9, 51, 60
1, 97920, Note_on_c, 9, 36, 70
1, 97920, Note_on_c, 8, 33, 100
1, 97920, Note_on_c, 12, 73, 80
1, 97920, Note_on_c, 12, 69, 80
1, 97920, Note_on_c, 12, 64, 80
1, 97930, Note_on_c, 9, 51, 0
1, 97930, Note_on_c, 9, 36, 0
1, 97940, Note_on_c, 0, 65, 0
1, 97960, Note_on_c, 0, 66, 80
1, 98140, Note_on_c, 8, 33, 0
1, 98160, Note_on_c, 9, 51, 40
1, 98160, Note_on_c, 8, 33, 100
1, 98170, Note_on_c, 9, 51, 0
1, 98230, Note_on_c, 11, 74, 0
1, 98230, Note_on_c, 11, 70, 0
1, 98230, Note_on_c, 11, 65, 0
1, 98230, Note_on_c, 11, 73, 90
1, 98230, Note_on_c, 11, 69, 90
1, 98230, Note_on_c, 11, 64, 90
1, 98380, Note_on_c, 8, 33, 0
1, 98400, Note_on_c, 9, 51, 50
1, 98400, Note_on_c, 9, 44, 90
1, 98400, Note_on_c, 9, 40, 60
1, 98400, Note_on_c, 9, 37, 60
1, 98410, Note_on_c, 9, 51, 0
1, 98410, Note_on_c, 9, 44, 0
1, 98410, Note_on_c, 9, 40, 0
1, 98410, Note_on_c, 9, 37, 0
1, 98520, Note_on_c, 12, 73, 0
1, 98520, Note_on_c, 12, 69, 0
1, 98520, Note_on_c, 12, 64, 0
1, 98550, Note_on_c, 11, 73, 0
1, 98550, Note_on_c, 11, 69, 0
1, 98550, Note_on_c, 11, 64, 0
1, 98550, Note_on_c, 11, 72, 80
1, 98550, Note_on_c, 11, 68, 80
1, 98550, Note_on_c, 11, 63, 80
1, 98640, Note_on_c, 9, 51, 40
1, 98640, Note_on_c, 9, 36, 50
1, 98640, Note_on_c, 8, 40, 80
1, 98640, Note_on_c, 12, 73, 70
1, 98640, Note_on_c, 12, 69, 70
1, 98640, Note_on_c, 12, 64, 70
1, 98650, Note_on_c, 9, 51, 0
1, 98650, Note_on_c, 9, 36, 0
1, 98850, Note_on_c, 11, 72, 0
1, 98850, Note_on_c, 11, 68, 0
1, 98850, Note_on_c, 11, 63, 0
1, 98860, Note_on_c, 0, 66, 0
1, 98860, Note_on_c, 8, 40, 0
1, 98860, Note_on_c, 12, 73, 0
1, 98860, Note_on_c, 12, 69, 0
1, 98860, Note_on_c, 12, 64, 0
1, 98870, Note_on_c, 11, 73, 80
1, 98870, Note_on_c, 11, 69, 80
1, 98870, Note_on_c, 11, 64, 80
1, 98880, Note_on_c, 0, 71, 60
1, 98880, Note_on_c, 9, 51, 50
1, 98880, Note_on_c, 9, 36, 60
1, 98880, Note_on_c, 8, 45, 90
1, 98880, Note_on_c, 12, 73, 75
1, 98880, Note_on_c, 12, 69, 75
1, 98880, Note_on_c, 12, 64, 75
1, 98890, Note_on_c, 9, 51, 0
1, 98890, Note_on_c, 9, 36, 0
1, 98940, Note_on_c, 0, 71, 0
1, 98940, Note_on_c, 0, 73, 100
1, 99120, Note_on_c, 9, 51, 50
1, 99130, Note_on_c, 9, 51, 0
1, 99190, Note_on_c, 11, 73, 0
1, 99190, Note_on_c, 11, 69, 0
1, 99190, Note_on_c, 11, 64, 0
1, 99360, Note_on_c, 9, 51, 50
1, 99360, Note_on_c, 9, 44, 90
1, 99360, Note_on_c, 9, 40, 40
1, 99360, Note_on_c, 9, 37, 60
1, 99370, Note_on_c, 9, 51, 0
1, 99370, Note_on_c, 9, 44, 0
1, 99370, Note_on_c, 9, 40, 0
1, 99370, Note_on_c, 9, 37, 0
1, 99480, Note_on_c, 0, 71, 70
1, 99580, Note_on_c, 12, 73, 0
1, 99580, Note_on_c, 12, 69, 0
1, 99580, Note_on_c, 12, 64, 0
1, 99590, Note_on_c, 11, 73, 80
1, 99590, Note_on_c, 11, 69, 80
1, 99590, Note_on_c, 11, 64, 80
1, 99600, Note_on_c, 0, 69, 70
1, 99600, Note_on_c, 9, 51, 40
1, 99600, Note_on_c, 9, 36, 50
1, 99600, Note_on_c, 8, 40, 80
1, 99610, Note_on_c, 0, 71, 0
1, 99610, Note_on_c, 9, 51, 0
1, 99610, Note_on_c, 9, 36, 0
1, 99610, Note_on_c, 8, 45, 0
1, 99640, Note_on_c, 0, 73, 0
1, 99720, Note_on_c, 0, 69, 0
1, 99720, Note_on_c, 0, 66, 70
1, 99800, Note_on_c, 0, 66, 0
1, 99820, Note_on_c, 8, 40, 0
1, 99840, Note_on_c, 0, 64, 65
1, 99840, Note_on_c, 9, 51, 60
1, 99840, Note_on_c, 9, 36, 70
1, 99840, Note_on_c, 8, 33, 100
1, 99840, Note_on_c, 12, 73, 80
1, 99840, Note_on_c, 12, 69, 80
1, 99840, Note_on_c, 12, 64, 80
1, 99850, Note_on_c, 9, 51, 0
1, 99850, Note_on_c, 9, 36, 0
1, 99910, Note_on_c, 11, 73, 0
1, 99910, Note_on_c, 11, 69, 0
1, 99960, Note_on_c, 0, 61, 60
1, 99970, Note_on_c, 0, 64, 0
1, 100060, Note_on_c, 8, 33, 0
1, 100080, Note_on_c, 0, 61, 0
1, 100080, Note_on_c, 0, 57, 50
1, 100080, Note_on_c, 9, 51, 40
1, 100080, Note_on_c, 8, 33, 90
1, 100090, Note_on_c, 9, 51, 0
1, 100160, Note_on_c, 0, 57, 0
1, 100200, Note_on_c, 0, 54, 80
1, 100300, Note_on_c, 8, 33, 0
1, 100310, Note_on_c, 11, 73, 90
1, 100310, Note_on_c, 11, 69, 90
1, 100310, Note_on_c, 11, 61, 90
1, 100320, Note_on_c, 9, 51, 50
1, 100320, Note_on_c, 9, 44, 90
1, 100320, Note_on_c, 9, 40, 70
1, 100320, Note_on_c, 9, 37, 60
1, 100330, Note_on_c, 9, 51, 0
1, 100330, Note_on_c, 9, 44, 0
1, 100330, Note_on_c, 9, 40, 0
1, 100330, Note_on_c, 9, 37, 0
1, 100440, Note_on_c, 12, 73, 0
1, 100440, Note_on_c, 12, 69, 0
1, 100440, Note_on_c, 12, 64, 0
1, 100560, Note_on_c, 9, 51, 40
1, 100560, Note_on_c, 9, 36, 50
1, 100560, Note_on_c, 8, 45, 90
1, 100560, Note_on_c, 12, 73, 70
1, 100560, Note_on_c, 12, 69, 70
1, 100560, Note_on_c, 12, 64, 70
1, 100570, Note_on_c, 9, 51, 0
1, 100570, Note_on_c, 9, 36, 0
1, 100660, Note_on_c, 0, 54, 0
1, 100800, Note_on_c, 9, 51, 50
1, 100800, Note_on_c, 9, 36, 60
1, 100810, Note_on_c, 9, 51, 0
1, 100810, Note_on_c, 9, 36, 0
1, 100860, Note_on_c, 12, 73, 0
1, 100860, Note_on_c, 12, 69, 0
1, 100860, Note_on_c, 12, 64, 0
1, 100990, Note_on_c, 8, 45, 0
1, 101040, Note_on_c, 9, 51, 50
1, 101040, Pitch_bend_c, 8, 8142
1, 101040, Note_on_c, 8, 50, 90
1, 101040, Note_on_c, 12, 73, 75
1, 101040, Note_on_c, 12, 69, 75
1, 101040, Note_on_c, 12, 64, 75
1, 101050, Note_on_c, 9, 51, 0
1, 101120, Pitch_bend_c, 8, 8092
1, 101200, Pitch_bend_c, 8, 7992
1, 101280, Note_on_c, 9, 51, 50
1, 101280, Note_on_c, 9, 47, 80
1, 101280, Note_on_c, 9, 44, 90
1, 101280, Pitch_bend_c, 8, 7892
1, 101290, Note_on_c, 9, 51, 0
1, 101290, Note_on_c, 9, 47, 0
1, 101290, Note_on_c, 9, 44, 0
1, 101340, Note_on_c, 12, 73, 0
1, 101340, Note_on_c, 12, 69, 0
1, 101340, Note_on_c, 12, 64, 0
1, 101360, Pitch_bend_c, 8, 7792
1, 101440, Pitch_bend_c, 8, 7742
1, 101500, Note_on_c, 8, 50, 0
1, 101500, Pitch_bend_c, 8, 7692
1, 101510, Note_on_c, 11, 73, 0
1, 101510, Note_on_c, 11, 69, 0
1, 101510, Note_on_c, 11, 61, 0
1, 101520, Note_on_c, 0, 57, 90
1, 101520, Note_on_c, 9, 51, 40
1, 101520, Note_on_c, 9, 36, 50
1, 101520, Note_on_c, 12, 73, 60
1, 101520, Note_on_c, 12, 69, 60
1, 101520, Note_on_c, 12, 64, 60
1, 101530, Note_on_c, 9, 51, 0
1, 101530, Note_on_c, 9, 36, 0
1, 101560, Pitch_bend_c, 8, 8192
1, 101560, Note_on_c, 8, 45, 90
1, 101740, Note_on_c, 0, 57, 0
1, 101750, Note_on_c, 11, 57, 110
1, 101760, Note_on_c, 0, 59, 90
1, 101760, Note_on_c, 9, 51, 60
1, 101760, Note_on_c, 9, 36, 70
1, 101760, Note_on_c, 11, 73, 100
1, 101760, Note_on_c, 11, 69, 100
1, 101760, Note_on_c, 11, 61, 100
1, 101770, Note_on_c, 9, 51, 0
1, 101770, Note_on_c, 9, 36, 0
1, 101780, Note_on_c, 8, 45, 0
1, 101800, Note_on_c, 0, 61, 100
1, 101800, Note_on_c, 8, 33, 100
1, 101820, Note_on_c, 0, 59, 0
1, 101820, Note_on_c, 12, 73, 0
1, 101820, Note_on_c, 12, 69, 0
1, 101950, Note_on_c, 11, 57, 0
1, 101960, Note_on_c, 11, 73, 0
1, 101960, Note_on_c, 11, 69, 0
1, 101960, Note_on_c, 11, 61, 0
1, 102000, Note_on_c, 9, 51, 40
1, 102000, Note_on_c, 12, 73, 70
1, 102000, Note_on_c, 12, 69, 70
1, 102010, Note_on_c, 9, 51, 0
1, 102020, Note_on_c, 8, 33, 0
1, 102040, Note_on_c, 8, 33, 90
1, 102230, Note_on_c, 11, 73, 90
1, 102230, Note_on_c, 11, 69, 90
1, 102230, Note_on_c, 11, 61, 90
1, 102230, Note_on_c, 11, 57, 90
1, 102240, Note_on_c, 9, 51, 50
1, 102240, Note_on_c, 9, 44, 90
1, 102240, Note_on_c, 9, 40, 60
1, 102240, Note_on_c, 9, 37, 60
1, 102250, Note_on_c, 9, 51, 0
1, 102250, Note_on_c, 9, 44, 0
1, 102250, Note_on_c, 9, 40, 0
1, 102250, Note_on_c, 9, 37, 0
1, 102260, Note_on_c, 8, 33, 0
1, 102280, Note_on_c, 8, 45, 70
1, 102300, Note_on_c, 12, 73, 0
1, 102300, Note_on_c, 12, 69, 0
1, 102390, Note_on_c, 11, 64, 0
1, 102480, Note_on_c, 9, 51, 40
1, 102480, Note_on_c, 9, 36, 50
1, 102480, Note_on_c, 12, 73, 60
1, 102480, Note_on_c, 12, 69, 60
1, 102490, Note_on_c, 9, 51, 0
1, 102490, Note_on_c, 9, 36, 0
1, 102500, Note_on_c, 8, 45, 0
1, 102520, Note_on_c, 8, 52, 100
1, 102700, Note_on_c, 12, 73, 0
1, 102700, Note_on_c, 12, 69, 0
1, 102720, Note_on_c, 9, 51, 50
1, 102720, Note_on_c, 9, 36, 60
1, 102720, Note_on_c, 12, 73, 75
1, 102720, Note_on_c, 12, 69, 75
1, 102730, Note_on_c, 9, 51, 0
1, 102730, Note_on_c, 9, 36, 0
1, 102840, Note_on_c, 0, 64, 80
1, 102850, Note_on_c, 0, 61, 0
1, 102960, Note_on_c, 0, 66, 70
1, 102960, Note_on_c, 9, 51, 50
1, 102970, Note_on_c, 0, 64, 0
1, 102970, Note_on_c, 9, 51, 0
1, 103000, Note_on_c, 8, 49, 70
1, 103010, Note_on_c, 8, 52, 0
1, 103080, Note_on_c, 0, 66, 0
1, 103080, Note_on_c, 0, 68, 60
1, 103160, Note_on_c, 0, 68, 0
1, 103200, Note_on_c, 0, 69, 90
1, 103200, Note_on_c, 9, 51, 50
1, 103200, Note_on_c, 9, 44, 90
1, 103200, Note_on_c, 9, 40, 50
1, 103200, Note_on_c, 9, 37, 60
1, 103210, Note_on_c, 9, 51, 0
1, 103210, Note_on_c, 9, 44, 0
1, 103210, Note_on_c, 9, 40, 0
1, 103210, Note_on_c, 9, 37, 0
1, 103220, Note_on_c, 8, 49, 0
1, 103240, Note_on_c, 8, 33, 80
1, 103290, Note_on_c, 0, 69, 0
1, 103320, Note_on_c, 0, 71, 80
1, 103410, Note_on_c, 0, 71, 0
1, 103440, Note_on_c, 0, 73, 94
1, 103440, Note_on_c, 9, 51, 40
1, 103440, Note_on_c, 9, 36, 50
1, 103450, Note_on_c, 9, 51, 0
1, 103450, Note_on_c, 9, 36, 0
1, 103460, Note_on_c, 8, 33, 0
1, 103480, Note_on_c, 8, 33, 60
1, 103490, Note_on_c, 0, 73, 0
1, 103560, Note_on_c, 0, 74, 90
1, 103620, Note_on_c, 0, 74, 0
1, 103620, Note_on_c, 12, 73, 0
1, 103620, Note_on_c, 12, 69, 0
1, 103630, Note_on_c, 11, 73, 0
1, 103630, Note_on_c, 11, 69, 0
1, 103630, Note_on_c, 11, 61, 0
1, 103630, Note_on_c, 11, 57, 0
1, 103680, Note_on_c, 0, 76, 110
1, 103680, Note_on_c, 9, 51, 60
1, 103680, Note_on_c, 9, 36, 70
1, 103680, Note_on_c, 12, 73, 75
1, 103680, Note_on_c, 12, 69, 75
1, 103690, Note_on_c, 9, 51, 0
1, 103690, Note_on_c, 9, 36, 0
1, 103700, Note_on_c, 8, 33, 0
1, 103720, Note_on_c, 8, 33, 80
1, 103780, Note_on_c, 0, 76, 0
1, 103790, Note_on_c, 0, 76, 80
1, 103880, Note_on_c, 0, 76, 0
1, 103880, Note_on_c, 0, 76, 80
1, 103900, Note_on_c, 12, 73, 0
1, 103900, Note_on_c, 12, 69, 0
1, 103920, Note_on_c, 9, 51, 40
1, 103920, Note_on_c, 12, 73, 60
1, 103920, Note_on_c, 12, 69, 60
1, 103930, Note_on_c, 9, 51, 0
1, 103940, Note_on_c, 8, 33, 0
1, 103960, Note_on_c, 8, 52, 95
1, 103980, Note_on_c, 0, 76, 0
1, 103980, Note_on_c, 0, 76, 70
1, 103990, Note_on_c, 11, 73, 100
1, 103990, Note_on_c, 11, 69, 100
1, 103990, Note_on_c, 11, 64, 100
1, 104070, Note_on_c, 0, 76, 0
1, 104070, Note_on_c, 0, 76, 80
1, 104160, Note_on_c, 9, 51, 50
1, 104160, Note_on_c, 9, 44, 90
1, 104160, Note_on_c, 9, 40, 60
1, 104160, Note_on_c, 9, 37, 60
1, 104170, Note_on_c, 0, 76, 0
1, 104170, Note_on_c, 0, 76, 70
1, 104170, Note_on_c, 9, 51, 0
1, 104170, Note_on_c, 9, 44, 0
1, 104170, Note_on_c, 9, 40, 0
1, 104170, Note_on_c, 9, 37, 0
1, 104220, Note_on_c, 12, 73, 0
1, 104220, Note_on_c, 12, 69, 0
1, 104250, Note_on_c, 11, 73, 0
1, 104250, Note_on_c, 11, 69, 0
1, 104250, Note_on_c, 11, 64, 0
1, 104260, Note_on_c, 0, 76, 0
1, 104260, Note_on_c, 0, 76, 80
1, 104310, Note_on_c, 11, 72, 90
1, 104310, Note_on_c, 11, 68, 90
1, 104310, Note_on_c, 11, 63, 90
1, 104320, Note_on_c, 12, 64, 0
1, 104360, Note_on_c, 0, 76, 0
1, 104360, Note_on_c, 0, 76, 70
1, 104390, Note_on_c, 8, 52, 0
1, 104400, Note_on_c, 9, 51, 40
1, 104400, Note_on_c, 9, 36, 50
1, 104400, Note_on_c, 12, 73, 70
1, 104400, Note_on_c, 12, 69, 70
1, 104400, Note_on_c, 12, 64, 70
1, 104410, Note_on_c, 9, 51, 0
1, 104410, Note_on_c, 9, 36, 0
1, 104440, Note_on_c, 8, 52, 80
1, 104450, Note_on_c, 0, 76, 0
1, 104450, Note_on_c, 0, 76, 80
1, 104550, Note_on_c, 0, 76, 0
1, 104550, Note_on_c, 0, 76, 70
1, 104610, Note_on_c, 0, 76, 0
1, 104610, Note_on_c, 11, 72, 0
1, 104610, Note_on_c, 11, 68, 0
1, 104610, Note_on_c, 11, 63, 0
1, 104640, Note_on_c, 0, 73, 85
1, 104640, Note_on_c, 9, 51, 50
1, 104640, Note_on_c, 9, 36, 60
1, 104650, Note_on_c, 9, 51, 0
1, 104650, Note_on_c, 9, 36, 0
1, 104700, Note_on_c, 12, 73, 0
1, 104700, Note_on_c, 12, 69, 0
1, 104700, Note_on_c, 12, 64, 0
1, 104740, Note_on_c, 0, 73, 0
1, 104740, Note_on_c, 0, 73, 60
1, 104830, Note_on_c, 0, 73, 0
1, 104830, Note_on_c, 0, 73, 70
1, 104870, Note_on_c, 8, 52, 0
1, 104880, Note_on_c, 9, 51, 50
1, 104880, Note_on_c, 12, 73, 80
1, 104880, Note_on_c, 12, 69, 80
1, 104880, Note_on_c, 12, 64, 80
1, 104890, Note_on_c, 9, 51, 0
1, 104920, Note_on_c, 8, 33, 60
1, 104930, Note_on_c, 0, 73, 0
1, 104930, Note_on_c, 0, 73, 60
1, 105020, Note_on_c, 0, 73, 0
1, 105020, Note_on_c, 0, 73, 70
1, 105110, Note_on_c, 0, 73, 0
1, 105110, Note_on_c, 11, 73, 85
1, 105110, Note_on_c, 11, 69, 85
1, 105110, Note_on_c, 11, 64, 85
1, 105120, Note_on_c, 0, 69, 70
1, 105120, Note_on_c, 9, 51, 50
1, 105120, Note_on_c, 9, 47, 90
1, 105120, Note_on_c, 9, 44, 90
1, 105130, Note_on_c, 9, 51, 0
1, 105130, Note_on_c, 9, 47, 0
1, 105130, Note_on_c, 9, 44, 0
1, 105140, Note_on_c, 8, 33, 0
1, 105160, Note_on_c, 8, 33, 80
1, 105220, Note_on_c, 0, 69, 0
1, 105220, Note_on_c, 0, 69, 60
1, 105310, Note_on_c, 0, 69, 0
1, 105310, Note_on_c, 0, 69, 70
1, 105360, Note_on_c, 9, 51, 40
1, 105360, Note_on_c, 9, 47, 90
1, 105360, Note_on_c, 9, 36, 50
1, 105370, Note_on_c, 9, 51, 0
1, 105370, Note_on_c, 9, 47, 0
1, 105370, Note_on_c, 9, 36, 0
1, 105380, Note_on_c, 8, 33, 0
1, 105400, Note_on_c, 8, 33, 70
1, 105410, Note_on_c, 0, 69, 0
1, 105410, Note_on_c, 0, 69, 60
1, 105480, Note_on_c, 12, 73, 0
1, 105480, Note_on_c, 12, 69, 0
1, 105480, Note_on_c, 12, 64, 0
1, 105500, Note_on_c, 0, 69, 0
1, 105500, Note_on_c, 0, 69, 65
1, 105540, Note_on_c, 11, 73, 0
1, 105540, Note_on_c, 11, 69, 0
1, 105540, Note_on_c, 11, 64, 0
1, 105590, Note_on_c, 11, 73, 90
1, 105590, Note_on_c, 11, 69, 90
1, 105590, Note_on_c, 11, 64, 90
1, 105600, Note_on_c, 0, 69, 0
1, 105600, Note_on_c, 0, 64, 90
1, 105600, Note_on_c, 9, 51, 60
1, 105600, Note_on_c, 9, 36, 70
1, 105600, Note_on_c, 12, 73, 80
1, 105600, Note_on_c, 12, 69, 80
1, 105600, Note_on_c, 12, 64, 80
1, 105610, Note_on_c, 9, 51, 0
1, 105610, Note_on_c, 9, 36, 0
1, 105620, Note_on_c, 8, 33, 0
1, 105640, Note_on_c, 8, 33, 80
1, 105700, Note_on_c, 0, 64, 0
1, 105700, Note_on_c, 0, 64, 60
1, 105790, Note_on_c, 0, 64, 0
1, 105790, Note_on_c, 0, 64, 70
1, 105840, Note_on_c, 9, 51, 40
1, 105850, Note_on_c, 9, 51, 0
1, 105890, Note_on_c, 0, 64, 0
1, 105890, Note_on_c, 0, 64, 60
1, 105980, Note_on_c, 0, 64, 0
1, 105980, Note_on_c, 0, 64, 70
1, 106080, Note_on_c, 0, 64, 0
1, 106080, Note_on_c, 0, 64, 60
1, 106080, Note_on_c, 9, 51, 50
1, 106080, Note_on_c, 9, 44, 90
1, 106080, Note_on_c, 9, 40, 70
1, 106080, Note_on_c, 9, 37, 60
1, 106090, Note_on_c, 9, 51, 0
1, 106090, Note_on_c, 9, 44, 0
1, 106090, Note_on_c, 9, 40, 0
1, 106090, Note_on_c, 9, 37, 0
1, 106120, Note_on_c, 8, 52, 100
1, 106130, Note_on_c, 8, 33, 0
1, 106170, Note_on_c, 0, 64, 0
1, 106170, Note_on_c, 0, 64, 70
1, 106200, Note_on_c, 12, 73, 0
1, 106200, Note_on_c, 12, 69, 0
1, 106200, Note_on_c, 12, 64, 0
1, 106260, Note_on_c, 0, 64, 0
1, 106270, Note_on_c, 0, 61, 70
1, 106290, Note_on_c, 11, 73, 0
1, 106290, Note_on_c, 11, 69, 0
1, 106290, Note_on_c, 11, 64, 0
1, 106310, Note_on_c, 11, 73, 80
1, 106310, Note_on_c, 11, 69, 80
1, 106310, Note_on_c, 11, 64, 80
1, 106320, Note_on_c, 9, 51, 40
1, 106320, Note_on_c, 9, 36, 50
1, 106320, Note_on_c, 12, 73, 70
1, 106320, Note_on_c, 12, 69, 70
1, 106320, Note_on_c, 12, 64, 70
1, 106330, Note_on_c, 9, 51, 0
1, 106330, Note_on_c, 9, 36, 0
1, 106340, Note_on_c, 8, 52, 0
1, 106360, Note_on_c, 8, 52, 90
1, 106370, Note_on_c, 0, 61, 0
1, 106370, Note_on_c, 0, 61, 50
1, 106460, Note_on_c, 0, 61, 0
1, 106460, Note_on_c, 0, 61, 70
1, 106540, Note_on_c, 12, 73, 0
1, 106540, Note_on_c, 12, 69, 0
1, 106540, Note_on_c, 12, 64, 0
1, 106560, Note_on_c, 0, 61, 0
1, 106560, Note_on_c, 0, 61, 50
1, 106560, Note_on_c, 9, 51, 50
1, 106560, Note_on_c, 9, 36, 60
1, 106560, Note_on_c, 12, 73, 75
1, 106560, Note_on_c, 12, 69, 75
1, 106560, Note_on_c, 12, 64, 75
1, 106570, Note_on_c, 9, 51, 0
1, 106570, Note_on_c, 9, 36, 0
1, 106650, Note_on_c, 0, 61, 0
1, 106650, Note_on_c, 0, 61, 65
1, 106750, Note_on_c, 0, 61, 0
1, 106750, Note_on_c, 0, 61, 50
1, 106800, Note_on_c, 9, 51, 50
1, 106810, Note_on_c, 9, 51, 0
1, 106840, Note_on_c, 0, 61, 0
1, 106840, Note_on_c, 0, 61, 65
1, 106840, Note_on_c, 8, 33, 60
1, 106840, Note_on_c, 11, 73, 0
1, 106840, Note_on_c, 11, 69, 0
1, 106840, Note_on_c, 11, 64, 0
1, 106850, Note_on_c, 8, 52, 0
1, 106870, Note_on_c, 11, 75, 95
1, 106870, Note_on_c, 11, 71, 95
1, 106870, Note_on_c, 11, 66, 95
1, 106940, Note_on_c, 0, 61, 0
1, 106940, Note_on_c, 0, 61, 50
1, 107030, Note_on_c, 0, 61, 0
1, 107030, Note_on_c, 0, 61, 50
1, 107040, Note_on_c, 9, 51, 50
1, 107040, Note_on_c, 9, 44, 90
1, 107040, Note_on_c, 9, 40, 50
1, 107040, Note_on_c, 9, 37, 60
1, 107050, Note_on_c, 9, 51, 0
1, 107050, Note_on_c, 9, 44, 0
1, 107050, Note_on_c, 9, 40, 0
1, 107050, Note_on_c, 9, 37, 0
1, 107060, Note_on_c, 8, 33, 0
1, 107080, Note_on_c, 8, 33, 80
1, 107090, Note_on_c, 11, 75, 0
1, 107090, Note_on_c, 11, 71, 0
1, 107090, Note_on_c, 11, 66, 0
1, 107130, Note_on_c, 0, 61, 0
1, 107130, Note_on_c, 0, 61, 40
1, 107190, Note_on_c, 11, 74, 80
1, 107190, Note_on_c, 11, 70, 80
1, 107190, Note_on_c, 11, 65, 80
1, 107220, Note_on_c, 0, 61, 0
1, 107220, Note_on_c, 0, 61, 50
1, 107260, Note_on_c, 12, 73, 0
1, 107260, Note_on_c, 12, 69, 0
1, 107260, Note_on_c, 12, 64, 0
1, 107280, Note_on_c, 9, 51, 40
1, 107280, Note_on_c, 9, 36, 60
1, 107290, Note_on_c, 9, 51, 0
1, 107290, Note_on_c, 9, 36, 0
1, 107300, Note_on_c, 8, 33, 0
1, 107320, Note_on_c, 0, 61, 0
1, 107320, Note_on_c, 0, 61, 40
1, 107320, Note_on_c, 8, 33, 70
1, 107410, Note_on_c, 0, 61, 0
1, 107410, Note_on_c, 11, 74, 0
1, 107410, Note_on_c, 11, 70, 0
1, 107410, Note_on_c, 11, 65, 0
1, 107510, Note_on_c, 11, 73, 85
1, 107510, Note_on_c, 11, 69, 85
1, 107510, Note_on_c, 11, 64, 85
1, 107520, Note_on_c, 9, 51, 60
1, 107520, Note_on_c, 9, 36, 70
1, 107520, Note_on_c, 12, 73, 80
1, 107520, Note_on_c, 12, 69, 80
1, 107520, Note_on_c, 12, 64, 80
1, 107530, Note_on_c, 9, 51, 0
1, 107530, Note_on_c, 9, 36, 0
1, 107540, Note_on_c, 8, 33, 0
1, 107560, Note_on_c, 8, 33, 80
1, 107760, Note_on_c, 0, 76, 80
1, 107760, Note_on_c, 9, 51, 40
1, 107770, Note_on_c, 9, 51, 0
1, 107860, Note_on_c, 0, 76, 0
1, 107860, Note_on_c, 0, 76, 50
1, 107950, Note_on_c, 0, 76, 0
1, 107950, Note_on_c, 0, 76, 75
1, 108000, Note_on_c, 9, 51, 50
1, 108000, Note_on_c, 9, 44, 90
1, 108000, Note_on_c, 9, 40, 60
1, 108000, Note_on_c, 9, 37, 60
1, 108010, Note_on_c, 9, 51, 0
1, 108010, Note_on_c, 9, 44, 0
1, 108010, Note_on_c, 9, 40, 0
1, 108010, Note_on_c, 9, 37, 0
1, 108040, Note_on_c, 8, 52, 90
1, 108050, Note_on_c, 0, 76, 0
1, 108050, Note_on_c, 0, 76, 40
1, 108050, Note_on_c, 8, 33, 0
1, 108120, Note_on_c, 12, 73, 0
1, 108120, Note_on_c, 12, 69, 0
1, 108120, Note_on_c, 12, 64, 0
1, 108130, Note_on_c, 0, 73, 65
1, 108140, Note_on_c, 0, 76, 0
1, 108210, Note_on_c, 11, 73, 0
1, 108210, Note_on_c, 11, 69, 0
1, 108210, Note_on_c, 11, 64, 0
1, 108230, Note_on_c, 0, 73, 0
1, 108230, Note_on_c, 0, 73, 30
1, 108230, Note_on_c, 11, 73, 80
1, 108230, Note_on_c, 11, 69, 80
1, 108230, Note_on_c, 11, 64, 80
1, 108240, Note_on_c, 9, 51, 40
1, 108240, Note_on_c, 9, 36, 60
1, 108240, Note_on_c, 12, 73, 70
1, 108240, Note_on_c, 12, 69, 70
1, 108240, Note_on_c, 12, 64, 70
1, 108250, Note_on_c, 9, 51, 0
1, 108250, Note_on_c, 9, 36, 0
1, 108260, Note_on_c, 8, 52, 0
1, 108280, Note_on_c, 8, 52, 90
1, 108320, Note_on_c, 0, 73, 0
1, 108320, Note_on_c, 0, 73, 60
1, 108420, Note_on_c, 0, 73, 0
1, 108420, Note_on_c, 0, 73, 30
1, 108480, Note_on_c, 9, 51, 50
1, 108480, Note_on_c, 9, 36, 80
1, 108490, Note_on_c, 9, 51, 0
1, 108490, Note_on_c, 9, 36, 0
1, 108510, Note_on_c, 0, 73, 0
1, 108510, Note_on_c, 0, 73, 50
1, 108540, Note_on_c, 12, 73, 0
1, 108540, Note_on_c, 12, 69, 0
1, 108540, Note_on_c, 12, 64, 0
1, 108610, Note_on_c, 0, 73, 0
1, 108610, Note_on_c, 0, 73, 30
1, 108700, Note_on_c, 0, 73, 0
1, 108720, Note_on_c, 9, 38, 90
1, 108720, Note_on_c, 12, 73, 75
1, 108720, Note_on_c, 12, 69, 75
1, 108720, Note_on_c, 12, 64, 75
1, 108730, Note_on_c, 9, 38, 0
1, 108760, Note_on_c, 8, 33, 60
1, 108770, Note_on_c, 8, 52, 0
1, 108780, Note_on_c, 11, 73, 0
1, 108780, Note_on_c, 11, 69, 0
1, 108780, Note_on_c, 11, 64, 0
1, 108790, Note_on_c, 11, 73, 100
1, 108790, Note_on_c, 11, 69, 100
1, 108790, Note_on_c, 11, 64, 100
1, 108790, Note_on_c, 11, 61, 100
1, 108840, Note_on_c, 9, 38, 70
1, 108850, Note_on_c, 9, 38, 0
1, 108960, Note_on_c, 9, 45, 100
1, 108960, Note_on_c, 9, 44, 90
1, 108970, Note_on_c, 9, 45, 0
1, 108970, Note_on_c, 9, 44, 0
1, 108980, Note_on_c, 8, 33, 0
1, 109000, Note_on_c, 8, 33, 80
1, 109010, Note_on_c, 11, 73, 0
1, 109010, Note_on_c, 11, 69, 0
1, 109010, Note_on_c, 11, 64, 0
1, 109010, Note_on_c, 11, 61, 0
1, 109020, Note_on_c, 12, 73, 0
1, 109020, Note_on_c, 12, 69, 0
1, 109020, Note_on_c, 12, 64, 0
1, 109080, Note_on_c, 9, 45, 80
1, 109090, Note_on_c, 9, 45, 0
1, 109110, Note_on_c, 11, 72, 90
1, 109110, Note_on_c, 11, 68, 90
1, 109110, Note_on_c, 11, 63, 90
1, 109110, Note_on_c, 11, 60, 90
1, 109200, Note_on_c, 9, 47, 90
1, 109200, Note_on_c, 12, 73, 60
1, 109200, Note_on_c, 12, 69, 60
1, 109200, Note_on_c, 12, 64, 60
1, 109210, Note_on_c, 9, 47, 0
1, 109220, Note_on_c, 8, 33, 0
1, 109240, Note_on_c, 8, 33, 90
1, 109320, Note_on_c, 9, 47, 70
1, 109330, Note_on_c, 9, 47, 0
1, 109330, Note_on_c, 11, 72, 0
1, 109330, Note_on_c, 11, 68, 0
1, 109330, Note_on_c, 11, 63, 0
1, 109330, Note_on_c, 11, 60, 0
1, 109430, Note_on_c, 11, 71, 100
1, 109430, Note_on_c, 11, 67, 100
1, 109430, Note_on_c, 11, 62, 100
1, 109430, Note_on_c, 11, 59, 100
1, 109430, Note_on_c, 11, 55, 100
1, 109440, Note_on_c, 9, 49, 90
1, 109440, Note_on_c, 9, 36, 80
1, 109440, Control_c, 12, 11, 100
1, 109440, Note_on_c, 12, 71, 80
1, 109440, Note_on_c, 12, 67, 80
1, 109440, Note_on_c, 12, 62, 80
1, 109450, Note_on_c, 9, 49, 0
1, 109450, Note_on_c, 9, 36, 0
1, 109460, Note_on_c, 8, 33, 0
1, 109480, Note_on_c, 8, 31, 110
1, 109500, Note_on_c, 12, 73, 0
1, 109500, Note_on_c, 12, 69, 0
1, 109500, Note_on_c, 12, 64, 0
1, 109660, Note_on_c, 12, 71, 0
1, 109660, Note_on_c, 12, 67, 0
1, 109660, Note_on_c, 12, 62, 0
1, 109680, Note_on_c, 9, 51, 40
1, 109680, Note_on_c, 12, 71, 60
1, 109680, Note_on_c, 12, 67, 60
1, 109680, Note_on_c, 12, 62, 60
1, 109690, Note_on_c, 9, 51, 0
1, 109920, Note_on_c, 0, 71, 97
1, 109920, Note_on_c, 9, 51, 50
1, 109920, Note_on_c, 9, 44, 90
1, 109920, Note_on_c, 9, 38, 110
1, 109930, Note_on_c, 9, 51, 0
1, 109930, Note_on_c, 9, 44, 0
1, 109930, Note_on_c, 9, 38, 0
1, 109980, Note_on_c, 12, 71, 0
1, 109980, Note_on_c, 12, 67, 0
1, 109980, Note_on_c, 12, 62, 0
1, 110160, Note_on_c, 9, 51, 40
1, 110160, Note_on_c, 12, 71, 70
1, 110160, Note_on_c, 12, 67, 70
1, 110160, Note_on_c, 12, 62, 70
1, 110170, Note_on_c, 9, 51, 0
1, 110180, Note_on_c, 0, 74, 90
1, 110190, Note_on_c, 0, 71, 0
1, 110200, Note_on_c, 8, 38, 90
1, 110210, Note_on_c, 8, 31, 0
1, 110400, Note_on_c, 9, 51, 50
1, 110400, Note_on_c, 9, 36, 70
1, 110410, Note_on_c, 9, 51, 0
1, 110410, Note_on_c, 9, 36, 0
1, 110420, Note_on_c, 8, 38, 0
1, 110440, Note_on_c, 8, 43, 100
1, 110640, Note_on_c, 9, 51, 50
1, 110640, Note_on_c, 9, 36, 60
1, 110650, Note_on_c, 9, 51, 0
1, 110650, Note_on_c, 9, 36, 0
1, 110880, Note_on_c, 9, 51, 50
1, 110880, Note_on_c, 9, 44, 90
1, 110890, Note_on_c, 9, 51, 0
1, 110890, Note_on_c, 9, 44, 0
1, 110900, Control_c, 0, 1, 60
1, 110960, Control_c, 0, 1, 70
1, 111020, Control_c, 0, 1, 80
1, 111080, Control_c, 0, 1, 90
1, 111120, Note_on_c, 9, 51, 40
1, 111120, Note_on_c, 9, 38, 95
1, 111120, Note_on_c, 9, 36, 70
1, 111130, Note_on_c, 9, 51, 0
1, 111130, Note_on_c, 9, 38, 0
1, 111130, Note_on_c, 9, 36, 0
1, 111160, Note_on_c, 8, 38, 80
1, 111160, Note_on_c, 12, 71, 0
1, 111160, Note_on_c, 12, 67, 0
1, 111160, Note_on_c, 12, 62, 0
1, 111170, Note_on_c, 8, 43, 0
1, 111360, Control_c, 0, 1, 0
1, 111360, Note_on_c, 9, 51, 60
1, 111360, Note_on_c, 12, 71, 80
1, 111360, Note_on_c, 12, 67, 80
1, 111360, Note_on_c, 12, 62, 80
1, 111370, Note_on_c, 9, 51, 0
1, 111380, Note_on_c, 8, 38, 0
1, 111400, Note_on_c, 8, 43, 100
1, 111580, Note_on_c, 12, 71, 0
1, 111580, Note_on_c, 12, 67, 0
1, 111580, Note_on_c, 12, 62, 0
1, 111600, Note_on_c, 9, 51, 40
1, 111600, Note_on_c, 9, 36, 70
1, 111600, Note_on_c, 12, 71, 60
1, 111600, Note_on_c, 12, 67, 60
1, 111600, Note_on_c, 12, 62, 60
1, 111610, Note_on_c, 9, 51, 0
1, 111610, Note_on_c, 9, 36, 0
1, 111630, Note_on_c, 11, 71, 0
1, 111630, Note_on_c, 11, 67, 0
1, 111630, Note_on_c, 11, 62, 0
1, 111630, Note_on_c, 11, 59, 0
1, 111640, Note_on_c, 8, 45, 80
1, 111650, Note_on_c, 8, 43, 0
1, 111830, Note_on_c, 11, 71, 95
1, 111830, Note_on_c, 11, 67, 95
1, 111830, Note_on_c, 11, 62, 95
1, 111830, Note_on_c, 11, 59, 95
1, 111840, Note_on_c, 0, 74, 0
1, 111840, Note_on_c, 0, 74, 70
1, 111840, Note_on_c, 9, 51, 50
1, 111840, Note_on_c, 9, 44, 90
1, 111850, Note_on_c, 9, 51, 0
1, 111850, Note_on_c, 9, 44, 0
1, 111900, Note_on_c, 12, 71, 0
1, 111900, Note_on_c, 12, 67, 0
1, 111900, Note_on_c, 12, 62, 0
1, 111960, Note_on_c, 0, 74, 0
1, 111960, Note_on_c, 0, 72, 70
1, 112050, Note_on_c, 0, 72, 0
1, 112080, Note_on_c, 0, 71, 90
1, 112080, Note_on_c, 9, 51, 40
1, 112080, Note_on_c, 9, 38, 100
1, 112080, Note_on_c, 9, 36, 80
1, 112080, Note_on_c, 12, 71, 70
1, 112080, Note_on_c, 12, 67, 70
1, 112080, Note_on_c, 12, 62, 70
1, 112090, Note_on_c, 9, 51, 0
1, 112090, Note_on_c, 9, 38, 0
1, 112090, Note_on_c, 9, 36, 0
1, 112120, Note_on_c, 8, 43, 90
1, 112130, Note_on_c, 8, 45, 0
1, 112170, Note_on_c, 0, 71, 0
1, 112200, Note_on_c, 0, 69, 50
1, 112250, Note_on_c, 0, 69, 0
1, 112320, Note_on_c, 0, 74, 90
1, 112320, Note_on_c, 9, 51, 60
1, 112320, Note_on_c, 9, 44, 50
1, 112330, Note_on_c, 9, 51, 0
1, 112330, Note_on_c, 9, 44, 0
1, 112380, Note_on_c, 12, 71, 0
1, 112380, Note_on_c, 12, 67, 0
1, 112380, Note_on_c, 12, 62, 0
1, 112440, Note_on_c, 0, 72, 80
1, 112440, Note_on_c, 9, 38, 90
1, 112450, Note_on_c, 0, 74, 0
1, 112450, Note_on_c, 9, 38, 0
1, 112530, Note_on_c, 0, 72, 0
1, 112560, Note_on_c, 0, 71, 90
1, 112560, Note_on_c, 9, 38, 80
1, 112560, Note_on_c, 12, 71, 60
1, 112560, Note_on_c, 12, 67, 60
1, 112560, Note_on_c, 12, 62, 60
1, 112570, Note_on_c, 9, 38, 0
1, 112600, Note_on_c, 8, 43, 0
1, 112600, Note_on_c, 8, 43, 80
1, 112650, Note_on_c, 0, 71, 0
1, 112680, Note_on_c, 0, 69, 60
1, 112680, Note_on_c, 9, 45, 90
1, 112690, Note_on_c, 9, 45, 0
1, 112730, Note_on_c, 0, 69, 0
1, 112780, Note_on_c, 12, 71, 0
1, 112780, Note_on_c, 12, 67, 0
1, 112780, Note_on_c, 12, 62, 0
1, 112800, Note_on_c, 0, 77, 100
1, 112800, Note_on_c, 9, 47, 90
1, 112800, Note_on_c, 9, 44, 90
1, 112800, Note_on_c, 12, 71, 80
1, 112800, Note_on_c, 12, 67, 80
1, 112800, Note_on_c, 12, 62, 80
1, 112810, Note_on_c, 9, 47, 0
1, 112810, Note_on_c, 9, 44, 0
1, 112820, Note_on_c, 8, 43, 0
1, 112840, Note_on_c, 8, 50, 95
1, 112920, Note_on_c, 0, 76, 90
1, 112930, Note_on_c, 0, 77, 0
1, 113010, Note_on_c, 0, 76, 0
1, 113040, Note_on_c, 0, 74, 90
1, 113040, Note_on_c, 9, 36, 50
1, 113050, Note_on_c, 9, 36, 0
1, 113160, Note_on_c, 0, 72, 80
1, 113170, Note_on_c, 0, 74, 0
1, 113200, Note_on_c, 12, 71, 0
1, 113200, Note_on_c, 12, 67, 0
1, 113200, Note_on_c, 12, 62, 0
1, 113230, Note_on_c, 11, 71, 0
1, 113230, Note_on_c, 11, 67, 0
1, 113230, Note_on_c, 11, 62, 0
1, 113230, Note_on_c, 11, 59, 0
1, 113250, Note_on_c, 0, 72, 0
1, 113270, Note_on_c, 8, 50, 0
1, 113270, Note_on_c, 11, 71, 110
1, 113270, Note_on_c, 11, 67, 110
1, 113270, Note_on_c, 11, 62, 110
1, 113270, Note_on_c, 11, 59, 110
1, 113280, Note_on_c, 0, 72, 90
1, 113280, Note_on_c, 9, 49, 80
1, 113280, Note_on_c, 9, 36, 80
1, 113290, Note_on_c, 9, 49, 0
1, 113290, Note_on_c, 9, 36, 0
1, 113320, Note_on_c, 8, 43, 105
1, 113400, Note_on_c, 0, 74, 70
1, 113410, Note_on_c, 0, 72, 0
1, 113510, Note_on_c, 0, 74, 0
1, 113520, Note_on_c, 0, 72, 80
1, 113520, Note_on_c, 9, 51, 40
1, 113520, Note_on_c, 12, 74, 60
1, 113520, Note_on_c, 12, 71, 60
1, 113520, Note_on_c, 12, 67, 60
1, 113530, Note_on_c, 9, 51, 0
1, 113640, Note_on_c, 0, 72, 0
1, 113640, Note_on_c, 0, 71, 60
1, 113730, Note_on_c, 0, 71, 0
1, 113740, Note_on_c, 12, 74, 0
1, 113740, Note_on_c, 12, 71, 0
1, 113740, Note_on_c, 12, 67, 0
1, 113760, Note_on_c, 0, 69, 70
1, 113760, Note_on_c, 9, 51, 50
1, 113760, Note_on_c, 9, 44, 90
1, 113760, Note_on_c, 9, 38, 95
1, 113760, Note_on_c, 12, 74, 80
1, 113760, Note_on_c, 12, 71, 80
1, 113760, Note_on_c, 12, 67, 80
1, 113770, Note_on_c, 9, 51, 0
1, 113770, Note_on_c, 9, 44, 0
1, 113770, Note_on_c, 9, 38, 0
1, 113880, Note_on_c, 0, 68, 60
1, 113890, Note_on_c, 0, 69, 0
1, 113910, Note_on_c, 11, 55, 0
1, 114000, Note_on_c, 0, 68, 0
1, 114000, Note_on_c, 0, 67, 50
1, 114000, Note_on_c, 9, 51, 40
1, 114000, Note_on_c, 9, 36, 70
1, 114010, Note_on_c, 9, 51, 0
1, 114010, Note_on_c, 9, 36, 0
1, 114020, Note_on_c, 8, 43, 0
1, 114040, Note_on_c, 8, 38, 100
1, 114080, Note_on_c, 0, 67, 0
1, 114160, Note_on_c, 12, 74, 0
1, 114160, Note_on_c, 12, 71, 0
1, 114160, Note_on_c, 12, 67, 0
1, 114240, Note_on_c, 9, 51, 50
1, 114240, Note_on_c, 12, 74, 50
1, 114240, Note_on_c, 12, 71, 50
1, 114240, Note_on_c, 12, 67, 50
1, 114250, Note_on_c, 9, 51, 0
1, 114460, Note_on_c, 12, 74, 0
1, 114460, Note_on_c, 12, 71, 0
1, 114460, Note_on_c, 12, 67, 0
1, 114480, Note_on_c, 9, 51, 50
1, 114480, Note_on_c, 9, 36, 70
1, 114480, Note_on_c, 12, 74, 80
1, 114480, Note_on_c, 12, 71, 80
1, 114480, Note_on_c, 12, 67, 80
1, 114490, Note_on_c, 9, 51, 0
1, 114490, Note_on_c, 9, 36, 0
1, 114520, Note_on_c, 8, 38, 0
1, 114520, Note_on_c, 8, 41, 95
1, 114720, Note_on_c, 9, 51, 50
1, 114720, Note_on_c, 9, 44, 90
1, 114730, Note_on_c, 9, 51, 0
1, 114730, Note_on_c, 9, 44, 0
1, 114780, Note_on_c, 12, 74, 0
1, 114780, Note_on_c, 12, 71, 0
1, 114780, Note_on_c, 12, 67, 0
1, 114960, Note_on_c, 0, 67, 80
1, 114960, Note_on_c, 9, 51, 40
1, 114960, Note_on_c, 9, 38, 100
1, 114960, Note_on_c, 9, 36, 70
1, 114960, Note_on_c, 12, 71, 75
1, 114960, Note_on_c, 12, 67, 75
1, 114960, Note_on_c, 12, 62, 75
1, 114970, Note_on_c, 9, 51, 0
1, 114970, Note_on_c, 9, 38, 0
1, 114970, Note_on_c, 9, 36, 0
1, 115000, Note_on_c, 8, 41, 0
1, 115000, Note_on_c, 8, 42, 100
1, 115080, Note_on_c, 0, 67, 0
1, 115080, Note_on_c, 0, 69, 60
1, 115200, Note_on_c, 0, 69, 0
1, 115200, Note_on_c, 0, 71, 90
1, 115200, Note_on_c, 9, 51, 60
1, 115200, Note_on_c, 9, 44, 70
1, 115210, Note_on_c, 9, 51, 0
1, 115210, Note_on_c, 9, 44, 0
1, 115320, Note_on_c, 0, 71, 0
1, 115320, Note_on_c, 0, 67, 70
1, 115410, Note_on_c, 0, 67, 0
1, 115440, Note_on_c, 0, 69, 80
1, 115440, Note_on_c, 9, 38, 95
1, 115450, Note_on_c, 9, 38, 0
1, 115470, Note_on_c, 11, 71, 0
1, 115470, Note_on_c, 11, 67, 0
1, 115470, Note_on_c, 11, 62, 0
1, 115470, Note_on_c, 11, 59, 0
1, 115480, Note_on_c, 8, 43, 100
1, 115550, Note_on_c, 0, 69, 0
1, 115560, Note_on_c, 0, 71, 70
1, 115650, Note_on_c, 0, 71, 0
1, 115680, Note_on_c, 0, 72, 110
1, 115680, Note_on_c, 9, 51, 60
1, 115680, Note_on_c, 9, 44, 90
1, 115690, Note_on_c, 9, 51, 0
1, 115690, Note_on_c, 9, 44, 0
1, 115800, Note_on_c, 0, 72, 0
1, 115800, Note_on_c, 0, 74, 90
1, 115800, Note_on_c, 12, 71, 0
1, 115800, Note_on_c, 12, 67, 0
1, 115800, Note_on_c, 12, 62, 0
1, 115890, Note_on_c, 0, 74, 0
1, 115910, Note_on_c, 11, 71, 90
1, 115910, Note_on_c, 11, 67, 90
1, 115910, Note_on_c, 11, 62, 90
1, 115910, Note_on_c, 11, 59, 90
1, 115910, Note_on_c, 11, 55, 90
1, 115920, Note_on_c, 0, 76, 100
1, 115920, Note_on_c, 9, 38, 90
1, 115920, Note_on_c, 9, 36, 70
1, 115920, Note_on_c, 12, 71, 70
1, 115920, Note_on_c, 12, 67, 70
1, 115920, Note_on_c, 12, 62, 70
1, 115930, Note_on_c, 9, 38, 0
1, 115930, Note_on_c, 9, 36, 0
1, 115960, Note_on_c, 8, 43, 0
1, 115960, Note_on_c, 8, 35, 110
1, 116000, Note_on_c, 0, 76, 0
1, 116010, Note_on_c, 0, 67, 70
1, 116090, Note_on_c, 0, 67, 0
1, 116100, Note_on_c, 0, 69, 70
1, 116160, Note_on_c, 0, 69, 0
1, 116190, Note_on_c, 0, 71, 100
1, 116220, Note_on_c, 12, 71, 0
1, 116220, Note_on_c, 12, 67, 0
1, 116220, Note_on_c, 12, 62, 0
1, 116390, Note_on_c, 11, 71, 0
1, 116390, Note_on_c, 11, 67, 0
1, 116390, Note_on_c, 11, 62, 0
1, 116390, Note_on_c, 11, 59, 0
1, 116390, Note_on_c, 11, 55, 0
1, 116390, Note_on_c, 11, 71, 80
1, 116390, Note_on_c, 11, 67, 80
1, 116390, Note_on_c, 11, 62, 80
1, 116390, Note_on_c, 11, 59, 80
1, 116400, Note_on_c, 0, 74, 90
1, 116400, Note_on_c, 9, 51, 70
1, 116400, Note_on_c, 9, 44, 80
1, 116400, Note_on_c, 9, 38, 90
1, 116400, Note_on_c, 12, 71, 70
1, 116400, Note_on_c, 12, 67, 70
1, 116400, Note_on_c, 12, 62, 70
1, 116410, Note_on_c, 0, 71, 0
1, 116410, Note_on_c, 9, 51, 0
1, 116410, Note_on_c, 9, 44, 0
1, 116410, Note_on_c, 9, 38, 0
1, 116440, Note_on_c, 8, 35, 0
1, 116440, Note_on_c, 8, 36, 70
1, 116520, Note_on_c, 0, 74, 0
1, 116520, Note_on_c, 0, 72, 70
1, 116610, Note_on_c, 0, 72, 0
1, 116610, Note_on_c, 11, 71, 0
1, 116610, Note_on_c, 11, 67, 0
1, 116610, Note_on_c, 11, 62, 0
1, 116610, Note_on_c, 11, 59, 0
1, 116630, Note_on_c, 11, 71, 90
1, 116630, Note_on_c, 11, 67, 90
1, 116630, Note_on_c, 11, 62, 90
1, 116630, Note_on_c, 11, 59, 90
1, 116630, Note_on_c, 11, 55, 90
1, 116640, Note_on_c, 0, 71, 90
1, 116640, Note_on_c, 9, 51, 70
1, 116640, Note_on_c, 9, 47, 100
1, 116640, Note_on_c, 9, 44, 90
1, 116650, Note_on_c, 9, 51, 0
1, 116650, Note_on_c, 9, 47, 0
1, 116650, Note_on_c, 9, 44, 0
1, 116660, Note_on_c, 8, 36, 0
1, 116680, Note_on_c, 8, 37, 90
1, 116700, Note_on_c, 12, 71, 0
1, 116700, Note_on_c, 12, 67, 0
1, 116700, Note_on_c, 12, 62, 0
1, 116780, Note_on_c, 0, 67, 60
1, 116790, Note_on_c, 0, 71, 0
1, 116870, Note_on_c, 0, 67, 0
1, 116880, Note_on_c, 9, 36, 60
1, 116880, Note_on_c, 12, 71, 60
1, 116880, Note_on_c, 12, 67, 60
1, 116880, Note_on_c, 12, 62, 60
1, 116890, Note_on_c, 9, 36, 0
1, 116900, Note_on_c, 8, 37, 0
1, 116920, Note_on_c, 0, 70, 85
1, 116920, Note_on_c, 8, 38, 90
1, 117020, Note_on_c, 0, 70, 0
1, 117060, Note_on_c, 11, 71, 0
1, 117060, Note_on_c, 11, 67, 0
1, 117060, Note_on_c, 11, 62, 0
1, 117060, Note_on_c, 11, 59, 0
1, 117060, Note_on_c, 11, 55, 0
1, 117110, Note_on_c, 11, 52, 100
1, 117120, Control_c, 9, 11, 110
1, 117120, Note_on_c, 9, 49, 80
1, 117120, Note_on_c, 9, 36, 80
1, 117120, Note_on_c, 11, 57, 100
1, 117130, Note_on_c, 9, 49, 0
1, 117130, Note_on_c, 9, 36, 0
1, 117130, Note_on_c, 11, 61, 100
1, 117140, Note_on_c, 8, 38, 0
1, 117140, Note_on_c, 11, 63, 100
1, 117150, Note_on_c, 11, 68, 100
1, 117160, Note_on_c, 8, 45, 100
1, 117180, Note_on_c, 12, 71, 0
1, 117180, Note_on_c, 12, 67, 0
1, 117560, Note_on_c, 8, 45, 0
1, 117600, Note_on_c, 0, 68, 105
1, 117600, Note_on_c, 9, 59, 80
1, 117610, Note_on_c, 9, 59, 0
1, 117800, Note_on_c, 8, 42, 0
1, 117840, Note_on_c, 9, 36, 61
1, 117850, Note_on_c, 9, 36, 0
1, 117880, Note_on_c, 8, 39, 90
1, 118080, Note_on_c, 9, 59, 70
1, 118080, Note_on_c, 9, 44, 80
1, 118080, Note_on_c, 9, 38, 100
1, 118080, Note_on_c, 9, 36, 70
1, 118080, Note_on_c, 8, 39, 0
1, 118090, Note_on_c, 9, 59, 0
1, 118090, Note_on_c, 9, 44, 0
1, 118090, Note_on_c, 9, 38, 0
1, 118090, Note_on_c, 9, 36, 0
1, 118120, Note_on_c, 8, 45, 100
1, 118180, Note_on_c, 0, 68, 0
1, 118320, Note_on_c, 0, 68, 80
1, 118350, Note_on_c, 0, 68, 0
1, 118350, Note_on_c, 0, 80, 110
1, 118520, Note_on_c, 8, 45, 0
1, 118530, Note_on_c, 11, 61, 0
1, 118540, Note_on_c, 11, 63, 0
1, 118550, Note_on_c, 11, 63, 80
1, 118550, Note_on_c, 11, 61, 80
1, 118560, Note_on_c, 9, 59, 70
1, 118570, Note_on_c, 9, 59, 0
1, 118800, Note_on_c, 9, 38, 60
1, 118800, Note_on_c, 9, 36, 70
1, 118810, Note_on_c, 9, 38, 0
1, 118810, Note_on_c, 9, 36, 0
1, 118840, Note_on_c, 8, 39, 90
1, 118920, Note_on_c, 9, 38, 40
1, 118930, Note_on_c, 9, 38, 0
1, 119040, Note_on_c, 9, 59, 70
1, 119040, Note_on_c, 9, 38, 50
1, 119040, Note_on_c, 8, 39, 0
1, 119050, Note_on_c, 9, 59, 0
1, 119050, Note_on_c, 9, 38, 0
1, 119080, Note_on_c, 8, 45, 100
1, 119280, Note_on_c, 9, 36, 65
1, 119290, Note_on_c, 9, 36, 0
1, 119300, Note_on_c, 8, 45, 0
1, 119320, Note_on_c, 8, 45, 80
1, 119510, Note_on_c, 11, 57, 0
1, 119510, Note_on_c, 11, 63, 0
1, 119510, Note_on_c, 11, 61, 0
1, 119510, Note_on_c, 11, 63, 80
1, 119510, Note_on_c, 11, 61, 80
1, 119510, Note_on_c, 11, 57, 80
1, 119520, Note_on_c, 9, 59, 70
1, 119520, Note_on_c, 8, 45, 0
1, 119530, Note_on_c, 9, 59, 0
1, 119560, Note_on_c, 8, 39, 90
1, 119680, Note_on_c, 12, 62, 0
1, 119760, Note_on_c, 9, 36, 60
1, 119760, Note_on_c, 8, 39, 0
1, 119770, Note_on_c, 9, 36, 0
1, 119800, Note_on_c, 8, 45, 80
1, 119990, Note_on_c, 11, 63, 0
1, 119990, Note_on_c, 11, 61, 0
1, 119990, Note_on_c, 11, 57, 0
1, 119990, Note_on_c, 11, 63, 70
1, 119990, Note_on_c, 11, 61, 70
1, 119990, Note_on_c, 11, 57, 70
1, 120000, Note_on_c, 9, 59, 70
1, 120000, Note_on_c, 9, 44, 90
1, 120000, Note_on_c, 8, 45, 0
1, 120010, Note_on_c, 9, 59, 0
1, 120010, Note_on_c, 9, 44, 0
1, 120040, Note_on_c, 8, 56, 90
1, 120240, Note_on_c, 0, 80, 0
1, 120240, Note_on_c, 0, 68, 90
1, 120240, Note_on_c, 9, 38, 85
1, 120250, Note_on_c, 0, 68, 0
1, 120250, Note_on_c, 9, 38, 0
1, 120260, Note_on_c, 0, 80, 80
1, 120480, Note_on_c, 0, 78, 80
1, 120480, Note_on_c, 9, 59, 70
1, 120490, Note_on_c, 0, 80, 0
1, 120490, Note_on_c, 9, 59, 0
1, 120640, Note_on_c, 8, 56, 0
1, 120720, Note_on_c, 0, 76, 60
1, 120720, Note_on_c, 9, 36, 70
1, 120730, Note_on_c, 0, 78, 0
1, 120730, Note_on_c, 9, 36, 0
1, 120760, Note_on_c, 8, 39, 90
1, 120830, Note_on_c, 11, 52, 0
1, 120830, Note_on_c, 11, 68, 0
1, 120890, Note_on_c, 11, 63, 0
1, 120890, Note_on_c, 11, 61, 0
1, 120890, Note_on_c, 11, 57, 0
1, 120950, Note_on_c, 11, 68, 90
1, 120950, Note_on_c, 11, 63, 90
1, 120950, Note_on_c, 11, 61, 90
1, 120950, Note_on_c, 11, 57, 90
1, 120950, Note_on_c, 11, 52, 90
1, 120960, Note_on_c, 0, 76, 0
1, 120960, Note_on_c, 0, 80, 90
1, 120960, Note_on_c, 9, 59, 70
1, 120960, Note_on_c, 9, 36, 80
1, 120960, Note_on_c, 8, 39, 0
1, 120960, Program_c, 12, 4
1, 120970, Note_on_c, 9, 59, 0
1, 120970, Note_on_c, 9, 36, 0
1, 120970, Control_c, 12, 99, 1
1, 120980, Control_c, 12, 98, 33
1, 120990, Control_c, 12, 6, 90
1, 121000, Note_on_c, 8, 45, 100
1, 121000, Control_c, 12, 101, 127
1, 121010, Control_c, 12, 100, 127
1, 121020, Control_c, 12, 99, 1
1, 121030, Control_c, 12, 98, 100
1, 121040, Control_c, 12, 6, 80
1, 121050, Control_c, 12, 101, 127
1, 121060, Control_c, 12, 100, 127
1, 121070, Control_c, 12, 99, 1
1, 121080, Control_c, 12, 98, 32
1, 121090, Control_c, 12, 6, 64
1, 121100, Control_c, 12, 11, 120
1, 121110, Control_c, 12, 91, 100
1, 121400, Note_on_c, 8, 45, 0
1, 121440, Note_on_c, 9, 59, 80
1, 121440, Note_on_c, 9, 38, 90
1, 121450, Note_on_c, 9, 59, 0
1, 121450, Note_on_c, 9, 38, 0
1, 121680, Note_on_c, 9, 36, 60
1, 121690, Note_on_c, 9, 36, 0
1, 121720, Note_on_c, 8, 39, 90
1, 121920, Note_on_c, 9, 59, 70
1, 121920, Note_on_c, 9, 44, 80
1, 121920, Note_on_c, 9, 36, 70
1, 121920, Note_on_c, 8, 39, 0
1, 121930, Note_on_c, 9, 59, 0
1, 121930, Note_on_c, 9, 44, 0
1, 121930, Note_on_c, 9, 36, 0
1, 121960, Note_on_c, 8, 45, 100
1, 122160, Note_on_c, 9, 38, 70
1, 122170, Note_on_c, 9, 38, 0
1, 122360, Note_on_c, 8, 45, 0
1, 122400, Note_on_c, 9, 57, 70
1, 122400, Note_on_c, 9, 44, 70
1, 122410, Note_on_c, 9, 57, 0
1, 122410, Note_on_c, 9, 44, 0
1, 122640, Note_on_c, 0, 80, 0
1, 122640, Note_on_c, 0, 78, 80
1, 122640, Note_on_c, 9, 36, 80
1, 122650, Note_on_c, 9, 36, 0
1, 122680, Note_on_c, 8, 39, 90
1, 122760, Note_on_c, 0, 76, 50
1, 122770, Note_on_c, 0, 78, 0
1, 122850, Note_on_c, 0, 76, 0
1, 122880, Note_on_c, 0, 73, 80
1, 122880, Note_on_c, 9, 59, 80
1, 122880, Note_on_c, 9, 38, 80
1, 122880, Note_on_c, 8, 39, 0
1, 122880, Note_on_c, 11, 63, 0
1, 122880, Note_on_c, 11, 61, 0
1, 122880, Note_on_c, 11, 57, 0
1, 122890, Note_on_c, 9, 59, 0
1, 122890, Note_on_c, 9, 38, 0
1, 122920, Note_on_c, 8, 45, 100
1, 123120, Note_on_c, 9, 36, 60
1, 123130, Note_on_c, 9, 36, 0
1, 123140, Note_on_c, 8, 45, 0
1, 123160, Note_on_c, 8, 45, 80
1, 123350, Note_on_c, 11, 63, 80
1, 123350, Note_on_c, 11, 61, 80
1, 123350, Note_on_c, 11, 57, 80
1, 123360, Note_on_c, 0, 73, 0
1, 123360, Note_on_c, 0, 71, 60
1, 123360, Note_on_c, 9, 59, 70
1, 123360, Note_on_c, 8, 45, 0
1, 123370, Note_on_c, 9, 59, 0
1, 123400, Note_on_c, 8, 39, 90
1, 123600, Note_on_c, 0, 68, 65
1, 123600, Note_on_c, 9, 38, 100
1, 123600, Note_on_c, 9, 36, 70
1, 123600, Note_on_c, 8, 39, 0
1, 123610, Note_on_c, 0, 71, 0
1, 123610, Note_on_c, 9, 38, 0
1, 123610, Note_on_c, 9, 36, 0
1, 123640, Note_on_c, 8, 45, 80
1, 123830, Note_on_c, 0, 68, 0
1, 123830, Note_on_c, 11, 63, 0
1, 123830, Note_on_c, 11, 61, 0
1, 123830, Note_on_c, 11, 57, 0
1, 123830, Note_on_c, 11, 63, 70
1, 123830, Note_on_c, 11, 61, 70
1, 123830, Note_on_c, 11, 57, 70
1, 123840, Note_on_c, 0, 66, 70
1, 123840, Note_on_c, 9, 59, 80
1, 123840, Note_on_c, 9, 44, 100
1, 123840, Note_on_c, 8, 45, 0
1, 123840, Note_on_c, 12, 68, 99
1, 123850, Note_on_c, 9, 59, 0
1, 123850, Note_on_c, 9, 44, 0
1, 123880, Note_on_c, 8, 56, 90
1, 124000, Note_on_c, 9, 38, 90
1, 124010, Note_on_c, 9, 38, 0
1, 124160, Note_on_c, 9, 38, 60
1, 124170, Note_on_c, 9, 38, 0
1, 124320, Note_on_c, 0, 66, 0
1, 124320, Note_on_c, 0, 64, 60
1, 124320, Note_on_c, 9, 47, 100
1, 124320, Control_c, 12, 6, 62
1, 124330, Note_on_c, 9, 47, 0
1, 124350, Control_c, 12, 6, 60
1, 124380, Control_c, 12, 6, 58
1, 124410, Control_c, 12, 6, 54
1, 124440, Control_c, 12, 6, 50
1, 124470, Control_c, 12, 6, 52
1, 124480, Note_on_c, 9, 47, 80
1, 124480, Note_on_c, 8, 56, 0
1, 124490, Note_on_c, 9, 47, 0
1, 124500, Control_c, 12, 6, 54
1, 124530, Control_c, 12, 6, 56
1, 124550, Note_on_c, 11, 66, 80
1, 124560, Note_on_c, 0, 61, 65
1, 124560, Note_on_c, 9, 36, 70
1, 124560, Control_c, 12, 6, 58
1, 124570, Note_on_c, 0, 64, 0
1, 124570, Note_on_c, 9, 36, 0
1, 124590, Control_c, 12, 6, 60
1, 124600, Note_on_c, 8, 39, 90
1, 124620, Control_c, 12, 6, 56
1, 124640, Note_on_c, 9, 45, 90
1, 124650, Note_on_c, 9, 45, 0
1, 124650, Control_c, 12, 6, 52
1, 124670, Note_on_c, 11, 68, 0
1, 124670, Note_on_c, 11, 52, 0
1, 124680, Control_c, 12, 6, 48
1, 124710, Control_c, 12, 6, 54
1, 124730, Note_on_c, 11, 63, 0
1, 124730, Note_on_c, 11, 61, 0
1, 124730, Note_on_c, 11, 57, 0
1, 124740, Control_c, 12, 6, 58
1, 124770, Control_c, 12, 6, 64
1, 124790, Note_on_c, 11, 68, 100
1, 124790, Note_on_c, 11, 63, 100
1, 124790, Note_on_c, 11, 61, 100
1, 124790, Note_on_c, 11, 57, 100
1, 124790, Note_on_c, 11, 52, 100
1, 124800, Note_on_c, 0, 59, 50
1, 124800, Note_on_c, 9, 49, 70
1, 124800, Note_on_c, 9, 36, 90
1, 124800, Note_on_c, 8, 39, 0
1, 124800, Note_on_c, 11, 66, 0
1, 124800, Control_c, 12, 6, 44
1, 124810, Note_on_c, 0, 61, 0
1, 124810, Note_on_c, 9, 49, 0
1, 124810, Note_on_c, 9, 36, 0
1, 124840, Note_on_c, 8, 45, 100
1, 125240, Note_on_c, 8, 45, 0
1, 125280, Note_on_c, 9, 59, 80
1, 125290, Note_on_c, 9, 59, 0
1, 125520, Note_on_c, 9, 36, 61
1, 125530, Note_on_c, 9, 36, 0
1, 125560, Note_on_c, 8, 39, 90
1, 125760, Note_on_c, 9, 59, 70
1, 125760, Note_on_c, 9, 44, 80
1, 125760, Note_on_c, 9, 38, 90
1, 125760, Note_on_c, 9, 36, 70
1, 125760, Note_on_c, 8, 39, 0
1, 125770, Note_on_c, 9, 59, 0
1, 125770, Note_on_c, 9, 44, 0
1, 125770, Note_on_c, 9, 38, 0
1, 125770, Note_on_c, 9, 36, 0
1, 125800, Note_on_c, 8, 45, 100
1, 126100, Note_on_c, 0, 59, 0
1, 126190, Note_on_c, 11, 63, 0
1, 126190, Note_on_c, 11, 61, 0
1, 126200, Note_on_c, 8, 45, 0
1, 126230, Note_on_c, 11, 63, 80
1, 126230, Note_on_c, 11, 61, 80
1, 126240, Note_on_c, 0, 56, 40
1, 126240, Note_on_c, 9, 59, 70
1, 126250, Note_on_c, 9, 59, 0
1, 126460, Note_on_c, 0, 56, 0
1, 126480, Note_on_c, 0, 54, 30
1, 126480, Note_on_c, 9, 38, 50
1, 126480, Note_on_c, 9, 36, 80
1, 126490, Note_on_c, 9, 38, 0
1, 126490, Note_on_c, 9, 36, 0
1, 126520, Note_on_c, 8, 39, 90
1, 126600, Note_on_c, 9, 38, 40
1, 126610, Note_on_c, 9, 38, 0
1, 126720, Note_on_c, 9, 59, 70
1, 126720, Note_on_c, 9, 38, 40
1, 126720, Note_on_c, 8, 39, 0
1, 126730, Note_on_c, 9, 59, 0
1, 126730, Note_on_c, 9, 38, 0
1, 126760, Note_on_c, 8, 45, 100
1, 126950, Note_on_c, 11, 63, 0
1, 126950, Note_on_c, 11, 61, 0
1, 126950, Note_on_c, 11, 57, 0
1, 126950, Note_on_c, 11, 63, 65
1, 126950, Note_on_c, 11, 61, 65
1, 126950, Note_on_c, 11, 57, 65
1, 126960, Note_on_c, 9, 36, 65
1, 126970, Note_on_c, 9, 36, 0
1, 126980, Note_on_c, 8, 45, 0
1, 127000, Note_on_c, 8, 45, 80
1, 127200, Note_on_c, 9, 59, 70
1, 127200, Note_on_c, 8, 45, 0
1, 127210, Note_on_c, 9, 59, 0
1, 127240, Note_on_c, 8, 39, 90
1, 127430, Note_on_c, 11, 63, 0
1, 127430, Note_on_c, 11, 61, 0
1, 127430, Note_on_c, 11, 57, 0
1, 127430, Note_on_c, 11, 63, 65
1, 127430, Note_on_c, 11, 61, 65
1, 127430, Note_on_c, 11, 57, 65
1, 127440, Note_on_c, 9, 36, 70
1, 127440, Note_on_c, 8, 39, 0
1, 127450, Note_on_c, 9, 36, 0
1, 127480, Note_on_c, 8, 45, 80
1, 127680, Note_on_c, 9, 59, 70
1, 127680, Note_on_c, 9, 44, 90
1, 127680, Note_on_c, 8, 45, 0
1, 127690, Note_on_c, 9, 59, 0
1, 127690, Note_on_c, 9, 44, 0
1, 127720, Note_on_c, 8, 56, 90
1, 127910, Note_on_c, 11, 63, 0
1, 127910, Note_on_c, 11, 61, 0
1, 127910, Note_on_c, 11, 57, 0
1, 127910, Note_on_c, 11, 63, 50
1, 127910, Note_on_c, 11, 61, 50
1, 127910, Note_on_c, 11, 57, 50
1, 127920, Note_on_c, 9, 38, 80
1, 127920, Note_on_c, 12, 68, 0
1, 127930, Note_on_c, 9, 38, 0
1, 128160, Note_on_c, 9, 59, 70
1, 128160, Control_c, 12, 6, 64
1, 128160, Note_on_c, 12, 69, 94
1, 128170, Note_on_c, 9, 59, 0
1, 128320, Note_on_c, 8, 56, 0
1, 128390, Note_on_c, 11, 63, 0
1, 128390, Note_on_c, 11, 61, 0
1, 128390, Note_on_c, 11, 57, 0
1, 128390, Note_on_c, 11, 63, 60
1, 128390, Note_on_c, 11, 61, 60
1, 128390, Note_on_c, 11, 57, 60
1, 128400, Note_on_c, 9, 44, 100
1, 128400, Note_on_c, 9, 36, 70
1, 128400, Note_on_c, 12, 71, 86
1, 128410, Note_on_c, 9, 44, 0
1, 128410, Note_on_c, 9, 36, 0
1, 128410, Note_on_c, 12, 69, 0
1, 128440, Note_on_c, 8, 39, 90
1, 128460, Note_on_c, 0, 54, 0
1, 128510, Note_on_c, 11, 68, 0
1, 128510, Note_on_c, 11, 52, 0
1, 128610, Note_on_c, 11, 63, 0
1, 128610, Note_on_c, 11, 61, 0
1, 128610, Note_on_c, 11, 57, 0
1, 128620, Note_on_c, 12, 71, 0
1, 128630, Note_on_c, 11, 68, 100
1, 128630, Note_on_c, 11, 61, 100
1, 128630, Note_on_c, 11, 57, 100
1, 128630, Note_on_c, 11, 52, 100
1, 128640, Note_on_c, 9, 59, 80
1, 128640, Note_on_c, 9, 36, 80
1, 128640, Note_on_c, 8, 39, 0
1, 128640, Note_on_c, 12, 71, 99
1, 128650, Note_on_c, 9, 59, 0
1, 128650, Note_on_c, 9, 36, 0
1, 128680, Note_on_c, 8, 45, 100
1, 129080, Note_on_c, 8, 45, 0
1, 129120, Note_on_c, 9, 59, 80
1, 129120, Note_on_c, 12, 69, 92
1, 129130, Note_on_c, 9, 59, 0
1, 129130, Note_on_c, 12, 71, 0
1, 129280, Note_on_c, 12, 71, 70
1, 129290, Note_on_c, 12, 69, 0
1, 129350, Note_on_c, 11, 68, 0
1, 129350, Note_on_c, 11, 61, 0
1, 129350, Note_on_c, 11, 57, 0
1, 129350, Note_on_c, 11, 68, 90
1, 129350, Note_on_c, 11, 61, 90
1, 129350, Note_on_c, 11, 57, 90
1, 129360, Note_on_c, 9, 36, 60
1, 129370, Note_on_c, 9, 36, 0
1, 129400, Note_on_c, 8, 39, 90
1, 129440, Note_on_c, 12, 69, 70
1, 129450, Note_on_c, 12, 71, 0
1, 129600, Note_on_c, 9, 59, 70
1, 129600, Note_on_c, 9, 38, 100
1, 129600, Note_on_c, 9, 36, 70
1, 129600, Note_on_c, 8, 39, 0
1, 129610, Note_on_c, 9, 59, 0
1, 129610, Note_on_c, 9, 38, 0
1, 129610, Note_on_c, 9, 36, 0
1, 129640, Note_on_c, 8, 45, 100
1, 129720, Note_on_c, 12, 71, 70
1, 129730, Note_on_c, 12, 69, 0
1, 129840, Note_on_c, 12, 69, 80
1, 129850, Note_on_c, 12, 71, 0
1, 129960, Note_on_c, 12, 68, 60
1, 129970, Note_on_c, 12, 69, 0
1, 130040, Note_on_c, 8, 45, 0
1, 130080, Note_on_c, 9, 59, 70
1, 130080, Note_on_c, 9, 44, 90
1, 130080, Note_on_c, 12, 66, 100
1, 130090, Note_on_c, 9, 59, 0
1, 130090, Note_on_c, 9, 44, 0
1, 130090, Note_on_c, 12, 68, 0
1, 130320, Note_on_c, 9, 44, 100
1, 130320, Note_on_c, 9, 36, 70
1, 130320, Note_on_c, 12, 68, 90
1, 130330, Note_on_c, 9, 44, 0
1, 130330, Note_on_c, 9, 36, 0
1, 130330, Note_on_c, 12, 66, 0
1, 130360, Note_on_c, 8, 39, 90
1, 130440, Note_on_c, 12, 66, 96
1, 130450, Note_on_c, 12, 68, 0
1, 130560, Note_on_c, 9, 59, 70
1, 130560, Note_on_c, 9, 38, 50
1, 130560, Note_on_c, 8, 39, 0
1, 130570, Note_on_c, 9, 59, 0
1, 130570, Note_on_c, 9, 38, 0
1, 130600, Note_on_c, 8, 45, 100
1, 130790, Note_on_c, 11, 61, 0
1, 130790, Note_on_c, 11, 57, 0
1, 130790, Note_on_c, 11, 63, 60
1, 130790, Note_on_c, 11, 61, 60
1, 130790, Note_on_c, 11, 57, 60
1, 130800, Note_on_c, 9, 36, 65
1, 130800, Note_on_c, 12, 68, 92
1, 130810, Note_on_c, 9, 36, 0
1, 130810, Note_on_c, 12, 66, 0
1, 130820, Note_on_c, 8, 45, 0
1, 130840, Note_on_c, 8, 45, 80
1, 131040, Note_on_c, 9, 59, 70
1, 131040, Note_on_c, 8, 45, 0
1, 131050, Note_on_c, 9, 59, 0
1, 131080, Note_on_c, 8, 39, 90
1, 131270, Note_on_c, 11, 63, 0
1, 131270, Note_on_c, 11, 61, 0
1, 131270, Note_on_c, 11, 57, 0
1, 131270, Note_on_c, 11, 63, 65
1, 131270, Note_on_c, 11, 61, 65
1, 131270, Note_on_c, 11, 57, 65
1, 131280, Note_on_c, 9, 36, 70
1, 131280, Note_on_c, 8, 39, 0
1, 131290, Note_on_c, 9, 36, 0
1, 131320, Note_on_c, 8, 45, 80
1, 131520, Note_on_c, 9, 59, 70
1, 131520, Note_on_c, 9, 44, 90
1, 131520, Note_on_c, 8, 45, 0
1, 131530, Note_on_c, 9, 59, 0
1, 131530, Note_on_c, 9, 44, 0
1, 131560, Note_on_c, 8, 56, 80
1, 131560, Note_on_c, 8, 51, 90
1, 131750, Note_on_c, 11, 63, 0
1, 131750, Note_on_c, 11, 61, 0
1, 131750, Note_on_c, 11, 57, 0
1, 131750, Note_on_c, 11, 63, 50
1, 131750, Note_on_c, 11, 61, 50
1, 131750, Note_on_c, 11, 57, 50
1, 132000, Note_on_c, 9, 59, 70
1, 132000, Note_on_c, 9, 38, 85
1, 132010, Note_on_c, 9, 59, 0
1, 132010, Note_on_c, 9, 38, 0
1, 132160, Note_on_c, 8, 56, 0
1, 132160, Note_on_c, 8, 51, 0
1, 132230, Note_on_c, 11, 63, 0
1, 132230, Note_on_c, 11, 61, 0
1, 132230, Note_on_c, 11, 57, 0
1, 132230, Note_on_c, 11, 63, 60
1, 132230, Note_on_c, 11, 61, 60
1, 132230, Note_on_c, 11, 57, 60
1, 132240, Note_on_c, 9, 36, 70
1, 132250, Note_on_c, 9, 36, 0
1, 132280, Note_on_c, 8, 40, 90
1, 132350, Note_on_c, 11, 68, 0
1, 132350, Note_on_c, 11, 52, 0
1, 132450, Note_on_c, 11, 63, 0
1, 132450, Note_on_c, 11, 61, 0
1, 132450, Note_on_c, 11, 57, 0
1, 132470, Note_on_c, 11, 68, 100
1, 132470, Note_on_c, 11, 63, 100
1, 132470, Note_on_c, 11, 61, 100
1, 132470, Note_on_c, 11, 57, 100
1, 132470, Note_on_c, 11, 52, 100
1, 132480, Note_on_c, 9, 59, 80
1, 132480, Note_on_c, 9, 36, 80
1, 132480, Note_on_c, 8, 40, 0
1, 132490, Note_on_c, 9, 59, 0
1, 132490, Note_on_c, 9, 36, 0
1, 132520, Note_on_c, 8, 45, 100
1, 132680, Note_on_c, 12, 68, 0
1, 132920, Note_on_c, 8, 45, 0
1, 132960, Note_on_c, 9, 59, 80
1, 132970, Note_on_c, 9, 59, 0
1, 133070, Note_on_c, 11, 68, 0
1, 133070, Note_on_c, 11, 63, 0
1, 133070, Note_on_c, 11, 61, 0
1, 133070, Note_on_c, 11, 57, 0
1, 133190, Note_on_c, 11, 63, 85
1, 133190, Note_on_c, 11, 61, 85
1, 133190, Note_on_c, 11, 57, 85
1, 133200, Note_on_c, 9, 36, 60
1, 133210, Note_on_c, 9, 36, 0
1, 133240, Note_on_c, 8, 40, 90
1, 133440, Note_on_c, 9, 59, 70
1, 133440, Note_on_c, 9, 36, 70
1, 133440, Note_on_c, 8, 40, 0
1, 133450, Note_on_c, 9, 59, 0
1, 133450, Note_on_c, 9, 36, 0
1, 133480, Note_on_c, 8, 45, 100
1, 133680, Note_on_c, 9, 38, 60
1, 133690, Note_on_c, 9, 38, 0
1, 133880, Note_on_c, 8, 45, 0
1, 133920, Note_on_c, 9, 59, 70
1, 133920, Note_on_c, 9, 38, 80
1, 133920, Note_on_c, 12, 68, 94
1, 133930, Note_on_c, 9, 59, 0
1, 133930, Note_on_c, 9, 38, 0
1, 134160, Note_on_c, 9, 44, 90
1, 134160, Note_on_c, 9, 36, 70
1, 134170, Note_on_c, 9, 44, 0
1, 134170, Note_on_c, 9, 36, 0
1, 134200, Note_on_c, 8, 40, 90
1, 134200, Note_on_c, 12, 66, 70
1, 134210, Note_on_c, 12, 68, 0
1, 134400, Note_on_c, 9, 59, 70
1, 134400, Note_on_c, 8, 40, 0
1, 134400, Note_on_c, 12, 68, 98
1, 134410, Note_on_c, 9, 59, 0
1, 134410, Note_on_c, 12, 66, 0
1, 134440, Note_on_c, 8, 45, 100
1, 134590, Note_on_c, 11, 63, 0
1, 134630, Note_on_c, 11, 61, 0
1, 134630, Note_on_c, 11, 57, 0
1, 134630, Note_on_c, 11, 63, 75
1, 134630, Note_on_c, 11, 61, 75
1, 134630, Note_on_c, 11, 57, 75
1, 134640, Note_on_c, 9, 38, 50
1, 134640, Note_on_c, 9, 36, 65
1, 134640, Note_on_c, 12, 66, 75
1, 134650, Note_on_c, 9, 38, 0
1, 134650, Note_on_c, 9, 36, 0
1, 134650, Note_on_c, 12, 68, 0
1, 134660, Note_on_c, 8, 45, 0
1, 134680, Note_on_c, 8, 45, 80
1, 134880, Note_on_c, 9, 59, 70
1, 134880, Note_on_c, 8, 45, 0
1, 134890, Note_on_c, 9, 59, 0
1, 134920, Note_on_c, 8, 40, 90
1, 135110, Note_on_c, 11, 63, 0
1, 135110, Note_on_c, 11, 61, 0
1, 135110, Note_on_c, 11, 57, 0
1, 135110, Note_on_c, 11, 63, 65
1, 135110, Note_on_c, 11, 61, 65
1, 135110, Note_on_c, 11, 57, 65
1, 135120, Note_on_c, 9, 36, 70
1, 135120, Note_on_c, 8, 40, 0
1, 135130, Note_on_c, 9, 36, 0
1, 135160, Note_on_c, 8, 56, 90
1, 135330, Note_on_c, 11, 63, 0
1, 135330, Note_on_c, 11, 61, 0
1, 135330, Note_on_c, 11, 57, 0
1, 135350, Note_on_c, 11, 63, 70
1, 135350, Note_on_c, 11, 61, 70
1, 135350, Note_on_c, 11, 57, 70
1, 135360, Note_on_c, 9, 59, 70
1, 135360, Note_on_c, 8, 56, 0
1, 135360, Note_on_c, 12, 66, 0
1, 135360, Note_on_c, 12, 61, 85
1, 135370, Note_on_c, 9, 59, 0
1, 135400, Note_on_c, 8, 51, 70
1, 135600, Note_on_c, 9, 38, 90
1, 135610, Note_on_c, 9, 38, 0
1, 135840, Note_on_c, 9, 59, 70
1, 135840, Note_on_c, 9, 44, 90
1, 135850, Note_on_c, 9, 59, 0
1, 135850, Note_on_c, 9, 44, 0
1, 136000, Note_on_c, 8, 51, 0
1, 136050, Note_on_c, 11, 63, 0
1, 136050, Note_on_c, 11, 61, 0
1, 136050, Note_on_c, 11, 57, 0
1, 136070, Note_on_c, 11, 63, 60
1, 136070, Note_on_c, 11, 61, 60
1, 136070, Note_on_c, 11, 57, 60
1, 136080, Note_on_c, 9, 36, 70
1, 136090, Note_on_c, 9, 36, 0
1, 136120, Note_on_c, 8, 40, 90
1, 136190, Note_on_c, 11, 52, 0
1, 136290, Note_on_c, 11, 63, 0
1, 136290, Note_on_c, 11, 61, 0
1, 136290, Note_on_c, 11, 57, 0
1, 136310, Note_on_c, 11, 68, 100
1, 136310, Note_on_c, 11, 63, 100
1, 136310, Note_on_c, 11, 61, 100
1, 136310, Note_on_c, 11, 57, 100
1, 136310, Note_on_c, 11, 52, 100
1, 136320, Note_on_c, 9, 59, 80
1, 136320, Note_on_c, 8, 40, 0
1, 136330, Note_on_c, 9, 59, 0
1, 136360, Note_on_c, 8, 45, 100
1, 136760, Note_on_c, 8, 45, 0
1, 136800, Note_on_c, 9, 59, 90
1, 136800, Note_on_c, 9, 36, 80
1, 136810, Note_on_c, 9, 59, 0
1, 136810, Note_on_c, 9, 36, 0
1, 137000, Note_on_c, 12, 61, 0
1, 137010, Note_on_c, 11, 68, 0
1, 137010, Note_on_c, 11, 63, 0
1, 137010, Note_on_c, 11, 61, 0
1, 137010, Note_on_c, 11, 57, 0
1, 137030, Note_on_c, 11, 63, 90
1, 137030, Note_on_c, 11, 61, 90
1, 137030, Note_on_c, 11, 57, 90
1, 137040, Note_on_c, 12, 61, 92
1, 137080, Note_on_c, 8, 40, 90
1, 137180, Note_on_c, 12, 61, 0
1, 137280, Note_on_c, 9, 59, 80
1, 137280, Note_on_c, 9, 38, 85
1, 137280, Note_on_c, 8, 40, 0
1, 137290, Note_on_c, 9, 59, 0
1, 137290, Note_on_c, 9, 38, 0
1, 137320, Note_on_c, 8, 45, 100
1, 137520, Note_on_c, 12, 75, 96
1, 137720, Note_on_c, 8, 45, 0
1, 137760, Note_on_c, 9, 59, 70
1, 137770, Note_on_c, 9, 59, 0
1, 138000, Note_on_c, 9, 44, 90
1, 138000, Note_on_c, 9, 38, 50
1, 138000, Note_on_c, 9, 36, 70
1, 138010, Note_on_c, 9, 44, 0
1, 138010, Note_on_c, 9, 38, 0
1, 138010, Note_on_c, 9, 36, 0
1, 138040, Note_on_c, 8, 40, 90
1, 138120, Note_on_c, 9, 38, 30
1, 138130, Note_on_c, 9, 38, 0
1, 138230, Note_on_c, 11, 63, 0
1, 138230, Note_on_c, 11, 61, 0
1, 138230, Note_on_c, 11, 57, 0
1, 138240, Note_on_c, 9, 59, 80
1, 138240, Note_on_c, 8, 40, 0
1, 138250, Note_on_c, 9, 59, 0
1, 138280, Note_on_c, 8, 45, 100
1, 138470, Note_on_c, 11, 63, 80
1, 138470, Note_on_c, 11, 61, 80
1, 138470, Note_on_c, 11, 57, 80
1, 138500, Note_on_c, 8, 45, 0
1, 138520, Note_on_c, 8, 45, 80
1, 138690, Note_on_c, 11, 63, 0
1, 138690, Note_on_c, 11, 61, 0
1, 138690, Note_on_c, 11, 57, 0
1, 138710, Note_on_c, 11, 68, 90
1, 138710, Note_on_c, 11, 63, 90
1, 138710, Note_on_c, 11, 61, 90
1, 138710, Note_on_c, 11, 57, 90
1, 138720, Note_on_c, 9, 59, 80
1, 138720, Note_on_c, 9, 36, 70
1, 138720, Note_on_c, 8, 45, 0
1, 138730, Note_on_c, 9, 59, 0
1, 138730, Note_on_c, 9, 36, 0
1, 138760, Note_on_c, 8, 40, 90
1, 138960, Note_on_c, 8, 40, 0
1, 139000, Note_on_c, 8, 56, 90
1, 139140, Note_on_c, 12, 75, 0
1, 139200, Note_on_c, 9, 59, 80
1, 139200, Note_on_c, 9, 44, 90
1, 139200, Note_on_c, 8, 56, 0
1, 139200, Note_on_c, 12, 73, 103
1, 139210, Note_on_c, 9, 59, 0
1, 139210, Note_on_c, 9, 44, 0
1, 139240, Note_on_c, 8, 51, 70
1, 139320, Note_on_c, 12, 66, 80
1, 139330, Note_on_c, 12, 73, 0
1, 139440, Note_on_c, 9, 38, 80
1, 139450, Note_on_c, 9, 38, 0
1, 139520, Note_on_c, 12, 66, 0
1, 139680, Note_on_c, 9, 59, 70
1, 139680, Note_on_c, 9, 38, 70
1, 139680, Note_on_c, 12, 66, 90
1, 139690, Note_on_c, 9, 59, 0
1, 139690, Note_on_c, 9, 38, 0
1, 139840, Note_on_c, 8, 51, 0
1, 139920, Note_on_c, 9, 44, 100
1, 139920, Note_on_c, 9, 36, 70
1, 139930, Note_on_c, 9, 44, 0
1, 139930, Note_on_c, 9, 36, 0
1, 139960, Note_on_c, 8, 40, 90
1, 140030, Note_on_c, 11, 52, 0
1, 140110, Note_on_c, 11, 68, 0
1, 140110, Note_on_c, 11, 63, 0
1, 140110, Note_on_c, 11, 61, 0
1, 140110, Note_on_c, 11, 57, 0
1, 140110, Note_on_c, 12, 66, 0
1, 140150, Note_on_c, 11, 68, 90
1, 140150, Note_on_c, 11, 64, 100
1, 140150, Note_on_c, 11, 61, 100
1, 140150, Note_on_c, 11, 57, 100
1, 140150, Note_on_c, 11, 52, 100
1, 140160, Note_on_c, 9, 59, 80
1, 140160, Note_on_c, 9, 36, 70
1, 140160, Note_on_c, 8, 40, 0
1, 140160, Note_on_c, 12, 75, 100
1, 140170, Note_on_c, 9, 59, 0
1, 140170, Note_on_c, 9, 36, 0
1, 140200, Note_on_c, 8, 45, 100
1, 140280, Note_on_c, 12, 73, 80
1, 140290, Note_on_c, 12, 75, 0
1, 140480, Note_on_c, 12, 73, 0
1, 140600, Note_on_c, 8, 45, 0
1, 140640, Note_on_c, 9, 59, 90
1, 140640, Note_on_c, 9, 36, 70
1, 140640, Note_on_c, 12, 73, 95
1, 140650, Note_on_c, 9, 59, 0
1, 140650, Note_on_c, 9, 36, 0
1, 140870, Note_on_c, 11, 68, 0
1, 140870, Note_on_c, 11, 64, 0
1, 140870, Note_on_c, 11, 61, 0
1, 140870, Note_on_c, 11, 57, 0
1, 140870, Note_on_c, 11, 52, 0
1, 140870, Note_on_c, 11, 68, 90
1, 140870, Note_on_c, 11, 64, 90
1, 140870, Note_on_c, 11, 61, 90
1, 140870, Note_on_c, 11, 57, 90
1, 140870, Note_on_c, 11, 52, 90
1, 140880, Note_on_c, 12, 66, 85
1, 140890, Note_on_c, 12, 73, 0
1, 140920, Note_on_c, 8, 40, 90
1, 141080, Note_on_c, 12, 66, 0
1, 141090, Note_on_c, 11, 68, 0
1, 141090, Note_on_c, 11, 64, 0
1, 141090, Note_on_c, 11, 61, 0
1, 141090, Note_on_c, 11, 57, 0
1, 141090, Note_on_c, 11, 52, 0
1, 141120, Note_on_c, 9, 59, 80
1, 141120, Note_on_c, 9, 38, 90
1, 141120, Note_on_c, 8, 40, 0
1, 141130, Note_on_c, 9, 59, 0
1, 141130, Note_on_c, 9, 38, 0
1, 141160, Note_on_c, 8, 45, 100
1, 141240, Note_on_c, 12, 66, 97
1, 141360, Note_on_c, 12, 73, 70
1, 141370, Note_on_c, 12, 66, 0
1, 141560, Note_on_c, 8, 45, 0
1, 141560, Note_on_c, 12, 73, 0
1, 141600, Note_on_c, 9, 59, 70
1, 141600, Note_on_c, 9, 44, 90
1, 141600, Note_on_c, 9, 38, 75
1, 141600, Note_on_c, 12, 75, 99
1, 141610, Note_on_c, 9, 59, 0
1, 141610, Note_on_c, 9, 44, 0
1, 141610, Note_on_c, 9, 38, 0
1, 141720, Note_on_c, 9, 38, 50
1, 141730, Note_on_c, 9, 38, 0
1, 141830, Note_on_c, 11, 73, 100
1, 141830, Note_on_c, 11, 69, 100
1, 141830, Note_on_c, 11, 64, 100
1, 141840, Note_on_c, 9, 36, 80
1, 141840, Note_on_c, 12, 73, 70
1, 141850, Note_on_c, 9, 36, 0
1, 141850, Note_on_c, 12, 75, 0
1, 141880, Note_on_c, 8, 40, 90
1, 142050, Note_on_c, 11, 73, 0
1, 142050, Note_on_c, 11, 69, 0
1, 142050, Note_on_c, 11, 64, 0
1, 142080, Note_on_c, 9, 59, 80
1, 142080, Note_on_c, 9, 38, 75
1, 142080, Note_on_c, 9, 36, 70
1, 142080, Note_on_c, 8, 40, 0
1, 142090, Note_on_c, 9, 59, 0
1, 142090, Note_on_c, 9, 38, 0
1, 142090, Note_on_c, 9, 36, 0
1, 142120, Note_on_c, 8, 45, 100
1, 142200, Note_on_c, 9, 38, 70
1, 142210, Note_on_c, 9, 38, 0
1, 142340, Note_on_c, 8, 45, 0
1, 142360, Note_on_c, 8, 45, 80
1, 142550, Note_on_c, 11, 74, 100
1, 142550, Note_on_c, 11, 70, 100
1, 142550, Note_on_c, 11, 65, 100
1, 142560, Note_on_c, 9, 59, 80
1, 142560, Note_on_c, 9, 36, 70
1, 142560, Note_on_c, 8, 45, 0
1, 142570, Note_on_c, 9, 59, 0
1, 142570, Note_on_c, 9, 36, 0
1, 142600, Note_on_c, 8, 40, 90
1, 142770, Note_on_c, 11, 74, 0
1, 142770, Note_on_c, 11, 70, 0
1, 142770, Note_on_c, 11, 65, 0
1, 142800, Note_on_c, 9, 38, 95
1, 142800, Note_on_c, 8, 40, 0
1, 142810, Note_on_c, 9, 38, 0
1, 142840, Note_on_c, 8, 56, 90
1, 143030, Note_on_c, 11, 75, 100
1, 143030, Note_on_c, 11, 71, 100
1, 143030, Note_on_c, 11, 66, 100
1, 143040, Note_on_c, 9, 59, 80
1, 143040, Note_on_c, 9, 44, 90
1, 143040, Note_on_c, 8, 56, 0
1, 143040, Note_on_c, 12, 73, 0
1, 143040, Note_on_c, 12, 66, 96
1, 143050, Note_on_c, 9, 59, 0
1, 143050, Note_on_c, 9, 44, 0
1, 143080, Note_on_c, 8, 51, 70
1, 143160, Note_on_c, 12, 66, 0
1, 143160, Note_on_c, 12, 75, 94
1, 143280, Note_on_c, 9, 36, 60
1, 143280, Note_on_c, 12, 75, 0
1, 143280, Note_on_c, 12, 73, 82
1, 143290, Note_on_c, 9, 36, 0
1, 143310, Note_on_c, 11, 75, 0
1, 143310, Note_on_c, 11, 71, 0
1, 143310, Note_on_c, 11, 66, 0
1, 143350, Note_on_c, 11, 74, 90
1, 143350, Note_on_c, 11, 70, 90
1, 143350, Note_on_c, 11, 65, 90
1, 143400, Note_on_c, 12, 73, 0
1, 143400, Note_on_c, 12, 66, 80
1, 143520, Note_on_c, 9, 59, 70
1, 143530, Note_on_c, 9, 59, 0
1, 143630, Note_on_c, 11, 74, 0
1, 143630, Note_on_c, 11, 70, 0
1, 143630, Note_on_c, 11, 65, 0
1, 143640, Note_on_c, 12, 66, 0
1, 143640, Note_on_c, 12, 75, 92
1, 143670, Note_on_c, 11, 73, 100
1, 143670, Note_on_c, 11, 69, 100
1, 143670, Note_on_c, 11, 64, 100
1, 143680, Note_on_c, 8, 51, 0
1, 143760, Note_on_c, 9, 36, 70
1, 143760, Note_on_c, 12, 75, 0
1, 143760, Note_on_c, 12, 73, 80
1, 143770, Note_on_c, 9, 36, 0
1, 143800, Note_on_c, 8, 40, 90
1, 143880, Note_on_c, 12, 73, 0
1, 143880, Note_on_c, 12, 66, 84
1, 143890, Note_on_c, 11, 73, 0
1, 143890, Note_on_c, 11, 69, 0
1, 143890, Note_on_c, 11, 64, 0
1, 144000, Note_on_c, 9, 59, 70
1, 144000, Note_on_c, 9, 38, 80
1, 144000, Note_on_c, 8, 40, 0
1, 144000, Note_on_c, 12, 66, 0
1, 144000, Note_on_c, 12, 75, 94
1, 144010, Note_on_c, 9, 59, 0
1, 144010, Note_on_c, 9, 38, 0
1, 144040, Note_on_c, 8, 45, 100
1, 144120, Note_on_c, 12, 75, 0
1, 144120, Note_on_c, 12, 73, 80
1, 144240, Note_on_c, 9, 36, 70
1, 144240, Note_on_c, 12, 73, 0
1, 144240, Note_on_c, 12, 66, 84
1, 144250, Note_on_c, 9, 36, 0
1, 144360, Note_on_c, 12, 66, 0
1, 144360, Note_on_c, 12, 75, 80
1, 144440, Note_on_c, 8, 45, 0
1, 144470, Note_on_c, 11, 63, 100
1, 144470, Note_on_c, 11, 61, 100
1, 144470, Note_on_c, 11, 57, 100
1, 144470, Note_on_c, 11, 52, 100
1, 144480, Note_on_c, 9, 59, 90
1, 144480, Note_on_c, 9, 38, 80
1, 144480, Note_on_c, 12, 75, 0
1, 144480, Note_on_c, 12, 73, 95
1, 144490, Note_on_c, 9, 59, 0
1, 144490, Note_on_c, 9, 38, 0
1, 144600, Note_on_c, 9, 36, 80
1, 144600, Note_on_c, 12, 73, 0
1, 144600, Note_on_c, 12, 66, 85
1, 144610, Note_on_c, 9, 36, 0
1, 144720, Note_on_c, 12, 66, 0
1, 144720, Note_on_c, 12, 75, 88
1, 144760, Note_on_c, 8, 40, 90
1, 144840, Note_on_c, 12, 75, 0
1, 144840, Note_on_c, 12, 73, 80
1, 144960, Note_on_c, 9, 59, 80
1, 144960, Note_on_c, 9, 38, 90
1, 144960, Note_on_c, 9, 36, 80
1, 144960, Note_on_c, 8, 40, 0
1, 144960, Note_on_c, 12, 73, 0
1, 144960, Note_on_c, 12, 66, 96
1, 144970, Note_on_c, 9, 59, 0
1, 144970, Note_on_c, 9, 38, 0
1, 144970, Note_on_c, 9, 36, 0
1, 145000, Note_on_c, 8, 45, 100
1, 145080, Note_on_c, 12, 66, 0
1, 145080, Note_on_c, 12, 75, 88
1, 145200, Note_on_c, 12, 75, 0
1, 145200, Note_on_c, 12, 73, 90
1, 145320, Note_on_c, 12, 73, 0
1, 145320, Note_on_c, 12, 66, 85
1, 145400, Note_on_c, 8, 45, 0
1, 145440, Note_on_c, 9, 59, 70
1, 145440, Note_on_c, 9, 38, 85
1, 145440, Note_on_c, 12, 66, 0
1, 145440, Note_on_c, 12, 75, 96
1, 145450, Note_on_c, 9, 59, 0
1, 145450, Note_on_c, 9, 38, 0
1, 145560, Note_on_c, 12, 75, 0
1, 145560, Note_on_c, 12, 73, 80
1, 145680, Note_on_c, 9, 44, 90
1, 145680, Note_on_c, 9, 36, 70
1, 145680, Note_on_c, 12, 73, 0
1, 145680, Note_on_c, 12, 66, 98
1, 145690, Note_on_c, 9, 44, 0
1, 145690, Note_on_c, 9, 36, 0
1, 145720, Note_on_c, 8, 40, 90
1, 145800, Note_on_c, 9, 38, 80
1, 145800, Note_on_c, 12, 66, 0
1, 145800, Note_on_c, 12, 75, 80
1, 145810, Note_on_c, 9, 38, 0
1, 145920, Note_on_c, 9, 44, 90
1, 145920, Note_on_c, 9, 38, 100
1, 145920, Note_on_c, 9, 36, 75
1, 145920, Note_on_c, 8, 40, 0
1, 145920, Note_on_c, 12, 75, 0
1, 145920, Note_on_c, 12, 73, 99
1, 145930, Note_on_c, 9, 44, 0
1, 145930, Note_on_c, 9, 38, 0
1, 145930, Note_on_c, 9, 36, 0
1, 145960, Note_on_c, 8, 45, 100
1, 145970, Note_on_c, 11, 63, 0
1, 145970, Note_on_c, 11, 61, 0
1, 145970, Note_on_c, 11, 52, 0
1, 146040, Note_on_c, 12, 73, 0
1, 146040, Note_on_c, 12, 66, 80
1, 146160, Note_on_c, 9, 44, 80
1, 146160, Note_on_c, 9, 38, 90
1, 146160, Note_on_c, 12, 66, 0
1, 146160, Note_on_c, 12, 75, 92
1, 146170, Note_on_c, 9, 44, 0
1, 146170, Note_on_c, 9, 38, 0
1, 146180, Note_on_c, 8, 45, 0
1, 146200, Note_on_c, 8, 45, 80
1, 146280, Note_on_c, 12, 75, 0
1, 146280, Note_on_c, 12, 73, 80
1, 146400, Note_on_c, 9, 44, 80
1, 146400, Note_on_c, 9, 36, 70
1, 146400, Note_on_c, 8, 45, 0
1, 146400, Note_on_c, 12, 73, 0
1, 146400, Note_on_c, 12, 66, 100
1, 146410, Note_on_c, 9, 44, 0
1, 146410, Note_on_c, 9, 36, 0
1, 146440, Note_on_c, 8, 40, 90
1, 146520, Note_on_c, 9, 38, 70
1, 146520, Note_on_c, 12, 66, 0
1, 146520, Note_on_c, 12, 75, 80
1, 146530, Note_on_c, 9, 38, 0
1, 146640, Note_on_c, 9, 38, 95
1, 146640, Note_on_c, 8, 40, 0
1, 146640, Note_on_c, 12, 75, 0
1, 146640, Note_on_c, 12, 73, 90
1, 146650, Note_on_c, 9, 38, 0
1, 146680, Note_on_c, 8, 56, 90
1, 146760, Note_on_c, 9, 36, 60
1, 146760, Note_on_c, 12, 73, 0
1, 146760, Note_on_c, 12, 66, 80
1, 146770, Note_on_c, 9, 36, 0
1, 146870, Note_on_c, 11, 63, 80
1, 146870, Note_on_c, 11, 61, 80
1, 146870, Note_on_c, 11, 52, 80
1, 146880, Note_on_c, 9, 49, 80
1, 146880, Note_on_c, 9, 36, 80
1, 146880, Note_on_c, 8, 56, 0
1, 146880, Note_on_c, 12, 66, 0
1, 146880, Note_on_c, 12, 75, 102
1, 146890, Note_on_c, 9, 49, 0
1, 146890, Note_on_c, 9, 36, 0
1, 146920, Note_on_c, 8, 51, 70
1, 147000, Note_on_c, 12, 75, 0
1, 147000, Note_on_c, 12, 73, 96
1, 147120, Note_on_c, 12, 73, 0
1, 147120, Note_on_c, 12, 66, 99
1, 147240, Note_on_c, 12, 66, 0
1, 147240, Note_on_c, 12, 75, 86
1, 147360, Note_on_c, 9, 38, 30
1, 147360, Note_on_c, 12, 75, 0
1, 147360, Note_on_c, 12, 73, 101
1, 147370, Note_on_c, 9, 38, 0
1, 147480, Note_on_c, 9, 38, 80
1, 147480, Note_on_c, 12, 73, 0
1, 147480, Note_on_c, 12, 66, 85
1, 147490, Note_on_c, 9, 38, 0
1, 147520, Note_on_c, 8, 51, 0
1, 147600, Note_on_c, 9, 38, 70
1, 147600, Note_on_c, 9, 36, 80
1, 147600, Note_on_c, 12, 66, 0
1, 147600, Note_on_c, 12, 75, 99
1, 147610, Note_on_c, 9, 38, 0
1, 147610, Note_on_c, 9, 36, 0
1, 147640, Note_on_c, 8, 39, 90
1, 147720, Note_on_c, 9, 38, 50
1, 147720, Note_on_c, 12, 75, 0
1, 147720, Note_on_c, 12, 73, 70
1, 147730, Note_on_c, 9, 38, 0
1, 147770, Note_on_c, 11, 63, 0
1, 147770, Note_on_c, 11, 61, 0
1, 147770, Note_on_c, 11, 52, 0
1, 147840, Note_on_c, 9, 57, 80
1, 147840, Note_on_c, 9, 36, 70
1, 147840, Note_on_c, 8, 39, 0
1, 147840, Note_on_c, 12, 73, 0
1, 147840, Note_on_c, 12, 64, 108
1, 147850, Note_on_c, 9, 57, 0
1, 147850, Note_on_c, 9, 36, 0
1, 147880, Note_on_c, 8, 45, 100
1, 147960, Note_on_c, 12, 64, 0
1, 148280, Note_on_c, 8, 45, 0
1, 148320, Note_on_c, 9, 59, 90
1, 148320, Note_on_c, 9, 36, 60
1, 148330, Note_on_c, 9, 59, 0
1, 148330, Note_on_c, 9, 36, 0
1, 148470, Note_on_c, 11, 57, 0
1, 148600, Note_on_c, 8, 40, 90
1, 148790, Note_on_c, 11, 73, 90
1, 148790, Note_on_c, 11, 69, 90
1, 148790, Note_on_c, 11, 64, 90
1, 148800, Note_on_c, 9, 59, 80
1, 148800, Note_on_c, 9, 38, 100
1, 148800, Note_on_c, 8, 40, 0
1, 148800, Note_on_c, 12, 64, 100
1, 148810, Note_on_c, 9, 59, 0
1, 148810, Note_on_c, 9, 38, 0
1, 148840, Note_on_c, 8, 45, 100
1, 149010, Note_on_c, 11, 73, 0
1, 149010, Note_on_c, 11, 69, 0
1, 149010, Note_on_c, 11, 64, 0
1, 149240, Note_on_c, 8, 45, 0
1, 149280, Note_on_c, 9, 59, 70
1, 149290, Note_on_c, 9, 59, 0
1, 149510, Note_on_c, 11, 73, 85
1, 149510, Note_on_c, 11, 69, 85
1, 149510, Note_on_c, 11, 64, 85
1, 149520, Note_on_c, 9, 44, 90
1, 149520, Note_on_c, 9, 38, 60
1, 149520, Note_on_c, 9, 36, 60
1, 149530, Note_on_c, 9, 44, 0
1, 149530, Note_on_c, 9, 38, 0
1, 149530, Note_on_c, 9, 36, 0
1, 149560, Note_on_c, 8, 40, 90
1, 149730, Note_on_c, 11, 73, 0
1, 149730, Note_on_c, 11, 69, 0
1, 149730, Note_on_c, 11, 64, 0
1, 149760, Note_on_c, 9, 59, 80
1, 149760, Note_on_c, 9, 36, 60
1, 149760, Note_on_c, 8, 40, 0
1, 149760, Note_on_c, 12, 64, 0
1, 149760, Note_on_c, 12, 63, 102
1, 149770, Note_on_c, 9, 59, 0
1, 149770, Note_on_c, 9, 36, 0
1, 149800, Note_on_c, 8, 45, 100
1, 149880, Note_on_c, 12, 64, 80
1, 149890, Note_on_c, 12, 63, 0
1, 150000, Control_c, 12, 6, 30
1, 150000, Note_on_c, 12, 61, 70
1, 150010, Note_on_c, 12, 64, 0
1, 150020, Note_on_c, 8, 45, 0
1, 150040, Note_on_c, 8, 45, 80
1, 150120, Note_on_c, 12, 61, 0
1, 150120, Control_c, 12, 6, 60
1, 150120, Note_on_c, 12, 63, 90
1, 150240, Note_on_c, 9, 59, 80
1, 150240, Note_on_c, 9, 36, 60
1, 150240, Note_on_c, 8, 45, 0
1, 150250, Note_on_c, 9, 59, 0
1, 150250, Note_on_c, 9, 36, 0
1, 150280, Note_on_c, 8, 40, 90
1, 150480, Note_on_c, 8, 40, 0
1, 150520, Note_on_c, 8, 45, 80
1, 150720, Note_on_c, 9, 59, 80
1, 150720, Note_on_c, 8, 45, 0
1, 150730, Note_on_c, 9, 59, 0
1, 150760, Note_on_c, 8, 56, 90
1, 150960, Note_on_c, 9, 38, 80
1, 150970, Note_on_c, 9, 38, 0
1, 151030, Note_on_c, 11, 73, 90
1, 151030, Note_on_c, 11, 69, 90
1, 151030, Note_on_c, 11, 64, 90
1, 151190, Note_on_c, 11, 73, 0
1, 151190, Note_on_c, 11, 69, 0
1, 151190, Note_on_c, 11, 64, 0
1, 151200, Note_on_c, 9, 59, 70
1, 151210, Note_on_c, 9, 59, 0
1, 151350, Note_on_c, 11, 74, 90
1, 151350, Note_on_c, 11, 70, 90
1, 151350, Note_on_c, 11, 65, 90
1, 151360, Note_on_c, 8, 56, 0
1, 151440, Note_on_c, 9, 36, 70
1, 151450, Note_on_c, 9, 36, 0
1, 151480, Note_on_c, 8, 39, 90
1, 151510, Note_on_c, 11, 74, 0
1, 151510, Note_on_c, 11, 70, 0
1, 151510, Note_on_c, 11, 65, 0
1, 151560, Note_on_c, 12, 63, 0
1, 151670, Note_on_c, 11, 75, 90
1, 151670, Note_on_c, 11, 71, 90
1, 151670, Note_on_c, 11, 66, 90
1, 151680, Note_on_c, 9, 59, 80
1, 151680, Note_on_c, 9, 36, 70
1, 151680, Note_on_c, 8, 39, 0
1, 151690, Note_on_c, 9, 59, 0
1, 151690, Note_on_c, 9, 36, 0
1, 151720, Note_on_c, 8, 45, 100
1, 151830, Note_on_c, 11, 75, 0
1, 151830, Note_on_c, 11, 71, 0
1, 151830, Note_on_c, 11, 66, 0
1, 151990, Note_on_c, 11, 74, 80
1, 151990, Note_on_c, 11, 70, 80
1, 151990, Note_on_c, 11, 65, 80
1, 152120, Note_on_c, 8, 45, 0
1, 152150, Note_on_c, 11, 74, 0
1, 152150, Note_on_c, 11, 70, 0
1, 152150, Note_on_c, 11, 65, 0
1, 152160, Note_on_c, 9, 59, 90
1, 152160, Note_on_c, 9, 36, 60
1, 152170, Note_on_c, 9, 59, 0
1, 152170, Note_on_c, 9, 36, 0
1, 152310, Note_on_c, 11, 73, 80
1, 152310, Note_on_c, 11, 69, 80
1, 152310, Note_on_c, 11, 64, 80
1, 152440, Note_on_c, 8, 40, 90
1, 152530, Note_on_c, 11, 73, 0
1, 152530, Note_on_c, 11, 69, 0
1, 152530, Note_on_c, 11, 64, 0
1, 152630, Note_on_c, 11, 73, 90
1, 152630, Note_on_c, 11, 69, 90
1, 152630, Note_on_c, 11, 64, 90
1, 152630, Note_on_c, 11, 61, 90
1, 152630, Note_on_c, 11, 57, 90
1, 152640, Note_on_c, 9, 59, 80
1, 152640, Note_on_c, 9, 38, 100
1, 152640, Note_on_c, 8, 40, 0
1, 152640, Note_on_c, 12, 49, 99
1, 152650, Note_on_c, 9, 59, 0
1, 152650, Note_on_c, 9, 38, 0
1, 152680, Note_on_c, 8, 45, 100
1, 152760, Note_on_c, 12, 51, 70
1, 152780, Note_on_c, 12, 49, 0
1, 152880, Note_on_c, 12, 52, 75
1, 152900, Note_on_c, 12, 51, 0
1, 153000, Note_on_c, 12, 54, 75
1, 153020, Note_on_c, 12, 52, 0
1, 153080, Note_on_c, 8, 45, 0
1, 153120, Note_on_c, 9, 59, 70
1, 153120, Note_on_c, 12, 56, 80
1, 153130, Note_on_c, 9, 59, 0
1, 153140, Note_on_c, 12, 54, 0
1, 153240, Note_on_c, 12, 57, 80
1, 153260, Note_on_c, 12, 56, 0
1, 153330, Note_on_c, 11, 73, 0
1, 153330, Note_on_c, 11, 69, 0
1, 153330, Note_on_c, 11, 64, 0
1, 153330, Note_on_c, 11, 61, 0
1, 153330, Note_on_c, 11, 57, 0
1, 153350, Note_on_c, 11, 73, 80
1, 153350, Note_on_c, 11, 69, 80
1, 153350, Note_on_c, 11, 64, 80
1, 153350, Note_on_c, 11, 61, 80
1, 153350, Note_on_c, 11, 57, 80
1, 153360, Note_on_c, 9, 44, 90
1, 153360, Note_on_c, 9, 38, 60
1, 153360, Note_on_c, 9, 36, 60
1, 153360, Note_on_c, 12, 59, 84
1, 153370, Note_on_c, 9, 44, 0
1, 153370, Note_on_c, 9, 38, 0
1, 153370, Note_on_c, 9, 36, 0
1, 153380, Note_on_c, 12, 57, 0
1, 153400, Note_on_c, 8, 40, 90
1, 153480, Note_on_c, 12, 61, 84
1, 153500, Note_on_c, 12, 59, 0
1, 153600, Note_on_c, 9, 59, 80
1, 153600, Note_on_c, 9, 36, 60
1, 153600, Note_on_c, 8, 40, 0
1, 153600, Note_on_c, 12, 63, 94
1, 153610, Note_on_c, 9, 59, 0
1, 153610, Note_on_c, 9, 36, 0
1, 153620, Note_on_c, 12, 61, 0
1, 153640, Note_on_c, 8, 45, 100
1, 153720, Note_on_c, 12, 64, 80
1, 153740, Note_on_c, 12, 63, 0
1, 153840, Note_on_c, 12, 66, 86
1, 153860, Note_on_c, 8, 45, 0
1, 153860, Note_on_c, 12, 64, 0
1, 153880, Note_on_c, 8, 45, 80
1, 153960, Note_on_c, 12, 68, 80
1, 153980, Note_on_c, 12, 66, 0
1, 154080, Note_on_c, 9, 59, 80
1, 154080, Note_on_c, 9, 36, 60
1, 154080, Note_on_c, 8, 45, 0
1, 154080, Note_on_c, 12, 69, 96
1, 154090, Note_on_c, 9, 59, 0
1, 154090, Note_on_c, 9, 36, 0
1, 154100, Note_on_c, 12, 68, 0
1, 154120, Note_on_c, 8, 40, 90
1, 154200, Note_on_c, 12, 71, 80
1, 154220, Note_on_c, 12, 69, 0
1, 154320, Note_on_c, 9, 38, 85
1, 154320, Note_on_c, 8, 40, 0
1, 154320, Note_on_c, 12, 73, 90
1, 154330, Note_on_c, 9, 38, 0
1, 154340, Note_on_c, 12, 71, 0
1, 154360, Note_on_c, 8, 45, 80
1, 154440, Note_on_c, 12, 75, 80
1, 154460, Note_on_c, 12, 73, 0
1, 154560, Note_on_c, 9, 59, 80
1, 154560, Note_on_c, 8, 45, 0
1, 154560, Control_c, 12, 6, 50
1, 154560, Note_on_c, 12, 76, 100
1, 154570, Note_on_c, 9, 59, 0
1, 154580, Note_on_c, 12, 75, 0
1, 154600, Note_on_c, 8, 56, 90
1, 154680, Note_on_c, 12, 78, 90
1, 154700, Note_on_c, 12, 76, 0
1, 154800, Note_on_c, 12, 80, 80
1, 154820, Note_on_c, 12, 78, 0
1, 154920, Note_on_c, 12, 81, 70
1, 154940, Note_on_c, 12, 80, 0
1, 155040, Note_on_c, 9, 59, 70
1, 155040, Note_on_c, 9, 38, 95
1, 155040, Note_on_c, 12, 80, 90
1, 155050, Note_on_c, 9, 59, 0
1, 155050, Note_on_c, 9, 38, 0
1, 155060, Note_on_c, 12, 81, 0
1, 155200, Note_on_c, 8, 56, 0
1, 155280, Note_on_c, 9, 36, 70
1, 155290, Note_on_c, 9, 36, 0
1, 155320, Note_on_c, 8, 39, 90
1, 155390, Note_on_c, 11, 73, 0
1, 155390, Note_on_c, 11, 69, 0
1, 155390, Note_on_c, 11, 64, 0
1, 155390, Note_on_c, 11, 61, 0
1, 155390, Note_on_c, 11, 57, 0
1, 155520, Note_on_c, 9, 59, 90
1, 155520, Note_on_c, 9, 36, 70
1, 155520, Note_on_c, 8, 39, 0
1, 155520, Note_on_c, 12, 80, 0
1, 155520, Note_on_c, 12, 78, 90
1, 155530, Note_on_c, 9, 59, 0
1, 155530, Note_on_c, 9, 36, 0
1, 155560, Note_on_c, 8, 45, 100
1, 155960, Note_on_c, 8, 45, 0
1, 156000, Note_on_c, 9, 59, 90
1, 156000, Note_on_c, 9, 36, 60
1, 156010, Note_on_c, 9, 59, 0
1, 156010, Note_on_c, 9, 36, 0
1, 156280, Note_on_c, 8, 40, 90
1, 156470, Note_on_c, 11, 68, 90
1, 156470, Note_on_c, 11, 61, 90
1, 156470, Note_on_c, 11, 57, 90
1, 156470, Note_on_c, 11, 51, 90
1, 156470, Note_on_c, 11, 45, 90
1, 156480, Note_on_c, 9, 59, 90
1, 156480, Note_on_c, 9, 38, 90
1, 156480, Note_on_c, 8, 40, 0
1, 156480, Note_on_c, 12, 78, 0
1, 156480, Control_c, 12, 6, 40
1, 156480, Note_on_c, 12, 78, 68
1, 156490, Note_on_c, 9, 59, 0
1, 156490, Note_on_c, 9, 38, 0
1, 156520, Note_on_c, 8, 45, 100
1, 156620, Control_c, 12, 6, 45
1, 156740, Control_c, 12, 6, 42
1, 156860, Control_c, 12, 6, 49
1, 156920, Note_on_c, 8, 45, 0
1, 156960, Note_on_c, 9, 59, 90
1, 156970, Note_on_c, 9, 59, 0
1, 157200, Note_on_c, 9, 44, 90
1, 157200, Note_on_c, 9, 38, 60
1, 157200, Note_on_c, 9, 36, 60
1, 157210, Note_on_c, 9, 44, 0
1, 157210, Note_on_c, 9, 38, 0
1, 157210, Note_on_c, 9, 36, 0
1, 157240, Note_on_c, 8, 40, 90
1, 157320, Note_on_c, 9, 38, 40
1, 157330, Note_on_c, 9, 38, 0
1, 157430, Note_on_c, 11, 68, 0
1, 157430, Note_on_c, 11, 61, 0
1, 157430, Note_on_c, 11, 57, 0
1, 157430, Note_on_c, 11, 51, 0
1, 157430, Note_on_c, 11, 45, 0
1, 157430, Note_on_c, 11, 68, 75
1, 157430, Note_on_c, 11, 61, 75
1, 157430, Note_on_c, 11, 57, 75
1, 157430, Note_on_c, 11, 51, 75
1, 157430, Note_on_c, 11, 45, 75
1, 157440, Note_on_c, 9, 59, 90
1, 157440, Note_on_c, 9, 36, 60
1, 157440, Note_on_c, 8, 40, 0
1, 157450, Note_on_c, 9, 59, 0
1, 157450, Note_on_c, 9, 36, 0
1, 157480, Note_on_c, 8, 45, 100
1, 157700, Note_on_c, 8, 45, 0
1, 157720, Note_on_c, 8, 45, 80
1, 157920, Note_on_c, 9, 59, 90
1, 157920, Note_on_c, 9, 36, 60
1, 157920, Note_on_c, 8, 45, 0
1, 157930, Note_on_c, 9, 59, 0
1, 157930, Note_on_c, 9, 36, 0
1, 157940, Note_on_c, 12, 78, 0
1, 157960, Note_on_c, 8, 40, 90
1, 158040, Note_on_c, 12, 78, 110
1, 158160, Note_on_c, 8, 40, 0
1, 158160, Note_on_c, 12, 80, 75
1, 158170, Note_on_c, 12, 78, 0
1, 158200, Note_on_c, 8, 45, 80
1, 158280, Note_on_c, 12, 73, 60
1, 158290, Note_on_c, 12, 80, 0
1, 158390, Note_on_c, 11, 68, 0
1, 158390, Note_on_c, 11, 61, 0
1, 158390, Note_on_c, 11, 57, 0
1, 158390, Note_on_c, 11, 51, 0
1, 158390, Note_on_c, 11, 45, 0
1, 158390, Note_on_c, 11, 68, 80
1, 158390, Note_on_c, 11, 61, 80
1, 158390, Note_on_c, 11, 57, 80
1, 158390, Note_on_c, 11, 51, 80
1, 158390, Note_on_c, 11, 45, 80
1, 158400, Note_on_c, 9, 59, 90
1, 158400, Note_on_c, 8, 45, 0
1, 158400, Note_on_c, 12, 78, 100
1, 158410, Note_on_c, 9, 59, 0
1, 158410, Note_on_c, 12, 73, 0
1, 158440, Note_on_c, 8, 56, 90
1, 158520, Note_on_c, 12, 76, 80
1, 158530, Note_on_c, 12, 78, 0
1, 158640, Note_on_c, 9, 38, 80
1, 158640, Note_on_c, 12, 78, 90
1, 158650, Note_on_c, 9, 38, 0
1, 158650, Note_on_c, 12, 76, 0
1, 158880, Note_on_c, 9, 59, 90
1, 158880, Note_on_c, 9, 38, 90
1, 158890, Note_on_c, 9, 59, 0
1, 158890, Note_on_c, 9, 38, 0
1, 159040, Note_on_c, 8, 56, 0
1, 159120, Note_on_c, 9, 36, 70
1, 159130, Note_on_c, 9, 36, 0
1, 159160, Note_on_c, 8, 39, 90
1, 159340, Note_on_c, 12, 78, 0
1, 159350, Note_on_c, 11, 68, 0
1, 159350, Note_on_c, 11, 61, 0
1, 159350, Note_on_c, 11, 57, 0
1, 159350, Note_on_c, 11, 51, 0
1, 159350, Note_on_c, 11, 45, 0
1, 159350, Note_on_c, 11, 45, 90
1, 159360, Note_on_c, 9, 59, 90
1, 159360, Note_on_c, 9, 36, 70
1, 159360, Note_on_c, 8, 39, 0
1, 159360, Note_on_c, 11, 51, 90
1, 159360, Control_c, 12, 6, 45
1, 159360, Note_on_c, 12, 76, 100
1, 159370, Note_on_c, 9, 59, 0
1, 159370, Note_on_c, 9, 36, 0
1, 159380, Note_on_c, 11, 57, 90
1, 159400, Note_on_c, 8, 45, 100
1, 159410, Note_on_c, 11, 61, 90
1, 159450, Note_on_c, 11, 68, 90
1, 159480, Control_c, 12, 6, 50
1, 159480, Note_on_c, 12, 78, 50
1, 159490, Note_on_c, 12, 76, 0
1, 159600, Control_c, 12, 6, 42
1, 159600, Note_on_c, 12, 73, 80
1, 159610, Note_on_c, 12, 78, 0
1, 159720, Control_c, 12, 6, 44
1, 159720, Note_on_c, 12, 78, 100
1, 159730, Note_on_c, 12, 73, 0
1, 159800, Note_on_c, 8, 45, 0
1, 159840, Note_on_c, 9, 59, 90
1, 159840, Note_on_c, 9, 36, 60
1, 159840, Note_on_c, 12, 76, 80
1, 159850, Note_on_c, 9, 59, 0
1, 159850, Note_on_c, 9, 36, 0
1, 159850, Note_on_c, 12, 78, 0
1, 160070, Note_on_c, 11, 45, 0
1, 160070, Note_on_c, 11, 61, 0
1, 160070, Note_on_c, 11, 45, 80
1, 160080, Note_on_c, 11, 51, 0
1, 160080, Note_on_c, 11, 68, 0
1, 160080, Note_on_c, 11, 51, 80
1, 160100, Note_on_c, 11, 61, 80
1, 160110, Note_on_c, 11, 68, 80
1, 160120, Note_on_c, 8, 40, 90
1, 160320, Note_on_c, 9, 59, 90
1, 160320, Note_on_c, 9, 38, 100
1, 160320, Note_on_c, 8, 40, 0
1, 160330, Note_on_c, 9, 59, 0
1, 160330, Note_on_c, 9, 38, 0
1, 160360, Note_on_c, 8, 45, 100
1, 160740, Note_on_c, 12, 76, 0
1, 160760, Note_on_c, 8, 45, 0
1, 160790, Note_on_c, 11, 45, 0
1, 160790, Note_on_c, 11, 45, 90
1, 160800, Note_on_c, 9, 59, 90
1, 160800, Note_on_c, 9, 44, 90
1, 160800, Note_on_c, 11, 51, 0
1, 160800, Note_on_c, 11, 51, 90
1, 160800, Note_on_c, 12, 78, 88
1, 160810, Note_on_c, 9, 59, 0
1, 160810, Note_on_c, 9, 44, 0
1, 160810, Note_on_c, 11, 57, 0
1, 160820, Note_on_c, 11, 61, 0
1, 160820, Note_on_c, 11, 57, 90
1, 160830, Note_on_c, 11, 68, 0
1, 160850, Note_on_c, 11, 61, 90
1, 160890, Note_on_c, 11, 68, 90
1, 160920, Note_on_c, 12, 80, 60
1, 160940, Note_on_c, 12, 78, 0
1, 161040, Note_on_c, 9, 38, 80
1, 161040, Note_on_c, 9, 36, 60
1, 161040, Note_on_c, 12, 73, 70
1, 161050, Note_on_c, 9, 38, 0
1, 161050, Note_on_c, 9, 36, 0
1, 161050, Note_on_c, 12, 80, 0
1, 161080, Note_on_c, 8, 40, 90
1, 161160, Note_on_c, 12, 78, 80
1, 161170, Note_on_c, 12, 73, 0
1, 161280, Note_on_c, 9, 53, 90
1, 161280, Note_on_c, 9, 36, 80
1, 161280, Note_on_c, 8, 40, 0
1, 161290, Note_on_c, 9, 53, 0
1, 161290, Note_on_c, 9, 36, 0
1, 161320, Note_on_c, 8, 45, 100
1, 161440, Note_on_c, 9, 38, 60
1, 161450, Note_on_c, 9, 38, 0
1, 161540, Note_on_c, 8, 45, 0
1, 161560, Note_on_c, 8, 45, 80
1, 161600, Note_on_c, 9, 53, 60
1, 161610, Note_on_c, 9, 53, 0
1, 161760, Note_on_c, 9, 44, 90
1, 161760, Note_on_c, 9, 38, 50
1, 161760, Note_on_c, 8, 45, 0
1, 161760, Note_on_c, 11, 51, 0
1, 161760, Note_on_c, 12, 78, 0
1, 161760, Note_on_c, 12, 76, 70
1, 161770, Note_on_c, 9, 44, 0
1, 161770, Note_on_c, 9, 38, 0
1, 161780, Note_on_c, 11, 57, 0
1, 161800, Note_on_c, 8, 40, 90
1, 161810, Note_on_c, 11, 61, 0
1, 161850, Note_on_c, 11, 68, 0
1, 161920, Note_on_c, 9, 53, 70
1, 161930, Note_on_c, 9, 53, 0
1, 162000, Note_on_c, 8, 40, 0
1, 162040, Note_on_c, 8, 45, 80
1, 162080, Note_on_c, 9, 38, 80
1, 162090, Note_on_c, 9, 38, 0
1, 162240, Note_on_c, 9, 53, 100
1, 162240, Note_on_c, 9, 36, 70
1, 162240, Note_on_c, 8, 45, 0
1, 162250, Note_on_c, 9, 53, 0
1, 162250, Note_on_c, 9, 36, 0
1, 162250, Note_on_c, 11, 51, 80
1, 162270, Note_on_c, 11, 57, 80
1, 162280, Note_on_c, 8, 56, 90
1, 162290, Note_on_c, 11, 61, 80
1, 162310, Note_on_c, 11, 68, 80
1, 162400, Note_on_c, 9, 38, 100
1, 162410, Note_on_c, 9, 38, 0
1, 162480, Note_on_c, 12, 76, 0
1, 162480, Note_on_c, 12, 73, 60
1, 162560, Note_on_c, 9, 59, 90
1, 162570, Note_on_c, 9, 59, 0
1, 162720, Note_on_c, 9, 44, 100
1, 162720, Note_on_c, 9, 38, 110
1, 162730, Note_on_c, 9, 44, 0
1, 162730, Note_on_c, 9, 38, 0
1, 162880, Note_on_c, 9, 59, 100
1, 162880, Note_on_c, 8, 56, 0
1, 162890, Note_on_c, 9, 59, 0
1, 163000, Note_on_c, 8, 40, 90
1, 163040, Note_on_c, 9, 38, 40
1, 163040, Note_on_c, 9, 36, 60
1, 163050, Note_on_c, 9, 38, 0
1, 163050, Note_on_c, 9, 36, 0
1, 163150, Note_on_c, 11, 51, 0
1, 163170, Note_on_c, 11, 57, 0
1, 163180, Note_on_c, 12, 73, 0
1, 163190, Note_on_c, 11, 61, 0
1, 163200, Control_c, 9, 11, 120
1, 163200, Note_on_c, 9, 49, 100
1, 163200, Note_on_c, 9, 36, 80
1, 163200, Note_on_c, 8, 40, 0
1, 163200, Control_c, 12, 6, 60
1, 163200, Note_on_c, 12, 84, 105
1, 163210, Note_on_c, 9, 49, 0
1, 163210, Note_on_c, 9, 36, 0
1, 163240, Note_on_c, 8, 53, 95
1, 163320, Note_on_c, 12, 81, 95
1, 163330, Note_on_c, 12, 84, 0
1, 163440, Control_c, 12, 6, 55
1, 163440, Note_on_c, 12, 77, 90
1, 163450, Note_on_c, 12, 81, 0
1, 163560, Note_on_c, 12, 74, 70
1, 163570, Note_on_c, 8, 53, 0
1, 163570, Note_on_c, 12, 77, 0
1, 163600, Note_on_c, 8, 48, 50
1, 163680, Note_on_c, 9, 36, 70
1, 163680, Control_c, 12, 6, 50
1, 163680, Note_on_c, 12, 62, 80
1, 163690, Note_on_c, 9, 36, 0
1, 163690, Note_on_c, 12, 74, 0
1, 163720, Note_on_c, 8, 48, 0
1, 163720, Note_on_c, 8, 41, 90
1, 163830, Note_on_c, 11, 45, 0
1, 163910, Note_on_c, 11, 76, 100
1, 163910, Note_on_c, 11, 72, 100
1, 163910, Note_on_c, 11, 69, 100
1, 163910, Note_on_c, 11, 65, 100
1, 163920, Control_c, 12, 6, 45
1, 163920, Note_on_c, 12, 69, 90
1, 163930, Note_on_c, 12, 62, 0
1, 164040, Note_on_c, 12, 65, 70
1, 164050, Note_on_c, 12, 69, 0
1, 164150, Note_on_c, 8, 41, 0
1, 164160, Note_on_c, 9, 38, 80
1, 164160, Control_c, 12, 6, 40
1, 164160, Note_on_c, 12, 62, 90
1, 164170, Note_on_c, 9, 38, 0
1, 164170, Note_on_c, 12, 65, 0
1, 164200, Note_on_c, 8, 36, 80
1, 164280, Note_on_c, 12, 60, 80
1, 164290, Note_on_c, 12, 62, 0
1, 164400, Note_on_c, 12, 57, 80
1, 164410, Note_on_c, 12, 60, 0
1, 164420, Note_on_c, 8, 36, 0
1, 164440, Note_on_c, 8, 38, 70
1, 164520, Control_c, 12, 6, 45
1, 164520, Note_on_c, 12, 53, 70
1, 164530, Note_on_c, 12, 57, 0
1, 164610, Note_on_c, 11, 76, 0
1, 164610, Note_on_c, 11, 72, 0
1, 164610, Note_on_c, 11, 69, 0
1, 164610, Note_on_c, 11, 65, 0
1, 164630, Note_on_c, 11, 76, 90
1, 164630, Note_on_c, 11, 72, 90
1, 164630, Note_on_c, 11, 69, 90
1, 164630, Note_on_c, 11, 65, 90
1, 164640, Note_on_c, 9, 44, 90
1, 164640, Note_on_c, 12, 60, 94
1, 164650, Note_on_c, 9, 44, 0
1, 164650, Note_on_c, 12, 53, 0
1, 164760, Control_c, 12, 6, 50
1, 164760, Note_on_c, 12, 57, 75
1, 164770, Note_on_c, 12, 60, 0
1, 164870, Note_on_c, 8, 38, 0
1, 164880, Note_on_c, 9, 38, 60
1, 164880, Note_on_c, 9, 36, 60
1, 164880, Note_on_c, 12, 50, 90
1, 164890, Note_on_c, 9, 38, 0
1, 164890, Note_on_c, 9, 36, 0
1, 164890, Note_on_c, 12, 57, 0
1, 164920, Note_on_c, 8, 40, 75
1, 165000, Control_c, 12, 6, 43
1, 165000, Note_on_c, 12, 53, 80
1, 165010, Note_on_c, 12, 50, 0
1, 165120, Control_c, 12, 6, 40
1, 165120, Note_on_c, 12, 62, 90
1, 165130, Note_on_c, 12, 53, 0
1, 165240, Control_c, 12, 6, 42
1, 165240, Note_on_c, 12, 65, 60
1, 165250, Note_on_c, 12, 62, 0
1, 165280, Note_on_c, 8, 40, 0
1, 165280, Note_on_c, 8, 41, 90
1, 165350, Note_on_c, 11, 76, 0
1, 165350, Note_on_c, 11, 72, 0
1, 165350, Note_on_c, 11, 69, 0
1, 165350, Note_on_c, 11, 65, 0
1, 165360, Note_on_c, 9, 44, 100
1, 165360, Control_c, 12, 6, 44
1, 165360, Note_on_c, 12, 69, 70
1, 165370, Note_on_c, 9, 44, 0
1, 165370, Note_on_c, 12, 65, 0
1, 165400, Note_on_c, 8, 41, 0
1, 165400, Note_on_c, 8, 36, 90
1, 165480, Control_c, 12, 6, 45
1, 165480, Note_on_c, 12, 74, 60
1, 165490, Note_on_c, 12, 69, 0
1, 165560, Control_c, 12, 6, 46
1, 165560, Note_on_c, 12, 77, 70
1, 165570, Note_on_c, 12, 74, 0
1, 165600, Note_on_c, 9, 38, 50
1, 165600, Note_on_c, 9, 36, 70
1, 165610, Note_on_c, 9, 38, 0
1, 165610, Note_on_c, 9, 36, 0
1, 165620, Note_on_c, 8, 36, 0
1, 165640, Note_on_c, 8, 29, 90
1, 165640, Note_on_c, 12, 81, 80
1, 165650, Note_on_c, 12, 77, 0
1, 165720, Control_c, 12, 6, 47
1, 165720, Note_on_c, 12, 86, 50
1, 165730, Note_on_c, 12, 81, 0
1, 165740, Note_on_c, 8, 29, 0
1, 165750, Note_on_c, 11, 68, 0
1, 165830, Note_on_c, 11, 67, 100
1, 165830, Note_on_c, 11, 64, 100
1, 165830, Note_on_c, 11, 60, 100
1, 165830, Note_on_c, 11, 57, 100
1, 165840, Note_on_c, 9, 38, 55
1, 165840, Control_c, 12, 6, 48
1, 165840, Note_on_c, 12, 81, 80
1, 165850, Note_on_c, 9, 38, 0
1, 165850, Note_on_c, 12, 86, 0
1, 165960, Control_c, 12, 6, 50
1, 165960, Note_on_c, 12, 77, 50
1, 165970, Note_on_c, 12, 81, 0
1, 166080, Note_on_c, 12, 74, 80
1, 166090, Note_on_c, 12, 77, 0
1, 166120, Note_on_c, 8, 29, 80
1, 166200, Note_on_c, 12, 69, 50
1, 166210, Note_on_c, 12, 74, 0
1, 166260, Note_on_c, 11, 67, 0
1, 166260, Note_on_c, 11, 64, 0
1, 166260, Note_on_c, 11, 60, 0
1, 166260, Note_on_c, 11, 57, 0
1, 166310, Note_on_c, 11, 67, 60
1, 166310, Note_on_c, 11, 64, 60
1, 166310, Note_on_c, 11, 60, 60
1, 166310, Note_on_c, 11, 57, 60
1, 166320, Note_on_c, 9, 38, 85
1, 166320, Note_on_c, 12, 65, 60
1, 166330, Note_on_c, 9, 38, 0
1, 166330, Note_on_c, 12, 69, 0
1, 166340, Note_on_c, 8, 29, 0
1, 166360, Note_on_c, 8, 33, 75
1, 166440, Note_on_c, 12, 59, 50
1, 166450, Note_on_c, 12, 65, 0
1, 166530, Note_on_c, 11, 67, 0
1, 166530, Note_on_c, 11, 64, 0
1, 166530, Note_on_c, 11, 60, 0
1, 166530, Note_on_c, 11, 57, 0
1, 166550, Note_on_c, 11, 67, 90
1, 166550, Note_on_c, 11, 64, 90
1, 166550, Note_on_c, 11, 60, 90
1, 166550, Note_on_c, 11, 57, 90
1, 166560, Note_on_c, 9, 44, 90
1, 166560, Control_c, 12, 6, 60
1, 166560, Note_on_c, 12, 62, 90
1, 166570, Note_on_c, 9, 44, 0
1, 166570, Note_on_c, 12, 59, 0
1, 166580, Note_on_c, 8, 33, 0
1, 166600, Note_on_c, 8, 35, 75
1, 166680, Note_on_c, 12, 69, 80
1, 166690, Note_on_c, 12, 62, 0
1, 166800, Note_on_c, 9, 36, 70
1, 166800, Note_on_c, 12, 65, 90
1, 166810, Note_on_c, 9, 36, 0
1, 166810, Note_on_c, 12, 69, 0
1, 166820, Note_on_c, 8, 35, 0
1, 166840, Note_on_c, 8, 36, 75
1, 166920, Note_on_c, 12, 62, 80
1, 166930, Note_on_c, 12, 65, 0
1, 167040, Note_on_c, 9, 59, 80
1, 167040, Note_on_c, 9, 36, 80
1, 167040, Note_on_c, 12, 59, 104
1, 167050, Note_on_c, 9, 59, 0
1, 167050, Note_on_c, 9, 36, 0
1, 167050, Note_on_c, 12, 62, 0
1, 167060, Note_on_c, 8, 36, 0
1, 167080, Note_on_c, 8, 41, 100
1, 167240, Note_on_c, 12, 59, 0
1, 167270, Note_on_c, 11, 67, 0
1, 167270, Note_on_c, 11, 64, 0
1, 167270, Note_on_c, 11, 57, 0
1, 167410, Note_on_c, 8, 41, 0
1, 167440, Note_on_c, 8, 41, 70
1, 167520, Note_on_c, 9, 59, 80
1, 167520, Note_on_c, 9, 36, 70
1, 167530, Note_on_c, 9, 59, 0
1, 167530, Note_on_c, 9, 36, 0
1, 167550, Note_on_c, 8, 41, 0
1, 167560, Note_on_c, 8, 36, 95
1, 168000, Note_on_c, 9, 38, 90
1, 168000, Control_c, 12, 6, 50
1, 168000, Note_on_c, 12, 59, 101
1, 168010, Note_on_c, 9, 38, 0
1, 168120, Note_on_c, 12, 60, 90
1, 168130, Note_on_c, 12, 59, 0
1, 168160, Note_on_c, 8, 36, 0
1, 168230, Note_on_c, 11, 76, 90
1, 168230, Note_on_c, 11, 72, 90
1, 168230, Note_on_c, 11, 69, 90
1, 168230, Note_on_c, 11, 65, 90
1, 168240, Note_on_c, 12, 60, 0
1, 168240, Note_on_c, 12, 62, 90
1, 168280, Note_on_c, 8, 41, 70
1, 168360, Note_on_c, 12, 62, 0
1, 168360, Note_on_c, 12, 64, 80
1, 168480, Note_on_c, 9, 44, 90
1, 168480, Note_on_c, 12, 64, 0
1, 168480, Note_on_c, 12, 65, 90
1, 168490, Note_on_c, 9, 44, 0
1, 168600, Note_on_c, 12, 65, 0
1, 168600, Note_on_c, 12, 67, 80
1, 168710, Note_on_c, 8, 41, 0
1, 168720, Note_on_c, 9, 38, 50
1, 168720, Note_on_c, 9, 36, 60
1, 168720, Note_on_c, 12, 67, 0
1, 168720, Note_on_c, 12, 69, 90
1, 168730, Note_on_c, 9, 38, 0
1, 168730, Note_on_c, 9, 36, 0
1, 168760, Note_on_c, 8, 36, 60
1, 168830, Note_on_c, 11, 76, 0
1, 168830, Note_on_c, 11, 72, 0
1, 168830, Note_on_c, 11, 69, 0
1, 168830, Note_on_c, 11, 65, 0
1, 168840, Note_on_c, 12, 69, 0
1, 168840, Note_on_c, 12, 71, 80
1, 168950, Note_on_c, 11, 67, 90
1, 168950, Note_on_c, 11, 64, 90
1, 168950, Note_on_c, 11, 57, 90
1, 168950, Note_on_c, 11, 53, 90
1, 168950, Note_on_c, 11, 48, 90
1, 168960, Note_on_c, 9, 59, 80
1, 168960, Note_on_c, 9, 38, 60
1, 168960, Note_on_c, 12, 71, 0
1, 168960, Note_on_c, 12, 72, 100
1, 168970, Note_on_c, 9, 59, 0
1, 168970, Note_on_c, 9, 38, 0
1, 169010, Note_on_c, 8, 36, 0
1, 169080, Note_on_c, 12, 74, 90
1, 169090, Note_on_c, 12, 72, 0
1, 169120, Note_on_c, 8, 48, 95
1, 169200, Note_on_c, 9, 44, 100
1, 169200, Control_c, 12, 6, 40
1, 169200, Note_on_c, 12, 76, 100
1, 169210, Note_on_c, 9, 44, 0
1, 169210, Note_on_c, 12, 74, 0
1, 169320, Control_c, 12, 6, 30
1, 169320, Note_on_c, 12, 77, 85
1, 169330, Note_on_c, 12, 76, 0
1, 169440, Note_on_c, 9, 36, 60
1, 169450, Note_on_c, 9, 36, 0
1, 169450, Note_on_c, 12, 77, 0
1, 169550, Note_on_c, 8, 48, 0
1, 169590, Note_on_c, 11, 60, 0
1, 169600, Note_on_c, 8, 48, 90
1, 169680, Note_on_c, 9, 38, 80
1, 169690, Note_on_c, 9, 38, 0
1, 169760, Note_on_c, 8, 48, 0
1, 169920, Note_on_c, 9, 59, 80
1, 169920, Note_on_c, 9, 45, 70
1, 169920, Note_on_c, 9, 36, 70
1, 169930, Note_on_c, 9, 59, 0
1, 169930, Note_on_c, 9, 45, 0
1, 169930, Note_on_c, 9, 36, 0
1, 169960, Note_on_c, 8, 36, 100
1, 170040, Note_on_c, 9, 43, 50
1, 170050, Note_on_c, 9, 43, 0
1, 170160, Note_on_c, 9, 45, 60
1, 170170, Note_on_c, 9, 45, 0
1, 170180, Note_on_c, 8, 36, 0
1, 170200, Note_on_c, 8, 36, 80
1, 170280, Note_on_c, 9, 43, 50
1, 170280, Pitch_bend_c, 12, 6192
1, 170280, Control_c, 12, 6, 40
1, 170280, Note_on_c, 12, 81, 80
1, 170290, Note_on_c, 9, 43, 0
1, 170340, Pitch_bend_c, 12, 6492
1, 170400, Note_on_c, 9, 59, 80
1, 170400, Note_on_c, 9, 45, 60
1, 170400, Pitch_bend_c, 12, 6992
1, 170410, Note_on_c, 9, 59, 0
1, 170410, Note_on_c, 9, 45, 0
1, 170420, Note_on_c, 8, 36, 0
1, 170440, Note_on_c, 8, 38, 72
1, 170460, Pitch_bend_c, 12, 7592
1, 170520, Note_on_c, 9, 43, 50
1, 170520, Pitch_bend_c, 12, 8192
1, 170530, Note_on_c, 9, 43, 0
1, 170540, Note_on_c, 12, 81, 0
1, 170640, Note_on_c, 9, 45, 50
1, 170640, Pitch_bend_c, 12, 6192
1, 170640, Control_c, 12, 6, 38
1, 170640, Note_on_c, 12, 81, 70
1, 170650, Note_on_c, 9, 45, 0
1, 170660, Note_on_c, 8, 38, 0
1, 170680, Note_on_c, 8, 40, 75
1, 170700, Pitch_bend_c, 12, 6592
1, 170750, Note_on_c, 11, 67, 0
1, 170750, Note_on_c, 11, 64, 0
1, 170750, Note_on_c, 11, 57, 0
1, 170750, Note_on_c, 11, 53, 0
1, 170750, Note_on_c, 11, 48, 0
1, 170760, Note_on_c, 9, 43, 40
1, 170760, Pitch_bend_c, 12, 7192
1, 170770, Note_on_c, 9, 43, 0
1, 170820, Pitch_bend_c, 12, 7792
1, 170870, Pitch_bend_c, 12, 8192
1, 170880, Note_on_c, 9, 49, 70
1, 170880, Note_on_c, 9, 36, 80
1, 170880, Note_on_c, 12, 81, 0
1, 170880, Pitch_bend_c, 12, 7292
1, 170880, Control_c, 12, 6, 44
1, 170880, Note_on_c, 12, 81, 80
1, 170890, Note_on_c, 9, 49, 0
1, 170890, Note_on_c, 9, 36, 0
1, 170900, Note_on_c, 8, 40, 0
1, 170920, Note_on_c, 8, 41, 100
1, 170980, Pitch_bend_c, 12, 7492
1, 171030, Note_on_c, 8, 41, 0
1, 171040, Note_on_c, 8, 36, 85
1, 171080, Pitch_bend_c, 12, 7692
1, 171180, Pitch_bend_c, 12, 7892
1, 171280, Pitch_bend_c, 12, 8092
1, 171360, Note_on_c, 9, 59, 80
1, 171360, Note_on_c, 9, 36, 70
1, 171370, Note_on_c, 9, 59, 0
1, 171370, Note_on_c, 9, 36, 0
1, 171370, Note_on_c, 8, 36, 0
1, 171380, Pitch_bend_c, 12, 8192
1, 171400, Note_on_c, 8, 29, 95
1, 171480, Pitch_bend_c, 12, 7992
1, 171580, Note_on_c, 12, 81, 0
1, 171580, Pitch_bend_c, 12, 7792
1, 171590, Note_on_c, 11, 76, 100
1, 171590, Note_on_c, 11, 72, 100
1, 171590, Note_on_c, 11, 69, 100
1, 171590, Note_on_c, 11, 65, 100
1, 171600, Pitch_bend_c, 12, 7292
1, 171600, Note_on_c, 12, 81, 80
1, 171700, Pitch_bend_c, 12, 7592
1, 171730, Note_on_c, 8, 29, 0
1, 171760, Note_on_c, 8, 29, 90
1, 171800, Pitch_bend_c, 12, 7892
1, 171840, Note_on_c, 9, 46, 80
1, 171840, Note_on_c, 9, 38, 60
1, 171850, Note_on_c, 9, 46, 0
1, 171850, Note_on_c, 9, 38, 0
1, 171870, Note_on_c, 8, 29, 0
1, 171880, Note_on_c, 8, 36, 80
1, 171900, Pitch_bend_c, 12, 8092
1, 171960, Note_on_c, 9, 38, 40
1, 171970, Note_on_c, 9, 38, 0
1, 172000, Pitch_bend_c, 12, 8192
1, 172020, Note_on_c, 11, 76, 0
1, 172020, Note_on_c, 11, 72, 0
1, 172020, Note_on_c, 11, 69, 0
1, 172020, Note_on_c, 11, 65, 0
1, 172070, Note_on_c, 11, 76, 95
1, 172070, Note_on_c, 11, 72, 95
1, 172070, Note_on_c, 11, 69, 80
1, 172070, Note_on_c, 11, 65, 80
1, 172100, Note_on_c, 8, 36, 0
1, 172100, Pitch_bend_c, 12, 7992
1, 172120, Note_on_c, 8, 38, 70
1, 172160, Note_on_c, 11, 76, 0
1, 172160, Note_on_c, 11, 72, 0
1, 172200, Pitch_bend_c, 12, 7792
1, 172270, Note_on_c, 11, 69, 0
1, 172270, Note_on_c, 11, 65, 0
1, 172310, Note_on_c, 11, 76, 95
1, 172310, Note_on_c, 11, 72, 90
1, 172310, Note_on_c, 11, 69, 90
1, 172310, Note_on_c, 11, 65, 95
1, 172320, Note_on_c, 9, 44, 90
1, 172320, Note_on_c, 9, 38, 80
1, 172320, Pitch_bend_c, 12, 8192
1, 172320, Note_on_c, 12, 72, 110
1, 172330, Note_on_c, 9, 44, 0
1, 172330, Note_on_c, 9, 38, 0
1, 172330, Note_on_c, 12, 81, 0
1, 172550, Note_on_c, 8, 38, 0
1, 172560, Note_on_c, 9, 36, 60
1, 172570, Note_on_c, 9, 36, 0
1, 172600, Note_on_c, 8, 40, 75
1, 172600, Note_on_c, 12, 72, 0
1, 172800, Note_on_c, 9, 59, 80
1, 172800, Control_c, 12, 6, 50
1, 172810, Note_on_c, 9, 59, 0
1, 173030, Note_on_c, 11, 76, 0
1, 173030, Note_on_c, 11, 72, 0
1, 173030, Note_on_c, 11, 69, 0
1, 173030, Note_on_c, 11, 65, 0
1, 173040, Note_on_c, 9, 38, 90
1, 173050, Note_on_c, 9, 38, 0
1, 173060, Note_on_c, 8, 40, 0
1, 173080, Note_on_c, 8, 41, 90
1, 173280, Note_on_c, 9, 59, 80
1, 173280, Note_on_c, 9, 36, 70
1, 173290, Note_on_c, 9, 59, 0
1, 173290, Note_on_c, 9, 36, 0
1, 173300, Note_on_c, 8, 41, 0
1, 173320, Note_on_c, 8, 29, 100
1, 173510, Note_on_c, 11, 67, 90
1, 173510, Note_on_c, 11, 64, 90
1, 173510, Note_on_c, 11, 60, 90
1, 173510, Note_on_c, 11, 57, 90
1, 173510, Note_on_c, 11, 53, 90
1, 173750, Note_on_c, 8, 29, 0
1, 173760, Note_on_c, 9, 59, 80
1, 173760, Note_on_c, 9, 46, 70
1, 173760, Note_on_c, 12, 71, 105
1, 173770, Note_on_c, 9, 59, 0
1, 173770, Note_on_c, 9, 46, 0
1, 173800, Note_on_c, 8, 36, 80
1, 173860, Note_on_c, 12, 71, 0
1, 173880, Note_on_c, 12, 72, 80
1, 173940, Note_on_c, 11, 67, 0
1, 173940, Note_on_c, 11, 64, 0
1, 173940, Note_on_c, 11, 60, 0
1, 173940, Note_on_c, 11, 57, 0
1, 173940, Note_on_c, 11, 53, 0
1, 173980, Note_on_c, 12, 72, 0
1, 173990, Note_on_c, 11, 67, 60
1, 173990, Note_on_c, 11, 64, 60
1, 173990, Note_on_c, 11, 60, 60
1, 173990, Note_on_c, 11, 57, 60
1, 173990, Note_on_c, 11, 48, 60
1, 174000, Note_on_c, 9, 38, 85
1, 174000, Note_on_c, 12, 74, 90
1, 174010, Note_on_c, 9, 38, 0
1, 174040, Note_on_c, 8, 38, 70
1, 174050, Note_on_c, 8, 36, 0
1, 174100, Note_on_c, 12, 74, 0
1, 174120, Note_on_c, 12, 71, 70
1, 174190, Note_on_c, 11, 67, 0
1, 174190, Note_on_c, 11, 64, 0
1, 174190, Note_on_c, 11, 60, 0
1, 174190, Note_on_c, 11, 57, 0
1, 174190, Note_on_c, 11, 48, 0
1, 174220, Note_on_c, 12, 71, 0
1, 174230, Note_on_c, 11, 67, 80
1, 174230, Note_on_c, 11, 64, 80
1, 174230, Note_on_c, 11, 60, 80
1, 174230, Note_on_c, 11, 57, 80
1, 174230, Note_on_c, 11, 48, 80
1, 174240, Note_on_c, 9, 59, 80
1, 174240, Note_on_c, 9, 44, 90
1, 174240, Note_on_c, 12, 72, 100
1, 174250, Note_on_c, 9, 59, 0
1, 174250, Note_on_c, 9, 44, 0
1, 174280, Note_on_c, 8, 40, 80
1, 174290, Note_on_c, 8, 38, 0
1, 174340, Note_on_c, 12, 72, 0
1, 174360, Note_on_c, 12, 74, 70
1, 174460, Note_on_c, 12, 74, 0
1, 174480, Note_on_c, 9, 36, 70
1, 174480, Note_on_c, 12, 71, 90
1, 174490, Note_on_c, 9, 36, 0
1, 174580, Note_on_c, 12, 71, 0
1, 174600, Note_on_c, 12, 72, 80
1, 174610, Note_on_c, 8, 40, 0
1, 174640, Note_on_c, 8, 40, 90
1, 174700, Note_on_c, 12, 72, 0
1, 174720, Note_on_c, 9, 46, 70
1, 174720, Note_on_c, 9, 38, 60
1, 174720, Note_on_c, 9, 36, 80
1, 174720, Note_on_c, 12, 74, 80
1, 174730, Note_on_c, 9, 46, 0
1, 174730, Note_on_c, 9, 38, 0
1, 174730, Note_on_c, 9, 36, 0
1, 174750, Note_on_c, 8, 40, 0
1, 174760, Note_on_c, 8, 29, 100
1, 174820, Note_on_c, 12, 74, 0
1, 174840, Note_on_c, 12, 72, 100
1, 174940, Note_on_c, 12, 72, 0
1, 174950, Note_on_c, 11, 67, 0
1, 174950, Note_on_c, 11, 64, 0
1, 174950, Note_on_c, 11, 60, 0
1, 174950, Note_on_c, 11, 57, 0
1, 174950, Note_on_c, 11, 48, 0
1, 174960, Note_on_c, 12, 69, 80
1, 175060, Note_on_c, 12, 69, 0
1, 175080, Note_on_c, 12, 65, 70
1, 175180, Note_on_c, 12, 65, 0
1, 175190, Note_on_c, 8, 29, 0
1, 175200, Note_on_c, 9, 44, 80
1, 175200, Note_on_c, 9, 38, 60
1, 175200, Note_on_c, 9, 36, 70
1, 175200, Note_on_c, 12, 62, 90
1, 175210, Note_on_c, 9, 44, 0
1, 175210, Note_on_c, 9, 38, 0
1, 175210, Note_on_c, 9, 36, 0
1, 175240, Note_on_c, 8, 33, 95
1, 175300, Note_on_c, 12, 62, 0
1, 175320, Note_on_c, 12, 72, 70
1, 175420, Note_on_c, 12, 72, 0
1, 175430, Note_on_c, 11, 67, 95
1, 175430, Note_on_c, 11, 64, 95
1, 175430, Note_on_c, 11, 57, 95
1, 175430, Note_on_c, 11, 53, 95
1, 175440, Note_on_c, 12, 69, 80
1, 175540, Note_on_c, 12, 69, 0
1, 175560, Note_on_c, 12, 65, 70
1, 175600, Note_on_c, 8, 33, 0
1, 175600, Note_on_c, 8, 34, 70
1, 175660, Note_on_c, 12, 65, 0
1, 175680, Note_on_c, 9, 46, 70
1, 175680, Note_on_c, 9, 38, 80
1, 175680, Note_on_c, 12, 62, 90
1, 175690, Note_on_c, 9, 46, 0
1, 175690, Note_on_c, 9, 38, 0
1, 175780, Note_on_c, 12, 62, 0
1, 175800, Note_on_c, 12, 60, 100
1, 175860, Note_on_c, 11, 67, 0
1, 175860, Note_on_c, 11, 64, 0
1, 175860, Note_on_c, 11, 57, 0
1, 175860, Note_on_c, 11, 53, 0
1, 175900, Note_on_c, 12, 60, 0
1, 175910, Note_on_c, 11, 67, 70
1, 175910, Note_on_c, 11, 64, 70
1, 175910, Note_on_c, 11, 57, 70
1, 175910, Note_on_c, 11, 53, 70
1, 175920, Note_on_c, 12, 57, 110
1, 175960, Note_on_c, 8, 34, 0
1, 175960, Note_on_c, 8, 35, 80
1, 176020, Note_on_c, 12, 57, 0
1, 176040, Note_on_c, 12, 62, 118
1, 176110, Note_on_c, 11, 67, 0
1, 176110, Note_on_c, 11, 64, 0
1, 176110, Note_on_c, 11, 57, 0
1, 176110, Note_on_c, 11, 53, 0
1, 176150, Note_on_c, 11, 67, 85
1, 176150, Note_on_c, 11, 64, 85
1, 176150, Note_on_c, 11, 57, 85
1, 176150, Note_on_c, 11, 53, 85
1, 176160, Note_on_c, 9, 44, 90
1, 176160, Note_on_c, 9, 38, 60
1, 176170, Note_on_c, 9, 44, 0
1, 176170, Note_on_c, 9, 38, 0
1, 176390, Note_on_c, 8, 35, 0
1, 176400, Note_on_c, 9, 49, 80
1, 176400, Note_on_c, 9, 36, 60
1, 176400, Note_on_c, 12, 62, 0
1, 176400, Note_on_c, 12, 69, 99
1, 176410, Note_on_c, 9, 49, 0
1, 176410, Note_on_c, 9, 36, 0
1, 176440, Note_on_c, 8, 36, 80
1, 176640, Note_on_c, 9, 44, 90
1, 176640, Note_on_c, 12, 64, 110
1, 176650, Note_on_c, 9, 44, 0
1, 176650, Note_on_c, 12, 69, 0
1, 176870, Note_on_c, 11, 67, 0
1, 176870, Note_on_c, 11, 64, 0
1, 176870, Note_on_c, 11, 57, 0
1, 176870, Note_on_c, 11, 53, 0
1, 176880, Note_on_c, 9, 38, 100
1, 176890, Note_on_c, 9, 38, 0
1, 176900, Note_on_c, 8, 36, 0
1, 176920, Note_on_c, 8, 37, 90
1, 177000, Note_on_c, 12, 64, 0
1, 177000, Note_on_c, 12, 71, 80
1, 177120, Note_on_c, 9, 36, 80
1, 177120, Note_on_c, 12, 66, 102
1, 177130, Note_on_c, 9, 36, 0
1, 177200, Note_on_c, 12, 71, 0
1, 177280, Note_on_c, 9, 48, 90
1, 177290, Note_on_c, 9, 48, 0
1, 177350, Note_on_c, 8, 37, 0
1, 177350, Note_on_c, 11, 67, 80
1, 177350, Note_on_c, 11, 64, 80
1, 177350, Note_on_c, 11, 60, 80
1, 177350, Note_on_c, 11, 57, 80
1, 177350, Note_on_c, 11, 48, 80
1, 177360, Note_on_c, 12, 73, 90
1, 177370, Note_on_c, 12, 66, 0
1, 177400, Note_on_c, 8, 38, 90
1, 177440, Note_on_c, 9, 48, 80
1, 177450, Note_on_c, 9, 48, 0
1, 177600, Note_on_c, 9, 38, 80
1, 177600, Note_on_c, 9, 36, 80
1, 177600, Control_c, 12, 6, 52
1, 177600, Note_on_c, 12, 67, 105
1, 177610, Note_on_c, 9, 38, 0
1, 177610, Note_on_c, 9, 36, 0
1, 177610, Note_on_c, 12, 73, 0
1, 177760, Note_on_c, 9, 45, 100
1, 177770, Note_on_c, 9, 45, 0
1, 177780, Note_on_c, 11, 67, 0
1, 177780, Note_on_c, 11, 64, 0
1, 177780, Note_on_c, 11, 60, 0
1, 177780, Note_on_c, 11, 57, 0
1, 177780, Note_on_c, 11, 48, 0
1, 177830, Note_on_c, 8, 38, 0
1, 177830, Note_on_c, 11, 67, 60
1, 177830, Note_on_c, 11, 64, 60
1, 177830, Note_on_c, 11, 60, 60
1, 177830, Note_on_c, 11, 57, 60
1, 177830, Note_on_c, 11, 48, 60
1, 177840, Note_on_c, 12, 74, 80
1, 177850, Note_on_c, 12, 67, 0
1, 177880, Note_on_c, 8, 38, 80
1, 177920, Note_on_c, 9, 38, 90
1, 177930, Note_on_c, 9, 38, 0
1, 178030, Note_on_c, 11, 67, 0
1, 178030, Note_on_c, 11, 64, 0
1, 178030, Note_on_c, 11, 60, 0
1, 178030, Note_on_c, 11, 57, 0
1, 178030, Note_on_c, 11, 48, 0
1, 178070, Note_on_c, 11, 67, 90
1, 178070, Note_on_c, 11, 64, 90
1, 178070, Note_on_c, 11, 60, 90
1, 178070, Note_on_c, 11, 57, 90
1, 178070, Note_on_c, 11, 48, 90
1, 178080, Note_on_c, 9, 43, 100
1, 178080, Control_c, 12, 6, 55
1, 178080, Note_on_c, 12, 64, 99
1, 178090, Note_on_c, 9, 43, 0
1, 178090, Note_on_c, 12, 74, 0
1, 178100, Note_on_c, 8, 38, 0
1, 178120, Note_on_c, 8, 39, 60
1, 178240, Note_on_c, 9, 38, 70
1, 178250, Note_on_c, 9, 38, 0
1, 178320, Note_on_c, 12, 69, 90
1, 178330, Note_on_c, 12, 64, 0
1, 178340, Note_on_c, 8, 39, 0
1, 178360, Note_on_c, 8, 40, 90
1, 178400, Note_on_c, 9, 43, 90
1, 178410, Note_on_c, 9, 43, 0
1, 178500, Note_on_c, 11, 67, 0
1, 178500, Note_on_c, 11, 64, 0
1, 178500, Note_on_c, 11, 60, 0
1, 178500, Note_on_c, 11, 57, 0
1, 178500, Note_on_c, 11, 48, 0
1, 178520, Note_on_c, 12, 69, 0
1, 178550, Note_on_c, 11, 75, 100
1, 178550, Note_on_c, 11, 71, 100
1, 178550, Note_on_c, 11, 67, 100
1, 178550, Note_on_c, 11, 63, 100
1, 178550, Note_on_c, 11, 56, 100
1, 178560, Note_on_c, 9, 49, 100
1, 178560, Note_on_c, 9, 38, 70
1, 178560, Note_on_c, 9, 36, 90
1, 178560, Control_c, 12, 6, 60
1, 178560, Note_on_c, 12, 63, 120
1, 178570, Note_on_c, 9, 49, 0
1, 178570, Note_on_c, 9, 38, 0
1, 178570, Note_on_c, 9, 36, 0
1, 178580, Note_on_c, 8, 40, 0
1, 178600, Note_on_c, 8, 32, 100
1, 178680, Note_on_c, 12, 63, 0
1, 178680, Control_c, 12, 6, 64
1, 178680, Note_on_c, 12, 63, 110
1, 178800, Note_on_c, 12, 63, 0
1, 178800, Note_on_c, 12, 63, 100
1, 178920, Note_on_c, 12, 63, 0
1, 178920, Note_on_c, 12, 63, 80
1, 179040, Note_on_c, 9, 59, 90
1, 179040, Note_on_c, 12, 63, 0
1, 179040, Note_on_c, 12, 63, 90
1, 179050, Note_on_c, 9, 59, 0
1, 179160, Note_on_c, 12, 63, 0
1, 179160, Note_on_c, 12, 63, 99
1, 179280, Note_on_c, 9, 38, 100
1, 179280, Note_on_c, 12, 63, 0
1, 179280, Note_on_c, 12, 63, 102
1, 179290, Note_on_c, 9, 38, 0
1, 179400, Note_on_c, 12, 63, 0
1, 179400, Note_on_c, 12, 63, 96
1, 179450, Note_on_c, 11, 75, 0
1, 179450, Note_on_c, 11, 71, 0
1, 179450, Note_on_c, 11, 67, 0
1, 179450, Note_on_c, 11, 63, 0
1, 179450, Note_on_c, 11, 56, 0
1, 179500, Note_on_c, 8, 32, 0
1, 179510, Note_on_c, 11, 67, 90
1, 179510, Note_on_c, 11, 63, 90
1, 179510, Note_on_c, 11, 56, 90
1, 179520, Note_on_c, 9, 59, 80
1, 179520, Note_on_c, 9, 36, 80
1, 179520, Note_on_c, 12, 63, 0
1, 179520, Note_on_c, 12, 63, 90
1, 179530, Note_on_c, 9, 59, 0
1, 179530, Note_on_c, 9, 36, 0
1, 179560, Note_on_c, 8, 39, 100
1, 179640, Note_on_c, 12, 63, 0
1, 179640, Note_on_c, 12, 63, 80
1, 179760, Note_on_c, 9, 44, 80
1, 179760, Note_on_c, 12, 63, 0
1, 179760, Note_on_c, 12, 63, 90
1, 179770, Note_on_c, 9, 44, 0
1, 179780, Note_on_c, 8, 39, 0
1, 179800, Note_on_c, 8, 42, 90
1, 179810, Note_on_c, 11, 67, 0
1, 179830, Note_on_c, 11, 67, 85
1, 179880, Note_on_c, 12, 63, 0
1, 179880, Note_on_c, 12, 63, 80
1, 180000, Note_on_c, 9, 36, 70
1, 180000, Note_on_c, 12, 63, 0
1, 180000, Note_on_c, 12, 63, 90
1, 180010, Note_on_c, 9, 36, 0
1, 180120, Note_on_c, 12, 63, 0
1, 180120, Note_on_c, 12, 63, 80
1, 180130, Note_on_c, 11, 67, 0
1, 180150, Note_on_c, 11, 71, 85
1, 180150, Note_on_c, 11, 67, 80
1, 180240, Note_on_c, 9, 38, 70
1, 180240, Note_on_c, 12, 63, 0
1, 180240, Note_on_c, 12, 61, 100
1, 180250, Note_on_c, 9, 38, 0
1, 180260, Note_on_c, 8, 42, 0
1, 180280, Note_on_c, 8, 43, 90
1, 180360, Note_on_c, 12, 61, 0
1, 180360, Note_on_c, 12, 61, 90
1, 180410, Note_on_c, 11, 63, 0
1, 180410, Note_on_c, 11, 56, 0
1, 180450, Note_on_c, 11, 71, 0
1, 180450, Note_on_c, 11, 67, 0
1, 180470, Note_on_c, 11, 67, 85
1, 180470, Note_on_c, 11, 63, 80
1, 180470, Note_on_c, 11, 56, 80
1, 180480, Note_on_c, 9, 59, 90
1, 180480, Note_on_c, 9, 44, 80
1, 180480, Note_on_c, 12, 61, 0
1, 180480, Note_on_c, 12, 61, 90
1, 180490, Note_on_c, 9, 59, 0
1, 180490, Note_on_c, 9, 44, 0
1, 180600, Note_on_c, 12, 61, 0
1, 180600, Note_on_c, 12, 61, 80
1, 180720, Note_on_c, 9, 36, 80
1, 180720, Note_on_c, 12, 61, 0
1, 180720, Note_on_c, 12, 61, 90
1, 180730, Note_on_c, 9, 36, 0
1, 180760, Note_on_c, 8, 44, 90
1, 180770, Note_on_c, 11, 67, 0
1, 180790, Note_on_c, 11, 67, 80
1, 180840, Note_on_c, 12, 61, 0
1, 180840, Note_on_c, 12, 62, 100
1, 180960, Note_on_c, 9, 59, 80
1, 180960, Note_on_c, 9, 38, 90
1, 180960, Note_on_c, 12, 62, 0
1, 180960, Note_on_c, 12, 62, 110
1, 180970, Note_on_c, 9, 59, 0
1, 180970, Note_on_c, 9, 38, 0
1, 181080, Note_on_c, 12, 62, 0
1, 181080, Control_c, 12, 6, 45
1, 181080, Note_on_c, 12, 63, 95
1, 181090, Note_on_c, 11, 67, 0
1, 181110, Note_on_c, 11, 71, 90
1, 181110, Note_on_c, 11, 67, 80
1, 181190, Note_on_c, 8, 44, 0
1, 181200, Note_on_c, 9, 59, 70
1, 181200, Note_on_c, 12, 63, 0
1, 181200, Control_c, 12, 6, 40
1, 181200, Note_on_c, 12, 62, 90
1, 181210, Note_on_c, 9, 59, 0
1, 181240, Note_on_c, 8, 35, 100
1, 181320, Note_on_c, 12, 62, 0
1, 181320, Control_c, 12, 6, 35
1, 181320, Note_on_c, 12, 61, 70
1, 181370, Note_on_c, 11, 63, 0
1, 181370, Note_on_c, 11, 56, 0
1, 181410, Note_on_c, 11, 71, 0
1, 181410, Note_on_c, 11, 67, 0
1, 181430, Note_on_c, 11, 67, 100
1, 181430, Note_on_c, 11, 63, 90
1, 181430, Note_on_c, 11, 56, 90
1, 181440, Note_on_c, 9, 59, 80
1, 181440, Note_on_c, 9, 44, 80
1, 181440, Note_on_c, 12, 61, 0
1, 181440, Control_c, 12, 6, 30
1, 181440, Note_on_c, 12, 63, 60
1, 181450, Note_on_c, 9, 59, 0
1, 181450, Note_on_c, 9, 44, 0
1, 181680, Note_on_c, 9, 38, 80
1, 181680, Control_c, 12, 6, 44
1, 181690, Note_on_c, 9, 38, 0
1, 181700, Note_on_c, 8, 35, 0
1, 181720, Note_on_c, 8, 37, 90
1, 181730, Note_on_c, 11, 67, 0
1, 181750, Note_on_c, 11, 71, 100
1, 181750, Note_on_c, 11, 67, 90
1, 181920, Note_on_c, 9, 59, 70
1, 181920, Control_c, 12, 6, 20
1, 181920, Note_on_c, 12, 61, 80
1, 181930, Note_on_c, 9, 59, 0
1, 181930, Note_on_c, 12, 63, 0
1, 182030, Note_on_c, 11, 63, 0
1, 182030, Note_on_c, 11, 56, 0
1, 182050, Note_on_c, 11, 71, 0
1, 182050, Note_on_c, 11, 67, 0
1, 182070, Note_on_c, 11, 67, 90
1, 182070, Note_on_c, 11, 63, 90
1, 182070, Note_on_c, 11, 56, 90
1, 182160, Note_on_c, 9, 59, 60
1, 182160, Control_c, 12, 6, 62
1, 182170, Note_on_c, 9, 59, 0
1, 182180, Note_on_c, 8, 37, 0
1, 182200, Note_on_c, 8, 38, 80
1, 182370, Note_on_c, 11, 67, 0
1, 182370, Note_on_c, 11, 63, 0
1, 182370, Note_on_c, 11, 56, 0
1, 182390, Note_on_c, 11, 75, 95
1, 182390, Note_on_c, 11, 71, 95
1, 182390, Note_on_c, 11, 67, 95
1, 182390, Note_on_c, 11, 63, 95
1, 182390, Note_on_c, 11, 56, 95
1, 182400, Note_on_c, 9, 59, 90
1, 182400, Note_on_c, 9, 38, 70
1, 182400, Note_on_c, 9, 36, 90
1, 182410, Note_on_c, 9, 59, 0
1, 182410, Note_on_c, 9, 38, 0
1, 182410, Note_on_c, 9, 36, 0
1, 182440, Note_on_c, 8, 38, 0
1, 182440, Note_on_c, 8, 38, 70
1, 182520, Note_on_c, 12, 61, 0
1, 182520, Note_on_c, 12, 61, 96
1, 182640, Note_on_c, 9, 59, 60
1, 182640, Note_on_c, 12, 61, 0
1, 182640, Note_on_c, 12, 61, 99
1, 182650, Note_on_c, 9, 59, 0
1, 182680, Note_on_c, 8, 39, 90
1, 182690, Note_on_c, 8, 38, 0
1, 182760, Note_on_c, 12, 61, 0
1, 182760, Note_on_c, 12, 61, 90
1, 182880, Note_on_c, 9, 59, 85
1, 182880, Note_on_c, 9, 44, 80
1, 182880, Note_on_c, 9, 38, 60
1, 182880, Note_on_c, 12, 61, 0
1, 182880, Note_on_c, 12, 61, 80
1, 182890, Note_on_c, 9, 59, 0
1, 182890, Note_on_c, 9, 44, 0
1, 182890, Note_on_c, 9, 38, 0
1, 182900, Note_on_c, 8, 39, 0
1, 182920, Note_on_c, 8, 32, 100
1, 183000, Note_on_c, 12, 61, 0
1, 183000, Note_on_c, 12, 61, 60
1, 183080, Note_on_c, 8, 43, 0
1, 183120, Note_on_c, 9, 59, 80
1, 183120, Note_on_c, 9, 36, 60
1, 183120, Note_on_c, 12, 61, 0
1, 183120, Note_on_c, 12, 61, 50
1, 183130, Note_on_c, 9, 59, 0
1, 183130, Note_on_c, 9, 36, 0
1, 183240, Note_on_c, 12, 61, 0
1, 183240, Note_on_c, 12, 61, 30
1, 183290, Note_on_c, 11, 75, 0
1, 183290, Note_on_c, 11, 71, 0
1, 183290, Note_on_c, 11, 67, 0
1, 183290, Note_on_c, 11, 63, 0
1, 183290, Note_on_c, 11, 56, 0
1, 183350, Note_on_c, 11, 75, 80
1, 183350, Note_on_c, 11, 71, 80
1, 183350, Note_on_c, 11, 67, 80
1, 183350, Note_on_c, 11, 63, 80
1, 183350, Note_on_c, 11, 56, 80
1, 183360, Note_on_c, 9, 59, 80
1, 183360, Note_on_c, 9, 44, 80
1, 183360, Note_on_c, 9, 38, 90
1, 183360, Note_on_c, 9, 36, 80
1, 183360, Note_on_c, 12, 61, 0
1, 183360, Note_on_c, 12, 62, 90
1, 183370, Note_on_c, 9, 59, 0
1, 183370, Note_on_c, 9, 44, 0
1, 183370, Note_on_c, 9, 38, 0
1, 183370, Note_on_c, 9, 36, 0
1, 183380, Note_on_c, 8, 32, 0
1, 183400, Note_on_c, 8, 32, 90
1, 183480, Note_on_c, 12, 62, 0
1, 183480, Note_on_c, 12, 62, 96
1, 183600, Note_on_c, 9, 59, 70
1, 183600, Note_on_c, 12, 62, 0
1, 183600, Note_on_c, 12, 62, 100
1, 183610, Note_on_c, 9, 59, 0
1, 183620, Note_on_c, 8, 32, 0
1, 183640, Note_on_c, 8, 32, 80
1, 183720, Note_on_c, 12, 62, 0
1, 183720, Note_on_c, 12, 62, 96
1, 183840, Note_on_c, 9, 59, 80
1, 183840, Note_on_c, 9, 44, 80
1, 183840, Note_on_c, 9, 38, 80
1, 183840, Note_on_c, 12, 62, 0
1, 183840, Note_on_c, 12, 62, 70
1, 183850, Note_on_c, 9, 59, 0
1, 183850, Note_on_c, 9, 44, 0
1, 183850, Note_on_c, 9, 38, 0
1, 183860, Note_on_c, 8, 32, 0
1, 183880, Note_on_c, 8, 37, 80
1, 183950, Note_on_c, 11, 75, 0
1, 183950, Note_on_c, 11, 71, 0
1, 183950, Note_on_c, 11, 67, 0
1, 183950, Note_on_c, 11, 63, 0
1, 183950, Note_on_c, 11, 56, 0
1, 183960, Note_on_c, 12, 62, 0
1, 183960, Note_on_c, 12, 62, 80
1, 184070, Note_on_c, 11, 75, 85
1, 184070, Note_on_c, 11, 71, 85
1, 184070, Note_on_c, 11, 67, 85
1, 184070, Note_on_c, 11, 63, 85
1, 184070, Note_on_c, 11, 56, 85
1, 184080, Note_on_c, 9, 59, 80
1, 184080, Note_on_c, 9, 36, 60
1, 184080, Note_on_c, 12, 62, 0
1, 184080, Note_on_c, 12, 62, 80
1, 184090, Note_on_c, 9, 59, 0
1, 184090, Note_on_c, 9, 36, 0
1, 184100, Note_on_c, 8, 37, 0
1, 184120, Note_on_c, 8, 39, 90
1, 184200, Note_on_c, 12, 62, 0
1, 184200, Note_on_c, 12, 62, 70
1, 184320, Note_on_c, 9, 59, 90
1, 184320, Note_on_c, 9, 36, 90
1, 184320, Note_on_c, 12, 62, 0
1, 184320, Note_on_c, 12, 62, 90
1, 184330, Note_on_c, 9, 59, 0
1, 184330, Note_on_c, 9, 36, 0
1, 184440, Note_on_c, 12, 62, 0
1, 184440, Note_on_c, 12, 62, 70
1, 184530, Note_on_c, 11, 75, 0
1, 184530, Note_on_c, 11, 71, 0
1, 184530, Note_on_c, 11, 67, 0
1, 184530, Note_on_c, 11, 63, 0
1, 184530, Note_on_c, 11, 56, 0
1, 184550, Note_on_c, 11, 71, 70
1, 184550, Note_on_c, 11, 67, 70
1, 184550, Note_on_c, 11, 63, 70
1, 184550, Note_on_c, 11, 56, 70
1, 184560, Note_on_c, 9, 59, 80
1, 184560, Note_on_c, 12, 62, 0
1, 184560, Note_on_c, 12, 62, 80
1, 184570, Note_on_c, 9, 59, 0
1, 184580, Note_on_c, 8, 39, 0
1, 184600, Note_on_c, 8, 42, 90
1, 184680, Note_on_c, 12, 62, 0
1, 184680, Note_on_c, 12, 62, 90
1, 184770, Note_on_c, 11, 71, 0
1, 184770, Note_on_c, 11, 67, 0
1, 184770, Note_on_c, 11, 63, 0
1, 184770, Note_on_c, 11, 56, 0
1, 184790, Note_on_c, 11, 75, 80
1, 184790, Note_on_c, 11, 71, 80
1, 184790, Note_on_c, 11, 67, 80
1, 184790, Note_on_c, 11, 63, 80
1, 184790, Note_on_c, 11, 56, 80
1, 184800, Note_on_c, 9, 59, 80
1, 184800, Note_on_c, 9, 36, 80
1, 184800, Note_on_c, 12, 62, 0
1, 184800, Note_on_c, 12, 62, 50
1, 184810, Note_on_c, 9, 59, 0
1, 184810, Note_on_c, 9, 36, 0
1, 184920, Note_on_c, 12, 62, 0
1, 184920, Note_on_c, 12, 62, 70
1, 185040, Note_on_c, 9, 59, 80
1, 185040, Note_on_c, 12, 62, 0
1, 185040, Note_on_c, 12, 62, 60
1, 185050, Note_on_c, 9, 59, 0
1, 185060, Note_on_c, 8, 42, 0
1, 185080, Note_on_c, 8, 44, 80
1, 185160, Note_on_c, 12, 62, 0
1, 185160, Note_on_c, 12, 62, 95
1, 185220, Note_on_c, 11, 75, 0
1, 185220, Note_on_c, 11, 71, 0
1, 185220, Note_on_c, 11, 67, 0
1, 185220, Note_on_c, 11, 63, 0
1, 185220, Note_on_c, 11, 56, 0
1, 185270, Note_on_c, 11, 75, 94
1, 185270, Note_on_c, 11, 71, 94
1, 185270, Note_on_c, 11, 67, 94
1, 185270, Note_on_c, 11, 63, 94
1, 185270, Note_on_c, 11, 56, 94
1, 185280, Note_on_c, 9, 59, 80
1, 185280, Note_on_c, 9, 53, 90
1, 185280, Note_on_c, 9, 38, 100
1, 185280, Note_on_c, 12, 62, 0
1, 185280, Note_on_c, 12, 62, 80
1, 185290, Note_on_c, 9, 59, 0
1, 185290, Note_on_c, 9, 53, 0
1, 185290, Note_on_c, 9, 38, 0
1, 185400, Note_on_c, 12, 62, 0
1, 185400, Note_on_c, 12, 62, 60
1, 185520, Note_on_c, 9, 59, 80
1, 185520, Note_on_c, 12, 62, 0
1, 185520, Note_on_c, 12, 62, 70
1, 185530, Note_on_c, 9, 59, 0
1, 185640, Note_on_c, 12, 62, 0
1, 185640, Note_on_c, 12, 62, 50
1, 185700, Note_on_c, 11, 75, 0
1, 185700, Note_on_c, 11, 71, 0
1, 185700, Note_on_c, 11, 67, 0
1, 185700, Note_on_c, 11, 63, 0
1, 185700, Note_on_c, 11, 56, 0
1, 185750, Note_on_c, 11, 71, 70
1, 185750, Note_on_c, 11, 67, 70
1, 185750, Note_on_c, 11, 63, 70
1, 185750, Note_on_c, 11, 56, 70
1, 185760, Note_on_c, 9, 59, 80
1, 185760, Note_on_c, 9, 44, 100
1, 185760, Note_on_c, 12, 62, 0
1, 185760, Note_on_c, 12, 62, 94
1, 185770, Note_on_c, 9, 59, 0
1, 185770, Note_on_c, 9, 44, 0
1, 185780, Note_on_c, 8, 44, 0
1, 185800, Note_on_c, 8, 39, 90
1, 185870, Note_on_c, 11, 71, 0
1, 185870, Note_on_c, 11, 67, 0
1, 185870, Note_on_c, 11, 63, 0
1, 185870, Note_on_c, 11, 56, 0
1, 185880, Note_on_c, 12, 62, 0
1, 185880, Note_on_c, 12, 62, 96
1, 186000, Note_on_c, 9, 59, 80
1, 186000, Note_on_c, 9, 36, 70
1, 186000, Note_on_c, 12, 62, 0
1, 186000, Note_on_c, 12, 62, 102
1, 186010, Note_on_c, 9, 59, 0
1, 186010, Note_on_c, 9, 36, 0
1, 186020, Note_on_c, 8, 39, 0
1, 186040, Note_on_c, 8, 39, 80
1, 186120, Note_on_c, 12, 62, 0
1, 186120, Note_on_c, 12, 62, 108
1, 186230, Note_on_c, 11, 68, 100
1, 186230, Note_on_c, 11, 63, 100
1, 186230, Note_on_c, 11, 61, 100
1, 186230, Note_on_c, 11, 57, 100
1, 186230, Note_on_c, 11, 52, 100
1, 186240, Note_on_c, 9, 59, 90
1, 186240, Note_on_c, 9, 53, 90
1, 186240, Note_on_c, 9, 36, 70
1, 186240, Note_on_c, 12, 62, 0
1, 186240, Control_c, 12, 6, 25
1, 186250, Note_on_c, 9, 59, 0
1, 186250, Note_on_c, 9, 53, 0
1, 186250, Note_on_c, 9, 36, 0
1, 186260, Note_on_c, 8, 39, 0
1, 186280, Note_on_c, 8, 45, 100
1, 186680, Note_on_c, 8, 45, 0
1, 186720, Note_on_c, 9, 59, 90
1, 186720, Note_on_c, 9, 36, 100
1, 186730, Note_on_c, 9, 59, 0
1, 186730, Note_on_c, 9, 36, 0
1, 186960, Note_on_c, 9, 59, 80
1, 186970, Note_on_c, 9, 59, 0
1, 187000, Note_on_c, 8, 39, 90
1, 187130, Note_on_c, 11, 68, 0
1, 187130, Note_on_c, 11, 63, 0
1, 187130, Note_on_c, 11, 61, 0
1, 187130, Note_on_c, 11, 57, 0
1, 187130, Note_on_c, 11, 52, 0
1, 187190, Note_on_c, 11, 68, 80
1, 187190, Note_on_c, 11, 63, 80
1, 187190, Note_on_c, 11, 61, 80
1, 187190, Note_on_c, 11, 57, 80
1, 187190, Note_on_c, 11, 52, 80
1, 187200, Note_on_c, 9, 59, 80
1, 187200, Note_on_c, 9, 38, 100
1, 187200, Note_on_c, 8, 39, 0
1, 187200, Note_on_c, 12, 61, 108
1, 187210, Note_on_c, 9, 59, 0
1, 187210, Note_on_c, 9, 38, 0
1, 187240, Note_on_c, 8, 45, 100
1, 187440, Note_on_c, 9, 59, 80
1, 187450, Note_on_c, 9, 59, 0
1, 187640, Note_on_c, 8, 45, 0
1, 187680, Note_on_c, 9, 59, 80
1, 187680, Note_on_c, 9, 44, 95
1, 187680, Control_c, 12, 6, 54
1, 187680, Note_on_c, 12, 63, 80
1, 187690, Note_on_c, 9, 59, 0
1, 187690, Note_on_c, 9, 44, 0
1, 187690, Note_on_c, 12, 61, 0
1, 187890, Note_on_c, 11, 68, 0
1, 187890, Note_on_c, 11, 63, 0
1, 187890, Note_on_c, 11, 61, 0
1, 187910, Note_on_c, 11, 68, 95
1, 187910, Note_on_c, 11, 63, 95
1, 187910, Note_on_c, 11, 61, 95
1, 187920, Note_on_c, 9, 59, 90
1, 187920, Note_on_c, 9, 38, 80
1, 187920, Note_on_c, 9, 36, 70
1, 187920, Note_on_c, 12, 63, 0
1, 187920, Note_on_c, 12, 56, 90
1, 187930, Note_on_c, 9, 59, 0
1, 187930, Note_on_c, 9, 38, 0
1, 187930, Note_on_c, 9, 36, 0
1, 187960, Note_on_c, 8, 39, 90
1, 188090, Note_on_c, 11, 52, 0
1, 188160, Note_on_c, 9, 59, 90
1, 188160, Note_on_c, 8, 39, 0
1, 188160, Control_c, 12, 6, 34
1, 188170, Note_on_c, 9, 59, 0
1, 188200, Note_on_c, 8, 45, 100
1, 188340, Note_on_c, 11, 68, 0
1, 188340, Note_on_c, 11, 63, 0
1, 188340, Note_on_c, 11, 61, 0
1, 188340, Note_on_c, 11, 57, 0
1, 188390, Note_on_c, 11, 68, 76
1, 188390, Note_on_c, 11, 63, 76
1, 188390, Note_on_c, 11, 61, 76
1, 188400, Note_on_c, 9, 59, 80
1, 188400, Note_on_c, 9, 44, 100
1, 188400, Note_on_c, 9, 36, 90
1, 188410, Note_on_c, 9, 59, 0
1, 188410, Note_on_c, 9, 44, 0
1, 188410, Note_on_c, 9, 36, 0
1, 188420, Note_on_c, 8, 45, 0
1, 188440, Note_on_c, 8, 45, 80
1, 188630, Note_on_c, 11, 68, 0
1, 188630, Note_on_c, 11, 63, 0
1, 188630, Note_on_c, 11, 61, 0
1, 188630, Note_on_c, 11, 68, 90
1, 188630, Note_on_c, 11, 63, 90
1, 188630, Note_on_c, 11, 61, 90
1, 188640, Note_on_c, 9, 59, 80
1, 188640, Note_on_c, 9, 38, 10
1, 188640, Note_on_c, 8, 45, 0
1, 188650, Note_on_c, 9, 59, 0
1, 188650, Note_on_c, 9, 38, 0
1, 188680, Note_on_c, 8, 39, 90
1, 188730, Note_on_c, 11, 68, 0
1, 188730, Note_on_c, 11, 63, 0
1, 188730, Note_on_c, 11, 61, 0
1, 188880, Note_on_c, 9, 59, 80
1, 188880, Note_on_c, 9, 38, 90
1, 188880, Note_on_c, 8, 39, 0
1, 188890, Note_on_c, 9, 59, 0
1, 188890, Note_on_c, 9, 38, 0
1, 188920, Note_on_c, 8, 45, 80
1, 189110, Note_on_c, 11, 63, 100
1, 189110, Note_on_c, 11, 57, 100
1, 189110, Note_on_c, 11, 52, 100
1, 189120, Note_on_c, 9, 59, 80
1, 189120, Note_on_c, 9, 53, 80
1, 189120, Note_on_c, 8, 45, 0
1, 189130, Note_on_c, 9, 59, 0
1, 189130, Note_on_c, 9, 53, 0
1, 189160, Note_on_c, 8, 56, 90
1, 189270, Note_on_c, 11, 63, 0
1, 189270, Note_on_c, 11, 57, 0
1, 189270, Note_on_c, 11, 52, 0
1, 189360, Note_on_c, 9, 59, 80
1, 189360, Note_on_c, 9, 38, 80
1, 189370, Note_on_c, 9, 59, 0
1, 189370, Note_on_c, 9, 38, 0
1, 189470, Note_on_c, 11, 63, 80
1, 189470, Note_on_c, 11, 57, 80
1, 189470, Note_on_c, 11, 52, 80
1, 189590, Note_on_c, 11, 63, 0
1, 189590, Note_on_c, 11, 57, 0
1, 189590, Note_on_c, 11, 52, 0
1, 189600, Note_on_c, 9, 59, 80
1, 189600, Note_on_c, 9, 44, 90
1, 189600, Note_on_c, 9, 38, 90
1, 189610, Note_on_c, 9, 59, 0
1, 189610, Note_on_c, 9, 44, 0
1, 189610, Note_on_c, 9, 38, 0
1, 189810, Note_on_c, 8, 56, 0
1, 189830, Note_on_c, 11, 63, 90
1, 189830, Note_on_c, 11, 57, 90
1, 189830, Note_on_c, 11, 52, 90
1, 189840, Note_on_c, 9, 59, 80
1, 189840, Note_on_c, 9, 36, 80
1, 189850, Note_on_c, 9, 59, 0
1, 189850, Note_on_c, 9, 36, 0
1, 189880, Note_on_c, 8, 39, 90
1, 189930, Note_on_c, 11, 63, 0
1, 189930, Note_on_c, 11, 57, 0
1, 189930, Note_on_c, 11, 52, 0
1, 189960, Note_on_c, 12, 56, 0
1, 190070, Note_on_c, 11, 64, 100
1, 190070, Note_on_c, 11, 57, 100
1, 190070, Note_on_c, 11, 52, 90
1, 190080, Note_on_c, 9, 59, 90
1, 190080, Note_on_c, 9, 36, 80
1, 190080, Note_on_c, 8, 39, 0
1, 190090, Note_on_c, 9, 59, 0
1, 190090, Note_on_c, 9, 36, 0
1, 190120, Note_on_c, 8, 45, 100
1, 190200, Note_on_c, 11, 64, 0
1, 190200, Note_on_c, 11, 57, 0
1, 190200, Note_on_c, 11, 52, 0
1, 190390, Note_on_c, 11, 63, 80
1, 190390, Note_on_c, 11, 57, 80
1, 190390, Note_on_c, 11, 52, 80
1, 190510, Note_on_c, 11, 63, 0
1, 190510, Note_on_c, 11, 57, 0
1, 190510, Note_on_c, 11, 52, 0
1, 190520, Note_on_c, 8, 45, 0
1, 190560, Note_on_c, 9, 59, 80
1, 190560, Note_on_c, 9, 36, 90
1, 190570, Note_on_c, 9, 59, 0
1, 190570, Note_on_c, 9, 36, 0
1, 190710, Note_on_c, 11, 64, 100
1, 190710, Note_on_c, 11, 57, 100
1, 190710, Note_on_c, 11, 52, 100
1, 190830, Note_on_c, 11, 64, 0
1, 190830, Note_on_c, 11, 57, 0
1, 190830, Note_on_c, 11, 52, 0
1, 190840, Note_on_c, 8, 39, 90
1, 191030, Note_on_c, 11, 63, 110
1, 191030, Note_on_c, 11, 57, 110
1, 191030, Note_on_c, 11, 52, 110
1, 191040, Note_on_c, 9, 59, 90
1, 191040, Note_on_c, 9, 46, 80
1, 191040, Note_on_c, 9, 38, 100
1, 191040, Note_on_c, 8, 39, 0
1, 191050, Note_on_c, 9, 59, 0
1, 191050, Note_on_c, 9, 46, 0
1, 191050, Note_on_c, 9, 38, 0
1, 191080, Note_on_c, 8, 45, 100
1, 191190, Note_on_c, 11, 63, 0
1, 191190, Note_on_c, 11, 57, 0
1, 191190, Note_on_c, 11, 52, 0
1, 191350, Note_on_c, 11, 64, 100
1, 191350, Note_on_c, 11, 57, 100
1, 191350, Note_on_c, 11, 52, 100
1, 191480, Note_on_c, 8, 45, 0
1, 191480, Note_on_c, 11, 64, 0
1, 191480, Note_on_c, 11, 57, 0
1, 191480, Note_on_c, 11, 52, 0
1, 191520, Note_on_c, 9, 59, 80
1, 191520, Note_on_c, 9, 44, 90
1, 191530, Note_on_c, 9, 59, 0
1, 191530, Note_on_c, 9, 44, 0
1, 191670, Note_on_c, 11, 63, 100
1, 191670, Note_on_c, 11, 57, 100
1, 191670, Note_on_c, 11, 52, 100
1, 191760, Note_on_c, 9, 38, 80
1, 191760, Note_on_c, 9, 36, 80
1, 191770, Note_on_c, 9, 38, 0
1, 191770, Note_on_c, 9, 36, 0
1, 191800, Note_on_c, 8, 39, 90
1, 191800, Note_on_c, 11, 63, 0
1, 191800, Note_on_c, 11, 57, 0
1, 191800, Note_on_c, 11, 52, 0
1, 191990, Note_on_c, 11, 63, 110
1, 191990, Note_on_c, 11, 57, 110
1, 191990, Note_on_c, 11, 52, 110
1, 192000, Note_on_c, 9, 51, 90
1, 192000, Note_on_c, 9, 38, 30
1, 192000, Note_on_c, 9, 36, 80
1, 192000, Note_on_c, 8, 39, 0
1, 192000, Control_c, 12, 6, 30
1, 192000, Note_on_c, 12, 61, 100
1, 192010, Note_on_c, 9, 51, 0
1, 192010, Note_on_c, 9, 38, 0
1, 192010, Note_on_c, 9, 36, 0
1, 192040, Note_on_c, 8, 45, 100
1, 192120, Note_on_c, 9, 38, 60
1, 192130, Note_on_c, 9, 38, 0
1, 192240, Note_on_c, 9, 38, 60
1, 192250, Note_on_c, 9, 38, 0
1, 192260, Note_on_c, 8, 45, 0
1, 192280, Note_on_c, 8, 45, 80
1, 192290, Note_on_c, 11, 63, 0
1, 192290, Note_on_c, 11, 57, 0
1, 192290, Note_on_c, 11, 52, 0
1, 192330, Note_on_c, 12, 61, 0
1, 192360, Note_on_c, 9, 38, 80
1, 192360, Control_c, 12, 6, 54
1, 192360, Note_on_c, 12, 63, 110
1, 192370, Note_on_c, 9, 38, 0
1, 192470, Note_on_c, 11, 63, 80
1, 192470, Note_on_c, 11, 57, 80
1, 192470, Note_on_c, 11, 52, 80
1, 192480, Note_on_c, 9, 50, 80
1, 192480, Note_on_c, 9, 44, 90
1, 192480, Note_on_c, 8, 45, 0
1, 192490, Note_on_c, 9, 50, 0
1, 192490, Note_on_c, 9, 44, 0
1, 192520, Note_on_c, 8, 39, 90
1, 192560, Note_on_c, 12, 63, 0
1, 192590, Note_on_c, 11, 63, 0
1, 192590, Note_on_c, 11, 57, 0
1, 192590, Note_on_c, 11, 52, 0
1, 192600, Note_on_c, 9, 50, 60
1, 192610, Note_on_c, 9, 50, 0
1, 192720, Note_on_c, 9, 50, 60
1, 192720, Note_on_c, 8, 39, 0
1, 192720, Control_c, 12, 5, 30
1, 192720, Note_on_c, 12, 63, 80
1, 192730, Note_on_c, 9, 50, 0
1, 192760, Note_on_c, 8, 45, 80
1, 192830, Note_on_c, 11, 63, 90
1, 192830, Note_on_c, 11, 57, 90
1, 192830, Note_on_c, 11, 52, 90
1, 192840, Note_on_c, 9, 50, 80
1, 192850, Note_on_c, 9, 50, 0
1, 192940, Note_on_c, 12, 63, 0
1, 192950, Note_on_c, 11, 63, 0
1, 192950, Note_on_c, 11, 57, 0
1, 192950, Note_on_c, 11, 52, 0
1, 192950, Note_on_c, 11, 63, 110
1, 192950, Note_on_c, 11, 61, 110
1, 192950, Note_on_c, 11, 57, 110
1, 192960, Note_on_c, 9, 59, 90
1, 192960, Note_on_c, 9, 47, 80
1, 192960, Note_on_c, 8, 45, 0
1, 192960, Control_c, 12, 6, 60
1, 192960, Note_on_c, 12, 63, 90
1, 192970, Note_on_c, 9, 59, 0
1, 192970, Note_on_c, 9, 47, 0
1, 193000, Note_on_c, 8, 56, 90
1, 193080, Note_on_c, 9, 47, 60
1, 193090, Note_on_c, 9, 47, 0
1, 193200, Note_on_c, 9, 47, 60
1, 193210, Note_on_c, 9, 47, 0
1, 193320, Note_on_c, 9, 47, 60
1, 193330, Note_on_c, 9, 47, 0
1, 193430, Note_on_c, 11, 63, 0
1, 193430, Note_on_c, 11, 61, 0
1, 193430, Note_on_c, 11, 57, 0
1, 193430, Note_on_c, 11, 68, 100
1, 193430, Note_on_c, 11, 63, 100
1, 193430, Note_on_c, 11, 61, 100
1, 193430, Note_on_c, 11, 57, 100
1, 193440, Note_on_c, 9, 44, 90
1, 193440, Note_on_c, 9, 43, 80
1, 193450, Note_on_c, 9, 44, 0
1, 193450, Note_on_c, 9, 43, 0
1, 193530, Note_on_c, 11, 68, 0
1, 193530, Note_on_c, 11, 63, 0
1, 193530, Note_on_c, 11, 61, 0
1, 193530, Note_on_c, 11, 57, 0
1, 193560, Note_on_c, 9, 43, 60
1, 193570, Note_on_c, 9, 43, 0
1, 193650, Note_on_c, 8, 56, 0
1, 193680, Note_on_c, 9, 43, 70
1, 193690, Note_on_c, 9, 43, 0
1, 193720, Note_on_c, 8, 39, 90
1, 193800, Note_on_c, 9, 43, 70
1, 193810, Note_on_c, 9, 43, 0
1, 193910, Note_on_c, 11, 68, 110
1, 193910, Note_on_c, 11, 64, 110
1, 193910, Note_on_c, 11, 61, 110
1, 193910, Note_on_c, 11, 57, 110
1, 193910, Note_on_c, 11, 52, 110
1, 193920, Note_on_c, 9, 44, 50
1, 193920, Note_on_c, 8, 39, 0
1, 193920, Note_on_c, 12, 63, 0
1, 193920, Control_c, 12, 6, 50
1, 193920, Control_c, 12, 84, 64
1, 193920, Note_on_c, 12, 73, 105
1, 193930, Note_on_c, 9, 44, 0
1, 193960, Note_on_c, 8, 45, 100
1, 194040, Control_c, 12, 6, 50
1, 194160, Note_on_c, 9, 36, 100
1, 194160, Control_c, 12, 6, 52
1, 194170, Note_on_c, 9, 36, 0
1, 194280, Control_c, 12, 6, 54
1, 194360, Note_on_c, 8, 45, 0
1, 194400, Note_on_c, 9, 44, 90
1, 194400, Control_c, 12, 6, 56
1, 194410, Note_on_c, 9, 44, 0
1, 194640, Note_on_c, 9, 38, 100
1, 194650, Note_on_c, 9, 38, 0
1, 194680, Note_on_c, 8, 39, 90
1, 194810, Note_on_c, 11, 68, 0
1, 194810, Note_on_c, 11, 64, 0
1, 194810, Note_on_c, 11, 61, 0
1, 194810, Note_on_c, 11, 57, 0
1, 194810, Note_on_c, 11, 52, 0
1, 194870, Note_on_c, 11, 52, 90
1, 194880, Note_on_c, 8, 39, 0
1, 194880, Note_on_c, 11, 57, 90
1, 194890, Note_on_c, 11, 61, 90
1, 194900, Note_on_c, 11, 64, 90
1, 194910, Note_on_c, 11, 68, 90
1, 194920, Note_on_c, 8, 45, 100
1, 195120, Note_on_c, 9, 36, 60
1, 195130, Note_on_c, 9, 36, 0
1, 195240, Note_on_c, 9, 36, 70
1, 195250, Note_on_c, 9, 36, 0
1, 195320, Note_on_c, 8, 45, 0
1, 195360, Note_on_c, 9, 44, 90
1, 195360, Note_on_c, 9, 38, 70
1, 195360, Note_on_c, 9, 36, 50
1, 195360, Control_c, 12, 84, 60
1, 195360, Note_on_c, 12, 68, 95
1, 195370, Note_on_c, 9, 44, 0
1, 195370, Note_on_c, 9, 38, 0
1, 195370, Note_on_c, 9, 36, 0
1, 195370, Note_on_c, 12, 73, 0
1, 195560, Note_on_c, 12, 68, 0
1, 195570, Note_on_c, 11, 52, 0
1, 195580, Note_on_c, 11, 57, 0
1, 195590, Note_on_c, 11, 61, 0
1, 195590, Note_on_c, 11, 52, 94
1, 195600, Note_on_c, 11, 64, 0
1, 195600, Note_on_c, 11, 57, 94
1, 195610, Note_on_c, 11, 68, 0
1, 195610, Note_on_c, 11, 61, 94
1, 195620, Note_on_c, 11, 64, 94
1, 195630, Note_on_c, 11, 68, 94
1, 195640, Note_on_c, 8, 39, 90
1, 195810, Note_on_c, 11, 52, 0
1, 195820, Note_on_c, 11, 57, 0
1, 195830, Note_on_c, 11, 61, 0
1, 195840, Note_on_c, 9, 44, 50
1, 195840, Note_on_c, 8, 39, 0
1, 195840, Note_on_c, 11, 64, 0
1, 195840, Control_c, 12, 6, 50
1, 195850, Note_on_c, 9, 44, 0
1, 195880, Note_on_c, 8, 45, 100
1, 196080, Note_on_c, 9, 38, 90
1, 196090, Note_on_c, 9, 38, 0
1, 196100, Note_on_c, 8, 45, 0
1, 196120, Note_on_c, 8, 45, 80
1, 196310, Note_on_c, 11, 52, 100
1, 196320, Note_on_c, 9, 44, 90
1, 196320, Note_on_c, 8, 45, 0
1, 196320, Note_on_c, 11, 57, 100
1, 196330, Note_on_c, 9, 44, 0
1, 196330, Note_on_c, 11, 61, 100
1, 196340, Note_on_c, 11, 64, 100
1, 196360, Note_on_c, 8, 39, 90
1, 196560, Note_on_c, 9, 36, 60
1, 196560, Note_on_c, 8, 39, 0
1, 196560, Control_c, 12, 84, 72
1, 196560, Note_on_c, 12, 75, 100
1, 196570, Note_on_c, 9, 36, 0
1, 196600, Note_on_c, 8, 45, 80
1, 196710, Note_on_c, 11, 52, 0
1, 196720, Note_on_c, 11, 57, 0
1, 196730, Note_on_c, 11, 61, 0
1, 196740, Note_on_c, 11, 64, 0
1, 196790, Note_on_c, 11, 52, 70
1, 196800, Note_on_c, 9, 44, 100
1, 196800, Note_on_c, 9, 38, 90
1, 196800, Note_on_c, 9, 36, 80
1, 196800, Note_on_c, 8, 45, 0
1, 196800, Note_on_c, 11, 57, 70
1, 196810, Note_on_c, 9, 44, 0
1, 196810, Note_on_c, 9, 38, 0
1, 196810, Note_on_c, 9, 36, 0
1, 196810, Note_on_c, 11, 61, 70
1, 196820, Note_on_c, 11, 64, 70
1, 196840, Note_on_c, 8, 56, 90
1, 196890, Note_on_c, 12, 75, 0
1, 196920, Control_c, 12, 84, 64
1, 196920, Note_on_c, 12, 75, 90
1, 196990, Note_on_c, 11, 52, 0
1, 197000, Note_on_c, 11, 57, 0
1, 197010, Note_on_c, 11, 61, 0
1, 197020, Note_on_c, 11, 64, 0
1, 197040, Note_on_c, 9, 38, 70
1, 197050, Note_on_c, 9, 38, 0
1, 197270, Note_on_c, 11, 52, 70
1, 197280, Note_on_c, 9, 44, 100
1, 197280, Note_on_c, 11, 57, 70
1, 197280, Note_on_c, 12, 75, 0
1, 197280, Control_c, 12, 84, 68
1, 197280, Note_on_c, 12, 75, 80
1, 197290, Note_on_c, 9, 44, 0
1, 197290, Note_on_c, 11, 61, 70
1, 197300, Note_on_c, 11, 64, 70
1, 197470, Note_on_c, 11, 52, 0
1, 197480, Note_on_c, 11, 57, 0
1, 197490, Note_on_c, 8, 56, 0
1, 197490, Note_on_c, 11, 61, 0
1, 197500, Note_on_c, 11, 64, 0
1, 197520, Note_on_c, 9, 36, 60
1, 197530, Note_on_c, 9, 36, 0
1, 197560, Note_on_c, 8, 39, 90
1, 197730, Note_on_c, 12, 75, 0
1, 197750, Note_on_c, 11, 52, 110
1, 197760, Note_on_c, 9, 44, 90
1, 197760, Note_on_c, 9, 38, 80
1, 197760, Note_on_c, 9, 36, 90
1, 197760, Note_on_c, 8, 39, 0
1, 197760, Note_on_c, 11, 57, 110
1, 197760, Control_c, 12, 84, 70
1, 197760, Note_on_c, 12, 75, 96
1, 197770, Note_on_c, 9, 44, 0
1, 197770, Note_on_c, 9, 38, 0
1, 197770, Note_on_c, 9, 36, 0
1, 197770, Note_on_c, 11, 61, 110
1, 197780, Note_on_c, 11, 64, 110
1, 197800, Note_on_c, 8, 45, 100
1, 198200, Note_on_c, 8, 45, 0
1, 198240, Note_on_c, 9, 44, 90
1, 198240, Note_on_c, 9, 38, 80
1, 198250, Note_on_c, 9, 44, 0
1, 198250, Note_on_c, 9, 38, 0
1, 198390, Note_on_c, 11, 68, 0
1, 198450, Note_on_c, 11, 52, 0
1, 198460, Note_on_c, 11, 57, 0
1, 198470, Note_on_c, 11, 61, 0
1, 198470, Note_on_c, 11, 68, 90
1, 198480, Note_on_c, 9, 36, 60
1, 198480, Note_on_c, 11, 64, 0
1, 198480, Note_on_c, 11, 64, 90
1, 198480, Note_on_c, 12, 73, 90
1, 198490, Note_on_c, 9, 36, 0
1, 198490, Note_on_c, 11, 61, 90
1, 198500, Note_on_c, 11, 57, 90
1, 198510, Note_on_c, 11, 52, 90
1, 198520, Note_on_c, 8, 39, 90
1, 198600, Note_on_c, 12, 68, 90
1, 198610, Note_on_c, 12, 73, 0
1, 198720, Note_on_c, 9, 36, 80
1, 198720, Note_on_c, 8, 39, 0
1, 198720, Control_c, 12, 84, 64
1, 198720, Note_on_c, 12, 63, 105
1, 198730, Note_on_c, 9, 36, 0
1, 198730, Note_on_c, 12, 75, 0
1, 198730, Note_on_c, 12, 68, 0
1, 198760, Note_on_c, 8, 45, 100
1, 198910, Note_on_c, 11, 64, 0
1, 198920, Note_on_c, 11, 61, 0
1, 198920, Note_on_c, 12, 63, 0
1, 198930, Note_on_c, 11, 57, 0
1, 198940, Note_on_c, 11, 52, 0
1, 198960, Note_on_c, 9, 38, 100
1, 198970, Note_on_c, 9, 38, 0
1, 199160, Note_on_c, 8, 45, 0
1, 199170, Note_on_c, 11, 68, 0
1, 199190, Note_on_c, 11, 52, 94
1, 199200, Note_on_c, 9, 44, 100
1, 199200, Note_on_c, 11, 57, 94
1, 199210, Note_on_c, 9, 44, 0
1, 199210, Note_on_c, 11, 61, 94
1, 199220, Note_on_c, 11, 64, 94
1, 199230, Note_on_c, 11, 68, 94
1, 199440, Note_on_c, 9, 36, 50
1, 199450, Note_on_c, 9, 36, 0
1, 199480, Note_on_c, 8, 39, 90
1, 199680, Note_on_c, 9, 44, 100
1, 199680, Note_on_c, 9, 38, 90
1, 199680, Note_on_c, 9, 36, 90
1, 199680, Note_on_c, 8, 39, 0
1, 199680, Control_c, 12, 6, 55
1, 199690, Note_on_c, 9, 44, 0
1, 199690, Note_on_c, 9, 38, 0
1, 199690, Note_on_c, 9, 36, 0
1, 199720, Note_on_c, 8, 45, 100
1, 199760, Note_on_c, 9, 38, 70
1, 199770, Note_on_c, 9, 38, 0
1, 199790, Note_on_c, 11, 52, 0
1, 199800, Note_on_c, 11, 57, 0
1, 199810, Note_on_c, 11, 61, 0
1, 199820, Note_on_c, 11, 64, 0
1, 199920, Control_c, 12, 84, 70
1, 199920, Note_on_c, 12, 76, 100
1, 199940, Note_on_c, 8, 45, 0
1, 199960, Note_on_c, 8, 39, 80
1, 200150, Note_on_c, 11, 52, 70
1, 200160, Note_on_c, 9, 44, 100
1, 200160, Note_on_c, 9, 38, 100
1, 200160, Note_on_c, 11, 57, 70
1, 200170, Note_on_c, 9, 44, 0
1, 200170, Note_on_c, 9, 38, 0
1, 200170, Note_on_c, 11, 61, 70
1, 200180, Note_on_c, 11, 64, 70
1, 200250, Note_on_c, 12, 76, 0
1, 200280, Control_c, 12, 84, 68
1, 200280, Note_on_c, 12, 76, 90
1, 200360, Note_on_c, 8, 39, 0
1, 200400, Note_on_c, 9, 38, 100
1, 200400, Note_on_c, 9, 36, 70
1, 200410, Note_on_c, 9, 38, 0
1, 200410, Note_on_c, 9, 36, 0
1, 200440, Note_on_c, 8, 39, 100
1, 200550, Note_on_c, 11, 52, 0
1, 200560, Note_on_c, 11, 57, 0
1, 200570, Note_on_c, 11, 61, 0
1, 200580, Note_on_c, 11, 64, 0
1, 200580, Note_on_c, 12, 76, 0
1, 200630, Note_on_c, 11, 52, 50
1, 200640, Note_on_c, 9, 44, 105
1, 200640, Note_on_c, 9, 36, 80
1, 200640, Note_on_c, 11, 57, 50
1, 200640, Control_c, 12, 84, 69
1, 200640, Note_on_c, 12, 76, 90
1, 200650, Note_on_c, 9, 44, 0
1, 200650, Note_on_c, 9, 36, 0
1, 200650, Note_on_c, 11, 61, 50
1, 200660, Note_on_c, 11, 64, 50
1, 200760, Note_on_c, 9, 38, 70
1, 200770, Note_on_c, 9, 38, 0
1, 200830, Note_on_c, 11, 52, 0
1, 200840, Note_on_c, 11, 57, 0
1, 200850, Note_on_c, 11, 61, 0
1, 200860, Note_on_c, 11, 64, 0
1, 200880, Note_on_c, 9, 38, 105
1, 200890, Note_on_c, 9, 38, 0
1, 201000, Note_on_c, 9, 38, 100
1, 201000, Note_on_c, 12, 76, 0
1, 201000, Control_c, 12, 6, 65
1, 201000, Note_on_c, 12, 76, 92
1, 201010, Note_on_c, 9, 38, 0
1, 201040, Note_on_c, 8, 39, 0
1, 201110, Note_on_c, 11, 52, 70
1, 201120, Note_on_c, 9, 44, 105
1, 201120, Note_on_c, 9, 38, 70
1, 201120, Note_on_c, 11, 57, 70
1, 201130, Note_on_c, 9, 44, 0
1, 201130, Note_on_c, 9, 38, 0
1, 201130, Note_on_c, 11, 61, 70
1, 201140, Note_on_c, 11, 64, 70
1, 201160, Note_on_c, 8, 45, 90
1, 201240, Note_on_c, 9, 47, 100
1, 201250, Note_on_c, 9, 47, 0
1, 201310, Note_on_c, 11, 52, 0
1, 201320, Note_on_c, 11, 57, 0
1, 201330, Note_on_c, 11, 61, 0
1, 201340, Note_on_c, 11, 64, 0
1, 201360, Note_on_c, 9, 47, 80
1, 201360, Note_on_c, 8, 45, 0
1, 201360, Note_on_c, 12, 73, 90
1, 201370, Note_on_c, 9, 47, 0
1, 201370, Note_on_c, 12, 76, 0
1, 201400, Note_on_c, 8, 38, 90
1, 201480, Note_on_c, 9, 47, 90
1, 201480, Note_on_c, 12, 69, 90
1, 201490, Note_on_c, 9, 47, 0
1, 201490, Note_on_c, 12, 73, 0
1, 201600, Note_on_c, 9, 49, 90
1, 201600, Note_on_c, 9, 36, 90
1, 201600, Note_on_c, 8, 38, 0
1, 201600, Control_c, 12, 84, 64
1, 201600, Note_on_c, 12, 64, 100
1, 201610, Note_on_c, 9, 49, 0
1, 201610, Note_on_c, 9, 36, 0
1, 201610, Note_on_c, 12, 69, 0
1, 201640, Note_on_c, 8, 45, 100
1, 201730, Note_on_c, 12, 64, 0
1, 202040, Note_on_c, 8, 45, 0
1, 202070, Note_on_c, 11, 66, 105
1, 202070, Note_on_c, 11, 64, 105
1, 202070, Note_on_c, 11, 61, 110
1, 202070, Note_on_c, 11, 57, 105
1, 202070, Note_on_c, 11, 52, 100
1, 202080, Note_on_c, 9, 42, 90
1, 202080, Note_on_c, 9, 36, 70
1, 202090, Note_on_c, 9, 42, 0
1, 202090, Note_on_c, 9, 36, 0
1, 202230, Note_on_c, 11, 68, 0
1, 202360, Note_on_c, 8, 40, 90
1, 202560, Note_on_c, 9, 44, 90
1, 202560, Note_on_c, 9, 38, 90
1, 202560, Note_on_c, 8, 40, 0
1, 202570, Note_on_c, 9, 44, 0
1, 202570, Note_on_c, 9, 38, 0
1, 202600, Note_on_c, 8, 45, 100
1, 203000, Note_on_c, 8, 45, 0
1, 203040, Note_on_c, 9, 44, 90
1, 203050, Note_on_c, 9, 44, 0
1, 203270, Note_on_c, 11, 66, 0
1, 203270, Note_on_c, 11, 64, 0
1, 203270, Note_on_c, 11, 61, 0
1, 203270, Note_on_c, 11, 57, 0
1, 203270, Note_on_c, 11, 52, 0
1, 203280, Note_on_c, 9, 38, 70
1, 203290, Note_on_c, 9, 38, 0
1, 203320, Note_on_c, 8, 40, 90
1, 203520, Note_on_c, 9, 42, 90
1, 203520, Note_on_c, 9, 36, 70
1, 203520, Note_on_c, 8, 40, 0
1, 203520, Control_c, 12, 6, 46
1, 203530, Note_on_c, 9, 42, 0
1, 203530, Note_on_c, 9, 36, 0
1, 203560, Note_on_c, 8, 45, 100
1, 203640, Note_on_c, 9, 38, 60
1, 203650, Note_on_c, 9, 38, 0
1, 203750, Note_on_c, 11, 66, 90
1, 203750, Note_on_c, 11, 64, 90
1, 203750, Note_on_c, 11, 61, 90
1, 203750, Note_on_c, 11, 57, 90
1, 203750, Note_on_c, 11, 52, 90
1, 203760, Note_on_c, 8, 45, 0
1, 203800, Note_on_c, 8, 45, 80
1, 203850, Note_on_c, 11, 66, 0
1, 203850, Note_on_c, 11, 64, 0
1, 203850, Note_on_c, 11, 61, 0
1, 203850, Note_on_c, 11, 57, 0
1, 203850, Note_on_c, 11, 52, 0
1, 204000, Note_on_c, 9, 44, 90
1, 204000, Note_on_c, 9, 38, 60
1, 204000, Note_on_c, 8, 45, 0
1, 204010, Note_on_c, 9, 44, 0
1, 204010, Note_on_c, 9, 38, 0
1, 204040, Note_on_c, 8, 40, 90
1, 204220, Note_on_c, 8, 40, 0
1, 204240, Note_on_c, 9, 36, 70
1, 204250, Note_on_c, 9, 36, 0
1, 204280, Note_on_c, 8, 56, 90
1, 204440, Note_on_c, 8, 56, 0
1, 204470, Note_on_c, 11, 66, 80
1, 204470, Note_on_c, 11, 64, 80
1, 204470, Note_on_c, 11, 61, 80
1, 204480, Note_on_c, 9, 42, 90
1, 204480, Note_on_c, 12, 66, 110
1, 204490, Note_on_c, 9, 42, 0
1, 204520, Note_on_c, 8, 51, 70
1, 204550, Note_on_c, 11, 66, 0
1, 204550, Note_on_c, 11, 64, 0
1, 204550, Note_on_c, 11, 61, 0
1, 204590, Note_on_c, 11, 66, 70
1, 204590, Note_on_c, 11, 64, 70
1, 204590, Note_on_c, 11, 61, 70
1, 204590, Note_on_c, 11, 57, 70
1, 204590, Note_on_c, 11, 52, 70
1, 204600, Note_on_c, 9, 38, 70
1, 204600, Control_c, 12, 84, 64
1, 204600, Note_on_c, 12, 64, 70
1, 204610, Note_on_c, 9, 38, 0
1, 204610, Note_on_c, 12, 66, 0
1, 204670, Note_on_c, 11, 66, 0
1, 204670, Note_on_c, 11, 64, 0
1, 204670, Note_on_c, 11, 61, 0
1, 204670, Note_on_c, 11, 57, 0
1, 204670, Note_on_c, 11, 52, 0
1, 204720, Note_on_c, 12, 66, 80
1, 204730, Note_on_c, 12, 64, 0
1, 204760, Pitch_bend_c, 8, 8092
1, 204820, Pitch_bend_c, 8, 7992
1, 204840, Note_on_c, 12, 68, 80
1, 204850, Note_on_c, 12, 66, 0
1, 204880, Pitch_bend_c, 8, 7792
1, 204940, Pitch_bend_c, 8, 7392
1, 204950, Note_on_c, 11, 69, 90
1, 204960, Note_on_c, 9, 44, 90
1, 204960, Note_on_c, 9, 38, 90
1, 204960, Note_on_c, 12, 69, 90
1, 204970, Note_on_c, 9, 44, 0
1, 204970, Note_on_c, 9, 38, 0
1, 204970, Note_on_c, 12, 68, 0
1, 205000, Pitch_bend_c, 8, 6592
1, 205060, Pitch_bend_c, 8, 4992
1, 205080, Note_on_c, 12, 71, 80
1, 205090, Note_on_c, 12, 69, 0
1, 205120, Pitch_bend_c, 8, 1792
1, 205140, Note_on_c, 8, 51, 0
1, 205200, Note_on_c, 9, 36, 60
1, 205200, Note_on_c, 12, 73, 90
1, 205210, Note_on_c, 9, 36, 0
1, 205210, Note_on_c, 12, 71, 0
1, 205240, Pitch_bend_c, 8, 8192
1, 205240, Note_on_c, 8, 40, 90
1, 205320, Note_on_c, 12, 75, 70
1, 205330, Note_on_c, 12, 73, 0
1, 205350, Note_on_c, 11, 69, 0
1, 205440, Note_on_c, 9, 38, 60
1, 205440, Note_on_c, 9, 36, 90
1, 205440, Note_on_c, 8, 40, 0
1, 205440, Note_on_c, 12, 78, 90
1, 205450, Note_on_c, 9, 38, 0
1, 205450, Note_on_c, 9, 36, 0
1, 205450, Note_on_c, 12, 75, 0
1, 205480, Note_on_c, 8, 42, 100
1, 205560, Note_on_c, 12, 80, 70
1, 205570, Note_on_c, 12, 78, 0
1, 205680, Note_on_c, 9, 38, 80
1, 205680, Control_c, 12, 6, 50
1, 205680, Note_on_c, 12, 81, 80
1, 205690, Note_on_c, 9, 38, 0
1, 205690, Note_on_c, 12, 80, 0
1, 205910, Note_on_c, 11, 66, 100
1, 205910, Note_on_c, 11, 64, 100
1, 205910, Note_on_c, 11, 61, 100
1, 205910, Note_on_c, 11, 57, 100
1, 205910, Note_on_c, 11, 52, 100
1, 205920, Note_on_c, 9, 44, 90
1, 205930, Note_on_c, 9, 44, 0
1, 206040, Note_on_c, 12, 81, 0
1, 206040, Note_on_c, 12, 80, 70
1, 206200, Note_on_c, 8, 37, 100
1, 206210, Note_on_c, 8, 42, 0
1, 206400, Note_on_c, 9, 38, 100
1, 206400, Note_on_c, 9, 36, 60
1, 206410, Note_on_c, 9, 38, 0
1, 206410, Note_on_c, 9, 36, 0
1, 206630, Note_on_c, 8, 37, 0
1, 206680, Note_on_c, 8, 42, 100
1, 206880, Note_on_c, 9, 44, 90
1, 206880, Note_on_c, 12, 80, 0
1, 206880, Note_on_c, 12, 80, 60
1, 206890, Note_on_c, 9, 44, 0
1, 207000, Note_on_c, 12, 76, 60
1, 207010, Note_on_c, 12, 80, 0
1, 207110, Note_on_c, 11, 66, 0
1, 207110, Note_on_c, 11, 64, 0
1, 207110, Note_on_c, 11, 61, 0
1, 207110, Note_on_c, 11, 57, 0
1, 207110, Note_on_c, 11, 52, 0
1, 207120, Note_on_c, 9, 38, 70
1, 207120, Note_on_c, 12, 73, 70
1, 207130, Note_on_c, 9, 38, 0
1, 207130, Note_on_c, 12, 76, 0
1, 207160, Note_on_c, 8, 37, 100
1, 207170, Note_on_c, 8, 42, 0
1, 207240, Note_on_c, 12, 68, 60
1, 207250, Note_on_c, 12, 73, 0
1, 207360, Note_on_c, 9, 36, 70
1, 207360, Note_on_c, 12, 80, 90
1, 207370, Note_on_c, 9, 36, 0
1, 207370, Note_on_c, 12, 68, 0
1, 207470, Note_on_c, 11, 66, 80
1, 207470, Note_on_c, 11, 64, 90
1, 207470, Note_on_c, 11, 61, 90
1, 207470, Note_on_c, 11, 57, 80
1, 207470, Note_on_c, 11, 52, 80
1, 207480, Note_on_c, 12, 76, 60
1, 207490, Note_on_c, 12, 80, 0
1, 207570, Note_on_c, 11, 66, 0
1, 207570, Note_on_c, 11, 64, 0
1, 207570, Note_on_c, 11, 61, 0
1, 207570, Note_on_c, 11, 57, 0
1, 207570, Note_on_c, 11, 52, 0
1, 207600, Note_on_c, 12, 73, 70
1, 207610, Note_on_c, 12, 76, 0
1, 207640, Note_on_c, 8, 37, 0
1, 207640, Note_on_c, 8, 33, 90
1, 207720, Note_on_c, 12, 68, 60
1, 207730, Note_on_c, 12, 73, 0
1, 207840, Note_on_c, 9, 44, 90
1, 207840, Note_on_c, 12, 68, 0
1, 207840, Note_on_c, 12, 68, 80
1, 207850, Note_on_c, 9, 44, 0
1, 207880, Note_on_c, 8, 30, 110
1, 207890, Note_on_c, 8, 33, 0
1, 207960, Note_on_c, 12, 69, 70
1, 207970, Note_on_c, 12, 68, 0
1, 208070, Note_on_c, 11, 66, 70
1, 208070, Note_on_c, 11, 64, 70
1, 208070, Note_on_c, 11, 61, 70
1, 208070, Note_on_c, 11, 57, 70
1, 208070, Note_on_c, 11, 52, 70
1, 208080, Note_on_c, 9, 44, 90
1, 208080, Note_on_c, 9, 38, 100
1, 208080, Note_on_c, 12, 68, 70
1, 208090, Note_on_c, 9, 44, 0
1, 208090, Note_on_c, 9, 38, 0
1, 208090, Note_on_c, 12, 69, 0
1, 208120, Note_on_c, 8, 33, 80
1, 208130, Note_on_c, 8, 30, 0
1, 208200, Note_on_c, 12, 66, 60
1, 208210, Note_on_c, 12, 68, 0
1, 208320, Note_on_c, 9, 47, 70
1, 208320, Note_on_c, 12, 64, 80
1, 208330, Note_on_c, 9, 47, 0
1, 208330, Note_on_c, 12, 66, 0
1, 208400, Note_on_c, 12, 66, 60
1, 208420, Note_on_c, 12, 64, 0
1, 208440, Note_on_c, 9, 47, 60
1, 208450, Note_on_c, 9, 47, 0
1, 208480, Note_on_c, 12, 68, 70
1, 208500, Note_on_c, 12, 66, 0
1, 208550, Note_on_c, 8, 33, 0
1, 208560, Note_on_c, 9, 47, 60
1, 208560, Note_on_c, 12, 66, 80
1, 208570, Note_on_c, 9, 47, 0
1, 208580, Note_on_c, 12, 68, 0
1, 208600, Note_on_c, 8, 35, 85
1, 208660, Note_on_c, 12, 66, 0
1, 208680, Note_on_c, 9, 47, 60
1, 208680, Note_on_c, 12, 64, 70
1, 208690, Note_on_c, 9, 47, 0
1, 208780, Note_on_c, 12, 64, 0
1, 208800, Note_on_c, 9, 44, 90
1, 208800, Note_on_c, 9, 43, 65
1, 208800, Note_on_c, 12, 61, 90
1, 208810, Note_on_c, 9, 44, 0
1, 208810, Note_on_c, 9, 43, 0
1, 208920, Note_on_c, 9, 43, 60
1, 208920, Note_on_c, 12, 62, 70
1, 208930, Note_on_c, 9, 43, 0
1, 208930, Note_on_c, 12, 61, 0
1, 209040, Note_on_c, 9, 43, 60
1, 209040, Note_on_c, 12, 61, 80
1, 209050, Note_on_c, 9, 43, 0
1, 209050, Note_on_c, 12, 62, 0
1, 209080, Note_on_c, 8, 37, 80
1, 209090, Note_on_c, 8, 35, 0
1, 209160, Note_on_c, 9, 43, 50
1, 209160, Note_on_c, 12, 59, 70
1, 209170, Note_on_c, 9, 43, 0
1, 209170, Note_on_c, 12, 61, 0
1, 209270, Note_on_c, 11, 66, 0
1, 209270, Note_on_c, 11, 64, 0
1, 209270, Note_on_c, 11, 61, 0
1, 209270, Note_on_c, 11, 57, 0
1, 209270, Note_on_c, 11, 52, 0
1, 209280, Note_on_c, 9, 49, 100
1, 209280, Note_on_c, 9, 36, 90
1, 209280, Note_on_c, 12, 61, 100
1, 209290, Note_on_c, 9, 49, 0
1, 209290, Note_on_c, 9, 36, 0
1, 209290, Note_on_c, 12, 59, 0
1, 209320, Note_on_c, 8, 42, 110
1, 209330, Note_on_c, 8, 37, 0
1, 209410, Note_on_c, 12, 61, 0
1, 209750, Note_on_c, 11, 66, 100
1, 209750, Note_on_c, 11, 64, 100
1, 209750, Note_on_c, 11, 61, 100
1, 209750, Note_on_c, 11, 57, 100
1, 209750, Note_on_c, 11, 52, 100
1, 209760, Note_on_c, 9, 57, 70
1, 209760, Note_on_c, 9, 44, 90
1, 209760, Note_on_c, 9, 36, 90
1, 209770, Note_on_c, 9, 57, 0
1, 209770, Note_on_c, 9, 44, 0
1, 209770, Note_on_c, 9, 36, 0
1, 210040, Note_on_c, 8, 37, 90
1, 210050, Note_on_c, 8, 42, 0
1, 210240, Note_on_c, 9, 51, 90
1, 210240, Note_on_c, 9, 38, 100
1, 210250, Note_on_c, 9, 51, 0
1, 210250, Note_on_c, 9, 38, 0
1, 210280, Note_on_c, 8, 42, 100
1, 210290, Note_on_c, 8, 37, 0
1, 210380, Note_on_c, 8, 42, 0
1, 210520, Note_on_c, 8, 49, 105
1, 210720, Note_on_c, 9, 51, 80
1, 210720, Note_on_c, 9, 44, 100
1, 210720, Control_c, 12, 6, 64
1, 210720, Note_on_c, 12, 57, 100
1, 210730, Note_on_c, 9, 51, 0
1, 210730, Note_on_c, 9, 44, 0
1, 210840, Note_on_c, 12, 57, 0
1, 210840, Note_on_c, 12, 59, 90
1, 210950, Note_on_c, 8, 49, 0
1, 210950, Note_on_c, 11, 66, 0
1, 210950, Note_on_c, 11, 64, 0
1, 210950, Note_on_c, 11, 61, 0
1, 210950, Note_on_c, 11, 57, 0
1, 210950, Note_on_c, 11, 52, 0
1, 210960, Note_on_c, 9, 38, 80
1, 210960, Note_on_c, 12, 59, 0
1, 210970, Note_on_c, 9, 38, 0
1, 211000, Note_on_c, 8, 49, 80
1, 211120, Note_on_c, 8, 49, 0
1, 211120, Note_on_c, 8, 49, 70
1, 211190, Note_on_c, 11, 73, 90
1, 211190, Note_on_c, 11, 66, 90
1, 211190, Note_on_c, 11, 64, 90
1, 211200, Note_on_c, 9, 51, 90
1, 211200, Note_on_c, 12, 59, 100
1, 211210, Note_on_c, 9, 51, 0
1, 211220, Note_on_c, 8, 49, 0
1, 211240, Note_on_c, 8, 49, 90
1, 211290, Note_on_c, 11, 73, 0
1, 211290, Note_on_c, 11, 66, 0
1, 211290, Note_on_c, 11, 64, 0
1, 211310, Note_on_c, 11, 73, 80
1, 211310, Note_on_c, 11, 66, 80
1, 211310, Note_on_c, 11, 64, 80
1, 211320, Note_on_c, 12, 59, 0
1, 211320, Note_on_c, 12, 61, 90
1, 211410, Note_on_c, 11, 73, 0
1, 211410, Note_on_c, 11, 66, 0
1, 211410, Note_on_c, 11, 64, 0
1, 211440, Note_on_c, 9, 36, 80
1, 211440, Note_on_c, 12, 61, 0
1, 211450, Note_on_c, 9, 36, 0
1, 211460, Note_on_c, 8, 49, 0
1, 211480, Note_on_c, 8, 37, 100
1, 211560, Note_on_c, 12, 61, 90
1, 211670, Note_on_c, 11, 75, 90
1, 211670, Note_on_c, 11, 68, 90
1, 211670, Note_on_c, 11, 66, 90
1, 211680, Note_on_c, 9, 51, 90
1, 211680, Note_on_c, 9, 44, 90
1, 211680, Note_on_c, 9, 38, 90
1, 211680, Note_on_c, 12, 61, 0
1, 211690, Note_on_c, 9, 51, 0
1, 211690, Note_on_c, 9, 44, 0
1, 211690, Note_on_c, 9, 38, 0
1, 211770, Note_on_c, 11, 75, 0
1, 211770, Note_on_c, 11, 68, 0
1, 211770, Note_on_c, 11, 66, 0
1, 211790, Note_on_c, 11, 75, 80
1, 211790, Note_on_c, 11, 68, 80
1, 211790, Note_on_c, 11, 66, 80
1, 211890, Note_on_c, 11, 75, 0
1, 211890, Note_on_c, 11, 68, 0
1, 211890, Note_on_c, 11, 66, 0
1, 211910, Note_on_c, 8, 37, 0
1, 211920, Note_on_c, 9, 36, 70
1, 211930, Note_on_c, 9, 36, 0
1, 211960, Note_on_c, 8, 38, 90
1, 212150, Note_on_c, 11, 76, 80
1, 212150, Note_on_c, 11, 69, 80
1, 212150, Note_on_c, 11, 66, 80
1, 212160, Note_on_c, 9, 51, 90
1, 212160, Note_on_c, 9, 38, 60
1, 212170, Note_on_c, 9, 51, 0
1, 212170, Note_on_c, 9, 38, 0
1, 212200, Note_on_c, 9, 38, 70
1, 212210, Note_on_c, 9, 38, 0
1, 212250, Note_on_c, 11, 76, 0
1, 212250, Note_on_c, 11, 69, 0
1, 212250, Note_on_c, 11, 66, 0
1, 212390, Note_on_c, 8, 38, 0
1, 212400, Note_on_c, 9, 36, 80
1, 212410, Note_on_c, 9, 36, 0
1, 212440, Note_on_c, 8, 39, 90
1, 212470, Note_on_c, 11, 75, 80
1, 212470, Note_on_c, 11, 68, 80
1, 212470, Note_on_c, 11, 64, 80
1, 212570, Note_on_c, 11, 75, 0
1, 212570, Note_on_c, 11, 68, 0
1, 212570, Note_on_c, 11, 64, 0
1, 212640, Note_on_c, 9, 51, 90
1, 212640, Note_on_c, 9, 44, 90
1, 212640, Note_on_c, 9, 38, 70
1, 212640, Note_on_c, 12, 63, 100
1, 212650, Note_on_c, 9, 51, 0
1, 212650, Note_on_c, 9, 44, 0
1, 212650, Note_on_c, 9, 38, 0
1, 212700, Note_on_c, 9, 38, 90
1, 212710, Note_on_c, 9, 38, 0
1, 212790, Note_on_c, 11, 73, 70
1, 212790, Note_on_c, 11, 66, 70
1, 212790, Note_on_c, 11, 64, 70
1, 212820, Note_on_c, 12, 63, 0
1, 212870, Note_on_c, 8, 39, 0
1, 212880, Note_on_c, 9, 36, 70
1, 212890, Note_on_c, 9, 36, 0
1, 212890, Note_on_c, 11, 73, 0
1, 212890, Note_on_c, 11, 66, 0
1, 212890, Note_on_c, 11, 64, 0
1, 212920, Note_on_c, 8, 41, 90
1, 213110, Note_on_c, 11, 73, 100
1, 213110, Note_on_c, 11, 66, 100
1, 213110, Note_on_c, 11, 64, 100
1, 213120, Note_on_c, 9, 51, 100
1, 213120, Note_on_c, 9, 38, 100
1, 213120, Note_on_c, 9, 36, 90
1, 213130, Note_on_c, 9, 51, 0
1, 213130, Note_on_c, 9, 38, 0
1, 213130, Note_on_c, 9, 36, 0
1, 213140, Note_on_c, 8, 41, 0
1, 213160, Note_on_c, 8, 42, 100
1, 213360, Note_on_c, 12, 64, 90
1, 213460, Note_on_c, 12, 64, 0
1, 213600, Note_on_c, 9, 51, 90
1, 213600, Note_on_c, 9, 44, 90
1, 213610, Note_on_c, 9, 51, 0
1, 213610, Note_on_c, 9, 44, 0
1, 213610, Note_on_c, 11, 73, 0
1, 213610, Note_on_c, 11, 66, 0
1, 213610, Note_on_c, 11, 64, 0
1, 213640, Note_on_c, 8, 42, 0
1, 213640, Note_on_c, 8, 30, 110
1, 213840, Note_on_c, 9, 38, 80
1, 213850, Note_on_c, 9, 38, 0
1, 214070, Note_on_c, 11, 66, 80
1, 214070, Note_on_c, 11, 64, 80
1, 214070, Note_on_c, 11, 61, 80
1, 214070, Note_on_c, 11, 57, 80
1, 214070, Note_on_c, 11, 52, 80
1, 214080, Note_on_c, 9, 51, 90
1, 214080, Note_on_c, 9, 38, 90
1, 214080, Note_on_c, 9, 36, 80
1, 214080, Note_on_c, 12, 66, 100
1, 214090, Note_on_c, 9, 51, 0
1, 214090, Note_on_c, 9, 38, 0
1, 214090, Note_on_c, 9, 36, 0
1, 214120, Note_on_c, 8, 30, 0
1, 214120, Note_on_c, 8, 37, 100
1, 214180, Note_on_c, 12, 66, 0
1, 214360, Note_on_c, 8, 40, 80
1, 214370, Note_on_c, 8, 37, 0
1, 214560, Note_on_c, 9, 51, 90
1, 214560, Note_on_c, 9, 44, 90
1, 214570, Note_on_c, 9, 51, 0
1, 214570, Note_on_c, 9, 44, 0
1, 214770, Note_on_c, 11, 66, 0
1, 214770, Note_on_c, 11, 64, 0
1, 214770, Note_on_c, 11, 61, 0
1, 214770, Note_on_c, 11, 57, 0
1, 214770, Note_on_c, 11, 52, 0
1, 214790, Note_on_c, 8, 40, 0
1, 214790, Note_on_c, 11, 66, 90
1, 214790, Note_on_c, 11, 64, 90
1, 214790, Note_on_c, 11, 61, 90
1, 214790, Note_on_c, 11, 57, 90
1, 214790, Note_on_c, 11, 52, 90
1, 214800, Note_on_c, 9, 36, 70
1, 214800, Note_on_c, 12, 68, 100
1, 214810, Note_on_c, 9, 36, 0
1, 214840, Note_on_c, 8, 41, 90
1, 214890, Note_on_c, 11, 66, 0
1, 214890, Note_on_c, 11, 64, 0
1, 214890, Note_on_c, 11, 61, 0
1, 214890, Note_on_c, 11, 57, 0
1, 214890, Note_on_c, 11, 52, 0
1, 214900, Note_on_c, 12, 68, 0
1, 214920, Note_on_c, 9, 36, 50
1, 214930, Note_on_c, 9, 36, 0
1, 215040, Note_on_c, 9, 51, 95
1, 215050, Note_on_c, 9, 51, 0
1, 215280, Note_on_c, 12, 69, 100
1, 215300, Note_on_c, 8, 41, 0
1, 215320, Note_on_c, 8, 42, 90
1, 215380, Note_on_c, 12, 69, 0
1, 215510, Note_on_c, 11, 68, 100
1, 215510, Note_on_c, 11, 64, 100
1, 215510, Note_on_c, 11, 61, 100
1, 215510, Note_on_c, 11, 57, 100
1, 215510, Note_on_c, 11, 52, 100
1, 215520, Note_on_c, 9, 51, 90
1, 215520, Note_on_c, 9, 38, 70
1, 215530, Note_on_c, 9, 51, 0
1, 215530, Note_on_c, 9, 38, 0
1, 215580, Note_on_c, 9, 38, 80
1, 215590, Note_on_c, 9, 38, 0
1, 215750, Note_on_c, 8, 42, 0
1, 215760, Note_on_c, 9, 36, 80
1, 215760, Note_on_c, 12, 71, 100
1, 215770, Note_on_c, 9, 36, 0
1, 215800, Note_on_c, 8, 37, 100
1, 215860, Note_on_c, 12, 71, 0
1, 216000, Note_on_c, 9, 51, 100
1, 216010, Note_on_c, 9, 51, 0
1, 216240, Note_on_c, 12, 73, 100
1, 216280, Note_on_c, 8, 37, 0
1, 216280, Note_on_c, 8, 37, 70
1, 216340, Note_on_c, 12, 73, 0
1, 216480, Note_on_c, 9, 51, 100
1, 216480, Note_on_c, 9, 38, 70
1, 216480, Note_on_c, 12, 75, 100
1, 216490, Note_on_c, 9, 51, 0
1, 216490, Note_on_c, 9, 38, 0
1, 216520, Note_on_c, 8, 37, 0
1, 216520, Note_on_c, 8, 42, 80
1, 216560, Note_on_c, 9, 38, 100
1, 216570, Note_on_c, 9, 38, 0
1, 216580, Note_on_c, 12, 75, 0
1, 216710, Note_on_c, 11, 68, 0
1, 216710, Note_on_c, 11, 64, 0
1, 216710, Note_on_c, 11, 61, 0
1, 216710, Note_on_c, 11, 57, 0
1, 216710, Note_on_c, 11, 52, 0
1, 216720, Note_on_c, 9, 36, 70
1, 216720, Note_on_c, 12, 77, 100
1, 216730, Note_on_c, 9, 36, 0
1, 216760, Note_on_c, 8, 42, 0
1, 216760, Note_on_c, 8, 37, 80
1, 216820, Note_on_c, 12, 77, 0
1, 217000, Note_on_c, 8, 37, 0
1, 218880, End_track
0, 0, End_of_file
