0, 0, Header, 1, 17, 120
1, 0, Start_track
1, 0, Sequencer_specific, 10, 0, 0, 91, 35, 1, 0, 5, 5, 41, 0
1, 0, Title_t, "IT MUST BE A CAMEL"
1, 0, Instrument_name_t, "by FRANK ZAPPA"
1, 0, SMPTE_offset, 96, 0, 3, 0, 0
1, 0, MIDI_port, 0
1, 0, Text_t, "Sequenced by Malice Laugh"
1, 0, Text_t, "Composed by Frank Zappa"
1, 0, Tempo, 444444
1, 0, Time_signature, 6, 2, 24, 8
1, 0, Key_signature, -1, "major"
1, 41040, Tempo, 413793
1, 41040, Time_signature, 4, 2, 24, 8
1, 48240, Key_signature, 2, "minor"
1, 55920, Key_signature, -1, "major"
1, 63600, Key_signature, 2, "major"
1, 75120, Tempo, 428571
1, 75120, Key_signature, -1, "major"
1, 75120, Time_signature, 6, 2, 24, 8
1, 75120, End_track
2, 0, Start_track
2, 0, Title_t, "violin"
2, 0, MIDI_port, 0
2, 0, Program_c, 3, 40
2, 1, Control_c, 3, 10, 79
2, 2, Control_c, 3, 91, 39
2, 3, Control_c, 3, 7, 127
2, 4, Control_c, 3, 10, 87
2, 15120, Note_on_c, 3, 72, 104
2, 15120, Control_c, 3, 11, 99
2, 15136, Control_c, 3, 11, 100
2, 15151, Control_c, 3, 11, 101
2, 15167, Control_c, 3, 11, 102
2, 15182, Control_c, 3, 11, 103
2, 15198, Control_c, 3, 11, 105
2, 15213, Control_c, 3, 11, 106
2, 15229, Control_c, 3, 11, 107
2, 15244, Control_c, 3, 11, 108
2, 15260, Control_c, 3, 11, 109
2, 15275, Control_c, 3, 11, 110
2, 15291, Control_c, 3, 11, 111
2, 15306, Control_c, 3, 11, 112
2, 15322, Control_c, 3, 11, 114
2, 15337, Control_c, 3, 11, 115
2, 15353, Control_c, 3, 11, 116
2, 15368, Control_c, 3, 11, 117
2, 15384, Control_c, 3, 11, 118
2, 15399, Control_c, 3, 11, 119
2, 15415, Control_c, 3, 11, 120
2, 15430, Control_c, 3, 11, 121
2, 15446, Control_c, 3, 11, 123
2, 15461, Control_c, 3, 11, 124
2, 15477, Control_c, 3, 11, 125
2, 15492, Control_c, 3, 11, 126
2, 15508, Control_c, 3, 11, 127
2, 15591, Note_on_c, 3, 72, 0
2, 15600, Note_on_c, 3, 81, 104
2, 15644, Note_on_c, 3, 81, 0
2, 15660, Note_on_c, 3, 83, 104
2, 15704, Note_on_c, 3, 83, 0
2, 15720, Note_on_c, 3, 79, 104
2, 15764, Note_on_c, 3, 79, 0
2, 15780, Note_on_c, 3, 74, 104
2, 15824, Note_on_c, 3, 74, 0
2, 15840, Note_on_c, 3, 67, 104
2, 16225, Note_on_c, 3, 67, 0
2, 16320, Note_on_c, 3, 72, 104
2, 16367, Note_on_c, 3, 72, 0
2, 16380, Note_on_c, 3, 86, 104
2, 16427, Note_on_c, 3, 86, 0
2, 16440, Note_on_c, 3, 83, 104
2, 16487, Note_on_c, 3, 83, 0
2, 16500, Note_on_c, 3, 81, 104
2, 16547, Note_on_c, 3, 81, 0
2, 16560, Note_on_c, 3, 70, 104
2, 16856, Note_on_c, 3, 70, 0
2, 16860, Note_on_c, 3, 76, 104
2, 16916, Note_on_c, 3, 76, 0
2, 16920, Note_on_c, 3, 77, 104
2, 16976, Note_on_c, 3, 77, 0
2, 16980, Note_on_c, 3, 74, 104
2, 17036, Note_on_c, 3, 74, 0
2, 17040, Note_on_c, 3, 76, 104
2, 17096, Note_on_c, 3, 76, 0
2, 17100, Note_on_c, 3, 81, 104
2, 17156, Note_on_c, 3, 81, 0
2, 17160, Note_on_c, 3, 74, 104
2, 17216, Note_on_c, 3, 74, 0
2, 17220, Note_on_c, 3, 67, 104
2, 17276, Note_on_c, 3, 67, 0
2, 17280, Note_on_c, 3, 69, 104
2, 17336, Note_on_c, 3, 69, 0
2, 17340, Note_on_c, 3, 76, 104
2, 17396, Note_on_c, 3, 76, 0
2, 17400, Note_on_c, 3, 74, 104
2, 17456, Note_on_c, 3, 74, 0
2, 17460, Note_on_c, 3, 71, 104
2, 17516, Note_on_c, 3, 71, 0
2, 17520, Note_on_c, 3, 60, 104
2, 17576, Note_on_c, 3, 60, 0
2, 17580, Note_on_c, 3, 67, 104
2, 17636, Note_on_c, 3, 67, 0
2, 17640, Note_on_c, 3, 74, 104
2, 17696, Note_on_c, 3, 74, 0
2, 17700, Note_on_c, 3, 81, 104
2, 17756, Note_on_c, 3, 81, 0
2, 17760, Note_on_c, 3, 83, 104
2, 17816, Note_on_c, 3, 83, 0
2, 17820, Note_on_c, 3, 78, 104
2, 17876, Note_on_c, 3, 78, 0
2, 19440, Note_on_c, 3, 69, 104
2, 19440, Control_c, 3, 11, 84
2, 19456, Control_c, 3, 11, 87
2, 19472, Control_c, 3, 11, 90
2, 19488, Control_c, 3, 11, 94
2, 19504, Control_c, 3, 11, 97
2, 19520, Control_c, 3, 11, 100
2, 19536, Control_c, 3, 11, 103
2, 19553, Control_c, 3, 11, 107
2, 19569, Control_c, 3, 11, 110
2, 19585, Control_c, 3, 11, 113
2, 19601, Control_c, 3, 11, 116
2, 19617, Control_c, 3, 11, 120
2, 19631, Control_c, 3, 11, 122
2, 19638, Control_c, 3, 11, 124
2, 19642, Control_c, 3, 11, 124
2, 19643, Control_c, 3, 11, 125
2, 19645, Control_c, 3, 11, 127
2, 20125, Note_on_c, 3, 69, 0
2, 20160, Note_on_c, 3, 64, 104
2, 20216, Note_on_c, 3, 64, 0
2, 20220, Note_on_c, 3, 66, 104
2, 20276, Note_on_c, 3, 66, 0
2, 20280, Note_on_c, 3, 74, 104
2, 20336, Note_on_c, 3, 74, 0
2, 20340, Note_on_c, 3, 76, 104
2, 20396, Note_on_c, 3, 76, 0
2, 20400, Note_on_c, 3, 78, 104
2, 20456, Note_on_c, 3, 78, 0
2, 20460, Note_on_c, 3, 74, 104
2, 20516, Note_on_c, 3, 74, 0
2, 20520, Note_on_c, 3, 69, 104
2, 20576, Note_on_c, 3, 69, 0
2, 20580, Note_on_c, 3, 71, 104
2, 20636, Note_on_c, 3, 71, 0
2, 20640, Note_on_c, 3, 78, 104
2, 20696, Note_on_c, 3, 78, 0
2, 20700, Note_on_c, 3, 74, 104
2, 20756, Note_on_c, 3, 74, 0
2, 20760, Note_on_c, 3, 69, 104
2, 20816, Note_on_c, 3, 69, 0
2, 20820, Note_on_c, 3, 71, 104
2, 20876, Note_on_c, 3, 71, 0
2, 20880, Note_on_c, 3, 78, 104
2, 20925, Note_on_c, 3, 78, 0
2, 20928, Note_on_c, 3, 78, 104
2, 20973, Note_on_c, 3, 78, 0
2, 20977, Note_on_c, 3, 78, 104
2, 21020, Note_on_c, 3, 78, 0
2, 21025, Note_on_c, 3, 78, 104
2, 21068, Note_on_c, 3, 78, 0
2, 21072, Note_on_c, 3, 81, 104
2, 21115, Note_on_c, 3, 81, 0
2, 21120, Note_on_c, 3, 78, 104
2, 21165, Note_on_c, 3, 78, 0
2, 21168, Note_on_c, 3, 78, 104
2, 21213, Note_on_c, 3, 78, 0
2, 21217, Note_on_c, 3, 78, 104
2, 21260, Note_on_c, 3, 78, 0
2, 21265, Note_on_c, 3, 78, 104
2, 21308, Note_on_c, 3, 78, 0
2, 21312, Note_on_c, 3, 81, 104
2, 21355, Note_on_c, 3, 81, 0
2, 21360, Note_on_c, 3, 78, 104
2, 21405, Note_on_c, 3, 78, 0
2, 21408, Note_on_c, 3, 78, 104
2, 21453, Note_on_c, 3, 78, 0
2, 21457, Note_on_c, 3, 78, 104
2, 21500, Note_on_c, 3, 78, 0
2, 21505, Note_on_c, 3, 78, 104
2, 21548, Note_on_c, 3, 78, 0
2, 21552, Note_on_c, 3, 81, 104
2, 21595, Note_on_c, 3, 81, 0
2, 21600, Note_on_c, 3, 78, 104
2, 21645, Note_on_c, 3, 78, 0
2, 21648, Note_on_c, 3, 78, 104
2, 21693, Note_on_c, 3, 78, 0
2, 21697, Note_on_c, 3, 78, 104
2, 21740, Note_on_c, 3, 78, 0
2, 21745, Note_on_c, 3, 78, 104
2, 21788, Note_on_c, 3, 78, 0
2, 21792, Note_on_c, 3, 81, 104
2, 21835, Note_on_c, 3, 81, 0
2, 21840, Note_on_c, 3, 78, 104
2, 21885, Note_on_c, 3, 78, 0
2, 21888, Note_on_c, 3, 78, 104
2, 21933, Note_on_c, 3, 78, 0
2, 21937, Note_on_c, 3, 78, 104
2, 21980, Note_on_c, 3, 78, 0
2, 21985, Note_on_c, 3, 78, 104
2, 22028, Note_on_c, 3, 78, 0
2, 22032, Note_on_c, 3, 81, 104
2, 22075, Note_on_c, 3, 81, 0
2, 22080, Note_on_c, 3, 78, 104
2, 22125, Note_on_c, 3, 78, 0
2, 22128, Note_on_c, 3, 78, 104
2, 22173, Note_on_c, 3, 78, 0
2, 22177, Note_on_c, 3, 78, 104
2, 22220, Note_on_c, 3, 78, 0
2, 22225, Note_on_c, 3, 78, 104
2, 22268, Note_on_c, 3, 78, 0
2, 22272, Note_on_c, 3, 81, 104
2, 22315, Note_on_c, 3, 81, 0
2, 22560, Note_on_c, 3, 73, 104
2, 22605, Note_on_c, 3, 73, 0
2, 22608, Note_on_c, 3, 73, 104
2, 22653, Note_on_c, 3, 73, 0
2, 22657, Note_on_c, 3, 73, 104
2, 22700, Note_on_c, 3, 73, 0
2, 22705, Note_on_c, 3, 73, 104
2, 22748, Note_on_c, 3, 73, 0
2, 22752, Note_on_c, 3, 76, 104
2, 22795, Note_on_c, 3, 76, 0
2, 22800, Note_on_c, 3, 73, 104
2, 22845, Note_on_c, 3, 73, 0
2, 22848, Note_on_c, 3, 73, 104
2, 22893, Note_on_c, 3, 73, 0
2, 22897, Note_on_c, 3, 73, 104
2, 22940, Note_on_c, 3, 73, 0
2, 22945, Note_on_c, 3, 73, 104
2, 22988, Note_on_c, 3, 73, 0
2, 22992, Note_on_c, 3, 76, 104
2, 23035, Note_on_c, 3, 76, 0
2, 23280, Note_on_c, 3, 74, 104
2, 23325, Note_on_c, 3, 74, 0
2, 23328, Note_on_c, 3, 74, 104
2, 23373, Note_on_c, 3, 74, 0
2, 23377, Note_on_c, 3, 74, 104
2, 23420, Note_on_c, 3, 74, 0
2, 23425, Note_on_c, 3, 74, 104
2, 23468, Note_on_c, 3, 74, 0
2, 23472, Note_on_c, 3, 77, 104
2, 23515, Note_on_c, 3, 77, 0
2, 23520, Note_on_c, 3, 74, 104
2, 23548, Note_on_c, 3, 74, 0
2, 23550, Note_on_c, 3, 74, 104
2, 23578, Note_on_c, 3, 74, 0
2, 23580, Note_on_c, 3, 74, 104
2, 23608, Note_on_c, 3, 74, 0
2, 23610, Note_on_c, 3, 77, 104
2, 23638, Note_on_c, 3, 77, 0
2, 23640, Note_on_c, 3, 74, 104
2, 23668, Note_on_c, 3, 74, 0
2, 23670, Note_on_c, 3, 74, 104
2, 23698, Note_on_c, 3, 74, 0
2, 23700, Note_on_c, 3, 74, 104
2, 23728, Note_on_c, 3, 74, 0
2, 23730, Note_on_c, 3, 77, 104
2, 23758, Note_on_c, 3, 77, 0
2, 23760, Note_on_c, 3, 74, 104
2, 23791, Note_on_c, 3, 74, 0
2, 23820, Note_on_c, 3, 74, 104
2, 23851, Note_on_c, 3, 74, 0
2, 23880, Note_on_c, 3, 74, 104
2, 23936, Note_on_c, 3, 74, 0
2, 23940, Note_on_c, 3, 77, 104
2, 24000, Note_on_c, 3, 77, 0
2, 24000, Note_on_c, 3, 74, 104
2, 24031, Note_on_c, 3, 74, 0
2, 24060, Note_on_c, 3, 74, 104
2, 24091, Note_on_c, 3, 74, 0
2, 24120, Note_on_c, 3, 74, 104
2, 24176, Note_on_c, 3, 74, 0
2, 24180, Note_on_c, 3, 77, 104
2, 24240, Note_on_c, 3, 74, 104
2, 24242, Note_on_c, 3, 77, 0
2, 24271, Note_on_c, 3, 74, 0
2, 24300, Note_on_c, 3, 74, 104
2, 24331, Note_on_c, 3, 74, 0
2, 24360, Note_on_c, 3, 74, 104
2, 24416, Note_on_c, 3, 74, 0
2, 24420, Note_on_c, 3, 77, 104
2, 24478, Note_on_c, 3, 77, 0
2, 24480, Note_on_c, 3, 74, 104
2, 24511, Note_on_c, 3, 74, 0
2, 24540, Note_on_c, 3, 74, 104
2, 24571, Note_on_c, 3, 74, 0
2, 24600, Note_on_c, 3, 74, 104
2, 24656, Note_on_c, 3, 74, 0
2, 24660, Note_on_c, 3, 77, 104
2, 24720, Note_on_c, 3, 77, 0
2, 24720, Note_on_c, 3, 74, 104
2, 24751, Note_on_c, 3, 74, 0
2, 24780, Note_on_c, 3, 74, 104
2, 24811, Note_on_c, 3, 74, 0
2, 24840, Note_on_c, 3, 74, 104
2, 24895, Note_on_c, 3, 74, 0
2, 24900, Note_on_c, 3, 77, 104
2, 24956, Note_on_c, 3, 77, 0
2, 24960, Note_on_c, 3, 74, 104
2, 24997, Note_on_c, 3, 74, 0
2, 25000, Note_on_c, 3, 77, 104
2, 25037, Note_on_c, 3, 77, 0
2, 25040, Note_on_c, 3, 74, 104
2, 25077, Note_on_c, 3, 74, 0
2, 25080, Note_on_c, 3, 73, 104
2, 25117, Note_on_c, 3, 73, 0
2, 25120, Note_on_c, 3, 72, 104
2, 25837, Note_on_c, 3, 72, 0
2, 25936, Note_on_c, 3, 82, 90
2, 25936, Note_on_c, 3, 80, 90
2, 26470, Note_on_c, 3, 80, 0
2, 26487, Note_on_c, 3, 82, 0
2, 26503, Note_on_c, 3, 80, 84
2, 26528, Note_on_c, 3, 82, 90
2, 26545, Note_on_c, 3, 80, 0
2, 26739, Note_on_c, 3, 80, 73
2, 26742, Note_on_c, 3, 82, 0
2, 26772, Note_on_c, 3, 82, 90
2, 26780, Note_on_c, 3, 80, 0
2, 26999, Note_on_c, 3, 82, 0
2, 27002, Note_on_c, 3, 82, 90
2, 27223, Note_on_c, 3, 82, 0
2, 27224, Note_on_c, 3, 82, 84
2, 27228, Note_on_c, 3, 70, 72
2, 27480, Control_c, 3, 11, 127
2, 27495, Control_c, 3, 11, 125
2, 27510, Control_c, 3, 11, 124
2, 27519, Pitch_bend_c, 3, 8328
2, 27520, Pitch_bend_c, 3, 8738
2, 27521, Pitch_bend_c, 3, 9011
2, 27523, Pitch_bend_c, 3, 9284
2, 27524, Pitch_bend_c, 3, 9558
2, 27525, Control_c, 3, 11, 122
2, 27525, Pitch_bend_c, 3, 9830
2, 27526, Pitch_bend_c, 3, 9967
2, 27528, Pitch_bend_c, 3, 10353
2, 27530, Pitch_bend_c, 3, 10581
2, 27532, Pitch_bend_c, 3, 10695
2, 27536, Pitch_bend_c, 3, 10809
2, 27540, Control_c, 3, 11, 121
2, 27555, Control_c, 3, 11, 119
2, 27558, Pitch_bend_c, 3, 10923
2, 27565, Pitch_bend_c, 3, 10809
2, 27567, Pitch_bend_c, 3, 10695
2, 27569, Pitch_bend_c, 3, 10581
2, 27570, Control_c, 3, 11, 117
2, 27572, Pitch_bend_c, 3, 10353
2, 27574, Pitch_bend_c, 3, 10240
2, 27576, Pitch_bend_c, 3, 9967
2, 27578, Pitch_bend_c, 3, 9558
2, 27580, Pitch_bend_c, 3, 9284
2, 27582, Pitch_bend_c, 3, 8738
2, 27584, Pitch_bend_c, 3, 8465
2, 27585, Control_c, 3, 11, 116
2, 27586, Pitch_bend_c, 3, 8192
2, 27600, Control_c, 3, 11, 114
2, 27615, Control_c, 3, 11, 112
2, 27630, Control_c, 3, 11, 111
2, 27645, Control_c, 3, 11, 109
2, 27660, Control_c, 3, 11, 108
2, 27675, Control_c, 3, 11, 106
2, 27690, Control_c, 3, 11, 104
2, 27705, Control_c, 3, 11, 103
2, 27720, Control_c, 3, 11, 101
2, 27735, Control_c, 3, 11, 100
2, 27750, Control_c, 3, 11, 98
2, 27754, Pitch_bend_c, 3, 8328
2, 27756, Pitch_bend_c, 3, 8738
2, 27758, Pitch_bend_c, 3, 9011
2, 27759, Pitch_bend_c, 3, 9284
2, 27760, Pitch_bend_c, 3, 9558
2, 27762, Pitch_bend_c, 3, 9830
2, 27764, Pitch_bend_c, 3, 9967
2, 27765, Pitch_bend_c, 3, 10240
2, 27765, Control_c, 3, 11, 96
2, 27767, Pitch_bend_c, 3, 10581
2, 27769, Pitch_bend_c, 3, 10695
2, 27771, Pitch_bend_c, 3, 10809
2, 27773, Pitch_bend_c, 3, 10923
2, 27775, Pitch_bend_c, 3, 11059
2, 27777, Pitch_bend_c, 3, 11196
2, 27779, Pitch_bend_c, 3, 11469
2, 27780, Control_c, 3, 11, 95
2, 27781, Pitch_bend_c, 3, 11606
2, 27783, Pitch_bend_c, 3, 11878
2, 27785, Pitch_bend_c, 3, 12015
2, 27788, Pitch_bend_c, 3, 12424
2, 27792, Pitch_bend_c, 3, 12561
2, 27795, Control_c, 3, 11, 93
2, 27807, Pitch_bend_c, 3, 12151
2, 27809, Pitch_bend_c, 3, 12015
2, 27810, Control_c, 3, 11, 91
2, 27811, Pitch_bend_c, 3, 11878
2, 27813, Pitch_bend_c, 3, 11469
2, 27815, Pitch_bend_c, 3, 11332
2, 27816, Pitch_bend_c, 3, 11196
2, 27818, Pitch_bend_c, 3, 10923
2, 27821, Pitch_bend_c, 3, 10809
2, 27823, Pitch_bend_c, 3, 10695
2, 27825, Pitch_bend_c, 3, 10581
2, 27825, Control_c, 3, 11, 90
2, 27827, Pitch_bend_c, 3, 10240
2, 27830, Pitch_bend_c, 3, 9967
2, 27832, Pitch_bend_c, 3, 9830
2, 27834, Pitch_bend_c, 3, 9284
2, 27836, Pitch_bend_c, 3, 9011
2, 27838, Pitch_bend_c, 3, 8738
2, 27840, Pitch_bend_c, 3, 8465
2, 27840, Control_c, 3, 11, 88
2, 27843, Pitch_bend_c, 3, 8192
2, 27855, Control_c, 3, 11, 87
2, 27870, Control_c, 3, 11, 85
2, 27885, Control_c, 3, 11, 83
2, 27900, Control_c, 3, 11, 82
2, 27915, Control_c, 3, 11, 80
2, 27930, Control_c, 3, 11, 78
2, 27945, Control_c, 3, 11, 77
2, 27960, Control_c, 3, 11, 75
2, 27974, Control_c, 3, 11, 74
2, 27991, Control_c, 3, 11, 73
2, 28008, Control_c, 3, 11, 72
2, 28025, Control_c, 3, 11, 71
2, 28042, Control_c, 3, 11, 70
2, 28059, Control_c, 3, 11, 69
2, 28076, Control_c, 3, 11, 68
2, 28093, Control_c, 3, 11, 67
2, 28110, Control_c, 3, 11, 66
2, 28127, Control_c, 3, 11, 65
2, 28144, Control_c, 3, 11, 64
2, 28161, Control_c, 3, 11, 63
2, 28178, Control_c, 3, 11, 62
2, 28195, Control_c, 3, 11, 61
2, 28212, Control_c, 3, 11, 60
2, 28230, Control_c, 3, 11, 59
2, 28247, Control_c, 3, 11, 58
2, 28264, Control_c, 3, 11, 57
2, 28281, Control_c, 3, 11, 56
2, 28298, Control_c, 3, 11, 55
2, 28315, Control_c, 3, 11, 54
2, 28332, Control_c, 3, 11, 53
2, 28349, Control_c, 3, 11, 52
2, 28366, Control_c, 3, 11, 51
2, 28383, Control_c, 3, 11, 50
2, 28400, Control_c, 3, 11, 49
2, 28417, Control_c, 3, 11, 48
2, 28434, Control_c, 3, 11, 47
2, 28451, Control_c, 3, 11, 46
2, 28462, Control_c, 3, 11, 44
2, 28478, Control_c, 3, 11, 42
2, 28493, Control_c, 3, 11, 41
2, 28509, Control_c, 3, 11, 39
2, 28524, Control_c, 3, 11, 37
2, 28540, Control_c, 3, 11, 36
2, 28555, Control_c, 3, 11, 34
2, 28571, Control_c, 3, 11, 32
2, 28586, Control_c, 3, 11, 31
2, 28602, Control_c, 3, 11, 29
2, 28617, Control_c, 3, 11, 27
2, 28633, Control_c, 3, 11, 25
2, 28648, Control_c, 3, 11, 24
2, 28664, Control_c, 3, 11, 22
2, 28679, Control_c, 3, 11, 20
2, 28695, Control_c, 3, 11, 19
2, 28696, Control_c, 3, 11, 18
2, 28712, Control_c, 3, 11, 16
2, 28728, Control_c, 3, 11, 14
2, 28743, Control_c, 3, 11, 13
2, 28759, Control_c, 3, 11, 11
2, 28775, Control_c, 3, 11, 9
2, 28791, Control_c, 3, 11, 7
2, 28804, Note_on_c, 3, 82, 0
2, 28804, Note_on_c, 3, 70, 0
2, 28806, Control_c, 3, 11, 6
2, 28822, Control_c, 3, 11, 4
2, 31341, Control_c, 3, 11, 127
2, 76320, Note_on_c, 3, 72, 90
2, 76364, Note_on_c, 3, 72, 0
2, 76380, Note_on_c, 3, 86, 90
2, 76424, Note_on_c, 3, 86, 0
2, 76440, Note_on_c, 3, 83, 90
2, 76500, Note_on_c, 3, 83, 0
2, 76500, Note_on_c, 3, 81, 90
2, 76559, Note_on_c, 3, 81, 0
2, 76560, Note_on_c, 3, 70, 90
2, 76800, Control_c, 3, 11, 125
2, 76809, Control_c, 3, 11, 124
2, 76818, Control_c, 3, 11, 123
2, 76827, Control_c, 3, 11, 122
2, 76835, Control_c, 3, 11, 121
2, 76844, Control_c, 3, 11, 120
2, 76853, Control_c, 3, 11, 119
2, 76862, Control_c, 3, 11, 118
2, 76871, Control_c, 3, 11, 117
2, 76880, Control_c, 3, 11, 116
2, 76889, Control_c, 3, 11, 115
2, 76898, Control_c, 3, 11, 114
2, 76906, Control_c, 3, 11, 113
2, 76915, Control_c, 3, 11, 112
2, 76924, Control_c, 3, 11, 111
2, 76933, Control_c, 3, 11, 110
2, 76942, Control_c, 3, 11, 109
2, 76951, Control_c, 3, 11, 108
2, 76960, Control_c, 3, 11, 107
2, 76968, Control_c, 3, 11, 106
2, 76977, Control_c, 3, 11, 105
2, 76986, Control_c, 3, 11, 104
2, 76995, Control_c, 3, 11, 103
2, 77004, Control_c, 3, 11, 102
2, 77013, Control_c, 3, 11, 101
2, 77022, Control_c, 3, 11, 100
2, 77031, Control_c, 3, 11, 99
2, 77039, Control_c, 3, 11, 98
2, 77048, Control_c, 3, 11, 97
2, 77057, Control_c, 3, 11, 96
2, 77066, Control_c, 3, 11, 95
2, 77075, Control_c, 3, 11, 94
2, 77084, Control_c, 3, 11, 93
2, 77093, Control_c, 3, 11, 92
2, 77101, Control_c, 3, 11, 91
2, 77110, Control_c, 3, 11, 90
2, 77119, Control_c, 3, 11, 89
2, 77128, Control_c, 3, 11, 88
2, 77137, Control_c, 3, 11, 87
2, 77146, Control_c, 3, 11, 86
2, 77155, Control_c, 3, 11, 85
2, 77163, Control_c, 3, 11, 84
2, 77172, Control_c, 3, 11, 83
2, 77181, Control_c, 3, 11, 82
2, 77190, Control_c, 3, 11, 81
2, 77199, Control_c, 3, 11, 80
2, 77208, Control_c, 3, 11, 79
2, 77217, Control_c, 3, 11, 78
2, 77226, Control_c, 3, 11, 77
2, 77234, Control_c, 3, 11, 76
2, 77243, Control_c, 3, 11, 75
2, 77252, Control_c, 3, 11, 74
2, 77274, Note_on_c, 3, 70, 0
2, 78240, Control_c, 3, 11, 92
2, 78240, Note_on_c, 3, 72, 127
2, 78244, Control_c, 3, 11, 93
2, 78247, Control_c, 3, 11, 94
2, 78251, Control_c, 3, 11, 95
2, 78254, Control_c, 3, 11, 96
2, 78258, Control_c, 3, 11, 97
2, 78261, Control_c, 3, 11, 98
2, 78265, Control_c, 3, 11, 99
2, 78268, Control_c, 3, 11, 100
2, 78272, Control_c, 3, 11, 101
2, 78275, Control_c, 3, 11, 102
2, 78279, Control_c, 3, 11, 103
2, 78283, Control_c, 3, 11, 104
2, 78286, Control_c, 3, 11, 105
2, 78290, Control_c, 3, 11, 106
2, 78293, Control_c, 3, 11, 107
2, 78297, Control_c, 3, 11, 108
2, 78300, Control_c, 3, 11, 109
2, 78304, Control_c, 3, 11, 110
2, 78307, Control_c, 3, 11, 111
2, 78311, Control_c, 3, 11, 112
2, 78314, Control_c, 3, 11, 113
2, 78318, Control_c, 3, 11, 114
2, 78321, Control_c, 3, 11, 115
2, 78325, Control_c, 3, 11, 116
2, 78329, Control_c, 3, 11, 117
2, 78332, Control_c, 3, 11, 118
2, 78336, Control_c, 3, 11, 119
2, 78339, Control_c, 3, 11, 120
2, 78343, Control_c, 3, 11, 121
2, 78346, Control_c, 3, 11, 122
2, 78350, Control_c, 3, 11, 123
2, 78353, Control_c, 3, 11, 124
2, 78357, Control_c, 3, 11, 125
2, 78360, Control_c, 3, 11, 126
2, 78370, Control_c, 3, 11, 127
2, 78553, Note_on_c, 3, 72, 0
2, 78560, Note_on_c, 3, 69, 127
2, 78631, Note_on_c, 3, 69, 0
2, 78640, Note_on_c, 3, 64, 127
2, 78712, Note_on_c, 3, 64, 0
2, 78723, Note_on_c, 3, 76, 127
2, 79036, Note_on_c, 3, 76, 0
2, 79040, Note_on_c, 3, 72, 127
2, 79116, Note_on_c, 3, 72, 0
2, 79120, Note_on_c, 3, 67, 127
2, 79200, Note_on_c, 3, 62, 127
2, 79202, Note_on_c, 3, 67, 0
2, 79256, Note_on_c, 3, 62, 0
2, 79260, Note_on_c, 3, 69, 127
2, 79320, Note_on_c, 3, 76, 127
2, 79325, Note_on_c, 3, 69, 0
2, 79376, Note_on_c, 3, 76, 0
2, 79380, Note_on_c, 3, 83, 127
2, 79436, Note_on_c, 3, 83, 0
2, 79440, Note_on_c, 3, 81, 127
2, 79668, Control_c, 3, 11, 127
2, 79683, Control_c, 3, 11, 125
2, 79699, Control_c, 3, 11, 124
2, 79714, Control_c, 3, 11, 122
2, 79729, Control_c, 3, 11, 121
2, 79745, Control_c, 3, 11, 119
2, 79760, Control_c, 3, 11, 117
2, 79775, Control_c, 3, 11, 116
2, 79791, Control_c, 3, 11, 114
2, 79806, Control_c, 3, 11, 113
2, 79821, Control_c, 3, 11, 111
2, 79836, Control_c, 3, 11, 109
2, 79852, Control_c, 3, 11, 108
2, 79867, Control_c, 3, 11, 106
2, 79882, Control_c, 3, 11, 105
2, 79898, Control_c, 3, 11, 103
2, 79913, Control_c, 3, 11, 102
2, 79928, Control_c, 3, 11, 100
2, 79944, Control_c, 3, 11, 98
2, 79959, Control_c, 3, 11, 97
2, 79974, Control_c, 3, 11, 95
2, 79990, Control_c, 3, 11, 94
2, 80005, Control_c, 3, 11, 92
2, 80009, Control_c, 3, 11, 92
2, 80084, Control_c, 3, 11, 91
2, 80158, Control_c, 3, 11, 90
2, 80233, Control_c, 3, 11, 89
2, 80307, Control_c, 3, 11, 88
2, 80861, Note_on_c, 3, 81, 0
2, 80880, Control_c, 3, 11, 127
2, 83276, Note_on_c, 3, 72, 127
2, 83588, Note_on_c, 3, 86, 127
2, 83595, Note_on_c, 3, 72, 0
2, 83615, Note_on_c, 3, 86, 0
2, 83640, Note_on_c, 3, 82, 127
2, 83676, Note_on_c, 3, 82, 0
2, 83701, Note_on_c, 3, 77, 127
2, 83726, Note_on_c, 3, 77, 0
2, 83763, Note_on_c, 3, 72, 127
2, 84025, Note_on_c, 3, 72, 0
2, 84060, Note_on_c, 3, 86, 127
2, 84081, Note_on_c, 3, 86, 0
2, 84115, Note_on_c, 3, 82, 127
2, 84133, Note_on_c, 3, 82, 0
2, 84180, Note_on_c, 3, 77, 122
2, 84203, Note_on_c, 3, 77, 0
2, 84240, Note_on_c, 3, 72, 127
2, 84495, Note_on_c, 3, 72, 0
2, 84537, Note_on_c, 3, 86, 127
2, 84557, Note_on_c, 3, 86, 0
2, 84600, Note_on_c, 3, 82, 127
2, 84618, Note_on_c, 3, 82, 0
2, 84658, Note_on_c, 3, 77, 118
2, 84688, Note_on_c, 3, 77, 0
2, 84716, Note_on_c, 3, 72, 110
2, 84980, Note_on_c, 3, 72, 0
2, 85016, Note_on_c, 3, 86, 122
2, 85035, Note_on_c, 3, 86, 0
2, 85070, Note_on_c, 3, 82, 127
2, 85109, Note_on_c, 3, 82, 0
2, 85128, Note_on_c, 3, 77, 118
2, 85249, Note_on_c, 3, 77, 0
2, 85306, Note_on_c, 3, 72, 127
2, 85516, Note_on_c, 3, 72, 0
2, 85534, Control_c, 3, 11, 84
2, 85534, Note_on_c, 3, 86, 127
2, 85537, Control_c, 3, 11, 85
2, 85541, Control_c, 3, 11, 86
2, 85544, Control_c, 3, 11, 87
2, 85548, Control_c, 3, 11, 88
2, 85551, Control_c, 3, 11, 89
2, 85555, Control_c, 3, 11, 90
2, 85558, Control_c, 3, 11, 91
2, 85562, Control_c, 3, 11, 92
2, 85565, Control_c, 3, 11, 93
2, 85569, Control_c, 3, 11, 94
2, 85572, Control_c, 3, 11, 95
2, 85576, Control_c, 3, 11, 96
2, 85579, Control_c, 3, 11, 97
2, 85583, Control_c, 3, 11, 98
2, 85586, Control_c, 3, 11, 99
2, 85590, Control_c, 3, 11, 100
2, 85593, Control_c, 3, 11, 101
2, 85597, Control_c, 3, 11, 102
2, 85600, Control_c, 3, 11, 103
2, 85604, Control_c, 3, 11, 104
2, 85607, Control_c, 3, 11, 105
2, 85611, Control_c, 3, 11, 106
2, 85614, Control_c, 3, 11, 107
2, 85618, Control_c, 3, 11, 108
2, 85621, Control_c, 3, 11, 109
2, 85625, Control_c, 3, 11, 110
2, 85628, Control_c, 3, 11, 111
2, 85632, Control_c, 3, 11, 112
2, 85635, Control_c, 3, 11, 113
2, 85639, Control_c, 3, 11, 114
2, 85642, Control_c, 3, 11, 115
2, 85646, Control_c, 3, 11, 116
2, 85649, Control_c, 3, 11, 117
2, 85653, Control_c, 3, 11, 118
2, 85656, Control_c, 3, 11, 119
2, 85660, Control_c, 3, 11, 120
2, 85663, Control_c, 3, 11, 121
2, 85667, Control_c, 3, 11, 122
2, 85670, Control_c, 3, 11, 123
2, 85674, Control_c, 3, 11, 124
2, 85677, Control_c, 3, 11, 125
2, 85681, Control_c, 3, 11, 126
2, 85683, Control_c, 3, 11, 127
2, 85724, Note_on_c, 3, 86, 0
2, 85749, Note_on_c, 3, 82, 127
2, 85800, Note_on_c, 3, 82, 0
2, 85830, Note_on_c, 3, 77, 110
2, 85895, Note_on_c, 3, 77, 0
2, 85916, Note_on_c, 3, 75, 127
2, 86395, Note_on_c, 3, 68, 127
2, 86405, Note_on_c, 3, 75, 0
2, 86427, Note_on_c, 3, 70, 127
2, 86431, Note_on_c, 3, 68, 0
2, 86462, Note_on_c, 3, 75, 127
2, 86469, Note_on_c, 3, 70, 0
2, 86806, Note_on_c, 3, 68, 127
2, 86809, Note_on_c, 3, 75, 0
2, 86831, Note_on_c, 3, 70, 127
2, 86842, Note_on_c, 3, 68, 0
2, 86861, Note_on_c, 3, 70, 0
2, 86868, Note_on_c, 3, 75, 127
2, 86896, Note_on_c, 3, 75, 0
2, 86897, Note_on_c, 3, 76, 127
2, 86922, Note_on_c, 3, 76, 0
2, 86923, Note_on_c, 3, 75, 127
2, 87124, Note_on_c, 3, 75, 0
2, 87125, Note_on_c, 3, 75, 127
2, 87432, Note_on_c, 3, 68, 127
2, 87444, Note_on_c, 3, 75, 0
2, 87449, Note_on_c, 3, 70, 127
2, 87462, Note_on_c, 3, 68, 0
2, 87483, Note_on_c, 3, 75, 127
2, 87489, Note_on_c, 3, 70, 0
2, 87721, Control_c, 3, 11, 127
2, 87729, Pitch_bend_c, 3, 12288
2, 87736, Control_c, 3, 11, 124
2, 87752, Control_c, 3, 11, 122
2, 87767, Control_c, 3, 11, 119
2, 87783, Control_c, 3, 11, 117
2, 87798, Control_c, 3, 11, 114
2, 87814, Control_c, 3, 11, 112
2, 87829, Control_c, 3, 11, 109
2, 87844, Control_c, 3, 11, 107
2, 87846, Pitch_bend_c, 3, 12288
2, 87860, Control_c, 3, 11, 104
2, 87873, Pitch_bend_c, 3, 12229
2, 87875, Control_c, 3, 11, 102
2, 87891, Control_c, 3, 11, 99
2, 87895, Pitch_bend_c, 3, 8192
2, 87906, Control_c, 3, 11, 97
2, 87922, Control_c, 3, 11, 94
2, 87937, Control_c, 3, 11, 92
2, 87953, Control_c, 3, 11, 89
2, 87963, Pitch_bend_c, 3, 8328
2, 87965, Pitch_bend_c, 3, 8465
2, 87966, Pitch_bend_c, 3, 8738
2, 87968, Control_c, 3, 11, 87
2, 87968, Pitch_bend_c, 3, 9011
2, 87969, Pitch_bend_c, 3, 12288
2, 87983, Control_c, 3, 11, 84
2, 87998, Pitch_bend_c, 3, 8192
2, 87999, Control_c, 3, 11, 82
2, 88014, Control_c, 3, 11, 79
2, 88030, Control_c, 3, 11, 77
2, 88034, Pitch_bend_c, 3, 8328
2, 88035, Pitch_bend_c, 3, 8738
2, 88036, Pitch_bend_c, 3, 9011
2, 88037, Pitch_bend_c, 3, 9284
2, 88038, Pitch_bend_c, 3, 9558
2, 88040, Pitch_bend_c, 3, 9830
2, 88042, Pitch_bend_c, 3, 10240
2, 88044, Pitch_bend_c, 3, 12288
2, 88045, Control_c, 3, 11, 74
2, 88061, Control_c, 3, 11, 72
2, 88075, Pitch_bend_c, 3, 8192
2, 88076, Control_c, 3, 11, 69
2, 88080, Control_c, 3, 11, 70
2, 88096, Control_c, 3, 11, 67
2, 88111, Control_c, 3, 11, 63
2, 88127, Control_c, 3, 11, 60
2, 88142, Control_c, 3, 11, 56
2, 88158, Control_c, 3, 11, 53
2, 88173, Control_c, 3, 11, 49
2, 88189, Control_c, 3, 11, 46
2, 88205, Control_c, 3, 11, 42
2, 88220, Control_c, 3, 11, 39
2, 88236, Control_c, 3, 11, 35
2, 88251, Control_c, 3, 11, 32
2, 88267, Control_c, 3, 11, 28
2, 88282, Control_c, 3, 11, 25
2, 88298, Control_c, 3, 11, 21
2, 88312, Control_c, 3, 11, 18
2, 88327, Control_c, 3, 11, 16
2, 88342, Control_c, 3, 11, 14
2, 88357, Control_c, 3, 11, 11
2, 88372, Control_c, 3, 11, 9
2, 88387, Control_c, 3, 11, 7
2, 88402, Control_c, 3, 11, 5
2, 88417, Control_c, 3, 11, 2
2, 88442, Note_on_c, 3, 75, 0
2, 90600, Control_c, 3, 11, 127
2, 90600, End_track
3, 0, Start_track
3, 0, Title_t, "sax I"
3, 0, MIDI_port, 0
3, 5, Control_c, 1, 7, 127
3, 6, Control_c, 1, 10, 55
3, 7, Control_c, 1, 91, 39
3, 8, Control_c, 1, 11, 65
3, 9, Program_c, 1, 65
3, 15114, Note_on_c, 1, 60, 127
3, 15123, Control_c, 1, 11, 82
3, 15138, Control_c, 1, 11, 84
3, 15153, Control_c, 1, 11, 85
3, 15169, Control_c, 1, 11, 87
3, 15184, Control_c, 1, 11, 89
3, 15199, Control_c, 1, 11, 91
3, 15214, Control_c, 1, 11, 92
3, 15229, Control_c, 1, 11, 94
3, 15245, Control_c, 1, 11, 96
3, 15260, Control_c, 1, 11, 98
3, 15275, Control_c, 1, 11, 99
3, 15290, Control_c, 1, 11, 101
3, 15305, Control_c, 1, 11, 103
3, 15321, Control_c, 1, 11, 105
3, 15336, Control_c, 1, 11, 106
3, 15351, Control_c, 1, 11, 108
3, 15366, Control_c, 1, 11, 110
3, 15381, Control_c, 1, 11, 111
3, 15396, Control_c, 1, 11, 113
3, 15412, Control_c, 1, 11, 115
3, 15427, Control_c, 1, 11, 117
3, 15442, Control_c, 1, 11, 118
3, 15457, Control_c, 1, 11, 120
3, 15472, Control_c, 1, 11, 122
3, 15488, Control_c, 1, 11, 124
3, 15503, Control_c, 1, 11, 125
3, 15521, Control_c, 1, 11, 127
3, 15585, Note_on_c, 1, 60, 0
3, 15593, Note_on_c, 1, 69, 127
3, 15634, Note_on_c, 1, 69, 0
3, 15653, Note_on_c, 1, 71, 127
3, 15694, Note_on_c, 1, 71, 0
3, 15713, Note_on_c, 1, 67, 127
3, 15754, Note_on_c, 1, 67, 0
3, 15773, Note_on_c, 1, 62, 127
3, 15814, Note_on_c, 1, 62, 0
3, 15833, Note_on_c, 1, 55, 127
3, 16214, Note_on_c, 1, 55, 0
3, 16313, Note_on_c, 1, 60, 127
3, 16357, Note_on_c, 1, 60, 0
3, 16373, Note_on_c, 1, 74, 127
3, 16417, Note_on_c, 1, 74, 0
3, 16433, Note_on_c, 1, 71, 127
3, 16477, Note_on_c, 1, 71, 0
3, 16493, Note_on_c, 1, 69, 127
3, 16537, Note_on_c, 1, 69, 0
3, 16553, Note_on_c, 1, 58, 127
3, 16813, Note_on_c, 1, 58, 0
3, 16853, Note_on_c, 1, 64, 127
3, 16909, Note_on_c, 1, 64, 0
3, 16913, Note_on_c, 1, 65, 127
3, 16969, Note_on_c, 1, 65, 0
3, 16973, Note_on_c, 1, 62, 127
3, 17029, Note_on_c, 1, 62, 0
3, 17033, Note_on_c, 1, 64, 127
3, 17089, Note_on_c, 1, 64, 0
3, 17093, Note_on_c, 1, 69, 127
3, 17149, Note_on_c, 1, 69, 0
3, 17153, Note_on_c, 1, 62, 127
3, 17209, Note_on_c, 1, 62, 0
3, 17213, Note_on_c, 1, 55, 127
3, 17269, Note_on_c, 1, 55, 0
3, 17273, Note_on_c, 1, 57, 127
3, 17329, Note_on_c, 1, 57, 0
3, 17333, Note_on_c, 1, 64, 127
3, 17389, Note_on_c, 1, 64, 0
3, 17393, Note_on_c, 1, 62, 127
3, 17449, Note_on_c, 1, 62, 0
3, 17453, Note_on_c, 1, 59, 127
3, 17497, Note_on_c, 1, 59, 0
3, 17513, Note_on_c, 1, 48, 127
3, 17569, Note_on_c, 1, 48, 0
3, 17573, Note_on_c, 1, 55, 127
3, 17629, Note_on_c, 1, 55, 0
3, 17633, Note_on_c, 1, 62, 127
3, 17689, Note_on_c, 1, 62, 0
3, 17693, Note_on_c, 1, 69, 127
3, 17749, Note_on_c, 1, 69, 0
3, 17753, Note_on_c, 1, 71, 127
3, 17809, Note_on_c, 1, 71, 0
3, 17813, Note_on_c, 1, 66, 127
3, 17857, Note_on_c, 1, 66, 0
3, 18193, Control_c, 1, 1, 1
3, 18208, Control_c, 1, 1, 7
3, 18220, Control_c, 1, 11, 81
3, 18223, Control_c, 1, 1, 12
3, 18227, Control_c, 1, 11, 81
3, 18233, Note_on_c, 1, 60, 127
3, 18238, Control_c, 1, 1, 18
3, 18242, Control_c, 1, 11, 83
3, 18253, Control_c, 1, 1, 24
3, 18257, Control_c, 1, 11, 84
3, 18261, Control_c, 1, 11, 88
3, 18268, Control_c, 1, 1, 29
3, 18276, Control_c, 1, 11, 92
3, 18283, Control_c, 1, 1, 35
3, 18291, Control_c, 1, 11, 96
3, 18298, Control_c, 1, 1, 40
3, 18306, Control_c, 1, 11, 100
3, 18313, Control_c, 1, 1, 46
3, 18322, Control_c, 1, 11, 104
3, 18328, Control_c, 1, 1, 52
3, 18337, Control_c, 1, 11, 108
3, 18343, Control_c, 1, 1, 57
3, 18352, Control_c, 1, 11, 112
3, 18358, Control_c, 1, 1, 63
3, 18367, Control_c, 1, 11, 116
3, 18373, Control_c, 1, 1, 69
3, 18374, Control_c, 1, 1, 68
3, 18383, Control_c, 1, 11, 120
3, 18398, Control_c, 1, 11, 119
3, 18439, Control_c, 1, 11, 120
3, 18480, Control_c, 1, 11, 121
3, 18522, Control_c, 1, 11, 122
3, 18546, Note_on_c, 1, 60, 0
3, 18553, Note_on_c, 1, 57, 127
3, 18563, Control_c, 1, 11, 123
3, 18604, Control_c, 1, 11, 124
3, 18605, Note_on_c, 1, 57, 0
3, 18633, Note_on_c, 1, 52, 127
3, 18637, Control_c, 1, 11, 123
3, 18673, Control_c, 1, 11, 124
3, 18685, Note_on_c, 1, 52, 0
3, 18709, Control_c, 1, 11, 125
3, 18720, Control_c, 1, 1, 0
3, 18723, Control_c, 1, 1, 1
3, 18723, Note_on_c, 1, 64, 127
3, 18739, Control_c, 1, 1, 6
3, 18745, Control_c, 1, 11, 126
3, 18754, Control_c, 1, 11, 114
3, 18754, Control_c, 1, 1, 11
3, 18770, Control_c, 1, 1, 16
3, 18774, Control_c, 1, 11, 116
3, 18783, Control_c, 1, 11, 118
3, 18786, Control_c, 1, 1, 21
3, 18802, Control_c, 1, 1, 26
3, 18817, Control_c, 1, 1, 31
3, 18833, Control_c, 1, 1, 36
3, 18841, Control_c, 1, 11, 120
3, 18849, Control_c, 1, 1, 41
3, 18865, Control_c, 1, 1, 46
3, 18880, Control_c, 1, 1, 50
3, 18881, Control_c, 1, 11, 121
3, 18896, Control_c, 1, 1, 55
3, 18912, Control_c, 1, 1, 60
3, 18928, Control_c, 1, 1, 65
3, 18928, Control_c, 1, 11, 123
3, 18943, Control_c, 1, 11, 125
3, 18943, Control_c, 1, 1, 70
3, 18959, Control_c, 1, 1, 75
3, 18968, Control_c, 1, 11, 127
3, 18975, Control_c, 1, 1, 80
3, 18991, Control_c, 1, 1, 85
3, 19006, Control_c, 1, 1, 90
3, 19030, Control_c, 1, 1, 0
3, 19033, Note_on_c, 1, 60, 127
3, 19036, Note_on_c, 1, 64, 0
3, 19049, Control_c, 1, 11, 123
3, 19065, Control_c, 1, 11, 121
3, 19074, Control_c, 1, 11, 120
3, 19091, Control_c, 1, 11, 118
3, 19100, Control_c, 1, 11, 116
3, 19106, Note_on_c, 1, 60, 0
3, 19113, Note_on_c, 1, 55, 127
3, 19117, Control_c, 1, 11, 114
3, 19128, Control_c, 1, 11, 112
3, 19186, Note_on_c, 1, 55, 0
3, 19193, Note_on_c, 1, 50, 127
3, 19195, Control_c, 1, 11, 114
3, 19214, Control_c, 1, 11, 116
3, 19223, Control_c, 1, 11, 118
3, 19249, Note_on_c, 1, 50, 0
3, 19253, Note_on_c, 1, 57, 127
3, 19269, Control_c, 1, 11, 120
3, 19278, Control_c, 1, 11, 123
3, 19288, Control_c, 1, 11, 127
3, 19309, Note_on_c, 1, 57, 0
3, 19313, Note_on_c, 1, 64, 127
3, 19369, Note_on_c, 1, 64, 0
3, 19373, Note_on_c, 1, 71, 127
3, 19429, Note_on_c, 1, 71, 0
3, 19433, Note_on_c, 1, 48, 127
3, 19659, Note_on_c, 1, 48, 0
3, 19733, Note_on_c, 1, 53, 127
3, 19743, Control_c, 1, 11, 125
3, 19752, Control_c, 1, 11, 123
3, 19768, Control_c, 1, 11, 121
3, 19789, Note_on_c, 1, 53, 0
3, 19790, Control_c, 1, 11, 120
3, 19793, Note_on_c, 1, 55, 127
3, 19806, Control_c, 1, 11, 118
3, 19816, Control_c, 1, 11, 116
3, 19817, Control_c, 1, 11, 114
3, 19833, Control_c, 1, 11, 112
3, 19843, Control_c, 1, 11, 110
3, 19844, Control_c, 1, 11, 108
3, 19849, Note_on_c, 1, 55, 0
3, 19853, Note_on_c, 1, 64, 127
3, 19854, Control_c, 1, 11, 106
3, 19890, Control_c, 1, 11, 105
3, 19900, Control_c, 1, 11, 103
3, 19909, Note_on_c, 1, 64, 0
3, 19910, Control_c, 1, 11, 101
3, 19913, Note_on_c, 1, 66, 127
3, 19969, Note_on_c, 1, 66, 0
3, 19973, Note_on_c, 1, 71, 127
3, 19983, Control_c, 1, 11, 99
3, 20029, Note_on_c, 1, 71, 0
3, 20033, Note_on_c, 1, 64, 127
3, 20071, Control_c, 1, 11, 101
3, 20080, Control_c, 1, 11, 103
3, 20089, Note_on_c, 1, 64, 0
3, 20093, Note_on_c, 1, 57, 127
3, 20096, Control_c, 1, 11, 105
3, 20106, Control_c, 1, 11, 106
3, 20144, Control_c, 1, 11, 108
3, 20149, Note_on_c, 1, 57, 0
3, 20153, Note_on_c, 1, 52, 127
3, 20173, Control_c, 1, 11, 110
3, 20209, Note_on_c, 1, 52, 0
3, 20213, Note_on_c, 1, 54, 127
3, 20224, Control_c, 1, 11, 112
3, 20264, Control_c, 1, 11, 114
3, 20269, Note_on_c, 1, 54, 0
3, 20273, Note_on_c, 1, 62, 127
3, 20298, Control_c, 1, 11, 116
3, 20313, Control_c, 1, 11, 118
3, 20329, Note_on_c, 1, 62, 0
3, 20333, Note_on_c, 1, 64, 127
3, 20345, Control_c, 1, 11, 120
3, 20372, Control_c, 1, 11, 121
3, 20389, Note_on_c, 1, 64, 0
3, 20393, Note_on_c, 1, 66, 127
3, 20445, Control_c, 1, 11, 120
3, 20449, Note_on_c, 1, 66, 0
3, 20453, Note_on_c, 1, 62, 127
3, 20454, Control_c, 1, 11, 118
3, 20464, Control_c, 1, 11, 116
3, 20487, Control_c, 1, 11, 114
3, 20499, Control_c, 1, 11, 112
3, 20509, Note_on_c, 1, 62, 0
3, 20513, Note_on_c, 1, 57, 127
3, 20545, Control_c, 1, 11, 110
3, 20561, Control_c, 1, 11, 108
3, 20569, Note_on_c, 1, 57, 0
3, 20573, Note_on_c, 1, 59, 127
3, 20599, Control_c, 1, 11, 110
3, 20614, Control_c, 1, 11, 114
3, 20629, Note_on_c, 1, 59, 0
3, 20632, Control_c, 1, 11, 116
3, 20633, Note_on_c, 1, 71, 127
3, 20642, Control_c, 1, 11, 118
3, 20651, Control_c, 1, 11, 120
3, 20653, Control_c, 1, 11, 121
3, 20689, Note_on_c, 1, 71, 0
3, 20693, Control_c, 1, 11, 118
3, 20693, Note_on_c, 1, 69, 127
3, 20702, Control_c, 1, 11, 116
3, 20712, Control_c, 1, 11, 114
3, 20713, Control_c, 1, 11, 112
3, 20737, Control_c, 1, 11, 110
3, 20747, Control_c, 1, 11, 106
3, 20749, Note_on_c, 1, 69, 0
3, 20753, Note_on_c, 1, 64, 127
3, 20809, Note_on_c, 1, 64, 0
3, 20813, Note_on_c, 1, 66, 127
3, 20869, Note_on_c, 1, 66, 0
3, 20873, Control_c, 1, 11, 127
3, 20873, Note_on_c, 1, 71, 127
3, 20918, Note_on_c, 1, 71, 0
3, 20921, Note_on_c, 1, 71, 127
3, 20966, Note_on_c, 1, 71, 0
3, 20970, Note_on_c, 1, 71, 127
3, 21013, Note_on_c, 1, 71, 0
3, 21018, Note_on_c, 1, 71, 127
3, 21061, Note_on_c, 1, 71, 0
3, 21065, Note_on_c, 1, 74, 127
3, 21108, Note_on_c, 1, 74, 0
3, 21113, Note_on_c, 1, 71, 127
3, 21158, Note_on_c, 1, 71, 0
3, 21161, Note_on_c, 1, 71, 127
3, 21206, Note_on_c, 1, 71, 0
3, 21210, Note_on_c, 1, 71, 127
3, 21253, Note_on_c, 1, 71, 0
3, 21258, Note_on_c, 1, 71, 127
3, 21301, Note_on_c, 1, 71, 0
3, 21305, Note_on_c, 1, 74, 127
3, 21348, Note_on_c, 1, 74, 0
3, 21353, Note_on_c, 1, 71, 127
3, 21398, Note_on_c, 1, 71, 0
3, 21401, Note_on_c, 1, 71, 127
3, 21446, Note_on_c, 1, 71, 0
3, 21450, Note_on_c, 1, 71, 127
3, 21493, Note_on_c, 1, 71, 0
3, 21498, Note_on_c, 1, 71, 127
3, 21541, Note_on_c, 1, 71, 0
3, 21545, Note_on_c, 1, 74, 127
3, 21588, Note_on_c, 1, 74, 0
3, 21593, Note_on_c, 1, 71, 127
3, 21638, Note_on_c, 1, 71, 0
3, 21641, Note_on_c, 1, 71, 127
3, 21686, Note_on_c, 1, 71, 0
3, 21690, Note_on_c, 1, 71, 127
3, 21733, Note_on_c, 1, 71, 0
3, 21738, Note_on_c, 1, 71, 127
3, 21781, Note_on_c, 1, 71, 0
3, 21785, Note_on_c, 1, 74, 127
3, 21828, Note_on_c, 1, 74, 0
3, 21833, Note_on_c, 1, 71, 127
3, 21878, Note_on_c, 1, 71, 0
3, 21881, Note_on_c, 1, 71, 127
3, 21926, Note_on_c, 1, 71, 0
3, 21930, Note_on_c, 1, 71, 127
3, 21973, Note_on_c, 1, 71, 0
3, 21978, Note_on_c, 1, 71, 127
3, 22021, Note_on_c, 1, 71, 0
3, 22025, Note_on_c, 1, 74, 127
3, 22068, Note_on_c, 1, 74, 0
3, 22073, Note_on_c, 1, 71, 127
3, 22118, Note_on_c, 1, 71, 0
3, 22121, Note_on_c, 1, 71, 127
3, 22166, Note_on_c, 1, 71, 0
3, 22170, Note_on_c, 1, 71, 127
3, 22213, Note_on_c, 1, 71, 0
3, 22218, Note_on_c, 1, 71, 127
3, 22261, Note_on_c, 1, 71, 0
3, 22265, Note_on_c, 1, 74, 127
3, 22308, Note_on_c, 1, 74, 0
3, 22560, Note_on_c, 1, 56, 127
3, 22596, Note_on_c, 1, 56, 0
3, 22608, Note_on_c, 1, 56, 127
3, 22644, Note_on_c, 1, 56, 0
3, 22657, Note_on_c, 1, 56, 127
3, 22691, Note_on_c, 1, 56, 0
3, 22705, Note_on_c, 1, 56, 127
3, 22739, Note_on_c, 1, 56, 0
3, 22752, Note_on_c, 1, 59, 127
3, 22786, Note_on_c, 1, 59, 0
3, 22800, Note_on_c, 1, 56, 127
3, 22836, Note_on_c, 1, 56, 0
3, 22848, Note_on_c, 1, 56, 127
3, 22884, Note_on_c, 1, 56, 0
3, 22897, Note_on_c, 1, 56, 127
3, 22931, Note_on_c, 1, 56, 0
3, 22945, Note_on_c, 1, 56, 127
3, 22979, Note_on_c, 1, 56, 0
3, 22992, Note_on_c, 1, 59, 127
3, 23026, Note_on_c, 1, 59, 0
3, 23278, Note_on_c, 1, 57, 127
3, 23318, Note_on_c, 1, 57, 0
3, 23326, Note_on_c, 1, 57, 127
3, 23366, Note_on_c, 1, 57, 0
3, 23375, Note_on_c, 1, 57, 127
3, 23413, Note_on_c, 1, 57, 0
3, 23423, Note_on_c, 1, 57, 127
3, 23461, Note_on_c, 1, 57, 0
3, 23470, Note_on_c, 1, 60, 127
3, 23508, Note_on_c, 1, 60, 0
3, 23518, Note_on_c, 1, 57, 127
3, 23546, Note_on_c, 1, 57, 0
3, 23548, Note_on_c, 1, 57, 127
3, 23576, Note_on_c, 1, 57, 0
3, 23578, Note_on_c, 1, 57, 127
3, 23606, Note_on_c, 1, 57, 0
3, 23608, Note_on_c, 1, 60, 127
3, 23636, Note_on_c, 1, 60, 0
3, 23638, Note_on_c, 1, 57, 127
3, 23666, Note_on_c, 1, 57, 0
3, 23668, Note_on_c, 1, 57, 127
3, 23696, Note_on_c, 1, 57, 0
3, 23698, Note_on_c, 1, 57, 127
3, 23726, Note_on_c, 1, 57, 0
3, 23728, Note_on_c, 1, 60, 127
3, 23753, Note_on_c, 1, 69, 127
3, 23756, Note_on_c, 1, 60, 0
3, 23784, Note_on_c, 1, 69, 0
3, 23813, Note_on_c, 1, 69, 127
3, 23844, Note_on_c, 1, 69, 0
3, 23873, Note_on_c, 1, 69, 127
3, 23929, Note_on_c, 1, 69, 0
3, 23933, Note_on_c, 1, 72, 127
3, 23993, Note_on_c, 1, 72, 0
3, 23993, Note_on_c, 1, 69, 127
3, 24024, Note_on_c, 1, 69, 0
3, 24053, Note_on_c, 1, 69, 127
3, 24084, Note_on_c, 1, 69, 0
3, 24113, Note_on_c, 1, 69, 127
3, 24169, Note_on_c, 1, 69, 0
3, 24173, Note_on_c, 1, 72, 127
3, 24233, Note_on_c, 1, 68, 127
3, 24235, Note_on_c, 1, 72, 0
3, 24264, Note_on_c, 1, 68, 0
3, 24293, Note_on_c, 1, 68, 127
3, 24324, Note_on_c, 1, 68, 0
3, 24353, Note_on_c, 1, 68, 127
3, 24409, Note_on_c, 1, 68, 0
3, 24413, Note_on_c, 1, 72, 127
3, 24471, Note_on_c, 1, 72, 0
3, 24473, Note_on_c, 1, 68, 127
3, 24504, Note_on_c, 1, 68, 0
3, 24533, Note_on_c, 1, 68, 127
3, 24564, Note_on_c, 1, 68, 0
3, 24593, Note_on_c, 1, 68, 127
3, 24649, Note_on_c, 1, 68, 0
3, 24653, Note_on_c, 1, 72, 127
3, 24713, Note_on_c, 1, 72, 0
3, 24713, Note_on_c, 1, 67, 127
3, 24744, Note_on_c, 1, 67, 0
3, 24773, Note_on_c, 1, 67, 127
3, 24804, Note_on_c, 1, 67, 0
3, 24833, Note_on_c, 1, 67, 127
3, 24888, Note_on_c, 1, 67, 0
3, 24893, Note_on_c, 1, 72, 127
3, 24949, Note_on_c, 1, 72, 0
3, 24953, Note_on_c, 1, 67, 127
3, 24990, Note_on_c, 1, 67, 0
3, 24993, Note_on_c, 1, 72, 127
3, 25030, Note_on_c, 1, 72, 0
3, 25033, Note_on_c, 1, 67, 127
3, 25070, Note_on_c, 1, 67, 0
3, 25073, Note_on_c, 1, 66, 127
3, 25110, Note_on_c, 1, 66, 0
3, 25112, Control_c, 1, 1, 50
3, 25113, Note_on_c, 1, 65, 127
3, 25680, Program_c, 1, 67
3, 25728, Control_c, 1, 1, 0
3, 25729, Note_on_c, 1, 59, 127
3, 25743, Note_on_c, 1, 65, 0
3, 25754, Note_on_c, 1, 57, 127
3, 25760, Note_on_c, 1, 59, 0
3, 25779, Note_on_c, 1, 55, 127
3, 25790, Note_on_c, 1, 57, 0
3, 25804, Note_on_c, 1, 53, 127
3, 25806, Note_on_c, 1, 55, 0
3, 25829, Note_on_c, 1, 51, 127
3, 25834, Note_on_c, 1, 53, 0
3, 25854, Note_on_c, 1, 49, 127
3, 25856, Note_on_c, 1, 51, 0
3, 25878, Note_on_c, 1, 49, 0
3, 25881, Note_on_c, 1, 47, 127
3, 25916, Control_c, 1, 11, 121
3, 25997, Control_c, 1, 11, 119
3, 26014, Control_c, 1, 11, 118
3, 26030, Control_c, 1, 11, 117
3, 26047, Control_c, 1, 11, 116
3, 26064, Control_c, 1, 11, 115
3, 26080, Control_c, 1, 11, 114
3, 26097, Control_c, 1, 11, 113
3, 26114, Control_c, 1, 11, 112
3, 26130, Control_c, 1, 11, 111
3, 26147, Control_c, 1, 11, 110
3, 26164, Control_c, 1, 11, 109
3, 26180, Control_c, 1, 11, 108
3, 26197, Control_c, 1, 11, 107
3, 26214, Control_c, 1, 11, 106
3, 26230, Control_c, 1, 11, 105
3, 26247, Control_c, 1, 11, 104
3, 26264, Control_c, 1, 11, 103
3, 26280, Control_c, 1, 11, 102
3, 26297, Control_c, 1, 11, 101
3, 26314, Control_c, 1, 11, 100
3, 26330, Control_c, 1, 11, 99
3, 26347, Control_c, 1, 11, 98
3, 26364, Control_c, 1, 11, 97
3, 26380, Control_c, 1, 11, 96
3, 26397, Control_c, 1, 11, 95
3, 26414, Control_c, 1, 11, 94
3, 26430, Control_c, 1, 11, 93
3, 26447, Control_c, 1, 11, 92
3, 26464, Control_c, 1, 11, 91
3, 26480, Control_c, 1, 11, 90
3, 26497, Control_c, 1, 11, 89
3, 26514, Control_c, 1, 11, 88
3, 26530, Control_c, 1, 11, 87
3, 26547, Control_c, 1, 11, 86
3, 26564, Control_c, 1, 11, 85
3, 26580, Control_c, 1, 11, 84
3, 26597, Control_c, 1, 11, 83
3, 26614, Control_c, 1, 11, 82
3, 26630, Control_c, 1, 11, 81
3, 26647, Control_c, 1, 11, 80
3, 26664, Control_c, 1, 11, 79
3, 26680, Control_c, 1, 11, 78
3, 26697, Control_c, 1, 11, 77
3, 26714, Control_c, 1, 11, 76
3, 26730, Control_c, 1, 11, 75
3, 26747, Control_c, 1, 11, 74
3, 26764, Control_c, 1, 11, 73
3, 26780, Control_c, 1, 11, 72
3, 26797, Control_c, 1, 11, 71
3, 26814, Control_c, 1, 11, 70
3, 26830, Control_c, 1, 11, 69
3, 26847, Control_c, 1, 11, 68
3, 26864, Control_c, 1, 11, 67
3, 26880, Control_c, 1, 11, 66
3, 26897, Control_c, 1, 11, 65
3, 26903, Control_c, 1, 11, 64
3, 27612, Control_c, 1, 11, 63
3, 27613, Control_c, 1, 11, 62
3, 27629, Control_c, 1, 11, 61
3, 27645, Control_c, 1, 11, 60
3, 27660, Control_c, 1, 11, 59
3, 27676, Control_c, 1, 11, 58
3, 27692, Control_c, 1, 11, 57
3, 27708, Control_c, 1, 11, 56
3, 27723, Control_c, 1, 11, 55
3, 27739, Control_c, 1, 11, 54
3, 27755, Control_c, 1, 11, 53
3, 27771, Control_c, 1, 11, 52
3, 27786, Control_c, 1, 11, 51
3, 27802, Control_c, 1, 11, 50
3, 27818, Control_c, 1, 11, 49
3, 27834, Control_c, 1, 11, 48
3, 27849, Control_c, 1, 11, 47
3, 27865, Control_c, 1, 11, 46
3, 27881, Control_c, 1, 11, 45
3, 27897, Control_c, 1, 11, 44
3, 27912, Control_c, 1, 11, 43
3, 27928, Control_c, 1, 11, 42
3, 27944, Control_c, 1, 11, 41
3, 27960, Control_c, 1, 11, 40
3, 27976, Control_c, 1, 11, 39
3, 27991, Control_c, 1, 11, 38
3, 28007, Control_c, 1, 11, 37
3, 28023, Control_c, 1, 11, 36
3, 28039, Control_c, 1, 11, 35
3, 28054, Control_c, 1, 11, 34
3, 28070, Control_c, 1, 11, 33
3, 28086, Control_c, 1, 11, 32
3, 28102, Control_c, 1, 11, 31
3, 28117, Control_c, 1, 11, 30
3, 28133, Control_c, 1, 11, 29
3, 28149, Control_c, 1, 11, 28
3, 28165, Control_c, 1, 11, 27
3, 28180, Control_c, 1, 11, 26
3, 28196, Control_c, 1, 11, 25
3, 28212, Control_c, 1, 11, 24
3, 28228, Control_c, 1, 11, 23
3, 28238, Note_on_c, 1, 47, 0
3, 28243, Control_c, 1, 11, 22
3, 28259, Control_c, 1, 11, 21
3, 28275, Control_c, 1, 11, 20
3, 28291, Control_c, 1, 11, 19
3, 28306, Control_c, 1, 11, 18
3, 28322, Control_c, 1, 11, 17
3, 28338, Control_c, 1, 11, 16
3, 28785, Control_c, 1, 11, 15
3, 29529, Program_c, 1, 65
3, 29529, Control_c, 1, 11, 127
3, 29760, Note_on_c, 1, 59, 60
3, 30079, Note_on_c, 1, 59, 0
3, 30080, Note_on_c, 1, 71, 60
3, 30162, Note_on_c, 1, 73, 60
3, 30166, Note_on_c, 1, 71, 0
3, 30241, Note_on_c, 1, 71, 60
3, 30242, Note_on_c, 1, 73, 0
3, 30318, Note_on_c, 1, 71, 0
3, 30320, Note_on_c, 1, 71, 60
3, 30399, Note_on_c, 1, 71, 0
3, 30400, Note_on_c, 1, 71, 60
3, 30478, Note_on_c, 1, 71, 0
3, 30480, Note_on_c, 1, 71, 60
3, 30540, Note_on_c, 1, 73, 60
3, 30548, Note_on_c, 1, 71, 0
3, 30570, Note_on_c, 1, 71, 60
3, 30581, Note_on_c, 1, 73, 0
3, 30600, Note_on_c, 1, 70, 60
3, 30611, Note_on_c, 1, 71, 0
3, 31226, Note_on_c, 1, 70, 0
3, 31680, Note_on_c, 1, 56, 60
3, 31976, Note_on_c, 1, 56, 0
3, 31978, Note_on_c, 1, 58, 60
3, 31993, Note_on_c, 1, 60, 60
3, 31996, Note_on_c, 1, 58, 0
3, 32004, Note_on_c, 1, 62, 60
3, 32007, Note_on_c, 1, 60, 0
3, 32014, Note_on_c, 1, 63, 60
3, 32017, Note_on_c, 1, 62, 0
3, 32024, Note_on_c, 1, 65, 60
3, 32026, Note_on_c, 1, 63, 0
3, 32033, Note_on_c, 1, 67, 60
3, 32036, Note_on_c, 1, 65, 0
3, 32044, Note_on_c, 1, 68, 60
3, 32046, Note_on_c, 1, 67, 0
3, 32055, Note_on_c, 1, 70, 60
3, 32061, Note_on_c, 1, 68, 0
3, 33101, Note_on_c, 1, 70, 0
3, 33121, Note_on_c, 1, 56, 60
3, 33359, Note_on_c, 1, 56, 0
3, 33363, Note_on_c, 1, 68, 60
3, 33650, Note_on_c, 1, 68, 0
3, 33668, Note_on_c, 1, 56, 60
3, 33768, Note_on_c, 1, 56, 0
3, 33769, Note_on_c, 1, 68, 60
3, 33840, Note_on_c, 1, 68, 0
3, 33900, Note_on_c, 1, 56, 60
3, 34256, Note_on_c, 1, 56, 0
3, 34260, Note_on_c, 1, 68, 60
3, 34431, Note_on_c, 1, 68, 0
3, 34440, Note_on_c, 1, 66, 60
3, 34551, Note_on_c, 1, 66, 0
3, 34558, Note_on_c, 1, 70, 60
3, 35259, Note_on_c, 1, 70, 0
3, 37500, Note_on_c, 1, 70, 43
3, 37680, Note_on_c, 1, 80, 47
3, 37690, Note_on_c, 1, 70, 0
3, 37860, Note_on_c, 1, 70, 47
3, 37867, Note_on_c, 1, 80, 0
3, 37920, Note_on_c, 1, 80, 47
3, 37926, Note_on_c, 1, 70, 0
3, 38141, Note_on_c, 1, 80, 0
3, 38160, Note_on_c, 1, 69, 47
3, 38341, Note_on_c, 1, 79, 47
3, 38346, Note_on_c, 1, 69, 0
3, 38572, Note_on_c, 1, 79, 0
3, 38580, Note_on_c, 1, 69, 47
3, 38757, Note_on_c, 1, 79, 47
3, 38766, Note_on_c, 1, 69, 0
3, 38916, Control_c, 1, 11, 126
3, 38931, Control_c, 1, 11, 122
3, 38946, Control_c, 1, 11, 118
3, 38962, Control_c, 1, 11, 113
3, 38977, Control_c, 1, 11, 109
3, 38992, Control_c, 1, 11, 105
3, 39007, Control_c, 1, 11, 101
3, 39017, Control_c, 1, 11, 100
3, 39559, Note_on_c, 1, 79, 0
3, 39600, Control_c, 1, 11, 127
3, 58440, Note_on_c, 1, 58, 100
3, 58551, Note_on_c, 1, 58, 0
3, 58560, Note_on_c, 1, 69, 100
3, 58633, Note_on_c, 1, 69, 0
3, 58640, Note_on_c, 1, 67, 100
3, 58713, Note_on_c, 1, 67, 0
3, 58720, Note_on_c, 1, 58, 100
3, 58793, Note_on_c, 1, 58, 0
3, 58800, Note_on_c, 1, 60, 100
3, 58856, Note_on_c, 1, 60, 0
3, 58860, Note_on_c, 1, 62, 100
3, 58916, Note_on_c, 1, 62, 0
3, 58920, Note_on_c, 1, 60, 100
3, 58976, Note_on_c, 1, 60, 0
3, 58980, Note_on_c, 1, 58, 100
3, 59036, Note_on_c, 1, 58, 0
3, 59040, Note_on_c, 1, 57, 100
3, 59096, Note_on_c, 1, 57, 0
3, 59100, Note_on_c, 1, 62, 100
3, 59156, Note_on_c, 1, 62, 0
3, 59160, Note_on_c, 1, 67, 100
3, 59216, Note_on_c, 1, 67, 0
3, 59220, Note_on_c, 1, 72, 100
3, 59276, Note_on_c, 1, 72, 0
3, 59281, Note_on_c, 1, 77, 100
3, 59284, Note_on_c, 1, 69, 100
3, 59723, Note_on_c, 1, 77, 0
3, 59724, Note_on_c, 1, 69, 0
3, 59820, Note_on_c, 1, 74, 100
3, 59876, Note_on_c, 1, 74, 0
3, 59880, Note_on_c, 1, 72, 100
3, 59936, Note_on_c, 1, 72, 0
3, 59940, Note_on_c, 1, 67, 100
3, 59996, Note_on_c, 1, 67, 0
3, 60000, Note_on_c, 1, 62, 100
3, 60056, Note_on_c, 1, 62, 0
3, 60060, Note_on_c, 1, 70, 100
3, 60116, Note_on_c, 1, 70, 0
3, 60120, Note_on_c, 1, 69, 100
3, 60123, Note_on_c, 1, 67, 100
3, 60128, Control_c, 1, 11, 89
3, 60143, Control_c, 1, 11, 92
3, 60159, Control_c, 1, 11, 96
3, 60174, Control_c, 1, 11, 99
3, 60189, Control_c, 1, 11, 103
3, 60205, Control_c, 1, 11, 106
3, 60220, Control_c, 1, 11, 110
3, 60236, Control_c, 1, 11, 113
3, 60251, Control_c, 1, 11, 117
3, 60266, Control_c, 1, 11, 120
3, 60282, Control_c, 1, 11, 124
3, 60283, Control_c, 1, 11, 123
3, 60286, Control_c, 1, 11, 124
3, 60289, Control_c, 1, 11, 125
3, 60291, Control_c, 1, 11, 126
3, 60293, Control_c, 1, 11, 127
3, 60351, Note_on_c, 1, 69, 0
3, 60354, Note_on_c, 1, 67, 0
3, 60840, Note_on_c, 1, 62, 100
3, 60896, Note_on_c, 1, 62, 0
3, 60900, Note_on_c, 1, 70, 100
3, 60956, Note_on_c, 1, 70, 0
3, 60961, Note_on_c, 1, 65, 120
3, 60961, Note_on_c, 1, 70, 100
3, 60974, Control_c, 1, 11, 87
3, 60978, Control_c, 1, 11, 88
3, 60982, Control_c, 1, 11, 89
3, 60986, Control_c, 1, 11, 90
3, 60990, Control_c, 1, 11, 91
3, 60994, Control_c, 1, 11, 92
3, 60998, Control_c, 1, 11, 93
3, 61002, Control_c, 1, 11, 94
3, 61006, Control_c, 1, 11, 95
3, 61010, Control_c, 1, 11, 96
3, 61014, Control_c, 1, 11, 97
3, 61017, Control_c, 1, 11, 98
3, 61021, Control_c, 1, 11, 99
3, 61025, Control_c, 1, 11, 100
3, 61029, Control_c, 1, 11, 101
3, 61033, Control_c, 1, 11, 102
3, 61037, Control_c, 1, 11, 103
3, 61041, Control_c, 1, 11, 104
3, 61045, Control_c, 1, 11, 105
3, 61049, Control_c, 1, 11, 106
3, 61053, Control_c, 1, 11, 107
3, 61057, Control_c, 1, 11, 108
3, 61061, Control_c, 1, 11, 109
3, 61065, Control_c, 1, 11, 110
3, 61069, Control_c, 1, 11, 111
3, 61073, Control_c, 1, 11, 112
3, 61077, Control_c, 1, 11, 113
3, 61081, Control_c, 1, 11, 114
3, 61085, Control_c, 1, 11, 115
3, 61089, Control_c, 1, 11, 116
3, 61093, Control_c, 1, 11, 117
3, 61096, Control_c, 1, 11, 118
3, 61100, Control_c, 1, 11, 119
3, 61104, Control_c, 1, 11, 120
3, 61108, Control_c, 1, 11, 121
3, 61112, Control_c, 1, 11, 122
3, 61116, Control_c, 1, 11, 123
3, 61120, Control_c, 1, 11, 124
3, 61124, Control_c, 1, 11, 125
3, 61128, Control_c, 1, 11, 126
3, 61132, Control_c, 1, 11, 127
3, 61182, Note_on_c, 1, 65, 0
3, 61182, Note_on_c, 1, 70, 0
3, 61260, Note_on_c, 1, 55, 100
3, 61316, Note_on_c, 1, 55, 0
3, 61321, Note_on_c, 1, 53, 100
3, 61377, Note_on_c, 1, 53, 0
3, 61380, Note_on_c, 1, 55, 100
3, 61436, Note_on_c, 1, 55, 0
3, 61440, Note_on_c, 1, 69, 100
3, 61496, Note_on_c, 1, 69, 0
3, 61500, Note_on_c, 1, 76, 100
3, 61556, Note_on_c, 1, 76, 0
3, 61560, Note_on_c, 1, 65, 100
3, 61616, Note_on_c, 1, 65, 0
3, 61620, Note_on_c, 1, 74, 100
3, 61676, Note_on_c, 1, 74, 0
3, 61680, Note_on_c, 1, 64, 100
3, 61736, Note_on_c, 1, 64, 0
3, 61740, Note_on_c, 1, 72, 100
3, 61796, Note_on_c, 1, 72, 0
3, 61800, Note_on_c, 1, 64, 100
3, 61856, Note_on_c, 1, 64, 0
3, 61860, Note_on_c, 1, 65, 100
3, 61916, Note_on_c, 1, 65, 0
3, 61924, Note_on_c, 1, 67, 100
3, 61980, Note_on_c, 1, 67, 0
3, 61984, Note_on_c, 1, 65, 100
3, 62039, Note_on_c, 1, 65, 0
3, 62040, Note_on_c, 1, 58, 100
3, 62040, Note_on_c, 1, 65, 100
3, 62095, Note_on_c, 1, 65, 0
3, 62096, Note_on_c, 1, 58, 0
3, 62100, Note_on_c, 1, 57, 100
3, 62100, Note_on_c, 1, 64, 100
3, 62156, Note_on_c, 1, 57, 0
3, 62156, Note_on_c, 1, 64, 0
3, 62160, Note_on_c, 1, 74, 100
3, 62160, Note_on_c, 1, 67, 100
3, 62216, Note_on_c, 1, 74, 0
3, 62216, Note_on_c, 1, 67, 0
3, 62220, Note_on_c, 1, 72, 100
3, 62221, Note_on_c, 1, 65, 100
3, 62276, Note_on_c, 1, 72, 0
3, 62277, Note_on_c, 1, 65, 0
3, 62520, Note_on_c, 1, 55, 100
3, 62576, Note_on_c, 1, 55, 0
3, 62580, Note_on_c, 1, 57, 100
3, 62636, Note_on_c, 1, 57, 0
3, 62640, Note_on_c, 1, 69, 100
3, 62641, Note_on_c, 1, 70, 100
3, 62643, Note_on_c, 1, 65, 113
3, 62652, Control_c, 1, 11, 83
3, 62668, Control_c, 1, 11, 86
3, 62684, Control_c, 1, 11, 89
3, 62700, Control_c, 1, 11, 92
3, 62716, Control_c, 1, 11, 95
3, 62732, Control_c, 1, 11, 98
3, 62748, Control_c, 1, 11, 101
3, 62764, Control_c, 1, 11, 104
3, 62779, Control_c, 1, 11, 106
3, 62795, Control_c, 1, 11, 109
3, 62811, Control_c, 1, 11, 112
3, 62827, Control_c, 1, 11, 115
3, 62843, Control_c, 1, 11, 118
3, 62859, Control_c, 1, 11, 121
3, 62875, Control_c, 1, 11, 124
3, 63279, Note_on_c, 1, 65, 0
3, 63296, Note_on_c, 1, 69, 0
3, 63297, Note_on_c, 1, 70, 0
3, 63300, Note_on_c, 1, 67, 100
3, 63301, Note_on_c, 1, 64, 118
3, 63411, Note_on_c, 1, 67, 0
3, 63414, Note_on_c, 1, 64, 0
3, 63420, Note_on_c, 1, 60, 100
3, 63421, Note_on_c, 1, 57, 100
3, 63586, Note_on_c, 1, 60, 0
3, 63596, Note_on_c, 1, 57, 0
3, 63599, Control_c, 1, 11, 127
3, 63600, Note_on_c, 1, 62, 100
3, 63604, Note_on_c, 1, 57, 100
3, 64430, Note_on_c, 1, 62, 0
3, 64434, Note_on_c, 1, 57, 0
3, 75122, Note_on_c, 1, 48, 80
3, 75600, Note_on_c, 1, 57, 101
3, 75652, Note_on_c, 1, 57, 0
3, 75660, Note_on_c, 1, 71, 101
3, 75709, Note_on_c, 1, 71, 0
3, 75720, Note_on_c, 1, 67, 101
3, 75772, Note_on_c, 1, 67, 0
3, 75780, Note_on_c, 1, 62, 101
3, 75834, Note_on_c, 1, 62, 0
3, 75839, Note_on_c, 1, 55, 101
3, 75847, Note_on_c, 1, 48, 0
3, 75960, Control_c, 1, 11, 126
3, 75974, Control_c, 1, 11, 125
3, 75989, Control_c, 1, 11, 123
3, 76005, Control_c, 1, 11, 120
3, 76020, Control_c, 1, 11, 118
3, 76035, Control_c, 1, 11, 116
3, 76051, Control_c, 1, 11, 113
3, 76066, Control_c, 1, 11, 111
3, 76082, Control_c, 1, 11, 108
3, 76097, Control_c, 1, 11, 106
3, 76112, Control_c, 1, 11, 104
3, 76128, Control_c, 1, 11, 101
3, 76143, Control_c, 1, 11, 99
3, 76158, Control_c, 1, 11, 97
3, 76174, Control_c, 1, 11, 94
3, 76189, Control_c, 1, 11, 92
3, 76204, Control_c, 1, 11, 90
3, 76220, Control_c, 1, 11, 87
3, 76235, Control_c, 1, 11, 85
3, 76251, Control_c, 1, 11, 82
3, 76266, Control_c, 1, 11, 80
3, 76281, Control_c, 1, 11, 78
3, 76297, Control_c, 1, 11, 75
3, 76318, Control_c, 1, 11, 127
3, 76319, Note_on_c, 1, 60, 101
3, 76336, Note_on_c, 1, 55, 0
3, 76363, Note_on_c, 1, 60, 0
3, 76379, Note_on_c, 1, 74, 101
3, 76439, Note_on_c, 1, 71, 101
3, 76440, Note_on_c, 1, 74, 0
3, 76495, Note_on_c, 1, 71, 0
3, 76499, Note_on_c, 1, 69, 101
3, 76559, Note_on_c, 1, 69, 0
3, 76559, Note_on_c, 1, 58, 101
3, 76560, Note_on_c, 1, 46, 101
3, 76819, Note_on_c, 1, 58, 0
3, 76859, Note_on_c, 1, 64, 101
3, 76915, Note_on_c, 1, 64, 0
3, 76919, Note_on_c, 1, 65, 101
3, 76975, Note_on_c, 1, 65, 0
3, 76979, Note_on_c, 1, 62, 101
3, 77035, Note_on_c, 1, 62, 0
3, 77039, Note_on_c, 1, 64, 101
3, 77095, Note_on_c, 1, 64, 0
3, 77099, Note_on_c, 1, 69, 101
3, 77155, Note_on_c, 1, 69, 0
3, 77159, Note_on_c, 1, 62, 101
3, 77215, Note_on_c, 1, 62, 0
3, 77219, Note_on_c, 1, 55, 101
3, 77238, Note_on_c, 1, 46, 0
3, 77275, Note_on_c, 1, 55, 0
3, 77279, Note_on_c, 1, 57, 101
3, 77335, Note_on_c, 1, 57, 0
3, 77339, Note_on_c, 1, 64, 101
3, 77395, Note_on_c, 1, 64, 0
3, 77399, Note_on_c, 1, 62, 101
3, 77455, Note_on_c, 1, 62, 0
3, 77459, Note_on_c, 1, 59, 101
3, 77503, Note_on_c, 1, 59, 0
3, 77519, Note_on_c, 1, 48, 101
3, 77575, Note_on_c, 1, 48, 0
3, 77579, Note_on_c, 1, 55, 101
3, 77635, Note_on_c, 1, 55, 0
3, 77639, Note_on_c, 1, 62, 101
3, 77695, Note_on_c, 1, 62, 0
3, 77700, Note_on_c, 1, 69, 101
3, 77756, Note_on_c, 1, 69, 0
3, 77759, Note_on_c, 1, 71, 101
3, 77815, Note_on_c, 1, 71, 0
3, 77819, Note_on_c, 1, 66, 101
3, 77863, Note_on_c, 1, 66, 0
3, 80159, Note_on_c, 1, 66, 101
3, 80215, Note_on_c, 1, 66, 0
3, 80223, Note_on_c, 1, 69, 101
3, 80279, Note_on_c, 1, 69, 0
3, 80281, Note_on_c, 1, 64, 101
3, 80337, Note_on_c, 1, 64, 0
3, 80340, Note_on_c, 1, 62, 101
3, 80396, Note_on_c, 1, 62, 0
3, 80401, Note_on_c, 1, 64, 101
3, 80457, Note_on_c, 1, 64, 0
3, 80459, Note_on_c, 1, 62, 101
3, 80515, Note_on_c, 1, 62, 0
3, 80520, Note_on_c, 1, 66, 101
3, 80555, Note_on_c, 1, 66, 0
3, 80560, Note_on_c, 1, 69, 101
3, 80600, Note_on_c, 1, 73, 101
3, 80603, Note_on_c, 1, 69, 0
3, 80637, Note_on_c, 1, 73, 0
3, 80639, Note_on_c, 1, 71, 101
3, 80699, Note_on_c, 1, 69, 101
3, 80703, Note_on_c, 1, 71, 0
3, 80760, Note_on_c, 1, 69, 0
3, 80763, Note_on_c, 1, 62, 101
3, 80819, Note_on_c, 1, 62, 0
3, 80823, Note_on_c, 1, 64, 101
3, 80879, Note_on_c, 1, 64, 0
3, 80886, Note_on_c, 1, 69, 110
3, 80943, Note_on_c, 1, 69, 0
3, 80943, Note_on_c, 1, 67, 64
3, 80996, Note_on_c, 1, 67, 0
3, 80998, Note_on_c, 1, 69, 113
3, 81054, Note_on_c, 1, 67, 74
3, 81058, Note_on_c, 1, 69, 0
3, 81112, Note_on_c, 1, 67, 0
3, 81117, Note_on_c, 1, 69, 103
3, 81169, Note_on_c, 1, 67, 61
3, 81170, Note_on_c, 1, 69, 0
3, 81235, Note_on_c, 1, 67, 0
3, 81235, Note_on_c, 1, 69, 103
3, 81295, Note_on_c, 1, 67, 59
3, 81305, Note_on_c, 1, 69, 0
3, 81354, Note_on_c, 1, 67, 0
3, 81360, Note_on_c, 1, 69, 103
3, 81413, Note_on_c, 1, 67, 70
3, 81424, Note_on_c, 1, 69, 0
3, 81478, Note_on_c, 1, 67, 0
3, 81479, Note_on_c, 1, 69, 110
3, 81536, Note_on_c, 1, 67, 64
3, 81542, Note_on_c, 1, 69, 0
3, 81602, Note_on_c, 1, 67, 0
3, 81603, Note_on_c, 1, 69, 110
3, 81659, Note_on_c, 1, 67, 59
3, 81667, Note_on_c, 1, 69, 0
3, 81720, Note_on_c, 1, 67, 0
3, 81722, Note_on_c, 1, 69, 103
3, 81781, Note_on_c, 1, 67, 68
3, 81787, Note_on_c, 1, 69, 0
3, 81840, Note_on_c, 1, 69, 106
3, 81842, Note_on_c, 1, 67, 0
3, 81896, Note_on_c, 1, 67, 64
3, 81904, Note_on_c, 1, 69, 0
3, 81957, Note_on_c, 1, 67, 0
3, 81960, Note_on_c, 1, 69, 110
3, 82016, Note_on_c, 1, 67, 67
3, 82025, Note_on_c, 1, 69, 0
3, 82078, Note_on_c, 1, 67, 0
3, 82080, Note_on_c, 1, 69, 100
3, 82143, Note_on_c, 1, 67, 85
3, 82145, Note_on_c, 1, 69, 0
3, 82201, Note_on_c, 1, 67, 0
3, 82204, Note_on_c, 1, 69, 113
3, 82261, Note_on_c, 1, 67, 65
3, 82265, Note_on_c, 1, 69, 0
3, 82326, Note_on_c, 1, 69, 110
3, 82327, Note_on_c, 1, 67, 0
3, 82384, Note_on_c, 1, 67, 67
3, 82388, Note_on_c, 1, 69, 0
3, 82442, Note_on_c, 1, 67, 0
3, 82443, Note_on_c, 1, 69, 87
3, 82496, Note_on_c, 1, 67, 62
3, 82503, Note_on_c, 1, 69, 0
3, 82562, Note_on_c, 1, 67, 0
3, 82563, Note_on_c, 1, 69, 80
3, 82626, Note_on_c, 1, 67, 69
3, 82627, Note_on_c, 1, 69, 0
3, 82687, Note_on_c, 1, 69, 69
3, 82689, Note_on_c, 1, 67, 0
3, 82745, Note_on_c, 1, 69, 0
3, 82745, Note_on_c, 1, 67, 61
3, 82800, Note_on_c, 1, 67, 0
3, 82805, Note_on_c, 1, 69, 55
3, 82863, Note_on_c, 1, 67, 49
3, 82865, Note_on_c, 1, 69, 0
3, 82916, Note_on_c, 1, 67, 0
3, 82920, Note_on_c, 1, 69, 41
3, 82980, Note_on_c, 1, 67, 32
3, 82989, Note_on_c, 1, 69, 0
3, 83475, Note_on_c, 1, 67, 0
3, 83479, Note_on_c, 1, 62, 127
3, 83504, Note_on_c, 1, 62, 0
3, 83523, Note_on_c, 1, 62, 127
3, 84494, Note_on_c, 1, 62, 0
3, 84535, Note_on_c, 1, 74, 127
3, 84686, Note_on_c, 1, 74, 0
3, 84718, Note_on_c, 1, 72, 127
3, 84877, Note_on_c, 1, 72, 0
3, 84907, Note_on_c, 1, 65, 127
3, 85065, Note_on_c, 1, 65, 0
3, 85081, Note_on_c, 1, 60, 127
3, 85790, Note_on_c, 1, 60, 0
3, 85815, Note_on_c, 1, 60, 94
3, 85833, Note_on_c, 1, 60, 0
3, 85836, Note_on_c, 1, 62, 94
3, 85861, Note_on_c, 1, 63, 101
3, 85862, Note_on_c, 1, 62, 0
3, 85887, Note_on_c, 1, 63, 0
3, 85887, Note_on_c, 1, 65, 88
3, 85920, Note_on_c, 1, 66, 127
3, 85923, Note_on_c, 1, 65, 0
3, 86342, Control_c, 1, 11, 109
3, 86889, Control_c, 1, 11, 108
3, 87718, Control_c, 1, 11, 107
3, 87860, Control_c, 1, 11, 104
3, 87875, Control_c, 1, 11, 102
3, 87891, Control_c, 1, 11, 99
3, 87906, Control_c, 1, 11, 97
3, 87922, Control_c, 1, 11, 94
3, 87937, Control_c, 1, 11, 92
3, 87953, Control_c, 1, 11, 89
3, 87968, Control_c, 1, 11, 87
3, 87983, Control_c, 1, 11, 84
3, 87999, Control_c, 1, 11, 82
3, 88014, Control_c, 1, 11, 79
3, 88030, Control_c, 1, 11, 77
3, 88045, Control_c, 1, 11, 74
3, 88061, Control_c, 1, 11, 72
3, 88076, Control_c, 1, 11, 69
3, 88087, Note_on_c, 1, 66, 0
3, 90600, Control_c, 1, 11, 127
3, 90600, End_track
4, 0, Start_track
4, 0, Title_t, "sax II"
4, 0, MIDI_port, 0
4, 10, Control_c, 13, 101, 0
4, 11, Control_c, 13, 100, 1
4, 12, Control_c, 13, 6, 68
4, 13, Control_c, 13, 38, 0
4, 14, Control_c, 13, 101, 127
4, 15, Control_c, 13, 100, 127
4, 16, Control_c, 13, 10, 20
4, 17, Control_c, 13, 7, 127
4, 18, Control_c, 13, 91, 39
4, 14308, Control_c, 13, 11, 65
4, 15118, Program_c, 13, 65
4, 15119, Note_on_c, 13, 60, 127
4, 15128, Control_c, 13, 11, 82
4, 15143, Control_c, 13, 11, 84
4, 15158, Control_c, 13, 11, 85
4, 15174, Control_c, 13, 11, 87
4, 15189, Control_c, 13, 11, 89
4, 15204, Control_c, 13, 11, 91
4, 15219, Control_c, 13, 11, 92
4, 15234, Control_c, 13, 11, 94
4, 15250, Control_c, 13, 11, 96
4, 15265, Control_c, 13, 11, 98
4, 15280, Control_c, 13, 11, 99
4, 15295, Control_c, 13, 11, 101
4, 15310, Control_c, 13, 11, 103
4, 15326, Control_c, 13, 11, 105
4, 15341, Control_c, 13, 11, 106
4, 15356, Control_c, 13, 11, 108
4, 15371, Control_c, 13, 11, 110
4, 15386, Control_c, 13, 11, 111
4, 15401, Control_c, 13, 11, 113
4, 15417, Control_c, 13, 11, 115
4, 15432, Control_c, 13, 11, 117
4, 15447, Control_c, 13, 11, 118
4, 15462, Control_c, 13, 11, 120
4, 15477, Control_c, 13, 11, 122
4, 15493, Control_c, 13, 11, 124
4, 15508, Control_c, 13, 11, 125
4, 15526, Control_c, 13, 11, 127
4, 15590, Note_on_c, 13, 60, 0
4, 15598, Note_on_c, 13, 69, 127
4, 15639, Note_on_c, 13, 69, 0
4, 15658, Note_on_c, 13, 71, 127
4, 15699, Note_on_c, 13, 71, 0
4, 15718, Note_on_c, 13, 67, 127
4, 15759, Note_on_c, 13, 67, 0
4, 15778, Note_on_c, 13, 62, 127
4, 15819, Note_on_c, 13, 62, 0
4, 15838, Note_on_c, 13, 55, 127
4, 16219, Note_on_c, 13, 55, 0
4, 16318, Note_on_c, 13, 60, 127
4, 16362, Note_on_c, 13, 60, 0
4, 16378, Note_on_c, 13, 74, 127
4, 16422, Note_on_c, 13, 74, 0
4, 16438, Note_on_c, 13, 71, 127
4, 16482, Note_on_c, 13, 71, 0
4, 16498, Note_on_c, 13, 69, 127
4, 16542, Note_on_c, 13, 69, 0
4, 16558, Note_on_c, 13, 58, 127
4, 16818, Note_on_c, 13, 58, 0
4, 16858, Note_on_c, 13, 64, 127
4, 16914, Note_on_c, 13, 64, 0
4, 16918, Note_on_c, 13, 65, 127
4, 16974, Note_on_c, 13, 65, 0
4, 16978, Note_on_c, 13, 62, 127
4, 17034, Note_on_c, 13, 62, 0
4, 17038, Note_on_c, 13, 64, 127
4, 17094, Note_on_c, 13, 64, 0
4, 17098, Note_on_c, 13, 69, 127
4, 17154, Note_on_c, 13, 69, 0
4, 17158, Note_on_c, 13, 62, 127
4, 17214, Note_on_c, 13, 62, 0
4, 17218, Note_on_c, 13, 55, 127
4, 17274, Note_on_c, 13, 55, 0
4, 17278, Note_on_c, 13, 57, 127
4, 17334, Note_on_c, 13, 57, 0
4, 17338, Note_on_c, 13, 64, 127
4, 17394, Note_on_c, 13, 64, 0
4, 17398, Note_on_c, 13, 62, 127
4, 17454, Note_on_c, 13, 62, 0
4, 17458, Note_on_c, 13, 59, 127
4, 17502, Note_on_c, 13, 59, 0
4, 17518, Note_on_c, 13, 48, 127
4, 17574, Note_on_c, 13, 48, 0
4, 17578, Note_on_c, 13, 55, 127
4, 17634, Note_on_c, 13, 55, 0
4, 17638, Note_on_c, 13, 62, 127
4, 17694, Note_on_c, 13, 62, 0
4, 17698, Note_on_c, 13, 69, 127
4, 17754, Note_on_c, 13, 69, 0
4, 17758, Note_on_c, 13, 71, 127
4, 17814, Note_on_c, 13, 71, 0
4, 17818, Note_on_c, 13, 66, 127
4, 17862, Note_on_c, 13, 66, 0
4, 18225, Control_c, 13, 11, 81
4, 18232, Control_c, 13, 11, 81
4, 18238, Note_on_c, 13, 60, 127
4, 18247, Control_c, 13, 11, 83
4, 18262, Control_c, 13, 11, 84
4, 18266, Control_c, 13, 11, 88
4, 18281, Control_c, 13, 11, 92
4, 18296, Control_c, 13, 11, 96
4, 18311, Control_c, 13, 11, 100
4, 18327, Control_c, 13, 11, 104
4, 18342, Control_c, 13, 11, 108
4, 18357, Control_c, 13, 11, 112
4, 18372, Control_c, 13, 11, 116
4, 18388, Control_c, 13, 11, 120
4, 18403, Control_c, 13, 11, 119
4, 18444, Control_c, 13, 11, 120
4, 18485, Control_c, 13, 11, 121
4, 18527, Control_c, 13, 11, 122
4, 18551, Note_on_c, 13, 60, 0
4, 18558, Note_on_c, 13, 57, 127
4, 18568, Control_c, 13, 11, 123
4, 18609, Control_c, 13, 11, 124
4, 18610, Note_on_c, 13, 57, 0
4, 18638, Note_on_c, 13, 52, 127
4, 18642, Control_c, 13, 11, 123
4, 18678, Control_c, 13, 11, 124
4, 18690, Note_on_c, 13, 52, 0
4, 18714, Control_c, 13, 11, 125
4, 18728, Note_on_c, 13, 64, 127
4, 18750, Control_c, 13, 11, 126
4, 18759, Control_c, 13, 11, 114
4, 18779, Control_c, 13, 11, 116
4, 18788, Control_c, 13, 11, 118
4, 18846, Control_c, 13, 11, 120
4, 18886, Control_c, 13, 11, 121
4, 18933, Control_c, 13, 11, 123
4, 18948, Control_c, 13, 11, 125
4, 18973, Control_c, 13, 11, 127
4, 19038, Note_on_c, 13, 60, 127
4, 19041, Note_on_c, 13, 64, 0
4, 19054, Control_c, 13, 11, 123
4, 19070, Control_c, 13, 11, 121
4, 19079, Control_c, 13, 11, 120
4, 19096, Control_c, 13, 11, 118
4, 19105, Control_c, 13, 11, 116
4, 19111, Note_on_c, 13, 60, 0
4, 19118, Note_on_c, 13, 55, 127
4, 19122, Control_c, 13, 11, 114
4, 19133, Control_c, 13, 11, 112
4, 19191, Note_on_c, 13, 55, 0
4, 19198, Note_on_c, 13, 50, 127
4, 19200, Control_c, 13, 11, 114
4, 19219, Control_c, 13, 11, 116
4, 19228, Control_c, 13, 11, 118
4, 19254, Note_on_c, 13, 50, 0
4, 19258, Note_on_c, 13, 57, 127
4, 19274, Control_c, 13, 11, 120
4, 19283, Control_c, 13, 11, 123
4, 19293, Control_c, 13, 11, 127
4, 19314, Note_on_c, 13, 57, 0
4, 19318, Note_on_c, 13, 64, 127
4, 19374, Note_on_c, 13, 64, 0
4, 19378, Note_on_c, 13, 71, 127
4, 19434, Note_on_c, 13, 71, 0
4, 19438, Note_on_c, 13, 48, 127
4, 19664, Note_on_c, 13, 48, 0
4, 19738, Note_on_c, 13, 53, 127
4, 19748, Control_c, 13, 11, 125
4, 19757, Control_c, 13, 11, 123
4, 19773, Control_c, 13, 11, 121
4, 19794, Note_on_c, 13, 53, 0
4, 19795, Control_c, 13, 11, 120
4, 19798, Note_on_c, 13, 55, 127
4, 19811, Control_c, 13, 11, 118
4, 19821, Control_c, 13, 11, 116
4, 19822, Control_c, 13, 11, 114
4, 19838, Control_c, 13, 11, 112
4, 19848, Control_c, 13, 11, 110
4, 19849, Control_c, 13, 11, 108
4, 19854, Note_on_c, 13, 55, 0
4, 19858, Note_on_c, 13, 64, 127
4, 19859, Control_c, 13, 11, 106
4, 19895, Control_c, 13, 11, 105
4, 19905, Control_c, 13, 11, 103
4, 19914, Note_on_c, 13, 64, 0
4, 19915, Control_c, 13, 11, 101
4, 19918, Note_on_c, 13, 66, 127
4, 19974, Note_on_c, 13, 66, 0
4, 19978, Note_on_c, 13, 71, 127
4, 19988, Control_c, 13, 11, 99
4, 20034, Note_on_c, 13, 71, 0
4, 20038, Note_on_c, 13, 64, 127
4, 20076, Control_c, 13, 11, 101
4, 20085, Control_c, 13, 11, 103
4, 20094, Note_on_c, 13, 64, 0
4, 20098, Note_on_c, 13, 57, 127
4, 20101, Control_c, 13, 11, 105
4, 20111, Control_c, 13, 11, 106
4, 20149, Control_c, 13, 11, 108
4, 20154, Note_on_c, 13, 57, 0
4, 20158, Note_on_c, 13, 52, 127
4, 20178, Control_c, 13, 11, 110
4, 20214, Note_on_c, 13, 52, 0
4, 20218, Note_on_c, 13, 54, 127
4, 20229, Control_c, 13, 11, 112
4, 20269, Control_c, 13, 11, 114
4, 20274, Note_on_c, 13, 54, 0
4, 20278, Note_on_c, 13, 62, 127
4, 20303, Control_c, 13, 11, 116
4, 20318, Control_c, 13, 11, 118
4, 20334, Note_on_c, 13, 62, 0
4, 20338, Note_on_c, 13, 64, 127
4, 20350, Control_c, 13, 11, 120
4, 20377, Control_c, 13, 11, 121
4, 20394, Note_on_c, 13, 64, 0
4, 20398, Note_on_c, 13, 66, 127
4, 20450, Control_c, 13, 11, 120
4, 20454, Note_on_c, 13, 66, 0
4, 20458, Note_on_c, 13, 62, 127
4, 20459, Control_c, 13, 11, 118
4, 20469, Control_c, 13, 11, 116
4, 20492, Control_c, 13, 11, 114
4, 20504, Control_c, 13, 11, 112
4, 20514, Note_on_c, 13, 62, 0
4, 20518, Note_on_c, 13, 57, 127
4, 20550, Control_c, 13, 11, 110
4, 20566, Control_c, 13, 11, 108
4, 20574, Note_on_c, 13, 57, 0
4, 20578, Note_on_c, 13, 59, 127
4, 20604, Control_c, 13, 11, 110
4, 20619, Control_c, 13, 11, 114
4, 20634, Note_on_c, 13, 59, 0
4, 20637, Control_c, 13, 11, 116
4, 20638, Note_on_c, 13, 71, 127
4, 20647, Control_c, 13, 11, 118
4, 20656, Control_c, 13, 11, 120
4, 20658, Control_c, 13, 11, 121
4, 20694, Note_on_c, 13, 71, 0
4, 20698, Control_c, 13, 11, 118
4, 20698, Note_on_c, 13, 69, 127
4, 20707, Control_c, 13, 11, 116
4, 20717, Control_c, 13, 11, 114
4, 20718, Control_c, 13, 11, 112
4, 20742, Control_c, 13, 11, 110
4, 20752, Control_c, 13, 11, 106
4, 20754, Note_on_c, 13, 69, 0
4, 20758, Note_on_c, 13, 64, 127
4, 20814, Note_on_c, 13, 64, 0
4, 20818, Note_on_c, 13, 66, 127
4, 20874, Note_on_c, 13, 66, 0
4, 20878, Control_c, 13, 11, 127
4, 23760, Note_on_c, 13, 69, 127
4, 23791, Note_on_c, 13, 69, 0
4, 23820, Note_on_c, 13, 69, 127
4, 23851, Note_on_c, 13, 69, 0
4, 23880, Note_on_c, 13, 69, 127
4, 23936, Note_on_c, 13, 69, 0
4, 23940, Note_on_c, 13, 72, 127
4, 24000, Note_on_c, 13, 72, 0
4, 24000, Note_on_c, 13, 69, 127
4, 24031, Note_on_c, 13, 69, 0
4, 24060, Note_on_c, 13, 69, 127
4, 24091, Note_on_c, 13, 69, 0
4, 24120, Note_on_c, 13, 69, 127
4, 24176, Note_on_c, 13, 69, 0
4, 24180, Note_on_c, 13, 72, 127
4, 24240, Note_on_c, 13, 68, 127
4, 24242, Note_on_c, 13, 72, 0
4, 24271, Note_on_c, 13, 68, 0
4, 24300, Note_on_c, 13, 68, 127
4, 24331, Note_on_c, 13, 68, 0
4, 24360, Note_on_c, 13, 68, 127
4, 24416, Note_on_c, 13, 68, 0
4, 24420, Note_on_c, 13, 72, 127
4, 24478, Note_on_c, 13, 72, 0
4, 24480, Note_on_c, 13, 68, 127
4, 24511, Note_on_c, 13, 68, 0
4, 24540, Note_on_c, 13, 68, 127
4, 24571, Note_on_c, 13, 68, 0
4, 24600, Note_on_c, 13, 68, 127
4, 24656, Note_on_c, 13, 68, 0
4, 24660, Note_on_c, 13, 72, 127
4, 24720, Note_on_c, 13, 72, 0
4, 24720, Note_on_c, 13, 67, 127
4, 24751, Note_on_c, 13, 67, 0
4, 24780, Note_on_c, 13, 67, 127
4, 24811, Note_on_c, 13, 67, 0
4, 24840, Note_on_c, 13, 67, 127
4, 24895, Note_on_c, 13, 67, 0
4, 24900, Note_on_c, 13, 72, 127
4, 24956, Note_on_c, 13, 72, 0
4, 24960, Note_on_c, 13, 67, 127
4, 24997, Note_on_c, 13, 67, 0
4, 25000, Note_on_c, 13, 72, 127
4, 25037, Note_on_c, 13, 72, 0
4, 25040, Note_on_c, 13, 67, 127
4, 25077, Note_on_c, 13, 67, 0
4, 25080, Note_on_c, 13, 66, 127
4, 25117, Note_on_c, 13, 66, 0
4, 25120, Note_on_c, 13, 65, 127
4, 25750, Note_on_c, 13, 65, 0
4, 75118, Program_c, 13, 67
4, 75120, Note_on_c, 13, 48, 80
4, 75838, Program_c, 13, 65
4, 75840, Note_on_c, 13, 48, 0
4, 75840, Note_on_c, 13, 52, 100
4, 76338, Note_on_c, 13, 52, 0
4, 76561, Note_on_c, 13, 46, 127
4, 77239, Note_on_c, 13, 46, 0
4, 77277, Note_on_c, 13, 60, 72
4, 77277, Note_on_c, 13, 64, 57
4, 77983, Note_on_c, 13, 60, 0
4, 77984, Note_on_c, 13, 64, 0
4, 77995, Note_on_c, 13, 55, 122
4, 78719, Note_on_c, 13, 57, 127
4, 78737, Note_on_c, 13, 55, 0
4, 79424, Note_on_c, 13, 57, 0
4, 79430, Note_on_c, 13, 60, 68
4, 79431, Note_on_c, 13, 64, 76
4, 80160, Note_on_c, 13, 62, 61
4, 80162, Note_on_c, 13, 60, 0
4, 80162, Note_on_c, 13, 64, 0
4, 80163, Note_on_c, 13, 66, 82
4, 80867, Note_on_c, 13, 66, 0
4, 80868, Note_on_c, 13, 62, 0
4, 80938, Note_on_c, 13, 60, 127
4, 80940, Control_c, 13, 11, 127
4, 81106, Note_on_c, 13, 60, 0
4, 81119, Note_on_c, 13, 74, 127
4, 81286, Note_on_c, 13, 74, 0
4, 81294, Note_on_c, 13, 71, 127
4, 81472, Note_on_c, 13, 69, 127
4, 81479, Note_on_c, 13, 71, 0
4, 81647, Note_on_c, 13, 69, 0
4, 81670, Note_on_c, 13, 63, 127
4, 81816, Note_on_c, 13, 63, 0
4, 81844, Note_on_c, 13, 81, 98
4, 82023, Note_on_c, 13, 77, 98
4, 82027, Note_on_c, 13, 81, 0
4, 82177, Note_on_c, 13, 72, 98
4, 82186, Note_on_c, 13, 77, 0
4, 82341, Note_on_c, 13, 72, 0
4, 85913, Control_c, 13, 101, 0
4, 85914, Control_c, 13, 100, 1
4, 85915, Control_c, 13, 6, 64
4, 85916, Control_c, 13, 38, 0
4, 85917, Control_c, 13, 101, 127
4, 85918, Control_c, 13, 100, 127
4, 85920, Control_c, 13, 11, 74
4, 85920, Note_on_c, 13, 64, 127
4, 85921, Program_c, 13, 67
4, 85922, Note_on_c, 13, 40, 127
4, 85928, Control_c, 13, 11, 75
4, 85936, Control_c, 13, 11, 76
4, 85944, Control_c, 13, 11, 77
4, 85952, Control_c, 13, 11, 78
4, 85960, Control_c, 13, 11, 79
4, 85968, Control_c, 13, 11, 80
4, 85977, Control_c, 13, 11, 81
4, 85985, Control_c, 13, 11, 82
4, 85993, Control_c, 13, 11, 83
4, 86001, Control_c, 13, 11, 84
4, 86009, Control_c, 13, 11, 85
4, 86017, Control_c, 13, 11, 86
4, 86025, Control_c, 13, 11, 87
4, 86033, Control_c, 13, 11, 88
4, 86041, Control_c, 13, 11, 89
4, 86049, Control_c, 13, 11, 90
4, 86057, Control_c, 13, 11, 91
4, 86065, Control_c, 13, 11, 92
4, 86073, Control_c, 13, 11, 93
4, 86082, Control_c, 13, 11, 94
4, 86090, Control_c, 13, 11, 95
4, 86098, Control_c, 13, 11, 96
4, 86106, Control_c, 13, 11, 97
4, 86110, Control_c, 13, 11, 96
4, 86125, Control_c, 13, 11, 97
4, 86141, Control_c, 13, 11, 98
4, 86156, Control_c, 13, 11, 99
4, 86171, Control_c, 13, 11, 101
4, 86186, Control_c, 13, 11, 102
4, 86202, Control_c, 13, 11, 103
4, 86217, Control_c, 13, 11, 104
4, 86232, Control_c, 13, 11, 105
4, 86248, Control_c, 13, 11, 106
4, 86263, Control_c, 13, 11, 107
4, 86278, Control_c, 13, 11, 109
4, 86294, Control_c, 13, 11, 110
4, 86309, Control_c, 13, 11, 111
4, 86324, Control_c, 13, 11, 112
4, 86339, Control_c, 13, 11, 113
4, 86355, Control_c, 13, 11, 114
4, 86370, Control_c, 13, 11, 116
4, 86385, Control_c, 13, 11, 117
4, 86401, Control_c, 13, 11, 118
4, 86416, Control_c, 13, 11, 119
4, 86431, Control_c, 13, 11, 120
4, 86447, Control_c, 13, 11, 121
4, 86462, Control_c, 13, 11, 122
4, 86477, Control_c, 13, 11, 124
4, 86492, Control_c, 13, 11, 125
4, 86508, Control_c, 13, 11, 126
4, 87360, Control_c, 13, 11, 124
4, 87375, Control_c, 13, 11, 123
4, 87390, Control_c, 13, 11, 122
4, 87405, Control_c, 13, 11, 121
4, 87420, Control_c, 13, 11, 120
4, 87435, Control_c, 13, 11, 118
4, 87450, Control_c, 13, 11, 117
4, 87465, Control_c, 13, 11, 116
4, 87480, Control_c, 13, 11, 115
4, 87495, Control_c, 13, 11, 114
4, 87510, Control_c, 13, 11, 113
4, 87525, Control_c, 13, 11, 112
4, 87540, Control_c, 13, 11, 111
4, 87555, Control_c, 13, 11, 109
4, 87570, Control_c, 13, 11, 108
4, 87585, Control_c, 13, 11, 107
4, 87600, Control_c, 13, 11, 106
4, 87615, Control_c, 13, 11, 105
4, 87630, Control_c, 13, 11, 104
4, 87645, Control_c, 13, 11, 103
4, 87660, Control_c, 13, 11, 102
4, 87675, Control_c, 13, 11, 100
4, 87690, Control_c, 13, 11, 99
4, 87705, Control_c, 13, 11, 98
4, 87729, Control_c, 13, 11, 97
4, 87744, Control_c, 13, 11, 96
4, 87760, Control_c, 13, 11, 94
4, 87775, Control_c, 13, 11, 93
4, 87791, Control_c, 13, 11, 92
4, 87807, Control_c, 13, 11, 91
4, 87822, Control_c, 13, 11, 90
4, 87838, Control_c, 13, 11, 89
4, 87853, Control_c, 13, 11, 87
4, 87869, Control_c, 13, 11, 86
4, 87885, Control_c, 13, 11, 85
4, 87900, Control_c, 13, 11, 84
4, 87916, Control_c, 13, 11, 83
4, 87932, Control_c, 13, 11, 82
4, 87947, Control_c, 13, 11, 80
4, 87963, Control_c, 13, 11, 79
4, 87978, Control_c, 13, 11, 78
4, 87994, Control_c, 13, 11, 77
4, 88010, Control_c, 13, 11, 76
4, 88025, Control_c, 13, 11, 75
4, 88039, Note_on_c, 13, 64, 0
4, 88039, Note_on_c, 13, 40, 0
4, 88041, Control_c, 13, 11, 73
4, 88056, Control_c, 13, 11, 72
4, 88072, Control_c, 13, 11, 71
4, 88076, Control_c, 13, 11, 69
4, 90600, Control_c, 13, 11, 127
4, 90600, End_track
5, 0, Start_track
5, 0, Title_t, "sax III"
5, 0, MIDI_port, 0
5, 19, Program_c, 2, 65
5, 20, Control_c, 2, 7, 127
5, 21, Control_c, 2, 91, 39
5, 22, Control_c, 2, 10, 31
5, 76860, Note_on_c, 2, 60, 127
5, 76916, Note_on_c, 2, 60, 0
5, 76920, Note_on_c, 2, 62, 127
5, 76976, Note_on_c, 2, 62, 0
5, 76980, Note_on_c, 2, 58, 127
5, 77036, Note_on_c, 2, 58, 0
5, 77040, Note_on_c, 2, 60, 127
5, 77096, Note_on_c, 2, 60, 0
5, 77100, Note_on_c, 2, 65, 127
5, 77156, Note_on_c, 2, 65, 0
5, 77160, Note_on_c, 2, 58, 127
5, 77216, Note_on_c, 2, 58, 0
5, 77220, Note_on_c, 2, 52, 127
5, 77276, Note_on_c, 2, 52, 0
5, 77280, Note_on_c, 2, 52, 127
5, 77336, Note_on_c, 2, 52, 0
5, 77340, Note_on_c, 2, 60, 127
5, 77396, Note_on_c, 2, 60, 0
5, 77400, Note_on_c, 2, 59, 127
5, 77456, Note_on_c, 2, 59, 0
5, 77460, Note_on_c, 2, 55, 127
5, 77504, Note_on_c, 2, 55, 0
5, 77520, Note_on_c, 2, 45, 127
5, 77576, Note_on_c, 2, 45, 0
5, 77583, Note_on_c, 2, 52, 127
5, 77639, Note_on_c, 2, 52, 0
5, 77640, Note_on_c, 2, 59, 127
5, 77696, Note_on_c, 2, 59, 0
5, 77700, Note_on_c, 2, 66, 127
5, 77756, Note_on_c, 2, 66, 0
5, 77760, Note_on_c, 2, 67, 127
5, 77816, Note_on_c, 2, 67, 0
5, 77821, Note_on_c, 2, 62, 127
5, 77865, Note_on_c, 2, 62, 0
5, 77999, Note_on_c, 2, 60, 118
5, 78719, Note_on_c, 2, 62, 106
5, 78730, Note_on_c, 2, 60, 0
5, 79201, Note_on_c, 2, 57, 127
5, 79202, Note_on_c, 2, 62, 0
5, 79257, Note_on_c, 2, 57, 0
5, 79261, Note_on_c, 2, 64, 127
5, 79321, Note_on_c, 2, 71, 127
5, 79326, Note_on_c, 2, 64, 0
5, 79377, Note_on_c, 2, 71, 0
5, 79381, Note_on_c, 2, 78, 127
5, 79437, Note_on_c, 2, 78, 0
5, 79441, Note_on_c, 2, 76, 127
5, 79908, Control_c, 2, 11, 127
5, 79923, Control_c, 2, 11, 125
5, 79939, Control_c, 2, 11, 124
5, 79954, Control_c, 2, 11, 122
5, 79969, Control_c, 2, 11, 121
5, 79985, Control_c, 2, 11, 119
5, 80000, Control_c, 2, 11, 117
5, 80015, Control_c, 2, 11, 116
5, 80031, Control_c, 2, 11, 114
5, 80046, Control_c, 2, 11, 113
5, 80061, Control_c, 2, 11, 111
5, 80076, Control_c, 2, 11, 109
5, 80092, Control_c, 2, 11, 108
5, 80107, Control_c, 2, 11, 106
5, 80122, Control_c, 2, 11, 105
5, 80138, Control_c, 2, 11, 103
5, 80153, Control_c, 2, 11, 102
5, 80168, Control_c, 2, 11, 100
5, 80184, Control_c, 2, 11, 98
5, 80199, Control_c, 2, 11, 97
5, 80214, Control_c, 2, 11, 95
5, 80230, Control_c, 2, 11, 94
5, 80245, Control_c, 2, 11, 92
5, 80260, Control_c, 2, 11, 90
5, 80276, Control_c, 2, 11, 89
5, 80288, Control_c, 2, 11, 88
5, 80849, Note_on_c, 2, 76, 0
5, 80938, Control_c, 2, 11, 127
5, 80940, Note_on_c, 2, 60, 127
5, 81108, Note_on_c, 2, 60, 0
5, 81121, Note_on_c, 2, 74, 127
5, 81288, Note_on_c, 2, 74, 0
5, 81296, Note_on_c, 2, 71, 127
5, 81474, Note_on_c, 2, 69, 127
5, 81481, Note_on_c, 2, 71, 0
5, 81649, Note_on_c, 2, 69, 0
5, 81668, Note_on_c, 2, 63, 127
5, 81814, Note_on_c, 2, 63, 0
5, 81829, Note_on_c, 2, 76, 97
5, 81847, Note_on_c, 2, 77, 100
5, 81862, Note_on_c, 2, 76, 0
5, 82011, Note_on_c, 2, 74, 127
5, 82040, Note_on_c, 2, 77, 0
5, 82174, Note_on_c, 2, 74, 0
5, 82176, Note_on_c, 2, 72, 127
5, 82327, Note_on_c, 2, 72, 0
5, 82334, Note_on_c, 2, 71, 87
5, 82385, Note_on_c, 2, 73, 92
5, 82391, Note_on_c, 2, 71, 0
5, 82445, Note_on_c, 2, 71, 87
5, 82452, Note_on_c, 2, 73, 0
5, 82505, Note_on_c, 2, 73, 100
5, 82510, Note_on_c, 2, 71, 0
5, 82568, Note_on_c, 2, 71, 94
5, 82577, Note_on_c, 2, 73, 0
5, 82626, Note_on_c, 2, 73, 113
5, 82631, Note_on_c, 2, 71, 0
5, 82682, Note_on_c, 2, 71, 78
5, 82691, Note_on_c, 2, 73, 0
5, 82736, Note_on_c, 2, 73, 92
5, 82744, Note_on_c, 2, 71, 0
5, 82804, Note_on_c, 2, 71, 72
5, 82814, Note_on_c, 2, 73, 0
5, 82858, Note_on_c, 2, 73, 92
5, 82868, Note_on_c, 2, 71, 0
5, 82924, Note_on_c, 2, 71, 63
5, 82933, Note_on_c, 2, 73, 0
5, 82984, Note_on_c, 2, 73, 80
5, 82991, Note_on_c, 2, 71, 0
5, 83176, Note_on_c, 2, 73, 0
5, 83481, Note_on_c, 2, 67, 127
5, 83505, Note_on_c, 2, 67, 0
5, 83522, Note_on_c, 2, 67, 127
5, 84484, Note_on_c, 2, 67, 0
5, 84535, Note_on_c, 2, 72, 127
5, 84686, Note_on_c, 2, 72, 0
5, 84720, Note_on_c, 2, 70, 127
5, 84879, Note_on_c, 2, 70, 0
5, 84906, Note_on_c, 2, 64, 127
5, 85064, Note_on_c, 2, 64, 0
5, 85080, Note_on_c, 2, 57, 90
5, 85767, Note_on_c, 2, 57, 0
5, 85774, Note_on_c, 2, 58, 60
5, 85798, Note_on_c, 2, 60, 95
5, 85803, Note_on_c, 2, 58, 0
5, 85815, Note_on_c, 2, 62, 101
5, 85821, Note_on_c, 2, 60, 0
5, 85830, Note_on_c, 2, 64, 101
5, 85836, Note_on_c, 2, 62, 0
5, 85846, Note_on_c, 2, 65, 95
5, 85851, Note_on_c, 2, 64, 0
5, 85860, Note_on_c, 2, 67, 110
5, 85865, Note_on_c, 2, 65, 0
5, 85875, Note_on_c, 2, 69, 110
5, 85881, Note_on_c, 2, 67, 0
5, 85890, Note_on_c, 2, 70, 110
5, 85897, Note_on_c, 2, 69, 0
5, 85913, Note_on_c, 2, 70, 0
5, 85932, Note_on_c, 2, 59, 127
5, 86342, Control_c, 2, 11, 127
5, 87736, Control_c, 2, 11, 124
5, 87752, Control_c, 2, 11, 122
5, 87767, Control_c, 2, 11, 119
5, 87783, Control_c, 2, 11, 117
5, 87798, Control_c, 2, 11, 114
5, 87814, Control_c, 2, 11, 112
5, 87829, Control_c, 2, 11, 109
5, 87844, Control_c, 2, 11, 107
5, 87860, Control_c, 2, 11, 104
5, 87875, Control_c, 2, 11, 102
5, 87891, Control_c, 2, 11, 99
5, 87906, Control_c, 2, 11, 97
5, 87922, Control_c, 2, 11, 94
5, 87937, Control_c, 2, 11, 92
5, 87953, Control_c, 2, 11, 89
5, 87968, Control_c, 2, 11, 87
5, 87983, Control_c, 2, 11, 84
5, 87999, Control_c, 2, 11, 82
5, 88014, Control_c, 2, 11, 79
5, 88030, Control_c, 2, 11, 77
5, 88045, Control_c, 2, 11, 74
5, 88061, Control_c, 2, 11, 72
5, 88076, Control_c, 2, 11, 69
5, 88079, Note_on_c, 2, 59, 0
5, 90600, Control_c, 2, 121, 0
5, 90600, End_track
6, 0, Start_track
6, 0, Title_t, "flute/clarinet"
6, 0, MIDI_port, 0
6, 23, Control_c, 5, 10, 103
6, 24, Control_c, 5, 7, 127
6, 25, Control_c, 5, 91, 39
6, 26, Program_c, 5, 73
6, 29520, Control_c, 5, 11, 127
6, 35280, Note_on_c, 5, 67, 44
6, 35631, Note_on_c, 5, 67, 0
6, 35640, Note_on_c, 5, 81, 44
6, 35640, Control_c, 5, 11, 127
6, 35655, Control_c, 5, 11, 126
6, 35671, Control_c, 5, 11, 125
6, 35686, Control_c, 5, 11, 124
6, 35702, Control_c, 5, 11, 122
6, 35717, Control_c, 5, 11, 121
6, 35733, Control_c, 5, 11, 120
6, 35748, Control_c, 5, 11, 119
6, 35764, Control_c, 5, 11, 118
6, 35779, Control_c, 5, 11, 117
6, 35795, Control_c, 5, 11, 116
6, 35810, Control_c, 5, 11, 115
6, 35826, Control_c, 5, 11, 113
6, 35841, Control_c, 5, 11, 112
6, 35857, Control_c, 5, 11, 111
6, 35872, Control_c, 5, 11, 110
6, 35888, Control_c, 5, 11, 109
6, 35903, Control_c, 5, 11, 108
6, 35919, Control_c, 5, 11, 107
6, 35934, Control_c, 5, 11, 106
6, 35950, Control_c, 5, 11, 104
6, 35965, Control_c, 5, 11, 103
6, 35981, Control_c, 5, 11, 102
6, 35991, Note_on_c, 5, 81, 0
6, 35998, Control_c, 5, 11, 101
6, 35999, Control_c, 5, 11, 127
6, 36000, Note_on_c, 5, 69, 44
6, 36351, Note_on_c, 5, 69, 0
6, 36360, Note_on_c, 5, 83, 44
6, 36361, Control_c, 5, 11, 127
6, 36378, Control_c, 5, 11, 125
6, 36394, Control_c, 5, 11, 123
6, 36411, Control_c, 5, 11, 121
6, 36428, Control_c, 5, 11, 120
6, 36445, Control_c, 5, 11, 118
6, 36461, Control_c, 5, 11, 116
6, 36553, Note_on_c, 5, 83, 0
6, 36560, Note_on_c, 5, 69, 44
6, 36633, Note_on_c, 5, 69, 0
6, 36640, Note_on_c, 5, 83, 44
6, 36713, Note_on_c, 5, 83, 0
6, 36718, Control_c, 5, 11, 127
6, 36720, Note_on_c, 5, 78, 44
6, 37421, Note_on_c, 5, 78, 0
6, 37440, Note_on_c, 5, 67, 44
6, 38113, Note_on_c, 5, 67, 0
6, 38940, Note_on_c, 5, 78, 44
6, 38996, Note_on_c, 5, 78, 0
6, 39000, Note_on_c, 5, 78, 44
6, 39056, Note_on_c, 5, 78, 0
6, 39060, Note_on_c, 5, 89, 44
6, 39116, Note_on_c, 5, 89, 0
6, 39120, Note_on_c, 5, 78, 44
6, 39157, Note_on_c, 5, 78, 0
6, 39160, Note_on_c, 5, 89, 44
6, 39197, Note_on_c, 5, 89, 0
6, 39200, Note_on_c, 5, 78, 44
6, 39237, Note_on_c, 5, 78, 0
6, 39241, Note_on_c, 5, 78, 44
6, 39290, Note_on_c, 5, 78, 0
6, 39300, Note_on_c, 5, 89, 44
6, 39356, Note_on_c, 5, 89, 0
6, 39360, Note_on_c, 5, 89, 44
6, 39471, Note_on_c, 5, 89, 0
6, 39480, Note_on_c, 5, 78, 44
6, 39591, Note_on_c, 5, 78, 0
6, 39609, Note_on_c, 5, 78, 44
6, 40687, Note_on_c, 5, 78, 0
6, 55920, Program_c, 5, 71
6, 56160, Note_on_c, 5, 57, 100
6, 56576, Note_on_c, 5, 57, 0
6, 56580, Note_on_c, 5, 69, 100
6, 56696, Note_on_c, 5, 69, 0
6, 56700, Note_on_c, 5, 72, 100
6, 56866, Note_on_c, 5, 72, 0
6, 56880, Note_on_c, 5, 72, 100
6, 56953, Note_on_c, 5, 72, 0
6, 56960, Note_on_c, 5, 67, 100
6, 57033, Note_on_c, 5, 67, 0
6, 57040, Note_on_c, 5, 65, 100
6, 57113, Note_on_c, 5, 65, 0
6, 57120, Note_on_c, 5, 67, 100
6, 57176, Note_on_c, 5, 67, 0
6, 57180, Note_on_c, 5, 69, 100
6, 57236, Note_on_c, 5, 69, 0
6, 57240, Note_on_c, 5, 67, 100
6, 57296, Note_on_c, 5, 67, 0
6, 57300, Note_on_c, 5, 65, 100
6, 57356, Note_on_c, 5, 65, 0
6, 57360, Note_on_c, 5, 64, 100
6, 57416, Note_on_c, 5, 64, 0
6, 57420, Note_on_c, 5, 62, 100
6, 57476, Note_on_c, 5, 62, 0
6, 57480, Note_on_c, 5, 64, 100
6, 57508, Note_on_c, 5, 64, 0
6, 57510, Note_on_c, 5, 69, 100
6, 57538, Note_on_c, 5, 69, 0
6, 57540, Note_on_c, 5, 81, 100
6, 57706, Note_on_c, 5, 81, 0
6, 57720, Note_on_c, 5, 84, 100
6, 57831, Note_on_c, 5, 84, 0
6, 57840, Note_on_c, 5, 84, 100
6, 58153, Note_on_c, 5, 84, 0
6, 58160, Note_on_c, 5, 79, 100
6, 58233, Note_on_c, 5, 79, 0
6, 58240, Note_on_c, 5, 77, 100
6, 58313, Note_on_c, 5, 77, 0
6, 58320, Note_on_c, 5, 79, 100
6, 58431, Note_on_c, 5, 79, 0
6, 58440, Note_on_c, 5, 65, 100
6, 58551, Note_on_c, 5, 65, 0
6, 58560, Note_on_c, 5, 76, 100
6, 58633, Note_on_c, 5, 76, 0
6, 58640, Note_on_c, 5, 74, 100
6, 58713, Note_on_c, 5, 74, 0
6, 58720, Note_on_c, 5, 65, 100
6, 58793, Note_on_c, 5, 65, 0
6, 58800, Note_on_c, 5, 67, 100
6, 58856, Note_on_c, 5, 67, 0
6, 58860, Note_on_c, 5, 69, 100
6, 58916, Note_on_c, 5, 69, 0
6, 58920, Note_on_c, 5, 67, 100
6, 58976, Note_on_c, 5, 67, 0
6, 58980, Note_on_c, 5, 65, 100
6, 59036, Note_on_c, 5, 65, 0
6, 59040, Note_on_c, 5, 64, 100
6, 59096, Note_on_c, 5, 64, 0
6, 59100, Note_on_c, 5, 69, 100
6, 59156, Note_on_c, 5, 69, 0
6, 59160, Note_on_c, 5, 74, 100
6, 59216, Note_on_c, 5, 74, 0
6, 59220, Note_on_c, 5, 79, 100
6, 59276, Note_on_c, 5, 79, 0
6, 59280, Note_on_c, 5, 84, 100
6, 59722, Note_on_c, 5, 84, 0
6, 59820, Note_on_c, 5, 81, 100
6, 59876, Note_on_c, 5, 81, 0
6, 59880, Note_on_c, 5, 79, 100
6, 59936, Note_on_c, 5, 79, 0
6, 59940, Note_on_c, 5, 74, 100
6, 59996, Note_on_c, 5, 74, 0
6, 60000, Note_on_c, 5, 69, 100
6, 60056, Note_on_c, 5, 69, 0
6, 60060, Note_on_c, 5, 77, 100
6, 60116, Note_on_c, 5, 77, 0
6, 60120, Note_on_c, 5, 76, 100
6, 60351, Note_on_c, 5, 76, 0
6, 60840, Note_on_c, 5, 69, 100
6, 60896, Note_on_c, 5, 69, 0
6, 60900, Note_on_c, 5, 77, 100
6, 60956, Note_on_c, 5, 77, 0
6, 60960, Note_on_c, 5, 76, 100
6, 61181, Note_on_c, 5, 76, 0
6, 61260, Note_on_c, 5, 62, 100
6, 61316, Note_on_c, 5, 62, 0
6, 61320, Note_on_c, 5, 60, 100
6, 61376, Note_on_c, 5, 60, 0
6, 61380, Note_on_c, 5, 62, 100
6, 61436, Note_on_c, 5, 62, 0
6, 61440, Note_on_c, 5, 69, 100
6, 61496, Note_on_c, 5, 69, 0
6, 61500, Note_on_c, 5, 76, 100
6, 61556, Note_on_c, 5, 76, 0
6, 61560, Note_on_c, 5, 65, 100
6, 61616, Note_on_c, 5, 65, 0
6, 61620, Note_on_c, 5, 74, 100
6, 61676, Note_on_c, 5, 74, 0
6, 61680, Note_on_c, 5, 64, 100
6, 61736, Note_on_c, 5, 64, 0
6, 61740, Note_on_c, 5, 72, 100
6, 61796, Note_on_c, 5, 72, 0
6, 61800, Note_on_c, 5, 64, 100
6, 61856, Note_on_c, 5, 64, 0
6, 61860, Note_on_c, 5, 65, 100
6, 61916, Note_on_c, 5, 65, 0
6, 61920, Note_on_c, 5, 76, 100
6, 61976, Note_on_c, 5, 76, 0
6, 61980, Note_on_c, 5, 74, 100
6, 62036, Note_on_c, 5, 74, 0
6, 62040, Note_on_c, 5, 65, 100
6, 62096, Note_on_c, 5, 65, 0
6, 62100, Note_on_c, 5, 64, 100
6, 62156, Note_on_c, 5, 64, 0
6, 62160, Note_on_c, 5, 74, 100
6, 62216, Note_on_c, 5, 74, 0
6, 62220, Note_on_c, 5, 72, 100
6, 62276, Note_on_c, 5, 72, 0
6, 62520, Note_on_c, 5, 62, 100
6, 62576, Note_on_c, 5, 62, 0
6, 62580, Note_on_c, 5, 64, 100
6, 62636, Note_on_c, 5, 64, 0
6, 62640, Note_on_c, 5, 76, 100
6, 63296, Note_on_c, 5, 76, 0
6, 63300, Note_on_c, 5, 74, 100
6, 63411, Note_on_c, 5, 74, 0
6, 63420, Note_on_c, 5, 67, 100
6, 63586, Note_on_c, 5, 67, 0
6, 63600, Note_on_c, 5, 69, 100
6, 64430, Note_on_c, 5, 69, 0
6, 90600, Control_c, 5, 121, 0
6, 90600, End_track
7, 0, Start_track
7, 0, Title_t, "2nd clarinet"
7, 0, MIDI_port, 0
7, 27, Control_c, 12, 101, 0
7, 28, Control_c, 12, 100, 1
7, 29, Control_c, 12, 6, 68
7, 30, Control_c, 12, 38, 0
7, 31, Control_c, 12, 101, 127
7, 32, Control_c, 12, 100, 127
7, 33, Control_c, 12, 91, 39
7, 34, Control_c, 12, 10, 64
7, 35, Control_c, 12, 7, 127
7, 36, Program_c, 12, 71
7, 56171, Note_on_c, 12, 57, 100
7, 56587, Note_on_c, 12, 57, 0
7, 56591, Note_on_c, 12, 69, 100
7, 56707, Note_on_c, 12, 69, 0
7, 56711, Note_on_c, 12, 72, 100
7, 56877, Note_on_c, 12, 72, 0
7, 56891, Note_on_c, 12, 72, 100
7, 56964, Note_on_c, 12, 72, 0
7, 56971, Note_on_c, 12, 67, 100
7, 57044, Note_on_c, 12, 67, 0
7, 57051, Note_on_c, 12, 65, 100
7, 57124, Note_on_c, 12, 65, 0
7, 57131, Note_on_c, 12, 67, 100
7, 57187, Note_on_c, 12, 67, 0
7, 57191, Note_on_c, 12, 69, 100
7, 57247, Note_on_c, 12, 69, 0
7, 57251, Note_on_c, 12, 67, 100
7, 57307, Note_on_c, 12, 67, 0
7, 57311, Note_on_c, 12, 65, 100
7, 57367, Note_on_c, 12, 65, 0
7, 57371, Note_on_c, 12, 64, 100
7, 57427, Note_on_c, 12, 64, 0
7, 57431, Note_on_c, 12, 62, 100
7, 57487, Note_on_c, 12, 62, 0
7, 57491, Note_on_c, 12, 64, 100
7, 57519, Note_on_c, 12, 64, 0
7, 57521, Note_on_c, 12, 69, 100
7, 57549, Note_on_c, 12, 69, 0
7, 57551, Note_on_c, 12, 81, 100
7, 57717, Note_on_c, 12, 81, 0
7, 57731, Note_on_c, 12, 84, 100
7, 57842, Note_on_c, 12, 84, 0
7, 57851, Note_on_c, 12, 84, 100
7, 58164, Note_on_c, 12, 84, 0
7, 58171, Note_on_c, 12, 79, 100
7, 58244, Note_on_c, 12, 79, 0
7, 58251, Note_on_c, 12, 77, 100
7, 58324, Note_on_c, 12, 77, 0
7, 58331, Note_on_c, 12, 79, 100
7, 58442, Note_on_c, 12, 79, 0
7, 58451, Note_on_c, 12, 65, 100
7, 58562, Note_on_c, 12, 65, 0
7, 58571, Note_on_c, 12, 76, 100
7, 58644, Note_on_c, 12, 76, 0
7, 58651, Note_on_c, 12, 74, 100
7, 58724, Note_on_c, 12, 74, 0
7, 58731, Note_on_c, 12, 65, 100
7, 58804, Note_on_c, 12, 65, 0
7, 58811, Note_on_c, 12, 67, 100
7, 58867, Note_on_c, 12, 67, 0
7, 58871, Note_on_c, 12, 69, 100
7, 58927, Note_on_c, 12, 69, 0
7, 58931, Note_on_c, 12, 67, 100
7, 58987, Note_on_c, 12, 67, 0
7, 58991, Note_on_c, 12, 65, 100
7, 59047, Note_on_c, 12, 65, 0
7, 59051, Note_on_c, 12, 64, 100
7, 59107, Note_on_c, 12, 64, 0
7, 59111, Note_on_c, 12, 69, 100
7, 59167, Note_on_c, 12, 69, 0
7, 59171, Note_on_c, 12, 74, 100
7, 59227, Note_on_c, 12, 74, 0
7, 59231, Note_on_c, 12, 79, 100
7, 59287, Note_on_c, 12, 79, 0
7, 59291, Note_on_c, 12, 84, 100
7, 59733, Note_on_c, 12, 84, 0
7, 59831, Note_on_c, 12, 81, 100
7, 59887, Note_on_c, 12, 81, 0
7, 59891, Note_on_c, 12, 79, 100
7, 59947, Note_on_c, 12, 79, 0
7, 59951, Note_on_c, 12, 74, 100
7, 60007, Note_on_c, 12, 74, 0
7, 60011, Note_on_c, 12, 69, 100
7, 60067, Note_on_c, 12, 69, 0
7, 60071, Note_on_c, 12, 77, 100
7, 60127, Note_on_c, 12, 77, 0
7, 60131, Note_on_c, 12, 76, 100
7, 60362, Note_on_c, 12, 76, 0
7, 60851, Note_on_c, 12, 69, 100
7, 60907, Note_on_c, 12, 69, 0
7, 60911, Note_on_c, 12, 77, 100
7, 60967, Note_on_c, 12, 77, 0
7, 60971, Note_on_c, 12, 76, 100
7, 61192, Note_on_c, 12, 76, 0
7, 61271, Note_on_c, 12, 62, 100
7, 61327, Note_on_c, 12, 62, 0
7, 61331, Note_on_c, 12, 60, 100
7, 61387, Note_on_c, 12, 60, 0
7, 61391, Note_on_c, 12, 62, 100
7, 61447, Note_on_c, 12, 62, 0
7, 61451, Note_on_c, 12, 69, 100
7, 61507, Note_on_c, 12, 69, 0
7, 61511, Note_on_c, 12, 76, 100
7, 61567, Note_on_c, 12, 76, 0
7, 61571, Note_on_c, 12, 65, 100
7, 61627, Note_on_c, 12, 65, 0
7, 61631, Note_on_c, 12, 74, 100
7, 61687, Note_on_c, 12, 74, 0
7, 61691, Note_on_c, 12, 64, 100
7, 61747, Note_on_c, 12, 64, 0
7, 61751, Note_on_c, 12, 72, 100
7, 61807, Note_on_c, 12, 72, 0
7, 61811, Note_on_c, 12, 64, 100
7, 61867, Note_on_c, 12, 64, 0
7, 61871, Note_on_c, 12, 65, 100
7, 61927, Note_on_c, 12, 65, 0
7, 61931, Note_on_c, 12, 76, 100
7, 61987, Note_on_c, 12, 76, 0
7, 61991, Note_on_c, 12, 74, 100
7, 62047, Note_on_c, 12, 74, 0
7, 62051, Note_on_c, 12, 65, 100
7, 62107, Note_on_c, 12, 65, 0
7, 62111, Note_on_c, 12, 64, 100
7, 62167, Note_on_c, 12, 64, 0
7, 62171, Note_on_c, 12, 74, 100
7, 62227, Note_on_c, 12, 74, 0
7, 62231, Note_on_c, 12, 72, 100
7, 62287, Note_on_c, 12, 72, 0
7, 62531, Note_on_c, 12, 62, 100
7, 62587, Note_on_c, 12, 62, 0
7, 62591, Note_on_c, 12, 64, 100
7, 62647, Note_on_c, 12, 64, 0
7, 62651, Note_on_c, 12, 76, 100
7, 63307, Note_on_c, 12, 76, 0
7, 63311, Note_on_c, 12, 74, 100
7, 63422, Note_on_c, 12, 74, 0
7, 63431, Note_on_c, 12, 67, 100
7, 63597, Note_on_c, 12, 67, 0
7, 63611, Note_on_c, 12, 69, 100
7, 64441, Note_on_c, 12, 69, 0
7, 90594, Control_c, 12, 101, 0
7, 90595, Control_c, 12, 100, 1
7, 90596, Control_c, 12, 6, 64
7, 90597, Control_c, 12, 38, 0
7, 90598, Control_c, 12, 101, 127
7, 90599, Control_c, 12, 100, 127
7, 90600, Control_c, 12, 121, 0
7, 90600, End_track
8, 0, Start_track
8, 0, Title_t, "clavi"
8, 0, MIDI_port, 0
8, 37, Program_c, 10, 7
8, 38, Control_c, 10, 91, 0
8, 39, Control_c, 10, 7, 127
8, 40, Control_c, 10, 10, 111
8, 29520, Control_c, 10, 11, 127
8, 29760, Note_on_c, 10, 37, 114
8, 30073, Note_on_c, 10, 37, 0
8, 30080, Note_on_c, 10, 37, 114
8, 30153, Note_on_c, 10, 37, 0
8, 30160, Note_on_c, 10, 37, 114
8, 30233, Note_on_c, 10, 37, 0
8, 30240, Note_on_c, 10, 51, 114
8, 30319, Note_on_c, 10, 51, 0
8, 30320, Note_on_c, 10, 51, 114
8, 30399, Note_on_c, 10, 51, 0
8, 30400, Note_on_c, 10, 51, 114
8, 30479, Note_on_c, 10, 51, 0
8, 30480, Note_on_c, 10, 51, 114
8, 31265, Note_on_c, 10, 51, 0
8, 31320, Note_on_c, 10, 51, 114
8, 31431, Note_on_c, 10, 51, 0
8, 31440, Note_on_c, 10, 43, 114
8, 31661, Note_on_c, 10, 43, 0
8, 31683, Note_on_c, 10, 41, 114
8, 31978, Note_on_c, 10, 43, 114
8, 31983, Note_on_c, 10, 41, 0
8, 31993, Note_on_c, 10, 45, 114
8, 31996, Note_on_c, 10, 43, 0
8, 32004, Note_on_c, 10, 47, 114
8, 32007, Note_on_c, 10, 45, 0
8, 32014, Note_on_c, 10, 48, 114
8, 32017, Note_on_c, 10, 47, 0
8, 32024, Note_on_c, 10, 50, 114
8, 32026, Note_on_c, 10, 48, 0
8, 32033, Note_on_c, 10, 52, 114
8, 32036, Note_on_c, 10, 50, 0
8, 32044, Note_on_c, 10, 53, 114
8, 32046, Note_on_c, 10, 52, 0
8, 32055, Note_on_c, 10, 55, 114
8, 32061, Note_on_c, 10, 53, 0
8, 32332, Note_on_c, 10, 53, 98
8, 32338, Note_on_c, 10, 55, 0
8, 32350, Note_on_c, 10, 52, 98
8, 32353, Note_on_c, 10, 53, 0
8, 32361, Note_on_c, 10, 50, 98
8, 32365, Note_on_c, 10, 52, 0
8, 32370, Note_on_c, 10, 48, 98
8, 32374, Note_on_c, 10, 50, 0
8, 32380, Note_on_c, 10, 47, 98
8, 32384, Note_on_c, 10, 48, 0
8, 32389, Note_on_c, 10, 45, 98
8, 32393, Note_on_c, 10, 47, 0
8, 32399, Note_on_c, 10, 43, 98
8, 32403, Note_on_c, 10, 45, 0
8, 32410, Note_on_c, 10, 41, 98
8, 32416, Note_on_c, 10, 43, 0
8, 33113, Note_on_c, 10, 41, 0
8, 33120, Note_on_c, 10, 37, 114
8, 33360, Note_on_c, 10, 54, 114
8, 33366, Note_on_c, 10, 37, 0
8, 33680, Note_on_c, 10, 37, 114
8, 33681, Note_on_c, 10, 54, 0
8, 33755, Note_on_c, 10, 54, 114
8, 33763, Note_on_c, 10, 37, 0
8, 33840, Note_on_c, 10, 54, 0
8, 33900, Note_on_c, 10, 37, 114
8, 34256, Note_on_c, 10, 37, 0
8, 34262, Note_on_c, 10, 54, 114
8, 34440, Note_on_c, 10, 54, 0
8, 34440, Note_on_c, 10, 40, 114
8, 34560, Note_on_c, 10, 39, 114
8, 34565, Note_on_c, 10, 40, 0
8, 34678, Note_on_c, 10, 39, 0
8, 34680, Note_on_c, 10, 57, 73
8, 34798, Note_on_c, 10, 57, 0
8, 34800, Note_on_c, 10, 57, 73
8, 34918, Note_on_c, 10, 57, 0
8, 34920, Note_on_c, 10, 58, 73
8, 35038, Note_on_c, 10, 58, 0
8, 35040, Note_on_c, 10, 60, 73
8, 35158, Note_on_c, 10, 60, 0
8, 35160, Note_on_c, 10, 58, 73
8, 35278, Note_on_c, 10, 58, 0
8, 36720, Note_on_c, 10, 71, 74
8, 36720, Note_on_c, 10, 35, 34
8, 36721, Note_on_c, 10, 73, 74
8, 36721, Note_on_c, 10, 47, 34
8, 36723, Note_on_c, 10, 71, 0
8, 36723, Note_on_c, 10, 35, 0
8, 36724, Note_on_c, 10, 35, 34
8, 36724, Note_on_c, 10, 71, 74
8, 36742, Note_on_c, 10, 73, 0
8, 36742, Note_on_c, 10, 47, 0
8, 36743, Note_on_c, 10, 47, 34
8, 36743, Note_on_c, 10, 73, 74
8, 36757, Note_on_c, 10, 35, 0
8, 36757, Note_on_c, 10, 71, 0
8, 36758, Note_on_c, 10, 35, 34
8, 36762, Note_on_c, 10, 71, 74
8, 36772, Note_on_c, 10, 47, 0
8, 36773, Note_on_c, 10, 73, 0
8, 36775, Note_on_c, 10, 73, 74
8, 36775, Note_on_c, 10, 47, 34
8, 36789, Note_on_c, 10, 35, 0
8, 36789, Note_on_c, 10, 71, 0
8, 36790, Note_on_c, 10, 71, 74
8, 36790, Note_on_c, 10, 35, 34
8, 36803, Note_on_c, 10, 73, 0
8, 36805, Note_on_c, 10, 47, 0
8, 36807, Note_on_c, 10, 73, 74
8, 36807, Note_on_c, 10, 47, 34
8, 36820, Note_on_c, 10, 71, 0
8, 36820, Note_on_c, 10, 35, 0
8, 36822, Note_on_c, 10, 71, 74
8, 36822, Note_on_c, 10, 35, 34
8, 36832, Note_on_c, 10, 73, 0
8, 36835, Note_on_c, 10, 47, 0
8, 36836, Note_on_c, 10, 47, 34
8, 36836, Note_on_c, 10, 73, 74
8, 36849, Note_on_c, 10, 71, 0
8, 36851, Note_on_c, 10, 35, 0
8, 36851, Note_on_c, 10, 71, 74
8, 36863, Note_on_c, 10, 73, 0
8, 36864, Note_on_c, 10, 73, 74
8, 36866, Note_on_c, 10, 47, 0
8, 36876, Note_on_c, 10, 71, 0
8, 36879, Note_on_c, 10, 71, 74
8, 36879, Note_on_c, 10, 35, 34
8, 36892, Note_on_c, 10, 73, 0
8, 36895, Note_on_c, 10, 47, 34
8, 36895, Note_on_c, 10, 73, 74
8, 36907, Note_on_c, 10, 35, 0
8, 36908, Note_on_c, 10, 71, 0
8, 36909, Note_on_c, 10, 71, 74
8, 36909, Note_on_c, 10, 35, 34
8, 36923, Note_on_c, 10, 47, 0
8, 36923, Note_on_c, 10, 73, 0
8, 36926, Note_on_c, 10, 73, 74
8, 36926, Note_on_c, 10, 47, 34
8, 36937, Note_on_c, 10, 71, 0
8, 36937, Note_on_c, 10, 35, 0
8, 36940, Note_on_c, 10, 35, 34
8, 36940, Note_on_c, 10, 71, 74
8, 36954, Note_on_c, 10, 73, 0
8, 36955, Note_on_c, 10, 47, 0
8, 36956, Note_on_c, 10, 47, 34
8, 36956, Note_on_c, 10, 73, 74
8, 36970, Note_on_c, 10, 35, 0
8, 36970, Note_on_c, 10, 71, 0
8, 36972, Note_on_c, 10, 35, 34
8, 36973, Note_on_c, 10, 71, 74
8, 36985, Note_on_c, 10, 47, 0
8, 36985, Note_on_c, 10, 73, 0
8, 36987, Note_on_c, 10, 47, 34
8, 36987, Note_on_c, 10, 73, 74
8, 36997, Note_on_c, 10, 71, 0
8, 37001, Note_on_c, 10, 35, 0
8, 37004, Note_on_c, 10, 71, 74
8, 37004, Note_on_c, 10, 35, 34
8, 37014, Note_on_c, 10, 73, 0
8, 37015, Note_on_c, 10, 73, 74
8, 37018, Note_on_c, 10, 47, 0
8, 37028, Note_on_c, 10, 71, 0
8, 37030, Note_on_c, 10, 35, 0
8, 37030, Note_on_c, 10, 71, 74
8, 37043, Note_on_c, 10, 73, 0
8, 37044, Note_on_c, 10, 47, 34
8, 37044, Note_on_c, 10, 73, 74
8, 37058, Note_on_c, 10, 71, 0
8, 37061, Note_on_c, 10, 35, 34
8, 37061, Note_on_c, 10, 71, 74
8, 37073, Note_on_c, 10, 47, 0
8, 37073, Note_on_c, 10, 73, 0
8, 37075, Note_on_c, 10, 73, 74
8, 37075, Note_on_c, 10, 47, 34
8, 37088, Note_on_c, 10, 71, 0
8, 37090, Note_on_c, 10, 35, 0
8, 37090, Note_on_c, 10, 71, 74
8, 37091, Note_on_c, 10, 35, 34
8, 37104, Note_on_c, 10, 73, 0
8, 37104, Note_on_c, 10, 47, 0
8, 37106, Note_on_c, 10, 73, 74
8, 37106, Note_on_c, 10, 47, 34
8, 37121, Note_on_c, 10, 71, 0
8, 37121, Note_on_c, 10, 35, 0
8, 37122, Note_on_c, 10, 35, 34
8, 37122, Note_on_c, 10, 71, 74
8, 37135, Note_on_c, 10, 73, 0
8, 37135, Note_on_c, 10, 47, 0
8, 37137, Note_on_c, 10, 73, 74
8, 37137, Note_on_c, 10, 47, 34
8, 37150, Note_on_c, 10, 35, 0
8, 37150, Note_on_c, 10, 71, 0
8, 37152, Note_on_c, 10, 35, 34
8, 37152, Note_on_c, 10, 71, 74
8, 37163, Note_on_c, 10, 73, 0
8, 37165, Note_on_c, 10, 47, 0
8, 37166, Note_on_c, 10, 73, 74
8, 37168, Note_on_c, 10, 47, 34
8, 37180, Note_on_c, 10, 71, 0
8, 37182, Note_on_c, 10, 71, 74
8, 37183, Note_on_c, 10, 35, 0
8, 37194, Note_on_c, 10, 73, 0
8, 37195, Note_on_c, 10, 47, 0
8, 37195, Note_on_c, 10, 73, 74
8, 37209, Note_on_c, 10, 71, 0
8, 37210, Note_on_c, 10, 71, 74
8, 37210, Note_on_c, 10, 35, 34
8, 37222, Note_on_c, 10, 73, 0
8, 37223, Note_on_c, 10, 73, 74
8, 37224, Note_on_c, 10, 47, 34
8, 37238, Note_on_c, 10, 71, 0
8, 37238, Note_on_c, 10, 35, 0
8, 37239, Note_on_c, 10, 71, 74
8, 37239, Note_on_c, 10, 35, 34
8, 37253, Note_on_c, 10, 73, 0
8, 37254, Note_on_c, 10, 47, 0
8, 37255, Note_on_c, 10, 47, 34
8, 37255, Note_on_c, 10, 73, 74
8, 37267, Note_on_c, 10, 71, 0
8, 37267, Note_on_c, 10, 35, 0
8, 37273, Note_on_c, 10, 35, 34
8, 37273, Note_on_c, 10, 71, 74
8, 37284, Note_on_c, 10, 73, 0
8, 37285, Note_on_c, 10, 47, 0
8, 37285, Note_on_c, 10, 73, 74
8, 37287, Note_on_c, 10, 47, 34
8, 37300, Note_on_c, 10, 35, 0
8, 37300, Note_on_c, 10, 71, 0
8, 37302, Note_on_c, 10, 35, 34
8, 37302, Note_on_c, 10, 71, 74
8, 37314, Note_on_c, 10, 73, 0
8, 37316, Note_on_c, 10, 47, 0
8, 37318, Note_on_c, 10, 73, 74
8, 37318, Note_on_c, 10, 47, 34
8, 37328, Note_on_c, 10, 71, 0
8, 37330, Note_on_c, 10, 35, 0
8, 37332, Note_on_c, 10, 71, 74
8, 37332, Note_on_c, 10, 35, 34
8, 37344, Note_on_c, 10, 73, 0
8, 37345, Note_on_c, 10, 73, 74
8, 37347, Note_on_c, 10, 47, 0
8, 37359, Note_on_c, 10, 71, 0
8, 37360, Note_on_c, 10, 71, 74
8, 37361, Note_on_c, 10, 35, 0
8, 37373, Note_on_c, 10, 73, 0
8, 37374, Note_on_c, 10, 73, 74
8, 37376, Note_on_c, 10, 47, 34
8, 37388, Note_on_c, 10, 71, 0
8, 37391, Note_on_c, 10, 35, 34
8, 37391, Note_on_c, 10, 71, 74
8, 37403, Note_on_c, 10, 73, 0
8, 37403, Note_on_c, 10, 47, 0
8, 37405, Note_on_c, 10, 73, 74
8, 37405, Note_on_c, 10, 47, 34
8, 37417, Note_on_c, 10, 35, 0
8, 37419, Note_on_c, 10, 71, 0
8, 37421, Note_on_c, 10, 35, 34
8, 37421, Note_on_c, 10, 71, 74
8, 37456, Note_on_c, 10, 73, 0
8, 37456, Note_on_c, 10, 71, 0
8, 37457, Note_on_c, 10, 47, 0
8, 37457, Note_on_c, 10, 35, 0
8, 37500, Note_on_c, 10, 43, 114
8, 37680, Note_on_c, 10, 51, 114
8, 37690, Note_on_c, 10, 43, 0
8, 37860, Note_on_c, 10, 43, 114
8, 37899, Note_on_c, 10, 51, 0
8, 37920, Note_on_c, 10, 51, 114
8, 37926, Note_on_c, 10, 43, 0
8, 38141, Note_on_c, 10, 51, 0
8, 38160, Note_on_c, 10, 40, 94
8, 38160, Note_on_c, 10, 38, 94
8, 38336, Note_on_c, 10, 38, 0
8, 38340, Note_on_c, 10, 47, 94
8, 38341, Note_on_c, 10, 50, 94
8, 38346, Note_on_c, 10, 40, 0
8, 38572, Note_on_c, 10, 50, 0
8, 38580, Note_on_c, 10, 40, 94
8, 38580, Note_on_c, 10, 38, 94
8, 38587, Note_on_c, 10, 47, 0
8, 38756, Note_on_c, 10, 38, 0
8, 38757, Note_on_c, 10, 50, 94
8, 38761, Note_on_c, 10, 47, 94
8, 38766, Note_on_c, 10, 40, 0
8, 39559, Note_on_c, 10, 50, 0
8, 39563, Note_on_c, 10, 47, 0
8, 39563, End_track
9, 0, Start_track
9, 0, Title_t, "celeste"
9, 0, MIDI_port, 0
9, 41, Control_c, 7, 7, 127
9, 42, Program_c, 7, 8
9, 43, Control_c, 7, 91, 55
9, 44, Control_c, 7, 10, 119
9, 29761, Note_on_c, 7, 69, 54
9, 29834, Note_on_c, 7, 69, 0
9, 30079, Note_on_c, 7, 78, 54
9, 30161, Note_on_c, 7, 80, 54
9, 30165, Note_on_c, 7, 78, 0
9, 30240, Note_on_c, 7, 78, 54
9, 30241, Note_on_c, 7, 80, 0
9, 30317, Note_on_c, 7, 78, 0
9, 30319, Note_on_c, 7, 78, 54
9, 30398, Note_on_c, 7, 78, 0
9, 30399, Note_on_c, 7, 78, 54
9, 30477, Note_on_c, 7, 78, 0
9, 30479, Note_on_c, 7, 78, 54
9, 30547, Note_on_c, 7, 78, 0
9, 31266, Note_on_c, 7, 75, 54
9, 31322, Note_on_c, 7, 75, 0
9, 31326, Note_on_c, 7, 76, 54
9, 31382, Note_on_c, 7, 76, 0
9, 31386, Note_on_c, 7, 75, 54
9, 31442, Note_on_c, 7, 75, 0
9, 31446, Note_on_c, 7, 75, 54
9, 31519, Note_on_c, 7, 75, 0
9, 31526, Note_on_c, 7, 76, 54
9, 31599, Note_on_c, 7, 76, 0
9, 31606, Note_on_c, 7, 75, 54
9, 31679, Note_on_c, 7, 75, 0
9, 32321, Note_on_c, 7, 94, 64
9, 32337, Note_on_c, 7, 94, 0
9, 32338, Note_on_c, 7, 92, 64
9, 32354, Note_on_c, 7, 92, 0
9, 32356, Note_on_c, 7, 91, 64
9, 32372, Note_on_c, 7, 91, 0
9, 32373, Note_on_c, 7, 89, 64
9, 32388, Note_on_c, 7, 89, 0
9, 32389, Note_on_c, 7, 87, 64
9, 32404, Note_on_c, 7, 87, 0
9, 32406, Note_on_c, 7, 86, 64
9, 32997, Note_on_c, 7, 86, 0
9, 37500, Note_on_c, 7, 68, 77
9, 37674, Note_on_c, 7, 68, 0
9, 37680, Note_on_c, 7, 80, 86
9, 37860, Note_on_c, 7, 68, 67
9, 37867, Note_on_c, 7, 80, 0
9, 37920, Note_on_c, 7, 80, 107
9, 37922, Note_on_c, 7, 68, 0
9, 38124, Note_on_c, 7, 80, 0
9, 38160, Note_on_c, 7, 67, 74
9, 38340, Note_on_c, 7, 79, 93
9, 38344, Note_on_c, 7, 67, 0
9, 38580, Note_on_c, 7, 67, 72
9, 38584, Note_on_c, 7, 79, 0
9, 38727, Note_on_c, 7, 67, 0
9, 38760, Note_on_c, 7, 79, 86
9, 39584, Note_on_c, 7, 79, 0
9, 59520, Note_on_c, 7, 79, 92
9, 59580, Note_on_c, 7, 81, 82
9, 59581, Note_on_c, 7, 79, 0
9, 59640, Note_on_c, 7, 79, 106
9, 59644, Note_on_c, 7, 81, 0
9, 59700, Note_on_c, 7, 77, 92
9, 59705, Note_on_c, 7, 79, 0
9, 59760, Note_on_c, 7, 76, 92
9, 59765, Note_on_c, 7, 77, 0
9, 59870, Note_on_c, 7, 76, 0
9, 61440, Note_on_c, 7, 77, 71
9, 61500, Note_on_c, 7, 81, 69
9, 61503, Note_on_c, 7, 77, 0
9, 61560, Note_on_c, 7, 79, 84
9, 61562, Note_on_c, 7, 81, 0
9, 61610, Note_on_c, 7, 79, 0
9, 61620, Note_on_c, 7, 81, 79
9, 61680, Note_on_c, 7, 79, 74
9, 61685, Note_on_c, 7, 81, 0
9, 61740, Note_on_c, 7, 79, 0
9, 61740, Note_on_c, 7, 77, 58
9, 61800, Note_on_c, 7, 76, 66
9, 61814, Note_on_c, 7, 77, 0
9, 61860, Note_on_c, 7, 79, 95
9, 61861, Note_on_c, 7, 76, 0
9, 61920, Note_on_c, 7, 81, 109
9, 61922, Note_on_c, 7, 79, 0
9, 61964, Note_on_c, 7, 81, 0
9, 61980, Note_on_c, 7, 79, 91
9, 62016, Note_on_c, 7, 79, 0
9, 62040, Note_on_c, 7, 79, 115
9, 62088, Note_on_c, 7, 79, 0
9, 62100, Note_on_c, 7, 81, 115
9, 62121, Note_on_c, 7, 81, 0
9, 62160, Note_on_c, 7, 79, 127
9, 62209, Note_on_c, 7, 79, 0
9, 62220, Note_on_c, 7, 77, 118
9, 62281, Note_on_c, 7, 79, 91
9, 62286, Note_on_c, 7, 77, 0
9, 62341, Note_on_c, 7, 81, 112
9, 62349, Note_on_c, 7, 79, 0
9, 62395, Note_on_c, 7, 81, 0
9, 62401, Note_on_c, 7, 79, 82
9, 62461, Note_on_c, 7, 77, 112
9, 62464, Note_on_c, 7, 79, 0
9, 62518, Note_on_c, 7, 77, 0
9, 62521, Note_on_c, 7, 76, 112
9, 62632, Note_on_c, 7, 76, 0
9, 62641, Note_on_c, 7, 79, 91
9, 62701, Note_on_c, 7, 81, 112
9, 62709, Note_on_c, 7, 79, 0
9, 62755, Note_on_c, 7, 81, 0
9, 62761, Note_on_c, 7, 79, 82
9, 62821, Note_on_c, 7, 77, 112
9, 62824, Note_on_c, 7, 79, 0
9, 62878, Note_on_c, 7, 77, 0
9, 62881, Note_on_c, 7, 76, 112
9, 62992, Note_on_c, 7, 76, 0
9, 62992, End_track
10, 0, Start_track
10, 0, Title_t, "piano"
10, 0, MIDI_port, 0
10, 45, Program_c, 0, 0
10, 46, Control_c, 0, 91, 87
10, 47, Control_c, 0, 10, 64
10, 48, Control_c, 0, 7, 127
10, 720, Note_on_c, 0, 62, 127
10, 723, Note_on_c, 0, 60, 123
10, 724, Note_on_c, 0, 67, 114
10, 1367, Note_on_c, 0, 62, 0
10, 1379, Note_on_c, 0, 67, 0
10, 1381, Note_on_c, 0, 60, 0
10, 1434, Note_on_c, 0, 67, 99
10, 1434, Note_on_c, 0, 62, 94
10, 1435, Note_on_c, 0, 72, 102
10, 2020, Note_on_c, 0, 72, 0
10, 2028, Note_on_c, 0, 67, 0
10, 2028, Note_on_c, 0, 62, 0
10, 2039, Note_on_c, 0, 60, 100
10, 2040, Note_on_c, 0, 62, 127
10, 2040, Note_on_c, 0, 67, 102
10, 2119, Note_on_c, 0, 67, 0
10, 2125, Note_on_c, 0, 60, 0
10, 2140, Note_on_c, 0, 62, 0
10, 2160, Note_on_c, 0, 58, 123
10, 2162, Note_on_c, 0, 60, 127
10, 2162, Note_on_c, 0, 65, 107
10, 2675, Note_on_c, 0, 58, 0
10, 2689, Note_on_c, 0, 60, 0
10, 2689, Note_on_c, 0, 65, 0
10, 2701, Note_on_c, 0, 58, 123
10, 2703, Note_on_c, 0, 60, 127
10, 2703, Note_on_c, 0, 65, 107
10, 2874, Note_on_c, 0, 67, 120
10, 2874, Note_on_c, 0, 64, 104
10, 2875, Note_on_c, 0, 71, 123
10, 2876, Note_on_c, 0, 74, 110
10, 2885, Note_on_c, 0, 58, 0
10, 2885, Note_on_c, 0, 60, 0
10, 2885, Note_on_c, 0, 65, 0
10, 3564, Note_on_c, 0, 74, 0
10, 3575, Note_on_c, 0, 64, 0
10, 3577, Note_on_c, 0, 67, 0
10, 3577, Note_on_c, 0, 71, 0
10, 3597, Note_on_c, 0, 62, 114
10, 3597, Note_on_c, 0, 60, 126
10, 3598, Note_on_c, 0, 55, 104
10, 4038, Note_on_c, 0, 60, 0
10, 4039, Note_on_c, 0, 62, 0
10, 4040, Note_on_c, 0, 55, 0
10, 4070, Note_on_c, 0, 62, 120
10, 4071, Note_on_c, 0, 55, 104
10, 4071, Note_on_c, 0, 60, 127
10, 4283, Note_on_c, 0, 62, 0
10, 4283, Note_on_c, 0, 60, 0
10, 4285, Note_on_c, 0, 55, 0
10, 4318, Note_on_c, 0, 57, 104
10, 4318, Note_on_c, 0, 64, 96
10, 4319, Note_on_c, 0, 60, 127
10, 4729, Note_on_c, 0, 64, 0
10, 4730, Note_on_c, 0, 60, 0
10, 4733, Note_on_c, 0, 57, 0
10, 4798, Note_on_c, 0, 72, 112
10, 4798, Note_on_c, 0, 64, 123
10, 4798, Note_on_c, 0, 69, 127
10, 4997, Note_on_c, 0, 72, 0
10, 4998, Note_on_c, 0, 64, 0
10, 4999, Note_on_c, 0, 69, 0
10, 5037, Note_on_c, 0, 62, 127
10, 5037, Note_on_c, 0, 60, 127
10, 5038, Note_on_c, 0, 67, 93
10, 5258, Note_on_c, 0, 62, 0
10, 5259, Note_on_c, 0, 60, 0
10, 5260, Note_on_c, 0, 67, 0
10, 5285, Note_on_c, 0, 62, 110
10, 5286, Note_on_c, 0, 67, 127
10, 5287, Note_on_c, 0, 72, 102
10, 5489, Note_on_c, 0, 72, 0
10, 5490, Note_on_c, 0, 62, 0
10, 5492, Note_on_c, 0, 67, 0
10, 5520, Note_on_c, 0, 74, 94
10, 5521, Note_on_c, 0, 72, 117
10, 5521, Note_on_c, 0, 79, 102
10, 5697, Note_on_c, 0, 79, 0
10, 5700, Note_on_c, 0, 72, 0
10, 5701, Note_on_c, 0, 74, 0
10, 5741, Note_on_c, 0, 59, 79
10, 5752, Note_on_c, 0, 66, 98
10, 5763, Note_on_c, 0, 69, 100
10, 5767, Note_on_c, 0, 71, 73
10, 5772, Note_on_c, 0, 73, 75
10, 5778, Note_on_c, 0, 76, 87
10, 6228, Note_on_c, 0, 66, 0
10, 6228, Note_on_c, 0, 73, 0
10, 6229, Note_on_c, 0, 69, 0
10, 6230, Note_on_c, 0, 69, 62
10, 6235, Note_on_c, 0, 71, 0
10, 6237, Note_on_c, 0, 66, 86
10, 6239, Note_on_c, 0, 59, 0
10, 6239, Note_on_c, 0, 76, 0
10, 6239, Note_on_c, 0, 71, 76
10, 6240, Note_on_c, 0, 59, 61
10, 6243, Note_on_c, 0, 73, 85
10, 6251, Note_on_c, 0, 76, 68
10, 6396, Note_on_c, 0, 69, 0
10, 6407, Note_on_c, 0, 71, 0
10, 6409, Note_on_c, 0, 76, 0
10, 6410, Note_on_c, 0, 73, 0
10, 6415, Note_on_c, 0, 66, 0
10, 6418, Note_on_c, 0, 59, 0
10, 6471, Note_on_c, 0, 69, 92
10, 6472, Note_on_c, 0, 62, 117
10, 6472, Note_on_c, 0, 64, 127
10, 7040, Note_on_c, 0, 69, 0
10, 7043, Note_on_c, 0, 64, 0
10, 7044, Note_on_c, 0, 62, 0
10, 7077, Note_on_c, 0, 64, 127
10, 7077, Note_on_c, 0, 62, 127
10, 7077, Note_on_c, 0, 69, 100
10, 7175, Note_on_c, 0, 64, 0
10, 7177, Note_on_c, 0, 62, 0
10, 7177, Note_on_c, 0, 69, 0
10, 7206, Note_on_c, 0, 67, 123
10, 7206, Note_on_c, 0, 70, 126
10, 7206, Note_on_c, 0, 63, 120
10, 7645, Note_on_c, 0, 63, 0
10, 7646, Note_on_c, 0, 67, 0
10, 7646, Note_on_c, 0, 70, 0
10, 7678, Note_on_c, 0, 70, 114
10, 7678, Note_on_c, 0, 67, 105
10, 7678, Note_on_c, 0, 63, 110
10, 7897, Note_on_c, 0, 67, 0
10, 7900, Note_on_c, 0, 63, 0
10, 7901, Note_on_c, 0, 70, 0
10, 7918, Note_on_c, 0, 65, 102
10, 7919, Note_on_c, 0, 60, 94
10, 7919, Note_on_c, 0, 62, 104
10, 7920, Note_on_c, 0, 69, 76
10, 8377, Note_on_c, 0, 65, 0
10, 8378, Note_on_c, 0, 62, 0
10, 8379, Note_on_c, 0, 69, 0
10, 8380, Note_on_c, 0, 60, 0
10, 8402, Note_on_c, 0, 69, 79
10, 8403, Note_on_c, 0, 65, 105
10, 8403, Note_on_c, 0, 62, 107
10, 8404, Note_on_c, 0, 60, 105
10, 8613, Note_on_c, 0, 69, 0
10, 8614, Note_on_c, 0, 62, 0
10, 8615, Note_on_c, 0, 60, 0
10, 8616, Note_on_c, 0, 65, 0
10, 8639, Note_on_c, 0, 58, 127
10, 8640, Note_on_c, 0, 67, 86
10, 8640, Note_on_c, 0, 63, 127
10, 9098, Note_on_c, 0, 67, 0
10, 9101, Note_on_c, 0, 58, 0
10, 9103, Note_on_c, 0, 63, 0
10, 9117, Note_on_c, 0, 63, 112
10, 9117, Note_on_c, 0, 58, 112
10, 9118, Note_on_c, 0, 67, 85
10, 9327, Note_on_c, 0, 67, 0
10, 9328, Note_on_c, 0, 58, 0
10, 9335, Note_on_c, 0, 63, 0
10, 9361, Note_on_c, 0, 62, 84
10, 9361, Note_on_c, 0, 60, 92
10, 9361, Note_on_c, 0, 55, 87
10, 9524, Note_on_c, 0, 62, 0
10, 9524, Note_on_c, 0, 60, 0
10, 9524, Note_on_c, 0, 55, 0
10, 9537, Note_on_c, 0, 62, 84
10, 9537, Note_on_c, 0, 60, 90
10, 9537, Note_on_c, 0, 55, 87
10, 9588, Note_on_c, 0, 55, 0
10, 9589, Note_on_c, 0, 62, 0
10, 9590, Note_on_c, 0, 60, 0
10, 9597, Note_on_c, 0, 55, 94
10, 9597, Note_on_c, 0, 62, 94
10, 9597, Note_on_c, 0, 60, 97
10, 9771, Note_on_c, 0, 55, 0
10, 9771, Note_on_c, 0, 62, 0
10, 9771, Note_on_c, 0, 60, 0
10, 9777, Note_on_c, 0, 55, 72
10, 9777, Note_on_c, 0, 60, 76
10, 9777, Note_on_c, 0, 62, 77
10, 9830, Note_on_c, 0, 55, 0
10, 9830, Note_on_c, 0, 60, 0
10, 9830, Note_on_c, 0, 62, 0
10, 9836, Note_on_c, 0, 62, 97
10, 9836, Note_on_c, 0, 60, 97
10, 9836, Note_on_c, 0, 55, 88
10, 10012, Note_on_c, 0, 60, 0
10, 10012, Note_on_c, 0, 55, 0
10, 10014, Note_on_c, 0, 62, 0
10, 10017, Note_on_c, 0, 60, 82
10, 10017, Note_on_c, 0, 62, 87
10, 10018, Note_on_c, 0, 55, 73
10, 10075, Note_on_c, 0, 60, 0
10, 10075, Note_on_c, 0, 62, 0
10, 10077, Note_on_c, 0, 55, 0
10, 10078, Note_on_c, 0, 58, 117
10, 10078, Note_on_c, 0, 60, 114
10, 10079, Note_on_c, 0, 65, 79
10, 10240, Note_on_c, 0, 65, 0
10, 10243, Note_on_c, 0, 60, 0
10, 10247, Note_on_c, 0, 58, 0
10, 10259, Note_on_c, 0, 58, 85
10, 10260, Note_on_c, 0, 60, 90
10, 10261, Note_on_c, 0, 65, 82
10, 10283, Note_on_c, 0, 60, 0
10, 10284, Note_on_c, 0, 58, 0
10, 10285, Note_on_c, 0, 65, 0
10, 10318, Note_on_c, 0, 60, 77
10, 10318, Note_on_c, 0, 65, 71
10, 10319, Note_on_c, 0, 58, 90
10, 10477, Note_on_c, 0, 65, 0
10, 10479, Note_on_c, 0, 60, 0
10, 10479, Note_on_c, 0, 58, 0
10, 10498, Note_on_c, 0, 60, 100
10, 10499, Note_on_c, 0, 58, 107
10, 10499, Note_on_c, 0, 65, 78
10, 10590, Note_on_c, 0, 60, 0
10, 10593, Note_on_c, 0, 58, 0
10, 10601, Note_on_c, 0, 65, 0
10, 10616, Note_on_c, 0, 65, 82
10, 10616, Note_on_c, 0, 60, 110
10, 10616, Note_on_c, 0, 58, 127
10, 10718, Note_on_c, 0, 65, 0
10, 10718, Note_on_c, 0, 60, 0
10, 10719, Note_on_c, 0, 58, 0
10, 10738, Note_on_c, 0, 65, 83
10, 10738, Note_on_c, 0, 58, 105
10, 10738, Note_on_c, 0, 60, 104
10, 10757, Note_on_c, 0, 60, 0
10, 10759, Note_on_c, 0, 65, 0
10, 10759, Note_on_c, 0, 58, 0
10, 10798, Note_on_c, 0, 60, 90
10, 10798, Note_on_c, 0, 53, 107
10, 10798, Note_on_c, 0, 55, 94
10, 10959, Note_on_c, 0, 55, 0
10, 10960, Note_on_c, 0, 60, 0
10, 10962, Note_on_c, 0, 53, 0
10, 10981, Note_on_c, 0, 53, 94
10, 10981, Note_on_c, 0, 55, 85
10, 10982, Note_on_c, 0, 60, 85
10, 11003, Note_on_c, 0, 55, 0
10, 11005, Note_on_c, 0, 53, 0
10, 11005, Note_on_c, 0, 60, 0
10, 11041, Note_on_c, 0, 53, 96
10, 11041, Note_on_c, 0, 55, 87
10, 11041, Note_on_c, 0, 60, 86
10, 11202, Note_on_c, 0, 55, 0
10, 11203, Note_on_c, 0, 60, 0
10, 11206, Note_on_c, 0, 53, 0
10, 11222, Note_on_c, 0, 60, 81
10, 11222, Note_on_c, 0, 55, 83
10, 11222, Note_on_c, 0, 53, 92
10, 11248, Note_on_c, 0, 60, 0
10, 11251, Note_on_c, 0, 55, 0
10, 11252, Note_on_c, 0, 53, 0
10, 11279, Note_on_c, 0, 53, 87
10, 11281, Note_on_c, 0, 60, 88
10, 11281, Note_on_c, 0, 55, 82
10, 11337, Note_on_c, 0, 48, 66
10, 11341, Note_on_c, 0, 55, 0
10, 11356, Note_on_c, 0, 53, 0
10, 11372, Note_on_c, 0, 60, 0
10, 11399, Note_on_c, 0, 60, 104
10, 11401, Note_on_c, 0, 55, 88
10, 11401, Note_on_c, 0, 53, 82
10, 11500, Note_on_c, 0, 60, 0
10, 11501, Note_on_c, 0, 53, 0
10, 11503, Note_on_c, 0, 48, 0
10, 11503, Note_on_c, 0, 55, 0
10, 11520, Note_on_c, 0, 56, 126
10, 11520, Note_on_c, 0, 58, 114
10, 11521, Note_on_c, 0, 52, 92
10, 12082, Note_on_c, 0, 59, 104
10, 12161, Note_on_c, 0, 64, 97
10, 12247, Note_on_c, 0, 68, 127
10, 12248, Note_on_c, 0, 70, 127
10, 12489, Note_on_c, 0, 52, 0
10, 12504, Note_on_c, 0, 56, 0
10, 12525, Note_on_c, 0, 58, 0
10, 12796, Note_on_c, 0, 71, 68
10, 12873, Note_on_c, 0, 76, 97
10, 12958, Note_on_c, 0, 80, 127
10, 12960, Note_on_c, 0, 82, 127
10, 13698, Note_on_c, 0, 94, 127
10, 13699, Note_on_c, 0, 92, 127
10, 14322, Note_on_c, 0, 70, 0
10, 15046, Note_on_c, 0, 92, 0
10, 15047, Note_on_c, 0, 94, 0
10, 15059, Note_on_c, 0, 64, 0
10, 15076, Note_on_c, 0, 68, 0
10, 15076, Note_on_c, 0, 80, 0
10, 15076, Note_on_c, 0, 82, 0
10, 15078, Note_on_c, 0, 76, 0
10, 15079, Note_on_c, 0, 71, 0
10, 15083, Note_on_c, 0, 59, 0
10, 15123, Note_on_c, 0, 60, 103
10, 15123, Note_on_c, 0, 65, 107
10, 15124, Note_on_c, 0, 67, 94
10, 15770, Note_on_c, 0, 65, 0
10, 15779, Note_on_c, 0, 67, 0
10, 15781, Note_on_c, 0, 60, 0
10, 15834, Note_on_c, 0, 60, 74
10, 15834, Note_on_c, 0, 62, 103
10, 15835, Note_on_c, 0, 67, 82
10, 16420, Note_on_c, 0, 67, 0
10, 16428, Note_on_c, 0, 60, 0
10, 16428, Note_on_c, 0, 62, 0
10, 16439, Note_on_c, 0, 60, 80
10, 16440, Note_on_c, 0, 67, 82
10, 16440, Note_on_c, 0, 62, 107
10, 16519, Note_on_c, 0, 67, 0
10, 16525, Note_on_c, 0, 60, 0
10, 16540, Note_on_c, 0, 62, 0
10, 16560, Note_on_c, 0, 58, 103
10, 16562, Note_on_c, 0, 60, 107
10, 16562, Note_on_c, 0, 65, 87
10, 17075, Note_on_c, 0, 58, 0
10, 17089, Note_on_c, 0, 60, 0
10, 17089, Note_on_c, 0, 65, 0
10, 17101, Note_on_c, 0, 58, 103
10, 17103, Note_on_c, 0, 65, 87
10, 17103, Note_on_c, 0, 60, 107
10, 17274, Note_on_c, 0, 64, 84
10, 17274, Note_on_c, 0, 67, 100
10, 17275, Note_on_c, 0, 71, 103
10, 17276, Note_on_c, 0, 74, 90
10, 17285, Note_on_c, 0, 58, 0
10, 17285, Note_on_c, 0, 65, 0
10, 17285, Note_on_c, 0, 60, 0
10, 17964, Note_on_c, 0, 74, 0
10, 17975, Note_on_c, 0, 64, 0
10, 17977, Note_on_c, 0, 67, 0
10, 17977, Note_on_c, 0, 71, 0
10, 17997, Note_on_c, 0, 62, 94
10, 17997, Note_on_c, 0, 60, 106
10, 17998, Note_on_c, 0, 55, 84
10, 18258, Note_on_c, 0, 60, 0
10, 18258, Note_on_c, 0, 55, 0
10, 18262, Note_on_c, 0, 62, 0
10, 18363, Note_on_c, 0, 62, 100
10, 18363, Note_on_c, 0, 72, 107
10, 18367, Note_on_c, 0, 67, 84
10, 18473, Note_on_c, 0, 62, 0
10, 18473, Note_on_c, 0, 72, 0
10, 18477, Note_on_c, 0, 67, 0
10, 18487, Note_on_c, 0, 62, 100
10, 18487, Note_on_c, 0, 72, 107
10, 18491, Note_on_c, 0, 67, 84
10, 18713, Note_on_c, 0, 62, 0
10, 18713, Note_on_c, 0, 72, 0
10, 18717, Note_on_c, 0, 67, 0
10, 18720, Note_on_c, 0, 50, 97
10, 18721, Note_on_c, 0, 38, 94
10, 18836, Note_on_c, 0, 69, 107
10, 18837, Note_on_c, 0, 64, 97
10, 18837, Note_on_c, 0, 65, 107
10, 18873, Note_on_c, 0, 64, 0
10, 18874, Note_on_c, 0, 65, 0
10, 18875, Note_on_c, 0, 69, 0
10, 18960, Note_on_c, 0, 69, 107
10, 18961, Note_on_c, 0, 65, 107
10, 18961, Note_on_c, 0, 64, 107
10, 19074, Note_on_c, 0, 69, 0
10, 19076, Note_on_c, 0, 64, 0
10, 19080, Note_on_c, 0, 64, 103
10, 19080, Note_on_c, 0, 72, 92
10, 19080, Note_on_c, 0, 69, 107
10, 19191, Note_on_c, 0, 65, 0
10, 19197, Note_on_c, 0, 64, 0
10, 19197, Note_on_c, 0, 72, 0
10, 19197, Note_on_c, 0, 69, 0
10, 19198, Note_on_c, 0, 64, 103
10, 19198, Note_on_c, 0, 69, 107
10, 19198, Note_on_c, 0, 72, 92
10, 19358, Note_on_c, 0, 50, 0
10, 19362, Note_on_c, 0, 38, 0
10, 19397, Note_on_c, 0, 72, 0
10, 19398, Note_on_c, 0, 64, 0
10, 19399, Note_on_c, 0, 69, 0
10, 19437, Note_on_c, 0, 60, 107
10, 19437, Note_on_c, 0, 62, 107
10, 19438, Note_on_c, 0, 67, 73
10, 19658, Note_on_c, 0, 62, 0
10, 19659, Note_on_c, 0, 60, 0
10, 19660, Note_on_c, 0, 67, 0
10, 19685, Note_on_c, 0, 62, 90
10, 19686, Note_on_c, 0, 67, 107
10, 19687, Note_on_c, 0, 72, 82
10, 19889, Note_on_c, 0, 72, 0
10, 19890, Note_on_c, 0, 62, 0
10, 19892, Note_on_c, 0, 67, 0
10, 19919, Note_on_c, 0, 74, 74
10, 19920, Note_on_c, 0, 72, 97
10, 19920, Note_on_c, 0, 79, 82
10, 20096, Note_on_c, 0, 79, 0
10, 20099, Note_on_c, 0, 72, 0
10, 20100, Note_on_c, 0, 74, 0
10, 20141, Note_on_c, 0, 59, 59
10, 20152, Note_on_c, 0, 66, 78
10, 20163, Note_on_c, 0, 69, 80
10, 20167, Note_on_c, 0, 71, 53
10, 20172, Note_on_c, 0, 73, 55
10, 20178, Note_on_c, 0, 76, 67
10, 20628, Note_on_c, 0, 66, 0
10, 20628, Note_on_c, 0, 73, 0
10, 20629, Note_on_c, 0, 69, 0
10, 20630, Note_on_c, 0, 69, 42
10, 20635, Note_on_c, 0, 71, 0
10, 20637, Note_on_c, 0, 66, 66
10, 20639, Note_on_c, 0, 59, 0
10, 20639, Note_on_c, 0, 76, 0
10, 20639, Note_on_c, 0, 71, 56
10, 20640, Note_on_c, 0, 59, 41
10, 20643, Note_on_c, 0, 73, 65
10, 20651, Note_on_c, 0, 76, 48
10, 20805, Note_on_c, 0, 69, 0
10, 20807, Note_on_c, 0, 71, 0
10, 20809, Note_on_c, 0, 76, 0
10, 20810, Note_on_c, 0, 73, 0
10, 20815, Note_on_c, 0, 66, 0
10, 20818, Note_on_c, 0, 59, 0
10, 20871, Note_on_c, 0, 69, 72
10, 20872, Note_on_c, 0, 64, 107
10, 20872, Note_on_c, 0, 62, 97
10, 21440, Note_on_c, 0, 69, 0
10, 21443, Note_on_c, 0, 64, 0
10, 21444, Note_on_c, 0, 62, 0
10, 21477, Note_on_c, 0, 69, 80
10, 21477, Note_on_c, 0, 62, 107
10, 21477, Note_on_c, 0, 64, 107
10, 21575, Note_on_c, 0, 64, 0
10, 21577, Note_on_c, 0, 69, 0
10, 21577, Note_on_c, 0, 62, 0
10, 21603, Note_on_c, 0, 63, 100
10, 21603, Note_on_c, 0, 67, 103
10, 21832, Note_on_c, 0, 63, 0
10, 21832, Note_on_c, 0, 67, 0
10, 21838, Note_on_c, 0, 67, 103
10, 21838, Note_on_c, 0, 63, 100
10, 21955, Note_on_c, 0, 63, 0
10, 21956, Note_on_c, 0, 67, 0
10, 21958, Note_on_c, 0, 63, 100
10, 21958, Note_on_c, 0, 67, 103
10, 22075, Note_on_c, 0, 63, 0
10, 22076, Note_on_c, 0, 67, 0
10, 22081, Note_on_c, 0, 63, 100
10, 22081, Note_on_c, 0, 67, 103
10, 22198, Note_on_c, 0, 63, 0
10, 22199, Note_on_c, 0, 67, 0
10, 22204, Note_on_c, 0, 67, 103
10, 22204, Note_on_c, 0, 63, 100
10, 22320, Note_on_c, 0, 62, 84
10, 22320, Note_on_c, 0, 65, 83
10, 22320, Note_on_c, 0, 69, 72
10, 22320, Note_on_c, 0, 60, 69
10, 22321, Note_on_c, 0, 63, 0
10, 22322, Note_on_c, 0, 67, 0
10, 22397, Note_on_c, 0, 62, 0
10, 22397, Note_on_c, 0, 65, 0
10, 22402, Note_on_c, 0, 60, 0
10, 22404, Note_on_c, 0, 69, 0
10, 22442, Note_on_c, 0, 69, 91
10, 22442, Note_on_c, 0, 62, 102
10, 22442, Note_on_c, 0, 65, 101
10, 22442, Note_on_c, 0, 60, 85
10, 22651, Note_on_c, 0, 69, 0
10, 22655, Note_on_c, 0, 62, 0
10, 22655, Note_on_c, 0, 65, 0
10, 22663, Note_on_c, 0, 60, 0
10, 22682, Note_on_c, 0, 60, 85
10, 22683, Note_on_c, 0, 65, 91
10, 22684, Note_on_c, 0, 69, 83
10, 22684, Note_on_c, 0, 62, 97
10, 22776, Note_on_c, 0, 69, 0
10, 22780, Note_on_c, 0, 65, 0
10, 22780, Note_on_c, 0, 62, 0
10, 22784, Note_on_c, 0, 60, 0
10, 22801, Note_on_c, 0, 60, 79
10, 22802, Note_on_c, 0, 69, 77
10, 22802, Note_on_c, 0, 62, 85
10, 22802, Note_on_c, 0, 65, 83
10, 22900, Note_on_c, 0, 65, 0
10, 22901, Note_on_c, 0, 69, 0
10, 22903, Note_on_c, 0, 62, 0
10, 22904, Note_on_c, 0, 60, 0
10, 22922, Note_on_c, 0, 60, 91
10, 22922, Note_on_c, 0, 65, 92
10, 22922, Note_on_c, 0, 69, 88
10, 22923, Note_on_c, 0, 62, 96
10, 23012, Note_on_c, 0, 60, 0
10, 23012, Note_on_c, 0, 69, 0
10, 23013, Note_on_c, 0, 62, 0
10, 23014, Note_on_c, 0, 65, 0
10, 23042, Note_on_c, 0, 63, 57
10, 23043, Note_on_c, 0, 58, 94
10, 23043, Note_on_c, 0, 67, 49
10, 23043, Note_on_c, 0, 56, 56
10, 23101, Note_on_c, 0, 56, 0
10, 23105, Note_on_c, 0, 63, 0
10, 23106, Note_on_c, 0, 67, 0
10, 23108, Note_on_c, 0, 58, 0
10, 23162, Note_on_c, 0, 63, 85
10, 23162, Note_on_c, 0, 56, 77
10, 23162, Note_on_c, 0, 58, 80
10, 23162, Note_on_c, 0, 67, 58
10, 23280, Note_on_c, 0, 63, 0
10, 23280, Note_on_c, 0, 56, 0
10, 23280, Note_on_c, 0, 58, 0
10, 23280, Note_on_c, 0, 67, 0
10, 23282, Note_on_c, 0, 56, 60
10, 23282, Note_on_c, 0, 58, 80
10, 23282, Note_on_c, 0, 63, 77
10, 23282, Note_on_c, 0, 67, 58
10, 23400, Note_on_c, 0, 56, 0
10, 23400, Note_on_c, 0, 58, 0
10, 23400, Note_on_c, 0, 63, 0
10, 23400, Note_on_c, 0, 67, 0
10, 23402, Note_on_c, 0, 67, 68
10, 23402, Note_on_c, 0, 63, 87
10, 23402, Note_on_c, 0, 56, 70
10, 23402, Note_on_c, 0, 58, 80
10, 23520, Note_on_c, 0, 67, 0
10, 23520, Note_on_c, 0, 63, 0
10, 23520, Note_on_c, 0, 56, 0
10, 23520, Note_on_c, 0, 58, 0
10, 23522, Note_on_c, 0, 63, 107
10, 23522, Note_on_c, 0, 58, 103
10, 23522, Note_on_c, 0, 67, 78
10, 23522, Note_on_c, 0, 56, 85
10, 23640, Note_on_c, 0, 63, 0
10, 23640, Note_on_c, 0, 58, 0
10, 23640, Note_on_c, 0, 67, 0
10, 23640, Note_on_c, 0, 56, 0
10, 23642, Note_on_c, 0, 67, 72
10, 23642, Note_on_c, 0, 63, 107
10, 23642, Note_on_c, 0, 58, 97
10, 23642, Note_on_c, 0, 56, 82
10, 23760, Note_on_c, 0, 67, 0
10, 23760, Note_on_c, 0, 63, 0
10, 23760, Note_on_c, 0, 58, 0
10, 23760, Note_on_c, 0, 56, 0
10, 23761, Note_on_c, 0, 60, 72
10, 23762, Note_on_c, 0, 55, 67
10, 23762, Note_on_c, 0, 62, 64
10, 23905, Note_on_c, 0, 62, 0
10, 23909, Note_on_c, 0, 60, 0
10, 23909, Note_on_c, 0, 55, 0
10, 23939, Note_on_c, 0, 60, 70
10, 23940, Note_on_c, 0, 62, 64
10, 23941, Note_on_c, 0, 55, 67
10, 23966, Note_on_c, 0, 60, 0
10, 23967, Note_on_c, 0, 62, 0
10, 23969, Note_on_c, 0, 55, 0
10, 23999, Note_on_c, 0, 60, 77
10, 23999, Note_on_c, 0, 62, 74
10, 23999, Note_on_c, 0, 55, 74
10, 24159, Note_on_c, 0, 62, 0
10, 24162, Note_on_c, 0, 60, 0
10, 24163, Note_on_c, 0, 55, 0
10, 24180, Note_on_c, 0, 60, 56
10, 24181, Note_on_c, 0, 55, 52
10, 24182, Note_on_c, 0, 62, 57
10, 24221, Note_on_c, 0, 62, 0
10, 24222, Note_on_c, 0, 60, 0
10, 24222, Note_on_c, 0, 55, 0
10, 24238, Note_on_c, 0, 60, 77
10, 24238, Note_on_c, 0, 62, 77
10, 24238, Note_on_c, 0, 55, 68
10, 24398, Note_on_c, 0, 62, 0
10, 24400, Note_on_c, 0, 60, 0
10, 24402, Note_on_c, 0, 55, 0
10, 24413, Note_on_c, 0, 60, 62
10, 24413, Note_on_c, 0, 62, 67
10, 24414, Note_on_c, 0, 55, 53
10, 24471, Note_on_c, 0, 60, 0
10, 24471, Note_on_c, 0, 62, 0
10, 24473, Note_on_c, 0, 55, 0
10, 24475, Note_on_c, 0, 58, 97
10, 24476, Note_on_c, 0, 60, 94
10, 24478, Note_on_c, 0, 65, 59
10, 24639, Note_on_c, 0, 65, 0
10, 24641, Note_on_c, 0, 60, 0
10, 24644, Note_on_c, 0, 58, 0
10, 24659, Note_on_c, 0, 58, 65
10, 24660, Note_on_c, 0, 60, 70
10, 24661, Note_on_c, 0, 65, 62
10, 24683, Note_on_c, 0, 60, 0
10, 24684, Note_on_c, 0, 58, 0
10, 24685, Note_on_c, 0, 65, 0
10, 24715, Note_on_c, 0, 60, 57
10, 24716, Note_on_c, 0, 65, 51
10, 24717, Note_on_c, 0, 58, 70
10, 24875, Note_on_c, 0, 65, 0
10, 24876, Note_on_c, 0, 60, 0
10, 24877, Note_on_c, 0, 58, 0
10, 24896, Note_on_c, 0, 60, 80
10, 24897, Note_on_c, 0, 58, 87
10, 24897, Note_on_c, 0, 65, 58
10, 24988, Note_on_c, 0, 60, 0
10, 24991, Note_on_c, 0, 58, 0
10, 24999, Note_on_c, 0, 65, 0
10, 25020, Note_on_c, 0, 60, 90
10, 25020, Note_on_c, 0, 65, 62
10, 25021, Note_on_c, 0, 58, 107
10, 25122, Note_on_c, 0, 60, 0
10, 25122, Note_on_c, 0, 65, 0
10, 25124, Note_on_c, 0, 58, 0
10, 25148, Note_on_c, 0, 65, 63
10, 25148, Note_on_c, 0, 60, 84
10, 25149, Note_on_c, 0, 58, 85
10, 25167, Note_on_c, 0, 60, 0
10, 25169, Note_on_c, 0, 65, 0
10, 25170, Note_on_c, 0, 58, 0
10, 25200, Note_on_c, 0, 60, 70
10, 25201, Note_on_c, 0, 55, 74
10, 25201, Note_on_c, 0, 53, 87
10, 25362, Note_on_c, 0, 60, 0
10, 25362, Note_on_c, 0, 55, 0
10, 25365, Note_on_c, 0, 53, 0
10, 25382, Note_on_c, 0, 53, 74
10, 25383, Note_on_c, 0, 55, 65
10, 25384, Note_on_c, 0, 60, 65
10, 25405, Note_on_c, 0, 55, 0
10, 25406, Note_on_c, 0, 53, 0
10, 25407, Note_on_c, 0, 60, 0
10, 25441, Note_on_c, 0, 53, 76
10, 25443, Note_on_c, 0, 55, 67
10, 25443, Note_on_c, 0, 60, 66
10, 25604, Note_on_c, 0, 55, 0
10, 25605, Note_on_c, 0, 60, 0
10, 25606, Note_on_c, 0, 53, 0
10, 25625, Note_on_c, 0, 55, 63
10, 25625, Note_on_c, 0, 60, 61
10, 25625, Note_on_c, 0, 53, 72
10, 25651, Note_on_c, 0, 60, 0
10, 25654, Note_on_c, 0, 55, 0
10, 25655, Note_on_c, 0, 53, 0
10, 25679, Note_on_c, 0, 53, 67
10, 25681, Note_on_c, 0, 60, 68
10, 25681, Note_on_c, 0, 55, 62
10, 25733, Note_on_c, 0, 48, 46
10, 25741, Note_on_c, 0, 55, 0
10, 25756, Note_on_c, 0, 53, 0
10, 25772, Note_on_c, 0, 60, 0
10, 25799, Note_on_c, 0, 60, 84
10, 25801, Note_on_c, 0, 55, 68
10, 25802, Note_on_c, 0, 53, 62
10, 25899, Note_on_c, 0, 48, 0
10, 25900, Note_on_c, 0, 60, 0
10, 25902, Note_on_c, 0, 53, 0
10, 25903, Note_on_c, 0, 55, 0
10, 25923, Note_on_c, 0, 52, 87
10, 25924, Note_on_c, 0, 70, 107
10, 25926, Note_on_c, 0, 68, 107
10, 25928, Note_on_c, 0, 45, 62
10, 25928, Note_on_c, 0, 64, 66
10, 25930, Note_on_c, 0, 47, 56
10, 25990, Note_on_c, 0, 45, 0
10, 26225, Note_on_c, 0, 47, 0
10, 26466, Note_on_c, 0, 52, 0
10, 26489, Note_on_c, 0, 47, 35
10, 26557, Note_on_c, 0, 68, 0
10, 26557, Note_on_c, 0, 52, 107
10, 26560, Note_on_c, 0, 70, 0
10, 26561, Note_on_c, 0, 64, 0
10, 26643, Note_on_c, 0, 68, 107
10, 26643, Note_on_c, 0, 70, 107
10, 26645, Note_on_c, 0, 64, 66
10, 27177, Note_on_c, 0, 47, 0
10, 27207, Note_on_c, 0, 47, 67
10, 27212, Note_on_c, 0, 52, 0
10, 27241, Note_on_c, 0, 68, 0
10, 27243, Note_on_c, 0, 70, 0
10, 27250, Note_on_c, 0, 64, 0
10, 27274, Note_on_c, 0, 52, 67
10, 27361, Note_on_c, 0, 82, 107
10, 27363, Note_on_c, 0, 80, 100
10, 27363, Note_on_c, 0, 76, 60
10, 29382, Note_on_c, 0, 47, 0
10, 29507, Note_on_c, 0, 52, 0
10, 29512, Note_on_c, 0, 80, 0
10, 29515, Note_on_c, 0, 82, 0
10, 29515, Note_on_c, 0, 76, 0
10, 29521, Note_on_c, 0, 57, 47
10, 29521, Note_on_c, 0, 61, 56
10, 29521, Note_on_c, 0, 63, 55
10, 29521, Note_on_c, 0, 69, 59
10, 29787, Note_on_c, 0, 69, 0
10, 29798, Note_on_c, 0, 63, 0
10, 29808, Note_on_c, 0, 61, 0
10, 29813, Note_on_c, 0, 57, 0
10, 32413, Note_on_c, 0, 26, 78
10, 33099, Note_on_c, 0, 26, 0
10, 35277, Note_on_c, 0, 60, 43
10, 35284, Note_on_c, 0, 64, 52
10, 35291, Note_on_c, 0, 67, 47
10, 35298, Note_on_c, 0, 71, 41
10, 35879, Note_on_c, 0, 60, 0
10, 35880, Note_on_c, 0, 64, 0
10, 35889, Note_on_c, 0, 67, 0
10, 35894, Note_on_c, 0, 71, 0
10, 35992, Note_on_c, 0, 55, 46
10, 35999, Note_on_c, 0, 59, 56
10, 36006, Note_on_c, 0, 62, 43
10, 36013, Note_on_c, 0, 66, 64
10, 36603, Note_on_c, 0, 55, 0
10, 36614, Note_on_c, 0, 59, 0
10, 36627, Note_on_c, 0, 62, 0
10, 36643, Note_on_c, 0, 66, 0
10, 36733, Note_on_c, 0, 63, 107
10, 36734, Note_on_c, 0, 59, 68
10, 37360, Note_on_c, 0, 63, 0
10, 37374, Note_on_c, 0, 59, 0
10, 38877, Note_on_c, 0, 73, 49
10, 38877, Note_on_c, 0, 66, 53
10, 38878, Note_on_c, 0, 69, 55
10, 38878, Note_on_c, 0, 62, 47
10, 39380, Note_on_c, 0, 73, 0
10, 39381, Note_on_c, 0, 69, 0
10, 39384, Note_on_c, 0, 62, 0
10, 39385, Note_on_c, 0, 66, 0
10, 39594, Note_on_c, 0, 61, 70
10, 39596, Note_on_c, 0, 54, 80
10, 39597, Note_on_c, 0, 59, 70
10, 39598, Note_on_c, 0, 37, 57
10, 39599, Note_on_c, 0, 49, 76
10, 39915, Note_on_c, 0, 61, 0
10, 39915, Note_on_c, 0, 59, 0
10, 39916, Note_on_c, 0, 54, 0
10, 39916, Note_on_c, 0, 49, 0
10, 39920, Note_on_c, 0, 37, 0
10, 39951, Note_on_c, 0, 42, 57
10, 39953, Note_on_c, 0, 61, 83
10, 39953, Note_on_c, 0, 59, 51
10, 39953, Note_on_c, 0, 66, 70
10, 39953, Note_on_c, 0, 49, 67
10, 40276, Note_on_c, 0, 66, 0
10, 40277, Note_on_c, 0, 61, 0
10, 40278, Note_on_c, 0, 59, 0
10, 40282, Note_on_c, 0, 42, 0
10, 40282, Note_on_c, 0, 49, 0
10, 40318, Note_on_c, 0, 57, 97
10, 40320, Note_on_c, 0, 59, 80
10, 40320, Note_on_c, 0, 35, 73
10, 40320, Note_on_c, 0, 52, 64
10, 40649, Note_on_c, 0, 35, 0
10, 40651, Note_on_c, 0, 57, 0
10, 40652, Note_on_c, 0, 52, 0
10, 40653, Note_on_c, 0, 59, 0
10, 40676, Note_on_c, 0, 59, 97
10, 40676, Note_on_c, 0, 62, 97
10, 40678, Note_on_c, 0, 67, 55
10, 40678, Note_on_c, 0, 56, 67
10, 40683, Note_on_c, 0, 40, 92
10, 41030, Note_on_c, 0, 59, 0
10, 41030, Note_on_c, 0, 62, 0
10, 41033, Note_on_c, 0, 56, 0
10, 41036, Note_on_c, 0, 67, 0
10, 41036, Note_on_c, 0, 40, 0
10, 41041, Note_on_c, 0, 64, 68
10, 41041, Note_on_c, 0, 66, 65
10, 41164, Note_on_c, 0, 64, 0
10, 41165, Note_on_c, 0, 66, 0
10, 41165, Note_on_c, 0, 64, 68
10, 41166, Note_on_c, 0, 66, 65
10, 41279, Note_on_c, 0, 64, 0
10, 41281, Note_on_c, 0, 66, 0
10, 41281, Note_on_c, 0, 64, 56
10, 41282, Note_on_c, 0, 66, 55
10, 41336, Note_on_c, 0, 64, 0
10, 41337, Note_on_c, 0, 66, 0
10, 41337, Note_on_c, 0, 64, 61
10, 41338, Note_on_c, 0, 66, 57
10, 41343, Note_on_c, 0, 60, 50
10, 41575, Note_on_c, 0, 66, 0
10, 41576, Note_on_c, 0, 64, 0
10, 41577, Note_on_c, 0, 64, 62
10, 41577, Note_on_c, 0, 66, 57
10, 41632, Note_on_c, 0, 66, 0
10, 41634, Note_on_c, 0, 64, 0
10, 41635, Note_on_c, 0, 66, 96
10, 41635, Note_on_c, 0, 64, 100
10, 41695, Note_on_c, 0, 66, 0
10, 41695, Note_on_c, 0, 64, 0
10, 41696, Note_on_c, 0, 66, 114
10, 41696, Note_on_c, 0, 64, 114
10, 41752, Note_on_c, 0, 66, 0
10, 41752, Note_on_c, 0, 64, 0
10, 41753, Note_on_c, 0, 64, 114
10, 41753, Note_on_c, 0, 66, 114
10, 41810, Note_on_c, 0, 66, 0
10, 41811, Note_on_c, 0, 64, 0
10, 41811, Note_on_c, 0, 66, 114
10, 41812, Note_on_c, 0, 64, 114
10, 42178, Note_on_c, 0, 66, 0
10, 42179, Note_on_c, 0, 66, 53
10, 42180, Note_on_c, 0, 64, 0
10, 42181, Note_on_c, 0, 64, 57
10, 42240, Note_on_c, 0, 66, 0
10, 42241, Note_on_c, 0, 64, 0
10, 42241, Note_on_c, 0, 66, 94
10, 42242, Note_on_c, 0, 64, 96
10, 42296, Note_on_c, 0, 66, 0
10, 42296, Note_on_c, 0, 64, 0
10, 42297, Note_on_c, 0, 64, 110
10, 42297, Note_on_c, 0, 66, 110
10, 42355, Note_on_c, 0, 64, 0
10, 42355, Note_on_c, 0, 66, 0
10, 42356, Note_on_c, 0, 66, 114
10, 42356, Note_on_c, 0, 64, 100
10, 42414, Note_on_c, 0, 64, 0
10, 42415, Note_on_c, 0, 66, 0
10, 42416, Note_on_c, 0, 64, 114
10, 42416, Note_on_c, 0, 66, 114
10, 42479, Note_on_c, 0, 60, 0
10, 42479, Note_on_c, 0, 66, 0
10, 42480, Note_on_c, 0, 66, 84
10, 42769, Note_on_c, 0, 64, 0
10, 42769, Note_on_c, 0, 66, 0
10, 42781, Note_on_c, 0, 64, 63
10, 42782, Note_on_c, 0, 66, 59
10, 42834, Note_on_c, 0, 64, 0
10, 42835, Note_on_c, 0, 64, 72
10, 42895, Note_on_c, 0, 64, 0
10, 42896, Note_on_c, 0, 66, 0
10, 42897, Note_on_c, 0, 64, 72
10, 42897, Note_on_c, 0, 66, 75
10, 42901, Note_on_c, 0, 60, 54
10, 42955, Note_on_c, 0, 64, 0
10, 42956, Note_on_c, 0, 66, 0
10, 42956, Note_on_c, 0, 60, 0
10, 42956, Note_on_c, 0, 64, 87
10, 42957, Note_on_c, 0, 66, 94
10, 42957, Note_on_c, 0, 60, 73
10, 43015, Note_on_c, 0, 66, 0
10, 43015, Note_on_c, 0, 60, 0
10, 43017, Note_on_c, 0, 64, 0
10, 43018, Note_on_c, 0, 60, 105
10, 43018, Note_on_c, 0, 66, 114
10, 43018, Note_on_c, 0, 64, 114
10, 43128, Note_on_c, 0, 60, 0
10, 43129, Note_on_c, 0, 66, 0
10, 43129, Note_on_c, 0, 64, 0
10, 43145, Note_on_c, 0, 64, 110
10, 43145, Note_on_c, 0, 60, 93
10, 43146, Note_on_c, 0, 66, 114
10, 43492, Note_on_c, 0, 64, 0
10, 43495, Note_on_c, 0, 66, 0
10, 43497, Note_on_c, 0, 64, 62
10, 43499, Note_on_c, 0, 66, 58
10, 43543, Note_on_c, 0, 64, 0
10, 43543, Note_on_c, 0, 66, 0
10, 43560, Note_on_c, 0, 64, 99
10, 43560, Note_on_c, 0, 66, 99
10, 43656, Note_on_c, 0, 60, 0
10, 43733, Note_on_c, 0, 64, 0
10, 43733, Note_on_c, 0, 66, 0
10, 43734, Note_on_c, 0, 64, 113
10, 43734, Note_on_c, 0, 66, 114
10, 43821, Note_on_c, 0, 66, 0
10, 43822, Note_on_c, 0, 64, 0
10, 43823, Note_on_c, 0, 64, 114
10, 43824, Note_on_c, 0, 66, 114
10, 44087, Note_on_c, 0, 66, 0
10, 44088, Note_on_c, 0, 66, 44
10, 44093, Note_on_c, 0, 64, 0
10, 44094, Note_on_c, 0, 64, 45
10, 44153, Note_on_c, 0, 64, 0
10, 44154, Note_on_c, 0, 66, 0
10, 44154, Note_on_c, 0, 64, 83
10, 44155, Note_on_c, 0, 66, 88
10, 44211, Note_on_c, 0, 64, 0
10, 44212, Note_on_c, 0, 64, 105
10, 44213, Note_on_c, 0, 66, 0
10, 44214, Note_on_c, 0, 66, 114
10, 44264, Note_on_c, 0, 64, 0
10, 44265, Note_on_c, 0, 64, 82
10, 44266, Note_on_c, 0, 66, 0
10, 44267, Note_on_c, 0, 66, 76
10, 44332, Note_on_c, 0, 64, 0
10, 44333, Note_on_c, 0, 60, 87
10, 44333, Note_on_c, 0, 64, 74
10, 44334, Note_on_c, 0, 66, 0
10, 44335, Note_on_c, 0, 66, 78
10, 44705, Note_on_c, 0, 66, 0
10, 44706, Note_on_c, 0, 64, 0
10, 44706, Note_on_c, 0, 66, 74
10, 44707, Note_on_c, 0, 64, 68
10, 44765, Note_on_c, 0, 60, 0
10, 44766, Note_on_c, 0, 60, 57
10, 44817, Note_on_c, 0, 64, 0
10, 44819, Note_on_c, 0, 66, 0
10, 44819, Note_on_c, 0, 64, 108
10, 44820, Note_on_c, 0, 66, 114
10, 44821, Note_on_c, 0, 60, 0
10, 44822, Note_on_c, 0, 60, 84
10, 44845, Note_on_c, 0, 60, 0
10, 45067, Note_on_c, 0, 64, 0
10, 45067, Note_on_c, 0, 66, 0
10, 45068, Note_on_c, 0, 66, 58
10, 45068, Note_on_c, 0, 64, 55
10, 45307, Note_on_c, 0, 66, 0
10, 45309, Note_on_c, 0, 64, 0
10, 45310, Note_on_c, 0, 64, 73
10, 45311, Note_on_c, 0, 66, 93
10, 45479, Note_on_c, 0, 60, 71
10, 45538, Note_on_c, 0, 66, 0
10, 45539, Note_on_c, 0, 66, 114
10, 45540, Note_on_c, 0, 64, 0
10, 45541, Note_on_c, 0, 64, 104
10, 45600, Note_on_c, 0, 66, 0
10, 45601, Note_on_c, 0, 66, 68
10, 45897, Note_on_c, 0, 66, 0
10, 45898, Note_on_c, 0, 66, 60
10, 45899, Note_on_c, 0, 64, 0
10, 45900, Note_on_c, 0, 64, 65
10, 45958, Note_on_c, 0, 64, 0
10, 45959, Note_on_c, 0, 64, 68
10, 45961, Note_on_c, 0, 66, 0
10, 45962, Note_on_c, 0, 66, 64
10, 46015, Note_on_c, 0, 66, 0
10, 46016, Note_on_c, 0, 66, 100
10, 46017, Note_on_c, 0, 64, 0
10, 46018, Note_on_c, 0, 64, 93
10, 46077, Note_on_c, 0, 66, 0
10, 46077, Note_on_c, 0, 64, 0
10, 46078, Note_on_c, 0, 66, 127
10, 46078, Note_on_c, 0, 64, 123
10, 46299, Note_on_c, 0, 60, 0
10, 46309, Note_on_c, 0, 66, 0
10, 46309, Note_on_c, 0, 64, 0
10, 46470, Note_on_c, 0, 67, 60
10, 46500, Note_on_c, 0, 72, 88
10, 46530, Note_on_c, 0, 74, 101
10, 46560, Note_on_c, 0, 79, 101
10, 46628, Note_on_c, 0, 67, 0
10, 46647, Note_on_c, 0, 72, 0
10, 46650, Note_on_c, 0, 67, 58
10, 46670, Note_on_c, 0, 74, 0
10, 46680, Note_on_c, 0, 72, 80
10, 46694, Note_on_c, 0, 79, 0
10, 46710, Note_on_c, 0, 74, 101
10, 46740, Note_on_c, 0, 79, 94
10, 46770, Note_on_c, 0, 84, 101
10, 46811, Note_on_c, 0, 67, 0
10, 46821, Note_on_c, 0, 72, 0
10, 46829, Note_on_c, 0, 74, 0
10, 46830, Note_on_c, 0, 67, 69
10, 46860, Note_on_c, 0, 72, 90
10, 46864, Note_on_c, 0, 79, 0
10, 46877, Note_on_c, 0, 84, 0
10, 46890, Note_on_c, 0, 74, 101
10, 46920, Note_on_c, 0, 79, 101
10, 46950, Note_on_c, 0, 84, 97
10, 46980, Note_on_c, 0, 86, 101
10, 46982, Note_on_c, 0, 84, 0
10, 47002, Note_on_c, 0, 79, 0
10, 47010, Note_on_c, 0, 84, 97
10, 47040, Note_on_c, 0, 79, 90
10, 47041, Note_on_c, 0, 74, 0
10, 47070, Note_on_c, 0, 74, 88
10, 47080, Note_on_c, 0, 72, 0
10, 47096, Note_on_c, 0, 67, 0
10, 47100, Note_on_c, 0, 72, 80
10, 47103, Note_on_c, 0, 84, 0
10, 47107, Note_on_c, 0, 79, 0
10, 47108, Note_on_c, 0, 86, 0
10, 47130, Note_on_c, 0, 67, 68
10, 47141, Note_on_c, 0, 72, 0
10, 47160, Note_on_c, 0, 72, 26
10, 47220, Note_on_c, 0, 62, 88
10, 47321, Note_on_c, 0, 67, 0
10, 47339, Note_on_c, 0, 72, 0
10, 47340, Note_on_c, 0, 67, 67
10, 47353, Note_on_c, 0, 74, 0
10, 47358, Note_on_c, 0, 62, 0
10, 47370, Note_on_c, 0, 72, 82
10, 47400, Note_on_c, 0, 74, 101
10, 47525, Note_on_c, 0, 67, 0
10, 47541, Note_on_c, 0, 72, 0
10, 47550, Note_on_c, 0, 67, 61
10, 47552, Note_on_c, 0, 74, 0
10, 47580, Note_on_c, 0, 72, 80
10, 47610, Note_on_c, 0, 74, 88
10, 47640, Note_on_c, 0, 79, 101
10, 47746, Note_on_c, 0, 67, 0
10, 47753, Note_on_c, 0, 72, 0
10, 47760, Note_on_c, 0, 67, 77
10, 47766, Note_on_c, 0, 74, 0
10, 47776, Note_on_c, 0, 72, 53
10, 47790, Note_on_c, 0, 74, 77
10, 47811, Note_on_c, 0, 79, 0
10, 47850, Note_on_c, 0, 79, 88
10, 47870, Note_on_c, 0, 74, 0
10, 47870, Note_on_c, 0, 66, 43
10, 47872, Note_on_c, 0, 72, 0
10, 47873, Note_on_c, 0, 72, 44
10, 47876, Note_on_c, 0, 67, 0
10, 47879, Note_on_c, 0, 74, 42
10, 47880, Note_on_c, 0, 84, 101
10, 47892, Note_on_c, 0, 79, 0
10, 47932, Note_on_c, 0, 84, 0
10, 47935, Note_on_c, 0, 66, 0
10, 47935, Note_on_c, 0, 72, 0
10, 47935, Note_on_c, 0, 64, 53
10, 47936, Note_on_c, 0, 74, 0
10, 47936, Note_on_c, 0, 66, 57
10, 47936, Note_on_c, 0, 72, 61
10, 47937, Note_on_c, 0, 74, 53
10, 47990, Note_on_c, 0, 64, 0
10, 47991, Note_on_c, 0, 64, 84
10, 47992, Note_on_c, 0, 66, 0
10, 47992, Note_on_c, 0, 72, 0
10, 47992, Note_on_c, 0, 74, 0
10, 47993, Note_on_c, 0, 66, 102
10, 47993, Note_on_c, 0, 72, 110
10, 47995, Note_on_c, 0, 74, 82
10, 48051, Note_on_c, 0, 66, 0
10, 48052, Note_on_c, 0, 72, 0
10, 48052, Note_on_c, 0, 74, 0
10, 48052, Note_on_c, 0, 66, 107
10, 48054, Note_on_c, 0, 72, 110
10, 48055, Note_on_c, 0, 74, 92
10, 48056, Note_on_c, 0, 64, 0
10, 48057, Note_on_c, 0, 64, 73
10, 48109, Note_on_c, 0, 66, 0
10, 48111, Note_on_c, 0, 64, 0
10, 48112, Note_on_c, 0, 64, 97
10, 48113, Note_on_c, 0, 72, 0
10, 48113, Note_on_c, 0, 66, 127
10, 48114, Note_on_c, 0, 72, 127
10, 48115, Note_on_c, 0, 74, 0
10, 48116, Note_on_c, 0, 74, 102
10, 48167, Note_on_c, 0, 64, 0
10, 48170, Note_on_c, 0, 72, 0
10, 48170, Note_on_c, 0, 64, 94
10, 48171, Note_on_c, 0, 66, 0
10, 48172, Note_on_c, 0, 66, 126
10, 48172, Note_on_c, 0, 72, 126
10, 48174, Note_on_c, 0, 74, 0
10, 48175, Note_on_c, 0, 74, 94
10, 48237, Note_on_c, 0, 66, 0
10, 48237, Note_on_c, 0, 59, 112
10, 48238, Note_on_c, 0, 66, 112
10, 48240, Note_on_c, 0, 73, 96
10, 48240, Note_on_c, 0, 69, 107
10, 48241, Note_on_c, 0, 64, 0
10, 48242, Note_on_c, 0, 62, 97
10, 48243, Note_on_c, 0, 72, 0
10, 48256, Note_on_c, 0, 74, 0
10, 48656, Note_on_c, 0, 66, 0
10, 48657, Note_on_c, 0, 69, 0
10, 48659, Note_on_c, 0, 73, 0
10, 48660, Note_on_c, 0, 62, 0
10, 48671, Note_on_c, 0, 66, 97
10, 48671, Note_on_c, 0, 73, 84
10, 48672, Note_on_c, 0, 69, 93
10, 48673, Note_on_c, 0, 62, 85
10, 49025, Note_on_c, 0, 66, 0
10, 49025, Note_on_c, 0, 73, 0
10, 49027, Note_on_c, 0, 69, 0
10, 49038, Note_on_c, 0, 62, 0
10, 49044, Note_on_c, 0, 59, 0
10, 49146, Note_on_c, 0, 59, 71
10, 49258, Note_on_c, 0, 73, 78
10, 49261, Note_on_c, 0, 66, 81
10, 49261, Note_on_c, 0, 69, 84
10, 49261, Note_on_c, 0, 62, 76
10, 49774, Note_on_c, 0, 73, 0
10, 49784, Note_on_c, 0, 59, 0
10, 49792, Note_on_c, 0, 62, 0
10, 49794, Note_on_c, 0, 66, 0
10, 49799, Note_on_c, 0, 69, 0
10, 49804, Note_on_c, 0, 59, 78
10, 49804, Note_on_c, 0, 64, 80
10, 49900, Note_on_c, 0, 64, 0
10, 49901, Note_on_c, 0, 59, 0
10, 49923, Note_on_c, 0, 57, 103
10, 49924, Note_on_c, 0, 62, 78
10, 49952, Note_on_c, 0, 62, 0
10, 49956, Note_on_c, 0, 57, 0
10, 49976, Note_on_c, 0, 59, 103
10, 49978, Note_on_c, 0, 64, 84
10, 50034, Note_on_c, 0, 59, 0
10, 50037, Note_on_c, 0, 64, 0
10, 50043, Note_on_c, 0, 57, 103
10, 50043, Note_on_c, 0, 62, 78
10, 50071, Note_on_c, 0, 62, 0
10, 50076, Note_on_c, 0, 57, 0
10, 50104, Note_on_c, 0, 54, 68
10, 50155, Note_on_c, 0, 59, 87
10, 50170, Note_on_c, 0, 54, 0
10, 50277, Note_on_c, 0, 62, 51
10, 50314, Note_on_c, 0, 62, 0
10, 50330, Note_on_c, 0, 59, 0
10, 50345, Note_on_c, 0, 59, 98
10, 50452, Note_on_c, 0, 69, 73
10, 50452, Note_on_c, 0, 66, 73
10, 50453, Note_on_c, 0, 73, 70
10, 50455, Note_on_c, 0, 62, 72
10, 50488, Note_on_c, 0, 66, 0
10, 50490, Note_on_c, 0, 69, 0
10, 50492, Note_on_c, 0, 62, 0
10, 50493, Note_on_c, 0, 73, 0
10, 50514, Note_on_c, 0, 69, 117
10, 50514, Note_on_c, 0, 73, 105
10, 50515, Note_on_c, 0, 66, 123
10, 50516, Note_on_c, 0, 62, 97
10, 50669, Note_on_c, 0, 62, 0
10, 50672, Note_on_c, 0, 66, 0
10, 50674, Note_on_c, 0, 69, 0
10, 50676, Note_on_c, 0, 73, 0
10, 50697, Note_on_c, 0, 73, 97
10, 50699, Note_on_c, 0, 69, 98
10, 50699, Note_on_c, 0, 66, 120
10, 50701, Note_on_c, 0, 62, 100
10, 50735, Note_on_c, 0, 66, 0
10, 50737, Note_on_c, 0, 62, 0
10, 50739, Note_on_c, 0, 69, 0
10, 50742, Note_on_c, 0, 73, 0
10, 50760, Note_on_c, 0, 69, 107
10, 50760, Note_on_c, 0, 73, 96
10, 50762, Note_on_c, 0, 62, 105
10, 50762, Note_on_c, 0, 66, 126
10, 50912, Note_on_c, 0, 59, 0
10, 50928, Note_on_c, 0, 59, 82
10, 50964, Note_on_c, 0, 62, 0
10, 50996, Note_on_c, 0, 62, 56
10, 51035, Note_on_c, 0, 66, 0
10, 51060, Note_on_c, 0, 73, 0
10, 51101, Note_on_c, 0, 69, 0
10, 51243, Note_on_c, 0, 66, 97
10, 51245, Note_on_c, 0, 69, 100
10, 51246, Note_on_c, 0, 73, 102
10, 51392, Note_on_c, 0, 59, 0
10, 51420, Note_on_c, 0, 59, 68
10, 51499, Note_on_c, 0, 73, 0
10, 51520, Note_on_c, 0, 69, 0
10, 51521, Note_on_c, 0, 66, 0
10, 51527, Note_on_c, 0, 62, 0
10, 51545, Note_on_c, 0, 66, 127
10, 51545, Note_on_c, 0, 62, 98
10, 51546, Note_on_c, 0, 69, 127
10, 51546, Note_on_c, 0, 71, 127
10, 51596, Note_on_c, 0, 71, 0
10, 51606, Note_on_c, 0, 66, 0
10, 51608, Note_on_c, 0, 62, 0
10, 51609, Note_on_c, 0, 69, 0
10, 51633, Note_on_c, 0, 59, 0
10, 51720, Note_on_c, 0, 69, 104
10, 51720, Note_on_c, 0, 62, 97
10, 51720, Note_on_c, 0, 66, 123
10, 51723, Note_on_c, 0, 73, 127
10, 51886, Note_on_c, 0, 62, 0
10, 51888, Note_on_c, 0, 66, 0
10, 51890, Note_on_c, 0, 73, 0
10, 51892, Note_on_c, 0, 69, 0
10, 51893, Note_on_c, 0, 66, 120
10, 51895, Note_on_c, 0, 74, 120
10, 51897, Note_on_c, 0, 62, 114
10, 51899, Note_on_c, 0, 69, 110
10, 52084, Note_on_c, 0, 74, 0
10, 52087, Note_on_c, 0, 62, 0
10, 52091, Note_on_c, 0, 69, 0
10, 52092, Note_on_c, 0, 66, 0
10, 52142, Note_on_c, 0, 62, 49
10, 52166, Note_on_c, 0, 62, 0
10, 52187, Note_on_c, 0, 62, 97
10, 52188, Note_on_c, 0, 66, 110
10, 52190, Note_on_c, 0, 69, 114
10, 52494, Note_on_c, 0, 35, 100
10, 52530, Note_on_c, 0, 66, 0
10, 52534, Note_on_c, 0, 62, 0
10, 52534, Note_on_c, 0, 69, 0
10, 52637, Note_on_c, 0, 35, 0
10, 52664, Note_on_c, 0, 47, 71
10, 52852, Note_on_c, 0, 54, 100
10, 52854, Note_on_c, 0, 59, 100
10, 53304, Note_on_c, 0, 54, 0
10, 53329, Note_on_c, 0, 47, 0
10, 53342, Note_on_c, 0, 47, 93
10, 53490, Note_on_c, 0, 47, 0
10, 53509, Note_on_c, 0, 42, 88
10, 53510, Note_on_c, 0, 47, 68
10, 53529, Note_on_c, 0, 59, 0
10, 53880, Note_on_c, 0, 83, 114
10, 53881, Note_on_c, 0, 78, 127
10, 53882, Note_on_c, 0, 71, 114
10, 53930, Note_on_c, 0, 83, 0
10, 53932, Note_on_c, 0, 71, 0
10, 53934, Note_on_c, 0, 78, 0
10, 54052, Note_on_c, 0, 78, 127
10, 54053, Note_on_c, 0, 71, 114
10, 54053, Note_on_c, 0, 73, 114
10, 54103, Note_on_c, 0, 71, 0
10, 54103, Note_on_c, 0, 73, 0
10, 54105, Note_on_c, 0, 78, 0
10, 54271, Control_c, 0, 64, 127
10, 54802, Note_on_c, 0, 54, 48
10, 54819, Note_on_c, 0, 54, 0
10, 54892, Note_on_c, 0, 54, 66
10, 54910, Note_on_c, 0, 54, 0
10, 54930, Note_on_c, 0, 54, 69
10, 54952, Note_on_c, 0, 54, 0
10, 54974, Note_on_c, 0, 54, 80
10, 54988, Note_on_c, 0, 54, 0
10, 55061, Note_on_c, 0, 54, 82
10, 55072, Note_on_c, 0, 54, 0
10, 55145, Note_on_c, 0, 42, 0
10, 55146, Note_on_c, 0, 42, 85
10, 55173, Note_on_c, 0, 42, 0
10, 55180, Note_on_c, 0, 54, 62
10, 55201, Note_on_c, 0, 54, 0
10, 55206, Note_on_c, 0, 42, 97
10, 55230, Note_on_c, 0, 42, 0
10, 55232, Note_on_c, 0, 47, 0
10, 55292, Note_on_c, 0, 42, 71
10, 55310, Note_on_c, 0, 42, 0
10, 55377, Note_on_c, 0, 42, 45
10, 55396, Note_on_c, 0, 42, 0
10, 55416, Note_on_c, 0, 54, 69
10, 55439, Note_on_c, 0, 54, 0
10, 55452, Note_on_c, 0, 42, 63
10, 55470, Note_on_c, 0, 42, 0
10, 55523, Note_on_c, 0, 42, 84
10, 55543, Note_on_c, 0, 42, 0
10, 55612, Note_on_c, 0, 42, 87
10, 55628, Note_on_c, 0, 42, 0
10, 55646, Note_on_c, 0, 54, 97
10, 55665, Note_on_c, 0, 54, 0
10, 55679, Note_on_c, 0, 42, 122
10, 55699, Note_on_c, 0, 42, 0
10, 55753, Note_on_c, 0, 42, 127
10, 55769, Note_on_c, 0, 42, 0
10, 55787, Note_on_c, 0, 54, 127
10, 55802, Note_on_c, 0, 54, 0
10, 55820, Note_on_c, 0, 42, 127
10, 55835, Note_on_c, 0, 42, 0
10, 55854, Note_on_c, 0, 47, 96
10, 55903, Note_on_c, 0, 47, 0
10, 55905, Control_c, 0, 64, 0
10, 55905, Note_on_c, 0, 46, 127
10, 55907, Note_on_c, 0, 72, 104
10, 55907, Note_on_c, 0, 69, 110
10, 55909, Note_on_c, 0, 65, 90
10, 56091, Note_on_c, 0, 69, 0
10, 56093, Note_on_c, 0, 65, 0
10, 56095, Note_on_c, 0, 72, 0
10, 56099, Note_on_c, 0, 46, 0
10, 56218, Note_on_c, 0, 46, 48
10, 56280, Note_on_c, 0, 72, 47
10, 56282, Note_on_c, 0, 65, 44
10, 56282, Note_on_c, 0, 69, 43
10, 56284, Note_on_c, 0, 62, 41
10, 56306, Note_on_c, 0, 65, 0
10, 56306, Note_on_c, 0, 62, 0
10, 56308, Note_on_c, 0, 72, 0
10, 56308, Note_on_c, 0, 69, 0
10, 56343, Note_on_c, 0, 69, 68
10, 56343, Note_on_c, 0, 65, 73
10, 56344, Note_on_c, 0, 62, 69
10, 56344, Note_on_c, 0, 72, 66
10, 56812, Note_on_c, 0, 46, 0
10, 56812, Note_on_c, 0, 41, 90
10, 56869, Note_on_c, 0, 46, 100
10, 56877, Note_on_c, 0, 65, 0
10, 56879, Note_on_c, 0, 69, 0
10, 56879, Note_on_c, 0, 62, 0
10, 56880, Note_on_c, 0, 72, 0
10, 56924, Note_on_c, 0, 69, 54
10, 56924, Note_on_c, 0, 72, 55
10, 56926, Note_on_c, 0, 65, 59
10, 56926, Note_on_c, 0, 62, 64
10, 57419, Note_on_c, 0, 62, 0
10, 57420, Note_on_c, 0, 65, 0
10, 57422, Note_on_c, 0, 69, 0
10, 57428, Note_on_c, 0, 72, 0
10, 57748, Note_on_c, 0, 41, 0
10, 57760, Note_on_c, 0, 46, 0
10, 57771, Note_on_c, 0, 41, 49
10, 57790, Note_on_c, 0, 46, 97
10, 57808, Note_on_c, 0, 74, 61
10, 57821, Note_on_c, 0, 77, 56
10, 57828, Note_on_c, 0, 81, 72
10, 57840, Note_on_c, 0, 88, 127
10, 57843, Note_on_c, 0, 86, 63
10, 58054, Note_on_c, 0, 88, 0
10, 58058, Note_on_c, 0, 86, 0
10, 58065, Note_on_c, 0, 81, 0
10, 58068, Note_on_c, 0, 77, 0
10, 58072, Note_on_c, 0, 74, 0
10, 58249, Note_on_c, 0, 41, 0
10, 58313, Note_on_c, 0, 65, 49
10, 58313, Note_on_c, 0, 69, 47
10, 58314, Note_on_c, 0, 72, 49
10, 58314, Note_on_c, 0, 62, 48
10, 58321, Note_on_c, 0, 46, 0
10, 58331, Note_on_c, 0, 62, 0
10, 58332, Note_on_c, 0, 65, 0
10, 58333, Note_on_c, 0, 69, 0
10, 58334, Note_on_c, 0, 72, 0
10, 58375, Note_on_c, 0, 69, 69
10, 58376, Note_on_c, 0, 65, 70
10, 58376, Note_on_c, 0, 62, 69
10, 58376, Note_on_c, 0, 72, 64
10, 58432, Note_on_c, 0, 46, 41
10, 58438, Note_on_c, 0, 65, 0
10, 58441, Note_on_c, 0, 69, 0
10, 58441, Note_on_c, 0, 72, 0
10, 58442, Note_on_c, 0, 62, 0
10, 58493, Note_on_c, 0, 69, 46
10, 58494, Note_on_c, 0, 62, 45
10, 58495, Note_on_c, 0, 65, 57
10, 58495, Note_on_c, 0, 72, 52
10, 58689, Note_on_c, 0, 65, 0
10, 58690, Note_on_c, 0, 69, 0
10, 58690, Note_on_c, 0, 72, 0
10, 58697, Note_on_c, 0, 62, 0
10, 58858, Note_on_c, 0, 53, 41
10, 58862, Note_on_c, 0, 57, 41
10, 58880, Note_on_c, 0, 53, 0
10, 58881, Note_on_c, 0, 57, 0
10, 58915, Note_on_c, 0, 46, 0
10, 58918, Note_on_c, 0, 53, 64
10, 58918, Note_on_c, 0, 57, 61
10, 58919, Note_on_c, 0, 60, 55
10, 58921, Note_on_c, 0, 50, 52
10, 58941, Note_on_c, 0, 53, 0
10, 58942, Note_on_c, 0, 50, 0
10, 58943, Note_on_c, 0, 57, 0
10, 58944, Note_on_c, 0, 60, 0
10, 58981, Note_on_c, 0, 57, 94
10, 58981, Note_on_c, 0, 60, 80
10, 58981, Note_on_c, 0, 53, 100
10, 58982, Note_on_c, 0, 50, 87
10, 59006, Note_on_c, 0, 53, 0
10, 59006, Note_on_c, 0, 50, 0
10, 59007, Note_on_c, 0, 57, 0
10, 59016, Note_on_c, 0, 60, 0
10, 59047, Note_on_c, 0, 46, 41
10, 59103, Note_on_c, 0, 69, 85
10, 59104, Note_on_c, 0, 62, 78
10, 59104, Note_on_c, 0, 65, 85
10, 59105, Note_on_c, 0, 72, 69
10, 59116, Note_on_c, 0, 62, 0
10, 59116, Note_on_c, 0, 65, 0
10, 59117, Note_on_c, 0, 69, 0
10, 59119, Note_on_c, 0, 72, 0
10, 59218, Note_on_c, 0, 65, 87
10, 59220, Note_on_c, 0, 72, 59
10, 59220, Note_on_c, 0, 69, 77
10, 59220, Note_on_c, 0, 62, 84
10, 59221, Note_on_c, 0, 74, 63
10, 59254, Note_on_c, 0, 74, 0
10, 59433, Note_on_c, 0, 46, 0
10, 59454, Note_on_c, 0, 46, 55
10, 59670, Note_on_c, 0, 65, 0
10, 59673, Note_on_c, 0, 62, 0
10, 59675, Note_on_c, 0, 69, 0
10, 59676, Note_on_c, 0, 72, 0
10, 59700, Note_on_c, 0, 72, 41
10, 59700, Note_on_c, 0, 69, 41
10, 59701, Note_on_c, 0, 62, 41
10, 59701, Note_on_c, 0, 65, 41
10, 59728, Note_on_c, 0, 62, 0
10, 59728, Note_on_c, 0, 65, 0
10, 59730, Note_on_c, 0, 69, 0
10, 59733, Note_on_c, 0, 72, 0
10, 59763, Note_on_c, 0, 65, 41
10, 59763, Note_on_c, 0, 69, 41
10, 59764, Note_on_c, 0, 72, 41
10, 59765, Note_on_c, 0, 62, 41
10, 59785, Note_on_c, 0, 65, 0
10, 59785, Note_on_c, 0, 62, 0
10, 59787, Note_on_c, 0, 69, 0
10, 59788, Note_on_c, 0, 72, 0
10, 59822, Note_on_c, 0, 69, 53
10, 59823, Note_on_c, 0, 72, 47
10, 59823, Note_on_c, 0, 65, 55
10, 59824, Note_on_c, 0, 62, 48
10, 59838, Note_on_c, 0, 65, 0
10, 59839, Note_on_c, 0, 62, 0
10, 59840, Note_on_c, 0, 69, 0
10, 59843, Note_on_c, 0, 72, 0
10, 59882, Note_on_c, 0, 72, 55
10, 59884, Note_on_c, 0, 65, 69
10, 59884, Note_on_c, 0, 69, 62
10, 59884, Note_on_c, 0, 62, 64
10, 59896, Note_on_c, 0, 65, 0
10, 59897, Note_on_c, 0, 69, 0
10, 59897, Note_on_c, 0, 62, 0
10, 59899, Note_on_c, 0, 72, 0
10, 59941, Note_on_c, 0, 62, 87
10, 59941, Note_on_c, 0, 72, 78
10, 59942, Note_on_c, 0, 65, 103
10, 59942, Note_on_c, 0, 69, 92
10, 60206, Note_on_c, 0, 65, 0
10, 60207, Note_on_c, 0, 46, 0
10, 60207, Note_on_c, 0, 69, 0
10, 60209, Note_on_c, 0, 62, 0
10, 60210, Note_on_c, 0, 72, 0
10, 60235, Note_on_c, 0, 46, 46
10, 60303, Note_on_c, 0, 72, 51
10, 60304, Note_on_c, 0, 69, 53
10, 60305, Note_on_c, 0, 62, 56
10, 60305, Note_on_c, 0, 65, 55
10, 60325, Note_on_c, 0, 65, 0
10, 60328, Note_on_c, 0, 69, 0
10, 60328, Note_on_c, 0, 62, 0
10, 60332, Note_on_c, 0, 72, 0
10, 60386, Note_on_c, 0, 72, 49
10, 60386, Note_on_c, 0, 62, 57
10, 60386, Note_on_c, 0, 69, 55
10, 60386, Note_on_c, 0, 65, 57
10, 60401, Note_on_c, 0, 65, 0
10, 60402, Note_on_c, 0, 69, 0
10, 60403, Note_on_c, 0, 62, 0
10, 60405, Note_on_c, 0, 72, 0
10, 60464, Note_on_c, 0, 72, 48
10, 60465, Note_on_c, 0, 62, 57
10, 60465, Note_on_c, 0, 69, 55
10, 60466, Note_on_c, 0, 65, 56
10, 60476, Note_on_c, 0, 65, 0
10, 60477, Note_on_c, 0, 69, 0
10, 60478, Note_on_c, 0, 62, 0
10, 60480, Note_on_c, 0, 72, 0
10, 60538, Note_on_c, 0, 72, 67
10, 60539, Note_on_c, 0, 69, 78
10, 60540, Note_on_c, 0, 65, 90
10, 60541, Note_on_c, 0, 62, 73
10, 60555, Note_on_c, 0, 65, 0
10, 60556, Note_on_c, 0, 62, 0
10, 60557, Note_on_c, 0, 69, 0
10, 60569, Note_on_c, 0, 72, 0
10, 60616, Note_on_c, 0, 72, 62
10, 60617, Note_on_c, 0, 62, 66
10, 60618, Note_on_c, 0, 69, 72
10, 60619, Note_on_c, 0, 65, 62
10, 60629, Note_on_c, 0, 65, 0
10, 60631, Note_on_c, 0, 69, 0
10, 60633, Note_on_c, 0, 62, 0
10, 60636, Note_on_c, 0, 72, 0
10, 60696, Note_on_c, 0, 72, 48
10, 60697, Note_on_c, 0, 69, 56
10, 60698, Note_on_c, 0, 65, 57
10, 60698, Note_on_c, 0, 62, 56
10, 60804, Note_on_c, 0, 46, 0
10, 60840, Note_on_c, 0, 46, 51
10, 60844, Note_on_c, 0, 65, 0
10, 60845, Note_on_c, 0, 62, 0
10, 60848, Note_on_c, 0, 72, 0
10, 60848, Note_on_c, 0, 69, 0
10, 60878, Note_on_c, 0, 72, 41
10, 60879, Note_on_c, 0, 69, 41
10, 60880, Note_on_c, 0, 65, 43
10, 60880, Note_on_c, 0, 62, 41
10, 61126, Note_on_c, 0, 46, 0
10, 61130, Note_on_c, 0, 46, 50
10, 61185, Note_on_c, 0, 65, 0
10, 61187, Note_on_c, 0, 69, 0
10, 61190, Note_on_c, 0, 72, 0
10, 61191, Note_on_c, 0, 62, 0
10, 61257, Note_on_c, 0, 69, 42
10, 61257, Note_on_c, 0, 65, 43
10, 61257, Note_on_c, 0, 62, 44
10, 61257, Note_on_c, 0, 72, 44
10, 61502, Note_on_c, 0, 41, 45
10, 61508, Note_on_c, 0, 46, 0
10, 61523, Note_on_c, 0, 65, 0
10, 61526, Note_on_c, 0, 69, 0
10, 61526, Note_on_c, 0, 62, 0
10, 61528, Note_on_c, 0, 72, 0
10, 61549, Note_on_c, 0, 46, 55
10, 61559, Note_on_c, 0, 41, 0
10, 61616, Note_on_c, 0, 69, 48
10, 61616, Note_on_c, 0, 62, 47
10, 61618, Note_on_c, 0, 65, 49
10, 61618, Note_on_c, 0, 72, 45
10, 61619, Note_on_c, 0, 53, 41
10, 61844, Note_on_c, 0, 46, 0
10, 61849, Note_on_c, 0, 72, 0
10, 61851, Note_on_c, 0, 65, 0
10, 61852, Note_on_c, 0, 62, 0
10, 61854, Note_on_c, 0, 69, 0
10, 61861, Note_on_c, 0, 46, 68
10, 61864, Note_on_c, 0, 69, 41
10, 61865, Note_on_c, 0, 65, 46
10, 61866, Note_on_c, 0, 72, 50
10, 61867, Note_on_c, 0, 62, 53
10, 62074, Note_on_c, 0, 72, 0
10, 62077, Note_on_c, 0, 53, 0
10, 62077, Note_on_c, 0, 69, 0
10, 62079, Note_on_c, 0, 65, 0
10, 62080, Note_on_c, 0, 46, 0
10, 62080, Note_on_c, 0, 62, 0
10, 62101, Note_on_c, 0, 46, 46
10, 62102, Note_on_c, 0, 65, 43
10, 62103, Note_on_c, 0, 53, 44
10, 62105, Note_on_c, 0, 69, 43
10, 62105, Note_on_c, 0, 62, 45
10, 62108, Note_on_c, 0, 72, 41
10, 62318, Note_on_c, 0, 46, 0
10, 62320, Note_on_c, 0, 65, 0
10, 62321, Note_on_c, 0, 72, 0
10, 62323, Note_on_c, 0, 69, 0
10, 62325, Note_on_c, 0, 53, 0
10, 62325, Note_on_c, 0, 62, 0
10, 62345, Note_on_c, 0, 46, 57
10, 62346, Note_on_c, 0, 53, 51
10, 62347, Note_on_c, 0, 69, 54
10, 62348, Note_on_c, 0, 62, 52
10, 62349, Note_on_c, 0, 65, 54
10, 62349, Note_on_c, 0, 72, 50
10, 62565, Note_on_c, 0, 65, 0
10, 62567, Note_on_c, 0, 69, 0
10, 62568, Note_on_c, 0, 62, 0
10, 62572, Note_on_c, 0, 72, 0
10, 62580, Note_on_c, 0, 72, 41
10, 62582, Note_on_c, 0, 69, 48
10, 62582, Note_on_c, 0, 62, 47
10, 62583, Note_on_c, 0, 65, 48
10, 62619, Note_on_c, 0, 46, 0
10, 62640, Note_on_c, 0, 46, 90
10, 62669, Note_on_c, 0, 53, 0
10, 62696, Note_on_c, 0, 53, 50
10, 62704, Note_on_c, 0, 65, 0
10, 62705, Note_on_c, 0, 62, 0
10, 62708, Note_on_c, 0, 69, 0
10, 62710, Note_on_c, 0, 72, 0
10, 62757, Note_on_c, 0, 69, 56
10, 62758, Note_on_c, 0, 65, 59
10, 62758, Note_on_c, 0, 72, 55
10, 62758, Note_on_c, 0, 62, 61
10, 62851, Note_on_c, 0, 62, 0
10, 62853, Note_on_c, 0, 65, 0
10, 62857, Note_on_c, 0, 72, 0
10, 62858, Note_on_c, 0, 69, 0
10, 62880, Note_on_c, 0, 65, 52
10, 62880, Note_on_c, 0, 69, 50
10, 62881, Note_on_c, 0, 72, 52
10, 62881, Note_on_c, 0, 62, 50
10, 62914, Note_on_c, 0, 65, 0
10, 62914, Note_on_c, 0, 62, 0
10, 62916, Note_on_c, 0, 69, 0
10, 62918, Note_on_c, 0, 72, 0
10, 62952, Note_on_c, 0, 69, 42
10, 62953, Note_on_c, 0, 65, 43
10, 62953, Note_on_c, 0, 72, 43
10, 62954, Note_on_c, 0, 62, 43
10, 62998, Note_on_c, 0, 65, 0
10, 63000, Note_on_c, 0, 69, 0
10, 63001, Note_on_c, 0, 72, 0
10, 63001, Note_on_c, 0, 62, 0
10, 63035, Note_on_c, 0, 67, 50
10, 63037, Note_on_c, 0, 71, 43
10, 63037, Note_on_c, 0, 60, 55
10, 63038, Note_on_c, 0, 64, 50
10, 63068, Note_on_c, 0, 60, 0
10, 63069, Note_on_c, 0, 64, 0
10, 63072, Note_on_c, 0, 67, 0
10, 63075, Note_on_c, 0, 71, 0
10, 63111, Note_on_c, 0, 72, 50
10, 63113, Note_on_c, 0, 69, 45
10, 63114, Note_on_c, 0, 65, 56
10, 63116, Note_on_c, 0, 62, 47
10, 63202, Note_on_c, 0, 46, 0
10, 63239, Note_on_c, 0, 46, 41
10, 63251, Note_on_c, 0, 53, 0
10, 63270, Note_on_c, 0, 65, 0
10, 63271, Note_on_c, 0, 62, 0
10, 63273, Note_on_c, 0, 69, 0
10, 63275, Note_on_c, 0, 72, 0
10, 63291, Note_on_c, 0, 53, 46
10, 63350, Note_on_c, 0, 69, 62
10, 63351, Note_on_c, 0, 72, 55
10, 63351, Note_on_c, 0, 65, 65
10, 63352, Note_on_c, 0, 62, 61
10, 63384, Note_on_c, 0, 46, 0
10, 63404, Note_on_c, 0, 46, 59
10, 63433, Note_on_c, 0, 53, 0
10, 63469, Note_on_c, 0, 53, 78
10, 63483, Note_on_c, 0, 65, 0
10, 63483, Note_on_c, 0, 62, 0
10, 63485, Note_on_c, 0, 69, 0
10, 63487, Note_on_c, 0, 72, 0
10, 63522, Note_on_c, 0, 65, 60
10, 63522, Note_on_c, 0, 69, 55
10, 63522, Note_on_c, 0, 72, 57
10, 63523, Note_on_c, 0, 62, 59
10, 63563, Note_on_c, 0, 65, 0
10, 63564, Note_on_c, 0, 69, 0
10, 63565, Note_on_c, 0, 46, 0
10, 63565, Note_on_c, 0, 62, 0
10, 63567, Note_on_c, 0, 72, 0
10, 63573, Note_on_c, 0, 53, 0
10, 63601, Note_on_c, 0, 26, 113
10, 64317, Note_on_c, 0, 81, 127
10, 64317, Note_on_c, 0, 86, 127
10, 64319, Note_on_c, 0, 76, 127
10, 64383, Note_on_c, 0, 86, 0
10, 64384, Note_on_c, 0, 76, 0
10, 64387, Note_on_c, 0, 81, 0
10, 64438, Note_on_c, 0, 84, 127
10, 64439, Note_on_c, 0, 74, 118
10, 64440, Note_on_c, 0, 79, 122
10, 64525, Note_on_c, 0, 84, 0
10, 64527, Note_on_c, 0, 74, 0
10, 64528, Note_on_c, 0, 26, 0
10, 64530, Note_on_c, 0, 79, 0
10, 64875, Note_on_c, 0, 88, 122
10, 64876, Note_on_c, 0, 86, 127
10, 64876, Note_on_c, 0, 81, 127
10, 64950, Note_on_c, 0, 88, 0
10, 64950, Note_on_c, 0, 86, 0
10, 64953, Note_on_c, 0, 81, 0
10, 65043, Note_on_c, 0, 86, 122
10, 65043, Note_on_c, 0, 79, 122
10, 65044, Note_on_c, 0, 84, 127
10, 65139, Note_on_c, 0, 84, 0
10, 65140, Note_on_c, 0, 86, 0
10, 65143, Note_on_c, 0, 79, 0
10, 65232, Note_on_c, 0, 76, 67
10, 65234, Note_on_c, 0, 72, 92
10, 65235, Note_on_c, 0, 69, 77
10, 65341, Note_on_c, 0, 69, 0
10, 65344, Note_on_c, 0, 72, 0
10, 65348, Note_on_c, 0, 76, 0
10, 65455, Note_on_c, 0, 74, 76
10, 65455, Note_on_c, 0, 69, 113
10, 65455, Note_on_c, 0, 65, 92
10, 65527, Note_on_c, 0, 69, 0
10, 65531, Note_on_c, 0, 74, 0
10, 65536, Note_on_c, 0, 65, 0
10, 65577, Note_on_c, 0, 57, 64
10, 65577, Note_on_c, 0, 50, 52
10, 65579, Note_on_c, 0, 60, 50
10, 65580, Note_on_c, 0, 62, 64
10, 66104, Note_on_c, 0, 57, 0
10, 66119, Note_on_c, 0, 50, 0
10, 66119, Note_on_c, 0, 60, 0
10, 66119, Note_on_c, 0, 62, 0
10, 66120, Note_on_c, 0, 55, 88
10, 66120, Note_on_c, 0, 50, 65
10, 66120, Note_on_c, 0, 57, 81
10, 66124, Note_on_c, 0, 60, 63
10, 66126, Note_on_c, 0, 62, 81
10, 66126, Note_on_c, 0, 67, 78
10, 66473, Note_on_c, 0, 55, 0
10, 66473, Note_on_c, 0, 57, 0
10, 66473, Note_on_c, 0, 62, 0
10, 66474, Note_on_c, 0, 50, 0
10, 66477, Note_on_c, 0, 60, 0
10, 66477, Note_on_c, 0, 67, 0
10, 66480, Note_on_c, 0, 64, 106
10, 66480, Note_on_c, 0, 69, 85
10, 66480, Note_on_c, 0, 62, 87
10, 66668, Note_on_c, 0, 64, 0
10, 66668, Note_on_c, 0, 62, 0
10, 66670, Note_on_c, 0, 69, 0
10, 66795, Note_on_c, 0, 62, 82
10, 66796, Note_on_c, 0, 64, 90
10, 66796, Note_on_c, 0, 69, 85
10, 66835, Note_on_c, 0, 64, 0
10, 66837, Note_on_c, 0, 62, 0
10, 66850, Note_on_c, 0, 69, 0
10, 68239, Note_on_c, 0, 86, 59
10, 68239, Note_on_c, 0, 81, 68
10, 68240, Note_on_c, 0, 76, 68
10, 68287, Note_on_c, 0, 81, 0
10, 68288, Note_on_c, 0, 76, 0
10, 68289, Note_on_c, 0, 86, 0
10, 68324, Note_on_c, 0, 81, 59
10, 68325, Note_on_c, 0, 76, 59
10, 68326, Note_on_c, 0, 86, 53
10, 68373, Note_on_c, 0, 81, 0
10, 68374, Note_on_c, 0, 76, 0
10, 68377, Note_on_c, 0, 86, 0
10, 68404, Note_on_c, 0, 81, 56
10, 68406, Note_on_c, 0, 76, 56
10, 68409, Note_on_c, 0, 86, 50
10, 68462, Note_on_c, 0, 81, 0
10, 68464, Note_on_c, 0, 76, 0
10, 68466, Note_on_c, 0, 86, 0
10, 68499, Note_on_c, 0, 81, 51
10, 68501, Note_on_c, 0, 76, 51
10, 68503, Note_on_c, 0, 86, 47
10, 68548, Note_on_c, 0, 81, 0
10, 68550, Note_on_c, 0, 76, 0
10, 68554, Note_on_c, 0, 86, 0
10, 68584, Note_on_c, 0, 81, 47
10, 68586, Note_on_c, 0, 76, 47
10, 68588, Note_on_c, 0, 86, 42
10, 68631, Note_on_c, 0, 81, 0
10, 68633, Note_on_c, 0, 76, 0
10, 68636, Note_on_c, 0, 86, 0
10, 68672, Note_on_c, 0, 81, 48
10, 68674, Note_on_c, 0, 76, 48
10, 68676, Note_on_c, 0, 86, 44
10, 68720, Note_on_c, 0, 81, 0
10, 68722, Note_on_c, 0, 76, 0
10, 68724, Note_on_c, 0, 86, 0
10, 68955, Note_on_c, 0, 81, 40
10, 68957, Note_on_c, 0, 86, 43
10, 68958, Note_on_c, 0, 76, 40
10, 68997, Note_on_c, 0, 81, 0
10, 68998, Note_on_c, 0, 76, 0
10, 69002, Note_on_c, 0, 86, 0
10, 69045, Note_on_c, 0, 86, 40
10, 69045, Note_on_c, 0, 81, 42
10, 69046, Note_on_c, 0, 76, 40
10, 69087, Note_on_c, 0, 81, 0
10, 69087, Note_on_c, 0, 76, 0
10, 69090, Note_on_c, 0, 86, 0
10, 69128, Note_on_c, 0, 81, 44
10, 69129, Note_on_c, 0, 86, 43
10, 69130, Note_on_c, 0, 76, 42
10, 69175, Note_on_c, 0, 81, 0
10, 69177, Note_on_c, 0, 76, 0
10, 69178, Note_on_c, 0, 86, 0
10, 69215, Note_on_c, 0, 76, 40
10, 69215, Note_on_c, 0, 86, 40
10, 69215, Note_on_c, 0, 81, 38
10, 69260, Note_on_c, 0, 81, 0
10, 69262, Note_on_c, 0, 76, 0
10, 69263, Note_on_c, 0, 86, 0
10, 69299, Note_on_c, 0, 81, 44
10, 69300, Note_on_c, 0, 86, 44
10, 69301, Note_on_c, 0, 76, 45
10, 69347, Note_on_c, 0, 81, 0
10, 69351, Note_on_c, 0, 86, 0
10, 69352, Note_on_c, 0, 76, 0
10, 69492, Note_on_c, 0, 81, 25
10, 69498, Note_on_c, 0, 86, 22
10, 69511, Note_on_c, 0, 86, 0
10, 69513, Note_on_c, 0, 81, 0
10, 69599, Note_on_c, 0, 86, 59
10, 69600, Note_on_c, 0, 81, 64
10, 69602, Note_on_c, 0, 76, 64
10, 69640, Note_on_c, 0, 81, 0
10, 69641, Note_on_c, 0, 76, 0
10, 69645, Note_on_c, 0, 86, 0
10, 69686, Note_on_c, 0, 86, 56
10, 69686, Note_on_c, 0, 81, 57
10, 69687, Note_on_c, 0, 76, 54
10, 69733, Note_on_c, 0, 81, 0
10, 69736, Note_on_c, 0, 76, 0
10, 69740, Note_on_c, 0, 86, 0
10, 69779, Note_on_c, 0, 81, 60
10, 69779, Note_on_c, 0, 86, 58
10, 69780, Note_on_c, 0, 76, 58
10, 69826, Note_on_c, 0, 81, 0
10, 69832, Note_on_c, 0, 86, 0
10, 69835, Note_on_c, 0, 76, 0
10, 69956, Note_on_c, 0, 81, 67
10, 69956, Note_on_c, 0, 86, 59
10, 69957, Note_on_c, 0, 76, 57
10, 70014, Note_on_c, 0, 81, 0
10, 70016, Note_on_c, 0, 76, 0
10, 70020, Note_on_c, 0, 86, 0
10, 70064, Note_on_c, 0, 86, 60
10, 70064, Note_on_c, 0, 81, 70
10, 70065, Note_on_c, 0, 76, 59
10, 70109, Note_on_c, 0, 81, 0
10, 70109, Note_on_c, 0, 76, 0
10, 70114, Note_on_c, 0, 86, 0
10, 70151, Note_on_c, 0, 81, 57
10, 70151, Note_on_c, 0, 76, 53
10, 70151, Note_on_c, 0, 86, 51
10, 70199, Note_on_c, 0, 81, 0
10, 70202, Note_on_c, 0, 76, 0
10, 70205, Note_on_c, 0, 86, 0
10, 70245, Note_on_c, 0, 86, 59
10, 70245, Note_on_c, 0, 81, 70
10, 70247, Note_on_c, 0, 76, 58
10, 70288, Note_on_c, 0, 81, 0
10, 70292, Note_on_c, 0, 76, 0
10, 70294, Note_on_c, 0, 86, 0
10, 70333, Note_on_c, 0, 81, 67
10, 70335, Note_on_c, 0, 76, 57
10, 70335, Note_on_c, 0, 86, 57
10, 70376, Note_on_c, 0, 81, 0
10, 70379, Note_on_c, 0, 76, 0
10, 70381, Note_on_c, 0, 86, 0
10, 70424, Note_on_c, 0, 86, 60
10, 70424, Note_on_c, 0, 76, 60
10, 70425, Note_on_c, 0, 81, 74
10, 70471, Note_on_c, 0, 81, 0
10, 70473, Note_on_c, 0, 76, 0
10, 70475, Note_on_c, 0, 86, 0
10, 70511, Note_on_c, 0, 76, 53
10, 70513, Note_on_c, 0, 86, 60
10, 70513, Note_on_c, 0, 81, 65
10, 70555, Note_on_c, 0, 81, 0
10, 70562, Note_on_c, 0, 76, 0
10, 70562, Note_on_c, 0, 86, 0
10, 70689, Note_on_c, 0, 81, 70
10, 70690, Note_on_c, 0, 86, 53
10, 70692, Note_on_c, 0, 76, 48
10, 70692, Note_on_c, 0, 88, 57
10, 70754, Note_on_c, 0, 81, 0
10, 70755, Note_on_c, 0, 76, 0
10, 70755, Note_on_c, 0, 88, 0
10, 70757, Note_on_c, 0, 86, 0
10, 70977, Note_on_c, 0, 81, 70
10, 70979, Note_on_c, 0, 76, 56
10, 70979, Note_on_c, 0, 86, 51
10, 71030, Note_on_c, 0, 81, 0
10, 71032, Note_on_c, 0, 76, 0
10, 71035, Note_on_c, 0, 86, 0
10, 71077, Note_on_c, 0, 86, 53
10, 71077, Note_on_c, 0, 76, 54
10, 71077, Note_on_c, 0, 81, 63
10, 71119, Note_on_c, 0, 81, 0
10, 71121, Note_on_c, 0, 76, 0
10, 71124, Note_on_c, 0, 86, 0
10, 71159, Note_on_c, 0, 81, 64
10, 71160, Note_on_c, 0, 86, 57
10, 71161, Note_on_c, 0, 76, 58
10, 71205, Note_on_c, 0, 81, 0
10, 71207, Note_on_c, 0, 86, 0
10, 71208, Note_on_c, 0, 76, 0
10, 75116, Note_on_c, 0, 41, 58
10, 75122, Note_on_c, 0, 79, 85
10, 75123, Note_on_c, 0, 72, 106
10, 75123, Note_on_c, 0, 74, 110
10, 75771, Note_on_c, 0, 41, 0
10, 75784, Note_on_c, 0, 74, 0
10, 75786, Note_on_c, 0, 72, 0
10, 75788, Note_on_c, 0, 79, 0
10, 75846, Note_on_c, 0, 55, 90
10, 75846, Note_on_c, 0, 48, 80
10, 76441, Note_on_c, 0, 48, 0
10, 76457, Note_on_c, 0, 55, 0
10, 76564, Note_on_c, 0, 65, 73
10, 76564, Note_on_c, 0, 58, 80
10, 76596, Note_on_c, 0, 105, 84
10, 76615, Note_on_c, 0, 105, 0
10, 76615, Note_on_c, 0, 103, 78
10, 76635, Note_on_c, 0, 103, 0
10, 76635, Note_on_c, 0, 105, 76
10, 76654, Note_on_c, 0, 105, 0
10, 76654, Note_on_c, 0, 103, 68
10, 76674, Note_on_c, 0, 103, 0
10, 76674, Note_on_c, 0, 100, 73
10, 76694, Note_on_c, 0, 100, 0
10, 76694, Note_on_c, 0, 98, 83
10, 76713, Note_on_c, 0, 98, 0
10, 76713, Note_on_c, 0, 100, 59
10, 76733, Note_on_c, 0, 100, 0
10, 76733, Note_on_c, 0, 98, 73
10, 76752, Note_on_c, 0, 98, 0
10, 76752, Note_on_c, 0, 96, 76
10, 76772, Note_on_c, 0, 96, 0
10, 76772, Note_on_c, 0, 93, 51
10, 76791, Note_on_c, 0, 93, 0
10, 76791, Note_on_c, 0, 96, 73
10, 76795, Note_on_c, 0, 58, 0
10, 76796, Note_on_c, 0, 65, 0
10, 76811, Note_on_c, 0, 96, 0
10, 76811, Note_on_c, 0, 93, 62
10, 76831, Note_on_c, 0, 93, 0
10, 76831, Note_on_c, 0, 91, 56
10, 76850, Note_on_c, 0, 91, 0
10, 76850, Note_on_c, 0, 88, 48
10, 76870, Note_on_c, 0, 88, 0
10, 76870, Note_on_c, 0, 91, 48
10, 76889, Note_on_c, 0, 91, 0
10, 76889, Note_on_c, 0, 88, 52
10, 76909, Note_on_c, 0, 88, 0
10, 76909, Note_on_c, 0, 86, 53
10, 76929, Note_on_c, 0, 86, 0
10, 76929, Note_on_c, 0, 84, 52
10, 76948, Note_on_c, 0, 84, 0
10, 76948, Note_on_c, 0, 86, 40
10, 76968, Note_on_c, 0, 86, 0
10, 76968, Note_on_c, 0, 84, 53
10, 76987, Note_on_c, 0, 84, 0
10, 76987, Note_on_c, 0, 81, 53
10, 77007, Note_on_c, 0, 81, 0
10, 77007, Note_on_c, 0, 79, 48
10, 77027, Note_on_c, 0, 79, 0
10, 77027, Note_on_c, 0, 81, 48
10, 77046, Note_on_c, 0, 81, 0
10, 77046, Note_on_c, 0, 79, 54
10, 77066, Note_on_c, 0, 79, 0
10, 77066, Note_on_c, 0, 76, 41
10, 77085, Note_on_c, 0, 76, 0
10, 77085, Note_on_c, 0, 74, 47
10, 77104, Note_on_c, 0, 74, 0
10, 77105, Note_on_c, 0, 76, 48
10, 77124, Note_on_c, 0, 76, 0
10, 77124, Note_on_c, 0, 74, 51
10, 77143, Note_on_c, 0, 74, 0
10, 77144, Note_on_c, 0, 72, 47
10, 77164, Note_on_c, 0, 72, 0
10, 77165, Note_on_c, 0, 69, 43
10, 77182, Note_on_c, 0, 72, 47
10, 77183, Note_on_c, 0, 69, 0
10, 77202, Note_on_c, 0, 72, 0
10, 77203, Note_on_c, 0, 69, 44
10, 77223, Note_on_c, 0, 69, 0
10, 77223, Note_on_c, 0, 67, 40
10, 77242, Note_on_c, 0, 67, 0
10, 77242, Note_on_c, 0, 64, 60
10, 77261, Note_on_c, 0, 64, 0
10, 77262, Note_on_c, 0, 67, 49
10, 77280, Note_on_c, 0, 64, 52
10, 77282, Note_on_c, 0, 67, 0
10, 77300, Note_on_c, 0, 64, 0
10, 77300, Note_on_c, 0, 62, 53
10, 77320, Note_on_c, 0, 62, 0
10, 77320, Note_on_c, 0, 60, 52
10, 77339, Note_on_c, 0, 60, 0
10, 77339, Note_on_c, 0, 62, 40
10, 77359, Note_on_c, 0, 62, 0
10, 77359, Note_on_c, 0, 60, 53
10, 77378, Note_on_c, 0, 60, 0
10, 77378, Note_on_c, 0, 57, 53
10, 77398, Note_on_c, 0, 57, 0
10, 77398, Note_on_c, 0, 55, 48
10, 77418, Note_on_c, 0, 55, 0
10, 77420, Note_on_c, 0, 52, 60
10, 77439, Note_on_c, 0, 52, 0
10, 77440, Note_on_c, 0, 55, 49
10, 77458, Note_on_c, 0, 52, 52
10, 77460, Note_on_c, 0, 55, 0
10, 77478, Note_on_c, 0, 52, 0
10, 77478, Note_on_c, 0, 50, 53
10, 77498, Note_on_c, 0, 50, 0
10, 77498, Note_on_c, 0, 48, 52
10, 77517, Note_on_c, 0, 48, 0
10, 77517, Note_on_c, 0, 50, 40
10, 77537, Note_on_c, 0, 50, 0
10, 77537, Note_on_c, 0, 48, 53
10, 77556, Note_on_c, 0, 48, 0
10, 77556, Note_on_c, 0, 45, 53
10, 77576, Note_on_c, 0, 45, 0
10, 77576, Note_on_c, 0, 43, 48
10, 77596, Note_on_c, 0, 43, 0
10, 77828, Note_on_c, 0, 71, 77
10, 77828, Note_on_c, 0, 69, 68
10, 77829, Note_on_c, 0, 76, 77
10, 77891, Note_on_c, 0, 71, 0
10, 77892, Note_on_c, 0, 76, 0
10, 77893, Note_on_c, 0, 69, 0
10, 77907, Note_on_c, 0, 81, 84
10, 77907, Note_on_c, 0, 83, 101
10, 77908, Note_on_c, 0, 88, 101
10, 77974, Note_on_c, 0, 83, 0
10, 77976, Note_on_c, 0, 81, 0
10, 77978, Note_on_c, 0, 88, 0
10, 78194, Note_on_c, 0, 62, 84
10, 78194, Note_on_c, 0, 67, 65
10, 78196, Note_on_c, 0, 60, 73
10, 78212, Note_on_c, 0, 62, 0
10, 78213, Note_on_c, 0, 60, 0
10, 78214, Note_on_c, 0, 67, 0
10, 78248, Note_on_c, 0, 62, 82
10, 78248, Note_on_c, 0, 60, 65
10, 78249, Note_on_c, 0, 67, 77
10, 78271, Note_on_c, 0, 62, 0
10, 78273, Note_on_c, 0, 60, 0
10, 78275, Note_on_c, 0, 67, 0
10, 78314, Note_on_c, 0, 60, 94
10, 78314, Note_on_c, 0, 62, 106
10, 78315, Note_on_c, 0, 67, 94
10, 78378, Note_on_c, 0, 60, 0
10, 78378, Note_on_c, 0, 62, 0
10, 78380, Note_on_c, 0, 67, 0
10, 78427, Note_on_c, 0, 62, 118
10, 78429, Note_on_c, 0, 67, 106
10, 78429, Note_on_c, 0, 60, 85
10, 78582, Note_on_c, 0, 62, 0
10, 78583, Note_on_c, 0, 60, 0
10, 78584, Note_on_c, 0, 67, 0
10, 78599, Note_on_c, 0, 67, 80
10, 78599, Note_on_c, 0, 62, 82
10, 78600, Note_on_c, 0, 60, 62
10, 78661, Note_on_c, 0, 62, 0
10, 78662, Note_on_c, 0, 60, 0
10, 78672, Note_on_c, 0, 67, 0
10, 78852, Note_on_c, 0, 38, 90
10, 78874, Note_on_c, 0, 50, 90
10, 78896, Note_on_c, 0, 57, 94
10, 78918, Note_on_c, 0, 62, 100
10, 78941, Note_on_c, 0, 64, 97
10, 78963, Note_on_c, 0, 65, 76
10, 78985, Note_on_c, 0, 69, 85
10, 79007, Note_on_c, 0, 74, 77
10, 79028, Note_on_c, 0, 76, 69
10, 79051, Note_on_c, 0, 77, 76
10, 79072, Note_on_c, 0, 81, 100
10, 79095, Note_on_c, 0, 84, 97
10, 79116, Note_on_c, 0, 86, 90
10, 79139, Note_on_c, 0, 88, 87
10, 79161, Note_on_c, 0, 88, 0
10, 79161, Note_on_c, 0, 89, 64
10, 79183, Note_on_c, 0, 89, 0
10, 79183, Note_on_c, 0, 93, 85
10, 79205, Note_on_c, 0, 93, 0
10, 79205, Note_on_c, 0, 96, 72
10, 79227, Note_on_c, 0, 96, 0
10, 79229, Note_on_c, 0, 98, 88
10, 79249, Note_on_c, 0, 98, 0
10, 79249, Note_on_c, 0, 100, 85
10, 79271, Note_on_c, 0, 100, 0
10, 79271, Note_on_c, 0, 101, 88
10, 79293, Note_on_c, 0, 101, 0
10, 79293, Note_on_c, 0, 105, 88
10, 79315, Note_on_c, 0, 105, 0
10, 79387, Note_on_c, 0, 76, 0
10, 79388, Note_on_c, 0, 77, 0
10, 79393, Note_on_c, 0, 74, 0
10, 79395, Note_on_c, 0, 84, 0
10, 79398, Note_on_c, 0, 86, 0
10, 79400, Note_on_c, 0, 81, 0
10, 79404, Note_on_c, 0, 64, 0
10, 79404, Note_on_c, 0, 65, 0
10, 79408, Note_on_c, 0, 62, 0
10, 79409, Note_on_c, 0, 57, 0
10, 79409, Note_on_c, 0, 69, 0
10, 79411, Note_on_c, 0, 50, 0
10, 79416, Note_on_c, 0, 38, 0
10, 79439, Note_on_c, 0, 60, 97
10, 79439, Note_on_c, 0, 62, 106
10, 79439, Note_on_c, 0, 67, 97
10, 79707, Note_on_c, 0, 62, 0
10, 79708, Note_on_c, 0, 67, 0
10, 79710, Note_on_c, 0, 60, 0
10, 79731, Note_on_c, 0, 67, 76
10, 79732, Note_on_c, 0, 62, 80
10, 79733, Note_on_c, 0, 60, 62
10, 79753, Note_on_c, 0, 62, 0
10, 79754, Note_on_c, 0, 60, 0
10, 79755, Note_on_c, 0, 67, 0
10, 79800, Note_on_c, 0, 62, 113
10, 79800, Note_on_c, 0, 60, 100
10, 79801, Note_on_c, 0, 67, 100
10, 80063, Note_on_c, 0, 67, 0
10, 80065, Note_on_c, 0, 60, 0
10, 80068, Note_on_c, 0, 62, 0
10, 80163, Note_on_c, 0, 62, 97
10, 80163, Note_on_c, 0, 69, 72
10, 80166, Note_on_c, 0, 66, 94
10, 80166, Note_on_c, 0, 59, 77
10, 80547, Note_on_c, 0, 59, 0
10, 80548, Note_on_c, 0, 66, 0
10, 80550, Note_on_c, 0, 62, 0
10, 80552, Note_on_c, 0, 69, 0
10, 80583, Note_on_c, 0, 62, 68
10, 80584, Note_on_c, 0, 66, 62
10, 80584, Note_on_c, 0, 69, 51
10, 80586, Note_on_c, 0, 59, 53
10, 80605, Note_on_c, 0, 66, 0
10, 80607, Note_on_c, 0, 62, 0
10, 80607, Note_on_c, 0, 59, 0
10, 80609, Note_on_c, 0, 69, 0
10, 80642, Note_on_c, 0, 62, 97
10, 80642, Note_on_c, 0, 66, 97
10, 80642, Note_on_c, 0, 69, 76
10, 80644, Note_on_c, 0, 59, 82
10, 80667, Note_on_c, 0, 62, 0
10, 80667, Note_on_c, 0, 66, 0
10, 80667, Note_on_c, 0, 59, 0
10, 80671, Note_on_c, 0, 69, 0
10, 80704, Note_on_c, 0, 69, 73
10, 80705, Note_on_c, 0, 66, 103
10, 80706, Note_on_c, 0, 62, 106
10, 80707, Note_on_c, 0, 59, 90
10, 80845, Note_on_c, 0, 66, 0
10, 80847, Note_on_c, 0, 62, 0
10, 80847, Note_on_c, 0, 59, 0
10, 80854, Note_on_c, 0, 69, 0
10, 80880, Note_on_c, 0, 69, 92
10, 80881, Note_on_c, 0, 64, 127
10, 80881, Note_on_c, 0, 62, 117
10, 81449, Note_on_c, 0, 69, 0
10, 81452, Note_on_c, 0, 64, 0
10, 81453, Note_on_c, 0, 62, 0
10, 81486, Note_on_c, 0, 62, 101
10, 81486, Note_on_c, 0, 64, 101
10, 81486, Note_on_c, 0, 69, 80
10, 81584, Note_on_c, 0, 64, 0
10, 81586, Note_on_c, 0, 62, 0
10, 81586, Note_on_c, 0, 69, 0
10, 81604, Note_on_c, 0, 67, 98
10, 81604, Note_on_c, 0, 70, 100
10, 81604, Note_on_c, 0, 63, 96
10, 82295, Note_on_c, 0, 67, 0
10, 82298, Note_on_c, 0, 63, 0
10, 82299, Note_on_c, 0, 70, 0
10, 82321, Note_on_c, 0, 65, 102
10, 82322, Note_on_c, 0, 62, 104
10, 82322, Note_on_c, 0, 60, 94
10, 82323, Note_on_c, 0, 69, 76
10, 82780, Note_on_c, 0, 65, 0
10, 82781, Note_on_c, 0, 62, 0
10, 82782, Note_on_c, 0, 69, 0
10, 82783, Note_on_c, 0, 60, 0
10, 83040, Note_on_c, 0, 63, 57
10, 83041, Note_on_c, 0, 58, 94
10, 83042, Note_on_c, 0, 56, 56
10, 83042, Note_on_c, 0, 67, 49
10, 83100, Note_on_c, 0, 56, 0
10, 83103, Note_on_c, 0, 63, 0
10, 83105, Note_on_c, 0, 67, 0
10, 83106, Note_on_c, 0, 58, 0
10, 83159, Note_on_c, 0, 63, 85
10, 83159, Note_on_c, 0, 58, 80
10, 83159, Note_on_c, 0, 56, 77
10, 83160, Note_on_c, 0, 67, 58
10, 83397, Note_on_c, 0, 63, 0
10, 83397, Note_on_c, 0, 58, 0
10, 83397, Note_on_c, 0, 56, 0
10, 83397, Note_on_c, 0, 67, 0
10, 83399, Note_on_c, 0, 56, 70
10, 83399, Note_on_c, 0, 58, 80
10, 83399, Note_on_c, 0, 67, 68
10, 83399, Note_on_c, 0, 63, 87
10, 83517, Note_on_c, 0, 56, 0
10, 83517, Note_on_c, 0, 58, 0
10, 83517, Note_on_c, 0, 67, 0
10, 83517, Note_on_c, 0, 63, 0
10, 83520, Note_on_c, 0, 63, 107
10, 83520, Note_on_c, 0, 67, 78
10, 83520, Note_on_c, 0, 56, 85
10, 83520, Note_on_c, 0, 58, 103
10, 83746, Note_on_c, 0, 63, 0
10, 83746, Note_on_c, 0, 58, 0
10, 83747, Note_on_c, 0, 67, 0
10, 83749, Note_on_c, 0, 56, 0
10, 83758, Note_on_c, 0, 60, 72
10, 83759, Note_on_c, 0, 55, 67
10, 83759, Note_on_c, 0, 62, 64
10, 83902, Note_on_c, 0, 62, 0
10, 83906, Note_on_c, 0, 60, 0
10, 83906, Note_on_c, 0, 55, 0
10, 83939, Note_on_c, 0, 60, 70
10, 83940, Note_on_c, 0, 62, 64
10, 83941, Note_on_c, 0, 55, 67
10, 83966, Note_on_c, 0, 60, 0
10, 83967, Note_on_c, 0, 62, 0
10, 83969, Note_on_c, 0, 55, 0
10, 84000, Note_on_c, 0, 60, 77
10, 84000, Note_on_c, 0, 55, 74
10, 84000, Note_on_c, 0, 62, 74
10, 84160, Note_on_c, 0, 62, 0
10, 84163, Note_on_c, 0, 60, 0
10, 84164, Note_on_c, 0, 55, 0
10, 84179, Note_on_c, 0, 60, 56
10, 84180, Note_on_c, 0, 55, 52
10, 84181, Note_on_c, 0, 62, 57
10, 84220, Note_on_c, 0, 62, 0
10, 84221, Note_on_c, 0, 60, 0
10, 84221, Note_on_c, 0, 55, 0
10, 84241, Note_on_c, 0, 62, 77
10, 84241, Note_on_c, 0, 60, 77
10, 84241, Note_on_c, 0, 55, 68
10, 84401, Note_on_c, 0, 62, 0
10, 84403, Note_on_c, 0, 60, 0
10, 84405, Note_on_c, 0, 55, 0
10, 84409, Note_on_c, 0, 60, 62
10, 84409, Note_on_c, 0, 62, 67
10, 84410, Note_on_c, 0, 55, 53
10, 84467, Note_on_c, 0, 60, 0
10, 84467, Note_on_c, 0, 62, 0
10, 84469, Note_on_c, 0, 55, 0
10, 84471, Note_on_c, 0, 58, 97
10, 84472, Note_on_c, 0, 60, 94
10, 84474, Note_on_c, 0, 65, 59
10, 84635, Note_on_c, 0, 65, 0
10, 84637, Note_on_c, 0, 60, 0
10, 84640, Note_on_c, 0, 58, 0
10, 84655, Note_on_c, 0, 58, 65
10, 84656, Note_on_c, 0, 60, 70
10, 84657, Note_on_c, 0, 65, 62
10, 84679, Note_on_c, 0, 60, 0
10, 84680, Note_on_c, 0, 58, 0
10, 84681, Note_on_c, 0, 65, 0
10, 84711, Note_on_c, 0, 60, 57
10, 84712, Note_on_c, 0, 65, 51
10, 84713, Note_on_c, 0, 58, 70
10, 84871, Note_on_c, 0, 65, 0
10, 84872, Note_on_c, 0, 60, 0
10, 84873, Note_on_c, 0, 58, 0
10, 84892, Note_on_c, 0, 60, 80
10, 84893, Note_on_c, 0, 65, 58
10, 84893, Note_on_c, 0, 58, 87
10, 84984, Note_on_c, 0, 60, 0
10, 84987, Note_on_c, 0, 58, 0
10, 84995, Note_on_c, 0, 65, 0
10, 85003, Note_on_c, 0, 60, 90
10, 85003, Note_on_c, 0, 65, 62
10, 85004, Note_on_c, 0, 58, 107
10, 85105, Note_on_c, 0, 60, 0
10, 85105, Note_on_c, 0, 65, 0
10, 85107, Note_on_c, 0, 58, 0
10, 85131, Note_on_c, 0, 60, 84
10, 85131, Note_on_c, 0, 65, 63
10, 85132, Note_on_c, 0, 58, 85
10, 85150, Note_on_c, 0, 60, 0
10, 85152, Note_on_c, 0, 65, 0
10, 85153, Note_on_c, 0, 58, 0
10, 85188, Note_on_c, 0, 60, 70
10, 85189, Note_on_c, 0, 53, 87
10, 85189, Note_on_c, 0, 55, 74
10, 85350, Note_on_c, 0, 60, 0
10, 85350, Note_on_c, 0, 55, 0
10, 85353, Note_on_c, 0, 53, 0
10, 85378, Note_on_c, 0, 53, 74
10, 85379, Note_on_c, 0, 55, 65
10, 85380, Note_on_c, 0, 60, 65
10, 85401, Note_on_c, 0, 55, 0
10, 85402, Note_on_c, 0, 53, 0
10, 85403, Note_on_c, 0, 60, 0
10, 85437, Note_on_c, 0, 53, 76
10, 85439, Note_on_c, 0, 60, 66
10, 85439, Note_on_c, 0, 55, 67
10, 85600, Note_on_c, 0, 55, 0
10, 85601, Note_on_c, 0, 60, 0
10, 85602, Note_on_c, 0, 53, 0
10, 85621, Note_on_c, 0, 60, 61
10, 85621, Note_on_c, 0, 53, 72
10, 85621, Note_on_c, 0, 55, 63
10, 85647, Note_on_c, 0, 60, 0
10, 85650, Note_on_c, 0, 55, 0
10, 85651, Note_on_c, 0, 53, 0
10, 85675, Note_on_c, 0, 53, 67
10, 85677, Note_on_c, 0, 55, 62
10, 85677, Note_on_c, 0, 60, 68
10, 85729, Note_on_c, 0, 48, 46
10, 85737, Note_on_c, 0, 55, 0
10, 85752, Note_on_c, 0, 53, 0
10, 85768, Note_on_c, 0, 60, 0
10, 85795, Note_on_c, 0, 60, 84
10, 85797, Note_on_c, 0, 55, 68
10, 85798, Note_on_c, 0, 53, 62
10, 85895, Note_on_c, 0, 48, 0
10, 85896, Note_on_c, 0, 60, 0
10, 85898, Note_on_c, 0, 53, 0
10, 85899, Note_on_c, 0, 55, 0
10, 86087, Note_on_c, 0, 52, 50
10, 86110, Note_on_c, 0, 56, 73
10, 86127, Note_on_c, 0, 58, 78
10, 86127, Note_on_c, 0, 64, 69
10, 86151, Note_on_c, 0, 68, 118
10, 86180, Note_on_c, 0, 70, 97
10, 86614, Note_on_c, 0, 56, 0
10, 86614, Note_on_c, 0, 64, 0
10, 86619, Note_on_c, 0, 52, 0
10, 86624, Note_on_c, 0, 58, 0
10, 86624, Note_on_c, 0, 68, 0
10, 86624, Note_on_c, 0, 70, 0
10, 86640, Note_on_c, 0, 76, 113
10, 86641, Note_on_c, 0, 82, 127
10, 86642, Note_on_c, 0, 80, 127
10, 86731, Note_on_c, 0, 80, 0
10, 86732, Note_on_c, 0, 82, 0
10, 86737, Note_on_c, 0, 76, 0
10, 87361, Note_on_c, 0, 70, 127
10, 87363, Note_on_c, 0, 68, 127
10, 87363, Note_on_c, 0, 64, 97
10, 87839, Note_on_c, 0, 70, 0
10, 87839, Note_on_c, 0, 68, 0
10, 87841, Note_on_c, 0, 70, 127
10, 87842, Note_on_c, 0, 68, 127
10, 87844, Note_on_c, 0, 28, 88
10, 87847, Note_on_c, 0, 40, 84
10, 87912, Note_on_c, 0, 80, 127
10, 87960, Note_on_c, 0, 70, 0
10, 87997, Note_on_c, 0, 82, 127
10, 88080, Note_on_c, 0, 92, 127
10, 88080, Note_on_c, 0, 94, 127
10, 88081, Note_on_c, 0, 92, 0
10, 88081, Note_on_c, 0, 94, 0
10, 88082, Note_on_c, 0, 92, 127
10, 88083, Note_on_c, 0, 94, 127
10, 91199, Note_on_c, 0, 64, 0
10, 91199, Note_on_c, 0, 68, 0
10, 91199, Note_on_c, 0, 28, 0
10, 91199, Note_on_c, 0, 40, 0
10, 91199, Note_on_c, 0, 80, 0
10, 91199, Note_on_c, 0, 82, 0
10, 91199, Note_on_c, 0, 92, 0
10, 91199, Note_on_c, 0, 94, 0
10, 91199, End_track
11, 0, Start_track
11, 0, Title_t, "guitar amp I"
11, 0, MIDI_port, 0
11, 49, Control_c, 4, 100, 0
11, 50, Control_c, 4, 101, 0
11, 51, Control_c, 4, 6, 2
11, 52, Control_c, 4, 101, 127
11, 53, Control_c, 4, 100, 127
11, 54, Pitch_bend_c, 4, 8192
11, 55, Program_c, 4, 27
11, 56, Control_c, 4, 7, 127
11, 57, Control_c, 4, 10, 64
11, 58, Control_c, 4, 91, 39
11, 41042, Note_on_c, 4, 57, 127
11, 41365, Note_on_c, 4, 57, 0
11, 41405, Note_on_c, 4, 62, 127
11, 41718, Note_on_c, 4, 62, 0
11, 41753, Note_on_c, 4, 67, 127
11, 42064, Note_on_c, 4, 67, 0
11, 42122, Note_on_c, 4, 72, 127
11, 42440, Note_on_c, 4, 72, 0
11, 42479, Note_on_c, 4, 59, 127
11, 42769, Note_on_c, 4, 59, 0
11, 42838, Note_on_c, 4, 64, 127
11, 43132, Note_on_c, 4, 64, 0
11, 43199, Note_on_c, 4, 69, 127
11, 43482, Note_on_c, 4, 69, 0
11, 43570, Note_on_c, 4, 74, 127
11, 43881, Note_on_c, 4, 74, 0
11, 43924, Note_on_c, 4, 74, 127
11, 43962, Note_on_c, 4, 74, 0
11, 44034, Note_on_c, 4, 69, 116
11, 44073, Note_on_c, 4, 69, 0
11, 44073, Note_on_c, 4, 67, 116
11, 44113, Note_on_c, 4, 66, 116
11, 44114, Note_on_c, 4, 67, 0
11, 44330, Note_on_c, 4, 66, 0
11, 44440, Note_on_c, 4, 69, 112
11, 44482, Note_on_c, 4, 69, 0
11, 44529, Note_on_c, 4, 67, 112
11, 44568, Note_on_c, 4, 66, 101
11, 44569, Note_on_c, 4, 67, 0
11, 44605, Note_on_c, 4, 64, 97
11, 44608, Note_on_c, 4, 66, 0
11, 44643, Note_on_c, 4, 62, 112
11, 44645, Note_on_c, 4, 64, 0
11, 44683, Note_on_c, 4, 62, 0
11, 44688, Note_on_c, 4, 69, 112
11, 44724, Note_on_c, 4, 69, 0
11, 44768, Note_on_c, 4, 67, 112
11, 44799, Note_on_c, 4, 67, 0
11, 44846, Note_on_c, 4, 72, 112
11, 44879, Note_on_c, 4, 72, 0
11, 44923, Note_on_c, 4, 69, 112
11, 44955, Note_on_c, 4, 69, 0
11, 44995, Note_on_c, 4, 72, 109
11, 45036, Note_on_c, 4, 72, 0
11, 45080, Note_on_c, 4, 69, 112
11, 45128, Note_on_c, 4, 69, 0
11, 45137, Note_on_c, 4, 72, 112
11, 45164, Note_on_c, 4, 72, 0
11, 45165, Note_on_c, 4, 69, 112
11, 45199, Note_on_c, 4, 67, 112
11, 45200, Note_on_c, 4, 69, 0
11, 45239, Note_on_c, 4, 67, 0
11, 45240, Note_on_c, 4, 69, 112
11, 45284, Note_on_c, 4, 67, 85
11, 45285, Note_on_c, 4, 69, 0
11, 45304, Note_on_c, 4, 67, 0
11, 45308, Note_on_c, 4, 69, 112
11, 45341, Note_on_c, 4, 69, 0
11, 45414, Note_on_c, 4, 69, 112
11, 45569, Note_on_c, 4, 69, 0
11, 45656, Note_on_c, 4, 74, 85
11, 45732, Note_on_c, 4, 74, 0
11, 45737, Note_on_c, 4, 69, 112
11, 45811, Note_on_c, 4, 67, 112
11, 45813, Note_on_c, 4, 69, 0
11, 45886, Note_on_c, 4, 69, 112
11, 45887, Note_on_c, 4, 67, 0
11, 45962, Note_on_c, 4, 69, 0
11, 45969, Note_on_c, 4, 69, 97
11, 46063, Note_on_c, 4, 69, 0
11, 46075, Note_on_c, 4, 69, 97
11, 46096, Note_on_c, 4, 69, 0
11, 46117, Note_on_c, 4, 69, 97
11, 46136, Note_on_c, 4, 69, 0
11, 46149, Note_on_c, 4, 69, 97
11, 46217, Note_on_c, 4, 69, 0
11, 46241, Note_on_c, 4, 69, 90
11, 46258, Note_on_c, 4, 69, 0
11, 46262, Note_on_c, 4, 69, 97
11, 46297, Note_on_c, 4, 69, 0
11, 46298, Note_on_c, 4, 69, 97
11, 46325, Note_on_c, 4, 69, 0
11, 46326, Note_on_c, 4, 69, 97
11, 46352, Note_on_c, 4, 69, 0
11, 46361, Note_on_c, 4, 69, 97
11, 46398, Note_on_c, 4, 69, 0
11, 46399, Note_on_c, 4, 69, 97
11, 46424, Note_on_c, 4, 69, 0
11, 46442, Note_on_c, 4, 69, 97
11, 46470, Note_on_c, 4, 69, 0
11, 46471, Note_on_c, 4, 69, 97
11, 46497, Note_on_c, 4, 69, 0
11, 46507, Note_on_c, 4, 69, 97
11, 46543, Note_on_c, 4, 69, 0
11, 46545, Note_on_c, 4, 69, 97
11, 46570, Note_on_c, 4, 69, 0
11, 46581, Note_on_c, 4, 69, 97
11, 46615, Note_on_c, 4, 69, 0
11, 46616, Note_on_c, 4, 69, 97
11, 46640, Note_on_c, 4, 69, 0
11, 46649, Note_on_c, 4, 69, 97
11, 46673, Note_on_c, 4, 69, 0
11, 46675, Note_on_c, 4, 69, 97
11, 46697, Note_on_c, 4, 69, 0
11, 46698, Note_on_c, 4, 69, 97
11, 46721, Note_on_c, 4, 74, 97
11, 46723, Note_on_c, 4, 69, 0
11, 46778, Note_on_c, 4, 74, 0
11, 46790, Note_on_c, 4, 69, 97
11, 46857, Note_on_c, 4, 69, 0
11, 46858, Note_on_c, 4, 69, 97
11, 46886, Note_on_c, 4, 69, 0
11, 46887, Note_on_c, 4, 69, 97
11, 46913, Note_on_c, 4, 69, 0
11, 46920, Note_on_c, 4, 69, 97
11, 46951, Note_on_c, 4, 69, 0
11, 46952, Note_on_c, 4, 69, 97
11, 46977, Note_on_c, 4, 69, 0
11, 46981, Note_on_c, 4, 69, 97
11, 47014, Note_on_c, 4, 69, 0
11, 47017, Note_on_c, 4, 69, 97
11, 47047, Note_on_c, 4, 69, 0
11, 47059, Note_on_c, 4, 69, 97
11, 47084, Note_on_c, 4, 69, 0
11, 47092, Note_on_c, 4, 69, 97
11, 47109, Note_on_c, 4, 69, 0
11, 47110, Note_on_c, 4, 69, 97
11, 47114, Note_on_c, 4, 69, 0
11, 47122, Note_on_c, 4, 69, 97
11, 47154, Note_on_c, 4, 69, 0
11, 47163, Note_on_c, 4, 74, 97
11, 47221, Note_on_c, 4, 69, 97
11, 47227, Note_on_c, 4, 74, 0
11, 47292, Note_on_c, 4, 69, 0
11, 47293, Note_on_c, 4, 69, 97
11, 47319, Note_on_c, 4, 69, 0
11, 47329, Note_on_c, 4, 69, 97
11, 47365, Note_on_c, 4, 69, 0
11, 47367, Note_on_c, 4, 69, 97
11, 47392, Note_on_c, 4, 69, 0
11, 47403, Note_on_c, 4, 69, 97
11, 47437, Note_on_c, 4, 69, 0
11, 47438, Note_on_c, 4, 69, 97
11, 47462, Note_on_c, 4, 69, 0
11, 47471, Note_on_c, 4, 69, 97
11, 47495, Note_on_c, 4, 69, 0
11, 47497, Note_on_c, 4, 69, 97
11, 47519, Note_on_c, 4, 69, 0
11, 47520, Note_on_c, 4, 69, 97
11, 47543, Note_on_c, 4, 74, 97
11, 47545, Note_on_c, 4, 69, 0
11, 47587, Note_on_c, 4, 69, 97
11, 47595, Note_on_c, 4, 74, 0
11, 47661, Note_on_c, 4, 69, 0
11, 47662, Note_on_c, 4, 69, 97
11, 47725, Note_on_c, 4, 69, 0
11, 47756, Note_on_c, 4, 69, 97
11, 47789, Note_on_c, 4, 69, 0
11, 47792, Note_on_c, 4, 69, 97
11, 47822, Note_on_c, 4, 69, 0
11, 47834, Note_on_c, 4, 69, 97
11, 47890, Note_on_c, 4, 69, 0
11, 47897, Note_on_c, 4, 69, 97
11, 47929, Note_on_c, 4, 69, 0
11, 47932, Note_on_c, 4, 69, 97
11, 47949, Note_on_c, 4, 69, 0
11, 47957, Note_on_c, 4, 69, 97
11, 47997, Note_on_c, 4, 69, 0
11, 48001, Note_on_c, 4, 69, 97
11, 48014, Note_on_c, 4, 69, 0
11, 48024, Note_on_c, 4, 69, 97
11, 48045, Note_on_c, 4, 69, 0
11, 48115, Note_on_c, 4, 69, 97
11, 48183, Note_on_c, 4, 69, 0
11, 48362, Note_on_c, 4, 71, 112
11, 48444, Pitch_bend_c, 4, 8073
11, 48445, Pitch_bend_c, 4, 7954
11, 48446, Pitch_bend_c, 4, 7476
11, 48447, Pitch_bend_c, 4, 7237
11, 48448, Pitch_bend_c, 4, 6998
11, 48449, Pitch_bend_c, 4, 6657
11, 48451, Pitch_bend_c, 4, 6315
11, 48453, Pitch_bend_c, 4, 6045
11, 48454, Pitch_bend_c, 4, 5309
11, 48455, Pitch_bend_c, 4, 5189
11, 48456, Pitch_bend_c, 4, 4950
11, 48458, Pitch_bend_c, 4, 4780
11, 48459, Pitch_bend_c, 4, 4267
11, 48461, Pitch_bend_c, 4, 4096
11, 48463, Pitch_bend_c, 4, 3858
11, 48465, Pitch_bend_c, 4, 3619
11, 48466, Pitch_bend_c, 4, 3499
11, 48468, Pitch_bend_c, 4, 3400
11, 48469, Pitch_bend_c, 4, 3300
11, 48471, Pitch_bend_c, 4, 3201
11, 48472, Pitch_bend_c, 4, 3002
11, 48474, Pitch_bend_c, 4, 2732
11, 48476, Pitch_bend_c, 4, 2561
11, 48477, Pitch_bend_c, 4, 2390
11, 48479, Pitch_bend_c, 4, 2219
11, 48480, Pitch_bend_c, 4, 1810
11, 48482, Pitch_bend_c, 4, 1690
11, 48483, Pitch_bend_c, 4, 1571
11, 48485, Pitch_bend_c, 4, 1451
11, 48487, Pitch_bend_c, 4, 1213
11, 48489, Pitch_bend_c, 4, 1093
11, 48490, Pitch_bend_c, 4, 974
11, 48492, Pitch_bend_c, 4, 570
11, 48494, Pitch_bend_c, 4, 427
11, 48496, Pitch_bend_c, 4, 285
11, 48498, Pitch_bend_c, 4, 143
11, 48500, Pitch_bend_c, 4, 0
11, 48772, Note_on_c, 4, 71, 0
11, 48831, Pitch_bend_c, 4, 8192
11, 48906, Note_on_c, 4, 64, 69
11, 48929, Note_on_c, 4, 64, 0
11, 48967, Note_on_c, 4, 66, 90
11, 48986, Note_on_c, 4, 66, 0
11, 49030, Note_on_c, 4, 66, 82
11, 49043, Note_on_c, 4, 69, 54
11, 49052, Note_on_c, 4, 66, 0
11, 49078, Note_on_c, 4, 66, 80
11, 49083, Note_on_c, 4, 69, 0
11, 49103, Note_on_c, 4, 65, 94
11, 49104, Note_on_c, 4, 66, 0
11, 49174, Note_on_c, 4, 65, 0
11, 49210, Note_on_c, 4, 66, 90
11, 49258, Note_on_c, 4, 64, 64
11, 49263, Note_on_c, 4, 66, 0
11, 49310, Note_on_c, 4, 62, 97
11, 49316, Note_on_c, 4, 64, 0
11, 49355, Note_on_c, 4, 62, 0
11, 49439, Note_on_c, 4, 64, 127
11, 49457, Pitch_bend_c, 4, 8328
11, 49458, Pitch_bend_c, 4, 9284
11, 49459, Pitch_bend_c, 4, 9967
11, 49460, Pitch_bend_c, 4, 10695
11, 49461, Pitch_bend_c, 4, 11196
11, 49462, Pitch_bend_c, 4, 11878
11, 49463, Pitch_bend_c, 4, 12424
11, 49464, Pitch_bend_c, 4, 12971
11, 49465, Pitch_bend_c, 4, 13426
11, 49466, Pitch_bend_c, 4, 13790
11, 49467, Pitch_bend_c, 4, 14336
11, 49469, Pitch_bend_c, 4, 15019
11, 49470, Pitch_bend_c, 4, 15428
11, 49471, Pitch_bend_c, 4, 15702
11, 49472, Pitch_bend_c, 4, 15929
11, 49473, Pitch_bend_c, 4, 16042
11, 49474, Pitch_bend_c, 4, 16269
11, 49475, Pitch_bend_c, 4, 16383
11, 49488, Pitch_bend_c, 4, 16269
11, 49489, Pitch_bend_c, 4, 16042
11, 49490, Pitch_bend_c, 4, 15929
11, 49491, Pitch_bend_c, 4, 15565
11, 49492, Pitch_bend_c, 4, 15428
11, 49493, Pitch_bend_c, 4, 15019
11, 49494, Pitch_bend_c, 4, 14745
11, 49495, Pitch_bend_c, 4, 14336
11, 49497, Pitch_bend_c, 4, 13790
11, 49498, Pitch_bend_c, 4, 13426
11, 49499, Pitch_bend_c, 4, 13084
11, 49499, Pitch_bend_c, 4, 12697
11, 49500, Pitch_bend_c, 4, 12697
11, 49501, Pitch_bend_c, 4, 12015
11, 49503, Pitch_bend_c, 4, 11469
11, 49504, Pitch_bend_c, 4, 10923
11, 49506, Pitch_bend_c, 4, 10581
11, 49507, Pitch_bend_c, 4, 9558
11, 49509, Pitch_bend_c, 4, 8465
11, 49510, Pitch_bend_c, 4, 8192
11, 49530, Note_on_c, 4, 62, 59
11, 49549, Note_on_c, 4, 64, 0
11, 49561, Note_on_c, 4, 59, 100
11, 49572, Note_on_c, 4, 62, 0
11, 49651, Note_on_c, 4, 57, 85
11, 49659, Note_on_c, 4, 59, 0
11, 49679, Note_on_c, 4, 57, 0
11, 49680, Note_on_c, 4, 57, 103
11, 49795, Pitch_bend_c, 4, 8465
11, 49795, Pitch_bend_c, 4, 8465
11, 49796, Pitch_bend_c, 4, 9284
11, 49796, Pitch_bend_c, 4, 9284
11, 49797, Pitch_bend_c, 4, 10695
11, 49797, Pitch_bend_c, 4, 10695
11, 49798, Pitch_bend_c, 4, 11332
11, 49799, Pitch_bend_c, 4, 12151
11, 49799, Pitch_bend_c, 4, 11332
11, 49800, Pitch_bend_c, 4, 12151
11, 49801, Pitch_bend_c, 4, 13790
11, 49801, Pitch_bend_c, 4, 13084
11, 49801, Pitch_bend_c, 4, 13084
11, 49802, Pitch_bend_c, 4, 13790
11, 49803, Pitch_bend_c, 4, 15019
11, 49803, Pitch_bend_c, 4, 15019
11, 49804, Pitch_bend_c, 4, 15929
11, 49804, Pitch_bend_c, 4, 15929
11, 49805, Pitch_bend_c, 4, 16383
11, 49981, Note_on_c, 4, 57, 0
11, 50007, Pitch_bend_c, 4, 8192
11, 50089, Note_on_c, 4, 71, 113
11, 50138, Pitch_bend_c, 4, 8073
11, 50139, Pitch_bend_c, 4, 7715
11, 50140, Pitch_bend_c, 4, 6998
11, 50141, Pitch_bend_c, 4, 6315
11, 50142, Pitch_bend_c, 4, 6045
11, 50143, Pitch_bend_c, 4, 4950
11, 50144, Pitch_bend_c, 4, 4609
11, 50145, Pitch_bend_c, 4, 3858
11, 50146, Pitch_bend_c, 4, 3400
11, 50147, Pitch_bend_c, 4, 3201
11, 50148, Pitch_bend_c, 4, 3002
11, 50149, Pitch_bend_c, 4, 2561
11, 50150, Pitch_bend_c, 4, 2219
11, 50151, Pitch_bend_c, 4, 1810
11, 50152, Pitch_bend_c, 4, 1451
11, 50153, Pitch_bend_c, 4, 1093
11, 50154, Pitch_bend_c, 4, 974
11, 50155, Pitch_bend_c, 4, 570
11, 50156, Pitch_bend_c, 4, 285
11, 50158, Pitch_bend_c, 4, 0
11, 50214, Pitch_bend_c, 4, 285
11, 50215, Pitch_bend_c, 4, 427
11, 50216, Pitch_bend_c, 4, 974
11, 50218, Pitch_bend_c, 4, 1093
11, 50219, Pitch_bend_c, 4, 1571
11, 50220, Pitch_bend_c, 4, 1690
11, 50221, Pitch_bend_c, 4, 1929
11, 50222, Pitch_bend_c, 4, 2390
11, 50223, Pitch_bend_c, 4, 2561
11, 50224, Pitch_bend_c, 4, 2561
11, 50225, Pitch_bend_c, 4, 3002
11, 50225, Pitch_bend_c, 4, 3101
11, 50226, Pitch_bend_c, 4, 3201
11, 50227, Pitch_bend_c, 4, 3400
11, 50229, Pitch_bend_c, 4, 3499
11, 50229, Pitch_bend_c, 4, 3738
11, 50230, Pitch_bend_c, 4, 3858
11, 50230, Pitch_bend_c, 4, 3738
11, 50231, Pitch_bend_c, 4, 4096
11, 50231, Pitch_bend_c, 4, 3858
11, 50232, Pitch_bend_c, 4, 4609
11, 50232, Pitch_bend_c, 4, 4096
11, 50233, Pitch_bend_c, 4, 4609
11, 50234, Pitch_bend_c, 4, 4780
11, 50235, Pitch_bend_c, 4, 5189
11, 50236, Pitch_bend_c, 4, 6144
11, 50236, Pitch_bend_c, 4, 5309
11, 50237, Pitch_bend_c, 4, 6315
11, 50237, Pitch_bend_c, 4, 6144
11, 50238, Pitch_bend_c, 4, 6315
11, 50238, Pitch_bend_c, 4, 6657
11, 50240, Pitch_bend_c, 4, 6998
11, 50241, Pitch_bend_c, 4, 7476
11, 50242, Pitch_bend_c, 4, 7954
11, 50243, Pitch_bend_c, 4, 8192
11, 50277, Note_on_c, 4, 71, 0
11, 50340, Note_on_c, 4, 71, 122
11, 50385, Pitch_bend_c, 4, 8073
11, 50387, Pitch_bend_c, 4, 7715
11, 50388, Pitch_bend_c, 4, 7476
11, 50389, Pitch_bend_c, 4, 7237
11, 50390, Pitch_bend_c, 4, 6998
11, 50391, Pitch_bend_c, 4, 6486
11, 50393, Pitch_bend_c, 4, 6144
11, 50394, Pitch_bend_c, 4, 6045
11, 50395, Pitch_bend_c, 4, 5309
11, 50396, Pitch_bend_c, 4, 4950
11, 50397, Pitch_bend_c, 4, 4780
11, 50398, Pitch_bend_c, 4, 4609
11, 50399, Pitch_bend_c, 4, 4267
11, 50401, Pitch_bend_c, 4, 3858
11, 50402, Pitch_bend_c, 4, 3738
11, 50403, Pitch_bend_c, 4, 3619
11, 50404, Pitch_bend_c, 4, 3400
11, 50406, Pitch_bend_c, 4, 3300
11, 50407, Pitch_bend_c, 4, 3101
11, 50408, Pitch_bend_c, 4, 3002
11, 50409, Pitch_bend_c, 4, 2732
11, 50410, Pitch_bend_c, 4, 2561
11, 50411, Pitch_bend_c, 4, 2390
11, 50412, Pitch_bend_c, 4, 1929
11, 50413, Pitch_bend_c, 4, 1810
11, 50414, Pitch_bend_c, 4, 1690
11, 50415, Pitch_bend_c, 4, 1571
11, 50416, Pitch_bend_c, 4, 1451
11, 50417, Pitch_bend_c, 4, 1213
11, 50418, Pitch_bend_c, 4, 1093
11, 50419, Pitch_bend_c, 4, 974
11, 50420, Pitch_bend_c, 4, 712
11, 50421, Pitch_bend_c, 4, 427
11, 50423, Pitch_bend_c, 4, 285
11, 50424, Pitch_bend_c, 4, 143
11, 50425, Pitch_bend_c, 4, 0
11, 50733, Note_on_c, 4, 71, 0
11, 50779, Pitch_bend_c, 4, 8192
11, 50780, Control_c, 4, 101, 0
11, 50781, Control_c, 4, 100, 0
11, 50782, Control_c, 4, 6, 3
11, 50783, Control_c, 4, 101, 127
11, 50784, Control_c, 4, 100, 127
11, 50833, Note_on_c, 4, 69, 97
11, 50882, Note_on_c, 4, 69, 0
11, 50916, Note_on_c, 4, 71, 97
11, 50953, Note_on_c, 4, 71, 0
11, 51000, Note_on_c, 4, 73, 127
11, 51080, Pitch_bend_c, 4, 8328
11, 51080, Pitch_bend_c, 4, 9011
11, 51081, Pitch_bend_c, 4, 9830
11, 51082, Pitch_bend_c, 4, 10581
11, 51083, Pitch_bend_c, 4, 10923
11, 51084, Pitch_bend_c, 4, 11332
11, 51086, Pitch_bend_c, 4, 12151
11, 51087, Pitch_bend_c, 4, 12971
11, 51088, Pitch_bend_c, 4, 13540
11, 51088, Pitch_bend_c, 4, 14336
11, 51089, Pitch_bend_c, 4, 15019
11, 51091, Pitch_bend_c, 4, 15929
11, 51092, Pitch_bend_c, 4, 16383
11, 51145, Pitch_bend_c, 4, 16269
11, 51146, Pitch_bend_c, 4, 15929
11, 51147, Pitch_bend_c, 4, 15428
11, 51147, Pitch_bend_c, 4, 15019
11, 51148, Pitch_bend_c, 4, 14472
11, 51150, Pitch_bend_c, 4, 13926
11, 51151, Pitch_bend_c, 4, 13426
11, 51152, Pitch_bend_c, 4, 12697
11, 51153, Pitch_bend_c, 4, 12424
11, 51154, Pitch_bend_c, 4, 11878
11, 51155, Pitch_bend_c, 4, 11332
11, 51156, Pitch_bend_c, 4, 10695
11, 51157, Pitch_bend_c, 4, 10240
11, 51158, Pitch_bend_c, 4, 9558
11, 51159, Pitch_bend_c, 4, 8738
11, 51160, Pitch_bend_c, 4, 8192
11, 51742, Note_on_c, 4, 73, 0
11, 52079, Note_on_c, 4, 66, 103
11, 52080, Control_c, 4, 100, 0
11, 52081, Control_c, 4, 101, 0
11, 52082, Control_c, 4, 6, 2
11, 52083, Control_c, 4, 101, 127
11, 52084, Control_c, 4, 100, 127
11, 52131, Note_on_c, 4, 62, 65
11, 52148, Note_on_c, 4, 66, 0
11, 52193, Note_on_c, 4, 62, 0
11, 52197, Note_on_c, 4, 57, 41
11, 52215, Note_on_c, 4, 57, 0
11, 52250, Note_on_c, 4, 57, 82
11, 52374, Note_on_c, 4, 57, 0
11, 52379, Note_on_c, 4, 59, 61
11, 52672, Note_on_c, 4, 57, 103
11, 52686, Note_on_c, 4, 59, 0
11, 52862, Note_on_c, 4, 61, 106
11, 52865, Note_on_c, 4, 57, 0
11, 52964, Note_on_c, 4, 57, 65
11, 52976, Note_on_c, 4, 61, 0
11, 52991, Note_on_c, 4, 57, 0
11, 53040, Note_on_c, 4, 61, 74
11, 53060, Note_on_c, 4, 57, 65
11, 53075, Note_on_c, 4, 61, 0
11, 53080, Note_on_c, 4, 54, 61
11, 53093, Note_on_c, 4, 57, 0
11, 53130, Note_on_c, 4, 54, 0
11, 53163, Note_on_c, 4, 52, 100
11, 53281, Note_on_c, 4, 52, 0
11, 53284, Note_on_c, 4, 54, 103
11, 53400, Note_on_c, 4, 52, 77
11, 53415, Note_on_c, 4, 54, 0
11, 53484, Note_on_c, 4, 52, 0
11, 53494, Note_on_c, 4, 54, 76
11, 53524, Note_on_c, 4, 50, 97
11, 53541, Note_on_c, 4, 54, 0
11, 53633, Note_on_c, 4, 50, 0
11, 53641, Note_on_c, 4, 47, 122
11, 53927, Note_on_c, 4, 47, 0
11, 53977, Pitch_bend_c, 4, 0
11, 53999, Note_on_c, 4, 42, 80
11, 54024, Pitch_bend_c, 4, 143
11, 54025, Pitch_bend_c, 4, 1213
11, 54026, Pitch_bend_c, 4, 1929
11, 54027, Pitch_bend_c, 4, 3858
11, 54027, Pitch_bend_c, 4, 3101
11, 54028, Pitch_bend_c, 4, 4950
11, 54029, Pitch_bend_c, 4, 6486
11, 54030, Pitch_bend_c, 4, 7476
11, 54031, Pitch_bend_c, 4, 8192
11, 54062, Note_on_c, 4, 45, 97
11, 54068, Note_on_c, 4, 42, 0
11, 54119, Note_on_c, 4, 45, 0
11, 54120, Note_on_c, 4, 47, 73
11, 54180, Note_on_c, 4, 52, 66
11, 54182, Note_on_c, 4, 47, 0
11, 54241, Note_on_c, 4, 54, 127
11, 54245, Note_on_c, 4, 52, 0
11, 54344, Note_on_c, 4, 54, 0
11, 54364, Note_on_c, 4, 54, 103
11, 54435, Note_on_c, 4, 54, 0
11, 54447, Note_on_c, 4, 54, 65
11, 54463, Note_on_c, 4, 54, 0
11, 54483, Note_on_c, 4, 57, 90
11, 54507, Pitch_bend_c, 4, 16383
11, 54539, Pitch_bend_c, 4, 8192
11, 54586, Note_on_c, 4, 57, 0
11, 54599, Note_on_c, 4, 52, 113
11, 54682, Note_on_c, 4, 52, 0
11, 54693, Note_on_c, 4, 52, 90
11, 54709, Note_on_c, 4, 52, 0
11, 54720, Note_on_c, 4, 52, 84
11, 54778, Note_on_c, 4, 54, 84
11, 54781, Note_on_c, 4, 52, 0
11, 54792, Note_on_c, 4, 54, 0
11, 54839, Note_on_c, 4, 54, 106
11, 54917, Note_on_c, 4, 54, 0
11, 54939, Pitch_bend_c, 4, 0
11, 54954, Note_on_c, 4, 42, 110
11, 54981, Pitch_bend_c, 4, 570
11, 54982, Pitch_bend_c, 4, 1690
11, 54983, Pitch_bend_c, 4, 2732
11, 54983, Pitch_bend_c, 4, 3619
11, 54985, Pitch_bend_c, 4, 5309
11, 54986, Pitch_bend_c, 4, 8192
11, 55021, Note_on_c, 4, 45, 94
11, 55026, Note_on_c, 4, 42, 0
11, 55072, Note_on_c, 4, 47, 94
11, 55080, Note_on_c, 4, 45, 0
11, 55135, Note_on_c, 4, 47, 0
11, 55147, Note_on_c, 4, 50, 48
11, 55205, Note_on_c, 4, 52, 106
11, 55208, Note_on_c, 4, 50, 0
11, 55317, Note_on_c, 4, 52, 0
11, 55322, Note_on_c, 4, 54, 80
11, 55420, Note_on_c, 4, 54, 0
11, 55442, Note_on_c, 4, 54, 94
11, 55456, Note_on_c, 4, 54, 0
11, 55461, Note_on_c, 4, 57, 63
11, 55482, Note_on_c, 4, 54, 56
11, 55485, Note_on_c, 4, 57, 0
11, 55508, Note_on_c, 4, 54, 0
11, 55563, Note_on_c, 4, 52, 106
11, 55661, Note_on_c, 4, 54, 77
11, 55662, Note_on_c, 4, 52, 0
11, 55677, Note_on_c, 4, 54, 0
11, 55689, Note_on_c, 4, 54, 90
11, 55781, Note_on_c, 4, 54, 0
11, 55800, Note_on_c, 4, 54, 127
11, 55906, Note_on_c, 4, 54, 0
11, 66480, Note_on_c, 4, 57, 127
11, 66480, Note_on_c, 4, 50, 127
11, 66599, Note_on_c, 4, 57, 0
11, 66599, Note_on_c, 4, 50, 0
11, 66600, Note_on_c, 4, 50, 127
11, 66600, Note_on_c, 4, 57, 127
11, 66719, Note_on_c, 4, 50, 0
11, 66720, Note_on_c, 4, 60, 127
11, 66720, Note_on_c, 4, 50, 127
11, 66722, Note_on_c, 4, 57, 0
11, 66750, Note_on_c, 4, 59, 113
11, 66764, Note_on_c, 4, 60, 0
11, 66780, Note_on_c, 4, 57, 106
11, 66799, Note_on_c, 4, 59, 0
11, 66839, Note_on_c, 4, 50, 0
11, 66839, Note_on_c, 4, 57, 0
11, 66840, Note_on_c, 4, 57, 127
11, 66840, Note_on_c, 4, 50, 127
11, 66959, Note_on_c, 4, 57, 0
11, 66959, Note_on_c, 4, 50, 0
11, 66960, Note_on_c, 4, 50, 127
11, 66960, Note_on_c, 4, 57, 127
11, 66991, Note_on_c, 4, 57, 0
11, 66992, Note_on_c, 4, 57, 103
11, 67021, Note_on_c, 4, 55, 127
11, 67043, Note_on_c, 4, 57, 0
11, 67079, Note_on_c, 4, 50, 0
11, 67080, Note_on_c, 4, 55, 0
11, 67080, Note_on_c, 4, 50, 127
11, 67080, Note_on_c, 4, 57, 127
11, 67170, Note_on_c, 4, 55, 127
11, 67171, Note_on_c, 4, 57, 0
11, 67199, Note_on_c, 4, 50, 0
11, 67200, Note_on_c, 4, 55, 0
11, 67200, Note_on_c, 4, 57, 127
11, 67200, Note_on_c, 4, 50, 127
11, 67317, Note_on_c, 4, 50, 0
11, 67319, Note_on_c, 4, 57, 0
11, 67320, Note_on_c, 4, 50, 127
11, 67320, Note_on_c, 4, 57, 127
11, 67440, Note_on_c, 4, 50, 0
11, 67447, Note_on_c, 4, 57, 0
11, 68340, Note_on_c, 4, 74, 75
11, 68370, Note_on_c, 4, 79, 110
11, 68399, Note_on_c, 4, 74, 0
11, 68400, Note_on_c, 4, 74, 72
11, 68429, Note_on_c, 4, 79, 0
11, 68459, Note_on_c, 4, 74, 0
11, 68460, Note_on_c, 4, 74, 82
11, 68490, Note_on_c, 4, 79, 122
11, 68519, Note_on_c, 4, 74, 0
11, 68519, Note_on_c, 4, 79, 0
11, 68520, Note_on_c, 4, 74, 97
11, 68579, Note_on_c, 4, 74, 0
11, 68580, Note_on_c, 4, 74, 92
11, 68610, Note_on_c, 4, 79, 90
11, 68639, Note_on_c, 4, 74, 0
11, 68639, Note_on_c, 4, 79, 0
11, 68640, Note_on_c, 4, 74, 94
11, 68699, Note_on_c, 4, 74, 0
11, 68700, Note_on_c, 4, 74, 74
11, 68730, Note_on_c, 4, 79, 87
11, 68757, Note_on_c, 4, 74, 0
11, 68760, Note_on_c, 4, 74, 80
11, 68789, Note_on_c, 4, 79, 0
11, 68819, Note_on_c, 4, 74, 0
11, 68820, Note_on_c, 4, 74, 85
11, 68850, Note_on_c, 4, 79, 84
11, 68875, Note_on_c, 4, 74, 0
11, 68880, Note_on_c, 4, 74, 82
11, 68909, Note_on_c, 4, 74, 0
11, 68910, Note_on_c, 4, 74, 87
11, 68939, Note_on_c, 4, 79, 0
11, 68939, Note_on_c, 4, 74, 0
11, 68940, Note_on_c, 4, 74, 90
11, 68970, Note_on_c, 4, 79, 110
11, 68999, Note_on_c, 4, 74, 0
11, 69000, Note_on_c, 4, 74, 100
11, 69057, Note_on_c, 4, 74, 0
11, 69059, Note_on_c, 4, 79, 0
11, 69060, Note_on_c, 4, 74, 100
11, 69090, Note_on_c, 4, 79, 106
11, 69117, Note_on_c, 4, 74, 0
11, 69120, Note_on_c, 4, 74, 80
11, 69149, Note_on_c, 4, 74, 0
11, 69150, Note_on_c, 4, 74, 100
11, 69179, Note_on_c, 4, 74, 0
11, 69180, Note_on_c, 4, 74, 113
11, 69209, Note_on_c, 4, 79, 0
11, 69209, Note_on_c, 4, 74, 0
11, 69210, Note_on_c, 4, 74, 127
11, 69299, Note_on_c, 4, 74, 0
11, 69360, Control_c, 4, 101, 0
11, 69362, Control_c, 4, 100, 0
11, 69364, Control_c, 4, 6, 12
11, 69366, Control_c, 4, 101, 127
11, 69368, Control_c, 4, 100, 127
11, 70320, Note_on_c, 4, 72, 127
11, 70395, Note_on_c, 4, 72, 0
11, 70400, Note_on_c, 4, 67, 113
11, 70475, Note_on_c, 4, 67, 0
11, 70480, Note_on_c, 4, 62, 118
11, 70543, Note_on_c, 4, 62, 0
11, 70560, Note_on_c, 4, 57, 113
11, 70624, Note_on_c, 4, 57, 0
11, 70640, Note_on_c, 4, 55, 122
11, 70701, Note_on_c, 4, 55, 0
11, 70720, Note_on_c, 4, 57, 118
11, 70760, Note_on_c, 4, 57, 0
11, 70802, Note_on_c, 4, 53, 127
11, 70907, Note_on_c, 4, 53, 0
11, 70919, Note_on_c, 4, 48, 127
11, 71278, Note_on_c, 4, 48, 0
11, 71290, Note_on_c, 4, 50, 127
11, 71400, Pitch_bend_c, 4, 8073
11, 71406, Pitch_bend_c, 4, 8018
11, 71408, Control_c, 4, 11, 127
11, 71421, Pitch_bend_c, 4, 7416
11, 71423, Control_c, 4, 11, 124
11, 71436, Pitch_bend_c, 4, 6812
11, 71439, Control_c, 4, 11, 120
11, 71452, Pitch_bend_c, 4, 6209
11, 71454, Control_c, 4, 11, 117
11, 71467, Pitch_bend_c, 4, 5605
11, 71469, Control_c, 4, 11, 113
11, 71482, Pitch_bend_c, 4, 5002
11, 71485, Control_c, 4, 11, 110
11, 71497, Pitch_bend_c, 4, 4398
11, 71500, Control_c, 4, 11, 107
11, 71513, Pitch_bend_c, 4, 3795
11, 71515, Control_c, 4, 11, 103
11, 71528, Pitch_bend_c, 4, 3191
11, 71530, Control_c, 4, 11, 100
11, 71543, Pitch_bend_c, 4, 2588
11, 71546, Control_c, 4, 11, 96
11, 71558, Pitch_bend_c, 4, 1984
11, 71561, Control_c, 4, 11, 93
11, 71574, Pitch_bend_c, 4, 1381
11, 71576, Control_c, 4, 11, 90
11, 71589, Pitch_bend_c, 4, 777
11, 71592, Control_c, 4, 11, 86
11, 71593, Note_on_c, 4, 50, 0
11, 71607, Control_c, 4, 11, 83
11, 71622, Control_c, 4, 11, 80
11, 71638, Control_c, 4, 11, 76
11, 71653, Control_c, 4, 11, 73
11, 71668, Control_c, 4, 11, 69
11, 71683, Control_c, 4, 11, 66
11, 71699, Control_c, 4, 11, 63
11, 71714, Control_c, 4, 11, 59
11, 71729, Control_c, 4, 11, 56
11, 71745, Control_c, 4, 11, 52
11, 71760, Control_c, 4, 101, 0
11, 71762, Control_c, 4, 100, 0
11, 71764, Control_c, 4, 6, 2
11, 71766, Control_c, 4, 101, 127
11, 71768, Control_c, 4, 100, 127
11, 71770, Control_c, 4, 11, 127
11, 71772, Pitch_bend_c, 4, 8192
11, 90600, Control_c, 4, 121, 0
11, 90600, End_track
12, 0, Start_track
12, 0, Title_t, "guitar amp II"
12, 0, MIDI_port, 0
12, 59, Control_c, 11, 100, 0
12, 60, Control_c, 11, 101, 0
12, 61, Control_c, 11, 6, 2
12, 62, Control_c, 11, 101, 127
12, 63, Control_c, 11, 100, 127
12, 64, Pitch_bend_c, 11, 8192
12, 65, Program_c, 11, 26
12, 66, Control_c, 11, 7, 90
12, 67, Control_c, 11, 10, 64
12, 68, Control_c, 11, 91, 39
12, 41042, Note_on_c, 11, 57, 127
12, 41365, Note_on_c, 11, 57, 0
12, 41405, Note_on_c, 11, 62, 127
12, 41718, Note_on_c, 11, 62, 0
12, 41753, Note_on_c, 11, 67, 127
12, 42064, Note_on_c, 11, 67, 0
12, 42122, Note_on_c, 11, 72, 127
12, 42440, Note_on_c, 11, 72, 0
12, 42479, Note_on_c, 11, 59, 127
12, 42769, Note_on_c, 11, 59, 0
12, 42838, Note_on_c, 11, 64, 127
12, 43132, Note_on_c, 11, 64, 0
12, 43199, Note_on_c, 11, 69, 127
12, 43482, Note_on_c, 11, 69, 0
12, 43570, Note_on_c, 11, 74, 127
12, 43881, Note_on_c, 11, 74, 0
12, 43924, Note_on_c, 11, 74, 127
12, 43962, Note_on_c, 11, 74, 0
12, 44034, Note_on_c, 11, 69, 116
12, 44073, Note_on_c, 11, 69, 0
12, 44073, Note_on_c, 11, 67, 116
12, 44113, Note_on_c, 11, 66, 116
12, 44114, Note_on_c, 11, 67, 0
12, 44330, Note_on_c, 11, 66, 0
12, 44440, Note_on_c, 11, 69, 112
12, 44482, Note_on_c, 11, 69, 0
12, 44529, Note_on_c, 11, 67, 112
12, 44568, Note_on_c, 11, 66, 101
12, 44569, Note_on_c, 11, 67, 0
12, 44605, Note_on_c, 11, 64, 97
12, 44608, Note_on_c, 11, 66, 0
12, 44643, Note_on_c, 11, 62, 112
12, 44645, Note_on_c, 11, 64, 0
12, 44683, Note_on_c, 11, 62, 0
12, 44688, Note_on_c, 11, 69, 112
12, 44724, Note_on_c, 11, 69, 0
12, 44768, Note_on_c, 11, 67, 112
12, 44799, Note_on_c, 11, 67, 0
12, 44846, Note_on_c, 11, 72, 112
12, 44879, Note_on_c, 11, 72, 0
12, 44923, Note_on_c, 11, 69, 112
12, 44955, Note_on_c, 11, 69, 0
12, 44995, Note_on_c, 11, 72, 109
12, 45036, Note_on_c, 11, 72, 0
12, 45080, Note_on_c, 11, 69, 112
12, 45128, Note_on_c, 11, 69, 0
12, 45137, Note_on_c, 11, 72, 112
12, 45164, Note_on_c, 11, 72, 0
12, 45165, Note_on_c, 11, 69, 112
12, 45199, Note_on_c, 11, 67, 112
12, 45200, Note_on_c, 11, 69, 0
12, 45239, Note_on_c, 11, 67, 0
12, 45240, Note_on_c, 11, 69, 112
12, 45284, Note_on_c, 11, 67, 85
12, 45285, Note_on_c, 11, 69, 0
12, 45304, Note_on_c, 11, 67, 0
12, 45308, Note_on_c, 11, 69, 112
12, 45341, Note_on_c, 11, 69, 0
12, 45414, Note_on_c, 11, 69, 112
12, 45569, Note_on_c, 11, 69, 0
12, 45656, Note_on_c, 11, 74, 85
12, 45732, Note_on_c, 11, 74, 0
12, 45737, Note_on_c, 11, 69, 112
12, 45811, Note_on_c, 11, 67, 112
12, 45813, Note_on_c, 11, 69, 0
12, 45886, Note_on_c, 11, 69, 112
12, 45887, Note_on_c, 11, 67, 0
12, 45962, Note_on_c, 11, 69, 0
12, 45969, Note_on_c, 11, 69, 97
12, 46063, Note_on_c, 11, 69, 0
12, 46075, Note_on_c, 11, 69, 97
12, 46096, Note_on_c, 11, 69, 0
12, 46117, Note_on_c, 11, 69, 97
12, 46136, Note_on_c, 11, 69, 0
12, 46149, Note_on_c, 11, 69, 97
12, 46217, Note_on_c, 11, 69, 0
12, 46241, Note_on_c, 11, 69, 90
12, 46258, Note_on_c, 11, 69, 0
12, 46262, Note_on_c, 11, 69, 97
12, 46297, Note_on_c, 11, 69, 0
12, 46298, Note_on_c, 11, 69, 97
12, 46325, Note_on_c, 11, 69, 0
12, 46326, Note_on_c, 11, 69, 97
12, 46352, Note_on_c, 11, 69, 0
12, 46361, Note_on_c, 11, 69, 97
12, 46398, Note_on_c, 11, 69, 0
12, 46399, Note_on_c, 11, 69, 97
12, 46424, Note_on_c, 11, 69, 0
12, 46442, Note_on_c, 11, 69, 97
12, 46470, Note_on_c, 11, 69, 0
12, 46471, Note_on_c, 11, 69, 97
12, 46497, Note_on_c, 11, 69, 0
12, 46507, Note_on_c, 11, 69, 97
12, 46543, Note_on_c, 11, 69, 0
12, 46545, Note_on_c, 11, 69, 97
12, 46570, Note_on_c, 11, 69, 0
12, 46581, Note_on_c, 11, 69, 97
12, 46615, Note_on_c, 11, 69, 0
12, 46616, Note_on_c, 11, 69, 97
12, 46640, Note_on_c, 11, 69, 0
12, 46649, Note_on_c, 11, 69, 97
12, 46673, Note_on_c, 11, 69, 0
12, 46675, Note_on_c, 11, 69, 97
12, 46697, Note_on_c, 11, 69, 0
12, 46698, Note_on_c, 11, 69, 97
12, 46721, Note_on_c, 11, 74, 97
12, 46723, Note_on_c, 11, 69, 0
12, 46778, Note_on_c, 11, 74, 0
12, 46790, Note_on_c, 11, 69, 97
12, 46857, Note_on_c, 11, 69, 0
12, 46858, Note_on_c, 11, 69, 97
12, 46886, Note_on_c, 11, 69, 0
12, 46887, Note_on_c, 11, 69, 97
12, 46913, Note_on_c, 11, 69, 0
12, 46920, Note_on_c, 11, 69, 97
12, 46951, Note_on_c, 11, 69, 0
12, 46952, Note_on_c, 11, 69, 97
12, 46977, Note_on_c, 11, 69, 0
12, 46981, Note_on_c, 11, 69, 97
12, 47014, Note_on_c, 11, 69, 0
12, 47017, Note_on_c, 11, 69, 97
12, 47047, Note_on_c, 11, 69, 0
12, 47059, Note_on_c, 11, 69, 97
12, 47084, Note_on_c, 11, 69, 0
12, 47092, Note_on_c, 11, 69, 97
12, 47109, Note_on_c, 11, 69, 0
12, 47110, Note_on_c, 11, 69, 97
12, 47114, Note_on_c, 11, 69, 0
12, 47122, Note_on_c, 11, 69, 97
12, 47154, Note_on_c, 11, 69, 0
12, 47163, Note_on_c, 11, 74, 97
12, 47221, Note_on_c, 11, 69, 97
12, 47227, Note_on_c, 11, 74, 0
12, 47292, Note_on_c, 11, 69, 0
12, 47293, Note_on_c, 11, 69, 97
12, 47319, Note_on_c, 11, 69, 0
12, 47329, Note_on_c, 11, 69, 97
12, 47365, Note_on_c, 11, 69, 0
12, 47367, Note_on_c, 11, 69, 97
12, 47392, Note_on_c, 11, 69, 0
12, 47403, Note_on_c, 11, 69, 97
12, 47437, Note_on_c, 11, 69, 0
12, 47438, Note_on_c, 11, 69, 97
12, 47462, Note_on_c, 11, 69, 0
12, 47471, Note_on_c, 11, 69, 97
12, 47495, Note_on_c, 11, 69, 0
12, 47497, Note_on_c, 11, 69, 97
12, 47519, Note_on_c, 11, 69, 0
12, 47520, Note_on_c, 11, 69, 97
12, 47543, Note_on_c, 11, 74, 97
12, 47545, Note_on_c, 11, 69, 0
12, 47587, Note_on_c, 11, 69, 97
12, 47595, Note_on_c, 11, 74, 0
12, 47661, Note_on_c, 11, 69, 0
12, 47662, Note_on_c, 11, 69, 97
12, 47725, Note_on_c, 11, 69, 0
12, 47756, Note_on_c, 11, 69, 97
12, 47789, Note_on_c, 11, 69, 0
12, 47792, Note_on_c, 11, 69, 97
12, 47822, Note_on_c, 11, 69, 0
12, 47834, Note_on_c, 11, 69, 97
12, 47890, Note_on_c, 11, 69, 0
12, 47897, Note_on_c, 11, 69, 97
12, 47929, Note_on_c, 11, 69, 0
12, 47932, Note_on_c, 11, 69, 97
12, 47949, Note_on_c, 11, 69, 0
12, 47957, Note_on_c, 11, 69, 97
12, 47997, Note_on_c, 11, 69, 0
12, 48001, Note_on_c, 11, 69, 97
12, 48014, Note_on_c, 11, 69, 0
12, 48024, Note_on_c, 11, 69, 97
12, 48045, Note_on_c, 11, 69, 0
12, 48115, Note_on_c, 11, 69, 97
12, 48183, Note_on_c, 11, 69, 0
12, 48362, Note_on_c, 11, 71, 127
12, 48444, Pitch_bend_c, 11, 8073
12, 48444, Pitch_bend_c, 11, 8073
12, 48445, Pitch_bend_c, 11, 7954
12, 48445, Pitch_bend_c, 11, 7954
12, 48446, Pitch_bend_c, 11, 7476
12, 48446, Pitch_bend_c, 11, 7476
12, 48447, Pitch_bend_c, 11, 7237
12, 48447, Pitch_bend_c, 11, 7237
12, 48448, Pitch_bend_c, 11, 6998
12, 48448, Pitch_bend_c, 11, 6998
12, 48449, Pitch_bend_c, 11, 6657
12, 48450, Pitch_bend_c, 11, 6657
12, 48451, Pitch_bend_c, 11, 6315
12, 48451, Pitch_bend_c, 11, 6315
12, 48453, Pitch_bend_c, 11, 6045
12, 48453, Pitch_bend_c, 11, 6045
12, 48454, Pitch_bend_c, 11, 5309
12, 48454, Pitch_bend_c, 11, 5309
12, 48455, Pitch_bend_c, 11, 5189
12, 48455, Pitch_bend_c, 11, 5189
12, 48456, Pitch_bend_c, 11, 4950
12, 48456, Pitch_bend_c, 11, 4950
12, 48458, Pitch_bend_c, 11, 4780
12, 48458, Pitch_bend_c, 11, 4780
12, 48459, Pitch_bend_c, 11, 4267
12, 48459, Pitch_bend_c, 11, 4267
12, 48461, Pitch_bend_c, 11, 4096
12, 48461, Pitch_bend_c, 11, 4096
12, 48463, Pitch_bend_c, 11, 3858
12, 48463, Pitch_bend_c, 11, 3858
12, 48465, Pitch_bend_c, 11, 3619
12, 48465, Pitch_bend_c, 11, 3619
12, 48466, Pitch_bend_c, 11, 3499
12, 48466, Pitch_bend_c, 11, 3499
12, 48468, Pitch_bend_c, 11, 3400
12, 48468, Pitch_bend_c, 11, 3400
12, 48469, Pitch_bend_c, 11, 3300
12, 48469, Pitch_bend_c, 11, 3300
12, 48471, Pitch_bend_c, 11, 3201
12, 48471, Pitch_bend_c, 11, 3201
12, 48472, Pitch_bend_c, 11, 3002
12, 48473, Pitch_bend_c, 11, 3002
12, 48474, Pitch_bend_c, 11, 2732
12, 48474, Pitch_bend_c, 11, 2732
12, 48476, Pitch_bend_c, 11, 2561
12, 48476, Pitch_bend_c, 11, 2561
12, 48477, Pitch_bend_c, 11, 2390
12, 48477, Pitch_bend_c, 11, 2390
12, 48479, Pitch_bend_c, 11, 2219
12, 48479, Pitch_bend_c, 11, 2219
12, 48480, Pitch_bend_c, 11, 1810
12, 48480, Pitch_bend_c, 11, 1810
12, 48482, Pitch_bend_c, 11, 1690
12, 48482, Pitch_bend_c, 11, 1690
12, 48483, Pitch_bend_c, 11, 1571
12, 48484, Pitch_bend_c, 11, 1571
12, 48485, Pitch_bend_c, 11, 1451
12, 48485, Pitch_bend_c, 11, 1451
12, 48487, Pitch_bend_c, 11, 1213
12, 48487, Pitch_bend_c, 11, 1213
12, 48489, Pitch_bend_c, 11, 1093
12, 48489, Pitch_bend_c, 11, 1093
12, 48490, Pitch_bend_c, 11, 974
12, 48490, Pitch_bend_c, 11, 974
12, 48492, Pitch_bend_c, 11, 570
12, 48492, Pitch_bend_c, 11, 570
12, 48494, Pitch_bend_c, 11, 427
12, 48494, Pitch_bend_c, 11, 427
12, 48496, Pitch_bend_c, 11, 285
12, 48496, Pitch_bend_c, 11, 285
12, 48498, Pitch_bend_c, 11, 143
12, 48498, Pitch_bend_c, 11, 143
12, 48500, Pitch_bend_c, 11, 0
12, 48772, Note_on_c, 11, 71, 0
12, 48809, Pitch_bend_c, 11, 285
12, 48809, Pitch_bend_c, 11, 285
12, 48810, Pitch_bend_c, 11, 570
12, 48810, Pitch_bend_c, 11, 570
12, 48811, Pitch_bend_c, 11, 1093
12, 48811, Pitch_bend_c, 11, 1093
12, 48812, Pitch_bend_c, 11, 1332
12, 48812, Pitch_bend_c, 11, 1332
12, 48813, Pitch_bend_c, 11, 1571
12, 48813, Pitch_bend_c, 11, 1571
12, 48814, Pitch_bend_c, 11, 1810
12, 48814, Pitch_bend_c, 11, 1810
12, 48815, Pitch_bend_c, 11, 2390
12, 48815, Pitch_bend_c, 11, 2390
12, 48816, Pitch_bend_c, 11, 2561
12, 48816, Pitch_bend_c, 11, 2561
12, 48817, Pitch_bend_c, 11, 3002
12, 48817, Pitch_bend_c, 11, 3002
12, 48818, Pitch_bend_c, 11, 3201
12, 48818, Pitch_bend_c, 11, 3201
12, 48819, Pitch_bend_c, 11, 3400
12, 48819, Pitch_bend_c, 11, 3400
12, 48820, Pitch_bend_c, 11, 3619
12, 48820, Pitch_bend_c, 11, 3619
12, 48821, Pitch_bend_c, 11, 4096
12, 48822, Pitch_bend_c, 11, 4096
12, 48822, Pitch_bend_c, 11, 4267
12, 48823, Pitch_bend_c, 11, 4780
12, 48823, Pitch_bend_c, 11, 4267
12, 48823, Pitch_bend_c, 11, 4780
12, 48824, Pitch_bend_c, 11, 5189
12, 48824, Pitch_bend_c, 11, 5189
12, 48825, Pitch_bend_c, 11, 6045
12, 48825, Pitch_bend_c, 11, 6045
12, 48826, Pitch_bend_c, 11, 6315
12, 48826, Pitch_bend_c, 11, 6315
12, 48827, Pitch_bend_c, 11, 6657
12, 48827, Pitch_bend_c, 11, 6657
12, 48828, Pitch_bend_c, 11, 7237
12, 48829, Pitch_bend_c, 11, 7715
12, 48829, Pitch_bend_c, 11, 7237
12, 48829, Pitch_bend_c, 11, 7715
12, 48830, Pitch_bend_c, 11, 8073
12, 48830, Pitch_bend_c, 11, 8073
12, 48831, Pitch_bend_c, 11, 8192
12, 48831, Pitch_bend_c, 11, 8192
12, 48906, Note_on_c, 11, 64, 69
12, 48929, Note_on_c, 11, 64, 0
12, 48967, Note_on_c, 11, 66, 90
12, 48986, Note_on_c, 11, 66, 0
12, 49030, Note_on_c, 11, 66, 82
12, 49043, Note_on_c, 11, 69, 54
12, 49052, Note_on_c, 11, 66, 0
12, 49078, Note_on_c, 11, 66, 80
12, 49083, Note_on_c, 11, 69, 0
12, 49103, Note_on_c, 11, 65, 94
12, 49104, Note_on_c, 11, 66, 0
12, 49174, Note_on_c, 11, 65, 0
12, 49210, Note_on_c, 11, 66, 90
12, 49258, Note_on_c, 11, 64, 64
12, 49263, Note_on_c, 11, 66, 0
12, 49310, Note_on_c, 11, 62, 97
12, 49316, Note_on_c, 11, 64, 0
12, 49355, Note_on_c, 11, 62, 0
12, 49439, Note_on_c, 11, 64, 127
12, 49457, Pitch_bend_c, 11, 8328
12, 49457, Pitch_bend_c, 11, 8328
12, 49458, Pitch_bend_c, 11, 9284
12, 49458, Pitch_bend_c, 11, 9284
12, 49459, Pitch_bend_c, 11, 9967
12, 49459, Pitch_bend_c, 11, 9967
12, 49460, Pitch_bend_c, 11, 10695
12, 49460, Pitch_bend_c, 11, 10695
12, 49461, Pitch_bend_c, 11, 11196
12, 49461, Pitch_bend_c, 11, 11196
12, 49462, Pitch_bend_c, 11, 11878
12, 49462, Pitch_bend_c, 11, 11878
12, 49463, Pitch_bend_c, 11, 12424
12, 49463, Pitch_bend_c, 11, 12424
12, 49464, Pitch_bend_c, 11, 12971
12, 49464, Pitch_bend_c, 11, 12971
12, 49465, Pitch_bend_c, 11, 13426
12, 49465, Pitch_bend_c, 11, 13426
12, 49466, Pitch_bend_c, 11, 13790
12, 49466, Pitch_bend_c, 11, 13790
12, 49467, Pitch_bend_c, 11, 14336
12, 49467, Pitch_bend_c, 11, 14336
12, 49469, Pitch_bend_c, 11, 15019
12, 49469, Pitch_bend_c, 11, 15019
12, 49470, Pitch_bend_c, 11, 15428
12, 49470, Pitch_bend_c, 11, 15428
12, 49471, Pitch_bend_c, 11, 15702
12, 49471, Pitch_bend_c, 11, 15702
12, 49472, Pitch_bend_c, 11, 15929
12, 49472, Pitch_bend_c, 11, 15929
12, 49473, Pitch_bend_c, 11, 16042
12, 49473, Pitch_bend_c, 11, 16042
12, 49474, Pitch_bend_c, 11, 16269
12, 49474, Pitch_bend_c, 11, 16269
12, 49475, Pitch_bend_c, 11, 16383
12, 49475, Pitch_bend_c, 11, 16383
12, 49488, Pitch_bend_c, 11, 16269
12, 49488, Pitch_bend_c, 11, 16269
12, 49489, Pitch_bend_c, 11, 16042
12, 49489, Pitch_bend_c, 11, 16042
12, 49490, Pitch_bend_c, 11, 15929
12, 49490, Pitch_bend_c, 11, 15929
12, 49491, Pitch_bend_c, 11, 15565
12, 49491, Pitch_bend_c, 11, 15565
12, 49492, Pitch_bend_c, 11, 15428
12, 49492, Pitch_bend_c, 11, 15428
12, 49493, Pitch_bend_c, 11, 15019
12, 49493, Pitch_bend_c, 11, 15019
12, 49494, Pitch_bend_c, 11, 14745
12, 49494, Pitch_bend_c, 11, 14745
12, 49495, Pitch_bend_c, 11, 14336
12, 49495, Pitch_bend_c, 11, 14336
12, 49497, Pitch_bend_c, 11, 13790
12, 49497, Pitch_bend_c, 11, 13790
12, 49498, Pitch_bend_c, 11, 13426
12, 49498, Pitch_bend_c, 11, 13426
12, 49499, Pitch_bend_c, 11, 13084
12, 49499, Pitch_bend_c, 11, 13084
12, 49499, Pitch_bend_c, 11, 12697
12, 49500, Pitch_bend_c, 11, 12424
12, 49500, Pitch_bend_c, 11, 12424
12, 49500, Pitch_bend_c, 11, 12697
12, 49501, Pitch_bend_c, 11, 12015
12, 49501, Pitch_bend_c, 11, 12015
12, 49503, Pitch_bend_c, 11, 11469
12, 49503, Pitch_bend_c, 11, 11469
12, 49504, Pitch_bend_c, 11, 10923
12, 49504, Pitch_bend_c, 11, 10923
12, 49506, Pitch_bend_c, 11, 9967
12, 49506, Pitch_bend_c, 11, 10581
12, 49506, Pitch_bend_c, 11, 10581
12, 49506, Pitch_bend_c, 11, 9967
12, 49507, Pitch_bend_c, 11, 9558
12, 49508, Pitch_bend_c, 11, 9558
12, 49509, Pitch_bend_c, 11, 8465
12, 49509, Pitch_bend_c, 11, 8465
12, 49510, Pitch_bend_c, 11, 8192
12, 49510, Pitch_bend_c, 11, 8192
12, 49530, Note_on_c, 11, 62, 59
12, 49549, Note_on_c, 11, 64, 0
12, 49561, Note_on_c, 11, 59, 100
12, 49572, Note_on_c, 11, 62, 0
12, 49651, Note_on_c, 11, 57, 85
12, 49659, Note_on_c, 11, 59, 0
12, 49679, Note_on_c, 11, 57, 0
12, 49680, Note_on_c, 11, 57, 103
12, 49795, Pitch_bend_c, 11, 8465
12, 49795, Pitch_bend_c, 11, 8465
12, 49796, Pitch_bend_c, 11, 9284
12, 49796, Pitch_bend_c, 11, 9284
12, 49797, Pitch_bend_c, 11, 10695
12, 49797, Pitch_bend_c, 11, 10695
12, 49798, Pitch_bend_c, 11, 11332
12, 49799, Pitch_bend_c, 11, 12151
12, 49799, Pitch_bend_c, 11, 11332
12, 49800, Pitch_bend_c, 11, 12151
12, 49801, Pitch_bend_c, 11, 13084
12, 49801, Pitch_bend_c, 11, 13084
12, 49801, Pitch_bend_c, 11, 13790
12, 49802, Pitch_bend_c, 11, 13790
12, 49803, Pitch_bend_c, 11, 15019
12, 49803, Pitch_bend_c, 11, 15019
12, 49804, Pitch_bend_c, 11, 15929
12, 49804, Pitch_bend_c, 11, 15929
12, 49805, Pitch_bend_c, 11, 16383
12, 49806, Pitch_bend_c, 11, 16383
12, 49981, Note_on_c, 11, 57, 0
12, 49997, Pitch_bend_c, 11, 16269
12, 49997, Pitch_bend_c, 11, 16269
12, 49998, Pitch_bend_c, 11, 15565
12, 49999, Pitch_bend_c, 11, 14882
12, 49999, Pitch_bend_c, 11, 15565
12, 49999, Pitch_bend_c, 11, 14882
12, 50000, Pitch_bend_c, 11, 14063
12, 50001, Pitch_bend_c, 11, 14063
12, 50001, Pitch_bend_c, 11, 13084
12, 50001, Pitch_bend_c, 11, 13084
12, 50003, Pitch_bend_c, 11, 11878
12, 50003, Pitch_bend_c, 11, 11878
12, 50004, Pitch_bend_c, 11, 10923
12, 50004, Pitch_bend_c, 11, 10923
12, 50005, Pitch_bend_c, 11, 8465
12, 50005, Pitch_bend_c, 11, 9967
12, 50005, Pitch_bend_c, 11, 8465
12, 50005, Pitch_bend_c, 11, 9967
12, 50006, Pitch_bend_c, 11, 8192
12, 50007, Pitch_bend_c, 11, 8192
12, 50089, Note_on_c, 11, 71, 113
12, 50138, Pitch_bend_c, 11, 8073
12, 50138, Pitch_bend_c, 11, 8073
12, 50139, Pitch_bend_c, 11, 7715
12, 50139, Pitch_bend_c, 11, 7715
12, 50140, Pitch_bend_c, 11, 6998
12, 50140, Pitch_bend_c, 11, 6998
12, 50141, Pitch_bend_c, 11, 6315
12, 50141, Pitch_bend_c, 11, 6315
12, 50142, Pitch_bend_c, 11, 6045
12, 50142, Pitch_bend_c, 11, 6045
12, 50143, Pitch_bend_c, 11, 4950
12, 50143, Pitch_bend_c, 11, 4950
12, 50144, Pitch_bend_c, 11, 4609
12, 50144, Pitch_bend_c, 11, 4609
12, 50145, Pitch_bend_c, 11, 3858
12, 50145, Pitch_bend_c, 11, 3858
12, 50146, Pitch_bend_c, 11, 3400
12, 50146, Pitch_bend_c, 11, 3400
12, 50147, Pitch_bend_c, 11, 3201
12, 50147, Pitch_bend_c, 11, 3201
12, 50148, Pitch_bend_c, 11, 3002
12, 50148, Pitch_bend_c, 11, 3002
12, 50149, Pitch_bend_c, 11, 2561
12, 50149, Pitch_bend_c, 11, 2561
12, 50150, Pitch_bend_c, 11, 2219
12, 50150, Pitch_bend_c, 11, 2219
12, 50151, Pitch_bend_c, 11, 1810
12, 50151, Pitch_bend_c, 11, 1810
12, 50152, Pitch_bend_c, 11, 1451
12, 50152, Pitch_bend_c, 11, 1451
12, 50153, Pitch_bend_c, 11, 1093
12, 50153, Pitch_bend_c, 11, 1093
12, 50154, Pitch_bend_c, 11, 974
12, 50154, Pitch_bend_c, 11, 974
12, 50155, Pitch_bend_c, 11, 570
12, 50155, Pitch_bend_c, 11, 570
12, 50156, Pitch_bend_c, 11, 285
12, 50156, Pitch_bend_c, 11, 285
12, 50158, Pitch_bend_c, 11, 0
12, 50158, Pitch_bend_c, 11, 0
12, 50214, Pitch_bend_c, 11, 285
12, 50214, Pitch_bend_c, 11, 285
12, 50215, Pitch_bend_c, 11, 427
12, 50215, Pitch_bend_c, 11, 427
12, 50216, Pitch_bend_c, 11, 974
12, 50216, Pitch_bend_c, 11, 974
12, 50218, Pitch_bend_c, 11, 1093
12, 50218, Pitch_bend_c, 11, 1093
12, 50219, Pitch_bend_c, 11, 1332
12, 50219, Pitch_bend_c, 11, 1332
12, 50219, Pitch_bend_c, 11, 1571
12, 50219, Pitch_bend_c, 11, 1571
12, 50220, Pitch_bend_c, 11, 1690
12, 50220, Pitch_bend_c, 11, 1690
12, 50221, Pitch_bend_c, 11, 1929
12, 50221, Pitch_bend_c, 11, 1929
12, 50222, Pitch_bend_c, 11, 2390
12, 50222, Pitch_bend_c, 11, 2390
12, 50223, Pitch_bend_c, 11, 2561
12, 50224, Pitch_bend_c, 11, 2561
12, 50225, Pitch_bend_c, 11, 3002
12, 50225, Pitch_bend_c, 11, 3101
12, 50225, Pitch_bend_c, 11, 3101
12, 50225, Pitch_bend_c, 11, 3002
12, 50226, Pitch_bend_c, 11, 3201
12, 50227, Pitch_bend_c, 11, 3400
12, 50227, Pitch_bend_c, 11, 3201
12, 50227, Pitch_bend_c, 11, 3400
12, 50229, Pitch_bend_c, 11, 3499
12, 50229, Pitch_bend_c, 11, 3499
12, 50229, Pitch_bend_c, 11, 3738
12, 50230, Pitch_bend_c, 11, 3738
12, 50230, Pitch_bend_c, 11, 3858
12, 50231, Pitch_bend_c, 11, 4096
12, 50231, Pitch_bend_c, 11, 3858
12, 50232, Pitch_bend_c, 11, 4609
12, 50232, Pitch_bend_c, 11, 4096
12, 50233, Pitch_bend_c, 11, 4780
12, 50233, Pitch_bend_c, 11, 4609
12, 50234, Pitch_bend_c, 11, 4780
12, 50235, Pitch_bend_c, 11, 5189
12, 50235, Pitch_bend_c, 11, 5189
12, 50236, Pitch_bend_c, 11, 5309
12, 50236, Pitch_bend_c, 11, 5309
12, 50236, Pitch_bend_c, 11, 6144
12, 50237, Pitch_bend_c, 11, 6144
12, 50237, Pitch_bend_c, 11, 6315
12, 50238, Pitch_bend_c, 11, 6315
12, 50238, Pitch_bend_c, 11, 6657
12, 50238, Pitch_bend_c, 11, 6657
12, 50240, Pitch_bend_c, 11, 6998
12, 50240, Pitch_bend_c, 11, 6998
12, 50241, Pitch_bend_c, 11, 7476
12, 50241, Pitch_bend_c, 11, 7476
12, 50242, Pitch_bend_c, 11, 7954
12, 50242, Pitch_bend_c, 11, 7954
12, 50243, Pitch_bend_c, 11, 8192
12, 50243, Pitch_bend_c, 11, 8192
12, 50277, Note_on_c, 11, 71, 0
12, 50340, Note_on_c, 11, 71, 122
12, 50385, Pitch_bend_c, 11, 8073
12, 50385, Pitch_bend_c, 11, 8073
12, 50387, Pitch_bend_c, 11, 7715
12, 50387, Pitch_bend_c, 11, 7715
12, 50388, Pitch_bend_c, 11, 7476
12, 50388, Pitch_bend_c, 11, 7476
12, 50389, Pitch_bend_c, 11, 7237
12, 50389, Pitch_bend_c, 11, 7237
12, 50390, Pitch_bend_c, 11, 6998
12, 50390, Pitch_bend_c, 11, 6998
12, 50391, Pitch_bend_c, 11, 6486
12, 50391, Pitch_bend_c, 11, 6486
12, 50393, Pitch_bend_c, 11, 6045
12, 50393, Pitch_bend_c, 11, 6144
12, 50393, Pitch_bend_c, 11, 6144
12, 50394, Pitch_bend_c, 11, 6045
12, 50395, Pitch_bend_c, 11, 5309
12, 50395, Pitch_bend_c, 11, 5309
12, 50396, Pitch_bend_c, 11, 4950
12, 50396, Pitch_bend_c, 11, 4950
12, 50397, Pitch_bend_c, 11, 4780
12, 50397, Pitch_bend_c, 11, 4780
12, 50398, Pitch_bend_c, 11, 4609
12, 50398, Pitch_bend_c, 11, 4609
12, 50399, Pitch_bend_c, 11, 4267
12, 50399, Pitch_bend_c, 11, 4267
12, 50401, Pitch_bend_c, 11, 3858
12, 50401, Pitch_bend_c, 11, 3858
12, 50402, Pitch_bend_c, 11, 3738
12, 50402, Pitch_bend_c, 11, 3738
12, 50403, Pitch_bend_c, 11, 3619
12, 50403, Pitch_bend_c, 11, 3619
12, 50404, Pitch_bend_c, 11, 3400
12, 50404, Pitch_bend_c, 11, 3400
12, 50405, Pitch_bend_c, 11, 3300
12, 50406, Pitch_bend_c, 11, 3300
12, 50407, Pitch_bend_c, 11, 3101
12, 50407, Pitch_bend_c, 11, 3101
12, 50408, Pitch_bend_c, 11, 3002
12, 50408, Pitch_bend_c, 11, 3002
12, 50409, Pitch_bend_c, 11, 2732
12, 50409, Pitch_bend_c, 11, 2732
12, 50410, Pitch_bend_c, 11, 2561
12, 50410, Pitch_bend_c, 11, 2561
12, 50411, Pitch_bend_c, 11, 2390
12, 50411, Pitch_bend_c, 11, 2390
12, 50412, Pitch_bend_c, 11, 1929
12, 50412, Pitch_bend_c, 11, 1929
12, 50413, Pitch_bend_c, 11, 1810
12, 50413, Pitch_bend_c, 11, 1810
12, 50414, Pitch_bend_c, 11, 1690
12, 50414, Pitch_bend_c, 11, 1690
12, 50415, Pitch_bend_c, 11, 1571
12, 50415, Pitch_bend_c, 11, 1571
12, 50416, Pitch_bend_c, 11, 1451
12, 50416, Pitch_bend_c, 11, 1451
12, 50417, Pitch_bend_c, 11, 1213
12, 50417, Pitch_bend_c, 11, 1213
12, 50418, Pitch_bend_c, 11, 1093
12, 50418, Pitch_bend_c, 11, 1093
12, 50419, Pitch_bend_c, 11, 974
12, 50419, Pitch_bend_c, 11, 974
12, 50420, Pitch_bend_c, 11, 712
12, 50420, Pitch_bend_c, 11, 712
12, 50421, Pitch_bend_c, 11, 427
12, 50421, Pitch_bend_c, 11, 427
12, 50423, Pitch_bend_c, 11, 285
12, 50423, Pitch_bend_c, 11, 285
12, 50424, Pitch_bend_c, 11, 143
12, 50424, Pitch_bend_c, 11, 143
12, 50425, Pitch_bend_c, 11, 0
12, 50426, Pitch_bend_c, 11, 0
12, 50733, Note_on_c, 11, 71, 0
12, 50758, Pitch_bend_c, 11, 143
12, 50758, Pitch_bend_c, 11, 143
12, 50759, Pitch_bend_c, 11, 712
12, 50759, Pitch_bend_c, 11, 712
12, 50760, Pitch_bend_c, 11, 1213
12, 50761, Pitch_bend_c, 11, 1213
12, 50762, Pitch_bend_c, 11, 1571
12, 50762, Pitch_bend_c, 11, 1571
12, 50763, Pitch_bend_c, 11, 2219
12, 50763, Pitch_bend_c, 11, 2219
12, 50765, Pitch_bend_c, 11, 3101
12, 50766, Pitch_bend_c, 11, 3400
12, 50766, Pitch_bend_c, 11, 3101
12, 50767, Pitch_bend_c, 11, 3400
12, 50768, Pitch_bend_c, 11, 3619
12, 50768, Pitch_bend_c, 11, 3619
12, 50769, Pitch_bend_c, 11, 3858
12, 50769, Pitch_bend_c, 11, 3858
12, 50770, Pitch_bend_c, 11, 4609
12, 50770, Pitch_bend_c, 11, 4609
12, 50771, Pitch_bend_c, 11, 4950
12, 50771, Pitch_bend_c, 11, 4950
12, 50772, Pitch_bend_c, 11, 5309
12, 50772, Pitch_bend_c, 11, 5309
12, 50773, Pitch_bend_c, 11, 6144
12, 50773, Pitch_bend_c, 11, 6144
12, 50774, Pitch_bend_c, 11, 6486
12, 50774, Pitch_bend_c, 11, 6486
12, 50775, Pitch_bend_c, 11, 6657
12, 50775, Pitch_bend_c, 11, 6657
12, 50776, Pitch_bend_c, 11, 7237
12, 50776, Pitch_bend_c, 11, 7237
12, 50777, Pitch_bend_c, 11, 7715
12, 50777, Pitch_bend_c, 11, 7715
12, 50778, Pitch_bend_c, 11, 8073
12, 50778, Pitch_bend_c, 11, 8073
12, 50779, Pitch_bend_c, 11, 8192
12, 50779, Pitch_bend_c, 11, 8192
12, 50780, Control_c, 11, 101, 0
12, 50781, Control_c, 11, 100, 0
12, 50782, Control_c, 11, 6, 3
12, 50783, Control_c, 11, 101, 127
12, 50784, Control_c, 11, 100, 127
12, 50833, Note_on_c, 11, 69, 97
12, 50882, Note_on_c, 11, 69, 0
12, 50916, Note_on_c, 11, 71, 97
12, 50953, Note_on_c, 11, 71, 0
12, 51000, Note_on_c, 11, 73, 127
12, 51080, Pitch_bend_c, 11, 9011
12, 51080, Pitch_bend_c, 11, 9011
12, 51080, Pitch_bend_c, 11, 8328
12, 51080, Pitch_bend_c, 11, 8328
12, 51081, Pitch_bend_c, 11, 9830
12, 51082, Pitch_bend_c, 11, 10581
12, 51082, Pitch_bend_c, 11, 9830
12, 51082, Pitch_bend_c, 11, 10581
12, 51083, Pitch_bend_c, 11, 10923
12, 51083, Pitch_bend_c, 11, 10923
12, 51084, Pitch_bend_c, 11, 11332
12, 51084, Pitch_bend_c, 11, 11332
12, 51086, Pitch_bend_c, 11, 12151
12, 51086, Pitch_bend_c, 11, 12151
12, 51087, Pitch_bend_c, 11, 12971
12, 51087, Pitch_bend_c, 11, 12971
12, 51087, Pitch_bend_c, 11, 13540
12, 51088, Pitch_bend_c, 11, 14336
12, 51088, Pitch_bend_c, 11, 13540
12, 51089, Pitch_bend_c, 11, 14336
12, 51089, Pitch_bend_c, 11, 15019
12, 51089, Pitch_bend_c, 11, 15019
12, 51091, Pitch_bend_c, 11, 15929
12, 51091, Pitch_bend_c, 11, 15929
12, 51092, Pitch_bend_c, 11, 16383
12, 51092, Pitch_bend_c, 11, 16383
12, 51145, Pitch_bend_c, 11, 16269
12, 51145, Pitch_bend_c, 11, 16269
12, 51146, Pitch_bend_c, 11, 15929
12, 51146, Pitch_bend_c, 11, 15929
12, 51147, Pitch_bend_c, 11, 15428
12, 51147, Pitch_bend_c, 11, 15428
12, 51147, Pitch_bend_c, 11, 15019
12, 51148, Pitch_bend_c, 11, 15019
12, 51148, Pitch_bend_c, 11, 14472
12, 51149, Pitch_bend_c, 11, 14472
12, 51150, Pitch_bend_c, 11, 13926
12, 51150, Pitch_bend_c, 11, 13926
12, 51151, Pitch_bend_c, 11, 13426
12, 51151, Pitch_bend_c, 11, 13426
12, 51152, Pitch_bend_c, 11, 12697
12, 51152, Pitch_bend_c, 11, 12697
12, 51153, Pitch_bend_c, 11, 12424
12, 51153, Pitch_bend_c, 11, 12424
12, 51154, Pitch_bend_c, 11, 11878
12, 51154, Pitch_bend_c, 11, 11878
12, 51155, Pitch_bend_c, 11, 11332
12, 51155, Pitch_bend_c, 11, 11332
12, 51156, Pitch_bend_c, 11, 10695
12, 51156, Pitch_bend_c, 11, 10695
12, 51157, Pitch_bend_c, 11, 10240
12, 51157, Pitch_bend_c, 11, 10240
12, 51158, Pitch_bend_c, 11, 9558
12, 51158, Pitch_bend_c, 11, 9558
12, 51159, Pitch_bend_c, 11, 8738
12, 51159, Pitch_bend_c, 11, 8738
12, 51160, Pitch_bend_c, 11, 8192
12, 51160, Pitch_bend_c, 11, 8192
12, 51742, Note_on_c, 11, 73, 0
12, 52079, Note_on_c, 11, 66, 103
12, 52080, Control_c, 11, 100, 0
12, 52081, Control_c, 11, 101, 0
12, 52082, Control_c, 11, 6, 2
12, 52083, Control_c, 11, 101, 127
12, 52084, Control_c, 11, 100, 127
12, 52131, Note_on_c, 11, 62, 65
12, 52148, Note_on_c, 11, 66, 0
12, 52193, Note_on_c, 11, 62, 0
12, 52197, Note_on_c, 11, 57, 41
12, 52215, Note_on_c, 11, 57, 0
12, 52250, Note_on_c, 11, 57, 82
12, 52374, Note_on_c, 11, 57, 0
12, 52379, Note_on_c, 11, 59, 61
12, 52672, Note_on_c, 11, 57, 103
12, 52686, Note_on_c, 11, 59, 0
12, 52862, Note_on_c, 11, 61, 106
12, 52865, Note_on_c, 11, 57, 0
12, 52964, Note_on_c, 11, 57, 65
12, 52976, Note_on_c, 11, 61, 0
12, 52991, Note_on_c, 11, 57, 0
12, 53040, Note_on_c, 11, 61, 74
12, 53060, Note_on_c, 11, 57, 65
12, 53075, Note_on_c, 11, 61, 0
12, 53080, Note_on_c, 11, 54, 61
12, 53093, Note_on_c, 11, 57, 0
12, 53130, Note_on_c, 11, 54, 0
12, 53163, Note_on_c, 11, 52, 100
12, 53281, Note_on_c, 11, 52, 0
12, 53284, Note_on_c, 11, 54, 103
12, 53400, Note_on_c, 11, 52, 77
12, 53415, Note_on_c, 11, 54, 0
12, 53484, Note_on_c, 11, 52, 0
12, 53494, Note_on_c, 11, 54, 76
12, 53524, Note_on_c, 11, 50, 97
12, 53541, Note_on_c, 11, 54, 0
12, 53633, Note_on_c, 11, 50, 0
12, 53641, Note_on_c, 11, 47, 122
12, 53927, Note_on_c, 11, 47, 0
12, 53970, Pitch_bend_c, 11, 8073
12, 53971, Pitch_bend_c, 11, 6998
12, 53972, Pitch_bend_c, 11, 6045
12, 53973, Pitch_bend_c, 11, 4096
12, 53974, Pitch_bend_c, 11, 3400
12, 53974, Pitch_bend_c, 11, 2732
12, 53975, Pitch_bend_c, 11, 1571
12, 53976, Pitch_bend_c, 11, 974
12, 53977, Pitch_bend_c, 11, 0
12, 53999, Note_on_c, 11, 42, 80
12, 54024, Pitch_bend_c, 11, 143
12, 54025, Pitch_bend_c, 11, 1213
12, 54026, Pitch_bend_c, 11, 1929
12, 54027, Pitch_bend_c, 11, 3101
12, 54027, Pitch_bend_c, 11, 3858
12, 54028, Pitch_bend_c, 11, 4950
12, 54029, Pitch_bend_c, 11, 6486
12, 54030, Pitch_bend_c, 11, 7476
12, 54031, Pitch_bend_c, 11, 8192
12, 54062, Note_on_c, 11, 45, 97
12, 54068, Note_on_c, 11, 42, 0
12, 54119, Note_on_c, 11, 45, 0
12, 54120, Note_on_c, 11, 47, 73
12, 54180, Note_on_c, 11, 52, 66
12, 54182, Note_on_c, 11, 47, 0
12, 54241, Note_on_c, 11, 54, 127
12, 54245, Note_on_c, 11, 52, 0
12, 54344, Note_on_c, 11, 54, 0
12, 54364, Note_on_c, 11, 54, 103
12, 54435, Note_on_c, 11, 54, 0
12, 54447, Note_on_c, 11, 54, 65
12, 54463, Note_on_c, 11, 54, 0
12, 54483, Note_on_c, 11, 57, 90
12, 54507, Pitch_bend_c, 11, 16383
12, 54539, Pitch_bend_c, 11, 8192
12, 54586, Note_on_c, 11, 57, 0
12, 54599, Note_on_c, 11, 52, 113
12, 54682, Note_on_c, 11, 52, 0
12, 54693, Note_on_c, 11, 52, 90
12, 54709, Note_on_c, 11, 52, 0
12, 54720, Note_on_c, 11, 52, 84
12, 54778, Note_on_c, 11, 54, 84
12, 54781, Note_on_c, 11, 52, 0
12, 54792, Note_on_c, 11, 54, 0
12, 54839, Note_on_c, 11, 54, 106
12, 54917, Note_on_c, 11, 54, 0
12, 54931, Pitch_bend_c, 11, 8073
12, 54932, Pitch_bend_c, 11, 6998
12, 54933, Pitch_bend_c, 11, 6315
12, 54934, Pitch_bend_c, 11, 4609
12, 54935, Pitch_bend_c, 11, 3499
12, 54936, Pitch_bend_c, 11, 3101
12, 54936, Pitch_bend_c, 11, 2219
12, 54937, Pitch_bend_c, 11, 1571
12, 54938, Pitch_bend_c, 11, 570
12, 54939, Pitch_bend_c, 11, 0
12, 54954, Note_on_c, 11, 42, 110
12, 54981, Pitch_bend_c, 11, 570
12, 54982, Pitch_bend_c, 11, 1690
12, 54983, Pitch_bend_c, 11, 3619
12, 54983, Pitch_bend_c, 11, 2732
12, 54985, Pitch_bend_c, 11, 5309
12, 54986, Pitch_bend_c, 11, 8192
12, 55021, Note_on_c, 11, 45, 94
12, 55026, Note_on_c, 11, 42, 0
12, 55072, Note_on_c, 11, 47, 94
12, 55080, Note_on_c, 11, 45, 0
12, 55135, Note_on_c, 11, 47, 0
12, 55147, Note_on_c, 11, 50, 48
12, 55205, Note_on_c, 11, 52, 106
12, 55208, Note_on_c, 11, 50, 0
12, 55317, Note_on_c, 11, 52, 0
12, 55322, Note_on_c, 11, 54, 80
12, 55420, Note_on_c, 11, 54, 0
12, 55442, Note_on_c, 11, 54, 94
12, 55456, Note_on_c, 11, 54, 0
12, 55461, Note_on_c, 11, 57, 63
12, 55482, Note_on_c, 11, 54, 56
12, 55485, Note_on_c, 11, 57, 0
12, 55508, Note_on_c, 11, 54, 0
12, 55563, Note_on_c, 11, 52, 106
12, 55661, Note_on_c, 11, 54, 77
12, 55662, Note_on_c, 11, 52, 0
12, 55677, Note_on_c, 11, 54, 0
12, 55689, Note_on_c, 11, 54, 90
12, 55781, Note_on_c, 11, 54, 0
12, 55800, Note_on_c, 11, 54, 127
12, 55906, Note_on_c, 11, 54, 0
12, 66480, Program_c, 11, 30
12, 66480, Note_on_c, 11, 50, 127
12, 66480, Note_on_c, 11, 57, 127
12, 66599, Note_on_c, 11, 50, 0
12, 66599, Note_on_c, 11, 57, 0
12, 66600, Note_on_c, 11, 57, 127
12, 66600, Note_on_c, 11, 50, 127
12, 66719, Note_on_c, 11, 50, 0
12, 66720, Note_on_c, 11, 60, 127
12, 66720, Note_on_c, 11, 50, 127
12, 66722, Note_on_c, 11, 57, 0
12, 66750, Note_on_c, 11, 59, 113
12, 66764, Note_on_c, 11, 60, 0
12, 66780, Note_on_c, 11, 57, 106
12, 66799, Note_on_c, 11, 59, 0
12, 66839, Note_on_c, 11, 50, 0
12, 66839, Note_on_c, 11, 57, 0
12, 66840, Note_on_c, 11, 57, 127
12, 66840, Note_on_c, 11, 50, 127
12, 66959, Note_on_c, 11, 57, 0
12, 66959, Note_on_c, 11, 50, 0
12, 66960, Note_on_c, 11, 57, 127
12, 66960, Note_on_c, 11, 50, 127
12, 66991, Note_on_c, 11, 57, 0
12, 66992, Note_on_c, 11, 57, 103
12, 67021, Note_on_c, 11, 55, 127
12, 67043, Note_on_c, 11, 57, 0
12, 67079, Note_on_c, 11, 50, 0
12, 67080, Note_on_c, 11, 55, 0
12, 67080, Note_on_c, 11, 50, 127
12, 67080, Note_on_c, 11, 57, 127
12, 67170, Note_on_c, 11, 55, 127
12, 67171, Note_on_c, 11, 57, 0
12, 67199, Note_on_c, 11, 50, 0
12, 67200, Note_on_c, 11, 55, 0
12, 67200, Note_on_c, 11, 57, 127
12, 67200, Note_on_c, 11, 50, 127
12, 67317, Note_on_c, 11, 50, 0
12, 67319, Note_on_c, 11, 57, 0
12, 67320, Note_on_c, 11, 57, 127
12, 67320, Note_on_c, 11, 50, 127
12, 67440, Note_on_c, 11, 50, 0
12, 67447, Note_on_c, 11, 57, 0
12, 68340, Note_on_c, 11, 74, 75
12, 68370, Note_on_c, 11, 79, 110
12, 68399, Note_on_c, 11, 74, 0
12, 68400, Note_on_c, 11, 74, 72
12, 68429, Note_on_c, 11, 79, 0
12, 68459, Note_on_c, 11, 74, 0
12, 68460, Note_on_c, 11, 74, 82
12, 68490, Note_on_c, 11, 79, 122
12, 68519, Note_on_c, 11, 74, 0
12, 68519, Note_on_c, 11, 79, 0
12, 68520, Note_on_c, 11, 74, 97
12, 68575, Note_on_c, 11, 74, 0
12, 68580, Note_on_c, 11, 74, 92
12, 68610, Note_on_c, 11, 79, 90
12, 68639, Note_on_c, 11, 74, 0
12, 68639, Note_on_c, 11, 79, 0
12, 68640, Note_on_c, 11, 74, 94
12, 68699, Note_on_c, 11, 74, 0
12, 68700, Note_on_c, 11, 74, 74
12, 68730, Note_on_c, 11, 79, 87
12, 68757, Note_on_c, 11, 74, 0
12, 68760, Note_on_c, 11, 74, 80
12, 68789, Note_on_c, 11, 79, 0
12, 68819, Note_on_c, 11, 74, 0
12, 68820, Note_on_c, 11, 74, 85
12, 68850, Note_on_c, 11, 79, 84
12, 68875, Note_on_c, 11, 74, 0
12, 68880, Note_on_c, 11, 74, 82
12, 68909, Note_on_c, 11, 74, 0
12, 68910, Note_on_c, 11, 74, 87
12, 68939, Note_on_c, 11, 79, 0
12, 68939, Note_on_c, 11, 74, 0
12, 68940, Note_on_c, 11, 74, 90
12, 68970, Note_on_c, 11, 79, 110
12, 68999, Note_on_c, 11, 74, 0
12, 69000, Note_on_c, 11, 74, 100
12, 69057, Note_on_c, 11, 74, 0
12, 69059, Note_on_c, 11, 79, 0
12, 69060, Note_on_c, 11, 74, 100
12, 69090, Note_on_c, 11, 79, 106
12, 69117, Note_on_c, 11, 74, 0
12, 69120, Note_on_c, 11, 74, 80
12, 69149, Note_on_c, 11, 74, 0
12, 69150, Note_on_c, 11, 74, 100
12, 69179, Note_on_c, 11, 74, 0
12, 69180, Note_on_c, 11, 74, 113
12, 69209, Note_on_c, 11, 79, 0
12, 69209, Note_on_c, 11, 74, 0
12, 69210, Note_on_c, 11, 74, 127
12, 69299, Note_on_c, 11, 74, 0
12, 69360, Control_c, 11, 101, 0
12, 69362, Control_c, 11, 100, 0
12, 69364, Control_c, 11, 6, 12
12, 69366, Control_c, 11, 101, 127
12, 69368, Control_c, 11, 100, 127
12, 70320, Note_on_c, 11, 72, 127
12, 70395, Note_on_c, 11, 72, 0
12, 70400, Note_on_c, 11, 67, 113
12, 70475, Note_on_c, 11, 67, 0
12, 70480, Note_on_c, 11, 62, 118
12, 70543, Note_on_c, 11, 62, 0
12, 70560, Note_on_c, 11, 57, 113
12, 70624, Note_on_c, 11, 57, 0
12, 70640, Note_on_c, 11, 55, 122
12, 70701, Note_on_c, 11, 55, 0
12, 70720, Note_on_c, 11, 57, 118
12, 70760, Note_on_c, 11, 57, 0
12, 70802, Note_on_c, 11, 53, 127
12, 70907, Note_on_c, 11, 53, 0
12, 70919, Note_on_c, 11, 48, 127
12, 71278, Note_on_c, 11, 48, 0
12, 71290, Note_on_c, 11, 50, 127
12, 71400, Pitch_bend_c, 11, 8073
12, 71406, Pitch_bend_c, 11, 8018
12, 71408, Control_c, 11, 11, 127
12, 71421, Pitch_bend_c, 11, 7416
12, 71423, Control_c, 11, 11, 124
12, 71425, Control_c, 11, 11, 126
12, 71436, Pitch_bend_c, 11, 6812
12, 71440, Control_c, 11, 11, 116
12, 71452, Pitch_bend_c, 11, 6209
12, 71455, Control_c, 11, 11, 105
12, 71467, Pitch_bend_c, 11, 5605
12, 71470, Control_c, 11, 11, 95
12, 71482, Pitch_bend_c, 11, 5002
12, 71485, Control_c, 11, 11, 85
12, 71497, Pitch_bend_c, 11, 4398
12, 71501, Control_c, 11, 11, 74
12, 71513, Pitch_bend_c, 11, 3795
12, 71516, Control_c, 11, 11, 64
12, 71528, Pitch_bend_c, 11, 3191
12, 71531, Control_c, 11, 11, 54
12, 71543, Pitch_bend_c, 11, 2588
12, 71546, Control_c, 11, 11, 43
12, 71558, Pitch_bend_c, 11, 1984
12, 71574, Pitch_bend_c, 11, 1381
12, 71576, Control_c, 11, 11, 42
12, 71589, Pitch_bend_c, 11, 777
12, 71593, Note_on_c, 11, 50, 0
12, 71760, Control_c, 11, 101, 0
12, 71762, Control_c, 11, 100, 0
12, 71764, Control_c, 11, 6, 2
12, 71766, Control_c, 11, 101, 127
12, 71768, Control_c, 11, 100, 127
12, 71770, Control_c, 11, 11, 127
12, 71772, Pitch_bend_c, 11, 8192
12, 90600, Control_c, 11, 121, 0
12, 90600, End_track
13, 0, Start_track
13, 0, Title_t, "bass"
13, 0, MIDI_port, 0
13, 69, Program_c, 8, 35
13, 70, Control_c, 8, 7, 127
13, 71, Control_c, 8, 10, 59
13, 72, Pitch_bend_c, 8, 8192
13, 73, Control_c, 8, 91, 0
13, 660, Note_on_c, 8, 36, 100
13, 720, Note_on_c, 8, 41, 100
13, 727, Note_on_c, 8, 36, 0
13, 960, Note_on_c, 8, 29, 100
13, 961, Note_on_c, 8, 41, 0
13, 1065, Note_on_c, 8, 29, 0
13, 1080, Note_on_c, 8, 33, 100
13, 1320, Note_on_c, 8, 34, 100
13, 1323, Note_on_c, 8, 33, 0
13, 1380, Note_on_c, 8, 35, 100
13, 1387, Note_on_c, 8, 34, 0
13, 1439, Note_on_c, 8, 35, 0
13, 1440, Note_on_c, 8, 36, 100
13, 1558, Note_on_c, 8, 36, 0
13, 1560, Note_on_c, 8, 43, 100
13, 1678, Note_on_c, 8, 43, 0
13, 1680, Note_on_c, 8, 48, 100
13, 1860, Note_on_c, 8, 43, 100
13, 1866, Note_on_c, 8, 48, 0
13, 1920, Note_on_c, 8, 36, 100
13, 1929, Note_on_c, 8, 43, 0
13, 2038, Note_on_c, 8, 36, 0
13, 2040, Note_on_c, 8, 36, 100
13, 2160, Note_on_c, 8, 46, 100
13, 2173, Note_on_c, 8, 36, 0
13, 2340, Note_on_c, 8, 41, 100
13, 2341, Note_on_c, 8, 46, 0
13, 2400, Note_on_c, 8, 34, 100
13, 2409, Note_on_c, 8, 41, 0
13, 2700, Note_on_c, 8, 41, 100
13, 2709, Note_on_c, 8, 34, 0
13, 2746, Note_on_c, 8, 41, 0
13, 2760, Note_on_c, 8, 34, 100
13, 2880, Note_on_c, 8, 45, 100
13, 2882, Note_on_c, 8, 34, 0
13, 3060, Note_on_c, 8, 40, 100
13, 3061, Note_on_c, 8, 45, 0
13, 3120, Note_on_c, 8, 36, 100
13, 3124, Note_on_c, 8, 40, 0
13, 3177, Note_on_c, 8, 36, 0
13, 3180, Note_on_c, 8, 35, 100
13, 3240, Note_on_c, 8, 33, 100
13, 3250, Note_on_c, 8, 35, 0
13, 3600, Note_on_c, 8, 43, 100
13, 3622, Note_on_c, 8, 33, 0
13, 3839, Note_on_c, 8, 43, 0
13, 3840, Note_on_c, 8, 50, 100
13, 3959, Note_on_c, 8, 50, 0
13, 3960, Note_on_c, 8, 55, 100
13, 4140, Note_on_c, 8, 50, 100
13, 4162, Note_on_c, 8, 55, 0
13, 4199, Note_on_c, 8, 50, 0
13, 4200, Note_on_c, 8, 43, 100
13, 4228, Pitch_bend_c, 8, 8132
13, 4246, Pitch_bend_c, 8, 6115
13, 4264, Pitch_bend_c, 8, 4096
13, 4282, Pitch_bend_c, 8, 2078
13, 4300, Pitch_bend_c, 8, 60
13, 4310, Pitch_bend_c, 8, 8192
13, 4319, Note_on_c, 8, 43, 0
13, 4320, Note_on_c, 8, 38, 100
13, 4559, Note_on_c, 8, 38, 0
13, 4560, Note_on_c, 8, 45, 100
13, 4680, Note_on_c, 8, 48, 100
13, 4689, Note_on_c, 8, 45, 0
13, 4739, Note_on_c, 8, 48, 0
13, 4740, Note_on_c, 8, 45, 100
13, 4794, Pitch_bend_c, 8, 9011
13, 4795, Pitch_bend_c, 8, 10353
13, 4796, Pitch_bend_c, 8, 11059
13, 4797, Pitch_bend_c, 8, 11606
13, 4799, Pitch_bend_c, 8, 12697
13, 4800, Pitch_bend_c, 8, 13926
13, 4800, Note_on_c, 8, 48, 100
13, 4803, Pitch_bend_c, 8, 15702
13, 4805, Pitch_bend_c, 8, 16383
13, 4806, Note_on_c, 8, 45, 0
13, 4854, Pitch_bend_c, 8, 16269
13, 4855, Pitch_bend_c, 8, 15702
13, 4856, Pitch_bend_c, 8, 15155
13, 4857, Pitch_bend_c, 8, 14745
13, 4859, Pitch_bend_c, 8, 14063
13, 4860, Pitch_bend_c, 8, 13426
13, 4862, Pitch_bend_c, 8, 12697
13, 4863, Pitch_bend_c, 8, 12151
13, 4864, Pitch_bend_c, 8, 11606
13, 4865, Pitch_bend_c, 8, 11196
13, 4866, Pitch_bend_c, 8, 10581
13, 4868, Pitch_bend_c, 8, 9967
13, 4869, Pitch_bend_c, 8, 9284
13, 4870, Pitch_bend_c, 8, 8465
13, 4871, Pitch_bend_c, 8, 8192
13, 4919, Note_on_c, 8, 48, 0
13, 4920, Note_on_c, 8, 45, 100
13, 5035, Note_on_c, 8, 45, 0
13, 5040, Note_on_c, 8, 36, 100
13, 5269, Pitch_bend_c, 8, 0
13, 5279, Note_on_c, 8, 36, 0
13, 5280, Note_on_c, 8, 43, 100
13, 5346, Pitch_bend_c, 8, 143
13, 5348, Pitch_bend_c, 8, 974
13, 5349, Pitch_bend_c, 8, 1332
13, 5350, Pitch_bend_c, 8, 1929
13, 5351, Pitch_bend_c, 8, 2732
13, 5352, Pitch_bend_c, 8, 3300
13, 5353, Pitch_bend_c, 8, 3858
13, 5355, Pitch_bend_c, 8, 4780
13, 5356, Pitch_bend_c, 8, 6144
13, 5357, Pitch_bend_c, 8, 6657
13, 5358, Pitch_bend_c, 8, 7476
13, 5360, Pitch_bend_c, 8, 8073
13, 5361, Pitch_bend_c, 8, 8192
13, 5400, Note_on_c, 8, 48, 100
13, 5402, Note_on_c, 8, 43, 0
13, 5639, Note_on_c, 8, 48, 0
13, 5640, Note_on_c, 8, 36, 100
13, 5760, Note_on_c, 8, 35, 100
13, 5765, Note_on_c, 8, 36, 0
13, 5999, Note_on_c, 8, 35, 0
13, 6000, Note_on_c, 8, 42, 100
13, 6120, Note_on_c, 8, 45, 100
13, 6129, Note_on_c, 8, 42, 0
13, 6179, Note_on_c, 8, 45, 0
13, 6180, Note_on_c, 8, 42, 100
13, 6234, Pitch_bend_c, 8, 9011
13, 6235, Pitch_bend_c, 8, 10353
13, 6236, Pitch_bend_c, 8, 11059
13, 6237, Pitch_bend_c, 8, 11606
13, 6239, Pitch_bend_c, 8, 12697
13, 6240, Pitch_bend_c, 8, 13926
13, 6240, Note_on_c, 8, 45, 100
13, 6243, Pitch_bend_c, 8, 15702
13, 6245, Pitch_bend_c, 8, 16383
13, 6246, Note_on_c, 8, 42, 0
13, 6294, Pitch_bend_c, 8, 16269
13, 6295, Pitch_bend_c, 8, 15702
13, 6296, Pitch_bend_c, 8, 15155
13, 6297, Pitch_bend_c, 8, 14745
13, 6299, Pitch_bend_c, 8, 14063
13, 6300, Pitch_bend_c, 8, 13426
13, 6302, Pitch_bend_c, 8, 12697
13, 6303, Pitch_bend_c, 8, 12151
13, 6304, Pitch_bend_c, 8, 11606
13, 6305, Pitch_bend_c, 8, 11196
13, 6306, Pitch_bend_c, 8, 10581
13, 6308, Pitch_bend_c, 8, 9967
13, 6309, Pitch_bend_c, 8, 9284
13, 6310, Pitch_bend_c, 8, 8465
13, 6311, Pitch_bend_c, 8, 8192
13, 6359, Note_on_c, 8, 45, 0
13, 6360, Note_on_c, 8, 42, 100
13, 6475, Note_on_c, 8, 42, 0
13, 6480, Note_on_c, 8, 33, 100
13, 6658, Note_on_c, 8, 33, 0
13, 6660, Note_on_c, 8, 33, 100
13, 6701, Note_on_c, 8, 33, 0
13, 6720, Note_on_c, 8, 33, 100
13, 6886, Note_on_c, 8, 33, 0
13, 6900, Note_on_c, 8, 33, 100
13, 6942, Note_on_c, 8, 33, 0
13, 6960, Note_on_c, 8, 33, 100
13, 7129, Note_on_c, 8, 33, 0
13, 7142, Note_on_c, 8, 38, 100
13, 7200, Note_on_c, 8, 39, 100
13, 7203, Note_on_c, 8, 38, 0
13, 7370, Note_on_c, 8, 39, 0
13, 7380, Note_on_c, 8, 39, 100
13, 7421, Note_on_c, 8, 39, 0
13, 7440, Note_on_c, 8, 39, 100
13, 7599, Note_on_c, 8, 39, 0
13, 7620, Note_on_c, 8, 39, 100
13, 7663, Note_on_c, 8, 39, 0
13, 7680, Note_on_c, 8, 39, 100
13, 7838, Note_on_c, 8, 39, 0
13, 7860, Note_on_c, 8, 39, 100
13, 7913, Note_on_c, 8, 39, 0
13, 7920, Note_on_c, 8, 38, 100
13, 8090, Note_on_c, 8, 38, 0
13, 8100, Note_on_c, 8, 38, 100
13, 8141, Note_on_c, 8, 38, 0
13, 8160, Note_on_c, 8, 38, 100
13, 8319, Note_on_c, 8, 38, 0
13, 8340, Note_on_c, 8, 38, 100
13, 8383, Note_on_c, 8, 38, 0
13, 8400, Note_on_c, 8, 38, 100
13, 8558, Note_on_c, 8, 38, 0
13, 8580, Note_on_c, 8, 38, 100
13, 8633, Note_on_c, 8, 38, 0
13, 8640, Note_on_c, 8, 32, 100
13, 8800, Note_on_c, 8, 32, 0
13, 8820, Note_on_c, 8, 32, 100
13, 8857, Note_on_c, 8, 32, 0
13, 8880, Note_on_c, 8, 32, 100
13, 9035, Note_on_c, 8, 32, 0
13, 9060, Note_on_c, 8, 32, 100
13, 9098, Note_on_c, 8, 32, 0
13, 9120, Note_on_c, 8, 32, 100
13, 9269, Note_on_c, 8, 32, 0
13, 9300, Note_on_c, 8, 32, 100
13, 9360, Note_on_c, 8, 31, 100
13, 9385, Note_on_c, 8, 32, 0
13, 9511, Note_on_c, 8, 31, 0
13, 9540, Note_on_c, 8, 31, 100
13, 9598, Note_on_c, 8, 31, 0
13, 9600, Note_on_c, 8, 38, 100
13, 9720, Note_on_c, 8, 43, 100
13, 9726, Note_on_c, 8, 38, 0
13, 9897, Note_on_c, 8, 43, 0
13, 9900, Note_on_c, 8, 38, 100
13, 9954, Note_on_c, 8, 38, 0
13, 9960, Note_on_c, 8, 31, 100
13, 10050, Note_on_c, 8, 31, 0
13, 10080, Note_on_c, 8, 34, 100
13, 10320, Note_on_c, 8, 38, 100
13, 10321, Note_on_c, 8, 34, 0
13, 10440, Note_on_c, 8, 39, 100
13, 10443, Note_on_c, 8, 38, 0
13, 10500, Note_on_c, 8, 39, 0
13, 10500, Note_on_c, 8, 40, 100
13, 10562, Note_on_c, 8, 40, 0
13, 10563, Note_on_c, 8, 41, 100
13, 10620, Note_on_c, 8, 46, 100
13, 10623, Note_on_c, 8, 41, 0
13, 10676, Note_on_c, 8, 46, 0
13, 10683, Note_on_c, 8, 41, 100
13, 10799, Note_on_c, 8, 41, 0
13, 10800, Note_on_c, 8, 41, 100
13, 10950, Note_on_c, 8, 41, 0
13, 10980, Note_on_c, 8, 36, 100
13, 11026, Note_on_c, 8, 36, 0
13, 11040, Note_on_c, 8, 29, 100
13, 11340, Note_on_c, 8, 36, 100
13, 11345, Note_on_c, 8, 29, 0
13, 11395, Note_on_c, 8, 36, 0
13, 11400, Note_on_c, 8, 41, 100
13, 11520, Note_on_c, 8, 40, 100
13, 11525, Note_on_c, 8, 41, 0
13, 11699, Note_on_c, 8, 40, 0
13, 11700, Note_on_c, 8, 40, 100
13, 11759, Note_on_c, 8, 40, 0
13, 11760, Note_on_c, 8, 40, 100
13, 11999, Note_on_c, 8, 40, 0
13, 12000, Note_on_c, 8, 40, 100
13, 12179, Note_on_c, 8, 40, 0
13, 12180, Note_on_c, 8, 40, 100
13, 12240, Note_on_c, 8, 47, 100
13, 12245, Note_on_c, 8, 40, 0
13, 12360, Note_on_c, 8, 52, 100
13, 12378, Note_on_c, 8, 47, 0
13, 12479, Note_on_c, 8, 52, 0
13, 12480, Note_on_c, 8, 40, 100
13, 12659, Note_on_c, 8, 40, 0
13, 12660, Note_on_c, 8, 40, 100
13, 12719, Note_on_c, 8, 40, 0
13, 12720, Note_on_c, 8, 40, 100
13, 12899, Note_on_c, 8, 40, 0
13, 12900, Note_on_c, 8, 40, 100
13, 12960, Note_on_c, 8, 47, 100
13, 12965, Note_on_c, 8, 40, 0
13, 13080, Note_on_c, 8, 52, 100
13, 13094, Note_on_c, 8, 47, 0
13, 13199, Note_on_c, 8, 52, 0
13, 13200, Note_on_c, 8, 40, 100
13, 13439, Note_on_c, 8, 40, 0
13, 13440, Note_on_c, 8, 40, 100
13, 13675, Note_on_c, 8, 40, 0
13, 13680, Note_on_c, 8, 28, 100
13, 15069, Note_on_c, 8, 36, 100
13, 15074, Note_on_c, 8, 28, 0
13, 15120, Note_on_c, 8, 41, 100
13, 15136, Note_on_c, 8, 36, 0
13, 15360, Note_on_c, 8, 29, 100
13, 15361, Note_on_c, 8, 41, 0
13, 15465, Note_on_c, 8, 29, 0
13, 15480, Note_on_c, 8, 33, 100
13, 15720, Note_on_c, 8, 34, 100
13, 15723, Note_on_c, 8, 33, 0
13, 15780, Note_on_c, 8, 35, 100
13, 15787, Note_on_c, 8, 34, 0
13, 15819, Note_on_c, 8, 35, 0
13, 15840, Note_on_c, 8, 36, 100
13, 15958, Note_on_c, 8, 36, 0
13, 15960, Note_on_c, 8, 43, 100
13, 16078, Note_on_c, 8, 43, 0
13, 16080, Note_on_c, 8, 48, 100
13, 16260, Note_on_c, 8, 43, 100
13, 16266, Note_on_c, 8, 48, 0
13, 16320, Note_on_c, 8, 36, 100
13, 16329, Note_on_c, 8, 43, 0
13, 16438, Note_on_c, 8, 36, 0
13, 16440, Note_on_c, 8, 36, 100
13, 16560, Note_on_c, 8, 46, 100
13, 16573, Note_on_c, 8, 36, 0
13, 16740, Note_on_c, 8, 41, 100
13, 16741, Note_on_c, 8, 46, 0
13, 16800, Note_on_c, 8, 34, 100
13, 16809, Note_on_c, 8, 41, 0
13, 17100, Note_on_c, 8, 41, 100
13, 17109, Note_on_c, 8, 34, 0
13, 17146, Note_on_c, 8, 41, 0
13, 17160, Note_on_c, 8, 34, 100
13, 17280, Note_on_c, 8, 45, 100
13, 17282, Note_on_c, 8, 34, 0
13, 17465, Note_on_c, 8, 40, 100
13, 17468, Note_on_c, 8, 45, 0
13, 17520, Note_on_c, 8, 36, 100
13, 17530, Note_on_c, 8, 40, 0
13, 17643, Note_on_c, 8, 35, 100
13, 17650, Note_on_c, 8, 36, 0
13, 17767, Note_on_c, 8, 33, 100
13, 17770, Note_on_c, 8, 35, 0
13, 18000, Note_on_c, 8, 43, 100
13, 18010, Note_on_c, 8, 33, 0
13, 18239, Note_on_c, 8, 43, 0
13, 18240, Note_on_c, 8, 50, 100
13, 18359, Note_on_c, 8, 50, 0
13, 18360, Note_on_c, 8, 55, 100
13, 18540, Note_on_c, 8, 50, 100
13, 18562, Note_on_c, 8, 55, 0
13, 18599, Note_on_c, 8, 50, 0
13, 18600, Note_on_c, 8, 43, 100
13, 18719, Note_on_c, 8, 43, 0
13, 18720, Note_on_c, 8, 38, 100
13, 18959, Note_on_c, 8, 38, 0
13, 18960, Note_on_c, 8, 45, 100
13, 19080, Note_on_c, 8, 48, 100
13, 19089, Note_on_c, 8, 45, 0
13, 19139, Note_on_c, 8, 48, 0
13, 19140, Note_on_c, 8, 45, 100
13, 19194, Pitch_bend_c, 8, 9011
13, 19195, Pitch_bend_c, 8, 10353
13, 19196, Pitch_bend_c, 8, 11059
13, 19197, Pitch_bend_c, 8, 11606
13, 19199, Pitch_bend_c, 8, 12697
13, 19200, Pitch_bend_c, 8, 13926
13, 19200, Note_on_c, 8, 48, 100
13, 19203, Pitch_bend_c, 8, 15702
13, 19205, Pitch_bend_c, 8, 16383
13, 19206, Note_on_c, 8, 45, 0
13, 19254, Pitch_bend_c, 8, 16269
13, 19255, Pitch_bend_c, 8, 15702
13, 19256, Pitch_bend_c, 8, 15155
13, 19257, Pitch_bend_c, 8, 14745
13, 19259, Pitch_bend_c, 8, 14063
13, 19260, Pitch_bend_c, 8, 13426
13, 19262, Pitch_bend_c, 8, 12697
13, 19263, Pitch_bend_c, 8, 12151
13, 19264, Pitch_bend_c, 8, 11606
13, 19265, Pitch_bend_c, 8, 11196
13, 19266, Pitch_bend_c, 8, 10581
13, 19268, Pitch_bend_c, 8, 9967
13, 19269, Pitch_bend_c, 8, 9284
13, 19270, Pitch_bend_c, 8, 8465
13, 19271, Pitch_bend_c, 8, 8192
13, 19319, Note_on_c, 8, 48, 0
13, 19320, Note_on_c, 8, 45, 100
13, 19435, Note_on_c, 8, 45, 0
13, 19440, Note_on_c, 8, 36, 100
13, 19669, Pitch_bend_c, 8, 0
13, 19679, Note_on_c, 8, 36, 0
13, 19680, Note_on_c, 8, 43, 100
13, 19746, Pitch_bend_c, 8, 143
13, 19748, Pitch_bend_c, 8, 974
13, 19749, Pitch_bend_c, 8, 1332
13, 19750, Pitch_bend_c, 8, 1929
13, 19751, Pitch_bend_c, 8, 2732
13, 19752, Pitch_bend_c, 8, 3300
13, 19753, Pitch_bend_c, 8, 3858
13, 19755, Pitch_bend_c, 8, 4780
13, 19756, Pitch_bend_c, 8, 6144
13, 19757, Pitch_bend_c, 8, 6657
13, 19758, Pitch_bend_c, 8, 7476
13, 19760, Pitch_bend_c, 8, 8073
13, 19761, Pitch_bend_c, 8, 8192
13, 19800, Note_on_c, 8, 48, 100
13, 19802, Note_on_c, 8, 43, 0
13, 20039, Note_on_c, 8, 48, 0
13, 20040, Note_on_c, 8, 36, 100
13, 20160, Note_on_c, 8, 35, 100
13, 20165, Note_on_c, 8, 36, 0
13, 20399, Note_on_c, 8, 35, 0
13, 20400, Note_on_c, 8, 42, 100
13, 20520, Note_on_c, 8, 45, 100
13, 20529, Note_on_c, 8, 42, 0
13, 20579, Note_on_c, 8, 45, 0
13, 20580, Note_on_c, 8, 42, 100
13, 20634, Pitch_bend_c, 8, 9011
13, 20635, Pitch_bend_c, 8, 10353
13, 20636, Pitch_bend_c, 8, 11059
13, 20637, Pitch_bend_c, 8, 11606
13, 20639, Pitch_bend_c, 8, 12697
13, 20640, Pitch_bend_c, 8, 13926
13, 20640, Note_on_c, 8, 45, 100
13, 20643, Pitch_bend_c, 8, 15702
13, 20645, Pitch_bend_c, 8, 16383
13, 20646, Note_on_c, 8, 42, 0
13, 20694, Pitch_bend_c, 8, 16269
13, 20695, Pitch_bend_c, 8, 15702
13, 20696, Pitch_bend_c, 8, 15155
13, 20697, Pitch_bend_c, 8, 14745
13, 20699, Pitch_bend_c, 8, 14063
13, 20700, Pitch_bend_c, 8, 13426
13, 20702, Pitch_bend_c, 8, 12697
13, 20703, Pitch_bend_c, 8, 12151
13, 20704, Pitch_bend_c, 8, 11606
13, 20705, Pitch_bend_c, 8, 11196
13, 20706, Pitch_bend_c, 8, 10581
13, 20708, Pitch_bend_c, 8, 9967
13, 20709, Pitch_bend_c, 8, 9284
13, 20710, Pitch_bend_c, 8, 8465
13, 20711, Pitch_bend_c, 8, 8192
13, 20759, Note_on_c, 8, 45, 0
13, 20760, Note_on_c, 8, 42, 100
13, 20875, Note_on_c, 8, 42, 0
13, 20880, Note_on_c, 8, 33, 100
13, 21059, Note_on_c, 8, 33, 0
13, 21060, Note_on_c, 8, 33, 100
13, 21101, Note_on_c, 8, 33, 0
13, 21120, Note_on_c, 8, 33, 100
13, 21286, Note_on_c, 8, 33, 0
13, 21300, Note_on_c, 8, 33, 100
13, 21342, Note_on_c, 8, 33, 0
13, 21360, Note_on_c, 8, 33, 100
13, 21473, Note_on_c, 8, 33, 0
13, 21480, Note_on_c, 8, 38, 100
13, 21600, Note_on_c, 8, 39, 100
13, 21613, Note_on_c, 8, 38, 0
13, 21770, Note_on_c, 8, 39, 0
13, 21780, Note_on_c, 8, 39, 100
13, 21821, Note_on_c, 8, 39, 0
13, 21840, Note_on_c, 8, 39, 100
13, 21999, Note_on_c, 8, 39, 0
13, 22020, Note_on_c, 8, 39, 100
13, 22063, Note_on_c, 8, 39, 0
13, 22080, Note_on_c, 8, 39, 100
13, 22238, Note_on_c, 8, 39, 0
13, 22260, Note_on_c, 8, 39, 100
13, 22313, Note_on_c, 8, 39, 0
13, 22320, Note_on_c, 8, 38, 100
13, 22490, Note_on_c, 8, 38, 0
13, 22500, Note_on_c, 8, 38, 100
13, 22541, Note_on_c, 8, 38, 0
13, 22560, Note_on_c, 8, 38, 100
13, 22719, Note_on_c, 8, 38, 0
13, 22740, Note_on_c, 8, 38, 100
13, 22783, Note_on_c, 8, 38, 0
13, 22800, Note_on_c, 8, 38, 100
13, 22958, Note_on_c, 8, 38, 0
13, 22980, Note_on_c, 8, 38, 100
13, 23033, Note_on_c, 8, 38, 0
13, 23040, Note_on_c, 8, 32, 100
13, 23200, Note_on_c, 8, 32, 0
13, 23220, Note_on_c, 8, 32, 100
13, 23257, Note_on_c, 8, 32, 0
13, 23280, Note_on_c, 8, 32, 100
13, 23435, Note_on_c, 8, 32, 0
13, 23460, Note_on_c, 8, 32, 100
13, 23498, Note_on_c, 8, 32, 0
13, 23520, Note_on_c, 8, 32, 100
13, 23669, Note_on_c, 8, 32, 0
13, 23700, Note_on_c, 8, 32, 100
13, 23760, Note_on_c, 8, 31, 100
13, 23785, Note_on_c, 8, 32, 0
13, 23911, Note_on_c, 8, 31, 0
13, 23940, Note_on_c, 8, 31, 100
13, 23998, Note_on_c, 8, 31, 0
13, 24000, Note_on_c, 8, 38, 100
13, 24120, Note_on_c, 8, 43, 100
13, 24126, Note_on_c, 8, 38, 0
13, 24297, Note_on_c, 8, 43, 0
13, 24300, Note_on_c, 8, 38, 100
13, 24354, Note_on_c, 8, 38, 0
13, 24360, Note_on_c, 8, 31, 100
13, 24450, Note_on_c, 8, 31, 0
13, 24480, Note_on_c, 8, 34, 100
13, 24720, Note_on_c, 8, 38, 100
13, 24721, Note_on_c, 8, 34, 0
13, 24840, Note_on_c, 8, 39, 100
13, 24843, Note_on_c, 8, 38, 0
13, 24900, Note_on_c, 8, 39, 0
13, 24900, Note_on_c, 8, 40, 100
13, 24962, Note_on_c, 8, 40, 0
13, 24963, Note_on_c, 8, 41, 100
13, 25020, Note_on_c, 8, 46, 100
13, 25023, Note_on_c, 8, 41, 0
13, 25076, Note_on_c, 8, 46, 0
13, 25083, Note_on_c, 8, 41, 100
13, 25199, Note_on_c, 8, 41, 0
13, 25200, Note_on_c, 8, 41, 100
13, 25350, Note_on_c, 8, 41, 0
13, 25380, Note_on_c, 8, 36, 100
13, 25426, Note_on_c, 8, 36, 0
13, 25440, Note_on_c, 8, 29, 100
13, 25740, Note_on_c, 8, 36, 100
13, 25745, Note_on_c, 8, 29, 0
13, 25795, Note_on_c, 8, 36, 0
13, 25800, Note_on_c, 8, 41, 100
13, 25920, Note_on_c, 8, 40, 100
13, 25925, Note_on_c, 8, 41, 0
13, 26092, Note_on_c, 8, 40, 0
13, 26100, Note_on_c, 8, 47, 100
13, 26160, Note_on_c, 8, 52, 100
13, 26162, Note_on_c, 8, 47, 0
13, 26399, Note_on_c, 8, 52, 0
13, 26400, Note_on_c, 8, 40, 100
13, 26579, Note_on_c, 8, 40, 0
13, 26580, Note_on_c, 8, 40, 100
13, 26640, Note_on_c, 8, 47, 100
13, 26645, Note_on_c, 8, 40, 0
13, 26752, Note_on_c, 8, 47, 0
13, 26760, Note_on_c, 8, 52, 100
13, 26879, Note_on_c, 8, 52, 0
13, 26880, Note_on_c, 8, 40, 100
13, 27052, Note_on_c, 8, 40, 0
13, 27060, Note_on_c, 8, 40, 100
13, 27119, Note_on_c, 8, 40, 0
13, 27120, Note_on_c, 8, 40, 100
13, 27299, Note_on_c, 8, 40, 0
13, 27300, Note_on_c, 8, 40, 100
13, 27360, Note_on_c, 8, 47, 100
13, 27365, Note_on_c, 8, 40, 0
13, 27472, Note_on_c, 8, 47, 0
13, 27480, Note_on_c, 8, 52, 100
13, 27599, Note_on_c, 8, 52, 0
13, 27600, Note_on_c, 8, 40, 100
13, 27835, Note_on_c, 8, 40, 0
13, 27840, Note_on_c, 8, 40, 100
13, 28075, Note_on_c, 8, 40, 0
13, 28080, Note_on_c, 8, 28, 100
13, 29517, Note_on_c, 8, 28, 0
13, 29520, Note_on_c, 8, 33, 85
13, 30205, Note_on_c, 8, 33, 0
13, 30240, Note_on_c, 8, 32, 100
13, 30960, Note_on_c, 8, 31, 77
13, 30987, Note_on_c, 8, 32, 0
13, 31661, Note_on_c, 8, 31, 0
13, 31680, Note_on_c, 8, 37, 74
13, 32393, Note_on_c, 8, 37, 0
13, 32400, Note_on_c, 8, 38, 62
13, 33120, Note_on_c, 8, 37, 80
13, 33135, Note_on_c, 8, 38, 0
13, 33821, Note_on_c, 8, 37, 0
13, 33840, Note_on_c, 8, 37, 74
13, 34560, Note_on_c, 8, 39, 63
13, 34567, Note_on_c, 8, 37, 0
13, 34675, Note_on_c, 8, 39, 0
13, 34680, Note_on_c, 8, 38, 47
13, 34795, Note_on_c, 8, 38, 0
13, 34800, Note_on_c, 8, 38, 68
13, 34916, Note_on_c, 8, 38, 0
13, 34920, Note_on_c, 8, 39, 66
13, 35040, Note_on_c, 8, 41, 62
13, 35048, Note_on_c, 8, 39, 0
13, 35157, Note_on_c, 8, 41, 0
13, 35160, Note_on_c, 8, 39, 63
13, 35280, Note_on_c, 8, 36, 80
13, 35281, Note_on_c, 8, 39, 0
13, 36000, Note_on_c, 8, 43, 56
13, 36011, Note_on_c, 8, 36, 0
13, 36715, Note_on_c, 8, 43, 0
13, 36720, Note_on_c, 8, 35, 65
13, 37436, Note_on_c, 8, 32, 113
13, 37450, Note_on_c, 8, 35, 0
13, 38128, Note_on_c, 8, 32, 0
13, 38160, Note_on_c, 8, 41, 64
13, 38756, Note_on_c, 8, 41, 0
13, 38880, Note_on_c, 8, 38, 87
13, 39568, Note_on_c, 8, 38, 0
13, 39600, Note_on_c, 8, 37, 92
13, 39958, Note_on_c, 8, 37, 0
13, 39960, Note_on_c, 8, 42, 85
13, 40320, Note_on_c, 8, 47, 78
13, 40337, Note_on_c, 8, 42, 0
13, 40676, Note_on_c, 8, 47, 0
13, 40680, Note_on_c, 8, 40, 87
13, 41039, Note_on_c, 8, 40, 0
13, 41040, Note_on_c, 8, 36, 110
13, 41040, Program_c, 8, 35
13, 41160, Note_on_c, 8, 40, 87
13, 41174, Note_on_c, 8, 36, 0
13, 41340, Note_on_c, 8, 41, 90
13, 41352, Note_on_c, 8, 40, 0
13, 41371, Note_on_c, 8, 41, 0
13, 41400, Note_on_c, 8, 41, 73
13, 41460, Note_on_c, 8, 43, 87
13, 41470, Note_on_c, 8, 41, 0
13, 41502, Note_on_c, 8, 43, 0
13, 41520, Note_on_c, 8, 43, 68
13, 41558, Note_on_c, 8, 43, 0
13, 41580, Note_on_c, 8, 43, 56
13, 41640, Note_on_c, 8, 48, 106
13, 41669, Note_on_c, 8, 43, 0
13, 41862, Note_on_c, 8, 48, 0
13, 41880, Note_on_c, 8, 48, 67
13, 41920, Note_on_c, 8, 48, 0
13, 41940, Note_on_c, 8, 48, 65
13, 41980, Note_on_c, 8, 48, 0
13, 42000, Note_on_c, 8, 48, 67
13, 42120, Note_on_c, 8, 48, 0
13, 42120, Note_on_c, 8, 46, 92
13, 42302, Note_on_c, 8, 46, 0
13, 42360, Note_on_c, 8, 46, 74
13, 42419, Note_on_c, 8, 46, 0
13, 42420, Note_on_c, 8, 43, 94
13, 42600, Note_on_c, 8, 40, 72
13, 42622, Note_on_c, 8, 43, 0
13, 42656, Note_on_c, 8, 40, 0
13, 42660, Note_on_c, 8, 43, 59
13, 42720, Note_on_c, 8, 38, 77
13, 42744, Note_on_c, 8, 43, 0
13, 42802, Note_on_c, 8, 38, 0
13, 42840, Note_on_c, 8, 36, 97
13, 43066, Note_on_c, 8, 36, 0
13, 43080, Note_on_c, 8, 36, 56
13, 43140, Note_on_c, 8, 31, 84
13, 43147, Note_on_c, 8, 36, 0
13, 43236, Note_on_c, 8, 31, 0
13, 43260, Note_on_c, 8, 31, 59
13, 43355, Note_on_c, 8, 31, 0
13, 43380, Note_on_c, 8, 34, 72
13, 43443, Note_on_c, 8, 36, 90
13, 43446, Note_on_c, 8, 34, 0
13, 43556, Note_on_c, 8, 36, 0
13, 43620, Note_on_c, 8, 36, 68
13, 43655, Note_on_c, 8, 36, 0
13, 43680, Note_on_c, 8, 36, 66
13, 43740, Note_on_c, 8, 39, 97
13, 43747, Note_on_c, 8, 36, 0
13, 43796, Note_on_c, 8, 39, 0
13, 43800, Note_on_c, 8, 40, 52
13, 43860, Note_on_c, 8, 43, 76
13, 43867, Note_on_c, 8, 40, 0
13, 43956, Note_on_c, 8, 43, 0
13, 43980, Note_on_c, 8, 43, 59
13, 44034, Note_on_c, 8, 43, 0
13, 44040, Note_on_c, 8, 45, 63
13, 44091, Note_on_c, 8, 45, 0
13, 44100, Note_on_c, 8, 43, 53
13, 44138, Note_on_c, 8, 43, 0
13, 44160, Note_on_c, 8, 46, 94
13, 44220, Note_on_c, 8, 43, 43
13, 44230, Note_on_c, 8, 46, 0
13, 44249, Note_on_c, 8, 43, 0
13, 44250, Note_on_c, 8, 41, 52
13, 44277, Note_on_c, 8, 41, 0
13, 44310, Note_on_c, 8, 43, 60
13, 44370, Note_on_c, 8, 48, 94
13, 44375, Note_on_c, 8, 43, 0
13, 44399, Note_on_c, 8, 48, 0
13, 44400, Note_on_c, 8, 48, 94
13, 44519, Note_on_c, 8, 48, 0
13, 44520, Note_on_c, 8, 48, 77
13, 44687, Note_on_c, 8, 48, 0
13, 44700, Note_on_c, 8, 48, 68
13, 44820, Note_on_c, 8, 43, 58
13, 44823, Note_on_c, 8, 48, 0
13, 44880, Note_on_c, 8, 36, 77
13, 44908, Note_on_c, 8, 43, 0
13, 44986, Note_on_c, 8, 36, 0
13, 45000, Note_on_c, 8, 36, 67
13, 45180, Note_on_c, 8, 31, 78
13, 45191, Note_on_c, 8, 36, 0
13, 45236, Note_on_c, 8, 31, 0
13, 45240, Note_on_c, 8, 34, 73
13, 45282, Note_on_c, 8, 34, 0
13, 45300, Note_on_c, 8, 31, 38
13, 45316, Note_on_c, 8, 31, 0
13, 45360, Note_on_c, 8, 36, 113
13, 45465, Note_on_c, 8, 36, 0
13, 45480, Note_on_c, 8, 36, 80
13, 45508, Note_on_c, 8, 36, 0
13, 45540, Note_on_c, 8, 36, 103
13, 45648, Note_on_c, 8, 36, 0
13, 45660, Note_on_c, 8, 36, 67
13, 45780, Note_on_c, 8, 43, 59
13, 45782, Note_on_c, 8, 36, 0
13, 45840, Note_on_c, 8, 48, 85
13, 45852, Note_on_c, 8, 43, 0
13, 45959, Note_on_c, 8, 48, 0
13, 45960, Note_on_c, 8, 48, 62
13, 45995, Note_on_c, 8, 48, 0
13, 46020, Note_on_c, 8, 48, 72
13, 46125, Note_on_c, 8, 48, 0
13, 46140, Note_on_c, 8, 48, 60
13, 46181, Note_on_c, 8, 48, 0
13, 46200, Note_on_c, 8, 48, 65
13, 46238, Note_on_c, 8, 48, 0
13, 46260, Note_on_c, 8, 48, 97
13, 46299, Note_on_c, 8, 48, 0
13, 46320, Note_on_c, 8, 48, 106
13, 46429, Note_on_c, 8, 48, 0
13, 46470, Note_on_c, 8, 48, 73
13, 46509, Note_on_c, 8, 48, 0
13, 46560, Note_on_c, 8, 48, 94
13, 46584, Note_on_c, 8, 48, 0
13, 46590, Note_on_c, 8, 48, 78
13, 46634, Note_on_c, 8, 48, 0
13, 46650, Note_on_c, 8, 48, 59
13, 46678, Note_on_c, 8, 48, 0
13, 46680, Note_on_c, 8, 48, 97
13, 46734, Note_on_c, 8, 48, 0
13, 46740, Note_on_c, 8, 43, 87
13, 46789, Note_on_c, 8, 43, 0
13, 46800, Note_on_c, 8, 36, 103
13, 46943, Note_on_c, 8, 36, 0
13, 46980, Note_on_c, 8, 36, 77
13, 47168, Note_on_c, 8, 36, 0
13, 47190, Note_on_c, 8, 36, 59
13, 47264, Note_on_c, 8, 36, 0
13, 47280, Note_on_c, 8, 36, 65
13, 47580, Note_on_c, 8, 43, 54
13, 47604, Note_on_c, 8, 36, 0
13, 47609, Note_on_c, 8, 43, 0
13, 47610, Note_on_c, 8, 43, 64
13, 47744, Note_on_c, 8, 43, 0
13, 47760, Note_on_c, 8, 48, 82
13, 47921, Note_on_c, 8, 48, 0
13, 47940, Note_on_c, 8, 48, 78
13, 47975, Note_on_c, 8, 48, 0
13, 48000, Note_on_c, 8, 48, 77
13, 48029, Note_on_c, 8, 48, 0
13, 48060, Note_on_c, 8, 48, 73
13, 48120, Note_on_c, 8, 43, 85
13, 48129, Note_on_c, 8, 48, 0
13, 48155, Note_on_c, 8, 43, 0
13, 48180, Note_on_c, 8, 43, 63
13, 48216, Note_on_c, 8, 43, 0
13, 48240, Note_on_c, 8, 35, 110
13, 48540, Note_on_c, 8, 40, 97
13, 48542, Note_on_c, 8, 35, 0
13, 48702, Note_on_c, 8, 40, 0
13, 48720, Note_on_c, 8, 42, 84
13, 48888, Note_on_c, 8, 42, 0
13, 48900, Note_on_c, 8, 42, 73
13, 48931, Note_on_c, 8, 42, 0
13, 48960, Note_on_c, 8, 42, 61
13, 49015, Note_on_c, 8, 42, 0
13, 49020, Note_on_c, 8, 45, 74
13, 49080, Note_on_c, 8, 42, 48
13, 49081, Note_on_c, 8, 45, 0
13, 49140, Note_on_c, 8, 47, 82
13, 49143, Note_on_c, 8, 42, 0
13, 49306, Note_on_c, 8, 47, 0
13, 49320, Note_on_c, 8, 47, 74
13, 49380, Note_on_c, 8, 42, 64
13, 49387, Note_on_c, 8, 47, 0
13, 49424, Note_on_c, 8, 42, 0
13, 49440, Note_on_c, 8, 45, 84
13, 49500, Note_on_c, 8, 42, 70
13, 49506, Note_on_c, 8, 45, 0
13, 49560, Note_on_c, 8, 40, 58
13, 49568, Note_on_c, 8, 42, 0
13, 49620, Note_on_c, 8, 42, 59
13, 49622, Note_on_c, 8, 40, 0
13, 49678, Note_on_c, 8, 42, 0
13, 49680, Note_on_c, 8, 38, 72
13, 49800, Note_on_c, 8, 42, 78
13, 49815, Note_on_c, 8, 38, 0
13, 49860, Note_on_c, 8, 40, 90
13, 49866, Note_on_c, 8, 42, 0
13, 49967, Note_on_c, 8, 40, 0
13, 49980, Note_on_c, 8, 42, 100
13, 50028, Note_on_c, 8, 42, 0
13, 50040, Note_on_c, 8, 38, 85
13, 50094, Note_on_c, 8, 38, 0
13, 50100, Note_on_c, 8, 42, 82
13, 50160, Note_on_c, 8, 42, 0
13, 50160, Note_on_c, 8, 35, 77
13, 50274, Note_on_c, 8, 35, 0
13, 50310, Note_on_c, 8, 35, 56
13, 50330, Note_on_c, 8, 35, 0
13, 50340, Note_on_c, 8, 35, 97
13, 50427, Note_on_c, 8, 35, 0
13, 50460, Note_on_c, 8, 28, 90
13, 50611, Note_on_c, 8, 28, 0
13, 50640, Note_on_c, 8, 30, 127
13, 50777, Note_on_c, 8, 30, 0
13, 50820, Note_on_c, 8, 30, 110
13, 50910, Note_on_c, 8, 30, 0
13, 50940, Note_on_c, 8, 30, 84
13, 50970, Note_on_c, 8, 30, 0
13, 51000, Note_on_c, 8, 30, 100
13, 51040, Note_on_c, 8, 30, 0
13, 51060, Note_on_c, 8, 33, 74
13, 51120, Note_on_c, 8, 35, 92
13, 51131, Note_on_c, 8, 33, 0
13, 51273, Note_on_c, 8, 35, 0
13, 51300, Note_on_c, 8, 35, 87
13, 51420, Note_on_c, 8, 37, 110
13, 51421, Note_on_c, 8, 35, 0
13, 51540, Note_on_c, 8, 38, 76
13, 51548, Note_on_c, 8, 37, 0
13, 51702, Note_on_c, 8, 38, 0
13, 51720, Note_on_c, 8, 40, 78
13, 51840, Note_on_c, 8, 42, 80
13, 51850, Note_on_c, 8, 40, 0
13, 51941, Note_on_c, 8, 42, 0
13, 51960, Note_on_c, 8, 42, 110
13, 52080, Note_on_c, 8, 47, 57
13, 52083, Note_on_c, 8, 42, 0
13, 52207, Note_on_c, 8, 47, 0
13, 52260, Note_on_c, 8, 47, 94
13, 52303, Note_on_c, 8, 47, 0
13, 52320, Note_on_c, 8, 47, 72
13, 52440, Note_on_c, 8, 45, 59
13, 52458, Note_on_c, 8, 47, 0
13, 52518, Note_on_c, 8, 45, 0
13, 52560, Note_on_c, 8, 42, 100
13, 52703, Note_on_c, 8, 42, 0
13, 52740, Note_on_c, 8, 42, 118
13, 52769, Note_on_c, 8, 42, 0
13, 52770, Note_on_c, 8, 42, 66
13, 52810, Note_on_c, 8, 42, 0
13, 52860, Note_on_c, 8, 42, 57
13, 52902, Note_on_c, 8, 42, 0
13, 52920, Note_on_c, 8, 42, 57
13, 52963, Note_on_c, 8, 42, 0
13, 52980, Note_on_c, 8, 42, 73
13, 53011, Note_on_c, 8, 42, 0
13, 53040, Note_on_c, 8, 42, 110
13, 53141, Note_on_c, 8, 42, 0
13, 53160, Note_on_c, 8, 42, 62
13, 53187, Note_on_c, 8, 42, 0
13, 53220, Note_on_c, 8, 47, 106
13, 53393, Note_on_c, 8, 47, 0
13, 53400, Note_on_c, 8, 42, 106
13, 53515, Note_on_c, 8, 42, 0
13, 53520, Note_on_c, 8, 35, 92
13, 53681, Note_on_c, 8, 35, 0
13, 53700, Note_on_c, 8, 35, 85
13, 53829, Note_on_c, 8, 35, 0
13, 53880, Note_on_c, 8, 33, 76
13, 53921, Note_on_c, 8, 33, 0
13, 54000, Note_on_c, 8, 35, 113
13, 54117, Note_on_c, 8, 35, 0
13, 54120, Note_on_c, 8, 35, 65
13, 54149, Note_on_c, 8, 35, 0
13, 54180, Note_on_c, 8, 35, 100
13, 54279, Note_on_c, 8, 35, 0
13, 54300, Note_on_c, 8, 38, 94
13, 54446, Note_on_c, 8, 38, 0
13, 54480, Note_on_c, 8, 40, 73
13, 54581, Note_on_c, 8, 40, 0
13, 54600, Note_on_c, 8, 40, 59
13, 54650, Note_on_c, 8, 40, 0
13, 54660, Note_on_c, 8, 42, 110
13, 54737, Note_on_c, 8, 42, 0
13, 54750, Note_on_c, 8, 42, 61
13, 54793, Note_on_c, 8, 42, 0
13, 54810, Note_on_c, 8, 45, 80
13, 54876, Note_on_c, 8, 45, 0
13, 54900, Note_on_c, 8, 42, 55
13, 54954, Note_on_c, 8, 42, 0
13, 54960, Note_on_c, 8, 47, 100
13, 55074, Note_on_c, 8, 47, 0
13, 55080, Note_on_c, 8, 47, 55
13, 55106, Note_on_c, 8, 47, 0
13, 55140, Note_on_c, 8, 47, 53
13, 55240, Note_on_c, 8, 47, 0
13, 55260, Note_on_c, 8, 47, 68
13, 55290, Note_on_c, 8, 38, 85
13, 55320, Note_on_c, 8, 47, 0
13, 55404, Note_on_c, 8, 38, 0
13, 55440, Note_on_c, 8, 40, 76
13, 55470, Note_on_c, 8, 40, 0
13, 55500, Note_on_c, 8, 40, 58
13, 55530, Note_on_c, 8, 42, 106
13, 55542, Note_on_c, 8, 40, 0
13, 55569, Note_on_c, 8, 42, 0
13, 55590, Note_on_c, 8, 42, 40
13, 55633, Note_on_c, 8, 42, 0
13, 55680, Note_on_c, 8, 47, 84
13, 55728, Note_on_c, 8, 47, 0
13, 55740, Note_on_c, 8, 47, 61
13, 55783, Note_on_c, 8, 47, 0
13, 55800, Note_on_c, 8, 47, 74
13, 55829, Note_on_c, 8, 47, 0
13, 55830, Note_on_c, 8, 47, 62
13, 55870, Note_on_c, 8, 47, 0
13, 55920, Note_on_c, 8, 34, 122
13, 56100, Note_on_c, 8, 29, 92
13, 56113, Note_on_c, 8, 34, 0
13, 56160, Note_on_c, 8, 34, 127
13, 56164, Note_on_c, 8, 29, 0
13, 56211, Note_on_c, 8, 34, 0
13, 56220, Note_on_c, 8, 34, 97
13, 56324, Note_on_c, 8, 34, 0
13, 56340, Note_on_c, 8, 34, 122
13, 56450, Note_on_c, 8, 34, 0
13, 56460, Note_on_c, 8, 34, 110
13, 56562, Note_on_c, 8, 34, 0
13, 56580, Note_on_c, 8, 38, 122
13, 56699, Note_on_c, 8, 38, 0
13, 56700, Note_on_c, 8, 39, 113
13, 56760, Note_on_c, 8, 40, 100
13, 56770, Note_on_c, 8, 39, 0
13, 56816, Note_on_c, 8, 40, 0
13, 56820, Note_on_c, 8, 41, 97
13, 56870, Note_on_c, 8, 41, 0
13, 56880, Note_on_c, 8, 46, 122
13, 57045, Note_on_c, 8, 46, 0
13, 57060, Note_on_c, 8, 41, 110
13, 57111, Note_on_c, 8, 41, 0
13, 57120, Note_on_c, 8, 46, 122
13, 57300, Note_on_c, 8, 41, 76
13, 57306, Note_on_c, 8, 46, 0
13, 57360, Note_on_c, 8, 46, 127
13, 57367, Note_on_c, 8, 41, 0
13, 57379, Note_on_c, 8, 46, 0
13, 57390, Note_on_c, 8, 36, 73
13, 57402, Note_on_c, 8, 36, 0
13, 57420, Note_on_c, 8, 36, 76
13, 57460, Note_on_c, 8, 36, 0
13, 57480, Note_on_c, 8, 37, 122
13, 57494, Note_on_c, 8, 37, 0
13, 57510, Note_on_c, 8, 37, 87
13, 57523, Note_on_c, 8, 37, 0
13, 57540, Note_on_c, 8, 37, 127
13, 57585, Note_on_c, 8, 37, 0
13, 57600, Note_on_c, 8, 38, 100
13, 57642, Note_on_c, 8, 38, 0
13, 57660, Note_on_c, 8, 38, 76
13, 57700, Note_on_c, 8, 38, 0
13, 57720, Note_on_c, 8, 40, 85
13, 57759, Note_on_c, 8, 40, 0
13, 57780, Note_on_c, 8, 41, 100
13, 57823, Note_on_c, 8, 41, 0
13, 57840, Note_on_c, 8, 46, 100
13, 58007, Note_on_c, 8, 46, 0
13, 58020, Note_on_c, 8, 38, 76
13, 58080, Note_on_c, 8, 38, 0
13, 58080, Note_on_c, 8, 34, 103
13, 58122, Note_on_c, 8, 34, 0
13, 58140, Note_on_c, 8, 34, 76
13, 58254, Note_on_c, 8, 34, 0
13, 58260, Note_on_c, 8, 38, 100
13, 58315, Note_on_c, 8, 38, 0
13, 58320, Note_on_c, 8, 34, 110
13, 58494, Note_on_c, 8, 34, 0
13, 58500, Note_on_c, 8, 38, 103
13, 58542, Note_on_c, 8, 38, 0
13, 58560, Note_on_c, 8, 38, 67
13, 58604, Note_on_c, 8, 38, 0
13, 58620, Note_on_c, 8, 38, 87
13, 58662, Note_on_c, 8, 38, 0
13, 58680, Note_on_c, 8, 40, 94
13, 58725, Note_on_c, 8, 40, 0
13, 58740, Note_on_c, 8, 41, 97
13, 58770, Note_on_c, 8, 41, 0
13, 58800, Note_on_c, 8, 45, 106
13, 58967, Note_on_c, 8, 45, 0
13, 58980, Note_on_c, 8, 45, 92
13, 59022, Note_on_c, 8, 45, 0
13, 59040, Note_on_c, 8, 46, 87
13, 59100, Note_on_c, 8, 41, 92
13, 59110, Note_on_c, 8, 46, 0
13, 59138, Note_on_c, 8, 41, 0
13, 59160, Note_on_c, 8, 41, 68
13, 59215, Note_on_c, 8, 41, 0
13, 59220, Note_on_c, 8, 46, 65
13, 59265, Note_on_c, 8, 46, 0
13, 59280, Note_on_c, 8, 46, 100
13, 59385, Note_on_c, 8, 46, 0
13, 59400, Note_on_c, 8, 46, 68
13, 59450, Note_on_c, 8, 46, 0
13, 59460, Note_on_c, 8, 46, 80
13, 59495, Note_on_c, 8, 46, 0
13, 59520, Note_on_c, 8, 46, 74
13, 59580, Note_on_c, 8, 43, 90
13, 59596, Note_on_c, 8, 46, 0
13, 59631, Note_on_c, 8, 43, 0
13, 59640, Note_on_c, 8, 43, 59
13, 59697, Note_on_c, 8, 43, 0
13, 59700, Note_on_c, 8, 41, 94
13, 59732, Note_on_c, 8, 41, 0
13, 59760, Note_on_c, 8, 34, 118
13, 59919, Note_on_c, 8, 34, 0
13, 59940, Note_on_c, 8, 34, 90
13, 60058, Note_on_c, 8, 34, 0
13, 60060, Note_on_c, 8, 34, 78
13, 60109, Note_on_c, 8, 34, 0
13, 60120, Note_on_c, 8, 38, 103
13, 60141, Note_on_c, 8, 38, 0
13, 60150, Note_on_c, 8, 38, 82
13, 60201, Note_on_c, 8, 38, 0
13, 60216, Note_on_c, 8, 39, 118
13, 60234, Note_on_c, 8, 39, 0
13, 60246, Note_on_c, 8, 39, 85
13, 60290, Note_on_c, 8, 39, 0
13, 60300, Note_on_c, 8, 40, 87
13, 60319, Note_on_c, 8, 40, 0
13, 60330, Note_on_c, 8, 40, 80
13, 60366, Note_on_c, 8, 40, 0
13, 60390, Note_on_c, 8, 41, 82
13, 60405, Note_on_c, 8, 41, 0
13, 60420, Note_on_c, 8, 41, 74
13, 60457, Note_on_c, 8, 41, 0
13, 60480, Note_on_c, 8, 43, 103
13, 60499, Note_on_c, 8, 43, 0
13, 60510, Note_on_c, 8, 43, 66
13, 60536, Note_on_c, 8, 43, 0
13, 60570, Note_on_c, 8, 45, 54
13, 60584, Note_on_c, 8, 45, 0
13, 60600, Note_on_c, 8, 45, 84
13, 60631, Note_on_c, 8, 45, 0
13, 60660, Note_on_c, 8, 46, 78
13, 60699, Note_on_c, 8, 46, 0
13, 60720, Note_on_c, 8, 46, 84
13, 60855, Note_on_c, 8, 46, 0
13, 60900, Note_on_c, 8, 46, 70
13, 60956, Note_on_c, 8, 46, 0
13, 60960, Note_on_c, 8, 43, 69
13, 61013, Note_on_c, 8, 43, 0
13, 61020, Note_on_c, 8, 50, 84
13, 61080, Note_on_c, 8, 51, 106
13, 61083, Note_on_c, 8, 50, 0
13, 61136, Note_on_c, 8, 51, 0
13, 61140, Note_on_c, 8, 52, 70
13, 61188, Note_on_c, 8, 52, 0
13, 61200, Note_on_c, 8, 53, 92
13, 61258, Note_on_c, 8, 53, 0
13, 61260, Note_on_c, 8, 46, 87
13, 61354, Note_on_c, 8, 46, 0
13, 61380, Note_on_c, 8, 46, 122
13, 61500, Note_on_c, 8, 41, 82
13, 61521, Note_on_c, 8, 46, 0
13, 61539, Note_on_c, 8, 41, 0
13, 61560, Note_on_c, 8, 41, 77
13, 61620, Note_on_c, 8, 34, 63
13, 61627, Note_on_c, 8, 41, 0
13, 61661, Note_on_c, 8, 34, 0
13, 61680, Note_on_c, 8, 34, 97
13, 61732, Note_on_c, 8, 34, 0
13, 61740, Note_on_c, 8, 38, 106
13, 61822, Note_on_c, 8, 38, 0
13, 61860, Note_on_c, 8, 39, 113
13, 61934, Note_on_c, 8, 39, 0
13, 61980, Note_on_c, 8, 40, 100
13, 62061, Note_on_c, 8, 40, 0
13, 62100, Note_on_c, 8, 41, 110
13, 62180, Note_on_c, 8, 41, 0
13, 62220, Note_on_c, 8, 43, 106
13, 62302, Note_on_c, 8, 43, 0
13, 62340, Note_on_c, 8, 45, 110
13, 62410, Note_on_c, 8, 45, 0
13, 62460, Note_on_c, 8, 46, 103
13, 62537, Note_on_c, 8, 46, 0
13, 62580, Note_on_c, 8, 48, 110
13, 62640, Note_on_c, 8, 34, 106
13, 62642, Note_on_c, 8, 48, 0
13, 62781, Note_on_c, 8, 34, 0
13, 62820, Note_on_c, 8, 34, 47
13, 62856, Note_on_c, 8, 34, 0
13, 62880, Note_on_c, 8, 34, 87
13, 62933, Note_on_c, 8, 34, 0
13, 62940, Note_on_c, 8, 41, 78
13, 63050, Note_on_c, 8, 41, 0
13, 63060, Note_on_c, 8, 34, 55
13, 63098, Note_on_c, 8, 34, 0
13, 63120, Note_on_c, 8, 34, 90
13, 63279, Note_on_c, 8, 34, 0
13, 63300, Note_on_c, 8, 34, 61
13, 63343, Note_on_c, 8, 34, 0
13, 63360, Note_on_c, 8, 34, 82
13, 63400, Note_on_c, 8, 34, 0
13, 63420, Note_on_c, 8, 34, 80
13, 63453, Note_on_c, 8, 34, 0
13, 63480, Note_on_c, 8, 34, 106
13, 63540, Note_on_c, 8, 36, 127
13, 63544, Note_on_c, 8, 34, 0
13, 63588, Note_on_c, 8, 36, 0
13, 63600, Note_on_c, 8, 38, 94
13, 63759, Note_on_c, 8, 38, 0
13, 63780, Note_on_c, 8, 38, 77
13, 63813, Note_on_c, 8, 38, 0
13, 63840, Note_on_c, 8, 38, 113
13, 64000, Note_on_c, 8, 38, 0
13, 64020, Note_on_c, 8, 33, 58
13, 64077, Note_on_c, 8, 33, 0
13, 64080, Note_on_c, 8, 38, 118
13, 64244, Note_on_c, 8, 38, 0
13, 64260, Note_on_c, 8, 38, 72
13, 64297, Note_on_c, 8, 38, 0
13, 64320, Note_on_c, 8, 38, 80
13, 64491, Note_on_c, 8, 38, 0
13, 64500, Note_on_c, 8, 33, 61
13, 64560, Note_on_c, 8, 38, 73
13, 64566, Note_on_c, 8, 33, 0
13, 64718, Note_on_c, 8, 38, 0
13, 64740, Note_on_c, 8, 38, 67
13, 64794, Note_on_c, 8, 38, 0
13, 64800, Note_on_c, 8, 38, 69
13, 64980, Note_on_c, 8, 33, 72
13, 64984, Note_on_c, 8, 38, 0
13, 65030, Note_on_c, 8, 33, 0
13, 65040, Note_on_c, 8, 38, 97
13, 65182, Note_on_c, 8, 38, 0
13, 65220, Note_on_c, 8, 38, 73
13, 65273, Note_on_c, 8, 38, 0
13, 65280, Note_on_c, 8, 38, 84
13, 65427, Note_on_c, 8, 38, 0
13, 65460, Note_on_c, 8, 33, 70
13, 65510, Note_on_c, 8, 33, 0
13, 65520, Note_on_c, 8, 38, 97
13, 65684, Note_on_c, 8, 38, 0
13, 65700, Note_on_c, 8, 38, 77
13, 65745, Note_on_c, 8, 38, 0
13, 65760, Note_on_c, 8, 38, 90
13, 65940, Note_on_c, 8, 33, 47
13, 65944, Note_on_c, 8, 38, 0
13, 65997, Note_on_c, 8, 33, 0
13, 66000, Note_on_c, 8, 38, 90
13, 66171, Note_on_c, 8, 38, 0
13, 66180, Note_on_c, 8, 38, 59
13, 66224, Note_on_c, 8, 38, 0
13, 66240, Note_on_c, 8, 38, 77
13, 66420, Note_on_c, 8, 33, 50
13, 66427, Note_on_c, 8, 38, 0
13, 66476, Note_on_c, 8, 33, 0
13, 66480, Note_on_c, 8, 38, 73
13, 66644, Note_on_c, 8, 38, 0
13, 66660, Note_on_c, 8, 38, 59
13, 66702, Note_on_c, 8, 38, 0
13, 66720, Note_on_c, 8, 38, 78
13, 66899, Note_on_c, 8, 38, 0
13, 66900, Note_on_c, 8, 38, 70
13, 67005, Note_on_c, 8, 38, 0
13, 67020, Note_on_c, 8, 38, 90
13, 67120, Note_on_c, 8, 38, 0
13, 67140, Note_on_c, 8, 38, 63
13, 67174, Note_on_c, 8, 38, 0
13, 67200, Note_on_c, 8, 38, 72
13, 67317, Note_on_c, 8, 38, 0
13, 67320, Note_on_c, 8, 33, 70
13, 67429, Note_on_c, 8, 33, 0
13, 67440, Note_on_c, 8, 38, 80
13, 67589, Note_on_c, 8, 38, 0
13, 67620, Note_on_c, 8, 38, 62
13, 67663, Note_on_c, 8, 38, 0
13, 67680, Note_on_c, 8, 38, 85
13, 67878, Note_on_c, 8, 38, 0
13, 67920, Note_on_c, 8, 38, 66
13, 68084, Note_on_c, 8, 38, 0
13, 68100, Note_on_c, 8, 38, 62
13, 68140, Note_on_c, 8, 38, 0
13, 68160, Note_on_c, 8, 38, 80
13, 68319, Note_on_c, 8, 38, 0
13, 68340, Note_on_c, 8, 33, 64
13, 68400, Note_on_c, 8, 38, 77
13, 68404, Note_on_c, 8, 33, 0
13, 68561, Note_on_c, 8, 38, 0
13, 68580, Note_on_c, 8, 38, 65
13, 68620, Note_on_c, 8, 38, 0
13, 68640, Note_on_c, 8, 38, 72
13, 68773, Note_on_c, 8, 38, 0
13, 68820, Note_on_c, 8, 38, 66
13, 68905, Note_on_c, 8, 38, 0
13, 68940, Note_on_c, 8, 38, 70
13, 69051, Note_on_c, 8, 38, 0
13, 69060, Note_on_c, 8, 33, 55
13, 69114, Note_on_c, 8, 33, 0
13, 69120, Note_on_c, 8, 38, 68
13, 69218, Note_on_c, 8, 38, 0
13, 69240, Note_on_c, 8, 38, 61
13, 69298, Note_on_c, 8, 38, 0
13, 69300, Note_on_c, 8, 33, 55
13, 69348, Note_on_c, 8, 33, 0
13, 69360, Note_on_c, 8, 38, 118
13, 69537, Note_on_c, 8, 38, 0
13, 69540, Note_on_c, 8, 33, 103
13, 69579, Note_on_c, 8, 33, 0
13, 69600, Note_on_c, 8, 38, 113
13, 69639, Note_on_c, 8, 38, 0
13, 69660, Note_on_c, 8, 38, 110
13, 69778, Note_on_c, 8, 38, 0
13, 69780, Note_on_c, 8, 33, 80
13, 69824, Note_on_c, 8, 33, 0
13, 69840, Note_on_c, 8, 38, 127
13, 70020, Note_on_c, 8, 33, 87
13, 70036, Note_on_c, 8, 38, 0
13, 70066, Note_on_c, 8, 33, 0
13, 70080, Note_on_c, 8, 38, 127
13, 70260, Note_on_c, 8, 33, 64
13, 70272, Note_on_c, 8, 38, 0
13, 70298, Note_on_c, 8, 33, 0
13, 70320, Note_on_c, 8, 38, 127
13, 70499, Note_on_c, 8, 38, 0
13, 70500, Note_on_c, 8, 33, 66
13, 70539, Note_on_c, 8, 33, 0
13, 70560, Note_on_c, 8, 38, 106
13, 70725, Note_on_c, 8, 38, 0
13, 70740, Note_on_c, 8, 38, 118
13, 70834, Note_on_c, 8, 38, 0
13, 70860, Note_on_c, 8, 42, 100
13, 70946, Note_on_c, 8, 42, 0
13, 70980, Note_on_c, 8, 43, 100
13, 71081, Note_on_c, 8, 43, 0
13, 71100, Note_on_c, 8, 44, 100
13, 71187, Note_on_c, 8, 44, 0
13, 71220, Note_on_c, 8, 45, 100
13, 71280, Note_on_c, 8, 45, 0
13, 71280, Note_on_c, 8, 38, 100
13, 71639, Note_on_c, 8, 38, 0
13, 75080, Note_on_c, 8, 36, 100
13, 75119, Note_on_c, 8, 36, 0
13, 75120, Note_on_c, 8, 41, 100
13, 75360, Note_on_c, 8, 29, 100
13, 75361, Note_on_c, 8, 41, 0
13, 75465, Note_on_c, 8, 29, 0
13, 75480, Note_on_c, 8, 33, 100
13, 75720, Note_on_c, 8, 34, 100
13, 75723, Note_on_c, 8, 33, 0
13, 75780, Note_on_c, 8, 35, 100
13, 75787, Note_on_c, 8, 34, 0
13, 75839, Note_on_c, 8, 35, 0
13, 75840, Note_on_c, 8, 36, 100
13, 75958, Note_on_c, 8, 36, 0
13, 75960, Note_on_c, 8, 43, 100
13, 76078, Note_on_c, 8, 43, 0
13, 76080, Note_on_c, 8, 48, 100
13, 76260, Note_on_c, 8, 43, 100
13, 76266, Note_on_c, 8, 48, 0
13, 76320, Note_on_c, 8, 36, 100
13, 76329, Note_on_c, 8, 43, 0
13, 76438, Note_on_c, 8, 36, 0
13, 76440, Note_on_c, 8, 36, 100
13, 76560, Note_on_c, 8, 46, 100
13, 76573, Note_on_c, 8, 36, 0
13, 76740, Note_on_c, 8, 41, 100
13, 76741, Note_on_c, 8, 46, 0
13, 76800, Note_on_c, 8, 34, 100
13, 76809, Note_on_c, 8, 41, 0
13, 77100, Note_on_c, 8, 41, 100
13, 77109, Note_on_c, 8, 34, 0
13, 77146, Note_on_c, 8, 41, 0
13, 77160, Note_on_c, 8, 34, 100
13, 77280, Note_on_c, 8, 45, 100
13, 77282, Note_on_c, 8, 34, 0
13, 77460, Note_on_c, 8, 40, 100
13, 77461, Note_on_c, 8, 45, 0
13, 77520, Note_on_c, 8, 36, 100
13, 77524, Note_on_c, 8, 40, 0
13, 77577, Note_on_c, 8, 36, 0
13, 77580, Note_on_c, 8, 35, 100
13, 77640, Note_on_c, 8, 33, 100
13, 77650, Note_on_c, 8, 35, 0
13, 78000, Note_on_c, 8, 43, 100
13, 78022, Note_on_c, 8, 33, 0
13, 78239, Note_on_c, 8, 43, 0
13, 78240, Note_on_c, 8, 50, 100
13, 78359, Note_on_c, 8, 50, 0
13, 78360, Note_on_c, 8, 55, 100
13, 78540, Note_on_c, 8, 50, 100
13, 78562, Note_on_c, 8, 55, 0
13, 78599, Note_on_c, 8, 50, 0
13, 78600, Note_on_c, 8, 43, 100
13, 78628, Pitch_bend_c, 8, 8132
13, 78646, Pitch_bend_c, 8, 6115
13, 78664, Pitch_bend_c, 8, 4096
13, 78682, Pitch_bend_c, 8, 2078
13, 78700, Pitch_bend_c, 8, 60
13, 78710, Pitch_bend_c, 8, 8192
13, 78719, Note_on_c, 8, 43, 0
13, 78720, Note_on_c, 8, 38, 100
13, 78959, Note_on_c, 8, 38, 0
13, 78960, Note_on_c, 8, 45, 100
13, 79080, Note_on_c, 8, 48, 100
13, 79089, Note_on_c, 8, 45, 0
13, 79139, Note_on_c, 8, 48, 0
13, 79140, Note_on_c, 8, 45, 100
13, 79194, Pitch_bend_c, 8, 9011
13, 79195, Pitch_bend_c, 8, 10353
13, 79196, Pitch_bend_c, 8, 11059
13, 79197, Pitch_bend_c, 8, 11606
13, 79199, Pitch_bend_c, 8, 12697
13, 79200, Pitch_bend_c, 8, 13926
13, 79200, Note_on_c, 8, 48, 100
13, 79203, Pitch_bend_c, 8, 15702
13, 79205, Pitch_bend_c, 8, 16383
13, 79206, Note_on_c, 8, 45, 0
13, 79254, Pitch_bend_c, 8, 16269
13, 79255, Pitch_bend_c, 8, 15702
13, 79256, Pitch_bend_c, 8, 15155
13, 79257, Pitch_bend_c, 8, 14745
13, 79259, Pitch_bend_c, 8, 14063
13, 79260, Pitch_bend_c, 8, 13426
13, 79262, Pitch_bend_c, 8, 12697
13, 79263, Pitch_bend_c, 8, 12151
13, 79264, Pitch_bend_c, 8, 11606
13, 79265, Pitch_bend_c, 8, 11196
13, 79266, Pitch_bend_c, 8, 10581
13, 79268, Pitch_bend_c, 8, 9967
13, 79269, Pitch_bend_c, 8, 9284
13, 79270, Pitch_bend_c, 8, 8465
13, 79271, Pitch_bend_c, 8, 8192
13, 79319, Note_on_c, 8, 48, 0
13, 79320, Note_on_c, 8, 45, 100
13, 79435, Note_on_c, 8, 45, 0
13, 79440, Note_on_c, 8, 36, 100
13, 79669, Pitch_bend_c, 8, 0
13, 79679, Note_on_c, 8, 36, 0
13, 79680, Note_on_c, 8, 43, 100
13, 79746, Pitch_bend_c, 8, 143
13, 79748, Pitch_bend_c, 8, 974
13, 79749, Pitch_bend_c, 8, 1332
13, 79750, Pitch_bend_c, 8, 1929
13, 79751, Pitch_bend_c, 8, 2732
13, 79752, Pitch_bend_c, 8, 3300
13, 79753, Pitch_bend_c, 8, 3858
13, 79755, Pitch_bend_c, 8, 4780
13, 79756, Pitch_bend_c, 8, 6144
13, 79757, Pitch_bend_c, 8, 6657
13, 79758, Pitch_bend_c, 8, 7476
13, 79760, Pitch_bend_c, 8, 8073
13, 79761, Pitch_bend_c, 8, 8192
13, 79800, Note_on_c, 8, 48, 100
13, 79802, Note_on_c, 8, 43, 0
13, 80039, Note_on_c, 8, 48, 0
13, 80040, Note_on_c, 8, 36, 100
13, 80160, Note_on_c, 8, 35, 100
13, 80165, Note_on_c, 8, 36, 0
13, 80399, Note_on_c, 8, 35, 0
13, 80400, Note_on_c, 8, 42, 100
13, 80520, Note_on_c, 8, 45, 100
13, 80529, Note_on_c, 8, 42, 0
13, 80579, Note_on_c, 8, 45, 0
13, 80580, Note_on_c, 8, 42, 100
13, 80634, Pitch_bend_c, 8, 9011
13, 80635, Pitch_bend_c, 8, 10353
13, 80636, Pitch_bend_c, 8, 11059
13, 80637, Pitch_bend_c, 8, 11606
13, 80639, Pitch_bend_c, 8, 12697
13, 80640, Pitch_bend_c, 8, 13926
13, 80640, Note_on_c, 8, 45, 100
13, 80643, Pitch_bend_c, 8, 15702
13, 80645, Pitch_bend_c, 8, 16383
13, 80646, Note_on_c, 8, 42, 0
13, 80694, Pitch_bend_c, 8, 16269
13, 80695, Pitch_bend_c, 8, 15702
13, 80696, Pitch_bend_c, 8, 15155
13, 80697, Pitch_bend_c, 8, 14745
13, 80699, Pitch_bend_c, 8, 14063
13, 80700, Pitch_bend_c, 8, 13426
13, 80702, Pitch_bend_c, 8, 12697
13, 80703, Pitch_bend_c, 8, 12151
13, 80704, Pitch_bend_c, 8, 11606
13, 80705, Pitch_bend_c, 8, 11196
13, 80706, Pitch_bend_c, 8, 10581
13, 80708, Pitch_bend_c, 8, 9967
13, 80709, Pitch_bend_c, 8, 9284
13, 80710, Pitch_bend_c, 8, 8465
13, 80711, Pitch_bend_c, 8, 8192
13, 80759, Note_on_c, 8, 45, 0
13, 80760, Note_on_c, 8, 42, 100
13, 80875, Note_on_c, 8, 42, 0
13, 80880, Note_on_c, 8, 33, 100
13, 81058, Note_on_c, 8, 33, 0
13, 81060, Note_on_c, 8, 33, 100
13, 81101, Note_on_c, 8, 33, 0
13, 81120, Note_on_c, 8, 33, 100
13, 81286, Note_on_c, 8, 33, 0
13, 81300, Note_on_c, 8, 33, 100
13, 81342, Note_on_c, 8, 33, 0
13, 81360, Note_on_c, 8, 33, 100
13, 81529, Note_on_c, 8, 33, 0
13, 81542, Note_on_c, 8, 38, 100
13, 81600, Note_on_c, 8, 39, 100
13, 81603, Note_on_c, 8, 38, 0
13, 81770, Note_on_c, 8, 39, 0
13, 81780, Note_on_c, 8, 39, 100
13, 81821, Note_on_c, 8, 39, 0
13, 81840, Note_on_c, 8, 39, 100
13, 81999, Note_on_c, 8, 39, 0
13, 82020, Note_on_c, 8, 39, 100
13, 82063, Note_on_c, 8, 39, 0
13, 82080, Note_on_c, 8, 39, 100
13, 82238, Note_on_c, 8, 39, 0
13, 82260, Note_on_c, 8, 39, 100
13, 82313, Note_on_c, 8, 39, 0
13, 82320, Note_on_c, 8, 38, 100
13, 82490, Note_on_c, 8, 38, 0
13, 82500, Note_on_c, 8, 38, 100
13, 82541, Note_on_c, 8, 38, 0
13, 82560, Note_on_c, 8, 38, 100
13, 82719, Note_on_c, 8, 38, 0
13, 82740, Note_on_c, 8, 38, 100
13, 82783, Note_on_c, 8, 38, 0
13, 82800, Note_on_c, 8, 38, 100
13, 82958, Note_on_c, 8, 38, 0
13, 82980, Note_on_c, 8, 38, 100
13, 83033, Note_on_c, 8, 38, 0
13, 83040, Note_on_c, 8, 32, 100
13, 83200, Note_on_c, 8, 32, 0
13, 83220, Note_on_c, 8, 32, 100
13, 83257, Note_on_c, 8, 32, 0
13, 83280, Note_on_c, 8, 32, 100
13, 83435, Note_on_c, 8, 32, 0
13, 83460, Note_on_c, 8, 32, 100
13, 83498, Note_on_c, 8, 32, 0
13, 83520, Note_on_c, 8, 32, 100
13, 83669, Note_on_c, 8, 32, 0
13, 83700, Note_on_c, 8, 32, 100
13, 83760, Note_on_c, 8, 31, 100
13, 83785, Note_on_c, 8, 32, 0
13, 83911, Note_on_c, 8, 31, 0
13, 83940, Note_on_c, 8, 31, 100
13, 83998, Note_on_c, 8, 31, 0
13, 84000, Note_on_c, 8, 38, 100
13, 84120, Note_on_c, 8, 43, 100
13, 84126, Note_on_c, 8, 38, 0
13, 84297, Note_on_c, 8, 43, 0
13, 84300, Note_on_c, 8, 38, 100
13, 84354, Note_on_c, 8, 38, 0
13, 84360, Note_on_c, 8, 31, 100
13, 84450, Note_on_c, 8, 31, 0
13, 84480, Note_on_c, 8, 34, 73
13, 84720, Note_on_c, 8, 38, 100
13, 84721, Note_on_c, 8, 34, 0
13, 84840, Note_on_c, 8, 39, 100
13, 84843, Note_on_c, 8, 38, 0
13, 84900, Note_on_c, 8, 39, 0
13, 84900, Note_on_c, 8, 40, 100
13, 84962, Note_on_c, 8, 40, 0
13, 84963, Note_on_c, 8, 41, 100
13, 85020, Note_on_c, 8, 46, 100
13, 85023, Note_on_c, 8, 41, 0
13, 85076, Note_on_c, 8, 46, 0
13, 85083, Note_on_c, 8, 41, 100
13, 85199, Note_on_c, 8, 41, 0
13, 85200, Note_on_c, 8, 41, 100
13, 85350, Note_on_c, 8, 41, 0
13, 85380, Note_on_c, 8, 36, 100
13, 85426, Note_on_c, 8, 36, 0
13, 85440, Note_on_c, 8, 29, 100
13, 85740, Note_on_c, 8, 36, 100
13, 85745, Note_on_c, 8, 29, 0
13, 85795, Note_on_c, 8, 36, 0
13, 85800, Note_on_c, 8, 41, 100
13, 85920, Note_on_c, 8, 40, 100
13, 85925, Note_on_c, 8, 41, 0
13, 86099, Note_on_c, 8, 40, 0
13, 86100, Note_on_c, 8, 40, 100
13, 86159, Note_on_c, 8, 40, 0
13, 86160, Note_on_c, 8, 40, 100
13, 86399, Note_on_c, 8, 40, 0
13, 86400, Note_on_c, 8, 40, 100
13, 86579, Note_on_c, 8, 40, 0
13, 86580, Note_on_c, 8, 40, 100
13, 86640, Note_on_c, 8, 47, 100
13, 86645, Note_on_c, 8, 40, 0
13, 86760, Note_on_c, 8, 52, 100
13, 86778, Note_on_c, 8, 47, 0
13, 86879, Note_on_c, 8, 52, 0
13, 86880, Note_on_c, 8, 40, 100
13, 87059, Note_on_c, 8, 40, 0
13, 87060, Note_on_c, 8, 40, 100
13, 87119, Note_on_c, 8, 40, 0
13, 87120, Note_on_c, 8, 40, 100
13, 87299, Note_on_c, 8, 40, 0
13, 87300, Note_on_c, 8, 40, 100
13, 87360, Note_on_c, 8, 47, 100
13, 87365, Note_on_c, 8, 40, 0
13, 87480, Note_on_c, 8, 52, 100
13, 87494, Note_on_c, 8, 47, 0
13, 87599, Note_on_c, 8, 52, 0
13, 87600, Note_on_c, 8, 40, 100
13, 87839, Note_on_c, 8, 40, 0
13, 87840, Note_on_c, 8, 40, 100
13, 88075, Note_on_c, 8, 40, 0
13, 88080, Note_on_c, 8, 28, 100
13, 91064, Note_on_c, 8, 28, 0
13, 91064, End_track
14, 0, Start_track
14, 0, Title_t, "another piano"
14, 0, MIDI_port, 0
14, 74, Control_c, 6, 7, 127
14, 75, Control_c, 6, 91, 87
14, 76, Control_c, 6, 10, 40
14, 77, Control_c, 6, 91, 0
14, 78, Program_c, 6, 0
14, 29761, Note_on_c, 6, 37, 96
14, 30074, Note_on_c, 6, 37, 0
14, 30082, Note_on_c, 6, 37, 96
14, 30155, Note_on_c, 6, 37, 0
14, 30161, Note_on_c, 6, 37, 96
14, 30234, Note_on_c, 6, 37, 0
14, 30241, Note_on_c, 6, 51, 96
14, 30314, Note_on_c, 6, 51, 0
14, 30321, Note_on_c, 6, 51, 96
14, 30394, Note_on_c, 6, 51, 0
14, 30401, Note_on_c, 6, 49, 96
14, 30403, Note_on_c, 6, 51, 96
14, 30474, Note_on_c, 6, 49, 0
14, 30476, Note_on_c, 6, 51, 0
14, 30481, Note_on_c, 6, 51, 96
14, 30946, Note_on_c, 6, 70, 74
14, 30953, Note_on_c, 6, 75, 74
14, 30960, Note_on_c, 6, 80, 77
14, 31065, Note_on_c, 6, 70, 0
14, 31104, Note_on_c, 6, 75, 0
14, 31124, Note_on_c, 6, 80, 0
14, 31257, Note_on_c, 6, 51, 0
14, 31261, Note_on_c, 6, 71, 96
14, 31321, Note_on_c, 6, 51, 96
14, 31432, Note_on_c, 6, 51, 0
14, 31441, Note_on_c, 6, 43, 127
14, 31662, Note_on_c, 6, 43, 0
14, 31672, Note_on_c, 6, 71, 0
14, 31681, Note_on_c, 6, 68, 96
14, 31684, Note_on_c, 6, 41, 80
14, 31977, Note_on_c, 6, 68, 0
14, 31979, Note_on_c, 6, 43, 66
14, 31979, Note_on_c, 6, 70, 80
14, 31984, Note_on_c, 6, 41, 0
14, 31994, Note_on_c, 6, 45, 66
14, 31994, Note_on_c, 6, 72, 80
14, 31997, Note_on_c, 6, 43, 0
14, 31997, Note_on_c, 6, 70, 0
14, 32005, Note_on_c, 6, 74, 80
14, 32005, Note_on_c, 6, 47, 66
14, 32008, Note_on_c, 6, 45, 0
14, 32008, Note_on_c, 6, 72, 0
14, 32015, Note_on_c, 6, 75, 80
14, 32015, Note_on_c, 6, 48, 66
14, 32018, Note_on_c, 6, 74, 0
14, 32018, Note_on_c, 6, 47, 0
14, 32025, Note_on_c, 6, 77, 80
14, 32025, Note_on_c, 6, 50, 66
14, 32027, Note_on_c, 6, 75, 0
14, 32027, Note_on_c, 6, 48, 0
14, 32034, Note_on_c, 6, 79, 80
14, 32034, Note_on_c, 6, 52, 66
14, 32037, Note_on_c, 6, 77, 0
14, 32037, Note_on_c, 6, 50, 0
14, 32045, Note_on_c, 6, 53, 66
14, 32045, Note_on_c, 6, 80, 80
14, 32047, Note_on_c, 6, 79, 0
14, 32047, Note_on_c, 6, 52, 0
14, 32056, Note_on_c, 6, 82, 64
14, 32056, Note_on_c, 6, 55, 66
14, 32062, Note_on_c, 6, 53, 0
14, 32062, Note_on_c, 6, 80, 0
14, 32333, Note_on_c, 6, 53, 48
14, 32339, Note_on_c, 6, 55, 0
14, 32351, Note_on_c, 6, 52, 48
14, 32354, Note_on_c, 6, 53, 0
14, 32362, Note_on_c, 6, 50, 48
14, 32366, Note_on_c, 6, 52, 0
14, 32371, Note_on_c, 6, 48, 48
14, 32375, Note_on_c, 6, 50, 0
14, 32381, Note_on_c, 6, 47, 48
14, 32385, Note_on_c, 6, 48, 0
14, 32390, Note_on_c, 6, 45, 48
14, 32394, Note_on_c, 6, 47, 0
14, 32400, Note_on_c, 6, 43, 48
14, 32404, Note_on_c, 6, 45, 0
14, 32411, Note_on_c, 6, 41, 48
14, 32417, Note_on_c, 6, 43, 0
14, 32629, Note_on_c, 6, 82, 0
14, 32641, Note_on_c, 6, 79, 71
14, 32642, Note_on_c, 6, 76, 71
14, 32954, Note_on_c, 6, 79, 0
14, 32955, Note_on_c, 6, 76, 0
14, 32961, Note_on_c, 6, 77, 64
14, 32961, Note_on_c, 6, 74, 64
14, 33034, Note_on_c, 6, 77, 0
14, 33034, Note_on_c, 6, 74, 0
14, 33041, Note_on_c, 6, 69, 64
14, 33041, Note_on_c, 6, 72, 64
14, 33114, Note_on_c, 6, 41, 0
14, 33114, Note_on_c, 6, 69, 0
14, 33114, Note_on_c, 6, 72, 0
14, 33121, Note_on_c, 6, 68, 96
14, 33121, Note_on_c, 6, 37, 127
14, 33342, Note_on_c, 6, 68, 0
14, 33342, Note_on_c, 6, 37, 0
14, 33361, Note_on_c, 6, 78, 96
14, 33361, Note_on_c, 6, 49, 127
14, 33674, Note_on_c, 6, 78, 0
14, 33674, Note_on_c, 6, 49, 0
14, 33681, Note_on_c, 6, 37, 127
14, 33685, Note_on_c, 6, 68, 96
14, 33754, Note_on_c, 6, 37, 0
14, 33758, Note_on_c, 6, 68, 0
14, 33759, Note_on_c, 6, 78, 96
14, 33761, Note_on_c, 6, 49, 127
14, 33832, Note_on_c, 6, 78, 0
14, 33834, Note_on_c, 6, 49, 0
14, 33901, Note_on_c, 6, 37, 127
14, 33901, Note_on_c, 6, 71, 96
14, 34240, Note_on_c, 6, 37, 0
14, 34257, Note_on_c, 6, 71, 0
14, 34257, Note_on_c, 6, 37, 127
14, 34261, Note_on_c, 6, 80, 96
14, 34428, Note_on_c, 6, 37, 0
14, 34432, Note_on_c, 6, 80, 0
14, 34441, Note_on_c, 6, 78, 96
14, 34441, Note_on_c, 6, 40, 127
14, 34552, Note_on_c, 6, 78, 0
14, 34552, Note_on_c, 6, 40, 0
14, 34561, Note_on_c, 6, 77, 96
14, 34561, Note_on_c, 6, 39, 127
14, 34678, Note_on_c, 6, 39, 0
14, 34681, Note_on_c, 6, 38, 127
14, 34682, Note_on_c, 6, 69, 57
14, 34798, Note_on_c, 6, 38, 0
14, 34799, Note_on_c, 6, 69, 0
14, 34801, Note_on_c, 6, 38, 127
14, 34802, Note_on_c, 6, 69, 57
14, 34918, Note_on_c, 6, 38, 0
14, 34919, Note_on_c, 6, 69, 0
14, 34921, Note_on_c, 6, 39, 127
14, 34922, Note_on_c, 6, 70, 57
14, 35038, Note_on_c, 6, 39, 0
14, 35039, Note_on_c, 6, 70, 0
14, 35041, Note_on_c, 6, 41, 127
14, 35042, Note_on_c, 6, 72, 57
14, 35158, Note_on_c, 6, 41, 0
14, 35159, Note_on_c, 6, 72, 0
14, 35161, Note_on_c, 6, 39, 127
14, 35162, Note_on_c, 6, 70, 57
14, 35262, Note_on_c, 6, 77, 0
14, 35278, Note_on_c, 6, 39, 0
14, 35279, Note_on_c, 6, 70, 0
14, 35281, Note_on_c, 6, 67, 64
14, 35632, Note_on_c, 6, 67, 0
14, 35641, Note_on_c, 6, 81, 64
14, 35992, Note_on_c, 6, 81, 0
14, 36001, Note_on_c, 6, 69, 64
14, 36352, Note_on_c, 6, 69, 0
14, 36361, Note_on_c, 6, 83, 64
14, 36554, Note_on_c, 6, 83, 0
14, 36561, Note_on_c, 6, 69, 64
14, 36634, Note_on_c, 6, 69, 0
14, 36641, Note_on_c, 6, 83, 64
14, 36714, Note_on_c, 6, 83, 0
14, 36721, Note_on_c, 6, 70, 64
14, 36721, Note_on_c, 6, 35, 64
14, 36732, Note_on_c, 6, 47, 64
14, 36742, Note_on_c, 6, 35, 0
14, 36743, Note_on_c, 6, 35, 64
14, 36753, Note_on_c, 6, 47, 0
14, 36754, Note_on_c, 6, 47, 64
14, 36764, Note_on_c, 6, 35, 0
14, 36766, Note_on_c, 6, 35, 64
14, 36775, Note_on_c, 6, 47, 0
14, 36777, Note_on_c, 6, 47, 64
14, 36787, Note_on_c, 6, 35, 0
14, 36788, Note_on_c, 6, 35, 64
14, 36798, Note_on_c, 6, 47, 0
14, 36799, Note_on_c, 6, 47, 64
14, 36809, Note_on_c, 6, 35, 0
14, 36811, Note_on_c, 6, 35, 64
14, 36820, Note_on_c, 6, 47, 0
14, 36821, Note_on_c, 6, 47, 64
14, 36830, Note_on_c, 6, 35, 0
14, 36831, Note_on_c, 6, 35, 64
14, 36840, Note_on_c, 6, 47, 0
14, 36841, Note_on_c, 6, 47, 64
14, 36850, Note_on_c, 6, 35, 0
14, 36852, Note_on_c, 6, 35, 64
14, 36862, Note_on_c, 6, 47, 0
14, 36863, Note_on_c, 6, 47, 64
14, 36873, Note_on_c, 6, 35, 0
14, 36874, Note_on_c, 6, 35, 64
14, 36884, Note_on_c, 6, 47, 0
14, 36886, Note_on_c, 6, 47, 64
14, 36895, Note_on_c, 6, 35, 0
14, 36897, Note_on_c, 6, 35, 64
14, 36907, Note_on_c, 6, 47, 0
14, 36908, Note_on_c, 6, 47, 64
14, 36918, Note_on_c, 6, 35, 0
14, 36919, Note_on_c, 6, 35, 64
14, 36929, Note_on_c, 6, 47, 0
14, 36931, Note_on_c, 6, 47, 64
14, 36940, Note_on_c, 6, 35, 0
14, 36941, Note_on_c, 6, 35, 64
14, 36950, Note_on_c, 6, 47, 0
14, 36951, Note_on_c, 6, 47, 64
14, 36960, Note_on_c, 6, 35, 0
14, 36961, Note_on_c, 6, 35, 64
14, 36970, Note_on_c, 6, 47, 0
14, 36972, Note_on_c, 6, 47, 64
14, 36982, Note_on_c, 6, 35, 0
14, 36983, Note_on_c, 6, 35, 64
14, 36993, Note_on_c, 6, 47, 0
14, 36994, Note_on_c, 6, 47, 64
14, 37004, Note_on_c, 6, 35, 0
14, 37006, Note_on_c, 6, 35, 64
14, 37015, Note_on_c, 6, 47, 0
14, 37017, Note_on_c, 6, 47, 64
14, 37027, Note_on_c, 6, 35, 0
14, 37028, Note_on_c, 6, 35, 64
14, 37038, Note_on_c, 6, 47, 0
14, 37039, Note_on_c, 6, 47, 64
14, 37049, Note_on_c, 6, 35, 0
14, 37051, Note_on_c, 6, 35, 64
14, 37060, Note_on_c, 6, 47, 0
14, 37061, Note_on_c, 6, 47, 64
14, 37070, Note_on_c, 6, 35, 0
14, 37071, Note_on_c, 6, 35, 64
14, 37080, Note_on_c, 6, 47, 0
14, 37081, Note_on_c, 6, 47, 64
14, 37090, Note_on_c, 6, 35, 0
14, 37092, Note_on_c, 6, 35, 64
14, 37102, Note_on_c, 6, 47, 0
14, 37103, Note_on_c, 6, 47, 64
14, 37113, Note_on_c, 6, 35, 0
14, 37114, Note_on_c, 6, 35, 64
14, 37124, Note_on_c, 6, 47, 0
14, 37126, Note_on_c, 6, 47, 64
14, 37135, Note_on_c, 6, 35, 0
14, 37137, Note_on_c, 6, 35, 64
14, 37147, Note_on_c, 6, 47, 0
14, 37148, Note_on_c, 6, 47, 64
14, 37158, Note_on_c, 6, 35, 0
14, 37159, Note_on_c, 6, 35, 64
14, 37169, Note_on_c, 6, 47, 0
14, 37171, Note_on_c, 6, 47, 64
14, 37180, Note_on_c, 6, 35, 0
14, 37181, Note_on_c, 6, 35, 64
14, 37190, Note_on_c, 6, 47, 0
14, 37191, Note_on_c, 6, 47, 64
14, 37200, Note_on_c, 6, 35, 0
14, 37201, Note_on_c, 6, 35, 64
14, 37210, Note_on_c, 6, 47, 0
14, 37212, Note_on_c, 6, 47, 64
14, 37220, Note_on_c, 6, 35, 0
14, 37223, Note_on_c, 6, 35, 64
14, 37231, Note_on_c, 6, 47, 0
14, 37234, Note_on_c, 6, 47, 64
14, 37242, Note_on_c, 6, 35, 0
14, 37246, Note_on_c, 6, 35, 64
14, 37253, Note_on_c, 6, 47, 0
14, 37257, Note_on_c, 6, 47, 64
14, 37265, Note_on_c, 6, 35, 0
14, 37268, Note_on_c, 6, 35, 64
14, 37276, Note_on_c, 6, 47, 0
14, 37279, Note_on_c, 6, 47, 64
14, 37287, Note_on_c, 6, 35, 0
14, 37291, Note_on_c, 6, 35, 64
14, 37298, Note_on_c, 6, 47, 0
14, 37301, Note_on_c, 6, 47, 64
14, 37310, Note_on_c, 6, 35, 0
14, 37311, Note_on_c, 6, 35, 64
14, 37320, Note_on_c, 6, 47, 0
14, 37321, Note_on_c, 6, 47, 64
14, 37330, Note_on_c, 6, 35, 0
14, 37332, Note_on_c, 6, 35, 64
14, 37340, Note_on_c, 6, 47, 0
14, 37343, Note_on_c, 6, 47, 64
14, 37351, Note_on_c, 6, 35, 0
14, 37354, Note_on_c, 6, 35, 64
14, 37362, Note_on_c, 6, 47, 0
14, 37366, Note_on_c, 6, 47, 64
14, 37373, Note_on_c, 6, 35, 0
14, 37377, Note_on_c, 6, 35, 64
14, 37385, Note_on_c, 6, 47, 0
14, 37388, Note_on_c, 6, 47, 64
14, 37396, Note_on_c, 6, 35, 0
14, 37399, Note_on_c, 6, 35, 64
14, 37407, Note_on_c, 6, 47, 0
14, 37411, Note_on_c, 6, 47, 64
14, 37418, Note_on_c, 6, 35, 0
14, 37421, Note_on_c, 6, 35, 64
14, 37422, Note_on_c, 6, 70, 0
14, 37430, Note_on_c, 6, 47, 0
14, 37431, Note_on_c, 6, 47, 64
14, 37440, Note_on_c, 6, 35, 0
14, 37450, Note_on_c, 6, 47, 0
14, 37501, Note_on_c, 6, 36, 127
14, 37681, Note_on_c, 6, 51, 127
14, 37691, Note_on_c, 6, 36, 0
14, 37861, Note_on_c, 6, 36, 127
14, 37868, Note_on_c, 6, 51, 0
14, 37921, Note_on_c, 6, 51, 127
14, 37927, Note_on_c, 6, 36, 0
14, 38142, Note_on_c, 6, 51, 0
14, 38161, Note_on_c, 6, 40, 127
14, 38342, Note_on_c, 6, 50, 127
14, 38347, Note_on_c, 6, 40, 0
14, 38573, Note_on_c, 6, 50, 0
14, 38581, Note_on_c, 6, 40, 127
14, 38758, Note_on_c, 6, 50, 127
14, 38767, Note_on_c, 6, 40, 0
14, 38941, Note_on_c, 6, 78, 64
14, 38997, Note_on_c, 6, 78, 0
14, 39001, Note_on_c, 6, 78, 64
14, 39057, Note_on_c, 6, 78, 0
14, 39061, Note_on_c, 6, 89, 64
14, 39117, Note_on_c, 6, 89, 0
14, 39121, Note_on_c, 6, 78, 64
14, 39158, Note_on_c, 6, 78, 0
14, 39161, Note_on_c, 6, 89, 64
14, 39198, Note_on_c, 6, 89, 0
14, 39201, Note_on_c, 6, 78, 64
14, 39238, Note_on_c, 6, 78, 0
14, 39241, Note_on_c, 6, 78, 64
14, 39297, Note_on_c, 6, 78, 0
14, 39301, Note_on_c, 6, 89, 64
14, 39357, Note_on_c, 6, 89, 0
14, 39361, Note_on_c, 6, 89, 64
14, 39472, Note_on_c, 6, 89, 0
14, 39481, Note_on_c, 6, 78, 64
14, 39560, Note_on_c, 6, 50, 0
14, 39592, Note_on_c, 6, 78, 0
14, 58447, Note_on_c, 6, 46, 66
14, 58556, Note_on_c, 6, 46, 0
14, 58563, Note_on_c, 6, 57, 52
14, 58639, Note_on_c, 6, 55, 72
14, 58647, Note_on_c, 6, 57, 0
14, 58704, Note_on_c, 6, 55, 0
14, 58720, Note_on_c, 6, 46, 57
14, 58795, Note_on_c, 6, 46, 0
14, 58805, Note_on_c, 6, 45, 62
14, 59036, Note_on_c, 6, 46, 62
14, 59039, Note_on_c, 6, 45, 0
14, 59253, Note_on_c, 6, 46, 0
14, 59283, Note_on_c, 6, 50, 90
14, 59784, Note_on_c, 6, 50, 0
14, 59823, Note_on_c, 6, 48, 100
14, 59879, Note_on_c, 6, 48, 0
14, 59880, Note_on_c, 6, 46, 100
14, 59936, Note_on_c, 6, 46, 0
14, 59940, Note_on_c, 6, 41, 100
14, 59996, Note_on_c, 6, 41, 0
14, 60000, Note_on_c, 6, 43, 100
14, 60056, Note_on_c, 6, 43, 0
14, 60060, Note_on_c, 6, 48, 100
14, 60116, Note_on_c, 6, 48, 0
14, 60120, Note_on_c, 6, 46, 100
14, 60351, Note_on_c, 6, 46, 0
14, 60900, Note_on_c, 6, 46, 100
14, 60956, Note_on_c, 6, 46, 0
14, 60960, Note_on_c, 6, 43, 100
14, 61181, Note_on_c, 6, 43, 0
14, 62280, Note_on_c, 6, 48, 103
14, 62335, Note_on_c, 6, 48, 0
14, 62340, Note_on_c, 6, 46, 42
14, 62400, Note_on_c, 6, 48, 103
14, 62408, Note_on_c, 6, 46, 0
14, 62460, Note_on_c, 6, 50, 110
14, 62475, Note_on_c, 6, 48, 0
14, 62511, Note_on_c, 6, 50, 0
14, 62640, Note_on_c, 6, 48, 127
14, 62700, Note_on_c, 6, 46, 106
14, 62712, Note_on_c, 6, 48, 0
14, 62760, Note_on_c, 6, 48, 90
14, 62768, Note_on_c, 6, 46, 0
14, 62796, Note_on_c, 6, 48, 0
14, 62820, Note_on_c, 6, 50, 85
14, 62880, Note_on_c, 6, 53, 127
14, 62903, Note_on_c, 6, 50, 0
14, 63600, Note_on_c, 6, 53, 0
14, 63660, Note_on_c, 6, 45, 122
14, 63660, Note_on_c, 6, 81, 122
14, 63738, Note_on_c, 6, 81, 0
14, 63766, Note_on_c, 6, 45, 0
14, 63780, Note_on_c, 6, 43, 127
14, 63780, Note_on_c, 6, 81, 122
14, 63857, Note_on_c, 6, 81, 0
14, 63880, Note_on_c, 6, 43, 0
14, 63900, Note_on_c, 6, 81, 118
14, 63900, Note_on_c, 6, 42, 127
14, 63981, Note_on_c, 6, 81, 0
14, 64020, Note_on_c, 6, 40, 118
14, 64020, Note_on_c, 6, 81, 106
14, 64025, Note_on_c, 6, 42, 0
14, 64051, Note_on_c, 6, 81, 0
14, 64080, Note_on_c, 6, 38, 127
14, 64080, Note_on_c, 6, 81, 127
14, 64088, Note_on_c, 6, 40, 0
14, 64115, Note_on_c, 6, 38, 0
14, 64116, Note_on_c, 6, 81, 0
14, 64120, Note_on_c, 6, 40, 90
14, 64120, Note_on_c, 6, 86, 82
14, 64160, Note_on_c, 6, 81, 90
14, 64160, Note_on_c, 6, 38, 127
14, 64164, Note_on_c, 6, 86, 0
14, 64171, Note_on_c, 6, 40, 0
14, 64198, Note_on_c, 6, 38, 0
14, 64200, Note_on_c, 6, 36, 127
14, 64200, Note_on_c, 6, 76, 118
14, 64208, Note_on_c, 6, 81, 0
14, 65495, Note_on_c, 6, 76, 0
14, 65527, Note_on_c, 6, 36, 0
14, 65580, Note_on_c, 6, 45, 127
14, 65580, Note_on_c, 6, 81, 127
14, 65660, Note_on_c, 6, 81, 0
14, 65688, Note_on_c, 6, 45, 0
14, 65700, Note_on_c, 6, 81, 127
14, 65700, Note_on_c, 6, 43, 127
14, 65793, Note_on_c, 6, 81, 0
14, 65817, Note_on_c, 6, 43, 0
14, 65820, Note_on_c, 6, 42, 127
14, 65820, Note_on_c, 6, 81, 127
14, 65907, Note_on_c, 6, 81, 0
14, 65934, Note_on_c, 6, 42, 0
14, 65940, Note_on_c, 6, 81, 113
14, 65940, Note_on_c, 6, 40, 113
14, 65976, Note_on_c, 6, 81, 0
14, 65995, Note_on_c, 6, 40, 0
14, 66000, Note_on_c, 6, 38, 122
14, 66000, Note_on_c, 6, 81, 127
14, 66040, Note_on_c, 6, 81, 0
14, 66040, Note_on_c, 6, 86, 90
14, 66040, Note_on_c, 6, 40, 110
14, 66045, Note_on_c, 6, 38, 0
14, 66080, Note_on_c, 6, 81, 103
14, 66080, Note_on_c, 6, 38, 127
14, 66083, Note_on_c, 6, 40, 0
14, 66085, Note_on_c, 6, 86, 0
14, 66120, Note_on_c, 6, 36, 127
14, 66120, Note_on_c, 6, 76, 113
14, 66130, Note_on_c, 6, 38, 0
14, 66131, Note_on_c, 6, 81, 0
14, 67455, Note_on_c, 6, 36, 0
14, 67469, Note_on_c, 6, 76, 0
14, 67500, Note_on_c, 6, 81, 127
14, 67502, Note_on_c, 6, 45, 127
14, 67580, Note_on_c, 6, 81, 0
14, 67620, Note_on_c, 6, 81, 127
14, 67620, Note_on_c, 6, 43, 118
14, 67625, Note_on_c, 6, 45, 0
14, 67700, Note_on_c, 6, 81, 0
14, 67740, Note_on_c, 6, 42, 127
14, 67740, Note_on_c, 6, 81, 127
14, 67748, Note_on_c, 6, 43, 0
14, 67829, Note_on_c, 6, 81, 0
14, 67860, Note_on_c, 6, 81, 127
14, 67860, Note_on_c, 6, 40, 106
14, 67872, Note_on_c, 6, 42, 0
14, 67890, Note_on_c, 6, 81, 0
14, 67920, Note_on_c, 6, 38, 118
14, 67920, Note_on_c, 6, 81, 110
14, 67922, Note_on_c, 6, 40, 0
14, 67951, Note_on_c, 6, 81, 0
14, 67960, Note_on_c, 6, 40, 94
14, 67960, Note_on_c, 6, 86, 76
14, 67965, Note_on_c, 6, 38, 0
14, 68000, Note_on_c, 6, 86, 0
14, 68000, Note_on_c, 6, 81, 87
14, 68000, Note_on_c, 6, 38, 122
14, 68002, Note_on_c, 6, 40, 0
14, 68040, Note_on_c, 6, 76, 103
14, 68040, Note_on_c, 6, 36, 118
14, 68052, Note_on_c, 6, 81, 0
14, 68052, Note_on_c, 6, 38, 0
14, 69343, Note_on_c, 6, 36, 0
14, 69355, Note_on_c, 6, 76, 0
14, 69360, Note_on_c, 6, 33, 66
14, 69420, Note_on_c, 6, 38, 68
14, 69426, Note_on_c, 6, 33, 0
14, 69480, Note_on_c, 6, 40, 68
14, 69492, Note_on_c, 6, 38, 0
14, 69539, Note_on_c, 6, 40, 0
14, 69540, Note_on_c, 6, 45, 82
14, 69600, Note_on_c, 6, 43, 85
14, 69605, Note_on_c, 6, 45, 0
14, 69660, Note_on_c, 6, 38, 80
14, 69665, Note_on_c, 6, 43, 0
14, 69720, Note_on_c, 6, 40, 56
14, 69721, Note_on_c, 6, 38, 0
14, 69780, Note_on_c, 6, 33, 64
14, 69783, Note_on_c, 6, 40, 0
14, 69840, Note_on_c, 6, 45, 84
14, 69841, Note_on_c, 6, 33, 0
14, 69900, Note_on_c, 6, 50, 97
14, 69909, Note_on_c, 6, 45, 0
14, 69957, Note_on_c, 6, 50, 0
14, 69960, Note_on_c, 6, 52, 74
14, 70019, Note_on_c, 6, 52, 0
14, 70020, Note_on_c, 6, 57, 77
14, 70080, Note_on_c, 6, 55, 82
14, 70086, Note_on_c, 6, 57, 0
14, 70140, Note_on_c, 6, 50, 85
14, 70142, Note_on_c, 6, 55, 0
14, 70200, Note_on_c, 6, 50, 0
14, 70200, Note_on_c, 6, 52, 84
14, 70260, Note_on_c, 6, 45, 90
14, 70261, Note_on_c, 6, 52, 0
14, 70319, Note_on_c, 6, 45, 0
14, 70320, Note_on_c, 6, 38, 78
14, 70379, Note_on_c, 6, 38, 0
14, 70380, Note_on_c, 6, 55, 78
14, 70439, Note_on_c, 6, 55, 0
14, 70440, Note_on_c, 6, 48, 84
14, 70499, Note_on_c, 6, 48, 0
14, 70500, Note_on_c, 6, 53, 90
14, 70559, Note_on_c, 6, 53, 0
14, 70560, Note_on_c, 6, 45, 85
14, 70619, Note_on_c, 6, 45, 0
14, 70620, Note_on_c, 6, 50, 97
14, 70679, Note_on_c, 6, 50, 0
14, 70680, Note_on_c, 6, 48, 85
14, 70739, Note_on_c, 6, 48, 0
14, 70740, Note_on_c, 6, 43, 74
14, 70799, Note_on_c, 6, 43, 0
14, 70800, Note_on_c, 6, 41, 80
14, 70859, Note_on_c, 6, 41, 0
14, 70860, Note_on_c, 6, 45, 90
14, 70919, Note_on_c, 6, 45, 0
14, 70920, Note_on_c, 6, 38, 77
14, 70979, Note_on_c, 6, 38, 0
14, 70980, Note_on_c, 6, 43, 80
14, 71039, Note_on_c, 6, 43, 0
14, 71040, Note_on_c, 6, 41, 78
14, 71099, Note_on_c, 6, 41, 0
14, 71100, Note_on_c, 6, 36, 72
14, 71159, Note_on_c, 6, 36, 0
14, 71160, Note_on_c, 6, 38, 92
14, 71219, Note_on_c, 6, 38, 0
14, 71220, Note_on_c, 6, 33, 97
14, 71279, Note_on_c, 6, 33, 0
14, 71279, End_track
15, 0, Start_track
15, 0, Title_t, "organus minimus"
15, 0, MIDI_port, 0
15, 80, Control_c, 14, 7, 127
15, 81, Control_c, 14, 10, 40
15, 82, Program_c, 14, 69
15, 83, Control_c, 14, 91, 87
15, 32640, Note_on_c, 14, 79, 30
15, 32641, Note_on_c, 14, 76, 30
15, 32953, Note_on_c, 14, 79, 0
15, 32954, Note_on_c, 14, 76, 0
15, 32960, Note_on_c, 14, 74, 30
15, 32960, Note_on_c, 14, 77, 30
15, 33033, Note_on_c, 14, 74, 0
15, 33033, Note_on_c, 14, 77, 0
15, 33040, Note_on_c, 14, 72, 30
15, 33040, Note_on_c, 14, 69, 30
15, 33113, Note_on_c, 14, 72, 0
15, 33113, Note_on_c, 14, 69, 0
15, 33120, Program_c, 14, 63
15, 33122, Control_c, 14, 10, 64
15, 33128, Note_on_c, 14, 73, 33
15, 33129, Note_on_c, 14, 66, 33
15, 33130, Note_on_c, 14, 68, 33
15, 33795, Note_on_c, 14, 68, 0
15, 33797, Note_on_c, 14, 66, 0
15, 33799, Note_on_c, 14, 73, 0
15, 33838, Note_on_c, 14, 64, 35
15, 33839, Note_on_c, 14, 66, 35
15, 33840, Note_on_c, 14, 71, 35
15, 34525, Note_on_c, 14, 66, 0
15, 34528, Note_on_c, 14, 64, 0
15, 34529, Note_on_c, 14, 71, 0
15, 34565, Note_on_c, 14, 70, 45
15, 34565, Note_on_c, 14, 63, 45
15, 34565, Note_on_c, 14, 65, 45
15, 35243, Note_on_c, 14, 65, 0
15, 35244, Note_on_c, 14, 63, 0
15, 35245, Note_on_c, 14, 70, 0
15, 37441, Note_on_c, 14, 75, 40
15, 37443, Note_on_c, 14, 79, 28
15, 38149, Note_on_c, 14, 75, 0
15, 38161, Note_on_c, 14, 74, 40
15, 38872, Note_on_c, 14, 74, 0
15, 38877, Note_on_c, 14, 79, 0
15, 38878, Note_on_c, 14, 64, 40
15, 38880, Note_on_c, 14, 69, 40
15, 38880, Note_on_c, 14, 62, 40
15, 39574, Note_on_c, 14, 64, 0
15, 39574, Note_on_c, 14, 62, 0
15, 39576, Note_on_c, 14, 69, 0
15, 68880, Program_c, 14, 16
15, 69360, Note_on_c, 14, 57, 84
15, 69360, Note_on_c, 14, 45, 84
15, 69420, Note_on_c, 14, 50, 86
15, 69420, Note_on_c, 14, 62, 86
15, 69426, Note_on_c, 14, 57, 0
15, 69426, Note_on_c, 14, 45, 0
15, 69480, Note_on_c, 14, 52, 86
15, 69480, Note_on_c, 14, 64, 86
15, 69492, Note_on_c, 14, 50, 0
15, 69492, Note_on_c, 14, 62, 0
15, 69539, Note_on_c, 14, 52, 0
15, 69539, Note_on_c, 14, 64, 0
15, 69540, Note_on_c, 14, 57, 97
15, 69540, Note_on_c, 14, 69, 97
15, 69600, Note_on_c, 14, 55, 100
15, 69600, Note_on_c, 14, 67, 100
15, 69605, Note_on_c, 14, 57, 0
15, 69605, Note_on_c, 14, 69, 0
15, 69660, Note_on_c, 14, 50, 96
15, 69660, Note_on_c, 14, 62, 96
15, 69665, Note_on_c, 14, 55, 0
15, 69665, Note_on_c, 14, 67, 0
15, 69720, Note_on_c, 14, 64, 76
15, 69720, Note_on_c, 14, 52, 76
15, 69721, Note_on_c, 14, 50, 0
15, 69721, Note_on_c, 14, 62, 0
15, 69780, Note_on_c, 14, 57, 83
15, 69780, Note_on_c, 14, 45, 83
15, 69783, Note_on_c, 14, 64, 0
15, 69783, Note_on_c, 14, 52, 0
15, 69839, Note_on_c, 14, 57, 0
15, 69840, Note_on_c, 14, 69, 99
15, 69840, Note_on_c, 14, 57, 99
15, 69841, Note_on_c, 14, 45, 0
15, 69900, Note_on_c, 14, 62, 101
15, 69900, Note_on_c, 14, 74, 101
15, 69907, Note_on_c, 14, 57, 0
15, 69909, Note_on_c, 14, 69, 0
15, 69957, Note_on_c, 14, 62, 0
15, 69957, Note_on_c, 14, 74, 0
15, 69960, Note_on_c, 14, 64, 91
15, 69960, Note_on_c, 14, 76, 91
15, 70019, Note_on_c, 14, 64, 0
15, 70019, Note_on_c, 14, 76, 0
15, 70020, Note_on_c, 14, 81, 93
15, 70020, Note_on_c, 14, 69, 93
15, 70080, Note_on_c, 14, 79, 97
15, 70080, Note_on_c, 14, 67, 97
15, 70086, Note_on_c, 14, 81, 0
15, 70086, Note_on_c, 14, 69, 0
15, 70140, Note_on_c, 14, 62, 100
15, 70140, Note_on_c, 14, 74, 100
15, 70142, Note_on_c, 14, 79, 0
15, 70142, Note_on_c, 14, 67, 0
15, 70200, Note_on_c, 14, 62, 0
15, 70200, Note_on_c, 14, 74, 0
15, 70200, Note_on_c, 14, 64, 99
15, 70200, Note_on_c, 14, 76, 99
15, 70260, Note_on_c, 14, 69, 101
15, 70260, Note_on_c, 14, 57, 101
15, 70261, Note_on_c, 14, 64, 0
15, 70261, Note_on_c, 14, 76, 0
15, 70319, Note_on_c, 14, 69, 0
15, 70319, Note_on_c, 14, 57, 0
15, 70320, Note_on_c, 14, 62, 62
15, 70320, Note_on_c, 14, 50, 62
15, 70379, Note_on_c, 14, 62, 0
15, 70379, Note_on_c, 14, 50, 0
15, 70380, Note_on_c, 14, 79, 62
15, 70380, Note_on_c, 14, 67, 62
15, 70439, Note_on_c, 14, 79, 0
15, 70439, Note_on_c, 14, 67, 0
15, 70440, Note_on_c, 14, 72, 67
15, 70440, Note_on_c, 14, 60, 67
15, 70499, Note_on_c, 14, 72, 0
15, 70499, Note_on_c, 14, 60, 0
15, 70500, Note_on_c, 14, 77, 72
15, 70500, Note_on_c, 14, 65, 72
15, 70559, Note_on_c, 14, 77, 0
15, 70559, Note_on_c, 14, 65, 0
15, 70560, Note_on_c, 14, 69, 68
15, 70560, Note_on_c, 14, 57, 68
15, 70619, Note_on_c, 14, 69, 0
15, 70619, Note_on_c, 14, 57, 0
15, 70620, Note_on_c, 14, 62, 77
15, 70620, Note_on_c, 14, 74, 77
15, 70679, Note_on_c, 14, 62, 0
15, 70679, Note_on_c, 14, 74, 0
15, 70680, Note_on_c, 14, 72, 68
15, 70680, Note_on_c, 14, 60, 68
15, 70739, Note_on_c, 14, 72, 0
15, 70739, Note_on_c, 14, 60, 0
15, 70740, Note_on_c, 14, 55, 59
15, 70740, Note_on_c, 14, 67, 59
15, 70799, Note_on_c, 14, 55, 0
15, 70799, Note_on_c, 14, 67, 0
15, 70800, Note_on_c, 14, 65, 64
15, 70800, Note_on_c, 14, 53, 64
15, 70859, Note_on_c, 14, 65, 0
15, 70859, Note_on_c, 14, 53, 0
15, 70860, Note_on_c, 14, 57, 72
15, 70860, Note_on_c, 14, 69, 72
15, 70919, Note_on_c, 14, 57, 0
15, 70919, Note_on_c, 14, 69, 0
15, 70920, Note_on_c, 14, 50, 61
15, 70920, Note_on_c, 14, 62, 61
15, 70979, Note_on_c, 14, 50, 0
15, 70979, Note_on_c, 14, 62, 0
15, 70980, Note_on_c, 14, 67, 64
15, 70980, Note_on_c, 14, 55, 64
15, 71039, Note_on_c, 14, 67, 0
15, 71039, Note_on_c, 14, 55, 0
15, 71040, Note_on_c, 14, 53, 62
15, 71040, Note_on_c, 14, 65, 62
15, 71099, Note_on_c, 14, 53, 0
15, 71099, Note_on_c, 14, 65, 0
15, 71100, Note_on_c, 14, 60, 57
15, 71100, Note_on_c, 14, 48, 57
15, 71159, Note_on_c, 14, 60, 0
15, 71159, Note_on_c, 14, 48, 0
15, 71160, Note_on_c, 14, 50, 73
15, 71160, Note_on_c, 14, 62, 73
15, 71219, Note_on_c, 14, 50, 0
15, 71219, Note_on_c, 14, 62, 0
15, 71220, Note_on_c, 14, 57, 77
15, 71220, Note_on_c, 14, 45, 77
15, 71279, Note_on_c, 14, 57, 0
15, 71279, Note_on_c, 14, 45, 0
15, 71279, End_track
16, 0, Start_track
16, 0, Title_t, "drums"
16, 0, MIDI_port, 0
16, 0, Control_c, 9, 0, 127
16, 0, Control_c, 9, 32, 0
16, 0, Program_c, 9, 0
16, 85, Control_c, 9, 7, 100
16, 86, Control_c, 9, 10, 64
16, 87, Control_c, 9, 91, 39
16, 720, Note_on_c, 9, 36, 75
16, 720, Note_on_c, 9, 53, 67
16, 734, Note_on_c, 9, 36, 0
16, 734, Note_on_c, 9, 53, 0
16, 960, Note_on_c, 9, 40, 82
16, 960, Note_on_c, 9, 51, 67
16, 974, Note_on_c, 9, 40, 0
16, 974, Note_on_c, 9, 51, 0
16, 1080, Note_on_c, 9, 36, 61
16, 1094, Note_on_c, 9, 36, 0
16, 1208, Note_on_c, 9, 51, 68
16, 1222, Note_on_c, 9, 51, 0
16, 1260, Note_on_c, 9, 36, 68
16, 1274, Note_on_c, 9, 36, 0
16, 1320, Note_on_c, 9, 40, 72
16, 1334, Note_on_c, 9, 40, 0
16, 1380, Note_on_c, 9, 36, 45
16, 1394, Note_on_c, 9, 36, 0
16, 1440, Note_on_c, 9, 36, 78
16, 1446, Note_on_c, 9, 51, 67
16, 1454, Note_on_c, 9, 36, 0
16, 1460, Note_on_c, 9, 51, 0
16, 1680, Note_on_c, 9, 40, 104
16, 1690, Note_on_c, 9, 51, 70
16, 1694, Note_on_c, 9, 40, 0
16, 1704, Note_on_c, 9, 51, 0
16, 1800, Note_on_c, 9, 36, 77
16, 1814, Note_on_c, 9, 36, 0
16, 1927, Note_on_c, 9, 51, 77
16, 1941, Note_on_c, 9, 51, 0
16, 1980, Note_on_c, 9, 36, 68
16, 1994, Note_on_c, 9, 36, 0
16, 2040, Note_on_c, 9, 40, 112
16, 2054, Note_on_c, 9, 40, 0
16, 2100, Note_on_c, 9, 36, 61
16, 2114, Note_on_c, 9, 36, 0
16, 2160, Note_on_c, 9, 36, 78
16, 2168, Note_on_c, 9, 51, 73
16, 2174, Note_on_c, 9, 36, 0
16, 2182, Note_on_c, 9, 51, 0
16, 2280, Note_on_c, 9, 36, 73
16, 2294, Note_on_c, 9, 36, 0
16, 2400, Note_on_c, 9, 40, 127
16, 2407, Note_on_c, 9, 51, 77
16, 2414, Note_on_c, 9, 40, 0
16, 2421, Note_on_c, 9, 51, 0
16, 2520, Note_on_c, 9, 36, 73
16, 2534, Note_on_c, 9, 36, 0
16, 2644, Note_on_c, 9, 51, 90
16, 2658, Note_on_c, 9, 51, 0
16, 2730, Note_on_c, 9, 36, 43
16, 2744, Note_on_c, 9, 36, 0
16, 2760, Note_on_c, 9, 40, 102
16, 2774, Note_on_c, 9, 40, 0
16, 2820, Note_on_c, 9, 36, 67
16, 2834, Note_on_c, 9, 36, 0
16, 2880, Note_on_c, 9, 36, 77
16, 2894, Note_on_c, 9, 36, 0
16, 2988, Note_on_c, 9, 51, 15
16, 3002, Note_on_c, 9, 51, 0
16, 3006, Note_on_c, 9, 51, 32
16, 3020, Note_on_c, 9, 51, 0
16, 3024, Note_on_c, 9, 51, 20
16, 3038, Note_on_c, 9, 51, 0
16, 3042, Note_on_c, 9, 51, 23
16, 3056, Note_on_c, 9, 51, 0
16, 3059, Note_on_c, 9, 51, 30
16, 3073, Note_on_c, 9, 51, 0
16, 3078, Note_on_c, 9, 51, 25
16, 3092, Note_on_c, 9, 51, 0
16, 3096, Note_on_c, 9, 51, 43
16, 3110, Note_on_c, 9, 51, 0
16, 3114, Note_on_c, 9, 51, 35
16, 3128, Note_on_c, 9, 51, 0
16, 3132, Note_on_c, 9, 51, 45
16, 3146, Note_on_c, 9, 51, 0
16, 3150, Note_on_c, 9, 51, 44
16, 3164, Note_on_c, 9, 51, 0
16, 3168, Note_on_c, 9, 51, 53
16, 3182, Note_on_c, 9, 51, 0
16, 3186, Note_on_c, 9, 51, 48
16, 3200, Note_on_c, 9, 51, 0
16, 3204, Note_on_c, 9, 51, 69
16, 3218, Note_on_c, 9, 51, 0
16, 3222, Note_on_c, 9, 51, 49
16, 3236, Note_on_c, 9, 51, 0
16, 3240, Note_on_c, 9, 51, 100
16, 3254, Note_on_c, 9, 51, 0
16, 3258, Note_on_c, 9, 51, 69
16, 3272, Note_on_c, 9, 51, 0
16, 3276, Note_on_c, 9, 51, 82
16, 3290, Note_on_c, 9, 51, 0
16, 3295, Note_on_c, 9, 51, 64
16, 3309, Note_on_c, 9, 51, 0
16, 3312, Note_on_c, 9, 51, 127
16, 3326, Note_on_c, 9, 51, 0
16, 3330, Note_on_c, 9, 51, 73
16, 3344, Note_on_c, 9, 51, 0
16, 3348, Note_on_c, 9, 51, 97
16, 3362, Note_on_c, 9, 51, 0
16, 3366, Note_on_c, 9, 51, 66
16, 3380, Note_on_c, 9, 51, 0
16, 3384, Note_on_c, 9, 51, 70
16, 3398, Note_on_c, 9, 51, 0
16, 3402, Note_on_c, 9, 51, 36
16, 3416, Note_on_c, 9, 51, 0
16, 3420, Note_on_c, 9, 51, 39
16, 3434, Note_on_c, 9, 51, 0
16, 3438, Note_on_c, 9, 51, 33
16, 3452, Note_on_c, 9, 51, 0
16, 3457, Note_on_c, 9, 51, 35
16, 3471, Note_on_c, 9, 51, 0
16, 3474, Note_on_c, 9, 51, 38
16, 3488, Note_on_c, 9, 51, 0
16, 3493, Note_on_c, 9, 51, 26
16, 3507, Note_on_c, 9, 51, 0
16, 3511, Note_on_c, 9, 51, 40
16, 3525, Note_on_c, 9, 51, 0
16, 3528, Note_on_c, 9, 51, 26
16, 3542, Note_on_c, 9, 51, 0
16, 3600, Note_on_c, 9, 36, 87
16, 3600, Note_on_c, 9, 51, 127
16, 3614, Note_on_c, 9, 36, 0
16, 3614, Note_on_c, 9, 51, 0
16, 3720, Note_on_c, 9, 36, 61
16, 3734, Note_on_c, 9, 36, 0
16, 3840, Note_on_c, 9, 40, 102
16, 3851, Note_on_c, 9, 51, 68
16, 3854, Note_on_c, 9, 40, 0
16, 3865, Note_on_c, 9, 51, 0
16, 3960, Note_on_c, 9, 36, 61
16, 3974, Note_on_c, 9, 36, 0
16, 4080, Note_on_c, 9, 51, 76
16, 4094, Note_on_c, 9, 51, 0
16, 4140, Note_on_c, 9, 36, 41
16, 4154, Note_on_c, 9, 36, 0
16, 4200, Note_on_c, 9, 40, 127
16, 4214, Note_on_c, 9, 40, 0
16, 4260, Note_on_c, 9, 36, 49
16, 4274, Note_on_c, 9, 36, 0
16, 4320, Note_on_c, 9, 36, 79
16, 4325, Note_on_c, 9, 51, 85
16, 4334, Note_on_c, 9, 36, 0
16, 4339, Note_on_c, 9, 51, 0
16, 4560, Note_on_c, 9, 40, 127
16, 4565, Note_on_c, 9, 51, 118
16, 4574, Note_on_c, 9, 40, 0
16, 4579, Note_on_c, 9, 51, 0
16, 4680, Note_on_c, 9, 36, 42
16, 4694, Note_on_c, 9, 36, 0
16, 4740, Note_on_c, 9, 40, 127
16, 4754, Note_on_c, 9, 40, 0
16, 4808, Note_on_c, 9, 51, 82
16, 4822, Note_on_c, 9, 51, 0
16, 4860, Note_on_c, 9, 48, 123
16, 4874, Note_on_c, 9, 48, 0
16, 4920, Note_on_c, 9, 45, 127
16, 4934, Note_on_c, 9, 45, 0
16, 4980, Note_on_c, 9, 36, 50
16, 4994, Note_on_c, 9, 36, 0
16, 5038, Note_on_c, 9, 51, 85
16, 5040, Note_on_c, 9, 36, 83
16, 5052, Note_on_c, 9, 51, 0
16, 5054, Note_on_c, 9, 36, 0
16, 5160, Note_on_c, 9, 36, 49
16, 5174, Note_on_c, 9, 36, 0
16, 5280, Note_on_c, 9, 40, 127
16, 5280, Note_on_c, 9, 51, 82
16, 5294, Note_on_c, 9, 40, 0
16, 5294, Note_on_c, 9, 51, 0
16, 5520, Note_on_c, 9, 36, 68
16, 5529, Note_on_c, 9, 51, 87
16, 5534, Note_on_c, 9, 36, 0
16, 5543, Note_on_c, 9, 51, 0
16, 5580, Note_on_c, 9, 36, 62
16, 5594, Note_on_c, 9, 36, 0
16, 5640, Note_on_c, 9, 40, 123
16, 5654, Note_on_c, 9, 40, 0
16, 5700, Note_on_c, 9, 36, 53
16, 5714, Note_on_c, 9, 36, 0
16, 5760, Note_on_c, 9, 36, 83
16, 5764, Note_on_c, 9, 51, 92
16, 5774, Note_on_c, 9, 36, 0
16, 5778, Note_on_c, 9, 51, 0
16, 5880, Note_on_c, 9, 36, 27
16, 5894, Note_on_c, 9, 36, 0
16, 6000, Note_on_c, 9, 40, 127
16, 6014, Note_on_c, 9, 40, 0
16, 6180, Note_on_c, 9, 40, 102
16, 6194, Note_on_c, 9, 40, 0
16, 6300, Note_on_c, 9, 47, 91
16, 6314, Note_on_c, 9, 47, 0
16, 6360, Note_on_c, 9, 50, 88
16, 6374, Note_on_c, 9, 50, 0
16, 6420, Note_on_c, 9, 47, 55
16, 6434, Note_on_c, 9, 47, 0
16, 6480, Note_on_c, 9, 36, 65
16, 6480, Note_on_c, 9, 49, 127
16, 6494, Note_on_c, 9, 36, 0
16, 6494, Note_on_c, 9, 49, 0
16, 6660, Note_on_c, 9, 36, 67
16, 6674, Note_on_c, 9, 36, 0
16, 6720, Note_on_c, 9, 40, 116
16, 6731, Note_on_c, 9, 51, 80
16, 6734, Note_on_c, 9, 40, 0
16, 6745, Note_on_c, 9, 51, 0
16, 6840, Note_on_c, 9, 36, 18
16, 6854, Note_on_c, 9, 36, 0
16, 6900, Note_on_c, 9, 36, 35
16, 6914, Note_on_c, 9, 36, 0
16, 6958, Note_on_c, 9, 51, 74
16, 6960, Note_on_c, 9, 40, 116
16, 6972, Note_on_c, 9, 51, 0
16, 6974, Note_on_c, 9, 40, 0
16, 7080, Note_on_c, 9, 36, 49
16, 7094, Note_on_c, 9, 36, 0
16, 7140, Note_on_c, 9, 36, 49
16, 7154, Note_on_c, 9, 36, 0
16, 7200, Note_on_c, 9, 40, 127
16, 7200, Note_on_c, 9, 36, 85
16, 7214, Note_on_c, 9, 40, 0
16, 7214, Note_on_c, 9, 36, 0
16, 7320, Note_on_c, 9, 36, 42
16, 7334, Note_on_c, 9, 36, 0
16, 7380, Note_on_c, 9, 36, 37
16, 7394, Note_on_c, 9, 36, 0
16, 7440, Note_on_c, 9, 36, 54
16, 7440, Note_on_c, 9, 40, 123
16, 7440, Note_on_c, 9, 59, 84
16, 7445, Note_on_c, 9, 51, 90
16, 7454, Note_on_c, 9, 36, 0
16, 7454, Note_on_c, 9, 40, 0
16, 7454, Note_on_c, 9, 59, 0
16, 7459, Note_on_c, 9, 51, 0
16, 7560, Note_on_c, 9, 36, 49
16, 7574, Note_on_c, 9, 36, 0
16, 7620, Note_on_c, 9, 36, 56
16, 7634, Note_on_c, 9, 36, 0
16, 7680, Note_on_c, 9, 40, 112
16, 7680, Note_on_c, 9, 57, 82
16, 7694, Note_on_c, 9, 40, 0
16, 7694, Note_on_c, 9, 57, 0
16, 7800, Note_on_c, 9, 36, 56
16, 7814, Note_on_c, 9, 36, 0
16, 7860, Note_on_c, 9, 36, 43
16, 7874, Note_on_c, 9, 36, 0
16, 7920, Note_on_c, 9, 40, 110
16, 7920, Note_on_c, 9, 49, 116
16, 7934, Note_on_c, 9, 40, 0
16, 7934, Note_on_c, 9, 49, 0
16, 8040, Note_on_c, 9, 36, 29
16, 8054, Note_on_c, 9, 36, 0
16, 8100, Note_on_c, 9, 36, 36
16, 8114, Note_on_c, 9, 36, 0
16, 8160, Note_on_c, 9, 40, 123
16, 8160, Note_on_c, 9, 36, 66
16, 8165, Note_on_c, 9, 51, 92
16, 8174, Note_on_c, 9, 40, 0
16, 8174, Note_on_c, 9, 36, 0
16, 8179, Note_on_c, 9, 51, 0
16, 8280, Note_on_c, 9, 36, 45
16, 8294, Note_on_c, 9, 36, 0
16, 8340, Note_on_c, 9, 36, 35
16, 8354, Note_on_c, 9, 36, 0
16, 8400, Note_on_c, 9, 40, 127
16, 8406, Note_on_c, 9, 51, 85
16, 8414, Note_on_c, 9, 40, 0
16, 8420, Note_on_c, 9, 51, 0
16, 8520, Note_on_c, 9, 36, 59
16, 8534, Note_on_c, 9, 36, 0
16, 8580, Note_on_c, 9, 36, 73
16, 8594, Note_on_c, 9, 36, 0
16, 8640, Note_on_c, 9, 57, 81
16, 8640, Note_on_c, 9, 40, 102
16, 8654, Note_on_c, 9, 57, 0
16, 8654, Note_on_c, 9, 40, 0
16, 8760, Note_on_c, 9, 36, 41
16, 8774, Note_on_c, 9, 36, 0
16, 8820, Note_on_c, 9, 36, 56
16, 8834, Note_on_c, 9, 36, 0
16, 8880, Note_on_c, 9, 36, 41
16, 8880, Note_on_c, 9, 40, 120
16, 8886, Note_on_c, 9, 51, 97
16, 8894, Note_on_c, 9, 36, 0
16, 8894, Note_on_c, 9, 40, 0
16, 8900, Note_on_c, 9, 51, 0
16, 9000, Note_on_c, 9, 36, 41
16, 9014, Note_on_c, 9, 36, 0
16, 9060, Note_on_c, 9, 36, 57
16, 9074, Note_on_c, 9, 36, 0
16, 9120, Note_on_c, 9, 36, 53
16, 9120, Note_on_c, 9, 40, 123
16, 9125, Note_on_c, 9, 51, 90
16, 9134, Note_on_c, 9, 36, 0
16, 9134, Note_on_c, 9, 40, 0
16, 9139, Note_on_c, 9, 51, 0
16, 9240, Note_on_c, 9, 36, 49
16, 9254, Note_on_c, 9, 36, 0
16, 9300, Note_on_c, 9, 36, 45
16, 9314, Note_on_c, 9, 36, 0
16, 9357, Note_on_c, 9, 51, 94
16, 9360, Note_on_c, 9, 40, 123
16, 9360, Note_on_c, 9, 36, 71
16, 9371, Note_on_c, 9, 51, 0
16, 9374, Note_on_c, 9, 40, 0
16, 9374, Note_on_c, 9, 36, 0
16, 9480, Note_on_c, 9, 36, 32
16, 9494, Note_on_c, 9, 36, 0
16, 9540, Note_on_c, 9, 36, 36
16, 9554, Note_on_c, 9, 36, 0
16, 9598, Note_on_c, 9, 51, 94
16, 9600, Note_on_c, 9, 36, 59
16, 9600, Note_on_c, 9, 40, 102
16, 9612, Note_on_c, 9, 51, 0
16, 9614, Note_on_c, 9, 36, 0
16, 9614, Note_on_c, 9, 40, 0
16, 9720, Note_on_c, 9, 36, 43
16, 9734, Note_on_c, 9, 36, 0
16, 9780, Note_on_c, 9, 36, 57
16, 9794, Note_on_c, 9, 36, 0
16, 9839, Note_on_c, 9, 51, 113
16, 9840, Note_on_c, 9, 40, 127
16, 9840, Note_on_c, 9, 36, 71
16, 9853, Note_on_c, 9, 51, 0
16, 9854, Note_on_c, 9, 40, 0
16, 9854, Note_on_c, 9, 36, 0
16, 9960, Note_on_c, 9, 36, 29
16, 9974, Note_on_c, 9, 36, 0
16, 10020, Note_on_c, 9, 36, 59
16, 10034, Note_on_c, 9, 36, 0
16, 10080, Note_on_c, 9, 40, 120
16, 10080, Note_on_c, 9, 36, 85
16, 10094, Note_on_c, 9, 40, 0
16, 10094, Note_on_c, 9, 36, 0
16, 10200, Note_on_c, 9, 36, 49
16, 10214, Note_on_c, 9, 36, 0
16, 10260, Note_on_c, 9, 36, 44
16, 10274, Note_on_c, 9, 36, 0
16, 10320, Note_on_c, 9, 51, 113
16, 10320, Note_on_c, 9, 40, 98
16, 10320, Note_on_c, 9, 36, 71
16, 10334, Note_on_c, 9, 51, 0
16, 10334, Note_on_c, 9, 40, 0
16, 10334, Note_on_c, 9, 36, 0
16, 10440, Note_on_c, 9, 36, 37
16, 10454, Note_on_c, 9, 36, 0
16, 10500, Note_on_c, 9, 36, 36
16, 10514, Note_on_c, 9, 36, 0
16, 10560, Note_on_c, 9, 40, 112
16, 10561, Note_on_c, 9, 51, 113
16, 10574, Note_on_c, 9, 40, 0
16, 10575, Note_on_c, 9, 51, 0
16, 10620, Note_on_c, 9, 36, 47
16, 10634, Note_on_c, 9, 36, 0
16, 10680, Note_on_c, 9, 36, 45
16, 10694, Note_on_c, 9, 36, 0
16, 10740, Note_on_c, 9, 36, 45
16, 10754, Note_on_c, 9, 36, 0
16, 10800, Note_on_c, 9, 40, 112
16, 10800, Note_on_c, 9, 36, 85
16, 10814, Note_on_c, 9, 40, 0
16, 10814, Note_on_c, 9, 36, 0
16, 10920, Note_on_c, 9, 36, 27
16, 10934, Note_on_c, 9, 36, 0
16, 10980, Note_on_c, 9, 36, 35
16, 10994, Note_on_c, 9, 36, 0
16, 11037, Note_on_c, 9, 51, 100
16, 11040, Note_on_c, 9, 36, 33
16, 11040, Note_on_c, 9, 40, 112
16, 11051, Note_on_c, 9, 51, 0
16, 11054, Note_on_c, 9, 36, 0
16, 11054, Note_on_c, 9, 40, 0
16, 11160, Note_on_c, 9, 36, 38
16, 11174, Note_on_c, 9, 36, 0
16, 11220, Note_on_c, 9, 36, 45
16, 11234, Note_on_c, 9, 36, 0
16, 11280, Note_on_c, 9, 40, 110
16, 11281, Note_on_c, 9, 51, 103
16, 11294, Note_on_c, 9, 40, 0
16, 11295, Note_on_c, 9, 51, 0
16, 11340, Note_on_c, 9, 36, 77
16, 11354, Note_on_c, 9, 36, 0
16, 11400, Note_on_c, 9, 36, 66
16, 11414, Note_on_c, 9, 36, 0
16, 11460, Note_on_c, 9, 36, 66
16, 11474, Note_on_c, 9, 36, 0
16, 11520, Note_on_c, 9, 36, 37
16, 11520, Note_on_c, 9, 40, 127
16, 11520, Note_on_c, 9, 49, 127
16, 11534, Note_on_c, 9, 36, 0
16, 11534, Note_on_c, 9, 40, 0
16, 11534, Note_on_c, 9, 49, 0
16, 11640, Note_on_c, 9, 36, 60
16, 11654, Note_on_c, 9, 36, 0
16, 11700, Note_on_c, 9, 36, 70
16, 11714, Note_on_c, 9, 36, 0
16, 11880, Note_on_c, 9, 40, 87
16, 11894, Note_on_c, 9, 40, 0
16, 12000, Note_on_c, 9, 36, 81
16, 12014, Note_on_c, 9, 36, 0
16, 12120, Note_on_c, 9, 36, 62
16, 12134, Note_on_c, 9, 36, 0
16, 12180, Note_on_c, 9, 36, 87
16, 12194, Note_on_c, 9, 36, 0
16, 12240, Note_on_c, 9, 36, 71
16, 12254, Note_on_c, 9, 36, 0
16, 12360, Note_on_c, 9, 40, 127
16, 12374, Note_on_c, 9, 40, 0
16, 12480, Note_on_c, 9, 57, 84
16, 12480, Note_on_c, 9, 36, 98
16, 12494, Note_on_c, 9, 57, 0
16, 12494, Note_on_c, 9, 36, 0
16, 12720, Note_on_c, 9, 36, 56
16, 12734, Note_on_c, 9, 36, 0
16, 12900, Note_on_c, 9, 36, 42
16, 12914, Note_on_c, 9, 36, 0
16, 12960, Note_on_c, 9, 36, 79
16, 12974, Note_on_c, 9, 36, 0
16, 13080, Note_on_c, 9, 40, 127
16, 13094, Note_on_c, 9, 40, 0
16, 13200, Note_on_c, 9, 36, 95
16, 13200, Note_on_c, 9, 49, 86
16, 13214, Note_on_c, 9, 36, 0
16, 13214, Note_on_c, 9, 49, 0
16, 13380, Note_on_c, 9, 36, 46
16, 13394, Note_on_c, 9, 36, 0
16, 13440, Note_on_c, 9, 36, 59
16, 13454, Note_on_c, 9, 36, 0
16, 13560, Note_on_c, 9, 40, 127
16, 13574, Note_on_c, 9, 40, 0
16, 13680, Note_on_c, 9, 36, 91
16, 13694, Note_on_c, 9, 36, 0
16, 15060, Note_on_c, 9, 36, 50
16, 15074, Note_on_c, 9, 36, 0
16, 15120, Note_on_c, 9, 36, 77
16, 15134, Note_on_c, 9, 36, 0
16, 15240, Note_on_c, 9, 36, 67
16, 15254, Note_on_c, 9, 36, 0
16, 15360, Note_on_c, 9, 40, 127
16, 15360, Note_on_c, 9, 51, 94
16, 15374, Note_on_c, 9, 40, 0
16, 15374, Note_on_c, 9, 51, 0
16, 15480, Note_on_c, 9, 36, 102
16, 15494, Note_on_c, 9, 36, 0
16, 15609, Note_on_c, 9, 51, 92
16, 15623, Note_on_c, 9, 51, 0
16, 15720, Note_on_c, 9, 40, 127
16, 15734, Note_on_c, 9, 40, 0
16, 15780, Note_on_c, 9, 36, 62
16, 15794, Note_on_c, 9, 36, 0
16, 15840, Note_on_c, 9, 36, 102
16, 15854, Note_on_c, 9, 36, 0
16, 15960, Note_on_c, 9, 36, 79
16, 15974, Note_on_c, 9, 36, 0
16, 16080, Note_on_c, 9, 40, 127
16, 16085, Note_on_c, 9, 51, 94
16, 16094, Note_on_c, 9, 40, 0
16, 16099, Note_on_c, 9, 51, 0
16, 16200, Note_on_c, 9, 36, 102
16, 16214, Note_on_c, 9, 36, 0
16, 16335, Note_on_c, 9, 51, 94
16, 16349, Note_on_c, 9, 51, 0
16, 16380, Note_on_c, 9, 36, 79
16, 16394, Note_on_c, 9, 36, 0
16, 16440, Note_on_c, 9, 40, 127
16, 16454, Note_on_c, 9, 40, 0
16, 16500, Note_on_c, 9, 36, 75
16, 16514, Note_on_c, 9, 36, 0
16, 16560, Note_on_c, 9, 36, 102
16, 16574, Note_on_c, 9, 36, 0
16, 16680, Note_on_c, 9, 36, 79
16, 16694, Note_on_c, 9, 36, 0
16, 16800, Note_on_c, 9, 40, 127
16, 16808, Note_on_c, 9, 51, 103
16, 16814, Note_on_c, 9, 40, 0
16, 16822, Note_on_c, 9, 51, 0
16, 16920, Note_on_c, 9, 36, 102
16, 16934, Note_on_c, 9, 36, 0
16, 17044, Note_on_c, 9, 51, 110
16, 17058, Note_on_c, 9, 51, 0
16, 17100, Note_on_c, 9, 36, 66
16, 17114, Note_on_c, 9, 36, 0
16, 17160, Note_on_c, 9, 40, 127
16, 17174, Note_on_c, 9, 40, 0
16, 17280, Note_on_c, 9, 36, 102
16, 17294, Note_on_c, 9, 36, 0
16, 17400, Note_on_c, 9, 36, 55
16, 17414, Note_on_c, 9, 36, 0
16, 17519, Note_on_c, 9, 51, 110
16, 17520, Note_on_c, 9, 40, 127
16, 17533, Note_on_c, 9, 51, 0
16, 17534, Note_on_c, 9, 40, 0
16, 17640, Note_on_c, 9, 36, 102
16, 17654, Note_on_c, 9, 36, 0
16, 17820, Note_on_c, 9, 36, 85
16, 17834, Note_on_c, 9, 36, 0
16, 17880, Note_on_c, 9, 40, 123
16, 17894, Note_on_c, 9, 40, 0
16, 17940, Note_on_c, 9, 36, 87
16, 17954, Note_on_c, 9, 36, 0
16, 18000, Note_on_c, 9, 49, 93
16, 18000, Note_on_c, 9, 36, 87
16, 18014, Note_on_c, 9, 49, 0
16, 18014, Note_on_c, 9, 36, 0
16, 18120, Note_on_c, 9, 36, 67
16, 18134, Note_on_c, 9, 36, 0
16, 18240, Note_on_c, 9, 40, 127
16, 18242, Note_on_c, 9, 51, 122
16, 18254, Note_on_c, 9, 40, 0
16, 18256, Note_on_c, 9, 51, 0
16, 18360, Note_on_c, 9, 36, 102
16, 18374, Note_on_c, 9, 36, 0
16, 18486, Note_on_c, 9, 51, 113
16, 18500, Note_on_c, 9, 51, 0
16, 18540, Note_on_c, 9, 36, 79
16, 18554, Note_on_c, 9, 36, 0
16, 18600, Note_on_c, 9, 40, 127
16, 18614, Note_on_c, 9, 40, 0
16, 18660, Note_on_c, 9, 36, 95
16, 18674, Note_on_c, 9, 36, 0
16, 18720, Note_on_c, 9, 36, 102
16, 18734, Note_on_c, 9, 36, 0
16, 18840, Note_on_c, 9, 36, 95
16, 18854, Note_on_c, 9, 36, 0
16, 18960, Note_on_c, 9, 40, 127
16, 18965, Note_on_c, 9, 51, 106
16, 18974, Note_on_c, 9, 40, 0
16, 18979, Note_on_c, 9, 51, 0
16, 19080, Note_on_c, 9, 36, 102
16, 19094, Note_on_c, 9, 36, 0
16, 19207, Note_on_c, 9, 51, 122
16, 19221, Note_on_c, 9, 51, 0
16, 19260, Note_on_c, 9, 36, 66
16, 19274, Note_on_c, 9, 36, 0
16, 19320, Note_on_c, 9, 40, 127
16, 19334, Note_on_c, 9, 40, 0
16, 19380, Note_on_c, 9, 36, 91
16, 19394, Note_on_c, 9, 36, 0
16, 19440, Note_on_c, 9, 36, 98
16, 19440, Note_on_c, 9, 57, 86
16, 19454, Note_on_c, 9, 36, 0
16, 19454, Note_on_c, 9, 57, 0
16, 19560, Note_on_c, 9, 36, 54
16, 19574, Note_on_c, 9, 36, 0
16, 19680, Note_on_c, 9, 40, 127
16, 19689, Note_on_c, 9, 51, 118
16, 19694, Note_on_c, 9, 40, 0
16, 19703, Note_on_c, 9, 51, 0
16, 19800, Note_on_c, 9, 36, 77
16, 19814, Note_on_c, 9, 36, 0
16, 19926, Note_on_c, 9, 51, 113
16, 19940, Note_on_c, 9, 51, 0
16, 19980, Note_on_c, 9, 36, 83
16, 19994, Note_on_c, 9, 36, 0
16, 20040, Note_on_c, 9, 40, 127
16, 20054, Note_on_c, 9, 40, 0
16, 20100, Note_on_c, 9, 36, 73
16, 20114, Note_on_c, 9, 36, 0
16, 20160, Note_on_c, 9, 36, 102
16, 20174, Note_on_c, 9, 36, 0
16, 20280, Note_on_c, 9, 36, 79
16, 20294, Note_on_c, 9, 36, 0
16, 20400, Note_on_c, 9, 40, 127
16, 20404, Note_on_c, 9, 51, 127
16, 20414, Note_on_c, 9, 40, 0
16, 20418, Note_on_c, 9, 51, 0
16, 20580, Note_on_c, 9, 50, 127
16, 20580, Note_on_c, 9, 36, 61
16, 20594, Note_on_c, 9, 50, 0
16, 20594, Note_on_c, 9, 36, 0
16, 20610, Note_on_c, 9, 50, 103
16, 20624, Note_on_c, 9, 50, 0
16, 20640, Note_on_c, 9, 36, 102
16, 20640, Note_on_c, 9, 50, 127
16, 20654, Note_on_c, 9, 36, 0
16, 20654, Note_on_c, 9, 50, 0
16, 20700, Note_on_c, 9, 47, 127
16, 20714, Note_on_c, 9, 47, 0
16, 20760, Note_on_c, 9, 47, 127
16, 20774, Note_on_c, 9, 47, 0
16, 20820, Note_on_c, 9, 47, 127
16, 20834, Note_on_c, 9, 47, 0
16, 20880, Note_on_c, 9, 52, 127
16, 20880, Note_on_c, 9, 36, 102
16, 20894, Note_on_c, 9, 52, 0
16, 20894, Note_on_c, 9, 36, 0
16, 21060, Note_on_c, 9, 36, 63
16, 21074, Note_on_c, 9, 36, 0
16, 21120, Note_on_c, 9, 40, 127
16, 21132, Note_on_c, 9, 51, 100
16, 21134, Note_on_c, 9, 40, 0
16, 21146, Note_on_c, 9, 51, 0
16, 21240, Note_on_c, 9, 36, 79
16, 21254, Note_on_c, 9, 36, 0
16, 21370, Note_on_c, 9, 51, 97
16, 21384, Note_on_c, 9, 51, 0
16, 21420, Note_on_c, 9, 36, 87
16, 21434, Note_on_c, 9, 36, 0
16, 21480, Note_on_c, 9, 40, 116
16, 21494, Note_on_c, 9, 40, 0
16, 21600, Note_on_c, 9, 36, 102
16, 21600, Note_on_c, 9, 40, 67
16, 21614, Note_on_c, 9, 36, 0
16, 21614, Note_on_c, 9, 40, 0
16, 21720, Note_on_c, 9, 36, 33
16, 21734, Note_on_c, 9, 36, 0
16, 21780, Note_on_c, 9, 36, 67
16, 21794, Note_on_c, 9, 36, 0
16, 21840, Note_on_c, 9, 36, 75
16, 21840, Note_on_c, 9, 40, 116
16, 21849, Note_on_c, 9, 51, 100
16, 21854, Note_on_c, 9, 36, 0
16, 21854, Note_on_c, 9, 40, 0
16, 21863, Note_on_c, 9, 51, 0
16, 21960, Note_on_c, 9, 36, 61
16, 21974, Note_on_c, 9, 36, 0
16, 22020, Note_on_c, 9, 36, 29
16, 22034, Note_on_c, 9, 36, 0
16, 22080, Note_on_c, 9, 40, 127
16, 22080, Note_on_c, 9, 36, 95
16, 22091, Note_on_c, 9, 51, 90
16, 22094, Note_on_c, 9, 40, 0
16, 22094, Note_on_c, 9, 36, 0
16, 22105, Note_on_c, 9, 51, 0
16, 22200, Note_on_c, 9, 36, 71
16, 22214, Note_on_c, 9, 36, 0
16, 22260, Note_on_c, 9, 36, 75
16, 22274, Note_on_c, 9, 36, 0
16, 22320, Note_on_c, 9, 40, 108
16, 22320, Note_on_c, 9, 36, 32
16, 22320, Note_on_c, 9, 57, 96
16, 22334, Note_on_c, 9, 40, 0
16, 22334, Note_on_c, 9, 36, 0
16, 22334, Note_on_c, 9, 57, 0
16, 22440, Note_on_c, 9, 36, 63
16, 22454, Note_on_c, 9, 36, 0
16, 22500, Note_on_c, 9, 36, 62
16, 22514, Note_on_c, 9, 36, 0
16, 22560, Note_on_c, 9, 36, 85
16, 22560, Note_on_c, 9, 40, 123
16, 22570, Note_on_c, 9, 51, 94
16, 22574, Note_on_c, 9, 36, 0
16, 22574, Note_on_c, 9, 40, 0
16, 22584, Note_on_c, 9, 51, 0
16, 22680, Note_on_c, 9, 36, 45
16, 22694, Note_on_c, 9, 36, 0
16, 22740, Note_on_c, 9, 36, 63
16, 22754, Note_on_c, 9, 36, 0
16, 22800, Note_on_c, 9, 40, 123
16, 22800, Note_on_c, 9, 36, 61
16, 22809, Note_on_c, 9, 51, 100
16, 22814, Note_on_c, 9, 40, 0
16, 22814, Note_on_c, 9, 36, 0
16, 22823, Note_on_c, 9, 51, 0
16, 22920, Note_on_c, 9, 36, 83
16, 22934, Note_on_c, 9, 36, 0
16, 22980, Note_on_c, 9, 36, 71
16, 22994, Note_on_c, 9, 36, 0
16, 23040, Note_on_c, 9, 49, 112
16, 23040, Note_on_c, 9, 40, 108
16, 23054, Note_on_c, 9, 49, 0
16, 23054, Note_on_c, 9, 40, 0
16, 23160, Note_on_c, 9, 36, 57
16, 23174, Note_on_c, 9, 36, 0
16, 23220, Note_on_c, 9, 36, 71
16, 23234, Note_on_c, 9, 36, 0
16, 23280, Note_on_c, 9, 40, 120
16, 23280, Note_on_c, 9, 36, 79
16, 23288, Note_on_c, 9, 51, 97
16, 23294, Note_on_c, 9, 40, 0
16, 23294, Note_on_c, 9, 36, 0
16, 23302, Note_on_c, 9, 51, 0
16, 23400, Note_on_c, 9, 36, 55
16, 23414, Note_on_c, 9, 36, 0
16, 23460, Note_on_c, 9, 36, 79
16, 23474, Note_on_c, 9, 36, 0
16, 23520, Note_on_c, 9, 36, 71
16, 23520, Note_on_c, 9, 40, 127
16, 23534, Note_on_c, 9, 36, 0
16, 23534, Note_on_c, 9, 40, 0
16, 23535, Note_on_c, 9, 51, 113
16, 23549, Note_on_c, 9, 51, 0
16, 23640, Note_on_c, 9, 36, 61
16, 23654, Note_on_c, 9, 36, 0
16, 23700, Note_on_c, 9, 36, 62
16, 23714, Note_on_c, 9, 36, 0
16, 23760, Note_on_c, 9, 40, 108
16, 23760, Note_on_c, 9, 36, 50
16, 23760, Note_on_c, 9, 57, 80
16, 23774, Note_on_c, 9, 40, 0
16, 23774, Note_on_c, 9, 36, 0
16, 23774, Note_on_c, 9, 57, 0
16, 23880, Note_on_c, 9, 36, 37
16, 23894, Note_on_c, 9, 36, 0
16, 23940, Note_on_c, 9, 36, 45
16, 23954, Note_on_c, 9, 36, 0
16, 24000, Note_on_c, 9, 40, 108
16, 24000, Note_on_c, 9, 36, 38
16, 24005, Note_on_c, 9, 51, 100
16, 24014, Note_on_c, 9, 40, 0
16, 24014, Note_on_c, 9, 36, 0
16, 24019, Note_on_c, 9, 51, 0
16, 24120, Note_on_c, 9, 36, 55
16, 24134, Note_on_c, 9, 36, 0
16, 24180, Note_on_c, 9, 36, 66
16, 24194, Note_on_c, 9, 36, 0
16, 24240, Note_on_c, 9, 36, 75
16, 24240, Note_on_c, 9, 40, 116
16, 24247, Note_on_c, 9, 51, 85
16, 24254, Note_on_c, 9, 36, 0
16, 24254, Note_on_c, 9, 40, 0
16, 24261, Note_on_c, 9, 51, 0
16, 24360, Note_on_c, 9, 36, 75
16, 24374, Note_on_c, 9, 36, 0
16, 24420, Note_on_c, 9, 36, 73
16, 24434, Note_on_c, 9, 36, 0
16, 24480, Note_on_c, 9, 49, 100
16, 24480, Note_on_c, 9, 40, 93
16, 24494, Note_on_c, 9, 49, 0
16, 24494, Note_on_c, 9, 40, 0
16, 24600, Note_on_c, 9, 36, 49
16, 24614, Note_on_c, 9, 36, 0
16, 24660, Note_on_c, 9, 36, 75
16, 24674, Note_on_c, 9, 36, 0
16, 24720, Note_on_c, 9, 40, 102
16, 24728, Note_on_c, 9, 51, 82
16, 24734, Note_on_c, 9, 40, 0
16, 24742, Note_on_c, 9, 51, 0
16, 24840, Note_on_c, 9, 36, 71
16, 24854, Note_on_c, 9, 36, 0
16, 24900, Note_on_c, 9, 36, 63
16, 24914, Note_on_c, 9, 36, 0
16, 24960, Note_on_c, 9, 40, 116
16, 24960, Note_on_c, 9, 36, 62
16, 24965, Note_on_c, 9, 51, 85
16, 24974, Note_on_c, 9, 40, 0
16, 24974, Note_on_c, 9, 36, 0
16, 24979, Note_on_c, 9, 51, 0
16, 25080, Note_on_c, 9, 36, 53
16, 25094, Note_on_c, 9, 36, 0
16, 25140, Note_on_c, 9, 36, 57
16, 25154, Note_on_c, 9, 36, 0
16, 25200, Note_on_c, 9, 40, 112
16, 25200, Note_on_c, 9, 36, 95
16, 25214, Note_on_c, 9, 40, 0
16, 25214, Note_on_c, 9, 36, 0
16, 25320, Note_on_c, 9, 36, 41
16, 25334, Note_on_c, 9, 36, 0
16, 25380, Note_on_c, 9, 36, 55
16, 25394, Note_on_c, 9, 36, 0
16, 25439, Note_on_c, 9, 51, 85
16, 25440, Note_on_c, 9, 36, 75
16, 25440, Note_on_c, 9, 40, 110
16, 25453, Note_on_c, 9, 51, 0
16, 25454, Note_on_c, 9, 36, 0
16, 25454, Note_on_c, 9, 40, 0
16, 25560, Note_on_c, 9, 36, 63
16, 25574, Note_on_c, 9, 36, 0
16, 25620, Note_on_c, 9, 36, 62
16, 25634, Note_on_c, 9, 36, 0
16, 25680, Note_on_c, 9, 40, 91
16, 25681, Note_on_c, 9, 51, 78
16, 25694, Note_on_c, 9, 40, 0
16, 25695, Note_on_c, 9, 51, 0
16, 25710, Note_on_c, 9, 36, 45
16, 25724, Note_on_c, 9, 36, 0
16, 25740, Note_on_c, 9, 36, 66
16, 25754, Note_on_c, 9, 36, 0
16, 25800, Note_on_c, 9, 36, 73
16, 25814, Note_on_c, 9, 36, 0
16, 25860, Note_on_c, 9, 36, 37
16, 25874, Note_on_c, 9, 36, 0
16, 25920, Note_on_c, 9, 49, 127
16, 25920, Note_on_c, 9, 36, 102
16, 25934, Note_on_c, 9, 49, 0
16, 25934, Note_on_c, 9, 36, 0
16, 26100, Note_on_c, 9, 40, 54
16, 26114, Note_on_c, 9, 40, 0
16, 26220, Note_on_c, 9, 40, 127
16, 26234, Note_on_c, 9, 40, 0
16, 26280, Note_on_c, 9, 36, 102
16, 26294, Note_on_c, 9, 36, 0
16, 26460, Note_on_c, 9, 36, 61
16, 26474, Note_on_c, 9, 36, 0
16, 26520, Note_on_c, 9, 40, 108
16, 26534, Note_on_c, 9, 40, 0
16, 26580, Note_on_c, 9, 36, 75
16, 26594, Note_on_c, 9, 36, 0
16, 26640, Note_on_c, 9, 36, 91
16, 26640, Note_on_c, 9, 57, 92
16, 26654, Note_on_c, 9, 36, 0
16, 26654, Note_on_c, 9, 57, 0
16, 26880, Note_on_c, 9, 36, 66
16, 26894, Note_on_c, 9, 36, 0
16, 27060, Note_on_c, 9, 40, 100
16, 27074, Note_on_c, 9, 40, 0
16, 27120, Note_on_c, 9, 40, 127
16, 27134, Note_on_c, 9, 40, 0
16, 27240, Note_on_c, 9, 36, 85
16, 27240, Note_on_c, 9, 49, 91
16, 27254, Note_on_c, 9, 36, 0
16, 27254, Note_on_c, 9, 49, 0
16, 27420, Note_on_c, 9, 36, 53
16, 27434, Note_on_c, 9, 36, 0
16, 27480, Note_on_c, 9, 40, 98
16, 27494, Note_on_c, 9, 40, 0
16, 27540, Note_on_c, 9, 40, 74
16, 27554, Note_on_c, 9, 40, 0
16, 27600, Note_on_c, 9, 36, 102
16, 27614, Note_on_c, 9, 36, 0
16, 27780, Note_on_c, 9, 40, 92
16, 27794, Note_on_c, 9, 40, 0
16, 27840, Note_on_c, 9, 40, 112
16, 27854, Note_on_c, 9, 40, 0
16, 27960, Note_on_c, 9, 36, 102
16, 27974, Note_on_c, 9, 36, 0
16, 28080, Note_on_c, 9, 36, 102
16, 28086, Note_on_c, 9, 51, 82
16, 28094, Note_on_c, 9, 36, 0
16, 28100, Note_on_c, 9, 51, 0
16, 28216, Note_on_c, 9, 51, 29
16, 28230, Note_on_c, 9, 51, 0
16, 28235, Note_on_c, 9, 51, 31
16, 28249, Note_on_c, 9, 51, 0
16, 28254, Note_on_c, 9, 51, 34
16, 28268, Note_on_c, 9, 51, 0
16, 28272, Note_on_c, 9, 51, 35
16, 28286, Note_on_c, 9, 51, 0
16, 28291, Note_on_c, 9, 51, 36
16, 28305, Note_on_c, 9, 51, 0
16, 28309, Note_on_c, 9, 51, 44
16, 28323, Note_on_c, 9, 51, 0
16, 28328, Note_on_c, 9, 51, 36
16, 28342, Note_on_c, 9, 51, 0
16, 28346, Note_on_c, 9, 51, 27
16, 28360, Note_on_c, 9, 51, 0
16, 28366, Note_on_c, 9, 51, 42
16, 28380, Note_on_c, 9, 51, 0
16, 28384, Note_on_c, 9, 51, 64
16, 28398, Note_on_c, 9, 51, 0
16, 28403, Note_on_c, 9, 51, 42
16, 28417, Note_on_c, 9, 51, 0
16, 28421, Note_on_c, 9, 51, 61
16, 28435, Note_on_c, 9, 51, 0
16, 28440, Note_on_c, 9, 51, 50
16, 28454, Note_on_c, 9, 51, 0
16, 28459, Note_on_c, 9, 51, 84
16, 28473, Note_on_c, 9, 51, 0
16, 28477, Note_on_c, 9, 51, 51
16, 28491, Note_on_c, 9, 51, 0
16, 28496, Note_on_c, 9, 51, 100
16, 28510, Note_on_c, 9, 51, 0
16, 28514, Note_on_c, 9, 51, 87
16, 28528, Note_on_c, 9, 51, 0
16, 28533, Note_on_c, 9, 51, 127
16, 28547, Note_on_c, 9, 51, 0
16, 28552, Note_on_c, 9, 51, 97
16, 28566, Note_on_c, 9, 51, 0
16, 28570, Note_on_c, 9, 51, 127
16, 28584, Note_on_c, 9, 51, 0
16, 28588, Note_on_c, 9, 51, 127
16, 28602, Note_on_c, 9, 51, 0
16, 28608, Note_on_c, 9, 51, 127
16, 28622, Note_on_c, 9, 51, 0
16, 28626, Note_on_c, 9, 51, 127
16, 28640, Note_on_c, 9, 51, 0
16, 28644, Note_on_c, 9, 51, 127
16, 28658, Note_on_c, 9, 51, 0
16, 28663, Note_on_c, 9, 51, 127
16, 28677, Note_on_c, 9, 51, 0
16, 28682, Note_on_c, 9, 51, 118
16, 28696, Note_on_c, 9, 51, 0
16, 28700, Note_on_c, 9, 51, 127
16, 28714, Note_on_c, 9, 51, 0
16, 28719, Note_on_c, 9, 51, 127
16, 28733, Note_on_c, 9, 51, 0
16, 28737, Note_on_c, 9, 51, 55
16, 28751, Note_on_c, 9, 51, 0
16, 28757, Note_on_c, 9, 51, 66
16, 28771, Note_on_c, 9, 51, 0
16, 28775, Note_on_c, 9, 51, 50
16, 28789, Note_on_c, 9, 51, 0
16, 28794, Note_on_c, 9, 51, 62
16, 28808, Note_on_c, 9, 51, 0
16, 28812, Note_on_c, 9, 51, 55
16, 28826, Note_on_c, 9, 51, 0
16, 28831, Note_on_c, 9, 51, 122
16, 28845, Note_on_c, 9, 51, 0
16, 28850, Note_on_c, 9, 51, 87
16, 28864, Note_on_c, 9, 51, 0
16, 28868, Note_on_c, 9, 51, 127
16, 28882, Note_on_c, 9, 51, 0
16, 28886, Note_on_c, 9, 51, 106
16, 28900, Note_on_c, 9, 51, 0
16, 28905, Note_on_c, 9, 51, 127
16, 28919, Note_on_c, 9, 51, 0
16, 28924, Note_on_c, 9, 51, 127
16, 28938, Note_on_c, 9, 51, 0
16, 28942, Note_on_c, 9, 51, 127
16, 28956, Note_on_c, 9, 51, 0
16, 28961, Note_on_c, 9, 51, 127
16, 28975, Note_on_c, 9, 51, 0
16, 28980, Note_on_c, 9, 51, 127
16, 28994, Note_on_c, 9, 51, 0
16, 28998, Note_on_c, 9, 51, 127
16, 29012, Note_on_c, 9, 51, 0
16, 29017, Note_on_c, 9, 51, 127
16, 29031, Note_on_c, 9, 51, 0
16, 29036, Note_on_c, 9, 51, 127
16, 29050, Note_on_c, 9, 51, 0
16, 29054, Note_on_c, 9, 51, 127
16, 29068, Note_on_c, 9, 51, 0
16, 29160, Note_on_c, 9, 50, 102
16, 29174, Note_on_c, 9, 50, 0
16, 29200, Note_on_c, 9, 50, 82
16, 29214, Note_on_c, 9, 50, 0
16, 29240, Note_on_c, 9, 50, 96
16, 29254, Note_on_c, 9, 50, 0
16, 29280, Note_on_c, 9, 50, 127
16, 29294, Note_on_c, 9, 50, 0
16, 29320, Note_on_c, 9, 47, 57
16, 29334, Note_on_c, 9, 47, 0
16, 29360, Note_on_c, 9, 47, 72
16, 29374, Note_on_c, 9, 47, 0
16, 29400, Note_on_c, 9, 47, 127
16, 29414, Note_on_c, 9, 47, 0
16, 29440, Note_on_c, 9, 43, 84
16, 29454, Note_on_c, 9, 43, 0
16, 29480, Note_on_c, 9, 43, 127
16, 29494, Note_on_c, 9, 43, 0
16, 29520, Note_on_c, 9, 36, 49
16, 29520, Note_on_c, 9, 49, 104
16, 29534, Note_on_c, 9, 36, 0
16, 29534, Note_on_c, 9, 49, 0
16, 29645, Note_on_c, 9, 51, 56
16, 29659, Note_on_c, 9, 51, 0
16, 29760, Note_on_c, 9, 40, 98
16, 29765, Note_on_c, 9, 51, 70
16, 29774, Note_on_c, 9, 40, 0
16, 29779, Note_on_c, 9, 51, 0
16, 29880, Note_on_c, 9, 36, 45
16, 29880, Note_on_c, 9, 51, 90
16, 29894, Note_on_c, 9, 36, 0
16, 29894, Note_on_c, 9, 51, 0
16, 30002, Note_on_c, 9, 51, 84
16, 30016, Note_on_c, 9, 51, 0
16, 30060, Note_on_c, 9, 36, 50
16, 30074, Note_on_c, 9, 36, 0
16, 30117, Note_on_c, 9, 51, 66
16, 30120, Note_on_c, 9, 40, 98
16, 30131, Note_on_c, 9, 51, 0
16, 30134, Note_on_c, 9, 40, 0
16, 30180, Note_on_c, 9, 36, 21
16, 30194, Note_on_c, 9, 36, 0
16, 30240, Note_on_c, 9, 36, 49
16, 30248, Note_on_c, 9, 51, 90
16, 30254, Note_on_c, 9, 36, 0
16, 30262, Note_on_c, 9, 51, 0
16, 30364, Note_on_c, 9, 51, 73
16, 30378, Note_on_c, 9, 51, 0
16, 30480, Note_on_c, 9, 40, 98
16, 30486, Note_on_c, 9, 51, 72
16, 30494, Note_on_c, 9, 40, 0
16, 30500, Note_on_c, 9, 51, 0
16, 30597, Note_on_c, 9, 51, 92
16, 30600, Note_on_c, 9, 36, 45
16, 30611, Note_on_c, 9, 51, 0
16, 30614, Note_on_c, 9, 36, 0
16, 30724, Note_on_c, 9, 51, 84
16, 30738, Note_on_c, 9, 51, 0
16, 30780, Note_on_c, 9, 36, 50
16, 30794, Note_on_c, 9, 36, 0
16, 30840, Note_on_c, 9, 40, 98
16, 30843, Note_on_c, 9, 51, 87
16, 30854, Note_on_c, 9, 40, 0
16, 30857, Note_on_c, 9, 51, 0
16, 30900, Note_on_c, 9, 36, 21
16, 30914, Note_on_c, 9, 36, 0
16, 30960, Note_on_c, 9, 36, 49
16, 30963, Note_on_c, 9, 51, 85
16, 30974, Note_on_c, 9, 36, 0
16, 30977, Note_on_c, 9, 51, 0
16, 31082, Note_on_c, 9, 51, 74
16, 31096, Note_on_c, 9, 51, 0
16, 31200, Note_on_c, 9, 40, 98
16, 31202, Note_on_c, 9, 51, 82
16, 31214, Note_on_c, 9, 40, 0
16, 31216, Note_on_c, 9, 51, 0
16, 31318, Note_on_c, 9, 51, 82
16, 31320, Note_on_c, 9, 36, 45
16, 31332, Note_on_c, 9, 51, 0
16, 31334, Note_on_c, 9, 36, 0
16, 31437, Note_on_c, 9, 51, 77
16, 31451, Note_on_c, 9, 51, 0
16, 31500, Note_on_c, 9, 36, 50
16, 31514, Note_on_c, 9, 36, 0
16, 31556, Note_on_c, 9, 51, 87
16, 31560, Note_on_c, 9, 40, 98
16, 31570, Note_on_c, 9, 51, 0
16, 31574, Note_on_c, 9, 40, 0
16, 31620, Note_on_c, 9, 36, 21
16, 31634, Note_on_c, 9, 36, 0
16, 31679, Note_on_c, 9, 51, 87
16, 31680, Note_on_c, 9, 36, 49
16, 31693, Note_on_c, 9, 51, 0
16, 31694, Note_on_c, 9, 36, 0
16, 31811, Note_on_c, 9, 51, 80
16, 31825, Note_on_c, 9, 51, 0
16, 31920, Note_on_c, 9, 40, 98
16, 31929, Note_on_c, 9, 51, 82
16, 31934, Note_on_c, 9, 40, 0
16, 31943, Note_on_c, 9, 51, 0
16, 32038, Note_on_c, 9, 51, 72
16, 32040, Note_on_c, 9, 36, 45
16, 32052, Note_on_c, 9, 51, 0
16, 32054, Note_on_c, 9, 36, 0
16, 32161, Note_on_c, 9, 51, 73
16, 32175, Note_on_c, 9, 51, 0
16, 32220, Note_on_c, 9, 36, 50
16, 32234, Note_on_c, 9, 36, 0
16, 32276, Note_on_c, 9, 51, 80
16, 32280, Note_on_c, 9, 40, 98
16, 32290, Note_on_c, 9, 51, 0
16, 32294, Note_on_c, 9, 40, 0
16, 32340, Note_on_c, 9, 36, 21
16, 32354, Note_on_c, 9, 36, 0
16, 32390, Note_on_c, 9, 51, 85
16, 32400, Note_on_c, 9, 36, 49
16, 32404, Note_on_c, 9, 51, 0
16, 32414, Note_on_c, 9, 36, 0
16, 32514, Note_on_c, 9, 51, 67
16, 32528, Note_on_c, 9, 51, 0
16, 32637, Note_on_c, 9, 51, 87
16, 32640, Note_on_c, 9, 40, 98
16, 32651, Note_on_c, 9, 51, 0
16, 32654, Note_on_c, 9, 40, 0
16, 32758, Note_on_c, 9, 51, 77
16, 32760, Note_on_c, 9, 36, 45
16, 32772, Note_on_c, 9, 51, 0
16, 32774, Note_on_c, 9, 36, 0
16, 32889, Note_on_c, 9, 51, 77
16, 32903, Note_on_c, 9, 51, 0
16, 32940, Note_on_c, 9, 36, 50
16, 32954, Note_on_c, 9, 36, 0
16, 33000, Note_on_c, 9, 40, 98
16, 33000, Note_on_c, 9, 51, 87
16, 33014, Note_on_c, 9, 40, 0
16, 33014, Note_on_c, 9, 51, 0
16, 33060, Note_on_c, 9, 36, 21
16, 33074, Note_on_c, 9, 36, 0
16, 33117, Note_on_c, 9, 51, 85
16, 33120, Note_on_c, 9, 36, 49
16, 33131, Note_on_c, 9, 51, 0
16, 33134, Note_on_c, 9, 36, 0
16, 33238, Note_on_c, 9, 51, 85
16, 33252, Note_on_c, 9, 51, 0
16, 33360, Note_on_c, 9, 40, 98
16, 33360, Note_on_c, 9, 51, 76
16, 33374, Note_on_c, 9, 40, 0
16, 33374, Note_on_c, 9, 51, 0
16, 33480, Note_on_c, 9, 36, 45
16, 33484, Note_on_c, 9, 51, 87
16, 33494, Note_on_c, 9, 36, 0
16, 33498, Note_on_c, 9, 51, 0
16, 33608, Note_on_c, 9, 51, 77
16, 33622, Note_on_c, 9, 51, 0
16, 33660, Note_on_c, 9, 36, 50
16, 33674, Note_on_c, 9, 36, 0
16, 33720, Note_on_c, 9, 40, 98
16, 33722, Note_on_c, 9, 51, 73
16, 33734, Note_on_c, 9, 40, 0
16, 33736, Note_on_c, 9, 51, 0
16, 33780, Note_on_c, 9, 36, 21
16, 33794, Note_on_c, 9, 36, 0
16, 33837, Note_on_c, 9, 51, 77
16, 33840, Note_on_c, 9, 36, 49
16, 33851, Note_on_c, 9, 51, 0
16, 33854, Note_on_c, 9, 36, 0
16, 33955, Note_on_c, 9, 51, 78
16, 33969, Note_on_c, 9, 51, 0
16, 34076, Note_on_c, 9, 51, 70
16, 34080, Note_on_c, 9, 40, 98
16, 34090, Note_on_c, 9, 51, 0
16, 34094, Note_on_c, 9, 40, 0
16, 34196, Note_on_c, 9, 51, 73
16, 34200, Note_on_c, 9, 36, 45
16, 34210, Note_on_c, 9, 51, 0
16, 34214, Note_on_c, 9, 36, 0
16, 34318, Note_on_c, 9, 51, 82
16, 34332, Note_on_c, 9, 51, 0
16, 34380, Note_on_c, 9, 36, 50
16, 34394, Note_on_c, 9, 36, 0
16, 34440, Note_on_c, 9, 40, 98
16, 34444, Note_on_c, 9, 51, 67
16, 34454, Note_on_c, 9, 40, 0
16, 34458, Note_on_c, 9, 51, 0
16, 34500, Note_on_c, 9, 36, 21
16, 34514, Note_on_c, 9, 36, 0
16, 34557, Note_on_c, 9, 51, 82
16, 34560, Note_on_c, 9, 36, 55
16, 34571, Note_on_c, 9, 51, 0
16, 34574, Note_on_c, 9, 36, 0
16, 34680, Note_on_c, 9, 51, 76
16, 34694, Note_on_c, 9, 51, 0
16, 34800, Note_on_c, 9, 40, 81
16, 34806, Note_on_c, 9, 51, 77
16, 34814, Note_on_c, 9, 40, 0
16, 34820, Note_on_c, 9, 51, 0
16, 34920, Note_on_c, 9, 36, 45
16, 34928, Note_on_c, 9, 51, 70
16, 34934, Note_on_c, 9, 36, 0
16, 34942, Note_on_c, 9, 51, 0
16, 35040, Note_on_c, 9, 40, 87
16, 35041, Note_on_c, 9, 51, 77
16, 35054, Note_on_c, 9, 40, 0
16, 35055, Note_on_c, 9, 51, 0
16, 35070, Note_on_c, 9, 40, 59
16, 35084, Note_on_c, 9, 40, 0
16, 35100, Note_on_c, 9, 36, 37
16, 35114, Note_on_c, 9, 36, 0
16, 35159, Note_on_c, 9, 51, 76
16, 35160, Note_on_c, 9, 40, 92
16, 35173, Note_on_c, 9, 51, 0
16, 35174, Note_on_c, 9, 40, 0
16, 35190, Note_on_c, 9, 40, 56
16, 35204, Note_on_c, 9, 40, 0
16, 35276, Note_on_c, 9, 51, 73
16, 35280, Note_on_c, 9, 36, 49
16, 35290, Note_on_c, 9, 51, 0
16, 35294, Note_on_c, 9, 36, 0
16, 35402, Note_on_c, 9, 51, 57
16, 35416, Note_on_c, 9, 51, 0
16, 35520, Note_on_c, 9, 40, 98
16, 35525, Note_on_c, 9, 51, 72
16, 35534, Note_on_c, 9, 40, 0
16, 35539, Note_on_c, 9, 51, 0
16, 35640, Note_on_c, 9, 36, 45
16, 35647, Note_on_c, 9, 51, 60
16, 35654, Note_on_c, 9, 36, 0
16, 35661, Note_on_c, 9, 51, 0
16, 35762, Note_on_c, 9, 51, 69
16, 35776, Note_on_c, 9, 51, 0
16, 35820, Note_on_c, 9, 36, 50
16, 35834, Note_on_c, 9, 36, 0
16, 35878, Note_on_c, 9, 51, 63
16, 35880, Note_on_c, 9, 40, 98
16, 35892, Note_on_c, 9, 51, 0
16, 35894, Note_on_c, 9, 40, 0
16, 35940, Note_on_c, 9, 36, 21
16, 35954, Note_on_c, 9, 36, 0
16, 36000, Note_on_c, 9, 36, 53
16, 36000, Note_on_c, 9, 51, 68
16, 36014, Note_on_c, 9, 36, 0
16, 36014, Note_on_c, 9, 51, 0
16, 36130, Note_on_c, 9, 51, 57
16, 36144, Note_on_c, 9, 51, 0
16, 36240, Note_on_c, 9, 40, 79
16, 36248, Note_on_c, 9, 51, 62
16, 36254, Note_on_c, 9, 40, 0
16, 36262, Note_on_c, 9, 51, 0
16, 36360, Note_on_c, 9, 36, 37
16, 36362, Note_on_c, 9, 51, 73
16, 36374, Note_on_c, 9, 36, 0
16, 36376, Note_on_c, 9, 51, 0
16, 36481, Note_on_c, 9, 51, 69
16, 36495, Note_on_c, 9, 51, 0
16, 36540, Note_on_c, 9, 36, 38
16, 36554, Note_on_c, 9, 36, 0
16, 36598, Note_on_c, 9, 51, 74
16, 36600, Note_on_c, 9, 40, 84
16, 36612, Note_on_c, 9, 51, 0
16, 36614, Note_on_c, 9, 40, 0
16, 36660, Note_on_c, 9, 36, 43
16, 36674, Note_on_c, 9, 36, 0
16, 36714, Note_on_c, 9, 51, 82
16, 36720, Note_on_c, 9, 36, 56
16, 36728, Note_on_c, 9, 51, 0
16, 36734, Note_on_c, 9, 36, 0
16, 36840, Note_on_c, 9, 51, 80
16, 36854, Note_on_c, 9, 51, 0
16, 36960, Note_on_c, 9, 40, 70
16, 36963, Note_on_c, 9, 51, 80
16, 36974, Note_on_c, 9, 40, 0
16, 36977, Note_on_c, 9, 51, 0
16, 37080, Note_on_c, 9, 36, 57
16, 37081, Note_on_c, 9, 51, 76
16, 37094, Note_on_c, 9, 36, 0
16, 37095, Note_on_c, 9, 51, 0
16, 37197, Note_on_c, 9, 51, 65
16, 37211, Note_on_c, 9, 51, 0
16, 37260, Note_on_c, 9, 36, 33
16, 37274, Note_on_c, 9, 36, 0
16, 37318, Note_on_c, 9, 51, 69
16, 37320, Note_on_c, 9, 40, 100
16, 37332, Note_on_c, 9, 51, 0
16, 37334, Note_on_c, 9, 40, 0
16, 37380, Note_on_c, 9, 36, 35
16, 37394, Note_on_c, 9, 36, 0
16, 37439, Note_on_c, 9, 51, 78
16, 37440, Note_on_c, 9, 36, 50
16, 37453, Note_on_c, 9, 51, 0
16, 37454, Note_on_c, 9, 36, 0
16, 37554, Note_on_c, 9, 51, 84
16, 37568, Note_on_c, 9, 51, 0
16, 37680, Note_on_c, 9, 40, 93
16, 37683, Note_on_c, 9, 51, 72
16, 37694, Note_on_c, 9, 40, 0
16, 37697, Note_on_c, 9, 51, 0
16, 37800, Note_on_c, 9, 36, 45
16, 37809, Note_on_c, 9, 51, 70
16, 37814, Note_on_c, 9, 36, 0
16, 37823, Note_on_c, 9, 51, 0
16, 37929, Note_on_c, 9, 51, 80
16, 37943, Note_on_c, 9, 51, 0
16, 37980, Note_on_c, 9, 36, 39
16, 37994, Note_on_c, 9, 36, 0
16, 38040, Note_on_c, 9, 40, 79
16, 38046, Note_on_c, 9, 51, 85
16, 38054, Note_on_c, 9, 40, 0
16, 38060, Note_on_c, 9, 51, 0
16, 38100, Note_on_c, 9, 36, 41
16, 38114, Note_on_c, 9, 36, 0
16, 38158, Note_on_c, 9, 51, 87
16, 38160, Note_on_c, 9, 36, 56
16, 38172, Note_on_c, 9, 51, 0
16, 38174, Note_on_c, 9, 36, 0
16, 38287, Note_on_c, 9, 51, 73
16, 38301, Note_on_c, 9, 51, 0
16, 38396, Note_on_c, 9, 51, 80
16, 38400, Note_on_c, 9, 40, 70
16, 38410, Note_on_c, 9, 51, 0
16, 38414, Note_on_c, 9, 40, 0
16, 38516, Note_on_c, 9, 51, 82
16, 38520, Note_on_c, 9, 36, 57
16, 38530, Note_on_c, 9, 51, 0
16, 38534, Note_on_c, 9, 36, 0
16, 38631, Note_on_c, 9, 51, 72
16, 38645, Note_on_c, 9, 51, 0
16, 38700, Note_on_c, 9, 36, 33
16, 38714, Note_on_c, 9, 36, 0
16, 38756, Note_on_c, 9, 51, 69
16, 38760, Note_on_c, 9, 40, 100
16, 38770, Note_on_c, 9, 51, 0
16, 38774, Note_on_c, 9, 40, 0
16, 38820, Note_on_c, 9, 36, 35
16, 38834, Note_on_c, 9, 36, 0
16, 38871, Note_on_c, 9, 51, 70
16, 38880, Note_on_c, 9, 36, 68
16, 38885, Note_on_c, 9, 51, 0
16, 38894, Note_on_c, 9, 36, 0
16, 38992, Note_on_c, 9, 51, 73
16, 39006, Note_on_c, 9, 51, 0
16, 39117, Note_on_c, 9, 51, 69
16, 39120, Note_on_c, 9, 40, 93
16, 39131, Note_on_c, 9, 51, 0
16, 39134, Note_on_c, 9, 40, 0
16, 39238, Note_on_c, 9, 51, 82
16, 39240, Note_on_c, 9, 36, 62
16, 39252, Note_on_c, 9, 51, 0
16, 39254, Note_on_c, 9, 36, 0
16, 39355, Note_on_c, 9, 51, 85
16, 39369, Note_on_c, 9, 51, 0
16, 39420, Note_on_c, 9, 36, 44
16, 39434, Note_on_c, 9, 36, 0
16, 39480, Note_on_c, 9, 40, 74
16, 39484, Note_on_c, 9, 51, 100
16, 39494, Note_on_c, 9, 40, 0
16, 39498, Note_on_c, 9, 51, 0
16, 39600, Note_on_c, 9, 36, 75
16, 39600, Note_on_c, 9, 49, 127
16, 39614, Note_on_c, 9, 36, 0
16, 39614, Note_on_c, 9, 49, 0
16, 39780, Note_on_c, 9, 45, 88
16, 39794, Note_on_c, 9, 45, 0
16, 39840, Note_on_c, 9, 45, 127
16, 39854, Note_on_c, 9, 45, 0
16, 39960, Note_on_c, 9, 36, 85
16, 39960, Note_on_c, 9, 59, 127
16, 39974, Note_on_c, 9, 36, 0
16, 39974, Note_on_c, 9, 59, 0
16, 40140, Note_on_c, 9, 48, 75
16, 40154, Note_on_c, 9, 48, 0
16, 40200, Note_on_c, 9, 48, 127
16, 40214, Note_on_c, 9, 48, 0
16, 40320, Note_on_c, 9, 36, 75
16, 40320, Note_on_c, 9, 57, 127
16, 40334, Note_on_c, 9, 36, 0
16, 40334, Note_on_c, 9, 57, 0
16, 40500, Note_on_c, 9, 41, 75
16, 40514, Note_on_c, 9, 41, 0
16, 40560, Note_on_c, 9, 41, 127
16, 40574, Note_on_c, 9, 41, 0
16, 40680, Note_on_c, 9, 36, 68
16, 40680, Note_on_c, 9, 49, 127
16, 40694, Note_on_c, 9, 36, 0
16, 40694, Note_on_c, 9, 49, 0
16, 40800, Note_on_c, 9, 40, 55
16, 40814, Note_on_c, 9, 40, 0
16, 40860, Note_on_c, 9, 40, 110
16, 40874, Note_on_c, 9, 40, 0
16, 40920, Note_on_c, 9, 40, 127
16, 40934, Note_on_c, 9, 40, 0
16, 41040, Note_on_c, 9, 36, 63
16, 41040, Note_on_c, 9, 51, 82
16, 41054, Note_on_c, 9, 36, 0
16, 41054, Note_on_c, 9, 51, 0
16, 41160, Note_on_c, 9, 40, 97
16, 41164, Note_on_c, 9, 51, 84
16, 41174, Note_on_c, 9, 40, 0
16, 41178, Note_on_c, 9, 51, 0
16, 41280, Note_on_c, 9, 36, 57
16, 41294, Note_on_c, 9, 36, 0
16, 41295, Note_on_c, 9, 51, 90
16, 41309, Note_on_c, 9, 51, 0
16, 41400, Note_on_c, 9, 40, 113
16, 41407, Note_on_c, 9, 51, 69
16, 41414, Note_on_c, 9, 40, 0
16, 41421, Note_on_c, 9, 51, 0
16, 41520, Note_on_c, 9, 36, 81
16, 41529, Note_on_c, 9, 51, 78
16, 41534, Note_on_c, 9, 36, 0
16, 41543, Note_on_c, 9, 51, 0
16, 41640, Note_on_c, 9, 40, 127
16, 41643, Note_on_c, 9, 51, 68
16, 41654, Note_on_c, 9, 40, 0
16, 41657, Note_on_c, 9, 51, 0
16, 41760, Note_on_c, 9, 36, 68
16, 41765, Note_on_c, 9, 51, 84
16, 41774, Note_on_c, 9, 36, 0
16, 41779, Note_on_c, 9, 51, 0
16, 41879, Note_on_c, 9, 51, 62
16, 41880, Note_on_c, 9, 40, 127
16, 41893, Note_on_c, 9, 51, 0
16, 41894, Note_on_c, 9, 40, 0
16, 42000, Note_on_c, 9, 36, 65
16, 42003, Note_on_c, 9, 51, 82
16, 42014, Note_on_c, 9, 36, 0
16, 42017, Note_on_c, 9, 51, 0
16, 42120, Note_on_c, 9, 40, 127
16, 42127, Note_on_c, 9, 51, 90
16, 42134, Note_on_c, 9, 40, 0
16, 42141, Note_on_c, 9, 51, 0
16, 42240, Note_on_c, 9, 36, 80
16, 42253, Note_on_c, 9, 51, 72
16, 42254, Note_on_c, 9, 36, 0
16, 42267, Note_on_c, 9, 51, 0
16, 42300, Note_on_c, 9, 36, 59
16, 42314, Note_on_c, 9, 36, 0
16, 42360, Note_on_c, 9, 40, 127
16, 42366, Note_on_c, 9, 51, 90
16, 42374, Note_on_c, 9, 40, 0
16, 42380, Note_on_c, 9, 51, 0
16, 42420, Note_on_c, 9, 36, 34
16, 42434, Note_on_c, 9, 36, 0
16, 42480, Note_on_c, 9, 36, 82
16, 42481, Note_on_c, 9, 51, 97
16, 42494, Note_on_c, 9, 36, 0
16, 42495, Note_on_c, 9, 51, 0
16, 42600, Note_on_c, 9, 46, 127
16, 42614, Note_on_c, 9, 46, 0
16, 42660, Note_on_c, 9, 46, 62
16, 42674, Note_on_c, 9, 46, 0
16, 42690, Note_on_c, 9, 46, 62
16, 42704, Note_on_c, 9, 46, 0
16, 42720, Note_on_c, 9, 46, 127
16, 42734, Note_on_c, 9, 46, 0
16, 42780, Note_on_c, 9, 46, 57
16, 42794, Note_on_c, 9, 46, 0
16, 42810, Note_on_c, 9, 46, 52
16, 42824, Note_on_c, 9, 46, 0
16, 42840, Note_on_c, 9, 46, 127
16, 42854, Note_on_c, 9, 46, 0
16, 42963, Note_on_c, 9, 36, 82
16, 42966, Note_on_c, 9, 51, 90
16, 42977, Note_on_c, 9, 36, 0
16, 42980, Note_on_c, 9, 51, 0
16, 43083, Note_on_c, 9, 51, 82
16, 43083, Note_on_c, 9, 40, 97
16, 43097, Note_on_c, 9, 51, 0
16, 43097, Note_on_c, 9, 40, 0
16, 43200, Note_on_c, 9, 36, 57
16, 43210, Note_on_c, 9, 51, 74
16, 43214, Note_on_c, 9, 36, 0
16, 43224, Note_on_c, 9, 51, 0
16, 43260, Note_on_c, 9, 36, 63
16, 43274, Note_on_c, 9, 36, 0
16, 43320, Note_on_c, 9, 40, 127
16, 43325, Note_on_c, 9, 51, 87
16, 43334, Note_on_c, 9, 40, 0
16, 43339, Note_on_c, 9, 51, 0
16, 43380, Note_on_c, 9, 36, 32
16, 43394, Note_on_c, 9, 36, 0
16, 43440, Note_on_c, 9, 36, 87
16, 43444, Note_on_c, 9, 51, 87
16, 43454, Note_on_c, 9, 36, 0
16, 43458, Note_on_c, 9, 51, 0
16, 43560, Note_on_c, 9, 40, 100
16, 43564, Note_on_c, 9, 51, 68
16, 43574, Note_on_c, 9, 40, 0
16, 43578, Note_on_c, 9, 51, 0
16, 43680, Note_on_c, 9, 36, 85
16, 43682, Note_on_c, 9, 51, 60
16, 43694, Note_on_c, 9, 36, 0
16, 43696, Note_on_c, 9, 51, 0
16, 43800, Note_on_c, 9, 40, 100
16, 43806, Note_on_c, 9, 51, 84
16, 43814, Note_on_c, 9, 40, 0
16, 43820, Note_on_c, 9, 51, 0
16, 43860, Note_on_c, 9, 36, 40
16, 43874, Note_on_c, 9, 36, 0
16, 43920, Note_on_c, 9, 36, 80
16, 43928, Note_on_c, 9, 51, 78
16, 43934, Note_on_c, 9, 36, 0
16, 43942, Note_on_c, 9, 51, 0
16, 44040, Note_on_c, 9, 40, 127
16, 44042, Note_on_c, 9, 51, 72
16, 44054, Note_on_c, 9, 40, 0
16, 44056, Note_on_c, 9, 51, 0
16, 44160, Note_on_c, 9, 36, 72
16, 44165, Note_on_c, 9, 51, 80
16, 44174, Note_on_c, 9, 36, 0
16, 44179, Note_on_c, 9, 51, 0
16, 44220, Note_on_c, 9, 36, 44
16, 44234, Note_on_c, 9, 36, 0
16, 44280, Note_on_c, 9, 40, 100
16, 44283, Note_on_c, 9, 51, 67
16, 44294, Note_on_c, 9, 40, 0
16, 44297, Note_on_c, 9, 51, 0
16, 44400, Note_on_c, 9, 36, 97
16, 44405, Note_on_c, 9, 51, 76
16, 44414, Note_on_c, 9, 36, 0
16, 44419, Note_on_c, 9, 51, 0
16, 44517, Note_on_c, 9, 51, 69
16, 44520, Note_on_c, 9, 40, 113
16, 44531, Note_on_c, 9, 51, 0
16, 44534, Note_on_c, 9, 40, 0
16, 44640, Note_on_c, 9, 36, 92
16, 44648, Note_on_c, 9, 51, 77
16, 44654, Note_on_c, 9, 36, 0
16, 44662, Note_on_c, 9, 51, 0
16, 44700, Note_on_c, 9, 36, 58
16, 44714, Note_on_c, 9, 36, 0
16, 44760, Note_on_c, 9, 40, 113
16, 44770, Note_on_c, 9, 51, 85
16, 44774, Note_on_c, 9, 40, 0
16, 44784, Note_on_c, 9, 51, 0
16, 44877, Note_on_c, 9, 51, 87
16, 44880, Note_on_c, 9, 36, 87
16, 44891, Note_on_c, 9, 51, 0
16, 44894, Note_on_c, 9, 36, 0
16, 44996, Note_on_c, 9, 51, 85
16, 45000, Note_on_c, 9, 40, 106
16, 45010, Note_on_c, 9, 51, 0
16, 45014, Note_on_c, 9, 40, 0
16, 45120, Note_on_c, 9, 36, 84
16, 45123, Note_on_c, 9, 51, 77
16, 45134, Note_on_c, 9, 36, 0
16, 45137, Note_on_c, 9, 51, 0
16, 45240, Note_on_c, 9, 40, 110
16, 45245, Note_on_c, 9, 51, 84
16, 45254, Note_on_c, 9, 40, 0
16, 45259, Note_on_c, 9, 51, 0
16, 45357, Note_on_c, 9, 51, 92
16, 45360, Note_on_c, 9, 49, 110
16, 45360, Note_on_c, 9, 36, 90
16, 45371, Note_on_c, 9, 51, 0
16, 45374, Note_on_c, 9, 49, 0
16, 45374, Note_on_c, 9, 36, 0
16, 45480, Note_on_c, 9, 48, 113
16, 45494, Note_on_c, 9, 48, 0
16, 45540, Note_on_c, 9, 48, 92
16, 45554, Note_on_c, 9, 48, 0
16, 45570, Note_on_c, 9, 48, 66
16, 45584, Note_on_c, 9, 48, 0
16, 45600, Note_on_c, 9, 48, 127
16, 45614, Note_on_c, 9, 48, 0
16, 45660, Note_on_c, 9, 48, 100
16, 45674, Note_on_c, 9, 48, 0
16, 45720, Note_on_c, 9, 47, 64
16, 45734, Note_on_c, 9, 47, 0
16, 45840, Note_on_c, 9, 45, 45
16, 45854, Note_on_c, 9, 45, 0
16, 45870, Note_on_c, 9, 45, 44
16, 45884, Note_on_c, 9, 45, 0
16, 45900, Note_on_c, 9, 45, 61
16, 45914, Note_on_c, 9, 45, 0
16, 45930, Note_on_c, 9, 45, 87
16, 45944, Note_on_c, 9, 45, 0
16, 45960, Note_on_c, 9, 45, 127
16, 45974, Note_on_c, 9, 45, 0
16, 46020, Note_on_c, 9, 45, 127
16, 46034, Note_on_c, 9, 45, 0
16, 46050, Note_on_c, 9, 45, 72
16, 46064, Note_on_c, 9, 45, 0
16, 46080, Note_on_c, 9, 45, 127
16, 46094, Note_on_c, 9, 45, 0
16, 46140, Note_on_c, 9, 43, 90
16, 46154, Note_on_c, 9, 43, 0
16, 46170, Note_on_c, 9, 43, 87
16, 46184, Note_on_c, 9, 43, 0
16, 46200, Note_on_c, 9, 43, 127
16, 46214, Note_on_c, 9, 43, 0
16, 46260, Note_on_c, 9, 45, 90
16, 46274, Note_on_c, 9, 45, 0
16, 46290, Note_on_c, 9, 45, 85
16, 46304, Note_on_c, 9, 45, 0
16, 46320, Note_on_c, 9, 36, 85
16, 46320, Note_on_c, 9, 57, 85
16, 46334, Note_on_c, 9, 36, 0
16, 46334, Note_on_c, 9, 57, 0
16, 46434, Note_on_c, 9, 51, 87
16, 46440, Note_on_c, 9, 40, 127
16, 46448, Note_on_c, 9, 51, 0
16, 46454, Note_on_c, 9, 40, 0
16, 46560, Note_on_c, 9, 36, 85
16, 46562, Note_on_c, 9, 51, 66
16, 46574, Note_on_c, 9, 36, 0
16, 46576, Note_on_c, 9, 51, 0
16, 46677, Note_on_c, 9, 51, 82
16, 46680, Note_on_c, 9, 40, 127
16, 46691, Note_on_c, 9, 51, 0
16, 46694, Note_on_c, 9, 40, 0
16, 46800, Note_on_c, 9, 36, 68
16, 46803, Note_on_c, 9, 51, 78
16, 46814, Note_on_c, 9, 36, 0
16, 46817, Note_on_c, 9, 51, 0
16, 46860, Note_on_c, 9, 36, 40
16, 46874, Note_on_c, 9, 36, 0
16, 46920, Note_on_c, 9, 40, 127
16, 46924, Note_on_c, 9, 51, 85
16, 46934, Note_on_c, 9, 40, 0
16, 46938, Note_on_c, 9, 51, 0
16, 47040, Note_on_c, 9, 36, 97
16, 47043, Note_on_c, 9, 51, 85
16, 47054, Note_on_c, 9, 36, 0
16, 47057, Note_on_c, 9, 51, 0
16, 47130, Note_on_c, 9, 36, 59
16, 47144, Note_on_c, 9, 36, 0
16, 47160, Note_on_c, 9, 40, 127
16, 47172, Note_on_c, 9, 51, 84
16, 47174, Note_on_c, 9, 40, 0
16, 47186, Note_on_c, 9, 51, 0
16, 47280, Note_on_c, 9, 44, 87
16, 47280, Note_on_c, 9, 40, 127
16, 47294, Note_on_c, 9, 44, 0
16, 47294, Note_on_c, 9, 40, 0
16, 47370, Note_on_c, 9, 36, 100
16, 47384, Note_on_c, 9, 36, 0
16, 47400, Note_on_c, 9, 40, 127
16, 47408, Note_on_c, 9, 44, 85
16, 47414, Note_on_c, 9, 40, 0
16, 47422, Note_on_c, 9, 44, 0
16, 47430, Note_on_c, 9, 40, 127
16, 47444, Note_on_c, 9, 40, 0
16, 47490, Note_on_c, 9, 36, 74
16, 47504, Note_on_c, 9, 36, 0
16, 47520, Note_on_c, 9, 40, 127
16, 47526, Note_on_c, 9, 44, 92
16, 47534, Note_on_c, 9, 40, 0
16, 47540, Note_on_c, 9, 44, 0
16, 47550, Note_on_c, 9, 40, 103
16, 47564, Note_on_c, 9, 40, 0
16, 47610, Note_on_c, 9, 36, 41
16, 47624, Note_on_c, 9, 36, 0
16, 47640, Note_on_c, 9, 40, 127
16, 47652, Note_on_c, 9, 44, 84
16, 47654, Note_on_c, 9, 40, 0
16, 47666, Note_on_c, 9, 44, 0
16, 47670, Note_on_c, 9, 40, 100
16, 47684, Note_on_c, 9, 40, 0
16, 47730, Note_on_c, 9, 36, 67
16, 47744, Note_on_c, 9, 36, 0
16, 47760, Note_on_c, 9, 44, 82
16, 47760, Note_on_c, 9, 40, 127
16, 47774, Note_on_c, 9, 44, 0
16, 47774, Note_on_c, 9, 40, 0
16, 47790, Note_on_c, 9, 40, 97
16, 47804, Note_on_c, 9, 40, 0
16, 47850, Note_on_c, 9, 36, 48
16, 47864, Note_on_c, 9, 36, 0
16, 47880, Note_on_c, 9, 40, 127
16, 47885, Note_on_c, 9, 44, 87
16, 47894, Note_on_c, 9, 40, 0
16, 47899, Note_on_c, 9, 44, 0
16, 47910, Note_on_c, 9, 40, 118
16, 47924, Note_on_c, 9, 40, 0
16, 47940, Note_on_c, 9, 36, 67
16, 47954, Note_on_c, 9, 36, 0
16, 48000, Note_on_c, 9, 36, 50
16, 48000, Note_on_c, 9, 49, 64
16, 48000, Note_on_c, 9, 50, 120
16, 48014, Note_on_c, 9, 36, 0
16, 48014, Note_on_c, 9, 49, 0
16, 48014, Note_on_c, 9, 50, 0
16, 48060, Note_on_c, 9, 36, 100
16, 48060, Note_on_c, 9, 48, 120
16, 48074, Note_on_c, 9, 36, 0
16, 48074, Note_on_c, 9, 48, 0
16, 48120, Note_on_c, 9, 40, 127
16, 48120, Note_on_c, 9, 47, 120
16, 48120, Note_on_c, 9, 36, 100
16, 48134, Note_on_c, 9, 40, 0
16, 48134, Note_on_c, 9, 47, 0
16, 48134, Note_on_c, 9, 36, 0
16, 48180, Note_on_c, 9, 36, 100
16, 48180, Note_on_c, 9, 45, 120
16, 48194, Note_on_c, 9, 36, 0
16, 48194, Note_on_c, 9, 45, 0
16, 48240, Note_on_c, 9, 36, 119
16, 48240, Note_on_c, 9, 49, 127
16, 48254, Note_on_c, 9, 36, 0
16, 48254, Note_on_c, 9, 49, 0
16, 48360, Note_on_c, 9, 40, 127
16, 48366, Note_on_c, 9, 51, 76
16, 48374, Note_on_c, 9, 40, 0
16, 48380, Note_on_c, 9, 51, 0
16, 48420, Note_on_c, 9, 36, 103
16, 48434, Note_on_c, 9, 36, 0
16, 48480, Note_on_c, 9, 40, 127
16, 48488, Note_on_c, 9, 51, 78
16, 48494, Note_on_c, 9, 40, 0
16, 48502, Note_on_c, 9, 51, 0
16, 48540, Note_on_c, 9, 36, 55
16, 48554, Note_on_c, 9, 36, 0
16, 48600, Note_on_c, 9, 36, 41
16, 48601, Note_on_c, 9, 51, 97
16, 48614, Note_on_c, 9, 36, 0
16, 48615, Note_on_c, 9, 51, 0
16, 48660, Note_on_c, 9, 40, 127
16, 48674, Note_on_c, 9, 40, 0
16, 48780, Note_on_c, 9, 49, 127
16, 48780, Note_on_c, 9, 40, 127
16, 48794, Note_on_c, 9, 49, 0
16, 48794, Note_on_c, 9, 40, 0
16, 48900, Note_on_c, 9, 36, 87
16, 48914, Note_on_c, 9, 36, 0
16, 49020, Note_on_c, 9, 36, 67
16, 49034, Note_on_c, 9, 36, 0
16, 49080, Note_on_c, 9, 40, 127
16, 49094, Note_on_c, 9, 40, 0
16, 49140, Note_on_c, 9, 36, 76
16, 49154, Note_on_c, 9, 36, 0
16, 49199, Note_on_c, 9, 51, 65
16, 49200, Note_on_c, 9, 36, 106
16, 49213, Note_on_c, 9, 51, 0
16, 49214, Note_on_c, 9, 36, 0
16, 49320, Note_on_c, 9, 40, 127
16, 49322, Note_on_c, 9, 51, 62
16, 49334, Note_on_c, 9, 40, 0
16, 49336, Note_on_c, 9, 51, 0
16, 49440, Note_on_c, 9, 36, 84
16, 49445, Note_on_c, 9, 51, 73
16, 49454, Note_on_c, 9, 36, 0
16, 49459, Note_on_c, 9, 51, 0
16, 49500, Note_on_c, 9, 36, 45
16, 49514, Note_on_c, 9, 36, 0
16, 49560, Note_on_c, 9, 40, 127
16, 49567, Note_on_c, 9, 51, 65
16, 49574, Note_on_c, 9, 40, 0
16, 49581, Note_on_c, 9, 51, 0
16, 49620, Note_on_c, 9, 36, 85
16, 49634, Note_on_c, 9, 36, 0
16, 49683, Note_on_c, 9, 51, 70
16, 49697, Note_on_c, 9, 51, 0
16, 49740, Note_on_c, 9, 36, 113
16, 49754, Note_on_c, 9, 36, 0
16, 49800, Note_on_c, 9, 49, 97
16, 49800, Note_on_c, 9, 40, 122
16, 49800, Note_on_c, 9, 36, 39
16, 49814, Note_on_c, 9, 49, 0
16, 49814, Note_on_c, 9, 40, 0
16, 49814, Note_on_c, 9, 36, 0
16, 49860, Note_on_c, 9, 36, 39
16, 49874, Note_on_c, 9, 36, 0
16, 49920, Note_on_c, 9, 36, 90
16, 49934, Note_on_c, 9, 36, 0
16, 49980, Note_on_c, 9, 49, 113
16, 49980, Note_on_c, 9, 40, 127
16, 49980, Note_on_c, 9, 36, 90
16, 49994, Note_on_c, 9, 49, 0
16, 49994, Note_on_c, 9, 40, 0
16, 49994, Note_on_c, 9, 36, 0
16, 50100, Note_on_c, 9, 36, 52
16, 50114, Note_on_c, 9, 36, 0
16, 50160, Note_on_c, 9, 40, 110
16, 50160, Note_on_c, 9, 49, 113
16, 50160, Note_on_c, 9, 36, 52
16, 50174, Note_on_c, 9, 40, 0
16, 50174, Note_on_c, 9, 49, 0
16, 50174, Note_on_c, 9, 36, 0
16, 50220, Note_on_c, 9, 36, 48
16, 50234, Note_on_c, 9, 36, 0
16, 50280, Note_on_c, 9, 36, 114
16, 50294, Note_on_c, 9, 36, 0
16, 50340, Note_on_c, 9, 36, 114
16, 50340, Note_on_c, 9, 40, 127
16, 50340, Note_on_c, 9, 49, 103
16, 50354, Note_on_c, 9, 36, 0
16, 50354, Note_on_c, 9, 40, 0
16, 50354, Note_on_c, 9, 49, 0
16, 50460, Note_on_c, 9, 36, 35
16, 50474, Note_on_c, 9, 36, 0
16, 50520, Note_on_c, 9, 36, 84
16, 50534, Note_on_c, 9, 36, 0
16, 50580, Note_on_c, 9, 36, 84
16, 50580, Note_on_c, 9, 49, 100
16, 50580, Note_on_c, 9, 40, 113
16, 50594, Note_on_c, 9, 36, 0
16, 50594, Note_on_c, 9, 49, 0
16, 50594, Note_on_c, 9, 40, 0
16, 50640, Note_on_c, 9, 48, 56
16, 50640, Note_on_c, 9, 42, 74
16, 50654, Note_on_c, 9, 48, 0
16, 50654, Note_on_c, 9, 42, 0
16, 50730, Note_on_c, 9, 48, 94
16, 50744, Note_on_c, 9, 48, 0
16, 50760, Note_on_c, 9, 48, 127
16, 50760, Note_on_c, 9, 42, 76
16, 50774, Note_on_c, 9, 48, 0
16, 50774, Note_on_c, 9, 42, 0
16, 50820, Note_on_c, 9, 45, 127
16, 50834, Note_on_c, 9, 45, 0
16, 50880, Note_on_c, 9, 42, 85
16, 50894, Note_on_c, 9, 42, 0
16, 50910, Note_on_c, 9, 45, 92
16, 50924, Note_on_c, 9, 45, 0
16, 50940, Note_on_c, 9, 45, 66
16, 50954, Note_on_c, 9, 45, 0
16, 51000, Note_on_c, 9, 45, 127
16, 51000, Note_on_c, 9, 42, 90
16, 51014, Note_on_c, 9, 45, 0
16, 51014, Note_on_c, 9, 42, 0
16, 51060, Note_on_c, 9, 47, 94
16, 51074, Note_on_c, 9, 47, 0
16, 51118, Note_on_c, 9, 49, 113
16, 51122, Note_on_c, 9, 36, 66
16, 51132, Note_on_c, 9, 49, 0
16, 51135, Note_on_c, 9, 51, 74
16, 51136, Note_on_c, 9, 36, 0
16, 51149, Note_on_c, 9, 51, 0
16, 51239, Note_on_c, 9, 40, 122
16, 51240, Note_on_c, 9, 36, 49
16, 51247, Note_on_c, 9, 51, 76
16, 51253, Note_on_c, 9, 40, 0
16, 51254, Note_on_c, 9, 36, 0
16, 51261, Note_on_c, 9, 51, 0
16, 51361, Note_on_c, 9, 36, 67
16, 51367, Note_on_c, 9, 51, 85
16, 51375, Note_on_c, 9, 36, 0
16, 51381, Note_on_c, 9, 51, 0
16, 51414, Note_on_c, 9, 36, 80
16, 51428, Note_on_c, 9, 36, 0
16, 51476, Note_on_c, 9, 40, 106
16, 51479, Note_on_c, 9, 40, 0
16, 51480, Note_on_c, 9, 40, 98
16, 51486, Note_on_c, 9, 51, 90
16, 51494, Note_on_c, 9, 40, 0
16, 51500, Note_on_c, 9, 51, 0
16, 51540, Note_on_c, 9, 50, 43
16, 51554, Note_on_c, 9, 50, 0
16, 51570, Note_on_c, 9, 50, 50
16, 51584, Note_on_c, 9, 50, 0
16, 51600, Note_on_c, 9, 36, 90
16, 51600, Note_on_c, 9, 50, 110
16, 51614, Note_on_c, 9, 36, 0
16, 51614, Note_on_c, 9, 50, 0
16, 51660, Note_on_c, 9, 50, 103
16, 51674, Note_on_c, 9, 50, 0
16, 51690, Note_on_c, 9, 50, 103
16, 51704, Note_on_c, 9, 50, 0
16, 51720, Note_on_c, 9, 47, 78
16, 51734, Note_on_c, 9, 47, 0
16, 51750, Note_on_c, 9, 47, 103
16, 51764, Note_on_c, 9, 47, 0
16, 51780, Note_on_c, 9, 47, 122
16, 51780, Note_on_c, 9, 36, 50
16, 51794, Note_on_c, 9, 47, 0
16, 51794, Note_on_c, 9, 36, 0
16, 51840, Note_on_c, 9, 40, 98
16, 51840, Note_on_c, 9, 47, 127
16, 51854, Note_on_c, 9, 40, 0
16, 51854, Note_on_c, 9, 47, 0
16, 51870, Note_on_c, 9, 47, 118
16, 51884, Note_on_c, 9, 47, 0
16, 51900, Note_on_c, 9, 36, 21
16, 51900, Note_on_c, 9, 47, 127
16, 51914, Note_on_c, 9, 36, 0
16, 51914, Note_on_c, 9, 47, 0
16, 51960, Note_on_c, 9, 45, 127
16, 51974, Note_on_c, 9, 45, 0
16, 51990, Note_on_c, 9, 45, 127
16, 52004, Note_on_c, 9, 45, 0
16, 52020, Note_on_c, 9, 45, 127
16, 52034, Note_on_c, 9, 45, 0
16, 52077, Note_on_c, 9, 36, 119
16, 52080, Note_on_c, 9, 49, 127
16, 52091, Note_on_c, 9, 36, 0
16, 52094, Note_on_c, 9, 49, 0
16, 52196, Note_on_c, 9, 51, 72
16, 52199, Note_on_c, 9, 40, 127
16, 52210, Note_on_c, 9, 51, 0
16, 52213, Note_on_c, 9, 40, 0
16, 52315, Note_on_c, 9, 36, 53
16, 52315, Note_on_c, 9, 51, 58
16, 52329, Note_on_c, 9, 36, 0
16, 52329, Note_on_c, 9, 51, 0
16, 52374, Note_on_c, 9, 36, 77
16, 52388, Note_on_c, 9, 36, 0
16, 52435, Note_on_c, 9, 40, 127
16, 52436, Note_on_c, 9, 51, 82
16, 52449, Note_on_c, 9, 40, 0
16, 52450, Note_on_c, 9, 51, 0
16, 52493, Note_on_c, 9, 36, 46
16, 52507, Note_on_c, 9, 36, 0
16, 52553, Note_on_c, 9, 51, 64
16, 52567, Note_on_c, 9, 51, 0
16, 52620, Note_on_c, 9, 36, 54
16, 52634, Note_on_c, 9, 36, 0
16, 52680, Note_on_c, 9, 40, 127
16, 52681, Note_on_c, 9, 51, 69
16, 52694, Note_on_c, 9, 40, 0
16, 52695, Note_on_c, 9, 51, 0
16, 52740, Note_on_c, 9, 36, 44
16, 52754, Note_on_c, 9, 36, 0
16, 52797, Note_on_c, 9, 51, 67
16, 52811, Note_on_c, 9, 51, 0
16, 52860, Note_on_c, 9, 36, 44
16, 52874, Note_on_c, 9, 36, 0
16, 52913, Note_on_c, 9, 51, 69
16, 52920, Note_on_c, 9, 40, 127
16, 52927, Note_on_c, 9, 51, 0
16, 52934, Note_on_c, 9, 40, 0
16, 52980, Note_on_c, 9, 36, 53
16, 52994, Note_on_c, 9, 36, 0
16, 53040, Note_on_c, 9, 51, 84
16, 53040, Note_on_c, 9, 36, 87
16, 53054, Note_on_c, 9, 51, 0
16, 53054, Note_on_c, 9, 36, 0
16, 53100, Note_on_c, 9, 36, 44
16, 53114, Note_on_c, 9, 36, 0
16, 53160, Note_on_c, 9, 40, 127
16, 53160, Note_on_c, 9, 49, 127
16, 53174, Note_on_c, 9, 40, 0
16, 53174, Note_on_c, 9, 49, 0
16, 53280, Note_on_c, 9, 36, 113
16, 53289, Note_on_c, 9, 51, 82
16, 53294, Note_on_c, 9, 36, 0
16, 53303, Note_on_c, 9, 51, 0
16, 53340, Note_on_c, 9, 36, 61
16, 53354, Note_on_c, 9, 36, 0
16, 53400, Note_on_c, 9, 38, 87
16, 53400, Note_on_c, 9, 40, 97
16, 53414, Note_on_c, 9, 38, 0
16, 53414, Note_on_c, 9, 40, 0
16, 53520, Note_on_c, 9, 49, 127
16, 53520, Note_on_c, 9, 36, 87
16, 53534, Note_on_c, 9, 49, 0
16, 53534, Note_on_c, 9, 36, 0
16, 53580, Note_on_c, 9, 48, 50
16, 53594, Note_on_c, 9, 48, 0
16, 53610, Note_on_c, 9, 48, 69
16, 53624, Note_on_c, 9, 48, 0
16, 53640, Note_on_c, 9, 48, 49
16, 53654, Note_on_c, 9, 48, 0
16, 53670, Note_on_c, 9, 48, 82
16, 53684, Note_on_c, 9, 48, 0
16, 53700, Note_on_c, 9, 48, 100
16, 53714, Note_on_c, 9, 48, 0
16, 53760, Note_on_c, 9, 48, 122
16, 53774, Note_on_c, 9, 48, 0
16, 53790, Note_on_c, 9, 48, 127
16, 53804, Note_on_c, 9, 48, 0
16, 53820, Note_on_c, 9, 48, 127
16, 53834, Note_on_c, 9, 48, 0
16, 53880, Note_on_c, 9, 45, 127
16, 53894, Note_on_c, 9, 45, 0
16, 53910, Note_on_c, 9, 45, 127
16, 53924, Note_on_c, 9, 45, 0
16, 53940, Note_on_c, 9, 43, 127
16, 53954, Note_on_c, 9, 43, 0
16, 54000, Note_on_c, 9, 49, 127
16, 54000, Note_on_c, 9, 36, 72
16, 54014, Note_on_c, 9, 49, 0
16, 54014, Note_on_c, 9, 36, 0
16, 54120, Note_on_c, 9, 51, 74
16, 54120, Note_on_c, 9, 40, 127
16, 54134, Note_on_c, 9, 51, 0
16, 54134, Note_on_c, 9, 40, 0
16, 54240, Note_on_c, 9, 36, 49
16, 54245, Note_on_c, 9, 51, 74
16, 54254, Note_on_c, 9, 36, 0
16, 54259, Note_on_c, 9, 51, 0
16, 54300, Note_on_c, 9, 36, 40
16, 54314, Note_on_c, 9, 36, 0
16, 54360, Note_on_c, 9, 40, 127
16, 54366, Note_on_c, 9, 51, 76
16, 54374, Note_on_c, 9, 40, 0
16, 54380, Note_on_c, 9, 51, 0
16, 54420, Note_on_c, 9, 36, 49
16, 54434, Note_on_c, 9, 36, 0
16, 54480, Note_on_c, 9, 51, 85
16, 54480, Note_on_c, 9, 36, 94
16, 54494, Note_on_c, 9, 51, 0
16, 54494, Note_on_c, 9, 36, 0
16, 54600, Note_on_c, 9, 40, 127
16, 54607, Note_on_c, 9, 51, 80
16, 54614, Note_on_c, 9, 40, 0
16, 54621, Note_on_c, 9, 51, 0
16, 54720, Note_on_c, 9, 36, 67
16, 54726, Note_on_c, 9, 51, 85
16, 54734, Note_on_c, 9, 36, 0
16, 54740, Note_on_c, 9, 51, 0
16, 54780, Note_on_c, 9, 36, 48
16, 54794, Note_on_c, 9, 36, 0
16, 54840, Note_on_c, 9, 40, 127
16, 54849, Note_on_c, 9, 51, 90
16, 54854, Note_on_c, 9, 40, 0
16, 54863, Note_on_c, 9, 51, 0
16, 54963, Note_on_c, 9, 42, 127
16, 54963, Note_on_c, 9, 36, 89
16, 54970, Note_on_c, 9, 51, 85
16, 54977, Note_on_c, 9, 42, 0
16, 54977, Note_on_c, 9, 36, 0
16, 54984, Note_on_c, 9, 51, 0
16, 55008, Note_on_c, 9, 42, 122
16, 55022, Note_on_c, 9, 42, 0
16, 55031, Note_on_c, 9, 46, 92
16, 55045, Note_on_c, 9, 46, 0
16, 55101, Note_on_c, 9, 36, 89
16, 55101, Note_on_c, 9, 42, 127
16, 55115, Note_on_c, 9, 36, 0
16, 55115, Note_on_c, 9, 42, 0
16, 55148, Note_on_c, 9, 42, 127
16, 55162, Note_on_c, 9, 42, 0
16, 55171, Note_on_c, 9, 46, 106
16, 55185, Note_on_c, 9, 46, 0
16, 55241, Note_on_c, 9, 42, 127
16, 55241, Note_on_c, 9, 36, 89
16, 55255, Note_on_c, 9, 42, 0
16, 55255, Note_on_c, 9, 36, 0
16, 55287, Note_on_c, 9, 42, 127
16, 55301, Note_on_c, 9, 42, 0
16, 55311, Note_on_c, 9, 46, 94
16, 55325, Note_on_c, 9, 46, 0
16, 55381, Note_on_c, 9, 42, 127
16, 55381, Note_on_c, 9, 36, 89
16, 55395, Note_on_c, 9, 42, 0
16, 55395, Note_on_c, 9, 36, 0
16, 55427, Note_on_c, 9, 42, 127
16, 55441, Note_on_c, 9, 42, 0
16, 55451, Note_on_c, 9, 46, 103
16, 55465, Note_on_c, 9, 46, 0
16, 55520, Note_on_c, 9, 42, 127
16, 55520, Note_on_c, 9, 36, 89
16, 55534, Note_on_c, 9, 42, 0
16, 55534, Note_on_c, 9, 36, 0
16, 55567, Note_on_c, 9, 42, 122
16, 55581, Note_on_c, 9, 42, 0
16, 55590, Note_on_c, 9, 46, 100
16, 55604, Note_on_c, 9, 46, 0
16, 55660, Note_on_c, 9, 36, 89
16, 55660, Note_on_c, 9, 42, 127
16, 55674, Note_on_c, 9, 36, 0
16, 55674, Note_on_c, 9, 42, 0
16, 55706, Note_on_c, 9, 42, 127
16, 55720, Note_on_c, 9, 42, 0
16, 55730, Note_on_c, 9, 46, 94
16, 55744, Note_on_c, 9, 46, 0
16, 55800, Note_on_c, 9, 42, 127
16, 55800, Note_on_c, 9, 36, 89
16, 55814, Note_on_c, 9, 42, 0
16, 55814, Note_on_c, 9, 36, 0
16, 55846, Note_on_c, 9, 42, 122
16, 55860, Note_on_c, 9, 42, 0
16, 55869, Note_on_c, 9, 46, 106
16, 55883, Note_on_c, 9, 46, 0
16, 55920, Note_on_c, 9, 36, 88
16, 55920, Note_on_c, 9, 49, 90
16, 55924, Note_on_c, 9, 51, 56
16, 55934, Note_on_c, 9, 36, 0
16, 55934, Note_on_c, 9, 49, 0
16, 55938, Note_on_c, 9, 51, 0
16, 56033, Note_on_c, 9, 51, 90
16, 56040, Note_on_c, 9, 40, 100
16, 56047, Note_on_c, 9, 51, 0
16, 56054, Note_on_c, 9, 40, 0
16, 56156, Note_on_c, 9, 51, 84
16, 56160, Note_on_c, 9, 36, 87
16, 56170, Note_on_c, 9, 51, 0
16, 56174, Note_on_c, 9, 36, 0
16, 56277, Note_on_c, 9, 51, 94
16, 56280, Note_on_c, 9, 40, 97
16, 56291, Note_on_c, 9, 51, 0
16, 56294, Note_on_c, 9, 40, 0
16, 56340, Note_on_c, 9, 36, 37
16, 56354, Note_on_c, 9, 36, 0
16, 56395, Note_on_c, 9, 51, 92
16, 56409, Note_on_c, 9, 51, 0
16, 56460, Note_on_c, 9, 36, 45
16, 56474, Note_on_c, 9, 36, 0
16, 56516, Note_on_c, 9, 51, 100
16, 56520, Note_on_c, 9, 40, 110
16, 56530, Note_on_c, 9, 51, 0
16, 56534, Note_on_c, 9, 40, 0
16, 56580, Note_on_c, 9, 36, 38
16, 56594, Note_on_c, 9, 36, 0
16, 56637, Note_on_c, 9, 51, 100
16, 56640, Note_on_c, 9, 36, 34
16, 56651, Note_on_c, 9, 51, 0
16, 56654, Note_on_c, 9, 36, 0
16, 56700, Note_on_c, 9, 36, 44
16, 56714, Note_on_c, 9, 36, 0
16, 56758, Note_on_c, 9, 51, 97
16, 56760, Note_on_c, 9, 40, 100
16, 56772, Note_on_c, 9, 51, 0
16, 56774, Note_on_c, 9, 40, 0
16, 56820, Note_on_c, 9, 36, 40
16, 56834, Note_on_c, 9, 36, 0
16, 56875, Note_on_c, 9, 51, 110
16, 56880, Note_on_c, 9, 36, 51
16, 56889, Note_on_c, 9, 51, 0
16, 56894, Note_on_c, 9, 36, 0
16, 56997, Note_on_c, 9, 51, 103
16, 57000, Note_on_c, 9, 40, 118
16, 57011, Note_on_c, 9, 51, 0
16, 57014, Note_on_c, 9, 40, 0
16, 57060, Note_on_c, 9, 36, 48
16, 57074, Note_on_c, 9, 36, 0
16, 57120, Note_on_c, 9, 36, 72
16, 57120, Note_on_c, 9, 42, 127
16, 57134, Note_on_c, 9, 36, 0
16, 57134, Note_on_c, 9, 42, 0
16, 57200, Note_on_c, 9, 42, 127
16, 57214, Note_on_c, 9, 42, 0
16, 57240, Note_on_c, 9, 46, 127
16, 57254, Note_on_c, 9, 46, 0
16, 57360, Note_on_c, 9, 40, 127
16, 57374, Note_on_c, 9, 40, 0
16, 57480, Note_on_c, 9, 42, 127
16, 57480, Note_on_c, 9, 36, 59
16, 57494, Note_on_c, 9, 42, 0
16, 57494, Note_on_c, 9, 36, 0
16, 57560, Note_on_c, 9, 42, 127
16, 57574, Note_on_c, 9, 42, 0
16, 57600, Note_on_c, 9, 46, 127
16, 57614, Note_on_c, 9, 46, 0
16, 57720, Note_on_c, 9, 40, 127
16, 57734, Note_on_c, 9, 40, 0
16, 57840, Note_on_c, 9, 42, 127
16, 57840, Note_on_c, 9, 36, 73
16, 57854, Note_on_c, 9, 42, 0
16, 57854, Note_on_c, 9, 36, 0
16, 57920, Note_on_c, 9, 42, 127
16, 57934, Note_on_c, 9, 42, 0
16, 57960, Note_on_c, 9, 46, 127
16, 57974, Note_on_c, 9, 46, 0
16, 58080, Note_on_c, 9, 40, 127
16, 58094, Note_on_c, 9, 40, 0
16, 58200, Note_on_c, 9, 36, 68
16, 58200, Note_on_c, 9, 42, 127
16, 58214, Note_on_c, 9, 36, 0
16, 58214, Note_on_c, 9, 42, 0
16, 58280, Note_on_c, 9, 42, 127
16, 58294, Note_on_c, 9, 42, 0
16, 58320, Note_on_c, 9, 46, 127
16, 58334, Note_on_c, 9, 46, 0
16, 58440, Note_on_c, 9, 40, 127
16, 58454, Note_on_c, 9, 40, 0
16, 58560, Note_on_c, 9, 42, 127
16, 58560, Note_on_c, 9, 36, 70
16, 58574, Note_on_c, 9, 42, 0
16, 58574, Note_on_c, 9, 36, 0
16, 58640, Note_on_c, 9, 42, 127
16, 58654, Note_on_c, 9, 42, 0
16, 58680, Note_on_c, 9, 46, 127
16, 58694, Note_on_c, 9, 46, 0
16, 58800, Note_on_c, 9, 40, 127
16, 58814, Note_on_c, 9, 40, 0
16, 58917, Note_on_c, 9, 36, 49
16, 58919, Note_on_c, 9, 51, 103
16, 58931, Note_on_c, 9, 36, 0
16, 58933, Note_on_c, 9, 51, 0
16, 59003, Note_on_c, 9, 36, 42
16, 59017, Note_on_c, 9, 36, 0
16, 59035, Note_on_c, 9, 51, 92
16, 59040, Note_on_c, 9, 40, 57
16, 59049, Note_on_c, 9, 51, 0
16, 59054, Note_on_c, 9, 40, 0
16, 59100, Note_on_c, 9, 40, 50
16, 59114, Note_on_c, 9, 40, 0
16, 59160, Note_on_c, 9, 48, 87
16, 59174, Note_on_c, 9, 48, 0
16, 59220, Note_on_c, 9, 48, 80
16, 59234, Note_on_c, 9, 48, 0
16, 59280, Note_on_c, 9, 48, 127
16, 59280, Note_on_c, 9, 36, 68
16, 59294, Note_on_c, 9, 48, 0
16, 59294, Note_on_c, 9, 36, 0
16, 59340, Note_on_c, 9, 45, 48
16, 59340, Note_on_c, 9, 48, 100
16, 59354, Note_on_c, 9, 45, 0
16, 59354, Note_on_c, 9, 48, 0
16, 59448, Note_on_c, 9, 45, 110
16, 59459, Note_on_c, 9, 45, 0
16, 59460, Note_on_c, 9, 45, 56
16, 59471, Note_on_c, 9, 45, 0
16, 59520, Note_on_c, 9, 36, 34
16, 59520, Note_on_c, 9, 50, 84
16, 59534, Note_on_c, 9, 36, 0
16, 59534, Note_on_c, 9, 50, 0
16, 59550, Note_on_c, 9, 50, 90
16, 59564, Note_on_c, 9, 50, 0
16, 59580, Note_on_c, 9, 50, 85
16, 59594, Note_on_c, 9, 50, 0
16, 59640, Note_on_c, 9, 48, 84
16, 59654, Note_on_c, 9, 48, 0
16, 59670, Note_on_c, 9, 48, 90
16, 59684, Note_on_c, 9, 48, 0
16, 59700, Note_on_c, 9, 48, 85
16, 59714, Note_on_c, 9, 48, 0
16, 59760, Note_on_c, 9, 36, 68
16, 59760, Note_on_c, 9, 51, 103
16, 59774, Note_on_c, 9, 36, 0
16, 59774, Note_on_c, 9, 51, 0
16, 59880, Note_on_c, 9, 40, 103
16, 59880, Note_on_c, 9, 51, 97
16, 59894, Note_on_c, 9, 40, 0
16, 59894, Note_on_c, 9, 51, 0
16, 60000, Note_on_c, 9, 36, 34
16, 60007, Note_on_c, 9, 51, 110
16, 60014, Note_on_c, 9, 36, 0
16, 60021, Note_on_c, 9, 51, 0
16, 60060, Note_on_c, 9, 36, 43
16, 60074, Note_on_c, 9, 36, 0
16, 60120, Note_on_c, 9, 40, 100
16, 60121, Note_on_c, 9, 51, 92
16, 60134, Note_on_c, 9, 40, 0
16, 60135, Note_on_c, 9, 51, 0
16, 60238, Note_on_c, 9, 51, 100
16, 60240, Note_on_c, 9, 36, 43
16, 60252, Note_on_c, 9, 51, 0
16, 60254, Note_on_c, 9, 36, 0
16, 60360, Note_on_c, 9, 40, 97
16, 60366, Note_on_c, 9, 51, 113
16, 60374, Note_on_c, 9, 40, 0
16, 60380, Note_on_c, 9, 51, 0
16, 60420, Note_on_c, 9, 36, 37
16, 60434, Note_on_c, 9, 36, 0
16, 60479, Note_on_c, 9, 51, 113
16, 60493, Note_on_c, 9, 51, 0
16, 60540, Note_on_c, 9, 36, 41
16, 60554, Note_on_c, 9, 36, 0
16, 60591, Note_on_c, 9, 51, 113
16, 60600, Note_on_c, 9, 40, 92
16, 60605, Note_on_c, 9, 51, 0
16, 60614, Note_on_c, 9, 40, 0
16, 60660, Note_on_c, 9, 36, 34
16, 60674, Note_on_c, 9, 36, 0
16, 60717, Note_on_c, 9, 51, 106
16, 60720, Note_on_c, 9, 40, 100
16, 60731, Note_on_c, 9, 51, 0
16, 60734, Note_on_c, 9, 40, 0
16, 60750, Note_on_c, 9, 40, 73
16, 60764, Note_on_c, 9, 40, 0
16, 60780, Note_on_c, 9, 36, 49
16, 60794, Note_on_c, 9, 36, 0
16, 60840, Note_on_c, 9, 40, 100
16, 60854, Note_on_c, 9, 40, 0
16, 60870, Note_on_c, 9, 40, 76
16, 60884, Note_on_c, 9, 40, 0
16, 60900, Note_on_c, 9, 36, 52
16, 60914, Note_on_c, 9, 36, 0
16, 60960, Note_on_c, 9, 40, 90
16, 60974, Note_on_c, 9, 40, 0
16, 60990, Note_on_c, 9, 40, 64
16, 61004, Note_on_c, 9, 40, 0
16, 61020, Note_on_c, 9, 36, 42
16, 61034, Note_on_c, 9, 36, 0
16, 61080, Note_on_c, 9, 40, 90
16, 61094, Note_on_c, 9, 40, 0
16, 61140, Note_on_c, 9, 36, 21
16, 61154, Note_on_c, 9, 36, 0
16, 61199, Note_on_c, 9, 51, 90
16, 61200, Note_on_c, 9, 40, 92
16, 61213, Note_on_c, 9, 51, 0
16, 61214, Note_on_c, 9, 40, 0
16, 61260, Note_on_c, 9, 36, 30
16, 61274, Note_on_c, 9, 36, 0
16, 61320, Note_on_c, 9, 40, 92
16, 61322, Note_on_c, 9, 51, 103
16, 61334, Note_on_c, 9, 40, 0
16, 61336, Note_on_c, 9, 51, 0
16, 61380, Note_on_c, 9, 36, 24
16, 61394, Note_on_c, 9, 36, 0
16, 61440, Note_on_c, 9, 36, 39
16, 61442, Note_on_c, 9, 51, 73
16, 61454, Note_on_c, 9, 36, 0
16, 61456, Note_on_c, 9, 51, 0
16, 61560, Note_on_c, 9, 40, 92
16, 61565, Note_on_c, 9, 51, 77
16, 61574, Note_on_c, 9, 40, 0
16, 61579, Note_on_c, 9, 51, 0
16, 61680, Note_on_c, 9, 36, 36
16, 61680, Note_on_c, 9, 51, 90
16, 61694, Note_on_c, 9, 36, 0
16, 61694, Note_on_c, 9, 51, 0
16, 61740, Note_on_c, 9, 36, 40
16, 61754, Note_on_c, 9, 36, 0
16, 61800, Note_on_c, 9, 40, 97
16, 61814, Note_on_c, 9, 40, 0
16, 61860, Note_on_c, 9, 36, 25
16, 61874, Note_on_c, 9, 36, 0
16, 61920, Note_on_c, 9, 36, 47
16, 61934, Note_on_c, 9, 36, 0
16, 61980, Note_on_c, 9, 40, 82
16, 61994, Note_on_c, 9, 40, 0
16, 62088, Note_on_c, 9, 40, 82
16, 62100, Note_on_c, 9, 40, 0
16, 62101, Note_on_c, 9, 40, 127
16, 62113, Note_on_c, 9, 40, 0
16, 62223, Note_on_c, 9, 40, 106
16, 62237, Note_on_c, 9, 40, 0
16, 62338, Note_on_c, 9, 49, 51
16, 62340, Note_on_c, 9, 50, 113
16, 62352, Note_on_c, 9, 49, 0
16, 62354, Note_on_c, 9, 50, 0
16, 62456, Note_on_c, 9, 49, 49
16, 62460, Note_on_c, 9, 47, 118
16, 62470, Note_on_c, 9, 49, 0
16, 62474, Note_on_c, 9, 47, 0
16, 62575, Note_on_c, 9, 57, 52
16, 62580, Note_on_c, 9, 50, 127
16, 62589, Note_on_c, 9, 57, 0
16, 62594, Note_on_c, 9, 50, 0
16, 62640, Note_on_c, 9, 36, 67
16, 62650, Note_on_c, 9, 57, 84
16, 62654, Note_on_c, 9, 36, 0
16, 62664, Note_on_c, 9, 57, 0
16, 62760, Note_on_c, 9, 40, 106
16, 62774, Note_on_c, 9, 40, 0
16, 62778, Note_on_c, 9, 51, 118
16, 62792, Note_on_c, 9, 51, 0
16, 62880, Note_on_c, 9, 36, 50
16, 62891, Note_on_c, 9, 51, 118
16, 62894, Note_on_c, 9, 36, 0
16, 62905, Note_on_c, 9, 51, 0
16, 63000, Note_on_c, 9, 40, 127
16, 63007, Note_on_c, 9, 51, 127
16, 63014, Note_on_c, 9, 40, 0
16, 63021, Note_on_c, 9, 51, 0
16, 63120, Note_on_c, 9, 36, 55
16, 63132, Note_on_c, 9, 51, 69
16, 63134, Note_on_c, 9, 36, 0
16, 63146, Note_on_c, 9, 51, 0
16, 63240, Note_on_c, 9, 40, 122
16, 63248, Note_on_c, 9, 51, 127
16, 63254, Note_on_c, 9, 40, 0
16, 63262, Note_on_c, 9, 51, 0
16, 63330, Note_on_c, 9, 48, 97
16, 63344, Note_on_c, 9, 48, 0
16, 63360, Note_on_c, 9, 48, 127
16, 63360, Note_on_c, 9, 36, 62
16, 63374, Note_on_c, 9, 48, 0
16, 63374, Note_on_c, 9, 36, 0
16, 63390, Note_on_c, 9, 48, 106
16, 63404, Note_on_c, 9, 48, 0
16, 63450, Note_on_c, 9, 45, 127
16, 63464, Note_on_c, 9, 45, 0
16, 63480, Note_on_c, 9, 45, 127
16, 63494, Note_on_c, 9, 45, 0
16, 63510, Note_on_c, 9, 45, 127
16, 63524, Note_on_c, 9, 45, 0
16, 63540, Note_on_c, 9, 45, 127
16, 63554, Note_on_c, 9, 45, 0
16, 63591, Note_on_c, 9, 49, 100
16, 63598, Note_on_c, 9, 36, 72
16, 63600, Note_on_c, 9, 53, 103
16, 63605, Note_on_c, 9, 49, 0
16, 63612, Note_on_c, 9, 36, 0
16, 63614, Note_on_c, 9, 53, 0
16, 63662, Note_on_c, 9, 53, 67
16, 63676, Note_on_c, 9, 53, 0
16, 63715, Note_on_c, 9, 53, 110
16, 63720, Note_on_c, 9, 40, 94
16, 63729, Note_on_c, 9, 53, 0
16, 63734, Note_on_c, 9, 40, 0
16, 63833, Note_on_c, 9, 53, 113
16, 63840, Note_on_c, 9, 36, 85
16, 63847, Note_on_c, 9, 53, 0
16, 63854, Note_on_c, 9, 36, 0
16, 63893, Note_on_c, 9, 53, 100
16, 63907, Note_on_c, 9, 53, 0
16, 63954, Note_on_c, 9, 53, 127
16, 63960, Note_on_c, 9, 40, 87
16, 63968, Note_on_c, 9, 53, 0
16, 63974, Note_on_c, 9, 40, 0
16, 64078, Note_on_c, 9, 36, 82
16, 64087, Note_on_c, 9, 53, 127
16, 64092, Note_on_c, 9, 36, 0
16, 64101, Note_on_c, 9, 53, 0
16, 64142, Note_on_c, 9, 53, 94
16, 64156, Note_on_c, 9, 53, 0
16, 64199, Note_on_c, 9, 53, 127
16, 64201, Note_on_c, 9, 40, 103
16, 64213, Note_on_c, 9, 53, 0
16, 64215, Note_on_c, 9, 40, 0
16, 64258, Note_on_c, 9, 53, 49
16, 64272, Note_on_c, 9, 53, 0
16, 64319, Note_on_c, 9, 53, 127
16, 64320, Note_on_c, 9, 36, 87
16, 64333, Note_on_c, 9, 53, 0
16, 64334, Note_on_c, 9, 36, 0
16, 64439, Note_on_c, 9, 53, 127
16, 64440, Note_on_c, 9, 40, 100
16, 64453, Note_on_c, 9, 53, 0
16, 64454, Note_on_c, 9, 40, 0
16, 64496, Note_on_c, 9, 53, 103
16, 64510, Note_on_c, 9, 53, 0
16, 64558, Note_on_c, 9, 53, 127
16, 64560, Note_on_c, 9, 36, 80
16, 64572, Note_on_c, 9, 53, 0
16, 64574, Note_on_c, 9, 36, 0
16, 64679, Note_on_c, 9, 53, 127
16, 64680, Note_on_c, 9, 40, 100
16, 64693, Note_on_c, 9, 53, 0
16, 64694, Note_on_c, 9, 40, 0
16, 64737, Note_on_c, 9, 53, 113
16, 64751, Note_on_c, 9, 53, 0
16, 64800, Note_on_c, 9, 36, 72
16, 64801, Note_on_c, 9, 53, 113
16, 64814, Note_on_c, 9, 36, 0
16, 64815, Note_on_c, 9, 53, 0
16, 64857, Note_on_c, 9, 53, 113
16, 64871, Note_on_c, 9, 53, 0
16, 64920, Note_on_c, 9, 40, 100
16, 64934, Note_on_c, 9, 40, 0
16, 64969, Note_on_c, 9, 53, 127
16, 64983, Note_on_c, 9, 53, 0
16, 65040, Note_on_c, 9, 36, 53
16, 65050, Note_on_c, 9, 48, 118
16, 65054, Note_on_c, 9, 36, 0
16, 65061, Note_on_c, 9, 45, 126
16, 65064, Note_on_c, 9, 48, 0
16, 65075, Note_on_c, 9, 45, 0
16, 65085, Note_on_c, 9, 36, 77
16, 65099, Note_on_c, 9, 36, 0
16, 65117, Note_on_c, 9, 48, 97
16, 65125, Note_on_c, 9, 45, 127
16, 65131, Note_on_c, 9, 48, 0
16, 65139, Note_on_c, 9, 45, 0
16, 65162, Note_on_c, 9, 36, 68
16, 65176, Note_on_c, 9, 36, 0
16, 65195, Note_on_c, 9, 48, 84
16, 65206, Note_on_c, 9, 45, 127
16, 65209, Note_on_c, 9, 48, 0
16, 65220, Note_on_c, 9, 45, 0
16, 65241, Note_on_c, 9, 36, 85
16, 65255, Note_on_c, 9, 36, 0
16, 65271, Note_on_c, 9, 48, 80
16, 65279, Note_on_c, 9, 45, 127
16, 65285, Note_on_c, 9, 48, 0
16, 65293, Note_on_c, 9, 45, 0
16, 65319, Note_on_c, 9, 36, 92
16, 65333, Note_on_c, 9, 36, 0
16, 65348, Note_on_c, 9, 48, 82
16, 65357, Note_on_c, 9, 47, 127
16, 65362, Note_on_c, 9, 48, 0
16, 65371, Note_on_c, 9, 47, 0
16, 65380, Note_on_c, 9, 47, 58
16, 65394, Note_on_c, 9, 47, 0
16, 65395, Note_on_c, 9, 47, 48
16, 65407, Note_on_c, 9, 47, 0
16, 65408, Note_on_c, 9, 47, 50
16, 65420, Note_on_c, 9, 47, 0
16, 65422, Note_on_c, 9, 47, 53
16, 65436, Note_on_c, 9, 47, 0
16, 65437, Note_on_c, 9, 47, 61
16, 65451, Note_on_c, 9, 47, 0
16, 65452, Note_on_c, 9, 47, 74
16, 65465, Note_on_c, 9, 47, 0
16, 65466, Note_on_c, 9, 47, 94
16, 65479, Note_on_c, 9, 47, 0
16, 65480, Note_on_c, 9, 47, 97
16, 65493, Note_on_c, 9, 47, 0
16, 65494, Note_on_c, 9, 47, 103
16, 65507, Note_on_c, 9, 47, 0
16, 65510, Note_on_c, 9, 47, 127
16, 65510, Note_on_c, 9, 36, 97
16, 65520, Note_on_c, 9, 49, 92
16, 65524, Note_on_c, 9, 47, 0
16, 65524, Note_on_c, 9, 36, 0
16, 65534, Note_on_c, 9, 49, 0
16, 65636, Note_on_c, 9, 51, 51
16, 65640, Note_on_c, 9, 40, 127
16, 65650, Note_on_c, 9, 51, 0
16, 65654, Note_on_c, 9, 40, 0
16, 65703, Note_on_c, 9, 51, 40
16, 65717, Note_on_c, 9, 51, 0
16, 65757, Note_on_c, 9, 51, 56
16, 65771, Note_on_c, 9, 51, 0
16, 65820, Note_on_c, 9, 36, 77
16, 65823, Note_on_c, 9, 51, 56
16, 65834, Note_on_c, 9, 36, 0
16, 65837, Note_on_c, 9, 51, 0
16, 65878, Note_on_c, 9, 51, 60
16, 65880, Note_on_c, 9, 40, 118
16, 65892, Note_on_c, 9, 51, 0
16, 65894, Note_on_c, 9, 40, 0
16, 65942, Note_on_c, 9, 51, 51
16, 65956, Note_on_c, 9, 51, 0
16, 65998, Note_on_c, 9, 51, 77
16, 66012, Note_on_c, 9, 51, 0
16, 66059, Note_on_c, 9, 51, 61
16, 66060, Note_on_c, 9, 36, 66
16, 66073, Note_on_c, 9, 51, 0
16, 66074, Note_on_c, 9, 36, 0
16, 66120, Note_on_c, 9, 51, 62
16, 66120, Note_on_c, 9, 40, 103
16, 66134, Note_on_c, 9, 51, 0
16, 66134, Note_on_c, 9, 40, 0
16, 66179, Note_on_c, 9, 51, 76
16, 66193, Note_on_c, 9, 51, 0
16, 66239, Note_on_c, 9, 51, 72
16, 66253, Note_on_c, 9, 51, 0
16, 66300, Note_on_c, 9, 36, 69
16, 66301, Note_on_c, 9, 51, 70
16, 66314, Note_on_c, 9, 36, 0
16, 66315, Note_on_c, 9, 51, 0
16, 66360, Note_on_c, 9, 40, 118
16, 66363, Note_on_c, 9, 51, 78
16, 66374, Note_on_c, 9, 40, 0
16, 66377, Note_on_c, 9, 51, 0
16, 66421, Note_on_c, 9, 51, 90
16, 66435, Note_on_c, 9, 51, 0
16, 66480, Note_on_c, 9, 40, 106
16, 66480, Note_on_c, 9, 37, 106
16, 66480, Note_on_c, 9, 36, 57
16, 66481, Note_on_c, 9, 49, 63
16, 66494, Note_on_c, 9, 40, 0
16, 66494, Note_on_c, 9, 37, 0
16, 66494, Note_on_c, 9, 36, 0
16, 66495, Note_on_c, 9, 49, 0
16, 66540, Note_on_c, 9, 36, 57
16, 66554, Note_on_c, 9, 36, 0
16, 66600, Note_on_c, 9, 40, 127
16, 66600, Note_on_c, 9, 37, 127
16, 66608, Note_on_c, 9, 49, 73
16, 66611, Note_on_c, 9, 44, 56
16, 66614, Note_on_c, 9, 40, 0
16, 66614, Note_on_c, 9, 37, 0
16, 66622, Note_on_c, 9, 49, 0
16, 66625, Note_on_c, 9, 44, 0
16, 66660, Note_on_c, 9, 36, 56
16, 66674, Note_on_c, 9, 36, 0
16, 66719, Note_on_c, 9, 49, 76
16, 66720, Note_on_c, 9, 40, 122
16, 66720, Note_on_c, 9, 37, 122
16, 66733, Note_on_c, 9, 49, 0
16, 66734, Note_on_c, 9, 40, 0
16, 66734, Note_on_c, 9, 37, 0
16, 66780, Note_on_c, 9, 36, 56
16, 66794, Note_on_c, 9, 36, 0
16, 66838, Note_on_c, 9, 49, 72
16, 66840, Note_on_c, 9, 40, 110
16, 66840, Note_on_c, 9, 37, 110
16, 66849, Note_on_c, 9, 44, 97
16, 66852, Note_on_c, 9, 49, 0
16, 66854, Note_on_c, 9, 40, 0
16, 66854, Note_on_c, 9, 37, 0
16, 66863, Note_on_c, 9, 44, 0
16, 66870, Note_on_c, 9, 40, 94
16, 66884, Note_on_c, 9, 40, 0
16, 66900, Note_on_c, 9, 36, 103
16, 66914, Note_on_c, 9, 36, 0
16, 66960, Note_on_c, 9, 40, 127
16, 66960, Note_on_c, 9, 37, 127
16, 66963, Note_on_c, 9, 49, 65
16, 66974, Note_on_c, 9, 40, 0
16, 66974, Note_on_c, 9, 37, 0
16, 66977, Note_on_c, 9, 49, 0
16, 66990, Note_on_c, 9, 40, 94
16, 67004, Note_on_c, 9, 40, 0
16, 67020, Note_on_c, 9, 36, 66
16, 67034, Note_on_c, 9, 36, 0
16, 67082, Note_on_c, 9, 49, 66
16, 67085, Note_on_c, 9, 40, 127
16, 67085, Note_on_c, 9, 37, 127
16, 67088, Note_on_c, 9, 44, 97
16, 67096, Note_on_c, 9, 49, 0
16, 67099, Note_on_c, 9, 40, 0
16, 67099, Note_on_c, 9, 37, 0
16, 67102, Note_on_c, 9, 44, 0
16, 67110, Note_on_c, 9, 40, 94
16, 67124, Note_on_c, 9, 40, 0
16, 67140, Note_on_c, 9, 36, 82
16, 67154, Note_on_c, 9, 36, 0
16, 67203, Note_on_c, 9, 49, 65
16, 67204, Note_on_c, 9, 40, 100
16, 67204, Note_on_c, 9, 37, 100
16, 67217, Note_on_c, 9, 49, 0
16, 67218, Note_on_c, 9, 40, 0
16, 67218, Note_on_c, 9, 37, 0
16, 67230, Note_on_c, 9, 40, 94
16, 67244, Note_on_c, 9, 40, 0
16, 67260, Note_on_c, 9, 36, 77
16, 67274, Note_on_c, 9, 36, 0
16, 67320, Note_on_c, 9, 40, 87
16, 67320, Note_on_c, 9, 49, 67
16, 67320, Note_on_c, 9, 37, 87
16, 67327, Note_on_c, 9, 44, 110
16, 67334, Note_on_c, 9, 40, 0
16, 67334, Note_on_c, 9, 49, 0
16, 67334, Note_on_c, 9, 37, 0
16, 67341, Note_on_c, 9, 44, 0
16, 67350, Note_on_c, 9, 40, 94
16, 67364, Note_on_c, 9, 40, 0
16, 67380, Note_on_c, 9, 36, 70
16, 67394, Note_on_c, 9, 36, 0
16, 67440, Note_on_c, 9, 36, 63
16, 67440, Note_on_c, 9, 49, 94
16, 67454, Note_on_c, 9, 36, 0
16, 67454, Note_on_c, 9, 49, 0
16, 67530, Note_on_c, 9, 40, 59
16, 67544, Note_on_c, 9, 40, 0
16, 67560, Note_on_c, 9, 40, 87
16, 67574, Note_on_c, 9, 40, 0
16, 67612, Note_on_c, 9, 49, 103
16, 67620, Note_on_c, 9, 36, 68
16, 67626, Note_on_c, 9, 49, 0
16, 67634, Note_on_c, 9, 36, 0
16, 67710, Note_on_c, 9, 40, 94
16, 67724, Note_on_c, 9, 40, 0
16, 67740, Note_on_c, 9, 40, 94
16, 67754, Note_on_c, 9, 40, 0
16, 67800, Note_on_c, 9, 36, 67
16, 67814, Note_on_c, 9, 36, 0
16, 67815, Note_on_c, 9, 49, 92
16, 67829, Note_on_c, 9, 49, 0
16, 67890, Note_on_c, 9, 40, 69
16, 67904, Note_on_c, 9, 40, 0
16, 67920, Note_on_c, 9, 40, 87
16, 67934, Note_on_c, 9, 40, 0
16, 67980, Note_on_c, 9, 36, 68
16, 67987, Note_on_c, 9, 49, 90
16, 67994, Note_on_c, 9, 36, 0
16, 68001, Note_on_c, 9, 49, 0
16, 68070, Note_on_c, 9, 40, 94
16, 68084, Note_on_c, 9, 40, 0
16, 68100, Note_on_c, 9, 40, 94
16, 68114, Note_on_c, 9, 40, 0
16, 68160, Note_on_c, 9, 36, 67
16, 68174, Note_on_c, 9, 36, 0
16, 68175, Note_on_c, 9, 49, 76
16, 68189, Note_on_c, 9, 49, 0
16, 68220, Note_on_c, 9, 45, 49
16, 68234, Note_on_c, 9, 45, 0
16, 68250, Note_on_c, 9, 45, 49
16, 68264, Note_on_c, 9, 45, 0
16, 68280, Note_on_c, 9, 45, 66
16, 68283, Note_on_c, 9, 44, 97
16, 68294, Note_on_c, 9, 45, 0
16, 68297, Note_on_c, 9, 44, 0
16, 68310, Note_on_c, 9, 45, 106
16, 68324, Note_on_c, 9, 45, 0
16, 68340, Note_on_c, 9, 45, 106
16, 68354, Note_on_c, 9, 45, 0
16, 68370, Note_on_c, 9, 45, 103
16, 68384, Note_on_c, 9, 45, 0
16, 68397, Note_on_c, 9, 36, 84
16, 68411, Note_on_c, 9, 36, 0
16, 68520, Note_on_c, 9, 36, 84
16, 68534, Note_on_c, 9, 36, 0
16, 68582, Note_on_c, 9, 44, 62
16, 68585, Note_on_c, 9, 48, 57
16, 68596, Note_on_c, 9, 44, 0
16, 68599, Note_on_c, 9, 48, 0
16, 68613, Note_on_c, 9, 48, 68
16, 68627, Note_on_c, 9, 48, 0
16, 68639, Note_on_c, 9, 48, 82
16, 68640, Note_on_c, 9, 36, 85
16, 68653, Note_on_c, 9, 48, 0
16, 68654, Note_on_c, 9, 36, 0
16, 68670, Note_on_c, 9, 48, 110
16, 68684, Note_on_c, 9, 48, 0
16, 68700, Note_on_c, 9, 48, 127
16, 68714, Note_on_c, 9, 48, 0
16, 68760, Note_on_c, 9, 36, 64
16, 68774, Note_on_c, 9, 36, 0
16, 68788, Note_on_c, 9, 45, 39
16, 68802, Note_on_c, 9, 45, 0
16, 68820, Note_on_c, 9, 44, 97
16, 68834, Note_on_c, 9, 44, 0
16, 68880, Note_on_c, 9, 36, 78
16, 68894, Note_on_c, 9, 36, 0
16, 68912, Note_on_c, 9, 45, 48
16, 68926, Note_on_c, 9, 45, 0
16, 68941, Note_on_c, 9, 45, 53
16, 68955, Note_on_c, 9, 45, 0
16, 68970, Note_on_c, 9, 45, 87
16, 68984, Note_on_c, 9, 45, 0
16, 69000, Note_on_c, 9, 36, 70
16, 69000, Note_on_c, 9, 45, 127
16, 69014, Note_on_c, 9, 36, 0
16, 69014, Note_on_c, 9, 45, 0
16, 69028, Note_on_c, 9, 45, 127
16, 69042, Note_on_c, 9, 45, 0
16, 69059, Note_on_c, 9, 44, 100
16, 69073, Note_on_c, 9, 44, 0
16, 69120, Note_on_c, 9, 36, 69
16, 69134, Note_on_c, 9, 36, 0
16, 69152, Note_on_c, 9, 48, 52
16, 69166, Note_on_c, 9, 48, 0
16, 69181, Note_on_c, 9, 48, 67
16, 69195, Note_on_c, 9, 48, 0
16, 69208, Note_on_c, 9, 48, 94
16, 69222, Note_on_c, 9, 48, 0
16, 69240, Note_on_c, 9, 36, 85
16, 69254, Note_on_c, 9, 36, 0
16, 69271, Note_on_c, 9, 41, 44
16, 69285, Note_on_c, 9, 41, 0
16, 69300, Note_on_c, 9, 44, 106
16, 69304, Note_on_c, 9, 41, 61
16, 69314, Note_on_c, 9, 44, 0
16, 69318, Note_on_c, 9, 41, 0
16, 69329, Note_on_c, 9, 41, 113
16, 69343, Note_on_c, 9, 41, 0
16, 69360, Note_on_c, 9, 36, 60
16, 69360, Note_on_c, 9, 57, 113
16, 69374, Note_on_c, 9, 36, 0
16, 69374, Note_on_c, 9, 57, 0
16, 69480, Note_on_c, 9, 40, 122
16, 69494, Note_on_c, 9, 40, 0
16, 69540, Note_on_c, 9, 53, 127
16, 69554, Note_on_c, 9, 53, 0
16, 69600, Note_on_c, 9, 36, 49
16, 69614, Note_on_c, 9, 36, 0
16, 69660, Note_on_c, 9, 36, 37
16, 69674, Note_on_c, 9, 36, 0
16, 69722, Note_on_c, 9, 40, 127
16, 69736, Note_on_c, 9, 40, 0
16, 69780, Note_on_c, 9, 53, 127
16, 69794, Note_on_c, 9, 53, 0
16, 69838, Note_on_c, 9, 36, 50
16, 69852, Note_on_c, 9, 36, 0
16, 69900, Note_on_c, 9, 36, 35
16, 69914, Note_on_c, 9, 36, 0
16, 69963, Note_on_c, 9, 40, 127
16, 69977, Note_on_c, 9, 40, 0
16, 70020, Note_on_c, 9, 53, 127
16, 70034, Note_on_c, 9, 53, 0
16, 70080, Note_on_c, 9, 36, 36
16, 70094, Note_on_c, 9, 36, 0
16, 70200, Note_on_c, 9, 40, 127
16, 70214, Note_on_c, 9, 40, 0
16, 70260, Note_on_c, 9, 53, 127
16, 70274, Note_on_c, 9, 53, 0
16, 70320, Note_on_c, 9, 36, 76
16, 70334, Note_on_c, 9, 36, 0
16, 70442, Note_on_c, 9, 40, 127
16, 70456, Note_on_c, 9, 40, 0
16, 70500, Note_on_c, 9, 53, 127
16, 70514, Note_on_c, 9, 53, 0
16, 70560, Note_on_c, 9, 36, 56
16, 70574, Note_on_c, 9, 36, 0
16, 70686, Note_on_c, 9, 40, 127
16, 70700, Note_on_c, 9, 40, 0
16, 70740, Note_on_c, 9, 53, 84
16, 70754, Note_on_c, 9, 53, 0
16, 70800, Note_on_c, 9, 36, 73
16, 70814, Note_on_c, 9, 36, 0
16, 70863, Note_on_c, 9, 40, 41
16, 70877, Note_on_c, 9, 40, 0
16, 70892, Note_on_c, 9, 40, 82
16, 70906, Note_on_c, 9, 40, 0
16, 70918, Note_on_c, 9, 40, 94
16, 70920, Note_on_c, 9, 36, 84
16, 70932, Note_on_c, 9, 40, 0
16, 70934, Note_on_c, 9, 36, 0
16, 70948, Note_on_c, 9, 40, 127
16, 70962, Note_on_c, 9, 40, 0
16, 71040, Note_on_c, 9, 36, 101
16, 71054, Note_on_c, 9, 36, 0
16, 71069, Note_on_c, 9, 40, 50
16, 71083, Note_on_c, 9, 40, 0
16, 71099, Note_on_c, 9, 40, 52
16, 71113, Note_on_c, 9, 40, 0
16, 71133, Note_on_c, 9, 40, 74
16, 71147, Note_on_c, 9, 40, 0
16, 71160, Note_on_c, 9, 36, 91
16, 71163, Note_on_c, 9, 40, 90
16, 71174, Note_on_c, 9, 36, 0
16, 71177, Note_on_c, 9, 40, 0
16, 71193, Note_on_c, 9, 40, 92
16, 71207, Note_on_c, 9, 40, 0
16, 71221, Note_on_c, 9, 40, 97
16, 71235, Note_on_c, 9, 40, 0
16, 71248, Note_on_c, 9, 40, 92
16, 71262, Note_on_c, 9, 40, 0
16, 71282, Note_on_c, 9, 40, 127
16, 71290, Note_on_c, 9, 40, 127
16, 71296, Note_on_c, 9, 40, 0
16, 71304, Note_on_c, 9, 40, 0
16, 71399, Note_on_c, 9, 40, 127
16, 71399, Note_on_c, 9, 36, 80
16, 71407, Note_on_c, 9, 40, 127
16, 71413, Note_on_c, 9, 40, 0
16, 71413, Note_on_c, 9, 36, 0
16, 71421, Note_on_c, 9, 40, 0
16, 71484, Note_on_c, 9, 40, 127
16, 71492, Note_on_c, 9, 40, 127
16, 71498, Note_on_c, 9, 40, 0
16, 71506, Note_on_c, 9, 40, 0
16, 71518, Note_on_c, 9, 36, 80
16, 71518, Note_on_c, 9, 40, 127
16, 71526, Note_on_c, 9, 40, 127
16, 71532, Note_on_c, 9, 36, 0
16, 71532, Note_on_c, 9, 40, 0
16, 71540, Note_on_c, 9, 40, 0
16, 71637, Note_on_c, 9, 40, 127
16, 71645, Note_on_c, 9, 40, 127
16, 71651, Note_on_c, 9, 40, 0
16, 71659, Note_on_c, 9, 40, 0
16, 71755, Note_on_c, 9, 40, 127
16, 71757, Note_on_c, 9, 36, 52
16, 71763, Note_on_c, 9, 40, 127
16, 71769, Note_on_c, 9, 40, 0
16, 71771, Note_on_c, 9, 36, 0
16, 71777, Note_on_c, 9, 40, 0
16, 71832, Note_on_c, 9, 40, 127
16, 71840, Note_on_c, 9, 40, 127
16, 71846, Note_on_c, 9, 40, 0
16, 71854, Note_on_c, 9, 40, 0
16, 71874, Note_on_c, 9, 40, 127
16, 71874, Note_on_c, 9, 36, 80
16, 71882, Note_on_c, 9, 40, 127
16, 71888, Note_on_c, 9, 40, 0
16, 71888, Note_on_c, 9, 36, 0
16, 71896, Note_on_c, 9, 40, 0
16, 71954, Note_on_c, 9, 40, 127
16, 71962, Note_on_c, 9, 40, 127
16, 71968, Note_on_c, 9, 40, 0
16, 71976, Note_on_c, 9, 40, 0
16, 71993, Note_on_c, 9, 36, 80
16, 71993, Note_on_c, 9, 40, 127
16, 72001, Note_on_c, 9, 40, 127
16, 72007, Note_on_c, 9, 36, 0
16, 72007, Note_on_c, 9, 40, 0
16, 72015, Note_on_c, 9, 40, 0
16, 72110, Note_on_c, 9, 40, 127
16, 72111, Note_on_c, 9, 36, 78
16, 72118, Note_on_c, 9, 40, 127
16, 72124, Note_on_c, 9, 40, 0
16, 72125, Note_on_c, 9, 36, 0
16, 72132, Note_on_c, 9, 40, 0
16, 72196, Note_on_c, 9, 40, 108
16, 72204, Note_on_c, 9, 40, 108
16, 72210, Note_on_c, 9, 40, 0
16, 72218, Note_on_c, 9, 40, 0
16, 72237, Note_on_c, 9, 40, 127
16, 72237, Note_on_c, 9, 36, 78
16, 72245, Note_on_c, 9, 40, 127
16, 72251, Note_on_c, 9, 40, 0
16, 72251, Note_on_c, 9, 36, 0
16, 72259, Note_on_c, 9, 40, 0
16, 72357, Note_on_c, 9, 50, 92
16, 72360, Note_on_c, 9, 50, 0
16, 72361, Note_on_c, 9, 50, 127
16, 72375, Note_on_c, 9, 50, 0
16, 72481, Note_on_c, 9, 45, 76
16, 72495, Note_on_c, 9, 45, 0
16, 72512, Note_on_c, 9, 45, 37
16, 72526, Note_on_c, 9, 45, 0
16, 72580, Note_on_c, 9, 45, 55
16, 72594, Note_on_c, 9, 45, 0
16, 72608, Note_on_c, 9, 45, 82
16, 72622, Note_on_c, 9, 45, 0
16, 72666, Note_on_c, 9, 45, 82
16, 72680, Note_on_c, 9, 45, 0
16, 72749, Note_on_c, 9, 45, 45
16, 72763, Note_on_c, 9, 45, 0
16, 72780, Note_on_c, 9, 45, 53
16, 72794, Note_on_c, 9, 45, 0
16, 72842, Note_on_c, 9, 45, 46
16, 72856, Note_on_c, 9, 45, 0
16, 72932, Note_on_c, 9, 45, 29
16, 72946, Note_on_c, 9, 45, 0
16, 72961, Note_on_c, 9, 45, 30
16, 72975, Note_on_c, 9, 45, 0
16, 73018, Note_on_c, 9, 45, 28
16, 73032, Note_on_c, 9, 45, 0
16, 73200, Control_c, 9, 101, 0
16, 73202, Control_c, 9, 100, 0
16, 73204, Control_c, 9, 6, 12
16, 73206, Control_c, 9, 101, 127
16, 73208, Control_c, 9, 100, 127
16, 73232, Note_on_c, 9, 45, 37
16, 73246, Note_on_c, 9, 45, 0
16, 73261, Note_on_c, 9, 45, 31
16, 73275, Note_on_c, 9, 45, 0
16, 73290, Control_c, 9, 10, 79
16, 73290, Note_on_c, 9, 45, 34
16, 73304, Note_on_c, 9, 45, 0
16, 73318, Note_on_c, 9, 45, 40
16, 73332, Note_on_c, 9, 45, 0
16, 73336, Pitch_bend_c, 9, 8328
16, 73339, Pitch_bend_c, 9, 8465
16, 73340, Pitch_bend_c, 9, 8738
16, 73340, Control_c, 9, 10, 87
16, 73342, Pitch_bend_c, 9, 9011
16, 73343, Pitch_bend_c, 9, 9284
16, 73345, Pitch_bend_c, 9, 9558
16, 73346, Pitch_bend_c, 9, 9830
16, 73347, Note_on_c, 9, 45, 37
16, 73348, Pitch_bend_c, 9, 9967
16, 73352, Pitch_bend_c, 9, 10240
16, 73355, Pitch_bend_c, 9, 10581
16, 73357, Pitch_bend_c, 9, 10695
16, 73358, Pitch_bend_c, 9, 10809
16, 73360, Pitch_bend_c, 9, 10923
16, 73361, Note_on_c, 9, 45, 0
16, 73362, Pitch_bend_c, 9, 11059
16, 73364, Pitch_bend_c, 9, 11196
16, 73366, Pitch_bend_c, 9, 11469
16, 73368, Control_c, 9, 10, 95
16, 73368, Pitch_bend_c, 9, 11606
16, 73371, Pitch_bend_c, 9, 11878
16, 73379, Pitch_bend_c, 9, 12015
16, 73379, Note_on_c, 9, 45, 33
16, 73382, Pitch_bend_c, 9, 12151
16, 73387, Pitch_bend_c, 9, 12424
16, 73393, Note_on_c, 9, 45, 0
16, 73394, Control_c, 9, 10, 103
16, 73396, Pitch_bend_c, 9, 12561
16, 73398, Pitch_bend_c, 9, 12697
16, 73399, Pitch_bend_c, 9, 12971
16, 73401, Pitch_bend_c, 9, 13084
16, 73402, Pitch_bend_c, 9, 13312
16, 73404, Pitch_bend_c, 9, 13426
16, 73406, Pitch_bend_c, 9, 13540
16, 73406, Note_on_c, 9, 45, 44
16, 73411, Pitch_bend_c, 9, 13790
16, 73415, Pitch_bend_c, 9, 13926
16, 73418, Pitch_bend_c, 9, 14063
16, 73420, Note_on_c, 9, 45, 0
16, 73420, Pitch_bend_c, 9, 14336
16, 73423, Pitch_bend_c, 9, 14472
16, 73426, Control_c, 9, 10, 111
16, 73427, Pitch_bend_c, 9, 14745
16, 73431, Pitch_bend_c, 9, 14882
16, 73433, Pitch_bend_c, 9, 15019
16, 73435, Note_on_c, 9, 45, 39
16, 73436, Pitch_bend_c, 9, 15155
16, 73438, Pitch_bend_c, 9, 15428
16, 73440, Pitch_bend_c, 9, 15565
16, 73442, Pitch_bend_c, 9, 15702
16, 73445, Pitch_bend_c, 9, 15929
16, 73448, Pitch_bend_c, 9, 16042
16, 73449, Note_on_c, 9, 45, 0
16, 73450, Pitch_bend_c, 9, 16156
16, 73452, Pitch_bend_c, 9, 16269
16, 73454, Pitch_bend_c, 9, 16383
16, 73466, Note_on_c, 9, 45, 41
16, 73480, Note_on_c, 9, 45, 0
16, 73480, Control_c, 9, 10, 119
16, 73495, Note_on_c, 9, 45, 118
16, 73509, Note_on_c, 9, 45, 0
16, 73509, Control_c, 9, 10, 127
16, 73511, Control_c, 9, 101, 0
16, 73513, Control_c, 9, 100, 0
16, 73515, Control_c, 9, 6, 2
16, 73517, Control_c, 9, 101, 127
16, 73519, Control_c, 9, 100, 127
16, 73677, Pitch_bend_c, 9, 8192
16, 73678, Control_c, 9, 10, 64
16, 73680, Note_on_c, 9, 50, 127
16, 73694, Note_on_c, 9, 50, 0
16, 73695, Note_on_c, 9, 50, 127
16, 73709, Note_on_c, 9, 50, 0
16, 73814, Note_on_c, 9, 47, 103
16, 73828, Note_on_c, 9, 47, 0
16, 73860, Note_on_c, 9, 48, 118
16, 73874, Note_on_c, 9, 48, 0
16, 73876, Note_on_c, 9, 48, 118
16, 73890, Note_on_c, 9, 48, 0
16, 73999, Note_on_c, 9, 43, 113
16, 74013, Note_on_c, 9, 43, 0
16, 74141, Note_on_c, 9, 40, 127
16, 74155, Note_on_c, 9, 40, 0
16, 74221, Note_on_c, 9, 50, 30
16, 74235, Note_on_c, 9, 50, 0
16, 74239, Note_on_c, 9, 48, 67
16, 74253, Note_on_c, 9, 48, 0
16, 74260, Note_on_c, 9, 47, 82
16, 74274, Note_on_c, 9, 47, 0
16, 74280, Note_on_c, 9, 47, 80
16, 74294, Note_on_c, 9, 47, 0
16, 74338, Note_on_c, 9, 40, 127
16, 74352, Note_on_c, 9, 40, 0
16, 74400, Note_on_c, 9, 50, 60
16, 74414, Note_on_c, 9, 50, 0
16, 74420, Note_on_c, 9, 48, 72
16, 74434, Note_on_c, 9, 48, 0
16, 74441, Note_on_c, 9, 45, 82
16, 74455, Note_on_c, 9, 45, 0
16, 74460, Note_on_c, 9, 45, 97
16, 74474, Note_on_c, 9, 45, 0
16, 74528, Note_on_c, 9, 40, 127
16, 74542, Note_on_c, 9, 40, 0
16, 74649, Note_on_c, 9, 47, 103
16, 74663, Note_on_c, 9, 47, 0
16, 74688, Note_on_c, 9, 47, 92
16, 74702, Note_on_c, 9, 47, 0
16, 74727, Note_on_c, 9, 47, 97
16, 74741, Note_on_c, 9, 47, 0
16, 74766, Note_on_c, 9, 47, 113
16, 74780, Note_on_c, 9, 47, 0
16, 74805, Note_on_c, 9, 43, 80
16, 74819, Note_on_c, 9, 43, 0
16, 74844, Note_on_c, 9, 43, 90
16, 74858, Note_on_c, 9, 43, 0
16, 74883, Note_on_c, 9, 43, 92
16, 74897, Note_on_c, 9, 43, 0
16, 74922, Note_on_c, 9, 43, 85
16, 74936, Note_on_c, 9, 43, 0
16, 74961, Note_on_c, 9, 43, 127
16, 74975, Note_on_c, 9, 43, 0
16, 75000, Note_on_c, 9, 40, 127
16, 75000, Note_on_c, 9, 43, 127
16, 75014, Note_on_c, 9, 40, 0
16, 75014, Note_on_c, 9, 43, 0
16, 75071, Note_on_c, 9, 36, 55
16, 75085, Note_on_c, 9, 36, 0
16, 75120, Note_on_c, 9, 49, 60
16, 75122, Note_on_c, 9, 36, 78
16, 75134, Note_on_c, 9, 49, 0
16, 75136, Note_on_c, 9, 36, 0
16, 75242, Note_on_c, 9, 51, 87
16, 75256, Note_on_c, 9, 51, 0
16, 75360, Note_on_c, 9, 40, 127
16, 75363, Note_on_c, 9, 51, 90
16, 75374, Note_on_c, 9, 40, 0
16, 75377, Note_on_c, 9, 51, 0
16, 75480, Note_on_c, 9, 36, 94
16, 75481, Note_on_c, 9, 51, 87
16, 75494, Note_on_c, 9, 36, 0
16, 75495, Note_on_c, 9, 51, 0
16, 75605, Note_on_c, 9, 51, 90
16, 75619, Note_on_c, 9, 51, 0
16, 75660, Note_on_c, 9, 36, 48
16, 75674, Note_on_c, 9, 36, 0
16, 75720, Note_on_c, 9, 51, 76
16, 75722, Note_on_c, 9, 40, 127
16, 75734, Note_on_c, 9, 51, 0
16, 75736, Note_on_c, 9, 40, 0
16, 75840, Note_on_c, 9, 36, 72
16, 75842, Note_on_c, 9, 51, 92
16, 75854, Note_on_c, 9, 36, 0
16, 75856, Note_on_c, 9, 51, 0
16, 75965, Note_on_c, 9, 51, 80
16, 75979, Note_on_c, 9, 51, 0
16, 76020, Note_on_c, 9, 36, 60
16, 76034, Note_on_c, 9, 36, 0
16, 76089, Note_on_c, 9, 51, 85
16, 76103, Note_on_c, 9, 51, 0
16, 76140, Note_on_c, 9, 40, 127
16, 76154, Note_on_c, 9, 40, 0
16, 76213, Note_on_c, 9, 51, 97
16, 76227, Note_on_c, 9, 51, 0
16, 76260, Note_on_c, 9, 36, 68
16, 76274, Note_on_c, 9, 36, 0
16, 76325, Note_on_c, 9, 51, 94
16, 76339, Note_on_c, 9, 51, 0
16, 76380, Note_on_c, 9, 36, 86
16, 76394, Note_on_c, 9, 36, 0
16, 76440, Note_on_c, 9, 51, 100
16, 76440, Note_on_c, 9, 40, 127
16, 76454, Note_on_c, 9, 51, 0
16, 76454, Note_on_c, 9, 40, 0
16, 76560, Note_on_c, 9, 36, 85
16, 76562, Note_on_c, 9, 51, 87
16, 76574, Note_on_c, 9, 36, 0
16, 76576, Note_on_c, 9, 51, 0
16, 76685, Note_on_c, 9, 51, 92
16, 76699, Note_on_c, 9, 51, 0
16, 76740, Note_on_c, 9, 36, 54
16, 76754, Note_on_c, 9, 36, 0
16, 76800, Note_on_c, 9, 40, 127
16, 76808, Note_on_c, 9, 51, 100
16, 76814, Note_on_c, 9, 40, 0
16, 76822, Note_on_c, 9, 51, 0
16, 76922, Note_on_c, 9, 51, 84
16, 76936, Note_on_c, 9, 51, 0
16, 77047, Note_on_c, 9, 51, 87
16, 77061, Note_on_c, 9, 51, 0
16, 77100, Note_on_c, 9, 36, 87
16, 77114, Note_on_c, 9, 36, 0
16, 77160, Note_on_c, 9, 40, 127
16, 77170, Note_on_c, 9, 51, 85
16, 77174, Note_on_c, 9, 40, 0
16, 77184, Note_on_c, 9, 51, 0
16, 77220, Note_on_c, 9, 36, 36
16, 77234, Note_on_c, 9, 36, 0
16, 77280, Note_on_c, 9, 36, 70
16, 77293, Note_on_c, 9, 51, 82
16, 77294, Note_on_c, 9, 36, 0
16, 77307, Note_on_c, 9, 51, 0
16, 77407, Note_on_c, 9, 51, 97
16, 77421, Note_on_c, 9, 51, 0
16, 77520, Note_on_c, 9, 40, 127
16, 77532, Note_on_c, 9, 51, 94
16, 77534, Note_on_c, 9, 40, 0
16, 77546, Note_on_c, 9, 51, 0
16, 77640, Note_on_c, 9, 36, 56
16, 77653, Note_on_c, 9, 51, 106
16, 77654, Note_on_c, 9, 36, 0
16, 77667, Note_on_c, 9, 51, 0
16, 77800, Note_on_c, 9, 47, 32
16, 77814, Note_on_c, 9, 47, 0
16, 77821, Note_on_c, 9, 47, 43
16, 77835, Note_on_c, 9, 47, 0
16, 77859, Note_on_c, 9, 47, 49
16, 77873, Note_on_c, 9, 47, 0
16, 77878, Note_on_c, 9, 47, 53
16, 77892, Note_on_c, 9, 47, 0
16, 77896, Note_on_c, 9, 47, 66
16, 77910, Note_on_c, 9, 47, 0
16, 77915, Note_on_c, 9, 47, 84
16, 77929, Note_on_c, 9, 47, 0
16, 77933, Note_on_c, 9, 47, 84
16, 77947, Note_on_c, 9, 47, 0
16, 77952, Note_on_c, 9, 47, 92
16, 77966, Note_on_c, 9, 47, 0
16, 77967, Note_on_c, 9, 47, 118
16, 77981, Note_on_c, 9, 47, 0
16, 77988, Note_on_c, 9, 47, 127
16, 78000, Note_on_c, 9, 49, 94
16, 78000, Note_on_c, 9, 36, 94
16, 78002, Note_on_c, 9, 47, 0
16, 78014, Note_on_c, 9, 49, 0
16, 78014, Note_on_c, 9, 36, 0
16, 78130, Note_on_c, 9, 51, 62
16, 78144, Note_on_c, 9, 51, 0
16, 78240, Note_on_c, 9, 40, 118
16, 78246, Note_on_c, 9, 51, 73
16, 78254, Note_on_c, 9, 40, 0
16, 78260, Note_on_c, 9, 51, 0
16, 78360, Note_on_c, 9, 36, 64
16, 78372, Note_on_c, 9, 51, 78
16, 78374, Note_on_c, 9, 36, 0
16, 78386, Note_on_c, 9, 51, 0
16, 78488, Note_on_c, 9, 51, 76
16, 78502, Note_on_c, 9, 51, 0
16, 78540, Note_on_c, 9, 36, 64
16, 78554, Note_on_c, 9, 36, 0
16, 78600, Note_on_c, 9, 40, 110
16, 78608, Note_on_c, 9, 51, 82
16, 78614, Note_on_c, 9, 40, 0
16, 78622, Note_on_c, 9, 51, 0
16, 78660, Note_on_c, 9, 36, 110
16, 78674, Note_on_c, 9, 36, 0
16, 78720, Note_on_c, 9, 36, 72
16, 78731, Note_on_c, 9, 51, 80
16, 78734, Note_on_c, 9, 36, 0
16, 78745, Note_on_c, 9, 51, 0
16, 78840, Note_on_c, 9, 36, 60
16, 78845, Note_on_c, 9, 51, 87
16, 78854, Note_on_c, 9, 36, 0
16, 78859, Note_on_c, 9, 51, 0
16, 78960, Note_on_c, 9, 40, 127
16, 78970, Note_on_c, 9, 51, 85
16, 78974, Note_on_c, 9, 40, 0
16, 78984, Note_on_c, 9, 51, 0
16, 79084, Note_on_c, 9, 51, 84
16, 79098, Note_on_c, 9, 51, 0
16, 79146, Note_on_c, 9, 36, 69
16, 79160, Note_on_c, 9, 36, 0
16, 79204, Note_on_c, 9, 36, 78
16, 79218, Note_on_c, 9, 36, 0
16, 79254, Note_on_c, 9, 40, 100
16, 79268, Note_on_c, 9, 40, 0
16, 79316, Note_on_c, 9, 45, 127
16, 79330, Note_on_c, 9, 45, 0
16, 79376, Note_on_c, 9, 43, 106
16, 79390, Note_on_c, 9, 43, 0
16, 79440, Note_on_c, 9, 36, 118
16, 79447, Note_on_c, 9, 48, 103
16, 79454, Note_on_c, 9, 36, 0
16, 79461, Note_on_c, 9, 48, 0
16, 79558, Note_on_c, 9, 51, 54
16, 79560, Note_on_c, 9, 36, 69
16, 79572, Note_on_c, 9, 51, 0
16, 79574, Note_on_c, 9, 36, 0
16, 79680, Note_on_c, 9, 40, 127
16, 79682, Note_on_c, 9, 51, 46
16, 79694, Note_on_c, 9, 40, 0
16, 79696, Note_on_c, 9, 51, 0
16, 79800, Note_on_c, 9, 36, 69
16, 79805, Note_on_c, 9, 51, 66
16, 79814, Note_on_c, 9, 36, 0
16, 79819, Note_on_c, 9, 51, 0
16, 79923, Note_on_c, 9, 51, 61
16, 79937, Note_on_c, 9, 51, 0
16, 79980, Note_on_c, 9, 36, 61
16, 79994, Note_on_c, 9, 36, 0
16, 80040, Note_on_c, 9, 40, 127
16, 80047, Note_on_c, 9, 51, 61
16, 80054, Note_on_c, 9, 40, 0
16, 80061, Note_on_c, 9, 51, 0
16, 80160, Note_on_c, 9, 36, 62
16, 80167, Note_on_c, 9, 51, 70
16, 80174, Note_on_c, 9, 36, 0
16, 80181, Note_on_c, 9, 51, 0
16, 80285, Note_on_c, 9, 51, 57
16, 80299, Note_on_c, 9, 51, 0
16, 80400, Note_on_c, 9, 40, 118
16, 80404, Note_on_c, 9, 51, 57
16, 80414, Note_on_c, 9, 40, 0
16, 80418, Note_on_c, 9, 51, 0
16, 80520, Note_on_c, 9, 36, 37
16, 80523, Note_on_c, 9, 51, 63
16, 80534, Note_on_c, 9, 36, 0
16, 80537, Note_on_c, 9, 51, 0
16, 80646, Note_on_c, 9, 51, 64
16, 80660, Note_on_c, 9, 51, 0
16, 80700, Note_on_c, 9, 36, 64
16, 80714, Note_on_c, 9, 36, 0
16, 80760, Note_on_c, 9, 40, 94
16, 80769, Note_on_c, 9, 51, 70
16, 80774, Note_on_c, 9, 40, 0
16, 80783, Note_on_c, 9, 51, 0
16, 80820, Note_on_c, 9, 36, 38
16, 80834, Note_on_c, 9, 36, 0
16, 80880, Note_on_c, 9, 36, 55
16, 80883, Note_on_c, 9, 57, 100
16, 80894, Note_on_c, 9, 36, 0
16, 80897, Note_on_c, 9, 57, 0
16, 81000, Note_on_c, 9, 51, 72
16, 81014, Note_on_c, 9, 51, 0
16, 81120, Note_on_c, 9, 40, 100
16, 81131, Note_on_c, 9, 51, 62
16, 81134, Note_on_c, 9, 40, 0
16, 81145, Note_on_c, 9, 51, 0
16, 81240, Note_on_c, 9, 36, 61
16, 81253, Note_on_c, 9, 51, 84
16, 81254, Note_on_c, 9, 36, 0
16, 81267, Note_on_c, 9, 51, 0
16, 81365, Note_on_c, 9, 51, 72
16, 81379, Note_on_c, 9, 51, 0
16, 81420, Note_on_c, 9, 36, 44
16, 81434, Note_on_c, 9, 36, 0
16, 81476, Note_on_c, 9, 51, 82
16, 81480, Note_on_c, 9, 40, 103
16, 81490, Note_on_c, 9, 51, 0
16, 81494, Note_on_c, 9, 40, 0
16, 81540, Note_on_c, 9, 36, 38
16, 81554, Note_on_c, 9, 36, 0
16, 81593, Note_on_c, 9, 51, 63
16, 81600, Note_on_c, 9, 36, 52
16, 81607, Note_on_c, 9, 51, 0
16, 81614, Note_on_c, 9, 36, 0
16, 81720, Note_on_c, 9, 51, 56
16, 81734, Note_on_c, 9, 51, 0
16, 81840, Note_on_c, 9, 40, 106
16, 81845, Note_on_c, 9, 51, 84
16, 81854, Note_on_c, 9, 40, 0
16, 81859, Note_on_c, 9, 51, 0
16, 81960, Note_on_c, 9, 36, 64
16, 81971, Note_on_c, 9, 51, 68
16, 81974, Note_on_c, 9, 36, 0
16, 81985, Note_on_c, 9, 51, 0
16, 82091, Note_on_c, 9, 51, 73
16, 82105, Note_on_c, 9, 51, 0
16, 82140, Note_on_c, 9, 36, 66
16, 82154, Note_on_c, 9, 36, 0
16, 82200, Note_on_c, 9, 40, 90
16, 82202, Note_on_c, 9, 51, 64
16, 82214, Note_on_c, 9, 40, 0
16, 82216, Note_on_c, 9, 51, 0
16, 82320, Note_on_c, 9, 36, 56
16, 82322, Note_on_c, 9, 51, 56
16, 82334, Note_on_c, 9, 36, 0
16, 82336, Note_on_c, 9, 51, 0
16, 82515, Note_on_c, 9, 51, 76
16, 82529, Note_on_c, 9, 51, 0
16, 82560, Note_on_c, 9, 40, 100
16, 82570, Note_on_c, 9, 51, 47
16, 82574, Note_on_c, 9, 40, 0
16, 82584, Note_on_c, 9, 51, 0
16, 82680, Note_on_c, 9, 36, 58
16, 82683, Note_on_c, 9, 51, 58
16, 82694, Note_on_c, 9, 36, 0
16, 82697, Note_on_c, 9, 51, 0
16, 82747, Note_on_c, 9, 51, 46
16, 82761, Note_on_c, 9, 51, 0
16, 82809, Note_on_c, 9, 51, 61
16, 82823, Note_on_c, 9, 51, 0
16, 82860, Note_on_c, 9, 36, 50
16, 82871, Note_on_c, 9, 51, 46
16, 82874, Note_on_c, 9, 36, 0
16, 82885, Note_on_c, 9, 51, 0
16, 82920, Note_on_c, 9, 40, 92
16, 82932, Note_on_c, 9, 51, 50
16, 82934, Note_on_c, 9, 40, 0
16, 82946, Note_on_c, 9, 51, 0
16, 82992, Note_on_c, 9, 51, 53
16, 83006, Note_on_c, 9, 51, 0
16, 83040, Note_on_c, 9, 36, 77
16, 83043, Note_on_c, 9, 49, 97
16, 83054, Note_on_c, 9, 36, 0
16, 83057, Note_on_c, 9, 49, 0
16, 83173, Note_on_c, 9, 51, 90
16, 83187, Note_on_c, 9, 51, 0
16, 83280, Note_on_c, 9, 40, 113
16, 83283, Note_on_c, 9, 51, 74
16, 83294, Note_on_c, 9, 40, 0
16, 83297, Note_on_c, 9, 51, 0
16, 83400, Note_on_c, 9, 36, 61
16, 83404, Note_on_c, 9, 51, 62
16, 83414, Note_on_c, 9, 36, 0
16, 83418, Note_on_c, 9, 51, 0
16, 83526, Note_on_c, 9, 51, 87
16, 83540, Note_on_c, 9, 51, 0
16, 83580, Note_on_c, 9, 36, 44
16, 83594, Note_on_c, 9, 36, 0
16, 83640, Note_on_c, 9, 40, 94
16, 83653, Note_on_c, 9, 51, 77
16, 83654, Note_on_c, 9, 40, 0
16, 83667, Note_on_c, 9, 51, 0
16, 83760, Note_on_c, 9, 36, 51
16, 83767, Note_on_c, 9, 51, 87
16, 83774, Note_on_c, 9, 36, 0
16, 83781, Note_on_c, 9, 51, 0
16, 83892, Note_on_c, 9, 51, 90
16, 83906, Note_on_c, 9, 51, 0
16, 84000, Note_on_c, 9, 40, 87
16, 84008, Note_on_c, 9, 51, 82
16, 84014, Note_on_c, 9, 40, 0
16, 84022, Note_on_c, 9, 51, 0
16, 84120, Note_on_c, 9, 36, 55
16, 84128, Note_on_c, 9, 51, 80
16, 84134, Note_on_c, 9, 36, 0
16, 84142, Note_on_c, 9, 51, 0
16, 84189, Note_on_c, 9, 51, 61
16, 84203, Note_on_c, 9, 51, 0
16, 84254, Note_on_c, 9, 51, 78
16, 84268, Note_on_c, 9, 51, 0
16, 84300, Note_on_c, 9, 36, 36
16, 84314, Note_on_c, 9, 36, 0
16, 84360, Note_on_c, 9, 40, 97
16, 84368, Note_on_c, 9, 51, 97
16, 84374, Note_on_c, 9, 40, 0
16, 84382, Note_on_c, 9, 51, 0
16, 84420, Note_on_c, 9, 36, 36
16, 84434, Note_on_c, 9, 36, 0
16, 84480, Note_on_c, 9, 36, 53
16, 84485, Note_on_c, 9, 51, 90
16, 84494, Note_on_c, 9, 36, 0
16, 84499, Note_on_c, 9, 51, 0
16, 84598, Note_on_c, 9, 51, 90
16, 84612, Note_on_c, 9, 51, 0
16, 84720, Note_on_c, 9, 40, 92
16, 84723, Note_on_c, 9, 51, 80
16, 84734, Note_on_c, 9, 40, 0
16, 84737, Note_on_c, 9, 51, 0
16, 84840, Note_on_c, 9, 36, 55
16, 84847, Note_on_c, 9, 51, 80
16, 84854, Note_on_c, 9, 36, 0
16, 84861, Note_on_c, 9, 51, 0
16, 84957, Note_on_c, 9, 51, 92
16, 84971, Note_on_c, 9, 51, 0
16, 85020, Note_on_c, 9, 36, 46
16, 85034, Note_on_c, 9, 36, 0
16, 85077, Note_on_c, 9, 51, 94
16, 85080, Note_on_c, 9, 40, 80
16, 85091, Note_on_c, 9, 51, 0
16, 85094, Note_on_c, 9, 40, 0
16, 85200, Note_on_c, 9, 40, 97
16, 85203, Note_on_c, 9, 51, 106
16, 85214, Note_on_c, 9, 40, 0
16, 85217, Note_on_c, 9, 51, 0
16, 85320, Note_on_c, 9, 36, 47
16, 85320, Note_on_c, 9, 51, 61
16, 85334, Note_on_c, 9, 36, 0
16, 85334, Note_on_c, 9, 51, 0
16, 85380, Note_on_c, 9, 36, 46
16, 85394, Note_on_c, 9, 36, 0
16, 85440, Note_on_c, 9, 36, 78
16, 85440, Note_on_c, 9, 40, 106
16, 85444, Note_on_c, 9, 51, 106
16, 85454, Note_on_c, 9, 36, 0
16, 85454, Note_on_c, 9, 40, 0
16, 85458, Note_on_c, 9, 51, 0
16, 85560, Note_on_c, 9, 36, 41
16, 85572, Note_on_c, 9, 51, 53
16, 85574, Note_on_c, 9, 36, 0
16, 85586, Note_on_c, 9, 51, 0
16, 85680, Note_on_c, 9, 40, 100
16, 85680, Note_on_c, 9, 36, 58
16, 85691, Note_on_c, 9, 51, 106
16, 85694, Note_on_c, 9, 40, 0
16, 85694, Note_on_c, 9, 36, 0
16, 85705, Note_on_c, 9, 51, 0
16, 85800, Note_on_c, 9, 36, 45
16, 85814, Note_on_c, 9, 36, 0
16, 85815, Note_on_c, 9, 51, 127
16, 85829, Note_on_c, 9, 51, 0
16, 85920, Note_on_c, 9, 36, 92
16, 85921, Note_on_c, 9, 49, 127
16, 85934, Note_on_c, 9, 36, 0
16, 85935, Note_on_c, 9, 49, 0
16, 86100, Note_on_c, 9, 40, 127
16, 86114, Note_on_c, 9, 40, 0
16, 86160, Note_on_c, 9, 40, 127
16, 86174, Note_on_c, 9, 40, 0
16, 86276, Note_on_c, 9, 57, 110
16, 86280, Note_on_c, 9, 36, 87
16, 86290, Note_on_c, 9, 57, 0
16, 86294, Note_on_c, 9, 36, 0
16, 86460, Note_on_c, 9, 40, 46
16, 86474, Note_on_c, 9, 40, 0
16, 86520, Note_on_c, 9, 40, 73
16, 86534, Note_on_c, 9, 40, 0
16, 86580, Note_on_c, 9, 40, 127
16, 86594, Note_on_c, 9, 40, 0
16, 86640, Note_on_c, 9, 40, 127
16, 86640, Note_on_c, 9, 49, 118
16, 86640, Note_on_c, 9, 36, 80
16, 86654, Note_on_c, 9, 40, 0
16, 86654, Note_on_c, 9, 49, 0
16, 86654, Note_on_c, 9, 36, 0
16, 86700, Note_on_c, 9, 40, 127
16, 86714, Note_on_c, 9, 40, 0
16, 86940, Note_on_c, 9, 40, 97
16, 86954, Note_on_c, 9, 40, 0
16, 87000, Note_on_c, 9, 40, 127
16, 87000, Note_on_c, 9, 57, 103
16, 87000, Note_on_c, 9, 36, 77
16, 87000, Note_on_c, 9, 40, 113
16, 87014, Note_on_c, 9, 40, 0
16, 87014, Note_on_c, 9, 57, 0
16, 87014, Note_on_c, 9, 36, 0
16, 87014, Note_on_c, 9, 40, 0
16, 87060, Note_on_c, 9, 40, 127
16, 87074, Note_on_c, 9, 40, 0
16, 87120, Note_on_c, 9, 40, 127
16, 87134, Note_on_c, 9, 40, 0
16, 87194, Note_on_c, 9, 49, 122
16, 87197, Note_on_c, 9, 36, 74
16, 87208, Note_on_c, 9, 49, 0
16, 87211, Note_on_c, 9, 36, 0
16, 87271, Note_on_c, 9, 55, 127
16, 87275, Note_on_c, 9, 36, 87
16, 87285, Note_on_c, 9, 55, 0
16, 87289, Note_on_c, 9, 36, 0
16, 87355, Note_on_c, 9, 49, 127
16, 87357, Note_on_c, 9, 36, 85
16, 87369, Note_on_c, 9, 49, 0
16, 87371, Note_on_c, 9, 36, 0
16, 87540, Note_on_c, 9, 40, 122
16, 87554, Note_on_c, 9, 40, 0
16, 87600, Note_on_c, 9, 40, 127
16, 87614, Note_on_c, 9, 40, 0
16, 87678, Note_on_c, 9, 36, 84
16, 87678, Note_on_c, 9, 57, 110
16, 87692, Note_on_c, 9, 36, 0
16, 87692, Note_on_c, 9, 57, 0
16, 87761, Note_on_c, 9, 49, 127
16, 87762, Note_on_c, 9, 36, 92
16, 87775, Note_on_c, 9, 49, 0
16, 87776, Note_on_c, 9, 36, 0
16, 87839, Note_on_c, 9, 57, 127
16, 87842, Note_on_c, 9, 36, 92
16, 87853, Note_on_c, 9, 57, 0
16, 87856, Note_on_c, 9, 36, 0
16, 88080, Note_on_c, 9, 36, 97
16, 88081, Note_on_c, 9, 49, 127
16, 88094, Note_on_c, 9, 36, 0
16, 88095, Note_on_c, 9, 49, 0
16, 90600, Control_c, 9, 121, 0
16, 90600, End_track
17, 0, Start_track
17, 0, Title_t, "sucking sound"
17, 0, MIDI_port, 0
17, 88, Program_c, 15, 119
17, 89, Control_c, 15, 7, 100
17, 90, Control_c, 15, 10, 64
17, 91, Control_c, 15, 91, 39
17, 40678, Note_on_c, 15, 67, 127
17, 41043, Note_on_c, 15, 67, 0
17, 41043, End_track
0, 0, End_of_file
