0, 0, Header, 0, 1, 240
1, 0, Start_track
1, 0, Time_signature, 4, 2, 24, 8
1, 0, Tempo, 1000000
1, 0, SMPTE_offset, 64, 0, 0, 0, 0
1, 0, Control_c, 0, 0, 0
1, 0, Control_c, 0, 32, 0
1, 0, Program_c, 0, 73
1, 0, Control_c, 1, 0, 0
1, 0, Control_c, 1, 32, 0
1, 0, Program_c, 1, 68
1, 0, Control_c, 2, 0, 0
1, 0, Control_c, 2, 32, 0
1, 0, Program_c, 2, 71
1, 0, Control_c, 3, 0, 0
1, 0, Control_c, 3, 32, 0
1, 0, Program_c, 3, 70
1, 0, Control_c, 4, 0, 0
1, 0, Control_c, 4, 32, 0
1, 0, Program_c, 4, 60
1, 0, Control_c, 5, 0, 0
1, 0, Control_c, 5, 32, 0
1, 0, Program_c, 5, 61
1, 0, Control_c, 6, 0, 0
1, 0, Control_c, 6, 32, 0
1, 0, Program_c, 6, 47
1, 0, Control_c, 7, 0, 0
1, 0, Control_c, 7, 32, 0
1, 0, Program_c, 7, 46
1, 0, Control_c, 9, 0, 0
1, 0, Control_c, 9, 32, 0
1, 0, Program_c, 9, 0
1, 0, Control_c, 8, 0, 0
1, 0, Control_c, 8, 32, 0
1, 0, Program_c, 8, 49
1, 0, Control_c, 0, 7, 80
1, 0, Control_c, 0, 11, 100
1, 0, Control_c, 0, 92, 127
1, 0, Control_c, 1, 7, 80
1, 0, Control_c, 1, 11, 50
1, 0, Control_c, 1, 92, 127
1, 0, Control_c, 2, 7, 72
1, 0, Control_c, 2, 11, 50
1, 0, Control_c, 2, 68, 127
1, 0, Control_c, 2, 92, 127
1, 0, Control_c, 2, 1, 10
1, 0, Control_c, 3, 7, 77
1, 0, Control_c, 3, 11, 100
1, 0, Control_c, 3, 92, 127
1, 0, Control_c, 3, 1, 7
1, 0, Control_c, 3, 68, 127
1, 0, Control_c, 4, 7, 100
1, 0, Control_c, 4, 11, 50
1, 0, Control_c, 4, 92, 127
1, 0, Control_c, 4, 68, 127
1, 0, Control_c, 5, 7, 110
1, 0, Control_c, 5, 11, 100
1, 0, Control_c, 6, 7, 110
1, 0, Control_c, 6, 11, 110
1, 0, Control_c, 6, 92, 127
1, 0, Control_c, 7, 7, 100
1, 0, Control_c, 7, 11, 100
1, 0, Control_c, 7, 68, 127
1, 0, Control_c, 9, 7, 110
1, 0, Control_c, 9, 11, 110
1, 0, Control_c, 9, 92, 127
1, 0, Control_c, 8, 7, 100
1, 0, Control_c, 8, 11, 100
1, 0, Control_c, 8, 68, 127
1, 135, Control_c, 1, 1, 15
1, 240, Control_c, 5, 68, 127
1, 240, Control_c, 5, 0, 0
1, 240, Control_c, 5, 32, 0
1, 240, Program_c, 5, 50
1, 240, Control_c, 7, 11, 36
1, 240, Control_c, 7, 0, 0
1, 240, Control_c, 7, 32, 0
1, 240, Program_c, 7, 49
1, 240, Control_c, 8, 0, 0
1, 240, Control_c, 8, 32, 0
1, 240, Program_c, 8, 44
1, 330, Control_c, 8, 11, 40
1, 358, Control_c, 8, 0, 0
1, 358, Control_c, 8, 32, 0
1, 358, Program_c, 8, 49
1, 358, Note_on_c, 8, 30, 1
1, 359, Note_on_c, 8, 30, 0
1, 360, Note_on_c, 2, 69, 1
1, 360, Note_on_c, 2, 69, 0
1, 360, Note_on_c, 3, 49, 1
1, 360, Note_on_c, 3, 49, 0
1, 360, Control_c, 4, 11, 30
1, 360, Control_c, 5, 11, 30
1, 360, Control_c, 7, 0, 0
1, 360, Control_c, 7, 32, 0
1, 360, Program_c, 7, 46
1, 360, Control_c, 7, 0, 0
1, 360, Control_c, 7, 32, 0
1, 360, Program_c, 7, 49
1, 360, Note_on_c, 7, 83, 100
1, 360, Note_on_c, 7, 71, 100
1, 360, Note_on_c, 7, 75, 100
1, 360, Note_on_c, 7, 66, 100
1, 360, Note_on_c, 7, 78, 100
1, 360, Note_on_c, 8, 71, 100
1, 360, Note_on_c, 8, 75, 100
1, 360, Note_on_c, 8, 66, 100
1, 360, Note_on_c, 8, 54, 100
1, 364, Note_on_c, 4, 66, 100
1, 364, Note_on_c, 5, 66, 100
1, 377, Control_c, 4, 11, 33
1, 377, Control_c, 5, 11, 33
1, 398, Control_c, 4, 11, 36
1, 398, Control_c, 5, 11, 36
1, 414, Note_on_c, 7, 83, 0
1, 414, Note_on_c, 7, 71, 0
1, 414, Note_on_c, 7, 75, 0
1, 414, Note_on_c, 7, 66, 0
1, 414, Note_on_c, 7, 78, 0
1, 418, Control_c, 4, 11, 39
1, 418, Control_c, 5, 11, 39
1, 438, Control_c, 4, 11, 42
1, 438, Control_c, 5, 11, 42
1, 459, Control_c, 4, 11, 45
1, 459, Control_c, 5, 11, 45
1, 479, Control_c, 4, 11, 48
1, 479, Control_c, 5, 11, 48
1, 500, Control_c, 4, 11, 52
1, 500, Control_c, 5, 11, 52
1, 524, Control_c, 4, 11, 55
1, 524, Control_c, 5, 11, 55
1, 1014, Note_on_c, 4, 66, 0
1, 1014, Note_on_c, 5, 66, 0
1, 1014, Note_on_c, 4, 64, 100
1, 1014, Note_on_c, 5, 64, 100
1, 1014, Control_c, 7, 11, 100
1, 1342, Note_on_c, 4, 64, 0
1, 1342, Note_on_c, 5, 64, 0
1, 1342, Note_on_c, 4, 63, 100
1, 1342, Note_on_c, 5, 63, 100
1, 1506, Note_on_c, 4, 66, 100
1, 1506, Note_on_c, 5, 66, 100
1, 1509, Note_on_c, 4, 63, 0
1, 1509, Note_on_c, 5, 63, 0
1, 1669, Note_on_c, 4, 61, 100
1, 1669, Note_on_c, 5, 61, 100
1, 1672, Note_on_c, 4, 66, 0
1, 1672, Note_on_c, 5, 66, 0
1, 1996, Note_on_c, 4, 61, 0
1, 1996, Note_on_c, 5, 61, 0
1, 1996, Note_on_c, 4, 59, 100
1, 1996, Note_on_c, 5, 59, 100
1, 2310, Note_on_c, 4, 59, 0
1, 2310, Note_on_c, 5, 59, 0
1, 2324, Note_on_c, 8, 71, 0
1, 2324, Note_on_c, 8, 75, 0
1, 2324, Control_c, 4, 11, 30
1, 2324, Control_c, 5, 11, 30
1, 2324, Note_on_c, 8, 71, 100
1, 2324, Note_on_c, 8, 76, 100
1, 2324, Note_on_c, 8, 68, 100
1, 2327, Note_on_c, 4, 64, 100
1, 2327, Note_on_c, 5, 64, 100
1, 2341, Control_c, 4, 11, 33
1, 2341, Control_c, 5, 11, 33
1, 2361, Control_c, 4, 11, 36
1, 2361, Control_c, 5, 11, 36
1, 2382, Control_c, 4, 11, 39
1, 2382, Control_c, 5, 11, 39
1, 2402, Control_c, 4, 11, 42
1, 2402, Control_c, 5, 11, 42
1, 2422, Control_c, 4, 11, 45
1, 2422, Control_c, 5, 11, 45
1, 2443, Control_c, 4, 11, 48
1, 2443, Control_c, 5, 11, 48
1, 2464, Control_c, 4, 11, 52
1, 2464, Control_c, 5, 11, 52
1, 2487, Control_c, 4, 11, 55
1, 2487, Control_c, 5, 11, 55
1, 2814, Note_on_c, 4, 63, 100
1, 2814, Note_on_c, 5, 63, 100
1, 2818, Note_on_c, 4, 64, 0
1, 2818, Note_on_c, 5, 64, 0
1, 2978, Note_on_c, 4, 61, 100
1, 2978, Note_on_c, 5, 61, 100
1, 2982, Note_on_c, 4, 63, 0
1, 2982, Note_on_c, 5, 63, 0
1, 3142, Note_on_c, 4, 64, 100
1, 3142, Note_on_c, 5, 64, 100
1, 3145, Note_on_c, 4, 61, 0
1, 3145, Note_on_c, 5, 61, 0
1, 3306, Note_on_c, 4, 64, 0
1, 3306, Note_on_c, 5, 64, 0
1, 3306, Note_on_c, 4, 63, 100
1, 3306, Note_on_c, 5, 63, 100
1, 3469, Note_on_c, 4, 59, 100
1, 3469, Note_on_c, 5, 59, 100
1, 3472, Note_on_c, 4, 63, 0
1, 3472, Note_on_c, 5, 63, 0
1, 3633, Note_on_c, 4, 61, 100
1, 3633, Note_on_c, 5, 61, 100
1, 3636, Note_on_c, 4, 59, 0
1, 3636, Note_on_c, 5, 59, 0
1, 3976, Note_on_c, 4, 61, 0
1, 3976, Note_on_c, 5, 61, 0
1, 3976, Note_on_c, 4, 61, 100
1, 3976, Note_on_c, 5, 61, 100
1, 4283, Note_on_c, 4, 61, 0
1, 4283, Note_on_c, 5, 61, 0
1, 4332, Control_c, 4, 11, 30
1, 4332, Control_c, 5, 11, 30
1, 4336, Note_on_c, 8, 71, 0
1, 4336, Note_on_c, 8, 76, 0
1, 4336, Note_on_c, 8, 68, 0
1, 4336, Note_on_c, 4, 66, 100
1, 4336, Note_on_c, 5, 66, 100
1, 4336, Note_on_c, 8, 71, 100
1, 4336, Note_on_c, 8, 75, 100
1, 4353, Control_c, 4, 11, 33
1, 4353, Control_c, 5, 11, 33
1, 4373, Control_c, 4, 11, 36
1, 4373, Control_c, 5, 11, 36
1, 4394, Control_c, 4, 11, 39
1, 4394, Control_c, 5, 11, 39
1, 4414, Control_c, 4, 11, 42
1, 4414, Control_c, 5, 11, 42
1, 4434, Control_c, 4, 11, 45
1, 4434, Control_c, 5, 11, 45
1, 4455, Control_c, 4, 11, 48
1, 4455, Control_c, 5, 11, 48
1, 4475, Control_c, 4, 11, 52
1, 4475, Control_c, 5, 11, 52
1, 4499, Control_c, 4, 11, 55
1, 4499, Control_c, 5, 11, 55
1, 4653, Note_on_c, 4, 66, 0
1, 4653, Note_on_c, 5, 66, 0
1, 4663, Control_c, 4, 11, 30
1, 4663, Note_on_c, 4, 66, 100
1, 4663, Control_c, 5, 11, 30
1, 4663, Note_on_c, 5, 66, 100
1, 4683, Control_c, 4, 11, 33
1, 4683, Control_c, 5, 11, 33
1, 4704, Control_c, 4, 11, 36
1, 4704, Control_c, 5, 11, 36
1, 4724, Control_c, 4, 11, 39
1, 4724, Control_c, 5, 11, 39
1, 4745, Control_c, 4, 11, 42
1, 4745, Control_c, 5, 11, 42
1, 4765, Control_c, 4, 11, 45
1, 4765, Control_c, 5, 11, 45
1, 4786, Control_c, 4, 11, 48
1, 4786, Control_c, 5, 11, 48
1, 4806, Control_c, 4, 11, 52
1, 4806, Control_c, 5, 11, 52
1, 4830, Control_c, 4, 11, 55
1, 4830, Control_c, 5, 11, 55
1, 4990, Note_on_c, 4, 66, 0
1, 4990, Note_on_c, 5, 66, 0
1, 4990, Note_on_c, 4, 64, 100
1, 4990, Note_on_c, 5, 64, 100
1, 5318, Note_on_c, 4, 64, 0
1, 5318, Note_on_c, 5, 64, 0
1, 5318, Note_on_c, 4, 63, 100
1, 5318, Note_on_c, 5, 63, 100
1, 5481, Control_c, 4, 11, 40
1, 5481, Note_on_c, 4, 66, 100
1, 5481, Control_c, 5, 11, 40
1, 5481, Note_on_c, 5, 66, 100
1, 5484, Note_on_c, 4, 63, 0
1, 5484, Note_on_c, 5, 63, 0
1, 5491, Control_c, 4, 11, 42
1, 5491, Control_c, 5, 11, 42
1, 5505, Control_c, 4, 11, 44
1, 5505, Control_c, 5, 11, 44
1, 5518, Control_c, 4, 11, 46
1, 5518, Control_c, 5, 11, 46
1, 5532, Control_c, 4, 11, 48
1, 5532, Control_c, 5, 11, 48
1, 5546, Control_c, 4, 11, 50
1, 5546, Control_c, 5, 11, 50
1, 5560, Control_c, 4, 11, 52
1, 5560, Control_c, 5, 11, 52
1, 5573, Control_c, 4, 11, 55
1, 5573, Control_c, 5, 11, 55
1, 5645, Note_on_c, 4, 61, 100
1, 5645, Note_on_c, 5, 61, 100
1, 5648, Note_on_c, 4, 66, 0
1, 5648, Note_on_c, 5, 66, 0
1, 5972, Note_on_c, 4, 61, 0
1, 5972, Note_on_c, 5, 61, 0
1, 5972, Note_on_c, 4, 59, 100
1, 5972, Note_on_c, 5, 59, 100
1, 6272, Note_on_c, 4, 59, 0
1, 6272, Note_on_c, 5, 59, 0
1, 6296, Control_c, 4, 11, 30
1, 6296, Control_c, 5, 11, 30
1, 6299, Note_on_c, 8, 71, 0
1, 6299, Note_on_c, 8, 75, 0
1, 6299, Note_on_c, 4, 64, 100
1, 6299, Note_on_c, 5, 64, 100
1, 6299, Note_on_c, 8, 69, 100
1, 6299, Note_on_c, 8, 73, 100
1, 6316, Control_c, 4, 11, 33
1, 6316, Control_c, 5, 11, 33
1, 6337, Control_c, 4, 11, 36
1, 6337, Control_c, 5, 11, 36
1, 6357, Control_c, 4, 11, 39
1, 6357, Control_c, 5, 11, 39
1, 6378, Control_c, 4, 11, 42
1, 6378, Control_c, 5, 11, 42
1, 6398, Control_c, 4, 11, 45
1, 6398, Control_c, 5, 11, 45
1, 6418, Control_c, 4, 11, 48
1, 6418, Control_c, 5, 11, 48
1, 6439, Control_c, 4, 11, 52
1, 6439, Control_c, 5, 11, 52
1, 6463, Control_c, 4, 11, 55
1, 6463, Control_c, 5, 11, 55
1, 6783, Note_on_c, 4, 64, 0
1, 6783, Note_on_c, 5, 64, 0
1, 6790, Control_c, 4, 11, 40
1, 6790, Note_on_c, 4, 63, 100
1, 6790, Control_c, 5, 11, 40
1, 6790, Note_on_c, 5, 63, 100
1, 6800, Control_c, 4, 11, 42
1, 6800, Control_c, 5, 11, 42
1, 6814, Control_c, 4, 11, 44
1, 6814, Control_c, 5, 11, 44
1, 6828, Control_c, 4, 11, 46
1, 6828, Control_c, 5, 11, 46
1, 6841, Control_c, 4, 11, 48
1, 6841, Control_c, 5, 11, 48
1, 6855, Control_c, 4, 11, 50
1, 6855, Control_c, 5, 11, 50
1, 6868, Control_c, 4, 11, 52
1, 6868, Control_c, 5, 11, 52
1, 6882, Control_c, 4, 11, 55
1, 6882, Control_c, 5, 11, 55
1, 6954, Control_c, 4, 11, 40
1, 6954, Note_on_c, 4, 61, 100
1, 6954, Control_c, 5, 11, 40
1, 6954, Note_on_c, 5, 61, 100
1, 6957, Note_on_c, 4, 63, 0
1, 6957, Note_on_c, 5, 63, 0
1, 6964, Control_c, 4, 11, 42
1, 6964, Control_c, 5, 11, 42
1, 6978, Control_c, 4, 11, 44
1, 6978, Control_c, 5, 11, 44
1, 6991, Control_c, 4, 11, 46
1, 6991, Control_c, 5, 11, 46
1, 7005, Control_c, 4, 11, 48
1, 7005, Control_c, 5, 11, 48
1, 7018, Control_c, 4, 11, 50
1, 7018, Control_c, 5, 11, 50
1, 7032, Control_c, 4, 11, 52
1, 7032, Control_c, 5, 11, 52
1, 7046, Control_c, 4, 11, 55
1, 7046, Control_c, 5, 11, 55
1, 7118, Control_c, 4, 11, 40
1, 7118, Note_on_c, 4, 64, 100
1, 7118, Control_c, 5, 11, 40
1, 7118, Note_on_c, 5, 64, 100
1, 7121, Note_on_c, 4, 61, 0
1, 7121, Note_on_c, 5, 61, 0
1, 7128, Control_c, 4, 11, 42
1, 7128, Control_c, 5, 11, 42
1, 7141, Control_c, 4, 11, 44
1, 7141, Control_c, 5, 11, 44
1, 7155, Control_c, 4, 11, 46
1, 7155, Control_c, 5, 11, 46
1, 7168, Control_c, 4, 11, 48
1, 7168, Control_c, 5, 11, 48
1, 7182, Control_c, 4, 11, 50
1, 7182, Control_c, 5, 11, 50
1, 7196, Control_c, 4, 11, 52
1, 7196, Control_c, 5, 11, 52
1, 7210, Control_c, 4, 11, 55
1, 7210, Control_c, 5, 11, 55
1, 7278, Control_c, 4, 11, 40
1, 7281, Note_on_c, 4, 64, 0
1, 7281, Note_on_c, 5, 64, 0
1, 7281, Note_on_c, 4, 63, 100
1, 7281, Control_c, 5, 11, 40
1, 7281, Note_on_c, 5, 63, 100
1, 7291, Control_c, 4, 11, 42
1, 7291, Control_c, 5, 11, 42
1, 7305, Control_c, 4, 11, 44
1, 7305, Control_c, 5, 11, 44
1, 7318, Control_c, 4, 11, 46
1, 7318, Control_c, 5, 11, 46
1, 7332, Control_c, 4, 11, 48
1, 7332, Control_c, 5, 11, 48
1, 7346, Control_c, 4, 11, 50
1, 7346, Control_c, 5, 11, 50
1, 7360, Control_c, 4, 11, 52
1, 7360, Control_c, 5, 11, 52
1, 7373, Control_c, 4, 11, 55
1, 7373, Control_c, 5, 11, 55
1, 7445, Control_c, 4, 11, 40
1, 7445, Note_on_c, 4, 59, 100
1, 7445, Control_c, 5, 11, 40
1, 7445, Note_on_c, 5, 59, 100
1, 7448, Note_on_c, 4, 63, 0
1, 7448, Note_on_c, 5, 63, 0
1, 7455, Control_c, 4, 11, 42
1, 7455, Control_c, 5, 11, 42
1, 7468, Control_c, 4, 11, 44
1, 7468, Control_c, 5, 11, 44
1, 7482, Control_c, 4, 11, 46
1, 7482, Control_c, 5, 11, 46
1, 7496, Control_c, 4, 11, 48
1, 7496, Control_c, 5, 11, 48
1, 7510, Control_c, 4, 11, 50
1, 7510, Control_c, 5, 11, 50
1, 7523, Control_c, 4, 11, 52
1, 7523, Control_c, 5, 11, 52
1, 7537, Control_c, 4, 11, 55
1, 7537, Control_c, 5, 11, 55
1, 7608, Control_c, 4, 11, 40
1, 7608, Note_on_c, 4, 61, 100
1, 7608, Control_c, 5, 11, 40
1, 7608, Note_on_c, 5, 61, 100
1, 7612, Note_on_c, 4, 59, 0
1, 7612, Note_on_c, 5, 59, 0
1, 7618, Control_c, 4, 11, 42
1, 7625, Control_c, 5, 11, 42
1, 7632, Control_c, 4, 11, 44
1, 7646, Control_c, 4, 11, 46
1, 7646, Control_c, 5, 11, 44
1, 7660, Control_c, 4, 11, 48
1, 7666, Control_c, 5, 11, 46
1, 7673, Control_c, 4, 11, 50
1, 7687, Control_c, 4, 11, 52
1, 7687, Control_c, 5, 11, 48
1, 7700, Control_c, 4, 11, 55
1, 7707, Control_c, 5, 11, 50
1, 7728, Control_c, 5, 11, 52
1, 7772, Control_c, 5, 11, 55
1, 7936, Control_c, 4, 11, 52
1, 7936, Control_c, 5, 11, 52
1, 7936, Control_c, 7, 0, 0
1, 7936, Control_c, 7, 32, 0
1, 7936, Program_c, 7, 46
1, 7936, Note_on_c, 7, 45, 50
1, 7956, Note_on_c, 7, 45, 0
1, 7956, Note_on_c, 7, 47, 50
1, 7973, Control_c, 4, 11, 49
1, 7973, Control_c, 5, 11, 49
1, 7976, Note_on_c, 7, 47, 0
1, 7976, Note_on_c, 7, 49, 50
1, 7997, Note_on_c, 7, 49, 0
1, 7997, Note_on_c, 7, 51, 50
1, 8018, Note_on_c, 7, 51, 0
1, 8018, Control_c, 4, 11, 46
1, 8018, Control_c, 5, 11, 46
1, 8018, Note_on_c, 7, 52, 50
1, 8038, Note_on_c, 7, 52, 0
1, 8038, Note_on_c, 7, 54, 50
1, 8058, Note_on_c, 7, 54, 0
1, 8058, Control_c, 4, 11, 43
1, 8058, Control_c, 5, 11, 43
1, 8058, Note_on_c, 7, 56, 50
1, 8079, Note_on_c, 7, 56, 0
1, 8079, Note_on_c, 7, 57, 50
1, 8099, Note_on_c, 7, 57, 0
1, 8099, Control_c, 4, 11, 40
1, 8099, Control_c, 5, 11, 40
1, 8099, Note_on_c, 7, 59, 50
1, 8120, Note_on_c, 7, 59, 0
1, 8120, Note_on_c, 7, 61, 50
1, 8140, Note_on_c, 7, 61, 0
1, 8140, Note_on_c, 7, 63, 50
1, 8154, Control_c, 4, 11, 37
1, 8154, Control_c, 5, 11, 37
1, 8160, Note_on_c, 7, 63, 0
1, 8160, Note_on_c, 7, 64, 50
1, 8181, Note_on_c, 7, 64, 0
1, 8181, Control_c, 4, 11, 34
1, 8181, Control_c, 5, 11, 34
1, 8181, Note_on_c, 7, 66, 50
1, 8202, Note_on_c, 7, 66, 0
1, 8222, Note_on_c, 7, 68, 50
1, 8242, Note_on_c, 7, 68, 0
1, 8242, Note_on_c, 7, 69, 50
1, 8260, Note_on_c, 5, 61, 0
1, 8263, Note_on_c, 8, 66, 0
1, 8263, Note_on_c, 8, 54, 0
1, 8263, Note_on_c, 8, 69, 0
1, 8263, Note_on_c, 8, 73, 0
1, 8263, Note_on_c, 4, 61, 0
1, 8263, Note_on_c, 7, 69, 0
1, 8263, Note_on_c, 2, 54, 50
1, 8263, Control_c, 5, 11, 45
1, 8263, Control_c, 5, 0, 0
1, 8263, Control_c, 5, 32, 0
1, 8263, Program_c, 5, 49
1, 8263, Control_c, 5, 0, 0
1, 8263, Control_c, 5, 32, 0
1, 8263, Program_c, 5, 50
1, 8263, Note_on_c, 5, 78, 105
1, 8263, Note_on_c, 7, 78, 50
1, 8263, Note_on_c, 7, 54, 50
1, 8263, Control_c, 8, 11, 45
1, 8263, Note_on_c, 8, 73, 100
1, 8263, Note_on_c, 8, 69, 100
1, 8263, Note_on_c, 8, 66, 100
1, 8263, Note_on_c, 8, 35, 100
1, 8266, Control_c, 5, 0, 0
1, 8266, Control_c, 5, 32, 0
1, 8266, Program_c, 5, 49
1, 8266, Note_on_c, 5, 78, 105
1, 8266, Note_on_c, 8, 54, 100
1, 8289, Note_on_c, 8, 73, 0
1, 8289, Note_on_c, 8, 69, 0
1, 8289, Note_on_c, 8, 69, 100
1, 8289, Note_on_c, 8, 73, 100
1, 8315, Note_on_c, 8, 66, 0
1, 8315, Note_on_c, 8, 69, 0
1, 8315, Note_on_c, 8, 73, 0
1, 8315, Note_on_c, 8, 73, 100
1, 8315, Note_on_c, 8, 69, 100
1, 8318, Note_on_c, 8, 54, 0
1, 8341, Note_on_c, 8, 73, 0
1, 8341, Note_on_c, 8, 69, 0
1, 8341, Note_on_c, 8, 69, 100
1, 8341, Note_on_c, 8, 73, 100
1, 8367, Note_on_c, 8, 69, 0
1, 8367, Note_on_c, 8, 73, 0
1, 8367, Note_on_c, 8, 73, 100
1, 8367, Note_on_c, 8, 69, 100
1, 8387, Note_on_c, 7, 78, 0
1, 8393, Note_on_c, 8, 73, 0
1, 8393, Note_on_c, 8, 69, 0
1, 8393, Note_on_c, 8, 69, 100
1, 8393, Note_on_c, 8, 73, 100
1, 8419, Note_on_c, 8, 69, 0
1, 8419, Note_on_c, 8, 73, 0
1, 8419, Note_on_c, 8, 73, 100
1, 8419, Note_on_c, 8, 69, 100
1, 8576, Note_on_c, 2, 54, 0
1, 8576, Note_on_c, 7, 54, 0
1, 8576, Note_on_c, 8, 73, 0
1, 8576, Note_on_c, 8, 69, 0
1, 8576, Note_on_c, 2, 56, 50
1, 8576, Control_c, 4, 11, 100
1, 8576, Note_on_c, 7, 56, 50
1, 8576, Note_on_c, 8, 73, 100
1, 8576, Note_on_c, 8, 69, 100
1, 8602, Note_on_c, 8, 73, 0
1, 8602, Note_on_c, 8, 69, 0
1, 8602, Note_on_c, 8, 69, 100
1, 8602, Note_on_c, 8, 73, 100
1, 8628, Note_on_c, 8, 69, 0
1, 8628, Note_on_c, 8, 73, 0
1, 8628, Note_on_c, 8, 73, 100
1, 8628, Note_on_c, 8, 69, 100
1, 8654, Note_on_c, 8, 73, 0
1, 8654, Note_on_c, 8, 69, 0
1, 8654, Note_on_c, 8, 69, 100
1, 8654, Note_on_c, 8, 73, 100
1, 8680, Note_on_c, 8, 69, 0
1, 8680, Note_on_c, 8, 73, 0
1, 8680, Note_on_c, 8, 73, 100
1, 8680, Note_on_c, 8, 69, 100
1, 8706, Note_on_c, 8, 73, 0
1, 8706, Note_on_c, 8, 69, 0
1, 8706, Note_on_c, 8, 69, 100
1, 8706, Note_on_c, 8, 73, 100
1, 8732, Note_on_c, 8, 69, 0
1, 8732, Note_on_c, 8, 73, 0
1, 8732, Note_on_c, 8, 73, 100
1, 8732, Note_on_c, 8, 69, 100
1, 8889, Control_c, 5, 0, 0
1, 8889, Control_c, 5, 32, 0
1, 8889, Program_c, 5, 50
1, 8889, Note_on_c, 5, 78, 0
1, 8889, Control_c, 5, 0, 0
1, 8889, Control_c, 5, 32, 0
1, 8889, Program_c, 5, 49
1, 8889, Note_on_c, 5, 78, 0
1, 8889, Note_on_c, 2, 56, 0
1, 8889, Note_on_c, 7, 56, 0
1, 8889, Note_on_c, 8, 73, 0
1, 8889, Note_on_c, 8, 69, 0
1, 8889, Note_on_c, 2, 57, 50
1, 8889, Note_on_c, 5, 76, 105
1, 8889, Note_on_c, 5, 76, 105
1, 8889, Note_on_c, 7, 57, 50
1, 8889, Note_on_c, 8, 73, 100
1, 8889, Note_on_c, 8, 69, 100
1, 8915, Note_on_c, 8, 73, 0
1, 8915, Note_on_c, 8, 69, 0
1, 8915, Note_on_c, 8, 69, 100
1, 8915, Note_on_c, 8, 73, 100
1, 8941, Note_on_c, 8, 69, 0
1, 8941, Note_on_c, 8, 73, 0
1, 8941, Note_on_c, 8, 73, 100
1, 8941, Note_on_c, 8, 69, 100
1, 8967, Note_on_c, 8, 73, 0
1, 8967, Note_on_c, 8, 69, 0
1, 8967, Note_on_c, 8, 69, 100
1, 8967, Note_on_c, 8, 73, 100
1, 8993, Note_on_c, 8, 69, 0
1, 8993, Note_on_c, 8, 73, 0
1, 8993, Note_on_c, 8, 73, 100
1, 8993, Note_on_c, 8, 69, 100
1, 9019, Note_on_c, 8, 73, 0
1, 9019, Note_on_c, 8, 69, 0
1, 9019, Note_on_c, 8, 69, 100
1, 9019, Note_on_c, 8, 73, 100
1, 9046, Note_on_c, 8, 69, 0
1, 9046, Note_on_c, 8, 73, 0
1, 9046, Note_on_c, 8, 73, 100
1, 9046, Note_on_c, 8, 69, 100
1, 9202, Note_on_c, 2, 57, 0
1, 9202, Note_on_c, 5, 76, 0
1, 9202, Note_on_c, 5, 76, 0
1, 9202, Note_on_c, 7, 57, 0
1, 9202, Note_on_c, 8, 73, 0
1, 9202, Note_on_c, 8, 69, 0
1, 9202, Note_on_c, 2, 59, 50
1, 9202, Note_on_c, 5, 75, 105
1, 9202, Note_on_c, 5, 75, 105
1, 9202, Note_on_c, 7, 59, 50
1, 9202, Note_on_c, 8, 73, 100
1, 9202, Note_on_c, 8, 69, 100
1, 9228, Note_on_c, 8, 73, 0
1, 9228, Note_on_c, 8, 69, 0
1, 9228, Note_on_c, 8, 69, 100
1, 9228, Note_on_c, 8, 73, 100
1, 9253, Note_on_c, 8, 69, 0
1, 9253, Note_on_c, 8, 73, 0
1, 9253, Note_on_c, 8, 73, 100
1, 9253, Note_on_c, 8, 69, 100
1, 9278, Note_on_c, 8, 73, 0
1, 9278, Note_on_c, 8, 69, 0
1, 9278, Note_on_c, 8, 69, 100
1, 9278, Note_on_c, 8, 73, 100
1, 9304, Note_on_c, 8, 69, 0
1, 9304, Note_on_c, 8, 73, 0
1, 9304, Note_on_c, 8, 73, 100
1, 9304, Note_on_c, 8, 69, 100
1, 9330, Note_on_c, 8, 73, 0
1, 9330, Note_on_c, 8, 69, 0
1, 9330, Note_on_c, 8, 69, 100
1, 9330, Note_on_c, 8, 73, 100
1, 9355, Note_on_c, 8, 69, 0
1, 9355, Note_on_c, 8, 73, 0
1, 9355, Note_on_c, 5, 78, 105
1, 9355, Note_on_c, 5, 78, 105
1, 9355, Note_on_c, 8, 73, 100
1, 9355, Note_on_c, 8, 69, 100
1, 9358, Note_on_c, 5, 75, 0
1, 9358, Note_on_c, 5, 75, 0
1, 9508, Note_on_c, 2, 59, 0
1, 9508, Note_on_c, 7, 59, 0
1, 9508, Note_on_c, 8, 73, 0
1, 9508, Note_on_c, 8, 69, 0
1, 9508, Note_on_c, 2, 61, 50
1, 9508, Note_on_c, 5, 73, 105
1, 9508, Note_on_c, 5, 73, 105
1, 9508, Note_on_c, 7, 61, 50
1, 9508, Note_on_c, 8, 73, 100
1, 9508, Note_on_c, 8, 69, 100
1, 9512, Note_on_c, 5, 78, 0
1, 9512, Note_on_c, 5, 78, 0
1, 9534, Note_on_c, 8, 73, 0
1, 9534, Note_on_c, 8, 69, 0
1, 9534, Note_on_c, 8, 69, 100
1, 9534, Note_on_c, 8, 73, 100
1, 9560, Note_on_c, 8, 69, 0
1, 9560, Note_on_c, 8, 73, 0
1, 9560, Note_on_c, 8, 73, 100
1, 9560, Note_on_c, 8, 69, 100
1, 9585, Note_on_c, 8, 73, 0
1, 9585, Note_on_c, 8, 69, 0
1, 9585, Note_on_c, 8, 69, 100
1, 9585, Note_on_c, 8, 73, 100
1, 9610, Note_on_c, 8, 69, 0
1, 9610, Note_on_c, 8, 73, 0
1, 9610, Note_on_c, 8, 73, 100
1, 9610, Note_on_c, 8, 69, 100
1, 9636, Note_on_c, 8, 73, 0
1, 9636, Note_on_c, 8, 69, 0
1, 9636, Note_on_c, 8, 69, 100
1, 9636, Note_on_c, 8, 73, 100
1, 9662, Note_on_c, 8, 69, 0
1, 9662, Note_on_c, 8, 73, 0
1, 9662, Note_on_c, 8, 69, 100
1, 9662, Note_on_c, 8, 73, 100
1, 9815, Note_on_c, 2, 61, 0
1, 9815, Note_on_c, 5, 73, 0
1, 9815, Note_on_c, 5, 73, 0
1, 9815, Note_on_c, 7, 61, 0
1, 9815, Note_on_c, 8, 69, 0
1, 9815, Note_on_c, 2, 63, 50
1, 9815, Note_on_c, 5, 71, 105
1, 9815, Note_on_c, 5, 71, 105
1, 9815, Note_on_c, 7, 63, 50
1, 9815, Note_on_c, 8, 66, 100
1, 9815, Note_on_c, 8, 69, 100
1, 9818, Note_on_c, 8, 73, 0
1, 9840, Note_on_c, 8, 66, 0
1, 9840, Note_on_c, 8, 69, 0
1, 9840, Note_on_c, 8, 69, 100
1, 9840, Note_on_c, 8, 66, 100
1, 9866, Note_on_c, 8, 69, 0
1, 9866, Note_on_c, 8, 66, 0
1, 9866, Note_on_c, 8, 66, 100
1, 9866, Note_on_c, 8, 69, 100
1, 9891, Note_on_c, 8, 66, 0
1, 9891, Note_on_c, 8, 69, 0
1, 9891, Note_on_c, 8, 69, 100
1, 9891, Note_on_c, 8, 66, 100
1, 9917, Note_on_c, 8, 69, 0
1, 9917, Note_on_c, 8, 66, 0
1, 9917, Note_on_c, 8, 66, 100
1, 9917, Note_on_c, 8, 69, 100
1, 9942, Note_on_c, 8, 66, 0
1, 9942, Note_on_c, 8, 69, 0
1, 9942, Note_on_c, 8, 69, 100
1, 9942, Note_on_c, 8, 66, 100
1, 9968, Note_on_c, 8, 69, 0
1, 9968, Note_on_c, 8, 66, 0
1, 9968, Note_on_c, 8, 66, 100
1, 9968, Note_on_c, 8, 69, 100
1, 10121, Note_on_c, 2, 63, 0
1, 10121, Note_on_c, 5, 71, 0
1, 10121, Note_on_c, 5, 71, 0
1, 10121, Note_on_c, 7, 63, 0
1, 10121, Note_on_c, 8, 66, 0
1, 10121, Note_on_c, 8, 69, 0
1, 10121, Note_on_c, 2, 61, 50
1, 10121, Note_on_c, 5, 76, 105
1, 10121, Note_on_c, 5, 76, 105
1, 10121, Note_on_c, 7, 61, 50
1, 10121, Note_on_c, 8, 71, 100
1, 10121, Note_on_c, 8, 68, 100
1, 10146, Note_on_c, 8, 71, 0
1, 10146, Note_on_c, 8, 68, 0
1, 10146, Note_on_c, 8, 68, 100
1, 10146, Note_on_c, 8, 71, 100
1, 10171, Note_on_c, 8, 68, 0
1, 10171, Note_on_c, 8, 71, 0
1, 10171, Note_on_c, 8, 71, 100
1, 10171, Note_on_c, 8, 68, 100
1, 10196, Note_on_c, 8, 71, 0
1, 10196, Note_on_c, 8, 68, 0
1, 10196, Note_on_c, 8, 68, 100
1, 10196, Note_on_c, 8, 71, 100
1, 10221, Note_on_c, 8, 68, 0
1, 10221, Note_on_c, 8, 71, 0
1, 10221, Note_on_c, 8, 71, 100
1, 10221, Note_on_c, 8, 68, 100
1, 10246, Note_on_c, 8, 71, 0
1, 10246, Note_on_c, 8, 68, 0
1, 10246, Note_on_c, 8, 68, 100
1, 10246, Note_on_c, 8, 71, 100
1, 10271, Note_on_c, 8, 68, 0
1, 10271, Note_on_c, 8, 71, 0
1, 10271, Note_on_c, 8, 71, 100
1, 10271, Note_on_c, 8, 68, 100
1, 10421, Note_on_c, 2, 61, 0
1, 10421, Note_on_c, 7, 61, 0
1, 10421, Note_on_c, 8, 71, 0
1, 10421, Note_on_c, 8, 68, 0
1, 10421, Note_on_c, 2, 63, 50
1, 10421, Note_on_c, 7, 63, 50
1, 10421, Note_on_c, 8, 71, 100
1, 10421, Note_on_c, 8, 68, 100
1, 10446, Note_on_c, 8, 71, 0
1, 10446, Note_on_c, 8, 68, 0
1, 10446, Note_on_c, 8, 68, 100
1, 10446, Note_on_c, 8, 71, 100
1, 10471, Note_on_c, 8, 68, 0
1, 10471, Note_on_c, 8, 71, 0
1, 10471, Note_on_c, 8, 71, 100
1, 10471, Note_on_c, 8, 68, 100
1, 10496, Note_on_c, 8, 71, 0
1, 10496, Note_on_c, 8, 68, 0
1, 10496, Note_on_c, 8, 68, 100
1, 10496, Note_on_c, 8, 71, 100
1, 10521, Note_on_c, 8, 68, 0
1, 10521, Note_on_c, 8, 71, 0
1, 10521, Note_on_c, 8, 71, 100
1, 10521, Note_on_c, 8, 68, 100
1, 10546, Note_on_c, 8, 71, 0
1, 10546, Note_on_c, 8, 68, 0
1, 10546, Note_on_c, 8, 68, 100
1, 10546, Note_on_c, 8, 71, 100
1, 10571, Note_on_c, 8, 68, 0
1, 10571, Note_on_c, 8, 71, 0
1, 10571, Note_on_c, 5, 75, 105
1, 10571, Note_on_c, 5, 75, 105
1, 10571, Note_on_c, 8, 71, 100
1, 10571, Note_on_c, 8, 68, 100
1, 10574, Note_on_c, 5, 76, 0
1, 10574, Note_on_c, 5, 76, 0
1, 10721, Note_on_c, 2, 63, 0
1, 10721, Note_on_c, 7, 63, 0
1, 10721, Note_on_c, 8, 71, 0
1, 10721, Note_on_c, 8, 68, 0
1, 10721, Note_on_c, 2, 64, 50
1, 10721, Note_on_c, 5, 73, 105
1, 10721, Note_on_c, 5, 73, 105
1, 10721, Note_on_c, 7, 64, 50
1, 10721, Note_on_c, 8, 71, 100
1, 10721, Note_on_c, 8, 68, 100
1, 10724, Note_on_c, 5, 75, 0
1, 10724, Note_on_c, 5, 75, 0
1, 10746, Note_on_c, 8, 71, 0
1, 10746, Note_on_c, 8, 68, 0
1, 10746, Note_on_c, 8, 68, 100
1, 10746, Note_on_c, 8, 71, 100
1, 10771, Note_on_c, 8, 68, 0
1, 10771, Note_on_c, 8, 71, 0
1, 10771, Note_on_c, 8, 71, 100
1, 10771, Note_on_c, 8, 68, 100
1, 10796, Note_on_c, 8, 71, 0
1, 10796, Note_on_c, 8, 68, 0
1, 10796, Note_on_c, 8, 68, 100
1, 10796, Note_on_c, 8, 71, 100
1, 10821, Note_on_c, 8, 68, 0
1, 10821, Note_on_c, 8, 71, 0
1, 10821, Note_on_c, 8, 71, 100
1, 10821, Note_on_c, 8, 68, 100
1, 10846, Note_on_c, 8, 71, 0
1, 10846, Note_on_c, 8, 68, 0
1, 10846, Note_on_c, 8, 68, 100
1, 10846, Note_on_c, 8, 71, 100
1, 10871, Note_on_c, 8, 68, 0
1, 10871, Note_on_c, 8, 71, 0
1, 10871, Note_on_c, 5, 76, 105
1, 10871, Note_on_c, 5, 76, 105
1, 10871, Note_on_c, 8, 71, 100
1, 10871, Note_on_c, 8, 68, 100
1, 10874, Note_on_c, 5, 73, 0
1, 10874, Note_on_c, 5, 73, 0
1, 11018, Note_on_c, 8, 71, 0
1, 11018, Note_on_c, 8, 68, 0
1, 11021, Note_on_c, 2, 64, 0
1, 11021, Note_on_c, 7, 64, 0
1, 11021, Note_on_c, 5, 76, 0
1, 11021, Note_on_c, 5, 76, 0
1, 11021, Control_c, 0, 1, 30
1, 11021, Control_c, 0, 11, 70
1, 11021, Note_on_c, 2, 66, 50
1, 11021, Note_on_c, 5, 75, 105
1, 11021, Note_on_c, 5, 75, 105
1, 11021, Note_on_c, 7, 66, 50
1, 11021, Note_on_c, 8, 71, 100
1, 11021, Note_on_c, 8, 68, 100
1, 11046, Note_on_c, 8, 71, 0
1, 11046, Note_on_c, 8, 68, 0
1, 11046, Note_on_c, 8, 68, 100
1, 11046, Note_on_c, 8, 71, 100
1, 11070, Note_on_c, 8, 68, 0
1, 11070, Note_on_c, 8, 71, 0
1, 11070, Note_on_c, 8, 71, 100
1, 11070, Note_on_c, 8, 68, 100
1, 11095, Note_on_c, 8, 71, 0
1, 11095, Note_on_c, 8, 68, 0
1, 11095, Note_on_c, 8, 68, 100
1, 11095, Note_on_c, 8, 71, 100
1, 11119, Note_on_c, 8, 68, 0
1, 11119, Note_on_c, 8, 71, 0
1, 11119, Note_on_c, 8, 71, 100
1, 11119, Note_on_c, 8, 68, 100
1, 11144, Note_on_c, 8, 71, 0
1, 11144, Note_on_c, 8, 68, 0
1, 11144, Note_on_c, 8, 68, 100
1, 11144, Note_on_c, 8, 71, 100
1, 11168, Note_on_c, 8, 68, 0
1, 11168, Note_on_c, 8, 71, 0
1, 11168, Note_on_c, 5, 71, 105
1, 11168, Note_on_c, 5, 71, 105
1, 11168, Note_on_c, 8, 71, 100
1, 11168, Note_on_c, 8, 68, 100
1, 11171, Note_on_c, 5, 75, 0
1, 11171, Note_on_c, 5, 75, 0
1, 11315, Note_on_c, 2, 66, 0
1, 11315, Note_on_c, 7, 66, 0
1, 11315, Note_on_c, 8, 71, 0
1, 11315, Note_on_c, 8, 68, 0
1, 11315, Note_on_c, 0, 88, 100
1, 11315, Note_on_c, 2, 68, 50
1, 11315, Note_on_c, 5, 73, 105
1, 11315, Note_on_c, 5, 73, 105
1, 11315, Note_on_c, 7, 68, 50
1, 11315, Note_on_c, 8, 71, 100
1, 11315, Note_on_c, 8, 65, 100
1, 11318, Note_on_c, 5, 71, 0
1, 11318, Note_on_c, 5, 71, 0
1, 11340, Note_on_c, 8, 71, 0
1, 11340, Note_on_c, 8, 65, 0
1, 11340, Note_on_c, 8, 68, 100
1, 11340, Note_on_c, 8, 68, 100
1, 11364, Note_on_c, 8, 68, 0
1, 11364, Note_on_c, 8, 68, 0
1, 11364, Note_on_c, 8, 71, 100
1, 11364, Note_on_c, 8, 65, 100
1, 11388, Note_on_c, 8, 71, 0
1, 11388, Note_on_c, 8, 65, 0
1, 11388, Note_on_c, 8, 68, 100
1, 11388, Note_on_c, 8, 68, 100
1, 11413, Note_on_c, 8, 68, 0
1, 11413, Note_on_c, 8, 68, 0
1, 11413, Note_on_c, 8, 71, 100
1, 11413, Note_on_c, 8, 65, 100
1, 11438, Note_on_c, 8, 71, 0
1, 11438, Note_on_c, 8, 65, 0
1, 11438, Note_on_c, 8, 68, 100
1, 11438, Note_on_c, 8, 68, 100
1, 11462, Note_on_c, 8, 68, 0
1, 11462, Note_on_c, 8, 68, 0
1, 11462, Note_on_c, 0, 87, 100
1, 11462, Note_on_c, 8, 71, 100
1, 11462, Note_on_c, 8, 65, 100
1, 11465, Note_on_c, 0, 88, 0
1, 11575, Note_on_c, 0, 85, 100
1, 11590, Note_on_c, 0, 87, 100
1, 11594, Note_on_c, 0, 85, 0
1, 11606, Note_on_c, 5, 73, 0
1, 11606, Note_on_c, 5, 73, 0
1, 11609, Note_on_c, 2, 68, 0
1, 11609, Note_on_c, 7, 68, 0
1, 11609, Note_on_c, 8, 71, 0
1, 11609, Note_on_c, 8, 65, 0
1, 11609, Note_on_c, 0, 87, 0
1, 11609, Note_on_c, 0, 85, 100
1, 11609, Note_on_c, 2, 67, 50
1, 11609, Note_on_c, 5, 73, 105
1, 11609, Note_on_c, 5, 73, 105
1, 11609, Note_on_c, 7, 67, 50
1, 11609, Note_on_c, 7, 67, 50
1, 11609, Note_on_c, 8, 71, 100
1, 11609, Note_on_c, 8, 64, 100
1, 11612, Note_on_c, 0, 87, 0
1, 11627, Note_on_c, 7, 67, 0
1, 11627, Note_on_c, 7, 69, 50
1, 11633, Note_on_c, 8, 71, 0
1, 11633, Note_on_c, 8, 64, 0
1, 11633, Note_on_c, 8, 67, 100
1, 11633, Note_on_c, 8, 67, 100
1, 11646, Note_on_c, 7, 69, 0
1, 11646, Note_on_c, 7, 71, 50
1, 11658, Note_on_c, 8, 67, 0
1, 11658, Note_on_c, 8, 67, 0
1, 11658, Note_on_c, 8, 71, 100
1, 11658, Note_on_c, 8, 64, 100
1, 11664, Note_on_c, 7, 71, 0
1, 11664, Note_on_c, 7, 73, 50
1, 11682, Note_on_c, 8, 71, 0
1, 11682, Note_on_c, 8, 64, 0
1, 11682, Note_on_c, 7, 73, 0
1, 11682, Note_on_c, 7, 74, 50
1, 11682, Note_on_c, 8, 67, 100
1, 11682, Note_on_c, 8, 67, 100
1, 11701, Note_on_c, 7, 74, 0
1, 11701, Note_on_c, 7, 76, 50
1, 11707, Note_on_c, 8, 67, 0
1, 11707, Note_on_c, 8, 67, 0
1, 11707, Note_on_c, 8, 71, 100
1, 11707, Note_on_c, 8, 64, 100
1, 11719, Note_on_c, 7, 76, 0
1, 11719, Note_on_c, 7, 78, 50
1, 11731, Note_on_c, 8, 71, 0
1, 11731, Note_on_c, 8, 64, 0
1, 11731, Note_on_c, 8, 67, 100
1, 11731, Note_on_c, 8, 67, 100
1, 11738, Note_on_c, 7, 78, 0
1, 11738, Note_on_c, 7, 79, 50
1, 11756, Note_on_c, 8, 67, 0
1, 11756, Note_on_c, 8, 67, 0
1, 11756, Note_on_c, 7, 79, 0
1, 11756, Note_on_c, 0, 88, 100
1, 11756, Note_on_c, 7, 81, 50
1, 11756, Note_on_c, 8, 71, 100
1, 11756, Note_on_c, 8, 64, 100
1, 11759, Note_on_c, 0, 85, 0
1, 11774, Note_on_c, 7, 81, 0
1, 11774, Note_on_c, 7, 83, 50
1, 11792, Note_on_c, 7, 83, 0
1, 11792, Note_on_c, 7, 85, 50
1, 11811, Note_on_c, 7, 85, 0
1, 11811, Note_on_c, 7, 86, 50
1, 11829, Note_on_c, 7, 86, 0
1, 11829, Note_on_c, 7, 88, 50
1, 11848, Note_on_c, 7, 88, 0
1, 11860, Note_on_c, 5, 73, 0
1, 11860, Note_on_c, 5, 73, 0
1, 11903, Note_on_c, 8, 35, 0
1, 11903, Note_on_c, 2, 67, 0
1, 11903, Note_on_c, 7, 67, 0
1, 11903, Note_on_c, 0, 88, 0
1, 11903, Note_on_c, 8, 71, 0
1, 11903, Note_on_c, 8, 64, 0
1, 11903, Note_on_c, 0, 90, 100
1, 11903, Note_on_c, 1, 81, 100
1, 11903, Note_on_c, 5, 78, 105
1, 11903, Note_on_c, 5, 78, 105
1, 11903, Control_c, 6, 0, 0
1, 11903, Control_c, 6, 32, 0
1, 11903, Program_c, 6, 45
1, 11903, Note_on_c, 7, 90, 50
1, 11903, Note_on_c, 7, 35, 50
1, 11903, Note_on_c, 7, 47, 50
1, 11903, Note_on_c, 8, 69, 100
1, 11903, Note_on_c, 8, 57, 100
1, 11903, Note_on_c, 8, 61, 100
1, 11903, Note_on_c, 8, 35, 100
1, 11903, Note_on_c, 8, 47, 100
1, 11906, Note_on_c, 6, 47, 40
1, 11927, Note_on_c, 8, 69, 0
1, 11927, Note_on_c, 8, 57, 0
1, 11927, Note_on_c, 8, 61, 0
1, 11927, Note_on_c, 8, 71, 100
1, 11927, Note_on_c, 8, 59, 100
1, 11927, Note_on_c, 8, 63, 100
1, 11951, Note_on_c, 8, 71, 0
1, 11951, Note_on_c, 8, 59, 0
1, 11951, Note_on_c, 8, 63, 0
1, 11951, Note_on_c, 8, 69, 100
1, 11951, Note_on_c, 8, 57, 100
1, 11951, Note_on_c, 8, 61, 100
1, 11954, Note_on_c, 6, 47, 0
1, 11975, Note_on_c, 8, 69, 0
1, 11975, Note_on_c, 8, 57, 0
1, 11975, Note_on_c, 8, 61, 0
1, 11975, Note_on_c, 8, 71, 100
1, 11975, Note_on_c, 8, 59, 100
1, 11975, Note_on_c, 8, 63, 100
1, 11999, Note_on_c, 8, 71, 0
1, 11999, Note_on_c, 8, 59, 0
1, 11999, Note_on_c, 8, 63, 0
1, 11999, Note_on_c, 8, 69, 100
1, 11999, Note_on_c, 8, 57, 100
1, 11999, Note_on_c, 8, 61, 100
1, 12017, Note_on_c, 7, 90, 0
1, 12023, Note_on_c, 8, 69, 0
1, 12023, Note_on_c, 8, 57, 0
1, 12023, Note_on_c, 8, 61, 0
1, 12023, Note_on_c, 8, 71, 100
1, 12023, Note_on_c, 8, 59, 100
1, 12023, Note_on_c, 8, 63, 100
1, 12047, Note_on_c, 8, 71, 0
1, 12047, Note_on_c, 8, 59, 0
1, 12047, Note_on_c, 8, 63, 0
1, 12047, Note_on_c, 8, 69, 100
1, 12047, Note_on_c, 8, 57, 100
1, 12047, Note_on_c, 8, 61, 100
1, 12185, Note_on_c, 0, 90, 0
1, 12188, Note_on_c, 5, 78, 0
1, 12188, Note_on_c, 5, 78, 0
1, 12191, Note_on_c, 8, 69, 0
1, 12191, Note_on_c, 0, 90, 100
1, 12191, Note_on_c, 5, 78, 105
1, 12191, Note_on_c, 5, 78, 105
1, 12191, Note_on_c, 8, 69, 100
1, 12191, Note_on_c, 8, 59, 100
1, 12191, Note_on_c, 8, 63, 100
1, 12194, Note_on_c, 8, 57, 0
1, 12194, Note_on_c, 8, 61, 0
1, 12215, Note_on_c, 8, 69, 0
1, 12215, Note_on_c, 8, 59, 0
1, 12215, Note_on_c, 8, 63, 0
1, 12215, Note_on_c, 8, 71, 100
1, 12215, Note_on_c, 8, 61, 100
1, 12215, Note_on_c, 8, 64, 100
1, 12239, Note_on_c, 8, 71, 0
1, 12239, Note_on_c, 8, 61, 0
1, 12239, Note_on_c, 8, 64, 0
1, 12239, Note_on_c, 8, 69, 100
1, 12239, Note_on_c, 8, 59, 100
1, 12239, Note_on_c, 8, 63, 100
1, 12263, Note_on_c, 8, 69, 0
1, 12263, Note_on_c, 8, 59, 0
1, 12263, Note_on_c, 8, 63, 0
1, 12263, Note_on_c, 8, 71, 100
1, 12263, Note_on_c, 8, 61, 100
1, 12263, Note_on_c, 8, 64, 100
1, 12287, Note_on_c, 8, 71, 0
1, 12287, Note_on_c, 8, 61, 0
1, 12287, Note_on_c, 8, 64, 0
1, 12287, Note_on_c, 8, 69, 100
1, 12287, Note_on_c, 8, 59, 100
1, 12287, Note_on_c, 8, 63, 100
1, 12311, Note_on_c, 8, 69, 0
1, 12311, Note_on_c, 8, 59, 0
1, 12311, Note_on_c, 8, 63, 0
1, 12311, Note_on_c, 8, 71, 100
1, 12311, Note_on_c, 8, 61, 100
1, 12311, Note_on_c, 8, 64, 100
1, 12335, Note_on_c, 8, 71, 0
1, 12335, Note_on_c, 8, 61, 0
1, 12335, Note_on_c, 8, 64, 0
1, 12335, Note_on_c, 8, 69, 100
1, 12335, Note_on_c, 8, 59, 100
1, 12335, Note_on_c, 8, 63, 100
1, 12476, Note_on_c, 5, 78, 0
1, 12476, Note_on_c, 5, 78, 0
1, 12479, Note_on_c, 0, 90, 0
1, 12479, Note_on_c, 8, 69, 0
1, 12479, Note_on_c, 0, 88, 100
1, 12479, Note_on_c, 5, 76, 105
1, 12479, Note_on_c, 5, 76, 105
1, 12479, Control_c, 6, 0, 0
1, 12479, Control_c, 6, 32, 0
1, 12479, Program_c, 6, 47
1, 12479, Note_on_c, 8, 69, 100
1, 12479, Note_on_c, 8, 61, 100
1, 12479, Note_on_c, 8, 64, 100
1, 12482, Note_on_c, 8, 59, 0
1, 12482, Note_on_c, 8, 63, 0
1, 12503, Note_on_c, 8, 69, 0
1, 12503, Note_on_c, 8, 61, 0
1, 12503, Note_on_c, 8, 64, 0
1, 12503, Note_on_c, 8, 71, 100
1, 12503, Note_on_c, 8, 63, 100
1, 12503, Note_on_c, 8, 66, 100
1, 12527, Note_on_c, 8, 71, 0
1, 12527, Note_on_c, 8, 63, 0
1, 12527, Note_on_c, 8, 66, 0
1, 12527, Note_on_c, 8, 69, 100
1, 12527, Note_on_c, 8, 61, 100
1, 12527, Note_on_c, 8, 64, 100
1, 12551, Note_on_c, 8, 69, 0
1, 12551, Note_on_c, 8, 61, 0
1, 12551, Note_on_c, 8, 64, 0
1, 12551, Note_on_c, 8, 71, 100
1, 12551, Note_on_c, 8, 63, 100
1, 12551, Note_on_c, 8, 66, 100
1, 12575, Note_on_c, 8, 71, 0
1, 12575, Note_on_c, 8, 63, 0
1, 12575, Note_on_c, 8, 66, 0
1, 12575, Note_on_c, 8, 69, 100
1, 12575, Note_on_c, 8, 61, 100
1, 12575, Note_on_c, 8, 64, 100
1, 12599, Note_on_c, 8, 69, 0
1, 12599, Note_on_c, 8, 61, 0
1, 12599, Note_on_c, 8, 64, 0
1, 12599, Note_on_c, 8, 71, 100
1, 12599, Note_on_c, 8, 63, 100
1, 12599, Note_on_c, 8, 66, 100
1, 12623, Note_on_c, 8, 71, 0
1, 12623, Note_on_c, 8, 63, 0
1, 12623, Note_on_c, 8, 66, 0
1, 12623, Note_on_c, 8, 69, 100
1, 12623, Note_on_c, 8, 61, 100
1, 12623, Note_on_c, 8, 64, 100
1, 12764, Note_on_c, 8, 69, 0
1, 12767, Note_on_c, 7, 35, 0
1, 12767, Note_on_c, 7, 47, 0
1, 12767, Note_on_c, 0, 88, 0
1, 12767, Note_on_c, 5, 76, 0
1, 12767, Note_on_c, 5, 76, 0
1, 12767, Note_on_c, 8, 61, 0
1, 12767, Note_on_c, 8, 64, 0
1, 12767, Note_on_c, 0, 87, 100
1, 12767, Note_on_c, 2, 54, 100
1, 12767, Note_on_c, 5, 75, 105
1, 12767, Note_on_c, 5, 75, 105
1, 12767, Note_on_c, 8, 69, 100
1, 12767, Note_on_c, 8, 63, 100
1, 12767, Note_on_c, 8, 66, 100
1, 12790, Note_on_c, 8, 69, 0
1, 12790, Note_on_c, 8, 63, 0
1, 12790, Note_on_c, 8, 66, 0
1, 12790, Note_on_c, 8, 71, 100
1, 12790, Note_on_c, 8, 64, 100
1, 12790, Note_on_c, 8, 68, 100
1, 12814, Note_on_c, 8, 71, 0
1, 12814, Note_on_c, 8, 64, 0
1, 12814, Note_on_c, 8, 68, 0
1, 12814, Note_on_c, 8, 69, 100
1, 12814, Note_on_c, 8, 63, 100
1, 12814, Note_on_c, 8, 66, 100
1, 12837, Note_on_c, 8, 69, 0
1, 12837, Note_on_c, 8, 63, 0
1, 12837, Note_on_c, 8, 66, 0
1, 12837, Note_on_c, 8, 71, 100
1, 12837, Note_on_c, 8, 64, 100
1, 12837, Note_on_c, 8, 68, 100
1, 12861, Note_on_c, 8, 71, 0
1, 12861, Note_on_c, 8, 64, 0
1, 12861, Note_on_c, 8, 68, 0
1, 12861, Note_on_c, 8, 69, 100
1, 12861, Note_on_c, 8, 63, 100
1, 12861, Note_on_c, 8, 66, 100
1, 12884, Note_on_c, 8, 69, 0
1, 12884, Note_on_c, 8, 63, 0
1, 12884, Note_on_c, 8, 66, 0
1, 12884, Note_on_c, 8, 71, 100
1, 12884, Note_on_c, 8, 64, 100
1, 12884, Note_on_c, 8, 68, 100
1, 12908, Note_on_c, 8, 71, 0
1, 12908, Note_on_c, 8, 64, 0
1, 12908, Note_on_c, 8, 68, 0
1, 12908, Note_on_c, 0, 90, 100
1, 12908, Note_on_c, 5, 78, 105
1, 12908, Note_on_c, 5, 78, 105
1, 12908, Note_on_c, 8, 69, 100
1, 12908, Note_on_c, 8, 63, 100
1, 12908, Note_on_c, 8, 66, 100
1, 12911, Note_on_c, 0, 87, 0
1, 12911, Note_on_c, 5, 75, 0
1, 12911, Note_on_c, 5, 75, 0
1, 13049, Note_on_c, 2, 54, 0
1, 13049, Note_on_c, 8, 69, 0
1, 13049, Note_on_c, 0, 85, 100
1, 13049, Note_on_c, 2, 56, 100
1, 13049, Note_on_c, 5, 73, 105
1, 13049, Note_on_c, 5, 73, 105
1, 13049, Note_on_c, 8, 69, 100
1, 13049, Note_on_c, 8, 64, 100
1, 13049, Note_on_c, 8, 68, 100
1, 13052, Note_on_c, 0, 90, 0
1, 13052, Note_on_c, 5, 78, 0
1, 13052, Note_on_c, 5, 78, 0
1, 13052, Note_on_c, 8, 63, 0
1, 13052, Note_on_c, 8, 66, 0
1, 13073, Note_on_c, 8, 69, 0
1, 13073, Note_on_c, 8, 64, 0
1, 13073, Note_on_c, 8, 68, 0
1, 13073, Note_on_c, 8, 71, 100
1, 13073, Note_on_c, 8, 66, 100
1, 13073, Note_on_c, 8, 70, 100
1, 13096, Note_on_c, 8, 71, 0
1, 13096, Note_on_c, 8, 66, 0
1, 13096, Note_on_c, 8, 70, 0
1, 13096, Note_on_c, 8, 69, 100
1, 13096, Note_on_c, 8, 64, 100
1, 13096, Note_on_c, 8, 68, 100
1, 13120, Note_on_c, 8, 69, 0
1, 13120, Note_on_c, 8, 64, 0
1, 13120, Note_on_c, 8, 68, 0
1, 13120, Note_on_c, 8, 71, 100
1, 13120, Note_on_c, 8, 66, 100
1, 13120, Note_on_c, 8, 70, 100
1, 13143, Note_on_c, 8, 71, 0
1, 13143, Note_on_c, 8, 66, 0
1, 13143, Note_on_c, 8, 70, 0
1, 13143, Note_on_c, 8, 69, 100
1, 13143, Note_on_c, 8, 64, 100
1, 13143, Note_on_c, 8, 68, 100
1, 13167, Note_on_c, 8, 69, 0
1, 13167, Note_on_c, 8, 64, 0
1, 13167, Note_on_c, 8, 68, 0
1, 13167, Note_on_c, 8, 71, 100
1, 13167, Note_on_c, 8, 66, 100
1, 13167, Note_on_c, 8, 70, 100
1, 13190, Note_on_c, 8, 71, 0
1, 13190, Note_on_c, 8, 66, 0
1, 13190, Note_on_c, 8, 70, 0
1, 13190, Note_on_c, 8, 69, 100
1, 13190, Note_on_c, 8, 64, 100
1, 13190, Note_on_c, 8, 68, 100
1, 13332, Note_on_c, 0, 85, 0
1, 13332, Note_on_c, 2, 56, 0
1, 13332, Note_on_c, 5, 73, 0
1, 13332, Note_on_c, 5, 73, 0
1, 13332, Note_on_c, 8, 69, 0
1, 13332, Note_on_c, 0, 83, 100
1, 13332, Note_on_c, 2, 57, 100
1, 13332, Note_on_c, 5, 71, 105
1, 13332, Note_on_c, 5, 71, 105
1, 13332, Note_on_c, 8, 69, 100
1, 13332, Note_on_c, 8, 66, 100
1, 13332, Note_on_c, 8, 69, 100
1, 13334, Note_on_c, 8, 64, 0
1, 13334, Note_on_c, 8, 68, 0
1, 13355, Note_on_c, 8, 69, 0
1, 13355, Note_on_c, 8, 66, 0
1, 13355, Note_on_c, 8, 69, 0
1, 13355, Note_on_c, 8, 71, 100
1, 13355, Note_on_c, 8, 68, 100
1, 13355, Note_on_c, 8, 71, 100
1, 13378, Note_on_c, 8, 71, 0
1, 13378, Note_on_c, 8, 68, 0
1, 13378, Note_on_c, 8, 71, 0
1, 13378, Note_on_c, 8, 69, 100
1, 13378, Note_on_c, 8, 66, 100
1, 13378, Note_on_c, 8, 69, 100
1, 13402, Note_on_c, 8, 69, 0
1, 13402, Note_on_c, 8, 66, 0
1, 13402, Note_on_c, 8, 69, 0
1, 13402, Note_on_c, 8, 71, 100
1, 13402, Note_on_c, 8, 68, 100
1, 13402, Note_on_c, 8, 71, 100
1, 13426, Note_on_c, 8, 71, 0
1, 13426, Note_on_c, 8, 68, 0
1, 13426, Note_on_c, 8, 71, 0
1, 13426, Note_on_c, 8, 69, 100
1, 13426, Note_on_c, 8, 66, 100
1, 13426, Note_on_c, 8, 69, 100
1, 13449, Note_on_c, 8, 69, 0
1, 13449, Note_on_c, 8, 66, 0
1, 13449, Note_on_c, 8, 69, 0
1, 13449, Note_on_c, 8, 71, 100
1, 13449, Note_on_c, 8, 68, 100
1, 13449, Note_on_c, 8, 71, 100
1, 13473, Note_on_c, 8, 71, 0
1, 13473, Note_on_c, 8, 68, 0
1, 13473, Note_on_c, 8, 71, 0
1, 13473, Note_on_c, 8, 69, 100
1, 13473, Note_on_c, 8, 66, 100
1, 13473, Note_on_c, 8, 69, 100
1, 13602, Note_on_c, 1, 81, 0
1, 13602, Note_on_c, 0, 83, 0
1, 13611, Note_on_c, 8, 69, 0
1, 13611, Note_on_c, 8, 66, 0
1, 13611, Note_on_c, 8, 69, 0
1, 13614, Note_on_c, 2, 57, 0
1, 13614, Note_on_c, 5, 71, 0
1, 13614, Note_on_c, 5, 71, 0
1, 13614, Note_on_c, 0, 88, 100
1, 13614, Note_on_c, 1, 73, 100
1, 13614, Note_on_c, 1, 81, 100
1, 13614, Note_on_c, 2, 58, 100
1, 13614, Note_on_c, 2, 49, 100
1, 13614, Control_c, 3, 11, 50
1, 13614, Note_on_c, 3, 35, 100
1, 13614, Note_on_c, 5, 76, 105
1, 13614, Note_on_c, 5, 76, 105
1, 13614, Note_on_c, 8, 81, 100
1, 13614, Note_on_c, 8, 69, 100
1, 13614, Note_on_c, 8, 57, 100
1, 13614, Note_on_c, 8, 57, 100
1, 13614, Note_on_c, 8, 61, 100
1, 13637, Note_on_c, 8, 81, 0
1, 13637, Note_on_c, 8, 69, 0
1, 13637, Note_on_c, 8, 57, 0
1, 13637, Note_on_c, 8, 57, 0
1, 13637, Note_on_c, 8, 61, 0
1, 13637, Note_on_c, 8, 83, 100
1, 13637, Note_on_c, 8, 71, 100
1, 13637, Note_on_c, 8, 59, 100
1, 13637, Note_on_c, 8, 59, 100
1, 13637, Note_on_c, 8, 63, 100
1, 13660, Note_on_c, 8, 83, 0
1, 13660, Note_on_c, 8, 71, 0
1, 13660, Note_on_c, 8, 59, 0
1, 13660, Note_on_c, 8, 59, 0
1, 13660, Note_on_c, 8, 63, 0
1, 13660, Note_on_c, 8, 81, 100
1, 13660, Note_on_c, 8, 69, 100
1, 13660, Note_on_c, 8, 57, 100
1, 13660, Note_on_c, 8, 57, 100
1, 13660, Note_on_c, 8, 61, 100
1, 13683, Note_on_c, 8, 81, 0
1, 13683, Note_on_c, 8, 69, 0
1, 13683, Note_on_c, 8, 57, 0
1, 13683, Note_on_c, 8, 57, 0
1, 13683, Note_on_c, 8, 61, 0
1, 13683, Note_on_c, 8, 83, 100
1, 13683, Note_on_c, 8, 71, 100
1, 13683, Note_on_c, 8, 59, 100
1, 13683, Note_on_c, 8, 59, 100
1, 13683, Note_on_c, 8, 63, 100
1, 13706, Note_on_c, 8, 83, 0
1, 13706, Note_on_c, 8, 71, 0
1, 13706, Note_on_c, 8, 59, 0
1, 13706, Note_on_c, 8, 59, 0
1, 13706, Note_on_c, 8, 63, 0
1, 13706, Note_on_c, 8, 81, 100
1, 13706, Note_on_c, 8, 69, 100
1, 13706, Note_on_c, 8, 57, 100
1, 13706, Note_on_c, 8, 57, 100
1, 13706, Note_on_c, 8, 61, 100
1, 13729, Note_on_c, 8, 81, 0
1, 13729, Note_on_c, 8, 69, 0
1, 13729, Note_on_c, 8, 57, 0
1, 13729, Note_on_c, 8, 57, 0
1, 13729, Note_on_c, 8, 61, 0
1, 13729, Note_on_c, 8, 83, 100
1, 13729, Note_on_c, 8, 71, 100
1, 13729, Note_on_c, 8, 59, 100
1, 13729, Note_on_c, 8, 59, 100
1, 13729, Note_on_c, 8, 63, 100
1, 13752, Note_on_c, 8, 83, 0
1, 13752, Note_on_c, 8, 71, 0
1, 13752, Note_on_c, 8, 59, 0
1, 13752, Note_on_c, 8, 59, 0
1, 13752, Note_on_c, 8, 63, 0
1, 13752, Note_on_c, 8, 81, 100
1, 13752, Note_on_c, 8, 69, 100
1, 13752, Note_on_c, 8, 57, 100
1, 13752, Note_on_c, 8, 57, 100
1, 13752, Note_on_c, 8, 61, 100
1, 13891, Note_on_c, 1, 73, 0
1, 13891, Note_on_c, 2, 58, 0
1, 13891, Note_on_c, 2, 49, 0
1, 13891, Note_on_c, 8, 81, 0
1, 13891, Note_on_c, 8, 69, 0
1, 13891, Note_on_c, 1, 71, 100
1, 13891, Note_on_c, 2, 51, 100
1, 13891, Note_on_c, 2, 59, 100
1, 13891, Note_on_c, 8, 81, 100
1, 13891, Note_on_c, 8, 69, 100
1, 13891, Note_on_c, 8, 59, 100
1, 13891, Note_on_c, 8, 59, 100
1, 13891, Note_on_c, 8, 63, 100
1, 13894, Note_on_c, 8, 57, 0
1, 13894, Note_on_c, 8, 57, 0
1, 13894, Note_on_c, 8, 61, 0
1, 13914, Note_on_c, 8, 81, 0
1, 13914, Note_on_c, 8, 69, 0
1, 13914, Note_on_c, 8, 59, 0
1, 13914, Note_on_c, 8, 59, 0
1, 13914, Note_on_c, 8, 63, 0
1, 13914, Note_on_c, 8, 83, 100
1, 13914, Note_on_c, 8, 71, 100
1, 13914, Note_on_c, 8, 61, 100
1, 13914, Note_on_c, 8, 61, 100
1, 13914, Note_on_c, 8, 64, 100
1, 13937, Note_on_c, 8, 83, 0
1, 13937, Note_on_c, 8, 71, 0
1, 13937, Note_on_c, 8, 61, 0
1, 13937, Note_on_c, 8, 61, 0
1, 13937, Note_on_c, 8, 64, 0
1, 13937, Note_on_c, 8, 81, 100
1, 13937, Note_on_c, 8, 69, 100
1, 13937, Note_on_c, 8, 59, 100
1, 13937, Note_on_c, 8, 59, 100
1, 13937, Note_on_c, 8, 63, 100
1, 13960, Note_on_c, 8, 81, 0
1, 13960, Note_on_c, 8, 69, 0
1, 13960, Note_on_c, 8, 59, 0
1, 13960, Note_on_c, 8, 59, 0
1, 13960, Note_on_c, 8, 63, 0
1, 13960, Note_on_c, 8, 83, 100
1, 13960, Note_on_c, 8, 71, 100
1, 13960, Note_on_c, 8, 61, 100
1, 13960, Note_on_c, 8, 61, 100
1, 13960, Note_on_c, 8, 64, 100
1, 13983, Note_on_c, 8, 83, 0
1, 13983, Note_on_c, 8, 71, 0
1, 13983, Note_on_c, 8, 61, 0
1, 13983, Note_on_c, 8, 61, 0
1, 13983, Note_on_c, 8, 64, 0
1, 13983, Note_on_c, 8, 81, 100
1, 13983, Note_on_c, 8, 69, 100
1, 13983, Note_on_c, 8, 59, 100
1, 13983, Note_on_c, 8, 59, 100
1, 13983, Note_on_c, 8, 63, 100
1, 14006, Note_on_c, 8, 81, 0
1, 14006, Note_on_c, 8, 69, 0
1, 14006, Note_on_c, 8, 59, 0
1, 14006, Note_on_c, 8, 59, 0
1, 14006, Note_on_c, 8, 63, 0
1, 14006, Note_on_c, 8, 83, 100
1, 14006, Note_on_c, 8, 71, 100
1, 14006, Note_on_c, 8, 61, 100
1, 14006, Note_on_c, 8, 61, 100
1, 14006, Note_on_c, 8, 64, 100
1, 14029, Note_on_c, 8, 83, 0
1, 14029, Note_on_c, 8, 71, 0
1, 14029, Note_on_c, 8, 61, 0
1, 14029, Note_on_c, 8, 61, 0
1, 14029, Note_on_c, 8, 64, 0
1, 14029, Note_on_c, 0, 87, 100
1, 14029, Note_on_c, 5, 75, 105
1, 14029, Note_on_c, 5, 75, 105
1, 14029, Note_on_c, 8, 81, 100
1, 14029, Note_on_c, 8, 69, 100
1, 14029, Note_on_c, 8, 59, 100
1, 14029, Note_on_c, 8, 59, 100
1, 14029, Note_on_c, 8, 63, 100
1, 14032, Note_on_c, 0, 88, 0
1, 14032, Note_on_c, 5, 76, 0
1, 14032, Note_on_c, 5, 76, 0
1, 14168, Note_on_c, 1, 71, 0
1, 14168, Note_on_c, 2, 51, 0
1, 14168, Note_on_c, 2, 59, 0
1, 14168, Note_on_c, 8, 81, 0
1, 14168, Note_on_c, 8, 69, 0
1, 14168, Note_on_c, 0, 85, 100
1, 14168, Note_on_c, 1, 69, 100
1, 14168, Note_on_c, 2, 52, 100
1, 14168, Note_on_c, 2, 61, 100
1, 14168, Note_on_c, 5, 73, 105
1, 14168, Note_on_c, 5, 73, 105
1, 14168, Note_on_c, 8, 81, 100
1, 14168, Note_on_c, 8, 69, 100
1, 14168, Note_on_c, 8, 61, 100
1, 14168, Note_on_c, 8, 61, 100
1, 14168, Note_on_c, 8, 64, 100
1, 14170, Note_on_c, 0, 87, 0
1, 14170, Note_on_c, 5, 75, 0
1, 14170, Note_on_c, 5, 75, 0
1, 14170, Note_on_c, 8, 59, 0
1, 14170, Note_on_c, 8, 59, 0
1, 14170, Note_on_c, 8, 63, 0
1, 14191, Note_on_c, 8, 81, 0
1, 14191, Note_on_c, 8, 69, 0
1, 14191, Note_on_c, 8, 61, 0
1, 14191, Note_on_c, 8, 61, 0
1, 14191, Note_on_c, 8, 64, 0
1, 14191, Note_on_c, 8, 83, 100
1, 14191, Note_on_c, 8, 71, 100
1, 14191, Note_on_c, 8, 63, 100
1, 14191, Note_on_c, 8, 63, 100
1, 14191, Note_on_c, 8, 66, 100
1, 14214, Note_on_c, 8, 83, 0
1, 14214, Note_on_c, 8, 71, 0
1, 14214, Note_on_c, 8, 63, 0
1, 14214, Note_on_c, 8, 63, 0
1, 14214, Note_on_c, 8, 66, 0
1, 14214, Note_on_c, 8, 81, 100
1, 14214, Note_on_c, 8, 69, 100
1, 14214, Note_on_c, 8, 61, 100
1, 14214, Note_on_c, 8, 61, 100
1, 14214, Note_on_c, 8, 64, 100
1, 14237, Note_on_c, 8, 81, 0
1, 14237, Note_on_c, 8, 69, 0
1, 14237, Note_on_c, 8, 61, 0
1, 14237, Note_on_c, 8, 61, 0
1, 14237, Note_on_c, 8, 64, 0
1, 14237, Note_on_c, 8, 83, 100
1, 14237, Note_on_c, 8, 71, 100
1, 14237, Note_on_c, 8, 63, 100
1, 14237, Note_on_c, 8, 63, 100
1, 14237, Note_on_c, 8, 66, 100
1, 14260, Note_on_c, 8, 83, 0
1, 14260, Note_on_c, 8, 71, 0
1, 14260, Note_on_c, 8, 63, 0
1, 14260, Note_on_c, 8, 63, 0
1, 14260, Note_on_c, 8, 66, 0
1, 14260, Note_on_c, 8, 81, 100
1, 14260, Note_on_c, 8, 69, 100
1, 14260, Note_on_c, 8, 61, 100
1, 14260, Note_on_c, 8, 61, 100
1, 14260, Note_on_c, 8, 64, 100
1, 14283, Note_on_c, 8, 81, 0
1, 14283, Note_on_c, 8, 69, 0
1, 14283, Note_on_c, 8, 61, 0
1, 14283, Note_on_c, 8, 61, 0
1, 14283, Note_on_c, 8, 64, 0
1, 14283, Note_on_c, 8, 83, 100
1, 14283, Note_on_c, 8, 71, 100
1, 14283, Note_on_c, 8, 63, 100
1, 14283, Note_on_c, 8, 63, 100
1, 14283, Note_on_c, 8, 66, 100
1, 14306, Note_on_c, 8, 83, 0
1, 14306, Note_on_c, 8, 71, 0
1, 14306, Note_on_c, 8, 63, 0
1, 14306, Note_on_c, 8, 63, 0
1, 14306, Note_on_c, 8, 66, 0
1, 14306, Note_on_c, 0, 88, 100
1, 14306, Note_on_c, 5, 76, 105
1, 14306, Note_on_c, 5, 76, 105
1, 14306, Note_on_c, 8, 81, 100
1, 14306, Note_on_c, 8, 69, 100
1, 14306, Note_on_c, 8, 61, 100
1, 14306, Note_on_c, 8, 61, 100
1, 14306, Note_on_c, 8, 64, 100
1, 14309, Note_on_c, 0, 85, 0
1, 14309, Note_on_c, 5, 73, 0
1, 14309, Note_on_c, 5, 73, 0
1, 14442, Note_on_c, 8, 81, 0
1, 14442, Note_on_c, 8, 69, 0
1, 14444, Note_on_c, 1, 69, 0
1, 14444, Note_on_c, 2, 52, 0
1, 14444, Note_on_c, 2, 61, 0
1, 14444, Note_on_c, 8, 61, 0
1, 14444, Note_on_c, 8, 61, 0
1, 14444, Note_on_c, 8, 64, 0
1, 14444, Note_on_c, 0, 87, 100
1, 14444, Note_on_c, 1, 73, 100
1, 14444, Note_on_c, 2, 54, 100
1, 14444, Note_on_c, 2, 63, 100
1, 14444, Note_on_c, 5, 75, 105
1, 14444, Note_on_c, 5, 75, 105
1, 14444, Note_on_c, 8, 81, 100
1, 14444, Note_on_c, 8, 69, 100
1, 14444, Note_on_c, 8, 63, 100
1, 14444, Note_on_c, 8, 63, 100
1, 14444, Note_on_c, 8, 66, 100
1, 14448, Note_on_c, 0, 88, 0
1, 14448, Note_on_c, 5, 76, 0
1, 14448, Note_on_c, 5, 76, 0
1, 14467, Note_on_c, 8, 81, 0
1, 14467, Note_on_c, 8, 69, 0
1, 14467, Note_on_c, 8, 63, 0
1, 14467, Note_on_c, 8, 63, 0
1, 14467, Note_on_c, 8, 66, 0
1, 14467, Note_on_c, 8, 83, 100
1, 14467, Note_on_c, 8, 71, 100
1, 14467, Note_on_c, 8, 64, 100
1, 14467, Note_on_c, 8, 64, 100
1, 14467, Note_on_c, 8, 68, 100
1, 14490, Note_on_c, 8, 83, 0
1, 14490, Note_on_c, 8, 71, 0
1, 14490, Note_on_c, 8, 64, 0
1, 14490, Note_on_c, 8, 64, 0
1, 14490, Note_on_c, 8, 68, 0
1, 14490, Note_on_c, 8, 81, 100
1, 14490, Note_on_c, 8, 69, 100
1, 14490, Note_on_c, 8, 63, 100
1, 14490, Note_on_c, 8, 63, 100
1, 14490, Note_on_c, 8, 66, 100
1, 14512, Note_on_c, 8, 81, 0
1, 14512, Note_on_c, 8, 69, 0
1, 14512, Note_on_c, 8, 63, 0
1, 14512, Note_on_c, 8, 63, 0
1, 14512, Note_on_c, 8, 66, 0
1, 14512, Note_on_c, 8, 83, 100
1, 14512, Note_on_c, 8, 71, 100
1, 14512, Note_on_c, 8, 64, 100
1, 14512, Note_on_c, 8, 64, 100
1, 14512, Note_on_c, 8, 68, 100
1, 14535, Note_on_c, 8, 83, 0
1, 14535, Note_on_c, 8, 71, 0
1, 14535, Note_on_c, 8, 64, 0
1, 14535, Note_on_c, 8, 64, 0
1, 14535, Note_on_c, 8, 68, 0
1, 14535, Note_on_c, 8, 81, 100
1, 14535, Note_on_c, 8, 69, 100
1, 14535, Note_on_c, 8, 63, 100
1, 14535, Note_on_c, 8, 63, 100
1, 14535, Note_on_c, 8, 66, 100
1, 14558, Note_on_c, 8, 81, 0
1, 14558, Note_on_c, 8, 69, 0
1, 14558, Note_on_c, 8, 63, 0
1, 14558, Note_on_c, 8, 63, 0
1, 14558, Note_on_c, 8, 66, 0
1, 14558, Note_on_c, 8, 83, 100
1, 14558, Note_on_c, 8, 71, 100
1, 14558, Note_on_c, 8, 64, 100
1, 14558, Note_on_c, 8, 64, 100
1, 14558, Note_on_c, 8, 68, 100
1, 14580, Note_on_c, 8, 83, 0
1, 14580, Note_on_c, 8, 71, 0
1, 14580, Note_on_c, 8, 64, 0
1, 14580, Note_on_c, 8, 64, 0
1, 14580, Note_on_c, 8, 68, 0
1, 14580, Note_on_c, 0, 83, 100
1, 14580, Note_on_c, 5, 71, 105
1, 14580, Note_on_c, 5, 71, 105
1, 14580, Note_on_c, 8, 81, 100
1, 14580, Note_on_c, 8, 69, 100
1, 14580, Note_on_c, 8, 63, 100
1, 14580, Note_on_c, 8, 63, 100
1, 14580, Note_on_c, 8, 66, 100
1, 14583, Note_on_c, 0, 87, 0
1, 14583, Note_on_c, 5, 75, 0
1, 14583, Note_on_c, 5, 75, 0
1, 14716, Note_on_c, 1, 81, 0
1, 14716, Note_on_c, 1, 73, 0
1, 14716, Note_on_c, 2, 54, 0
1, 14716, Note_on_c, 2, 63, 0
1, 14716, Note_on_c, 8, 81, 0
1, 14716, Note_on_c, 8, 69, 0
1, 14716, Note_on_c, 8, 63, 0
1, 14716, Note_on_c, 0, 85, 100
1, 14716, Note_on_c, 1, 79, 100
1, 14716, Note_on_c, 1, 71, 100
1, 14716, Note_on_c, 2, 64, 100
1, 14716, Note_on_c, 2, 55, 100
1, 14716, Note_on_c, 5, 73, 105
1, 14716, Note_on_c, 5, 73, 105
1, 14716, Note_on_c, 8, 81, 100
1, 14716, Note_on_c, 8, 69, 100
1, 14716, Note_on_c, 8, 64, 100
1, 14716, Note_on_c, 8, 64, 100
1, 14716, Note_on_c, 8, 67, 100
1, 14719, Note_on_c, 0, 83, 0
1, 14719, Note_on_c, 5, 71, 0
1, 14719, Note_on_c, 5, 71, 0
1, 14719, Note_on_c, 8, 63, 0
1, 14719, Note_on_c, 8, 66, 0
1, 14739, Note_on_c, 8, 81, 0
1, 14739, Note_on_c, 8, 69, 0
1, 14739, Note_on_c, 8, 64, 0
1, 14739, Note_on_c, 8, 64, 0
1, 14739, Note_on_c, 8, 67, 0
1, 14739, Note_on_c, 8, 83, 100
1, 14739, Note_on_c, 8, 71, 100
1, 14739, Note_on_c, 8, 66, 100
1, 14739, Note_on_c, 8, 66, 100
1, 14739, Note_on_c, 8, 69, 100
1, 14762, Note_on_c, 8, 83, 0
1, 14762, Note_on_c, 8, 71, 0
1, 14762, Note_on_c, 8, 66, 0
1, 14762, Note_on_c, 8, 66, 0
1, 14762, Note_on_c, 8, 69, 0
1, 14762, Note_on_c, 8, 81, 100
1, 14762, Note_on_c, 8, 69, 100
1, 14762, Note_on_c, 8, 64, 100
1, 14762, Note_on_c, 8, 64, 100
1, 14762, Note_on_c, 8, 67, 100
1, 14784, Note_on_c, 8, 81, 0
1, 14784, Note_on_c, 8, 69, 0
1, 14784, Note_on_c, 8, 64, 0
1, 14784, Note_on_c, 8, 64, 0
1, 14784, Note_on_c, 8, 67, 0
1, 14784, Note_on_c, 8, 83, 100
1, 14784, Note_on_c, 8, 71, 100
1, 14784, Note_on_c, 8, 66, 100
1, 14784, Note_on_c, 8, 66, 100
1, 14784, Note_on_c, 8, 69, 100
1, 14807, Note_on_c, 8, 83, 0
1, 14807, Note_on_c, 8, 71, 0
1, 14807, Note_on_c, 8, 66, 0
1, 14807, Note_on_c, 8, 66, 0
1, 14807, Note_on_c, 8, 69, 0
1, 14807, Note_on_c, 8, 81, 100
1, 14807, Note_on_c, 8, 69, 100
1, 14807, Note_on_c, 8, 64, 100
1, 14807, Note_on_c, 8, 64, 100
1, 14807, Note_on_c, 8, 67, 100
1, 14830, Note_on_c, 8, 81, 0
1, 14830, Note_on_c, 8, 69, 0
1, 14830, Note_on_c, 8, 64, 0
1, 14830, Note_on_c, 8, 64, 0
1, 14830, Note_on_c, 8, 67, 0
1, 14830, Note_on_c, 8, 83, 100
1, 14830, Note_on_c, 8, 71, 100
1, 14830, Note_on_c, 8, 66, 100
1, 14830, Note_on_c, 8, 66, 100
1, 14830, Note_on_c, 8, 69, 100
1, 14852, Note_on_c, 8, 83, 0
1, 14852, Note_on_c, 8, 71, 0
1, 14852, Note_on_c, 8, 66, 0
1, 14852, Note_on_c, 8, 66, 0
1, 14852, Note_on_c, 8, 69, 0
1, 14852, Note_on_c, 8, 81, 100
1, 14852, Note_on_c, 8, 69, 100
1, 14852, Note_on_c, 8, 64, 100
1, 14852, Note_on_c, 8, 64, 100
1, 14852, Note_on_c, 8, 67, 100
1, 14988, Note_on_c, 1, 79, 0
1, 14988, Note_on_c, 1, 71, 0
1, 14988, Note_on_c, 2, 64, 0
1, 14988, Note_on_c, 2, 55, 0
1, 14988, Note_on_c, 8, 81, 0
1, 14988, Note_on_c, 8, 69, 0
1, 14988, Note_on_c, 8, 64, 0
1, 14988, Note_on_c, 1, 78, 100
1, 14988, Note_on_c, 1, 69, 100
1, 14988, Note_on_c, 2, 57, 100
1, 14988, Note_on_c, 2, 66, 100
1, 14988, Note_on_c, 8, 81, 100
1, 14988, Note_on_c, 8, 69, 100
1, 14988, Note_on_c, 8, 66, 100
1, 14988, Note_on_c, 8, 66, 100
1, 14988, Note_on_c, 8, 69, 100
1, 14991, Note_on_c, 8, 64, 0
1, 14991, Note_on_c, 8, 67, 0
1, 15011, Note_on_c, 8, 81, 0
1, 15011, Note_on_c, 8, 69, 0
1, 15011, Note_on_c, 8, 66, 0
1, 15011, Note_on_c, 8, 66, 0
1, 15011, Note_on_c, 8, 69, 0
1, 15011, Note_on_c, 8, 63, 100
1, 15011, Note_on_c, 8, 63, 100
1, 15011, Note_on_c, 8, 68, 100
1, 15011, Note_on_c, 8, 68, 100
1, 15011, Note_on_c, 8, 71, 100
1, 15033, Note_on_c, 8, 63, 0
1, 15033, Note_on_c, 8, 63, 0
1, 15033, Note_on_c, 8, 68, 0
1, 15033, Note_on_c, 8, 68, 0
1, 15033, Note_on_c, 8, 71, 0
1, 15033, Note_on_c, 8, 64, 100
1, 15033, Note_on_c, 8, 64, 100
1, 15033, Note_on_c, 8, 66, 100
1, 15033, Note_on_c, 8, 66, 100
1, 15033, Note_on_c, 8, 69, 100
1, 15056, Note_on_c, 8, 64, 0
1, 15056, Note_on_c, 8, 64, 0
1, 15056, Note_on_c, 8, 66, 0
1, 15056, Note_on_c, 8, 66, 0
1, 15056, Note_on_c, 8, 69, 0
1, 15056, Note_on_c, 8, 66, 100
1, 15056, Note_on_c, 8, 66, 100
1, 15056, Note_on_c, 8, 68, 100
1, 15056, Note_on_c, 8, 68, 100
1, 15056, Note_on_c, 8, 71, 100
1, 15078, Note_on_c, 8, 66, 0
1, 15078, Note_on_c, 8, 66, 0
1, 15078, Note_on_c, 8, 68, 0
1, 15078, Note_on_c, 8, 68, 0
1, 15078, Note_on_c, 8, 71, 0
1, 15078, Note_on_c, 8, 68, 100
1, 15078, Note_on_c, 8, 68, 100
1, 15078, Note_on_c, 8, 66, 100
1, 15078, Note_on_c, 8, 66, 100
1, 15078, Note_on_c, 8, 69, 100
1, 15101, Note_on_c, 8, 68, 0
1, 15101, Note_on_c, 8, 68, 0
1, 15101, Note_on_c, 8, 66, 0
1, 15101, Note_on_c, 8, 66, 0
1, 15101, Note_on_c, 8, 69, 0
1, 15101, Note_on_c, 8, 69, 100
1, 15101, Note_on_c, 8, 69, 100
1, 15101, Note_on_c, 8, 68, 100
1, 15101, Note_on_c, 8, 68, 100
1, 15101, Note_on_c, 8, 71, 100
1, 15124, Note_on_c, 8, 69, 0
1, 15124, Note_on_c, 8, 69, 0
1, 15124, Note_on_c, 8, 68, 0
1, 15124, Note_on_c, 8, 68, 0
1, 15124, Note_on_c, 8, 71, 0
1, 15124, Note_on_c, 8, 71, 100
1, 15124, Note_on_c, 8, 71, 100
1, 15124, Note_on_c, 8, 66, 100
1, 15124, Note_on_c, 8, 66, 100
1, 15124, Note_on_c, 8, 69, 100
1, 15146, Note_on_c, 8, 71, 0
1, 15146, Note_on_c, 8, 71, 0
1, 15146, Note_on_c, 8, 73, 100
1, 15146, Note_on_c, 8, 73, 100
1, 15169, Note_on_c, 8, 73, 0
1, 15169, Note_on_c, 8, 73, 0
1, 15169, Note_on_c, 8, 75, 100
1, 15169, Note_on_c, 8, 75, 100
1, 15192, Note_on_c, 8, 75, 0
1, 15192, Note_on_c, 8, 75, 0
1, 15192, Note_on_c, 8, 76, 100
1, 15192, Note_on_c, 8, 76, 100
1, 15214, Note_on_c, 8, 76, 0
1, 15214, Note_on_c, 8, 76, 0
1, 15214, Note_on_c, 8, 78, 100
1, 15214, Note_on_c, 8, 78, 100
1, 15237, Note_on_c, 2, 57, 0
1, 15237, Note_on_c, 2, 66, 0
1, 15237, Note_on_c, 8, 78, 0
1, 15237, Note_on_c, 8, 78, 0
1, 15237, Note_on_c, 8, 80, 100
1, 15237, Note_on_c, 8, 80, 100
1, 15248, Note_on_c, 3, 35, 0
1, 15248, Note_on_c, 1, 78, 0
1, 15260, Note_on_c, 8, 35, 0
1, 15260, Note_on_c, 8, 47, 0
1, 15260, Note_on_c, 0, 85, 0
1, 15260, Note_on_c, 5, 73, 0
1, 15260, Note_on_c, 5, 73, 0
1, 15260, Note_on_c, 1, 69, 0
1, 15260, Note_on_c, 8, 66, 0
1, 15260, Note_on_c, 8, 66, 0
1, 15260, Note_on_c, 8, 69, 0
1, 15260, Note_on_c, 8, 80, 0
1, 15260, Note_on_c, 8, 80, 0
1, 15260, Note_on_c, 0, 83, 50
1, 15260, Note_on_c, 0, 88, 100
1, 15260, Control_c, 1, 11, 53
1, 15260, Note_on_c, 1, 73, 100
1, 15260, Note_on_c, 1, 81, 100
1, 15260, Control_c, 2, 11, 53
1, 15260, Note_on_c, 2, 58, 100
1, 15260, Note_on_c, 2, 64, 100
1, 15260, Note_on_c, 3, 49, 100
1, 15260, Note_on_c, 3, 35, 100
1, 15260, Control_c, 5, 11, 48
1, 15260, Note_on_c, 5, 76, 105
1, 15260, Note_on_c, 5, 76, 105
1, 15260, Control_c, 8, 11, 48
1, 15260, Note_on_c, 8, 81, 100
1, 15260, Note_on_c, 8, 69, 100
1, 15260, Note_on_c, 8, 69, 100
1, 15260, Note_on_c, 8, 61, 100
1, 15260, Note_on_c, 8, 57, 100
1, 15260, Note_on_c, 8, 35, 100
1, 15260, Note_on_c, 8, 47, 100
1, 15279, Note_on_c, 8, 81, 0
1, 15279, Note_on_c, 8, 69, 0
1, 15282, Note_on_c, 8, 69, 0
1, 15282, Note_on_c, 8, 61, 0
1, 15282, Note_on_c, 8, 57, 0
1, 15282, Note_on_c, 8, 81, 100
1, 15282, Note_on_c, 8, 69, 100
1, 15282, Note_on_c, 8, 71, 100
1, 15282, Note_on_c, 8, 63, 100
1, 15282, Note_on_c, 8, 59, 100
1, 15301, Note_on_c, 8, 81, 0
1, 15301, Note_on_c, 8, 69, 0
1, 15304, Note_on_c, 8, 71, 0
1, 15304, Note_on_c, 8, 63, 0
1, 15304, Note_on_c, 8, 59, 0
1, 15304, Note_on_c, 8, 81, 100
1, 15304, Note_on_c, 8, 69, 100
1, 15304, Note_on_c, 8, 69, 100
1, 15304, Note_on_c, 8, 61, 100
1, 15304, Note_on_c, 8, 57, 100
1, 15324, Note_on_c, 8, 81, 0
1, 15324, Note_on_c, 8, 69, 0
1, 15326, Note_on_c, 8, 69, 0
1, 15326, Note_on_c, 8, 61, 0
1, 15326, Note_on_c, 8, 57, 0
1, 15326, Control_c, 3, 11, 53
1, 15326, Note_on_c, 8, 81, 100
1, 15326, Note_on_c, 8, 69, 100
1, 15326, Note_on_c, 8, 71, 100
1, 15326, Note_on_c, 8, 63, 100
1, 15326, Note_on_c, 8, 59, 100
1, 15346, Note_on_c, 8, 81, 0
1, 15346, Note_on_c, 8, 69, 0
1, 15348, Note_on_c, 8, 71, 0
1, 15348, Note_on_c, 8, 63, 0
1, 15348, Note_on_c, 8, 59, 0
1, 15348, Note_on_c, 8, 81, 100
1, 15348, Note_on_c, 8, 69, 100
1, 15348, Note_on_c, 8, 69, 100
1, 15348, Note_on_c, 8, 61, 100
1, 15348, Note_on_c, 8, 57, 100
1, 15368, Note_on_c, 8, 81, 0
1, 15368, Note_on_c, 8, 69, 0
1, 15371, Note_on_c, 8, 69, 0
1, 15371, Note_on_c, 8, 61, 0
1, 15371, Note_on_c, 8, 57, 0
1, 15371, Note_on_c, 8, 81, 100
1, 15371, Note_on_c, 8, 69, 100
1, 15371, Note_on_c, 8, 71, 100
1, 15371, Note_on_c, 8, 63, 100
1, 15371, Note_on_c, 8, 59, 100
1, 15390, Note_on_c, 8, 81, 0
1, 15390, Note_on_c, 8, 69, 0
1, 15393, Note_on_c, 8, 71, 0
1, 15393, Note_on_c, 8, 63, 0
1, 15393, Note_on_c, 8, 59, 0
1, 15393, Control_c, 1, 11, 56
1, 15393, Control_c, 2, 11, 56
1, 15393, Control_c, 3, 11, 56
1, 15393, Control_c, 5, 11, 51
1, 15393, Control_c, 8, 11, 51
1, 15393, Note_on_c, 8, 81, 100
1, 15393, Note_on_c, 8, 69, 100
1, 15393, Note_on_c, 8, 69, 100
1, 15393, Note_on_c, 8, 61, 100
1, 15393, Note_on_c, 8, 57, 100
1, 15412, Note_on_c, 8, 81, 0
1, 15412, Note_on_c, 8, 69, 0
1, 15415, Note_on_c, 8, 81, 100
1, 15415, Note_on_c, 8, 69, 100
1, 15435, Note_on_c, 8, 81, 0
1, 15435, Note_on_c, 8, 69, 0
1, 15438, Note_on_c, 8, 81, 100
1, 15438, Note_on_c, 8, 69, 100
1, 15457, Note_on_c, 8, 81, 0
1, 15457, Note_on_c, 8, 69, 0
1, 15460, Control_c, 3, 11, 59
1, 15460, Note_on_c, 8, 81, 100
1, 15460, Note_on_c, 8, 69, 100
1, 15479, Note_on_c, 8, 81, 0
1, 15479, Note_on_c, 8, 69, 0
1, 15482, Note_on_c, 8, 81, 100
1, 15482, Note_on_c, 8, 69, 100
1, 15501, Note_on_c, 8, 81, 0
1, 15501, Note_on_c, 8, 69, 0
1, 15504, Note_on_c, 8, 81, 100
1, 15504, Note_on_c, 8, 69, 100
1, 15524, Note_on_c, 8, 81, 0
1, 15524, Note_on_c, 8, 69, 0
1, 15526, Note_on_c, 0, 83, 0
1, 15526, Note_on_c, 1, 73, 0
1, 15526, Note_on_c, 2, 58, 0
1, 15526, Note_on_c, 2, 64, 0
1, 15526, Note_on_c, 3, 49, 0
1, 15526, Control_c, 0, 11, 83
1, 15526, Note_on_c, 0, 81, 50
1, 15526, Control_c, 1, 11, 58
1, 15526, Note_on_c, 1, 71, 100
1, 15526, Control_c, 2, 11, 58
1, 15526, Note_on_c, 2, 59, 100
1, 15526, Note_on_c, 2, 66, 100
1, 15526, Note_on_c, 3, 51, 100
1, 15526, Control_c, 5, 11, 54
1, 15526, Control_c, 8, 11, 54
1, 15526, Note_on_c, 8, 81, 100
1, 15526, Note_on_c, 8, 69, 100
1, 15526, Note_on_c, 8, 71, 100
1, 15526, Note_on_c, 8, 63, 100
1, 15526, Note_on_c, 8, 59, 100
1, 15529, Note_on_c, 8, 69, 0
1, 15529, Note_on_c, 8, 61, 0
1, 15529, Note_on_c, 8, 57, 0
1, 15546, Note_on_c, 8, 81, 0
1, 15546, Note_on_c, 8, 69, 0
1, 15548, Note_on_c, 8, 71, 0
1, 15548, Note_on_c, 8, 63, 0
1, 15548, Note_on_c, 8, 59, 0
1, 15548, Note_on_c, 8, 81, 100
1, 15548, Note_on_c, 8, 69, 100
1, 15548, Note_on_c, 8, 73, 100
1, 15548, Note_on_c, 8, 64, 100
1, 15548, Note_on_c, 8, 61, 100
1, 15568, Note_on_c, 8, 81, 0
1, 15568, Note_on_c, 8, 69, 0
1, 15571, Note_on_c, 8, 73, 0
1, 15571, Note_on_c, 8, 64, 0
1, 15571, Note_on_c, 8, 61, 0
1, 15571, Note_on_c, 8, 81, 100
1, 15571, Note_on_c, 8, 69, 100
1, 15571, Note_on_c, 8, 71, 100
1, 15571, Note_on_c, 8, 63, 100
1, 15571, Note_on_c, 8, 59, 100
1, 15590, Note_on_c, 8, 81, 0
1, 15590, Note_on_c, 8, 69, 0
1, 15593, Note_on_c, 8, 71, 0
1, 15593, Note_on_c, 8, 63, 0
1, 15593, Note_on_c, 8, 59, 0
1, 15593, Control_c, 3, 11, 62
1, 15593, Note_on_c, 8, 81, 100
1, 15593, Note_on_c, 8, 69, 100
1, 15593, Note_on_c, 8, 73, 100
1, 15593, Note_on_c, 8, 64, 100
1, 15593, Note_on_c, 8, 61, 100
1, 15612, Note_on_c, 8, 81, 0
1, 15612, Note_on_c, 8, 69, 0
1, 15615, Note_on_c, 8, 73, 0
1, 15615, Note_on_c, 8, 64, 0
1, 15615, Note_on_c, 8, 61, 0
1, 15615, Note_on_c, 8, 81, 100
1, 15615, Note_on_c, 8, 69, 100
1, 15615, Note_on_c, 8, 71, 100
1, 15615, Note_on_c, 8, 63, 100
1, 15615, Note_on_c, 8, 59, 100
1, 15635, Note_on_c, 8, 81, 0
1, 15635, Note_on_c, 8, 69, 0
1, 15638, Note_on_c, 8, 71, 0
1, 15638, Note_on_c, 8, 63, 0
1, 15638, Note_on_c, 8, 59, 0
1, 15638, Note_on_c, 8, 81, 100
1, 15638, Note_on_c, 8, 69, 100
1, 15638, Note_on_c, 8, 73, 100
1, 15638, Note_on_c, 8, 64, 100
1, 15638, Note_on_c, 8, 61, 100
1, 15657, Note_on_c, 8, 81, 0
1, 15657, Note_on_c, 8, 69, 0
1, 15660, Note_on_c, 8, 73, 0
1, 15660, Note_on_c, 8, 64, 0
1, 15660, Note_on_c, 8, 61, 0
1, 15660, Note_on_c, 0, 87, 100
1, 15660, Control_c, 1, 11, 60
1, 15660, Control_c, 2, 11, 60
1, 15660, Control_c, 3, 11, 65
1, 15660, Control_c, 5, 11, 57
1, 15660, Note_on_c, 5, 75, 105
1, 15660, Note_on_c, 5, 75, 105
1, 15660, Control_c, 8, 11, 57
1, 15660, Note_on_c, 8, 81, 100
1, 15660, Note_on_c, 8, 69, 100
1, 15660, Note_on_c, 8, 71, 100
1, 15660, Note_on_c, 8, 63, 100
1, 15660, Note_on_c, 8, 59, 100
1, 15662, Note_on_c, 0, 88, 0
1, 15662, Note_on_c, 5, 76, 0
1, 15662, Note_on_c, 5, 76, 0
1, 15679, Note_on_c, 8, 81, 0
1, 15679, Note_on_c, 8, 69, 0
1, 15682, Note_on_c, 8, 81, 100
1, 15682, Note_on_c, 8, 69, 100
1, 15701, Note_on_c, 8, 81, 0
1, 15701, Note_on_c, 8, 69, 0
1, 15704, Note_on_c, 8, 81, 100
1, 15704, Note_on_c, 8, 69, 100
1, 15724, Note_on_c, 8, 81, 0
1, 15724, Note_on_c, 8, 69, 0
1, 15726, Control_c, 0, 11, 86
1, 15726, Control_c, 3, 11, 68
1, 15726, Note_on_c, 8, 81, 100
1, 15726, Note_on_c, 8, 69, 100
1, 15746, Note_on_c, 8, 81, 0
1, 15746, Note_on_c, 8, 69, 0
1, 15748, Note_on_c, 8, 81, 100
1, 15748, Note_on_c, 8, 69, 100
1, 15768, Note_on_c, 8, 81, 0
1, 15768, Note_on_c, 8, 69, 0
1, 15771, Note_on_c, 8, 81, 100
1, 15771, Note_on_c, 8, 69, 100
1, 15790, Note_on_c, 8, 81, 0
1, 15790, Note_on_c, 8, 69, 0
1, 15793, Note_on_c, 0, 81, 0
1, 15793, Note_on_c, 1, 71, 0
1, 15793, Note_on_c, 2, 59, 0
1, 15793, Note_on_c, 2, 66, 0
1, 15793, Note_on_c, 3, 51, 0
1, 15793, Note_on_c, 0, 85, 100
1, 15793, Note_on_c, 0, 80, 50
1, 15793, Control_c, 1, 11, 62
1, 15793, Note_on_c, 1, 69, 100
1, 15793, Control_c, 2, 11, 62
1, 15793, Note_on_c, 2, 61, 100
1, 15793, Note_on_c, 2, 68, 100
1, 15793, Note_on_c, 3, 52, 100
1, 15793, Control_c, 5, 11, 60
1, 15793, Note_on_c, 5, 73, 105
1, 15793, Note_on_c, 5, 73, 105
1, 15793, Control_c, 8, 11, 60
1, 15793, Note_on_c, 8, 81, 100
1, 15793, Note_on_c, 8, 69, 100
1, 15793, Note_on_c, 8, 73, 100
1, 15793, Note_on_c, 8, 64, 100
1, 15793, Note_on_c, 8, 61, 100
1, 15796, Note_on_c, 0, 87, 0
1, 15796, Note_on_c, 5, 75, 0
1, 15796, Note_on_c, 5, 75, 0
1, 15796, Note_on_c, 8, 71, 0
1, 15796, Note_on_c, 8, 63, 0
1, 15796, Note_on_c, 8, 59, 0
1, 15812, Note_on_c, 8, 81, 0
1, 15812, Note_on_c, 8, 69, 0
1, 15815, Note_on_c, 8, 73, 0
1, 15815, Note_on_c, 8, 64, 0
1, 15815, Note_on_c, 8, 61, 0
1, 15815, Note_on_c, 8, 81, 100
1, 15815, Note_on_c, 8, 69, 100
1, 15815, Note_on_c, 8, 75, 100
1, 15815, Note_on_c, 8, 66, 100
1, 15815, Note_on_c, 8, 63, 100
1, 15835, Note_on_c, 8, 81, 0
1, 15835, Note_on_c, 8, 69, 0
1, 15838, Note_on_c, 8, 75, 0
1, 15838, Note_on_c, 8, 66, 0
1, 15838, Note_on_c, 8, 63, 0
1, 15838, Note_on_c, 8, 81, 100
1, 15838, Note_on_c, 8, 69, 100
1, 15838, Note_on_c, 8, 73, 100
1, 15838, Note_on_c, 8, 64, 100
1, 15838, Note_on_c, 8, 61, 100
1, 15857, Note_on_c, 8, 81, 0
1, 15857, Note_on_c, 8, 69, 0
1, 15860, Note_on_c, 8, 73, 0
1, 15860, Note_on_c, 8, 64, 0
1, 15860, Note_on_c, 8, 61, 0
1, 15860, Control_c, 0, 11, 89
1, 15860, Control_c, 3, 11, 71
1, 15860, Note_on_c, 8, 81, 100
1, 15860, Note_on_c, 8, 69, 100
1, 15860, Note_on_c, 8, 75, 100
1, 15860, Note_on_c, 8, 66, 100
1, 15860, Note_on_c, 8, 63, 100
1, 15879, Note_on_c, 8, 81, 0
1, 15879, Note_on_c, 8, 69, 0
1, 15882, Note_on_c, 8, 75, 0
1, 15882, Note_on_c, 8, 66, 0
1, 15882, Note_on_c, 8, 63, 0
1, 15882, Note_on_c, 8, 81, 100
1, 15882, Note_on_c, 8, 69, 100
1, 15882, Note_on_c, 8, 73, 100
1, 15882, Note_on_c, 8, 64, 100
1, 15882, Note_on_c, 8, 61, 100
1, 15901, Note_on_c, 8, 81, 0
1, 15901, Note_on_c, 8, 69, 0
1, 15904, Note_on_c, 8, 73, 0
1, 15904, Note_on_c, 8, 64, 0
1, 15904, Note_on_c, 8, 61, 0
1, 15904, Note_on_c, 8, 81, 100
1, 15904, Note_on_c, 8, 69, 100
1, 15904, Note_on_c, 8, 75, 100
1, 15904, Note_on_c, 8, 66, 100
1, 15904, Note_on_c, 8, 63, 100
1, 15924, Note_on_c, 8, 81, 0
1, 15924, Note_on_c, 8, 69, 0
1, 15926, Note_on_c, 8, 75, 0
1, 15926, Note_on_c, 8, 66, 0
1, 15926, Note_on_c, 8, 63, 0
1, 15926, Note_on_c, 0, 88, 100
1, 15926, Control_c, 1, 11, 64
1, 15926, Control_c, 2, 11, 64
1, 15926, Control_c, 3, 11, 74
1, 15926, Control_c, 5, 11, 63
1, 15926, Note_on_c, 5, 76, 105
1, 15926, Note_on_c, 5, 76, 105
1, 15926, Control_c, 8, 11, 63
1, 15926, Note_on_c, 8, 81, 100
1, 15926, Note_on_c, 8, 69, 100
1, 15926, Note_on_c, 8, 73, 100
1, 15926, Note_on_c, 8, 64, 100
1, 15926, Note_on_c, 8, 61, 100
1, 15929, Note_on_c, 0, 85, 0
1, 15929, Note_on_c, 5, 73, 0
1, 15929, Note_on_c, 5, 73, 0
1, 15946, Note_on_c, 8, 81, 0
1, 15946, Note_on_c, 8, 69, 0
1, 15948, Note_on_c, 8, 81, 100
1, 15948, Note_on_c, 8, 69, 100
1, 15968, Note_on_c, 8, 81, 0
1, 15968, Note_on_c, 8, 69, 0
1, 15971, Note_on_c, 8, 81, 100
1, 15971, Note_on_c, 8, 69, 100
1, 15990, Note_on_c, 8, 81, 0
1, 15990, Note_on_c, 8, 69, 0
1, 15993, Control_c, 0, 11, 92
1, 15993, Control_c, 3, 11, 77
1, 15993, Note_on_c, 8, 81, 100
1, 15993, Note_on_c, 8, 69, 100
1, 16012, Note_on_c, 8, 81, 0
1, 16012, Note_on_c, 8, 69, 0
1, 16015, Note_on_c, 8, 81, 100
1, 16015, Note_on_c, 8, 69, 100
1, 16035, Note_on_c, 8, 81, 0
1, 16035, Note_on_c, 8, 69, 0
1, 16038, Note_on_c, 8, 81, 100
1, 16038, Note_on_c, 8, 69, 100
1, 16057, Note_on_c, 8, 73, 0
1, 16057, Note_on_c, 8, 81, 0
1, 16057, Note_on_c, 8, 69, 0
1, 16060, Note_on_c, 0, 80, 0
1, 16060, Note_on_c, 1, 69, 0
1, 16060, Note_on_c, 2, 61, 0
1, 16060, Note_on_c, 2, 68, 0
1, 16060, Note_on_c, 3, 52, 0
1, 16060, Note_on_c, 8, 64, 0
1, 16060, Note_on_c, 8, 61, 0
1, 16060, Note_on_c, 0, 87, 100
1, 16060, Note_on_c, 0, 78, 50
1, 16060, Control_c, 1, 11, 67
1, 16060, Note_on_c, 1, 73, 100
1, 16060, Control_c, 2, 11, 67
1, 16060, Note_on_c, 2, 69, 100
1, 16060, Note_on_c, 2, 63, 100
1, 16060, Note_on_c, 3, 54, 100
1, 16060, Control_c, 5, 11, 67
1, 16060, Note_on_c, 5, 75, 105
1, 16060, Note_on_c, 5, 75, 105
1, 16060, Control_c, 8, 11, 67
1, 16060, Note_on_c, 8, 81, 100
1, 16060, Note_on_c, 8, 69, 100
1, 16060, Note_on_c, 8, 75, 100
1, 16060, Note_on_c, 8, 66, 100
1, 16060, Note_on_c, 8, 63, 100
1, 16062, Note_on_c, 0, 88, 0
1, 16062, Note_on_c, 5, 76, 0
1, 16062, Note_on_c, 5, 76, 0
1, 16079, Note_on_c, 8, 81, 0
1, 16079, Note_on_c, 8, 69, 0
1, 16082, Note_on_c, 8, 75, 0
1, 16082, Note_on_c, 8, 66, 0
1, 16082, Note_on_c, 8, 63, 0
1, 16082, Note_on_c, 8, 81, 100
1, 16082, Note_on_c, 8, 69, 100
1, 16082, Note_on_c, 8, 76, 100
1, 16082, Note_on_c, 8, 68, 100
1, 16082, Note_on_c, 8, 64, 100
1, 16101, Note_on_c, 8, 81, 0
1, 16101, Note_on_c, 8, 69, 0
1, 16104, Note_on_c, 8, 76, 0
1, 16104, Note_on_c, 8, 68, 0
1, 16104, Note_on_c, 8, 64, 0
1, 16104, Note_on_c, 8, 81, 100
1, 16104, Note_on_c, 8, 69, 100
1, 16104, Note_on_c, 8, 75, 100
1, 16104, Note_on_c, 8, 66, 100
1, 16104, Note_on_c, 8, 63, 100
1, 16124, Note_on_c, 8, 81, 0
1, 16124, Note_on_c, 8, 69, 0
1, 16126, Note_on_c, 8, 75, 0
1, 16126, Note_on_c, 8, 66, 0
1, 16126, Note_on_c, 8, 63, 0
1, 16126, Control_c, 0, 11, 95
1, 16126, Control_c, 1, 11, 70
1, 16126, Control_c, 2, 11, 70
1, 16126, Control_c, 3, 11, 80
1, 16126, Control_c, 5, 11, 70
1, 16126, Control_c, 8, 11, 70
1, 16126, Note_on_c, 8, 81, 100
1, 16126, Note_on_c, 8, 69, 100
1, 16126, Note_on_c, 8, 76, 100
1, 16126, Note_on_c, 8, 68, 100
1, 16126, Note_on_c, 8, 64, 100
1, 16146, Note_on_c, 8, 81, 0
1, 16146, Note_on_c, 8, 69, 0
1, 16148, Note_on_c, 8, 76, 0
1, 16148, Note_on_c, 8, 68, 0
1, 16148, Note_on_c, 8, 64, 0
1, 16148, Note_on_c, 8, 81, 100
1, 16148, Note_on_c, 8, 69, 100
1, 16148, Note_on_c, 8, 75, 100
1, 16148, Note_on_c, 8, 66, 100
1, 16148, Note_on_c, 8, 63, 100
1, 16168, Note_on_c, 8, 81, 0
1, 16168, Note_on_c, 8, 69, 0
1, 16171, Note_on_c, 8, 75, 0
1, 16171, Note_on_c, 8, 66, 0
1, 16171, Note_on_c, 8, 63, 0
1, 16171, Note_on_c, 8, 81, 100
1, 16171, Note_on_c, 8, 69, 100
1, 16171, Note_on_c, 8, 76, 100
1, 16171, Note_on_c, 8, 68, 100
1, 16171, Note_on_c, 8, 64, 100
1, 16190, Note_on_c, 8, 81, 0
1, 16190, Note_on_c, 8, 69, 0
1, 16193, Note_on_c, 8, 76, 0
1, 16193, Note_on_c, 8, 68, 0
1, 16193, Note_on_c, 8, 64, 0
1, 16193, Note_on_c, 0, 83, 100
1, 16193, Control_c, 1, 11, 73
1, 16193, Note_on_c, 1, 75, 100
1, 16193, Control_c, 2, 11, 73
1, 16193, Control_c, 3, 11, 83
1, 16193, Control_c, 5, 11, 73
1, 16193, Note_on_c, 5, 71, 105
1, 16193, Note_on_c, 5, 71, 105
1, 16193, Control_c, 8, 11, 73
1, 16193, Note_on_c, 8, 81, 100
1, 16193, Note_on_c, 8, 69, 100
1, 16193, Note_on_c, 8, 75, 100
1, 16193, Note_on_c, 8, 66, 100
1, 16193, Note_on_c, 8, 63, 100
1, 16196, Note_on_c, 1, 81, 0
1, 16196, Note_on_c, 0, 87, 0
1, 16196, Note_on_c, 5, 75, 0
1, 16196, Note_on_c, 5, 75, 0
1, 16212, Note_on_c, 8, 81, 0
1, 16212, Note_on_c, 8, 69, 0
1, 16215, Note_on_c, 8, 81, 100
1, 16215, Note_on_c, 8, 69, 100
1, 16235, Note_on_c, 8, 81, 0
1, 16235, Note_on_c, 8, 69, 0
1, 16238, Note_on_c, 8, 81, 100
1, 16238, Note_on_c, 8, 69, 100
1, 16257, Note_on_c, 8, 81, 0
1, 16257, Note_on_c, 8, 69, 0
1, 16260, Control_c, 1, 11, 76
1, 16260, Control_c, 2, 11, 76
1, 16260, Control_c, 3, 11, 86
1, 16260, Control_c, 5, 11, 76
1, 16260, Control_c, 8, 11, 76
1, 16260, Note_on_c, 8, 81, 100
1, 16260, Note_on_c, 8, 69, 100
1, 16279, Note_on_c, 8, 81, 0
1, 16279, Note_on_c, 8, 69, 0
1, 16282, Note_on_c, 8, 81, 100
1, 16282, Note_on_c, 8, 69, 100
1, 16301, Note_on_c, 8, 81, 0
1, 16301, Note_on_c, 8, 69, 0
1, 16304, Note_on_c, 8, 81, 100
1, 16304, Note_on_c, 8, 69, 100
1, 16324, Note_on_c, 8, 81, 0
1, 16324, Note_on_c, 8, 69, 0
1, 16326, Note_on_c, 3, 35, 0
1, 16326, Note_on_c, 8, 35, 0
1, 16326, Note_on_c, 8, 47, 0
1, 16326, Note_on_c, 0, 78, 0
1, 16326, Note_on_c, 2, 69, 0
1, 16326, Note_on_c, 2, 63, 0
1, 16326, Note_on_c, 3, 54, 0
1, 16326, Note_on_c, 8, 63, 0
1, 16326, Note_on_c, 0, 76, 50
1, 16326, Note_on_c, 0, 85, 100
1, 16326, Control_c, 1, 11, 79
1, 16326, Note_on_c, 1, 76, 100
1, 16326, Control_c, 2, 11, 79
1, 16326, Note_on_c, 2, 61, 100
1, 16326, Note_on_c, 2, 71, 100
1, 16326, Note_on_c, 3, 56, 100
1, 16326, Note_on_c, 3, 44, 100
1, 16326, Control_c, 5, 11, 79
1, 16326, Note_on_c, 5, 73, 105
1, 16326, Note_on_c, 5, 73, 105
1, 16326, Control_c, 8, 11, 79
1, 16326, Note_on_c, 8, 71, 100
1, 16326, Note_on_c, 8, 71, 100
1, 16326, Note_on_c, 8, 76, 100
1, 16326, Note_on_c, 8, 64, 100
1, 16326, Note_on_c, 8, 76, 100
1, 16326, Note_on_c, 8, 63, 100
1, 16326, Note_on_c, 8, 44, 100
1, 16326, Note_on_c, 8, 56, 100
1, 16329, Note_on_c, 0, 83, 0
1, 16329, Note_on_c, 1, 75, 0
1, 16329, Note_on_c, 5, 71, 0
1, 16329, Note_on_c, 5, 71, 0
1, 16329, Note_on_c, 8, 75, 0
1, 16329, Note_on_c, 8, 66, 0
1, 16346, Note_on_c, 8, 76, 0
1, 16346, Note_on_c, 8, 64, 0
1, 16348, Note_on_c, 8, 71, 0
1, 16348, Note_on_c, 8, 71, 0
1, 16348, Note_on_c, 8, 76, 0
1, 16348, Note_on_c, 8, 63, 0
1, 16348, Note_on_c, 8, 73, 100
1, 16348, Note_on_c, 8, 73, 100
1, 16348, Note_on_c, 8, 76, 100
1, 16348, Note_on_c, 8, 64, 100
1, 16348, Note_on_c, 8, 73, 100
1, 16348, Note_on_c, 8, 64, 100
1, 16368, Note_on_c, 8, 76, 0
1, 16368, Note_on_c, 8, 64, 0
1, 16371, Note_on_c, 8, 73, 0
1, 16371, Note_on_c, 8, 73, 0
1, 16371, Note_on_c, 8, 73, 0
1, 16371, Note_on_c, 8, 64, 0
1, 16371, Note_on_c, 8, 71, 100
1, 16371, Note_on_c, 8, 71, 100
1, 16371, Note_on_c, 8, 76, 100
1, 16371, Note_on_c, 8, 64, 100
1, 16371, Note_on_c, 8, 76, 100
1, 16371, Note_on_c, 8, 63, 100
1, 16390, Note_on_c, 8, 76, 0
1, 16390, Note_on_c, 8, 64, 0
1, 16393, Note_on_c, 8, 71, 0
1, 16393, Note_on_c, 8, 71, 0
1, 16393, Note_on_c, 8, 76, 0
1, 16393, Note_on_c, 8, 63, 0
1, 16393, Control_c, 0, 11, 98
1, 16393, Control_c, 1, 11, 82
1, 16393, Control_c, 2, 11, 82
1, 16393, Control_c, 3, 11, 89
1, 16393, Control_c, 8, 11, 82
1, 16393, Note_on_c, 8, 73, 100
1, 16393, Note_on_c, 8, 73, 100
1, 16393, Note_on_c, 8, 76, 100
1, 16393, Note_on_c, 8, 64, 100
1, 16393, Note_on_c, 8, 73, 100
1, 16393, Note_on_c, 8, 64, 100
1, 16412, Note_on_c, 8, 76, 0
1, 16412, Note_on_c, 8, 64, 0
1, 16415, Note_on_c, 8, 73, 0
1, 16415, Note_on_c, 8, 73, 0
1, 16415, Note_on_c, 8, 73, 0
1, 16415, Note_on_c, 8, 64, 0
1, 16415, Note_on_c, 8, 71, 100
1, 16415, Note_on_c, 8, 71, 100
1, 16415, Note_on_c, 8, 76, 100
1, 16415, Note_on_c, 8, 64, 100
1, 16415, Note_on_c, 8, 76, 100
1, 16415, Note_on_c, 8, 63, 100
1, 16432, Note_on_c, 0, 76, 0
1, 16435, Note_on_c, 8, 76, 0
1, 16435, Note_on_c, 8, 64, 0
1, 16438, Note_on_c, 8, 71, 0
1, 16438, Note_on_c, 8, 71, 0
1, 16438, Note_on_c, 8, 76, 0
1, 16438, Note_on_c, 8, 63, 0
1, 16438, Note_on_c, 8, 73, 100
1, 16438, Note_on_c, 8, 73, 100
1, 16438, Note_on_c, 8, 76, 100
1, 16438, Note_on_c, 8, 64, 100
1, 16438, Note_on_c, 8, 73, 100
1, 16438, Note_on_c, 8, 64, 100
1, 16457, Note_on_c, 8, 76, 0
1, 16457, Note_on_c, 8, 64, 0
1, 16460, Note_on_c, 8, 73, 0
1, 16460, Note_on_c, 8, 73, 0
1, 16460, Note_on_c, 8, 73, 0
1, 16460, Note_on_c, 8, 64, 0
1, 16460, Control_c, 1, 11, 85
1, 16460, Control_c, 2, 11, 85
1, 16460, Control_c, 3, 11, 92
1, 16460, Control_c, 8, 11, 85
1, 16460, Note_on_c, 8, 71, 100
1, 16460, Note_on_c, 8, 71, 100
1, 16460, Note_on_c, 8, 76, 100
1, 16460, Note_on_c, 8, 64, 100
1, 16460, Note_on_c, 8, 76, 100
1, 16460, Note_on_c, 8, 63, 100
1, 16479, Note_on_c, 8, 76, 0
1, 16479, Note_on_c, 8, 64, 0
1, 16482, Note_on_c, 8, 76, 100
1, 16482, Note_on_c, 8, 64, 100
1, 16501, Note_on_c, 8, 76, 0
1, 16501, Note_on_c, 8, 64, 0
1, 16504, Note_on_c, 8, 76, 100
1, 16504, Note_on_c, 8, 64, 100
1, 16524, Note_on_c, 8, 76, 0
1, 16524, Note_on_c, 8, 64, 0
1, 16526, Control_c, 1, 11, 88
1, 16526, Control_c, 2, 11, 88
1, 16526, Control_c, 3, 11, 95
1, 16526, Control_c, 8, 11, 88
1, 16526, Note_on_c, 8, 76, 100
1, 16526, Note_on_c, 8, 64, 100
1, 16546, Note_on_c, 8, 76, 0
1, 16546, Note_on_c, 8, 64, 0
1, 16548, Note_on_c, 8, 76, 100
1, 16548, Note_on_c, 8, 64, 100
1, 16568, Note_on_c, 8, 76, 0
1, 16568, Note_on_c, 8, 64, 0
1, 16571, Note_on_c, 8, 76, 100
1, 16571, Note_on_c, 8, 64, 100
1, 16590, Note_on_c, 8, 76, 0
1, 16590, Note_on_c, 8, 64, 0
1, 16593, Note_on_c, 0, 85, 0
1, 16593, Note_on_c, 1, 76, 0
1, 16593, Note_on_c, 3, 56, 0
1, 16593, Note_on_c, 3, 44, 0
1, 16593, Note_on_c, 5, 73, 0
1, 16593, Note_on_c, 5, 73, 0
1, 16593, Note_on_c, 8, 44, 0
1, 16593, Note_on_c, 8, 56, 0
1, 16593, Note_on_c, 8, 71, 0
1, 16593, Note_on_c, 8, 76, 0
1, 16593, Note_on_c, 8, 63, 0
1, 16593, Control_c, 0, 11, 100
1, 16593, Note_on_c, 0, 85, 100
1, 16593, Control_c, 1, 11, 91
1, 16593, Note_on_c, 1, 64, 100
1, 16593, Control_c, 2, 11, 91
1, 16593, Note_on_c, 3, 55, 100
1, 16593, Note_on_c, 3, 43, 100
1, 16593, Control_c, 8, 11, 91
1, 16593, Note_on_c, 8, 73, 110
1, 16593, Note_on_c, 8, 73, 110
1, 16593, Note_on_c, 8, 73, 100
1, 16593, Note_on_c, 8, 73, 100
1, 16593, Note_on_c, 8, 76, 100
1, 16593, Note_on_c, 8, 64, 100
1, 16593, Note_on_c, 8, 76, 100
1, 16593, Note_on_c, 8, 63, 100
1, 16593, Note_on_c, 8, 43, 100
1, 16593, Note_on_c, 8, 55, 100
1, 16596, Note_on_c, 8, 71, 0
1, 16612, Note_on_c, 8, 76, 0
1, 16612, Note_on_c, 8, 64, 0
1, 16615, Note_on_c, 8, 76, 0
1, 16615, Note_on_c, 8, 63, 0
1, 16615, Note_on_c, 8, 76, 100
1, 16615, Note_on_c, 8, 64, 100
1, 16615, Note_on_c, 8, 73, 100
1, 16615, Note_on_c, 8, 64, 100
1, 16618, Note_on_c, 8, 75, 105
1, 16618, Note_on_c, 8, 75, 105
1, 16618, Note_on_c, 8, 71, 100
1, 16618, Note_on_c, 8, 71, 100
1, 16624, Note_on_c, 8, 73, 0
1, 16624, Note_on_c, 8, 73, 0
1, 16624, Note_on_c, 8, 73, 0
1, 16624, Note_on_c, 8, 73, 0
1, 16635, Note_on_c, 8, 76, 0
1, 16635, Note_on_c, 8, 64, 0
1, 16638, Note_on_c, 8, 73, 0
1, 16638, Note_on_c, 8, 64, 0
1, 16638, Note_on_c, 8, 76, 100
1, 16638, Note_on_c, 8, 64, 100
1, 16638, Note_on_c, 8, 76, 100
1, 16638, Note_on_c, 8, 63, 100
1, 16646, Note_on_c, 8, 76, 105
1, 16646, Note_on_c, 8, 76, 105
1, 16646, Note_on_c, 8, 73, 100
1, 16646, Note_on_c, 8, 73, 100
1, 16648, Note_on_c, 8, 75, 0
1, 16648, Note_on_c, 8, 75, 0
1, 16648, Note_on_c, 8, 71, 0
1, 16648, Note_on_c, 8, 71, 0
1, 16657, Note_on_c, 8, 76, 0
1, 16657, Note_on_c, 8, 64, 0
1, 16660, Note_on_c, 8, 76, 0
1, 16660, Note_on_c, 8, 63, 0
1, 16660, Control_c, 1, 11, 94
1, 16660, Control_c, 2, 11, 94
1, 16660, Control_c, 3, 11, 98
1, 16660, Control_c, 8, 11, 94
1, 16660, Note_on_c, 8, 76, 100
1, 16660, Note_on_c, 8, 64, 100
1, 16660, Note_on_c, 8, 73, 100
1, 16660, Note_on_c, 8, 64, 100
1, 16674, Note_on_c, 8, 78, 105
1, 16674, Note_on_c, 8, 78, 105
1, 16674, Note_on_c, 8, 75, 100
1, 16674, Note_on_c, 8, 75, 100
1, 16676, Note_on_c, 8, 76, 0
1, 16676, Note_on_c, 8, 76, 0
1, 16676, Note_on_c, 8, 73, 0
1, 16676, Note_on_c, 8, 73, 0
1, 16679, Note_on_c, 8, 76, 0
1, 16679, Note_on_c, 8, 64, 0
1, 16682, Note_on_c, 8, 73, 0
1, 16682, Note_on_c, 8, 64, 0
1, 16682, Note_on_c, 8, 76, 100
1, 16682, Note_on_c, 8, 64, 100
1, 16682, Note_on_c, 8, 76, 100
1, 16682, Note_on_c, 8, 63, 100
1, 16701, Note_on_c, 8, 76, 0
1, 16701, Note_on_c, 8, 64, 0
1, 16701, Note_on_c, 8, 79, 105
1, 16701, Note_on_c, 8, 79, 105
1, 16701, Note_on_c, 8, 76, 100
1, 16701, Note_on_c, 8, 76, 100
1, 16704, Note_on_c, 8, 78, 0
1, 16704, Note_on_c, 8, 78, 0
1, 16704, Note_on_c, 8, 75, 0
1, 16704, Note_on_c, 8, 75, 0
1, 16704, Note_on_c, 8, 76, 0
1, 16704, Note_on_c, 8, 63, 0
1, 16704, Note_on_c, 8, 76, 100
1, 16704, Note_on_c, 8, 64, 100
1, 16704, Note_on_c, 8, 73, 100
1, 16704, Note_on_c, 8, 64, 100
1, 16724, Note_on_c, 8, 76, 0
1, 16724, Note_on_c, 8, 64, 0
1, 16726, Note_on_c, 8, 73, 0
1, 16726, Note_on_c, 8, 64, 0
1, 16726, Control_c, 1, 11, 97
1, 16726, Control_c, 2, 11, 97
1, 16726, Control_c, 3, 11, 100
1, 16726, Control_c, 8, 11, 97
1, 16726, Note_on_c, 8, 81, 105
1, 16726, Note_on_c, 8, 81, 105
1, 16726, Note_on_c, 8, 78, 100
1, 16726, Note_on_c, 8, 78, 100
1, 16726, Note_on_c, 8, 76, 100
1, 16726, Note_on_c, 8, 64, 100
1, 16726, Note_on_c, 8, 76, 100
1, 16726, Note_on_c, 8, 63, 100
1, 16732, Note_on_c, 8, 79, 0
1, 16732, Note_on_c, 8, 79, 0
1, 16732, Note_on_c, 8, 76, 0
1, 16732, Note_on_c, 8, 76, 0
1, 16746, Note_on_c, 8, 76, 0
1, 16746, Note_on_c, 8, 64, 0
1, 16748, Note_on_c, 8, 76, 100
1, 16748, Note_on_c, 8, 64, 100
1, 16751, Note_on_c, 8, 83, 105
1, 16751, Note_on_c, 8, 83, 105
1, 16751, Note_on_c, 8, 79, 100
1, 16751, Note_on_c, 8, 79, 100
1, 16757, Note_on_c, 8, 81, 0
1, 16757, Note_on_c, 8, 81, 0
1, 16757, Note_on_c, 8, 78, 0
1, 16757, Note_on_c, 8, 78, 0
1, 16768, Note_on_c, 8, 76, 0
1, 16768, Note_on_c, 8, 64, 0
1, 16771, Note_on_c, 8, 76, 100
1, 16771, Note_on_c, 8, 64, 100
1, 16776, Note_on_c, 8, 85, 105
1, 16776, Note_on_c, 8, 85, 105
1, 16776, Note_on_c, 8, 81, 100
1, 16776, Note_on_c, 8, 81, 100
1, 16782, Note_on_c, 8, 83, 0
1, 16782, Note_on_c, 8, 83, 0
1, 16782, Note_on_c, 8, 79, 0
1, 16782, Note_on_c, 8, 79, 0
1, 16790, Note_on_c, 8, 76, 0
1, 16790, Note_on_c, 8, 64, 0
1, 16793, Control_c, 1, 11, 100
1, 16793, Control_c, 2, 11, 100
1, 16793, Control_c, 8, 11, 100
1, 16793, Note_on_c, 8, 76, 100
1, 16793, Note_on_c, 8, 64, 100
1, 16801, Note_on_c, 8, 87, 105
1, 16801, Note_on_c, 8, 87, 105
1, 16801, Note_on_c, 8, 83, 100
1, 16801, Note_on_c, 8, 83, 100
1, 16807, Note_on_c, 8, 85, 0
1, 16807, Note_on_c, 8, 85, 0
1, 16807, Note_on_c, 8, 81, 0
1, 16807, Note_on_c, 8, 81, 0
1, 16812, Note_on_c, 8, 76, 0
1, 16812, Note_on_c, 8, 64, 0
1, 16815, Note_on_c, 8, 76, 100
1, 16815, Note_on_c, 8, 64, 100
1, 16826, Note_on_c, 8, 88, 105
1, 16826, Note_on_c, 8, 88, 105
1, 16826, Note_on_c, 8, 85, 100
1, 16826, Note_on_c, 8, 85, 100
1, 16832, Note_on_c, 8, 87, 0
1, 16832, Note_on_c, 8, 87, 0
1, 16832, Note_on_c, 8, 83, 0
1, 16832, Note_on_c, 8, 83, 0
1, 16835, Note_on_c, 8, 76, 0
1, 16835, Note_on_c, 8, 64, 0
1, 16838, Note_on_c, 1, 73, 0
1, 16838, Note_on_c, 2, 61, 0
1, 16838, Note_on_c, 2, 71, 0
1, 16838, Note_on_c, 8, 76, 100
1, 16838, Note_on_c, 8, 64, 100
1, 16848, Note_on_c, 1, 64, 0
1, 16854, Note_on_c, 8, 88, 0
1, 16854, Note_on_c, 8, 88, 0
1, 16854, Note_on_c, 8, 85, 0
1, 16854, Note_on_c, 8, 85, 0
1, 16857, Note_on_c, 8, 76, 0
1, 16857, Note_on_c, 8, 64, 0
1, 16860, Note_on_c, 0, 85, 0
1, 16860, Note_on_c, 3, 55, 0
1, 16860, Note_on_c, 3, 43, 0
1, 16860, Note_on_c, 8, 43, 0
1, 16860, Note_on_c, 8, 55, 0
1, 16860, Note_on_c, 8, 76, 0
1, 16860, Note_on_c, 8, 63, 0
1, 16860, Note_on_c, 0, 102, 100
1, 16860, Note_on_c, 1, 78, 100
1, 16860, Note_on_c, 1, 75, 100
1, 16860, Note_on_c, 2, 78, 100
1, 16860, Note_on_c, 2, 75, 100
1, 16860, Note_on_c, 3, 63, 100
1, 16860, Note_on_c, 3, 42, 100
1, 16860, Note_on_c, 4, 54, 80
1, 16860, Note_on_c, 4, 58, 80
1, 16860, Control_c, 7, 7, 90
1, 16860, Note_on_c, 7, 58, 80
1, 16860, Note_on_c, 7, 54, 80
1, 16860, Control_c, 8, 0, 0
1, 16860, Control_c, 8, 32, 0
1, 16860, Program_c, 8, 48
1, 16860, Control_c, 8, 0, 0
1, 16860, Control_c, 8, 32, 0
1, 16860, Program_c, 8, 49
1, 16860, Note_on_c, 8, 87, 100
1, 16860, Note_on_c, 8, 90, 100
1, 16860, Note_on_c, 8, 87, 100
1, 16860, Note_on_c, 8, 66, 100
1, 16860, Note_on_c, 8, 63, 100
1, 16860, Note_on_c, 8, 54, 100
1, 16860, Note_on_c, 8, 58, 100
1, 16860, Note_on_c, 8, 42, 100
1, 16863, Control_c, 8, 0, 0
1, 16863, Control_c, 8, 32, 0
1, 16863, Program_c, 8, 48
1, 16863, Note_on_c, 8, 90, 100
1, 16872, Note_on_c, 7, 63, 80
1, 16882, Control_c, 8, 0, 0
1, 16882, Control_c, 8, 32, 0
1, 16882, Program_c, 8, 49
1, 16882, Note_on_c, 8, 66, 0
1, 16882, Note_on_c, 8, 63, 0
1, 16882, Note_on_c, 8, 54, 0
1, 16882, Note_on_c, 8, 58, 0
1, 16885, Note_on_c, 7, 66, 80
1, 16885, Note_on_c, 8, 66, 100
1, 16885, Note_on_c, 8, 63, 100
1, 16885, Note_on_c, 8, 54, 100
1, 16885, Note_on_c, 8, 58, 100
1, 16897, Note_on_c, 7, 70, 80
1, 16906, Note_on_c, 8, 66, 0
1, 16906, Note_on_c, 8, 63, 0
1, 16906, Note_on_c, 8, 54, 0
1, 16906, Note_on_c, 8, 58, 0
1, 16910, Note_on_c, 8, 66, 100
1, 16910, Note_on_c, 8, 63, 100
1, 16910, Note_on_c, 8, 54, 100
1, 16910, Note_on_c, 8, 58, 100
1, 16932, Note_on_c, 8, 66, 0
1, 16932, Note_on_c, 8, 63, 0
1, 16932, Note_on_c, 8, 54, 0
1, 16932, Note_on_c, 8, 58, 0
1, 16935, Note_on_c, 8, 66, 100
1, 16935, Note_on_c, 8, 63, 100
1, 16935, Note_on_c, 8, 54, 100
1, 16935, Note_on_c, 8, 58, 100
1, 16956, Note_on_c, 8, 66, 0
1, 16956, Note_on_c, 8, 63, 0
1, 16956, Note_on_c, 8, 54, 0
1, 16956, Note_on_c, 8, 58, 0
1, 16960, Note_on_c, 8, 66, 100
1, 16960, Note_on_c, 8, 63, 100
1, 16960, Note_on_c, 8, 54, 100
1, 16960, Note_on_c, 8, 58, 100
1, 16982, Note_on_c, 8, 66, 0
1, 16982, Note_on_c, 8, 63, 0
1, 16982, Note_on_c, 8, 54, 0
1, 16982, Note_on_c, 8, 58, 0
1, 16985, Note_on_c, 8, 66, 100
1, 16985, Note_on_c, 8, 63, 100
1, 16985, Note_on_c, 8, 54, 100
1, 16985, Note_on_c, 8, 58, 100
1, 17006, Note_on_c, 8, 66, 0
1, 17006, Note_on_c, 8, 63, 0
1, 17006, Note_on_c, 8, 54, 0
1, 17006, Note_on_c, 8, 58, 0
1, 17010, Note_on_c, 8, 66, 100
1, 17010, Note_on_c, 8, 63, 100
1, 17010, Note_on_c, 8, 54, 100
1, 17010, Note_on_c, 8, 58, 100
1, 17032, Note_on_c, 8, 66, 0
1, 17032, Note_on_c, 8, 63, 0
1, 17032, Note_on_c, 8, 54, 0
1, 17032, Note_on_c, 8, 58, 0
1, 17035, Note_on_c, 8, 66, 100
1, 17035, Note_on_c, 8, 63, 100
1, 17035, Note_on_c, 8, 54, 100
1, 17035, Note_on_c, 8, 58, 100
1, 17056, Note_on_c, 8, 66, 0
1, 17056, Note_on_c, 8, 63, 0
1, 17056, Note_on_c, 8, 54, 0
1, 17056, Note_on_c, 8, 58, 0
1, 17060, Note_on_c, 8, 66, 100
1, 17060, Note_on_c, 8, 63, 100
1, 17060, Note_on_c, 8, 54, 100
1, 17060, Note_on_c, 8, 58, 100
1, 17082, Note_on_c, 8, 66, 0
1, 17082, Note_on_c, 8, 63, 0
1, 17082, Note_on_c, 8, 54, 0
1, 17082, Note_on_c, 8, 58, 0
1, 17085, Note_on_c, 8, 66, 100
1, 17085, Note_on_c, 8, 63, 100
1, 17085, Note_on_c, 8, 54, 100
1, 17085, Note_on_c, 8, 58, 100
1, 17106, Note_on_c, 8, 66, 0
1, 17106, Note_on_c, 8, 63, 0
1, 17106, Note_on_c, 8, 54, 0
1, 17106, Note_on_c, 8, 58, 0
1, 17110, Note_on_c, 8, 66, 100
1, 17110, Note_on_c, 8, 63, 100
1, 17110, Note_on_c, 8, 54, 100
1, 17110, Note_on_c, 8, 58, 100
1, 17116, Note_on_c, 7, 58, 0
1, 17128, Note_on_c, 7, 63, 0
1, 17132, Note_on_c, 8, 66, 0
1, 17132, Note_on_c, 8, 63, 0
1, 17132, Note_on_c, 8, 54, 0
1, 17132, Note_on_c, 8, 58, 0
1, 17135, Note_on_c, 8, 66, 100
1, 17135, Note_on_c, 8, 63, 100
1, 17135, Note_on_c, 8, 54, 100
1, 17135, Note_on_c, 8, 58, 100
1, 17141, Note_on_c, 7, 66, 0
1, 17154, Note_on_c, 8, 90, 0
1, 17154, Note_on_c, 7, 70, 0
1, 17156, Note_on_c, 8, 87, 0
1, 17156, Note_on_c, 8, 87, 0
1, 17156, Control_c, 8, 0, 0
1, 17156, Control_c, 8, 32, 0
1, 17156, Program_c, 8, 48
1, 17156, Note_on_c, 8, 90, 0
1, 17156, Control_c, 8, 0, 0
1, 17156, Control_c, 8, 32, 0
1, 17156, Program_c, 8, 49
1, 17156, Note_on_c, 8, 66, 0
1, 17156, Note_on_c, 8, 63, 0
1, 17156, Note_on_c, 8, 54, 0
1, 17156, Note_on_c, 8, 58, 0
1, 17160, Note_on_c, 0, 102, 0
1, 17160, Note_on_c, 1, 78, 0
1, 17160, Note_on_c, 1, 75, 0
1, 17160, Note_on_c, 2, 78, 0
1, 17160, Note_on_c, 2, 75, 0
1, 17160, Note_on_c, 3, 63, 0
1, 17160, Note_on_c, 4, 54, 0
1, 17160, Note_on_c, 4, 58, 0
1, 17160, Note_on_c, 7, 54, 0
1, 17160, Note_on_c, 0, 102, 100
1, 17160, Note_on_c, 1, 78, 100
1, 17160, Note_on_c, 1, 75, 100
1, 17160, Note_on_c, 2, 78, 100
1, 17160, Note_on_c, 2, 75, 100
1, 17160, Note_on_c, 3, 61, 100
1, 17160, Note_on_c, 4, 56, 83
1, 17160, Note_on_c, 4, 64, 83
1, 17160, Note_on_c, 7, 59, 81
1, 17160, Note_on_c, 7, 56, 81
1, 17160, Control_c, 8, 0, 0
1, 17160, Control_c, 8, 32, 0
1, 17160, Program_c, 8, 48
1, 17160, Note_on_c, 8, 87, 100
1, 17160, Note_on_c, 8, 90, 100
1, 17160, Control_c, 8, 0, 0
1, 17160, Control_c, 8, 32, 0
1, 17160, Program_c, 8, 49
1, 17160, Note_on_c, 8, 90, 100
1, 17160, Note_on_c, 8, 87, 100
1, 17160, Note_on_c, 8, 68, 100
1, 17160, Note_on_c, 8, 64, 100
1, 17160, Note_on_c, 8, 56, 100
1, 17160, Note_on_c, 8, 59, 100
1, 17171, Note_on_c, 7, 64, 81
1, 17180, Note_on_c, 8, 68, 0
1, 17180, Note_on_c, 8, 64, 0
1, 17180, Note_on_c, 8, 56, 0
1, 17180, Note_on_c, 8, 59, 0
1, 17183, Note_on_c, 7, 68, 81
1, 17183, Note_on_c, 8, 68, 100
1, 17183, Note_on_c, 8, 64, 100
1, 17183, Note_on_c, 8, 56, 100
1, 17183, Note_on_c, 8, 59, 100
1, 17194, Note_on_c, 7, 71, 81
1, 17203, Note_on_c, 8, 68, 0
1, 17203, Note_on_c, 8, 64, 0
1, 17203, Note_on_c, 8, 56, 0
1, 17203, Note_on_c, 8, 59, 0
1, 17206, Note_on_c, 8, 68, 100
1, 17206, Note_on_c, 8, 64, 100
1, 17206, Note_on_c, 8, 56, 100
1, 17206, Note_on_c, 8, 59, 100
1, 17226, Note_on_c, 8, 68, 0
1, 17226, Note_on_c, 8, 64, 0
1, 17226, Note_on_c, 8, 56, 0
1, 17226, Note_on_c, 8, 59, 0
1, 17229, Note_on_c, 8, 68, 100
1, 17229, Note_on_c, 8, 64, 100
1, 17229, Note_on_c, 8, 56, 100
1, 17229, Note_on_c, 8, 59, 100
1, 17249, Note_on_c, 8, 68, 0
1, 17249, Note_on_c, 8, 64, 0
1, 17249, Note_on_c, 8, 56, 0
1, 17249, Note_on_c, 8, 59, 0
1, 17252, Note_on_c, 8, 68, 100
1, 17252, Note_on_c, 8, 64, 100
1, 17252, Note_on_c, 8, 56, 100
1, 17252, Note_on_c, 8, 59, 100
1, 17272, Note_on_c, 8, 68, 0
1, 17272, Note_on_c, 8, 64, 0
1, 17272, Note_on_c, 8, 56, 0
1, 17272, Note_on_c, 8, 59, 0
1, 17275, Note_on_c, 8, 68, 100
1, 17275, Note_on_c, 8, 64, 100
1, 17275, Note_on_c, 8, 56, 100
1, 17275, Note_on_c, 8, 59, 100
1, 17295, Note_on_c, 8, 68, 0
1, 17295, Note_on_c, 8, 64, 0
1, 17295, Note_on_c, 8, 56, 0
1, 17295, Note_on_c, 8, 59, 0
1, 17298, Note_on_c, 8, 68, 100
1, 17298, Note_on_c, 8, 64, 100
1, 17298, Note_on_c, 8, 56, 100
1, 17298, Note_on_c, 8, 59, 100
1, 17318, Note_on_c, 8, 68, 0
1, 17318, Note_on_c, 8, 64, 0
1, 17318, Note_on_c, 8, 56, 0
1, 17318, Note_on_c, 8, 59, 0
1, 17321, Note_on_c, 8, 68, 100
1, 17321, Note_on_c, 8, 64, 100
1, 17321, Note_on_c, 8, 56, 100
1, 17321, Note_on_c, 8, 59, 100
1, 17342, Note_on_c, 8, 68, 0
1, 17342, Note_on_c, 8, 64, 0
1, 17342, Note_on_c, 8, 56, 0
1, 17342, Note_on_c, 8, 59, 0
1, 17344, Note_on_c, 8, 68, 100
1, 17344, Note_on_c, 8, 64, 100
1, 17344, Note_on_c, 8, 56, 100
1, 17344, Note_on_c, 8, 59, 100
1, 17364, Note_on_c, 8, 68, 0
1, 17364, Note_on_c, 8, 64, 0
1, 17364, Note_on_c, 8, 56, 0
1, 17364, Note_on_c, 8, 59, 0
1, 17367, Note_on_c, 8, 68, 100
1, 17367, Note_on_c, 8, 64, 100
1, 17367, Note_on_c, 8, 56, 100
1, 17367, Note_on_c, 8, 59, 100
1, 17388, Note_on_c, 8, 68, 0
1, 17388, Note_on_c, 8, 64, 0
1, 17388, Note_on_c, 8, 56, 0
1, 17388, Note_on_c, 8, 59, 0
1, 17390, Note_on_c, 8, 68, 100
1, 17390, Note_on_c, 8, 64, 100
1, 17390, Note_on_c, 8, 56, 100
1, 17390, Note_on_c, 8, 59, 100
1, 17396, Note_on_c, 7, 59, 0
1, 17408, Note_on_c, 7, 64, 0
1, 17411, Note_on_c, 8, 68, 0
1, 17411, Note_on_c, 8, 64, 0
1, 17411, Note_on_c, 8, 56, 0
1, 17411, Note_on_c, 8, 59, 0
1, 17414, Note_on_c, 8, 68, 100
1, 17414, Note_on_c, 8, 64, 100
1, 17414, Note_on_c, 8, 56, 100
1, 17414, Note_on_c, 8, 59, 100
1, 17419, Note_on_c, 7, 68, 0
1, 17431, Note_on_c, 7, 71, 0
1, 17434, Note_on_c, 8, 68, 0
1, 17434, Note_on_c, 8, 64, 0
1, 17434, Note_on_c, 8, 56, 0
1, 17434, Note_on_c, 8, 59, 0
1, 17437, Note_on_c, 0, 102, 0
1, 17437, Note_on_c, 1, 78, 0
1, 17437, Note_on_c, 1, 75, 0
1, 17437, Note_on_c, 2, 78, 0
1, 17437, Note_on_c, 2, 75, 0
1, 17437, Note_on_c, 3, 61, 0
1, 17437, Note_on_c, 4, 56, 0
1, 17437, Note_on_c, 4, 64, 0
1, 17437, Note_on_c, 7, 56, 0
1, 17437, Control_c, 8, 0, 0
1, 17437, Control_c, 8, 32, 0
1, 17437, Program_c, 8, 48
1, 17437, Note_on_c, 8, 87, 0
1, 17437, Note_on_c, 8, 90, 0
1, 17437, Control_c, 8, 0, 0
1, 17437, Control_c, 8, 32, 0
1, 17437, Program_c, 8, 49
1, 17437, Note_on_c, 8, 90, 0
1, 17437, Note_on_c, 8, 87, 0
1, 17437, Note_on_c, 0, 100, 100
1, 17437, Note_on_c, 1, 76, 100
1, 17437, Note_on_c, 1, 73, 100
1, 17437, Note_on_c, 2, 73, 100
1, 17437, Note_on_c, 2, 76, 100
1, 17437, Note_on_c, 3, 66, 100
1, 17437, Note_on_c, 4, 58, 86
1, 17437, Note_on_c, 4, 61, 86
1, 17437, Note_on_c, 7, 61, 83
1, 17437, Note_on_c, 7, 58, 83
1, 17437, Control_c, 8, 0, 0
1, 17437, Control_c, 8, 32, 0
1, 17437, Program_c, 8, 48
1, 17437, Note_on_c, 8, 85, 100
1, 17437, Note_on_c, 8, 88, 100
1, 17437, Control_c, 8, 0, 0
1, 17437, Control_c, 8, 32, 0
1, 17437, Program_c, 8, 49
1, 17437, Note_on_c, 8, 88, 100
1, 17437, Note_on_c, 8, 85, 100
1, 17437, Note_on_c, 8, 70, 100
1, 17437, Note_on_c, 8, 66, 100
1, 17437, Note_on_c, 8, 58, 100
1, 17437, Note_on_c, 8, 61, 100
1, 17448, Note_on_c, 7, 66, 83
1, 17457, Note_on_c, 8, 70, 0
1, 17457, Note_on_c, 8, 66, 0
1, 17457, Note_on_c, 8, 58, 0
1, 17457, Note_on_c, 8, 61, 0
1, 17460, Note_on_c, 7, 70, 83
1, 17460, Note_on_c, 8, 70, 100
1, 17460, Note_on_c, 8, 66, 100
1, 17460, Note_on_c, 8, 58, 100
1, 17460, Note_on_c, 8, 61, 100
1, 17471, Note_on_c, 7, 73, 83
1, 17480, Note_on_c, 8, 70, 0
1, 17480, Note_on_c, 8, 66, 0
1, 17480, Note_on_c, 8, 58, 0
1, 17480, Note_on_c, 8, 61, 0
1, 17483, Note_on_c, 8, 70, 100
1, 17483, Note_on_c, 8, 66, 100
1, 17483, Note_on_c, 8, 58, 100
1, 17483, Note_on_c, 8, 61, 100
1, 17503, Note_on_c, 8, 70, 0
1, 17503, Note_on_c, 8, 66, 0
1, 17503, Note_on_c, 8, 58, 0
1, 17503, Note_on_c, 8, 61, 0
1, 17506, Note_on_c, 8, 70, 100
1, 17506, Note_on_c, 8, 66, 100
1, 17506, Note_on_c, 8, 58, 100
1, 17506, Note_on_c, 8, 61, 100
1, 17526, Note_on_c, 8, 70, 0
1, 17526, Note_on_c, 8, 66, 0
1, 17526, Note_on_c, 8, 58, 0
1, 17526, Note_on_c, 8, 61, 0
1, 17529, Note_on_c, 8, 70, 100
1, 17529, Note_on_c, 8, 66, 100
1, 17529, Note_on_c, 8, 58, 100
1, 17529, Note_on_c, 8, 61, 100
1, 17549, Note_on_c, 8, 70, 0
1, 17549, Note_on_c, 8, 66, 0
1, 17549, Note_on_c, 8, 58, 0
1, 17549, Note_on_c, 8, 61, 0
1, 17552, Note_on_c, 8, 70, 100
1, 17552, Note_on_c, 8, 66, 100
1, 17552, Note_on_c, 8, 58, 100
1, 17552, Note_on_c, 8, 61, 100
1, 17572, Note_on_c, 8, 70, 0
1, 17572, Note_on_c, 8, 66, 0
1, 17572, Note_on_c, 8, 58, 0
1, 17572, Note_on_c, 8, 61, 0
1, 17575, Note_on_c, 8, 70, 100
1, 17575, Note_on_c, 8, 66, 100
1, 17575, Note_on_c, 8, 58, 100
1, 17575, Note_on_c, 8, 61, 100
1, 17595, Note_on_c, 8, 70, 0
1, 17595, Note_on_c, 8, 66, 0
1, 17595, Note_on_c, 8, 58, 0
1, 17595, Note_on_c, 8, 61, 0
1, 17598, Note_on_c, 8, 70, 100
1, 17598, Note_on_c, 8, 66, 100
1, 17598, Note_on_c, 8, 58, 100
1, 17598, Note_on_c, 8, 61, 100
1, 17618, Note_on_c, 8, 70, 0
1, 17618, Note_on_c, 8, 66, 0
1, 17618, Note_on_c, 8, 58, 0
1, 17618, Note_on_c, 8, 61, 0
1, 17621, Note_on_c, 8, 70, 100
1, 17621, Note_on_c, 8, 66, 100
1, 17621, Note_on_c, 8, 58, 100
1, 17621, Note_on_c, 8, 61, 100
1, 17642, Note_on_c, 8, 70, 0
1, 17642, Note_on_c, 8, 66, 0
1, 17642, Note_on_c, 8, 58, 0
1, 17642, Note_on_c, 8, 61, 0
1, 17644, Note_on_c, 8, 70, 100
1, 17644, Note_on_c, 8, 66, 100
1, 17644, Note_on_c, 8, 58, 100
1, 17644, Note_on_c, 8, 61, 100
1, 17664, Note_on_c, 8, 70, 0
1, 17664, Note_on_c, 8, 66, 0
1, 17664, Note_on_c, 8, 58, 0
1, 17664, Note_on_c, 8, 61, 0
1, 17667, Note_on_c, 8, 70, 100
1, 17667, Note_on_c, 8, 66, 100
1, 17667, Note_on_c, 8, 58, 100
1, 17667, Note_on_c, 8, 61, 100
1, 17673, Note_on_c, 7, 61, 0
1, 17685, Note_on_c, 7, 66, 0
1, 17688, Note_on_c, 8, 70, 0
1, 17688, Note_on_c, 8, 66, 0
1, 17688, Note_on_c, 8, 58, 0
1, 17688, Note_on_c, 8, 61, 0
1, 17690, Note_on_c, 8, 70, 100
1, 17690, Note_on_c, 8, 66, 100
1, 17690, Note_on_c, 8, 58, 100
1, 17690, Note_on_c, 8, 61, 100
1, 17696, Note_on_c, 7, 70, 0
1, 17708, Note_on_c, 7, 73, 0
1, 17711, Note_on_c, 8, 70, 0
1, 17711, Note_on_c, 8, 66, 0
1, 17711, Note_on_c, 8, 58, 0
1, 17711, Note_on_c, 8, 61, 0
1, 17714, Note_on_c, 0, 100, 0
1, 17714, Note_on_c, 1, 76, 0
1, 17714, Note_on_c, 1, 73, 0
1, 17714, Note_on_c, 2, 73, 0
1, 17714, Note_on_c, 2, 76, 0
1, 17714, Note_on_c, 3, 66, 0
1, 17714, Note_on_c, 4, 58, 0
1, 17714, Note_on_c, 4, 61, 0
1, 17714, Note_on_c, 7, 58, 0
1, 17714, Control_c, 8, 0, 0
1, 17714, Control_c, 8, 32, 0
1, 17714, Program_c, 8, 48
1, 17714, Note_on_c, 8, 85, 0
1, 17714, Note_on_c, 8, 88, 0
1, 17714, Control_c, 8, 0, 0
1, 17714, Control_c, 8, 32, 0
1, 17714, Program_c, 8, 49
1, 17714, Note_on_c, 8, 88, 0
1, 17714, Note_on_c, 8, 85, 0
1, 17714, Note_on_c, 0, 99, 100
1, 17714, Note_on_c, 1, 71, 100
1, 17714, Note_on_c, 1, 75, 100
1, 17714, Note_on_c, 2, 71, 100
1, 17714, Note_on_c, 2, 75, 100
1, 17714, Note_on_c, 3, 64, 100
1, 17714, Note_on_c, 4, 59, 90
1, 17714, Note_on_c, 4, 68, 90
1, 17714, Note_on_c, 7, 63, 85
1, 17714, Note_on_c, 7, 56, 85
1, 17714, Control_c, 8, 0, 0
1, 17714, Control_c, 8, 32, 0
1, 17714, Program_c, 8, 48
1, 17714, Note_on_c, 8, 87, 100
1, 17714, Note_on_c, 8, 83, 100
1, 17714, Control_c, 8, 0, 0
1, 17714, Control_c, 8, 32, 0
1, 17714, Program_c, 8, 49
1, 17714, Note_on_c, 8, 87, 100
1, 17714, Note_on_c, 8, 83, 100
1, 17714, Note_on_c, 8, 71, 100
1, 17714, Note_on_c, 8, 68, 100
1, 17714, Note_on_c, 8, 59, 100
1, 17714, Note_on_c, 8, 63, 100
1, 17725, Note_on_c, 7, 68, 85
1, 17725, Note_on_c, 7, 59, 85
1, 17733, Note_on_c, 8, 71, 0
1, 17733, Note_on_c, 8, 68, 0
1, 17733, Note_on_c, 8, 59, 0
1, 17733, Note_on_c, 8, 63, 0
1, 17736, Note_on_c, 7, 71, 85
1, 17736, Note_on_c, 8, 71, 100
1, 17736, Note_on_c, 8, 68, 100
1, 17736, Note_on_c, 8, 59, 100
1, 17736, Note_on_c, 8, 63, 100
1, 17748, Note_on_c, 7, 75, 85
1, 17756, Note_on_c, 8, 71, 0
1, 17756, Note_on_c, 8, 68, 0
1, 17756, Note_on_c, 8, 59, 0
1, 17756, Note_on_c, 8, 63, 0
1, 17759, Note_on_c, 8, 71, 100
1, 17759, Note_on_c, 8, 68, 100
1, 17759, Note_on_c, 8, 59, 100
1, 17759, Note_on_c, 8, 63, 100
1, 17779, Note_on_c, 8, 71, 0
1, 17779, Note_on_c, 8, 68, 0
1, 17779, Note_on_c, 8, 59, 0
1, 17779, Note_on_c, 8, 63, 0
1, 17782, Note_on_c, 8, 71, 100
1, 17782, Note_on_c, 8, 68, 100
1, 17782, Note_on_c, 8, 59, 100
1, 17782, Note_on_c, 8, 63, 100
1, 17801, Note_on_c, 8, 71, 0
1, 17801, Note_on_c, 8, 68, 0
1, 17801, Note_on_c, 8, 59, 0
1, 17801, Note_on_c, 8, 63, 0
1, 17804, Note_on_c, 8, 71, 100
1, 17804, Note_on_c, 8, 68, 100
1, 17804, Note_on_c, 8, 59, 100
1, 17804, Note_on_c, 8, 63, 100
1, 17824, Note_on_c, 8, 71, 0
1, 17824, Note_on_c, 8, 68, 0
1, 17824, Note_on_c, 8, 59, 0
1, 17824, Note_on_c, 8, 63, 0
1, 17827, Note_on_c, 8, 71, 100
1, 17827, Note_on_c, 8, 68, 100
1, 17827, Note_on_c, 8, 59, 100
1, 17827, Note_on_c, 8, 63, 100
1, 17846, Note_on_c, 8, 71, 0
1, 17846, Note_on_c, 8, 68, 0
1, 17846, Note_on_c, 8, 59, 0
1, 17846, Note_on_c, 8, 63, 0
1, 17849, Control_c, 8, 0, 0
1, 17849, Control_c, 8, 32, 0
1, 17849, Program_c, 8, 48
1, 17849, Note_on_c, 8, 87, 0
1, 17849, Control_c, 8, 0, 0
1, 17849, Control_c, 8, 32, 0
1, 17849, Program_c, 8, 49
1, 17849, Note_on_c, 8, 87, 0
1, 17849, Note_on_c, 0, 102, 100
1, 17849, Note_on_c, 1, 75, 100
1, 17849, Note_on_c, 1, 78, 100
1, 17849, Note_on_c, 2, 75, 100
1, 17849, Note_on_c, 2, 78, 100
1, 17849, Control_c, 8, 0, 0
1, 17849, Control_c, 8, 32, 0
1, 17849, Program_c, 8, 48
1, 17849, Note_on_c, 8, 87, 100
1, 17849, Note_on_c, 8, 90, 100
1, 17849, Control_c, 8, 0, 0
1, 17849, Control_c, 8, 32, 0
1, 17849, Program_c, 8, 49
1, 17849, Note_on_c, 8, 90, 100
1, 17849, Note_on_c, 8, 87, 100
1, 17849, Note_on_c, 8, 71, 100
1, 17849, Note_on_c, 8, 68, 100
1, 17849, Note_on_c, 8, 59, 100
1, 17849, Note_on_c, 8, 63, 100
1, 17852, Note_on_c, 0, 99, 0
1, 17852, Note_on_c, 1, 71, 0
1, 17852, Note_on_c, 2, 71, 0
1, 17852, Control_c, 8, 0, 0
1, 17852, Control_c, 8, 32, 0
1, 17852, Program_c, 8, 48
1, 17852, Note_on_c, 8, 83, 0
1, 17852, Control_c, 8, 0, 0
1, 17852, Control_c, 8, 32, 0
1, 17852, Program_c, 8, 49
1, 17852, Note_on_c, 8, 83, 0
1, 17852, Note_on_c, 1, 75, 0
1, 17852, Note_on_c, 2, 75, 0
1, 17869, Note_on_c, 8, 71, 0
1, 17869, Note_on_c, 8, 68, 0
1, 17869, Note_on_c, 8, 59, 0
1, 17869, Note_on_c, 8, 63, 0
1, 17872, Note_on_c, 8, 71, 100
1, 17872, Note_on_c, 8, 68, 100
1, 17872, Note_on_c, 8, 59, 100
1, 17872, Note_on_c, 8, 63, 100
1, 17892, Note_on_c, 8, 71, 0
1, 17892, Note_on_c, 8, 68, 0
1, 17892, Note_on_c, 8, 59, 0
1, 17892, Note_on_c, 8, 63, 0
1, 17895, Note_on_c, 8, 71, 100
1, 17895, Note_on_c, 8, 68, 100
1, 17895, Note_on_c, 8, 59, 100
1, 17895, Note_on_c, 8, 63, 100
1, 17914, Note_on_c, 8, 71, 0
1, 17914, Note_on_c, 8, 68, 0
1, 17914, Note_on_c, 8, 59, 0
1, 17914, Note_on_c, 8, 63, 0
1, 17917, Note_on_c, 8, 71, 100
1, 17917, Note_on_c, 8, 68, 100
1, 17917, Note_on_c, 8, 59, 100
1, 17917, Note_on_c, 8, 63, 100
1, 17937, Note_on_c, 8, 71, 0
1, 17937, Note_on_c, 8, 68, 0
1, 17937, Note_on_c, 8, 59, 0
1, 17937, Note_on_c, 8, 63, 0
1, 17940, Note_on_c, 8, 71, 100
1, 17940, Note_on_c, 8, 68, 100
1, 17940, Note_on_c, 8, 59, 100
1, 17940, Note_on_c, 8, 63, 100
1, 17946, Note_on_c, 7, 63, 0
1, 17946, Note_on_c, 7, 56, 0
1, 17957, Note_on_c, 7, 68, 0
1, 17957, Note_on_c, 7, 59, 0
1, 17960, Note_on_c, 8, 71, 0
1, 17960, Note_on_c, 8, 68, 0
1, 17960, Note_on_c, 8, 59, 0
1, 17960, Note_on_c, 8, 63, 0
1, 17962, Note_on_c, 8, 71, 100
1, 17962, Note_on_c, 8, 68, 100
1, 17962, Note_on_c, 8, 59, 100
1, 17962, Note_on_c, 8, 63, 100
1, 17968, Note_on_c, 7, 71, 0
1, 17980, Note_on_c, 7, 75, 0
1, 17982, Note_on_c, 8, 71, 0
1, 17982, Note_on_c, 8, 68, 0
1, 17982, Note_on_c, 8, 59, 0
1, 17982, Note_on_c, 8, 63, 0
1, 17985, Note_on_c, 3, 64, 0
1, 17985, Note_on_c, 4, 59, 0
1, 17985, Note_on_c, 4, 68, 0
1, 17985, Note_on_c, 0, 97, 100
1, 17985, Note_on_c, 1, 73, 100
1, 17985, Note_on_c, 1, 70, 100
1, 17985, Note_on_c, 2, 70, 100
1, 17985, Note_on_c, 2, 73, 100
1, 17985, Note_on_c, 3, 70, 100
1, 17985, Note_on_c, 4, 61, 93
1, 17985, Note_on_c, 4, 64, 93
1, 17985, Note_on_c, 7, 64, 86
1, 17985, Note_on_c, 7, 58, 86
1, 17985, Control_c, 8, 0, 0
1, 17985, Control_c, 8, 32, 0
1, 17985, Program_c, 8, 48
1, 17985, Note_on_c, 8, 82, 100
1, 17985, Note_on_c, 8, 85, 100
1, 17985, Control_c, 8, 0, 0
1, 17985, Control_c, 8, 32, 0
1, 17985, Program_c, 8, 49
1, 17985, Note_on_c, 8, 85, 100
1, 17985, Note_on_c, 8, 82, 100
1, 17985, Note_on_c, 8, 73, 100
1, 17985, Note_on_c, 8, 70, 100
1, 17985, Note_on_c, 8, 61, 100
1, 17985, Note_on_c, 8, 64, 100
1, 17988, Note_on_c, 1, 75, 0
1, 17988, Note_on_c, 2, 75, 0
1, 17988, Note_on_c, 0, 102, 0
1, 17988, Note_on_c, 1, 78, 0
1, 17988, Note_on_c, 2, 78, 0
1, 17988, Control_c, 8, 0, 0
1, 17988, Control_c, 8, 32, 0
1, 17988, Program_c, 8, 48
1, 17988, Note_on_c, 8, 87, 0
1, 17988, Note_on_c, 8, 90, 0
1, 17988, Control_c, 8, 0, 0
1, 17988, Control_c, 8, 32, 0
1, 17988, Program_c, 8, 49
1, 17988, Note_on_c, 8, 90, 0
1, 17988, Note_on_c, 8, 87, 0
1, 17996, Note_on_c, 7, 70, 86
1, 17996, Note_on_c, 7, 61, 86
1, 18005, Note_on_c, 8, 73, 0
1, 18005, Note_on_c, 8, 70, 0
1, 18005, Note_on_c, 8, 61, 0
1, 18005, Note_on_c, 8, 64, 0
1, 18008, Note_on_c, 7, 73, 86
1, 18008, Note_on_c, 8, 73, 100
1, 18008, Note_on_c, 8, 70, 100
1, 18008, Note_on_c, 8, 61, 100
1, 18008, Note_on_c, 8, 64, 100
1, 18019, Note_on_c, 7, 76, 86
1, 18028, Note_on_c, 8, 73, 0
1, 18028, Note_on_c, 8, 70, 0
1, 18028, Note_on_c, 8, 61, 0
1, 18028, Note_on_c, 8, 64, 0
1, 18030, Note_on_c, 8, 73, 100
1, 18030, Note_on_c, 8, 70, 100
1, 18030, Note_on_c, 8, 61, 100
1, 18030, Note_on_c, 8, 64, 100
1, 18050, Note_on_c, 8, 73, 0
1, 18050, Note_on_c, 8, 70, 0
1, 18050, Note_on_c, 8, 61, 0
1, 18050, Note_on_c, 8, 64, 0
1, 18053, Note_on_c, 8, 73, 100
1, 18053, Note_on_c, 8, 70, 100
1, 18053, Note_on_c, 8, 61, 100
1, 18053, Note_on_c, 8, 64, 100
1, 18073, Note_on_c, 8, 73, 0
1, 18073, Note_on_c, 8, 70, 0
1, 18073, Note_on_c, 8, 61, 0
1, 18073, Note_on_c, 8, 64, 0
1, 18076, Note_on_c, 8, 73, 100
1, 18076, Note_on_c, 8, 70, 100
1, 18076, Note_on_c, 8, 61, 100
1, 18076, Note_on_c, 8, 64, 100
1, 18096, Note_on_c, 8, 73, 0
1, 18096, Note_on_c, 8, 70, 0
1, 18096, Note_on_c, 8, 61, 0
1, 18096, Note_on_c, 8, 64, 0
1, 18098, Note_on_c, 8, 73, 100
1, 18098, Note_on_c, 8, 70, 100
1, 18098, Note_on_c, 8, 61, 100
1, 18098, Note_on_c, 8, 64, 100
1, 18118, Note_on_c, 8, 73, 0
1, 18118, Note_on_c, 8, 70, 0
1, 18118, Note_on_c, 8, 61, 0
1, 18118, Note_on_c, 8, 64, 0
1, 18121, Note_on_c, 8, 73, 100
1, 18121, Note_on_c, 8, 70, 100
1, 18121, Note_on_c, 8, 61, 100
1, 18121, Note_on_c, 8, 64, 100
1, 18141, Note_on_c, 8, 73, 0
1, 18141, Note_on_c, 8, 70, 0
1, 18141, Note_on_c, 8, 61, 0
1, 18141, Note_on_c, 8, 64, 0
1, 18144, Note_on_c, 8, 73, 100
1, 18144, Note_on_c, 8, 70, 100
1, 18144, Note_on_c, 8, 61, 100
1, 18144, Note_on_c, 8, 64, 100
1, 18164, Note_on_c, 8, 73, 0
1, 18164, Note_on_c, 8, 70, 0
1, 18164, Note_on_c, 8, 61, 0
1, 18164, Note_on_c, 8, 64, 0
1, 18166, Note_on_c, 8, 73, 100
1, 18166, Note_on_c, 8, 70, 100
1, 18166, Note_on_c, 8, 61, 100
1, 18166, Note_on_c, 8, 64, 100
1, 18186, Note_on_c, 8, 73, 0
1, 18186, Note_on_c, 8, 70, 0
1, 18186, Note_on_c, 8, 61, 0
1, 18186, Note_on_c, 8, 64, 0
1, 18189, Note_on_c, 8, 73, 100
1, 18189, Note_on_c, 8, 70, 100
1, 18189, Note_on_c, 8, 61, 100
1, 18189, Note_on_c, 8, 64, 100
1, 18209, Note_on_c, 8, 73, 0
1, 18209, Note_on_c, 8, 70, 0
1, 18209, Note_on_c, 8, 61, 0
1, 18209, Note_on_c, 8, 64, 0
1, 18212, Note_on_c, 8, 73, 100
1, 18212, Note_on_c, 8, 70, 100
1, 18212, Note_on_c, 8, 61, 100
1, 18212, Note_on_c, 8, 64, 100
1, 18217, Note_on_c, 7, 64, 0
1, 18217, Note_on_c, 7, 58, 0
1, 18229, Note_on_c, 7, 70, 0
1, 18229, Note_on_c, 7, 61, 0
1, 18232, Note_on_c, 8, 73, 0
1, 18232, Note_on_c, 8, 70, 0
1, 18232, Note_on_c, 8, 61, 0
1, 18232, Note_on_c, 8, 64, 0
1, 18234, Note_on_c, 8, 73, 100
1, 18234, Note_on_c, 8, 70, 100
1, 18234, Note_on_c, 8, 61, 100
1, 18234, Note_on_c, 8, 64, 100
1, 18240, Note_on_c, 7, 73, 0
1, 18251, Note_on_c, 7, 76, 0
1, 18254, Note_on_c, 8, 73, 0
1, 18254, Note_on_c, 8, 70, 0
1, 18254, Note_on_c, 8, 61, 0
1, 18254, Note_on_c, 8, 64, 0
1, 18257, Note_on_c, 0, 97, 0
1, 18257, Note_on_c, 1, 73, 0
1, 18257, Note_on_c, 1, 70, 0
1, 18257, Note_on_c, 2, 70, 0
1, 18257, Note_on_c, 2, 73, 0
1, 18257, Note_on_c, 3, 70, 0
1, 18257, Note_on_c, 4, 61, 0
1, 18257, Note_on_c, 4, 64, 0
1, 18257, Control_c, 8, 0, 0
1, 18257, Control_c, 8, 32, 0
1, 18257, Program_c, 8, 48
1, 18257, Note_on_c, 8, 82, 0
1, 18257, Note_on_c, 8, 85, 0
1, 18257, Control_c, 8, 0, 0
1, 18257, Control_c, 8, 32, 0
1, 18257, Program_c, 8, 49
1, 18257, Note_on_c, 8, 85, 0
1, 18257, Note_on_c, 8, 82, 0
1, 18257, Note_on_c, 0, 95, 100
1, 18257, Note_on_c, 1, 71, 100
1, 18257, Note_on_c, 1, 68, 100
1, 18257, Note_on_c, 2, 71, 100
1, 18257, Note_on_c, 2, 68, 100
1, 18257, Note_on_c, 3, 68, 100
1, 18257, Note_on_c, 4, 63, 96
1, 18257, Note_on_c, 4, 71, 96
1, 18257, Note_on_c, 7, 66, 88
1, 18257, Note_on_c, 7, 56, 88
1, 18257, Control_c, 8, 0, 0
1, 18257, Control_c, 8, 32, 0
1, 18257, Program_c, 8, 48
1, 18257, Note_on_c, 8, 80, 100
1, 18257, Note_on_c, 8, 83, 100
1, 18257, Control_c, 8, 0, 0
1, 18257, Control_c, 8, 32, 0
1, 18257, Program_c, 8, 49
1, 18257, Note_on_c, 8, 83, 100
1, 18257, Note_on_c, 8, 80, 100
1, 18257, Note_on_c, 8, 75, 100
1, 18257, Note_on_c, 8, 71, 100
1, 18257, Note_on_c, 8, 63, 100
1, 18257, Note_on_c, 8, 66, 100
1, 18268, Note_on_c, 7, 71, 88
1, 18268, Note_on_c, 7, 59, 88
1, 18277, Note_on_c, 8, 75, 0
1, 18277, Note_on_c, 8, 71, 0
1, 18277, Note_on_c, 8, 63, 0
1, 18277, Note_on_c, 8, 66, 0
1, 18280, Note_on_c, 7, 75, 88
1, 18280, Note_on_c, 7, 63, 88
1, 18280, Note_on_c, 8, 75, 100
1, 18280, Note_on_c, 8, 71, 100
1, 18280, Note_on_c, 8, 63, 100
1, 18280, Note_on_c, 8, 66, 100
1, 18291, Note_on_c, 7, 78, 88
1, 18299, Note_on_c, 8, 75, 0
1, 18299, Note_on_c, 8, 71, 0
1, 18299, Note_on_c, 8, 63, 0
1, 18299, Note_on_c, 8, 66, 0
1, 18302, Note_on_c, 8, 75, 100
1, 18302, Note_on_c, 8, 71, 100
1, 18302, Note_on_c, 8, 63, 100
1, 18302, Note_on_c, 8, 66, 100
1, 18322, Note_on_c, 8, 75, 0
1, 18322, Note_on_c, 8, 71, 0
1, 18322, Note_on_c, 8, 63, 0
1, 18322, Note_on_c, 8, 66, 0
1, 18325, Note_on_c, 8, 75, 100
1, 18325, Note_on_c, 8, 71, 100
1, 18325, Note_on_c, 8, 63, 100
1, 18325, Note_on_c, 8, 66, 100
1, 18345, Note_on_c, 8, 75, 0
1, 18345, Note_on_c, 8, 71, 0
1, 18345, Note_on_c, 8, 63, 0
1, 18345, Note_on_c, 8, 66, 0
1, 18348, Note_on_c, 8, 75, 100
1, 18348, Note_on_c, 8, 71, 100
1, 18348, Note_on_c, 8, 63, 100
1, 18348, Note_on_c, 8, 66, 100
1, 18367, Note_on_c, 8, 75, 0
1, 18367, Note_on_c, 8, 71, 0
1, 18367, Note_on_c, 8, 63, 0
1, 18367, Note_on_c, 8, 66, 0
1, 18370, Note_on_c, 8, 75, 100
1, 18370, Note_on_c, 8, 71, 100
1, 18370, Note_on_c, 8, 63, 100
1, 18370, Note_on_c, 8, 66, 100
1, 18390, Note_on_c, 8, 75, 0
1, 18390, Note_on_c, 8, 71, 0
1, 18390, Note_on_c, 8, 63, 0
1, 18390, Note_on_c, 8, 66, 0
1, 18393, Note_on_c, 8, 75, 100
1, 18393, Note_on_c, 8, 71, 100
1, 18393, Note_on_c, 8, 63, 100
1, 18393, Note_on_c, 8, 66, 100
1, 18412, Note_on_c, 8, 75, 0
1, 18412, Note_on_c, 8, 71, 0
1, 18412, Note_on_c, 8, 63, 0
1, 18412, Note_on_c, 8, 66, 0
1, 18416, Note_on_c, 8, 75, 100
1, 18416, Note_on_c, 8, 71, 100
1, 18416, Note_on_c, 8, 63, 100
1, 18416, Note_on_c, 8, 66, 100
1, 18435, Note_on_c, 8, 75, 0
1, 18435, Note_on_c, 8, 71, 0
1, 18435, Note_on_c, 8, 63, 0
1, 18435, Note_on_c, 8, 66, 0
1, 18438, Note_on_c, 8, 75, 100
1, 18438, Note_on_c, 8, 71, 100
1, 18438, Note_on_c, 8, 63, 100
1, 18438, Note_on_c, 8, 66, 100
1, 18458, Note_on_c, 8, 75, 0
1, 18458, Note_on_c, 8, 71, 0
1, 18458, Note_on_c, 8, 63, 0
1, 18458, Note_on_c, 8, 66, 0
1, 18461, Note_on_c, 8, 75, 100
1, 18461, Note_on_c, 8, 71, 100
1, 18461, Note_on_c, 8, 63, 100
1, 18461, Note_on_c, 8, 66, 100
1, 18480, Note_on_c, 8, 75, 0
1, 18480, Note_on_c, 8, 71, 0
1, 18480, Note_on_c, 8, 63, 0
1, 18480, Note_on_c, 8, 66, 0
1, 18483, Note_on_c, 8, 75, 100
1, 18483, Note_on_c, 8, 71, 100
1, 18483, Note_on_c, 8, 63, 100
1, 18483, Note_on_c, 8, 66, 100
1, 18489, Note_on_c, 7, 66, 0
1, 18489, Note_on_c, 7, 56, 0
1, 18500, Note_on_c, 7, 71, 0
1, 18500, Note_on_c, 7, 59, 0
1, 18503, Note_on_c, 8, 75, 0
1, 18503, Note_on_c, 8, 71, 0
1, 18503, Note_on_c, 8, 63, 0
1, 18503, Note_on_c, 8, 66, 0
1, 18506, Note_on_c, 8, 75, 100
1, 18506, Note_on_c, 8, 71, 100
1, 18506, Note_on_c, 8, 63, 100
1, 18506, Note_on_c, 8, 66, 100
1, 18512, Note_on_c, 7, 75, 0
1, 18512, Note_on_c, 7, 63, 0
1, 18517, Note_on_c, 3, 42, 0
1, 18523, Note_on_c, 7, 78, 0
1, 18526, Note_on_c, 2, 71, 0
1, 18526, Note_on_c, 2, 68, 0
1, 18526, Note_on_c, 8, 75, 0
1, 18526, Note_on_c, 8, 71, 0
1, 18526, Note_on_c, 8, 63, 0
1, 18526, Note_on_c, 8, 66, 0
1, 18529, Note_on_c, 0, 95, 0
1, 18529, Note_on_c, 1, 71, 0
1, 18529, Note_on_c, 1, 68, 0
1, 18529, Note_on_c, 3, 68, 0
1, 18529, Note_on_c, 4, 63, 0
1, 18529, Note_on_c, 4, 71, 0
1, 18529, Control_c, 8, 0, 0
1, 18529, Control_c, 8, 32, 0
1, 18529, Program_c, 8, 48
1, 18529, Note_on_c, 8, 80, 0
1, 18529, Note_on_c, 8, 83, 0
1, 18529, Control_c, 8, 0, 0
1, 18529, Control_c, 8, 32, 0
1, 18529, Program_c, 8, 49
1, 18529, Note_on_c, 8, 83, 0
1, 18529, Note_on_c, 8, 80, 0
1, 18529, Note_on_c, 0, 88, 100
1, 18529, Note_on_c, 1, 80, 100
1, 18529, Note_on_c, 1, 73, 100
1, 18529, Note_on_c, 2, 76, 100
1, 18529, Note_on_c, 2, 73, 100
1, 18529, Control_c, 3, 11, 80
1, 18529, Note_on_c, 3, 42, 120
1, 18529, Note_on_c, 3, 42, 120
1, 18529, Note_on_c, 4, 56, 100
1, 18529, Note_on_c, 4, 52, 100
1, 18529, Note_on_c, 4, 61, 100
1, 18529, Note_on_c, 4, 64, 100
1, 18529, Note_on_c, 7, 68, 90
1, 18529, Note_on_c, 7, 52, 90
1, 18529, Control_c, 8, 0, 0
1, 18529, Control_c, 8, 32, 0
1, 18529, Program_c, 8, 48
1, 18529, Note_on_c, 8, 80, 100
1, 18529, Note_on_c, 8, 88, 100
1, 18529, Control_c, 8, 0, 0
1, 18529, Control_c, 8, 32, 0
1, 18529, Program_c, 8, 49
1, 18529, Note_on_c, 8, 88, 100
1, 18529, Note_on_c, 8, 80, 100
1, 18529, Note_on_c, 8, 76, 100
1, 18529, Note_on_c, 8, 73, 100
1, 18529, Note_on_c, 8, 64, 100
1, 18529, Note_on_c, 8, 68, 100
1, 18540, Note_on_c, 7, 73, 90
1, 18540, Note_on_c, 7, 56, 90
1, 18548, Note_on_c, 8, 76, 0
1, 18548, Note_on_c, 8, 73, 0
1, 18548, Note_on_c, 8, 64, 0
1, 18548, Note_on_c, 8, 68, 0
1, 18551, Note_on_c, 7, 76, 90
1, 18551, Note_on_c, 7, 64, 90
1, 18551, Note_on_c, 8, 76, 100
1, 18551, Note_on_c, 8, 73, 100
1, 18551, Note_on_c, 8, 64, 100
1, 18551, Note_on_c, 8, 68, 100
1, 18562, Note_on_c, 7, 80, 90
1, 18562, Note_on_c, 7, 61, 90
1, 18570, Note_on_c, 8, 76, 0
1, 18570, Note_on_c, 8, 73, 0
1, 18570, Note_on_c, 8, 64, 0
1, 18570, Note_on_c, 8, 68, 0
1, 18573, Note_on_c, 8, 76, 100
1, 18573, Note_on_c, 8, 73, 100
1, 18573, Note_on_c, 8, 64, 100
1, 18573, Note_on_c, 8, 68, 100
1, 18592, Note_on_c, 8, 76, 0
1, 18592, Note_on_c, 8, 73, 0
1, 18592, Note_on_c, 8, 64, 0
1, 18592, Note_on_c, 8, 68, 0
1, 18595, Note_on_c, 8, 76, 100
1, 18595, Note_on_c, 8, 73, 100
1, 18595, Note_on_c, 8, 64, 100
1, 18595, Note_on_c, 8, 68, 100
1, 18615, Note_on_c, 8, 76, 0
1, 18615, Note_on_c, 8, 73, 0
1, 18615, Note_on_c, 8, 64, 0
1, 18615, Note_on_c, 8, 68, 0
1, 18618, Note_on_c, 8, 76, 100
1, 18618, Note_on_c, 8, 73, 100
1, 18618, Note_on_c, 8, 64, 100
1, 18618, Note_on_c, 8, 68, 100
1, 18637, Note_on_c, 8, 76, 0
1, 18637, Note_on_c, 8, 73, 0
1, 18637, Note_on_c, 8, 64, 0
1, 18637, Note_on_c, 8, 68, 0
1, 18640, Note_on_c, 8, 76, 100
1, 18640, Note_on_c, 8, 73, 100
1, 18640, Note_on_c, 8, 64, 100
1, 18640, Note_on_c, 8, 68, 100
1, 18659, Note_on_c, 8, 76, 0
1, 18659, Note_on_c, 8, 73, 0
1, 18659, Note_on_c, 8, 64, 0
1, 18659, Note_on_c, 8, 68, 0
1, 18662, Note_on_c, 8, 76, 100
1, 18662, Note_on_c, 8, 73, 100
1, 18662, Note_on_c, 8, 64, 100
1, 18662, Note_on_c, 8, 68, 100
1, 18681, Note_on_c, 8, 76, 0
1, 18681, Note_on_c, 8, 73, 0
1, 18681, Note_on_c, 8, 64, 0
1, 18681, Note_on_c, 8, 68, 0
1, 18684, Note_on_c, 8, 76, 100
1, 18684, Note_on_c, 8, 73, 100
1, 18684, Note_on_c, 8, 64, 100
1, 18684, Note_on_c, 8, 68, 100
1, 18704, Note_on_c, 8, 76, 0
1, 18704, Note_on_c, 8, 73, 0
1, 18704, Note_on_c, 8, 64, 0
1, 18704, Note_on_c, 8, 68, 0
1, 18706, Note_on_c, 8, 76, 100
1, 18706, Note_on_c, 8, 73, 100
1, 18706, Note_on_c, 8, 64, 100
1, 18706, Note_on_c, 8, 68, 100
1, 18726, Note_on_c, 8, 76, 0
1, 18726, Note_on_c, 8, 73, 0
1, 18726, Note_on_c, 8, 64, 0
1, 18726, Note_on_c, 8, 68, 0
1, 18729, Note_on_c, 8, 76, 100
1, 18729, Note_on_c, 8, 73, 100
1, 18729, Note_on_c, 8, 64, 100
1, 18729, Note_on_c, 8, 68, 100
1, 18748, Note_on_c, 8, 76, 0
1, 18748, Note_on_c, 8, 73, 0
1, 18748, Note_on_c, 8, 64, 0
1, 18748, Note_on_c, 8, 68, 0
1, 18751, Note_on_c, 8, 76, 100
1, 18751, Note_on_c, 8, 73, 100
1, 18751, Note_on_c, 8, 64, 100
1, 18751, Note_on_c, 8, 68, 100
1, 18756, Note_on_c, 7, 68, 0
1, 18756, Note_on_c, 7, 52, 0
1, 18768, Note_on_c, 7, 73, 0
1, 18768, Note_on_c, 7, 56, 0
1, 18770, Note_on_c, 8, 76, 0
1, 18770, Note_on_c, 8, 73, 0
1, 18770, Note_on_c, 8, 64, 0
1, 18770, Note_on_c, 8, 68, 0
1, 18773, Note_on_c, 8, 76, 100
1, 18773, Note_on_c, 8, 73, 100
1, 18773, Note_on_c, 8, 64, 100
1, 18773, Note_on_c, 8, 68, 100
1, 18779, Note_on_c, 7, 76, 0
1, 18779, Note_on_c, 7, 64, 0
1, 18790, Note_on_c, 7, 80, 0
1, 18790, Note_on_c, 7, 61, 0
1, 18792, Note_on_c, 8, 76, 0
1, 18792, Note_on_c, 8, 73, 0
1, 18792, Note_on_c, 8, 64, 0
1, 18792, Note_on_c, 8, 68, 0
1, 18795, Note_on_c, 4, 56, 0
1, 18795, Note_on_c, 4, 52, 0
1, 18795, Note_on_c, 4, 61, 0
1, 18795, Note_on_c, 4, 64, 0
1, 18795, Note_on_c, 4, 54, 103
1, 18795, Note_on_c, 4, 63, 103
1, 18795, Note_on_c, 4, 59, 103
1, 18795, Note_on_c, 4, 66, 103
1, 18795, Note_on_c, 7, 70, 91
1, 18795, Note_on_c, 7, 51, 91
1, 18795, Note_on_c, 8, 78, 100
1, 18795, Note_on_c, 8, 75, 100
1, 18795, Note_on_c, 8, 66, 100
1, 18795, Note_on_c, 8, 70, 100
1, 18806, Note_on_c, 7, 75, 91
1, 18806, Note_on_c, 7, 59, 91
1, 18815, Note_on_c, 8, 78, 0
1, 18815, Note_on_c, 8, 75, 0
1, 18815, Note_on_c, 8, 66, 0
1, 18815, Note_on_c, 8, 70, 0
1, 18818, Note_on_c, 7, 78, 91
1, 18818, Note_on_c, 7, 54, 91
1, 18818, Note_on_c, 8, 78, 100
1, 18818, Note_on_c, 8, 75, 100
1, 18818, Note_on_c, 8, 66, 100
1, 18818, Note_on_c, 8, 70, 100
1, 18829, Note_on_c, 7, 82, 91
1, 18829, Note_on_c, 7, 63, 91
1, 18837, Note_on_c, 8, 78, 0
1, 18837, Note_on_c, 8, 75, 0
1, 18837, Note_on_c, 8, 66, 0
1, 18837, Note_on_c, 8, 70, 0
1, 18840, Note_on_c, 8, 78, 100
1, 18840, Note_on_c, 8, 75, 100
1, 18840, Note_on_c, 8, 66, 100
1, 18840, Note_on_c, 8, 70, 100
1, 18859, Note_on_c, 8, 78, 0
1, 18859, Note_on_c, 8, 75, 0
1, 18859, Note_on_c, 8, 66, 0
1, 18859, Note_on_c, 8, 70, 0
1, 18862, Note_on_c, 8, 78, 100
1, 18862, Note_on_c, 8, 75, 100
1, 18862, Note_on_c, 8, 66, 100
1, 18862, Note_on_c, 8, 70, 100
1, 18881, Note_on_c, 8, 78, 0
1, 18881, Note_on_c, 8, 75, 0
1, 18881, Note_on_c, 8, 66, 0
1, 18881, Note_on_c, 8, 70, 0
1, 18884, Note_on_c, 8, 78, 100
1, 18884, Note_on_c, 8, 75, 100
1, 18884, Note_on_c, 8, 66, 100
1, 18884, Note_on_c, 8, 70, 100
1, 18904, Note_on_c, 8, 78, 0
1, 18904, Note_on_c, 8, 75, 0
1, 18904, Note_on_c, 8, 66, 0
1, 18904, Note_on_c, 8, 70, 0
1, 18906, Note_on_c, 8, 78, 100
1, 18906, Note_on_c, 8, 75, 100
1, 18906, Note_on_c, 8, 66, 100
1, 18906, Note_on_c, 8, 70, 100
1, 18926, Note_on_c, 8, 78, 0
1, 18926, Note_on_c, 8, 75, 0
1, 18926, Note_on_c, 8, 66, 0
1, 18926, Note_on_c, 8, 70, 0
1, 18929, Note_on_c, 0, 87, 100
1, 18929, Note_on_c, 1, 78, 100
1, 18929, Note_on_c, 1, 71, 100
1, 18929, Note_on_c, 2, 75, 100
1, 18929, Note_on_c, 2, 71, 100
1, 18929, Control_c, 8, 0, 0
1, 18929, Control_c, 8, 32, 0
1, 18929, Program_c, 8, 48
1, 18929, Note_on_c, 8, 78, 100
1, 18929, Note_on_c, 8, 87, 100
1, 18929, Control_c, 8, 0, 0
1, 18929, Control_c, 8, 32, 0
1, 18929, Program_c, 8, 49
1, 18929, Note_on_c, 8, 87, 100
1, 18929, Note_on_c, 8, 78, 100
1, 18929, Note_on_c, 8, 78, 100
1, 18929, Note_on_c, 8, 75, 100
1, 18929, Note_on_c, 8, 66, 100
1, 18929, Note_on_c, 8, 70, 100
1, 18931, Note_on_c, 0, 88, 0
1, 18931, Note_on_c, 1, 80, 0
1, 18931, Note_on_c, 1, 73, 0
1, 18931, Note_on_c, 2, 76, 0
1, 18931, Note_on_c, 2, 73, 0
1, 18931, Control_c, 8, 0, 0
1, 18931, Control_c, 8, 32, 0
1, 18931, Program_c, 8, 48
1, 18931, Note_on_c, 8, 80, 0
1, 18931, Note_on_c, 8, 88, 0
1, 18931, Control_c, 8, 0, 0
1, 18931, Control_c, 8, 32, 0
1, 18931, Program_c, 8, 49
1, 18931, Note_on_c, 8, 88, 0
1, 18931, Note_on_c, 8, 80, 0
1, 18948, Note_on_c, 8, 78, 0
1, 18948, Note_on_c, 8, 75, 0
1, 18948, Note_on_c, 8, 66, 0
1, 18948, Note_on_c, 8, 70, 0
1, 18951, Note_on_c, 8, 78, 100
1, 18951, Note_on_c, 8, 75, 100
1, 18951, Note_on_c, 8, 66, 100
1, 18951, Note_on_c, 8, 70, 100
1, 18970, Note_on_c, 8, 78, 0
1, 18970, Note_on_c, 8, 75, 0
1, 18970, Note_on_c, 8, 66, 0
1, 18970, Note_on_c, 8, 70, 0
1, 18973, Note_on_c, 8, 78, 100
1, 18973, Note_on_c, 8, 75, 100
1, 18973, Note_on_c, 8, 66, 100
1, 18973, Note_on_c, 8, 70, 100
1, 18992, Note_on_c, 8, 78, 0
1, 18992, Note_on_c, 8, 75, 0
1, 18992, Note_on_c, 8, 66, 0
1, 18992, Note_on_c, 8, 70, 0
1, 18995, Note_on_c, 8, 78, 100
1, 18995, Note_on_c, 8, 75, 100
1, 18995, Note_on_c, 8, 66, 100
1, 18995, Note_on_c, 8, 70, 100
1, 19015, Note_on_c, 8, 78, 0
1, 19015, Note_on_c, 8, 75, 0
1, 19015, Note_on_c, 8, 66, 0
1, 19015, Note_on_c, 8, 70, 0
1, 19018, Note_on_c, 8, 78, 100
1, 19018, Note_on_c, 8, 75, 100
1, 19018, Note_on_c, 8, 66, 100
1, 19018, Note_on_c, 8, 70, 100
1, 19023, Note_on_c, 7, 70, 0
1, 19023, Note_on_c, 7, 51, 0
1, 19034, Note_on_c, 7, 75, 0
1, 19034, Note_on_c, 7, 59, 0
1, 19037, Note_on_c, 8, 78, 0
1, 19037, Note_on_c, 8, 75, 0
1, 19037, Note_on_c, 8, 66, 0
1, 19037, Note_on_c, 8, 70, 0
1, 19040, Note_on_c, 8, 78, 100
1, 19040, Note_on_c, 8, 75, 100
1, 19040, Note_on_c, 8, 66, 100
1, 19040, Note_on_c, 8, 70, 100
1, 19045, Note_on_c, 7, 78, 0
1, 19045, Note_on_c, 7, 54, 0
1, 19056, Note_on_c, 7, 82, 0
1, 19056, Note_on_c, 7, 63, 0
1, 19059, Note_on_c, 8, 78, 0
1, 19059, Note_on_c, 8, 75, 0
1, 19059, Note_on_c, 8, 66, 0
1, 19059, Note_on_c, 8, 70, 0
1, 19062, Note_on_c, 4, 54, 0
1, 19062, Note_on_c, 4, 63, 0
1, 19062, Note_on_c, 4, 59, 0
1, 19062, Note_on_c, 4, 66, 0
1, 19062, Note_on_c, 0, 85, 100
1, 19062, Note_on_c, 1, 76, 100
1, 19062, Note_on_c, 1, 70, 100
1, 19062, Note_on_c, 2, 70, 100
1, 19062, Note_on_c, 2, 73, 100
1, 19062, Note_on_c, 4, 56, 106
1, 19062, Note_on_c, 4, 59, 106
1, 19062, Note_on_c, 4, 68, 106
1, 19062, Note_on_c, 4, 64, 106
1, 19062, Note_on_c, 7, 71, 93
1, 19062, Note_on_c, 7, 49, 93
1, 19062, Control_c, 8, 0, 0
1, 19062, Control_c, 8, 32, 0
1, 19062, Program_c, 8, 48
1, 19062, Note_on_c, 8, 76, 100
1, 19062, Note_on_c, 8, 85, 100
1, 19062, Control_c, 8, 0, 0
1, 19062, Control_c, 8, 32, 0
1, 19062, Program_c, 8, 49
1, 19062, Note_on_c, 8, 85, 100
1, 19062, Note_on_c, 8, 76, 100
1, 19062, Note_on_c, 8, 80, 100
1, 19062, Note_on_c, 8, 76, 100
1, 19062, Note_on_c, 8, 68, 100
1, 19062, Note_on_c, 8, 71, 100
1, 19065, Note_on_c, 0, 87, 0
1, 19065, Note_on_c, 1, 78, 0
1, 19065, Note_on_c, 1, 71, 0
1, 19065, Note_on_c, 2, 75, 0
1, 19065, Note_on_c, 2, 71, 0
1, 19065, Control_c, 8, 0, 0
1, 19065, Control_c, 8, 32, 0
1, 19065, Program_c, 8, 48
1, 19065, Note_on_c, 8, 78, 0
1, 19065, Note_on_c, 8, 87, 0
1, 19065, Control_c, 8, 0, 0
1, 19065, Control_c, 8, 32, 0
1, 19065, Program_c, 8, 49
1, 19065, Note_on_c, 8, 87, 0
1, 19065, Note_on_c, 8, 78, 0
1, 19073, Note_on_c, 7, 76, 93
1, 19073, Note_on_c, 7, 52, 93
1, 19081, Note_on_c, 8, 80, 0
1, 19081, Note_on_c, 8, 76, 0
1, 19081, Note_on_c, 8, 68, 0
1, 19081, Note_on_c, 8, 71, 0
1, 19084, Note_on_c, 7, 80, 93
1, 19084, Note_on_c, 7, 56, 93
1, 19084, Note_on_c, 8, 80, 100
1, 19084, Note_on_c, 8, 76, 100
1, 19084, Note_on_c, 8, 68, 100
1, 19084, Note_on_c, 8, 71, 100
1, 19095, Note_on_c, 7, 83, 93
1, 19095, Note_on_c, 7, 61, 93
1, 19104, Note_on_c, 8, 80, 0
1, 19104, Note_on_c, 8, 76, 0
1, 19104, Note_on_c, 8, 68, 0
1, 19104, Note_on_c, 8, 71, 0
1, 19106, Note_on_c, 8, 80, 100
1, 19106, Note_on_c, 8, 76, 100
1, 19106, Note_on_c, 8, 68, 100
1, 19106, Note_on_c, 8, 71, 100
1, 19126, Note_on_c, 8, 80, 0
1, 19126, Note_on_c, 8, 76, 0
1, 19126, Note_on_c, 8, 68, 0
1, 19126, Note_on_c, 8, 71, 0
1, 19129, Note_on_c, 8, 80, 100
1, 19129, Note_on_c, 8, 76, 100
1, 19129, Note_on_c, 8, 68, 100
1, 19129, Note_on_c, 8, 71, 100
1, 19148, Note_on_c, 8, 80, 0
1, 19148, Note_on_c, 8, 76, 0
1, 19148, Note_on_c, 8, 68, 0
1, 19148, Note_on_c, 8, 71, 0
1, 19151, Note_on_c, 8, 80, 100
1, 19151, Note_on_c, 8, 76, 100
1, 19151, Note_on_c, 8, 68, 100
1, 19151, Note_on_c, 8, 71, 100
1, 19170, Note_on_c, 8, 80, 0
1, 19170, Note_on_c, 8, 76, 0
1, 19170, Note_on_c, 8, 68, 0
1, 19170, Note_on_c, 8, 71, 0
1, 19173, Note_on_c, 8, 80, 100
1, 19173, Note_on_c, 8, 76, 100
1, 19173, Note_on_c, 8, 68, 100
1, 19173, Note_on_c, 8, 71, 100
1, 19192, Note_on_c, 8, 80, 0
1, 19192, Note_on_c, 8, 76, 0
1, 19192, Note_on_c, 8, 68, 0
1, 19192, Note_on_c, 8, 71, 0
1, 19195, Note_on_c, 0, 88, 100
1, 19195, Note_on_c, 1, 73, 100
1, 19195, Note_on_c, 1, 80, 100
1, 19195, Note_on_c, 2, 73, 100
1, 19195, Note_on_c, 2, 76, 100
1, 19195, Control_c, 8, 0, 0
1, 19195, Control_c, 8, 32, 0
1, 19195, Program_c, 8, 48
1, 19195, Note_on_c, 8, 80, 100
1, 19195, Note_on_c, 8, 88, 100
1, 19195, Control_c, 8, 0, 0
1, 19195, Control_c, 8, 32, 0
1, 19195, Program_c, 8, 49
1, 19195, Note_on_c, 8, 88, 100
1, 19195, Note_on_c, 8, 80, 100
1, 19195, Note_on_c, 8, 80, 100
1, 19195, Note_on_c, 8, 76, 100
1, 19195, Note_on_c, 8, 68, 100
1, 19195, Note_on_c, 8, 71, 100
1, 19198, Note_on_c, 0, 85, 0
1, 19198, Note_on_c, 1, 76, 0
1, 19198, Note_on_c, 1, 70, 0
1, 19198, Note_on_c, 2, 70, 0
1, 19198, Control_c, 8, 0, 0
1, 19198, Control_c, 8, 32, 0
1, 19198, Program_c, 8, 48
1, 19198, Note_on_c, 8, 76, 0
1, 19198, Note_on_c, 8, 85, 0
1, 19198, Control_c, 8, 0, 0
1, 19198, Control_c, 8, 32, 0
1, 19198, Program_c, 8, 49
1, 19198, Note_on_c, 8, 85, 0
1, 19198, Note_on_c, 8, 76, 0
1, 19198, Note_on_c, 2, 73, 0
1, 19215, Note_on_c, 8, 80, 0
1, 19215, Note_on_c, 8, 76, 0
1, 19215, Note_on_c, 8, 68, 0
1, 19215, Note_on_c, 8, 71, 0
1, 19218, Note_on_c, 8, 80, 100
1, 19218, Note_on_c, 8, 76, 100
1, 19218, Note_on_c, 8, 68, 100
1, 19218, Note_on_c, 8, 71, 100
1, 19237, Note_on_c, 8, 80, 0
1, 19237, Note_on_c, 8, 76, 0
1, 19237, Note_on_c, 8, 68, 0
1, 19237, Note_on_c, 8, 71, 0
1, 19240, Note_on_c, 8, 80, 100
1, 19240, Note_on_c, 8, 76, 100
1, 19240, Note_on_c, 8, 68, 100
1, 19240, Note_on_c, 8, 71, 100
1, 19259, Note_on_c, 8, 80, 0
1, 19259, Note_on_c, 8, 76, 0
1, 19259, Note_on_c, 8, 68, 0
1, 19259, Note_on_c, 8, 71, 0
1, 19262, Note_on_c, 8, 80, 100
1, 19262, Note_on_c, 8, 76, 100
1, 19262, Note_on_c, 8, 68, 100
1, 19262, Note_on_c, 8, 71, 100
1, 19281, Note_on_c, 8, 80, 0
1, 19281, Note_on_c, 8, 76, 0
1, 19281, Note_on_c, 8, 68, 0
1, 19281, Note_on_c, 8, 71, 0
1, 19284, Note_on_c, 8, 80, 100
1, 19284, Note_on_c, 8, 76, 100
1, 19284, Note_on_c, 8, 68, 100
1, 19284, Note_on_c, 8, 71, 100
1, 19290, Note_on_c, 7, 71, 0
1, 19290, Note_on_c, 7, 49, 0
1, 19301, Note_on_c, 7, 76, 0
1, 19301, Note_on_c, 7, 52, 0
1, 19304, Note_on_c, 8, 80, 0
1, 19304, Note_on_c, 8, 76, 0
1, 19304, Note_on_c, 8, 68, 0
1, 19304, Note_on_c, 8, 71, 0
1, 19306, Note_on_c, 8, 80, 100
1, 19306, Note_on_c, 8, 76, 100
1, 19306, Note_on_c, 8, 68, 100
1, 19306, Note_on_c, 8, 71, 100
1, 19312, Note_on_c, 7, 80, 0
1, 19312, Note_on_c, 7, 56, 0
1, 19323, Note_on_c, 7, 83, 0
1, 19323, Note_on_c, 7, 61, 0
1, 19326, Note_on_c, 8, 80, 0
1, 19326, Note_on_c, 8, 76, 0
1, 19326, Note_on_c, 8, 68, 0
1, 19326, Note_on_c, 8, 71, 0
1, 19329, Note_on_c, 4, 56, 0
1, 19329, Note_on_c, 4, 59, 0
1, 19329, Note_on_c, 4, 68, 0
1, 19329, Note_on_c, 4, 64, 0
1, 19329, Control_c, 8, 0, 0
1, 19329, Control_c, 8, 32, 0
1, 19329, Program_c, 8, 48
1, 19329, Note_on_c, 8, 80, 0
1, 19329, Note_on_c, 8, 88, 0
1, 19329, Control_c, 8, 0, 0
1, 19329, Control_c, 8, 32, 0
1, 19329, Program_c, 8, 49
1, 19329, Note_on_c, 8, 88, 0
1, 19329, Note_on_c, 8, 80, 0
1, 19329, Note_on_c, 0, 87, 100
1, 19329, Note_on_c, 1, 78, 100
1, 19329, Note_on_c, 1, 71, 100
1, 19329, Note_on_c, 2, 75, 100
1, 19329, Note_on_c, 2, 71, 100
1, 19329, Note_on_c, 4, 58, 110
1, 19329, Note_on_c, 4, 66, 110
1, 19329, Note_on_c, 4, 63, 110
1, 19329, Note_on_c, 4, 70, 110
1, 19329, Control_c, 5, 11, 100
1, 19329, Control_c, 5, 0, 0
1, 19329, Control_c, 5, 32, 0
1, 19329, Program_c, 5, 61
1, 19329, Note_on_c, 7, 71, 95
1, 19329, Note_on_c, 7, 47, 95
1, 19329, Control_c, 8, 0, 0
1, 19329, Control_c, 8, 32, 0
1, 19329, Program_c, 8, 48
1, 19329, Note_on_c, 8, 78, 100
1, 19329, Note_on_c, 8, 87, 100
1, 19329, Control_c, 8, 0, 0
1, 19329, Control_c, 8, 32, 0
1, 19329, Program_c, 8, 49
1, 19329, Note_on_c, 8, 87, 100
1, 19329, Note_on_c, 8, 78, 100
1, 19329, Note_on_c, 8, 82, 100
1, 19329, Note_on_c, 8, 78, 100
1, 19329, Note_on_c, 8, 70, 100
1, 19329, Note_on_c, 8, 73, 100
1, 19331, Note_on_c, 2, 73, 0
1, 19331, Note_on_c, 0, 88, 0
1, 19331, Note_on_c, 1, 73, 0
1, 19331, Note_on_c, 1, 80, 0
1, 19331, Note_on_c, 2, 76, 0
1, 19340, Note_on_c, 7, 75, 95
1, 19340, Note_on_c, 7, 51, 95
1, 19348, Note_on_c, 8, 82, 0
1, 19348, Note_on_c, 8, 78, 0
1, 19348, Note_on_c, 8, 70, 0
1, 19348, Note_on_c, 8, 73, 0
1, 19350, Note_on_c, 7, 78, 95
1, 19350, Note_on_c, 7, 54, 95
1, 19350, Note_on_c, 8, 82, 100
1, 19350, Note_on_c, 8, 78, 100
1, 19350, Note_on_c, 8, 70, 100
1, 19350, Note_on_c, 8, 73, 100
1, 19361, Note_on_c, 7, 82, 95
1, 19361, Note_on_c, 7, 58, 95
1, 19370, Note_on_c, 8, 82, 0
1, 19370, Note_on_c, 8, 78, 0
1, 19370, Note_on_c, 8, 70, 0
1, 19370, Note_on_c, 8, 73, 0
1, 19372, Note_on_c, 7, 83, 95
1, 19372, Note_on_c, 7, 59, 95
1, 19372, Note_on_c, 8, 82, 100
1, 19372, Note_on_c, 8, 78, 100
1, 19372, Note_on_c, 8, 70, 100
1, 19372, Note_on_c, 8, 73, 100
1, 19391, Note_on_c, 8, 82, 0
1, 19391, Note_on_c, 8, 78, 0
1, 19391, Note_on_c, 8, 70, 0
1, 19391, Note_on_c, 8, 73, 0
1, 19394, Note_on_c, 8, 82, 100
1, 19394, Note_on_c, 8, 78, 100
1, 19394, Note_on_c, 8, 70, 100
1, 19394, Note_on_c, 8, 73, 100
1, 19413, Note_on_c, 8, 82, 0
1, 19413, Note_on_c, 8, 78, 0
1, 19413, Note_on_c, 8, 70, 0
1, 19413, Note_on_c, 8, 73, 0
1, 19416, Note_on_c, 8, 82, 100
1, 19416, Note_on_c, 8, 78, 100
1, 19416, Note_on_c, 8, 70, 100
1, 19416, Note_on_c, 8, 73, 100
1, 19435, Note_on_c, 8, 82, 0
1, 19435, Note_on_c, 8, 78, 0
1, 19435, Note_on_c, 8, 70, 0
1, 19435, Note_on_c, 8, 73, 0
1, 19438, Note_on_c, 8, 82, 100
1, 19438, Note_on_c, 8, 78, 100
1, 19438, Note_on_c, 8, 70, 100
1, 19438, Note_on_c, 8, 73, 100
1, 19457, Note_on_c, 8, 82, 0
1, 19457, Note_on_c, 8, 78, 0
1, 19457, Note_on_c, 8, 70, 0
1, 19457, Note_on_c, 8, 73, 0
1, 19460, Note_on_c, 0, 83, 100
1, 19460, Note_on_c, 1, 75, 100
1, 19460, Note_on_c, 1, 68, 100
1, 19460, Note_on_c, 2, 71, 100
1, 19460, Note_on_c, 2, 68, 100
1, 19460, Control_c, 8, 0, 0
1, 19460, Control_c, 8, 32, 0
1, 19460, Program_c, 8, 48
1, 19460, Note_on_c, 8, 75, 100
1, 19460, Note_on_c, 8, 83, 100
1, 19460, Control_c, 8, 0, 0
1, 19460, Control_c, 8, 32, 0
1, 19460, Program_c, 8, 49
1, 19460, Note_on_c, 8, 83, 100
1, 19460, Note_on_c, 8, 75, 100
1, 19460, Note_on_c, 8, 82, 100
1, 19460, Note_on_c, 8, 78, 100
1, 19460, Note_on_c, 8, 70, 100
1, 19460, Note_on_c, 8, 73, 100
1, 19462, Note_on_c, 0, 87, 0
1, 19462, Note_on_c, 1, 78, 0
1, 19462, Note_on_c, 1, 71, 0
1, 19462, Note_on_c, 2, 75, 0
1, 19462, Control_c, 8, 0, 0
1, 19462, Control_c, 8, 32, 0
1, 19462, Program_c, 8, 48
1, 19462, Note_on_c, 8, 78, 0
1, 19462, Note_on_c, 8, 87, 0
1, 19462, Control_c, 8, 0, 0
1, 19462, Control_c, 8, 32, 0
1, 19462, Program_c, 8, 49
1, 19462, Note_on_c, 8, 87, 0
1, 19462, Note_on_c, 8, 78, 0
1, 19462, Note_on_c, 2, 71, 0
1, 19479, Note_on_c, 8, 82, 0
1, 19479, Note_on_c, 8, 78, 0
1, 19479, Note_on_c, 8, 70, 0
1, 19479, Note_on_c, 8, 73, 0
1, 19481, Note_on_c, 8, 82, 100
1, 19481, Note_on_c, 8, 78, 100
1, 19481, Note_on_c, 8, 70, 100
1, 19481, Note_on_c, 8, 73, 100
1, 19500, Note_on_c, 8, 82, 0
1, 19500, Note_on_c, 8, 78, 0
1, 19500, Note_on_c, 8, 70, 0
1, 19500, Note_on_c, 8, 73, 0
1, 19503, Note_on_c, 8, 82, 100
1, 19503, Note_on_c, 8, 78, 100
1, 19503, Note_on_c, 8, 70, 100
1, 19503, Note_on_c, 8, 73, 100
1, 19522, Note_on_c, 8, 82, 0
1, 19522, Note_on_c, 8, 78, 0
1, 19522, Note_on_c, 8, 70, 0
1, 19522, Note_on_c, 8, 73, 0
1, 19525, Note_on_c, 8, 82, 100
1, 19525, Note_on_c, 8, 78, 100
1, 19525, Note_on_c, 8, 70, 100
1, 19525, Note_on_c, 8, 73, 100
1, 19544, Note_on_c, 8, 82, 0
1, 19544, Note_on_c, 8, 78, 0
1, 19544, Note_on_c, 8, 70, 0
1, 19544, Note_on_c, 8, 73, 0
1, 19547, Note_on_c, 8, 82, 100
1, 19547, Note_on_c, 8, 78, 100
1, 19547, Note_on_c, 8, 70, 100
1, 19547, Note_on_c, 8, 73, 100
1, 19552, Note_on_c, 7, 71, 0
1, 19552, Note_on_c, 7, 47, 0
1, 19563, Note_on_c, 7, 75, 0
1, 19563, Note_on_c, 7, 51, 0
1, 19566, Note_on_c, 8, 82, 0
1, 19566, Note_on_c, 8, 78, 0
1, 19566, Note_on_c, 8, 70, 0
1, 19566, Note_on_c, 8, 73, 0
1, 19569, Note_on_c, 8, 82, 100
1, 19569, Note_on_c, 8, 78, 100
1, 19569, Note_on_c, 8, 70, 100
1, 19569, Note_on_c, 8, 73, 100
1, 19574, Note_on_c, 7, 78, 0
1, 19574, Note_on_c, 7, 54, 0
1, 19585, Note_on_c, 7, 82, 0
1, 19585, Note_on_c, 7, 58, 0
1, 19585, Note_on_c, 7, 83, 0
1, 19585, Note_on_c, 7, 59, 0
1, 19588, Note_on_c, 8, 82, 0
1, 19588, Note_on_c, 8, 78, 0
1, 19588, Note_on_c, 8, 70, 0
1, 19588, Note_on_c, 8, 73, 0
1, 19590, Note_on_c, 4, 58, 0
1, 19590, Note_on_c, 4, 66, 0
1, 19590, Note_on_c, 4, 63, 0
1, 19590, Note_on_c, 4, 70, 0
1, 19590, Note_on_c, 0, 85, 100
1, 19590, Note_on_c, 1, 76, 100
1, 19590, Note_on_c, 1, 70, 100
1, 19590, Note_on_c, 2, 70, 100
1, 19590, Note_on_c, 2, 73, 100
1, 19590, Note_on_c, 4, 59, 113
1, 19590, Note_on_c, 4, 61, 113
1, 19590, Note_on_c, 4, 71, 113
1, 19590, Note_on_c, 4, 68, 113
1, 19590, Note_on_c, 7, 71, 96
1, 19590, Note_on_c, 7, 47, 96
1, 19590, Control_c, 8, 0, 0
1, 19590, Control_c, 8, 32, 0
1, 19590, Program_c, 8, 48
1, 19590, Note_on_c, 8, 76, 100
1, 19590, Note_on_c, 8, 85, 100
1, 19590, Control_c, 8, 0, 0
1, 19590, Control_c, 8, 32, 0
1, 19590, Program_c, 8, 49
1, 19590, Note_on_c, 8, 85, 100
1, 19590, Note_on_c, 8, 76, 100
1, 19590, Note_on_c, 8, 83, 100
1, 19590, Note_on_c, 8, 80, 100
1, 19590, Note_on_c, 8, 71, 100
1, 19590, Note_on_c, 8, 75, 100
1, 19593, Note_on_c, 2, 71, 0
1, 19593, Note_on_c, 0, 83, 0
1, 19593, Note_on_c, 1, 75, 0
1, 19593, Note_on_c, 1, 68, 0
1, 19593, Note_on_c, 2, 68, 0
1, 19593, Control_c, 8, 0, 0
1, 19593, Control_c, 8, 32, 0
1, 19593, Program_c, 8, 48
1, 19593, Note_on_c, 8, 75, 0
1, 19593, Note_on_c, 8, 83, 0
1, 19593, Control_c, 8, 0, 0
1, 19593, Control_c, 8, 32, 0
1, 19593, Program_c, 8, 49
1, 19593, Note_on_c, 8, 83, 0
1, 19593, Note_on_c, 8, 75, 0
1, 19601, Note_on_c, 7, 73, 96
1, 19601, Note_on_c, 7, 49, 96
1, 19610, Note_on_c, 8, 83, 0
1, 19610, Note_on_c, 8, 80, 0
1, 19610, Note_on_c, 8, 71, 0
1, 19610, Note_on_c, 8, 75, 0
1, 19612, Note_on_c, 7, 76, 96
1, 19612, Note_on_c, 7, 52, 96
1, 19612, Note_on_c, 8, 83, 100
1, 19612, Note_on_c, 8, 80, 100
1, 19612, Note_on_c, 8, 71, 100
1, 19612, Note_on_c, 8, 75, 100
1, 19623, Note_on_c, 7, 80, 96
1, 19623, Note_on_c, 7, 56, 96
1, 19631, Note_on_c, 8, 83, 0
1, 19631, Note_on_c, 8, 80, 0
1, 19631, Note_on_c, 8, 71, 0
1, 19631, Note_on_c, 8, 75, 0
1, 19634, Note_on_c, 7, 83, 96
1, 19634, Note_on_c, 7, 59, 96
1, 19634, Note_on_c, 8, 83, 100
1, 19634, Note_on_c, 8, 80, 100
1, 19634, Note_on_c, 8, 71, 100
1, 19634, Note_on_c, 8, 75, 100
1, 19653, Note_on_c, 8, 83, 0
1, 19653, Note_on_c, 8, 80, 0
1, 19653, Note_on_c, 8, 71, 0
1, 19653, Note_on_c, 8, 75, 0
1, 19656, Note_on_c, 8, 83, 100
1, 19656, Note_on_c, 8, 80, 100
1, 19656, Note_on_c, 8, 71, 100
1, 19656, Note_on_c, 8, 75, 100
1, 19675, Note_on_c, 8, 83, 0
1, 19675, Note_on_c, 8, 80, 0
1, 19675, Note_on_c, 8, 71, 0
1, 19675, Note_on_c, 8, 75, 0
1, 19678, Note_on_c, 8, 83, 100
1, 19678, Note_on_c, 8, 80, 100
1, 19678, Note_on_c, 8, 71, 100
1, 19678, Note_on_c, 8, 75, 100
1, 19697, Note_on_c, 8, 83, 0
1, 19697, Note_on_c, 8, 80, 0
1, 19697, Note_on_c, 8, 71, 0
1, 19697, Note_on_c, 8, 75, 0
1, 19700, Note_on_c, 8, 83, 100
1, 19700, Note_on_c, 8, 80, 100
1, 19700, Note_on_c, 8, 71, 100
1, 19700, Note_on_c, 8, 75, 100
1, 19719, Note_on_c, 8, 83, 0
1, 19719, Note_on_c, 8, 80, 0
1, 19719, Note_on_c, 8, 71, 0
1, 19719, Note_on_c, 8, 75, 0
1, 19721, Note_on_c, 8, 83, 100
1, 19721, Note_on_c, 8, 80, 100
1, 19721, Note_on_c, 8, 71, 100
1, 19721, Note_on_c, 8, 75, 100
1, 19740, Note_on_c, 8, 83, 0
1, 19740, Note_on_c, 8, 80, 0
1, 19740, Note_on_c, 8, 71, 0
1, 19740, Note_on_c, 8, 75, 0
1, 19743, Note_on_c, 8, 83, 100
1, 19743, Note_on_c, 8, 80, 100
1, 19743, Note_on_c, 8, 71, 100
1, 19743, Note_on_c, 8, 75, 100
1, 19762, Note_on_c, 8, 83, 0
1, 19762, Note_on_c, 8, 80, 0
1, 19762, Note_on_c, 8, 71, 0
1, 19762, Note_on_c, 8, 75, 0
1, 19765, Note_on_c, 8, 83, 100
1, 19765, Note_on_c, 8, 80, 100
1, 19765, Note_on_c, 8, 71, 100
1, 19765, Note_on_c, 8, 75, 100
1, 19784, Note_on_c, 8, 83, 0
1, 19784, Note_on_c, 8, 80, 0
1, 19784, Note_on_c, 8, 71, 0
1, 19784, Note_on_c, 8, 75, 0
1, 19787, Note_on_c, 8, 83, 100
1, 19787, Note_on_c, 8, 80, 100
1, 19787, Note_on_c, 8, 71, 100
1, 19787, Note_on_c, 8, 75, 100
1, 19806, Note_on_c, 8, 83, 0
1, 19806, Note_on_c, 8, 80, 0
1, 19806, Note_on_c, 8, 71, 0
1, 19806, Note_on_c, 8, 75, 0
1, 19809, Note_on_c, 8, 83, 100
1, 19809, Note_on_c, 8, 80, 100
1, 19809, Note_on_c, 8, 71, 100
1, 19809, Note_on_c, 8, 75, 100
1, 19814, Note_on_c, 7, 71, 0
1, 19814, Note_on_c, 7, 47, 0
1, 19825, Note_on_c, 7, 73, 0
1, 19825, Note_on_c, 7, 49, 0
1, 19828, Note_on_c, 8, 83, 0
1, 19828, Note_on_c, 8, 80, 0
1, 19828, Note_on_c, 8, 71, 0
1, 19828, Note_on_c, 8, 75, 0
1, 19830, Note_on_c, 8, 83, 100
1, 19830, Note_on_c, 8, 80, 100
1, 19830, Note_on_c, 8, 71, 100
1, 19830, Note_on_c, 8, 75, 100
1, 19836, Note_on_c, 7, 76, 0
1, 19836, Note_on_c, 7, 52, 0
1, 19847, Note_on_c, 7, 80, 0
1, 19847, Note_on_c, 7, 56, 0
1, 19847, Note_on_c, 7, 59, 0
1, 19850, Note_on_c, 8, 83, 0
1, 19850, Note_on_c, 8, 80, 0
1, 19850, Note_on_c, 8, 71, 0
1, 19850, Note_on_c, 8, 75, 0
1, 19852, Note_on_c, 0, 85, 0
1, 19852, Note_on_c, 1, 76, 0
1, 19852, Note_on_c, 1, 70, 0
1, 19852, Note_on_c, 2, 70, 0
1, 19852, Note_on_c, 2, 73, 0
1, 19852, Note_on_c, 4, 59, 0
1, 19852, Note_on_c, 4, 61, 0
1, 19852, Note_on_c, 4, 71, 0
1, 19852, Note_on_c, 4, 68, 0
1, 19852, Control_c, 8, 0, 0
1, 19852, Control_c, 8, 32, 0
1, 19852, Program_c, 8, 48
1, 19852, Note_on_c, 8, 76, 0
1, 19852, Note_on_c, 8, 85, 0
1, 19852, Control_c, 8, 0, 0
1, 19852, Control_c, 8, 32, 0
1, 19852, Program_c, 8, 49
1, 19852, Note_on_c, 8, 85, 0
1, 19852, Note_on_c, 8, 76, 0
1, 19852, Note_on_c, 0, 73, 100
1, 19852, Control_c, 1, 11, 80
1, 19852, Note_on_c, 1, 85, 120
1, 19852, Note_on_c, 1, 71, 120
1, 19852, Control_c, 2, 11, 80
1, 19852, Note_on_c, 2, 79, 120
1, 19852, Note_on_c, 2, 76, 120
1, 19852, Note_on_c, 4, 55, 116
1, 19852, Note_on_c, 4, 71, 116
1, 19852, Note_on_c, 4, 61, 116
1, 19852, Note_on_c, 4, 64, 116
1, 19852, Note_on_c, 7, 71, 98
1, 19852, Note_on_c, 7, 47, 98
1, 19852, Control_c, 8, 0, 0
1, 19852, Control_c, 8, 32, 0
1, 19852, Program_c, 8, 48
1, 19852, Note_on_c, 8, 85, 100
1, 19852, Note_on_c, 8, 85, 100
1, 19852, Control_c, 8, 0, 0
1, 19852, Control_c, 8, 32, 0
1, 19852, Program_c, 8, 49
1, 19852, Note_on_c, 8, 76, 100
1, 19852, Note_on_c, 8, 76, 100
1, 19852, Note_on_c, 8, 85, 100
1, 19852, Note_on_c, 8, 82, 100
1, 19852, Note_on_c, 8, 73, 100
1, 19852, Note_on_c, 8, 76, 100
1, 19858, Note_on_c, 7, 83, 0
1, 19864, Note_on_c, 7, 73, 98
1, 19864, Note_on_c, 7, 49, 98
1, 19875, Note_on_c, 8, 73, 0
1, 19875, Note_on_c, 7, 76, 98
1, 19875, Note_on_c, 7, 52, 98
1, 19875, Note_on_c, 8, 66, 101
1, 19875, Note_on_c, 8, 66, 101
1, 19878, Note_on_c, 0, 73, 0
1, 19878, Note_on_c, 0, 75, 101
1, 19878, Control_c, 8, 0, 0
1, 19878, Control_c, 8, 32, 0
1, 19878, Program_c, 8, 48
1, 19878, Note_on_c, 8, 75, 101
1, 19878, Note_on_c, 8, 75, 101
1, 19878, Control_c, 8, 0, 0
1, 19878, Control_c, 8, 32, 0
1, 19878, Program_c, 8, 49
1, 19878, Note_on_c, 8, 71, 101
1, 19878, Note_on_c, 8, 71, 101
1, 19878, Note_on_c, 8, 54, 101
1, 19878, Note_on_c, 8, 54, 101
1, 19881, Note_on_c, 8, 85, 0
1, 19881, Note_on_c, 8, 82, 0
1, 19884, Control_c, 8, 0, 0
1, 19884, Control_c, 8, 32, 0
1, 19884, Program_c, 8, 48
1, 19884, Note_on_c, 8, 85, 0
1, 19884, Note_on_c, 8, 85, 0
1, 19884, Control_c, 8, 0, 0
1, 19884, Control_c, 8, 32, 0
1, 19884, Program_c, 8, 49
1, 19884, Note_on_c, 8, 76, 0
1, 19884, Note_on_c, 8, 76, 0
1, 19884, Note_on_c, 8, 76, 0
1, 19884, Control_c, 1, 11, 83
1, 19884, Control_c, 2, 11, 83
1, 19884, Control_c, 3, 11, 83
1, 19887, Note_on_c, 7, 79, 98
1, 19887, Note_on_c, 7, 55, 98
1, 19898, Note_on_c, 7, 83, 98
1, 19898, Note_on_c, 7, 59, 98
1, 19901, Note_on_c, 8, 67, 103
1, 19901, Note_on_c, 8, 67, 103
1, 19904, Note_on_c, 8, 66, 0
1, 19904, Note_on_c, 8, 66, 0
1, 19907, Note_on_c, 0, 75, 0
1, 19907, Note_on_c, 0, 76, 103
1, 19907, Control_c, 8, 0, 0
1, 19907, Control_c, 8, 32, 0
1, 19907, Program_c, 8, 48
1, 19907, Note_on_c, 8, 76, 103
1, 19907, Note_on_c, 8, 76, 103
1, 19907, Control_c, 8, 0, 0
1, 19907, Control_c, 8, 32, 0
1, 19907, Program_c, 8, 49
1, 19907, Note_on_c, 8, 73, 103
1, 19907, Note_on_c, 8, 73, 103
1, 19907, Note_on_c, 8, 55, 103
1, 19907, Note_on_c, 8, 55, 103
1, 19910, Control_c, 8, 0, 0
1, 19910, Control_c, 8, 32, 0
1, 19910, Program_c, 8, 48
1, 19910, Note_on_c, 8, 75, 0
1, 19910, Note_on_c, 8, 75, 0
1, 19910, Control_c, 8, 0, 0
1, 19910, Control_c, 8, 32, 0
1, 19910, Program_c, 8, 49
1, 19910, Note_on_c, 8, 71, 0
1, 19910, Note_on_c, 8, 71, 0
1, 19910, Note_on_c, 8, 54, 0
1, 19910, Note_on_c, 8, 54, 0
1, 19922, Note_on_c, 0, 83, 105
1, 19922, Control_c, 1, 11, 86
1, 19922, Control_c, 2, 11, 86
1, 19922, Control_c, 3, 11, 86
1, 19927, Note_on_c, 8, 69, 105
1, 19927, Note_on_c, 8, 69, 105
1, 19930, Note_on_c, 8, 67, 0
1, 19930, Note_on_c, 8, 67, 0
1, 19936, Note_on_c, 0, 76, 0
1, 19936, Note_on_c, 0, 78, 106
1, 19936, Control_c, 8, 0, 0
1, 19936, Control_c, 8, 32, 0
1, 19936, Program_c, 8, 48
1, 19936, Note_on_c, 8, 78, 106
1, 19936, Note_on_c, 8, 78, 106
1, 19936, Control_c, 8, 0, 0
1, 19936, Control_c, 8, 32, 0
1, 19936, Program_c, 8, 49
1, 19936, Note_on_c, 8, 75, 106
1, 19936, Note_on_c, 8, 75, 106
1, 19936, Note_on_c, 8, 57, 106
1, 19936, Note_on_c, 8, 57, 106
1, 19939, Control_c, 8, 0, 0
1, 19939, Control_c, 8, 32, 0
1, 19939, Program_c, 8, 48
1, 19939, Note_on_c, 8, 76, 0
1, 19939, Note_on_c, 8, 76, 0
1, 19939, Control_c, 8, 0, 0
1, 19939, Control_c, 8, 32, 0
1, 19939, Program_c, 8, 49
1, 19939, Note_on_c, 8, 73, 0
1, 19939, Note_on_c, 8, 73, 0
1, 19939, Note_on_c, 8, 55, 0
1, 19939, Note_on_c, 8, 55, 0
1, 19950, Note_on_c, 0, 83, 0
1, 19950, Note_on_c, 0, 85, 107
1, 19953, Note_on_c, 8, 71, 107
1, 19953, Note_on_c, 8, 71, 107
1, 19956, Note_on_c, 8, 69, 0
1, 19956, Note_on_c, 8, 69, 0
1, 19956, Control_c, 1, 11, 89
1, 19956, Control_c, 2, 11, 89
1, 19956, Control_c, 3, 11, 89
1, 19965, Note_on_c, 0, 78, 0
1, 19965, Note_on_c, 0, 79, 108
1, 19965, Control_c, 8, 0, 0
1, 19965, Control_c, 8, 32, 0
1, 19965, Program_c, 8, 48
1, 19965, Note_on_c, 8, 79, 108
1, 19965, Note_on_c, 8, 79, 108
1, 19965, Control_c, 8, 0, 0
1, 19965, Control_c, 8, 32, 0
1, 19965, Program_c, 8, 49
1, 19965, Note_on_c, 8, 76, 108
1, 19965, Note_on_c, 8, 76, 108
1, 19965, Note_on_c, 8, 59, 108
1, 19965, Note_on_c, 8, 59, 108
1, 19968, Control_c, 8, 0, 0
1, 19968, Control_c, 8, 32, 0
1, 19968, Program_c, 8, 48
1, 19968, Note_on_c, 8, 78, 0
1, 19968, Note_on_c, 8, 78, 0
1, 19968, Control_c, 8, 0, 0
1, 19968, Control_c, 8, 32, 0
1, 19968, Program_c, 8, 49
1, 19968, Note_on_c, 8, 75, 0
1, 19968, Note_on_c, 8, 75, 0
1, 19968, Note_on_c, 8, 57, 0
1, 19968, Note_on_c, 8, 57, 0
1, 19979, Note_on_c, 0, 85, 0
1, 19979, Note_on_c, 0, 88, 109
1, 19979, Note_on_c, 8, 73, 109
1, 19979, Note_on_c, 8, 73, 109
1, 19982, Note_on_c, 8, 71, 0
1, 19982, Note_on_c, 8, 71, 0
1, 19991, Note_on_c, 0, 79, 0
1, 19991, Note_on_c, 0, 81, 110
1, 19991, Control_c, 1, 11, 92
1, 19991, Control_c, 2, 11, 92
1, 19991, Control_c, 3, 11, 92
1, 19991, Control_c, 8, 0, 0
1, 19991, Control_c, 8, 32, 0
1, 19991, Program_c, 8, 48
1, 19991, Note_on_c, 8, 81, 110
1, 19991, Note_on_c, 8, 81, 110
1, 19991, Control_c, 8, 0, 0
1, 19991, Control_c, 8, 32, 0
1, 19991, Program_c, 8, 49
1, 19991, Note_on_c, 8, 78, 110
1, 19991, Note_on_c, 8, 78, 110
1, 19991, Note_on_c, 8, 61, 110
1, 19991, Note_on_c, 8, 61, 110
1, 19996, Control_c, 8, 0, 0
1, 19996, Control_c, 8, 32, 0
1, 19996, Program_c, 8, 48
1, 19996, Note_on_c, 8, 79, 0
1, 19996, Note_on_c, 8, 79, 0
1, 19996, Control_c, 8, 0, 0
1, 19996, Control_c, 8, 32, 0
1, 19996, Program_c, 8, 49
1, 19996, Note_on_c, 8, 76, 0
1, 19996, Note_on_c, 8, 76, 0
1, 19996, Note_on_c, 8, 59, 0
1, 19996, Note_on_c, 8, 59, 0
1, 20005, Note_on_c, 8, 75, 111
1, 20005, Note_on_c, 8, 75, 111
1, 20008, Note_on_c, 0, 88, 0
1, 20008, Note_on_c, 8, 73, 0
1, 20008, Note_on_c, 8, 73, 0
1, 20008, Note_on_c, 0, 91, 111
1, 20017, Note_on_c, 0, 81, 0
1, 20017, Note_on_c, 0, 83, 111
1, 20017, Control_c, 8, 0, 0
1, 20017, Control_c, 8, 32, 0
1, 20017, Program_c, 8, 48
1, 20017, Note_on_c, 8, 83, 111
1, 20017, Note_on_c, 8, 83, 111
1, 20017, Control_c, 8, 0, 0
1, 20017, Control_c, 8, 32, 0
1, 20017, Program_c, 8, 49
1, 20017, Note_on_c, 8, 79, 111
1, 20017, Note_on_c, 8, 79, 111
1, 20017, Note_on_c, 8, 63, 111
1, 20017, Note_on_c, 8, 63, 111
1, 20022, Control_c, 8, 0, 0
1, 20022, Control_c, 8, 32, 0
1, 20022, Program_c, 8, 48
1, 20022, Note_on_c, 8, 81, 0
1, 20022, Note_on_c, 8, 81, 0
1, 20022, Control_c, 8, 0, 0
1, 20022, Control_c, 8, 32, 0
1, 20022, Program_c, 8, 49
1, 20022, Note_on_c, 8, 78, 0
1, 20022, Note_on_c, 8, 78, 0
1, 20022, Note_on_c, 8, 61, 0
1, 20022, Note_on_c, 8, 61, 0
1, 20031, Note_on_c, 8, 76, 112
1, 20031, Note_on_c, 8, 76, 112
1, 20034, Note_on_c, 8, 75, 0
1, 20034, Note_on_c, 8, 75, 0
1, 20037, Note_on_c, 0, 91, 0
1, 20037, Note_on_c, 0, 97, 113
1, 20037, Control_c, 1, 11, 95
1, 20037, Control_c, 2, 11, 95
1, 20037, Control_c, 3, 11, 95
1, 20043, Note_on_c, 0, 83, 0
1, 20043, Note_on_c, 0, 85, 113
1, 20043, Control_c, 8, 0, 0
1, 20043, Control_c, 8, 32, 0
1, 20043, Program_c, 8, 48
1, 20043, Note_on_c, 8, 85, 113
1, 20043, Note_on_c, 8, 85, 113
1, 20043, Control_c, 8, 0, 0
1, 20043, Control_c, 8, 32, 0
1, 20043, Program_c, 8, 49
1, 20043, Note_on_c, 8, 81, 113
1, 20043, Note_on_c, 8, 81, 113
1, 20043, Note_on_c, 8, 64, 113
1, 20043, Note_on_c, 8, 64, 113
1, 20048, Control_c, 8, 0, 0
1, 20048, Control_c, 8, 32, 0
1, 20048, Program_c, 8, 48
1, 20048, Note_on_c, 8, 83, 0
1, 20048, Note_on_c, 8, 83, 0
1, 20048, Control_c, 8, 0, 0
1, 20048, Control_c, 8, 32, 0
1, 20048, Program_c, 8, 49
1, 20048, Note_on_c, 8, 79, 0
1, 20048, Note_on_c, 8, 79, 0
1, 20048, Note_on_c, 8, 63, 0
1, 20048, Note_on_c, 8, 63, 0
1, 20051, Note_on_c, 8, 78, 114
1, 20051, Note_on_c, 8, 78, 114
1, 20060, Note_on_c, 8, 76, 0
1, 20060, Note_on_c, 8, 76, 0
1, 20060, Control_c, 1, 11, 98
1, 20060, Control_c, 2, 11, 98
1, 20060, Control_c, 3, 11, 98
1, 20066, Note_on_c, 0, 97, 0
1, 20066, Note_on_c, 0, 99, 115
1, 20068, Note_on_c, 0, 85, 0
1, 20068, Note_on_c, 0, 87, 115
1, 20068, Control_c, 8, 0, 0
1, 20068, Control_c, 8, 32, 0
1, 20068, Program_c, 8, 48
1, 20068, Note_on_c, 8, 87, 115
1, 20068, Note_on_c, 8, 87, 115
1, 20068, Control_c, 8, 0, 0
1, 20068, Control_c, 8, 32, 0
1, 20068, Program_c, 8, 49
1, 20068, Note_on_c, 8, 83, 115
1, 20068, Note_on_c, 8, 83, 115
1, 20068, Note_on_c, 8, 66, 115
1, 20068, Note_on_c, 8, 66, 115
1, 20074, Control_c, 8, 0, 0
1, 20074, Control_c, 8, 32, 0
1, 20074, Program_c, 8, 48
1, 20074, Note_on_c, 8, 85, 0
1, 20074, Note_on_c, 8, 85, 0
1, 20074, Control_c, 8, 0, 0
1, 20074, Control_c, 8, 32, 0
1, 20074, Program_c, 8, 49
1, 20074, Note_on_c, 8, 81, 0
1, 20074, Note_on_c, 8, 81, 0
1, 20074, Note_on_c, 8, 64, 0
1, 20074, Note_on_c, 8, 64, 0
1, 20077, Note_on_c, 8, 79, 116
1, 20077, Note_on_c, 8, 79, 116
1, 20080, Note_on_c, 8, 78, 0
1, 20080, Note_on_c, 8, 78, 0
1, 20089, Note_on_c, 7, 71, 0
1, 20089, Note_on_c, 7, 47, 0
1, 20094, Note_on_c, 0, 99, 0
1, 20094, Note_on_c, 0, 87, 0
1, 20094, Note_on_c, 0, 88, 117
1, 20094, Note_on_c, 0, 100, 117
1, 20094, Control_c, 1, 11, 100
1, 20094, Control_c, 2, 11, 100
1, 20094, Control_c, 3, 11, 100
1, 20094, Control_c, 8, 0, 0
1, 20094, Control_c, 8, 32, 0
1, 20094, Program_c, 8, 48
1, 20094, Note_on_c, 8, 88, 117
1, 20094, Note_on_c, 8, 88, 117
1, 20094, Control_c, 8, 0, 0
1, 20094, Control_c, 8, 32, 0
1, 20094, Program_c, 8, 49
1, 20094, Note_on_c, 8, 85, 117
1, 20094, Note_on_c, 8, 85, 117
1, 20094, Note_on_c, 8, 67, 117
1, 20094, Note_on_c, 8, 67, 117
1, 20100, Note_on_c, 7, 73, 0
1, 20100, Note_on_c, 7, 49, 0
1, 20100, Control_c, 8, 0, 0
1, 20100, Control_c, 8, 32, 0
1, 20100, Program_c, 8, 48
1, 20100, Note_on_c, 8, 87, 0
1, 20100, Note_on_c, 8, 87, 0
1, 20100, Control_c, 8, 0, 0
1, 20100, Control_c, 8, 32, 0
1, 20100, Program_c, 8, 49
1, 20100, Note_on_c, 8, 83, 0
1, 20100, Note_on_c, 8, 83, 0
1, 20100, Note_on_c, 8, 66, 0
1, 20100, Note_on_c, 8, 66, 0
1, 20103, Note_on_c, 8, 81, 118
1, 20103, Note_on_c, 8, 81, 118
1, 20106, Note_on_c, 8, 79, 0
1, 20106, Note_on_c, 8, 79, 0
1, 20112, Note_on_c, 7, 76, 0
1, 20112, Note_on_c, 7, 52, 0
1, 20118, Note_on_c, 3, 42, 0
1, 20118, Note_on_c, 3, 42, 0
1, 20124, Note_on_c, 7, 79, 0
1, 20124, Note_on_c, 7, 55, 0
1, 20124, Note_on_c, 7, 83, 0
1, 20124, Note_on_c, 7, 59, 0
1, 20124, Note_on_c, 0, 88, 0
1, 20124, Control_c, 8, 0, 0
1, 20124, Control_c, 8, 32, 0
1, 20124, Program_c, 8, 48
1, 20124, Note_on_c, 8, 88, 0
1, 20124, Note_on_c, 8, 88, 0
1, 20124, Control_c, 8, 0, 0
1, 20124, Control_c, 8, 32, 0
1, 20124, Program_c, 8, 49
1, 20124, Note_on_c, 8, 85, 0
1, 20124, Note_on_c, 8, 85, 0
1, 20124, Note_on_c, 8, 67, 0
1, 20124, Note_on_c, 8, 67, 0
1, 20126, Note_on_c, 0, 100, 0
1, 20126, Note_on_c, 8, 81, 0
1, 20126, Note_on_c, 8, 81, 0
1, 20129, Note_on_c, 8, 42, 0
1, 20129, Note_on_c, 1, 85, 0
1, 20129, Note_on_c, 1, 71, 0
1, 20129, Note_on_c, 2, 79, 0
1, 20129, Note_on_c, 2, 76, 0
1, 20129, Note_on_c, 4, 55, 0
1, 20129, Note_on_c, 4, 71, 0
1, 20129, Note_on_c, 4, 61, 0
1, 20129, Note_on_c, 4, 64, 0
1, 20129, Note_on_c, 0, 90, 120
1, 20129, Note_on_c, 0, 102, 120
1, 20129, Note_on_c, 1, 87, 120
1, 20129, Note_on_c, 1, 78, 120
1, 20129, Note_on_c, 2, 83, 120
1, 20129, Note_on_c, 2, 92, 120
1, 20129, Note_on_c, 3, 66, 120
1, 20129, Note_on_c, 4, 63, 120
1, 20129, Note_on_c, 4, 63, 120
1, 20129, Note_on_c, 4, 71, 120
1, 20129, Note_on_c, 4, 71, 120
1, 20129, Note_on_c, 5, 78, 120
1, 20129, Note_on_c, 5, 75, 120
1, 20129, Note_on_c, 5, 59, 120
1, 20129, Note_on_c, 5, 51, 120
1, 20129, Note_on_c, 5, 47, 120
1, 20129, Note_on_c, 5, 42, 100
1, 20129, Control_c, 6, 73, 80
1, 20129, Note_on_c, 6, 42, 120
1, 20129, Note_on_c, 7, 42, 100
1, 20129, Control_c, 8, 0, 0
1, 20129, Control_c, 8, 32, 0
1, 20129, Program_c, 8, 48
1, 20129, Note_on_c, 8, 87, 120
1, 20129, Note_on_c, 8, 90, 120
1, 20129, Control_c, 8, 0, 0
1, 20129, Control_c, 8, 32, 0
1, 20129, Program_c, 8, 49
1, 20129, Note_on_c, 8, 90, 120
1, 20129, Note_on_c, 8, 87, 120
1, 20129, Note_on_c, 8, 83, 120
1, 20129, Note_on_c, 8, 83, 120
1, 20129, Note_on_c, 8, 83, 120
1, 20129, Note_on_c, 8, 73, 120
1, 20129, Note_on_c, 8, 73, 120
1, 20129, Note_on_c, 8, 30, 120
1, 20151, Note_on_c, 6, 42, 0
1, 20151, Control_c, 8, 0, 0
1, 20151, Control_c, 8, 32, 0
1, 20151, Program_c, 8, 48
1, 20151, Note_on_c, 8, 87, 0
1, 20151, Note_on_c, 8, 90, 0
1, 20151, Control_c, 8, 0, 0
1, 20151, Control_c, 8, 32, 0
1, 20151, Program_c, 8, 49
1, 20151, Note_on_c, 8, 83, 0
1, 20151, Note_on_c, 8, 83, 0
1, 20154, Note_on_c, 7, 42, 0
1, 20154, Note_on_c, 6, 42, 120
1, 20154, Note_on_c, 7, 44, 100
1, 20154, Control_c, 8, 0, 0
1, 20154, Control_c, 8, 32, 0
1, 20154, Program_c, 8, 48
1, 20154, Note_on_c, 8, 87, 120
1, 20154, Note_on_c, 8, 90, 120
1, 20154, Control_c, 8, 0, 0
1, 20154, Control_c, 8, 32, 0
1, 20154, Program_c, 8, 49
1, 20154, Note_on_c, 8, 83, 120
1, 20154, Note_on_c, 8, 83, 120
1, 20176, Note_on_c, 6, 42, 0
1, 20176, Control_c, 8, 0, 0
1, 20176, Control_c, 8, 32, 0
1, 20176, Program_c, 8, 48
1, 20176, Note_on_c, 8, 87, 0
1, 20176, Note_on_c, 8, 90, 0
1, 20176, Control_c, 8, 0, 0
1, 20176, Control_c, 8, 32, 0
1, 20176, Program_c, 8, 49
1, 20176, Note_on_c, 8, 83, 0
1, 20176, Note_on_c, 8, 83, 0
1, 20179, Note_on_c, 7, 44, 0
1, 20179, Note_on_c, 6, 42, 120
1, 20179, Note_on_c, 7, 46, 100
1, 20179, Control_c, 8, 0, 0
1, 20179, Control_c, 8, 32, 0
1, 20179, Program_c, 8, 48
1, 20179, Note_on_c, 8, 87, 120
1, 20179, Note_on_c, 8, 90, 120
1, 20179, Control_c, 8, 0, 0
1, 20179, Control_c, 8, 32, 0
1, 20179, Program_c, 8, 49
1, 20179, Note_on_c, 8, 83, 120
1, 20179, Note_on_c, 8, 83, 120
1, 20201, Note_on_c, 6, 42, 0
1, 20201, Control_c, 8, 0, 0
1, 20201, Control_c, 8, 32, 0
1, 20201, Program_c, 8, 48
1, 20201, Note_on_c, 8, 87, 0
1, 20201, Note_on_c, 8, 90, 0
1, 20201, Control_c, 8, 0, 0
1, 20201, Control_c, 8, 32, 0
1, 20201, Program_c, 8, 49
1, 20201, Note_on_c, 8, 83, 0
1, 20201, Note_on_c, 8, 83, 0
1, 20204, Note_on_c, 7, 46, 0
1, 20204, Note_on_c, 6, 42, 120
1, 20204, Note_on_c, 7, 47, 100
1, 20204, Control_c, 8, 0, 0
1, 20204, Control_c, 8, 32, 0
1, 20204, Program_c, 8, 48
1, 20204, Note_on_c, 8, 87, 120
1, 20204, Note_on_c, 8, 90, 120
1, 20204, Control_c, 8, 0, 0
1, 20204, Control_c, 8, 32, 0
1, 20204, Program_c, 8, 49
1, 20204, Note_on_c, 8, 83, 120
1, 20204, Note_on_c, 8, 83, 120
1, 20226, Note_on_c, 6, 42, 0
1, 20226, Control_c, 8, 0, 0
1, 20226, Control_c, 8, 32, 0
1, 20226, Program_c, 8, 48
1, 20226, Note_on_c, 8, 87, 0
1, 20226, Note_on_c, 8, 90, 0
1, 20226, Control_c, 8, 0, 0
1, 20226, Control_c, 8, 32, 0
1, 20226, Program_c, 8, 49
1, 20226, Note_on_c, 8, 83, 0
1, 20226, Note_on_c, 8, 83, 0
1, 20229, Note_on_c, 7, 47, 0
1, 20229, Note_on_c, 6, 42, 120
1, 20229, Note_on_c, 7, 49, 100
1, 20229, Control_c, 8, 0, 0
1, 20229, Control_c, 8, 32, 0
1, 20229, Program_c, 8, 48
1, 20229, Note_on_c, 8, 87, 120
1, 20229, Note_on_c, 8, 90, 120
1, 20229, Control_c, 8, 0, 0
1, 20229, Control_c, 8, 32, 0
1, 20229, Program_c, 8, 49
1, 20229, Note_on_c, 8, 83, 120
1, 20229, Note_on_c, 8, 83, 120
1, 20251, Note_on_c, 6, 42, 0
1, 20251, Control_c, 8, 0, 0
1, 20251, Control_c, 8, 32, 0
1, 20251, Program_c, 8, 48
1, 20251, Note_on_c, 8, 87, 0
1, 20251, Note_on_c, 8, 90, 0
1, 20251, Control_c, 8, 0, 0
1, 20251, Control_c, 8, 32, 0
1, 20251, Program_c, 8, 49
1, 20251, Note_on_c, 8, 83, 0
1, 20251, Note_on_c, 8, 83, 0
1, 20254, Note_on_c, 7, 49, 0
1, 20254, Note_on_c, 6, 42, 120
1, 20254, Note_on_c, 7, 51, 100
1, 20254, Control_c, 8, 0, 0
1, 20254, Control_c, 8, 32, 0
1, 20254, Program_c, 8, 48
1, 20254, Note_on_c, 8, 87, 120
1, 20254, Note_on_c, 8, 90, 120
1, 20254, Control_c, 8, 0, 0
1, 20254, Control_c, 8, 32, 0
1, 20254, Program_c, 8, 49
1, 20254, Note_on_c, 8, 83, 120
1, 20254, Note_on_c, 8, 83, 120
1, 20276, Note_on_c, 6, 42, 0
1, 20276, Control_c, 8, 0, 0
1, 20276, Control_c, 8, 32, 0
1, 20276, Program_c, 8, 48
1, 20276, Note_on_c, 8, 87, 0
1, 20276, Note_on_c, 8, 90, 0
1, 20276, Control_c, 8, 0, 0
1, 20276, Control_c, 8, 32, 0
1, 20276, Program_c, 8, 49
1, 20276, Note_on_c, 8, 83, 0
1, 20276, Note_on_c, 8, 83, 0
1, 20279, Note_on_c, 7, 51, 0
1, 20279, Note_on_c, 6, 42, 120
1, 20279, Note_on_c, 7, 52, 100
1, 20279, Control_c, 8, 0, 0
1, 20279, Control_c, 8, 32, 0
1, 20279, Program_c, 8, 48
1, 20279, Note_on_c, 8, 87, 120
1, 20279, Note_on_c, 8, 90, 120
1, 20279, Control_c, 8, 0, 0
1, 20279, Control_c, 8, 32, 0
1, 20279, Program_c, 8, 49
1, 20279, Note_on_c, 8, 83, 120
1, 20279, Note_on_c, 8, 83, 120
1, 20301, Note_on_c, 6, 42, 0
1, 20301, Control_c, 8, 0, 0
1, 20301, Control_c, 8, 32, 0
1, 20301, Program_c, 8, 48
1, 20301, Note_on_c, 8, 87, 0
1, 20301, Note_on_c, 8, 90, 0
1, 20301, Control_c, 8, 0, 0
1, 20301, Control_c, 8, 32, 0
1, 20301, Program_c, 8, 49
1, 20301, Note_on_c, 8, 83, 0
1, 20301, Note_on_c, 8, 83, 0
1, 20304, Note_on_c, 7, 52, 0
1, 20304, Note_on_c, 6, 42, 120
1, 20304, Note_on_c, 7, 54, 100
1, 20304, Control_c, 8, 0, 0
1, 20304, Control_c, 8, 32, 0
1, 20304, Program_c, 8, 48
1, 20304, Note_on_c, 8, 87, 120
1, 20304, Note_on_c, 8, 90, 120
1, 20304, Control_c, 8, 0, 0
1, 20304, Control_c, 8, 32, 0
1, 20304, Program_c, 8, 49
1, 20304, Note_on_c, 8, 83, 120
1, 20304, Note_on_c, 8, 83, 120
1, 20326, Note_on_c, 6, 42, 0
1, 20326, Control_c, 8, 0, 0
1, 20326, Control_c, 8, 32, 0
1, 20326, Program_c, 8, 48
1, 20326, Note_on_c, 8, 87, 0
1, 20326, Note_on_c, 8, 90, 0
1, 20326, Control_c, 8, 0, 0
1, 20326, Control_c, 8, 32, 0
1, 20326, Program_c, 8, 49
1, 20326, Note_on_c, 8, 83, 0
1, 20326, Note_on_c, 8, 83, 0
1, 20329, Note_on_c, 7, 54, 0
1, 20329, Note_on_c, 6, 42, 120
1, 20329, Note_on_c, 7, 56, 100
1, 20329, Control_c, 8, 0, 0
1, 20329, Control_c, 8, 32, 0
1, 20329, Program_c, 8, 48
1, 20329, Note_on_c, 8, 87, 120
1, 20329, Note_on_c, 8, 90, 120
1, 20329, Control_c, 8, 0, 0
1, 20329, Control_c, 8, 32, 0
1, 20329, Program_c, 8, 49
1, 20329, Note_on_c, 8, 83, 120
1, 20329, Note_on_c, 8, 83, 120
1, 20351, Note_on_c, 6, 42, 0
1, 20351, Control_c, 8, 0, 0
1, 20351, Control_c, 8, 32, 0
1, 20351, Program_c, 8, 48
1, 20351, Note_on_c, 8, 87, 0
1, 20351, Note_on_c, 8, 90, 0
1, 20351, Control_c, 8, 0, 0
1, 20351, Control_c, 8, 32, 0
1, 20351, Program_c, 8, 49
1, 20351, Note_on_c, 8, 83, 0
1, 20351, Note_on_c, 8, 83, 0
1, 20354, Note_on_c, 7, 56, 0
1, 20354, Note_on_c, 6, 42, 120
1, 20354, Note_on_c, 7, 58, 100
1, 20354, Control_c, 8, 0, 0
1, 20354, Control_c, 8, 32, 0
1, 20354, Program_c, 8, 48
1, 20354, Note_on_c, 8, 87, 120
1, 20354, Note_on_c, 8, 90, 120
1, 20354, Control_c, 8, 0, 0
1, 20354, Control_c, 8, 32, 0
1, 20354, Program_c, 8, 49
1, 20354, Note_on_c, 8, 83, 120
1, 20354, Note_on_c, 8, 83, 120
1, 20373, Note_on_c, 4, 63, 0
1, 20373, Note_on_c, 4, 63, 0
1, 20373, Note_on_c, 4, 71, 0
1, 20373, Note_on_c, 4, 71, 0
1, 20373, Note_on_c, 5, 78, 0
1, 20373, Note_on_c, 5, 75, 0
1, 20373, Note_on_c, 5, 59, 0
1, 20373, Note_on_c, 5, 51, 0
1, 20373, Note_on_c, 5, 47, 0
1, 20373, Note_on_c, 8, 90, 0
1, 20373, Note_on_c, 8, 87, 0
1, 20373, Note_on_c, 8, 83, 0
1, 20373, Note_on_c, 8, 73, 0
1, 20373, Note_on_c, 8, 73, 0
1, 20376, Note_on_c, 6, 42, 0
1, 20376, Control_c, 8, 0, 0
1, 20376, Control_c, 8, 32, 0
1, 20376, Program_c, 8, 48
1, 20376, Note_on_c, 8, 87, 0
1, 20376, Note_on_c, 8, 90, 0
1, 20376, Control_c, 8, 0, 0
1, 20376, Control_c, 8, 32, 0
1, 20376, Program_c, 8, 49
1, 20376, Note_on_c, 8, 83, 0
1, 20376, Note_on_c, 8, 83, 0
1, 20379, Note_on_c, 7, 58, 0
1, 20379, Note_on_c, 6, 42, 120
1, 20379, Note_on_c, 7, 59, 100
1, 20379, Control_c, 8, 0, 0
1, 20379, Control_c, 8, 32, 0
1, 20379, Program_c, 8, 48
1, 20379, Note_on_c, 8, 87, 120
1, 20379, Note_on_c, 8, 90, 120
1, 20379, Control_c, 8, 0, 0
1, 20379, Control_c, 8, 32, 0
1, 20379, Program_c, 8, 49
1, 20379, Note_on_c, 8, 83, 120
1, 20379, Note_on_c, 8, 83, 120
1, 20401, Note_on_c, 6, 42, 0
1, 20401, Control_c, 8, 0, 0
1, 20401, Control_c, 8, 32, 0
1, 20401, Program_c, 8, 48
1, 20401, Note_on_c, 8, 87, 0
1, 20401, Note_on_c, 8, 90, 0
1, 20401, Control_c, 8, 0, 0
1, 20401, Control_c, 8, 32, 0
1, 20401, Program_c, 8, 49
1, 20401, Note_on_c, 8, 83, 0
1, 20401, Note_on_c, 8, 83, 0
1, 20404, Note_on_c, 7, 59, 0
1, 20404, Note_on_c, 6, 42, 120
1, 20404, Note_on_c, 7, 61, 100
1, 20404, Control_c, 8, 0, 0
1, 20404, Control_c, 8, 32, 0
1, 20404, Program_c, 8, 48
1, 20404, Note_on_c, 8, 87, 120
1, 20404, Note_on_c, 8, 90, 120
1, 20404, Control_c, 8, 0, 0
1, 20404, Control_c, 8, 32, 0
1, 20404, Program_c, 8, 49
1, 20404, Note_on_c, 8, 83, 120
1, 20404, Note_on_c, 8, 83, 120
1, 20426, Note_on_c, 6, 42, 0
1, 20426, Control_c, 8, 0, 0
1, 20426, Control_c, 8, 32, 0
1, 20426, Program_c, 8, 48
1, 20426, Note_on_c, 8, 87, 0
1, 20426, Note_on_c, 8, 90, 0
1, 20426, Control_c, 8, 0, 0
1, 20426, Control_c, 8, 32, 0
1, 20426, Program_c, 8, 49
1, 20426, Note_on_c, 8, 83, 0
1, 20426, Note_on_c, 8, 83, 0
1, 20429, Note_on_c, 0, 90, 0
1, 20429, Note_on_c, 0, 102, 0
1, 20429, Note_on_c, 1, 87, 0
1, 20429, Note_on_c, 1, 78, 0
1, 20429, Note_on_c, 2, 83, 0
1, 20429, Note_on_c, 2, 92, 0
1, 20429, Note_on_c, 3, 66, 0
1, 20429, Note_on_c, 7, 61, 0
1, 20429, Note_on_c, 0, 90, 120
1, 20429, Note_on_c, 0, 102, 120
1, 20429, Note_on_c, 1, 87, 120
1, 20429, Note_on_c, 1, 78, 120
1, 20429, Note_on_c, 2, 83, 120
1, 20429, Note_on_c, 2, 92, 120
1, 20429, Note_on_c, 3, 66, 120
1, 20429, Note_on_c, 4, 63, 120
1, 20429, Note_on_c, 4, 63, 120
1, 20429, Note_on_c, 4, 71, 120
1, 20429, Note_on_c, 4, 71, 120
1, 20429, Note_on_c, 5, 78, 120
1, 20429, Note_on_c, 5, 75, 120
1, 20429, Note_on_c, 5, 52, 120
1, 20429, Note_on_c, 5, 47, 120
1, 20429, Note_on_c, 5, 44, 120
1, 20429, Note_on_c, 6, 42, 120
1, 20429, Note_on_c, 7, 44, 100
1, 20429, Control_c, 8, 0, 0
1, 20429, Control_c, 8, 32, 0
1, 20429, Program_c, 8, 48
1, 20429, Note_on_c, 8, 87, 120
1, 20429, Note_on_c, 8, 90, 120
1, 20429, Control_c, 8, 0, 0
1, 20429, Control_c, 8, 32, 0
1, 20429, Program_c, 8, 49
1, 20429, Note_on_c, 8, 90, 120
1, 20429, Note_on_c, 8, 87, 120
1, 20429, Note_on_c, 8, 83, 120
1, 20429, Note_on_c, 8, 83, 120
1, 20429, Note_on_c, 8, 83, 120
1, 20429, Note_on_c, 8, 73, 120
1, 20429, Note_on_c, 8, 73, 120
1, 20451, Note_on_c, 6, 42, 0
1, 20451, Control_c, 8, 0, 0
1, 20451, Control_c, 8, 32, 0
1, 20451, Program_c, 8, 48
1, 20451, Note_on_c, 8, 87, 0
1, 20451, Note_on_c, 8, 90, 0
1, 20451, Control_c, 8, 0, 0
1, 20451, Control_c, 8, 32, 0
1, 20451, Program_c, 8, 49
1, 20451, Note_on_c, 8, 83, 0
1, 20451, Note_on_c, 8, 83, 0
1, 20454, Note_on_c, 7, 44, 0
1, 20454, Note_on_c, 6, 42, 120
1, 20454, Note_on_c, 7, 46, 100
1, 20454, Control_c, 8, 0, 0
1, 20454, Control_c, 8, 32, 0
1, 20454, Program_c, 8, 48
1, 20454, Note_on_c, 8, 87, 120
1, 20454, Note_on_c, 8, 90, 120
1, 20454, Control_c, 8, 0, 0
1, 20454, Control_c, 8, 32, 0
1, 20454, Program_c, 8, 49
1, 20454, Note_on_c, 8, 83, 120
1, 20454, Note_on_c, 8, 83, 120
1, 20476, Note_on_c, 6, 42, 0
1, 20476, Control_c, 8, 0, 0
1, 20476, Control_c, 8, 32, 0
1, 20476, Program_c, 8, 48
1, 20476, Note_on_c, 8, 87, 0
1, 20476, Note_on_c, 8, 90, 0
1, 20476, Control_c, 8, 0, 0
1, 20476, Control_c, 8, 32, 0
1, 20476, Program_c, 8, 49
1, 20476, Note_on_c, 8, 83, 0
1, 20476, Note_on_c, 8, 83, 0
1, 20479, Note_on_c, 7, 46, 0
1, 20479, Note_on_c, 6, 42, 120
1, 20479, Note_on_c, 7, 47, 100
1, 20479, Control_c, 8, 0, 0
1, 20479, Control_c, 8, 32, 0
1, 20479, Program_c, 8, 48
1, 20479, Note_on_c, 8, 87, 120
1, 20479, Note_on_c, 8, 90, 120
1, 20479, Control_c, 8, 0, 0
1, 20479, Control_c, 8, 32, 0
1, 20479, Program_c, 8, 49
1, 20479, Note_on_c, 8, 83, 120
1, 20479, Note_on_c, 8, 83, 120
1, 20501, Note_on_c, 6, 42, 0
1, 20501, Control_c, 8, 0, 0
1, 20501, Control_c, 8, 32, 0
1, 20501, Program_c, 8, 48
1, 20501, Note_on_c, 8, 87, 0
1, 20501, Note_on_c, 8, 90, 0
1, 20501, Control_c, 8, 0, 0
1, 20501, Control_c, 8, 32, 0
1, 20501, Program_c, 8, 49
1, 20501, Note_on_c, 8, 83, 0
1, 20501, Note_on_c, 8, 83, 0
1, 20504, Note_on_c, 7, 47, 0
1, 20504, Note_on_c, 6, 42, 120
1, 20504, Note_on_c, 7, 49, 100
1, 20504, Control_c, 8, 0, 0
1, 20504, Control_c, 8, 32, 0
1, 20504, Program_c, 8, 48
1, 20504, Note_on_c, 8, 87, 120
1, 20504, Note_on_c, 8, 90, 120
1, 20504, Control_c, 8, 0, 0
1, 20504, Control_c, 8, 32, 0
1, 20504, Program_c, 8, 49
1, 20504, Note_on_c, 8, 83, 120
1, 20504, Note_on_c, 8, 83, 120
1, 20526, Note_on_c, 6, 42, 0
1, 20526, Control_c, 8, 0, 0
1, 20526, Control_c, 8, 32, 0
1, 20526, Program_c, 8, 48
1, 20526, Note_on_c, 8, 87, 0
1, 20526, Note_on_c, 8, 90, 0
1, 20526, Control_c, 8, 0, 0
1, 20526, Control_c, 8, 32, 0
1, 20526, Program_c, 8, 49
1, 20526, Note_on_c, 8, 83, 0
1, 20526, Note_on_c, 8, 83, 0
1, 20529, Note_on_c, 7, 49, 0
1, 20529, Note_on_c, 6, 42, 120
1, 20529, Note_on_c, 7, 51, 100
1, 20529, Control_c, 8, 0, 0
1, 20529, Control_c, 8, 32, 0
1, 20529, Program_c, 8, 48
1, 20529, Note_on_c, 8, 87, 120
1, 20529, Note_on_c, 8, 90, 120
1, 20529, Control_c, 8, 0, 0
1, 20529, Control_c, 8, 32, 0
1, 20529, Program_c, 8, 49
1, 20529, Note_on_c, 8, 83, 120
1, 20529, Note_on_c, 8, 83, 120
1, 20551, Note_on_c, 6, 42, 0
1, 20551, Control_c, 8, 0, 0
1, 20551, Control_c, 8, 32, 0
1, 20551, Program_c, 8, 48
1, 20551, Note_on_c, 8, 87, 0
1, 20551, Note_on_c, 8, 90, 0
1, 20551, Control_c, 8, 0, 0
1, 20551, Control_c, 8, 32, 0
1, 20551, Program_c, 8, 49
1, 20551, Note_on_c, 8, 83, 0
1, 20551, Note_on_c, 8, 83, 0
1, 20554, Note_on_c, 7, 51, 0
1, 20554, Note_on_c, 6, 42, 120
1, 20554, Note_on_c, 7, 52, 100
1, 20554, Control_c, 8, 0, 0
1, 20554, Control_c, 8, 32, 0
1, 20554, Program_c, 8, 48
1, 20554, Note_on_c, 8, 87, 120
1, 20554, Note_on_c, 8, 90, 120
1, 20554, Control_c, 8, 0, 0
1, 20554, Control_c, 8, 32, 0
1, 20554, Program_c, 8, 49
1, 20554, Note_on_c, 8, 83, 120
1, 20554, Note_on_c, 8, 83, 120
1, 20576, Note_on_c, 6, 42, 0
1, 20576, Control_c, 8, 0, 0
1, 20576, Control_c, 8, 32, 0
1, 20576, Program_c, 8, 48
1, 20576, Note_on_c, 8, 87, 0
1, 20576, Note_on_c, 8, 90, 0
1, 20576, Control_c, 8, 0, 0
1, 20576, Control_c, 8, 32, 0
1, 20576, Program_c, 8, 49
1, 20576, Note_on_c, 8, 83, 0
1, 20576, Note_on_c, 8, 83, 0
1, 20579, Note_on_c, 7, 52, 0
1, 20579, Note_on_c, 6, 42, 120
1, 20579, Note_on_c, 7, 54, 100
1, 20579, Control_c, 8, 0, 0
1, 20579, Control_c, 8, 32, 0
1, 20579, Program_c, 8, 48
1, 20579, Note_on_c, 8, 87, 120
1, 20579, Note_on_c, 8, 90, 120
1, 20579, Control_c, 8, 0, 0
1, 20579, Control_c, 8, 32, 0
1, 20579, Program_c, 8, 49
1, 20579, Note_on_c, 8, 83, 120
1, 20579, Note_on_c, 8, 83, 120
1, 20601, Note_on_c, 6, 42, 0
1, 20601, Control_c, 8, 0, 0
1, 20601, Control_c, 8, 32, 0
1, 20601, Program_c, 8, 48
1, 20601, Note_on_c, 8, 87, 0
1, 20601, Note_on_c, 8, 90, 0
1, 20601, Control_c, 8, 0, 0
1, 20601, Control_c, 8, 32, 0
1, 20601, Program_c, 8, 49
1, 20601, Note_on_c, 8, 83, 0
1, 20601, Note_on_c, 8, 83, 0
1, 20604, Note_on_c, 7, 54, 0
1, 20604, Note_on_c, 6, 42, 120
1, 20604, Note_on_c, 7, 56, 100
1, 20604, Control_c, 8, 0, 0
1, 20604, Control_c, 8, 32, 0
1, 20604, Program_c, 8, 48
1, 20604, Note_on_c, 8, 87, 120
1, 20604, Note_on_c, 8, 90, 120
1, 20604, Control_c, 8, 0, 0
1, 20604, Control_c, 8, 32, 0
1, 20604, Program_c, 8, 49
1, 20604, Note_on_c, 8, 83, 120
1, 20604, Note_on_c, 8, 83, 120
1, 20626, Note_on_c, 6, 42, 0
1, 20626, Control_c, 8, 0, 0
1, 20626, Control_c, 8, 32, 0
1, 20626, Program_c, 8, 48
1, 20626, Note_on_c, 8, 87, 0
1, 20626, Note_on_c, 8, 90, 0
1, 20626, Control_c, 8, 0, 0
1, 20626, Control_c, 8, 32, 0
1, 20626, Program_c, 8, 49
1, 20626, Note_on_c, 8, 83, 0
1, 20626, Note_on_c, 8, 83, 0
1, 20629, Note_on_c, 7, 56, 0
1, 20629, Note_on_c, 6, 42, 120
1, 20629, Note_on_c, 7, 58, 100
1, 20629, Control_c, 8, 0, 0
1, 20629, Control_c, 8, 32, 0
1, 20629, Program_c, 8, 48
1, 20629, Note_on_c, 8, 87, 120
1, 20629, Note_on_c, 8, 90, 120
1, 20629, Control_c, 8, 0, 0
1, 20629, Control_c, 8, 32, 0
1, 20629, Program_c, 8, 49
1, 20629, Note_on_c, 8, 83, 120
1, 20629, Note_on_c, 8, 83, 120
1, 20651, Note_on_c, 6, 42, 0
1, 20651, Control_c, 8, 0, 0
1, 20651, Control_c, 8, 32, 0
1, 20651, Program_c, 8, 48
1, 20651, Note_on_c, 8, 87, 0
1, 20651, Note_on_c, 8, 90, 0
1, 20651, Control_c, 8, 0, 0
1, 20651, Control_c, 8, 32, 0
1, 20651, Program_c, 8, 49
1, 20651, Note_on_c, 8, 83, 0
1, 20651, Note_on_c, 8, 83, 0
1, 20654, Note_on_c, 7, 58, 0
1, 20654, Note_on_c, 6, 42, 120
1, 20654, Note_on_c, 7, 59, 100
1, 20654, Control_c, 8, 0, 0
1, 20654, Control_c, 8, 32, 0
1, 20654, Program_c, 8, 48
1, 20654, Note_on_c, 8, 87, 120
1, 20654, Note_on_c, 8, 90, 120
1, 20654, Control_c, 8, 0, 0
1, 20654, Control_c, 8, 32, 0
1, 20654, Program_c, 8, 49
1, 20654, Note_on_c, 8, 83, 120
1, 20654, Note_on_c, 8, 83, 120
1, 20673, Note_on_c, 4, 63, 0
1, 20673, Note_on_c, 4, 63, 0
1, 20673, Note_on_c, 4, 71, 0
1, 20673, Note_on_c, 4, 71, 0
1, 20673, Note_on_c, 5, 78, 0
1, 20673, Note_on_c, 5, 75, 0
1, 20673, Note_on_c, 5, 52, 0
1, 20673, Note_on_c, 5, 47, 0
1, 20673, Note_on_c, 5, 44, 0
1, 20673, Note_on_c, 8, 90, 0
1, 20673, Note_on_c, 8, 87, 0
1, 20673, Note_on_c, 8, 83, 0
1, 20673, Note_on_c, 8, 73, 0
1, 20673, Note_on_c, 8, 73, 0
1, 20676, Note_on_c, 6, 42, 0
1, 20676, Control_c, 8, 0, 0
1, 20676, Control_c, 8, 32, 0
1, 20676, Program_c, 8, 48
1, 20676, Note_on_c, 8, 87, 0
1, 20676, Note_on_c, 8, 90, 0
1, 20676, Control_c, 8, 0, 0
1, 20676, Control_c, 8, 32, 0
1, 20676, Program_c, 8, 49
1, 20676, Note_on_c, 8, 83, 0
1, 20676, Note_on_c, 8, 83, 0
1, 20679, Note_on_c, 7, 59, 0
1, 20679, Note_on_c, 6, 42, 120
1, 20679, Note_on_c, 7, 61, 100
1, 20679, Control_c, 8, 0, 0
1, 20679, Control_c, 8, 32, 0
1, 20679, Program_c, 8, 48
1, 20679, Note_on_c, 8, 87, 120
1, 20679, Note_on_c, 8, 90, 120
1, 20679, Control_c, 8, 0, 0
1, 20679, Control_c, 8, 32, 0
1, 20679, Program_c, 8, 49
1, 20679, Note_on_c, 8, 83, 120
1, 20679, Note_on_c, 8, 83, 120
1, 20701, Note_on_c, 6, 42, 0
1, 20701, Control_c, 8, 0, 0
1, 20701, Control_c, 8, 32, 0
1, 20701, Program_c, 8, 48
1, 20701, Note_on_c, 8, 87, 0
1, 20701, Note_on_c, 8, 90, 0
1, 20701, Control_c, 8, 0, 0
1, 20701, Control_c, 8, 32, 0
1, 20701, Program_c, 8, 49
1, 20701, Note_on_c, 8, 83, 0
1, 20701, Note_on_c, 8, 83, 0
1, 20704, Note_on_c, 7, 61, 0
1, 20704, Note_on_c, 6, 42, 120
1, 20704, Note_on_c, 7, 63, 100
1, 20704, Control_c, 8, 0, 0
1, 20704, Control_c, 8, 32, 0
1, 20704, Program_c, 8, 48
1, 20704, Note_on_c, 8, 87, 120
1, 20704, Note_on_c, 8, 90, 120
1, 20704, Control_c, 8, 0, 0
1, 20704, Control_c, 8, 32, 0
1, 20704, Program_c, 8, 49
1, 20704, Note_on_c, 8, 83, 120
1, 20704, Note_on_c, 8, 83, 120
1, 20726, Note_on_c, 6, 42, 0
1, 20726, Control_c, 8, 0, 0
1, 20726, Control_c, 8, 32, 0
1, 20726, Program_c, 8, 48
1, 20726, Note_on_c, 8, 87, 0
1, 20726, Note_on_c, 8, 90, 0
1, 20726, Control_c, 8, 0, 0
1, 20726, Control_c, 8, 32, 0
1, 20726, Program_c, 8, 49
1, 20726, Note_on_c, 8, 83, 0
1, 20726, Note_on_c, 8, 83, 0
1, 20729, Note_on_c, 0, 90, 0
1, 20729, Note_on_c, 0, 102, 0
1, 20729, Note_on_c, 1, 87, 0
1, 20729, Note_on_c, 1, 78, 0
1, 20729, Note_on_c, 2, 83, 0
1, 20729, Note_on_c, 2, 92, 0
1, 20729, Note_on_c, 3, 66, 0
1, 20729, Note_on_c, 7, 63, 0
1, 20729, Note_on_c, 0, 88, 120
1, 20729, Note_on_c, 0, 100, 120
1, 20729, Note_on_c, 1, 85, 120
1, 20729, Note_on_c, 1, 76, 120
1, 20729, Note_on_c, 2, 80, 120
1, 20729, Note_on_c, 2, 88, 120
1, 20729, Note_on_c, 3, 64, 120
1, 20729, Note_on_c, 4, 61, 120
1, 20729, Note_on_c, 4, 61, 120
1, 20729, Note_on_c, 4, 73, 120
1, 20729, Note_on_c, 4, 73, 120
1, 20729, Note_on_c, 5, 76, 120
1, 20729, Note_on_c, 5, 68, 120
1, 20729, Note_on_c, 5, 54, 120
1, 20729, Note_on_c, 5, 49, 120
1, 20729, Note_on_c, 5, 46, 120
1, 20729, Note_on_c, 6, 42, 120
1, 20729, Note_on_c, 7, 46, 100
1, 20729, Control_c, 8, 0, 0
1, 20729, Control_c, 8, 32, 0
1, 20729, Program_c, 8, 48
1, 20729, Note_on_c, 8, 85, 120
1, 20729, Note_on_c, 8, 88, 120
1, 20729, Control_c, 8, 0, 0
1, 20729, Control_c, 8, 32, 0
1, 20729, Program_c, 8, 49
1, 20729, Note_on_c, 8, 88, 120
1, 20729, Note_on_c, 8, 85, 120
1, 20729, Note_on_c, 8, 80, 120
1, 20729, Note_on_c, 8, 80, 120
1, 20729, Note_on_c, 8, 80, 120
1, 20729, Note_on_c, 8, 71, 120
1, 20729, Note_on_c, 8, 71, 120
1, 20751, Note_on_c, 6, 42, 0
1, 20751, Control_c, 8, 0, 0
1, 20751, Control_c, 8, 32, 0
1, 20751, Program_c, 8, 48
1, 20751, Note_on_c, 8, 85, 0
1, 20751, Note_on_c, 8, 88, 0
1, 20751, Control_c, 8, 0, 0
1, 20751, Control_c, 8, 32, 0
1, 20751, Program_c, 8, 49
1, 20751, Note_on_c, 8, 80, 0
1, 20751, Note_on_c, 8, 80, 0
1, 20754, Note_on_c, 7, 46, 0
1, 20754, Note_on_c, 6, 42, 120
1, 20754, Note_on_c, 7, 47, 100
1, 20754, Control_c, 8, 0, 0
1, 20754, Control_c, 8, 32, 0
1, 20754, Program_c, 8, 48
1, 20754, Note_on_c, 8, 85, 120
1, 20754, Note_on_c, 8, 88, 120
1, 20754, Control_c, 8, 0, 0
1, 20754, Control_c, 8, 32, 0
1, 20754, Program_c, 8, 49
1, 20754, Note_on_c, 8, 80, 120
1, 20754, Note_on_c, 8, 80, 120
1, 20775, Note_on_c, 6, 42, 0
1, 20775, Control_c, 8, 0, 0
1, 20775, Control_c, 8, 32, 0
1, 20775, Program_c, 8, 48
1, 20775, Note_on_c, 8, 85, 0
1, 20775, Note_on_c, 8, 88, 0
1, 20775, Control_c, 8, 0, 0
1, 20775, Control_c, 8, 32, 0
1, 20775, Program_c, 8, 49
1, 20775, Note_on_c, 8, 80, 0
1, 20775, Note_on_c, 8, 80, 0
1, 20778, Note_on_c, 7, 47, 0
1, 20778, Note_on_c, 6, 42, 120
1, 20778, Note_on_c, 7, 49, 100
1, 20778, Control_c, 8, 0, 0
1, 20778, Control_c, 8, 32, 0
1, 20778, Program_c, 8, 48
1, 20778, Note_on_c, 8, 85, 120
1, 20778, Note_on_c, 8, 88, 120
1, 20778, Control_c, 8, 0, 0
1, 20778, Control_c, 8, 32, 0
1, 20778, Program_c, 8, 49
1, 20778, Note_on_c, 8, 80, 120
1, 20778, Note_on_c, 8, 80, 120
1, 20800, Note_on_c, 6, 42, 0
1, 20800, Control_c, 8, 0, 0
1, 20800, Control_c, 8, 32, 0
1, 20800, Program_c, 8, 48
1, 20800, Note_on_c, 8, 85, 0
1, 20800, Note_on_c, 8, 88, 0
1, 20800, Control_c, 8, 0, 0
1, 20800, Control_c, 8, 32, 0
1, 20800, Program_c, 8, 49
1, 20800, Note_on_c, 8, 80, 0
1, 20800, Note_on_c, 8, 80, 0
1, 20803, Note_on_c, 7, 49, 0
1, 20803, Note_on_c, 6, 42, 120
1, 20803, Note_on_c, 7, 51, 100
1, 20803, Control_c, 8, 0, 0
1, 20803, Control_c, 8, 32, 0
1, 20803, Program_c, 8, 48
1, 20803, Note_on_c, 8, 85, 120
1, 20803, Note_on_c, 8, 88, 120
1, 20803, Control_c, 8, 0, 0
1, 20803, Control_c, 8, 32, 0
1, 20803, Program_c, 8, 49
1, 20803, Note_on_c, 8, 80, 120
1, 20803, Note_on_c, 8, 80, 120
1, 20824, Note_on_c, 6, 42, 0
1, 20824, Control_c, 8, 0, 0
1, 20824, Control_c, 8, 32, 0
1, 20824, Program_c, 8, 48
1, 20824, Note_on_c, 8, 85, 0
1, 20824, Note_on_c, 8, 88, 0
1, 20824, Control_c, 8, 0, 0
1, 20824, Control_c, 8, 32, 0
1, 20824, Program_c, 8, 49
1, 20824, Note_on_c, 8, 80, 0
1, 20824, Note_on_c, 8, 80, 0
1, 20827, Note_on_c, 7, 51, 0
1, 20827, Note_on_c, 6, 42, 120
1, 20827, Note_on_c, 7, 52, 100
1, 20827, Control_c, 8, 0, 0
1, 20827, Control_c, 8, 32, 0
1, 20827, Program_c, 8, 48
1, 20827, Note_on_c, 8, 85, 120
1, 20827, Note_on_c, 8, 88, 120
1, 20827, Control_c, 8, 0, 0
1, 20827, Control_c, 8, 32, 0
1, 20827, Program_c, 8, 49
1, 20827, Note_on_c, 8, 80, 120
1, 20827, Note_on_c, 8, 80, 120
1, 20848, Note_on_c, 6, 42, 0
1, 20848, Control_c, 8, 0, 0
1, 20848, Control_c, 8, 32, 0
1, 20848, Program_c, 8, 48
1, 20848, Note_on_c, 8, 85, 0
1, 20848, Note_on_c, 8, 88, 0
1, 20848, Control_c, 8, 0, 0
1, 20848, Control_c, 8, 32, 0
1, 20848, Program_c, 8, 49
1, 20848, Note_on_c, 8, 80, 0
1, 20848, Note_on_c, 8, 80, 0
1, 20852, Note_on_c, 7, 52, 0
1, 20852, Note_on_c, 6, 42, 120
1, 20852, Note_on_c, 7, 54, 100
1, 20852, Control_c, 8, 0, 0
1, 20852, Control_c, 8, 32, 0
1, 20852, Program_c, 8, 48
1, 20852, Note_on_c, 8, 85, 120
1, 20852, Note_on_c, 8, 88, 120
1, 20852, Control_c, 8, 0, 0
1, 20852, Control_c, 8, 32, 0
1, 20852, Program_c, 8, 49
1, 20852, Note_on_c, 8, 80, 120
1, 20852, Note_on_c, 8, 80, 120
1, 20873, Note_on_c, 6, 42, 0
1, 20873, Control_c, 8, 0, 0
1, 20873, Control_c, 8, 32, 0
1, 20873, Program_c, 8, 48
1, 20873, Note_on_c, 8, 85, 0
1, 20873, Note_on_c, 8, 88, 0
1, 20873, Control_c, 8, 0, 0
1, 20873, Control_c, 8, 32, 0
1, 20873, Program_c, 8, 49
1, 20873, Note_on_c, 8, 80, 0
1, 20873, Note_on_c, 8, 80, 0
1, 20876, Note_on_c, 7, 54, 0
1, 20876, Note_on_c, 6, 42, 120
1, 20876, Note_on_c, 7, 56, 100
1, 20876, Control_c, 8, 0, 0
1, 20876, Control_c, 8, 32, 0
1, 20876, Program_c, 8, 48
1, 20876, Note_on_c, 8, 85, 120
1, 20876, Note_on_c, 8, 88, 120
1, 20876, Control_c, 8, 0, 0
1, 20876, Control_c, 8, 32, 0
1, 20876, Program_c, 8, 49
1, 20876, Note_on_c, 8, 80, 120
1, 20876, Note_on_c, 8, 80, 120
1, 20898, Note_on_c, 6, 42, 0
1, 20898, Control_c, 8, 0, 0
1, 20898, Control_c, 8, 32, 0
1, 20898, Program_c, 8, 48
1, 20898, Note_on_c, 8, 85, 0
1, 20898, Note_on_c, 8, 88, 0
1, 20898, Control_c, 8, 0, 0
1, 20898, Control_c, 8, 32, 0
1, 20898, Program_c, 8, 49
1, 20898, Note_on_c, 8, 80, 0
1, 20898, Note_on_c, 8, 80, 0
1, 20901, Note_on_c, 7, 56, 0
1, 20901, Note_on_c, 6, 42, 120
1, 20901, Note_on_c, 7, 58, 100
1, 20901, Control_c, 8, 0, 0
1, 20901, Control_c, 8, 32, 0
1, 20901, Program_c, 8, 48
1, 20901, Note_on_c, 8, 85, 120
1, 20901, Note_on_c, 8, 88, 120
1, 20901, Control_c, 8, 0, 0
1, 20901, Control_c, 8, 32, 0
1, 20901, Program_c, 8, 49
1, 20901, Note_on_c, 8, 80, 120
1, 20901, Note_on_c, 8, 80, 120
1, 20922, Note_on_c, 6, 42, 0
1, 20922, Control_c, 8, 0, 0
1, 20922, Control_c, 8, 32, 0
1, 20922, Program_c, 8, 48
1, 20922, Note_on_c, 8, 85, 0
1, 20922, Note_on_c, 8, 88, 0
1, 20922, Control_c, 8, 0, 0
1, 20922, Control_c, 8, 32, 0
1, 20922, Program_c, 8, 49
1, 20922, Note_on_c, 8, 80, 0
1, 20922, Note_on_c, 8, 80, 0
1, 20925, Note_on_c, 7, 58, 0
1, 20925, Note_on_c, 6, 42, 120
1, 20925, Note_on_c, 7, 59, 100
1, 20925, Control_c, 8, 0, 0
1, 20925, Control_c, 8, 32, 0
1, 20925, Program_c, 8, 48
1, 20925, Note_on_c, 8, 85, 120
1, 20925, Note_on_c, 8, 88, 120
1, 20925, Control_c, 8, 0, 0
1, 20925, Control_c, 8, 32, 0
1, 20925, Program_c, 8, 49
1, 20925, Note_on_c, 8, 80, 120
1, 20925, Note_on_c, 8, 80, 120
1, 20946, Note_on_c, 6, 42, 0
1, 20946, Control_c, 8, 0, 0
1, 20946, Control_c, 8, 32, 0
1, 20946, Program_c, 8, 48
1, 20946, Note_on_c, 8, 85, 0
1, 20946, Note_on_c, 8, 88, 0
1, 20946, Control_c, 8, 0, 0
1, 20946, Control_c, 8, 32, 0
1, 20946, Program_c, 8, 49
1, 20946, Note_on_c, 8, 80, 0
1, 20946, Note_on_c, 8, 80, 0
1, 20950, Note_on_c, 7, 59, 0
1, 20950, Note_on_c, 6, 42, 120
1, 20950, Note_on_c, 7, 61, 100
1, 20950, Control_c, 8, 0, 0
1, 20950, Control_c, 8, 32, 0
1, 20950, Program_c, 8, 48
1, 20950, Note_on_c, 8, 85, 120
1, 20950, Note_on_c, 8, 88, 120
1, 20950, Control_c, 8, 0, 0
1, 20950, Control_c, 8, 32, 0
1, 20950, Program_c, 8, 49
1, 20950, Note_on_c, 8, 80, 120
1, 20950, Note_on_c, 8, 80, 120
1, 20968, Note_on_c, 4, 61, 0
1, 20968, Note_on_c, 4, 61, 0
1, 20968, Note_on_c, 4, 73, 0
1, 20968, Note_on_c, 4, 73, 0
1, 20968, Note_on_c, 5, 76, 0
1, 20968, Note_on_c, 5, 68, 0
1, 20968, Note_on_c, 5, 54, 0
1, 20968, Note_on_c, 5, 49, 0
1, 20968, Note_on_c, 5, 46, 0
1, 20968, Note_on_c, 8, 88, 0
1, 20968, Note_on_c, 8, 85, 0
1, 20968, Note_on_c, 8, 80, 0
1, 20968, Note_on_c, 8, 71, 0
1, 20968, Note_on_c, 8, 71, 0
1, 20971, Note_on_c, 6, 42, 0
1, 20971, Control_c, 8, 0, 0
1, 20971, Control_c, 8, 32, 0
1, 20971, Program_c, 8, 48
1, 20971, Note_on_c, 8, 85, 0
1, 20971, Note_on_c, 8, 88, 0
1, 20971, Control_c, 8, 0, 0
1, 20971, Control_c, 8, 32, 0
1, 20971, Program_c, 8, 49
1, 20971, Note_on_c, 8, 80, 0
1, 20971, Note_on_c, 8, 80, 0
1, 20974, Note_on_c, 7, 61, 0
1, 20974, Note_on_c, 6, 42, 120
1, 20974, Note_on_c, 7, 63, 100
1, 20974, Control_c, 8, 0, 0
1, 20974, Control_c, 8, 32, 0
1, 20974, Program_c, 8, 48
1, 20974, Note_on_c, 8, 85, 120
1, 20974, Note_on_c, 8, 88, 120
1, 20974, Control_c, 8, 0, 0
1, 20974, Control_c, 8, 32, 0
1, 20974, Program_c, 8, 49
1, 20974, Note_on_c, 8, 80, 120
1, 20974, Note_on_c, 8, 80, 120
1, 20996, Note_on_c, 6, 42, 0
1, 20996, Control_c, 8, 0, 0
1, 20996, Control_c, 8, 32, 0
1, 20996, Program_c, 8, 48
1, 20996, Note_on_c, 8, 85, 0
1, 20996, Note_on_c, 8, 88, 0
1, 20996, Control_c, 8, 0, 0
1, 20996, Control_c, 8, 32, 0
1, 20996, Program_c, 8, 49
1, 20996, Note_on_c, 8, 80, 0
1, 20996, Note_on_c, 8, 80, 0
1, 20998, Note_on_c, 7, 63, 0
1, 20998, Note_on_c, 6, 42, 120
1, 20998, Note_on_c, 7, 64, 100
1, 20998, Control_c, 8, 0, 0
1, 20998, Control_c, 8, 32, 0
1, 20998, Program_c, 8, 48
1, 20998, Note_on_c, 8, 85, 120
1, 20998, Note_on_c, 8, 88, 120
1, 20998, Control_c, 8, 0, 0
1, 20998, Control_c, 8, 32, 0
1, 20998, Program_c, 8, 49
1, 20998, Note_on_c, 8, 80, 120
1, 20998, Note_on_c, 8, 80, 120
1, 21020, Note_on_c, 6, 42, 0
1, 21020, Control_c, 8, 0, 0
1, 21020, Control_c, 8, 32, 0
1, 21020, Program_c, 8, 48
1, 21020, Note_on_c, 8, 85, 0
1, 21020, Note_on_c, 8, 88, 0
1, 21020, Control_c, 8, 0, 0
1, 21020, Control_c, 8, 32, 0
1, 21020, Program_c, 8, 49
1, 21020, Note_on_c, 8, 80, 0
1, 21020, Note_on_c, 8, 80, 0
1, 21023, Note_on_c, 0, 88, 0
1, 21023, Note_on_c, 0, 100, 0
1, 21023, Note_on_c, 1, 85, 0
1, 21023, Note_on_c, 1, 76, 0
1, 21023, Note_on_c, 2, 80, 0
1, 21023, Note_on_c, 2, 88, 0
1, 21023, Note_on_c, 3, 64, 0
1, 21023, Note_on_c, 7, 64, 0
1, 21023, Note_on_c, 0, 87, 120
1, 21023, Note_on_c, 0, 99, 120
1, 21023, Note_on_c, 1, 83, 120
1, 21023, Note_on_c, 1, 75, 120
1, 21023, Note_on_c, 2, 87, 120
1, 21023, Note_on_c, 2, 78, 120
1, 21023, Note_on_c, 3, 63, 120
1, 21023, Note_on_c, 4, 59, 120
1, 21023, Note_on_c, 4, 59, 120
1, 21023, Note_on_c, 4, 71, 120
1, 21023, Note_on_c, 4, 71, 120
1, 21023, Note_on_c, 5, 75, 120
1, 21023, Note_on_c, 5, 66, 120
1, 21023, Note_on_c, 5, 56, 120
1, 21023, Note_on_c, 5, 52, 120
1, 21023, Note_on_c, 5, 47, 120
1, 21023, Note_on_c, 6, 42, 120
1, 21023, Note_on_c, 7, 47, 100
1, 21023, Control_c, 8, 0, 0
1, 21023, Control_c, 8, 32, 0
1, 21023, Program_c, 8, 48
1, 21023, Note_on_c, 8, 83, 120
1, 21023, Note_on_c, 8, 87, 120
1, 21023, Control_c, 8, 0, 0
1, 21023, Control_c, 8, 32, 0
1, 21023, Program_c, 8, 49
1, 21023, Note_on_c, 8, 87, 120
1, 21023, Note_on_c, 8, 83, 120
1, 21023, Note_on_c, 8, 78, 120
1, 21023, Note_on_c, 8, 78, 120
1, 21023, Note_on_c, 8, 78, 120
1, 21023, Note_on_c, 8, 70, 120
1, 21023, Note_on_c, 8, 70, 120
1, 21044, Note_on_c, 6, 42, 0
1, 21044, Control_c, 8, 0, 0
1, 21044, Control_c, 8, 32, 0
1, 21044, Program_c, 8, 48
1, 21044, Note_on_c, 8, 83, 0
1, 21044, Note_on_c, 8, 87, 0
1, 21044, Control_c, 8, 0, 0
1, 21044, Control_c, 8, 32, 0
1, 21044, Program_c, 8, 49
1, 21044, Note_on_c, 8, 78, 0
1, 21044, Note_on_c, 8, 78, 0
1, 21047, Note_on_c, 7, 47, 0
1, 21047, Note_on_c, 6, 42, 120
1, 21047, Note_on_c, 7, 49, 100
1, 21047, Control_c, 8, 0, 0
1, 21047, Control_c, 8, 32, 0
1, 21047, Program_c, 8, 48
1, 21047, Note_on_c, 8, 83, 120
1, 21047, Note_on_c, 8, 87, 120
1, 21047, Control_c, 8, 0, 0
1, 21047, Control_c, 8, 32, 0
1, 21047, Program_c, 8, 49
1, 21047, Note_on_c, 8, 78, 120
1, 21047, Note_on_c, 8, 78, 120
1, 21068, Note_on_c, 6, 42, 0
1, 21068, Control_c, 8, 0, 0
1, 21068, Control_c, 8, 32, 0
1, 21068, Program_c, 8, 48
1, 21068, Note_on_c, 8, 83, 0
1, 21068, Note_on_c, 8, 87, 0
1, 21068, Control_c, 8, 0, 0
1, 21068, Control_c, 8, 32, 0
1, 21068, Program_c, 8, 49
1, 21068, Note_on_c, 8, 78, 0
1, 21068, Note_on_c, 8, 78, 0
1, 21071, Note_on_c, 7, 49, 0
1, 21071, Note_on_c, 6, 42, 120
1, 21071, Note_on_c, 7, 51, 100
1, 21071, Control_c, 8, 0, 0
1, 21071, Control_c, 8, 32, 0
1, 21071, Program_c, 8, 48
1, 21071, Note_on_c, 8, 83, 120
1, 21071, Note_on_c, 8, 87, 120
1, 21071, Control_c, 8, 0, 0
1, 21071, Control_c, 8, 32, 0
1, 21071, Program_c, 8, 49
1, 21071, Note_on_c, 8, 78, 120
1, 21071, Note_on_c, 8, 78, 120
1, 21092, Note_on_c, 6, 42, 0
1, 21092, Control_c, 8, 0, 0
1, 21092, Control_c, 8, 32, 0
1, 21092, Program_c, 8, 48
1, 21092, Note_on_c, 8, 83, 0
1, 21092, Note_on_c, 8, 87, 0
1, 21092, Control_c, 8, 0, 0
1, 21092, Control_c, 8, 32, 0
1, 21092, Program_c, 8, 49
1, 21092, Note_on_c, 8, 78, 0
1, 21092, Note_on_c, 8, 78, 0
1, 21095, Note_on_c, 7, 51, 0
1, 21095, Note_on_c, 6, 42, 120
1, 21095, Note_on_c, 7, 52, 100
1, 21095, Control_c, 8, 0, 0
1, 21095, Control_c, 8, 32, 0
1, 21095, Program_c, 8, 48
1, 21095, Note_on_c, 8, 83, 120
1, 21095, Note_on_c, 8, 87, 120
1, 21095, Control_c, 8, 0, 0
1, 21095, Control_c, 8, 32, 0
1, 21095, Program_c, 8, 49
1, 21095, Note_on_c, 8, 78, 120
1, 21095, Note_on_c, 8, 78, 120
1, 21116, Note_on_c, 6, 42, 0
1, 21116, Control_c, 8, 0, 0
1, 21116, Control_c, 8, 32, 0
1, 21116, Program_c, 8, 48
1, 21116, Note_on_c, 8, 83, 0
1, 21116, Note_on_c, 8, 87, 0
1, 21116, Control_c, 8, 0, 0
1, 21116, Control_c, 8, 32, 0
1, 21116, Program_c, 8, 49
1, 21116, Note_on_c, 8, 78, 0
1, 21116, Note_on_c, 8, 78, 0
1, 21119, Note_on_c, 7, 52, 0
1, 21119, Note_on_c, 6, 42, 120
1, 21119, Note_on_c, 7, 54, 100
1, 21119, Control_c, 8, 0, 0
1, 21119, Control_c, 8, 32, 0
1, 21119, Program_c, 8, 48
1, 21119, Note_on_c, 8, 83, 120
1, 21119, Note_on_c, 8, 87, 120
1, 21119, Control_c, 8, 0, 0
1, 21119, Control_c, 8, 32, 0
1, 21119, Program_c, 8, 49
1, 21119, Note_on_c, 8, 78, 120
1, 21119, Note_on_c, 8, 78, 120
1, 21137, Note_on_c, 4, 59, 0
1, 21137, Note_on_c, 4, 59, 0
1, 21137, Note_on_c, 4, 71, 0
1, 21137, Note_on_c, 4, 71, 0
1, 21137, Note_on_c, 5, 75, 0
1, 21137, Note_on_c, 5, 66, 0
1, 21137, Note_on_c, 8, 87, 0
1, 21137, Note_on_c, 8, 83, 0
1, 21137, Note_on_c, 8, 78, 0
1, 21137, Note_on_c, 8, 70, 0
1, 21137, Note_on_c, 8, 70, 0
1, 21140, Note_on_c, 6, 42, 0
1, 21140, Control_c, 8, 0, 0
1, 21140, Control_c, 8, 32, 0
1, 21140, Program_c, 8, 48
1, 21140, Note_on_c, 8, 83, 0
1, 21140, Note_on_c, 8, 87, 0
1, 21140, Control_c, 8, 0, 0
1, 21140, Control_c, 8, 32, 0
1, 21140, Program_c, 8, 49
1, 21140, Note_on_c, 8, 78, 0
1, 21140, Note_on_c, 8, 78, 0
1, 21143, Note_on_c, 7, 54, 0
1, 21143, Note_on_c, 6, 42, 120
1, 21143, Note_on_c, 7, 56, 100
1, 21143, Control_c, 8, 0, 0
1, 21143, Control_c, 8, 32, 0
1, 21143, Program_c, 8, 48
1, 21143, Note_on_c, 8, 83, 120
1, 21143, Note_on_c, 8, 87, 120
1, 21143, Control_c, 8, 0, 0
1, 21143, Control_c, 8, 32, 0
1, 21143, Program_c, 8, 49
1, 21143, Note_on_c, 8, 78, 120
1, 21143, Note_on_c, 8, 78, 120
1, 21164, Note_on_c, 6, 42, 0
1, 21164, Control_c, 8, 0, 0
1, 21164, Control_c, 8, 32, 0
1, 21164, Program_c, 8, 48
1, 21164, Note_on_c, 8, 83, 0
1, 21164, Note_on_c, 8, 87, 0
1, 21164, Control_c, 8, 0, 0
1, 21164, Control_c, 8, 32, 0
1, 21164, Program_c, 8, 49
1, 21164, Note_on_c, 8, 78, 0
1, 21164, Note_on_c, 8, 78, 0
1, 21167, Note_on_c, 7, 56, 0
1, 21167, Note_on_c, 0, 90, 120
1, 21167, Note_on_c, 0, 102, 120
1, 21167, Note_on_c, 1, 87, 120
1, 21167, Note_on_c, 1, 78, 120
1, 21167, Note_on_c, 2, 83, 120
1, 21167, Note_on_c, 2, 90, 120
1, 21167, Note_on_c, 3, 66, 120
1, 21167, Note_on_c, 4, 63, 120
1, 21167, Note_on_c, 4, 63, 120
1, 21167, Note_on_c, 4, 71, 120
1, 21167, Note_on_c, 4, 71, 120
1, 21167, Note_on_c, 5, 78, 120
1, 21167, Note_on_c, 5, 75, 120
1, 21167, Note_on_c, 6, 42, 120
1, 21167, Note_on_c, 7, 58, 100
1, 21167, Control_c, 8, 0, 0
1, 21167, Control_c, 8, 32, 0
1, 21167, Program_c, 8, 48
1, 21167, Note_on_c, 8, 87, 120
1, 21167, Note_on_c, 8, 90, 120
1, 21167, Control_c, 8, 0, 0
1, 21167, Control_c, 8, 32, 0
1, 21167, Program_c, 8, 49
1, 21167, Note_on_c, 8, 90, 120
1, 21167, Note_on_c, 8, 87, 120
1, 21167, Note_on_c, 8, 83, 120
1, 21167, Note_on_c, 8, 83, 120
1, 21167, Note_on_c, 8, 83, 120
1, 21167, Note_on_c, 8, 73, 120
1, 21167, Note_on_c, 8, 73, 120
1, 21170, Note_on_c, 0, 87, 0
1, 21170, Note_on_c, 0, 99, 0
1, 21170, Note_on_c, 1, 83, 0
1, 21170, Note_on_c, 1, 75, 0
1, 21170, Note_on_c, 2, 87, 0
1, 21170, Note_on_c, 2, 78, 0
1, 21170, Note_on_c, 3, 63, 0
1, 21188, Note_on_c, 6, 42, 0
1, 21188, Control_c, 8, 0, 0
1, 21188, Control_c, 8, 32, 0
1, 21188, Program_c, 8, 48
1, 21188, Note_on_c, 8, 87, 0
1, 21188, Note_on_c, 8, 90, 0
1, 21188, Control_c, 8, 0, 0
1, 21188, Control_c, 8, 32, 0
1, 21188, Program_c, 8, 49
1, 21188, Note_on_c, 8, 83, 0
1, 21188, Note_on_c, 8, 83, 0
1, 21191, Note_on_c, 7, 58, 0
1, 21191, Note_on_c, 6, 42, 120
1, 21191, Note_on_c, 7, 59, 100
1, 21191, Control_c, 8, 0, 0
1, 21191, Control_c, 8, 32, 0
1, 21191, Program_c, 8, 48
1, 21191, Note_on_c, 8, 87, 120
1, 21191, Note_on_c, 8, 90, 120
1, 21191, Control_c, 8, 0, 0
1, 21191, Control_c, 8, 32, 0
1, 21191, Program_c, 8, 49
1, 21191, Note_on_c, 8, 83, 120
1, 21191, Note_on_c, 8, 83, 120
1, 21212, Note_on_c, 6, 42, 0
1, 21212, Control_c, 8, 0, 0
1, 21212, Control_c, 8, 32, 0
1, 21212, Program_c, 8, 48
1, 21212, Note_on_c, 8, 87, 0
1, 21212, Note_on_c, 8, 90, 0
1, 21212, Control_c, 8, 0, 0
1, 21212, Control_c, 8, 32, 0
1, 21212, Program_c, 8, 49
1, 21212, Note_on_c, 8, 83, 0
1, 21212, Note_on_c, 8, 83, 0
1, 21215, Note_on_c, 7, 59, 0
1, 21215, Note_on_c, 6, 42, 120
1, 21215, Note_on_c, 7, 61, 100
1, 21215, Control_c, 8, 0, 0
1, 21215, Control_c, 8, 32, 0
1, 21215, Program_c, 8, 48
1, 21215, Note_on_c, 8, 87, 120
1, 21215, Note_on_c, 8, 90, 120
1, 21215, Control_c, 8, 0, 0
1, 21215, Control_c, 8, 32, 0
1, 21215, Program_c, 8, 49
1, 21215, Note_on_c, 8, 83, 120
1, 21215, Note_on_c, 8, 83, 120
1, 21236, Note_on_c, 6, 42, 0
1, 21236, Control_c, 8, 0, 0
1, 21236, Control_c, 8, 32, 0
1, 21236, Program_c, 8, 48
1, 21236, Note_on_c, 8, 87, 0
1, 21236, Note_on_c, 8, 90, 0
1, 21236, Control_c, 8, 0, 0
1, 21236, Control_c, 8, 32, 0
1, 21236, Program_c, 8, 49
1, 21236, Note_on_c, 8, 83, 0
1, 21236, Note_on_c, 8, 83, 0
1, 21239, Note_on_c, 7, 61, 0
1, 21239, Note_on_c, 6, 42, 120
1, 21239, Note_on_c, 7, 63, 100
1, 21239, Control_c, 8, 0, 0
1, 21239, Control_c, 8, 32, 0
1, 21239, Program_c, 8, 48
1, 21239, Note_on_c, 8, 87, 120
1, 21239, Note_on_c, 8, 90, 120
1, 21239, Control_c, 8, 0, 0
1, 21239, Control_c, 8, 32, 0
1, 21239, Program_c, 8, 49
1, 21239, Note_on_c, 8, 83, 120
1, 21239, Note_on_c, 8, 83, 120
1, 21257, Note_on_c, 5, 56, 0
1, 21257, Note_on_c, 5, 52, 0
1, 21257, Note_on_c, 5, 47, 0
1, 21260, Note_on_c, 6, 42, 0
1, 21260, Control_c, 8, 0, 0
1, 21260, Control_c, 8, 32, 0
1, 21260, Program_c, 8, 48
1, 21260, Note_on_c, 8, 87, 0
1, 21260, Note_on_c, 8, 90, 0
1, 21260, Control_c, 8, 0, 0
1, 21260, Control_c, 8, 32, 0
1, 21260, Program_c, 8, 49
1, 21260, Note_on_c, 8, 83, 0
1, 21260, Note_on_c, 8, 83, 0
1, 21263, Note_on_c, 7, 63, 0
1, 21263, Note_on_c, 6, 42, 120
1, 21263, Note_on_c, 7, 64, 100
1, 21263, Control_c, 8, 0, 0
1, 21263, Control_c, 8, 32, 0
1, 21263, Program_c, 8, 48
1, 21263, Note_on_c, 8, 87, 120
1, 21263, Note_on_c, 8, 90, 120
1, 21263, Control_c, 8, 0, 0
1, 21263, Control_c, 8, 32, 0
1, 21263, Program_c, 8, 49
1, 21263, Note_on_c, 8, 83, 120
1, 21263, Note_on_c, 8, 83, 120
1, 21281, Note_on_c, 4, 63, 0
1, 21281, Note_on_c, 4, 63, 0
1, 21281, Note_on_c, 4, 71, 0
1, 21281, Note_on_c, 4, 71, 0
1, 21281, Note_on_c, 5, 78, 0
1, 21281, Note_on_c, 5, 75, 0
1, 21281, Note_on_c, 8, 90, 0
1, 21281, Note_on_c, 8, 87, 0
1, 21281, Note_on_c, 8, 83, 0
1, 21281, Note_on_c, 8, 73, 0
1, 21281, Note_on_c, 8, 73, 0
1, 21284, Note_on_c, 6, 42, 0
1, 21284, Control_c, 8, 0, 0
1, 21284, Control_c, 8, 32, 0
1, 21284, Program_c, 8, 48
1, 21284, Note_on_c, 8, 87, 0
1, 21284, Note_on_c, 8, 90, 0
1, 21284, Control_c, 8, 0, 0
1, 21284, Control_c, 8, 32, 0
1, 21284, Program_c, 8, 49
1, 21284, Note_on_c, 8, 83, 0
1, 21284, Note_on_c, 8, 83, 0
1, 21287, Note_on_c, 7, 64, 0
1, 21287, Note_on_c, 6, 42, 120
1, 21287, Note_on_c, 7, 66, 100
1, 21287, Control_c, 8, 0, 0
1, 21287, Control_c, 8, 32, 0
1, 21287, Program_c, 8, 48
1, 21287, Note_on_c, 8, 87, 120
1, 21287, Note_on_c, 8, 90, 120
1, 21287, Control_c, 8, 0, 0
1, 21287, Control_c, 8, 32, 0
1, 21287, Program_c, 8, 49
1, 21287, Note_on_c, 8, 83, 120
1, 21287, Note_on_c, 8, 83, 120
1, 21308, Note_on_c, 6, 42, 0
1, 21308, Control_c, 8, 0, 0
1, 21308, Control_c, 8, 32, 0
1, 21308, Program_c, 8, 48
1, 21308, Note_on_c, 8, 87, 0
1, 21308, Note_on_c, 8, 90, 0
1, 21308, Control_c, 8, 0, 0
1, 21308, Control_c, 8, 32, 0
1, 21308, Program_c, 8, 49
1, 21308, Note_on_c, 8, 83, 0
1, 21308, Note_on_c, 8, 83, 0
1, 21311, Note_on_c, 7, 66, 0
1, 21311, Note_on_c, 0, 85, 120
1, 21311, Note_on_c, 0, 97, 120
1, 21311, Note_on_c, 1, 82, 120
1, 21311, Note_on_c, 1, 73, 120
1, 21311, Note_on_c, 2, 85, 120
1, 21311, Note_on_c, 2, 76, 120
1, 21311, Note_on_c, 3, 61, 120
1, 21311, Note_on_c, 4, 61, 120
1, 21311, Note_on_c, 4, 61, 120
1, 21311, Note_on_c, 4, 70, 120
1, 21311, Note_on_c, 4, 70, 120
1, 21311, Note_on_c, 5, 73, 120
1, 21311, Note_on_c, 5, 64, 120
1, 21311, Note_on_c, 5, 58, 120
1, 21311, Note_on_c, 5, 54, 120
1, 21311, Note_on_c, 5, 49, 120
1, 21311, Note_on_c, 6, 42, 120
1, 21311, Note_on_c, 7, 49, 100
1, 21311, Control_c, 8, 0, 0
1, 21311, Control_c, 8, 32, 0
1, 21311, Program_c, 8, 48
1, 21311, Note_on_c, 8, 82, 120
1, 21311, Note_on_c, 8, 85, 120
1, 21311, Control_c, 8, 0, 0
1, 21311, Control_c, 8, 32, 0
1, 21311, Program_c, 8, 49
1, 21311, Note_on_c, 8, 85, 120
1, 21311, Note_on_c, 8, 82, 120
1, 21311, Note_on_c, 8, 76, 120
1, 21311, Note_on_c, 8, 76, 120
1, 21311, Note_on_c, 8, 76, 120
1, 21311, Note_on_c, 8, 68, 120
1, 21311, Note_on_c, 8, 68, 120
1, 21314, Note_on_c, 0, 90, 0
1, 21314, Note_on_c, 0, 102, 0
1, 21314, Note_on_c, 1, 87, 0
1, 21314, Note_on_c, 1, 78, 0
1, 21314, Note_on_c, 2, 83, 0
1, 21314, Note_on_c, 2, 90, 0
1, 21314, Note_on_c, 3, 66, 0
1, 21332, Note_on_c, 6, 42, 0
1, 21332, Control_c, 8, 0, 0
1, 21332, Control_c, 8, 32, 0
1, 21332, Program_c, 8, 48
1, 21332, Note_on_c, 8, 82, 0
1, 21332, Note_on_c, 8, 85, 0
1, 21332, Control_c, 8, 0, 0
1, 21332, Control_c, 8, 32, 0
1, 21332, Program_c, 8, 49
1, 21332, Note_on_c, 8, 76, 0
1, 21332, Note_on_c, 8, 76, 0
1, 21335, Note_on_c, 7, 49, 0
1, 21335, Note_on_c, 6, 42, 120
1, 21335, Note_on_c, 7, 51, 100
1, 21335, Control_c, 8, 0, 0
1, 21335, Control_c, 8, 32, 0
1, 21335, Program_c, 8, 48
1, 21335, Note_on_c, 8, 82, 120
1, 21335, Note_on_c, 8, 85, 120
1, 21335, Control_c, 8, 0, 0
1, 21335, Control_c, 8, 32, 0
1, 21335, Program_c, 8, 49
1, 21335, Note_on_c, 8, 76, 120
1, 21335, Note_on_c, 8, 76, 120
1, 21356, Note_on_c, 6, 42, 0
1, 21356, Control_c, 8, 0, 0
1, 21356, Control_c, 8, 32, 0
1, 21356, Program_c, 8, 48
1, 21356, Note_on_c, 8, 82, 0
1, 21356, Note_on_c, 8, 85, 0
1, 21356, Control_c, 8, 0, 0
1, 21356, Control_c, 8, 32, 0
1, 21356, Program_c, 8, 49
1, 21356, Note_on_c, 8, 76, 0
1, 21356, Note_on_c, 8, 76, 0
1, 21359, Note_on_c, 7, 51, 0
1, 21359, Note_on_c, 6, 42, 120
1, 21359, Note_on_c, 7, 52, 100
1, 21359, Control_c, 8, 0, 0
1, 21359, Control_c, 8, 32, 0
1, 21359, Program_c, 8, 48
1, 21359, Note_on_c, 8, 82, 120
1, 21359, Note_on_c, 8, 85, 120
1, 21359, Control_c, 8, 0, 0
1, 21359, Control_c, 8, 32, 0
1, 21359, Program_c, 8, 49
1, 21359, Note_on_c, 8, 76, 120
1, 21359, Note_on_c, 8, 76, 120
1, 21380, Note_on_c, 6, 42, 0
1, 21380, Control_c, 8, 0, 0
1, 21380, Control_c, 8, 32, 0
1, 21380, Program_c, 8, 48
1, 21380, Note_on_c, 8, 82, 0
1, 21380, Note_on_c, 8, 85, 0
1, 21380, Control_c, 8, 0, 0
1, 21380, Control_c, 8, 32, 0
1, 21380, Program_c, 8, 49
1, 21380, Note_on_c, 8, 76, 0
1, 21380, Note_on_c, 8, 76, 0
1, 21383, Note_on_c, 7, 52, 0
1, 21383, Note_on_c, 6, 42, 120
1, 21383, Note_on_c, 7, 54, 100
1, 21383, Control_c, 8, 0, 0
1, 21383, Control_c, 8, 32, 0
1, 21383, Program_c, 8, 48
1, 21383, Note_on_c, 8, 82, 120
1, 21383, Note_on_c, 8, 85, 120
1, 21383, Control_c, 8, 0, 0
1, 21383, Control_c, 8, 32, 0
1, 21383, Program_c, 8, 49
1, 21383, Note_on_c, 8, 76, 120
1, 21383, Note_on_c, 8, 76, 120
1, 21404, Note_on_c, 6, 42, 0
1, 21404, Control_c, 8, 0, 0
1, 21404, Control_c, 8, 32, 0
1, 21404, Program_c, 8, 48
1, 21404, Note_on_c, 8, 82, 0
1, 21404, Note_on_c, 8, 85, 0
1, 21404, Control_c, 8, 0, 0
1, 21404, Control_c, 8, 32, 0
1, 21404, Program_c, 8, 49
1, 21404, Note_on_c, 8, 76, 0
1, 21404, Note_on_c, 8, 76, 0
1, 21407, Note_on_c, 7, 54, 0
1, 21407, Note_on_c, 6, 42, 120
1, 21407, Note_on_c, 7, 56, 100
1, 21407, Control_c, 8, 0, 0
1, 21407, Control_c, 8, 32, 0
1, 21407, Program_c, 8, 48
1, 21407, Note_on_c, 8, 82, 120
1, 21407, Note_on_c, 8, 85, 120
1, 21407, Control_c, 8, 0, 0
1, 21407, Control_c, 8, 32, 0
1, 21407, Program_c, 8, 49
1, 21407, Note_on_c, 8, 76, 120
1, 21407, Note_on_c, 8, 76, 120
1, 21428, Note_on_c, 6, 42, 0
1, 21428, Control_c, 8, 0, 0
1, 21428, Control_c, 8, 32, 0
1, 21428, Program_c, 8, 48
1, 21428, Note_on_c, 8, 82, 0
1, 21428, Note_on_c, 8, 85, 0
1, 21428, Control_c, 8, 0, 0
1, 21428, Control_c, 8, 32, 0
1, 21428, Program_c, 8, 49
1, 21428, Note_on_c, 8, 76, 0
1, 21428, Note_on_c, 8, 76, 0
1, 21431, Note_on_c, 7, 56, 0
1, 21431, Note_on_c, 6, 42, 120
1, 21431, Note_on_c, 7, 58, 100
1, 21431, Control_c, 8, 0, 0
1, 21431, Control_c, 8, 32, 0
1, 21431, Program_c, 8, 48
1, 21431, Note_on_c, 8, 82, 120
1, 21431, Note_on_c, 8, 85, 120
1, 21431, Control_c, 8, 0, 0
1, 21431, Control_c, 8, 32, 0
1, 21431, Program_c, 8, 49
1, 21431, Note_on_c, 8, 76, 120
1, 21431, Note_on_c, 8, 76, 120
1, 21452, Note_on_c, 6, 42, 0
1, 21452, Control_c, 8, 0, 0
1, 21452, Control_c, 8, 32, 0
1, 21452, Program_c, 8, 48
1, 21452, Note_on_c, 8, 82, 0
1, 21452, Note_on_c, 8, 85, 0
1, 21452, Control_c, 8, 0, 0
1, 21452, Control_c, 8, 32, 0
1, 21452, Program_c, 8, 49
1, 21452, Note_on_c, 8, 76, 0
1, 21452, Note_on_c, 8, 76, 0
1, 21455, Note_on_c, 7, 58, 0
1, 21455, Note_on_c, 6, 42, 120
1, 21455, Note_on_c, 7, 59, 100
1, 21455, Control_c, 8, 0, 0
1, 21455, Control_c, 8, 32, 0
1, 21455, Program_c, 8, 48
1, 21455, Note_on_c, 8, 82, 120
1, 21455, Note_on_c, 8, 85, 120
1, 21455, Control_c, 8, 0, 0
1, 21455, Control_c, 8, 32, 0
1, 21455, Program_c, 8, 49
1, 21455, Note_on_c, 8, 76, 120
1, 21455, Note_on_c, 8, 76, 120
1, 21476, Note_on_c, 6, 42, 0
1, 21476, Control_c, 8, 0, 0
1, 21476, Control_c, 8, 32, 0
1, 21476, Program_c, 8, 48
1, 21476, Note_on_c, 8, 82, 0
1, 21476, Note_on_c, 8, 85, 0
1, 21476, Control_c, 8, 0, 0
1, 21476, Control_c, 8, 32, 0
1, 21476, Program_c, 8, 49
1, 21476, Note_on_c, 8, 76, 0
1, 21476, Note_on_c, 8, 76, 0
1, 21479, Note_on_c, 7, 59, 0
1, 21479, Note_on_c, 6, 42, 120
1, 21479, Note_on_c, 7, 61, 100
1, 21479, Control_c, 8, 0, 0
1, 21479, Control_c, 8, 32, 0
1, 21479, Program_c, 8, 48
1, 21479, Note_on_c, 8, 82, 120
1, 21479, Note_on_c, 8, 85, 120
1, 21479, Control_c, 8, 0, 0
1, 21479, Control_c, 8, 32, 0
1, 21479, Program_c, 8, 49
1, 21479, Note_on_c, 8, 76, 120
1, 21479, Note_on_c, 8, 76, 120
1, 21500, Note_on_c, 6, 42, 0
1, 21500, Control_c, 8, 0, 0
1, 21500, Control_c, 8, 32, 0
1, 21500, Program_c, 8, 48
1, 21500, Note_on_c, 8, 82, 0
1, 21500, Note_on_c, 8, 85, 0
1, 21500, Control_c, 8, 0, 0
1, 21500, Control_c, 8, 32, 0
1, 21500, Program_c, 8, 49
1, 21500, Note_on_c, 8, 76, 0
1, 21500, Note_on_c, 8, 76, 0
1, 21503, Note_on_c, 7, 61, 0
1, 21503, Note_on_c, 6, 42, 120
1, 21503, Note_on_c, 7, 63, 100
1, 21503, Control_c, 8, 0, 0
1, 21503, Control_c, 8, 32, 0
1, 21503, Program_c, 8, 48
1, 21503, Note_on_c, 8, 82, 120
1, 21503, Note_on_c, 8, 85, 120
1, 21503, Control_c, 8, 0, 0
1, 21503, Control_c, 8, 32, 0
1, 21503, Program_c, 8, 49
1, 21503, Note_on_c, 8, 76, 120
1, 21503, Note_on_c, 8, 76, 120
1, 21524, Note_on_c, 6, 42, 0
1, 21524, Control_c, 8, 0, 0
1, 21524, Control_c, 8, 32, 0
1, 21524, Program_c, 8, 48
1, 21524, Note_on_c, 8, 82, 0
1, 21524, Note_on_c, 8, 85, 0
1, 21524, Control_c, 8, 0, 0
1, 21524, Control_c, 8, 32, 0
1, 21524, Program_c, 8, 49
1, 21524, Note_on_c, 8, 76, 0
1, 21524, Note_on_c, 8, 76, 0
1, 21527, Note_on_c, 7, 63, 0
1, 21527, Note_on_c, 6, 42, 120
1, 21527, Note_on_c, 7, 64, 100
1, 21527, Control_c, 8, 0, 0
1, 21527, Control_c, 8, 32, 0
1, 21527, Program_c, 8, 48
1, 21527, Note_on_c, 8, 82, 120
1, 21527, Note_on_c, 8, 85, 120
1, 21527, Control_c, 8, 0, 0
1, 21527, Control_c, 8, 32, 0
1, 21527, Program_c, 8, 49
1, 21527, Note_on_c, 8, 76, 120
1, 21527, Note_on_c, 8, 76, 120
1, 21545, Note_on_c, 4, 61, 0
1, 21545, Note_on_c, 4, 61, 0
1, 21545, Note_on_c, 4, 70, 0
1, 21545, Note_on_c, 4, 70, 0
1, 21545, Note_on_c, 5, 73, 0
1, 21545, Note_on_c, 5, 64, 0
1, 21545, Note_on_c, 5, 58, 0
1, 21545, Note_on_c, 5, 54, 0
1, 21545, Note_on_c, 5, 49, 0
1, 21545, Note_on_c, 8, 85, 0
1, 21545, Note_on_c, 8, 82, 0
1, 21545, Note_on_c, 8, 76, 0
1, 21545, Note_on_c, 8, 68, 0
1, 21545, Note_on_c, 8, 68, 0
1, 21548, Note_on_c, 6, 42, 0
1, 21548, Control_c, 8, 0, 0
1, 21548, Control_c, 8, 32, 0
1, 21548, Program_c, 8, 48
1, 21548, Note_on_c, 8, 82, 0
1, 21548, Note_on_c, 8, 85, 0
1, 21548, Control_c, 8, 0, 0
1, 21548, Control_c, 8, 32, 0
1, 21548, Program_c, 8, 49
1, 21548, Note_on_c, 8, 76, 0
1, 21548, Note_on_c, 8, 76, 0
1, 21551, Note_on_c, 7, 64, 0
1, 21551, Note_on_c, 6, 42, 120
1, 21551, Note_on_c, 7, 66, 100
1, 21551, Control_c, 8, 0, 0
1, 21551, Control_c, 8, 32, 0
1, 21551, Program_c, 8, 48
1, 21551, Note_on_c, 8, 82, 120
1, 21551, Note_on_c, 8, 85, 120
1, 21551, Control_c, 8, 0, 0
1, 21551, Control_c, 8, 32, 0
1, 21551, Program_c, 8, 49
1, 21551, Note_on_c, 8, 76, 120
1, 21551, Note_on_c, 8, 76, 120
1, 21572, Note_on_c, 6, 42, 0
1, 21572, Control_c, 8, 0, 0
1, 21572, Control_c, 8, 32, 0
1, 21572, Program_c, 8, 48
1, 21572, Note_on_c, 8, 82, 0
1, 21572, Note_on_c, 8, 85, 0
1, 21572, Control_c, 8, 0, 0
1, 21572, Control_c, 8, 32, 0
1, 21572, Program_c, 8, 49
1, 21572, Note_on_c, 8, 76, 0
1, 21572, Note_on_c, 8, 76, 0
1, 21575, Note_on_c, 7, 66, 0
1, 21575, Note_on_c, 6, 42, 120
1, 21575, Note_on_c, 7, 68, 100
1, 21575, Control_c, 8, 0, 0
1, 21575, Control_c, 8, 32, 0
1, 21575, Program_c, 8, 48
1, 21575, Note_on_c, 8, 82, 120
1, 21575, Note_on_c, 8, 85, 120
1, 21575, Control_c, 8, 0, 0
1, 21575, Control_c, 8, 32, 0
1, 21575, Program_c, 8, 49
1, 21575, Note_on_c, 8, 76, 120
1, 21575, Note_on_c, 8, 76, 120
1, 21596, Note_on_c, 6, 42, 0
1, 21596, Control_c, 8, 0, 0
1, 21596, Control_c, 8, 32, 0
1, 21596, Program_c, 8, 48
1, 21596, Note_on_c, 8, 82, 0
1, 21596, Note_on_c, 8, 85, 0
1, 21596, Control_c, 8, 0, 0
1, 21596, Control_c, 8, 32, 0
1, 21596, Program_c, 8, 49
1, 21596, Note_on_c, 8, 76, 0
1, 21596, Note_on_c, 8, 76, 0
1, 21599, Note_on_c, 0, 85, 0
1, 21599, Note_on_c, 0, 97, 0
1, 21599, Note_on_c, 1, 82, 0
1, 21599, Note_on_c, 1, 73, 0
1, 21599, Note_on_c, 2, 85, 0
1, 21599, Note_on_c, 2, 76, 0
1, 21599, Note_on_c, 3, 61, 0
1, 21599, Note_on_c, 7, 68, 0
1, 21599, Note_on_c, 0, 83, 120
1, 21599, Note_on_c, 0, 95, 120
1, 21599, Note_on_c, 1, 80, 120
1, 21599, Note_on_c, 1, 71, 120
1, 21599, Note_on_c, 2, 75, 120
1, 21599, Note_on_c, 2, 83, 120
1, 21599, Note_on_c, 3, 59, 120
1, 21599, Note_on_c, 4, 59, 120
1, 21599, Note_on_c, 4, 59, 120
1, 21599, Note_on_c, 4, 68, 120
1, 21599, Note_on_c, 4, 68, 120
1, 21599, Note_on_c, 5, 71, 120
1, 21599, Note_on_c, 5, 63, 120
1, 21599, Note_on_c, 5, 59, 120
1, 21599, Note_on_c, 5, 56, 120
1, 21599, Note_on_c, 5, 51, 120
1, 21599, Note_on_c, 6, 42, 120
1, 21599, Note_on_c, 7, 51, 100
1, 21599, Control_c, 8, 0, 0
1, 21599, Control_c, 8, 32, 0
1, 21599, Program_c, 8, 48
1, 21599, Note_on_c, 8, 80, 120
1, 21599, Note_on_c, 8, 83, 120
1, 21599, Control_c, 8, 0, 0
1, 21599, Control_c, 8, 32, 0
1, 21599, Program_c, 8, 49
1, 21599, Note_on_c, 8, 83, 120
1, 21599, Note_on_c, 8, 80, 120
1, 21599, Note_on_c, 8, 75, 120
1, 21599, Note_on_c, 8, 75, 120
1, 21599, Note_on_c, 8, 75, 120
1, 21599, Note_on_c, 8, 66, 120
1, 21599, Note_on_c, 8, 66, 120
1, 21620, Note_on_c, 6, 42, 0
1, 21620, Control_c, 8, 0, 0
1, 21620, Control_c, 8, 32, 0
1, 21620, Program_c, 8, 48
1, 21620, Note_on_c, 8, 80, 0
1, 21620, Note_on_c, 8, 83, 0
1, 21620, Control_c, 8, 0, 0
1, 21620, Control_c, 8, 32, 0
1, 21620, Program_c, 8, 49
1, 21620, Note_on_c, 8, 75, 0
1, 21620, Note_on_c, 8, 75, 0
1, 21623, Note_on_c, 7, 51, 0
1, 21623, Note_on_c, 6, 42, 120
1, 21623, Note_on_c, 7, 52, 100
1, 21623, Control_c, 8, 0, 0
1, 21623, Control_c, 8, 32, 0
1, 21623, Program_c, 8, 48
1, 21623, Note_on_c, 8, 80, 120
1, 21623, Note_on_c, 8, 83, 120
1, 21623, Control_c, 8, 0, 0
1, 21623, Control_c, 8, 32, 0
1, 21623, Program_c, 8, 49
1, 21623, Note_on_c, 8, 75, 120
1, 21623, Note_on_c, 8, 75, 120
1, 21644, Note_on_c, 6, 42, 0
1, 21644, Control_c, 8, 0, 0
1, 21644, Control_c, 8, 32, 0
1, 21644, Program_c, 8, 48
1, 21644, Note_on_c, 8, 80, 0
1, 21644, Note_on_c, 8, 83, 0
1, 21644, Control_c, 8, 0, 0
1, 21644, Control_c, 8, 32, 0
1, 21644, Program_c, 8, 49
1, 21644, Note_on_c, 8, 75, 0
1, 21644, Note_on_c, 8, 75, 0
1, 21647, Note_on_c, 7, 52, 0
1, 21647, Note_on_c, 6, 42, 120
1, 21647, Note_on_c, 7, 54, 100
1, 21647, Control_c, 8, 0, 0
1, 21647, Control_c, 8, 32, 0
1, 21647, Program_c, 8, 48
1, 21647, Note_on_c, 8, 80, 120
1, 21647, Note_on_c, 8, 83, 120
1, 21647, Control_c, 8, 0, 0
1, 21647, Control_c, 8, 32, 0
1, 21647, Program_c, 8, 49
1, 21647, Note_on_c, 8, 75, 120
1, 21647, Note_on_c, 8, 75, 120
1, 21668, Note_on_c, 6, 42, 0
1, 21668, Control_c, 8, 0, 0
1, 21668, Control_c, 8, 32, 0
1, 21668, Program_c, 8, 48
1, 21668, Note_on_c, 8, 80, 0
1, 21668, Note_on_c, 8, 83, 0
1, 21668, Control_c, 8, 0, 0
1, 21668, Control_c, 8, 32, 0
1, 21668, Program_c, 8, 49
1, 21668, Note_on_c, 8, 75, 0
1, 21668, Note_on_c, 8, 75, 0
1, 21671, Note_on_c, 7, 54, 0
1, 21671, Note_on_c, 6, 42, 120
1, 21671, Note_on_c, 7, 56, 100
1, 21671, Control_c, 8, 0, 0
1, 21671, Control_c, 8, 32, 0
1, 21671, Program_c, 8, 48
1, 21671, Note_on_c, 8, 80, 120
1, 21671, Note_on_c, 8, 83, 120
1, 21671, Control_c, 8, 0, 0
1, 21671, Control_c, 8, 32, 0
1, 21671, Program_c, 8, 49
1, 21671, Note_on_c, 8, 75, 120
1, 21671, Note_on_c, 8, 75, 120
1, 21692, Note_on_c, 6, 42, 0
1, 21692, Control_c, 8, 0, 0
1, 21692, Control_c, 8, 32, 0
1, 21692, Program_c, 8, 48
1, 21692, Note_on_c, 8, 80, 0
1, 21692, Note_on_c, 8, 83, 0
1, 21692, Control_c, 8, 0, 0
1, 21692, Control_c, 8, 32, 0
1, 21692, Program_c, 8, 49
1, 21692, Note_on_c, 8, 75, 0
1, 21692, Note_on_c, 8, 75, 0
1, 21695, Note_on_c, 7, 56, 0
1, 21695, Note_on_c, 6, 42, 120
1, 21695, Note_on_c, 7, 58, 100
1, 21695, Control_c, 8, 0, 0
1, 21695, Control_c, 8, 32, 0
1, 21695, Program_c, 8, 48
1, 21695, Note_on_c, 8, 80, 120
1, 21695, Note_on_c, 8, 83, 120
1, 21695, Control_c, 8, 0, 0
1, 21695, Control_c, 8, 32, 0
1, 21695, Program_c, 8, 49
1, 21695, Note_on_c, 8, 75, 120
1, 21695, Note_on_c, 8, 75, 120
1, 21716, Note_on_c, 6, 42, 0
1, 21716, Control_c, 8, 0, 0
1, 21716, Control_c, 8, 32, 0
1, 21716, Program_c, 8, 48
1, 21716, Note_on_c, 8, 80, 0
1, 21716, Note_on_c, 8, 83, 0
1, 21716, Control_c, 8, 0, 0
1, 21716, Control_c, 8, 32, 0
1, 21716, Program_c, 8, 49
1, 21716, Note_on_c, 8, 75, 0
1, 21716, Note_on_c, 8, 75, 0
1, 21719, Note_on_c, 7, 58, 0
1, 21719, Note_on_c, 6, 42, 120
1, 21719, Note_on_c, 7, 59, 100
1, 21719, Control_c, 8, 0, 0
1, 21719, Control_c, 8, 32, 0
1, 21719, Program_c, 8, 48
1, 21719, Note_on_c, 8, 80, 120
1, 21719, Note_on_c, 8, 83, 120
1, 21719, Control_c, 8, 0, 0
1, 21719, Control_c, 8, 32, 0
1, 21719, Program_c, 8, 49
1, 21719, Note_on_c, 8, 75, 120
1, 21719, Note_on_c, 8, 75, 120
1, 21740, Note_on_c, 6, 42, 0
1, 21740, Control_c, 8, 0, 0
1, 21740, Control_c, 8, 32, 0
1, 21740, Program_c, 8, 48
1, 21740, Note_on_c, 8, 80, 0
1, 21740, Note_on_c, 8, 83, 0
1, 21740, Control_c, 8, 0, 0
1, 21740, Control_c, 8, 32, 0
1, 21740, Program_c, 8, 49
1, 21740, Note_on_c, 8, 75, 0
1, 21740, Note_on_c, 8, 75, 0
1, 21743, Note_on_c, 7, 59, 0
1, 21743, Note_on_c, 6, 42, 120
1, 21743, Note_on_c, 7, 61, 100
1, 21743, Control_c, 8, 0, 0
1, 21743, Control_c, 8, 32, 0
1, 21743, Program_c, 8, 48
1, 21743, Note_on_c, 8, 80, 120
1, 21743, Note_on_c, 8, 83, 120
1, 21743, Control_c, 8, 0, 0
1, 21743, Control_c, 8, 32, 0
1, 21743, Program_c, 8, 49
1, 21743, Note_on_c, 8, 75, 120
1, 21743, Note_on_c, 8, 75, 120
1, 21764, Note_on_c, 6, 42, 0
1, 21764, Control_c, 8, 0, 0
1, 21764, Control_c, 8, 32, 0
1, 21764, Program_c, 8, 48
1, 21764, Note_on_c, 8, 80, 0
1, 21764, Note_on_c, 8, 83, 0
1, 21764, Control_c, 8, 0, 0
1, 21764, Control_c, 8, 32, 0
1, 21764, Program_c, 8, 49
1, 21764, Note_on_c, 8, 75, 0
1, 21764, Note_on_c, 8, 75, 0
1, 21767, Note_on_c, 7, 61, 0
1, 21767, Note_on_c, 6, 42, 120
1, 21767, Note_on_c, 7, 63, 100
1, 21767, Control_c, 8, 0, 0
1, 21767, Control_c, 8, 32, 0
1, 21767, Program_c, 8, 48
1, 21767, Note_on_c, 8, 80, 120
1, 21767, Note_on_c, 8, 83, 120
1, 21767, Control_c, 8, 0, 0
1, 21767, Control_c, 8, 32, 0
1, 21767, Program_c, 8, 49
1, 21767, Note_on_c, 8, 75, 120
1, 21767, Note_on_c, 8, 75, 120
1, 21788, Note_on_c, 6, 42, 0
1, 21788, Control_c, 8, 0, 0
1, 21788, Control_c, 8, 32, 0
1, 21788, Program_c, 8, 48
1, 21788, Note_on_c, 8, 80, 0
1, 21788, Note_on_c, 8, 83, 0
1, 21788, Control_c, 8, 0, 0
1, 21788, Control_c, 8, 32, 0
1, 21788, Program_c, 8, 49
1, 21788, Note_on_c, 8, 75, 0
1, 21788, Note_on_c, 8, 75, 0
1, 21791, Note_on_c, 7, 63, 0
1, 21791, Note_on_c, 6, 42, 120
1, 21791, Note_on_c, 7, 64, 100
1, 21791, Control_c, 8, 0, 0
1, 21791, Control_c, 8, 32, 0
1, 21791, Program_c, 8, 48
1, 21791, Note_on_c, 8, 80, 120
1, 21791, Note_on_c, 8, 83, 120
1, 21791, Control_c, 8, 0, 0
1, 21791, Control_c, 8, 32, 0
1, 21791, Program_c, 8, 49
1, 21791, Note_on_c, 8, 75, 120
1, 21791, Note_on_c, 8, 75, 120
1, 21812, Note_on_c, 6, 42, 0
1, 21812, Control_c, 8, 0, 0
1, 21812, Control_c, 8, 32, 0
1, 21812, Program_c, 8, 48
1, 21812, Note_on_c, 8, 80, 0
1, 21812, Note_on_c, 8, 83, 0
1, 21812, Control_c, 8, 0, 0
1, 21812, Control_c, 8, 32, 0
1, 21812, Program_c, 8, 49
1, 21812, Note_on_c, 8, 75, 0
1, 21812, Note_on_c, 8, 75, 0
1, 21815, Note_on_c, 7, 64, 0
1, 21815, Note_on_c, 6, 42, 120
1, 21815, Note_on_c, 7, 66, 100
1, 21815, Control_c, 8, 0, 0
1, 21815, Control_c, 8, 32, 0
1, 21815, Program_c, 8, 48
1, 21815, Note_on_c, 8, 80, 120
1, 21815, Note_on_c, 8, 83, 120
1, 21815, Control_c, 8, 0, 0
1, 21815, Control_c, 8, 32, 0
1, 21815, Program_c, 8, 49
1, 21815, Note_on_c, 8, 75, 120
1, 21815, Note_on_c, 8, 75, 120
1, 21833, Note_on_c, 4, 59, 0
1, 21833, Note_on_c, 4, 59, 0
1, 21833, Note_on_c, 4, 68, 0
1, 21833, Note_on_c, 4, 68, 0
1, 21833, Note_on_c, 5, 71, 0
1, 21833, Note_on_c, 5, 63, 0
1, 21833, Note_on_c, 5, 59, 0
1, 21833, Note_on_c, 5, 56, 0
1, 21833, Note_on_c, 5, 51, 0
1, 21833, Note_on_c, 8, 83, 0
1, 21833, Note_on_c, 8, 80, 0
1, 21833, Note_on_c, 8, 75, 0
1, 21833, Note_on_c, 8, 66, 0
1, 21833, Note_on_c, 8, 66, 0
1, 21836, Note_on_c, 6, 42, 0
1, 21836, Control_c, 8, 0, 0
1, 21836, Control_c, 8, 32, 0
1, 21836, Program_c, 8, 48
1, 21836, Note_on_c, 8, 80, 0
1, 21836, Note_on_c, 8, 83, 0
1, 21836, Control_c, 8, 0, 0
1, 21836, Control_c, 8, 32, 0
1, 21836, Program_c, 8, 49
1, 21836, Note_on_c, 8, 75, 0
1, 21836, Note_on_c, 8, 75, 0
1, 21839, Note_on_c, 7, 66, 0
1, 21839, Note_on_c, 6, 42, 120
1, 21839, Note_on_c, 7, 68, 100
1, 21839, Control_c, 8, 0, 0
1, 21839, Control_c, 8, 32, 0
1, 21839, Program_c, 8, 48
1, 21839, Note_on_c, 8, 80, 120
1, 21839, Note_on_c, 8, 83, 120
1, 21839, Control_c, 8, 0, 0
1, 21839, Control_c, 8, 32, 0
1, 21839, Program_c, 8, 49
1, 21839, Note_on_c, 8, 75, 120
1, 21839, Note_on_c, 8, 75, 120
1, 21860, Note_on_c, 6, 42, 0
1, 21860, Control_c, 8, 0, 0
1, 21860, Control_c, 8, 32, 0
1, 21860, Program_c, 8, 48
1, 21860, Note_on_c, 8, 80, 0
1, 21860, Note_on_c, 8, 83, 0
1, 21860, Control_c, 8, 0, 0
1, 21860, Control_c, 8, 32, 0
1, 21860, Program_c, 8, 49
1, 21860, Note_on_c, 8, 75, 0
1, 21860, Note_on_c, 8, 75, 0
1, 21863, Note_on_c, 7, 68, 0
1, 21863, Note_on_c, 6, 42, 120
1, 21863, Note_on_c, 7, 70, 100
1, 21863, Control_c, 8, 0, 0
1, 21863, Control_c, 8, 32, 0
1, 21863, Program_c, 8, 48
1, 21863, Note_on_c, 8, 80, 120
1, 21863, Note_on_c, 8, 83, 120
1, 21863, Control_c, 8, 0, 0
1, 21863, Control_c, 8, 32, 0
1, 21863, Program_c, 8, 49
1, 21863, Note_on_c, 8, 75, 120
1, 21863, Note_on_c, 8, 75, 120
1, 21884, Note_on_c, 6, 42, 0
1, 21884, Control_c, 8, 0, 0
1, 21884, Control_c, 8, 32, 0
1, 21884, Program_c, 8, 48
1, 21884, Note_on_c, 8, 80, 0
1, 21884, Note_on_c, 8, 83, 0
1, 21884, Control_c, 8, 0, 0
1, 21884, Control_c, 8, 32, 0
1, 21884, Program_c, 8, 49
1, 21884, Note_on_c, 8, 75, 0
1, 21884, Note_on_c, 8, 75, 0
1, 21887, Note_on_c, 5, 42, 0
1, 21887, Note_on_c, 8, 30, 0
1, 21887, Note_on_c, 0, 83, 0
1, 21887, Note_on_c, 0, 95, 0
1, 21887, Note_on_c, 1, 80, 0
1, 21887, Note_on_c, 1, 71, 0
1, 21887, Note_on_c, 2, 75, 0
1, 21887, Note_on_c, 2, 83, 0
1, 21887, Note_on_c, 3, 59, 0
1, 21887, Note_on_c, 7, 70, 0
1, 21887, Note_on_c, 0, 88, 120
1, 21887, Note_on_c, 0, 100, 120
1, 21887, Note_on_c, 1, 85, 120
1, 21887, Note_on_c, 1, 76, 120
1, 21887, Note_on_c, 2, 80, 120
1, 21887, Note_on_c, 2, 88, 120
1, 21887, Note_on_c, 3, 64, 120
1, 21887, Note_on_c, 4, 64, 120
1, 21887, Note_on_c, 4, 64, 120
1, 21887, Note_on_c, 4, 73, 120
1, 21887, Note_on_c, 4, 73, 120
1, 21887, Note_on_c, 5, 76, 120
1, 21887, Note_on_c, 5, 68, 120
1, 21887, Note_on_c, 5, 61, 120
1, 21887, Note_on_c, 5, 58, 120
1, 21887, Note_on_c, 5, 52, 120
1, 21887, Note_on_c, 5, 42, 100
1, 21887, Note_on_c, 6, 42, 120
1, 21887, Note_on_c, 7, 52, 100
1, 21887, Control_c, 8, 0, 0
1, 21887, Control_c, 8, 32, 0
1, 21887, Program_c, 8, 48
1, 21887, Note_on_c, 8, 85, 120
1, 21887, Note_on_c, 8, 88, 120
1, 21887, Control_c, 8, 0, 0
1, 21887, Control_c, 8, 32, 0
1, 21887, Program_c, 8, 49
1, 21887, Note_on_c, 8, 88, 120
1, 21887, Note_on_c, 8, 85, 120
1, 21887, Note_on_c, 8, 80, 120
1, 21887, Note_on_c, 8, 80, 120
1, 21887, Note_on_c, 8, 80, 120
1, 21887, Note_on_c, 8, 71, 120
1, 21887, Note_on_c, 8, 71, 120
1, 21887, Note_on_c, 8, 30, 120
1, 21909, Note_on_c, 6, 42, 0
1, 21909, Control_c, 8, 0, 0
1, 21909, Control_c, 8, 32, 0
1, 21909, Program_c, 8, 48
1, 21909, Note_on_c, 8, 85, 0
1, 21909, Note_on_c, 8, 88, 0
1, 21909, Control_c, 8, 0, 0
1, 21909, Control_c, 8, 32, 0
1, 21909, Program_c, 8, 49
1, 21909, Note_on_c, 8, 80, 0
1, 21909, Note_on_c, 8, 80, 0
1, 21912, Note_on_c, 7, 52, 0
1, 21912, Note_on_c, 6, 42, 120
1, 21912, Note_on_c, 7, 54, 100
1, 21912, Control_c, 8, 0, 0
1, 21912, Control_c, 8, 32, 0
1, 21912, Program_c, 8, 48
1, 21912, Note_on_c, 8, 85, 120
1, 21912, Note_on_c, 8, 88, 120
1, 21912, Control_c, 8, 0, 0
1, 21912, Control_c, 8, 32, 0
1, 21912, Program_c, 8, 49
1, 21912, Note_on_c, 8, 80, 120
1, 21912, Note_on_c, 8, 80, 120
1, 21934, Note_on_c, 6, 42, 0
1, 21934, Control_c, 8, 0, 0
1, 21934, Control_c, 8, 32, 0
1, 21934, Program_c, 8, 48
1, 21934, Note_on_c, 8, 85, 0
1, 21934, Note_on_c, 8, 88, 0
1, 21934, Control_c, 8, 0, 0
1, 21934, Control_c, 8, 32, 0
1, 21934, Program_c, 8, 49
1, 21934, Note_on_c, 8, 80, 0
1, 21934, Note_on_c, 8, 80, 0
1, 21937, Note_on_c, 7, 54, 0
1, 21937, Note_on_c, 6, 42, 120
1, 21937, Note_on_c, 7, 56, 100
1, 21937, Control_c, 8, 0, 0
1, 21937, Control_c, 8, 32, 0
1, 21937, Program_c, 8, 48
1, 21937, Note_on_c, 8, 85, 120
1, 21937, Note_on_c, 8, 88, 120
1, 21937, Control_c, 8, 0, 0
1, 21937, Control_c, 8, 32, 0
1, 21937, Program_c, 8, 49
1, 21937, Note_on_c, 8, 80, 120
1, 21937, Note_on_c, 8, 80, 120
1, 21959, Note_on_c, 6, 42, 0
1, 21959, Control_c, 8, 0, 0
1, 21959, Control_c, 8, 32, 0
1, 21959, Program_c, 8, 48
1, 21959, Note_on_c, 8, 85, 0
1, 21959, Note_on_c, 8, 88, 0
1, 21959, Control_c, 8, 0, 0
1, 21959, Control_c, 8, 32, 0
1, 21959, Program_c, 8, 49
1, 21959, Note_on_c, 8, 80, 0
1, 21959, Note_on_c, 8, 80, 0
1, 21962, Note_on_c, 7, 56, 0
1, 21962, Note_on_c, 6, 42, 120
1, 21962, Note_on_c, 7, 58, 100
1, 21962, Control_c, 8, 0, 0
1, 21962, Control_c, 8, 32, 0
1, 21962, Program_c, 8, 48
1, 21962, Note_on_c, 8, 85, 120
1, 21962, Note_on_c, 8, 88, 120
1, 21962, Control_c, 8, 0, 0
1, 21962, Control_c, 8, 32, 0
1, 21962, Program_c, 8, 49
1, 21962, Note_on_c, 8, 80, 120
1, 21962, Note_on_c, 8, 80, 120
1, 21984, Note_on_c, 6, 42, 0
1, 21984, Control_c, 8, 0, 0
1, 21984, Control_c, 8, 32, 0
1, 21984, Program_c, 8, 48
1, 21984, Note_on_c, 8, 85, 0
1, 21984, Note_on_c, 8, 88, 0
1, 21984, Control_c, 8, 0, 0
1, 21984, Control_c, 8, 32, 0
1, 21984, Program_c, 8, 49
1, 21984, Note_on_c, 8, 80, 0
1, 21984, Note_on_c, 8, 80, 0
1, 21987, Note_on_c, 7, 58, 0
1, 21987, Note_on_c, 6, 42, 120
1, 21987, Note_on_c, 7, 59, 100
1, 21987, Control_c, 8, 0, 0
1, 21987, Control_c, 8, 32, 0
1, 21987, Program_c, 8, 48
1, 21987, Note_on_c, 8, 85, 120
1, 21987, Note_on_c, 8, 88, 120
1, 21987, Control_c, 8, 0, 0
1, 21987, Control_c, 8, 32, 0
1, 21987, Program_c, 8, 49
1, 21987, Note_on_c, 8, 80, 120
1, 21987, Note_on_c, 8, 80, 120
1, 22009, Note_on_c, 6, 42, 0
1, 22009, Control_c, 8, 0, 0
1, 22009, Control_c, 8, 32, 0
1, 22009, Program_c, 8, 48
1, 22009, Note_on_c, 8, 85, 0
1, 22009, Note_on_c, 8, 88, 0
1, 22009, Control_c, 8, 0, 0
1, 22009, Control_c, 8, 32, 0
1, 22009, Program_c, 8, 49
1, 22009, Note_on_c, 8, 80, 0
1, 22009, Note_on_c, 8, 80, 0
1, 22012, Note_on_c, 7, 59, 0
1, 22012, Note_on_c, 6, 42, 120
1, 22012, Note_on_c, 7, 61, 100
1, 22012, Control_c, 8, 0, 0
1, 22012, Control_c, 8, 32, 0
1, 22012, Program_c, 8, 48
1, 22012, Note_on_c, 8, 85, 120
1, 22012, Note_on_c, 8, 88, 120
1, 22012, Control_c, 8, 0, 0
1, 22012, Control_c, 8, 32, 0
1, 22012, Program_c, 8, 49
1, 22012, Note_on_c, 8, 80, 120
1, 22012, Note_on_c, 8, 80, 120
1, 22034, Note_on_c, 6, 42, 0
1, 22034, Control_c, 8, 0, 0
1, 22034, Control_c, 8, 32, 0
1, 22034, Program_c, 8, 48
1, 22034, Note_on_c, 8, 85, 0
1, 22034, Note_on_c, 8, 88, 0
1, 22034, Control_c, 8, 0, 0
1, 22034, Control_c, 8, 32, 0
1, 22034, Program_c, 8, 49
1, 22034, Note_on_c, 8, 80, 0
1, 22034, Note_on_c, 8, 80, 0
1, 22037, Note_on_c, 7, 61, 0
1, 22037, Note_on_c, 6, 42, 120
1, 22037, Note_on_c, 7, 63, 100
1, 22037, Control_c, 8, 0, 0
1, 22037, Control_c, 8, 32, 0
1, 22037, Program_c, 8, 48
1, 22037, Note_on_c, 8, 85, 120
1, 22037, Note_on_c, 8, 88, 120
1, 22037, Control_c, 8, 0, 0
1, 22037, Control_c, 8, 32, 0
1, 22037, Program_c, 8, 49
1, 22037, Note_on_c, 8, 80, 120
1, 22037, Note_on_c, 8, 80, 120
1, 22059, Note_on_c, 6, 42, 0
1, 22059, Control_c, 8, 0, 0
1, 22059, Control_c, 8, 32, 0
1, 22059, Program_c, 8, 48
1, 22059, Note_on_c, 8, 85, 0
1, 22059, Note_on_c, 8, 88, 0
1, 22059, Control_c, 8, 0, 0
1, 22059, Control_c, 8, 32, 0
1, 22059, Program_c, 8, 49
1, 22059, Note_on_c, 8, 80, 0
1, 22059, Note_on_c, 8, 80, 0
1, 22062, Note_on_c, 7, 63, 0
1, 22062, Note_on_c, 6, 42, 120
1, 22062, Note_on_c, 7, 64, 100
1, 22062, Control_c, 8, 0, 0
1, 22062, Control_c, 8, 32, 0
1, 22062, Program_c, 8, 48
1, 22062, Note_on_c, 8, 85, 120
1, 22062, Note_on_c, 8, 88, 120
1, 22062, Control_c, 8, 0, 0
1, 22062, Control_c, 8, 32, 0
1, 22062, Program_c, 8, 49
1, 22062, Note_on_c, 8, 80, 120
1, 22062, Note_on_c, 8, 80, 120
1, 22084, Note_on_c, 6, 42, 0
1, 22084, Control_c, 8, 0, 0
1, 22084, Control_c, 8, 32, 0
1, 22084, Program_c, 8, 48
1, 22084, Note_on_c, 8, 85, 0
1, 22084, Note_on_c, 8, 88, 0
1, 22084, Control_c, 8, 0, 0
1, 22084, Control_c, 8, 32, 0
1, 22084, Program_c, 8, 49
1, 22084, Note_on_c, 8, 80, 0
1, 22084, Note_on_c, 8, 80, 0
1, 22087, Note_on_c, 7, 64, 0
1, 22087, Note_on_c, 6, 42, 120
1, 22087, Note_on_c, 7, 66, 100
1, 22087, Control_c, 8, 0, 0
1, 22087, Control_c, 8, 32, 0
1, 22087, Program_c, 8, 48
1, 22087, Note_on_c, 8, 85, 120
1, 22087, Note_on_c, 8, 88, 120
1, 22087, Control_c, 8, 0, 0
1, 22087, Control_c, 8, 32, 0
1, 22087, Program_c, 8, 49
1, 22087, Note_on_c, 8, 80, 120
1, 22087, Note_on_c, 8, 80, 120
1, 22109, Note_on_c, 6, 42, 0
1, 22109, Control_c, 8, 0, 0
1, 22109, Control_c, 8, 32, 0
1, 22109, Program_c, 8, 48
1, 22109, Note_on_c, 8, 85, 0
1, 22109, Note_on_c, 8, 88, 0
1, 22109, Control_c, 8, 0, 0
1, 22109, Control_c, 8, 32, 0
1, 22109, Program_c, 8, 49
1, 22109, Note_on_c, 8, 80, 0
1, 22109, Note_on_c, 8, 80, 0
1, 22112, Note_on_c, 7, 66, 0
1, 22112, Note_on_c, 6, 42, 120
1, 22112, Note_on_c, 7, 68, 100
1, 22112, Control_c, 8, 0, 0
1, 22112, Control_c, 8, 32, 0
1, 22112, Program_c, 8, 48
1, 22112, Note_on_c, 8, 85, 120
1, 22112, Note_on_c, 8, 88, 120
1, 22112, Control_c, 8, 0, 0
1, 22112, Control_c, 8, 32, 0
1, 22112, Program_c, 8, 49
1, 22112, Note_on_c, 8, 80, 120
1, 22112, Note_on_c, 8, 80, 120
1, 22131, Note_on_c, 4, 64, 0
1, 22131, Note_on_c, 4, 64, 0
1, 22131, Note_on_c, 5, 61, 0
1, 22131, Note_on_c, 5, 58, 0
1, 22131, Note_on_c, 5, 52, 0
1, 22134, Note_on_c, 6, 42, 0
1, 22134, Control_c, 8, 0, 0
1, 22134, Control_c, 8, 32, 0
1, 22134, Program_c, 8, 48
1, 22134, Note_on_c, 8, 85, 0
1, 22134, Note_on_c, 8, 88, 0
1, 22134, Control_c, 8, 0, 0
1, 22134, Control_c, 8, 32, 0
1, 22134, Program_c, 8, 49
1, 22134, Note_on_c, 8, 80, 0
1, 22134, Note_on_c, 8, 80, 0
1, 22137, Note_on_c, 7, 68, 0
1, 22137, Note_on_c, 6, 42, 120
1, 22137, Note_on_c, 7, 70, 100
1, 22137, Control_c, 8, 0, 0
1, 22137, Control_c, 8, 32, 0
1, 22137, Program_c, 8, 48
1, 22137, Note_on_c, 8, 85, 120
1, 22137, Note_on_c, 8, 88, 120
1, 22137, Control_c, 8, 0, 0
1, 22137, Control_c, 8, 32, 0
1, 22137, Program_c, 8, 49
1, 22137, Note_on_c, 8, 80, 120
1, 22137, Note_on_c, 8, 80, 120
1, 22159, Note_on_c, 6, 42, 0
1, 22159, Control_c, 8, 0, 0
1, 22159, Control_c, 8, 32, 0
1, 22159, Program_c, 8, 48
1, 22159, Note_on_c, 8, 85, 0
1, 22159, Note_on_c, 8, 88, 0
1, 22159, Control_c, 8, 0, 0
1, 22159, Control_c, 8, 32, 0
1, 22159, Program_c, 8, 49
1, 22159, Note_on_c, 8, 80, 0
1, 22159, Note_on_c, 8, 80, 0
1, 22162, Note_on_c, 7, 70, 0
1, 22162, Note_on_c, 6, 42, 120
1, 22162, Note_on_c, 7, 71, 100
1, 22162, Control_c, 8, 0, 0
1, 22162, Control_c, 8, 32, 0
1, 22162, Program_c, 8, 48
1, 22162, Note_on_c, 8, 85, 120
1, 22162, Note_on_c, 8, 88, 120
1, 22162, Control_c, 8, 0, 0
1, 22162, Control_c, 8, 32, 0
1, 22162, Program_c, 8, 49
1, 22162, Note_on_c, 8, 80, 120
1, 22162, Note_on_c, 8, 80, 120
1, 22184, Note_on_c, 6, 42, 0
1, 22184, Control_c, 8, 0, 0
1, 22184, Control_c, 8, 32, 0
1, 22184, Program_c, 8, 48
1, 22184, Note_on_c, 8, 85, 0
1, 22184, Note_on_c, 8, 88, 0
1, 22184, Control_c, 8, 0, 0
1, 22184, Control_c, 8, 32, 0
1, 22184, Program_c, 8, 49
1, 22184, Note_on_c, 8, 80, 0
1, 22184, Note_on_c, 8, 80, 0
1, 22187, Note_on_c, 7, 71, 0
1, 22187, Note_on_c, 4, 66, 120
1, 22187, Note_on_c, 4, 66, 120
1, 22187, Note_on_c, 5, 63, 120
1, 22187, Note_on_c, 5, 59, 120
1, 22187, Note_on_c, 5, 54, 120
1, 22187, Note_on_c, 6, 42, 120
1, 22187, Note_on_c, 7, 54, 100
1, 22187, Control_c, 8, 0, 0
1, 22187, Control_c, 8, 32, 0
1, 22187, Program_c, 8, 48
1, 22187, Note_on_c, 8, 85, 120
1, 22187, Note_on_c, 8, 88, 120
1, 22187, Control_c, 8, 0, 0
1, 22187, Control_c, 8, 32, 0
1, 22187, Program_c, 8, 49
1, 22187, Note_on_c, 8, 80, 120
1, 22187, Note_on_c, 8, 80, 120
1, 22210, Note_on_c, 6, 42, 0
1, 22210, Control_c, 8, 0, 0
1, 22210, Control_c, 8, 32, 0
1, 22210, Program_c, 8, 48
1, 22210, Note_on_c, 8, 85, 0
1, 22210, Note_on_c, 8, 88, 0
1, 22210, Control_c, 8, 0, 0
1, 22210, Control_c, 8, 32, 0
1, 22210, Program_c, 8, 49
1, 22210, Note_on_c, 8, 80, 0
1, 22210, Note_on_c, 8, 80, 0
1, 22213, Note_on_c, 7, 54, 0
1, 22213, Note_on_c, 6, 42, 120
1, 22213, Note_on_c, 7, 56, 100
1, 22213, Control_c, 8, 0, 0
1, 22213, Control_c, 8, 32, 0
1, 22213, Program_c, 8, 48
1, 22213, Note_on_c, 8, 85, 120
1, 22213, Note_on_c, 8, 88, 120
1, 22213, Control_c, 8, 0, 0
1, 22213, Control_c, 8, 32, 0
1, 22213, Program_c, 8, 49
1, 22213, Note_on_c, 8, 80, 120
1, 22213, Note_on_c, 8, 80, 120
1, 22236, Note_on_c, 6, 42, 0
1, 22236, Control_c, 8, 0, 0
1, 22236, Control_c, 8, 32, 0
1, 22236, Program_c, 8, 48
1, 22236, Note_on_c, 8, 85, 0
1, 22236, Note_on_c, 8, 88, 0
1, 22236, Control_c, 8, 0, 0
1, 22236, Control_c, 8, 32, 0
1, 22236, Program_c, 8, 49
1, 22236, Note_on_c, 8, 80, 0
1, 22236, Note_on_c, 8, 80, 0
1, 22239, Note_on_c, 7, 56, 0
1, 22239, Note_on_c, 6, 42, 120
1, 22239, Note_on_c, 7, 58, 100
1, 22239, Control_c, 8, 0, 0
1, 22239, Control_c, 8, 32, 0
1, 22239, Program_c, 8, 48
1, 22239, Note_on_c, 8, 85, 120
1, 22239, Note_on_c, 8, 88, 120
1, 22239, Control_c, 8, 0, 0
1, 22239, Control_c, 8, 32, 0
1, 22239, Program_c, 8, 49
1, 22239, Note_on_c, 8, 80, 120
1, 22239, Note_on_c, 8, 80, 120
1, 22262, Note_on_c, 6, 42, 0
1, 22262, Control_c, 8, 0, 0
1, 22262, Control_c, 8, 32, 0
1, 22262, Program_c, 8, 48
1, 22262, Note_on_c, 8, 85, 0
1, 22262, Note_on_c, 8, 88, 0
1, 22262, Control_c, 8, 0, 0
1, 22262, Control_c, 8, 32, 0
1, 22262, Program_c, 8, 49
1, 22262, Note_on_c, 8, 80, 0
1, 22262, Note_on_c, 8, 80, 0
1, 22265, Note_on_c, 7, 58, 0
1, 22265, Note_on_c, 6, 42, 120
1, 22265, Note_on_c, 7, 59, 100
1, 22265, Control_c, 8, 0, 0
1, 22265, Control_c, 8, 32, 0
1, 22265, Program_c, 8, 48
1, 22265, Note_on_c, 8, 85, 120
1, 22265, Note_on_c, 8, 88, 120
1, 22265, Control_c, 8, 0, 0
1, 22265, Control_c, 8, 32, 0
1, 22265, Program_c, 8, 49
1, 22265, Note_on_c, 8, 80, 120
1, 22265, Note_on_c, 8, 80, 120
1, 22288, Note_on_c, 6, 42, 0
1, 22288, Control_c, 8, 0, 0
1, 22288, Control_c, 8, 32, 0
1, 22288, Program_c, 8, 48
1, 22288, Note_on_c, 8, 85, 0
1, 22288, Note_on_c, 8, 88, 0
1, 22288, Control_c, 8, 0, 0
1, 22288, Control_c, 8, 32, 0
1, 22288, Program_c, 8, 49
1, 22288, Note_on_c, 8, 80, 0
1, 22288, Note_on_c, 8, 80, 0
1, 22291, Note_on_c, 7, 59, 0
1, 22291, Note_on_c, 6, 42, 120
1, 22291, Note_on_c, 7, 61, 100
1, 22291, Control_c, 8, 0, 0
1, 22291, Control_c, 8, 32, 0
1, 22291, Program_c, 8, 48
1, 22291, Note_on_c, 8, 85, 120
1, 22291, Note_on_c, 8, 88, 120
1, 22291, Control_c, 8, 0, 0
1, 22291, Control_c, 8, 32, 0
1, 22291, Program_c, 8, 49
1, 22291, Note_on_c, 8, 80, 120
1, 22291, Note_on_c, 8, 80, 120
1, 22311, Note_on_c, 4, 73, 0
1, 22311, Note_on_c, 4, 73, 0
1, 22311, Note_on_c, 5, 76, 0
1, 22311, Note_on_c, 5, 68, 0
1, 22311, Note_on_c, 8, 88, 0
1, 22311, Note_on_c, 8, 85, 0
1, 22311, Note_on_c, 8, 80, 0
1, 22311, Note_on_c, 8, 71, 0
1, 22311, Note_on_c, 8, 71, 0
1, 22314, Note_on_c, 6, 42, 0
1, 22314, Control_c, 8, 0, 0
1, 22314, Control_c, 8, 32, 0
1, 22314, Program_c, 8, 48
1, 22314, Note_on_c, 8, 85, 0
1, 22314, Note_on_c, 8, 88, 0
1, 22314, Control_c, 8, 0, 0
1, 22314, Control_c, 8, 32, 0
1, 22314, Program_c, 8, 49
1, 22314, Note_on_c, 8, 80, 0
1, 22314, Note_on_c, 8, 80, 0
1, 22318, Note_on_c, 7, 61, 0
1, 22318, Note_on_c, 6, 42, 120
1, 22318, Note_on_c, 7, 63, 100
1, 22318, Control_c, 8, 0, 0
1, 22318, Control_c, 8, 32, 0
1, 22318, Program_c, 8, 48
1, 22318, Note_on_c, 8, 85, 120
1, 22318, Note_on_c, 8, 88, 120
1, 22318, Control_c, 8, 0, 0
1, 22318, Control_c, 8, 32, 0
1, 22318, Program_c, 8, 49
1, 22318, Note_on_c, 8, 80, 120
1, 22318, Note_on_c, 8, 80, 120
1, 22340, Note_on_c, 6, 42, 0
1, 22340, Control_c, 8, 0, 0
1, 22340, Control_c, 8, 32, 0
1, 22340, Program_c, 8, 48
1, 22340, Note_on_c, 8, 85, 0
1, 22340, Note_on_c, 8, 88, 0
1, 22340, Control_c, 8, 0, 0
1, 22340, Control_c, 8, 32, 0
1, 22340, Program_c, 8, 49
1, 22340, Note_on_c, 8, 80, 0
1, 22340, Note_on_c, 8, 80, 0
1, 22344, Note_on_c, 7, 63, 0
1, 22344, Note_on_c, 0, 87, 120
1, 22344, Note_on_c, 0, 99, 120
1, 22344, Note_on_c, 1, 83, 120
1, 22344, Note_on_c, 1, 75, 120
1, 22344, Note_on_c, 2, 87, 120
1, 22344, Note_on_c, 2, 78, 120
1, 22344, Note_on_c, 3, 63, 120
1, 22344, Note_on_c, 4, 71, 120
1, 22344, Note_on_c, 4, 71, 120
1, 22344, Note_on_c, 5, 75, 120
1, 22344, Note_on_c, 5, 66, 120
1, 22344, Note_on_c, 6, 42, 120
1, 22344, Note_on_c, 7, 64, 100
1, 22344, Control_c, 8, 0, 0
1, 22344, Control_c, 8, 32, 0
1, 22344, Program_c, 8, 48
1, 22344, Note_on_c, 8, 83, 120
1, 22344, Note_on_c, 8, 87, 120
1, 22344, Control_c, 8, 0, 0
1, 22344, Control_c, 8, 32, 0
1, 22344, Program_c, 8, 49
1, 22344, Note_on_c, 8, 87, 120
1, 22344, Note_on_c, 8, 83, 120
1, 22344, Note_on_c, 8, 78, 120
1, 22344, Note_on_c, 8, 78, 120
1, 22344, Note_on_c, 8, 78, 120
1, 22344, Note_on_c, 8, 70, 120
1, 22344, Note_on_c, 8, 70, 120
1, 22347, Note_on_c, 0, 88, 0
1, 22347, Note_on_c, 0, 100, 0
1, 22347, Note_on_c, 1, 85, 0
1, 22347, Note_on_c, 1, 76, 0
1, 22347, Note_on_c, 2, 80, 0
1, 22347, Note_on_c, 2, 88, 0
1, 22347, Note_on_c, 3, 64, 0
1, 22366, Note_on_c, 6, 42, 0
1, 22366, Control_c, 8, 0, 0
1, 22366, Control_c, 8, 32, 0
1, 22366, Program_c, 8, 48
1, 22366, Note_on_c, 8, 83, 0
1, 22366, Note_on_c, 8, 87, 0
1, 22366, Control_c, 8, 0, 0
1, 22366, Control_c, 8, 32, 0
1, 22366, Program_c, 8, 49
1, 22366, Note_on_c, 8, 78, 0
1, 22366, Note_on_c, 8, 78, 0
1, 22370, Note_on_c, 7, 64, 0
1, 22370, Note_on_c, 6, 42, 120
1, 22370, Note_on_c, 7, 66, 100
1, 22370, Control_c, 8, 0, 0
1, 22370, Control_c, 8, 32, 0
1, 22370, Program_c, 8, 48
1, 22370, Note_on_c, 8, 83, 120
1, 22370, Note_on_c, 8, 87, 120
1, 22370, Control_c, 8, 0, 0
1, 22370, Control_c, 8, 32, 0
1, 22370, Program_c, 8, 49
1, 22370, Note_on_c, 8, 78, 120
1, 22370, Note_on_c, 8, 78, 120
1, 22392, Note_on_c, 6, 42, 0
1, 22392, Control_c, 8, 0, 0
1, 22392, Control_c, 8, 32, 0
1, 22392, Program_c, 8, 48
1, 22392, Note_on_c, 8, 83, 0
1, 22392, Note_on_c, 8, 87, 0
1, 22392, Control_c, 8, 0, 0
1, 22392, Control_c, 8, 32, 0
1, 22392, Program_c, 8, 49
1, 22392, Note_on_c, 8, 78, 0
1, 22392, Note_on_c, 8, 78, 0
1, 22396, Note_on_c, 7, 66, 0
1, 22396, Note_on_c, 6, 42, 120
1, 22396, Note_on_c, 7, 68, 100
1, 22396, Control_c, 8, 0, 0
1, 22396, Control_c, 8, 32, 0
1, 22396, Program_c, 8, 48
1, 22396, Note_on_c, 8, 83, 120
1, 22396, Note_on_c, 8, 87, 120
1, 22396, Control_c, 8, 0, 0
1, 22396, Control_c, 8, 32, 0
1, 22396, Program_c, 8, 49
1, 22396, Note_on_c, 8, 78, 120
1, 22396, Note_on_c, 8, 78, 120
1, 22418, Note_on_c, 6, 42, 0
1, 22418, Control_c, 8, 0, 0
1, 22418, Control_c, 8, 32, 0
1, 22418, Program_c, 8, 48
1, 22418, Note_on_c, 8, 83, 0
1, 22418, Note_on_c, 8, 87, 0
1, 22418, Control_c, 8, 0, 0
1, 22418, Control_c, 8, 32, 0
1, 22418, Program_c, 8, 49
1, 22418, Note_on_c, 8, 78, 0
1, 22418, Note_on_c, 8, 78, 0
1, 22422, Note_on_c, 7, 68, 0
1, 22422, Note_on_c, 6, 42, 120
1, 22422, Note_on_c, 7, 70, 100
1, 22422, Control_c, 8, 0, 0
1, 22422, Control_c, 8, 32, 0
1, 22422, Program_c, 8, 48
1, 22422, Note_on_c, 8, 83, 120
1, 22422, Note_on_c, 8, 87, 120
1, 22422, Control_c, 8, 0, 0
1, 22422, Control_c, 8, 32, 0
1, 22422, Program_c, 8, 49
1, 22422, Note_on_c, 8, 78, 120
1, 22422, Note_on_c, 8, 78, 120
1, 22441, Note_on_c, 4, 66, 0
1, 22441, Note_on_c, 4, 66, 0
1, 22441, Note_on_c, 5, 63, 0
1, 22441, Note_on_c, 5, 59, 0
1, 22441, Note_on_c, 5, 54, 0
1, 22445, Note_on_c, 6, 42, 0
1, 22445, Control_c, 8, 0, 0
1, 22445, Control_c, 8, 32, 0
1, 22445, Program_c, 8, 48
1, 22445, Note_on_c, 8, 83, 0
1, 22445, Note_on_c, 8, 87, 0
1, 22445, Control_c, 8, 0, 0
1, 22445, Control_c, 8, 32, 0
1, 22445, Program_c, 8, 49
1, 22445, Note_on_c, 8, 78, 0
1, 22445, Note_on_c, 8, 78, 0
1, 22448, Note_on_c, 7, 70, 0
1, 22448, Note_on_c, 6, 42, 120
1, 22448, Note_on_c, 7, 71, 100
1, 22448, Control_c, 8, 0, 0
1, 22448, Control_c, 8, 32, 0
1, 22448, Program_c, 8, 48
1, 22448, Note_on_c, 8, 83, 120
1, 22448, Note_on_c, 8, 87, 120
1, 22448, Control_c, 8, 0, 0
1, 22448, Control_c, 8, 32, 0
1, 22448, Program_c, 8, 49
1, 22448, Note_on_c, 8, 78, 120
1, 22448, Note_on_c, 8, 78, 120
1, 22468, Note_on_c, 4, 71, 0
1, 22468, Note_on_c, 4, 71, 0
1, 22468, Note_on_c, 5, 75, 0
1, 22468, Note_on_c, 5, 66, 0
1, 22468, Note_on_c, 8, 87, 0
1, 22468, Note_on_c, 8, 83, 0
1, 22468, Note_on_c, 8, 78, 0
1, 22468, Note_on_c, 8, 70, 0
1, 22468, Note_on_c, 8, 70, 0
1, 22471, Note_on_c, 6, 42, 0
1, 22471, Control_c, 8, 0, 0
1, 22471, Control_c, 8, 32, 0
1, 22471, Program_c, 8, 48
1, 22471, Note_on_c, 8, 83, 0
1, 22471, Note_on_c, 8, 87, 0
1, 22471, Control_c, 8, 0, 0
1, 22471, Control_c, 8, 32, 0
1, 22471, Program_c, 8, 49
1, 22471, Note_on_c, 8, 78, 0
1, 22471, Note_on_c, 8, 78, 0
1, 22474, Note_on_c, 7, 71, 0
1, 22474, Note_on_c, 6, 42, 120
1, 22474, Note_on_c, 7, 73, 100
1, 22474, Control_c, 8, 0, 0
1, 22474, Control_c, 8, 32, 0
1, 22474, Program_c, 8, 48
1, 22474, Note_on_c, 8, 83, 120
1, 22474, Note_on_c, 8, 87, 120
1, 22474, Control_c, 8, 0, 0
1, 22474, Control_c, 8, 32, 0
1, 22474, Program_c, 8, 49
1, 22474, Note_on_c, 8, 78, 120
1, 22474, Note_on_c, 8, 78, 120
1, 22497, Note_on_c, 6, 42, 0
1, 22497, Control_c, 8, 0, 0
1, 22497, Control_c, 8, 32, 0
1, 22497, Program_c, 8, 48
1, 22497, Note_on_c, 8, 83, 0
1, 22497, Note_on_c, 8, 87, 0
1, 22497, Control_c, 8, 0, 0
1, 22497, Control_c, 8, 32, 0
1, 22497, Program_c, 8, 49
1, 22497, Note_on_c, 8, 78, 0
1, 22497, Note_on_c, 8, 78, 0
1, 22500, Note_on_c, 7, 73, 0
1, 22500, Note_on_c, 0, 85, 120
1, 22500, Note_on_c, 0, 97, 120
1, 22500, Note_on_c, 1, 82, 120
1, 22500, Note_on_c, 1, 73, 120
1, 22500, Note_on_c, 2, 85, 120
1, 22500, Note_on_c, 2, 76, 120
1, 22500, Note_on_c, 3, 61, 120
1, 22500, Note_on_c, 4, 70, 120
1, 22500, Note_on_c, 4, 70, 120
1, 22500, Note_on_c, 4, 68, 120
1, 22500, Note_on_c, 4, 68, 120
1, 22500, Note_on_c, 5, 73, 120
1, 22500, Note_on_c, 5, 64, 120
1, 22500, Note_on_c, 5, 64, 120
1, 22500, Note_on_c, 5, 61, 120
1, 22500, Note_on_c, 5, 56, 120
1, 22500, Note_on_c, 6, 42, 120
1, 22500, Note_on_c, 7, 56, 100
1, 22500, Control_c, 8, 0, 0
1, 22500, Control_c, 8, 32, 0
1, 22500, Program_c, 8, 48
1, 22500, Note_on_c, 8, 82, 120
1, 22500, Note_on_c, 8, 85, 120
1, 22500, Control_c, 8, 0, 0
1, 22500, Control_c, 8, 32, 0
1, 22500, Program_c, 8, 49
1, 22500, Note_on_c, 8, 85, 120
1, 22500, Note_on_c, 8, 82, 120
1, 22500, Note_on_c, 8, 76, 120
1, 22500, Note_on_c, 8, 76, 120
1, 22500, Note_on_c, 8, 76, 120
1, 22500, Note_on_c, 8, 68, 120
1, 22500, Note_on_c, 8, 68, 120
1, 22504, Note_on_c, 0, 87, 0
1, 22504, Note_on_c, 0, 99, 0
1, 22504, Note_on_c, 1, 83, 0
1, 22504, Note_on_c, 1, 75, 0
1, 22504, Note_on_c, 2, 87, 0
1, 22504, Note_on_c, 2, 78, 0
1, 22504, Note_on_c, 3, 63, 0
1, 22524, Note_on_c, 6, 42, 0
1, 22524, Control_c, 8, 0, 0
1, 22524, Control_c, 8, 32, 0
1, 22524, Program_c, 8, 48
1, 22524, Note_on_c, 8, 82, 0
1, 22524, Note_on_c, 8, 85, 0
1, 22524, Control_c, 8, 0, 0
1, 22524, Control_c, 8, 32, 0
1, 22524, Program_c, 8, 49
1, 22524, Note_on_c, 8, 76, 0
1, 22524, Note_on_c, 8, 76, 0
1, 22527, Note_on_c, 7, 56, 0
1, 22527, Note_on_c, 6, 42, 120
1, 22527, Note_on_c, 7, 58, 100
1, 22527, Control_c, 8, 0, 0
1, 22527, Control_c, 8, 32, 0
1, 22527, Program_c, 8, 48
1, 22527, Note_on_c, 8, 82, 120
1, 22527, Note_on_c, 8, 85, 120
1, 22527, Control_c, 8, 0, 0
1, 22527, Control_c, 8, 32, 0
1, 22527, Program_c, 8, 49
1, 22527, Note_on_c, 8, 76, 120
1, 22527, Note_on_c, 8, 76, 120
1, 22551, Note_on_c, 6, 42, 0
1, 22551, Control_c, 8, 0, 0
1, 22551, Control_c, 8, 32, 0
1, 22551, Program_c, 8, 48
1, 22551, Note_on_c, 8, 82, 0
1, 22551, Note_on_c, 8, 85, 0
1, 22551, Control_c, 8, 0, 0
1, 22551, Control_c, 8, 32, 0
1, 22551, Program_c, 8, 49
1, 22551, Note_on_c, 8, 76, 0
1, 22551, Note_on_c, 8, 76, 0
1, 22555, Note_on_c, 7, 58, 0
1, 22555, Note_on_c, 6, 42, 120
1, 22555, Note_on_c, 7, 59, 100
1, 22555, Control_c, 8, 0, 0
1, 22555, Control_c, 8, 32, 0
1, 22555, Program_c, 8, 48
1, 22555, Note_on_c, 8, 82, 120
1, 22555, Note_on_c, 8, 85, 120
1, 22555, Control_c, 8, 0, 0
1, 22555, Control_c, 8, 32, 0
1, 22555, Program_c, 8, 49
1, 22555, Note_on_c, 8, 76, 120
1, 22555, Note_on_c, 8, 76, 120
1, 22578, Note_on_c, 6, 42, 0
1, 22578, Control_c, 8, 0, 0
1, 22578, Control_c, 8, 32, 0
1, 22578, Program_c, 8, 48
1, 22578, Note_on_c, 8, 82, 0
1, 22578, Note_on_c, 8, 85, 0
1, 22578, Control_c, 8, 0, 0
1, 22578, Control_c, 8, 32, 0
1, 22578, Program_c, 8, 49
1, 22578, Note_on_c, 8, 76, 0
1, 22578, Note_on_c, 8, 76, 0
1, 22582, Note_on_c, 7, 59, 0
1, 22582, Note_on_c, 6, 42, 120
1, 22582, Note_on_c, 7, 61, 100
1, 22582, Control_c, 8, 0, 0
1, 22582, Control_c, 8, 32, 0
1, 22582, Program_c, 8, 48
1, 22582, Note_on_c, 8, 82, 120
1, 22582, Note_on_c, 8, 85, 120
1, 22582, Control_c, 8, 0, 0
1, 22582, Control_c, 8, 32, 0
1, 22582, Program_c, 8, 49
1, 22582, Note_on_c, 8, 76, 120
1, 22582, Note_on_c, 8, 76, 120
1, 22606, Note_on_c, 6, 42, 0
1, 22606, Control_c, 8, 0, 0
1, 22606, Control_c, 8, 32, 0
1, 22606, Program_c, 8, 48
1, 22606, Note_on_c, 8, 82, 0
1, 22606, Note_on_c, 8, 85, 0
1, 22606, Control_c, 8, 0, 0
1, 22606, Control_c, 8, 32, 0
1, 22606, Program_c, 8, 49
1, 22606, Note_on_c, 8, 76, 0
1, 22606, Note_on_c, 8, 76, 0
1, 22609, Note_on_c, 7, 61, 0
1, 22609, Note_on_c, 6, 42, 120
1, 22609, Note_on_c, 7, 63, 100
1, 22609, Control_c, 8, 0, 0
1, 22609, Control_c, 8, 32, 0
1, 22609, Program_c, 8, 48
1, 22609, Note_on_c, 8, 82, 120
1, 22609, Note_on_c, 8, 85, 120
1, 22609, Control_c, 8, 0, 0
1, 22609, Control_c, 8, 32, 0
1, 22609, Program_c, 8, 49
1, 22609, Note_on_c, 8, 76, 120
1, 22609, Note_on_c, 8, 76, 120
1, 22630, Note_on_c, 4, 70, 0
1, 22630, Note_on_c, 4, 70, 0
1, 22630, Note_on_c, 5, 73, 0
1, 22630, Note_on_c, 5, 64, 0
1, 22630, Note_on_c, 8, 85, 0
1, 22630, Note_on_c, 8, 82, 0
1, 22630, Note_on_c, 8, 76, 0
1, 22630, Note_on_c, 8, 68, 0
1, 22630, Note_on_c, 8, 68, 0
1, 22633, Note_on_c, 6, 42, 0
1, 22633, Control_c, 8, 0, 0
1, 22633, Control_c, 8, 32, 0
1, 22633, Program_c, 8, 48
1, 22633, Note_on_c, 8, 82, 0
1, 22633, Note_on_c, 8, 85, 0
1, 22633, Control_c, 8, 0, 0
1, 22633, Control_c, 8, 32, 0
1, 22633, Program_c, 8, 49
1, 22633, Note_on_c, 8, 76, 0
1, 22633, Note_on_c, 8, 76, 0
1, 22636, Note_on_c, 7, 63, 0
1, 22636, Note_on_c, 6, 42, 120
1, 22636, Note_on_c, 7, 64, 100
1, 22636, Control_c, 8, 0, 0
1, 22636, Control_c, 8, 32, 0
1, 22636, Program_c, 8, 48
1, 22636, Note_on_c, 8, 82, 120
1, 22636, Note_on_c, 8, 85, 120
1, 22636, Control_c, 8, 0, 0
1, 22636, Control_c, 8, 32, 0
1, 22636, Program_c, 8, 49
1, 22636, Note_on_c, 8, 76, 120
1, 22636, Note_on_c, 8, 76, 120
1, 22660, Note_on_c, 6, 42, 0
1, 22660, Control_c, 8, 0, 0
1, 22660, Control_c, 8, 32, 0
1, 22660, Program_c, 8, 48
1, 22660, Note_on_c, 8, 82, 0
1, 22660, Note_on_c, 8, 85, 0
1, 22660, Control_c, 8, 0, 0
1, 22660, Control_c, 8, 32, 0
1, 22660, Program_c, 8, 49
1, 22660, Note_on_c, 8, 76, 0
1, 22660, Note_on_c, 8, 76, 0
1, 22664, Note_on_c, 7, 64, 0
1, 22664, Note_on_c, 0, 88, 120
1, 22664, Note_on_c, 0, 100, 120
1, 22664, Note_on_c, 1, 85, 120
1, 22664, Note_on_c, 1, 76, 120
1, 22664, Note_on_c, 2, 88, 120
1, 22664, Note_on_c, 2, 80, 120
1, 22664, Note_on_c, 3, 64, 120
1, 22664, Note_on_c, 4, 73, 120
1, 22664, Note_on_c, 4, 73, 120
1, 22664, Note_on_c, 5, 76, 120
1, 22664, Note_on_c, 5, 68, 120
1, 22664, Note_on_c, 6, 42, 120
1, 22664, Note_on_c, 7, 66, 100
1, 22664, Control_c, 8, 0, 0
1, 22664, Control_c, 8, 32, 0
1, 22664, Program_c, 8, 48
1, 22664, Note_on_c, 8, 85, 120
1, 22664, Note_on_c, 8, 88, 120
1, 22664, Control_c, 8, 0, 0
1, 22664, Control_c, 8, 32, 0
1, 22664, Program_c, 8, 49
1, 22664, Note_on_c, 8, 88, 120
1, 22664, Note_on_c, 8, 85, 120
1, 22664, Note_on_c, 8, 80, 120
1, 22664, Note_on_c, 8, 80, 120
1, 22664, Note_on_c, 8, 80, 120
1, 22664, Note_on_c, 8, 71, 120
1, 22664, Note_on_c, 8, 71, 120
1, 22667, Note_on_c, 0, 85, 0
1, 22667, Note_on_c, 0, 97, 0
1, 22667, Note_on_c, 1, 82, 0
1, 22667, Note_on_c, 1, 73, 0
1, 22667, Note_on_c, 2, 85, 0
1, 22667, Note_on_c, 2, 76, 0
1, 22667, Note_on_c, 3, 61, 0
1, 22688, Note_on_c, 6, 42, 0
1, 22688, Control_c, 8, 0, 0
1, 22688, Control_c, 8, 32, 0
1, 22688, Program_c, 8, 48
1, 22688, Note_on_c, 8, 85, 0
1, 22688, Note_on_c, 8, 88, 0
1, 22688, Control_c, 8, 0, 0
1, 22688, Control_c, 8, 32, 0
1, 22688, Program_c, 8, 49
1, 22688, Note_on_c, 8, 80, 0
1, 22688, Note_on_c, 8, 80, 0
1, 22691, Note_on_c, 7, 66, 0
1, 22691, Note_on_c, 6, 42, 120
1, 22691, Note_on_c, 7, 68, 100
1, 22691, Control_c, 8, 0, 0
1, 22691, Control_c, 8, 32, 0
1, 22691, Program_c, 8, 48
1, 22691, Note_on_c, 8, 85, 120
1, 22691, Note_on_c, 8, 88, 120
1, 22691, Control_c, 8, 0, 0
1, 22691, Control_c, 8, 32, 0
1, 22691, Program_c, 8, 49
1, 22691, Note_on_c, 8, 80, 120
1, 22691, Note_on_c, 8, 80, 120
1, 22715, Note_on_c, 6, 42, 0
1, 22715, Control_c, 8, 0, 0
1, 22715, Control_c, 8, 32, 0
1, 22715, Program_c, 8, 48
1, 22715, Note_on_c, 8, 85, 0
1, 22715, Note_on_c, 8, 88, 0
1, 22715, Control_c, 8, 0, 0
1, 22715, Control_c, 8, 32, 0
1, 22715, Program_c, 8, 49
1, 22715, Note_on_c, 8, 80, 0
1, 22715, Note_on_c, 8, 80, 0
1, 22718, Note_on_c, 7, 68, 0
1, 22718, Note_on_c, 6, 42, 120
1, 22718, Note_on_c, 7, 70, 100
1, 22718, Control_c, 8, 0, 0
1, 22718, Control_c, 8, 32, 0
1, 22718, Program_c, 8, 48
1, 22718, Note_on_c, 8, 85, 120
1, 22718, Note_on_c, 8, 88, 120
1, 22718, Control_c, 8, 0, 0
1, 22718, Control_c, 8, 32, 0
1, 22718, Program_c, 8, 49
1, 22718, Note_on_c, 8, 80, 120
1, 22718, Note_on_c, 8, 80, 120
1, 22742, Note_on_c, 6, 42, 0
1, 22742, Control_c, 8, 0, 0
1, 22742, Control_c, 8, 32, 0
1, 22742, Program_c, 8, 48
1, 22742, Note_on_c, 8, 85, 0
1, 22742, Note_on_c, 8, 88, 0
1, 22742, Control_c, 8, 0, 0
1, 22742, Control_c, 8, 32, 0
1, 22742, Program_c, 8, 49
1, 22742, Note_on_c, 8, 80, 0
1, 22742, Note_on_c, 8, 80, 0
1, 22746, Note_on_c, 7, 70, 0
1, 22746, Note_on_c, 6, 42, 120
1, 22746, Note_on_c, 7, 71, 100
1, 22746, Control_c, 8, 0, 0
1, 22746, Control_c, 8, 32, 0
1, 22746, Program_c, 8, 48
1, 22746, Note_on_c, 8, 85, 120
1, 22746, Note_on_c, 8, 88, 120
1, 22746, Control_c, 8, 0, 0
1, 22746, Control_c, 8, 32, 0
1, 22746, Program_c, 8, 49
1, 22746, Note_on_c, 8, 80, 120
1, 22746, Note_on_c, 8, 80, 120
1, 22766, Note_on_c, 4, 68, 0
1, 22766, Note_on_c, 4, 68, 0
1, 22766, Note_on_c, 5, 64, 0
1, 22766, Note_on_c, 5, 61, 0
1, 22766, Note_on_c, 5, 56, 0
1, 22770, Note_on_c, 6, 42, 0
1, 22770, Control_c, 8, 0, 0
1, 22770, Control_c, 8, 32, 0
1, 22770, Program_c, 8, 48
1, 22770, Note_on_c, 8, 85, 0
1, 22770, Note_on_c, 8, 88, 0
1, 22770, Control_c, 8, 0, 0
1, 22770, Control_c, 8, 32, 0
1, 22770, Program_c, 8, 49
1, 22770, Note_on_c, 8, 80, 0
1, 22770, Note_on_c, 8, 80, 0
1, 22773, Note_on_c, 7, 71, 0
1, 22773, Note_on_c, 6, 42, 120
1, 22773, Note_on_c, 7, 73, 100
1, 22773, Control_c, 8, 0, 0
1, 22773, Control_c, 8, 32, 0
1, 22773, Program_c, 8, 48
1, 22773, Note_on_c, 8, 85, 120
1, 22773, Note_on_c, 8, 88, 120
1, 22773, Control_c, 8, 0, 0
1, 22773, Control_c, 8, 32, 0
1, 22773, Program_c, 8, 49
1, 22773, Note_on_c, 8, 80, 120
1, 22773, Note_on_c, 8, 80, 120
1, 22793, Note_on_c, 4, 73, 0
1, 22793, Note_on_c, 4, 73, 0
1, 22793, Note_on_c, 5, 76, 0
1, 22793, Note_on_c, 5, 68, 0
1, 22793, Note_on_c, 8, 88, 0
1, 22793, Note_on_c, 8, 85, 0
1, 22793, Note_on_c, 8, 80, 0
1, 22793, Note_on_c, 8, 71, 0
1, 22793, Note_on_c, 8, 71, 0
1, 22797, Note_on_c, 6, 42, 0
1, 22797, Control_c, 8, 0, 0
1, 22797, Control_c, 8, 32, 0
1, 22797, Program_c, 8, 48
1, 22797, Note_on_c, 8, 85, 0
1, 22797, Note_on_c, 8, 88, 0
1, 22797, Control_c, 8, 0, 0
1, 22797, Control_c, 8, 32, 0
1, 22797, Program_c, 8, 49
1, 22797, Note_on_c, 8, 80, 0
1, 22797, Note_on_c, 8, 80, 0
1, 22800, Note_on_c, 7, 73, 0
1, 22800, Note_on_c, 6, 42, 120
1, 22800, Note_on_c, 7, 75, 100
1, 22800, Control_c, 8, 0, 0
1, 22800, Control_c, 8, 32, 0
1, 22800, Program_c, 8, 48
1, 22800, Note_on_c, 8, 85, 120
1, 22800, Note_on_c, 8, 88, 120
1, 22800, Control_c, 8, 0, 0
1, 22800, Control_c, 8, 32, 0
1, 22800, Program_c, 8, 49
1, 22800, Note_on_c, 8, 80, 120
1, 22800, Note_on_c, 8, 80, 120
1, 22824, Note_on_c, 6, 42, 0
1, 22824, Control_c, 8, 0, 0
1, 22824, Control_c, 8, 32, 0
1, 22824, Program_c, 8, 48
1, 22824, Note_on_c, 8, 85, 0
1, 22824, Note_on_c, 8, 88, 0
1, 22824, Control_c, 8, 0, 0
1, 22824, Control_c, 8, 32, 0
1, 22824, Program_c, 8, 49
1, 22824, Note_on_c, 8, 80, 0
1, 22824, Note_on_c, 8, 80, 0
1, 22827, Note_on_c, 0, 88, 0
1, 22827, Note_on_c, 0, 100, 0
1, 22827, Note_on_c, 1, 85, 0
1, 22827, Note_on_c, 1, 76, 0
1, 22827, Note_on_c, 2, 88, 0
1, 22827, Note_on_c, 2, 80, 0
1, 22827, Note_on_c, 3, 64, 0
1, 22827, Note_on_c, 7, 75, 0
1, 22827, Note_on_c, 0, 87, 120
1, 22827, Note_on_c, 0, 99, 120
1, 22827, Note_on_c, 1, 83, 120
1, 22827, Note_on_c, 1, 75, 120
1, 22827, Note_on_c, 2, 87, 120
1, 22827, Note_on_c, 2, 78, 120
1, 22827, Note_on_c, 3, 63, 120
1, 22827, Note_on_c, 4, 71, 120
1, 22827, Note_on_c, 4, 71, 120
1, 22827, Note_on_c, 4, 70, 120
1, 22827, Note_on_c, 4, 70, 120
1, 22827, Note_on_c, 5, 75, 120
1, 22827, Note_on_c, 5, 66, 120
1, 22827, Note_on_c, 5, 66, 120
1, 22827, Note_on_c, 5, 63, 120
1, 22827, Note_on_c, 5, 58, 120
1, 22827, Note_on_c, 6, 42, 120
1, 22827, Note_on_c, 7, 58, 100
1, 22827, Control_c, 8, 0, 0
1, 22827, Control_c, 8, 32, 0
1, 22827, Program_c, 8, 48
1, 22827, Note_on_c, 8, 83, 120
1, 22827, Note_on_c, 8, 87, 120
1, 22827, Control_c, 8, 0, 0
1, 22827, Control_c, 8, 32, 0
1, 22827, Program_c, 8, 49
1, 22827, Note_on_c, 8, 87, 120
1, 22827, Note_on_c, 8, 83, 120
1, 22827, Note_on_c, 8, 78, 120
1, 22827, Note_on_c, 8, 78, 120
1, 22827, Note_on_c, 8, 78, 120
1, 22827, Note_on_c, 8, 70, 120
1, 22827, Note_on_c, 8, 70, 120
1, 22852, Note_on_c, 6, 42, 0
1, 22852, Control_c, 8, 0, 0
1, 22852, Control_c, 8, 32, 0
1, 22852, Program_c, 8, 48
1, 22852, Note_on_c, 8, 83, 0
1, 22852, Note_on_c, 8, 87, 0
1, 22852, Control_c, 8, 0, 0
1, 22852, Control_c, 8, 32, 0
1, 22852, Program_c, 8, 49
1, 22852, Note_on_c, 8, 78, 0
1, 22852, Note_on_c, 8, 78, 0
1, 22856, Note_on_c, 7, 58, 0
1, 22856, Note_on_c, 6, 42, 120
1, 22856, Note_on_c, 7, 59, 100
1, 22856, Control_c, 8, 0, 0
1, 22856, Control_c, 8, 32, 0
1, 22856, Program_c, 8, 48
1, 22856, Note_on_c, 8, 83, 120
1, 22856, Note_on_c, 8, 87, 120
1, 22856, Control_c, 8, 0, 0
1, 22856, Control_c, 8, 32, 0
1, 22856, Program_c, 8, 49
1, 22856, Note_on_c, 8, 78, 120
1, 22856, Note_on_c, 8, 78, 120
1, 22881, Note_on_c, 6, 42, 0
1, 22881, Control_c, 8, 0, 0
1, 22881, Control_c, 8, 32, 0
1, 22881, Program_c, 8, 48
1, 22881, Note_on_c, 8, 83, 0
1, 22881, Note_on_c, 8, 87, 0
1, 22881, Control_c, 8, 0, 0
1, 22881, Control_c, 8, 32, 0
1, 22881, Program_c, 8, 49
1, 22881, Note_on_c, 8, 78, 0
1, 22881, Note_on_c, 8, 78, 0
1, 22884, Note_on_c, 7, 59, 0
1, 22884, Note_on_c, 6, 42, 120
1, 22884, Note_on_c, 7, 61, 100
1, 22884, Control_c, 8, 0, 0
1, 22884, Control_c, 8, 32, 0
1, 22884, Program_c, 8, 48
1, 22884, Note_on_c, 8, 83, 120
1, 22884, Note_on_c, 8, 87, 120
1, 22884, Control_c, 8, 0, 0
1, 22884, Control_c, 8, 32, 0
1, 22884, Program_c, 8, 49
1, 22884, Note_on_c, 8, 78, 120
1, 22884, Note_on_c, 8, 78, 120
1, 22910, Note_on_c, 6, 42, 0
1, 22910, Control_c, 8, 0, 0
1, 22910, Control_c, 8, 32, 0
1, 22910, Program_c, 8, 48
1, 22910, Note_on_c, 8, 83, 0
1, 22910, Note_on_c, 8, 87, 0
1, 22910, Control_c, 8, 0, 0
1, 22910, Control_c, 8, 32, 0
1, 22910, Program_c, 8, 49
1, 22910, Note_on_c, 8, 78, 0
1, 22910, Note_on_c, 8, 78, 0
1, 22913, Note_on_c, 7, 61, 0
1, 22913, Note_on_c, 6, 42, 120
1, 22913, Note_on_c, 7, 63, 100
1, 22913, Control_c, 8, 0, 0
1, 22913, Control_c, 8, 32, 0
1, 22913, Program_c, 8, 48
1, 22913, Note_on_c, 8, 83, 120
1, 22913, Note_on_c, 8, 87, 120
1, 22913, Control_c, 8, 0, 0
1, 22913, Control_c, 8, 32, 0
1, 22913, Program_c, 8, 49
1, 22913, Note_on_c, 8, 78, 120
1, 22913, Note_on_c, 8, 78, 120
1, 22938, Note_on_c, 6, 42, 0
1, 22938, Control_c, 8, 0, 0
1, 22938, Control_c, 8, 32, 0
1, 22938, Program_c, 8, 48
1, 22938, Note_on_c, 8, 83, 0
1, 22938, Note_on_c, 8, 87, 0
1, 22938, Control_c, 8, 0, 0
1, 22938, Control_c, 8, 32, 0
1, 22938, Program_c, 8, 49
1, 22938, Note_on_c, 8, 78, 0
1, 22938, Note_on_c, 8, 78, 0
1, 22942, Note_on_c, 7, 63, 0
1, 22942, Note_on_c, 6, 42, 120
1, 22942, Note_on_c, 7, 64, 100
1, 22942, Control_c, 8, 0, 0
1, 22942, Control_c, 8, 32, 0
1, 22942, Program_c, 8, 48
1, 22942, Note_on_c, 8, 83, 120
1, 22942, Note_on_c, 8, 87, 120
1, 22942, Control_c, 8, 0, 0
1, 22942, Control_c, 8, 32, 0
1, 22942, Program_c, 8, 49
1, 22942, Note_on_c, 8, 78, 120
1, 22942, Note_on_c, 8, 78, 120
1, 22963, Note_on_c, 4, 71, 0
1, 22963, Note_on_c, 4, 71, 0
1, 22963, Note_on_c, 5, 75, 0
1, 22963, Note_on_c, 5, 66, 0
1, 22963, Note_on_c, 8, 87, 0
1, 22963, Note_on_c, 8, 83, 0
1, 22963, Note_on_c, 8, 78, 0
1, 22963, Note_on_c, 8, 70, 0
1, 22963, Note_on_c, 8, 70, 0
1, 22967, Note_on_c, 6, 42, 0
1, 22967, Control_c, 8, 0, 0
1, 22967, Control_c, 8, 32, 0
1, 22967, Program_c, 8, 48
1, 22967, Note_on_c, 8, 83, 0
1, 22967, Note_on_c, 8, 87, 0
1, 22967, Control_c, 8, 0, 0
1, 22967, Control_c, 8, 32, 0
1, 22967, Program_c, 8, 49
1, 22967, Note_on_c, 8, 78, 0
1, 22967, Note_on_c, 8, 78, 0
1, 22970, Note_on_c, 7, 64, 0
1, 22970, Note_on_c, 6, 42, 120
1, 22970, Note_on_c, 7, 66, 100
1, 22970, Control_c, 8, 0, 0
1, 22970, Control_c, 8, 32, 0
1, 22970, Program_c, 8, 48
1, 22970, Note_on_c, 8, 83, 120
1, 22970, Note_on_c, 8, 87, 120
1, 22970, Control_c, 8, 0, 0
1, 22970, Control_c, 8, 32, 0
1, 22970, Program_c, 8, 49
1, 22970, Note_on_c, 8, 78, 120
1, 22970, Note_on_c, 8, 78, 120
1, 22995, Note_on_c, 6, 42, 0
1, 22995, Control_c, 8, 0, 0
1, 22995, Control_c, 8, 32, 0
1, 22995, Program_c, 8, 48
1, 22995, Note_on_c, 8, 83, 0
1, 22995, Note_on_c, 8, 87, 0
1, 22995, Control_c, 8, 0, 0
1, 22995, Control_c, 8, 32, 0
1, 22995, Program_c, 8, 49
1, 22995, Note_on_c, 8, 78, 0
1, 22995, Note_on_c, 8, 78, 0
1, 22999, Note_on_c, 7, 66, 0
1, 22999, Note_on_c, 0, 83, 120
1, 22999, Note_on_c, 0, 95, 120
1, 22999, Note_on_c, 1, 78, 120
1, 22999, Note_on_c, 1, 71, 120
1, 22999, Note_on_c, 2, 75, 120
1, 22999, Note_on_c, 2, 83, 120
1, 22999, Note_on_c, 3, 59, 120
1, 22999, Note_on_c, 4, 66, 120
1, 22999, Note_on_c, 4, 66, 120
1, 22999, Note_on_c, 5, 71, 120
1, 22999, Note_on_c, 5, 63, 120
1, 22999, Note_on_c, 6, 42, 120
1, 22999, Note_on_c, 7, 68, 100
1, 22999, Control_c, 8, 0, 0
1, 22999, Control_c, 8, 32, 0
1, 22999, Program_c, 8, 48
1, 22999, Note_on_c, 8, 78, 120
1, 22999, Note_on_c, 8, 83, 120
1, 22999, Control_c, 8, 0, 0
1, 22999, Control_c, 8, 32, 0
1, 22999, Program_c, 8, 49
1, 22999, Note_on_c, 8, 83, 120
1, 22999, Note_on_c, 8, 78, 120
1, 22999, Note_on_c, 8, 75, 120
1, 22999, Note_on_c, 8, 75, 120
1, 22999, Note_on_c, 8, 75, 120
1, 22999, Note_on_c, 8, 66, 120
1, 22999, Note_on_c, 8, 66, 120
1, 23002, Note_on_c, 0, 87, 0
1, 23002, Note_on_c, 0, 99, 0
1, 23002, Note_on_c, 1, 83, 0
1, 23002, Note_on_c, 1, 75, 0
1, 23002, Note_on_c, 2, 87, 0
1, 23002, Note_on_c, 2, 78, 0
1, 23002, Note_on_c, 3, 63, 0
1, 23024, Note_on_c, 6, 42, 0
1, 23024, Control_c, 8, 0, 0
1, 23024, Control_c, 8, 32, 0
1, 23024, Program_c, 8, 48
1, 23024, Note_on_c, 8, 78, 0
1, 23024, Note_on_c, 8, 83, 0
1, 23024, Control_c, 8, 0, 0
1, 23024, Control_c, 8, 32, 0
1, 23024, Program_c, 8, 49
1, 23024, Note_on_c, 8, 75, 0
1, 23024, Note_on_c, 8, 75, 0
1, 23027, Note_on_c, 7, 68, 0
1, 23027, Note_on_c, 6, 42, 120
1, 23027, Note_on_c, 7, 70, 100
1, 23027, Control_c, 8, 0, 0
1, 23027, Control_c, 8, 32, 0
1, 23027, Program_c, 8, 48
1, 23027, Note_on_c, 8, 78, 120
1, 23027, Note_on_c, 8, 83, 120
1, 23027, Control_c, 8, 0, 0
1, 23027, Control_c, 8, 32, 0
1, 23027, Program_c, 8, 49
1, 23027, Note_on_c, 8, 75, 120
1, 23027, Note_on_c, 8, 75, 120
1, 23052, Note_on_c, 6, 42, 0
1, 23052, Control_c, 8, 0, 0
1, 23052, Control_c, 8, 32, 0
1, 23052, Program_c, 8, 48
1, 23052, Note_on_c, 8, 78, 0
1, 23052, Note_on_c, 8, 83, 0
1, 23052, Control_c, 8, 0, 0
1, 23052, Control_c, 8, 32, 0
1, 23052, Program_c, 8, 49
1, 23052, Note_on_c, 8, 75, 0
1, 23052, Note_on_c, 8, 75, 0
1, 23056, Note_on_c, 7, 70, 0
1, 23056, Note_on_c, 6, 42, 120
1, 23056, Note_on_c, 7, 71, 100
1, 23056, Control_c, 8, 0, 0
1, 23056, Control_c, 8, 32, 0
1, 23056, Program_c, 8, 48
1, 23056, Note_on_c, 8, 78, 120
1, 23056, Note_on_c, 8, 83, 120
1, 23056, Control_c, 8, 0, 0
1, 23056, Control_c, 8, 32, 0
1, 23056, Program_c, 8, 49
1, 23056, Note_on_c, 8, 75, 120
1, 23056, Note_on_c, 8, 75, 120
1, 23081, Note_on_c, 6, 42, 0
1, 23081, Control_c, 8, 0, 0
1, 23081, Control_c, 8, 32, 0
1, 23081, Program_c, 8, 48
1, 23081, Note_on_c, 8, 78, 0
1, 23081, Note_on_c, 8, 83, 0
1, 23081, Control_c, 8, 0, 0
1, 23081, Control_c, 8, 32, 0
1, 23081, Program_c, 8, 49
1, 23081, Note_on_c, 8, 75, 0
1, 23081, Note_on_c, 8, 75, 0
1, 23084, Note_on_c, 7, 71, 0
1, 23084, Note_on_c, 6, 42, 120
1, 23084, Note_on_c, 7, 73, 100
1, 23084, Control_c, 8, 0, 0
1, 23084, Control_c, 8, 32, 0
1, 23084, Program_c, 8, 48
1, 23084, Note_on_c, 8, 78, 120
1, 23084, Note_on_c, 8, 83, 120
1, 23084, Control_c, 8, 0, 0
1, 23084, Control_c, 8, 32, 0
1, 23084, Program_c, 8, 49
1, 23084, Note_on_c, 8, 75, 120
1, 23084, Note_on_c, 8, 75, 120
1, 23106, Note_on_c, 4, 70, 0
1, 23106, Note_on_c, 4, 70, 0
1, 23106, Note_on_c, 5, 66, 0
1, 23106, Note_on_c, 5, 63, 0
1, 23106, Note_on_c, 5, 58, 0
1, 23110, Note_on_c, 6, 42, 0
1, 23110, Control_c, 8, 0, 0
1, 23110, Control_c, 8, 32, 0
1, 23110, Program_c, 8, 48
1, 23110, Note_on_c, 8, 78, 0
1, 23110, Note_on_c, 8, 83, 0
1, 23110, Control_c, 8, 0, 0
1, 23110, Control_c, 8, 32, 0
1, 23110, Program_c, 8, 49
1, 23110, Note_on_c, 8, 75, 0
1, 23110, Note_on_c, 8, 75, 0
1, 23113, Note_on_c, 7, 73, 0
1, 23113, Note_on_c, 6, 42, 120
1, 23113, Note_on_c, 7, 75, 100
1, 23113, Control_c, 8, 0, 0
1, 23113, Control_c, 8, 32, 0
1, 23113, Program_c, 8, 48
1, 23113, Note_on_c, 8, 78, 120
1, 23113, Note_on_c, 8, 83, 120
1, 23113, Control_c, 8, 0, 0
1, 23113, Control_c, 8, 32, 0
1, 23113, Program_c, 8, 49
1, 23113, Note_on_c, 8, 75, 120
1, 23113, Note_on_c, 8, 75, 120
1, 23134, Note_on_c, 4, 66, 0
1, 23134, Note_on_c, 4, 66, 0
1, 23134, Note_on_c, 5, 71, 0
1, 23134, Note_on_c, 5, 63, 0
1, 23134, Note_on_c, 8, 83, 0
1, 23134, Note_on_c, 8, 78, 0
1, 23134, Note_on_c, 8, 75, 0
1, 23134, Note_on_c, 8, 66, 0
1, 23134, Note_on_c, 8, 66, 0
1, 23138, Note_on_c, 6, 42, 0
1, 23138, Control_c, 8, 0, 0
1, 23138, Control_c, 8, 32, 0
1, 23138, Program_c, 8, 48
1, 23138, Note_on_c, 8, 78, 0
1, 23138, Note_on_c, 8, 83, 0
1, 23138, Control_c, 8, 0, 0
1, 23138, Control_c, 8, 32, 0
1, 23138, Program_c, 8, 49
1, 23138, Note_on_c, 8, 75, 0
1, 23138, Note_on_c, 8, 75, 0
1, 23142, Note_on_c, 7, 75, 0
1, 23142, Note_on_c, 6, 42, 120
1, 23142, Note_on_c, 7, 76, 100
1, 23142, Control_c, 8, 0, 0
1, 23142, Control_c, 8, 32, 0
1, 23142, Program_c, 8, 48
1, 23142, Note_on_c, 8, 78, 120
1, 23142, Note_on_c, 8, 83, 120
1, 23142, Control_c, 8, 0, 0
1, 23142, Control_c, 8, 32, 0
1, 23142, Program_c, 8, 49
1, 23142, Note_on_c, 8, 75, 120
1, 23142, Note_on_c, 8, 75, 120
1, 23167, Note_on_c, 6, 42, 0
1, 23167, Control_c, 8, 0, 0
1, 23167, Control_c, 8, 32, 0
1, 23167, Program_c, 8, 48
1, 23167, Note_on_c, 8, 78, 0
1, 23167, Note_on_c, 8, 83, 0
1, 23167, Control_c, 8, 0, 0
1, 23167, Control_c, 8, 32, 0
1, 23167, Program_c, 8, 49
1, 23167, Note_on_c, 8, 75, 0
1, 23167, Note_on_c, 8, 75, 0
1, 23170, Note_on_c, 7, 76, 0
1, 23170, Note_on_c, 0, 85, 120
1, 23170, Note_on_c, 0, 97, 120
1, 23170, Note_on_c, 1, 80, 120
1, 23170, Note_on_c, 1, 73, 120
1, 23170, Note_on_c, 2, 76, 120
1, 23170, Note_on_c, 2, 85, 120
1, 23170, Note_on_c, 3, 61, 120
1, 23170, Note_on_c, 4, 68, 120
1, 23170, Note_on_c, 4, 68, 120
1, 23170, Note_on_c, 4, 71, 120
1, 23170, Note_on_c, 4, 71, 120
1, 23170, Note_on_c, 5, 73, 120
1, 23170, Note_on_c, 5, 64, 120
1, 23170, Note_on_c, 5, 68, 120
1, 23170, Note_on_c, 5, 64, 120
1, 23170, Note_on_c, 5, 59, 120
1, 23170, Note_on_c, 6, 42, 120
1, 23170, Note_on_c, 7, 59, 100
1, 23170, Control_c, 8, 0, 0
1, 23170, Control_c, 8, 32, 0
1, 23170, Program_c, 8, 48
1, 23170, Note_on_c, 8, 80, 120
1, 23170, Note_on_c, 8, 85, 120
1, 23170, Control_c, 8, 0, 0
1, 23170, Control_c, 8, 32, 0
1, 23170, Program_c, 8, 49
1, 23170, Note_on_c, 8, 85, 120
1, 23170, Note_on_c, 8, 80, 120
1, 23170, Note_on_c, 8, 76, 120
1, 23170, Note_on_c, 8, 76, 120
1, 23170, Note_on_c, 8, 76, 120
1, 23170, Note_on_c, 8, 68, 120
1, 23170, Note_on_c, 8, 68, 120
1, 23174, Note_on_c, 0, 83, 0
1, 23174, Note_on_c, 0, 95, 0
1, 23174, Note_on_c, 1, 78, 0
1, 23174, Note_on_c, 1, 71, 0
1, 23174, Note_on_c, 2, 75, 0
1, 23174, Note_on_c, 2, 83, 0
1, 23174, Note_on_c, 3, 59, 0
1, 23199, Note_on_c, 6, 42, 0
1, 23199, Control_c, 8, 0, 0
1, 23199, Control_c, 8, 32, 0
1, 23199, Program_c, 8, 48
1, 23199, Note_on_c, 8, 80, 0
1, 23199, Note_on_c, 8, 85, 0
1, 23199, Control_c, 8, 0, 0
1, 23199, Control_c, 8, 32, 0
1, 23199, Program_c, 8, 49
1, 23199, Note_on_c, 8, 76, 0
1, 23199, Note_on_c, 8, 76, 0
1, 23204, Note_on_c, 7, 59, 0
1, 23204, Note_on_c, 6, 42, 120
1, 23204, Note_on_c, 7, 61, 100
1, 23204, Control_c, 8, 0, 0
1, 23204, Control_c, 8, 32, 0
1, 23204, Program_c, 8, 48
1, 23204, Note_on_c, 8, 80, 120
1, 23204, Note_on_c, 8, 85, 120
1, 23204, Control_c, 8, 0, 0
1, 23204, Control_c, 8, 32, 0
1, 23204, Program_c, 8, 49
1, 23204, Note_on_c, 8, 76, 120
1, 23204, Note_on_c, 8, 76, 120
1, 23233, Note_on_c, 6, 42, 0
1, 23233, Control_c, 8, 0, 0
1, 23233, Control_c, 8, 32, 0
1, 23233, Program_c, 8, 48
1, 23233, Note_on_c, 8, 80, 0
1, 23233, Note_on_c, 8, 85, 0
1, 23233, Control_c, 8, 0, 0
1, 23233, Control_c, 8, 32, 0
1, 23233, Program_c, 8, 49
1, 23233, Note_on_c, 8, 76, 0
1, 23233, Note_on_c, 8, 76, 0
1, 23237, Note_on_c, 7, 61, 0
1, 23237, Note_on_c, 6, 42, 120
1, 23237, Note_on_c, 7, 63, 100
1, 23237, Control_c, 8, 0, 0
1, 23237, Control_c, 8, 32, 0
1, 23237, Program_c, 8, 48
1, 23237, Note_on_c, 8, 80, 120
1, 23237, Note_on_c, 8, 85, 120
1, 23237, Control_c, 8, 0, 0
1, 23237, Control_c, 8, 32, 0
1, 23237, Program_c, 8, 49
1, 23237, Note_on_c, 8, 76, 120
1, 23237, Note_on_c, 8, 76, 120
1, 23266, Note_on_c, 6, 42, 0
1, 23266, Control_c, 8, 0, 0
1, 23266, Control_c, 8, 32, 0
1, 23266, Program_c, 8, 48
1, 23266, Note_on_c, 8, 80, 0
1, 23266, Note_on_c, 8, 85, 0
1, 23266, Control_c, 8, 0, 0
1, 23266, Control_c, 8, 32, 0
1, 23266, Program_c, 8, 49
1, 23266, Note_on_c, 8, 76, 0
1, 23266, Note_on_c, 8, 76, 0
1, 23270, Note_on_c, 7, 63, 0
1, 23270, Note_on_c, 6, 42, 120
1, 23270, Note_on_c, 7, 64, 100
1, 23270, Control_c, 8, 0, 0
1, 23270, Control_c, 8, 32, 0
1, 23270, Program_c, 8, 48
1, 23270, Note_on_c, 8, 80, 120
1, 23270, Note_on_c, 8, 85, 120
1, 23270, Control_c, 8, 0, 0
1, 23270, Control_c, 8, 32, 0
1, 23270, Program_c, 8, 49
1, 23270, Note_on_c, 8, 76, 120
1, 23270, Note_on_c, 8, 76, 120
1, 23299, Note_on_c, 6, 42, 0
1, 23299, Control_c, 8, 0, 0
1, 23299, Control_c, 8, 32, 0
1, 23299, Program_c, 8, 48
1, 23299, Note_on_c, 8, 80, 0
1, 23299, Note_on_c, 8, 85, 0
1, 23299, Control_c, 8, 0, 0
1, 23299, Control_c, 8, 32, 0
1, 23299, Program_c, 8, 49
1, 23299, Note_on_c, 8, 76, 0
1, 23299, Note_on_c, 8, 76, 0
1, 23304, Note_on_c, 7, 64, 0
1, 23304, Note_on_c, 6, 42, 120
1, 23304, Note_on_c, 7, 66, 100
1, 23304, Control_c, 8, 0, 0
1, 23304, Control_c, 8, 32, 0
1, 23304, Program_c, 8, 48
1, 23304, Note_on_c, 8, 80, 120
1, 23304, Note_on_c, 8, 85, 120
1, 23304, Control_c, 8, 0, 0
1, 23304, Control_c, 8, 32, 0
1, 23304, Program_c, 8, 49
1, 23304, Note_on_c, 8, 76, 120
1, 23304, Note_on_c, 8, 76, 120
1, 23333, Note_on_c, 6, 42, 0
1, 23333, Control_c, 8, 0, 0
1, 23333, Control_c, 8, 32, 0
1, 23333, Program_c, 8, 48
1, 23333, Note_on_c, 8, 80, 0
1, 23333, Note_on_c, 8, 85, 0
1, 23333, Control_c, 8, 0, 0
1, 23333, Control_c, 8, 32, 0
1, 23333, Program_c, 8, 49
1, 23333, Note_on_c, 8, 76, 0
1, 23333, Note_on_c, 8, 76, 0
1, 23337, Note_on_c, 7, 66, 0
1, 23337, Note_on_c, 6, 42, 120
1, 23337, Note_on_c, 7, 68, 100
1, 23337, Control_c, 8, 0, 0
1, 23337, Control_c, 8, 32, 0
1, 23337, Program_c, 8, 48
1, 23337, Note_on_c, 8, 80, 120
1, 23337, Note_on_c, 8, 85, 120
1, 23337, Control_c, 8, 0, 0
1, 23337, Control_c, 8, 32, 0
1, 23337, Program_c, 8, 49
1, 23337, Note_on_c, 8, 76, 120
1, 23337, Note_on_c, 8, 76, 120
1, 23366, Note_on_c, 6, 42, 0
1, 23366, Control_c, 8, 0, 0
1, 23366, Control_c, 8, 32, 0
1, 23366, Program_c, 8, 48
1, 23366, Note_on_c, 8, 80, 0
1, 23366, Note_on_c, 8, 85, 0
1, 23366, Control_c, 8, 0, 0
1, 23366, Control_c, 8, 32, 0
1, 23366, Program_c, 8, 49
1, 23366, Note_on_c, 8, 76, 0
1, 23366, Note_on_c, 8, 76, 0
1, 23370, Note_on_c, 7, 68, 0
1, 23370, Note_on_c, 6, 42, 120
1, 23370, Note_on_c, 7, 70, 100
1, 23370, Control_c, 8, 0, 0
1, 23370, Control_c, 8, 32, 0
1, 23370, Program_c, 8, 48
1, 23370, Note_on_c, 8, 80, 120
1, 23370, Note_on_c, 8, 85, 120
1, 23370, Control_c, 8, 0, 0
1, 23370, Control_c, 8, 32, 0
1, 23370, Program_c, 8, 49
1, 23370, Note_on_c, 8, 76, 120
1, 23370, Note_on_c, 8, 76, 120
1, 23399, Note_on_c, 6, 42, 0
1, 23399, Control_c, 8, 0, 0
1, 23399, Control_c, 8, 32, 0
1, 23399, Program_c, 8, 48
1, 23399, Note_on_c, 8, 80, 0
1, 23399, Note_on_c, 8, 85, 0
1, 23399, Control_c, 8, 0, 0
1, 23399, Control_c, 8, 32, 0
1, 23399, Program_c, 8, 49
1, 23399, Note_on_c, 8, 76, 0
1, 23399, Note_on_c, 8, 76, 0
1, 23404, Note_on_c, 7, 70, 0
1, 23404, Note_on_c, 6, 42, 120
1, 23404, Note_on_c, 7, 71, 100
1, 23404, Control_c, 8, 0, 0
1, 23404, Control_c, 8, 32, 0
1, 23404, Program_c, 8, 48
1, 23404, Note_on_c, 8, 80, 120
1, 23404, Note_on_c, 8, 85, 120
1, 23404, Control_c, 8, 0, 0
1, 23404, Control_c, 8, 32, 0
1, 23404, Program_c, 8, 49
1, 23404, Note_on_c, 8, 76, 120
1, 23404, Note_on_c, 8, 76, 120
1, 23433, Note_on_c, 6, 42, 0
1, 23433, Control_c, 8, 0, 0
1, 23433, Control_c, 8, 32, 0
1, 23433, Program_c, 8, 48
1, 23433, Note_on_c, 8, 80, 0
1, 23433, Note_on_c, 8, 85, 0
1, 23433, Control_c, 8, 0, 0
1, 23433, Control_c, 8, 32, 0
1, 23433, Program_c, 8, 49
1, 23433, Note_on_c, 8, 76, 0
1, 23433, Note_on_c, 8, 76, 0
1, 23437, Note_on_c, 7, 71, 0
1, 23437, Note_on_c, 6, 42, 120
1, 23437, Note_on_c, 7, 73, 100
1, 23437, Control_c, 8, 0, 0
1, 23437, Control_c, 8, 32, 0
1, 23437, Program_c, 8, 48
1, 23437, Note_on_c, 8, 80, 120
1, 23437, Note_on_c, 8, 85, 120
1, 23437, Control_c, 8, 0, 0
1, 23437, Control_c, 8, 32, 0
1, 23437, Program_c, 8, 49
1, 23437, Note_on_c, 8, 76, 120
1, 23437, Note_on_c, 8, 76, 120
1, 23466, Note_on_c, 6, 42, 0
1, 23466, Control_c, 8, 0, 0
1, 23466, Control_c, 8, 32, 0
1, 23466, Program_c, 8, 48
1, 23466, Note_on_c, 8, 80, 0
1, 23466, Note_on_c, 8, 85, 0
1, 23466, Control_c, 8, 0, 0
1, 23466, Control_c, 8, 32, 0
1, 23466, Program_c, 8, 49
1, 23466, Note_on_c, 8, 76, 0
1, 23466, Note_on_c, 8, 76, 0
1, 23470, Note_on_c, 7, 73, 0
1, 23470, Note_on_c, 6, 42, 120
1, 23470, Note_on_c, 7, 75, 100
1, 23470, Control_c, 8, 0, 0
1, 23470, Control_c, 8, 32, 0
1, 23470, Program_c, 8, 48
1, 23470, Note_on_c, 8, 80, 120
1, 23470, Note_on_c, 8, 85, 120
1, 23470, Control_c, 8, 0, 0
1, 23470, Control_c, 8, 32, 0
1, 23470, Program_c, 8, 49
1, 23470, Note_on_c, 8, 76, 120
1, 23470, Note_on_c, 8, 76, 120
1, 23495, Note_on_c, 4, 68, 0
1, 23495, Note_on_c, 4, 68, 0
1, 23495, Note_on_c, 4, 71, 0
1, 23495, Note_on_c, 4, 71, 0
1, 23495, Note_on_c, 5, 73, 0
1, 23495, Note_on_c, 5, 64, 0
1, 23495, Note_on_c, 5, 68, 0
1, 23495, Note_on_c, 5, 64, 0
1, 23495, Note_on_c, 5, 59, 0
1, 23495, Note_on_c, 8, 85, 0
1, 23495, Note_on_c, 8, 80, 0
1, 23495, Note_on_c, 8, 76, 0
1, 23495, Note_on_c, 8, 68, 0
1, 23495, Note_on_c, 8, 68, 0
1, 23499, Note_on_c, 6, 42, 0
1, 23499, Control_c, 8, 0, 0
1, 23499, Control_c, 8, 32, 0
1, 23499, Program_c, 8, 48
1, 23499, Note_on_c, 8, 80, 0
1, 23499, Note_on_c, 8, 85, 0
1, 23499, Control_c, 8, 0, 0
1, 23499, Control_c, 8, 32, 0
1, 23499, Program_c, 8, 49
1, 23499, Note_on_c, 8, 76, 0
1, 23499, Note_on_c, 8, 76, 0
1, 23504, Note_on_c, 7, 75, 0
1, 23504, Note_on_c, 6, 42, 120
1, 23504, Note_on_c, 7, 76, 100
1, 23504, Control_c, 8, 0, 0
1, 23504, Control_c, 8, 32, 0
1, 23504, Program_c, 8, 48
1, 23504, Note_on_c, 8, 80, 120
1, 23504, Note_on_c, 8, 85, 120
1, 23504, Control_c, 8, 0, 0
1, 23504, Control_c, 8, 32, 0
1, 23504, Program_c, 8, 49
1, 23504, Note_on_c, 8, 76, 120
1, 23504, Note_on_c, 8, 76, 120
1, 23533, Note_on_c, 6, 42, 0
1, 23533, Control_c, 8, 0, 0
1, 23533, Control_c, 8, 32, 0
1, 23533, Program_c, 8, 48
1, 23533, Note_on_c, 8, 80, 0
1, 23533, Note_on_c, 8, 85, 0
1, 23533, Control_c, 8, 0, 0
1, 23533, Control_c, 8, 32, 0
1, 23533, Program_c, 8, 49
1, 23533, Note_on_c, 8, 76, 0
1, 23533, Note_on_c, 8, 76, 0
1, 23537, Note_on_c, 7, 76, 0
1, 23537, Note_on_c, 6, 42, 120
1, 23537, Note_on_c, 7, 78, 100
1, 23537, Control_c, 8, 0, 0
1, 23537, Control_c, 8, 32, 0
1, 23537, Program_c, 8, 48
1, 23537, Note_on_c, 8, 80, 120
1, 23537, Note_on_c, 8, 85, 120
1, 23537, Control_c, 8, 0, 0
1, 23537, Control_c, 8, 32, 0
1, 23537, Program_c, 8, 49
1, 23537, Note_on_c, 8, 76, 120
1, 23537, Note_on_c, 8, 76, 120
1, 23566, Note_on_c, 6, 42, 0
1, 23566, Control_c, 8, 0, 0
1, 23566, Control_c, 8, 32, 0
1, 23566, Program_c, 8, 48
1, 23566, Note_on_c, 8, 80, 0
1, 23566, Note_on_c, 8, 85, 0
1, 23566, Control_c, 8, 0, 0
1, 23566, Control_c, 8, 32, 0
1, 23566, Program_c, 8, 49
1, 23566, Note_on_c, 8, 76, 0
1, 23566, Note_on_c, 8, 76, 0
1, 23570, Note_on_c, 0, 85, 0
1, 23570, Note_on_c, 0, 97, 0
1, 23570, Note_on_c, 1, 80, 0
1, 23570, Note_on_c, 1, 73, 0
1, 23570, Note_on_c, 2, 76, 0
1, 23570, Note_on_c, 2, 85, 0
1, 23570, Note_on_c, 3, 61, 0
1, 23570, Note_on_c, 7, 78, 0
1, 23570, Note_on_c, 0, 85, 115
1, 23570, Note_on_c, 0, 97, 115
1, 23570, Note_on_c, 1, 79, 115
1, 23570, Note_on_c, 1, 73, 115
1, 23570, Note_on_c, 2, 76, 115
1, 23570, Note_on_c, 2, 85, 115
1, 23570, Note_on_c, 3, 61, 115
1, 23570, Note_on_c, 4, 67, 115
1, 23570, Note_on_c, 4, 67, 115
1, 23570, Note_on_c, 4, 70, 115
1, 23570, Note_on_c, 4, 70, 115
1, 23570, Note_on_c, 5, 73, 115
1, 23570, Note_on_c, 5, 64, 115
1, 23570, Note_on_c, 5, 70, 115
1, 23570, Note_on_c, 5, 66, 115
1, 23570, Note_on_c, 5, 61, 115
1, 23570, Note_on_c, 6, 42, 120
1, 23570, Note_on_c, 7, 61, 100
1, 23570, Control_c, 8, 0, 0
1, 23570, Control_c, 8, 32, 0
1, 23570, Program_c, 8, 48
1, 23570, Note_on_c, 8, 79, 120
1, 23570, Note_on_c, 8, 85, 120
1, 23570, Control_c, 8, 0, 0
1, 23570, Control_c, 8, 32, 0
1, 23570, Program_c, 8, 49
1, 23570, Note_on_c, 8, 85, 120
1, 23570, Note_on_c, 8, 79, 120
1, 23570, Note_on_c, 8, 76, 120
1, 23570, Note_on_c, 8, 76, 120
1, 23570, Note_on_c, 8, 76, 120
1, 23570, Note_on_c, 8, 68, 120
1, 23570, Note_on_c, 8, 68, 120
1, 23603, Note_on_c, 6, 42, 0
1, 23603, Control_c, 8, 0, 0
1, 23603, Control_c, 8, 32, 0
1, 23603, Program_c, 8, 48
1, 23603, Note_on_c, 8, 79, 0
1, 23603, Note_on_c, 8, 85, 0
1, 23603, Control_c, 8, 0, 0
1, 23603, Control_c, 8, 32, 0
1, 23603, Program_c, 8, 49
1, 23603, Note_on_c, 8, 76, 0
1, 23603, Note_on_c, 8, 76, 0
1, 23608, Note_on_c, 7, 61, 0
1, 23608, Note_on_c, 6, 42, 120
1, 23608, Note_on_c, 7, 63, 100
1, 23608, Control_c, 8, 0, 0
1, 23608, Control_c, 8, 32, 0
1, 23608, Program_c, 8, 48
1, 23608, Note_on_c, 8, 79, 120
1, 23608, Note_on_c, 8, 85, 120
1, 23608, Control_c, 8, 0, 0
1, 23608, Control_c, 8, 32, 0
1, 23608, Program_c, 8, 49
1, 23608, Note_on_c, 8, 76, 120
1, 23608, Note_on_c, 8, 76, 120
1, 23640, Note_on_c, 6, 42, 0
1, 23640, Control_c, 8, 0, 0
1, 23640, Control_c, 8, 32, 0
1, 23640, Program_c, 8, 48
1, 23640, Note_on_c, 8, 79, 0
1, 23640, Note_on_c, 8, 85, 0
1, 23640, Control_c, 8, 0, 0
1, 23640, Control_c, 8, 32, 0
1, 23640, Program_c, 8, 49
1, 23640, Note_on_c, 8, 76, 0
1, 23640, Note_on_c, 8, 76, 0
1, 23645, Note_on_c, 7, 63, 0
1, 23645, Note_on_c, 6, 42, 120
1, 23645, Note_on_c, 7, 64, 100
1, 23645, Control_c, 8, 0, 0
1, 23645, Control_c, 8, 32, 0
1, 23645, Program_c, 8, 48
1, 23645, Note_on_c, 8, 79, 120
1, 23645, Note_on_c, 8, 85, 120
1, 23645, Control_c, 8, 0, 0
1, 23645, Control_c, 8, 32, 0
1, 23645, Program_c, 8, 49
1, 23645, Note_on_c, 8, 76, 120
1, 23645, Note_on_c, 8, 76, 120
1, 23678, Note_on_c, 6, 42, 0
1, 23678, Control_c, 8, 0, 0
1, 23678, Control_c, 8, 32, 0
1, 23678, Program_c, 8, 48
1, 23678, Note_on_c, 8, 79, 0
1, 23678, Note_on_c, 8, 85, 0
1, 23678, Control_c, 8, 0, 0
1, 23678, Control_c, 8, 32, 0
1, 23678, Program_c, 8, 49
1, 23678, Note_on_c, 8, 76, 0
1, 23678, Note_on_c, 8, 76, 0
1, 23683, Note_on_c, 7, 64, 0
1, 23683, Note_on_c, 6, 42, 120
1, 23683, Note_on_c, 7, 66, 100
1, 23683, Control_c, 8, 0, 0
1, 23683, Control_c, 8, 32, 0
1, 23683, Program_c, 8, 48
1, 23683, Note_on_c, 8, 79, 120
1, 23683, Note_on_c, 8, 85, 120
1, 23683, Control_c, 8, 0, 0
1, 23683, Control_c, 8, 32, 0
1, 23683, Program_c, 8, 49
1, 23683, Note_on_c, 8, 76, 120
1, 23683, Note_on_c, 8, 76, 120
1, 23716, Note_on_c, 6, 42, 0
1, 23716, Control_c, 8, 0, 0
1, 23716, Control_c, 8, 32, 0
1, 23716, Program_c, 8, 48
1, 23716, Note_on_c, 8, 79, 0
1, 23716, Note_on_c, 8, 85, 0
1, 23716, Control_c, 8, 0, 0
1, 23716, Control_c, 8, 32, 0
1, 23716, Program_c, 8, 49
1, 23716, Note_on_c, 8, 76, 0
1, 23716, Note_on_c, 8, 76, 0
1, 23720, Note_on_c, 7, 66, 0
1, 23720, Note_on_c, 6, 42, 120
1, 23720, Note_on_c, 7, 68, 100
1, 23720, Control_c, 8, 0, 0
1, 23720, Control_c, 8, 32, 0
1, 23720, Program_c, 8, 48
1, 23720, Note_on_c, 8, 79, 120
1, 23720, Note_on_c, 8, 85, 120
1, 23720, Control_c, 8, 0, 0
1, 23720, Control_c, 8, 32, 0
1, 23720, Program_c, 8, 49
1, 23720, Note_on_c, 8, 76, 120
1, 23720, Note_on_c, 8, 76, 120
1, 23753, Note_on_c, 6, 42, 0
1, 23753, Control_c, 8, 0, 0
1, 23753, Control_c, 8, 32, 0
1, 23753, Program_c, 8, 48
1, 23753, Note_on_c, 8, 79, 0
1, 23753, Note_on_c, 8, 85, 0
1, 23753, Control_c, 8, 0, 0
1, 23753, Control_c, 8, 32, 0
1, 23753, Program_c, 8, 49
1, 23753, Note_on_c, 8, 76, 0
1, 23753, Note_on_c, 8, 76, 0
1, 23758, Note_on_c, 7, 68, 0
1, 23758, Note_on_c, 6, 42, 120
1, 23758, Note_on_c, 7, 70, 100
1, 23758, Control_c, 8, 0, 0
1, 23758, Control_c, 8, 32, 0
1, 23758, Program_c, 8, 48
1, 23758, Note_on_c, 8, 79, 120
1, 23758, Note_on_c, 8, 85, 120
1, 23758, Control_c, 8, 0, 0
1, 23758, Control_c, 8, 32, 0
1, 23758, Program_c, 8, 49
1, 23758, Note_on_c, 8, 76, 120
1, 23758, Note_on_c, 8, 76, 120
1, 23790, Note_on_c, 6, 42, 0
1, 23790, Control_c, 8, 0, 0
1, 23790, Control_c, 8, 32, 0
1, 23790, Program_c, 8, 48
1, 23790, Note_on_c, 8, 79, 0
1, 23790, Note_on_c, 8, 85, 0
1, 23790, Control_c, 8, 0, 0
1, 23790, Control_c, 8, 32, 0
1, 23790, Program_c, 8, 49
1, 23790, Note_on_c, 8, 76, 0
1, 23790, Note_on_c, 8, 76, 0
1, 23795, Note_on_c, 7, 70, 0
1, 23795, Control_c, 0, 11, 95
1, 23795, Control_c, 1, 11, 95
1, 23795, Control_c, 2, 11, 95
1, 23795, Control_c, 3, 11, 95
1, 23795, Control_c, 4, 11, 95
1, 23795, Control_c, 5, 11, 95
1, 23795, Note_on_c, 6, 42, 120
1, 23795, Control_c, 7, 11, 95
1, 23795, Note_on_c, 7, 71, 100
1, 23795, Control_c, 8, 11, 95
1, 23795, Control_c, 8, 0, 0
1, 23795, Control_c, 8, 32, 0
1, 23795, Program_c, 8, 48
1, 23795, Note_on_c, 8, 79, 120
1, 23795, Note_on_c, 8, 85, 120
1, 23795, Control_c, 8, 0, 0
1, 23795, Control_c, 8, 32, 0
1, 23795, Program_c, 8, 49
1, 23795, Note_on_c, 8, 76, 120
1, 23795, Note_on_c, 8, 76, 120
1, 23809, Control_c, 0, 11, 90
1, 23809, Control_c, 1, 11, 90
1, 23809, Control_c, 2, 11, 90
1, 23809, Control_c, 3, 11, 90
1, 23809, Control_c, 4, 11, 90
1, 23809, Control_c, 5, 11, 90
1, 23809, Control_c, 7, 11, 90
1, 23809, Control_c, 8, 11, 90
1, 23823, Control_c, 0, 11, 85
1, 23823, Control_c, 1, 11, 85
1, 23823, Control_c, 2, 11, 85
1, 23823, Control_c, 3, 11, 85
1, 23823, Control_c, 4, 11, 85
1, 23823, Control_c, 5, 11, 85
1, 23823, Control_c, 7, 11, 85
1, 23823, Control_c, 8, 11, 85
1, 23828, Note_on_c, 6, 42, 0
1, 23833, Note_on_c, 7, 71, 0
1, 23833, Note_on_c, 7, 73, 100
1, 23838, Control_c, 0, 11, 80
1, 23838, Control_c, 1, 11, 80
1, 23838, Control_c, 2, 11, 80
1, 23838, Control_c, 3, 11, 80
1, 23838, Control_c, 4, 11, 80
1, 23838, Control_c, 5, 11, 80
1, 23838, Control_c, 7, 11, 80
1, 23838, Control_c, 8, 11, 80
1, 23852, Control_c, 0, 11, 75
1, 23852, Control_c, 1, 11, 75
1, 23852, Control_c, 2, 11, 75
1, 23852, Control_c, 3, 11, 75
1, 23852, Control_c, 4, 11, 75
1, 23852, Control_c, 5, 11, 75
1, 23852, Control_c, 7, 11, 75
1, 23852, Control_c, 8, 11, 75
1, 23866, Control_c, 0, 11, 70
1, 23866, Control_c, 1, 11, 70
1, 23866, Control_c, 2, 11, 70
1, 23866, Control_c, 3, 11, 70
1, 23866, Control_c, 4, 11, 70
1, 23866, Control_c, 5, 11, 70
1, 23866, Control_c, 7, 11, 70
1, 23866, Control_c, 8, 11, 70
1, 23870, Note_on_c, 7, 73, 0
1, 23870, Note_on_c, 7, 75, 100
1, 23880, Control_c, 0, 11, 65
1, 23880, Control_c, 1, 11, 65
1, 23880, Control_c, 2, 11, 65
1, 23880, Control_c, 3, 11, 65
1, 23880, Control_c, 4, 11, 65
1, 23880, Control_c, 5, 11, 65
1, 23880, Control_c, 7, 11, 65
1, 23880, Control_c, 8, 11, 65
1, 23894, Control_c, 0, 11, 60
1, 23894, Control_c, 1, 11, 60
1, 23894, Control_c, 2, 11, 60
1, 23894, Control_c, 3, 11, 60
1, 23894, Control_c, 4, 11, 60
1, 23894, Control_c, 5, 11, 60
1, 23894, Control_c, 7, 11, 60
1, 23894, Control_c, 8, 11, 60
1, 23908, Note_on_c, 7, 75, 0
1, 23908, Control_c, 0, 11, 55
1, 23908, Control_c, 1, 11, 55
1, 23908, Control_c, 2, 11, 55
1, 23908, Control_c, 3, 11, 55
1, 23908, Control_c, 4, 11, 55
1, 23908, Control_c, 5, 11, 55
1, 23908, Control_c, 7, 11, 55
1, 23908, Note_on_c, 7, 76, 100
1, 23908, Control_c, 8, 11, 55
1, 23922, Control_c, 0, 11, 50
1, 23922, Control_c, 1, 11, 50
1, 23922, Control_c, 2, 11, 50
1, 23922, Control_c, 3, 11, 50
1, 23922, Control_c, 4, 11, 50
1, 23922, Control_c, 5, 11, 50
1, 23922, Control_c, 7, 11, 50
1, 23922, Control_c, 8, 11, 50
1, 23936, Note_on_c, 4, 67, 0
1, 23936, Note_on_c, 4, 67, 0
1, 23936, Note_on_c, 4, 70, 0
1, 23936, Note_on_c, 4, 70, 0
1, 23936, Note_on_c, 5, 73, 0
1, 23936, Note_on_c, 5, 64, 0
1, 23936, Note_on_c, 5, 70, 0
1, 23936, Note_on_c, 5, 66, 0
1, 23936, Note_on_c, 5, 61, 0
1, 23936, Note_on_c, 8, 85, 0
1, 23936, Note_on_c, 8, 79, 0
1, 23936, Note_on_c, 8, 76, 0
1, 23936, Note_on_c, 8, 68, 0
1, 23936, Note_on_c, 8, 68, 0
1, 23940, Control_c, 0, 11, 45
1, 23940, Control_c, 1, 11, 45
1, 23940, Control_c, 2, 11, 45
1, 23940, Control_c, 3, 11, 45
1, 23940, Control_c, 4, 11, 45
1, 23940, Control_c, 5, 11, 45
1, 23940, Control_c, 7, 11, 45
1, 23940, Control_c, 8, 11, 45
1, 23945, Note_on_c, 7, 76, 0
1, 23945, Note_on_c, 7, 78, 100
1, 23954, Note_on_c, 8, 30, 0
1, 23954, Note_on_c, 0, 85, 0
1, 23954, Note_on_c, 0, 97, 0
1, 23954, Note_on_c, 1, 79, 0
1, 23954, Note_on_c, 1, 73, 0
1, 23954, Note_on_c, 2, 76, 0
1, 23954, Note_on_c, 2, 85, 0
1, 23954, Note_on_c, 3, 61, 0
1, 23973, Note_on_c, 7, 80, 100
1, 23983, Note_on_c, 7, 78, 0
1, 23992, Control_c, 8, 0, 0
1, 23992, Control_c, 8, 32, 0
1, 23992, Program_c, 8, 48
1, 23992, Note_on_c, 8, 79, 0
1, 23992, Note_on_c, 8, 85, 0
1, 23992, Control_c, 8, 0, 0
1, 23992, Control_c, 8, 32, 0
1, 23992, Program_c, 8, 49
1, 23992, Note_on_c, 8, 76, 0
1, 23992, Note_on_c, 8, 76, 0
1, 24011, Note_on_c, 7, 80, 0
1, 24020, Note_on_c, 5, 42, 0
1, 24020, Control_c, 7, 0, 0
1, 24020, Control_c, 7, 32, 0
1, 24020, Program_c, 7, 48
1, 24020, Control_c, 7, 11, 44
1, 24020, Control_c, 8, 11, 44
1, 24020, Control_c, 8, 0, 0
1, 24020, Control_c, 8, 32, 0
1, 24020, Program_c, 8, 44
1, 24022, Note_on_c, 7, 59, 100
1, 24022, Note_on_c, 7, 71, 100
1, 24022, Note_on_c, 7, 71, 100
1, 24022, Note_on_c, 7, 83, 100
1, 24022, Note_on_c, 8, 83, 100
1, 24083, Note_on_c, 8, 82, 100
1, 24086, Note_on_c, 8, 83, 0
1, 24146, Note_on_c, 8, 81, 100
1, 24148, Note_on_c, 8, 82, 0
1, 24210, Note_on_c, 8, 77, 100
1, 24211, Note_on_c, 8, 81, 0
1, 24273, Note_on_c, 8, 78, 100
1, 24274, Note_on_c, 8, 77, 0
1, 24336, Note_on_c, 8, 79, 100
1, 24337, Note_on_c, 8, 78, 0
1, 24399, Control_c, 0, 11, 100
1, 24399, Control_c, 1, 11, 100
1, 24399, Control_c, 2, 11, 100
1, 24399, Control_c, 3, 11, 100
1, 24399, Control_c, 4, 7, 115
1, 24399, Control_c, 4, 11, 100
1, 24399, Control_c, 5, 11, 100
1, 24399, Control_c, 6, 11, 100
1, 24399, Control_c, 7, 11, 46
1, 24399, Control_c, 8, 11, 46
1, 24399, Note_on_c, 8, 79, 100
1, 24400, Note_on_c, 8, 79, 0
1, 24400, Note_on_c, 8, 83, 100
1, 24431, Control_c, 7, 11, 48
1, 24431, Control_c, 8, 11, 48
1, 24462, Control_c, 7, 11, 50
1, 24462, Control_c, 8, 11, 50
1, 24462, Note_on_c, 8, 78, 100
1, 24462, Note_on_c, 8, 82, 100
1, 24464, Note_on_c, 8, 79, 0
1, 24465, Note_on_c, 8, 83, 0
1, 24494, Control_c, 7, 11, 52
1, 24494, Control_c, 8, 11, 52
1, 24526, Control_c, 7, 11, 54
1, 24526, Control_c, 8, 11, 54
1, 24526, Note_on_c, 8, 81, 100
1, 24526, Note_on_c, 8, 77, 100
1, 24527, Note_on_c, 8, 78, 0
1, 24527, Note_on_c, 8, 82, 0
1, 24557, Control_c, 7, 11, 56
1, 24557, Control_c, 8, 11, 56
1, 24589, Control_c, 7, 11, 58
1, 24589, Control_c, 8, 11, 58
1, 24589, Note_on_c, 8, 77, 100
1, 24589, Note_on_c, 8, 73, 100
1, 24590, Note_on_c, 8, 81, 0
1, 24590, Note_on_c, 8, 77, 0
1, 24620, Control_c, 7, 11, 60
1, 24620, Control_c, 8, 11, 60
1, 24652, Control_c, 7, 11, 62
1, 24652, Control_c, 8, 11, 62
1, 24652, Note_on_c, 8, 74, 100
1, 24652, Note_on_c, 8, 78, 100
1, 24653, Note_on_c, 8, 77, 0
1, 24653, Note_on_c, 8, 73, 0
1, 24683, Control_c, 7, 11, 64
1, 24683, Control_c, 8, 11, 64
1, 24715, Control_c, 7, 11, 66
1, 24715, Control_c, 8, 11, 66
1, 24715, Note_on_c, 8, 75, 100
1, 24715, Note_on_c, 8, 79, 100
1, 24716, Note_on_c, 8, 74, 0
1, 24716, Note_on_c, 8, 78, 0
1, 24746, Control_c, 7, 11, 68
1, 24746, Control_c, 8, 11, 68
1, 24778, Note_on_c, 8, 75, 0
1, 24778, Control_c, 7, 11, 70
1, 24778, Control_c, 8, 11, 70
1, 24778, Note_on_c, 8, 79, 100
1, 24778, Control_c, 8, 0, 0
1, 24778, Control_c, 8, 32, 0
1, 24778, Program_c, 8, 49
1, 24778, Note_on_c, 8, 59, 100
1, 24780, Control_c, 8, 0, 0
1, 24780, Control_c, 8, 32, 0
1, 24780, Program_c, 8, 44
1, 24780, Note_on_c, 8, 79, 0
1, 24780, Note_on_c, 8, 83, 100
1, 24810, Control_c, 7, 11, 72
1, 24810, Control_c, 8, 11, 72
1, 24841, Control_c, 7, 11, 74
1, 24841, Control_c, 8, 11, 74
1, 24841, Note_on_c, 8, 78, 100
1, 24841, Note_on_c, 8, 82, 100
1, 24841, Control_c, 8, 0, 0
1, 24841, Control_c, 8, 32, 0
1, 24841, Program_c, 8, 49
1, 24841, Note_on_c, 8, 60, 100
1, 24842, Control_c, 8, 0, 0
1, 24842, Control_c, 8, 32, 0
1, 24842, Program_c, 8, 44
1, 24842, Note_on_c, 8, 79, 0
1, 24842, Control_c, 8, 0, 0
1, 24842, Control_c, 8, 32, 0
1, 24842, Program_c, 8, 49
1, 24842, Note_on_c, 8, 59, 0
1, 24844, Control_c, 8, 0, 0
1, 24844, Control_c, 8, 32, 0
1, 24844, Program_c, 8, 44
1, 24844, Note_on_c, 8, 83, 0
1, 24873, Control_c, 7, 11, 76
1, 24873, Control_c, 8, 11, 76
1, 24904, Control_c, 7, 11, 78
1, 24904, Control_c, 8, 11, 78
1, 24904, Note_on_c, 8, 81, 100
1, 24904, Note_on_c, 8, 77, 100
1, 24904, Control_c, 8, 0, 0
1, 24904, Control_c, 8, 32, 0
1, 24904, Program_c, 8, 49
1, 24904, Note_on_c, 8, 61, 100
1, 24906, Control_c, 8, 0, 0
1, 24906, Control_c, 8, 32, 0
1, 24906, Program_c, 8, 44
1, 24906, Note_on_c, 8, 78, 0
1, 24906, Note_on_c, 8, 82, 0
1, 24906, Control_c, 8, 0, 0
1, 24906, Control_c, 8, 32, 0
1, 24906, Program_c, 8, 49
1, 24906, Note_on_c, 8, 60, 0
1, 24936, Control_c, 7, 11, 80
1, 24936, Control_c, 8, 11, 80
1, 24968, Control_c, 7, 11, 82
1, 24968, Control_c, 8, 11, 82
1, 24968, Control_c, 8, 0, 0
1, 24968, Control_c, 8, 32, 0
1, 24968, Program_c, 8, 44
1, 24968, Note_on_c, 8, 77, 100
1, 24968, Note_on_c, 8, 73, 100
1, 24968, Control_c, 8, 0, 0
1, 24968, Control_c, 8, 32, 0
1, 24968, Program_c, 8, 49
1, 24968, Note_on_c, 8, 65, 100
1, 24969, Control_c, 8, 0, 0
1, 24969, Control_c, 8, 32, 0
1, 24969, Program_c, 8, 44
1, 24969, Note_on_c, 8, 81, 0
1, 24969, Control_c, 8, 0, 0
1, 24969, Control_c, 8, 32, 0
1, 24969, Program_c, 8, 49
1, 24969, Note_on_c, 8, 61, 0
1, 24969, Control_c, 8, 0, 0
1, 24969, Control_c, 8, 32, 0
1, 24969, Program_c, 8, 44
1, 24969, Note_on_c, 8, 77, 0
1, 24999, Control_c, 7, 11, 84
1, 24999, Control_c, 8, 11, 84
1, 25031, Control_c, 7, 11, 86
1, 25031, Control_c, 8, 11, 86
1, 25031, Note_on_c, 8, 74, 100
1, 25031, Note_on_c, 8, 78, 100
1, 25031, Control_c, 8, 0, 0
1, 25031, Control_c, 8, 32, 0
1, 25031, Program_c, 8, 49
1, 25031, Note_on_c, 8, 64, 100
1, 25032, Control_c, 8, 0, 0
1, 25032, Control_c, 8, 32, 0
1, 25032, Program_c, 8, 44
1, 25032, Note_on_c, 8, 77, 0
1, 25032, Note_on_c, 8, 73, 0
1, 25032, Control_c, 8, 0, 0
1, 25032, Control_c, 8, 32, 0
1, 25032, Program_c, 8, 49
1, 25032, Note_on_c, 8, 65, 0
1, 25062, Control_c, 7, 11, 88
1, 25062, Control_c, 8, 11, 88
1, 25094, Control_c, 7, 11, 90
1, 25094, Control_c, 8, 11, 90
1, 25094, Control_c, 8, 0, 0
1, 25094, Control_c, 8, 32, 0
1, 25094, Program_c, 8, 44
1, 25094, Note_on_c, 8, 75, 100
1, 25094, Note_on_c, 8, 79, 100
1, 25094, Control_c, 8, 0, 0
1, 25094, Control_c, 8, 32, 0
1, 25094, Program_c, 8, 49
1, 25094, Note_on_c, 8, 63, 100
1, 25095, Control_c, 8, 0, 0
1, 25095, Control_c, 8, 32, 0
1, 25095, Program_c, 8, 44
1, 25095, Note_on_c, 8, 74, 0
1, 25095, Note_on_c, 8, 78, 0
1, 25095, Control_c, 8, 0, 0
1, 25095, Control_c, 8, 32, 0
1, 25095, Program_c, 8, 49
1, 25095, Note_on_c, 8, 64, 0
1, 25126, Control_c, 7, 11, 92
1, 25126, Control_c, 8, 11, 92
1, 25157, Control_c, 8, 0, 0
1, 25157, Control_c, 8, 32, 0
1, 25157, Program_c, 8, 44
1, 25157, Note_on_c, 8, 75, 0
1, 25157, Control_c, 7, 11, 94
1, 25157, Control_c, 8, 11, 94
1, 25157, Note_on_c, 8, 79, 100
1, 25157, Note_on_c, 8, 63, 100
1, 25157, Control_c, 8, 0, 0
1, 25157, Control_c, 8, 32, 0
1, 25157, Program_c, 8, 49
1, 25157, Note_on_c, 8, 59, 100
1, 25158, Note_on_c, 8, 63, 0
1, 25158, Control_c, 8, 0, 0
1, 25158, Control_c, 8, 32, 0
1, 25158, Program_c, 8, 44
1, 25158, Note_on_c, 8, 79, 0
1, 25158, Note_on_c, 8, 83, 100
1, 25189, Control_c, 7, 11, 96
1, 25189, Control_c, 8, 11, 96
1, 25220, Control_c, 7, 11, 98
1, 25220, Control_c, 8, 11, 98
1, 25220, Note_on_c, 8, 78, 100
1, 25220, Note_on_c, 8, 64, 100
1, 25220, Note_on_c, 8, 82, 100
1, 25220, Control_c, 8, 0, 0
1, 25220, Control_c, 8, 32, 0
1, 25220, Program_c, 8, 49
1, 25220, Note_on_c, 8, 60, 100
1, 25222, Control_c, 8, 0, 0
1, 25222, Control_c, 8, 32, 0
1, 25222, Program_c, 8, 44
1, 25222, Note_on_c, 8, 79, 0
1, 25222, Note_on_c, 8, 63, 0
1, 25222, Control_c, 8, 0, 0
1, 25222, Control_c, 8, 32, 0
1, 25222, Program_c, 8, 49
1, 25222, Note_on_c, 8, 59, 0
1, 25223, Control_c, 8, 0, 0
1, 25223, Control_c, 8, 32, 0
1, 25223, Program_c, 8, 44
1, 25223, Note_on_c, 8, 83, 0
1, 25252, Control_c, 7, 11, 100
1, 25252, Control_c, 8, 11, 100
1, 25283, Control_c, 7, 11, 102
1, 25283, Control_c, 8, 11, 102
1, 25283, Note_on_c, 8, 65, 100
1, 25283, Note_on_c, 8, 81, 100
1, 25283, Note_on_c, 8, 77, 100
1, 25283, Control_c, 8, 0, 0
1, 25283, Control_c, 8, 32, 0
1, 25283, Program_c, 8, 49
1, 25283, Note_on_c, 8, 61, 100
1, 25285, Control_c, 8, 0, 0
1, 25285, Control_c, 8, 32, 0
1, 25285, Program_c, 8, 44
1, 25285, Note_on_c, 8, 78, 0
1, 25285, Note_on_c, 8, 64, 0
1, 25285, Note_on_c, 8, 82, 0
1, 25285, Control_c, 8, 0, 0
1, 25285, Control_c, 8, 32, 0
1, 25285, Program_c, 8, 49
1, 25285, Note_on_c, 8, 60, 0
1, 25315, Control_c, 7, 11, 104
1, 25315, Control_c, 8, 11, 104
1, 25346, Control_c, 7, 11, 106
1, 25346, Control_c, 8, 11, 106
1, 25346, Control_c, 8, 0, 0
1, 25346, Control_c, 8, 32, 0
1, 25346, Program_c, 8, 44
1, 25346, Note_on_c, 8, 77, 100
1, 25346, Note_on_c, 8, 73, 100
1, 25346, Note_on_c, 8, 69, 100
1, 25346, Control_c, 8, 0, 0
1, 25346, Control_c, 8, 32, 0
1, 25346, Program_c, 8, 49
1, 25346, Note_on_c, 8, 65, 100
1, 25348, Control_c, 8, 0, 0
1, 25348, Control_c, 8, 32, 0
1, 25348, Program_c, 8, 44
1, 25348, Note_on_c, 8, 65, 0
1, 25348, Note_on_c, 8, 81, 0
1, 25348, Control_c, 8, 0, 0
1, 25348, Control_c, 8, 32, 0
1, 25348, Program_c, 8, 49
1, 25348, Note_on_c, 8, 61, 0
1, 25348, Control_c, 8, 0, 0
1, 25348, Control_c, 8, 32, 0
1, 25348, Program_c, 8, 44
1, 25348, Note_on_c, 8, 77, 0
1, 25378, Control_c, 7, 11, 108
1, 25378, Control_c, 8, 11, 108
1, 25410, Control_c, 7, 11, 110
1, 25410, Control_c, 8, 11, 110
1, 25410, Note_on_c, 8, 74, 100
1, 25410, Note_on_c, 8, 68, 100
1, 25410, Note_on_c, 8, 78, 100
1, 25410, Control_c, 8, 0, 0
1, 25410, Control_c, 8, 32, 0
1, 25410, Program_c, 8, 49
1, 25410, Note_on_c, 8, 64, 100
1, 25411, Control_c, 8, 0, 0
1, 25411, Control_c, 8, 32, 0
1, 25411, Program_c, 8, 44
1, 25411, Note_on_c, 8, 77, 0
1, 25411, Note_on_c, 8, 73, 0
1, 25411, Note_on_c, 8, 69, 0
1, 25411, Control_c, 8, 0, 0
1, 25411, Control_c, 8, 32, 0
1, 25411, Program_c, 8, 49
1, 25411, Note_on_c, 8, 65, 0
1, 25441, Control_c, 7, 11, 112
1, 25441, Control_c, 8, 11, 112
1, 25473, Control_c, 7, 11, 114
1, 25473, Control_c, 8, 11, 114
1, 25473, Control_c, 8, 0, 0
1, 25473, Control_c, 8, 32, 0
1, 25473, Program_c, 8, 44
1, 25473, Note_on_c, 8, 75, 100
1, 25473, Note_on_c, 8, 67, 100
1, 25473, Note_on_c, 8, 79, 100
1, 25473, Control_c, 8, 0, 0
1, 25473, Control_c, 8, 32, 0
1, 25473, Program_c, 8, 49
1, 25473, Note_on_c, 8, 63, 100
1, 25474, Control_c, 8, 0, 0
1, 25474, Control_c, 8, 32, 0
1, 25474, Program_c, 8, 44
1, 25474, Note_on_c, 8, 74, 0
1, 25474, Note_on_c, 8, 68, 0
1, 25474, Note_on_c, 8, 78, 0
1, 25474, Control_c, 8, 0, 0
1, 25474, Control_c, 8, 32, 0
1, 25474, Program_c, 8, 49
1, 25474, Note_on_c, 8, 64, 0
1, 25504, Control_c, 7, 11, 115
1, 25504, Control_c, 8, 11, 115
1, 25535, Note_on_c, 7, 59, 0
1, 25535, Note_on_c, 7, 71, 0
1, 25535, Note_on_c, 7, 71, 0
1, 25535, Note_on_c, 7, 83, 0
1, 25536, Control_c, 8, 0, 0
1, 25536, Control_c, 8, 32, 0
1, 25536, Program_c, 8, 44
1, 25536, Note_on_c, 8, 75, 0
1, 25536, Note_on_c, 8, 67, 0
1, 25536, Control_c, 0, 1, 0
1, 25536, Note_on_c, 4, 47, 120
1, 25536, Note_on_c, 4, 47, 120
1, 25536, Control_c, 5, 7, 115
1, 25536, Note_on_c, 5, 47, 120
1, 25536, Control_c, 6, 73, 0
1, 25536, Control_c, 7, 11, 100
1, 25536, Control_c, 0, 0, 127
1, 25536, Control_c, 0, 32, 0
1, 25536, Program_c, 0, 255
1, 25536, Note_on_c, 9, 29, 120
1, 25536, Control_c, 8, 11, 100
1, 25536, Control_c, 8, 11, 100
1, 25537, Note_on_c, 6, 35, 120
1, 25537, Note_on_c, 6, 29, 120
1, 25537, Note_on_c, 6, 47, 120
1, 25537, Note_on_c, 6, 47, 120
1, 25537, Control_c, 7, 0, 0
1, 25537, Control_c, 7, 32, 0
1, 25537, Program_c, 7, 46
1, 25537, Note_on_c, 7, 35, 120
1, 25537, Note_on_c, 9, 35, 120
1, 25538, Note_on_c, 8, 79, 0
1, 25538, Control_c, 8, 0, 0
1, 25538, Control_c, 8, 32, 0
1, 25538, Program_c, 8, 49
1, 25538, Note_on_c, 8, 63, 0
1, 25546, Note_on_c, 4, 51, 120
1, 25546, Note_on_c, 4, 51, 120
1, 25548, Note_on_c, 4, 47, 0
1, 25548, Note_on_c, 4, 47, 0
1, 25558, Note_on_c, 4, 51, 0
1, 25558, Note_on_c, 4, 51, 0
1, 25558, Note_on_c, 4, 54, 120
1, 25558, Note_on_c, 4, 54, 120
1, 25565, Note_on_c, 5, 47, 0
1, 25565, Note_on_c, 9, 29, 0
1, 25566, Note_on_c, 9, 35, 0
1, 25569, Note_on_c, 4, 57, 120
1, 25569, Note_on_c, 4, 57, 120
1, 25570, Note_on_c, 4, 54, 0
1, 25570, Note_on_c, 4, 54, 0
1, 25580, Note_on_c, 4, 59, 120
1, 25580, Note_on_c, 4, 59, 120
1, 25581, Note_on_c, 4, 57, 0
1, 25581, Note_on_c, 4, 57, 0
1, 25591, Note_on_c, 4, 61, 120
1, 25591, Note_on_c, 4, 61, 120
1, 25592, Note_on_c, 4, 59, 0
1, 25592, Note_on_c, 4, 59, 0
1, 25601, Control_c, 0, 0, 0
1, 25601, Control_c, 0, 32, 0
1, 25601, Program_c, 0, 73
1, 25601, Note_on_c, 0, 83, 110
1, 25601, Note_on_c, 0, 83, 110
1, 25601, Control_c, 8, 0, 0
1, 25601, Control_c, 8, 32, 0
1, 25601, Program_c, 8, 44
1, 25601, Note_on_c, 8, 83, 110
1, 25601, Control_c, 8, 0, 0
1, 25601, Control_c, 8, 32, 0
1, 25601, Program_c, 8, 49
1, 25601, Note_on_c, 8, 71, 110
1, 25601, Note_on_c, 8, 71, 110
1, 25601, Note_on_c, 8, 59, 110
1, 25602, Note_on_c, 4, 63, 120
1, 25602, Note_on_c, 4, 63, 120
1, 25603, Note_on_c, 4, 61, 0
1, 25603, Note_on_c, 4, 61, 0
1, 25606, Note_on_c, 0, 83, 0
1, 25606, Note_on_c, 0, 83, 0
1, 25606, Control_c, 8, 0, 0
1, 25606, Control_c, 8, 32, 0
1, 25606, Program_c, 8, 44
1, 25606, Note_on_c, 8, 83, 0
1, 25606, Control_c, 8, 0, 0
1, 25606, Control_c, 8, 32, 0
1, 25606, Program_c, 8, 49
1, 25606, Note_on_c, 8, 71, 0
1, 25606, Note_on_c, 8, 71, 0
1, 25606, Note_on_c, 8, 59, 0
1, 25606, Note_on_c, 0, 85, 110
1, 25606, Note_on_c, 0, 85, 110
1, 25606, Control_c, 8, 0, 0
1, 25606, Control_c, 8, 32, 0
1, 25606, Program_c, 8, 44
1, 25606, Note_on_c, 8, 85, 110
1, 25606, Control_c, 8, 0, 0
1, 25606, Control_c, 8, 32, 0
1, 25606, Program_c, 8, 49
1, 25606, Note_on_c, 8, 73, 110
1, 25606, Note_on_c, 8, 73, 110
1, 25606, Note_on_c, 8, 61, 110
1, 25612, Note_on_c, 0, 85, 0
1, 25612, Note_on_c, 0, 85, 0
1, 25612, Control_c, 8, 0, 0
1, 25612, Control_c, 8, 32, 0
1, 25612, Program_c, 8, 44
1, 25612, Note_on_c, 8, 85, 0
1, 25612, Control_c, 8, 0, 0
1, 25612, Control_c, 8, 32, 0
1, 25612, Program_c, 8, 49
1, 25612, Note_on_c, 8, 73, 0
1, 25612, Note_on_c, 8, 73, 0
1, 25612, Note_on_c, 8, 61, 0
1, 25612, Note_on_c, 0, 87, 110
1, 25612, Note_on_c, 0, 87, 110
1, 25612, Control_c, 8, 0, 0
1, 25612, Control_c, 8, 32, 0
1, 25612, Program_c, 8, 44
1, 25612, Note_on_c, 8, 87, 110
1, 25612, Control_c, 8, 0, 0
1, 25612, Control_c, 8, 32, 0
1, 25612, Program_c, 8, 49
1, 25612, Note_on_c, 8, 75, 110
1, 25612, Note_on_c, 8, 75, 110
1, 25612, Note_on_c, 8, 63, 110
1, 25614, Note_on_c, 4, 63, 0
1, 25614, Note_on_c, 4, 63, 0
1, 25618, Note_on_c, 0, 87, 0
1, 25618, Note_on_c, 0, 87, 0
1, 25618, Control_c, 8, 0, 0
1, 25618, Control_c, 8, 32, 0
1, 25618, Program_c, 8, 44
1, 25618, Note_on_c, 8, 87, 0
1, 25618, Control_c, 8, 0, 0
1, 25618, Control_c, 8, 32, 0
1, 25618, Program_c, 8, 49
1, 25618, Note_on_c, 8, 75, 0
1, 25618, Note_on_c, 8, 75, 0
1, 25618, Note_on_c, 8, 63, 0
1, 25618, Note_on_c, 0, 88, 110
1, 25618, Note_on_c, 0, 88, 110
1, 25618, Control_c, 8, 0, 0
1, 25618, Control_c, 8, 32, 0
1, 25618, Program_c, 8, 44
1, 25618, Note_on_c, 8, 88, 110
1, 25618, Control_c, 8, 0, 0
1, 25618, Control_c, 8, 32, 0
1, 25618, Program_c, 8, 49
1, 25618, Note_on_c, 8, 76, 110
1, 25618, Note_on_c, 8, 76, 110
1, 25618, Note_on_c, 8, 64, 110
1, 25623, Note_on_c, 0, 88, 0
1, 25623, Note_on_c, 0, 88, 0
1, 25623, Control_c, 8, 0, 0
1, 25623, Control_c, 8, 32, 0
1, 25623, Program_c, 8, 44
1, 25623, Note_on_c, 8, 88, 0
1, 25623, Control_c, 8, 0, 0
1, 25623, Control_c, 8, 32, 0
1, 25623, Program_c, 8, 49
1, 25623, Note_on_c, 8, 76, 0
1, 25623, Note_on_c, 8, 76, 0
1, 25623, Note_on_c, 8, 64, 0
1, 25624, Note_on_c, 0, 90, 110
1, 25624, Note_on_c, 0, 90, 110
1, 25624, Note_on_c, 4, 66, 120
1, 25624, Note_on_c, 4, 66, 120
1, 25624, Note_on_c, 5, 71, 120
1, 25624, Note_on_c, 5, 78, 120
1, 25624, Note_on_c, 5, 59, 120
1, 25624, Note_on_c, 5, 66, 120
1, 25624, Control_c, 8, 0, 0
1, 25624, Control_c, 8, 32, 0
1, 25624, Program_c, 8, 44
1, 25624, Note_on_c, 8, 90, 110
1, 25624, Control_c, 8, 0, 0
1, 25624, Control_c, 8, 32, 0
1, 25624, Program_c, 8, 49
1, 25624, Note_on_c, 8, 71, 110
1, 25624, Note_on_c, 8, 71, 110
1, 25624, Note_on_c, 8, 59, 110
1, 25624, Note_on_c, 8, 59, 110
1, 25624, Note_on_c, 8, 78, 110
1, 25624, Note_on_c, 8, 78, 110
1, 25624, Note_on_c, 8, 66, 110
1, 25638, Note_on_c, 0, 90, 0
1, 25638, Note_on_c, 0, 90, 0
1, 25638, Note_on_c, 0, 92, 110
1, 25638, Note_on_c, 0, 92, 110
1, 25653, Note_on_c, 0, 92, 0
1, 25653, Note_on_c, 0, 92, 0
1, 25653, Note_on_c, 0, 90, 110
1, 25653, Note_on_c, 0, 90, 110
1, 25654, Note_on_c, 6, 35, 0
1, 25654, Note_on_c, 6, 29, 0
1, 25658, Note_on_c, 4, 66, 0
1, 25658, Note_on_c, 4, 66, 0
1, 25668, Note_on_c, 0, 90, 0
1, 25668, Note_on_c, 0, 90, 0
1, 25668, Note_on_c, 0, 92, 110
1, 25668, Note_on_c, 0, 92, 110
1, 25682, Note_on_c, 5, 71, 0
1, 25682, Note_on_c, 5, 78, 0
1, 25682, Note_on_c, 5, 59, 0
1, 25682, Note_on_c, 5, 66, 0
1, 25682, Note_on_c, 0, 92, 0
1, 25682, Note_on_c, 0, 92, 0
1, 25682, Note_on_c, 0, 90, 110
1, 25682, Note_on_c, 0, 90, 110
1, 25697, Note_on_c, 0, 90, 0
1, 25697, Note_on_c, 0, 90, 0
1, 25697, Note_on_c, 0, 92, 110
1, 25697, Note_on_c, 0, 92, 110
1, 25712, Note_on_c, 0, 92, 0
1, 25712, Note_on_c, 0, 92, 0
1, 25712, Note_on_c, 0, 90, 110
1, 25712, Note_on_c, 0, 90, 110
1, 25712, Note_on_c, 5, 76, 120
1, 25712, Note_on_c, 5, 73, 120
1, 25712, Note_on_c, 5, 64, 120
1, 25712, Note_on_c, 5, 61, 120
1, 25712, Note_on_c, 6, 47, 0
1, 25712, Note_on_c, 6, 47, 0
1, 25726, Note_on_c, 0, 90, 0
1, 25726, Note_on_c, 0, 90, 0
1, 25726, Note_on_c, 0, 92, 110
1, 25726, Note_on_c, 0, 92, 110
1, 25741, Note_on_c, 0, 92, 0
1, 25741, Note_on_c, 0, 92, 0
1, 25741, Note_on_c, 0, 90, 110
1, 25741, Note_on_c, 0, 90, 110
1, 25756, Note_on_c, 0, 90, 0
1, 25756, Note_on_c, 0, 90, 0
1, 25756, Note_on_c, 0, 92, 110
1, 25756, Note_on_c, 0, 92, 110
1, 25770, Note_on_c, 5, 76, 0
1, 25770, Note_on_c, 5, 73, 0
1, 25770, Note_on_c, 5, 64, 0
1, 25770, Note_on_c, 5, 61, 0
1, 25770, Note_on_c, 0, 92, 0
1, 25770, Note_on_c, 0, 92, 0
1, 25770, Note_on_c, 0, 90, 110
1, 25770, Note_on_c, 0, 90, 110
1, 25785, Note_on_c, 0, 90, 0
1, 25785, Note_on_c, 0, 90, 0
1, 25785, Note_on_c, 0, 92, 110
1, 25785, Note_on_c, 0, 92, 110
1, 25800, Note_on_c, 0, 92, 0
1, 25800, Note_on_c, 0, 92, 0
1, 25800, Note_on_c, 0, 90, 110
1, 25800, Note_on_c, 0, 90, 110
1, 25800, Note_on_c, 5, 75, 120
1, 25800, Note_on_c, 5, 75, 120
1, 25800, Note_on_c, 5, 63, 120
1, 25800, Note_on_c, 5, 63, 120
1, 25814, Note_on_c, 0, 90, 0
1, 25814, Note_on_c, 0, 90, 0
1, 25814, Note_on_c, 0, 92, 110
1, 25814, Note_on_c, 0, 92, 110
1, 25829, Note_on_c, 0, 92, 0
1, 25829, Note_on_c, 0, 92, 0
1, 25829, Note_on_c, 0, 90, 110
1, 25829, Note_on_c, 0, 90, 110
1, 25843, Note_on_c, 0, 90, 0
1, 25843, Note_on_c, 0, 90, 0
1, 25843, Note_on_c, 0, 92, 110
1, 25843, Note_on_c, 0, 92, 110
1, 25858, Note_on_c, 5, 75, 0
1, 25858, Note_on_c, 5, 75, 0
1, 25858, Note_on_c, 5, 63, 0
1, 25858, Note_on_c, 5, 63, 0
1, 25858, Note_on_c, 0, 92, 0
1, 25858, Note_on_c, 0, 92, 0
1, 25858, Note_on_c, 0, 90, 110
1, 25858, Note_on_c, 0, 90, 110
1, 25872, Note_on_c, 0, 90, 0
1, 25872, Note_on_c, 0, 90, 0
1, 25872, Note_on_c, 0, 92, 110
1, 25872, Note_on_c, 0, 92, 110
1, 25887, Note_on_c, 0, 92, 0
1, 25887, Note_on_c, 0, 92, 0
1, 25887, Note_on_c, 0, 90, 110
1, 25887, Note_on_c, 0, 90, 110
1, 25887, Note_on_c, 5, 71, 120
1, 25887, Note_on_c, 5, 78, 120
1, 25887, Note_on_c, 5, 59, 120
1, 25887, Note_on_c, 5, 66, 120
1, 25902, Note_on_c, 0, 90, 0
1, 25902, Note_on_c, 0, 90, 0
1, 25902, Note_on_c, 0, 92, 110
1, 25902, Note_on_c, 0, 92, 110
1, 25916, Note_on_c, 0, 92, 0
1, 25916, Note_on_c, 0, 92, 0
1, 25916, Note_on_c, 0, 90, 110
1, 25916, Note_on_c, 0, 90, 110
1, 25931, Note_on_c, 0, 90, 0
1, 25931, Note_on_c, 0, 90, 0
1, 25931, Note_on_c, 0, 92, 110
1, 25931, Note_on_c, 0, 92, 110
1, 25946, Note_on_c, 5, 71, 0
1, 25946, Note_on_c, 5, 78, 0
1, 25946, Note_on_c, 5, 59, 0
1, 25946, Note_on_c, 5, 66, 0
1, 25946, Note_on_c, 0, 92, 0
1, 25946, Note_on_c, 0, 92, 0
1, 25946, Note_on_c, 0, 90, 110
1, 25946, Note_on_c, 0, 90, 110
1, 25960, Note_on_c, 0, 90, 0
1, 25960, Note_on_c, 0, 90, 0
1, 25960, Note_on_c, 0, 92, 110
1, 25960, Note_on_c, 0, 92, 110
1, 25975, Note_on_c, 0, 92, 0
1, 25975, Note_on_c, 0, 92, 0
1, 25975, Note_on_c, 0, 90, 110
1, 25975, Note_on_c, 0, 90, 110
1, 25975, Note_on_c, 5, 66, 120
1, 25975, Note_on_c, 5, 73, 120
1, 25975, Note_on_c, 5, 54, 120
1, 25975, Note_on_c, 5, 61, 120
1, 25990, Note_on_c, 0, 90, 0
1, 25990, Note_on_c, 0, 90, 0
1, 25990, Note_on_c, 0, 92, 110
1, 25990, Note_on_c, 0, 92, 110
1, 26004, Note_on_c, 0, 92, 0
1, 26004, Note_on_c, 0, 92, 0
1, 26004, Note_on_c, 0, 90, 110
1, 26004, Note_on_c, 0, 90, 110
1, 26019, Note_on_c, 0, 90, 0
1, 26019, Note_on_c, 0, 90, 0
1, 26019, Note_on_c, 0, 92, 110
1, 26019, Note_on_c, 0, 92, 110
1, 26034, Note_on_c, 5, 66, 0
1, 26034, Note_on_c, 5, 73, 0
1, 26034, Note_on_c, 5, 54, 0
1, 26034, Note_on_c, 5, 61, 0
1, 26034, Note_on_c, 0, 92, 0
1, 26034, Note_on_c, 0, 92, 0
1, 26034, Note_on_c, 0, 90, 110
1, 26034, Note_on_c, 0, 90, 110
1, 26048, Note_on_c, 0, 90, 0
1, 26048, Note_on_c, 0, 90, 0
1, 26048, Note_on_c, 0, 92, 110
1, 26048, Note_on_c, 0, 92, 110
1, 26063, Note_on_c, 0, 92, 0
1, 26063, Note_on_c, 0, 92, 0
1, 26063, Note_on_c, 0, 90, 110
1, 26063, Note_on_c, 0, 90, 110
1, 26063, Note_on_c, 5, 68, 120
1, 26063, Note_on_c, 5, 71, 120
1, 26063, Note_on_c, 5, 56, 120
1, 26063, Note_on_c, 5, 59, 120
1, 26078, Note_on_c, 0, 90, 0
1, 26078, Note_on_c, 0, 90, 0
1, 26078, Note_on_c, 0, 92, 110
1, 26078, Note_on_c, 0, 92, 110
1, 26092, Note_on_c, 0, 92, 0
1, 26092, Note_on_c, 0, 92, 0
1, 26092, Note_on_c, 0, 90, 110
1, 26092, Note_on_c, 0, 90, 110
1, 26107, Note_on_c, 0, 90, 0
1, 26107, Note_on_c, 0, 90, 0
1, 26107, Note_on_c, 0, 92, 110
1, 26107, Note_on_c, 0, 92, 110
1, 26121, Note_on_c, 5, 68, 0
1, 26121, Note_on_c, 5, 71, 0
1, 26121, Note_on_c, 5, 56, 0
1, 26121, Note_on_c, 5, 59, 0
1, 26121, Note_on_c, 0, 92, 0
1, 26121, Note_on_c, 0, 92, 0
1, 26121, Note_on_c, 0, 90, 110
1, 26121, Note_on_c, 0, 90, 110
1, 26136, Note_on_c, 0, 90, 0
1, 26136, Note_on_c, 0, 90, 0
1, 26136, Note_on_c, 0, 92, 110
1, 26136, Note_on_c, 0, 92, 110
1, 26151, Note_on_c, 0, 92, 0
1, 26151, Note_on_c, 0, 92, 0
1, 26151, Note_on_c, 0, 90, 110
1, 26151, Note_on_c, 0, 90, 110
1, 26151, Note_on_c, 5, 76, 120
1, 26151, Note_on_c, 5, 69, 120
1, 26151, Note_on_c, 5, 64, 120
1, 26151, Note_on_c, 5, 57, 120
1, 26151, Note_on_c, 8, 59, 110
1, 26151, Note_on_c, 8, 59, 110
1, 26165, Note_on_c, 0, 90, 0
1, 26165, Note_on_c, 0, 90, 0
1, 26165, Note_on_c, 0, 92, 110
1, 26165, Note_on_c, 0, 92, 110
1, 26180, Note_on_c, 0, 92, 0
1, 26180, Note_on_c, 0, 92, 0
1, 26180, Note_on_c, 0, 90, 110
1, 26180, Note_on_c, 0, 90, 110
1, 26194, Note_on_c, 0, 90, 0
1, 26194, Note_on_c, 0, 90, 0
1, 26194, Note_on_c, 0, 92, 110
1, 26194, Note_on_c, 0, 92, 110
1, 26209, Note_on_c, 5, 76, 0
1, 26209, Note_on_c, 5, 69, 0
1, 26209, Note_on_c, 5, 64, 0
1, 26209, Note_on_c, 5, 57, 0
1, 26209, Note_on_c, 0, 92, 0
1, 26209, Note_on_c, 0, 92, 0
1, 26209, Note_on_c, 0, 90, 110
1, 26209, Note_on_c, 0, 90, 110
1, 26224, Note_on_c, 0, 90, 0
1, 26224, Note_on_c, 0, 90, 0
1, 26224, Note_on_c, 0, 92, 110
1, 26224, Note_on_c, 0, 92, 110
1, 26238, Note_on_c, 0, 92, 0
1, 26238, Note_on_c, 0, 92, 0
1, 26238, Note_on_c, 0, 90, 110
1, 26238, Note_on_c, 0, 90, 110
1, 26238, Note_on_c, 5, 71, 120
1, 26238, Note_on_c, 5, 75, 120
1, 26238, Note_on_c, 5, 59, 120
1, 26238, Note_on_c, 5, 63, 120
1, 26253, Note_on_c, 0, 90, 0
1, 26253, Note_on_c, 0, 90, 0
1, 26253, Note_on_c, 0, 92, 110
1, 26253, Note_on_c, 0, 92, 110
1, 26268, Note_on_c, 0, 92, 0
1, 26268, Note_on_c, 0, 92, 0
1, 26268, Note_on_c, 0, 90, 110
1, 26268, Note_on_c, 0, 90, 110
1, 26282, Note_on_c, 0, 90, 0
1, 26282, Note_on_c, 0, 90, 0
1, 26282, Note_on_c, 0, 92, 110
1, 26282, Note_on_c, 0, 92, 110
1, 26297, Note_on_c, 5, 71, 0
1, 26297, Note_on_c, 5, 75, 0
1, 26297, Note_on_c, 5, 59, 0
1, 26297, Note_on_c, 5, 63, 0
1, 26297, Note_on_c, 0, 92, 0
1, 26297, Note_on_c, 0, 92, 0
1, 26297, Note_on_c, 0, 90, 110
1, 26297, Note_on_c, 0, 90, 110
1, 26312, Note_on_c, 0, 90, 0
1, 26312, Note_on_c, 0, 90, 0
1, 26312, Note_on_c, 0, 92, 110
1, 26312, Note_on_c, 0, 92, 110
1, 26326, Note_on_c, 0, 92, 0
1, 26326, Note_on_c, 0, 92, 0
1, 26326, Note_on_c, 0, 90, 110
1, 26326, Note_on_c, 0, 90, 110
1, 26326, Note_on_c, 5, 73, 120
1, 26326, Note_on_c, 5, 61, 120
1, 26326, Note_on_c, 5, 61, 120
1, 26341, Note_on_c, 0, 90, 0
1, 26341, Note_on_c, 0, 90, 0
1, 26341, Note_on_c, 0, 92, 110
1, 26341, Note_on_c, 0, 92, 110
1, 26356, Note_on_c, 0, 92, 0
1, 26356, Note_on_c, 0, 92, 0
1, 26356, Note_on_c, 0, 90, 110
1, 26356, Note_on_c, 0, 90, 110
1, 26370, Note_on_c, 0, 90, 0
1, 26370, Note_on_c, 0, 90, 0
1, 26370, Note_on_c, 0, 92, 110
1, 26370, Note_on_c, 0, 92, 110
1, 26385, Note_on_c, 5, 73, 0
1, 26385, Note_on_c, 5, 61, 0
1, 26385, Note_on_c, 5, 61, 0
1, 26385, Note_on_c, 0, 92, 0
1, 26385, Note_on_c, 0, 92, 0
1, 26385, Note_on_c, 0, 90, 110
1, 26385, Note_on_c, 0, 90, 110
1, 26400, Note_on_c, 0, 90, 0
1, 26400, Note_on_c, 0, 90, 0
1, 26400, Note_on_c, 0, 92, 110
1, 26400, Note_on_c, 0, 92, 110
1, 26414, Note_on_c, 0, 92, 0
1, 26414, Note_on_c, 0, 92, 0
1, 26414, Note_on_c, 0, 90, 110
1, 26414, Note_on_c, 0, 90, 110
1, 26414, Note_on_c, 5, 76, 120
1, 26414, Note_on_c, 5, 69, 120
1, 26414, Note_on_c, 5, 64, 120
1, 26414, Note_on_c, 5, 57, 120
1, 26429, Note_on_c, 0, 90, 0
1, 26429, Note_on_c, 0, 90, 0
1, 26429, Note_on_c, 0, 92, 110
1, 26429, Note_on_c, 0, 92, 110
1, 26443, Note_on_c, 0, 92, 0
1, 26443, Note_on_c, 0, 92, 0
1, 26443, Note_on_c, 0, 90, 110
1, 26443, Note_on_c, 0, 90, 110
1, 26458, Note_on_c, 0, 90, 0
1, 26458, Note_on_c, 0, 90, 0
1, 26458, Note_on_c, 0, 92, 110
1, 26458, Note_on_c, 0, 92, 110
1, 26472, Note_on_c, 5, 76, 0
1, 26472, Note_on_c, 5, 69, 0
1, 26472, Note_on_c, 5, 64, 0
1, 26472, Note_on_c, 5, 57, 0
1, 26472, Note_on_c, 0, 92, 0
1, 26472, Note_on_c, 0, 92, 0
1, 26472, Note_on_c, 0, 90, 110
1, 26472, Note_on_c, 0, 90, 110
1, 26487, Note_on_c, 0, 90, 0
1, 26487, Note_on_c, 0, 90, 0
1, 26487, Note_on_c, 0, 92, 110
1, 26487, Note_on_c, 0, 92, 110
1, 26502, Note_on_c, 0, 92, 0
1, 26502, Note_on_c, 0, 92, 0
1, 26502, Note_on_c, 0, 90, 110
1, 26502, Note_on_c, 0, 90, 110
1, 26502, Note_on_c, 5, 71, 120
1, 26502, Note_on_c, 5, 75, 120
1, 26502, Note_on_c, 5, 59, 120
1, 26502, Note_on_c, 5, 63, 120
1, 26516, Note_on_c, 0, 90, 0
1, 26516, Note_on_c, 0, 90, 0
1, 26516, Note_on_c, 0, 92, 110
1, 26516, Note_on_c, 0, 92, 110
1, 26531, Note_on_c, 0, 92, 0
1, 26531, Note_on_c, 0, 92, 0
1, 26531, Note_on_c, 0, 90, 110
1, 26531, Note_on_c, 0, 90, 110
1, 26546, Note_on_c, 0, 90, 0
1, 26546, Note_on_c, 0, 90, 0
1, 26546, Note_on_c, 0, 92, 110
1, 26546, Note_on_c, 0, 92, 110
1, 26560, Note_on_c, 5, 71, 0
1, 26560, Note_on_c, 5, 75, 0
1, 26560, Note_on_c, 5, 59, 0
1, 26560, Note_on_c, 5, 63, 0
1, 26560, Note_on_c, 0, 92, 0
1, 26560, Note_on_c, 0, 92, 0
1, 26560, Note_on_c, 0, 90, 110
1, 26560, Note_on_c, 0, 90, 110
1, 26575, Note_on_c, 0, 90, 0
1, 26575, Note_on_c, 0, 90, 0
1, 26575, Note_on_c, 0, 92, 110
1, 26575, Note_on_c, 0, 92, 110
1, 26590, Note_on_c, 0, 92, 0
1, 26590, Note_on_c, 0, 92, 0
1, 26590, Note_on_c, 0, 90, 110
1, 26590, Note_on_c, 0, 90, 110
1, 26590, Note_on_c, 5, 71, 120
1, 26590, Note_on_c, 5, 59, 120
1, 26590, Note_on_c, 5, 59, 120
1, 26604, Note_on_c, 0, 90, 0
1, 26604, Note_on_c, 0, 90, 0
1, 26604, Note_on_c, 0, 92, 110
1, 26604, Note_on_c, 0, 92, 110
1, 26619, Note_on_c, 0, 92, 0
1, 26619, Note_on_c, 0, 92, 0
1, 26619, Note_on_c, 0, 90, 110
1, 26619, Note_on_c, 0, 90, 110
1, 26634, Note_on_c, 0, 90, 0
1, 26634, Note_on_c, 0, 90, 0
1, 26634, Note_on_c, 0, 92, 110
1, 26634, Note_on_c, 0, 92, 110
1, 26648, Note_on_c, 5, 71, 0
1, 26648, Note_on_c, 5, 59, 0
1, 26648, Note_on_c, 5, 59, 0
1, 26648, Note_on_c, 0, 92, 0
1, 26648, Note_on_c, 0, 92, 0
1, 26648, Note_on_c, 0, 90, 110
1, 26648, Note_on_c, 0, 90, 110
1, 26663, Note_on_c, 0, 90, 0
1, 26663, Note_on_c, 0, 90, 0
1, 26663, Note_on_c, 0, 92, 110
1, 26663, Note_on_c, 0, 92, 110
1, 26678, Note_on_c, 0, 92, 0
1, 26678, Note_on_c, 0, 92, 0
1, 26678, Note_on_c, 0, 90, 110
1, 26678, Note_on_c, 0, 90, 110
1, 26678, Note_on_c, 5, 66, 120
1, 26678, Note_on_c, 5, 73, 120
1, 26678, Note_on_c, 5, 54, 120
1, 26678, Note_on_c, 5, 61, 120
1, 26692, Note_on_c, 0, 90, 0
1, 26692, Note_on_c, 0, 90, 0
1, 26692, Note_on_c, 0, 92, 110
1, 26692, Note_on_c, 0, 92, 110
1, 26707, Note_on_c, 0, 92, 0
1, 26707, Note_on_c, 0, 92, 0
1, 26707, Note_on_c, 0, 90, 110
1, 26707, Note_on_c, 0, 90, 110
1, 26721, Note_on_c, 0, 90, 0
1, 26721, Note_on_c, 0, 90, 0
1, 26721, Note_on_c, 0, 92, 110
1, 26721, Note_on_c, 0, 92, 110
1, 26736, Note_on_c, 5, 66, 0
1, 26736, Note_on_c, 5, 73, 0
1, 26736, Note_on_c, 5, 54, 0
1, 26736, Note_on_c, 5, 61, 0
1, 26736, Note_on_c, 0, 92, 0
1, 26736, Note_on_c, 0, 92, 0
1, 26736, Note_on_c, 0, 90, 110
1, 26736, Note_on_c, 0, 90, 110
1, 26751, Note_on_c, 0, 90, 0
1, 26751, Note_on_c, 0, 90, 0
1, 26751, Note_on_c, 0, 92, 110
1, 26751, Note_on_c, 0, 92, 110
1, 26765, Note_on_c, 7, 35, 0
1, 26765, Control_c, 8, 0, 0
1, 26765, Control_c, 8, 32, 0
1, 26765, Program_c, 8, 44
1, 26765, Note_on_c, 8, 90, 0
1, 26765, Control_c, 8, 0, 0
1, 26765, Control_c, 8, 32, 0
1, 26765, Program_c, 8, 49
1, 26765, Note_on_c, 8, 71, 0
1, 26765, Note_on_c, 8, 71, 0
1, 26765, Note_on_c, 8, 59, 0
1, 26765, Note_on_c, 8, 59, 0
1, 26765, Note_on_c, 8, 78, 0
1, 26765, Note_on_c, 8, 78, 0
1, 26765, Note_on_c, 8, 66, 0
1, 26765, Note_on_c, 8, 59, 0
1, 26765, Note_on_c, 8, 59, 0
1, 26765, Note_on_c, 0, 92, 0
1, 26765, Note_on_c, 0, 92, 0
1, 26765, Note_on_c, 3, 47, 120
1, 26765, Note_on_c, 4, 47, 120
1, 26765, Note_on_c, 4, 47, 120
1, 26765, Note_on_c, 5, 47, 120
1, 26765, Note_on_c, 6, 35, 120
1, 26765, Note_on_c, 6, 29, 120
1, 26765, Note_on_c, 6, 47, 120
1, 26765, Note_on_c, 6, 47, 120
1, 26765, Note_on_c, 7, 35, 120
1, 26765, Note_on_c, 9, 35, 120
1, 26765, Note_on_c, 9, 29, 120
1, 26765, Control_c, 8, 11, 100
1, 26775, Note_on_c, 4, 51, 120
1, 26775, Note_on_c, 4, 51, 120
1, 26777, Note_on_c, 4, 47, 0
1, 26777, Note_on_c, 4, 47, 0
1, 26787, Note_on_c, 4, 51, 0
1, 26787, Note_on_c, 4, 51, 0
1, 26787, Note_on_c, 4, 54, 120
1, 26787, Note_on_c, 4, 54, 120
1, 26794, Note_on_c, 5, 47, 0
1, 26794, Note_on_c, 9, 35, 0
1, 26794, Note_on_c, 9, 29, 0
1, 26798, Note_on_c, 4, 57, 120
1, 26798, Note_on_c, 4, 57, 120
1, 26799, Note_on_c, 4, 54, 0
1, 26799, Note_on_c, 4, 54, 0
1, 26809, Note_on_c, 4, 59, 120
1, 26809, Note_on_c, 4, 59, 120
1, 26810, Note_on_c, 4, 57, 0
1, 26810, Note_on_c, 4, 57, 0
1, 26820, Note_on_c, 4, 61, 120
1, 26820, Note_on_c, 4, 61, 120
1, 26821, Note_on_c, 4, 59, 0
1, 26821, Note_on_c, 4, 59, 0
1, 26830, Note_on_c, 0, 83, 110
1, 26830, Note_on_c, 0, 83, 110
1, 26830, Control_c, 8, 0, 0
1, 26830, Control_c, 8, 32, 0
1, 26830, Program_c, 8, 44
1, 26830, Note_on_c, 8, 83, 110
1, 26830, Control_c, 8, 0, 0
1, 26830, Control_c, 8, 32, 0
1, 26830, Program_c, 8, 49
1, 26830, Note_on_c, 8, 71, 110
1, 26830, Note_on_c, 8, 71, 110
1, 26830, Note_on_c, 8, 59, 110
1, 26831, Note_on_c, 4, 63, 120
1, 26831, Note_on_c, 4, 63, 120
1, 26832, Note_on_c, 4, 61, 0
1, 26832, Note_on_c, 4, 61, 0
1, 26836, Note_on_c, 0, 83, 0
1, 26836, Note_on_c, 0, 83, 0
1, 26836, Control_c, 8, 0, 0
1, 26836, Control_c, 8, 32, 0
1, 26836, Program_c, 8, 44
1, 26836, Note_on_c, 8, 83, 0
1, 26836, Control_c, 8, 0, 0
1, 26836, Control_c, 8, 32, 0
1, 26836, Program_c, 8, 49
1, 26836, Note_on_c, 8, 71, 0
1, 26836, Note_on_c, 8, 71, 0
1, 26836, Note_on_c, 8, 59, 0
1, 26836, Note_on_c, 0, 85, 110
1, 26836, Note_on_c, 0, 85, 110
1, 26836, Control_c, 8, 0, 0
1, 26836, Control_c, 8, 32, 0
1, 26836, Program_c, 8, 44
1, 26836, Note_on_c, 8, 85, 110
1, 26836, Control_c, 8, 0, 0
1, 26836, Control_c, 8, 32, 0
1, 26836, Program_c, 8, 49
1, 26836, Note_on_c, 8, 73, 110
1, 26836, Note_on_c, 8, 73, 110
1, 26836, Note_on_c, 8, 61, 110
1, 26841, Note_on_c, 0, 85, 0
1, 26841, Note_on_c, 0, 85, 0
1, 26841, Control_c, 8, 0, 0
1, 26841, Control_c, 8, 32, 0
1, 26841, Program_c, 8, 44
1, 26841, Note_on_c, 8, 85, 0
1, 26841, Control_c, 8, 0, 0
1, 26841, Control_c, 8, 32, 0
1, 26841, Program_c, 8, 49
1, 26841, Note_on_c, 8, 73, 0
1, 26841, Note_on_c, 8, 73, 0
1, 26841, Note_on_c, 8, 61, 0
1, 26841, Note_on_c, 0, 87, 110
1, 26841, Note_on_c, 0, 87, 110
1, 26841, Control_c, 8, 0, 0
1, 26841, Control_c, 8, 32, 0
1, 26841, Program_c, 8, 44
1, 26841, Note_on_c, 8, 87, 110
1, 26841, Control_c, 8, 0, 0
1, 26841, Control_c, 8, 32, 0
1, 26841, Program_c, 8, 49
1, 26841, Note_on_c, 8, 75, 110
1, 26841, Note_on_c, 8, 75, 110
1, 26841, Note_on_c, 8, 63, 110
1, 26843, Note_on_c, 4, 63, 0
1, 26843, Note_on_c, 4, 63, 0
1, 26847, Note_on_c, 0, 87, 0
1, 26847, Note_on_c, 0, 87, 0
1, 26847, Control_c, 8, 0, 0
1, 26847, Control_c, 8, 32, 0
1, 26847, Program_c, 8, 44
1, 26847, Note_on_c, 8, 87, 0
1, 26847, Control_c, 8, 0, 0
1, 26847, Control_c, 8, 32, 0
1, 26847, Program_c, 8, 49
1, 26847, Note_on_c, 8, 75, 0
1, 26847, Note_on_c, 8, 75, 0
1, 26847, Note_on_c, 8, 63, 0
1, 26847, Note_on_c, 0, 88, 110
1, 26847, Note_on_c, 0, 88, 110
1, 26847, Control_c, 8, 0, 0
1, 26847, Control_c, 8, 32, 0
1, 26847, Program_c, 8, 44
1, 26847, Note_on_c, 8, 88, 110
1, 26847, Control_c, 8, 0, 0
1, 26847, Control_c, 8, 32, 0
1, 26847, Program_c, 8, 49
1, 26847, Note_on_c, 8, 76, 110
1, 26847, Note_on_c, 8, 76, 110
1, 26847, Note_on_c, 8, 64, 110
1, 26852, Note_on_c, 0, 88, 0
1, 26852, Note_on_c, 0, 88, 0
1, 26852, Control_c, 8, 0, 0
1, 26852, Control_c, 8, 32, 0
1, 26852, Program_c, 8, 44
1, 26852, Note_on_c, 8, 88, 0
1, 26852, Control_c, 8, 0, 0
1, 26852, Control_c, 8, 32, 0
1, 26852, Program_c, 8, 49
1, 26852, Note_on_c, 8, 76, 0
1, 26852, Note_on_c, 8, 76, 0
1, 26852, Note_on_c, 8, 64, 0
1, 26853, Note_on_c, 0, 90, 110
1, 26853, Note_on_c, 0, 90, 110
1, 26853, Note_on_c, 4, 66, 120
1, 26853, Note_on_c, 4, 66, 120
1, 26853, Note_on_c, 5, 71, 120
1, 26853, Note_on_c, 5, 78, 120
1, 26853, Note_on_c, 5, 59, 120
1, 26853, Note_on_c, 5, 66, 120
1, 26853, Control_c, 8, 0, 0
1, 26853, Control_c, 8, 32, 0
1, 26853, Program_c, 8, 44
1, 26853, Note_on_c, 8, 90, 110
1, 26853, Control_c, 8, 0, 0
1, 26853, Control_c, 8, 32, 0
1, 26853, Program_c, 8, 49
1, 26853, Note_on_c, 8, 71, 110
1, 26853, Note_on_c, 8, 71, 110
1, 26853, Note_on_c, 8, 59, 110
1, 26853, Note_on_c, 8, 59, 110
1, 26853, Note_on_c, 8, 78, 110
1, 26853, Note_on_c, 8, 78, 110
1, 26853, Note_on_c, 8, 66, 110
1, 26868, Note_on_c, 0, 90, 0
1, 26868, Note_on_c, 0, 90, 0
1, 26868, Note_on_c, 0, 92, 110
1, 26868, Note_on_c, 0, 92, 110
1, 26882, Note_on_c, 6, 35, 0
1, 26882, Note_on_c, 6, 29, 0
1, 26882, Note_on_c, 0, 92, 0
1, 26882, Note_on_c, 0, 92, 0
1, 26882, Note_on_c, 0, 90, 110
1, 26882, Note_on_c, 0, 90, 110
1, 26888, Note_on_c, 4, 66, 0
1, 26888, Note_on_c, 4, 66, 0
1, 26897, Note_on_c, 0, 90, 0
1, 26897, Note_on_c, 0, 90, 0
1, 26897, Note_on_c, 0, 92, 110
1, 26897, Note_on_c, 0, 92, 110
1, 26912, Note_on_c, 5, 71, 0
1, 26912, Note_on_c, 5, 78, 0
1, 26912, Note_on_c, 5, 59, 0
1, 26912, Note_on_c, 5, 66, 0
1, 26912, Note_on_c, 0, 92, 0
1, 26912, Note_on_c, 0, 92, 0
1, 26912, Note_on_c, 0, 90, 110
1, 26912, Note_on_c, 0, 90, 110
1, 26926, Note_on_c, 0, 90, 0
1, 26926, Note_on_c, 0, 90, 0
1, 26926, Note_on_c, 0, 92, 110
1, 26926, Note_on_c, 0, 92, 110
1, 26941, Note_on_c, 6, 47, 0
1, 26941, Note_on_c, 6, 47, 0
1, 26941, Note_on_c, 0, 92, 0
1, 26941, Note_on_c, 0, 92, 0
1, 26941, Note_on_c, 0, 90, 110
1, 26941, Note_on_c, 0, 90, 110
1, 26941, Note_on_c, 5, 76, 120
1, 26941, Note_on_c, 5, 73, 120
1, 26941, Note_on_c, 5, 64, 120
1, 26941, Note_on_c, 5, 61, 120
1, 26956, Note_on_c, 0, 90, 0
1, 26956, Note_on_c, 0, 90, 0
1, 26956, Note_on_c, 0, 92, 110
1, 26956, Note_on_c, 0, 92, 110
1, 26970, Note_on_c, 0, 92, 0
1, 26970, Note_on_c, 0, 92, 0
1, 26970, Note_on_c, 0, 90, 110
1, 26970, Note_on_c, 0, 90, 110
1, 26985, Note_on_c, 0, 90, 0
1, 26985, Note_on_c, 0, 90, 0
1, 26985, Note_on_c, 0, 92, 110
1, 26985, Note_on_c, 0, 92, 110
1, 27000, Note_on_c, 5, 76, 0
1, 27000, Note_on_c, 5, 73, 0
1, 27000, Note_on_c, 5, 64, 0
1, 27000, Note_on_c, 5, 61, 0
1, 27000, Note_on_c, 0, 92, 0
1, 27000, Note_on_c, 0, 92, 0
1, 27000, Note_on_c, 0, 90, 110
1, 27000, Note_on_c, 0, 90, 110
1, 27014, Note_on_c, 0, 90, 0
1, 27014, Note_on_c, 0, 90, 0
1, 27014, Note_on_c, 0, 92, 110
1, 27014, Note_on_c, 0, 92, 110
1, 27029, Note_on_c, 0, 92, 0
1, 27029, Note_on_c, 0, 92, 0
1, 27029, Note_on_c, 0, 90, 110
1, 27029, Note_on_c, 0, 90, 110
1, 27029, Note_on_c, 5, 75, 120
1, 27029, Note_on_c, 5, 75, 120
1, 27029, Note_on_c, 5, 63, 120
1, 27029, Note_on_c, 5, 63, 120
1, 27043, Note_on_c, 0, 90, 0
1, 27043, Note_on_c, 0, 90, 0
1, 27043, Note_on_c, 0, 92, 110
1, 27043, Note_on_c, 0, 92, 110
1, 27058, Note_on_c, 0, 92, 0
1, 27058, Note_on_c, 0, 92, 0
1, 27058, Note_on_c, 0, 90, 110
1, 27058, Note_on_c, 0, 90, 110
1, 27072, Note_on_c, 0, 90, 0
1, 27072, Note_on_c, 0, 90, 0
1, 27072, Note_on_c, 0, 92, 110
1, 27072, Note_on_c, 0, 92, 110
1, 27087, Note_on_c, 5, 75, 0
1, 27087, Note_on_c, 5, 75, 0
1, 27087, Note_on_c, 5, 63, 0
1, 27087, Note_on_c, 5, 63, 0
1, 27087, Note_on_c, 0, 92, 0
1, 27087, Note_on_c, 0, 92, 0
1, 27087, Note_on_c, 0, 90, 110
1, 27087, Note_on_c, 0, 90, 110
1, 27102, Note_on_c, 0, 90, 0
1, 27102, Note_on_c, 0, 90, 0
1, 27102, Note_on_c, 0, 92, 110
1, 27102, Note_on_c, 0, 92, 110
1, 27116, Note_on_c, 0, 92, 0
1, 27116, Note_on_c, 0, 92, 0
1, 27116, Note_on_c, 0, 90, 110
1, 27116, Note_on_c, 0, 90, 110
1, 27116, Note_on_c, 5, 71, 120
1, 27116, Note_on_c, 5, 78, 120
1, 27116, Note_on_c, 5, 59, 120
1, 27116, Note_on_c, 5, 66, 120
1, 27131, Note_on_c, 0, 90, 0
1, 27131, Note_on_c, 0, 90, 0
1, 27131, Note_on_c, 0, 92, 110
1, 27131, Note_on_c, 0, 92, 110
1, 27146, Note_on_c, 0, 92, 0
1, 27146, Note_on_c, 0, 92, 0
1, 27146, Note_on_c, 0, 90, 110
1, 27146, Note_on_c, 0, 90, 110
1, 27160, Note_on_c, 0, 90, 0
1, 27160, Note_on_c, 0, 90, 0
1, 27160, Note_on_c, 0, 92, 110
1, 27160, Note_on_c, 0, 92, 110
1, 27175, Note_on_c, 5, 71, 0
1, 27175, Note_on_c, 5, 78, 0
1, 27175, Note_on_c, 5, 59, 0
1, 27175, Note_on_c, 5, 66, 0
1, 27175, Note_on_c, 0, 92, 0
1, 27175, Note_on_c, 0, 92, 0
1, 27175, Note_on_c, 0, 90, 110
1, 27175, Note_on_c, 0, 90, 110
1, 27190, Note_on_c, 0, 90, 0
1, 27190, Note_on_c, 0, 90, 0
1, 27190, Note_on_c, 0, 92, 110
1, 27190, Note_on_c, 0, 92, 110
1, 27204, Note_on_c, 0, 92, 0
1, 27204, Note_on_c, 0, 92, 0
1, 27204, Note_on_c, 0, 90, 110
1, 27204, Note_on_c, 0, 90, 110
1, 27204, Note_on_c, 5, 66, 120
1, 27204, Note_on_c, 5, 73, 120
1, 27204, Note_on_c, 5, 54, 120
1, 27204, Note_on_c, 5, 61, 120
1, 27219, Note_on_c, 0, 90, 0
1, 27219, Note_on_c, 0, 90, 0
1, 27219, Note_on_c, 0, 92, 110
1, 27219, Note_on_c, 0, 92, 110
1, 27234, Note_on_c, 0, 92, 0
1, 27234, Note_on_c, 0, 92, 0
1, 27234, Note_on_c, 0, 90, 110
1, 27234, Note_on_c, 0, 90, 110
1, 27248, Note_on_c, 0, 90, 0
1, 27248, Note_on_c, 0, 90, 0
1, 27248, Note_on_c, 0, 92, 110
1, 27248, Note_on_c, 0, 92, 110
1, 27263, Note_on_c, 5, 66, 0
1, 27263, Note_on_c, 5, 73, 0
1, 27263, Note_on_c, 5, 54, 0
1, 27263, Note_on_c, 5, 61, 0
1, 27263, Note_on_c, 0, 92, 0
1, 27263, Note_on_c, 0, 92, 0
1, 27263, Note_on_c, 0, 90, 110
1, 27263, Note_on_c, 0, 90, 110
1, 27278, Note_on_c, 0, 90, 0
1, 27278, Note_on_c, 0, 90, 0
1, 27278, Note_on_c, 0, 92, 110
1, 27278, Note_on_c, 0, 92, 110
1, 27292, Note_on_c, 0, 92, 0
1, 27292, Note_on_c, 0, 92, 0
1, 27292, Note_on_c, 0, 90, 110
1, 27292, Note_on_c, 0, 90, 110
1, 27292, Note_on_c, 5, 68, 120
1, 27292, Note_on_c, 5, 71, 120
1, 27292, Note_on_c, 5, 56, 120
1, 27292, Note_on_c, 5, 59, 120
1, 27307, Note_on_c, 0, 90, 0
1, 27307, Note_on_c, 0, 90, 0
1, 27307, Note_on_c, 0, 92, 110
1, 27307, Note_on_c, 0, 92, 110
1, 27321, Note_on_c, 0, 92, 0
1, 27321, Note_on_c, 0, 92, 0
1, 27321, Note_on_c, 0, 90, 110
1, 27321, Note_on_c, 0, 90, 110
1, 27336, Note_on_c, 0, 90, 0
1, 27336, Note_on_c, 0, 90, 0
1, 27336, Note_on_c, 0, 92, 110
1, 27336, Note_on_c, 0, 92, 110
1, 27351, Note_on_c, 5, 68, 0
1, 27351, Note_on_c, 5, 71, 0
1, 27351, Note_on_c, 5, 56, 0
1, 27351, Note_on_c, 5, 59, 0
1, 27351, Note_on_c, 0, 92, 0
1, 27351, Note_on_c, 0, 92, 0
1, 27351, Note_on_c, 0, 90, 110
1, 27351, Note_on_c, 0, 90, 110
1, 27365, Note_on_c, 0, 90, 0
1, 27365, Note_on_c, 0, 90, 0
1, 27365, Note_on_c, 0, 92, 110
1, 27365, Note_on_c, 0, 92, 110
1, 27380, Note_on_c, 0, 92, 0
1, 27380, Note_on_c, 0, 92, 0
1, 27380, Note_on_c, 0, 90, 110
1, 27380, Note_on_c, 0, 90, 110
1, 27380, Note_on_c, 5, 76, 120
1, 27380, Note_on_c, 5, 69, 120
1, 27380, Note_on_c, 5, 64, 120
1, 27380, Note_on_c, 5, 57, 120
1, 27380, Note_on_c, 8, 59, 110
1, 27380, Note_on_c, 8, 59, 110
1, 27394, Note_on_c, 0, 90, 0
1, 27394, Note_on_c, 0, 90, 0
1, 27394, Note_on_c, 0, 92, 110
1, 27394, Note_on_c, 0, 92, 110
1, 27409, Note_on_c, 0, 92, 0
1, 27409, Note_on_c, 0, 92, 0
1, 27409, Note_on_c, 0, 90, 110
1, 27409, Note_on_c, 0, 90, 110
1, 27424, Note_on_c, 0, 90, 0
1, 27424, Note_on_c, 0, 90, 0
1, 27424, Note_on_c, 0, 92, 110
1, 27424, Note_on_c, 0, 92, 110
1, 27438, Note_on_c, 5, 76, 0
1, 27438, Note_on_c, 5, 69, 0
1, 27438, Note_on_c, 5, 64, 0
1, 27438, Note_on_c, 5, 57, 0
1, 27438, Note_on_c, 0, 92, 0
1, 27438, Note_on_c, 0, 92, 0
1, 27438, Note_on_c, 0, 90, 110
1, 27438, Note_on_c, 0, 90, 110
1, 27453, Note_on_c, 0, 90, 0
1, 27453, Note_on_c, 0, 90, 0
1, 27453, Note_on_c, 0, 92, 110
1, 27453, Note_on_c, 0, 92, 110
1, 27468, Note_on_c, 0, 92, 0
1, 27468, Note_on_c, 0, 92, 0
1, 27468, Note_on_c, 0, 90, 110
1, 27468, Note_on_c, 0, 90, 110
1, 27468, Note_on_c, 5, 71, 120
1, 27468, Note_on_c, 5, 75, 120
1, 27468, Note_on_c, 5, 59, 120
1, 27468, Note_on_c, 5, 63, 120
1, 27482, Note_on_c, 0, 90, 0
1, 27482, Note_on_c, 0, 90, 0
1, 27482, Note_on_c, 0, 92, 110
1, 27482, Note_on_c, 0, 92, 110
1, 27497, Note_on_c, 0, 92, 0
1, 27497, Note_on_c, 0, 92, 0
1, 27497, Note_on_c, 0, 90, 110
1, 27497, Note_on_c, 0, 90, 110
1, 27512, Note_on_c, 0, 90, 0
1, 27512, Note_on_c, 0, 90, 0
1, 27512, Note_on_c, 0, 92, 110
1, 27512, Note_on_c, 0, 92, 110
1, 27526, Note_on_c, 5, 71, 0
1, 27526, Note_on_c, 5, 75, 0
1, 27526, Note_on_c, 5, 59, 0
1, 27526, Note_on_c, 5, 63, 0
1, 27526, Note_on_c, 0, 92, 0
1, 27526, Note_on_c, 0, 92, 0
1, 27526, Note_on_c, 0, 90, 110
1, 27526, Note_on_c, 0, 90, 110
1, 27541, Note_on_c, 0, 90, 0
1, 27541, Note_on_c, 0, 90, 0
1, 27541, Note_on_c, 0, 92, 110
1, 27541, Note_on_c, 0, 92, 110
1, 27556, Note_on_c, 0, 92, 0
1, 27556, Note_on_c, 0, 92, 0
1, 27556, Note_on_c, 0, 90, 110
1, 27556, Note_on_c, 0, 90, 110
1, 27556, Note_on_c, 5, 73, 120
1, 27556, Note_on_c, 5, 61, 120
1, 27556, Note_on_c, 5, 61, 120
1, 27570, Note_on_c, 0, 90, 0
1, 27570, Note_on_c, 0, 90, 0
1, 27570, Note_on_c, 0, 92, 110
1, 27570, Note_on_c, 0, 92, 110
1, 27585, Note_on_c, 0, 92, 0
1, 27585, Note_on_c, 0, 92, 0
1, 27585, Note_on_c, 0, 90, 110
1, 27585, Note_on_c, 0, 90, 110
1, 27600, Note_on_c, 0, 90, 0
1, 27600, Note_on_c, 0, 90, 0
1, 27600, Note_on_c, 0, 92, 110
1, 27600, Note_on_c, 0, 92, 110
1, 27614, Note_on_c, 5, 73, 0
1, 27614, Note_on_c, 5, 61, 0
1, 27614, Note_on_c, 5, 61, 0
1, 27614, Note_on_c, 0, 92, 0
1, 27614, Note_on_c, 0, 92, 0
1, 27614, Note_on_c, 0, 90, 110
1, 27614, Note_on_c, 0, 90, 110
1, 27629, Note_on_c, 0, 90, 0
1, 27629, Note_on_c, 0, 90, 0
1, 27629, Note_on_c, 0, 92, 110
1, 27629, Note_on_c, 0, 92, 110
1, 27643, Note_on_c, 0, 92, 0
1, 27643, Note_on_c, 0, 92, 0
1, 27643, Note_on_c, 0, 90, 110
1, 27643, Note_on_c, 0, 90, 110
1, 27643, Note_on_c, 5, 76, 120
1, 27643, Note_on_c, 5, 69, 120
1, 27643, Note_on_c, 5, 64, 120
1, 27643, Note_on_c, 5, 57, 120
1, 27658, Note_on_c, 0, 90, 0
1, 27658, Note_on_c, 0, 90, 0
1, 27658, Note_on_c, 0, 92, 110
1, 27658, Note_on_c, 0, 92, 110
1, 27672, Note_on_c, 0, 92, 0
1, 27672, Note_on_c, 0, 92, 0
1, 27672, Note_on_c, 0, 90, 110
1, 27672, Note_on_c, 0, 90, 110
1, 27687, Note_on_c, 0, 90, 0
1, 27687, Note_on_c, 0, 90, 0
1, 27687, Note_on_c, 0, 92, 110
1, 27687, Note_on_c, 0, 92, 110
1, 27702, Note_on_c, 5, 76, 0
1, 27702, Note_on_c, 5, 69, 0
1, 27702, Note_on_c, 5, 64, 0
1, 27702, Note_on_c, 5, 57, 0
1, 27702, Note_on_c, 0, 92, 0
1, 27702, Note_on_c, 0, 92, 0
1, 27702, Note_on_c, 0, 90, 110
1, 27702, Note_on_c, 0, 90, 110
1, 27716, Note_on_c, 0, 90, 0
1, 27716, Note_on_c, 0, 90, 0
1, 27716, Note_on_c, 0, 92, 110
1, 27716, Note_on_c, 0, 92, 110
1, 27731, Note_on_c, 0, 92, 0
1, 27731, Note_on_c, 0, 92, 0
1, 27731, Note_on_c, 0, 90, 110
1, 27731, Note_on_c, 0, 90, 110
1, 27731, Note_on_c, 5, 71, 120
1, 27731, Note_on_c, 5, 75, 120
1, 27731, Note_on_c, 5, 59, 120
1, 27731, Note_on_c, 5, 63, 120
1, 27746, Note_on_c, 0, 90, 0
1, 27746, Note_on_c, 0, 90, 0
1, 27746, Note_on_c, 0, 92, 110
1, 27746, Note_on_c, 0, 92, 110
1, 27760, Note_on_c, 0, 92, 0
1, 27760, Note_on_c, 0, 92, 0
1, 27760, Note_on_c, 0, 90, 110
1, 27760, Note_on_c, 0, 90, 110
1, 27775, Note_on_c, 0, 90, 0
1, 27775, Note_on_c, 0, 90, 0
1, 27775, Note_on_c, 0, 92, 110
1, 27775, Note_on_c, 0, 92, 110
1, 27790, Note_on_c, 5, 71, 0
1, 27790, Note_on_c, 5, 75, 0
1, 27790, Note_on_c, 5, 59, 0
1, 27790, Note_on_c, 5, 63, 0
1, 27790, Note_on_c, 0, 92, 0
1, 27790, Note_on_c, 0, 92, 0
1, 27790, Note_on_c, 0, 90, 110
1, 27790, Note_on_c, 0, 90, 110
1, 27804, Note_on_c, 0, 90, 0
1, 27804, Note_on_c, 0, 90, 0
1, 27804, Note_on_c, 0, 92, 110
1, 27804, Note_on_c, 0, 92, 110
1, 27817, Note_on_c, 3, 47, 0
1, 27819, Note_on_c, 7, 35, 0
1, 27819, Note_on_c, 0, 92, 0
1, 27819, Note_on_c, 0, 92, 0
1, 27819, Note_on_c, 0, 90, 110
1, 27819, Note_on_c, 0, 90, 110
1, 27819, Note_on_c, 3, 45, 120
1, 27819, Note_on_c, 5, 71, 120
1, 27819, Note_on_c, 5, 59, 120
1, 27819, Note_on_c, 5, 59, 120
1, 27819, Note_on_c, 5, 45, 120
1, 27819, Note_on_c, 7, 33, 120
1, 27834, Note_on_c, 0, 90, 0
1, 27834, Note_on_c, 0, 90, 0
1, 27834, Note_on_c, 0, 92, 110
1, 27834, Note_on_c, 0, 92, 110
1, 27848, Note_on_c, 0, 92, 0
1, 27848, Note_on_c, 0, 92, 0
1, 27848, Note_on_c, 0, 90, 110
1, 27848, Note_on_c, 0, 90, 110
1, 27863, Note_on_c, 0, 90, 0
1, 27863, Note_on_c, 0, 90, 0
1, 27863, Note_on_c, 0, 92, 110
1, 27863, Note_on_c, 0, 92, 110
1, 27878, Note_on_c, 5, 71, 0
1, 27878, Note_on_c, 5, 59, 0
1, 27878, Note_on_c, 5, 59, 0
1, 27878, Note_on_c, 0, 92, 0
1, 27878, Note_on_c, 0, 92, 0
1, 27878, Note_on_c, 0, 90, 110
1, 27878, Note_on_c, 0, 90, 110
1, 27892, Note_on_c, 0, 90, 0
1, 27892, Note_on_c, 0, 90, 0
1, 27892, Note_on_c, 0, 92, 110
1, 27892, Note_on_c, 0, 92, 110
1, 27907, Note_on_c, 0, 92, 0
1, 27907, Note_on_c, 0, 92, 0
1, 27907, Note_on_c, 0, 90, 110
1, 27907, Note_on_c, 0, 90, 110
1, 27907, Note_on_c, 5, 66, 120
1, 27907, Note_on_c, 5, 73, 120
1, 27907, Note_on_c, 5, 54, 120
1, 27907, Note_on_c, 5, 61, 120
1, 27921, Note_on_c, 0, 90, 0
1, 27921, Note_on_c, 0, 90, 0
1, 27921, Note_on_c, 0, 92, 110
1, 27921, Note_on_c, 0, 92, 110
1, 27936, Note_on_c, 0, 92, 0
1, 27936, Note_on_c, 0, 92, 0
1, 27936, Note_on_c, 0, 90, 110
1, 27936, Note_on_c, 0, 90, 110
1, 27951, Note_on_c, 0, 90, 0
1, 27951, Note_on_c, 0, 90, 0
1, 27951, Note_on_c, 0, 92, 110
1, 27951, Note_on_c, 0, 92, 110
1, 27965, Note_on_c, 5, 66, 0
1, 27965, Note_on_c, 5, 73, 0
1, 27965, Note_on_c, 5, 54, 0
1, 27965, Note_on_c, 5, 61, 0
1, 27965, Note_on_c, 0, 92, 0
1, 27965, Note_on_c, 0, 92, 0
1, 27965, Note_on_c, 0, 90, 110
1, 27965, Note_on_c, 0, 90, 110
1, 27980, Note_on_c, 0, 90, 0
1, 27980, Note_on_c, 0, 90, 0
1, 27980, Note_on_c, 0, 92, 110
1, 27980, Note_on_c, 0, 92, 110
1, 27993, Note_on_c, 3, 45, 0
1, 27994, Note_on_c, 7, 33, 0
1, 27994, Control_c, 8, 0, 0
1, 27994, Control_c, 8, 32, 0
1, 27994, Program_c, 8, 44
1, 27994, Note_on_c, 8, 90, 0
1, 27994, Control_c, 8, 0, 0
1, 27994, Control_c, 8, 32, 0
1, 27994, Program_c, 8, 49
1, 27994, Note_on_c, 8, 71, 0
1, 27994, Note_on_c, 8, 71, 0
1, 27994, Note_on_c, 8, 59, 0
1, 27994, Note_on_c, 8, 59, 0
1, 27994, Note_on_c, 8, 78, 0
1, 27994, Note_on_c, 8, 78, 0
1, 27994, Note_on_c, 8, 66, 0
1, 27994, Note_on_c, 8, 59, 0
1, 27994, Note_on_c, 8, 59, 0
1, 27994, Note_on_c, 5, 45, 0
1, 27994, Note_on_c, 0, 92, 0
1, 27994, Note_on_c, 0, 92, 0
1, 27994, Note_on_c, 3, 43, 120
1, 27994, Note_on_c, 4, 48, 120
1, 27994, Note_on_c, 4, 48, 120
1, 27994, Note_on_c, 5, 43, 120
1, 27994, Note_on_c, 6, 43, 120
1, 27994, Note_on_c, 6, 43, 120
1, 27994, Note_on_c, 7, 31, 120
1, 28005, Note_on_c, 4, 52, 120
1, 28005, Note_on_c, 4, 52, 120
1, 28006, Note_on_c, 4, 48, 0
1, 28006, Note_on_c, 4, 48, 0
1, 28016, Note_on_c, 4, 52, 0
1, 28016, Note_on_c, 4, 52, 0
1, 28016, Note_on_c, 4, 55, 120
1, 28016, Note_on_c, 4, 55, 120
1, 28028, Note_on_c, 4, 58, 120
1, 28028, Note_on_c, 4, 58, 120
1, 28028, Note_on_c, 4, 55, 0
1, 28028, Note_on_c, 4, 55, 0
1, 28029, Note_on_c, 5, 43, 0
1, 28038, Note_on_c, 4, 60, 120
1, 28038, Note_on_c, 4, 60, 120
1, 28039, Note_on_c, 4, 58, 0
1, 28039, Note_on_c, 4, 58, 0
1, 28050, Note_on_c, 4, 62, 120
1, 28050, Note_on_c, 4, 62, 120
1, 28050, Note_on_c, 4, 60, 0
1, 28050, Note_on_c, 4, 60, 0
1, 28060, Note_on_c, 0, 84, 110
1, 28060, Control_c, 8, 0, 0
1, 28060, Control_c, 8, 32, 0
1, 28060, Program_c, 8, 44
1, 28060, Note_on_c, 8, 84, 110
1, 28060, Note_on_c, 4, 64, 120
1, 28060, Note_on_c, 4, 64, 120
1, 28061, Note_on_c, 4, 62, 0
1, 28061, Note_on_c, 4, 62, 0
1, 28065, Note_on_c, 0, 84, 0
1, 28065, Note_on_c, 8, 84, 0
1, 28065, Note_on_c, 0, 84, 110
1, 28065, Note_on_c, 0, 86, 110
1, 28065, Note_on_c, 8, 86, 110
1, 28065, Control_c, 8, 0, 0
1, 28065, Control_c, 8, 32, 0
1, 28065, Program_c, 8, 49
1, 28065, Note_on_c, 8, 55, 110
1, 28065, Note_on_c, 8, 48, 110
1, 28065, Note_on_c, 8, 36, 110
1, 28070, Note_on_c, 0, 84, 0
1, 28070, Note_on_c, 0, 86, 0
1, 28070, Control_c, 8, 0, 0
1, 28070, Control_c, 8, 32, 0
1, 28070, Program_c, 8, 44
1, 28070, Note_on_c, 8, 86, 0
1, 28070, Control_c, 8, 0, 0
1, 28070, Control_c, 8, 32, 0
1, 28070, Program_c, 8, 49
1, 28070, Note_on_c, 8, 55, 0
1, 28070, Note_on_c, 8, 48, 0
1, 28070, Note_on_c, 8, 36, 0
1, 28070, Note_on_c, 0, 83, 110
1, 28070, Note_on_c, 0, 88, 110
1, 28070, Control_c, 8, 0, 0
1, 28070, Control_c, 8, 32, 0
1, 28070, Program_c, 8, 44
1, 28070, Note_on_c, 8, 88, 110
1, 28070, Control_c, 8, 0, 0
1, 28070, Control_c, 8, 32, 0
1, 28070, Program_c, 8, 49
1, 28070, Note_on_c, 8, 67, 110
1, 28070, Note_on_c, 8, 55, 110
1, 28070, Note_on_c, 8, 43, 110
1, 28072, Note_on_c, 4, 64, 0
1, 28072, Note_on_c, 4, 64, 0
1, 28076, Note_on_c, 0, 83, 0
1, 28076, Note_on_c, 0, 88, 0
1, 28076, Control_c, 8, 0, 0
1, 28076, Control_c, 8, 32, 0
1, 28076, Program_c, 8, 44
1, 28076, Note_on_c, 8, 88, 0
1, 28076, Control_c, 8, 0, 0
1, 28076, Control_c, 8, 32, 0
1, 28076, Program_c, 8, 49
1, 28076, Note_on_c, 8, 67, 0
1, 28076, Note_on_c, 8, 55, 0
1, 28076, Note_on_c, 8, 43, 0
1, 28076, Note_on_c, 0, 81, 110
1, 28076, Note_on_c, 0, 89, 110
1, 28076, Control_c, 8, 0, 0
1, 28076, Control_c, 8, 32, 0
1, 28076, Program_c, 8, 44
1, 28076, Note_on_c, 8, 89, 110
1, 28076, Control_c, 8, 0, 0
1, 28076, Control_c, 8, 32, 0
1, 28076, Program_c, 8, 49
1, 28076, Note_on_c, 8, 72, 110
1, 28076, Note_on_c, 8, 64, 110
1, 28076, Note_on_c, 8, 52, 110
1, 28082, Note_on_c, 0, 81, 0
1, 28082, Note_on_c, 0, 89, 0
1, 28082, Control_c, 8, 0, 0
1, 28082, Control_c, 8, 32, 0
1, 28082, Program_c, 8, 44
1, 28082, Note_on_c, 8, 89, 0
1, 28082, Control_c, 8, 0, 0
1, 28082, Control_c, 8, 32, 0
1, 28082, Program_c, 8, 49
1, 28082, Note_on_c, 8, 72, 0
1, 28082, Note_on_c, 8, 64, 0
1, 28082, Note_on_c, 8, 52, 0
1, 28082, Note_on_c, 0, 79, 110
1, 28082, Note_on_c, 0, 91, 110
1, 28082, Note_on_c, 4, 67, 120
1, 28082, Note_on_c, 4, 67, 120
1, 28082, Note_on_c, 5, 72, 120
1, 28082, Note_on_c, 5, 79, 120
1, 28082, Note_on_c, 5, 60, 120
1, 28082, Note_on_c, 5, 67, 120
1, 28082, Control_c, 8, 0, 0
1, 28082, Control_c, 8, 32, 0
1, 28082, Program_c, 8, 44
1, 28082, Note_on_c, 8, 91, 110
1, 28082, Control_c, 8, 0, 0
1, 28082, Control_c, 8, 32, 0
1, 28082, Program_c, 8, 49
1, 28082, Note_on_c, 8, 79, 110
1, 28082, Note_on_c, 8, 72, 110
1, 28082, Note_on_c, 8, 60, 110
1, 28097, Note_on_c, 0, 79, 0
1, 28097, Note_on_c, 0, 91, 0
1, 28097, Note_on_c, 0, 81, 110
1, 28112, Note_on_c, 0, 81, 0
1, 28112, Note_on_c, 0, 79, 110
1, 28112, Note_on_c, 0, 91, 110
1, 28117, Note_on_c, 4, 67, 0
1, 28117, Note_on_c, 4, 67, 0
1, 28126, Note_on_c, 0, 79, 0
1, 28126, Note_on_c, 0, 91, 0
1, 28126, Note_on_c, 0, 81, 110
1, 28141, Note_on_c, 5, 72, 0
1, 28141, Note_on_c, 5, 79, 0
1, 28141, Note_on_c, 5, 60, 0
1, 28141, Note_on_c, 5, 67, 0
1, 28141, Note_on_c, 0, 81, 0
1, 28141, Note_on_c, 0, 79, 110
1, 28141, Note_on_c, 0, 91, 110
1, 28156, Note_on_c, 0, 79, 0
1, 28156, Note_on_c, 0, 91, 0
1, 28156, Note_on_c, 0, 81, 110
1, 28170, Note_on_c, 6, 43, 0
1, 28170, Note_on_c, 6, 43, 0
1, 28170, Note_on_c, 0, 81, 0
1, 28170, Note_on_c, 0, 79, 110
1, 28170, Note_on_c, 0, 91, 110
1, 28170, Note_on_c, 5, 77, 120
1, 28170, Note_on_c, 5, 74, 120
1, 28170, Note_on_c, 5, 65, 120
1, 28170, Note_on_c, 5, 62, 120
1, 28185, Note_on_c, 0, 79, 0
1, 28185, Note_on_c, 0, 91, 0
1, 28185, Note_on_c, 0, 81, 110
1, 28200, Note_on_c, 0, 81, 0
1, 28200, Note_on_c, 0, 79, 110
1, 28200, Note_on_c, 0, 91, 110
1, 28214, Note_on_c, 0, 79, 0
1, 28214, Note_on_c, 0, 91, 0
1, 28214, Note_on_c, 0, 81, 110
1, 28229, Note_on_c, 5, 77, 0
1, 28229, Note_on_c, 5, 74, 0
1, 28229, Note_on_c, 5, 65, 0
1, 28229, Note_on_c, 5, 62, 0
1, 28229, Note_on_c, 0, 81, 0
1, 28229, Note_on_c, 0, 79, 110
1, 28229, Note_on_c, 0, 91, 110
1, 28243, Note_on_c, 0, 79, 0
1, 28243, Note_on_c, 0, 91, 0
1, 28243, Note_on_c, 0, 81, 110
1, 28258, Note_on_c, 0, 81, 0
1, 28258, Note_on_c, 0, 79, 110
1, 28258, Note_on_c, 0, 91, 110
1, 28258, Note_on_c, 5, 76, 120
1, 28258, Note_on_c, 5, 76, 120
1, 28258, Note_on_c, 5, 64, 120
1, 28258, Note_on_c, 5, 64, 120
1, 28272, Note_on_c, 0, 79, 0
1, 28272, Note_on_c, 0, 91, 0
1, 28272, Note_on_c, 0, 81, 110
1, 28287, Note_on_c, 0, 81, 0
1, 28287, Note_on_c, 0, 79, 110
1, 28287, Note_on_c, 0, 91, 110
1, 28302, Note_on_c, 0, 79, 0
1, 28302, Note_on_c, 0, 91, 0
1, 28302, Note_on_c, 0, 81, 110
1, 28316, Note_on_c, 5, 76, 0
1, 28316, Note_on_c, 5, 76, 0
1, 28316, Note_on_c, 5, 64, 0
1, 28316, Note_on_c, 5, 64, 0
1, 28316, Note_on_c, 0, 81, 0
1, 28316, Note_on_c, 0, 79, 110
1, 28316, Note_on_c, 0, 91, 110
1, 28331, Note_on_c, 0, 79, 0
1, 28331, Note_on_c, 0, 91, 0
1, 28331, Note_on_c, 0, 81, 110
1, 28346, Note_on_c, 0, 81, 0
1, 28346, Note_on_c, 0, 79, 110
1, 28346, Note_on_c, 0, 91, 110
1, 28346, Note_on_c, 5, 72, 120
1, 28346, Note_on_c, 5, 79, 120
1, 28346, Note_on_c, 5, 60, 120
1, 28346, Note_on_c, 5, 67, 120
1, 28360, Note_on_c, 0, 79, 0
1, 28360, Note_on_c, 0, 91, 0
1, 28360, Note_on_c, 0, 81, 110
1, 28375, Note_on_c, 0, 81, 0
1, 28375, Note_on_c, 0, 79, 110
1, 28375, Note_on_c, 0, 91, 110
1, 28390, Note_on_c, 0, 79, 0
1, 28390, Note_on_c, 0, 91, 0
1, 28390, Note_on_c, 0, 81, 110
1, 28404, Note_on_c, 5, 72, 0
1, 28404, Note_on_c, 5, 79, 0
1, 28404, Note_on_c, 5, 60, 0
1, 28404, Note_on_c, 5, 67, 0
1, 28404, Note_on_c, 0, 81, 0
1, 28404, Note_on_c, 0, 79, 110
1, 28404, Note_on_c, 0, 91, 110
1, 28419, Note_on_c, 0, 79, 0
1, 28419, Note_on_c, 0, 91, 0
1, 28419, Note_on_c, 0, 81, 110
1, 28434, Note_on_c, 0, 81, 0
1, 28434, Note_on_c, 0, 79, 110
1, 28434, Note_on_c, 0, 91, 110
1, 28434, Note_on_c, 5, 67, 120
1, 28434, Note_on_c, 5, 74, 120
1, 28434, Note_on_c, 5, 55, 120
1, 28434, Note_on_c, 5, 62, 120
1, 28448, Note_on_c, 0, 79, 0
1, 28448, Note_on_c, 0, 91, 0
1, 28448, Note_on_c, 0, 81, 110
1, 28463, Note_on_c, 0, 81, 0
1, 28463, Note_on_c, 0, 79, 110
1, 28463, Note_on_c, 0, 91, 110
1, 28478, Note_on_c, 0, 79, 0
1, 28478, Note_on_c, 0, 91, 0
1, 28478, Note_on_c, 0, 81, 110
1, 28492, Note_on_c, 5, 67, 0
1, 28492, Note_on_c, 5, 74, 0
1, 28492, Note_on_c, 5, 55, 0
1, 28492, Note_on_c, 5, 62, 0
1, 28492, Note_on_c, 0, 81, 0
1, 28492, Note_on_c, 0, 79, 110
1, 28492, Note_on_c, 0, 91, 110
1, 28507, Note_on_c, 0, 79, 0
1, 28507, Note_on_c, 0, 91, 0
1, 28507, Note_on_c, 0, 81, 110
1, 28521, Note_on_c, 0, 81, 0
1, 28521, Note_on_c, 0, 79, 110
1, 28521, Note_on_c, 0, 91, 110
1, 28521, Note_on_c, 5, 69, 120
1, 28521, Note_on_c, 5, 72, 120
1, 28521, Note_on_c, 5, 57, 120
1, 28521, Note_on_c, 5, 60, 120
1, 28536, Note_on_c, 0, 79, 0
1, 28536, Note_on_c, 0, 91, 0
1, 28536, Note_on_c, 0, 81, 110
1, 28551, Note_on_c, 0, 81, 0
1, 28551, Note_on_c, 0, 79, 110
1, 28551, Note_on_c, 0, 91, 110
1, 28565, Note_on_c, 0, 79, 0
1, 28565, Note_on_c, 0, 91, 0
1, 28565, Note_on_c, 0, 81, 110
1, 28580, Note_on_c, 5, 69, 0
1, 28580, Note_on_c, 5, 72, 0
1, 28580, Note_on_c, 5, 57, 0
1, 28580, Note_on_c, 5, 60, 0
1, 28580, Note_on_c, 0, 81, 0
1, 28580, Note_on_c, 0, 79, 110
1, 28580, Note_on_c, 0, 91, 110
1, 28594, Note_on_c, 0, 79, 0
1, 28594, Note_on_c, 0, 91, 0
1, 28594, Note_on_c, 0, 81, 110
1, 28607, Note_on_c, 3, 43, 0
1, 28607, Note_on_c, 7, 31, 0
1, 28609, Control_c, 8, 0, 0
1, 28609, Control_c, 8, 32, 0
1, 28609, Program_c, 8, 44
1, 28609, Note_on_c, 8, 91, 0
1, 28609, Control_c, 8, 0, 0
1, 28609, Control_c, 8, 32, 0
1, 28609, Program_c, 8, 49
1, 28609, Note_on_c, 8, 79, 0
1, 28609, Note_on_c, 8, 72, 0
1, 28609, Note_on_c, 8, 60, 0
1, 28609, Note_on_c, 0, 81, 0
1, 28609, Note_on_c, 3, 43, 120
1, 28609, Note_on_c, 4, 48, 120
1, 28609, Note_on_c, 4, 48, 120
1, 28609, Note_on_c, 5, 43, 120
1, 28609, Note_on_c, 6, 43, 120
1, 28609, Note_on_c, 6, 43, 120
1, 28609, Note_on_c, 7, 31, 120
1, 28619, Note_on_c, 4, 52, 120
1, 28619, Note_on_c, 4, 52, 120
1, 28621, Note_on_c, 4, 48, 0
1, 28621, Note_on_c, 4, 48, 0
1, 28631, Note_on_c, 4, 52, 0
1, 28631, Note_on_c, 4, 52, 0
1, 28631, Note_on_c, 4, 55, 120
1, 28631, Note_on_c, 4, 55, 120
1, 28642, Note_on_c, 4, 58, 120
1, 28642, Note_on_c, 4, 58, 120
1, 28643, Note_on_c, 4, 55, 0
1, 28643, Note_on_c, 4, 55, 0
1, 28644, Note_on_c, 5, 43, 0
1, 28653, Note_on_c, 4, 60, 120
1, 28653, Note_on_c, 4, 60, 120
1, 28654, Note_on_c, 4, 58, 0
1, 28654, Note_on_c, 4, 58, 0
1, 28664, Note_on_c, 4, 62, 120
1, 28664, Note_on_c, 4, 62, 120
1, 28665, Note_on_c, 4, 60, 0
1, 28665, Note_on_c, 4, 60, 0
1, 28674, Note_on_c, 0, 84, 110
1, 28674, Control_c, 8, 0, 0
1, 28674, Control_c, 8, 32, 0
1, 28674, Program_c, 8, 44
1, 28674, Note_on_c, 8, 84, 110
1, 28675, Note_on_c, 4, 64, 120
1, 28675, Note_on_c, 4, 64, 120
1, 28676, Note_on_c, 4, 62, 0
1, 28676, Note_on_c, 4, 62, 0
1, 28680, Note_on_c, 0, 84, 0
1, 28680, Note_on_c, 8, 84, 0
1, 28680, Note_on_c, 0, 84, 110
1, 28680, Note_on_c, 0, 86, 110
1, 28680, Note_on_c, 8, 86, 110
1, 28680, Control_c, 8, 0, 0
1, 28680, Control_c, 8, 32, 0
1, 28680, Program_c, 8, 49
1, 28680, Note_on_c, 8, 55, 110
1, 28680, Note_on_c, 8, 48, 110
1, 28680, Note_on_c, 8, 36, 110
1, 28685, Note_on_c, 0, 84, 0
1, 28685, Note_on_c, 0, 86, 0
1, 28685, Control_c, 8, 0, 0
1, 28685, Control_c, 8, 32, 0
1, 28685, Program_c, 8, 44
1, 28685, Note_on_c, 8, 86, 0
1, 28685, Control_c, 8, 0, 0
1, 28685, Control_c, 8, 32, 0
1, 28685, Program_c, 8, 49
1, 28685, Note_on_c, 8, 55, 0
1, 28685, Note_on_c, 8, 48, 0
1, 28685, Note_on_c, 8, 36, 0
1, 28685, Note_on_c, 0, 83, 110
1, 28685, Note_on_c, 0, 88, 110
1, 28685, Control_c, 8, 0, 0
1, 28685, Control_c, 8, 32, 0
1, 28685, Program_c, 8, 44
1, 28685, Note_on_c, 8, 88, 110
1, 28685, Control_c, 8, 0, 0
1, 28685, Control_c, 8, 32, 0
1, 28685, Program_c, 8, 49
1, 28685, Note_on_c, 8, 67, 110
1, 28685, Note_on_c, 8, 55, 110
1, 28685, Note_on_c, 8, 43, 110
1, 28687, Note_on_c, 4, 64, 0
1, 28687, Note_on_c, 4, 64, 0
1, 28690, Note_on_c, 0, 83, 0
1, 28690, Note_on_c, 0, 88, 0
1, 28690, Control_c, 8, 0, 0
1, 28690, Control_c, 8, 32, 0
1, 28690, Program_c, 8, 44
1, 28690, Note_on_c, 8, 88, 0
1, 28690, Control_c, 8, 0, 0
1, 28690, Control_c, 8, 32, 0
1, 28690, Program_c, 8, 49
1, 28690, Note_on_c, 8, 67, 0
1, 28690, Note_on_c, 8, 55, 0
1, 28690, Note_on_c, 8, 43, 0
1, 28690, Note_on_c, 0, 81, 110
1, 28690, Note_on_c, 0, 89, 110
1, 28690, Control_c, 8, 0, 0
1, 28690, Control_c, 8, 32, 0
1, 28690, Program_c, 8, 44
1, 28690, Note_on_c, 8, 89, 110
1, 28690, Control_c, 8, 0, 0
1, 28690, Control_c, 8, 32, 0
1, 28690, Program_c, 8, 49
1, 28690, Note_on_c, 8, 72, 110
1, 28690, Note_on_c, 8, 64, 110
1, 28690, Note_on_c, 8, 52, 110
1, 28696, Note_on_c, 0, 81, 0
1, 28696, Note_on_c, 0, 89, 0
1, 28696, Control_c, 8, 0, 0
1, 28696, Control_c, 8, 32, 0
1, 28696, Program_c, 8, 44
1, 28696, Note_on_c, 8, 89, 0
1, 28696, Control_c, 8, 0, 0
1, 28696, Control_c, 8, 32, 0
1, 28696, Program_c, 8, 49
1, 28696, Note_on_c, 8, 72, 0
1, 28696, Note_on_c, 8, 64, 0
1, 28696, Note_on_c, 8, 52, 0
1, 28697, Note_on_c, 0, 79, 110
1, 28697, Note_on_c, 0, 91, 110
1, 28697, Note_on_c, 4, 67, 120
1, 28697, Note_on_c, 4, 67, 120
1, 28697, Note_on_c, 5, 72, 120
1, 28697, Note_on_c, 5, 79, 120
1, 28697, Note_on_c, 5, 60, 120
1, 28697, Note_on_c, 5, 67, 120
1, 28697, Control_c, 8, 0, 0
1, 28697, Control_c, 8, 32, 0
1, 28697, Program_c, 8, 44
1, 28697, Note_on_c, 8, 91, 110
1, 28697, Control_c, 8, 0, 0
1, 28697, Control_c, 8, 32, 0
1, 28697, Program_c, 8, 49
1, 28697, Note_on_c, 8, 79, 110
1, 28697, Note_on_c, 8, 72, 110
1, 28697, Note_on_c, 8, 60, 110
1, 28712, Note_on_c, 0, 79, 0
1, 28712, Note_on_c, 0, 91, 0
1, 28712, Note_on_c, 0, 81, 110
1, 28726, Note_on_c, 0, 81, 0
1, 28726, Note_on_c, 0, 79, 110
1, 28726, Note_on_c, 0, 91, 110
1, 28732, Note_on_c, 4, 67, 0
1, 28732, Note_on_c, 4, 67, 0
1, 28741, Note_on_c, 0, 79, 0
1, 28741, Note_on_c, 0, 91, 0
1, 28741, Note_on_c, 0, 81, 110
1, 28756, Note_on_c, 5, 72, 0
1, 28756, Note_on_c, 5, 79, 0
1, 28756, Note_on_c, 5, 60, 0
1, 28756, Note_on_c, 5, 67, 0
1, 28756, Note_on_c, 0, 81, 0
1, 28756, Note_on_c, 0, 79, 110
1, 28756, Note_on_c, 0, 91, 110
1, 28770, Note_on_c, 0, 79, 0
1, 28770, Note_on_c, 0, 91, 0
1, 28770, Note_on_c, 0, 81, 110
1, 28785, Note_on_c, 6, 43, 0
1, 28785, Note_on_c, 6, 43, 0
1, 28785, Note_on_c, 0, 81, 0
1, 28785, Note_on_c, 0, 79, 110
1, 28785, Note_on_c, 0, 91, 110
1, 28785, Note_on_c, 5, 77, 120
1, 28785, Note_on_c, 5, 74, 120
1, 28785, Note_on_c, 5, 65, 120
1, 28785, Note_on_c, 5, 62, 120
1, 28800, Note_on_c, 0, 79, 0
1, 28800, Note_on_c, 0, 91, 0
1, 28800, Note_on_c, 0, 81, 110
1, 28814, Note_on_c, 0, 81, 0
1, 28814, Note_on_c, 0, 79, 110
1, 28814, Note_on_c, 0, 91, 110
1, 28829, Note_on_c, 0, 79, 0
1, 28829, Note_on_c, 0, 91, 0
1, 28829, Note_on_c, 0, 81, 110
1, 28843, Note_on_c, 5, 77, 0
1, 28843, Note_on_c, 5, 74, 0
1, 28843, Note_on_c, 5, 65, 0
1, 28843, Note_on_c, 5, 62, 0
1, 28843, Note_on_c, 0, 81, 0
1, 28843, Note_on_c, 0, 79, 110
1, 28843, Note_on_c, 0, 91, 110
1, 28858, Note_on_c, 0, 79, 0
1, 28858, Note_on_c, 0, 91, 0
1, 28858, Note_on_c, 0, 81, 110
1, 28872, Note_on_c, 0, 81, 0
1, 28872, Note_on_c, 0, 79, 110
1, 28872, Note_on_c, 0, 91, 110
1, 28872, Note_on_c, 5, 76, 120
1, 28872, Note_on_c, 5, 76, 120
1, 28872, Note_on_c, 5, 64, 120
1, 28872, Note_on_c, 5, 64, 120
1, 28887, Note_on_c, 0, 79, 0
1, 28887, Note_on_c, 0, 91, 0
1, 28887, Note_on_c, 0, 81, 110
1, 28902, Note_on_c, 0, 81, 0
1, 28902, Note_on_c, 0, 79, 110
1, 28902, Note_on_c, 0, 91, 110
1, 28916, Note_on_c, 0, 79, 0
1, 28916, Note_on_c, 0, 91, 0
1, 28916, Note_on_c, 0, 81, 110
1, 28931, Note_on_c, 5, 76, 0
1, 28931, Note_on_c, 5, 76, 0
1, 28931, Note_on_c, 5, 64, 0
1, 28931, Note_on_c, 5, 64, 0
1, 28931, Note_on_c, 0, 81, 0
1, 28931, Note_on_c, 0, 79, 110
1, 28931, Note_on_c, 0, 91, 110
1, 28946, Note_on_c, 0, 79, 0
1, 28946, Note_on_c, 0, 91, 0
1, 28946, Note_on_c, 0, 81, 110
1, 28960, Note_on_c, 0, 81, 0
1, 28960, Note_on_c, 0, 79, 110
1, 28960, Note_on_c, 0, 91, 110
1, 28960, Note_on_c, 5, 72, 120
1, 28960, Note_on_c, 5, 79, 120
1, 28960, Note_on_c, 5, 60, 120
1, 28960, Note_on_c, 5, 67, 120
1, 28975, Note_on_c, 0, 79, 0
1, 28975, Note_on_c, 0, 91, 0
1, 28975, Note_on_c, 0, 81, 110
1, 28990, Note_on_c, 0, 81, 0
1, 28990, Note_on_c, 0, 79, 110
1, 28990, Note_on_c, 0, 91, 110
1, 29004, Note_on_c, 0, 79, 0
1, 29004, Note_on_c, 0, 91, 0
1, 29004, Note_on_c, 0, 81, 110
1, 29019, Note_on_c, 5, 72, 0
1, 29019, Note_on_c, 5, 79, 0
1, 29019, Note_on_c, 5, 60, 0
1, 29019, Note_on_c, 5, 67, 0
1, 29019, Note_on_c, 0, 81, 0
1, 29019, Note_on_c, 0, 79, 110
1, 29019, Note_on_c, 0, 91, 110
1, 29034, Note_on_c, 0, 79, 0
1, 29034, Note_on_c, 0, 91, 0
1, 29034, Note_on_c, 0, 81, 110
1, 29048, Note_on_c, 0, 81, 0
1, 29048, Note_on_c, 0, 79, 110
1, 29048, Note_on_c, 0, 91, 110
1, 29048, Note_on_c, 5, 67, 120
1, 29048, Note_on_c, 5, 74, 120
1, 29048, Note_on_c, 5, 55, 120
1, 29048, Note_on_c, 5, 62, 120
1, 29063, Note_on_c, 0, 79, 0
1, 29063, Note_on_c, 0, 91, 0
1, 29063, Note_on_c, 0, 81, 110
1, 29078, Note_on_c, 0, 81, 0
1, 29078, Note_on_c, 0, 79, 110
1, 29078, Note_on_c, 0, 91, 110
1, 29092, Note_on_c, 0, 79, 0
1, 29092, Note_on_c, 0, 91, 0
1, 29092, Note_on_c, 0, 81, 110
1, 29107, Note_on_c, 5, 67, 0
1, 29107, Note_on_c, 5, 74, 0
1, 29107, Note_on_c, 5, 55, 0
1, 29107, Note_on_c, 5, 62, 0
1, 29107, Note_on_c, 0, 81, 0
1, 29107, Note_on_c, 0, 79, 110
1, 29107, Note_on_c, 0, 91, 110
1, 29121, Note_on_c, 0, 79, 0
1, 29121, Note_on_c, 0, 91, 0
1, 29121, Note_on_c, 0, 81, 110
1, 29136, Note_on_c, 0, 81, 0
1, 29136, Note_on_c, 0, 79, 110
1, 29136, Note_on_c, 0, 91, 110
1, 29136, Note_on_c, 5, 69, 120
1, 29136, Note_on_c, 5, 72, 120
1, 29136, Note_on_c, 5, 57, 120
1, 29136, Note_on_c, 5, 60, 120
1, 29151, Note_on_c, 0, 79, 0
1, 29151, Note_on_c, 0, 91, 0
1, 29151, Note_on_c, 0, 81, 110
1, 29165, Note_on_c, 0, 81, 0
1, 29165, Note_on_c, 0, 79, 110
1, 29165, Note_on_c, 0, 91, 110
1, 29180, Note_on_c, 0, 79, 0
1, 29180, Note_on_c, 0, 91, 0
1, 29180, Note_on_c, 0, 81, 110
1, 29194, Note_on_c, 5, 69, 0
1, 29194, Note_on_c, 5, 72, 0
1, 29194, Note_on_c, 5, 57, 0
1, 29194, Note_on_c, 5, 60, 0
1, 29194, Note_on_c, 0, 81, 0
1, 29194, Note_on_c, 0, 79, 110
1, 29194, Note_on_c, 0, 91, 110
1, 29209, Note_on_c, 0, 79, 0
1, 29209, Note_on_c, 0, 91, 0
1, 29209, Note_on_c, 0, 81, 110
1, 29222, Note_on_c, 3, 43, 0
1, 29222, Note_on_c, 7, 31, 0
1, 29224, Control_c, 8, 0, 0
1, 29224, Control_c, 8, 32, 0
1, 29224, Program_c, 8, 44
1, 29224, Note_on_c, 8, 91, 0
1, 29224, Control_c, 8, 0, 0
1, 29224, Control_c, 8, 32, 0
1, 29224, Program_c, 8, 49
1, 29224, Note_on_c, 8, 79, 0
1, 29224, Note_on_c, 8, 72, 0
1, 29224, Note_on_c, 8, 60, 0
1, 29224, Note_on_c, 0, 81, 0
1, 29224, Note_on_c, 3, 43, 120
1, 29224, Note_on_c, 4, 48, 120
1, 29224, Note_on_c, 4, 48, 120
1, 29224, Note_on_c, 5, 43, 120
1, 29224, Note_on_c, 6, 43, 120
1, 29224, Note_on_c, 6, 43, 120
1, 29224, Note_on_c, 7, 31, 120
1, 29224, Control_c, 8, 0, 0
1, 29224, Control_c, 8, 32, 0
1, 29224, Program_c, 8, 48
1, 29234, Note_on_c, 4, 52, 120
1, 29234, Note_on_c, 4, 52, 120
1, 29236, Note_on_c, 4, 48, 0
1, 29236, Note_on_c, 4, 48, 0
1, 29246, Note_on_c, 4, 52, 0
1, 29246, Note_on_c, 4, 52, 0
1, 29246, Note_on_c, 4, 55, 120
1, 29246, Note_on_c, 4, 55, 120
1, 29257, Note_on_c, 4, 58, 120
1, 29257, Note_on_c, 4, 58, 120
1, 29258, Note_on_c, 4, 55, 0
1, 29258, Note_on_c, 4, 55, 0
1, 29258, Note_on_c, 5, 43, 0
1, 29268, Note_on_c, 4, 60, 120
1, 29268, Note_on_c, 4, 60, 120
1, 29269, Note_on_c, 4, 58, 0
1, 29269, Note_on_c, 4, 58, 0
1, 29279, Note_on_c, 4, 62, 120
1, 29279, Note_on_c, 4, 62, 120
1, 29280, Note_on_c, 4, 60, 0
1, 29280, Note_on_c, 4, 60, 0
1, 29289, Note_on_c, 0, 84, 110
1, 29289, Note_on_c, 0, 84, 110
1, 29290, Note_on_c, 4, 64, 120
1, 29290, Note_on_c, 4, 64, 120
1, 29290, Note_on_c, 4, 62, 0
1, 29290, Note_on_c, 4, 62, 0
1, 29294, Note_on_c, 0, 84, 0
1, 29294, Note_on_c, 0, 84, 0
1, 29294, Note_on_c, 0, 86, 110
1, 29294, Note_on_c, 0, 86, 110
1, 29300, Note_on_c, 0, 86, 0
1, 29300, Note_on_c, 0, 86, 0
1, 29300, Note_on_c, 0, 88, 110
1, 29300, Note_on_c, 0, 88, 110
1, 29302, Note_on_c, 4, 64, 0
1, 29302, Note_on_c, 4, 64, 0
1, 29305, Note_on_c, 0, 88, 0
1, 29305, Note_on_c, 0, 88, 0
1, 29305, Note_on_c, 0, 89, 110
1, 29305, Note_on_c, 0, 89, 110
1, 29311, Note_on_c, 0, 89, 0
1, 29311, Note_on_c, 0, 89, 0
1, 29312, Note_on_c, 0, 91, 110
1, 29312, Note_on_c, 0, 91, 110
1, 29312, Note_on_c, 1, 79, 120
1, 29312, Note_on_c, 1, 84, 120
1, 29312, Note_on_c, 2, 79, 110
1, 29312, Note_on_c, 2, 79, 110
1, 29312, Control_c, 4, 7, 100
1, 29312, Note_on_c, 4, 67, 120
1, 29312, Note_on_c, 4, 60, 120
1, 29312, Note_on_c, 4, 67, 120
1, 29312, Note_on_c, 4, 60, 120
1, 29312, Note_on_c, 5, 72, 120
1, 29312, Note_on_c, 5, 79, 120
1, 29312, Note_on_c, 5, 67, 110
1, 29312, Note_on_c, 5, 55, 120
1, 29312, Note_on_c, 9, 81, 100
1, 29312, Note_on_c, 8, 79, 120
1, 29312, Note_on_c, 8, 67, 120
1, 29312, Note_on_c, 8, 55, 120
1, 29312, Note_on_c, 8, 72, 120
1, 29312, Control_c, 8, 0, 0
1, 29312, Control_c, 8, 32, 0
1, 29312, Program_c, 8, 49
1, 29312, Note_on_c, 8, 79, 120
1, 29312, Note_on_c, 8, 67, 120
1, 29312, Note_on_c, 8, 55, 120
1, 29312, Note_on_c, 8, 72, 120
1, 29312, Note_on_c, 8, 48, 120
1, 29312, Note_on_c, 8, 55, 120
1, 29312, Note_on_c, 8, 67, 120
1, 29312, Note_on_c, 8, 79, 120
1, 29312, Note_on_c, 8, 36, 120
1, 29312, Note_on_c, 8, 43, 120
1, 29312, Note_on_c, 8, 60, 120
1, 29312, Note_on_c, 8, 52, 120
1, 29326, Note_on_c, 0, 91, 0
1, 29326, Note_on_c, 0, 91, 0
1, 29326, Note_on_c, 1, 79, 0
1, 29326, Note_on_c, 1, 84, 0
1, 29326, Note_on_c, 2, 79, 0
1, 29326, Note_on_c, 2, 79, 0
1, 29326, Note_on_c, 5, 67, 0
1, 29326, Note_on_c, 9, 81, 0
1, 29326, Note_on_c, 0, 93, 110
1, 29326, Note_on_c, 2, 72, 110
1, 29326, Note_on_c, 2, 81, 110
1, 29326, Note_on_c, 5, 69, 110
1, 29326, Note_on_c, 9, 81, 100
1, 29341, Note_on_c, 5, 55, 0
1, 29341, Note_on_c, 0, 93, 0
1, 29341, Note_on_c, 2, 72, 0
1, 29341, Note_on_c, 2, 81, 0
1, 29341, Note_on_c, 5, 69, 0
1, 29341, Note_on_c, 9, 81, 0
1, 29341, Note_on_c, 0, 91, 110
1, 29341, Note_on_c, 0, 91, 110
1, 29341, Note_on_c, 1, 79, 120
1, 29341, Note_on_c, 1, 84, 120
1, 29341, Note_on_c, 2, 79, 110
1, 29341, Note_on_c, 2, 79, 110
1, 29341, Note_on_c, 5, 67, 110
1, 29341, Note_on_c, 9, 81, 100
1, 29356, Note_on_c, 0, 91, 0
1, 29356, Note_on_c, 0, 91, 0
1, 29356, Note_on_c, 1, 79, 0
1, 29356, Note_on_c, 1, 84, 0
1, 29356, Note_on_c, 2, 79, 0
1, 29356, Note_on_c, 2, 79, 0
1, 29356, Note_on_c, 5, 67, 0
1, 29356, Note_on_c, 9, 81, 0
1, 29356, Note_on_c, 0, 93, 110
1, 29356, Note_on_c, 2, 72, 110
1, 29356, Note_on_c, 2, 81, 110
1, 29356, Note_on_c, 5, 69, 110
1, 29356, Note_on_c, 9, 81, 100
1, 29370, Note_on_c, 4, 67, 0
1, 29370, Note_on_c, 4, 60, 0
1, 29370, Note_on_c, 4, 67, 0
1, 29370, Note_on_c, 4, 60, 0
1, 29370, Note_on_c, 5, 72, 0
1, 29370, Note_on_c, 5, 79, 0
1, 29370, Control_c, 8, 0, 0
1, 29370, Control_c, 8, 32, 0
1, 29370, Program_c, 8, 48
1, 29370, Note_on_c, 8, 79, 0
1, 29370, Note_on_c, 8, 67, 0
1, 29370, Note_on_c, 8, 55, 0
1, 29370, Note_on_c, 8, 72, 0
1, 29370, Control_c, 8, 0, 0
1, 29370, Control_c, 8, 32, 0
1, 29370, Program_c, 8, 49
1, 29370, Note_on_c, 8, 79, 0
1, 29370, Note_on_c, 8, 67, 0
1, 29370, Note_on_c, 8, 55, 0
1, 29370, Note_on_c, 8, 72, 0
1, 29370, Note_on_c, 8, 48, 0
1, 29370, Note_on_c, 8, 55, 0
1, 29370, Note_on_c, 8, 67, 0
1, 29370, Note_on_c, 8, 79, 0
1, 29370, Note_on_c, 8, 36, 0
1, 29370, Note_on_c, 8, 43, 0
1, 29370, Note_on_c, 8, 60, 0
1, 29370, Note_on_c, 8, 52, 0
1, 29370, Note_on_c, 0, 93, 0
1, 29370, Note_on_c, 2, 72, 0
1, 29370, Note_on_c, 2, 81, 0
1, 29370, Note_on_c, 5, 69, 0
1, 29370, Note_on_c, 9, 81, 0
1, 29370, Note_on_c, 0, 91, 110
1, 29370, Note_on_c, 0, 91, 110
1, 29370, Note_on_c, 1, 79, 120
1, 29370, Note_on_c, 1, 84, 120
1, 29370, Note_on_c, 2, 79, 110
1, 29370, Note_on_c, 2, 79, 110
1, 29370, Note_on_c, 5, 67, 110
1, 29370, Note_on_c, 9, 81, 100
1, 29385, Note_on_c, 0, 91, 0
1, 29385, Note_on_c, 0, 91, 0
1, 29385, Note_on_c, 1, 79, 0
1, 29385, Note_on_c, 1, 84, 0
1, 29385, Note_on_c, 2, 79, 0
1, 29385, Note_on_c, 2, 79, 0
1, 29385, Note_on_c, 5, 67, 0
1, 29385, Note_on_c, 9, 81, 0
1, 29385, Note_on_c, 0, 93, 110
1, 29385, Note_on_c, 2, 72, 110
1, 29385, Note_on_c, 2, 81, 110
1, 29385, Note_on_c, 5, 69, 110
1, 29385, Note_on_c, 9, 81, 100
1, 29400, Note_on_c, 6, 43, 0
1, 29400, Note_on_c, 6, 43, 0
1, 29400, Note_on_c, 0, 93, 0
1, 29400, Note_on_c, 2, 72, 0
1, 29400, Note_on_c, 2, 81, 0
1, 29400, Note_on_c, 5, 69, 0
1, 29400, Note_on_c, 9, 81, 0
1, 29400, Note_on_c, 0, 91, 110
1, 29400, Note_on_c, 0, 91, 110
1, 29400, Note_on_c, 1, 79, 120
1, 29400, Note_on_c, 1, 84, 120
1, 29400, Note_on_c, 2, 79, 110
1, 29400, Note_on_c, 2, 79, 110
1, 29400, Note_on_c, 4, 65, 120
1, 29400, Note_on_c, 4, 62, 120
1, 29400, Note_on_c, 4, 65, 120
1, 29400, Note_on_c, 4, 62, 120
1, 29400, Note_on_c, 5, 77, 120
1, 29400, Note_on_c, 5, 74, 120
1, 29400, Note_on_c, 5, 67, 110
1, 29400, Note_on_c, 9, 81, 100
1, 29400, Control_c, 8, 0, 0
1, 29400, Control_c, 8, 32, 0
1, 29400, Program_c, 8, 48
1, 29400, Note_on_c, 8, 77, 120
1, 29400, Note_on_c, 8, 74, 120
1, 29400, Control_c, 8, 0, 0
1, 29400, Control_c, 8, 32, 0
1, 29400, Program_c, 8, 49
1, 29400, Note_on_c, 8, 65, 120
1, 29400, Note_on_c, 8, 55, 120
1, 29400, Note_on_c, 8, 77, 120
1, 29400, Note_on_c, 8, 67, 120
1, 29400, Note_on_c, 8, 60, 120
1, 29414, Note_on_c, 0, 91, 0
1, 29414, Note_on_c, 0, 91, 0
1, 29414, Note_on_c, 1, 79, 0
1, 29414, Note_on_c, 1, 84, 0
1, 29414, Note_on_c, 2, 79, 0
1, 29414, Note_on_c, 2, 79, 0
1, 29414, Note_on_c, 5, 67, 0
1, 29414, Note_on_c, 9, 81, 0
1, 29414, Note_on_c, 0, 93, 110
1, 29414, Note_on_c, 2, 72, 110
1, 29414, Note_on_c, 2, 81, 110
1, 29414, Note_on_c, 5, 69, 110
1, 29414, Note_on_c, 9, 81, 100
1, 29429, Note_on_c, 0, 93, 0
1, 29429, Note_on_c, 2, 72, 0
1, 29429, Note_on_c, 2, 81, 0
1, 29429, Note_on_c, 5, 69, 0
1, 29429, Note_on_c, 9, 81, 0
1, 29429, Note_on_c, 0, 91, 110
1, 29429, Note_on_c, 0, 91, 110
1, 29429, Note_on_c, 1, 79, 120
1, 29429, Note_on_c, 1, 84, 120
1, 29429, Note_on_c, 2, 79, 110
1, 29429, Note_on_c, 2, 79, 110
1, 29429, Note_on_c, 5, 67, 110
1, 29429, Note_on_c, 9, 81, 100
1, 29443, Note_on_c, 0, 91, 0
1, 29443, Note_on_c, 0, 91, 0
1, 29443, Note_on_c, 1, 79, 0
1, 29443, Note_on_c, 1, 84, 0
1, 29443, Note_on_c, 2, 79, 0
1, 29443, Note_on_c, 2, 79, 0
1, 29443, Note_on_c, 5, 67, 0
1, 29443, Note_on_c, 9, 81, 0
1, 29443, Note_on_c, 0, 93, 110
1, 29443, Note_on_c, 2, 72, 110
1, 29443, Note_on_c, 2, 81, 110
1, 29443, Note_on_c, 5, 69, 110
1, 29443, Note_on_c, 9, 81, 100
1, 29458, Note_on_c, 4, 65, 0
1, 29458, Note_on_c, 4, 62, 0
1, 29458, Note_on_c, 4, 65, 0
1, 29458, Note_on_c, 4, 62, 0
1, 29458, Note_on_c, 5, 77, 0
1, 29458, Note_on_c, 5, 74, 0
1, 29458, Control_c, 8, 0, 0
1, 29458, Control_c, 8, 32, 0
1, 29458, Program_c, 8, 48
1, 29458, Note_on_c, 8, 77, 0
1, 29458, Note_on_c, 8, 74, 0
1, 29458, Control_c, 8, 0, 0
1, 29458, Control_c, 8, 32, 0
1, 29458, Program_c, 8, 49
1, 29458, Note_on_c, 8, 65, 0
1, 29458, Note_on_c, 8, 55, 0
1, 29458, Note_on_c, 8, 77, 0
1, 29458, Note_on_c, 8, 67, 0
1, 29458, Note_on_c, 8, 60, 0
1, 29458, Note_on_c, 0, 93, 0
1, 29458, Note_on_c, 2, 72, 0
1, 29458, Note_on_c, 2, 81, 0
1, 29458, Note_on_c, 5, 69, 0
1, 29458, Note_on_c, 9, 81, 0
1, 29458, Note_on_c, 0, 91, 110
1, 29458, Note_on_c, 0, 91, 110
1, 29458, Note_on_c, 1, 79, 120
1, 29458, Note_on_c, 1, 84, 120
1, 29458, Note_on_c, 2, 79, 110
1, 29458, Note_on_c, 2, 79, 110
1, 29458, Note_on_c, 5, 67, 110
1, 29458, Note_on_c, 9, 81, 100
1, 29472, Note_on_c, 0, 91, 0
1, 29472, Note_on_c, 0, 91, 0
1, 29472, Note_on_c, 1, 79, 0
1, 29472, Note_on_c, 1, 84, 0
1, 29472, Note_on_c, 2, 79, 0
1, 29472, Note_on_c, 2, 79, 0
1, 29472, Note_on_c, 5, 67, 0
1, 29472, Note_on_c, 9, 81, 0
1, 29472, Note_on_c, 0, 93, 110
1, 29472, Note_on_c, 2, 72, 110
1, 29472, Note_on_c, 2, 81, 110
1, 29472, Note_on_c, 5, 69, 110
1, 29472, Note_on_c, 9, 81, 100
1, 29487, Note_on_c, 0, 93, 0
1, 29487, Note_on_c, 2, 72, 0
1, 29487, Note_on_c, 2, 81, 0
1, 29487, Note_on_c, 5, 69, 0
1, 29487, Note_on_c, 9, 81, 0
1, 29487, Note_on_c, 0, 91, 110
1, 29487, Note_on_c, 0, 91, 110
1, 29487, Note_on_c, 1, 79, 120
1, 29487, Note_on_c, 1, 84, 120
1, 29487, Note_on_c, 2, 79, 110
1, 29487, Note_on_c, 2, 79, 110
1, 29487, Note_on_c, 4, 64, 120
1, 29487, Note_on_c, 4, 64, 120
1, 29487, Note_on_c, 4, 64, 120
1, 29487, Note_on_c, 4, 64, 120
1, 29487, Note_on_c, 5, 76, 120
1, 29487, Note_on_c, 5, 76, 120
1, 29487, Note_on_c, 5, 67, 110
1, 29487, Note_on_c, 9, 81, 100
1, 29487, Control_c, 8, 0, 0
1, 29487, Control_c, 8, 32, 0
1, 29487, Program_c, 8, 48
1, 29487, Note_on_c, 8, 76, 120
1, 29487, Note_on_c, 8, 72, 120
1, 29487, Control_c, 8, 0, 0
1, 29487, Control_c, 8, 32, 0
1, 29487, Program_c, 8, 49
1, 29487, Note_on_c, 8, 64, 120
1, 29487, Note_on_c, 8, 55, 120
1, 29487, Note_on_c, 8, 76, 120
1, 29487, Note_on_c, 8, 67, 120
1, 29487, Note_on_c, 8, 64, 120
1, 29502, Note_on_c, 0, 91, 0
1, 29502, Note_on_c, 0, 91, 0
1, 29502, Note_on_c, 1, 79, 0
1, 29502, Note_on_c, 1, 84, 0
1, 29502, Note_on_c, 2, 79, 0
1, 29502, Note_on_c, 2, 79, 0
1, 29502, Note_on_c, 5, 67, 0
1, 29502, Note_on_c, 9, 81, 0
1, 29502, Note_on_c, 0, 93, 110
1, 29502, Note_on_c, 2, 72, 110
1, 29502, Note_on_c, 2, 81, 110
1, 29502, Note_on_c, 5, 69, 110
1, 29502, Note_on_c, 9, 81, 100
1, 29516, Note_on_c, 0, 93, 0
1, 29516, Note_on_c, 2, 72, 0
1, 29516, Note_on_c, 2, 81, 0
1, 29516, Note_on_c, 5, 69, 0
1, 29516, Note_on_c, 9, 81, 0
1, 29516, Note_on_c, 0, 91, 110
1, 29516, Note_on_c, 0, 91, 110
1, 29516, Note_on_c, 1, 79, 120
1, 29516, Note_on_c, 1, 84, 120
1, 29516, Note_on_c, 2, 79, 110
1, 29516, Note_on_c, 2, 79, 110
1, 29516, Note_on_c, 5, 67, 110
1, 29516, Note_on_c, 9, 81, 100
1, 29531, Note_on_c, 0, 91, 0
1, 29531, Note_on_c, 0, 91, 0
1, 29531, Note_on_c, 1, 79, 0
1, 29531, Note_on_c, 1, 84, 0
1, 29531, Note_on_c, 2, 79, 0
1, 29531, Note_on_c, 2, 79, 0
1, 29531, Note_on_c, 5, 67, 0
1, 29531, Note_on_c, 9, 81, 0
1, 29531, Note_on_c, 0, 93, 110
1, 29531, Note_on_c, 2, 72, 110
1, 29531, Note_on_c, 2, 81, 110
1, 29531, Note_on_c, 5, 69, 110
1, 29531, Note_on_c, 9, 81, 100
1, 29546, Note_on_c, 4, 64, 0
1, 29546, Note_on_c, 4, 64, 0
1, 29546, Note_on_c, 4, 64, 0
1, 29546, Note_on_c, 4, 64, 0
1, 29546, Note_on_c, 5, 76, 0
1, 29546, Note_on_c, 5, 76, 0
1, 29546, Control_c, 8, 0, 0
1, 29546, Control_c, 8, 32, 0
1, 29546, Program_c, 8, 48
1, 29546, Note_on_c, 8, 76, 0
1, 29546, Note_on_c, 8, 72, 0
1, 29546, Control_c, 8, 0, 0
1, 29546, Control_c, 8, 32, 0
1, 29546, Program_c, 8, 49
1, 29546, Note_on_c, 8, 64, 0
1, 29546, Note_on_c, 8, 55, 0
1, 29546, Note_on_c, 8, 76, 0
1, 29546, Note_on_c, 8, 67, 0
1, 29546, Note_on_c, 8, 64, 0
1, 29546, Note_on_c, 0, 93, 0
1, 29546, Note_on_c, 2, 72, 0
1, 29546, Note_on_c, 2, 81, 0
1, 29546, Note_on_c, 5, 69, 0
1, 29546, Note_on_c, 9, 81, 0
1, 29546, Note_on_c, 0, 91, 110
1, 29546, Note_on_c, 0, 91, 110
1, 29546, Note_on_c, 1, 79, 120
1, 29546, Note_on_c, 1, 84, 120
1, 29546, Note_on_c, 2, 79, 110
1, 29546, Note_on_c, 2, 79, 110
1, 29546, Note_on_c, 5, 67, 110
1, 29546, Note_on_c, 9, 81, 100
1, 29560, Note_on_c, 0, 91, 0
1, 29560, Note_on_c, 0, 91, 0
1, 29560, Note_on_c, 1, 79, 0
1, 29560, Note_on_c, 1, 84, 0
1, 29560, Note_on_c, 2, 79, 0
1, 29560, Note_on_c, 2, 79, 0
1, 29560, Note_on_c, 5, 67, 0
1, 29560, Note_on_c, 9, 81, 0
1, 29560, Note_on_c, 0, 93, 110
1, 29560, Note_on_c, 2, 72, 110
1, 29560, Note_on_c, 2, 81, 110
1, 29560, Note_on_c, 5, 69, 110
1, 29560, Note_on_c, 9, 81, 100
1, 29575, Note_on_c, 0, 93, 0
1, 29575, Note_on_c, 2, 72, 0
1, 29575, Note_on_c, 2, 81, 0
1, 29575, Note_on_c, 5, 69, 0
1, 29575, Note_on_c, 9, 81, 0
1, 29575, Note_on_c, 0, 91, 110
1, 29575, Note_on_c, 0, 91, 110
1, 29575, Note_on_c, 1, 79, 120
1, 29575, Note_on_c, 1, 84, 120
1, 29575, Note_on_c, 2, 79, 110
1, 29575, Note_on_c, 2, 79, 110
1, 29575, Note_on_c, 4, 67, 120
1, 29575, Note_on_c, 4, 60, 120
1, 29575, Note_on_c, 4, 67, 120
1, 29575, Note_on_c, 4, 60, 120
1, 29575, Note_on_c, 5, 72, 120
1, 29575, Note_on_c, 5, 79, 120
1, 29575, Note_on_c, 5, 67, 110
1, 29575, Note_on_c, 9, 81, 100
1, 29575, Control_c, 8, 0, 0
1, 29575, Control_c, 8, 32, 0
1, 29575, Program_c, 8, 48
1, 29575, Note_on_c, 8, 72, 120
1, 29575, Note_on_c, 8, 79, 120
1, 29575, Control_c, 8, 0, 0
1, 29575, Control_c, 8, 32, 0
1, 29575, Program_c, 8, 49
1, 29575, Note_on_c, 8, 67, 120
1, 29575, Note_on_c, 8, 55, 120
1, 29575, Note_on_c, 8, 79, 120
1, 29575, Note_on_c, 8, 67, 120
1, 29575, Note_on_c, 8, 67, 120
1, 29590, Note_on_c, 0, 91, 0
1, 29590, Note_on_c, 0, 91, 0
1, 29590, Note_on_c, 1, 79, 0
1, 29590, Note_on_c, 1, 84, 0
1, 29590, Note_on_c, 2, 79, 0
1, 29590, Note_on_c, 2, 79, 0
1, 29590, Note_on_c, 5, 67, 0
1, 29590, Note_on_c, 9, 81, 0
1, 29590, Note_on_c, 0, 93, 110
1, 29590, Note_on_c, 2, 72, 110
1, 29590, Note_on_c, 2, 81, 110
1, 29590, Note_on_c, 5, 69, 110
1, 29590, Note_on_c, 9, 81, 100
1, 29604, Note_on_c, 0, 93, 0
1, 29604, Note_on_c, 2, 72, 0
1, 29604, Note_on_c, 2, 81, 0
1, 29604, Note_on_c, 5, 69, 0
1, 29604, Note_on_c, 9, 81, 0
1, 29604, Note_on_c, 0, 91, 110
1, 29604, Note_on_c, 0, 91, 110
1, 29604, Note_on_c, 1, 79, 120
1, 29604, Note_on_c, 1, 84, 120
1, 29604, Note_on_c, 2, 79, 110
1, 29604, Note_on_c, 2, 79, 110
1, 29604, Note_on_c, 5, 67, 110
1, 29604, Note_on_c, 9, 81, 100
1, 29619, Note_on_c, 0, 91, 0
1, 29619, Note_on_c, 0, 91, 0
1, 29619, Note_on_c, 1, 79, 0
1, 29619, Note_on_c, 1, 84, 0
1, 29619, Note_on_c, 2, 79, 0
1, 29619, Note_on_c, 2, 79, 0
1, 29619, Note_on_c, 5, 67, 0
1, 29619, Note_on_c, 9, 81, 0
1, 29619, Note_on_c, 0, 93, 110
1, 29619, Note_on_c, 2, 72, 110
1, 29619, Note_on_c, 2, 81, 110
1, 29619, Note_on_c, 5, 69, 110
1, 29619, Note_on_c, 9, 81, 100
1, 29634, Note_on_c, 4, 67, 0
1, 29634, Note_on_c, 4, 60, 0
1, 29634, Note_on_c, 4, 67, 0
1, 29634, Note_on_c, 4, 60, 0
1, 29634, Note_on_c, 5, 72, 0
1, 29634, Note_on_c, 5, 79, 0
1, 29634, Control_c, 8, 0, 0
1, 29634, Control_c, 8, 32, 0
1, 29634, Program_c, 8, 48
1, 29634, Note_on_c, 8, 72, 0
1, 29634, Note_on_c, 8, 79, 0
1, 29634, Control_c, 8, 0, 0
1, 29634, Control_c, 8, 32, 0
1, 29634, Program_c, 8, 49
1, 29634, Note_on_c, 8, 67, 0
1, 29634, Note_on_c, 8, 55, 0
1, 29634, Note_on_c, 8, 79, 0
1, 29634, Note_on_c, 8, 67, 0
1, 29634, Note_on_c, 8, 67, 0
1, 29634, Note_on_c, 0, 93, 0
1, 29634, Note_on_c, 2, 72, 0
1, 29634, Note_on_c, 2, 81, 0
1, 29634, Note_on_c, 5, 69, 0
1, 29634, Note_on_c, 9, 81, 0
1, 29634, Note_on_c, 0, 91, 110
1, 29634, Note_on_c, 0, 91, 110
1, 29634, Note_on_c, 1, 79, 120
1, 29634, Note_on_c, 1, 84, 120
1, 29634, Note_on_c, 2, 79, 110
1, 29634, Note_on_c, 2, 79, 110
1, 29634, Note_on_c, 5, 67, 110
1, 29634, Note_on_c, 9, 81, 100
1, 29648, Note_on_c, 0, 91, 0
1, 29648, Note_on_c, 0, 91, 0
1, 29648, Note_on_c, 1, 79, 0
1, 29648, Note_on_c, 1, 84, 0
1, 29648, Note_on_c, 2, 79, 0
1, 29648, Note_on_c, 2, 79, 0
1, 29648, Note_on_c, 5, 67, 0
1, 29648, Note_on_c, 9, 81, 0
1, 29648, Note_on_c, 0, 93, 110
1, 29648, Note_on_c, 2, 72, 110
1, 29648, Note_on_c, 2, 81, 110
1, 29648, Note_on_c, 5, 69, 110
1, 29648, Note_on_c, 9, 81, 100
1, 29663, Note_on_c, 0, 93, 0
1, 29663, Note_on_c, 2, 72, 0
1, 29663, Note_on_c, 2, 81, 0
1, 29663, Note_on_c, 5, 69, 0
1, 29663, Note_on_c, 9, 81, 0
1, 29663, Note_on_c, 0, 91, 110
1, 29663, Note_on_c, 0, 91, 110
1, 29663, Note_on_c, 1, 79, 120
1, 29663, Note_on_c, 1, 84, 120
1, 29663, Note_on_c, 2, 79, 110
1, 29663, Note_on_c, 2, 79, 110
1, 29663, Note_on_c, 4, 62, 120
1, 29663, Note_on_c, 4, 55, 120
1, 29663, Note_on_c, 4, 62, 120
1, 29663, Note_on_c, 4, 55, 120
1, 29663, Note_on_c, 5, 67, 120
1, 29663, Note_on_c, 5, 74, 120
1, 29663, Note_on_c, 5, 67, 110
1, 29663, Note_on_c, 9, 81, 100
1, 29663, Control_c, 8, 0, 0
1, 29663, Control_c, 8, 32, 0
1, 29663, Program_c, 8, 48
1, 29663, Note_on_c, 8, 74, 120
1, 29663, Note_on_c, 8, 74, 120
1, 29663, Control_c, 8, 0, 0
1, 29663, Control_c, 8, 32, 0
1, 29663, Program_c, 8, 49
1, 29663, Note_on_c, 8, 55, 120
1, 29663, Note_on_c, 8, 62, 120
1, 29663, Note_on_c, 8, 67, 120
1, 29663, Note_on_c, 8, 74, 120
1, 29663, Note_on_c, 8, 72, 120
1, 29678, Note_on_c, 0, 91, 0
1, 29678, Note_on_c, 0, 91, 0
1, 29678, Note_on_c, 1, 79, 0
1, 29678, Note_on_c, 1, 84, 0
1, 29678, Note_on_c, 2, 79, 0
1, 29678, Note_on_c, 2, 79, 0
1, 29678, Note_on_c, 5, 67, 0
1, 29678, Note_on_c, 9, 81, 0
1, 29678, Note_on_c, 0, 93, 110
1, 29678, Note_on_c, 2, 72, 110
1, 29678, Note_on_c, 2, 81, 110
1, 29678, Note_on_c, 5, 69, 110
1, 29678, Note_on_c, 9, 81, 100
1, 29692, Note_on_c, 0, 93, 0
1, 29692, Note_on_c, 2, 72, 0
1, 29692, Note_on_c, 2, 81, 0
1, 29692, Note_on_c, 5, 69, 0
1, 29692, Note_on_c, 9, 81, 0
1, 29692, Note_on_c, 0, 91, 110
1, 29692, Note_on_c, 0, 91, 110
1, 29692, Note_on_c, 1, 79, 120
1, 29692, Note_on_c, 1, 84, 120
1, 29692, Note_on_c, 2, 79, 110
1, 29692, Note_on_c, 2, 79, 110
1, 29692, Note_on_c, 5, 67, 110
1, 29692, Note_on_c, 9, 81, 100
1, 29707, Note_on_c, 0, 91, 0
1, 29707, Note_on_c, 0, 91, 0
1, 29707, Note_on_c, 1, 79, 0
1, 29707, Note_on_c, 1, 84, 0
1, 29707, Note_on_c, 2, 79, 0
1, 29707, Note_on_c, 2, 79, 0
1, 29707, Note_on_c, 5, 67, 0
1, 29707, Note_on_c, 9, 81, 0
1, 29707, Note_on_c, 0, 93, 110
1, 29707, Note_on_c, 2, 72, 110
1, 29707, Note_on_c, 2, 81, 110
1, 29707, Note_on_c, 5, 69, 110
1, 29707, Note_on_c, 9, 81, 100
1, 29721, Note_on_c, 4, 62, 0
1, 29721, Note_on_c, 4, 55, 0
1, 29721, Note_on_c, 4, 62, 0
1, 29721, Note_on_c, 4, 55, 0
1, 29721, Note_on_c, 5, 67, 0
1, 29721, Note_on_c, 5, 74, 0
1, 29721, Control_c, 8, 0, 0
1, 29721, Control_c, 8, 32, 0
1, 29721, Program_c, 8, 48
1, 29721, Note_on_c, 8, 74, 0
1, 29721, Note_on_c, 8, 74, 0
1, 29721, Control_c, 8, 0, 0
1, 29721, Control_c, 8, 32, 0
1, 29721, Program_c, 8, 49
1, 29721, Note_on_c, 8, 55, 0
1, 29721, Note_on_c, 8, 62, 0
1, 29721, Note_on_c, 8, 67, 0
1, 29721, Note_on_c, 8, 74, 0
1, 29721, Note_on_c, 8, 72, 0
1, 29721, Note_on_c, 0, 93, 0
1, 29721, Note_on_c, 2, 72, 0
1, 29721, Note_on_c, 2, 81, 0
1, 29721, Note_on_c, 5, 69, 0
1, 29721, Note_on_c, 9, 81, 0
1, 29721, Note_on_c, 0, 91, 110
1, 29721, Note_on_c, 0, 91, 110
1, 29721, Note_on_c, 1, 79, 120
1, 29721, Note_on_c, 1, 84, 120
1, 29721, Note_on_c, 2, 79, 110
1, 29721, Note_on_c, 2, 79, 110
1, 29721, Note_on_c, 5, 67, 110
1, 29721, Note_on_c, 9, 81, 100
1, 29736, Note_on_c, 0, 91, 0
1, 29736, Note_on_c, 0, 91, 0
1, 29736, Note_on_c, 1, 79, 0
1, 29736, Note_on_c, 1, 84, 0
1, 29736, Note_on_c, 2, 79, 0
1, 29736, Note_on_c, 2, 79, 0
1, 29736, Note_on_c, 5, 67, 0
1, 29736, Note_on_c, 9, 81, 0
1, 29736, Note_on_c, 0, 93, 110
1, 29736, Note_on_c, 2, 72, 110
1, 29736, Note_on_c, 2, 81, 110
1, 29736, Note_on_c, 5, 69, 110
1, 29736, Note_on_c, 9, 81, 100
1, 29751, Note_on_c, 0, 93, 0
1, 29751, Note_on_c, 2, 72, 0
1, 29751, Note_on_c, 2, 81, 0
1, 29751, Note_on_c, 5, 69, 0
1, 29751, Note_on_c, 9, 81, 0
1, 29751, Note_on_c, 0, 91, 110
1, 29751, Note_on_c, 0, 91, 110
1, 29751, Note_on_c, 1, 79, 120
1, 29751, Note_on_c, 1, 84, 120
1, 29751, Note_on_c, 2, 79, 110
1, 29751, Note_on_c, 2, 79, 110
1, 29751, Note_on_c, 4, 60, 120
1, 29751, Note_on_c, 4, 57, 120
1, 29751, Note_on_c, 4, 60, 120
1, 29751, Note_on_c, 4, 57, 120
1, 29751, Note_on_c, 5, 69, 120
1, 29751, Note_on_c, 5, 72, 120
1, 29751, Note_on_c, 5, 67, 110
1, 29751, Note_on_c, 9, 81, 100
1, 29751, Control_c, 8, 0, 0
1, 29751, Control_c, 8, 32, 0
1, 29751, Program_c, 8, 48
1, 29751, Note_on_c, 8, 72, 120
1, 29751, Note_on_c, 8, 72, 120
1, 29751, Control_c, 8, 0, 0
1, 29751, Control_c, 8, 32, 0
1, 29751, Program_c, 8, 49
1, 29751, Note_on_c, 8, 60, 120
1, 29751, Note_on_c, 8, 55, 120
1, 29751, Note_on_c, 8, 72, 120
1, 29751, Note_on_c, 8, 67, 120
1, 29751, Note_on_c, 8, 60, 120
1, 29765, Note_on_c, 0, 91, 0
1, 29765, Note_on_c, 0, 91, 0
1, 29765, Note_on_c, 1, 79, 0
1, 29765, Note_on_c, 1, 84, 0
1, 29765, Note_on_c, 2, 79, 0
1, 29765, Note_on_c, 2, 79, 0
1, 29765, Note_on_c, 5, 67, 0
1, 29765, Note_on_c, 9, 81, 0
1, 29765, Note_on_c, 0, 93, 110
1, 29765, Note_on_c, 2, 72, 110
1, 29765, Note_on_c, 2, 81, 110
1, 29765, Note_on_c, 5, 69, 110
1, 29765, Note_on_c, 9, 81, 100
1, 29780, Note_on_c, 0, 93, 0
1, 29780, Note_on_c, 2, 72, 0
1, 29780, Note_on_c, 2, 81, 0
1, 29780, Note_on_c, 5, 69, 0
1, 29780, Note_on_c, 9, 81, 0
1, 29780, Note_on_c, 0, 91, 110
1, 29780, Note_on_c, 0, 91, 110
1, 29780, Note_on_c, 1, 79, 120
1, 29780, Note_on_c, 1, 84, 120
1, 29780, Note_on_c, 2, 79, 110
1, 29780, Note_on_c, 2, 79, 110
1, 29780, Note_on_c, 5, 67, 110
1, 29780, Note_on_c, 9, 81, 100
1, 29794, Note_on_c, 0, 91, 0
1, 29794, Note_on_c, 0, 91, 0
1, 29794, Note_on_c, 1, 79, 0
1, 29794, Note_on_c, 1, 84, 0
1, 29794, Note_on_c, 2, 79, 0
1, 29794, Note_on_c, 2, 79, 0
1, 29794, Note_on_c, 5, 67, 0
1, 29794, Note_on_c, 9, 81, 0
1, 29794, Note_on_c, 0, 93, 110
1, 29794, Note_on_c, 2, 72, 110
1, 29794, Note_on_c, 2, 81, 110
1, 29794, Note_on_c, 5, 69, 110
1, 29794, Note_on_c, 9, 81, 100
1, 29809, Note_on_c, 4, 60, 0
1, 29809, Note_on_c, 4, 57, 0
1, 29809, Note_on_c, 4, 60, 0
1, 29809, Note_on_c, 4, 57, 0
1, 29809, Note_on_c, 5, 69, 0
1, 29809, Note_on_c, 5, 72, 0
1, 29809, Control_c, 8, 0, 0
1, 29809, Control_c, 8, 32, 0
1, 29809, Program_c, 8, 48
1, 29809, Note_on_c, 8, 72, 0
1, 29809, Note_on_c, 8, 72, 0
1, 29809, Control_c, 8, 0, 0
1, 29809, Control_c, 8, 32, 0
1, 29809, Program_c, 8, 49
1, 29809, Note_on_c, 8, 60, 0
1, 29809, Note_on_c, 8, 55, 0
1, 29809, Note_on_c, 8, 72, 0
1, 29809, Note_on_c, 8, 67, 0
1, 29809, Note_on_c, 8, 60, 0
1, 29809, Note_on_c, 0, 93, 0
1, 29809, Note_on_c, 2, 72, 0
1, 29809, Note_on_c, 2, 81, 0
1, 29809, Note_on_c, 5, 69, 0
1, 29809, Note_on_c, 9, 81, 0
1, 29809, Note_on_c, 0, 91, 110
1, 29809, Note_on_c, 0, 91, 110
1, 29809, Note_on_c, 1, 79, 120
1, 29809, Note_on_c, 1, 84, 120
1, 29809, Note_on_c, 2, 79, 110
1, 29809, Note_on_c, 2, 79, 110
1, 29809, Note_on_c, 5, 67, 110
1, 29809, Note_on_c, 9, 81, 100
1, 29824, Note_on_c, 0, 91, 0
1, 29824, Note_on_c, 0, 91, 0
1, 29824, Note_on_c, 1, 79, 0
1, 29824, Note_on_c, 1, 84, 0
1, 29824, Note_on_c, 2, 79, 0
1, 29824, Note_on_c, 2, 79, 0
1, 29824, Note_on_c, 5, 67, 0
1, 29824, Note_on_c, 9, 81, 0
1, 29824, Note_on_c, 0, 93, 110
1, 29824, Note_on_c, 2, 72, 110
1, 29824, Note_on_c, 2, 81, 110
1, 29824, Note_on_c, 5, 69, 110
1, 29824, Note_on_c, 9, 81, 100
1, 29837, Note_on_c, 3, 43, 0
1, 29838, Note_on_c, 0, 93, 0
1, 29838, Note_on_c, 2, 72, 0
1, 29838, Note_on_c, 2, 81, 0
1, 29838, Note_on_c, 5, 69, 0
1, 29838, Note_on_c, 9, 81, 0
1, 29838, Note_on_c, 0, 91, 110
1, 29838, Note_on_c, 0, 91, 110
1, 29838, Note_on_c, 1, 79, 120
1, 29838, Note_on_c, 1, 84, 120
1, 29838, Note_on_c, 2, 79, 110
1, 29838, Note_on_c, 2, 79, 110
1, 29838, Note_on_c, 3, 43, 120
1, 29838, Note_on_c, 4, 65, 120
1, 29838, Note_on_c, 4, 62, 120
1, 29838, Note_on_c, 4, 65, 120
1, 29838, Note_on_c, 4, 62, 120
1, 29838, Note_on_c, 5, 77, 120
1, 29838, Note_on_c, 5, 74, 120
1, 29838, Note_on_c, 5, 67, 110
1, 29838, Note_on_c, 9, 81, 100
1, 29838, Control_c, 8, 0, 0
1, 29838, Control_c, 8, 32, 0
1, 29838, Program_c, 8, 48
1, 29838, Note_on_c, 8, 77, 120
1, 29838, Note_on_c, 8, 74, 120
1, 29838, Control_c, 8, 0, 0
1, 29838, Control_c, 8, 32, 0
1, 29838, Program_c, 8, 49
1, 29838, Note_on_c, 8, 65, 120
1, 29838, Note_on_c, 8, 55, 120
1, 29838, Note_on_c, 8, 67, 120
1, 29838, Note_on_c, 8, 77, 120
1, 29838, Note_on_c, 8, 65, 120
1, 29853, Note_on_c, 0, 91, 0
1, 29853, Note_on_c, 0, 91, 0
1, 29853, Note_on_c, 1, 79, 0
1, 29853, Note_on_c, 1, 84, 0
1, 29853, Note_on_c, 2, 79, 0
1, 29853, Note_on_c, 2, 79, 0
1, 29853, Note_on_c, 5, 67, 0
1, 29853, Note_on_c, 9, 81, 0
1, 29853, Note_on_c, 0, 93, 110
1, 29853, Note_on_c, 2, 72, 110
1, 29853, Note_on_c, 2, 81, 110
1, 29853, Note_on_c, 5, 69, 110
1, 29853, Note_on_c, 9, 81, 100
1, 29868, Note_on_c, 0, 93, 0
1, 29868, Note_on_c, 2, 72, 0
1, 29868, Note_on_c, 2, 81, 0
1, 29868, Note_on_c, 5, 69, 0
1, 29868, Note_on_c, 9, 81, 0
1, 29868, Note_on_c, 0, 91, 110
1, 29868, Note_on_c, 0, 91, 110
1, 29868, Note_on_c, 1, 79, 120
1, 29868, Note_on_c, 1, 84, 120
1, 29868, Note_on_c, 2, 79, 110
1, 29868, Note_on_c, 2, 79, 110
1, 29868, Note_on_c, 5, 67, 110
1, 29868, Note_on_c, 9, 81, 100
1, 29882, Note_on_c, 0, 91, 0
1, 29882, Note_on_c, 0, 91, 0
1, 29882, Note_on_c, 1, 79, 0
1, 29882, Note_on_c, 1, 84, 0
1, 29882, Note_on_c, 2, 79, 0
1, 29882, Note_on_c, 2, 79, 0
1, 29882, Note_on_c, 5, 67, 0
1, 29882, Note_on_c, 9, 81, 0
1, 29882, Note_on_c, 0, 93, 110
1, 29882, Note_on_c, 2, 72, 110
1, 29882, Note_on_c, 2, 81, 110
1, 29882, Note_on_c, 5, 69, 110
1, 29882, Note_on_c, 9, 81, 100
1, 29897, Note_on_c, 4, 65, 0
1, 29897, Note_on_c, 4, 62, 0
1, 29897, Note_on_c, 4, 65, 0
1, 29897, Note_on_c, 4, 62, 0
1, 29897, Note_on_c, 5, 77, 0
1, 29897, Note_on_c, 5, 74, 0
1, 29897, Control_c, 8, 0, 0
1, 29897, Control_c, 8, 32, 0
1, 29897, Program_c, 8, 48
1, 29897, Note_on_c, 8, 77, 0
1, 29897, Note_on_c, 8, 74, 0
1, 29897, Control_c, 8, 0, 0
1, 29897, Control_c, 8, 32, 0
1, 29897, Program_c, 8, 49
1, 29897, Note_on_c, 8, 65, 0
1, 29897, Note_on_c, 8, 55, 0
1, 29897, Note_on_c, 8, 67, 0
1, 29897, Note_on_c, 8, 77, 0
1, 29897, Note_on_c, 8, 65, 0
1, 29897, Note_on_c, 0, 93, 0
1, 29897, Note_on_c, 2, 72, 0
1, 29897, Note_on_c, 2, 81, 0
1, 29897, Note_on_c, 5, 69, 0
1, 29897, Note_on_c, 9, 81, 0
1, 29897, Note_on_c, 0, 91, 110
1, 29897, Note_on_c, 0, 91, 110
1, 29897, Note_on_c, 1, 79, 120
1, 29897, Note_on_c, 1, 84, 120
1, 29897, Note_on_c, 2, 79, 110
1, 29897, Note_on_c, 2, 79, 110
1, 29897, Note_on_c, 5, 67, 110
1, 29897, Note_on_c, 9, 81, 100
1, 29912, Note_on_c, 0, 91, 0
1, 29912, Note_on_c, 0, 91, 0
1, 29912, Note_on_c, 1, 79, 0
1, 29912, Note_on_c, 1, 84, 0
1, 29912, Note_on_c, 2, 79, 0
1, 29912, Note_on_c, 2, 79, 0
1, 29912, Note_on_c, 5, 67, 0
1, 29912, Note_on_c, 9, 81, 0
1, 29912, Note_on_c, 0, 93, 110
1, 29912, Note_on_c, 2, 72, 110
1, 29912, Note_on_c, 2, 81, 110
1, 29912, Note_on_c, 5, 69, 110
1, 29912, Note_on_c, 9, 81, 100
1, 29926, Note_on_c, 0, 93, 0
1, 29926, Note_on_c, 2, 72, 0
1, 29926, Note_on_c, 2, 81, 0
1, 29926, Note_on_c, 5, 69, 0
1, 29926, Note_on_c, 9, 81, 0
1, 29926, Note_on_c, 0, 91, 110
1, 29926, Note_on_c, 0, 91, 110
1, 29926, Note_on_c, 1, 79, 120
1, 29926, Note_on_c, 1, 84, 120
1, 29926, Note_on_c, 2, 79, 110
1, 29926, Note_on_c, 2, 79, 110
1, 29926, Note_on_c, 4, 64, 120
1, 29926, Note_on_c, 4, 64, 120
1, 29926, Note_on_c, 5, 76, 120
1, 29926, Note_on_c, 5, 67, 110
1, 29926, Note_on_c, 9, 81, 100
1, 29926, Control_c, 8, 0, 0
1, 29926, Control_c, 8, 32, 0
1, 29926, Program_c, 8, 48
1, 29926, Note_on_c, 8, 76, 120
1, 29926, Note_on_c, 8, 72, 120
1, 29926, Control_c, 8, 0, 0
1, 29926, Control_c, 8, 32, 0
1, 29926, Program_c, 8, 49
1, 29926, Note_on_c, 8, 64, 120
1, 29926, Note_on_c, 8, 55, 120
1, 29926, Note_on_c, 8, 67, 120
1, 29926, Note_on_c, 8, 76, 120
1, 29926, Note_on_c, 8, 67, 120
1, 29941, Note_on_c, 0, 91, 0
1, 29941, Note_on_c, 0, 91, 0
1, 29941, Note_on_c, 1, 79, 0
1, 29941, Note_on_c, 1, 84, 0
1, 29941, Note_on_c, 2, 79, 0
1, 29941, Note_on_c, 2, 79, 0
1, 29941, Note_on_c, 5, 67, 0
1, 29941, Note_on_c, 9, 81, 0
1, 29941, Note_on_c, 0, 93, 110
1, 29941, Note_on_c, 2, 72, 110
1, 29941, Note_on_c, 2, 81, 110
1, 29941, Note_on_c, 5, 69, 110
1, 29941, Note_on_c, 9, 81, 100
1, 29956, Note_on_c, 0, 93, 0
1, 29956, Note_on_c, 2, 72, 0
1, 29956, Note_on_c, 2, 81, 0
1, 29956, Note_on_c, 5, 69, 0
1, 29956, Note_on_c, 9, 81, 0
1, 29956, Note_on_c, 0, 91, 110
1, 29956, Note_on_c, 0, 91, 110
1, 29956, Note_on_c, 1, 79, 120
1, 29956, Note_on_c, 1, 84, 120
1, 29956, Note_on_c, 2, 79, 110
1, 29956, Note_on_c, 2, 79, 110
1, 29956, Note_on_c, 5, 67, 110
1, 29956, Note_on_c, 9, 81, 100
1, 29970, Note_on_c, 0, 91, 0
1, 29970, Note_on_c, 0, 91, 0
1, 29970, Note_on_c, 1, 79, 0
1, 29970, Note_on_c, 1, 84, 0
1, 29970, Note_on_c, 2, 79, 0
1, 29970, Note_on_c, 2, 79, 0
1, 29970, Note_on_c, 5, 67, 0
1, 29970, Note_on_c, 9, 81, 0
1, 29970, Note_on_c, 0, 93, 110
1, 29970, Note_on_c, 2, 72, 110
1, 29970, Note_on_c, 2, 81, 110
1, 29970, Note_on_c, 5, 69, 110
1, 29970, Note_on_c, 9, 81, 100
1, 29985, Note_on_c, 4, 64, 0
1, 29985, Note_on_c, 4, 64, 0
1, 29985, Note_on_c, 5, 76, 0
1, 29985, Control_c, 8, 0, 0
1, 29985, Control_c, 8, 32, 0
1, 29985, Program_c, 8, 48
1, 29985, Note_on_c, 8, 76, 0
1, 29985, Note_on_c, 8, 72, 0
1, 29985, Control_c, 8, 0, 0
1, 29985, Control_c, 8, 32, 0
1, 29985, Program_c, 8, 49
1, 29985, Note_on_c, 8, 64, 0
1, 29985, Note_on_c, 8, 55, 0
1, 29985, Note_on_c, 8, 67, 0
1, 29985, Note_on_c, 8, 76, 0
1, 29985, Note_on_c, 8, 67, 0
1, 29985, Note_on_c, 0, 93, 0
1, 29985, Note_on_c, 2, 72, 0
1, 29985, Note_on_c, 2, 81, 0
1, 29985, Note_on_c, 5, 69, 0
1, 29985, Note_on_c, 9, 81, 0
1, 29985, Note_on_c, 0, 91, 110
1, 29985, Note_on_c, 0, 91, 110
1, 29985, Note_on_c, 1, 79, 120
1, 29985, Note_on_c, 1, 84, 120
1, 29985, Note_on_c, 2, 79, 110
1, 29985, Note_on_c, 2, 79, 110
1, 29985, Note_on_c, 5, 67, 110
1, 29985, Note_on_c, 9, 81, 100
1, 30000, Note_on_c, 0, 91, 0
1, 30000, Note_on_c, 0, 91, 0
1, 30000, Note_on_c, 1, 79, 0
1, 30000, Note_on_c, 1, 84, 0
1, 30000, Note_on_c, 2, 79, 0
1, 30000, Note_on_c, 2, 79, 0
1, 30000, Note_on_c, 5, 67, 0
1, 30000, Note_on_c, 9, 81, 0
1, 30000, Note_on_c, 0, 93, 110
1, 30000, Note_on_c, 2, 72, 110
1, 30000, Note_on_c, 2, 81, 110
1, 30000, Note_on_c, 5, 69, 110
1, 30000, Note_on_c, 9, 81, 100
1, 30014, Note_on_c, 0, 93, 0
1, 30014, Note_on_c, 2, 72, 0
1, 30014, Note_on_c, 2, 81, 0
1, 30014, Note_on_c, 5, 69, 0
1, 30014, Note_on_c, 9, 81, 0
1, 30014, Note_on_c, 0, 91, 110
1, 30014, Note_on_c, 0, 91, 110
1, 30014, Note_on_c, 1, 79, 120
1, 30014, Note_on_c, 1, 84, 120
1, 30014, Note_on_c, 2, 79, 110
1, 30014, Note_on_c, 2, 79, 110
1, 30014, Note_on_c, 4, 62, 120
1, 30014, Note_on_c, 4, 55, 120
1, 30014, Note_on_c, 4, 62, 120
1, 30014, Note_on_c, 4, 55, 120
1, 30014, Note_on_c, 5, 74, 120
1, 30014, Note_on_c, 5, 67, 120
1, 30014, Note_on_c, 5, 67, 110
1, 30014, Note_on_c, 9, 81, 100
1, 30014, Control_c, 8, 0, 0
1, 30014, Control_c, 8, 32, 0
1, 30014, Program_c, 8, 48
1, 30014, Note_on_c, 8, 74, 120
1, 30014, Control_c, 8, 0, 0
1, 30014, Control_c, 8, 32, 0
1, 30014, Program_c, 8, 49
1, 30014, Note_on_c, 8, 62, 120
1, 30014, Note_on_c, 8, 55, 120
1, 30014, Note_on_c, 8, 67, 120
1, 30014, Note_on_c, 8, 74, 120
1, 30014, Note_on_c, 8, 72, 120
1, 30029, Note_on_c, 0, 91, 0
1, 30029, Note_on_c, 0, 91, 0
1, 30029, Note_on_c, 1, 79, 0
1, 30029, Note_on_c, 1, 84, 0
1, 30029, Note_on_c, 2, 79, 0
1, 30029, Note_on_c, 2, 79, 0
1, 30029, Note_on_c, 5, 67, 0
1, 30029, Note_on_c, 9, 81, 0
1, 30029, Note_on_c, 0, 93, 110
1, 30029, Note_on_c, 2, 72, 110
1, 30029, Note_on_c, 2, 81, 110
1, 30029, Note_on_c, 5, 69, 110
1, 30029, Note_on_c, 9, 81, 100
1, 30043, Note_on_c, 0, 93, 0
1, 30043, Note_on_c, 2, 72, 0
1, 30043, Note_on_c, 2, 81, 0
1, 30043, Note_on_c, 5, 69, 0
1, 30043, Note_on_c, 9, 81, 0
1, 30043, Note_on_c, 0, 91, 110
1, 30043, Note_on_c, 0, 91, 110
1, 30043, Note_on_c, 1, 79, 120
1, 30043, Note_on_c, 1, 84, 120
1, 30043, Note_on_c, 2, 79, 110
1, 30043, Note_on_c, 2, 79, 110
1, 30043, Note_on_c, 5, 67, 110
1, 30043, Note_on_c, 9, 81, 100
1, 30058, Note_on_c, 0, 91, 0
1, 30058, Note_on_c, 0, 91, 0
1, 30058, Note_on_c, 1, 79, 0
1, 30058, Note_on_c, 1, 84, 0
1, 30058, Note_on_c, 2, 79, 0
1, 30058, Note_on_c, 2, 79, 0
1, 30058, Note_on_c, 5, 67, 0
1, 30058, Note_on_c, 9, 81, 0
1, 30058, Note_on_c, 0, 93, 110
1, 30058, Note_on_c, 2, 72, 110
1, 30058, Note_on_c, 2, 81, 110
1, 30058, Note_on_c, 5, 69, 110
1, 30058, Note_on_c, 9, 81, 100
1, 30072, Note_on_c, 4, 62, 0
1, 30072, Note_on_c, 4, 55, 0
1, 30072, Note_on_c, 4, 62, 0
1, 30072, Note_on_c, 4, 55, 0
1, 30072, Note_on_c, 5, 74, 0
1, 30072, Note_on_c, 5, 67, 0
1, 30072, Control_c, 8, 0, 0
1, 30072, Control_c, 8, 32, 0
1, 30072, Program_c, 8, 48
1, 30072, Note_on_c, 8, 74, 0
1, 30072, Control_c, 8, 0, 0
1, 30072, Control_c, 8, 32, 0
1, 30072, Program_c, 8, 49
1, 30072, Note_on_c, 8, 62, 0
1, 30072, Note_on_c, 8, 55, 0
1, 30072, Note_on_c, 8, 67, 0
1, 30072, Note_on_c, 8, 74, 0
1, 30072, Note_on_c, 8, 72, 0
1, 30072, Note_on_c, 0, 93, 0
1, 30072, Note_on_c, 2, 72, 0
1, 30072, Note_on_c, 2, 81, 0
1, 30072, Note_on_c, 5, 69, 0
1, 30072, Note_on_c, 9, 81, 0
1, 30072, Note_on_c, 0, 91, 110
1, 30072, Note_on_c, 0, 91, 110
1, 30072, Note_on_c, 1, 79, 120
1, 30072, Note_on_c, 1, 84, 120
1, 30072, Note_on_c, 2, 79, 110
1, 30072, Note_on_c, 2, 79, 110
1, 30072, Note_on_c, 5, 67, 110
1, 30072, Note_on_c, 9, 81, 100
1, 30087, Note_on_c, 0, 91, 0
1, 30087, Note_on_c, 0, 91, 0
1, 30087, Note_on_c, 1, 79, 0
1, 30087, Note_on_c, 1, 84, 0
1, 30087, Note_on_c, 2, 79, 0
1, 30087, Note_on_c, 2, 79, 0
1, 30087, Note_on_c, 5, 67, 0
1, 30087, Note_on_c, 9, 81, 0
1, 30087, Note_on_c, 0, 93, 110
1, 30087, Note_on_c, 2, 72, 110
1, 30087, Note_on_c, 2, 81, 110
1, 30087, Note_on_c, 5, 69, 110
1, 30087, Note_on_c, 9, 81, 100
1, 30102, Note_on_c, 0, 93, 0
1, 30102, Note_on_c, 2, 72, 0
1, 30102, Note_on_c, 2, 81, 0
1, 30102, Note_on_c, 5, 69, 0
1, 30102, Note_on_c, 9, 81, 0
1, 30102, Note_on_c, 0, 91, 110
1, 30102, Note_on_c, 0, 91, 110
1, 30102, Note_on_c, 1, 79, 120
1, 30102, Note_on_c, 1, 84, 120
1, 30102, Note_on_c, 2, 79, 110
1, 30102, Note_on_c, 2, 79, 110
1, 30102, Note_on_c, 4, 65, 120
1, 30102, Note_on_c, 4, 62, 120
1, 30102, Note_on_c, 4, 65, 120
1, 30102, Note_on_c, 4, 62, 120
1, 30102, Note_on_c, 5, 77, 120
1, 30102, Note_on_c, 5, 74, 120
1, 30102, Note_on_c, 5, 67, 110
1, 30102, Note_on_c, 9, 81, 100
1, 30102, Control_c, 8, 0, 0
1, 30102, Control_c, 8, 32, 0
1, 30102, Program_c, 8, 48
1, 30102, Note_on_c, 8, 77, 120
1, 30102, Note_on_c, 8, 72, 120
1, 30102, Control_c, 8, 0, 0
1, 30102, Control_c, 8, 32, 0
1, 30102, Program_c, 8, 49
1, 30102, Note_on_c, 8, 65, 120
1, 30102, Note_on_c, 8, 55, 120
1, 30102, Note_on_c, 8, 67, 120
1, 30102, Note_on_c, 8, 77, 120
1, 30102, Note_on_c, 8, 67, 120
1, 30116, Note_on_c, 0, 91, 0
1, 30116, Note_on_c, 0, 91, 0
1, 30116, Note_on_c, 1, 79, 0
1, 30116, Note_on_c, 1, 84, 0
1, 30116, Note_on_c, 2, 79, 0
1, 30116, Note_on_c, 2, 79, 0
1, 30116, Note_on_c, 5, 67, 0
1, 30116, Note_on_c, 9, 81, 0
1, 30116, Note_on_c, 0, 93, 110
1, 30116, Note_on_c, 2, 72, 110
1, 30116, Note_on_c, 2, 81, 110
1, 30116, Note_on_c, 5, 69, 110
1, 30116, Note_on_c, 9, 81, 100
1, 30131, Note_on_c, 0, 93, 0
1, 30131, Note_on_c, 2, 72, 0
1, 30131, Note_on_c, 2, 81, 0
1, 30131, Note_on_c, 5, 69, 0
1, 30131, Note_on_c, 9, 81, 0
1, 30131, Note_on_c, 0, 91, 110
1, 30131, Note_on_c, 0, 91, 110
1, 30131, Note_on_c, 1, 79, 120
1, 30131, Note_on_c, 1, 84, 120
1, 30131, Note_on_c, 2, 79, 110
1, 30131, Note_on_c, 2, 79, 110
1, 30131, Note_on_c, 5, 67, 110
1, 30131, Note_on_c, 9, 81, 100
1, 30146, Note_on_c, 0, 91, 0
1, 30146, Note_on_c, 0, 91, 0
1, 30146, Note_on_c, 1, 79, 0
1, 30146, Note_on_c, 1, 84, 0
1, 30146, Note_on_c, 2, 79, 0
1, 30146, Note_on_c, 2, 79, 0
1, 30146, Note_on_c, 5, 67, 0
1, 30146, Note_on_c, 9, 81, 0
1, 30146, Note_on_c, 0, 93, 110
1, 30146, Note_on_c, 2, 72, 110
1, 30146, Note_on_c, 2, 81, 110
1, 30146, Note_on_c, 5, 69, 110
1, 30146, Note_on_c, 9, 81, 100
1, 30160, Note_on_c, 4, 65, 0
1, 30160, Note_on_c, 4, 62, 0
1, 30160, Note_on_c, 4, 65, 0
1, 30160, Note_on_c, 4, 62, 0
1, 30160, Note_on_c, 5, 77, 0
1, 30160, Note_on_c, 5, 74, 0
1, 30160, Control_c, 8, 0, 0
1, 30160, Control_c, 8, 32, 0
1, 30160, Program_c, 8, 48
1, 30160, Note_on_c, 8, 77, 0
1, 30160, Note_on_c, 8, 72, 0
1, 30160, Control_c, 8, 0, 0
1, 30160, Control_c, 8, 32, 0
1, 30160, Program_c, 8, 49
1, 30160, Note_on_c, 8, 65, 0
1, 30160, Note_on_c, 8, 55, 0
1, 30160, Note_on_c, 8, 67, 0
1, 30160, Note_on_c, 8, 77, 0
1, 30160, Note_on_c, 8, 67, 0
1, 30160, Note_on_c, 0, 93, 0
1, 30160, Note_on_c, 2, 72, 0
1, 30160, Note_on_c, 2, 81, 0
1, 30160, Note_on_c, 5, 69, 0
1, 30160, Note_on_c, 9, 81, 0
1, 30160, Note_on_c, 0, 91, 110
1, 30160, Note_on_c, 0, 91, 110
1, 30160, Note_on_c, 1, 79, 120
1, 30160, Note_on_c, 1, 84, 120
1, 30160, Note_on_c, 2, 79, 110
1, 30160, Note_on_c, 2, 79, 110
1, 30160, Note_on_c, 5, 67, 110
1, 30160, Note_on_c, 9, 81, 100
1, 30175, Note_on_c, 0, 91, 0
1, 30175, Note_on_c, 0, 91, 0
1, 30175, Note_on_c, 1, 79, 0
1, 30175, Note_on_c, 1, 84, 0
1, 30175, Note_on_c, 2, 79, 0
1, 30175, Note_on_c, 2, 79, 0
1, 30175, Note_on_c, 5, 67, 0
1, 30175, Note_on_c, 9, 81, 0
1, 30175, Note_on_c, 0, 93, 110
1, 30175, Note_on_c, 2, 72, 110
1, 30175, Note_on_c, 2, 81, 110
1, 30175, Note_on_c, 5, 69, 110
1, 30175, Note_on_c, 9, 81, 100
1, 30190, Note_on_c, 0, 93, 0
1, 30190, Note_on_c, 2, 72, 0
1, 30190, Note_on_c, 2, 81, 0
1, 30190, Note_on_c, 5, 69, 0
1, 30190, Note_on_c, 9, 81, 0
1, 30190, Note_on_c, 0, 91, 110
1, 30190, Note_on_c, 0, 91, 110
1, 30190, Note_on_c, 1, 79, 120
1, 30190, Note_on_c, 1, 84, 120
1, 30190, Note_on_c, 2, 79, 110
1, 30190, Note_on_c, 2, 79, 110
1, 30190, Note_on_c, 4, 64, 120
1, 30190, Note_on_c, 4, 64, 120
1, 30190, Note_on_c, 5, 76, 120
1, 30190, Note_on_c, 5, 67, 110
1, 30190, Note_on_c, 9, 81, 100
1, 30190, Control_c, 8, 0, 0
1, 30190, Control_c, 8, 32, 0
1, 30190, Program_c, 8, 48
1, 30190, Note_on_c, 8, 76, 120
1, 30190, Note_on_c, 8, 72, 120
1, 30190, Control_c, 8, 0, 0
1, 30190, Control_c, 8, 32, 0
1, 30190, Program_c, 8, 49
1, 30190, Note_on_c, 8, 64, 120
1, 30190, Note_on_c, 8, 55, 120
1, 30190, Note_on_c, 8, 67, 120
1, 30190, Note_on_c, 8, 76, 120
1, 30190, Note_on_c, 8, 64, 120
1, 30204, Note_on_c, 0, 91, 0
1, 30204, Note_on_c, 0, 91, 0
1, 30204, Note_on_c, 1, 79, 0
1, 30204, Note_on_c, 1, 84, 0
1, 30204, Note_on_c, 2, 79, 0
1, 30204, Note_on_c, 2, 79, 0
1, 30204, Note_on_c, 5, 67, 0
1, 30204, Note_on_c, 9, 81, 0
1, 30204, Note_on_c, 0, 93, 110
1, 30204, Note_on_c, 2, 72, 110
1, 30204, Note_on_c, 2, 81, 110
1, 30204, Note_on_c, 5, 69, 110
1, 30204, Note_on_c, 9, 81, 100
1, 30219, Note_on_c, 0, 93, 0
1, 30219, Note_on_c, 2, 72, 0
1, 30219, Note_on_c, 2, 81, 0
1, 30219, Note_on_c, 5, 69, 0
1, 30219, Note_on_c, 9, 81, 0
1, 30219, Note_on_c, 0, 91, 110
1, 30219, Note_on_c, 0, 91, 110
1, 30219, Note_on_c, 1, 79, 120
1, 30219, Note_on_c, 1, 84, 120
1, 30219, Note_on_c, 2, 79, 110
1, 30219, Note_on_c, 2, 79, 110
1, 30219, Note_on_c, 5, 67, 110
1, 30219, Note_on_c, 9, 81, 100
1, 30234, Note_on_c, 0, 91, 0
1, 30234, Note_on_c, 0, 91, 0
1, 30234, Note_on_c, 1, 79, 0
1, 30234, Note_on_c, 1, 84, 0
1, 30234, Note_on_c, 2, 79, 0
1, 30234, Note_on_c, 2, 79, 0
1, 30234, Note_on_c, 5, 67, 0
1, 30234, Note_on_c, 9, 81, 0
1, 30234, Note_on_c, 0, 93, 110
1, 30234, Note_on_c, 2, 72, 110
1, 30234, Note_on_c, 2, 81, 110
1, 30234, Note_on_c, 5, 69, 110
1, 30234, Note_on_c, 9, 81, 100
1, 30248, Note_on_c, 4, 64, 0
1, 30248, Note_on_c, 4, 64, 0
1, 30248, Note_on_c, 5, 76, 0
1, 30248, Control_c, 8, 0, 0
1, 30248, Control_c, 8, 32, 0
1, 30248, Program_c, 8, 48
1, 30248, Note_on_c, 8, 76, 0
1, 30248, Note_on_c, 8, 72, 0
1, 30248, Control_c, 8, 0, 0
1, 30248, Control_c, 8, 32, 0
1, 30248, Program_c, 8, 49
1, 30248, Note_on_c, 8, 64, 0
1, 30248, Note_on_c, 8, 55, 0
1, 30248, Note_on_c, 8, 67, 0
1, 30248, Note_on_c, 8, 76, 0
1, 30248, Note_on_c, 8, 64, 0
1, 30248, Note_on_c, 0, 93, 0
1, 30248, Note_on_c, 2, 72, 0
1, 30248, Note_on_c, 2, 81, 0
1, 30248, Note_on_c, 5, 69, 0
1, 30248, Note_on_c, 9, 81, 0
1, 30248, Note_on_c, 0, 91, 110
1, 30248, Note_on_c, 0, 91, 110
1, 30248, Note_on_c, 1, 79, 120
1, 30248, Note_on_c, 1, 84, 120
1, 30248, Note_on_c, 2, 79, 110
1, 30248, Note_on_c, 2, 79, 110
1, 30248, Note_on_c, 5, 67, 110
1, 30248, Note_on_c, 9, 81, 100
1, 30263, Note_on_c, 0, 91, 0
1, 30263, Note_on_c, 0, 91, 0
1, 30263, Note_on_c, 1, 79, 0
1, 30263, Note_on_c, 1, 84, 0
1, 30263, Note_on_c, 2, 79, 0
1, 30263, Note_on_c, 2, 79, 0
1, 30263, Note_on_c, 5, 67, 0
1, 30263, Note_on_c, 9, 81, 0
1, 30263, Note_on_c, 0, 93, 110
1, 30263, Note_on_c, 2, 72, 110
1, 30263, Note_on_c, 2, 81, 110
1, 30263, Note_on_c, 5, 69, 110
1, 30263, Note_on_c, 9, 81, 100
1, 30278, Note_on_c, 0, 93, 0
1, 30278, Note_on_c, 2, 72, 0
1, 30278, Note_on_c, 2, 81, 0
1, 30278, Note_on_c, 5, 69, 0
1, 30278, Note_on_c, 9, 81, 0
1, 30278, Note_on_c, 0, 91, 110
1, 30278, Note_on_c, 0, 91, 110
1, 30278, Note_on_c, 1, 79, 120
1, 30278, Note_on_c, 1, 84, 120
1, 30278, Note_on_c, 2, 79, 110
1, 30278, Note_on_c, 2, 79, 110
1, 30278, Note_on_c, 4, 60, 120
1, 30278, Note_on_c, 4, 57, 120
1, 30278, Note_on_c, 4, 60, 120
1, 30278, Note_on_c, 4, 57, 120
1, 30278, Note_on_c, 5, 72, 120
1, 30278, Note_on_c, 5, 69, 120
1, 30278, Note_on_c, 5, 67, 110
1, 30278, Note_on_c, 9, 81, 100
1, 30278, Control_c, 8, 0, 0
1, 30278, Control_c, 8, 32, 0
1, 30278, Program_c, 8, 48
1, 30278, Note_on_c, 8, 72, 120
1, 30278, Control_c, 8, 0, 0
1, 30278, Control_c, 8, 32, 0
1, 30278, Program_c, 8, 49
1, 30278, Note_on_c, 8, 55, 120
1, 30278, Note_on_c, 8, 67, 120
1, 30278, Note_on_c, 8, 72, 120
1, 30278, Note_on_c, 8, 60, 120
1, 30292, Note_on_c, 0, 91, 0
1, 30292, Note_on_c, 0, 91, 0
1, 30292, Note_on_c, 1, 79, 0
1, 30292, Note_on_c, 1, 84, 0
1, 30292, Note_on_c, 2, 79, 0
1, 30292, Note_on_c, 2, 79, 0
1, 30292, Note_on_c, 5, 67, 0
1, 30292, Note_on_c, 9, 81, 0
1, 30292, Note_on_c, 0, 93, 110
1, 30292, Note_on_c, 2, 72, 110
1, 30292, Note_on_c, 2, 81, 110
1, 30292, Note_on_c, 5, 69, 110
1, 30292, Note_on_c, 9, 81, 100
1, 30307, Note_on_c, 0, 93, 0
1, 30307, Note_on_c, 2, 72, 0
1, 30307, Note_on_c, 2, 81, 0
1, 30307, Note_on_c, 5, 69, 0
1, 30307, Note_on_c, 9, 81, 0
1, 30307, Note_on_c, 0, 91, 110
1, 30307, Note_on_c, 0, 91, 110
1, 30307, Note_on_c, 1, 79, 120
1, 30307, Note_on_c, 1, 84, 120
1, 30307, Note_on_c, 2, 79, 110
1, 30307, Note_on_c, 2, 79, 110
1, 30307, Note_on_c, 5, 67, 110
1, 30307, Note_on_c, 9, 81, 100
1, 30321, Note_on_c, 0, 91, 0
1, 30321, Note_on_c, 0, 91, 0
1, 30321, Note_on_c, 1, 79, 0
1, 30321, Note_on_c, 1, 84, 0
1, 30321, Note_on_c, 2, 79, 0
1, 30321, Note_on_c, 2, 79, 0
1, 30321, Note_on_c, 5, 67, 0
1, 30321, Note_on_c, 9, 81, 0
1, 30321, Note_on_c, 0, 93, 110
1, 30321, Note_on_c, 2, 72, 110
1, 30321, Note_on_c, 2, 81, 110
1, 30321, Note_on_c, 5, 69, 110
1, 30321, Note_on_c, 9, 81, 100
1, 30336, Note_on_c, 4, 60, 0
1, 30336, Note_on_c, 4, 57, 0
1, 30336, Note_on_c, 4, 60, 0
1, 30336, Note_on_c, 4, 57, 0
1, 30336, Note_on_c, 5, 72, 0
1, 30336, Note_on_c, 5, 69, 0
1, 30336, Control_c, 8, 0, 0
1, 30336, Control_c, 8, 32, 0
1, 30336, Program_c, 8, 48
1, 30336, Note_on_c, 8, 72, 0
1, 30336, Control_c, 8, 0, 0
1, 30336, Control_c, 8, 32, 0
1, 30336, Program_c, 8, 49
1, 30336, Note_on_c, 8, 55, 0
1, 30336, Note_on_c, 8, 67, 0
1, 30336, Note_on_c, 8, 72, 0
1, 30336, Note_on_c, 8, 60, 0
1, 30336, Note_on_c, 0, 93, 0
1, 30336, Note_on_c, 2, 72, 0
1, 30336, Note_on_c, 2, 81, 0
1, 30336, Note_on_c, 5, 69, 0
1, 30336, Note_on_c, 9, 81, 0
1, 30336, Note_on_c, 0, 91, 110
1, 30336, Note_on_c, 0, 91, 110
1, 30336, Note_on_c, 1, 79, 120
1, 30336, Note_on_c, 1, 84, 120
1, 30336, Note_on_c, 2, 79, 110
1, 30336, Note_on_c, 2, 79, 110
1, 30336, Note_on_c, 5, 67, 110
1, 30336, Note_on_c, 9, 81, 100
1, 30351, Note_on_c, 0, 91, 0
1, 30351, Note_on_c, 0, 91, 0
1, 30351, Note_on_c, 1, 79, 0
1, 30351, Note_on_c, 1, 84, 0
1, 30351, Note_on_c, 2, 79, 0
1, 30351, Note_on_c, 2, 79, 0
1, 30351, Note_on_c, 5, 67, 0
1, 30351, Note_on_c, 9, 81, 0
1, 30351, Note_on_c, 0, 93, 110
1, 30351, Note_on_c, 2, 72, 110
1, 30351, Note_on_c, 2, 81, 110
1, 30351, Note_on_c, 5, 69, 110
1, 30351, Note_on_c, 9, 81, 100
1, 30365, Note_on_c, 0, 93, 0
1, 30365, Note_on_c, 2, 72, 0
1, 30365, Note_on_c, 2, 81, 0
1, 30365, Note_on_c, 5, 69, 0
1, 30365, Note_on_c, 9, 81, 0
1, 30365, Note_on_c, 0, 91, 110
1, 30365, Note_on_c, 0, 91, 110
1, 30365, Note_on_c, 1, 79, 120
1, 30365, Note_on_c, 1, 84, 120
1, 30365, Note_on_c, 2, 79, 110
1, 30365, Note_on_c, 2, 79, 110
1, 30365, Note_on_c, 4, 55, 120
1, 30365, Note_on_c, 4, 62, 120
1, 30365, Note_on_c, 4, 55, 120
1, 30365, Note_on_c, 4, 62, 120
1, 30365, Note_on_c, 5, 67, 120
1, 30365, Note_on_c, 5, 74, 120
1, 30365, Note_on_c, 5, 67, 110
1, 30365, Note_on_c, 9, 81, 100
1, 30365, Control_c, 8, 0, 0
1, 30365, Control_c, 8, 32, 0
1, 30365, Program_c, 8, 48
1, 30365, Note_on_c, 8, 74, 120
1, 30365, Control_c, 8, 0, 0
1, 30365, Control_c, 8, 32, 0
1, 30365, Program_c, 8, 49
1, 30365, Note_on_c, 8, 55, 120
1, 30365, Note_on_c, 8, 62, 120
1, 30365, Note_on_c, 8, 67, 120
1, 30365, Note_on_c, 8, 74, 120
1, 30365, Note_on_c, 8, 72, 120
1, 30380, Note_on_c, 0, 91, 0
1, 30380, Note_on_c, 0, 91, 0
1, 30380, Note_on_c, 1, 79, 0
1, 30380, Note_on_c, 1, 84, 0
1, 30380, Note_on_c, 2, 79, 0
1, 30380, Note_on_c, 2, 79, 0
1, 30380, Note_on_c, 5, 67, 0
1, 30380, Note_on_c, 9, 81, 0
1, 30380, Note_on_c, 0, 93, 110
1, 30380, Note_on_c, 2, 72, 110
1, 30380, Note_on_c, 2, 81, 110
1, 30380, Note_on_c, 5, 69, 110
1, 30380, Note_on_c, 9, 81, 100
1, 30394, Note_on_c, 0, 93, 0
1, 30394, Note_on_c, 2, 72, 0
1, 30394, Note_on_c, 2, 81, 0
1, 30394, Note_on_c, 5, 69, 0
1, 30394, Note_on_c, 9, 81, 0
1, 30394, Note_on_c, 0, 91, 110
1, 30394, Note_on_c, 0, 91, 110
1, 30394, Note_on_c, 1, 79, 120
1, 30394, Note_on_c, 1, 84, 120
1, 30394, Note_on_c, 2, 79, 110
1, 30394, Note_on_c, 2, 79, 110
1, 30394, Note_on_c, 5, 67, 110
1, 30394, Note_on_c, 9, 81, 100
1, 30409, Note_on_c, 0, 91, 0
1, 30409, Note_on_c, 0, 91, 0
1, 30409, Note_on_c, 1, 79, 0
1, 30409, Note_on_c, 1, 84, 0
1, 30409, Note_on_c, 2, 79, 0
1, 30409, Note_on_c, 2, 79, 0
1, 30409, Note_on_c, 5, 67, 0
1, 30409, Note_on_c, 9, 81, 0
1, 30409, Note_on_c, 0, 93, 110
1, 30409, Note_on_c, 2, 72, 110
1, 30409, Note_on_c, 2, 81, 110
1, 30409, Note_on_c, 5, 69, 110
1, 30409, Note_on_c, 9, 81, 100
1, 30424, Note_on_c, 4, 55, 0
1, 30424, Note_on_c, 4, 62, 0
1, 30424, Note_on_c, 4, 55, 0
1, 30424, Note_on_c, 4, 62, 0
1, 30424, Note_on_c, 5, 67, 0
1, 30424, Note_on_c, 5, 74, 0
1, 30424, Control_c, 8, 0, 0
1, 30424, Control_c, 8, 32, 0
1, 30424, Program_c, 8, 48
1, 30424, Note_on_c, 8, 74, 0
1, 30424, Control_c, 8, 0, 0
1, 30424, Control_c, 8, 32, 0
1, 30424, Program_c, 8, 49
1, 30424, Note_on_c, 8, 55, 0
1, 30424, Note_on_c, 8, 62, 0
1, 30424, Note_on_c, 8, 67, 0
1, 30424, Note_on_c, 8, 74, 0
1, 30424, Note_on_c, 8, 72, 0
1, 30424, Note_on_c, 0, 93, 0
1, 30424, Note_on_c, 2, 72, 0
1, 30424, Note_on_c, 2, 81, 0
1, 30424, Note_on_c, 5, 69, 0
1, 30424, Note_on_c, 9, 81, 0
1, 30424, Note_on_c, 0, 91, 110
1, 30424, Note_on_c, 0, 91, 110
1, 30424, Note_on_c, 1, 79, 120
1, 30424, Note_on_c, 1, 84, 120
1, 30424, Note_on_c, 2, 79, 110
1, 30424, Note_on_c, 2, 79, 110
1, 30424, Note_on_c, 5, 67, 110
1, 30424, Note_on_c, 9, 81, 100
1, 30438, Note_on_c, 0, 91, 0
1, 30438, Note_on_c, 0, 91, 0
1, 30438, Note_on_c, 1, 79, 0
1, 30438, Note_on_c, 1, 84, 0
1, 30438, Note_on_c, 2, 79, 0
1, 30438, Note_on_c, 2, 79, 0
1, 30438, Note_on_c, 5, 67, 0
1, 30438, Note_on_c, 9, 81, 0
1, 30438, Note_on_c, 0, 93, 110
1, 30438, Note_on_c, 2, 72, 110
1, 30438, Note_on_c, 2, 81, 110
1, 30438, Note_on_c, 5, 69, 110
1, 30438, Note_on_c, 9, 81, 100
1, 30451, Note_on_c, 7, 31, 0
1, 30451, Note_on_c, 3, 43, 0
1, 30453, Note_on_c, 0, 93, 0
1, 30453, Note_on_c, 2, 72, 0
1, 30453, Note_on_c, 2, 81, 0
1, 30453, Note_on_c, 5, 69, 0
1, 30453, Note_on_c, 9, 81, 0
1, 30453, Note_on_c, 0, 91, 110
1, 30453, Note_on_c, 0, 91, 110
1, 30453, Note_on_c, 1, 79, 120
1, 30453, Note_on_c, 1, 84, 120
1, 30453, Note_on_c, 2, 79, 110
1, 30453, Note_on_c, 2, 79, 110
1, 30453, Note_on_c, 3, 43, 120
1, 30453, Note_on_c, 4, 65, 120
1, 30453, Note_on_c, 4, 62, 120
1, 30453, Note_on_c, 4, 65, 120
1, 30453, Note_on_c, 4, 62, 120
1, 30453, Note_on_c, 5, 77, 120
1, 30453, Note_on_c, 5, 74, 120
1, 30453, Note_on_c, 5, 67, 110
1, 30453, Note_on_c, 5, 43, 120
1, 30453, Note_on_c, 6, 43, 120
1, 30453, Note_on_c, 6, 43, 120
1, 30453, Note_on_c, 7, 31, 120
1, 30453, Note_on_c, 9, 81, 100
1, 30453, Control_c, 8, 0, 0
1, 30453, Control_c, 8, 32, 0
1, 30453, Program_c, 8, 48
1, 30453, Note_on_c, 8, 77, 120
1, 30453, Note_on_c, 8, 74, 120
1, 30453, Control_c, 8, 0, 0
1, 30453, Control_c, 8, 32, 0
1, 30453, Program_c, 8, 49
1, 30453, Note_on_c, 8, 65, 120
1, 30453, Note_on_c, 8, 55, 120
1, 30453, Note_on_c, 8, 67, 120
1, 30453, Note_on_c, 8, 77, 120
1, 30453, Note_on_c, 8, 65, 120
1, 30468, Note_on_c, 0, 91, 0
1, 30468, Note_on_c, 0, 91, 0
1, 30468, Note_on_c, 1, 79, 0
1, 30468, Note_on_c, 1, 84, 0
1, 30468, Note_on_c, 2, 79, 0
1, 30468, Note_on_c, 2, 79, 0
1, 30468, Note_on_c, 5, 67, 0
1, 30468, Note_on_c, 9, 81, 0
1, 30468, Note_on_c, 0, 93, 110
1, 30468, Note_on_c, 2, 72, 110
1, 30468, Note_on_c, 2, 81, 110
1, 30468, Note_on_c, 5, 69, 110
1, 30468, Note_on_c, 9, 81, 100
1, 30482, Note_on_c, 0, 93, 0
1, 30482, Note_on_c, 2, 72, 0
1, 30482, Note_on_c, 2, 81, 0
1, 30482, Note_on_c, 5, 69, 0
1, 30482, Note_on_c, 9, 81, 0
1, 30482, Note_on_c, 0, 91, 110
1, 30482, Note_on_c, 0, 91, 110
1, 30482, Note_on_c, 1, 79, 120
1, 30482, Note_on_c, 1, 84, 120
1, 30482, Note_on_c, 2, 79, 110
1, 30482, Note_on_c, 2, 79, 110
1, 30482, Note_on_c, 5, 67, 110
1, 30482, Note_on_c, 9, 81, 100
1, 30488, Note_on_c, 5, 43, 0
1, 30497, Note_on_c, 0, 91, 0
1, 30497, Note_on_c, 0, 91, 0
1, 30497, Note_on_c, 1, 79, 0
1, 30497, Note_on_c, 1, 84, 0
1, 30497, Note_on_c, 2, 79, 0
1, 30497, Note_on_c, 2, 79, 0
1, 30497, Note_on_c, 5, 67, 0
1, 30497, Note_on_c, 9, 81, 0
1, 30497, Note_on_c, 0, 93, 110
1, 30497, Note_on_c, 2, 72, 110
1, 30497, Note_on_c, 2, 81, 110
1, 30497, Note_on_c, 5, 69, 110
1, 30497, Note_on_c, 9, 81, 100
1, 30512, Note_on_c, 4, 65, 0
1, 30512, Note_on_c, 4, 62, 0
1, 30512, Note_on_c, 4, 65, 0
1, 30512, Note_on_c, 4, 62, 0
1, 30512, Note_on_c, 5, 77, 0
1, 30512, Note_on_c, 5, 74, 0
1, 30512, Control_c, 8, 0, 0
1, 30512, Control_c, 8, 32, 0
1, 30512, Program_c, 8, 48
1, 30512, Note_on_c, 8, 77, 0
1, 30512, Note_on_c, 8, 74, 0
1, 30512, Control_c, 8, 0, 0
1, 30512, Control_c, 8, 32, 0
1, 30512, Program_c, 8, 49
1, 30512, Note_on_c, 8, 65, 0
1, 30512, Note_on_c, 8, 55, 0
1, 30512, Note_on_c, 8, 67, 0
1, 30512, Note_on_c, 8, 77, 0
1, 30512, Note_on_c, 8, 65, 0
1, 30512, Note_on_c, 0, 93, 0
1, 30512, Note_on_c, 2, 72, 0
1, 30512, Note_on_c, 2, 81, 0
1, 30512, Note_on_c, 5, 69, 0
1, 30512, Note_on_c, 9, 81, 0
1, 30512, Note_on_c, 0, 91, 110
1, 30512, Note_on_c, 0, 91, 110
1, 30512, Note_on_c, 1, 79, 120
1, 30512, Note_on_c, 1, 84, 120
1, 30512, Note_on_c, 2, 79, 110
1, 30512, Note_on_c, 2, 79, 110
1, 30512, Note_on_c, 5, 67, 110
1, 30512, Note_on_c, 9, 81, 100
1, 30526, Note_on_c, 0, 91, 0
1, 30526, Note_on_c, 0, 91, 0
1, 30526, Note_on_c, 1, 79, 0
1, 30526, Note_on_c, 1, 84, 0
1, 30526, Note_on_c, 2, 79, 0
1, 30526, Note_on_c, 2, 79, 0
1, 30526, Note_on_c, 5, 67, 0
1, 30526, Note_on_c, 9, 81, 0
1, 30526, Note_on_c, 0, 93, 110
1, 30526, Note_on_c, 2, 72, 110
1, 30526, Note_on_c, 2, 81, 110
1, 30526, Note_on_c, 5, 69, 110
1, 30526, Note_on_c, 9, 81, 100
1, 30541, Note_on_c, 0, 93, 0
1, 30541, Note_on_c, 2, 72, 0
1, 30541, Note_on_c, 2, 81, 0
1, 30541, Note_on_c, 5, 69, 0
1, 30541, Note_on_c, 9, 81, 0
1, 30541, Note_on_c, 0, 91, 110
1, 30541, Note_on_c, 0, 91, 110
1, 30541, Note_on_c, 1, 79, 120
1, 30541, Note_on_c, 1, 84, 120
1, 30541, Note_on_c, 2, 79, 110
1, 30541, Note_on_c, 2, 79, 110
1, 30541, Note_on_c, 4, 64, 120
1, 30541, Note_on_c, 4, 64, 120
1, 30541, Note_on_c, 5, 76, 120
1, 30541, Note_on_c, 5, 67, 110
1, 30541, Note_on_c, 9, 81, 100
1, 30541, Control_c, 8, 0, 0
1, 30541, Control_c, 8, 32, 0
1, 30541, Program_c, 8, 48
1, 30541, Note_on_c, 8, 76, 120
1, 30541, Note_on_c, 8, 72, 120
1, 30541, Control_c, 8, 0, 0
1, 30541, Control_c, 8, 32, 0
1, 30541, Program_c, 8, 49
1, 30541, Note_on_c, 8, 64, 120
1, 30541, Note_on_c, 8, 55, 120
1, 30541, Note_on_c, 8, 67, 120
1, 30541, Note_on_c, 8, 76, 120
1, 30541, Note_on_c, 8, 67, 120
1, 30556, Note_on_c, 0, 91, 0
1, 30556, Note_on_c, 0, 91, 0
1, 30556, Note_on_c, 1, 79, 0
1, 30556, Note_on_c, 1, 84, 0
1, 30556, Note_on_c, 2, 79, 0
1, 30556, Note_on_c, 2, 79, 0
1, 30556, Note_on_c, 5, 67, 0
1, 30556, Note_on_c, 9, 81, 0
1, 30556, Note_on_c, 0, 93, 110
1, 30556, Note_on_c, 2, 72, 110
1, 30556, Note_on_c, 2, 81, 110
1, 30556, Note_on_c, 5, 69, 110
1, 30556, Note_on_c, 9, 81, 100
1, 30570, Note_on_c, 0, 93, 0
1, 30570, Note_on_c, 2, 72, 0
1, 30570, Note_on_c, 2, 81, 0
1, 30570, Note_on_c, 5, 69, 0
1, 30570, Note_on_c, 9, 81, 0
1, 30570, Note_on_c, 0, 91, 110
1, 30570, Note_on_c, 0, 91, 110
1, 30570, Note_on_c, 1, 79, 120
1, 30570, Note_on_c, 1, 84, 120
1, 30570, Note_on_c, 2, 79, 110
1, 30570, Note_on_c, 2, 79, 110
1, 30570, Note_on_c, 5, 67, 110
1, 30570, Note_on_c, 9, 81, 100
1, 30585, Note_on_c, 0, 91, 0
1, 30585, Note_on_c, 0, 91, 0
1, 30585, Note_on_c, 1, 79, 0
1, 30585, Note_on_c, 1, 84, 0
1, 30585, Note_on_c, 2, 79, 0
1, 30585, Note_on_c, 2, 79, 0
1, 30585, Note_on_c, 5, 67, 0
1, 30585, Note_on_c, 9, 81, 0
1, 30585, Note_on_c, 0, 93, 110
1, 30585, Note_on_c, 2, 72, 110
1, 30585, Note_on_c, 2, 81, 110
1, 30585, Note_on_c, 5, 69, 110
1, 30585, Note_on_c, 9, 81, 100
1, 30600, Note_on_c, 4, 64, 0
1, 30600, Note_on_c, 4, 64, 0
1, 30600, Note_on_c, 5, 76, 0
1, 30600, Control_c, 8, 0, 0
1, 30600, Control_c, 8, 32, 0
1, 30600, Program_c, 8, 48
1, 30600, Note_on_c, 8, 76, 0
1, 30600, Note_on_c, 8, 72, 0
1, 30600, Control_c, 8, 0, 0
1, 30600, Control_c, 8, 32, 0
1, 30600, Program_c, 8, 49
1, 30600, Note_on_c, 8, 64, 0
1, 30600, Note_on_c, 8, 55, 0
1, 30600, Note_on_c, 8, 67, 0
1, 30600, Note_on_c, 8, 76, 0
1, 30600, Note_on_c, 8, 67, 0
1, 30600, Note_on_c, 0, 93, 0
1, 30600, Note_on_c, 2, 72, 0
1, 30600, Note_on_c, 2, 81, 0
1, 30600, Note_on_c, 5, 69, 0
1, 30600, Note_on_c, 9, 81, 0
1, 30600, Note_on_c, 0, 91, 110
1, 30600, Note_on_c, 0, 91, 110
1, 30600, Note_on_c, 1, 79, 120
1, 30600, Note_on_c, 1, 84, 120
1, 30600, Note_on_c, 2, 79, 110
1, 30600, Note_on_c, 2, 79, 110
1, 30600, Note_on_c, 5, 67, 110
1, 30600, Note_on_c, 9, 81, 100
1, 30614, Note_on_c, 0, 91, 0
1, 30614, Note_on_c, 0, 91, 0
1, 30614, Note_on_c, 1, 79, 0
1, 30614, Note_on_c, 1, 84, 0
1, 30614, Note_on_c, 2, 79, 0
1, 30614, Note_on_c, 2, 79, 0
1, 30614, Note_on_c, 5, 67, 0
1, 30614, Note_on_c, 9, 81, 0
1, 30614, Note_on_c, 0, 93, 110
1, 30614, Note_on_c, 2, 72, 110
1, 30614, Note_on_c, 2, 81, 110
1, 30614, Note_on_c, 5, 69, 110
1, 30614, Note_on_c, 9, 81, 100
1, 30629, Note_on_c, 6, 43, 0
1, 30629, Note_on_c, 6, 43, 0
1, 30629, Note_on_c, 0, 93, 0
1, 30629, Note_on_c, 2, 72, 0
1, 30629, Note_on_c, 2, 81, 0
1, 30629, Note_on_c, 5, 69, 0
1, 30629, Note_on_c, 9, 81, 0
1, 30629, Note_on_c, 0, 91, 110
1, 30629, Note_on_c, 0, 91, 110
1, 30629, Note_on_c, 1, 79, 120
1, 30629, Note_on_c, 1, 84, 120
1, 30629, Note_on_c, 2, 79, 110
1, 30629, Note_on_c, 2, 79, 110
1, 30629, Note_on_c, 4, 62, 120
1, 30629, Note_on_c, 4, 55, 120
1, 30629, Note_on_c, 4, 62, 120
1, 30629, Note_on_c, 4, 55, 120
1, 30629, Note_on_c, 5, 74, 120
1, 30629, Note_on_c, 5, 67, 120
1, 30629, Note_on_c, 5, 67, 110
1, 30629, Note_on_c, 9, 81, 100
1, 30629, Control_c, 8, 0, 0
1, 30629, Control_c, 8, 32, 0
1, 30629, Program_c, 8, 48
1, 30629, Note_on_c, 8, 74, 120
1, 30629, Control_c, 8, 0, 0
1, 30629, Control_c, 8, 32, 0
1, 30629, Program_c, 8, 49
1, 30629, Note_on_c, 8, 62, 120
1, 30629, Note_on_c, 8, 55, 120
1, 30629, Note_on_c, 8, 67, 120
1, 30629, Note_on_c, 8, 74, 120
1, 30629, Note_on_c, 8, 72, 120
1, 30643, Note_on_c, 0, 91, 0
1, 30643, Note_on_c, 0, 91, 0
1, 30643, Note_on_c, 1, 79, 0
1, 30643, Note_on_c, 1, 84, 0
1, 30643, Note_on_c, 2, 79, 0
1, 30643, Note_on_c, 2, 79, 0
1, 30643, Note_on_c, 5, 67, 0
1, 30643, Note_on_c, 9, 81, 0
1, 30643, Note_on_c, 0, 93, 110
1, 30643, Note_on_c, 2, 72, 110
1, 30643, Note_on_c, 2, 81, 110
1, 30643, Note_on_c, 5, 69, 110
1, 30643, Note_on_c, 9, 81, 100
1, 30658, Note_on_c, 0, 93, 0
1, 30658, Note_on_c, 2, 72, 0
1, 30658, Note_on_c, 2, 81, 0
1, 30658, Note_on_c, 5, 69, 0
1, 30658, Note_on_c, 9, 81, 0
1, 30658, Note_on_c, 0, 91, 110
1, 30658, Note_on_c, 0, 91, 110
1, 30658, Note_on_c, 1, 79, 120
1, 30658, Note_on_c, 1, 84, 120
1, 30658, Note_on_c, 2, 79, 110
1, 30658, Note_on_c, 2, 79, 110
1, 30658, Note_on_c, 5, 67, 110
1, 30658, Note_on_c, 9, 81, 100
1, 30672, Note_on_c, 0, 91, 0
1, 30672, Note_on_c, 0, 91, 0
1, 30672, Note_on_c, 1, 79, 0
1, 30672, Note_on_c, 1, 84, 0
1, 30672, Note_on_c, 2, 79, 0
1, 30672, Note_on_c, 2, 79, 0
1, 30672, Note_on_c, 5, 67, 0
1, 30672, Note_on_c, 9, 81, 0
1, 30672, Note_on_c, 0, 93, 110
1, 30672, Note_on_c, 2, 72, 110
1, 30672, Note_on_c, 2, 81, 110
1, 30672, Note_on_c, 5, 69, 110
1, 30672, Note_on_c, 9, 81, 100
1, 30687, Note_on_c, 4, 62, 0
1, 30687, Note_on_c, 4, 55, 0
1, 30687, Note_on_c, 4, 62, 0
1, 30687, Note_on_c, 4, 55, 0
1, 30687, Note_on_c, 5, 74, 0
1, 30687, Note_on_c, 5, 67, 0
1, 30687, Control_c, 8, 0, 0
1, 30687, Control_c, 8, 32, 0
1, 30687, Program_c, 8, 48
1, 30687, Note_on_c, 8, 74, 0
1, 30687, Control_c, 8, 0, 0
1, 30687, Control_c, 8, 32, 0
1, 30687, Program_c, 8, 49
1, 30687, Note_on_c, 8, 62, 0
1, 30687, Note_on_c, 8, 55, 0
1, 30687, Note_on_c, 8, 67, 0
1, 30687, Note_on_c, 8, 74, 0
1, 30687, Note_on_c, 8, 72, 0
1, 30687, Note_on_c, 0, 93, 0
1, 30687, Note_on_c, 2, 72, 0
1, 30687, Note_on_c, 2, 81, 0
1, 30687, Note_on_c, 5, 69, 0
1, 30687, Note_on_c, 9, 81, 0
1, 30687, Note_on_c, 0, 91, 110
1, 30687, Note_on_c, 0, 91, 110
1, 30687, Note_on_c, 1, 79, 120
1, 30687, Note_on_c, 1, 84, 120
1, 30687, Note_on_c, 2, 79, 110
1, 30687, Note_on_c, 2, 79, 110
1, 30687, Note_on_c, 5, 67, 110
1, 30687, Note_on_c, 9, 81, 100
1, 30702, Note_on_c, 0, 91, 0
1, 30702, Note_on_c, 0, 91, 0
1, 30702, Note_on_c, 1, 79, 0
1, 30702, Note_on_c, 1, 84, 0
1, 30702, Note_on_c, 2, 79, 0
1, 30702, Note_on_c, 2, 79, 0
1, 30702, Note_on_c, 5, 67, 0
1, 30702, Note_on_c, 9, 81, 0
1, 30702, Note_on_c, 0, 93, 110
1, 30702, Note_on_c, 2, 72, 110
1, 30702, Note_on_c, 2, 81, 110
1, 30702, Note_on_c, 5, 69, 110
1, 30702, Note_on_c, 9, 81, 100
1, 30716, Note_on_c, 0, 93, 0
1, 30716, Note_on_c, 2, 72, 0
1, 30716, Note_on_c, 2, 81, 0
1, 30716, Note_on_c, 5, 69, 0
1, 30716, Note_on_c, 9, 81, 0
1, 30716, Note_on_c, 0, 91, 110
1, 30716, Note_on_c, 0, 91, 110
1, 30716, Note_on_c, 1, 79, 120
1, 30716, Note_on_c, 1, 84, 120
1, 30716, Note_on_c, 2, 79, 110
1, 30716, Note_on_c, 2, 79, 110
1, 30716, Note_on_c, 4, 65, 120
1, 30716, Note_on_c, 4, 62, 120
1, 30716, Note_on_c, 4, 65, 120
1, 30716, Note_on_c, 4, 62, 120
1, 30716, Note_on_c, 5, 77, 120
1, 30716, Note_on_c, 5, 74, 120
1, 30716, Note_on_c, 5, 67, 110
1, 30716, Note_on_c, 9, 81, 100
1, 30716, Control_c, 8, 0, 0
1, 30716, Control_c, 8, 32, 0
1, 30716, Program_c, 8, 48
1, 30716, Note_on_c, 8, 77, 120
1, 30716, Note_on_c, 8, 72, 120
1, 30716, Control_c, 8, 0, 0
1, 30716, Control_c, 8, 32, 0
1, 30716, Program_c, 8, 49
1, 30716, Note_on_c, 8, 65, 120
1, 30716, Note_on_c, 8, 55, 120
1, 30716, Note_on_c, 8, 67, 120
1, 30716, Note_on_c, 8, 77, 120
1, 30716, Note_on_c, 8, 67, 120
1, 30731, Note_on_c, 0, 91, 0
1, 30731, Note_on_c, 0, 91, 0
1, 30731, Note_on_c, 1, 79, 0
1, 30731, Note_on_c, 1, 84, 0
1, 30731, Note_on_c, 2, 79, 0
1, 30731, Note_on_c, 2, 79, 0
1, 30731, Note_on_c, 5, 67, 0
1, 30731, Note_on_c, 9, 81, 0
1, 30731, Note_on_c, 0, 93, 110
1, 30731, Note_on_c, 2, 72, 110
1, 30731, Note_on_c, 2, 81, 110
1, 30731, Note_on_c, 5, 69, 110
1, 30731, Note_on_c, 9, 81, 100
1, 30746, Note_on_c, 0, 93, 0
1, 30746, Note_on_c, 2, 72, 0
1, 30746, Note_on_c, 2, 81, 0
1, 30746, Note_on_c, 5, 69, 0
1, 30746, Note_on_c, 9, 81, 0
1, 30746, Note_on_c, 0, 91, 110
1, 30746, Note_on_c, 0, 91, 110
1, 30746, Note_on_c, 1, 79, 120
1, 30746, Note_on_c, 1, 84, 120
1, 30746, Note_on_c, 2, 79, 110
1, 30746, Note_on_c, 2, 79, 110
1, 30746, Note_on_c, 5, 67, 110
1, 30746, Note_on_c, 9, 81, 100
1, 30760, Note_on_c, 0, 91, 0
1, 30760, Note_on_c, 0, 91, 0
1, 30760, Note_on_c, 1, 79, 0
1, 30760, Note_on_c, 1, 84, 0
1, 30760, Note_on_c, 2, 79, 0
1, 30760, Note_on_c, 2, 79, 0
1, 30760, Note_on_c, 5, 67, 0
1, 30760, Note_on_c, 9, 81, 0
1, 30760, Note_on_c, 0, 93, 110
1, 30760, Note_on_c, 2, 72, 110
1, 30760, Note_on_c, 2, 81, 110
1, 30760, Note_on_c, 5, 69, 110
1, 30760, Note_on_c, 9, 81, 100
1, 30775, Note_on_c, 4, 65, 0
1, 30775, Note_on_c, 4, 62, 0
1, 30775, Note_on_c, 4, 65, 0
1, 30775, Note_on_c, 4, 62, 0
1, 30775, Note_on_c, 5, 77, 0
1, 30775, Note_on_c, 5, 74, 0
1, 30775, Control_c, 8, 0, 0
1, 30775, Control_c, 8, 32, 0
1, 30775, Program_c, 8, 48
1, 30775, Note_on_c, 8, 77, 0
1, 30775, Note_on_c, 8, 72, 0
1, 30775, Control_c, 8, 0, 0
1, 30775, Control_c, 8, 32, 0
1, 30775, Program_c, 8, 49
1, 30775, Note_on_c, 8, 65, 0
1, 30775, Note_on_c, 8, 55, 0
1, 30775, Note_on_c, 8, 67, 0
1, 30775, Note_on_c, 8, 77, 0
1, 30775, Note_on_c, 8, 67, 0
1, 30775, Note_on_c, 0, 93, 0
1, 30775, Note_on_c, 2, 72, 0
1, 30775, Note_on_c, 2, 81, 0
1, 30775, Note_on_c, 5, 69, 0
1, 30775, Note_on_c, 9, 81, 0
1, 30775, Note_on_c, 0, 91, 110
1, 30775, Note_on_c, 0, 91, 110
1, 30775, Note_on_c, 1, 79, 120
1, 30775, Note_on_c, 1, 84, 120
1, 30775, Note_on_c, 2, 79, 110
1, 30775, Note_on_c, 2, 79, 110
1, 30775, Note_on_c, 5, 67, 110
1, 30775, Note_on_c, 9, 81, 100
1, 30790, Note_on_c, 0, 91, 0
1, 30790, Note_on_c, 0, 91, 0
1, 30790, Note_on_c, 1, 79, 0
1, 30790, Note_on_c, 1, 84, 0
1, 30790, Note_on_c, 2, 79, 0
1, 30790, Note_on_c, 2, 79, 0
1, 30790, Note_on_c, 5, 67, 0
1, 30790, Note_on_c, 9, 81, 0
1, 30790, Note_on_c, 0, 93, 110
1, 30790, Note_on_c, 2, 72, 110
1, 30790, Note_on_c, 2, 81, 110
1, 30790, Note_on_c, 5, 69, 110
1, 30790, Note_on_c, 9, 81, 100
1, 30804, Note_on_c, 0, 93, 0
1, 30804, Note_on_c, 2, 72, 0
1, 30804, Note_on_c, 2, 81, 0
1, 30804, Note_on_c, 5, 69, 0
1, 30804, Note_on_c, 9, 81, 0
1, 30804, Note_on_c, 0, 91, 110
1, 30804, Note_on_c, 0, 91, 110
1, 30804, Note_on_c, 1, 79, 120
1, 30804, Note_on_c, 1, 84, 120
1, 30804, Note_on_c, 2, 79, 110
1, 30804, Note_on_c, 2, 79, 110
1, 30804, Note_on_c, 4, 64, 120
1, 30804, Note_on_c, 4, 64, 120
1, 30804, Note_on_c, 5, 76, 120
1, 30804, Note_on_c, 5, 67, 110
1, 30804, Note_on_c, 9, 81, 100
1, 30804, Control_c, 8, 0, 0
1, 30804, Control_c, 8, 32, 0
1, 30804, Program_c, 8, 48
1, 30804, Note_on_c, 8, 76, 120
1, 30804, Note_on_c, 8, 72, 120
1, 30804, Control_c, 8, 0, 0
1, 30804, Control_c, 8, 32, 0
1, 30804, Program_c, 8, 49
1, 30804, Note_on_c, 8, 64, 120
1, 30804, Note_on_c, 8, 55, 120
1, 30804, Note_on_c, 8, 67, 120
1, 30804, Note_on_c, 8, 76, 120
1, 30804, Note_on_c, 8, 64, 120
1, 30819, Note_on_c, 0, 91, 0
1, 30819, Note_on_c, 0, 91, 0
1, 30819, Note_on_c, 1, 79, 0
1, 30819, Note_on_c, 1, 84, 0
1, 30819, Note_on_c, 2, 79, 0
1, 30819, Note_on_c, 2, 79, 0
1, 30819, Note_on_c, 5, 67, 0
1, 30819, Note_on_c, 9, 81, 0
1, 30819, Note_on_c, 0, 93, 110
1, 30819, Note_on_c, 2, 72, 110
1, 30819, Note_on_c, 2, 81, 110
1, 30819, Note_on_c, 5, 69, 110
1, 30819, Note_on_c, 9, 81, 100
1, 30834, Note_on_c, 0, 93, 0
1, 30834, Note_on_c, 2, 72, 0
1, 30834, Note_on_c, 2, 81, 0
1, 30834, Note_on_c, 5, 69, 0
1, 30834, Note_on_c, 9, 81, 0
1, 30834, Note_on_c, 0, 91, 110
1, 30834, Note_on_c, 0, 91, 110
1, 30834, Note_on_c, 1, 79, 120
1, 30834, Note_on_c, 1, 84, 120
1, 30834, Note_on_c, 2, 79, 110
1, 30834, Note_on_c, 2, 79, 110
1, 30834, Note_on_c, 5, 67, 110
1, 30834, Note_on_c, 9, 81, 100
1, 30848, Note_on_c, 0, 91, 0
1, 30848, Note_on_c, 0, 91, 0
1, 30848, Note_on_c, 1, 79, 0
1, 30848, Note_on_c, 1, 84, 0
1, 30848, Note_on_c, 2, 79, 0
1, 30848, Note_on_c, 2, 79, 0
1, 30848, Note_on_c, 5, 67, 0
1, 30848, Note_on_c, 9, 81, 0
1, 30848, Note_on_c, 0, 93, 110
1, 30848, Note_on_c, 2, 72, 110
1, 30848, Note_on_c, 2, 81, 110
1, 30848, Note_on_c, 5, 69, 110
1, 30848, Note_on_c, 9, 81, 100
1, 30863, Note_on_c, 4, 64, 0
1, 30863, Note_on_c, 4, 64, 0
1, 30863, Note_on_c, 5, 76, 0
1, 30863, Control_c, 8, 0, 0
1, 30863, Control_c, 8, 32, 0
1, 30863, Program_c, 8, 48
1, 30863, Note_on_c, 8, 76, 0
1, 30863, Note_on_c, 8, 72, 0
1, 30863, Control_c, 8, 0, 0
1, 30863, Control_c, 8, 32, 0
1, 30863, Program_c, 8, 49
1, 30863, Note_on_c, 8, 64, 0
1, 30863, Note_on_c, 8, 55, 0
1, 30863, Note_on_c, 8, 67, 0
1, 30863, Note_on_c, 8, 76, 0
1, 30863, Note_on_c, 8, 64, 0
1, 30863, Note_on_c, 0, 93, 0
1, 30863, Note_on_c, 2, 72, 0
1, 30863, Note_on_c, 2, 81, 0
1, 30863, Note_on_c, 5, 69, 0
1, 30863, Note_on_c, 9, 81, 0
1, 30863, Note_on_c, 0, 91, 110
1, 30863, Note_on_c, 0, 91, 110
1, 30863, Note_on_c, 1, 79, 120
1, 30863, Note_on_c, 1, 84, 120
1, 30863, Note_on_c, 2, 79, 110
1, 30863, Note_on_c, 2, 79, 110
1, 30863, Note_on_c, 5, 67, 110
1, 30863, Note_on_c, 9, 81, 100
1, 30870, Note_on_c, 2, 79, 110
1, 30870, Note_on_c, 2, 79, 110
1, 30878, Note_on_c, 0, 91, 0
1, 30878, Note_on_c, 0, 91, 0
1, 30878, Note_on_c, 1, 79, 0
1, 30878, Note_on_c, 1, 84, 0
1, 30878, Note_on_c, 5, 67, 0
1, 30878, Note_on_c, 9, 81, 0
1, 30878, Note_on_c, 2, 79, 0
1, 30878, Note_on_c, 2, 79, 0
1, 30878, Note_on_c, 0, 93, 110
1, 30878, Note_on_c, 2, 72, 110
1, 30878, Note_on_c, 2, 81, 110
1, 30878, Note_on_c, 5, 69, 110
1, 30878, Note_on_c, 9, 81, 100
1, 30885, Note_on_c, 2, 79, 0
1, 30885, Note_on_c, 2, 79, 0
1, 30885, Note_on_c, 2, 72, 110
1, 30885, Note_on_c, 2, 81, 110
1, 30892, Note_on_c, 0, 93, 0
1, 30892, Note_on_c, 5, 69, 0
1, 30892, Note_on_c, 9, 81, 0
1, 30892, Note_on_c, 2, 72, 0
1, 30892, Note_on_c, 2, 81, 0
1, 30892, Note_on_c, 0, 91, 110
1, 30892, Note_on_c, 0, 91, 110
1, 30892, Note_on_c, 1, 79, 120
1, 30892, Note_on_c, 1, 84, 120
1, 30892, Note_on_c, 4, 60, 120
1, 30892, Note_on_c, 4, 57, 120
1, 30892, Note_on_c, 4, 60, 120
1, 30892, Note_on_c, 4, 57, 120
1, 30892, Note_on_c, 5, 72, 120
1, 30892, Note_on_c, 5, 69, 120
1, 30892, Note_on_c, 5, 67, 110
1, 30892, Note_on_c, 9, 81, 100
1, 30892, Control_c, 8, 0, 0
1, 30892, Control_c, 8, 32, 0
1, 30892, Program_c, 8, 48
1, 30892, Note_on_c, 8, 72, 120
1, 30892, Control_c, 8, 0, 0
1, 30892, Control_c, 8, 32, 0
1, 30892, Program_c, 8, 49
1, 30892, Note_on_c, 8, 55, 120
1, 30892, Note_on_c, 8, 67, 120
1, 30892, Note_on_c, 8, 72, 120
1, 30892, Note_on_c, 8, 60, 120
1, 30900, Note_on_c, 2, 72, 0
1, 30900, Note_on_c, 2, 81, 0
1, 30900, Note_on_c, 2, 79, 110
1, 30900, Note_on_c, 2, 79, 110
1, 30907, Note_on_c, 0, 91, 0
1, 30907, Note_on_c, 0, 91, 0
1, 30907, Note_on_c, 1, 79, 0
1, 30907, Note_on_c, 1, 84, 0
1, 30907, Note_on_c, 5, 67, 0
1, 30907, Note_on_c, 9, 81, 0
1, 30907, Note_on_c, 0, 93, 110
1, 30907, Note_on_c, 5, 69, 110
1, 30907, Note_on_c, 9, 81, 100
1, 30914, Note_on_c, 2, 79, 0
1, 30914, Note_on_c, 2, 79, 0
1, 30914, Note_on_c, 2, 72, 110
1, 30914, Note_on_c, 2, 81, 110
1, 30921, Note_on_c, 0, 93, 0
1, 30921, Note_on_c, 5, 69, 0
1, 30921, Note_on_c, 9, 81, 0
1, 30921, Note_on_c, 0, 91, 110
1, 30921, Note_on_c, 0, 91, 110
1, 30921, Note_on_c, 1, 79, 120
1, 30921, Note_on_c, 1, 84, 120
1, 30921, Note_on_c, 5, 67, 110
1, 30921, Note_on_c, 9, 81, 100
1, 30929, Note_on_c, 2, 72, 0
1, 30929, Note_on_c, 2, 81, 0
1, 30929, Note_on_c, 2, 79, 110
1, 30929, Note_on_c, 2, 79, 110
1, 30936, Note_on_c, 0, 91, 0
1, 30936, Note_on_c, 0, 91, 0
1, 30936, Note_on_c, 1, 79, 0
1, 30936, Note_on_c, 1, 84, 0
1, 30936, Note_on_c, 5, 67, 0
1, 30936, Note_on_c, 9, 81, 0
1, 30936, Note_on_c, 0, 93, 110
1, 30936, Note_on_c, 5, 69, 110
1, 30936, Note_on_c, 9, 81, 100
1, 30943, Note_on_c, 2, 79, 0
1, 30943, Note_on_c, 2, 79, 0
1, 30943, Note_on_c, 2, 72, 110
1, 30943, Note_on_c, 2, 81, 110
1, 30951, Note_on_c, 4, 60, 0
1, 30951, Note_on_c, 4, 57, 0
1, 30951, Note_on_c, 4, 60, 0
1, 30951, Note_on_c, 4, 57, 0
1, 30951, Note_on_c, 5, 72, 0
1, 30951, Note_on_c, 5, 69, 0
1, 30951, Control_c, 8, 0, 0
1, 30951, Control_c, 8, 32, 0
1, 30951, Program_c, 8, 48
1, 30951, Note_on_c, 8, 72, 0
1, 30951, Control_c, 8, 0, 0
1, 30951, Control_c, 8, 32, 0
1, 30951, Program_c, 8, 49
1, 30951, Note_on_c, 8, 55, 0
1, 30951, Note_on_c, 8, 67, 0
1, 30951, Note_on_c, 8, 72, 0
1, 30951, Note_on_c, 8, 60, 0
1, 30951, Note_on_c, 0, 93, 0
1, 30951, Note_on_c, 5, 69, 0
1, 30951, Note_on_c, 9, 81, 0
1, 30951, Note_on_c, 0, 91, 110
1, 30951, Note_on_c, 0, 91, 110
1, 30951, Note_on_c, 1, 79, 120
1, 30951, Note_on_c, 1, 84, 120
1, 30951, Note_on_c, 5, 67, 110
1, 30951, Note_on_c, 9, 81, 100
1, 30958, Note_on_c, 2, 72, 0
1, 30958, Note_on_c, 2, 81, 0
1, 30958, Note_on_c, 2, 79, 110
1, 30958, Note_on_c, 2, 79, 110
1, 30965, Note_on_c, 0, 91, 0
1, 30965, Note_on_c, 0, 91, 0
1, 30965, Note_on_c, 1, 79, 0
1, 30965, Note_on_c, 1, 84, 0
1, 30965, Note_on_c, 5, 67, 0
1, 30965, Note_on_c, 9, 81, 0
1, 30965, Note_on_c, 0, 93, 110
1, 30965, Note_on_c, 5, 69, 110
1, 30965, Note_on_c, 9, 81, 100
1, 30972, Note_on_c, 2, 79, 0
1, 30972, Note_on_c, 2, 79, 0
1, 30972, Note_on_c, 2, 72, 110
1, 30972, Note_on_c, 2, 81, 110
1, 30980, Note_on_c, 0, 93, 0
1, 30980, Note_on_c, 5, 69, 0
1, 30980, Note_on_c, 9, 81, 0
1, 30980, Note_on_c, 0, 91, 110
1, 30980, Note_on_c, 0, 91, 110
1, 30980, Note_on_c, 1, 79, 120
1, 30980, Note_on_c, 1, 84, 120
1, 30980, Note_on_c, 4, 55, 120
1, 30980, Note_on_c, 4, 62, 120
1, 30980, Note_on_c, 4, 55, 120
1, 30980, Note_on_c, 4, 62, 120
1, 30980, Note_on_c, 5, 67, 120
1, 30980, Note_on_c, 5, 74, 120
1, 30980, Note_on_c, 5, 67, 110
1, 30980, Note_on_c, 9, 81, 100
1, 30980, Control_c, 8, 0, 0
1, 30980, Control_c, 8, 32, 0
1, 30980, Program_c, 8, 48
1, 30980, Note_on_c, 8, 74, 120
1, 30980, Control_c, 8, 0, 0
1, 30980, Control_c, 8, 32, 0
1, 30980, Program_c, 8, 49
1, 30980, Note_on_c, 8, 55, 120
1, 30980, Note_on_c, 8, 62, 120
1, 30980, Note_on_c, 8, 67, 120
1, 30980, Note_on_c, 8, 74, 120
1, 30980, Note_on_c, 8, 72, 120
1, 30987, Note_on_c, 2, 72, 0
1, 30987, Note_on_c, 2, 81, 0
1, 30987, Note_on_c, 2, 79, 110
1, 30987, Note_on_c, 2, 79, 110
1, 30994, Note_on_c, 0, 91, 0
1, 30994, Note_on_c, 0, 91, 0
1, 30994, Note_on_c, 1, 79, 0
1, 30994, Note_on_c, 1, 84, 0
1, 30994, Note_on_c, 5, 67, 0
1, 30994, Note_on_c, 9, 81, 0
1, 30994, Note_on_c, 0, 93, 110
1, 30994, Note_on_c, 5, 69, 110
1, 30994, Note_on_c, 9, 81, 100
1, 31002, Note_on_c, 2, 79, 0
1, 31002, Note_on_c, 2, 79, 0
1, 31002, Note_on_c, 2, 72, 110
1, 31002, Note_on_c, 2, 81, 110
1, 31009, Note_on_c, 0, 93, 0
1, 31009, Note_on_c, 5, 69, 0
1, 31009, Note_on_c, 9, 81, 0
1, 31009, Note_on_c, 0, 91, 110
1, 31009, Note_on_c, 0, 91, 110
1, 31009, Note_on_c, 1, 79, 120
1, 31009, Note_on_c, 1, 84, 120
1, 31009, Note_on_c, 5, 67, 110
1, 31009, Note_on_c, 9, 81, 100
1, 31016, Note_on_c, 2, 72, 0
1, 31016, Note_on_c, 2, 81, 0
1, 31016, Note_on_c, 2, 79, 110
1, 31016, Note_on_c, 2, 79, 110
1, 31024, Note_on_c, 0, 91, 0
1, 31024, Note_on_c, 0, 91, 0
1, 31024, Note_on_c, 1, 79, 0
1, 31024, Note_on_c, 1, 84, 0
1, 31024, Note_on_c, 5, 67, 0
1, 31024, Note_on_c, 9, 81, 0
1, 31024, Note_on_c, 0, 93, 110
1, 31024, Note_on_c, 5, 69, 110
1, 31024, Note_on_c, 9, 81, 100
1, 31031, Note_on_c, 2, 79, 0
1, 31031, Note_on_c, 2, 79, 0
1, 31031, Note_on_c, 2, 72, 110
1, 31031, Note_on_c, 2, 81, 110
1, 31038, Note_on_c, 4, 55, 0
1, 31038, Note_on_c, 4, 62, 0
1, 31038, Note_on_c, 4, 55, 0
1, 31038, Note_on_c, 4, 62, 0
1, 31038, Note_on_c, 5, 67, 0
1, 31038, Note_on_c, 5, 74, 0
1, 31038, Control_c, 8, 0, 0
1, 31038, Control_c, 8, 32, 0
1, 31038, Program_c, 8, 48
1, 31038, Note_on_c, 8, 74, 0
1, 31038, Control_c, 8, 0, 0
1, 31038, Control_c, 8, 32, 0
1, 31038, Program_c, 8, 49
1, 31038, Note_on_c, 8, 55, 0
1, 31038, Note_on_c, 8, 62, 0
1, 31038, Note_on_c, 8, 67, 0
1, 31038, Note_on_c, 8, 74, 0
1, 31038, Note_on_c, 8, 72, 0
1, 31038, Note_on_c, 0, 93, 0
1, 31038, Note_on_c, 5, 69, 0
1, 31038, Note_on_c, 9, 81, 0
1, 31038, Note_on_c, 0, 91, 110
1, 31038, Note_on_c, 0, 91, 110
1, 31038, Note_on_c, 1, 79, 120
1, 31038, Note_on_c, 1, 84, 120
1, 31038, Note_on_c, 5, 67, 110
1, 31038, Note_on_c, 9, 81, 100
1, 31046, Note_on_c, 2, 72, 0
1, 31046, Note_on_c, 2, 81, 0
1, 31046, Note_on_c, 2, 79, 110
1, 31046, Note_on_c, 2, 79, 110
1, 31053, Note_on_c, 0, 91, 0
1, 31053, Note_on_c, 0, 91, 0
1, 31053, Note_on_c, 1, 79, 0
1, 31053, Note_on_c, 1, 84, 0
1, 31053, Note_on_c, 5, 67, 0
1, 31053, Note_on_c, 9, 81, 0
1, 31053, Note_on_c, 0, 93, 110
1, 31053, Note_on_c, 5, 69, 110
1, 31053, Note_on_c, 9, 81, 100
1, 31060, Note_on_c, 2, 79, 0
1, 31060, Note_on_c, 2, 79, 0
1, 31066, Note_on_c, 3, 43, 0
1, 31066, Note_on_c, 7, 31, 0
1, 31068, Note_on_c, 0, 93, 0
1, 31068, Note_on_c, 5, 69, 0
1, 31068, Note_on_c, 9, 81, 0
1, 31068, Note_on_c, 3, 43, 120
1, 31068, Note_on_c, 4, 48, 120
1, 31068, Note_on_c, 4, 48, 120
1, 31068, Note_on_c, 5, 40, 120
1, 31068, Note_on_c, 6, 40, 120
1, 31068, Note_on_c, 6, 40, 120
1, 31068, Note_on_c, 7, 40, 120
1, 31068, Note_on_c, 7, 28, 120
1, 31078, Note_on_c, 4, 52, 120
1, 31078, Note_on_c, 4, 52, 120
1, 31080, Note_on_c, 4, 48, 0
1, 31080, Note_on_c, 4, 48, 0
1, 31090, Note_on_c, 4, 52, 0
1, 31090, Note_on_c, 4, 52, 0
1, 31090, Note_on_c, 4, 55, 120
1, 31090, Note_on_c, 4, 55, 120
1, 31101, Note_on_c, 4, 58, 120
1, 31101, Note_on_c, 4, 58, 120
1, 31102, Note_on_c, 4, 55, 0
1, 31102, Note_on_c, 4, 55, 0
1, 31102, Note_on_c, 5, 40, 0
1, 31112, Note_on_c, 4, 60, 120
1, 31112, Note_on_c, 4, 60, 120
1, 31112, Note_on_c, 4, 58, 0
1, 31112, Note_on_c, 4, 58, 0
1, 31122, Note_on_c, 4, 62, 120
1, 31122, Note_on_c, 4, 62, 120
1, 31124, Note_on_c, 4, 60, 0
1, 31124, Note_on_c, 4, 60, 0
1, 31133, Note_on_c, 0, 84, 110
1, 31133, Note_on_c, 0, 84, 110
1, 31134, Note_on_c, 4, 64, 120
1, 31134, Note_on_c, 4, 64, 120
1, 31134, Note_on_c, 4, 62, 0
1, 31134, Note_on_c, 4, 62, 0
1, 31138, Note_on_c, 0, 84, 0
1, 31138, Note_on_c, 0, 84, 0
1, 31138, Note_on_c, 0, 86, 110
1, 31138, Note_on_c, 0, 86, 110
1, 31144, Note_on_c, 0, 86, 0
1, 31144, Note_on_c, 0, 86, 0
1, 31144, Note_on_c, 0, 88, 110
1, 31144, Note_on_c, 0, 88, 110
1, 31146, Note_on_c, 4, 64, 0
1, 31146, Note_on_c, 4, 64, 0
1, 31149, Note_on_c, 0, 88, 0
1, 31149, Note_on_c, 0, 88, 0
1, 31149, Note_on_c, 0, 89, 110
1, 31149, Note_on_c, 0, 89, 110
1, 31154, Note_on_c, 0, 89, 0
1, 31154, Note_on_c, 0, 89, 0
1, 31156, Note_on_c, 0, 91, 110
1, 31156, Note_on_c, 0, 91, 110
1, 31156, Note_on_c, 1, 79, 120
1, 31156, Note_on_c, 1, 84, 120
1, 31156, Note_on_c, 2, 79, 110
1, 31156, Note_on_c, 2, 79, 110
1, 31156, Note_on_c, 4, 67, 120
1, 31156, Note_on_c, 4, 60, 120
1, 31156, Note_on_c, 4, 67, 120
1, 31156, Note_on_c, 4, 60, 120
1, 31156, Note_on_c, 5, 72, 120
1, 31156, Note_on_c, 5, 79, 120
1, 31156, Note_on_c, 5, 67, 110
1, 31156, Note_on_c, 5, 55, 120
1, 31156, Note_on_c, 9, 81, 100
1, 31156, Control_c, 8, 0, 0
1, 31156, Control_c, 8, 32, 0
1, 31156, Program_c, 8, 48
1, 31156, Note_on_c, 8, 79, 120
1, 31156, Note_on_c, 8, 67, 120
1, 31156, Note_on_c, 8, 55, 120
1, 31156, Note_on_c, 8, 72, 120
1, 31156, Control_c, 8, 0, 0
1, 31156, Control_c, 8, 32, 0
1, 31156, Program_c, 8, 49
1, 31156, Note_on_c, 8, 79, 120
1, 31156, Note_on_c, 8, 67, 120
1, 31156, Note_on_c, 8, 55, 120
1, 31156, Note_on_c, 8, 72, 120
1, 31156, Note_on_c, 8, 48, 120
1, 31156, Note_on_c, 8, 55, 120
1, 31156, Note_on_c, 8, 67, 120
1, 31156, Note_on_c, 8, 79, 120
1, 31156, Note_on_c, 8, 36, 120
1, 31156, Note_on_c, 8, 43, 120
1, 31156, Note_on_c, 8, 60, 120
1, 31156, Note_on_c, 8, 52, 120
1, 31170, Note_on_c, 0, 91, 0
1, 31170, Note_on_c, 0, 91, 0
1, 31170, Note_on_c, 1, 79, 0
1, 31170, Note_on_c, 1, 84, 0
1, 31170, Note_on_c, 2, 79, 0
1, 31170, Note_on_c, 2, 79, 0
1, 31170, Note_on_c, 5, 67, 0
1, 31170, Note_on_c, 9, 81, 0
1, 31170, Note_on_c, 0, 93, 110
1, 31170, Note_on_c, 2, 72, 110
1, 31170, Note_on_c, 2, 81, 110
1, 31170, Note_on_c, 5, 69, 110
1, 31170, Note_on_c, 9, 81, 100
1, 31185, Note_on_c, 5, 55, 0
1, 31185, Note_on_c, 0, 93, 0
1, 31185, Note_on_c, 2, 72, 0
1, 31185, Note_on_c, 2, 81, 0
1, 31185, Note_on_c, 5, 69, 0
1, 31185, Note_on_c, 9, 81, 0
1, 31185, Note_on_c, 0, 91, 110
1, 31185, Note_on_c, 0, 91, 110
1, 31185, Note_on_c, 1, 79, 120
1, 31185, Note_on_c, 1, 84, 120
1, 31185, Note_on_c, 2, 79, 110
1, 31185, Note_on_c, 2, 79, 110
1, 31185, Note_on_c, 5, 67, 110
1, 31185, Note_on_c, 9, 81, 100
1, 31200, Note_on_c, 0, 91, 0
1, 31200, Note_on_c, 0, 91, 0
1, 31200, Note_on_c, 1, 79, 0
1, 31200, Note_on_c, 1, 84, 0
1, 31200, Note_on_c, 2, 79, 0
1, 31200, Note_on_c, 2, 79, 0
1, 31200, Note_on_c, 5, 67, 0
1, 31200, Note_on_c, 9, 81, 0
1, 31200, Note_on_c, 0, 93, 110
1, 31200, Note_on_c, 2, 72, 110
1, 31200, Note_on_c, 2, 81, 110
1, 31200, Note_on_c, 5, 69, 110
1, 31200, Note_on_c, 9, 81, 100
1, 31214, Note_on_c, 4, 67, 0
1, 31214, Note_on_c, 4, 60, 0
1, 31214, Note_on_c, 4, 67, 0
1, 31214, Note_on_c, 4, 60, 0
1, 31214, Note_on_c, 5, 72, 0
1, 31214, Note_on_c, 5, 79, 0
1, 31214, Control_c, 8, 0, 0
1, 31214, Control_c, 8, 32, 0
1, 31214, Program_c, 8, 48
1, 31214, Note_on_c, 8, 79, 0
1, 31214, Note_on_c, 8, 67, 0
1, 31214, Note_on_c, 8, 55, 0
1, 31214, Note_on_c, 8, 72, 0
1, 31214, Control_c, 8, 0, 0
1, 31214, Control_c, 8, 32, 0
1, 31214, Program_c, 8, 49
1, 31214, Note_on_c, 8, 79, 0
1, 31214, Note_on_c, 8, 67, 0
1, 31214, Note_on_c, 8, 55, 0
1, 31214, Note_on_c, 8, 72, 0
1, 31214, Note_on_c, 8, 48, 0
1, 31214, Note_on_c, 8, 55, 0
1, 31214, Note_on_c, 8, 67, 0
1, 31214, Note_on_c, 8, 79, 0
1, 31214, Note_on_c, 8, 36, 0
1, 31214, Note_on_c, 8, 43, 0
1, 31214, Note_on_c, 8, 60, 0
1, 31214, Note_on_c, 8, 52, 0
1, 31214, Note_on_c, 0, 93, 0
1, 31214, Note_on_c, 2, 72, 0
1, 31214, Note_on_c, 2, 81, 0
1, 31214, Note_on_c, 5, 69, 0
1, 31214, Note_on_c, 9, 81, 0
1, 31214, Note_on_c, 0, 91, 110
1, 31214, Note_on_c, 0, 91, 110
1, 31214, Note_on_c, 1, 79, 120
1, 31214, Note_on_c, 1, 84, 120
1, 31214, Note_on_c, 2, 79, 110
1, 31214, Note_on_c, 2, 79, 110
1, 31214, Note_on_c, 5, 67, 110
1, 31214, Note_on_c, 9, 81, 100
1, 31229, Note_on_c, 0, 91, 0
1, 31229, Note_on_c, 0, 91, 0
1, 31229, Note_on_c, 1, 79, 0
1, 31229, Note_on_c, 1, 84, 0
1, 31229, Note_on_c, 2, 79, 0
1, 31229, Note_on_c, 2, 79, 0
1, 31229, Note_on_c, 5, 67, 0
1, 31229, Note_on_c, 9, 81, 0
1, 31229, Note_on_c, 0, 93, 110
1, 31229, Note_on_c, 2, 72, 110
1, 31229, Note_on_c, 2, 81, 110
1, 31229, Note_on_c, 5, 69, 110
1, 31229, Note_on_c, 9, 81, 100
1, 31243, Note_on_c, 6, 40, 0
1, 31243, Note_on_c, 6, 40, 0
1, 31243, Note_on_c, 0, 93, 0
1, 31243, Note_on_c, 2, 72, 0
1, 31243, Note_on_c, 2, 81, 0
1, 31243, Note_on_c, 5, 69, 0
1, 31243, Note_on_c, 9, 81, 0
1, 31243, Note_on_c, 0, 91, 110
1, 31243, Note_on_c, 0, 91, 110
1, 31243, Note_on_c, 1, 79, 120
1, 31243, Note_on_c, 1, 84, 120
1, 31243, Note_on_c, 2, 79, 110
1, 31243, Note_on_c, 2, 79, 110
1, 31243, Note_on_c, 4, 65, 120
1, 31243, Note_on_c, 4, 62, 120
1, 31243, Note_on_c, 4, 65, 120
1, 31243, Note_on_c, 4, 62, 120
1, 31243, Note_on_c, 5, 77, 120
1, 31243, Note_on_c, 5, 74, 120
1, 31243, Note_on_c, 5, 67, 110
1, 31243, Note_on_c, 9, 81, 100
1, 31243, Control_c, 8, 0, 0
1, 31243, Control_c, 8, 32, 0
1, 31243, Program_c, 8, 48
1, 31243, Note_on_c, 8, 77, 120
1, 31243, Note_on_c, 8, 74, 120
1, 31243, Control_c, 8, 0, 0
1, 31243, Control_c, 8, 32, 0
1, 31243, Program_c, 8, 49
1, 31243, Note_on_c, 8, 65, 120
1, 31243, Note_on_c, 8, 55, 120
1, 31243, Note_on_c, 8, 77, 120
1, 31243, Note_on_c, 8, 67, 120
1, 31243, Note_on_c, 8, 60, 120
1, 31258, Note_on_c, 0, 91, 0
1, 31258, Note_on_c, 0, 91, 0
1, 31258, Note_on_c, 1, 79, 0
1, 31258, Note_on_c, 1, 84, 0
1, 31258, Note_on_c, 2, 79, 0
1, 31258, Note_on_c, 2, 79, 0
1, 31258, Note_on_c, 5, 67, 0
1, 31258, Note_on_c, 9, 81, 0
1, 31258, Note_on_c, 0, 93, 110
1, 31258, Note_on_c, 2, 72, 110
1, 31258, Note_on_c, 2, 81, 110
1, 31258, Note_on_c, 5, 69, 110
1, 31258, Note_on_c, 9, 81, 100
1, 31272, Note_on_c, 0, 93, 0
1, 31272, Note_on_c, 2, 72, 0
1, 31272, Note_on_c, 2, 81, 0
1, 31272, Note_on_c, 5, 69, 0
1, 31272, Note_on_c, 9, 81, 0
1, 31272, Note_on_c, 0, 91, 110
1, 31272, Note_on_c, 0, 91, 110
1, 31272, Note_on_c, 1, 79, 120
1, 31272, Note_on_c, 1, 84, 120
1, 31272, Note_on_c, 2, 79, 110
1, 31272, Note_on_c, 2, 79, 110
1, 31272, Note_on_c, 5, 67, 110
1, 31272, Note_on_c, 9, 81, 100
1, 31287, Note_on_c, 0, 91, 0
1, 31287, Note_on_c, 0, 91, 0
1, 31287, Note_on_c, 1, 79, 0
1, 31287, Note_on_c, 1, 84, 0
1, 31287, Note_on_c, 2, 79, 0
1, 31287, Note_on_c, 2, 79, 0
1, 31287, Note_on_c, 5, 67, 0
1, 31287, Note_on_c, 9, 81, 0
1, 31287, Note_on_c, 0, 93, 110
1, 31287, Note_on_c, 2, 72, 110
1, 31287, Note_on_c, 2, 81, 110
1, 31287, Note_on_c, 5, 69, 110
1, 31287, Note_on_c, 9, 81, 100
1, 31302, Note_on_c, 4, 65, 0
1, 31302, Note_on_c, 4, 62, 0
1, 31302, Note_on_c, 4, 65, 0
1, 31302, Note_on_c, 4, 62, 0
1, 31302, Note_on_c, 5, 77, 0
1, 31302, Note_on_c, 5, 74, 0
1, 31302, Control_c, 8, 0, 0
1, 31302, Control_c, 8, 32, 0
1, 31302, Program_c, 8, 48
1, 31302, Note_on_c, 8, 77, 0
1, 31302, Note_on_c, 8, 74, 0
1, 31302, Control_c, 8, 0, 0
1, 31302, Control_c, 8, 32, 0
1, 31302, Program_c, 8, 49
1, 31302, Note_on_c, 8, 65, 0
1, 31302, Note_on_c, 8, 55, 0
1, 31302, Note_on_c, 8, 77, 0
1, 31302, Note_on_c, 8, 67, 0
1, 31302, Note_on_c, 8, 60, 0
1, 31302, Note_on_c, 0, 93, 0
1, 31302, Note_on_c, 2, 72, 0
1, 31302, Note_on_c, 2, 81, 0
1, 31302, Note_on_c, 5, 69, 0
1, 31302, Note_on_c, 9, 81, 0
1, 31302, Note_on_c, 0, 91, 110
1, 31302, Note_on_c, 0, 91, 110
1, 31302, Note_on_c, 1, 79, 120
1, 31302, Note_on_c, 1, 84, 120
1, 31302, Note_on_c, 2, 79, 110
1, 31302, Note_on_c, 2, 79, 110
1, 31302, Note_on_c, 5, 67, 110
1, 31302, Note_on_c, 9, 81, 100
1, 31316, Note_on_c, 0, 91, 0
1, 31316, Note_on_c, 0, 91, 0
1, 31316, Note_on_c, 1, 79, 0
1, 31316, Note_on_c, 1, 84, 0
1, 31316, Note_on_c, 2, 79, 0
1, 31316, Note_on_c, 2, 79, 0
1, 31316, Note_on_c, 5, 67, 0
1, 31316, Note_on_c, 9, 81, 0
1, 31316, Note_on_c, 0, 93, 110
1, 31316, Note_on_c, 2, 72, 110
1, 31316, Note_on_c, 2, 81, 110
1, 31316, Note_on_c, 5, 69, 110
1, 31316, Note_on_c, 9, 81, 100
1, 31331, Note_on_c, 0, 93, 0
1, 31331, Note_on_c, 2, 72, 0
1, 31331, Note_on_c, 2, 81, 0
1, 31331, Note_on_c, 5, 69, 0
1, 31331, Note_on_c, 9, 81, 0
1, 31331, Note_on_c, 0, 91, 110
1, 31331, Note_on_c, 0, 91, 110
1, 31331, Note_on_c, 1, 79, 120
1, 31331, Note_on_c, 1, 84, 120
1, 31331, Note_on_c, 2, 79, 110
1, 31331, Note_on_c, 2, 79, 110
1, 31331, Note_on_c, 4, 64, 120
1, 31331, Note_on_c, 4, 64, 120
1, 31331, Note_on_c, 4, 64, 120
1, 31331, Note_on_c, 4, 64, 120
1, 31331, Note_on_c, 5, 76, 120
1, 31331, Note_on_c, 5, 76, 120
1, 31331, Note_on_c, 5, 67, 110
1, 31331, Note_on_c, 9, 81, 100
1, 31331, Control_c, 8, 0, 0
1, 31331, Control_c, 8, 32, 0
1, 31331, Program_c, 8, 48
1, 31331, Note_on_c, 8, 76, 120
1, 31331, Note_on_c, 8, 72, 120
1, 31331, Control_c, 8, 0, 0
1, 31331, Control_c, 8, 32, 0
1, 31331, Program_c, 8, 49
1, 31331, Note_on_c, 8, 64, 120
1, 31331, Note_on_c, 8, 55, 120
1, 31331, Note_on_c, 8, 76, 120
1, 31331, Note_on_c, 8, 67, 120
1, 31331, Note_on_c, 8, 64, 120
1, 31346, Note_on_c, 0, 91, 0
1, 31346, Note_on_c, 0, 91, 0
1, 31346, Note_on_c, 1, 79, 0
1, 31346, Note_on_c, 1, 84, 0
1, 31346, Note_on_c, 2, 79, 0
1, 31346, Note_on_c, 2, 79, 0
1, 31346, Note_on_c, 5, 67, 0
1, 31346, Note_on_c, 9, 81, 0
1, 31346, Note_on_c, 0, 93, 110
1, 31346, Note_on_c, 2, 72, 110
1, 31346, Note_on_c, 2, 81, 110
1, 31346, Note_on_c, 5, 69, 110
1, 31346, Note_on_c, 9, 81, 100
1, 31360, Note_on_c, 0, 93, 0
1, 31360, Note_on_c, 2, 72, 0
1, 31360, Note_on_c, 2, 81, 0
1, 31360, Note_on_c, 5, 69, 0
1, 31360, Note_on_c, 9, 81, 0
1, 31360, Note_on_c, 0, 91, 110
1, 31360, Note_on_c, 0, 91, 110
1, 31360, Note_on_c, 1, 79, 120
1, 31360, Note_on_c, 1, 84, 120
1, 31360, Note_on_c, 2, 79, 110
1, 31360, Note_on_c, 2, 79, 110
1, 31360, Note_on_c, 5, 67, 110
1, 31360, Note_on_c, 9, 81, 100
1, 31375, Note_on_c, 0, 91, 0
1, 31375, Note_on_c, 0, 91, 0
1, 31375, Note_on_c, 1, 79, 0
1, 31375, Note_on_c, 1, 84, 0
1, 31375, Note_on_c, 2, 79, 0
1, 31375, Note_on_c, 2, 79, 0
1, 31375, Note_on_c, 5, 67, 0
1, 31375, Note_on_c, 9, 81, 0
1, 31375, Note_on_c, 0, 93, 110
1, 31375, Note_on_c, 2, 72, 110
1, 31375, Note_on_c, 2, 81, 110
1, 31375, Note_on_c, 5, 69, 110
1, 31375, Note_on_c, 9, 81, 100
1, 31390, Note_on_c, 4, 64, 0
1, 31390, Note_on_c, 4, 64, 0
1, 31390, Note_on_c, 4, 64, 0
1, 31390, Note_on_c, 4, 64, 0
1, 31390, Note_on_c, 5, 76, 0
1, 31390, Note_on_c, 5, 76, 0
1, 31390, Control_c, 8, 0, 0
1, 31390, Control_c, 8, 32, 0
1, 31390, Program_c, 8, 48
1, 31390, Note_on_c, 8, 76, 0
1, 31390, Note_on_c, 8, 72, 0
1, 31390, Control_c, 8, 0, 0
1, 31390, Control_c, 8, 32, 0
1, 31390, Program_c, 8, 49
1, 31390, Note_on_c, 8, 64, 0
1, 31390, Note_on_c, 8, 55, 0
1, 31390, Note_on_c, 8, 76, 0
1, 31390, Note_on_c, 8, 67, 0
1, 31390, Note_on_c, 8, 64, 0
1, 31390, Note_on_c, 0, 93, 0
1, 31390, Note_on_c, 2, 72, 0
1, 31390, Note_on_c, 2, 81, 0
1, 31390, Note_on_c, 5, 69, 0
1, 31390, Note_on_c, 9, 81, 0
1, 31390, Note_on_c, 0, 91, 110
1, 31390, Note_on_c, 0, 91, 110
1, 31390, Note_on_c, 1, 79, 120
1, 31390, Note_on_c, 1, 84, 120
1, 31390, Note_on_c, 2, 79, 110
1, 31390, Note_on_c, 2, 79, 110
1, 31390, Note_on_c, 5, 67, 110
1, 31390, Note_on_c, 9, 81, 100
1, 31404, Note_on_c, 0, 91, 0
1, 31404, Note_on_c, 0, 91, 0
1, 31404, Note_on_c, 1, 79, 0
1, 31404, Note_on_c, 1, 84, 0
1, 31404, Note_on_c, 2, 79, 0
1, 31404, Note_on_c, 2, 79, 0
1, 31404, Note_on_c, 5, 67, 0
1, 31404, Note_on_c, 9, 81, 0
1, 31404, Note_on_c, 0, 93, 110
1, 31404, Note_on_c, 2, 72, 110
1, 31404, Note_on_c, 2, 81, 110
1, 31404, Note_on_c, 5, 69, 110
1, 31404, Note_on_c, 9, 81, 100
1, 31419, Note_on_c, 0, 93, 0
1, 31419, Note_on_c, 2, 72, 0
1, 31419, Note_on_c, 2, 81, 0
1, 31419, Note_on_c, 5, 69, 0
1, 31419, Note_on_c, 9, 81, 0
1, 31419, Note_on_c, 0, 91, 110
1, 31419, Note_on_c, 0, 91, 110
1, 31419, Note_on_c, 1, 79, 120
1, 31419, Note_on_c, 1, 84, 120
1, 31419, Note_on_c, 2, 79, 110
1, 31419, Note_on_c, 2, 79, 110
1, 31419, Note_on_c, 4, 67, 120
1, 31419, Note_on_c, 4, 60, 120
1, 31419, Note_on_c, 4, 67, 120
1, 31419, Note_on_c, 4, 60, 120
1, 31419, Note_on_c, 5, 72, 120
1, 31419, Note_on_c, 5, 79, 120
1, 31419, Note_on_c, 5, 67, 110
1, 31419, Note_on_c, 9, 81, 100
1, 31419, Control_c, 8, 0, 0
1, 31419, Control_c, 8, 32, 0
1, 31419, Program_c, 8, 48
1, 31419, Note_on_c, 8, 72, 120
1, 31419, Note_on_c, 8, 79, 120
1, 31419, Control_c, 8, 0, 0
1, 31419, Control_c, 8, 32, 0
1, 31419, Program_c, 8, 49
1, 31419, Note_on_c, 8, 67, 120
1, 31419, Note_on_c, 8, 55, 120
1, 31419, Note_on_c, 8, 79, 120
1, 31419, Note_on_c, 8, 67, 120
1, 31419, Note_on_c, 8, 67, 120
1, 31434, Note_on_c, 0, 91, 0
1, 31434, Note_on_c, 0, 91, 0
1, 31434, Note_on_c, 1, 79, 0
1, 31434, Note_on_c, 1, 84, 0
1, 31434, Note_on_c, 2, 79, 0
1, 31434, Note_on_c, 2, 79, 0
1, 31434, Note_on_c, 5, 67, 0
1, 31434, Note_on_c, 9, 81, 0
1, 31434, Note_on_c, 0, 93, 110
1, 31434, Note_on_c, 2, 72, 110
1, 31434, Note_on_c, 2, 81, 110
1, 31434, Note_on_c, 5, 69, 110
1, 31434, Note_on_c, 9, 81, 100
1, 31448, Note_on_c, 0, 93, 0
1, 31448, Note_on_c, 2, 72, 0
1, 31448, Note_on_c, 2, 81, 0
1, 31448, Note_on_c, 5, 69, 0
1, 31448, Note_on_c, 9, 81, 0
1, 31448, Note_on_c, 0, 91, 110
1, 31448, Note_on_c, 0, 91, 110
1, 31448, Note_on_c, 1, 79, 120
1, 31448, Note_on_c, 1, 84, 120
1, 31448, Note_on_c, 2, 79, 110
1, 31448, Note_on_c, 2, 79, 110
1, 31448, Note_on_c, 5, 67, 110
1, 31448, Note_on_c, 9, 81, 100
1, 31463, Note_on_c, 0, 91, 0
1, 31463, Note_on_c, 0, 91, 0
1, 31463, Note_on_c, 1, 79, 0
1, 31463, Note_on_c, 1, 84, 0
1, 31463, Note_on_c, 2, 79, 0
1, 31463, Note_on_c, 2, 79, 0
1, 31463, Note_on_c, 5, 67, 0
1, 31463, Note_on_c, 9, 81, 0
1, 31463, Note_on_c, 0, 93, 110
1, 31463, Note_on_c, 2, 72, 110
1, 31463, Note_on_c, 2, 81, 110
1, 31463, Note_on_c, 5, 69, 110
1, 31463, Note_on_c, 9, 81, 100
1, 31478, Note_on_c, 4, 67, 0
1, 31478, Note_on_c, 4, 60, 0
1, 31478, Note_on_c, 4, 67, 0
1, 31478, Note_on_c, 4, 60, 0
1, 31478, Note_on_c, 5, 72, 0
1, 31478, Note_on_c, 5, 79, 0
1, 31478, Control_c, 8, 0, 0
1, 31478, Control_c, 8, 32, 0
1, 31478, Program_c, 8, 48
1, 31478, Note_on_c, 8, 72, 0
1, 31478, Note_on_c, 8, 79, 0
1, 31478, Control_c, 8, 0, 0
1, 31478, Control_c, 8, 32, 0
1, 31478, Program_c, 8, 49
1, 31478, Note_on_c, 8, 67, 0
1, 31478, Note_on_c, 8, 55, 0
1, 31478, Note_on_c, 8, 79, 0
1, 31478, Note_on_c, 8, 67, 0
1, 31478, Note_on_c, 8, 67, 0
1, 31478, Note_on_c, 0, 93, 0
1, 31478, Note_on_c, 2, 72, 0
1, 31478, Note_on_c, 2, 81, 0
1, 31478, Note_on_c, 5, 69, 0
1, 31478, Note_on_c, 9, 81, 0
1, 31478, Note_on_c, 0, 91, 110
1, 31478, Note_on_c, 0, 91, 110
1, 31478, Note_on_c, 1, 79, 120
1, 31478, Note_on_c, 1, 84, 120
1, 31478, Note_on_c, 2, 79, 110
1, 31478, Note_on_c, 2, 79, 110
1, 31478, Note_on_c, 5, 67, 110
1, 31478, Note_on_c, 9, 81, 100
1, 31492, Note_on_c, 0, 91, 0
1, 31492, Note_on_c, 0, 91, 0
1, 31492, Note_on_c, 1, 79, 0
1, 31492, Note_on_c, 1, 84, 0
1, 31492, Note_on_c, 2, 79, 0
1, 31492, Note_on_c, 2, 79, 0
1, 31492, Note_on_c, 5, 67, 0
1, 31492, Note_on_c, 9, 81, 0
1, 31492, Note_on_c, 0, 93, 110
1, 31492, Note_on_c, 2, 72, 110
1, 31492, Note_on_c, 2, 81, 110
1, 31492, Note_on_c, 5, 69, 110
1, 31492, Note_on_c, 9, 81, 100
1, 31507, Note_on_c, 0, 93, 0
1, 31507, Note_on_c, 2, 72, 0
1, 31507, Note_on_c, 2, 81, 0
1, 31507, Note_on_c, 5, 69, 0
1, 31507, Note_on_c, 9, 81, 0
1, 31507, Note_on_c, 0, 91, 110
1, 31507, Note_on_c, 0, 91, 110
1, 31507, Note_on_c, 1, 79, 120
1, 31507, Note_on_c, 1, 84, 120
1, 31507, Note_on_c, 2, 79, 110
1, 31507, Note_on_c, 2, 79, 110
1, 31507, Note_on_c, 4, 62, 120
1, 31507, Note_on_c, 4, 55, 120
1, 31507, Note_on_c, 4, 62, 120
1, 31507, Note_on_c, 4, 55, 120
1, 31507, Note_on_c, 5, 67, 120
1, 31507, Note_on_c, 5, 74, 120
1, 31507, Note_on_c, 5, 67, 110
1, 31507, Note_on_c, 9, 81, 100
1, 31507, Control_c, 8, 0, 0
1, 31507, Control_c, 8, 32, 0
1, 31507, Program_c, 8, 48
1, 31507, Note_on_c, 8, 74, 120
1, 31507, Note_on_c, 8, 74, 120
1, 31507, Control_c, 8, 0, 0
1, 31507, Control_c, 8, 32, 0
1, 31507, Program_c, 8, 49
1, 31507, Note_on_c, 8, 55, 120
1, 31507, Note_on_c, 8, 62, 120
1, 31507, Note_on_c, 8, 67, 120
1, 31507, Note_on_c, 8, 74, 120
1, 31507, Note_on_c, 8, 72, 120
1, 31521, Note_on_c, 0, 91, 0
1, 31521, Note_on_c, 0, 91, 0
1, 31521, Note_on_c, 1, 79, 0
1, 31521, Note_on_c, 1, 84, 0
1, 31521, Note_on_c, 2, 79, 0
1, 31521, Note_on_c, 2, 79, 0
1, 31521, Note_on_c, 5, 67, 0
1, 31521, Note_on_c, 9, 81, 0
1, 31521, Note_on_c, 0, 93, 110
1, 31521, Note_on_c, 2, 72, 110
1, 31521, Note_on_c, 2, 81, 110
1, 31521, Note_on_c, 5, 69, 110
1, 31521, Note_on_c, 9, 81, 100
1, 31536, Note_on_c, 0, 93, 0
1, 31536, Note_on_c, 2, 72, 0
1, 31536, Note_on_c, 2, 81, 0
1, 31536, Note_on_c, 5, 69, 0
1, 31536, Note_on_c, 9, 81, 0
1, 31536, Note_on_c, 0, 91, 110
1, 31536, Note_on_c, 0, 91, 110
1, 31536, Note_on_c, 1, 79, 120
1, 31536, Note_on_c, 1, 84, 120
1, 31536, Note_on_c, 2, 79, 110
1, 31536, Note_on_c, 2, 79, 110
1, 31536, Note_on_c, 5, 67, 110
1, 31536, Note_on_c, 9, 81, 100
1, 31551, Note_on_c, 0, 91, 0
1, 31551, Note_on_c, 0, 91, 0
1, 31551, Note_on_c, 1, 79, 0
1, 31551, Note_on_c, 1, 84, 0
1, 31551, Note_on_c, 2, 79, 0
1, 31551, Note_on_c, 2, 79, 0
1, 31551, Note_on_c, 5, 67, 0
1, 31551, Note_on_c, 9, 81, 0
1, 31551, Note_on_c, 0, 93, 110
1, 31551, Note_on_c, 2, 72, 110
1, 31551, Note_on_c, 2, 81, 110
1, 31551, Note_on_c, 5, 69, 110
1, 31551, Note_on_c, 9, 81, 100
1, 31565, Note_on_c, 4, 62, 0
1, 31565, Note_on_c, 4, 55, 0
1, 31565, Note_on_c, 4, 62, 0
1, 31565, Note_on_c, 4, 55, 0
1, 31565, Note_on_c, 5, 67, 0
1, 31565, Note_on_c, 5, 74, 0
1, 31565, Control_c, 8, 0, 0
1, 31565, Control_c, 8, 32, 0
1, 31565, Program_c, 8, 48
1, 31565, Note_on_c, 8, 74, 0
1, 31565, Note_on_c, 8, 74, 0
1, 31565, Control_c, 8, 0, 0
1, 31565, Control_c, 8, 32, 0
1, 31565, Program_c, 8, 49
1, 31565, Note_on_c, 8, 55, 0
1, 31565, Note_on_c, 8, 62, 0
1, 31565, Note_on_c, 8, 67, 0
1, 31565, Note_on_c, 8, 74, 0
1, 31565, Note_on_c, 8, 72, 0
1, 31565, Note_on_c, 0, 93, 0
1, 31565, Note_on_c, 2, 72, 0
1, 31565, Note_on_c, 2, 81, 0
1, 31565, Note_on_c, 5, 69, 0
1, 31565, Note_on_c, 9, 81, 0
1, 31565, Note_on_c, 0, 91, 110
1, 31565, Note_on_c, 0, 91, 110
1, 31565, Note_on_c, 1, 79, 120
1, 31565, Note_on_c, 1, 84, 120
1, 31565, Note_on_c, 2, 79, 110
1, 31565, Note_on_c, 2, 79, 110
1, 31565, Note_on_c, 5, 67, 110
1, 31565, Note_on_c, 9, 81, 100
1, 31580, Note_on_c, 0, 91, 0
1, 31580, Note_on_c, 0, 91, 0
1, 31580, Note_on_c, 1, 79, 0
1, 31580, Note_on_c, 1, 84, 0
1, 31580, Note_on_c, 2, 79, 0
1, 31580, Note_on_c, 2, 79, 0
1, 31580, Note_on_c, 5, 67, 0
1, 31580, Note_on_c, 9, 81, 0
1, 31580, Note_on_c, 0, 93, 110
1, 31580, Note_on_c, 2, 72, 110
1, 31580, Note_on_c, 2, 81, 110
1, 31580, Note_on_c, 5, 69, 110
1, 31580, Note_on_c, 9, 81, 100
1, 31594, Note_on_c, 0, 93, 0
1, 31594, Note_on_c, 2, 72, 0
1, 31594, Note_on_c, 2, 81, 0
1, 31594, Note_on_c, 5, 69, 0
1, 31594, Note_on_c, 9, 81, 0
1, 31594, Note_on_c, 0, 91, 110
1, 31594, Note_on_c, 0, 91, 110
1, 31594, Note_on_c, 1, 79, 120
1, 31594, Note_on_c, 1, 84, 120
1, 31594, Note_on_c, 2, 79, 110
1, 31594, Note_on_c, 2, 79, 110
1, 31594, Note_on_c, 4, 60, 120
1, 31594, Note_on_c, 4, 57, 120
1, 31594, Note_on_c, 4, 60, 120
1, 31594, Note_on_c, 4, 57, 120
1, 31594, Note_on_c, 5, 69, 120
1, 31594, Note_on_c, 5, 72, 120
1, 31594, Note_on_c, 5, 67, 110
1, 31594, Note_on_c, 9, 81, 100
1, 31594, Control_c, 8, 0, 0
1, 31594, Control_c, 8, 32, 0
1, 31594, Program_c, 8, 48
1, 31594, Note_on_c, 8, 72, 120
1, 31594, Note_on_c, 8, 72, 120
1, 31594, Control_c, 8, 0, 0
1, 31594, Control_c, 8, 32, 0
1, 31594, Program_c, 8, 49
1, 31594, Note_on_c, 8, 60, 120
1, 31594, Note_on_c, 8, 55, 120
1, 31594, Note_on_c, 8, 72, 120
1, 31594, Note_on_c, 8, 67, 120
1, 31594, Note_on_c, 8, 60, 120
1, 31609, Note_on_c, 0, 91, 0
1, 31609, Note_on_c, 0, 91, 0
1, 31609, Note_on_c, 1, 79, 0
1, 31609, Note_on_c, 1, 84, 0
1, 31609, Note_on_c, 2, 79, 0
1, 31609, Note_on_c, 2, 79, 0
1, 31609, Note_on_c, 5, 67, 0
1, 31609, Note_on_c, 9, 81, 0
1, 31609, Note_on_c, 0, 93, 110
1, 31609, Note_on_c, 2, 72, 110
1, 31609, Note_on_c, 2, 81, 110
1, 31609, Note_on_c, 5, 69, 110
1, 31609, Note_on_c, 9, 81, 100
1, 31624, Note_on_c, 0, 93, 0
1, 31624, Note_on_c, 2, 72, 0
1, 31624, Note_on_c, 2, 81, 0
1, 31624, Note_on_c, 5, 69, 0
1, 31624, Note_on_c, 9, 81, 0
1, 31624, Note_on_c, 0, 91, 110
1, 31624, Note_on_c, 0, 91, 110
1, 31624, Note_on_c, 1, 79, 120
1, 31624, Note_on_c, 1, 84, 120
1, 31624, Note_on_c, 2, 79, 110
1, 31624, Note_on_c, 2, 79, 110
1, 31624, Note_on_c, 5, 67, 110
1, 31624, Note_on_c, 9, 81, 100
1, 31638, Note_on_c, 0, 91, 0
1, 31638, Note_on_c, 0, 91, 0
1, 31638, Note_on_c, 1, 79, 0
1, 31638, Note_on_c, 1, 84, 0
1, 31638, Note_on_c, 2, 79, 0
1, 31638, Note_on_c, 2, 79, 0
1, 31638, Note_on_c, 5, 67, 0
1, 31638, Note_on_c, 9, 81, 0
1, 31638, Note_on_c, 0, 93, 110
1, 31638, Note_on_c, 2, 72, 110
1, 31638, Note_on_c, 2, 81, 110
1, 31638, Note_on_c, 5, 69, 110
1, 31638, Note_on_c, 9, 81, 100
1, 31653, Note_on_c, 4, 60, 0
1, 31653, Note_on_c, 4, 57, 0
1, 31653, Note_on_c, 4, 60, 0
1, 31653, Note_on_c, 4, 57, 0
1, 31653, Note_on_c, 5, 69, 0
1, 31653, Note_on_c, 5, 72, 0
1, 31653, Control_c, 8, 0, 0
1, 31653, Control_c, 8, 32, 0
1, 31653, Program_c, 8, 48
1, 31653, Note_on_c, 8, 72, 0
1, 31653, Note_on_c, 8, 72, 0
1, 31653, Control_c, 8, 0, 0
1, 31653, Control_c, 8, 32, 0
1, 31653, Program_c, 8, 49
1, 31653, Note_on_c, 8, 60, 0
1, 31653, Note_on_c, 8, 55, 0
1, 31653, Note_on_c, 8, 72, 0
1, 31653, Note_on_c, 8, 67, 0
1, 31653, Note_on_c, 8, 60, 0
1, 31653, Note_on_c, 0, 93, 0
1, 31653, Note_on_c, 2, 72, 0
1, 31653, Note_on_c, 2, 81, 0
1, 31653, Note_on_c, 5, 69, 0
1, 31653, Note_on_c, 9, 81, 0
1, 31653, Note_on_c, 0, 91, 110
1, 31653, Note_on_c, 0, 91, 110
1, 31653, Note_on_c, 1, 79, 120
1, 31653, Note_on_c, 1, 84, 120
1, 31653, Note_on_c, 2, 79, 110
1, 31653, Note_on_c, 2, 79, 110
1, 31653, Note_on_c, 5, 67, 110
1, 31653, Note_on_c, 9, 81, 100
1, 31668, Note_on_c, 0, 91, 0
1, 31668, Note_on_c, 0, 91, 0
1, 31668, Note_on_c, 1, 79, 0
1, 31668, Note_on_c, 1, 84, 0
1, 31668, Note_on_c, 2, 79, 0
1, 31668, Note_on_c, 2, 79, 0
1, 31668, Note_on_c, 5, 67, 0
1, 31668, Note_on_c, 9, 81, 0
1, 31668, Note_on_c, 0, 93, 110
1, 31668, Note_on_c, 2, 72, 110
1, 31668, Note_on_c, 2, 81, 110
1, 31668, Note_on_c, 5, 69, 110
1, 31668, Note_on_c, 9, 81, 100
1, 31680, Note_on_c, 3, 43, 0
1, 31680, Note_on_c, 7, 40, 0
1, 31680, Note_on_c, 7, 28, 0
1, 31682, Note_on_c, 0, 93, 0
1, 31682, Note_on_c, 2, 72, 0
1, 31682, Note_on_c, 2, 81, 0
1, 31682, Note_on_c, 5, 69, 0
1, 31682, Note_on_c, 9, 81, 0
1, 31682, Note_on_c, 3, 42, 120
1, 31682, Note_on_c, 5, 42, 120
1, 31682, Control_c, 6, 73, 0
1, 31682, Note_on_c, 9, 35, 120
1, 31682, Note_on_c, 9, 29, 120
1, 31682, Control_c, 8, 7, 100
1, 31682, Note_on_c, 8, 30, 120
1, 31682, Note_on_c, 8, 30, 120
1, 31684, Note_on_c, 6, 42, 127
1, 31684, Note_on_c, 6, 42, 127
1, 31686, Control_c, 6, 73, 86
1, 31697, Note_on_c, 6, 42, 0
1, 31697, Note_on_c, 6, 42, 0
1, 31697, Note_on_c, 6, 42, 110
1, 31710, Note_on_c, 6, 42, 0
1, 31712, Note_on_c, 6, 42, 110
1, 31726, Note_on_c, 6, 42, 0
1, 31727, Note_on_c, 6, 42, 110
1, 31740, Note_on_c, 6, 42, 0
1, 31742, Note_on_c, 9, 35, 0
1, 31742, Note_on_c, 9, 29, 0
1, 31742, Note_on_c, 6, 42, 110
1, 31756, Note_on_c, 6, 42, 0
1, 31757, Note_on_c, 6, 42, 110
1, 31770, Note_on_c, 6, 42, 0
1, 31772, Note_on_c, 6, 42, 110
1, 31786, Note_on_c, 6, 42, 0
1, 31787, Note_on_c, 6, 42, 110
1, 31800, Note_on_c, 6, 42, 0
1, 31802, Note_on_c, 6, 42, 110
1, 31816, Note_on_c, 6, 42, 0
1, 31817, Note_on_c, 6, 42, 110
1, 31830, Note_on_c, 6, 42, 0
1, 31832, Note_on_c, 6, 42, 110
1, 31846, Note_on_c, 6, 42, 0
1, 31847, Note_on_c, 6, 42, 110
1, 31860, Note_on_c, 6, 42, 0
1, 31862, Note_on_c, 0, 90, 120
1, 31862, Note_on_c, 0, 90, 120
1, 31862, Note_on_c, 1, 82, 120
1, 31862, Note_on_c, 2, 87, 120
1, 31862, Note_on_c, 2, 83, 120
1, 31862, Note_on_c, 4, 63, 120
1, 31862, Note_on_c, 4, 59, 120
1, 31862, Note_on_c, 4, 63, 120
1, 31862, Note_on_c, 4, 59, 120
1, 31862, Note_on_c, 4, 63, 120
1, 31862, Note_on_c, 5, 71, 120
1, 31862, Note_on_c, 5, 78, 120
1, 31862, Note_on_c, 5, 78, 120
1, 31862, Note_on_c, 5, 54, 120
1, 31862, Note_on_c, 5, 66, 120
1, 31862, Note_on_c, 5, 66, 120
1, 31862, Note_on_c, 6, 42, 110
1, 31862, Note_on_c, 7, 70, 100
1, 31862, Note_on_c, 7, 58, 100
1, 31862, Control_c, 8, 0, 0
1, 31862, Control_c, 8, 32, 0
1, 31862, Program_c, 8, 48
1, 31862, Note_on_c, 8, 83, 110
1, 31862, Note_on_c, 8, 87, 110
1, 31862, Note_on_c, 8, 90, 110
1, 31862, Control_c, 8, 0, 0
1, 31862, Control_c, 8, 32, 0
1, 31862, Program_c, 8, 49
1, 31862, Note_on_c, 8, 90, 110
1, 31862, Note_on_c, 8, 83, 110
1, 31862, Note_on_c, 8, 87, 110
1, 31862, Note_on_c, 8, 71, 110
1, 31862, Note_on_c, 8, 71, 110
1, 31862, Note_on_c, 8, 59, 110
1, 31862, Note_on_c, 8, 59, 110
1, 31868, Note_on_c, 7, 71, 100
1, 31868, Note_on_c, 7, 59, 100
1, 31874, Note_on_c, 7, 75, 100
1, 31874, Note_on_c, 7, 63, 100
1, 31876, Note_on_c, 6, 42, 0
1, 31877, Note_on_c, 6, 42, 110
1, 31879, Note_on_c, 7, 78, 100
1, 31879, Note_on_c, 7, 66, 100
1, 31890, Note_on_c, 6, 42, 0
1, 31892, Note_on_c, 6, 42, 110
1, 31906, Note_on_c, 6, 42, 0
1, 31907, Note_on_c, 6, 42, 110
1, 31920, Note_on_c, 6, 42, 0
1, 31922, Note_on_c, 6, 42, 110
1, 31936, Note_on_c, 6, 42, 0
1, 31937, Note_on_c, 6, 42, 110
1, 31950, Note_on_c, 6, 42, 0
1, 31952, Note_on_c, 6, 42, 110
1, 31966, Note_on_c, 6, 42, 0
1, 31967, Note_on_c, 6, 42, 110
1, 31980, Note_on_c, 6, 42, 0
1, 31982, Note_on_c, 0, 90, 0
1, 31982, Note_on_c, 0, 90, 0
1, 31982, Note_on_c, 1, 82, 0
1, 31982, Note_on_c, 2, 87, 0
1, 31982, Note_on_c, 2, 83, 0
1, 31982, Note_on_c, 4, 63, 0
1, 31982, Note_on_c, 4, 59, 0
1, 31982, Note_on_c, 4, 63, 0
1, 31982, Note_on_c, 4, 59, 0
1, 31982, Note_on_c, 4, 63, 0
1, 31982, Note_on_c, 5, 71, 0
1, 31982, Control_c, 8, 0, 0
1, 31982, Control_c, 8, 32, 0
1, 31982, Program_c, 8, 48
1, 31982, Note_on_c, 8, 83, 0
1, 31982, Note_on_c, 8, 87, 0
1, 31982, Note_on_c, 8, 90, 0
1, 31982, Control_c, 8, 0, 0
1, 31982, Control_c, 8, 32, 0
1, 31982, Program_c, 8, 49
1, 31982, Note_on_c, 8, 90, 0
1, 31982, Note_on_c, 8, 83, 0
1, 31982, Note_on_c, 8, 87, 0
1, 31982, Note_on_c, 8, 71, 0
1, 31982, Note_on_c, 8, 71, 0
1, 31982, Note_on_c, 8, 59, 0
1, 31982, Note_on_c, 8, 59, 0
1, 31982, Note_on_c, 6, 42, 110
1, 31996, Note_on_c, 6, 42, 0
1, 31997, Note_on_c, 6, 42, 110
1, 32010, Note_on_c, 6, 42, 0
1, 32012, Note_on_c, 6, 42, 110
1, 32016, Note_on_c, 5, 78, 0
1, 32016, Note_on_c, 5, 78, 0
1, 32016, Note_on_c, 5, 54, 0
1, 32016, Note_on_c, 5, 66, 0
1, 32016, Note_on_c, 5, 66, 0
1, 32016, Note_on_c, 7, 70, 0
1, 32016, Note_on_c, 7, 58, 0
1, 32022, Note_on_c, 7, 71, 0
1, 32022, Note_on_c, 7, 59, 0
1, 32026, Note_on_c, 6, 42, 0
1, 32027, Note_on_c, 7, 75, 0
1, 32027, Note_on_c, 7, 63, 0
1, 32027, Note_on_c, 6, 42, 110
1, 32033, Note_on_c, 7, 78, 0
1, 32033, Note_on_c, 7, 66, 0
1, 32040, Note_on_c, 6, 42, 0
1, 32042, Note_on_c, 0, 88, 120
1, 32042, Note_on_c, 0, 88, 120
1, 32042, Note_on_c, 1, 80, 120
1, 32042, Note_on_c, 2, 87, 120
1, 32042, Note_on_c, 2, 83, 120
1, 32042, Note_on_c, 4, 63, 120
1, 32042, Note_on_c, 4, 59, 120
1, 32042, Note_on_c, 4, 63, 120
1, 32042, Note_on_c, 4, 59, 120
1, 32042, Note_on_c, 4, 63, 120
1, 32042, Note_on_c, 5, 71, 120
1, 32042, Note_on_c, 5, 76, 120
1, 32042, Note_on_c, 5, 76, 120
1, 32042, Note_on_c, 5, 52, 120
1, 32042, Note_on_c, 5, 64, 120
1, 32042, Note_on_c, 5, 64, 120
1, 32042, Note_on_c, 6, 42, 110
1, 32042, Note_on_c, 7, 68, 105
1, 32042, Note_on_c, 7, 56, 105
1, 32042, Control_c, 8, 0, 0
1, 32042, Control_c, 8, 32, 0
1, 32042, Program_c, 8, 48
1, 32042, Note_on_c, 8, 80, 110
1, 32042, Note_on_c, 8, 87, 110
1, 32042, Note_on_c, 8, 88, 110
1, 32042, Control_c, 8, 0, 0
1, 32042, Control_c, 8, 32, 0
1, 32042, Program_c, 8, 49
1, 32042, Note_on_c, 8, 88, 110
1, 32042, Note_on_c, 8, 80, 110
1, 32042, Note_on_c, 8, 87, 110
1, 32042, Note_on_c, 8, 73, 110
1, 32042, Note_on_c, 8, 73, 110
1, 32042, Note_on_c, 8, 61, 110
1, 32042, Note_on_c, 8, 61, 110
1, 32048, Note_on_c, 7, 71, 105
1, 32048, Note_on_c, 7, 59, 105
1, 32054, Note_on_c, 7, 75, 105
1, 32054, Note_on_c, 7, 63, 105
1, 32056, Note_on_c, 6, 42, 0
1, 32057, Note_on_c, 6, 42, 110
1, 32059, Note_on_c, 7, 76, 105
1, 32059, Note_on_c, 7, 64, 105
1, 32070, Note_on_c, 6, 42, 0
1, 32072, Note_on_c, 6, 42, 110
1, 32086, Note_on_c, 6, 42, 0
1, 32087, Note_on_c, 6, 42, 110
1, 32100, Note_on_c, 6, 42, 0
1, 32102, Note_on_c, 6, 42, 110
1, 32116, Note_on_c, 6, 42, 0
1, 32117, Note_on_c, 6, 42, 110
1, 32130, Note_on_c, 6, 42, 0
1, 32132, Note_on_c, 6, 42, 110
1, 32146, Note_on_c, 6, 42, 0
1, 32147, Note_on_c, 6, 42, 110
1, 32160, Note_on_c, 6, 42, 0
1, 32162, Note_on_c, 0, 88, 0
1, 32162, Note_on_c, 0, 88, 0
1, 32162, Note_on_c, 1, 80, 0
1, 32162, Note_on_c, 2, 87, 0
1, 32162, Note_on_c, 2, 83, 0
1, 32162, Note_on_c, 4, 63, 0
1, 32162, Note_on_c, 4, 59, 0
1, 32162, Note_on_c, 4, 63, 0
1, 32162, Note_on_c, 4, 59, 0
1, 32162, Note_on_c, 4, 63, 0
1, 32162, Note_on_c, 5, 71, 0
1, 32162, Control_c, 8, 0, 0
1, 32162, Control_c, 8, 32, 0
1, 32162, Program_c, 8, 48
1, 32162, Note_on_c, 8, 80, 0
1, 32162, Note_on_c, 8, 87, 0
1, 32162, Note_on_c, 8, 88, 0
1, 32162, Control_c, 8, 0, 0
1, 32162, Control_c, 8, 32, 0
1, 32162, Program_c, 8, 49
1, 32162, Note_on_c, 8, 88, 0
1, 32162, Note_on_c, 8, 80, 0
1, 32162, Note_on_c, 8, 87, 0
1, 32162, Note_on_c, 8, 73, 0
1, 32162, Note_on_c, 8, 73, 0
1, 32162, Note_on_c, 8, 61, 0
1, 32162, Note_on_c, 8, 61, 0
1, 32162, Note_on_c, 6, 42, 110
1, 32176, Note_on_c, 6, 42, 0
1, 32177, Note_on_c, 6, 42, 110
1, 32190, Note_on_c, 6, 42, 0
1, 32192, Note_on_c, 6, 42, 110
1, 32196, Note_on_c, 5, 76, 0
1, 32196, Note_on_c, 5, 76, 0
1, 32196, Note_on_c, 5, 52, 0
1, 32196, Note_on_c, 5, 64, 0
1, 32196, Note_on_c, 5, 64, 0
1, 32196, Note_on_c, 7, 68, 0
1, 32196, Note_on_c, 7, 56, 0
1, 32202, Note_on_c, 7, 71, 0
1, 32202, Note_on_c, 7, 59, 0
1, 32206, Note_on_c, 6, 42, 0
1, 32207, Note_on_c, 7, 75, 0
1, 32207, Note_on_c, 7, 63, 0
1, 32207, Note_on_c, 6, 42, 110
1, 32213, Note_on_c, 7, 76, 0
1, 32213, Note_on_c, 7, 64, 0
1, 32220, Note_on_c, 6, 42, 0
1, 32222, Note_on_c, 0, 87, 120
1, 32222, Note_on_c, 0, 87, 120
1, 32222, Note_on_c, 1, 78, 120
1, 32222, Note_on_c, 2, 83, 120
1, 32222, Note_on_c, 2, 80, 120
1, 32222, Note_on_c, 4, 59, 120
1, 32222, Note_on_c, 4, 56, 120
1, 32222, Note_on_c, 4, 59, 120
1, 32222, Note_on_c, 4, 56, 120
1, 32222, Note_on_c, 4, 59, 120
1, 32222, Note_on_c, 5, 71, 120
1, 32222, Note_on_c, 5, 75, 120
1, 32222, Note_on_c, 5, 75, 120
1, 32222, Note_on_c, 5, 51, 120
1, 32222, Note_on_c, 5, 63, 120
1, 32222, Note_on_c, 5, 63, 120
1, 32222, Note_on_c, 6, 42, 110
1, 32222, Note_on_c, 7, 66, 109
1, 32222, Note_on_c, 7, 54, 109
1, 32222, Control_c, 8, 0, 0
1, 32222, Control_c, 8, 32, 0
1, 32222, Program_c, 8, 48
1, 32222, Note_on_c, 8, 78, 110
1, 32222, Note_on_c, 8, 83, 110
1, 32222, Note_on_c, 8, 87, 110
1, 32222, Control_c, 8, 0, 0
1, 32222, Control_c, 8, 32, 0
1, 32222, Program_c, 8, 49
1, 32222, Note_on_c, 8, 87, 110
1, 32222, Note_on_c, 8, 78, 110
1, 32222, Note_on_c, 8, 83, 110
1, 32222, Note_on_c, 8, 75, 110
1, 32222, Note_on_c, 8, 75, 110
1, 32222, Note_on_c, 8, 63, 110
1, 32222, Note_on_c, 8, 63, 110
1, 32228, Note_on_c, 7, 68, 109
1, 32228, Note_on_c, 7, 56, 109
1, 32234, Note_on_c, 7, 71, 109
1, 32234, Note_on_c, 7, 59, 109
1, 32236, Note_on_c, 6, 42, 0
1, 32237, Note_on_c, 6, 42, 110
1, 32239, Note_on_c, 7, 75, 109
1, 32239, Note_on_c, 7, 63, 109
1, 32250, Note_on_c, 6, 42, 0
1, 32252, Note_on_c, 6, 42, 110
1, 32266, Note_on_c, 6, 42, 0
1, 32267, Note_on_c, 6, 42, 110
1, 32280, Note_on_c, 6, 42, 0
1, 32282, Note_on_c, 6, 42, 110
1, 32296, Note_on_c, 6, 42, 0
1, 32297, Note_on_c, 6, 42, 110
1, 32310, Note_on_c, 6, 42, 0
1, 32312, Note_on_c, 6, 42, 110
1, 32326, Note_on_c, 6, 42, 0
1, 32327, Note_on_c, 6, 42, 110
1, 32340, Note_on_c, 6, 42, 0
1, 32342, Note_on_c, 0, 87, 0
1, 32342, Note_on_c, 0, 87, 0
1, 32342, Note_on_c, 1, 78, 0
1, 32342, Note_on_c, 2, 83, 0
1, 32342, Note_on_c, 2, 80, 0
1, 32342, Note_on_c, 4, 59, 0
1, 32342, Note_on_c, 4, 56, 0
1, 32342, Note_on_c, 4, 59, 0
1, 32342, Note_on_c, 4, 56, 0
1, 32342, Note_on_c, 4, 59, 0
1, 32342, Note_on_c, 5, 71, 0
1, 32342, Control_c, 8, 0, 0
1, 32342, Control_c, 8, 32, 0
1, 32342, Program_c, 8, 48
1, 32342, Note_on_c, 8, 78, 0
1, 32342, Note_on_c, 8, 83, 0
1, 32342, Note_on_c, 8, 87, 0
1, 32342, Control_c, 8, 0, 0
1, 32342, Control_c, 8, 32, 0
1, 32342, Program_c, 8, 49
1, 32342, Note_on_c, 8, 87, 0
1, 32342, Note_on_c, 8, 78, 0
1, 32342, Note_on_c, 8, 83, 0
1, 32342, Note_on_c, 8, 75, 0
1, 32342, Note_on_c, 8, 75, 0
1, 32342, Note_on_c, 8, 63, 0
1, 32342, Note_on_c, 8, 63, 0
1, 32342, Note_on_c, 6, 42, 110
1, 32356, Note_on_c, 6, 42, 0
1, 32357, Note_on_c, 6, 42, 110
1, 32370, Note_on_c, 6, 42, 0
1, 32372, Note_on_c, 6, 42, 110
1, 32376, Note_on_c, 5, 75, 0
1, 32376, Note_on_c, 5, 75, 0
1, 32376, Note_on_c, 5, 51, 0
1, 32376, Note_on_c, 5, 63, 0
1, 32376, Note_on_c, 5, 63, 0
1, 32376, Note_on_c, 7, 66, 0
1, 32376, Note_on_c, 7, 54, 0
1, 32382, Note_on_c, 7, 68, 0
1, 32382, Note_on_c, 7, 56, 0
1, 32386, Note_on_c, 6, 42, 0
1, 32387, Note_on_c, 7, 71, 0
1, 32387, Note_on_c, 7, 59, 0
1, 32387, Note_on_c, 6, 42, 110
1, 32393, Note_on_c, 7, 75, 0
1, 32393, Note_on_c, 7, 63, 0
1, 32400, Note_on_c, 6, 42, 0
1, 32402, Note_on_c, 0, 90, 120
1, 32402, Note_on_c, 0, 90, 120
1, 32402, Note_on_c, 1, 82, 120
1, 32402, Note_on_c, 2, 87, 120
1, 32402, Note_on_c, 2, 83, 120
1, 32402, Note_on_c, 4, 63, 120
1, 32402, Note_on_c, 4, 59, 120
1, 32402, Note_on_c, 4, 63, 120
1, 32402, Note_on_c, 4, 59, 120
1, 32402, Note_on_c, 4, 63, 120
1, 32402, Note_on_c, 5, 71, 120
1, 32402, Note_on_c, 5, 78, 120
1, 32402, Note_on_c, 5, 78, 120
1, 32402, Note_on_c, 5, 54, 120
1, 32402, Note_on_c, 5, 66, 120
1, 32402, Note_on_c, 5, 66, 120
1, 32402, Note_on_c, 6, 42, 110
1, 32402, Note_on_c, 7, 70, 112
1, 32402, Note_on_c, 7, 58, 112
1, 32402, Control_c, 8, 0, 0
1, 32402, Control_c, 8, 32, 0
1, 32402, Program_c, 8, 48
1, 32402, Note_on_c, 8, 82, 110
1, 32402, Note_on_c, 8, 83, 110
1, 32402, Note_on_c, 8, 90, 110
1, 32402, Control_c, 8, 0, 0
1, 32402, Control_c, 8, 32, 0
1, 32402, Program_c, 8, 49
1, 32402, Note_on_c, 8, 90, 110
1, 32402, Note_on_c, 8, 82, 110
1, 32402, Note_on_c, 8, 83, 110
1, 32402, Note_on_c, 8, 76, 110
1, 32402, Note_on_c, 8, 76, 110
1, 32402, Note_on_c, 8, 64, 110
1, 32402, Note_on_c, 8, 64, 110
1, 32408, Note_on_c, 7, 71, 112
1, 32408, Note_on_c, 7, 59, 112
1, 32414, Note_on_c, 7, 75, 112
1, 32414, Note_on_c, 7, 63, 112
1, 32416, Note_on_c, 6, 42, 0
1, 32417, Note_on_c, 6, 42, 110
1, 32419, Note_on_c, 7, 78, 112
1, 32419, Note_on_c, 7, 66, 112
1, 32430, Note_on_c, 6, 42, 0
1, 32432, Note_on_c, 6, 42, 110
1, 32446, Note_on_c, 6, 42, 0
1, 32447, Note_on_c, 6, 42, 110
1, 32460, Note_on_c, 6, 42, 0
1, 32462, Note_on_c, 6, 42, 110
1, 32476, Note_on_c, 6, 42, 0
1, 32477, Note_on_c, 6, 42, 110
1, 32490, Note_on_c, 6, 42, 0
1, 32492, Note_on_c, 6, 42, 110
1, 32506, Note_on_c, 6, 42, 0
1, 32507, Note_on_c, 6, 42, 110
1, 32520, Note_on_c, 6, 42, 0
1, 32522, Note_on_c, 0, 90, 0
1, 32522, Note_on_c, 0, 90, 0
1, 32522, Note_on_c, 1, 82, 0
1, 32522, Note_on_c, 2, 87, 0
1, 32522, Note_on_c, 2, 83, 0
1, 32522, Note_on_c, 4, 63, 0
1, 32522, Note_on_c, 4, 59, 0
1, 32522, Note_on_c, 4, 63, 0
1, 32522, Note_on_c, 4, 59, 0
1, 32522, Note_on_c, 4, 63, 0
1, 32522, Note_on_c, 5, 71, 0
1, 32522, Control_c, 8, 0, 0
1, 32522, Control_c, 8, 32, 0
1, 32522, Program_c, 8, 48
1, 32522, Note_on_c, 8, 82, 0
1, 32522, Note_on_c, 8, 83, 0
1, 32522, Note_on_c, 8, 90, 0
1, 32522, Control_c, 8, 0, 0
1, 32522, Control_c, 8, 32, 0
1, 32522, Program_c, 8, 49
1, 32522, Note_on_c, 8, 90, 0
1, 32522, Note_on_c, 8, 82, 0
1, 32522, Note_on_c, 8, 83, 0
1, 32522, Note_on_c, 8, 76, 0
1, 32522, Note_on_c, 8, 76, 0
1, 32522, Note_on_c, 8, 64, 0
1, 32522, Note_on_c, 8, 64, 0
1, 32522, Note_on_c, 6, 42, 110
1, 32536, Note_on_c, 6, 42, 0
1, 32537, Note_on_c, 6, 42, 110
1, 32550, Note_on_c, 6, 42, 0
1, 32552, Note_on_c, 6, 42, 110
1, 32556, Note_on_c, 5, 78, 0
1, 32556, Note_on_c, 5, 78, 0
1, 32556, Note_on_c, 5, 54, 0
1, 32556, Note_on_c, 5, 66, 0
1, 32556, Note_on_c, 5, 66, 0
1, 32556, Note_on_c, 7, 70, 0
1, 32556, Note_on_c, 7, 58, 0
1, 32562, Note_on_c, 7, 71, 0
1, 32562, Note_on_c, 7, 59, 0
1, 32566, Note_on_c, 6, 42, 0
1, 32567, Note_on_c, 7, 75, 0
1, 32567, Note_on_c, 7, 63, 0
1, 32567, Note_on_c, 6, 42, 110
1, 32573, Note_on_c, 7, 78, 0
1, 32573, Note_on_c, 7, 66, 0
1, 32580, Note_on_c, 6, 42, 0
1, 32582, Note_on_c, 0, 85, 120
1, 32582, Note_on_c, 0, 85, 120
1, 32582, Note_on_c, 1, 76, 120
1, 32582, Note_on_c, 2, 83, 120
1, 32582, Note_on_c, 2, 80, 120
1, 32582, Note_on_c, 4, 59, 120
1, 32582, Note_on_c, 4, 56, 120
1, 32582, Note_on_c, 4, 59, 120
1, 32582, Note_on_c, 4, 56, 120
1, 32582, Note_on_c, 4, 59, 120
1, 32582, Note_on_c, 5, 71, 120
1, 32582, Note_on_c, 5, 73, 120
1, 32582, Note_on_c, 5, 73, 120
1, 32582, Note_on_c, 5, 49, 120
1, 32582, Note_on_c, 5, 61, 120
1, 32582, Note_on_c, 5, 61, 120
1, 32582, Note_on_c, 6, 42, 110
1, 32582, Note_on_c, 7, 64, 112
1, 32582, Note_on_c, 7, 52, 112
1, 32582, Control_c, 8, 0, 0
1, 32582, Control_c, 8, 32, 0
1, 32582, Program_c, 8, 48
1, 32582, Note_on_c, 8, 76, 110
1, 32582, Note_on_c, 8, 80, 110
1, 32582, Note_on_c, 8, 85, 110
1, 32582, Control_c, 8, 0, 0
1, 32582, Control_c, 8, 32, 0
1, 32582, Program_c, 8, 49
1, 32582, Note_on_c, 8, 85, 110
1, 32582, Note_on_c, 8, 76, 110
1, 32582, Note_on_c, 8, 80, 110
1, 32582, Note_on_c, 8, 78, 110
1, 32582, Note_on_c, 8, 78, 110
1, 32582, Note_on_c, 8, 66, 110
1, 32582, Note_on_c, 8, 66, 110
1, 32588, Note_on_c, 7, 68, 112
1, 32588, Note_on_c, 7, 56, 112
1, 32594, Note_on_c, 7, 71, 112
1, 32594, Note_on_c, 7, 59, 112
1, 32596, Note_on_c, 6, 42, 0
1, 32597, Note_on_c, 6, 42, 110
1, 32599, Note_on_c, 7, 73, 112
1, 32599, Note_on_c, 7, 61, 112
1, 32610, Note_on_c, 6, 42, 0
1, 32612, Note_on_c, 6, 42, 110
1, 32626, Note_on_c, 6, 42, 0
1, 32627, Note_on_c, 6, 42, 110
1, 32640, Note_on_c, 6, 42, 0
1, 32642, Note_on_c, 6, 42, 110
1, 32656, Note_on_c, 6, 42, 0
1, 32657, Note_on_c, 6, 42, 110
1, 32670, Note_on_c, 6, 42, 0
1, 32672, Note_on_c, 6, 42, 110
1, 32686, Note_on_c, 6, 42, 0
1, 32687, Note_on_c, 6, 42, 110
1, 32700, Note_on_c, 6, 42, 0
1, 32702, Note_on_c, 0, 85, 0
1, 32702, Note_on_c, 0, 85, 0
1, 32702, Note_on_c, 1, 76, 0
1, 32702, Note_on_c, 2, 83, 0
1, 32702, Note_on_c, 2, 80, 0
1, 32702, Note_on_c, 4, 59, 0
1, 32702, Note_on_c, 4, 56, 0
1, 32702, Note_on_c, 4, 59, 0
1, 32702, Note_on_c, 4, 56, 0
1, 32702, Note_on_c, 4, 59, 0
1, 32702, Note_on_c, 5, 71, 0
1, 32702, Control_c, 8, 0, 0
1, 32702, Control_c, 8, 32, 0
1, 32702, Program_c, 8, 48
1, 32702, Note_on_c, 8, 76, 0
1, 32702, Note_on_c, 8, 80, 0
1, 32702, Note_on_c, 8, 85, 0
1, 32702, Control_c, 8, 0, 0
1, 32702, Control_c, 8, 32, 0
1, 32702, Program_c, 8, 49
1, 32702, Note_on_c, 8, 85, 0
1, 32702, Note_on_c, 8, 76, 0
1, 32702, Note_on_c, 8, 80, 0
1, 32702, Note_on_c, 8, 78, 0
1, 32702, Note_on_c, 8, 78, 0
1, 32702, Note_on_c, 8, 66, 0
1, 32702, Note_on_c, 8, 66, 0
1, 32702, Note_on_c, 6, 42, 110
1, 32716, Note_on_c, 6, 42, 0
1, 32717, Note_on_c, 6, 42, 110
1, 32730, Note_on_c, 6, 42, 0
1, 32732, Note_on_c, 6, 42, 110
1, 32736, Note_on_c, 5, 73, 0
1, 32736, Note_on_c, 5, 73, 0
1, 32736, Note_on_c, 5, 49, 0
1, 32736, Note_on_c, 5, 61, 0
1, 32736, Note_on_c, 5, 61, 0
1, 32736, Note_on_c, 7, 64, 0
1, 32736, Note_on_c, 7, 52, 0
1, 32742, Note_on_c, 7, 68, 0
1, 32742, Note_on_c, 7, 56, 0
1, 32746, Note_on_c, 6, 42, 0
1, 32747, Note_on_c, 7, 71, 0
1, 32747, Note_on_c, 7, 59, 0
1, 32747, Note_on_c, 6, 42, 110
1, 32753, Note_on_c, 7, 73, 0
1, 32753, Note_on_c, 7, 61, 0
1, 32760, Note_on_c, 6, 42, 0
1, 32762, Note_on_c, 0, 83, 120
1, 32762, Note_on_c, 0, 83, 120
1, 32762, Note_on_c, 1, 75, 120
1, 32762, Note_on_c, 2, 80, 120
1, 32762, Note_on_c, 2, 76, 120
1, 32762, Note_on_c, 4, 56, 120
1, 32762, Note_on_c, 4, 52, 120
1, 32762, Note_on_c, 4, 56, 120
1, 32762, Note_on_c, 4, 52, 120
1, 32762, Note_on_c, 4, 56, 120
1, 32762, Note_on_c, 5, 64, 120
1, 32762, Note_on_c, 5, 71, 120
1, 32762, Note_on_c, 5, 71, 120
1, 32762, Note_on_c, 5, 47, 120
1, 32762, Note_on_c, 5, 59, 120
1, 32762, Note_on_c, 5, 59, 120
1, 32762, Note_on_c, 6, 42, 110
1, 32762, Note_on_c, 7, 63, 113
1, 32762, Note_on_c, 7, 51, 113
1, 32762, Control_c, 8, 0, 0
1, 32762, Control_c, 8, 32, 0
1, 32762, Program_c, 8, 48
1, 32762, Note_on_c, 8, 75, 110
1, 32762, Note_on_c, 8, 80, 110
1, 32762, Note_on_c, 8, 83, 110
1, 32762, Control_c, 8, 0, 0
1, 32762, Control_c, 8, 32, 0
1, 32762, Program_c, 8, 49
1, 32762, Note_on_c, 8, 83, 110
1, 32762, Note_on_c, 8, 75, 110
1, 32762, Note_on_c, 8, 80, 110
1, 32762, Note_on_c, 8, 80, 110
1, 32762, Note_on_c, 8, 80, 110
1, 32762, Note_on_c, 8, 68, 110
1, 32762, Note_on_c, 8, 68, 110
1, 32768, Note_on_c, 7, 64, 113
1, 32768, Note_on_c, 7, 52, 113
1, 32774, Note_on_c, 7, 68, 113
1, 32774, Note_on_c, 7, 56, 113
1, 32776, Note_on_c, 6, 42, 0
1, 32777, Note_on_c, 6, 42, 110
1, 32779, Note_on_c, 7, 71, 113
1, 32779, Note_on_c, 7, 59, 113
1, 32790, Note_on_c, 6, 42, 0
1, 32792, Note_on_c, 6, 42, 110
1, 32806, Note_on_c, 6, 42, 0
1, 32807, Note_on_c, 6, 42, 110
1, 32820, Note_on_c, 6, 42, 0
1, 32822, Note_on_c, 6, 42, 110
1, 32836, Note_on_c, 6, 42, 0
1, 32837, Note_on_c, 6, 42, 110
1, 32850, Note_on_c, 6, 42, 0
1, 32852, Note_on_c, 6, 42, 110
1, 32866, Note_on_c, 6, 42, 0
1, 32867, Note_on_c, 6, 42, 110
1, 32880, Note_on_c, 6, 42, 0
1, 32882, Note_on_c, 0, 83, 0
1, 32882, Note_on_c, 0, 83, 0
1, 32882, Note_on_c, 1, 75, 0
1, 32882, Note_on_c, 2, 80, 0
1, 32882, Note_on_c, 2, 76, 0
1, 32882, Note_on_c, 4, 56, 0
1, 32882, Note_on_c, 4, 52, 0
1, 32882, Note_on_c, 4, 56, 0
1, 32882, Note_on_c, 4, 52, 0
1, 32882, Note_on_c, 4, 56, 0
1, 32882, Note_on_c, 5, 64, 0
1, 32882, Control_c, 8, 0, 0
1, 32882, Control_c, 8, 32, 0
1, 32882, Program_c, 8, 48
1, 32882, Note_on_c, 8, 75, 0
1, 32882, Note_on_c, 8, 80, 0
1, 32882, Note_on_c, 8, 83, 0
1, 32882, Control_c, 8, 0, 0
1, 32882, Control_c, 8, 32, 0
1, 32882, Program_c, 8, 49
1, 32882, Note_on_c, 8, 83, 0
1, 32882, Note_on_c, 8, 75, 0
1, 32882, Note_on_c, 8, 80, 0
1, 32882, Note_on_c, 8, 80, 0
1, 32882, Note_on_c, 8, 80, 0
1, 32882, Note_on_c, 8, 68, 0
1, 32882, Note_on_c, 8, 68, 0
1, 32882, Note_on_c, 6, 42, 110
1, 32896, Note_on_c, 6, 42, 0
1, 32897, Note_on_c, 6, 42, 110
1, 32910, Note_on_c, 6, 42, 0
1, 32912, Note_on_c, 6, 42, 110
1, 32916, Note_on_c, 5, 71, 0
1, 32916, Note_on_c, 5, 71, 0
1, 32916, Note_on_c, 5, 47, 0
1, 32916, Note_on_c, 5, 59, 0
1, 32916, Note_on_c, 5, 59, 0
1, 32916, Note_on_c, 7, 63, 0
1, 32916, Note_on_c, 7, 51, 0
1, 32922, Note_on_c, 7, 64, 0
1, 32922, Note_on_c, 7, 52, 0
1, 32926, Note_on_c, 6, 42, 0
1, 32927, Note_on_c, 7, 68, 0
1, 32927, Note_on_c, 7, 56, 0
1, 32927, Control_c, 6, 73, 0
1, 32933, Note_on_c, 7, 59, 0
1, 32938, Note_on_c, 3, 42, 0
1, 32938, Note_on_c, 5, 42, 0
1, 32938, Note_on_c, 8, 30, 0
1, 32938, Note_on_c, 8, 30, 0
1, 32942, Note_on_c, 0, 88, 120
1, 32942, Note_on_c, 0, 88, 120
1, 32942, Note_on_c, 1, 80, 120
1, 32942, Note_on_c, 2, 87, 120
1, 32942, Note_on_c, 2, 83, 120
1, 32942, Note_on_c, 3, 47, 120
1, 32942, Note_on_c, 4, 63, 120
1, 32942, Note_on_c, 4, 59, 120
1, 32942, Note_on_c, 4, 63, 120
1, 32942, Note_on_c, 4, 59, 120
1, 32942, Note_on_c, 4, 63, 120
1, 32942, Note_on_c, 5, 71, 120
1, 32942, Note_on_c, 5, 76, 120
1, 32942, Note_on_c, 5, 76, 120
1, 32942, Note_on_c, 5, 52, 120
1, 32942, Note_on_c, 5, 64, 120
1, 32942, Note_on_c, 5, 64, 120
1, 32942, Note_on_c, 5, 47, 120
1, 32942, Control_c, 6, 73, 86
1, 32942, Note_on_c, 6, 47, 127
1, 32942, Note_on_c, 6, 47, 127
1, 32942, Note_on_c, 7, 68, 113
1, 32942, Note_on_c, 7, 56, 113
1, 32942, Control_c, 8, 0, 0
1, 32942, Control_c, 8, 32, 0
1, 32942, Program_c, 8, 48
1, 32942, Note_on_c, 8, 80, 110
1, 32942, Note_on_c, 8, 87, 110
1, 32942, Note_on_c, 8, 88, 110
1, 32942, Control_c, 8, 0, 0
1, 32942, Control_c, 8, 32, 0
1, 32942, Program_c, 8, 49
1, 32942, Note_on_c, 8, 88, 110
1, 32942, Note_on_c, 8, 80, 110
1, 32942, Note_on_c, 8, 87, 110
1, 32942, Note_on_c, 8, 76, 110
1, 32942, Note_on_c, 8, 76, 110
1, 32942, Note_on_c, 8, 64, 110
1, 32942, Note_on_c, 8, 64, 110
1, 32942, Note_on_c, 8, 35, 120
1, 32942, Note_on_c, 8, 35, 120
1, 32944, Note_on_c, 7, 71, 0
1, 32948, Note_on_c, 7, 71, 113
1, 32948, Note_on_c, 7, 59, 113
1, 32954, Note_on_c, 7, 75, 113
1, 32954, Note_on_c, 7, 63, 113
1, 32956, Note_on_c, 6, 47, 0
1, 32956, Note_on_c, 6, 47, 0
1, 32957, Note_on_c, 6, 47, 110
1, 32959, Note_on_c, 7, 76, 113
1, 32959, Note_on_c, 7, 64, 113
1, 32970, Note_on_c, 6, 47, 0
1, 32972, Note_on_c, 6, 47, 110
1, 32986, Note_on_c, 6, 47, 0
1, 32987, Note_on_c, 6, 47, 110
1, 33000, Note_on_c, 6, 47, 0
1, 33002, Note_on_c, 6, 47, 110
1, 33016, Note_on_c, 6, 47, 0
1, 33017, Note_on_c, 6, 47, 110
1, 33030, Note_on_c, 6, 47, 0
1, 33032, Note_on_c, 6, 47, 110
1, 33046, Note_on_c, 6, 47, 0
1, 33047, Note_on_c, 6, 47, 110
1, 33060, Note_on_c, 6, 47, 0
1, 33062, Note_on_c, 0, 88, 0
1, 33062, Note_on_c, 0, 88, 0
1, 33062, Note_on_c, 1, 80, 0
1, 33062, Note_on_c, 2, 87, 0
1, 33062, Note_on_c, 2, 83, 0
1, 33062, Note_on_c, 4, 63, 0
1, 33062, Note_on_c, 4, 59, 0
1, 33062, Note_on_c, 4, 63, 0
1, 33062, Note_on_c, 4, 59, 0
1, 33062, Note_on_c, 4, 63, 0
1, 33062, Note_on_c, 5, 71, 0
1, 33062, Control_c, 8, 0, 0
1, 33062, Control_c, 8, 32, 0
1, 33062, Program_c, 8, 48
1, 33062, Note_on_c, 8, 80, 0
1, 33062, Note_on_c, 8, 87, 0
1, 33062, Note_on_c, 8, 88, 0
1, 33062, Control_c, 8, 0, 0
1, 33062, Control_c, 8, 32, 0
1, 33062, Program_c, 8, 49
1, 33062, Note_on_c, 8, 88, 0
1, 33062, Note_on_c, 8, 80, 0
1, 33062, Note_on_c, 8, 87, 0
1, 33062, Note_on_c, 8, 76, 0
1, 33062, Note_on_c, 8, 76, 0
1, 33062, Note_on_c, 8, 64, 0
1, 33062, Note_on_c, 8, 64, 0
1, 33062, Note_on_c, 6, 47, 110
1, 33076, Note_on_c, 6, 47, 0
1, 33077, Note_on_c, 6, 47, 110
1, 33090, Note_on_c, 6, 47, 0
1, 33092, Note_on_c, 6, 47, 110
1, 33096, Note_on_c, 5, 76, 0
1, 33096, Note_on_c, 5, 76, 0
1, 33096, Note_on_c, 5, 52, 0
1, 33096, Note_on_c, 5, 64, 0
1, 33096, Note_on_c, 5, 64, 0
1, 33096, Note_on_c, 7, 68, 0
1, 33096, Note_on_c, 7, 56, 0
1, 33102, Note_on_c, 7, 71, 0
1, 33102, Note_on_c, 7, 59, 0
1, 33106, Note_on_c, 6, 47, 0
1, 33107, Note_on_c, 7, 75, 0
1, 33107, Note_on_c, 7, 63, 0
1, 33107, Note_on_c, 6, 47, 110
1, 33113, Note_on_c, 7, 76, 0
1, 33113, Note_on_c, 7, 64, 0
1, 33120, Note_on_c, 6, 47, 0
1, 33122, Note_on_c, 0, 87, 120
1, 33122, Note_on_c, 0, 87, 120
1, 33122, Note_on_c, 1, 78, 120
1, 33122, Note_on_c, 2, 83, 120
1, 33122, Note_on_c, 2, 80, 120
1, 33122, Note_on_c, 4, 59, 120
1, 33122, Note_on_c, 4, 56, 120
1, 33122, Note_on_c, 4, 59, 120
1, 33122, Note_on_c, 4, 56, 120
1, 33122, Note_on_c, 4, 59, 120
1, 33122, Note_on_c, 5, 71, 120
1, 33122, Note_on_c, 5, 75, 120
1, 33122, Note_on_c, 5, 75, 120
1, 33122, Note_on_c, 5, 51, 120
1, 33122, Note_on_c, 5, 63, 120
1, 33122, Note_on_c, 5, 63, 120
1, 33122, Note_on_c, 6, 47, 110
1, 33122, Note_on_c, 7, 66, 113
1, 33122, Note_on_c, 7, 54, 113
1, 33122, Control_c, 8, 0, 0
1, 33122, Control_c, 8, 32, 0
1, 33122, Program_c, 8, 48
1, 33122, Note_on_c, 8, 78, 110
1, 33122, Note_on_c, 8, 83, 110
1, 33122, Note_on_c, 8, 87, 110
1, 33122, Control_c, 8, 0, 0
1, 33122, Control_c, 8, 32, 0
1, 33122, Program_c, 8, 49
1, 33122, Note_on_c, 8, 87, 110
1, 33122, Note_on_c, 8, 78, 110
1, 33122, Note_on_c, 8, 83, 110
1, 33122, Note_on_c, 8, 78, 110
1, 33122, Note_on_c, 8, 78, 110
1, 33122, Note_on_c, 8, 66, 110
1, 33122, Note_on_c, 8, 66, 110
1, 33128, Note_on_c, 7, 68, 113
1, 33128, Note_on_c, 7, 56, 113
1, 33134, Note_on_c, 7, 71, 113
1, 33134, Note_on_c, 7, 59, 113
1, 33136, Note_on_c, 6, 47, 0
1, 33137, Note_on_c, 6, 47, 110
1, 33139, Note_on_c, 7, 75, 113
1, 33139, Note_on_c, 7, 63, 113
1, 33150, Note_on_c, 6, 47, 0
1, 33152, Note_on_c, 6, 47, 110
1, 33166, Note_on_c, 6, 47, 0
1, 33167, Note_on_c, 6, 47, 110
1, 33180, Note_on_c, 6, 47, 0
1, 33182, Note_on_c, 6, 47, 110
1, 33196, Note_on_c, 6, 47, 0
1, 33197, Note_on_c, 6, 47, 110
1, 33210, Note_on_c, 6, 47, 0
1, 33212, Note_on_c, 6, 47, 110
1, 33226, Note_on_c, 6, 47, 0
1, 33227, Note_on_c, 6, 47, 110
1, 33240, Note_on_c, 6, 47, 0
1, 33242, Note_on_c, 0, 87, 0
1, 33242, Note_on_c, 0, 87, 0
1, 33242, Note_on_c, 1, 78, 0
1, 33242, Note_on_c, 2, 83, 0
1, 33242, Note_on_c, 2, 80, 0
1, 33242, Note_on_c, 4, 59, 0
1, 33242, Note_on_c, 4, 56, 0
1, 33242, Note_on_c, 4, 59, 0
1, 33242, Note_on_c, 4, 56, 0
1, 33242, Note_on_c, 4, 59, 0
1, 33242, Note_on_c, 5, 71, 0
1, 33242, Control_c, 8, 0, 0
1, 33242, Control_c, 8, 32, 0
1, 33242, Program_c, 8, 48
1, 33242, Note_on_c, 8, 78, 0
1, 33242, Note_on_c, 8, 83, 0
1, 33242, Note_on_c, 8, 87, 0
1, 33242, Control_c, 8, 0, 0
1, 33242, Control_c, 8, 32, 0
1, 33242, Program_c, 8, 49
1, 33242, Note_on_c, 8, 87, 0
1, 33242, Note_on_c, 8, 78, 0
1, 33242, Note_on_c, 8, 83, 0
1, 33242, Note_on_c, 8, 78, 0
1, 33242, Note_on_c, 8, 78, 0
1, 33242, Note_on_c, 8, 66, 0
1, 33242, Note_on_c, 8, 66, 0
1, 33242, Note_on_c, 6, 47, 110
1, 33256, Note_on_c, 6, 47, 0
1, 33257, Note_on_c, 6, 47, 110
1, 33270, Note_on_c, 6, 47, 0
1, 33272, Note_on_c, 6, 47, 110
1, 33276, Note_on_c, 5, 75, 0
1, 33276, Note_on_c, 5, 75, 0
1, 33276, Note_on_c, 5, 51, 0
1, 33276, Note_on_c, 5, 63, 0
1, 33276, Note_on_c, 5, 63, 0
1, 33276, Note_on_c, 7, 66, 0
1, 33276, Note_on_c, 7, 54, 0
1, 33282, Note_on_c, 7, 68, 0
1, 33282, Note_on_c, 7, 56, 0
1, 33286, Note_on_c, 6, 47, 0
1, 33287, Note_on_c, 7, 71, 0
1, 33287, Note_on_c, 7, 59, 0
1, 33293, Note_on_c, 7, 75, 0
1, 33293, Note_on_c, 7, 63, 0
1, 33302, Note_on_c, 0, 85, 120
1, 33302, Note_on_c, 0, 85, 120
1, 33302, Note_on_c, 1, 76, 120
1, 33302, Note_on_c, 2, 83, 120
1, 33302, Note_on_c, 2, 80, 120
1, 33302, Note_on_c, 4, 59, 120
1, 33302, Note_on_c, 4, 56, 120
1, 33302, Note_on_c, 4, 59, 120
1, 33302, Note_on_c, 4, 56, 120
1, 33302, Note_on_c, 4, 59, 120
1, 33302, Note_on_c, 5, 71, 120
1, 33302, Note_on_c, 5, 73, 120
1, 33302, Note_on_c, 5, 73, 120
1, 33302, Note_on_c, 5, 49, 120
1, 33302, Note_on_c, 5, 61, 120
1, 33302, Note_on_c, 5, 61, 120
1, 33302, Note_on_c, 6, 47, 110
1, 33302, Note_on_c, 7, 64, 111
1, 33302, Note_on_c, 7, 52, 111
1, 33302, Control_c, 8, 0, 0
1, 33302, Control_c, 8, 32, 0
1, 33302, Program_c, 8, 48
1, 33302, Note_on_c, 8, 76, 110
1, 33302, Note_on_c, 8, 83, 110
1, 33302, Note_on_c, 8, 85, 110
1, 33302, Control_c, 8, 0, 0
1, 33302, Control_c, 8, 32, 0
1, 33302, Program_c, 8, 49
1, 33302, Note_on_c, 8, 85, 110
1, 33302, Note_on_c, 8, 76, 110
1, 33302, Note_on_c, 8, 83, 110
1, 33302, Note_on_c, 8, 80, 110
1, 33302, Note_on_c, 8, 80, 110
1, 33302, Note_on_c, 8, 68, 110
1, 33302, Note_on_c, 8, 68, 110
1, 33308, Note_on_c, 7, 68, 111
1, 33308, Note_on_c, 7, 56, 111
1, 33314, Note_on_c, 7, 71, 111
1, 33314, Note_on_c, 7, 59, 111
1, 33316, Note_on_c, 6, 47, 0
1, 33317, Note_on_c, 6, 47, 110
1, 33319, Note_on_c, 7, 73, 111
1, 33319, Note_on_c, 7, 61, 111
1, 33330, Note_on_c, 6, 47, 0
1, 33332, Note_on_c, 6, 47, 110
1, 33346, Note_on_c, 6, 47, 0
1, 33347, Note_on_c, 6, 47, 110
1, 33360, Note_on_c, 6, 47, 0
1, 33362, Note_on_c, 6, 47, 110
1, 33376, Note_on_c, 6, 47, 0
1, 33377, Note_on_c, 6, 47, 110
1, 33390, Note_on_c, 6, 47, 0
1, 33392, Note_on_c, 6, 47, 110
1, 33406, Note_on_c, 6, 47, 0
1, 33407, Note_on_c, 6, 47, 110
1, 33420, Note_on_c, 6, 47, 0
1, 33422, Note_on_c, 0, 85, 0
1, 33422, Note_on_c, 0, 85, 0
1, 33422, Note_on_c, 1, 76, 0
1, 33422, Note_on_c, 2, 83, 0
1, 33422, Note_on_c, 2, 80, 0
1, 33422, Note_on_c, 4, 59, 0
1, 33422, Note_on_c, 4, 56, 0
1, 33422, Note_on_c, 4, 59, 0
1, 33422, Note_on_c, 4, 56, 0
1, 33422, Note_on_c, 4, 59, 0
1, 33422, Note_on_c, 5, 71, 0
1, 33422, Control_c, 8, 0, 0
1, 33422, Control_c, 8, 32, 0
1, 33422, Program_c, 8, 48
1, 33422, Note_on_c, 8, 76, 0
1, 33422, Note_on_c, 8, 83, 0
1, 33422, Note_on_c, 8, 85, 0
1, 33422, Control_c, 8, 0, 0
1, 33422, Control_c, 8, 32, 0
1, 33422, Program_c, 8, 49
1, 33422, Note_on_c, 8, 85, 0
1, 33422, Note_on_c, 8, 76, 0
1, 33422, Note_on_c, 8, 83, 0
1, 33422, Note_on_c, 8, 80, 0
1, 33422, Note_on_c, 8, 80, 0
1, 33422, Note_on_c, 8, 68, 0
1, 33422, Note_on_c, 8, 68, 0
1, 33422, Note_on_c, 6, 47, 110
1, 33436, Note_on_c, 6, 47, 0
1, 33437, Note_on_c, 6, 47, 110
1, 33450, Note_on_c, 6, 47, 0
1, 33452, Note_on_c, 6, 47, 110
1, 33456, Note_on_c, 5, 73, 0
1, 33456, Note_on_c, 5, 73, 0
1, 33456, Note_on_c, 5, 49, 0
1, 33456, Note_on_c, 5, 61, 0
1, 33456, Note_on_c, 5, 61, 0
1, 33456, Note_on_c, 7, 64, 0
1, 33456, Note_on_c, 7, 52, 0
1, 33462, Note_on_c, 7, 68, 0
1, 33462, Note_on_c, 7, 56, 0
1, 33466, Note_on_c, 6, 47, 0
1, 33467, Note_on_c, 7, 71, 0
1, 33467, Note_on_c, 7, 59, 0
1, 33467, Note_on_c, 6, 47, 110
1, 33473, Note_on_c, 7, 73, 0
1, 33473, Note_on_c, 7, 61, 0
1, 33480, Note_on_c, 6, 47, 0
1, 33482, Note_on_c, 0, 88, 120
1, 33482, Note_on_c, 0, 88, 120
1, 33482, Note_on_c, 1, 80, 120
1, 33482, Note_on_c, 2, 87, 120
1, 33482, Note_on_c, 2, 83, 120
1, 33482, Note_on_c, 4, 63, 120
1, 33482, Note_on_c, 4, 59, 120
1, 33482, Note_on_c, 4, 63, 120
1, 33482, Note_on_c, 4, 59, 120
1, 33482, Note_on_c, 4, 63, 120
1, 33482, Note_on_c, 5, 71, 120
1, 33482, Note_on_c, 5, 76, 120
1, 33482, Note_on_c, 5, 76, 120
1, 33482, Note_on_c, 5, 52, 120
1, 33482, Note_on_c, 5, 64, 120
1, 33482, Note_on_c, 5, 64, 120
1, 33482, Note_on_c, 6, 47, 110
1, 33482, Note_on_c, 7, 68, 111
1, 33482, Note_on_c, 7, 56, 111
1, 33482, Control_c, 8, 0, 0
1, 33482, Control_c, 8, 32, 0
1, 33482, Program_c, 8, 48
1, 33482, Note_on_c, 8, 80, 110
1, 33482, Note_on_c, 8, 80, 110
1, 33482, Note_on_c, 8, 88, 110
1, 33482, Control_c, 8, 0, 0
1, 33482, Control_c, 8, 32, 0
1, 33482, Program_c, 8, 49
1, 33482, Note_on_c, 8, 88, 110
1, 33482, Note_on_c, 8, 80, 110
1, 33482, Note_on_c, 8, 80, 110
1, 33482, Note_on_c, 8, 80, 110
1, 33482, Note_on_c, 8, 80, 110
1, 33482, Note_on_c, 8, 68, 110
1, 33482, Note_on_c, 8, 68, 110
1, 33488, Note_on_c, 7, 71, 111
1, 33488, Note_on_c, 7, 59, 111
1, 33494, Note_on_c, 7, 75, 111
1, 33494, Note_on_c, 7, 63, 111
1, 33496, Note_on_c, 6, 47, 0
1, 33497, Note_on_c, 6, 47, 110
1, 33499, Note_on_c, 7, 76, 111
1, 33499, Note_on_c, 7, 64, 111
1, 33510, Note_on_c, 6, 47, 0
1, 33512, Note_on_c, 6, 47, 110
1, 33526, Note_on_c, 6, 47, 0
1, 33527, Note_on_c, 6, 47, 110
1, 33540, Note_on_c, 6, 47, 0
1, 33542, Note_on_c, 6, 47, 110
1, 33556, Note_on_c, 6, 47, 0
1, 33557, Note_on_c, 6, 47, 110
1, 33570, Note_on_c, 6, 47, 0
1, 33572, Note_on_c, 6, 47, 110
1, 33586, Note_on_c, 6, 47, 0
1, 33587, Note_on_c, 6, 47, 110
1, 33600, Note_on_c, 6, 47, 0
1, 33602, Note_on_c, 0, 88, 0
1, 33602, Note_on_c, 0, 88, 0
1, 33602, Note_on_c, 1, 80, 0
1, 33602, Note_on_c, 2, 87, 0
1, 33602, Note_on_c, 2, 83, 0
1, 33602, Note_on_c, 4, 63, 0
1, 33602, Note_on_c, 4, 59, 0
1, 33602, Note_on_c, 4, 63, 0
1, 33602, Note_on_c, 4, 59, 0
1, 33602, Note_on_c, 4, 63, 0
1, 33602, Note_on_c, 5, 71, 0
1, 33602, Control_c, 8, 0, 0
1, 33602, Control_c, 8, 32, 0
1, 33602, Program_c, 8, 48
1, 33602, Note_on_c, 8, 80, 0
1, 33602, Note_on_c, 8, 80, 0
1, 33602, Note_on_c, 8, 88, 0
1, 33602, Control_c, 8, 0, 0
1, 33602, Control_c, 8, 32, 0
1, 33602, Program_c, 8, 49
1, 33602, Note_on_c, 8, 88, 0
1, 33602, Note_on_c, 8, 80, 0
1, 33602, Note_on_c, 8, 80, 0
1, 33602, Note_on_c, 8, 80, 0
1, 33602, Note_on_c, 8, 80, 0
1, 33602, Note_on_c, 8, 68, 0
1, 33602, Note_on_c, 8, 68, 0
1, 33602, Note_on_c, 6, 47, 110
1, 33616, Note_on_c, 6, 47, 0
1, 33617, Note_on_c, 6, 47, 110
1, 33630, Note_on_c, 6, 47, 0
1, 33632, Note_on_c, 6, 47, 110
1, 33636, Note_on_c, 5, 76, 0
1, 33636, Note_on_c, 5, 76, 0
1, 33636, Note_on_c, 5, 52, 0
1, 33636, Note_on_c, 5, 64, 0
1, 33636, Note_on_c, 5, 64, 0
1, 33636, Note_on_c, 7, 68, 0
1, 33636, Note_on_c, 7, 56, 0
1, 33642, Note_on_c, 7, 71, 0
1, 33642, Note_on_c, 7, 59, 0
1, 33646, Note_on_c, 6, 47, 0
1, 33647, Note_on_c, 7, 75, 0
1, 33647, Note_on_c, 7, 63, 0
1, 33647, Control_c, 6, 73, 0
1, 33653, Note_on_c, 7, 76, 0
1, 33653, Note_on_c, 7, 64, 0
1, 33662, Note_on_c, 3, 47, 0
1, 33662, Note_on_c, 5, 47, 0
1, 33662, Note_on_c, 8, 35, 0
1, 33662, Note_on_c, 8, 35, 0
1, 33662, Note_on_c, 0, 87, 120
1, 33662, Note_on_c, 0, 87, 120
1, 33662, Note_on_c, 1, 78, 120
1, 33662, Note_on_c, 2, 83, 120
1, 33662, Note_on_c, 2, 80, 120
1, 33662, Note_on_c, 3, 42, 120
1, 33662, Note_on_c, 4, 59, 120
1, 33662, Note_on_c, 4, 56, 120
1, 33662, Note_on_c, 4, 59, 120
1, 33662, Note_on_c, 4, 56, 120
1, 33662, Note_on_c, 4, 59, 120
1, 33662, Note_on_c, 5, 71, 120
1, 33662, Note_on_c, 5, 75, 120
1, 33662, Note_on_c, 5, 75, 120
1, 33662, Note_on_c, 5, 51, 120
1, 33662, Note_on_c, 5, 63, 120
1, 33662, Note_on_c, 5, 63, 120
1, 33662, Note_on_c, 5, 42, 120
1, 33662, Control_c, 6, 73, 86
1, 33662, Note_on_c, 6, 42, 110
1, 33662, Note_on_c, 6, 42, 110
1, 33662, Note_on_c, 7, 66, 109
1, 33662, Note_on_c, 7, 54, 109
1, 33662, Control_c, 8, 0, 0
1, 33662, Control_c, 8, 32, 0
1, 33662, Program_c, 8, 48
1, 33662, Note_on_c, 8, 78, 110
1, 33662, Note_on_c, 8, 80, 110
1, 33662, Note_on_c, 8, 87, 110
1, 33662, Control_c, 8, 0, 0
1, 33662, Control_c, 8, 32, 0
1, 33662, Program_c, 8, 49
1, 33662, Note_on_c, 8, 87, 110
1, 33662, Note_on_c, 8, 78, 110
1, 33662, Note_on_c, 8, 80, 110
1, 33662, Note_on_c, 8, 82, 110
1, 33662, Note_on_c, 8, 82, 110
1, 33662, Note_on_c, 8, 70, 110
1, 33662, Note_on_c, 8, 70, 110
1, 33662, Note_on_c, 8, 30, 120
1, 33662, Note_on_c, 8, 30, 120
1, 33668, Note_on_c, 7, 68, 109
1, 33668, Note_on_c, 7, 56, 109
1, 33674, Note_on_c, 7, 71, 109
1, 33674, Note_on_c, 7, 59, 109
1, 33676, Note_on_c, 6, 42, 0
1, 33676, Note_on_c, 6, 42, 0
1, 33677, Note_on_c, 6, 42, 110
1, 33679, Note_on_c, 7, 75, 109
1, 33679, Note_on_c, 7, 63, 109
1, 33690, Note_on_c, 6, 42, 0
1, 33692, Note_on_c, 6, 42, 110
1, 33706, Note_on_c, 6, 42, 0
1, 33707, Note_on_c, 6, 42, 110
1, 33720, Note_on_c, 6, 42, 0
1, 33722, Note_on_c, 6, 42, 110
1, 33736, Note_on_c, 6, 42, 0
1, 33737, Note_on_c, 6, 42, 110
1, 33750, Note_on_c, 6, 42, 0
1, 33752, Note_on_c, 6, 42, 110
1, 33766, Note_on_c, 6, 42, 0
1, 33767, Note_on_c, 6, 42, 110
1, 33780, Note_on_c, 6, 42, 0
1, 33782, Note_on_c, 0, 87, 0
1, 33782, Note_on_c, 0, 87, 0
1, 33782, Note_on_c, 1, 78, 0
1, 33782, Note_on_c, 2, 83, 0
1, 33782, Note_on_c, 2, 80, 0
1, 33782, Note_on_c, 4, 59, 0
1, 33782, Note_on_c, 4, 56, 0
1, 33782, Note_on_c, 4, 59, 0
1, 33782, Note_on_c, 4, 56, 0
1, 33782, Note_on_c, 4, 59, 0
1, 33782, Note_on_c, 5, 71, 0
1, 33782, Control_c, 8, 0, 0
1, 33782, Control_c, 8, 32, 0
1, 33782, Program_c, 8, 48
1, 33782, Note_on_c, 8, 78, 0
1, 33782, Note_on_c, 8, 80, 0
1, 33782, Note_on_c, 8, 87, 0
1, 33782, Control_c, 8, 0, 0
1, 33782, Control_c, 8, 32, 0
1, 33782, Program_c, 8, 49
1, 33782, Note_on_c, 8, 87, 0
1, 33782, Note_on_c, 8, 78, 0
1, 33782, Note_on_c, 8, 80, 0
1, 33782, Note_on_c, 8, 82, 0
1, 33782, Note_on_c, 8, 82, 0
1, 33782, Note_on_c, 8, 70, 0
1, 33782, Note_on_c, 8, 70, 0
1, 33782, Note_on_c, 6, 42, 110
1, 33796, Note_on_c, 6, 42, 0
1, 33797, Note_on_c, 6, 42, 110
1, 33810, Note_on_c, 6, 42, 0
1, 33812, Note_on_c, 6, 42, 110
1, 33816, Note_on_c, 5, 75, 0
1, 33816, Note_on_c, 5, 75, 0
1, 33816, Note_on_c, 5, 51, 0
1, 33816, Note_on_c, 5, 63, 0
1, 33816, Note_on_c, 5, 63, 0
1, 33816, Note_on_c, 7, 66, 0
1, 33816, Note_on_c, 7, 54, 0
1, 33822, Note_on_c, 7, 68, 0
1, 33822, Note_on_c, 7, 56, 0
1, 33826, Note_on_c, 6, 42, 0
1, 33827, Note_on_c, 7, 71, 0
1, 33827, Note_on_c, 7, 59, 0
1, 33827, Note_on_c, 6, 42, 110
1, 33833, Note_on_c, 7, 75, 0
1, 33833, Note_on_c, 7, 63, 0
1, 33840, Note_on_c, 6, 42, 0
1, 33842, Note_on_c, 0, 83, 120
1, 33842, Note_on_c, 0, 83, 120
1, 33842, Note_on_c, 1, 75, 120
1, 33842, Note_on_c, 2, 80, 120
1, 33842, Note_on_c, 2, 76, 120
1, 33842, Note_on_c, 4, 56, 120
1, 33842, Note_on_c, 4, 52, 120
1, 33842, Note_on_c, 4, 56, 120
1, 33842, Note_on_c, 4, 52, 120
1, 33842, Note_on_c, 4, 56, 120
1, 33842, Note_on_c, 5, 64, 120
1, 33842, Note_on_c, 5, 71, 120
1, 33842, Note_on_c, 5, 71, 120
1, 33842, Note_on_c, 5, 47, 120
1, 33842, Note_on_c, 5, 59, 120
1, 33842, Note_on_c, 5, 59, 120
1, 33842, Note_on_c, 6, 42, 110
1, 33842, Note_on_c, 7, 63, 103
1, 33842, Note_on_c, 7, 51, 103
1, 33842, Control_c, 8, 0, 0
1, 33842, Control_c, 8, 32, 0
1, 33842, Program_c, 8, 48
1, 33842, Note_on_c, 8, 75, 110
1, 33842, Note_on_c, 8, 83, 110
1, 33842, Note_on_c, 8, 83, 110
1, 33842, Control_c, 8, 0, 0
1, 33842, Control_c, 8, 32, 0
1, 33842, Program_c, 8, 49
1, 33842, Note_on_c, 8, 83, 110
1, 33842, Note_on_c, 8, 75, 110
1, 33842, Note_on_c, 8, 83, 110
1, 33842, Note_on_c, 8, 83, 110
1, 33842, Note_on_c, 8, 83, 110
1, 33842, Note_on_c, 8, 71, 110
1, 33842, Note_on_c, 8, 71, 110
1, 33848, Note_on_c, 7, 64, 103
1, 33848, Note_on_c, 7, 52, 103
1, 33854, Note_on_c, 7, 68, 103
1, 33854, Note_on_c, 7, 56, 103
1, 33856, Note_on_c, 6, 42, 0
1, 33857, Note_on_c, 6, 42, 110
1, 33859, Note_on_c, 7, 71, 103
1, 33859, Note_on_c, 7, 59, 103
1, 33870, Note_on_c, 6, 42, 0
1, 33872, Note_on_c, 6, 42, 110
1, 33886, Note_on_c, 6, 42, 0
1, 33887, Note_on_c, 6, 42, 110
1, 33900, Note_on_c, 6, 42, 0
1, 33902, Note_on_c, 6, 42, 110
1, 33916, Note_on_c, 6, 42, 0
1, 33917, Note_on_c, 6, 42, 110
1, 33930, Note_on_c, 6, 42, 0
1, 33932, Note_on_c, 6, 42, 110
1, 33946, Note_on_c, 6, 42, 0
1, 33947, Note_on_c, 6, 42, 110
1, 33960, Note_on_c, 6, 42, 0
1, 33962, Note_on_c, 0, 83, 0
1, 33962, Note_on_c, 0, 83, 0
1, 33962, Note_on_c, 1, 75, 0
1, 33962, Note_on_c, 2, 80, 0
1, 33962, Note_on_c, 2, 76, 0
1, 33962, Note_on_c, 4, 56, 0
1, 33962, Note_on_c, 4, 52, 0
1, 33962, Note_on_c, 4, 56, 0
1, 33962, Note_on_c, 4, 52, 0
1, 33962, Note_on_c, 4, 56, 0
1, 33962, Note_on_c, 5, 64, 0
1, 33962, Control_c, 8, 0, 0
1, 33962, Control_c, 8, 32, 0
1, 33962, Program_c, 8, 48
1, 33962, Note_on_c, 8, 75, 0
1, 33962, Note_on_c, 8, 83, 0
1, 33962, Note_on_c, 8, 83, 0
1, 33962, Control_c, 8, 0, 0
1, 33962, Control_c, 8, 32, 0
1, 33962, Program_c, 8, 49
1, 33962, Note_on_c, 8, 83, 0
1, 33962, Note_on_c, 8, 75, 0
1, 33962, Note_on_c, 8, 83, 0
1, 33962, Note_on_c, 8, 83, 0
1, 33962, Note_on_c, 8, 83, 0
1, 33962, Note_on_c, 8, 71, 0
1, 33962, Note_on_c, 8, 71, 0
1, 33962, Note_on_c, 6, 42, 110
1, 33976, Note_on_c, 6, 42, 0
1, 33977, Note_on_c, 6, 42, 110
1, 33990, Note_on_c, 6, 42, 0
1, 33992, Note_on_c, 6, 42, 110
1, 33996, Note_on_c, 5, 71, 0
1, 33996, Note_on_c, 5, 71, 0
1, 33996, Note_on_c, 5, 47, 0
1, 33996, Note_on_c, 5, 59, 0
1, 33996, Note_on_c, 5, 59, 0
1, 33996, Note_on_c, 7, 63, 0
1, 33996, Note_on_c, 7, 51, 0
1, 34002, Note_on_c, 7, 64, 0
1, 34002, Note_on_c, 7, 52, 0
1, 34006, Note_on_c, 6, 42, 0
1, 34007, Note_on_c, 7, 68, 0
1, 34007, Note_on_c, 7, 56, 0
1, 34007, Note_on_c, 6, 42, 110
1, 34013, Note_on_c, 7, 71, 0
1, 34013, Note_on_c, 7, 59, 0
1, 34020, Note_on_c, 6, 42, 0
1, 34022, Note_on_c, 0, 85, 120
1, 34022, Note_on_c, 0, 85, 120
1, 34022, Note_on_c, 1, 76, 120
1, 34022, Note_on_c, 2, 83, 120
1, 34022, Note_on_c, 2, 80, 120
1, 34022, Note_on_c, 4, 59, 120
1, 34022, Note_on_c, 4, 56, 120
1, 34022, Note_on_c, 4, 59, 120
1, 34022, Note_on_c, 4, 56, 120
1, 34022, Note_on_c, 4, 59, 120
1, 34022, Note_on_c, 5, 71, 120
1, 34022, Note_on_c, 5, 73, 120
1, 34022, Note_on_c, 5, 73, 120
1, 34022, Note_on_c, 5, 49, 120
1, 34022, Note_on_c, 5, 61, 120
1, 34022, Note_on_c, 5, 61, 120
1, 34022, Note_on_c, 6, 42, 110
1, 34022, Note_on_c, 7, 64, 102
1, 34022, Note_on_c, 7, 52, 102
1, 34022, Control_c, 8, 0, 0
1, 34022, Control_c, 8, 32, 0
1, 34022, Program_c, 8, 48
1, 34022, Note_on_c, 8, 76, 110
1, 34022, Note_on_c, 8, 83, 110
1, 34022, Note_on_c, 8, 85, 110
1, 34022, Control_c, 8, 0, 0
1, 34022, Control_c, 8, 32, 0
1, 34022, Program_c, 8, 49
1, 34022, Note_on_c, 8, 85, 110
1, 34022, Note_on_c, 8, 76, 110
1, 34022, Note_on_c, 8, 83, 110
1, 34022, Note_on_c, 8, 85, 110
1, 34022, Note_on_c, 8, 85, 110
1, 34022, Note_on_c, 8, 73, 110
1, 34022, Note_on_c, 8, 73, 110
1, 34028, Note_on_c, 7, 68, 102
1, 34028, Note_on_c, 7, 56, 102
1, 34034, Note_on_c, 7, 71, 102
1, 34034, Note_on_c, 7, 59, 102
1, 34036, Note_on_c, 6, 42, 0
1, 34037, Note_on_c, 6, 42, 110
1, 34039, Note_on_c, 7, 73, 102
1, 34039, Note_on_c, 7, 61, 102
1, 34050, Note_on_c, 6, 42, 0
1, 34052, Note_on_c, 6, 42, 110
1, 34066, Note_on_c, 6, 42, 0
1, 34067, Note_on_c, 6, 42, 110
1, 34080, Note_on_c, 6, 42, 0
1, 34082, Note_on_c, 6, 42, 110
1, 34096, Note_on_c, 6, 42, 0
1, 34097, Note_on_c, 6, 42, 110
1, 34110, Note_on_c, 6, 42, 0
1, 34112, Note_on_c, 6, 42, 110
1, 34126, Note_on_c, 6, 42, 0
1, 34127, Note_on_c, 6, 42, 110
1, 34140, Note_on_c, 6, 42, 0
1, 34142, Note_on_c, 0, 85, 0
1, 34142, Note_on_c, 0, 85, 0
1, 34142, Note_on_c, 1, 76, 0
1, 34142, Note_on_c, 2, 83, 0
1, 34142, Note_on_c, 2, 80, 0
1, 34142, Note_on_c, 4, 59, 0
1, 34142, Note_on_c, 4, 56, 0
1, 34142, Note_on_c, 4, 59, 0
1, 34142, Note_on_c, 4, 56, 0
1, 34142, Note_on_c, 4, 59, 0
1, 34142, Note_on_c, 5, 71, 0
1, 34142, Control_c, 8, 0, 0
1, 34142, Control_c, 8, 32, 0
1, 34142, Program_c, 8, 48
1, 34142, Note_on_c, 8, 76, 0
1, 34142, Note_on_c, 8, 83, 0
1, 34142, Note_on_c, 8, 85, 0
1, 34142, Control_c, 8, 0, 0
1, 34142, Control_c, 8, 32, 0
1, 34142, Program_c, 8, 49
1, 34142, Note_on_c, 8, 85, 0
1, 34142, Note_on_c, 8, 76, 0
1, 34142, Note_on_c, 8, 83, 0
1, 34142, Note_on_c, 8, 85, 0
1, 34142, Note_on_c, 8, 85, 0
1, 34142, Note_on_c, 8, 73, 0
1, 34142, Note_on_c, 8, 73, 0
1, 34142, Note_on_c, 6, 42, 110
1, 34156, Note_on_c, 6, 42, 0
1, 34157, Note_on_c, 6, 42, 110
1, 34170, Note_on_c, 6, 42, 0
1, 34172, Note_on_c, 6, 42, 110
1, 34176, Note_on_c, 5, 73, 0
1, 34176, Note_on_c, 5, 73, 0
1, 34176, Note_on_c, 5, 49, 0
1, 34176, Note_on_c, 5, 61, 0
1, 34176, Note_on_c, 5, 61, 0
1, 34176, Note_on_c, 7, 64, 0
1, 34176, Note_on_c, 7, 52, 0
1, 34182, Note_on_c, 7, 68, 0
1, 34182, Note_on_c, 7, 56, 0
1, 34186, Note_on_c, 6, 42, 0
1, 34187, Note_on_c, 7, 71, 0
1, 34187, Note_on_c, 7, 59, 0
1, 34187, Control_c, 6, 73, 0
1, 34193, Note_on_c, 7, 61, 0
1, 34198, Note_on_c, 3, 42, 0
1, 34198, Note_on_c, 5, 42, 0
1, 34198, Note_on_c, 8, 30, 0
1, 34198, Note_on_c, 8, 30, 0
1, 34202, Note_on_c, 3, 47, 120
1, 34202, Note_on_c, 5, 47, 120
1, 34202, Control_c, 6, 73, 86
1, 34202, Note_on_c, 6, 47, 127
1, 34202, Note_on_c, 6, 47, 127
1, 34202, Note_on_c, 9, 35, 120
1, 34202, Note_on_c, 9, 29, 120
1, 34202, Note_on_c, 8, 35, 120
1, 34202, Note_on_c, 8, 35, 120
1, 34204, Note_on_c, 7, 73, 0
1, 34216, Note_on_c, 6, 47, 0
1, 34216, Note_on_c, 6, 47, 0
1, 34217, Note_on_c, 6, 47, 110
1, 34230, Note_on_c, 6, 47, 0
1, 34232, Note_on_c, 6, 47, 110
1, 34246, Note_on_c, 6, 47, 0
1, 34247, Note_on_c, 6, 47, 110
1, 34260, Note_on_c, 6, 47, 0
1, 34262, Note_on_c, 9, 35, 0
1, 34262, Note_on_c, 9, 29, 0
1, 34262, Note_on_c, 6, 47, 110
1, 34276, Note_on_c, 6, 47, 0
1, 34277, Note_on_c, 6, 47, 110
1, 34290, Note_on_c, 6, 47, 0
1, 34292, Note_on_c, 6, 47, 110
1, 34306, Note_on_c, 6, 47, 0
1, 34307, Note_on_c, 6, 47, 110
1, 34320, Note_on_c, 6, 47, 0
1, 34322, Note_on_c, 6, 47, 110
1, 34336, Note_on_c, 6, 47, 0
1, 34337, Note_on_c, 6, 47, 110
1, 34350, Note_on_c, 6, 47, 0
1, 34352, Note_on_c, 6, 47, 110
1, 34366, Note_on_c, 6, 47, 0
1, 34367, Note_on_c, 6, 47, 110
1, 34380, Note_on_c, 6, 47, 0
1, 34382, Note_on_c, 0, 90, 120
1, 34382, Note_on_c, 0, 90, 120
1, 34382, Note_on_c, 1, 82, 120
1, 34382, Note_on_c, 2, 87, 120
1, 34382, Note_on_c, 2, 83, 120
1, 34382, Note_on_c, 4, 63, 120
1, 34382, Note_on_c, 4, 59, 120
1, 34382, Note_on_c, 4, 63, 120
1, 34382, Note_on_c, 4, 59, 120
1, 34382, Note_on_c, 4, 63, 120
1, 34382, Note_on_c, 5, 71, 120
1, 34382, Note_on_c, 5, 78, 120
1, 34382, Note_on_c, 5, 78, 120
1, 34382, Note_on_c, 5, 54, 120
1, 34382, Note_on_c, 5, 66, 120
1, 34382, Note_on_c, 5, 66, 120
1, 34382, Note_on_c, 6, 47, 110
1, 34382, Note_on_c, 7, 70, 100
1, 34382, Note_on_c, 7, 58, 100
1, 34382, Control_c, 8, 0, 0
1, 34382, Control_c, 8, 32, 0
1, 34382, Program_c, 8, 48
1, 34382, Note_on_c, 8, 83, 110
1, 34382, Note_on_c, 8, 87, 110
1, 34382, Note_on_c, 8, 90, 110
1, 34382, Control_c, 8, 0, 0
1, 34382, Control_c, 8, 32, 0
1, 34382, Program_c, 8, 49
1, 34382, Note_on_c, 8, 90, 110
1, 34382, Note_on_c, 8, 83, 110
1, 34382, Note_on_c, 8, 87, 110
1, 34382, Note_on_c, 8, 71, 110
1, 34382, Note_on_c, 8, 71, 110
1, 34382, Note_on_c, 8, 59, 110
1, 34382, Note_on_c, 8, 59, 110
1, 34388, Note_on_c, 7, 71, 100
1, 34388, Note_on_c, 7, 59, 100
1, 34394, Note_on_c, 7, 75, 100
1, 34394, Note_on_c, 7, 63, 100
1, 34396, Note_on_c, 6, 47, 0
1, 34397, Note_on_c, 6, 47, 110
1, 34399, Note_on_c, 7, 78, 100
1, 34399, Note_on_c, 7, 66, 100
1, 34410, Note_on_c, 6, 47, 0
1, 34412, Note_on_c, 6, 47, 110
1, 34426, Note_on_c, 6, 47, 0
1, 34427, Note_on_c, 6, 47, 110
1, 34440, Note_on_c, 6, 47, 0
1, 34442, Note_on_c, 6, 47, 110
1, 34456, Note_on_c, 6, 47, 0
1, 34457, Note_on_c, 6, 47, 110
1, 34470, Note_on_c, 6, 47, 0
1, 34472, Note_on_c, 6, 47, 110
1, 34486, Note_on_c, 6, 47, 0
1, 34487, Note_on_c, 6, 47, 110
1, 34500, Note_on_c, 6, 47, 0
1, 34502, Note_on_c, 0, 90, 0
1, 34502, Note_on_c, 0, 90, 0
1, 34502, Note_on_c, 1, 82, 0
1, 34502, Note_on_c, 2, 87, 0
1, 34502, Note_on_c, 2, 83, 0
1, 34502, Note_on_c, 4, 63, 0
1, 34502, Note_on_c, 4, 59, 0
1, 34502, Note_on_c, 4, 63, 0
1, 34502, Note_on_c, 4, 59, 0
1, 34502, Note_on_c, 4, 63, 0
1, 34502, Note_on_c, 5, 71, 0
1, 34502, Control_c, 8, 0, 0
1, 34502, Control_c, 8, 32, 0
1, 34502, Program_c, 8, 48
1, 34502, Note_on_c, 8, 83, 0
1, 34502, Note_on_c, 8, 87, 0
1, 34502, Note_on_c, 8, 90, 0
1, 34502, Control_c, 8, 0, 0
1, 34502, Control_c, 8, 32, 0
1, 34502, Program_c, 8, 49
1, 34502, Note_on_c, 8, 90, 0
1, 34502, Note_on_c, 8, 83, 0
1, 34502, Note_on_c, 8, 87, 0
1, 34502, Note_on_c, 8, 71, 0
1, 34502, Note_on_c, 8, 71, 0
1, 34502, Note_on_c, 8, 59, 0
1, 34502, Note_on_c, 8, 59, 0
1, 34502, Note_on_c, 6, 47, 110
1, 34516, Note_on_c, 6, 47, 0
1, 34517, Note_on_c, 6, 47, 110
1, 34530, Note_on_c, 6, 47, 0
1, 34532, Note_on_c, 6, 47, 110
1, 34536, Note_on_c, 5, 78, 0
1, 34536, Note_on_c, 5, 78, 0
1, 34536, Note_on_c, 5, 54, 0
1, 34536, Note_on_c, 5, 66, 0
1, 34536, Note_on_c, 5, 66, 0
1, 34536, Note_on_c, 7, 70, 0
1, 34536, Note_on_c, 7, 58, 0
1, 34542, Note_on_c, 7, 71, 0
1, 34542, Note_on_c, 7, 59, 0
1, 34546, Note_on_c, 6, 47, 0
1, 34547, Note_on_c, 7, 75, 0
1, 34547, Note_on_c, 7, 63, 0
1, 34547, Note_on_c, 6, 47, 110
1, 34553, Note_on_c, 7, 78, 0
1, 34553, Note_on_c, 7, 66, 0
1, 34560, Note_on_c, 6, 47, 0
1, 34562, Note_on_c, 0, 88, 120
1, 34562, Note_on_c, 0, 88, 120
1, 34562, Note_on_c, 1, 80, 120
1, 34562, Note_on_c, 2, 87, 120
1, 34562, Note_on_c, 2, 83, 120
1, 34562, Note_on_c, 4, 63, 120
1, 34562, Note_on_c, 4, 59, 120
1, 34562, Note_on_c, 4, 63, 120
1, 34562, Note_on_c, 4, 59, 120
1, 34562, Note_on_c, 4, 63, 120
1, 34562, Note_on_c, 5, 71, 120
1, 34562, Note_on_c, 5, 76, 120
1, 34562, Note_on_c, 5, 76, 120
1, 34562, Note_on_c, 5, 52, 120
1, 34562, Note_on_c, 5, 64, 120
1, 34562, Note_on_c, 5, 64, 120
1, 34562, Note_on_c, 6, 47, 110
1, 34562, Note_on_c, 7, 68, 105
1, 34562, Note_on_c, 7, 56, 105
1, 34562, Control_c, 8, 0, 0
1, 34562, Control_c, 8, 32, 0
1, 34562, Program_c, 8, 48
1, 34562, Note_on_c, 8, 80, 110
1, 34562, Note_on_c, 8, 87, 110
1, 34562, Note_on_c, 8, 88, 110
1, 34562, Control_c, 8, 0, 0
1, 34562, Control_c, 8, 32, 0
1, 34562, Program_c, 8, 49
1, 34562, Note_on_c, 8, 88, 110
1, 34562, Note_on_c, 8, 80, 110
1, 34562, Note_on_c, 8, 87, 110
1, 34562, Note_on_c, 8, 73, 110
1, 34562, Note_on_c, 8, 73, 110
1, 34562, Note_on_c, 8, 61, 110
1, 34562, Note_on_c, 8, 61, 110
1, 34568, Note_on_c, 7, 71, 105
1, 34568, Note_on_c, 7, 59, 105
1, 34574, Note_on_c, 7, 75, 105
1, 34574, Note_on_c, 7, 63, 105
1, 34576, Note_on_c, 6, 47, 0
1, 34577, Note_on_c, 6, 47, 110
1, 34579, Note_on_c, 7, 76, 105
1, 34579, Note_on_c, 7, 64, 105
1, 34590, Note_on_c, 6, 47, 0
1, 34592, Note_on_c, 6, 47, 110
1, 34606, Note_on_c, 6, 47, 0
1, 34607, Note_on_c, 6, 47, 110
1, 34620, Note_on_c, 6, 47, 0
1, 34622, Note_on_c, 6, 47, 110
1, 34636, Note_on_c, 6, 47, 0
1, 34637, Note_on_c, 6, 47, 110
1, 34650, Note_on_c, 6, 47, 0
1, 34652, Note_on_c, 6, 47, 110
1, 34666, Note_on_c, 6, 47, 0
1, 34667, Note_on_c, 6, 47, 110
1, 34680, Note_on_c, 6, 47, 0
1, 34682, Note_on_c, 0, 88, 0
1, 34682, Note_on_c, 0, 88, 0
1, 34682, Note_on_c, 1, 80, 0
1, 34682, Note_on_c, 2, 87, 0
1, 34682, Note_on_c, 2, 83, 0
1, 34682, Note_on_c, 4, 63, 0
1, 34682, Note_on_c, 4, 59, 0
1, 34682, Note_on_c, 4, 63, 0
1, 34682, Note_on_c, 4, 59, 0
1, 34682, Note_on_c, 4, 63, 0
1, 34682, Note_on_c, 5, 71, 0
1, 34682, Control_c, 8, 0, 0
1, 34682, Control_c, 8, 32, 0
1, 34682, Program_c, 8, 48
1, 34682, Note_on_c, 8, 80, 0
1, 34682, Note_on_c, 8, 87, 0
1, 34682, Note_on_c, 8, 88, 0
1, 34682, Control_c, 8, 0, 0
1, 34682, Control_c, 8, 32, 0
1, 34682, Program_c, 8, 49
1, 34682, Note_on_c, 8, 88, 0
1, 34682, Note_on_c, 8, 80, 0
1, 34682, Note_on_c, 8, 87, 0
1, 34682, Note_on_c, 8, 73, 0
1, 34682, Note_on_c, 8, 73, 0
1, 34682, Note_on_c, 8, 61, 0
1, 34682, Note_on_c, 8, 61, 0
1, 34682, Note_on_c, 6, 47, 110
1, 34696, Note_on_c, 6, 47, 0
1, 34697, Note_on_c, 6, 47, 110
1, 34710, Note_on_c, 6, 47, 0
1, 34712, Note_on_c, 6, 47, 110
1, 34716, Note_on_c, 5, 76, 0
1, 34716, Note_on_c, 5, 76, 0
1, 34716, Note_on_c, 5, 52, 0
1, 34716, Note_on_c, 5, 64, 0
1, 34716, Note_on_c, 5, 64, 0
1, 34716, Note_on_c, 7, 68, 0
1, 34716, Note_on_c, 7, 56, 0
1, 34722, Note_on_c, 7, 71, 0
1, 34722, Note_on_c, 7, 59, 0
1, 34726, Note_on_c, 6, 47, 0
1, 34727, Note_on_c, 7, 75, 0
1, 34727, Note_on_c, 7, 63, 0
1, 34727, Control_c, 6, 73, 0
1, 34733, Note_on_c, 7, 76, 0
1, 34733, Note_on_c, 7, 64, 0
1, 34738, Note_on_c, 3, 47, 0
1, 34738, Note_on_c, 5, 47, 0
1, 34738, Note_on_c, 8, 35, 0
1, 34738, Note_on_c, 8, 35, 0
1, 34742, Note_on_c, 0, 87, 120
1, 34742, Note_on_c, 0, 87, 120
1, 34742, Note_on_c, 1, 78, 120
1, 34742, Note_on_c, 2, 83, 120
1, 34742, Note_on_c, 2, 80, 120
1, 34742, Note_on_c, 3, 42, 120
1, 34742, Note_on_c, 4, 59, 120
1, 34742, Note_on_c, 4, 56, 120
1, 34742, Note_on_c, 4, 59, 120
1, 34742, Note_on_c, 4, 56, 120
1, 34742, Note_on_c, 4, 59, 120
1, 34742, Note_on_c, 5, 71, 120
1, 34742, Note_on_c, 5, 75, 120
1, 34742, Note_on_c, 5, 75, 120
1, 34742, Note_on_c, 5, 51, 120
1, 34742, Note_on_c, 5, 63, 120
1, 34742, Note_on_c, 5, 63, 120
1, 34742, Note_on_c, 5, 42, 120
1, 34742, Control_c, 6, 73, 86
1, 34742, Note_on_c, 6, 42, 127
1, 34742, Note_on_c, 6, 42, 127
1, 34742, Note_on_c, 7, 66, 109
1, 34742, Note_on_c, 7, 54, 109
1, 34742, Control_c, 8, 0, 0
1, 34742, Control_c, 8, 32, 0
1, 34742, Program_c, 8, 48
1, 34742, Note_on_c, 8, 78, 110
1, 34742, Note_on_c, 8, 83, 110
1, 34742, Note_on_c, 8, 87, 110
1, 34742, Control_c, 8, 0, 0
1, 34742, Control_c, 8, 32, 0
1, 34742, Program_c, 8, 49
1, 34742, Note_on_c, 8, 87, 110
1, 34742, Note_on_c, 8, 78, 110
1, 34742, Note_on_c, 8, 83, 110
1, 34742, Note_on_c, 8, 75, 110
1, 34742, Note_on_c, 8, 75, 110
1, 34742, Note_on_c, 8, 63, 110
1, 34742, Note_on_c, 8, 63, 110
1, 34742, Note_on_c, 8, 30, 120
1, 34742, Note_on_c, 8, 30, 120
1, 34748, Note_on_c, 7, 68, 109
1, 34748, Note_on_c, 7, 56, 109
1, 34754, Note_on_c, 7, 71, 109
1, 34754, Note_on_c, 7, 59, 109
1, 34756, Note_on_c, 6, 42, 0
1, 34756, Note_on_c, 6, 42, 0
1, 34757, Note_on_c, 6, 42, 110
1, 34759, Note_on_c, 7, 75, 109
1, 34759, Note_on_c, 7, 63, 109
1, 34770, Note_on_c, 6, 42, 0
1, 34772, Note_on_c, 6, 42, 110
1, 34786, Note_on_c, 6, 42, 0
1, 34787, Note_on_c, 6, 42, 110
1, 34800, Note_on_c, 6, 42, 0
1, 34802, Note_on_c, 6, 42, 110
1, 34816, Note_on_c, 6, 42, 0
1, 34817, Note_on_c, 6, 42, 110
1, 34830, Note_on_c, 6, 42, 0
1, 34832, Note_on_c, 6, 42, 110
1, 34846, Note_on_c, 6, 42, 0
1, 34847, Note_on_c, 6, 42, 110
1, 34860, Note_on_c, 6, 42, 0
1, 34862, Note_on_c, 0, 87, 0
1, 34862, Note_on_c, 0, 87, 0
1, 34862, Note_on_c, 1, 78, 0
1, 34862, Note_on_c, 2, 83, 0
1, 34862, Note_on_c, 2, 80, 0
1, 34862, Note_on_c, 4, 59, 0
1, 34862, Note_on_c, 4, 56, 0
1, 34862, Note_on_c, 4, 59, 0
1, 34862, Note_on_c, 4, 56, 0
1, 34862, Note_on_c, 4, 59, 0
1, 34862, Note_on_c, 5, 71, 0
1, 34862, Control_c, 8, 0, 0
1, 34862, Control_c, 8, 32, 0
1, 34862, Program_c, 8, 48
1, 34862, Note_on_c, 8, 78, 0
1, 34862, Note_on_c, 8, 83, 0
1, 34862, Note_on_c, 8, 87, 0
1, 34862, Control_c, 8, 0, 0
1, 34862, Control_c, 8, 32, 0
1, 34862, Program_c, 8, 49
1, 34862, Note_on_c, 8, 87, 0
1, 34862, Note_on_c, 8, 78, 0
1, 34862, Note_on_c, 8, 83, 0
1, 34862, Note_on_c, 8, 75, 0
1, 34862, Note_on_c, 8, 75, 0
1, 34862, Note_on_c, 8, 63, 0
1, 34862, Note_on_c, 8, 63, 0
1, 34862, Note_on_c, 6, 42, 110
1, 34876, Note_on_c, 6, 42, 0
1, 34877, Note_on_c, 6, 42, 110
1, 34890, Note_on_c, 6, 42, 0
1, 34892, Note_on_c, 6, 42, 110
1, 34896, Note_on_c, 5, 75, 0
1, 34896, Note_on_c, 5, 75, 0
1, 34896, Note_on_c, 5, 51, 0
1, 34896, Note_on_c, 5, 63, 0
1, 34896, Note_on_c, 5, 63, 0
1, 34896, Note_on_c, 7, 66, 0
1, 34896, Note_on_c, 7, 54, 0
1, 34902, Note_on_c, 7, 68, 0
1, 34902, Note_on_c, 7, 56, 0
1, 34906, Note_on_c, 6, 42, 0
1, 34907, Note_on_c, 7, 71, 0
1, 34907, Note_on_c, 7, 59, 0
1, 34907, Note_on_c, 6, 42, 110
1, 34913, Note_on_c, 7, 75, 0
1, 34913, Note_on_c, 7, 63, 0
1, 34920, Note_on_c, 6, 42, 0
1, 34922, Note_on_c, 0, 90, 120
1, 34922, Note_on_c, 0, 90, 120
1, 34922, Note_on_c, 1, 82, 120
1, 34922, Note_on_c, 2, 87, 120
1, 34922, Note_on_c, 2, 83, 120
1, 34922, Note_on_c, 4, 63, 120
1, 34922, Note_on_c, 4, 59, 120
1, 34922, Note_on_c, 4, 63, 120
1, 34922, Note_on_c, 4, 59, 120
1, 34922, Note_on_c, 4, 63, 120
1, 34922, Note_on_c, 5, 71, 120
1, 34922, Note_on_c, 5, 78, 120
1, 34922, Note_on_c, 5, 78, 120
1, 34922, Note_on_c, 5, 54, 120
1, 34922, Note_on_c, 5, 66, 120
1, 34922, Note_on_c, 5, 66, 120
1, 34922, Note_on_c, 6, 42, 110
1, 34922, Note_on_c, 7, 70, 112
1, 34922, Note_on_c, 7, 58, 112
1, 34922, Control_c, 8, 0, 0
1, 34922, Control_c, 8, 32, 0
1, 34922, Program_c, 8, 48
1, 34922, Note_on_c, 8, 82, 110
1, 34922, Note_on_c, 8, 83, 110
1, 34922, Note_on_c, 8, 90, 110
1, 34922, Control_c, 8, 0, 0
1, 34922, Control_c, 8, 32, 0
1, 34922, Program_c, 8, 49
1, 34922, Note_on_c, 8, 90, 110
1, 34922, Note_on_c, 8, 82, 110
1, 34922, Note_on_c, 8, 83, 110
1, 34922, Note_on_c, 8, 76, 110
1, 34922, Note_on_c, 8, 76, 110
1, 34922, Note_on_c, 8, 64, 110
1, 34922, Note_on_c, 8, 64, 110
1, 34928, Note_on_c, 7, 71, 112
1, 34928, Note_on_c, 7, 59, 112
1, 34934, Note_on_c, 7, 75, 112
1, 34934, Note_on_c, 7, 63, 112
1, 34936, Note_on_c, 6, 42, 0
1, 34937, Note_on_c, 6, 42, 110
1, 34939, Note_on_c, 7, 78, 112
1, 34939, Note_on_c, 7, 66, 112
1, 34950, Note_on_c, 6, 42, 0
1, 34952, Note_on_c, 6, 42, 110
1, 34966, Note_on_c, 6, 42, 0
1, 34967, Note_on_c, 6, 42, 110
1, 34980, Note_on_c, 6, 42, 0
1, 34982, Note_on_c, 6, 42, 110
1, 34996, Note_on_c, 6, 42, 0
1, 34997, Note_on_c, 6, 42, 110
1, 35010, Note_on_c, 6, 42, 0
1, 35012, Note_on_c, 6, 42, 110
1, 35026, Note_on_c, 6, 42, 0
1, 35027, Note_on_c, 6, 42, 110
1, 35040, Note_on_c, 6, 42, 0
1, 35042, Note_on_c, 0, 90, 0
1, 35042, Note_on_c, 0, 90, 0
1, 35042, Note_on_c, 1, 82, 0
1, 35042, Note_on_c, 2, 87, 0
1, 35042, Note_on_c, 2, 83, 0
1, 35042, Note_on_c, 4, 63, 0
1, 35042, Note_on_c, 4, 59, 0
1, 35042, Note_on_c, 4, 63, 0
1, 35042, Note_on_c, 4, 59, 0
1, 35042, Note_on_c, 4, 63, 0
1, 35042, Note_on_c, 5, 71, 0
1, 35042, Note_on_c, 5, 78, 0
1, 35042, Control_c, 8, 0, 0
1, 35042, Control_c, 8, 32, 0
1, 35042, Program_c, 8, 48
1, 35042, Note_on_c, 8, 82, 0
1, 35042, Note_on_c, 8, 83, 0
1, 35042, Note_on_c, 8, 90, 0
1, 35042, Control_c, 8, 0, 0
1, 35042, Control_c, 8, 32, 0
1, 35042, Program_c, 8, 49
1, 35042, Note_on_c, 8, 90, 0
1, 35042, Note_on_c, 8, 82, 0
1, 35042, Note_on_c, 8, 83, 0
1, 35042, Note_on_c, 8, 76, 0
1, 35042, Note_on_c, 8, 76, 0
1, 35042, Note_on_c, 8, 64, 0
1, 35042, Note_on_c, 8, 64, 0
1, 35042, Note_on_c, 6, 42, 110
1, 35056, Note_on_c, 6, 42, 0
1, 35057, Note_on_c, 6, 42, 110
1, 35070, Note_on_c, 6, 42, 0
1, 35072, Note_on_c, 6, 42, 110
1, 35076, Note_on_c, 5, 78, 0
1, 35076, Note_on_c, 5, 54, 0
1, 35076, Note_on_c, 5, 66, 0
1, 35076, Note_on_c, 5, 66, 0
1, 35076, Note_on_c, 7, 70, 0
1, 35076, Note_on_c, 7, 58, 0
1, 35082, Note_on_c, 7, 71, 0
1, 35082, Note_on_c, 7, 59, 0
1, 35086, Note_on_c, 6, 42, 0
1, 35087, Note_on_c, 7, 75, 0
1, 35087, Note_on_c, 7, 63, 0
1, 35087, Note_on_c, 6, 42, 110
1, 35093, Note_on_c, 7, 78, 0
1, 35093, Note_on_c, 7, 66, 0
1, 35100, Note_on_c, 6, 42, 0
1, 35102, Note_on_c, 0, 85, 120
1, 35102, Note_on_c, 0, 85, 120
1, 35102, Note_on_c, 1, 76, 120
1, 35102, Note_on_c, 2, 83, 120
1, 35102, Note_on_c, 2, 80, 120
1, 35102, Note_on_c, 4, 59, 120
1, 35102, Note_on_c, 4, 56, 120
1, 35102, Note_on_c, 4, 59, 120
1, 35102, Note_on_c, 4, 56, 120
1, 35102, Note_on_c, 4, 59, 120
1, 35102, Note_on_c, 5, 71, 120
1, 35102, Note_on_c, 5, 73, 120
1, 35102, Note_on_c, 5, 73, 120
1, 35102, Note_on_c, 5, 49, 120
1, 35102, Note_on_c, 5, 61, 120
1, 35102, Note_on_c, 5, 61, 120
1, 35102, Note_on_c, 6, 42, 110
1, 35102, Note_on_c, 7, 64, 112
1, 35102, Note_on_c, 7, 52, 112
1, 35102, Control_c, 8, 0, 0
1, 35102, Control_c, 8, 32, 0
1, 35102, Program_c, 8, 48
1, 35102, Note_on_c, 8, 76, 110
1, 35102, Note_on_c, 8, 80, 110
1, 35102, Note_on_c, 8, 85, 110
1, 35102, Control_c, 8, 0, 0
1, 35102, Control_c, 8, 32, 0
1, 35102, Program_c, 8, 49
1, 35102, Note_on_c, 8, 85, 110
1, 35102, Note_on_c, 8, 76, 110
1, 35102, Note_on_c, 8, 80, 110
1, 35102, Note_on_c, 8, 78, 110
1, 35102, Note_on_c, 8, 78, 110
1, 35102, Note_on_c, 8, 66, 110
1, 35102, Note_on_c, 8, 66, 110
1, 35108, Note_on_c, 7, 68, 112
1, 35108, Note_on_c, 7, 56, 112
1, 35114, Note_on_c, 7, 71, 112
1, 35114, Note_on_c, 7, 59, 112
1, 35116, Note_on_c, 6, 42, 0
1, 35117, Note_on_c, 6, 42, 110
1, 35119, Note_on_c, 7, 73, 112
1, 35119, Note_on_c, 7, 61, 112
1, 35130, Note_on_c, 6, 42, 0
1, 35132, Note_on_c, 6, 42, 110
1, 35146, Note_on_c, 6, 42, 0
1, 35147, Note_on_c, 6, 42, 110
1, 35160, Note_on_c, 6, 42, 0
1, 35162, Note_on_c, 6, 42, 110
1, 35176, Note_on_c, 6, 42, 0
1, 35177, Note_on_c, 6, 42, 110
1, 35190, Note_on_c, 6, 42, 0
1, 35192, Note_on_c, 6, 42, 110
1, 35206, Note_on_c, 6, 42, 0
1, 35207, Note_on_c, 6, 42, 110
1, 35220, Note_on_c, 6, 42, 0
1, 35222, Note_on_c, 0, 85, 0
1, 35222, Note_on_c, 0, 85, 0
1, 35222, Note_on_c, 1, 76, 0
1, 35222, Note_on_c, 2, 83, 0
1, 35222, Note_on_c, 2, 80, 0
1, 35222, Note_on_c, 4, 59, 0
1, 35222, Note_on_c, 4, 56, 0
1, 35222, Note_on_c, 4, 59, 0
1, 35222, Note_on_c, 4, 56, 0
1, 35222, Note_on_c, 4, 59, 0
1, 35222, Note_on_c, 5, 71, 0
1, 35222, Control_c, 8, 0, 0
1, 35222, Control_c, 8, 32, 0
1, 35222, Program_c, 8, 48
1, 35222, Note_on_c, 8, 76, 0
1, 35222, Note_on_c, 8, 80, 0
1, 35222, Note_on_c, 8, 85, 0
1, 35222, Control_c, 8, 0, 0
1, 35222, Control_c, 8, 32, 0
1, 35222, Program_c, 8, 49
1, 35222, Note_on_c, 8, 85, 0
1, 35222, Note_on_c, 8, 76, 0
1, 35222, Note_on_c, 8, 80, 0
1, 35222, Note_on_c, 8, 78, 0
1, 35222, Note_on_c, 8, 78, 0
1, 35222, Note_on_c, 8, 66, 0
1, 35222, Note_on_c, 8, 66, 0
1, 35222, Note_on_c, 6, 42, 110
1, 35236, Note_on_c, 6, 42, 0
1, 35237, Note_on_c, 6, 42, 110
1, 35250, Note_on_c, 6, 42, 0
1, 35252, Note_on_c, 6, 42, 110
1, 35256, Note_on_c, 5, 73, 0
1, 35256, Note_on_c, 5, 73, 0
1, 35256, Note_on_c, 5, 49, 0
1, 35256, Note_on_c, 5, 61, 0
1, 35256, Note_on_c, 5, 61, 0
1, 35256, Note_on_c, 7, 64, 0
1, 35256, Note_on_c, 7, 52, 0
1, 35262, Note_on_c, 7, 68, 0
1, 35262, Note_on_c, 7, 56, 0
1, 35266, Note_on_c, 6, 42, 0
1, 35267, Note_on_c, 7, 71, 0
1, 35267, Note_on_c, 7, 59, 0
1, 35267, Note_on_c, 6, 42, 110
1, 35273, Note_on_c, 7, 73, 0
1, 35273, Note_on_c, 7, 61, 0
1, 35280, Note_on_c, 6, 42, 0
1, 35282, Note_on_c, 0, 83, 120
1, 35282, Note_on_c, 0, 83, 120
1, 35282, Note_on_c, 1, 75, 120
1, 35282, Note_on_c, 2, 80, 120
1, 35282, Note_on_c, 2, 76, 120
1, 35282, Note_on_c, 4, 56, 120
1, 35282, Note_on_c, 4, 52, 120
1, 35282, Note_on_c, 4, 56, 120
1, 35282, Note_on_c, 4, 52, 120
1, 35282, Note_on_c, 4, 56, 120
1, 35282, Note_on_c, 5, 64, 120
1, 35282, Note_on_c, 5, 71, 120
1, 35282, Note_on_c, 5, 71, 120
1, 35282, Note_on_c, 5, 47, 120
1, 35282, Note_on_c, 5, 59, 120
1, 35282, Note_on_c, 5, 59, 120
1, 35282, Note_on_c, 6, 42, 110
1, 35282, Note_on_c, 7, 63, 113
1, 35282, Note_on_c, 7, 51, 113
1, 35282, Control_c, 8, 0, 0
1, 35282, Control_c, 8, 32, 0
1, 35282, Program_c, 8, 48
1, 35282, Note_on_c, 8, 75, 110
1, 35282, Note_on_c, 8, 80, 110
1, 35282, Note_on_c, 8, 83, 110
1, 35282, Control_c, 8, 0, 0
1, 35282, Control_c, 8, 32, 0
1, 35282, Program_c, 8, 49
1, 35282, Note_on_c, 8, 83, 110
1, 35282, Note_on_c, 8, 75, 110
1, 35282, Note_on_c, 8, 80, 110
1, 35282, Note_on_c, 8, 80, 110
1, 35282, Note_on_c, 8, 80, 110
1, 35282, Note_on_c, 8, 68, 110
1, 35282, Note_on_c, 8, 68, 110
1, 35288, Note_on_c, 7, 64, 113
1, 35288, Note_on_c, 7, 52, 113
1, 35294, Note_on_c, 7, 68, 113
1, 35294, Note_on_c, 7, 56, 113
1, 35296, Note_on_c, 6, 42, 0
1, 35297, Note_on_c, 6, 42, 110
1, 35299, Note_on_c, 7, 71, 113
1, 35299, Note_on_c, 7, 59, 113
1, 35310, Note_on_c, 6, 42, 0
1, 35312, Note_on_c, 6, 42, 110
1, 35326, Note_on_c, 6, 42, 0
1, 35327, Note_on_c, 6, 42, 110
1, 35340, Note_on_c, 6, 42, 0
1, 35342, Note_on_c, 6, 42, 110
1, 35356, Note_on_c, 6, 42, 0
1, 35357, Note_on_c, 6, 42, 110
1, 35370, Note_on_c, 6, 42, 0
1, 35372, Note_on_c, 6, 42, 110
1, 35386, Note_on_c, 6, 42, 0
1, 35387, Note_on_c, 6, 42, 110
1, 35400, Note_on_c, 6, 42, 0
1, 35402, Note_on_c, 0, 83, 0
1, 35402, Note_on_c, 0, 83, 0
1, 35402, Note_on_c, 1, 75, 0
1, 35402, Note_on_c, 2, 80, 0
1, 35402, Note_on_c, 2, 76, 0
1, 35402, Note_on_c, 4, 56, 0
1, 35402, Note_on_c, 4, 52, 0
1, 35402, Note_on_c, 4, 56, 0
1, 35402, Note_on_c, 4, 52, 0
1, 35402, Note_on_c, 4, 56, 0
1, 35402, Note_on_c, 5, 64, 0
1, 35402, Control_c, 8, 0, 0
1, 35402, Control_c, 8, 32, 0
1, 35402, Program_c, 8, 48
1, 35402, Note_on_c, 8, 75, 0
1, 35402, Note_on_c, 8, 80, 0
1, 35402, Note_on_c, 8, 83, 0
1, 35402, Control_c, 8, 0, 0
1, 35402, Control_c, 8, 32, 0
1, 35402, Program_c, 8, 49
1, 35402, Note_on_c, 8, 83, 0
1, 35402, Note_on_c, 8, 75, 0
1, 35402, Note_on_c, 8, 80, 0
1, 35402, Note_on_c, 8, 80, 0
1, 35402, Note_on_c, 8, 80, 0
1, 35402, Note_on_c, 8, 68, 0
1, 35402, Note_on_c, 8, 68, 0
1, 35402, Note_on_c, 6, 42, 110
1, 35416, Note_on_c, 6, 42, 0
1, 35417, Note_on_c, 6, 42, 110
1, 35430, Note_on_c, 6, 42, 0
1, 35432, Note_on_c, 6, 42, 110
1, 35436, Note_on_c, 5, 71, 0
1, 35436, Note_on_c, 5, 71, 0
1, 35436, Note_on_c, 5, 47, 0
1, 35436, Note_on_c, 5, 59, 0
1, 35436, Note_on_c, 5, 59, 0
1, 35436, Note_on_c, 7, 63, 0
1, 35436, Note_on_c, 7, 51, 0
1, 35442, Note_on_c, 7, 64, 0
1, 35442, Note_on_c, 7, 52, 0
1, 35446, Note_on_c, 6, 42, 0
1, 35447, Note_on_c, 7, 68, 0
1, 35447, Note_on_c, 7, 56, 0
1, 35447, Control_c, 6, 73, 0
1, 35447, Note_on_c, 6, 42, 110
1, 35453, Note_on_c, 7, 71, 0
1, 35453, Note_on_c, 7, 59, 0
1, 35460, Note_on_c, 6, 42, 0
1, 35462, Note_on_c, 3, 42, 0
1, 35462, Note_on_c, 5, 42, 0
1, 35462, Note_on_c, 8, 30, 0
1, 35462, Note_on_c, 8, 30, 0
1, 35462, Note_on_c, 0, 88, 120
1, 35462, Note_on_c, 0, 88, 120
1, 35462, Note_on_c, 1, 80, 120
1, 35462, Note_on_c, 2, 87, 120
1, 35462, Note_on_c, 2, 83, 120
1, 35462, Note_on_c, 3, 47, 120
1, 35462, Note_on_c, 4, 63, 120
1, 35462, Note_on_c, 4, 59, 120
1, 35462, Note_on_c, 4, 63, 120
1, 35462, Note_on_c, 4, 59, 120
1, 35462, Note_on_c, 4, 63, 120
1, 35462, Note_on_c, 5, 71, 120
1, 35462, Note_on_c, 5, 76, 120
1, 35462, Note_on_c, 5, 76, 120
1, 35462, Note_on_c, 5, 52, 120
1, 35462, Note_on_c, 5, 64, 120
1, 35462, Note_on_c, 5, 64, 120
1, 35462, Note_on_c, 5, 47, 120
1, 35462, Control_c, 6, 73, 86
1, 35462, Note_on_c, 6, 47, 127
1, 35462, Note_on_c, 6, 47, 127
1, 35462, Note_on_c, 7, 68, 113
1, 35462, Note_on_c, 7, 56, 113
1, 35462, Control_c, 8, 0, 0
1, 35462, Control_c, 8, 32, 0
1, 35462, Program_c, 8, 48
1, 35462, Note_on_c, 8, 80, 110
1, 35462, Note_on_c, 8, 87, 110
1, 35462, Note_on_c, 8, 88, 110
1, 35462, Control_c, 8, 0, 0
1, 35462, Control_c, 8, 32, 0
1, 35462, Program_c, 8, 49
1, 35462, Note_on_c, 8, 88, 110
1, 35462, Note_on_c, 8, 80, 110
1, 35462, Note_on_c, 8, 87, 110
1, 35462, Note_on_c, 8, 76, 110
1, 35462, Note_on_c, 8, 76, 110
1, 35462, Note_on_c, 8, 64, 110
1, 35462, Note_on_c, 8, 64, 110
1, 35462, Note_on_c, 8, 35, 120
1, 35462, Note_on_c, 8, 35, 120
1, 35468, Note_on_c, 7, 71, 113
1, 35468, Note_on_c, 7, 59, 113
1, 35474, Note_on_c, 7, 75, 113
1, 35474, Note_on_c, 7, 63, 113
1, 35476, Note_on_c, 6, 47, 0
1, 35476, Note_on_c, 6, 47, 0
1, 35478, Note_on_c, 6, 47, 110
1, 35480, Note_on_c, 7, 76, 113
1, 35480, Note_on_c, 7, 64, 113
1, 35493, Note_on_c, 6, 47, 0
1, 35495, Note_on_c, 6, 47, 110
1, 35509, Note_on_c, 6, 47, 0
1, 35511, Note_on_c, 6, 47, 110
1, 35525, Note_on_c, 6, 47, 0
1, 35527, Note_on_c, 6, 47, 110
1, 35541, Note_on_c, 6, 47, 0
1, 35544, Note_on_c, 6, 47, 110
1, 35558, Note_on_c, 6, 47, 0
1, 35560, Note_on_c, 6, 47, 110
1, 35574, Note_on_c, 6, 47, 0
1, 35576, Note_on_c, 6, 47, 110
1, 35590, Note_on_c, 6, 47, 0
1, 35592, Note_on_c, 0, 88, 0
1, 35592, Note_on_c, 0, 88, 0
1, 35592, Note_on_c, 1, 80, 0
1, 35592, Note_on_c, 2, 87, 0
1, 35592, Note_on_c, 2, 83, 0
1, 35592, Note_on_c, 4, 63, 0
1, 35592, Note_on_c, 4, 59, 0
1, 35592, Note_on_c, 4, 63, 0
1, 35592, Note_on_c, 4, 59, 0
1, 35592, Note_on_c, 4, 63, 0
1, 35592, Note_on_c, 5, 71, 0
1, 35592, Control_c, 8, 0, 0
1, 35592, Control_c, 8, 32, 0
1, 35592, Program_c, 8, 48
1, 35592, Note_on_c, 8, 80, 0
1, 35592, Note_on_c, 8, 87, 0
1, 35592, Note_on_c, 8, 88, 0
1, 35592, Control_c, 8, 0, 0
1, 35592, Control_c, 8, 32, 0
1, 35592, Program_c, 8, 49
1, 35592, Note_on_c, 8, 88, 0
1, 35592, Note_on_c, 8, 80, 0
1, 35592, Note_on_c, 8, 87, 0
1, 35592, Note_on_c, 8, 76, 0
1, 35592, Note_on_c, 8, 76, 0
1, 35592, Note_on_c, 8, 64, 0
1, 35592, Note_on_c, 8, 64, 0
1, 35592, Note_on_c, 6, 47, 110
1, 35606, Note_on_c, 6, 47, 0
1, 35608, Note_on_c, 6, 47, 110
1, 35622, Note_on_c, 6, 47, 0
1, 35624, Note_on_c, 6, 47, 110
1, 35628, Note_on_c, 5, 76, 0
1, 35628, Note_on_c, 5, 76, 0
1, 35628, Note_on_c, 5, 52, 0
1, 35628, Note_on_c, 5, 64, 0
1, 35628, Note_on_c, 5, 64, 0
1, 35628, Note_on_c, 7, 68, 0
1, 35628, Note_on_c, 7, 56, 0
1, 35635, Note_on_c, 7, 71, 0
1, 35635, Note_on_c, 7, 59, 0
1, 35639, Note_on_c, 6, 47, 0
1, 35641, Note_on_c, 7, 75, 0
1, 35641, Note_on_c, 7, 63, 0
1, 35641, Note_on_c, 6, 47, 110
1, 35647, Note_on_c, 7, 76, 0
1, 35647, Note_on_c, 7, 64, 0
1, 35655, Note_on_c, 6, 47, 0
1, 35657, Note_on_c, 0, 87, 120
1, 35657, Note_on_c, 0, 87, 120
1, 35657, Note_on_c, 1, 78, 120
1, 35657, Note_on_c, 2, 83, 120
1, 35657, Note_on_c, 2, 80, 120
1, 35657, Note_on_c, 4, 59, 120
1, 35657, Note_on_c, 4, 56, 120
1, 35657, Note_on_c, 4, 59, 120
1, 35657, Note_on_c, 4, 56, 120
1, 35657, Note_on_c, 4, 59, 120
1, 35657, Note_on_c, 5, 71, 120
1, 35657, Note_on_c, 5, 75, 120
1, 35657, Note_on_c, 5, 75, 120
1, 35657, Note_on_c, 5, 51, 120
1, 35657, Note_on_c, 5, 63, 120
1, 35657, Note_on_c, 5, 63, 120
1, 35657, Note_on_c, 6, 47, 110
1, 35657, Note_on_c, 7, 66, 113
1, 35657, Note_on_c, 7, 54, 113
1, 35657, Control_c, 8, 0, 0
1, 35657, Control_c, 8, 32, 0
1, 35657, Program_c, 8, 48
1, 35657, Note_on_c, 8, 78, 110
1, 35657, Note_on_c, 8, 83, 110
1, 35657, Note_on_c, 8, 87, 110
1, 35657, Control_c, 8, 0, 0
1, 35657, Control_c, 8, 32, 0
1, 35657, Program_c, 8, 49
1, 35657, Note_on_c, 8, 87, 110
1, 35657, Note_on_c, 8, 78, 110
1, 35657, Note_on_c, 8, 83, 110
1, 35657, Note_on_c, 8, 78, 110
1, 35657, Note_on_c, 8, 78, 110
1, 35657, Note_on_c, 8, 66, 110
1, 35657, Note_on_c, 8, 66, 110
1, 35663, Note_on_c, 7, 68, 113
1, 35663, Note_on_c, 7, 56, 113
1, 35669, Note_on_c, 7, 71, 113
1, 35669, Note_on_c, 7, 59, 113
1, 35671, Note_on_c, 6, 47, 0
1, 35673, Note_on_c, 6, 47, 110
1, 35675, Note_on_c, 7, 75, 113
1, 35675, Note_on_c, 7, 63, 113
1, 35687, Note_on_c, 6, 47, 0
1, 35689, Note_on_c, 6, 47, 110
1, 35704, Note_on_c, 6, 47, 0
1, 35706, Note_on_c, 6, 47, 110
1, 35720, Note_on_c, 6, 47, 0
1, 35722, Note_on_c, 6, 47, 110
1, 35736, Note_on_c, 6, 47, 0
1, 35738, Note_on_c, 6, 47, 110
1, 35752, Note_on_c, 6, 47, 0
1, 35754, Note_on_c, 6, 47, 110
1, 35768, Note_on_c, 6, 47, 0
1, 35770, Note_on_c, 6, 47, 110
1, 35785, Note_on_c, 6, 47, 0
1, 35787, Note_on_c, 0, 87, 0
1, 35787, Note_on_c, 0, 87, 0
1, 35787, Note_on_c, 1, 78, 0
1, 35787, Note_on_c, 2, 83, 0
1, 35787, Note_on_c, 2, 80, 0
1, 35787, Note_on_c, 4, 59, 0
1, 35787, Note_on_c, 4, 56, 0
1, 35787, Note_on_c, 4, 59, 0
1, 35787, Note_on_c, 4, 56, 0
1, 35787, Note_on_c, 4, 59, 0
1, 35787, Note_on_c, 5, 71, 0
1, 35787, Control_c, 8, 0, 0
1, 35787, Control_c, 8, 32, 0
1, 35787, Program_c, 8, 48
1, 35787, Note_on_c, 8, 78, 0
1, 35787, Note_on_c, 8, 83, 0
1, 35787, Note_on_c, 8, 87, 0
1, 35787, Control_c, 8, 0, 0
1, 35787, Control_c, 8, 32, 0
1, 35787, Program_c, 8, 49
1, 35787, Note_on_c, 8, 87, 0
1, 35787, Note_on_c, 8, 78, 0
1, 35787, Note_on_c, 8, 83, 0
1, 35787, Note_on_c, 8, 78, 0
1, 35787, Note_on_c, 8, 78, 0
1, 35787, Note_on_c, 8, 66, 0
1, 35787, Note_on_c, 8, 66, 0
1, 35787, Note_on_c, 6, 47, 110
1, 35801, Note_on_c, 6, 47, 0
1, 35803, Note_on_c, 6, 47, 110
1, 35817, Note_on_c, 6, 47, 0
1, 35819, Note_on_c, 6, 47, 110
1, 35823, Note_on_c, 5, 75, 0
1, 35823, Note_on_c, 5, 75, 0
1, 35823, Note_on_c, 5, 51, 0
1, 35823, Note_on_c, 5, 63, 0
1, 35823, Note_on_c, 5, 63, 0
1, 35823, Note_on_c, 7, 66, 0
1, 35823, Note_on_c, 7, 54, 0
1, 35829, Note_on_c, 7, 68, 0
1, 35829, Note_on_c, 7, 56, 0
1, 35833, Note_on_c, 6, 47, 0
1, 35835, Note_on_c, 7, 71, 0
1, 35835, Note_on_c, 7, 59, 0
1, 35835, Note_on_c, 6, 47, 110
1, 35841, Note_on_c, 7, 75, 0
1, 35841, Note_on_c, 7, 63, 0
1, 35850, Note_on_c, 6, 47, 0
1, 35852, Note_on_c, 0, 85, 120
1, 35852, Note_on_c, 0, 85, 120
1, 35852, Note_on_c, 1, 76, 120
1, 35852, Note_on_c, 2, 83, 120
1, 35852, Note_on_c, 2, 80, 120
1, 35852, Note_on_c, 4, 59, 120
1, 35852, Note_on_c, 4, 56, 120
1, 35852, Note_on_c, 4, 59, 120
1, 35852, Note_on_c, 4, 56, 120
1, 35852, Note_on_c, 4, 59, 120
1, 35852, Note_on_c, 5, 71, 120
1, 35852, Note_on_c, 5, 73, 120
1, 35852, Note_on_c, 5, 73, 120
1, 35852, Note_on_c, 5, 49, 120
1, 35852, Note_on_c, 5, 61, 120
1, 35852, Note_on_c, 5, 61, 120
1, 35852, Note_on_c, 6, 47, 110
1, 35852, Note_on_c, 7, 64, 111
1, 35852, Note_on_c, 7, 52, 111
1, 35852, Control_c, 8, 0, 0
1, 35852, Control_c, 8, 32, 0
1, 35852, Program_c, 8, 48
1, 35852, Note_on_c, 8, 76, 110
1, 35852, Note_on_c, 8, 83, 110
1, 35852, Note_on_c, 8, 85, 110
1, 35852, Control_c, 8, 0, 0
1, 35852, Control_c, 8, 32, 0
1, 35852, Program_c, 8, 49
1, 35852, Note_on_c, 8, 85, 110
1, 35852, Note_on_c, 8, 76, 110
1, 35852, Note_on_c, 8, 83, 110
1, 35852, Note_on_c, 8, 80, 110
1, 35852, Note_on_c, 8, 80, 110
1, 35852, Note_on_c, 8, 68, 110
1, 35852, Note_on_c, 8, 68, 110
1, 35858, Note_on_c, 7, 68, 111
1, 35858, Note_on_c, 7, 56, 111
1, 35863, Note_on_c, 7, 71, 111
1, 35863, Note_on_c, 7, 59, 111
1, 35865, Note_on_c, 6, 47, 0
1, 35867, Note_on_c, 6, 47, 110
1, 35869, Note_on_c, 7, 73, 111
1, 35869, Note_on_c, 7, 61, 111
1, 35881, Note_on_c, 6, 47, 0
1, 35883, Note_on_c, 6, 47, 110
1, 35897, Note_on_c, 6, 47, 0
1, 35899, Note_on_c, 6, 47, 110
1, 35913, Note_on_c, 6, 47, 0
1, 35915, Note_on_c, 6, 47, 110
1, 35928, Note_on_c, 6, 47, 0
1, 35930, Note_on_c, 6, 47, 110
1, 35944, Note_on_c, 6, 47, 0
1, 35946, Note_on_c, 6, 47, 110
1, 35960, Note_on_c, 6, 47, 0
1, 35962, Note_on_c, 6, 47, 110
1, 35976, Note_on_c, 6, 47, 0
1, 35978, Note_on_c, 0, 85, 0
1, 35978, Note_on_c, 0, 85, 0
1, 35978, Note_on_c, 1, 76, 0
1, 35978, Note_on_c, 2, 83, 0
1, 35978, Note_on_c, 2, 80, 0
1, 35978, Note_on_c, 4, 59, 0
1, 35978, Note_on_c, 4, 56, 0
1, 35978, Note_on_c, 4, 59, 0
1, 35978, Note_on_c, 4, 56, 0
1, 35978, Note_on_c, 4, 59, 0
1, 35978, Note_on_c, 5, 71, 0
1, 35978, Control_c, 8, 0, 0
1, 35978, Control_c, 8, 32, 0
1, 35978, Program_c, 8, 48
1, 35978, Note_on_c, 8, 76, 0
1, 35978, Note_on_c, 8, 83, 0
1, 35978, Note_on_c, 8, 85, 0
1, 35978, Control_c, 8, 0, 0
1, 35978, Control_c, 8, 32, 0
1, 35978, Program_c, 8, 49
1, 35978, Note_on_c, 8, 85, 0
1, 35978, Note_on_c, 8, 76, 0
1, 35978, Note_on_c, 8, 83, 0
1, 35978, Note_on_c, 8, 80, 0
1, 35978, Note_on_c, 8, 80, 0
1, 35978, Note_on_c, 8, 68, 0
1, 35978, Note_on_c, 8, 68, 0
1, 35978, Note_on_c, 6, 47, 110
1, 35992, Note_on_c, 6, 47, 0
1, 35994, Note_on_c, 6, 47, 110
1, 36008, Note_on_c, 6, 47, 0
1, 36010, Note_on_c, 6, 47, 110
1, 36013, Note_on_c, 5, 73, 0
1, 36013, Note_on_c, 5, 73, 0
1, 36013, Note_on_c, 5, 49, 0
1, 36013, Note_on_c, 5, 61, 0
1, 36013, Note_on_c, 5, 61, 0
1, 36013, Note_on_c, 7, 64, 0
1, 36013, Note_on_c, 7, 52, 0
1, 36019, Note_on_c, 7, 68, 0
1, 36019, Note_on_c, 7, 56, 0
1, 36023, Note_on_c, 6, 47, 0
1, 36025, Note_on_c, 7, 71, 0
1, 36025, Note_on_c, 7, 59, 0
1, 36025, Note_on_c, 6, 47, 110
1, 36031, Note_on_c, 7, 73, 0
1, 36031, Note_on_c, 7, 61, 0
1, 36039, Note_on_c, 6, 47, 0
1, 36041, Note_on_c, 0, 88, 120
1, 36041, Note_on_c, 0, 88, 120
1, 36041, Note_on_c, 1, 80, 120
1, 36041, Note_on_c, 2, 87, 120
1, 36041, Note_on_c, 2, 83, 120
1, 36041, Note_on_c, 4, 63, 120
1, 36041, Note_on_c, 4, 59, 120
1, 36041, Note_on_c, 4, 63, 120
1, 36041, Note_on_c, 4, 59, 120
1, 36041, Note_on_c, 4, 63, 120
1, 36041, Note_on_c, 5, 71, 120
1, 36041, Note_on_c, 5, 76, 120
1, 36041, Note_on_c, 5, 76, 120
1, 36041, Note_on_c, 5, 52, 120
1, 36041, Note_on_c, 5, 64, 120
1, 36041, Note_on_c, 5, 64, 120
1, 36041, Note_on_c, 6, 47, 110
1, 36041, Note_on_c, 7, 68, 111
1, 36041, Note_on_c, 7, 56, 111
1, 36041, Control_c, 8, 0, 0
1, 36041, Control_c, 8, 32, 0
1, 36041, Program_c, 8, 48
1, 36041, Note_on_c, 8, 80, 110
1, 36041, Note_on_c, 8, 80, 110
1, 36041, Note_on_c, 8, 88, 110
1, 36041, Control_c, 8, 0, 0
1, 36041, Control_c, 8, 32, 0
1, 36041, Program_c, 8, 49
1, 36041, Note_on_c, 8, 88, 110
1, 36041, Note_on_c, 8, 80, 110
1, 36041, Note_on_c, 8, 80, 110
1, 36041, Note_on_c, 8, 80, 110
1, 36041, Note_on_c, 8, 80, 110
1, 36041, Note_on_c, 8, 68, 110
1, 36041, Note_on_c, 8, 68, 110
1, 36047, Note_on_c, 7, 71, 111
1, 36047, Note_on_c, 7, 59, 111
1, 36053, Note_on_c, 7, 75, 111
1, 36053, Note_on_c, 7, 63, 111
1, 36055, Note_on_c, 6, 47, 0
1, 36057, Note_on_c, 6, 47, 110
1, 36059, Note_on_c, 7, 76, 111
1, 36059, Note_on_c, 7, 64, 111
1, 36071, Note_on_c, 6, 47, 0
1, 36072, Note_on_c, 6, 47, 110
1, 36086, Note_on_c, 6, 47, 0
1, 36088, Note_on_c, 6, 47, 110
1, 36102, Note_on_c, 6, 47, 0
1, 36104, Note_on_c, 6, 47, 110
1, 36118, Note_on_c, 6, 47, 0
1, 36120, Note_on_c, 6, 47, 110
1, 36134, Note_on_c, 6, 47, 0
1, 36136, Note_on_c, 6, 47, 110
1, 36150, Note_on_c, 6, 47, 0
1, 36152, Note_on_c, 6, 47, 110
1, 36165, Note_on_c, 6, 47, 0
1, 36167, Note_on_c, 0, 88, 0
1, 36167, Note_on_c, 0, 88, 0
1, 36167, Note_on_c, 1, 80, 0
1, 36167, Note_on_c, 2, 87, 0
1, 36167, Note_on_c, 2, 83, 0
1, 36167, Note_on_c, 4, 63, 0
1, 36167, Note_on_c, 4, 59, 0
1, 36167, Note_on_c, 4, 63, 0
1, 36167, Note_on_c, 4, 59, 0
1, 36167, Note_on_c, 4, 63, 0
1, 36167, Note_on_c, 5, 71, 0
1, 36167, Control_c, 8, 0, 0
1, 36167, Control_c, 8, 32, 0
1, 36167, Program_c, 8, 48
1, 36167, Note_on_c, 8, 80, 0
1, 36167, Note_on_c, 8, 80, 0
1, 36167, Note_on_c, 8, 88, 0
1, 36167, Control_c, 8, 0, 0
1, 36167, Control_c, 8, 32, 0
1, 36167, Program_c, 8, 49
1, 36167, Note_on_c, 8, 88, 0
1, 36167, Note_on_c, 8, 80, 0
1, 36167, Note_on_c, 8, 80, 0
1, 36167, Note_on_c, 8, 80, 0
1, 36167, Note_on_c, 8, 80, 0
1, 36167, Note_on_c, 8, 68, 0
1, 36167, Note_on_c, 8, 68, 0
1, 36167, Note_on_c, 6, 47, 110
1, 36181, Note_on_c, 6, 47, 0
1, 36183, Note_on_c, 6, 47, 110
1, 36197, Note_on_c, 6, 47, 0
1, 36199, Note_on_c, 6, 47, 110
1, 36203, Note_on_c, 5, 76, 0
1, 36203, Note_on_c, 5, 76, 0
1, 36203, Note_on_c, 5, 52, 0
1, 36203, Note_on_c, 5, 64, 0
1, 36203, Note_on_c, 5, 64, 0
1, 36203, Note_on_c, 7, 68, 0
1, 36203, Note_on_c, 7, 56, 0
1, 36209, Note_on_c, 7, 71, 0
1, 36209, Note_on_c, 7, 59, 0
1, 36213, Note_on_c, 6, 47, 0
1, 36215, Note_on_c, 7, 75, 0
1, 36215, Note_on_c, 7, 63, 0
1, 36215, Control_c, 6, 73, 0
1, 36221, Note_on_c, 7, 76, 0
1, 36221, Note_on_c, 7, 64, 0
1, 36230, Note_on_c, 3, 47, 0
1, 36230, Note_on_c, 5, 47, 0
1, 36230, Note_on_c, 8, 35, 0
1, 36230, Note_on_c, 8, 35, 0
1, 36230, Note_on_c, 0, 87, 120
1, 36230, Note_on_c, 0, 87, 120
1, 36230, Note_on_c, 1, 78, 120
1, 36230, Note_on_c, 2, 83, 120
1, 36230, Note_on_c, 2, 80, 120
1, 36230, Note_on_c, 3, 42, 120
1, 36230, Note_on_c, 4, 59, 120
1, 36230, Note_on_c, 4, 56, 120
1, 36230, Note_on_c, 4, 59, 120
1, 36230, Note_on_c, 4, 56, 120
1, 36230, Note_on_c, 4, 59, 120
1, 36230, Note_on_c, 5, 71, 120
1, 36230, Note_on_c, 5, 75, 120
1, 36230, Note_on_c, 5, 75, 120
1, 36230, Note_on_c, 5, 51, 120
1, 36230, Note_on_c, 5, 63, 120
1, 36230, Note_on_c, 5, 63, 120
1, 36230, Note_on_c, 5, 42, 120
1, 36230, Control_c, 6, 73, 86
1, 36230, Note_on_c, 6, 42, 127
1, 36230, Note_on_c, 6, 42, 127
1, 36230, Note_on_c, 7, 66, 109
1, 36230, Note_on_c, 7, 54, 109
1, 36230, Control_c, 8, 0, 0
1, 36230, Control_c, 8, 32, 0
1, 36230, Program_c, 8, 48
1, 36230, Note_on_c, 8, 78, 110
1, 36230, Note_on_c, 8, 80, 110
1, 36230, Note_on_c, 8, 87, 110
1, 36230, Control_c, 8, 0, 0
1, 36230, Control_c, 8, 32, 0
1, 36230, Program_c, 8, 49
1, 36230, Note_on_c, 8, 87, 110
1, 36230, Note_on_c, 8, 78, 110
1, 36230, Note_on_c, 8, 80, 110
1, 36230, Note_on_c, 8, 82, 110
1, 36230, Note_on_c, 8, 82, 110
1, 36230, Note_on_c, 8, 70, 110
1, 36230, Note_on_c, 8, 70, 110
1, 36230, Note_on_c, 8, 30, 120
1, 36230, Note_on_c, 8, 30, 120
1, 36236, Note_on_c, 7, 68, 109
1, 36236, Note_on_c, 7, 56, 109
1, 36242, Note_on_c, 7, 71, 109
1, 36242, Note_on_c, 7, 59, 109
1, 36244, Note_on_c, 6, 42, 0
1, 36244, Note_on_c, 6, 42, 0
1, 36246, Note_on_c, 6, 42, 110
1, 36248, Note_on_c, 7, 75, 109
1, 36248, Note_on_c, 7, 63, 109
1, 36260, Note_on_c, 6, 42, 0
1, 36262, Note_on_c, 6, 42, 110
1, 36276, Note_on_c, 6, 42, 0
1, 36278, Note_on_c, 6, 42, 110
1, 36292, Note_on_c, 6, 42, 0
1, 36294, Note_on_c, 6, 42, 110
1, 36308, Note_on_c, 6, 42, 0
1, 36310, Note_on_c, 6, 42, 110
1, 36323, Note_on_c, 6, 42, 0
1, 36325, Note_on_c, 6, 42, 110
1, 36339, Note_on_c, 6, 42, 0
1, 36341, Note_on_c, 6, 42, 110
1, 36355, Note_on_c, 6, 42, 0
1, 36357, Note_on_c, 0, 87, 0
1, 36357, Note_on_c, 0, 87, 0
1, 36357, Note_on_c, 1, 78, 0
1, 36357, Note_on_c, 2, 83, 0
1, 36357, Note_on_c, 2, 80, 0
1, 36357, Note_on_c, 4, 59, 0
1, 36357, Note_on_c, 4, 56, 0
1, 36357, Note_on_c, 4, 59, 0
1, 36357, Note_on_c, 4, 56, 0
1, 36357, Note_on_c, 4, 59, 0
1, 36357, Note_on_c, 5, 71, 0
1, 36357, Control_c, 8, 0, 0
1, 36357, Control_c, 8, 32, 0
1, 36357, Program_c, 8, 48
1, 36357, Note_on_c, 8, 78, 0
1, 36357, Note_on_c, 8, 80, 0
1, 36357, Note_on_c, 8, 87, 0
1, 36357, Control_c, 8, 0, 0
1, 36357, Control_c, 8, 32, 0
1, 36357, Program_c, 8, 49
1, 36357, Note_on_c, 8, 87, 0
1, 36357, Note_on_c, 8, 78, 0
1, 36357, Note_on_c, 8, 80, 0
1, 36357, Note_on_c, 8, 82, 0
1, 36357, Note_on_c, 8, 82, 0
1, 36357, Note_on_c, 8, 70, 0
1, 36357, Note_on_c, 8, 70, 0
1, 36357, Note_on_c, 6, 42, 110
1, 36371, Note_on_c, 6, 42, 0
1, 36372, Note_on_c, 6, 42, 110
1, 36386, Note_on_c, 6, 42, 0
1, 36388, Note_on_c, 6, 42, 110
1, 36392, Note_on_c, 5, 75, 0
1, 36392, Note_on_c, 5, 75, 0
1, 36392, Note_on_c, 5, 51, 0
1, 36392, Note_on_c, 5, 63, 0
1, 36392, Note_on_c, 5, 63, 0
1, 36392, Note_on_c, 7, 66, 0
1, 36392, Note_on_c, 7, 54, 0
1, 36398, Note_on_c, 7, 68, 0
1, 36398, Note_on_c, 7, 56, 0
1, 36402, Note_on_c, 6, 42, 0
1, 36404, Note_on_c, 7, 71, 0
1, 36404, Note_on_c, 7, 59, 0
1, 36404, Note_on_c, 6, 42, 110
1, 36410, Note_on_c, 7, 75, 0
1, 36410, Note_on_c, 7, 63, 0
1, 36418, Note_on_c, 6, 42, 0
1, 36420, Note_on_c, 0, 83, 120
1, 36420, Note_on_c, 0, 83, 120
1, 36420, Note_on_c, 1, 75, 120
1, 36420, Note_on_c, 2, 80, 120
1, 36420, Note_on_c, 2, 76, 120
1, 36420, Note_on_c, 4, 56, 120
1, 36420, Note_on_c, 4, 52, 120
1, 36420, Note_on_c, 4, 56, 120
1, 36420, Note_on_c, 4, 52, 120
1, 36420, Note_on_c, 4, 56, 120
1, 36420, Note_on_c, 5, 64, 120
1, 36420, Note_on_c, 5, 71, 120
1, 36420, Note_on_c, 5, 71, 120
1, 36420, Note_on_c, 5, 47, 120
1, 36420, Note_on_c, 5, 59, 120
1, 36420, Note_on_c, 5, 59, 120
1, 36420, Note_on_c, 6, 42, 110
1, 36420, Note_on_c, 7, 63, 103
1, 36420, Note_on_c, 7, 51, 103
1, 36420, Control_c, 8, 0, 0
1, 36420, Control_c, 8, 32, 0
1, 36420, Program_c, 8, 48
1, 36420, Note_on_c, 8, 75, 110
1, 36420, Note_on_c, 8, 83, 110
1, 36420, Note_on_c, 8, 83, 110
1, 36420, Control_c, 8, 0, 0
1, 36420, Control_c, 8, 32, 0
1, 36420, Program_c, 8, 49
1, 36420, Note_on_c, 8, 83, 110
1, 36420, Note_on_c, 8, 75, 110
1, 36420, Note_on_c, 8, 83, 110
1, 36420, Note_on_c, 8, 83, 110
1, 36420, Note_on_c, 8, 83, 110
1, 36420, Note_on_c, 8, 71, 110
1, 36420, Note_on_c, 8, 71, 110
1, 36426, Note_on_c, 7, 64, 103
1, 36426, Note_on_c, 7, 52, 103
1, 36432, Note_on_c, 7, 68, 103
1, 36432, Note_on_c, 7, 56, 103
1, 36434, Note_on_c, 6, 42, 0
1, 36436, Note_on_c, 6, 42, 110
1, 36438, Note_on_c, 7, 71, 103
1, 36438, Note_on_c, 7, 59, 103
1, 36450, Note_on_c, 6, 42, 0
1, 36452, Note_on_c, 6, 42, 110
1, 36466, Note_on_c, 6, 42, 0
1, 36468, Note_on_c, 6, 42, 110
1, 36483, Note_on_c, 6, 42, 0
1, 36485, Note_on_c, 6, 42, 110
1, 36499, Note_on_c, 6, 42, 0
1, 36501, Note_on_c, 6, 42, 110
1, 36515, Note_on_c, 6, 42, 0
1, 36517, Note_on_c, 6, 42, 110
1, 36532, Note_on_c, 6, 42, 0
1, 36534, Note_on_c, 6, 42, 110
1, 36548, Note_on_c, 6, 42, 0
1, 36550, Note_on_c, 0, 83, 0
1, 36550, Note_on_c, 0, 83, 0
1, 36550, Note_on_c, 1, 75, 0
1, 36550, Note_on_c, 2, 80, 0
1, 36550, Note_on_c, 2, 76, 0
1, 36550, Note_on_c, 4, 56, 0
1, 36550, Note_on_c, 4, 52, 0
1, 36550, Note_on_c, 4, 56, 0
1, 36550, Note_on_c, 4, 52, 0
1, 36550, Note_on_c, 4, 56, 0
1, 36550, Note_on_c, 5, 64, 0
1, 36550, Control_c, 8, 0, 0
1, 36550, Control_c, 8, 32, 0
1, 36550, Program_c, 8, 48
1, 36550, Note_on_c, 8, 75, 0
1, 36550, Note_on_c, 8, 83, 0
1, 36550, Note_on_c, 8, 83, 0
1, 36550, Control_c, 8, 0, 0
1, 36550, Control_c, 8, 32, 0
1, 36550, Program_c, 8, 49
1, 36550, Note_on_c, 8, 83, 0
1, 36550, Note_on_c, 8, 75, 0
1, 36550, Note_on_c, 8, 83, 0
1, 36550, Note_on_c, 8, 83, 0
1, 36550, Note_on_c, 8, 83, 0
1, 36550, Note_on_c, 8, 71, 0
1, 36550, Note_on_c, 8, 71, 0
1, 36550, Note_on_c, 6, 42, 110
1, 36564, Note_on_c, 6, 42, 0
1, 36566, Note_on_c, 6, 42, 110
1, 36580, Note_on_c, 6, 42, 0
1, 36582, Note_on_c, 6, 42, 110
1, 36586, Note_on_c, 5, 71, 0
1, 36586, Note_on_c, 5, 71, 0
1, 36586, Note_on_c, 5, 47, 0
1, 36586, Note_on_c, 5, 59, 0
1, 36586, Note_on_c, 5, 59, 0
1, 36586, Note_on_c, 7, 63, 0
1, 36586, Note_on_c, 7, 51, 0
1, 36592, Note_on_c, 7, 64, 0
1, 36592, Note_on_c, 7, 52, 0
1, 36596, Note_on_c, 6, 42, 0
1, 36598, Note_on_c, 7, 68, 0
1, 36598, Note_on_c, 7, 56, 0
1, 36598, Note_on_c, 6, 42, 110
1, 36604, Note_on_c, 7, 71, 0
1, 36604, Note_on_c, 7, 59, 0
1, 36612, Note_on_c, 6, 42, 0
1, 36614, Note_on_c, 0, 85, 120
1, 36614, Note_on_c, 0, 85, 120
1, 36614, Note_on_c, 1, 76, 120
1, 36614, Note_on_c, 2, 83, 120
1, 36614, Note_on_c, 2, 80, 120
1, 36614, Note_on_c, 4, 59, 120
1, 36614, Note_on_c, 4, 56, 120
1, 36614, Note_on_c, 4, 59, 120
1, 36614, Note_on_c, 4, 56, 120
1, 36614, Note_on_c, 4, 59, 120
1, 36614, Note_on_c, 5, 71, 120
1, 36614, Note_on_c, 5, 73, 120
1, 36614, Note_on_c, 5, 73, 120
1, 36614, Note_on_c, 5, 49, 120
1, 36614, Note_on_c, 5, 61, 120
1, 36614, Note_on_c, 5, 61, 120
1, 36614, Note_on_c, 6, 42, 110
1, 36614, Note_on_c, 7, 64, 102
1, 36614, Note_on_c, 7, 52, 102
1, 36614, Control_c, 8, 0, 0
1, 36614, Control_c, 8, 32, 0
1, 36614, Program_c, 8, 48
1, 36614, Note_on_c, 8, 76, 110
1, 36614, Note_on_c, 8, 83, 110
1, 36614, Note_on_c, 8, 85, 110
1, 36614, Control_c, 8, 0, 0
1, 36614, Control_c, 8, 32, 0
1, 36614, Program_c, 8, 49
1, 36614, Note_on_c, 8, 85, 110
1, 36614, Note_on_c, 8, 76, 110
1, 36614, Note_on_c, 8, 83, 110
1, 36614, Note_on_c, 8, 85, 110
1, 36614, Note_on_c, 8, 85, 110
1, 36614, Note_on_c, 8, 73, 110
1, 36614, Note_on_c, 8, 73, 110
1, 36621, Note_on_c, 7, 68, 102
1, 36621, Note_on_c, 7, 56, 102
1, 36627, Note_on_c, 7, 71, 102
1, 36627, Note_on_c, 7, 59, 102
1, 36629, Note_on_c, 6, 42, 0
1, 36631, Note_on_c, 6, 42, 110
1, 36633, Note_on_c, 7, 73, 102
1, 36633, Note_on_c, 7, 61, 102
1, 36645, Note_on_c, 6, 42, 0
1, 36647, Note_on_c, 6, 42, 110
1, 36661, Note_on_c, 6, 42, 0
1, 36663, Note_on_c, 6, 42, 110
1, 36677, Note_on_c, 6, 42, 0
1, 36680, Note_on_c, 6, 42, 110
1, 36694, Note_on_c, 6, 42, 0
1, 36696, Note_on_c, 6, 42, 110
1, 36710, Note_on_c, 6, 42, 0
1, 36712, Note_on_c, 6, 42, 110
1, 36726, Note_on_c, 6, 42, 0
1, 36728, Note_on_c, 6, 42, 110
1, 36742, Note_on_c, 6, 42, 0
1, 36744, Note_on_c, 0, 85, 0
1, 36744, Note_on_c, 0, 85, 0
1, 36744, Note_on_c, 1, 76, 0
1, 36744, Note_on_c, 2, 83, 0
1, 36744, Note_on_c, 2, 80, 0
1, 36744, Note_on_c, 4, 59, 0
1, 36744, Note_on_c, 4, 56, 0
1, 36744, Note_on_c, 4, 59, 0
1, 36744, Note_on_c, 4, 56, 0
1, 36744, Note_on_c, 4, 59, 0
1, 36744, Note_on_c, 5, 71, 0
1, 36744, Control_c, 8, 0, 0
1, 36744, Control_c, 8, 32, 0
1, 36744, Program_c, 8, 48
1, 36744, Note_on_c, 8, 76, 0
1, 36744, Note_on_c, 8, 83, 0
1, 36744, Note_on_c, 8, 85, 0
1, 36744, Control_c, 8, 0, 0
1, 36744, Control_c, 8, 32, 0
1, 36744, Program_c, 8, 49
1, 36744, Note_on_c, 8, 85, 0
1, 36744, Note_on_c, 8, 76, 0
1, 36744, Note_on_c, 8, 83, 0
1, 36744, Note_on_c, 8, 85, 0
1, 36744, Note_on_c, 8, 85, 0
1, 36744, Note_on_c, 8, 73, 0
1, 36744, Note_on_c, 8, 73, 0
1, 36744, Note_on_c, 6, 42, 110
1, 36758, Note_on_c, 6, 42, 0
1, 36760, Note_on_c, 6, 42, 110
1, 36775, Note_on_c, 6, 42, 0
1, 36777, Note_on_c, 6, 42, 110
1, 36781, Note_on_c, 5, 73, 0
1, 36781, Note_on_c, 5, 73, 0
1, 36781, Note_on_c, 5, 49, 0
1, 36781, Note_on_c, 5, 61, 0
1, 36781, Note_on_c, 5, 61, 0
1, 36781, Note_on_c, 7, 64, 0
1, 36781, Note_on_c, 7, 52, 0
1, 36787, Note_on_c, 7, 68, 0
1, 36787, Note_on_c, 7, 56, 0
1, 36791, Note_on_c, 6, 42, 0
1, 36793, Note_on_c, 7, 71, 0
1, 36793, Note_on_c, 7, 59, 0
1, 36793, Control_c, 6, 73, 0
1, 36793, Note_on_c, 6, 42, 110
1, 36799, Note_on_c, 7, 73, 0
1, 36799, Note_on_c, 7, 61, 0
1, 36805, Note_on_c, 3, 42, 0
1, 36805, Note_on_c, 5, 42, 0
1, 36805, Note_on_c, 8, 30, 0
1, 36805, Note_on_c, 8, 30, 0
1, 36807, Note_on_c, 6, 42, 0
1, 36809, Note_on_c, 0, 88, 120
1, 36809, Note_on_c, 0, 88, 120
1, 36809, Note_on_c, 1, 80, 120
1, 36809, Note_on_c, 2, 87, 120
1, 36809, Note_on_c, 2, 83, 120
1, 36809, Note_on_c, 3, 47, 120
1, 36809, Note_on_c, 4, 63, 120
1, 36809, Note_on_c, 4, 59, 120
1, 36809, Note_on_c, 4, 63, 120
1, 36809, Note_on_c, 4, 59, 120
1, 36809, Note_on_c, 4, 63, 120
1, 36809, Note_on_c, 5, 71, 120
1, 36809, Note_on_c, 5, 76, 120
1, 36809, Note_on_c, 5, 76, 120
1, 36809, Note_on_c, 5, 52, 120
1, 36809, Note_on_c, 5, 64, 120
1, 36809, Note_on_c, 5, 64, 120
1, 36809, Note_on_c, 5, 47, 120
1, 36809, Control_c, 6, 73, 86
1, 36809, Note_on_c, 6, 47, 127
1, 36809, Note_on_c, 6, 47, 127
1, 36809, Note_on_c, 7, 68, 113
1, 36809, Note_on_c, 7, 56, 113
1, 36809, Control_c, 8, 0, 0
1, 36809, Control_c, 8, 32, 0
1, 36809, Program_c, 8, 48
1, 36809, Note_on_c, 8, 80, 110
1, 36809, Note_on_c, 8, 87, 110
1, 36809, Note_on_c, 8, 88, 110
1, 36809, Control_c, 8, 0, 0
1, 36809, Control_c, 8, 32, 0
1, 36809, Program_c, 8, 49
1, 36809, Note_on_c, 8, 88, 110
1, 36809, Note_on_c, 8, 80, 110
1, 36809, Note_on_c, 8, 87, 110
1, 36809, Note_on_c, 8, 76, 110
1, 36809, Note_on_c, 8, 76, 110
1, 36809, Note_on_c, 8, 64, 110
1, 36809, Note_on_c, 8, 64, 110
1, 36809, Note_on_c, 8, 35, 120
1, 36809, Note_on_c, 8, 35, 120
1, 36815, Note_on_c, 7, 71, 113
1, 36815, Note_on_c, 7, 59, 113
1, 36821, Note_on_c, 7, 75, 113
1, 36821, Note_on_c, 7, 63, 113
1, 36823, Note_on_c, 6, 47, 0
1, 36823, Note_on_c, 6, 47, 0
1, 36825, Note_on_c, 6, 47, 110
1, 36827, Note_on_c, 7, 76, 113
1, 36827, Note_on_c, 7, 64, 113
1, 36840, Note_on_c, 6, 47, 0
1, 36842, Note_on_c, 6, 47, 110
1, 36856, Note_on_c, 6, 47, 0
1, 36858, Note_on_c, 6, 47, 110
1, 36872, Note_on_c, 6, 47, 0
1, 36874, Note_on_c, 6, 47, 110
1, 36888, Note_on_c, 6, 47, 0
1, 36890, Note_on_c, 6, 47, 110
1, 36904, Note_on_c, 6, 47, 0
1, 36906, Note_on_c, 6, 47, 110
1, 36921, Note_on_c, 6, 47, 0
1, 36923, Note_on_c, 6, 47, 110
1, 36937, Note_on_c, 6, 47, 0
1, 36939, Note_on_c, 0, 88, 0
1, 36939, Note_on_c, 0, 88, 0
1, 36939, Note_on_c, 1, 80, 0
1, 36939, Note_on_c, 2, 87, 0
1, 36939, Note_on_c, 2, 83, 0
1, 36939, Note_on_c, 4, 63, 0
1, 36939, Note_on_c, 4, 59, 0
1, 36939, Note_on_c, 4, 63, 0
1, 36939, Note_on_c, 4, 59, 0
1, 36939, Note_on_c, 4, 63, 0
1, 36939, Note_on_c, 5, 71, 0
1, 36939, Control_c, 8, 0, 0
1, 36939, Control_c, 8, 32, 0
1, 36939, Program_c, 8, 48
1, 36939, Note_on_c, 8, 80, 0
1, 36939, Note_on_c, 8, 87, 0
1, 36939, Note_on_c, 8, 88, 0
1, 36939, Control_c, 8, 0, 0
1, 36939, Control_c, 8, 32, 0
1, 36939, Program_c, 8, 49
1, 36939, Note_on_c, 8, 88, 0
1, 36939, Note_on_c, 8, 80, 0
1, 36939, Note_on_c, 8, 87, 0
1, 36939, Note_on_c, 8, 76, 0
1, 36939, Note_on_c, 8, 76, 0
1, 36939, Note_on_c, 8, 64, 0
1, 36939, Note_on_c, 8, 64, 0
1, 36939, Note_on_c, 6, 47, 110
1, 36953, Note_on_c, 6, 47, 0
1, 36955, Note_on_c, 6, 47, 110
1, 36969, Note_on_c, 6, 47, 0
1, 36971, Note_on_c, 6, 47, 110
1, 36975, Note_on_c, 5, 76, 0
1, 36975, Note_on_c, 5, 76, 0
1, 36975, Note_on_c, 5, 52, 0
1, 36975, Note_on_c, 5, 64, 0
1, 36975, Note_on_c, 5, 64, 0
1, 36975, Note_on_c, 7, 68, 0
1, 36975, Note_on_c, 7, 56, 0
1, 36982, Note_on_c, 7, 71, 0
1, 36982, Note_on_c, 7, 59, 0
1, 36986, Note_on_c, 6, 47, 0
1, 36988, Note_on_c, 7, 75, 0
1, 36988, Note_on_c, 7, 63, 0
1, 36988, Note_on_c, 6, 47, 110
1, 36994, Note_on_c, 7, 76, 0
1, 36994, Note_on_c, 7, 64, 0
1, 37002, Note_on_c, 6, 47, 0
1, 37004, Note_on_c, 0, 87, 120
1, 37004, Note_on_c, 0, 87, 120
1, 37004, Note_on_c, 1, 78, 120
1, 37004, Note_on_c, 2, 83, 120
1, 37004, Note_on_c, 2, 80, 120
1, 37004, Note_on_c, 4, 59, 120
1, 37004, Note_on_c, 4, 56, 120
1, 37004, Note_on_c, 4, 59, 120
1, 37004, Note_on_c, 4, 56, 120
1, 37004, Note_on_c, 4, 59, 120
1, 37004, Note_on_c, 5, 71, 120
1, 37004, Note_on_c, 5, 75, 120
1, 37004, Note_on_c, 5, 75, 120
1, 37004, Note_on_c, 5, 51, 120
1, 37004, Note_on_c, 5, 63, 120
1, 37004, Note_on_c, 5, 63, 120
1, 37004, Note_on_c, 6, 47, 110
1, 37004, Note_on_c, 7, 66, 113
1, 37004, Note_on_c, 7, 54, 113
1, 37004, Control_c, 8, 0, 0
1, 37004, Control_c, 8, 32, 0
1, 37004, Program_c, 8, 48
1, 37004, Note_on_c, 8, 78, 110
1, 37004, Note_on_c, 8, 83, 110
1, 37004, Note_on_c, 8, 87, 110
1, 37004, Control_c, 8, 0, 0
1, 37004, Control_c, 8, 32, 0
1, 37004, Program_c, 8, 49
1, 37004, Note_on_c, 8, 87, 110
1, 37004, Note_on_c, 8, 78, 110
1, 37004, Note_on_c, 8, 83, 110
1, 37004, Note_on_c, 8, 78, 110
1, 37004, Note_on_c, 8, 78, 110
1, 37004, Note_on_c, 8, 66, 110
1, 37004, Note_on_c, 8, 66, 110
1, 37010, Note_on_c, 7, 68, 113
1, 37010, Note_on_c, 7, 56, 113
1, 37016, Note_on_c, 7, 71, 113
1, 37016, Note_on_c, 7, 59, 113
1, 37018, Note_on_c, 6, 47, 0
1, 37020, Note_on_c, 6, 47, 110
1, 37022, Note_on_c, 7, 75, 113
1, 37022, Note_on_c, 7, 63, 113
1, 37034, Note_on_c, 6, 47, 0
1, 37036, Note_on_c, 6, 47, 110
1, 37050, Note_on_c, 6, 47, 0
1, 37052, Note_on_c, 6, 47, 110
1, 37066, Note_on_c, 6, 47, 0
1, 37068, Note_on_c, 6, 47, 110
1, 37083, Note_on_c, 6, 47, 0
1, 37085, Note_on_c, 6, 47, 110
1, 37099, Note_on_c, 6, 47, 0
1, 37101, Note_on_c, 6, 47, 110
1, 37115, Note_on_c, 6, 47, 0
1, 37117, Note_on_c, 6, 47, 110
1, 37132, Note_on_c, 6, 47, 0
1, 37134, Note_on_c, 0, 87, 0
1, 37134, Note_on_c, 0, 87, 0
1, 37134, Note_on_c, 1, 78, 0
1, 37134, Note_on_c, 2, 83, 0
1, 37134, Note_on_c, 2, 80, 0
1, 37134, Note_on_c, 4, 59, 0
1, 37134, Note_on_c, 4, 56, 0
1, 37134, Note_on_c, 4, 59, 0
1, 37134, Note_on_c, 4, 56, 0
1, 37134, Note_on_c, 4, 59, 0
1, 37134, Note_on_c, 5, 71, 0
1, 37134, Control_c, 8, 0, 0
1, 37134, Control_c, 8, 32, 0
1, 37134, Program_c, 8, 48
1, 37134, Note_on_c, 8, 78, 0
1, 37134, Note_on_c, 8, 83, 0
1, 37134, Note_on_c, 8, 87, 0
1, 37134, Control_c, 8, 0, 0
1, 37134, Control_c, 8, 32, 0
1, 37134, Program_c, 8, 49
1, 37134, Note_on_c, 8, 87, 0
1, 37134, Note_on_c, 8, 78, 0
1, 37134, Note_on_c, 8, 83, 0
1, 37134, Note_on_c, 8, 78, 0
1, 37134, Note_on_c, 8, 78, 0
1, 37134, Note_on_c, 8, 66, 0
1, 37134, Note_on_c, 8, 66, 0
1, 37134, Note_on_c, 6, 47, 110
1, 37148, Note_on_c, 6, 47, 0
1, 37150, Note_on_c, 6, 47, 110
1, 37164, Note_on_c, 6, 47, 0
1, 37166, Note_on_c, 6, 47, 110
1, 37170, Note_on_c, 5, 75, 0
1, 37170, Note_on_c, 5, 75, 0
1, 37170, Note_on_c, 5, 51, 0
1, 37170, Note_on_c, 5, 63, 0
1, 37170, Note_on_c, 5, 63, 0
1, 37170, Note_on_c, 7, 66, 0
1, 37170, Note_on_c, 7, 54, 0
1, 37176, Note_on_c, 7, 68, 0
1, 37176, Note_on_c, 7, 56, 0
1, 37180, Note_on_c, 6, 47, 0
1, 37182, Note_on_c, 7, 71, 0
1, 37182, Note_on_c, 7, 59, 0
1, 37182, Note_on_c, 6, 47, 110
1, 37188, Note_on_c, 7, 75, 0
1, 37188, Note_on_c, 7, 63, 0
1, 37196, Note_on_c, 6, 47, 0
1, 37198, Note_on_c, 0, 85, 120
1, 37198, Note_on_c, 0, 85, 120
1, 37198, Note_on_c, 1, 76, 120
1, 37198, Note_on_c, 2, 83, 120
1, 37198, Note_on_c, 2, 80, 120
1, 37198, Note_on_c, 4, 59, 120
1, 37198, Note_on_c, 4, 56, 120
1, 37198, Note_on_c, 4, 59, 120
1, 37198, Note_on_c, 4, 56, 120
1, 37198, Note_on_c, 4, 59, 120
1, 37198, Note_on_c, 5, 71, 120
1, 37198, Note_on_c, 5, 73, 120
1, 37198, Note_on_c, 5, 73, 120
1, 37198, Note_on_c, 5, 49, 120
1, 37198, Note_on_c, 5, 61, 120
1, 37198, Note_on_c, 5, 61, 120
1, 37198, Note_on_c, 6, 47, 110
1, 37198, Note_on_c, 7, 64, 111
1, 37198, Note_on_c, 7, 52, 111
1, 37198, Control_c, 8, 0, 0
1, 37198, Control_c, 8, 32, 0
1, 37198, Program_c, 8, 48
1, 37198, Note_on_c, 8, 76, 110
1, 37198, Note_on_c, 8, 83, 110
1, 37198, Note_on_c, 8, 85, 110
1, 37198, Control_c, 8, 0, 0
1, 37198, Control_c, 8, 32, 0
1, 37198, Program_c, 8, 49
1, 37198, Note_on_c, 8, 85, 110
1, 37198, Note_on_c, 8, 76, 110
1, 37198, Note_on_c, 8, 83, 110
1, 37198, Note_on_c, 8, 80, 110
1, 37198, Note_on_c, 8, 80, 110
1, 37198, Note_on_c, 8, 68, 110
1, 37198, Note_on_c, 8, 68, 110
1, 37204, Note_on_c, 7, 68, 111
1, 37204, Note_on_c, 7, 56, 111
1, 37211, Note_on_c, 7, 71, 111
1, 37211, Note_on_c, 7, 59, 111
1, 37213, Note_on_c, 6, 47, 0
1, 37215, Note_on_c, 6, 47, 110
1, 37217, Note_on_c, 7, 73, 111
1, 37217, Note_on_c, 7, 61, 111
1, 37230, Note_on_c, 6, 47, 0
1, 37232, Note_on_c, 6, 47, 110
1, 37246, Note_on_c, 6, 47, 0
1, 37248, Note_on_c, 6, 47, 110
1, 37263, Note_on_c, 6, 47, 0
1, 37265, Note_on_c, 6, 47, 110
1, 37280, Note_on_c, 6, 47, 0
1, 37282, Note_on_c, 6, 47, 110
1, 37296, Note_on_c, 6, 47, 0
1, 37298, Note_on_c, 6, 47, 110
1, 37313, Note_on_c, 6, 47, 0
1, 37315, Note_on_c, 6, 47, 110
1, 37330, Note_on_c, 6, 47, 0
1, 37332, Note_on_c, 0, 85, 0
1, 37332, Note_on_c, 0, 85, 0
1, 37332, Note_on_c, 1, 76, 0
1, 37332, Note_on_c, 2, 83, 0
1, 37332, Note_on_c, 2, 80, 0
1, 37332, Note_on_c, 4, 59, 0
1, 37332, Note_on_c, 4, 56, 0
1, 37332, Note_on_c, 4, 59, 0
1, 37332, Note_on_c, 4, 56, 0
1, 37332, Note_on_c, 4, 59, 0
1, 37332, Note_on_c, 5, 71, 0
1, 37332, Control_c, 8, 0, 0
1, 37332, Control_c, 8, 32, 0
1, 37332, Program_c, 8, 48
1, 37332, Note_on_c, 8, 76, 0
1, 37332, Note_on_c, 8, 83, 0
1, 37332, Note_on_c, 8, 85, 0
1, 37332, Control_c, 8, 0, 0
1, 37332, Control_c, 8, 32, 0
1, 37332, Program_c, 8, 49
1, 37332, Note_on_c, 8, 85, 0
1, 37332, Note_on_c, 8, 76, 0
1, 37332, Note_on_c, 8, 83, 0
1, 37332, Note_on_c, 8, 80, 0
1, 37332, Note_on_c, 8, 80, 0
1, 37332, Note_on_c, 8, 68, 0
1, 37332, Note_on_c, 8, 68, 0
1, 37332, Note_on_c, 6, 47, 110
1, 37346, Note_on_c, 6, 47, 0
1, 37348, Note_on_c, 6, 47, 110
1, 37363, Note_on_c, 6, 47, 0
1, 37365, Note_on_c, 6, 47, 110
1, 37369, Note_on_c, 5, 73, 0
1, 37369, Note_on_c, 5, 73, 0
1, 37369, Note_on_c, 5, 49, 0
1, 37369, Note_on_c, 5, 61, 0
1, 37369, Note_on_c, 5, 61, 0
1, 37369, Note_on_c, 7, 64, 0
1, 37369, Note_on_c, 7, 52, 0
1, 37376, Note_on_c, 7, 68, 0
1, 37376, Note_on_c, 7, 56, 0
1, 37380, Note_on_c, 6, 47, 0
1, 37382, Note_on_c, 7, 71, 0
1, 37382, Note_on_c, 7, 59, 0
1, 37382, Control_c, 6, 73, 0
1, 37388, Note_on_c, 7, 73, 0
1, 37388, Note_on_c, 7, 61, 0
1, 37394, Note_on_c, 3, 47, 0
1, 37394, Note_on_c, 5, 47, 0
1, 37394, Note_on_c, 8, 35, 0
1, 37394, Note_on_c, 8, 35, 0
1, 37398, Note_on_c, 0, 88, 120
1, 37398, Note_on_c, 0, 88, 120
1, 37398, Note_on_c, 1, 80, 120
1, 37398, Note_on_c, 2, 87, 120
1, 37398, Note_on_c, 2, 83, 120
1, 37398, Note_on_c, 3, 42, 120
1, 37398, Note_on_c, 4, 63, 120
1, 37398, Note_on_c, 4, 59, 120
1, 37398, Note_on_c, 4, 63, 120
1, 37398, Note_on_c, 4, 59, 120
1, 37398, Note_on_c, 4, 63, 120
1, 37398, Note_on_c, 5, 71, 120
1, 37398, Note_on_c, 5, 76, 120
1, 37398, Note_on_c, 5, 76, 120
1, 37398, Note_on_c, 5, 52, 120
1, 37398, Note_on_c, 5, 64, 120
1, 37398, Note_on_c, 5, 64, 120
1, 37398, Note_on_c, 5, 42, 120
1, 37398, Control_c, 6, 73, 86
1, 37398, Note_on_c, 6, 42, 127
1, 37398, Note_on_c, 6, 42, 127
1, 37398, Note_on_c, 7, 68, 111
1, 37398, Note_on_c, 7, 56, 111
1, 37398, Control_c, 8, 0, 0
1, 37398, Control_c, 8, 32, 0
1, 37398, Program_c, 8, 48
1, 37398, Note_on_c, 8, 80, 110
1, 37398, Note_on_c, 8, 80, 110
1, 37398, Note_on_c, 8, 88, 110
1, 37398, Control_c, 8, 0, 0
1, 37398, Control_c, 8, 32, 0
1, 37398, Program_c, 8, 49
1, 37398, Note_on_c, 8, 88, 110
1, 37398, Note_on_c, 8, 80, 110
1, 37398, Note_on_c, 8, 80, 110
1, 37398, Note_on_c, 8, 80, 110
1, 37398, Note_on_c, 8, 80, 110
1, 37398, Note_on_c, 8, 68, 110
1, 37398, Note_on_c, 8, 68, 110
1, 37398, Note_on_c, 8, 30, 120
1, 37398, Note_on_c, 8, 30, 120
1, 37404, Note_on_c, 7, 71, 111
1, 37404, Note_on_c, 7, 59, 111
1, 37411, Note_on_c, 7, 75, 111
1, 37411, Note_on_c, 7, 63, 111
1, 37413, Note_on_c, 6, 42, 0
1, 37413, Note_on_c, 6, 42, 0
1, 37415, Note_on_c, 6, 42, 110
1, 37417, Note_on_c, 7, 76, 111
1, 37417, Note_on_c, 7, 64, 111
1, 37430, Note_on_c, 6, 42, 0
1, 37432, Note_on_c, 6, 42, 110
1, 37446, Note_on_c, 6, 42, 0
1, 37448, Note_on_c, 6, 42, 110
1, 37463, Note_on_c, 6, 42, 0
1, 37465, Note_on_c, 6, 42, 110
1, 37480, Note_on_c, 6, 42, 0
1, 37482, Note_on_c, 6, 42, 110
1, 37496, Note_on_c, 6, 42, 0
1, 37498, Note_on_c, 6, 42, 110
1, 37513, Note_on_c, 6, 42, 0
1, 37515, Note_on_c, 6, 42, 110
1, 37530, Note_on_c, 6, 42, 0
1, 37532, Note_on_c, 0, 88, 0
1, 37532, Note_on_c, 0, 88, 0
1, 37532, Note_on_c, 1, 80, 0
1, 37532, Note_on_c, 2, 87, 0
1, 37532, Note_on_c, 2, 83, 0
1, 37532, Note_on_c, 4, 63, 0
1, 37532, Note_on_c, 4, 59, 0
1, 37532, Note_on_c, 4, 63, 0
1, 37532, Note_on_c, 4, 59, 0
1, 37532, Note_on_c, 4, 63, 0
1, 37532, Note_on_c, 5, 71, 0
1, 37532, Control_c, 8, 0, 0
1, 37532, Control_c, 8, 32, 0
1, 37532, Program_c, 8, 48
1, 37532, Note_on_c, 8, 80, 0
1, 37532, Note_on_c, 8, 80, 0
1, 37532, Note_on_c, 8, 88, 0
1, 37532, Control_c, 8, 0, 0
1, 37532, Control_c, 8, 32, 0
1, 37532, Program_c, 8, 49
1, 37532, Note_on_c, 8, 88, 0
1, 37532, Note_on_c, 8, 80, 0
1, 37532, Note_on_c, 8, 80, 0
1, 37532, Note_on_c, 8, 80, 0
1, 37532, Note_on_c, 8, 80, 0
1, 37532, Note_on_c, 8, 68, 0
1, 37532, Note_on_c, 8, 68, 0
1, 37532, Note_on_c, 6, 42, 110
1, 37546, Note_on_c, 6, 42, 0
1, 37548, Note_on_c, 6, 42, 110
1, 37563, Note_on_c, 6, 42, 0
1, 37565, Note_on_c, 6, 42, 110
1, 37569, Note_on_c, 5, 76, 0
1, 37569, Note_on_c, 5, 76, 0
1, 37569, Note_on_c, 5, 52, 0
1, 37569, Note_on_c, 5, 64, 0
1, 37569, Note_on_c, 5, 64, 0
1, 37569, Note_on_c, 7, 68, 0
1, 37569, Note_on_c, 7, 56, 0
1, 37576, Note_on_c, 7, 71, 0
1, 37576, Note_on_c, 7, 59, 0
1, 37580, Note_on_c, 6, 42, 0
1, 37582, Note_on_c, 7, 75, 0
1, 37582, Note_on_c, 7, 63, 0
1, 37582, Note_on_c, 6, 42, 110
1, 37588, Note_on_c, 7, 76, 0
1, 37588, Note_on_c, 7, 64, 0
1, 37596, Note_on_c, 6, 42, 0
1, 37598, Note_on_c, 0, 87, 120
1, 37598, Note_on_c, 0, 87, 120
1, 37598, Note_on_c, 1, 78, 120
1, 37598, Note_on_c, 2, 83, 120
1, 37598, Note_on_c, 2, 80, 120
1, 37598, Note_on_c, 4, 59, 120
1, 37598, Note_on_c, 4, 56, 120
1, 37598, Note_on_c, 4, 59, 120
1, 37598, Note_on_c, 4, 56, 120
1, 37598, Note_on_c, 4, 59, 120
1, 37598, Note_on_c, 5, 71, 120
1, 37598, Note_on_c, 5, 75, 120
1, 37598, Note_on_c, 5, 75, 120
1, 37598, Note_on_c, 5, 51, 120
1, 37598, Note_on_c, 5, 63, 120
1, 37598, Note_on_c, 5, 63, 120
1, 37598, Note_on_c, 6, 42, 110
1, 37598, Note_on_c, 7, 66, 109
1, 37598, Note_on_c, 7, 54, 109
1, 37598, Control_c, 8, 0, 0
1, 37598, Control_c, 8, 32, 0
1, 37598, Program_c, 8, 48
1, 37598, Note_on_c, 8, 78, 110
1, 37598, Note_on_c, 8, 80, 110
1, 37598, Note_on_c, 8, 87, 110
1, 37598, Control_c, 8, 0, 0
1, 37598, Control_c, 8, 32, 0
1, 37598, Program_c, 8, 49
1, 37598, Note_on_c, 8, 87, 110
1, 37598, Note_on_c, 8, 78, 110
1, 37598, Note_on_c, 8, 80, 110
1, 37598, Note_on_c, 8, 82, 110
1, 37598, Note_on_c, 8, 82, 110
1, 37598, Note_on_c, 8, 70, 110
1, 37598, Note_on_c, 8, 70, 110
1, 37604, Note_on_c, 7, 68, 109
1, 37604, Note_on_c, 7, 56, 109
1, 37611, Note_on_c, 7, 71, 109
1, 37611, Note_on_c, 7, 59, 109
1, 37613, Note_on_c, 6, 42, 0
1, 37615, Note_on_c, 6, 42, 110
1, 37617, Note_on_c, 7, 75, 109
1, 37617, Note_on_c, 7, 63, 109
1, 37630, Note_on_c, 6, 42, 0
1, 37632, Note_on_c, 6, 42, 110
1, 37646, Note_on_c, 6, 42, 0
1, 37648, Note_on_c, 6, 42, 110
1, 37663, Note_on_c, 6, 42, 0
1, 37665, Note_on_c, 6, 42, 110
1, 37680, Note_on_c, 6, 42, 0
1, 37682, Note_on_c, 6, 42, 110
1, 37696, Note_on_c, 6, 42, 0
1, 37698, Note_on_c, 6, 42, 110
1, 37713, Note_on_c, 6, 42, 0
1, 37715, Note_on_c, 6, 42, 110
1, 37730, Note_on_c, 6, 42, 0
1, 37732, Note_on_c, 0, 87, 0
1, 37732, Note_on_c, 0, 87, 0
1, 37732, Note_on_c, 1, 78, 0
1, 37732, Note_on_c, 2, 83, 0
1, 37732, Note_on_c, 2, 80, 0
1, 37732, Note_on_c, 4, 59, 0
1, 37732, Note_on_c, 4, 56, 0
1, 37732, Note_on_c, 4, 59, 0
1, 37732, Note_on_c, 4, 56, 0
1, 37732, Note_on_c, 4, 59, 0
1, 37732, Note_on_c, 5, 71, 0
1, 37732, Control_c, 8, 0, 0
1, 37732, Control_c, 8, 32, 0
1, 37732, Program_c, 8, 48
1, 37732, Note_on_c, 8, 78, 0
1, 37732, Note_on_c, 8, 80, 0
1, 37732, Note_on_c, 8, 87, 0
1, 37732, Control_c, 8, 0, 0
1, 37732, Control_c, 8, 32, 0
1, 37732, Program_c, 8, 49
1, 37732, Note_on_c, 8, 87, 0
1, 37732, Note_on_c, 8, 78, 0
1, 37732, Note_on_c, 8, 80, 0
1, 37732, Note_on_c, 8, 82, 0
1, 37732, Note_on_c, 8, 82, 0
1, 37732, Note_on_c, 8, 70, 0
1, 37732, Note_on_c, 8, 70, 0
1, 37732, Note_on_c, 6, 42, 110
1, 37746, Note_on_c, 6, 42, 0
1, 37748, Note_on_c, 6, 42, 110
1, 37763, Note_on_c, 6, 42, 0
1, 37765, Note_on_c, 6, 42, 110
1, 37769, Note_on_c, 5, 75, 0
1, 37769, Note_on_c, 5, 75, 0
1, 37769, Note_on_c, 5, 51, 0
1, 37769, Note_on_c, 5, 63, 0
1, 37769, Note_on_c, 5, 63, 0
1, 37769, Note_on_c, 7, 66, 0
1, 37769, Note_on_c, 7, 54, 0
1, 37776, Note_on_c, 7, 68, 0
1, 37776, Note_on_c, 7, 56, 0
1, 37780, Note_on_c, 6, 42, 0
1, 37782, Note_on_c, 7, 71, 0
1, 37782, Note_on_c, 7, 59, 0
1, 37782, Control_c, 6, 73, 0
1, 37788, Note_on_c, 7, 75, 0
1, 37788, Note_on_c, 7, 63, 0
1, 37798, Note_on_c, 0, 83, 120
1, 37798, Note_on_c, 0, 83, 120
1, 37798, Note_on_c, 1, 75, 120
1, 37798, Note_on_c, 2, 80, 120
1, 37798, Note_on_c, 2, 76, 120
1, 37798, Note_on_c, 3, 47, 120
1, 37798, Note_on_c, 4, 56, 120
1, 37798, Note_on_c, 4, 52, 120
1, 37798, Note_on_c, 4, 56, 120
1, 37798, Note_on_c, 4, 52, 120
1, 37798, Note_on_c, 4, 56, 120
1, 37798, Note_on_c, 5, 64, 120
1, 37798, Note_on_c, 5, 71, 120
1, 37798, Note_on_c, 5, 71, 120
1, 37798, Note_on_c, 5, 47, 120
1, 37798, Note_on_c, 5, 59, 120
1, 37798, Note_on_c, 5, 59, 120
1, 37798, Note_on_c, 5, 47, 120
1, 37798, Control_c, 6, 73, 86
1, 37798, Note_on_c, 6, 47, 127
1, 37798, Note_on_c, 6, 47, 127
1, 37798, Note_on_c, 7, 63, 103
1, 37798, Note_on_c, 7, 51, 103
1, 37798, Control_c, 8, 0, 0
1, 37798, Control_c, 8, 32, 0
1, 37798, Program_c, 8, 48
1, 37798, Note_on_c, 8, 75, 110
1, 37798, Note_on_c, 8, 83, 110
1, 37798, Note_on_c, 8, 83, 110
1, 37798, Control_c, 8, 0, 0
1, 37798, Control_c, 8, 32, 0
1, 37798, Program_c, 8, 49
1, 37798, Note_on_c, 8, 83, 110
1, 37798, Note_on_c, 8, 75, 110
1, 37798, Note_on_c, 8, 83, 110
1, 37798, Note_on_c, 8, 83, 110
1, 37798, Note_on_c, 8, 83, 110
1, 37798, Note_on_c, 8, 71, 110
1, 37798, Note_on_c, 8, 71, 110
1, 37798, Note_on_c, 8, 35, 120
1, 37798, Note_on_c, 8, 35, 120
1, 37805, Note_on_c, 7, 64, 103
1, 37805, Note_on_c, 7, 52, 103
1, 37811, Note_on_c, 7, 68, 103
1, 37811, Note_on_c, 7, 56, 103
1, 37813, Note_on_c, 6, 47, 0
1, 37813, Note_on_c, 6, 47, 0
1, 37816, Note_on_c, 6, 47, 110
1, 37818, Note_on_c, 7, 71, 103
1, 37818, Note_on_c, 7, 59, 103
1, 37830, Note_on_c, 6, 47, 0
1, 37833, Note_on_c, 6, 47, 110
1, 37848, Note_on_c, 6, 47, 0
1, 37850, Note_on_c, 6, 47, 110
1, 37865, Note_on_c, 6, 47, 0
1, 37867, Note_on_c, 6, 47, 110
1, 37882, Note_on_c, 6, 47, 0
1, 37884, Note_on_c, 6, 47, 110
1, 37899, Note_on_c, 6, 47, 0
1, 37901, Note_on_c, 6, 47, 110
1, 37916, Note_on_c, 6, 47, 0
1, 37918, Note_on_c, 6, 47, 110
1, 37933, Note_on_c, 6, 47, 0
1, 37936, Note_on_c, 0, 83, 0
1, 37936, Note_on_c, 0, 83, 0
1, 37936, Note_on_c, 1, 75, 0
1, 37936, Note_on_c, 2, 80, 0
1, 37936, Note_on_c, 2, 76, 0
1, 37936, Note_on_c, 4, 56, 0
1, 37936, Note_on_c, 4, 52, 0
1, 37936, Note_on_c, 4, 56, 0
1, 37936, Note_on_c, 4, 52, 0
1, 37936, Note_on_c, 4, 56, 0
1, 37936, Note_on_c, 5, 64, 0
1, 37936, Control_c, 8, 0, 0
1, 37936, Control_c, 8, 32, 0
1, 37936, Program_c, 8, 48
1, 37936, Note_on_c, 8, 75, 0
1, 37936, Note_on_c, 8, 83, 0
1, 37936, Note_on_c, 8, 83, 0
1, 37936, Control_c, 8, 0, 0
1, 37936, Control_c, 8, 32, 0
1, 37936, Program_c, 8, 49
1, 37936, Note_on_c, 8, 83, 0
1, 37936, Note_on_c, 8, 75, 0
1, 37936, Note_on_c, 8, 83, 0
1, 37936, Note_on_c, 8, 83, 0
1, 37936, Note_on_c, 8, 83, 0
1, 37936, Note_on_c, 8, 71, 0
1, 37936, Note_on_c, 8, 71, 0
1, 37936, Note_on_c, 6, 47, 110
1, 37950, Note_on_c, 6, 47, 0
1, 37953, Note_on_c, 6, 47, 110
1, 37968, Note_on_c, 6, 47, 0
1, 37970, Note_on_c, 6, 47, 110
1, 37974, Note_on_c, 5, 71, 0
1, 37974, Note_on_c, 5, 71, 0
1, 37974, Note_on_c, 5, 47, 0
1, 37974, Note_on_c, 5, 59, 0
1, 37974, Note_on_c, 5, 59, 0
1, 37974, Note_on_c, 7, 63, 0
1, 37974, Note_on_c, 7, 51, 0
1, 37980, Note_on_c, 7, 64, 0
1, 37980, Note_on_c, 7, 52, 0
1, 37985, Note_on_c, 6, 47, 0
1, 37987, Note_on_c, 7, 68, 0
1, 37987, Note_on_c, 7, 56, 0
1, 37987, Note_on_c, 6, 47, 110
1, 37993, Note_on_c, 7, 71, 0
1, 37993, Note_on_c, 7, 59, 0
1, 38000, Note_on_c, 3, 42, 0
1, 38000, Note_on_c, 5, 42, 0
1, 38000, Note_on_c, 8, 30, 0
1, 38000, Note_on_c, 8, 30, 0
1, 38002, Note_on_c, 6, 47, 0
1, 38004, Note_on_c, 0, 85, 120
1, 38004, Note_on_c, 0, 85, 120
1, 38004, Note_on_c, 1, 76, 120
1, 38004, Note_on_c, 2, 83, 120
1, 38004, Note_on_c, 2, 80, 120
1, 38004, Note_on_c, 4, 59, 120
1, 38004, Note_on_c, 4, 56, 120
1, 38004, Note_on_c, 4, 59, 120
1, 38004, Note_on_c, 4, 56, 120
1, 38004, Note_on_c, 4, 59, 120
1, 38004, Note_on_c, 5, 71, 120
1, 38004, Note_on_c, 5, 73, 120
1, 38004, Note_on_c, 5, 73, 120
1, 38004, Note_on_c, 5, 49, 120
1, 38004, Note_on_c, 5, 61, 120
1, 38004, Note_on_c, 5, 61, 120
1, 38004, Note_on_c, 6, 47, 110
1, 38004, Note_on_c, 7, 64, 102
1, 38004, Note_on_c, 7, 52, 102
1, 38004, Control_c, 8, 0, 0
1, 38004, Control_c, 8, 32, 0
1, 38004, Program_c, 8, 48
1, 38004, Note_on_c, 8, 76, 110
1, 38004, Note_on_c, 8, 83, 110
1, 38004, Note_on_c, 8, 85, 110
1, 38004, Control_c, 8, 0, 0
1, 38004, Control_c, 8, 32, 0
1, 38004, Program_c, 8, 49
1, 38004, Note_on_c, 8, 85, 110
1, 38004, Note_on_c, 8, 76, 110
1, 38004, Note_on_c, 8, 83, 110
1, 38004, Note_on_c, 8, 85, 110
1, 38004, Note_on_c, 8, 85, 110
1, 38004, Note_on_c, 8, 73, 110
1, 38004, Note_on_c, 8, 73, 110
1, 38010, Note_on_c, 7, 68, 102
1, 38010, Note_on_c, 7, 56, 102
1, 38017, Note_on_c, 7, 71, 102
1, 38017, Note_on_c, 7, 59, 102
1, 38019, Note_on_c, 6, 47, 0
1, 38021, Note_on_c, 6, 47, 110
1, 38023, Note_on_c, 7, 73, 102
1, 38023, Note_on_c, 7, 61, 102
1, 38036, Note_on_c, 6, 47, 0
1, 38038, Note_on_c, 6, 47, 110
1, 38053, Note_on_c, 6, 47, 0
1, 38056, Note_on_c, 6, 47, 110
1, 38070, Note_on_c, 6, 47, 0
1, 38073, Note_on_c, 6, 47, 110
1, 38088, Note_on_c, 6, 47, 0
1, 38090, Note_on_c, 6, 47, 110
1, 38105, Note_on_c, 6, 47, 0
1, 38107, Note_on_c, 6, 47, 110
1, 38122, Note_on_c, 6, 47, 0
1, 38124, Note_on_c, 6, 47, 110
1, 38139, Note_on_c, 6, 47, 0
1, 38141, Note_on_c, 0, 85, 0
1, 38141, Note_on_c, 0, 85, 0
1, 38141, Note_on_c, 1, 76, 0
1, 38141, Note_on_c, 2, 83, 0
1, 38141, Note_on_c, 2, 80, 0
1, 38141, Note_on_c, 4, 59, 0
1, 38141, Note_on_c, 4, 56, 0
1, 38141, Note_on_c, 4, 59, 0
1, 38141, Note_on_c, 4, 56, 0
1, 38141, Note_on_c, 4, 59, 0
1, 38141, Note_on_c, 5, 71, 0
1, 38141, Control_c, 8, 0, 0
1, 38141, Control_c, 8, 32, 0
1, 38141, Program_c, 8, 48
1, 38141, Note_on_c, 8, 76, 0
1, 38141, Note_on_c, 8, 83, 0
1, 38141, Note_on_c, 8, 85, 0
1, 38141, Control_c, 8, 0, 0
1, 38141, Control_c, 8, 32, 0
1, 38141, Program_c, 8, 49
1, 38141, Note_on_c, 8, 85, 0
1, 38141, Note_on_c, 8, 76, 0
1, 38141, Note_on_c, 8, 83, 0
1, 38141, Note_on_c, 8, 85, 0
1, 38141, Note_on_c, 8, 85, 0
1, 38141, Note_on_c, 8, 73, 0
1, 38141, Note_on_c, 8, 73, 0
1, 38141, Note_on_c, 6, 47, 110
1, 38156, Note_on_c, 6, 47, 0
1, 38158, Note_on_c, 6, 47, 110
1, 38173, Note_on_c, 6, 47, 0
1, 38176, Note_on_c, 6, 47, 110
1, 38180, Note_on_c, 5, 73, 0
1, 38180, Note_on_c, 5, 73, 0
1, 38180, Note_on_c, 5, 49, 0
1, 38180, Note_on_c, 5, 61, 0
1, 38180, Note_on_c, 5, 61, 0
1, 38180, Note_on_c, 7, 64, 0
1, 38180, Note_on_c, 7, 52, 0
1, 38186, Note_on_c, 7, 68, 0
1, 38186, Note_on_c, 7, 56, 0
1, 38190, Note_on_c, 6, 47, 0
1, 38193, Note_on_c, 7, 71, 0
1, 38193, Note_on_c, 7, 59, 0
1, 38193, Control_c, 6, 73, 0
1, 38193, Note_on_c, 6, 47, 110
1, 38199, Note_on_c, 7, 73, 0
1, 38199, Note_on_c, 7, 61, 0
1, 38206, Note_on_c, 3, 47, 0
1, 38206, Note_on_c, 5, 47, 0
1, 38206, Note_on_c, 8, 35, 0
1, 38206, Note_on_c, 8, 35, 0
1, 38208, Note_on_c, 6, 47, 0
1, 38210, Note_on_c, 0, 88, 120
1, 38210, Note_on_c, 0, 88, 120
1, 38210, Note_on_c, 1, 80, 120
1, 38210, Note_on_c, 2, 87, 120
1, 38210, Note_on_c, 2, 83, 120
1, 38210, Note_on_c, 3, 42, 120
1, 38210, Note_on_c, 4, 63, 120
1, 38210, Note_on_c, 4, 59, 120
1, 38210, Note_on_c, 4, 63, 120
1, 38210, Note_on_c, 4, 59, 120
1, 38210, Note_on_c, 4, 63, 120
1, 38210, Note_on_c, 5, 71, 120
1, 38210, Note_on_c, 5, 76, 120
1, 38210, Note_on_c, 5, 76, 120
1, 38210, Note_on_c, 5, 52, 120
1, 38210, Note_on_c, 5, 64, 120
1, 38210, Note_on_c, 5, 64, 120
1, 38210, Note_on_c, 5, 42, 120
1, 38210, Note_on_c, 6, 42, 120
1, 38210, Note_on_c, 7, 68, 113
1, 38210, Note_on_c, 7, 56, 113
1, 38210, Control_c, 8, 0, 0
1, 38210, Control_c, 8, 32, 0
1, 38210, Program_c, 8, 48
1, 38210, Note_on_c, 8, 80, 110
1, 38210, Note_on_c, 8, 87, 110
1, 38210, Note_on_c, 8, 88, 110
1, 38210, Control_c, 8, 0, 0
1, 38210, Control_c, 8, 32, 0
1, 38210, Program_c, 8, 49
1, 38210, Note_on_c, 8, 88, 110
1, 38210, Note_on_c, 8, 80, 110
1, 38210, Note_on_c, 8, 87, 110
1, 38210, Note_on_c, 8, 76, 110
1, 38210, Note_on_c, 8, 76, 110
1, 38210, Note_on_c, 8, 64, 110
1, 38210, Note_on_c, 8, 64, 110
1, 38210, Note_on_c, 8, 30, 120
1, 38210, Note_on_c, 8, 30, 120
1, 38216, Note_on_c, 7, 71, 113
1, 38216, Note_on_c, 7, 59, 113
1, 38223, Note_on_c, 7, 75, 113
1, 38223, Note_on_c, 7, 63, 113
1, 38229, Note_on_c, 7, 76, 113
1, 38229, Note_on_c, 7, 64, 113
1, 38347, Note_on_c, 0, 88, 0
1, 38347, Note_on_c, 0, 88, 0
1, 38347, Note_on_c, 1, 80, 0
1, 38347, Note_on_c, 2, 87, 0
1, 38347, Note_on_c, 2, 83, 0
1, 38347, Note_on_c, 4, 63, 0
1, 38347, Note_on_c, 4, 59, 0
1, 38347, Note_on_c, 4, 63, 0
1, 38347, Note_on_c, 4, 59, 0
1, 38347, Note_on_c, 4, 63, 0
1, 38347, Note_on_c, 5, 71, 0
1, 38347, Control_c, 8, 0, 0
1, 38347, Control_c, 8, 32, 0
1, 38347, Program_c, 8, 48
1, 38347, Note_on_c, 8, 80, 0
1, 38347, Note_on_c, 8, 87, 0
1, 38347, Note_on_c, 8, 88, 0
1, 38347, Control_c, 8, 0, 0
1, 38347, Control_c, 8, 32, 0
1, 38347, Program_c, 8, 49
1, 38347, Note_on_c, 8, 88, 0
1, 38347, Note_on_c, 8, 80, 0
1, 38347, Note_on_c, 8, 87, 0
1, 38347, Note_on_c, 8, 76, 0
1, 38347, Note_on_c, 8, 76, 0
1, 38347, Note_on_c, 8, 64, 0
1, 38347, Note_on_c, 8, 64, 0
1, 38386, Note_on_c, 3, 42, 0
1, 38386, Note_on_c, 5, 76, 0
1, 38386, Note_on_c, 5, 76, 0
1, 38386, Note_on_c, 5, 52, 0
1, 38386, Note_on_c, 5, 64, 0
1, 38386, Note_on_c, 5, 64, 0
1, 38386, Note_on_c, 5, 42, 0
1, 38386, Note_on_c, 6, 42, 0
1, 38386, Note_on_c, 7, 68, 0
1, 38386, Note_on_c, 7, 56, 0
1, 38386, Note_on_c, 8, 30, 0
1, 38386, Note_on_c, 8, 30, 0
1, 38392, Note_on_c, 7, 71, 0
1, 38392, Note_on_c, 7, 59, 0
1, 38398, Note_on_c, 7, 75, 0
1, 38398, Note_on_c, 7, 63, 0
1, 38405, Note_on_c, 7, 76, 0
1, 38405, Note_on_c, 7, 64, 0
1, 38416, Note_on_c, 0, 87, 120
1, 38416, Note_on_c, 0, 87, 120
1, 38416, Note_on_c, 1, 78, 120
1, 38416, Note_on_c, 2, 83, 120
1, 38416, Note_on_c, 2, 80, 120
1, 38416, Note_on_c, 3, 47, 120
1, 38416, Note_on_c, 4, 59, 120
1, 38416, Note_on_c, 4, 56, 120
1, 38416, Note_on_c, 4, 59, 120
1, 38416, Note_on_c, 4, 56, 120
1, 38416, Note_on_c, 4, 59, 120
1, 38416, Note_on_c, 5, 71, 120
1, 38416, Note_on_c, 5, 75, 120
1, 38416, Note_on_c, 5, 75, 120
1, 38416, Note_on_c, 5, 51, 120
1, 38416, Note_on_c, 5, 63, 120
1, 38416, Note_on_c, 5, 63, 120
1, 38416, Note_on_c, 5, 47, 120
1, 38416, Note_on_c, 6, 47, 120
1, 38416, Note_on_c, 7, 66, 113
1, 38416, Note_on_c, 7, 54, 113
1, 38416, Control_c, 8, 0, 0
1, 38416, Control_c, 8, 32, 0
1, 38416, Program_c, 8, 48
1, 38416, Note_on_c, 8, 78, 110
1, 38416, Note_on_c, 8, 83, 110
1, 38416, Note_on_c, 8, 87, 110
1, 38416, Control_c, 8, 0, 0
1, 38416, Control_c, 8, 32, 0
1, 38416, Program_c, 8, 49
1, 38416, Note_on_c, 8, 87, 110
1, 38416, Note_on_c, 8, 78, 110
1, 38416, Note_on_c, 8, 83, 110
1, 38416, Note_on_c, 8, 78, 110
1, 38416, Note_on_c, 8, 78, 110
1, 38416, Note_on_c, 8, 66, 110
1, 38416, Note_on_c, 8, 66, 110
1, 38416, Note_on_c, 8, 35, 120
1, 38416, Note_on_c, 8, 35, 120
1, 38422, Note_on_c, 7, 68, 113
1, 38422, Note_on_c, 7, 56, 113
1, 38429, Note_on_c, 7, 71, 113
1, 38429, Note_on_c, 7, 59, 113
1, 38435, Note_on_c, 7, 75, 113
1, 38435, Note_on_c, 7, 63, 113
1, 38557, Note_on_c, 0, 87, 0
1, 38557, Note_on_c, 0, 87, 0
1, 38557, Note_on_c, 1, 78, 0
1, 38557, Note_on_c, 2, 83, 0
1, 38557, Note_on_c, 2, 80, 0
1, 38557, Note_on_c, 4, 59, 0
1, 38557, Note_on_c, 4, 56, 0
1, 38557, Note_on_c, 4, 59, 0
1, 38557, Note_on_c, 4, 56, 0
1, 38557, Note_on_c, 4, 59, 0
1, 38557, Note_on_c, 5, 71, 0
1, 38557, Control_c, 8, 0, 0
1, 38557, Control_c, 8, 32, 0
1, 38557, Program_c, 8, 48
1, 38557, Note_on_c, 8, 78, 0
1, 38557, Note_on_c, 8, 83, 0
1, 38557, Note_on_c, 8, 87, 0
1, 38557, Control_c, 8, 0, 0
1, 38557, Control_c, 8, 32, 0
1, 38557, Program_c, 8, 49
1, 38557, Note_on_c, 8, 87, 0
1, 38557, Note_on_c, 8, 78, 0
1, 38557, Note_on_c, 8, 83, 0
1, 38557, Note_on_c, 8, 78, 0
1, 38557, Note_on_c, 8, 78, 0
1, 38557, Note_on_c, 8, 66, 0
1, 38557, Note_on_c, 8, 66, 0
1, 38596, Note_on_c, 3, 47, 0
1, 38596, Note_on_c, 5, 75, 0
1, 38596, Note_on_c, 5, 75, 0
1, 38596, Note_on_c, 5, 51, 0
1, 38596, Note_on_c, 5, 63, 0
1, 38596, Note_on_c, 5, 63, 0
1, 38596, Note_on_c, 5, 47, 0
1, 38596, Note_on_c, 6, 47, 0
1, 38596, Note_on_c, 7, 66, 0
1, 38596, Note_on_c, 7, 54, 0
1, 38596, Note_on_c, 8, 35, 0
1, 38596, Note_on_c, 8, 35, 0
1, 38603, Note_on_c, 7, 68, 0
1, 38603, Note_on_c, 7, 56, 0
1, 38610, Note_on_c, 7, 71, 0
1, 38610, Note_on_c, 7, 59, 0
1, 38616, Note_on_c, 7, 75, 0
1, 38616, Note_on_c, 7, 63, 0
1, 38627, Note_on_c, 0, 85, 120
1, 38627, Note_on_c, 0, 85, 120
1, 38627, Note_on_c, 1, 76, 120
1, 38627, Note_on_c, 2, 83, 120
1, 38627, Note_on_c, 2, 80, 120
1, 38627, Note_on_c, 3, 42, 120
1, 38627, Note_on_c, 4, 59, 120
1, 38627, Note_on_c, 4, 56, 120
1, 38627, Note_on_c, 4, 59, 120
1, 38627, Note_on_c, 4, 56, 120
1, 38627, Note_on_c, 4, 59, 120
1, 38627, Note_on_c, 5, 71, 120
1, 38627, Note_on_c, 5, 73, 120
1, 38627, Note_on_c, 5, 73, 120
1, 38627, Note_on_c, 5, 49, 120
1, 38627, Note_on_c, 5, 61, 120
1, 38627, Note_on_c, 5, 61, 120
1, 38627, Note_on_c, 5, 42, 120
1, 38627, Note_on_c, 6, 42, 120
1, 38627, Note_on_c, 7, 64, 111
1, 38627, Note_on_c, 7, 52, 111
1, 38627, Control_c, 8, 0, 0
1, 38627, Control_c, 8, 32, 0
1, 38627, Program_c, 8, 48
1, 38627, Note_on_c, 8, 76, 110
1, 38627, Note_on_c, 8, 83, 110
1, 38627, Note_on_c, 8, 85, 110
1, 38627, Control_c, 8, 0, 0
1, 38627, Control_c, 8, 32, 0
1, 38627, Program_c, 8, 49
1, 38627, Note_on_c, 8, 85, 110
1, 38627, Note_on_c, 8, 76, 110
1, 38627, Note_on_c, 8, 83, 110
1, 38627, Note_on_c, 8, 80, 110
1, 38627, Note_on_c, 8, 80, 110
1, 38627, Note_on_c, 8, 68, 110
1, 38627, Note_on_c, 8, 68, 110
1, 38627, Note_on_c, 8, 30, 120
1, 38627, Note_on_c, 8, 30, 120
1, 38634, Note_on_c, 7, 68, 111
1, 38634, Note_on_c, 7, 56, 111
1, 38641, Note_on_c, 7, 71, 111
1, 38641, Note_on_c, 7, 59, 111
1, 38648, Note_on_c, 7, 73, 111
1, 38648, Note_on_c, 7, 61, 111
1, 38773, Note_on_c, 0, 85, 0
1, 38773, Note_on_c, 0, 85, 0
1, 38773, Note_on_c, 1, 76, 0
1, 38773, Note_on_c, 2, 83, 0
1, 38773, Note_on_c, 2, 80, 0
1, 38773, Note_on_c, 4, 59, 0
1, 38773, Note_on_c, 4, 56, 0
1, 38773, Note_on_c, 4, 59, 0
1, 38773, Note_on_c, 4, 56, 0
1, 38773, Note_on_c, 4, 59, 0
1, 38773, Note_on_c, 5, 71, 0
1, 38773, Control_c, 8, 0, 0
1, 38773, Control_c, 8, 32, 0
1, 38773, Program_c, 8, 48
1, 38773, Note_on_c, 8, 76, 0
1, 38773, Note_on_c, 8, 83, 0
1, 38773, Note_on_c, 8, 85, 0
1, 38773, Control_c, 8, 0, 0
1, 38773, Control_c, 8, 32, 0
1, 38773, Program_c, 8, 49
1, 38773, Note_on_c, 8, 85, 0
1, 38773, Note_on_c, 8, 76, 0
1, 38773, Note_on_c, 8, 83, 0
1, 38773, Note_on_c, 8, 80, 0
1, 38773, Note_on_c, 8, 80, 0
1, 38773, Note_on_c, 8, 68, 0
1, 38773, Note_on_c, 8, 68, 0
1, 38814, Note_on_c, 3, 42, 0
1, 38814, Note_on_c, 5, 73, 0
1, 38814, Note_on_c, 5, 73, 0
1, 38814, Note_on_c, 5, 49, 0
1, 38814, Note_on_c, 5, 61, 0
1, 38814, Note_on_c, 5, 61, 0
1, 38814, Note_on_c, 5, 42, 0
1, 38814, Note_on_c, 6, 42, 0
1, 38814, Note_on_c, 7, 64, 0
1, 38814, Note_on_c, 7, 52, 0
1, 38814, Note_on_c, 8, 30, 0
1, 38814, Note_on_c, 8, 30, 0
1, 38820, Note_on_c, 7, 68, 0
1, 38820, Note_on_c, 7, 56, 0
1, 38827, Note_on_c, 7, 71, 0
1, 38827, Note_on_c, 7, 59, 0
1, 38834, Note_on_c, 7, 73, 0
1, 38834, Note_on_c, 7, 61, 0
1, 38846, Note_on_c, 0, 88, 120
1, 38846, Note_on_c, 0, 88, 120
1, 38846, Note_on_c, 1, 80, 120
1, 38846, Note_on_c, 2, 87, 120
1, 38846, Note_on_c, 2, 83, 120
1, 38846, Note_on_c, 3, 47, 120
1, 38846, Note_on_c, 4, 63, 120
1, 38846, Note_on_c, 4, 59, 120
1, 38846, Note_on_c, 4, 63, 120
1, 38846, Note_on_c, 4, 59, 120
1, 38846, Note_on_c, 4, 63, 120
1, 38846, Note_on_c, 5, 71, 120
1, 38846, Note_on_c, 5, 76, 120
1, 38846, Note_on_c, 5, 76, 120
1, 38846, Note_on_c, 5, 52, 120
1, 38846, Note_on_c, 5, 64, 120
1, 38846, Note_on_c, 5, 64, 120
1, 38846, Note_on_c, 5, 47, 120
1, 38846, Note_on_c, 6, 47, 120
1, 38846, Note_on_c, 7, 68, 111
1, 38846, Note_on_c, 7, 56, 111
1, 38846, Control_c, 8, 0, 0
1, 38846, Control_c, 8, 32, 0
1, 38846, Program_c, 8, 48
1, 38846, Note_on_c, 8, 80, 110
1, 38846, Note_on_c, 8, 80, 110
1, 38846, Note_on_c, 8, 88, 110
1, 38846, Control_c, 8, 0, 0
1, 38846, Control_c, 8, 32, 0
1, 38846, Program_c, 8, 49
1, 38846, Note_on_c, 8, 88, 110
1, 38846, Note_on_c, 8, 80, 110
1, 38846, Note_on_c, 8, 80, 110
1, 38846, Note_on_c, 8, 80, 110
1, 38846, Note_on_c, 8, 80, 110
1, 38846, Note_on_c, 8, 68, 110
1, 38846, Note_on_c, 8, 68, 110
1, 38846, Note_on_c, 8, 35, 120
1, 38846, Note_on_c, 8, 35, 120
1, 38852, Note_on_c, 7, 71, 111
1, 38852, Note_on_c, 7, 59, 111
1, 38860, Note_on_c, 7, 75, 111
1, 38860, Note_on_c, 7, 63, 111
1, 38866, Note_on_c, 7, 76, 111
1, 38866, Note_on_c, 7, 64, 111
1, 38996, Note_on_c, 0, 88, 0
1, 38996, Note_on_c, 0, 88, 0
1, 38996, Note_on_c, 1, 80, 0
1, 38996, Note_on_c, 2, 87, 0
1, 38996, Note_on_c, 2, 83, 0
1, 38996, Note_on_c, 4, 63, 0
1, 38996, Note_on_c, 4, 59, 0
1, 38996, Note_on_c, 4, 63, 0
1, 38996, Note_on_c, 4, 59, 0
1, 38996, Note_on_c, 4, 63, 0
1, 38996, Note_on_c, 5, 71, 0
1, 38996, Control_c, 8, 0, 0
1, 38996, Control_c, 8, 32, 0
1, 38996, Program_c, 8, 48
1, 38996, Note_on_c, 8, 80, 0
1, 38996, Note_on_c, 8, 80, 0
1, 38996, Note_on_c, 8, 88, 0
1, 38996, Control_c, 8, 0, 0
1, 38996, Control_c, 8, 32, 0
1, 38996, Program_c, 8, 49
1, 38996, Note_on_c, 8, 88, 0
1, 38996, Note_on_c, 8, 80, 0
1, 38996, Note_on_c, 8, 80, 0
1, 38996, Note_on_c, 8, 80, 0
1, 38996, Note_on_c, 8, 80, 0
1, 38996, Note_on_c, 8, 68, 0
1, 38996, Note_on_c, 8, 68, 0
1, 39038, Note_on_c, 3, 47, 0
1, 39038, Note_on_c, 5, 76, 0
1, 39038, Note_on_c, 5, 76, 0
1, 39038, Note_on_c, 5, 52, 0
1, 39038, Note_on_c, 5, 64, 0
1, 39038, Note_on_c, 5, 64, 0
1, 39038, Note_on_c, 5, 47, 0
1, 39038, Note_on_c, 6, 47, 0
1, 39038, Note_on_c, 7, 68, 0
1, 39038, Note_on_c, 7, 56, 0
1, 39038, Note_on_c, 8, 35, 0
1, 39038, Note_on_c, 8, 35, 0
1, 39045, Note_on_c, 7, 71, 0
1, 39045, Note_on_c, 7, 59, 0
1, 39052, Note_on_c, 7, 75, 0
1, 39052, Note_on_c, 7, 63, 0
1, 39059, Note_on_c, 7, 76, 0
1, 39059, Note_on_c, 7, 64, 0
1, 39070, Note_on_c, 0, 87, 120
1, 39070, Note_on_c, 0, 87, 120
1, 39070, Note_on_c, 1, 78, 120
1, 39070, Note_on_c, 2, 83, 120
1, 39070, Note_on_c, 2, 80, 120
1, 39070, Note_on_c, 3, 42, 120
1, 39070, Note_on_c, 4, 59, 120
1, 39070, Note_on_c, 4, 56, 120
1, 39070, Note_on_c, 4, 59, 120
1, 39070, Note_on_c, 4, 56, 120
1, 39070, Note_on_c, 4, 59, 120
1, 39070, Note_on_c, 5, 71, 120
1, 39070, Note_on_c, 5, 75, 120
1, 39070, Note_on_c, 5, 75, 120
1, 39070, Note_on_c, 5, 51, 120
1, 39070, Note_on_c, 5, 63, 120
1, 39070, Note_on_c, 5, 63, 120
1, 39070, Note_on_c, 5, 42, 120
1, 39070, Note_on_c, 6, 42, 120
1, 39070, Note_on_c, 7, 66, 109
1, 39070, Note_on_c, 7, 54, 109
1, 39070, Control_c, 8, 0, 0
1, 39070, Control_c, 8, 32, 0
1, 39070, Program_c, 8, 48
1, 39070, Note_on_c, 8, 78, 110
1, 39070, Note_on_c, 8, 80, 110
1, 39070, Note_on_c, 8, 87, 110
1, 39070, Control_c, 8, 0, 0
1, 39070, Control_c, 8, 32, 0
1, 39070, Program_c, 8, 49
1, 39070, Note_on_c, 8, 87, 110
1, 39070, Note_on_c, 8, 78, 110
1, 39070, Note_on_c, 8, 80, 110
1, 39070, Note_on_c, 8, 82, 110
1, 39070, Note_on_c, 8, 82, 110
1, 39070, Note_on_c, 8, 70, 110
1, 39070, Note_on_c, 8, 70, 110
1, 39070, Note_on_c, 8, 30, 120
1, 39070, Note_on_c, 8, 30, 120
1, 39078, Note_on_c, 7, 68, 109
1, 39078, Note_on_c, 7, 56, 109
1, 39085, Note_on_c, 7, 71, 109
1, 39085, Note_on_c, 7, 59, 109
1, 39092, Note_on_c, 7, 75, 109
1, 39092, Note_on_c, 7, 63, 109
1, 39225, Note_on_c, 0, 87, 0
1, 39225, Note_on_c, 0, 87, 0
1, 39225, Note_on_c, 1, 78, 0
1, 39225, Note_on_c, 2, 83, 0
1, 39225, Note_on_c, 2, 80, 0
1, 39225, Note_on_c, 4, 59, 0
1, 39225, Note_on_c, 4, 56, 0
1, 39225, Note_on_c, 4, 59, 0
1, 39225, Note_on_c, 4, 56, 0
1, 39225, Note_on_c, 4, 59, 0
1, 39225, Note_on_c, 5, 71, 0
1, 39225, Control_c, 8, 0, 0
1, 39225, Control_c, 8, 32, 0
1, 39225, Program_c, 8, 48
1, 39225, Note_on_c, 8, 78, 0
1, 39225, Note_on_c, 8, 80, 0
1, 39225, Note_on_c, 8, 87, 0
1, 39225, Control_c, 8, 0, 0
1, 39225, Control_c, 8, 32, 0
1, 39225, Program_c, 8, 49
1, 39225, Note_on_c, 8, 87, 0
1, 39225, Note_on_c, 8, 78, 0
1, 39225, Note_on_c, 8, 80, 0
1, 39225, Note_on_c, 8, 82, 0
1, 39225, Note_on_c, 8, 82, 0
1, 39225, Note_on_c, 8, 70, 0
1, 39225, Note_on_c, 8, 70, 0
1, 39269, Note_on_c, 3, 42, 0
1, 39269, Note_on_c, 5, 75, 0
1, 39269, Note_on_c, 5, 75, 0
1, 39269, Note_on_c, 5, 51, 0
1, 39269, Note_on_c, 5, 63, 0
1, 39269, Note_on_c, 5, 63, 0
1, 39269, Note_on_c, 5, 42, 0
1, 39269, Note_on_c, 6, 42, 0
1, 39269, Note_on_c, 7, 66, 0
1, 39269, Note_on_c, 7, 54, 0
1, 39269, Note_on_c, 8, 30, 0
1, 39269, Note_on_c, 8, 30, 0
1, 39276, Note_on_c, 7, 68, 0
1, 39276, Note_on_c, 7, 56, 0
1, 39283, Note_on_c, 7, 71, 0
1, 39283, Note_on_c, 7, 59, 0
1, 39290, Note_on_c, 7, 75, 0
1, 39290, Note_on_c, 7, 63, 0
1, 39303, Note_on_c, 0, 83, 120
1, 39303, Note_on_c, 0, 83, 120
1, 39303, Note_on_c, 1, 75, 120
1, 39303, Note_on_c, 2, 80, 120
1, 39303, Note_on_c, 2, 76, 120
1, 39303, Note_on_c, 3, 47, 120
1, 39303, Note_on_c, 4, 56, 120
1, 39303, Note_on_c, 4, 52, 120
1, 39303, Note_on_c, 4, 56, 120
1, 39303, Note_on_c, 4, 52, 120
1, 39303, Note_on_c, 4, 56, 120
1, 39303, Note_on_c, 5, 64, 120
1, 39303, Note_on_c, 5, 71, 120
1, 39303, Note_on_c, 5, 71, 120
1, 39303, Note_on_c, 5, 47, 120
1, 39303, Note_on_c, 5, 59, 120
1, 39303, Note_on_c, 5, 59, 120
1, 39303, Note_on_c, 5, 47, 120
1, 39303, Note_on_c, 6, 47, 120
1, 39303, Note_on_c, 7, 63, 103
1, 39303, Note_on_c, 7, 51, 103
1, 39303, Control_c, 8, 0, 0
1, 39303, Control_c, 8, 32, 0
1, 39303, Program_c, 8, 48
1, 39303, Note_on_c, 8, 75, 110
1, 39303, Note_on_c, 8, 83, 110
1, 39303, Note_on_c, 8, 83, 110
1, 39303, Control_c, 8, 0, 0
1, 39303, Control_c, 8, 32, 0
1, 39303, Program_c, 8, 49
1, 39303, Note_on_c, 8, 83, 110
1, 39303, Note_on_c, 8, 75, 110
1, 39303, Note_on_c, 8, 83, 110
1, 39303, Note_on_c, 8, 83, 110
1, 39303, Note_on_c, 8, 83, 110
1, 39303, Note_on_c, 8, 71, 110
1, 39303, Note_on_c, 8, 71, 110
1, 39303, Note_on_c, 8, 35, 120
1, 39303, Note_on_c, 8, 35, 120
1, 39311, Note_on_c, 7, 64, 103
1, 39311, Note_on_c, 7, 52, 103
1, 39319, Note_on_c, 7, 68, 103
1, 39319, Note_on_c, 7, 56, 103
1, 39328, Note_on_c, 7, 71, 103
1, 39328, Note_on_c, 7, 59, 103
1, 39480, Note_on_c, 0, 83, 0
1, 39480, Note_on_c, 0, 83, 0
1, 39480, Note_on_c, 1, 75, 0
1, 39480, Note_on_c, 2, 80, 0
1, 39480, Note_on_c, 2, 76, 0
1, 39480, Note_on_c, 4, 56, 0
1, 39480, Note_on_c, 4, 52, 0
1, 39480, Note_on_c, 4, 56, 0
1, 39480, Note_on_c, 4, 52, 0
1, 39480, Note_on_c, 4, 56, 0
1, 39480, Note_on_c, 5, 64, 0
1, 39480, Control_c, 8, 0, 0
1, 39480, Control_c, 8, 32, 0
1, 39480, Program_c, 8, 48
1, 39480, Note_on_c, 8, 75, 0
1, 39480, Note_on_c, 8, 83, 0
1, 39480, Note_on_c, 8, 83, 0
1, 39480, Control_c, 8, 0, 0
1, 39480, Control_c, 8, 32, 0
1, 39480, Program_c, 8, 49
1, 39480, Note_on_c, 8, 83, 0
1, 39480, Note_on_c, 8, 75, 0
1, 39480, Note_on_c, 8, 83, 0
1, 39480, Note_on_c, 8, 83, 0
1, 39480, Note_on_c, 8, 83, 0
1, 39480, Note_on_c, 8, 71, 0
1, 39480, Note_on_c, 8, 71, 0
1, 39530, Note_on_c, 3, 47, 0
1, 39530, Note_on_c, 5, 71, 0
1, 39530, Note_on_c, 5, 71, 0
1, 39530, Note_on_c, 5, 47, 0
1, 39530, Note_on_c, 5, 59, 0
1, 39530, Note_on_c, 5, 59, 0
1, 39530, Note_on_c, 5, 47, 0
1, 39530, Note_on_c, 6, 47, 0
1, 39530, Note_on_c, 7, 63, 0
1, 39530, Note_on_c, 7, 51, 0
1, 39530, Note_on_c, 8, 35, 0
1, 39530, Note_on_c, 8, 35, 0
1, 39539, Note_on_c, 7, 64, 0
1, 39539, Note_on_c, 7, 52, 0
1, 39547, Note_on_c, 7, 68, 0
1, 39547, Note_on_c, 7, 56, 0
1, 39556, Note_on_c, 7, 71, 0
1, 39556, Note_on_c, 7, 59, 0
1, 39569, Note_on_c, 0, 85, 120
1, 39569, Note_on_c, 0, 85, 120
1, 39569, Note_on_c, 1, 76, 120
1, 39569, Note_on_c, 2, 83, 120
1, 39569, Note_on_c, 2, 80, 120
1, 39569, Note_on_c, 3, 42, 120
1, 39569, Note_on_c, 4, 59, 120
1, 39569, Note_on_c, 4, 56, 120
1, 39569, Note_on_c, 4, 59, 120
1, 39569, Note_on_c, 4, 56, 120
1, 39569, Note_on_c, 4, 59, 120
1, 39569, Note_on_c, 5, 71, 120
1, 39569, Note_on_c, 5, 73, 120
1, 39569, Note_on_c, 5, 73, 120
1, 39569, Note_on_c, 5, 49, 120
1, 39569, Note_on_c, 5, 61, 120
1, 39569, Note_on_c, 5, 61, 120
1, 39569, Note_on_c, 5, 42, 120
1, 39569, Note_on_c, 6, 42, 120
1, 39569, Note_on_c, 7, 64, 102
1, 39569, Note_on_c, 7, 52, 102
1, 39569, Control_c, 8, 0, 0
1, 39569, Control_c, 8, 32, 0
1, 39569, Program_c, 8, 48
1, 39569, Note_on_c, 8, 76, 110
1, 39569, Note_on_c, 8, 83, 110
1, 39569, Note_on_c, 8, 85, 110
1, 39569, Control_c, 8, 0, 0
1, 39569, Control_c, 8, 32, 0
1, 39569, Program_c, 8, 49
1, 39569, Note_on_c, 8, 85, 110
1, 39569, Note_on_c, 8, 76, 110
1, 39569, Note_on_c, 8, 83, 110
1, 39569, Note_on_c, 8, 85, 110
1, 39569, Note_on_c, 8, 85, 110
1, 39569, Note_on_c, 8, 73, 110
1, 39569, Note_on_c, 8, 73, 110
1, 39569, Note_on_c, 8, 30, 120
1, 39569, Note_on_c, 8, 30, 120
1, 39582, Note_on_c, 7, 68, 102
1, 39582, Note_on_c, 7, 56, 102
1, 39596, Note_on_c, 7, 71, 102
1, 39596, Note_on_c, 7, 59, 102
1, 39609, Note_on_c, 7, 73, 102
1, 39609, Note_on_c, 7, 61, 102
1, 39852, Note_on_c, 0, 85, 0
1, 39852, Note_on_c, 0, 85, 0
1, 39852, Note_on_c, 1, 76, 0
1, 39852, Note_on_c, 2, 83, 0
1, 39852, Note_on_c, 2, 80, 0
1, 39852, Note_on_c, 4, 59, 0
1, 39852, Note_on_c, 4, 56, 0
1, 39852, Note_on_c, 4, 59, 0
1, 39852, Note_on_c, 4, 56, 0
1, 39852, Note_on_c, 4, 59, 0
1, 39852, Note_on_c, 5, 71, 0
1, 39852, Control_c, 8, 0, 0
1, 39852, Control_c, 8, 32, 0
1, 39852, Program_c, 8, 48
1, 39852, Note_on_c, 8, 76, 0
1, 39852, Note_on_c, 8, 83, 0
1, 39852, Note_on_c, 8, 85, 0
1, 39852, Control_c, 8, 0, 0
1, 39852, Control_c, 8, 32, 0
1, 39852, Program_c, 8, 49
1, 39852, Note_on_c, 8, 85, 0
1, 39852, Note_on_c, 8, 76, 0
1, 39852, Note_on_c, 8, 83, 0
1, 39852, Note_on_c, 8, 85, 0
1, 39852, Note_on_c, 8, 85, 0
1, 39852, Note_on_c, 8, 73, 0
1, 39852, Note_on_c, 8, 73, 0
1, 39931, Note_on_c, 3, 42, 0
1, 39931, Note_on_c, 5, 73, 0
1, 39931, Note_on_c, 5, 73, 0
1, 39931, Note_on_c, 5, 49, 0
1, 39931, Note_on_c, 5, 61, 0
1, 39931, Note_on_c, 5, 61, 0
1, 39931, Note_on_c, 5, 42, 0
1, 39931, Note_on_c, 6, 42, 0
1, 39931, Note_on_c, 7, 64, 0
1, 39931, Note_on_c, 7, 52, 0
1, 39931, Note_on_c, 8, 30, 0
1, 39931, Note_on_c, 8, 30, 0
1, 39944, Note_on_c, 7, 68, 0
1, 39944, Note_on_c, 7, 56, 0
1, 39958, Note_on_c, 7, 71, 0
1, 39958, Note_on_c, 7, 59, 0
1, 39971, Note_on_c, 7, 73, 0
1, 39971, Note_on_c, 7, 61, 0
1, 39993, Note_on_c, 0, 83, 127
1, 39993, Note_on_c, 0, 95, 127
1, 39993, Note_on_c, 1, 83, 127
1, 39993, Note_on_c, 2, 83, 127
1, 39993, Note_on_c, 3, 47, 127
1, 39993, Note_on_c, 3, 59, 127
1, 39993, Note_on_c, 4, 59, 127
1, 39993, Note_on_c, 4, 71, 127
1, 39993, Note_on_c, 4, 71, 127
1, 39993, Note_on_c, 4, 59, 127
1, 39993, Note_on_c, 5, 83, 127
1, 39993, Note_on_c, 5, 71, 127
1, 39993, Note_on_c, 5, 71, 127
1, 39993, Note_on_c, 5, 59, 127
1, 39993, Note_on_c, 5, 47, 127
1, 39993, Note_on_c, 5, 35, 127
1, 39993, Note_on_c, 6, 47, 120
1, 39993, Note_on_c, 9, 81, 127
1, 39993, Note_on_c, 9, 44, 86
1, 39993, Note_on_c, 9, 35, 127
1, 39993, Note_on_c, 9, 29, 127
1, 39993, Note_on_c, 8, 59, 127
1, 39993, Note_on_c, 8, 47, 127
1, 39993, Note_on_c, 8, 47, 127
1, 39997, Control_c, 8, 0, 0
1, 39997, Control_c, 8, 32, 0
1, 39997, Program_c, 8, 48
1, 39997, Note_on_c, 8, 95, 127
1, 39997, Note_on_c, 8, 95, 127
1, 39997, Control_c, 8, 0, 0
1, 39997, Control_c, 8, 32, 0
1, 39997, Program_c, 8, 49
1, 39997, Note_on_c, 8, 71, 127
1, 39997, Note_on_c, 8, 71, 127
1, 39997, Note_on_c, 8, 83, 127
1, 39997, Note_on_c, 8, 83, 127
1, 39997, Note_on_c, 8, 71, 127
1, 39997, Note_on_c, 8, 59, 127
1, 40005, Note_on_c, 9, 42, 127
1, 40010, Note_on_c, 9, 46, 127
1, 40018, Note_on_c, 9, 81, 0
1, 40018, Note_on_c, 9, 81, 127
1, 40022, Note_on_c, 9, 49, 127
1, 40026, Note_on_c, 9, 57, 127
1, 40026, Note_on_c, 9, 55, 127
1, 40043, Note_on_c, 9, 81, 0
1, 40043, Note_on_c, 9, 81, 127
1, 40055, Note_on_c, 9, 46, 0
1, 40068, Note_on_c, 9, 44, 0
1, 40068, Note_on_c, 9, 81, 0
1, 40068, Note_on_c, 9, 81, 127
1, 40080, Note_on_c, 9, 42, 0
1, 40093, Note_on_c, 9, 81, 0
1, 40093, Note_on_c, 9, 81, 127
1, 40118, Note_on_c, 9, 81, 0
1, 40118, Note_on_c, 9, 81, 127
1, 40126, Note_on_c, 9, 35, 0
1, 40126, Note_on_c, 9, 29, 0
1, 40143, Note_on_c, 9, 81, 0
1, 40143, Note_on_c, 9, 81, 127
1, 40168, Note_on_c, 1, 83, 0
1, 40168, Note_on_c, 2, 83, 0
1, 40168, Note_on_c, 4, 59, 0
1, 40168, Note_on_c, 4, 71, 0
1, 40168, Note_on_c, 4, 71, 0
1, 40168, Note_on_c, 4, 59, 0
1, 40168, Note_on_c, 5, 83, 0
1, 40168, Note_on_c, 5, 71, 0
1, 40168, Note_on_c, 5, 71, 0
1, 40168, Note_on_c, 5, 59, 0
1, 40168, Note_on_c, 5, 47, 0
1, 40168, Note_on_c, 5, 35, 0
1, 40168, Note_on_c, 6, 47, 0
1, 40168, Note_on_c, 9, 81, 0
1, 40168, Note_on_c, 9, 81, 127
1, 40193, Note_on_c, 9, 81, 0
1, 40193, Note_on_c, 9, 81, 127
1, 40218, Note_on_c, 9, 81, 0
1, 40218, Note_on_c, 9, 81, 127
1, 40243, Note_on_c, 9, 81, 0
1, 40243, Note_on_c, 9, 81, 127
1, 40268, Note_on_c, 9, 81, 0
1, 40268, Note_on_c, 9, 81, 127
1, 40293, Note_on_c, 9, 81, 0
1, 40293, Note_on_c, 9, 81, 127
1, 40318, Note_on_c, 9, 81, 0
1, 40318, Note_on_c, 9, 81, 127
1, 40343, Note_on_c, 9, 81, 0
1, 40343, Note_on_c, 9, 81, 127
1, 40368, Note_on_c, 9, 81, 0
1, 40368, Note_on_c, 9, 81, 127
1, 40393, Note_on_c, 9, 81, 0
1, 40393, Note_on_c, 9, 81, 127
1, 40418, Note_on_c, 9, 81, 0
1, 40418, Note_on_c, 9, 81, 127
1, 40443, Note_on_c, 9, 81, 0
1, 40443, Note_on_c, 9, 81, 127
1, 40468, Note_on_c, 9, 81, 0
1, 40468, Note_on_c, 9, 81, 127
1, 40493, Note_on_c, 9, 81, 0
1, 40493, Note_on_c, 9, 81, 127
1, 40518, Note_on_c, 9, 81, 0
1, 40518, Note_on_c, 9, 81, 127
1, 40543, Note_on_c, 9, 81, 0
1, 40543, Note_on_c, 9, 81, 127
1, 40568, Note_on_c, 9, 81, 0
1, 40568, Note_on_c, 9, 81, 127
1, 40593, Note_on_c, 9, 81, 0
1, 40593, Note_on_c, 9, 81, 127
1, 40614, Note_on_c, 9, 49, 0
1, 40618, Note_on_c, 9, 57, 0
1, 40618, Note_on_c, 9, 55, 0
1, 40618, Note_on_c, 9, 81, 0
1, 40618, Note_on_c, 9, 81, 127
1, 40643, Note_on_c, 9, 81, 0
1, 40643, Note_on_c, 9, 81, 127
1, 40668, Note_on_c, 9, 81, 0
1, 40668, Note_on_c, 9, 81, 127
1, 40693, Note_on_c, 9, 81, 0
1, 40693, Note_on_c, 9, 81, 127
1, 40718, Note_on_c, 9, 81, 0
1, 40718, Note_on_c, 9, 81, 127
1, 40743, Note_on_c, 9, 81, 0
1, 40743, Note_on_c, 9, 81, 127
1, 40768, Note_on_c, 9, 81, 0
1, 40768, Note_on_c, 9, 81, 127
1, 40793, Note_on_c, 9, 81, 0
1, 40793, Note_on_c, 4, 63, 127
1, 40793, Note_on_c, 4, 66, 127
1, 40793, Note_on_c, 4, 59, 127
1, 40793, Note_on_c, 4, 59, 127
1, 40793, Note_on_c, 4, 66, 127
1, 40793, Note_on_c, 5, 71, 127
1, 40793, Note_on_c, 5, 71, 127
1, 40793, Note_on_c, 5, 59, 127
1, 40793, Note_on_c, 5, 59, 127
1, 40793, Note_on_c, 5, 54, 127
1, 40793, Note_on_c, 5, 51, 127
1, 40793, Note_on_c, 5, 59, 127
1, 40793, Note_on_c, 5, 59, 127
1, 40793, Note_on_c, 5, 47, 127
1, 40793, Note_on_c, 5, 47, 127
1, 40793, Note_on_c, 9, 81, 127
1, 40818, Note_on_c, 9, 81, 0
1, 40818, Note_on_c, 9, 81, 127
1, 40843, Note_on_c, 9, 81, 0
1, 40843, Note_on_c, 9, 81, 127
1, 40868, Note_on_c, 9, 81, 0
1, 40868, Note_on_c, 9, 81, 127
1, 40893, Note_on_c, 9, 81, 0
1, 40893, Note_on_c, 9, 81, 127
1, 40918, Note_on_c, 9, 81, 0
1, 40918, Note_on_c, 9, 81, 127
1, 40943, Note_on_c, 9, 81, 0
1, 40943, Note_on_c, 9, 81, 127
1, 40968, Note_on_c, 9, 81, 0
1, 40968, Note_on_c, 9, 81, 127
1, 40993, Note_on_c, 9, 81, 0
1, 40993, Note_on_c, 9, 81, 127
1, 41018, Note_on_c, 9, 81, 0
1, 41018, Note_on_c, 9, 81, 127
1, 41043, Note_on_c, 9, 81, 0
1, 41043, Note_on_c, 9, 81, 127
1, 41068, Note_on_c, 9, 81, 0
1, 41068, Note_on_c, 9, 81, 127
1, 41093, Note_on_c, 9, 81, 0
1, 41093, Note_on_c, 9, 81, 127
1, 41118, Note_on_c, 9, 81, 0
1, 41118, Note_on_c, 9, 81, 127
1, 41143, Note_on_c, 9, 81, 0
1, 41143, Note_on_c, 9, 81, 127
1, 41168, Note_on_c, 4, 63, 0
1, 41168, Note_on_c, 4, 66, 0
1, 41168, Note_on_c, 4, 59, 0
1, 41168, Note_on_c, 4, 59, 0
1, 41168, Note_on_c, 4, 66, 0
1, 41168, Note_on_c, 5, 71, 0
1, 41168, Note_on_c, 5, 71, 0
1, 41168, Note_on_c, 5, 59, 0
1, 41168, Note_on_c, 5, 59, 0
1, 41168, Note_on_c, 5, 54, 0
1, 41168, Note_on_c, 5, 51, 0
1, 41168, Note_on_c, 5, 59, 0
1, 41168, Note_on_c, 5, 59, 0
1, 41168, Note_on_c, 5, 47, 0
1, 41168, Note_on_c, 5, 47, 0
1, 41168, Note_on_c, 9, 81, 0
1, 41168, Note_on_c, 9, 81, 127
1, 41193, Note_on_c, 9, 81, 0
1, 41193, Note_on_c, 4, 60, 127
1, 41193, Note_on_c, 4, 60, 127
1, 41193, Note_on_c, 4, 64, 127
1, 41193, Note_on_c, 4, 67, 127
1, 41193, Note_on_c, 4, 67, 127
1, 41193, Note_on_c, 5, 60, 127
1, 41193, Note_on_c, 5, 60, 127
1, 41193, Note_on_c, 5, 72, 127
1, 41193, Note_on_c, 5, 72, 127
1, 41193, Note_on_c, 5, 48, 127
1, 41193, Note_on_c, 5, 48, 127
1, 41193, Note_on_c, 5, 52, 127
1, 41193, Note_on_c, 5, 55, 127
1, 41193, Note_on_c, 5, 60, 127
1, 41193, Note_on_c, 5, 60, 127
1, 41193, Note_on_c, 9, 81, 127
1, 41218, Note_on_c, 9, 81, 0
1, 41218, Note_on_c, 9, 81, 127
1, 41243, Note_on_c, 9, 81, 0
1, 41243, Note_on_c, 9, 81, 127
1, 41268, Note_on_c, 9, 81, 0
1, 41268, Note_on_c, 9, 81, 127
1, 41293, Note_on_c, 9, 81, 0
1, 41293, Note_on_c, 9, 81, 127
1, 41318, Note_on_c, 9, 81, 0
1, 41318, Note_on_c, 9, 81, 127
1, 41343, Note_on_c, 9, 81, 0
1, 41343, Note_on_c, 9, 81, 127
1, 41368, Note_on_c, 9, 81, 0
1, 41368, Note_on_c, 9, 81, 127
1, 41393, Note_on_c, 9, 81, 0
1, 41393, Note_on_c, 9, 81, 127
1, 41418, Note_on_c, 9, 81, 0
1, 41418, Note_on_c, 9, 81, 127
1, 41443, Note_on_c, 9, 81, 0
1, 41443, Note_on_c, 9, 81, 127
1, 41468, Note_on_c, 9, 81, 0
1, 41468, Note_on_c, 9, 81, 127
1, 41493, Note_on_c, 9, 81, 0
1, 41493, Note_on_c, 9, 81, 127
1, 41518, Note_on_c, 9, 81, 0
1, 41518, Note_on_c, 9, 81, 127
1, 41543, Note_on_c, 9, 81, 0
1, 41543, Note_on_c, 9, 81, 127
1, 41568, Note_on_c, 9, 81, 0
1, 41568, Note_on_c, 9, 81, 127
1, 41593, Note_on_c, 9, 81, 0
1, 41593, Note_on_c, 9, 81, 127
1, 41618, Note_on_c, 9, 81, 0
1, 41618, Note_on_c, 9, 81, 127
1, 41643, Note_on_c, 9, 81, 0
1, 41643, Note_on_c, 9, 81, 127
1, 41668, Note_on_c, 9, 81, 0
1, 41668, Note_on_c, 9, 81, 127
1, 41693, Note_on_c, 9, 81, 0
1, 41693, Note_on_c, 9, 81, 127
1, 41718, Note_on_c, 9, 81, 0
1, 41718, Note_on_c, 9, 81, 127
1, 41743, Note_on_c, 9, 81, 0
1, 41743, Note_on_c, 9, 81, 127
1, 41768, Note_on_c, 9, 81, 0
1, 41768, Note_on_c, 9, 81, 127
1, 41793, Note_on_c, 9, 81, 0
1, 41793, Note_on_c, 9, 81, 127
1, 41818, Note_on_c, 9, 81, 0
1, 41818, Note_on_c, 9, 81, 127
1, 41843, Note_on_c, 9, 81, 0
1, 41843, Note_on_c, 9, 81, 127
1, 41868, Note_on_c, 9, 81, 0
1, 41868, Note_on_c, 9, 81, 127
1, 41893, Note_on_c, 9, 81, 0
1, 41893, Note_on_c, 9, 81, 127
1, 41918, Note_on_c, 9, 81, 0
1, 41918, Note_on_c, 9, 81, 127
1, 41943, Note_on_c, 9, 81, 0
1, 41943, Note_on_c, 9, 81, 127
1, 41968, Note_on_c, 4, 60, 0
1, 41968, Note_on_c, 4, 60, 0
1, 41968, Note_on_c, 4, 64, 0
1, 41968, Note_on_c, 4, 67, 0
1, 41968, Note_on_c, 4, 67, 0
1, 41968, Note_on_c, 5, 60, 0
1, 41968, Note_on_c, 5, 60, 0
1, 41968, Note_on_c, 5, 72, 0
1, 41968, Note_on_c, 5, 72, 0
1, 41968, Note_on_c, 5, 48, 0
1, 41968, Note_on_c, 5, 48, 0
1, 41968, Note_on_c, 5, 52, 0
1, 41968, Note_on_c, 5, 55, 0
1, 41968, Note_on_c, 5, 60, 0
1, 41968, Note_on_c, 5, 60, 0
1, 41968, Note_on_c, 9, 81, 0
1, 41968, Note_on_c, 9, 81, 127
1, 41993, Note_on_c, 9, 81, 0
1, 41993, Note_on_c, 4, 61, 127
1, 41993, Note_on_c, 4, 61, 127
1, 41993, Note_on_c, 4, 65, 127
1, 41993, Note_on_c, 4, 68, 127
1, 41993, Note_on_c, 4, 68, 127
1, 41993, Note_on_c, 5, 61, 127
1, 41993, Note_on_c, 5, 61, 127
1, 41993, Note_on_c, 5, 73, 127
1, 41993, Note_on_c, 5, 73, 127
1, 41993, Note_on_c, 5, 49, 127
1, 41993, Note_on_c, 5, 49, 127
1, 41993, Note_on_c, 5, 53, 127
1, 41993, Note_on_c, 5, 56, 127
1, 41993, Note_on_c, 5, 61, 127
1, 41993, Note_on_c, 5, 61, 127
1, 41993, Note_on_c, 9, 81, 127
1, 42018, Note_on_c, 9, 81, 0
1, 42018, Note_on_c, 9, 81, 127
1, 42043, Note_on_c, 9, 81, 0
1, 42043, Note_on_c, 9, 81, 127
1, 42068, Note_on_c, 9, 81, 0
1, 42068, Note_on_c, 9, 81, 127
1, 42093, Note_on_c, 9, 81, 0
1, 42093, Note_on_c, 9, 81, 127
1, 42118, Note_on_c, 9, 81, 0
1, 42118, Note_on_c, 9, 81, 127
1, 42143, Note_on_c, 9, 81, 0
1, 42143, Note_on_c, 9, 81, 127
1, 42168, Note_on_c, 9, 81, 0
1, 42168, Note_on_c, 9, 81, 127
1, 42193, Note_on_c, 9, 81, 0
1, 42193, Note_on_c, 9, 81, 127
1, 42218, Note_on_c, 9, 81, 0
1, 42218, Note_on_c, 9, 81, 127
1, 42243, Note_on_c, 9, 81, 0
1, 42243, Note_on_c, 9, 81, 127
1, 42268, Note_on_c, 9, 81, 0
1, 42268, Note_on_c, 9, 81, 127
1, 42293, Note_on_c, 9, 81, 0
1, 42293, Note_on_c, 9, 81, 127
1, 42318, Note_on_c, 9, 81, 0
1, 42318, Note_on_c, 9, 81, 127
1, 42343, Note_on_c, 9, 81, 0
1, 42343, Note_on_c, 9, 81, 127
1, 42368, Note_on_c, 9, 81, 0
1, 42368, Note_on_c, 9, 81, 127
1, 42393, Note_on_c, 9, 81, 0
1, 42393, Note_on_c, 9, 81, 127
1, 42418, Note_on_c, 9, 81, 0
1, 42418, Note_on_c, 9, 81, 127
1, 42443, Note_on_c, 9, 81, 0
1, 42443, Note_on_c, 9, 81, 127
1, 42468, Note_on_c, 9, 81, 0
1, 42468, Note_on_c, 9, 81, 127
1, 42493, Note_on_c, 9, 81, 0
1, 42493, Note_on_c, 9, 81, 127
1, 42518, Note_on_c, 9, 81, 0
1, 42518, Note_on_c, 9, 81, 127
1, 42543, Note_on_c, 9, 81, 0
1, 42543, Note_on_c, 9, 81, 127
1, 42568, Note_on_c, 9, 81, 0
1, 42568, Note_on_c, 9, 81, 127
1, 42593, Note_on_c, 9, 81, 0
1, 42593, Note_on_c, 9, 81, 127
1, 42618, Note_on_c, 9, 81, 0
1, 42618, Note_on_c, 9, 81, 127
1, 42643, Note_on_c, 9, 81, 0
1, 42643, Note_on_c, 9, 81, 127
1, 42668, Note_on_c, 9, 81, 0
1, 42668, Note_on_c, 9, 81, 127
1, 42693, Note_on_c, 9, 81, 0
1, 42693, Note_on_c, 9, 81, 127
1, 42718, Note_on_c, 9, 81, 0
1, 42718, Note_on_c, 9, 81, 127
1, 42743, Note_on_c, 9, 81, 0
1, 42743, Note_on_c, 9, 81, 127
1, 42768, Note_on_c, 4, 61, 0
1, 42768, Note_on_c, 4, 61, 0
1, 42768, Note_on_c, 4, 65, 0
1, 42768, Note_on_c, 4, 68, 0
1, 42768, Note_on_c, 4, 68, 0
1, 42768, Note_on_c, 5, 61, 0
1, 42768, Note_on_c, 5, 61, 0
1, 42768, Note_on_c, 5, 73, 0
1, 42768, Note_on_c, 5, 73, 0
1, 42768, Note_on_c, 5, 49, 0
1, 42768, Note_on_c, 5, 49, 0
1, 42768, Note_on_c, 5, 53, 0
1, 42768, Note_on_c, 5, 56, 0
1, 42768, Note_on_c, 5, 61, 0
1, 42768, Note_on_c, 5, 61, 0
1, 42768, Note_on_c, 9, 81, 0
1, 42768, Note_on_c, 9, 81, 127
1, 42793, Note_on_c, 9, 81, 0
1, 42793, Note_on_c, 4, 69, 127
1, 42793, Note_on_c, 4, 72, 127
1, 42793, Note_on_c, 4, 65, 127
1, 42793, Note_on_c, 4, 65, 127
1, 42793, Note_on_c, 4, 72, 127
1, 42793, Note_on_c, 5, 77, 127
1, 42793, Note_on_c, 5, 77, 127
1, 42793, Note_on_c, 5, 65, 127
1, 42793, Note_on_c, 5, 65, 127
1, 42793, Note_on_c, 5, 60, 127
1, 42793, Note_on_c, 5, 57, 127
1, 42793, Note_on_c, 5, 65, 127
1, 42793, Note_on_c, 5, 65, 127
1, 42793, Note_on_c, 5, 53, 127
1, 42793, Note_on_c, 5, 53, 127
1, 42793, Note_on_c, 9, 81, 127
1, 42818, Note_on_c, 9, 81, 0
1, 42818, Note_on_c, 9, 81, 127
1, 42843, Note_on_c, 9, 81, 0
1, 42843, Note_on_c, 9, 81, 127
1, 42868, Note_on_c, 9, 81, 0
1, 42868, Note_on_c, 9, 81, 127
1, 42893, Note_on_c, 9, 81, 0
1, 42893, Note_on_c, 9, 81, 127
1, 42918, Note_on_c, 9, 81, 0
1, 42918, Note_on_c, 9, 81, 127
1, 42943, Note_on_c, 9, 81, 0
1, 42943, Note_on_c, 9, 81, 127
1, 42968, Note_on_c, 9, 81, 0
1, 42968, Note_on_c, 9, 81, 127
1, 42993, Note_on_c, 9, 81, 0
1, 42993, Note_on_c, 9, 81, 127
1, 43018, Note_on_c, 9, 81, 0
1, 43018, Note_on_c, 9, 81, 127
1, 43043, Note_on_c, 9, 81, 0
1, 43043, Note_on_c, 9, 81, 127
1, 43068, Note_on_c, 9, 81, 0
1, 43068, Note_on_c, 9, 81, 127
1, 43093, Note_on_c, 9, 81, 0
1, 43093, Note_on_c, 9, 81, 127
1, 43118, Note_on_c, 9, 81, 0
1, 43118, Note_on_c, 9, 81, 127
1, 43143, Note_on_c, 9, 81, 0
1, 43143, Note_on_c, 9, 81, 127
1, 43168, Note_on_c, 4, 69, 0
1, 43168, Note_on_c, 4, 72, 0
1, 43168, Note_on_c, 4, 65, 0
1, 43168, Note_on_c, 4, 65, 0
1, 43168, Note_on_c, 4, 72, 0
1, 43168, Note_on_c, 5, 77, 0
1, 43168, Note_on_c, 5, 77, 0
1, 43168, Note_on_c, 5, 65, 0
1, 43168, Note_on_c, 5, 65, 0
1, 43168, Note_on_c, 5, 60, 0
1, 43168, Note_on_c, 5, 57, 0
1, 43168, Note_on_c, 5, 65, 0
1, 43168, Note_on_c, 5, 65, 0
1, 43168, Note_on_c, 5, 53, 0
1, 43168, Note_on_c, 5, 53, 0
1, 43168, Note_on_c, 9, 81, 0
1, 43168, Note_on_c, 9, 81, 127
1, 43193, Note_on_c, 9, 81, 0
1, 43193, Note_on_c, 4, 65, 127
1, 43193, Note_on_c, 4, 68, 127
1, 43193, Note_on_c, 4, 61, 127
1, 43193, Note_on_c, 4, 61, 127
1, 43193, Note_on_c, 4, 68, 127
1, 43193, Note_on_c, 5, 73, 127
1, 43193, Note_on_c, 5, 73, 127
1, 43193, Note_on_c, 5, 61, 127
1, 43193, Note_on_c, 5, 61, 127
1, 43193, Note_on_c, 5, 56, 127
1, 43193, Note_on_c, 5, 53, 127
1, 43193, Note_on_c, 5, 61, 127
1, 43193, Note_on_c, 5, 61, 127
1, 43193, Note_on_c, 5, 49, 127
1, 43193, Note_on_c, 5, 49, 127
1, 43193, Note_on_c, 9, 81, 127
1, 43218, Note_on_c, 9, 81, 0
1, 43218, Note_on_c, 9, 81, 127
1, 43243, Note_on_c, 9, 81, 0
1, 43243, Note_on_c, 9, 81, 127
1, 43268, Note_on_c, 9, 81, 0
1, 43268, Note_on_c, 9, 81, 127
1, 43293, Note_on_c, 9, 81, 0
1, 43293, Note_on_c, 9, 81, 127
1, 43318, Note_on_c, 9, 81, 0
1, 43318, Note_on_c, 9, 81, 127
1, 43343, Note_on_c, 9, 81, 0
1, 43343, Note_on_c, 9, 81, 127
1, 43368, Note_on_c, 9, 81, 0
1, 43368, Note_on_c, 9, 81, 127
1, 43393, Note_on_c, 9, 81, 0
1, 43393, Note_on_c, 9, 81, 127
1, 43418, Note_on_c, 9, 81, 0
1, 43418, Note_on_c, 9, 81, 127
1, 43443, Note_on_c, 9, 81, 0
1, 43443, Note_on_c, 9, 81, 127
1, 43468, Note_on_c, 9, 81, 0
1, 43468, Note_on_c, 9, 81, 127
1, 43493, Note_on_c, 9, 81, 0
1, 43493, Note_on_c, 9, 81, 127
1, 43518, Note_on_c, 9, 81, 0
1, 43518, Note_on_c, 9, 81, 127
1, 43543, Note_on_c, 9, 81, 0
1, 43543, Note_on_c, 9, 81, 127
1, 43568, Note_on_c, 4, 65, 0
1, 43568, Note_on_c, 4, 68, 0
1, 43568, Note_on_c, 4, 61, 0
1, 43568, Note_on_c, 4, 61, 0
1, 43568, Note_on_c, 4, 68, 0
1, 43568, Note_on_c, 5, 73, 0
1, 43568, Note_on_c, 5, 73, 0
1, 43568, Note_on_c, 5, 61, 0
1, 43568, Note_on_c, 5, 61, 0
1, 43568, Note_on_c, 5, 56, 0
1, 43568, Note_on_c, 5, 53, 0
1, 43568, Note_on_c, 5, 61, 0
1, 43568, Note_on_c, 5, 61, 0
1, 43568, Note_on_c, 5, 49, 0
1, 43568, Note_on_c, 5, 49, 0
1, 43568, Note_on_c, 9, 81, 0
1, 43568, Note_on_c, 9, 81, 127
1, 43593, Note_on_c, 9, 81, 0
1, 43593, Note_on_c, 4, 64, 127
1, 43593, Note_on_c, 4, 67, 127
1, 43593, Note_on_c, 4, 60, 127
1, 43593, Note_on_c, 4, 60, 127
1, 43593, Note_on_c, 4, 67, 127
1, 43593, Note_on_c, 5, 72, 127
1, 43593, Note_on_c, 5, 72, 127
1, 43593, Note_on_c, 5, 60, 127
1, 43593, Note_on_c, 5, 60, 127
1, 43593, Note_on_c, 5, 55, 127
1, 43593, Note_on_c, 5, 52, 127
1, 43593, Note_on_c, 5, 60, 127
1, 43593, Note_on_c, 5, 60, 127
1, 43593, Note_on_c, 5, 48, 127
1, 43593, Note_on_c, 5, 48, 127
1, 43593, Note_on_c, 9, 81, 127
1, 43618, Note_on_c, 9, 81, 0
1, 43618, Note_on_c, 9, 81, 127
1, 43643, Note_on_c, 9, 81, 0
1, 43643, Note_on_c, 9, 81, 127
1, 43668, Note_on_c, 9, 81, 0
1, 43668, Note_on_c, 9, 81, 127
1, 43693, Note_on_c, 9, 81, 0
1, 43693, Note_on_c, 9, 81, 127
1, 43718, Note_on_c, 9, 81, 0
1, 43718, Note_on_c, 9, 81, 127
1, 43743, Note_on_c, 9, 81, 0
1, 43743, Note_on_c, 9, 81, 127
1, 43768, Note_on_c, 9, 81, 0
1, 43768, Note_on_c, 9, 81, 127
1, 43793, Note_on_c, 9, 81, 0
1, 43793, Note_on_c, 9, 81, 117
1, 43829, Note_on_c, 9, 81, 0
1, 43829, Note_on_c, 9, 81, 106
1, 43865, Note_on_c, 9, 81, 0
1, 43865, Note_on_c, 9, 81, 95
1, 43889, Note_on_c, 0, 83, 0
1, 43889, Note_on_c, 0, 95, 0
1, 43889, Note_on_c, 3, 47, 0
1, 43889, Note_on_c, 3, 59, 0
1, 43889, Note_on_c, 8, 47, 0
1, 43889, Note_on_c, 8, 59, 0
1, 43889, Note_on_c, 4, 64, 0
1, 43889, Note_on_c, 4, 67, 0
1, 43889, Note_on_c, 4, 60, 0
1, 43889, Note_on_c, 4, 60, 0
1, 43889, Note_on_c, 4, 67, 0
1, 43889, Note_on_c, 5, 72, 0
1, 43889, Note_on_c, 5, 72, 0
1, 43889, Note_on_c, 5, 60, 0
1, 43889, Note_on_c, 5, 60, 0
1, 43889, Note_on_c, 5, 55, 0
1, 43889, Note_on_c, 5, 52, 0
1, 43889, Note_on_c, 5, 60, 0
1, 43889, Note_on_c, 5, 60, 0
1, 43889, Note_on_c, 5, 48, 0
1, 43889, Note_on_c, 5, 48, 0
1, 43895, Note_on_c, 8, 59, 0
1, 43895, Note_on_c, 8, 47, 0
1, 43895, Control_c, 8, 0, 0
1, 43895, Control_c, 8, 32, 0
1, 43895, Program_c, 8, 48
1, 43895, Note_on_c, 8, 95, 0
1, 43895, Note_on_c, 8, 95, 0
1, 43895, Control_c, 8, 0, 0
1, 43895, Control_c, 8, 32, 0
1, 43895, Program_c, 8, 49
1, 43895, Note_on_c, 8, 71, 0
1, 43895, Note_on_c, 8, 71, 0
1, 43895, Note_on_c, 8, 83, 0
1, 43895, Note_on_c, 8, 83, 0
1, 43895, Note_on_c, 8, 71, 0
1, 43901, Note_on_c, 9, 81, 0
1, 43967, Control_c, 2, 11, 30
1, 44045, Control_c, 0, 11, 30
1, 44045, Control_c, 1, 11, 30
1, 44045, Control_c, 3, 11, 30
1, 44045, Control_c, 4, 11, 30
1, 44045, Control_c, 5, 11, 30
1, 44045, Control_c, 8, 11, 30
1, 44081, Control_c, 0, 11, 35
1, 44081, Note_on_c, 0, 83, 127
1, 44081, Note_on_c, 0, 95, 127
1, 44081, Control_c, 1, 11, 35
1, 44081, Note_on_c, 1, 78, 127
1, 44081, Note_on_c, 1, 83, 127
1, 44081, Control_c, 2, 11, 35
1, 44081, Note_on_c, 2, 78, 127
1, 44081, Note_on_c, 2, 83, 127
1, 44081, Control_c, 3, 11, 35
1, 44081, Note_on_c, 3, 35, 127
1, 44081, Control_c, 4, 11, 35
1, 44081, Note_on_c, 4, 59, 127
1, 44081, Note_on_c, 4, 63, 127
1, 44081, Note_on_c, 4, 66, 127
1, 44081, Note_on_c, 4, 66, 127
1, 44081, Control_c, 5, 11, 35
1, 44081, Note_on_c, 5, 63, 127
1, 44081, Note_on_c, 5, 71, 127
1, 44081, Note_on_c, 5, 47, 127
1, 44081, Note_on_c, 5, 51, 127
1, 44081, Note_on_c, 5, 54, 127
1, 44081, Note_on_c, 5, 59, 127
1, 44081, Control_c, 6, 73, 80
1, 44081, Note_on_c, 9, 81, 35
1, 44081, Control_c, 8, 11, 35
1, 44081, Control_c, 8, 0, 0
1, 44081, Control_c, 8, 32, 0
1, 44081, Program_c, 8, 48
1, 44081, Note_on_c, 8, 75, 127
1, 44081, Note_on_c, 8, 83, 127
1, 44081, Control_c, 8, 0, 0
1, 44081, Control_c, 8, 32, 0
1, 44081, Program_c, 8, 49
1, 44081, Note_on_c, 8, 71, 127
1, 44081, Note_on_c, 8, 78, 127
1, 44081, Note_on_c, 8, 59, 127
1, 44081, Note_on_c, 8, 66, 127
1, 44081, Note_on_c, 8, 47, 127
1, 44081, Note_on_c, 8, 35, 127
1, 44085, Note_on_c, 6, 47, 35
1, 44106, Note_on_c, 9, 81, 0
1, 44106, Note_on_c, 9, 81, 36
1, 44114, Note_on_c, 6, 47, 0
1, 44114, Note_on_c, 6, 47, 36
1, 44127, Control_c, 0, 11, 38
1, 44127, Control_c, 1, 11, 38
1, 44127, Control_c, 2, 11, 38
1, 44127, Control_c, 3, 11, 38
1, 44127, Control_c, 4, 11, 38
1, 44127, Control_c, 5, 11, 38
1, 44127, Control_c, 8, 11, 38
1, 44131, Note_on_c, 9, 81, 0
1, 44131, Note_on_c, 9, 81, 37
1, 44143, Note_on_c, 6, 47, 0
1, 44148, Note_on_c, 6, 47, 38
1, 44156, Note_on_c, 9, 81, 0
1, 44156, Note_on_c, 9, 81, 39
1, 44177, Note_on_c, 6, 47, 0
1, 44181, Note_on_c, 9, 81, 0
1, 44181, Control_c, 0, 11, 41
1, 44181, Control_c, 1, 11, 41
1, 44181, Control_c, 2, 11, 41
1, 44181, Control_c, 3, 11, 41
1, 44181, Control_c, 4, 11, 41
1, 44181, Control_c, 5, 11, 41
1, 44181, Note_on_c, 6, 47, 40
1, 44181, Note_on_c, 9, 81, 40
1, 44181, Control_c, 8, 11, 41
1, 44206, Note_on_c, 9, 81, 0
1, 44206, Note_on_c, 9, 81, 42
1, 44210, Note_on_c, 6, 47, 0
1, 44214, Note_on_c, 6, 47, 42
1, 44231, Note_on_c, 9, 81, 0
1, 44231, Control_c, 0, 11, 44
1, 44231, Control_c, 1, 11, 44
1, 44231, Control_c, 2, 11, 44
1, 44231, Control_c, 3, 11, 44
1, 44231, Control_c, 4, 11, 44
1, 44231, Control_c, 5, 11, 44
1, 44231, Note_on_c, 9, 81, 43
1, 44231, Control_c, 8, 11, 44
1, 44243, Note_on_c, 6, 47, 0
1, 44248, Note_on_c, 6, 47, 44
1, 44256, Note_on_c, 9, 81, 0
1, 44256, Note_on_c, 9, 81, 45
1, 44277, Note_on_c, 6, 47, 0
1, 44281, Note_on_c, 9, 81, 0
1, 44281, Control_c, 0, 11, 46
1, 44281, Control_c, 1, 11, 46
1, 44281, Control_c, 2, 11, 46
1, 44281, Control_c, 3, 11, 46
1, 44281, Control_c, 4, 11, 46
1, 44281, Control_c, 5, 11, 46
1, 44281, Note_on_c, 6, 47, 46
1, 44281, Note_on_c, 9, 81, 46
1, 44281, Control_c, 8, 11, 46
1, 44306, Note_on_c, 9, 81, 0
1, 44306, Note_on_c, 9, 81, 47
1, 44310, Note_on_c, 6, 47, 0
1, 44314, Note_on_c, 6, 47, 48
1, 44331, Note_on_c, 9, 81, 0
1, 44331, Control_c, 0, 11, 49
1, 44331, Control_c, 1, 11, 49
1, 44331, Control_c, 2, 11, 49
1, 44331, Control_c, 3, 11, 49
1, 44331, Control_c, 4, 11, 49
1, 44331, Control_c, 5, 11, 49
1, 44331, Note_on_c, 9, 81, 49
1, 44331, Control_c, 8, 11, 49
1, 44343, Note_on_c, 6, 47, 0
1, 44348, Note_on_c, 6, 47, 50
1, 44356, Note_on_c, 9, 81, 0
1, 44356, Note_on_c, 9, 81, 50
1, 44377, Note_on_c, 6, 47, 0
1, 44381, Note_on_c, 9, 81, 0
1, 44381, Control_c, 0, 11, 52
1, 44381, Control_c, 1, 11, 52
1, 44381, Control_c, 2, 11, 52
1, 44381, Control_c, 3, 11, 52
1, 44381, Control_c, 4, 11, 52
1, 44381, Control_c, 5, 11, 52
1, 44381, Note_on_c, 6, 47, 52
1, 44381, Note_on_c, 9, 81, 52
1, 44381, Control_c, 8, 11, 52
1, 44406, Note_on_c, 9, 81, 0
1, 44406, Note_on_c, 9, 81, 53
1, 44410, Note_on_c, 6, 47, 0
1, 44414, Note_on_c, 6, 47, 54
1, 44431, Note_on_c, 9, 81, 0
1, 44431, Control_c, 0, 11, 55
1, 44431, Control_c, 1, 11, 55
1, 44431, Control_c, 2, 11, 55
1, 44431, Control_c, 3, 11, 55
1, 44431, Control_c, 4, 11, 55
1, 44431, Control_c, 5, 11, 55
1, 44431, Note_on_c, 9, 81, 55
1, 44431, Control_c, 8, 11, 55
1, 44443, Note_on_c, 6, 47, 0
1, 44448, Note_on_c, 6, 47, 56
1, 44456, Note_on_c, 9, 81, 0
1, 44456, Note_on_c, 9, 81, 56
1, 44477, Note_on_c, 6, 47, 0
1, 44481, Note_on_c, 9, 81, 0
1, 44481, Control_c, 0, 11, 58
1, 44481, Control_c, 1, 11, 58
1, 44481, Control_c, 2, 11, 58
1, 44481, Control_c, 3, 11, 58
1, 44481, Control_c, 4, 11, 58
1, 44481, Control_c, 5, 11, 58
1, 44481, Note_on_c, 6, 47, 58
1, 44481, Note_on_c, 9, 81, 58
1, 44481, Control_c, 8, 11, 58
1, 44506, Note_on_c, 9, 81, 0
1, 44506, Note_on_c, 9, 81, 59
1, 44510, Note_on_c, 6, 47, 0
1, 44514, Note_on_c, 6, 47, 59
1, 44527, Control_c, 0, 11, 61
1, 44527, Control_c, 1, 11, 61
1, 44527, Control_c, 2, 11, 61
1, 44527, Control_c, 3, 11, 61
1, 44527, Control_c, 4, 11, 61
1, 44527, Control_c, 5, 11, 61
1, 44527, Control_c, 8, 11, 61
1, 44531, Note_on_c, 9, 81, 0
1, 44531, Note_on_c, 9, 81, 60
1, 44543, Note_on_c, 6, 47, 0
1, 44548, Note_on_c, 6, 47, 61
1, 44556, Note_on_c, 9, 81, 0
1, 44556, Note_on_c, 9, 81, 62
1, 44577, Note_on_c, 6, 47, 0
1, 44581, Note_on_c, 9, 81, 0
1, 44581, Control_c, 0, 11, 64
1, 44581, Control_c, 1, 11, 64
1, 44581, Control_c, 2, 11, 64
1, 44581, Control_c, 3, 11, 64
1, 44581, Control_c, 4, 11, 64
1, 44581, Control_c, 5, 11, 64
1, 44581, Note_on_c, 6, 47, 63
1, 44581, Note_on_c, 9, 81, 63
1, 44581, Control_c, 8, 11, 64
1, 44606, Note_on_c, 9, 81, 0
1, 44606, Note_on_c, 9, 81, 65
1, 44610, Note_on_c, 6, 47, 0
1, 44614, Note_on_c, 6, 47, 65
1, 44631, Note_on_c, 9, 81, 0
1, 44631, Control_c, 0, 11, 67
1, 44631, Control_c, 1, 11, 67
1, 44631, Control_c, 2, 11, 67
1, 44631, Control_c, 3, 11, 67
1, 44631, Control_c, 4, 11, 67
1, 44631, Control_c, 5, 11, 67
1, 44631, Note_on_c, 9, 81, 66
1, 44631, Control_c, 8, 11, 67
1, 44643, Note_on_c, 6, 47, 0
1, 44648, Note_on_c, 6, 47, 67
1, 44656, Note_on_c, 9, 81, 0
1, 44656, Note_on_c, 9, 81, 68
1, 44677, Note_on_c, 6, 47, 0
1, 44681, Note_on_c, 9, 81, 0
1, 44681, Control_c, 0, 11, 70
1, 44681, Control_c, 1, 11, 70
1, 44681, Control_c, 2, 11, 70
1, 44681, Control_c, 3, 11, 70
1, 44681, Control_c, 4, 11, 70
1, 44681, Control_c, 5, 11, 70
1, 44681, Note_on_c, 6, 47, 69
1, 44681, Note_on_c, 9, 81, 69
1, 44681, Control_c, 8, 11, 70
1, 44706, Note_on_c, 9, 81, 0
1, 44706, Note_on_c, 9, 81, 70
1, 44710, Note_on_c, 6, 47, 0
1, 44714, Note_on_c, 6, 47, 71
1, 44731, Note_on_c, 9, 81, 0
1, 44731, Control_c, 0, 11, 73
1, 44731, Control_c, 1, 11, 73
1, 44731, Control_c, 2, 11, 73
1, 44731, Control_c, 3, 11, 73
1, 44731, Control_c, 4, 11, 73
1, 44731, Control_c, 5, 11, 73
1, 44731, Note_on_c, 9, 81, 72
1, 44731, Control_c, 8, 11, 73
1, 44743, Note_on_c, 6, 47, 0
1, 44748, Note_on_c, 6, 47, 73
1, 44756, Note_on_c, 9, 81, 0
1, 44756, Note_on_c, 9, 81, 73
1, 44777, Note_on_c, 6, 47, 0
1, 44781, Note_on_c, 9, 81, 0
1, 44781, Control_c, 0, 11, 76
1, 44781, Control_c, 1, 11, 76
1, 44781, Control_c, 2, 11, 76
1, 44781, Control_c, 3, 11, 76
1, 44781, Control_c, 4, 11, 76
1, 44781, Control_c, 5, 11, 76
1, 44781, Note_on_c, 6, 47, 75
1, 44781, Note_on_c, 9, 81, 75
1, 44781, Control_c, 8, 11, 76
1, 44806, Note_on_c, 9, 81, 0
1, 44806, Note_on_c, 9, 81, 76
1, 44810, Note_on_c, 6, 47, 0
1, 44814, Note_on_c, 6, 47, 77
1, 44831, Note_on_c, 9, 81, 0
1, 44831, Control_c, 0, 11, 79
1, 44831, Control_c, 1, 11, 79
1, 44831, Control_c, 2, 11, 79
1, 44831, Control_c, 3, 11, 79
1, 44831, Control_c, 4, 11, 79
1, 44831, Control_c, 5, 11, 79
1, 44831, Note_on_c, 9, 81, 78
1, 44831, Control_c, 8, 11, 79
1, 44843, Note_on_c, 6, 47, 0
1, 44848, Note_on_c, 6, 47, 79
1, 44856, Note_on_c, 9, 81, 0
1, 44856, Note_on_c, 9, 81, 79
1, 44877, Note_on_c, 6, 47, 0
1, 44881, Note_on_c, 9, 81, 0
1, 44881, Control_c, 0, 11, 82
1, 44881, Control_c, 1, 11, 82
1, 44881, Control_c, 2, 11, 82
1, 44881, Control_c, 3, 11, 82
1, 44881, Control_c, 4, 11, 82
1, 44881, Control_c, 5, 11, 82
1, 44881, Note_on_c, 6, 47, 81
1, 44881, Note_on_c, 9, 81, 81
1, 44881, Control_c, 8, 11, 82
1, 44906, Note_on_c, 9, 81, 0
1, 44906, Note_on_c, 9, 81, 82
1, 44910, Note_on_c, 6, 47, 0
1, 44914, Note_on_c, 6, 47, 83
1, 44927, Control_c, 0, 11, 85
1, 44927, Control_c, 1, 11, 85
1, 44927, Control_c, 2, 11, 85
1, 44927, Control_c, 3, 11, 85
1, 44927, Control_c, 4, 11, 85
1, 44927, Control_c, 5, 11, 85
1, 44927, Control_c, 8, 11, 85
1, 44931, Note_on_c, 9, 81, 0
1, 44931, Note_on_c, 9, 81, 83
1, 44943, Note_on_c, 6, 47, 0
1, 44948, Note_on_c, 6, 47, 84
1, 44956, Note_on_c, 9, 81, 0
1, 44956, Note_on_c, 9, 81, 85
1, 44977, Note_on_c, 6, 47, 0
1, 44981, Note_on_c, 9, 81, 0
1, 44981, Control_c, 0, 11, 88
1, 44981, Control_c, 1, 11, 88
1, 44981, Control_c, 2, 11, 88
1, 44981, Control_c, 3, 11, 88
1, 44981, Control_c, 4, 11, 88
1, 44981, Control_c, 5, 11, 88
1, 44981, Note_on_c, 6, 47, 86
1, 44981, Note_on_c, 9, 81, 86
1, 44981, Control_c, 8, 11, 88
1, 45006, Note_on_c, 9, 81, 0
1, 45006, Note_on_c, 9, 81, 88
1, 45010, Note_on_c, 6, 47, 0
1, 45014, Note_on_c, 6, 47, 88
1, 45031, Note_on_c, 9, 81, 0
1, 45031, Control_c, 0, 11, 91
1, 45031, Control_c, 1, 11, 91
1, 45031, Control_c, 2, 11, 91
1, 45031, Control_c, 3, 11, 91
1, 45031, Control_c, 4, 11, 91
1, 45031, Control_c, 5, 11, 91
1, 45031, Note_on_c, 9, 81, 89
1, 45031, Control_c, 8, 11, 91
1, 45043, Note_on_c, 6, 47, 0
1, 45048, Note_on_c, 6, 47, 90
1, 45056, Note_on_c, 9, 81, 0
1, 45056, Note_on_c, 9, 81, 91
1, 45077, Note_on_c, 6, 47, 0
1, 45081, Note_on_c, 9, 81, 0
1, 45081, Control_c, 0, 11, 94
1, 45081, Control_c, 1, 11, 94
1, 45081, Control_c, 2, 11, 94
1, 45081, Control_c, 3, 11, 94
1, 45081, Control_c, 4, 11, 94
1, 45081, Control_c, 5, 11, 94
1, 45081, Note_on_c, 6, 47, 92
1, 45081, Note_on_c, 9, 81, 92
1, 45081, Control_c, 8, 11, 94
1, 45106, Note_on_c, 9, 81, 0
1, 45106, Note_on_c, 9, 81, 93
1, 45110, Note_on_c, 6, 47, 0
1, 45114, Note_on_c, 6, 47, 94
1, 45131, Note_on_c, 9, 81, 0
1, 45131, Control_c, 0, 11, 97
1, 45131, Control_c, 1, 11, 97
1, 45131, Control_c, 2, 11, 97
1, 45131, Control_c, 3, 11, 97
1, 45131, Control_c, 4, 11, 97
1, 45131, Control_c, 5, 11, 97
1, 45131, Note_on_c, 9, 81, 95
1, 45131, Control_c, 8, 11, 97
1, 45143, Note_on_c, 6, 47, 0
1, 45148, Note_on_c, 6, 47, 96
1, 45156, Note_on_c, 9, 81, 0
1, 45156, Note_on_c, 9, 81, 96
1, 45177, Note_on_c, 6, 47, 0
1, 45181, Note_on_c, 9, 81, 0
1, 45181, Control_c, 0, 7, 100
1, 45181, Control_c, 0, 11, 100
1, 45181, Control_c, 1, 7, 100
1, 45181, Control_c, 1, 11, 100
1, 45181, Control_c, 2, 7, 100
1, 45181, Control_c, 2, 11, 100
1, 45181, Control_c, 3, 7, 100
1, 45181, Control_c, 3, 11, 100
1, 45181, Control_c, 4, 7, 100
1, 45181, Control_c, 4, 11, 100
1, 45181, Control_c, 5, 7, 100
1, 45181, Control_c, 5, 11, 100
1, 45181, Note_on_c, 6, 47, 98
1, 45181, Note_on_c, 9, 81, 98
1, 45181, Control_c, 8, 7, 100
1, 45181, Control_c, 8, 11, 100
1, 45206, Note_on_c, 9, 81, 0
1, 45206, Note_on_c, 9, 81, 99
1, 45210, Note_on_c, 6, 47, 0
1, 45214, Note_on_c, 6, 47, 100
1, 45231, Note_on_c, 9, 81, 0
1, 45231, Control_c, 0, 7, 103
1, 45231, Control_c, 0, 11, 103
1, 45231, Control_c, 1, 7, 103
1, 45231, Control_c, 1, 11, 103
1, 45231, Control_c, 2, 7, 103
1, 45231, Control_c, 2, 11, 103
1, 45231, Control_c, 3, 7, 103
1, 45231, Control_c, 3, 11, 103
1, 45231, Control_c, 4, 7, 103
1, 45231, Control_c, 4, 11, 103
1, 45231, Control_c, 5, 7, 103
1, 45231, Control_c, 5, 11, 103
1, 45231, Note_on_c, 9, 81, 101
1, 45231, Control_c, 8, 7, 103
1, 45231, Control_c, 8, 11, 103
1, 45243, Note_on_c, 6, 47, 0
1, 45248, Note_on_c, 6, 47, 102
1, 45256, Note_on_c, 9, 81, 0
1, 45256, Note_on_c, 9, 81, 102
1, 45277, Note_on_c, 6, 47, 0
1, 45281, Note_on_c, 9, 81, 0
1, 45281, Control_c, 0, 7, 106
1, 45281, Control_c, 0, 11, 106
1, 45281, Control_c, 1, 7, 106
1, 45281, Control_c, 1, 11, 106
1, 45281, Control_c, 2, 7, 106
1, 45281, Control_c, 2, 11, 106
1, 45281, Control_c, 3, 7, 106
1, 45281, Control_c, 3, 11, 106
1, 45281, Control_c, 4, 7, 106
1, 45281, Control_c, 4, 11, 106
1, 45281, Control_c, 5, 7, 106
1, 45281, Control_c, 5, 11, 106
1, 45281, Note_on_c, 6, 47, 104
1, 45281, Note_on_c, 9, 81, 104
1, 45281, Control_c, 8, 7, 106
1, 45281, Control_c, 8, 11, 106
1, 45306, Note_on_c, 9, 81, 0
1, 45306, Note_on_c, 9, 81, 105
1, 45310, Note_on_c, 6, 47, 0
1, 45314, Note_on_c, 6, 47, 106
1, 45327, Control_c, 0, 7, 109
1, 45327, Control_c, 0, 11, 109
1, 45327, Control_c, 1, 7, 109
1, 45327, Control_c, 1, 11, 109
1, 45327, Control_c, 2, 7, 109
1, 45327, Control_c, 2, 11, 109
1, 45327, Control_c, 3, 7, 109
1, 45327, Control_c, 3, 11, 109
1, 45327, Control_c, 4, 7, 109
1, 45327, Control_c, 4, 11, 109
1, 45327, Control_c, 5, 7, 109
1, 45327, Control_c, 5, 11, 109
1, 45327, Control_c, 8, 7, 109
1, 45327, Control_c, 8, 11, 109
1, 45331, Note_on_c, 9, 81, 0
1, 45331, Note_on_c, 9, 81, 106
1, 45343, Note_on_c, 6, 47, 0
1, 45348, Note_on_c, 6, 47, 108
1, 45356, Note_on_c, 9, 81, 0
1, 45356, Note_on_c, 9, 81, 108
1, 45377, Note_on_c, 6, 47, 0
1, 45381, Note_on_c, 9, 81, 0
1, 45381, Control_c, 0, 7, 112
1, 45381, Control_c, 0, 11, 112
1, 45381, Control_c, 1, 7, 112
1, 45381, Control_c, 1, 11, 112
1, 45381, Control_c, 2, 7, 112
1, 45381, Control_c, 2, 11, 112
1, 45381, Control_c, 3, 7, 112
1, 45381, Control_c, 3, 11, 112
1, 45381, Control_c, 4, 7, 112
1, 45381, Control_c, 4, 11, 112
1, 45381, Control_c, 5, 7, 112
1, 45381, Control_c, 5, 11, 112
1, 45381, Note_on_c, 6, 47, 109
1, 45381, Note_on_c, 9, 81, 109
1, 45381, Control_c, 8, 7, 112
1, 45381, Control_c, 8, 11, 112
1, 45406, Note_on_c, 9, 81, 0
1, 45406, Note_on_c, 9, 81, 111
1, 45410, Note_on_c, 6, 47, 0
1, 45414, Note_on_c, 6, 47, 111
1, 45431, Note_on_c, 9, 81, 0
1, 45431, Control_c, 0, 7, 115
1, 45431, Control_c, 0, 11, 115
1, 45431, Control_c, 1, 7, 115
1, 45431, Control_c, 1, 11, 115
1, 45431, Control_c, 2, 7, 115
1, 45431, Control_c, 2, 11, 115
1, 45431, Control_c, 3, 7, 115
1, 45431, Control_c, 3, 11, 115
1, 45431, Control_c, 4, 7, 115
1, 45431, Control_c, 4, 11, 115
1, 45431, Control_c, 5, 7, 115
1, 45431, Control_c, 5, 11, 115
1, 45431, Note_on_c, 9, 81, 112
1, 45431, Control_c, 8, 7, 115
1, 45431, Control_c, 8, 11, 115
1, 45443, Note_on_c, 6, 47, 0
1, 45448, Note_on_c, 6, 47, 113
1, 45456, Note_on_c, 9, 81, 0
1, 45456, Note_on_c, 9, 81, 114
1, 45477, Note_on_c, 6, 47, 0
1, 45481, Note_on_c, 9, 81, 0
1, 45481, Control_c, 0, 7, 117
1, 45481, Control_c, 0, 11, 117
1, 45481, Control_c, 1, 7, 117
1, 45481, Control_c, 1, 11, 117
1, 45481, Control_c, 2, 7, 117
1, 45481, Control_c, 2, 11, 117
1, 45481, Control_c, 3, 7, 117
1, 45481, Control_c, 3, 11, 117
1, 45481, Control_c, 4, 7, 117
1, 45481, Control_c, 4, 11, 117
1, 45481, Control_c, 5, 7, 117
1, 45481, Control_c, 5, 11, 117
1, 45481, Note_on_c, 6, 47, 115
1, 45481, Note_on_c, 9, 81, 115
1, 45481, Control_c, 8, 7, 117
1, 45481, Control_c, 8, 11, 117
1, 45506, Note_on_c, 9, 81, 0
1, 45506, Note_on_c, 9, 81, 116
1, 45510, Note_on_c, 6, 47, 0
1, 45514, Note_on_c, 6, 47, 117
1, 45531, Note_on_c, 9, 81, 0
1, 45531, Control_c, 0, 7, 120
1, 45531, Control_c, 0, 11, 120
1, 45531, Control_c, 1, 7, 120
1, 45531, Control_c, 1, 11, 120
1, 45531, Control_c, 2, 7, 120
1, 45531, Control_c, 2, 11, 120
1, 45531, Control_c, 3, 7, 120
1, 45531, Control_c, 3, 11, 120
1, 45531, Control_c, 4, 7, 120
1, 45531, Control_c, 4, 11, 120
1, 45531, Control_c, 5, 7, 120
1, 45531, Control_c, 5, 11, 120
1, 45531, Note_on_c, 9, 81, 118
1, 45531, Control_c, 8, 7, 120
1, 45531, Control_c, 8, 11, 120
1, 45543, Note_on_c, 6, 47, 0
1, 45548, Note_on_c, 6, 47, 119
1, 45556, Note_on_c, 9, 81, 0
1, 45556, Note_on_c, 9, 81, 119
1, 45577, Note_on_c, 6, 47, 0
1, 45581, Note_on_c, 9, 81, 0
1, 45581, Note_on_c, 6, 47, 121
1, 45581, Note_on_c, 9, 81, 121
1, 45606, Note_on_c, 9, 81, 0
1, 45606, Note_on_c, 9, 81, 122
1, 45610, Note_on_c, 6, 47, 0
1, 45614, Note_on_c, 6, 47, 123
1, 45631, Note_on_c, 9, 81, 0
1, 45631, Note_on_c, 9, 81, 124
1, 45643, Note_on_c, 6, 47, 0
1, 45648, Note_on_c, 6, 47, 125
1, 45656, Note_on_c, 9, 81, 0
1, 45656, Note_on_c, 9, 81, 125
1, 45677, Note_on_c, 6, 47, 0
1, 45681, Note_on_c, 3, 35, 0
1, 45681, Control_c, 8, 0, 0
1, 45681, Control_c, 8, 32, 0
1, 45681, Program_c, 8, 48
1, 45681, Note_on_c, 8, 75, 0
1, 45681, Note_on_c, 8, 83, 0
1, 45681, Control_c, 8, 0, 0
1, 45681, Control_c, 8, 32, 0
1, 45681, Program_c, 8, 49
1, 45681, Note_on_c, 8, 71, 0
1, 45681, Note_on_c, 8, 78, 0
1, 45681, Note_on_c, 8, 59, 0
1, 45681, Note_on_c, 8, 66, 0
1, 45681, Note_on_c, 8, 47, 0
1, 45681, Note_on_c, 8, 35, 0
1, 45681, Note_on_c, 9, 81, 0
1, 45681, Note_on_c, 3, 47, 127
1, 45681, Control_c, 6, 73, 0
1, 45681, Note_on_c, 7, 71, 125
1, 45681, Note_on_c, 7, 47, 124
1, 45681, Note_on_c, 9, 81, 127
1, 45681, Note_on_c, 9, 35, 127
1, 45681, Note_on_c, 9, 29, 127
1, 45681, Note_on_c, 9, 44, 86
1, 45681, Note_on_c, 9, 35, 127
1, 45681, Note_on_c, 9, 29, 127
1, 45681, Note_on_c, 9, 44, 86
1, 45681, Control_c, 8, 0, 0
1, 45681, Control_c, 8, 32, 0
1, 45681, Program_c, 8, 48
1, 45681, Note_on_c, 8, 83, 127
1, 45681, Note_on_c, 8, 75, 127
1, 45681, Control_c, 8, 0, 0
1, 45681, Control_c, 8, 32, 0
1, 45681, Program_c, 8, 49
1, 45681, Note_on_c, 8, 71, 127
1, 45681, Note_on_c, 8, 78, 127
1, 45681, Note_on_c, 8, 59, 127
1, 45681, Note_on_c, 8, 71, 127
1, 45681, Note_on_c, 8, 66, 127
1, 45681, Note_on_c, 8, 59, 127
1, 45681, Note_on_c, 8, 51, 127
1, 45681, Note_on_c, 8, 47, 127
1, 45683, Note_on_c, 6, 47, 127
1, 45683, Note_on_c, 6, 47, 127
1, 45683, Note_on_c, 9, 42, 127
1, 45683, Note_on_c, 9, 42, 127
1, 45685, Note_on_c, 9, 46, 127
1, 45685, Note_on_c, 9, 46, 127
1, 45686, Note_on_c, 7, 75, 125
1, 45686, Note_on_c, 7, 51, 124
1, 45686, Note_on_c, 9, 49, 127
1, 45686, Note_on_c, 9, 49, 127
1, 45688, Note_on_c, 9, 57, 127
1, 45688, Note_on_c, 9, 57, 127
1, 45690, Note_on_c, 9, 55, 127
1, 45690, Note_on_c, 9, 55, 127
1, 45692, Note_on_c, 7, 78, 125
1, 45692, Note_on_c, 7, 54, 125
1, 45698, Note_on_c, 7, 83, 125
1, 45698, Note_on_c, 7, 59, 125
1, 45726, Note_on_c, 7, 71, 0
1, 45726, Note_on_c, 7, 47, 0
1, 45726, Note_on_c, 9, 81, 0
1, 45726, Note_on_c, 9, 35, 0
1, 45726, Note_on_c, 9, 29, 0
1, 45726, Note_on_c, 9, 44, 0
1, 45726, Note_on_c, 9, 35, 0
1, 45726, Note_on_c, 9, 29, 0
1, 45726, Note_on_c, 9, 44, 0
1, 45728, Note_on_c, 9, 42, 0
1, 45728, Note_on_c, 9, 42, 0
1, 45730, Note_on_c, 9, 46, 0
1, 45730, Note_on_c, 9, 46, 0
1, 45732, Note_on_c, 7, 75, 0
1, 45732, Note_on_c, 7, 51, 0
1, 45732, Note_on_c, 9, 49, 0
1, 45732, Note_on_c, 9, 49, 0
1, 45733, Note_on_c, 9, 57, 0
1, 45733, Note_on_c, 9, 57, 0
1, 45735, Note_on_c, 9, 55, 0
1, 45735, Note_on_c, 9, 55, 0
1, 45737, Note_on_c, 7, 78, 0
1, 45737, Note_on_c, 7, 54, 0
1, 45741, Note_on_c, 0, 83, 0
1, 45741, Note_on_c, 0, 95, 0
1, 45741, Note_on_c, 1, 78, 0
1, 45741, Note_on_c, 1, 83, 0
1, 45741, Note_on_c, 2, 78, 0
1, 45741, Note_on_c, 2, 83, 0
1, 45741, Note_on_c, 4, 59, 0
1, 45741, Note_on_c, 4, 63, 0
1, 45741, Note_on_c, 4, 66, 0
1, 45741, Note_on_c, 4, 66, 0
1, 45741, Note_on_c, 5, 63, 0
1, 45741, Note_on_c, 5, 71, 0
1, 45741, Note_on_c, 5, 47, 0
1, 45741, Note_on_c, 5, 51, 0
1, 45741, Note_on_c, 5, 54, 0
1, 45741, Note_on_c, 5, 59, 0
1, 45741, Note_on_c, 3, 47, 0
1, 45741, Control_c, 8, 0, 0
1, 45741, Control_c, 8, 32, 0
1, 45741, Program_c, 8, 48
1, 45741, Note_on_c, 8, 83, 0
1, 45741, Note_on_c, 8, 75, 0
1, 45741, Control_c, 8, 0, 0
1, 45741, Control_c, 8, 32, 0
1, 45741, Program_c, 8, 49
1, 45741, Note_on_c, 8, 71, 0
1, 45741, Note_on_c, 8, 78, 0
1, 45741, Note_on_c, 8, 59, 0
1, 45741, Note_on_c, 8, 71, 0
1, 45741, Note_on_c, 8, 66, 0
1, 45741, Note_on_c, 8, 59, 0
1, 45741, Note_on_c, 8, 51, 0
1, 45741, Note_on_c, 8, 47, 0
1, 45743, Note_on_c, 6, 47, 0
1, 45743, Note_on_c, 6, 47, 0
1, 45743, Note_on_c, 7, 83, 0
1, 45743, Note_on_c, 7, 59, 0
1, 46041, End_track
0, 0, End_of_file
