0, 0, Header, 1, 2, 240
1, 0, Start_track
1, 0, Time_signature, 1, 2, 24, 8
1, 0, Tempo, 500000
1, 60, Marker_t, "interpreted by (P) 1997-2001 S D Rodrian  WTC Book1 Prelude & Fugue in C"
1, 4632, Marker_t, "Copyright 1997-99 (P) S.D.Rodrian -  NOT to be reproduced or sold sans permission !"
1, 9996, Marker_t, "This file may be freely distributed on the WWW, as long as it's not modified. SDR"
1, 14796, Marker_t, "SDRodrian@aol.com  626 Lalor Trenton NJ 08611 http://members.aol.com/sdrodrian"
1, 19824, Marker_t, "1121 Deutz Ave Trenton NJ 08611 http://www.geocities.com/Paris/LeftBank/3214"
1, 19824, End_track
2, 0, Start_track
2, 0, Control_c, 0, 10, 76
2, 0, Control_c, 1, 10, 75
2, 0, Control_c, 2, 10, 74
2, 0, Control_c, 3, 10, 66
2, 0, Control_c, 4, 10, 58
2, 120, Control_c, 0, 10, 77
2, 120, Control_c, 0, 91, 91
2, 120, Control_c, 0, 64, 0
2, 120, Control_c, 0, 93, 28
2, 360, Control_c, 1, 32, 0
2, 360, Control_c, 1, 10, 76
2, 360, Control_c, 1, 91, 91
2, 360, Control_c, 1, 64, 0
2, 360, Control_c, 1, 93, 28
2, 360, Control_c, 1, 0, 0
2, 636, Control_c, 2, 32, 0
2, 636, Control_c, 2, 10, 75
2, 636, Control_c, 2, 93, 28
2, 636, Control_c, 2, 64, 0
2, 636, Control_c, 2, 91, 91
2, 636, Control_c, 2, 0, 0
2, 888, Control_c, 3, 32, 0
2, 888, Control_c, 3, 10, 67
2, 888, Control_c, 3, 93, 28
2, 888, Control_c, 3, 64, 0
2, 888, Control_c, 3, 91, 91
2, 888, Control_c, 3, 0, 0
2, 1116, Control_c, 4, 32, 0
2, 1116, Control_c, 4, 10, 58
2, 1116, Control_c, 4, 93, 28
2, 1116, Control_c, 4, 91, 91
2, 1116, Control_c, 4, 64, 0
2, 1116, Control_c, 4, 0, 0
2, 1950, Note_on_c, 3, 60, 76
2, 2055, Note_on_c, 2, 64, 114
2, 2153, Note_on_c, 2, 67, 114
2, 2246, Note_off_c, 2, 67, 1
2, 2248, Note_on_c, 1, 72, 119
2, 2336, Note_off_c, 1, 72, 1
2, 2343, Note_on_c, 1, 76, 119
2, 2434, Note_off_c, 1, 76, 1
2, 2445, Note_on_c, 2, 67, 127
2, 2539, Note_off_c, 2, 67, 1
2, 2539, Note_on_c, 1, 72, 119
2, 2630, Note_off_c, 1, 72, 1
2, 2638, Note_on_c, 1, 76, 119
2, 2640, Note_off_c, 2, 64, 1
2, 2687, Note_off_c, 3, 60, 1
2, 2723, Note_on_c, 3, 60, 90
2, 2730, Note_off_c, 1, 76, 1
2, 2823, Note_on_c, 2, 64, 127
2, 2918, Note_on_c, 2, 67, 118
2, 3012, Note_on_c, 1, 72, 110
2, 3014, Note_off_c, 2, 67, 1
2, 3104, Note_off_c, 1, 72, 1
2, 3108, Note_on_c, 1, 76, 119
2, 3200, Note_off_c, 1, 76, 1
2, 3204, Note_on_c, 2, 67, 118
2, 3299, Note_off_c, 2, 67, 1
2, 3299, Note_on_c, 1, 72, 119
2, 3387, Note_off_c, 1, 72, 1
2, 3395, Note_on_c, 1, 76, 119
2, 3434, Note_off_c, 2, 64, 1
2, 3452, Note_off_c, 3, 60, 1
2, 3481, Note_off_c, 1, 76, 1
2, 3486, Note_on_c, 3, 60, 93
2, 3585, Note_on_c, 3, 62, 107
2, 3678, Note_on_c, 2, 69, 107
2, 3771, Note_on_c, 1, 74, 104
2, 3772, Note_off_c, 2, 69, 1
2, 3866, Note_off_c, 1, 74, 1
2, 3868, Note_on_c, 0, 77, 100
2, 3964, Note_off_c, 0, 77, 1
2, 3967, Note_on_c, 2, 69, 96
2, 4057, Note_on_c, 1, 74, 104
2, 4058, Note_off_c, 2, 69, 1
2, 4141, Note_on_c, 0, 77, 104
2, 4143, Note_off_c, 1, 74, 1
2, 4187, Note_off_c, 3, 62, 1
2, 4218, Note_off_c, 3, 60, 1
2, 4231, Note_off_c, 0, 77, 1
2, 4237, Note_on_c, 3, 60, 93
2, 4334, Note_on_c, 3, 62, 116
2, 4430, Note_on_c, 2, 69, 111
2, 4522, Note_off_c, 2, 69, 1
2, 4524, Note_on_c, 1, 74, 111
2, 4614, Note_off_c, 1, 74, 1
2, 4619, Note_on_c, 0, 77, 100
2, 4709, Note_off_c, 0, 77, 1
2, 4721, Note_on_c, 2, 69, 99
2, 4810, Note_off_c, 2, 69, 1
2, 4810, Note_on_c, 1, 74, 101
2, 4896, Note_off_c, 3, 62, 1
2, 4898, Note_on_c, 0, 77, 101
2, 4899, Note_off_c, 1, 74, 1
2, 4966, Note_off_c, 3, 60, 1
2, 4988, Note_on_c, 3, 59, 93
2, 4992, Note_off_c, 0, 77, 1
2, 5085, Note_on_c, 3, 62, 116
2, 5180, Note_on_c, 2, 67, 127
2, 5274, Note_on_c, 1, 74, 113
2, 5276, Note_off_c, 2, 67, 1
2, 5367, Note_off_c, 1, 74, 1
2, 5375, Note_on_c, 0, 77, 113
2, 5467, Note_off_c, 0, 77, 1
2, 5470, Note_on_c, 2, 67, 127
2, 5562, Note_off_c, 2, 67, 1
2, 5562, Note_on_c, 1, 74, 113
2, 5650, Note_on_c, 0, 77, 113
2, 5652, Note_off_c, 1, 74, 1
2, 5694, Note_off_c, 3, 62, 1
2, 5726, Note_off_c, 3, 59, 1
2, 5745, Note_off_c, 0, 77, 1
2, 5746, Note_on_c, 3, 59, 83
2, 5844, Note_on_c, 3, 62, 116
2, 5942, Note_on_c, 2, 67, 127
2, 6036, Note_on_c, 1, 74, 113
2, 6037, Note_off_c, 2, 67, 1
2, 6130, Note_off_c, 1, 74, 1
2, 6131, Note_on_c, 0, 77, 101
2, 6221, Note_off_c, 0, 77, 1
2, 6230, Note_on_c, 2, 67, 127
2, 6319, Note_off_c, 2, 67, 1
2, 6322, Note_on_c, 1, 74, 101
2, 6408, Note_on_c, 0, 77, 113
2, 6411, Note_off_c, 1, 74, 1
2, 6431, Note_off_c, 3, 62, 1
2, 6483, Note_off_c, 3, 59, 1
2, 6499, Note_off_c, 0, 77, 1
2, 6502, Note_on_c, 3, 60, 104
2, 6599, Note_on_c, 2, 64, 118
2, 6694, Note_on_c, 2, 67, 118
2, 6786, Note_on_c, 1, 72, 105
2, 6789, Note_off_c, 2, 67, 1
2, 6880, Note_off_c, 1, 72, 1
2, 6881, Note_on_c, 1, 76, 113
2, 6967, Note_off_c, 1, 76, 1
2, 6977, Note_on_c, 2, 67, 127
2, 7068, Note_on_c, 1, 72, 113
2, 7069, Note_off_c, 2, 67, 1
2, 7155, Note_on_c, 1, 76, 113
2, 7159, Note_off_c, 1, 72, 1
2, 7200, Note_off_c, 2, 64, 1
2, 7234, Note_off_c, 3, 60, 1
2, 7250, Note_off_c, 1, 76, 1
2, 7250, Note_on_c, 3, 60, 100
2, 7358, Note_on_c, 2, 64, 127
2, 7452, Note_on_c, 2, 67, 127
2, 7545, Note_on_c, 1, 72, 113
2, 7547, Note_off_c, 2, 67, 1
2, 7634, Note_on_c, 1, 76, 113
2, 7637, Note_off_c, 1, 72, 1
2, 7729, Note_off_c, 1, 76, 1
2, 7733, Note_on_c, 2, 67, 127
2, 7825, Note_off_c, 2, 67, 1
2, 7825, Note_on_c, 1, 72, 113
2, 7911, Note_off_c, 1, 72, 1
2, 7914, Note_on_c, 1, 76, 113
2, 7945, Note_off_c, 2, 64, 1
2, 7985, Note_off_c, 3, 60, 1
2, 8008, Note_off_c, 1, 76, 1
2, 8010, Note_on_c, 3, 60, 100
2, 8125, Note_on_c, 2, 64, 127
2, 8220, Note_on_c, 2, 69, 121
2, 8318, Note_off_c, 2, 69, 1
2, 8318, Note_on_c, 1, 76, 111
2, 8407, Note_on_c, 0, 81, 102
2, 8412, Note_off_c, 1, 76, 1
2, 8502, Note_off_c, 0, 81, 1
2, 8510, Note_on_c, 2, 69, 127
2, 8599, Note_on_c, 1, 76, 124
2, 8602, Note_off_c, 2, 69, 1
2, 8688, Note_off_c, 1, 76, 1
2, 8689, Note_on_c, 0, 81, 124
2, 8730, Note_off_c, 2, 64, 1
2, 8761, Note_off_c, 3, 60, 1
2, 8776, Note_on_c, 3, 60, 100
2, 8782, Note_off_c, 0, 81, 1
2, 8886, Note_on_c, 2, 64, 127
2, 8981, Note_on_c, 2, 69, 127
2, 9070, Note_on_c, 1, 76, 124
2, 9076, Note_off_c, 2, 69, 1
2, 9159, Note_on_c, 0, 81, 124
2, 9165, Note_off_c, 1, 76, 1
2, 9250, Note_off_c, 0, 81, 1
2, 9260, Note_on_c, 2, 69, 116
2, 9352, Note_off_c, 2, 69, 1
2, 9352, Note_on_c, 1, 76, 113
2, 9443, Note_off_c, 1, 76, 1
2, 9443, Note_on_c, 0, 81, 113
2, 9467, Note_off_c, 2, 64, 1
2, 9516, Note_off_c, 3, 60, 1
2, 9535, Note_off_c, 0, 81, 1
2, 9536, Note_on_c, 3, 60, 86
2, 9639, Note_on_c, 3, 62, 116
2, 9734, Note_on_c, 2, 66, 127
2, 9829, Note_off_c, 2, 66, 1
2, 9829, Note_on_c, 2, 69, 116
2, 9920, Note_on_c, 1, 74, 113
2, 9924, Note_off_c, 2, 69, 1
2, 10011, Note_off_c, 1, 74, 1
2, 10018, Note_on_c, 2, 66, 127
2, 10105, Note_on_c, 2, 69, 116
2, 10110, Note_off_c, 2, 66, 1
2, 10196, Note_on_c, 1, 74, 113
2, 10197, Note_off_c, 2, 69, 1
2, 10197, Note_off_c, 3, 62, 1
2, 10274, Note_off_c, 3, 60, 1
2, 10290, Note_off_c, 1, 74, 1
2, 10294, Note_on_c, 3, 60, 86
2, 10396, Note_on_c, 3, 62, 116
2, 10485, Note_on_c, 2, 66, 127
2, 10577, Note_off_c, 2, 66, 1
2, 10577, Note_on_c, 2, 69, 116
2, 10668, Note_on_c, 1, 74, 108
2, 10672, Note_off_c, 2, 69, 1
2, 10760, Note_off_c, 1, 74, 1
2, 10769, Note_on_c, 2, 66, 114
2, 10857, Note_on_c, 2, 69, 116
2, 10860, Note_off_c, 2, 66, 1
2, 10942, Note_on_c, 1, 74, 113
2, 10947, Note_off_c, 2, 69, 1
2, 10982, Note_off_c, 3, 62, 1
2, 11025, Note_off_c, 3, 60, 1
2, 11034, Note_off_c, 1, 74, 1
2, 11044, Note_on_c, 3, 59, 96
2, 11147, Note_on_c, 3, 62, 107
2, 11246, Note_on_c, 2, 67, 118
2, 11333, Note_on_c, 1, 74, 99
2, 11338, Note_off_c, 2, 67, 1
2, 11419, Note_on_c, 0, 79, 107
2, 11423, Note_off_c, 1, 74, 1
2, 11514, Note_off_c, 0, 79, 1
2, 11522, Note_on_c, 2, 67, 118
2, 11614, Note_off_c, 2, 67, 1
2, 11616, Note_on_c, 1, 74, 107
2, 11702, Note_off_c, 1, 74, 1
2, 11702, Note_on_c, 0, 79, 116
2, 11729, Note_off_c, 3, 62, 1
2, 11769, Note_off_c, 3, 59, 1
2, 11780, Note_off_c, 0, 79, 1
2, 11787, Note_on_c, 3, 59, 96
2, 11886, Note_on_c, 3, 62, 107
2, 11980, Note_on_c, 2, 67, 118
2, 12065, Note_on_c, 1, 74, 99
2, 12075, Note_off_c, 2, 67, 1
2, 12150, Note_on_c, 0, 79, 107
2, 12158, Note_off_c, 1, 74, 1
2, 12245, Note_off_c, 0, 79, 1
2, 12260, Note_on_c, 2, 67, 118
2, 12347, Note_on_c, 1, 74, 107
2, 12354, Note_off_c, 2, 67, 1
2, 12436, Note_off_c, 1, 74, 1
2, 12440, Note_on_c, 0, 79, 116
2, 12459, Note_off_c, 3, 62, 1
2, 12510, Note_off_c, 3, 59, 1
2, 12533, Note_on_c, 3, 59, 89
2, 12536, Note_off_c, 0, 79, 1
2, 12636, Note_on_c, 3, 60, 116
2, 12731, Note_on_c, 2, 64, 127
2, 12823, Note_off_c, 2, 64, 1
2, 12824, Note_on_c, 2, 67, 127
2, 12914, Note_off_c, 2, 67, 1
2, 12914, Note_on_c, 1, 72, 116
2, 13009, Note_off_c, 1, 72, 1
2, 13010, Note_on_c, 2, 64, 127
2, 13101, Note_off_c, 2, 64, 1
2, 13101, Note_on_c, 2, 67, 127
2, 13188, Note_on_c, 1, 72, 119
2, 13190, Note_off_c, 2, 67, 1
2, 13228, Note_off_c, 3, 60, 1
2, 13271, Note_off_c, 3, 59, 1
2, 13281, Note_off_c, 1, 72, 1
2, 13286, Note_on_c, 3, 59, 89
2, 13384, Note_on_c, 3, 60, 116
2, 13479, Note_on_c, 2, 64, 127
2, 13575, Note_off_c, 2, 64, 1
2, 13576, Note_on_c, 2, 67, 127
2, 13667, Note_on_c, 1, 72, 119
2, 13670, Note_off_c, 2, 67, 1
2, 13758, Note_off_c, 1, 72, 1
2, 13763, Note_on_c, 2, 64, 127
2, 13853, Note_on_c, 2, 67, 127
2, 13854, Note_off_c, 2, 64, 1
2, 13936, Note_on_c, 1, 72, 119
2, 13940, Note_off_c, 2, 67, 1
2, 13978, Note_off_c, 3, 60, 1
2, 14019, Note_off_c, 3, 59, 1
2, 14025, Note_off_c, 1, 72, 1
2, 14034, Note_on_c, 3, 57, 107
2, 14131, Note_on_c, 3, 60, 125
2, 14223, Note_on_c, 2, 64, 127
2, 14315, Note_off_c, 2, 64, 1
2, 14316, Note_on_c, 2, 67, 127
2, 14401, Note_on_c, 1, 72, 119
2, 14407, Note_off_c, 2, 67, 1
2, 14493, Note_off_c, 1, 72, 1
2, 14503, Note_on_c, 2, 64, 127
2, 14590, Note_on_c, 2, 67, 127
2, 14598, Note_off_c, 2, 64, 1
2, 14676, Note_on_c, 1, 72, 119
2, 14678, Note_off_c, 2, 67, 1
2, 14724, Note_off_c, 3, 60, 1
2, 14757, Note_off_c, 3, 57, 1
2, 14764, Note_off_c, 1, 72, 1
2, 14774, Note_on_c, 3, 57, 107
2, 14868, Note_on_c, 3, 60, 125
2, 14957, Note_on_c, 2, 64, 127
2, 15049, Note_off_c, 2, 64, 1
2, 15050, Note_on_c, 2, 67, 127
2, 15141, Note_on_c, 1, 72, 119
2, 15145, Note_off_c, 2, 67, 1
2, 15236, Note_off_c, 1, 72, 1
2, 15241, Note_on_c, 2, 64, 127
2, 15329, Note_on_c, 2, 67, 127
2, 15333, Note_off_c, 2, 64, 1
2, 15413, Note_on_c, 1, 72, 119
2, 15415, Note_off_c, 2, 67, 1
2, 15466, Note_off_c, 3, 60, 1
2, 15489, Note_off_c, 3, 57, 1
2, 15495, Note_off_c, 1, 72, 1
2, 15502, Note_on_c, 4, 50, 116
2, 15603, Note_on_c, 3, 57, 125
2, 15698, Note_on_c, 3, 62, 125
2, 15790, Note_on_c, 2, 66, 118
2, 15793, Note_off_c, 3, 62, 1
2, 15872, Note_on_c, 1, 72, 122
2, 15881, Note_off_c, 2, 66, 1
2, 15961, Note_off_c, 1, 72, 1
2, 15978, Note_on_c, 3, 62, 116
2, 16068, Note_on_c, 2, 66, 118
2, 16073, Note_off_c, 3, 62, 1
2, 16150, Note_on_c, 1, 72, 122
2, 16157, Note_off_c, 2, 66, 1
2, 16219, Note_off_c, 3, 57, 1
2, 16230, Note_off_c, 4, 50, 1
2, 16243, Note_off_c, 1, 72, 1
2, 16247, Note_on_c, 4, 50, 116
2, 16358, Note_on_c, 3, 57, 125
2, 16449, Note_on_c, 3, 62, 125
2, 16541, Note_off_c, 3, 62, 1
2, 16541, Note_on_c, 2, 66, 118
2, 16620, Note_on_c, 1, 72, 122
2, 16638, Note_off_c, 2, 66, 1
2, 16721, Note_off_c, 1, 72, 1
2, 16725, Note_on_c, 3, 62, 116
2, 16810, Note_on_c, 2, 66, 118
2, 16823, Note_off_c, 3, 62, 1
2, 16903, Note_on_c, 1, 72, 122
2, 16910, Note_off_c, 2, 66, 1
2, 16934, Note_off_c, 3, 57, 1
2, 16972, Note_off_c, 4, 50, 1
2, 16994, Note_on_c, 3, 55, 107
2, 17001, Note_off_c, 1, 72, 1
2, 17092, Note_on_c, 3, 59, 116
2, 17187, Note_on_c, 3, 62, 116
2, 17279, Note_on_c, 2, 67, 118
2, 17285, Note_off_c, 3, 62, 1
2, 17367, Note_on_c, 1, 71, 113
2, 17378, Note_off_c, 2, 67, 1
2, 17463, Note_on_c, 3, 62, 116
2, 17465, Note_off_c, 1, 71, 1
2, 17550, Note_on_c, 2, 67, 118
2, 17558, Note_off_c, 3, 62, 1
2, 17639, Note_on_c, 1, 71, 113
2, 17648, Note_off_c, 2, 67, 1
2, 17680, Note_off_c, 3, 59, 1
2, 17708, Note_off_c, 3, 55, 1
2, 17730, Note_on_c, 3, 55, 107
2, 17738, Note_off_c, 1, 71, 1
2, 17828, Note_on_c, 3, 59, 116
2, 17923, Note_on_c, 3, 62, 116
2, 18014, Note_on_c, 2, 67, 118
2, 18024, Note_off_c, 3, 62, 1
2, 18095, Note_on_c, 1, 71, 113
2, 18109, Note_off_c, 2, 67, 1
2, 18199, Note_off_c, 1, 71, 1
2, 18199, Note_on_c, 3, 62, 116
2, 18286, Note_on_c, 2, 67, 118
2, 18300, Note_off_c, 3, 62, 1
2, 18370, Note_on_c, 1, 71, 113
2, 18382, Note_off_c, 2, 67, 1
2, 18398, Note_off_c, 3, 59, 1
2, 18438, Note_off_c, 3, 55, 1
2, 18456, Note_off_c, 1, 71, 1
2, 18457, Note_on_c, 3, 55, 107
2, 18556, Note_on_c, 3, 58, 116
2, 18648, Note_on_c, 2, 64, 127
2, 18740, Note_off_c, 2, 64, 1
2, 18743, Note_on_c, 2, 67, 127
2, 18829, Note_on_c, 1, 73, 122
2, 18831, Note_off_c, 2, 67, 1
2, 18923, Note_off_c, 1, 73, 1
2, 18925, Note_on_c, 2, 64, 127
2, 19016, Note_on_c, 2, 67, 127
2, 19020, Note_off_c, 2, 64, 1
2, 19103, Note_on_c, 1, 73, 122
2, 19108, Note_off_c, 2, 67, 1
2, 19177, Note_off_c, 3, 58, 1
2, 19188, Note_off_c, 3, 55, 1
2, 19193, Note_off_c, 1, 73, 1
2, 19203, Note_on_c, 3, 55, 107
2, 19300, Note_on_c, 3, 58, 116
2, 19391, Note_on_c, 2, 64, 127
2, 19482, Note_off_c, 2, 64, 1
2, 19482, Note_on_c, 2, 67, 127
2, 19571, Note_on_c, 1, 73, 122
2, 19574, Note_off_c, 2, 67, 1
2, 19666, Note_off_c, 1, 73, 1
2, 19668, Note_on_c, 2, 64, 127
2, 19754, Note_on_c, 2, 67, 127
2, 19762, Note_off_c, 2, 64, 1
2, 19843, Note_off_c, 2, 67, 1
2, 19847, Note_on_c, 1, 73, 122
2, 19907, Note_off_c, 3, 58, 1
2, 19927, Note_off_c, 3, 55, 1
2, 19934, Note_off_c, 1, 73, 1
2, 19942, Note_on_c, 4, 53, 99
2, 20037, Note_on_c, 3, 57, 116
2, 20129, Note_on_c, 3, 62, 116
2, 20224, Note_on_c, 2, 69, 113
2, 20233, Note_off_c, 3, 62, 1
2, 20309, Note_on_c, 1, 74, 113
2, 20322, Note_off_c, 2, 69, 1
2, 20408, Note_on_c, 3, 62, 116
2, 20413, Note_off_c, 1, 74, 1
2, 20494, Note_on_c, 2, 69, 113
2, 20512, Note_off_c, 3, 62, 1
2, 20586, Note_on_c, 1, 74, 113
2, 20595, Note_off_c, 2, 69, 1
2, 20626, Note_off_c, 3, 57, 1
2, 20663, Note_off_c, 4, 53, 1
2, 20674, Note_off_c, 1, 74, 1
2, 20675, Note_on_c, 4, 53, 99
2, 20775, Note_on_c, 3, 57, 116
2, 20870, Note_on_c, 3, 62, 116
2, 20960, Note_on_c, 2, 69, 113
2, 20968, Note_off_c, 3, 62, 1
2, 21044, Note_on_c, 1, 74, 113
2, 21061, Note_off_c, 2, 69, 1
2, 21146, Note_on_c, 3, 62, 116
2, 21148, Note_off_c, 1, 74, 1
2, 21233, Note_on_c, 2, 69, 113
2, 21249, Note_off_c, 3, 62, 1
2, 21322, Note_on_c, 1, 74, 113
2, 21329, Note_off_c, 2, 69, 1
2, 21366, Note_off_c, 3, 57, 1
2, 21401, Note_off_c, 4, 53, 1
2, 21411, Note_off_c, 1, 74, 1
2, 21415, Note_on_c, 4, 53, 99
2, 21521, Note_on_c, 3, 56, 116
2, 21616, Note_on_c, 3, 62, 116
2, 21709, Note_off_c, 3, 62, 1
2, 21709, Note_on_c, 2, 65, 118
2, 21803, Note_on_c, 1, 71, 113
2, 21804, Note_off_c, 2, 65, 1
2, 21896, Note_on_c, 3, 62, 116
2, 21903, Note_off_c, 1, 71, 1
2, 21984, Note_on_c, 2, 65, 118
2, 21988, Note_off_c, 3, 62, 1
2, 22073, Note_on_c, 1, 71, 113
2, 22074, Note_off_c, 2, 65, 1
2, 22150, Note_off_c, 3, 56, 1
2, 22155, Note_off_c, 4, 53, 1
2, 22165, Note_on_c, 4, 53, 107
2, 22176, Note_off_c, 1, 71, 1
2, 22269, Note_on_c, 3, 56, 116
2, 22362, Note_on_c, 3, 62, 116
2, 22454, Note_off_c, 3, 62, 1
2, 22454, Note_on_c, 2, 65, 118
2, 22548, Note_on_c, 1, 71, 116
2, 22549, Note_off_c, 2, 65, 1
2, 22643, Note_off_c, 1, 71, 1
2, 22647, Note_on_c, 3, 62, 116
2, 22735, Note_on_c, 2, 65, 118
2, 22739, Note_off_c, 3, 62, 1
2, 22820, Note_on_c, 1, 71, 116
2, 22823, Note_off_c, 2, 65, 1
2, 22854, Note_off_c, 3, 56, 1
2, 22893, Note_off_c, 4, 53, 1
2, 22906, Note_off_c, 1, 71, 1
2, 22916, Note_on_c, 4, 52, 107
2, 23017, Note_on_c, 3, 55, 116
2, 23109, Note_on_c, 3, 60, 116
2, 23204, Note_off_c, 3, 60, 1
2, 23204, Note_on_c, 2, 67, 118
2, 23292, Note_on_c, 1, 72, 116
2, 23296, Note_off_c, 2, 67, 1
2, 23387, Note_off_c, 1, 72, 1
2, 23390, Note_on_c, 3, 60, 116
2, 23476, Note_off_c, 3, 60, 1
2, 23477, Note_on_c, 2, 67, 118
2, 23568, Note_off_c, 2, 67, 1
2, 23569, Note_on_c, 1, 72, 116
2, 23621, Note_off_c, 3, 55, 1
2, 23643, Note_off_c, 4, 52, 1
2, 23655, Note_off_c, 1, 72, 1
2, 23656, Note_on_c, 4, 52, 107
2, 23760, Note_on_c, 3, 55, 116
2, 23849, Note_on_c, 3, 60, 116
2, 23943, Note_on_c, 2, 67, 118
2, 23944, Note_off_c, 3, 60, 1
2, 24030, Note_on_c, 1, 72, 116
2, 24032, Note_off_c, 2, 67, 1
2, 24122, Note_off_c, 1, 72, 1
2, 24128, Note_on_c, 3, 60, 116
2, 24220, Note_on_c, 2, 67, 118
2, 24225, Note_off_c, 3, 60, 1
2, 24306, Note_off_c, 2, 67, 1
2, 24306, Note_on_c, 1, 72, 116
2, 24350, Note_off_c, 3, 55, 1
2, 24373, Note_off_c, 4, 52, 1
2, 24386, Note_off_c, 1, 72, 1
2, 24391, Note_on_c, 4, 52, 106
2, 24500, Note_on_c, 4, 53, 123
2, 24601, Note_on_c, 3, 57, 116
2, 24695, Note_off_c, 3, 57, 1
2, 24695, Note_on_c, 3, 60, 116
2, 24790, Note_off_c, 3, 60, 1
2, 24790, Note_on_c, 2, 65, 118
2, 24885, Note_off_c, 2, 65, 1
2, 24885, Note_on_c, 3, 57, 116
2, 24975, Note_off_c, 3, 57, 1
2, 24975, Note_on_c, 3, 60, 116
2, 25062, Note_on_c, 2, 65, 118
2, 25065, Note_off_c, 3, 60, 1
2, 25112, Note_off_c, 4, 53, 1
2, 25141, Note_off_c, 4, 52, 1
2, 25152, Note_off_c, 2, 65, 1
2, 25157, Note_on_c, 4, 52, 106
2, 25256, Note_on_c, 4, 53, 123
2, 25348, Note_on_c, 3, 57, 116
2, 25445, Note_off_c, 3, 57, 1
2, 25445, Note_on_c, 3, 60, 116
2, 25533, Note_on_c, 2, 65, 118
2, 25537, Note_off_c, 3, 60, 1
2, 25630, Note_on_c, 3, 57, 116
2, 25631, Note_off_c, 2, 65, 1
2, 25718, Note_on_c, 3, 60, 116
2, 25725, Note_off_c, 3, 57, 1
2, 25810, Note_off_c, 3, 60, 1
2, 25811, Note_on_c, 2, 65, 118
2, 25857, Note_off_c, 4, 53, 1
2, 25894, Note_off_c, 4, 52, 1
2, 25899, Note_off_c, 2, 65, 1
2, 25909, Note_on_c, 4, 50, 118
2, 26000, Note_on_c, 4, 53, 122
2, 26098, Note_on_c, 3, 57, 116
2, 26194, Note_off_c, 3, 57, 1
2, 26194, Note_on_c, 3, 60, 116
2, 26289, Note_off_c, 3, 60, 1
2, 26292, Note_on_c, 2, 65, 118
2, 26387, Note_off_c, 2, 65, 1
2, 26387, Note_on_c, 3, 57, 116
2, 26475, Note_on_c, 3, 60, 116
2, 26479, Note_off_c, 3, 57, 1
2, 26564, Note_off_c, 3, 60, 1
2, 26565, Note_on_c, 2, 65, 118
2, 26609, Note_off_c, 4, 53, 1
2, 26640, Note_off_c, 4, 50, 1
2, 26654, Note_off_c, 2, 65, 1
2, 26660, Note_on_c, 4, 50, 118
2, 26761, Note_on_c, 4, 53, 122
2, 26854, Note_on_c, 3, 57, 116
2, 26949, Note_off_c, 3, 57, 1
2, 26949, Note_on_c, 3, 60, 116
2, 27040, Note_on_c, 2, 65, 118
2, 27041, Note_off_c, 3, 60, 1
2, 27132, Note_off_c, 2, 65, 1
2, 27137, Note_on_c, 3, 57, 116
2, 27226, Note_on_c, 3, 60, 116
2, 27229, Note_off_c, 3, 57, 1
2, 27314, Note_on_c, 2, 65, 118
2, 27317, Note_off_c, 3, 60, 1
2, 27366, Note_off_c, 4, 53, 1
2, 27392, Note_off_c, 4, 50, 1
2, 27400, Note_off_c, 2, 65, 1
2, 27407, Note_on_c, 4, 43, 116
2, 27502, Note_on_c, 4, 50, 125
2, 27595, Note_on_c, 3, 55, 125
2, 27687, Note_off_c, 3, 55, 1
2, 27688, Note_on_c, 3, 59, 125
2, 27776, Note_on_c, 2, 65, 127
2, 27780, Note_off_c, 3, 59, 1
2, 27871, Note_off_c, 2, 65, 1
2, 27880, Note_on_c, 3, 55, 125
2, 27967, Note_on_c, 3, 59, 125
2, 27975, Note_off_c, 3, 55, 1
2, 28049, Note_on_c, 2, 65, 127
2, 28053, Note_off_c, 3, 59, 1
2, 28134, Note_off_c, 4, 43, 1
2, 28137, Note_off_c, 4, 50, 1
2, 28140, Note_off_c, 2, 65, 1
2, 28145, Note_on_c, 4, 43, 116
2, 28243, Note_on_c, 4, 50, 125
2, 28333, Note_on_c, 3, 55, 125
2, 28425, Note_off_c, 3, 55, 1
2, 28425, Note_on_c, 3, 59, 125
2, 28514, Note_on_c, 2, 65, 127
2, 28520, Note_off_c, 3, 59, 1
2, 28612, Note_off_c, 2, 65, 1
2, 28618, Note_on_c, 3, 55, 125
2, 28704, Note_on_c, 3, 59, 125
2, 28716, Note_off_c, 3, 55, 1
2, 28788, Note_on_c, 2, 65, 127
2, 28789, Note_off_c, 3, 59, 1
2, 28860, Note_off_c, 4, 50, 1
2, 28864, Note_off_c, 4, 43, 1
2, 28872, Note_off_c, 2, 65, 1
2, 28881, Note_on_c, 4, 48, 125
2, 29001, Note_on_c, 4, 52, 125
2, 29099, Note_on_c, 3, 55, 125
2, 29191, Note_off_c, 3, 55, 1
2, 29193, Note_on_c, 3, 60, 125
2, 29277, Note_on_c, 2, 64, 127
2, 29286, Note_off_c, 3, 60, 1
2, 29370, Note_off_c, 2, 64, 1
2, 29379, Note_on_c, 3, 55, 125
2, 29462, Note_on_c, 3, 60, 125
2, 29471, Note_off_c, 3, 55, 1
2, 29557, Note_off_c, 3, 60, 1
2, 29562, Note_on_c, 2, 64, 127
2, 29609, Note_off_c, 4, 52, 1
2, 29633, Note_off_c, 4, 48, 1
2, 29645, Note_on_c, 4, 48, 125
2, 29648, Note_off_c, 2, 64, 1
2, 29749, Note_on_c, 4, 52, 125
2, 29841, Note_on_c, 3, 55, 125
2, 29927, Note_off_c, 3, 55, 1
2, 29929, Note_on_c, 3, 60, 125
2, 30009, Note_on_c, 2, 64, 127
2, 30019, Note_off_c, 3, 60, 1
2, 30106, Note_off_c, 2, 64, 1
2, 30120, Note_on_c, 3, 55, 125
2, 30199, Note_on_c, 3, 60, 125
2, 30213, Note_off_c, 3, 55, 1
2, 30282, Note_on_c, 2, 64, 127
2, 30285, Note_off_c, 3, 60, 1
2, 30339, Note_off_c, 4, 52, 1
2, 30365, Note_off_c, 4, 48, 1
2, 30368, Note_off_c, 2, 64, 1
2, 30383, Note_on_c, 4, 48, 125
2, 30487, Note_on_c, 3, 55, 125
2, 30579, Note_on_c, 3, 58, 125
2, 30668, Note_off_c, 3, 58, 1
2, 30669, Note_on_c, 3, 60, 125
2, 30751, Note_on_c, 2, 64, 127
2, 30758, Note_off_c, 3, 60, 1
2, 30846, Note_off_c, 2, 64, 1
2, 30857, Note_on_c, 3, 58, 125
2, 30944, Note_on_c, 3, 60, 125
2, 30949, Note_off_c, 3, 58, 1
2, 31025, Note_on_c, 2, 64, 127
2, 31039, Note_off_c, 3, 60, 1
2, 31098, Note_off_c, 3, 55, 1
2, 31106, Note_off_c, 4, 48, 1
2, 31111, Note_off_c, 2, 64, 1
2, 31118, Note_on_c, 4, 48, 125
2, 31221, Note_on_c, 3, 55, 125
2, 31314, Note_on_c, 3, 58, 125
2, 31406, Note_off_c, 3, 58, 1
2, 31406, Note_on_c, 3, 60, 125
2, 31489, Note_on_c, 2, 64, 127
2, 31498, Note_off_c, 3, 60, 1
2, 31583, Note_off_c, 2, 64, 1
2, 31593, Note_on_c, 3, 58, 125
2, 31674, Note_on_c, 3, 60, 125
2, 31684, Note_off_c, 3, 58, 1
2, 31761, Note_off_c, 3, 60, 1
2, 31764, Note_on_c, 2, 64, 127
2, 31818, Note_off_c, 4, 48, 1
2, 31826, Note_off_c, 3, 55, 1
2, 31847, Note_off_c, 2, 64, 1
2, 31857, Note_on_c, 4, 41, 115
2, 31958, Note_on_c, 4, 53, 125
2, 32050, Note_on_c, 3, 57, 125
2, 32142, Note_off_c, 3, 57, 1
2, 32143, Note_on_c, 3, 60, 125
2, 32228, Note_on_c, 2, 64, 127
2, 32234, Note_off_c, 3, 60, 1
2, 32317, Note_off_c, 2, 64, 1
2, 32329, Note_on_c, 3, 57, 125
2, 32416, Note_on_c, 3, 60, 125
2, 32425, Note_off_c, 3, 57, 1
2, 32503, Note_on_c, 2, 64, 127
2, 32508, Note_off_c, 3, 60, 1
2, 32581, Note_off_c, 4, 41, 1
2, 32584, Note_off_c, 4, 53, 1
2, 32589, Note_off_c, 2, 64, 1
2, 32595, Note_on_c, 4, 41, 115
2, 32694, Note_on_c, 4, 53, 125
2, 32786, Note_on_c, 3, 57, 125
2, 32875, Note_off_c, 3, 57, 1
2, 32876, Note_on_c, 3, 60, 125
2, 32955, Note_on_c, 2, 64, 127
2, 32967, Note_off_c, 3, 60, 1
2, 33047, Note_off_c, 2, 64, 1
2, 33062, Note_on_c, 3, 57, 125
2, 33150, Note_on_c, 3, 60, 125
2, 33155, Note_off_c, 3, 57, 1
2, 33232, Note_on_c, 2, 64, 127
2, 33236, Note_off_c, 3, 60, 1
2, 33306, Note_off_c, 4, 53, 1
2, 33308, Note_off_c, 4, 41, 1
2, 33318, Note_off_c, 2, 64, 1
2, 33322, Note_on_c, 4, 42, 120
2, 33424, Note_on_c, 4, 48, 125
2, 33519, Note_on_c, 3, 57, 125
2, 33608, Note_off_c, 3, 57, 1
2, 33609, Note_on_c, 3, 60, 125
2, 33691, Note_on_c, 0, 63, 127
2, 33697, Note_off_c, 3, 60, 1
2, 33783, Note_off_c, 0, 63, 1
2, 33792, Note_on_c, 3, 57, 125
2, 33879, Note_on_c, 3, 60, 125
2, 33883, Note_off_c, 3, 57, 1
2, 33967, Note_on_c, 0, 63, 127
2, 33971, Note_off_c, 3, 60, 1
2, 34047, Note_off_c, 4, 42, 1
2, 34059, Note_off_c, 0, 63, 1
2, 34062, Note_on_c, 4, 42, 120
2, 34077, Note_off_c, 4, 48, 1
2, 34160, Note_on_c, 4, 48, 125
2, 34251, Note_on_c, 3, 57, 125
2, 34340, Note_on_c, 3, 60, 125
2, 34344, Note_off_c, 3, 57, 1
2, 34419, Note_on_c, 0, 63, 127
2, 34435, Note_off_c, 3, 60, 1
2, 34516, Note_off_c, 0, 63, 1
2, 34516, Note_on_c, 3, 57, 125
2, 34608, Note_off_c, 3, 57, 1
2, 34608, Note_on_c, 3, 60, 125
2, 34692, Note_on_c, 0, 63, 127
2, 34694, Note_off_c, 3, 60, 1
2, 34784, Note_off_c, 0, 63, 1
2, 34787, Note_off_c, 4, 42, 1
2, 34788, Note_off_c, 4, 48, 1
2, 34797, Note_on_c, 4, 44, 120
2, 34899, Note_on_c, 4, 53, 115
2, 34989, Note_on_c, 3, 59, 125
2, 35082, Note_off_c, 3, 59, 1
2, 35085, Note_on_c, 3, 60, 125
2, 35164, Note_on_c, 3, 62, 125
2, 35177, Note_off_c, 3, 60, 1
2, 35259, Note_off_c, 3, 62, 1
2, 35274, Note_on_c, 3, 59, 125
2, 35363, Note_on_c, 3, 60, 125
2, 35369, Note_off_c, 3, 59, 1
2, 35440, Note_on_c, 3, 62, 125
2, 35449, Note_off_c, 3, 60, 1
2, 35502, Note_off_c, 4, 44, 1
2, 35530, Note_off_c, 3, 62, 1
2, 35539, Note_off_c, 4, 53, 1
2, 35539, Note_on_c, 4, 44, 120
2, 35634, Note_on_c, 4, 53, 115
2, 35727, Note_on_c, 3, 59, 125
2, 35816, Note_off_c, 3, 59, 1
2, 35817, Note_on_c, 3, 60, 125
2, 35889, Note_on_c, 3, 62, 125
2, 35903, Note_off_c, 3, 60, 1
2, 35989, Note_off_c, 3, 62, 1
2, 35998, Note_on_c, 3, 59, 125
2, 36087, Note_on_c, 3, 60, 125
2, 36093, Note_off_c, 3, 59, 1
2, 36169, Note_on_c, 3, 62, 125
2, 36176, Note_off_c, 3, 60, 1
2, 36246, Note_off_c, 4, 44, 1
2, 36249, Note_off_c, 3, 62, 1
2, 36250, Note_off_c, 4, 53, 1
2, 36264, Note_on_c, 4, 43, 115
2, 36363, Note_on_c, 4, 53, 115
2, 36459, Note_on_c, 3, 55, 125
2, 36550, Note_on_c, 3, 59, 125
2, 36551, Note_off_c, 3, 55, 1
2, 36640, Note_on_c, 3, 62, 125
2, 36642, Note_off_c, 3, 59, 1
2, 36734, Note_off_c, 3, 62, 1
2, 36740, Note_on_c, 3, 55, 125
2, 36826, Note_off_c, 3, 55, 1
2, 36828, Note_on_c, 3, 59, 125
2, 36914, Note_off_c, 3, 59, 1
2, 36917, Note_on_c, 3, 62, 125
2, 36979, Note_off_c, 4, 43, 1
2, 36995, Note_off_c, 4, 53, 1
2, 37000, Note_on_c, 4, 43, 115
2, 37006, Note_off_c, 3, 62, 1
2, 37096, Note_on_c, 4, 53, 115
2, 37187, Note_on_c, 3, 55, 125
2, 37278, Note_on_c, 3, 59, 125
2, 37280, Note_off_c, 3, 55, 1
2, 37372, Note_on_c, 3, 62, 125
2, 37376, Note_off_c, 3, 59, 1
2, 37468, Note_off_c, 3, 62, 1
2, 37472, Note_on_c, 3, 55, 125
2, 37564, Note_on_c, 3, 59, 125
2, 37567, Note_off_c, 3, 55, 1
2, 37649, Note_off_c, 3, 59, 1
2, 37650, Note_on_c, 3, 62, 125
2, 37724, Note_off_c, 4, 43, 1
2, 37725, Note_off_c, 4, 53, 1
2, 37739, Note_off_c, 3, 62, 1
2, 37741, Note_on_c, 4, 43, 120
2, 37840, Note_on_c, 4, 52, 115
2, 37935, Note_on_c, 3, 55, 125
2, 38030, Note_off_c, 3, 55, 1
2, 38030, Note_on_c, 3, 60, 125
2, 38115, Note_on_c, 2, 64, 127
2, 38123, Note_off_c, 3, 60, 1
2, 38207, Note_off_c, 2, 64, 1
2, 38213, Note_on_c, 3, 55, 125
2, 38303, Note_on_c, 3, 60, 125
2, 38304, Note_off_c, 3, 55, 1
2, 38393, Note_off_c, 3, 60, 1
2, 38393, Note_on_c, 2, 64, 127
2, 38471, Note_off_c, 4, 43, 1
2, 38485, Note_off_c, 2, 64, 1
2, 38486, Note_on_c, 4, 43, 120
2, 38516, Note_off_c, 4, 52, 1
2, 38588, Note_on_c, 4, 52, 115
2, 38680, Note_on_c, 3, 55, 125
2, 38771, Note_on_c, 3, 60, 125
2, 38775, Note_off_c, 3, 55, 1
2, 38858, Note_on_c, 2, 64, 127
2, 38863, Note_off_c, 3, 60, 1
2, 38953, Note_off_c, 2, 64, 1
2, 38959, Note_on_c, 3, 55, 125
2, 39046, Note_on_c, 3, 60, 125
2, 39047, Note_off_c, 3, 55, 1
2, 39135, Note_off_c, 3, 60, 1
2, 39135, Note_on_c, 2, 64, 127
2, 39211, Note_off_c, 4, 43, 1
2, 39221, Note_off_c, 4, 52, 1
2, 39227, Note_off_c, 2, 64, 1
2, 39229, Note_on_c, 4, 43, 120
2, 39328, Note_on_c, 4, 50, 120
2, 39421, Note_on_c, 3, 55, 125
2, 39517, Note_off_c, 3, 55, 1
2, 39517, Note_on_c, 3, 60, 125
2, 39597, Note_on_c, 2, 65, 127
2, 39609, Note_off_c, 3, 60, 1
2, 39689, Note_off_c, 2, 65, 1
2, 39702, Note_on_c, 3, 55, 125
2, 39794, Note_on_c, 3, 60, 125
2, 39799, Note_off_c, 3, 55, 1
2, 39886, Note_off_c, 3, 60, 1
2, 39886, Note_on_c, 2, 65, 127
2, 39959, Note_off_c, 4, 43, 1
2, 39969, Note_off_c, 4, 50, 1
2, 39972, Note_off_c, 2, 65, 1
2, 39974, Note_on_c, 4, 43, 120
2, 40074, Note_on_c, 4, 50, 120
2, 40164, Note_on_c, 3, 55, 125
2, 40257, Note_off_c, 3, 55, 1
2, 40257, Note_on_c, 3, 60, 125
2, 40348, Note_on_c, 2, 65, 127
2, 40352, Note_off_c, 3, 60, 1
2, 40446, Note_off_c, 2, 65, 1
2, 40448, Note_on_c, 3, 55, 125
2, 40536, Note_on_c, 3, 60, 125
2, 40541, Note_off_c, 3, 55, 1
2, 40625, Note_off_c, 3, 60, 1
2, 40625, Note_on_c, 2, 65, 127
2, 40700, Note_off_c, 4, 43, 1
2, 40711, Note_off_c, 2, 65, 1
2, 40716, Note_on_c, 4, 43, 120
2, 40725, Note_off_c, 4, 50, 1
2, 40817, Note_on_c, 4, 50, 120
2, 40912, Note_on_c, 3, 55, 125
2, 41004, Note_off_c, 3, 55, 1
2, 41007, Note_on_c, 3, 59, 125
2, 41098, Note_on_c, 2, 65, 127
2, 41099, Note_off_c, 3, 59, 1
2, 41190, Note_off_c, 2, 65, 1
2, 41192, Note_on_c, 3, 55, 125
2, 41277, Note_on_c, 3, 59, 125
2, 41282, Note_off_c, 3, 55, 1
2, 41367, Note_on_c, 2, 65, 127
2, 41369, Note_off_c, 3, 59, 1
2, 41438, Note_off_c, 4, 50, 1
2, 41451, Note_off_c, 4, 43, 1
2, 41459, Note_off_c, 2, 65, 1
2, 41466, Note_on_c, 4, 43, 120
2, 41565, Note_on_c, 4, 50, 120
2, 41660, Note_on_c, 3, 55, 125
2, 41752, Note_off_c, 3, 55, 1
2, 41752, Note_on_c, 3, 59, 125
2, 41847, Note_off_c, 3, 59, 1
2, 41847, Note_on_c, 2, 65, 127
2, 41946, Note_off_c, 2, 65, 1
2, 41947, Note_on_c, 3, 55, 125
2, 42041, Note_off_c, 3, 55, 1
2, 42041, Note_on_c, 3, 59, 125
2, 42130, Note_on_c, 2, 65, 127
2, 42132, Note_off_c, 3, 59, 1
2, 42204, Note_off_c, 4, 43, 1
2, 42219, Note_off_c, 2, 65, 1
2, 42219, Note_on_c, 4, 43, 120
2, 42220, Note_off_c, 4, 50, 1
2, 42315, Note_on_c, 4, 51, 120
2, 42402, Note_on_c, 3, 57, 125
2, 42495, Note_off_c, 3, 57, 1
2, 42495, Note_on_c, 3, 60, 125
2, 42581, Note_off_c, 3, 60, 1
2, 42581, Note_on_c, 2, 66, 127
2, 42673, Note_off_c, 2, 66, 1
2, 42673, Note_on_c, 3, 57, 125
2, 42761, Note_off_c, 3, 57, 1
2, 42764, Note_on_c, 3, 60, 125
2, 42853, Note_off_c, 3, 60, 1
2, 42855, Note_on_c, 2, 66, 127
2, 42915, Note_off_c, 4, 51, 1
2, 42923, Note_off_c, 4, 43, 1
2, 42938, Note_on_c, 4, 43, 120
2, 42942, Note_off_c, 2, 66, 1
2, 43037, Note_on_c, 4, 51, 120
2, 43129, Note_on_c, 3, 57, 125
2, 43221, Note_off_c, 3, 57, 1
2, 43221, Note_on_c, 3, 60, 125
2, 43307, Note_off_c, 3, 60, 1
2, 43308, Note_on_c, 2, 66, 127
2, 43397, Note_off_c, 2, 66, 1
2, 43400, Note_on_c, 3, 57, 125
2, 43489, Note_off_c, 3, 57, 1
2, 43489, Note_on_c, 3, 60, 125
2, 43578, Note_off_c, 3, 60, 1
2, 43579, Note_on_c, 2, 66, 127
2, 43639, Note_off_c, 4, 51, 1
2, 43646, Note_off_c, 4, 43, 1
2, 43661, Note_on_c, 4, 43, 120
2, 43665, Note_off_c, 2, 66, 1
2, 43760, Note_on_c, 4, 52, 120
2, 43852, Note_on_c, 3, 55, 125
2, 43943, Note_on_c, 3, 60, 125
2, 43944, Note_off_c, 3, 55, 1
2, 44029, Note_on_c, 2, 67, 127
2, 44032, Note_off_c, 3, 60, 1
2, 44120, Note_off_c, 2, 67, 1
2, 44130, Note_on_c, 3, 55, 125
2, 44219, Note_off_c, 3, 55, 1
2, 44221, Note_on_c, 3, 60, 125
2, 44309, Note_on_c, 2, 67, 127
2, 44310, Note_off_c, 3, 60, 1
2, 44370, Note_off_c, 4, 52, 1
2, 44378, Note_off_c, 4, 43, 1
2, 44394, Note_on_c, 4, 43, 120
2, 44401, Note_off_c, 2, 67, 1
2, 44492, Note_on_c, 4, 52, 120
2, 44582, Note_on_c, 3, 55, 125
2, 44673, Note_on_c, 3, 60, 125
2, 44674, Note_off_c, 3, 55, 1
2, 44761, Note_on_c, 2, 67, 127
2, 44765, Note_off_c, 3, 60, 1
2, 44852, Note_off_c, 2, 67, 1
2, 44861, Note_on_c, 3, 55, 125
2, 44949, Note_off_c, 3, 55, 1
2, 44952, Note_on_c, 3, 60, 125
2, 45043, Note_on_c, 2, 67, 127
2, 45044, Note_off_c, 3, 60, 1
2, 45106, Note_off_c, 4, 43, 1
2, 45110, Note_off_c, 4, 52, 1
2, 45125, Note_on_c, 4, 43, 120
2, 45132, Note_off_c, 2, 67, 1
2, 45222, Note_on_c, 4, 50, 125
2, 45315, Note_on_c, 3, 55, 125
2, 45404, Note_off_c, 3, 55, 1
2, 45405, Note_on_c, 3, 60, 125
2, 45490, Note_on_c, 2, 65, 127
2, 45497, Note_off_c, 3, 60, 1
2, 45581, Note_off_c, 2, 65, 1
2, 45590, Note_on_c, 3, 55, 125
2, 45678, Note_on_c, 3, 60, 125
2, 45687, Note_off_c, 3, 55, 1
2, 45770, Note_off_c, 3, 60, 1
2, 45770, Note_on_c, 2, 65, 127
2, 45825, Note_off_c, 4, 50, 1
2, 45853, Note_off_c, 4, 43, 1
2, 45862, Note_off_c, 2, 65, 1
2, 45864, Note_on_c, 4, 43, 120
2, 45964, Note_on_c, 4, 50, 125
2, 46056, Note_on_c, 3, 55, 125
2, 46148, Note_off_c, 3, 55, 1
2, 46149, Note_on_c, 3, 60, 125
2, 46238, Note_on_c, 2, 65, 127
2, 46242, Note_off_c, 3, 60, 1
2, 46337, Note_off_c, 2, 65, 1
2, 46342, Note_on_c, 3, 55, 125
2, 46432, Note_on_c, 3, 60, 125
2, 46436, Note_off_c, 3, 55, 1
2, 46526, Note_off_c, 3, 60, 1
2, 46527, Note_on_c, 2, 65, 127
2, 46580, Note_off_c, 4, 50, 1
2, 46597, Note_off_c, 4, 43, 1
2, 46613, Note_off_c, 2, 65, 1
2, 46614, Note_on_c, 4, 43, 120
2, 46716, Note_on_c, 4, 50, 125
2, 46808, Note_on_c, 3, 55, 125
2, 46897, Note_off_c, 3, 55, 1
2, 46897, Note_on_c, 3, 59, 125
2, 46992, Note_off_c, 3, 59, 1
2, 46992, Note_on_c, 2, 65, 127
2, 47088, Note_off_c, 2, 65, 1
2, 47088, Note_on_c, 3, 55, 125
2, 47182, Note_off_c, 3, 55, 1
2, 47183, Note_on_c, 3, 59, 125
2, 47274, Note_off_c, 3, 59, 1
2, 47275, Note_on_c, 2, 65, 127
2, 47338, Note_off_c, 4, 50, 1
2, 47348, Note_off_c, 4, 43, 1
2, 47366, Note_on_c, 4, 43, 120
2, 47369, Note_off_c, 2, 65, 1
2, 47464, Note_on_c, 4, 50, 125
2, 47558, Note_on_c, 3, 55, 125
2, 47653, Note_off_c, 3, 55, 1
2, 47656, Note_on_c, 3, 59, 125
2, 47751, Note_off_c, 3, 59, 1
2, 47751, Note_on_c, 2, 65, 127
2, 47852, Note_off_c, 2, 65, 1
2, 47853, Note_on_c, 3, 55, 125
2, 47947, Note_off_c, 3, 55, 1
2, 47948, Note_on_c, 3, 59, 125
2, 48042, Note_off_c, 3, 59, 1
2, 48043, Note_on_c, 2, 65, 127
2, 48071, Note_off_c, 4, 50, 1
2, 48116, Note_off_c, 4, 43, 1
2, 48133, Note_on_c, 4, 36, 120
2, 48134, Note_off_c, 2, 65, 1
2, 48229, Note_on_c, 4, 48, 125
2, 48319, Note_on_c, 3, 55, 125
2, 48406, Note_on_c, 3, 58, 125
2, 48417, Note_off_c, 3, 55, 1
2, 48489, Note_on_c, 2, 64, 127
2, 48504, Note_off_c, 3, 58, 1
2, 48593, Note_off_c, 2, 64, 1
2, 48598, Note_on_c, 3, 55, 125
2, 48685, Note_on_c, 3, 58, 125
2, 48705, Note_off_c, 3, 55, 1
2, 48769, Note_on_c, 2, 64, 127
2, 48780, Note_off_c, 3, 58, 1
2, 48837, Note_off_c, 4, 48, 1
2, 48856, Note_off_c, 4, 36, 1
2, 48868, Note_off_c, 2, 64, 1
2, 48873, Note_on_c, 4, 36, 120
2, 48970, Note_on_c, 4, 48, 125
2, 49062, Note_on_c, 3, 55, 125
2, 49154, Note_on_c, 3, 58, 125
2, 49163, Note_off_c, 3, 55, 1
2, 49240, Note_on_c, 2, 64, 127
2, 49256, Note_off_c, 3, 58, 1
2, 49345, Note_on_c, 3, 55, 125
2, 49346, Note_off_c, 2, 64, 1
2, 49435, Note_on_c, 3, 58, 125
2, 49459, Note_off_c, 3, 55, 1
2, 49533, Note_on_c, 2, 64, 127
2, 49542, Note_off_c, 3, 58, 1
2, 49599, Note_off_c, 4, 48, 1
2, 49618, Note_off_c, 4, 36, 1
2, 49631, Note_off_c, 2, 64, 1
2, 49632, Note_on_c, 4, 36, 120
2, 49735, Note_on_c, 4, 48, 125
2, 49829, Note_on_c, 4, 53, 125
2, 49925, Note_off_c, 4, 53, 1
2, 49925, Note_on_c, 3, 57, 125
2, 50014, Note_off_c, 3, 57, 1
2, 50015, Note_on_c, 3, 60, 125
2, 50092, Note_on_c, 2, 65, 127
2, 50095, Note_off_c, 3, 60, 1
2, 50172, Note_off_c, 2, 65, 1
2, 50179, Note_on_c, 3, 60, 125
2, 50259, Note_off_c, 3, 60, 1
2, 50259, Note_on_c, 3, 57, 125
2, 50342, Note_off_c, 3, 57, 1
2, 50343, Note_on_c, 3, 60, 125
2, 50429, Note_off_c, 3, 60, 1
2, 50432, Note_on_c, 3, 57, 125
2, 50518, Note_off_c, 3, 57, 1
2, 50519, Note_on_c, 4, 53, 125
2, 50606, Note_on_c, 3, 57, 125
2, 50613, Note_off_c, 4, 53, 1
2, 50694, Note_off_c, 3, 57, 1
2, 50705, Note_on_c, 4, 53, 125
2, 50797, Note_off_c, 4, 53, 1
2, 50798, Note_on_c, 4, 50, 125
2, 50885, Note_on_c, 4, 53, 125
2, 50892, Note_off_c, 4, 50, 1
2, 50985, Note_off_c, 4, 53, 1
2, 50994, Note_on_c, 4, 50, 125
2, 51084, Note_off_c, 4, 36, 1
2, 51106, Note_off_c, 4, 50, 1
2, 51106, Note_off_c, 4, 48, 1
2, 51107, Note_on_c, 4, 36, 120
2, 51215, Note_on_c, 4, 47, 125
2, 51316, Note_on_c, 2, 67, 127
2, 51407, Note_off_c, 2, 67, 1
2, 51407, Note_on_c, 1, 71, 122
2, 51493, Note_off_c, 1, 71, 1
2, 51493, Note_on_c, 1, 74, 119
2, 51569, Note_on_c, 0, 77, 119
2, 51576, Note_off_c, 1, 74, 1
2, 51646, Note_off_c, 0, 77, 1
2, 51655, Note_on_c, 1, 74, 119
2, 51738, Note_off_c, 1, 74, 1
2, 51738, Note_on_c, 1, 71, 122
2, 51821, Note_on_c, 1, 74, 119
2, 51824, Note_off_c, 1, 71, 1
2, 51912, Note_off_c, 1, 74, 1
2, 51919, Note_on_c, 1, 71, 122
2, 52014, Note_off_c, 1, 71, 1
2, 52014, Note_on_c, 2, 67, 127
2, 52111, Note_off_c, 2, 67, 1
2, 52115, Note_on_c, 1, 71, 125
2, 52212, Note_on_c, 3, 62, 125
2, 52216, Note_off_c, 1, 71, 1
2, 52324, Note_off_c, 3, 62, 1
2, 52324, Note_on_c, 2, 65, 127
2, 52442, Note_off_c, 2, 65, 1
2, 52443, Note_on_c, 2, 64, 127
2, 52483, Note_on_c, 2, 65, 127
2, 52491, Note_off_c, 2, 64, 1
2, 52532, Note_off_c, 2, 65, 1
2, 52535, Note_on_c, 2, 64, 127
2, 52900, Note_off_c, 2, 64, 1
2, 52912, Note_on_c, 3, 62, 125
2, 53404, Note_off_c, 4, 47, 1
2, 53419, Note_off_c, 4, 36, 1
2, 53508, Note_off_c, 3, 62, 1
2, 53514, Note_on_c, 1, 72, 94
2, 53515, Note_on_c, 4, 48, 102
2, 53515, Note_on_c, 2, 67, 102
2, 53516, Note_on_c, 4, 36, 102
2, 53518, Note_on_c, 2, 64, 102
2, 55429, Note_off_c, 2, 67, 1
2, 55429, Note_off_c, 4, 36, 1
2, 55430, Note_off_c, 4, 48, 1
2, 55431, Note_off_c, 1, 72, 1
2, 55466, Note_off_c, 2, 64, 1
2, 55709, Note_on_c, 3, 60, 104
2, 55928, Note_off_c, 3, 60, 1
2, 55929, Note_on_c, 3, 62, 127
2, 56148, Note_off_c, 3, 62, 1
2, 56149, Note_on_c, 2, 64, 127
2, 56351, Note_off_c, 2, 64, 1
2, 56353, Note_on_c, 2, 65, 127
2, 56656, Note_off_c, 2, 65, 1
2, 56659, Note_on_c, 2, 67, 127
2, 56708, Note_off_c, 2, 67, 1
2, 56711, Note_on_c, 2, 65, 127
2, 56757, Note_on_c, 2, 64, 127
2, 56763, Note_off_c, 2, 65, 1
2, 56959, Note_off_c, 2, 64, 1
2, 56959, Note_on_c, 2, 69, 125
2, 57159, Note_off_c, 2, 69, 1
2, 57160, Note_on_c, 3, 62, 123
2, 57355, Note_off_c, 3, 62, 1
2, 57356, Note_on_c, 2, 67, 127
2, 57632, Note_off_c, 2, 67, 1
2, 57655, Note_on_c, 2, 69, 122
2, 57753, Note_off_c, 2, 69, 1
2, 57753, Note_on_c, 2, 67, 127
2, 57853, Note_off_c, 2, 67, 1
2, 57854, Note_on_c, 2, 65, 127
2, 57954, Note_off_c, 2, 65, 1
2, 57955, Note_on_c, 2, 64, 127
2, 58052, Note_off_c, 2, 64, 1
2, 58053, Note_on_c, 2, 65, 127
2, 58152, Note_off_c, 2, 65, 1
2, 58154, Note_on_c, 2, 67, 127
2, 58155, Note_on_c, 2, 64, 127
2, 58255, Note_off_c, 2, 64, 1
2, 58256, Note_on_c, 3, 62, 123
2, 58353, Note_off_c, 2, 67, 1
2, 58354, Note_off_c, 3, 62, 1
2, 58355, Note_on_c, 2, 69, 122
2, 58355, Note_on_c, 3, 60, 123
2, 58454, Note_off_c, 3, 60, 1
2, 58455, Note_on_c, 3, 62, 123
2, 58555, Note_off_c, 3, 62, 1
2, 58555, Note_off_c, 2, 69, 1
2, 58556, Note_on_c, 3, 60, 123
2, 58556, Note_on_c, 1, 71, 122
2, 58654, Note_off_c, 3, 60, 1
2, 58655, Note_on_c, 3, 59, 123
2, 58755, Note_off_c, 3, 59, 1
2, 58755, Note_off_c, 1, 71, 1
2, 58756, Note_on_c, 1, 72, 119
2, 58756, Note_on_c, 3, 57, 123
2, 58949, Note_off_c, 3, 57, 1
2, 58950, Note_on_c, 2, 66, 127
2, 59044, Note_off_c, 1, 72, 1
2, 59045, Note_on_c, 1, 74, 119
2, 59094, Note_off_c, 1, 74, 1
2, 59100, Note_on_c, 1, 72, 119
2, 59143, Note_off_c, 2, 66, 1
2, 59143, Note_on_c, 2, 67, 127
2, 59143, Note_on_c, 1, 71, 119
2, 59145, Note_off_c, 1, 72, 1
2, 59341, Note_off_c, 1, 71, 1
2, 59342, Note_on_c, 1, 76, 119
2, 59537, Note_off_c, 1, 76, 1
2, 59538, Note_on_c, 2, 69, 119
2, 59674, Note_off_c, 2, 67, 1
2, 59737, Note_off_c, 2, 69, 1
2, 59738, Note_on_c, 1, 74, 119
2, 59738, Note_on_c, 2, 66, 127
2, 59835, Note_off_c, 2, 66, 1
2, 59838, Note_on_c, 2, 64, 127
2, 59936, Note_off_c, 2, 64, 1
2, 59937, Note_on_c, 2, 66, 127
2, 60020, Note_off_c, 1, 74, 1
2, 60037, Note_on_c, 1, 76, 119
2, 60138, Note_off_c, 1, 76, 1
2, 60138, Note_off_c, 2, 66, 1
2, 60139, Note_on_c, 3, 62, 123
2, 60139, Note_on_c, 1, 74, 119
2, 60239, Note_off_c, 1, 74, 1
2, 60239, Note_on_c, 1, 72, 119
2, 60336, Note_off_c, 1, 72, 1
2, 60337, Note_off_c, 3, 62, 1
2, 60337, Note_on_c, 2, 67, 127
2, 60338, Note_on_c, 1, 71, 119
2, 60434, Note_off_c, 1, 71, 1
2, 60435, Note_on_c, 2, 67, 127
2, 60536, Note_on_c, 2, 69, 122
2, 60537, Note_on_c, 3, 55, 123
2, 60537, Note_on_c, 2, 65, 127
2, 60591, Note_off_c, 2, 67, 1
2, 60591, Note_off_c, 2, 67, 1
2, 60633, Note_off_c, 2, 69, 1
2, 60634, Note_on_c, 1, 71, 122
2, 60731, Note_off_c, 1, 71, 1
2, 60732, Note_off_c, 2, 65, 1
2, 60732, Note_off_c, 3, 55, 1
2, 60732, Note_on_c, 2, 64, 127
2, 60733, Note_on_c, 1, 72, 122
2, 60733, Note_on_c, 3, 57, 123
2, 60829, Note_off_c, 1, 72, 1
2, 60829, Note_on_c, 1, 71, 122
2, 60930, Note_off_c, 1, 71, 1
2, 60930, Note_off_c, 2, 64, 1
2, 60931, Note_off_c, 3, 57, 1
2, 60931, Note_on_c, 1, 72, 122
2, 60932, Note_on_c, 3, 62, 123
2, 60932, Note_on_c, 3, 59, 123
2, 61028, Note_off_c, 1, 72, 1
2, 61028, Note_on_c, 1, 74, 122
2, 61126, Note_off_c, 1, 74, 1
2, 61126, Note_off_c, 3, 59, 1
2, 61127, Note_off_c, 3, 62, 1
2, 61127, Note_on_c, 3, 60, 123
2, 61128, Note_on_c, 1, 76, 122
2, 61221, Note_off_c, 1, 76, 1
2, 61221, Note_on_c, 1, 74, 122
2, 61319, Note_off_c, 1, 74, 1
2, 61319, Note_on_c, 1, 76, 125
2, 61417, Note_off_c, 1, 76, 1
2, 61419, Note_off_c, 3, 60, 1
2, 61420, Note_on_c, 3, 62, 123
2, 61420, Note_on_c, 0, 78, 125
2, 61467, Note_off_c, 3, 62, 1
2, 61470, Note_on_c, 3, 60, 123
2, 61516, Note_off_c, 0, 78, 1
2, 61516, Note_on_c, 3, 59, 123
2, 61517, Note_on_c, 0, 79, 116
2, 61520, Note_off_c, 3, 60, 1
2, 61714, Note_off_c, 3, 59, 1
2, 61714, Note_off_c, 0, 79, 1
2, 61715, Note_on_c, 2, 67, 127
2, 61715, Note_on_c, 1, 71, 125
2, 61716, Note_on_c, 2, 64, 127
2, 61908, Note_off_c, 2, 64, 1
2, 61908, Note_off_c, 1, 71, 1
2, 61911, Note_on_c, 3, 57, 123
2, 61911, Note_on_c, 1, 72, 125
2, 62104, Note_off_c, 2, 67, 1
2, 62104, Note_off_c, 1, 72, 1
2, 62105, Note_off_c, 3, 57, 1
2, 62105, Note_on_c, 2, 65, 127
2, 62106, Note_on_c, 3, 62, 123
2, 62106, Note_on_c, 2, 69, 125
2, 62202, Note_off_c, 2, 65, 1
2, 62203, Note_on_c, 2, 64, 127
2, 62300, Note_off_c, 2, 64, 1
2, 62303, Note_off_c, 2, 69, 1
2, 62303, Note_on_c, 1, 74, 125
2, 62304, Note_on_c, 2, 65, 127
2, 62383, Note_off_c, 3, 62, 1
2, 62398, Note_off_c, 1, 74, 1
2, 62398, Note_on_c, 2, 64, 127
2, 62399, Note_on_c, 1, 72, 125
2, 62496, Note_off_c, 2, 64, 1
2, 62496, Note_off_c, 1, 72, 1
2, 62496, Note_on_c, 1, 71, 125
2, 62497, Note_on_c, 3, 62, 123
2, 62592, Note_off_c, 3, 62, 1
2, 62592, Note_off_c, 1, 71, 1
2, 62593, Note_on_c, 2, 69, 125
2, 62595, Note_on_c, 3, 60, 123
2, 62688, Note_off_c, 3, 60, 1
2, 62691, Note_off_c, 2, 69, 1
2, 62692, Note_on_c, 3, 59, 123
2, 62692, Note_on_c, 2, 67, 127
2, 62755, Note_off_c, 2, 65, 1
2, 62787, Note_on_c, 2, 65, 127
2, 62884, Note_off_c, 2, 65, 1
2, 62885, Note_off_c, 3, 59, 1
2, 62886, Note_on_c, 3, 60, 123
2, 62886, Note_on_c, 2, 64, 127
2, 62887, Note_on_c, 4, 48, 123
2, 62966, Note_off_c, 2, 67, 1
2, 62984, Note_on_c, 2, 67, 127
2, 63079, Note_off_c, 2, 67, 1
2, 63079, Note_off_c, 4, 48, 1
2, 63080, Note_off_c, 2, 64, 1
2, 63080, Note_on_c, 2, 65, 127
2, 63082, Note_on_c, 3, 62, 123
2, 63082, Note_on_c, 4, 50, 123
2, 63180, Note_off_c, 2, 65, 1
2, 63180, Note_on_c, 2, 64, 127
2, 63281, Note_off_c, 2, 64, 1
2, 63281, Note_off_c, 4, 50, 1
2, 63282, Note_off_c, 3, 60, 1
2, 63282, Note_on_c, 2, 65, 127
2, 63283, Note_on_c, 4, 52, 123
2, 63283, Note_on_c, 3, 58, 123
2, 63381, Note_off_c, 2, 65, 1
2, 63382, Note_on_c, 2, 67, 127
2, 63479, Note_off_c, 2, 67, 1
2, 63480, Note_off_c, 3, 58, 1
2, 63480, Note_off_c, 3, 62, 1
2, 63480, Note_off_c, 4, 52, 1
2, 63481, Note_on_c, 2, 69, 125
2, 63482, Note_on_c, 4, 53, 123
2, 63482, Note_on_c, 3, 60, 123
2, 63483, Note_on_c, 3, 57, 123
2, 63577, Note_off_c, 2, 69, 1
2, 63577, Note_on_c, 2, 67, 127
2, 63677, Note_off_c, 2, 67, 1
2, 63677, Note_off_c, 3, 60, 1
2, 63678, Note_on_c, 2, 65, 127
2, 63678, Note_on_c, 2, 69, 125
2, 63679, Note_off_c, 3, 57, 1
2, 63679, Note_on_c, 3, 62, 123
2, 63774, Note_off_c, 2, 69, 1
2, 63775, Note_on_c, 1, 71, 125
2, 63775, Note_on_c, 3, 55, 123
2, 63776, Note_off_c, 4, 53, 1
2, 63823, Note_off_c, 3, 55, 1
2, 63824, Note_on_c, 4, 53, 123
2, 63873, Note_off_c, 2, 65, 1
2, 63873, Note_off_c, 1, 71, 1
2, 63874, Note_off_c, 3, 62, 1
2, 63874, Note_on_c, 1, 72, 125
2, 63875, Note_off_c, 4, 53, 1
2, 63875, Note_on_c, 3, 55, 123
2, 63875, Note_on_c, 4, 52, 123
2, 63971, Note_on_c, 2, 67, 127
2, 64068, Note_off_c, 2, 67, 1
2, 64069, Note_off_c, 4, 52, 1
2, 64069, Note_off_c, 3, 55, 1
2, 64069, Note_on_c, 3, 57, 123
2, 64070, Note_on_c, 3, 60, 123
2, 64070, Note_on_c, 2, 65, 127
2, 64166, Note_off_c, 2, 65, 1
2, 64167, Note_on_c, 2, 64, 127
2, 64261, Note_off_c, 2, 64, 1
2, 64264, Note_off_c, 3, 57, 1
2, 64265, Note_off_c, 3, 60, 1
2, 64265, Note_on_c, 4, 50, 123
2, 64265, Note_on_c, 2, 65, 127
2, 64359, Note_on_c, 3, 57, 123
2, 64454, Note_off_c, 3, 57, 1
2, 64455, Note_off_c, 2, 65, 1
2, 64455, Note_off_c, 4, 50, 1
2, 64456, Note_on_c, 3, 55, 123
2, 64456, Note_on_c, 3, 62, 123
2, 64457, Note_on_c, 3, 59, 123
2, 64549, Note_off_c, 3, 59, 1
2, 64552, Note_on_c, 3, 60, 123
2, 64647, Note_off_c, 3, 60, 1
2, 64648, Note_off_c, 1, 72, 1
2, 64648, Note_off_c, 3, 62, 1
2, 64649, Note_on_c, 2, 67, 127
2, 64649, Note_on_c, 1, 71, 125
2, 64650, Note_on_c, 3, 62, 123
2, 64728, Note_off_c, 3, 55, 1
2, 64742, Note_on_c, 3, 57, 123
2, 64840, Note_off_c, 3, 57, 1
2, 64841, Note_on_c, 3, 55, 123
2, 64938, Note_off_c, 3, 55, 1
2, 64939, Note_on_c, 4, 53, 123
2, 65036, Note_off_c, 4, 53, 1
2, 65037, Note_off_c, 1, 71, 1
2, 65037, Note_off_c, 3, 62, 1
2, 65038, Note_on_c, 3, 55, 123
2, 65038, Note_on_c, 4, 52, 123
2, 65133, Note_off_c, 4, 52, 1
2, 65133, Note_on_c, 4, 53, 123
2, 65228, Note_off_c, 4, 53, 1
2, 65228, Note_on_c, 4, 52, 123
2, 65229, Note_on_c, 1, 72, 125
2, 65323, Note_off_c, 4, 52, 1
2, 65323, Note_on_c, 4, 50, 123
2, 65421, Note_off_c, 4, 50, 1
2, 65421, Note_off_c, 1, 72, 1
2, 65422, Note_off_c, 3, 55, 1
2, 65422, Note_on_c, 1, 74, 125
2, 65423, Note_off_c, 2, 67, 1
2, 65423, Note_on_c, 4, 48, 123
2, 65519, Note_off_c, 4, 48, 1
2, 65519, Note_on_c, 4, 50, 123
2, 65614, Note_off_c, 4, 50, 1
2, 65615, Note_off_c, 1, 74, 1
2, 65615, Note_on_c, 3, 55, 123
2, 65616, Note_on_c, 1, 76, 125
2, 65616, Note_on_c, 4, 48, 123
2, 65709, Note_off_c, 4, 48, 1
2, 65709, Note_on_c, 4, 47, 123
2, 65804, Note_off_c, 1, 76, 1
2, 65804, Note_off_c, 4, 47, 1
2, 65805, Note_off_c, 3, 55, 1
2, 65805, Note_on_c, 0, 77, 122
2, 65806, Note_on_c, 3, 57, 123
2, 65806, Note_on_c, 4, 45, 123
2, 65994, Note_off_c, 4, 45, 1
2, 65994, Note_off_c, 3, 57, 1
2, 65995, Note_on_c, 4, 50, 123
2, 65995, Note_on_c, 3, 59, 123
2, 66089, Note_off_c, 0, 77, 1
2, 66089, Note_on_c, 0, 79, 113
2, 66138, Note_off_c, 0, 79, 1
2, 66138, Note_on_c, 0, 77, 122
2, 66187, Note_off_c, 0, 77, 1
2, 66188, Note_off_c, 3, 59, 1
2, 66188, Note_off_c, 4, 50, 1
2, 66188, Note_on_c, 3, 60, 123
2, 66189, Note_on_c, 3, 57, 123
2, 66189, Note_on_c, 1, 76, 122
2, 66377, Note_off_c, 3, 57, 1
2, 66378, Note_off_c, 1, 76, 1
2, 66378, Note_on_c, 0, 81, 113
2, 66380, Note_on_c, 4, 54, 123
2, 66472, Note_off_c, 3, 60, 1
2, 66475, Note_on_c, 3, 62, 123
2, 66521, Note_on_c, 3, 60, 123
2, 66522, Note_off_c, 3, 62, 1
2, 66569, Note_off_c, 3, 60, 1
2, 66569, Note_off_c, 4, 54, 1
2, 66570, Note_off_c, 0, 81, 1
2, 66570, Note_on_c, 1, 74, 122
2, 66572, Note_on_c, 3, 59, 123
2, 66572, Note_on_c, 3, 55, 123
2, 66667, Note_off_c, 3, 55, 1
2, 66667, Note_on_c, 3, 57, 123
2, 66762, Note_off_c, 3, 59, 1
2, 66762, Note_off_c, 3, 57, 1
2, 66763, Note_off_c, 1, 74, 1
2, 66763, Note_on_c, 0, 79, 113
2, 66764, Note_on_c, 2, 64, 127
2, 66764, Note_on_c, 3, 58, 123
2, 66855, Note_off_c, 3, 58, 1
2, 66856, Note_on_c, 3, 55, 123
2, 66949, Note_off_c, 3, 55, 1
2, 66949, Note_off_c, 2, 64, 1
2, 66950, Note_on_c, 4, 49, 123
2, 66950, Note_on_c, 3, 57, 123
2, 67044, Note_off_c, 0, 79, 1
2, 67044, Note_on_c, 0, 81, 113
2, 67139, Note_off_c, 0, 81, 1
2, 67140, Note_off_c, 3, 57, 1
2, 67140, Note_off_c, 4, 49, 1
2, 67140, Note_on_c, 0, 79, 113
2, 67141, Note_on_c, 4, 50, 123
2, 67141, Note_on_c, 3, 62, 123
2, 67234, Note_off_c, 0, 79, 1
2, 67235, Note_on_c, 0, 77, 122
2, 67331, Note_off_c, 0, 77, 1
2, 67331, Note_off_c, 4, 50, 1
2, 67332, Note_on_c, 3, 57, 123
2, 67332, Note_on_c, 1, 76, 122
2, 67426, Note_off_c, 3, 62, 1
2, 67426, Note_on_c, 2, 64, 127
2, 67521, Note_off_c, 2, 64, 1
2, 67524, Note_off_c, 1, 76, 1
2, 67524, Note_on_c, 0, 81, 113
2, 67524, Note_on_c, 3, 62, 123
2, 67619, Note_off_c, 3, 62, 1
2, 67619, Note_on_c, 3, 60, 123
2, 67714, Note_off_c, 3, 60, 1
2, 67714, Note_off_c, 3, 57, 1
2, 67715, Note_on_c, 4, 52, 123
2, 67715, Note_on_c, 3, 59, 123
2, 67809, Note_off_c, 0, 81, 1
2, 67812, Note_on_c, 0, 83, 113
2, 67907, Note_off_c, 0, 83, 1
2, 67907, Note_off_c, 3, 59, 1
2, 67908, Note_on_c, 2, 64, 127
2, 67908, Note_on_c, 0, 81, 113
2, 68002, Note_off_c, 0, 81, 1
2, 68003, Note_on_c, 0, 79, 113
2, 68097, Note_off_c, 0, 79, 1
2, 68100, Note_off_c, 4, 52, 1
2, 68100, Note_on_c, 0, 77, 122
2, 68101, Note_on_c, 3, 57, 123
2, 68195, Note_off_c, 3, 57, 1
2, 68195, Note_on_c, 3, 59, 123
2, 68292, Note_off_c, 3, 59, 1
2, 68292, Note_on_c, 2, 67, 127
2, 68292, Note_on_c, 3, 60, 123
2, 68388, Note_off_c, 3, 60, 1
2, 68391, Note_on_c, 3, 62, 123
2, 68485, Note_off_c, 3, 62, 1
2, 68486, Note_off_c, 2, 67, 1
2, 68486, Note_off_c, 2, 64, 1
2, 68487, Note_on_c, 3, 62, 123
2, 68488, Note_on_c, 2, 69, 125
2, 68488, Note_on_c, 3, 60, 123
2, 68581, Note_off_c, 3, 60, 1
2, 68584, Note_on_c, 3, 59, 123
2, 68679, Note_off_c, 2, 69, 1
2, 68679, Note_off_c, 3, 59, 1
2, 68680, Note_on_c, 1, 71, 122
2, 68680, Note_on_c, 3, 57, 123
2, 68775, Note_off_c, 3, 57, 1
2, 68776, Note_on_c, 3, 55, 123
2, 68869, Note_off_c, 3, 55, 1
2, 68872, Note_off_c, 1, 71, 1
2, 68872, Note_off_c, 3, 62, 1
2, 68873, Note_off_c, 0, 77, 1
2, 68873, Note_on_c, 1, 76, 122
2, 68874, Note_on_c, 1, 72, 122
2, 68874, Note_on_c, 3, 60, 123
2, 68967, Note_on_c, 3, 59, 123
2, 69065, Note_off_c, 3, 59, 1
2, 69065, Note_off_c, 3, 60, 1
2, 69066, Note_on_c, 3, 60, 123
2, 69145, Note_off_c, 1, 72, 1
2, 69163, Note_off_c, 3, 60, 1
2, 69163, Note_off_c, 1, 76, 1
2, 69164, Note_on_c, 0, 78, 122
2, 69164, Note_on_c, 1, 74, 122
2, 69165, Note_on_c, 3, 57, 123
2, 69212, Note_off_c, 1, 74, 1
2, 69215, Note_on_c, 1, 72, 122
2, 69261, Note_off_c, 3, 57, 1
2, 69261, Note_off_c, 0, 78, 1
2, 69262, Note_on_c, 0, 79, 113
2, 69262, Note_on_c, 1, 71, 122
2, 69263, Note_off_c, 1, 72, 1
2, 69263, Note_on_c, 2, 64, 127
2, 69356, Note_off_c, 2, 64, 1
2, 69356, Note_on_c, 3, 62, 123
2, 69456, Note_off_c, 3, 62, 1
2, 69457, Note_off_c, 1, 71, 1
2, 69457, Note_on_c, 1, 76, 122
2, 69458, Note_on_c, 3, 60, 123
2, 69554, Note_off_c, 3, 60, 1
2, 69555, Note_on_c, 3, 59, 123
2, 69652, Note_off_c, 1, 76, 1
2, 69653, Note_off_c, 3, 59, 1
2, 69653, Note_on_c, 2, 69, 125
2, 69654, Note_on_c, 3, 60, 123
2, 69747, Note_off_c, 3, 60, 1
2, 69748, Note_on_c, 3, 57, 123
2, 69845, Note_off_c, 3, 57, 1
2, 69846, Note_off_c, 2, 69, 1
2, 69846, Note_on_c, 3, 59, 123
2, 69847, Note_on_c, 1, 74, 122
2, 69942, Note_off_c, 3, 59, 1
2, 69942, Note_on_c, 3, 60, 123
2, 70037, Note_off_c, 3, 60, 1
2, 70037, Note_off_c, 0, 79, 1
2, 70038, Note_on_c, 0, 78, 122
2, 70038, Note_on_c, 3, 62, 123
2, 70106, Note_off_c, 1, 74, 1
2, 70129, Note_off_c, 3, 62, 1
2, 70129, Note_on_c, 1, 76, 122
2, 70130, Note_on_c, 3, 60, 123
2, 70224, Note_off_c, 3, 60, 1
2, 70224, Note_off_c, 1, 76, 1
2, 70225, Note_on_c, 3, 59, 123
2, 70225, Note_on_c, 1, 74, 122
2, 70322, Note_off_c, 3, 59, 1
2, 70323, Note_off_c, 1, 74, 1
2, 70323, Note_on_c, 3, 57, 123
2, 70324, Note_on_c, 1, 72, 122
2, 70420, Note_off_c, 3, 57, 1
2, 70420, Note_off_c, 0, 78, 1
2, 70421, Note_off_c, 1, 72, 1
2, 70421, Note_on_c, 0, 79, 113
2, 70423, Note_on_c, 3, 55, 123
2, 70423, Note_on_c, 1, 71, 122
2, 70518, Note_off_c, 0, 79, 1
2, 70518, Note_on_c, 0, 77, 122
2, 70613, Note_off_c, 0, 77, 1
2, 70614, Note_on_c, 4, 43, 123
2, 70614, Note_on_c, 1, 76, 122
2, 70615, Note_off_c, 1, 71, 1
2, 70708, Note_off_c, 1, 76, 1
2, 70708, Note_on_c, 1, 74, 122
2, 70806, Note_off_c, 4, 43, 1
2, 70806, Note_off_c, 1, 74, 1
2, 70807, Note_off_c, 3, 55, 1
2, 70807, Note_on_c, 4, 45, 123
2, 70808, Note_on_c, 1, 72, 125
2, 70901, Note_off_c, 1, 72, 1
2, 70901, Note_on_c, 1, 74, 125
2, 70996, Note_off_c, 1, 74, 1
2, 70997, Note_off_c, 4, 45, 1
2, 70997, Note_on_c, 4, 47, 123
2, 70997, Note_on_c, 1, 72, 125
2, 70998, Note_on_c, 3, 62, 123
2, 71090, Note_off_c, 1, 72, 1
2, 71090, Note_on_c, 1, 71, 125
2, 71185, Note_off_c, 1, 71, 1
2, 71185, Note_off_c, 3, 62, 1
2, 71186, Note_off_c, 4, 47, 1
2, 71186, Note_on_c, 2, 69, 125
2, 71186, Note_on_c, 2, 64, 127
2, 71187, Note_on_c, 4, 48, 123
2, 71280, Note_off_c, 2, 69, 1
2, 71280, Note_on_c, 1, 72, 125
2, 71376, Note_off_c, 1, 72, 1
2, 71377, Note_off_c, 2, 64, 1
2, 71377, Note_on_c, 1, 71, 125
2, 71379, Note_on_c, 2, 66, 127
2, 71472, Note_off_c, 1, 71, 1
2, 71474, Note_off_c, 4, 48, 1
2, 71475, Note_on_c, 4, 50, 123
2, 71475, Note_on_c, 2, 69, 125
2, 71520, Note_off_c, 4, 50, 1
2, 71526, Note_on_c, 4, 48, 123
2, 71569, Note_off_c, 2, 69, 1
2, 71570, Note_off_c, 2, 66, 1
2, 71570, Note_on_c, 2, 67, 127
2, 71571, Note_on_c, 4, 47, 123
2, 71574, Note_off_c, 4, 48, 1
2, 71760, Note_off_c, 4, 47, 1
2, 71760, Note_on_c, 4, 52, 123
2, 71840, Note_off_c, 2, 67, 1
2, 71856, Note_on_c, 2, 69, 125
2, 71901, Note_off_c, 2, 69, 1
2, 71906, Note_on_c, 2, 67, 127
2, 71950, Note_off_c, 4, 52, 1
2, 71950, Note_on_c, 4, 45, 123
2, 71951, Note_on_c, 2, 66, 127
2, 71954, Note_off_c, 2, 67, 1
2, 72045, Note_on_c, 1, 72, 125
2, 72140, Note_off_c, 1, 72, 1
2, 72140, Note_off_c, 2, 66, 1
2, 72141, Note_off_c, 4, 45, 1
2, 72141, Note_on_c, 4, 50, 123
2, 72142, Note_on_c, 1, 71, 125
2, 72236, Note_on_c, 2, 69, 125
2, 72331, Note_off_c, 1, 71, 1
2, 72332, Note_off_c, 2, 69, 1
2, 72332, Note_on_c, 2, 64, 127
2, 72333, Note_on_c, 2, 68, 125
2, 72426, Note_off_c, 4, 50, 1
2, 72427, Note_on_c, 4, 52, 123
2, 72518, Note_off_c, 4, 52, 1
2, 72519, Note_off_c, 2, 64, 1
2, 72519, Note_off_c, 2, 68, 1
2, 72520, Note_on_c, 2, 69, 125
2, 72520, Note_on_c, 1, 76, 125
2, 72521, Note_on_c, 4, 50, 123
2, 72613, Note_off_c, 4, 50, 1
2, 72616, Note_on_c, 4, 48, 123
2, 72711, Note_off_c, 4, 48, 1
2, 72712, Note_off_c, 1, 76, 1
2, 72712, Note_on_c, 4, 47, 123
2, 72713, Note_on_c, 1, 74, 125
2, 72806, Note_off_c, 2, 69, 1
2, 72807, Note_on_c, 1, 71, 125
2, 72896, Note_off_c, 4, 47, 1
2, 72902, Note_off_c, 1, 71, 1
2, 72904, Note_off_c, 1, 74, 1
2, 72905, Note_on_c, 4, 52, 123
2, 72905, Note_on_c, 1, 72, 125
2, 72906, Note_on_c, 2, 69, 125
2, 72998, Note_off_c, 1, 72, 1
2, 72998, Note_off_c, 2, 69, 1
2, 72999, Note_on_c, 1, 71, 125
2, 73001, Note_on_c, 2, 68, 125
2, 73096, Note_off_c, 2, 68, 1
2, 73096, Note_off_c, 1, 71, 1
2, 73097, Note_on_c, 2, 66, 127
2, 73097, Note_on_c, 2, 69, 125
2, 73098, Note_on_c, 4, 54, 123
2, 73194, Note_off_c, 2, 69, 1
2, 73195, Note_on_c, 2, 68, 125
2, 73291, Note_off_c, 2, 68, 1
2, 73291, Note_off_c, 4, 54, 1
2, 73294, Note_off_c, 4, 52, 1
2, 73294, Note_off_c, 2, 66, 1
2, 73295, Note_on_c, 3, 56, 123
2, 73295, Note_on_c, 2, 65, 127
2, 73295, Note_on_c, 2, 69, 125
2, 73296, Note_on_c, 4, 50, 123
2, 73387, Note_off_c, 2, 69, 1
2, 73388, Note_on_c, 1, 71, 125
2, 73482, Note_off_c, 1, 71, 1
2, 73483, Note_off_c, 2, 65, 1
2, 73483, Note_off_c, 4, 50, 1
2, 73484, Note_off_c, 3, 56, 1
2, 73485, Note_on_c, 1, 72, 125
2, 73486, Note_on_c, 3, 57, 123
2, 73486, Note_on_c, 2, 64, 127
2, 73487, Note_on_c, 4, 48, 123
2, 73580, Note_off_c, 1, 72, 1
2, 73581, Note_on_c, 2, 66, 127
2, 73675, Note_off_c, 2, 66, 1
2, 73676, Note_off_c, 4, 48, 1
2, 73676, Note_off_c, 2, 64, 1
2, 73677, Note_on_c, 3, 62, 123
2, 73677, Note_on_c, 2, 68, 125
2, 73678, Note_on_c, 4, 53, 123
2, 73770, Note_off_c, 2, 68, 1
2, 73771, Note_off_c, 3, 57, 1
2, 73771, Note_on_c, 2, 69, 125
2, 73772, Note_on_c, 3, 59, 123
2, 73819, Note_off_c, 3, 59, 1
2, 73825, Note_on_c, 3, 57, 123
2, 73871, Note_off_c, 2, 69, 1
2, 73872, Note_off_c, 3, 57, 1
2, 73872, Note_on_c, 3, 55, 123
2, 73872, Note_on_c, 1, 71, 125
2, 73968, Note_off_c, 3, 62, 1
2, 73968, Note_on_c, 2, 64, 127
2, 74068, Note_off_c, 2, 64, 1
2, 74069, Note_off_c, 4, 53, 1
2, 74069, Note_off_c, 3, 55, 1
2, 74070, Note_off_c, 1, 71, 1
2, 74070, Note_on_c, 4, 52, 123
2, 74071, Note_on_c, 3, 60, 123
2, 74071, Note_on_c, 2, 69, 125
2, 74072, Note_on_c, 2, 66, 127
2, 74163, Note_off_c, 2, 66, 1
2, 74164, Note_off_c, 2, 69, 1
2, 74164, Note_on_c, 1, 71, 125
2, 74165, Note_on_c, 2, 68, 125
2, 74261, Note_off_c, 2, 68, 1
2, 74262, Note_off_c, 1, 71, 1
2, 74262, Note_off_c, 3, 60, 1
2, 74263, Note_on_c, 4, 54, 123
2, 74263, Note_on_c, 1, 72, 125
2, 74264, Note_on_c, 2, 69, 125
2, 74356, Note_off_c, 2, 69, 1
2, 74357, Note_on_c, 2, 68, 125
2, 74454, Note_off_c, 2, 68, 1
2, 74455, Note_off_c, 1, 72, 1
2, 74455, Note_off_c, 4, 54, 1
2, 74456, Note_off_c, 4, 52, 1
2, 74456, Note_on_c, 0, 77, 125
2, 74457, Note_on_c, 3, 59, 123
2, 74457, Note_on_c, 2, 69, 125
2, 74458, Note_on_c, 4, 50, 123
2, 74552, Note_off_c, 2, 69, 1
2, 74553, Note_on_c, 1, 71, 125
2, 74648, Note_off_c, 1, 71, 1
2, 74650, Note_off_c, 0, 77, 1
2, 74651, Note_on_c, 1, 76, 125
2, 74651, Note_on_c, 2, 68, 125
2, 74747, Note_off_c, 2, 68, 1
2, 74747, Note_off_c, 3, 59, 1
2, 74748, Note_on_c, 2, 66, 127
2, 74748, Note_on_c, 3, 60, 123
2, 74844, Note_off_c, 2, 66, 1
2, 74845, Note_off_c, 3, 60, 1
2, 74845, Note_off_c, 1, 76, 1
2, 74846, Note_off_c, 4, 50, 1
2, 74846, Note_on_c, 1, 74, 125
2, 74847, Note_on_c, 3, 59, 123
2, 74847, Note_on_c, 2, 68, 125
2, 74848, Note_on_c, 4, 52, 123
2, 74942, Note_off_c, 2, 68, 1
2, 74943, Note_off_c, 3, 59, 1
2, 74943, Note_on_c, 2, 69, 125
2, 74944, Note_on_c, 3, 57, 123
2, 75041, Note_off_c, 3, 57, 1
2, 75041, Note_off_c, 2, 69, 1
2, 75041, Note_off_c, 4, 52, 1
2, 75042, Note_on_c, 4, 53, 123
2, 75042, Note_on_c, 1, 71, 125
2, 75043, Note_on_c, 3, 56, 123
2, 75233, Note_off_c, 1, 71, 1
2, 75234, Note_off_c, 1, 74, 1
2, 75234, Note_off_c, 4, 53, 1
2, 75235, Note_on_c, 3, 57, 123
2, 75235, Note_on_c, 1, 72, 125
2, 75236, Note_off_c, 3, 56, 1
2, 75236, Note_on_c, 4, 52, 123
2, 75332, Note_off_c, 4, 52, 1
2, 75332, Note_off_c, 1, 72, 1
2, 75332, Note_on_c, 1, 71, 125
2, 75333, Note_on_c, 4, 50, 123
2, 75437, Note_off_c, 1, 71, 1
2, 75437, Note_off_c, 4, 50, 1
2, 75437, Note_on_c, 1, 72, 116
2, 75438, Note_on_c, 4, 52, 123
2, 75472, Note_off_c, 1, 72, 1
2, 75473, Note_on_c, 1, 71, 116
2, 75507, Note_off_c, 1, 71, 1
2, 75508, Note_on_c, 1, 72, 116
2, 75539, Note_off_c, 1, 72, 1
2, 75539, Note_on_c, 1, 71, 116
2, 75571, Note_off_c, 1, 71, 1
2, 75571, Note_on_c, 1, 72, 116
2, 75602, Note_off_c, 1, 72, 1
2, 75603, Note_on_c, 1, 71, 127
2, 75631, Note_off_c, 1, 71, 1
2, 75632, Note_on_c, 1, 72, 127
2, 75638, Note_off_c, 3, 57, 1
2, 75657, Note_off_c, 1, 72, 1
2, 75658, Note_on_c, 1, 71, 127
2, 75684, Note_off_c, 1, 71, 1
2, 75684, Note_on_c, 1, 72, 127
2, 75686, Note_on_c, 3, 56, 127
2, 75712, Note_off_c, 1, 72, 1
2, 75712, Note_on_c, 1, 71, 127
2, 75787, Note_off_c, 1, 71, 1
2, 75787, Note_on_c, 2, 69, 127
2, 75869, Note_off_c, 3, 56, 1
2, 75883, Note_off_c, 2, 69, 1
2, 75891, Note_on_c, 2, 69, 127
2, 75892, Note_on_c, 4, 45, 98
2, 75892, Note_on_c, 3, 57, 127
2, 75936, Note_off_c, 4, 52, 1
2, 76085, Note_on_c, 3, 60, 123
2, 76278, Note_off_c, 3, 60, 1
2, 76281, Note_off_c, 3, 57, 1
2, 76281, Note_off_c, 4, 45, 1
2, 76282, Note_off_c, 2, 69, 1
2, 76282, Note_on_c, 3, 62, 123
2, 76471, Note_off_c, 3, 62, 1
2, 76474, Note_on_c, 3, 55, 123
2, 76474, Note_on_c, 2, 64, 127
2, 76664, Note_off_c, 2, 64, 1
2, 76664, Note_off_c, 3, 55, 1
2, 76665, Note_on_c, 3, 57, 123
2, 76665, Note_on_c, 2, 65, 127
2, 76854, Note_off_c, 3, 57, 1
2, 76854, Note_on_c, 3, 59, 123
2, 76933, Note_off_c, 2, 65, 1
2, 76947, Note_on_c, 2, 67, 127
2, 76996, Note_off_c, 2, 67, 1
2, 76999, Note_on_c, 2, 65, 127
2, 77045, Note_off_c, 3, 59, 1
2, 77046, Note_on_c, 3, 60, 123
2, 77046, Note_on_c, 2, 64, 127
2, 77047, Note_off_c, 2, 65, 1
2, 77234, Note_off_c, 2, 64, 1
2, 77234, Note_on_c, 2, 69, 125
2, 77329, Note_off_c, 3, 60, 1
2, 77329, Note_on_c, 3, 62, 123
2, 77375, Note_off_c, 3, 62, 1
2, 77378, Note_on_c, 3, 60, 123
2, 77424, Note_off_c, 2, 69, 1
2, 77424, Note_on_c, 3, 62, 123
2, 77425, Note_off_c, 3, 60, 1
2, 77425, Note_on_c, 3, 59, 123
2, 77614, Note_off_c, 3, 59, 1
2, 77615, Note_off_c, 3, 62, 1
2, 77615, Note_on_c, 2, 67, 127
2, 77616, Note_on_c, 4, 43, 123
2, 77616, Note_on_c, 2, 64, 127
2, 77807, Note_off_c, 4, 43, 1
2, 77808, Note_off_c, 2, 64, 1
2, 77808, Note_on_c, 4, 45, 123
2, 77808, Note_on_c, 3, 57, 123
2, 77905, Note_off_c, 2, 67, 1
2, 77906, Note_on_c, 2, 69, 125
2, 78003, Note_off_c, 2, 69, 1
2, 78004, Note_off_c, 3, 57, 1
2, 78004, Note_off_c, 4, 45, 1
2, 78004, Note_on_c, 2, 67, 127
2, 78005, Note_on_c, 3, 62, 123
2, 78005, Note_on_c, 4, 47, 123
2, 78097, Note_off_c, 2, 67, 1
2, 78097, Note_on_c, 2, 65, 127
2, 78195, Note_off_c, 2, 65, 1
2, 78195, Note_off_c, 4, 47, 1
2, 78195, Note_on_c, 4, 48, 123
2, 78196, Note_on_c, 2, 64, 127
2, 78324, Note_off_c, 2, 64, 1
2, 78388, Note_off_c, 3, 62, 1
2, 78388, Note_on_c, 2, 67, 127
2, 78389, Note_on_c, 3, 55, 123
2, 78389, Note_on_c, 2, 64, 127
2, 78483, Note_off_c, 4, 48, 1
2, 78483, Note_on_c, 4, 50, 123
2, 78529, Note_off_c, 2, 64, 1
2, 78532, Note_off_c, 4, 50, 1
2, 78535, Note_on_c, 4, 48, 123
2, 78578, Note_off_c, 2, 67, 1
2, 78579, Note_off_c, 3, 55, 1
2, 78579, Note_on_c, 2, 69, 125
2, 78579, Note_on_c, 2, 66, 127
2, 78582, Note_on_c, 4, 47, 123
2, 78583, Note_off_c, 4, 48, 1
2, 78583, Note_on_c, 3, 62, 123
2, 78710, Note_off_c, 2, 66, 1
2, 78774, Note_off_c, 2, 69, 1
2, 78774, Note_off_c, 4, 47, 1
2, 78775, Note_on_c, 2, 67, 127
2, 78775, Note_on_c, 1, 71, 125
2, 78776, Note_on_c, 4, 52, 123
2, 78964, Note_off_c, 1, 71, 1
2, 78964, Note_off_c, 4, 52, 1
2, 78965, Note_off_c, 3, 62, 1
2, 78965, Note_on_c, 1, 72, 125
2, 78967, Note_on_c, 3, 60, 123
2, 78967, Note_on_c, 4, 45, 123
2, 79111, Note_off_c, 2, 67, 1
2, 79157, Note_off_c, 4, 45, 1
2, 79157, Note_off_c, 3, 60, 1
2, 79158, Note_on_c, 4, 50, 123
2, 79158, Note_on_c, 2, 66, 127
2, 79159, Note_on_c, 3, 57, 123
2, 79252, Note_off_c, 1, 72, 1
2, 79252, Note_on_c, 1, 74, 125
2, 79301, Note_off_c, 1, 74, 1
2, 79304, Note_on_c, 1, 72, 125
2, 79347, Note_off_c, 2, 66, 1
2, 79347, Note_off_c, 3, 57, 1
2, 79348, Note_on_c, 2, 68, 125
2, 79348, Note_on_c, 1, 71, 125
2, 79350, Note_on_c, 2, 64, 127
2, 79351, Note_off_c, 1, 72, 1
2, 79442, Note_off_c, 4, 50, 1
2, 79442, Note_on_c, 4, 52, 123
2, 79537, Note_off_c, 4, 52, 1
2, 79537, Note_off_c, 2, 68, 1
2, 79538, Note_off_c, 1, 71, 1
2, 79538, Note_on_c, 1, 72, 125
2, 79539, Note_on_c, 2, 69, 125
2, 79539, Note_on_c, 4, 50, 123
2, 79632, Note_off_c, 4, 50, 1
2, 79633, Note_on_c, 4, 48, 123
2, 79727, Note_off_c, 1, 72, 1
2, 79728, Note_off_c, 2, 64, 1
2, 79728, Note_off_c, 4, 48, 1
2, 79728, Note_on_c, 1, 74, 125
2, 79729, Note_on_c, 3, 62, 123
2, 79729, Note_on_c, 4, 47, 123
2, 79897, Note_off_c, 2, 69, 1
2, 79911, Note_off_c, 4, 47, 1
2, 79912, Note_off_c, 3, 62, 1
2, 79912, Note_off_c, 1, 74, 1
2, 79913, Note_on_c, 1, 76, 125
2, 79915, Note_on_c, 4, 46, 123
2, 79915, Note_on_c, 2, 67, 127
2, 80099, Note_off_c, 1, 76, 1
2, 80099, Note_off_c, 4, 46, 1
2, 80100, Note_off_c, 2, 67, 1
2, 80100, Note_on_c, 2, 69, 125
2, 80100, Note_on_c, 0, 77, 125
2, 80101, Note_on_c, 4, 45, 123
2, 80289, Note_off_c, 4, 45, 1
2, 80290, Note_off_c, 2, 69, 1
2, 80290, Note_on_c, 4, 43, 123
2, 80290, Note_on_c, 1, 71, 125
2, 80384, Note_off_c, 0, 77, 1
2, 80385, Note_on_c, 0, 79, 116
2, 80430, Note_off_c, 0, 79, 1
2, 80433, Note_on_c, 0, 77, 125
2, 80476, Note_off_c, 4, 43, 1
2, 80477, Note_off_c, 1, 71, 1
2, 80477, Note_on_c, 1, 76, 125
2, 80478, Note_on_c, 4, 45, 123
2, 80478, Note_on_c, 1, 72, 125
2, 80479, Note_off_c, 0, 77, 1
2, 80664, Note_off_c, 1, 76, 1
2, 80664, Note_off_c, 4, 45, 1
2, 80664, Note_on_c, 0, 81, 116
2, 80665, Note_on_c, 3, 57, 123
2, 80665, Note_on_c, 4, 54, 123
2, 80718, Note_off_c, 1, 72, 1
2, 80759, Note_on_c, 1, 74, 125
2, 80806, Note_off_c, 1, 74, 1
2, 80807, Note_on_c, 1, 72, 125
2, 80852, Note_off_c, 4, 54, 1
2, 80853, Note_off_c, 3, 57, 1
2, 80853, Note_off_c, 0, 81, 1
2, 80854, Note_on_c, 3, 59, 123
2, 80854, Note_on_c, 1, 74, 125
2, 80855, Note_on_c, 3, 55, 123
2, 80855, Note_on_c, 1, 71, 125
2, 80856, Note_off_c, 1, 72, 1
2, 80996, Note_off_c, 1, 71, 1
2, 81042, Note_off_c, 3, 59, 1
2, 81043, Note_off_c, 1, 74, 1
2, 81043, Note_off_c, 3, 55, 1
2, 81044, Note_on_c, 3, 61, 123
2, 81044, Note_on_c, 0, 79, 116
2, 81045, Note_on_c, 4, 52, 123
2, 81045, Note_on_c, 1, 76, 125
2, 81231, Note_off_c, 3, 61, 1
2, 81231, Note_off_c, 4, 52, 1
2, 81232, Note_off_c, 1, 76, 1
2, 81232, Note_on_c, 2, 69, 125
2, 81233, Note_on_c, 4, 50, 123
2, 81233, Note_on_c, 3, 62, 123
2, 81324, Note_off_c, 0, 79, 1
2, 81325, Note_on_c, 0, 81, 113
2, 81420, Note_off_c, 2, 69, 1
2, 81420, Note_off_c, 0, 81, 1
2, 81420, Note_on_c, 1, 74, 125
2, 81421, Note_on_c, 0, 79, 113
2, 81517, Note_off_c, 0, 79, 1
2, 81518, Note_off_c, 3, 62, 1
2, 81518, Note_on_c, 0, 77, 122
2, 81519, Note_on_c, 2, 64, 127
2, 81564, Note_off_c, 2, 64, 1
2, 81569, Note_on_c, 3, 62, 123
2, 81612, Note_off_c, 0, 77, 1
2, 81613, Note_off_c, 4, 50, 1
2, 81613, Note_on_c, 3, 60, 123
2, 81614, Note_on_c, 1, 76, 122
2, 81614, Note_on_c, 4, 52, 123
2, 81615, Note_off_c, 3, 62, 1
2, 81708, Note_off_c, 1, 74, 1
2, 81708, Note_on_c, 1, 76, 122
2, 81797, Note_off_c, 3, 60, 1
2, 81806, Note_off_c, 4, 52, 1
2, 81807, Note_on_c, 2, 65, 127
2, 81807, Note_on_c, 0, 81, 113
2, 81808, Note_on_c, 4, 53, 123
2, 81808, Note_on_c, 1, 74, 125
2, 81831, Note_off_c, 1, 76, 1
2, 81831, Note_off_c, 1, 76, 1
2, 81901, Note_off_c, 1, 74, 1
2, 81901, Note_on_c, 1, 72, 125
2, 81993, Note_off_c, 1, 72, 1
2, 81993, Note_off_c, 4, 53, 1
2, 81994, Note_off_c, 0, 81, 1
2, 81994, Note_off_c, 2, 65, 1
2, 81995, Note_on_c, 1, 74, 125
2, 81996, Note_on_c, 3, 55, 123
2, 81996, Note_on_c, 3, 59, 123
2, 81996, Note_on_c, 1, 71, 125
2, 82186, Note_off_c, 1, 74, 1
2, 82186, Note_off_c, 1, 71, 1
2, 82187, Note_off_c, 3, 59, 1
2, 82187, Note_on_c, 0, 82, 113
2, 82188, Note_on_c, 2, 64, 127
2, 82188, Note_on_c, 0, 79, 113
2, 82281, Note_off_c, 3, 55, 1
2, 82281, Note_on_c, 3, 57, 123
2, 82327, Note_off_c, 3, 57, 1
2, 82328, Note_on_c, 3, 55, 123
2, 82373, Note_off_c, 0, 82, 1
2, 82374, Note_off_c, 0, 79, 1
2, 82374, Note_on_c, 0, 81, 113
2, 82375, Note_on_c, 4, 53, 123
2, 82375, Note_on_c, 1, 73, 125
2, 82376, Note_off_c, 3, 55, 1
2, 82465, Note_off_c, 2, 64, 1
2, 82466, Note_on_c, 2, 65, 127
2, 82560, Note_off_c, 2, 65, 1
2, 82561, Note_off_c, 1, 73, 1
2, 82561, Note_off_c, 4, 53, 1
2, 82562, Note_off_c, 0, 81, 1
2, 82562, Note_on_c, 2, 64, 127
2, 82563, Note_on_c, 0, 79, 113
2, 82563, Note_on_c, 1, 74, 125
2, 82564, Note_on_c, 3, 58, 123
2, 82656, Note_off_c, 0, 79, 1
2, 82656, Note_off_c, 2, 64, 1
2, 82656, Note_on_c, 0, 77, 122
2, 82656, Note_on_c, 3, 62, 123
2, 82747, Note_off_c, 3, 62, 1
2, 82748, Note_off_c, 0, 77, 1
2, 82748, Note_off_c, 3, 58, 1
2, 82749, Note_off_c, 1, 74, 1
2, 82749, Note_on_c, 0, 79, 113
2, 82750, Note_on_c, 4, 52, 123
2, 82750, Note_on_c, 1, 76, 122
2, 82751, Note_on_c, 3, 61, 123
2, 82843, Note_off_c, 0, 79, 1
2, 82843, Note_on_c, 0, 77, 122
2, 82938, Note_off_c, 0, 77, 1
2, 82938, Note_off_c, 4, 52, 1
2, 82939, Note_off_c, 1, 76, 1
2, 82939, Note_off_c, 3, 61, 1
2, 82940, Note_on_c, 3, 57, 123
2, 82940, Note_on_c, 0, 79, 113
2, 82941, Note_on_c, 1, 73, 125
2, 83030, Note_off_c, 0, 79, 1
2, 83033, Note_on_c, 1, 76, 122
2, 83125, Note_off_c, 1, 76, 1
2, 83128, Note_off_c, 1, 73, 1
2, 83128, Note_on_c, 0, 77, 119
2, 83129, Note_on_c, 1, 74, 125
2, 83223, Note_off_c, 0, 77, 1
2, 83223, Note_off_c, 3, 57, 1
2, 83224, Note_on_c, 3, 59, 123
2, 83224, Note_on_c, 0, 79, 110
2, 83304, Note_off_c, 0, 79, 1
2, 83321, Note_off_c, 1, 74, 1
2, 83321, Note_on_c, 0, 79, 110
2, 83322, Note_on_c, 1, 76, 119
2, 83324, Note_on_c, 3, 57, 123
2, 83341, Note_on_c, 0, 81, 110
2, 83352, Note_off_c, 0, 79, 1
2, 83353, Note_off_c, 3, 59, 1
2, 83368, Note_on_c, 0, 79, 110
2, 83371, Note_off_c, 0, 81, 1
2, 83419, Note_off_c, 0, 79, 1
2, 83427, Note_off_c, 3, 57, 1
2, 83428, Note_on_c, 3, 55, 123
2, 83428, Note_on_c, 0, 77, 119
2, 83476, Note_off_c, 0, 77, 1
2, 83479, Note_on_c, 0, 79, 110
2, 83525, Note_off_c, 3, 55, 1
2, 83526, Note_off_c, 1, 76, 1
2, 83526, Note_on_c, 0, 81, 110
2, 83527, Note_on_c, 2, 69, 125
2, 83527, Note_on_c, 4, 53, 123
2, 83530, Note_off_c, 0, 79, 1
2, 83620, Note_off_c, 0, 81, 1
2, 83621, Note_off_c, 4, 53, 1
2, 83621, Note_on_c, 1, 73, 125
2, 83622, Note_on_c, 4, 52, 123
2, 83717, Note_off_c, 4, 52, 1
2, 83717, Note_off_c, 1, 73, 1
2, 83718, Note_off_c, 2, 69, 1
2, 83718, Note_on_c, 1, 74, 125
2, 83720, Note_on_c, 4, 53, 123
2, 83720, Note_on_c, 3, 57, 123
2, 83815, Note_off_c, 1, 74, 1
2, 83815, Note_off_c, 4, 53, 1
2, 83816, Note_on_c, 0, 79, 113
2, 83816, Note_on_c, 4, 50, 123
2, 83910, Note_off_c, 4, 50, 1
2, 83910, Note_off_c, 0, 79, 1
2, 83911, Note_off_c, 3, 57, 1
2, 83911, Note_on_c, 0, 77, 125
2, 83912, Note_on_c, 3, 59, 123
2, 83912, Note_on_c, 3, 55, 123
2, 83927, Note_on_c, 1, 76, 125
2, 83933, Note_off_c, 0, 77, 1
2, 83953, Note_off_c, 1, 76, 1
2, 83953, Note_on_c, 0, 77, 125
2, 83976, Note_on_c, 1, 76, 125
2, 83979, Note_off_c, 0, 77, 1
2, 84002, Note_off_c, 1, 76, 1
2, 84002, Note_on_c, 0, 77, 125
2, 84025, Note_off_c, 0, 77, 1
2, 84025, Note_on_c, 1, 76, 125
2, 84111, Note_off_c, 3, 55, 1
2, 84112, Note_off_c, 3, 59, 1
2, 84112, Note_on_c, 3, 57, 123
2, 84113, Note_on_c, 3, 61, 123
2, 84113, Note_on_c, 2, 64, 127
2, 84189, Note_off_c, 1, 76, 1
2, 84209, Note_on_c, 1, 74, 125
2, 84290, Note_off_c, 1, 74, 1
2, 84308, Note_off_c, 2, 64, 1
2, 84308, Note_off_c, 3, 61, 1
2, 84309, Note_on_c, 4, 50, 123
2, 84309, Note_on_c, 1, 74, 125
2, 84310, Note_on_c, 3, 62, 123
2, 84310, Note_on_c, 2, 66, 127
2, 84326, Note_off_c, 3, 57, 1
2, 84495, Note_off_c, 2, 66, 1
2, 84495, Note_on_c, 2, 67, 127
2, 84538, Note_off_c, 1, 74, 1
2, 84589, Note_off_c, 3, 62, 1
2, 84590, Note_on_c, 2, 64, 127
2, 84636, Note_off_c, 2, 64, 1
2, 84636, Note_on_c, 3, 62, 123
2, 84682, Note_off_c, 2, 67, 1
2, 84682, Note_on_c, 3, 60, 123
2, 84683, Note_on_c, 2, 69, 125
2, 84684, Note_off_c, 3, 62, 1
2, 84869, Note_off_c, 3, 60, 1
2, 84869, Note_on_c, 2, 66, 127
2, 84947, Note_off_c, 2, 69, 1
2, 84961, Note_on_c, 1, 71, 125
2, 85010, Note_off_c, 1, 71, 1
2, 85013, Note_on_c, 2, 69, 125
2, 85058, Note_off_c, 2, 66, 1
2, 85058, Note_on_c, 3, 59, 123
2, 85058, Note_on_c, 2, 67, 127
2, 85059, Note_off_c, 2, 69, 1
2, 85150, Note_off_c, 4, 50, 1
2, 85151, Note_on_c, 4, 52, 123
2, 85248, Note_off_c, 4, 52, 1
2, 85248, Note_off_c, 3, 59, 1
2, 85249, Note_off_c, 2, 67, 1
2, 85249, Note_on_c, 1, 72, 125
2, 85250, Note_on_c, 2, 64, 127
2, 85250, Note_on_c, 4, 50, 123
2, 85343, Note_off_c, 4, 50, 1
2, 85344, Note_on_c, 4, 48, 123
2, 85421, Note_off_c, 2, 64, 1
2, 85436, Note_off_c, 4, 48, 1
2, 85436, Note_off_c, 1, 72, 1
2, 85436, Note_on_c, 4, 47, 123
2, 85437, Note_on_c, 2, 66, 127
2, 85507, Note_off_c, 2, 66, 1
2, 85530, Note_off_c, 4, 47, 1
2, 85531, Note_on_c, 2, 66, 127
2, 85531, Note_on_c, 4, 45, 123
2, 85625, Note_off_c, 4, 45, 1
2, 85626, Note_off_c, 2, 66, 1
2, 85626, Note_on_c, 1, 71, 125
2, 85628, Note_on_c, 4, 43, 123
2, 85629, Note_on_c, 2, 64, 127
2, 85720, Note_off_c, 2, 64, 1
2, 85721, Note_off_c, 4, 43, 1
2, 85721, Note_on_c, 3, 62, 123
2, 85722, Note_on_c, 4, 42, 123
2, 85815, Note_off_c, 4, 42, 1
2, 85816, Note_off_c, 3, 62, 1
2, 85816, Note_on_c, 3, 60, 123
2, 85817, Note_on_c, 4, 40, 123
2, 85892, Note_off_c, 1, 71, 1
2, 85909, Note_on_c, 1, 72, 125
2, 86004, Note_off_c, 4, 40, 1
2, 86004, Note_off_c, 1, 72, 1
2, 86005, Note_on_c, 4, 52, 123
2, 86005, Note_on_c, 1, 71, 125
2, 86099, Note_off_c, 1, 71, 1
2, 86100, Note_on_c, 2, 69, 125
2, 86194, Note_off_c, 2, 69, 1
2, 86195, Note_off_c, 4, 52, 1
2, 86195, Note_on_c, 4, 54, 123
2, 86196, Note_on_c, 2, 67, 127
2, 86291, Note_off_c, 2, 67, 1
2, 86291, Note_on_c, 2, 66, 127
2, 86386, Note_off_c, 2, 66, 1
2, 86386, Note_off_c, 4, 54, 1
2, 86387, Note_on_c, 3, 55, 123
2, 86387, Note_on_c, 2, 67, 127
2, 86388, Note_on_c, 2, 64, 127
2, 86481, Note_off_c, 2, 64, 1
2, 86484, Note_on_c, 3, 62, 123
2, 86579, Note_off_c, 3, 62, 1
2, 86579, Note_off_c, 2, 67, 1
2, 86580, Note_on_c, 2, 64, 127
2, 86580, Note_on_c, 2, 69, 125
2, 86675, Note_off_c, 3, 60, 1
2, 86676, Note_on_c, 3, 62, 123
2, 86770, Note_off_c, 3, 62, 1
2, 86771, Note_off_c, 3, 55, 1
2, 86771, Note_off_c, 2, 69, 1
2, 86772, Note_on_c, 1, 71, 125
2, 86772, Note_on_c, 3, 60, 123
2, 86773, Note_on_c, 3, 57, 123
2, 86865, Note_off_c, 3, 57, 1
2, 86866, Note_off_c, 3, 60, 1
2, 86866, Note_on_c, 3, 55, 123
2, 86867, Note_on_c, 3, 59, 123
2, 86960, Note_off_c, 3, 55, 1
2, 86961, Note_off_c, 1, 71, 1
2, 86961, Note_off_c, 3, 59, 1
2, 86962, Note_off_c, 2, 64, 1
2, 86964, Note_on_c, 3, 62, 123
2, 86964, Note_on_c, 4, 54, 123
2, 86964, Note_on_c, 1, 72, 122
2, 86965, Note_on_c, 3, 57, 123
2, 87056, Note_off_c, 3, 57, 1
2, 87056, Note_on_c, 3, 55, 123
2, 87151, Note_off_c, 4, 54, 1
2, 87151, Note_off_c, 3, 55, 1
2, 87152, Note_on_c, 3, 57, 123
2, 87152, Note_on_c, 4, 50, 123
2, 87192, Note_off_c, 1, 72, 1
2, 87246, Note_off_c, 3, 57, 1
2, 87246, Note_on_c, 1, 74, 122
2, 87249, Note_on_c, 4, 54, 123
2, 87295, Note_off_c, 1, 74, 1
2, 87298, Note_on_c, 1, 72, 122
2, 87344, Note_off_c, 4, 54, 1
2, 87344, Note_off_c, 4, 50, 1
2, 87345, Note_on_c, 3, 55, 123
2, 87345, Note_on_c, 1, 71, 122
2, 87347, Note_off_c, 1, 72, 1
2, 87424, Note_off_c, 3, 62, 1
2, 87439, Note_on_c, 2, 69, 125
2, 87535, Note_off_c, 2, 69, 1
2, 87536, Note_off_c, 1, 71, 1
2, 87536, Note_on_c, 1, 76, 122
2, 87537, Note_on_c, 2, 67, 127
2, 87538, Note_on_c, 3, 59, 123
2, 87633, Note_off_c, 2, 67, 1
2, 87634, Note_on_c, 2, 65, 127
2, 87728, Note_off_c, 1, 76, 1
2, 87729, Note_off_c, 2, 65, 1
2, 87729, Note_on_c, 2, 69, 125
2, 87730, Note_on_c, 3, 60, 123
2, 87730, Note_on_c, 2, 64, 127
2, 87744, Note_off_c, 3, 59, 1
2, 87823, Note_off_c, 2, 64, 1
2, 87824, Note_on_c, 2, 67, 127
2, 87918, Note_off_c, 2, 69, 1
2, 87919, Note_off_c, 2, 67, 1
2, 87919, Note_on_c, 1, 74, 122
2, 87920, Note_on_c, 3, 62, 123
2, 87920, Note_on_c, 2, 65, 127
2, 87936, Note_off_c, 3, 60, 1
2, 88013, Note_off_c, 2, 65, 1
2, 88014, Note_on_c, 2, 69, 125
2, 88107, Note_off_c, 3, 62, 1
2, 88107, Note_off_c, 2, 69, 1
2, 88108, Note_on_c, 2, 67, 127
2, 88108, Note_on_c, 2, 64, 127
2, 88186, Note_off_c, 1, 74, 1
2, 88200, Note_on_c, 1, 76, 122
2, 88298, Note_off_c, 1, 76, 1
2, 88299, Note_on_c, 1, 74, 122
2, 88396, Note_off_c, 2, 64, 1
2, 88397, Note_off_c, 1, 74, 1
2, 88397, Note_on_c, 1, 72, 122
2, 88398, Note_on_c, 2, 65, 127
2, 88447, Note_off_c, 2, 65, 1
2, 88452, Note_on_c, 2, 64, 127
2, 88499, Note_off_c, 1, 72, 1
2, 88499, Note_on_c, 3, 62, 123
2, 88500, Note_off_c, 2, 64, 1
2, 88500, Note_on_c, 1, 71, 122
2, 88579, Note_off_c, 2, 67, 1
2, 88596, Note_off_c, 1, 71, 1
2, 88597, Note_on_c, 1, 72, 122
2, 88597, Note_on_c, 2, 69, 125
2, 88690, Note_off_c, 1, 72, 1
2, 88691, Note_off_c, 2, 69, 1
2, 88691, Note_off_c, 3, 62, 1
2, 88692, Note_on_c, 1, 74, 122
2, 88693, Note_on_c, 2, 67, 127
2, 88693, Note_on_c, 1, 70, 125
2, 88787, Note_off_c, 1, 74, 1
2, 88787, Note_on_c, 1, 76, 122
2, 88884, Note_off_c, 1, 76, 1
2, 88885, Note_off_c, 3, 55, 1
2, 88885, Note_off_c, 1, 70, 1
2, 88886, Note_off_c, 2, 67, 1
2, 88886, Note_on_c, 1, 72, 122
2, 88887, Note_on_c, 3, 57, 123
2, 88887, Note_on_c, 0, 77, 122
2, 88888, Note_on_c, 3, 60, 123
2, 88980, Note_off_c, 0, 77, 1
2, 88980, Note_on_c, 0, 79, 116
2, 89075, Note_off_c, 0, 79, 1
2, 89076, Note_off_c, 3, 60, 1
2, 89076, Note_on_c, 2, 65, 127
2, 89076, Note_on_c, 0, 81, 116
2, 89168, Note_off_c, 0, 81, 1
2, 89169, Note_on_c, 0, 79, 116
2, 89232, Note_off_c, 1, 72, 1
2, 89263, Note_off_c, 0, 79, 1
2, 89264, Note_off_c, 3, 57, 1
2, 89264, Note_on_c, 0, 77, 122
2, 89265, Note_on_c, 3, 59, 123
2, 89265, Note_on_c, 1, 74, 122
2, 89358, Note_off_c, 0, 77, 1
2, 89361, Note_off_c, 2, 65, 1
2, 89362, Note_on_c, 1, 76, 122
2, 89362, Note_on_c, 2, 67, 127
2, 89457, Note_off_c, 2, 67, 1
2, 89460, Note_off_c, 1, 76, 1
2, 89460, Note_off_c, 1, 74, 1
2, 89460, Note_off_c, 3, 59, 1
2, 89461, Note_on_c, 2, 67, 127
2, 89461, Note_on_c, 1, 74, 122
2, 89462, Note_on_c, 3, 60, 123
2, 89462, Note_on_c, 2, 65, 127
2, 89555, Note_off_c, 1, 74, 1
2, 89555, Note_off_c, 2, 65, 1
2, 89555, Note_on_c, 1, 72, 122
2, 89556, Note_on_c, 2, 64, 127
2, 89645, Note_off_c, 2, 67, 1
2, 89655, Note_off_c, 1, 72, 1
2, 89656, Note_off_c, 2, 64, 1
2, 89656, Note_off_c, 3, 60, 1
2, 89657, Note_on_c, 2, 67, 127
2, 89657, Note_on_c, 1, 72, 122
2, 89658, Note_on_c, 3, 62, 123
2, 89660, Note_on_c, 4, 53, 123
2, 89678, Note_on_c, 1, 71, 122
2, 89687, Note_off_c, 1, 72, 1
2, 89710, Note_off_c, 1, 71, 1
2, 89710, Note_on_c, 1, 72, 125
2, 89736, Note_on_c, 1, 71, 125
2, 89739, Note_off_c, 1, 72, 1
2, 89771, Note_off_c, 4, 53, 1
2, 89771, Note_on_c, 3, 57, 123
2, 89871, Note_off_c, 3, 57, 1
2, 89872, Note_on_c, 3, 55, 123
2, 89966, Note_off_c, 3, 55, 1
2, 89967, Note_on_c, 4, 53, 123
2, 90030, Note_off_c, 1, 71, 1
2, 90061, Note_off_c, 4, 53, 1
2, 90062, Note_off_c, 3, 62, 1
2, 90062, Note_on_c, 1, 72, 125
2, 90063, Note_on_c, 2, 64, 127
2, 90063, Note_on_c, 4, 52, 123
2, 90155, Note_off_c, 4, 52, 1
2, 90158, Note_on_c, 4, 50, 123
2, 90236, Note_off_c, 2, 67, 1
2, 90250, Note_off_c, 4, 50, 1
2, 90251, Note_off_c, 1, 72, 1
2, 90251, Note_off_c, 2, 64, 1
2, 90252, Note_on_c, 3, 62, 123
2, 90252, Note_on_c, 2, 65, 127
2, 90252, Note_on_c, 1, 74, 125
2, 90253, Note_on_c, 4, 48, 123
2, 90347, Note_off_c, 4, 48, 1
2, 90347, Note_on_c, 4, 47, 123
2, 90440, Note_off_c, 4, 47, 1
2, 90443, Note_off_c, 1, 74, 1
2, 90444, Note_on_c, 4, 48, 123
2, 90444, Note_on_c, 2, 67, 127
2, 90537, Note_off_c, 4, 48, 1
2, 90537, Note_on_c, 4, 50, 123
2, 90631, Note_off_c, 4, 50, 1
2, 90633, Note_off_c, 2, 67, 1
2, 90634, Note_off_c, 2, 65, 1
2, 90634, Note_off_c, 3, 62, 1
2, 90635, Note_on_c, 1, 72, 125
2, 90635, Note_on_c, 2, 64, 127
2, 90636, Note_on_c, 4, 52, 123
2, 90636, Note_on_c, 3, 55, 123
2, 90728, Note_off_c, 4, 52, 1
2, 90729, Note_on_c, 4, 53, 123
2, 90806, Note_off_c, 3, 55, 1
2, 90823, Note_off_c, 2, 64, 1
2, 90824, Note_off_c, 4, 53, 1
2, 90825, Note_on_c, 3, 55, 123
2, 90825, Note_on_c, 3, 62, 123
2, 90999, Note_off_c, 1, 72, 1
2, 91016, Note_on_c, 1, 71, 125
2, 91017, Note_on_c, 4, 43, 123
2, 91212, Note_off_c, 1, 71, 1
2, 91212, Note_off_c, 4, 43, 1
2, 91213, Note_off_c, 3, 62, 1
2, 91213, Note_on_c, 1, 72, 125
2, 91214, Note_on_c, 2, 64, 127
2, 91214, Note_on_c, 4, 48, 123
2, 91350, Note_off_c, 2, 64, 1
2, 91396, Note_off_c, 4, 48, 1
2, 91402, Note_off_c, 3, 55, 1
2, 91403, Note_on_c, 2, 69, 125
2, 91403, Note_on_c, 4, 48, 123
2, 91595, Note_off_c, 1, 72, 1
2, 91596, Note_off_c, 4, 48, 1
2, 91596, Note_on_c, 4, 50, 123
2, 91596, Note_on_c, 1, 71, 125
2, 91768, Note_off_c, 2, 69, 1
2, 91782, Note_off_c, 1, 71, 1
2, 91783, Note_off_c, 4, 50, 1
2, 91784, Note_on_c, 4, 52, 123
2, 91784, Note_on_c, 2, 67, 127
2, 91785, Note_on_c, 1, 70, 125
2, 91973, Note_off_c, 4, 52, 1
2, 91976, Note_off_c, 1, 70, 1
2, 91976, Note_on_c, 2, 69, 125
2, 91977, Note_on_c, 4, 53, 123
2, 92148, Note_off_c, 2, 67, 1
2, 92163, Note_off_c, 2, 69, 1
2, 92163, Note_on_c, 1, 74, 125
2, 92164, Note_on_c, 2, 65, 127
2, 92258, Note_off_c, 4, 53, 1
2, 92258, Note_on_c, 3, 55, 123
2, 92304, Note_off_c, 3, 55, 1
2, 92307, Note_on_c, 4, 53, 123
2, 92353, Note_off_c, 2, 65, 1
2, 92353, Note_on_c, 4, 52, 123
2, 92354, Note_off_c, 4, 53, 1
2, 92354, Note_on_c, 2, 67, 127
2, 92523, Note_off_c, 1, 74, 1
2, 92540, Note_off_c, 2, 67, 1
2, 92541, Note_off_c, 4, 52, 1
2, 92541, Note_on_c, 1, 72, 125
2, 92542, Note_on_c, 3, 57, 123
2, 92542, Note_on_c, 2, 69, 125
2, 92727, Note_off_c, 2, 69, 1
2, 92728, Note_off_c, 1, 72, 1
2, 92728, Note_off_c, 3, 57, 1
2, 92729, Note_on_c, 1, 74, 125
2, 92729, Note_on_c, 1, 70, 125
2, 92730, Note_on_c, 4, 50, 123
2, 92912, Note_off_c, 1, 74, 1
2, 92912, Note_off_c, 4, 50, 1
2, 92913, Note_on_c, 3, 55, 123
2, 92913, Note_on_c, 1, 76, 125
2, 92961, Note_off_c, 1, 70, 1
2, 93001, Note_on_c, 1, 72, 125
2, 93047, Note_off_c, 1, 72, 1
2, 93050, Note_on_c, 1, 70, 125
2, 93093, Note_off_c, 1, 76, 1
2, 93094, Note_on_c, 0, 77, 125
2, 93094, Note_on_c, 2, 69, 125
2, 93095, Note_off_c, 1, 70, 1
2, 93171, Note_off_c, 3, 55, 1
2, 93185, Note_on_c, 3, 57, 123
2, 93277, Note_off_c, 3, 57, 1
2, 93278, Note_off_c, 2, 69, 1
2, 93278, Note_on_c, 1, 74, 125
2, 93279, Note_on_c, 3, 55, 123
2, 93367, Note_off_c, 3, 55, 1
2, 93367, Note_on_c, 4, 53, 123
2, 93459, Note_off_c, 4, 53, 1
2, 93459, Note_off_c, 1, 74, 1
2, 93460, Note_on_c, 2, 67, 127
2, 93460, Note_on_c, 4, 52, 123
2, 93502, Note_off_c, 0, 77, 1
2, 93551, Note_off_c, 4, 52, 1
2, 93552, Note_on_c, 4, 50, 123
2, 93552, Note_on_c, 0, 81, 113
2, 93607, Note_off_c, 0, 81, 1
2, 93642, Note_off_c, 2, 67, 1
2, 93642, Note_off_c, 4, 50, 1
2, 93643, Note_on_c, 1, 72, 125
2, 93643, Note_on_c, 0, 79, 113
2, 93644, Note_on_c, 4, 52, 123
2, 93699, Note_off_c, 0, 79, 1
2, 93736, Note_off_c, 4, 52, 1
2, 93738, Note_on_c, 0, 77, 122
2, 93739, Note_on_c, 4, 53, 123
2, 93803, Note_off_c, 0, 77, 1
2, 93832, Note_off_c, 4, 53, 1
2, 93832, Note_on_c, 1, 76, 122
2, 93833, Note_on_c, 3, 55, 123
2, 93896, Note_off_c, 1, 72, 1
2, 93901, Note_off_c, 1, 76, 1
2, 93927, Note_off_c, 3, 55, 1
2, 93928, Note_on_c, 0, 77, 122
2, 93928, Note_on_c, 1, 74, 122
2, 93930, Note_on_c, 3, 57, 123
2, 93994, Note_off_c, 0, 77, 1
2, 94025, Note_off_c, 3, 57, 1
2, 94025, Note_off_c, 1, 74, 1
2, 94026, Note_on_c, 1, 76, 122
2, 94026, Note_on_c, 1, 72, 125
2, 94027, Note_on_c, 3, 58, 123
2, 94086, Note_off_c, 1, 76, 1
2, 94120, Note_off_c, 3, 58, 1
2, 94123, Note_off_c, 1, 72, 1
2, 94124, Note_on_c, 1, 74, 122
2, 94124, Note_on_c, 1, 70, 125
2, 94124, Note_on_c, 3, 55, 123
2, 94184, Note_off_c, 1, 74, 1
2, 94215, Note_off_c, 3, 55, 1
2, 94216, Note_off_c, 1, 70, 1
2, 94216, Note_on_c, 1, 72, 125
2, 94217, Note_on_c, 2, 69, 125
2, 94217, Note_on_c, 3, 57, 123
2, 94310, Note_off_c, 3, 57, 1
2, 94310, Note_off_c, 2, 69, 1
2, 94311, Note_on_c, 4, 52, 123
2, 94311, Note_on_c, 1, 70, 125
2, 94401, Note_off_c, 4, 52, 1
2, 94402, Note_off_c, 1, 70, 1
2, 94402, Note_on_c, 2, 69, 125
2, 94403, Note_on_c, 4, 53, 123
2, 94498, Note_off_c, 4, 53, 1
2, 94498, Note_off_c, 2, 69, 1
2, 94499, Note_on_c, 3, 55, 123
2, 94499, Note_on_c, 2, 67, 127
2, 94593, Note_off_c, 2, 67, 1
2, 94593, Note_off_c, 3, 55, 1
2, 94594, Note_on_c, 2, 65, 127
2, 94594, Note_on_c, 3, 57, 123
2, 94685, Note_off_c, 3, 57, 1
2, 94685, Note_off_c, 2, 65, 1
2, 94686, Note_on_c, 2, 67, 127
2, 94686, Note_on_c, 3, 59, 123
2, 94777, Note_off_c, 3, 59, 1
2, 94777, Note_off_c, 2, 67, 1
2, 94778, Note_on_c, 3, 60, 123
2, 94778, Note_on_c, 2, 65, 127
2, 94866, Note_off_c, 2, 65, 1
2, 94869, Note_off_c, 3, 60, 1
2, 94870, Note_on_c, 2, 64, 127
2, 94870, Note_on_c, 3, 57, 123
2, 94961, Note_off_c, 2, 64, 1
2, 94962, Note_off_c, 3, 57, 1
2, 94962, Note_off_c, 1, 72, 1
2, 94963, Note_on_c, 3, 59, 123
2, 94963, Note_on_c, 3, 62, 123
2, 95053, Note_on_c, 2, 67, 127
2, 95098, Note_off_c, 2, 67, 1
2, 95099, Note_on_c, 2, 69, 125
2, 95146, Note_off_c, 2, 69, 1
2, 95146, Note_on_c, 1, 71, 125
2, 95238, Note_off_c, 1, 71, 1
2, 95238, Note_on_c, 1, 72, 125
2, 95330, Note_off_c, 1, 72, 1
2, 95330, Note_on_c, 1, 74, 125
2, 95422, Note_off_c, 1, 74, 1
2, 95423, Note_on_c, 1, 76, 125
2, 95514, Note_off_c, 1, 76, 1
2, 95517, Note_on_c, 0, 77, 125
2, 95606, Note_off_c, 3, 62, 1
2, 95607, Note_on_c, 2, 67, 127
2, 95701, Note_off_c, 2, 67, 1
2, 95702, Note_off_c, 3, 59, 1
2, 95702, Note_on_c, 2, 69, 125
2, 95703, Note_on_c, 3, 60, 123
2, 95750, Note_on_c, 1, 72, 125
2, 95753, Note_off_c, 0, 77, 1
2, 95802, Note_off_c, 1, 72, 1
2, 95805, Note_on_c, 1, 74, 125
2, 95857, Note_off_c, 1, 74, 1
2, 95860, Note_on_c, 1, 76, 125
2, 95912, Note_off_c, 1, 76, 1
2, 95912, Note_on_c, 0, 77, 125
2, 96007, Note_on_c, 0, 79, 116
2, 96010, Note_off_c, 0, 77, 1
2, 96125, Note_off_c, 2, 69, 1
2, 96125, Note_on_c, 0, 81, 116
2, 96128, Note_off_c, 0, 79, 1
2, 96255, Note_on_c, 0, 77, 125
2, 96405, Note_off_c, 0, 77, 1
2, 96407, Note_on_c, 1, 74, 125
2, 96564, Note_off_c, 0, 81, 1
2, 96570, Note_on_c, 0, 83, 116
2, 96893, Note_off_c, 1, 74, 1
2, 96893, Note_off_c, 0, 83, 1
2, 96894, Note_on_c, 0, 84, 108
2, 96894, Note_on_c, 0, 79, 108
2, 96895, Note_on_c, 1, 76, 117
2, 98295, Note_off_c, 3, 60, 1
2, 98856, Note_off_c, 0, 84, 1
2, 98856, Note_off_c, 1, 76, 1
2, 98858, Note_off_c, 0, 79, 1
2, 98858, End_track
0, 0, End_of_file
